500 0 14 0           
7 Unknown 11 ACIS 5.0 NT 24 Thu Mar 25 23:04:53 1999 
-1 9.9999999999999995e-007 1e-010 
body $-1 $14 $-1 $15 #
body $-1 $16 $-1 $17 #
body $-1 $18 $-1 $19 #
body $-1 $20 $-1 $21 #
body $-1 $22 $-1 $23 #
body $-1 $24 $-1 $25 #
body $-1 $26 $-1 $27 #
body $-1 $28 $-1 $29 #
body $-1 $30 $-1 $31 #
body $-1 $32 $-1 $33 #
body $-1 $34 $-1 $35 #
body $-1 $36 $-1 $37 #
body $-1 $38 $-1 $39 #
body $-1 $40 $-1 $41 #
lump $-1 $-1 $42 $0 #
transform $-1 1 0 0 0 1 0 0 0 1 72.167729728080076 39.465949454342471 14.140991630561192 1 rotate no_reflect no_shear #
lump $-1 $-1 $43 $1 #
transform $-1 1 0 0 0 1 0 0 0 1 72.167729728080076 39.465949454342471 14.140991630561192 1 rotate no_reflect no_shear #
lump $-1 $-1 $44 $2 #
transform $-1 1 0 0 0 1 0 0 0 1 72.167729728080076 39.465949454342471 14.140991630561192 1 rotate no_reflect no_shear #
lump $-1 $-1 $45 $3 #
transform $-1 1 0 0 0 1 0 0 0 1 72.167729728080076 39.465949454342471 14.140991630561192 1 rotate no_reflect no_shear #
lump $-1 $-1 $46 $4 #
transform $-1 1 0 0 0 1 0 0 0 1 72.167729728080076 39.465949454342471 14.140991630561192 1 rotate no_reflect no_shear #
lump $-1 $-1 $47 $5 #
transform $-1 1 0 0 0 1 0 0 0 1 72.167729728080076 39.465949454342471 14.140991630561192 1 rotate no_reflect no_shear #
lump $-1 $-1 $48 $6 #
transform $-1 1 0 0 0 1 0 0 0 1 72.167729728080076 39.465949454342471 14.140991630561192 1 rotate no_reflect no_shear #
lump $-1 $-1 $49 $7 #
transform $-1 1 0 0 0 1 0 0 0 1 72.167729728080076 39.465949454342471 14.140991630561192 1 rotate no_reflect no_shear #
lump $-1 $-1 $50 $8 #
transform $-1 1 0 0 0 1 0 0 0 1 72.167729728080076 39.465949454342471 14.140991630561192 1 rotate no_reflect no_shear #
lump $-1 $-1 $51 $9 #
transform $-1 1 0 0 0 1 0 0 0 1 72.167729728080076 39.465949454342471 14.140991630561192 1 rotate no_reflect no_shear #
lump $-1 $-1 $52 $10 #
transform $-1 1 0 0 0 1 0 0 0 1 72.167729728080076 39.465949454342471 14.140991630561192 1 rotate no_reflect no_shear #
lump $-1 $-1 $53 $11 #
transform $-1 1 0 0 0 1 0 0 0 1 72.167729728080076 39.465949454342471 14.140991630561192 1 rotate no_reflect no_shear #
lump $-1 $-1 $54 $12 #
transform $-1 1 0 0 0 1 0 0 0 1 72.167729728080076 39.465949454342471 14.140991630561192 1 rotate no_reflect no_shear #
lump $-1 $-1 $55 $13 #
transform $-1 1 0 0 0 1 0 0 0 1 72.167729728080076 39.465949454342471 14.140991630561192 1 rotate no_reflect no_shear #
shell $-1 $-1 $-1 $56 $-1 $14 #
shell $-1 $-1 $-1 $57 $-1 $16 #
shell $-1 $-1 $-1 $58 $-1 $18 #
shell $-1 $-1 $-1 $59 $-1 $20 #
shell $-1 $-1 $-1 $60 $-1 $22 #
shell $-1 $-1 $-1 $61 $-1 $24 #
shell $-1 $-1 $-1 $62 $-1 $26 #
shell $-1 $-1 $-1 $63 $-1 $28 #
shell $-1 $-1 $-1 $64 $-1 $30 #
shell $-1 $-1 $-1 $65 $-1 $32 #
shell $-1 $-1 $-1 $66 $-1 $34 #
shell $-1 $-1 $-1 $67 $-1 $36 #
shell $-1 $-1 $-1 $68 $-1 $38 #
shell $-1 $-1 $-1 $69 $-1 $40 #
face $-1 $70 $71 $42 $-1 $72 forward single #
face $-1 $73 $74 $43 $-1 $75 reversed single #
face $-1 $76 $77 $44 $-1 $78 reversed single #
face $-1 $79 $80 $45 $-1 $81 forward single #
face $-1 $82 $83 $46 $-1 $84 reversed single #
face $-1 $85 $86 $47 $-1 $87 forward single #
face $-1 $88 $89 $48 $-1 $90 reversed single #
face $-1 $91 $92 $49 $-1 $93 forward single #
face $-1 $94 $95 $50 $-1 $96 reversed single #
face $-1 $97 $98 $51 $-1 $99 forward single #
face $-1 $100 $101 $52 $-1 $102 reversed single #
face $-1 $103 $104 $53 $-1 $105 forward single #
face $-1 $106 $107 $54 $-1 $108 forward single #
face $-1 $109 $110 $55 $-1 $111 forward single #
face $-1 $112 $113 $42 $-1 $114 reversed single #
loop $-1 $-1 $115 $56 #
plane-surface $-1 0 0 14.140991630561192 0 0 1 1 0 0 forward_v I I I I #
face $-1 $116 $117 $43 $-1 $118 reversed single #
loop $-1 $-1 $119 $57 #
plane-surface $-1 -64.222513868052161 -33.692944753209709 0 0 -1 0 0 0 -1 forward_v I I I I #
face $-1 $120 $121 $44 $-1 $122 reversed single #
loop $-1 $-1 $123 $58 #
plane-surface $-1 -49.122848811890805 -39.465949454342464 10.216514069493769 0 -0.51503808176128008 0.85716729658548041 1 0 0 forward_v I I I I #
face $-1 $124 $125 $45 $-1 $126 forward single #
loop $-1 $127 $128 $59 #
cone-surface $-1 -49.122848811890805 -35.49477962156805 11.004676675165543 0 0.51503808176128008 -0.85716729658548041 1.5 0 0 1 I I 0 1 1.5 forward I I I I #
face $-1 $129 $130 $46 $-1 $131 reversed single #
loop $-1 $-1 $132 $60 #
plane-surface $-1 -9.857142681731295 -113.8042076227762 133.93614965295379 -1 0 0 0 -0.51503808176128008 0.85716729658548041 forward_v I I I I #
face $-1 $133 $134 $47 $-1 $135 forward single #
loop $-1 $136 $137 $61 #
cone-surface $-1 -17.011591877864724 -35.49477962156805 11.004676675165543 0 0.51503808176128008 -0.85716729658548041 1.5 0 0 1 I I 0 1 1.5 forward I I I I #
face $-1 $138 $139 $48 $-1 $140 reversed single #
loop $-1 $-1 $141 $62 #
plane-surface $-1 22.254114252294784 -113.8042076227762 133.93614965295379 -1 0 0 0 -0.51503808176128008 0.85716729658548041 forward_v I I I I #
face $-1 $142 $143 $49 $-1 $144 forward single #
loop $-1 $145 $146 $63 #
cone-surface $-1 15.099665056161356 -35.49477962156805 11.004676675165543 0 0.51503808176128008 -0.85716729658548041 1.5 0 0 1 I I 0 1 1.5 forward I I I I #
face $-1 $147 $148 $50 $-1 $149 reversed single #
loop $-1 $-1 $150 $64 #
plane-surface $-1 54.365371186320871 -113.8042076227762 133.93614965295379 -1 0 0 0 -0.51503808176128008 0.85716729658548041 forward_v I I I I #
face $-1 $151 $152 $51 $-1 $153 forward single #
loop $-1 $154 $155 $65 #
cone-surface $-1 47.210921990187444 -35.49477962156805 11.004676675165543 0 0.51503808176128008 -0.85716729658548041 1.5 0 0 1 I I 0 1 1.5 forward I I I I #
face $-1 $156 $157 $52 $-1 $158 reversed single #
loop $-1 $-1 $159 $66 #
plane-surface $-1 -41.634406817309639 88.461487630769767 162.962203330569 1 0 0 0 -0.71933980857756763 -0.69465836192734942 forward_v I I I I #
face $-1 $160 $161 $53 $-1 $162 forward single #
loop $-1 $163 $164 $67 #
cone-surface $-1 -34.737566987619509 31.914867767001905 6.5717471848021303 0 -0.71933980857756763 -0.69465836192734942 2.5 0 0 1 I I 0 1 2.5 forward I I I I #
face $-1 $165 $166 $54 $-1 $167 forward single #
loop $-1 $168 $169 $68 #
cone-surface $-1 -24.392307243084304 31.914867767001905 6.5717471848021303 0 -0.71933980857756763 -0.69465836192734942 2.5 0 0 1 I I 0 1 2.5 forward I I I I #
face $-1 $170 $171 $55 $-1 $172 forward single #
loop $-1 $173 $174 $69 #
cone-surface $-1 -14.047047498549105 31.914867767001905 6.5717471848021303 0 -0.71933980857756763 -0.69465836192734942 2.5 0 0 1 I I 0 1 2.5 forward I I I I #
face $-1 $175 $176 $42 $-1 $177 reversed single #
loop $-1 $-1 $178 $70 #
plane-surface $-1 0 0 -14.140991630561192 0 0 1 1 0 0 forward_v I I I I #
coedge $-1 $179 $180 $181 $182 forward $71 $-1 #
face $-1 $183 $184 $43 $-1 $185 forward single #
loop $-1 $-1 $186 $73 #
plane-surface $-1 -56.277298008024239 -36.57944710377609 0 -1 0 0 0 0 1 forward_v I I I I #
coedge $-1 $187 $188 $189 $190 forward $74 $-1 #
face $-1 $191 $192 $44 $-1 $193 forward single #
loop $-1 $-1 $194 $76 #
plane-surface $-1 -41.968399615757377 -113.8042076227762 133.93614965295379 -1 0 0 0 -0.51503808176128008 0.85716729658548041 forward_v I I I I #
coedge $-1 $195 $196 $197 $198 reversed $77 $-1 #
face $-1 $-1 $199 $45 $-1 $200 forward single #
loop $-1 $201 $202 $79 #
cone-surface $-1 -49.122848811890805 -34.403044910261769 9.1877250278644915 0 0.51503808176128008 -0.85716729658548041 0.75 0 0 1 I I -0.70710678118654757 0.70710678118654757 0.75 forward I I I I #
loop $-1 $-1 $203 $59 #
coedge $-1 $128 $128 $204 $205 reversed $80 $-1 #
face $-1 $206 $207 $46 $-1 $208 reversed single #
loop $-1 $-1 $209 $82 #
plane-surface $-1 -17.011591877864724 -39.465949454342464 10.216514069493769 0 -0.51503808176128008 0.85716729658548041 1 0 0 forward_v I I I I #
coedge $-1 $210 $211 $212 $213 reversed $83 $-1 #
face $-1 $-1 $214 $47 $-1 $215 forward single #
loop $-1 $216 $217 $85 #
cone-surface $-1 -17.011591877864724 -34.403044910261769 9.1877250278644915 0 0.51503808176128008 -0.85716729658548041 0.75 0 0 1 I I -0.70710678118654757 0.70710678118654757 0.75 forward I I I I #
loop $-1 $-1 $218 $61 #
coedge $-1 $137 $137 $219 $220 reversed $86 $-1 #
face $-1 $221 $222 $48 $-1 $223 reversed single #
loop $-1 $-1 $224 $88 #
plane-surface $-1 15.099665056161356 -39.465949454342464 10.216514069493769 0 -0.51503808176128008 0.85716729658548041 1 0 0 forward_v I I I I #
coedge $-1 $225 $226 $227 $228 reversed $89 $-1 #
face $-1 $-1 $229 $49 $-1 $230 forward single #
loop $-1 $231 $232 $91 #
cone-surface $-1 15.099665056161356 -34.403044910261769 9.1877250278644915 0 0.51503808176128008 -0.85716729658548041 0.75 0 0 1 I I -0.70710678118654757 0.70710678118654757 0.75 forward I I I I #
loop $-1 $-1 $233 $63 #
coedge $-1 $146 $146 $234 $235 reversed $92 $-1 #
face $-1 $236 $237 $50 $-1 $238 reversed single #
loop $-1 $-1 $239 $94 #
plane-surface $-1 47.210921990187444 -39.465949454342464 10.216514069493769 0 -0.51503808176128008 0.85716729658548041 1 0 0 forward_v I I I I #
coedge $-1 $240 $241 $242 $243 reversed $95 $-1 #
face $-1 $-1 $244 $51 $-1 $245 forward single #
loop $-1 $246 $247 $97 #
cone-surface $-1 47.210921990187444 -34.403044910261769 9.1877250278644915 0 0.51503808176128008 -0.85716729658548041 0.75 0 0 1 I I -0.70710678118654757 0.70710678118654757 0.75 forward I I I I #
loop $-1 $-1 $248 $65 #
coedge $-1 $155 $155 $249 $250 reversed $98 $-1 #
face $-1 $251 $252 $52 $-1 $253 reversed single #
loop $-1 $-1 $254 $100 #
plane-surface $-1 -24.392307243084304 -15.364754145379749 62.698369496721426 0 0.71933980857756763 0.69465836192734942 1 0 0 forward_v I I I I #
coedge $-1 $255 $256 $257 $258 reversed $101 $-1 #
face $-1 $-1 $259 $53 $-1 $260 forward single #
loop $-1 $261 $262 $103 #
cone-surface $-1 -34.737566987619509 27.434306305580371 2.2449193793724369 0 -0.71933980857756763 -0.69465836192734942 1.25 0 0 1 I I -0.70710678118654746 0.70710678118654746 1.25 forward I I I I #
loop $-1 $-1 $263 $67 #
coedge $-1 $164 $164 $264 $265 reversed $104 $-1 #
face $-1 $-1 $266 $54 $-1 $267 forward single #
loop $-1 $268 $269 $106 #
cone-surface $-1 -24.392307243084304 27.434306305580371 2.2449193793724369 0 -0.71933980857756763 -0.69465836192734942 1.25 0 0 1 I I -0.70710678118654746 0.70710678118654746 1.25 forward I I I I #
loop $-1 $-1 $270 $68 #
coedge $-1 $169 $169 $271 $272 reversed $107 $-1 #
face $-1 $-1 $273 $55 $-1 $274 forward single #
loop $-1 $275 $276 $109 #
cone-surface $-1 -14.047047498549105 27.434306305580371 2.2449193793724369 0 -0.71933980857756763 -0.69465836192734942 1.25 0 0 1 I I -0.70710678118654746 0.70710678118654746 1.25 forward I I I I #
loop $-1 $-1 $277 $69 #
coedge $-1 $174 $174 $278 $279 reversed $110 $-1 #
face $-1 $280 $281 $42 $-1 $282 reversed single #
loop $-1 $-1 $283 $112 #
plane-surface $-1 0 -39.465949454342471 0 0 1 0 0 0 1 forward_v I I I I #
coedge $-1 $284 $285 $286 $287 forward $113 $-1 #
coedge $-1 $288 $115 $289 $290 forward $71 $-1 #
coedge $-1 $115 $288 $291 $292 forward $71 $-1 #
coedge $-1 $293 $294 $115 $182 reversed $295 $-1 #
edge $-1 $296 -39.465949454342471 $297 39.465949454342471 $181 $298 forward 7 unknown #
face $-1 $299 $300 $43 $-1 $301 reversed single #
loop $-1 $-1 $302 $116 #
plane-surface $-1 0 0 14.140991630561192 0 0 1 1 0 0 forward_v I I I I #
coedge $-1 $303 $304 $305 $306 reversed $117 $-1 #
coedge $-1 $307 $119 $308 $309 reversed $74 $-1 #
coedge $-1 $119 $307 $310 $311 reversed $74 $-1 #
coedge $-1 $304 $303 $119 $190 reversed $117 $-1 #
edge $-1 $312 -14.140991630561192 $313 14.140991630561192 $189 $314 forward 7 unknown #
face $-1 $315 $316 $44 $-1 $317 forward single #
loop $-1 $-1 $318 $120 #
plane-surface $-1 0 0 14.140991630561192 0 0 1 1 0 0 forward_v I I I I #
coedge $-1 $319 $320 $321 $322 reversed $121 $-1 #
coedge $-1 $323 $123 $324 $325 reversed $77 $-1 #
coedge $-1 $123 $323 $319 $326 forward $77 $-1 #
coedge $-1 $321 $327 $123 $198 forward $328 $-1 #
edge $-1 $329 -31.715873602078837 $330 -17.406975209811975 $197 $331 forward 7 unknown #
loop $-1 $-1 $204 $124 #
plane-surface $-1 -49.122848811890805 -39.465949454342464 10.216514069493769 0 -0.51503808176128008 0.85716729658548041 1 0 0 forward_v I I I I #
loop $-1 $-1 $332 $79 #
coedge $-1 $202 $202 $203 $333 reversed $125 $-1 #
coedge $-1 $203 $203 $202 $333 forward $127 $-1 #
coedge $-1 $204 $204 $128 $205 forward $199 $-1 #
edge $-1 $334 2.0913331627885476e-016 $334 6.2831853071796004 $204 $335 forward 7 unknown #
face $-1 $336 $337 $46 $-1 $338 forward single #
loop $-1 $-1 $339 $129 #
plane-surface $-1 -24.166041073998151 -113.8042076227762 133.93614965295379 1 0 0 0 0.51503808176128008 -0.85716729658548041 forward_v I I I I #
coedge $-1 $340 $341 $342 $343 reversed $130 $-1 #
coedge $-1 $211 $132 $344 $345 reversed $83 $-1 #
coedge $-1 $132 $210 $340 $346 reversed $83 $-1 #
coedge $-1 $342 $347 $132 $213 forward $337 $-1 #
edge $-1 $348 17.436154357045631 $349 23.967581722623869 $212 $350 forward 7 unknown #
loop $-1 $-1 $219 $133 #
plane-surface $-1 -17.011591877864724 -39.465949454342464 10.216514069493769 0 -0.51503808176128008 0.85716729658548041 1 0 0 forward_v I I I I #
loop $-1 $-1 $351 $85 #
coedge $-1 $217 $217 $218 $352 reversed $134 $-1 #
coedge $-1 $218 $218 $217 $352 forward $136 $-1 #
coedge $-1 $219 $219 $137 $220 forward $214 $-1 #
edge $-1 $353 2.0913331627885476e-016 $353 6.2831853071796004 $219 $354 forward 7 unknown #
face $-1 $355 $356 $48 $-1 $357 reversed single #
loop $-1 $-1 $358 $138 #
plane-surface $-1 7.9452158600279272 -113.8042076227762 133.93614965295379 1 0 0 0 0.51503808176128008 -0.85716729658548041 forward_v I I I I #
coedge $-1 $359 $360 $361 $362 reversed $139 $-1 #
coedge $-1 $226 $141 $363 $364 reversed $89 $-1 #
coedge $-1 $141 $225 $359 $365 reversed $89 $-1 #
coedge $-1 $361 $366 $141 $228 forward $367 $-1 #
edge $-1 $368 17.436154357045631 $369 23.967581722623869 $227 $370 forward 7 unknown #
loop $-1 $-1 $234 $142 #
plane-surface $-1 15.099665056161356 -39.465949454342464 10.216514069493769 0 -0.51503808176128008 0.85716729658548041 1 0 0 forward_v I I I I #
loop $-1 $-1 $371 $91 #
coedge $-1 $232 $232 $233 $372 reversed $143 $-1 #
coedge $-1 $233 $233 $232 $372 forward $145 $-1 #
coedge $-1 $234 $234 $146 $235 forward $229 $-1 #
edge $-1 $373 2.0913331627885476e-016 $373 6.2831853071796004 $234 $374 forward 7 unknown #
face $-1 $375 $376 $50 $-1 $377 reversed single #
loop $-1 $-1 $378 $147 #
plane-surface $-1 40.056472794054017 -113.8042076227762 133.93614965295379 1 0 0 0 0.51503808176128008 -0.85716729658548041 forward_v I I I I #
coedge $-1 $379 $380 $381 $382 reversed $148 $-1 #
coedge $-1 $241 $150 $383 $384 reversed $95 $-1 #
coedge $-1 $150 $240 $379 $385 reversed $95 $-1 #
coedge $-1 $381 $386 $150 $243 forward $387 $-1 #
edge $-1 $388 17.436154357045631 $389 23.967581722623869 $242 $390 forward 7 unknown #
loop $-1 $-1 $249 $151 #
plane-surface $-1 47.210921990187444 -39.465949454342464 10.216514069493769 0 -0.51503808176128008 0.85716729658548041 1 0 0 forward_v I I I I #
loop $-1 $-1 $391 $97 #
coedge $-1 $247 $247 $248 $392 reversed $152 $-1 #
coedge $-1 $248 $248 $247 $392 forward $154 $-1 #
coedge $-1 $249 $249 $155 $250 forward $244 $-1 #
edge $-1 $393 2.0913331627885476e-016 $393 6.2831853071796004 $249 $394 forward 7 unknown #
face $-1 $395 $396 $52 $-1 $397 reversed single #
loop $-1 $-1 $398 $156 #
plane-surface $-1 -7.1502076688589682 88.461487630769767 162.962203330569 -1 0 0 0 0.71933980857756763 0.69465836192734942 forward_v I I I I #
coedge $-1 $399 $400 $401 $402 reversed $157 $-1 #
coedge $-1 $256 $159 $403 $404 reversed $101 $-1 #
coedge $-1 $159 $255 $399 $405 reversed $101 $-1 #
coedge $-1 $401 $406 $159 $258 forward $407 $-1 #
edge $-1 $408 4.7647943610424122 $409 12.704184334324403 $257 $410 forward 7 unknown #
loop $-1 $-1 $264 $160 #
plane-surface $-1 -24.392307243084304 -15.364754145379749 62.698369496721426 0 0.71933980857756763 0.69465836192734942 1 0 0 forward_v I I I I #
loop $-1 $-1 $411 $103 #
coedge $-1 $262 $262 $263 $412 reversed $161 $-1 #
coedge $-1 $263 $263 $262 $412 forward $163 $-1 #
coedge $-1 $264 $264 $164 $265 forward $259 $-1 #
edge $-1 $413 5.1112167552785169e-016 $413 6.2831853071796013 $264 $414 forward 7 unknown #
loop $-1 $-1 $271 $165 #
plane-surface $-1 -24.392307243084304 -15.364754145379749 62.698369496721426 0 0.71933980857756763 0.69465836192734942 1 0 0 forward_v I I I I #
loop $-1 $-1 $415 $106 #
coedge $-1 $269 $269 $270 $416 reversed $166 $-1 #
coedge $-1 $270 $270 $269 $416 forward $168 $-1 #
coedge $-1 $271 $271 $169 $272 forward $266 $-1 #
edge $-1 $417 5.1112167552785169e-016 $417 6.2831853071796013 $271 $418 forward 7 unknown #
loop $-1 $-1 $278 $170 #
plane-surface $-1 -24.392307243084304 -15.364754145379749 62.698369496721426 0 0.71933980857756763 0.69465836192734942 1 0 0 forward_v I I I I #
loop $-1 $-1 $419 $109 #
coedge $-1 $276 $276 $277 $420 reversed $171 $-1 #
coedge $-1 $277 $277 $276 $420 forward $173 $-1 #
coedge $-1 $278 $278 $174 $279 forward $273 $-1 #
edge $-1 $421 5.1112167552785169e-016 $421 6.2831853071796013 $278 $422 forward 7 unknown #
face $-1 $423 $424 $42 $-1 $425 reversed single #
loop $-1 $-1 $426 $175 #
plane-surface $-1 -72.167729728080076 0 0 1 0 0 0 0 -1 forward_v I I I I #
coedge $-1 $427 $291 $428 $429 forward $176 $-1 #
coedge $-1 $430 $178 $427 $431 forward $113 $-1 #
coedge $-1 $178 $430 $432 $433 forward $113 $-1 #
coedge $-1 $294 $293 $178 $287 reversed $295 $-1 #
edge $-1 $434 -39.465949454342471 $435 39.465949454342471 $286 $436 forward 7 unknown #
coedge $-1 $180 $179 $437 $438 forward $71 $-1 #
coedge $-1 $439 $440 $179 $290 reversed $424 $-1 #
edge $-1 $297 -72.167729728080076 $441 72.167729728080076 $289 $442 forward 7 unknown #
coedge $-1 $283 $443 $180 $292 reversed $176 $-1 #
edge $-1 $444 -72.167729728080076 $296 72.167729728080076 $291 $445 forward 7 unknown #
coedge $-1 $286 $181 $443 $446 forward $295 $-1 #
coedge $-1 $181 $286 $439 $447 reversed $295 $-1 #
loop $-1 $-1 $293 $423 #
vertex $-1 $182 $448 #
vertex $-1 $182 $449 #
straight-curve $-1 72.167729728080076 0 14.140991630561192 0 1 0 I I #
face $-1 $450 $451 $43 $-1 $452 reversed single #
loop $-1 $-1 $453 $183 #
plane-surface $-1 -72.167729728080076 0 0 1 0 0 0 0 -1 forward_v I I I I #
coedge $-1 $310 $454 $304 $455 forward $184 $-1 #
coedge $-1 $189 $186 $456 $457 reversed $117 $-1 #
coedge $-1 $186 $189 $302 $455 reversed $117 $-1 #
coedge $-1 $458 $459 $186 $306 forward $460 $-1 #
edge $-1 $461 -14.140991630561192 $462 14.140991630561192 $305 $463 forward 7 unknown #
coedge $-1 $188 $187 $453 $464 reversed $74 $-1 #
coedge $-1 $456 $465 $187 $309 forward $451 $-1 #
edge $-1 $466 -40.056472794053995 $313 -24.166041073998159 $308 $467 forward 7 unknown #
coedge $-1 $468 $302 $188 $311 forward $184 $-1 #
edge $-1 $312 24.166041073998159 $469 40.056472794053995 $310 $470 forward 7 unknown #
vertex $-1 $311 $471 #
vertex $-1 $309 $472 #
straight-curve $-1 -56.277298008024239 -33.692944753209709 0 0 0 -1 I I #
face $-1 $-1 $328 $44 $-1 $473 reversed single #
loop $-1 $-1 $324 $191 #
plane-surface $-1 -56.277298008024239 -36.57944710377609 0 -1 0 0 0 0 1 forward_v I I I I #
coedge $-1 $474 $475 $320 $476 forward $192 $-1 #
coedge $-1 $320 $194 $196 $326 reversed $121 $-1 #
coedge $-1 $194 $319 $318 $476 reversed $121 $-1 #
coedge $-1 $477 $197 $194 $322 forward $328 $-1 #
edge $-1 $330 -56.751560756983125 $478 -52.827083195915705 $321 $479 forward 7 unknown #
coedge $-1 $196 $195 $474 $480 reversed $77 $-1 #
coedge $-1 $481 $482 $195 $325 forward $316 $-1 #
edge $-1 $483 -9.0136205288727673 $329 -1.3938391961082883 $324 $484 forward 7 unknown #
edge $-1 $485 -7.6197813327644717 $330 7.9203227973758348e-015 $319 $486 forward 7 unknown #
coedge $-1 $197 $477 $481 $487 forward $328 $-1 #
loop $-1 $-1 $321 $315 #
vertex $-1 $325 $488 #
vertex $-1 $198 $489 #
straight-curve $-1 -24.561424405945402 -39.465949454342471 10.216514069493764 1 0 0 I I #
coedge $-1 $332 $332 $-1 $490 reversed $201 $-1 #
edge $-1 $491 0 $491 6.2831853071796004 $202 $492 forward 7 unknown #
vertex $-1 $205 $493 #
ellipse-curve $-1 -49.122848811890805 -36.200235771553359 12.178752850027474 0 -0.51503808176128008 0.85716729658548041 1.5 0 0 1 I I #
face $-1 $-1 $494 $46 $-1 $495 reversed single #
loop $-1 $-1 $212 $206 #
plane-surface $-1 0 0 14.140991630561192 0 0 1 1 0 0 forward_v I I I I #
coedge $-1 $496 $497 $498 $499 reversed $207 $-1 #
coedge $-1 $500 $209 $211 $346 forward $130 $-1 #
coedge $-1 $209 $500 $496 $501 forward $130 $-1 #
coedge $-1 $498 $212 $209 $343 forward $337 $-1 #
edge $-1 $349 1.351346742798933 $502 15.660245135065789 $342 $503 forward 7 unknown #
coedge $-1 $504 $505 $210 $345 forward $494 $-1 #
edge $-1 $506 -56.751560756983125 $348 -52.827083195915705 $344 $507 forward 7 unknown #
edge $-1 $349 -7.6197813327644717 $506 7.9203227973758348e-015 $211 $508 forward 7 unknown #
coedge $-1 $212 $498 $504 $509 forward $337 $-1 #
vertex $-1 $345 $510 #
vertex $-1 $213 $511 #
straight-curve $-1 -9.857142681731295 -56.902103811388102 14.140991630561189 0 1 0 I I #
coedge $-1 $351 $351 $-1 $512 reversed $216 $-1 #
edge $-1 $513 0 $513 6.2831853071796004 $217 $514 forward 7 unknown #
vertex $-1 $220 $515 #
ellipse-curve $-1 -17.011591877864724 -36.200235771553359 12.178752850027474 0 -0.51503808176128008 0.85716729658548041 1.5 0 0 1 I I #
face $-1 $-1 $367 $48 $-1 $516 forward single #
loop $-1 $-1 $517 $221 #
plane-surface $-1 0 -39.465949454342471 0 0 1 0 0 0 1 forward_v I I I I #
coedge $-1 $518 $519 $520 $521 reversed $222 $-1 #
coedge $-1 $522 $224 $226 $365 forward $139 $-1 #
coedge $-1 $224 $522 $518 $523 forward $139 $-1 #
coedge $-1 $520 $227 $224 $362 forward $367 $-1 #
edge $-1 $369 -14.704281724214106 $524 -0.39538333194724906 $361 $525 forward 7 unknown #
coedge $-1 $526 $527 $225 $364 forward $356 $-1 #
edge $-1 $528 -56.751560756983125 $368 -52.827083195915705 $363 $529 forward 7 unknown #
edge $-1 $369 -7.6197813327644717 $528 7.9203227973758348e-015 $226 $530 forward 7 unknown #
coedge $-1 $227 $520 $526 $531 forward $367 $-1 #
loop $-1 $-1 $520 $355 #
vertex $-1 $364 $532 #
vertex $-1 $228 $533 #
straight-curve $-1 22.254114252294784 -56.902103811388102 14.140991630561189 0 1 0 I I #
coedge $-1 $371 $371 $-1 $534 reversed $231 $-1 #
edge $-1 $535 0 $535 6.2831853071796004 $232 $536 forward 7 unknown #
vertex $-1 $235 $537 #
ellipse-curve $-1 15.099665056161356 -36.200235771553359 12.178752850027474 0 -0.51503808176128008 0.85716729658548041 1.5 0 0 1 I I #
face $-1 $-1 $387 $50 $-1 $538 forward single #
loop $-1 $-1 $539 $236 #
plane-surface $-1 0 -39.465949454342471 0 0 1 0 0 0 1 forward_v I I I I #
coedge $-1 $540 $541 $542 $543 reversed $237 $-1 #
coedge $-1 $544 $239 $241 $385 forward $148 $-1 #
coedge $-1 $239 $544 $540 $545 forward $148 $-1 #
coedge $-1 $542 $242 $239 $382 forward $387 $-1 #
edge $-1 $389 -30.759910191227149 $546 -16.451011798960295 $381 $547 forward 7 unknown #
coedge $-1 $548 $549 $240 $384 forward $376 $-1 #
edge $-1 $550 -56.751560756983125 $388 -52.827083195915705 $383 $551 forward 7 unknown #
edge $-1 $389 -7.6197813327644717 $550 7.9203227973758348e-015 $241 $552 forward 7 unknown #
coedge $-1 $242 $542 $548 $553 forward $387 $-1 #
loop $-1 $-1 $542 $375 #
vertex $-1 $384 $554 #
vertex $-1 $243 $555 #
straight-curve $-1 54.365371186320871 -56.902103811388102 14.140991630561189 0 1 0 I I #
coedge $-1 $391 $391 $-1 $556 reversed $246 $-1 #
edge $-1 $557 0 $557 6.2831853071796004 $247 $558 forward 7 unknown #
vertex $-1 $250 $559 #
ellipse-curve $-1 47.210921990187444 -36.200235771553359 12.178752850027474 0 -0.51503808176128008 0.85716729658548041 1.5 0 0 1 I I #
face $-1 $-1 $407 $52 $-1 $560 forward single #
loop $-1 $-1 $561 $251 #
plane-surface $-1 0 39.465949454342471 0 0 -1 0 0 0 -1 forward_v I I I I #
coedge $-1 $562 $563 $564 $565 reversed $252 $-1 #
coedge $-1 $566 $254 $256 $405 forward $157 $-1 #
coedge $-1 $254 $566 $562 $567 forward $157 $-1 #
coedge $-1 $564 $257 $254 $402 forward $407 $-1 #
edge $-1 $409 -29.438253195767487 $568 5.0459459526831836 $401 $569 forward 7 unknown #
coedge $-1 $570 $571 $255 $404 forward $396 $-1 #
edge $-1 $572 -75.561589220200418 $408 -67.34011003472331 $403 $573 forward 7 unknown #
edge $-1 $409 67.502698011636895 $572 78.931898908684943 $256 $574 forward 7 unknown #
coedge $-1 $257 $564 $570 $575 forward $407 $-1 #
loop $-1 $-1 $564 $395 #
vertex $-1 $404 $576 #
vertex $-1 $258 $577 #
straight-curve $-1 -41.634406817309639 44.230743815384884 14.140991630561189 0 -1 0 I I #
coedge $-1 $411 $411 $-1 $578 reversed $261 $-1 #
edge $-1 $579 0 $579 6.2831853071796004 $262 $580 forward 7 unknown #
vertex $-1 $265 $581 #
ellipse-curve $-1 -34.737566987619509 35.496254467701476 10.030252037822638 0 0.71933980857756763 0.69465836192734942 2.5 0 0 1 I I #
coedge $-1 $415 $415 $-1 $582 reversed $268 $-1 #
edge $-1 $583 0 $583 6.2831853071796004 $269 $584 forward 7 unknown #
vertex $-1 $272 $585 #
ellipse-curve $-1 -24.392307243084304 35.496254467701476 10.030252037822638 0 0.71933980857756763 0.69465836192734942 2.5 0 0 1 I I #
coedge $-1 $419 $419 $-1 $586 reversed $275 $-1 #
edge $-1 $587 0 $587 6.2831853071796004 $276 $588 forward 7 unknown #
vertex $-1 $279 $589 #
ellipse-curve $-1 -14.047047498549105 35.496254467701476 10.030252037822638 0 0.71933980857756763 0.69465836192734942 2.5 0 0 1 I I #
face $-1 $-1 $295 $42 $-1 $590 reversed single #
loop $-1 $-1 $439 $280 #
plane-surface $-1 0 39.465949454342471 0 0 -1 0 0 0 -1 forward_v I I I I #
coedge $-1 $591 $437 $440 $592 forward $281 $-1 #
coedge $-1 $443 $283 $284 $431 reversed $176 $-1 #
coedge $-1 $437 $591 $283 $429 reversed $281 $-1 #
edge $-1 $444 -14.140991630561192 $593 14.140991630561192 $428 $594 forward 7 unknown #
coedge $-1 $285 $284 $591 $595 forward $113 $-1 #
edge $-1 $435 -72.167729728080076 $593 72.167729728080076 $427 $596 forward 7 unknown #
coedge $-1 $440 $439 $285 $433 reversed $424 $-1 #
edge $-1 $597 -72.167729728080076 $434 72.167729728080076 $432 $598 forward 7 unknown #
vertex $-1 $287 $599 #
vertex $-1 $446 $600 #
straight-curve $-1 72.167729728080076 0 -14.140991630561192 0 -1 0 I I #
coedge $-1 $426 $428 $288 $438 reversed $281 $-1 #
edge $-1 $441 -39.465949454342471 $444 39.465949454342471 $437 $601 forward 7 unknown #
coedge $-1 $432 $289 $294 $447 forward $424 $-1 #
coedge $-1 $289 $432 $426 $592 reversed $424 $-1 #
vertex $-1 $290 $602 #
straight-curve $-1 0 39.465949454342471 14.140991630561192 -1 0 0 I I #
coedge $-1 $291 $427 $293 $446 reversed $176 $-1 #
vertex $-1 $438 $603 #
straight-curve $-1 0 -39.465949454342471 14.140991630561192 1 0 0 I I #
edge $-1 $296 -14.140991630561192 $435 14.140991630561192 $293 $604 forward 7 unknown #
edge $-1 $297 -14.140991630561192 $434 14.140991630561192 $294 $605 forward 7 unknown #
point $-1 72.167729728080076 -39.465949454342471 14.140991630561192 #
point $-1 72.167729728080076 39.465949454342471 14.140991630561192 #
face $-1 $-1 $460 $43 $-1 $606 reversed single #
loop $-1 $-1 $456 $299 #
plane-surface $-1 0 0 -14.140991630561192 0 0 1 1 0 0 forward_v I I I I #
coedge $-1 $607 $608 $307 $464 forward $300 $-1 #
coedge $-1 $302 $468 $458 $609 forward $184 $-1 #
edge $-1 $462 -21.176225902454426 $312 -15.403221201321664 $302 $610 forward 7 unknown #
coedge $-1 $611 $308 $303 $457 forward $451 $-1 #
edge $-1 $313 15.403221201321664 $461 21.176225902454426 $456 $612 forward 7 unknown #
coedge $-1 $613 $305 $454 $609 reversed $460 $-1 #
coedge $-1 $305 $613 $611 $614 reversed $460 $-1 #
loop $-1 $-1 $305 $450 #
vertex $-1 $614 $615 #
vertex $-1 $306 $616 #
straight-curve $-1 -56.277298008024239 -39.465949454342471 0 0 0 1 I I #
edge $-1 $469 -14.140991630561192 $466 14.140991630561192 $453 $617 forward 7 unknown #
coedge $-1 $308 $611 $607 $618 forward $451 $-1 #
vertex $-1 $309 $619 #
straight-curve $-1 -32.111256934026081 -33.692944753209709 -14.140991630561192 1 0 0 I I #
coedge $-1 $454 $310 $608 $620 forward $184 $-1 #
vertex $-1 $620 $621 #
straight-curve $-1 -32.111256934026081 -33.692944753209709 14.140991630561192 -1 0 0 I I #
point $-1 -56.277298008024239 -33.692944753209709 14.140991630561192 #
point $-1 -56.277298008024239 -33.692944753209709 -14.140991630561192 #
plane-surface $-1 0 -39.465949454342471 0 0 1 0 0 0 1 forward_v I I I I #
coedge $-1 $622 $318 $323 $480 forward $192 $-1 #
coedge $-1 $318 $622 $477 $623 forward $192 $-1 #
edge $-1 $478 17.436154357045631 $485 23.967581722623869 $318 $624 forward 7 unknown #
coedge $-1 $327 $321 $475 $623 reversed $328 $-1 #
vertex $-1 $476 $625 #
straight-curve $-1 -41.968399615757377 -39.465949454342471 66.968074826476894 0 0 1 I I #
edge $-1 $485 17.406975209811975 $483 31.71587360207883 $474 $626 forward 7 unknown #
coedge $-1 $482 $324 $327 $487 reversed $316 $-1 #
coedge $-1 $324 $481 $622 $627 reversed $316 $-1 #
vertex $-1 $627 $628 #
straight-curve $-1 -56.277298008024239 -40.660702829945492 9.4986338036464684 0 -0.85716729658548041 -0.51503808176128008 I I #
vertex $-1 $480 $629 #
straight-curve $-1 -41.968399615757377 -39.465949454342464 10.216514069493769 0 -0.85716729658548041 -0.51503808176128008 I I #
edge $-1 $630 -14.140991630561192 $329 -10.216514069493766 $327 $631 forward 7 unknown #
point $-1 -56.277298008024239 -39.465949454342471 10.216514069493766 #
point $-1 -41.968399615757377 -39.465949454342471 10.216514069493766 #
edge $-1 $632 1 $632 0 $332 $-1 forward 7 unknown #
vertex $-1 $333 $633 #
ellipse-curve $-1 -49.122848811890805 -34.789323471582726 9.8306005003036017 0 -0.51503808176128008 0.85716729658548041 1.5 0 0 1 I I #
point $-1 -47.622848811890805 -36.200235771553366 12.178752850027486 #
loop $-1 $-1 $344 $336 #
plane-surface $-1 0 -39.465949454342471 0 0 1 0 0 0 1 forward_v I I I I #
coedge $-1 $497 $339 $341 $501 reversed $207 $-1 #
coedge $-1 $339 $496 $634 $635 reversed $207 $-1 #
coedge $-1 $347 $342 $339 $499 forward $337 $-1 #
edge $-1 $502 -23.967581722623869 $636 -17.436154357045631 $498 $637 forward 7 unknown #
coedge $-1 $341 $340 $505 $638 reversed $130 $-1 #
edge $-1 $639 -7.9203227973758348e-015 $502 7.6197813327644717 $496 $640 forward 7 unknown #
vertex $-1 $343 $641 #
straight-curve $-1 -8.5057959389323621 -32.93452208876424 14.140991630561192 -1 0 0 I I #
coedge $-1 $634 $344 $347 $509 reversed $494 $-1 #
coedge $-1 $344 $634 $500 $638 forward $494 $-1 #
vertex $-1 $345 $642 #
straight-curve $-1 -9.857142681731295 -39.465949454342471 66.968074826476894 0 0 1 I I #
straight-curve $-1 -9.857142681731295 -39.465949454342464 10.216514069493769 0 -0.85716729658548041 -0.51503808176128008 I I #
edge $-1 $636 -24.166041073998151 $348 -9.857142681731295 $504 $643 forward 7 unknown #
point $-1 -9.857142681731295 -39.465949454342471 14.140991630561192 #
point $-1 -9.857142681731295 -32.934522088764233 14.140991630561192 #
edge $-1 $644 1 $644 0 $351 $-1 forward 7 unknown #
vertex $-1 $352 $645 #
ellipse-curve $-1 -17.011591877864724 -34.789323471582726 9.8306005003036017 0 -0.51503808176128008 0.85716729658548041 1.5 0 0 1 I I #
point $-1 -15.511591877864724 -36.200235771553366 12.178752850027486 #
plane-surface $-1 0 0 14.140991630561192 0 0 1 1 0 0 forward_v I I I I #
coedge $-1 $527 $526 $519 $646 forward $356 $-1 #
coedge $-1 $519 $358 $360 $523 reversed $222 $-1 #
coedge $-1 $358 $518 $517 $646 reversed $222 $-1 #
coedge $-1 $366 $361 $358 $521 forward $367 $-1 #
edge $-1 $524 -23.967581722623869 $647 -17.436154357045631 $520 $648 forward 7 unknown #
coedge $-1 $360 $359 $527 $649 reversed $139 $-1 #
edge $-1 $650 -7.9203227973758348e-015 $524 7.6197813327644717 $518 $651 forward 7 unknown #
vertex $-1 $362 $652 #
straight-curve $-1 7.5498325280806782 -32.93452208876424 14.140991630561192 -1 0 0 I I #
coedge $-1 $517 $363 $366 $531 reversed $356 $-1 #
coedge $-1 $363 $517 $522 $649 forward $356 $-1 #
vertex $-1 $364 $653 #
straight-curve $-1 22.254114252294784 -39.465949454342471 66.968074826476894 0 0 1 I I #
straight-curve $-1 22.254114252294784 -39.465949454342464 10.216514069493769 0 -0.85716729658548041 -0.51503808176128008 I I #
edge $-1 $647 7.9452158600279272 $368 22.254114252294784 $526 $654 forward 7 unknown #
point $-1 22.254114252294784 -39.465949454342471 14.140991630561192 #
point $-1 22.254114252294784 -32.934522088764233 14.140991630561192 #
edge $-1 $655 1 $655 0 $371 $-1 forward 7 unknown #
vertex $-1 $372 $656 #
ellipse-curve $-1 15.099665056161356 -34.789323471582726 9.8306005003036017 0 -0.51503808176128008 0.85716729658548041 1.5 0 0 1 I I #
point $-1 16.599665056161356 -36.200235771553366 12.178752850027486 #
plane-surface $-1 0 0 14.140991630561192 0 0 1 1 0 0 forward_v I I I I #
coedge $-1 $549 $548 $541 $657 forward $376 $-1 #
coedge $-1 $541 $378 $380 $545 reversed $237 $-1 #
coedge $-1 $378 $540 $539 $657 reversed $237 $-1 #
coedge $-1 $386 $381 $378 $543 forward $387 $-1 #
edge $-1 $546 -23.967581722623869 $658 -17.436154357045631 $542 $659 forward 7 unknown #
coedge $-1 $380 $379 $549 $660 reversed $148 $-1 #
edge $-1 $661 -7.9203227973758348e-015 $546 7.6197813327644717 $540 $662 forward 7 unknown #
vertex $-1 $382 $663 #
straight-curve $-1 23.605460995093722 -32.93452208876424 14.140991630561192 -1 0 0 I I #
coedge $-1 $539 $383 $386 $553 reversed $376 $-1 #
coedge $-1 $383 $539 $544 $660 forward $376 $-1 #
vertex $-1 $384 $664 #
straight-curve $-1 54.365371186320871 -39.465949454342471 66.968074826476894 0 0 1 I I #
straight-curve $-1 54.365371186320871 -39.465949454342464 10.216514069493769 0 -0.85716729658548041 -0.51503808176128008 I I #
edge $-1 $658 40.056472794054017 $388 54.365371186320871 $548 $665 forward 7 unknown #
point $-1 54.365371186320871 -39.465949454342471 14.140991630561192 #
point $-1 54.365371186320871 -32.934522088764233 14.140991630561192 #
edge $-1 $666 1 $666 0 $391 $-1 forward 7 unknown #
vertex $-1 $392 $667 #
ellipse-curve $-1 47.210921990187444 -34.789323471582726 9.8306005003036017 0 -0.51503808176128008 0.85716729658548041 1.5 0 0 1 I I #
point $-1 48.710921990187444 -36.200235771553366 12.178752850027486 #
plane-surface $-1 0 0 14.140991630561192 0 0 1 1 0 0 forward_v I I I I #
coedge $-1 $571 $570 $563 $668 forward $396 $-1 #
coedge $-1 $563 $398 $400 $567 reversed $252 $-1 #
coedge $-1 $398 $562 $561 $668 reversed $252 $-1 #
coedge $-1 $406 $401 $398 $565 forward $407 $-1 #
edge $-1 $568 -12.704184334324403 $669 -4.7647943610424122 $564 $670 forward 7 unknown #
coedge $-1 $400 $399 $571 $671 reversed $157 $-1 #
edge $-1 $672 -78.931898908684943 $568 -67.502698011636895 $562 $673 forward 7 unknown #
vertex $-1 $402 $674 #
straight-curve $-1 -12.196153621542152 31.526559481060481 14.140991630561189 1 0 0 I I #
coedge $-1 $561 $403 $406 $575 reversed $396 $-1 #
coedge $-1 $403 $561 $566 $671 forward $396 $-1 #
vertex $-1 $404 $675 #
straight-curve $-1 -41.634406817309639 39.465949454342471 81.481101665284498 0 0 1 I I #
straight-curve $-1 -41.634406817309639 -15.364754145379749 62.698369496721426 0 0.69465836192734942 -0.71933980857756763 I I #
edge $-1 $669 7.1502076688589682 $408 41.634406817309639 $570 $676 forward 7 unknown #
point $-1 -41.634406817309639 39.465949454342471 14.140991630561192 #
point $-1 -41.634406817309639 31.526559481060481 14.140991630561189 #
edge $-1 $677 1 $677 0 $411 $-1 forward 7 unknown #
vertex $-1 $412 $678 #
ellipse-curve $-1 -34.737566987619509 28.33348106630233 3.1132423317816236 0 0.71933980857756763 0.69465836192734942 2.5 0 0 1 I I #
point $-1 -32.237566987619509 35.496254467701476 10.030252037822637 #
edge $-1 $679 1 $679 0 $415 $-1 forward 7 unknown #
vertex $-1 $416 $680 #
ellipse-curve $-1 -24.392307243084304 28.33348106630233 3.1132423317816236 0 0.71933980857756763 0.69465836192734942 2.5 0 0 1 I I #
point $-1 -21.892307243084304 35.496254467701476 10.030252037822637 #
edge $-1 $681 1 $681 0 $419 $-1 forward 7 unknown #
vertex $-1 $420 $682 #
ellipse-curve $-1 -14.047047498549105 28.33348106630233 3.1132423317816236 0 0.71933980857756763 0.69465836192734942 2.5 0 0 1 I I #
point $-1 -11.547047498549105 35.496254467701476 10.030252037822637 #
plane-surface $-1 72.167729728080076 0 0 -1 0 0 0 0 1 forward_v I I I I #
coedge $-1 $428 $426 $430 $595 reversed $281 $-1 #
edge $-1 $441 -14.140991630561192 $597 14.140991630561192 $440 $683 forward 7 unknown #
vertex $-1 $595 $684 #
straight-curve $-1 -72.167729728080076 -39.465949454342471 0 0 0 -1 I I #
edge $-1 $593 -39.465949454342471 $597 39.465949454342471 $591 $685 forward 7 unknown #
straight-curve $-1 0 -39.465949454342471 -14.140991630561192 -1 0 0 I I #
vertex $-1 $433 $686 #
straight-curve $-1 0 39.465949454342471 -14.140991630561192 1 0 0 I I #
point $-1 72.167729728080076 39.465949454342471 -14.140991630561192 #
point $-1 72.167729728080076 -39.465949454342471 -14.140991630561192 #
straight-curve $-1 -72.167729728080076 0 14.140991630561192 0 -1 0 I I #
point $-1 -72.167729728080076 39.465949454342471 14.140991630561192 #
point $-1 -72.167729728080076 -39.465949454342471 14.140991630561192 #
straight-curve $-1 72.167729728080076 -39.465949454342471 0 0 0 -1 I I #
straight-curve $-1 72.167729728080076 39.465949454342471 0 0 0 -1 I I #
plane-surface $-1 0 -39.465949454342471 0 0 1 0 0 0 1 forward_v I I I I #
coedge $-1 $687 $453 $465 $618 reversed $300 $-1 #
coedge $-1 $453 $687 $468 $620 reversed $300 $-1 #
edge $-1 $688 -72.167729728080076 $462 -56.277298008024239 $458 $689 forward 7 unknown #
straight-curve $-1 -56.277298008024239 -18.289723551888045 14.140991630561192 0 1 0 I I #
coedge $-1 $465 $456 $459 $614 forward $451 $-1 #
straight-curve $-1 -56.277298008024239 -18.289723551888045 -14.140991630561192 0 -1 0 I I #
coedge $-1 $459 $458 $687 $690 forward $460 $-1 #
edge $-1 $461 56.277298008024239 $691 72.167729728080076 $459 $692 forward 7 unknown #
point $-1 -56.277298008024239 -39.465949454342471 -14.140991630561192 #
point $-1 -56.277298008024239 -39.465949454342471 14.140991630561192 #
straight-curve $-1 -72.167729728080076 -33.692944753209709 0 0 0 -1 I I #
edge $-1 $691 -39.465949454342471 $466 -33.692944753209709 $607 $693 forward 7 unknown #
point $-1 -72.167729728080076 -33.692944753209709 -14.140991630561192 #
edge $-1 $469 33.692944753209709 $688 39.465949454342471 $608 $694 forward 7 unknown #
point $-1 -72.167729728080076 -33.692944753209709 14.140991630561192 #
coedge $-1 $475 $474 $482 $627 forward $192 $-1 #
edge $-1 $630 -56.277298008024239 $478 -41.968399615757377 $477 $695 forward 7 unknown #
straight-curve $-1 -41.968399615757377 -56.902103811388102 14.140991630561189 0 1 0 I I #
point $-1 -41.968399615757377 -39.465949454342471 14.140991630561192 #
straight-curve $-1 -24.561424405945402 -32.93452208876424 14.140991630561192 -1 0 0 I I #
edge $-1 $483 -23.967581722623869 $630 -17.436154357045631 $622 $696 forward 7 unknown #
point $-1 -56.277298008024232 -32.934522088764233 14.140991630561192 #
point $-1 -41.968399615757377 -32.934522088764233 14.140991630561192 #
vertex $-1 $623 $697 #
straight-curve $-1 -56.277298008024239 -39.465949454342471 0 0 0 -1 I I #
vertex $-1 $490 $698 #
point $-1 -47.622848811890805 -34.789323471582726 9.8306005003036017 #
coedge $-1 $505 $504 $497 $635 forward $494 $-1 #
edge $-1 $636 52.827083195915705 $639 56.751560756983125 $634 $699 forward 7 unknown #
vertex $-1 $509 $700 #
straight-curve $-1 -24.166041073998151 -56.902103811388102 14.140991630561189 0 -1 0 I I #
edge $-1 $639 -15.660245135065789 $506 -1.351346742798933 $505 $701 forward 7 unknown #
vertex $-1 $638 $702 #
straight-curve $-1 -24.166041073998151 -39.465949454342464 10.216514069493769 0 0.85716729658548041 0.51503808176128008 I I #
point $-1 -24.166041073998151 -32.934522088764233 14.140991630561192 #
point $-1 -9.857142681731295 -39.465949454342471 10.216514069493766 #
straight-curve $-1 0 -39.465949454342471 14.140991630561192 1 0 0 I I #
vertex $-1 $512 $703 #
point $-1 -15.511591877864724 -34.789323471582726 9.8306005003036017 #
edge $-1 $647 52.827083195915705 $650 56.751560756983125 $517 $704 forward 7 unknown #
vertex $-1 $531 $705 #
straight-curve $-1 7.9452158600279272 -56.902103811388102 14.140991630561189 0 -1 0 I I #
edge $-1 $650 0.39538333194724906 $528 14.704281724214106 $527 $706 forward 7 unknown #
vertex $-1 $649 $707 #
straight-curve $-1 7.9452158600279272 -39.465949454342464 10.216514069493769 0 0.85716729658548041 0.51503808176128008 I I #
point $-1 7.9452158600279272 -32.934522088764233 14.140991630561192 #
point $-1 22.254114252294784 -39.465949454342471 10.216514069493766 #
straight-curve $-1 0 -39.465949454342471 14.140991630561192 1 0 0 I I #
vertex $-1 $534 $708 #
point $-1 16.599665056161356 -34.789323471582726 9.8306005003036017 #
edge $-1 $658 52.827083195915705 $661 56.751560756983125 $539 $709 forward 7 unknown #
vertex $-1 $553 $710 #
straight-curve $-1 40.056472794054017 -56.902103811388102 14.140991630561189 0 -1 0 I I #
edge $-1 $661 16.451011798960295 $550 30.759910191227149 $549 $711 forward 7 unknown #
vertex $-1 $660 $712 #
straight-curve $-1 40.056472794054017 -39.465949454342464 10.216514069493769 0 0.85716729658548041 0.51503808176128008 I I #
point $-1 40.056472794054017 -32.934522088764233 14.140991630561192 #
point $-1 54.365371186320871 -39.465949454342471 10.216514069493766 #
straight-curve $-1 0 -39.465949454342471 14.140991630561192 1 0 0 I I #
vertex $-1 $556 $713 #
point $-1 48.710921990187444 -34.789323471582726 9.8306005003036017 #
edge $-1 $669 67.34011003472331 $672 75.561589220200418 $561 $714 forward 7 unknown #
vertex $-1 $575 $715 #
straight-curve $-1 -7.1502076688589682 44.230743815384884 14.140991630561189 0 1 0 I I #
edge $-1 $672 -5.0459459526831836 $572 29.438253195767487 $571 $716 forward 7 unknown #
vertex $-1 $671 $717 #
straight-curve $-1 -7.1502076688589682 -15.364754145379749 62.698369496721426 0 -0.69465836192734942 0.71933980857756763 I I #
point $-1 -7.1502076688589682 31.526559481060481 14.140991630561189 #
point $-1 -41.634406817309639 39.465949454342471 5.9195124450840808 #
straight-curve $-1 0 39.465949454342471 14.140991630561192 -1 0 0 I I #
vertex $-1 $578 $718 #
point $-1 -32.237566987619509 28.33348106630233 3.1132423317816236 #
vertex $-1 $582 $719 #
point $-1 -21.892307243084304 28.33348106630233 3.1132423317816236 #
vertex $-1 $586 $720 #
point $-1 -11.547047498549105 28.33348106630233 3.1132423317816236 #
straight-curve $-1 -72.167729728080076 39.465949454342471 0 0 0 -1 I I #
point $-1 -72.167729728080076 -39.465949454342471 -14.140991630561192 #
straight-curve $-1 -72.167729728080076 0 -14.140991630561192 0 1 0 I I #
point $-1 -72.167729728080076 39.465949454342471 -14.140991630561192 #
coedge $-1 $608 $607 $613 $690 reversed $300 $-1 #
vertex $-1 $620 $721 #
straight-curve $-1 0 -39.465949454342471 14.140991630561192 1 0 0 I I #
edge $-1 $688 -14.140991630561192 $691 14.140991630561192 $687 $722 forward 7 unknown #
vertex $-1 $618 $723 #
straight-curve $-1 0 -39.465949454342471 -14.140991630561192 -1 0 0 I I #
straight-curve $-1 -72.167729728080076 0 -14.140991630561192 0 1 0 I I #
straight-curve $-1 -72.167729728080076 0 14.140991630561192 0 -1 0 I I #
straight-curve $-1 0 -39.465949454342471 14.140991630561192 1 0 0 I I #
straight-curve $-1 -56.277298008024232 -56.902103811388102 14.140991630561189 0 -1 0 I I #
point $-1 -56.277298008024239 -39.465949454342471 14.140991630561192 #
point $-1 -49.122848811890805 -34.016766348940813 8.5448495554253814 #
straight-curve $-1 -24.166041073998151 -39.465949454342471 66.968074826476894 0 0 -1 I I #
point $-1 -24.166041073998151 -39.465949454342471 14.140991630561192 #
straight-curve $-1 -8.5057959389323621 -39.465949454342471 10.216514069493764 1 0 0 I I #
point $-1 -24.166041073998151 -39.465949454342471 10.216514069493766 #
point $-1 -17.011591877864724 -34.016766348940813 8.5448495554253814 #
straight-curve $-1 7.9452158600279272 -39.465949454342471 66.968074826476894 0 0 -1 I I #
point $-1 7.9452158600279272 -39.465949454342471 14.140991630561192 #
straight-curve $-1 7.5498325280806782 -39.465949454342471 10.216514069493764 1 0 0 I I #
point $-1 7.9452158600279272 -39.465949454342471 10.216514069493766 #
point $-1 15.099665056161356 -34.016766348940813 8.5448495554253814 #
straight-curve $-1 40.056472794054017 -39.465949454342471 66.968074826476894 0 0 -1 I I #
point $-1 40.056472794054017 -39.465949454342471 14.140991630561192 #
straight-curve $-1 23.605460995093722 -39.465949454342471 10.216514069493764 1 0 0 I I #
point $-1 40.056472794054017 -39.465949454342471 10.216514069493766 #
point $-1 47.210921990187444 -34.016766348940813 8.5448495554253814 #
straight-curve $-1 -7.1502076688589682 39.465949454342471 81.481101665284498 0 0 -1 I I #
point $-1 -7.1502076688589682 39.465949454342471 14.140991630561192 #
straight-curve $-1 -12.196153621542152 39.465949454342478 5.9195124450840737 -1 0 0 I I #
point $-1 -7.1502076688589682 39.465949454342471 5.9195124450840808 #
point $-1 -34.737566987619509 26.535131544858412 1.3765964269632502 #
point $-1 -24.392307243084304 26.535131544858412 1.3765964269632502 #
point $-1 -14.047047498549105 26.535131544858412 1.3765964269632502 #
point $-1 -72.167729728080076 -39.465949454342471 14.140991630561192 #
straight-curve $-1 -72.167729728080076 -39.465949454342471 0 0 0 -1 I I #
point $-1 -72.167729728080076 -39.465949454342471 -14.140991630561192 #
End-of-ACIS-data 