500 0 6 0           
7 Unknown 11 ACIS 5.0 NT 24 Fri Mar 26 18:38:42 1999 
-1 9.9999999999999995e-007 1e-010 
body $-1 $6 $-1 $7 #
body $-1 $8 $-1 $9 #
body $-1 $10 $-1 $11 #
body $-1 $12 $-1 $13 #
body $-1 $14 $-1 $15 #
body $-1 $16 $-1 $17 #
lump $-1 $-1 $18 $0 #
transform $-1 1 0 0 0 1 0 0 0 1 77.840510269478443 46.968945367107757 16.152948135406472 1 rotate no_reflect no_shear #
lump $-1 $-1 $19 $1 #
transform $-1 1 0 0 0 1 0 0 0 1 77.840510269478443 46.968945367107757 16.152948135406472 1 rotate no_reflect no_shear #
lump $-1 $-1 $20 $2 #
transform $-1 1 0 0 0 1 0 0 0 1 77.840510269478443 46.968945367107757 16.152948135406472 1 rotate no_reflect no_shear #
lump $-1 $-1 $21 $3 #
transform $-1 1 0 0 0 1 0 0 0 1 77.840510269478443 46.968945367107757 16.152948135406472 1 rotate no_reflect no_shear #
lump $-1 $-1 $22 $4 #
transform $-1 1 0 0 0 1 0 0 0 1 77.840510269478443 46.968945367107757 16.152948135406472 1 rotate no_reflect no_shear #
lump $-1 $-1 $23 $5 #
transform $-1 1 0 0 0 1 0 0 0 1 77.840510269478443 46.968945367107757 16.152948135406472 1 rotate no_reflect no_shear #
shell $-1 $-1 $-1 $24 $-1 $6 #
shell $-1 $-1 $-1 $25 $-1 $8 #
shell $-1 $-1 $-1 $26 $-1 $10 #
shell $-1 $-1 $-1 $27 $-1 $12 #
shell $-1 $-1 $-1 $28 $-1 $14 #
shell $-1 $-1 $-1 $29 $-1 $16 #
face $-1 $30 $31 $18 $-1 $32 forward single #
face $-1 $33 $34 $19 $-1 $35 reversed single #
face $-1 $36 $37 $20 $-1 $38 reversed single #
face $-1 $39 $40 $21 $-1 $41 reversed single #
face $-1 $42 $43 $22 $-1 $44 forward single #
face $-1 $45 $46 $23 $-1 $47 forward single #
face $-1 $48 $49 $18 $-1 $50 reversed single #
loop $-1 $-1 $51 $24 #
plane-surface $-1 0 0 16.152948135406472 0 0 1 1 0 0 forward_v I I I I #
face $-1 $52 $53 $19 $-1 $54 reversed single #
loop $-1 $-1 $55 $25 #
plane-surface $-1 0 -40.747809954769409 9.501189037219465 0 0 1 1 0 0 forward_v I I I I #
face $-1 $56 $57 $20 $-1 $58 reversed single #
loop $-1 $-1 $59 $26 #
plane-surface $-1 0 40.747809954769416 9.501189037219465 0 0 1 1 0 0 forward_v I I I I #
face $-1 $60 $61 $21 $-1 $62 reversed single #
loop $-1 $-1 $63 $27 #
plane-surface $-1 -179.97645067857147 22.921404359764743 124.25206793608051 0 1 0 -0.6560590369687036 0 0.75470957328743171 forward_v I I I I #
face $-1 $64 $65 $22 $-1 $66 forward single #
loop $-1 $67 $68 $28 #
cone-surface $-1 -71.688828958185923 26.237195840526546 10.595146552022817 0.6560590369687036 0 -0.75470957328743171 0.75470957328743171 0 0.6560590369687036 1 I I 0 1 1 forward I I I I #
face $-1 $69 $70 $23 $-1 $71 forward single #
loop $-1 $72 $73 $29 #
cone-surface $-1 -71.688828958185923 31.210883061669257 10.595146552022817 0.6560590369687036 0 -0.75470957328743171 0.75470957328743171 0 0.6560590369687036 1 I I 0 1 1 forward I I I I #
face $-1 $74 $75 $18 $-1 $76 reversed single #
loop $-1 $-1 $77 $30 #
plane-surface $-1 0 0 -16.152948135406472 0 0 1 1 0 0 forward_v I I I I #
coedge $-1 $78 $79 $80 $81 forward $31 $-1 #
face $-1 $82 $83 $19 $-1 $84 reversed single #
loop $-1 $-1 $85 $33 #
plane-surface $-1 0 -34.52667454243106 12.827068586312969 0 -1 0 0 0 -1 forward_v I I I I #
coedge $-1 $86 $87 $88 $89 reversed $34 $-1 #
face $-1 $90 $91 $20 $-1 $92 forward single #
loop $-1 $-1 $93 $36 #
plane-surface $-1 0 34.526674542431067 12.827068586312969 0 1 0 0 0 1 forward_v I I I I #
coedge $-1 $94 $95 $96 $97 reversed $37 $-1 #
face $-1 $98 $99 $21 $-1 $100 forward single #
loop $-1 $-1 $101 $39 #
plane-surface $-1 -77.840510269478443 28.724039451097902 6.7581113561724635 -0.6560590369687036 0 0.75470957328743171 0.75470957328743171 0 0.6560590369687036 forward_v I I I I #
coedge $-1 $102 $103 $104 $105 reversed $40 $-1 #
face $-1 $-1 $106 $22 $-1 $107 forward single #
loop $-1 $108 $109 $42 #
cone-surface $-1 -70.612879723952005 26.237195840526546 9.3574085716124458 0.6560590369687036 0 -0.75470957328743171 0.37735478664371586 0 0.3280295184843518 1 I I -0.70710678118654746 0.70710678118654746 0.5 forward I I I I #
loop $-1 $-1 $110 $28 #
coedge $-1 $68 $68 $111 $112 reversed $43 $-1 #
face $-1 $-1 $113 $23 $-1 $114 forward single #
loop $-1 $115 $116 $45 #
cone-surface $-1 -70.612879723952005 31.210883061669257 9.3574085716124458 0.6560590369687036 0 -0.75470957328743171 0.37735478664371586 0 0.3280295184843518 1 I I -0.70710678118654746 0.70710678118654746 0.5 forward I I I I #
loop $-1 $-1 $117 $29 #
coedge $-1 $73 $73 $118 $119 reversed $46 $-1 #
face $-1 $120 $121 $18 $-1 $122 reversed single #
loop $-1 $-1 $123 $48 #
plane-surface $-1 0 -46.968945367107757 0 0 1 0 0 0 1 forward_v I I I I #
coedge $-1 $124 $125 $126 $127 forward $49 $-1 #
coedge $-1 $128 $51 $129 $130 forward $31 $-1 #
coedge $-1 $51 $128 $131 $132 forward $31 $-1 #
coedge $-1 $133 $134 $51 $81 reversed $135 $-1 #
edge $-1 $136 -46.968945367107757 $137 46.968945367107757 $80 $138 forward 7 unknown #
face $-1 $139 $140 $19 $-1 $141 reversed single #
loop $-1 $-1 $142 $52 #
plane-surface $-1 -77.840510269478443 0 0 1 0 0 0 0 -1 forward_v I I I I #
coedge $-1 $143 $144 $145 $146 reversed $53 $-1 #
coedge $-1 $147 $55 $148 $149 reversed $34 $-1 #
coedge $-1 $55 $147 $143 $150 forward $34 $-1 #
coedge $-1 $145 $151 $55 $89 forward $152 $-1 #
edge $-1 $153 -26.595040389723053 $154 -14.152769565046356 $88 $155 forward 7 unknown #
face $-1 $156 $157 $20 $-1 $158 reversed single #
loop $-1 $-1 $159 $56 #
plane-surface $-1 0 0 16.152948135406472 0 0 1 1 0 0 forward_v I I I I #
coedge $-1 $160 $161 $94 $162 reversed $57 $-1 #
coedge $-1 $163 $59 $93 $162 forward $37 $-1 #
coedge $-1 $59 $163 $164 $165 reversed $37 $-1 #
coedge $-1 $166 $167 $59 $97 forward $157 $-1 #
edge $-1 $168 14.152769565046359 $169 26.595040389723057 $96 $170 forward 7 unknown #
face $-1 $171 $172 $21 $-1 $173 forward single #
loop $-1 $-1 $104 $60 #
plane-surface $-1 0 0 16.152948135406472 0 0 1 1 0 0 forward_v I I I I #
coedge $-1 $174 $175 $176 $177 reversed $61 $-1 #
coedge $-1 $103 $63 $178 $179 reversed $40 $-1 #
coedge $-1 $63 $102 $174 $180 reversed $40 $-1 #
coedge $-1 $176 $181 $63 $105 forward $99 $-1 #
edge $-1 $182 12.14771506980729 $183 22.955238260893225 $104 $184 forward 7 unknown #
loop $-1 $-1 $111 $64 #
plane-surface $-1 -77.840510269478443 28.724039451097902 6.7581113561724635 -0.6560590369687036 0 0.75470957328743171 0.75470957328743171 0 0.6560590369687036 forward_v I I I I #
loop $-1 $-1 $185 $42 #
coedge $-1 $109 $109 $110 $186 reversed $65 $-1 #
coedge $-1 $110 $110 $109 $186 forward $67 $-1 #
coedge $-1 $111 $111 $68 $112 forward $106 $-1 #
edge $-1 $187 0 $187 6.2831853071796004 $111 $188 forward 7 unknown #
loop $-1 $-1 $118 $69 #
plane-surface $-1 -77.840510269478443 28.724039451097902 6.7581113561724635 -0.6560590369687036 0 0.75470957328743171 0.75470957328743171 0 0.6560590369687036 forward_v I I I I #
loop $-1 $-1 $189 $45 #
coedge $-1 $116 $116 $117 $190 reversed $70 $-1 #
coedge $-1 $117 $117 $116 $190 forward $72 $-1 #
coedge $-1 $118 $118 $73 $119 forward $113 $-1 #
edge $-1 $191 0 $191 6.2831853071796004 $118 $192 forward 7 unknown #
face $-1 $193 $194 $18 $-1 $195 reversed single #
loop $-1 $-1 $196 $74 #
plane-surface $-1 -77.840510269478443 0 0 1 0 0 0 0 -1 forward_v I I I I #
coedge $-1 $197 $131 $198 $199 forward $75 $-1 #
coedge $-1 $200 $77 $197 $201 forward $49 $-1 #
coedge $-1 $77 $200 $202 $203 forward $49 $-1 #
coedge $-1 $134 $133 $77 $127 reversed $135 $-1 #
edge $-1 $204 -46.968945367107757 $205 46.968945367107757 $126 $206 forward 7 unknown #
coedge $-1 $79 $78 $207 $208 forward $31 $-1 #
coedge $-1 $209 $210 $78 $130 reversed $194 $-1 #
edge $-1 $137 -77.840510269478443 $211 77.840510269478443 $129 $212 forward 7 unknown #
coedge $-1 $123 $213 $79 $132 reversed $75 $-1 #
edge $-1 $214 -77.840510269478443 $136 77.840510269478443 $131 $215 forward 7 unknown #
coedge $-1 $126 $80 $213 $216 forward $135 $-1 #
coedge $-1 $80 $126 $209 $217 reversed $135 $-1 #
loop $-1 $-1 $133 $193 #
vertex $-1 $81 $218 #
vertex $-1 $81 $219 #
straight-curve $-1 77.840510269478443 0 16.152948135406472 0 1 0 I I #
face $-1 $220 $221 $19 $-1 $222 forward single #
loop $-1 $-1 $148 $82 #
plane-surface $-1 0 -46.968945367107757 0 0 1 0 0 0 1 forward_v I I I I #
coedge $-1 $223 $224 $225 $226 forward $83 $-1 #
coedge $-1 $225 $85 $87 $150 reversed $53 $-1 #
coedge $-1 $85 $225 $227 $228 reversed $53 $-1 #
coedge $-1 $229 $88 $85 $146 forward $152 $-1 #
edge $-1 $154 3.0876547440629807 $230 9.7394138422499879 $145 $231 forward 7 unknown #
coedge $-1 $87 $86 $223 $232 reversed $34 $-1 #
coedge $-1 $233 $234 $86 $149 forward $140 $-1 #
edge $-1 $235 -77.840510269478443 $153 77.840510269478443 $148 $236 forward 7 unknown #
edge $-1 $237 -77.840510269478443 $154 77.840510269478443 $143 $238 forward 7 unknown #
coedge $-1 $88 $229 $233 $239 forward $152 $-1 #
loop $-1 $-1 $145 $220 #
vertex $-1 $149 $240 #
vertex $-1 $89 $241 #
straight-curve $-1 77.840510269478443 -20.373904977384704 9.501189037219465 0 1 0 I I #
face $-1 $242 $243 $20 $-1 $244 reversed single #
loop $-1 $-1 $167 $90 #
plane-surface $-1 77.840510269478443 0 0 -1 0 0 0 0 1 forward_v I I I I #
coedge $-1 $245 $246 $247 $248 forward $91 $-1 #
coedge $-1 $247 $93 $167 $249 reversed $57 $-1 #
coedge $-1 $93 $247 $250 $251 reversed $57 $-1 #
edge $-1 $168 -77.840510269478443 $252 77.840510269478443 $93 $253 forward 7 unknown #
coedge $-1 $95 $94 $254 $255 reversed $37 $-1 #
coedge $-1 $256 $257 $95 $165 forward $258 $-1 #
edge $-1 $169 -77.840510269478443 $259 77.840510269478443 $164 $260 forward 7 unknown #
coedge $-1 $261 $96 $257 $262 reversed $157 $-1 #
coedge $-1 $96 $261 $160 $249 forward $157 $-1 #
vertex $-1 $97 $263 #
vertex $-1 $165 $264 #
straight-curve $-1 77.840510269478443 20.373904977384708 9.501189037219465 0 1 0 I I #
face $-1 $-1 $265 $21 $-1 $266 reversed single #
loop $-1 $-1 $267 $98 #
plane-surface $-1 0 34.526674542431067 12.827068586312969 0 1 0 0 0 1 forward_v I I I I #
coedge $-1 $268 $101 $103 $180 forward $61 $-1 #
coedge $-1 $101 $268 $267 $269 forward $61 $-1 #
coedge $-1 $270 $104 $101 $177 forward $99 $-1 #
edge $-1 $183 8.5593846342157924 $271 20.164654816882116 $176 $272 forward 7 unknown #
coedge $-1 $273 $274 $102 $179 forward $265 $-1 #
edge $-1 $275 -55.36792261186779 $182 -45.973085832633785 $178 $276 forward 7 unknown #
edge $-1 $183 -14.320108785700908 $275 0 $103 $277 forward 7 unknown #
coedge $-1 $104 $270 $273 $278 forward $99 $-1 #
vertex $-1 $179 $279 #
vertex $-1 $105 $280 #
straight-curve $-1 -89.988225339285734 22.921404359764743 16.152948135406476 1 0 0 I I #
coedge $-1 $185 $185 $-1 $281 reversed $108 $-1 #
edge $-1 $282 0 $282 6.2831853071796004 $109 $283 forward 7 unknown #
vertex $-1 $112 $284 #
ellipse-curve $-1 -72.436748673935483 26.237195840526546 11.455529745789466 -0.6560590369687036 0 0.75470957328743171 0.75470957328743171 0 0.6560590369687036 1 I I #
coedge $-1 $189 $189 $-1 $285 reversed $115 $-1 #
edge $-1 $286 0 $286 6.2831853071796004 $116 $287 forward 7 unknown #
vertex $-1 $119 $288 #
ellipse-curve $-1 -72.436748673935483 31.210883061669257 11.455529745789466 -0.6560590369687036 0 0.75470957328743171 0.75470957328743171 0 0.6560590369687036 1 I I #
face $-1 $-1 $135 $18 $-1 $289 reversed single #
loop $-1 $-1 $209 $120 #
plane-surface $-1 0 46.968945367107757 0 0 -1 0 0 0 -1 forward_v I I I I #
coedge $-1 $290 $207 $210 $291 forward $121 $-1 #
coedge $-1 $213 $123 $124 $201 reversed $75 $-1 #
coedge $-1 $207 $290 $123 $199 reversed $121 $-1 #
edge $-1 $214 -16.152948135406472 $292 16.152948135406472 $198 $293 forward 7 unknown #
coedge $-1 $125 $124 $290 $294 forward $49 $-1 #
edge $-1 $205 -77.840510269478443 $292 77.840510269478443 $197 $295 forward 7 unknown #
coedge $-1 $210 $209 $125 $203 reversed $194 $-1 #
edge $-1 $296 -77.840510269478443 $204 77.840510269478443 $202 $297 forward 7 unknown #
vertex $-1 $127 $298 #
vertex $-1 $216 $299 #
straight-curve $-1 77.840510269478443 0 -16.152948135406472 0 -1 0 I I #
coedge $-1 $196 $198 $128 $208 reversed $121 $-1 #
edge $-1 $211 -46.968945367107757 $214 46.968945367107757 $207 $300 forward 7 unknown #
coedge $-1 $202 $129 $134 $217 forward $194 $-1 #
coedge $-1 $129 $202 $196 $291 reversed $194 $-1 #
vertex $-1 $130 $301 #
straight-curve $-1 0 46.968945367107757 16.152948135406472 -1 0 0 I I #
coedge $-1 $131 $197 $133 $216 reversed $75 $-1 #
vertex $-1 $208 $302 #
straight-curve $-1 0 -46.968945367107757 16.152948135406472 1 0 0 I I #
edge $-1 $136 -16.152948135406472 $205 16.152948135406472 $133 $303 forward 7 unknown #
edge $-1 $137 -16.152948135406472 $204 16.152948135406472 $134 $304 forward 7 unknown #
point $-1 77.840510269478443 -46.968945367107757 16.152948135406472 #
point $-1 77.840510269478443 46.968945367107757 16.152948135406472 #
face $-1 $-1 $152 $19 $-1 $305 reversed single #
loop $-1 $-1 $227 $139 #
plane-surface $-1 0 0 16.152948135406472 0 0 1 1 0 0 forward_v I I I I #
coedge $-1 $306 $142 $147 $232 forward $83 $-1 #
coedge $-1 $142 $306 $307 $308 reversed $83 $-1 #
coedge $-1 $144 $143 $142 $226 reversed $53 $-1 #
edge $-1 $309 -9.7394138422499879 $237 -3.0876547440629807 $142 $310 forward 7 unknown #
coedge $-1 $307 $311 $144 $228 forward $221 $-1 #
edge $-1 $230 -77.840510269478443 $309 77.840510269478443 $227 $312 forward 7 unknown #
coedge $-1 $151 $145 $311 $313 reversed $152 $-1 #
vertex $-1 $146 $314 #
straight-curve $-1 77.840510269478443 -34.52667454243106 6.4135342931564843 0 0 1 I I #
edge $-1 $237 14.152769565046356 $235 26.595040389723053 $223 $315 forward 7 unknown #
coedge $-1 $316 $148 $151 $239 reversed $140 $-1 #
coedge $-1 $148 $316 $306 $317 forward $140 $-1 #
vertex $-1 $149 $318 #
straight-curve $-1 0 -46.968945367107757 9.501189037219465 1 0 0 I I #
vertex $-1 $232 $319 #
straight-curve $-1 0 -34.52667454243106 9.501189037219465 1 0 0 I I #
edge $-1 $320 -16.152948135406472 $153 -9.501189037219465 $151 $321 forward 7 unknown #
point $-1 77.840510269478443 -46.968945367107757 9.501189037219465 #
point $-1 77.840510269478443 -34.52667454243106 9.501189037219465 #
face $-1 $-1 $258 $20 $-1 $322 reversed single #
loop $-1 $-1 $250 $156 #
plane-surface $-1 -77.840510269478443 0 0 1 0 0 0 0 -1 forward_v I I I I #
coedge $-1 $323 $159 $261 $324 forward $91 $-1 #
coedge $-1 $159 $323 $325 $326 forward $91 $-1 #
coedge $-1 $161 $160 $159 $248 reversed $57 $-1 #
edge $-1 $327 -77.840510269478443 $328 77.840510269478443 $159 $329 forward 7 unknown #
edge $-1 $328 -9.7394138422499879 $168 -3.0876547440629807 $167 $330 forward 7 unknown #
coedge $-1 $325 $254 $161 $251 forward $243 $-1 #
edge $-1 $252 3.0876547440629807 $327 9.7394138422499879 $250 $331 forward 7 unknown #
vertex $-1 $255 $332 #
straight-curve $-1 0 34.526674542431067 9.501189037219465 -1 0 0 I I #
coedge $-1 $250 $333 $163 $255 forward $243 $-1 #
edge $-1 $259 -26.595040389723057 $252 -14.152769565046359 $254 $334 forward 7 unknown #
coedge $-1 $335 $164 $333 $336 reversed $258 $-1 #
coedge $-1 $164 $335 $166 $262 forward $258 $-1 #
loop $-1 $-1 $164 $242 #
vertex $-1 $165 $337 #
straight-curve $-1 0 46.968945367107757 9.501189037219465 -1 0 0 I I #
coedge $-1 $167 $166 $245 $324 reversed $157 $-1 #
edge $-1 $338 -16.152948135406472 $169 -9.501189037219465 $166 $339 forward 7 unknown #
point $-1 77.840510269478443 34.526674542431067 9.501189037219465 #
point $-1 77.840510269478443 46.968945367107764 9.501189037219465 #
loop $-1 $-1 $178 $171 #
plane-surface $-1 -77.840510269478443 0 0 1 0 0 0 0 -1 forward_v I I I I #
coedge $-1 $340 $341 $175 $269 reversed $172 $-1 #
coedge $-1 $175 $174 $274 $342 reversed $61 $-1 #
edge $-1 $343 0 $271 14.320108785700908 $267 $344 forward 7 unknown #
coedge $-1 $181 $176 $341 $345 forward $99 $-1 #
vertex $-1 $345 $346 #
straight-curve $-1 -67.032987078392509 14.362019725548951 16.152948135406476 0 1 0 I I #
coedge $-1 $347 $178 $181 $278 reversed $265 $-1 #
coedge $-1 $178 $347 $268 $342 forward $265 $-1 #
vertex $-1 $179 $348 #
straight-curve $-1 -77.840510269478443 22.921404359764743 62.126033968040254 0 0 1 I I #
straight-curve $-1 -77.840510269478443 22.921404359764743 6.7581113561724635 -0.75470957328743171 0 -0.6560590369687036 I I #
edge $-1 $349 -34.526674542431067 $182 -22.921404359764743 $273 $350 forward 7 unknown #
point $-1 -77.840510269478443 22.921404359764743 16.152948135406472 #
point $-1 -67.032987078392509 22.921404359764743 16.152948135406472 #
edge $-1 $351 1 $351 0 $185 $-1 forward 7 unknown #
vertex $-1 $186 $352 #
ellipse-curve $-1 -70.940909242436362 26.237195840526546 9.7347633582561617 -0.6560590369687036 0 0.75470957328743171 0.75470957328743171 0 0.6560590369687036 1 I I #
point $-1 -71.682039100648055 26.237195840526546 12.111588782758176 #
edge $-1 $353 1 $353 0 $189 $-1 forward 7 unknown #
vertex $-1 $190 $354 #
ellipse-curve $-1 -70.940909242436362 31.210883061669257 9.7347633582561617 -0.6560590369687036 0 0.75470957328743171 0.75470957328743171 0 0.6560590369687036 1 I I #
point $-1 -71.682039100648055 31.210883061669257 12.111588782758176 #
plane-surface $-1 77.840510269478443 0 0 -1 0 0 0 0 1 forward_v I I I I #
coedge $-1 $198 $196 $200 $294 reversed $121 $-1 #
edge $-1 $211 -16.152948135406472 $296 16.152948135406472 $210 $355 forward 7 unknown #
vertex $-1 $294 $356 #
straight-curve $-1 -77.840510269478443 -46.968945367107757 0 0 0 -1 I I #
edge $-1 $292 -46.968945367107757 $296 46.968945367107757 $290 $357 forward 7 unknown #
straight-curve $-1 0 -46.968945367107757 -16.152948135406472 -1 0 0 I I #
vertex $-1 $203 $358 #
straight-curve $-1 0 46.968945367107757 -16.152948135406472 1 0 0 I I #
point $-1 77.840510269478443 46.968945367107757 -16.152948135406472 #
point $-1 77.840510269478443 -46.968945367107757 -16.152948135406472 #
straight-curve $-1 -77.840510269478443 0 16.152948135406472 0 -1 0 I I #
point $-1 -77.840510269478443 46.968945367107757 16.152948135406472 #
point $-1 -77.840510269478443 -46.968945367107757 16.152948135406472 #
straight-curve $-1 77.840510269478443 -46.968945367107757 0 0 0 -1 I I #
straight-curve $-1 77.840510269478443 46.968945367107757 0 0 0 -1 I I #
plane-surface $-1 77.840510269478443 0 0 -1 0 0 0 0 1 forward_v I I I I #
coedge $-1 $224 $223 $234 $317 reversed $83 $-1 #
coedge $-1 $359 $227 $224 $308 forward $221 $-1 #
edge $-1 $309 34.52667454243106 $360 46.968945367107757 $224 $361 forward 7 unknown #
vertex $-1 $308 $362 #
straight-curve $-1 -77.840510269478443 -34.52667454243106 6.4135342931564843 0 0 -1 I I #
coedge $-1 $227 $359 $229 $313 forward $221 $-1 #
straight-curve $-1 0 -34.52667454243106 16.152948135406472 -1 0 0 I I #
edge $-1 $320 -46.968945367107757 $230 -34.52667454243106 $229 $363 forward 7 unknown #
point $-1 77.840510269478443 -34.52667454243106 16.152948135406472 #
straight-curve $-1 -77.840510269478443 -20.373904977384704 9.501189037219465 0 -1 0 I I #
coedge $-1 $234 $233 $359 $364 reversed $140 $-1 #
edge $-1 $360 -16.152948135406472 $235 -9.501189037219465 $306 $365 forward 7 unknown #
point $-1 -77.840510269478443 -46.968945367107757 9.501189037219465 #
point $-1 -77.840510269478443 -34.52667454243106 9.501189037219465 #
vertex $-1 $313 $366 #
straight-curve $-1 77.840510269478443 -46.968945367107757 0 0 0 -1 I I #
plane-surface $-1 0 46.968945367107757 0 0 -1 0 0 0 -1 forward_v I I I I #
coedge $-1 $246 $245 $335 $367 forward $91 $-1 #
edge $-1 $328 34.526674542431067 $338 46.968945367107757 $261 $368 forward 7 unknown #
coedge $-1 $333 $250 $246 $326 reversed $243 $-1 #
edge $-1 $369 -46.968945367107757 $327 -34.526674542431067 $325 $370 forward 7 unknown #
vertex $-1 $251 $371 #
vertex $-1 $324 $372 #
straight-curve $-1 0 34.526674542431067 16.152948135406472 1 0 0 I I #
straight-curve $-1 77.840510269478443 34.526674542431067 6.4135342931564843 0 0 -1 I I #
straight-curve $-1 -77.840510269478443 34.526674542431067 6.4135342931564843 0 0 1 I I #
point $-1 -77.840510269478443 34.526674542431067 9.501189037219465 #
coedge $-1 $254 $325 $256 $336 forward $243 $-1 #
straight-curve $-1 -77.840510269478443 20.373904977384708 9.501189037219465 0 -1 0 I I #
coedge $-1 $257 $256 $323 $367 reversed $258 $-1 #
edge $-1 $369 -16.152948135406472 $259 -9.501189037219465 $256 $373 forward 7 unknown #
point $-1 -77.840510269478443 46.968945367107764 9.501189037219465 #
vertex $-1 $324 $374 #
straight-curve $-1 77.840510269478443 46.968945367107757 0 0 0 -1 I I #
coedge $-1 $341 $267 $347 $375 reversed $172 $-1 #
coedge $-1 $267 $340 $270 $345 reversed $172 $-1 #
edge $-1 $343 -20.164654816882109 $275 -8.5593846342157924 $274 $376 forward 7 unknown #
vertex $-1 $375 $377 #
straight-curve $-1 -77.840510269478443 34.52667454243106 6.7581113561724635 0.75470957328743171 0 0.6560590369687036 I I #
edge $-1 $271 67.032987078392509 $349 77.840510269478443 $270 $378 forward 7 unknown #
point $-1 -67.032987078392509 34.526674542431067 16.152948135406472 #
coedge $-1 $274 $273 $340 $375 forward $265 $-1 #
point $-1 -77.840510269478443 22.921404359764743 6.7581113561724635 #
vertex $-1 $278 $379 #
straight-curve $-1 -77.840510269478443 0 16.152948135406472 0 -1 0 I I #
vertex $-1 $281 $380 #
point $-1 -70.18619966914892 26.237195840526546 10.390822395224866 #
vertex $-1 $285 $381 #
point $-1 -70.18619966914892 31.210883061669257 10.390822395224866 #
straight-curve $-1 -77.840510269478443 46.968945367107757 0 0 0 -1 I I #
point $-1 -77.840510269478443 -46.968945367107757 -16.152948135406472 #
straight-curve $-1 -77.840510269478443 0 -16.152948135406472 0 1 0 I I #
point $-1 -77.840510269478443 46.968945367107757 -16.152948135406472 #
coedge $-1 $311 $307 $316 $364 forward $221 $-1 #
vertex $-1 $308 $382 #
straight-curve $-1 -77.840510269478443 0 16.152948135406472 0 -1 0 I I #
point $-1 -77.840510269478443 -34.52667454243106 16.152948135406472 #
straight-curve $-1 77.840510269478443 0 16.152948135406472 0 1 0 I I #
edge $-1 $360 -77.840510269478443 $320 77.840510269478443 $316 $383 forward 7 unknown #
straight-curve $-1 -77.840510269478443 -46.968945367107757 0 0 0 -1 I I #
point $-1 77.840510269478443 -46.968945367107757 16.152948135406472 #
edge $-1 $338 -77.840510269478443 $369 77.840510269478443 $335 $384 forward 7 unknown #
straight-curve $-1 77.840510269478443 0 16.152948135406472 0 1 0 I I #
vertex $-1 $367 $385 #
straight-curve $-1 -77.840510269478443 0 16.152948135406472 0 -1 0 I I #
point $-1 -77.840510269478443 34.526674542431067 16.152948135406472 #
point $-1 77.840510269478443 34.526674542431067 16.152948135406472 #
straight-curve $-1 -77.840510269478443 46.968945367107757 0 0 0 -1 I I #
point $-1 77.840510269478443 46.968945367107757 16.152948135406472 #
edge $-1 $349 45.973085832633785 $343 55.36792261186779 $347 $386 forward 7 unknown #
straight-curve $-1 -77.840510269478443 14.362019725548951 6.7581113561724599 0 -1 0 I I #
point $-1 -77.840510269478443 34.52667454243106 6.7581113561724635 #
straight-curve $-1 0 34.526674542431067 16.152948135406472 -1 0 0 I I #
point $-1 -77.840510269478443 34.526674542431067 16.152948135406472 #
point $-1 -70.284850205467649 26.237195840526546 8.9800537849687299 #
point $-1 -70.284850205467649 31.210883061669257 8.9800537849687299 #
point $-1 -77.840510269478443 -46.968945367107757 16.152948135406472 #
straight-curve $-1 0 -46.968945367107757 16.152948135406472 1 0 0 I I #
straight-curve $-1 0 46.968945367107757 16.152948135406472 -1 0 0 I I #
point $-1 -77.840510269478443 46.968945367107757 16.152948135406472 #
straight-curve $-1 -77.840510269478443 34.52667454243106 62.126033968040254 0 0 -1 I I #
End-of-ACIS-data 