500 0 13 0           
7 Unknown 11 ACIS 5.0 NT 24 Fri Mar 26 01:52:13 1999 
-1 9.9999999999999995e-007 1e-010 
body $-1 $13 $-1 $14 #
body $-1 $15 $-1 $16 #
body $-1 $17 $-1 $18 #
body $-1 $19 $-1 $20 #
body $-1 $21 $-1 $22 #
body $-1 $23 $-1 $24 #
body $-1 $25 $-1 $26 #
body $-1 $27 $-1 $28 #
body $-1 $29 $-1 $30 #
body $-1 $31 $-1 $32 #
body $-1 $33 $-1 $34 #
body $-1 $35 $-1 $36 #
body $-1 $37 $-1 $38 #
lump $-1 $-1 $39 $0 #
transform $-1 1 0 0 0 1 0 0 0 1 67.116306039613022 29.403402350817863 7.488907579546054 1 rotate no_reflect no_shear #
lump $-1 $-1 $40 $1 #
transform $-1 1 0 0 0 1 0 0 0 1 67.116306039613022 29.403402350817863 7.488907579546054 1 rotate no_reflect no_shear #
lump $-1 $-1 $41 $2 #
transform $-1 1 0 0 0 1 0 0 0 1 67.116306039613022 29.403402350817863 7.488907579546054 1 rotate no_reflect no_shear #
lump $-1 $-1 $42 $3 #
transform $-1 1 0 0 0 1 0 0 0 1 67.116306039613022 29.403402350817863 7.488907579546054 1 rotate no_reflect no_shear #
lump $-1 $-1 $43 $4 #
transform $-1 1 0 0 0 1 0 0 0 1 67.116306039613022 29.403402350817863 7.488907579546054 1 rotate no_reflect no_shear #
lump $-1 $-1 $44 $5 #
transform $-1 1 0 0 0 1 0 0 0 1 67.116306039613022 29.403402350817863 7.488907579546054 1 rotate no_reflect no_shear #
lump $-1 $-1 $45 $6 #
transform $-1 1 0 0 0 1 0 0 0 1 67.116306039613022 29.403402350817863 7.488907579546054 1 rotate no_reflect no_shear #
lump $-1 $-1 $46 $7 #
transform $-1 1 0 0 0 1 0 0 0 1 67.116306039613022 29.403402350817863 7.488907579546054 1 rotate no_reflect no_shear #
lump $-1 $-1 $47 $8 #
transform $-1 1 0 0 0 1 0 0 0 1 67.116306039613022 29.403402350817863 7.488907579546054 1 rotate no_reflect no_shear #
lump $-1 $-1 $48 $9 #
transform $-1 1 0 0 0 1 0 0 0 1 67.116306039613022 29.403402350817863 7.488907579546054 1 rotate no_reflect no_shear #
lump $-1 $-1 $49 $10 #
transform $-1 1 0 0 0 1 0 0 0 1 67.116306039613022 29.403402350817863 7.488907579546054 1 rotate no_reflect no_shear #
lump $-1 $-1 $50 $11 #
transform $-1 1 0 0 0 1 0 0 0 1 67.116306039613022 29.403402350817863 7.488907579546054 1 rotate no_reflect no_shear #
lump $-1 $-1 $51 $12 #
transform $-1 1 0 0 0 1 0 0 0 1 67.116306039613022 29.403402350817863 7.488907579546054 1 rotate no_reflect no_shear #
shell $-1 $-1 $-1 $52 $-1 $13 #
shell $-1 $-1 $-1 $53 $-1 $15 #
shell $-1 $-1 $-1 $54 $-1 $17 #
shell $-1 $-1 $-1 $55 $-1 $19 #
shell $-1 $-1 $-1 $56 $-1 $21 #
shell $-1 $-1 $-1 $57 $-1 $23 #
shell $-1 $-1 $-1 $58 $-1 $25 #
shell $-1 $-1 $-1 $59 $-1 $27 #
shell $-1 $-1 $-1 $60 $-1 $29 #
shell $-1 $-1 $-1 $61 $-1 $31 #
shell $-1 $-1 $-1 $62 $-1 $33 #
shell $-1 $-1 $-1 $63 $-1 $35 #
shell $-1 $-1 $-1 $64 $-1 $37 #
face $-1 $65 $66 $39 $-1 $67 forward single #
face $-1 $68 $69 $40 $-1 $70 forward single #
face $-1 $71 $72 $41 $-1 $73 reversed single #
face $-1 $74 $75 $42 $-1 $76 forward single #
face $-1 $77 $78 $43 $-1 $79 forward single #
face $-1 $80 $81 $44 $-1 $82 reversed single #
face $-1 $83 $84 $45 $-1 $85 forward single #
face $-1 $86 $87 $46 $-1 $88 forward single #
face $-1 $89 $90 $47 $-1 $91 forward single #
face $-1 $92 $93 $48 $-1 $94 reversed single #
face $-1 $95 $96 $49 $-1 $97 forward single #
face $-1 $98 $99 $50 $-1 $100 forward single #
face $-1 $101 $102 $51 $-1 $103 forward single #
face $-1 $104 $105 $39 $-1 $106 reversed single #
loop $-1 $-1 $107 $52 #
plane-surface $-1 0 0 7.488907579546054 0 0 1 1 0 0 forward_v I I I I #
face $-1 $108 $109 $40 $-1 $110 reversed single #
loop $-1 $-1 $111 $53 #
plane-surface $-1 0 -26.175961329744879 -4.488907579546054 0 0 1 1 0 0 forward_v I I I I #
face $-1 $112 $113 $41 $-1 $114 reversed single #
loop $-1 $-1 $115 $54 #
plane-surface $-1 60.49121172577911 -15.581262320486786 191.97054407904048 0 -1 0 -0.68199836817093118 0 -0.7313536940579346 forward_v I I I I #
face $-1 $116 $117 $42 $-1 $118 forward single #
loop $-1 $119 $120 $55 #
cone-surface $-1 63.875021355201675 -20.843589454904723 4.4057115726855383 -0.68199836817093118 0 -0.7313536940579346 0.7313536940579346 0 -0.68199836817093118 1 I I 0 1 1 forward I I I I #
face $-1 $121 $122 $43 $-1 $123 forward single #
loop $-1 $124 $125 $56 #
cone-surface $-1 63.875021355201675 -17.686193174253962 4.4057115726855383 -0.68199836817093118 0 -0.7313536940579346 0.7313536940579346 0 -0.68199836817093118 1 I I 0 1 1 forward I I I I #
face $-1 $126 $127 $44 $-1 $128 reversed single #
loop $-1 $-1 $129 $57 #
plane-surface $-1 -183.36515915485853 -8.6243016757295692 67.481806283601941 0 1 0 -0.86602541151947299 0 0.49999998660252726 forward_v I I I I #
face $-1 $130 $131 $45 $-1 $132 forward single #
loop $-1 $133 $134 $58 #
cone-surface $-1 -63.711824581299403 -6.2539531363690593 3.1488607661362198 0.86602541151947299 0 -0.49999998660252726 0.49999998660252726 0 0.86602541151947299 1 I I 0 1 1 forward I I I I #
face $-1 $135 $136 $46 $-1 $137 forward single #
loop $-1 $138 $139 $59 #
cone-surface $-1 -63.711824581299403 -2.6984303273282926 3.1488607661362198 0.86602541151947299 0 -0.49999998660252726 0.49999998660252726 0 0.86602541151947299 1 I I 0 1 1 forward I I I I #
face $-1 $140 $141 $47 $-1 $142 forward single #
loop $-1 $143 $144 $60 #
cone-surface $-1 -63.711824581299403 0.8570924817124741 3.1488607661362198 0.86602541151947299 0 -0.49999998660252726 0.49999998660252726 0 0.86602541151947299 1 I I 0 1 1 forward I I I I #
face $-1 $145 $146 $48 $-1 $147 reversed single #
loop $-1 $-1 $148 $61 #
plane-surface $-1 -183.36515915485853 17.551659654015314 67.481806283601941 0 1 0 -0.86602541151947299 0 0.49999998660252726 forward_v I I I I #
face $-1 $149 $150 $49 $-1 $151 forward single #
loop $-1 $152 $153 $62 #
cone-surface $-1 -63.711824581299403 19.922008193375824 3.1488607661362198 0.86602541151947299 0 -0.49999998660252726 0.49999998660252726 0 0.86602541151947299 1 I I 0 1 1 forward I I I I #
face $-1 $154 $155 $50 $-1 $156 forward single #
loop $-1 $157 $158 $63 #
cone-surface $-1 -63.711824581299403 23.47753100241659 3.1488607661362198 0.86602541151947299 0 -0.49999998660252726 0.49999998660252726 0 0.86602541151947299 1 I I 0 1 1 forward I I I I #
face $-1 $159 $160 $51 $-1 $161 forward single #
loop $-1 $162 $163 $64 #
cone-surface $-1 -63.711824581299403 27.033053811457357 3.1488607661362198 0.86602541151947299 0 -0.49999998660252726 0.49999998660252726 0 0.86602541151947299 1 I I 0 1 1 forward I I I I #
face $-1 $164 $165 $39 $-1 $166 reversed single #
loop $-1 $-1 $167 $65 #
plane-surface $-1 0 0 -7.488907579546054 0 0 1 1 0 0 forward_v I I I I #
coedge $-1 $168 $169 $170 $171 forward $66 $-1 #
face $-1 $172 $173 $40 $-1 $174 reversed single #
loop $-1 $-1 $175 $68 #
plane-surface $-1 0 -22.948520308671895 -5.988907579546054 0 -1 0 0 0 -1 forward_v I I I I #
coedge $-1 $176 $177 $178 $179 reversed $69 $-1 #
face $-1 $180 $181 $41 $-1 $182 reversed single #
loop $-1 $-1 $183 $71 #
plane-surface $-1 -31.055210667574684 -19.264891314579341 93.799027371852773 0.68199836817093118 0 0.7313536940579346 0.7313536940579346 0 -0.68199836817093118 forward_v I I I I #
coedge $-1 $184 $185 $186 $187 reversed $72 $-1 #
face $-1 $-1 $188 $42 $-1 $189 forward single #
loop $-1 $190 $191 $74 #
cone-surface $-1 63.100360957089123 -20.843589454904723 3.5749900193195829 -0.68199836817093118 0 -0.7313536940579346 0.3656768470289673 0 -0.34099918408546559 1 I I -0.70710678118654724 0.70710678118654791 0.5 forward I I I I #
loop $-1 $-1 $192 $55 #
coedge $-1 $120 $120 $193 $194 reversed $75 $-1 #
face $-1 $-1 $195 $43 $-1 $196 forward single #
loop $-1 $197 $198 $77 #
cone-surface $-1 63.100360957089123 -17.686193174253962 3.5749900193195829 -0.68199836817093118 0 -0.7313536940579346 0.3656768470289673 0 -0.34099918408546559 1 I I -0.70710678118654724 0.70710678118654791 0.5 forward I I I I #
loop $-1 $-1 $199 $56 #
coedge $-1 $125 $125 $200 $201 reversed $78 $-1 #
face $-1 $202 $203 $44 $-1 $204 reversed single #
loop $-1 $-1 $205 $80 #
plane-surface $-1 -67.116306039613022 -2.6984303273282926 0.36550204236668549 -0.86602541151947299 0 0.49999998660252726 0.49999998660252726 0 0.86602541151947299 forward_v I I I I #
coedge $-1 $206 $207 $208 $209 reversed $81 $-1 #
face $-1 $-1 $210 $45 $-1 $211 forward single #
loop $-1 $212 $213 $83 #
cone-surface $-1 -61.930680395978364 -6.2539531363690593 2.1205167280148105 0.86602541151947299 0 -0.49999998660252726 0.24999999330126363 0 0.43301270575973649 1 I I -0.70710678118654746 0.70710678118654746 0.5 forward I I I I #
loop $-1 $-1 $214 $58 #
coedge $-1 $134 $134 $215 $216 reversed $84 $-1 #
face $-1 $-1 $217 $46 $-1 $218 forward single #
loop $-1 $219 $220 $86 #
cone-surface $-1 -61.930680395978364 -2.6984303273282926 2.1205167280148105 0.86602541151947299 0 -0.49999998660252726 0.24999999330126363 0 0.43301270575973649 1 I I -0.70710678118654746 0.70710678118654746 0.5 forward I I I I #
loop $-1 $-1 $221 $59 #
coedge $-1 $139 $139 $222 $223 reversed $87 $-1 #
face $-1 $-1 $224 $47 $-1 $225 forward single #
loop $-1 $226 $227 $89 #
cone-surface $-1 -61.930680395978364 0.8570924817124741 2.1205167280148105 0.86602541151947299 0 -0.49999998660252726 0.24999999330126363 0 0.43301270575973649 1 I I -0.70710678118654746 0.70710678118654746 0.5 forward I I I I #
loop $-1 $-1 $228 $60 #
coedge $-1 $144 $144 $229 $230 reversed $90 $-1 #
face $-1 $231 $232 $48 $-1 $233 forward single #
loop $-1 $-1 $234 $92 #
plane-surface $-1 -67.116306039613022 23.47753100241659 0.36550204236668549 -0.86602541151947299 0 0.49999998660252726 0.49999998660252726 0 0.86602541151947299 forward_v I I I I #
coedge $-1 $235 $236 $237 $238 reversed $93 $-1 #
face $-1 $-1 $239 $49 $-1 $240 forward single #
loop $-1 $241 $242 $95 #
cone-surface $-1 -61.930680395978364 19.922008193375824 2.1205167280148105 0.86602541151947299 0 -0.49999998660252726 0.24999999330126363 0 0.43301270575973649 1 I I -0.70710678118654746 0.70710678118654746 0.5 forward I I I I #
loop $-1 $-1 $243 $62 #
coedge $-1 $153 $153 $244 $245 reversed $96 $-1 #
face $-1 $-1 $246 $50 $-1 $247 forward single #
loop $-1 $248 $249 $98 #
cone-surface $-1 -61.930680395978364 23.47753100241659 2.1205167280148105 0.86602541151947299 0 -0.49999998660252726 0.24999999330126363 0 0.43301270575973649 1 I I -0.70710678118654746 0.70710678118654746 0.5 forward I I I I #
loop $-1 $-1 $250 $63 #
coedge $-1 $158 $158 $251 $252 reversed $99 $-1 #
face $-1 $-1 $253 $51 $-1 $254 forward single #
loop $-1 $255 $256 $101 #
cone-surface $-1 -61.930680395978364 27.033053811457357 2.1205167280148105 0.86602541151947299 0 -0.49999998660252726 0.24999999330126363 0 0.43301270575973649 1 I I -0.70710678118654746 0.70710678118654746 0.5 forward I I I I #
loop $-1 $-1 $257 $64 #
coedge $-1 $163 $163 $258 $259 reversed $102 $-1 #
face $-1 $260 $261 $39 $-1 $262 reversed single #
loop $-1 $-1 $263 $104 #
plane-surface $-1 0 -29.403402350817863 0 0 1 0 0 0 1 forward_v I I I I #
coedge $-1 $264 $265 $266 $267 forward $105 $-1 #
coedge $-1 $268 $107 $269 $270 forward $66 $-1 #
coedge $-1 $107 $268 $271 $272 forward $66 $-1 #
coedge $-1 $273 $274 $107 $171 reversed $275 $-1 #
edge $-1 $276 -29.403402350817863 $277 29.403402350817863 $170 $278 forward 7 unknown #
face $-1 $279 $280 $40 $-1 $281 reversed single #
loop $-1 $-1 $282 $108 #
plane-surface $-1 0 0 -7.488907579546054 0 0 1 1 0 0 forward_v I I I I #
coedge $-1 $283 $284 $285 $286 reversed $109 $-1 #
coedge $-1 $287 $111 $284 $288 forward $69 $-1 #
coedge $-1 $111 $287 $289 $290 reversed $69 $-1 #
coedge $-1 $291 $285 $111 $179 forward $280 $-1 #
edge $-1 $292 9.8605396437994557 $293 16.315421685945424 $178 $294 forward 7 unknown #
face $-1 $295 $296 $41 $-1 $297 reversed single #
loop $-1 $-1 $298 $112 #
plane-surface $-1 60.49121172577911 -22.948520308671895 191.97054407904048 0 1 0 0.68199836817093118 0 0.7313536940579346 forward_v I I I I #
coedge $-1 $299 $300 $301 $302 reversed $113 $-1 #
coedge $-1 $185 $115 $303 $304 reversed $72 $-1 #
coedge $-1 $115 $184 $299 $305 reversed $72 $-1 #
coedge $-1 $301 $306 $115 $187 forward $307 $-1 #
edge $-1 $308 -36.870700176723467 $309 -31.255453235954953 $186 $310 forward 7 unknown #
loop $-1 $-1 $193 $116 #
plane-surface $-1 -31.055210667574684 -19.264891314579341 93.799027371852773 0.68199836817093118 0 0.7313536940579346 0.7313536940579346 0 -0.68199836817093118 forward_v I I I I #
loop $-1 $-1 $311 $74 #
coedge $-1 $191 $191 $192 $312 reversed $117 $-1 #
coedge $-1 $192 $192 $191 $312 forward $119 $-1 #
coedge $-1 $193 $193 $120 $194 forward $188 $-1 #
edge $-1 $313 0 $313 6.2831853071796004 $193 $314 forward 7 unknown #
loop $-1 $-1 $200 $121 #
plane-surface $-1 -31.055210667574684 -19.264891314579341 93.799027371852773 0.68199836817093118 0 0.7313536940579346 0.7313536940579346 0 -0.68199836817093118 forward_v I I I I #
loop $-1 $-1 $315 $77 #
coedge $-1 $198 $198 $199 $316 reversed $122 $-1 #
coedge $-1 $199 $199 $198 $316 forward $124 $-1 #
coedge $-1 $200 $200 $125 $201 forward $195 $-1 #
edge $-1 $317 0 $317 6.2831853071796004 $200 $318 forward 7 unknown #
face $-1 $319 $320 $44 $-1 $321 forward single #
loop $-1 $-1 $322 $126 #
plane-surface $-1 -183.36515915485853 3.227441021072984 67.481806283601941 0 -1 0 0.86602541151947299 0 -0.49999998660252726 forward_v I I I I #
coedge $-1 $323 $324 $325 $326 reversed $127 $-1 #
coedge $-1 $207 $129 $327 $328 reversed $81 $-1 #
coedge $-1 $129 $206 $323 $329 reversed $81 $-1 #
coedge $-1 $325 $330 $129 $209 forward $320 $-1 #
edge $-1 $331 24.566273537816244 $332 28.678973495320861 $208 $333 forward 7 unknown #
loop $-1 $-1 $215 $130 #
plane-surface $-1 -67.116306039613022 -2.6984303273282926 0.36550204236668549 -0.86602541151947299 0 0.49999998660252726 0.49999998660252726 0 0.86602541151947299 forward_v I I I I #
loop $-1 $-1 $334 $83 #
coedge $-1 $213 $213 $214 $335 reversed $131 $-1 #
coedge $-1 $214 $214 $213 $335 forward $133 $-1 #
coedge $-1 $215 $215 $134 $216 forward $210 $-1 #
edge $-1 $336 0 $336 6.2831853071796004 $215 $337 forward 7 unknown #
loop $-1 $-1 $222 $135 #
plane-surface $-1 -67.116306039613022 -2.6984303273282926 0.36550204236668549 -0.86602541151947299 0 0.49999998660252726 0.49999998660252726 0 0.86602541151947299 forward_v I I I I #
loop $-1 $-1 $338 $86 #
coedge $-1 $220 $220 $221 $339 reversed $136 $-1 #
coedge $-1 $221 $221 $220 $339 forward $138 $-1 #
coedge $-1 $222 $222 $139 $223 forward $217 $-1 #
edge $-1 $340 0 $340 6.2831853071796004 $222 $341 forward 7 unknown #
loop $-1 $-1 $229 $140 #
plane-surface $-1 -67.116306039613022 -2.6984303273282926 0.36550204236668549 -0.86602541151947299 0 0.49999998660252726 0.49999998660252726 0 0.86602541151947299 forward_v I I I I #
loop $-1 $-1 $342 $89 #
coedge $-1 $227 $227 $228 $343 reversed $141 $-1 #
coedge $-1 $228 $228 $227 $343 forward $143 $-1 #
coedge $-1 $229 $229 $144 $230 forward $224 $-1 #
edge $-1 $344 0 $344 6.2831853071796004 $229 $345 forward 7 unknown #
face $-1 $346 $347 $48 $-1 $348 reversed single #
loop $-1 $-1 $237 $145 #
plane-surface $-1 0 0 7.488907579546054 0 0 1 1 0 0 forward_v I I I I #
coedge $-1 $349 $350 $351 $352 reversed $146 $-1 #
coedge $-1 $236 $148 $353 $354 reversed $93 $-1 #
coedge $-1 $148 $235 $349 $355 reversed $93 $-1 #
coedge $-1 $351 $356 $148 $238 forward $232 $-1 #
edge $-1 $357 24.566273537816244 $358 28.678973495320861 $237 $359 forward 7 unknown #
loop $-1 $-1 $244 $149 #
plane-surface $-1 -67.116306039613022 23.47753100241659 0.36550204236668549 -0.86602541151947299 0 0.49999998660252726 0.49999998660252726 0 0.86602541151947299 forward_v I I I I #
loop $-1 $-1 $360 $95 #
coedge $-1 $242 $242 $243 $361 reversed $150 $-1 #
coedge $-1 $243 $243 $242 $361 forward $152 $-1 #
coedge $-1 $244 $244 $153 $245 forward $239 $-1 #
edge $-1 $362 0 $362 6.2831853071796004 $244 $363 forward 7 unknown #
loop $-1 $-1 $251 $154 #
plane-surface $-1 -67.116306039613022 23.47753100241659 0.36550204236668549 -0.86602541151947299 0 0.49999998660252726 0.49999998660252726 0 0.86602541151947299 forward_v I I I I #
loop $-1 $-1 $364 $98 #
coedge $-1 $249 $249 $250 $365 reversed $155 $-1 #
coedge $-1 $250 $250 $249 $365 forward $157 $-1 #
coedge $-1 $251 $251 $158 $252 forward $246 $-1 #
edge $-1 $366 0 $366 6.2831853071796004 $251 $367 forward 7 unknown #
loop $-1 $-1 $258 $159 #
plane-surface $-1 -67.116306039613022 23.47753100241659 0.36550204236668549 -0.86602541151947299 0 0.49999998660252726 0.49999998660252726 0 0.86602541151947299 forward_v I I I I #
loop $-1 $-1 $368 $101 #
coedge $-1 $256 $256 $257 $369 reversed $160 $-1 #
coedge $-1 $257 $257 $256 $369 forward $162 $-1 #
coedge $-1 $258 $258 $163 $259 forward $253 $-1 #
edge $-1 $370 0 $370 6.2831853071796004 $258 $371 forward 7 unknown #
face $-1 $372 $373 $39 $-1 $374 reversed single #
loop $-1 $-1 $375 $164 #
plane-surface $-1 -67.116306039613022 0 0 1 0 0 0 0 -1 forward_v I I I I #
coedge $-1 $376 $271 $377 $378 forward $165 $-1 #
coedge $-1 $379 $167 $376 $380 forward $105 $-1 #
coedge $-1 $167 $379 $381 $382 forward $105 $-1 #
coedge $-1 $274 $273 $167 $267 reversed $275 $-1 #
edge $-1 $383 -29.403402350817863 $384 29.403402350817863 $266 $385 forward 7 unknown #
coedge $-1 $169 $168 $386 $387 forward $66 $-1 #
coedge $-1 $388 $389 $168 $270 reversed $373 $-1 #
edge $-1 $277 -67.116306039613022 $390 67.116306039613022 $269 $391 forward 7 unknown #
coedge $-1 $263 $392 $169 $272 reversed $165 $-1 #
edge $-1 $393 -67.116306039613022 $276 67.116306039613022 $271 $394 forward 7 unknown #
coedge $-1 $266 $170 $392 $395 forward $275 $-1 #
coedge $-1 $170 $266 $388 $396 reversed $275 $-1 #
loop $-1 $-1 $273 $372 #
vertex $-1 $171 $397 #
vertex $-1 $171 $398 #
straight-curve $-1 67.116306039613022 0 7.488907579546054 0 1 0 I I #
face $-1 $399 $400 $40 $-1 $401 reversed single #
loop $-1 $-1 $285 $172 #
plane-surface $-1 67.116306039613022 0 0 -1 0 0 0 0 1 forward_v I I I I #
coedge $-1 $402 $403 $283 $404 forward $173 $-1 #
coedge $-1 $405 $175 $282 $404 reversed $109 $-1 #
coedge $-1 $175 $405 $176 $288 reversed $109 $-1 #
coedge $-1 $178 $406 $175 $286 forward $280 $-1 #
edge $-1 $407 -4.4944537897730275 $292 -1.494453789773027 $285 $408 forward 7 unknown #
coedge $-1 $177 $176 $409 $410 reversed $69 $-1 #
edge $-1 $292 -67.116306039613022 $411 67.116306039613022 $284 $412 forward 7 unknown #
coedge $-1 $413 $414 $177 $290 forward $400 $-1 #
edge $-1 $293 -67.116306039613022 $415 67.116306039613022 $289 $416 forward 7 unknown #
coedge $-1 $406 $178 $414 $417 forward $280 $-1 #
vertex $-1 $179 $418 #
vertex $-1 $417 $419 #
straight-curve $-1 67.116306039613022 -13.08798066487244 -4.488907579546054 0 -1 0 I I #
face $-1 $-1 $307 $41 $-1 $420 forward single #
loop $-1 $-1 $421 $180 #
plane-surface $-1 67.116306039613022 0 0 -1 0 0 0 0 1 forward_v I I I I #
coedge $-1 $422 $423 $424 $425 reversed $181 $-1 #
coedge $-1 $426 $183 $185 $305 forward $113 $-1 #
coedge $-1 $183 $426 $422 $427 forward $113 $-1 #
coedge $-1 $424 $186 $183 $302 forward $307 $-1 #
edge $-1 $309 5.9488166631971158 $428 13.316074651382225 $301 $429 forward 7 unknown #
coedge $-1 $430 $431 $184 $304 forward $296 $-1 #
edge $-1 $432 -93.73266706102126 $308 -88.496364459974188 $303 $433 forward 7 unknown #
edge $-1 $309 126.55473065688417 $432 134.23261207922604 $185 $434 forward 7 unknown #
coedge $-1 $186 $424 $430 $435 forward $307 $-1 #
loop $-1 $-1 $424 $295 #
vertex $-1 $304 $436 #
vertex $-1 $187 $437 #
straight-curve $-1 30.245605862889555 -15.581262320486786 7.4889075795460514 -1 0 0 I I #
coedge $-1 $311 $311 $-1 $438 reversed $190 $-1 #
edge $-1 $439 0 $439 6.2831853071796004 $191 $440 forward 7 unknown #
vertex $-1 $194 $441 #
ellipse-curve $-1 64.30868256922875 -20.843589454904723 4.8707562790225234 0.68199836817093118 0 0.7313536940579346 0.7313536940579346 0 -0.68199836817093118 1 I I #
coedge $-1 $315 $315 $-1 $442 reversed $197 $-1 #
edge $-1 $443 0 $443 6.2831853071796004 $198 $444 forward 7 unknown #
vertex $-1 $201 $445 #
ellipse-curve $-1 64.30868256922875 -17.686193174253962 4.8707562790225234 0.68199836817093118 0 0.7313536940579346 0.7313536940579346 0 -0.68199836817093118 1 I I #
face $-1 $-1 $446 $44 $-1 $447 reversed single #
loop $-1 $-1 $208 $202 #
plane-surface $-1 0 0 7.488907579546054 0 0 1 1 0 0 forward_v I I I I #
coedge $-1 $448 $449 $450 $451 reversed $203 $-1 #
coedge $-1 $452 $205 $207 $329 forward $127 $-1 #
coedge $-1 $205 $452 $448 $453 forward $127 $-1 #
coedge $-1 $450 $208 $205 $326 forward $320 $-1 #
edge $-1 $332 -7.2750865120654229 $454 4.5766561847371303 $325 $455 forward 7 unknown #
coedge $-1 $456 $457 $206 $328 forward $446 $-1 #
edge $-1 $458 -33.375401099434285 $331 -26.251995562254915 $327 $459 forward 7 unknown #
edge $-1 $332 -8.2254001354083783 $458 0 $207 $460 forward 7 unknown #
coedge $-1 $208 $450 $456 $461 forward $320 $-1 #
vertex $-1 $328 $462 #
vertex $-1 $209 $463 #
straight-curve $-1 -91.682579577429266 -8.6243016757295692 7.4889075795460549 1 0 0 I I #
coedge $-1 $334 $334 $-1 $464 reversed $212 $-1 #
edge $-1 $465 0 $465 6.2831853071796004 $213 $466 forward 7 unknown #
vertex $-1 $216 $467 #
ellipse-curve $-1 -65.059956060860713 -6.2539531363690593 3.9272048109563693 -0.86602541151947299 0 0.49999998660252726 0.49999998660252726 0 0.86602541151947299 1 I I #
coedge $-1 $338 $338 $-1 $468 reversed $219 $-1 #
edge $-1 $469 0 $469 6.2831853071796004 $220 $470 forward 7 unknown #
vertex $-1 $223 $471 #
ellipse-curve $-1 -65.059956060860713 -2.6984303273282926 3.9272048109563693 -0.86602541151947299 0 0.49999998660252726 0.49999998660252726 0 0.86602541151947299 1 I I #
coedge $-1 $342 $342 $-1 $472 reversed $226 $-1 #
edge $-1 $473 0 $473 6.2831853071796004 $227 $474 forward 7 unknown #
vertex $-1 $230 $475 #
ellipse-curve $-1 -65.059956060860713 0.8570924817124741 3.9272048109563693 -0.86602541151947299 0 0.49999998660252726 0.49999998660252726 0 0.86602541151947299 1 I I #
face $-1 $-1 $476 $48 $-1 $477 reversed single #
loop $-1 $-1 $478 $231 #
plane-surface $-1 0 29.403402350817863 0 0 -1 0 0 0 -1 forward_v I I I I #
coedge $-1 $479 $234 $236 $355 forward $146 $-1 #
coedge $-1 $234 $479 $478 $480 reversed $146 $-1 #
coedge $-1 $481 $237 $234 $352 forward $232 $-1 #
edge $-1 $358 5.8128941528070186 $482 17.664636849609572 $351 $483 forward 7 unknown #
coedge $-1 $484 $485 $235 $354 forward $476 $-1 #
edge $-1 $486 -33.375401099434285 $357 -26.251995562254915 $353 $487 forward 7 unknown #
edge $-1 $358 -8.2254001354083783 $486 0 $236 $488 forward 7 unknown #
coedge $-1 $237 $481 $484 $489 forward $232 $-1 #
vertex $-1 $354 $490 #
vertex $-1 $238 $491 #
straight-curve $-1 -91.682579577429266 17.551659654015314 7.4889075795460549 1 0 0 I I #
coedge $-1 $360 $360 $-1 $492 reversed $241 $-1 #
edge $-1 $493 0 $493 6.2831853071796004 $242 $494 forward 7 unknown #
vertex $-1 $245 $495 #
ellipse-curve $-1 -65.059956060860713 19.922008193375824 3.9272048109563693 -0.86602541151947299 0 0.49999998660252726 0.49999998660252726 0 0.86602541151947299 1 I I #
coedge $-1 $364 $364 $-1 $496 reversed $248 $-1 #
edge $-1 $497 0 $497 6.2831853071796004 $249 $498 forward 7 unknown #
vertex $-1 $252 $499 #
ellipse-curve $-1 -65.059956060860713 23.47753100241659 3.9272048109563693 -0.86602541151947299 0 0.49999998660252726 0.49999998660252726 0 0.86602541151947299 1 I I #
coedge $-1 $368 $368 $-1 $500 reversed $255 $-1 #
edge $-1 $501 0 $501 6.2831853071796004 $256 $502 forward 7 unknown #
vertex $-1 $259 $503 #
ellipse-curve $-1 -65.059956060860713 27.033053811457357 3.9272048109563693 -0.86602541151947299 0 0.49999998660252726 0.49999998660252726 0 0.86602541151947299 1 I I #
face $-1 $-1 $275 $39 $-1 $504 reversed single #
loop $-1 $-1 $388 $260 #
plane-surface $-1 0 29.403402350817863 0 0 -1 0 0 0 -1 forward_v I I I I #
coedge $-1 $505 $386 $389 $506 forward $261 $-1 #
coedge $-1 $392 $263 $264 $380 reversed $165 $-1 #
coedge $-1 $386 $505 $263 $378 reversed $261 $-1 #
edge $-1 $393 -7.488907579546054 $507 7.488907579546054 $377 $508 forward 7 unknown #
coedge $-1 $265 $264 $505 $509 forward $105 $-1 #
edge $-1 $384 -67.116306039613022 $507 67.116306039613022 $376 $510 forward 7 unknown #
coedge $-1 $389 $388 $265 $382 reversed $373 $-1 #
edge $-1 $511 -67.116306039613022 $383 67.116306039613022 $381 $512 forward 7 unknown #
vertex $-1 $267 $513 #
vertex $-1 $395 $514 #
straight-curve $-1 67.116306039613022 0 -7.488907579546054 0 -1 0 I I #
coedge $-1 $375 $377 $268 $387 reversed $261 $-1 #
edge $-1 $390 -29.403402350817863 $393 29.403402350817863 $386 $515 forward 7 unknown #
coedge $-1 $381 $269 $274 $396 forward $373 $-1 #
coedge $-1 $269 $381 $375 $506 reversed $373 $-1 #
vertex $-1 $270 $516 #
straight-curve $-1 0 29.403402350817863 7.488907579546054 -1 0 0 I I #
coedge $-1 $271 $376 $273 $395 reversed $165 $-1 #
vertex $-1 $387 $517 #
straight-curve $-1 0 -29.403402350817863 7.488907579546054 1 0 0 I I #
edge $-1 $276 -7.488907579546054 $384 7.488907579546054 $273 $518 forward 7 unknown #
edge $-1 $277 -7.488907579546054 $383 7.488907579546054 $274 $519 forward 7 unknown #
point $-1 67.116306039613022 -29.403402350817863 7.488907579546054 #
point $-1 67.116306039613022 29.403402350817863 7.488907579546054 #
face $-1 $-1 $520 $40 $-1 $521 reversed single #
loop $-1 $-1 $289 $279 #
plane-surface $-1 0 -29.403402350817863 0 0 1 0 0 0 1 forward_v I I I I #
coedge $-1 $522 $282 $406 $523 forward $173 $-1 #
coedge $-1 $282 $522 $524 $525 forward $173 $-1 #
edge $-1 $526 -67.116306039613022 $407 67.116306039613022 $282 $527 forward 7 unknown #
coedge $-1 $284 $283 $528 $529 reversed $109 $-1 #
coedge $-1 $285 $291 $402 $523 reversed $280 $-1 #
vertex $-1 $523 $530 #
straight-curve $-1 67.116306039613022 -22.948520308671895 -2.994453789773027 0 0 1 I I #
coedge $-1 $528 $531 $287 $410 forward $520 $-1 #
edge $-1 $415 -16.315421685945424 $411 -9.8605396437994557 $409 $532 forward 7 unknown #
vertex $-1 $410 $533 #
straight-curve $-1 0 -22.948520308671895 -4.488907579546054 -1 0 0 I I #
coedge $-1 $534 $289 $531 $535 forward $400 $-1 #
coedge $-1 $289 $534 $291 $417 reversed $400 $-1 #
vertex $-1 $535 $536 #
straight-curve $-1 0 -29.403402350817863 -4.488907579546054 -1 0 0 I I #
edge $-1 $293 4.488907579546054 $537 7.488907579546054 $291 $538 forward 7 unknown #
point $-1 67.116306039613022 -22.948520308671895 -4.488907579546054 #
point $-1 67.116306039613022 -29.403402350817863 -4.488907579546054 #
plane-surface $-1 0 0 7.488907579546054 0 0 1 1 0 0 forward_v I I I I #
coedge $-1 $431 $430 $423 $539 forward $296 $-1 #
coedge $-1 $423 $298 $300 $427 reversed $181 $-1 #
coedge $-1 $298 $422 $421 $539 reversed $181 $-1 #
coedge $-1 $306 $301 $298 $425 forward $307 $-1 #
edge $-1 $428 31.255453235954953 $540 36.870700176723467 $424 $541 forward 7 unknown #
coedge $-1 $300 $299 $431 $542 reversed $113 $-1 #
edge $-1 $543 -134.23261207922604 $428 -126.55473065688417 $422 $544 forward 7 unknown #
vertex $-1 $302 $545 #
straight-curve $-1 61.501059098844493 -9.6324456572896704 7.4889075795460514 0 -1 0 I I #
coedge $-1 $421 $303 $306 $435 reversed $296 $-1 #
coedge $-1 $303 $421 $426 $542 forward $296 $-1 #
vertex $-1 $304 $546 #
straight-curve $-1 67.116306039613022 -15.581262320486786 95.98527203952024 0 0 1 I I #
straight-curve $-1 -31.055210667574684 -15.581262320486786 93.799027371852773 0.7313536940579346 0 -0.68199836817093118 I I #
edge $-1 $540 -22.948520308671895 $308 -15.581262320486786 $430 $547 forward 7 unknown #
point $-1 67.116306039613022 -15.581262320486786 7.488907579546054 #
point $-1 61.501059098844507 -15.581262320486786 7.4889075795460514 #
edge $-1 $548 1 $548 0 $311 $-1 forward 7 unknown #
vertex $-1 $312 $549 #
ellipse-curve $-1 63.441360141174592 -20.843589454904723 3.9406668663485505 0.68199836817093118 0 0.7313536940579346 0.7313536940579346 0 -0.68199836817093118 1 I I #
point $-1 65.040036263286694 -20.843589454904723 4.1887579108515958 #
edge $-1 $550 1 $550 0 $315 $-1 forward 7 unknown #
vertex $-1 $316 $551 #
ellipse-curve $-1 63.441360141174592 -17.686193174253962 3.9406668663485505 0.68199836817093118 0 0.7313536940579346 0.7313536940579346 0 -0.68199836817093118 1 I I #
point $-1 65.040036263286694 -17.686193174253962 4.1887579108515958 #
loop $-1 $-1 $327 $319 #
plane-surface $-1 -67.116306039613022 0 0 1 0 0 0 0 -1 forward_v I I I I #
coedge $-1 $449 $322 $324 $453 reversed $203 $-1 #
coedge $-1 $322 $448 $552 $553 reversed $203 $-1 #
coedge $-1 $330 $325 $322 $451 forward $320 $-1 #
edge $-1 $454 -28.678973495320861 $554 -24.566273537816244 $450 $555 forward 7 unknown #
coedge $-1 $324 $323 $457 $556 reversed $127 $-1 #
edge $-1 $557 0 $454 8.2254001354083783 $448 $558 forward 7 unknown #
vertex $-1 $326 $559 #
straight-curve $-1 -63.003606082108405 -1.3492151636641463 7.4889075795460549 0 1 0 I I #
coedge $-1 $552 $327 $330 $461 reversed $446 $-1 #
coedge $-1 $327 $552 $452 $556 forward $446 $-1 #
vertex $-1 $328 $560 #
straight-curve $-1 -67.116306039613022 -8.6243016757295692 33.74090314180097 0 0 1 I I #
straight-curve $-1 -67.116306039613022 -8.6243016757295692 0.36550204236668549 -0.49999998660252726 0 -0.86602541151947299 I I #
edge $-1 $554 -3.227441021072984 $331 8.6243016757295692 $456 $561 forward 7 unknown #
point $-1 -67.116306039613022 -8.6243016757295692 7.488907579546054 #
point $-1 -63.003606082108405 -8.6243016757295692 7.488907579546054 #
edge $-1 $562 1 $562 0 $334 $-1 forward 7 unknown #
vertex $-1 $335 $563 #
ellipse-curve $-1 -62.3636931017381 -6.2539531363690593 2.3705167213160743 -0.86602541151947299 0 0.49999998660252726 0.49999998660252726 0 0.86602541151947299 1 I I #
point $-1 -64.559956074258182 -6.2539531363690593 4.7932302224758381 #
edge $-1 $564 1 $564 0 $338 $-1 forward 7 unknown #
vertex $-1 $339 $565 #
ellipse-curve $-1 -62.3636931017381 -2.6984303273282926 2.3705167213160743 -0.86602541151947299 0 0.49999998660252726 0.49999998660252726 0 0.86602541151947299 1 I I #
point $-1 -64.559956074258182 -2.6984303273282926 4.7932302224758381 #
edge $-1 $566 1 $566 0 $342 $-1 forward 7 unknown #
vertex $-1 $343 $567 #
ellipse-curve $-1 -62.3636931017381 0.8570924817124741 2.3705167213160743 -0.86602541151947299 0 0.49999998660252726 0.49999998660252726 0 0.86602541151947299 1 I I #
point $-1 -64.559956074258182 0.8570924817124741 4.7932302224758381 #
loop $-1 $-1 $353 $346 #
plane-surface $-1 -67.116306039613022 0 0 1 0 0 0 0 -1 forward_v I I I I #
coedge $-1 $568 $569 $350 $480 forward $347 $-1 #
coedge $-1 $350 $349 $485 $570 reversed $146 $-1 #
edge $-1 $482 8.3954088965745282 $571 16.620809031982905 $478 $572 forward 7 unknown #
coedge $-1 $356 $351 $569 $573 forward $232 $-1 #
vertex $-1 $573 $574 #
straight-curve $-1 -63.003606082108405 11.738765501208295 7.4889075795460549 0 1 0 I I #
coedge $-1 $575 $353 $356 $489 reversed $476 $-1 #
coedge $-1 $353 $575 $479 $570 forward $476 $-1 #
vertex $-1 $354 $576 #
straight-curve $-1 -67.116306039613022 17.551659654015314 33.74090314180097 0 0 1 I I #
straight-curve $-1 -67.116306039613022 17.551659654015314 0.36550204236668549 -0.49999998660252726 0 -0.86602541151947299 I I #
edge $-1 $577 -29.403402350817863 $357 -17.551659654015314 $484 $578 forward 7 unknown #
point $-1 -67.116306039613022 17.551659654015314 7.488907579546054 #
point $-1 -63.003606082108405 17.551659654015314 7.488907579546054 #
edge $-1 $579 1 $579 0 $360 $-1 forward 7 unknown #
vertex $-1 $361 $580 #
ellipse-curve $-1 -62.3636931017381 19.922008193375824 2.3705167213160743 -0.86602541151947299 0 0.49999998660252726 0.49999998660252726 0 0.86602541151947299 1 I I #
point $-1 -64.559956074258182 19.922008193375824 4.7932302224758381 #
edge $-1 $581 1 $581 0 $364 $-1 forward 7 unknown #
vertex $-1 $365 $582 #
ellipse-curve $-1 -62.3636931017381 23.47753100241659 2.3705167213160743 -0.86602541151947299 0 0.49999998660252726 0.49999998660252726 0 0.86602541151947299 1 I I #
point $-1 -64.559956074258182 23.47753100241659 4.7932302224758381 #
edge $-1 $583 1 $583 0 $368 $-1 forward 7 unknown #
vertex $-1 $369 $584 #
ellipse-curve $-1 -62.3636931017381 27.033053811457357 2.3705167213160743 -0.86602541151947299 0 0.49999998660252726 0.49999998660252726 0 0.86602541151947299 1 I I #
point $-1 -64.559956074258182 27.033053811457357 4.7932302224758381 #
plane-surface $-1 67.116306039613022 0 0 -1 0 0 0 0 1 forward_v I I I I #
coedge $-1 $377 $375 $379 $509 reversed $261 $-1 #
edge $-1 $390 -7.488907579546054 $511 7.488907579546054 $389 $585 forward 7 unknown #
vertex $-1 $509 $586 #
straight-curve $-1 -67.116306039613022 -29.403402350817863 0 0 0 -1 I I #
edge $-1 $507 -29.403402350817863 $511 29.403402350817863 $505 $587 forward 7 unknown #
straight-curve $-1 0 -29.403402350817863 -7.488907579546054 -1 0 0 I I #
vertex $-1 $382 $588 #
straight-curve $-1 0 29.403402350817863 -7.488907579546054 1 0 0 I I #
point $-1 67.116306039613022 29.403402350817863 -7.488907579546054 #
point $-1 67.116306039613022 -29.403402350817863 -7.488907579546054 #
straight-curve $-1 -67.116306039613022 0 7.488907579546054 0 -1 0 I I #
point $-1 -67.116306039613022 29.403402350817863 7.488907579546054 #
point $-1 -67.116306039613022 -29.403402350817863 7.488907579546054 #
straight-curve $-1 67.116306039613022 -29.403402350817863 0 0 0 -1 I I #
straight-curve $-1 67.116306039613022 29.403402350817863 0 0 0 -1 I I #
loop $-1 $-1 $528 $399 #
plane-surface $-1 -67.116306039613022 0 0 1 0 0 0 0 -1 forward_v I I I I #
coedge $-1 $403 $402 $534 $589 forward $173 $-1 #
edge $-1 $407 22.948520308671895 $537 29.403402350817863 $406 $590 forward 7 unknown #
coedge $-1 $531 $528 $403 $525 reversed $520 $-1 #
edge $-1 $591 -29.403402350817863 $526 -22.948520308671895 $524 $592 forward 7 unknown #
vertex $-1 $529 $593 #
straight-curve $-1 0 -22.948520308671895 -7.488907579546054 1 0 0 I I #
coedge $-1 $524 $409 $405 $529 forward $520 $-1 #
edge $-1 $411 1.494453789773027 $526 4.4944537897730275 $528 $594 forward 7 unknown #
point $-1 67.116306039613022 -22.948520308671895 -7.488907579546054 #
coedge $-1 $409 $524 $413 $535 reversed $520 $-1 #
straight-curve $-1 -67.116306039613022 -13.08798066487244 -4.488907579546054 0 1 0 I I #
point $-1 -67.116306039613022 -22.948520308671895 -4.488907579546054 #
coedge $-1 $414 $413 $522 $589 reversed $400 $-1 #
edge $-1 $415 4.488907579546054 $591 7.488907579546054 $531 $595 forward 7 unknown #
point $-1 -67.116306039613022 -29.403402350817863 -4.488907579546054 #
vertex $-1 $417 $596 #
straight-curve $-1 67.116306039613022 -29.403402350817863 0 0 0 -1 I I #
edge $-1 $540 88.496364459974188 $543 93.73266706102126 $421 $597 forward 7 unknown #
vertex $-1 $435 $598 #
straight-curve $-1 30.245605862889555 -22.948520308671895 7.4889075795460514 1 0 0 I I #
edge $-1 $543 -13.316074651382225 $432 -5.9488166631971158 $431 $599 forward 7 unknown #
vertex $-1 $542 $600 #
straight-curve $-1 -31.055210667574684 -22.948520308671895 93.799027371852773 -0.7313536940579346 0 0.68199836817093118 I I #
point $-1 61.501059098844507 -22.948520308671895 7.4889075795460514 #
point $-1 67.116306039613022 -15.581262320486786 2.2526049784989794 #
straight-curve $-1 67.116306039613022 0 7.488907579546054 0 1 0 I I #
vertex $-1 $438 $601 #
point $-1 64.172713835232528 -20.843589454904723 3.2586684981776193 #
vertex $-1 $442 $602 #
point $-1 64.172713835232528 -17.686193174253962 3.2586684981776193 #
coedge $-1 $457 $456 $449 $553 forward $446 $-1 #
edge $-1 $554 26.251995562254915 $557 33.375401099434285 $552 $603 forward 7 unknown #
vertex $-1 $461 $604 #
straight-curve $-1 -91.682579577429266 3.227441021072984 7.4889075795460549 -1 0 0 I I #
edge $-1 $557 -4.5766561847371303 $458 7.2750865120654229 $457 $605 forward 7 unknown #
vertex $-1 $556 $606 #
straight-curve $-1 -67.116306039613022 3.227441021072984 0.36550204236668549 0.49999998660252726 0 0.86602541151947299 I I #
point $-1 -63.003606082108405 3.227441021072984 7.488907579546054 #
point $-1 -67.116306039613022 -8.6243016757295692 0.36550204236668549 #
straight-curve $-1 -67.116306039613022 0 7.488907579546054 0 -1 0 I I #
vertex $-1 $464 $607 #
point $-1 -61.863693115135575 -6.2539531363690593 3.236542132835547 #
vertex $-1 $468 $608 #
point $-1 -61.863693115135575 -2.6984303273282926 3.236542132835547 #
vertex $-1 $472 $609 #
point $-1 -61.863693115135575 0.8570924817124741 3.236542132835547 #
coedge $-1 $569 $478 $575 $610 reversed $347 $-1 #
coedge $-1 $478 $568 $481 $573 reversed $347 $-1 #
edge $-1 $571 -17.664636849609572 $486 -5.8128941528070186 $485 $611 forward 7 unknown #
vertex $-1 $480 $612 #
straight-curve $-1 -58.805901746298403 29.403402350817863 14.759545024076255 -0.49999998660252726 0 -0.86602541151947299 I I #
edge $-1 $482 63.003606082108405 $577 67.116306039613022 $569 $613 forward 7 unknown #
point $-1 -63.003606082108405 29.403402350817867 7.488907579546054 #
coedge $-1 $485 $484 $568 $610 forward $476 $-1 #
point $-1 -67.116306039613022 17.551659654015314 0.36550204236668549 #
vertex $-1 $573 $614 #
straight-curve $-1 -67.116306039613022 0 7.488907579546054 0 -1 0 I I #
vertex $-1 $492 $615 #
point $-1 -61.863693115135575 19.922008193375824 3.236542132835547 #
vertex $-1 $496 $616 #
point $-1 -61.863693115135575 23.47753100241659 3.236542132835547 #
vertex $-1 $500 $617 #
point $-1 -61.863693115135575 27.033053811457357 3.236542132835547 #
straight-curve $-1 -67.116306039613022 29.403402350817863 0 0 0 -1 I I #
point $-1 -67.116306039613022 -29.403402350817863 -7.488907579546054 #
straight-curve $-1 -67.116306039613022 0 -7.488907579546054 0 1 0 I I #
point $-1 -67.116306039613022 29.403402350817863 -7.488907579546054 #
edge $-1 $537 -67.116306039613022 $591 67.116306039613022 $534 $618 forward 7 unknown #
straight-curve $-1 67.116306039613022 0 -7.488907579546054 0 -1 0 I I #
vertex $-1 $525 $619 #
straight-curve $-1 -67.116306039613022 0 -7.488907579546054 0 1 0 I I #
point $-1 -67.116306039613022 -22.948520308671895 -7.488907579546054 #
straight-curve $-1 -67.116306039613022 -22.948520308671895 -2.994453789773027 0 0 -1 I I #
straight-curve $-1 -67.116306039613022 -29.403402350817863 0 0 0 -1 I I #
point $-1 67.116306039613022 -29.403402350817863 -7.488907579546054 #
straight-curve $-1 67.116306039613022 -22.948520308671895 95.98527203952024 0 0 -1 I I #
point $-1 67.116306039613022 -22.948520308671895 7.488907579546054 #
straight-curve $-1 67.116306039613022 -9.6324456572896704 2.2526049784989794 0 1 0 I I #
point $-1 67.116306039613022 -22.948520308671895 2.2526049784989794 #
point $-1 62.759361773003654 -20.843589454904723 3.2093131722906154 #
point $-1 62.759361773003654 -17.686193174253962 3.2093131722906154 #
straight-curve $-1 -67.116306039613022 3.227441021072984 33.74090314180097 0 0 -1 I I #
point $-1 -67.116306039613022 3.227441021072984 7.488907579546054 #
straight-curve $-1 -67.116306039613022 -1.3492151636641463 0.36550204236668249 0 -1 0 I I #
point $-1 -67.116306039613022 3.227441021072984 0.36550204236668549 #
point $-1 -61.497667690218627 -6.2539531363690593 1.870516734713547 #
point $-1 -61.497667690218627 -2.6984303273282926 1.870516734713547 #
point $-1 -61.497667690218627 0.8570924817124741 1.870516734713547 #
edge $-1 $577 -7.488907579546054 $571 -0.36550204236668549 $568 $620 forward 7 unknown #
straight-curve $-1 -67.116306039613022 11.738765501208295 0.36550204236668249 0 -1 0 I I #
point $-1 -67.116306039613022 29.403402350817867 0.36550204236668549 #
straight-curve $-1 0 29.403402350817863 7.488907579546054 -1 0 0 I I #
point $-1 -67.116306039613022 29.403402350817863 7.488907579546054 #
point $-1 -61.497667690218627 19.922008193375824 1.870516734713547 #
point $-1 -61.497667690218627 23.47753100241659 1.870516734713547 #
point $-1 -61.497667690218627 27.033053811457357 1.870516734713547 #
straight-curve $-1 0 -29.403402350817863 -7.488907579546054 -1 0 0 I I #
point $-1 -67.116306039613022 -29.403402350817863 -7.488907579546054 #
straight-curve $-1 -67.116306039613022 29.403402350817863 0 0 0 -1 I I #
End-of-ACIS-data 