500 0 7 0           
7 Unknown 11 ACIS 5.0 NT 24 Thu Mar 25 22:53:51 1999 
-1 9.9999999999999995e-007 1e-010 
body $-1 $7 $-1 $8 #
body $-1 $9 $-1 $10 #
body $-1 $11 $-1 $12 #
body $-1 $13 $-1 $14 #
body $-1 $15 $-1 $16 #
body $-1 $17 $-1 $18 #
body $-1 $19 $-1 $20 #
lump $-1 $-1 $21 $0 #
transform $-1 1 0 0 0 1 0 0 0 1 67.996459852900784 45.831361217663989 10.534205568856306 1 rotate no_reflect no_shear #
lump $-1 $-1 $22 $1 #
transform $-1 1 0 0 0 1 0 0 0 1 67.996459852900784 45.831361217663989 10.534205568856306 1 rotate no_reflect no_shear #
lump $-1 $-1 $23 $2 #
transform $-1 1 0 0 0 1 0 0 0 1 67.996459852900784 45.831361217663989 10.534205568856306 1 rotate no_reflect no_shear #
lump $-1 $-1 $24 $3 #
transform $-1 1 0 0 0 1 0 0 0 1 67.996459852900784 45.831361217663989 10.534205568856306 1 rotate no_reflect no_shear #
lump $-1 $-1 $25 $4 #
transform $-1 1 0 0 0 1 0 0 0 1 67.996459852900784 45.831361217663989 10.534205568856306 1 rotate no_reflect no_shear #
lump $-1 $-1 $26 $5 #
transform $-1 1 0 0 0 1 0 0 0 1 67.996459852900784 45.831361217663989 10.534205568856306 1 rotate no_reflect no_shear #
lump $-1 $-1 $27 $6 #
transform $-1 1 0 0 0 1 0 0 0 1 67.996459852900784 45.831361217663989 10.534205568856306 1 rotate no_reflect no_shear #
shell $-1 $-1 $-1 $28 $-1 $7 #
shell $-1 $-1 $-1 $29 $-1 $9 #
shell $-1 $-1 $-1 $30 $-1 $11 #
shell $-1 $-1 $-1 $31 $-1 $13 #
shell $-1 $-1 $-1 $32 $-1 $15 #
shell $-1 $-1 $-1 $33 $-1 $17 #
shell $-1 $-1 $-1 $34 $-1 $19 #
face $-1 $35 $36 $21 $-1 $37 forward single #
face $-1 $38 $39 $22 $-1 $40 forward single #
face $-1 $41 $42 $23 $-1 $43 forward single #
face $-1 $44 $45 $24 $-1 $46 reversed single #
face $-1 $47 $48 $25 $-1 $49 forward single #
face $-1 $50 $51 $26 $-1 $52 reversed single #
face $-1 $53 $54 $27 $-1 $55 forward single #
face $-1 $56 $57 $21 $-1 $58 reversed single #
loop $-1 $-1 $59 $28 #
plane-surface $-1 0 0 10.534205568856306 0 0 1 1 0 0 forward_v I I I I #
face $-1 $60 $61 $22 $-1 $62 reversed single #
loop $-1 $-1 $63 $29 #
plane-surface $-1 -67.996459852900784 0 0 1 0 0 0 0 -1 forward_v I I I I #
face $-1 $64 $65 $23 $-1 $66 reversed single #
loop $-1 $-1 $67 $30 #
plane-surface $-1 67.996459852900784 0 0 -1 0 0 0 0 1 forward_v I I I I #
face $-1 $68 $69 $24 $-1 $70 reversed single #
loop $-1 $-1 $71 $31 #
plane-surface $-1 -20.349543632009826 71.540439879336901 167.95353140075383 1 0 0 0 -0.68199836817093118 -0.7313536940579346 forward_v I I I I #
face $-1 $72 $73 $25 $-1 $74 forward single #
loop $-1 $75 $76 $32 #
cone-surface $-1 -2.7476818704340928 42.087981123162386 6.8613710557732865 0 -0.68199836817093118 -0.7313536940579346 1.5 0 0 1 I I 0 1 1.5 forward I I I I #
face $-1 $77 $78 $26 $-1 $79 reversed single #
loop $-1 $-1 $80 $33 #
plane-surface $-1 14.854179891141641 -138.57831053982113 105.43970427775514 -1 0 0 0 -0.68199836817093118 0.7313536940579346 forward_v I I I I #
face $-1 $81 $82 $27 $-1 $83 forward single #
loop $-1 $84 $85 $34 #
cone-surface $-1 -2.7476818704340928 -42.087981123162379 6.8613710557732972 0 0.68199836817093118 -0.7313536940579346 1.5 0 0 1 I I 0 1 1.5 forward I I I I #
face $-1 $86 $87 $21 $-1 $88 reversed single #
loop $-1 $-1 $89 $35 #
plane-surface $-1 0 0 -10.534205568856306 0 0 1 1 0 0 forward_v I I I I #
coedge $-1 $90 $91 $92 $93 forward $36 $-1 #
face $-1 $94 $95 $22 $-1 $96 forward single #
loop $-1 $-1 $97 $38 #
plane-surface $-1 0 45.831361217663989 0 0 -1 0 0 0 -1 forward_v I I I I #
coedge $-1 $98 $99 $100 $101 forward $39 $-1 #
face $-1 $102 $103 $23 $-1 $104 forward single #
loop $-1 $-1 $105 $41 #
plane-surface $-1 0 -45.831361217663989 0 0 1 0 0 0 1 forward_v I I I I #
coedge $-1 $106 $107 $108 $109 forward $42 $-1 #
face $-1 $110 $111 $24 $-1 $112 reversed single #
loop $-1 $-1 $113 $44 #
plane-surface $-1 -2.7476818704340928 -21.206509442820234 68.494607208191766 0 0.68199836817093118 0.7313536940579346 1 0 0 forward_v I I I I #
coedge $-1 $114 $115 $116 $117 reversed $45 $-1 #
face $-1 $-1 $118 $25 $-1 $119 forward single #
loop $-1 $120 $121 $47 #
cone-surface $-1 -2.7476818704340928 40.274577704318411 4.9167340139784432 0 -0.68199836817093118 -0.7313536940579346 0.75 0 0 1 I I -0.70710678118654757 0.70710678118654757 0.75 forward I I I I #
loop $-1 $-1 $122 $32 #
coedge $-1 $76 $76 $123 $124 reversed $48 $-1 #
face $-1 $125 $126 $26 $-1 $127 reversed single #
loop $-1 $-1 $128 $50 #
plane-surface $-1 -2.7476818704340928 -45.831361217663996 5.980780085193075 0 -0.68199836817093118 0.7313536940579346 1 0 0 forward_v I I I I #
coedge $-1 $129 $130 $131 $132 reversed $51 $-1 #
face $-1 $-1 $133 $27 $-1 $134 forward single #
loop $-1 $135 $136 $53 #
cone-surface $-1 -2.7476818704340928 -40.274577704318403 4.9167340139784539 0 0.68199836817093118 -0.7313536940579346 0.75 0 0 1 I I -0.70710678118654757 0.70710678118654757 0.75 forward I I I I #
loop $-1 $-1 $137 $34 #
coedge $-1 $85 $85 $138 $139 reversed $54 $-1 #
face $-1 $140 $141 $21 $-1 $142 reversed single #
loop $-1 $-1 $143 $56 #
plane-surface $-1 0 -45.831361217663989 0 0 1 0 0 0 1 forward_v I I I I #
coedge $-1 $144 $145 $146 $147 forward $57 $-1 #
coedge $-1 $148 $59 $149 $150 forward $36 $-1 #
coedge $-1 $59 $148 $151 $152 forward $36 $-1 #
coedge $-1 $153 $154 $59 $93 reversed $155 $-1 #
edge $-1 $156 -45.831361217663989 $157 45.831361217663989 $92 $158 forward 7 unknown #
face $-1 $159 $160 $22 $-1 $161 reversed single #
loop $-1 $-1 $100 $60 #
plane-surface $-1 -71.75951199694876 0 0.97363184772587097 0 0 1 1 0 0 forward_v I I I I #
coedge $-1 $162 $163 $99 $164 forward $61 $-1 #
coedge $-1 $165 $63 $166 $167 reversed $39 $-1 #
coedge $-1 $63 $165 $97 $164 reversed $39 $-1 #
coedge $-1 $168 $169 $63 $101 reversed $95 $-1 #
edge $-1 $170 -45.831361217663989 $171 45.831361217663989 $100 $172 forward 7 unknown #
face $-1 $173 $174 $23 $-1 $175 reversed single #
loop $-1 $-1 $176 $64 #
plane-surface $-1 71.75951199694876 0 0.97363184772587097 0 0 1 1 0 0 forward_v I I I I #
coedge $-1 $177 $178 $107 $179 forward $65 $-1 #
coedge $-1 $180 $67 $181 $182 reversed $42 $-1 #
coedge $-1 $67 $180 $105 $179 reversed $42 $-1 #
coedge $-1 $183 $184 $67 $109 reversed $103 $-1 #
edge $-1 $185 -45.831361217663989 $186 45.831361217663989 $108 $187 forward 7 unknown #
face $-1 $188 $189 $24 $-1 $190 reversed single #
loop $-1 $-1 $191 $68 #
plane-surface $-1 14.854179891141641 71.540439879336901 167.95353140075383 -1 0 0 0 0.68199836817093118 0.7313536940579346 forward_v I I I I #
coedge $-1 $192 $193 $194 $195 reversed $69 $-1 #
coedge $-1 $115 $71 $196 $197 reversed $45 $-1 #
coedge $-1 $71 $114 $192 $198 reversed $45 $-1 #
coedge $-1 $194 $199 $71 $117 forward $200 $-1 #
edge $-1 $201 -10.061141277995539 $202 -5.178190374423906 $116 $203 forward 7 unknown #
loop $-1 $-1 $123 $72 #
plane-surface $-1 -2.7476818704340928 -21.206509442820234 68.494607208191766 0 0.68199836817093118 0.7313536940579346 1 0 0 forward_v I I I I #
loop $-1 $-1 $204 $47 #
coedge $-1 $121 $121 $122 $205 reversed $73 $-1 #
coedge $-1 $122 $122 $121 $205 forward $75 $-1 #
coedge $-1 $123 $123 $76 $124 forward $118 $-1 #
edge $-1 $206 1.1477090439458896e-015 $206 6.2831853071796013 $123 $207 forward 7 unknown #
face $-1 $208 $209 $26 $-1 $210 forward single #
loop $-1 $-1 $211 $77 #
plane-surface $-1 -20.349543632009826 -138.57831053982113 105.43970427775514 1 0 0 0 0.68199836817093118 -0.7313536940579346 forward_v I I I I #
coedge $-1 $212 $213 $214 $215 reversed $78 $-1 #
coedge $-1 $130 $80 $216 $217 reversed $51 $-1 #
coedge $-1 $80 $129 $212 $218 reversed $51 $-1 #
coedge $-1 $214 $219 $80 $132 forward $209 $-1 #
edge $-1 $220 23.457794052246577 $221 28.340744955818224 $131 $222 forward 7 unknown #
loop $-1 $-1 $138 $81 #
plane-surface $-1 -2.7476818704340928 -45.831361217663996 5.980780085193075 0 -0.68199836817093118 0.7313536940579346 1 0 0 forward_v I I I I #
loop $-1 $-1 $223 $53 #
coedge $-1 $136 $136 $137 $224 reversed $82 $-1 #
coedge $-1 $137 $137 $136 $224 forward $84 $-1 #
coedge $-1 $138 $138 $85 $139 forward $133 $-1 #
edge $-1 $225 -5.7385452197294479e-016 $225 6.2831853071795996 $138 $226 forward 7 unknown #
face $-1 $227 $228 $21 $-1 $229 reversed single #
loop $-1 $-1 $230 $86 #
plane-surface $-1 -67.996459852900784 0 0 1 0 0 0 0 -1 forward_v I I I I #
coedge $-1 $231 $151 $232 $233 forward $87 $-1 #
coedge $-1 $234 $89 $231 $235 forward $57 $-1 #
coedge $-1 $89 $234 $236 $237 forward $57 $-1 #
coedge $-1 $154 $153 $89 $147 reversed $155 $-1 #
edge $-1 $238 -45.831361217663989 $239 45.831361217663989 $146 $240 forward 7 unknown #
coedge $-1 $91 $90 $241 $242 forward $36 $-1 #
coedge $-1 $243 $244 $90 $150 reversed $228 $-1 #
edge $-1 $157 -67.996459852900784 $245 67.996459852900784 $149 $246 forward 7 unknown #
coedge $-1 $143 $247 $91 $152 reversed $87 $-1 #
edge $-1 $248 -67.996459852900784 $156 67.996459852900784 $151 $249 forward 7 unknown #
coedge $-1 $146 $92 $247 $250 forward $155 $-1 #
coedge $-1 $92 $146 $243 $251 reversed $155 $-1 #
loop $-1 $-1 $153 $227 #
vertex $-1 $93 $252 #
vertex $-1 $93 $253 #
straight-curve $-1 67.996459852900784 0 10.534205568856306 0 1 0 I I #
face $-1 $254 $255 $22 $-1 $256 reversed single #
loop $-1 $-1 $257 $94 #
plane-surface $-1 -71.75951199694876 0 -4.0172160813503037 0 0 1 1 0 0 forward_v I I I I #
coedge $-1 $258 $97 $259 $260 reversed $61 $-1 #
coedge $-1 $97 $258 $168 $261 reversed $61 $-1 #
edge $-1 $170 -0.97363184772587097 $262 4.0172160813503037 $97 $263 forward 7 unknown #
coedge $-1 $99 $98 $257 $264 forward $39 $-1 #
coedge $-1 $265 $266 $98 $167 forward $267 $-1 #
edge $-1 $268 -4.0172160813503037 $171 0.97363184772587097 $166 $269 forward 7 unknown #
coedge $-1 $270 $100 $163 $261 forward $95 $-1 #
coedge $-1 $100 $270 $265 $271 forward $95 $-1 #
vertex $-1 $164 $272 #
vertex $-1 $271 $273 #
straight-curve $-1 -67.996459852900784 0 0.97363184772587097 0 -1 0 I I #
face $-1 $274 $275 $23 $-1 $276 reversed single #
loop $-1 $-1 $277 $102 #
plane-surface $-1 71.75951199694876 0 -4.0172160813503037 0 0 1 1 0 0 forward_v I I I I #
coedge $-1 $184 $183 $278 $279 forward $103 $-1 #
coedge $-1 $280 $105 $281 $282 reversed $65 $-1 #
coedge $-1 $105 $280 $183 $283 reversed $65 $-1 #
edge $-1 $185 -0.97363184772587097 $284 4.0172160813503037 $105 $285 forward 7 unknown #
coedge $-1 $107 $106 $286 $287 forward $42 $-1 #
coedge $-1 $288 $289 $106 $182 forward $290 $-1 #
edge $-1 $291 -4.0172160813503037 $186 0.97363184772587097 $181 $292 forward 7 unknown #
coedge $-1 $176 $108 $178 $283 forward $103 $-1 #
coedge $-1 $108 $176 $288 $293 forward $103 $-1 #
vertex $-1 $179 $294 #
vertex $-1 $293 $295 #
straight-curve $-1 67.996459852900784 0 0.97363184772587097 0 1 0 I I #
face $-1 $-1 $200 $24 $-1 $296 forward single #
loop $-1 $-1 $297 $110 #
plane-surface $-1 0 45.831361217663989 0 0 -1 0 0 0 -1 forward_v I I I I #
coedge $-1 $298 $299 $300 $301 reversed $111 $-1 #
coedge $-1 $302 $113 $115 $198 forward $69 $-1 #
coedge $-1 $113 $302 $298 $303 forward $69 $-1 #
coedge $-1 $300 $116 $113 $195 forward $200 $-1 #
edge $-1 $202 -18.97570269679278 $304 16.228020826358687 $194 $305 forward 7 unknown #
coedge $-1 $306 $307 $114 $197 forward $189 $-1 #
edge $-1 $308 -77.995985615183827 $201 -73.442560131520608 $196 $309 forward 7 unknown #
edge $-1 $202 84.986129504651075 $308 91.662722435327964 $115 $310 forward 7 unknown #
coedge $-1 $116 $300 $306 $311 forward $200 $-1 #
loop $-1 $-1 $300 $188 #
vertex $-1 $197 $312 #
vertex $-1 $117 $313 #
straight-curve $-1 -20.349543632009826 35.770219939668451 10.534205568856308 0 -1 0 I I #
coedge $-1 $204 $204 $-1 $314 reversed $120 $-1 #
edge $-1 $315 0 $315 6.2831853071796004 $121 $316 forward 7 unknown #
vertex $-1 $124 $317 #
ellipse-curve $-1 -2.7476818704340928 43.389885765878176 8.257492827024695 0 0.68199836817093118 0.7313536940579346 1.5 0 0 1 I I #
face $-1 $-1 $318 $26 $-1 $319 reversed single #
loop $-1 $-1 $131 $125 #
plane-surface $-1 0 0 10.534205568856306 0 0 1 1 0 0 forward_v I I I I #
coedge $-1 $320 $321 $322 $323 reversed $126 $-1 #
coedge $-1 $324 $128 $130 $218 forward $78 $-1 #
coedge $-1 $128 $324 $320 $325 forward $78 $-1 #
coedge $-1 $322 $131 $128 $215 forward $209 $-1 #
edge $-1 $221 -16.228020826358687 $326 18.97570269679278 $214 $327 forward 7 unknown #
coedge $-1 $328 $329 $129 $217 forward $318 $-1 #
edge $-1 $330 -46.739072053684488 $220 -42.185646570021262 $216 $331 forward 7 unknown #
edge $-1 $221 -6.6765929306769154 $330 -9.4367341760026555e-015 $130 $332 forward 7 unknown #
coedge $-1 $131 $322 $328 $333 forward $209 $-1 #
vertex $-1 $217 $334 #
vertex $-1 $132 $335 #
straight-curve $-1 14.854179891141641 -69.289155269910566 10.534205568856308 0 1 0 I I #
coedge $-1 $223 $223 $-1 $336 reversed $135 $-1 #
edge $-1 $337 0 $337 6.2831853071796004 $136 $338 forward 7 unknown #
vertex $-1 $139 $339 #
ellipse-curve $-1 -2.7476818704340928 -43.389885765878162 8.2574928270246968 0 -0.68199836817093118 0.7313536940579346 1.5 0 0 1 I I #
face $-1 $-1 $155 $21 $-1 $340 reversed single #
loop $-1 $-1 $243 $140 #
plane-surface $-1 0 45.831361217663989 0 0 -1 0 0 0 -1 forward_v I I I I #
coedge $-1 $341 $241 $244 $342 forward $141 $-1 #
coedge $-1 $247 $143 $144 $235 reversed $87 $-1 #
coedge $-1 $241 $341 $143 $233 reversed $141 $-1 #
edge $-1 $248 -10.534205568856306 $343 10.534205568856306 $232 $344 forward 7 unknown #
coedge $-1 $145 $144 $341 $345 forward $57 $-1 #
edge $-1 $239 -67.996459852900784 $343 67.996459852900784 $231 $346 forward 7 unknown #
coedge $-1 $244 $243 $145 $237 reversed $228 $-1 #
edge $-1 $347 -67.996459852900784 $238 67.996459852900784 $236 $348 forward 7 unknown #
vertex $-1 $147 $349 #
vertex $-1 $250 $350 #
straight-curve $-1 67.996459852900784 0 -10.534205568856306 0 -1 0 I I #
coedge $-1 $230 $232 $148 $242 reversed $141 $-1 #
edge $-1 $245 -45.831361217663989 $248 45.831361217663989 $241 $351 forward 7 unknown #
coedge $-1 $236 $149 $154 $251 forward $228 $-1 #
coedge $-1 $149 $236 $230 $342 reversed $228 $-1 #
vertex $-1 $150 $352 #
straight-curve $-1 0 45.831361217663989 10.534205568856306 -1 0 0 I I #
coedge $-1 $151 $231 $153 $250 reversed $87 $-1 #
vertex $-1 $242 $353 #
straight-curve $-1 0 -45.831361217663989 10.534205568856306 1 0 0 I I #
edge $-1 $156 -10.534205568856306 $239 10.534205568856306 $153 $354 forward 7 unknown #
edge $-1 $157 -10.534205568856306 $238 10.534205568856306 $154 $355 forward 7 unknown #
point $-1 67.996459852900784 -45.831361217663989 10.534205568856306 #
point $-1 67.996459852900784 45.831361217663989 10.534205568856306 #
face $-1 $-1 $267 $22 $-1 $356 reversed single #
loop $-1 $-1 $357 $159 #
plane-surface $-1 -75.522564140996735 0 -1.5217921168122164 1 0 0 0 0 -1 forward_v I I I I #
coedge $-1 $358 $259 $165 $264 reversed $160 $-1 #
coedge $-1 $163 $162 $357 $359 reversed $61 $-1 #
coedge $-1 $257 $360 $162 $260 forward $160 $-1 #
edge $-1 $361 -3.7630521440479754 $262 3.7630521440479754 $162 $362 forward 7 unknown #
edge $-1 $170 -3.7630521440479754 $363 3.7630521440479754 $163 $364 forward 7 unknown #
vertex $-1 $164 $365 #
straight-curve $-1 -67.996459852900784 45.831361217663989 0 0 0 -1 I I #
edge $-1 $268 -45.831361217663989 $262 45.831361217663989 $257 $366 forward 7 unknown #
coedge $-1 $367 $166 $169 $271 reversed $267 $-1 #
coedge $-1 $166 $367 $358 $368 reversed $267 $-1 #
loop $-1 $-1 $166 $254 #
vertex $-1 $167 $369 #
straight-curve $-1 -67.996459852900784 -45.831361217663989 0 0 0 1 I I #
coedge $-1 $169 $168 $370 $371 forward $95 $-1 #
edge $-1 $372 -3.7630521440479754 $171 3.7630521440479754 $265 $373 forward 7 unknown #
point $-1 -67.996459852900784 45.831361217663989 0.97363184772587097 #
point $-1 -67.996459852900784 -45.831361217663989 0.97363184772587097 #
face $-1 $-1 $290 $23 $-1 $374 reversed single #
loop $-1 $-1 $375 $173 #
plane-surface $-1 75.522564140996735 0 -1.5217921168122164 -1 0 0 0 0 1 forward_v I I I I #
coedge $-1 $281 $376 $377 $378 forward $174 $-1 #
coedge $-1 $375 $379 $176 $279 reversed $275 $-1 #
edge $-1 $380 -45.831361217663989 $381 45.831361217663989 $278 $382 forward 7 unknown #
coedge $-1 $178 $177 $375 $383 reversed $65 $-1 #
coedge $-1 $286 $277 $177 $282 forward $174 $-1 #
edge $-1 $384 -3.7630521440479754 $284 3.7630521440479754 $177 $385 forward 7 unknown #
edge $-1 $185 -3.7630521440479754 $380 3.7630521440479754 $178 $386 forward 7 unknown #
vertex $-1 $179 $387 #
straight-curve $-1 67.996459852900784 -45.831361217663989 0 0 0 -1 I I #
coedge $-1 $376 $281 $180 $287 reversed $174 $-1 #
edge $-1 $291 -45.831361217663989 $284 45.831361217663989 $286 $388 forward 7 unknown #
coedge $-1 $389 $181 $184 $293 reversed $290 $-1 #
coedge $-1 $181 $389 $376 $390 reversed $290 $-1 #
loop $-1 $-1 $181 $274 #
vertex $-1 $182 $391 #
straight-curve $-1 67.996459852900784 45.831361217663989 0 0 0 1 I I #
edge $-1 $381 -3.7630521440479754 $186 3.7630521440479754 $288 $392 forward 7 unknown #
point $-1 67.996459852900784 -45.831361217663989 0.97363184772587097 #
point $-1 67.996459852900784 45.831361217663989 0.97363184772587097 #
plane-surface $-1 0 0 10.534205568856306 0 0 1 1 0 0 forward_v I I I I #
coedge $-1 $307 $306 $299 $393 forward $189 $-1 #
coedge $-1 $299 $191 $193 $303 reversed $111 $-1 #
coedge $-1 $191 $298 $297 $393 reversed $111 $-1 #
coedge $-1 $199 $194 $191 $301 forward $200 $-1 #
edge $-1 $304 5.178190374423906 $394 10.061141277995539 $300 $395 forward 7 unknown #
coedge $-1 $193 $192 $307 $396 reversed $69 $-1 #
edge $-1 $397 -91.662722435327964 $304 -84.986129504651075 $298 $398 forward 7 unknown #
vertex $-1 $195 $399 #
straight-curve $-1 -1.3738409352170464 40.948410314092357 10.534205568856315 1 0 0 I I #
coedge $-1 $297 $196 $199 $311 reversed $189 $-1 #
coedge $-1 $196 $297 $302 $396 forward $189 $-1 #
vertex $-1 $197 $400 #
straight-curve $-1 -20.349543632009826 45.831361217663989 83.976765700376916 0 0 1 I I #
straight-curve $-1 -20.349543632009826 -21.206509442820234 68.494607208191766 0 0.7313536940579346 -0.68199836817093118 I I #
edge $-1 $394 -14.854179891141641 $201 20.349543632009826 $306 $401 forward 7 unknown #
point $-1 -20.349543632009826 45.831361217663989 10.534205568856306 #
point $-1 -20.349543632009826 40.948410314092357 10.534205568856308 #
edge $-1 $402 1 $402 0 $204 $-1 forward 7 unknown #
vertex $-1 $205 $403 #
ellipse-curve $-1 -2.7476818704340928 40.78607648044661 5.4652492845218941 0 0.68199836817093118 0.7313536940579346 1.5 0 0 1 I I #
point $-1 -1.2476818704340928 43.389885765878162 8.2574928270246772 #
loop $-1 $-1 $216 $208 #
plane-surface $-1 0 -45.831361217663989 0 0 1 0 0 0 1 forward_v I I I I #
coedge $-1 $321 $211 $213 $325 reversed $126 $-1 #
coedge $-1 $211 $320 $404 $405 reversed $126 $-1 #
coedge $-1 $219 $214 $211 $323 forward $209 $-1 #
edge $-1 $326 -28.340744955818224 $406 -23.457794052246577 $322 $407 forward 7 unknown #
coedge $-1 $213 $212 $329 $408 reversed $78 $-1 #
edge $-1 $409 9.4367341760026555e-015 $326 6.6765929306769154 $320 $410 forward 7 unknown #
vertex $-1 $215 $411 #
straight-curve $-1 -1.3738409352170464 -40.948410314092342 10.534205568856306 -1 0 0 I I #
coedge $-1 $404 $216 $219 $333 reversed $318 $-1 #
coedge $-1 $216 $404 $324 $408 forward $318 $-1 #
vertex $-1 $217 $412 #
straight-curve $-1 14.854179891141641 -45.831361217663989 52.71985213887757 0 0 1 I I #
straight-curve $-1 14.854179891141641 -45.831361217663996 5.980780085193075 0 -0.7313536940579346 -0.68199836817093118 I I #
edge $-1 $406 -20.349543632009826 $220 14.854179891141641 $328 $413 forward 7 unknown #
point $-1 14.854179891141641 -45.831361217663989 10.534205568856306 #
point $-1 14.854179891141641 -40.948410314092342 10.534205568856306 #
edge $-1 $414 1 $414 0 $223 $-1 forward 7 unknown #
vertex $-1 $224 $415 #
ellipse-curve $-1 -2.7476818704340928 -40.786076480446603 5.4652492845219047 0 -0.68199836817093118 0.7313536940579346 1.5 0 0 1 I I #
point $-1 -1.2476818704340928 -43.389885765878155 8.2574928270246879 #
plane-surface $-1 67.996459852900784 0 0 -1 0 0 0 0 1 forward_v I I I I #
coedge $-1 $232 $230 $234 $345 reversed $141 $-1 #
edge $-1 $245 -10.534205568856306 $347 10.534205568856306 $244 $416 forward 7 unknown #
vertex $-1 $345 $417 #
straight-curve $-1 -67.996459852900784 -45.831361217663989 0 0 0 -1 I I #
edge $-1 $343 -45.831361217663989 $347 45.831361217663989 $341 $418 forward 7 unknown #
straight-curve $-1 0 -45.831361217663989 -10.534205568856306 -1 0 0 I I #
vertex $-1 $237 $419 #
straight-curve $-1 0 45.831361217663989 -10.534205568856306 1 0 0 I I #
point $-1 67.996459852900784 45.831361217663989 -10.534205568856306 #
point $-1 67.996459852900784 -45.831361217663989 -10.534205568856306 #
straight-curve $-1 -67.996459852900784 0 10.534205568856306 0 -1 0 I I #
point $-1 -67.996459852900784 45.831361217663989 10.534205568856306 #
point $-1 -67.996459852900784 -45.831361217663989 10.534205568856306 #
straight-curve $-1 67.996459852900784 -45.831361217663989 0 0 0 -1 I I #
straight-curve $-1 67.996459852900784 45.831361217663989 0 0 0 -1 I I #
plane-surface $-1 0 -45.831361217663989 0 0 1 0 0 0 1 forward_v I I I I #
coedge $-1 $420 $370 $258 $359 forward $255 $-1 #
coedge $-1 $360 $257 $266 $368 forward $160 $-1 #
edge $-1 $363 -2.4954239645380873 $361 2.4954239645380873 $258 $421 forward 7 unknown #
coedge $-1 $259 $358 $420 $422 forward $160 $-1 #
vertex $-1 $260 $423 #
straight-curve $-1 -71.75951199694876 45.831361217663989 -4.0172160813503037 1 0 0 I I #
vertex $-1 $261 $424 #
straight-curve $-1 -71.75951199694876 45.831361217663989 0.97363184772587097 -1 0 0 I I #
point $-1 -67.996459852900784 45.831361217663989 -4.0172160813503037 #
straight-curve $-1 -67.996459852900784 0 -4.0172160813503037 0 1 0 I I #
coedge $-1 $266 $265 $425 $426 forward $267 $-1 #
edge $-1 $268 -3.7630521440479754 $427 3.7630521440479754 $266 $428 forward 7 unknown #
point $-1 -67.996459852900784 -45.831361217663989 -4.0172160813503037 #
coedge $-1 $357 $425 $270 $371 reversed $255 $-1 #
edge $-1 $363 -45.831361217663989 $372 45.831361217663989 $370 $429 forward 7 unknown #
vertex $-1 $371 $430 #
straight-curve $-1 -71.75951199694876 -45.831361217663989 0.97363184772587097 1 0 0 I I #
plane-surface $-1 0 45.831361217663989 0 0 -1 0 0 0 -1 forward_v I I I I #
coedge $-1 $377 $278 $280 $383 forward $275 $-1 #
coedge $-1 $277 $286 $289 $390 forward $174 $-1 #
coedge $-1 $379 $375 $277 $378 reversed $275 $-1 #
edge $-1 $431 -45.831361217663989 $384 45.831361217663989 $377 $432 forward 7 unknown #
coedge $-1 $278 $377 $389 $433 reversed $275 $-1 #
vertex $-1 $279 $434 #
vertex $-1 $279 $435 #
straight-curve $-1 75.522564140996735 0 0.97363184772587097 0 1 0 I I #
edge $-1 $380 -2.4954239645380873 $384 2.4954239645380873 $375 $436 forward 7 unknown #
vertex $-1 $383 $437 #
straight-curve $-1 71.75951199694876 -45.831361217663989 -4.0172160813503037 -1 0 0 I I #
straight-curve $-1 71.75951199694876 -45.831361217663989 0.97363184772587097 1 0 0 I I #
point $-1 67.996459852900784 -45.831361217663989 -4.0172160813503037 #
straight-curve $-1 67.996459852900784 0 -4.0172160813503037 0 -1 0 I I #
coedge $-1 $289 $288 $379 $433 forward $290 $-1 #
edge $-1 $291 -3.7630521440479754 $431 3.7630521440479754 $289 $438 forward 7 unknown #
point $-1 67.996459852900784 45.831361217663989 -4.0172160813503037 #
straight-curve $-1 71.75951199694876 45.831361217663989 0.97363184772587097 -1 0 0 I I #
edge $-1 $394 73.442560131520608 $397 77.995985615183827 $297 $439 forward 7 unknown #
vertex $-1 $311 $440 #
straight-curve $-1 14.854179891141641 35.770219939668451 10.534205568856308 0 1 0 I I #
edge $-1 $397 -16.228020826358687 $308 18.97570269679278 $307 $441 forward 7 unknown #
vertex $-1 $396 $442 #
straight-curve $-1 14.854179891141641 -21.206509442820234 68.494607208191766 0 -0.7313536940579346 0.68199836817093118 I I #
point $-1 14.854179891141641 40.948410314092357 10.534205568856308 #
point $-1 -20.349543632009826 45.831361217663996 5.9807800851930892 #
straight-curve $-1 0 45.831361217663989 10.534205568856306 -1 0 0 I I #
vertex $-1 $314 $443 #
point $-1 -1.2476818704340928 40.78607648044661 5.4652492845218941 #
coedge $-1 $329 $328 $321 $405 forward $318 $-1 #
edge $-1 $406 42.185646570021262 $409 46.739072053684488 $404 $444 forward 7 unknown #
vertex $-1 $333 $445 #
straight-curve $-1 -20.349543632009826 -69.289155269910566 10.534205568856308 0 -1 0 I I #
edge $-1 $409 -18.97570269679278 $330 16.228020826358687 $329 $446 forward 7 unknown #
vertex $-1 $408 $447 #
straight-curve $-1 -20.349543632009826 -45.831361217663996 5.980780085193075 0 0.7313536940579346 0.68199836817093118 I I #
point $-1 -20.349543632009826 -40.948410314092342 10.534205568856306 #
point $-1 14.854179891141641 -45.831361217663989 5.9807800851930812 #
straight-curve $-1 0 -45.831361217663989 10.534205568856306 1 0 0 I I #
vertex $-1 $336 $448 #
point $-1 -1.2476818704340928 -40.786076480446603 5.4652492845219047 #
straight-curve $-1 -67.996459852900784 45.831361217663989 0 0 0 -1 I I #
point $-1 -67.996459852900784 -45.831361217663989 -10.534205568856306 #
straight-curve $-1 -67.996459852900784 0 -10.534205568856306 0 1 0 I I #
point $-1 -67.996459852900784 45.831361217663989 -10.534205568856306 #
coedge $-1 $425 $357 $360 $422 reversed $255 $-1 #
straight-curve $-1 -75.522564140996735 45.831361217663989 -1.5217921168122164 0 0 -1 I I #
edge $-1 $427 -45.831361217663989 $361 45.831361217663989 $420 $449 forward 7 unknown #
point $-1 -75.522564140996735 45.831361217663989 -4.0172160813503037 #
point $-1 -75.522564140996735 45.831361217663989 0.97363184772587097 #
coedge $-1 $370 $420 $367 $426 reversed $255 $-1 #
edge $-1 $372 -2.4954239645380873 $427 2.4954239645380873 $425 $450 forward 7 unknown #
vertex $-1 $422 $451 #
straight-curve $-1 -71.75951199694876 -45.831361217663989 -4.0172160813503037 -1 0 0 I I #
straight-curve $-1 -75.522564140996735 0 0.97363184772587097 0 -1 0 I I #
point $-1 -75.522564140996735 -45.831361217663989 0.97363184772587097 #
vertex $-1 $378 $452 #
straight-curve $-1 75.522564140996735 0 -4.0172160813503037 0 -1 0 I I #
edge $-1 $381 -2.4954239645380873 $431 2.4954239645380873 $379 $453 forward 7 unknown #
point $-1 75.522564140996735 -45.831361217663989 0.97363184772587097 #
point $-1 75.522564140996735 45.831361217663989 0.97363184772587097 #
straight-curve $-1 75.522564140996735 -45.831361217663989 -1.5217921168122164 0 0 -1 I I #
point $-1 75.522564140996735 -45.831361217663989 -4.0172160813503037 #
straight-curve $-1 71.75951199694876 45.831361217663989 -4.0172160813503037 1 0 0 I I #
straight-curve $-1 14.854179891141641 45.831361217663989 83.976765700376916 0 0 -1 I I #
point $-1 14.854179891141641 45.831361217663989 10.534205568856306 #
straight-curve $-1 -1.3738409352170464 45.831361217663982 5.9807800851930928 -1 0 0 I I #
point $-1 14.854179891141641 45.831361217663996 5.9807800851930892 #
point $-1 -2.7476818704340928 39.763078928190211 4.3682187434349924 #
straight-curve $-1 -20.349543632009826 -45.831361217663989 52.71985213887757 0 0 -1 I I #
point $-1 -20.349543632009826 -45.831361217663989 10.534205568856306 #
straight-curve $-1 -1.3738409352170464 -45.831361217663989 5.9807800851930866 1 0 0 I I #
point $-1 -20.349543632009826 -45.831361217663989 5.9807800851930812 #
point $-1 -2.7476818704340928 -39.763078928190204 4.368218743435003 #
straight-curve $-1 -75.522564140996735 0 -4.0172160813503037 0 1 0 I I #
straight-curve $-1 -75.522564140996735 -45.831361217663989 -1.5217921168122164 0 0 -1 I I #
point $-1 -75.522564140996735 -45.831361217663989 -4.0172160813503037 #
point $-1 75.522564140996735 45.831361217663989 -4.0172160813503037 #
straight-curve $-1 75.522564140996735 45.831361217663989 -1.5217921168122164 0 0 -1 I I #
End-of-ACIS-data 