500 0 11 0           
7 Unknown 11 ACIS 5.0 NT 24 Thu Mar 25 16:03:26 1999 
-1 9.9999999999999995e-007 1e-010 
body $-1 $11 $-1 $12 #
body $-1 $13 $-1 $14 #
body $-1 $15 $-1 $16 #
body $-1 $17 $-1 $18 #
body $-1 $19 $-1 $20 #
body $-1 $21 $-1 $22 #
body $-1 $23 $-1 $24 #
body $-1 $25 $-1 $26 #
body $-1 $27 $-1 $28 #
body $-1 $29 $-1 $30 #
body $-1 $31 $-1 $32 #
lump $-1 $-1 $33 $0 #
transform $-1 1 0 0 0 1 0 0 0 1 58.821375164036994 28.611849972594488 13.422604956014442 1 rotate no_reflect no_shear #
lump $-1 $-1 $34 $1 #
transform $-1 1 0 0 0 1 0 0 0 1 58.821375164036994 28.611849972594488 13.422604956014442 1 rotate no_reflect no_shear #
lump $-1 $-1 $35 $2 #
transform $-1 1 0 0 0 1 0 0 0 1 58.821375164036994 28.611849972594488 13.422604956014442 1 rotate no_reflect no_shear #
lump $-1 $-1 $36 $3 #
transform $-1 1 0 0 0 1 0 0 0 1 58.821375164036994 28.611849972594488 13.422604956014442 1 rotate no_reflect no_shear #
lump $-1 $-1 $37 $4 #
transform $-1 1 0 0 0 1 0 0 0 1 58.821375164036994 28.611849972594488 13.422604956014442 1 rotate no_reflect no_shear #
lump $-1 $-1 $38 $5 #
transform $-1 1 0 0 0 1 0 0 0 1 58.821375164036994 28.611849972594488 13.422604956014442 1 rotate no_reflect no_shear #
lump $-1 $-1 $39 $6 #
transform $-1 1 0 0 0 1 0 0 0 1 58.821375164036994 28.611849972594488 13.422604956014442 1 rotate no_reflect no_shear #
lump $-1 $-1 $40 $7 #
transform $-1 1 0 0 0 1 0 0 0 1 58.821375164036994 28.611849972594488 13.422604956014442 1 rotate no_reflect no_shear #
lump $-1 $-1 $41 $8 #
transform $-1 1 0 0 0 1 0 0 0 1 58.821375164036994 28.611849972594488 13.422604956014442 1 rotate no_reflect no_shear #
lump $-1 $-1 $42 $9 #
transform $-1 1 0 0 0 1 0 0 0 1 58.821375164036994 28.611849972594488 13.422604956014442 1 rotate no_reflect no_shear #
lump $-1 $-1 $43 $10 #
transform $-1 1 0 0 0 1 0 0 0 1 58.821375164036994 28.611849972594488 13.422604956014442 1 rotate no_reflect no_shear #
shell $-1 $-1 $-1 $44 $-1 $11 #
shell $-1 $-1 $-1 $45 $-1 $13 #
shell $-1 $-1 $-1 $46 $-1 $15 #
shell $-1 $-1 $-1 $47 $-1 $17 #
shell $-1 $-1 $-1 $48 $-1 $19 #
shell $-1 $-1 $-1 $49 $-1 $21 #
shell $-1 $-1 $-1 $50 $-1 $23 #
shell $-1 $-1 $-1 $51 $-1 $25 #
shell $-1 $-1 $-1 $52 $-1 $27 #
shell $-1 $-1 $-1 $53 $-1 $29 #
shell $-1 $-1 $-1 $54 $-1 $31 #
face $-1 $55 $56 $33 $-1 $57 forward single #
face $-1 $58 $59 $34 $-1 $60 forward single #
face $-1 $61 $62 $35 $-1 $63 reversed single #
face $-1 $64 $65 $36 $-1 $66 forward single #
face $-1 $67 $68 $37 $-1 $69 forward single #
face $-1 $70 $71 $38 $-1 $72 reversed single #
face $-1 $73 $74 $39 $-1 $75 forward single #
face $-1 $76 $77 $40 $-1 $78 forward single #
face $-1 $79 $80 $41 $-1 $81 reversed single #
face $-1 $82 $83 $42 $-1 $84 forward single #
face $-1 $85 $86 $43 $-1 $87 forward single #
face $-1 $88 $89 $33 $-1 $90 reversed single #
loop $-1 $-1 $91 $44 #
plane-surface $-1 0 0 13.422604956014442 0 0 1 1 0 0 forward_v I I I I #
face $-1 $92 $93 $34 $-1 $94 reversed single #
loop $-1 $-1 $95 $45 #
plane-surface $-1 0 -28.611849972594488 0 0 1 0 0 0 1 forward_v I I I I #
face $-1 $96 $97 $35 $-1 $98 reversed single #
loop $-1 $-1 $99 $46 #
plane-surface $-1 35.666873336491548 -6.5609250087009698 171.39632098532294 0 -1 0 -0.6018150307709319 0 -0.79863550430605224 forward_v I I I I #
face $-1 $100 $101 $36 $-1 $102 forward single #
loop $-1 $103 $104 $47 #
cone-surface $-1 53.250690265877928 -15.067455503216136 8.6096803599446048 -0.6018150307709319 0 -0.79863550430605224 0.79863550430605224 0 -0.6018150307709319 1 I I 0 1 1 forward I I I I #
face $-1 $105 $106 $37 $-1 $107 forward single #
loop $-1 $108 $109 $48 #
cone-surface $-1 53.250690265877928 -9.9635372065070378 8.6096803599446048 -0.6018150307709319 0 -0.79863550430605224 0.79863550430605224 0 -0.6018150307709319 1 I I 0 1 1 forward I I I I #
face $-1 $110 $111 $38 $-1 $112 reversed single #
loop $-1 $-1 $113 $49 #
plane-surface $-1 -142.00736264362376 -3.2209579547962086 89.871758844650273 0 1 0 -0.70710678939079041 0 0.70710677298230451 forward_v I I I I #
face $-1 $114 $115 $39 $-1 $116 forward single #
loop $-1 $117 $118 $50 #
cone-surface $-1 -55.095197947376029 -0.85185821462982148 9.6964276694909266 0.70710678939079041 0 -0.70710677298230451 0.70710677298230451 0 0.70710678939079041 1 I I 0 1 1 forward I I I I #
face $-1 $119 $120 $40 $-1 $121 forward single #
loop $-1 $122 $123 $51 #
cone-surface $-1 -55.095197947376029 2.7017913956197575 9.6964276694909266 0.70710678939079041 0 -0.70710677298230451 0.70710677298230451 0 0.70710678939079041 1 I I 0 1 1 forward I I I I #
face $-1 $124 $125 $41 $-1 $126 reversed single #
loop $-1 $-1 $127 $52 #
plane-surface $-1 -142.00736264362376 20.320000882012138 89.871758844650273 0 1 0 -0.70710678939079041 0 0.70710677298230451 forward_v I I I I #
face $-1 $128 $129 $42 $-1 $130 forward single #
loop $-1 $131 $132 $53 #
cone-surface $-1 -55.095197947376029 22.689100622178525 9.6964276694909266 0.70710678939079041 0 -0.70710677298230451 0.70710677298230451 0 0.70710678939079041 1 I I 0 1 1 forward I I I I #
face $-1 $133 $134 $43 $-1 $135 forward single #
loop $-1 $136 $137 $54 #
cone-surface $-1 -55.095197947376029 26.242750232428104 9.6964276694909266 0.70710678939079041 0 -0.70710677298230451 0.70710677298230451 0 0.70710678939079041 1 I I 0 1 1 forward I I I I #
face $-1 $138 $139 $33 $-1 $140 reversed single #
loop $-1 $-1 $141 $55 #
plane-surface $-1 0 0 -13.422604956014442 0 0 1 1 0 0 forward_v I I I I #
coedge $-1 $142 $143 $144 $145 forward $56 $-1 #
face $-1 $146 $147 $34 $-1 $148 forward single #
loop $-1 $-1 $149 $58 #
plane-surface $-1 -58.821375164036994 0 0 1 0 0 0 0 -1 forward_v I I I I #
coedge $-1 $150 $151 $152 $153 forward $59 $-1 #
face $-1 $154 $155 $35 $-1 $156 reversed single #
loop $-1 $-1 $157 $61 #
plane-surface $-1 -35.132302072175364 -12.515496354861586 77.442643749110587 0.6018150307709319 0 0.79863550430605224 0.79863550430605224 0 -0.6018150307709319 forward_v I I I I #
coedge $-1 $158 $159 $160 $161 reversed $62 $-1 #
face $-1 $-1 $162 $36 $-1 $163 forward single #
loop $-1 $164 $165 $64 #
cone-surface $-1 51.877206833427238 -15.067455503216136 6.7870063195071175 -0.6018150307709319 0 -0.79863550430605224 0.39931775215302612 0 -0.30090751538546595 1 I I -0.70710678118654691 0.70710678118654813 0.5 forward I I I I #
loop $-1 $-1 $166 $47 #
coedge $-1 $104 $104 $167 $168 reversed $65 $-1 #
face $-1 $-1 $169 $37 $-1 $170 forward single #
loop $-1 $171 $172 $67 #
cone-surface $-1 51.877206833427238 -9.9635372065070378 6.7870063195071175 -0.6018150307709319 0 -0.79863550430605224 0.39931775215302612 0 -0.30090751538546595 1 I I -0.70710678118654691 0.70710678118654813 0.5 forward I I I I #
loop $-1 $-1 $173 $48 #
coedge $-1 $109 $109 $174 $175 reversed $68 $-1 #
face $-1 $176 $177 $38 $-1 $178 reversed single #
loop $-1 $-1 $179 $70 #
plane-surface $-1 -58.821375164037008 0.92496659049496799 6.6857732954029245 -0.70710678939079041 0 0.70710677298230451 0.70710677298230451 0 0.70710678939079041 forward_v I I I I #
coedge $-1 $180 $181 $182 $183 reversed $71 $-1 #
face $-1 $-1 $184 $39 $-1 $185 forward single #
loop $-1 $186 $187 $73 #
cone-surface $-1 -54.383883088160985 -0.85185821462982148 8.9851128267820215 0.70710678939079041 0 -0.70710677298230451 0.35355338649115226 0 0.35355339469539521 1 I I -0.70710678118654746 0.70710678118654746 0.5 forward I I I I #
loop $-1 $-1 $188 $50 #
coedge $-1 $118 $118 $189 $190 reversed $74 $-1 #
face $-1 $-1 $191 $40 $-1 $192 forward single #
loop $-1 $193 $194 $76 #
cone-surface $-1 -54.383883088160985 2.7017913956197575 8.9851128267820215 0.70710678939079041 0 -0.70710677298230451 0.35355338649115226 0 0.35355339469539521 1 I I -0.70710678118654746 0.70710678118654746 0.5 forward I I I I #
loop $-1 $-1 $195 $51 #
coedge $-1 $123 $123 $196 $197 reversed $77 $-1 #
face $-1 $198 $199 $41 $-1 $200 forward single #
loop $-1 $-1 $201 $79 #
plane-surface $-1 -58.821375164037008 24.465925427303315 6.6857732954029245 -0.70710678939079041 0 0.70710677298230451 0.70710677298230451 0 0.70710678939079041 forward_v I I I I #
coedge $-1 $202 $203 $204 $205 reversed $80 $-1 #
face $-1 $-1 $206 $42 $-1 $207 forward single #
loop $-1 $208 $209 $82 #
cone-surface $-1 -54.383883088160985 22.689100622178525 8.9851128267820215 0.70710678939079041 0 -0.70710677298230451 0.35355338649115226 0 0.35355339469539521 1 I I -0.70710678118654746 0.70710678118654746 0.5 forward I I I I #
loop $-1 $-1 $210 $53 #
coedge $-1 $132 $132 $211 $212 reversed $83 $-1 #
face $-1 $-1 $213 $43 $-1 $214 forward single #
loop $-1 $215 $216 $85 #
cone-surface $-1 -54.383883088160985 26.242750232428104 8.9851128267820215 0.70710678939079041 0 -0.70710677298230451 0.35355338649115226 0 0.35355339469539521 1 I I -0.70710678118654746 0.70710678118654746 0.5 forward I I I I #
loop $-1 $-1 $217 $54 #
coedge $-1 $137 $137 $218 $219 reversed $86 $-1 #
face $-1 $220 $221 $33 $-1 $222 reversed single #
loop $-1 $-1 $223 $88 #
plane-surface $-1 0 -28.611849972594488 0 0 1 0 0 0 1 forward_v I I I I #
coedge $-1 $224 $225 $226 $227 forward $89 $-1 #
coedge $-1 $228 $91 $229 $230 forward $56 $-1 #
coedge $-1 $91 $228 $231 $232 forward $56 $-1 #
coedge $-1 $233 $234 $91 $145 reversed $235 $-1 #
edge $-1 $236 -28.611849972594488 $237 28.611849972594488 $144 $238 forward 7 unknown #
face $-1 $239 $240 $34 $-1 $241 reversed single #
loop $-1 $-1 $242 $92 #
plane-surface $-1 0 -33.682741108380633 -3.5108406408731834 0 0 1 1 0 0 forward_v I I I I #
coedge $-1 $243 $244 $151 $245 forward $93 $-1 #
coedge $-1 $246 $95 $247 $248 reversed $59 $-1 #
coedge $-1 $95 $246 $149 $245 reversed $59 $-1 #
coedge $-1 $249 $242 $95 $153 reversed $147 $-1 #
edge $-1 $250 -58.821375164036994 $251 58.821375164036994 $152 $252 forward 7 unknown #
face $-1 $253 $254 $35 $-1 $255 reversed single #
loop $-1 $-1 $256 $96 #
plane-surface $-1 35.666873336491548 -18.470067701022202 171.39632098532294 0 1 0 0.6018150307709319 0 0.79863550430605224 forward_v I I I I #
coedge $-1 $257 $258 $259 $260 reversed $97 $-1 #
coedge $-1 $159 $99 $261 $262 reversed $62 $-1 #
coedge $-1 $99 $158 $257 $263 reversed $62 $-1 #
coedge $-1 $259 $264 $99 $161 forward $265 $-1 #
edge $-1 $266 -40.987938495791219 $267 -31.991720533603562 $160 $268 forward 7 unknown #
loop $-1 $-1 $167 $100 #
plane-surface $-1 -35.132302072175364 -12.515496354861586 77.442643749110587 0.6018150307709319 0 0.79863550430605224 0.79863550430605224 0 -0.6018150307709319 forward_v I I I I #
loop $-1 $-1 $269 $64 #
coedge $-1 $165 $165 $166 $270 reversed $101 $-1 #
coedge $-1 $166 $166 $165 $270 forward $103 $-1 #
coedge $-1 $167 $167 $104 $168 forward $162 $-1 #
edge $-1 $271 0 $271 6.2831853071796004 $167 $272 forward 7 unknown #
loop $-1 $-1 $174 $105 #
plane-surface $-1 -35.132302072175364 -12.515496354861586 77.442643749110587 0.6018150307709319 0 0.79863550430605224 0.79863550430605224 0 -0.6018150307709319 forward_v I I I I #
loop $-1 $-1 $273 $67 #
coedge $-1 $172 $172 $173 $274 reversed $106 $-1 #
coedge $-1 $173 $173 $172 $274 forward $108 $-1 #
coedge $-1 $174 $174 $109 $175 forward $169 $-1 #
edge $-1 $275 0 $275 6.2831853071796004 $174 $276 forward 7 unknown #
face $-1 $277 $278 $38 $-1 $279 forward single #
loop $-1 $-1 $280 $110 #
plane-surface $-1 -142.00736264362376 5.0708911357861446 89.871758844650273 0 -1 0 0.70710678939079041 0 -0.70710677298230451 forward_v I I I I #
coedge $-1 $281 $282 $283 $284 reversed $111 $-1 #
coedge $-1 $181 $113 $285 $286 reversed $71 $-1 #
coedge $-1 $113 $180 $281 $287 reversed $71 $-1 #
coedge $-1 $283 $288 $113 $183 forward $278 $-1 #
edge $-1 $289 12.182306157774889 $290 18.919137662057523 $182 $291 forward 7 unknown #
loop $-1 $-1 $189 $114 #
plane-surface $-1 -58.821375164037008 0.92496659049496799 6.6857732954029245 -0.70710678939079041 0 0.70710677298230451 0.70710677298230451 0 0.70710678939079041 forward_v I I I I #
loop $-1 $-1 $292 $73 #
coedge $-1 $187 $187 $188 $293 reversed $115 $-1 #
coedge $-1 $188 $188 $187 $293 forward $117 $-1 #
coedge $-1 $189 $189 $118 $190 forward $184 $-1 #
edge $-1 $294 0 $294 6.2831853071796004 $189 $295 forward 7 unknown #
loop $-1 $-1 $196 $119 #
plane-surface $-1 -58.821375164037008 0.92496659049496799 6.6857732954029245 -0.70710678939079041 0 0.70710677298230451 0.70710677298230451 0 0.70710678939079041 forward_v I I I I #
loop $-1 $-1 $296 $76 #
coedge $-1 $194 $194 $195 $297 reversed $120 $-1 #
coedge $-1 $195 $195 $194 $297 forward $122 $-1 #
coedge $-1 $196 $196 $123 $197 forward $191 $-1 #
edge $-1 $298 0 $298 6.2831853071796004 $196 $299 forward 7 unknown #
face $-1 $300 $301 $41 $-1 $302 reversed single #
loop $-1 $-1 $204 $124 #
plane-surface $-1 0 0 13.422604956014442 0 0 1 1 0 0 forward_v I I I I #
coedge $-1 $303 $304 $305 $306 reversed $125 $-1 #
coedge $-1 $203 $127 $307 $308 reversed $80 $-1 #
coedge $-1 $127 $202 $303 $309 reversed $80 $-1 #
coedge $-1 $305 $310 $127 $205 forward $199 $-1 #
edge $-1 $311 12.182306157774889 $312 18.919137662057523 $204 $313 forward 7 unknown #
loop $-1 $-1 $211 $128 #
plane-surface $-1 -58.821375164037008 24.465925427303315 6.6857732954029245 -0.70710678939079041 0 0.70710677298230451 0.70710677298230451 0 0.70710678939079041 forward_v I I I I #
loop $-1 $-1 $314 $82 #
coedge $-1 $209 $209 $210 $315 reversed $129 $-1 #
coedge $-1 $210 $210 $209 $315 forward $131 $-1 #
coedge $-1 $211 $211 $132 $212 forward $206 $-1 #
edge $-1 $316 0 $316 6.2831853071796004 $211 $317 forward 7 unknown #
loop $-1 $-1 $218 $133 #
plane-surface $-1 -58.821375164037008 24.465925427303315 6.6857732954029245 -0.70710678939079041 0 0.70710677298230451 0.70710677298230451 0 0.70710678939079041 forward_v I I I I #
loop $-1 $-1 $318 $85 #
coedge $-1 $216 $216 $217 $319 reversed $134 $-1 #
coedge $-1 $217 $217 $216 $319 forward $136 $-1 #
coedge $-1 $218 $218 $137 $219 forward $213 $-1 #
edge $-1 $320 0 $320 6.2831853071796004 $218 $321 forward 7 unknown #
face $-1 $322 $323 $33 $-1 $324 reversed single #
loop $-1 $-1 $325 $138 #
plane-surface $-1 -58.821375164036994 0 0 1 0 0 0 0 -1 forward_v I I I I #
coedge $-1 $326 $231 $327 $328 forward $139 $-1 #
coedge $-1 $329 $141 $326 $330 forward $89 $-1 #
coedge $-1 $141 $329 $331 $332 forward $89 $-1 #
coedge $-1 $234 $233 $141 $227 reversed $235 $-1 #
edge $-1 $333 -28.611849972594488 $334 28.611849972594488 $226 $335 forward 7 unknown #
coedge $-1 $143 $142 $336 $337 forward $56 $-1 #
coedge $-1 $338 $339 $142 $230 reversed $323 $-1 #
edge $-1 $237 -58.821375164036994 $340 58.821375164036994 $229 $341 forward 7 unknown #
coedge $-1 $223 $342 $143 $232 reversed $139 $-1 #
edge $-1 $343 -58.821375164036994 $236 58.821375164036994 $231 $344 forward 7 unknown #
coedge $-1 $226 $144 $342 $345 forward $235 $-1 #
coedge $-1 $144 $226 $338 $346 reversed $235 $-1 #
loop $-1 $-1 $233 $322 #
vertex $-1 $145 $347 #
vertex $-1 $145 $348 #
straight-curve $-1 58.821375164036994 0 13.422604956014442 0 1 0 I I #
face $-1 $349 $350 $34 $-1 $351 reversed single #
loop $-1 $-1 $352 $146 #
plane-surface $-1 0 -33.682741108380633 -7.2273214210464261 0 0 1 1 0 0 forward_v I I I I #
coedge $-1 $152 $353 $354 $355 forward $147 $-1 #
coedge $-1 $356 $149 $357 $358 reversed $93 $-1 #
coedge $-1 $149 $356 $249 $359 reversed $93 $-1 #
edge $-1 $250 3.5108406408731834 $360 7.2273214210464261 $149 $361 forward 7 unknown #
coedge $-1 $151 $150 $362 $363 forward $59 $-1 #
coedge $-1 $354 $364 $150 $248 forward $365 $-1 #
edge $-1 $366 -7.2273214210464261 $251 -3.5108406408731834 $247 $367 forward 7 unknown #
coedge $-1 $353 $152 $244 $359 forward $147 $-1 #
vertex $-1 $245 $368 #
vertex $-1 $355 $369 #
straight-curve $-1 0 -28.611849972594488 -3.5108406408731834 1 0 0 I I #
face $-1 $-1 $265 $35 $-1 $370 forward single #
loop $-1 $-1 $371 $154 #
plane-surface $-1 58.821375164036994 0 0 -1 0 0 0 0 1 forward_v I I I I #
coedge $-1 $372 $373 $374 $375 reversed $155 $-1 #
coedge $-1 $376 $157 $159 $263 forward $97 $-1 #
coedge $-1 $157 $376 $372 $377 forward $97 $-1 #
coedge $-1 $374 $160 $157 $260 forward $265 $-1 #
edge $-1 $267 0.30317683127017681 $378 12.212319523591409 $259 $379 forward 7 unknown #
coedge $-1 $380 $381 $158 $262 forward $254 $-1 #
edge $-1 $382 -79.054692152217797 $266 -72.275555536647033 $261 $383 forward 7 unknown #
edge $-1 $267 106.37826494809502 $382 117.642750328074 $159 $384 forward 7 unknown #
coedge $-1 $160 $374 $380 $385 forward $265 $-1 #
loop $-1 $-1 $374 $253 #
vertex $-1 $262 $386 #
vertex $-1 $161 $387 #
straight-curve $-1 17.833436668245774 -6.5609250087009698 13.422604956014439 -1 0 0 I I #
coedge $-1 $269 $269 $-1 $388 reversed $164 $-1 #
edge $-1 $389 0 $389 6.2831853071796004 $165 $390 forward 7 unknown #
vertex $-1 $168 $391 #
ellipse-curve $-1 54.323266182943151 -15.067455503216136 10.033036648229066 0.6018150307709319 0 0.79863550430605224 0.79863550430605224 0 -0.6018150307709319 1 I I #
coedge $-1 $273 $273 $-1 $392 reversed $171 $-1 #
edge $-1 $393 0 $393 6.2831853071796004 $172 $394 forward 7 unknown #
vertex $-1 $175 $395 #
ellipse-curve $-1 54.323266182943151 -9.9635372065070378 10.033036648229066 0.6018150307709319 0 0.79863550430605224 0.79863550430605224 0 -0.6018150307709319 1 I I #
face $-1 $-1 $396 $38 $-1 $397 reversed single #
loop $-1 $-1 $182 $176 #
plane-surface $-1 0 0 13.422604956014442 0 0 1 1 0 0 forward_v I I I I #
coedge $-1 $398 $399 $400 $401 reversed $177 $-1 #
coedge $-1 $402 $179 $181 $287 forward $111 $-1 #
coedge $-1 $179 $402 $398 $403 forward $111 $-1 #
coedge $-1 $400 $182 $179 $284 forward $278 $-1 #
edge $-1 $290 -3.6834412500436926 $404 4.6084078405386606 $283 $405 forward 7 unknown #
coedge $-1 $406 $407 $180 $286 forward $396 $-1 #
edge $-1 $408 -38.250106126922198 $289 -31.513274466310694 $285 $409 forward 7 unknown #
edge $-1 $290 -9.5273185913200695 $408 -2.0097183471152325e-014 $181 $410 forward 7 unknown #
coedge $-1 $182 $400 $406 $411 forward $278 $-1 #
vertex $-1 $183 $412 #
vertex $-1 $183 $413 #
straight-curve $-1 -71.003681321811882 -3.2209579547962086 13.422604956014439 1 0 0 I I #
coedge $-1 $292 $292 $-1 $414 reversed $186 $-1 #
edge $-1 $415 0 $415 6.2831853071796004 $187 $416 forward 7 unknown #
vertex $-1 $190 $417 #
ellipse-curve $-1 -55.452959411895684 -0.85185821462982148 10.054189125708687 -0.70710678939079041 0 0.70710677298230451 0.70710677298230451 0 0.70710678939079041 1 I I #
coedge $-1 $296 $296 $-1 $418 reversed $193 $-1 #
edge $-1 $419 0 $419 6.2831853071796004 $194 $420 forward 7 unknown #
vertex $-1 $197 $421 #
ellipse-curve $-1 -55.452959411895684 2.7017913956197575 10.054189125708687 -0.70710678939079041 0 0.70710677298230451 0.70710677298230451 0 0.70710678939079041 1 I I #
face $-1 $-1 $422 $41 $-1 $423 reversed single #
loop $-1 $-1 $424 $198 #
plane-surface $-1 0 28.611849972594488 0 0 -1 0 0 0 -1 forward_v I I I I #
coedge $-1 $425 $201 $203 $309 forward $125 $-1 #
coedge $-1 $201 $425 $424 $426 reversed $125 $-1 #
coedge $-1 $427 $204 $201 $306 forward $199 $-1 #
edge $-1 $312 8.0870381683604808 $428 16.378887258942832 $305 $429 forward 7 unknown #
coedge $-1 $430 $431 $202 $308 forward $422 $-1 #
edge $-1 $432 -38.250106126922198 $311 -31.513274466310694 $307 $433 forward 7 unknown #
edge $-1 $312 -9.5273185913200695 $432 -2.0097183471152325e-014 $203 $434 forward 7 unknown #
coedge $-1 $204 $427 $430 $435 forward $199 $-1 #
vertex $-1 $308 $436 #
vertex $-1 $205 $437 #
straight-curve $-1 -71.003681321811882 20.320000882012138 13.422604956014439 1 0 0 I I #
coedge $-1 $314 $314 $-1 $438 reversed $208 $-1 #
edge $-1 $439 0 $439 6.2831853071796004 $209 $440 forward 7 unknown #
vertex $-1 $212 $441 #
ellipse-curve $-1 -55.452959411895684 22.689100622178525 10.054189125708687 -0.70710678939079041 0 0.70710677298230451 0.70710677298230451 0 0.70710678939079041 1 I I #
coedge $-1 $318 $318 $-1 $442 reversed $215 $-1 #
edge $-1 $443 0 $443 6.2831853071796004 $216 $444 forward 7 unknown #
vertex $-1 $219 $445 #
ellipse-curve $-1 -55.452959411895684 26.242750232428104 10.054189125708687 -0.70710678939079041 0 0.70710677298230451 0.70710677298230451 0 0.70710678939079041 1 I I #
face $-1 $-1 $235 $33 $-1 $446 reversed single #
loop $-1 $-1 $338 $220 #
plane-surface $-1 0 28.611849972594488 0 0 -1 0 0 0 -1 forward_v I I I I #
coedge $-1 $447 $336 $339 $448 forward $221 $-1 #
coedge $-1 $342 $223 $224 $330 reversed $139 $-1 #
coedge $-1 $336 $447 $223 $328 reversed $221 $-1 #
edge $-1 $343 -13.422604956014442 $449 13.422604956014442 $327 $450 forward 7 unknown #
coedge $-1 $225 $224 $447 $451 forward $89 $-1 #
edge $-1 $334 -58.821375164036994 $449 58.821375164036994 $326 $452 forward 7 unknown #
coedge $-1 $339 $338 $225 $332 reversed $323 $-1 #
edge $-1 $453 -58.821375164036994 $333 58.821375164036994 $331 $454 forward 7 unknown #
vertex $-1 $227 $455 #
vertex $-1 $345 $456 #
straight-curve $-1 58.821375164036994 0 -13.422604956014442 0 -1 0 I I #
coedge $-1 $325 $327 $228 $337 reversed $221 $-1 #
edge $-1 $340 -28.611849972594488 $343 28.611849972594488 $336 $457 forward 7 unknown #
coedge $-1 $331 $229 $234 $346 forward $323 $-1 #
coedge $-1 $229 $331 $325 $448 reversed $323 $-1 #
vertex $-1 $230 $458 #
straight-curve $-1 0 28.611849972594488 13.422604956014442 -1 0 0 I I #
coedge $-1 $231 $326 $233 $345 reversed $139 $-1 #
vertex $-1 $337 $459 #
straight-curve $-1 0 -28.611849972594488 13.422604956014442 1 0 0 I I #
edge $-1 $236 -13.422604956014442 $334 13.422604956014442 $233 $460 forward 7 unknown #
edge $-1 $237 -13.422604956014442 $333 13.422604956014442 $234 $461 forward 7 unknown #
point $-1 58.821375164036994 -28.611849972594488 13.422604956014442 #
point $-1 58.821375164036994 28.611849972594488 13.422604956014442 #
face $-1 $-1 $365 $34 $-1 $462 reversed single #
loop $-1 $-1 $463 $239 #
plane-surface $-1 0 -38.753632244166774 -5.3690810309598049 0 1 0 0 0 1 forward_v I I I I #
coedge $-1 $464 $362 $364 $465 forward $240 $-1 #
coedge $-1 $242 $249 $466 $467 forward $147 $-1 #
coedge $-1 $468 $247 $242 $355 reversed $365 $-1 #
edge $-1 $469 -5.070891135786141 $251 5.070891135786141 $354 $470 forward 7 unknown #
coedge $-1 $244 $243 $463 $471 reversed $93 $-1 #
coedge $-1 $362 $464 $243 $358 forward $240 $-1 #
edge $-1 $472 -5.070891135786141 $360 5.070891135786141 $243 $473 forward 7 unknown #
edge $-1 $250 -5.070891135786141 $474 5.070891135786141 $244 $475 forward 7 unknown #
vertex $-1 $245 $476 #
straight-curve $-1 -58.821375164036994 -28.611849972594488 0 0 0 -1 I I #
coedge $-1 $352 $357 $246 $363 reversed $240 $-1 #
edge $-1 $366 -58.821375164036994 $360 58.821375164036994 $362 $477 forward 7 unknown #
coedge $-1 $247 $468 $352 $465 reversed $365 $-1 #
loop $-1 $-1 $247 $349 #
vertex $-1 $248 $478 #
straight-curve $-1 58.821375164036994 -28.611849972594488 0 0 0 1 I I #
point $-1 -58.821375164036994 -28.611849972594491 -3.5108406408731834 #
point $-1 58.821375164036994 -28.611849972594491 -3.5108406408731834 #
plane-surface $-1 0 0 13.422604956014442 0 0 1 1 0 0 forward_v I I I I #
coedge $-1 $381 $380 $373 $479 forward $254 $-1 #
coedge $-1 $373 $256 $258 $377 reversed $155 $-1 #
coedge $-1 $256 $372 $371 $479 reversed $155 $-1 #
coedge $-1 $264 $259 $256 $375 forward $265 $-1 #
edge $-1 $378 31.991720533603562 $480 40.987938495791219 $374 $481 forward 7 unknown #
coedge $-1 $258 $257 $381 $482 reversed $97 $-1 #
edge $-1 $483 -117.642750328074 $378 -106.37826494809502 $372 $484 forward 7 unknown #
vertex $-1 $260 $485 #
straight-curve $-1 49.825157201849336 -6.257748177430793 13.422604956014446 0 -1 0 I I #
coedge $-1 $371 $261 $264 $385 reversed $254 $-1 #
coedge $-1 $261 $371 $376 $482 forward $254 $-1 #
vertex $-1 $262 $486 #
straight-curve $-1 58.821375164036994 -6.5609250087009698 85.698160492661472 0 0 1 I I #
straight-curve $-1 -35.132302072175364 -6.5609250087009698 77.442643749110587 0.79863550430605224 0 -0.6018150307709319 I I #
edge $-1 $480 -18.470067701022202 $266 -6.5609250087009698 $380 $487 forward 7 unknown #
point $-1 58.821375164036994 -6.5609250087009698 13.422604956014442 #
point $-1 49.825157201849336 -6.5609250087009698 13.422604956014439 #
edge $-1 $488 1 $488 0 $269 $-1 forward 7 unknown #
vertex $-1 $270 $489 #
ellipse-curve $-1 52.178114348812706 -15.067455503216136 7.1863240716601444 0.6018150307709319 0 0.79863550430605224 0.79863550430605224 0 -0.6018150307709319 1 I I #
point $-1 55.121901687249206 -15.067455503216136 9.4312216174581351 #
edge $-1 $490 1 $490 0 $273 $-1 forward 7 unknown #
vertex $-1 $274 $491 #
ellipse-curve $-1 52.178114348812706 -9.9635372065070378 7.1863240716601444 0.6018150307709319 0 0.79863550430605224 0.79863550430605224 0 -0.6018150307709319 1 I I #
point $-1 55.121901687249206 -9.9635372065070378 9.4312216174581351 #
loop $-1 $-1 $285 $277 #
plane-surface $-1 -58.821375164036994 0 0 1 0 0 0 0 -1 forward_v I I I I #
coedge $-1 $399 $280 $282 $403 reversed $177 $-1 #
coedge $-1 $280 $398 $492 $493 reversed $177 $-1 #
coedge $-1 $288 $283 $280 $401 forward $278 $-1 #
edge $-1 $404 -18.919137662057523 $494 -12.182306157774889 $400 $495 forward 7 unknown #
coedge $-1 $282 $281 $407 $496 reversed $111 $-1 #
edge $-1 $497 2.0097183471152325e-014 $404 9.5273185913200695 $398 $498 forward 7 unknown #
vertex $-1 $284 $499 #
straight-curve $-1 -52.08454365975436 0.46248329524748399 13.422604956014442 0 1 0 I I #
coedge $-1 $492 $285 $288 $411 reversed $396 $-1 #
coedge $-1 $285 $492 $402 $496 forward $396 $-1 #
vertex $-1 $286 $500 #
straight-curve $-1 -58.821375164036994 -3.2209579547962086 44.935879422325137 0 0 1 I I #
straight-curve $-1 -58.821375164037008 -3.2209579547962086 6.6857732954029245 -0.70710677298230451 0 -0.70710678939079041 I I #
edge $-1 $494 -5.0708911357861446 $289 3.2209579547962086 $406 $501 forward 7 unknown #
point $-1 -58.821375164036994 -3.2209579547962086 13.422604956014442 #
point $-1 -52.08454365975436 -3.2209579547962086 13.422604956014442 #
edge $-1 $502 1 $502 0 $292 $-1 forward 7 unknown #
vertex $-1 $293 $503 #
ellipse-curve $-1 -54.737436482856381 -0.85185821462982148 9.3386662132731733 -0.70710678939079041 0 0.70710677298230451 0.70710677298230451 0 0.70710678939079041 1 I I #
point $-1 -54.74585263891337 -0.85185821462982148 10.76129591509947 #
edge $-1 $504 1 $504 0 $296 $-1 forward 7 unknown #
vertex $-1 $297 $505 #
ellipse-curve $-1 -54.737436482856381 2.7017913956197575 9.3386662132731733 -0.70710678939079041 0 0.70710677298230451 0.70710677298230451 0 0.70710678939079041 1 I I #
point $-1 -54.74585263891337 2.7017913956197575 10.76129591509947 #
loop $-1 $-1 $307 $300 #
plane-surface $-1 -58.821375164036994 0 0 1 0 0 0 0 -1 forward_v I I I I #
coedge $-1 $506 $507 $304 $426 forward $301 $-1 #
coedge $-1 $304 $303 $431 $508 reversed $125 $-1 #
edge $-1 $428 8.9053999512382553 $509 18.432718542558298 $424 $510 forward 7 unknown #
coedge $-1 $310 $305 $507 $511 forward $199 $-1 #
vertex $-1 $511 $512 #
straight-curve $-1 -52.08454365975436 12.232962713651657 13.422604956014442 0 1 0 I I #
coedge $-1 $513 $307 $310 $435 reversed $422 $-1 #
coedge $-1 $307 $513 $425 $508 forward $422 $-1 #
vertex $-1 $308 $514 #
straight-curve $-1 -58.821375164036994 20.320000882012138 44.935879422325137 0 0 1 I I #
straight-curve $-1 -58.821375164037008 20.320000882012138 6.6857732954029245 -0.70710677298230451 0 -0.70710678939079041 I I #
edge $-1 $515 -28.611849972594488 $311 -20.320000882012138 $430 $516 forward 7 unknown #
point $-1 -58.821375164036994 20.320000882012138 13.422604956014442 #
point $-1 -52.08454365975436 20.320000882012138 13.422604956014442 #
edge $-1 $517 1 $517 0 $314 $-1 forward 7 unknown #
vertex $-1 $315 $518 #
ellipse-curve $-1 -54.737436482856381 22.689100622178525 9.3386662132731733 -0.70710678939079041 0 0.70710677298230451 0.70710677298230451 0 0.70710678939079041 1 I I #
point $-1 -54.74585263891337 22.689100622178525 10.76129591509947 #
edge $-1 $519 1 $519 0 $318 $-1 forward 7 unknown #
vertex $-1 $319 $520 #
ellipse-curve $-1 -54.737436482856381 26.242750232428104 9.3386662132731733 -0.70710678939079041 0 0.70710677298230451 0.70710677298230451 0 0.70710678939079041 1 I I #
point $-1 -54.74585263891337 26.242750232428104 10.76129591509947 #
plane-surface $-1 58.821375164036994 0 0 -1 0 0 0 0 1 forward_v I I I I #
coedge $-1 $327 $325 $329 $451 reversed $221 $-1 #
edge $-1 $340 -13.422604956014442 $453 13.422604956014442 $339 $521 forward 7 unknown #
vertex $-1 $451 $522 #
straight-curve $-1 -58.821375164036994 -28.611849972594488 0 0 0 -1 I I #
edge $-1 $449 -28.611849972594488 $453 28.611849972594488 $447 $523 forward 7 unknown #
straight-curve $-1 0 -28.611849972594488 -13.422604956014442 -1 0 0 I I #
vertex $-1 $332 $524 #
straight-curve $-1 0 28.611849972594488 -13.422604956014442 1 0 0 I I #
point $-1 58.821375164036994 28.611849972594488 -13.422604956014442 #
point $-1 58.821375164036994 -28.611849972594488 -13.422604956014442 #
straight-curve $-1 -58.821375164036994 0 13.422604956014442 0 -1 0 I I #
point $-1 -58.821375164036994 28.611849972594488 13.422604956014442 #
point $-1 -58.821375164036994 -28.611849972594488 13.422604956014442 #
straight-curve $-1 58.821375164036994 -28.611849972594488 0 0 0 -1 I I #
straight-curve $-1 58.821375164036994 28.611849972594488 0 0 0 -1 I I #
plane-surface $-1 58.821375164036994 0 0 -1 0 0 0 0 1 forward_v I I I I #
coedge $-1 $525 $466 $356 $471 forward $350 $-1 #
coedge $-1 $357 $352 $525 $526 forward $240 $-1 #
edge $-1 $366 -5.070891135786141 $527 5.070891135786141 $364 $528 forward 7 unknown #
coedge $-1 $463 $529 $353 $467 reversed $350 $-1 #
edge $-1 $474 -58.821375164036994 $469 58.821375164036994 $466 $530 forward 7 unknown #
coedge $-1 $364 $354 $529 $531 forward $365 $-1 #
vertex $-1 $355 $532 #
straight-curve $-1 58.821375164036994 -33.682741108380633 -3.5108406408731834 0 1 0 I I #
edge $-1 $474 -1.8582403900866216 $472 1.8582403900866211 $356 $533 forward 7 unknown #
vertex $-1 $358 $534 #
straight-curve $-1 -58.821375164036994 -33.682741108380633 -7.2273214210464261 0 1 0 I I #
vertex $-1 $359 $535 #
straight-curve $-1 -58.821375164036994 -33.682741108380633 -3.5108406408731834 0 -1 0 I I #
point $-1 -58.821375164036994 -28.611849972594491 -7.2273214210464261 #
straight-curve $-1 0 -28.611849972594488 -7.2273214210464261 -1 0 0 I I #
point $-1 58.821375164036994 -28.611849972594491 -7.2273214210464261 #
edge $-1 $480 72.275555536647033 $483 79.054692152217797 $371 $536 forward 7 unknown #
vertex $-1 $385 $537 #
straight-curve $-1 17.833436668245774 -18.470067701022202 13.422604956014439 1 0 0 I I #
edge $-1 $483 -12.212319523591409 $382 -0.30317683127017681 $381 $538 forward 7 unknown #
vertex $-1 $482 $539 #
straight-curve $-1 -35.132302072175364 -18.470067701022202 77.442643749110587 -0.79863550430605224 0 0.6018150307709319 I I #
point $-1 49.825157201849336 -18.470067701022202 13.422604956014439 #
point $-1 58.821375164036994 -6.5609250087009698 6.6434683404436754 #
straight-curve $-1 58.821375164036994 0 13.422604956014442 0 1 0 I I #
vertex $-1 $388 $540 #
point $-1 52.976749853118754 -15.067455503216136 6.5845090408892126 #
vertex $-1 $392 $541 #
point $-1 52.976749853118754 -9.9635372065070378 6.5845090408892126 #
coedge $-1 $407 $406 $399 $493 forward $396 $-1 #
edge $-1 $494 31.513274466310694 $497 38.250106126922198 $492 $542 forward 7 unknown #
vertex $-1 $411 $543 #
straight-curve $-1 -71.003681321811882 5.0708911357861446 13.422604956014439 -1 0 0 I I #
edge $-1 $497 -4.6084078405386606 $408 3.6834412500436926 $407 $544 forward 7 unknown #
vertex $-1 $496 $545 #
straight-curve $-1 -58.821375164037008 5.0708911357861446 6.6857732954029245 0.70710677298230451 0 0.70710678939079041 I I #
point $-1 -52.08454365975436 5.0708911357861446 13.422604956014442 #
point $-1 -58.821375164036994 -3.2209579547962086 6.6857732954029387 #
straight-curve $-1 -58.821375164036994 0 13.422604956014442 0 -1 0 I I #
vertex $-1 $414 $546 #
point $-1 -54.030329709874074 -0.85185821462982148 10.045773002663964 #
vertex $-1 $418 $547 #
point $-1 -54.030329709874074 2.7017913956197575 10.045773002663964 #
coedge $-1 $507 $424 $513 $548 reversed $301 $-1 #
coedge $-1 $424 $506 $427 $511 reversed $301 $-1 #
edge $-1 $509 -16.378887258942832 $432 -8.0870381683604808 $431 $549 forward 7 unknown #
vertex $-1 $426 $550 #
straight-curve $-1 -45.787475038117506 28.611849972594488 19.719673723775426 -0.70710677298230462 0 -0.70710678939079052 I I #
edge $-1 $428 52.08454365975436 $515 58.821375164036994 $507 $551 forward 7 unknown #
point $-1 -52.08454365975436 28.611849972594491 13.422604956014442 #
coedge $-1 $431 $430 $506 $548 forward $422 $-1 #
point $-1 -58.821375164036994 20.320000882012138 6.6857732954029387 #
vertex $-1 $511 $552 #
straight-curve $-1 -58.821375164036994 0 13.422604956014442 0 -1 0 I I #
vertex $-1 $438 $553 #
point $-1 -54.030329709874074 22.689100622178525 10.045773002663964 #
vertex $-1 $442 $554 #
point $-1 -54.030329709874074 26.242750232428104 10.045773002663964 #
straight-curve $-1 -58.821375164036994 28.611849972594488 0 0 0 -1 I I #
point $-1 -58.821375164036994 -28.611849972594488 -13.422604956014442 #
straight-curve $-1 -58.821375164036994 0 -13.422604956014442 0 1 0 I I #
point $-1 -58.821375164036994 28.611849972594488 -13.422604956014442 #
coedge $-1 $529 $463 $464 $526 reversed $350 $-1 #
edge $-1 $527 -58.821375164036994 $472 58.821375164036994 $525 $555 forward 7 unknown #
vertex $-1 $531 $556 #
straight-curve $-1 58.821375164036994 -33.682741108380633 -7.2273214210464261 0 -1 0 I I #
coedge $-1 $466 $525 $468 $531 reversed $350 $-1 #
straight-curve $-1 0 -38.753632244166774 -3.5108406408731834 1 0 0 I I #
edge $-1 $469 -1.8582403900866216 $527 1.8582403900866211 $468 $557 forward 7 unknown #
point $-1 58.821375164036994 -38.753632244166774 -3.5108406408731834 #
straight-curve $-1 -58.821375164036994 -38.753632244166774 -5.3690810309598049 0 0 -1 I I #
point $-1 -58.821375164036994 -38.753632244166774 -7.2273214210464261 #
point $-1 -58.821375164036994 -38.753632244166774 -3.5108406408731834 #
straight-curve $-1 58.821375164036994 -18.470067701022202 85.698160492661472 0 0 -1 I I #
point $-1 58.821375164036994 -18.470067701022202 13.422604956014442 #
straight-curve $-1 58.821375164036994 -6.257748177430793 6.6434683404436825 0 1 0 I I #
point $-1 58.821375164036994 -18.470067701022202 6.6434683404436754 #
point $-1 51.576299318041769 -15.067455503216136 6.3876885673540906 #
point $-1 51.576299318041769 -9.9635372065070378 6.3876885673540906 #
straight-curve $-1 -58.821375164036994 5.0708911357861446 44.935879422325137 0 0 -1 I I #
point $-1 -58.821375164036994 5.0708911357861446 13.422604956014442 #
straight-curve $-1 -58.821375164036994 0.46248329524748399 6.6857732954029352 0 -1 0 I I #
point $-1 -58.821375164036994 5.0708911357861446 6.6857732954029387 #
point $-1 -54.030329693465589 -0.85185821462982148 8.6315594402908697 #
point $-1 -54.030329693465589 2.7017913956197575 8.6315594402908697 #
edge $-1 $515 -13.422604956014442 $509 -6.6857732954029387 $506 $558 forward 7 unknown #
straight-curve $-1 -58.821375164036994 12.232962713651657 6.6857732954029352 0 -1 0 I I #
point $-1 -58.821375164036994 28.611849972594491 6.6857732954029387 #
straight-curve $-1 0 28.611849972594488 13.422604956014442 -1 0 0 I I #
point $-1 -58.821375164036994 28.611849972594488 13.422604956014442 #
point $-1 -54.030329693465589 22.689100622178525 8.6315594402908697 #
point $-1 -54.030329693465589 26.242750232428104 8.6315594402908697 #
straight-curve $-1 0 -38.753632244166774 -7.2273214210464261 -1 0 0 I I #
point $-1 58.821375164036994 -38.753632244166774 -7.2273214210464261 #
straight-curve $-1 58.821375164036994 -38.753632244166774 -5.3690810309598049 0 0 -1 I I #
straight-curve $-1 -58.821375164036994 28.611849972594488 0 0 0 -1 I I #
End-of-ACIS-data 