500 0 10 0           
7 Unknown 11 ACIS 5.0 NT 24 Fri Mar 26 14:28:31 1999 
-1 9.9999999999999995e-007 1e-010 
body $-1 $10 $-1 $11 #
body $-1 $12 $-1 $13 #
body $-1 $14 $-1 $15 #
body $-1 $16 $-1 $17 #
body $-1 $18 $-1 $19 #
body $-1 $20 $-1 $21 #
body $-1 $22 $-1 $23 #
body $-1 $24 $-1 $25 #
body $-1 $26 $-1 $27 #
body $-1 $28 $-1 $29 #
lump $-1 $-1 $30 $0 #
transform $-1 1 0 0 0 1 0 0 0 1 67.077242347483747 40.56712557987764 16.053523483051773 1 rotate no_reflect no_shear #
lump $-1 $-1 $31 $1 #
transform $-1 1 0 0 0 1 0 0 0 1 67.077242347483747 6.8853286388439443 25.107418732974935 1 rotate no_reflect no_shear #
lump $-1 $-1 $32 $2 #
transform $-1 1 0 0 0 1 0 0 0 1 67.077242347483747 74.248922520911336 25.107418732974935 1 rotate no_reflect no_shear #
lump $-1 $-1 $33 $3 #
transform $-1 0.49999998660252726 0 0.86602541151947299 0 1 0 -0.86602541151947299 0 0.49999998660252726 -116.18119281514207 23.290913596995498 95.878734596809835 1 rotate no_reflect no_shear #
lump $-1 $-1 $34 $4 #
transform $-1 0.49999998660252726 0 0.86602541151947299 0 -1 0 0.86602541151947299 0 -0.49999998660252726 2.0367626642393866 23.290913596995498 29.829270523127178 1 rotate no_reflect no_shear #
lump $-1 $-1 $35 $5 #
transform $-1 0.49999998660252726 0 0.86602541151947299 0 1 0 -0.86602541151947299 0 0.49999998660252726 -116.18119281514207 50.087381899185246 95.878734596809835 1 rotate no_reflect no_shear #
lump $-1 $-1 $36 $6 #
transform $-1 0.49999998660252726 0 0.86602541151947299 0 -1 0 0.86602541151947299 0 -0.49999998660252726 2.0367626642393866 50.087381899185246 29.829270523127178 1 rotate no_reflect no_shear #
lump $-1 $-1 $37 $7 #
transform $-1 0.69465836192734942 0 -0.71933980857756763 0 1 0 0.71933980857756763 0 0.69465836192734942 137.46561145185382 60.147996614378002 205.75449176612761 1 rotate no_reflect no_shear #
lump $-1 $-1 $38 $8 #
transform $-1 0.69465836192734942 0 -0.71933980857756763 0 -1 0 -0.71933980857756763 0 -0.69465836192734942 123.77006038978588 57.055597785368263 21.537786773682612 1 rotate no_reflect no_shear #
lump $-1 $-1 $39 $9 #
transform $-1 0.69465836192734942 0 -0.71933980857756763 0 -1 0 -0.71933980857756763 0 -0.69465836192734942 123.77006038978588 63.24039544338774 21.537786773682612 1 rotate no_reflect no_shear #
shell $-1 $-1 $-1 $40 $-1 $10 #
shell $-1 $-1 $-1 $41 $-1 $12 #
shell $-1 $-1 $-1 $42 $-1 $14 #
shell $-1 $-1 $-1 $43 $-1 $16 #
shell $-1 $-1 $-1 $44 $-1 $18 #
shell $-1 $-1 $-1 $45 $-1 $20 #
shell $-1 $-1 $-1 $46 $-1 $22 #
shell $-1 $-1 $-1 $47 $-1 $24 #
shell $-1 $-1 $-1 $48 $-1 $26 #
shell $-1 $-1 $-1 $49 $-1 $28 #
face $-1 $50 $51 $30 $-1 $52 forward single #
face $-1 $53 $54 $31 $-1 $55 forward single #
face $-1 $56 $57 $32 $-1 $58 forward single #
face $-1 $59 $60 $33 $-1 $61 forward single #
face $-1 $62 $63 $34 $-1 $64 forward single #
face $-1 $65 $66 $35 $-1 $67 forward single #
face $-1 $68 $69 $36 $-1 $70 forward single #
face $-1 $71 $72 $37 $-1 $73 forward single #
face $-1 $74 $75 $38 $-1 $76 forward single #
face $-1 $77 $78 $39 $-1 $79 forward single #
face $-1 $80 $81 $30 $-1 $82 reversed single #
loop $-1 $-1 $83 $40 #
plane-surface $-1 0 0 16.053523483051773 0 0 1 1 0 0 forward_v I I I I #
face $-1 $84 $85 $31 $-1 $86 reversed single #
loop $-1 $-1 $87 $41 #
plane-surface $-1 0 0 2.0126798248458808 0 0 1 1 0 0 forward_v I I I I #
face $-1 $88 $89 $32 $-1 $90 reversed single #
loop $-1 $-1 $91 $42 #
plane-surface $-1 0 0 2.0126798248458808 0 0 1 1 0 0 forward_v I I I I #
face $-1 $92 $93 $33 $-1 $94 reversed single #
loop $-1 $-1 $95 $43 #
plane-surface $-1 0 0 134.15448469496749 0 0 1 1 0 0 forward_v I I I I #
face $-1 $96 $97 $34 $-1 $98 forward single #
loop $-1 $99 $100 $44 #
cone-surface $-1 0 0 -0.75 0 0 1 0.5 0 0 1 I I 0 1 0.5 forward I I I I #
face $-1 $101 $102 $35 $-1 $103 reversed single #
loop $-1 $-1 $104 $45 #
plane-surface $-1 0 0 134.15448469496749 0 0 1 1 0 0 forward_v I I I I #
face $-1 $105 $106 $36 $-1 $107 forward single #
loop $-1 $108 $109 $46 #
cone-surface $-1 0 0 -0.75 0 0 1 0.5 0 0 1 I I 0 1 0.5 forward I I I I #
face $-1 $110 $111 $37 $-1 $112 reversed single #
loop $-1 $-1 $113 $47 #
plane-surface $-1 0 0 134.15448469496749 0 0 1 1 0 0 forward_v I I I I #
face $-1 $114 $115 $38 $-1 $116 forward single #
loop $-1 $117 $118 $48 #
cone-surface $-1 0 0 -2.2074724570451973 0 0 1 1.5 0 0 1 I I 0 1 1.5 forward I I I I #
face $-1 $119 $120 $39 $-1 $121 forward single #
loop $-1 $122 $123 $49 #
cone-surface $-1 0 0 -2.2074724570451973 0 0 1 1.5 0 0 1 I I 0 1 1.5 forward I I I I #
face $-1 $124 $125 $30 $-1 $126 reversed single #
loop $-1 $-1 $127 $50 #
plane-surface $-1 0 0 -16.053523483051773 0 0 1 1 0 0 forward_v I I I I #
coedge $-1 $128 $129 $130 $131 forward $51 $-1 #
face $-1 $132 $133 $31 $-1 $134 reversed single #
loop $-1 $-1 $135 $53 #
plane-surface $-1 0 0 -2.0126798248458808 0 0 1 1 0 0 forward_v I I I I #
coedge $-1 $136 $137 $138 $139 forward $54 $-1 #
face $-1 $140 $141 $32 $-1 $142 reversed single #
loop $-1 $-1 $143 $56 #
plane-surface $-1 0 0 -2.0126798248458808 0 0 1 1 0 0 forward_v I I I I #
coedge $-1 $144 $145 $146 $147 forward $57 $-1 #
face $-1 $148 $149 $33 $-1 $150 reversed single #
loop $-1 $-1 $151 $59 #
plane-surface $-1 0 0 -134.15448469496749 0 0 1 1 0 0 forward_v I I I I #
coedge $-1 $152 $153 $154 $155 forward $60 $-1 #
face $-1 $-1 $156 $34 $-1 $157 forward single #
loop $-1 $-1 $158 $62 #
plane-surface $-1 0 0 -1.25 0 0 -1 -1 0 0 forward_v I I I I #
loop $-1 $-1 $159 $44 #
coedge $-1 $100 $100 $158 $160 reversed $63 $-1 #
face $-1 $161 $162 $35 $-1 $163 reversed single #
loop $-1 $-1 $164 $65 #
plane-surface $-1 0 0 -134.15448469496749 0 0 1 1 0 0 forward_v I I I I #
coedge $-1 $165 $166 $167 $168 forward $66 $-1 #
face $-1 $-1 $169 $36 $-1 $170 forward single #
loop $-1 $-1 $171 $68 #
plane-surface $-1 0 0 -1.25 0 0 -1 -1 0 0 forward_v I I I I #
loop $-1 $-1 $172 $46 #
coedge $-1 $109 $109 $171 $173 reversed $69 $-1 #
face $-1 $174 $175 $37 $-1 $176 reversed single #
loop $-1 $-1 $177 $71 #
plane-surface $-1 0 0 -134.15448469496749 0 0 1 1 0 0 forward_v I I I I #
coedge $-1 $178 $179 $180 $181 forward $72 $-1 #
face $-1 $-1 $182 $38 $-1 $183 forward single #
loop $-1 $-1 $184 $74 #
plane-surface $-1 0 0 -3.6649449140903956 0 0 -1 -1 0 0 forward_v I I I I #
loop $-1 $-1 $185 $48 #
coedge $-1 $118 $118 $184 $186 reversed $75 $-1 #
face $-1 $-1 $187 $39 $-1 $188 forward single #
loop $-1 $-1 $189 $77 #
plane-surface $-1 0 0 -3.6649449140903956 0 0 -1 -1 0 0 forward_v I I I I #
loop $-1 $-1 $190 $49 #
coedge $-1 $123 $123 $189 $191 reversed $78 $-1 #
face $-1 $192 $193 $30 $-1 $194 reversed single #
loop $-1 $-1 $195 $80 #
plane-surface $-1 0 -40.56712557987764 0 0 1 0 0 0 1 forward_v I I I I #
coedge $-1 $196 $197 $198 $199 forward $81 $-1 #
coedge $-1 $200 $83 $201 $202 forward $51 $-1 #
coedge $-1 $83 $200 $203 $204 forward $51 $-1 #
coedge $-1 $205 $206 $83 $131 reversed $207 $-1 #
edge $-1 $208 -40.56712557987764 $209 40.56712557987764 $130 $210 forward 7 unknown #
face $-1 $211 $212 $31 $-1 $213 reversed single #
loop $-1 $-1 $214 $84 #
plane-surface $-1 0 -6.8853286388439443 0 0 1 0 0 0 1 forward_v I I I I #
coedge $-1 $215 $216 $217 $218 forward $85 $-1 #
coedge $-1 $219 $87 $220 $221 forward $54 $-1 #
coedge $-1 $87 $219 $222 $223 forward $54 $-1 #
coedge $-1 $224 $225 $87 $139 reversed $226 $-1 #
edge $-1 $227 -6.8853286388439443 $228 6.8853286388439443 $138 $229 forward 7 unknown #
face $-1 $230 $231 $32 $-1 $232 reversed single #
loop $-1 $-1 $233 $88 #
plane-surface $-1 0 -6.8853286388439443 0 0 1 0 0 0 1 forward_v I I I I #
coedge $-1 $234 $235 $236 $237 forward $89 $-1 #
coedge $-1 $238 $91 $239 $240 forward $57 $-1 #
coedge $-1 $91 $238 $241 $242 forward $57 $-1 #
coedge $-1 $243 $244 $91 $147 reversed $245 $-1 #
edge $-1 $246 -6.8853286388439443 $247 6.8853286388439443 $146 $248 forward 7 unknown #
face $-1 $249 $250 $33 $-1 $251 reversed single #
loop $-1 $-1 $252 $92 #
plane-surface $-1 0 -4.8323425779964744 0 0 1 0 0 0 1 forward_v I I I I #
coedge $-1 $253 $254 $255 $256 forward $93 $-1 #
coedge $-1 $257 $95 $258 $259 forward $60 $-1 #
coedge $-1 $95 $257 $260 $261 forward $60 $-1 #
coedge $-1 $262 $263 $95 $155 reversed $264 $-1 #
edge $-1 $265 -4.8323425779964744 $266 4.8323425779964744 $154 $267 forward 7 unknown #
loop $-1 $268 $269 $96 #
cone-surface $-1 0 0 0 0 0 1 0.25 0 0 1 I I -0.70710678118654746 0.70710678118654746 0.25 forward I I I I #
coedge $-1 $158 $158 $100 $160 forward $97 $-1 #
coedge $-1 $159 $159 $269 $270 forward $99 $-1 #
edge $-1 $271 0 $271 6.2831853071796004 $158 $272 forward 7 unknown #
face $-1 $273 $274 $35 $-1 $275 reversed single #
loop $-1 $-1 $276 $101 #
plane-surface $-1 0 -4.8323425779964744 0 0 1 0 0 0 1 forward_v I I I I #
coedge $-1 $277 $278 $279 $280 forward $102 $-1 #
coedge $-1 $281 $104 $282 $283 forward $66 $-1 #
coedge $-1 $104 $281 $284 $285 forward $66 $-1 #
coedge $-1 $286 $287 $104 $168 reversed $288 $-1 #
edge $-1 $289 -4.8323425779964744 $290 4.8323425779964744 $167 $291 forward 7 unknown #
loop $-1 $292 $293 $105 #
cone-surface $-1 0 0 0 0 0 1 0.25 0 0 1 I I -0.70710678118654746 0.70710678118654746 0.25 forward I I I I #
coedge $-1 $171 $171 $109 $173 forward $106 $-1 #
coedge $-1 $172 $172 $293 $294 forward $108 $-1 #
edge $-1 $295 0 $295 6.2831853071796004 $171 $296 forward 7 unknown #
face $-1 $297 $298 $37 $-1 $299 reversed single #
loop $-1 $-1 $300 $110 #
plane-surface $-1 0 -7.2155972676893896 0 0 1 0 0 0 1 forward_v I I I I #
coedge $-1 $301 $302 $303 $304 forward $111 $-1 #
coedge $-1 $305 $113 $306 $307 forward $72 $-1 #
coedge $-1 $113 $305 $308 $309 forward $72 $-1 #
coedge $-1 $310 $311 $113 $181 reversed $312 $-1 #
edge $-1 $313 -7.2155972676893896 $314 7.2155972676893896 $180 $315 forward 7 unknown #
loop $-1 $316 $317 $114 #
cone-surface $-1 0 0 0 0 0 1 0.75 0 0 1 I I -0.70710678118654757 0.70710678118654757 0.75 forward I I I I #
coedge $-1 $184 $184 $118 $186 forward $115 $-1 #
coedge $-1 $185 $185 $317 $318 forward $117 $-1 #
edge $-1 $319 0 $319 6.2831853071796004 $184 $320 forward 7 unknown #
loop $-1 $321 $322 $119 #
cone-surface $-1 0 0 0 0 0 1 0.75 0 0 1 I I -0.70710678118654757 0.70710678118654757 0.75 forward I I I I #
coedge $-1 $189 $189 $123 $191 forward $120 $-1 #
coedge $-1 $190 $190 $322 $323 forward $122 $-1 #
edge $-1 $324 0 $324 6.2831853071796004 $189 $325 forward 7 unknown #
face $-1 $326 $327 $30 $-1 $328 reversed single #
loop $-1 $-1 $329 $124 #
plane-surface $-1 -67.077242347483747 0 0 1 0 0 0 0 -1 forward_v I I I I #
coedge $-1 $330 $203 $331 $332 forward $125 $-1 #
coedge $-1 $333 $127 $330 $334 forward $81 $-1 #
coedge $-1 $127 $333 $335 $336 forward $81 $-1 #
coedge $-1 $206 $205 $127 $199 reversed $207 $-1 #
edge $-1 $337 -40.56712557987764 $338 40.56712557987764 $198 $339 forward 7 unknown #
coedge $-1 $129 $128 $340 $341 forward $51 $-1 #
coedge $-1 $342 $343 $128 $202 reversed $327 $-1 #
edge $-1 $209 -67.077242347483747 $344 67.077242347483747 $201 $345 forward 7 unknown #
coedge $-1 $195 $346 $129 $204 reversed $125 $-1 #
edge $-1 $347 -67.077242347483747 $208 67.077242347483747 $203 $348 forward 7 unknown #
coedge $-1 $198 $130 $346 $349 forward $207 $-1 #
coedge $-1 $130 $198 $342 $350 reversed $207 $-1 #
loop $-1 $-1 $205 $326 #
vertex $-1 $131 $351 #
vertex $-1 $131 $352 #
straight-curve $-1 67.077242347483747 0 16.053523483051773 0 1 0 I I #
face $-1 $353 $354 $31 $-1 $355 reversed single #
loop $-1 $-1 $356 $132 #
plane-surface $-1 -67.077242347483747 0 0 1 0 0 0 0 -1 forward_v I I I I #
coedge $-1 $357 $222 $358 $359 forward $133 $-1 #
coedge $-1 $360 $135 $357 $361 forward $85 $-1 #
coedge $-1 $135 $360 $362 $363 forward $85 $-1 #
coedge $-1 $225 $224 $135 $218 reversed $226 $-1 #
edge $-1 $364 -6.8853286388439443 $365 6.8853286388439443 $217 $366 forward 7 unknown #
coedge $-1 $137 $136 $367 $368 forward $54 $-1 #
coedge $-1 $369 $370 $136 $221 reversed $354 $-1 #
edge $-1 $228 -67.077242347483747 $371 67.077242347483747 $220 $372 forward 7 unknown #
coedge $-1 $214 $373 $137 $223 reversed $133 $-1 #
edge $-1 $374 -67.077242347483747 $227 67.077242347483747 $222 $375 forward 7 unknown #
coedge $-1 $217 $138 $373 $376 forward $226 $-1 #
coedge $-1 $138 $217 $369 $377 reversed $226 $-1 #
loop $-1 $-1 $224 $353 #
vertex $-1 $139 $378 #
vertex $-1 $139 $379 #
straight-curve $-1 67.077242347483747 0 2.0126798248458808 0 1 0 I I #
face $-1 $380 $381 $32 $-1 $382 reversed single #
loop $-1 $-1 $383 $140 #
plane-surface $-1 -67.077242347483747 0 0 1 0 0 0 0 -1 forward_v I I I I #
coedge $-1 $384 $241 $385 $386 forward $141 $-1 #
coedge $-1 $387 $143 $384 $388 forward $89 $-1 #
coedge $-1 $143 $387 $389 $390 forward $89 $-1 #
coedge $-1 $244 $243 $143 $237 reversed $245 $-1 #
edge $-1 $391 -6.8853286388439443 $392 6.8853286388439443 $236 $393 forward 7 unknown #
coedge $-1 $145 $144 $394 $395 forward $57 $-1 #
coedge $-1 $396 $397 $144 $240 reversed $381 $-1 #
edge $-1 $247 -67.077242347483747 $398 67.077242347483747 $239 $399 forward 7 unknown #
coedge $-1 $233 $400 $145 $242 reversed $141 $-1 #
edge $-1 $401 -67.077242347483747 $246 67.077242347483747 $241 $402 forward 7 unknown #
coedge $-1 $236 $146 $400 $403 forward $245 $-1 #
coedge $-1 $146 $236 $396 $404 reversed $245 $-1 #
loop $-1 $-1 $243 $380 #
vertex $-1 $147 $405 #
vertex $-1 $147 $406 #
straight-curve $-1 67.077242347483747 0 2.0126798248458808 0 1 0 I I #
face $-1 $407 $408 $33 $-1 $409 reversed single #
loop $-1 $-1 $410 $148 #
plane-surface $-1 -268.30896938993499 0 0 1 0 0 0 0 -1 forward_v I I I I #
coedge $-1 $411 $260 $412 $413 forward $149 $-1 #
coedge $-1 $414 $151 $411 $415 forward $93 $-1 #
coedge $-1 $151 $414 $416 $417 forward $93 $-1 #
coedge $-1 $263 $262 $151 $256 reversed $264 $-1 #
edge $-1 $418 -4.8323425779964744 $419 4.8323425779964744 $255 $420 forward 7 unknown #
coedge $-1 $153 $152 $421 $422 forward $60 $-1 #
coedge $-1 $423 $424 $152 $259 reversed $408 $-1 #
edge $-1 $266 -268.30896938993499 $425 268.30896938993499 $258 $426 forward 7 unknown #
coedge $-1 $252 $427 $153 $261 reversed $149 $-1 #
edge $-1 $428 -268.30896938993499 $265 268.30896938993499 $260 $429 forward 7 unknown #
coedge $-1 $255 $154 $427 $430 forward $264 $-1 #
coedge $-1 $154 $255 $423 $431 reversed $264 $-1 #
loop $-1 $-1 $262 $407 #
vertex $-1 $155 $432 #
vertex $-1 $155 $433 #
straight-curve $-1 268.30896938993499 0 134.15448469496749 0 1 0 I I #
loop $-1 $-1 $434 $96 #
coedge $-1 $269 $269 $159 $270 reversed $156 $-1 #
edge $-1 $435 0 $435 6.2831853071796004 $269 $436 forward 7 unknown #
vertex $-1 $160 $437 #
ellipse-curve $-1 0 0 -1.25 0 0 -1 0.5 0 0 1 I I #
face $-1 $438 $439 $35 $-1 $440 reversed single #
loop $-1 $-1 $441 $161 #
plane-surface $-1 -268.30896938993499 0 0 1 0 0 0 0 -1 forward_v I I I I #
coedge $-1 $442 $284 $443 $444 forward $162 $-1 #
coedge $-1 $445 $164 $442 $446 forward $102 $-1 #
coedge $-1 $164 $445 $447 $448 forward $102 $-1 #
coedge $-1 $287 $286 $164 $280 reversed $288 $-1 #
edge $-1 $449 -4.8323425779964744 $450 4.8323425779964744 $279 $451 forward 7 unknown #
coedge $-1 $166 $165 $452 $453 forward $66 $-1 #
coedge $-1 $454 $455 $165 $283 reversed $439 $-1 #
edge $-1 $290 -268.30896938993499 $456 268.30896938993499 $282 $457 forward 7 unknown #
coedge $-1 $276 $458 $166 $285 reversed $162 $-1 #
edge $-1 $459 -268.30896938993499 $289 268.30896938993499 $284 $460 forward 7 unknown #
coedge $-1 $279 $167 $458 $461 forward $288 $-1 #
coedge $-1 $167 $279 $454 $462 reversed $288 $-1 #
loop $-1 $-1 $286 $438 #
vertex $-1 $168 $463 #
vertex $-1 $168 $464 #
straight-curve $-1 268.30896938993499 0 134.15448469496749 0 1 0 I I #
loop $-1 $-1 $465 $105 #
coedge $-1 $293 $293 $172 $294 reversed $169 $-1 #
edge $-1 $466 0 $466 6.2831853071796004 $293 $467 forward 7 unknown #
vertex $-1 $173 $468 #
ellipse-curve $-1 0 0 -1.25 0 0 -1 0.5 0 0 1 I I #
face $-1 $469 $470 $37 $-1 $471 reversed single #
loop $-1 $-1 $472 $174 #
plane-surface $-1 -268.30896938993499 0 0 1 0 0 0 0 -1 forward_v I I I I #
coedge $-1 $473 $308 $474 $475 forward $175 $-1 #
coedge $-1 $476 $177 $473 $477 forward $111 $-1 #
coedge $-1 $177 $476 $478 $479 forward $111 $-1 #
coedge $-1 $311 $310 $177 $304 reversed $312 $-1 #
edge $-1 $480 -7.2155972676893896 $481 7.2155972676893896 $303 $482 forward 7 unknown #
coedge $-1 $179 $178 $483 $484 forward $72 $-1 #
coedge $-1 $485 $486 $178 $307 reversed $470 $-1 #
edge $-1 $314 -268.30896938993499 $487 268.30896938993499 $306 $488 forward 7 unknown #
coedge $-1 $300 $489 $179 $309 reversed $175 $-1 #
edge $-1 $490 -268.30896938993499 $313 268.30896938993499 $308 $491 forward 7 unknown #
coedge $-1 $303 $180 $489 $492 forward $312 $-1 #
coedge $-1 $180 $303 $485 $493 reversed $312 $-1 #
loop $-1 $-1 $310 $469 #
vertex $-1 $181 $494 #
vertex $-1 $181 $495 #
straight-curve $-1 268.30896938993499 0 134.15448469496749 0 1 0 I I #
loop $-1 $-1 $496 $114 #
coedge $-1 $317 $317 $185 $318 reversed $182 $-1 #
edge $-1 $497 0 $497 6.2831853071796004 $317 $498 forward 7 unknown #
vertex $-1 $186 $499 #
ellipse-curve $-1 0 0 -3.6649449140903956 0 0 -1 1.5 0 0 1 I I #
loop $-1 $-1 $500 $119 #
coedge $-1 $322 $322 $190 $323 reversed $187 $-1 #
edge $-1 $501 0 $501 6.2831853071796004 $322 $502 forward 7 unknown #
vertex $-1 $191 $503 #
ellipse-curve $-1 0 0 -3.6649449140903956 0 0 -1 1.5 0 0 1 I I #
face $-1 $-1 $207 $30 $-1 $504 reversed single #
loop $-1 $-1 $342 $192 #
plane-surface $-1 0 40.56712557987764 0 0 -1 0 0 0 -1 forward_v I I I I #
coedge $-1 $505 $340 $343 $506 forward $193 $-1 #
coedge $-1 $346 $195 $196 $334 reversed $125 $-1 #
coedge $-1 $340 $505 $195 $332 reversed $193 $-1 #
edge $-1 $347 -16.053523483051773 $507 16.053523483051773 $331 $508 forward 7 unknown #
coedge $-1 $197 $196 $505 $509 forward $81 $-1 #
edge $-1 $338 -67.077242347483747 $507 67.077242347483747 $330 $510 forward 7 unknown #
coedge $-1 $343 $342 $197 $336 reversed $327 $-1 #
edge $-1 $511 -67.077242347483747 $337 67.077242347483747 $335 $512 forward 7 unknown #
vertex $-1 $199 $513 #
vertex $-1 $349 $514 #
straight-curve $-1 67.077242347483747 0 -16.053523483051773 0 -1 0 I I #
coedge $-1 $329 $331 $200 $341 reversed $193 $-1 #
edge $-1 $344 -40.56712557987764 $347 40.56712557987764 $340 $515 forward 7 unknown #
coedge $-1 $335 $201 $206 $350 forward $327 $-1 #
coedge $-1 $201 $335 $329 $506 reversed $327 $-1 #
vertex $-1 $202 $516 #
straight-curve $-1 0 40.56712557987764 16.053523483051773 -1 0 0 I I #
coedge $-1 $203 $330 $205 $349 reversed $125 $-1 #
vertex $-1 $341 $517 #
straight-curve $-1 0 -40.56712557987764 16.053523483051773 1 0 0 I I #
edge $-1 $208 -16.053523483051773 $338 16.053523483051773 $205 $518 forward 7 unknown #
edge $-1 $209 -16.053523483051773 $337 16.053523483051773 $206 $519 forward 7 unknown #
point $-1 67.077242347483747 -40.56712557987764 16.053523483051773 #
point $-1 67.077242347483747 40.56712557987764 16.053523483051773 #
face $-1 $-1 $226 $31 $-1 $520 reversed single #
loop $-1 $-1 $369 $211 #
plane-surface $-1 0 6.8853286388439443 0 0 -1 0 0 0 -1 forward_v I I I I #
coedge $-1 $521 $367 $370 $522 forward $212 $-1 #
coedge $-1 $373 $214 $215 $361 reversed $133 $-1 #
coedge $-1 $367 $521 $214 $359 reversed $212 $-1 #
edge $-1 $374 -2.0126798248458808 $523 2.0126798248458808 $358 $524 forward 7 unknown #
coedge $-1 $216 $215 $521 $525 forward $85 $-1 #
edge $-1 $365 -67.077242347483747 $523 67.077242347483747 $357 $526 forward 7 unknown #
coedge $-1 $370 $369 $216 $363 reversed $354 $-1 #
edge $-1 $527 -67.077242347483747 $364 67.077242347483747 $362 $528 forward 7 unknown #
vertex $-1 $218 $529 #
vertex $-1 $376 $530 #
straight-curve $-1 67.077242347483747 0 -2.0126798248458808 0 -1 0 I I #
coedge $-1 $356 $358 $219 $368 reversed $212 $-1 #
edge $-1 $371 -6.8853286388439443 $374 6.8853286388439443 $367 $531 forward 7 unknown #
coedge $-1 $362 $220 $225 $377 forward $354 $-1 #
coedge $-1 $220 $362 $356 $522 reversed $354 $-1 #
vertex $-1 $221 $532 #
straight-curve $-1 0 6.8853286388439443 2.0126798248458808 -1 0 0 I I #
coedge $-1 $222 $357 $224 $376 reversed $133 $-1 #
vertex $-1 $368 $533 #
straight-curve $-1 0 -6.8853286388439443 2.0126798248458808 1 0 0 I I #
edge $-1 $227 -2.0126798248458808 $365 2.0126798248458808 $224 $534 forward 7 unknown #
edge $-1 $228 -2.0126798248458808 $364 2.0126798248458808 $225 $535 forward 7 unknown #
point $-1 67.077242347483747 -6.8853286388439443 2.0126798248458808 #
point $-1 67.077242347483747 6.8853286388439443 2.0126798248458808 #
face $-1 $-1 $245 $32 $-1 $536 reversed single #
loop $-1 $-1 $396 $230 #
plane-surface $-1 0 6.8853286388439443 0 0 -1 0 0 0 -1 forward_v I I I I #
coedge $-1 $537 $394 $397 $538 forward $231 $-1 #
coedge $-1 $400 $233 $234 $388 reversed $141 $-1 #
coedge $-1 $394 $537 $233 $386 reversed $231 $-1 #
edge $-1 $401 -2.0126798248458808 $539 2.0126798248458808 $385 $540 forward 7 unknown #
coedge $-1 $235 $234 $537 $541 forward $89 $-1 #
edge $-1 $392 -67.077242347483747 $539 67.077242347483747 $384 $542 forward 7 unknown #
coedge $-1 $397 $396 $235 $390 reversed $381 $-1 #
edge $-1 $543 -67.077242347483747 $391 67.077242347483747 $389 $544 forward 7 unknown #
vertex $-1 $237 $545 #
vertex $-1 $403 $546 #
straight-curve $-1 67.077242347483747 0 -2.0126798248458808 0 -1 0 I I #
coedge $-1 $383 $385 $238 $395 reversed $231 $-1 #
edge $-1 $398 -6.8853286388439443 $401 6.8853286388439443 $394 $547 forward 7 unknown #
coedge $-1 $389 $239 $244 $404 forward $381 $-1 #
coedge $-1 $239 $389 $383 $538 reversed $381 $-1 #
vertex $-1 $240 $548 #
straight-curve $-1 0 6.8853286388439443 2.0126798248458808 -1 0 0 I I #
coedge $-1 $241 $384 $243 $403 reversed $141 $-1 #
vertex $-1 $395 $549 #
straight-curve $-1 0 -6.8853286388439443 2.0126798248458808 1 0 0 I I #
edge $-1 $246 -2.0126798248458808 $392 2.0126798248458808 $243 $550 forward 7 unknown #
edge $-1 $247 -2.0126798248458808 $391 2.0126798248458808 $244 $551 forward 7 unknown #
point $-1 67.077242347483747 -6.8853286388439443 2.0126798248458808 #
point $-1 67.077242347483747 6.8853286388439443 2.0126798248458808 #
face $-1 $-1 $264 $33 $-1 $552 reversed single #
loop $-1 $-1 $423 $249 #
plane-surface $-1 0 4.8323425779964744 0 0 -1 0 0 0 -1 forward_v I I I I #
coedge $-1 $553 $421 $424 $554 forward $250 $-1 #
coedge $-1 $427 $252 $253 $415 reversed $149 $-1 #
coedge $-1 $421 $553 $252 $413 reversed $250 $-1 #
edge $-1 $428 -134.15448469496749 $555 134.15448469496749 $412 $556 forward 7 unknown #
coedge $-1 $254 $253 $553 $557 forward $93 $-1 #
edge $-1 $419 -268.30896938993499 $555 268.30896938993499 $411 $558 forward 7 unknown #
coedge $-1 $424 $423 $254 $417 reversed $408 $-1 #
edge $-1 $559 -268.30896938993499 $418 268.30896938993499 $416 $560 forward 7 unknown #
vertex $-1 $256 $561 #
vertex $-1 $430 $562 #
straight-curve $-1 268.30896938993499 0 -134.15448469496749 0 -1 0 I I #
coedge $-1 $410 $412 $257 $422 reversed $250 $-1 #
edge $-1 $425 -4.8323425779964744 $428 4.8323425779964744 $421 $563 forward 7 unknown #
coedge $-1 $416 $258 $263 $431 forward $408 $-1 #
coedge $-1 $258 $416 $410 $554 reversed $408 $-1 #
vertex $-1 $259 $564 #
straight-curve $-1 0 4.8323425779964744 134.15448469496749 -1 0 0 I I #
coedge $-1 $260 $411 $262 $430 reversed $149 $-1 #
vertex $-1 $422 $565 #
straight-curve $-1 0 -4.8323425779964744 134.15448469496749 1 0 0 I I #
edge $-1 $265 -134.15448469496749 $419 134.15448469496749 $262 $566 forward 7 unknown #
edge $-1 $266 -134.15448469496749 $418 134.15448469496749 $263 $567 forward 7 unknown #
point $-1 268.30896938993499 -4.8323425779964744 134.15448469496749 #
point $-1 268.30896938993499 4.8323425779964744 134.15448469496749 #
coedge $-1 $434 $434 $-1 $568 reversed $268 $-1 #
vertex $-1 $270 $569 #
ellipse-curve $-1 0 0 -0.25 0 0 -1 0.5 0 0 1 I I #
point $-1 0.5 0 -1.25 #
face $-1 $-1 $288 $35 $-1 $570 reversed single #
loop $-1 $-1 $454 $273 #
plane-surface $-1 0 4.8323425779964744 0 0 -1 0 0 0 -1 forward_v I I I I #
coedge $-1 $571 $452 $455 $572 forward $274 $-1 #
coedge $-1 $458 $276 $277 $446 reversed $162 $-1 #
coedge $-1 $452 $571 $276 $444 reversed $274 $-1 #
edge $-1 $459 -134.15448469496749 $573 134.15448469496749 $443 $574 forward 7 unknown #
coedge $-1 $278 $277 $571 $575 forward $102 $-1 #
edge $-1 $450 -268.30896938993499 $573 268.30896938993499 $442 $576 forward 7 unknown #
coedge $-1 $455 $454 $278 $448 reversed $439 $-1 #
edge $-1 $577 -268.30896938993499 $449 268.30896938993499 $447 $578 forward 7 unknown #
vertex $-1 $280 $579 #
vertex $-1 $461 $580 #
straight-curve $-1 268.30896938993499 0 -134.15448469496749 0 -1 0 I I #
coedge $-1 $441 $443 $281 $453 reversed $274 $-1 #
edge $-1 $456 -4.8323425779964744 $459 4.8323425779964744 $452 $581 forward 7 unknown #
coedge $-1 $447 $282 $287 $462 forward $439 $-1 #
coedge $-1 $282 $447 $441 $572 reversed $439 $-1 #
vertex $-1 $283 $582 #
straight-curve $-1 0 4.8323425779964744 134.15448469496749 -1 0 0 I I #
coedge $-1 $284 $442 $286 $461 reversed $162 $-1 #
vertex $-1 $453 $583 #
straight-curve $-1 0 -4.8323425779964744 134.15448469496749 1 0 0 I I #
edge $-1 $289 -134.15448469496749 $450 134.15448469496749 $286 $584 forward 7 unknown #
edge $-1 $290 -134.15448469496749 $449 134.15448469496749 $287 $585 forward 7 unknown #
point $-1 268.30896938993499 -4.8323425779964744 134.15448469496749 #
point $-1 268.30896938993499 4.8323425779964744 134.15448469496749 #
coedge $-1 $465 $465 $-1 $586 reversed $292 $-1 #
vertex $-1 $294 $587 #
ellipse-curve $-1 0 0 -0.25 0 0 -1 0.5 0 0 1 I I #
point $-1 0.5 0 -1.25 #
face $-1 $-1 $312 $37 $-1 $588 reversed single #
loop $-1 $-1 $485 $297 #
plane-surface $-1 0 7.2155972676893896 0 0 -1 0 0 0 -1 forward_v I I I I #
coedge $-1 $589 $483 $486 $590 forward $298 $-1 #
coedge $-1 $489 $300 $301 $477 reversed $175 $-1 #
coedge $-1 $483 $589 $300 $475 reversed $298 $-1 #
edge $-1 $490 -134.15448469496749 $591 134.15448469496749 $474 $592 forward 7 unknown #
coedge $-1 $302 $301 $589 $593 forward $111 $-1 #
edge $-1 $481 -268.30896938993499 $591 268.30896938993499 $473 $594 forward 7 unknown #
coedge $-1 $486 $485 $302 $479 reversed $470 $-1 #
edge $-1 $595 -268.30896938993499 $480 268.30896938993499 $478 $596 forward 7 unknown #
vertex $-1 $304 $597 #
vertex $-1 $492 $598 #
straight-curve $-1 268.30896938993499 0 -134.15448469496749 0 -1 0 I I #
coedge $-1 $472 $474 $305 $484 reversed $298 $-1 #
edge $-1 $487 -7.2155972676893896 $490 7.2155972676893896 $483 $599 forward 7 unknown #
coedge $-1 $478 $306 $311 $493 forward $470 $-1 #
coedge $-1 $306 $478 $472 $590 reversed $470 $-1 #
vertex $-1 $307 $600 #
straight-curve $-1 0 7.2155972676893896 134.15448469496749 -1 0 0 I I #
coedge $-1 $308 $473 $310 $492 reversed $175 $-1 #
vertex $-1 $484 $601 #
straight-curve $-1 0 -7.2155972676893896 134.15448469496749 1 0 0 I I #
edge $-1 $313 -134.15448469496749 $481 134.15448469496749 $310 $602 forward 7 unknown #
edge $-1 $314 -134.15448469496749 $480 134.15448469496749 $311 $603 forward 7 unknown #
point $-1 268.30896938993499 -7.2155972676893896 134.15448469496749 #
point $-1 268.30896938993499 7.2155972676893896 134.15448469496749 #
coedge $-1 $496 $496 $-1 $604 reversed $316 $-1 #
vertex $-1 $318 $605 #
ellipse-curve $-1 0 0 -0.75 0 0 -1 1.5 0 0 1 I I #
point $-1 1.5 0 -3.6649449140903956 #
coedge $-1 $500 $500 $-1 $606 reversed $321 $-1 #
vertex $-1 $323 $607 #
ellipse-curve $-1 0 0 -0.75 0 0 -1 1.5 0 0 1 I I #
point $-1 1.5 0 -3.6649449140903956 #
plane-surface $-1 67.077242347483747 0 0 -1 0 0 0 0 1 forward_v I I I I #
coedge $-1 $331 $329 $333 $509 reversed $193 $-1 #
edge $-1 $344 -16.053523483051773 $511 16.053523483051773 $343 $608 forward 7 unknown #
vertex $-1 $509 $609 #
straight-curve $-1 -67.077242347483747 -40.56712557987764 0 0 0 -1 I I #
edge $-1 $507 -40.56712557987764 $511 40.56712557987764 $505 $610 forward 7 unknown #
straight-curve $-1 0 -40.56712557987764 -16.053523483051773 -1 0 0 I I #
vertex $-1 $336 $611 #
straight-curve $-1 0 40.56712557987764 -16.053523483051773 1 0 0 I I #
point $-1 67.077242347483747 40.56712557987764 -16.053523483051773 #
point $-1 67.077242347483747 -40.56712557987764 -16.053523483051773 #
straight-curve $-1 -67.077242347483747 0 16.053523483051773 0 -1 0 I I #
point $-1 -67.077242347483747 40.56712557987764 16.053523483051773 #
point $-1 -67.077242347483747 -40.56712557987764 16.053523483051773 #
straight-curve $-1 67.077242347483747 -40.56712557987764 0 0 0 -1 I I #
straight-curve $-1 67.077242347483747 40.56712557987764 0 0 0 -1 I I #
plane-surface $-1 67.077242347483747 0 0 -1 0 0 0 0 1 forward_v I I I I #
coedge $-1 $358 $356 $360 $525 reversed $212 $-1 #
edge $-1 $371 -2.0126798248458808 $527 2.0126798248458808 $370 $612 forward 7 unknown #
vertex $-1 $525 $613 #
straight-curve $-1 -67.077242347483747 -6.8853286388439443 0 0 0 -1 I I #
edge $-1 $523 -6.8853286388439443 $527 6.8853286388439443 $521 $614 forward 7 unknown #
straight-curve $-1 0 -6.8853286388439443 -2.0126798248458808 -1 0 0 I I #
vertex $-1 $363 $615 #
straight-curve $-1 0 6.8853286388439443 -2.0126798248458808 1 0 0 I I #
point $-1 67.077242347483747 6.8853286388439443 -2.0126798248458808 #
point $-1 67.077242347483747 -6.8853286388439443 -2.0126798248458808 #
straight-curve $-1 -67.077242347483747 0 2.0126798248458808 0 -1 0 I I #
point $-1 -67.077242347483747 6.8853286388439443 2.0126798248458808 #
point $-1 -67.077242347483747 -6.8853286388439443 2.0126798248458808 #
straight-curve $-1 67.077242347483747 -6.8853286388439443 0 0 0 -1 I I #
straight-curve $-1 67.077242347483747 6.8853286388439443 0 0 0 -1 I I #
plane-surface $-1 67.077242347483747 0 0 -1 0 0 0 0 1 forward_v I I I I #
coedge $-1 $385 $383 $387 $541 reversed $231 $-1 #
edge $-1 $398 -2.0126798248458808 $543 2.0126798248458808 $397 $616 forward 7 unknown #
vertex $-1 $541 $617 #
straight-curve $-1 -67.077242347483747 -6.8853286388439443 0 0 0 -1 I I #
edge $-1 $539 -6.8853286388439443 $543 6.8853286388439443 $537 $618 forward 7 unknown #
straight-curve $-1 0 -6.8853286388439443 -2.0126798248458808 -1 0 0 I I #
vertex $-1 $390 $619 #
straight-curve $-1 0 6.8853286388439443 -2.0126798248458808 1 0 0 I I #
point $-1 67.077242347483747 6.8853286388439443 -2.0126798248458808 #
point $-1 67.077242347483747 -6.8853286388439443 -2.0126798248458808 #
straight-curve $-1 -67.077242347483747 0 2.0126798248458808 0 -1 0 I I #
point $-1 -67.077242347483747 6.8853286388439443 2.0126798248458808 #
point $-1 -67.077242347483747 -6.8853286388439443 2.0126798248458808 #
straight-curve $-1 67.077242347483747 -6.8853286388439443 0 0 0 -1 I I #
straight-curve $-1 67.077242347483747 6.8853286388439443 0 0 0 -1 I I #
plane-surface $-1 268.30896938993499 0 0 -1 0 0 0 0 1 forward_v I I I I #
coedge $-1 $412 $410 $414 $557 reversed $250 $-1 #
edge $-1 $425 -134.15448469496749 $559 134.15448469496749 $424 $620 forward 7 unknown #
vertex $-1 $557 $621 #
straight-curve $-1 -268.30896938993499 -4.8323425779964744 0 0 0 -1 I I #
edge $-1 $555 -4.8323425779964744 $559 4.8323425779964744 $553 $622 forward 7 unknown #
straight-curve $-1 0 -4.8323425779964744 -134.15448469496749 -1 0 0 I I #
vertex $-1 $417 $623 #
straight-curve $-1 0 4.8323425779964744 -134.15448469496749 1 0 0 I I #
point $-1 268.30896938993499 4.8323425779964744 -134.15448469496749 #
point $-1 268.30896938993499 -4.8323425779964744 -134.15448469496749 #
straight-curve $-1 -268.30896938993499 0 134.15448469496749 0 -1 0 I I #
point $-1 -268.30896938993499 4.8323425779964744 134.15448469496749 #
point $-1 -268.30896938993499 -4.8323425779964744 134.15448469496749 #
straight-curve $-1 268.30896938993499 -4.8323425779964744 0 0 0 -1 I I #
straight-curve $-1 268.30896938993499 4.8323425779964744 0 0 0 -1 I I #
edge $-1 $624 1 $624 0 $434 $-1 forward 7 unknown #
point $-1 0.5 0 -0.25 #
plane-surface $-1 268.30896938993499 0 0 -1 0 0 0 0 1 forward_v I I I I #
coedge $-1 $443 $441 $445 $575 reversed $274 $-1 #
edge $-1 $456 -134.15448469496749 $577 134.15448469496749 $455 $625 forward 7 unknown #
vertex $-1 $575 $626 #
straight-curve $-1 -268.30896938993499 -4.8323425779964744 0 0 0 -1 I I #
edge $-1 $573 -4.8323425779964744 $577 4.8323425779964744 $571 $627 forward 7 unknown #
straight-curve $-1 0 -4.8323425779964744 -134.15448469496749 -1 0 0 I I #
vertex $-1 $448 $628 #
straight-curve $-1 0 4.8323425779964744 -134.15448469496749 1 0 0 I I #
point $-1 268.30896938993499 4.8323425779964744 -134.15448469496749 #
point $-1 268.30896938993499 -4.8323425779964744 -134.15448469496749 #
straight-curve $-1 -268.30896938993499 0 134.15448469496749 0 -1 0 I I #
point $-1 -268.30896938993499 4.8323425779964744 134.15448469496749 #
point $-1 -268.30896938993499 -4.8323425779964744 134.15448469496749 #
straight-curve $-1 268.30896938993499 -4.8323425779964744 0 0 0 -1 I I #
straight-curve $-1 268.30896938993499 4.8323425779964744 0 0 0 -1 I I #
edge $-1 $629 1 $629 0 $465 $-1 forward 7 unknown #
point $-1 0.5 0 -0.25 #
plane-surface $-1 268.30896938993499 0 0 -1 0 0 0 0 1 forward_v I I I I #
coedge $-1 $474 $472 $476 $593 reversed $298 $-1 #
edge $-1 $487 -134.15448469496749 $595 134.15448469496749 $486 $630 forward 7 unknown #
vertex $-1 $593 $631 #
straight-curve $-1 -268.30896938993499 -7.2155972676893896 0 0 0 -1 I I #
edge $-1 $591 -7.2155972676893896 $595 7.2155972676893896 $589 $632 forward 7 unknown #
straight-curve $-1 0 -7.2155972676893896 -134.15448469496749 -1 0 0 I I #
vertex $-1 $479 $633 #
straight-curve $-1 0 7.2155972676893896 -134.15448469496749 1 0 0 I I #
point $-1 268.30896938993499 7.2155972676893896 -134.15448469496749 #
point $-1 268.30896938993499 -7.2155972676893896 -134.15448469496749 #
straight-curve $-1 -268.30896938993499 0 134.15448469496749 0 -1 0 I I #
point $-1 -268.30896938993499 7.2155972676893896 134.15448469496749 #
point $-1 -268.30896938993499 -7.2155972676893896 134.15448469496749 #
straight-curve $-1 268.30896938993499 -7.2155972676893896 0 0 0 -1 I I #
straight-curve $-1 268.30896938993499 7.2155972676893896 0 0 0 -1 I I #
edge $-1 $634 1 $634 0 $496 $-1 forward 7 unknown #
point $-1 1.5 0 -0.75 #
edge $-1 $635 1 $635 0 $500 $-1 forward 7 unknown #
point $-1 1.5 0 -0.75 #
straight-curve $-1 -67.077242347483747 40.56712557987764 0 0 0 -1 I I #
point $-1 -67.077242347483747 -40.56712557987764 -16.053523483051773 #
straight-curve $-1 -67.077242347483747 0 -16.053523483051773 0 1 0 I I #
point $-1 -67.077242347483747 40.56712557987764 -16.053523483051773 #
straight-curve $-1 -67.077242347483747 6.8853286388439443 0 0 0 -1 I I #
point $-1 -67.077242347483747 -6.8853286388439443 -2.0126798248458808 #
straight-curve $-1 -67.077242347483747 0 -2.0126798248458808 0 1 0 I I #
point $-1 -67.077242347483747 6.8853286388439443 -2.0126798248458808 #
straight-curve $-1 -67.077242347483747 6.8853286388439443 0 0 0 -1 I I #
point $-1 -67.077242347483747 -6.8853286388439443 -2.0126798248458808 #
straight-curve $-1 -67.077242347483747 0 -2.0126798248458808 0 1 0 I I #
point $-1 -67.077242347483747 6.8853286388439443 -2.0126798248458808 #
straight-curve $-1 -268.30896938993499 4.8323425779964744 0 0 0 -1 I I #
point $-1 -268.30896938993499 -4.8323425779964744 -134.15448469496749 #
straight-curve $-1 -268.30896938993499 0 -134.15448469496749 0 1 0 I I #
point $-1 -268.30896938993499 4.8323425779964744 -134.15448469496749 #
vertex $-1 $568 $636 #
straight-curve $-1 -268.30896938993499 4.8323425779964744 0 0 0 -1 I I #
point $-1 -268.30896938993499 -4.8323425779964744 -134.15448469496749 #
straight-curve $-1 -268.30896938993499 0 -134.15448469496749 0 1 0 I I #
point $-1 -268.30896938993499 4.8323425779964744 -134.15448469496749 #
vertex $-1 $586 $637 #
straight-curve $-1 -268.30896938993499 7.2155972676893896 0 0 0 -1 I I #
point $-1 -268.30896938993499 -7.2155972676893896 -134.15448469496749 #
straight-curve $-1 -268.30896938993499 0 -134.15448469496749 0 1 0 I I #
point $-1 -268.30896938993499 7.2155972676893896 -134.15448469496749 #
vertex $-1 $604 $638 #
vertex $-1 $606 $639 #
point $-1 0 0 0.25 #
point $-1 0 0 0.25 #
point $-1 0 0 0.75 #
point $-1 0 0 0.75 #
End-of-ACIS-data 