500 0 5 0           
7 Unknown 11 ACIS 5.0 NT 24 Fri Mar 26 00:24:03 1999 
-1 9.9999999999999995e-007 1e-010 
body $-1 $5 $-1 $6 #
body $-1 $7 $-1 $8 #
body $-1 $9 $-1 $10 #
body $-1 $11 $-1 $12 #
body $-1 $13 $-1 $14 #
lump $-1 $-1 $15 $0 #
transform $-1 1 0 0 0 1 0 0 0 1 61.001617481002228 26.809472727398564 7.3498389983060406 1 rotate no_reflect no_shear #
lump $-1 $-1 $16 $1 #
transform $-1 1 0 0 0 1 0 0 0 1 61.001617481002228 26.809472727398564 7.3498389983060406 1 rotate no_reflect no_shear #
lump $-1 $-1 $17 $2 #
transform $-1 1 0 0 0 1 0 0 0 1 61.001617481002228 26.809472727398564 7.3498389983060406 1 rotate no_reflect no_shear #
lump $-1 $-1 $18 $3 #
transform $-1 1 0 0 0 1 0 0 0 1 61.001617481002228 26.809472727398564 7.3498389983060406 1 rotate no_reflect no_shear #
lump $-1 $-1 $19 $4 #
transform $-1 1 0 0 0 1 0 0 0 1 61.001617481002228 26.809472727398564 7.3498389983060406 1 rotate no_reflect no_shear #
shell $-1 $-1 $-1 $20 $-1 $5 #
shell $-1 $-1 $-1 $21 $-1 $7 #
shell $-1 $-1 $-1 $22 $-1 $9 #
shell $-1 $-1 $-1 $23 $-1 $11 #
shell $-1 $-1 $-1 $24 $-1 $13 #
face $-1 $25 $26 $15 $-1 $27 forward single #
face $-1 $28 $29 $16 $-1 $30 forward single #
face $-1 $31 $32 $17 $-1 $33 reversed single #
face $-1 $34 $35 $18 $-1 $36 forward single #
face $-1 $37 $38 $19 $-1 $39 forward single #
face $-1 $40 $41 $15 $-1 $42 reversed single #
loop $-1 $-1 $43 $20 #
plane-surface $-1 0 0 7.3498389983060406 0 0 1 1 0 0 forward_v I I I I #
face $-1 $44 $45 $16 $-1 $46 reversed single #
loop $-1 $-1 $47 $21 #
plane-surface $-1 0 -26.809472727398564 0 0 1 0 0 0 1 forward_v I I I I #
face $-1 $48 $49 $17 $-1 $50 reversed single #
loop $-1 $-1 $51 $22 #
plane-surface $-1 -136.11431005416333 0.27456944920312409 97.312180961280077 0 1 0 -0.61566148304635926 0 0.78801074757464917 forward_v I I I I #
face $-1 $52 $53 $18 $-1 $54 forward single #
loop $-1 $55 $56 $23 #
cone-surface $-1 -55.854600934947364 3.8409419904048434 2.7333605328749653 0.61566148304635926 0 -0.78801074757464917 0.78801074757464917 0 0.61566148304635926 1 I I 0 1 1 forward I I I I #
face $-1 $57 $58 $19 $-1 $59 forward single #
loop $-1 $60 $61 $24 #
cone-surface $-1 -55.854600934947364 9.1905008022074313 2.7333605328749653 0.61566148304635926 0 -0.78801074757464917 0.78801074757464917 0 0.61566148304635926 1 I I 0 1 1 forward I I I I #
face $-1 $62 $63 $15 $-1 $64 reversed single #
loop $-1 $-1 $65 $25 #
plane-surface $-1 0 0 -7.3498389983060406 0 0 1 1 0 0 forward_v I I I I #
coedge $-1 $66 $67 $68 $69 forward $26 $-1 #
face $-1 $70 $71 $16 $-1 $72 reversed single #
loop $-1 $-1 $73 $28 #
plane-surface $-1 0 0 -7.3498389983060406 0 0 1 1 0 0 forward_v I I I I #
coedge $-1 $74 $75 $76 $77 forward $29 $-1 #
face $-1 $78 $79 $17 $-1 $80 reversed single #
loop $-1 $-1 $81 $31 #
plane-surface $-1 -61.001617481002228 6.5157213963061409 1.1723205723453702 -0.61566148304635926 0 0.78801074757464917 0.78801074757464917 0 0.61566148304635926 forward_v I I I I #
coedge $-1 $82 $83 $84 $85 reversed $32 $-1 #
face $-1 $-1 $86 $18 $-1 $87 forward single #
loop $-1 $88 $89 $34 #
cone-surface $-1 -54.353185076042017 3.8409419904048434 0.81163590663690144 0.61566148304635926 0 -0.78801074757464917 0.39400537378732459 0 0.30783074152317963 1 I I -0.70710678118654746 0.70710678118654746 0.5 forward I I I I #
loop $-1 $-1 $90 $23 #
coedge $-1 $56 $56 $91 $92 reversed $35 $-1 #
face $-1 $-1 $93 $19 $-1 $94 forward single #
loop $-1 $95 $96 $37 #
cone-surface $-1 -54.353185076042017 9.1905008022074313 0.81163590663690144 0.61566148304635926 0 -0.78801074757464917 0.39400537378732459 0 0.30783074152317963 1 I I -0.70710678118654746 0.70710678118654746 0.5 forward I I I I #
loop $-1 $-1 $97 $24 #
coedge $-1 $61 $61 $98 $99 reversed $38 $-1 #
face $-1 $100 $101 $15 $-1 $102 reversed single #
loop $-1 $-1 $103 $40 #
plane-surface $-1 0 -26.809472727398564 0 0 1 0 0 0 1 forward_v I I I I #
coedge $-1 $104 $105 $106 $107 forward $41 $-1 #
coedge $-1 $108 $43 $109 $110 forward $26 $-1 #
coedge $-1 $43 $108 $111 $112 forward $26 $-1 #
coedge $-1 $113 $114 $43 $69 reversed $115 $-1 #
edge $-1 $116 -26.809472727398564 $117 26.809472727398564 $68 $118 forward 7 unknown #
face $-1 $119 $120 $16 $-1 $121 forward single #
loop $-1 $-1 $122 $44 #
plane-surface $-1 61.001617481002228 0 0 -1 0 0 0 0 1 forward_v I I I I #
coedge $-1 $123 $124 $125 $126 forward $45 $-1 #
coedge $-1 $125 $47 $122 $127 reversed $29 $-1 #
coedge $-1 $47 $125 $128 $129 reversed $29 $-1 #
coedge $-1 $130 $131 $47 $77 reversed $120 $-1 #
edge $-1 $132 -61.001617481002228 $133 61.001617481002228 $76 $134 forward 7 unknown #
face $-1 $135 $136 $17 $-1 $137 forward single #
loop $-1 $-1 $138 $48 #
plane-surface $-1 -136.11431005416333 12.756873343409158 97.312180961280077 0 -1 0 0.61566148304635926 0 -0.78801074757464917 forward_v I I I I #
coedge $-1 $139 $140 $141 $142 reversed $49 $-1 #
coedge $-1 $83 $51 $143 $144 reversed $32 $-1 #
coedge $-1 $51 $82 $139 $145 reversed $32 $-1 #
coedge $-1 $141 $146 $51 $85 forward $136 $-1 #
edge $-1 $147 7.0555375460794352 $148 14.96240040342483 $84 $149 forward 7 unknown #
loop $-1 $-1 $91 $52 #
plane-surface $-1 -61.001617481002228 6.5157213963061409 1.1723205723453702 -0.61566148304635926 0 0.78801074757464917 0.78801074757464917 0 0.61566148304635926 forward_v I I I I #
loop $-1 $-1 $150 $34 #
coedge $-1 $89 $89 $90 $151 reversed $53 $-1 #
coedge $-1 $90 $90 $89 $151 forward $55 $-1 #
coedge $-1 $91 $91 $56 $92 forward $86 $-1 #
edge $-1 $152 0 $152 6.2831853071796004 $91 $153 forward 7 unknown #
loop $-1 $-1 $98 $57 #
plane-surface $-1 -61.001617481002228 6.5157213963061409 1.1723205723453702 -0.61566148304635926 0 0.78801074757464917 0.78801074757464917 0 0.61566148304635926 forward_v I I I I #
loop $-1 $-1 $154 $37 #
coedge $-1 $96 $96 $97 $155 reversed $58 $-1 #
coedge $-1 $97 $97 $96 $155 forward $60 $-1 #
coedge $-1 $98 $98 $61 $99 forward $93 $-1 #
edge $-1 $156 0 $156 6.2831853071796004 $98 $157 forward 7 unknown #
face $-1 $158 $159 $15 $-1 $160 reversed single #
loop $-1 $-1 $161 $62 #
plane-surface $-1 -61.001617481002228 0 0 1 0 0 0 0 -1 forward_v I I I I #
coedge $-1 $111 $162 $113 $163 reversed $63 $-1 #
coedge $-1 $164 $65 $162 $165 forward $41 $-1 #
coedge $-1 $65 $164 $166 $167 forward $41 $-1 #
coedge $-1 $114 $113 $65 $107 reversed $115 $-1 #
edge $-1 $168 -26.809472727398564 $169 26.809472727398564 $106 $170 forward 7 unknown #
coedge $-1 $67 $66 $171 $172 forward $26 $-1 #
coedge $-1 $173 $174 $66 $110 reversed $159 $-1 #
edge $-1 $117 -61.001617481002228 $175 61.001617481002228 $109 $176 forward 7 unknown #
coedge $-1 $177 $103 $67 $112 reversed $63 $-1 #
edge $-1 $178 -61.001617481002228 $116 61.001617481002228 $111 $179 forward 7 unknown #
coedge $-1 $106 $68 $103 $163 forward $115 $-1 #
coedge $-1 $68 $106 $173 $180 reversed $115 $-1 #
loop $-1 $-1 $113 $158 #
vertex $-1 $69 $181 #
vertex $-1 $69 $182 #
straight-curve $-1 61.001617481002228 0 7.3498389983060406 0 1 0 I I #
face $-1 $183 $184 $16 $-1 $185 reversed single #
loop $-1 $-1 $131 $70 #
plane-surface $-1 0 -29.597104463692634 -4.3498389983060406 0 0 1 1 0 0 forward_v I I I I #
coedge $-1 $186 $187 $74 $127 forward $71 $-1 #
coedge $-1 $188 $73 $187 $189 forward $45 $-1 #
coedge $-1 $73 $188 $190 $191 forward $45 $-1 #
coedge $-1 $75 $74 $73 $126 reversed $29 $-1 #
edge $-1 $192 -61.001617481002228 $193 61.001617481002228 $73 $194 forward 7 unknown #
edge $-1 $193 -7.3498389983060406 $133 -4.3498389983060406 $122 $195 forward 7 unknown #
coedge $-1 $190 $196 $75 $129 forward $197 $-1 #
edge $-1 $132 4.3498389983060406 $192 7.3498389983060406 $128 $198 forward 7 unknown #
coedge $-1 $199 $76 $196 $200 forward $120 $-1 #
coedge $-1 $76 $199 $186 $201 forward $120 $-1 #
vertex $-1 $129 $202 #
vertex $-1 $201 $203 #
straight-curve $-1 0 -26.809472727398564 -4.3498389983060406 1 0 0 I I #
face $-1 $-1 $204 $17 $-1 $205 reversed single #
loop $-1 $-1 $84 $78 #
plane-surface $-1 0 0 7.3498389983060406 0 0 1 1 0 0 forward_v I I I I #
coedge $-1 $206 $207 $208 $209 reversed $79 $-1 #
coedge $-1 $210 $81 $83 $145 forward $49 $-1 #
coedge $-1 $81 $210 $206 $211 forward $49 $-1 #
coedge $-1 $208 $84 $81 $142 forward $136 $-1 #
edge $-1 $148 -2.9832912489499464 $212 9.4990126452560872 $141 $213 forward 7 unknown #
coedge $-1 $214 $215 $82 $144 forward $204 $-1 #
edge $-1 $216 -47.483769908294668 $147 -41.306251482333998 $143 $217 forward 7 unknown #
edge $-1 $148 -10.033953066860128 $216 0 $83 $218 forward 7 unknown #
coedge $-1 $84 $208 $214 $219 forward $136 $-1 #
vertex $-1 $144 $220 #
vertex $-1 $85 $221 #
straight-curve $-1 -68.057155027081663 0.27456944920312409 7.3498389983060406 1 0 0 I I #
coedge $-1 $150 $150 $-1 $222 reversed $88 $-1 #
edge $-1 $223 0 $223 6.2831853071796004 $89 $224 forward 7 unknown #
vertex $-1 $92 $225 #
ellipse-curve $-1 -57.048186052329534 3.8409419904048434 4.2610797853257054 -0.61566148304635926 0 0.78801074757464917 0.78801074757464917 0 0.61566148304635926 1 I I #
coedge $-1 $154 $154 $-1 $226 reversed $95 $-1 #
edge $-1 $227 0 $227 6.2831853071796004 $96 $228 forward 7 unknown #
vertex $-1 $99 $229 #
ellipse-curve $-1 -57.048186052329534 9.1905008022074313 4.2610797853257054 -0.61566148304635926 0 0.78801074757464917 0.78801074757464917 0 0.61566148304635926 1 I I #
face $-1 $-1 $115 $15 $-1 $230 reversed single #
loop $-1 $-1 $173 $100 #
plane-surface $-1 0 26.809472727398564 0 0 -1 0 0 0 -1 forward_v I I I I #
coedge $-1 $231 $171 $174 $232 forward $101 $-1 #
coedge $-1 $103 $177 $104 $165 reversed $63 $-1 #
edge $-1 $116 -7.3498389983060406 $169 7.3498389983060406 $113 $233 forward 7 unknown #
coedge $-1 $105 $104 $231 $234 forward $41 $-1 #
edge $-1 $169 -61.001617481002228 $235 61.001617481002228 $162 $236 forward 7 unknown #
coedge $-1 $174 $173 $105 $167 reversed $159 $-1 #
edge $-1 $237 -61.001617481002228 $168 61.001617481002228 $166 $238 forward 7 unknown #
vertex $-1 $107 $239 #
vertex $-1 $163 $240 #
straight-curve $-1 61.001617481002228 0 -7.3498389983060406 0 -1 0 I I #
coedge $-1 $161 $241 $108 $172 reversed $101 $-1 #
edge $-1 $175 -26.809472727398564 $178 26.809472727398564 $171 $242 forward 7 unknown #
coedge $-1 $166 $109 $114 $180 forward $159 $-1 #
coedge $-1 $109 $166 $161 $232 reversed $159 $-1 #
vertex $-1 $110 $243 #
straight-curve $-1 0 26.809472727398564 7.3498389983060406 -1 0 0 I I #
coedge $-1 $162 $111 $241 $244 forward $63 $-1 #
vertex $-1 $172 $245 #
straight-curve $-1 0 -26.809472727398564 7.3498389983060406 1 0 0 I I #
edge $-1 $117 -7.3498389983060406 $168 7.3498389983060406 $114 $246 forward 7 unknown #
point $-1 61.001617481002228 -26.809472727398564 7.3498389983060406 #
point $-1 61.001617481002228 26.809472727398564 7.3498389983060406 #
face $-1 $-1 $197 $16 $-1 $247 reversed single #
loop $-1 $-1 $248 $119 #
plane-surface $-1 0 -32.384736199986705 -5.8498389983060406 0 1 0 0 0 1 forward_v I I I I #
coedge $-1 $249 $122 $131 $201 reversed $71 $-1 #
coedge $-1 $122 $249 $123 $189 reversed $71 $-1 #
coedge $-1 $124 $123 $250 $251 forward $45 $-1 #
edge $-1 $193 26.809472727398564 $252 32.384736199986705 $187 $253 forward 7 unknown #
coedge $-1 $254 $128 $124 $191 reversed $197 $-1 #
edge $-1 $255 -32.384736199986705 $192 -26.809472727398564 $190 $256 forward 7 unknown #
vertex $-1 $129 $257 #
vertex $-1 $189 $258 #
straight-curve $-1 0 -26.809472727398564 -7.3498389983060406 1 0 0 I I #
straight-curve $-1 61.001617481002228 -26.809472727398564 0 0 0 1 I I #
coedge $-1 $128 $254 $130 $200 reversed $197 $-1 #
loop $-1 $-1 $128 $183 #
straight-curve $-1 -61.001617481002228 -26.809472727398564 0 0 0 -1 I I #
coedge $-1 $131 $130 $259 $260 forward $120 $-1 #
edge $-1 $132 -2.7876317362940704 $261 2.7876317362940704 $196 $262 forward 7 unknown #
edge $-1 $263 -2.7876317362940704 $133 2.7876317362940704 $186 $264 forward 7 unknown #
point $-1 -61.001617481002228 -26.809472727398564 -4.3498389983060406 #
point $-1 61.001617481002228 -26.809472727398564 -4.3498389983060406 #
loop $-1 $-1 $143 $135 #
plane-surface $-1 -61.001617481002228 0 0 1 0 0 0 0 -1 forward_v I I I I #
coedge $-1 $207 $138 $140 $211 reversed $79 $-1 #
coedge $-1 $138 $206 $265 $266 reversed $79 $-1 #
coedge $-1 $146 $141 $138 $209 forward $136 $-1 #
edge $-1 $212 -14.96240040342483 $267 -7.0555375460794352 $208 $268 forward 7 unknown #
coedge $-1 $140 $139 $215 $269 reversed $49 $-1 #
edge $-1 $270 0 $212 10.033953066860128 $206 $271 forward 7 unknown #
vertex $-1 $142 $272 #
straight-curve $-1 -53.09475462365684 3.2578606981530704 7.3498389983060406 0 1 0 I I #
coedge $-1 $265 $143 $146 $219 reversed $204 $-1 #
coedge $-1 $143 $265 $210 $269 forward $204 $-1 #
vertex $-1 $144 $273 #
straight-curve $-1 -61.001617481002228 0.27456944920312409 48.656090480640039 0 0 1 I I #
straight-curve $-1 -61.001617481002228 0.27456944920312409 1.1723205723453702 -0.78801074757464917 0 -0.61566148304635926 I I #
edge $-1 $267 -12.756873343409158 $147 -0.27456944920312409 $214 $274 forward 7 unknown #
point $-1 -61.001617481002228 0.27456944920312409 7.3498389983060406 #
point $-1 -53.094754623656833 0.27456944920312409 7.3498389983060406 #
edge $-1 $275 1 $275 0 $150 $-1 forward 7 unknown #
vertex $-1 $151 $276 #
ellipse-curve $-1 -54.661015817565193 3.8409419904048434 1.205641280424226 -0.61566148304635926 0 0.78801074757464917 0.78801074757464917 0 0.61566148304635926 1 I I #
point $-1 -56.260175304754881 3.8409419904048434 4.8767412683720641 #
edge $-1 $277 1 $277 0 $154 $-1 forward 7 unknown #
vertex $-1 $155 $278 #
ellipse-curve $-1 -54.661015817565193 9.1905008022074313 1.205641280424226 -0.61566148304635926 0 0.78801074757464917 0.78801074757464917 0 0.61566148304635926 1 I I #
point $-1 -56.260175304754881 9.1905008022074313 4.8767412683720641 #
plane-surface $-1 61.001617481002228 0 0 -1 0 0 0 0 1 forward_v I I I I #
coedge $-1 $241 $161 $164 $234 reversed $101 $-1 #
edge $-1 $175 -7.3498389983060406 $237 7.3498389983060406 $174 $279 forward 7 unknown #
straight-curve $-1 61.001617481002228 -26.809472727398564 0 0 0 -1 I I #
edge $-1 $235 -26.809472727398564 $237 26.809472727398564 $231 $280 forward 7 unknown #
vertex $-1 $234 $281 #
straight-curve $-1 0 -26.809472727398564 -7.3498389983060406 -1 0 0 I I #
vertex $-1 $167 $282 #
straight-curve $-1 0 26.809472727398564 -7.3498389983060406 1 0 0 I I #
point $-1 61.001617481002228 26.809472727398564 -7.3498389983060406 #
point $-1 61.001617481002228 -26.809472727398564 -7.3498389983060406 #
coedge $-1 $171 $231 $177 $244 reversed $101 $-1 #
straight-curve $-1 -61.001617481002228 0 7.3498389983060406 0 -1 0 I I #
point $-1 -61.001617481002228 26.809472727398564 7.3498389983060406 #
edge $-1 $178 -7.3498389983060406 $235 7.3498389983060406 $241 $283 forward 7 unknown #
point $-1 -61.001617481002228 -26.809472727398564 7.3498389983060406 #
straight-curve $-1 61.001617481002228 26.809472727398564 0 0 0 -1 I I #
plane-surface $-1 -61.001617481002228 0 0 1 0 0 0 0 -1 forward_v I I I I #
coedge $-1 $250 $259 $254 $284 forward $184 $-1 #
coedge $-1 $187 $186 $285 $286 forward $71 $-1 #
coedge $-1 $285 $248 $188 $251 reversed $184 $-1 #
edge $-1 $252 -61.001617481002228 $255 61.001617481002228 $250 $287 forward 7 unknown #
vertex $-1 $286 $288 #
straight-curve $-1 61.001617481002228 0 -7.3498389983060406 0 -1 0 I I #
coedge $-1 $196 $190 $248 $284 reversed $197 $-1 #
vertex $-1 $191 $289 #
straight-curve $-1 -61.001617481002228 0 -7.3498389983060406 0 1 0 I I #
point $-1 -61.001617481002228 -26.809472727398564 -7.3498389983060406 #
point $-1 61.001617481002228 -26.809472727398564 -7.3498389983060406 #
coedge $-1 $248 $285 $199 $260 reversed $184 $-1 #
edge $-1 $261 -61.001617481002228 $263 61.001617481002228 $259 $290 forward 7 unknown #
vertex $-1 $200 $291 #
straight-curve $-1 -61.001617481002228 -29.597104463692634 -4.3498389983060406 0 -1 0 I I #
vertex $-1 $201 $292 #
straight-curve $-1 61.001617481002228 -29.597104463692634 -4.3498389983060406 0 1 0 I I #
coedge $-1 $215 $214 $207 $266 forward $204 $-1 #
edge $-1 $267 41.306251482333998 $270 47.483769908294668 $265 $293 forward 7 unknown #
vertex $-1 $219 $294 #
straight-curve $-1 -68.057155027081663 12.756873343409158 7.3498389983060406 -1 0 0 I I #
edge $-1 $270 -9.4990126452560872 $216 2.9832912489499464 $215 $295 forward 7 unknown #
vertex $-1 $269 $296 #
straight-curve $-1 -61.001617481002228 12.756873343409158 1.1723205723453702 0.78801074757464917 0 0.61566148304635926 I I #
point $-1 -53.094754623656833 12.756873343409158 7.3498389983060406 #
point $-1 -61.001617481002228 0.27456944920312409 1.1723205723453702 #
straight-curve $-1 -61.001617481002228 0 7.3498389983060406 0 -1 0 I I #
vertex $-1 $222 $297 #
point $-1 -53.873005069990548 3.8409419904048434 1.8213027634705852 #
vertex $-1 $226 $298 #
point $-1 -53.873005069990548 9.1905008022074313 1.8213027634705852 #
straight-curve $-1 -61.001617481002228 26.809472727398564 0 0 0 -1 I I #
straight-curve $-1 -61.001617481002228 0 -7.3498389983060406 0 1 0 I I #
point $-1 -61.001617481002228 -26.809472727398564 -7.3498389983060406 #
point $-1 -61.001617481002228 26.809472727398564 -7.3498389983060406 #
straight-curve $-1 -61.001617481002228 -26.809472727398564 0 0 0 -1 I I #
edge $-1 $261 -1.5 $255 1.5 $254 $299 forward 7 unknown #
coedge $-1 $259 $250 $249 $286 reversed $184 $-1 #
edge $-1 $263 -1.5 $252 1.5 $249 $300 forward 7 unknown #
straight-curve $-1 0 -32.384736199986705 -7.3498389983060406 -1 0 0 I I #
point $-1 61.001617481002228 -32.384736199986705 -7.3498389983060406 #
point $-1 -61.001617481002228 -32.384736199986705 -7.3498389983060406 #
straight-curve $-1 0 -32.384736199986705 -4.3498389983060406 1 0 0 I I #
point $-1 -61.001617481002228 -32.384736199986705 -4.3498389983060406 #
point $-1 61.001617481002228 -32.384736199986705 -4.3498389983060406 #
straight-curve $-1 -61.001617481002228 12.756873343409158 48.656090480640039 0 0 -1 I I #
point $-1 -61.001617481002228 12.756873343409158 7.3498389983060406 #
straight-curve $-1 -61.001617481002228 3.2578606981530704 1.17232057234537 0 -1 0 I I #
point $-1 -61.001617481002228 12.756873343409158 1.1723205723453702 #
point $-1 -54.045354334518841 3.8409419904048434 0.41763053284957685 #
point $-1 -54.045354334518841 9.1905008022074313 0.41763053284957685 #
straight-curve $-1 -61.001617481002228 -32.384736199986705 -5.8498389983060406 0 0 -1 I I #
straight-curve $-1 61.001617481002228 -32.384736199986705 -5.8498389983060406 0 0 -1 I I #
End-of-ACIS-data 