500 0 5 0           
7 Unknown 11 ACIS 5.0 NT 24 Fri Mar 26 15:01:32 1999 
-1 9.9999999999999995e-007 1e-010 
body $-1 $5 $-1 $6 #
body $-1 $7 $-1 $8 #
body $-1 $9 $-1 $10 #
body $-1 $11 $-1 $12 #
body $-1 $13 $-1 $14 #
lump $-1 $-1 $15 $0 #
transform $-1 1 0 0 0 1 0 0 0 1 56.409192175054173 24.803035895300471 8.3980004803738861 1 rotate no_reflect no_shear #
lump $-1 $-1 $16 $1 #
transform $-1 1 0 0 0 1 0 0 0 1 56.409192175054173 24.803035895300471 8.3980004803738861 1 rotate no_reflect no_shear #
lump $-1 $-1 $17 $2 #
transform $-1 1 0 0 0 1 0 0 0 1 56.409192175054173 24.803035895300471 8.3980004803738861 1 rotate no_reflect no_shear #
lump $-1 $-1 $18 $3 #
transform $-1 1 0 0 0 1 0 0 0 1 56.409192175054173 24.803035895300471 8.3980004803738861 1 rotate no_reflect no_shear #
lump $-1 $-1 $19 $4 #
transform $-1 1 0 0 0 1 0 0 0 1 56.409192175054173 24.803035895300471 8.3980004803738861 1 rotate no_reflect no_shear #
shell $-1 $-1 $-1 $20 $-1 $5 #
shell $-1 $-1 $-1 $21 $-1 $7 #
shell $-1 $-1 $-1 $22 $-1 $9 #
shell $-1 $-1 $-1 $23 $-1 $11 #
shell $-1 $-1 $-1 $24 $-1 $13 #
face $-1 $25 $26 $15 $-1 $27 forward single #
face $-1 $28 $29 $16 $-1 $30 reversed single #
face $-1 $31 $32 $17 $-1 $33 forward single #
face $-1 $34 $35 $18 $-1 $36 reversed single #
face $-1 $37 $38 $19 $-1 $39 reversed single #
face $-1 $40 $41 $15 $-1 $42 reversed single #
loop $-1 $-1 $43 $20 #
plane-surface $-1 0 0 8.3980004803738861 0 0 1 1 0 0 forward_v I I I I #
face $-1 $44 $45 $16 $-1 $46 forward single #
loop $-1 $-1 $47 $21 #
plane-surface $-1 0 -19.890878387232004 -3.3885202780577779 0 0 1 1 0 0 forward_v I I I I #
face $-1 $48 $49 $17 $-1 $50 forward single #
loop $-1 $-1 $51 $22 #
plane-surface $-1 -121.11915985944772 14.465743699784884 94.157029545213902 0 1 0 -0.57357644374324357 0 0.81915203911291934 forward_v I I I I #
face $-1 $52 $53 $18 $-1 $54 reversed single #
loop $-1 $55 $56 $23 #
cone-surface $-1 -51.185298882358111 17.419255755646478 4.3975165623223891 0.57357644374324357 0 -0.81915203911291934 0.81915203911291934 0 0.57357644374324357 1 I I 0 1 1 forward I I I I #
face $-1 $57 $58 $19 $-1 $59 reversed single #
loop $-1 $60 $61 $24 #
cone-surface $-1 -51.185298882358111 21.84952383943887 4.3975165623223891 0.57357644374324357 0 -0.81915203911291934 0.81915203911291934 0 0.57357644374324357 1 I I 0 1 1 forward I I I I #
face $-1 $62 $63 $15 $-1 $64 reversed single #
loop $-1 $-1 $65 $25 #
plane-surface $-1 0 0 -8.3980004803738861 0 0 1 1 0 0 forward_v I I I I #
coedge $-1 $66 $67 $68 $69 forward $26 $-1 #
face $-1 $70 $71 $16 $-1 $72 reversed single #
loop $-1 $-1 $73 $28 #
plane-surface $-1 0 -14.978720879163536 -5.8932603792158318 0 -1 0 0 0 -1 forward_v I I I I #
coedge $-1 $74 $75 $76 $77 reversed $29 $-1 #
face $-1 $78 $79 $17 $-1 $80 forward single #
loop $-1 $-1 $81 $31 #
plane-surface $-1 -56.409192175054173 19.634389797542678 1.7416199553975815 -0.57357644374324357 0 0.81915203911291934 0.81915203911291934 0 0.57357644374324357 forward_v I I I I #
coedge $-1 $82 $83 $84 $85 reversed $32 $-1 #
face $-1 $86 $87 $18 $-1 $88 forward single #
loop $-1 $89 $90 $34 #
cone-surface $-1 -50.427765565929001 17.419255755646478 3.3156468872025826 0.57357644374324357 0 -0.81915203911291934 0.40957601955645967 0 0.28678822187162178 1 I I -0.70710678118654746 0.70710678118654746 0.5 forward I I I I #
loop $-1 $-1 $91 $23 #
coedge $-1 $56 $56 $92 $93 reversed $35 $-1 #
face $-1 $94 $95 $19 $-1 $96 reversed single #
loop $-1 $97 $98 $37 #
cone-surface $-1 -50.427765565929001 21.84952383943887 3.3156468872025826 0.57357644374324357 0 -0.81915203911291934 0.40957601955645967 0 0.28678822187162178 1 I I -0.70710678118654746 0.70710678118654746 0.5 forward I I I I #
loop $-1 $-1 $99 $24 #
coedge $-1 $61 $61 $100 $101 reversed $38 $-1 #
face $-1 $102 $103 $15 $-1 $104 reversed single #
loop $-1 $-1 $105 $40 #
plane-surface $-1 0 -24.803035895300471 0 0 1 0 0 0 1 forward_v I I I I #
coedge $-1 $106 $107 $108 $109 forward $41 $-1 #
coedge $-1 $110 $43 $111 $112 forward $26 $-1 #
coedge $-1 $43 $110 $113 $114 forward $26 $-1 #
coedge $-1 $115 $116 $43 $69 reversed $117 $-1 #
edge $-1 $118 -24.803035895300471 $119 24.803035895300471 $68 $120 forward 7 unknown #
face $-1 $121 $122 $16 $-1 $123 reversed single #
loop $-1 $-1 $124 $44 #
plane-surface $-1 0 -24.803035895300471 0 0 1 0 0 0 1 forward_v I I I I #
coedge $-1 $125 $126 $127 $128 reversed $45 $-1 #
coedge $-1 $129 $47 $124 $130 reversed $29 $-1 #
coedge $-1 $47 $129 $125 $131 reversed $29 $-1 #
coedge $-1 $127 $132 $47 $77 forward $133 $-1 #
edge $-1 $134 -14.85759670168447 $135 -5.033281685547534 $76 $136 forward 7 unknown #
face $-1 $137 $138 $17 $-1 $139 reversed single #
loop $-1 $-1 $140 $48 #
plane-surface $-1 0 0 8.3980004803738861 0 0 1 1 0 0 forward_v I I I I #
coedge $-1 $141 $142 $140 $143 reversed $49 $-1 #
coedge $-1 $83 $51 $142 $144 forward $32 $-1 #
coedge $-1 $51 $82 $145 $146 reversed $32 $-1 #
coedge $-1 $147 $140 $51 $85 forward $79 $-1 #
edge $-1 $148 -13.656684150946845 $149 -4.150387754669687 $84 $150 forward 7 unknown #
face $-1 $151 $152 $18 $-1 $153 forward single #
loop $-1 $-1 $154 $52 #
plane-surface $-1 -121.11915985944772 14.465743699784884 94.157029545213902 0 1 0 -0.57357644374324357 0 0.81915203911291934 forward_v I I I I #
loop $-1 $-1 $155 $34 #
coedge $-1 $90 $90 $91 $156 forward $53 $-1 #
coedge $-1 $91 $91 $90 $156 reversed $55 $-1 #
coedge $-1 $92 $92 $56 $93 forward $152 $-1 #
edge $-1 $157 0 $157 6.2831853071796004 $92 $158 forward 7 unknown #
face $-1 $159 $160 $19 $-1 $161 reversed single #
loop $-1 $162 $163 $57 #
cone-surface $-1 -51.185298882358111 17.419255755646478 4.3975165623223891 0.57357644374324357 0 -0.81915203911291934 0.81915203911291934 0 0.57357644374324357 1 I I 0 1 1 forward I I I I #
loop $-1 $-1 $164 $37 #
coedge $-1 $98 $98 $99 $165 forward $58 $-1 #
coedge $-1 $99 $99 $98 $165 reversed $60 $-1 #
coedge $-1 $100 $100 $61 $101 forward $166 $-1 #
edge $-1 $167 0 $167 6.2831853071796004 $100 $168 forward 7 unknown #
face $-1 $169 $170 $15 $-1 $171 reversed single #
loop $-1 $-1 $172 $62 #
plane-surface $-1 -56.409192175054173 0 0 1 0 0 0 0 -1 forward_v I I I I #
coedge $-1 $173 $113 $174 $175 forward $63 $-1 #
coedge $-1 $176 $65 $173 $177 forward $41 $-1 #
coedge $-1 $65 $176 $178 $179 forward $41 $-1 #
coedge $-1 $116 $115 $65 $109 reversed $117 $-1 #
edge $-1 $180 -24.803035895300471 $181 24.803035895300471 $108 $182 forward 7 unknown #
coedge $-1 $67 $66 $183 $184 forward $26 $-1 #
coedge $-1 $185 $186 $66 $112 reversed $170 $-1 #
edge $-1 $119 -56.409192175054173 $187 56.409192175054173 $111 $188 forward 7 unknown #
coedge $-1 $105 $189 $67 $114 reversed $63 $-1 #
edge $-1 $190 -56.409192175054173 $118 56.409192175054173 $113 $191 forward 7 unknown #
coedge $-1 $108 $68 $189 $192 forward $117 $-1 #
coedge $-1 $68 $108 $185 $193 reversed $117 $-1 #
loop $-1 $-1 $115 $169 #
vertex $-1 $69 $194 #
vertex $-1 $69 $195 #
straight-curve $-1 56.409192175054173 0 8.3980004803738861 0 1 0 I I #
face $-1 $196 $197 $16 $-1 $198 forward single #
loop $-1 $-1 $199 $70 #
plane-surface $-1 0 0 -8.3980004803738861 0 0 1 1 0 0 forward_v I I I I #
coedge $-1 $200 $201 $74 $130 forward $71 $-1 #
coedge $-1 $202 $73 $75 $131 forward $45 $-1 #
coedge $-1 $73 $202 $199 $203 reversed $45 $-1 #
coedge $-1 $204 $76 $73 $128 forward $133 $-1 #
edge $-1 $135 0.441890088449862 $205 5.4513702907659702 $127 $206 forward 7 unknown #
coedge $-1 $75 $74 $207 $208 reversed $29 $-1 #
edge $-1 $209 -56.409192175054173 $134 56.409192175054173 $124 $210 forward 7 unknown #
edge $-1 $135 -56.409192175054173 $211 56.409192175054173 $125 $212 forward 7 unknown #
coedge $-1 $76 $213 $200 $214 forward $133 $-1 #
loop $-1 $-1 $127 $215 #
vertex $-1 $130 $216 #
vertex $-1 $77 $217 #
straight-curve $-1 56.409192175054173 -9.9454391936160018 -3.3885202780577779 0 1 0 I I #
face $-1 $218 $219 $17 $-1 $220 reversed single #
loop $-1 $-1 $145 $78 #
plane-surface $-1 -56.409192175054173 0 0 1 0 0 0 0 -1 forward_v I I I I #
coedge $-1 $84 $221 $81 $143 forward $79 $-1 #
coedge $-1 $222 $81 $223 $224 reversed $49 $-1 #
coedge $-1 $81 $222 $82 $144 reversed $49 $-1 #
edge $-1 $225 -14.985840996529133 $148 -4.6485488010135452 $140 $226 forward 7 unknown #
edge $-1 $148 -11.605045147139924 $227 0 $82 $228 forward 7 unknown #
coedge $-1 $229 $230 $83 $146 forward $138 $-1 #
edge $-1 $149 38.680514292233063 $227 45.33689481720937 $145 $231 forward 7 unknown #
coedge $-1 $232 $84 $230 $233 forward $79 $-1 #
vertex $-1 $143 $234 #
vertex $-1 $233 $235 #
straight-curve $-1 -60.55957992972386 14.465743699784884 8.3980004803738879 -1 0 0 I I #
face $-1 $236 $237 $18 $-1 $238 forward single #
loop $-1 $239 $92 $86 #
plane-surface $-1 -56.409192175054173 19.634389797542678 1.7416199553975815 -0.57357644374324357 0 0.81915203911291934 0.81915203911291934 0 0.57357644374324357 forward_v I I I I #
coedge $-1 $240 $241 $242 $243 reversed $87 $-1 #
coedge $-1 $155 $155 $-1 $244 forward $89 $-1 #
edge $-1 $245 0 $245 6.2831853071796004 $90 $246 forward 7 unknown #
vertex $-1 $93 $247 #
ellipse-curve $-1 -51.656043976915598 17.419255755646478 5.0698102178857321 0.57357644374324357 0 -0.81915203911291934 0.81915203911291934 0 0.57357644374324357 1 I I #
face $-1 $248 $249 $19 $-1 $250 forward single #
loop $-1 $251 $252 $94 #
cone-surface $-1 -50.427765565929001 17.419255755646478 3.3156468872025826 0.57357644374324357 0 -0.81915203911291934 0.40957601955645967 0 0.28678822187162178 1 I I -0.70710678118654746 0.70710678118654746 0.5 forward I I I I #
loop $-1 $-1 $253 $57 #
coedge $-1 $163 $163 $254 $255 reversed $95 $-1 #
coedge $-1 $164 $164 $-1 $256 forward $97 $-1 #
edge $-1 $257 0 $257 6.2831853071796004 $98 $258 forward 7 unknown #
loop $-1 $259 $100 $248 #
vertex $-1 $101 $260 #
ellipse-curve $-1 -51.656043976915598 21.84952383943887 5.0698102178857321 0.57357644374324357 0 -0.81915203911291934 0.81915203911291934 0 0.57357644374324357 1 I I #
face $-1 $-1 $117 $15 $-1 $261 reversed single #
loop $-1 $-1 $185 $102 #
plane-surface $-1 0 24.803035895300471 0 0 -1 0 0 0 -1 forward_v I I I I #
coedge $-1 $262 $183 $186 $263 forward $103 $-1 #
coedge $-1 $189 $105 $106 $177 reversed $63 $-1 #
coedge $-1 $183 $262 $105 $175 reversed $103 $-1 #
edge $-1 $190 -8.3980004803738861 $264 8.3980004803738861 $174 $265 forward 7 unknown #
coedge $-1 $107 $106 $262 $266 forward $41 $-1 #
edge $-1 $181 -56.409192175054173 $264 56.409192175054173 $173 $267 forward 7 unknown #
coedge $-1 $186 $185 $107 $179 reversed $170 $-1 #
edge $-1 $268 -56.409192175054173 $180 56.409192175054173 $178 $269 forward 7 unknown #
vertex $-1 $109 $270 #
vertex $-1 $192 $271 #
straight-curve $-1 56.409192175054173 0 -8.3980004803738861 0 -1 0 I I #
coedge $-1 $172 $174 $110 $184 reversed $103 $-1 #
edge $-1 $187 -24.803035895300471 $190 24.803035895300471 $183 $272 forward 7 unknown #
coedge $-1 $178 $111 $116 $193 forward $170 $-1 #
coedge $-1 $111 $178 $172 $263 reversed $170 $-1 #
vertex $-1 $112 $273 #
straight-curve $-1 0 24.803035895300471 8.3980004803738861 -1 0 0 I I #
coedge $-1 $113 $173 $115 $192 reversed $63 $-1 #
vertex $-1 $184 $274 #
straight-curve $-1 0 -24.803035895300471 8.3980004803738861 1 0 0 I I #
edge $-1 $118 -8.3980004803738861 $181 8.3980004803738861 $115 $275 forward 7 unknown #
edge $-1 $119 -8.3980004803738861 $180 8.3980004803738861 $116 $276 forward 7 unknown #
point $-1 56.409192175054173 -24.803035895300471 8.3980004803738861 #
point $-1 56.409192175054173 24.803035895300471 8.3980004803738861 #
face $-1 $277 $278 $16 $-1 $279 reversed single #
loop $-1 $-1 $280 $121 #
plane-surface $-1 0 0 8.3980004803738861 0 0 1 1 0 0 forward_v I I I I #
coedge $-1 $281 $282 $126 $203 forward $122 $-1 #
coedge $-1 $283 $124 $132 $214 reversed $71 $-1 #
coedge $-1 $124 $283 $284 $285 forward $71 $-1 #
coedge $-1 $126 $125 $286 $287 reversed $45 $-1 #
edge $-1 $205 -56.409192175054173 $288 56.409192175054173 $199 $289 forward 7 unknown #
coedge $-1 $290 $127 $282 $291 reversed $133 $-1 #
vertex $-1 $203 $292 #
straight-curve $-1 56.409192175054173 -14.978720879163536 -2.9466301896079159 0 0 -1 I I #
coedge $-1 $284 $286 $129 $208 forward $278 $-1 #
edge $-1 $211 5.033281685547534 $209 14.85759670168447 $207 $293 forward 7 unknown #
vertex $-1 $130 $294 #
straight-curve $-1 0 -24.803035895300471 -3.3885202780577779 1 0 0 I I #
vertex $-1 $208 $295 #
straight-curve $-1 0 -14.978720879163536 -3.3885202780577779 -1 0 0 I I #
coedge $-1 $132 $290 $280 $296 reversed $133 $-1 #
edge $-1 $297 -8.3980004803738861 $134 3.3885202780577779 $132 $298 forward 7 unknown #
face $-1 $-1 $133 $16 $-1 $299 reversed single #
point $-1 56.409192175054173 -24.803035895300471 -3.3885202780577779 #
point $-1 56.409192175054173 -14.978720879163536 -3.3885202780577779 #
face $-1 $300 $301 $17 $-1 $302 forward single #
loop $-1 $-1 $303 $137 #
plane-surface $-1 0 -19.890878387232004 -3.3885202780577779 0 0 1 1 0 0 forward_v I I I I #
coedge $-1 $140 $304 $305 $306 forward $79 $-1 #
coedge $-1 $142 $141 $229 $307 reversed $49 $-1 #
coedge $-1 $305 $308 $141 $224 forward $309 $-1 #
edge $-1 $310 -22.604376307269472 $225 -10.99933116012955 $223 $311 forward 7 unknown #
vertex $-1 $224 $312 #
straight-curve $-1 -46.902895778777008 9.8171948987713389 8.3980004803738879 0 -1 0 I I #
vertex $-1 $307 $313 #
straight-curve $-1 -56.409192175054173 14.465743699784884 1.7416199553975815 -0.81915203911291934 0 -0.57357644374324357 I I #
coedge $-1 $314 $145 $222 $307 forward $138 $-1 #
coedge $-1 $145 $315 $147 $233 reversed $138 $-1 #
straight-curve $-1 -56.409192175054173 14.465743699784884 47.078514772606951 0 0 -1 I I #
coedge $-1 $304 $147 $316 $317 forward $79 $-1 #
edge $-1 $149 -14.465743699784884 $318 24.803035895300471 $230 $319 forward 7 unknown #
point $-1 -46.902895778777015 14.465743699784884 8.3980004803738861 #
point $-1 -56.409192175054173 14.465743699784884 8.3980004803738861 #
face $-1 $320 $321 $18 $-1 $322 reversed single #
loop $-1 $-1 $323 $151 #
plane-surface $-1 0 0 8.3980004803738861 0 0 1 1 0 0 forward_v I I I I #
loop $-1 $-1 $324 $86 #
coedge $-1 $241 $154 $325 $326 forward $87 $-1 #
coedge $-1 $154 $240 $327 $328 reversed $87 $-1 #
coedge $-1 $329 $323 $154 $243 forward $237 $-1 #
edge $-1 $330 -13.656684150946845 $331 -4.150387754669687 $242 $332 forward 7 unknown #
edge $-1 $333 1 $333 0 $155 $-1 forward 7 unknown #
vertex $-1 $156 $334 #
ellipse-curve $-1 -50.714553787800625 17.419255755646478 3.7252229067590421 -0.57357644374324357 0 0.81915203911291934 0.81915203911291934 0 0.57357644374324357 1 I I #
point $-1 -50.836891937802676 17.419255755646478 5.6433866616289787 #
face $-1 $335 $166 $19 $-1 $336 forward single #
loop $-1 $-1 $337 $159 #
plane-surface $-1 -121.11915985944772 14.465743699784884 94.157029545213902 0 1 0 -0.57357644374324357 0 0.81915203911291934 forward_v I I I I #
loop $-1 $-1 $338 $94 #
coedge $-1 $252 $252 $253 $339 forward $160 $-1 #
coedge $-1 $253 $253 $252 $339 reversed $162 $-1 #
coedge $-1 $254 $254 $163 $255 forward $259 $-1 #
edge $-1 $340 0 $340 6.2831853071796004 $254 $341 forward 7 unknown #
edge $-1 $342 1 $342 0 $164 $-1 forward 7 unknown #
vertex $-1 $165 $343 #
ellipse-curve $-1 -50.714553787800625 21.84952383943887 3.7252229067590421 -0.57357644374324357 0 0.81915203911291934 0.81915203911291934 0 0.57357644374324357 1 I I #
loop $-1 $344 $254 $248 #
point $-1 -50.836891937802676 21.84952383943887 5.6433866616289787 #
plane-surface $-1 56.409192175054173 0 0 -1 0 0 0 0 1 forward_v I I I I #
coedge $-1 $174 $172 $176 $266 reversed $103 $-1 #
edge $-1 $187 -8.3980004803738861 $268 8.3980004803738861 $186 $345 forward 7 unknown #
vertex $-1 $266 $346 #
straight-curve $-1 -56.409192175054173 -24.803035895300471 0 0 0 -1 I I #
edge $-1 $264 -24.803035895300471 $268 24.803035895300471 $262 $347 forward 7 unknown #
straight-curve $-1 0 -24.803035895300471 -8.3980004803738861 -1 0 0 I I #
vertex $-1 $179 $348 #
straight-curve $-1 0 24.803035895300471 -8.3980004803738861 1 0 0 I I #
point $-1 56.409192175054173 24.803035895300471 -8.3980004803738861 #
point $-1 56.409192175054173 -24.803035895300471 -8.3980004803738861 #
straight-curve $-1 -56.409192175054173 0 8.3980004803738861 0 -1 0 I I #
point $-1 -56.409192175054173 24.803035895300471 8.3980004803738861 #
point $-1 -56.409192175054173 -24.803035895300471 8.3980004803738861 #
straight-curve $-1 56.409192175054173 -24.803035895300471 0 0 0 -1 I I #
straight-curve $-1 56.409192175054173 24.803035895300471 0 0 0 -1 I I #
face $-1 $215 $349 $16 $-1 $350 reversed single #
loop $-1 $-1 $207 $196 #
plane-surface $-1 -56.409192175054173 0 0 1 0 0 0 0 -1 forward_v I I I I #
coedge $-1 $351 $352 $213 $296 forward $197 $-1 #
coedge $-1 $353 $199 $354 $355 forward $122 $-1 #
coedge $-1 $199 $353 $204 $291 forward $122 $-1 #
coedge $-1 $201 $200 $352 $356 reversed $71 $-1 #
coedge $-1 $357 $207 $201 $285 reversed $278 $-1 #
edge $-1 $358 -8.3980004803738861 $209 3.3885202780577779 $284 $359 forward 7 unknown #
coedge $-1 $207 $354 $202 $287 forward $278 $-1 #
edge $-1 $288 -5.4513702907659702 $211 -0.441890088449862 $286 $360 forward 7 unknown #
vertex $-1 $355 $361 #
straight-curve $-1 0 -14.978720879163536 -8.3980004803738861 -1 0 0 I I #
coedge $-1 $213 $204 $362 $363 reversed $133 $-1 #
edge $-1 $364 -24.803035895300471 $205 14.978720879163536 $204 $365 forward 7 unknown #
point $-1 56.409192175054173 -14.978720879163536 -8.3980004803738861 #
straight-curve $-1 -56.409192175054173 -9.9454391936160018 -3.3885202780577779 0 -1 0 I I #
point $-1 -56.409192175054173 -24.803035895300471 -3.3885202780577779 #
point $-1 -56.409192175054173 -14.978720879163536 -3.3885202780577779 #
edge $-1 $297 -24.803035895300471 $366 24.803035895300471 $213 $367 forward 7 unknown #
vertex $-1 $296 $368 #
straight-curve $-1 56.409192175054173 -24.803035895300471 0 0 0 -1 I I #
plane-surface $-1 56.409192175054173 0 0 -1 0 0 0 0 1 forward_v I I I I #
face $-1 $369 $370 $17 $-1 $371 reversed single #
loop $-1 $-1 $372 $218 #
plane-surface $-1 0 -14.978720879163536 -5.8932603792158318 0 -1 0 0 0 -1 forward_v I I I I #
coedge $-1 $373 $374 $375 $376 reversed $219 $-1 #
coedge $-1 $221 $232 $377 $378 forward $79 $-1 #
coedge $-1 $379 $223 $221 $306 reversed $309 $-1 #
edge $-1 $380 -56.409192175054173 $225 46.902895778777015 $305 $381 forward 7 unknown #
edge $-1 $227 4.6485488010135452 $310 14.985840996529133 $229 $382 forward 7 unknown #
coedge $-1 $223 $383 $314 $384 reversed $309 $-1 #
loop $-1 $-1 $223 $385 #
vertex $-1 $384 $386 #
straight-curve $-1 -37.892771230078623 24.803035895300471 14.706957730755239 0.81915203911291934 0 0.57357644374324357 I I #
point $-1 -46.902895778777015 24.803035895300471 8.3980004803738861 #
point $-1 -56.409192175054173 14.465743699784884 1.7416199553975815 #
coedge $-1 $387 $229 $308 $384 forward $138 $-1 #
coedge $-1 $230 $388 $389 $390 reversed $138 $-1 #
coedge $-1 $389 $391 $232 $317 reversed $370 $-1 #
edge $-1 $318 -56.409192175054173 $392 56.409192175054173 $316 $393 forward 7 unknown #
vertex $-1 $233 $394 #
straight-curve $-1 -56.409192175054173 0 8.3980004803738861 0 -1 0 I I #
face $-1 $395 $396 $18 $-1 $397 reversed single #
loop $-1 $-1 $327 $236 #
plane-surface $-1 -56.409192175054173 0 0 1 0 0 0 0 -1 forward_v I I I I #
coedge $-1 $242 $398 $324 $399 forward $237 $-1 #
coedge $-1 $400 $325 $323 $399 reversed $239 $-1 #
coedge $-1 $324 $401 $240 $326 reversed $239 $-1 #
edge $-1 $330 -11.605045147139924 $402 0 $240 $403 forward 7 unknown #
coedge $-1 $404 $405 $241 $328 forward $321 $-1 #
edge $-1 $331 38.680514292233063 $402 45.33689481720937 $327 $406 forward 7 unknown #
coedge $-1 $407 $242 $405 $408 forward $237 $-1 #
vertex $-1 $399 $409 #
vertex $-1 $408 $410 #
straight-curve $-1 -60.55957992972386 14.465743699784884 8.3980004803738879 -1 0 0 I I #
vertex $-1 $244 $411 #
point $-1 -49.895401748687704 17.419255755646478 4.2987993505022857 #
face $-1 $412 $413 $19 $-1 $414 forward single #
plane-surface $-1 -56.409192175054173 19.634389797542678 1.7416199553975815 -0.57357644374324357 0 0.81915203911291934 0.81915203911291934 0 0.57357644374324357 forward_v I I I I #
coedge $-1 $415 $416 $417 $418 reversed $249 $-1 #
coedge $-1 $338 $338 $-1 $419 forward $251 $-1 #
edge $-1 $420 0 $420 6.2831853071796004 $252 $421 forward 7 unknown #
vertex $-1 $255 $422 #
ellipse-curve $-1 -51.656043976915598 17.419255755646478 5.0698102178857321 0.57357644374324357 0 -0.81915203911291934 0.81915203911291934 0 0.57357644374324357 1 I I #
vertex $-1 $256 $423 #
point $-1 -49.895401748687704 21.84952383943887 4.2987993505022857 #
loop $-1 $-1 $424 $248 #
straight-curve $-1 -56.409192175054173 24.803035895300471 0 0 0 -1 I I #
point $-1 -56.409192175054173 -24.803035895300471 -8.3980004803738861 #
straight-curve $-1 -56.409192175054173 0 -8.3980004803738861 0 1 0 I I #
point $-1 -56.409192175054173 24.803035895300471 -8.3980004803738861 #
loop $-1 $-1 $362 $277 #
plane-surface $-1 0 24.803035895300471 0 0 -1 0 0 0 -1 forward_v I I I I #
coedge $-1 $425 $280 $426 $427 forward $197 $-1 #
coedge $-1 $280 $425 $283 $356 forward $197 $-1 #
coedge $-1 $282 $281 $428 $429 forward $122 $-1 #
coedge $-1 $286 $430 $281 $355 reversed $278 $-1 #
edge $-1 $288 -14.978720879163536 $431 24.803035895300471 $354 $432 forward 7 unknown #
edge $-1 $358 -56.409192175054173 $297 56.409192175054173 $283 $433 forward 7 unknown #
coedge $-1 $430 $284 $425 $434 reversed $278 $-1 #
vertex $-1 $434 $435 #
straight-curve $-1 -56.409192175054173 -24.803035895300471 0 0 0 -1 I I #
straight-curve $-1 -56.409192175054173 -14.978720879163536 -2.9466301896079159 0 0 1 I I #
point $-1 -56.409192175054173 -14.978720879163536 -8.3980004803738861 #
coedge $-1 $428 $426 $290 $363 forward $349 $-1 #
edge $-1 $366 -8.3980004803738861 $364 8.3980004803738861 $290 $436 forward 7 unknown #
vertex $-1 $291 $437 #
straight-curve $-1 56.409192175054173 0 -8.3980004803738861 0 -1 0 I I #
vertex $-1 $296 $438 #
straight-curve $-1 56.409192175054173 0 8.3980004803738861 0 1 0 I I #
point $-1 56.409192175054173 -24.803035895300471 8.3980004803738861 #
face $-1 $385 $439 $17 $-1 $440 reversed single #
loop $-1 $-1 $441 $300 #
plane-surface $-1 0 -24.803035895300471 0 0 1 0 0 0 1 forward_v I I I I #
coedge $-1 $442 $443 $444 $445 reversed $301 $-1 #
coedge $-1 $446 $303 $441 $447 reversed $219 $-1 #
coedge $-1 $303 $446 $442 $448 reversed $219 $-1 #
coedge $-1 $444 $449 $303 $376 forward $450 $-1 #
edge $-1 $451 -14.85759670168447 $452 -5.033281685547534 $375 $453 forward 7 unknown #
coedge $-1 $449 $454 $304 $378 reversed $450 $-1 #
edge $-1 $392 -24.803035895300471 $380 24.803035895300471 $377 $455 forward 7 unknown #
coedge $-1 $383 $305 $454 $456 forward $309 $-1 #
vertex $-1 $378 $457 #
straight-curve $-1 0 24.803035895300471 8.3980004803738861 -1 0 0 I I #
straight-curve $-1 -56.409192175054173 9.8171948987713389 1.7416199553975831 0 1 0 I I #
coedge $-1 $308 $379 $458 $459 reversed $309 $-1 #
edge $-1 $310 -1.7416199553975815 $460 8.3980004803738861 $308 $461 forward 7 unknown #
face $-1 $462 $309 $17 $-1 $463 reversed single #
point $-1 -56.409192175054173 24.803035895300471 1.7416199553975815 #
coedge $-1 $464 $314 $465 $466 reversed $138 $-1 #
coedge $-1 $315 $464 $446 $467 forward $138 $-1 #
coedge $-1 $441 $316 $315 $390 forward $370 $-1 #
edge $-1 $318 -8.3980004803738861 $468 3.3885202780577779 $315 $469 forward 7 unknown #
coedge $-1 $316 $441 $449 $470 reversed $370 $-1 #
vertex $-1 $378 $471 #
straight-curve $-1 0 -24.803035895300471 8.3980004803738861 1 0 0 I I #
point $-1 -56.409192175054173 -24.803035895300471 8.3980004803738861 #
face $-1 $472 $473 $18 $-1 $474 forward single #
loop $-1 $-1 $475 $320 #
plane-surface $-1 0 -19.890878387232004 -3.3885202780577779 0 0 1 1 0 0 forward_v I I I I #
coedge $-1 $323 $476 $477 $478 forward $237 $-1 #
edge $-1 $479 -14.985840996529133 $330 -4.6485488010135452 $323 $480 forward 7 unknown #
coedge $-1 $401 $324 $481 $482 reversed $239 $-1 #
coedge $-1 $325 $400 $404 $483 reversed $239 $-1 #
vertex $-1 $483 $484 #
straight-curve $-1 -56.409192175054173 14.465743699784884 1.7416199553975815 -0.81915203911291934 0 -0.57357644374324357 I I #
coedge $-1 $485 $327 $401 $483 forward $321 $-1 #
coedge $-1 $327 $486 $329 $408 reversed $321 $-1 #
straight-curve $-1 -56.409192175054173 14.465743699784884 47.078514772606951 0 0 -1 I I #
coedge $-1 $476 $329 $487 $488 forward $237 $-1 #
edge $-1 $331 -14.465743699784884 $489 24.803035895300471 $405 $490 forward 7 unknown #
point $-1 -46.902895778777015 14.465743699784884 8.3980004803738861 #
point $-1 -56.409192175054173 14.465743699784884 8.3980004803738861 #
point $-1 -50.140977344057376 17.419255755646478 2.9060708676461231 #
face $-1 $491 $492 $19 $-1 $493 reversed single #
loop $-1 $-1 $494 $335 #
plane-surface $-1 0 0 8.3980004803738861 0 0 1 1 0 0 forward_v I I I I #
coedge $-1 $416 $337 $495 $496 forward $249 $-1 #
coedge $-1 $337 $415 $497 $498 reversed $249 $-1 #
coedge $-1 $499 $494 $337 $418 forward $413 $-1 #
edge $-1 $500 -13.656684150946845 $501 -4.150387754669687 $417 $502 forward 7 unknown #
edge $-1 $503 1 $503 0 $338 $-1 forward 7 unknown #
vertex $-1 $339 $504 #
ellipse-curve $-1 -50.714553787800625 17.419255755646478 3.7252229067590421 -0.57357644374324357 0 0.81915203911291934 0.81915203911291934 0 0.57357644374324357 1 I I #
point $-1 -50.836891937802676 17.419255755646478 5.6433866616289787 #
point $-1 -50.140977344057376 21.84952383943887 2.9060708676461231 #
coedge $-1 $505 $495 $494 $506 reversed $344 $-1 #
coedge $-1 $352 $351 $357 $434 forward $197 $-1 #
coedge $-1 $362 $507 $351 $427 reversed $349 $-1 #
edge $-1 $366 -56.409192175054173 $508 56.409192175054173 $426 $509 forward 7 unknown #
coedge $-1 $507 $362 $353 $429 reversed $349 $-1 #
edge $-1 $431 -56.409192175054173 $364 56.409192175054173 $428 $510 forward 7 unknown #
coedge $-1 $354 $357 $507 $511 forward $278 $-1 #
vertex $-1 $429 $512 #
straight-curve $-1 -56.409192175054173 0 -8.3980004803738861 0 1 0 I I #
straight-curve $-1 0 -24.803035895300471 8.3980004803738861 1 0 0 I I #
edge $-1 $508 -24.803035895300471 $358 24.803035895300471 $357 $513 forward 7 unknown #
point $-1 -56.409192175054173 -24.803035895300471 8.3980004803738861 #
straight-curve $-1 56.409192175054173 24.803035895300471 0 0 0 -1 I I #
point $-1 56.409192175054173 24.803035895300471 -8.3980004803738861 #
point $-1 56.409192175054173 24.803035895300471 8.3980004803738861 #
loop $-1 $-1 $514 $369 #
plane-surface $-1 0 0 -8.3980004803738861 0 0 1 1 0 0 forward_v I I I I #
coedge $-1 $391 $389 $373 $447 forward $370 $-1 #
coedge $-1 $515 $372 $374 $448 forward $301 $-1 #
coedge $-1 $372 $515 $514 $516 reversed $301 $-1 #
coedge $-1 $517 $375 $372 $445 forward $450 $-1 #
edge $-1 $452 0.441890088449862 $518 5.4513702907659702 $444 $519 forward 7 unknown #
coedge $-1 $374 $373 $388 $467 reversed $219 $-1 #
edge $-1 $468 -56.409192175054173 $451 56.409192175054173 $441 $520 forward 7 unknown #
edge $-1 $452 -56.409192175054173 $521 56.409192175054173 $442 $522 forward 7 unknown #
coedge $-1 $375 $377 $391 $470 forward $450 $-1 #
loop $-1 $-1 $444 $462 #
vertex $-1 $447 $523 #
vertex $-1 $376 $524 #
straight-curve $-1 56.409192175054173 -9.9454391936160018 -3.3885202780577779 0 1 0 I I #
coedge $-1 $377 $517 $379 $456 reversed $450 $-1 #
straight-curve $-1 56.409192175054173 0 8.3980004803738861 0 1 0 I I #
edge $-1 $380 -8.3980004803738861 $525 8.3980004803738861 $454 $526 forward 7 unknown #
point $-1 56.409192175054173 24.803035895300471 8.3980004803738861 #
coedge $-1 $527 $465 $383 $459 forward $439 $-1 #
edge $-1 $460 -56.409192175054173 $525 56.409192175054173 $383 $528 forward 7 unknown #
vertex $-1 $459 $529 #
straight-curve $-1 -56.409192175054173 24.803035895300471 0 0 0 -1 I I #
face $-1 $-1 $450 $17 $-1 $530 reversed single #
plane-surface $-1 0 24.803035895300471 0 0 -1 0 0 0 -1 forward_v I I I I #
coedge $-1 $388 $387 $515 $531 forward $138 $-1 #
coedge $-1 $458 $514 $387 $466 forward $439 $-1 #
edge $-1 $532 -14.978720879163536 $460 24.803035895300471 $387 $533 forward 7 unknown #
edge $-1 $521 5.033281685547534 $468 14.85759670168447 $388 $534 forward 7 unknown #
vertex $-1 $447 $535 #
straight-curve $-1 -56.409192175054173 -24.803035895300471 0 0 0 -1 I I #
edge $-1 $392 -8.3980004803738861 $451 3.3885202780577779 $449 $536 forward 7 unknown #
point $-1 56.409192175054173 -24.803035895300471 8.3980004803738861 #
face $-1 $537 $538 $18 $-1 $539 reversed single #
loop $-1 $-1 $540 $395 #
plane-surface $-1 0 -14.978720879163536 -5.8932603792158318 0 -1 0 0 0 -1 forward_v I I I I #
coedge $-1 $541 $542 $543 $544 reversed $396 $-1 #
coedge $-1 $398 $407 $545 $546 forward $237 $-1 #
coedge $-1 $547 $481 $398 $478 reversed $548 $-1 #
edge $-1 $549 -56.409192175054173 $479 46.902895778777015 $477 $550 forward 7 unknown #
vertex $-1 $482 $551 #
straight-curve $-1 -46.902895778777008 9.8171948987713389 8.3980004803738879 0 -1 0 I I #
coedge $-1 $477 $552 $400 $482 forward $548 $-1 #
edge $-1 $553 -22.604376307269472 $479 -10.99933116012955 $481 $554 forward 7 unknown #
edge $-1 $402 4.6485488010135452 $553 14.985840996529133 $404 $555 forward 7 unknown #
point $-1 -56.409192175054173 14.465743699784884 1.7416199553975815 #
coedge $-1 $556 $404 $552 $557 forward $321 $-1 #
coedge $-1 $405 $558 $559 $560 reversed $321 $-1 #
coedge $-1 $559 $561 $407 $488 reversed $538 $-1 #
edge $-1 $489 -56.409192175054173 $562 56.409192175054173 $487 $563 forward 7 unknown #
vertex $-1 $408 $564 #
straight-curve $-1 -56.409192175054173 0 8.3980004803738861 0 -1 0 I I #
face $-1 $565 $566 $19 $-1 $567 reversed single #
loop $-1 $-1 $497 $412 #
plane-surface $-1 -56.409192175054173 0 0 1 0 0 0 0 -1 forward_v I I I I #
coedge $-1 $417 $568 $424 $506 forward $413 $-1 #
coedge $-1 $424 $569 $415 $496 reversed $344 $-1 #
edge $-1 $500 -11.605045147139924 $570 0 $415 $571 forward 7 unknown #
coedge $-1 $572 $573 $416 $498 forward $492 $-1 #
edge $-1 $501 38.680514292233063 $570 45.33689481720937 $497 $574 forward 7 unknown #
coedge $-1 $575 $417 $573 $576 forward $413 $-1 #
vertex $-1 $506 $577 #
vertex $-1 $576 $578 #
straight-curve $-1 -60.55957992972386 14.465743699784884 8.3980004803738879 -1 0 0 I I #
vertex $-1 $419 $579 #
point $-1 -49.895401748687704 17.419255755646478 4.2987993505022857 #
coedge $-1 $569 $424 $580 $581 reversed $344 $-1 #
edge $-1 $582 -14.985840996529133 $500 -4.6485488010135452 $494 $583 forward 7 unknown #
coedge $-1 $426 $428 $430 $511 reversed $349 $-1 #
vertex $-1 $427 $584 #
straight-curve $-1 0 24.803035895300471 8.3980004803738861 -1 0 0 I I #
straight-curve $-1 0 24.803035895300471 -8.3980004803738861 1 0 0 I I #
edge $-1 $508 -8.3980004803738861 $431 8.3980004803738861 $507 $585 forward 7 unknown #
point $-1 -56.409192175054173 24.803035895300471 -8.3980004803738861 #
straight-curve $-1 -56.409192175054173 0 8.3980004803738861 0 -1 0 I I #
coedge $-1 $465 $527 $443 $516 forward $439 $-1 #
coedge $-1 $443 $442 $464 $531 reversed $301 $-1 #
edge $-1 $518 -56.409192175054173 $532 56.409192175054173 $514 $586 forward 7 unknown #
coedge $-1 $454 $444 $527 $587 reversed $450 $-1 #
vertex $-1 $516 $588 #
straight-curve $-1 56.409192175054173 -14.978720879163536 -2.9466301896079159 0 0 -1 I I #
straight-curve $-1 0 -24.803035895300471 -3.3885202780577779 1 0 0 I I #
vertex $-1 $467 $589 #
straight-curve $-1 0 -14.978720879163536 -3.3885202780577779 -1 0 0 I I #
point $-1 56.409192175054173 -24.803035895300471 -3.3885202780577779 #
point $-1 56.409192175054173 -14.978720879163536 -3.3885202780577779 #
vertex $-1 $587 $590 #
straight-curve $-1 56.409192175054173 24.803035895300471 0 0 0 -1 I I #
coedge $-1 $514 $458 $517 $587 forward $439 $-1 #
straight-curve $-1 0 24.803035895300471 -8.3980004803738861 1 0 0 I I #
point $-1 -56.409192175054173 24.803035895300471 -8.3980004803738861 #
plane-surface $-1 56.409192175054173 0 0 -1 0 0 0 0 1 forward_v I I I I #
edge $-1 $532 -5.4513702907659702 $521 -0.441890088449862 $464 $591 forward 7 unknown #
vertex $-1 $466 $592 #
straight-curve $-1 -56.409192175054173 0 -8.3980004803738861 0 1 0 I I #
straight-curve $-1 -56.409192175054173 -9.9454391936160018 -3.3885202780577779 0 -1 0 I I #
point $-1 -56.409192175054173 -24.803035895300471 -3.3885202780577779 #
straight-curve $-1 56.409192175054173 -24.803035895300471 0 0 0 -1 I I #
face $-1 $593 $594 $18 $-1 $595 reversed single #
loop $-1 $-1 $596 $472 #
plane-surface $-1 0 -24.803035895300471 0 0 1 0 0 0 1 forward_v I I I I #
coedge $-1 $597 $598 $599 $600 reversed $473 $-1 #
coedge $-1 $601 $475 $596 $602 reversed $396 $-1 #
coedge $-1 $475 $601 $597 $603 reversed $396 $-1 #
coedge $-1 $599 $604 $475 $544 forward $605 $-1 #
edge $-1 $606 -14.85759670168447 $607 -5.033281685547534 $543 $608 forward 7 unknown #
coedge $-1 $604 $609 $476 $546 reversed $605 $-1 #
edge $-1 $562 -24.803035895300471 $549 24.803035895300471 $545 $610 forward 7 unknown #
coedge $-1 $611 $477 $609 $612 forward $548 $-1 #
loop $-1 $-1 $481 $593 #
vertex $-1 $546 $613 #
straight-curve $-1 0 24.803035895300471 8.3980004803738861 -1 0 0 I I #
point $-1 -46.902895778777015 24.803035895300471 8.3980004803738861 #
coedge $-1 $481 $611 $485 $557 reversed $548 $-1 #
vertex $-1 $557 $614 #
straight-curve $-1 -37.892771230078623 24.803035895300471 14.706957730755239 0.81915203911291934 0 0.57357644374324357 I I #
straight-curve $-1 -56.409192175054173 9.8171948987713389 1.7416199553975831 0 1 0 I I #
coedge $-1 $615 $485 $616 $617 reversed $321 $-1 #
edge $-1 $553 -1.7416199553975815 $618 8.3980004803738861 $552 $619 forward 7 unknown #
coedge $-1 $486 $615 $601 $620 forward $321 $-1 #
coedge $-1 $596 $487 $486 $560 forward $538 $-1 #
edge $-1 $489 -8.3980004803738861 $621 3.3885202780577779 $486 $622 forward 7 unknown #
coedge $-1 $487 $596 $604 $623 reversed $538 $-1 #
vertex $-1 $546 $624 #
straight-curve $-1 0 -24.803035895300471 8.3980004803738861 1 0 0 I I #
point $-1 -56.409192175054173 -24.803035895300471 8.3980004803738861 #
face $-1 $625 $626 $19 $-1 $627 forward single #
loop $-1 $-1 $628 $491 #
plane-surface $-1 0 -19.890878387232004 -3.3885202780577779 0 0 1 1 0 0 forward_v I I I I #
coedge $-1 $494 $629 $630 $631 forward $413 $-1 #
coedge $-1 $495 $505 $572 $632 reversed $344 $-1 #
vertex $-1 $632 $633 #
straight-curve $-1 -56.409192175054173 14.465743699784884 1.7416199553975815 -0.81915203911291934 0 -0.57357644374324357 I I #
coedge $-1 $634 $497 $569 $632 forward $492 $-1 #
coedge $-1 $497 $635 $499 $576 reversed $492 $-1 #
straight-curve $-1 -56.409192175054173 14.465743699784884 47.078514772606951 0 0 -1 I I #
coedge $-1 $629 $499 $636 $637 forward $413 $-1 #
edge $-1 $501 -14.465743699784884 $638 24.803035895300471 $573 $639 forward 7 unknown #
point $-1 -46.902895778777015 14.465743699784884 8.3980004803738861 #
point $-1 -56.409192175054173 14.465743699784884 8.3980004803738861 #
point $-1 -50.140977344057376 17.419255755646478 2.9060708676461231 #
coedge $-1 $630 $640 $505 $581 forward $641 $-1 #
edge $-1 $642 -22.604376307269472 $582 -10.99933116012955 $580 $643 forward 7 unknown #
vertex $-1 $581 $644 #
straight-curve $-1 -46.902895778777008 9.8171948987713389 8.3980004803738879 0 -1 0 I I #
point $-1 -56.409192175054173 24.803035895300471 8.3980004803738861 #
straight-curve $-1 -56.409192175054173 24.803035895300471 0 0 0 -1 I I #
straight-curve $-1 0 -14.978720879163536 -8.3980004803738861 -1 0 0 I I #
edge $-1 $525 -24.803035895300471 $518 14.978720879163536 $517 $645 forward 7 unknown #
point $-1 56.409192175054173 -14.978720879163536 -8.3980004803738861 #
point $-1 -56.409192175054173 -14.978720879163536 -3.3885202780577779 #
point $-1 56.409192175054173 24.803035895300471 -8.3980004803738861 #
straight-curve $-1 -56.409192175054173 -14.978720879163536 -2.9466301896079159 0 0 1 I I #
point $-1 -56.409192175054173 -14.978720879163536 -8.3980004803738861 #
face $-1 $646 $548 $18 $-1 $647 reversed single #
loop $-1 $-1 $648 $537 #
plane-surface $-1 0 0 -8.3980004803738861 0 0 1 1 0 0 forward_v I I I I #
coedge $-1 $561 $559 $541 $602 forward $538 $-1 #
coedge $-1 $649 $540 $542 $603 forward $473 $-1 #
coedge $-1 $540 $649 $648 $650 reversed $473 $-1 #
coedge $-1 $651 $543 $540 $600 forward $605 $-1 #
edge $-1 $607 0.441890088449862 $652 5.4513702907659702 $599 $653 forward 7 unknown #
coedge $-1 $542 $541 $558 $620 reversed $396 $-1 #
edge $-1 $621 -56.409192175054173 $606 56.409192175054173 $596 $654 forward 7 unknown #
edge $-1 $607 -56.409192175054173 $655 56.409192175054173 $597 $656 forward 7 unknown #
coedge $-1 $543 $545 $561 $623 forward $605 $-1 #
loop $-1 $-1 $599 $646 #
vertex $-1 $602 $657 #
vertex $-1 $544 $658 #
straight-curve $-1 56.409192175054173 -9.9454391936160018 -3.3885202780577779 0 1 0 I I #
coedge $-1 $545 $651 $547 $612 reversed $605 $-1 #
straight-curve $-1 56.409192175054173 0 8.3980004803738861 0 1 0 I I #
coedge $-1 $552 $547 $659 $660 reversed $548 $-1 #
edge $-1 $549 -8.3980004803738861 $661 8.3980004803738861 $609 $662 forward 7 unknown #
point $-1 56.409192175054173 24.803035895300471 8.3980004803738861 #
point $-1 -56.409192175054173 24.803035895300471 1.7416199553975815 #
coedge $-1 $558 $556 $649 $663 forward $321 $-1 #
coedge $-1 $659 $648 $556 $617 forward $594 $-1 #
edge $-1 $664 -14.978720879163536 $618 24.803035895300471 $556 $665 forward 7 unknown #
vertex $-1 $660 $666 #
straight-curve $-1 -56.409192175054173 24.803035895300471 0 0 0 -1 I I #
edge $-1 $655 5.033281685547534 $621 14.85759670168447 $558 $667 forward 7 unknown #
vertex $-1 $602 $668 #
straight-curve $-1 -56.409192175054173 -24.803035895300471 0 0 0 -1 I I #
edge $-1 $562 -8.3980004803738861 $606 3.3885202780577779 $604 $669 forward 7 unknown #
point $-1 56.409192175054173 -24.803035895300471 8.3980004803738861 #
face $-1 $670 $671 $19 $-1 $672 reversed single #
loop $-1 $-1 $673 $565 #
plane-surface $-1 0 -14.978720879163536 -5.8932603792158318 0 -1 0 0 0 -1 forward_v I I I I #
coedge $-1 $674 $675 $676 $677 reversed $566 $-1 #
coedge $-1 $568 $575 $678 $679 forward $413 $-1 #
coedge $-1 $680 $580 $568 $631 reversed $641 $-1 #
edge $-1 $681 -56.409192175054173 $582 46.902895778777015 $630 $682 forward 7 unknown #
edge $-1 $570 4.6485488010135452 $642 14.985840996529133 $572 $683 forward 7 unknown #
point $-1 -56.409192175054173 14.465743699784884 1.7416199553975815 #
coedge $-1 $684 $572 $640 $685 forward $492 $-1 #
coedge $-1 $573 $686 $687 $688 reversed $492 $-1 #
coedge $-1 $687 $689 $575 $637 reversed $671 $-1 #
edge $-1 $638 -56.409192175054173 $690 56.409192175054173 $636 $691 forward 7 unknown #
vertex $-1 $576 $692 #
straight-curve $-1 -56.409192175054173 0 8.3980004803738861 0 -1 0 I I #
coedge $-1 $580 $693 $634 $685 reversed $641 $-1 #
loop $-1 $-1 $580 $694 #
vertex $-1 $685 $695 #
straight-curve $-1 -37.892771230078623 24.803035895300471 14.706957730755239 0.81915203911291934 0 0.57357644374324357 I I #
point $-1 -46.902895778777015 24.803035895300471 8.3980004803738861 #
straight-curve $-1 56.409192175054173 0 -8.3980004803738861 0 -1 0 I I #
face $-1 $-1 $605 $18 $-1 $696 reversed single #
plane-surface $-1 0 24.803035895300471 0 0 -1 0 0 0 -1 forward_v I I I I #
coedge $-1 $616 $697 $598 $650 forward $594 $-1 #
coedge $-1 $598 $597 $615 $663 reversed $473 $-1 #
edge $-1 $652 -56.409192175054173 $664 56.409192175054173 $648 $698 forward 7 unknown #
coedge $-1 $609 $599 $697 $699 reversed $605 $-1 #
vertex $-1 $650 $700 #
straight-curve $-1 56.409192175054173 -14.978720879163536 -2.9466301896079159 0 0 -1 I I #
straight-curve $-1 0 -24.803035895300471 -3.3885202780577779 1 0 0 I I #
vertex $-1 $620 $701 #
straight-curve $-1 0 -14.978720879163536 -3.3885202780577779 -1 0 0 I I #
point $-1 56.409192175054173 -24.803035895300471 -3.3885202780577779 #
point $-1 56.409192175054173 -14.978720879163536 -3.3885202780577779 #
coedge $-1 $697 $616 $611 $660 forward $594 $-1 #
edge $-1 $618 -56.409192175054173 $661 56.409192175054173 $611 $702 forward 7 unknown #
vertex $-1 $699 $703 #
straight-curve $-1 56.409192175054173 24.803035895300471 0 0 0 -1 I I #
edge $-1 $664 -5.4513702907659702 $655 -0.441890088449862 $615 $704 forward 7 unknown #
vertex $-1 $617 $705 #
straight-curve $-1 -56.409192175054173 0 -8.3980004803738861 0 1 0 I I #
point $-1 -56.409192175054173 24.803035895300471 -8.3980004803738861 #
straight-curve $-1 -56.409192175054173 -9.9454391936160018 -3.3885202780577779 0 -1 0 I I #
point $-1 -56.409192175054173 -24.803035895300471 -3.3885202780577779 #
straight-curve $-1 56.409192175054173 -24.803035895300471 0 0 0 -1 I I #
face $-1 $694 $706 $19 $-1 $707 reversed single #
loop $-1 $-1 $708 $625 #
plane-surface $-1 0 -24.803035895300471 0 0 1 0 0 0 1 forward_v I I I I #
coedge $-1 $709 $710 $711 $712 reversed $626 $-1 #
coedge $-1 $713 $628 $708 $714 reversed $566 $-1 #
coedge $-1 $628 $713 $709 $715 reversed $566 $-1 #
coedge $-1 $711 $716 $628 $677 forward $717 $-1 #
edge $-1 $718 -14.85759670168447 $719 -5.033281685547534 $676 $720 forward 7 unknown #
coedge $-1 $716 $721 $629 $679 reversed $717 $-1 #
edge $-1 $690 -24.803035895300471 $681 24.803035895300471 $678 $722 forward 7 unknown #
coedge $-1 $693 $630 $721 $723 forward $641 $-1 #
vertex $-1 $679 $724 #
straight-curve $-1 0 24.803035895300471 8.3980004803738861 -1 0 0 I I #
straight-curve $-1 -56.409192175054173 9.8171948987713389 1.7416199553975831 0 1 0 I I #
coedge $-1 $725 $634 $726 $727 reversed $492 $-1 #
edge $-1 $642 -1.7416199553975815 $728 8.3980004803738861 $640 $729 forward 7 unknown #
coedge $-1 $635 $725 $713 $730 forward $492 $-1 #
coedge $-1 $708 $636 $635 $688 forward $671 $-1 #
edge $-1 $638 -8.3980004803738861 $731 3.3885202780577779 $635 $732 forward 7 unknown #
coedge $-1 $636 $708 $716 $733 reversed $671 $-1 #
vertex $-1 $679 $734 #
straight-curve $-1 0 -24.803035895300471 8.3980004803738861 1 0 0 I I #
point $-1 -56.409192175054173 -24.803035895300471 8.3980004803738861 #
coedge $-1 $640 $680 $735 $736 reversed $641 $-1 #
face $-1 $737 $641 $19 $-1 $738 reversed single #
point $-1 -56.409192175054173 24.803035895300471 1.7416199553975815 #
plane-surface $-1 56.409192175054173 0 0 -1 0 0 0 0 1 forward_v I I I I #
coedge $-1 $648 $659 $651 $699 forward $594 $-1 #
straight-curve $-1 0 -14.978720879163536 -8.3980004803738861 -1 0 0 I I #
edge $-1 $661 -24.803035895300471 $652 14.978720879163536 $651 $739 forward 7 unknown #
point $-1 56.409192175054173 -14.978720879163536 -8.3980004803738861 #
point $-1 -56.409192175054173 -14.978720879163536 -3.3885202780577779 #
straight-curve $-1 0 24.803035895300471 -8.3980004803738861 1 0 0 I I #
point $-1 56.409192175054173 24.803035895300471 -8.3980004803738861 #
straight-curve $-1 -56.409192175054173 -14.978720879163536 -2.9466301896079159 0 0 1 I I #
point $-1 -56.409192175054173 -14.978720879163536 -8.3980004803738861 #
loop $-1 $-1 $740 $670 #
plane-surface $-1 0 0 -8.3980004803738861 0 0 1 1 0 0 forward_v I I I I #
coedge $-1 $689 $687 $674 $714 forward $671 $-1 #
coedge $-1 $741 $673 $675 $715 forward $626 $-1 #
coedge $-1 $673 $741 $740 $742 reversed $626 $-1 #
coedge $-1 $743 $676 $673 $712 forward $717 $-1 #
edge $-1 $719 0.441890088449862 $744 5.4513702907659702 $711 $745 forward 7 unknown #
coedge $-1 $675 $674 $686 $730 reversed $566 $-1 #
edge $-1 $731 -56.409192175054173 $718 56.409192175054173 $708 $746 forward 7 unknown #
edge $-1 $719 -56.409192175054173 $747 56.409192175054173 $709 $748 forward 7 unknown #
coedge $-1 $676 $678 $689 $733 forward $717 $-1 #
loop $-1 $-1 $711 $737 #
vertex $-1 $714 $749 #
vertex $-1 $677 $750 #
straight-curve $-1 56.409192175054173 -9.9454391936160018 -3.3885202780577779 0 1 0 I I #
coedge $-1 $678 $743 $680 $723 reversed $717 $-1 #
straight-curve $-1 56.409192175054173 0 8.3980004803738861 0 1 0 I I #
edge $-1 $681 -8.3980004803738861 $751 8.3980004803738861 $721 $752 forward 7 unknown #
point $-1 56.409192175054173 24.803035895300471 8.3980004803738861 #
coedge $-1 $686 $684 $741 $753 forward $492 $-1 #
coedge $-1 $735 $740 $684 $727 forward $706 $-1 #
edge $-1 $754 -14.978720879163536 $728 24.803035895300471 $684 $755 forward 7 unknown #
vertex $-1 $736 $756 #
straight-curve $-1 -56.409192175054173 24.803035895300471 0 0 0 -1 I I #
edge $-1 $747 5.033281685547534 $731 14.85759670168447 $686 $757 forward 7 unknown #
vertex $-1 $714 $758 #
straight-curve $-1 -56.409192175054173 -24.803035895300471 0 0 0 -1 I I #
edge $-1 $690 -8.3980004803738861 $718 3.3885202780577779 $716 $759 forward 7 unknown #
point $-1 56.409192175054173 -24.803035895300471 8.3980004803738861 #
coedge $-1 $760 $726 $693 $736 forward $706 $-1 #
edge $-1 $728 -56.409192175054173 $751 56.409192175054173 $693 $761 forward 7 unknown #
face $-1 $-1 $717 $19 $-1 $762 reversed single #
plane-surface $-1 0 24.803035895300471 0 0 -1 0 0 0 -1 forward_v I I I I #
straight-curve $-1 56.409192175054173 0 -8.3980004803738861 0 -1 0 I I #
coedge $-1 $726 $760 $710 $742 forward $706 $-1 #
coedge $-1 $710 $709 $725 $753 reversed $626 $-1 #
edge $-1 $744 -56.409192175054173 $754 56.409192175054173 $740 $763 forward 7 unknown #
coedge $-1 $721 $711 $760 $764 reversed $717 $-1 #
vertex $-1 $742 $765 #
straight-curve $-1 56.409192175054173 -14.978720879163536 -2.9466301896079159 0 0 -1 I I #
straight-curve $-1 0 -24.803035895300471 -3.3885202780577779 1 0 0 I I #
vertex $-1 $730 $766 #
straight-curve $-1 0 -14.978720879163536 -3.3885202780577779 -1 0 0 I I #
point $-1 56.409192175054173 -24.803035895300471 -3.3885202780577779 #
point $-1 56.409192175054173 -14.978720879163536 -3.3885202780577779 #
vertex $-1 $764 $767 #
straight-curve $-1 56.409192175054173 24.803035895300471 0 0 0 -1 I I #
edge $-1 $754 -5.4513702907659702 $747 -0.441890088449862 $725 $768 forward 7 unknown #
vertex $-1 $727 $769 #
straight-curve $-1 -56.409192175054173 0 -8.3980004803738861 0 1 0 I I #
point $-1 -56.409192175054173 24.803035895300471 -8.3980004803738861 #
straight-curve $-1 -56.409192175054173 -9.9454391936160018 -3.3885202780577779 0 -1 0 I I #
point $-1 -56.409192175054173 -24.803035895300471 -3.3885202780577779 #
straight-curve $-1 56.409192175054173 -24.803035895300471 0 0 0 -1 I I #
coedge $-1 $740 $735 $743 $764 forward $706 $-1 #
straight-curve $-1 0 24.803035895300471 -8.3980004803738861 1 0 0 I I #
plane-surface $-1 56.409192175054173 0 0 -1 0 0 0 0 1 forward_v I I I I #
straight-curve $-1 0 -14.978720879163536 -8.3980004803738861 -1 0 0 I I #
edge $-1 $751 -24.803035895300471 $744 14.978720879163536 $743 $770 forward 7 unknown #
point $-1 56.409192175054173 -14.978720879163536 -8.3980004803738861 #
point $-1 -56.409192175054173 -14.978720879163536 -3.3885202780577779 #
point $-1 56.409192175054173 24.803035895300471 -8.3980004803738861 #
straight-curve $-1 -56.409192175054173 -14.978720879163536 -2.9466301896079159 0 0 1 I I #
point $-1 -56.409192175054173 -14.978720879163536 -8.3980004803738861 #
straight-curve $-1 56.409192175054173 0 -8.3980004803738861 0 -1 0 I I #
End-of-ACIS-data 