500 0 14 0           
7 Unknown 11 ACIS 5.0 NT 24 Thu Mar 25 20:17:08 1999 
-1 9.9999999999999995e-007 1e-010 
body $-1 $14 $-1 $15 #
body $-1 $16 $-1 $17 #
body $-1 $18 $-1 $19 #
body $-1 $20 $-1 $21 #
body $-1 $22 $-1 $23 #
body $-1 $24 $-1 $25 #
body $-1 $26 $-1 $27 #
body $-1 $28 $-1 $29 #
body $-1 $30 $-1 $31 #
body $-1 $32 $-1 $33 #
body $-1 $34 $-1 $35 #
body $-1 $36 $-1 $37 #
body $-1 $38 $-1 $39 #
body $-1 $40 $-1 $41 #
lump $-1 $-1 $42 $0 #
transform $-1 1 0 0 0 1 0 0 0 1 44.596087527085174 19.7170317579771 4.1315085314575875 1 rotate no_reflect no_shear #
lump $-1 $-1 $43 $1 #
transform $-1 1 0 0 0 1 0 0 0 1 44.596087527085174 19.7170317579771 4.1315085314575875 1 rotate no_reflect no_shear #
lump $-1 $-1 $44 $2 #
transform $-1 1 0 0 0 1 0 0 0 1 44.596087527085174 19.7170317579771 4.1315085314575875 1 rotate no_reflect no_shear #
lump $-1 $-1 $45 $3 #
transform $-1 1 0 0 0 1 0 0 0 1 44.596087527085174 19.7170317579771 4.1315085314575875 1 rotate no_reflect no_shear #
lump $-1 $-1 $46 $4 #
transform $-1 1 0 0 0 1 0 0 0 1 44.596087527085174 19.7170317579771 4.1315085314575875 1 rotate no_reflect no_shear #
lump $-1 $-1 $47 $5 #
transform $-1 1 0 0 0 1 0 0 0 1 44.596087527085174 19.7170317579771 4.1315085314575875 1 rotate no_reflect no_shear #
lump $-1 $-1 $48 $6 #
transform $-1 1 0 0 0 1 0 0 0 1 44.596087527085174 19.7170317579771 4.1315085314575875 1 rotate no_reflect no_shear #
lump $-1 $-1 $49 $7 #
transform $-1 1 0 0 0 1 0 0 0 1 44.596087527085174 19.7170317579771 4.1315085314575875 1 rotate no_reflect no_shear #
lump $-1 $-1 $50 $8 #
transform $-1 1 0 0 0 1 0 0 0 1 44.596087527085174 19.7170317579771 4.1315085314575875 1 rotate no_reflect no_shear #
lump $-1 $-1 $51 $9 #
transform $-1 1 0 0 0 1 0 0 0 1 44.596087527085174 19.7170317579771 4.1315085314575875 1 rotate no_reflect no_shear #
lump $-1 $-1 $52 $10 #
transform $-1 1 0 0 0 1 0 0 0 1 44.596087527085174 19.7170317579771 4.1315085314575875 1 rotate no_reflect no_shear #
lump $-1 $-1 $53 $11 #
transform $-1 1 0 0 0 1 0 0 0 1 44.596087527085174 19.7170317579771 4.1315085314575875 1 rotate no_reflect no_shear #
lump $-1 $-1 $54 $12 #
transform $-1 1 0 0 0 1 0 0 0 1 44.596087527085174 19.7170317579771 4.1315085314575875 1 rotate no_reflect no_shear #
lump $-1 $-1 $55 $13 #
transform $-1 1 0 0 0 1 0 0 0 1 44.596087527085174 19.7170317579771 4.1315085314575875 1 rotate no_reflect no_shear #
shell $-1 $-1 $-1 $56 $-1 $14 #
shell $-1 $-1 $-1 $57 $-1 $16 #
shell $-1 $-1 $-1 $58 $-1 $18 #
shell $-1 $-1 $-1 $59 $-1 $20 #
shell $-1 $-1 $-1 $60 $-1 $22 #
shell $-1 $-1 $-1 $61 $-1 $24 #
shell $-1 $-1 $-1 $62 $-1 $26 #
shell $-1 $-1 $-1 $63 $-1 $28 #
shell $-1 $-1 $-1 $64 $-1 $30 #
shell $-1 $-1 $-1 $65 $-1 $32 #
shell $-1 $-1 $-1 $66 $-1 $34 #
shell $-1 $-1 $-1 $67 $-1 $36 #
shell $-1 $-1 $-1 $68 $-1 $38 #
shell $-1 $-1 $-1 $69 $-1 $40 #
face $-1 $70 $71 $42 $-1 $72 forward single #
face $-1 $73 $74 $43 $-1 $75 reversed single #
face $-1 $76 $77 $44 $-1 $78 reversed single #
face $-1 $79 $80 $45 $-1 $81 forward single #
face $-1 $82 $83 $46 $-1 $84 forward single #
face $-1 $85 $86 $47 $-1 $87 reversed single #
face $-1 $88 $89 $48 $-1 $90 forward single #
face $-1 $91 $92 $49 $-1 $93 forward single #
face $-1 $94 $95 $50 $-1 $96 reversed single #
face $-1 $97 $98 $51 $-1 $99 forward single #
face $-1 $100 $101 $52 $-1 $102 forward single #
face $-1 $103 $104 $53 $-1 $105 reversed single #
face $-1 $106 $107 $54 $-1 $108 forward single #
face $-1 $109 $110 $55 $-1 $111 forward single #
face $-1 $112 $113 $42 $-1 $114 reversed single #
loop $-1 $-1 $115 $56 #
plane-surface $-1 0 0 4.1315085314575875 0 0 1 1 0 0 forward_v I I I I #
face $-1 $116 $117 $43 $-1 $118 reversed single #
loop $-1 $-1 $119 $57 #
plane-surface $-1 0 -18.101109715735312 1.1315085314575875 0 0 1 1 0 0 forward_v I I I I #
face $-1 $120 $121 $44 $-1 $122 reversed single #
loop $-1 $-1 $123 $58 #
plane-surface $-1 18.370776620297896 -4.4177811963366489 123.87326706165312 0 -1 0 -0.54463904215088732 0 -0.83867056331134215 forward_v I I I I #
face $-1 $124 $125 $45 $-1 $126 forward single #
loop $-1 $127 $128 $59 #
cone-surface $-1 41.269393304897164 -8.9952609240486243 1.5034671123671375 -0.54463904215088732 0 -0.83867056331134215 0.41933528165567108 0 -0.27231952107544366 1 I I 0 1 0.5 forward I I I I #
face $-1 $129 $130 $46 $-1 $131 forward single #
loop $-1 $132 $133 $60 #
cone-surface $-1 41.269393304897164 -6.2487730874214389 1.5034671123671375 -0.54463904215088732 0 -0.83867056331134215 0.41933528165567108 0 -0.27231952107544366 1 I I 0 1 0.5 forward I I I I #
face $-1 $134 $135 $47 $-1 $136 reversed single #
loop $-1 $-1 $137 $61 #
plane-surface $-1 18.370776620297896 7.649625280820227 123.87326706165312 0 -1 0 -0.54463904215088732 0 -0.83867056331134215 forward_v I I I I #
face $-1 $138 $139 $48 $-1 $140 forward single #
loop $-1 $141 $142 $62 #
cone-surface $-1 41.269393304897164 3.0721455531082498 1.5034671123671375 -0.54463904215088732 0 -0.83867056331134215 0.41933528165567108 0 -0.27231952107544366 1 I I 0 1 0.5 forward I I I I #
face $-1 $143 $144 $49 $-1 $145 forward single #
loop $-1 $146 $147 $63 #
cone-surface $-1 41.269393304897164 5.8186333897354352 1.5034671123671375 -0.54463904215088732 0 -0.83867056331134215 0.41933528165567108 0 -0.27231952107544366 1 I I 0 1 0.5 forward I I I I #
face $-1 $148 $149 $50 $-1 $150 reversed single #
loop $-1 $-1 $151 $64 #
plane-surface $-1 -30.206764168559708 16.512795948578717 49.070415366008234 0.54463904215088732 0 0.83867056331134215 0.83867056331134215 0 -0.54463904215088732 forward_v I I I I #
face $-1 $152 $153 $51 $-1 $154 forward single #
loop $-1 $155 $156 $65 #
cone-surface $-1 41.269393304897164 15.139552030265126 1.5034671123671375 -0.54463904215088732 0 -0.83867056331134215 0.41933528165567108 0 -0.27231952107544366 1 I I 0 1 0.5 forward I I I I #
face $-1 $157 $158 $52 $-1 $159 forward single #
loop $-1 $160 $161 $66 #
cone-surface $-1 41.269393304897164 17.886039866892308 1.5034671123671375 -0.54463904215088732 0 -0.83867056331134215 0.41933528165567108 0 -0.27231952107544366 1 I I 0 1 0.5 forward I I I I #
face $-1 $162 $163 $53 $-1 $164 reversed single #
loop $-1 $-1 $165 $67 #
plane-surface $-1 -100.72654270776469 -3.9276331433186691 70.41404124779946 0 1 0 -0.62932039886446345 0 0.77714595512881146 forward_v I I I I #
face $-1 $166 $167 $54 $-1 $168 forward single #
loop $-1 $169 $170 $68 #
cone-surface $-1 -42.20774482409584 -0.96885727779297426 1.978218295183132 0.62932039886446345 0 -0.77714595512881146 0.38857297756440573 0 0.31466019943223172 1 I I 0 1 0.5 forward I I I I #
face $-1 $171 $172 $55 $-1 $173 forward single #
loop $-1 $174 $175 $69 #
cone-surface $-1 -42.20774482409584 3.469306520495568 1.978218295183132 0.62932039886446345 0 -0.77714595512881146 0.38857297756440573 0 0.31466019943223172 1 I I 0 1 0.5 forward I I I I #
face $-1 $176 $177 $42 $-1 $178 reversed single #
loop $-1 $-1 $179 $70 #
plane-surface $-1 0 0 -4.1315085314575875 0 0 1 1 0 0 forward_v I I I I #
coedge $-1 $180 $181 $182 $183 forward $71 $-1 #
face $-1 $184 $185 $43 $-1 $186 reversed single #
loop $-1 $-1 $187 $73 #
plane-surface $-1 0 -16.485187673493524 2.6315085314575875 0 -1 0 0 0 -1 forward_v I I I I #
coedge $-1 $188 $189 $190 $191 reversed $74 $-1 #
face $-1 $192 $193 $44 $-1 $194 reversed single #
loop $-1 $-1 $195 $76 #
plane-surface $-1 -30.206764168559708 -7.6220170057350316 49.070415366008234 0.54463904215088732 0 0.83867056331134215 0.83867056331134215 0 -0.54463904215088732 forward_v I I I I #
coedge $-1 $196 $197 $198 $199 reversed $77 $-1 #
face $-1 $-1 $200 $45 $-1 $201 forward single #
loop $-1 $202 $203 $79 #
cone-surface $-1 40.608041741178141 -8.9952609240486243 0.4850750296023385 -0.54463904215088732 0 -0.83867056331134215 0.20966764082783554 0 -0.13615976053772183 1 I I -0.70710678118654746 0.70710678118654746 0.25 forward I I I I #
loop $-1 $-1 $204 $59 #
coedge $-1 $128 $128 $205 $206 reversed $80 $-1 #
face $-1 $-1 $207 $46 $-1 $208 forward single #
loop $-1 $209 $210 $82 #
cone-surface $-1 40.608041741178141 -6.2487730874214389 0.4850750296023385 -0.54463904215088732 0 -0.83867056331134215 0.20966764082783554 0 -0.13615976053772183 1 I I -0.70710678118654746 0.70710678118654746 0.25 forward I I I I #
loop $-1 $-1 $211 $60 #
coedge $-1 $133 $133 $212 $213 reversed $83 $-1 #
face $-1 $214 $215 $47 $-1 $216 reversed single #
loop $-1 $-1 $217 $85 #
plane-surface $-1 -30.206764168559708 4.4453894714218443 49.070415366008234 0.54463904215088732 0 0.83867056331134215 0.83867056331134215 0 -0.54463904215088732 forward_v I I I I #
coedge $-1 $218 $219 $220 $221 reversed $86 $-1 #
face $-1 $-1 $222 $48 $-1 $223 forward single #
loop $-1 $224 $225 $88 #
cone-surface $-1 40.608041741178141 3.0721455531082498 0.4850750296023385 -0.54463904215088732 0 -0.83867056331134215 0.20966764082783554 0 -0.13615976053772183 1 I I -0.70710678118654746 0.70710678118654746 0.25 forward I I I I #
loop $-1 $-1 $226 $62 #
coedge $-1 $142 $142 $227 $228 reversed $89 $-1 #
face $-1 $-1 $229 $49 $-1 $230 forward single #
loop $-1 $231 $232 $91 #
cone-surface $-1 40.608041741178141 5.8186333897354352 0.4850750296023385 -0.54463904215088732 0 -0.83867056331134215 0.20966764082783554 0 -0.13615976053772183 1 I I -0.70710678118654746 0.70710678118654746 0.25 forward I I I I #
loop $-1 $-1 $233 $63 #
coedge $-1 $147 $147 $234 $235 reversed $92 $-1 #
face $-1 $236 $237 $50 $-1 $238 reversed single #
loop $-1 $-1 $239 $94 #
plane-surface $-1 18.370776620297896 13.308560139180333 123.87326706165312 0 1 0 0.54463904215088732 0 0.83867056331134215 forward_v I I I I #
coedge $-1 $240 $241 $242 $243 reversed $95 $-1 #
face $-1 $-1 $244 $51 $-1 $245 forward single #
loop $-1 $246 $247 $97 #
cone-surface $-1 40.608041741178141 15.139552030265126 0.4850750296023385 -0.54463904215088732 0 -0.83867056331134215 0.20966764082783554 0 -0.13615976053772183 1 I I -0.70710678118654746 0.70710678118654746 0.25 forward I I I I #
loop $-1 $-1 $248 $65 #
coedge $-1 $156 $156 $249 $250 reversed $98 $-1 #
face $-1 $-1 $251 $52 $-1 $252 forward single #
loop $-1 $253 $254 $100 #
cone-surface $-1 40.608041741178141 17.886039866892308 0.4850750296023385 -0.54463904215088732 0 -0.83867056331134215 0.20966764082783554 0 -0.13615976053772183 1 I I -0.70710678118654746 0.70710678118654746 0.25 forward I I I I #
loop $-1 $-1 $255 $66 #
coedge $-1 $161 $161 $256 $257 reversed $101 $-1 #
face $-1 $258 $259 $53 $-1 $260 reversed single #
loop $-1 $-1 $261 $103 #
plane-surface $-1 -44.59608752708516 1.2502246213512969 1.0987031753100922 -0.62932039886446345 0 0.77714595512881146 0.77714595512881146 0 0.62932039886446345 forward_v I I I I #
coedge $-1 $262 $263 $264 $265 reversed $104 $-1 #
face $-1 $-1 $266 $54 $-1 $267 forward single #
loop $-1 $268 $269 $106 #
cone-surface $-1 -41.534673338204392 -0.96885727779297426 1.1470442482002161 0.62932039886446345 0 -0.77714595512881146 0.19428648878220287 0 0.15733009971611586 1 I I -0.70710678118654746 0.70710678118654746 0.25 forward I I I I #
loop $-1 $-1 $270 $68 #
coedge $-1 $170 $170 $271 $272 reversed $107 $-1 #
face $-1 $-1 $273 $55 $-1 $274 forward single #
loop $-1 $275 $276 $109 #
cone-surface $-1 -41.534673338204392 3.469306520495568 1.1470442482002161 0.62932039886446345 0 -0.77714595512881146 0.19428648878220287 0 0.15733009971611586 1 I I -0.70710678118654746 0.70710678118654746 0.25 forward I I I I #
loop $-1 $-1 $277 $69 #
coedge $-1 $175 $175 $278 $279 reversed $110 $-1 #
face $-1 $280 $281 $42 $-1 $282 reversed single #
loop $-1 $-1 $283 $112 #
plane-surface $-1 0 -19.7170317579771 0 0 1 0 0 0 1 forward_v I I I I #
coedge $-1 $284 $285 $286 $287 forward $113 $-1 #
coedge $-1 $288 $115 $289 $290 forward $71 $-1 #
coedge $-1 $115 $288 $291 $292 forward $71 $-1 #
coedge $-1 $293 $294 $115 $183 reversed $295 $-1 #
edge $-1 $296 -19.7170317579771 $297 19.7170317579771 $182 $298 forward 7 unknown #
face $-1 $299 $300 $43 $-1 $301 reversed single #
loop $-1 $-1 $302 $116 #
plane-surface $-1 -44.596087527085174 0 0 1 0 0 0 0 -1 forward_v I I I I #
coedge $-1 $303 $304 $305 $306 reversed $117 $-1 #
coedge $-1 $307 $119 $308 $309 reversed $74 $-1 #
coedge $-1 $119 $307 $303 $310 forward $74 $-1 #
coedge $-1 $305 $311 $119 $191 forward $312 $-1 #
edge $-1 $313 -10.666476900109444 $314 -7.4346328156258679 $190 $315 forward 7 unknown #
face $-1 $316 $317 $44 $-1 $318 reversed single #
loop $-1 $-1 $319 $120 #
plane-surface $-1 18.370776620297896 -10.826252815133415 123.87326706165312 0 1 0 0.54463904215088732 0 0.83867056331134215 forward_v I I I I #
coedge $-1 $320 $321 $322 $323 reversed $121 $-1 #
coedge $-1 $197 $123 $324 $325 reversed $77 $-1 #
coedge $-1 $123 $196 $320 $326 reversed $77 $-1 #
coedge $-1 $322 $327 $123 $199 forward $328 $-1 #
edge $-1 $329 -35.410699216936223 $330 -29.807694378922857 $198 $331 forward 7 unknown #
loop $-1 $-1 $205 $124 #
plane-surface $-1 -30.206764168559708 -7.6220170057350316 49.070415366008234 0.54463904215088732 0 0.83867056331134215 0.83867056331134215 0 -0.54463904215088732 forward_v I I I I #
loop $-1 $-1 $332 $79 #
coedge $-1 $203 $203 $204 $333 reversed $125 $-1 #
coedge $-1 $204 $204 $203 $333 forward $127 $-1 #
coedge $-1 $205 $205 $128 $206 forward $200 $-1 #
edge $-1 $334 0 $334 6.2831853071796004 $205 $335 forward 7 unknown #
loop $-1 $-1 $212 $129 #
plane-surface $-1 -30.206764168559708 -7.6220170057350316 49.070415366008234 0.54463904215088732 0 0.83867056331134215 0.83867056331134215 0 -0.54463904215088732 forward_v I I I I #
loop $-1 $-1 $336 $82 #
coedge $-1 $210 $210 $211 $337 reversed $130 $-1 #
coedge $-1 $211 $211 $210 $337 forward $132 $-1 #
coedge $-1 $212 $212 $133 $213 forward $207 $-1 #
edge $-1 $338 0 $338 6.2831853071796004 $212 $339 forward 7 unknown #
face $-1 $340 $341 $47 $-1 $342 reversed single #
loop $-1 $-1 $343 $134 #
plane-surface $-1 18.370776620297896 1.2411536620234616 123.87326706165312 0 1 0 0.54463904215088732 0 0.83867056331134215 forward_v I I I I #
coedge $-1 $344 $345 $346 $347 reversed $135 $-1 #
coedge $-1 $219 $137 $348 $349 reversed $86 $-1 #
coedge $-1 $137 $218 $344 $350 reversed $86 $-1 #
coedge $-1 $346 $351 $137 $221 forward $352 $-1 #
edge $-1 $353 -35.410699216936223 $354 -29.807694378922857 $220 $355 forward 7 unknown #
loop $-1 $-1 $227 $138 #
plane-surface $-1 -30.206764168559708 4.4453894714218443 49.070415366008234 0.54463904215088732 0 0.83867056331134215 0.83867056331134215 0 -0.54463904215088732 forward_v I I I I #
loop $-1 $-1 $356 $88 #
coedge $-1 $225 $225 $226 $357 reversed $139 $-1 #
coedge $-1 $226 $226 $225 $357 forward $141 $-1 #
coedge $-1 $227 $227 $142 $228 forward $222 $-1 #
edge $-1 $358 0 $358 6.2831853071796004 $227 $359 forward 7 unknown #
loop $-1 $-1 $234 $143 #
plane-surface $-1 -30.206764168559708 4.4453894714218443 49.070415366008234 0.54463904215088732 0 0.83867056331134215 0.83867056331134215 0 -0.54463904215088732 forward_v I I I I #
loop $-1 $-1 $360 $91 #
coedge $-1 $232 $232 $233 $361 reversed $144 $-1 #
coedge $-1 $233 $233 $232 $361 forward $146 $-1 #
coedge $-1 $234 $234 $147 $235 forward $229 $-1 #
edge $-1 $362 0 $362 6.2831853071796004 $234 $363 forward 7 unknown #
face $-1 $364 $365 $50 $-1 $366 reversed single #
loop $-1 $-1 $367 $148 #
plane-surface $-1 44.596087527085174 0 0 -1 0 0 0 0 1 forward_v I I I I #
coedge $-1 $368 $369 $370 $371 reversed $149 $-1 #
coedge $-1 $372 $151 $373 $374 reversed $95 $-1 #
coedge $-1 $151 $372 $368 $375 forward $95 $-1 #
coedge $-1 $370 $376 $151 $243 forward $377 $-1 #
edge $-1 $378 -11.460633783687742 $379 -5.0521621648909747 $242 $380 forward 7 unknown #
loop $-1 $-1 $249 $152 #
plane-surface $-1 -30.206764168559708 16.512795948578717 49.070415366008234 0.54463904215088732 0 0.83867056331134215 0.83867056331134215 0 -0.54463904215088732 forward_v I I I I #
loop $-1 $-1 $381 $97 #
coedge $-1 $247 $247 $248 $382 reversed $153 $-1 #
coedge $-1 $248 $248 $247 $382 forward $155 $-1 #
coedge $-1 $249 $249 $156 $250 forward $244 $-1 #
edge $-1 $383 0 $383 6.2831853071796004 $249 $384 forward 7 unknown #
loop $-1 $-1 $256 $157 #
plane-surface $-1 -30.206764168559708 16.512795948578717 49.070415366008234 0.54463904215088732 0 0.83867056331134215 0.83867056331134215 0 -0.54463904215088732 forward_v I I I I #
loop $-1 $-1 $385 $100 #
coedge $-1 $254 $254 $255 $386 reversed $158 $-1 #
coedge $-1 $255 $255 $254 $386 forward $160 $-1 #
coedge $-1 $256 $256 $161 $257 forward $251 $-1 #
edge $-1 $387 0 $387 6.2831853071796004 $256 $388 forward 7 unknown #
face $-1 $389 $390 $53 $-1 $391 reversed single #
loop $-1 $-1 $392 $162 #
plane-surface $-1 -100.72654270776469 6.4280823860212628 70.41404124779946 0 -1 0 0.62932039886446345 0 -0.77714595512881146 forward_v I I I I #
coedge $-1 $393 $394 $395 $396 reversed $163 $-1 #
coedge $-1 $263 $165 $397 $398 reversed $104 $-1 #
coedge $-1 $165 $262 $393 $399 reversed $104 $-1 #
coedge $-1 $395 $400 $165 $265 forward $401 $-1 #
edge $-1 $402 5.7671838267971722 $403 9.5123864604251978 $264 $404 forward 7 unknown #
loop $-1 $-1 $271 $166 #
plane-surface $-1 -44.59608752708516 1.2502246213512969 1.0987031753100922 -0.62932039886446345 0 0.77714595512881146 0.77714595512881146 0 0.62932039886446345 forward_v I I I I #
loop $-1 $-1 $405 $106 #
coedge $-1 $269 $269 $270 $406 reversed $167 $-1 #
coedge $-1 $270 $270 $269 $406 forward $169 $-1 #
coedge $-1 $271 $271 $170 $272 forward $266 $-1 #
edge $-1 $407 0 $407 6.2831853071796004 $271 $408 forward 7 unknown #
loop $-1 $-1 $278 $171 #
plane-surface $-1 -44.59608752708516 1.2502246213512969 1.0987031753100922 -0.62932039886446345 0 0.77714595512881146 0.77714595512881146 0 0.62932039886446345 forward_v I I I I #
loop $-1 $-1 $409 $109 #
coedge $-1 $276 $276 $277 $410 reversed $172 $-1 #
coedge $-1 $277 $277 $276 $410 forward $174 $-1 #
coedge $-1 $278 $278 $175 $279 forward $273 $-1 #
edge $-1 $411 0 $411 6.2831853071796004 $278 $412 forward 7 unknown #
face $-1 $413 $414 $42 $-1 $415 reversed single #
loop $-1 $-1 $416 $176 #
plane-surface $-1 -44.596087527085174 0 0 1 0 0 0 0 -1 forward_v I I I I #
coedge $-1 $417 $291 $418 $419 forward $177 $-1 #
coedge $-1 $420 $179 $417 $421 forward $113 $-1 #
coedge $-1 $179 $420 $422 $423 forward $113 $-1 #
coedge $-1 $294 $293 $179 $287 reversed $295 $-1 #
edge $-1 $424 -19.7170317579771 $425 19.7170317579771 $286 $426 forward 7 unknown #
coedge $-1 $181 $180 $427 $428 forward $71 $-1 #
coedge $-1 $429 $430 $180 $290 reversed $414 $-1 #
edge $-1 $297 -44.596087527085174 $431 44.596087527085174 $289 $432 forward 7 unknown #
coedge $-1 $283 $433 $181 $292 reversed $177 $-1 #
edge $-1 $434 -44.596087527085174 $296 44.596087527085174 $291 $435 forward 7 unknown #
coedge $-1 $286 $182 $433 $436 forward $295 $-1 #
coedge $-1 $182 $286 $429 $437 reversed $295 $-1 #
loop $-1 $-1 $293 $413 #
vertex $-1 $183 $438 #
vertex $-1 $183 $439 #
straight-curve $-1 44.596087527085174 0 4.1315085314575875 0 1 0 I I #
face $-1 $440 $441 $43 $-1 $442 forward single #
loop $-1 $-1 $308 $184 #
plane-surface $-1 0 -19.7170317579771 0 0 1 0 0 0 1 forward_v I I I I #
coedge $-1 $443 $444 $445 $446 forward $185 $-1 #
coedge $-1 $445 $187 $189 $310 reversed $117 $-1 #
coedge $-1 $187 $445 $447 $448 reversed $117 $-1 #
coedge $-1 $449 $190 $187 $306 forward $312 $-1 #
edge $-1 $314 -0.18424573427120627 $450 2.8157542657287937 $305 $451 forward 7 unknown #
coedge $-1 $189 $188 $443 $452 reversed $74 $-1 #
coedge $-1 $453 $454 $188 $309 forward $300 $-1 #
edge $-1 $455 -44.596087527085174 $313 44.596087527085174 $308 $456 forward 7 unknown #
edge $-1 $457 -44.596087527085174 $314 44.596087527085174 $303 $458 forward 7 unknown #
coedge $-1 $190 $449 $453 $459 forward $312 $-1 #
loop $-1 $-1 $305 $440 #
vertex $-1 $309 $460 #
vertex $-1 $191 $461 #
straight-curve $-1 44.596087527085174 -9.050554857867656 1.1315085314575875 0 1 0 I I #
face $-1 $-1 $328 $44 $-1 $462 forward single #
loop $-1 $-1 $463 $192 #
plane-surface $-1 44.596087527085174 0 0 -1 0 0 0 0 1 forward_v I I I I #
coedge $-1 $464 $465 $466 $467 reversed $193 $-1 #
coedge $-1 $468 $195 $197 $326 forward $121 $-1 #
coedge $-1 $195 $468 $464 $469 forward $121 $-1 #
coedge $-1 $466 $198 $195 $323 forward $328 $-1 #
edge $-1 $330 0.6067726934691331 $470 7.0152443122658994 $322 $471 forward 7 unknown #
coedge $-1 $472 $473 $196 $325 forward $317 $-1 #
edge $-1 $474 -61.443758953675925 $329 -57.805124999368971 $324 $475 forward 7 unknown #
edge $-1 $330 82.511357718826062 $474 89.192175054170335 $197 $476 forward 7 unknown #
coedge $-1 $198 $466 $472 $477 forward $328 $-1 #
loop $-1 $-1 $466 $316 #
vertex $-1 $325 $478 #
vertex $-1 $199 $479 #
straight-curve $-1 9.185388310148948 -4.4177811963366489 4.1315085314575839 -1 0 0 I I #
coedge $-1 $332 $332 $-1 $480 reversed $202 $-1 #
edge $-1 $481 0 $481 6.2831853071796004 $203 $482 forward 7 unknown #
vertex $-1 $206 $483 #
ellipse-curve $-1 41.794585108078472 -8.9952609240486243 2.3121915543041136 0.54463904215088732 0 0.83867056331134215 0.41933528165567108 0 -0.27231952107544366 1 I I #
coedge $-1 $336 $336 $-1 $484 reversed $209 $-1 #
edge $-1 $485 0 $485 6.2831853071796004 $210 $486 forward 7 unknown #
vertex $-1 $213 $487 #
ellipse-curve $-1 41.794585108078472 -6.2487730874214389 2.3121915543041136 0.54463904215088732 0 0.83867056331134215 0.41933528165567108 0 -0.27231952107544366 1 I I #
face $-1 $-1 $352 $47 $-1 $488 forward single #
loop $-1 $-1 $489 $214 #
plane-surface $-1 44.596087527085174 0 0 -1 0 0 0 0 1 forward_v I I I I #
coedge $-1 $490 $491 $492 $493 reversed $215 $-1 #
coedge $-1 $494 $217 $219 $350 forward $135 $-1 #
coedge $-1 $217 $494 $490 $495 forward $135 $-1 #
coedge $-1 $492 $220 $217 $347 forward $352 $-1 #
edge $-1 $354 -5.4269305451093048 $496 0.98154107368746057 $346 $497 forward 7 unknown #
coedge $-1 $498 $499 $218 $349 forward $341 $-1 #
edge $-1 $500 -61.443758953675925 $353 -57.805124999368971 $348 $501 forward 7 unknown #
edge $-1 $354 82.511357718826062 $500 89.192175054170335 $219 $502 forward 7 unknown #
coedge $-1 $220 $492 $498 $503 forward $352 $-1 #
loop $-1 $-1 $492 $340 #
vertex $-1 $349 $504 #
vertex $-1 $221 $505 #
straight-curve $-1 9.185388310148948 7.649625280820227 4.1315085314575839 -1 0 0 I I #
coedge $-1 $356 $356 $-1 $506 reversed $224 $-1 #
edge $-1 $507 0 $507 6.2831853071796004 $225 $508 forward 7 unknown #
vertex $-1 $228 $509 #
ellipse-curve $-1 41.794585108078472 3.0721455531082498 2.3121915543041136 0.54463904215088732 0 0.83867056331134215 0.41933528165567108 0 -0.27231952107544366 1 I I #
coedge $-1 $360 $360 $-1 $510 reversed $231 $-1 #
edge $-1 $511 0 $511 6.2831853071796004 $232 $512 forward 7 unknown #
vertex $-1 $235 $513 #
ellipse-curve $-1 41.794585108078472 5.8186333897354352 2.3121915543041136 0.54463904215088732 0 0.83867056331134215 0.41933528165567108 0 -0.27231952107544366 1 I I #
face $-1 $-1 $377 $50 $-1 $514 forward single #
loop $-1 $-1 $373 $236 #
plane-surface $-1 0 19.7170317579771 0 0 -1 0 0 0 -1 forward_v I I I I #
coedge $-1 $515 $516 $369 $517 forward $237 $-1 #
coedge $-1 $369 $239 $241 $375 reversed $149 $-1 #
coedge $-1 $239 $368 $367 $517 reversed $149 $-1 #
coedge $-1 $518 $242 $239 $371 forward $377 $-1 #
edge $-1 $379 29.807694378922857 $519 35.410699216936223 $370 $520 forward 7 unknown #
coedge $-1 $241 $240 $515 $521 reversed $95 $-1 #
coedge $-1 $522 $523 $240 $374 forward $365 $-1 #
edge $-1 $524 -63.162581082196461 $378 -56.481763746852188 $373 $525 forward 7 unknown #
edge $-1 $526 -89.192175054170335 $379 -82.511357718826062 $368 $527 forward 7 unknown #
coedge $-1 $242 $518 $522 $528 forward $377 $-1 #
loop $-1 $-1 $370 $364 #
vertex $-1 $374 $529 #
vertex $-1 $243 $530 #
straight-curve $-1 38.993082689071805 8.2563979742893583 4.1315085314575839 0 -1 0 I I #
coedge $-1 $381 $381 $-1 $531 reversed $246 $-1 #
edge $-1 $532 0 $532 6.2831853071796004 $247 $533 forward 7 unknown #
vertex $-1 $250 $534 #
ellipse-curve $-1 41.794585108078472 15.139552030265126 2.3121915543041136 0.54463904215088732 0 0.83867056331134215 0.41933528165567108 0 -0.27231952107544366 1 I I #
coedge $-1 $385 $385 $-1 $535 reversed $253 $-1 #
edge $-1 $536 0 $536 6.2831853071796004 $254 $537 forward 7 unknown #
vertex $-1 $257 $538 #
ellipse-curve $-1 41.794585108078472 17.886039866892308 2.3121915543041136 0.54463904215088732 0 0.83867056331134215 0.41933528165567108 0 -0.27231952107544366 1 I I #
face $-1 $-1 $401 $53 $-1 $539 forward single #
loop $-1 $-1 $540 $258 #
plane-surface $-1 -44.596087527085174 0 0 1 0 0 0 0 -1 forward_v I I I I #
coedge $-1 $541 $542 $543 $544 reversed $259 $-1 #
coedge $-1 $545 $261 $263 $399 forward $163 $-1 #
coedge $-1 $261 $545 $541 $546 forward $163 $-1 #
coedge $-1 $543 $264 $261 $396 forward $401 $-1 #
edge $-1 $403 -4.5527454539943175 $547 5.8029700753456144 $395 $548 forward 7 unknown #
coedge $-1 $549 $550 $262 $398 forward $390 $-1 #
edge $-1 $551 -34.108317448589652 $402 -31.075512092442143 $397 $552 forward 7 unknown #
edge $-1 $403 -4.8191753542708042 $551 1.8310242626372826e-014 $263 $553 forward 7 unknown #
coedge $-1 $264 $543 $549 $554 forward $401 $-1 #
loop $-1 $-1 $543 $389 #
vertex $-1 $398 $555 #
vertex $-1 $265 $556 #
straight-curve $-1 -50.363271353882347 -3.9276331433186691 4.1315085314575839 1 0 0 I I #
coedge $-1 $405 $405 $-1 $557 reversed $268 $-1 #
edge $-1 $558 0 $558 6.2831853071796004 $269 $559 forward 7 unknown #
vertex $-1 $272 $560 #
ellipse-curve $-1 -42.723486210271162 -0.96885727779297426 2.6151058533838318 -0.62932039886446345 0 0.77714595512881146 0.38857297756440573 0 0.31466019943223172 1 I I #
coedge $-1 $409 $409 $-1 $561 reversed $275 $-1 #
edge $-1 $562 0 $562 6.2831853071796004 $276 $563 forward 7 unknown #
vertex $-1 $279 $564 #
ellipse-curve $-1 -42.723486210271162 3.469306520495568 2.6151058533838318 -0.62932039886446345 0 0.77714595512881146 0.38857297756440573 0 0.31466019943223172 1 I I #
face $-1 $-1 $295 $42 $-1 $565 reversed single #
loop $-1 $-1 $429 $280 #
plane-surface $-1 0 19.7170317579771 0 0 -1 0 0 0 -1 forward_v I I I I #
coedge $-1 $566 $427 $430 $567 forward $281 $-1 #
coedge $-1 $433 $283 $284 $421 reversed $177 $-1 #
coedge $-1 $427 $566 $283 $419 reversed $281 $-1 #
edge $-1 $434 -4.1315085314575875 $568 4.1315085314575875 $418 $569 forward 7 unknown #
coedge $-1 $285 $284 $566 $570 forward $113 $-1 #
edge $-1 $425 -44.596087527085174 $568 44.596087527085174 $417 $571 forward 7 unknown #
coedge $-1 $430 $429 $285 $423 reversed $414 $-1 #
edge $-1 $572 -44.596087527085174 $424 44.596087527085174 $422 $573 forward 7 unknown #
vertex $-1 $287 $574 #
vertex $-1 $436 $575 #
straight-curve $-1 44.596087527085174 0 -4.1315085314575875 0 -1 0 I I #
coedge $-1 $416 $418 $288 $428 reversed $281 $-1 #
edge $-1 $431 -19.7170317579771 $434 19.7170317579771 $427 $576 forward 7 unknown #
coedge $-1 $422 $289 $294 $437 forward $414 $-1 #
coedge $-1 $289 $422 $416 $567 reversed $414 $-1 #
vertex $-1 $290 $577 #
straight-curve $-1 0 19.7170317579771 4.1315085314575875 -1 0 0 I I #
coedge $-1 $291 $417 $293 $436 reversed $177 $-1 #
vertex $-1 $428 $578 #
straight-curve $-1 0 -19.7170317579771 4.1315085314575875 1 0 0 I I #
edge $-1 $296 -4.1315085314575875 $425 4.1315085314575875 $293 $579 forward 7 unknown #
edge $-1 $297 -4.1315085314575875 $424 4.1315085314575875 $294 $580 forward 7 unknown #
point $-1 44.596087527085174 -19.7170317579771 4.1315085314575875 #
point $-1 44.596087527085174 19.7170317579771 4.1315085314575875 #
face $-1 $-1 $312 $43 $-1 $581 reversed single #
loop $-1 $-1 $447 $299 #
plane-surface $-1 0 0 4.1315085314575875 0 0 1 1 0 0 forward_v I I I I #
coedge $-1 $582 $302 $307 $452 forward $185 $-1 #
coedge $-1 $302 $582 $583 $584 reversed $185 $-1 #
coedge $-1 $304 $303 $302 $446 reversed $117 $-1 #
edge $-1 $585 -2.8157542657287937 $457 0.18424573427120627 $302 $586 forward 7 unknown #
coedge $-1 $583 $587 $304 $448 forward $441 $-1 #
edge $-1 $450 -44.596087527085174 $585 44.596087527085174 $447 $588 forward 7 unknown #
coedge $-1 $311 $305 $587 $589 reversed $312 $-1 #
vertex $-1 $306 $590 #
straight-curve $-1 44.596087527085174 -16.485187673493524 1.3157542657287937 0 0 1 I I #
edge $-1 $457 7.4346328156258679 $455 10.666476900109444 $443 $591 forward 7 unknown #
coedge $-1 $592 $308 $311 $459 reversed $300 $-1 #
coedge $-1 $308 $592 $582 $593 forward $300 $-1 #
vertex $-1 $309 $594 #
straight-curve $-1 0 -19.7170317579771 1.1315085314575875 1 0 0 I I #
vertex $-1 $452 $595 #
straight-curve $-1 0 -16.485187673493524 1.1315085314575875 1 0 0 I I #
edge $-1 $596 -4.1315085314575875 $313 -1.1315085314575875 $311 $597 forward 7 unknown #
point $-1 44.596087527085174 -19.7170317579771 1.1315085314575875 #
point $-1 44.596087527085174 -16.485187673493524 1.1315085314575875 #
plane-surface $-1 0 0 4.1315085314575875 0 0 1 1 0 0 forward_v I I I I #
coedge $-1 $473 $472 $465 $598 forward $317 $-1 #
coedge $-1 $465 $319 $321 $469 reversed $193 $-1 #
coedge $-1 $319 $464 $463 $598 reversed $193 $-1 #
coedge $-1 $327 $322 $319 $467 forward $328 $-1 #
edge $-1 $470 29.807694378922857 $599 35.410699216936223 $466 $600 forward 7 unknown #
coedge $-1 $321 $320 $473 $601 reversed $121 $-1 #
edge $-1 $602 -89.192175054170335 $470 -82.511357718826062 $464 $603 forward 7 unknown #
vertex $-1 $323 $604 #
straight-curve $-1 38.993082689071805 -3.8110085028675158 4.1315085314575839 0 -1 0 I I #
coedge $-1 $463 $324 $327 $477 reversed $317 $-1 #
coedge $-1 $324 $463 $468 $601 forward $317 $-1 #
vertex $-1 $325 $605 #
straight-curve $-1 44.596087527085174 -4.4177811963366489 61.936633530826562 0 0 1 I I #
straight-curve $-1 -30.206764168559708 -4.4177811963366489 49.070415366008234 0.83867056331134215 0 -0.54463904215088732 I I #
edge $-1 $599 -10.826252815133415 $329 -4.4177811963366489 $472 $606 forward 7 unknown #
point $-1 44.596087527085174 -4.4177811963366489 4.1315085314575875 #
point $-1 38.993082689071805 -4.4177811963366489 4.1315085314575839 #
edge $-1 $607 1 $607 0 $332 $-1 forward 7 unknown #
vertex $-1 $333 $608 #
ellipse-curve $-1 40.744201501715864 -8.9952609240486243 0.69474267043017401 0.54463904215088732 0 0.83867056331134215 0.41933528165567108 0 -0.27231952107544366 1 I I #
point $-1 42.213920389734128 -8.9952609240486243 2.0398720332286571 #
edge $-1 $609 1 $609 0 $336 $-1 forward 7 unknown #
vertex $-1 $337 $610 #
ellipse-curve $-1 40.744201501715864 -6.2487730874214389 0.69474267043017401 0.54463904215088732 0 0.83867056331134215 0.41933528165567108 0 -0.27231952107544366 1 I I #
point $-1 42.213920389734128 -6.2487730874214389 2.0398720332286571 #
plane-surface $-1 0 0 4.1315085314575875 0 0 1 1 0 0 forward_v I I I I #
coedge $-1 $499 $498 $491 $611 forward $341 $-1 #
coedge $-1 $491 $343 $345 $495 reversed $215 $-1 #
coedge $-1 $343 $490 $489 $611 reversed $215 $-1 #
coedge $-1 $351 $346 $343 $493 forward $352 $-1 #
edge $-1 $496 29.807694378922857 $612 35.410699216936223 $492 $613 forward 7 unknown #
coedge $-1 $345 $344 $499 $614 reversed $135 $-1 #
edge $-1 $615 -89.192175054170335 $496 -82.511357718826062 $490 $616 forward 7 unknown #
vertex $-1 $347 $617 #
straight-curve $-1 38.993082689071805 2.2226947357109221 4.1315085314575839 0 -1 0 I I #
coedge $-1 $489 $348 $351 $503 reversed $341 $-1 #
coedge $-1 $348 $489 $494 $614 forward $341 $-1 #
vertex $-1 $349 $618 #
straight-curve $-1 44.596087527085174 7.649625280820227 61.936633530826562 0 0 1 I I #
straight-curve $-1 -30.206764168559708 7.649625280820227 49.070415366008234 0.83867056331134215 0 -0.54463904215088732 I I #
edge $-1 $612 1.2411536620234616 $353 7.649625280820227 $498 $619 forward 7 unknown #
point $-1 44.596087527085174 7.649625280820227 4.1315085314575875 #
point $-1 38.993082689071805 7.649625280820227 4.1315085314575839 #
edge $-1 $620 1 $620 0 $356 $-1 forward 7 unknown #
vertex $-1 $357 $621 #
ellipse-curve $-1 40.744201501715864 3.0721455531082498 0.69474267043017401 0.54463904215088732 0 0.83867056331134215 0.41933528165567108 0 -0.27231952107544366 1 I I #
point $-1 42.213920389734128 3.0721455531082498 2.0398720332286571 #
edge $-1 $622 1 $622 0 $360 $-1 forward 7 unknown #
vertex $-1 $361 $623 #
ellipse-curve $-1 40.744201501715864 5.8186333897354352 0.69474267043017401 0.54463904215088732 0 0.83867056331134215 0.41933528165567108 0 -0.27231952107544366 1 I I #
point $-1 42.213920389734128 5.8186333897354352 2.0398720332286571 #
plane-surface $-1 0 0 4.1315085314575875 0 0 1 1 0 0 forward_v I I I I #
coedge $-1 $624 $367 $372 $521 forward $237 $-1 #
coedge $-1 $367 $624 $518 $625 reversed $237 $-1 #
edge $-1 $519 57.805124999368971 $526 61.443758953675925 $367 $626 forward 7 unknown #
coedge $-1 $376 $370 $516 $625 forward $377 $-1 #
vertex $-1 $625 $627 #
straight-curve $-1 9.185388310148948 13.308560139180333 4.1315085314575839 1 0 0 I I #
edge $-1 $526 5.0521621648909747 $524 11.460633783687742 $515 $628 forward 7 unknown #
coedge $-1 $523 $373 $376 $528 reversed $365 $-1 #
coedge $-1 $373 $522 $624 $629 forward $365 $-1 #
vertex $-1 $374 $630 #
straight-curve $-1 -8.3765099293188641 19.7170317579771 34.89368223753587 -0.83867056331134215 0 0.54463904215088732 I I #
vertex $-1 $521 $631 #
straight-curve $-1 -30.206764168559708 13.308560139180333 49.070415366008234 -0.83867056331134215 0 0.54463904215088732 I I #
edge $-1 $632 -44.596087527085174 $378 -38.993082689071805 $522 $633 forward 7 unknown #
point $-1 38.993082689071805 19.7170317579771 4.1315085314575839 #
point $-1 38.993082689071805 13.308560139180333 4.1315085314575839 #
edge $-1 $634 1 $634 0 $381 $-1 forward 7 unknown #
vertex $-1 $382 $635 #
ellipse-curve $-1 40.744201501715864 15.139552030265126 0.69474267043017401 0.54463904215088732 0 0.83867056331134215 0.41933528165567108 0 -0.27231952107544366 1 I I #
point $-1 42.213920389734128 15.139552030265126 2.0398720332286571 #
edge $-1 $636 1 $636 0 $385 $-1 forward 7 unknown #
vertex $-1 $386 $637 #
ellipse-curve $-1 40.744201501715864 17.886039866892308 0.69474267043017401 0.54463904215088732 0 0.83867056331134215 0.41933528165567108 0 -0.27231952107544366 1 I I #
point $-1 42.213920389734128 17.886039866892308 2.0398720332286571 #
plane-surface $-1 0 0 4.1315085314575875 0 0 1 1 0 0 forward_v I I I I #
coedge $-1 $550 $549 $542 $638 forward $390 $-1 #
coedge $-1 $542 $392 $394 $546 reversed $259 $-1 #
coedge $-1 $392 $541 $540 $638 reversed $259 $-1 #
coedge $-1 $400 $395 $392 $544 forward $401 $-1 #
edge $-1 $547 -9.5123864604251978 $639 -5.7671838267971722 $543 $640 forward 7 unknown #
coedge $-1 $394 $393 $550 $641 reversed $163 $-1 #
edge $-1 $642 -1.8310242626372826e-014 $547 4.8191753542708042 $541 $643 forward 7 unknown #
vertex $-1 $396 $644 #
straight-curve $-1 -40.850884893457149 0.62511231067564843 4.1315085314575857 0 1 0 I I #
coedge $-1 $540 $397 $400 $554 reversed $390 $-1 #
coedge $-1 $397 $540 $545 $641 forward $390 $-1 #
vertex $-1 $398 $645 #
straight-curve $-1 -44.596087527085174 -3.9276331433186691 35.20702062389973 0 0 1 I I #
straight-curve $-1 -44.59608752708516 -3.9276331433186691 1.0987031753100922 -0.77714595512881146 0 -0.62932039886446345 I I #
edge $-1 $639 -6.4280823860212628 $402 3.9276331433186691 $549 $646 forward 7 unknown #
point $-1 -44.596087527085174 -3.9276331433186691 4.1315085314575875 #
point $-1 -40.850884893457149 -3.9276331433186691 4.1315085314575875 #
edge $-1 $647 1 $647 0 $405 $-1 forward 7 unknown #
vertex $-1 $406 $648 #
ellipse-curve $-1 -41.692003437920505 -0.96885727779297426 1.341330736982419 -0.62932039886446345 0 0.77714595512881146 0.38857297756440573 0 0.31466019943223172 1 I I #
point $-1 -42.334913232706768 -0.96885727779297426 2.9297660528160767 #
edge $-1 $649 1 $649 0 $409 $-1 forward 7 unknown #
vertex $-1 $410 $650 #
ellipse-curve $-1 -41.692003437920505 3.469306520495568 1.341330736982419 -0.62932039886446345 0 0.77714595512881146 0.38857297756440573 0 0.31466019943223172 1 I I #
point $-1 -42.334913232706768 3.469306520495568 2.9297660528160767 #
plane-surface $-1 44.596087527085174 0 0 -1 0 0 0 0 1 forward_v I I I I #
coedge $-1 $418 $416 $420 $570 reversed $281 $-1 #
edge $-1 $431 -4.1315085314575875 $572 4.1315085314575875 $430 $651 forward 7 unknown #
vertex $-1 $570 $652 #
straight-curve $-1 -44.596087527085174 -19.7170317579771 0 0 0 -1 I I #
edge $-1 $568 -19.7170317579771 $572 19.7170317579771 $566 $653 forward 7 unknown #
straight-curve $-1 0 -19.7170317579771 -4.1315085314575875 -1 0 0 I I #
vertex $-1 $423 $654 #
straight-curve $-1 0 19.7170317579771 -4.1315085314575875 1 0 0 I I #
point $-1 44.596087527085174 19.7170317579771 -4.1315085314575875 #
point $-1 44.596087527085174 -19.7170317579771 -4.1315085314575875 #
straight-curve $-1 -44.596087527085174 0 4.1315085314575875 0 -1 0 I I #
point $-1 -44.596087527085174 19.7170317579771 4.1315085314575875 #
point $-1 -44.596087527085174 -19.7170317579771 4.1315085314575875 #
straight-curve $-1 44.596087527085174 -19.7170317579771 0 0 0 -1 I I #
straight-curve $-1 44.596087527085174 19.7170317579771 0 0 0 -1 I I #
plane-surface $-1 44.596087527085174 0 0 -1 0 0 0 0 1 forward_v I I I I #
coedge $-1 $444 $443 $454 $593 reversed $185 $-1 #
coedge $-1 $655 $447 $444 $584 forward $441 $-1 #
edge $-1 $585 16.485187673493524 $656 19.7170317579771 $444 $657 forward 7 unknown #
vertex $-1 $584 $658 #
straight-curve $-1 -44.596087527085174 -16.485187673493524 1.3157542657287937 0 0 -1 I I #
coedge $-1 $447 $655 $449 $589 forward $441 $-1 #
straight-curve $-1 0 -16.485187673493524 4.1315085314575875 -1 0 0 I I #
edge $-1 $596 -19.7170317579771 $450 -16.485187673493524 $449 $659 forward 7 unknown #
point $-1 44.596087527085174 -16.485187673493524 4.1315085314575875 #
straight-curve $-1 -44.596087527085174 -9.050554857867656 1.1315085314575875 0 -1 0 I I #
coedge $-1 $454 $453 $655 $660 reversed $300 $-1 #
edge $-1 $656 -4.1315085314575875 $455 -1.1315085314575875 $582 $661 forward 7 unknown #
point $-1 -44.596087527085174 -19.7170317579771 1.1315085314575875 #
point $-1 -44.596087527085174 -16.485187673493524 1.1315085314575875 #
vertex $-1 $589 $662 #
straight-curve $-1 44.596087527085174 -19.7170317579771 0 0 0 -1 I I #
edge $-1 $599 57.805124999368971 $602 61.443758953675925 $463 $663 forward 7 unknown #
vertex $-1 $477 $664 #
straight-curve $-1 9.185388310148948 -10.826252815133415 4.1315085314575839 1 0 0 I I #
edge $-1 $602 -7.0152443122658994 $474 -0.6067726934691331 $473 $665 forward 7 unknown #
vertex $-1 $601 $666 #
straight-curve $-1 -30.206764168559708 -10.826252815133415 49.070415366008234 -0.83867056331134215 0 0.54463904215088732 I I #
point $-1 38.993082689071805 -10.826252815133415 4.1315085314575839 #
point $-1 44.596087527085167 -4.4177811963366489 0.49287457715063709 #
straight-curve $-1 44.596087527085174 0 4.1315085314575875 0 1 0 I I #
vertex $-1 $480 $667 #
point $-1 41.163536783371534 -8.9952609240486243 0.42242314935473035 #
vertex $-1 $484 $668 #
point $-1 41.163536783371534 -6.2487730874214389 0.42242314935473035 #
edge $-1 $612 57.805124999368971 $615 61.443758953675925 $489 $669 forward 7 unknown #
vertex $-1 $503 $670 #
straight-curve $-1 9.185388310148948 1.2411536620234616 4.1315085314575839 1 0 0 I I #
edge $-1 $615 -0.98154107368746057 $500 5.4269305451093048 $499 $671 forward 7 unknown #
vertex $-1 $614 $672 #
straight-curve $-1 -30.206764168559708 1.2411536620234616 49.070415366008234 -0.83867056331134215 0 0.54463904215088732 I I #
point $-1 38.993082689071805 1.2411536620234616 4.1315085314575839 #
point $-1 44.596087527085167 7.649625280820227 0.49287457715063709 #
straight-curve $-1 44.596087527085174 0 4.1315085314575875 0 1 0 I I #
vertex $-1 $506 $673 #
point $-1 41.163536783371534 3.0721455531082498 0.42242314935473035 #
vertex $-1 $510 $674 #
point $-1 41.163536783371534 5.8186333897354352 0.42242314935473035 #
coedge $-1 $516 $515 $523 $629 reversed $237 $-1 #
edge $-1 $519 13.308560139180333 $632 19.7170317579771 $516 $675 forward 7 unknown #
straight-curve $-1 44.596087527085174 13.308560139180333 61.936633530826562 0 0 -1 I I #
point $-1 44.596087527085174 13.308560139180333 4.1315085314575875 #
straight-curve $-1 44.596087527085174 8.2563979742893583 0.49287457715063354 0 1 0 I I #
edge $-1 $632 -4.1315085314575875 $524 -0.49287457715063709 $624 $676 forward 7 unknown #
point $-1 44.596087527085167 19.7170317579771 0.49287457715063709 #
point $-1 44.596087527085167 13.308560139180333 0.49287457715063709 #
vertex $-1 $625 $677 #
straight-curve $-1 0 19.7170317579771 4.1315085314575875 -1 0 0 I I #
vertex $-1 $531 $678 #
point $-1 41.163536783371534 15.139552030265126 0.42242314935473035 #
vertex $-1 $535 $679 #
point $-1 41.163536783371534 17.886039866892308 0.42242314935473035 #
edge $-1 $639 31.075512092442143 $642 34.108317448589652 $540 $680 forward 7 unknown #
vertex $-1 $554 $681 #
straight-curve $-1 -50.363271353882347 6.4280823860212628 4.1315085314575839 -1 0 0 I I #
edge $-1 $642 -5.8029700753456144 $551 4.5527454539943175 $550 $682 forward 7 unknown #
vertex $-1 $641 $683 #
straight-curve $-1 -44.59608752708516 6.4280823860212628 1.0987031753100922 0.77714595512881146 0 0.62932039886446345 I I #
point $-1 -40.850884893457149 6.4280823860212628 4.1315085314575875 #
point $-1 -44.596087527085174 -3.9276331433186691 1.0987031753100807 #
straight-curve $-1 -44.596087527085174 0 4.1315085314575875 0 -1 0 I I #
vertex $-1 $557 $684 #
point $-1 -41.303430460356104 -0.96885727779297426 1.6559909364146508 #
vertex $-1 $561 $685 #
point $-1 -41.303430460356104 3.469306520495568 1.6559909364146508 #
straight-curve $-1 -44.596087527085174 19.7170317579771 0 0 0 -1 I I #
point $-1 -44.596087527085174 -19.7170317579771 -4.1315085314575875 #
straight-curve $-1 -44.596087527085174 0 -4.1315085314575875 0 1 0 I I #
point $-1 -44.596087527085174 19.7170317579771 -4.1315085314575875 #
coedge $-1 $587 $583 $592 $660 forward $441 $-1 #
vertex $-1 $584 $686 #
straight-curve $-1 -44.596087527085174 0 4.1315085314575875 0 -1 0 I I #
point $-1 -44.596087527085174 -16.485187673493524 4.1315085314575875 #
straight-curve $-1 44.596087527085174 0 4.1315085314575875 0 1 0 I I #
edge $-1 $656 -44.596087527085174 $596 44.596087527085174 $592 $687 forward 7 unknown #
straight-curve $-1 -44.596087527085174 -19.7170317579771 0 0 0 -1 I I #
point $-1 44.596087527085174 -19.7170317579771 4.1315085314575875 #
straight-curve $-1 44.596087527085174 -10.826252815133415 61.936633530826562 0 0 -1 I I #
point $-1 44.596087527085174 -10.826252815133415 4.1315085314575875 #
straight-curve $-1 44.596087527085174 -3.8110085028675158 0.49287457715063354 0 1 0 I I #
point $-1 44.596087527085167 -10.826252815133415 0.49287457715063709 #
point $-1 40.471881980640418 -8.9952609240486243 0.27540738877450299 #
point $-1 40.471881980640418 -6.2487730874214389 0.27540738877450299 #
straight-curve $-1 44.596087527085174 1.2411536620234616 61.936633530826562 0 0 -1 I I #
point $-1 44.596087527085174 1.2411536620234616 4.1315085314575875 #
straight-curve $-1 44.596087527085174 2.2226947357109221 0.49287457715063354 0 1 0 I I #
point $-1 44.596087527085167 1.2411536620234616 0.49287457715063709 #
point $-1 40.471881980640418 3.0721455531082498 0.27540738877450299 #
point $-1 40.471881980640418 5.8186333897354352 0.27540738877450299 #
straight-curve $-1 44.596087527085174 0 4.1315085314575875 0 1 0 I I #
straight-curve $-1 44.596087527085174 19.7170317579771 0 0 0 -1 I I #
point $-1 44.596087527085174 19.7170317579771 4.1315085314575875 #
point $-1 40.471881980640418 15.139552030265126 0.27540738877450299 #
point $-1 40.471881980640418 17.886039866892308 0.27540738877450299 #
straight-curve $-1 -44.596087527085174 6.4280823860212628 35.20702062389973 0 0 -1 I I #
point $-1 -44.596087527085174 6.4280823860212628 4.1315085314575875 #
straight-curve $-1 -44.596087527085174 0.62511231067564843 1.0987031753100802 0 -1 0 I I #
point $-1 -44.596087527085174 6.4280823860212628 1.0987031753100807 #
point $-1 -41.37734323848828 -0.96885727779297426 0.95275775941801322 #
point $-1 -41.37734323848828 3.469306520495568 0.95275775941801322 #
point $-1 -44.596087527085174 -19.7170317579771 4.1315085314575875 #
straight-curve $-1 0 -19.7170317579771 4.1315085314575875 1 0 0 I I #
End-of-ACIS-data 