500 0 6 0           
7 Unknown 11 ACIS 5.0 NT 24 Thu Mar 25 19:29:09 1999 
-1 9.9999999999999995e-007 1e-010 
body $-1 $6 $-1 $7 #
body $-1 $8 $-1 $9 #
body $-1 $10 $-1 $11 #
body $-1 $12 $-1 $13 #
body $-1 $14 $-1 $15 #
body $-1 $16 $-1 $17 #
lump $-1 $-1 $18 $0 #
transform $-1 1 0 0 0 1 0 0 0 1 79.606921597949153 45.174079436153029 19.351082833023309 1 rotate no_reflect no_shear #
lump $-1 $-1 $19 $1 #
transform $-1 1 0 0 0 1 0 0 0 1 79.606921597949153 45.174079436153029 19.351082833023309 1 rotate no_reflect no_shear #
lump $-1 $-1 $20 $2 #
transform $-1 1 0 0 0 1 0 0 0 1 79.606921597949153 45.174079436153029 19.351082833023309 1 rotate no_reflect no_shear #
lump $-1 $-1 $21 $3 #
transform $-1 1 0 0 0 1 0 0 0 1 79.606921597949153 45.174079436153029 19.351082833023309 1 rotate no_reflect no_shear #
lump $-1 $-1 $22 $4 #
transform $-1 1 0 0 0 1 0 0 0 1 79.606921597949153 45.174079436153029 19.351082833023309 1 rotate no_reflect no_shear #
lump $-1 $-1 $23 $5 #
transform $-1 1 0 0 0 1 0 0 0 1 79.606921597949153 45.174079436153029 19.351082833023309 1 rotate no_reflect no_shear #
shell $-1 $-1 $-1 $24 $-1 $6 #
shell $-1 $-1 $-1 $25 $-1 $8 #
shell $-1 $-1 $-1 $26 $-1 $10 #
shell $-1 $-1 $-1 $27 $-1 $12 #
shell $-1 $-1 $-1 $28 $-1 $14 #
shell $-1 $-1 $-1 $29 $-1 $16 #
face $-1 $30 $31 $18 $-1 $32 forward single #
face $-1 $33 $34 $19 $-1 $35 reversed single #
face $-1 $36 $37 $20 $-1 $38 reversed single #
face $-1 $39 $40 $21 $-1 $41 reversed single #
face $-1 $42 $43 $22 $-1 $44 forward single #
face $-1 $45 $46 $23 $-1 $47 forward single #
face $-1 $48 $49 $18 $-1 $50 reversed single #
loop $-1 $-1 $51 $24 #
plane-surface $-1 0 0 19.351082833023309 0 0 1 1 0 0 forward_v I I I I #
face $-1 $52 $53 $19 $-1 $54 reversed single #
loop $-1 $-1 $55 $25 #
plane-surface $-1 -74.186055347373753 -20.03328632367791 0 0 -1 0 0 0 -1 forward_v I I I I #
face $-1 $56 $57 $20 $-1 $58 reversed single #
loop $-1 $-1 $59 $26 #
plane-surface $-1 -74.186055347373753 20.033286323677913 0 0 1 0 0 0 1 forward_v I I I I #
face $-1 $60 $61 $21 $-1 $62 reversed single #
loop $-1 $-1 $63 $27 #
plane-surface $-1 -216.07982305200795 9.8444574132523641 93.870657171021563 0 1 0 -0.85716730853699208 0 0.51503806187062418 forward_v I I I I #
face $-1 $64 $65 $22 $-1 $66 forward single #
loop $-1 $67 $68 $28 #
cone-surface $-1 -75.932545779654632 12.755551387659665 14.753044386996505 0.85716730853699208 0 -0.51503806187062418 0.51503806187062418 0 0.85716730853699208 1 I I 0 1 1 forward I I I I #
face $-1 $69 $70 $23 $-1 $71 forward single #
loop $-1 $72 $73 $29 #
cone-surface $-1 -75.932545779654632 17.122192349270613 14.753044386996505 0.85716730853699208 0 -0.51503806187062418 0.51503806187062418 0 0.85716730853699208 1 I I 0 1 1 forward I I I I #
face $-1 $74 $75 $18 $-1 $76 reversed single #
loop $-1 $-1 $77 $30 #
plane-surface $-1 0 0 -19.351082833023309 0 0 1 1 0 0 forward_v I I I I #
coedge $-1 $78 $79 $80 $81 forward $31 $-1 #
face $-1 $82 $83 $19 $-1 $84 forward single #
loop $-1 $-1 $85 $33 #
plane-surface $-1 -68.765189096798352 -32.603682879915468 0 -1 0 0 0 0 1 forward_v I I I I #
coedge $-1 $86 $87 $88 $89 forward $34 $-1 #
face $-1 $90 $91 $20 $-1 $92 reversed single #
loop $-1 $-1 $93 $36 #
plane-surface $-1 -68.765189096798352 32.603682879915475 0 -1 0 0 0 0 1 forward_v I I I I #
coedge $-1 $94 $95 $96 $97 reversed $37 $-1 #
face $-1 $98 $99 $21 $-1 $100 forward single #
loop $-1 $-1 $101 $39 #
plane-surface $-1 -79.60692159794911 14.938871868465135 11.869467948432629 -0.85716730853699208 0 0.51503806187062418 0.51503806187062418 0 0.85716730853699208 forward_v I I I I #
coedge $-1 $102 $103 $104 $105 reversed $40 $-1 #
face $-1 $-1 $106 $22 $-1 $107 forward single #
loop $-1 $108 $109 $42 #
cone-surface $-1 -74.077290105081062 12.755551387659665 13.638294352329719 0.85716730853699208 0 -0.51503806187062418 0.25751903093531209 0 0.42858365426849604 1 I I -0.70710678118654746 0.70710678118654746 0.5 forward I I I I #
loop $-1 $-1 $110 $28 #
coedge $-1 $68 $68 $111 $112 reversed $43 $-1 #
face $-1 $-1 $113 $23 $-1 $114 forward single #
loop $-1 $115 $116 $45 #
cone-surface $-1 -74.077290105081062 17.122192349270613 13.638294352329719 0.85716730853699208 0 -0.51503806187062418 0.25751903093531209 0 0.42858365426849604 1 I I -0.70710678118654746 0.70710678118654746 0.5 forward I I I I #
loop $-1 $-1 $117 $29 #
coedge $-1 $73 $73 $118 $119 reversed $46 $-1 #
face $-1 $120 $121 $18 $-1 $122 reversed single #
loop $-1 $-1 $123 $48 #
plane-surface $-1 0 -45.174079436153029 0 0 1 0 0 0 1 forward_v I I I I #
coedge $-1 $124 $125 $126 $127 forward $49 $-1 #
coedge $-1 $128 $51 $129 $130 forward $31 $-1 #
coedge $-1 $51 $128 $131 $132 forward $31 $-1 #
coedge $-1 $133 $134 $51 $81 reversed $135 $-1 #
edge $-1 $136 -45.174079436153029 $137 45.174079436153029 $80 $138 forward 7 unknown #
face $-1 $139 $140 $19 $-1 $141 reversed single #
loop $-1 $-1 $142 $52 #
plane-surface $-1 0 0 19.351082833023309 0 0 1 1 0 0 forward_v I I I I #
coedge $-1 $143 $144 $145 $146 reversed $53 $-1 #
coedge $-1 $147 $55 $148 $149 reversed $34 $-1 #
coedge $-1 $55 $147 $150 $151 reversed $34 $-1 #
coedge $-1 $144 $143 $55 $89 reversed $53 $-1 #
edge $-1 $152 -19.351082833023309 $153 19.351082833023309 $88 $154 forward 7 unknown #
face $-1 $155 $156 $20 $-1 $157 reversed single #
loop $-1 $-1 $158 $56 #
plane-surface $-1 0 0 -19.351082833023309 0 0 1 1 0 0 forward_v I I I I #
coedge $-1 $159 $160 $161 $162 forward $57 $-1 #
coedge $-1 $161 $59 $163 $164 reversed $37 $-1 #
coedge $-1 $59 $161 $165 $166 reversed $37 $-1 #
coedge $-1 $167 $168 $59 $97 forward $156 $-1 #
edge $-1 $169 -19.351082833023309 $170 19.351082833023309 $96 $171 forward 7 unknown #
face $-1 $172 $173 $21 $-1 $174 forward single #
loop $-1 $-1 $104 $60 #
plane-surface $-1 0 0 19.351082833023309 0 0 1 1 0 0 forward_v I I I I #
coedge $-1 $175 $176 $177 $178 reversed $61 $-1 #
coedge $-1 $103 $63 $179 $180 reversed $40 $-1 #
coedge $-1 $63 $102 $175 $181 reversed $40 $-1 #
coedge $-1 $177 $182 $63 $105 forward $99 $-1 #
edge $-1 $183 28.432989928054823 $184 32.928397524033784 $104 $185 forward 7 unknown #
loop $-1 $-1 $111 $64 #
plane-surface $-1 -79.60692159794911 14.938871868465135 11.869467948432629 -0.85716730853699208 0 0.51503806187062418 0.51503806187062418 0 0.85716730853699208 forward_v I I I I #
loop $-1 $-1 $186 $42 #
coedge $-1 $109 $109 $110 $187 reversed $65 $-1 #
coedge $-1 $110 $110 $109 $187 forward $67 $-1 #
coedge $-1 $111 $111 $68 $112 forward $106 $-1 #
edge $-1 $188 0 $188 6.2831853071796004 $111 $189 forward 7 unknown #
loop $-1 $-1 $118 $69 #
plane-surface $-1 -79.60692159794911 14.938871868465135 11.869467948432629 -0.85716730853699208 0 0.51503806187062418 0.51503806187062418 0 0.85716730853699208 forward_v I I I I #
loop $-1 $-1 $190 $45 #
coedge $-1 $116 $116 $117 $191 reversed $70 $-1 #
coedge $-1 $117 $117 $116 $191 forward $72 $-1 #
coedge $-1 $118 $118 $73 $119 forward $113 $-1 #
edge $-1 $192 0 $192 6.2831853071796004 $118 $193 forward 7 unknown #
face $-1 $194 $195 $18 $-1 $196 reversed single #
loop $-1 $-1 $197 $74 #
plane-surface $-1 -79.606921597949153 0 0 1 0 0 0 0 -1 forward_v I I I I #
coedge $-1 $198 $131 $199 $200 forward $75 $-1 #
coedge $-1 $201 $77 $198 $202 forward $49 $-1 #
coedge $-1 $77 $201 $203 $204 forward $49 $-1 #
coedge $-1 $134 $133 $77 $127 reversed $135 $-1 #
edge $-1 $205 -45.174079436153029 $206 45.174079436153029 $126 $207 forward 7 unknown #
coedge $-1 $79 $78 $208 $209 forward $31 $-1 #
coedge $-1 $210 $211 $78 $130 reversed $195 $-1 #
edge $-1 $137 -79.606921597949153 $212 79.606921597949153 $129 $213 forward 7 unknown #
coedge $-1 $123 $214 $79 $132 reversed $75 $-1 #
edge $-1 $215 -79.606921597949153 $136 79.606921597949153 $131 $216 forward 7 unknown #
coedge $-1 $126 $80 $214 $217 forward $135 $-1 #
coedge $-1 $80 $126 $210 $218 reversed $135 $-1 #
loop $-1 $-1 $133 $194 #
vertex $-1 $81 $219 #
vertex $-1 $81 $220 #
straight-curve $-1 79.606921597949153 0 19.351082833023309 0 1 0 I I #
face $-1 $221 $222 $19 $-1 $223 reversed single #
loop $-1 $-1 $224 $82 #
plane-surface $-1 -79.606921597949153 0 0 1 0 0 0 0 -1 forward_v I I I I #
coedge $-1 $150 $225 $144 $226 forward $83 $-1 #
coedge $-1 $88 $85 $227 $228 reversed $53 $-1 #
coedge $-1 $85 $88 $142 $226 reversed $53 $-1 #
coedge $-1 $229 $230 $85 $146 forward $231 $-1 #
edge $-1 $232 -19.351082833023309 $233 19.351082833023309 $145 $234 forward 7 unknown #
coedge $-1 $87 $86 $224 $235 reversed $34 $-1 #
coedge $-1 $227 $236 $86 $149 forward $222 $-1 #
edge $-1 $237 -42.513893924262277 $153 -31.672161423111476 $148 $238 forward 7 unknown #
coedge $-1 $239 $142 $87 $151 forward $83 $-1 #
edge $-1 $152 31.672161423111476 $240 42.513893924262277 $150 $241 forward 7 unknown #
vertex $-1 $151 $242 #
vertex $-1 $149 $243 #
straight-curve $-1 -68.765189096798352 -20.03328632367791 0 0 0 -1 I I #
face $-1 $244 $245 $20 $-1 $246 forward single #
loop $-1 $-1 $96 $90 #
plane-surface $-1 -79.606921597949153 0 0 1 0 0 0 0 -1 forward_v I I I I #
coedge $-1 $163 $247 $159 $248 forward $91 $-1 #
coedge $-1 $249 $93 $158 $248 reversed $57 $-1 #
coedge $-1 $93 $249 $250 $251 reversed $57 $-1 #
coedge $-1 $95 $94 $93 $162 reversed $37 $-1 #
edge $-1 $252 -19.351082833023309 $253 19.351082833023309 $93 $254 forward 7 unknown #
coedge $-1 $255 $158 $94 $164 forward $91 $-1 #
edge $-1 $253 31.672161423111476 $169 42.513893924262277 $163 $256 forward 7 unknown #
coedge $-1 $250 $257 $95 $166 forward $245 $-1 #
edge $-1 $170 -42.513893924262277 $252 -31.672161423111476 $165 $258 forward 7 unknown #
coedge $-1 $259 $96 $257 $260 reversed $156 $-1 #
coedge $-1 $96 $259 $255 $261 reversed $156 $-1 #
vertex $-1 $261 $262 #
vertex $-1 $97 $263 #
straight-curve $-1 -79.606921597949153 20.033286323677913 0 0 0 1 I I #
face $-1 $-1 $264 $21 $-1 $265 reversed single #
loop $-1 $-1 $266 $98 #
plane-surface $-1 -74.186055347373753 20.033286323677913 0 0 1 0 0 0 1 forward_v I I I I #
coedge $-1 $267 $101 $103 $181 forward $61 $-1 #
coedge $-1 $101 $267 $266 $268 reversed $61 $-1 #
coedge $-1 $269 $104 $101 $178 forward $99 $-1 #
edge $-1 $184 2.3750214790197965 $270 12.563850389445346 $177 $271 forward 7 unknown #
coedge $-1 $272 $273 $102 $180 forward $264 $-1 #
edge $-1 $274 -35.065860637078224 $183 -27.584245752487472 $179 $275 forward 7 unknown #
edge $-1 $184 -8.7283017096863595 $274 8.2862793651327634e-014 $103 $276 forward 7 unknown #
coedge $-1 $104 $269 $272 $277 forward $99 $-1 #
vertex $-1 $105 $278 #
vertex $-1 $105 $279 #
straight-curve $-1 -108.03991152600398 9.8444574132523641 19.351082833023312 1 0 0 I I #
coedge $-1 $186 $186 $-1 $280 reversed $108 $-1 #
edge $-1 $281 0 $281 6.2831853071796004 $109 $282 forward 7 unknown #
vertex $-1 $112 $283 #
ellipse-curve $-1 -77.359217799959666 12.755551387659665 15.610275390727955 -0.85716730853699208 0 0.51503806187062418 0.51503806187062418 0 0.85716730853699208 1 I I #
coedge $-1 $190 $190 $-1 $284 reversed $115 $-1 #
edge $-1 $285 0 $285 6.2831853071796004 $116 $286 forward 7 unknown #
vertex $-1 $119 $287 #
ellipse-curve $-1 -77.359217799959666 17.122192349270613 15.610275390727955 -0.85716730853699208 0 0.51503806187062418 0.51503806187062418 0 0.85716730853699208 1 I I #
face $-1 $-1 $135 $18 $-1 $288 reversed single #
loop $-1 $-1 $210 $120 #
plane-surface $-1 0 45.174079436153029 0 0 -1 0 0 0 -1 forward_v I I I I #
coedge $-1 $289 $208 $211 $290 forward $121 $-1 #
coedge $-1 $214 $123 $124 $202 reversed $75 $-1 #
coedge $-1 $208 $289 $123 $200 reversed $121 $-1 #
edge $-1 $215 -19.351082833023309 $291 19.351082833023309 $199 $292 forward 7 unknown #
coedge $-1 $125 $124 $289 $293 forward $49 $-1 #
edge $-1 $206 -79.606921597949153 $291 79.606921597949153 $198 $294 forward 7 unknown #
coedge $-1 $211 $210 $125 $204 reversed $195 $-1 #
edge $-1 $295 -79.606921597949153 $205 79.606921597949153 $203 $296 forward 7 unknown #
vertex $-1 $127 $297 #
vertex $-1 $217 $298 #
straight-curve $-1 79.606921597949153 0 -19.351082833023309 0 -1 0 I I #
coedge $-1 $197 $199 $128 $209 reversed $121 $-1 #
edge $-1 $212 -45.174079436153029 $215 45.174079436153029 $208 $299 forward 7 unknown #
coedge $-1 $203 $129 $134 $218 forward $195 $-1 #
coedge $-1 $129 $203 $197 $290 reversed $195 $-1 #
vertex $-1 $130 $300 #
straight-curve $-1 0 45.174079436153029 19.351082833023309 -1 0 0 I I #
coedge $-1 $131 $198 $133 $217 reversed $75 $-1 #
vertex $-1 $209 $301 #
straight-curve $-1 0 -45.174079436153029 19.351082833023309 1 0 0 I I #
edge $-1 $136 -19.351082833023309 $206 19.351082833023309 $133 $302 forward 7 unknown #
edge $-1 $137 -19.351082833023309 $205 19.351082833023309 $134 $303 forward 7 unknown #
point $-1 79.606921597949153 -45.174079436153029 19.351082833023309 #
point $-1 79.606921597949153 45.174079436153029 19.351082833023309 #
face $-1 $-1 $231 $19 $-1 $304 reversed single #
loop $-1 $-1 $227 $139 #
plane-surface $-1 0 0 -19.351082833023309 0 0 1 1 0 0 forward_v I I I I #
coedge $-1 $305 $306 $147 $235 forward $140 $-1 #
coedge $-1 $142 $239 $229 $307 forward $83 $-1 #
edge $-1 $233 -28.872237996195288 $152 -3.7314448837201759 $142 $308 forward 7 unknown #
coedge $-1 $309 $148 $143 $228 forward $222 $-1 #
edge $-1 $153 3.7314448837201759 $232 28.872237996195288 $227 $310 forward 7 unknown #
coedge $-1 $311 $145 $225 $307 reversed $231 $-1 #
coedge $-1 $145 $311 $309 $312 reversed $231 $-1 #
loop $-1 $-1 $145 $221 #
vertex $-1 $312 $313 #
vertex $-1 $146 $314 #
straight-curve $-1 -68.765189096798352 -45.174079436153029 0 0 0 1 I I #
edge $-1 $240 -19.351082833023309 $237 19.351082833023309 $224 $315 forward 7 unknown #
coedge $-1 $148 $309 $305 $316 forward $222 $-1 #
vertex $-1 $149 $317 #
straight-curve $-1 -37.093027673686876 -20.03328632367791 -19.351082833023309 1 0 0 I I #
coedge $-1 $225 $150 $306 $318 forward $83 $-1 #
vertex $-1 $318 $319 #
straight-curve $-1 -37.093027673686876 -20.03328632367791 19.351082833023309 -1 0 0 I I #
point $-1 -68.765189096798352 -20.03328632367791 19.351082833023309 #
point $-1 -68.765189096798352 -20.03328632367791 -19.351082833023309 #
face $-1 $-1 $320 $20 $-1 $321 reversed single #
loop $-1 $-1 $250 $155 #
plane-surface $-1 0 0 19.351082833023309 0 0 1 1 0 0 forward_v I I I I #
coedge $-1 $158 $255 $322 $323 forward $91 $-1 #
edge $-1 $324 -28.872237996195299 $253 -3.7314448837201759 $158 $325 forward 7 unknown #
coedge $-1 $160 $159 $326 $327 reversed $57 $-1 #
coedge $-1 $328 $165 $160 $251 forward $245 $-1 #
edge $-1 $252 3.7314448837201759 $329 28.872237996195299 $250 $330 forward 7 unknown #
vertex $-1 $166 $331 #
vertex $-1 $164 $332 #
straight-curve $-1 -68.765189096798352 20.033286323677913 0 0 0 -1 I I #
coedge $-1 $247 $163 $168 $261 forward $91 $-1 #
straight-curve $-1 -37.093027673686876 20.033286323677913 -19.351082833023309 -1 0 0 I I #
coedge $-1 $165 $328 $167 $260 forward $245 $-1 #
straight-curve $-1 -37.093027673686876 20.033286323677913 19.351082833023309 1 0 0 I I #
coedge $-1 $168 $167 $333 $334 forward $156 $-1 #
edge $-1 $335 -45.174079436153029 $170 -20.033286323677913 $167 $336 forward 7 unknown #
edge $-1 $169 20.033286323677913 $337 45.174079436153029 $168 $338 forward 7 unknown #
point $-1 -79.606921597949153 20.033286323677913 -19.351082833023309 #
point $-1 -79.606921597949153 20.033286323677913 19.351082833023309 #
loop $-1 $-1 $179 $172 #
plane-surface $-1 -79.606921597949153 0 0 1 0 0 0 0 -1 forward_v I I I I #
coedge $-1 $339 $340 $176 $268 forward $173 $-1 #
coedge $-1 $176 $175 $273 $341 reversed $61 $-1 #
edge $-1 $270 -12.419385433570294 $342 -3.691083723883855 $266 $343 forward 7 unknown #
coedge $-1 $182 $177 $340 $344 forward $99 $-1 #
vertex $-1 $344 $345 #
straight-curve $-1 -75.111514001970178 7.4694359342325676 19.351082833023305 0 1 0 I I #
coedge $-1 $346 $179 $182 $277 reversed $264 $-1 #
coedge $-1 $179 $346 $267 $341 forward $264 $-1 #
vertex $-1 $180 $347 #
straight-curve $-1 -79.606921597949153 9.8444574132523641 46.935328585510781 0 0 1 I I #
straight-curve $-1 -79.60692159794911 9.8444574132523641 11.869467948432629 -0.51503806187062418 0 -0.85716730853699208 I I #
edge $-1 $348 -20.033286323677913 $183 -9.8444574132523641 $272 $349 forward 7 unknown #
point $-1 -79.606921597949153 9.8444574132523641 19.351082833023309 #
point $-1 -75.111514001970193 9.8444574132523641 19.351082833023309 #
edge $-1 $350 1 $350 0 $186 $-1 forward 7 unknown #
vertex $-1 $187 $351 #
ellipse-curve $-1 -74.505873759349555 12.755551387659665 13.895813383265031 -0.85716730853699208 0 0.51503806187062418 0.51503806187062418 0 0.85716730853699208 1 I I #
point $-1 -76.844179738089082 12.755551387659665 16.467442699264971 #
edge $-1 $352 1 $352 0 $190 $-1 forward 7 unknown #
vertex $-1 $191 $353 #
ellipse-curve $-1 -74.505873759349555 17.122192349270613 13.895813383265031 -0.85716730853699208 0 0.51503806187062418 0.51503806187062418 0 0.85716730853699208 1 I I #
point $-1 -76.844179738089082 17.122192349270613 16.467442699264971 #
plane-surface $-1 79.606921597949153 0 0 -1 0 0 0 0 1 forward_v I I I I #
coedge $-1 $199 $197 $201 $293 reversed $121 $-1 #
edge $-1 $212 -19.351082833023309 $295 19.351082833023309 $211 $354 forward 7 unknown #
vertex $-1 $293 $355 #
straight-curve $-1 -79.606921597949153 -45.174079436153029 0 0 0 -1 I I #
edge $-1 $291 -45.174079436153029 $295 45.174079436153029 $289 $356 forward 7 unknown #
straight-curve $-1 0 -45.174079436153029 -19.351082833023309 -1 0 0 I I #
vertex $-1 $204 $357 #
straight-curve $-1 0 45.174079436153029 -19.351082833023309 1 0 0 I I #
point $-1 79.606921597949153 45.174079436153029 -19.351082833023309 #
point $-1 79.606921597949153 -45.174079436153029 -19.351082833023309 #
straight-curve $-1 -79.606921597949153 0 19.351082833023309 0 -1 0 I I #
point $-1 -79.606921597949153 45.174079436153029 19.351082833023309 #
point $-1 -79.606921597949153 -45.174079436153029 19.351082833023309 #
straight-curve $-1 79.606921597949153 -45.174079436153029 0 0 0 -1 I I #
straight-curve $-1 79.606921597949153 45.174079436153029 0 0 0 -1 I I #
plane-surface $-1 0 -45.174079436153029 0 0 1 0 0 0 1 forward_v I I I I #
coedge $-1 $358 $224 $236 $316 reversed $140 $-1 #
coedge $-1 $224 $358 $239 $318 reversed $140 $-1 #
edge $-1 $359 -79.606921597949153 $233 -68.765189096798352 $229 $360 forward 7 unknown #
straight-curve $-1 -68.765189096798352 -16.301841439957734 19.351082833023309 0 1 0 I I #
coedge $-1 $236 $227 $230 $312 forward $222 $-1 #
straight-curve $-1 -68.765189096798352 -16.301841439957734 -19.351082833023309 0 -1 0 I I #
coedge $-1 $230 $229 $358 $361 forward $231 $-1 #
edge $-1 $232 68.765189096798352 $362 79.606921597949153 $230 $363 forward 7 unknown #
point $-1 -68.765189096798352 -45.174079436153022 -19.351082833023309 #
point $-1 -68.765189096798352 -45.174079436153022 19.351082833023309 #
straight-curve $-1 -79.606921597949153 -20.03328632367791 0 0 0 -1 I I #
edge $-1 $362 -45.174079436153029 $237 -20.03328632367791 $305 $364 forward 7 unknown #
point $-1 -79.606921597949153 -20.03328632367791 -19.351082833023309 #
edge $-1 $240 20.03328632367791 $359 45.174079436153029 $306 $365 forward 7 unknown #
point $-1 -79.606921597949153 -20.03328632367791 19.351082833023309 #
loop $-1 $-1 $326 $244 #
plane-surface $-1 0 45.174079436153029 0 0 -1 0 0 0 -1 forward_v I I I I #
coedge $-1 $333 $326 $247 $323 reversed $320 $-1 #
edge $-1 $337 -79.606921597949153 $324 -68.765189096798352 $322 $366 forward 7 unknown #
vertex $-1 $248 $367 #
straight-curve $-1 -68.765189096798352 16.301841439957737 -19.351082833023309 0 -1 0 I I #
coedge $-1 $322 $368 $249 $327 forward $320 $-1 #
edge $-1 $329 -19.351082833023309 $324 19.351082833023309 $326 $369 forward 7 unknown #
coedge $-1 $257 $250 $368 $370 forward $245 $-1 #
vertex $-1 $370 $371 #
straight-curve $-1 -68.765189096798352 16.301841439957737 19.351082833023309 0 1 0 I I #
point $-1 -68.765189096798352 20.033286323677913 19.351082833023309 #
point $-1 -68.765189096798352 20.033286323677913 -19.351082833023309 #
coedge $-1 $368 $322 $259 $334 reversed $320 $-1 #
edge $-1 $335 -19.351082833023309 $337 19.351082833023309 $333 $372 forward 7 unknown #
vertex $-1 $370 $373 #
straight-curve $-1 -79.606921597949153 0 19.351082833023309 0 -1 0 I I #
vertex $-1 $323 $374 #
straight-curve $-1 -79.606921597949153 0 -19.351082833023309 0 1 0 I I #
coedge $-1 $340 $266 $346 $375 reversed $173 $-1 #
coedge $-1 $266 $339 $269 $344 reversed $173 $-1 #
edge $-1 $342 -12.563850389445346 $274 -2.3750214790197965 $273 $376 forward 7 unknown #
vertex $-1 $268 $377 #
straight-curve $-1 -81.507970205300495 20.033286323677913 8.7055916472463331 -0.51503806187062429 0 -0.85716730853699219 I I #
edge $-1 $270 38.018486328283316 $348 42.513893924262277 $269 $378 forward 7 unknown #
point $-1 -75.111514001970193 20.033286323677913 19.351082833023309 #
coedge $-1 $273 $272 $339 $375 forward $264 $-1 #
point $-1 -79.606921597949153 9.8444574132523641 11.869467948432558 #
vertex $-1 $277 $379 #
straight-curve $-1 -79.606921597949153 0 19.351082833023309 0 -1 0 I I #
vertex $-1 $280 $380 #
point $-1 -73.990835697478929 12.755551387659665 14.752980691802023 #
vertex $-1 $284 $381 #
point $-1 -73.990835697478929 17.122192349270613 14.752980691802023 #
straight-curve $-1 -79.606921597949153 45.174079436153029 0 0 0 -1 I I #
point $-1 -79.606921597949153 -45.174079436153029 -19.351082833023309 #
straight-curve $-1 -79.606921597949153 0 -19.351082833023309 0 1 0 I I #
point $-1 -79.606921597949153 45.174079436153029 -19.351082833023309 #
coedge $-1 $306 $305 $311 $361 reversed $140 $-1 #
vertex $-1 $318 $382 #
straight-curve $-1 0 -45.174079436153029 19.351082833023309 1 0 0 I I #
edge $-1 $359 -19.351082833023309 $362 19.351082833023309 $358 $383 forward 7 unknown #
vertex $-1 $316 $384 #
straight-curve $-1 0 -45.174079436153029 -19.351082833023309 -1 0 0 I I #
straight-curve $-1 -79.606921597949153 0 -19.351082833023309 0 1 0 I I #
straight-curve $-1 -79.606921597949153 0 19.351082833023309 0 -1 0 I I #
straight-curve $-1 0 45.174079436153029 -19.351082833023309 1 0 0 I I #
point $-1 -68.765189096798352 45.174079436153036 -19.351082833023309 #
coedge $-1 $326 $333 $328 $370 reversed $320 $-1 #
straight-curve $-1 -68.765189096798352 45.174079436153029 0 0 0 -1 I I #
edge $-1 $329 68.765189096798352 $335 79.606921597949153 $368 $385 forward 7 unknown #
point $-1 -68.765189096798352 45.174079436153036 19.351082833023309 #
straight-curve $-1 -79.606921597949153 45.174079436153029 0 0 0 -1 I I #
point $-1 -79.606921597949153 45.174079436153029 19.351082833023309 #
point $-1 -79.606921597949153 45.174079436153029 -19.351082833023309 #
edge $-1 $348 -19.351082833023309 $342 -11.869467948432558 $346 $386 forward 7 unknown #
straight-curve $-1 -79.606921597949153 7.4694359342325676 11.869467948432575 0 -1 0 I I #
point $-1 -79.606921597949153 20.033286323677913 11.869467948432558 #
straight-curve $-1 -37.093027673686876 20.033286323677913 19.351082833023309 -1 0 0 I I #
point $-1 -79.606921597949153 20.033286323677913 19.351082833023309 #
point $-1 -73.648706450812568 12.755551387659665 13.380775321394408 #
point $-1 -73.648706450812568 17.122192349270613 13.380775321394408 #
point $-1 -79.606921597949153 -45.174079436153029 19.351082833023309 #
straight-curve $-1 -79.606921597949153 -45.174079436153029 0 0 0 -1 I I #
point $-1 -79.606921597949153 -45.174079436153029 -19.351082833023309 #
straight-curve $-1 0 45.174079436153029 19.351082833023309 -1 0 0 I I #
straight-curve $-1 -79.606921597949153 20.033286323677913 0 0 0 -1 I I #
End-of-ACIS-data 