500 0 6 0           
7 Unknown 11 ACIS 5.0 NT 24 Thu Mar 25 16:34:31 1999 
-1 9.9999999999999995e-007 1e-010 
body $-1 $6 $-1 $7 #
body $-1 $8 $-1 $9 #
body $-1 $10 $-1 $11 #
body $-1 $12 $-1 $13 #
body $-1 $14 $-1 $15 #
body $-1 $16 $-1 $17 #
lump $-1 $-1 $18 $0 #
transform $-1 1 0 0 0 1 0 0 0 1 40.722678304391614 21.599411973230232 8.2314675458392657 1 rotate no_reflect no_shear #
lump $-1 $-1 $19 $1 #
transform $-1 1 0 0 0 1 0 0 0 1 40.722678304391614 21.599411973230232 8.2314675458392657 1 rotate no_reflect no_shear #
lump $-1 $-1 $20 $2 #
transform $-1 1 0 0 0 1 0 0 0 1 40.722678304391614 21.599411973230232 8.2314675458392657 1 rotate no_reflect no_shear #
lump $-1 $-1 $21 $3 #
transform $-1 1 0 0 0 1 0 0 0 1 40.722678304391614 21.599411973230232 8.2314675458392657 1 rotate no_reflect no_shear #
lump $-1 $-1 $22 $4 #
transform $-1 1 0 0 0 1 0 0 0 1 40.722678304391614 21.599411973230232 8.2314675458392657 1 rotate no_reflect no_shear #
lump $-1 $-1 $23 $5 #
transform $-1 1 0 0 0 1 0 0 0 1 40.722678304391614 21.599411973230232 8.2314675458392657 1 rotate no_reflect no_shear #
shell $-1 $-1 $-1 $24 $-1 $6 #
shell $-1 $-1 $-1 $25 $-1 $8 #
shell $-1 $-1 $-1 $26 $-1 $10 #
shell $-1 $-1 $-1 $27 $-1 $12 #
shell $-1 $-1 $-1 $28 $-1 $14 #
shell $-1 $-1 $-1 $29 $-1 $16 #
face $-1 $30 $31 $18 $-1 $32 forward single #
face $-1 $33 $34 $19 $-1 $35 forward single #
face $-1 $36 $37 $20 $-1 $38 forward single #
face $-1 $39 $40 $21 $-1 $41 reversed single #
face $-1 $42 $43 $22 $-1 $44 forward single #
face $-1 $45 $46 $23 $-1 $47 forward single #
face $-1 $48 $49 $18 $-1 $50 reversed single #
loop $-1 $-1 $51 $24 #
plane-surface $-1 0 0 8.2314675458392657 0 0 1 1 0 0 forward_v I I I I #
face $-1 $52 $53 $19 $-1 $54 reversed single #
loop $-1 $-1 $55 $25 #
plane-surface $-1 -35.418819223669161 0 -3.5075241084635809 0 0 1 1 0 0 forward_v I I I I #
face $-1 $56 $57 $20 $-1 $58 reversed single #
loop $-1 $-1 $59 $26 #
plane-surface $-1 35.418819223669153 0 -3.5075241084635809 0 0 1 1 0 0 forward_v I I I I #
face $-1 $60 $61 $21 $-1 $62 reversed single #
loop $-1 $-1 $63 $27 #
plane-surface $-1 19.383053359011999 -72.854636279928144 66.08221423342458 1 0 0 0 0.62932039886446345 -0.77714595512881146 forward_v I I I I #
face $-1 $64 $65 $22 $-1 $66 forward single #
loop $-1 $67 $68 $28 #
cone-surface $-1 22.449312440136197 -17.326789866069433 4.3842375929000301 0 0.62932039886446345 -0.77714595512881146 1 0 0 1 I I 0 1 1 forward I I I I #
face $-1 $69 $70 $23 $-1 $71 forward single #
loop $-1 $72 $73 $29 #
cone-surface $-1 27.048701061822506 -17.326789866069433 4.3842375929000301 0 0.62932039886446345 -0.77714595512881146 1 0 0 1 I I 0 1 1 forward I I I I #
face $-1 $74 $75 $18 $-1 $76 reversed single #
loop $-1 $-1 $77 $30 #
plane-surface $-1 0 0 -8.2314675458392657 0 0 1 1 0 0 forward_v I I I I #
coedge $-1 $78 $79 $80 $81 forward $31 $-1 #
face $-1 $82 $83 $19 $-1 $84 reversed single #
loop $-1 $-1 $85 $33 #
plane-surface $-1 -30.114960142946707 0 -5.8694958271514235 -1 0 0 0 0 1 forward_v I I I I #
coedge $-1 $86 $87 $88 $89 forward $34 $-1 #
face $-1 $90 $91 $20 $-1 $92 reversed single #
loop $-1 $-1 $93 $36 #
plane-surface $-1 30.1149601429467 0 -5.8694958271514235 1 0 0 0 0 -1 forward_v I I I I #
coedge $-1 $94 $95 $96 $97 reversed $37 $-1 #
face $-1 $98 $99 $21 $-1 $100 reversed single #
loop $-1 $-1 $101 $39 #
plane-surface $-1 24.749006750979355 -21.599411973230218 2.7872847808850807 0 -0.62932039886446345 0.77714595512881146 1 0 0 forward_v I I I I #
coedge $-1 $102 $103 $104 $105 reversed $40 $-1 #
face $-1 $-1 $106 $22 $-1 $107 forward single #
loop $-1 $108 $109 $42 #
cone-surface $-1 22.449312440136197 -16.101010398412136 2.8705260448734755 0 0.62932039886446345 -0.77714595512881146 0.5 0 0 1 I I -0.70710678118654724 0.70710678118654791 0.5 forward I I I I #
loop $-1 $-1 $110 $28 #
coedge $-1 $68 $68 $111 $112 reversed $43 $-1 #
face $-1 $-1 $113 $23 $-1 $114 forward single #
loop $-1 $115 $116 $45 #
cone-surface $-1 27.048701061822506 -16.101010398412136 2.8705260448734755 0 0.62932039886446345 -0.77714595512881146 0.5 0 0 1 I I -0.70710678118654724 0.70710678118654791 0.5 forward I I I I #
loop $-1 $-1 $117 $29 #
coedge $-1 $73 $73 $118 $119 reversed $46 $-1 #
face $-1 $120 $121 $18 $-1 $122 reversed single #
loop $-1 $-1 $123 $48 #
plane-surface $-1 0 -21.599411973230232 0 0 1 0 0 0 1 forward_v I I I I #
coedge $-1 $124 $125 $126 $127 forward $49 $-1 #
coedge $-1 $128 $51 $129 $130 forward $31 $-1 #
coedge $-1 $51 $128 $131 $132 forward $31 $-1 #
coedge $-1 $133 $134 $51 $81 reversed $135 $-1 #
edge $-1 $136 -21.599411973230232 $137 21.599411973230232 $80 $138 forward 7 unknown #
face $-1 $139 $140 $19 $-1 $141 reversed single #
loop $-1 $-1 $142 $52 #
plane-surface $-1 0 0 -8.2314675458392657 0 0 1 1 0 0 forward_v I I I I #
coedge $-1 $143 $88 $144 $145 reversed $53 $-1 #
coedge $-1 $146 $55 $147 $148 reversed $34 $-1 #
coedge $-1 $55 $146 $149 $150 reversed $34 $-1 #
coedge $-1 $85 $151 $55 $89 reversed $53 $-1 #
edge $-1 $152 -21.599411973230232 $153 21.599411973230232 $88 $154 forward 7 unknown #
face $-1 $155 $156 $20 $-1 $157 reversed single #
loop $-1 $-1 $158 $56 #
plane-surface $-1 0 -21.599411973230232 0 0 1 0 0 0 1 forward_v I I I I #
coedge $-1 $159 $160 $161 $162 reversed $57 $-1 #
coedge $-1 $163 $59 $164 $165 reversed $37 $-1 #
coedge $-1 $59 $163 $158 $166 reversed $37 $-1 #
coedge $-1 $167 $168 $59 $97 forward $169 $-1 #
edge $-1 $170 -21.599411973230232 $171 21.599411973230232 $96 $172 forward 7 unknown #
face $-1 $173 $174 $21 $-1 $175 forward single #
loop $-1 $-1 $176 $60 #
plane-surface $-1 30.11496014294671 -72.854636279928144 66.08221423342458 -1 0 0 0 -0.62932039886446345 0.77714595512881146 forward_v I I I I #
coedge $-1 $177 $178 $179 $180 reversed $61 $-1 #
coedge $-1 $103 $63 $181 $182 reversed $40 $-1 #
coedge $-1 $63 $102 $177 $183 reversed $40 $-1 #
coedge $-1 $179 $184 $63 $105 forward $185 $-1 #
edge $-1 $186 24.809639570873024 $187 30.25382233582722 $104 $188 forward 7 unknown #
loop $-1 $-1 $111 $64 #
plane-surface $-1 24.749006750979355 -21.599411973230218 2.7872847808850807 0 -0.62932039886446345 0.77714595512881146 1 0 0 forward_v I I I I #
loop $-1 $-1 $189 $42 #
coedge $-1 $109 $109 $110 $190 reversed $65 $-1 #
coedge $-1 $110 $110 $109 $190 forward $67 $-1 #
coedge $-1 $111 $111 $68 $112 forward $106 $-1 #
edge $-1 $191 1.2191983592925315e-015 $191 6.2831853071796013 $111 $192 forward 7 unknown #
loop $-1 $-1 $118 $69 #
plane-surface $-1 24.749006750979355 -21.599411973230218 2.7872847808850807 0 -0.62932039886446345 0.77714595512881146 1 0 0 forward_v I I I I #
loop $-1 $-1 $193 $45 #
coedge $-1 $116 $116 $117 $194 reversed $70 $-1 #
coedge $-1 $117 $117 $116 $194 forward $72 $-1 #
coedge $-1 $118 $118 $73 $119 forward $113 $-1 #
edge $-1 $195 1.2191983592925315e-015 $195 6.2831853071796013 $118 $196 forward 7 unknown #
face $-1 $197 $198 $18 $-1 $199 reversed single #
loop $-1 $-1 $200 $74 #
plane-surface $-1 -40.722678304391614 0 0 1 0 0 0 0 -1 forward_v I I I I #
coedge $-1 $201 $131 $202 $203 forward $75 $-1 #
coedge $-1 $204 $77 $201 $205 forward $49 $-1 #
coedge $-1 $77 $204 $206 $207 forward $49 $-1 #
coedge $-1 $134 $133 $77 $127 reversed $135 $-1 #
edge $-1 $208 -21.599411973230232 $209 21.599411973230232 $126 $210 forward 7 unknown #
coedge $-1 $79 $78 $211 $212 forward $31 $-1 #
coedge $-1 $213 $214 $78 $130 reversed $198 $-1 #
edge $-1 $137 -40.722678304391614 $215 40.722678304391614 $129 $216 forward 7 unknown #
coedge $-1 $123 $217 $79 $132 reversed $75 $-1 #
edge $-1 $218 -40.722678304391614 $136 40.722678304391614 $131 $219 forward 7 unknown #
coedge $-1 $126 $80 $217 $220 forward $135 $-1 #
coedge $-1 $80 $126 $213 $221 reversed $135 $-1 #
loop $-1 $-1 $133 $197 #
vertex $-1 $81 $222 #
vertex $-1 $81 $223 #
straight-curve $-1 40.722678304391614 0 8.2314675458392657 0 1 0 I I #
face $-1 $224 $225 $19 $-1 $226 reversed single #
loop $-1 $-1 $144 $82 #
plane-surface $-1 0 -21.599411973230232 0 0 1 0 0 0 1 forward_v I I I I #
coedge $-1 $227 $228 $143 $229 forward $83 $-1 #
coedge $-1 $151 $85 $142 $229 reversed $53 $-1 #
coedge $-1 $149 $230 $85 $145 forward $140 $-1 #
edge $-1 $231 -5.2967196322635539 $152 -0.57277619488786913 $144 $232 forward 7 unknown #
coedge $-1 $87 $86 $233 $234 reversed $34 $-1 #
coedge $-1 $235 $236 $86 $148 forward $237 $-1 #
edge $-1 $238 -23.013268692557034 $153 -12.405550531112127 $147 $239 forward 7 unknown #
coedge $-1 $240 $144 $87 $150 forward $140 $-1 #
edge $-1 $152 12.405550531112127 $241 23.013268692557034 $149 $242 forward 7 unknown #
coedge $-1 $88 $143 $235 $243 reversed $53 $-1 #
vertex $-1 $150 $244 #
vertex $-1 $148 $245 #
straight-curve $-1 -30.114960142946707 0 -3.5075241084635809 0 1 0 I I #
face $-1 $246 $247 $20 $-1 $248 reversed single #
loop $-1 $-1 $249 $90 #
plane-surface $-1 0 0 -8.2314675458392657 0 0 1 1 0 0 forward_v I I I I #
coedge $-1 $250 $251 $95 $166 forward $91 $-1 #
coedge $-1 $252 $93 $249 $253 reversed $57 $-1 #
coedge $-1 $93 $252 $163 $254 reversed $57 $-1 #
coedge $-1 $164 $255 $93 $162 forward $247 $-1 #
edge $-1 $256 -5.2967196322635539 $257 -0.57277619488786913 $161 $258 forward 7 unknown #
coedge $-1 $95 $94 $160 $254 forward $37 $-1 #
coedge $-1 $259 $161 $94 $165 forward $247 $-1 #
edge $-1 $257 12.405550531112123 $170 23.01326869255703 $164 $260 forward 7 unknown #
edge $-1 $171 -23.01326869255703 $261 -12.405550531112123 $158 $262 forward 7 unknown #
coedge $-1 $263 $96 $251 $264 forward $169 $-1 #
coedge $-1 $96 $263 $259 $265 reversed $169 $-1 #
loop $-1 $-1 $96 $246 #
vertex $-1 $265 $266 #
vertex $-1 $264 $267 #
straight-curve $-1 40.722678304391614 0 -3.5075241084635809 0 -1 0 I I #
face $-1 $-1 $185 $21 $-1 $268 reversed single #
loop $-1 $-1 $269 $98 #
plane-surface $-1 0 0 8.2314675458392657 0 0 1 1 0 0 forward_v I I I I #
coedge $-1 $270 $271 $272 $273 reversed $99 $-1 #
coedge $-1 $274 $101 $103 $183 forward $61 $-1 #
coedge $-1 $101 $274 $270 $275 forward $61 $-1 #
coedge $-1 $272 $104 $101 $180 forward $185 $-1 #
edge $-1 $187 7.0085499835223217 $276 17.740456767457033 $179 $277 forward 7 unknown #
coedge $-1 $278 $279 $102 $182 forward $174 $-1 #
edge $-1 $280 -21.550911844605338 $186 -14.82790616673384 $181 $281 forward 7 unknown #
edge $-1 $187 -1.8310242626372826e-014 $280 8.6508919379978604 $103 $282 forward 7 unknown #
coedge $-1 $104 $272 $278 $283 reversed $185 $-1 #
loop $-1 $-1 $272 $173 #
vertex $-1 $283 $284 #
vertex $-1 $105 $285 #
straight-curve $-1 19.383053359011999 -21.599411973230232 33.04110711671229 0 0 -1 I I #
coedge $-1 $189 $189 $-1 $286 reversed $108 $-1 #
edge $-1 $287 0 $287 6.2831853071796004 $109 $288 forward 7 unknown #
vertex $-1 $112 $289 #
ellipse-curve $-1 22.449312440136197 -18.237909134294487 5.5093761633621652 0 -0.62932039886446345 0.77714595512881146 1 0 0 1 I I #
coedge $-1 $193 $193 $-1 $290 reversed $115 $-1 #
edge $-1 $291 0 $291 6.2831853071796004 $116 $292 forward 7 unknown #
vertex $-1 $119 $293 #
ellipse-curve $-1 27.048701061822506 -18.237909134294487 5.5093761633621652 0 -0.62932039886446345 0.77714595512881146 1 0 0 1 I I #
face $-1 $-1 $135 $18 $-1 $294 reversed single #
loop $-1 $-1 $213 $120 #
plane-surface $-1 0 21.599411973230232 0 0 -1 0 0 0 -1 forward_v I I I I #
coedge $-1 $295 $211 $214 $296 forward $121 $-1 #
coedge $-1 $217 $123 $124 $205 reversed $75 $-1 #
coedge $-1 $211 $295 $123 $203 reversed $121 $-1 #
edge $-1 $218 -8.2314675458392657 $297 8.2314675458392657 $202 $298 forward 7 unknown #
coedge $-1 $125 $124 $295 $299 forward $49 $-1 #
edge $-1 $209 -40.722678304391614 $297 40.722678304391614 $201 $300 forward 7 unknown #
coedge $-1 $214 $213 $125 $207 reversed $198 $-1 #
edge $-1 $301 -40.722678304391614 $208 40.722678304391614 $206 $302 forward 7 unknown #
vertex $-1 $127 $303 #
vertex $-1 $220 $304 #
straight-curve $-1 40.722678304391614 0 -8.2314675458392657 0 -1 0 I I #
coedge $-1 $200 $202 $128 $212 reversed $121 $-1 #
edge $-1 $215 -21.599411973230232 $218 21.599411973230232 $211 $305 forward 7 unknown #
coedge $-1 $206 $129 $134 $221 forward $198 $-1 #
coedge $-1 $129 $206 $200 $296 reversed $198 $-1 #
vertex $-1 $130 $306 #
straight-curve $-1 0 21.599411973230232 8.2314675458392657 -1 0 0 I I #
coedge $-1 $131 $201 $133 $220 reversed $75 $-1 #
vertex $-1 $212 $307 #
straight-curve $-1 0 -21.599411973230232 8.2314675458392657 1 0 0 I I #
edge $-1 $136 -8.2314675458392657 $209 8.2314675458392657 $133 $308 forward 7 unknown #
edge $-1 $137 -8.2314675458392657 $208 8.2314675458392657 $134 $309 forward 7 unknown #
point $-1 40.722678304391614 -21.599411973230232 8.2314675458392657 #
point $-1 40.722678304391614 21.599411973230232 8.2314675458392657 #
face $-1 $-1 $237 $19 $-1 $310 reversed single #
loop $-1 $-1 $233 $139 #
plane-surface $-1 -40.722678304391614 0 0 1 0 0 0 0 -1 forward_v I I I I #
coedge $-1 $311 $142 $230 $312 forward $83 $-1 #
coedge $-1 $142 $311 $313 $314 forward $83 $-1 #
edge $-1 $315 -21.599411973230232 $231 21.599411973230232 $142 $316 forward 7 unknown #
coedge $-1 $144 $240 $227 $312 reversed $140 $-1 #
vertex $-1 $312 $317 #
straight-curve $-1 -30.114960142946707 -21.599411973230232 -2.9347479135757117 0 0 1 I I #
coedge $-1 $318 $319 $146 $234 forward $225 $-1 #
edge $-1 $241 -21.599411973230232 $238 21.599411973230232 $233 $320 forward 7 unknown #
coedge $-1 $313 $147 $151 $243 forward $237 $-1 #
coedge $-1 $147 $313 $318 $321 reversed $237 $-1 #
loop $-1 $-1 $235 $224 #
vertex $-1 $321 $322 #
straight-curve $-1 -17.70940961183458 21.599411973230232 -3.5075241084635809 1 0 0 I I #
coedge $-1 $230 $149 $319 $323 forward $140 $-1 #
vertex $-1 $323 $324 #
straight-curve $-1 -17.70940961183458 -21.599411973230232 -3.5075241084635809 -1 0 0 I I #
edge $-1 $153 0.57277619488786913 $315 5.2967196322635539 $235 $325 forward 7 unknown #
point $-1 -30.114960142946707 -21.599411973230232 -3.5075241084635809 #
point $-1 -30.114960142946707 21.599411973230232 -3.5075241084635809 #
face $-1 $-1 $169 $20 $-1 $326 reversed single #
loop $-1 $-1 $164 $155 #
plane-surface $-1 0 21.599411973230232 0 0 -1 0 0 0 -1 forward_v I I I I #
coedge $-1 $327 $328 $159 $253 forward $156 $-1 #
coedge $-1 $329 $158 $252 $330 forward $91 $-1 #
coedge $-1 $158 $329 $167 $264 reversed $91 $-1 #
coedge $-1 $160 $159 $250 $330 reversed $57 $-1 #
edge $-1 $331 -21.599411973230232 $256 21.599411973230232 $249 $332 forward 7 unknown #
edge $-1 $257 -21.599411973230232 $261 21.599411973230232 $160 $333 forward 7 unknown #
coedge $-1 $161 $259 $327 $334 reversed $247 $-1 #
vertex $-1 $334 $335 #
vertex $-1 $165 $336 #
straight-curve $-1 30.1149601429467 21.599411973230232 -2.9347479135757117 0 0 1 I I #
coedge $-1 $255 $164 $168 $265 forward $247 $-1 #
straight-curve $-1 17.709409611834577 21.599411973230232 -3.5075241084635809 1 0 0 I I #
vertex $-1 $166 $337 #
straight-curve $-1 17.709409611834577 -21.599411973230232 -3.5075241084635809 -1 0 0 I I #
coedge $-1 $168 $167 $338 $339 reversed $169 $-1 #
edge $-1 $171 3.5075241084635809 $340 8.2314675458392657 $167 $341 forward 7 unknown #
edge $-1 $170 3.5075241084635809 $342 8.2314675458392657 $168 $343 forward 7 unknown #
point $-1 40.722678304391607 21.599411973230232 -3.5075241084635809 #
point $-1 40.722678304391607 -21.599411973230232 -3.5075241084635809 #
plane-surface $-1 0 -21.599411973230232 0 0 1 0 0 0 1 forward_v I I I I #
coedge $-1 $279 $278 $271 $344 forward $174 $-1 #
coedge $-1 $271 $176 $178 $275 reversed $99 $-1 #
coedge $-1 $176 $270 $269 $344 reversed $99 $-1 #
coedge $-1 $184 $179 $176 $273 forward $185 $-1 #
edge $-1 $276 -30.25382233582722 $345 -24.809639570873024 $272 $346 forward 7 unknown #
coedge $-1 $178 $177 $279 $347 reversed $61 $-1 #
edge $-1 $348 -8.6508919379978604 $276 1.8310242626372826e-014 $270 $349 forward 7 unknown #
vertex $-1 $180 $350 #
straight-curve $-1 12.374503375489677 -21.599411973230232 2.78728478088507 1 0 0 I I #
coedge $-1 $269 $181 $184 $283 forward $174 $-1 #
coedge $-1 $181 $269 $274 $347 forward $174 $-1 #
vertex $-1 $182 $351 #
straight-curve $-1 19.383053359011999 -36.427318139964072 8.2314675458392657 0 -1 0 I I #
straight-curve $-1 19.383053359011999 -21.599411973230218 2.7872847808850807 0 0.77714595512881146 0.62932039886446345 I I #
edge $-1 $186 19.383053359011999 $345 30.11496014294671 $184 $352 forward 7 unknown #
point $-1 19.383053359011999 -21.599411973230232 8.2314675458392657 #
point $-1 19.383053359011999 -21.599411973230232 2.7872847808850691 #
edge $-1 $353 1 $353 0 $189 $-1 forward 7 unknown #
vertex $-1 $190 $354 #
ellipse-curve $-1 22.449312440136197 -16.415670597844368 3.2590990224378817 0 -0.62932039886446345 0.77714595512881146 1 0 0 1 I I #
point $-1 23.449312440136197 -18.237909134294497 5.5093761633621803 #
edge $-1 $355 1 $355 0 $193 $-1 forward 7 unknown #
vertex $-1 $194 $356 #
ellipse-curve $-1 27.048701061822506 -16.415670597844368 3.2590990224378817 0 -0.62932039886446345 0.77714595512881146 1 0 0 1 I I #
point $-1 28.048701061822506 -18.237909134294497 5.5093761633621803 #
plane-surface $-1 40.722678304391614 0 0 -1 0 0 0 0 1 forward_v I I I I #
coedge $-1 $202 $200 $204 $299 reversed $121 $-1 #
edge $-1 $215 -8.2314675458392657 $301 8.2314675458392657 $214 $357 forward 7 unknown #
vertex $-1 $299 $358 #
straight-curve $-1 -40.722678304391614 -21.599411973230232 0 0 0 -1 I I #
edge $-1 $297 -21.599411973230232 $301 21.599411973230232 $295 $359 forward 7 unknown #
straight-curve $-1 0 -21.599411973230232 -8.2314675458392657 -1 0 0 I I #
vertex $-1 $207 $360 #
straight-curve $-1 0 21.599411973230232 -8.2314675458392657 1 0 0 I I #
point $-1 40.722678304391614 21.599411973230232 -8.2314675458392657 #
point $-1 40.722678304391614 -21.599411973230232 -8.2314675458392657 #
straight-curve $-1 -40.722678304391614 0 8.2314675458392657 0 -1 0 I I #
point $-1 -40.722678304391614 21.599411973230232 8.2314675458392657 #
point $-1 -40.722678304391614 -21.599411973230232 8.2314675458392657 #
straight-curve $-1 40.722678304391614 -21.599411973230232 0 0 0 -1 I I #
straight-curve $-1 40.722678304391614 21.599411973230232 0 0 0 -1 I I #
plane-surface $-1 0 21.599411973230232 0 0 -1 0 0 0 -1 forward_v I I I I #
coedge $-1 $228 $227 $361 $362 forward $83 $-1 #
edge $-1 $231 30.114960142946707 $363 40.722678304391614 $230 $364 forward 7 unknown #
coedge $-1 $236 $235 $228 $314 reversed $237 $-1 #
edge $-1 $365 -40.722678304391614 $315 -30.114960142946707 $313 $366 forward 7 unknown #
vertex $-1 $243 $367 #
straight-curve $-1 -30.114960142946707 0 -8.2314675458392657 0 -1 0 I I #
point $-1 -30.114960142946707 -21.599411973230232 -8.2314675458392657 #
coedge $-1 $361 $233 $236 $321 forward $225 $-1 #
coedge $-1 $233 $361 $240 $323 reversed $225 $-1 #
straight-curve $-1 -40.722678304391614 0 -3.5075241084635809 0 1 0 I I #
edge $-1 $238 3.5075241084635809 $365 8.2314675458392657 $236 $368 forward 7 unknown #
point $-1 -40.722678304391614 21.599411973230232 -3.5075241084635809 #
edge $-1 $241 3.5075241084635809 $363 8.2314675458392657 $319 $369 forward 7 unknown #
point $-1 -40.722678304391614 -21.599411973230232 -3.5075241084635809 #
straight-curve $-1 -30.114960142946707 21.599411973230232 -2.9347479135757117 0 0 -1 I I #
plane-surface $-1 40.722678304391614 0 0 -1 0 0 0 0 1 forward_v I I I I #
coedge $-1 $338 $249 $255 $334 forward $156 $-1 #
coedge $-1 $249 $338 $329 $370 forward $156 $-1 #
coedge $-1 $251 $250 $328 $370 reversed $91 $-1 #
edge $-1 $261 0.57277619488786913 $331 5.2967196322635539 $250 $371 forward 7 unknown #
vertex $-1 $253 $372 #
straight-curve $-1 30.1149601429467 0 -8.2314675458392657 0 1 0 I I #
straight-curve $-1 30.1149601429467 0 -3.5075241084635809 0 -1 0 I I #
edge $-1 $256 30.1149601429467 $342 40.722678304391614 $255 $373 forward 7 unknown #
point $-1 30.1149601429467 21.599411973230232 -8.2314675458392657 #
point $-1 30.1149601429467 21.599411973230232 -3.5075241084635809 #
point $-1 30.1149601429467 -21.599411973230232 -3.5075241084635809 #
coedge $-1 $328 $327 $263 $339 forward $156 $-1 #
edge $-1 $342 -21.599411973230232 $340 21.599411973230232 $263 $374 forward 7 unknown #
vertex $-1 $264 $375 #
straight-curve $-1 40.722678304391614 -21.599411973230232 0 0 0 -1 I I #
vertex $-1 $339 $376 #
straight-curve $-1 40.722678304391614 21.599411973230232 0 0 0 -1 I I #
edge $-1 $345 14.82790616673384 $348 21.550911844605338 $269 $377 forward 7 unknown #
vertex $-1 $344 $378 #
straight-curve $-1 30.11496014294671 -21.599411973230232 33.04110711671229 0 0 1 I I #
edge $-1 $348 -17.740456767457033 $280 -7.0085499835223217 $279 $379 forward 7 unknown #
vertex $-1 $347 $380 #
straight-curve $-1 30.11496014294671 -21.599411973230218 2.7872847808850807 0 -0.77714595512881146 -0.62932039886446345 I I #
point $-1 30.11496014294671 -21.599411973230232 2.7872847808850691 #
point $-1 19.383053359011999 -14.876406295358736 8.2314675458392657 #
straight-curve $-1 0 -21.599411973230232 8.2314675458392657 1 0 0 I I #
vertex $-1 $286 $381 #
point $-1 23.449312440136197 -16.415670597844368 3.2590990224378817 #
vertex $-1 $290 $382 #
point $-1 28.048701061822506 -16.415670597844368 3.2590990224378817 #
straight-curve $-1 -40.722678304391614 21.599411973230232 0 0 0 -1 I I #
point $-1 -40.722678304391614 -21.599411973230232 -8.2314675458392657 #
straight-curve $-1 -40.722678304391614 0 -8.2314675458392657 0 1 0 I I #
point $-1 -40.722678304391614 21.599411973230232 -8.2314675458392657 #
coedge $-1 $319 $318 $311 $362 reversed $225 $-1 #
edge $-1 $363 -21.599411973230232 $365 21.599411973230232 $361 $383 forward 7 unknown #
vertex $-1 $362 $384 #
straight-curve $-1 0 -21.599411973230232 -8.2314675458392657 -1 0 0 I I #
vertex $-1 $314 $385 #
straight-curve $-1 0 21.599411973230232 -8.2314675458392657 1 0 0 I I #
point $-1 -30.114960142946707 21.599411973230232 -8.2314675458392657 #
straight-curve $-1 -40.722678304391614 21.599411973230232 0 0 0 -1 I I #
straight-curve $-1 -40.722678304391614 -21.599411973230232 0 0 0 -1 I I #
edge $-1 $340 -40.722678304391614 $331 -30.1149601429467 $329 $386 forward 7 unknown #
straight-curve $-1 30.1149601429467 -21.599411973230232 -2.9347479135757117 0 0 -1 I I #
point $-1 30.1149601429467 -21.599411973230232 -8.2314675458392657 #
straight-curve $-1 0 21.599411973230232 -8.2314675458392657 1 0 0 I I #
straight-curve $-1 40.722678304391614 0 -8.2314675458392657 0 -1 0 I I #
point $-1 40.722678304391614 -21.599411973230232 -8.2314675458392657 #
point $-1 40.722678304391614 21.599411973230232 -8.2314675458392657 #
straight-curve $-1 30.11496014294671 -36.427318139964072 8.2314675458392657 0 1 0 I I #
point $-1 30.11496014294671 -21.599411973230232 8.2314675458392657 #
straight-curve $-1 12.374503375489677 -14.876406295358738 8.2314675458392657 -1 0 0 I I #
point $-1 30.11496014294671 -14.876406295358736 8.2314675458392657 #
point $-1 22.449312440136197 -15.786350198979903 2.4819530673090693 #
point $-1 27.048701061822506 -15.786350198979903 2.4819530673090693 #
straight-curve $-1 -40.722678304391614 0 -8.2314675458392657 0 1 0 I I #
point $-1 -40.722678304391614 -21.599411973230232 -8.2314675458392657 #
point $-1 -40.722678304391614 21.599411973230232 -8.2314675458392657 #
straight-curve $-1 0 -21.599411973230232 -8.2314675458392657 -1 0 0 I I #
End-of-ACIS-data 