500 0 8 0           
7 Unknown 11 ACIS 5.0 NT 24 Thu Mar 25 20:04:06 1999 
-1 9.9999999999999995e-007 1e-010 
body $-1 $8 $-1 $9 #
body $-1 $10 $-1 $11 #
body $-1 $12 $-1 $13 #
body $-1 $14 $-1 $15 #
body $-1 $16 $-1 $17 #
body $-1 $18 $-1 $19 #
body $-1 $20 $-1 $21 #
body $-1 $22 $-1 $23 #
lump $-1 $-1 $24 $0 #
transform $-1 1 0 0 0 1 0 0 0 1 79.572740867336037 47.435718145024623 19.599824347473795 1 rotate no_reflect no_shear #
lump $-1 $-1 $25 $1 #
transform $-1 1 0 0 0 1 0 0 0 1 79.572740867336037 47.435718145024623 19.599824347473795 1 rotate no_reflect no_shear #
lump $-1 $-1 $26 $2 #
transform $-1 1 0 0 0 1 0 0 0 1 79.572740867336037 47.435718145024623 19.599824347473795 1 rotate no_reflect no_shear #
lump $-1 $-1 $27 $3 #
transform $-1 1 0 0 0 1 0 0 0 1 79.572740867336037 47.435718145024623 19.599824347473795 1 rotate no_reflect no_shear #
lump $-1 $-1 $28 $4 #
transform $-1 1 0 0 0 1 0 0 0 1 79.572740867336037 47.435718145024623 19.599824347473795 1 rotate no_reflect no_shear #
lump $-1 $-1 $29 $5 #
transform $-1 1 0 0 0 1 0 0 0 1 79.572740867336037 47.435718145024623 19.599824347473795 1 rotate no_reflect no_shear #
lump $-1 $-1 $30 $6 #
transform $-1 1 0 0 0 1 0 0 0 1 79.572740867336037 47.435718145024623 19.599824347473795 1 rotate no_reflect no_shear #
lump $-1 $-1 $31 $7 #
transform $-1 1 0 0 0 1 0 0 0 1 79.572740867336037 47.435718145024623 19.599824347473795 1 rotate no_reflect no_shear #
shell $-1 $-1 $-1 $32 $-1 $8 #
shell $-1 $-1 $-1 $33 $-1 $10 #
shell $-1 $-1 $-1 $34 $-1 $12 #
shell $-1 $-1 $-1 $35 $-1 $14 #
shell $-1 $-1 $-1 $36 $-1 $16 #
shell $-1 $-1 $-1 $37 $-1 $18 #
shell $-1 $-1 $-1 $38 $-1 $20 #
shell $-1 $-1 $-1 $39 $-1 $22 #
face $-1 $40 $41 $24 $-1 $42 forward single #
face $-1 $43 $44 $25 $-1 $45 forward single #
face $-1 $46 $47 $26 $-1 $48 forward single #
face $-1 $49 $50 $27 $-1 $51 reversed single #
face $-1 $52 $53 $28 $-1 $54 forward single #
face $-1 $55 $56 $29 $-1 $57 forward single #
face $-1 $58 $59 $30 $-1 $60 reversed single #
face $-1 $61 $62 $31 $-1 $63 forward single #
face $-1 $64 $65 $24 $-1 $66 reversed single #
loop $-1 $-1 $67 $32 #
plane-surface $-1 0 0 19.599824347473795 0 0 1 1 0 0 forward_v I I I I #
face $-1 $68 $69 $25 $-1 $70 reversed single #
loop $-1 $-1 $71 $33 #
plane-surface $-1 0 -39.53036792845451 -8.0722540828891418 0 0 1 1 0 0 forward_v I I I I #
face $-1 $72 $73 $26 $-1 $74 reversed single #
loop $-1 $-1 $75 $34 #
plane-surface $-1 0 37.174100218019859 -9.5611875453889645 0 0 1 1 0 0 forward_v I I I I #
face $-1 $76 $77 $27 $-1 $78 reversed single #
loop $-1 $-1 $79 $35 #
plane-surface $-1 44.364710761969178 18.661203670258967 225.6960918948578 0 -1 0 -0.5877852598018023 0 -0.80901698891910034 forward_v I I I I #
face $-1 $80 $81 $28 $-1 $82 forward single #
loop $-1 $83 $84 $36 #
cone-surface $-1 67.576108527410796 8.5015906935647934 10.332065286492055 -0.5877852598018023 0 -0.80901698891910034 1.2135254833786506 0 -0.88167788970270344 1 I I 0 1 1.5 forward I I I I #
face $-1 $85 $86 $29 $-1 $87 forward single #
loop $-1 $88 $89 $37 #
cone-surface $-1 67.576108527410796 14.597358479581303 10.332065286492055 -0.5877852598018023 0 -0.80901698891910034 1.2135254833786506 0 -0.88167788970270344 1 I I 0 1 1.5 forward I I I I #
face $-1 $90 $91 $30 $-1 $92 reversed single #
loop $-1 $-1 $93 $38 #
plane-surface $-1 -204.98109317583271 7.7150353152142408 98.100818248080685 0 1 0 -0.78801076186113728 0 0.61566146476048833 forward_v I I I I #
face $-1 $94 $95 $31 $-1 $96 forward single #
loop $-1 $97 $98 $39 #
cone-surface $-1 -70.56739714967533 13.678472271826259 8.7696892053779525 0.78801076186113728 0 -0.61566146476048833 0.9234921971407325 0 1.182016142791706 1 I I 0 1 1.5 forward I I I I #
face $-1 $99 $100 $24 $-1 $101 reversed single #
loop $-1 $-1 $102 $40 #
plane-surface $-1 0 0 -19.599824347473795 0 0 1 1 0 0 forward_v I I I I #
coedge $-1 $103 $104 $105 $106 forward $41 $-1 #
face $-1 $107 $108 $25 $-1 $109 reversed single #
loop $-1 $-1 $110 $43 #
plane-surface $-1 0 -31.6250177118844 -13.836039215181469 0 -1 0 0 0 -1 forward_v I I I I #
coedge $-1 $111 $112 $113 $114 reversed $44 $-1 #
face $-1 $115 $116 $26 $-1 $117 reversed single #
loop $-1 $-1 $118 $46 #
plane-surface $-1 0 26.912482291015095 -14.58050594643138 0 1 0 0 0 1 forward_v I I I I #
coedge $-1 $119 $120 $121 $122 reversed $47 $-1 #
face $-1 $123 $124 $27 $-1 $125 reversed single #
loop $-1 $-1 $126 $49 #
plane-surface $-1 -49.178657565728031 11.549474586573041 96.944693461793719 0.5877852598018023 0 0.80901698891910034 0.80901698891910034 0 -0.5877852598018023 forward_v I I I I #
coedge $-1 $127 $128 $129 $130 reversed $50 $-1 #
face $-1 $-1 $131 $28 $-1 $132 forward single #
loop $-1 $133 $134 $52 #
cone-surface $-1 66.286297753067728 8.5015906935647934 8.5567930905096468 -0.5877852598018023 0 -0.80901698891910034 0.60676274168932531 0 -0.44083894485135172 1 I I -0.70710678118654757 0.70710678118654757 0.75 forward I I I I #
loop $-1 $-1 $135 $36 #
coedge $-1 $84 $84 $136 $137 reversed $53 $-1 #
face $-1 $-1 $138 $29 $-1 $139 forward single #
loop $-1 $140 $141 $55 #
cone-surface $-1 66.286297753067728 14.597358479581303 8.5567930905096468 -0.5877852598018023 0 -0.80901698891910034 0.60676274168932531 0 -0.44083894485135172 1 I I -0.70710678118654757 0.70710678118654757 0.75 forward I I I I #
loop $-1 $-1 $142 $37 #
coedge $-1 $89 $89 $143 $144 reversed $56 $-1 #
face $-1 $145 $146 $30 $-1 $147 reversed single #
loop $-1 $-1 $148 $58 #
plane-surface $-1 -79.572740867336066 13.678472271826251 0.12107785329892806 -0.78801076186113728 0 0.61566146476048833 0.61566146476048833 0 0.78801076186113728 forward_v I I I I #
coedge $-1 $149 $150 $151 $152 reversed $59 $-1 #
face $-1 $-1 $153 $31 $-1 $154 forward single #
loop $-1 $155 $156 $61 #
cone-surface $-1 -68.580277479465892 13.678472271826259 7.2171812117991756 0.78801076186113728 0 -0.61566146476048833 0.46174609857036625 0 0.59100807139585299 1 I I -0.70710678118654757 0.70710678118654757 0.75 forward I I I I #
loop $-1 $-1 $157 $39 #
coedge $-1 $98 $98 $158 $159 reversed $62 $-1 #
face $-1 $160 $161 $24 $-1 $162 reversed single #
loop $-1 $-1 $163 $64 #
plane-surface $-1 0 -47.435718145024623 0 0 1 0 0 0 1 forward_v I I I I #
coedge $-1 $164 $165 $166 $167 forward $65 $-1 #
coedge $-1 $168 $67 $169 $170 forward $41 $-1 #
coedge $-1 $67 $168 $171 $172 forward $41 $-1 #
coedge $-1 $173 $174 $67 $106 reversed $175 $-1 #
edge $-1 $176 -47.435718145024623 $177 47.435718145024623 $105 $178 forward 7 unknown #
face $-1 $179 $180 $25 $-1 $181 reversed single #
loop $-1 $-1 $182 $68 #
plane-surface $-1 0 0 -19.599824347473795 0 0 1 1 0 0 forward_v I I I I #
coedge $-1 $183 $184 $185 $186 reversed $69 $-1 #
coedge $-1 $187 $71 $184 $188 forward $44 $-1 #
coedge $-1 $71 $187 $189 $190 reversed $44 $-1 #
coedge $-1 $191 $185 $71 $114 forward $180 $-1 #
edge $-1 $192 11.859833747657145 $193 27.670534180797368 $113 $194 forward 7 unknown #
face $-1 $195 $196 $26 $-1 $197 reversed single #
loop $-1 $-1 $121 $72 #
plane-surface $-1 79.572740867336037 0 0 -1 0 0 0 0 1 forward_v I I I I #
coedge $-1 $198 $199 $200 $201 reversed $73 $-1 #
coedge $-1 $202 $75 $203 $204 reversed $47 $-1 #
coedge $-1 $75 $202 $199 $205 forward $47 $-1 #
coedge $-1 $206 $207 $75 $122 forward $116 $-1 #
edge $-1 $208 -28.848668036014693 $209 -8.3254321820051658 $121 $210 forward 7 unknown #
face $-1 $211 $212 $27 $-1 $213 forward single #
loop $-1 $-1 $214 $76 #
plane-surface $-1 44.364710761969178 4.4377455028871147 225.6960918948578 0 1 0 0.5877852598018023 0 0.80901698891910034 forward_v I I I I #
coedge $-1 $215 $216 $217 $218 reversed $77 $-1 #
coedge $-1 $128 $79 $219 $220 reversed $50 $-1 #
coedge $-1 $79 $127 $215 $221 reversed $50 $-1 #
coedge $-1 $217 $222 $79 $130 forward $212 $-1 #
edge $-1 $223 -57.390385486351448 $224 -35.095064465484441 $129 $225 forward 7 unknown #
loop $-1 $-1 $136 $80 #
plane-surface $-1 -49.178657565728031 11.549474586573041 96.944693461793719 0.5877852598018023 0 0.80901698891910034 0.80901698891910034 0 -0.5877852598018023 forward_v I I I I #
loop $-1 $-1 $226 $52 #
coedge $-1 $134 $134 $135 $227 reversed $81 $-1 #
coedge $-1 $135 $135 $134 $227 forward $83 $-1 #
coedge $-1 $136 $136 $84 $137 forward $131 $-1 #
edge $-1 $228 0 $228 6.2831853071796004 $136 $229 forward 7 unknown #
loop $-1 $-1 $143 $85 #
plane-surface $-1 -49.178657565728031 11.549474586573041 96.944693461793719 0.5877852598018023 0 0.80901698891910034 0.80901698891910034 0 -0.5877852598018023 forward_v I I I I #
loop $-1 $-1 $230 $55 #
coedge $-1 $141 $141 $142 $231 reversed $86 $-1 #
coedge $-1 $142 $142 $141 $231 forward $88 $-1 #
coedge $-1 $143 $143 $89 $144 forward $138 $-1 #
edge $-1 $232 0 $232 6.2831853071796004 $143 $233 forward 7 unknown #
face $-1 $234 $235 $30 $-1 $236 reversed single #
loop $-1 $-1 $237 $90 #
plane-surface $-1 -204.98109317583271 19.641909228438262 98.100818248080685 0 -1 0 0.78801076186113728 0 -0.61566146476048833 forward_v I I I I #
coedge $-1 $238 $239 $240 $241 reversed $91 $-1 #
coedge $-1 $150 $93 $242 $243 reversed $59 $-1 #
coedge $-1 $93 $149 $238 $244 reversed $59 $-1 #
coedge $-1 $240 $245 $93 $152 forward $246 $-1 #
edge $-1 $247 22.917805720580319 $248 38.136269958274553 $151 $249 forward 7 unknown #
loop $-1 $-1 $158 $94 #
plane-surface $-1 -79.572740867336066 13.678472271826251 0.12107785329892806 -0.78801076186113728 0 0.61566146476048833 0.61566146476048833 0 0.78801076186113728 forward_v I I I I #
loop $-1 $-1 $250 $61 #
coedge $-1 $156 $156 $157 $251 reversed $95 $-1 #
coedge $-1 $157 $157 $156 $251 forward $97 $-1 #
coedge $-1 $158 $158 $98 $159 forward $153 $-1 #
edge $-1 $252 0 $252 6.2831853071796004 $158 $253 forward 7 unknown #
face $-1 $254 $255 $24 $-1 $256 reversed single #
loop $-1 $-1 $257 $99 #
plane-surface $-1 -79.572740867336037 0 0 1 0 0 0 0 -1 forward_v I I I I #
coedge $-1 $258 $171 $259 $260 forward $100 $-1 #
coedge $-1 $261 $102 $258 $262 forward $65 $-1 #
coedge $-1 $102 $261 $263 $264 forward $65 $-1 #
coedge $-1 $174 $173 $102 $167 reversed $175 $-1 #
edge $-1 $265 -47.435718145024623 $266 47.435718145024623 $166 $267 forward 7 unknown #
coedge $-1 $104 $103 $268 $269 forward $41 $-1 #
coedge $-1 $270 $271 $103 $170 reversed $255 $-1 #
edge $-1 $177 -79.572740867336037 $272 79.572740867336037 $169 $273 forward 7 unknown #
coedge $-1 $163 $274 $104 $172 reversed $100 $-1 #
edge $-1 $275 -79.572740867336037 $176 79.572740867336037 $171 $276 forward 7 unknown #
coedge $-1 $166 $105 $274 $277 forward $175 $-1 #
coedge $-1 $105 $166 $270 $278 reversed $175 $-1 #
loop $-1 $-1 $173 $254 #
vertex $-1 $106 $279 #
vertex $-1 $106 $280 #
straight-curve $-1 79.572740867336037 0 19.599824347473795 0 1 0 I I #
face $-1 $281 $282 $25 $-1 $283 reversed single #
loop $-1 $-1 $185 $107 #
plane-surface $-1 79.572740867336037 0 0 -1 0 0 0 0 1 forward_v I I I I #
coedge $-1 $284 $285 $183 $286 forward $108 $-1 #
coedge $-1 $287 $110 $182 $286 reversed $69 $-1 #
coedge $-1 $110 $287 $111 $188 reversed $69 $-1 #
coedge $-1 $113 $288 $110 $186 forward $180 $-1 #
edge $-1 $289 -12.681804739883061 $192 -1.1542344752984075 $185 $290 forward 7 unknown #
coedge $-1 $112 $111 $291 $292 reversed $44 $-1 #
edge $-1 $192 -79.572740867336037 $293 79.572740867336037 $184 $294 forward 7 unknown #
coedge $-1 $295 $296 $112 $190 forward $282 $-1 #
edge $-1 $193 -79.572740867336037 $297 79.572740867336037 $189 $298 forward 7 unknown #
coedge $-1 $288 $113 $296 $299 forward $180 $-1 #
vertex $-1 $114 $300 #
vertex $-1 $299 $301 #
straight-curve $-1 79.572740867336037 -19.765183964227255 -8.0722540828891418 0 -1 0 I I #
face $-1 $302 $303 $26 $-1 $304 reversed single #
loop $-1 $-1 $305 $115 #
plane-surface $-1 0 0 -19.599824347473795 0 0 1 1 0 0 forward_v I I I I #
coedge $-1 $306 $118 $305 $307 reversed $73 $-1 #
coedge $-1 $118 $306 $120 $205 reversed $73 $-1 #
coedge $-1 $308 $309 $118 $201 forward $303 $-1 #
edge $-1 $310 -12.309571374258105 $311 -2.2709345721732745 $200 $312 forward 7 unknown #
coedge $-1 $120 $119 $308 $313 reversed $47 $-1 #
coedge $-1 $314 $315 $119 $204 forward $316 $-1 #
edge $-1 $317 -79.572740867336037 $208 79.572740867336037 $203 $318 forward 7 unknown #
edge $-1 $311 -79.572740867336037 $209 79.572740867336037 $199 $319 forward 7 unknown #
coedge $-1 $320 $121 $306 $321 forward $116 $-1 #
coedge $-1 $121 $320 $314 $322 reversed $116 $-1 #
vertex $-1 $322 $323 #
vertex $-1 $122 $324 #
straight-curve $-1 79.572740867336037 18.58705010900993 -9.5611875453889645 0 -1 0 I I #
face $-1 $-1 $325 $27 $-1 $326 reversed single #
loop $-1 $-1 $129 $123 #
plane-surface $-1 0 0 19.599824347473795 0 0 1 1 0 0 forward_v I I I I #
coedge $-1 $327 $328 $329 $330 reversed $124 $-1 #
coedge $-1 $331 $126 $128 $221 forward $77 $-1 #
coedge $-1 $126 $331 $327 $332 forward $77 $-1 #
coedge $-1 $329 $129 $126 $218 forward $212 $-1 #
edge $-1 $224 -12.886466376972447 $333 1.3369917903994057 $217 $334 forward 7 unknown #
coedge $-1 $335 $336 $127 $220 forward $325 $-1 #
edge $-1 $337 -109.44672081333239 $223 -93.248221599955102 $219 $338 forward 7 unknown #
edge $-1 $224 131.58694918685126 $337 159.14548173467207 $128 $339 forward 7 unknown #
coedge $-1 $129 $329 $335 $340 forward $212 $-1 #
vertex $-1 $220 $341 #
vertex $-1 $130 $342 #
straight-curve $-1 22.182355380984589 18.661203670258967 19.599824347473799 -1 0 0 I I #
coedge $-1 $226 $226 $-1 $343 reversed $133 $-1 #
edge $-1 $344 0 $344 6.2831853071796004 $134 $345 forward 7 unknown #
vertex $-1 $137 $346 #
ellipse-curve $-1 68.425080356902527 8.5015906935647934 11.500574740785169 0.5877852598018023 0 0.80901698891910034 1.2135254833786506 0 -0.88167788970270344 1 I I #
coedge $-1 $230 $230 $-1 $347 reversed $140 $-1 #
edge $-1 $348 0 $348 6.2831853071796004 $141 $349 forward 7 unknown #
vertex $-1 $144 $350 #
ellipse-curve $-1 68.425080356902527 14.597358479581303 11.500574740785169 0.5877852598018023 0 0.80901698891910034 1.2135254833786506 0 -0.88167788970270344 1 I I #
face $-1 $-1 $246 $30 $-1 $351 forward single #
loop $-1 $-1 $352 $145 #
plane-surface $-1 -79.572740867336037 0 0 1 0 0 0 0 -1 forward_v I I I I #
coedge $-1 $353 $354 $355 $356 reversed $146 $-1 #
coedge $-1 $357 $148 $150 $244 forward $91 $-1 #
coedge $-1 $148 $357 $353 $358 forward $91 $-1 #
coedge $-1 $355 $151 $148 $241 forward $246 $-1 #
edge $-1 $248 0.87579917930111506 $359 12.802673092525136 $240 $360 forward 7 unknown #
coedge $-1 $361 $362 $149 $243 forward $235 $-1 #
edge $-1 $363 -48.929331270741379 $247 -29.450584776566547 $242 $364 forward 7 unknown #
edge $-1 $248 -24.718883848958654 $363 -4.6161004000726545e-014 $150 $365 forward 7 unknown #
coedge $-1 $151 $355 $361 $366 forward $246 $-1 #
loop $-1 $-1 $355 $234 #
vertex $-1 $243 $367 #
vertex $-1 $152 $368 #
straight-curve $-1 -102.49054658791636 7.7150353152142408 19.599824347473799 1 0 0 I I #
coedge $-1 $250 $250 $-1 $369 reversed $155 $-1 #
edge $-1 $370 0 $370 6.2831853071796004 $156 $371 forward 7 unknown #
vertex $-1 $159 $372 #
ellipse-curve $-1 -71.96350874848892 13.678472271826259 9.860451100386376 -0.78801076186113728 0 0.61566146476048833 0.9234921971407325 0 1.182016142791706 1 I I #
face $-1 $-1 $175 $24 $-1 $373 reversed single #
loop $-1 $-1 $270 $160 #
plane-surface $-1 0 47.435718145024623 0 0 -1 0 0 0 -1 forward_v I I I I #
coedge $-1 $374 $268 $271 $375 forward $161 $-1 #
coedge $-1 $274 $163 $164 $262 reversed $100 $-1 #
coedge $-1 $268 $374 $163 $260 reversed $161 $-1 #
edge $-1 $275 -19.599824347473795 $376 19.599824347473795 $259 $377 forward 7 unknown #
coedge $-1 $165 $164 $374 $378 forward $65 $-1 #
edge $-1 $266 -79.572740867336037 $376 79.572740867336037 $258 $379 forward 7 unknown #
coedge $-1 $271 $270 $165 $264 reversed $255 $-1 #
edge $-1 $380 -79.572740867336037 $265 79.572740867336037 $263 $381 forward 7 unknown #
vertex $-1 $167 $382 #
vertex $-1 $277 $383 #
straight-curve $-1 79.572740867336037 0 -19.599824347473795 0 -1 0 I I #
coedge $-1 $257 $259 $168 $269 reversed $161 $-1 #
edge $-1 $272 -47.435718145024623 $275 47.435718145024623 $268 $384 forward 7 unknown #
coedge $-1 $263 $169 $174 $278 forward $255 $-1 #
coedge $-1 $169 $263 $257 $375 reversed $255 $-1 #
vertex $-1 $170 $385 #
straight-curve $-1 0 47.435718145024623 19.599824347473795 -1 0 0 I I #
coedge $-1 $171 $258 $173 $277 reversed $100 $-1 #
vertex $-1 $269 $386 #
straight-curve $-1 0 -47.435718145024623 19.599824347473795 1 0 0 I I #
edge $-1 $176 -19.599824347473795 $266 19.599824347473795 $173 $387 forward 7 unknown #
edge $-1 $177 -19.599824347473795 $265 19.599824347473795 $174 $388 forward 7 unknown #
point $-1 79.572740867336037 -47.435718145024623 19.599824347473795 #
point $-1 79.572740867336037 47.435718145024623 19.599824347473795 #
face $-1 $-1 $389 $25 $-1 $390 reversed single #
loop $-1 $-1 $189 $179 #
plane-surface $-1 0 -47.435718145024623 0 0 1 0 0 0 1 forward_v I I I I #
coedge $-1 $391 $182 $288 $392 forward $108 $-1 #
coedge $-1 $182 $391 $393 $394 forward $108 $-1 #
edge $-1 $395 -79.572740867336037 $289 79.572740867336037 $182 $396 forward 7 unknown #
coedge $-1 $184 $183 $397 $398 reversed $69 $-1 #
coedge $-1 $185 $191 $284 $392 reversed $180 $-1 #
vertex $-1 $392 $399 #
straight-curve $-1 79.572740867336037 -31.6250177118844 -6.9180196075907343 0 0 1 I I #
coedge $-1 $397 $400 $187 $292 forward $389 $-1 #
edge $-1 $297 -27.670534180797368 $293 -11.859833747657145 $291 $401 forward 7 unknown #
vertex $-1 $292 $402 #
straight-curve $-1 0 -31.6250177118844 -8.0722540828891418 -1 0 0 I I #
coedge $-1 $403 $189 $400 $404 forward $282 $-1 #
coedge $-1 $189 $403 $191 $299 reversed $282 $-1 #
vertex $-1 $404 $405 #
straight-curve $-1 0 -47.435718145024623 -8.0722540828891418 -1 0 0 I I #
edge $-1 $193 8.0722540828891418 $406 19.599824347473795 $191 $407 forward 7 unknown #
point $-1 79.572740867336037 -31.6250177118844 -8.0722540828891418 #
point $-1 79.572740867336037 -47.435718145024623 -8.0722540828891418 #
face $-1 $-1 $316 $26 $-1 $408 reversed single #
loop $-1 $-1 $308 $195 #
plane-surface $-1 -79.572740867336037 0 0 1 0 0 0 0 -1 forward_v I I I I #
coedge $-1 $409 $410 $198 $307 forward $196 $-1 #
coedge $-1 $199 $198 $206 $321 reversed $73 $-1 #
edge $-1 $411 -79.572740867336037 $310 79.572740867336037 $305 $412 forward 7 unknown #
coedge $-1 $413 $200 $202 $313 forward $303 $-1 #
coedge $-1 $200 $413 $409 $414 reversed $303 $-1 #
vertex $-1 $414 $415 #
vertex $-1 $313 $416 #
straight-curve $-1 -79.572740867336037 26.912482291015095 -7.29025297321569 0 0 1 I I #
edge $-1 $311 8.3254321820051658 $317 28.848668036014693 $308 $417 forward 7 unknown #
coedge $-1 $418 $203 $207 $322 forward $316 $-1 #
coedge $-1 $203 $418 $413 $419 reversed $316 $-1 #
loop $-1 $-1 $203 $302 #
vertex $-1 $419 $420 #
straight-curve $-1 0 47.435718145024623 -9.5611875453889645 1 0 0 I I #
straight-curve $-1 0 26.912482291015095 -9.5611875453889645 1 0 0 I I #
coedge $-1 $207 $206 $410 $421 reversed $116 $-1 #
edge $-1 $209 2.2709345721732745 $411 12.309571374258105 $206 $422 forward 7 unknown #
edge $-1 $208 9.5611875453889645 $423 19.599824347473795 $207 $424 forward 7 unknown #
point $-1 79.572740867336037 47.435718145024623 -9.5611875453889645 #
point $-1 79.572740867336037 26.912482291015095 -9.5611875453889645 #
loop $-1 $-1 $219 $211 #
plane-surface $-1 79.572740867336037 0 0 -1 0 0 0 0 1 forward_v I I I I #
coedge $-1 $328 $214 $216 $332 reversed $124 $-1 #
coedge $-1 $214 $327 $425 $426 reversed $124 $-1 #
coedge $-1 $222 $217 $214 $330 forward $212 $-1 #
edge $-1 $333 35.095064465484441 $427 57.390385486351448 $329 $428 forward 7 unknown #
coedge $-1 $216 $215 $336 $429 reversed $77 $-1 #
edge $-1 $430 -159.14548173467207 $333 -131.58694918685126 $327 $431 forward 7 unknown #
vertex $-1 $218 $432 #
straight-curve $-1 57.277419846469009 5.7747372932865204 19.599824347473799 0 -1 0 I I #
coedge $-1 $425 $219 $222 $340 reversed $325 $-1 #
coedge $-1 $219 $425 $331 $429 forward $325 $-1 #
vertex $-1 $220 $433 #
straight-curve $-1 79.572740867336037 18.661203670258967 112.8480459474289 0 0 1 I I #
straight-curve $-1 -49.178657565728031 18.661203670258967 96.944693461793719 0.80901698891910034 0 -0.5877852598018023 I I #
edge $-1 $427 4.4377455028871147 $223 18.661203670258967 $335 $434 forward 7 unknown #
point $-1 79.572740867336037 18.661203670258967 19.599824347473795 #
point $-1 57.27741984646903 18.661203670258967 19.599824347473799 #
edge $-1 $435 1 $435 0 $226 $-1 forward 7 unknown #
vertex $-1 $227 $436 #
ellipse-curve $-1 66.727136697919079 8.5015906935647934 9.1635558321989716 0.5877852598018023 0 0.80901698891910034 1.2135254833786506 0 -0.88167788970270344 1 I I #
point $-1 69.638605840281144 8.5015906935647934 10.618896851082436 #
edge $-1 $437 1 $437 0 $230 $-1 forward 7 unknown #
vertex $-1 $231 $438 #
ellipse-curve $-1 66.727136697919079 14.597358479581303 9.1635558321989716 0.5877852598018023 0 0.80901698891910034 1.2135254833786506 0 -0.88167788970270344 1 I I #
point $-1 69.638605840281144 14.597358479581303 10.618896851082436 #
plane-surface $-1 0 0 19.599824347473795 0 0 1 1 0 0 forward_v I I I I #
coedge $-1 $362 $361 $354 $439 forward $235 $-1 #
coedge $-1 $354 $237 $239 $358 reversed $146 $-1 #
coedge $-1 $237 $353 $352 $439 reversed $146 $-1 #
coedge $-1 $245 $240 $237 $356 forward $246 $-1 #
edge $-1 $359 -38.136269958274553 $440 -22.917805720580319 $355 $441 forward 7 unknown #
coedge $-1 $239 $238 $362 $442 reversed $91 $-1 #
edge $-1 $443 4.6161004000726545e-014 $359 24.718883848958654 $353 $444 forward 7 unknown #
vertex $-1 $241 $445 #
straight-curve $-1 -64.354276629641802 6.8392361359131257 19.599824347473795 0 1 0 I I #
coedge $-1 $352 $242 $245 $366 reversed $235 $-1 #
coedge $-1 $242 $352 $357 $442 forward $235 $-1 #
vertex $-1 $243 $446 #
straight-curve $-1 -79.572740867336037 7.7150353152142408 49.050409124040343 0 0 1 I I #
straight-curve $-1 -79.572740867336066 7.7150353152142408 0.12107785329892806 -0.61566146476048833 0 -0.78801076186113728 I I #
edge $-1 $440 -19.641909228438262 $247 -7.7150353152142408 $361 $447 forward 7 unknown #
point $-1 -79.572740867336037 7.7150353152142408 19.599824347473795 #
point $-1 -64.354276629641802 7.7150353152142408 19.599824347473795 #
edge $-1 $448 1 $448 0 $250 $-1 forward 7 unknown #
vertex $-1 $251 $449 #
ellipse-curve $-1 -69.171285550861739 13.678472271826259 7.6789273103695415 -0.78801076186113728 0 0.61566146476048833 0.9234921971407325 0 1.182016142791706 1 I I #
point $-1 -71.040016551348174 13.678472271826259 11.04246724317807 #
plane-surface $-1 79.572740867336037 0 0 -1 0 0 0 0 1 forward_v I I I I #
coedge $-1 $259 $257 $261 $378 reversed $161 $-1 #
edge $-1 $272 -19.599824347473795 $380 19.599824347473795 $271 $450 forward 7 unknown #
vertex $-1 $378 $451 #
straight-curve $-1 -79.572740867336037 -47.435718145024623 0 0 0 -1 I I #
edge $-1 $376 -47.435718145024623 $380 47.435718145024623 $374 $452 forward 7 unknown #
straight-curve $-1 0 -47.435718145024623 -19.599824347473795 -1 0 0 I I #
vertex $-1 $264 $453 #
straight-curve $-1 0 47.435718145024623 -19.599824347473795 1 0 0 I I #
point $-1 79.572740867336037 47.435718145024623 -19.599824347473795 #
point $-1 79.572740867336037 -47.435718145024623 -19.599824347473795 #
straight-curve $-1 -79.572740867336037 0 19.599824347473795 0 -1 0 I I #
point $-1 -79.572740867336037 47.435718145024623 19.599824347473795 #
point $-1 -79.572740867336037 -47.435718145024623 19.599824347473795 #
straight-curve $-1 79.572740867336037 -47.435718145024623 0 0 0 -1 I I #
straight-curve $-1 79.572740867336037 47.435718145024623 0 0 0 -1 I I #
loop $-1 $-1 $397 $281 #
plane-surface $-1 -79.572740867336037 0 0 1 0 0 0 0 -1 forward_v I I I I #
coedge $-1 $285 $284 $403 $454 forward $108 $-1 #
edge $-1 $289 31.6250177118844 $406 47.435718145024623 $288 $455 forward 7 unknown #
coedge $-1 $400 $397 $285 $394 reversed $389 $-1 #
edge $-1 $456 -47.435718145024623 $395 -31.6250177118844 $393 $457 forward 7 unknown #
vertex $-1 $398 $458 #
straight-curve $-1 0 -31.6250177118844 -19.599824347473795 1 0 0 I I #
coedge $-1 $393 $291 $287 $398 forward $389 $-1 #
edge $-1 $293 1.1542344752984075 $395 12.681804739883061 $397 $459 forward 7 unknown #
point $-1 79.572740867336037 -31.6250177118844 -19.599824347473795 #
coedge $-1 $291 $393 $295 $404 reversed $389 $-1 #
straight-curve $-1 -79.572740867336037 -19.765183964227255 -8.0722540828891418 0 1 0 I I #
point $-1 -79.572740867336037 -31.6250177118844 -8.0722540828891418 #
coedge $-1 $296 $295 $391 $454 reversed $282 $-1 #
edge $-1 $297 8.0722540828891418 $456 19.599824347473795 $400 $460 forward 7 unknown #
point $-1 -79.572740867336037 -47.435718145024623 -8.0722540828891418 #
vertex $-1 $299 $461 #
straight-curve $-1 79.572740867336037 -47.435718145024623 0 0 0 -1 I I #
plane-surface $-1 0 47.435718145024623 0 0 -1 0 0 0 -1 forward_v I I I I #
coedge $-1 $462 $305 $309 $414 forward $196 $-1 #
coedge $-1 $305 $462 $320 $421 forward $196 $-1 #
vertex $-1 $307 $463 #
straight-curve $-1 0 26.912482291015095 -19.599824347473795 -1 0 0 I I #
coedge $-1 $309 $308 $315 $419 forward $303 $-1 #
edge $-1 $310 26.912482291015095 $464 47.435718145024623 $309 $465 forward 7 unknown #
point $-1 -79.572740867336037 26.912482291015095 -19.599824347473795 #
point $-1 -79.572740867336037 26.912482291015095 -9.5611875453889645 #
straight-curve $-1 -79.572740867336037 18.58705010900993 -9.5611875453889645 0 1 0 I I #
coedge $-1 $315 $314 $462 $466 reversed $316 $-1 #
edge $-1 $317 9.5611875453889645 $464 19.599824347473795 $315 $467 forward 7 unknown #
point $-1 -79.572740867336037 47.435718145024623 -9.5611875453889645 #
edge $-1 $423 -47.435718145024623 $411 -26.912482291015095 $320 $468 forward 7 unknown #
straight-curve $-1 79.572740867336037 26.912482291015095 -7.29025297321569 0 0 -1 I I #
vertex $-1 $421 $469 #
straight-curve $-1 79.572740867336037 47.435718145024623 0 0 0 -1 I I #
coedge $-1 $336 $335 $328 $426 forward $325 $-1 #
edge $-1 $427 93.248221599955102 $430 109.44672081333239 $425 $470 forward 7 unknown #
vertex $-1 $340 $471 #
straight-curve $-1 22.182355380984589 4.4377455028871147 19.599824347473799 1 0 0 I I #
edge $-1 $430 -1.3369917903994057 $337 12.886466376972447 $336 $472 forward 7 unknown #
vertex $-1 $429 $473 #
straight-curve $-1 -49.178657565728031 4.4377455028871147 96.944693461793719 -0.80901698891910034 0 0.5877852598018023 I I #
point $-1 57.27741984646903 4.4377455028871147 19.599824347473799 #
point $-1 79.572740867336051 18.661203670258967 3.4013251340965098 #
straight-curve $-1 79.572740867336037 0 19.599824347473795 0 1 0 I I #
vertex $-1 $343 $474 #
point $-1 67.940662181297725 8.5015906935647934 8.2818779424962692 #
vertex $-1 $347 $475 #
point $-1 67.940662181297725 14.597358479581303 8.2818779424962692 #
edge $-1 $440 29.450584776566547 $443 48.929331270741379 $352 $476 forward 7 unknown #
vertex $-1 $366 $477 #
straight-curve $-1 -102.49054658791636 19.641909228438262 19.599824347473799 -1 0 0 I I #
edge $-1 $443 -12.802673092525136 $363 -0.87579917930111506 $362 $478 forward 7 unknown #
vertex $-1 $442 $479 #
straight-curve $-1 -79.572740867336066 19.641909228438262 0.12107785329892806 0.61566146476048833 0 0.78801076186113728 I I #
point $-1 -64.354276629641802 19.641909228438262 19.599824347473795 #
point $-1 -79.572740867336037 7.7150353152142408 0.12107785329896444 #
straight-curve $-1 -79.572740867336037 0 19.599824347473795 0 -1 0 I I #
vertex $-1 $369 $480 #
point $-1 -68.247793353721008 13.678472271826259 8.8609434531612479 #
straight-curve $-1 -79.572740867336037 47.435718145024623 0 0 0 -1 I I #
point $-1 -79.572740867336037 -47.435718145024623 -19.599824347473795 #
straight-curve $-1 -79.572740867336037 0 -19.599824347473795 0 1 0 I I #
point $-1 -79.572740867336037 47.435718145024623 -19.599824347473795 #
edge $-1 $406 -79.572740867336037 $456 79.572740867336037 $403 $481 forward 7 unknown #
straight-curve $-1 79.572740867336037 0 -19.599824347473795 0 -1 0 I I #
vertex $-1 $394 $482 #
straight-curve $-1 -79.572740867336037 0 -19.599824347473795 0 1 0 I I #
point $-1 -79.572740867336037 -31.6250177118844 -19.599824347473795 #
straight-curve $-1 -79.572740867336037 -31.6250177118844 -6.9180196075907343 0 0 -1 I I #
straight-curve $-1 -79.572740867336037 -47.435718145024623 0 0 0 -1 I I #
point $-1 79.572740867336037 -47.435718145024623 -19.599824347473795 #
coedge $-1 $410 $409 $418 $466 forward $196 $-1 #
point $-1 79.572740867336037 26.912482291015095 -19.599824347473795 #
vertex $-1 $466 $483 #
straight-curve $-1 -79.572740867336037 0 -19.599824347473795 0 1 0 I I #
edge $-1 $464 -79.572740867336037 $423 79.572740867336037 $418 $484 forward 7 unknown #
straight-curve $-1 -79.572740867336037 47.435718145024623 0 0 0 -1 I I #
straight-curve $-1 79.572740867336037 0 -19.599824347473795 0 -1 0 I I #
point $-1 79.572740867336037 47.435718145024623 -19.599824347473795 #
straight-curve $-1 79.572740867336037 4.4377455028871147 112.8480459474289 0 0 -1 I I #
point $-1 79.572740867336037 4.4377455028871147 19.599824347473795 #
straight-curve $-1 79.572740867336037 5.7747372932865204 3.401325134096524 0 1 0 I I #
point $-1 79.572740867336051 4.4377455028871147 3.4013251340965098 #
point $-1 65.845458808216378 8.5015906935647934 7.9500303488203219 #
point $-1 65.845458808216378 14.597358479581303 7.9500303488203219 #
straight-curve $-1 -79.572740867336037 19.641909228438262 49.050409124040343 0 0 -1 I I #
point $-1 -79.572740867336037 19.641909228438262 19.599824347473795 #
straight-curve $-1 -79.572740867336037 6.8392361359131257 0.1210778532989728 0 -1 0 I I #
point $-1 -79.572740867336037 19.641909228438262 0.12107785329896444 #
point $-1 -67.989269408070044 13.678472271826259 6.7554351132288097 #
straight-curve $-1 0 -47.435718145024623 -19.599824347473795 -1 0 0 I I #
point $-1 -79.572740867336037 -47.435718145024623 -19.599824347473795 #
point $-1 -79.572740867336037 47.435718145024623 -19.599824347473795 #
straight-curve $-1 0 47.435718145024623 -19.599824347473795 1 0 0 I I #
End-of-ACIS-data 