500 0 9 0           
7 Unknown 11 ACIS 5.0 NT 24 Fri Mar 26 20:01:03 1999 
-1 9.9999999999999995e-007 1e-010 
body $-1 $9 $-1 $10 #
body $-1 $11 $-1 $12 #
body $-1 $13 $-1 $14 #
body $-1 $15 $-1 $16 #
body $-1 $17 $-1 $18 #
body $-1 $19 $-1 $20 #
body $-1 $21 $-1 $22 #
body $-1 $23 $-1 $24 #
body $-1 $25 $-1 $26 #
lump $-1 $-1 $27 $0 #
transform $-1 1 0 0 0 1 0 0 0 1 59.139988402966395 28.60547472144092 7.6984319065997679 1 rotate no_reflect no_shear #
lump $-1 $-1 $28 $1 #
transform $-1 1 0 0 0 1 0 0 0 1 59.139988402966395 28.60547472144092 7.6984319065997679 1 rotate no_reflect no_shear #
lump $-1 $-1 $29 $2 #
transform $-1 1 0 0 0 1 0 0 0 1 59.139988402966395 28.60547472144092 7.6984319065997679 1 rotate no_reflect no_shear #
lump $-1 $-1 $30 $3 #
transform $-1 1 0 0 0 1 0 0 0 1 59.139988402966395 28.60547472144092 7.6984319065997679 1 rotate no_reflect no_shear #
lump $-1 $-1 $31 $4 #
transform $-1 1 0 0 0 1 0 0 0 1 59.139988402966395 28.60547472144092 7.6984319065997679 1 rotate no_reflect no_shear #
lump $-1 $-1 $32 $5 #
transform $-1 1 0 0 0 1 0 0 0 1 59.139988402966395 28.60547472144092 7.6984319065997679 1 rotate no_reflect no_shear #
lump $-1 $-1 $33 $6 #
transform $-1 1 0 0 0 1 0 0 0 1 59.139988402966395 28.60547472144092 7.6984319065997679 1 rotate no_reflect no_shear #
lump $-1 $-1 $34 $7 #
transform $-1 1 0 0 0 1 0 0 0 1 59.139988402966395 28.60547472144092 7.6984319065997679 1 rotate no_reflect no_shear #
lump $-1 $-1 $35 $8 #
transform $-1 1 0 0 0 1 0 0 0 1 59.139988402966395 28.60547472144092 7.6984319065997679 1 rotate no_reflect no_shear #
shell $-1 $-1 $-1 $36 $-1 $9 #
shell $-1 $-1 $-1 $37 $-1 $11 #
shell $-1 $-1 $-1 $38 $-1 $13 #
shell $-1 $-1 $-1 $39 $-1 $15 #
shell $-1 $-1 $-1 $40 $-1 $17 #
shell $-1 $-1 $-1 $41 $-1 $19 #
shell $-1 $-1 $-1 $42 $-1 $21 #
shell $-1 $-1 $-1 $43 $-1 $23 #
shell $-1 $-1 $-1 $44 $-1 $25 #
face $-1 $45 $46 $27 $-1 $47 forward single #
face $-1 $48 $49 $28 $-1 $50 forward single #
face $-1 $51 $52 $29 $-1 $53 forward single #
face $-1 $54 $55 $30 $-1 $56 reversed single #
face $-1 $57 $58 $31 $-1 $59 forward single #
face $-1 $60 $61 $32 $-1 $62 forward single #
face $-1 $63 $64 $33 $-1 $65 reversed single #
face $-1 $66 $67 $34 $-1 $68 forward single #
face $-1 $69 $70 $35 $-1 $71 forward single #
face $-1 $72 $73 $27 $-1 $74 reversed single #
loop $-1 $-1 $75 $36 #
plane-surface $-1 0 0 7.6984319065997679 0 0 1 1 0 0 forward_v I I I I #
face $-1 $76 $77 $28 $-1 $78 reversed single #
loop $-1 $-1 $79 $37 #
plane-surface $-1 0 -25.24431872287769 5.7049910840725806 0 0 1 1 0 0 forward_v I I I I #
face $-1 $80 $81 $29 $-1 $82 reversed single #
loop $-1 $-1 $83 $38 #
plane-surface $-1 0 23.777960921603785 0.52587256781311087 0 0 1 1 0 0 forward_v I I I I #
face $-1 $84 $85 $30 $-1 $86 reversed single #
loop $-1 $-1 $87 $39 #
plane-surface $-1 85.307276025498652 -16.120535105166891 169.90041097119789 0 1 0 0.80901700255871778 0 0.5877852410284794 forward_v I I I I #
face $-1 $88 $89 $31 $-1 $90 forward single #
loop $-1 $91 $92 $40 #
cone-surface $-1 57.62451304835988 -14.183104193679247 5.8863949986401209 -0.80901700255871778 0 -0.5877852410284794 0.2938926205142397 0 -0.40450850127935889 1 I I 0 1 0.5 forward I I I I #
face $-1 $93 $94 $32 $-1 $95 forward single #
loop $-1 $96 $97 $41 #
cone-surface $-1 57.62451304835988 -11.276957826447781 5.8863949986401209 -0.80901700255871778 0 -0.5877852410284794 0.2938926205142397 0 -0.40450850127935889 1 I I 0 1 0.5 forward I I I I #
face $-1 $98 $99 $33 $-1 $100 reversed single #
loop $-1 $-1 $101 $42 #
plane-surface $-1 85.307276025498652 6.4068113124123256 169.90041097119789 0 1 0 0.80901700255871778 0 0.5877852410284794 forward_v I I I I #
face $-1 $102 $103 $34 $-1 $104 forward single #
loop $-1 $105 $106 $43 #
cone-surface $-1 57.62451304835988 8.3442422238999754 5.8863949986401209 -0.80901700255871778 0 -0.5877852410284794 0.2938926205142397 0 -0.40450850127935889 1 I I 0 1 0.5 forward I I I I #
face $-1 $107 $108 $35 $-1 $109 forward single #
loop $-1 $110 $111 $44 #
cone-surface $-1 57.62451304835988 11.25038859113144 5.8863949986401209 -0.80901700255871778 0 -0.5877852410284794 0.2938926205142397 0 -0.40450850127935889 1 I I 0 1 0.5 forward I I I I #
face $-1 $112 $113 $27 $-1 $114 reversed single #
loop $-1 $-1 $115 $45 #
plane-surface $-1 0 0 -7.6984319065997679 0 0 1 1 0 0 forward_v I I I I #
coedge $-1 $116 $117 $118 $119 forward $46 $-1 #
face $-1 $120 $121 $28 $-1 $122 reversed single #
loop $-1 $-1 $123 $48 #
plane-surface $-1 0 -25.24431872287769 2.7049910840725806 0 0 1 1 0 0 forward_v I I I I #
coedge $-1 $124 $125 $126 $127 reversed $49 $-1 #
face $-1 $128 $129 $29 $-1 $130 reversed single #
loop $-1 $-1 $131 $51 #
plane-surface $-1 0 23.777960921603785 -2.5854056806178738 0 0 1 1 0 0 forward_v I I I I #
coedge $-1 $132 $133 $134 $135 reversed $52 $-1 #
face $-1 $136 $137 $30 $-1 $138 reversed single #
loop $-1 $-1 $139 $54 #
plane-surface $-1 -10.383236272751759 -12.730031010063513 100.37718629547973 0.80901700255871778 0 0.5877852410284794 0.5877852410284794 0 -0.80901700255871778 forward_v I I I I #
coedge $-1 $140 $141 $142 $143 reversed $55 $-1 #
face $-1 $-1 $144 $31 $-1 $145 forward single #
loop $-1 $146 $147 $57 #
cone-surface $-1 57.000868513686868 -14.183104193679247 5.4332907351085682 -0.80901700255871778 0 -0.5877852410284794 0.14694631025711985 0 -0.20225425063967944 1 I I -0.70710678118654746 0.70710678118654746 0.25 forward I I I I #
loop $-1 $-1 $148 $40 #
coedge $-1 $92 $92 $149 $150 reversed $58 $-1 #
face $-1 $-1 $151 $32 $-1 $152 forward single #
loop $-1 $153 $154 $60 #
cone-surface $-1 57.000868513686868 -11.276957826447781 5.4332907351085682 -0.80901700255871778 0 -0.5877852410284794 0.14694631025711985 0 -0.20225425063967944 1 I I -0.70710678118654746 0.70710678118654746 0.25 forward I I I I #
loop $-1 $-1 $155 $41 #
coedge $-1 $97 $97 $156 $157 reversed $61 $-1 #
face $-1 $158 $159 $33 $-1 $160 reversed single #
loop $-1 $-1 $161 $63 #
plane-surface $-1 -10.383236272751759 9.7973154075157041 100.37718629547973 0.80901700255871778 0 0.5877852410284794 0.5877852410284794 0 -0.80901700255871778 forward_v I I I I #
coedge $-1 $162 $163 $164 $165 reversed $64 $-1 #
face $-1 $-1 $166 $34 $-1 $167 forward single #
loop $-1 $168 $169 $66 #
cone-surface $-1 57.000868513686868 8.3442422238999754 5.4332907351085682 -0.80901700255871778 0 -0.5877852410284794 0.14694631025711985 0 -0.20225425063967944 1 I I -0.70710678118654746 0.70710678118654746 0.25 forward I I I I #
loop $-1 $-1 $170 $43 #
coedge $-1 $106 $106 $171 $172 reversed $67 $-1 #
face $-1 $-1 $173 $35 $-1 $174 forward single #
loop $-1 $175 $176 $69 #
cone-surface $-1 57.000868513686868 11.25038859113144 5.4332907351085682 -0.80901700255871778 0 -0.5877852410284794 0.14694631025711985 0 -0.20225425063967944 1 I I -0.70710678118654746 0.70710678118654746 0.25 forward I I I I #
loop $-1 $-1 $177 $44 #
coedge $-1 $111 $111 $178 $179 reversed $70 $-1 #
face $-1 $180 $181 $27 $-1 $182 reversed single #
loop $-1 $-1 $183 $72 #
plane-surface $-1 0 -28.60547472144092 0 0 1 0 0 0 1 forward_v I I I I #
coedge $-1 $184 $185 $186 $187 forward $73 $-1 #
coedge $-1 $188 $75 $189 $190 forward $46 $-1 #
coedge $-1 $75 $188 $191 $192 forward $46 $-1 #
coedge $-1 $193 $194 $75 $119 reversed $195 $-1 #
edge $-1 $196 -28.60547472144092 $197 28.60547472144092 $118 $198 forward 7 unknown #
face $-1 $199 $200 $28 $-1 $201 reversed single #
loop $-1 $-1 $202 $76 #
plane-surface $-1 0 -21.88316272431446 4.2049910840725806 0 -1 0 0 0 -1 forward_v I I I I #
coedge $-1 $203 $204 $205 $206 reversed $77 $-1 #
coedge $-1 $207 $79 $208 $209 forward $49 $-1 #
coedge $-1 $79 $207 $210 $211 reversed $49 $-1 #
coedge $-1 $212 $213 $79 $127 forward $214 $-1 #
edge $-1 $215 9.2610033628756145 $216 15.983315360002075 $126 $217 forward 7 unknown #
face $-1 $218 $219 $29 $-1 $220 reversed single #
loop $-1 $-1 $221 $80 #
plane-surface $-1 0 18.950447121766651 -1.0297665564023815 0 1 0 0 0 1 forward_v I I I I #
coedge $-1 $222 $223 $224 $225 reversed $81 $-1 #
coedge $-1 $226 $83 $227 $228 reversed $52 $-1 #
coedge $-1 $83 $226 $229 $230 forward $52 $-1 #
coedge $-1 $231 $232 $83 $135 forward $219 $-1 #
edge $-1 $233 -16.716494260639028 $234 -7.0614666609647578 $134 $235 forward 7 unknown #
face $-1 $236 $237 $30 $-1 $238 forward single #
loop $-1 $-1 $239 $84 #
plane-surface $-1 85.307276025498652 -9.3395269149601354 169.90041097119789 0 -1 0 -0.80901700255871778 0 -0.5877852410284794 forward_v I I I I #
coedge $-1 $240 $241 $242 $243 reversed $85 $-1 #
coedge $-1 $141 $87 $244 $245 reversed $55 $-1 #
coedge $-1 $87 $140 $240 $246 reversed $55 $-1 #
coedge $-1 $242 $247 $87 $143 forward $248 $-1 #
edge $-1 $249 77.251773578999178 $250 80.263531488369622 $142 $251 forward 7 unknown #
loop $-1 $-1 $149 $88 #
plane-surface $-1 -10.383236272751759 -12.730031010063513 100.37718629547973 0.80901700255871778 0 0.5877852410284794 0.5877852410284794 0 -0.80901700255871778 forward_v I I I I #
loop $-1 $-1 $252 $57 #
coedge $-1 $147 $147 $148 $253 reversed $89 $-1 #
coedge $-1 $148 $148 $147 $253 forward $91 $-1 #
coedge $-1 $149 $149 $92 $150 forward $144 $-1 #
edge $-1 $254 0 $254 6.2831853071796004 $149 $255 forward 7 unknown #
loop $-1 $-1 $156 $93 #
plane-surface $-1 -10.383236272751759 -12.730031010063513 100.37718629547973 0.80901700255871778 0 0.5877852410284794 0.5877852410284794 0 -0.80901700255871778 forward_v I I I I #
loop $-1 $-1 $256 $60 #
coedge $-1 $154 $154 $155 $257 reversed $94 $-1 #
coedge $-1 $155 $155 $154 $257 forward $96 $-1 #
coedge $-1 $156 $156 $97 $157 forward $151 $-1 #
edge $-1 $258 0 $258 6.2831853071796004 $156 $259 forward 7 unknown #
face $-1 $260 $261 $33 $-1 $262 reversed single #
loop $-1 $-1 $263 $98 #
plane-surface $-1 85.307276025498652 13.187819502619082 169.90041097119789 0 -1 0 -0.80901700255871778 0 -0.5877852410284794 forward_v I I I I #
coedge $-1 $264 $265 $266 $267 reversed $99 $-1 #
coedge $-1 $163 $101 $268 $269 reversed $64 $-1 #
coedge $-1 $101 $162 $264 $270 reversed $64 $-1 #
coedge $-1 $266 $271 $101 $165 forward $261 $-1 #
edge $-1 $272 77.251773578999178 $273 80.263531488369622 $164 $274 forward 7 unknown #
loop $-1 $-1 $171 $102 #
plane-surface $-1 -10.383236272751759 9.7973154075157041 100.37718629547973 0.80901700255871778 0 0.5877852410284794 0.5877852410284794 0 -0.80901700255871778 forward_v I I I I #
loop $-1 $-1 $275 $66 #
coedge $-1 $169 $169 $170 $276 reversed $103 $-1 #
coedge $-1 $170 $170 $169 $276 forward $105 $-1 #
coedge $-1 $171 $171 $106 $172 forward $166 $-1 #
edge $-1 $277 0 $277 6.2831853071796004 $171 $278 forward 7 unknown #
loop $-1 $-1 $178 $107 #
plane-surface $-1 -10.383236272751759 9.7973154075157041 100.37718629547973 0.80901700255871778 0 0.5877852410284794 0.5877852410284794 0 -0.80901700255871778 forward_v I I I I #
loop $-1 $-1 $279 $69 #
coedge $-1 $176 $176 $177 $280 reversed $108 $-1 #
coedge $-1 $177 $177 $176 $280 forward $110 $-1 #
coedge $-1 $178 $178 $111 $179 forward $173 $-1 #
edge $-1 $281 0 $281 6.2831853071796004 $178 $282 forward 7 unknown #
face $-1 $283 $284 $27 $-1 $285 reversed single #
loop $-1 $-1 $286 $112 #
plane-surface $-1 -59.139988402966395 0 0 1 0 0 0 0 -1 forward_v I I I I #
coedge $-1 $287 $191 $288 $289 forward $113 $-1 #
coedge $-1 $290 $115 $287 $291 forward $73 $-1 #
coedge $-1 $115 $290 $292 $293 forward $73 $-1 #
coedge $-1 $194 $193 $115 $187 reversed $195 $-1 #
edge $-1 $294 -28.60547472144092 $295 28.60547472144092 $186 $296 forward 7 unknown #
coedge $-1 $117 $116 $297 $298 forward $46 $-1 #
coedge $-1 $299 $300 $116 $190 reversed $284 $-1 #
edge $-1 $197 -59.139988402966395 $301 59.139988402966395 $189 $302 forward 7 unknown #
coedge $-1 $183 $303 $117 $192 reversed $113 $-1 #
edge $-1 $304 -59.139988402966395 $196 59.139988402966395 $191 $305 forward 7 unknown #
coedge $-1 $186 $118 $303 $306 forward $195 $-1 #
coedge $-1 $118 $186 $299 $307 reversed $195 $-1 #
loop $-1 $-1 $193 $283 #
vertex $-1 $119 $308 #
vertex $-1 $119 $309 #
straight-curve $-1 59.139988402966395 0 7.6984319065997679 0 1 0 I I #
face $-1 $310 $311 $28 $-1 $312 reversed single #
loop $-1 $-1 $313 $120 #
plane-surface $-1 -59.139988402966395 0 0 1 0 0 0 0 -1 forward_v I I I I #
coedge $-1 $314 $208 $213 $315 reversed $121 $-1 #
coedge $-1 $316 $123 $317 $318 reversed $77 $-1 #
coedge $-1 $123 $316 $314 $319 forward $77 $-1 #
coedge $-1 $213 $212 $123 $206 forward $214 $-1 #
edge $-1 $320 -15.983315360002075 $321 -9.2610033628756145 $205 $322 forward 7 unknown #
coedge $-1 $125 $124 $313 $323 reversed $49 $-1 #
coedge $-1 $202 $324 $124 $209 reversed $121 $-1 #
edge $-1 $215 -59.139988402966395 $325 59.139988402966395 $208 $326 forward 7 unknown #
coedge $-1 $327 $328 $125 $211 forward $311 $-1 #
edge $-1 $216 -59.139988402966395 $329 59.139988402966395 $210 $330 forward 7 unknown #
coedge $-1 $205 $126 $328 $331 forward $214 $-1 #
coedge $-1 $126 $205 $202 $315 forward $214 $-1 #
loop $-1 $-1 $126 $310 #
vertex $-1 $127 $332 #
vertex $-1 $331 $333 #
straight-curve $-1 59.139988402966395 -12.622159361438845 5.7049910840725806 0 -1 0 I I #
face $-1 $334 $335 $29 $-1 $336 reversed single #
loop $-1 $-1 $134 $128 #
plane-surface $-1 59.139988402966395 0 0 -1 0 0 0 0 1 forward_v I I I I #
coedge $-1 $337 $229 $338 $339 reversed $129 $-1 #
coedge $-1 $340 $131 $337 $341 forward $81 $-1 #
coedge $-1 $131 $340 $342 $343 reversed $81 $-1 #
coedge $-1 $232 $231 $131 $225 forward $219 $-1 #
edge $-1 $344 7.0614666609647578 $345 16.716494260639028 $224 $346 forward 7 unknown #
coedge $-1 $133 $132 $347 $348 reversed $52 $-1 #
coedge $-1 $349 $350 $132 $228 forward $351 $-1 #
edge $-1 $352 -59.139988402966395 $233 59.139988402966395 $227 $353 forward 7 unknown #
coedge $-1 $221 $354 $133 $230 reversed $129 $-1 #
edge $-1 $355 -59.139988402966395 $234 59.139988402966395 $229 $356 forward 7 unknown #
coedge $-1 $224 $134 $354 $357 forward $219 $-1 #
coedge $-1 $134 $224 $349 $358 reversed $219 $-1 #
vertex $-1 $358 $359 #
vertex $-1 $135 $360 #
straight-curve $-1 59.139988402966395 11.888980460801893 0.52587256781311087 0 -1 0 I I #
face $-1 $-1 $248 $30 $-1 $361 reversed single #
loop $-1 $-1 $362 $136 #
plane-surface $-1 0 0 7.6984319065997679 0 0 1 1 0 0 forward_v I I I I #
coedge $-1 $363 $364 $365 $366 reversed $137 $-1 #
coedge $-1 $367 $139 $141 $246 forward $85 $-1 #
coedge $-1 $139 $367 $363 $368 forward $85 $-1 #
coedge $-1 $365 $142 $139 $243 forward $248 $-1 #
edge $-1 $250 -9.7555196001351341 $369 -2.9745114099283789 $242 $370 forward 7 unknown #
coedge $-1 $371 $372 $140 $245 forward $237 $-1 #
edge $-1 $373 14.298180249070683 $249 16.486350390217069 $244 $374 forward 7 unknown #
edge $-1 $250 -118.27997680593279 $373 -114.55723933583636 $141 $375 forward 7 unknown #
coedge $-1 $142 $365 $371 $376 reversed $248 $-1 #
loop $-1 $-1 $365 $236 #
vertex $-1 $376 $377 #
vertex $-1 $143 $378 #
straight-curve $-1 59.139988402966395 -16.120535105166891 84.950205485598943 0 0 -1 I I #
coedge $-1 $252 $252 $-1 $379 reversed $146 $-1 #
edge $-1 $380 0 $380 6.2831853071796004 $147 $381 forward 7 unknown #
vertex $-1 $150 $382 #
ellipse-curve $-1 58.045903332393195 -14.183104193679247 6.1925529519145401 0.80901700255871778 0 0.5877852410284794 0.2938926205142397 0 -0.40450850127935889 1 I I #
coedge $-1 $256 $256 $-1 $383 reversed $153 $-1 #
edge $-1 $384 0 $384 6.2831853071796004 $154 $385 forward 7 unknown #
vertex $-1 $157 $386 #
ellipse-curve $-1 58.045903332393195 -11.276957826447781 6.1925529519145401 0.80901700255871778 0 0.5877852410284794 0.2938926205142397 0 -0.40450850127935889 1 I I #
face $-1 $-1 $387 $33 $-1 $388 forward single #
loop $-1 $-1 $164 $158 #
plane-surface $-1 59.139988402966395 0 0 -1 0 0 0 0 1 forward_v I I I I #
coedge $-1 $389 $390 $391 $392 reversed $159 $-1 #
coedge $-1 $393 $161 $163 $270 forward $99 $-1 #
coedge $-1 $161 $393 $389 $394 forward $99 $-1 #
coedge $-1 $391 $164 $161 $267 forward $261 $-1 #
edge $-1 $273 1.5081536086544736 $395 8.2891617988612296 $266 $396 forward 7 unknown #
coedge $-1 $397 $398 $162 $269 forward $387 $-1 #
edge $-1 $399 14.298180249070683 $272 16.486350390217069 $268 $400 forward 7 unknown #
edge $-1 $273 -118.27997680593279 $399 -114.55723933583636 $163 $401 forward 7 unknown #
coedge $-1 $164 $391 $397 $402 reversed $261 $-1 #
vertex $-1 $402 $403 #
vertex $-1 $165 $404 #
straight-curve $-1 59.139988402966395 6.4068113124123256 84.950205485598943 0 0 -1 I I #
coedge $-1 $275 $275 $-1 $405 reversed $168 $-1 #
edge $-1 $406 0 $406 6.2831853071796004 $169 $407 forward 7 unknown #
vertex $-1 $172 $408 #
ellipse-curve $-1 58.045903332393195 8.3442422238999754 6.1925529519145401 0.80901700255871778 0 0.5877852410284794 0.2938926205142397 0 -0.40450850127935889 1 I I #
coedge $-1 $279 $279 $-1 $409 reversed $175 $-1 #
edge $-1 $410 0 $410 6.2831853071796004 $176 $411 forward 7 unknown #
vertex $-1 $179 $412 #
ellipse-curve $-1 58.045903332393195 11.25038859113144 6.1925529519145401 0.80901700255871778 0 0.5877852410284794 0.2938926205142397 0 -0.40450850127935889 1 I I #
face $-1 $-1 $195 $27 $-1 $413 reversed single #
loop $-1 $-1 $299 $180 #
plane-surface $-1 0 28.60547472144092 0 0 -1 0 0 0 -1 forward_v I I I I #
coedge $-1 $414 $297 $300 $415 forward $181 $-1 #
coedge $-1 $303 $183 $184 $291 reversed $113 $-1 #
coedge $-1 $297 $414 $183 $289 reversed $181 $-1 #
edge $-1 $304 -7.6984319065997679 $416 7.6984319065997679 $288 $417 forward 7 unknown #
coedge $-1 $185 $184 $414 $418 forward $73 $-1 #
edge $-1 $295 -59.139988402966395 $416 59.139988402966395 $287 $419 forward 7 unknown #
coedge $-1 $300 $299 $185 $293 reversed $284 $-1 #
edge $-1 $420 -59.139988402966395 $294 59.139988402966395 $292 $421 forward 7 unknown #
vertex $-1 $187 $422 #
vertex $-1 $306 $423 #
straight-curve $-1 59.139988402966395 0 -7.6984319065997679 0 -1 0 I I #
coedge $-1 $286 $288 $188 $298 reversed $181 $-1 #
edge $-1 $301 -28.60547472144092 $304 28.60547472144092 $297 $424 forward 7 unknown #
coedge $-1 $292 $189 $194 $307 forward $284 $-1 #
coedge $-1 $189 $292 $286 $415 reversed $284 $-1 #
vertex $-1 $190 $425 #
straight-curve $-1 0 28.60547472144092 7.6984319065997679 -1 0 0 I I #
coedge $-1 $191 $287 $193 $306 reversed $113 $-1 #
vertex $-1 $298 $426 #
straight-curve $-1 0 -28.60547472144092 7.6984319065997679 1 0 0 I I #
edge $-1 $196 -7.6984319065997679 $295 7.6984319065997679 $193 $427 forward 7 unknown #
edge $-1 $197 -7.6984319065997679 $294 7.6984319065997679 $194 $428 forward 7 unknown #
point $-1 59.139988402966395 -28.60547472144092 7.6984319065997679 #
point $-1 59.139988402966395 28.60547472144092 7.6984319065997679 #
face $-1 $-1 $214 $28 $-1 $429 reversed single #
loop $-1 $-1 $210 $199 #
plane-surface $-1 0 -28.60547472144092 0 0 1 0 0 0 1 forward_v I I I I #
coedge $-1 $430 $431 $207 $323 forward $200 $-1 #
coedge $-1 $324 $202 $204 $319 reversed $121 $-1 #
edge $-1 $321 0.6024955420362903 $215 3.6024955420362903 $213 $432 forward 7 unknown #
coedge $-1 $204 $203 $433 $434 reversed $77 $-1 #
coedge $-1 $328 $327 $203 $318 forward $311 $-1 #
edge $-1 $435 -59.139988402966395 $320 59.139988402966395 $317 $436 forward 7 unknown #
edge $-1 $437 -59.139988402966395 $321 59.139988402966395 $314 $438 forward 7 unknown #
vertex $-1 $318 $439 #
vertex $-1 $206 $440 #
straight-curve $-1 59.139988402966395 -12.622159361438845 2.7049910840725806 0 1 0 I I #
edge $-1 $329 -15.983315360002075 $325 -9.2610033628756145 $313 $441 forward 7 unknown #
coedge $-1 $208 $314 $430 $442 reversed $121 $-1 #
vertex $-1 $323 $443 #
straight-curve $-1 0 -21.88316272431446 5.7049910840725806 -1 0 0 I I #
coedge $-1 $317 $210 $431 $444 forward $311 $-1 #
coedge $-1 $210 $317 $212 $331 reversed $311 $-1 #
vertex $-1 $444 $445 #
straight-curve $-1 0 -28.60547472144092 5.7049910840725806 -1 0 0 I I #
edge $-1 $216 -5.7049910840725806 $320 -2.7049910840725806 $212 $446 forward 7 unknown #
point $-1 59.139988402966395 -21.88316272431446 5.7049910840725806 #
point $-1 59.139988402966395 -28.60547472144092 5.7049910840725806 #
face $-1 $-1 $351 $29 $-1 $447 reversed single #
loop $-1 $-1 $347 $218 #
plane-surface $-1 -59.139988402966395 0 0 1 0 0 0 0 -1 forward_v I I I I #
coedge $-1 $354 $221 $222 $341 reversed $129 $-1 #
coedge $-1 $347 $448 $221 $339 forward $335 $-1 #
edge $-1 $449 -2.0705224024166831 $355 1.0407558460143016 $338 $450 forward 7 unknown #
coedge $-1 $223 $222 $448 $451 reversed $81 $-1 #
edge $-1 $344 -59.139988402966395 $449 59.139988402966395 $337 $452 forward 7 unknown #
coedge $-1 $350 $349 $223 $343 forward $351 $-1 #
edge $-1 $345 -59.139988402966395 $453 59.139988402966395 $342 $454 forward 7 unknown #
vertex $-1 $225 $455 #
vertex $-1 $343 $456 #
straight-curve $-1 59.139988402966395 11.888980460801893 -2.5854056806178738 0 1 0 I I #
coedge $-1 $457 $338 $226 $348 forward $335 $-1 #
edge $-1 $355 7.0614666609647578 $352 16.716494260639028 $347 $458 forward 7 unknown #
coedge $-1 $342 $227 $232 $358 forward $351 $-1 #
coedge $-1 $227 $342 $457 $459 reversed $351 $-1 #
loop $-1 $-1 $227 $334 #
vertex $-1 $459 $460 #
straight-curve $-1 0 28.60547472144092 0.52587256781311087 1 0 0 I I #
coedge $-1 $229 $337 $231 $357 reversed $129 $-1 #
vertex $-1 $348 $461 #
straight-curve $-1 0 18.950447121766651 0.52587256781311087 1 0 0 I I #
edge $-1 $234 -1.0407558460143016 $344 2.0705224024166831 $231 $462 forward 7 unknown #
edge $-1 $233 -0.52587256781311087 $345 2.5854056806178738 $232 $463 forward 7 unknown #
point $-1 59.139988402966395 28.60547472144092 0.52587256781311087 #
point $-1 59.139988402966395 18.950447121766651 0.52587256781311087 #
plane-surface $-1 59.139988402966395 0 0 -1 0 0 0 0 1 forward_v I I I I #
coedge $-1 $372 $371 $364 $464 forward $237 $-1 #
coedge $-1 $364 $239 $241 $368 reversed $137 $-1 #
coedge $-1 $239 $363 $362 $464 reversed $137 $-1 #
coedge $-1 $247 $242 $239 $366 forward $248 $-1 #
edge $-1 $369 -80.263531488369622 $465 -77.251773578999178 $365 $466 forward 7 unknown #
coedge $-1 $241 $240 $372 $467 reversed $85 $-1 #
edge $-1 $468 114.55723933583636 $369 118.27997680593279 $363 $469 forward 7 unknown #
vertex $-1 $243 $470 #
straight-curve $-1 59.139988402966395 -6.3650155050317565 4.6866739972293203 0 1 0 I I #
coedge $-1 $362 $244 $247 $376 forward $237 $-1 #
coedge $-1 $244 $362 $367 $467 forward $237 $-1 #
vertex $-1 $245 $471 #
straight-curve $-1 42.653638012749326 -16.120535105166891 7.6984319065997653 1 0 0 I I #
straight-curve $-1 -10.383236272751759 -16.120535105166891 100.37718629547973 -0.5877852410284794 0 0.80901700255871778 I I #
edge $-1 $249 -16.120535105166891 $465 -9.3395269149601354 $247 $472 forward 7 unknown #
point $-1 59.139988402966395 -16.120535105166891 7.6984319065997679 #
point $-1 59.139988402966395 -16.120535105166891 4.6866739972293203 #
edge $-1 $473 1 $473 0 $252 $-1 forward 7 unknown #
vertex $-1 $253 $474 #
ellipse-curve $-1 57.203122764326544 -14.183104193679247 5.5802370453656884 0.80901700255871778 0 0.5877852410284794 0.2938926205142397 0 -0.40450850127935889 1 I I #
point $-1 58.339795952907458 -14.183104193679247 5.7880444506351942 #
edge $-1 $475 1 $475 0 $256 $-1 forward 7 unknown #
vertex $-1 $257 $476 #
ellipse-curve $-1 57.203122764326544 -11.276957826447781 5.5802370453656884 0.80901700255871778 0 0.5877852410284794 0.2938926205142397 0 -0.40450850127935889 1 I I #
point $-1 58.339795952907458 -11.276957826447781 5.7880444506351942 #
loop $-1 $-1 $268 $260 #
plane-surface $-1 0 0 7.6984319065997679 0 0 1 1 0 0 forward_v I I I I #
coedge $-1 $390 $263 $265 $394 reversed $159 $-1 #
coedge $-1 $263 $389 $477 $478 reversed $159 $-1 #
coedge $-1 $271 $266 $263 $392 forward $261 $-1 #
edge $-1 $395 -80.263531488369622 $479 -77.251773578999178 $391 $480 forward 7 unknown #
coedge $-1 $265 $264 $398 $481 reversed $99 $-1 #
edge $-1 $482 114.55723933583636 $395 118.27997680593279 $389 $483 forward 7 unknown #
vertex $-1 $267 $484 #
straight-curve $-1 59.139988402966395 4.898657703757852 4.6866739972293203 0 1 0 I I #
coedge $-1 $477 $268 $271 $402 forward $387 $-1 #
coedge $-1 $268 $477 $393 $481 forward $387 $-1 #
vertex $-1 $269 $485 #
straight-curve $-1 42.653638012749326 6.4068113124123256 7.6984319065997653 1 0 0 I I #
straight-curve $-1 -10.383236272751759 6.4068113124123256 100.37718629547973 -0.5877852410284794 0 0.80901700255871778 I I #
edge $-1 $272 6.4068113124123256 $479 13.187819502619082 $271 $486 forward 7 unknown #
point $-1 59.139988402966395 6.4068113124123256 7.6984319065997679 #
point $-1 59.139988402966395 6.4068113124123256 4.6866739972293203 #
edge $-1 $487 1 $487 0 $275 $-1 forward 7 unknown #
vertex $-1 $276 $488 #
ellipse-curve $-1 57.203122764326544 8.3442422238999754 5.5802370453656884 0.80901700255871778 0 0.5877852410284794 0.2938926205142397 0 -0.40450850127935889 1 I I #
point $-1 58.339795952907458 8.3442422238999754 5.7880444506351942 #
edge $-1 $489 1 $489 0 $279 $-1 forward 7 unknown #
vertex $-1 $280 $490 #
ellipse-curve $-1 57.203122764326544 11.25038859113144 5.5802370453656884 0.80901700255871778 0 0.5877852410284794 0.2938926205142397 0 -0.40450850127935889 1 I I #
point $-1 58.339795952907458 11.25038859113144 5.7880444506351942 #
plane-surface $-1 59.139988402966395 0 0 -1 0 0 0 0 1 forward_v I I I I #
coedge $-1 $288 $286 $290 $418 reversed $181 $-1 #
edge $-1 $301 -7.6984319065997679 $420 7.6984319065997679 $300 $491 forward 7 unknown #
vertex $-1 $418 $492 #
straight-curve $-1 -59.139988402966395 -28.60547472144092 0 0 0 -1 I I #
edge $-1 $416 -28.60547472144092 $420 28.60547472144092 $414 $493 forward 7 unknown #
straight-curve $-1 0 -28.60547472144092 -7.6984319065997679 -1 0 0 I I #
vertex $-1 $293 $494 #
straight-curve $-1 0 28.60547472144092 -7.6984319065997679 1 0 0 I I #
point $-1 59.139988402966395 28.60547472144092 -7.6984319065997679 #
point $-1 59.139988402966395 -28.60547472144092 -7.6984319065997679 #
straight-curve $-1 -59.139988402966395 0 7.6984319065997679 0 -1 0 I I #
point $-1 -59.139988402966395 28.60547472144092 7.6984319065997679 #
point $-1 -59.139988402966395 -28.60547472144092 7.6984319065997679 #
straight-curve $-1 59.139988402966395 -28.60547472144092 0 0 0 -1 I I #
straight-curve $-1 59.139988402966395 28.60547472144092 0 0 0 -1 I I #
plane-surface $-1 59.139988402966395 0 0 -1 0 0 0 0 1 forward_v I I I I #
coedge $-1 $433 $313 $324 $442 forward $200 $-1 #
coedge $-1 $313 $433 $327 $444 reversed $200 $-1 #
straight-curve $-1 59.139988402966395 -21.88316272431446 2.1024955420362903 0 0 1 I I #
coedge $-1 $431 $430 $316 $434 forward $200 $-1 #
edge $-1 $437 9.2610033628756145 $435 15.983315360002075 $433 $495 forward 7 unknown #
vertex $-1 $318 $496 #
straight-curve $-1 0 -28.60547472144092 2.7049910840725806 1 0 0 I I #
vertex $-1 $434 $497 #
straight-curve $-1 0 -21.88316272431446 2.7049910840725806 1 0 0 I I #
point $-1 59.139988402966395 -28.60547472144092 2.7049910840725806 #
point $-1 59.139988402966395 -21.88316272431446 2.7049910840725806 #
straight-curve $-1 -59.139988402966395 -12.622159361438845 5.7049910840725806 0 1 0 I I #
edge $-1 $325 -3.6024955420362903 $437 -0.6024955420362903 $430 $498 forward 7 unknown #
point $-1 -59.139988402966395 -21.88316272431446 5.7049910840725806 #
edge $-1 $329 -5.7049910840725806 $435 -2.7049910840725806 $431 $499 forward 7 unknown #
point $-1 -59.139988402966395 -28.60547472144092 5.7049910840725806 #
straight-curve $-1 59.139988402966395 -28.60547472144092 0 0 0 -1 I I #
plane-surface $-1 0 28.60547472144092 0 0 -1 0 0 0 -1 forward_v I I I I #
coedge $-1 $338 $457 $340 $451 forward $335 $-1 #
vertex $-1 $451 $500 #
straight-curve $-1 -59.139988402966395 18.950447121766651 -0.51488327820119073 0 0 1 I I #
edge $-1 $453 -16.716494260639028 $449 -7.0614666609647578 $448 $501 forward 7 unknown #
straight-curve $-1 0 18.950447121766651 -2.5854056806178738 -1 0 0 I I #
vertex $-1 $343 $502 #
straight-curve $-1 0 28.60547472144092 -2.5854056806178738 -1 0 0 I I #
point $-1 59.139988402966395 18.950447121766651 -2.5854056806178738 #
point $-1 59.139988402966395 28.60547472144092 -2.5854056806178738 #
coedge $-1 $448 $347 $350 $459 forward $335 $-1 #
straight-curve $-1 -59.139988402966395 11.888980460801893 0.52587256781311087 0 1 0 I I #
edge $-1 $352 -0.52587256781311087 $453 2.5854056806178738 $350 $503 forward 7 unknown #
point $-1 -59.139988402966395 28.60547472144092 0.52587256781311087 #
point $-1 -59.139988402966395 18.950447121766651 0.52587256781311087 #
straight-curve $-1 59.139988402966395 18.950447121766651 -0.51488327820119073 0 0 -1 I I #
straight-curve $-1 59.139988402966395 28.60547472144092 0 0 0 -1 I I #
edge $-1 $465 -16.486350390217069 $468 -14.298180249070683 $362 $504 forward 7 unknown #
vertex $-1 $464 $505 #
straight-curve $-1 59.139988402966395 -9.3395269149601354 84.950205485598943 0 0 1 I I #
edge $-1 $468 2.9745114099283789 $373 9.7555196001351341 $372 $506 forward 7 unknown #
vertex $-1 $467 $507 #
straight-curve $-1 -10.383236272751759 -9.3395269149601354 100.37718629547973 0.5877852410284794 0 -0.80901700255871778 I I #
point $-1 59.139988402966395 -9.3395269149601354 4.6866739972293203 #
point $-1 56.951818261820009 -16.120535105166891 7.6984319065997653 #
straight-curve $-1 59.139988402966395 0 7.6984319065997679 0 1 0 I I #
vertex $-1 $379 $508 #
point $-1 57.497015384840786 -14.183104193679247 5.1757285440863292 #
vertex $-1 $383 $509 #
point $-1 57.497015384840786 -11.276957826447781 5.1757285440863292 #
coedge $-1 $398 $397 $390 $478 forward $387 $-1 #
edge $-1 $479 -16.486350390217069 $482 -14.298180249070683 $477 $510 forward 7 unknown #
vertex $-1 $478 $511 #
straight-curve $-1 59.139988402966395 13.187819502619082 84.950205485598943 0 0 1 I I #
edge $-1 $482 -8.2891617988612296 $399 -1.5081536086544736 $398 $512 forward 7 unknown #
vertex $-1 $481 $513 #
straight-curve $-1 -10.383236272751759 13.187819502619082 100.37718629547973 0.5877852410284794 0 -0.80901700255871778 I I #
point $-1 59.139988402966395 13.187819502619082 4.6866739972293203 #
point $-1 56.951818261820009 6.4068113124123256 7.6984319065997653 #
straight-curve $-1 59.139988402966395 0 7.6984319065997679 0 1 0 I I #
vertex $-1 $405 $514 #
point $-1 57.497015384840786 8.3442422238999754 5.1757285440863292 #
vertex $-1 $409 $515 #
point $-1 57.497015384840786 11.25038859113144 5.1757285440863292 #
straight-curve $-1 -59.139988402966395 28.60547472144092 0 0 0 -1 I I #
point $-1 -59.139988402966395 -28.60547472144092 -7.6984319065997679 #
straight-curve $-1 -59.139988402966395 0 -7.6984319065997679 0 1 0 I I #
point $-1 -59.139988402966395 28.60547472144092 -7.6984319065997679 #
straight-curve $-1 -59.139988402966395 -12.622159361438845 2.7049910840725806 0 -1 0 I I #
point $-1 -59.139988402966395 -28.60547472144092 2.7049910840725806 #
point $-1 -59.139988402966395 -21.88316272431446 2.7049910840725806 #
straight-curve $-1 -59.139988402966395 -21.88316272431446 2.1024955420362903 0 0 -1 I I #
straight-curve $-1 -59.139988402966395 -28.60547472144092 0 0 0 -1 I I #
point $-1 -59.139988402966395 18.950447121766651 -2.5854056806178738 #
straight-curve $-1 -59.139988402966395 11.888980460801893 -2.5854056806178738 0 -1 0 I I #
point $-1 -59.139988402966395 28.60547472144092 -2.5854056806178738 #
straight-curve $-1 -59.139988402966395 28.60547472144092 0 0 0 -1 I I #
straight-curve $-1 42.653638012749326 -9.3395269149601354 7.6984319065997653 -1 0 0 I I #
point $-1 59.139988402966395 -9.3395269149601354 7.6984319065997679 #
straight-curve $-1 56.951818261820009 -6.3650155050317565 7.6984319065997724 0 -1 0 I I #
point $-1 56.951818261820009 -9.3395269149601354 7.6984319065997653 #
point $-1 56.798614263047192 -14.183104193679247 5.286344424851448 #
point $-1 56.798614263047192 -11.276957826447781 5.286344424851448 #
straight-curve $-1 42.653638012749326 13.187819502619082 7.6984319065997653 -1 0 0 I I #
point $-1 59.139988402966395 13.187819502619082 7.6984319065997679 #
straight-curve $-1 56.951818261820009 4.898657703757852 7.6984319065997724 0 -1 0 I I #
point $-1 56.951818261820009 13.187819502619082 7.6984319065997653 #
point $-1 56.798614263047192 8.3442422238999754 5.286344424851448 #
point $-1 56.798614263047192 11.25038859113144 5.286344424851448 #
End-of-ACIS-data 