500 0 15 0           
7 Unknown 11 ACIS 5.0 NT 24 Fri Mar 26 15:40:49 1999 
-1 9.9999999999999995e-007 1e-010 
body $-1 $15 $-1 $16 #
body $-1 $17 $-1 $18 #
body $-1 $19 $-1 $20 #
body $-1 $21 $-1 $22 #
body $-1 $23 $-1 $24 #
body $-1 $25 $-1 $26 #
body $-1 $27 $-1 $28 #
body $-1 $29 $-1 $30 #
body $-1 $31 $-1 $32 #
body $-1 $33 $-1 $34 #
body $-1 $35 $-1 $36 #
body $-1 $37 $-1 $38 #
body $-1 $39 $-1 $40 #
body $-1 $41 $-1 $42 #
body $-1 $43 $-1 $44 #
lump $-1 $-1 $45 $0 #
transform $-1 1 0 0 0 1 0 0 0 1 49.880672627948854 27.168807539904606 12.695885011452539 1 rotate no_reflect no_shear #
lump $-1 $-1 $46 $1 #
transform $-1 1 0 0 0 1 0 0 0 1 49.880672627948854 27.168807539904606 12.695885011452539 1 rotate no_reflect no_shear #
lump $-1 $-1 $47 $2 #
transform $-1 1 0 0 0 1 0 0 0 1 49.880672627948854 27.168807539904606 12.695885011452539 1 rotate no_reflect no_shear #
lump $-1 $-1 $48 $3 #
transform $-1 1 0 0 0 1 0 0 0 1 49.880672627948854 27.168807539904606 12.695885011452539 1 rotate no_reflect no_shear #
lump $-1 $-1 $49 $4 #
transform $-1 1 0 0 0 1 0 0 0 1 49.880672627948854 27.168807539904606 12.695885011452539 1 rotate no_reflect no_shear #
lump $-1 $-1 $50 $5 #
transform $-1 1 0 0 0 1 0 0 0 1 49.880672627948854 27.168807539904606 12.695885011452539 1 rotate no_reflect no_shear #
lump $-1 $-1 $51 $6 #
transform $-1 1 0 0 0 1 0 0 0 1 49.880672627948854 27.168807539904606 12.695885011452539 1 rotate no_reflect no_shear #
lump $-1 $-1 $52 $7 #
transform $-1 1 0 0 0 1 0 0 0 1 49.880672627948854 27.168807539904606 12.695885011452539 1 rotate no_reflect no_shear #
lump $-1 $-1 $53 $8 #
transform $-1 1 0 0 0 1 0 0 0 1 49.880672627948854 27.168807539904606 12.695885011452539 1 rotate no_reflect no_shear #
lump $-1 $-1 $54 $9 #
transform $-1 1 0 0 0 1 0 0 0 1 49.880672627948854 27.168807539904606 12.695885011452539 1 rotate no_reflect no_shear #
lump $-1 $-1 $55 $10 #
transform $-1 1 0 0 0 1 0 0 0 1 49.880672627948854 27.168807539904606 12.695885011452539 1 rotate no_reflect no_shear #
lump $-1 $-1 $56 $11 #
transform $-1 1 0 0 0 1 0 0 0 1 49.880672627948854 27.168807539904606 12.695885011452539 1 rotate no_reflect no_shear #
lump $-1 $-1 $57 $12 #
transform $-1 1 0 0 0 1 0 0 0 1 49.880672627948854 27.168807539904606 12.695885011452539 1 rotate no_reflect no_shear #
lump $-1 $-1 $58 $13 #
transform $-1 1 0 0 0 1 0 0 0 1 49.880672627948854 27.168807539904606 12.695885011452539 1 rotate no_reflect no_shear #
lump $-1 $-1 $59 $14 #
transform $-1 1 0 0 0 1 0 0 0 1 49.880672627948854 27.168807539904606 12.695885011452539 1 rotate no_reflect no_shear #
shell $-1 $-1 $-1 $60 $-1 $15 #
shell $-1 $-1 $-1 $61 $-1 $17 #
shell $-1 $-1 $-1 $62 $-1 $19 #
shell $-1 $-1 $-1 $63 $-1 $21 #
shell $-1 $-1 $-1 $64 $-1 $23 #
shell $-1 $-1 $-1 $65 $-1 $25 #
shell $-1 $-1 $-1 $66 $-1 $27 #
shell $-1 $-1 $-1 $67 $-1 $29 #
shell $-1 $-1 $-1 $68 $-1 $31 #
shell $-1 $-1 $-1 $69 $-1 $33 #
shell $-1 $-1 $-1 $70 $-1 $35 #
shell $-1 $-1 $-1 $71 $-1 $37 #
shell $-1 $-1 $-1 $72 $-1 $39 #
shell $-1 $-1 $-1 $73 $-1 $41 #
shell $-1 $-1 $-1 $74 $-1 $43 #
face $-1 $75 $76 $45 $-1 $77 forward single #
face $-1 $78 $79 $46 $-1 $80 forward single #
face $-1 $81 $82 $47 $-1 $83 forward single #
face $-1 $84 $85 $48 $-1 $86 reversed single #
face $-1 $87 $88 $49 $-1 $89 forward single #
face $-1 $90 $91 $50 $-1 $92 forward single #
face $-1 $93 $94 $51 $-1 $95 reversed single #
face $-1 $96 $97 $52 $-1 $98 forward single #
face $-1 $99 $100 $53 $-1 $101 forward single #
face $-1 $102 $103 $54 $-1 $104 reversed single #
face $-1 $105 $106 $55 $-1 $107 forward single #
face $-1 $108 $109 $56 $-1 $110 forward single #
face $-1 $111 $112 $57 $-1 $113 reversed single #
face $-1 $114 $115 $58 $-1 $116 forward single #
face $-1 $117 $118 $59 $-1 $119 forward single #
face $-1 $120 $121 $45 $-1 $122 reversed single #
loop $-1 $-1 $123 $60 #
plane-surface $-1 0 0 12.695885011452539 0 0 1 1 0 0 forward_v I I I I #
face $-1 $124 $125 $46 $-1 $126 reversed single #
loop $-1 $-1 $127 $61 #
plane-surface $-1 0 -20.039882319149974 4.3001903177594949 0 0 1 1 0 0 forward_v I I I I #
face $-1 $128 $129 $47 $-1 $130 reversed single #
loop $-1 $-1 $131 $62 #
plane-surface $-1 0 20.039882319149974 4.3001903177594949 0 0 1 1 0 0 forward_v I I I I #
face $-1 $132 $133 $48 $-1 $134 reversed single #
loop $-1 $-1 $135 $63 #
plane-surface $-1 54.804429605850444 5.4875046740785471 149.87738892356725 0 1 0 0.73135370988377701 0 0.68199835119979291 forward_v I I I I #
face $-1 $136 $137 $49 $-1 $138 forward single #
loop $-1 $139 $140 $64 #
cone-surface $-1 47.403524526540529 7.6084910810262016 10.137048000698043 -0.73135370988377701 0 -0.68199835119979291 0.34099917559989645 0 -0.36567685494188851 1 I I 0 1 0.5 forward I I I I #
face $-1 $141 $142 $50 $-1 $143 forward single #
loop $-1 $144 $145 $65 #
cone-surface $-1 47.403524526540529 10.789970691447685 10.137048000698043 -0.73135370988377701 0 -0.68199835119979291 0.34099917559989645 0 -0.36567685494188851 1 I I 0 1 0.5 forward I I I I #
face $-1 $146 $147 $51 $-1 $148 reversed single #
loop $-1 $-1 $149 $66 #
plane-surface $-1 -120.42259717715285 -4.3036523661317858 71.450939873091158 0 -1 0 0.70710678939079041 0 -0.70710677298230451 forward_v I I I I #
face $-1 $150 $151 $52 $-1 $152 forward single #
loop $-1 $153 $154 $67 #
cone-surface $-1 -43.633685344694825 -8.2722943932531621 6.4488975996450124 0.70710678939079041 0 -0.70710677298230451 0.17677669324557613 0 0.1767766973476976 1 I I 0 1 0.25 forward I I I I #
face $-1 $155 $156 $53 $-1 $157 forward single #
loop $-1 $158 $159 $68 #
cone-surface $-1 -43.633685344694825 -5.8911091769803363 6.4488975996450124 0.70710678939079041 0 -0.70710677298230451 0.17677669324557613 0 0.1767766973476976 1 I I 0 1 0.25 forward I I I I #
face $-1 $160 $161 $54 $-1 $162 reversed single #
loop $-1 $-1 $163 $69 #
plane-surface $-1 -120.42259717715285 4.3036523661317787 71.450939873091158 0 -1 0 0.70710678939079041 0 -0.70710677298230451 forward_v I I I I #
face $-1 $164 $165 $55 $-1 $166 forward single #
loop $-1 $167 $168 $70 #
cone-surface $-1 -43.633685344694825 0.33501033901040245 6.4488975996450124 0.70710678939079041 0 -0.70710677298230451 0.17677669324557613 0 0.1767766973476976 1 I I 0 1 0.25 forward I I I I #
face $-1 $169 $170 $56 $-1 $171 forward single #
loop $-1 $172 $173 $71 #
cone-surface $-1 -43.633685344694825 2.7161955552832282 6.4488975996450124 0.70710678939079041 0 -0.70710677298230451 0.17677669324557613 0 0.1767766973476976 1 I I 0 1 0.25 forward I I I I #
face $-1 $174 $175 $57 $-1 $176 reversed single #
loop $-1 $-1 $177 $72 #
plane-surface $-1 -49.880672627948869 10.13290767941038 0.90901696081979821 -0.70710678939079041 0 0.70710677298230451 0.70710677298230451 0 0.70710678939079041 forward_v I I I I #
face $-1 $178 $179 $58 $-1 $180 forward single #
loop $-1 $181 $182 $73 #
cone-surface $-1 -43.633685344694825 8.942315071273967 6.4488975996450124 0.70710678939079041 0 -0.70710677298230451 0.17677669324557613 0 0.1767766973476976 1 I I 0 1 0.25 forward I I I I #
face $-1 $183 $184 $59 $-1 $185 forward single #
loop $-1 $186 $187 $74 #
cone-surface $-1 -43.633685344694825 11.323500287546793 6.4488975996450124 0.70710678939079041 0 -0.70710677298230451 0.17677669324557613 0 0.1767766973476976 1 I I 0 1 0.25 forward I I I I #
face $-1 $188 $189 $45 $-1 $190 reversed single #
loop $-1 $-1 $191 $75 #
plane-surface $-1 0 0 -12.695885011452539 0 0 1 1 0 0 forward_v I I I I #
coedge $-1 $192 $193 $194 $195 forward $76 $-1 #
face $-1 $196 $197 $46 $-1 $198 reversed single #
loop $-1 $-1 $199 $78 #
plane-surface $-1 0 -20.039882319149974 -2.1777448458647308 0 0 1 1 0 0 forward_v I I I I #
coedge $-1 $200 $201 $202 $203 reversed $79 $-1 #
face $-1 $204 $205 $47 $-1 $206 reversed single #
loop $-1 $-1 $207 $81 #
plane-surface $-1 0 20.039882319149974 -2.1777448458647308 0 0 1 1 0 0 forward_v I I I I #
coedge $-1 $208 $209 $210 $211 reversed $82 $-1 #
face $-1 $212 $213 $48 $-1 $214 reversed single #
loop $-1 $-1 $215 $84 #
plane-surface $-1 -18.156400350046681 9.199230886236947 81.840315945571732 0.73135370988377701 0 0.68199835119979291 0.68199835119979291 0 -0.73135370988377701 forward_v I I I I #
coedge $-1 $216 $217 $218 $219 reversed $85 $-1 #
face $-1 $-1 $220 $49 $-1 $221 forward single #
loop $-1 $222 $223 $87 #
cone-surface $-1 46.522962785693494 7.6084910810262016 9.3159109130325817 -0.73135370988377701 0 -0.68199835119979291 0.17049958779994823 0 -0.18283842747094425 1 I I -0.70710678118654746 0.70710678118654746 0.25 forward I I I I #
loop $-1 $-1 $224 $64 #
coedge $-1 $140 $140 $225 $226 reversed $88 $-1 #
face $-1 $-1 $227 $50 $-1 $228 forward single #
loop $-1 $229 $230 $90 #
cone-surface $-1 46.522962785693494 10.789970691447685 9.3159109130325817 -0.73135370988377701 0 -0.68199835119979291 0.17049958779994823 0 -0.18283842747094425 1 I I -0.70710678118654746 0.70710678118654746 0.25 forward I I I I #
loop $-1 $-1 $231 $65 #
coedge $-1 $145 $145 $232 $233 reversed $91 $-1 #
face $-1 $234 $235 $51 $-1 $236 reversed single #
loop $-1 $-1 $237 $93 #
plane-surface $-1 -49.880672627948869 -7.0817017851167492 0.90901696081979821 -0.70710678939079041 0 0.70710677298230451 0.70710677298230451 0 0.70710678939079041 forward_v I I I I #
coedge $-1 $238 $239 $240 $241 reversed $94 $-1 #
face $-1 $-1 $242 $52 $-1 $243 forward single #
loop $-1 $244 $245 $96 #
cone-surface $-1 -43.191743601325584 -8.2722943932531621 6.0069558665310723 0.70710678939079041 0 -0.70710677298230451 0.088388346622788064 0 0.088388348673848802 1 I I -0.70710678118654746 0.70710678118654746 0.125 forward I I I I #
loop $-1 $-1 $246 $67 #
coedge $-1 $154 $154 $247 $248 reversed $97 $-1 #
face $-1 $-1 $249 $53 $-1 $250 forward single #
loop $-1 $251 $252 $99 #
cone-surface $-1 -43.191743601325584 -5.8911091769803363 6.0069558665310723 0.70710678939079041 0 -0.70710677298230451 0.088388346622788064 0 0.088388348673848802 1 I I -0.70710678118654746 0.70710678118654746 0.125 forward I I I I #
loop $-1 $-1 $253 $68 #
coedge $-1 $159 $159 $254 $255 reversed $100 $-1 #
face $-1 $256 $257 $54 $-1 $258 reversed single #
loop $-1 $-1 $259 $102 #
plane-surface $-1 -49.880672627948869 1.5256029471468153 0.90901696081979821 -0.70710678939079041 0 0.70710677298230451 0.70710677298230451 0 0.70710678939079041 forward_v I I I I #
coedge $-1 $260 $261 $262 $263 reversed $103 $-1 #
face $-1 $-1 $264 $55 $-1 $265 forward single #
loop $-1 $266 $267 $105 #
cone-surface $-1 -43.191743601325584 0.33501033901040245 6.0069558665310723 0.70710678939079041 0 -0.70710677298230451 0.088388346622788064 0 0.088388348673848802 1 I I -0.70710678118654746 0.70710678118654746 0.125 forward I I I I #
loop $-1 $-1 $268 $70 #
coedge $-1 $168 $168 $269 $270 reversed $106 $-1 #
face $-1 $-1 $271 $56 $-1 $272 forward single #
loop $-1 $273 $274 $108 #
cone-surface $-1 -43.191743601325584 2.7161955552832282 6.0069558665310723 0.70710678939079041 0 -0.70710677298230451 0.088388346622788064 0 0.088388348673848802 1 I I -0.70710678118654746 0.70710678118654746 0.125 forward I I I I #
loop $-1 $-1 $275 $71 #
coedge $-1 $173 $173 $276 $277 reversed $109 $-1 #
face $-1 $278 $279 $57 $-1 $280 reversed single #
loop $-1 $-1 $281 $111 #
plane-surface $-1 -120.42259717715285 7.3548582604254165 71.450939873091158 0 1 0 -0.70710678939079041 0 0.70710677298230451 forward_v I I I I #
coedge $-1 $282 $283 $284 $285 reversed $112 $-1 #
face $-1 $-1 $286 $58 $-1 $287 forward single #
loop $-1 $288 $289 $114 #
cone-surface $-1 -43.191743601325584 8.942315071273967 6.0069558665310723 0.70710678939079041 0 -0.70710677298230451 0.088388346622788064 0 0.088388348673848802 1 I I -0.70710678118654746 0.70710678118654746 0.125 forward I I I I #
loop $-1 $-1 $290 $73 #
coedge $-1 $182 $182 $291 $292 reversed $115 $-1 #
face $-1 $-1 $293 $59 $-1 $294 forward single #
loop $-1 $295 $296 $117 #
cone-surface $-1 -43.191743601325584 11.323500287546793 6.0069558665310723 0.70710678939079041 0 -0.70710677298230451 0.088388346622788064 0 0.088388348673848802 1 I I -0.70710678118654746 0.70710678118654746 0.125 forward I I I I #
loop $-1 $-1 $297 $74 #
coedge $-1 $187 $187 $298 $299 reversed $118 $-1 #
face $-1 $300 $301 $45 $-1 $302 reversed single #
loop $-1 $-1 $303 $120 #
plane-surface $-1 0 -27.168807539904606 0 0 1 0 0 0 1 forward_v I I I I #
coedge $-1 $304 $305 $306 $307 forward $121 $-1 #
coedge $-1 $308 $123 $309 $310 forward $76 $-1 #
coedge $-1 $123 $308 $311 $312 forward $76 $-1 #
coedge $-1 $313 $314 $123 $195 reversed $315 $-1 #
edge $-1 $316 -27.168807539904606 $317 27.168807539904606 $194 $318 forward 7 unknown #
face $-1 $319 $320 $46 $-1 $321 reversed single #
loop $-1 $-1 $322 $124 #
plane-surface $-1 0 -12.910957098395343 1.061222735947382 0 -1 0 0 0 -1 forward_v I I I I #
coedge $-1 $323 $324 $325 $326 reversed $125 $-1 #
coedge $-1 $327 $127 $328 $329 forward $79 $-1 #
coedge $-1 $127 $327 $330 $331 reversed $79 $-1 #
coedge $-1 $332 $333 $127 $203 forward $334 $-1 #
edge $-1 $335 2.891015938820356 $336 17.148866380329618 $202 $337 forward 7 unknown #
face $-1 $338 $339 $47 $-1 $340 reversed single #
loop $-1 $-1 $341 $128 #
plane-surface $-1 0 12.910957098395343 1.061222735947382 0 1 0 0 0 1 forward_v I I I I #
coedge $-1 $342 $343 $344 $345 reversed $129 $-1 #
coedge $-1 $346 $131 $347 $348 reversed $82 $-1 #
coedge $-1 $131 $346 $349 $350 forward $82 $-1 #
coedge $-1 $351 $352 $131 $211 forward $339 $-1 #
edge $-1 $353 -17.148866380329618 $354 -2.891015938820356 $210 $355 forward 7 unknown #
face $-1 $356 $357 $48 $-1 $358 forward single #
loop $-1 $-1 $359 $132 #
plane-surface $-1 54.804429605850444 12.910957098395347 149.87738892356725 0 -1 0 -0.73135370988377701 0 -0.68199835119979291 forward_v I I I I #
coedge $-1 $360 $361 $362 $363 reversed $133 $-1 #
coedge $-1 $217 $135 $364 $365 reversed $85 $-1 #
coedge $-1 $135 $216 $360 $366 reversed $85 $-1 #
coedge $-1 $362 $367 $135 $219 forward $368 $-1 #
edge $-1 $369 62.242809450331087 $370 66.059208472109049 $218 $371 forward 7 unknown #
loop $-1 $-1 $225 $136 #
plane-surface $-1 -18.156400350046681 9.199230886236947 81.840315945571732 0.73135370988377701 0 0.68199835119979291 0.68199835119979291 0 -0.73135370988377701 forward_v I I I I #
loop $-1 $-1 $372 $87 #
coedge $-1 $223 $223 $224 $373 reversed $137 $-1 #
coedge $-1 $224 $224 $223 $373 forward $139 $-1 #
coedge $-1 $225 $225 $140 $226 forward $220 $-1 #
edge $-1 $374 0 $374 6.2831853071796004 $225 $375 forward 7 unknown #
loop $-1 $-1 $232 $141 #
plane-surface $-1 -18.156400350046681 9.199230886236947 81.840315945571732 0.73135370988377701 0 0.68199835119979291 0.68199835119979291 0 -0.73135370988377701 forward_v I I I I #
loop $-1 $-1 $376 $90 #
coedge $-1 $230 $230 $231 $377 reversed $142 $-1 #
coedge $-1 $231 $231 $230 $377 forward $144 $-1 #
coedge $-1 $232 $232 $145 $233 forward $227 $-1 #
edge $-1 $378 0 $378 6.2831853071796004 $232 $379 forward 7 unknown #
face $-1 $380 $381 $51 $-1 $382 reversed single #
loop $-1 $-1 $383 $146 #
plane-surface $-1 -120.42259717715285 -9.8597512041017126 71.450939873091158 0 1 0 -0.70710678939079041 0 0.70710677298230451 forward_v I I I I #
coedge $-1 $384 $385 $386 $387 reversed $147 $-1 #
coedge $-1 $239 $149 $388 $389 reversed $94 $-1 #
coedge $-1 $149 $238 $384 $390 reversed $94 $-1 #
coedge $-1 $386 $391 $149 $241 forward $381 $-1 #
edge $-1 $392 23.02958492509304 $393 34.816452975725767 $240 $394 forward 7 unknown #
loop $-1 $-1 $247 $150 #
plane-surface $-1 -49.880672627948869 -7.0817017851167492 0.90901696081979821 -0.70710678939079041 0 0.70710677298230451 0.70710677298230451 0 0.70710678939079041 forward_v I I I I #
loop $-1 $-1 $395 $96 #
coedge $-1 $245 $245 $246 $396 reversed $151 $-1 #
coedge $-1 $246 $246 $245 $396 forward $153 $-1 #
coedge $-1 $247 $247 $154 $248 forward $242 $-1 #
edge $-1 $397 0 $397 6.2831853071796004 $247 $398 forward 7 unknown #
loop $-1 $-1 $254 $155 #
plane-surface $-1 -49.880672627948869 -7.0817017851167492 0.90901696081979821 -0.70710678939079041 0 0.70710677298230451 0.70710677298230451 0 0.70710678939079041 forward_v I I I I #
loop $-1 $-1 $399 $99 #
coedge $-1 $252 $252 $253 $400 reversed $156 $-1 #
coedge $-1 $253 $253 $252 $400 forward $158 $-1 #
coedge $-1 $254 $254 $159 $255 forward $249 $-1 #
edge $-1 $401 0 $401 6.2831853071796004 $254 $402 forward 7 unknown #
face $-1 $403 $404 $54 $-1 $405 reversed single #
loop $-1 $-1 $406 $160 #
plane-surface $-1 -120.42259717715285 -1.2524464718381481 71.450939873091158 0 1 0 -0.70710678939079041 0 0.70710677298230451 forward_v I I I I #
coedge $-1 $407 $408 $409 $410 reversed $161 $-1 #
coedge $-1 $261 $163 $411 $412 reversed $103 $-1 #
coedge $-1 $163 $260 $407 $413 reversed $103 $-1 #
coedge $-1 $409 $414 $163 $263 forward $404 $-1 #
edge $-1 $415 23.02958492509304 $416 34.816452975725767 $262 $417 forward 7 unknown #
loop $-1 $-1 $269 $164 #
plane-surface $-1 -49.880672627948869 1.5256029471468153 0.90901696081979821 -0.70710678939079041 0 0.70710677298230451 0.70710677298230451 0 0.70710678939079041 forward_v I I I I #
loop $-1 $-1 $418 $105 #
coedge $-1 $267 $267 $268 $419 reversed $165 $-1 #
coedge $-1 $268 $268 $267 $419 forward $167 $-1 #
coedge $-1 $269 $269 $168 $270 forward $264 $-1 #
edge $-1 $420 0 $420 6.2831853071796004 $269 $421 forward 7 unknown #
loop $-1 $-1 $276 $169 #
plane-surface $-1 -49.880672627948869 1.5256029471468153 0.90901696081979821 -0.70710678939079041 0 0.70710677298230451 0.70710677298230451 0 0.70710678939079041 forward_v I I I I #
loop $-1 $-1 $422 $108 #
coedge $-1 $274 $274 $275 $423 reversed $170 $-1 #
coedge $-1 $275 $275 $274 $423 forward $172 $-1 #
coedge $-1 $276 $276 $173 $277 forward $271 $-1 #
edge $-1 $424 0 $424 6.2831853071796004 $276 $425 forward 7 unknown #
face $-1 $426 $427 $57 $-1 $428 forward single #
loop $-1 $-1 $429 $174 #
plane-surface $-1 -49.880672627948854 0 0 1 0 0 0 0 -1 forward_v I I I I #
coedge $-1 $430 $431 $432 $433 reversed $175 $-1 #
coedge $-1 $434 $177 $435 $436 reversed $112 $-1 #
coedge $-1 $177 $434 $430 $437 forward $112 $-1 #
coedge $-1 $432 $429 $177 $285 forward $279 $-1 #
edge $-1 $438 -7.8445032586901533 $439 -2.2884044207202265 $284 $440 forward 7 unknown #
loop $-1 $-1 $291 $178 #
plane-surface $-1 -49.880672627948869 10.13290767941038 0.90901696081979821 -0.70710678939079041 0 0.70710677298230451 0.70710677298230451 0 0.70710678939079041 forward_v I I I I #
loop $-1 $-1 $441 $114 #
coedge $-1 $289 $289 $290 $442 reversed $179 $-1 #
coedge $-1 $290 $290 $289 $442 forward $181 $-1 #
coedge $-1 $291 $291 $182 $292 forward $286 $-1 #
edge $-1 $443 0 $443 6.2831853071796004 $291 $444 forward 7 unknown #
loop $-1 $-1 $298 $183 #
plane-surface $-1 -49.880672627948869 10.13290767941038 0.90901696081979821 -0.70710678939079041 0 0.70710677298230451 0.70710677298230451 0 0.70710678939079041 forward_v I I I I #
loop $-1 $-1 $445 $117 #
coedge $-1 $296 $296 $297 $446 reversed $184 $-1 #
coedge $-1 $297 $297 $296 $446 forward $186 $-1 #
coedge $-1 $298 $298 $187 $299 forward $293 $-1 #
edge $-1 $447 0 $447 6.2831853071796004 $298 $448 forward 7 unknown #
face $-1 $449 $450 $45 $-1 $451 reversed single #
loop $-1 $-1 $452 $188 #
plane-surface $-1 -49.880672627948854 0 0 1 0 0 0 0 -1 forward_v I I I I #
coedge $-1 $453 $311 $454 $455 forward $189 $-1 #
coedge $-1 $456 $191 $453 $457 forward $121 $-1 #
coedge $-1 $191 $456 $458 $459 forward $121 $-1 #
coedge $-1 $314 $313 $191 $307 reversed $315 $-1 #
edge $-1 $460 -27.168807539904606 $461 27.168807539904606 $306 $462 forward 7 unknown #
coedge $-1 $193 $192 $463 $464 forward $76 $-1 #
coedge $-1 $465 $466 $192 $310 reversed $450 $-1 #
edge $-1 $317 -49.880672627948854 $467 49.880672627948854 $309 $468 forward 7 unknown #
coedge $-1 $303 $469 $193 $312 reversed $189 $-1 #
edge $-1 $470 -49.880672627948854 $316 49.880672627948854 $311 $471 forward 7 unknown #
coedge $-1 $306 $194 $469 $472 forward $315 $-1 #
coedge $-1 $194 $306 $465 $473 reversed $315 $-1 #
loop $-1 $-1 $313 $449 #
vertex $-1 $195 $474 #
vertex $-1 $195 $475 #
straight-curve $-1 49.880672627948854 0 12.695885011452539 0 1 0 I I #
face $-1 $476 $477 $46 $-1 $478 reversed single #
loop $-1 $-1 $479 $196 #
plane-surface $-1 -49.880672627948854 0 0 1 0 0 0 0 -1 forward_v I I I I #
coedge $-1 $480 $328 $333 $481 reversed $197 $-1 #
coedge $-1 $482 $199 $483 $484 reversed $125 $-1 #
coedge $-1 $199 $482 $480 $485 forward $125 $-1 #
coedge $-1 $333 $332 $199 $326 forward $334 $-1 #
edge $-1 $486 -17.148866380329618 $487 -2.891015938820356 $325 $488 forward 7 unknown #
coedge $-1 $201 $200 $479 $489 reversed $79 $-1 #
coedge $-1 $322 $490 $200 $329 reversed $197 $-1 #
edge $-1 $335 -49.880672627948854 $491 49.880672627948854 $328 $492 forward 7 unknown #
coedge $-1 $493 $494 $201 $331 forward $477 $-1 #
edge $-1 $336 -49.880672627948854 $495 49.880672627948854 $330 $496 forward 7 unknown #
coedge $-1 $325 $202 $494 $497 forward $334 $-1 #
coedge $-1 $202 $325 $322 $481 forward $334 $-1 #
loop $-1 $-1 $202 $476 #
vertex $-1 $203 $498 #
vertex $-1 $497 $499 #
straight-curve $-1 49.880672627948854 -10.019941159574987 4.3001903177594949 0 -1 0 I I #
face $-1 $500 $501 $47 $-1 $502 reversed single #
loop $-1 $-1 $210 $204 #
plane-surface $-1 49.880672627948854 0 0 -1 0 0 0 0 1 forward_v I I I I #
coedge $-1 $503 $349 $504 $505 reversed $205 $-1 #
coedge $-1 $506 $207 $503 $507 forward $129 $-1 #
coedge $-1 $207 $506 $508 $509 reversed $129 $-1 #
coedge $-1 $352 $351 $207 $345 forward $339 $-1 #
edge $-1 $510 2.891015938820356 $511 17.148866380329618 $344 $512 forward 7 unknown #
coedge $-1 $209 $208 $513 $514 reversed $82 $-1 #
coedge $-1 $515 $516 $208 $348 forward $517 $-1 #
edge $-1 $518 -49.880672627948854 $353 49.880672627948854 $347 $519 forward 7 unknown #
coedge $-1 $341 $520 $209 $350 reversed $205 $-1 #
edge $-1 $521 -49.880672627948854 $354 49.880672627948854 $349 $522 forward 7 unknown #
coedge $-1 $344 $210 $520 $523 forward $339 $-1 #
coedge $-1 $210 $344 $515 $524 reversed $339 $-1 #
vertex $-1 $524 $525 #
vertex $-1 $211 $526 #
straight-curve $-1 49.880672627948854 10.019941159574987 4.3001903177594949 0 -1 0 I I #
face $-1 $-1 $368 $48 $-1 $527 reversed single #
loop $-1 $-1 $528 $212 #
plane-surface $-1 0 0 12.695885011452539 0 0 1 1 0 0 forward_v I I I I #
coedge $-1 $529 $530 $531 $532 reversed $213 $-1 #
coedge $-1 $533 $215 $217 $366 forward $133 $-1 #
coedge $-1 $215 $533 $529 $534 forward $133 $-1 #
coedge $-1 $531 $218 $215 $363 forward $368 $-1 #
edge $-1 $370 0.88788923096007366 $535 8.3113416552768733 $362 $536 forward 7 unknown #
coedge $-1 $537 $538 $216 $365 forward $357 $-1 #
edge $-1 $539 18.919608248959143 $369 22.478457825023632 $364 $540 forward 7 unknown #
edge $-1 $370 -99.761345255897737 $539 -94.543078129879532 $217 $541 forward 7 unknown #
coedge $-1 $218 $531 $537 $542 reversed $368 $-1 #
loop $-1 $-1 $531 $356 #
vertex $-1 $542 $543 #
vertex $-1 $219 $544 #
straight-curve $-1 49.880672627948854 5.4875046740785471 74.938694461783626 0 0 -1 I I #
coedge $-1 $372 $372 $-1 $545 reversed $222 $-1 #
edge $-1 $546 0 $546 6.2831853071796004 $223 $547 forward 7 unknown #
vertex $-1 $226 $548 #
ellipse-curve $-1 48.10124783991661 7.6084910810262016 10.787685500563549 0.73135370988377701 0 0.68199835119979291 0.34099917559989645 0 -0.36567685494188851 1 I I #
coedge $-1 $376 $376 $-1 $549 reversed $229 $-1 #
edge $-1 $550 0 $550 6.2831853071796004 $230 $551 forward 7 unknown #
vertex $-1 $233 $552 #
ellipse-curve $-1 48.10124783991661 10.789970691447685 10.787685500563549 0.73135370988377701 0 0.68199835119979291 0.34099917559989645 0 -0.36567685494188851 1 I I #
face $-1 $-1 $553 $51 $-1 $554 forward single #
loop $-1 $-1 $240 $234 #
plane-surface $-1 -49.880672627948854 0 0 1 0 0 0 0 -1 forward_v I I I I #
coedge $-1 $555 $556 $557 $558 reversed $235 $-1 #
coedge $-1 $559 $237 $239 $390 forward $147 $-1 #
coedge $-1 $237 $559 $555 $560 forward $147 $-1 #
coedge $-1 $557 $240 $237 $387 forward $381 $-1 #
edge $-1 $393 0.76280147357341122 $561 6.318900311543338 $386 $562 forward 7 unknown #
coedge $-1 $563 $564 $238 $389 forward $553 $-1 #
edge $-1 $565 -22.117493737744809 $392 -10.330625960627572 $388 $566 forward 7 unknown #
edge $-1 $393 2.0097183471152325e-014 $565 16.669148461702296 $239 $567 forward 7 unknown #
coedge $-1 $240 $557 $563 $568 reversed $381 $-1 #
vertex $-1 $568 $569 #
vertex $-1 $241 $570 #
straight-curve $-1 -49.880672627948854 -4.3036523661317858 35.725469936545579 0 0 -1 I I #
coedge $-1 $395 $395 $-1 $571 reversed $244 $-1 #
edge $-1 $572 0 $572 6.2831853071796004 $245 $573 forward 7 unknown #
vertex $-1 $248 $574 #
ellipse-curve $-1 -43.987238739390236 -8.2722943932531621 6.8024509861361766 -0.70710678939079041 0 0.70710677298230451 0.17677669324557613 0 0.1767766973476976 1 I I #
coedge $-1 $399 $399 $-1 $575 reversed $251 $-1 #
edge $-1 $576 0 $576 6.2831853071796004 $252 $577 forward 7 unknown #
vertex $-1 $255 $578 #
ellipse-curve $-1 -43.987238739390236 -5.8911091769803363 6.8024509861361766 -0.70710678939079041 0 0.70710677298230451 0.17677669324557613 0 0.1767766973476976 1 I I #
face $-1 $-1 $579 $54 $-1 $580 forward single #
loop $-1 $-1 $262 $256 #
plane-surface $-1 -49.880672627948854 0 0 1 0 0 0 0 -1 forward_v I I I I #
coedge $-1 $581 $582 $583 $584 reversed $257 $-1 #
coedge $-1 $585 $259 $261 $413 forward $161 $-1 #
coedge $-1 $259 $585 $581 $586 forward $161 $-1 #
coedge $-1 $583 $262 $259 $410 forward $404 $-1 #
edge $-1 $416 -3.540850892558371 $587 2.0152479454115557 $409 $588 forward 7 unknown #
coedge $-1 $589 $590 $260 $412 forward $579 $-1 #
edge $-1 $591 -22.117493737744809 $415 -10.330625960627572 $411 $592 forward 7 unknown #
edge $-1 $416 2.0097183471152325e-014 $591 16.669148461702296 $261 $593 forward 7 unknown #
coedge $-1 $262 $583 $589 $594 reversed $404 $-1 #
vertex $-1 $594 $595 #
vertex $-1 $263 $596 #
straight-curve $-1 -49.880672627948854 4.3036523661317787 35.725469936545579 0 0 -1 I I #
coedge $-1 $418 $418 $-1 $597 reversed $266 $-1 #
edge $-1 $598 0 $598 6.2831853071796004 $267 $599 forward 7 unknown #
vertex $-1 $270 $600 #
ellipse-curve $-1 -43.987238739390236 0.33501033901040245 6.8024509861361766 -0.70710678939079041 0 0.70710677298230451 0.17677669324557613 0 0.1767766973476976 1 I I #
coedge $-1 $422 $422 $-1 $601 reversed $273 $-1 #
edge $-1 $602 0 $602 6.2831853071796004 $274 $603 forward 7 unknown #
vertex $-1 $277 $604 #
ellipse-curve $-1 -43.987238739390236 2.7161955552832282 6.8024509861361766 -0.70710678939079041 0 0.70710677298230451 0.17677669324557613 0 0.1767766973476976 1 I I #
face $-1 $-1 $605 $57 $-1 $606 forward single #
loop $-1 $-1 $435 $278 #
plane-surface $-1 0 12.910957098395343 1.061222735947382 0 1 0 0 0 1 forward_v I I I I #
coedge $-1 $284 $607 $608 $609 forward $279 $-1 #
coedge $-1 $431 $281 $283 $437 reversed $175 $-1 #
coedge $-1 $281 $430 $610 $611 reversed $175 $-1 #
coedge $-1 $607 $284 $281 $433 forward $279 $-1 #
edge $-1 $439 -34.816452975725767 $612 -23.02958492509304 $432 $613 forward 7 unknown #
coedge $-1 $283 $282 $614 $615 reversed $112 $-1 #
coedge $-1 $608 $616 $282 $436 forward $427 $-1 #
edge $-1 $617 1.0201451348541544 $438 17.689293596556425 $435 $618 forward 7 unknown #
edge $-1 $619 -16.669148461702296 $439 -2.0097183471152325e-014 $430 $620 forward 7 unknown #
vertex $-1 $285 $621 #
vertex $-1 $285 $622 #
straight-curve $-1 -49.880672627948854 5.0664538397051899 0.90901696081980887 0 -1 0 I I #
coedge $-1 $441 $441 $-1 $623 reversed $288 $-1 #
edge $-1 $624 0 $624 6.2831853071796004 $289 $625 forward 7 unknown #
vertex $-1 $292 $626 #
ellipse-curve $-1 -43.987238739390236 8.942315071273967 6.8024509861361766 -0.70710678939079041 0 0.70710677298230451 0.17677669324557613 0 0.1767766973476976 1 I I #
coedge $-1 $445 $445 $-1 $627 reversed $295 $-1 #
edge $-1 $628 0 $628 6.2831853071796004 $296 $629 forward 7 unknown #
vertex $-1 $299 $630 #
ellipse-curve $-1 -43.987238739390236 11.323500287546793 6.8024509861361766 -0.70710678939079041 0 0.70710677298230451 0.17677669324557613 0 0.1767766973476976 1 I I #
face $-1 $-1 $315 $45 $-1 $631 reversed single #
loop $-1 $-1 $465 $300 #
plane-surface $-1 0 27.168807539904606 0 0 -1 0 0 0 -1 forward_v I I I I #
coedge $-1 $632 $463 $466 $633 forward $301 $-1 #
coedge $-1 $469 $303 $304 $457 reversed $189 $-1 #
coedge $-1 $463 $632 $303 $455 reversed $301 $-1 #
edge $-1 $470 -12.695885011452539 $634 12.695885011452539 $454 $635 forward 7 unknown #
coedge $-1 $305 $304 $632 $636 forward $121 $-1 #
edge $-1 $461 -49.880672627948854 $634 49.880672627948854 $453 $637 forward 7 unknown #
coedge $-1 $466 $465 $305 $459 reversed $450 $-1 #
edge $-1 $638 -49.880672627948854 $460 49.880672627948854 $458 $639 forward 7 unknown #
vertex $-1 $307 $640 #
vertex $-1 $472 $641 #
straight-curve $-1 49.880672627948854 0 -12.695885011452539 0 -1 0 I I #
coedge $-1 $452 $454 $308 $464 reversed $301 $-1 #
edge $-1 $467 -27.168807539904606 $470 27.168807539904606 $463 $642 forward 7 unknown #
coedge $-1 $458 $309 $314 $473 forward $450 $-1 #
coedge $-1 $309 $458 $452 $633 reversed $450 $-1 #
vertex $-1 $310 $643 #
straight-curve $-1 0 27.168807539904606 12.695885011452539 -1 0 0 I I #
coedge $-1 $311 $453 $313 $472 reversed $189 $-1 #
vertex $-1 $464 $644 #
straight-curve $-1 0 -27.168807539904606 12.695885011452539 1 0 0 I I #
edge $-1 $316 -12.695885011452539 $461 12.695885011452539 $313 $645 forward 7 unknown #
edge $-1 $317 -12.695885011452539 $460 12.695885011452539 $314 $646 forward 7 unknown #
point $-1 49.880672627948854 -27.168807539904606 12.695885011452539 #
point $-1 49.880672627948854 27.168807539904606 12.695885011452539 #
face $-1 $-1 $334 $46 $-1 $647 reversed single #
loop $-1 $-1 $330 $319 #
plane-surface $-1 0 -27.168807539904606 0 0 1 0 0 0 1 forward_v I I I I #
coedge $-1 $648 $649 $327 $489 forward $320 $-1 #
coedge $-1 $490 $322 $324 $485 reversed $197 $-1 #
edge $-1 $487 -2.7083562138384218 $335 3.7695789497858039 $333 $650 forward 7 unknown #
coedge $-1 $324 $323 $651 $652 reversed $125 $-1 #
coedge $-1 $494 $493 $323 $484 forward $477 $-1 #
edge $-1 $653 -49.880672627948854 $486 49.880672627948854 $483 $654 forward 7 unknown #
edge $-1 $655 -49.880672627948854 $487 49.880672627948854 $480 $656 forward 7 unknown #
vertex $-1 $484 $657 #
vertex $-1 $326 $658 #
straight-curve $-1 49.880672627948854 -10.019941159574987 -2.1777448458647308 0 1 0 I I #
edge $-1 $495 -17.148866380329618 $491 -2.891015938820356 $479 $659 forward 7 unknown #
coedge $-1 $328 $480 $648 $660 reversed $197 $-1 #
vertex $-1 $489 $661 #
straight-curve $-1 0 -12.910957098395343 4.3001903177594949 -1 0 0 I I #
coedge $-1 $483 $330 $649 $662 forward $477 $-1 #
coedge $-1 $330 $483 $332 $497 reversed $477 $-1 #
vertex $-1 $662 $663 #
straight-curve $-1 0 -27.168807539904606 4.3001903177594949 -1 0 0 I I #
edge $-1 $336 -4.3001903177594949 $486 2.1777448458647308 $332 $664 forward 7 unknown #
point $-1 49.880672627948854 -12.910957098395343 4.3001903177594949 #
point $-1 49.880672627948854 -27.168807539904606 4.3001903177594949 #
face $-1 $-1 $517 $47 $-1 $665 reversed single #
loop $-1 $-1 $513 $338 #
plane-surface $-1 -49.880672627948854 0 0 1 0 0 0 0 -1 forward_v I I I I #
coedge $-1 $520 $341 $342 $507 reversed $205 $-1 #
coedge $-1 $513 $666 $341 $505 forward $501 $-1 #
edge $-1 $667 -2.7083562138384218 $521 3.7695789497858039 $504 $668 forward 7 unknown #
coedge $-1 $343 $342 $666 $669 reversed $129 $-1 #
edge $-1 $510 -49.880672627948854 $667 49.880672627948854 $503 $670 forward 7 unknown #
coedge $-1 $516 $515 $343 $509 forward $517 $-1 #
edge $-1 $511 -49.880672627948854 $671 49.880672627948854 $508 $672 forward 7 unknown #
vertex $-1 $345 $673 #
vertex $-1 $509 $674 #
straight-curve $-1 49.880672627948854 10.019941159574987 -2.1777448458647308 0 1 0 I I #
coedge $-1 $675 $504 $346 $514 forward $501 $-1 #
edge $-1 $521 2.891015938820356 $518 17.148866380329618 $513 $676 forward 7 unknown #
coedge $-1 $508 $347 $352 $524 forward $517 $-1 #
coedge $-1 $347 $508 $675 $677 reversed $517 $-1 #
loop $-1 $-1 $347 $500 #
vertex $-1 $677 $678 #
straight-curve $-1 0 27.168807539904606 4.3001903177594949 1 0 0 I I #
coedge $-1 $349 $503 $351 $523 reversed $205 $-1 #
vertex $-1 $514 $679 #
straight-curve $-1 0 12.910957098395343 4.3001903177594949 1 0 0 I I #
edge $-1 $354 -3.7695789497858039 $510 2.7083562138384218 $351 $680 forward 7 unknown #
edge $-1 $353 -4.3001903177594949 $511 2.1777448458647308 $352 $681 forward 7 unknown #
point $-1 49.880672627948854 27.168807539904606 4.3001903177594949 #
point $-1 49.880672627948854 12.910957098395343 4.3001903177594949 #
plane-surface $-1 49.880672627948854 0 0 -1 0 0 0 0 1 forward_v I I I I #
coedge $-1 $538 $537 $530 $682 forward $357 $-1 #
coedge $-1 $530 $359 $361 $534 reversed $213 $-1 #
coedge $-1 $359 $529 $528 $682 reversed $213 $-1 #
coedge $-1 $367 $362 $359 $532 forward $368 $-1 #
edge $-1 $535 -66.059208472109049 $683 -62.242809450331087 $531 $684 forward 7 unknown #
coedge $-1 $361 $360 $538 $685 reversed $133 $-1 #
edge $-1 $686 94.543078129879532 $535 99.761345255897737 $529 $687 forward 7 unknown #
vertex $-1 $363 $688 #
straight-curve $-1 49.880672627948854 4.5996154431184735 8.8794859896745848 0 1 0 I I #
coedge $-1 $528 $364 $367 $542 forward $357 $-1 #
coedge $-1 $364 $528 $533 $685 forward $357 $-1 #
vertex $-1 $365 $689 #
straight-curve $-1 27.402214802925222 5.4875046740785471 12.695885011452546 1 0 0 I I #
straight-curve $-1 -18.156400350046681 5.4875046740785471 81.840315945571732 -0.68199835119979291 0 0.73135370988377701 I I #
edge $-1 $369 5.4875046740785471 $683 12.910957098395347 $367 $690 forward 7 unknown #
point $-1 49.880672627948854 5.4875046740785471 12.695885011452539 #
point $-1 49.880672627948854 5.4875046740785471 8.8794859896745777 #
edge $-1 $691 1 $691 0 $372 $-1 forward 7 unknown #
vertex $-1 $373 $692 #
ellipse-curve $-1 46.705801213164435 7.6084910810262016 9.4864105008325303 0.73135370988377701 0 0.68199835119979291 0.34099917559989645 0 -0.36567685494188851 1 I I #
point $-1 48.442247015516514 7.6084910810262016 10.42200864562167 #
edge $-1 $693 1 $693 0 $376 $-1 forward 7 unknown #
vertex $-1 $377 $694 #
ellipse-curve $-1 46.705801213164435 10.789970691447685 9.4864105008325303 0.73135370988377701 0 0.68199835119979291 0.34099917559989645 0 -0.36567685494188851 1 I I #
point $-1 48.442247015516514 10.789970691447685 10.42200864562167 #
loop $-1 $-1 $388 $380 #
plane-surface $-1 0 0 12.695885011452539 0 0 1 1 0 0 forward_v I I I I #
coedge $-1 $556 $383 $385 $560 reversed $235 $-1 #
coedge $-1 $383 $555 $695 $696 reversed $235 $-1 #
coedge $-1 $391 $386 $383 $558 forward $381 $-1 #
edge $-1 $561 -34.816452975725767 $697 -23.02958492509304 $557 $698 forward 7 unknown #
coedge $-1 $385 $384 $564 $699 reversed $147 $-1 #
edge $-1 $700 -16.669148461702296 $561 -2.0097183471152325e-014 $555 $701 forward 7 unknown #
vertex $-1 $387 $702 #
straight-curve $-1 -49.880672627948854 -3.5408508925583746 0.90901696081980887 0 -1 0 I I #
coedge $-1 $695 $388 $391 $568 forward $553 $-1 #
coedge $-1 $388 $695 $559 $699 forward $553 $-1 #
vertex $-1 $389 $703 #
straight-curve $-1 -60.211298588576426 -4.3036523661317858 12.695885011452539 -1 0 0 I I #
straight-curve $-1 -49.880672627948869 -4.3036523661317858 0.90901696081979821 0.70710677298230451 0 0.70710678939079041 I I #
edge $-1 $392 4.3036523661317858 $697 9.8597512041017126 $391 $704 forward 7 unknown #
point $-1 -49.880672627948854 -4.3036523661317858 12.695885011452539 #
point $-1 -49.880672627948854 -4.3036523661317858 0.90901696081981243 #
edge $-1 $705 1 $705 0 $395 $-1 forward 7 unknown #
vertex $-1 $396 $706 #
ellipse-curve $-1 -43.280131949999429 -8.2722943932531621 6.0953442131538607 -0.70710678939079041 0 0.70710677298230451 0.17677669324557613 0 0.1767766973476976 1 I I #
point $-1 -43.81046204614465 -8.2722943932531621 6.9792276834838622 #
edge $-1 $707 1 $707 0 $399 $-1 forward 7 unknown #
vertex $-1 $400 $708 #
ellipse-curve $-1 -43.280131949999429 -5.8911091769803363 6.0953442131538607 -0.70710678939079041 0 0.70710677298230451 0.17677669324557613 0 0.1767766973476976 1 I I #
point $-1 -43.81046204614465 -5.8911091769803363 6.9792276834838622 #
loop $-1 $-1 $411 $403 #
plane-surface $-1 0 0 12.695885011452539 0 0 1 1 0 0 forward_v I I I I #
coedge $-1 $582 $406 $408 $586 reversed $257 $-1 #
coedge $-1 $406 $581 $709 $710 reversed $257 $-1 #
coedge $-1 $414 $409 $406 $584 forward $404 $-1 #
edge $-1 $587 -34.816452975725767 $711 -23.02958492509304 $583 $712 forward 7 unknown #
coedge $-1 $408 $407 $590 $713 reversed $161 $-1 #
edge $-1 $714 -16.669148461702296 $587 -2.0097183471152325e-014 $581 $715 forward 7 unknown #
vertex $-1 $410 $716 #
straight-curve $-1 -49.880672627948854 0.76280147357340766 0.90901696081980887 0 -1 0 I I #
coedge $-1 $709 $411 $414 $594 forward $579 $-1 #
coedge $-1 $411 $709 $585 $713 forward $579 $-1 #
vertex $-1 $412 $717 #
straight-curve $-1 -60.211298588576426 4.3036523661317787 12.695885011452539 -1 0 0 I I #
straight-curve $-1 -49.880672627948869 4.3036523661317787 0.90901696081979821 0.70710677298230451 0 0.70710678939079041 I I #
edge $-1 $415 -4.3036523661317787 $711 1.2524464718381481 $414 $718 forward 7 unknown #
point $-1 -49.880672627948854 4.3036523661317787 12.695885011452539 #
point $-1 -49.880672627948854 4.3036523661317787 0.90901696081981243 #
edge $-1 $719 1 $719 0 $418 $-1 forward 7 unknown #
vertex $-1 $419 $720 #
ellipse-curve $-1 -43.280131949999429 0.33501033901040245 6.0953442131538607 -0.70710678939079041 0 0.70710677298230451 0.17677669324557613 0 0.1767766973476976 1 I I #
point $-1 -43.81046204614465 0.33501033901040245 6.9792276834838622 #
edge $-1 $721 1 $721 0 $422 $-1 forward 7 unknown #
vertex $-1 $423 $722 #
ellipse-curve $-1 -43.280131949999429 2.7161955552832282 6.0953442131538607 -0.70710678939079041 0 0.70710677298230451 0.17677669324557613 0 0.1767766973476976 1 I I #
point $-1 -43.81046204614465 2.7161955552832282 6.9792276834838622 #
loop $-1 $-1 $723 $426 #
plane-surface $-1 0 0 12.695885011452539 0 0 1 1 0 0 forward_v I I I I #
coedge $-1 $429 $432 $724 $725 reversed $279 $-1 #
coedge $-1 $616 $435 $429 $609 reversed $427 $-1 #
edge $-1 $726 23.02958492509304 $438 34.816452975725767 $429 $727 forward 7 unknown #
coedge $-1 $614 $724 $431 $611 forward $605 $-1 #
edge $-1 $612 10.330625960627572 $619 22.117493737744809 $610 $728 forward 7 unknown #
vertex $-1 $433 $729 #
straight-curve $-1 -49.880672627948854 7.3548582604254165 35.725469936545579 0 0 1 I I #
coedge $-1 $723 $610 $434 $615 forward $605 $-1 #
edge $-1 $619 2.2884044207202265 $617 7.8445032586901533 $614 $730 forward 7 unknown #
coedge $-1 $435 $608 $723 $731 reversed $427 $-1 #
vertex $-1 $731 $732 #
straight-curve $-1 -37.372453316551301 12.910957098395343 13.417236562471897 -0.70710677298230462 0 -0.70710678939079052 I I #
vertex $-1 $615 $733 #
straight-curve $-1 -49.880672627948869 7.3548582604254165 0.90901696081979821 -0.70710677298230451 0 -0.70710678939079041 I I #
point $-1 -49.880672627948854 12.910957098395343 0.90901696081981243 #
point $-1 -49.880672627948854 7.3548582604254165 0.90901696081981243 #
edge $-1 $734 1 $734 0 $441 $-1 forward 7 unknown #
vertex $-1 $442 $735 #
ellipse-curve $-1 -43.280131949999429 8.942315071273967 6.0953442131538607 -0.70710678939079041 0 0.70710677298230451 0.17677669324557613 0 0.1767766973476976 1 I I #
point $-1 -43.81046204614465 8.942315071273967 6.9792276834838622 #
edge $-1 $736 1 $736 0 $445 $-1 forward 7 unknown #
vertex $-1 $446 $737 #
ellipse-curve $-1 -43.280131949999429 11.323500287546793 6.0953442131538607 -0.70710678939079041 0 0.70710677298230451 0.17677669324557613 0 0.1767766973476976 1 I I #
point $-1 -43.81046204614465 11.323500287546793 6.9792276834838622 #
plane-surface $-1 49.880672627948854 0 0 -1 0 0 0 0 1 forward_v I I I I #
coedge $-1 $454 $452 $456 $636 reversed $301 $-1 #
edge $-1 $467 -12.695885011452539 $638 12.695885011452539 $466 $738 forward 7 unknown #
vertex $-1 $636 $739 #
straight-curve $-1 -49.880672627948854 -27.168807539904606 0 0 0 -1 I I #
edge $-1 $634 -27.168807539904606 $638 27.168807539904606 $632 $740 forward 7 unknown #
straight-curve $-1 0 -27.168807539904606 -12.695885011452539 -1 0 0 I I #
vertex $-1 $459 $741 #
straight-curve $-1 0 27.168807539904606 -12.695885011452539 1 0 0 I I #
point $-1 49.880672627948854 27.168807539904606 -12.695885011452539 #
point $-1 49.880672627948854 -27.168807539904606 -12.695885011452539 #
straight-curve $-1 -49.880672627948854 0 12.695885011452539 0 -1 0 I I #
point $-1 -49.880672627948854 27.168807539904606 12.695885011452539 #
point $-1 -49.880672627948854 -27.168807539904606 12.695885011452539 #
straight-curve $-1 49.880672627948854 -27.168807539904606 0 0 0 -1 I I #
straight-curve $-1 49.880672627948854 27.168807539904606 0 0 0 -1 I I #
plane-surface $-1 49.880672627948854 0 0 -1 0 0 0 0 1 forward_v I I I I #
coedge $-1 $651 $479 $490 $660 forward $320 $-1 #
coedge $-1 $479 $651 $493 $662 reversed $320 $-1 #
straight-curve $-1 49.880672627948854 -12.910957098395343 0.53061136797369102 0 0 1 I I #
coedge $-1 $649 $648 $482 $652 forward $320 $-1 #
edge $-1 $655 2.891015938820356 $653 17.148866380329618 $651 $742 forward 7 unknown #
vertex $-1 $484 $743 #
straight-curve $-1 0 -27.168807539904606 -2.1777448458647308 1 0 0 I I #
vertex $-1 $652 $744 #
straight-curve $-1 0 -12.910957098395343 -2.1777448458647308 1 0 0 I I #
point $-1 49.880672627948854 -27.168807539904606 -2.1777448458647308 #
point $-1 49.880672627948854 -12.910957098395343 -2.1777448458647308 #
straight-curve $-1 -49.880672627948854 -10.019941159574987 4.3001903177594949 0 1 0 I I #
edge $-1 $491 -3.7695789497858039 $655 2.7083562138384218 $648 $745 forward 7 unknown #
point $-1 -49.880672627948854 -12.910957098395343 4.3001903177594949 #
edge $-1 $495 -4.3001903177594949 $653 2.1777448458647308 $649 $746 forward 7 unknown #
point $-1 -49.880672627948854 -27.168807539904606 4.3001903177594949 #
straight-curve $-1 49.880672627948854 -27.168807539904606 0 0 0 -1 I I #
plane-surface $-1 0 27.168807539904606 0 0 -1 0 0 0 -1 forward_v I I I I #
coedge $-1 $504 $675 $506 $669 forward $501 $-1 #
vertex $-1 $669 $747 #
straight-curve $-1 -49.880672627948854 12.910957098395343 0.53061136797369102 0 0 1 I I #
edge $-1 $671 -17.148866380329618 $667 -2.891015938820356 $666 $748 forward 7 unknown #
straight-curve $-1 0 12.910957098395343 -2.1777448458647308 -1 0 0 I I #
vertex $-1 $509 $749 #
straight-curve $-1 0 27.168807539904606 -2.1777448458647308 -1 0 0 I I #
point $-1 49.880672627948854 12.910957098395343 -2.1777448458647308 #
point $-1 49.880672627948854 27.168807539904606 -2.1777448458647308 #
coedge $-1 $666 $513 $516 $677 forward $501 $-1 #
straight-curve $-1 -49.880672627948854 10.019941159574987 4.3001903177594949 0 1 0 I I #
edge $-1 $518 -4.3001903177594949 $671 2.1777448458647308 $516 $750 forward 7 unknown #
point $-1 -49.880672627948854 27.168807539904606 4.3001903177594949 #
point $-1 -49.880672627948854 12.910957098395343 4.3001903177594949 #
straight-curve $-1 49.880672627948854 12.910957098395343 0.53061136797369102 0 0 -1 I I #
straight-curve $-1 49.880672627948854 27.168807539904606 0 0 0 -1 I I #
edge $-1 $683 -22.478457825023632 $686 -18.919608248959143 $528 $751 forward 7 unknown #
vertex $-1 $682 $752 #
straight-curve $-1 49.880672627948854 12.910957098395347 74.938694461783626 0 0 1 I I #
edge $-1 $686 -8.3113416552768733 $539 -0.88788923096007366 $538 $753 forward 7 unknown #
vertex $-1 $685 $754 #
straight-curve $-1 -18.156400350046681 12.910957098395347 81.840315945571732 0.68199835119979291 0 -0.73135370988377701 I I #
point $-1 49.880672627948854 12.910957098395347 8.8794859896745777 #
point $-1 46.321823051884365 5.4875046740785471 12.695885011452546 #
straight-curve $-1 49.880672627948854 0 12.695885011452539 0 1 0 I I #
vertex $-1 $545 $755 #
point $-1 47.046800388764332 7.6084910810262016 9.1207336458906418 #
vertex $-1 $549 $756 #
point $-1 47.046800388764332 10.789970691447685 9.1207336458906418 #
coedge $-1 $564 $563 $556 $696 forward $553 $-1 #
edge $-1 $697 10.330625960627572 $700 22.117493737744809 $695 $757 forward 7 unknown #
vertex $-1 $696 $758 #
straight-curve $-1 -49.880672627948854 -9.8597512041017126 35.725469936545579 0 0 1 I I #
edge $-1 $700 -6.318900311543338 $565 -0.76280147357341122 $564 $759 forward 7 unknown #
vertex $-1 $699 $760 #
straight-curve $-1 -49.880672627948869 -9.8597512041017126 0.90901696081979821 -0.70710677298230451 0 -0.70710678939079041 I I #
point $-1 -49.880672627948854 -9.8597512041017126 0.90901696081981243 #
point $-1 -38.093804850831617 -4.3036523661317858 12.695885011452539 #
straight-curve $-1 -49.880672627948854 0 12.695885011452539 0 -1 0 I I #
vertex $-1 $571 $761 #
point $-1 -43.103355256753858 -8.2722943932531621 6.2721209105015578 #
vertex $-1 $575 $762 #
point $-1 -43.103355256753858 -5.8911091769803363 6.2721209105015578 #
coedge $-1 $590 $589 $582 $710 forward $579 $-1 #
edge $-1 $711 10.330625960627572 $714 22.117493737744809 $709 $763 forward 7 unknown #
vertex $-1 $710 $764 #
straight-curve $-1 -49.880672627948854 -1.2524464718381481 35.725469936545579 0 0 1 I I #
edge $-1 $714 -2.0152479454115557 $591 3.540850892558371 $590 $765 forward 7 unknown #
vertex $-1 $713 $766 #
straight-curve $-1 -49.880672627948869 -1.2524464718381481 0.90901696081979821 -0.70710677298230451 0 -0.70710678939079041 I I #
point $-1 -49.880672627948854 -1.2524464718381481 0.90901696081981243 #
point $-1 -38.093804850831617 4.3036523661317787 12.695885011452539 #
straight-curve $-1 -49.880672627948854 0 12.695885011452539 0 -1 0 I I #
vertex $-1 $597 $767 #
point $-1 -43.103355256753858 0.33501033901040245 6.2721209105015578 #
vertex $-1 $601 $768 #
point $-1 -43.103355256753858 2.7161955552832282 6.2721209105015578 #
coedge $-1 $724 $614 $616 $731 forward $605 $-1 #
coedge $-1 $610 $723 $607 $725 forward $605 $-1 #
edge $-1 $726 -12.910957098395343 $612 -7.3548582604254165 $607 $769 forward 7 unknown #
vertex $-1 $725 $770 #
straight-curve $-1 -49.880672627948854 12.910957098395343 35.725469936545579 0 0 -1 I I #
straight-curve $-1 -60.211298588576426 7.3548582604254165 12.695885011452539 1 0 0 I I #
point $-1 -49.880672627948854 7.3548582604254165 12.695885011452539 #
straight-curve $-1 -38.093804850831617 5.0664538397051899 12.695885011452539 0 1 0 I I #
edge $-1 $617 -22.117493737744809 $726 -10.330625960627572 $723 $771 forward 7 unknown #
point $-1 -38.093804850831617 12.910957098395343 12.695885011452539 #
point $-1 -38.093804850831617 7.3548582604254165 12.695885011452539 #
vertex $-1 $623 $772 #
point $-1 -43.103355256753858 8.942315071273967 6.2721209105015578 #
vertex $-1 $627 $773 #
point $-1 -43.103355256753858 11.323500287546793 6.2721209105015578 #
straight-curve $-1 -49.880672627948854 27.168807539904606 0 0 0 -1 I I #
point $-1 -49.880672627948854 -27.168807539904606 -12.695885011452539 #
straight-curve $-1 -49.880672627948854 0 -12.695885011452539 0 1 0 I I #
point $-1 -49.880672627948854 27.168807539904606 -12.695885011452539 #
straight-curve $-1 -49.880672627948854 -10.019941159574987 -2.1777448458647308 0 -1 0 I I #
point $-1 -49.880672627948854 -27.168807539904606 -2.1777448458647308 #
point $-1 -49.880672627948854 -12.910957098395343 -2.1777448458647308 #
straight-curve $-1 -49.880672627948854 -12.910957098395343 0.53061136797369102 0 0 -1 I I #
straight-curve $-1 -49.880672627948854 -27.168807539904606 0 0 0 -1 I I #
point $-1 -49.880672627948854 12.910957098395343 -2.1777448458647308 #
straight-curve $-1 -49.880672627948854 10.019941159574987 -2.1777448458647308 0 -1 0 I I #
point $-1 -49.880672627948854 27.168807539904606 -2.1777448458647308 #
straight-curve $-1 -49.880672627948854 27.168807539904606 0 0 0 -1 I I #
straight-curve $-1 27.402214802925222 12.910957098395347 12.695885011452546 -1 0 0 I I #
point $-1 49.880672627948854 12.910957098395347 12.695885011452539 #
straight-curve $-1 46.32182305188438 4.5996154431184735 12.695885011452532 0 -1 0 I I #
point $-1 46.321823051884365 12.910957098395347 12.695885011452546 #
point $-1 46.340124358222553 7.6084910810262016 9.145411325232633 #
point $-1 46.340124358222553 10.789970691447685 9.145411325232633 #
straight-curve $-1 -60.211298588576426 -9.8597512041017126 12.695885011452539 1 0 0 I I #
point $-1 -49.880672627948854 -9.8597512041017126 12.695885011452539 #
straight-curve $-1 -38.093804850831617 -3.5408508925583746 12.695885011452539 0 1 0 I I #
point $-1 -38.093804850831617 -9.8597512041017126 12.695885011452539 #
point $-1 -43.103355252651738 -8.2722943932531621 5.9185675199082839 #
point $-1 -43.103355252651738 -5.8911091769803363 5.9185675199082839 #
straight-curve $-1 -60.211298588576426 -1.2524464718381481 12.695885011452539 1 0 0 I I #
point $-1 -49.880672627948854 -1.2524464718381481 12.695885011452539 #
straight-curve $-1 -38.093804850831617 0.76280147357340766 12.695885011452539 0 1 0 I I #
point $-1 -38.093804850831617 -1.2524464718381481 12.695885011452539 #
point $-1 -43.103355252651738 0.33501033901040245 5.9185675199082839 #
point $-1 -43.103355252651738 2.7161955552832282 5.9185675199082839 #
straight-curve $-1 -49.880672627948854 0 12.695885011452539 0 -1 0 I I #
point $-1 -49.880672627948854 12.910957098395343 12.695885011452539 #
straight-curve $-1 -60.211298588576426 12.910957098395343 12.695885011452539 -1 0 0 I I #
point $-1 -43.103355252651738 8.942315071273967 5.9185675199082839 #
point $-1 -43.103355252651738 11.323500287546793 5.9185675199082839 #
End-of-ACIS-data 