500 0 10 0           
7 Unknown 11 ACIS 5.0 NT 24 Fri Mar 26 03:08:03 1999 
-1 9.9999999999999995e-007 1e-010 
body $-1 $10 $-1 $11 #
body $-1 $12 $-1 $13 #
body $-1 $14 $-1 $15 #
body $-1 $16 $-1 $17 #
body $-1 $18 $-1 $19 #
body $-1 $20 $-1 $21 #
body $-1 $22 $-1 $23 #
body $-1 $24 $-1 $25 #
body $-1 $26 $-1 $27 #
body $-1 $28 $-1 $29 #
lump $-1 $-1 $30 $0 #
transform $-1 1 0 0 0 1 0 0 0 1 71.762443922238845 36.499263334295357 16.038422595676085 1 rotate no_reflect no_shear #
lump $-1 $-1 $31 $1 #
transform $-1 1 0 0 0 1 0 0 0 1 71.762443922238845 36.499263334295357 16.038422595676085 1 rotate no_reflect no_shear #
lump $-1 $-1 $32 $2 #
transform $-1 1 0 0 0 1 0 0 0 1 71.762443922238845 36.499263334295357 16.038422595676085 1 rotate no_reflect no_shear #
lump $-1 $-1 $33 $3 #
transform $-1 1 0 0 0 1 0 0 0 1 71.762443922238845 36.499263334295357 16.038422595676085 1 rotate no_reflect no_shear #
lump $-1 $-1 $34 $4 #
transform $-1 1 0 0 0 1 0 0 0 1 71.762443922238845 36.499263334295357 16.038422595676085 1 rotate no_reflect no_shear #
lump $-1 $-1 $35 $5 #
transform $-1 1 0 0 0 1 0 0 0 1 71.762443922238845 36.499263334295357 16.038422595676085 1 rotate no_reflect no_shear #
lump $-1 $-1 $36 $6 #
transform $-1 1 0 0 0 1 0 0 0 1 71.762443922238845 36.499263334295357 16.038422595676085 1 rotate no_reflect no_shear #
lump $-1 $-1 $37 $7 #
transform $-1 1 0 0 0 1 0 0 0 1 71.762443922238845 36.499263334295357 16.038422595676085 1 rotate no_reflect no_shear #
lump $-1 $-1 $38 $8 #
transform $-1 1 0 0 0 1 0 0 0 1 71.762443922238845 36.499263334295357 16.038422595676085 1 rotate no_reflect no_shear #
lump $-1 $-1 $39 $9 #
transform $-1 1 0 0 0 1 0 0 0 1 71.762443922238845 36.499263334295357 16.038422595676085 1 rotate no_reflect no_shear #
shell $-1 $-1 $-1 $40 $-1 $10 #
shell $-1 $-1 $-1 $41 $-1 $12 #
shell $-1 $-1 $-1 $42 $-1 $14 #
shell $-1 $-1 $-1 $43 $-1 $16 #
shell $-1 $-1 $-1 $44 $-1 $18 #
shell $-1 $-1 $-1 $45 $-1 $20 #
shell $-1 $-1 $-1 $46 $-1 $22 #
shell $-1 $-1 $-1 $47 $-1 $24 #
shell $-1 $-1 $-1 $48 $-1 $26 #
shell $-1 $-1 $-1 $49 $-1 $28 #
face $-1 $50 $51 $30 $-1 $52 reversed single #
face $-1 $53 $54 $31 $-1 $55 forward single #
face $-1 $56 $57 $32 $-1 $58 reversed single #
face $-1 $59 $60 $33 $-1 $61 forward single #
face $-1 $62 $63 $34 $-1 $64 forward single #
face $-1 $65 $66 $35 $-1 $67 forward single #
face $-1 $68 $69 $36 $-1 $70 reversed single #
face $-1 $71 $72 $37 $-1 $73 forward single #
face $-1 $74 $75 $38 $-1 $76 forward single #
face $-1 $77 $78 $39 $-1 $79 forward single #
face $-1 $80 $81 $30 $-1 $82 forward single #
loop $-1 $-1 $83 $40 #
plane-surface $-1 0 -36.499263334295357 0 0 1 0 0 0 1 forward_v I I I I #
face $-1 $84 $85 $31 $-1 $86 reversed single #
loop $-1 $-1 $87 $41 #
plane-surface $-1 0 -36.499263334295357 0 0 1 0 0 0 1 forward_v I I I I #
face $-1 $88 $89 $32 $-1 $90 reversed single #
loop $-1 $-1 $91 $42 #
plane-surface $-1 85.921255781760635 -16.677484862813955 205.80059417016753 0 -1 0 -0.75470958851134928 0 -0.65605901945558964 forward_v I I I I #
face $-1 $92 $93 $33 $-1 $94 forward single #
loop $-1 $95 $96 $43 #
cone-surface $-1 65.526945565392978 -23.745638649192724 9.0641961267268982 -0.75470958851134928 0 -0.65605901945558964 0.32802950972779482 0 -0.37735479425567464 1 I I 0 1 0.5 forward I I I I #
face $-1 $97 $98 $34 $-1 $99 forward single #
loop $-1 $100 $101 $44 #
cone-surface $-1 65.526945565392978 -21.095080979300686 9.0641961267268982 -0.75470958851134928 0 -0.65605901945558964 0.32802950972779482 0 -0.37735479425567464 1 I I 0 1 0.5 forward I I I I #
face $-1 $102 $103 $35 $-1 $104 forward single #
loop $-1 $105 $106 $45 #
cone-surface $-1 65.526945565392978 -18.444523309408648 9.0641961267268982 -0.75470958851134928 0 -0.65605901945558964 0.32802950972779482 0 -0.37735479425567464 1 I I 0 1 0.5 forward I I I I #
face $-1 $107 $108 $36 $-1 $109 reversed single #
loop $-1 $-1 $110 $46 #
plane-surface $-1 -164.01846464423869 28.201166004549457 113.67250125627706 0 1 0 -0.64278761758704617 0 0.76604443648966558 forward_v I I I I #
face $-1 $111 $112 $37 $-1 $113 forward single #
loop $-1 $114 $115 $47 #
cone-surface $-1 -64.104398746248393 29.860785470498634 9.4992187921990485 0.64278761758704617 0 -0.76604443648966558 0.38302221824483279 0 0.32139380879352308 1 I I 0 1 0.5 forward I I I I #
face $-1 $116 $117 $38 $-1 $118 forward single #
loop $-1 $119 $120 $48 #
cone-surface $-1 -64.104398746248393 32.350214669422407 9.4992187921990485 0.64278761758704617 0 -0.76604443648966558 0.38302221824483279 0 0.32139380879352308 1 I I 0 1 0.5 forward I I I I #
face $-1 $121 $122 $39 $-1 $123 forward single #
loop $-1 $124 $125 $49 #
cone-surface $-1 -64.104398746248393 34.83964386834618 9.4992187921990485 0.64278761758704617 0 -0.76604443648966558 0.38302221824483279 0 0.32139380879352308 1 I I 0 1 0.5 forward I I I I #
face $-1 $126 $127 $30 $-1 $128 reversed single #
loop $-1 $-1 $129 $50 #
plane-surface $-1 0 0 16.038422595676085 0 0 1 1 0 0 forward_v I I I I #
coedge $-1 $130 $131 $132 $133 reversed $51 $-1 #
face $-1 $134 $135 $31 $-1 $136 reversed single #
loop $-1 $-1 $137 $53 #
plane-surface $-1 0 0 -16.038422595676085 0 0 1 1 0 0 forward_v I I I I #
coedge $-1 $138 $139 $140 $141 forward $54 $-1 #
face $-1 $142 $143 $32 $-1 $144 reversed single #
loop $-1 $-1 $145 $56 #
plane-surface $-1 -22.398353264482679 -21.095080979300686 111.63979698344602 0.75470958851134928 0 0.65605901945558964 0.65605901945558964 0 -0.75470958851134928 forward_v I I I I #
coedge $-1 $146 $147 $148 $149 reversed $57 $-1 #
face $-1 $-1 $150 $33 $-1 $151 forward single #
loop $-1 $152 $153 $59 #
cone-surface $-1 64.630666028891739 -23.745638649192724 8.2850722321504939 -0.75470958851134928 0 -0.65605901945558964 0.16401475486389741 0 -0.18867739712783732 1 I I -0.70710678118654746 0.70710678118654746 0.25 forward I I I I #
loop $-1 $-1 $154 $43 #
coedge $-1 $96 $96 $155 $156 reversed $60 $-1 #
face $-1 $-1 $157 $34 $-1 $158 forward single #
loop $-1 $159 $160 $62 #
cone-surface $-1 64.630666028891739 -21.095080979300686 8.2850722321504939 -0.75470958851134928 0 -0.65605901945558964 0.16401475486389741 0 -0.18867739712783732 1 I I -0.70710678118654746 0.70710678118654746 0.25 forward I I I I #
loop $-1 $-1 $161 $44 #
coedge $-1 $101 $101 $162 $163 reversed $63 $-1 #
face $-1 $-1 $164 $35 $-1 $165 forward single #
loop $-1 $166 $167 $65 #
cone-surface $-1 64.630666028891739 -18.444523309408648 8.2850722321504939 -0.75470958851134928 0 -0.65605901945558964 0.16401475486389741 0 -0.18867739712783732 1 I I -0.70710678118654746 0.70710678118654746 0.25 forward I I I I #
loop $-1 $-1 $168 $45 #
coedge $-1 $106 $106 $169 $170 reversed $66 $-1 #
face $-1 $171 $172 $36 $-1 $173 reversed single #
loop $-1 $-1 $174 $68 #
plane-surface $-1 -71.762443922238873 32.350214669422407 3.7260594252116874 -0.64278761758704617 0 0.76604443648966558 0.76604443648966558 0 0.64278761758704617 forward_v I I I I #
coedge $-1 $175 $176 $177 $178 reversed $69 $-1 #
face $-1 $-1 $179 $37 $-1 $180 forward single #
loop $-1 $181 $182 $71 #
cone-surface $-1 -63.622308033058104 29.860785470498634 8.9246854648317999 0.64278761758704617 0 -0.76604443648966558 0.1915111091224164 0 0.16069690439676154 1 I I -0.70710678118654746 0.70710678118654746 0.25 forward I I I I #
loop $-1 $-1 $183 $47 #
coedge $-1 $115 $115 $184 $185 reversed $72 $-1 #
face $-1 $-1 $186 $38 $-1 $187 forward single #
loop $-1 $188 $189 $74 #
cone-surface $-1 -63.622308033058104 32.350214669422407 8.9246854648317999 0.64278761758704617 0 -0.76604443648966558 0.1915111091224164 0 0.16069690439676154 1 I I -0.70710678118654746 0.70710678118654746 0.25 forward I I I I #
loop $-1 $-1 $190 $48 #
coedge $-1 $120 $120 $191 $192 reversed $75 $-1 #
face $-1 $-1 $193 $39 $-1 $194 forward single #
loop $-1 $195 $196 $77 #
cone-surface $-1 -63.622308033058104 34.83964386834618 8.9246854648317999 0.64278761758704617 0 -0.76604443648966558 0.1915111091224164 0 0.16069690439676154 1 I I -0.70710678118654746 0.70710678118654746 0.25 forward I I I I #
loop $-1 $-1 $197 $49 #
coedge $-1 $125 $125 $198 $199 reversed $78 $-1 #
face $-1 $200 $201 $30 $-1 $202 reversed single #
loop $-1 $-1 $203 $80 #
plane-surface $-1 0 0 -16.038422595676085 0 0 1 1 0 0 forward_v I I I I #
coedge $-1 $204 $205 $206 $207 forward $81 $-1 #
coedge $-1 $208 $83 $209 $210 reversed $51 $-1 #
coedge $-1 $83 $208 $211 $212 forward $51 $-1 #
coedge $-1 $213 $203 $83 $133 forward $127 $-1 #
edge $-1 $214 -71.762443922238845 $215 71.762443922238845 $83 $216 forward 7 unknown #
face $-1 $217 $218 $31 $-1 $219 reversed single #
loop $-1 $-1 $220 $84 #
plane-surface $-1 -46.296376181496463 -47.485849572803296 0 0 1 0 0 0 1 forward_v I I I I #
coedge $-1 $221 $222 $139 $223 forward $85 $-1 #
coedge $-1 $224 $87 $225 $226 reversed $54 $-1 #
coedge $-1 $87 $224 $137 $223 reversed $54 $-1 #
coedge $-1 $227 $228 $87 $141 reversed $218 $-1 #
edge $-1 $229 -16.038422595676085 $230 16.038422595676085 $140 $231 forward 7 unknown #
face $-1 $232 $233 $32 $-1 $234 forward single #
loop $-1 $-1 $235 $88 #
plane-surface $-1 85.921255781760635 -25.512677095787417 205.80059417016753 0 1 0 0.75470958851134928 0 0.65605901945558964 forward_v I I I I #
coedge $-1 $236 $237 $238 $239 reversed $89 $-1 #
coedge $-1 $147 $91 $240 $241 reversed $57 $-1 #
coedge $-1 $91 $146 $236 $242 reversed $57 $-1 #
coedge $-1 $238 $243 $91 $149 forward $233 $-1 #
edge $-1 $244 -28.801816031358527 $245 -17.746023596413636 $148 $246 forward 7 unknown #
loop $-1 $-1 $155 $92 #
plane-surface $-1 -22.398353264482679 -21.095080979300686 111.63979698344602 0.75470958851134928 0 0.65605901945558964 0.65605901945558964 0 -0.75470958851134928 forward_v I I I I #
loop $-1 $-1 $247 $59 #
coedge $-1 $153 $153 $154 $248 reversed $93 $-1 #
coedge $-1 $154 $154 $153 $248 forward $95 $-1 #
coedge $-1 $155 $155 $96 $156 forward $150 $-1 #
edge $-1 $249 0 $249 6.2831853071796004 $155 $250 forward 7 unknown #
loop $-1 $-1 $162 $97 #
plane-surface $-1 -22.398353264482679 -21.095080979300686 111.63979698344602 0.75470958851134928 0 0.65605901945558964 0.65605901945558964 0 -0.75470958851134928 forward_v I I I I #
loop $-1 $-1 $251 $62 #
coedge $-1 $160 $160 $161 $252 reversed $98 $-1 #
coedge $-1 $161 $161 $160 $252 forward $100 $-1 #
coedge $-1 $162 $162 $101 $163 forward $157 $-1 #
edge $-1 $253 0 $253 6.2831853071796004 $162 $254 forward 7 unknown #
loop $-1 $-1 $169 $102 #
plane-surface $-1 -22.398353264482679 -21.095080979300686 111.63979698344602 0.75470958851134928 0 0.65605901945558964 0.65605901945558964 0 -0.75470958851134928 forward_v I I I I #
loop $-1 $-1 $255 $65 #
coedge $-1 $167 $167 $168 $256 reversed $103 $-1 #
coedge $-1 $168 $168 $167 $256 forward $105 $-1 #
coedge $-1 $169 $169 $106 $170 forward $164 $-1 #
edge $-1 $257 0 $257 6.2831853071796004 $169 $258 forward 7 unknown #
face $-1 $259 $260 $36 $-1 $261 reversed single #
loop $-1 $-1 $262 $107 #
plane-surface $-1 0 36.499263334295357 0 0 -1 0 0 0 -1 forward_v I I I I #
coedge $-1 $263 $264 $265 $266 reversed $108 $-1 #
coedge $-1 $176 $110 $267 $268 reversed $69 $-1 #
coedge $-1 $110 $175 $263 $269 reversed $69 $-1 #
coedge $-1 $265 $270 $110 $178 forward $271 $-1 #
edge $-1 $272 10.246788399880501 $273 24.920091134274323 $177 $274 forward 7 unknown #
loop $-1 $-1 $184 $111 #
plane-surface $-1 -71.762443922238873 32.350214669422407 3.7260594252116874 -0.64278761758704617 0 0.76604443648966558 0.76604443648966558 0 0.64278761758704617 forward_v I I I I #
loop $-1 $-1 $275 $71 #
coedge $-1 $182 $182 $183 $276 reversed $112 $-1 #
coedge $-1 $183 $183 $182 $276 forward $114 $-1 #
coedge $-1 $184 $184 $115 $185 forward $179 $-1 #
edge $-1 $277 0 $277 6.2831853071796004 $184 $278 forward 7 unknown #
loop $-1 $-1 $191 $116 #
plane-surface $-1 -71.762443922238873 32.350214669422407 3.7260594252116874 -0.64278761758704617 0 0.76604443648966558 0.76604443648966558 0 0.64278761758704617 forward_v I I I I #
loop $-1 $-1 $279 $74 #
coedge $-1 $189 $189 $190 $280 reversed $117 $-1 #
coedge $-1 $190 $190 $189 $280 forward $119 $-1 #
coedge $-1 $191 $191 $120 $192 forward $186 $-1 #
edge $-1 $281 0 $281 6.2831853071796004 $191 $282 forward 7 unknown #
loop $-1 $-1 $198 $121 #
plane-surface $-1 -71.762443922238873 32.350214669422407 3.7260594252116874 -0.64278761758704617 0 0.76604443648966558 0.76604443648966558 0 0.64278761758704617 forward_v I I I I #
loop $-1 $-1 $283 $77 #
coedge $-1 $196 $196 $197 $284 reversed $122 $-1 #
coedge $-1 $197 $197 $196 $284 forward $124 $-1 #
coedge $-1 $198 $198 $125 $199 forward $193 $-1 #
edge $-1 $285 0 $285 6.2831853071796004 $198 $286 forward 7 unknown #
face $-1 $287 $288 $30 $-1 $289 reversed single #
loop $-1 $-1 $290 $126 #
plane-surface $-1 -71.762443922238845 0 0 1 0 0 0 0 -1 forward_v I I I I #
coedge $-1 $132 $291 $292 $293 forward $127 $-1 #
coedge $-1 $294 $129 $295 $296 forward $81 $-1 #
coedge $-1 $129 $294 $208 $297 forward $81 $-1 #
coedge $-1 $209 $298 $129 $207 reversed $299 $-1 #
edge $-1 $300 -36.499263334295357 $301 36.499263334295357 $206 $302 forward 7 unknown #
coedge $-1 $131 $130 $205 $297 reversed $51 $-1 #
coedge $-1 $292 $206 $130 $210 forward $299 $-1 #
edge $-1 $300 -16.038422595676085 $214 16.038422595676085 $209 $303 forward 7 unknown #
coedge $-1 $304 $305 $131 $212 reversed $201 $-1 #
edge $-1 $306 -16.038422595676085 $215 16.038422595676085 $211 $307 forward 7 unknown #
coedge $-1 $291 $132 $305 $308 forward $127 $-1 #
vertex $-1 $210 $309 #
vertex $-1 $308 $310 #
straight-curve $-1 0 -36.499263334295357 -16.038422595676085 -1 0 0 I I #
face $-1 $311 $312 $31 $-1 $313 reversed single #
loop $-1 $-1 $140 $134 #
plane-surface $-1 -50.621468914495289 -41.992556453549327 0 1 0 0 0 0 -1 forward_v I I I I #
coedge $-1 $314 $315 $316 $317 forward $135 $-1 #
coedge $-1 $318 $137 $319 $320 forward $85 $-1 #
coedge $-1 $137 $318 $227 $321 forward $85 $-1 #
edge $-1 $229 -50.621468914495289 $322 -41.971283448497637 $137 $323 forward 7 unknown #
coedge $-1 $139 $138 $324 $325 forward $54 $-1 #
coedge $-1 $326 $327 $138 $226 forward $328 $-1 #
edge $-1 $329 41.971283448497637 $230 50.621468914495289 $225 $330 forward 7 unknown #
coedge $-1 $316 $140 $222 $321 reversed $218 $-1 #
coedge $-1 $140 $316 $326 $331 reversed $218 $-1 #
vertex $-1 $223 $332 #
vertex $-1 $331 $333 #
straight-curve $-1 -50.621468914495289 -36.499263334295357 0 0 0 1 I I #
face $-1 $-1 $334 $32 $-1 $335 reversed single #
loop $-1 $-1 $148 $142 #
plane-surface $-1 0 0 16.038422595676085 0 0 1 1 0 0 forward_v I I I I #
coedge $-1 $336 $337 $338 $339 reversed $143 $-1 #
coedge $-1 $340 $145 $147 $242 forward $89 $-1 #
coedge $-1 $145 $340 $336 $341 forward $89 $-1 #
coedge $-1 $338 $148 $145 $239 forward $233 $-1 #
edge $-1 $245 6.1299443731636121 $342 14.965136606137074 $238 $343 forward 7 unknown #
coedge $-1 $344 $345 $146 $241 forward $334 $-1 #
edge $-1 $346 -99.580109147881075 $244 -86.861874489407683 $240 $347 forward 7 unknown #
edge $-1 $245 126.67306185461602 $346 143.52488784447775 $147 $348 forward 7 unknown #
coedge $-1 $148 $338 $344 $349 forward $233 $-1 #
vertex $-1 $149 $350 #
vertex $-1 $149 $351 #
straight-curve $-1 42.960627890880318 -16.677484862813955 16.038422595676082 -1 0 0 I I #
coedge $-1 $247 $247 $-1 $352 reversed $152 $-1 #
edge $-1 $353 0 $353 6.2831853071796004 $153 $354 forward 7 unknown #
vertex $-1 $156 $355 #
ellipse-curve $-1 66.234547704766385 -23.745638649192724 9.6793052664394033 0.75470958851134928 0 0.65605901945558964 0.32802950972779482 0 -0.37735479425567464 1 I I #
coedge $-1 $251 $251 $-1 $356 reversed $159 $-1 #
edge $-1 $357 0 $357 6.2831853071796004 $160 $358 forward 7 unknown #
vertex $-1 $163 $359 #
ellipse-curve $-1 66.234547704766385 -21.095080979300686 9.6793052664394033 0.75470958851134928 0 0.65605901945558964 0.32802950972779482 0 -0.37735479425567464 1 I I #
coedge $-1 $255 $255 $-1 $360 reversed $166 $-1 #
edge $-1 $361 0 $361 6.2831853071796004 $167 $362 forward 7 unknown #
vertex $-1 $170 $363 #
ellipse-curve $-1 66.234547704766385 -18.444523309408648 9.6793052664394033 0.75470958851134928 0 0.65605901945558964 0.32802950972779482 0 -0.37735479425567464 1 I I #
face $-1 $-1 $271 $36 $-1 $364 forward single #
loop $-1 $-1 $365 $171 #
plane-surface $-1 -71.762443922238845 0 0 1 0 0 0 0 -1 forward_v I I I I #
coedge $-1 $366 $367 $264 $368 forward $172 $-1 #
coedge $-1 $369 $174 $176 $269 forward $108 $-1 #
coedge $-1 $174 $369 $262 $368 reversed $108 $-1 #
coedge $-1 $370 $177 $174 $266 forward $271 $-1 #
edge $-1 $273 12.026058669838253 $371 20.324155999584153 $265 $372 forward 7 unknown #
coedge $-1 $373 $365 $175 $268 forward $260 $-1 #
edge $-1 $374 -53.110191202926821 $272 -40.797828032462448 $267 $375 forward 7 unknown #
edge $-1 $273 -19.154636513820311 $374 -3.7186864825251173e-014 $176 $376 forward 7 unknown #
coedge $-1 $177 $370 $373 $377 forward $271 $-1 #
loop $-1 $-1 $265 $259 #
vertex $-1 $268 $378 #
vertex $-1 $178 $379 #
straight-curve $-1 -82.009232322119345 28.201166004549457 16.038422595676082 1 0 0 I I #
coedge $-1 $275 $275 $-1 $380 reversed $181 $-1 #
edge $-1 $381 0 $381 6.2831853071796004 $182 $382 forward 7 unknown #
vertex $-1 $185 $383 #
ellipse-curve $-1 -64.425792555041937 29.860785470498634 9.8822410104439005 -0.64278761758704617 0 0.76604443648966558 0.38302221824483279 0 0.32139380879352308 1 I I #
coedge $-1 $279 $279 $-1 $384 reversed $188 $-1 #
edge $-1 $385 0 $385 6.2831853071796004 $189 $386 forward 7 unknown #
vertex $-1 $192 $387 #
ellipse-curve $-1 -64.425792555041937 32.350214669422407 9.8822410104439005 -0.64278761758704617 0 0.76604443648966558 0.38302221824483279 0 0.32139380879352308 1 I I #
coedge $-1 $283 $283 $-1 $388 reversed $195 $-1 #
edge $-1 $389 0 $389 6.2831853071796004 $196 $390 forward 7 unknown #
vertex $-1 $199 $391 #
ellipse-curve $-1 -64.425792555041937 34.83964386834618 9.8822410104439005 -0.64278761758704617 0 0.76604443648966558 0.38302221824483279 0 0.32139380879352308 1 I I #
face $-1 $-1 $299 $30 $-1 $392 reversed single #
loop $-1 $-1 $393 $200 #
plane-surface $-1 0 36.499263334295357 0 0 -1 0 0 0 -1 forward_v I I I I #
coedge $-1 $305 $304 $394 $395 forward $201 $-1 #
coedge $-1 $203 $213 $396 $397 forward $127 $-1 #
coedge $-1 $298 $209 $203 $293 reversed $299 $-1 #
edge $-1 $398 -36.499263334295357 $214 36.499263334295357 $292 $399 forward 7 unknown #
coedge $-1 $205 $204 $304 $400 forward $81 $-1 #
coedge $-1 $393 $394 $204 $296 reversed $288 $-1 #
edge $-1 $301 -71.762443922238845 $401 71.762443922238845 $295 $402 forward 7 unknown #
edge $-1 $306 -71.762443922238845 $300 71.762443922238845 $208 $403 forward 7 unknown #
coedge $-1 $206 $292 $393 $404 reversed $299 $-1 #
loop $-1 $-1 $209 $287 #
vertex $-1 $207 $405 #
vertex $-1 $207 $406 #
straight-curve $-1 71.762443922238845 0 16.038422595676085 0 1 0 I I #
straight-curve $-1 71.762443922238845 -36.499263334295357 0 0 0 -1 I I #
coedge $-1 $290 $211 $294 $400 reversed $201 $-1 #
coedge $-1 $211 $290 $213 $308 reversed $201 $-1 #
vertex $-1 $400 $407 #
straight-curve $-1 -71.762443922238845 -36.499263334295357 0 0 0 -1 I I #
edge $-1 $215 -36.499263334295357 $408 36.499263334295357 $305 $409 forward 7 unknown #
point $-1 71.762443922238845 -36.499263334295357 -16.038422595676085 #
point $-1 -71.762443922238845 -36.499263334295357 -16.038422595676085 #
face $-1 $-1 $328 $31 $-1 $410 forward single #
loop $-1 $-1 $411 $217 #
plane-surface $-1 -41.971283448497637 -41.992556453549327 0 -1 0 0 0 0 1 forward_v I I I I #
coedge $-1 $412 $220 $318 $413 reversed $135 $-1 #
coedge $-1 $220 $412 $414 $415 reversed $135 $-1 #
coedge $-1 $228 $227 $220 $317 reversed $218 $-1 #
edge $-1 $416 -16.038422595676085 $417 16.038422595676085 $316 $418 forward 7 unknown #
coedge $-1 $222 $221 $314 $413 forward $85 $-1 #
coedge $-1 $324 $411 $221 $320 reversed $312 $-1 #
edge $-1 $322 -5.4932931192539698 $419 5.4932931192539698 $319 $420 forward 7 unknown #
edge $-1 $417 -5.4932931192539698 $229 5.4932931192539698 $227 $421 forward 7 unknown #
vertex $-1 $320 $422 #
straight-curve $-1 0 -36.499263334295357 -16.038422595676085 1 0 0 I I #
coedge $-1 $423 $319 $224 $325 reversed $312 $-1 #
edge $-1 $329 -16.038422595676085 $322 16.038422595676085 $324 $424 forward 7 unknown #
coedge $-1 $414 $225 $228 $331 forward $328 $-1 #
coedge $-1 $225 $414 $423 $425 forward $328 $-1 #
loop $-1 $-1 $225 $311 #
vertex $-1 $226 $426 #
straight-curve $-1 0 -36.499263334295357 16.038422595676085 -1 0 0 I I #
edge $-1 $230 -5.4932931192539698 $416 5.4932931192539698 $228 $427 forward 7 unknown #
point $-1 -50.621468914495289 -36.499263334295357 -16.038422595676085 #
point $-1 -50.621468914495289 -36.499263334295357 16.038422595676085 #
loop $-1 $-1 $240 $232 #
plane-surface $-1 71.762443922238845 0 0 -1 0 0 0 0 1 forward_v I I I I #
coedge $-1 $337 $235 $237 $341 reversed $143 $-1 #
coedge $-1 $235 $336 $428 $429 reversed $143 $-1 #
coedge $-1 $243 $238 $235 $339 forward $233 $-1 #
edge $-1 $342 17.746023596413636 $430 28.801816031358527 $338 $431 forward 7 unknown #
coedge $-1 $237 $236 $345 $432 reversed $89 $-1 #
edge $-1 $433 -143.52488784447775 $342 -126.67306185461602 $336 $434 forward 7 unknown #
vertex $-1 $239 $435 #
straight-curve $-1 60.706651487293954 -10.547540489650343 16.038422595676074 0 -1 0 I I #
coedge $-1 $428 $240 $243 $349 reversed $334 $-1 #
coedge $-1 $240 $428 $340 $432 forward $334 $-1 #
vertex $-1 $241 $436 #
straight-curve $-1 71.762443922238845 -16.677484862813955 102.90029708508376 0 0 1 I I #
straight-curve $-1 -22.398353264482679 -16.677484862813955 111.63979698344602 0.65605901945558964 0 -0.75470958851134928 I I #
edge $-1 $430 -25.512677095787417 $244 -16.677484862813955 $344 $437 forward 7 unknown #
point $-1 71.762443922238845 -16.677484862813955 16.038422595676085 #
point $-1 60.706651487293954 -16.677484862813955 16.038422595676082 #
edge $-1 $438 1 $438 0 $247 $-1 forward 7 unknown #
vertex $-1 $248 $439 #
ellipse-curve $-1 64.819343426019572 -23.745638649192724 8.4490869870143914 0.75470958851134928 0 0.65605901945558964 0.32802950972779482 0 -0.37735479425567464 1 I I #
point $-1 66.562577214494183 -23.745638649192724 9.3019504721837318 #
edge $-1 $440 1 $440 0 $251 $-1 forward 7 unknown #
vertex $-1 $252 $441 #
ellipse-curve $-1 64.819343426019572 -21.095080979300686 8.4490869870143914 0.75470958851134928 0 0.65605901945558964 0.32802950972779482 0 -0.37735479425567464 1 I I #
point $-1 66.562577214494183 -21.095080979300686 9.3019504721837318 #
edge $-1 $442 1 $442 0 $255 $-1 forward 7 unknown #
vertex $-1 $256 $443 #
ellipse-curve $-1 64.819343426019572 -18.444523309408648 8.4490869870143914 0.75470958851134928 0 0.65605901945558964 0.32802950972779482 0 -0.37735479425567464 1 I I #
point $-1 66.562577214494183 -18.444523309408648 9.3019504721837318 #
plane-surface $-1 0 0 16.038422595676085 0 0 1 1 0 0 forward_v I I I I #
coedge $-1 $267 $444 $369 $445 forward $260 $-1 #
coedge $-1 $367 $262 $444 $446 reversed $172 $-1 #
coedge $-1 $262 $366 $370 $447 reversed $172 $-1 #
edge $-1 $371 7.134441513486256 $448 26.289078027306527 $262 $449 forward 7 unknown #
coedge $-1 $264 $263 $365 $445 reversed $108 $-1 #
coedge $-1 $270 $265 $367 $447 forward $271 $-1 #
vertex $-1 $447 $450 #
straight-curve $-1 -57.089141187845016 16.175107334711203 16.038422595676085 0 1 0 I I #
coedge $-1 $444 $267 $270 $377 reversed $260 $-1 #
vertex $-1 $268 $451 #
straight-curve $-1 -71.762443922238845 28.201166004549457 56.836250628138529 0 0 1 I I #
straight-curve $-1 -71.762443922238873 28.201166004549457 3.7260594252116874 -0.76604443648966558 0 -0.64278761758704617 I I #
edge $-1 $452 -36.499263334295357 $272 -28.201166004549457 $373 $453 forward 7 unknown #
point $-1 -71.762443922238845 28.201166004549457 16.038422595676085 #
point $-1 -57.089141187845023 28.201166004549457 16.038422595676089 #
edge $-1 $454 1 $454 0 $275 $-1 forward 7 unknown #
vertex $-1 $276 $455 #
ellipse-curve $-1 -63.783004937454862 29.860785470498634 9.1161965739542161 -0.64278761758704617 0 0.76604443648966558 0.38302221824483279 0 0.32139380879352308 1 I I #
point $-1 -64.042770336797076 29.860785470498634 10.203634819237404 #
edge $-1 $456 1 $456 0 $279 $-1 forward 7 unknown #
vertex $-1 $280 $457 #
ellipse-curve $-1 -63.783004937454862 32.350214669422407 9.1161965739542161 -0.64278761758704617 0 0.76604443648966558 0.38302221824483279 0 0.32139380879352308 1 I I #
point $-1 -64.042770336797076 32.350214669422407 10.203634819237404 #
edge $-1 $458 1 $458 0 $283 $-1 forward 7 unknown #
vertex $-1 $284 $459 #
ellipse-curve $-1 -63.783004937454862 34.83964386834618 9.1161965739542161 -0.64278761758704617 0 0.76604443648966558 0.38302221824483279 0 0.32139380879352308 1 I I #
point $-1 -64.042770336797076 34.83964386834618 10.203634819237404 #
plane-surface $-1 71.762443922238845 0 0 -1 0 0 0 0 1 forward_v I I I I #
coedge $-1 $396 $295 $298 $404 forward $288 $-1 #
coedge $-1 $295 $396 $290 $395 reversed $288 $-1 #
edge $-1 $401 -16.038422595676085 $408 16.038422595676085 $394 $460 forward 7 unknown #
coedge $-1 $394 $393 $291 $397 reversed $288 $-1 #
edge $-1 $408 -71.762443922238845 $398 71.762443922238845 $396 $461 forward 7 unknown #
vertex $-1 $293 $462 #
straight-curve $-1 71.762443922238845 0 -16.038422595676085 0 -1 0 I I #
edge $-1 $401 -36.499263334295357 $306 36.499263334295357 $304 $463 forward 7 unknown #
vertex $-1 $296 $464 #
straight-curve $-1 0 36.499263334295357 16.038422595676085 -1 0 0 I I #
straight-curve $-1 0 -36.499263334295357 16.038422595676085 1 0 0 I I #
edge $-1 $301 -16.038422595676085 $398 16.038422595676085 $298 $465 forward 7 unknown #
point $-1 71.762443922238845 -36.499263334295357 16.038422595676085 #
point $-1 71.762443922238845 36.499263334295357 16.038422595676085 #
point $-1 -71.762443922238845 -36.499263334295357 16.038422595676085 #
vertex $-1 $397 $466 #
straight-curve $-1 -71.762443922238845 0 -16.038422595676085 0 1 0 I I #
plane-surface $-1 0 0 16.038422595676085 0 0 1 1 0 0 forward_v I I I I #
coedge $-1 $319 $423 $412 $467 forward $312 $-1 #
coedge $-1 $315 $314 $411 $467 reversed $135 $-1 #
edge $-1 $419 -4.3250927329988258 $417 4.3250927329988258 $314 $468 forward 7 unknown #
coedge $-1 $327 $326 $315 $415 forward $328 $-1 #
edge $-1 $416 -4.3250927329988258 $469 4.3250927329988258 $315 $470 forward 7 unknown #
vertex $-1 $331 $471 #
vertex $-1 $321 $472 #
straight-curve $-1 -50.621468914495289 -47.485849572803296 0 0 0 -1 I I #
vertex $-1 $467 $473 #
straight-curve $-1 -41.971283448497637 -41.992556453549327 -16.038422595676085 0 -1 0 I I #
straight-curve $-1 -50.621468914495289 -41.992556453549327 -16.038422595676085 0 1 0 I I #
point $-1 -41.971283448497637 -36.499263334295357 -16.038422595676085 #
coedge $-1 $411 $324 $327 $425 reversed $312 $-1 #
straight-curve $-1 -41.971283448497637 -36.499263334295357 0 0 0 -1 I I #
edge $-1 $469 -5.4932931192539698 $329 5.4932931192539698 $423 $474 forward 7 unknown #
point $-1 -41.971283448497637 -36.499263334295357 16.038422595676085 #
straight-curve $-1 -50.621468914495289 -41.992556453549327 16.038422595676085 0 -1 0 I I #
coedge $-1 $345 $344 $337 $429 forward $334 $-1 #
edge $-1 $430 86.861874489407683 $433 99.580109147881075 $428 $475 forward 7 unknown #
vertex $-1 $349 $476 #
straight-curve $-1 42.960627890880318 -25.512677095787417 16.038422595676082 1 0 0 I I #
edge $-1 $433 -14.965136606137074 $346 -6.1299443731636121 $345 $477 forward 7 unknown #
vertex $-1 $432 $478 #
straight-curve $-1 -22.398353264482679 -25.512677095787417 111.63979698344602 -0.65605901945558964 0 0.75470958851134928 I I #
point $-1 60.706651487293954 -25.512677095787417 16.038422595676082 #
point $-1 71.762443922238845 -16.677484862813955 3.3201879372026895 #
straight-curve $-1 71.762443922238845 0 16.038422595676085 0 1 0 I I #
vertex $-1 $352 $479 #
point $-1 65.14737293574737 -23.745638649192724 8.0717321927587165 #
vertex $-1 $356 $480 #
point $-1 65.14737293574737 -21.095080979300686 8.0717321927587165 #
vertex $-1 $360 $481 #
point $-1 65.14737293574737 -18.444523309408648 8.0717321927587165 #
coedge $-1 $365 $373 $366 $446 forward $260 $-1 #
edge $-1 $448 -20.324155999584153 $374 -12.026058669838253 $365 $482 forward 7 unknown #
edge $-1 $452 -16.038422595676085 $448 -3.7260594252117114 $366 $483 forward 7 unknown #
edge $-1 $371 57.089141187845023 $452 71.762443922238845 $367 $484 forward 7 unknown #
vertex $-1 $445 $485 #
straight-curve $-1 -51.623841958977962 36.499263334295357 20.624353258944033 -0.76604443648966558 0 -0.64278761758704617 I I #
point $-1 -57.089141187845023 36.499263334295357 16.038422595676089 #
point $-1 -71.762443922238845 28.201166004549457 3.7260594252117114 #
vertex $-1 $447 $486 #
straight-curve $-1 -71.762443922238845 0 16.038422595676085 0 -1 0 I I #
vertex $-1 $380 $487 #
point $-1 -63.39998271921003 29.860785470498634 9.4375903827477394 #
vertex $-1 $384 $488 #
point $-1 -63.39998271921003 32.350214669422407 9.4375903827477394 #
vertex $-1 $388 $489 #
point $-1 -63.39998271921003 34.83964386834618 9.4375903827477394 #
straight-curve $-1 -71.762443922238845 36.499263334295357 0 0 0 -1 I I #
straight-curve $-1 0 36.499263334295357 -16.038422595676085 1 0 0 I I #
point $-1 71.762443922238845 36.499263334295357 -16.038422595676085 #
straight-curve $-1 -71.762443922238845 0 16.038422595676085 0 -1 0 I I #
point $-1 -71.762443922238845 36.499263334295357 16.038422595676085 #
straight-curve $-1 71.762443922238845 36.499263334295357 0 0 0 -1 I I #
point $-1 -71.762443922238845 36.499263334295357 -16.038422595676085 #
edge $-1 $469 -16.038422595676085 $419 16.038422595676085 $411 $490 forward 7 unknown #
straight-curve $-1 -46.296376181496463 -47.485849572803296 -16.038422595676085 -1 0 0 I I #
vertex $-1 $425 $491 #
straight-curve $-1 -46.296376181496463 -47.485849572803296 16.038422595676085 1 0 0 I I #
point $-1 -50.621468914495289 -47.485849572803296 16.038422595676085 #
point $-1 -50.621468914495289 -47.485849572803296 -16.038422595676085 #
point $-1 -41.971283448497637 -47.485849572803296 -16.038422595676085 #
straight-curve $-1 -41.971283448497637 -41.992556453549327 16.038422595676085 0 1 0 I I #
straight-curve $-1 71.762443922238845 -25.512677095787417 102.90029708508376 0 0 -1 I I #
point $-1 71.762443922238845 -25.512677095787417 16.038422595676085 #
straight-curve $-1 71.762443922238845 -10.547540489650343 3.3201879372026895 0 1 0 I I #
point $-1 71.762443922238845 -25.512677095787417 3.3201879372026895 #
point $-1 64.441988631763905 -23.745638649192724 8.1210574772865964 #
point $-1 64.441988631763905 -21.095080979300686 8.1210574772865964 #
point $-1 64.441988631763905 -18.444523309408648 8.1210574772865964 #
straight-curve $-1 -71.762443922238845 16.175107334711203 3.7260594252117079 0 -1 0 I I #
straight-curve $-1 -71.762443922238845 36.499263334295357 0 0 0 -1 I I #
straight-curve $-1 0 36.499263334295357 16.038422595676085 -1 0 0 I I #
point $-1 -71.762443922238845 36.499263334295357 3.7260594252117114 #
point $-1 -71.762443922238845 36.499263334295357 16.038422595676085 #
point $-1 -63.461611128661346 29.860785470498634 8.7331743557093837 #
point $-1 -63.461611128661346 32.350214669422407 8.7331743557093837 #
point $-1 -63.461611128661346 34.83964386834618 8.7331743557093837 #
straight-curve $-1 -41.971283448497637 -47.485849572803296 0 0 0 -1 I I #
point $-1 -41.971283448497637 -47.485849572803296 16.038422595676085 #
End-of-ACIS-data 