500 0 2 0           
7 Unknown 11 ACIS 5.0 NT 24 Fri Mar 26 02:10:46 1999 
-1 9.9999999999999995e-007 1e-010 
body $-1 $2 $-1 $3 #
body $-1 $4 $-1 $5 #
lump $-1 $-1 $6 $0 #
transform $-1 1 0 0 0 1 0 0 0 1 57.517624439222388 31.772927424683026 10.001000890085704 1 rotate no_reflect no_shear #
lump $-1 $-1 $7 $1 #
transform $-1 1 0 0 0 1 0 0 0 1 57.517624439222388 31.772927424683026 10.001000890085704 1 rotate no_reflect no_shear #
shell $-1 $-1 $-1 $8 $-1 $2 #
shell $-1 $-1 $-1 $9 $-1 $4 #
face $-1 $10 $11 $6 $-1 $12 forward single #
face $-1 $13 $14 $7 $-1 $15 forward single #
face $-1 $16 $17 $6 $-1 $18 reversed single #
loop $-1 $-1 $19 $8 #
plane-surface $-1 0 0 10.001000890085704 0 0 1 1 0 0 forward_v I I I I #
face $-1 $20 $21 $7 $-1 $22 reversed single #
loop $-1 $-1 $23 $9 #
plane-surface $-1 -57.517624439222388 0 0 1 0 0 0 0 -1 forward_v I I I I #
face $-1 $24 $25 $6 $-1 $26 reversed single #
loop $-1 $-1 $27 $10 #
plane-surface $-1 0 0 -10.001000890085704 0 0 1 1 0 0 forward_v I I I I #
coedge $-1 $28 $29 $30 $31 forward $11 $-1 #
face $-1 $32 $33 $7 $-1 $34 forward single #
loop $-1 $-1 $35 $13 #
plane-surface $-1 0 31.772927424683026 0 0 -1 0 0 0 -1 forward_v I I I I #
coedge $-1 $36 $37 $38 $39 forward $14 $-1 #
face $-1 $40 $41 $6 $-1 $42 reversed single #
loop $-1 $-1 $43 $16 #
plane-surface $-1 0 -31.772927424683026 0 0 1 0 0 0 1 forward_v I I I I #
coedge $-1 $44 $45 $46 $47 forward $17 $-1 #
coedge $-1 $48 $19 $49 $50 forward $11 $-1 #
coedge $-1 $19 $48 $51 $52 forward $11 $-1 #
coedge $-1 $53 $54 $19 $31 reversed $55 $-1 #
edge $-1 $56 -31.772927424683026 $57 31.772927424683026 $30 $58 forward 7 unknown #
face $-1 $59 $60 $7 $-1 $61 reversed single #
loop $-1 $-1 $38 $20 #
plane-surface $-1 -62.251821185830572 0 -6.0094517876239957 0 0 1 1 0 0 forward_v I I I I #
coedge $-1 $62 $63 $37 $64 forward $21 $-1 #
coedge $-1 $65 $23 $66 $67 reversed $14 $-1 #
coedge $-1 $23 $65 $35 $64 reversed $14 $-1 #
coedge $-1 $68 $69 $23 $39 reversed $33 $-1 #
edge $-1 $70 -31.772927424683026 $71 31.772927424683026 $38 $72 forward 7 unknown #
face $-1 $73 $74 $6 $-1 $75 reversed single #
loop $-1 $-1 $76 $24 #
plane-surface $-1 -57.517624439222388 0 0 1 0 0 0 0 -1 forward_v I I I I #
coedge $-1 $77 $51 $78 $79 forward $25 $-1 #
coedge $-1 $80 $27 $77 $81 forward $17 $-1 #
coedge $-1 $27 $80 $82 $83 forward $17 $-1 #
coedge $-1 $54 $53 $27 $47 reversed $55 $-1 #
edge $-1 $84 -31.772927424683026 $85 31.772927424683026 $46 $86 forward 7 unknown #
coedge $-1 $29 $28 $87 $88 forward $11 $-1 #
coedge $-1 $89 $90 $28 $50 reversed $74 $-1 #
edge $-1 $57 -57.517624439222388 $91 57.517624439222388 $49 $92 forward 7 unknown #
coedge $-1 $43 $93 $29 $52 reversed $25 $-1 #
edge $-1 $94 -57.517624439222388 $56 57.517624439222388 $51 $95 forward 7 unknown #
coedge $-1 $46 $30 $93 $96 forward $55 $-1 #
coedge $-1 $30 $46 $89 $97 reversed $55 $-1 #
loop $-1 $-1 $53 $73 #
vertex $-1 $31 $98 #
vertex $-1 $31 $99 #
straight-curve $-1 57.517624439222388 0 10.001000890085704 0 1 0 I I #
face $-1 $100 $101 $7 $-1 $102 reversed single #
loop $-1 $-1 $103 $32 #
plane-surface $-1 -66.986017932438756 0 -8.0052263388548504 1 0 0 0 0 -1 forward_v I I I I #
coedge $-1 $104 $35 $105 $106 reversed $21 $-1 #
coedge $-1 $35 $104 $68 $107 reversed $21 $-1 #
edge $-1 $70 6.0094517876239957 $108 10.001000890085704 $35 $109 forward 7 unknown #
coedge $-1 $37 $36 $110 $111 reversed $14 $-1 #
coedge $-1 $112 $113 $36 $67 forward $114 $-1 #
edge $-1 $115 -10.001000890085704 $71 -6.0094517876239957 $66 $116 forward 7 unknown #
coedge $-1 $117 $38 $63 $107 forward $33 $-1 #
coedge $-1 $38 $117 $112 $118 forward $33 $-1 #
vertex $-1 $64 $119 #
vertex $-1 $118 $120 #
straight-curve $-1 -57.517624439222388 0 -6.0094517876239957 0 -1 0 I I #
face $-1 $-1 $55 $6 $-1 $121 reversed single #
loop $-1 $-1 $89 $40 #
plane-surface $-1 0 31.772927424683026 0 0 -1 0 0 0 -1 forward_v I I I I #
coedge $-1 $122 $87 $90 $123 forward $41 $-1 #
coedge $-1 $93 $43 $44 $81 reversed $25 $-1 #
coedge $-1 $87 $122 $43 $79 reversed $41 $-1 #
edge $-1 $94 -10.001000890085704 $124 10.001000890085704 $78 $125 forward 7 unknown #
coedge $-1 $45 $44 $122 $126 forward $17 $-1 #
edge $-1 $85 -57.517624439222388 $124 57.517624439222388 $77 $127 forward 7 unknown #
coedge $-1 $90 $89 $45 $83 reversed $74 $-1 #
edge $-1 $128 -57.517624439222388 $84 57.517624439222388 $82 $129 forward 7 unknown #
vertex $-1 $47 $130 #
vertex $-1 $96 $131 #
straight-curve $-1 57.517624439222388 0 -10.001000890085704 0 -1 0 I I #
coedge $-1 $76 $78 $48 $88 reversed $41 $-1 #
edge $-1 $91 -31.772927424683026 $94 31.772927424683026 $87 $132 forward 7 unknown #
coedge $-1 $82 $49 $54 $97 forward $74 $-1 #
coedge $-1 $49 $82 $76 $123 reversed $74 $-1 #
vertex $-1 $50 $133 #
straight-curve $-1 0 31.772927424683026 10.001000890085704 -1 0 0 I I #
coedge $-1 $51 $77 $53 $96 reversed $25 $-1 #
vertex $-1 $88 $134 #
straight-curve $-1 0 -31.772927424683026 10.001000890085704 1 0 0 I I #
edge $-1 $56 -10.001000890085704 $85 10.001000890085704 $53 $135 forward 7 unknown #
edge $-1 $57 -10.001000890085704 $84 10.001000890085704 $54 $136 forward 7 unknown #
point $-1 57.517624439222388 -31.772927424683026 10.001000890085704 #
point $-1 57.517624439222388 31.772927424683026 10.001000890085704 #
face $-1 $-1 $114 $7 $-1 $137 reversed single #
loop $-1 $-1 $110 $59 #
plane-surface $-1 0 0 -10.001000890085704 0 0 1 1 0 0 forward_v I I I I #
coedge $-1 $138 $139 $104 $140 forward $60 $-1 #
coedge $-1 $63 $62 $103 $140 reversed $21 $-1 #
coedge $-1 $110 $141 $62 $106 forward $101 $-1 #
edge $-1 $142 -66.986017932438756 $108 -57.517624439222388 $62 $143 forward 7 unknown #
edge $-1 $70 -4.734196746608184 $144 4.734196746608184 $63 $145 forward 7 unknown #
vertex $-1 $64 $146 #
straight-curve $-1 -57.517624439222388 31.772927424683026 0 0 0 -1 I I #
coedge $-1 $147 $105 $65 $111 forward $101 $-1 #
edge $-1 $108 -31.772927424683026 $115 31.772927424683026 $110 $148 forward 7 unknown #
coedge $-1 $149 $66 $69 $118 reversed $114 $-1 #
coedge $-1 $66 $149 $147 $150 reversed $114 $-1 #
loop $-1 $-1 $66 $100 #
vertex $-1 $150 $151 #
straight-curve $-1 -57.517624439222388 -31.772927424683026 0 0 0 1 I I #
coedge $-1 $69 $68 $139 $152 forward $33 $-1 #
edge $-1 $153 -4.734196746608184 $71 4.734196746608184 $112 $154 forward 7 unknown #
point $-1 -57.517624439222388 31.772927424683026 -6.0094517876239957 #
point $-1 -57.517624439222388 -31.772927424683026 -6.0094517876239957 #
plane-surface $-1 57.517624439222388 0 0 -1 0 0 0 0 1 forward_v I I I I #
coedge $-1 $78 $76 $80 $126 reversed $41 $-1 #
edge $-1 $91 -10.001000890085704 $128 10.001000890085704 $90 $155 forward 7 unknown #
vertex $-1 $126 $156 #
straight-curve $-1 -57.517624439222388 -31.772927424683026 0 0 0 -1 I I #
edge $-1 $124 -31.772927424683026 $128 31.772927424683026 $122 $157 forward 7 unknown #
straight-curve $-1 0 -31.772927424683026 -10.001000890085704 -1 0 0 I I #
vertex $-1 $83 $158 #
straight-curve $-1 0 31.772927424683026 -10.001000890085704 1 0 0 I I #
point $-1 57.517624439222388 31.772927424683026 -10.001000890085704 #
point $-1 57.517624439222388 -31.772927424683026 -10.001000890085704 #
straight-curve $-1 -57.517624439222388 0 10.001000890085704 0 -1 0 I I #
point $-1 -57.517624439222388 31.772927424683026 10.001000890085704 #
point $-1 -57.517624439222388 -31.772927424683026 10.001000890085704 #
straight-curve $-1 57.517624439222388 -31.772927424683026 0 0 0 -1 I I #
straight-curve $-1 57.517624439222388 31.772927424683026 0 0 0 -1 I I #
plane-surface $-1 0 -31.772927424683026 0 0 1 0 0 0 1 forward_v I I I I #
coedge $-1 $159 $103 $141 $160 reversed $60 $-1 #
coedge $-1 $103 $159 $117 $152 reversed $60 $-1 #
edge $-1 $144 -1.9957745512308547 $142 1.9957745512308538 $104 $161 forward 7 unknown #
coedge $-1 $105 $147 $138 $160 forward $101 $-1 #
vertex $-1 $106 $162 #
straight-curve $-1 0 31.772927424683026 -10.001000890085704 1 0 0 I I #
vertex $-1 $107 $163 #
straight-curve $-1 -62.251821185830572 31.772927424683026 -6.0094517876239957 -1 0 0 I I #
point $-1 -57.517624439222388 31.772927424683026 -10.001000890085704 #
coedge $-1 $141 $110 $113 $150 forward $101 $-1 #
straight-curve $-1 -57.517624439222388 0 -10.001000890085704 0 -1 0 I I #
coedge $-1 $113 $112 $159 $164 forward $114 $-1 #
edge $-1 $115 -4.734196746608184 $165 4.734196746608184 $113 $166 forward 7 unknown #
point $-1 -57.517624439222388 -31.772927424683026 -10.001000890085704 #
edge $-1 $144 -31.772927424683026 $153 31.772927424683026 $139 $167 forward 7 unknown #
vertex $-1 $152 $168 #
straight-curve $-1 -62.251821185830572 -31.772927424683026 -6.0094517876239957 1 0 0 I I #
straight-curve $-1 -57.517624439222388 31.772927424683026 0 0 0 -1 I I #
point $-1 -57.517624439222388 -31.772927424683026 -10.001000890085704 #
straight-curve $-1 -57.517624439222388 0 -10.001000890085704 0 1 0 I I #
point $-1 -57.517624439222388 31.772927424683026 -10.001000890085704 #
coedge $-1 $139 $138 $149 $164 reversed $60 $-1 #
edge $-1 $165 -31.772927424683026 $142 31.772927424683026 $138 $169 forward 7 unknown #
straight-curve $-1 -66.986017932438756 31.772927424683026 -8.0052263388548504 0 0 -1 I I #
point $-1 -66.986017932438756 31.772927424683026 -10.001000890085704 #
point $-1 -66.986017932438756 31.772927424683026 -6.0094517876239957 #
edge $-1 $153 -1.9957745512308547 $165 1.9957745512308538 $159 $170 forward 7 unknown #
vertex $-1 $160 $171 #
straight-curve $-1 -62.251821185830572 -31.772927424683026 -10.001000890085704 -1 0 0 I I #
straight-curve $-1 -66.986017932438756 0 -6.0094517876239957 0 -1 0 I I #
point $-1 -66.986017932438756 -31.772927424683026 -6.0094517876239957 #
straight-curve $-1 -66.986017932438756 0 -10.001000890085704 0 1 0 I I #
straight-curve $-1 -66.986017932438756 -31.772927424683026 -8.0052263388548504 0 0 -1 I I #
point $-1 -66.986017932438756 -31.772927424683026 -10.001000890085704 #
End-of-ACIS-data 