500 0 7 0           
7 Unknown 11 ACIS 5.0 NT 24 Fri Mar 26 18:12:11 1999 
-1 9.9999999999999995e-007 1e-010 
body $-1 $7 $-1 $8 #
body $-1 $9 $-1 $10 #
body $-1 $11 $-1 $12 #
body $-1 $13 $-1 $14 #
body $-1 $15 $-1 $16 #
body $-1 $17 $-1 $18 #
body $-1 $19 $-1 $20 #
lump $-1 $-1 $21 $0 #
transform $-1 1 0 0 0 1 0 0 0 1 60.476699118015077 27.730468496915833 8.5960474765380788 1 rotate no_reflect no_shear #
lump $-1 $-1 $22 $1 #
transform $-1 1 0 0 0 1 0 0 0 1 60.476699118015077 27.730468496915833 8.5960474765380788 1 rotate no_reflect no_shear #
lump $-1 $-1 $23 $2 #
transform $-1 1 0 0 0 1 0 0 0 1 60.476699118015077 27.730468496915833 8.5960474765380788 1 rotate no_reflect no_shear #
lump $-1 $-1 $24 $3 #
transform $-1 1 0 0 0 1 0 0 0 1 60.476699118015077 27.730468496915833 8.5960474765380788 1 rotate no_reflect no_shear #
lump $-1 $-1 $25 $4 #
transform $-1 1 0 0 0 1 0 0 0 1 60.476699118015077 27.730468496915833 8.5960474765380788 1 rotate no_reflect no_shear #
lump $-1 $-1 $26 $5 #
transform $-1 1 0 0 0 1 0 0 0 1 60.476699118015077 27.730468496915833 8.5960474765380788 1 rotate no_reflect no_shear #
lump $-1 $-1 $27 $6 #
transform $-1 1 0 0 0 1 0 0 0 1 60.476699118015077 27.730468496915833 8.5960474765380788 1 rotate no_reflect no_shear #
shell $-1 $-1 $-1 $28 $-1 $7 #
shell $-1 $-1 $-1 $29 $-1 $9 #
shell $-1 $-1 $-1 $30 $-1 $11 #
shell $-1 $-1 $-1 $31 $-1 $13 #
shell $-1 $-1 $-1 $32 $-1 $15 #
shell $-1 $-1 $-1 $33 $-1 $17 #
shell $-1 $-1 $-1 $34 $-1 $19 #
face $-1 $35 $36 $21 $-1 $37 forward single #
face $-1 $38 $39 $22 $-1 $40 reversed single #
face $-1 $41 $42 $23 $-1 $43 forward single #
face $-1 $44 $45 $24 $-1 $46 forward single #
face $-1 $47 $48 $25 $-1 $49 reversed single #
face $-1 $50 $51 $26 $-1 $52 forward single #
face $-1 $53 $54 $27 $-1 $55 forward single #
face $-1 $56 $57 $21 $-1 $58 reversed single #
loop $-1 $-1 $59 $28 #
plane-surface $-1 0 0 8.5960474765380788 0 0 1 1 0 0 forward_v I I I I #
face $-1 $60 $61 $22 $-1 $62 reversed single #
loop $-1 $-1 $63 $29 #
plane-surface $-1 69.42897255225985 12.398637276355174 171.3877077490171 0 1 0 0.74314483375859142 0 0.66913059716165679 forward_v I I I I #
face $-1 $64 $65 $23 $-1 $66 forward single #
loop $-1 $67 $68 $30 #
cone-surface $-1 55.794943619118648 16.779160482229649 3.6208497637529264 -0.74314483375859142 0 -0.66913059716165679 1.0036958957424851 0 -1.1147172506378871 1 I I 0 1 1.5 forward I I I I #
face $-1 $69 $70 $24 $-1 $71 forward single #
loop $-1 $72 $73 $31 #
cone-surface $-1 55.794943619118648 23.349945291041358 3.6208497637529264 -0.74314483375859142 0 -0.66913059716165679 1.0036958957424851 0 -1.1147172506378871 1 I I 0 1 1.5 forward I I I I #
face $-1 $74 $75 $25 $-1 $76 reversed single #
loop $-1 $-1 $77 $32 #
plane-surface $-1 -150.36259214266641 12.398637276355174 81.501814724365772 0 1 0 -0.74314483375859142 0 0.66913059716165679 forward_v I I I I #
face $-1 $78 $79 $26 $-1 $80 forward single #
loop $-1 $81 $82 $33 #
cone-surface $-1 -55.794943619118641 16.779160482229649 3.6208497637529229 0.74314483375859142 0 -0.66913059716165679 1.0036958957424851 0 1.1147172506378871 1 I I 0 1 1.5 forward I I I I #
face $-1 $83 $84 $27 $-1 $85 forward single #
loop $-1 $86 $87 $34 #
cone-surface $-1 -55.794943619118641 23.349945291041358 3.6208497637529229 0.74314483375859142 0 -0.66913059716165679 1.0036958957424851 0 1.1147172506378871 1 I I 0 1 1.5 forward I I I I #
face $-1 $88 $89 $21 $-1 $90 reversed single #
loop $-1 $-1 $91 $35 #
plane-surface $-1 0 0 -8.5960474765380788 0 0 1 1 0 0 forward_v I I I I #
coedge $-1 $92 $93 $94 $95 forward $36 $-1 #
face $-1 $96 $97 $22 $-1 $98 forward single #
loop $-1 $-1 $99 $38 #
plane-surface $-1 -20.456920472391488 20.064552886635504 90.45408815861056 0.74314483375859142 0 0.66913059716165679 0.66913059716165679 0 -0.74314483375859142 forward_v I I I I #
coedge $-1 $100 $101 $102 $103 reversed $39 $-1 #
face $-1 $-1 $104 $23 $-1 $105 forward single #
loop $-1 $106 $107 $41 #
cone-surface $-1 54.169984763094476 16.779160482229649 2.1577302743859512 -0.74314483375859142 0 -0.66913059716165679 0.50184794787124254 0 -0.55735862531894353 1 I I -0.70710678118654757 0.70710678118654757 0.75 forward I I I I #
loop $-1 $-1 $108 $30 #
coedge $-1 $68 $68 $109 $110 reversed $42 $-1 #
face $-1 $-1 $111 $24 $-1 $112 forward single #
loop $-1 $113 $114 $44 #
cone-surface $-1 54.169984763094476 23.349945291041358 2.1577302743859512 -0.74314483375859142 0 -0.66913059716165679 0.50184794787124254 0 -0.55735862531894353 1 I I -0.70710678118654757 0.70710678118654757 0.75 forward I I I I #
loop $-1 $-1 $115 $31 #
coedge $-1 $73 $73 $116 $117 reversed $45 $-1 #
face $-1 $118 $119 $25 $-1 $120 reversed single #
loop $-1 $-1 $121 $47 #
plane-surface $-1 -60.476699118015077 20.064552886635504 0.56819513395923593 -0.74314483375859142 0 0.66913059716165679 0.66913059716165679 0 0.74314483375859142 forward_v I I I I #
coedge $-1 $122 $123 $124 $125 reversed $48 $-1 #
face $-1 $-1 $126 $26 $-1 $127 forward single #
loop $-1 $128 $129 $50 #
cone-surface $-1 -54.169984763094469 16.779160482229649 2.1577302743859477 0.74314483375859142 0 -0.66913059716165679 0.50184794787124254 0 0.55735862531894353 1 I I -0.70710678118654757 0.70710678118654757 0.75 forward I I I I #
loop $-1 $-1 $130 $33 #
coedge $-1 $82 $82 $131 $132 reversed $51 $-1 #
face $-1 $-1 $133 $27 $-1 $134 forward single #
loop $-1 $135 $136 $53 #
cone-surface $-1 -54.169984763094469 23.349945291041358 2.1577302743859477 0.74314483375859142 0 -0.66913059716165679 0.50184794787124254 0 0.55735862531894353 1 I I -0.70710678118654757 0.70710678118654757 0.75 forward I I I I #
loop $-1 $-1 $137 $34 #
coedge $-1 $87 $87 $138 $139 reversed $54 $-1 #
face $-1 $140 $141 $21 $-1 $142 reversed single #
loop $-1 $-1 $143 $56 #
plane-surface $-1 0 -27.730468496915833 0 0 1 0 0 0 1 forward_v I I I I #
coedge $-1 $144 $145 $146 $147 forward $57 $-1 #
coedge $-1 $148 $59 $149 $150 forward $36 $-1 #
coedge $-1 $59 $148 $151 $152 forward $36 $-1 #
coedge $-1 $153 $154 $59 $95 reversed $155 $-1 #
edge $-1 $156 -27.730468496915833 $157 27.730468496915833 $94 $158 forward 7 unknown #
face $-1 $159 $160 $22 $-1 $161 reversed single #
loop $-1 $-1 $162 $60 #
plane-surface $-1 0 0 8.5960474765380788 0 0 1 1 0 0 forward_v I I I I #
coedge $-1 $163 $164 $165 $166 reversed $61 $-1 #
coedge $-1 $101 $63 $167 $168 reversed $39 $-1 #
coedge $-1 $63 $100 $163 $169 reversed $39 $-1 #
coedge $-1 $165 $170 $63 $103 forward $160 $-1 #
edge $-1 $171 77.097806397970473 $172 85.125658740549341 $102 $173 forward 7 unknown #
loop $-1 $-1 $109 $64 #
plane-surface $-1 -20.456920472391488 20.064552886635504 90.45408815861056 0.74314483375859142 0 0.66913059716165679 0.66913059716165679 0 -0.74314483375859142 forward_v I I I I #
loop $-1 $-1 $174 $41 #
coedge $-1 $107 $107 $108 $175 reversed $65 $-1 #
coedge $-1 $108 $108 $107 $175 forward $67 $-1 #
coedge $-1 $109 $109 $68 $110 forward $104 $-1 #
edge $-1 $176 0 $176 6.2831853071796004 $109 $177 forward 7 unknown #
loop $-1 $-1 $116 $69 #
plane-surface $-1 -20.456920472391488 20.064552886635504 90.45408815861056 0.74314483375859142 0 0.66913059716165679 0.66913059716165679 0 -0.74314483375859142 forward_v I I I I #
loop $-1 $-1 $178 $44 #
coedge $-1 $114 $114 $115 $179 reversed $70 $-1 #
coedge $-1 $115 $115 $114 $179 forward $72 $-1 #
coedge $-1 $116 $116 $73 $117 forward $111 $-1 #
edge $-1 $180 0 $180 6.2831853071796004 $116 $181 forward 7 unknown #
face $-1 $182 $183 $25 $-1 $184 forward single #
loop $-1 $-1 $185 $74 #
plane-surface $-1 0 27.730468496915833 0 0 -1 0 0 0 -1 forward_v I I I I #
coedge $-1 $186 $187 $188 $189 reversed $75 $-1 #
coedge $-1 $123 $77 $190 $191 reversed $48 $-1 #
coedge $-1 $77 $122 $186 $192 reversed $48 $-1 #
coedge $-1 $188 $193 $77 $125 forward $183 $-1 #
edge $-1 $194 14.704596953318131 $195 21.932907489700547 $124 $196 forward 7 unknown #
loop $-1 $-1 $131 $78 #
plane-surface $-1 -60.476699118015077 20.064552886635504 0.56819513395923593 -0.74314483375859142 0 0.66913059716165679 0.66913059716165679 0 0.74314483375859142 forward_v I I I I #
loop $-1 $-1 $197 $50 #
coedge $-1 $129 $129 $130 $198 reversed $79 $-1 #
coedge $-1 $130 $130 $129 $198 forward $81 $-1 #
coedge $-1 $131 $131 $82 $132 forward $126 $-1 #
edge $-1 $199 0 $199 6.2831853071796004 $131 $200 forward 7 unknown #
loop $-1 $-1 $138 $83 #
plane-surface $-1 -60.476699118015077 20.064552886635504 0.56819513395923593 -0.74314483375859142 0 0.66913059716165679 0.66913059716165679 0 0.74314483375859142 forward_v I I I I #
loop $-1 $-1 $201 $53 #
coedge $-1 $136 $136 $137 $202 reversed $84 $-1 #
coedge $-1 $137 $137 $136 $202 forward $86 $-1 #
coedge $-1 $138 $138 $87 $139 forward $133 $-1 #
edge $-1 $203 0 $203 6.2831853071796004 $138 $204 forward 7 unknown #
face $-1 $205 $206 $21 $-1 $207 reversed single #
loop $-1 $-1 $208 $88 #
plane-surface $-1 -60.476699118015077 0 0 1 0 0 0 0 -1 forward_v I I I I #
coedge $-1 $209 $151 $210 $211 forward $89 $-1 #
coedge $-1 $212 $91 $209 $213 forward $57 $-1 #
coedge $-1 $91 $212 $214 $215 forward $57 $-1 #
coedge $-1 $154 $153 $91 $147 reversed $155 $-1 #
edge $-1 $216 -27.730468496915833 $217 27.730468496915833 $146 $218 forward 7 unknown #
coedge $-1 $93 $92 $219 $220 forward $36 $-1 #
coedge $-1 $221 $222 $92 $150 reversed $206 $-1 #
edge $-1 $157 -60.476699118015077 $223 60.476699118015077 $149 $224 forward 7 unknown #
coedge $-1 $143 $225 $93 $152 reversed $89 $-1 #
edge $-1 $226 -60.476699118015077 $156 60.476699118015077 $151 $227 forward 7 unknown #
coedge $-1 $146 $94 $225 $228 forward $155 $-1 #
coedge $-1 $94 $146 $221 $229 reversed $155 $-1 #
loop $-1 $-1 $153 $205 #
vertex $-1 $95 $230 #
vertex $-1 $95 $231 #
straight-curve $-1 60.476699118015077 0 8.5960474765380788 0 1 0 I I #
face $-1 $-1 $232 $22 $-1 $233 reversed single #
loop $-1 $-1 $102 $96 #
plane-surface $-1 60.476699118015077 0 0 -1 0 0 0 0 1 forward_v I I I I #
coedge $-1 $167 $234 $235 $236 forward $97 $-1 #
coedge $-1 $235 $99 $101 $169 forward $61 $-1 #
coedge $-1 $99 $235 $237 $238 reversed $61 $-1 #
coedge $-1 $239 $102 $99 $166 forward $160 $-1 #
edge $-1 $172 2.3663608330374224 $240 17.698192053598081 $165 $241 forward 7 unknown #
coedge $-1 $242 $162 $100 $168 forward $97 $-1 #
edge $-1 $243 18.533902305502714 $171 25.762212841885152 $167 $244 forward 7 unknown #
edge $-1 $172 -120.95339823603017 $243 -110.1508574957864 $101 $245 forward 7 unknown #
coedge $-1 $102 $239 $242 $246 reversed $160 $-1 #
vertex $-1 $246 $247 #
vertex $-1 $103 $248 #
straight-curve $-1 60.476699118015077 12.398637276355174 85.693853874508548 0 0 -1 I I #
coedge $-1 $174 $174 $-1 $249 reversed $106 $-1 #
edge $-1 $250 0 $250 6.2831853071796004 $107 $251 forward 7 unknown #
vertex $-1 $110 $252 #
ellipse-curve $-1 56.862543849823858 16.779160482229649 4.5821213052486414 0.74314483375859142 0 0.66913059716165679 1.0036958957424851 0 -1.1147172506378871 1 I I #
coedge $-1 $178 $178 $-1 $253 reversed $113 $-1 #
edge $-1 $254 0 $254 6.2831853071796004 $114 $255 forward 7 unknown #
vertex $-1 $117 $256 #
ellipse-curve $-1 56.862543849823858 23.349945291041358 4.5821213052486414 0.74314483375859142 0 0.66913059716165679 1.0036958957424851 0 -1.1147172506378871 1 I I #
face $-1 $-1 $257 $25 $-1 $258 reversed single #
loop $-1 $-1 $188 $118 #
plane-surface $-1 0 0 8.5960474765380788 0 0 1 1 0 0 forward_v I I I I #
coedge $-1 $259 $260 $187 $261 forward $119 $-1 #
coedge $-1 $262 $121 $123 $192 forward $75 $-1 #
coedge $-1 $121 $262 $185 $261 reversed $75 $-1 #
coedge $-1 $263 $124 $121 $189 forward $183 $-1 #
edge $-1 $195 2.3663608330374224 $264 17.698192053598081 $188 $265 forward 7 unknown #
coedge $-1 $266 $267 $122 $191 forward $257 $-1 #
edge $-1 $268 -40.18271222822365 $194 -32.154859885644811 $190 $269 forward 7 unknown #
edge $-1 $195 -10.802540740243735 $268 0 $123 $270 forward 7 unknown #
coedge $-1 $124 $263 $266 $271 forward $183 $-1 #
vertex $-1 $191 $272 #
vertex $-1 $125 $273 #
straight-curve $-1 -75.181296071333207 12.398637276355174 8.5960474765380752 1 0 0 I I #
coedge $-1 $197 $197 $-1 $274 reversed $128 $-1 #
edge $-1 $275 0 $275 6.2831853071796004 $129 $276 forward 7 unknown #
vertex $-1 $132 $277 #
ellipse-curve $-1 -56.862543849823872 16.779160482229649 4.5821213052486565 -0.74314483375859142 0 0.66913059716165679 1.0036958957424851 0 1.1147172506378871 1 I I #
coedge $-1 $201 $201 $-1 $278 reversed $135 $-1 #
edge $-1 $279 0 $279 6.2831853071796004 $136 $280 forward 7 unknown #
vertex $-1 $139 $281 #
ellipse-curve $-1 -56.862543849823872 23.349945291041358 4.5821213052486565 -0.74314483375859142 0 0.66913059716165679 1.0036958957424851 0 1.1147172506378871 1 I I #
face $-1 $-1 $155 $21 $-1 $282 reversed single #
loop $-1 $-1 $221 $140 #
plane-surface $-1 0 27.730468496915833 0 0 -1 0 0 0 -1 forward_v I I I I #
coedge $-1 $283 $219 $222 $284 forward $141 $-1 #
coedge $-1 $225 $143 $144 $213 reversed $89 $-1 #
coedge $-1 $219 $283 $143 $211 reversed $141 $-1 #
edge $-1 $226 -8.5960474765380788 $285 8.5960474765380788 $210 $286 forward 7 unknown #
coedge $-1 $145 $144 $283 $287 forward $57 $-1 #
edge $-1 $217 -60.476699118015077 $285 60.476699118015077 $209 $288 forward 7 unknown #
coedge $-1 $222 $221 $145 $215 reversed $206 $-1 #
edge $-1 $289 -60.476699118015077 $216 60.476699118015077 $214 $290 forward 7 unknown #
vertex $-1 $147 $291 #
vertex $-1 $228 $292 #
straight-curve $-1 60.476699118015077 0 -8.5960474765380788 0 -1 0 I I #
coedge $-1 $208 $210 $148 $220 reversed $141 $-1 #
edge $-1 $223 -27.730468496915833 $226 27.730468496915833 $219 $293 forward 7 unknown #
coedge $-1 $214 $149 $154 $229 forward $206 $-1 #
coedge $-1 $149 $214 $208 $284 reversed $206 $-1 #
vertex $-1 $150 $294 #
straight-curve $-1 0 27.730468496915833 8.5960474765380788 -1 0 0 I I #
coedge $-1 $151 $209 $153 $228 reversed $89 $-1 #
vertex $-1 $220 $295 #
straight-curve $-1 0 -27.730468496915833 8.5960474765380788 1 0 0 I I #
edge $-1 $156 -8.5960474765380788 $217 8.5960474765380788 $153 $296 forward 7 unknown #
edge $-1 $157 -8.5960474765380788 $216 8.5960474765380788 $154 $297 forward 7 unknown #
point $-1 60.476699118015077 -27.730468496915833 8.5960474765380788 #
point $-1 60.476699118015077 27.730468496915833 8.5960474765380788 #
loop $-1 $-1 $237 $159 #
plane-surface $-1 0 27.730468496915833 0 0 -1 0 0 0 -1 forward_v I I I I #
coedge $-1 $162 $242 $298 $299 forward $97 $-1 #
coedge $-1 $164 $163 $162 $236 reversed $61 $-1 #
edge $-1 $300 -17.698192053598081 $243 -2.3663608330374224 $162 $301 forward 7 unknown #
coedge $-1 $298 $302 $164 $238 forward $232 $-1 #
edge $-1 $240 -80.498978376432447 $300 -69.696437636188676 $237 $303 forward 7 unknown #
coedge $-1 $170 $165 $302 $304 reversed $160 $-1 #
vertex $-1 $166 $305 #
straight-curve $-1 60.476699118015077 10.032276443317752 0.56819513395920751 0 1 0 I I #
coedge $-1 $234 $167 $170 $246 forward $97 $-1 #
vertex $-1 $168 $306 #
straight-curve $-1 34.714486276129925 12.398637276355174 8.5960474765380752 1 0 0 I I #
straight-curve $-1 -20.456920472391488 12.398637276355174 90.45408815861056 -0.66913059716165679 0 0.74314483375859142 I I #
edge $-1 $171 12.398637276355174 $307 27.730468496915833 $170 $308 forward 7 unknown #
point $-1 60.476699118015077 12.398637276355174 8.5960474765380788 #
point $-1 60.476699118015077 12.398637276355174 0.56819513395920751 #
edge $-1 $309 1 $309 0 $174 $-1 forward 7 unknown #
vertex $-1 $175 $310 #
ellipse-curve $-1 54.727343388413416 16.779160482229649 2.6595782222571938 0.74314483375859142 0 0.66913059716165679 1.0036958957424851 0 -1.1147172506378871 1 I I #
point $-1 57.866239745566361 16.779160482229649 3.4674040546107721 #
edge $-1 $311 1 $311 0 $178 $-1 forward 7 unknown #
vertex $-1 $179 $312 #
ellipse-curve $-1 54.727343388413416 23.349945291041358 2.6595782222571938 0.74314483375859142 0 0.66913059716165679 1.0036958957424851 0 -1.1147172506378871 1 I I #
point $-1 57.866239745566361 23.349945291041358 3.4674040546107721 #
loop $-1 $-1 $190 $182 #
plane-surface $-1 -60.476699118015077 0 0 1 0 0 0 0 -1 forward_v I I I I #
coedge $-1 $260 $185 $313 $314 reversed $119 $-1 #
coedge $-1 $185 $259 $263 $315 reversed $119 $-1 #
edge $-1 $264 9.2197385181736102 $316 20.022279258417345 $185 $317 forward 7 unknown #
coedge $-1 $187 $186 $267 $318 reversed $75 $-1 #
coedge $-1 $193 $188 $260 $315 forward $183 $-1 #
vertex $-1 $315 $319 #
straight-curve $-1 -53.248388581632653 10.032276443317752 8.5960474765380805 0 1 0 I I #
coedge $-1 $313 $190 $193 $271 reversed $257 $-1 #
coedge $-1 $190 $313 $262 $318 forward $257 $-1 #
vertex $-1 $191 $320 #
straight-curve $-1 -60.476699118015077 12.398637276355174 40.750907362182886 0 0 1 I I #
straight-curve $-1 -60.476699118015077 12.398637276355174 0.56819513395923593 -0.66913059716165679 0 -0.74314483375859142 I I #
edge $-1 $321 -27.730468496915833 $194 -12.398637276355174 $266 $322 forward 7 unknown #
point $-1 -60.476699118015077 12.398637276355174 8.5960474765380788 #
point $-1 -53.248388581632661 12.398637276355174 8.5960474765380788 #
edge $-1 $323 1 $323 0 $197 $-1 forward 7 unknown #
vertex $-1 $198 $324 #
ellipse-curve $-1 -54.727343388413409 16.779160482229649 2.6595782222571902 -0.74314483375859142 0 0.66913059716165679 1.0036958957424851 0 1.1147172506378871 1 I I #
point $-1 -55.858847954081384 16.779160482229649 5.6968385558865426 #
edge $-1 $325 1 $325 0 $201 $-1 forward 7 unknown #
vertex $-1 $202 $326 #
ellipse-curve $-1 -54.727343388413409 23.349945291041358 2.6595782222571902 -0.74314483375859142 0 0.66913059716165679 1.0036958957424851 0 1.1147172506378871 1 I I #
point $-1 -55.858847954081384 23.349945291041358 5.6968385558865426 #
plane-surface $-1 60.476699118015077 0 0 -1 0 0 0 0 1 forward_v I I I I #
coedge $-1 $210 $208 $212 $287 reversed $141 $-1 #
edge $-1 $223 -8.5960474765380788 $289 8.5960474765380788 $222 $327 forward 7 unknown #
vertex $-1 $287 $328 #
straight-curve $-1 -60.476699118015077 -27.730468496915833 0 0 0 -1 I I #
edge $-1 $285 -27.730468496915833 $289 27.730468496915833 $283 $329 forward 7 unknown #
straight-curve $-1 0 -27.730468496915833 -8.5960474765380788 -1 0 0 I I #
vertex $-1 $215 $330 #
straight-curve $-1 0 27.730468496915833 -8.5960474765380788 1 0 0 I I #
point $-1 60.476699118015077 27.730468496915833 -8.5960474765380788 #
point $-1 60.476699118015077 -27.730468496915833 -8.5960474765380788 #
straight-curve $-1 -60.476699118015077 0 8.5960474765380788 0 -1 0 I I #
point $-1 -60.476699118015077 27.730468496915833 8.5960474765380788 #
point $-1 -60.476699118015077 -27.730468496915833 8.5960474765380788 #
straight-curve $-1 60.476699118015077 -27.730468496915833 0 0 0 -1 I I #
straight-curve $-1 60.476699118015077 27.730468496915833 0 0 0 -1 I I #
coedge $-1 $302 $237 $234 $299 reversed $232 $-1 #
edge $-1 $307 -60.476699118015077 $300 -53.248388581632639 $298 $331 forward 7 unknown #
vertex $-1 $238 $332 #
straight-curve $-1 53.248388581632618 10.032276443317752 8.5960474765380823 0 -1 0 I I #
coedge $-1 $237 $298 $239 $304 forward $232 $-1 #
straight-curve $-1 6.6123696460895296 27.730468496915833 60.39059503724954 -0.66913059716165679 0 0.74314483375859142 I I #
edge $-1 $307 -8.5960474765380788 $240 -0.56819513395920351 $239 $333 forward 7 unknown #
point $-1 60.476699118015077 27.730468496915833 0.56819513395920351 #
point $-1 53.248388581632639 12.398637276355174 8.5960474765380752 #
vertex $-1 $246 $334 #
straight-curve $-1 60.476699118015077 0 8.5960474765380788 0 1 0 I I #
vertex $-1 $249 $335 #
point $-1 55.731039284155905 16.779160482229649 1.5448609716193067 #
vertex $-1 $253 $336 #
point $-1 55.731039284155905 23.349945291041358 1.5448609716193067 #
coedge $-1 $267 $266 $259 $314 forward $257 $-1 #
edge $-1 $321 -8.5960474765380788 $316 -0.56819513395923593 $259 $337 forward 7 unknown #
edge $-1 $264 53.248388581632661 $321 60.476699118015077 $260 $338 forward 7 unknown #
vertex $-1 $261 $339 #
straight-curve $-1 -47.079179441292823 27.730468496915833 15.447648524923888 -0.66913059716165679 0 -0.74314483375859142 I I #
edge $-1 $316 -17.698192053598081 $268 -2.3663608330374224 $267 $340 forward 7 unknown #
point $-1 -53.248388581632661 27.730468496915833 8.5960474765380788 #
point $-1 -60.476699118015077 12.398637276355174 0.56819513395923593 #
vertex $-1 $315 $341 #
straight-curve $-1 -60.476699118015077 0 8.5960474765380788 0 -1 0 I I #
vertex $-1 $274 $342 #
point $-1 -53.723647492670928 16.779160482229649 3.7742954728950773 #
vertex $-1 $278 $343 #
point $-1 -53.723647492670928 23.349945291041358 3.7742954728950773 #
straight-curve $-1 -60.476699118015077 27.730468496915833 0 0 0 -1 I I #
point $-1 -60.476699118015077 -27.730468496915833 -8.5960474765380788 #
straight-curve $-1 -60.476699118015077 0 -8.5960474765380788 0 1 0 I I #
point $-1 -60.476699118015077 27.730468496915833 -8.5960474765380788 #
straight-curve $-1 0 27.730468496915833 8.5960474765380788 -1 0 0 I I #
point $-1 53.248388581632639 27.730468496915833 8.5960474765380752 #
straight-curve $-1 60.476699118015077 27.730468496915833 0 0 0 -1 I I #
point $-1 60.476699118015077 27.730468496915833 8.5960474765380788 #
point $-1 53.612626137775536 16.779160482229649 1.6558823265147087 #
point $-1 53.612626137775536 23.349945291041358 1.6558823265147087 #
straight-curve $-1 -60.476699118015077 27.730468496915833 0 0 0 -1 I I #
straight-curve $-1 0 27.730468496915833 8.5960474765380788 -1 0 0 I I #
point $-1 -60.476699118015077 27.730468496915833 0.56819513395923593 #
straight-curve $-1 -60.476699118015077 10.032276443317752 0.56819513395923216 0 -1 0 I I #
point $-1 -60.476699118015077 27.730468496915833 8.5960474765380788 #
point $-1 -53.612626137775528 16.779160482229649 1.6558823265147051 #
point $-1 -53.612626137775528 23.349945291041358 1.6558823265147051 #
End-of-ACIS-data 