500 0 9 0           
7 Unknown 11 ACIS 5.0 NT 24 Fri Mar 26 19:12:02 1999 
-1 9.9999999999999995e-007 1e-010 
body $-1 $9 $-1 $10 #
body $-1 $11 $-1 $12 #
body $-1 $13 $-1 $14 #
body $-1 $15 $-1 $16 #
body $-1 $17 $-1 $18 #
body $-1 $19 $-1 $20 #
body $-1 $21 $-1 $22 #
body $-1 $23 $-1 $24 #
body $-1 $25 $-1 $26 #
lump $-1 $-1 $27 $0 #
transform $-1 1 0 0 0 1 0 0 0 1 79.279763176366458 51.964573676079368 24.683450025371176 1 rotate no_reflect no_shear #
lump $-1 $-1 $28 $1 #
transform $-1 1 0 0 0 1 0 0 0 1 79.279763176366458 51.964573676079368 24.683450025371176 1 rotate no_reflect no_shear #
lump $-1 $-1 $29 $2 #
transform $-1 1 0 0 0 1 0 0 0 1 79.279763176366458 51.964573676079368 24.683450025371176 1 rotate no_reflect no_shear #
lump $-1 $-1 $30 $3 #
transform $-1 1 0 0 0 1 0 0 0 1 79.279763176366458 51.964573676079368 24.683450025371176 1 rotate no_reflect no_shear #
lump $-1 $-1 $31 $4 #
transform $-1 1 0 0 0 1 0 0 0 1 79.279763176366458 51.964573676079368 24.683450025371176 1 rotate no_reflect no_shear #
lump $-1 $-1 $32 $5 #
transform $-1 1 0 0 0 1 0 0 0 1 79.279763176366458 51.964573676079368 24.683450025371176 1 rotate no_reflect no_shear #
lump $-1 $-1 $33 $6 #
transform $-1 1 0 0 0 1 0 0 0 1 79.279763176366458 51.964573676079368 24.683450025371176 1 rotate no_reflect no_shear #
lump $-1 $-1 $34 $7 #
transform $-1 1 0 0 0 1 0 0 0 1 79.279763176366458 51.964573676079368 24.683450025371176 1 rotate no_reflect no_shear #
lump $-1 $-1 $35 $8 #
transform $-1 1 0 0 0 1 0 0 0 1 79.279763176366458 51.964573676079368 24.683450025371176 1 rotate no_reflect no_shear #
shell $-1 $-1 $-1 $36 $-1 $9 #
shell $-1 $-1 $-1 $37 $-1 $11 #
shell $-1 $-1 $-1 $38 $-1 $13 #
shell $-1 $-1 $-1 $39 $-1 $15 #
shell $-1 $-1 $-1 $40 $-1 $17 #
shell $-1 $-1 $-1 $41 $-1 $19 #
shell $-1 $-1 $-1 $42 $-1 $21 #
shell $-1 $-1 $-1 $43 $-1 $23 #
shell $-1 $-1 $-1 $44 $-1 $25 #
face $-1 $45 $46 $27 $-1 $47 forward single #
face $-1 $48 $49 $28 $-1 $50 reversed single #
face $-1 $51 $52 $29 $-1 $53 reversed single #
face $-1 $54 $55 $30 $-1 $56 reversed single #
face $-1 $57 $58 $31 $-1 $59 forward single #
face $-1 $60 $61 $32 $-1 $62 forward single #
face $-1 $63 $64 $33 $-1 $65 forward single #
face $-1 $66 $67 $34 $-1 $68 reversed single #
face $-1 $69 $70 $35 $-1 $71 forward single #
face $-1 $72 $73 $27 $-1 $74 reversed single #
loop $-1 $-1 $75 $36 #
plane-surface $-1 0 0 24.683450025371176 0 0 1 1 0 0 forward_v I I I I #
face $-1 $76 $77 $28 $-1 $78 reversed single #
loop $-1 $-1 $79 $37 #
plane-surface $-1 -65.765102935760538 -37.058389845471147 0 1 0 0 0 0 -1 forward_v I I I I #
face $-1 $80 $81 $29 $-1 $82 reversed single #
loop $-1 $-1 $83 $38 #
plane-surface $-1 -62.572231970077517 22.152206014862919 0 0 1 0 0 0 1 forward_v I I I I #
face $-1 $84 $85 $30 $-1 $86 reversed single #
loop $-1 $-1 $87 $39 #
plane-surface $-1 51.95214542551895 -10.003746813898344 234.44991078346206 0 -1 0 -0.61566148304635926 0 -0.78801074757464917 forward_v I I I I #
face $-1 $88 $89 $31 $-1 $90 forward single #
loop $-1 $91 $92 $40 #
cone-surface $-1 70.77391186602182 -19.72251417467001 17.880986936227636 -0.61566148304635926 0 -0.78801074757464917 0.39400537378732459 0 -0.30783074152317963 1 I I 0 1 0.5 forward I I I I #
face $-1 $93 $94 $32 $-1 $95 forward single #
loop $-1 $96 $97 $41 #
cone-surface $-1 70.77391186602182 -16.077976414380636 17.880986936227636 -0.61566148304635926 0 -0.78801074757464917 0.39400537378732459 0 -0.30783074152317963 1 I I 0 1 0.5 forward I I I I #
face $-1 $98 $99 $33 $-1 $100 forward single #
loop $-1 $101 $102 $42 #
cone-surface $-1 70.77391186602182 -12.433438654091262 17.880986936227636 -0.61566148304635926 0 -0.78801074757464917 0.39400537378732459 0 -0.30783074152317963 1 I I 0 1 0.5 forward I I I I #
face $-1 $103 $104 $34 $-1 $105 reversed single #
loop $-1 $-1 $106 $43 #
plane-surface $-1 -216.59634223632469 9.6797572153820255 80.725677318600972 0 1 0 -0.86602541151947299 0 0.49999998660252726 forward_v I I I I #
face $-1 $107 $108 $35 $-1 $109 forward single #
loop $-1 $110 $111 $44 #
cone-surface $-1 -69.550949988576946 15.915981615122476 11.320672450166649 0.86602541151947299 0 -0.49999998660252726 0.99999997320505452 0 1.732050823038946 1 I I 0 1 2 forward I I I I #
face $-1 $112 $113 $27 $-1 $114 reversed single #
loop $-1 $-1 $115 $45 #
plane-surface $-1 0 0 -24.683450025371176 0 0 1 1 0 0 forward_v I I I I #
coedge $-1 $116 $117 $118 $119 forward $46 $-1 #
face $-1 $120 $121 $28 $-1 $122 reversed single #
loop $-1 $-1 $123 $48 #
plane-surface $-1 -62.572231970077517 -22.152206014862927 0 0 -1 0 0 0 -1 forward_v I I I I #
coedge $-1 $124 $125 $126 $127 forward $49 $-1 #
face $-1 $128 $129 $29 $-1 $130 reversed single #
loop $-1 $-1 $131 $51 #
plane-surface $-1 -65.765102935760538 37.05838984547114 0 1 0 0 0 0 -1 forward_v I I I I #
coedge $-1 $132 $133 $134 $135 forward $52 $-1 #
face $-1 $136 $137 $30 $-1 $138 reversed single #
loop $-1 $-1 $139 $54 #
plane-surface $-1 -45.666847719932875 -16.077976414380636 109.50329988716271 0.61566148304635926 0 0.78801074757464917 0.78801074757464917 0 -0.61566148304635926 forward_v I I I I #
coedge $-1 $140 $141 $142 $143 reversed $55 $-1 #
face $-1 $-1 $144 $31 $-1 $145 forward single #
loop $-1 $146 $147 $57 #
cone-surface $-1 70.305223192074834 -19.72251417467001 17.281092802020577 -0.61566148304635926 0 -0.78801074757464917 0.19700268689366229 0 -0.15391537076158981 1 I I -0.70710678118654746 0.70710678118654746 0.25 forward I I I I #
loop $-1 $-1 $148 $40 #
coedge $-1 $92 $92 $149 $150 reversed $58 $-1 #
face $-1 $-1 $151 $32 $-1 $152 forward single #
loop $-1 $153 $154 $60 #
cone-surface $-1 70.305223192074834 -16.077976414380636 17.281092802020577 -0.61566148304635926 0 -0.78801074757464917 0.19700268689366229 0 -0.15391537076158981 1 I I -0.70710678118654746 0.70710678118654746 0.25 forward I I I I #
loop $-1 $-1 $155 $41 #
coedge $-1 $97 $97 $156 $157 reversed $61 $-1 #
face $-1 $-1 $158 $33 $-1 $159 forward single #
loop $-1 $160 $161 $63 #
cone-surface $-1 70.305223192074834 -12.433438654091262 17.281092802020577 -0.61566148304635926 0 -0.78801074757464917 0.19700268689366229 0 -0.15391537076158981 1 I I -0.70710678118654746 0.70710678118654746 0.25 forward I I I I #
loop $-1 $-1 $162 $42 #
coedge $-1 $102 $102 $163 $164 reversed $64 $-1 #
face $-1 $165 $166 $34 $-1 $167 reversed single #
loop $-1 $-1 $168 $66 #
plane-surface $-1 -79.27976317636643 15.915981615122476 1.4459162665314409 -0.86602541151947299 0 0.49999998660252726 0.49999998660252726 0 0.86602541151947299 forward_v I I I I #
coedge $-1 $169 $170 $171 $172 reversed $67 $-1 #
face $-1 $-1 $173 $35 $-1 $174 forward single #
loop $-1 $175 $176 $69 #
cone-surface $-1 -65.664209335095023 15.915981615122476 9.0766617677794592 0.86602541151947299 0 -0.49999998660252726 0.49999998660252726 0 0.86602541151947299 1 I I -0.70710678118654746 0.70710678118654746 1 forward I I I I #
loop $-1 $-1 $177 $44 #
coedge $-1 $111 $111 $178 $179 reversed $70 $-1 #
face $-1 $180 $181 $27 $-1 $182 reversed single #
loop $-1 $-1 $183 $72 #
plane-surface $-1 0 -51.964573676079368 0 0 1 0 0 0 1 forward_v I I I I #
coedge $-1 $184 $185 $186 $187 forward $73 $-1 #
coedge $-1 $188 $75 $189 $190 forward $46 $-1 #
coedge $-1 $75 $188 $191 $192 forward $46 $-1 #
coedge $-1 $193 $194 $75 $119 reversed $195 $-1 #
edge $-1 $196 -51.964573676079368 $197 51.964573676079368 $118 $198 forward 7 unknown #
face $-1 $199 $200 $28 $-1 $201 forward single #
loop $-1 $-1 $202 $76 #
plane-surface $-1 -59.379361004394489 -37.058389845471147 0 -1 0 0 0 0 1 forward_v I I I I #
coedge $-1 $203 $204 $205 $206 forward $77 $-1 #
coedge $-1 $207 $79 $208 $209 reversed $49 $-1 #
coedge $-1 $79 $207 $210 $211 reversed $49 $-1 #
coedge $-1 $204 $203 $79 $127 reversed $77 $-1 #
edge $-1 $212 -24.683450025371176 $213 24.683450025371176 $126 $214 forward 7 unknown #
face $-1 $215 $216 $29 $-1 $217 reversed single #
loop $-1 $-1 $218 $80 #
plane-surface $-1 -59.379361004394489 37.05838984547114 0 -1 0 0 0 0 1 forward_v I I I I #
coedge $-1 $219 $220 $221 $222 reversed $81 $-1 #
coedge $-1 $223 $83 $224 $225 reversed $52 $-1 #
coedge $-1 $83 $223 $226 $227 reversed $52 $-1 #
coedge $-1 $220 $219 $83 $135 reversed $81 $-1 #
edge $-1 $228 -24.683450025371176 $229 24.683450025371176 $134 $230 forward 7 unknown #
face $-1 $231 $232 $30 $-1 $233 forward single #
loop $-1 $-1 $234 $84 #
plane-surface $-1 51.95214542551895 -22.152206014862927 234.44991078346206 0 1 0 0.61566148304635926 0 0.78801074757464917 forward_v I I I I #
coedge $-1 $235 $236 $237 $238 reversed $85 $-1 #
coedge $-1 $141 $87 $239 $240 reversed $55 $-1 #
coedge $-1 $87 $140 $235 $241 reversed $55 $-1 #
coedge $-1 $237 $242 $87 $143 forward $232 $-1 #
edge $-1 $243 -53.303690463606983 $244 -36.921534449288444 $142 $245 forward 7 unknown #
loop $-1 $-1 $149 $88 #
plane-surface $-1 -45.666847719932875 -16.077976414380636 109.50329988716271 0.61566148304635926 0 0.78801074757464917 0.78801074757464917 0 -0.61566148304635926 forward_v I I I I #
loop $-1 $-1 $246 $57 #
coedge $-1 $147 $147 $148 $247 reversed $89 $-1 #
coedge $-1 $148 $148 $147 $247 forward $91 $-1 #
coedge $-1 $149 $149 $92 $150 forward $144 $-1 #
edge $-1 $248 0 $248 6.2831853071796004 $149 $249 forward 7 unknown #
loop $-1 $-1 $156 $93 #
plane-surface $-1 -45.666847719932875 -16.077976414380636 109.50329988716271 0.61566148304635926 0 0.78801074757464917 0.78801074757464917 0 -0.61566148304635926 forward_v I I I I #
loop $-1 $-1 $250 $60 #
coedge $-1 $154 $154 $155 $251 reversed $94 $-1 #
coedge $-1 $155 $155 $154 $251 forward $96 $-1 #
coedge $-1 $156 $156 $97 $157 forward $151 $-1 #
edge $-1 $252 0 $252 6.2831853071796004 $156 $253 forward 7 unknown #
loop $-1 $-1 $163 $98 #
plane-surface $-1 -45.666847719932875 -16.077976414380636 109.50329988716271 0.61566148304635926 0 0.78801074757464917 0.78801074757464917 0 -0.61566148304635926 forward_v I I I I #
loop $-1 $-1 $254 $63 #
coedge $-1 $161 $161 $162 $255 reversed $99 $-1 #
coedge $-1 $162 $162 $161 $255 forward $101 $-1 #
coedge $-1 $163 $163 $102 $164 forward $158 $-1 #
edge $-1 $256 0 $256 6.2831853071796004 $163 $257 forward 7 unknown #
face $-1 $258 $259 $34 $-1 $260 reversed single #
loop $-1 $-1 $261 $103 #
plane-surface $-1 -216.59634223632469 22.152206014862927 80.725677318600972 0 -1 0 0.86602541151947299 0 -0.49999998660252726 forward_v I I I I #
coedge $-1 $262 $263 $264 $265 reversed $104 $-1 #
coedge $-1 $170 $106 $266 $267 reversed $67 $-1 #
coedge $-1 $106 $169 $262 $268 reversed $67 $-1 #
coedge $-1 $264 $269 $106 $172 forward $270 $-1 #
edge $-1 $271 29.018407941795886 $272 42.434603833450055 $171 $273 forward 7 unknown #
loop $-1 $-1 $178 $107 #
plane-surface $-1 -79.27976317636643 15.915981615122476 1.4459162665314409 -0.86602541151947299 0 0.49999998660252726 0.49999998660252726 0 0.86602541151947299 forward_v I I I I #
loop $-1 $-1 $274 $69 #
coedge $-1 $176 $176 $177 $275 reversed $108 $-1 #
coedge $-1 $177 $177 $176 $275 forward $110 $-1 #
coedge $-1 $178 $178 $111 $179 forward $173 $-1 #
edge $-1 $276 0 $276 6.2831853071796004 $178 $277 forward 7 unknown #
face $-1 $278 $279 $27 $-1 $280 reversed single #
loop $-1 $-1 $281 $112 #
plane-surface $-1 -79.279763176366458 0 0 1 0 0 0 0 -1 forward_v I I I I #
coedge $-1 $282 $191 $283 $284 forward $113 $-1 #
coedge $-1 $285 $115 $282 $286 forward $73 $-1 #
coedge $-1 $115 $285 $287 $288 forward $73 $-1 #
coedge $-1 $194 $193 $115 $187 reversed $195 $-1 #
edge $-1 $289 -51.964573676079368 $290 51.964573676079368 $186 $291 forward 7 unknown #
coedge $-1 $117 $116 $292 $293 forward $46 $-1 #
coedge $-1 $294 $295 $116 $190 reversed $279 $-1 #
edge $-1 $197 -79.279763176366458 $296 79.279763176366458 $189 $297 forward 7 unknown #
coedge $-1 $183 $298 $117 $192 reversed $113 $-1 #
edge $-1 $299 -79.279763176366458 $196 79.279763176366458 $191 $300 forward 7 unknown #
coedge $-1 $186 $118 $298 $301 forward $195 $-1 #
coedge $-1 $118 $186 $294 $302 reversed $195 $-1 #
loop $-1 $-1 $193 $278 #
vertex $-1 $119 $303 #
vertex $-1 $119 $304 #
straight-curve $-1 79.279763176366458 0 24.683450025371176 0 1 0 I I #
face $-1 $305 $306 $28 $-1 $307 reversed single #
loop $-1 $-1 $308 $120 #
plane-surface $-1 0 0 24.683450025371176 0 0 1 1 0 0 forward_v I I I I #
coedge $-1 $309 $310 $311 $312 reversed $121 $-1 #
coedge $-1 $126 $123 $313 $314 reversed $77 $-1 #
coedge $-1 $123 $126 $315 $316 reversed $77 $-1 #
coedge $-1 $310 $309 $123 $206 reversed $121 $-1 #
edge $-1 $317 -24.683450025371176 $318 24.683450025371176 $205 $319 forward 7 unknown #
coedge $-1 $125 $124 $320 $321 reversed $49 $-1 #
coedge $-1 $313 $322 $124 $209 forward $306 $-1 #
edge $-1 $323 -33.435378753343798 $213 -3.6230110921273528 $208 $324 forward 7 unknown #
coedge $-1 $325 $315 $125 $211 forward $200 $-1 #
edge $-1 $212 3.6230110921273528 $326 33.435378753343798 $210 $327 forward 7 unknown #
vertex $-1 $211 $328 #
vertex $-1 $209 $329 #
straight-curve $-1 -65.765102935760538 -22.152206014862927 0 0 0 -1 I I #
face $-1 $330 $331 $29 $-1 $332 forward single #
loop $-1 $-1 $333 $128 #
plane-surface $-1 0 0 -24.683450025371176 0 0 1 1 0 0 forward_v I I I I #
coedge $-1 $334 $335 $223 $336 forward $129 $-1 #
coedge $-1 $134 $131 $337 $338 reversed $81 $-1 #
coedge $-1 $131 $134 $339 $340 reversed $81 $-1 #
coedge $-1 $341 $342 $131 $222 forward $343 $-1 #
edge $-1 $344 -24.683450025371176 $345 24.683450025371176 $221 $346 forward 7 unknown #
coedge $-1 $133 $132 $218 $336 reversed $52 $-1 #
coedge $-1 $337 $333 $132 $225 forward $216 $-1 #
edge $-1 $347 28.093245019355731 $229 34.478986950721776 $224 $348 forward 7 unknown #
coedge $-1 $349 $339 $133 $227 forward $331 $-1 #
edge $-1 $228 -34.478986950721776 $350 -28.093245019355731 $226 $351 forward 7 unknown #
vertex $-1 $227 $352 #
vertex $-1 $225 $353 #
straight-curve $-1 -65.765102935760538 22.152206014862919 0 0 0 -1 I I #
face $-1 $-1 $354 $30 $-1 $355 reversed single #
loop $-1 $-1 $142 $136 #
plane-surface $-1 0 0 24.683450025371176 0 0 1 1 0 0 forward_v I I I I #
coedge $-1 $356 $357 $358 $359 reversed $137 $-1 #
coedge $-1 $360 $139 $141 $241 forward $85 $-1 #
coedge $-1 $139 $360 $356 $361 forward $85 $-1 #
coedge $-1 $358 $142 $139 $238 forward $232 $-1 #
edge $-1 $244 1.9647586067080258 $362 14.113217807672608 $237 $363 forward 7 unknown #
coedge $-1 $364 $365 $140 $240 forward $354 $-1 #
edge $-1 $366 -105.34064865002013 $243 -92.541505366359857 $239 $367 forward 7 unknown #
edge $-1 $244 137.77027180926407 $366 158.55952635273289 $141 $368 forward 7 unknown #
coedge $-1 $142 $358 $364 $369 forward $232 $-1 #
vertex $-1 $143 $370 #
vertex $-1 $143 $371 #
straight-curve $-1 25.976072712759475 -10.003746813898344 24.683450025371172 -1 0 0 I I #
coedge $-1 $246 $246 $-1 $372 reversed $146 $-1 #
edge $-1 $373 0 $373 6.2831853071796004 $147 $374 forward 7 unknown #
vertex $-1 $150 $375 #
ellipse-curve $-1 71.088685169207196 -19.72251417467001 18.283878383541023 0.61566148304635926 0 0.78801074757464917 0.39400537378732459 0 -0.30783074152317963 1 I I #
coedge $-1 $250 $250 $-1 $376 reversed $153 $-1 #
edge $-1 $377 0 $377 6.2831853071796004 $154 $378 forward 7 unknown #
vertex $-1 $157 $379 #
ellipse-curve $-1 71.088685169207196 -16.077976414380636 18.283878383541023 0.61566148304635926 0 0.78801074757464917 0.39400537378732459 0 -0.30783074152317963 1 I I #
coedge $-1 $254 $254 $-1 $380 reversed $160 $-1 #
edge $-1 $381 0 $381 6.2831853071796004 $161 $382 forward 7 unknown #
vertex $-1 $164 $383 #
ellipse-curve $-1 71.088685169207196 -12.433438654091262 18.283878383541023 0.61566148304635926 0 0.78801074757464917 0.39400537378732459 0 -0.30783074152317963 1 I I #
face $-1 $-1 $270 $34 $-1 $384 forward single #
loop $-1 $-1 $385 $165 #
plane-surface $-1 -79.279763176366458 0 0 1 0 0 0 0 -1 forward_v I I I I #
coedge $-1 $386 $387 $388 $389 reversed $166 $-1 #
coedge $-1 $390 $168 $170 $268 forward $104 $-1 #
coedge $-1 $168 $390 $386 $391 forward $104 $-1 #
coedge $-1 $388 $171 $168 $265 forward $270 $-1 #
edge $-1 $272 1.7217664078207875 $392 14.194215207301689 $264 $393 forward 7 unknown #
coedge $-1 $394 $395 $169 $267 forward $259 $-1 #
edge $-1 $396 -38.916922392769095 $271 -15.67938863392931 $266 $397 forward 7 unknown #
edge $-1 $272 -26.832392502280779 $396 5.6900626353428066e-014 $170 $398 forward 7 unknown #
coedge $-1 $171 $388 $394 $399 forward $270 $-1 #
loop $-1 $-1 $388 $258 #
vertex $-1 $267 $400 #
vertex $-1 $172 $401 #
straight-curve $-1 -108.29817111816234 9.6797572153820255 24.683450025371176 1 0 0 I I #
coedge $-1 $274 $274 $-1 $402 reversed $175 $-1 #
edge $-1 $403 0 $403 6.2831853071796004 $176 $404 forward 7 unknown #
vertex $-1 $179 $405 #
ellipse-curve $-1 -72.571665230539367 15.915981615122476 13.064683145951296 -0.86602541151947299 0 0.49999998660252726 0.99999997320505452 0 1.732050823038946 1 I I #
face $-1 $-1 $195 $27 $-1 $406 reversed single #
loop $-1 $-1 $294 $180 #
plane-surface $-1 0 51.964573676079368 0 0 -1 0 0 0 -1 forward_v I I I I #
coedge $-1 $407 $292 $295 $408 forward $181 $-1 #
coedge $-1 $298 $183 $184 $286 reversed $113 $-1 #
coedge $-1 $292 $407 $183 $284 reversed $181 $-1 #
edge $-1 $299 -24.683450025371176 $409 24.683450025371176 $283 $410 forward 7 unknown #
coedge $-1 $185 $184 $407 $411 forward $73 $-1 #
edge $-1 $290 -79.279763176366458 $409 79.279763176366458 $282 $412 forward 7 unknown #
coedge $-1 $295 $294 $185 $288 reversed $279 $-1 #
edge $-1 $413 -79.279763176366458 $289 79.279763176366458 $287 $414 forward 7 unknown #
vertex $-1 $187 $415 #
vertex $-1 $301 $416 #
straight-curve $-1 79.279763176366458 0 -24.683450025371176 0 -1 0 I I #
coedge $-1 $281 $283 $188 $293 reversed $181 $-1 #
edge $-1 $296 -51.964573676079368 $299 51.964573676079368 $292 $417 forward 7 unknown #
coedge $-1 $287 $189 $194 $302 forward $279 $-1 #
coedge $-1 $189 $287 $281 $408 reversed $279 $-1 #
vertex $-1 $190 $418 #
straight-curve $-1 0 51.964573676079368 24.683450025371176 -1 0 0 I I #
coedge $-1 $191 $282 $193 $301 reversed $113 $-1 #
vertex $-1 $293 $419 #
straight-curve $-1 0 -51.964573676079368 24.683450025371176 1 0 0 I I #
edge $-1 $196 -24.683450025371176 $290 24.683450025371176 $193 $420 forward 7 unknown #
edge $-1 $197 -24.683450025371176 $289 24.683450025371176 $194 $421 forward 7 unknown #
point $-1 79.279763176366458 -51.964573676079368 24.683450025371176 #
point $-1 79.279763176366458 51.964573676079368 24.683450025371176 #
face $-1 $-1 $422 $28 $-1 $423 reversed single #
loop $-1 $-1 $424 $199 #
plane-surface $-1 0 0 -24.683450025371176 0 0 1 1 0 0 forward_v I I I I #
coedge $-1 $315 $325 $310 $425 forward $200 $-1 #
coedge $-1 $205 $202 $424 $426 reversed $121 $-1 #
coedge $-1 $202 $205 $308 $425 reversed $121 $-1 #
coedge $-1 $427 $428 $202 $312 forward $422 $-1 #
edge $-1 $429 -24.683450025371176 $430 24.683450025371176 $311 $431 forward 7 unknown #
coedge $-1 $424 $208 $203 $314 forward $306 $-1 #
edge $-1 $213 -34.478986950721776 $318 -28.093245019355731 $313 $432 forward 7 unknown #
coedge $-1 $210 $308 $204 $316 forward $200 $-1 #
edge $-1 $317 28.093245019355731 $212 34.478986950721776 $315 $433 forward 7 unknown #
vertex $-1 $316 $434 #
vertex $-1 $314 $435 #
straight-curve $-1 -59.379361004394489 -22.152206014862927 0 0 0 -1 I I #
coedge $-1 $428 $427 $207 $321 forward $422 $-1 #
edge $-1 $326 -24.683450025371176 $323 24.683450025371176 $320 $436 forward 7 unknown #
coedge $-1 $208 $424 $428 $437 forward $306 $-1 #
vertex $-1 $209 $438 #
straight-curve $-1 -65.765102935760538 -18.529194922735574 -24.683450025371176 0 1 0 I I #
coedge $-1 $308 $210 $427 $439 forward $200 $-1 #
vertex $-1 $439 $440 #
straight-curve $-1 -65.765102935760538 -18.529194922735574 24.683450025371176 0 -1 0 I I #
point $-1 -65.765102935760538 -22.152206014862927 24.683450025371176 #
point $-1 -65.765102935760538 -22.152206014862927 -24.683450025371176 #
face $-1 $-1 $343 $29 $-1 $441 reversed single #
loop $-1 $-1 $349 $215 #
plane-surface $-1 0 0 24.683450025371176 0 0 1 1 0 0 forward_v I I I I #
coedge $-1 $224 $442 $334 $443 forward $216 $-1 #
coedge $-1 $444 $218 $333 $443 reversed $129 $-1 #
coedge $-1 $218 $444 $349 $445 reversed $129 $-1 #
edge $-1 $350 -24.683450025371176 $347 24.683450025371176 $218 $446 forward 7 unknown #
coedge $-1 $442 $224 $219 $338 forward $216 $-1 #
edge $-1 $229 3.6230110921273493 $344 33.435378753343791 $337 $447 forward 7 unknown #
coedge $-1 $226 $448 $220 $340 forward $331 $-1 #
edge $-1 $345 -33.435378753343791 $228 -3.6230110921273493 $339 $449 forward 7 unknown #
coedge $-1 $450 $221 $448 $451 reversed $343 $-1 #
coedge $-1 $221 $450 $442 $452 reversed $343 $-1 #
loop $-1 $-1 $450 $330 #
vertex $-1 $452 $453 #
vertex $-1 $222 $454 #
straight-curve $-1 -65.765102935760538 51.964573676079368 0 0 0 1 I I #
vertex $-1 $225 $455 #
straight-curve $-1 -31.286115985038759 22.152206014862919 -24.683450025371176 -1 0 0 I I #
coedge $-1 $448 $226 $335 $445 forward $331 $-1 #
vertex $-1 $227 $456 #
straight-curve $-1 -31.286115985038759 22.152206014862919 24.683450025371176 1 0 0 I I #
point $-1 -65.765102935760538 22.152206014862919 24.683450025371176 #
point $-1 -65.765102935760538 22.152206014862919 -24.683450025371176 #
loop $-1 $-1 $239 $231 #
plane-surface $-1 79.279763176366458 0 0 -1 0 0 0 0 1 forward_v I I I I #
coedge $-1 $357 $234 $236 $361 reversed $137 $-1 #
coedge $-1 $234 $356 $457 $458 reversed $137 $-1 #
coedge $-1 $242 $237 $234 $359 forward $232 $-1 #
edge $-1 $362 36.921534449288444 $459 53.303690463606983 $358 $460 forward 7 unknown #
coedge $-1 $236 $235 $365 $461 reversed $85 $-1 #
edge $-1 $462 -158.55952635273289 $362 -137.77027180926407 $356 $463 forward 7 unknown #
vertex $-1 $238 $464 #
straight-curve $-1 62.89760716204794 -8.038988207190318 24.683450025371165 0 -1 0 I I #
coedge $-1 $457 $239 $242 $369 reversed $354 $-1 #
coedge $-1 $239 $457 $360 $461 forward $354 $-1 #
vertex $-1 $240 $465 #
straight-curve $-1 79.279763176366458 -10.003746813898344 117.22495539173103 0 0 1 I I #
straight-curve $-1 -45.666847719932875 -10.003746813898344 109.50329988716271 0.78801074757464917 0 -0.61566148304635926 I I #
edge $-1 $459 -22.152206014862927 $243 -10.003746813898344 $364 $466 forward 7 unknown #
point $-1 79.279763176366458 -10.003746813898344 24.683450025371176 #
point $-1 62.897607162047919 -10.003746813898344 24.683450025371172 #
edge $-1 $467 1 $467 0 $246 $-1 forward 7 unknown #
vertex $-1 $247 $468 #
ellipse-curve $-1 70.459138562836429 -19.72251417467001 17.478095488914239 0.61566148304635926 0 0.78801074757464917 0.39400537378732459 0 -0.30783074152317963 1 I I #
point $-1 71.482690542994533 -19.72251417467001 17.976047642017853 #
edge $-1 $469 1 $469 0 $250 $-1 forward 7 unknown #
vertex $-1 $251 $470 #
ellipse-curve $-1 70.459138562836429 -16.077976414380636 17.478095488914239 0.61566148304635926 0 0.78801074757464917 0.39400537378732459 0 -0.30783074152317963 1 I I #
point $-1 71.482690542994533 -16.077976414380636 17.976047642017853 #
edge $-1 $471 1 $471 0 $254 $-1 forward 7 unknown #
vertex $-1 $255 $472 #
ellipse-curve $-1 70.459138562836429 -12.433438654091262 17.478095488914239 0.61566148304635926 0 0.78801074757464917 0.39400537378732459 0 -0.30783074152317963 1 I I #
point $-1 71.482690542994533 -12.433438654091262 17.976047642017853 #
plane-surface $-1 0 0 24.683450025371176 0 0 1 1 0 0 forward_v I I I I #
coedge $-1 $395 $394 $387 $473 forward $259 $-1 #
coedge $-1 $387 $261 $263 $391 reversed $166 $-1 #
coedge $-1 $261 $386 $385 $473 reversed $166 $-1 #
coedge $-1 $269 $264 $261 $389 forward $270 $-1 #
edge $-1 $392 -42.434603833450055 $474 -29.018407941795886 $388 $475 forward 7 unknown #
coedge $-1 $263 $262 $395 $476 reversed $104 $-1 #
edge $-1 $477 -5.6900626353428066e-014 $392 26.832392502280779 $386 $478 forward 7 unknown #
vertex $-1 $265 $479 #
straight-curve $-1 -65.863567284712289 7.957990807561238 24.683450025371176 0 1 0 I I #
coedge $-1 $385 $266 $269 $399 reversed $259 $-1 #
coedge $-1 $266 $385 $390 $476 forward $259 $-1 #
vertex $-1 $267 $480 #
straight-curve $-1 -79.279763176366458 9.6797572153820255 40.362838659300486 0 0 1 I I #
straight-curve $-1 -79.27976317636643 9.6797572153820255 1.4459162665314409 -0.49999998660252726 0 -0.86602541151947299 I I #
edge $-1 $474 -22.152206014862927 $271 -9.6797572153820255 $394 $481 forward 7 unknown #
point $-1 -79.279763176366458 9.6797572153820255 24.683450025371176 #
point $-1 -65.863567284712289 9.6797572153820255 24.683450025371176 #
edge $-1 $482 1 $482 0 $274 $-1 forward 7 unknown #
vertex $-1 $275 $483 #
ellipse-curve $-1 -66.530234746614497 15.915981615122476 9.5766617543819859 -0.86602541151947299 0 0.49999998660252726 0.99999997320505452 0 1.732050823038946 1 I I #
point $-1 -71.571665257334345 15.915981615122476 14.796733968990258 #
plane-surface $-1 79.279763176366458 0 0 -1 0 0 0 0 1 forward_v I I I I #
coedge $-1 $283 $281 $285 $411 reversed $181 $-1 #
edge $-1 $296 -24.683450025371176 $413 24.683450025371176 $295 $484 forward 7 unknown #
vertex $-1 $411 $485 #
straight-curve $-1 -79.279763176366458 -51.964573676079368 0 0 0 -1 I I #
edge $-1 $409 -51.964573676079368 $413 51.964573676079368 $407 $486 forward 7 unknown #
straight-curve $-1 0 -51.964573676079368 -24.683450025371176 -1 0 0 I I #
vertex $-1 $288 $487 #
straight-curve $-1 0 51.964573676079368 -24.683450025371176 1 0 0 I I #
point $-1 79.279763176366458 51.964573676079368 -24.683450025371176 #
point $-1 79.279763176366458 -51.964573676079368 -24.683450025371176 #
straight-curve $-1 -79.279763176366458 0 24.683450025371176 0 -1 0 I I #
point $-1 -79.279763176366458 51.964573676079368 24.683450025371176 #
point $-1 -79.279763176366458 -51.964573676079368 24.683450025371176 #
straight-curve $-1 79.279763176366458 -51.964573676079368 0 0 0 -1 I I #
straight-curve $-1 79.279763176366458 51.964573676079368 0 0 0 -1 I I #
loop $-1 $-1 $311 $305 #
plane-surface $-1 0 -51.964573676079368 0 0 1 0 0 0 1 forward_v I I I I #
coedge $-1 $322 $313 $309 $426 forward $306 $-1 #
edge $-1 $430 -33.435378753343798 $317 -3.6230110921273528 $308 $488 forward 7 unknown #
edge $-1 $318 3.6230110921273528 $429 33.435378753343798 $424 $489 forward 7 unknown #
coedge $-1 $320 $311 $325 $439 reversed $422 $-1 #
coedge $-1 $311 $320 $322 $437 reversed $422 $-1 #
vertex $-1 $437 $490 #
vertex $-1 $312 $491 #
straight-curve $-1 -59.379361004394489 -51.964573676079368 0 0 0 1 I I #
straight-curve $-1 -31.286115985038759 -22.152206014862927 -24.683450025371176 1 0 0 I I #
straight-curve $-1 -31.286115985038759 -22.152206014862927 24.683450025371176 -1 0 0 I I #
point $-1 -59.379361004394489 -22.152206014862927 24.683450025371176 #
point $-1 -59.379361004394489 -22.152206014862927 -24.683450025371176 #
straight-curve $-1 -65.765102935760538 -51.964573676079368 0 0 0 -1 I I #
edge $-1 $429 59.379361004394489 $323 65.765102935760538 $428 $492 forward 7 unknown #
point $-1 -65.765102935760538 -51.964573676079368 -24.683450025371176 #
edge $-1 $326 -65.765102935760538 $430 -59.379361004394489 $427 $493 forward 7 unknown #
point $-1 -65.765102935760538 -51.964573676079368 24.683450025371176 #
plane-surface $-1 0 51.964573676079368 0 0 -1 0 0 0 -1 forward_v I I I I #
coedge $-1 $333 $337 $342 $452 forward $216 $-1 #
edge $-1 $494 -33.435378753343791 $347 -3.6230110921273493 $333 $495 forward 7 unknown #
coedge $-1 $335 $334 $450 $496 reversed $129 $-1 #
edge $-1 $350 3.6230110921273493 $497 33.435378753343791 $349 $498 forward 7 unknown #
straight-curve $-1 -59.379361004394489 22.152206014862919 0 0 0 -1 I I #
straight-curve $-1 -65.765102935760538 18.52919492273557 -24.683450025371176 0 1 0 I I #
coedge $-1 $339 $349 $341 $451 forward $331 $-1 #
straight-curve $-1 -65.765102935760538 18.52919492273557 24.683450025371176 0 -1 0 I I #
coedge $-1 $342 $341 $444 $496 forward $343 $-1 #
edge $-1 $497 59.379361004394489 $345 65.765102935760538 $341 $499 forward 7 unknown #
edge $-1 $344 -65.765102935760538 $494 -59.379361004394489 $342 $500 forward 7 unknown #
point $-1 -65.765102935760538 51.964573676079361 -24.683450025371176 #
point $-1 -65.765102935760538 51.964573676079361 24.683450025371176 #
point $-1 -59.379361004394489 22.152206014862919 -24.683450025371176 #
point $-1 -59.379361004394489 22.152206014862919 24.683450025371176 #
coedge $-1 $365 $364 $357 $458 forward $354 $-1 #
edge $-1 $459 92.541505366359857 $462 105.34064865002013 $457 $501 forward 7 unknown #
vertex $-1 $369 $502 #
straight-curve $-1 25.976072712759475 -22.152206014862927 24.683450025371172 1 0 0 I I #
edge $-1 $462 -14.113217807672608 $366 -1.9647586067080258 $365 $503 forward 7 unknown #
vertex $-1 $461 $504 #
straight-curve $-1 -45.666847719932875 -22.152206014862927 109.50329988716271 -0.78801074757464917 0 0.61566148304635926 I I #
point $-1 62.897607162047919 -22.152206014862927 24.683450025371172 #
point $-1 79.279763176366458 -10.003746813898344 11.884306741710901 #
straight-curve $-1 79.279763176366458 0 24.683450025371176 0 1 0 I I #
vertex $-1 $372 $505 #
point $-1 70.853143936623752 -19.72251417467001 17.170264747391059 #
vertex $-1 $376 $506 #
point $-1 70.853143936623752 -16.077976414380636 17.170264747391059 #
vertex $-1 $380 $507 #
point $-1 70.853143936623752 -12.433438654091262 17.170264747391059 #
edge $-1 $474 15.67938863392931 $477 38.916922392769095 $385 $508 forward 7 unknown #
vertex $-1 $399 $509 #
straight-curve $-1 -108.29817111816234 22.152206014862927 24.683450025371176 -1 0 0 I I #
edge $-1 $477 -14.194215207301689 $396 -1.7217664078207875 $395 $510 forward 7 unknown #
vertex $-1 $476 $511 #
straight-curve $-1 -79.27976317636643 22.152206014862927 1.4459162665314409 0.49999998660252726 0 0.86602541151947299 I I #
point $-1 -65.863567284712289 22.152206014862927 24.683450025371176 #
point $-1 -79.279763176366458 9.6797572153820255 1.4459162665313916 #
straight-curve $-1 -79.279763176366458 0 24.683450025371176 0 -1 0 I I #
vertex $-1 $402 $512 #
point $-1 -65.530234773409447 15.915981615122476 11.308712577420932 #
straight-curve $-1 -79.279763176366458 51.964573676079368 0 0 0 -1 I I #
point $-1 -79.279763176366458 -51.964573676079368 -24.683450025371176 #
straight-curve $-1 -79.279763176366458 0 -24.683450025371176 0 1 0 I I #
point $-1 -79.279763176366458 51.964573676079368 -24.683450025371176 #
straight-curve $-1 -59.379361004394489 -18.529194922735574 24.683450025371176 0 1 0 I I #
straight-curve $-1 -59.379361004394489 -18.529194922735574 -24.683450025371176 0 -1 0 I I #
point $-1 -59.379361004394489 -51.964573676079368 -24.683450025371176 #
point $-1 -59.379361004394489 -51.964573676079368 24.683450025371176 #
straight-curve $-1 0 -51.964573676079368 -24.683450025371176 -1 0 0 I I #
straight-curve $-1 0 -51.964573676079368 24.683450025371176 1 0 0 I I #
vertex $-1 $496 $513 #
straight-curve $-1 -59.379361004394489 18.52919492273557 -24.683450025371176 0 -1 0 I I #
edge $-1 $497 -24.683450025371176 $494 24.683450025371176 $450 $514 forward 7 unknown #
vertex $-1 $451 $515 #
straight-curve $-1 -59.379361004394489 18.52919492273557 24.683450025371176 0 1 0 I I #
straight-curve $-1 0 51.964573676079368 24.683450025371176 -1 0 0 I I #
straight-curve $-1 0 51.964573676079368 -24.683450025371176 1 0 0 I I #
straight-curve $-1 79.279763176366458 -22.152206014862927 117.22495539173103 0 0 -1 I I #
point $-1 79.279763176366458 -22.152206014862927 24.683450025371176 #
straight-curve $-1 79.279763176366458 -8.038988207190318 11.884306741710901 0 1 0 I I #
point $-1 79.279763176366458 -22.152206014862927 11.884306741710901 #
point $-1 70.151307821313239 -19.72251417467001 17.084090115126916 #
point $-1 70.151307821313239 -16.077976414380636 17.084090115126916 #
point $-1 70.151307821313239 -12.433438654091262 17.084090115126916 #
straight-curve $-1 -79.279763176366458 22.152206014862927 40.362838659300486 0 0 -1 I I #
point $-1 -79.279763176366458 22.152206014862927 24.683450025371176 #
straight-curve $-1 -79.279763176366458 7.957990807561238 1.4459162665313938 0 -1 0 I I #
point $-1 -79.279763176366458 22.152206014862927 1.4459162665313916 #
point $-1 -64.79818392357555 15.915981615122476 8.5766617811769326 #
point $-1 -59.379361004394489 51.964573676079361 -24.683450025371176 #
straight-curve $-1 -59.379361004394489 51.964573676079368 0 0 0 -1 I I #
point $-1 -59.379361004394489 51.964573676079361 24.683450025371176 #
End-of-ACIS-data 