500 0 19 0           
7 Unknown 11 ACIS 5.0 NT 24 Fri Mar 26 19:17:16 1999 
-1 9.9999999999999995e-007 1e-010 
body $-1 $19 $-1 $20 #
body $-1 $21 $-1 $22 #
body $-1 $23 $-1 $24 #
body $-1 $25 $-1 $26 #
body $-1 $27 $-1 $28 #
body $-1 $29 $-1 $30 #
body $-1 $31 $-1 $32 #
body $-1 $33 $-1 $34 #
body $-1 $35 $-1 $36 #
body $-1 $37 $-1 $38 #
body $-1 $39 $-1 $40 #
body $-1 $41 $-1 $42 #
body $-1 $43 $-1 $44 #
body $-1 $45 $-1 $46 #
body $-1 $47 $-1 $48 #
body $-1 $49 $-1 $50 #
body $-1 $51 $-1 $52 #
body $-1 $53 $-1 $54 #
body $-1 $55 $-1 $56 #
lump $-1 $-1 $57 $0 #
transform $-1 1 0 0 0 1 0 0 0 1 68.759422589800721 29.63221174757637 9.6785113988848952 1 rotate no_reflect no_shear #
lump $-1 $-1 $58 $1 #
transform $-1 1 0 0 0 1 0 0 0 1 68.759422589800721 29.63221174757637 9.6785113988848952 1 rotate no_reflect no_shear #
lump $-1 $-1 $59 $2 #
transform $-1 1 0 0 0 1 0 0 0 1 68.759422589800721 29.63221174757637 9.6785113988848952 1 rotate no_reflect no_shear #
lump $-1 $-1 $60 $3 #
transform $-1 1 0 0 0 1 0 0 0 1 68.759422589800721 29.63221174757637 9.6785113988848952 1 rotate no_reflect no_shear #
lump $-1 $-1 $61 $4 #
transform $-1 1 0 0 0 1 0 0 0 1 68.759422589800721 29.63221174757637 9.6785113988848952 1 rotate no_reflect no_shear #
lump $-1 $-1 $62 $5 #
transform $-1 1 0 0 0 1 0 0 0 1 68.759422589800721 29.63221174757637 9.6785113988848952 1 rotate no_reflect no_shear #
lump $-1 $-1 $63 $6 #
transform $-1 1 0 0 0 1 0 0 0 1 68.759422589800721 29.63221174757637 9.6785113988848952 1 rotate no_reflect no_shear #
lump $-1 $-1 $64 $7 #
transform $-1 1 0 0 0 1 0 0 0 1 68.759422589800721 29.63221174757637 9.6785113988848952 1 rotate no_reflect no_shear #
lump $-1 $-1 $65 $8 #
transform $-1 1 0 0 0 1 0 0 0 1 68.759422589800721 29.63221174757637 9.6785113988848952 1 rotate no_reflect no_shear #
lump $-1 $-1 $66 $9 #
transform $-1 1 0 0 0 1 0 0 0 1 68.759422589800721 29.63221174757637 9.6785113988848952 1 rotate no_reflect no_shear #
lump $-1 $-1 $67 $10 #
transform $-1 1 0 0 0 1 0 0 0 1 68.759422589800721 29.63221174757637 9.6785113988848952 1 rotate no_reflect no_shear #
lump $-1 $-1 $68 $11 #
transform $-1 1 0 0 0 1 0 0 0 1 68.759422589800721 29.63221174757637 9.6785113988848952 1 rotate no_reflect no_shear #
lump $-1 $-1 $69 $12 #
transform $-1 1 0 0 0 1 0 0 0 1 68.759422589800721 29.63221174757637 9.6785113988848952 1 rotate no_reflect no_shear #
lump $-1 $-1 $70 $13 #
transform $-1 1 0 0 0 1 0 0 0 1 68.759422589800721 29.63221174757637 9.6785113988848952 1 rotate no_reflect no_shear #
lump $-1 $-1 $71 $14 #
transform $-1 1 0 0 0 1 0 0 0 1 68.759422589800721 29.63221174757637 9.6785113988848952 1 rotate no_reflect no_shear #
lump $-1 $-1 $72 $15 #
transform $-1 1 0 0 0 1 0 0 0 1 68.759422589800721 29.63221174757637 9.6785113988848952 1 rotate no_reflect no_shear #
lump $-1 $-1 $73 $16 #
transform $-1 1 0 0 0 1 0 0 0 1 68.759422589800721 29.63221174757637 9.6785113988848952 1 rotate no_reflect no_shear #
lump $-1 $-1 $74 $17 #
transform $-1 1 0 0 0 1 0 0 0 1 68.759422589800721 29.63221174757637 9.6785113988848952 1 rotate no_reflect no_shear #
lump $-1 $-1 $75 $18 #
transform $-1 1 0 0 0 1 0 0 0 1 68.759422589800721 29.63221174757637 9.6785113988848952 1 rotate no_reflect no_shear #
shell $-1 $-1 $-1 $76 $-1 $19 #
shell $-1 $-1 $-1 $77 $-1 $21 #
shell $-1 $-1 $-1 $78 $-1 $23 #
shell $-1 $-1 $-1 $79 $-1 $25 #
shell $-1 $-1 $-1 $80 $-1 $27 #
shell $-1 $-1 $-1 $81 $-1 $29 #
shell $-1 $-1 $-1 $82 $-1 $31 #
shell $-1 $-1 $-1 $83 $-1 $33 #
shell $-1 $-1 $-1 $84 $-1 $35 #
shell $-1 $-1 $-1 $85 $-1 $37 #
shell $-1 $-1 $-1 $86 $-1 $39 #
shell $-1 $-1 $-1 $87 $-1 $41 #
shell $-1 $-1 $-1 $88 $-1 $43 #
shell $-1 $-1 $-1 $89 $-1 $45 #
shell $-1 $-1 $-1 $90 $-1 $47 #
shell $-1 $-1 $-1 $91 $-1 $49 #
shell $-1 $-1 $-1 $92 $-1 $51 #
shell $-1 $-1 $-1 $93 $-1 $53 #
shell $-1 $-1 $-1 $94 $-1 $55 #
face $-1 $95 $96 $57 $-1 $97 forward single #
face $-1 $98 $99 $58 $-1 $100 forward single #
face $-1 $101 $102 $59 $-1 $103 forward single #
face $-1 $104 $105 $60 $-1 $106 reversed single #
face $-1 $107 $108 $61 $-1 $109 forward single #
face $-1 $110 $111 $62 $-1 $112 forward single #
face $-1 $113 $114 $63 $-1 $115 forward single #
face $-1 $116 $117 $64 $-1 $118 reversed single #
face $-1 $119 $120 $65 $-1 $121 forward single #
face $-1 $122 $123 $66 $-1 $124 forward single #
face $-1 $125 $126 $67 $-1 $127 forward single #
face $-1 $128 $129 $68 $-1 $130 reversed single #
face $-1 $131 $132 $69 $-1 $133 forward single #
face $-1 $134 $135 $70 $-1 $136 forward single #
face $-1 $137 $138 $71 $-1 $139 forward single #
face $-1 $140 $141 $72 $-1 $142 reversed single #
face $-1 $143 $144 $73 $-1 $145 forward single #
face $-1 $146 $147 $74 $-1 $148 forward single #
face $-1 $149 $150 $75 $-1 $151 forward single #
face $-1 $152 $153 $57 $-1 $154 reversed single #
loop $-1 $-1 $155 $76 #
plane-surface $-1 0 0 9.6785113988848952 0 0 1 1 0 0 forward_v I I I I #
face $-1 $156 $157 $58 $-1 $158 reversed single #
loop $-1 $-1 $159 $77 #
plane-surface $-1 -65.439188386258394 0 -4.4758712633746001 0 0 1 1 0 0 forward_v I I I I #
face $-1 $160 $161 $59 $-1 $162 reversed single #
loop $-1 $-1 $163 $78 #
plane-surface $-1 65.439188386258394 0 -4.4758712633746001 0 0 1 1 0 0 forward_v I I I I #
face $-1 $164 $165 $60 $-1 $166 reversed single #
loop $-1 $-1 $167 $79 #
plane-surface $-1 -38.017420335533615 57.399341562165255 149.5784551319297 -1 0 0 0 0.55919291073839883 0.82903756765294845 forward_v I I I I #
face $-1 $168 $169 $61 $-1 $170 forward single #
loop $-1 $171 $172 $80 #
cone-surface $-1 -52.665565288158987 23.671579019199235 5.1833686145375726 0 -0.55919291073839883 -0.82903756765294845 1 0 0 1 I I 0 1 1 forward I I I I #
face $-1 $173 $174 $62 $-1 $175 forward single #
loop $-1 $176 $177 $81 #
cone-surface $-1 -47.172510930924467 23.671579019199235 5.1833686145375726 0 -0.55919291073839883 -0.82903756765294845 1 0 0 1 I I 0 1 1 forward I I I I #
face $-1 $178 $179 $63 $-1 $180 forward single #
loop $-1 $181 $182 $82 #
cone-surface $-1 -41.679456573689947 23.671579019199235 5.1833686145375726 0 -0.55919291073839883 -0.82903756765294845 1 0 0 1 I I 0 1 1 forward I I I I #
face $-1 $183 $184 $64 $-1 $185 reversed single #
loop $-1 $-1 $186 $83 #
plane-surface $-1 -6.9579432441755777 57.399341562165255 149.5784551319297 -1 0 0 0 0.55919291073839883 0.82903756765294845 forward_v I I I I #
face $-1 $187 $188 $65 $-1 $189 forward single #
loop $-1 $190 $191 $84 #
cone-surface $-1 -21.606088196800954 23.671579019199235 5.1833686145375726 0 -0.55919291073839883 -0.82903756765294845 1 0 0 1 I I 0 1 1 forward I I I I #
face $-1 $192 $193 $66 $-1 $194 forward single #
loop $-1 $195 $196 $85 #
cone-surface $-1 -16.113033839566434 23.671579019199235 5.1833686145375726 0 -0.55919291073839883 -0.82903756765294845 1 0 0 1 I I 0 1 1 forward I I I I #
face $-1 $197 $198 $67 $-1 $199 forward single #
loop $-1 $200 $201 $86 #
cone-surface $-1 -10.619979482331914 23.671579019199235 5.1833686145375726 0 -0.55919291073839883 -0.82903756765294845 1 0 0 1 I I 0 1 1 forward I I I I #
face $-1 $202 $203 $68 $-1 $204 reversed single #
loop $-1 $-1 $205 $87 #
plane-surface $-1 24.101533847182456 57.399341562165255 149.5784551319297 -1 0 0 0 0.55919291073839883 0.82903756765294845 forward_v I I I I #
face $-1 $206 $207 $69 $-1 $208 forward single #
loop $-1 $209 $210 $88 #
cone-surface $-1 9.4533888945570794 23.671579019199235 5.1833686145375726 0 -0.55919291073839883 -0.82903756765294845 1 0 0 1 I I 0 1 1 forward I I I I #
face $-1 $211 $212 $70 $-1 $213 forward single #
loop $-1 $214 $215 $89 #
cone-surface $-1 14.946443251791607 23.671579019199235 5.1833686145375726 0 -0.55919291073839883 -0.82903756765294845 1 0 0 1 I I 0 1 1 forward I I I I #
face $-1 $216 $217 $71 $-1 $218 forward single #
loop $-1 $219 $220 $90 #
cone-surface $-1 20.43949760902612 23.671579019199235 5.1833686145375726 0 -0.55919291073839883 -0.82903756765294845 1 0 0 1 I I 0 1 1 forward I I I I #
face $-1 $221 $222 $72 $-1 $223 reversed single #
loop $-1 $-1 $224 $91 #
plane-surface $-1 55.161010938540485 57.399341562165255 149.5784551319297 -1 0 0 0 0.55919291073839883 0.82903756765294845 forward_v I I I I #
face $-1 $225 $226 $73 $-1 $227 forward single #
loop $-1 $228 $229 $92 #
cone-surface $-1 40.512865985915113 23.671579019199235 5.1833686145375726 0 -0.55919291073839883 -0.82903756765294845 1 0 0 1 I I 0 1 1 forward I I I I #
face $-1 $230 $231 $74 $-1 $232 forward single #
loop $-1 $233 $234 $93 #
cone-surface $-1 46.00592034314964 23.671579019199235 5.1833686145375726 0 -0.55919291073839883 -0.82903756765294845 1 0 0 1 I I 0 1 1 forward I I I I #
face $-1 $235 $236 $75 $-1 $237 forward single #
loop $-1 $238 $239 $94 #
cone-surface $-1 51.498974700384153 23.671579019199235 5.1833686145375726 0 -0.55919291073839883 -0.82903756765294845 1 0 0 1 I I 0 1 1 forward I I I I #
face $-1 $240 $241 $57 $-1 $242 reversed single #
loop $-1 $-1 $243 $95 #
plane-surface $-1 0 0 -9.6785113988848952 0 0 1 1 0 0 forward_v I I I I #
coedge $-1 $244 $245 $246 $247 forward $96 $-1 #
face $-1 $248 $249 $58 $-1 $250 reversed single #
loop $-1 $-1 $251 $98 #
plane-surface $-1 -65.439188386258394 0 -8.8760538955712711 0 0 1 1 0 0 forward_v I I I I #
coedge $-1 $252 $253 $254 $255 forward $99 $-1 #
face $-1 $256 $257 $59 $-1 $258 reversed single #
loop $-1 $-1 $259 $101 #
plane-surface $-1 65.439188386258394 0 -8.8760538955712711 0 0 1 1 0 0 forward_v I I I I #
coedge $-1 $260 $261 $262 $263 reversed $102 $-1 #
face $-1 $264 $265 $60 $-1 $266 reversed single #
loop $-1 $-1 $267 $104 #
plane-surface $-1 -47.172510930924474 -19.500221755199298 35.570166217790529 0 0.55919291073839883 0.82903756765294845 1 0 0 forward_v I I I I #
coedge $-1 $268 $269 $270 $271 reversed $105 $-1 #
face $-1 $-1 $272 $61 $-1 $273 forward single #
loop $-1 $274 $275 $107 #
cone-surface $-1 -52.665565288158987 22.804588527416563 3.8980023756547713 0 -0.55919291073839883 -0.82903756765294845 0.5 0 0 1 I I -0.70710678118654746 0.70710678118654746 0.5 forward I I I I #
loop $-1 $-1 $276 $80 #
coedge $-1 $172 $172 $277 $278 reversed $108 $-1 #
face $-1 $-1 $279 $62 $-1 $280 forward single #
loop $-1 $281 $282 $110 #
cone-surface $-1 -47.172510930924467 22.804588527416563 3.8980023756547713 0 -0.55919291073839883 -0.82903756765294845 0.5 0 0 1 I I -0.70710678118654746 0.70710678118654746 0.5 forward I I I I #
loop $-1 $-1 $283 $81 #
coedge $-1 $177 $177 $284 $285 reversed $111 $-1 #
face $-1 $-1 $286 $63 $-1 $287 forward single #
loop $-1 $288 $289 $113 #
cone-surface $-1 -41.679456573689947 22.804588527416563 3.8980023756547713 0 -0.55919291073839883 -0.82903756765294845 0.5 0 0 1 I I -0.70710678118654746 0.70710678118654746 0.5 forward I I I I #
loop $-1 $-1 $290 $82 #
coedge $-1 $182 $182 $291 $292 reversed $114 $-1 #
face $-1 $293 $294 $64 $-1 $295 reversed single #
loop $-1 $-1 $296 $116 #
plane-surface $-1 -16.113033839566441 -19.500221755199298 35.570166217790529 0 0.55919291073839883 0.82903756765294845 1 0 0 forward_v I I I I #
coedge $-1 $297 $298 $299 $300 reversed $117 $-1 #
face $-1 $-1 $301 $65 $-1 $302 forward single #
loop $-1 $303 $304 $119 #
cone-surface $-1 -21.606088196800954 22.804588527416563 3.8980023756547713 0 -0.55919291073839883 -0.82903756765294845 0.5 0 0 1 I I -0.70710678118654746 0.70710678118654746 0.5 forward I I I I #
loop $-1 $-1 $305 $84 #
coedge $-1 $191 $191 $306 $307 reversed $120 $-1 #
face $-1 $-1 $308 $66 $-1 $309 forward single #
loop $-1 $310 $311 $122 #
cone-surface $-1 -16.113033839566434 22.804588527416563 3.8980023756547713 0 -0.55919291073839883 -0.82903756765294845 0.5 0 0 1 I I -0.70710678118654746 0.70710678118654746 0.5 forward I I I I #
loop $-1 $-1 $312 $85 #
coedge $-1 $196 $196 $313 $314 reversed $123 $-1 #
face $-1 $-1 $315 $67 $-1 $316 forward single #
loop $-1 $317 $318 $125 #
cone-surface $-1 -10.619979482331914 22.804588527416563 3.8980023756547713 0 -0.55919291073839883 -0.82903756765294845 0.5 0 0 1 I I -0.70710678118654746 0.70710678118654746 0.5 forward I I I I #
loop $-1 $-1 $319 $86 #
coedge $-1 $201 $201 $320 $321 reversed $126 $-1 #
face $-1 $322 $323 $68 $-1 $324 reversed single #
loop $-1 $-1 $325 $128 #
plane-surface $-1 14.946443251791592 -19.500221755199298 35.570166217790529 0 0.55919291073839883 0.82903756765294845 1 0 0 forward_v I I I I #
coedge $-1 $326 $327 $328 $329 reversed $129 $-1 #
face $-1 $-1 $330 $69 $-1 $331 forward single #
loop $-1 $332 $333 $131 #
cone-surface $-1 9.4533888945570794 22.804588527416563 3.8980023756547713 0 -0.55919291073839883 -0.82903756765294845 0.5 0 0 1 I I -0.70710678118654746 0.70710678118654746 0.5 forward I I I I #
loop $-1 $-1 $334 $88 #
coedge $-1 $210 $210 $335 $336 reversed $132 $-1 #
face $-1 $-1 $337 $70 $-1 $338 forward single #
loop $-1 $339 $340 $134 #
cone-surface $-1 14.946443251791607 22.804588527416563 3.8980023756547713 0 -0.55919291073839883 -0.82903756765294845 0.5 0 0 1 I I -0.70710678118654746 0.70710678118654746 0.5 forward I I I I #
loop $-1 $-1 $341 $89 #
coedge $-1 $215 $215 $342 $343 reversed $135 $-1 #
face $-1 $-1 $344 $71 $-1 $345 forward single #
loop $-1 $346 $347 $137 #
cone-surface $-1 20.43949760902612 22.804588527416563 3.8980023756547713 0 -0.55919291073839883 -0.82903756765294845 0.5 0 0 1 I I -0.70710678118654746 0.70710678118654746 0.5 forward I I I I #
loop $-1 $-1 $348 $90 #
coedge $-1 $220 $220 $349 $350 reversed $138 $-1 #
face $-1 $351 $352 $72 $-1 $353 reversed single #
loop $-1 $-1 $354 $140 #
plane-surface $-1 46.005920343149626 -19.500221755199298 35.570166217790529 0 0.55919291073839883 0.82903756765294845 1 0 0 forward_v I I I I #
coedge $-1 $355 $356 $357 $358 reversed $141 $-1 #
face $-1 $-1 $359 $73 $-1 $360 forward single #
loop $-1 $361 $362 $143 #
cone-surface $-1 40.512865985915113 22.804588527416563 3.8980023756547713 0 -0.55919291073839883 -0.82903756765294845 0.5 0 0 1 I I -0.70710678118654746 0.70710678118654746 0.5 forward I I I I #
loop $-1 $-1 $363 $92 #
coedge $-1 $229 $229 $364 $365 reversed $144 $-1 #
face $-1 $-1 $366 $74 $-1 $367 forward single #
loop $-1 $368 $369 $146 #
cone-surface $-1 46.00592034314964 22.804588527416563 3.8980023756547713 0 -0.55919291073839883 -0.82903756765294845 0.5 0 0 1 I I -0.70710678118654746 0.70710678118654746 0.5 forward I I I I #
loop $-1 $-1 $370 $93 #
coedge $-1 $234 $234 $371 $372 reversed $147 $-1 #
face $-1 $-1 $373 $75 $-1 $374 forward single #
loop $-1 $375 $376 $149 #
cone-surface $-1 51.498974700384153 22.804588527416563 3.8980023756547713 0 -0.55919291073839883 -0.82903756765294845 0.5 0 0 1 I I -0.70710678118654746 0.70710678118654746 0.5 forward I I I I #
loop $-1 $-1 $377 $94 #
coedge $-1 $239 $239 $378 $379 reversed $150 $-1 #
face $-1 $380 $381 $57 $-1 $382 reversed single #
loop $-1 $-1 $383 $152 #
plane-surface $-1 0 -29.63221174757637 0 0 1 0 0 0 1 forward_v I I I I #
coedge $-1 $384 $385 $386 $387 forward $153 $-1 #
coedge $-1 $388 $155 $389 $390 forward $96 $-1 #
coedge $-1 $155 $388 $391 $392 forward $96 $-1 #
coedge $-1 $393 $394 $155 $247 reversed $395 $-1 #
edge $-1 $396 -29.63221174757637 $397 29.63221174757637 $246 $398 forward 7 unknown #
face $-1 $399 $400 $58 $-1 $401 reversed single #
loop $-1 $-1 $402 $156 #
plane-surface $-1 -62.118954182716067 0 -6.6759625794729356 -1 0 0 0 0 1 forward_v I I I I #
coedge $-1 $403 $404 $405 $406 forward $157 $-1 #
coedge $-1 $407 $159 $408 $409 reversed $99 $-1 #
coedge $-1 $159 $407 $410 $411 reversed $99 $-1 #
coedge $-1 $402 $412 $159 $255 reversed $249 $-1 #
edge $-1 $413 -29.63221174757637 $414 29.63221174757637 $254 $415 forward 7 unknown #
face $-1 $416 $417 $59 $-1 $418 reversed single #
loop $-1 $-1 $419 $160 #
plane-surface $-1 62.118954182716067 0 -6.6759625794729356 1 0 0 0 0 -1 forward_v I I I I #
coedge $-1 $420 $421 $422 $423 reversed $161 $-1 #
coedge $-1 $424 $163 $425 $426 reversed $102 $-1 #
coedge $-1 $163 $424 $427 $428 reversed $102 $-1 #
coedge $-1 $429 $430 $163 $263 forward $431 $-1 #
edge $-1 $432 -29.63221174757637 $433 29.63221174757637 $262 $434 forward 7 unknown #
face $-1 $435 $436 $60 $-1 $437 reversed single #
loop $-1 $-1 $438 $164 #
plane-surface $-1 -56.327601526315334 57.399341562165255 149.5784551319297 1 0 0 0 -0.55919291073839883 -0.82903756765294845 forward_v I I I I #
coedge $-1 $439 $440 $441 $442 reversed $165 $-1 #
coedge $-1 $269 $167 $443 $444 reversed $105 $-1 #
coedge $-1 $167 $268 $439 $445 reversed $105 $-1 #
coedge $-1 $441 $446 $167 $271 forward $436 $-1 #
edge $-1 $447 65.110716167079957 $448 72.359306825661918 $270 $449 forward 7 unknown #
loop $-1 $-1 $277 $168 #
plane-surface $-1 -47.172510930924474 -19.500221755199298 35.570166217790529 0 0.55919291073839883 0.82903756765294845 1 0 0 forward_v I I I I #
loop $-1 $-1 $450 $107 #
coedge $-1 $275 $275 $276 $451 reversed $169 $-1 #
coedge $-1 $276 $276 $275 $451 forward $171 $-1 #
coedge $-1 $277 $277 $172 $278 forward $272 $-1 #
edge $-1 $452 -4.2737238024166487e-016 $452 6.2831853071796004 $277 $453 forward 7 unknown #
loop $-1 $-1 $284 $173 #
plane-surface $-1 -47.172510930924474 -19.500221755199298 35.570166217790529 0 0.55919291073839883 0.82903756765294845 1 0 0 forward_v I I I I #
loop $-1 $-1 $454 $110 #
coedge $-1 $282 $282 $283 $455 reversed $174 $-1 #
coedge $-1 $283 $283 $282 $455 forward $176 $-1 #
coedge $-1 $284 $284 $177 $285 forward $279 $-1 #
edge $-1 $456 -4.2737238024166487e-016 $456 6.2831853071796004 $284 $457 forward 7 unknown #
loop $-1 $-1 $291 $178 #
plane-surface $-1 -47.172510930924474 -19.500221755199298 35.570166217790529 0 0.55919291073839883 0.82903756765294845 1 0 0 forward_v I I I I #
loop $-1 $-1 $458 $113 #
coedge $-1 $289 $289 $290 $459 reversed $179 $-1 #
coedge $-1 $290 $290 $289 $459 forward $181 $-1 #
coedge $-1 $291 $291 $182 $292 forward $286 $-1 #
edge $-1 $460 -4.2737238024166487e-016 $460 6.2831853071796004 $291 $461 forward 7 unknown #
face $-1 $462 $463 $64 $-1 $464 forward single #
loop $-1 $-1 $465 $183 #
plane-surface $-1 -25.268124434957304 57.399341562165255 149.5784551319297 1 0 0 0 -0.55919291073839883 -0.82903756765294845 forward_v I I I I #
coedge $-1 $466 $467 $468 $469 reversed $184 $-1 #
coedge $-1 $298 $186 $470 $471 reversed $117 $-1 #
coedge $-1 $186 $297 $466 $472 reversed $117 $-1 #
coedge $-1 $468 $473 $186 $300 forward $474 $-1 #
edge $-1 $475 65.110716167079957 $476 72.359306825661918 $299 $477 forward 7 unknown #
loop $-1 $-1 $306 $187 #
plane-surface $-1 -16.113033839566441 -19.500221755199298 35.570166217790529 0 0.55919291073839883 0.82903756765294845 1 0 0 forward_v I I I I #
loop $-1 $-1 $478 $119 #
coedge $-1 $304 $304 $305 $479 reversed $188 $-1 #
coedge $-1 $305 $305 $304 $479 forward $190 $-1 #
coedge $-1 $306 $306 $191 $307 forward $301 $-1 #
edge $-1 $480 -4.2737238024166487e-016 $480 6.2831853071796004 $306 $481 forward 7 unknown #
loop $-1 $-1 $313 $192 #
plane-surface $-1 -16.113033839566441 -19.500221755199298 35.570166217790529 0 0.55919291073839883 0.82903756765294845 1 0 0 forward_v I I I I #
loop $-1 $-1 $482 $122 #
coedge $-1 $311 $311 $312 $483 reversed $193 $-1 #
coedge $-1 $312 $312 $311 $483 forward $195 $-1 #
coedge $-1 $313 $313 $196 $314 forward $308 $-1 #
edge $-1 $484 -4.2737238024166487e-016 $484 6.2831853071796004 $313 $485 forward 7 unknown #
loop $-1 $-1 $320 $197 #
plane-surface $-1 -16.113033839566441 -19.500221755199298 35.570166217790529 0 0.55919291073839883 0.82903756765294845 1 0 0 forward_v I I I I #
loop $-1 $-1 $486 $125 #
coedge $-1 $318 $318 $319 $487 reversed $198 $-1 #
coedge $-1 $319 $319 $318 $487 forward $200 $-1 #
coedge $-1 $320 $320 $201 $321 forward $315 $-1 #
edge $-1 $488 -4.2737238024166487e-016 $488 6.2831853071796004 $320 $489 forward 7 unknown #
face $-1 $490 $491 $68 $-1 $492 forward single #
loop $-1 $-1 $493 $202 #
plane-surface $-1 5.7913526564007292 57.399341562165255 149.5784551319297 1 0 0 0 -0.55919291073839883 -0.82903756765294845 forward_v I I I I #
coedge $-1 $494 $495 $496 $497 reversed $203 $-1 #
coedge $-1 $327 $205 $498 $499 reversed $129 $-1 #
coedge $-1 $205 $326 $494 $500 reversed $129 $-1 #
coedge $-1 $496 $501 $205 $329 forward $502 $-1 #
edge $-1 $503 65.110716167079957 $504 72.359306825661918 $328 $505 forward 7 unknown #
loop $-1 $-1 $335 $206 #
plane-surface $-1 14.946443251791592 -19.500221755199298 35.570166217790529 0 0.55919291073839883 0.82903756765294845 1 0 0 forward_v I I I I #
loop $-1 $-1 $506 $131 #
coedge $-1 $333 $333 $334 $507 reversed $207 $-1 #
coedge $-1 $334 $334 $333 $507 forward $209 $-1 #
coedge $-1 $335 $335 $210 $336 forward $330 $-1 #
edge $-1 $508 -4.2737238024166487e-016 $508 6.2831853071796004 $335 $509 forward 7 unknown #
loop $-1 $-1 $342 $211 #
plane-surface $-1 14.946443251791592 -19.500221755199298 35.570166217790529 0 0.55919291073839883 0.82903756765294845 1 0 0 forward_v I I I I #
loop $-1 $-1 $510 $134 #
coedge $-1 $340 $340 $341 $511 reversed $212 $-1 #
coedge $-1 $341 $341 $340 $511 forward $214 $-1 #
coedge $-1 $342 $342 $215 $343 forward $337 $-1 #
edge $-1 $512 -4.2737238024166487e-016 $512 6.2831853071796004 $342 $513 forward 7 unknown #
loop $-1 $-1 $349 $216 #
plane-surface $-1 14.946443251791592 -19.500221755199298 35.570166217790529 0 0.55919291073839883 0.82903756765294845 1 0 0 forward_v I I I I #
loop $-1 $-1 $514 $137 #
coedge $-1 $347 $347 $348 $515 reversed $217 $-1 #
coedge $-1 $348 $348 $347 $515 forward $219 $-1 #
coedge $-1 $349 $349 $220 $350 forward $344 $-1 #
edge $-1 $516 -4.2737238024166487e-016 $516 6.2831853071796004 $349 $517 forward 7 unknown #
face $-1 $518 $519 $72 $-1 $520 forward single #
loop $-1 $-1 $521 $221 #
plane-surface $-1 36.850829747758766 57.399341562165255 149.5784551319297 1 0 0 0 -0.55919291073839883 -0.82903756765294845 forward_v I I I I #
coedge $-1 $522 $523 $524 $525 reversed $222 $-1 #
coedge $-1 $356 $224 $526 $527 reversed $141 $-1 #
coedge $-1 $224 $355 $522 $528 reversed $141 $-1 #
coedge $-1 $524 $529 $224 $358 forward $530 $-1 #
edge $-1 $531 65.110716167079957 $532 72.359306825661918 $357 $533 forward 7 unknown #
loop $-1 $-1 $364 $225 #
plane-surface $-1 46.005920343149626 -19.500221755199298 35.570166217790529 0 0.55919291073839883 0.82903756765294845 1 0 0 forward_v I I I I #
loop $-1 $-1 $534 $143 #
coedge $-1 $362 $362 $363 $535 reversed $226 $-1 #
coedge $-1 $363 $363 $362 $535 forward $228 $-1 #
coedge $-1 $364 $364 $229 $365 forward $359 $-1 #
edge $-1 $536 -4.2737238024166487e-016 $536 6.2831853071796004 $364 $537 forward 7 unknown #
loop $-1 $-1 $371 $230 #
plane-surface $-1 46.005920343149626 -19.500221755199298 35.570166217790529 0 0.55919291073839883 0.82903756765294845 1 0 0 forward_v I I I I #
loop $-1 $-1 $538 $146 #
coedge $-1 $369 $369 $370 $539 reversed $231 $-1 #
coedge $-1 $370 $370 $369 $539 forward $233 $-1 #
coedge $-1 $371 $371 $234 $372 forward $366 $-1 #
edge $-1 $540 -4.2737238024166487e-016 $540 6.2831853071796004 $371 $541 forward 7 unknown #
loop $-1 $-1 $378 $235 #
plane-surface $-1 46.005920343149626 -19.500221755199298 35.570166217790529 0 0.55919291073839883 0.82903756765294845 1 0 0 forward_v I I I I #
loop $-1 $-1 $542 $149 #
coedge $-1 $376 $376 $377 $543 reversed $236 $-1 #
coedge $-1 $377 $377 $376 $543 forward $238 $-1 #
coedge $-1 $378 $378 $239 $379 forward $373 $-1 #
edge $-1 $544 -4.2737238024166487e-016 $544 6.2831853071796004 $378 $545 forward 7 unknown #
face $-1 $546 $547 $57 $-1 $548 reversed single #
loop $-1 $-1 $549 $240 #
plane-surface $-1 -68.759422589800721 0 0 1 0 0 0 0 -1 forward_v I I I I #
coedge $-1 $550 $391 $551 $552 forward $241 $-1 #
coedge $-1 $553 $243 $550 $554 forward $153 $-1 #
coedge $-1 $243 $553 $555 $556 forward $153 $-1 #
coedge $-1 $394 $393 $243 $387 reversed $395 $-1 #
edge $-1 $557 -29.63221174757637 $558 29.63221174757637 $386 $559 forward 7 unknown #
coedge $-1 $245 $244 $560 $561 forward $96 $-1 #
coedge $-1 $562 $563 $244 $390 reversed $547 $-1 #
edge $-1 $397 -68.759422589800721 $564 68.759422589800721 $389 $565 forward 7 unknown #
coedge $-1 $383 $566 $245 $392 reversed $241 $-1 #
edge $-1 $567 -68.759422589800721 $396 68.759422589800721 $391 $568 forward 7 unknown #
coedge $-1 $386 $246 $566 $569 forward $395 $-1 #
coedge $-1 $246 $386 $562 $570 reversed $395 $-1 #
loop $-1 $-1 $393 $546 #
vertex $-1 $247 $571 #
vertex $-1 $247 $572 #
straight-curve $-1 68.759422589800721 0 9.6785113988848952 0 1 0 I I #
face $-1 $573 $574 $58 $-1 $575 reversed single #
loop $-1 $-1 $576 $248 #
plane-surface $-1 0 -29.63221174757637 0 0 1 0 0 0 1 forward_v I I I I #
coedge $-1 $405 $254 $577 $578 reversed $249 $-1 #
coedge $-1 $579 $251 $576 $580 reversed $157 $-1 #
coedge $-1 $251 $579 $581 $582 reversed $157 $-1 #
coedge $-1 $412 $402 $251 $406 reversed $249 $-1 #
edge $-1 $583 -29.63221174757637 $584 29.63221174757637 $405 $585 forward 7 unknown #
coedge $-1 $253 $252 $586 $587 reversed $99 $-1 #
coedge $-1 $588 $589 $252 $409 forward $590 $-1 #
edge $-1 $591 -36.039828396671524 $414 -29.39935998958687 $408 $592 forward 7 unknown #
coedge $-1 $593 $577 $253 $411 forward $400 $-1 #
edge $-1 $413 29.39935998958687 $594 36.039828396671524 $410 $595 forward 7 unknown #
coedge $-1 $254 $405 $588 $596 reversed $249 $-1 #
vertex $-1 $411 $597 #
vertex $-1 $409 $598 #
straight-curve $-1 -62.118954182716067 0 -4.4758712633746001 0 1 0 I I #
face $-1 $599 $600 $59 $-1 $601 reversed single #
loop $-1 $-1 $427 $256 #
plane-surface $-1 0 -29.63221174757637 0 0 1 0 0 0 1 forward_v I I I I #
coedge $-1 $602 $603 $604 $605 reversed $257 $-1 #
coedge $-1 $606 $259 $607 $608 reversed $161 $-1 #
coedge $-1 $259 $606 $609 $610 reversed $161 $-1 #
coedge $-1 $430 $429 $259 $423 forward $431 $-1 #
edge $-1 $611 -29.63221174757637 $612 29.63221174757637 $422 $613 forward 7 unknown #
coedge $-1 $261 $260 $603 $614 forward $102 $-1 #
coedge $-1 $615 $604 $260 $426 forward $600 $-1 #
edge $-1 $616 29.39935998958687 $432 36.039828396671524 $425 $617 forward 7 unknown #
coedge $-1 $618 $619 $261 $428 forward $417 $-1 #
edge $-1 $433 -36.039828396671524 $620 -29.39935998958687 $427 $621 forward 7 unknown #
coedge $-1 $422 $262 $619 $622 forward $431 $-1 #
coedge $-1 $262 $422 $615 $623 reversed $431 $-1 #
loop $-1 $-1 $262 $599 #
vertex $-1 $623 $624 #
vertex $-1 $622 $625 #
straight-curve $-1 68.759422589800721 0 -4.4758712633746001 0 -1 0 I I #
face $-1 $-1 $626 $60 $-1 $627 forward single #
loop $-1 $-1 $270 $264 #
plane-surface $-1 0 29.63221174757637 0 0 -1 0 0 0 -1 forward_v I I I I #
coedge $-1 $628 $629 $630 $631 reversed $265 $-1 #
coedge $-1 $632 $267 $269 $445 forward $165 $-1 #
coedge $-1 $267 $632 $628 $633 forward $165 $-1 #
coedge $-1 $630 $270 $267 $442 forward $436 $-1 #
edge $-1 $448 14.431164870071377 $634 32.741346060853097 $441 $635 forward 7 unknown #
coedge $-1 $636 $637 $268 $444 forward $626 $-1 #
edge $-1 $638 -9.8139364174335633 $447 0.93254096649374318 $443 $639 forward 7 unknown #
edge $-1 $448 -59.264423495152727 $638 -46.301829514820589 $269 $640 forward 7 unknown #
coedge $-1 $270 $630 $636 $641 reversed $436 $-1 #
vertex $-1 $641 $642 #
vertex $-1 $271 $643 #
straight-curve $-1 -38.017420335533615 29.63221174757637 74.78922756596485 0 0 -1 I I #
coedge $-1 $450 $450 $-1 $644 reversed $274 $-1 #
edge $-1 $645 0 $645 6.2831853071796004 $275 $646 forward 7 unknown #
vertex $-1 $278 $647 #
ellipse-curve $-1 -52.665565288158987 24.258973055612717 6.0542160695939096 0 0.55919291073839883 0.82903756765294845 1 0 0 1 I I #
coedge $-1 $454 $454 $-1 $648 reversed $281 $-1 #
edge $-1 $649 0 $649 6.2831853071796004 $282 $650 forward 7 unknown #
vertex $-1 $285 $651 #
ellipse-curve $-1 -47.172510930924467 24.258973055612717 6.0542160695939096 0 0.55919291073839883 0.82903756765294845 1 0 0 1 I I #
coedge $-1 $458 $458 $-1 $652 reversed $288 $-1 #
edge $-1 $653 0 $653 6.2831853071796004 $289 $654 forward 7 unknown #
vertex $-1 $292 $655 #
ellipse-curve $-1 -41.679456573689947 24.258973055612717 6.0542160695939096 0 0.55919291073839883 0.82903756765294845 1 0 0 1 I I #
face $-1 $-1 $474 $64 $-1 $656 reversed single #
loop $-1 $-1 $657 $293 #
plane-surface $-1 0 0 9.6785113988848952 0 0 1 1 0 0 forward_v I I I I #
coedge $-1 $658 $659 $660 $661 reversed $294 $-1 #
coedge $-1 $662 $296 $298 $472 forward $184 $-1 #
coedge $-1 $296 $662 $658 $663 forward $184 $-1 #
coedge $-1 $660 $299 $296 $469 forward $474 $-1 #
edge $-1 $476 -1.0985736756076427 $664 17.211607515174084 $468 $665 forward 7 unknown #
coedge $-1 $666 $667 $297 $471 forward $463 $-1 #
edge $-1 $668 -9.8139364174335633 $475 0.93254096649374318 $470 $669 forward 7 unknown #
edge $-1 $476 -59.264423495152727 $668 -46.301829514820589 $298 $670 forward 7 unknown #
coedge $-1 $299 $660 $666 $671 reversed $474 $-1 #
loop $-1 $-1 $660 $462 #
vertex $-1 $671 $672 #
vertex $-1 $300 $673 #
straight-curve $-1 -6.9579432441755777 29.63221174757637 74.78922756596485 0 0 -1 I I #
coedge $-1 $478 $478 $-1 $674 reversed $303 $-1 #
edge $-1 $675 0 $675 6.2831853071796004 $304 $676 forward 7 unknown #
vertex $-1 $307 $677 #
ellipse-curve $-1 -21.606088196800954 24.258973055612717 6.0542160695939096 0 0.55919291073839883 0.82903756765294845 1 0 0 1 I I #
coedge $-1 $482 $482 $-1 $678 reversed $310 $-1 #
edge $-1 $679 0 $679 6.2831853071796004 $311 $680 forward 7 unknown #
vertex $-1 $314 $681 #
ellipse-curve $-1 -16.113033839566434 24.258973055612717 6.0542160695939096 0 0.55919291073839883 0.82903756765294845 1 0 0 1 I I #
coedge $-1 $486 $486 $-1 $682 reversed $317 $-1 #
edge $-1 $683 0 $683 6.2831853071796004 $318 $684 forward 7 unknown #
vertex $-1 $321 $685 #
ellipse-curve $-1 -10.619979482331914 24.258973055612717 6.0542160695939096 0 0.55919291073839883 0.82903756765294845 1 0 0 1 I I #
face $-1 $-1 $502 $68 $-1 $686 reversed single #
loop $-1 $-1 $687 $322 #
plane-surface $-1 0 0 9.6785113988848952 0 0 1 1 0 0 forward_v I I I I #
coedge $-1 $688 $689 $690 $691 reversed $323 $-1 #
coedge $-1 $692 $325 $327 $500 forward $203 $-1 #
coedge $-1 $325 $692 $688 $693 forward $203 $-1 #
coedge $-1 $690 $328 $325 $497 forward $502 $-1 #
edge $-1 $504 -16.628312221286659 $694 1.681868969495067 $496 $695 forward 7 unknown #
coedge $-1 $696 $697 $326 $499 forward $491 $-1 #
edge $-1 $698 -9.8139364174335633 $503 0.93254096649374318 $498 $699 forward 7 unknown #
edge $-1 $504 -59.264423495152727 $698 -46.301829514820589 $327 $700 forward 7 unknown #
coedge $-1 $328 $690 $696 $701 reversed $502 $-1 #
loop $-1 $-1 $690 $490 #
vertex $-1 $701 $702 #
vertex $-1 $329 $703 #
straight-curve $-1 24.101533847182456 29.63221174757637 74.78922756596485 0 0 -1 I I #
coedge $-1 $506 $506 $-1 $704 reversed $332 $-1 #
edge $-1 $705 0 $705 6.2831853071796004 $333 $706 forward 7 unknown #
vertex $-1 $336 $707 #
ellipse-curve $-1 9.4533888945570794 24.258973055612717 6.0542160695939096 0 0.55919291073839883 0.82903756765294845 1 0 0 1 I I #
coedge $-1 $510 $510 $-1 $708 reversed $339 $-1 #
edge $-1 $709 0 $709 6.2831853071796004 $340 $710 forward 7 unknown #
vertex $-1 $343 $711 #
ellipse-curve $-1 14.946443251791607 24.258973055612717 6.0542160695939096 0 0.55919291073839883 0.82903756765294845 1 0 0 1 I I #
coedge $-1 $514 $514 $-1 $712 reversed $346 $-1 #
edge $-1 $713 0 $713 6.2831853071796004 $347 $714 forward 7 unknown #
vertex $-1 $350 $715 #
ellipse-curve $-1 20.43949760902612 24.258973055612717 6.0542160695939096 0 0.55919291073839883 0.82903756765294845 1 0 0 1 I I #
face $-1 $-1 $530 $72 $-1 $716 reversed single #
loop $-1 $-1 $717 $351 #
plane-surface $-1 0 0 9.6785113988848952 0 0 1 1 0 0 forward_v I I I I #
coedge $-1 $718 $719 $720 $721 reversed $352 $-1 #
coedge $-1 $722 $354 $356 $528 forward $222 $-1 #
coedge $-1 $354 $722 $718 $723 forward $222 $-1 #
coedge $-1 $720 $357 $354 $525 forward $530 $-1 #
edge $-1 $532 -32.158050766965673 $724 -13.847869576183953 $524 $725 forward 7 unknown #
coedge $-1 $726 $727 $355 $527 forward $519 $-1 #
edge $-1 $728 -9.8139364174335633 $531 0.93254096649374318 $526 $729 forward 7 unknown #
edge $-1 $532 -59.264423495152727 $728 -46.301829514820589 $356 $730 forward 7 unknown #
coedge $-1 $357 $720 $726 $731 reversed $530 $-1 #
loop $-1 $-1 $720 $518 #
vertex $-1 $731 $732 #
vertex $-1 $358 $733 #
straight-curve $-1 55.161010938540485 29.63221174757637 74.78922756596485 0 0 -1 I I #
coedge $-1 $534 $534 $-1 $734 reversed $361 $-1 #
edge $-1 $735 0 $735 6.2831853071796004 $362 $736 forward 7 unknown #
vertex $-1 $365 $737 #
ellipse-curve $-1 40.512865985915113 24.258973055612717 6.0542160695939096 0 0.55919291073839883 0.82903756765294845 1 0 0 1 I I #
coedge $-1 $538 $538 $-1 $738 reversed $368 $-1 #
edge $-1 $739 0 $739 6.2831853071796004 $369 $740 forward 7 unknown #
vertex $-1 $372 $741 #
ellipse-curve $-1 46.00592034314964 24.258973055612717 6.0542160695939096 0 0.55919291073839883 0.82903756765294845 1 0 0 1 I I #
coedge $-1 $542 $542 $-1 $742 reversed $375 $-1 #
edge $-1 $743 0 $743 6.2831853071796004 $376 $744 forward 7 unknown #
vertex $-1 $379 $745 #
ellipse-curve $-1 51.498974700384153 24.258973055612717 6.0542160695939096 0 0.55919291073839883 0.82903756765294845 1 0 0 1 I I #
face $-1 $-1 $395 $57 $-1 $746 reversed single #
loop $-1 $-1 $562 $380 #
plane-surface $-1 0 29.63221174757637 0 0 -1 0 0 0 -1 forward_v I I I I #
coedge $-1 $747 $560 $563 $748 forward $381 $-1 #
coedge $-1 $566 $383 $384 $554 reversed $241 $-1 #
coedge $-1 $560 $747 $383 $552 reversed $381 $-1 #
edge $-1 $567 -9.6785113988848952 $749 9.6785113988848952 $551 $750 forward 7 unknown #
coedge $-1 $385 $384 $747 $751 forward $153 $-1 #
edge $-1 $558 -68.759422589800721 $749 68.759422589800721 $550 $752 forward 7 unknown #
coedge $-1 $563 $562 $385 $556 reversed $547 $-1 #
edge $-1 $753 -68.759422589800721 $557 68.759422589800721 $555 $754 forward 7 unknown #
vertex $-1 $387 $755 #
vertex $-1 $569 $756 #
straight-curve $-1 68.759422589800721 0 -9.6785113988848952 0 -1 0 I I #
coedge $-1 $549 $551 $388 $561 reversed $381 $-1 #
edge $-1 $564 -29.63221174757637 $567 29.63221174757637 $560 $757 forward 7 unknown #
coedge $-1 $555 $389 $394 $570 forward $547 $-1 #
coedge $-1 $389 $555 $549 $748 reversed $547 $-1 #
vertex $-1 $390 $758 #
straight-curve $-1 0 29.63221174757637 9.6785113988848952 -1 0 0 I I #
coedge $-1 $391 $550 $393 $569 reversed $241 $-1 #
vertex $-1 $561 $759 #
straight-curve $-1 0 -29.63221174757637 9.6785113988848952 1 0 0 I I #
edge $-1 $396 -9.6785113988848952 $558 9.6785113988848952 $393 $760 forward 7 unknown #
edge $-1 $397 -9.6785113988848952 $557 9.6785113988848952 $394 $761 forward 7 unknown #
point $-1 68.759422589800721 -29.63221174757637 9.6785113988848952 #
point $-1 68.759422589800721 29.63221174757637 9.6785113988848952 #
face $-1 $-1 $590 $58 $-1 $762 reversed single #
loop $-1 $-1 $763 $399 #
plane-surface $-1 -68.759422589800721 0 0 1 0 0 0 0 -1 forward_v I I I I #
coedge $-1 $577 $593 $403 $580 forward $400 $-1 #
coedge $-1 $410 $576 $402 $578 forward $400 $-1 #
edge $-1 $584 -5.5380726058348033 $413 -1.1378899736381323 $577 $764 forward 7 unknown #
coedge $-1 $404 $403 $763 $765 reversed $157 $-1 #
edge $-1 $766 -36.039828396671524 $584 -29.39935998958687 $576 $767 forward 7 unknown #
coedge $-1 $589 $588 $404 $582 forward $590 $-1 #
edge $-1 $583 29.39935998958687 $768 36.039828396671524 $581 $769 forward 7 unknown #
vertex $-1 $582 $770 #
vertex $-1 $580 $771 #
straight-curve $-1 -62.118954182716067 0 -8.8760538955712711 0 -1 0 I I #
coedge $-1 $772 $773 $407 $587 forward $574 $-1 #
edge $-1 $594 -29.63221174757637 $591 29.63221174757637 $586 $774 forward 7 unknown #
coedge $-1 $581 $408 $412 $596 forward $590 $-1 #
coedge $-1 $408 $581 $772 $775 reversed $590 $-1 #
loop $-1 $-1 $581 $573 #
vertex $-1 $775 $776 #
straight-curve $-1 -32.719594193129197 29.63221174757637 -4.4758712633746001 1 0 0 I I #
coedge $-1 $576 $410 $773 $777 forward $400 $-1 #
vertex $-1 $777 $778 #
straight-curve $-1 -32.719594193129197 -29.63221174757637 -4.4758712633746001 -1 0 0 I I #
edge $-1 $414 1.1378899736381323 $583 5.5380726058348033 $588 $779 forward 7 unknown #
point $-1 -62.118954182716067 -29.63221174757637 -4.4758712633746001 #
point $-1 -62.118954182716067 29.63221174757637 -4.4758712633746001 #
face $-1 $-1 $431 $59 $-1 $780 reversed single #
loop $-1 $-1 $425 $416 #
plane-surface $-1 0 29.63221174757637 0 0 -1 0 0 0 -1 forward_v I I I I #
coedge $-1 $781 $419 $606 $782 reversed $257 $-1 #
coedge $-1 $419 $781 $424 $614 reversed $257 $-1 #
coedge $-1 $425 $609 $419 $605 forward $600 $-1 #
edge $-1 $783 -5.5380726058348033 $616 -1.1378899736381323 $604 $784 forward 7 unknown #
coedge $-1 $421 $420 $602 $782 forward $161 $-1 #
coedge $-1 $619 $618 $420 $608 forward $417 $-1 #
edge $-1 $785 29.39935998958687 $611 36.039828396671524 $607 $786 forward 7 unknown #
coedge $-1 $604 $615 $421 $610 forward $600 $-1 #
edge $-1 $612 -36.039828396671524 $783 -29.39935998958687 $609 $787 forward 7 unknown #
vertex $-1 $423 $788 #
vertex $-1 $423 $789 #
straight-curve $-1 68.759422589800721 0 -8.8760538955712711 0 1 0 I I #
edge $-1 $616 -29.63221174757637 $620 29.63221174757637 $603 $790 forward 7 unknown #
coedge $-1 $609 $425 $430 $623 forward $600 $-1 #
vertex $-1 $426 $791 #
straight-curve $-1 32.719594193129197 29.63221174757637 -4.4758712633746001 1 0 0 I I #
coedge $-1 $607 $427 $781 $792 forward $417 $-1 #
coedge $-1 $427 $607 $429 $622 reversed $417 $-1 #
vertex $-1 $428 $793 #
straight-curve $-1 32.719594193129197 -29.63221174757637 -4.4758712633746001 -1 0 0 I I #
edge $-1 $433 4.4758712633746001 $611 8.8760538955712711 $429 $794 forward 7 unknown #
edge $-1 $432 4.4758712633746001 $612 8.8760538955712711 $430 $795 forward 7 unknown #
point $-1 68.759422589800721 29.63221174757637 -4.4758712633746001 #
point $-1 68.759422589800721 -29.63221174757637 -4.4758712633746001 #
loop $-1 $-1 $443 $435 #
plane-surface $-1 0 0 9.6785113988848952 0 0 1 1 0 0 forward_v I I I I #
coedge $-1 $629 $438 $440 $633 reversed $265 $-1 #
coedge $-1 $438 $628 $796 $797 reversed $265 $-1 #
coedge $-1 $446 $441 $438 $631 forward $436 $-1 #
edge $-1 $634 -72.359306825661918 $798 -65.110716167079957 $630 $799 forward 7 unknown #
coedge $-1 $440 $439 $637 $800 reversed $165 $-1 #
edge $-1 $801 46.301829514820589 $634 59.264423495152727 $628 $802 forward 7 unknown #
vertex $-1 $442 $803 #
straight-curve $-1 -23.586255465462237 29.632211747576374 2.4299207403029222 -1 0 0 I I #
coedge $-1 $796 $443 $446 $641 forward $626 $-1 #
coedge $-1 $443 $796 $632 $800 forward $626 $-1 #
vertex $-1 $444 $804 #
straight-curve $-1 -38.017420335533615 28.699670781082627 9.6785113988848934 0 1 0 I I #
straight-curve $-1 -38.017420335533615 -19.500221755199298 35.570166217790529 0 -0.82903756765294845 0.55919291073839883 I I #
edge $-1 $447 38.017420335533615 $798 56.327601526315334 $446 $805 forward 7 unknown #
point $-1 -38.017420335533615 29.63221174757637 9.6785113988848952 #
point $-1 -38.017420335533615 29.63221174757637 2.4299207403029257 #
edge $-1 $806 1 $806 0 $450 $-1 forward 7 unknown #
vertex $-1 $451 $807 #
ellipse-curve $-1 -52.665565288158987 23.084184982785761 4.3125211594812454 0 0.55919291073839883 0.82903756765294845 1 0 0 1 I I #
point $-1 -51.665565288158987 24.25897305561271 6.0542160695938998 #
edge $-1 $808 1 $808 0 $454 $-1 forward 7 unknown #
vertex $-1 $455 $809 #
ellipse-curve $-1 -47.172510930924467 23.084184982785761 4.3125211594812454 0 0.55919291073839883 0.82903756765294845 1 0 0 1 I I #
point $-1 -46.172510930924467 24.25897305561271 6.0542160695938998 #
edge $-1 $810 1 $810 0 $458 $-1 forward 7 unknown #
vertex $-1 $459 $811 #
ellipse-curve $-1 -41.679456573689947 23.084184982785761 4.3125211594812454 0 0.55919291073839883 0.82903756765294845 1 0 0 1 I I #
point $-1 -40.679456573689947 24.25897305561271 6.0542160695938998 #
plane-surface $-1 0 29.63221174757637 0 0 -1 0 0 0 -1 forward_v I I I I #
coedge $-1 $667 $666 $659 $812 forward $463 $-1 #
coedge $-1 $659 $465 $467 $663 reversed $294 $-1 #
coedge $-1 $465 $658 $657 $812 reversed $294 $-1 #
coedge $-1 $473 $468 $465 $661 forward $474 $-1 #
edge $-1 $664 -72.359306825661918 $813 -65.110716167079957 $660 $814 forward 7 unknown #
coedge $-1 $467 $466 $667 $815 reversed $184 $-1 #
edge $-1 $816 46.301829514820589 $664 59.264423495152727 $658 $817 forward 7 unknown #
vertex $-1 $469 $818 #
straight-curve $-1 -8.0565169197832205 29.632211747576374 2.4299207403029222 -1 0 0 I I #
coedge $-1 $657 $470 $473 $671 forward $463 $-1 #
coedge $-1 $470 $657 $662 $815 forward $463 $-1 #
vertex $-1 $471 $819 #
straight-curve $-1 -6.9579432441755777 28.699670781082627 9.6785113988848934 0 1 0 I I #
straight-curve $-1 -6.9579432441755777 -19.500221755199298 35.570166217790529 0 -0.82903756765294845 0.55919291073839883 I I #
edge $-1 $475 6.9579432441755777 $813 25.268124434957304 $473 $820 forward 7 unknown #
point $-1 -6.9579432441755777 29.63221174757637 9.6785113988848952 #
point $-1 -6.9579432441755777 29.63221174757637 2.4299207403029257 #
edge $-1 $821 1 $821 0 $478 $-1 forward 7 unknown #
vertex $-1 $479 $822 #
ellipse-curve $-1 -21.606088196800954 23.084184982785761 4.3125211594812454 0 0.55919291073839883 0.82903756765294845 1 0 0 1 I I #
point $-1 -20.606088196800954 24.25897305561271 6.0542160695938998 #
edge $-1 $823 1 $823 0 $482 $-1 forward 7 unknown #
vertex $-1 $483 $824 #
ellipse-curve $-1 -16.113033839566434 23.084184982785761 4.3125211594812454 0 0.55919291073839883 0.82903756765294845 1 0 0 1 I I #
point $-1 -15.113033839566434 24.25897305561271 6.0542160695938998 #
edge $-1 $825 1 $825 0 $486 $-1 forward 7 unknown #
vertex $-1 $487 $826 #
ellipse-curve $-1 -10.619979482331914 23.084184982785761 4.3125211594812454 0 0.55919291073839883 0.82903756765294845 1 0 0 1 I I #
point $-1 -9.6199794823319138 24.25897305561271 6.0542160695938998 #
plane-surface $-1 0 29.63221174757637 0 0 -1 0 0 0 -1 forward_v I I I I #
coedge $-1 $697 $696 $689 $827 forward $491 $-1 #
coedge $-1 $689 $493 $495 $693 reversed $323 $-1 #
coedge $-1 $493 $688 $687 $827 reversed $323 $-1 #
coedge $-1 $501 $496 $493 $691 forward $502 $-1 #
edge $-1 $694 -72.359306825661918 $828 -65.110716167079957 $690 $829 forward 7 unknown #
coedge $-1 $495 $494 $697 $830 reversed $203 $-1 #
edge $-1 $831 46.301829514820589 $694 59.264423495152727 $688 $832 forward 7 unknown #
vertex $-1 $497 $833 #
straight-curve $-1 7.4732216258957962 29.632211747576374 2.4299207403029222 -1 0 0 I I #
coedge $-1 $687 $498 $501 $701 forward $491 $-1 #
coedge $-1 $498 $687 $692 $830 forward $491 $-1 #
vertex $-1 $499 $834 #
straight-curve $-1 24.101533847182456 28.699670781082627 9.6785113988848934 0 1 0 I I #
straight-curve $-1 24.101533847182456 -19.500221755199298 35.570166217790529 0 -0.82903756765294845 0.55919291073839883 I I #
edge $-1 $503 -24.101533847182456 $828 -5.7913526564007292 $501 $835 forward 7 unknown #
point $-1 24.101533847182456 29.63221174757637 9.6785113988848952 #
point $-1 24.101533847182456 29.63221174757637 2.4299207403029257 #
edge $-1 $836 1 $836 0 $506 $-1 forward 7 unknown #
vertex $-1 $507 $837 #
ellipse-curve $-1 9.4533888945570794 23.084184982785761 4.3125211594812454 0 0.55919291073839883 0.82903756765294845 1 0 0 1 I I #
point $-1 10.453388894557079 24.25897305561271 6.0542160695938998 #
edge $-1 $838 1 $838 0 $510 $-1 forward 7 unknown #
vertex $-1 $511 $839 #
ellipse-curve $-1 14.946443251791607 23.084184982785761 4.3125211594812454 0 0.55919291073839883 0.82903756765294845 1 0 0 1 I I #
point $-1 15.946443251791607 24.25897305561271 6.0542160695938998 #
edge $-1 $840 1 $840 0 $514 $-1 forward 7 unknown #
vertex $-1 $515 $841 #
ellipse-curve $-1 20.43949760902612 23.084184982785761 4.3125211594812454 0 0.55919291073839883 0.82903756765294845 1 0 0 1 I I #
point $-1 21.43949760902612 24.25897305561271 6.0542160695938998 #
plane-surface $-1 0 29.63221174757637 0 0 -1 0 0 0 -1 forward_v I I I I #
coedge $-1 $727 $726 $719 $842 forward $519 $-1 #
coedge $-1 $719 $521 $523 $723 reversed $352 $-1 #
coedge $-1 $521 $718 $717 $842 reversed $352 $-1 #
coedge $-1 $529 $524 $521 $721 forward $530 $-1 #
edge $-1 $724 -72.359306825661918 $843 -65.110716167079957 $720 $844 forward 7 unknown #
coedge $-1 $523 $522 $727 $845 reversed $222 $-1 #
edge $-1 $846 46.301829514820589 $724 59.264423495152727 $718 $847 forward 7 unknown #
vertex $-1 $525 $848 #
straight-curve $-1 23.002960171574813 29.632211747576374 2.4299207403029222 -1 0 0 I I #
coedge $-1 $717 $526 $529 $731 forward $519 $-1 #
coedge $-1 $526 $717 $722 $845 forward $519 $-1 #
vertex $-1 $527 $849 #
straight-curve $-1 55.161010938540485 28.699670781082627 9.6785113988848934 0 1 0 I I #
straight-curve $-1 55.161010938540485 -19.500221755199298 35.570166217790529 0 -0.82903756765294845 0.55919291073839883 I I #
edge $-1 $531 -55.161010938540485 $843 -36.850829747758766 $529 $850 forward 7 unknown #
point $-1 55.161010938540485 29.63221174757637 9.6785113988848952 #
point $-1 55.161010938540485 29.63221174757637 2.4299207403029257 #
edge $-1 $851 1 $851 0 $534 $-1 forward 7 unknown #
vertex $-1 $535 $852 #
ellipse-curve $-1 40.512865985915113 23.084184982785761 4.3125211594812454 0 0.55919291073839883 0.82903756765294845 1 0 0 1 I I #
point $-1 41.512865985915113 24.25897305561271 6.0542160695938998 #
edge $-1 $853 1 $853 0 $538 $-1 forward 7 unknown #
vertex $-1 $539 $854 #
ellipse-curve $-1 46.00592034314964 23.084184982785761 4.3125211594812454 0 0.55919291073839883 0.82903756765294845 1 0 0 1 I I #
point $-1 47.00592034314964 24.25897305561271 6.0542160695938998 #
edge $-1 $855 1 $855 0 $542 $-1 forward 7 unknown #
vertex $-1 $543 $856 #
ellipse-curve $-1 51.498974700384153 23.084184982785761 4.3125211594812454 0 0.55919291073839883 0.82903756765294845 1 0 0 1 I I #
point $-1 52.498974700384153 24.25897305561271 6.0542160695938998 #
plane-surface $-1 68.759422589800721 0 0 -1 0 0 0 0 1 forward_v I I I I #
coedge $-1 $551 $549 $553 $751 reversed $381 $-1 #
edge $-1 $564 -9.6785113988848952 $753 9.6785113988848952 $563 $857 forward 7 unknown #
vertex $-1 $751 $858 #
straight-curve $-1 -68.759422589800721 -29.63221174757637 0 0 0 -1 I I #
edge $-1 $749 -29.63221174757637 $753 29.63221174757637 $747 $859 forward 7 unknown #
straight-curve $-1 0 -29.63221174757637 -9.6785113988848952 -1 0 0 I I #
vertex $-1 $556 $860 #
straight-curve $-1 0 29.63221174757637 -9.6785113988848952 1 0 0 I I #
point $-1 68.759422589800721 29.63221174757637 -9.6785113988848952 #
point $-1 68.759422589800721 -29.63221174757637 -9.6785113988848952 #
straight-curve $-1 -68.759422589800721 0 9.6785113988848952 0 -1 0 I I #
point $-1 -68.759422589800721 29.63221174757637 9.6785113988848952 #
point $-1 -68.759422589800721 -29.63221174757637 9.6785113988848952 #
straight-curve $-1 68.759422589800721 -29.63221174757637 0 0 0 -1 I I #
straight-curve $-1 68.759422589800721 29.63221174757637 0 0 0 -1 I I #
plane-surface $-1 0 29.63221174757637 0 0 -1 0 0 0 -1 forward_v I I I I #
coedge $-1 $773 $772 $579 $765 forward $574 $-1 #
straight-curve $-1 -62.118954182716067 -29.63221174757637 -3.3379812897364678 0 0 1 I I #
edge $-1 $768 -29.63221174757637 $766 29.63221174757637 $763 $861 forward 7 unknown #
vertex $-1 $580 $862 #
straight-curve $-1 -32.719594193129197 -29.63221174757637 -8.8760538955712711 1 0 0 I I #
vertex $-1 $582 $863 #
straight-curve $-1 -32.719594193129197 29.63221174757637 -8.8760538955712711 -1 0 0 I I #
point $-1 -62.118954182716067 29.63221174757637 -8.8760538955712711 #
point $-1 -62.118954182716067 -29.63221174757637 -8.8760538955712711 #
coedge $-1 $763 $586 $589 $775 forward $574 $-1 #
coedge $-1 $586 $763 $593 $777 reversed $574 $-1 #
straight-curve $-1 -68.759422589800721 0 -4.4758712633746001 0 1 0 I I #
edge $-1 $591 4.4758712633746001 $768 8.8760538955712711 $589 $864 forward 7 unknown #
point $-1 -68.759422589800721 29.63221174757637 -4.4758712633746001 #
edge $-1 $594 4.4758712633746001 $766 8.8760538955712711 $773 $865 forward 7 unknown #
point $-1 -68.759422589800721 -29.63221174757637 -4.4758712633746001 #
straight-curve $-1 -62.118954182716067 29.63221174757637 -3.3379812897364678 0 0 -1 I I #
plane-surface $-1 68.759422589800721 0 0 -1 0 0 0 0 1 forward_v I I I I #
coedge $-1 $603 $602 $618 $792 reversed $257 $-1 #
edge $-1 $785 -29.63221174757637 $783 29.63221174757637 $602 $866 forward 7 unknown #
vertex $-1 $610 $867 #
straight-curve $-1 62.118954182716067 29.63221174757637 -3.3379812897364678 0 0 1 I I #
vertex $-1 $608 $868 #
straight-curve $-1 32.719594193129197 -29.63221174757637 -8.8760538955712711 1 0 0 I I #
straight-curve $-1 32.719594193129197 29.63221174757637 -8.8760538955712711 -1 0 0 I I #
point $-1 68.759422589800721 -29.63221174757637 -8.8760538955712711 #
point $-1 68.759422589800721 29.63221174757637 -8.8760538955712711 #
straight-curve $-1 62.118954182716067 0 -4.4758712633746001 0 -1 0 I I #
point $-1 62.118954182716067 29.63221174757637 -4.4758712633746001 #
edge $-1 $620 1.1378899736381323 $785 5.5380726058348033 $618 $869 forward 7 unknown #
point $-1 62.118954182716067 -29.63221174757637 -4.4758712633746001 #
straight-curve $-1 68.759422589800721 -29.63221174757637 0 0 0 -1 I I #
straight-curve $-1 68.759422589800721 29.63221174757637 0 0 0 -1 I I #
coedge $-1 $637 $636 $629 $797 forward $626 $-1 #
edge $-1 $798 -0.93254096649374318 $801 9.8139364174335633 $796 $870 forward 7 unknown #
vertex $-1 $797 $871 #
straight-curve $-1 -56.327601526315334 29.63221174757637 74.78922756596485 0 0 1 I I #
edge $-1 $801 -32.741346060853097 $638 -14.431164870071377 $637 $872 forward 7 unknown #
vertex $-1 $800 $873 #
straight-curve $-1 -56.327601526315334 -19.500221755199298 35.570166217790529 0 0.82903756765294845 -0.55919291073839883 I I #
point $-1 -56.327601526315334 29.63221174757637 2.4299207403029257 #
point $-1 -38.017420335533615 18.885734363649064 9.6785113988848934 #
straight-curve $-1 0 29.63221174757637 9.6785113988848952 -1 0 0 I I #
vertex $-1 $644 $874 #
point $-1 -51.665565288158987 23.084184982785761 4.3125211594812454 #
vertex $-1 $648 $875 #
point $-1 -46.172510930924467 23.084184982785761 4.3125211594812454 #
vertex $-1 $652 $876 #
point $-1 -40.679456573689947 23.084184982785761 4.3125211594812454 #
edge $-1 $813 -0.93254096649374318 $816 9.8139364174335633 $657 $877 forward 7 unknown #
vertex $-1 $812 $878 #
straight-curve $-1 -25.268124434957304 29.63221174757637 74.78922756596485 0 0 1 I I #
edge $-1 $816 -17.211607515174084 $668 1.0985736756076427 $667 $879 forward 7 unknown #
vertex $-1 $815 $880 #
straight-curve $-1 -25.268124434957304 -19.500221755199298 35.570166217790529 0 0.82903756765294845 -0.55919291073839883 I I #
point $-1 -25.268124434957304 29.63221174757637 2.4299207403029257 #
point $-1 -6.9579432441755777 18.885734363649064 9.6785113988848934 #
straight-curve $-1 0 29.63221174757637 9.6785113988848952 -1 0 0 I I #
vertex $-1 $674 $881 #
point $-1 -20.606088196800954 23.084184982785761 4.3125211594812454 #
vertex $-1 $678 $882 #
point $-1 -15.113033839566434 23.084184982785761 4.3125211594812454 #
vertex $-1 $682 $883 #
point $-1 -9.6199794823319138 23.084184982785761 4.3125211594812454 #
edge $-1 $828 -0.93254096649374318 $831 9.8139364174335633 $687 $884 forward 7 unknown #
vertex $-1 $691 $885 #
straight-curve $-1 5.7913526564007292 29.63221174757637 74.78922756596485 0 0 1 I I #
edge $-1 $831 -1.681868969495067 $698 16.628312221286659 $697 $886 forward 7 unknown #
vertex $-1 $830 $887 #
straight-curve $-1 5.7913526564007292 -19.500221755199298 35.570166217790529 0 0.82903756765294845 -0.55919291073839883 I I #
point $-1 5.7913526564007292 29.63221174757637 2.4299207403029257 #
point $-1 24.101533847182456 18.885734363649064 9.6785113988848934 #
straight-curve $-1 0 29.63221174757637 9.6785113988848952 -1 0 0 I I #
vertex $-1 $704 $888 #
point $-1 10.453388894557079 23.084184982785761 4.3125211594812454 #
vertex $-1 $708 $889 #
point $-1 15.946443251791607 23.084184982785761 4.3125211594812454 #
vertex $-1 $712 $890 #
point $-1 21.43949760902612 23.084184982785761 4.3125211594812454 #
edge $-1 $843 -0.93254096649374318 $846 9.8139364174335633 $717 $891 forward 7 unknown #
vertex $-1 $721 $892 #
straight-curve $-1 36.850829747758766 29.63221174757637 74.78922756596485 0 0 1 I I #
edge $-1 $846 13.847869576183953 $728 32.158050766965673 $727 $893 forward 7 unknown #
vertex $-1 $845 $894 #
straight-curve $-1 36.850829747758766 -19.500221755199298 35.570166217790529 0 0.82903756765294845 -0.55919291073839883 I I #
point $-1 36.850829747758766 29.63221174757637 2.4299207403029257 #
point $-1 55.161010938540485 18.885734363649064 9.6785113988848934 #
straight-curve $-1 0 29.63221174757637 9.6785113988848952 -1 0 0 I I #
vertex $-1 $734 $895 #
point $-1 41.512865985915113 23.084184982785761 4.3125211594812454 #
vertex $-1 $738 $896 #
point $-1 47.00592034314964 23.084184982785761 4.3125211594812454 #
vertex $-1 $742 $897 #
point $-1 52.498974700384153 23.084184982785761 4.3125211594812454 #
straight-curve $-1 -68.759422589800721 29.63221174757637 0 0 0 -1 I I #
point $-1 -68.759422589800721 -29.63221174757637 -9.6785113988848952 #
straight-curve $-1 -68.759422589800721 0 -9.6785113988848952 0 1 0 I I #
point $-1 -68.759422589800721 29.63221174757637 -9.6785113988848952 #
straight-curve $-1 -68.759422589800721 0 -8.8760538955712711 0 -1 0 I I #
point $-1 -68.759422589800721 -29.63221174757637 -8.8760538955712711 #
point $-1 -68.759422589800721 29.63221174757637 -8.8760538955712711 #
straight-curve $-1 -68.759422589800721 29.63221174757637 0 0 0 -1 I I #
straight-curve $-1 -68.759422589800721 -29.63221174757637 0 0 0 -1 I I #
straight-curve $-1 62.118954182716067 0 -8.8760538955712711 0 1 0 I I #
point $-1 62.118954182716067 29.63221174757637 -8.8760538955712711 #
point $-1 62.118954182716067 -29.63221174757637 -8.8760538955712711 #
straight-curve $-1 62.118954182716067 -29.63221174757637 -3.3379812897364678 0 0 -1 I I #
straight-curve $-1 -56.327601526315334 28.699670781082627 9.6785113988848934 0 -1 0 I I #
point $-1 -56.327601526315334 29.63221174757637 9.6785113988848952 #
straight-curve $-1 -23.586255465462237 18.88573436364906 9.6785113988849005 1 0 0 I I #
point $-1 -56.327601526315334 18.885734363649064 9.6785113988848934 #
point $-1 -52.665565288158987 22.524992072047365 3.4834835918282971 #
point $-1 -47.172510930924467 22.524992072047365 3.4834835918282971 #
point $-1 -41.679456573689947 22.524992072047365 3.4834835918282971 #
straight-curve $-1 -25.268124434957304 28.699670781082627 9.6785113988848934 0 -1 0 I I #
point $-1 -25.268124434957304 29.63221174757637 9.6785113988848952 #
straight-curve $-1 -8.0565169197832205 18.88573436364906 9.6785113988849005 1 0 0 I I #
point $-1 -25.268124434957304 18.885734363649064 9.6785113988848934 #
point $-1 -21.606088196800954 22.524992072047365 3.4834835918282971 #
point $-1 -16.113033839566434 22.524992072047365 3.4834835918282971 #
point $-1 -10.619979482331914 22.524992072047365 3.4834835918282971 #
straight-curve $-1 5.7913526564007292 28.699670781082627 9.6785113988848934 0 -1 0 I I #
point $-1 5.7913526564007292 29.63221174757637 9.6785113988848952 #
straight-curve $-1 7.4732216258957962 18.88573436364906 9.6785113988849005 1 0 0 I I #
point $-1 5.7913526564007292 18.885734363649064 9.6785113988848934 #
point $-1 9.4533888945570794 22.524992072047365 3.4834835918282971 #
point $-1 14.946443251791607 22.524992072047365 3.4834835918282971 #
point $-1 20.43949760902612 22.524992072047365 3.4834835918282971 #
straight-curve $-1 36.850829747758766 28.699670781082627 9.6785113988848934 0 -1 0 I I #
point $-1 36.850829747758766 29.63221174757637 9.6785113988848952 #
straight-curve $-1 23.002960171574813 18.88573436364906 9.6785113988849005 1 0 0 I I #
point $-1 36.850829747758766 18.885734363649064 9.6785113988848934 #
point $-1 40.512865985915113 22.524992072047365 3.4834835918282971 #
point $-1 46.00592034314964 22.524992072047365 3.4834835918282971 #
point $-1 51.498974700384153 22.524992072047365 3.4834835918282971 #
End-of-ACIS-data 