500 0 7 0           
7 Unknown 11 ACIS 5.0 NT 24 Thu Mar 25 23:13:56 1999 
-1 9.9999999999999995e-007 1e-010 
body $-1 $7 $-1 $8 #
body $-1 $9 $-1 $10 #
body $-1 $11 $-1 $12 #
body $-1 $13 $-1 $14 #
body $-1 $15 $-1 $16 #
body $-1 $17 $-1 $18 #
body $-1 $19 $-1 $20 #
lump $-1 $-1 $21 $0 #
transform $-1 1 0 0 0 1 0 0 0 1 53.093661305581833 33.142584237510341 15.256492312537338 1 rotate no_reflect no_shear #
lump $-1 $-1 $22 $1 #
transform $-1 1 0 0 0 1 0 0 0 1 53.093661305581833 33.142584237510341 15.256492312537338 1 rotate no_reflect no_shear #
lump $-1 $-1 $23 $2 #
transform $-1 1 0 0 0 1 0 0 0 1 53.093661305581833 33.142584237510341 15.256492312537338 1 rotate no_reflect no_shear #
lump $-1 $-1 $24 $3 #
transform $-1 1 0 0 0 1 0 0 0 1 53.093661305581833 33.142584237510341 15.256492312537338 1 rotate no_reflect no_shear #
lump $-1 $-1 $25 $4 #
transform $-1 1 0 0 0 1 0 0 0 1 53.093661305581833 33.142584237510341 15.256492312537338 1 rotate no_reflect no_shear #
lump $-1 $-1 $26 $5 #
transform $-1 1 0 0 0 1 0 0 0 1 53.093661305581833 33.142584237510341 15.256492312537338 1 rotate no_reflect no_shear #
lump $-1 $-1 $27 $6 #
transform $-1 1 0 0 0 1 0 0 0 1 53.093661305581833 33.142584237510341 15.256492312537338 1 rotate no_reflect no_shear #
shell $-1 $-1 $-1 $28 $-1 $7 #
shell $-1 $-1 $-1 $29 $-1 $9 #
shell $-1 $-1 $-1 $30 $-1 $11 #
shell $-1 $-1 $-1 $31 $-1 $13 #
shell $-1 $-1 $-1 $32 $-1 $15 #
shell $-1 $-1 $-1 $33 $-1 $17 #
shell $-1 $-1 $-1 $34 $-1 $19 #
face $-1 $35 $36 $21 $-1 $37 forward single #
face $-1 $38 $39 $22 $-1 $40 reversed single #
face $-1 $41 $42 $23 $-1 $43 forward single #
face $-1 $44 $45 $24 $-1 $46 forward single #
face $-1 $47 $48 $25 $-1 $49 reversed single #
face $-1 $50 $51 $26 $-1 $52 forward single #
face $-1 $53 $54 $27 $-1 $55 forward single #
face $-1 $56 $57 $21 $-1 $58 reversed single #
loop $-1 $-1 $59 $28 #
plane-surface $-1 0 0 15.256492312537338 0 0 1 1 0 0 forward_v I I I I #
face $-1 $60 $61 $22 $-1 $62 reversed single #
loop $-1 $-1 $63 $29 #
plane-surface $-1 45.234291166214774 -5.5430272402591072 158.94818072238482 0 -1 0 -0.66913061440640931 0 -0.74314481823134659 forward_v I I I I #
face $-1 $64 $65 $23 $-1 $66 forward single #
loop $-1 $67 $68 $30 #
cone-surface $-1 48.992003109312407 -13.464655252994174 11.433510671879613 -0.66913061440640931 0 -0.74314481823134659 1.1147172273470198 0 -1.003695921609614 1 I I 0 1 1.5 forward I I I I #
face $-1 $69 $70 $24 $-1 $71 forward single #
loop $-1 $72 $73 $31 #
cone-surface $-1 48.992003109312407 -8.7116784453531331 11.433510671879613 -0.66913061440640931 0 -0.74314481823134659 1.1147172273470198 0 -1.003695921609614 1 I I 0 1 1.5 forward I I I I #
face $-1 $74 $75 $25 $-1 $76 reversed single #
loop $-1 $-1 $77 $32 #
plane-surface $-1 45.234291166214774 16.6333064580882 158.94818072238482 0 -1 0 -0.66913061440640931 0 -0.74314481823134659 forward_v I I I I #
face $-1 $78 $79 $26 $-1 $80 forward single #
loop $-1 $81 $82 $33 #
cone-surface $-1 48.992003109312407 8.7116784453531366 11.433510671879613 -0.66913061440640931 0 -0.74314481823134659 1.1147172273470198 0 -1.003695921609614 1 I I 0 1 1.5 forward I I I I #
face $-1 $83 $84 $27 $-1 $85 forward single #
loop $-1 $86 $87 $34 #
cone-surface $-1 48.992003109312407 13.46465525299417 11.433510671879613 -0.66913061440640931 0 -0.74314481823134659 1.1147172273470198 0 -1.003695921609614 1 I I 0 1 1.5 forward I I I I #
face $-1 $88 $89 $21 $-1 $90 reversed single #
loop $-1 $-1 $91 $35 #
plane-surface $-1 0 0 -15.256492312537338 0 0 1 1 0 0 forward_v I I I I #
coedge $-1 $92 $93 $94 $95 forward $36 $-1 #
face $-1 $96 $97 $22 $-1 $98 reversed single #
loop $-1 $-1 $99 $38 #
plane-surface $-1 -25.818897254764764 -11.088166849173653 80.035622162038237 0.66913061440640931 0 0.74314481823134659 0.74314481823134659 0 -0.66913061440640931 forward_v I I I I #
coedge $-1 $100 $101 $102 $103 reversed $39 $-1 #
face $-1 $-1 $104 $23 $-1 $105 forward single #
loop $-1 $106 $107 $41 #
cone-surface $-1 47.872520860492969 -13.464655252994174 10.190199703287691 -0.66913061440640931 0 -0.74314481823134659 0.55735861367350992 0 -0.50184796080480698 1 I I -0.70710678118654757 0.70710678118654757 0.75 forward I I I I #
loop $-1 $-1 $108 $30 #
coedge $-1 $68 $68 $109 $110 reversed $42 $-1 #
face $-1 $-1 $111 $24 $-1 $112 forward single #
loop $-1 $113 $114 $44 #
cone-surface $-1 47.872520860492969 -8.7116784453531331 10.190199703287691 -0.66913061440640931 0 -0.74314481823134659 0.55735861367350992 0 -0.50184796080480698 1 I I -0.70710678118654757 0.70710678118654757 0.75 forward I I I I #
loop $-1 $-1 $115 $31 #
coedge $-1 $73 $73 $116 $117 reversed $45 $-1 #
face $-1 $118 $119 $25 $-1 $120 reversed single #
loop $-1 $-1 $121 $47 #
plane-surface $-1 -25.818897254764764 11.088166849173653 80.035622162038237 0.66913061440640931 0 0.74314481823134659 0.74314481823134659 0 -0.66913061440640931 forward_v I I I I #
coedge $-1 $122 $123 $124 $125 reversed $48 $-1 #
face $-1 $-1 $126 $26 $-1 $127 forward single #
loop $-1 $128 $129 $50 #
cone-surface $-1 47.872520860492969 8.7116784453531366 10.190199703287691 -0.66913061440640931 0 -0.74314481823134659 0.55735861367350992 0 -0.50184796080480698 1 I I -0.70710678118654757 0.70710678118654757 0.75 forward I I I I #
loop $-1 $-1 $130 $33 #
coedge $-1 $82 $82 $131 $132 reversed $51 $-1 #
face $-1 $-1 $133 $27 $-1 $134 forward single #
loop $-1 $135 $136 $53 #
cone-surface $-1 47.872520860492969 13.46465525299417 10.190199703287691 -0.66913061440640931 0 -0.74314481823134659 0.55735861367350992 0 -0.50184796080480698 1 I I -0.70710678118654757 0.70710678118654757 0.75 forward I I I I #
loop $-1 $-1 $137 $34 #
coedge $-1 $87 $87 $138 $139 reversed $54 $-1 #
face $-1 $140 $141 $21 $-1 $142 reversed single #
loop $-1 $-1 $143 $56 #
plane-surface $-1 0 -33.142584237510341 0 0 1 0 0 0 1 forward_v I I I I #
coedge $-1 $144 $145 $146 $147 forward $57 $-1 #
coedge $-1 $148 $59 $149 $150 forward $36 $-1 #
coedge $-1 $59 $148 $151 $152 forward $36 $-1 #
coedge $-1 $153 $154 $59 $95 reversed $155 $-1 #
edge $-1 $156 -33.142584237510341 $157 33.142584237510341 $94 $158 forward 7 unknown #
face $-1 $159 $160 $22 $-1 $161 forward single #
loop $-1 $-1 $162 $60 #
plane-surface $-1 45.234291166214774 -16.6333064580882 158.94818072238482 0 1 0 0.66913061440640931 0 0.74314481823134659 forward_v I I I I #
coedge $-1 $163 $164 $165 $166 reversed $61 $-1 #
coedge $-1 $101 $63 $167 $168 reversed $39 $-1 #
coedge $-1 $63 $100 $163 $169 reversed $39 $-1 #
coedge $-1 $165 $170 $63 $103 forward $160 $-1 #
edge $-1 $171 -30.476515722474446 $172 -23.508467905964821 $102 $173 forward 7 unknown #
loop $-1 $-1 $109 $64 #
plane-surface $-1 -25.818897254764764 -11.088166849173653 80.035622162038237 0.66913061440640931 0 0.74314481823134659 0.74314481823134659 0 -0.66913061440640931 forward_v I I I I #
loop $-1 $-1 $174 $41 #
coedge $-1 $107 $107 $108 $175 reversed $65 $-1 #
coedge $-1 $108 $108 $107 $175 forward $67 $-1 #
coedge $-1 $109 $109 $68 $110 forward $104 $-1 #
edge $-1 $176 0 $176 6.2831853071796004 $109 $177 forward 7 unknown #
loop $-1 $-1 $116 $69 #
plane-surface $-1 -25.818897254764764 -11.088166849173653 80.035622162038237 0.66913061440640931 0 0.74314481823134659 0.74314481823134659 0 -0.66913061440640931 forward_v I I I I #
loop $-1 $-1 $178 $44 #
coedge $-1 $114 $114 $115 $179 reversed $70 $-1 #
coedge $-1 $115 $115 $114 $179 forward $72 $-1 #
coedge $-1 $116 $116 $73 $117 forward $111 $-1 #
edge $-1 $180 0 $180 6.2831853071796004 $116 $181 forward 7 unknown #
face $-1 $182 $183 $25 $-1 $184 reversed single #
loop $-1 $-1 $185 $74 #
plane-surface $-1 45.234291166214774 5.5430272402591072 158.94818072238482 0 1 0 0.66913061440640931 0 0.74314481823134659 forward_v I I I I #
coedge $-1 $186 $187 $188 $189 reversed $75 $-1 #
coedge $-1 $123 $77 $190 $191 reversed $48 $-1 #
coedge $-1 $77 $122 $186 $192 reversed $48 $-1 #
coedge $-1 $188 $193 $77 $125 forward $194 $-1 #
edge $-1 $195 -30.476515722474446 $196 -23.508467905964821 $124 $197 forward 7 unknown #
loop $-1 $-1 $131 $78 #
plane-surface $-1 -25.818897254764764 11.088166849173653 80.035622162038237 0.66913061440640931 0 0.74314481823134659 0.74314481823134659 0 -0.66913061440640931 forward_v I I I I #
loop $-1 $-1 $198 $50 #
coedge $-1 $129 $129 $130 $199 reversed $79 $-1 #
coedge $-1 $130 $130 $129 $199 forward $81 $-1 #
coedge $-1 $131 $131 $82 $132 forward $126 $-1 #
edge $-1 $200 0 $200 6.2831853071796004 $131 $201 forward 7 unknown #
loop $-1 $-1 $138 $83 #
plane-surface $-1 -25.818897254764764 11.088166849173653 80.035622162038237 0.66913061440640931 0 0.74314481823134659 0.74314481823134659 0 -0.66913061440640931 forward_v I I I I #
loop $-1 $-1 $202 $53 #
coedge $-1 $136 $136 $137 $203 reversed $84 $-1 #
coedge $-1 $137 $137 $136 $203 forward $86 $-1 #
coedge $-1 $138 $138 $87 $139 forward $133 $-1 #
edge $-1 $204 0 $204 6.2831853071796004 $138 $205 forward 7 unknown #
face $-1 $206 $207 $21 $-1 $208 reversed single #
loop $-1 $-1 $209 $88 #
plane-surface $-1 -53.093661305581833 0 0 1 0 0 0 0 -1 forward_v I I I I #
coedge $-1 $210 $151 $211 $212 forward $89 $-1 #
coedge $-1 $213 $91 $210 $214 forward $57 $-1 #
coedge $-1 $91 $213 $215 $216 forward $57 $-1 #
coedge $-1 $154 $153 $91 $147 reversed $155 $-1 #
edge $-1 $217 -33.142584237510341 $218 33.142584237510341 $146 $219 forward 7 unknown #
coedge $-1 $93 $92 $220 $221 forward $36 $-1 #
coedge $-1 $222 $223 $92 $150 reversed $207 $-1 #
edge $-1 $157 -53.093661305581833 $224 53.093661305581833 $149 $225 forward 7 unknown #
coedge $-1 $143 $226 $93 $152 reversed $89 $-1 #
edge $-1 $227 -53.093661305581833 $156 53.093661305581833 $151 $228 forward 7 unknown #
coedge $-1 $146 $94 $226 $229 forward $155 $-1 #
coedge $-1 $94 $146 $222 $230 reversed $155 $-1 #
loop $-1 $-1 $153 $206 #
vertex $-1 $95 $231 #
vertex $-1 $95 $232 #
straight-curve $-1 53.093661305581833 0 15.256492312537338 0 1 0 I I #
face $-1 $-1 $233 $22 $-1 $234 reversed single #
loop $-1 $-1 $102 $96 #
plane-surface $-1 0 0 15.256492312537338 0 0 1 1 0 0 forward_v I I I I #
coedge $-1 $235 $236 $237 $238 reversed $97 $-1 #
coedge $-1 $239 $99 $101 $169 forward $61 $-1 #
coedge $-1 $99 $239 $235 $240 forward $61 $-1 #
coedge $-1 $237 $102 $99 $166 forward $160 $-1 #
edge $-1 $172 -0.0010561843277194782 $241 11.089223033501373 $165 $242 forward 7 unknown #
coedge $-1 $243 $244 $100 $168 forward $233 $-1 #
edge $-1 $245 -70.491656620133725 $171 -64.217598048655077 $167 $246 forward 7 unknown #
edge $-1 $172 96.810889316381008 $245 106.18732261116368 $101 $247 forward 7 unknown #
coedge $-1 $102 $237 $243 $248 forward $160 $-1 #
vertex $-1 $168 $249 #
vertex $-1 $103 $250 #
straight-curve $-1 22.617145583107387 -5.5430272402591072 15.256492312537333 -1 0 0 I I #
coedge $-1 $174 $174 $-1 $251 reversed $106 $-1 #
edge $-1 $252 0 $252 6.2831853071796004 $107 $253 forward 7 unknown #
vertex $-1 $110 $254 #
ellipse-curve $-1 49.60963739732702 -13.464655252994174 12.119463026798007 0.66913061440640931 0 0.74314481823134659 1.1147172273470198 0 -1.003695921609614 1 I I #
coedge $-1 $178 $178 $-1 $255 reversed $113 $-1 #
edge $-1 $256 0 $256 6.2831853071796004 $114 $257 forward 7 unknown #
vertex $-1 $117 $258 #
ellipse-curve $-1 49.60963739732702 -8.7116784453531331 12.119463026798007 0.66913061440640931 0 0.74314481823134659 1.1147172273470198 0 -1.003695921609614 1 I I #
face $-1 $-1 $194 $25 $-1 $259 forward single #
loop $-1 $-1 $260 $118 #
plane-surface $-1 53.093661305581833 0 0 -1 0 0 0 0 1 forward_v I I I I #
coedge $-1 $261 $262 $263 $264 reversed $119 $-1 #
coedge $-1 $265 $121 $123 $192 forward $75 $-1 #
coedge $-1 $121 $265 $261 $266 forward $75 $-1 #
coedge $-1 $263 $124 $121 $189 forward $194 $-1 #
edge $-1 $196 -11.089223033501373 $267 0.0010561843277194782 $188 $268 forward 7 unknown #
coedge $-1 $269 $270 $122 $191 forward $183 $-1 #
edge $-1 $271 -70.491656620133725 $195 -64.217598048655077 $190 $272 forward 7 unknown #
edge $-1 $196 96.810889316381008 $271 106.18732261116368 $123 $273 forward 7 unknown #
coedge $-1 $124 $263 $269 $274 forward $194 $-1 #
loop $-1 $-1 $263 $182 #
vertex $-1 $191 $275 #
vertex $-1 $125 $276 #
straight-curve $-1 22.617145583107387 16.6333064580882 15.256492312537333 -1 0 0 I I #
coedge $-1 $198 $198 $-1 $277 reversed $128 $-1 #
edge $-1 $278 0 $278 6.2831853071796004 $129 $279 forward 7 unknown #
vertex $-1 $132 $280 #
ellipse-curve $-1 49.60963739732702 8.7116784453531366 12.119463026798007 0.66913061440640931 0 0.74314481823134659 1.1147172273470198 0 -1.003695921609614 1 I I #
coedge $-1 $202 $202 $-1 $281 reversed $135 $-1 #
edge $-1 $282 0 $282 6.2831853071796004 $136 $283 forward 7 unknown #
vertex $-1 $139 $284 #
ellipse-curve $-1 49.60963739732702 13.46465525299417 12.119463026798007 0.66913061440640931 0 0.74314481823134659 1.1147172273470198 0 -1.003695921609614 1 I I #
face $-1 $-1 $155 $21 $-1 $285 reversed single #
loop $-1 $-1 $222 $140 #
plane-surface $-1 0 33.142584237510341 0 0 -1 0 0 0 -1 forward_v I I I I #
coedge $-1 $286 $220 $223 $287 forward $141 $-1 #
coedge $-1 $226 $143 $144 $214 reversed $89 $-1 #
coedge $-1 $220 $286 $143 $212 reversed $141 $-1 #
edge $-1 $227 -15.256492312537338 $288 15.256492312537338 $211 $289 forward 7 unknown #
coedge $-1 $145 $144 $286 $290 forward $57 $-1 #
edge $-1 $218 -53.093661305581833 $288 53.093661305581833 $210 $291 forward 7 unknown #
coedge $-1 $223 $222 $145 $216 reversed $207 $-1 #
edge $-1 $292 -53.093661305581833 $217 53.093661305581833 $215 $293 forward 7 unknown #
vertex $-1 $147 $294 #
vertex $-1 $229 $295 #
straight-curve $-1 53.093661305581833 0 -15.256492312537338 0 -1 0 I I #
coedge $-1 $209 $211 $148 $221 reversed $141 $-1 #
edge $-1 $224 -33.142584237510341 $227 33.142584237510341 $220 $296 forward 7 unknown #
coedge $-1 $215 $149 $154 $230 forward $207 $-1 #
coedge $-1 $149 $215 $209 $287 reversed $207 $-1 #
vertex $-1 $150 $297 #
straight-curve $-1 0 33.142584237510341 15.256492312537338 -1 0 0 I I #
coedge $-1 $151 $210 $153 $229 reversed $89 $-1 #
vertex $-1 $221 $298 #
straight-curve $-1 0 -33.142584237510341 15.256492312537338 1 0 0 I I #
edge $-1 $156 -15.256492312537338 $218 15.256492312537338 $153 $299 forward 7 unknown #
edge $-1 $157 -15.256492312537338 $217 15.256492312537338 $154 $300 forward 7 unknown #
point $-1 53.093661305581833 -33.142584237510341 15.256492312537338 #
point $-1 53.093661305581833 33.142584237510341 15.256492312537338 #
loop $-1 $-1 $167 $159 #
plane-surface $-1 53.093661305581833 0 0 -1 0 0 0 0 1 forward_v I I I I #
coedge $-1 $236 $162 $164 $240 reversed $97 $-1 #
coedge $-1 $162 $235 $301 $302 reversed $97 $-1 #
coedge $-1 $170 $165 $162 $238 forward $160 $-1 #
edge $-1 $241 23.508467905964821 $303 30.476515722474446 $237 $304 forward 7 unknown #
coedge $-1 $164 $163 $244 $305 reversed $61 $-1 #
edge $-1 $306 -106.18732261116368 $241 -96.810889316381008 $235 $307 forward 7 unknown #
vertex $-1 $166 $308 #
straight-curve $-1 46.125613489072194 -5.5440834245868267 15.256492312537333 0 -1 0 I I #
coedge $-1 $301 $167 $170 $248 reversed $233 $-1 #
coedge $-1 $167 $301 $239 $305 forward $233 $-1 #
vertex $-1 $168 $309 #
straight-curve $-1 53.093661305581833 -5.5430272402591072 79.47409036119241 0 0 1 I I #
straight-curve $-1 -25.818897254764764 -5.5430272402591072 80.035622162038237 0.74314481823134659 0 -0.66913061440640931 I I #
edge $-1 $303 -16.6333064580882 $171 -5.5430272402591072 $243 $310 forward 7 unknown #
point $-1 53.093661305581833 -5.5430272402591072 15.256492312537338 #
point $-1 46.125613489072208 -5.5430272402591072 15.256492312537333 #
edge $-1 $311 1 $311 0 $174 $-1 forward 7 unknown #
vertex $-1 $175 $312 #
ellipse-curve $-1 48.374368821297779 -13.464655252994174 10.7475583169612 0.66913061440640931 0 0.74314481823134659 1.1147172273470198 0 -1.003695921609614 1 I I #
point $-1 50.724354624674056 -13.464655252994174 11.115767105188413 #
edge $-1 $313 1 $313 0 $178 $-1 forward 7 unknown #
vertex $-1 $179 $314 #
ellipse-curve $-1 48.374368821297779 -8.7116784453531331 10.7475583169612 0.66913061440640931 0 0.74314481823134659 1.1147172273470198 0 -1.003695921609614 1 I I #
point $-1 50.724354624674056 -8.7116784453531331 11.115767105188413 #
plane-surface $-1 0 0 15.256492312537338 0 0 1 1 0 0 forward_v I I I I #
coedge $-1 $270 $269 $262 $315 forward $183 $-1 #
coedge $-1 $262 $185 $187 $266 reversed $119 $-1 #
coedge $-1 $185 $261 $260 $315 reversed $119 $-1 #
coedge $-1 $193 $188 $185 $264 forward $194 $-1 #
edge $-1 $267 23.508467905964821 $316 30.476515722474446 $263 $317 forward 7 unknown #
coedge $-1 $187 $186 $270 $318 reversed $75 $-1 #
edge $-1 $319 -106.18732261116368 $267 -96.810889316381008 $261 $320 forward 7 unknown #
vertex $-1 $189 $321 #
straight-curve $-1 46.125613489072194 5.5440834245868267 15.256492312537333 0 -1 0 I I #
coedge $-1 $260 $190 $193 $274 reversed $183 $-1 #
coedge $-1 $190 $260 $265 $318 forward $183 $-1 #
vertex $-1 $191 $322 #
straight-curve $-1 53.093661305581833 16.6333064580882 79.47409036119241 0 0 1 I I #
straight-curve $-1 -25.818897254764764 16.6333064580882 80.035622162038237 0.74314481823134659 0 -0.66913061440640931 I I #
edge $-1 $316 5.5430272402591072 $195 16.6333064580882 $269 $323 forward 7 unknown #
point $-1 53.093661305581833 16.6333064580882 15.256492312537338 #
point $-1 46.125613489072208 16.6333064580882 15.256492312537333 #
edge $-1 $324 1 $324 0 $198 $-1 forward 7 unknown #
vertex $-1 $199 $325 #
ellipse-curve $-1 48.374368821297779 8.7116784453531366 10.7475583169612 0.66913061440640931 0 0.74314481823134659 1.1147172273470198 0 -1.003695921609614 1 I I #
point $-1 50.724354624674056 8.7116784453531366 11.115767105188413 #
edge $-1 $326 1 $326 0 $202 $-1 forward 7 unknown #
vertex $-1 $203 $327 #
ellipse-curve $-1 48.374368821297779 13.46465525299417 10.7475583169612 0.66913061440640931 0 0.74314481823134659 1.1147172273470198 0 -1.003695921609614 1 I I #
point $-1 50.724354624674056 13.46465525299417 11.115767105188413 #
plane-surface $-1 53.093661305581833 0 0 -1 0 0 0 0 1 forward_v I I I I #
coedge $-1 $211 $209 $213 $290 reversed $141 $-1 #
edge $-1 $224 -15.256492312537338 $292 15.256492312537338 $223 $328 forward 7 unknown #
vertex $-1 $290 $329 #
straight-curve $-1 -53.093661305581833 -33.142584237510341 0 0 0 -1 I I #
edge $-1 $288 -33.142584237510341 $292 33.142584237510341 $286 $330 forward 7 unknown #
straight-curve $-1 0 -33.142584237510341 -15.256492312537338 -1 0 0 I I #
vertex $-1 $216 $331 #
straight-curve $-1 0 33.142584237510341 -15.256492312537338 1 0 0 I I #
point $-1 53.093661305581833 33.142584237510341 -15.256492312537338 #
point $-1 53.093661305581833 -33.142584237510341 -15.256492312537338 #
straight-curve $-1 -53.093661305581833 0 15.256492312537338 0 -1 0 I I #
point $-1 -53.093661305581833 33.142584237510341 15.256492312537338 #
point $-1 -53.093661305581833 -33.142584237510341 15.256492312537338 #
straight-curve $-1 53.093661305581833 -33.142584237510341 0 0 0 -1 I I #
straight-curve $-1 53.093661305581833 33.142584237510341 0 0 0 -1 I I #
coedge $-1 $244 $243 $236 $302 forward $233 $-1 #
edge $-1 $303 64.217598048655077 $306 70.491656620133725 $301 $332 forward 7 unknown #
vertex $-1 $248 $333 #
straight-curve $-1 22.617145583107387 -16.6333064580882 15.256492312537333 1 0 0 I I #
edge $-1 $306 -11.089223033501373 $245 0.0010561843277194782 $244 $334 forward 7 unknown #
vertex $-1 $305 $335 #
straight-curve $-1 -25.818897254764764 -16.6333064580882 80.035622162038237 -0.74314481823134659 0 0.66913061440640931 I I #
point $-1 46.125613489072208 -16.6333064580882 15.256492312537333 #
point $-1 53.093661305581833 -5.5430272402591072 8.982433741058685 #
straight-curve $-1 53.093661305581833 0 15.256492312537338 0 1 0 I I #
vertex $-1 $251 $336 #
point $-1 49.489086048644793 -13.464655252994174 9.7438623953515862 #
vertex $-1 $255 $337 #
point $-1 49.489086048644793 -8.7116784453531331 9.7438623953515862 #
edge $-1 $316 64.217598048655077 $319 70.491656620133725 $260 $338 forward 7 unknown #
vertex $-1 $274 $339 #
straight-curve $-1 22.617145583107387 5.5430272402591072 15.256492312537333 1 0 0 I I #
edge $-1 $319 -0.0010561843277194782 $271 11.089223033501373 $270 $340 forward 7 unknown #
vertex $-1 $318 $341 #
straight-curve $-1 -25.818897254764764 5.5430272402591072 80.035622162038237 -0.74314481823134659 0 0.66913061440640931 I I #
point $-1 46.125613489072208 5.5430272402591072 15.256492312537333 #
point $-1 53.093661305581833 16.6333064580882 8.982433741058685 #
straight-curve $-1 53.093661305581833 0 15.256492312537338 0 1 0 I I #
vertex $-1 $277 $342 #
point $-1 49.489086048644793 8.7116784453531366 9.7438623953515862 #
vertex $-1 $281 $343 #
point $-1 49.489086048644793 13.46465525299417 9.7438623953515862 #
straight-curve $-1 -53.093661305581833 33.142584237510341 0 0 0 -1 I I #
point $-1 -53.093661305581833 -33.142584237510341 -15.256492312537338 #
straight-curve $-1 -53.093661305581833 0 -15.256492312537338 0 1 0 I I #
point $-1 -53.093661305581833 33.142584237510341 -15.256492312537338 #
straight-curve $-1 53.093661305581833 -16.6333064580882 79.47409036119241 0 0 -1 I I #
point $-1 53.093661305581833 -16.6333064580882 15.256492312537338 #
straight-curve $-1 53.093661305581833 -5.5440834245868267 8.9824337410586779 0 1 0 I I #
point $-1 53.093661305581833 -16.6333064580882 8.982433741058685 #
point $-1 47.370672899688159 -13.464655252994174 9.6328410896141818 #
point $-1 47.370672899688159 -8.7116784453531331 9.6328410896141818 #
straight-curve $-1 53.093661305581833 5.5430272402591072 79.47409036119241 0 0 -1 I I #
point $-1 53.093661305581833 5.5430272402591072 15.256492312537338 #
straight-curve $-1 53.093661305581833 5.5440834245868267 8.9824337410586779 0 1 0 I I #
point $-1 53.093661305581833 5.5430272402591072 8.982433741058685 #
point $-1 47.370672899688159 8.7116784453531366 9.6328410896141818 #
point $-1 47.370672899688159 13.46465525299417 9.6328410896141818 #
End-of-ACIS-data 