500 0 5 0           
7 Unknown 11 ACIS 5.0 NT 24 Fri Mar 26 14:28:54 1999 
-1 9.9999999999999995e-007 1e-010 
body $-1 $5 $-1 $6 #
body $-1 $7 $-1 $8 #
body $-1 $9 $-1 $10 #
body $-1 $11 $-1 $12 #
body $-1 $13 $-1 $14 #
lump $-1 $-1 $15 $0 #
transform $-1 1 0 0 0 1 0 0 0 1 56.563005462813194 30.146681948380063 6.5275336086782962 1 rotate no_reflect no_shear #
lump $-1 $-1 $16 $1 #
transform $-1 1 0 0 0 1 0 0 0 1 56.563005462813194 30.146681948380063 6.5275336086782962 1 rotate no_reflect no_shear #
lump $-1 $-1 $17 $2 #
transform $-1 1 0 0 0 1 0 0 0 1 56.563005462813194 30.146681948380063 6.5275336086782962 1 rotate no_reflect no_shear #
lump $-1 $-1 $18 $3 #
transform $-1 1 0 0 0 1 0 0 0 1 56.563005462813194 30.146681948380063 6.5275336086782962 1 rotate no_reflect no_shear #
lump $-1 $-1 $19 $4 #
transform $-1 1 0 0 0 1 0 0 0 1 56.563005462813194 30.146681948380063 6.5275336086782962 1 rotate no_reflect no_shear #
shell $-1 $-1 $-1 $20 $-1 $5 #
shell $-1 $-1 $-1 $21 $-1 $7 #
shell $-1 $-1 $-1 $22 $-1 $9 #
shell $-1 $-1 $-1 $23 $-1 $11 #
shell $-1 $-1 $-1 $24 $-1 $13 #
face $-1 $25 $26 $15 $-1 $27 reversed single #
face $-1 $28 $29 $16 $-1 $30 forward single #
face $-1 $31 $32 $17 $-1 $33 reversed single #
face $-1 $34 $35 $18 $-1 $36 forward single #
face $-1 $37 $38 $19 $-1 $39 forward single #
face $-1 $40 $41 $15 $-1 $42 forward single #
loop $-1 $-1 $43 $20 #
plane-surface $-1 0 -30.146681948380063 0 0 1 0 0 0 1 forward_v I I I I #
face $-1 $44 $45 $16 $-1 $46 reversed single #
loop $-1 $-1 $47 $21 #
plane-surface $-1 0 -30.146681948380063 0 0 1 0 0 0 1 forward_v I I I I #
face $-1 $48 $49 $17 $-1 $50 reversed single #
loop $-1 $-1 $51 $22 #
plane-surface $-1 -116.51065872970059 -13.196065966812236 98.920711487945923 0 1 0 -0.52991927123019833 0 0.84804809178421925 forward_v I I I I #
face $-1 $52 $53 $18 $-1 $54 forward single #
loop $-1 $55 $56 $23 #
cone-surface $-1 -53.052867115798755 -10.275342376605973 3.6756680449386767 0.52991927123019833 0 -0.84804809178421925 0.84804809178421925 0 0.52991927123019833 1 I I 0 1 1 forward I I I I #
face $-1 $57 $58 $19 $-1 $59 forward single #
loop $-1 $60 $61 $24 #
cone-surface $-1 -53.052867115798755 -5.8942569912965794 3.6756680449386767 0.52991927123019833 0 -0.84804809178421925 0.84804809178421925 0 0.52991927123019833 1 I I 0 1 1 forward I I I I #
face $-1 $62 $63 $15 $-1 $64 reversed single #
loop $-1 $-1 $65 $25 #
plane-surface $-1 0 0 6.5275336086782962 0 0 1 1 0 0 forward_v I I I I #
coedge $-1 $66 $67 $68 $69 reversed $26 $-1 #
face $-1 $70 $71 $16 $-1 $72 reversed single #
loop $-1 $-1 $73 $28 #
plane-surface $-1 0 0 -6.5275336086782962 0 0 1 1 0 0 forward_v I I I I #
coedge $-1 $74 $75 $76 $77 forward $29 $-1 #
face $-1 $78 $79 $17 $-1 $80 reversed single #
loop $-1 $-1 $81 $31 #
plane-surface $-1 -56.563005462813202 -8.0847996839512746 2.9844137913077304 -0.52991927123019833 0 0.84804809178421925 0.84804809178421925 0 0.52991927123019833 forward_v I I I I #
coedge $-1 $82 $83 $84 $85 reversed $32 $-1 #
face $-1 $-1 $86 $18 $-1 $87 forward single #
loop $-1 $88 $89 $34 #
cone-surface $-1 -52.112857573252299 -10.275342376605973 2.1713383439922405 0.52991927123019833 0 -0.84804809178421925 0.42402404589210962 0 0.26495963561509916 1 I I -0.70710678118654746 0.70710678118654746 0.5 forward I I I I #
loop $-1 $-1 $90 $23 #
coedge $-1 $56 $56 $91 $92 reversed $35 $-1 #
face $-1 $-1 $93 $19 $-1 $94 forward single #
loop $-1 $95 $96 $37 #
cone-surface $-1 -52.112857573252299 -5.8942569912965794 2.1713383439922405 0.52991927123019833 0 -0.84804809178421925 0.42402404589210962 0 0.26495963561509916 1 I I -0.70710678118654746 0.70710678118654746 0.5 forward I I I I #
loop $-1 $-1 $97 $24 #
coedge $-1 $61 $61 $98 $99 reversed $38 $-1 #
face $-1 $100 $101 $15 $-1 $102 reversed single #
loop $-1 $-1 $103 $40 #
plane-surface $-1 0 0 -6.5275336086782962 0 0 1 1 0 0 forward_v I I I I #
coedge $-1 $104 $105 $106 $107 forward $41 $-1 #
coedge $-1 $108 $43 $109 $110 reversed $26 $-1 #
coedge $-1 $43 $108 $111 $112 forward $26 $-1 #
coedge $-1 $113 $103 $43 $69 forward $63 $-1 #
edge $-1 $114 -56.563005462813194 $115 56.563005462813194 $43 $116 forward 7 unknown #
face $-1 $117 $118 $16 $-1 $119 reversed single #
loop $-1 $-1 $120 $44 #
plane-surface $-1 -52.502518361106496 -34.916739834456905 0 0 1 0 0 0 1 forward_v I I I I #
coedge $-1 $121 $122 $75 $123 forward $45 $-1 #
coedge $-1 $124 $47 $125 $126 reversed $29 $-1 #
coedge $-1 $47 $124 $73 $123 reversed $29 $-1 #
coedge $-1 $127 $128 $47 $77 reversed $118 $-1 #
edge $-1 $129 -6.5275336086782962 $130 6.5275336086782962 $76 $131 forward 7 unknown #
face $-1 $132 $133 $17 $-1 $134 reversed single #
loop $-1 $-1 $135 $48 #
plane-surface $-1 -116.51065872970059 -2.9735334010903127 98.920711487945923 0 -1 0 0.52991927123019833 0 -0.84804809178421925 forward_v I I I I #
coedge $-1 $136 $137 $138 $139 reversed $49 $-1 #
coedge $-1 $83 $51 $140 $141 reversed $32 $-1 #
coedge $-1 $51 $82 $136 $142 reversed $32 $-1 #
coedge $-1 $138 $143 $51 $85 forward $144 $-1 #
edge $-1 $145 1.6923239020371028 $146 7.3625007822032345 $84 $147 forward 7 unknown #
loop $-1 $-1 $91 $52 #
plane-surface $-1 -56.563005462813202 -8.0847996839512746 2.9844137913077304 -0.52991927123019833 0 0.84804809178421925 0.84804809178421925 0 0.52991927123019833 forward_v I I I I #
loop $-1 $-1 $148 $34 #
coedge $-1 $89 $89 $90 $149 reversed $53 $-1 #
coedge $-1 $90 $90 $89 $149 forward $55 $-1 #
coedge $-1 $91 $91 $56 $92 forward $86 $-1 #
edge $-1 $150 0 $150 6.2831853071796004 $91 $151 forward 7 unknown #
loop $-1 $-1 $98 $57 #
plane-surface $-1 -56.563005462813202 -8.0847996839512746 2.9844137913077304 -0.52991927123019833 0 0.84804809178421925 0.84804809178421925 0 0.52991927123019833 forward_v I I I I #
loop $-1 $-1 $152 $37 #
coedge $-1 $96 $96 $97 $153 reversed $58 $-1 #
coedge $-1 $97 $97 $96 $153 forward $60 $-1 #
coedge $-1 $98 $98 $61 $99 forward $93 $-1 #
edge $-1 $154 0 $154 6.2831853071796004 $98 $155 forward 7 unknown #
face $-1 $156 $157 $15 $-1 $158 reversed single #
loop $-1 $-1 $159 $62 #
plane-surface $-1 -56.563005462813194 0 0 1 0 0 0 0 -1 forward_v I I I I #
coedge $-1 $68 $160 $161 $162 forward $63 $-1 #
coedge $-1 $163 $65 $164 $165 forward $41 $-1 #
coedge $-1 $65 $163 $108 $166 forward $41 $-1 #
coedge $-1 $109 $167 $65 $107 reversed $168 $-1 #
edge $-1 $169 -30.146681948380063 $170 30.146681948380063 $106 $171 forward 7 unknown #
coedge $-1 $67 $66 $105 $166 reversed $26 $-1 #
coedge $-1 $161 $106 $66 $110 forward $168 $-1 #
edge $-1 $169 -6.5275336086782962 $114 6.5275336086782962 $109 $172 forward 7 unknown #
coedge $-1 $173 $174 $67 $112 reversed $101 $-1 #
edge $-1 $175 -6.5275336086782962 $115 6.5275336086782962 $111 $176 forward 7 unknown #
coedge $-1 $160 $68 $174 $177 forward $63 $-1 #
vertex $-1 $110 $178 #
vertex $-1 $177 $179 #
straight-curve $-1 0 -30.146681948380063 -6.5275336086782962 -1 0 0 I I #
face $-1 $180 $181 $16 $-1 $182 reversed single #
loop $-1 $-1 $76 $70 #
plane-surface $-1 -54.002518361106496 -32.531710891418484 0 1 0 0 0 0 -1 forward_v I I I I #
coedge $-1 $183 $184 $185 $186 forward $71 $-1 #
coedge $-1 $187 $73 $188 $189 forward $45 $-1 #
coedge $-1 $73 $187 $127 $190 forward $45 $-1 #
edge $-1 $129 -54.002518361106496 $191 -51.002518361106496 $73 $192 forward 7 unknown #
coedge $-1 $75 $74 $193 $194 forward $29 $-1 #
coedge $-1 $195 $196 $74 $126 forward $197 $-1 #
edge $-1 $198 51.002518361106496 $130 54.002518361106496 $125 $199 forward 7 unknown #
coedge $-1 $185 $76 $122 $190 reversed $118 $-1 #
coedge $-1 $76 $185 $195 $200 reversed $118 $-1 #
vertex $-1 $123 $201 #
vertex $-1 $200 $202 #
straight-curve $-1 -54.002518361106496 -30.146681948380063 0 0 0 1 I I #
face $-1 $-1 $144 $17 $-1 $203 forward single #
loop $-1 $-1 $204 $78 #
plane-surface $-1 -56.563005462813194 0 0 1 0 0 0 0 -1 forward_v I I I I #
coedge $-1 $205 $206 $207 $208 reversed $79 $-1 #
coedge $-1 $209 $81 $83 $142 forward $49 $-1 #
coedge $-1 $81 $209 $205 $210 forward $49 $-1 #
coedge $-1 $207 $84 $81 $139 forward $144 $-1 #
edge $-1 $146 -9.1536661248365991 $211 1.0688664408853246 $138 $212 forward 7 unknown #
coedge $-1 $213 $214 $82 $141 forward $133 $-1 #
edge $-1 $215 -46.475941952665224 $145 -42.932822135294664 $140 $216 forward 7 unknown #
edge $-1 $146 -6.6861501548061746 $215 -8.3790584163743152e-015 $83 $217 forward 7 unknown #
coedge $-1 $84 $207 $213 $218 forward $144 $-1 #
loop $-1 $-1 $207 $132 #
vertex $-1 $141 $219 #
vertex $-1 $85 $220 #
straight-curve $-1 -58.255329364850297 -13.196065966812236 6.5275336086782971 1 0 0 I I #
coedge $-1 $148 $148 $-1 $221 reversed $88 $-1 #
edge $-1 $222 0 $222 6.2831853071796004 $89 $223 forward 7 unknown #
vertex $-1 $92 $224 #
ellipse-curve $-1 -53.727917022730118 -10.275342376605973 4.7559736999930209 -0.52991927123019833 0 0.84804809178421925 0.84804809178421925 0 0.52991927123019833 1 I I #
coedge $-1 $152 $152 $-1 $225 reversed $95 $-1 #
edge $-1 $226 0 $226 6.2831853071796004 $96 $227 forward 7 unknown #
vertex $-1 $99 $228 #
ellipse-curve $-1 -53.727917022730118 -5.8942569912965794 4.7559736999930209 -0.52991927123019833 0 0.84804809178421925 0.84804809178421925 0 0.52991927123019833 1 I I #
face $-1 $-1 $168 $15 $-1 $229 reversed single #
loop $-1 $-1 $230 $100 #
plane-surface $-1 0 30.146681948380063 0 0 -1 0 0 0 -1 forward_v I I I I #
coedge $-1 $174 $173 $231 $232 forward $101 $-1 #
coedge $-1 $103 $113 $233 $234 forward $63 $-1 #
coedge $-1 $167 $109 $103 $162 reversed $168 $-1 #
edge $-1 $235 -30.146681948380063 $114 30.146681948380063 $161 $236 forward 7 unknown #
coedge $-1 $105 $104 $173 $237 forward $41 $-1 #
coedge $-1 $230 $231 $104 $165 reversed $157 $-1 #
edge $-1 $170 -56.563005462813194 $238 56.563005462813194 $164 $239 forward 7 unknown #
edge $-1 $175 -56.563005462813194 $169 56.563005462813194 $108 $240 forward 7 unknown #
coedge $-1 $106 $161 $230 $241 reversed $168 $-1 #
loop $-1 $-1 $109 $156 #
vertex $-1 $107 $242 #
vertex $-1 $107 $243 #
straight-curve $-1 56.563005462813194 0 6.5275336086782962 0 1 0 I I #
straight-curve $-1 56.563005462813194 -30.146681948380063 0 0 0 -1 I I #
coedge $-1 $159 $111 $163 $237 reversed $101 $-1 #
coedge $-1 $111 $159 $113 $177 reversed $101 $-1 #
vertex $-1 $237 $244 #
straight-curve $-1 -56.563005462813194 -30.146681948380063 0 0 0 -1 I I #
edge $-1 $115 -30.146681948380063 $245 30.146681948380063 $174 $246 forward 7 unknown #
point $-1 56.563005462813194 -30.146681948380063 -6.5275336086782962 #
point $-1 -56.563005462813194 -30.146681948380063 -6.5275336086782962 #
face $-1 $-1 $197 $16 $-1 $247 forward single #
loop $-1 $-1 $248 $117 #
plane-surface $-1 -51.002518361106496 -32.531710891418484 0 -1 0 0 0 0 1 forward_v I I I I #
coedge $-1 $249 $120 $187 $250 reversed $71 $-1 #
coedge $-1 $120 $249 $251 $252 reversed $71 $-1 #
coedge $-1 $128 $127 $120 $186 reversed $118 $-1 #
edge $-1 $253 -6.5275336086782962 $254 6.5275336086782962 $185 $255 forward 7 unknown #
coedge $-1 $122 $121 $183 $250 forward $45 $-1 #
coedge $-1 $193 $248 $121 $189 reversed $181 $-1 #
edge $-1 $191 -2.3850289430384244 $256 2.3850289430384208 $188 $257 forward 7 unknown #
edge $-1 $254 -2.3850289430384208 $129 2.3850289430384244 $127 $258 forward 7 unknown #
vertex $-1 $189 $259 #
straight-curve $-1 0 -30.146681948380063 -6.5275336086782962 1 0 0 I I #
coedge $-1 $260 $188 $124 $194 reversed $181 $-1 #
edge $-1 $198 -6.5275336086782962 $191 6.5275336086782962 $193 $261 forward 7 unknown #
coedge $-1 $251 $125 $128 $200 forward $197 $-1 #
coedge $-1 $125 $251 $260 $262 forward $197 $-1 #
loop $-1 $-1 $125 $180 #
vertex $-1 $126 $263 #
straight-curve $-1 0 -30.146681948380063 6.5275336086782962 -1 0 0 I I #
edge $-1 $130 -2.3850289430384244 $253 2.3850289430384208 $128 $264 forward 7 unknown #
point $-1 -54.002518361106496 -30.14668194838006 -6.5275336086782962 #
point $-1 -54.002518361106496 -30.14668194838006 6.5275336086782962 #
plane-surface $-1 0 0 6.5275336086782962 0 0 1 1 0 0 forward_v I I I I #
coedge $-1 $214 $213 $206 $265 forward $133 $-1 #
coedge $-1 $206 $135 $137 $210 reversed $79 $-1 #
coedge $-1 $135 $205 $204 $265 reversed $79 $-1 #
coedge $-1 $143 $138 $135 $208 forward $144 $-1 #
edge $-1 $211 -7.3625007822032345 $266 -1.6923239020371028 $207 $267 forward 7 unknown #
coedge $-1 $137 $136 $214 $268 reversed $49 $-1 #
edge $-1 $269 8.3790584163743152e-015 $211 6.6861501548061746 $205 $270 forward 7 unknown #
vertex $-1 $139 $271 #
straight-curve $-1 -50.89282858264707 -4.0423998419756373 6.5275336086782954 0 1 0 I I #
coedge $-1 $204 $140 $143 $218 reversed $133 $-1 #
coedge $-1 $140 $204 $209 $268 forward $133 $-1 #
vertex $-1 $141 $272 #
straight-curve $-1 -56.563005462813194 -13.196065966812236 49.460355743972961 0 0 1 I I #
straight-curve $-1 -56.563005462813202 -13.196065966812236 2.9844137913077304 -0.84804809178421925 0 -0.52991927123019833 I I #
edge $-1 $266 2.9735334010903127 $145 13.196065966812236 $213 $273 forward 7 unknown #
point $-1 -56.563005462813194 -13.196065966812236 6.5275336086782962 #
point $-1 -50.892828582647063 -13.196065966812236 6.5275336086782962 #
edge $-1 $274 1 $274 0 $148 $-1 forward 7 unknown #
vertex $-1 $149 $275 #
ellipse-curve $-1 -52.377817208867398 -10.275342376605973 2.5953623898843503 -0.52991927123019833 0 0.84804809178421925 0.84804809178421925 0 0.52991927123019833 1 I I #
point $-1 -52.879868930945889 -10.275342376605973 5.2858929712232019 #
edge $-1 $276 1 $276 0 $152 $-1 forward 7 unknown #
vertex $-1 $153 $277 #
ellipse-curve $-1 -52.377817208867398 -5.8942569912965794 2.5953623898843503 -0.52991927123019833 0 0.84804809178421925 0.84804809178421925 0 0.52991927123019833 1 I I #
point $-1 -52.879868930945889 -5.8942569912965794 5.2858929712232019 #
plane-surface $-1 56.563005462813194 0 0 -1 0 0 0 0 1 forward_v I I I I #
coedge $-1 $233 $164 $167 $241 forward $157 $-1 #
coedge $-1 $164 $233 $159 $232 reversed $157 $-1 #
edge $-1 $238 -6.5275336086782962 $245 6.5275336086782962 $231 $278 forward 7 unknown #
coedge $-1 $231 $230 $160 $234 reversed $157 $-1 #
edge $-1 $245 -56.563005462813194 $235 56.563005462813194 $233 $279 forward 7 unknown #
vertex $-1 $162 $280 #
straight-curve $-1 56.563005462813194 0 -6.5275336086782962 0 -1 0 I I #
edge $-1 $238 -30.146681948380063 $175 30.146681948380063 $173 $281 forward 7 unknown #
vertex $-1 $165 $282 #
straight-curve $-1 0 30.146681948380063 6.5275336086782962 -1 0 0 I I #
straight-curve $-1 0 -30.146681948380063 6.5275336086782962 1 0 0 I I #
edge $-1 $170 -6.5275336086782962 $235 6.5275336086782962 $167 $283 forward 7 unknown #
point $-1 56.563005462813194 -30.146681948380063 6.5275336086782962 #
point $-1 56.563005462813194 30.146681948380063 6.5275336086782962 #
point $-1 -56.563005462813194 -30.146681948380063 6.5275336086782962 #
vertex $-1 $234 $284 #
straight-curve $-1 -56.563005462813194 0 -6.5275336086782962 0 1 0 I I #
plane-surface $-1 0 0 6.5275336086782962 0 0 1 1 0 0 forward_v I I I I #
coedge $-1 $188 $260 $249 $285 forward $181 $-1 #
coedge $-1 $184 $183 $248 $285 reversed $71 $-1 #
edge $-1 $256 -1.5 $254 1.5 $183 $286 forward 7 unknown #
coedge $-1 $196 $195 $184 $252 forward $197 $-1 #
edge $-1 $253 -1.5 $287 1.5 $184 $288 forward 7 unknown #
vertex $-1 $200 $289 #
vertex $-1 $190 $290 #
straight-curve $-1 -54.002518361106496 -34.916739834456905 0 0 0 -1 I I #
vertex $-1 $285 $291 #
straight-curve $-1 -51.002518361106496 -32.531710891418484 -6.5275336086782962 0 -1 0 I I #
straight-curve $-1 -54.002518361106496 -32.531710891418484 -6.5275336086782962 0 1 0 I I #
point $-1 -51.002518361106496 -30.14668194838006 -6.5275336086782962 #
coedge $-1 $248 $193 $196 $262 reversed $181 $-1 #
straight-curve $-1 -51.002518361106496 -30.146681948380063 0 0 0 -1 I I #
edge $-1 $287 -2.3850289430384208 $198 2.3850289430384244 $260 $292 forward 7 unknown #
point $-1 -51.002518361106496 -30.14668194838006 6.5275336086782962 #
straight-curve $-1 -54.002518361106496 -32.531710891418484 6.5275336086782962 0 -1 0 I I #
edge $-1 $266 42.932822135294664 $269 46.475941952665224 $204 $293 forward 7 unknown #
vertex $-1 $218 $294 #
straight-curve $-1 -58.255329364850297 -2.9735334010903127 6.5275336086782971 -1 0 0 I I #
edge $-1 $269 -1.0688664408853246 $215 9.1536661248365991 $214 $295 forward 7 unknown #
vertex $-1 $268 $296 #
straight-curve $-1 -56.563005462813202 -2.9735334010903127 2.9844137913077304 0.84804809178421925 0 0.52991927123019833 I I #
point $-1 -50.892828582647063 -2.9735334010903127 6.5275336086782962 #
point $-1 -56.563005462813194 -13.196065966812236 2.9844137913077349 #
straight-curve $-1 -56.563005462813194 0 6.5275336086782962 0 -1 0 I I #
vertex $-1 $221 $297 #
point $-1 -51.529769117083177 -10.275342376605973 3.1252816611145482 #
vertex $-1 $225 $298 #
point $-1 -51.529769117083177 -5.8942569912965794 3.1252816611145482 #
straight-curve $-1 -56.563005462813194 30.146681948380063 0 0 0 -1 I I #
straight-curve $-1 0 30.146681948380063 -6.5275336086782962 1 0 0 I I #
point $-1 56.563005462813194 30.146681948380063 -6.5275336086782962 #
straight-curve $-1 -56.563005462813194 0 6.5275336086782962 0 -1 0 I I #
point $-1 -56.563005462813194 30.146681948380063 6.5275336086782962 #
straight-curve $-1 56.563005462813194 30.146681948380063 0 0 0 -1 I I #
point $-1 -56.563005462813194 30.146681948380063 -6.5275336086782962 #
edge $-1 $287 -6.5275336086782962 $256 6.5275336086782962 $248 $299 forward 7 unknown #
straight-curve $-1 -52.502518361106496 -34.916739834456905 -6.5275336086782962 -1 0 0 I I #
vertex $-1 $262 $300 #
straight-curve $-1 -52.502518361106496 -34.916739834456905 6.5275336086782962 1 0 0 I I #
point $-1 -54.002518361106496 -34.916739834456905 6.5275336086782962 #
point $-1 -54.002518361106496 -34.916739834456905 -6.5275336086782962 #
point $-1 -51.002518361106496 -34.916739834456905 -6.5275336086782962 #
straight-curve $-1 -51.002518361106496 -32.531710891418484 6.5275336086782962 0 1 0 I I #
straight-curve $-1 -56.563005462813194 -2.9735334010903127 49.460355743972961 0 0 -1 I I #
point $-1 -56.563005462813194 -2.9735334010903127 6.5275336086782962 #
straight-curve $-1 -56.563005462813194 -4.0423998419756373 2.9844137913077335 0 -1 0 I I #
point $-1 -56.563005462813194 -2.9735334010903127 2.9844137913077349 #
point $-1 -51.8478979376372 -10.275342376605973 1.7473142981001308 #
point $-1 -51.8478979376372 -5.8942569912965794 1.7473142981001308 #
straight-curve $-1 -51.002518361106496 -34.916739834456905 0 0 0 -1 I I #
point $-1 -51.002518361106496 -34.916739834456905 6.5275336086782962 #
End-of-ACIS-data 