500 0 6 0           
7 Unknown 11 ACIS 5.0 NT 24 Thu Mar 25 20:42:45 1999 
-1 9.9999999999999995e-007 1e-010 
body $-1 $6 $-1 $7 #
body $-1 $8 $-1 $9 #
body $-1 $10 $-1 $11 #
body $-1 $12 $-1 $13 #
body $-1 $14 $-1 $15 #
body $-1 $16 $-1 $17 #
lump $-1 $-1 $18 $0 #
transform $-1 1 0 0 0 1 0 0 0 1 51.42979216895047 34.879717381930561 11.335615417956436 1 rotate no_reflect no_shear #
lump $-1 $-1 $19 $1 #
transform $-1 1 0 0 0 1 0 0 0 1 51.42979216895047 34.879717381930561 11.335615417956436 1 rotate no_reflect no_shear #
lump $-1 $-1 $20 $2 #
transform $-1 1 0 0 0 1 0 0 0 1 51.42979216895047 34.879717381930561 11.335615417956436 1 rotate no_reflect no_shear #
lump $-1 $-1 $21 $3 #
transform $-1 1 0 0 0 1 0 0 0 1 51.42979216895047 34.879717381930561 11.335615417956436 1 rotate no_reflect no_shear #
lump $-1 $-1 $22 $4 #
transform $-1 1 0 0 0 1 0 0 0 1 51.42979216895047 34.879717381930561 11.335615417956436 1 rotate no_reflect no_shear #
lump $-1 $-1 $23 $5 #
transform $-1 1 0 0 0 1 0 0 0 1 51.42979216895047 34.879717381930561 11.335615417956436 1 rotate no_reflect no_shear #
shell $-1 $-1 $-1 $24 $-1 $6 #
shell $-1 $-1 $-1 $25 $-1 $8 #
shell $-1 $-1 $-1 $26 $-1 $10 #
shell $-1 $-1 $-1 $27 $-1 $12 #
shell $-1 $-1 $-1 $28 $-1 $14 #
shell $-1 $-1 $-1 $29 $-1 $16 #
face $-1 $30 $31 $18 $-1 $32 forward single #
face $-1 $33 $34 $19 $-1 $35 forward single #
face $-1 $36 $37 $20 $-1 $38 reversed single #
face $-1 $39 $40 $21 $-1 $41 forward single #
face $-1 $42 $43 $22 $-1 $44 reversed single #
face $-1 $45 $46 $23 $-1 $47 forward single #
face $-1 $48 $49 $18 $-1 $50 reversed single #
loop $-1 $-1 $51 $24 #
plane-surface $-1 0 0 11.335615417956436 0 0 1 1 0 0 forward_v I I I I #
face $-1 $52 $53 $19 $-1 $54 reversed single #
loop $-1 $-1 $55 $25 #
plane-surface $-1 0 -30.67752064700047 -5.0225836629553733 0 0 1 1 0 0 forward_v I I I I #
face $-1 $56 $57 $20 $-1 $58 reversed single #
loop $-1 $-1 $59 $26 #
plane-surface $-1 -131.36670358548528 20.460762688342896 65.651254655224506 0 1 0 -0.77714596973225614 0 0.62932038083071107 forward_v I I I I #
face $-1 $60 $61 $21 $-1 $62 forward single #
loop $-1 $63 $64 $27 #
cone-surface $-1 -45.879928524344038 24.231812385112612 5.0485724390952385 0.77714596973225614 0 -0.62932038083071107 0.62932038083071107 0 0.77714596973225614 1 I I 0 1 1 forward I I I I #
face $-1 $65 $66 $22 $-1 $67 reversed single #
loop $-1 $-1 $68 $28 #
plane-surface $-1 66.635070797868821 28.002862081882327 145.5881660717593 0 -1 0 -0.77714596973225614 0 -0.62932038083071107 forward_v I I I I #
face $-1 $69 $70 $23 $-1 $71 forward single #
loop $-1 $72 $73 $29 #
cone-surface $-1 45.879928524344045 24.231812385112612 5.0485724390952349 -0.77714596973225614 0 -0.62932038083071107 0.62932038083071107 0 -0.77714596973225614 1 I I 0 1 1 forward I I I I #
face $-1 $74 $75 $18 $-1 $76 reversed single #
loop $-1 $-1 $77 $30 #
plane-surface $-1 0 0 -11.335615417956436 0 0 1 1 0 0 forward_v I I I I #
coedge $-1 $78 $79 $80 $81 forward $31 $-1 #
face $-1 $82 $83 $19 $-1 $84 reversed single #
loop $-1 $-1 $85 $33 #
plane-surface $-1 0 -26.47532391207038 -8.1790995404559048 0 -1 0 0 0 -1 forward_v I I I I #
coedge $-1 $86 $87 $88 $89 reversed $34 $-1 #
face $-1 $90 $91 $20 $-1 $92 reversed single #
loop $-1 $-1 $93 $36 #
plane-surface $-1 -51.42979216895047 24.231812385112612 0.91962186760804343 -0.77714596973225614 0 0.62932038083071107 0.62932038083071107 0 0.77714596973225614 forward_v I I I I #
coedge $-1 $94 $95 $96 $97 reversed $37 $-1 #
face $-1 $-1 $98 $21 $-1 $99 forward single #
loop $-1 $100 $101 $39 #
cone-surface $-1 -44.158844414948128 24.231812385112612 3.654866044992886 0.77714596973225614 0 -0.62932038083071107 0.31466019041535553 0 0.38857298486612807 1 I I -0.70710678118654746 0.70710678118654746 0.5 forward I I I I #
loop $-1 $-1 $102 $27 #
coedge $-1 $64 $64 $103 $104 reversed $40 $-1 #
face $-1 $105 $106 $22 $-1 $107 reversed single #
loop $-1 $-1 $108 $42 #
plane-surface $-1 -13.301840618665992 24.231812385112612 80.856533284142841 0.77714596973225614 0 0.62932038083071107 0.62932038083071107 0 -0.77714596973225614 forward_v I I I I #
coedge $-1 $109 $110 $111 $112 reversed $43 $-1 #
face $-1 $-1 $113 $23 $-1 $114 forward single #
loop $-1 $115 $116 $45 #
cone-surface $-1 44.158844414948135 24.231812385112612 3.6548660449928825 -0.77714596973225614 0 -0.62932038083071107 0.31466019041535553 0 -0.38857298486612807 1 I I -0.70710678118654746 0.70710678118654746 0.5 forward I I I I #
loop $-1 $-1 $117 $29 #
coedge $-1 $73 $73 $118 $119 reversed $46 $-1 #
face $-1 $120 $121 $18 $-1 $122 reversed single #
loop $-1 $-1 $123 $48 #
plane-surface $-1 0 -34.879717381930561 0 0 1 0 0 0 1 forward_v I I I I #
coedge $-1 $124 $125 $126 $127 forward $49 $-1 #
coedge $-1 $128 $51 $129 $130 forward $31 $-1 #
coedge $-1 $51 $128 $131 $132 forward $31 $-1 #
coedge $-1 $133 $134 $51 $81 reversed $135 $-1 #
edge $-1 $136 -34.879717381930561 $137 34.879717381930561 $80 $138 forward 7 unknown #
face $-1 $139 $140 $19 $-1 $141 reversed single #
loop $-1 $-1 $142 $52 #
plane-surface $-1 0 0 -11.335615417956436 0 0 1 1 0 0 forward_v I I I I #
coedge $-1 $143 $144 $145 $146 reversed $53 $-1 #
coedge $-1 $147 $55 $144 $148 forward $34 $-1 #
coedge $-1 $55 $147 $149 $150 reversed $34 $-1 #
coedge $-1 $151 $145 $55 $89 forward $140 $-1 #
edge $-1 $152 11.136563588570144 $153 19.540957058430326 $88 $154 forward 7 unknown #
face $-1 $155 $156 $20 $-1 $157 forward single #
loop $-1 $-1 $158 $56 #
plane-surface $-1 -131.36670358548528 28.002862081882327 65.651254655224506 0 -1 0 0.77714596973225614 0 -0.62932038083071107 forward_v I I I I #
coedge $-1 $159 $160 $161 $162 reversed $57 $-1 #
coedge $-1 $95 $59 $163 $164 reversed $37 $-1 #
coedge $-1 $59 $94 $159 $165 reversed $37 $-1 #
coedge $-1 $161 $166 $59 $97 forward $156 $-1 #
edge $-1 $167 14.253559623792171 $168 22.688264663945468 $96 $169 forward 7 unknown #
loop $-1 $-1 $103 $60 #
plane-surface $-1 -51.42979216895047 24.231812385112612 0.91962186760804343 -0.77714596973225614 0 0.62932038083071107 0.62932038083071107 0 0.77714596973225614 forward_v I I I I #
loop $-1 $-1 $170 $39 #
coedge $-1 $101 $101 $102 $171 reversed $61 $-1 #
coedge $-1 $102 $102 $101 $171 forward $63 $-1 #
coedge $-1 $103 $103 $64 $104 forward $98 $-1 #
edge $-1 $172 0 $172 6.2831853071796004 $103 $173 forward 7 unknown #
face $-1 $174 $175 $22 $-1 $176 reversed single #
loop $-1 $-1 $177 $65 #
plane-surface $-1 66.635070797868821 20.460762688342896 145.5881660717593 0 1 0 0.77714596973225614 0 0.62932038083071107 forward_v I I I I #
coedge $-1 $178 $179 $180 $181 reversed $66 $-1 #
coedge $-1 $110 $68 $182 $183 reversed $43 $-1 #
coedge $-1 $68 $109 $178 $184 reversed $43 $-1 #
coedge $-1 $180 $185 $68 $112 forward $186 $-1 #
edge $-1 $187 -18.11225677001606 $188 -9.6775517298627562 $111 $189 forward 7 unknown #
loop $-1 $-1 $118 $69 #
plane-surface $-1 -13.301840618665992 24.231812385112612 80.856533284142841 0.77714596973225614 0 0.62932038083071107 0.62932038083071107 0 -0.77714596973225614 forward_v I I I I #
loop $-1 $-1 $190 $45 #
coedge $-1 $116 $116 $117 $191 reversed $70 $-1 #
coedge $-1 $117 $117 $116 $191 forward $72 $-1 #
coedge $-1 $118 $118 $73 $119 forward $113 $-1 #
edge $-1 $192 0 $192 6.2831853071796004 $118 $193 forward 7 unknown #
face $-1 $194 $195 $18 $-1 $196 reversed single #
loop $-1 $-1 $197 $74 #
plane-surface $-1 -51.42979216895047 0 0 1 0 0 0 0 -1 forward_v I I I I #
coedge $-1 $198 $131 $199 $200 forward $75 $-1 #
coedge $-1 $201 $77 $198 $202 forward $49 $-1 #
coedge $-1 $77 $201 $203 $204 forward $49 $-1 #
coedge $-1 $134 $133 $77 $127 reversed $135 $-1 #
edge $-1 $205 -34.879717381930561 $206 34.879717381930561 $126 $207 forward 7 unknown #
coedge $-1 $79 $78 $208 $209 forward $31 $-1 #
coedge $-1 $210 $211 $78 $130 reversed $195 $-1 #
edge $-1 $137 -51.42979216895047 $212 51.42979216895047 $129 $213 forward 7 unknown #
coedge $-1 $123 $214 $79 $132 reversed $75 $-1 #
edge $-1 $215 -51.42979216895047 $136 51.42979216895047 $131 $216 forward 7 unknown #
coedge $-1 $126 $80 $214 $217 forward $135 $-1 #
coedge $-1 $80 $126 $210 $218 reversed $135 $-1 #
loop $-1 $-1 $133 $194 #
vertex $-1 $81 $219 #
vertex $-1 $81 $220 #
straight-curve $-1 51.42979216895047 0 11.335615417956436 0 1 0 I I #
face $-1 $221 $222 $19 $-1 $223 reversed single #
loop $-1 $-1 $145 $82 #
plane-surface $-1 51.42979216895047 0 0 -1 0 0 0 0 1 forward_v I I I I #
coedge $-1 $224 $225 $143 $226 forward $83 $-1 #
coedge $-1 $227 $85 $142 $226 reversed $53 $-1 #
coedge $-1 $85 $227 $86 $148 reversed $53 $-1 #
coedge $-1 $88 $228 $85 $146 forward $140 $-1 #
edge $-1 $229 -7.2460656477284839 $152 -0.93303389272742088 $145 $230 forward 7 unknown #
coedge $-1 $87 $86 $231 $232 reversed $34 $-1 #
edge $-1 $152 -51.42979216895047 $233 51.42979216895047 $144 $234 forward 7 unknown #
coedge $-1 $235 $236 $87 $150 forward $222 $-1 #
edge $-1 $153 -51.42979216895047 $237 51.42979216895047 $149 $238 forward 7 unknown #
coedge $-1 $228 $88 $236 $239 forward $140 $-1 #
vertex $-1 $89 $240 #
vertex $-1 $239 $241 #
straight-curve $-1 51.42979216895047 -15.338760323500235 -5.0225836629553733 0 -1 0 I I #
face $-1 $-1 $242 $20 $-1 $243 reversed single #
loop $-1 $-1 $96 $90 #
plane-surface $-1 0 0 11.335615417956436 0 0 1 1 0 0 forward_v I I I I #
coedge $-1 $244 $245 $246 $247 reversed $91 $-1 #
coedge $-1 $248 $93 $95 $165 forward $57 $-1 #
coedge $-1 $93 $248 $244 $249 forward $57 $-1 #
coedge $-1 $246 $96 $93 $162 forward $156 $-1 #
edge $-1 $168 8.3448564957865905 $250 15.886955889326021 $161 $251 forward 7 unknown #
coedge $-1 $252 $253 $94 $164 forward $242 $-1 #
edge $-1 $254 -31.906005460004209 $167 -21.490011909655816 $163 $255 forward 7 unknown #
edge $-1 $168 -13.402879196474418 $254 0 $95 $256 forward 7 unknown #
coedge $-1 $96 $246 $252 $257 forward $156 $-1 #
vertex $-1 $164 $258 #
vertex $-1 $97 $259 #
straight-curve $-1 -65.683351792742641 20.460762688342896 11.335615417956436 1 0 0 I I #
coedge $-1 $170 $170 $-1 $260 reversed $100 $-1 #
edge $-1 $261 0 $261 6.2831853071796004 $101 $262 forward 7 unknown #
vertex $-1 $104 $263 #
ellipse-curve $-1 -47.212439648873826 24.231812385112612 6.127618642782239 -0.77714596973225614 0 0.62932038083071107 0.62932038083071107 0 0.77714596973225614 1 I I #
face $-1 $-1 $186 $22 $-1 $264 forward single #
loop $-1 $-1 $265 $105 #
plane-surface $-1 51.42979216895047 0 0 -1 0 0 0 0 1 forward_v I I I I #
coedge $-1 $266 $267 $268 $269 reversed $106 $-1 #
coedge $-1 $270 $108 $110 $184 forward $66 $-1 #
coedge $-1 $108 $270 $266 $271 forward $66 $-1 #
coedge $-1 $268 $111 $108 $181 forward $186 $-1 #
edge $-1 $188 -15.886955889326021 $272 -8.3448564957865905 $180 $273 forward 7 unknown #
coedge $-1 $274 $275 $109 $183 forward $175 $-1 #
edge $-1 $276 -71.874461168271623 $187 -61.458467617923219 $182 $277 forward 7 unknown #
edge $-1 $188 89.456705141426511 $276 102.85958433790094 $110 $278 forward 7 unknown #
coedge $-1 $111 $268 $274 $279 forward $186 $-1 #
loop $-1 $-1 $268 $174 #
vertex $-1 $183 $280 #
vertex $-1 $112 $281 #
straight-curve $-1 33.31753539893441 28.002862081882327 11.335615417956433 -1 0 0 I I #
coedge $-1 $190 $190 $-1 $282 reversed $115 $-1 #
edge $-1 $283 0 $283 6.2831853071796004 $116 $284 forward 7 unknown #
vertex $-1 $119 $285 #
ellipse-curve $-1 47.212439648873818 24.231812385112612 6.1276186427822283 0.77714596973225614 0 0.62932038083071107 0.62932038083071107 0 -0.77714596973225614 1 I I #
face $-1 $-1 $135 $18 $-1 $286 reversed single #
loop $-1 $-1 $210 $120 #
plane-surface $-1 0 34.879717381930561 0 0 -1 0 0 0 -1 forward_v I I I I #
coedge $-1 $287 $208 $211 $288 forward $121 $-1 #
coedge $-1 $214 $123 $124 $202 reversed $75 $-1 #
coedge $-1 $208 $287 $123 $200 reversed $121 $-1 #
edge $-1 $215 -11.335615417956436 $289 11.335615417956436 $199 $290 forward 7 unknown #
coedge $-1 $125 $124 $287 $291 forward $49 $-1 #
edge $-1 $206 -51.42979216895047 $289 51.42979216895047 $198 $292 forward 7 unknown #
coedge $-1 $211 $210 $125 $204 reversed $195 $-1 #
edge $-1 $293 -51.42979216895047 $205 51.42979216895047 $203 $294 forward 7 unknown #
vertex $-1 $127 $295 #
vertex $-1 $217 $296 #
straight-curve $-1 51.42979216895047 0 -11.335615417956436 0 -1 0 I I #
coedge $-1 $197 $199 $128 $209 reversed $121 $-1 #
edge $-1 $212 -34.879717381930561 $215 34.879717381930561 $208 $297 forward 7 unknown #
coedge $-1 $203 $129 $134 $218 forward $195 $-1 #
coedge $-1 $129 $203 $197 $288 reversed $195 $-1 #
vertex $-1 $130 $298 #
straight-curve $-1 0 34.879717381930561 11.335615417956436 -1 0 0 I I #
coedge $-1 $131 $198 $133 $217 reversed $75 $-1 #
vertex $-1 $209 $299 #
straight-curve $-1 0 -34.879717381930561 11.335615417956436 1 0 0 I I #
edge $-1 $136 -11.335615417956436 $206 11.335615417956436 $133 $300 forward 7 unknown #
edge $-1 $137 -11.335615417956436 $205 11.335615417956436 $134 $301 forward 7 unknown #
point $-1 51.42979216895047 -34.879717381930561 11.335615417956436 #
point $-1 51.42979216895047 34.879717381930561 11.335615417956436 #
face $-1 $-1 $302 $19 $-1 $303 reversed single #
loop $-1 $-1 $149 $139 #
plane-surface $-1 0 -34.879717381930561 0 0 1 0 0 0 1 forward_v I I I I #
coedge $-1 $304 $142 $228 $305 forward $83 $-1 #
coedge $-1 $142 $304 $306 $307 forward $83 $-1 #
edge $-1 $308 -51.42979216895047 $229 51.42979216895047 $142 $309 forward 7 unknown #
coedge $-1 $144 $143 $310 $311 reversed $53 $-1 #
coedge $-1 $145 $151 $224 $305 reversed $140 $-1 #
vertex $-1 $305 $312 #
straight-curve $-1 51.42979216895047 -26.47532391207038 -4.0895497702279524 0 0 1 I I #
coedge $-1 $310 $313 $147 $232 forward $302 $-1 #
edge $-1 $237 -19.540957058430326 $233 -11.136563588570144 $231 $314 forward 7 unknown #
vertex $-1 $232 $315 #
straight-curve $-1 0 -26.47532391207038 -5.0225836629553733 -1 0 0 I I #
coedge $-1 $316 $149 $313 $317 forward $222 $-1 #
coedge $-1 $149 $316 $151 $239 reversed $222 $-1 #
vertex $-1 $317 $318 #
straight-curve $-1 0 -34.879717381930561 -5.0225836629553733 -1 0 0 I I #
edge $-1 $153 5.0225836629553733 $319 11.335615417956436 $151 $320 forward 7 unknown #
point $-1 51.42979216895047 -26.47532391207038 -5.0225836629553733 #
point $-1 51.42979216895047 -34.879717381930561 -5.0225836629553733 #
loop $-1 $-1 $163 $155 #
plane-surface $-1 -51.42979216895047 0 0 1 0 0 0 0 -1 forward_v I I I I #
coedge $-1 $245 $158 $160 $249 reversed $91 $-1 #
coedge $-1 $158 $244 $321 $322 reversed $91 $-1 #
coedge $-1 $166 $161 $158 $247 forward $156 $-1 #
edge $-1 $250 -22.688264663945468 $323 -14.253559623792171 $246 $324 forward 7 unknown #
coedge $-1 $160 $159 $253 $325 reversed $57 $-1 #
edge $-1 $326 0 $250 13.402879196474418 $244 $327 forward 7 unknown #
vertex $-1 $162 $328 #
straight-curve $-1 -42.995087128797174 12.115906192556306 11.335615417956436 0 1 0 I I #
coedge $-1 $321 $163 $166 $257 reversed $242 $-1 #
coedge $-1 $163 $321 $248 $325 forward $242 $-1 #
vertex $-1 $164 $329 #
straight-curve $-1 -51.42979216895047 20.460762688342896 32.825627327612253 0 0 1 I I #
straight-curve $-1 -51.42979216895047 20.460762688342896 0.91962186760804343 -0.62932038083071107 0 -0.77714596973225614 I I #
edge $-1 $323 -28.002862081882327 $167 -20.460762688342896 $252 $330 forward 7 unknown #
point $-1 -51.42979216895047 20.460762688342896 11.335615417956436 #
point $-1 -42.995087128797174 20.460762688342896 11.335615417956436 #
edge $-1 $331 1 $331 0 $170 $-1 forward 7 unknown #
vertex $-1 $171 $332 #
ellipse-curve $-1 -44.547417399814258 24.231812385112612 3.9695262354082415 -0.77714596973225614 0 0.62932038083071107 0.62932038083071107 0 0.77714596973225614 1 I I #
point $-1 -46.583119268043106 24.231812385112612 6.9047646125144926 #
plane-surface $-1 0 0 11.335615417956436 0 0 1 1 0 0 forward_v I I I I #
coedge $-1 $275 $274 $267 $333 forward $175 $-1 #
coedge $-1 $267 $177 $179 $271 reversed $106 $-1 #
coedge $-1 $177 $266 $265 $333 reversed $106 $-1 #
coedge $-1 $185 $180 $177 $269 forward $186 $-1 #
edge $-1 $272 9.6775517298627562 $334 18.11225677001606 $268 $335 forward 7 unknown #
coedge $-1 $179 $178 $275 $336 reversed $66 $-1 #
edge $-1 $337 -102.85958433790094 $272 -89.456705141426511 $266 $338 forward 7 unknown #
vertex $-1 $181 $339 #
straight-curve $-1 42.995087128797167 12.115906192556306 11.33561541795644 0 -1 0 I I #
coedge $-1 $265 $182 $185 $279 reversed $175 $-1 #
coedge $-1 $182 $265 $270 $336 forward $175 $-1 #
vertex $-1 $183 $340 #
straight-curve $-1 51.42979216895047 28.002862081882327 72.794083035879652 0 0 1 I I #
straight-curve $-1 -13.301840618665992 28.002862081882327 80.856533284142841 0.62932038083071107 0 -0.77714596973225614 I I #
edge $-1 $334 20.460762688342896 $187 28.002862081882327 $274 $341 forward 7 unknown #
point $-1 51.42979216895047 28.002862081882327 11.335615417956436 #
point $-1 42.995087128797167 28.002862081882327 11.335615417956433 #
edge $-1 $342 1 $342 0 $190 $-1 forward 7 unknown #
vertex $-1 $191 $343 #
ellipse-curve $-1 44.547417399814265 24.231812385112612 3.9695262354082379 0.77714596973225614 0 0.62932038083071107 0.62932038083071107 0 -0.77714596973225614 1 I I #
point $-1 47.841760029704538 24.231812385112612 5.3504726730499765 #
plane-surface $-1 51.42979216895047 0 0 -1 0 0 0 0 1 forward_v I I I I #
coedge $-1 $199 $197 $201 $291 reversed $121 $-1 #
edge $-1 $212 -11.335615417956436 $293 11.335615417956436 $211 $344 forward 7 unknown #
vertex $-1 $291 $345 #
straight-curve $-1 -51.42979216895047 -34.879717381930561 0 0 0 -1 I I #
edge $-1 $289 -34.879717381930561 $293 34.879717381930561 $287 $346 forward 7 unknown #
straight-curve $-1 0 -34.879717381930561 -11.335615417956436 -1 0 0 I I #
vertex $-1 $204 $347 #
straight-curve $-1 0 34.879717381930561 -11.335615417956436 1 0 0 I I #
point $-1 51.42979216895047 34.879717381930561 -11.335615417956436 #
point $-1 51.42979216895047 -34.879717381930561 -11.335615417956436 #
straight-curve $-1 -51.42979216895047 0 11.335615417956436 0 -1 0 I I #
point $-1 -51.42979216895047 34.879717381930561 11.335615417956436 #
point $-1 -51.42979216895047 -34.879717381930561 11.335615417956436 #
straight-curve $-1 51.42979216895047 -34.879717381930561 0 0 0 -1 I I #
straight-curve $-1 51.42979216895047 34.879717381930561 0 0 0 -1 I I #
loop $-1 $-1 $310 $221 #
plane-surface $-1 -51.42979216895047 0 0 1 0 0 0 0 -1 forward_v I I I I #
coedge $-1 $225 $224 $316 $348 forward $83 $-1 #
edge $-1 $229 26.47532391207038 $319 34.879717381930561 $228 $349 forward 7 unknown #
coedge $-1 $313 $310 $225 $307 reversed $302 $-1 #
edge $-1 $350 -34.879717381930561 $308 -26.47532391207038 $306 $351 forward 7 unknown #
vertex $-1 $311 $352 #
straight-curve $-1 0 -26.47532391207038 -11.335615417956436 1 0 0 I I #
coedge $-1 $306 $231 $227 $311 forward $302 $-1 #
edge $-1 $233 0.93303389272742088 $308 7.2460656477284839 $310 $353 forward 7 unknown #
point $-1 51.42979216895047 -26.47532391207038 -11.335615417956436 #
coedge $-1 $231 $306 $235 $317 reversed $302 $-1 #
straight-curve $-1 -51.42979216895047 -15.338760323500235 -5.0225836629553733 0 1 0 I I #
point $-1 -51.42979216895047 -26.47532391207038 -5.0225836629553733 #
coedge $-1 $236 $235 $304 $348 reversed $222 $-1 #
edge $-1 $237 5.0225836629553733 $350 11.335615417956436 $313 $354 forward 7 unknown #
point $-1 -51.42979216895047 -34.879717381930561 -5.0225836629553733 #
vertex $-1 $239 $355 #
straight-curve $-1 51.42979216895047 -34.879717381930561 0 0 0 -1 I I #
coedge $-1 $253 $252 $245 $322 forward $242 $-1 #
edge $-1 $323 21.490011909655816 $326 31.906005460004209 $321 $356 forward 7 unknown #
vertex $-1 $257 $357 #
straight-curve $-1 -65.683351792742641 28.002862081882327 11.335615417956436 -1 0 0 I I #
edge $-1 $326 -15.886955889326021 $254 -8.3448564957865905 $253 $358 forward 7 unknown #
vertex $-1 $325 $359 #
straight-curve $-1 -51.42979216895047 28.002862081882327 0.91962186760804343 0.62932038083071107 0 0.77714596973225614 I I #
point $-1 -42.995087128797174 28.002862081882327 11.335615417956436 #
point $-1 -51.42979216895047 20.460762688342896 0.91962186760804343 #
straight-curve $-1 -51.42979216895047 0 11.335615417956436 0 -1 0 I I #
vertex $-1 $260 $360 #
point $-1 -43.918097018983545 24.231812385112612 4.7466722051404977 #
edge $-1 $334 61.458467617923219 $337 71.874461168271623 $265 $361 forward 7 unknown #
vertex $-1 $279 $362 #
straight-curve $-1 33.31753539893441 20.460762688342896 11.335615417956433 1 0 0 I I #
edge $-1 $337 8.3448564957865905 $276 15.886955889326021 $275 $363 forward 7 unknown #
vertex $-1 $336 $364 #
straight-curve $-1 -13.301840618665992 20.460762688342896 80.856533284142841 -0.62932038083071107 0 0.77714596973225614 I I #
point $-1 42.995087128797167 20.460762688342896 11.335615417956433 #
point $-1 51.42979216895047 28.002862081882327 0.91962186760802922 #
straight-curve $-1 51.42979216895047 0 11.335615417956436 0 1 0 I I #
vertex $-1 $282 $365 #
point $-1 45.176737780644977 24.231812385112612 3.1923802656759817 #
straight-curve $-1 -51.42979216895047 34.879717381930561 0 0 0 -1 I I #
point $-1 -51.42979216895047 -34.879717381930561 -11.335615417956436 #
straight-curve $-1 -51.42979216895047 0 -11.335615417956436 0 1 0 I I #
point $-1 -51.42979216895047 34.879717381930561 -11.335615417956436 #
edge $-1 $319 -51.42979216895047 $350 51.42979216895047 $316 $366 forward 7 unknown #
straight-curve $-1 51.42979216895047 0 -11.335615417956436 0 -1 0 I I #
vertex $-1 $307 $367 #
straight-curve $-1 -51.42979216895047 0 -11.335615417956436 0 1 0 I I #
point $-1 -51.42979216895047 -26.47532391207038 -11.335615417956436 #
straight-curve $-1 -51.42979216895047 -26.47532391207038 -4.0895497702279524 0 0 -1 I I #
straight-curve $-1 -51.42979216895047 -34.879717381930561 0 0 0 -1 I I #
point $-1 51.42979216895047 -34.879717381930561 -11.335615417956436 #
straight-curve $-1 -51.42979216895047 28.002862081882327 32.825627327612253 0 0 -1 I I #
point $-1 -51.42979216895047 28.002862081882327 11.335615417956436 #
straight-curve $-1 -51.42979216895047 12.115906192556306 0.91962186760804354 0 -1 0 I I #
point $-1 -51.42979216895047 28.002862081882327 0.91962186760804343 #
point $-1 -43.770271430081998 24.231812385112612 3.3402058545775306 #
straight-curve $-1 51.42979216895047 20.460762688342896 72.794083035879652 0 0 -1 I I #
point $-1 51.42979216895047 20.460762688342896 11.335615417956436 #
straight-curve $-1 51.42979216895047 12.115906192556306 0.91962186760803633 0 1 0 I I #
point $-1 51.42979216895047 20.460762688342896 0.91962186760802922 #
point $-1 43.770271430082005 24.231812385112612 3.3402058545775271 #
straight-curve $-1 0 -34.879717381930561 -11.335615417956436 -1 0 0 I I #
point $-1 -51.42979216895047 -34.879717381930561 -11.335615417956436 #
End-of-ACIS-data 