500 0 7 0           
7 Unknown 11 ACIS 5.0 NT 24 Fri Mar 26 17:49:53 1999 
-1 9.9999999999999995e-007 1e-010 
body $-1 $7 $-1 $8 #
body $-1 $9 $-1 $10 #
body $-1 $11 $-1 $12 #
body $-1 $13 $-1 $14 #
body $-1 $15 $-1 $16 #
body $-1 $17 $-1 $18 #
body $-1 $19 $-1 $20 #
lump $-1 $-1 $21 $0 #
transform $-1 1 0 0 0 1 0 0 0 1 74.166081728568372 47.386438204187627 17.987670390067038 1 rotate no_reflect no_shear #
lump $-1 $-1 $22 $1 #
transform $-1 1 0 0 0 1 0 0 0 1 74.166081728568372 47.386438204187627 17.987670390067038 1 rotate no_reflect no_shear #
lump $-1 $-1 $23 $2 #
transform $-1 1 0 0 0 1 0 0 0 1 74.166081728568372 47.386438204187627 17.987670390067038 1 rotate no_reflect no_shear #
lump $-1 $-1 $24 $3 #
transform $-1 1 0 0 0 1 0 0 0 1 74.166081728568372 47.386438204187627 17.987670390067038 1 rotate no_reflect no_shear #
lump $-1 $-1 $25 $4 #
transform $-1 1 0 0 0 1 0 0 0 1 74.166081728568372 47.386438204187627 17.987670390067038 1 rotate no_reflect no_shear #
lump $-1 $-1 $26 $5 #
transform $-1 1 0 0 0 1 0 0 0 1 74.166081728568372 47.386438204187627 17.987670390067038 1 rotate no_reflect no_shear #
lump $-1 $-1 $27 $6 #
transform $-1 1 0 0 0 1 0 0 0 1 74.166081728568372 47.386438204187627 17.987670390067038 1 rotate no_reflect no_shear #
shell $-1 $-1 $-1 $28 $-1 $7 #
shell $-1 $-1 $-1 $29 $-1 $9 #
shell $-1 $-1 $-1 $30 $-1 $11 #
shell $-1 $-1 $-1 $31 $-1 $13 #
shell $-1 $-1 $-1 $32 $-1 $15 #
shell $-1 $-1 $-1 $33 $-1 $17 #
shell $-1 $-1 $-1 $34 $-1 $19 #
face $-1 $35 $36 $21 $-1 $37 forward single #
face $-1 $38 $39 $22 $-1 $40 reversed single #
face $-1 $41 $42 $23 $-1 $43 reversed single #
face $-1 $44 $45 $24 $-1 $46 forward single #
face $-1 $47 $48 $25 $-1 $49 reversed single #
face $-1 $50 $51 $26 $-1 $52 forward single #
face $-1 $53 $54 $27 $-1 $55 forward single #
face $-1 $56 $57 $21 $-1 $58 reversed single #
loop $-1 $-1 $59 $28 #
plane-surface $-1 0 0 17.987670390067038 0 0 1 1 0 0 forward_v I I I I #
face $-1 $60 $61 $22 $-1 $62 reversed single #
loop $-1 $-1 $63 $29 #
plane-surface $-1 -50.386395151303134 -38.789690974993363 0 1 0 0 0 0 -1 forward_v I I I I #
face $-1 $64 $65 $23 $-1 $66 reversed single #
loop $-1 $-1 $67 $30 #
plane-surface $-1 -167.51453799984245 -5.3021473148796758 125.61758561441361 0 1 0 -0.62932039886446345 0 0.77714595512881146 forward_v I I I I #
face $-1 $68 $69 $24 $-1 $70 forward single #
loop $-1 $71 $72 $31 #
cone-surface $-1 -68.60484181770984 -1.055962355676705 13.127029251218147 0.62932039886446345 0 -0.77714595512881146 0.77714595512881146 0 0.62932039886446345 1 I I 0 1 1 forward I I I I #
face $-1 $73 $74 $25 $-1 $75 reversed single #
loop $-1 $-1 $76 $32 #
plane-surface $-1 124.91485306855114 -20.780995228517014 217.76554401619626 0 -1 0 -0.85716730853699208 0 -0.51503806187062418 forward_v I I I I #
face $-1 $77 $78 $26 $-1 $79 forward single #
loop $-1 $80 $81 $33 #
cone-surface $-1 72.401329258657299 -27.503815598004223 15.724663642714191 -0.85716730853699208 0 -0.51503806187062418 0.25751903093531209 0 -0.42858365426849604 1 I I 0 1 0.5 forward I I I I #
face $-1 $82 $83 $27 $-1 $84 forward single #
loop $-1 $85 $86 $34 #
cone-surface $-1 72.401329258657299 -23.4701233763119 15.724663642714191 -0.85716730853699208 0 -0.51503806187062418 0.25751903093531209 0 -0.42858365426849604 1 I I 0 1 0.5 forward I I I I #
face $-1 $87 $88 $21 $-1 $89 reversed single #
loop $-1 $-1 $90 $35 #
plane-surface $-1 0 0 -17.987670390067038 0 0 1 1 0 0 forward_v I I I I #
coedge $-1 $91 $92 $93 $94 forward $36 $-1 #
face $-1 $95 $96 $22 $-1 $97 reversed single #
loop $-1 $-1 $98 $38 #
plane-surface $-1 -47.925366521104777 -30.192943745799102 0 0 -1 0 0 0 -1 forward_v I I I I #
coedge $-1 $99 $100 $101 $102 forward $39 $-1 #
face $-1 $103 $104 $23 $-1 $105 reversed single #
loop $-1 $-1 $106 $41 #
plane-surface $-1 -74.166081728568358 -1.055962355676705 10.341844768194093 -0.62932039886446345 0 0.77714595512881146 0.77714595512881146 0 0.62932039886446345 forward_v I I I I #
coedge $-1 $107 $108 $109 $110 reversed $42 $-1 #
face $-1 $-1 $111 $24 $-1 $112 forward single #
loop $-1 $113 $114 $44 #
cone-surface $-1 -67.449845770262357 -1.055962355676705 11.700727945741331 0.62932039886446345 0 -0.77714595512881146 0.38857297756440573 0 0.31466019943223172 1 I I -0.70710678118654746 0.70710678118654746 0.5 forward I I I I #
loop $-1 $-1 $115 $31 #
coedge $-1 $72 $72 $116 $117 reversed $45 $-1 #
face $-1 $118 $119 $25 $-1 $120 reversed single #
loop $-1 $-1 $121 $47 #
plane-surface $-1 -2.2306282514719271 -25.48696948715806 141.36883403615593 0.85716730853699208 0 0.51503806187062418 0.51503806187062418 0 -0.85716730853699208 forward_v I I I I #
coedge $-1 $122 $123 $124 $125 reversed $48 $-1 #
face $-1 $-1 $126 $26 $-1 $127 forward single #
loop $-1 $128 $129 $50 #
cone-surface $-1 71.553200046531316 -27.503815598004223 15.215056216860788 -0.85716730853699208 0 -0.51503806187062418 0.12875951546765604 0 -0.21429182713424802 1 I I -0.70710678118654746 0.70710678118654746 0.25 forward I I I I #
loop $-1 $-1 $130 $33 #
coedge $-1 $81 $81 $131 $132 reversed $51 $-1 #
face $-1 $-1 $133 $27 $-1 $134 forward single #
loop $-1 $135 $136 $53 #
cone-surface $-1 71.553200046531316 -23.4701233763119 15.215056216860788 -0.85716730853699208 0 -0.51503806187062418 0.12875951546765604 0 -0.21429182713424802 1 I I -0.70710678118654746 0.70710678118654746 0.25 forward I I I I #
loop $-1 $-1 $137 $34 #
coedge $-1 $86 $86 $138 $139 reversed $54 $-1 #
face $-1 $140 $141 $21 $-1 $142 reversed single #
loop $-1 $-1 $143 $56 #
plane-surface $-1 0 -47.386438204187627 0 0 1 0 0 0 1 forward_v I I I I #
coedge $-1 $144 $145 $146 $147 forward $57 $-1 #
coedge $-1 $148 $59 $149 $150 forward $36 $-1 #
coedge $-1 $59 $148 $151 $152 forward $36 $-1 #
coedge $-1 $153 $154 $59 $94 reversed $155 $-1 #
edge $-1 $156 -47.386438204187627 $157 47.386438204187627 $93 $158 forward 7 unknown #
face $-1 $159 $160 $22 $-1 $161 forward single #
loop $-1 $-1 $162 $60 #
plane-surface $-1 -45.464337890906421 -38.789690974993363 0 -1 0 0 0 0 1 forward_v I I I I #
coedge $-1 $163 $164 $165 $166 forward $61 $-1 #
coedge $-1 $167 $63 $168 $169 reversed $39 $-1 #
coedge $-1 $63 $167 $170 $171 reversed $39 $-1 #
coedge $-1 $164 $163 $63 $102 reversed $61 $-1 #
edge $-1 $172 -17.987670390067038 $173 17.987670390067038 $101 $174 forward 7 unknown #
face $-1 $175 $176 $23 $-1 $177 reversed single #
loop $-1 $-1 $178 $64 #
plane-surface $-1 -167.51453799984245 3.1902226035262657 125.61758561441361 0 -1 0 0.62932039886446345 0 -0.77714595512881146 forward_v I I I I #
coedge $-1 $179 $180 $181 $182 reversed $65 $-1 #
coedge $-1 $108 $67 $183 $184 reversed $42 $-1 #
coedge $-1 $67 $107 $179 $185 reversed $42 $-1 #
coedge $-1 $181 $186 $67 $110 forward $187 $-1 #
edge $-1 $188 9.591187271352851 $189 19.032995397039414 $109 $190 forward 7 unknown #
loop $-1 $-1 $116 $68 #
plane-surface $-1 -74.166081728568358 -1.055962355676705 10.341844768194093 -0.62932039886446345 0 0.77714595512881146 0.77714595512881146 0 0.62932039886446345 forward_v I I I I #
loop $-1 $-1 $191 $44 #
coedge $-1 $114 $114 $115 $192 reversed $69 $-1 #
coedge $-1 $115 $115 $114 $192 forward $71 $-1 #
coedge $-1 $116 $116 $72 $117 forward $111 $-1 #
edge $-1 $193 0 $193 6.2831853071796004 $116 $194 forward 7 unknown #
face $-1 $195 $196 $25 $-1 $197 forward single #
loop $-1 $-1 $198 $73 #
plane-surface $-1 124.91485306855114 -30.192943745799106 217.76554401619626 0 1 0 0.85716730853699208 0 0.51503806187062418 forward_v I I I I #
coedge $-1 $199 $200 $201 $202 reversed $74 $-1 #
coedge $-1 $123 $76 $203 $204 reversed $48 $-1 #
coedge $-1 $76 $122 $199 $205 reversed $48 $-1 #
coedge $-1 $201 $206 $76 $125 forward $196 $-1 #
edge $-1 $207 -11.708655194292803 $208 -9.4468250244541565 $124 $209 forward 7 unknown #
loop $-1 $-1 $131 $77 #
plane-surface $-1 -2.2306282514719271 -25.48696948715806 141.36883403615593 0.85716730853699208 0 0.51503806187062418 0.51503806187062418 0 -0.85716730853699208 forward_v I I I I #
loop $-1 $-1 $210 $50 #
coedge $-1 $129 $129 $130 $211 reversed $78 $-1 #
coedge $-1 $130 $130 $129 $211 forward $80 $-1 #
coedge $-1 $131 $131 $81 $132 forward $126 $-1 #
edge $-1 $212 0 $212 6.2831853071796004 $131 $213 forward 7 unknown #
loop $-1 $-1 $138 $82 #
plane-surface $-1 -2.2306282514719271 -25.48696948715806 141.36883403615593 0.85716730853699208 0 0.51503806187062418 0.51503806187062418 0 -0.85716730853699208 forward_v I I I I #
loop $-1 $-1 $214 $53 #
coedge $-1 $136 $136 $137 $215 reversed $83 $-1 #
coedge $-1 $137 $137 $136 $215 forward $85 $-1 #
coedge $-1 $138 $138 $86 $139 forward $133 $-1 #
edge $-1 $216 0 $216 6.2831853071796004 $138 $217 forward 7 unknown #
face $-1 $218 $219 $21 $-1 $220 reversed single #
loop $-1 $-1 $221 $87 #
plane-surface $-1 -74.166081728568372 0 0 1 0 0 0 0 -1 forward_v I I I I #
coedge $-1 $222 $151 $223 $224 forward $88 $-1 #
coedge $-1 $225 $90 $222 $226 forward $57 $-1 #
coedge $-1 $90 $225 $227 $228 forward $57 $-1 #
coedge $-1 $154 $153 $90 $147 reversed $155 $-1 #
edge $-1 $229 -47.386438204187627 $230 47.386438204187627 $146 $231 forward 7 unknown #
coedge $-1 $92 $91 $232 $233 forward $36 $-1 #
coedge $-1 $234 $235 $91 $150 reversed $219 $-1 #
edge $-1 $157 -74.166081728568372 $236 74.166081728568372 $149 $237 forward 7 unknown #
coedge $-1 $143 $238 $92 $152 reversed $88 $-1 #
edge $-1 $239 -74.166081728568372 $156 74.166081728568372 $151 $240 forward 7 unknown #
coedge $-1 $146 $93 $238 $241 forward $155 $-1 #
coedge $-1 $93 $146 $234 $242 reversed $155 $-1 #
loop $-1 $-1 $153 $218 #
vertex $-1 $94 $243 #
vertex $-1 $94 $244 #
straight-curve $-1 74.166081728568372 0 17.987670390067038 0 1 0 I I #
face $-1 $245 $246 $22 $-1 $247 reversed single #
loop $-1 $-1 $248 $95 #
plane-surface $-1 0 0 17.987670390067038 0 0 1 1 0 0 forward_v I I I I #
coedge $-1 $249 $250 $251 $252 reversed $96 $-1 #
coedge $-1 $101 $98 $253 $254 reversed $61 $-1 #
coedge $-1 $98 $101 $255 $256 reversed $61 $-1 #
coedge $-1 $250 $249 $98 $166 reversed $96 $-1 #
edge $-1 $257 -17.987670390067038 $258 17.987670390067038 $165 $259 forward 7 unknown #
coedge $-1 $100 $99 $260 $261 reversed $39 $-1 #
coedge $-1 $253 $262 $99 $169 forward $246 $-1 #
edge $-1 $263 -27.991592716690946 $173 -10.798098258302421 $168 $264 forward 7 unknown #
coedge $-1 $265 $255 $100 $171 forward $160 $-1 #
edge $-1 $172 10.798098258302421 $266 27.991592716690946 $170 $267 forward 7 unknown #
vertex $-1 $171 $268 #
vertex $-1 $169 $269 #
straight-curve $-1 -50.386395151303134 -30.192943745799102 0 0 0 -1 I I #
face $-1 $-1 $187 $23 $-1 $270 forward single #
loop $-1 $-1 $271 $103 #
plane-surface $-1 -74.166081728568372 0 0 1 0 0 0 0 -1 forward_v I I I I #
coedge $-1 $272 $273 $274 $275 reversed $104 $-1 #
coedge $-1 $276 $106 $108 $185 forward $65 $-1 #
coedge $-1 $106 $276 $272 $277 forward $65 $-1 #
coedge $-1 $274 $109 $106 $182 forward $187 $-1 #
edge $-1 $189 -4.7741661370413233 $278 3.7182037813646183 $181 $279 forward 7 unknown #
coedge $-1 $280 $281 $107 $184 forward $176 $-1 #
edge $-1 $282 -52.466948039012721 $188 -44.821122417139769 $183 $283 forward 7 unknown #
edge $-1 $189 -12.149337023984863 $282 1.7751293829024333e-014 $108 $284 forward 7 unknown #
coedge $-1 $109 $274 $280 $285 forward $187 $-1 #
loop $-1 $-1 $274 $175 #
vertex $-1 $184 $286 #
vertex $-1 $110 $287 #
straight-curve $-1 -83.757268999921223 -5.3021473148796758 17.987670390067038 1 0 0 I I #
coedge $-1 $191 $191 $-1 $288 reversed $113 $-1 #
edge $-1 $289 0 $289 6.2831853071796004 $114 $290 forward 7 unknown #
vertex $-1 $117 $291 #
ellipse-curve $-1 -69.445177665725097 -1.055962355676705 14.16475757913056 -0.62932039886446345 0 0.77714595512881146 0.77714595512881146 0 0.62932039886446345 1 I I #
face $-1 $-1 $292 $25 $-1 $293 reversed single #
loop $-1 $-1 $124 $118 #
plane-surface $-1 0 0 17.987670390067038 0 0 1 1 0 0 forward_v I I I I #
coedge $-1 $294 $295 $296 $297 reversed $119 $-1 #
coedge $-1 $298 $121 $123 $205 forward $74 $-1 #
coedge $-1 $121 $298 $294 $299 forward $74 $-1 #
coedge $-1 $296 $124 $121 $202 forward $196 $-1 #
edge $-1 $208 8.0375104849379841 $300 17.449459002220074 $201 $301 forward 7 unknown #
coedge $-1 $302 $303 $122 $204 forward $292 $-1 #
edge $-1 $304 -94.659419291965222 $207 -90.895101618031092 $203 $305 forward 7 unknown #
edge $-1 $208 143.94058478113817 $304 148.33216345713672 $123 $306 forward 7 unknown #
coedge $-1 $124 $296 $302 $307 forward $196 $-1 #
vertex $-1 $204 $308 #
vertex $-1 $125 $309 #
straight-curve $-1 62.457426534275569 -20.780995228517014 17.987670390067038 -1 0 0 I I #
coedge $-1 $210 $210 $-1 $310 reversed $128 $-1 #
edge $-1 $311 0 $311 6.2831853071796004 $129 $312 forward 7 unknown #
vertex $-1 $132 $313 #
ellipse-curve $-1 73.035166643649063 -27.503815598004223 16.105511553099955 0.85716730853699208 0 0.51503806187062418 0.25751903093531209 0 -0.42858365426849604 1 I I #
coedge $-1 $214 $214 $-1 $314 reversed $135 $-1 #
edge $-1 $315 0 $315 6.2831853071796004 $136 $316 forward 7 unknown #
vertex $-1 $139 $317 #
ellipse-curve $-1 73.035166643649063 -23.4701233763119 16.105511553099955 0.85716730853699208 0 0.51503806187062418 0.25751903093531209 0 -0.42858365426849604 1 I I #
face $-1 $-1 $155 $21 $-1 $318 reversed single #
loop $-1 $-1 $234 $140 #
plane-surface $-1 0 47.386438204187627 0 0 -1 0 0 0 -1 forward_v I I I I #
coedge $-1 $319 $232 $235 $320 forward $141 $-1 #
coedge $-1 $238 $143 $144 $226 reversed $88 $-1 #
coedge $-1 $232 $319 $143 $224 reversed $141 $-1 #
edge $-1 $239 -17.987670390067038 $321 17.987670390067038 $223 $322 forward 7 unknown #
coedge $-1 $145 $144 $319 $323 forward $57 $-1 #
edge $-1 $230 -74.166081728568372 $321 74.166081728568372 $222 $324 forward 7 unknown #
coedge $-1 $235 $234 $145 $228 reversed $219 $-1 #
edge $-1 $325 -74.166081728568372 $229 74.166081728568372 $227 $326 forward 7 unknown #
vertex $-1 $147 $327 #
vertex $-1 $241 $328 #
straight-curve $-1 74.166081728568372 0 -17.987670390067038 0 -1 0 I I #
coedge $-1 $221 $223 $148 $233 reversed $141 $-1 #
edge $-1 $236 -47.386438204187627 $239 47.386438204187627 $232 $329 forward 7 unknown #
coedge $-1 $227 $149 $154 $242 forward $219 $-1 #
coedge $-1 $149 $227 $221 $320 reversed $219 $-1 #
vertex $-1 $150 $330 #
straight-curve $-1 0 47.386438204187627 17.987670390067038 -1 0 0 I I #
coedge $-1 $151 $222 $153 $241 reversed $88 $-1 #
vertex $-1 $233 $331 #
straight-curve $-1 0 -47.386438204187627 17.987670390067038 1 0 0 I I #
edge $-1 $156 -17.987670390067038 $230 17.987670390067038 $153 $332 forward 7 unknown #
edge $-1 $157 -17.987670390067038 $229 17.987670390067038 $154 $333 forward 7 unknown #
point $-1 74.166081728568372 -47.386438204187627 17.987670390067038 #
point $-1 74.166081728568372 47.386438204187627 17.987670390067038 #
face $-1 $-1 $334 $22 $-1 $335 reversed single #
loop $-1 $-1 $336 $159 #
plane-surface $-1 0 0 -17.987670390067038 0 0 1 1 0 0 forward_v I I I I #
coedge $-1 $255 $265 $250 $337 forward $160 $-1 #
coedge $-1 $165 $162 $336 $338 reversed $96 $-1 #
coedge $-1 $162 $165 $248 $337 reversed $96 $-1 #
coedge $-1 $339 $340 $162 $252 forward $334 $-1 #
edge $-1 $341 -17.987670390067038 $342 17.987670390067038 $251 $343 forward 7 unknown #
coedge $-1 $336 $168 $163 $254 forward $246 $-1 #
edge $-1 $173 -26.423711890750745 $258 -21.501654630354032 $253 $344 forward 7 unknown #
coedge $-1 $170 $248 $164 $256 forward $160 $-1 #
edge $-1 $257 21.501654630354032 $172 26.423711890750745 $255 $345 forward 7 unknown #
vertex $-1 $256 $346 #
vertex $-1 $254 $347 #
straight-curve $-1 -45.464337890906421 -30.192943745799102 0 0 0 -1 I I #
coedge $-1 $340 $339 $167 $261 forward $334 $-1 #
edge $-1 $266 -17.987670390067038 $263 17.987670390067038 $260 $348 forward 7 unknown #
coedge $-1 $168 $336 $340 $349 forward $246 $-1 #
vertex $-1 $169 $350 #
straight-curve $-1 -50.386395151303134 -19.394845487496681 -17.987670390067038 0 1 0 I I #
coedge $-1 $248 $170 $339 $351 forward $160 $-1 #
vertex $-1 $351 $352 #
straight-curve $-1 -50.386395151303134 -19.394845487496681 17.987670390067038 0 -1 0 I I #
point $-1 -50.386395151303134 -30.192943745799102 17.987670390067038 #
point $-1 -50.386395151303134 -30.192943745799102 -17.987670390067038 #
plane-surface $-1 0 0 17.987670390067038 0 0 1 1 0 0 forward_v I I I I #
coedge $-1 $281 $280 $273 $353 forward $176 $-1 #
coedge $-1 $273 $178 $180 $277 reversed $104 $-1 #
coedge $-1 $178 $272 $271 $353 reversed $104 $-1 #
coedge $-1 $186 $181 $178 $275 forward $187 $-1 #
edge $-1 $278 -19.032995397039414 $354 -9.591187271352851 $274 $355 forward 7 unknown #
coedge $-1 $180 $179 $281 $356 reversed $65 $-1 #
edge $-1 $357 -1.7751293829024333e-014 $278 12.149337023984863 $272 $358 forward 7 unknown #
vertex $-1 $182 $359 #
straight-curve $-1 -64.724273602881823 -0.52798117783835252 17.987670390067038 0 1 0 I I #
coedge $-1 $271 $183 $186 $285 reversed $176 $-1 #
coedge $-1 $183 $271 $276 $356 forward $176 $-1 #
vertex $-1 $184 $360 #
straight-curve $-1 -74.166081728568372 -5.3021473148796758 62.808792807206807 0 0 1 I I #
straight-curve $-1 -74.166081728568358 -5.3021473148796758 10.341844768194093 -0.77714595512881146 0 -0.62932039886446345 I I #
edge $-1 $354 -3.1902226035262657 $188 5.3021473148796758 $280 $361 forward 7 unknown #
point $-1 -74.166081728568372 -5.3021473148796758 17.987670390067038 #
point $-1 -64.724273602881809 -5.3021473148796758 17.987670390067038 #
edge $-1 $362 1 $362 0 $191 $-1 forward 7 unknown #
vertex $-1 $192 $363 #
ellipse-curve $-1 -67.764505969694582 -1.055962355676705 12.089300923305737 -0.62932039886446345 0 0.77714595512881146 0.77714595512881146 0 0.62932039886446345 1 I I #
point $-1 -68.668031710596281 -1.055962355676705 14.794077977995023 #
loop $-1 $-1 $203 $195 #
plane-surface $-1 74.166081728568372 0 0 -1 0 0 0 0 1 forward_v I I I I #
coedge $-1 $295 $198 $200 $299 reversed $119 $-1 #
coedge $-1 $198 $294 $364 $365 reversed $119 $-1 #
coedge $-1 $206 $201 $198 $297 forward $196 $-1 #
edge $-1 $300 9.4468250244541565 $366 11.708655194292803 $296 $367 forward 7 unknown #
coedge $-1 $200 $199 $303 $368 reversed $74 $-1 #
edge $-1 $369 -148.33216345713672 $300 -143.94058478113817 $294 $370 forward 7 unknown #
vertex $-1 $202 $371 #
straight-curve $-1 71.904251558729712 -12.74348474357903 17.987670390067038 0 -1 0 I I #
coedge $-1 $364 $203 $206 $307 reversed $292 $-1 #
coedge $-1 $203 $364 $298 $368 forward $292 $-1 #
vertex $-1 $204 $372 #
straight-curve $-1 74.166081728568372 -20.780995228517014 108.88277200809813 0 0 1 I I #
straight-curve $-1 -2.2306282514719271 -20.780995228517014 141.36883403615593 0.51503806187062418 0 -0.85716730853699208 I I #
edge $-1 $366 -30.192943745799106 $207 -20.780995228517014 $302 $373 forward 7 unknown #
point $-1 74.166081728568372 -20.780995228517014 17.987670390067038 #
point $-1 71.904251558729726 -20.780995228517014 17.987670390067038 #
edge $-1 $374 1 $374 0 $210 $-1 forward 7 unknown #
vertex $-1 $211 $375 #
ellipse-curve $-1 71.767491873665563 -27.503815598004223 15.343815732328444 0.85716730853699208 0 0.51503806187062418 0.25751903093531209 0 -0.42858365426849604 1 I I #
point $-1 73.292685674584348 -27.503815598004223 15.67692789883144 #
edge $-1 $376 1 $376 0 $214 $-1 forward 7 unknown #
vertex $-1 $215 $377 #
ellipse-curve $-1 71.767491873665563 -23.4701233763119 15.343815732328444 0.85716730853699208 0 0.51503806187062418 0.25751903093531209 0 -0.42858365426849604 1 I I #
point $-1 73.292685674584348 -23.4701233763119 15.67692789883144 #
plane-surface $-1 74.166081728568372 0 0 -1 0 0 0 0 1 forward_v I I I I #
coedge $-1 $223 $221 $225 $323 reversed $141 $-1 #
edge $-1 $236 -17.987670390067038 $325 17.987670390067038 $235 $378 forward 7 unknown #
vertex $-1 $323 $379 #
straight-curve $-1 -74.166081728568372 -47.386438204187627 0 0 0 -1 I I #
edge $-1 $321 -47.386438204187627 $325 47.386438204187627 $319 $380 forward 7 unknown #
straight-curve $-1 0 -47.386438204187627 -17.987670390067038 -1 0 0 I I #
vertex $-1 $228 $381 #
straight-curve $-1 0 47.386438204187627 -17.987670390067038 1 0 0 I I #
point $-1 74.166081728568372 47.386438204187627 -17.987670390067038 #
point $-1 74.166081728568372 -47.386438204187627 -17.987670390067038 #
straight-curve $-1 -74.166081728568372 0 17.987670390067038 0 -1 0 I I #
point $-1 -74.166081728568372 47.386438204187627 17.987670390067038 #
point $-1 -74.166081728568372 -47.386438204187627 17.987670390067038 #
straight-curve $-1 74.166081728568372 -47.386438204187627 0 0 0 -1 I I #
straight-curve $-1 74.166081728568372 47.386438204187627 0 0 0 -1 I I #
loop $-1 $-1 $251 $245 #
plane-surface $-1 0 -47.386438204187627 0 0 1 0 0 0 1 forward_v I I I I #
coedge $-1 $262 $253 $249 $338 forward $246 $-1 #
edge $-1 $342 -27.991592716690946 $257 -10.798098258302421 $248 $382 forward 7 unknown #
edge $-1 $258 10.798098258302421 $341 27.991592716690946 $336 $383 forward 7 unknown #
coedge $-1 $260 $251 $265 $351 reversed $334 $-1 #
coedge $-1 $251 $260 $262 $349 reversed $334 $-1 #
vertex $-1 $349 $384 #
vertex $-1 $252 $385 #
straight-curve $-1 -45.464337890906421 -47.386438204187627 0 0 0 1 I I #
straight-curve $-1 -23.962683260552389 -30.192943745799102 -17.987670390067038 1 0 0 I I #
straight-curve $-1 -23.962683260552389 -30.192943745799102 17.987670390067038 -1 0 0 I I #
point $-1 -45.464337890906421 -30.192943745799102 17.987670390067038 #
point $-1 -45.464337890906421 -30.192943745799102 -17.987670390067038 #
straight-curve $-1 -50.386395151303134 -47.386438204187627 0 0 0 -1 I I #
edge $-1 $341 45.464337890906421 $263 50.386395151303134 $340 $386 forward 7 unknown #
point $-1 -50.386395151303134 -47.386438204187627 -17.987670390067038 #
edge $-1 $266 -50.386395151303134 $342 -45.464337890906421 $339 $387 forward 7 unknown #
point $-1 -50.386395151303134 -47.386438204187627 17.987670390067038 #
edge $-1 $354 44.821122417139769 $357 52.466948039012721 $271 $388 forward 7 unknown #
vertex $-1 $285 $389 #
straight-curve $-1 -83.757268999921223 3.1902226035262657 17.987670390067038 -1 0 0 I I #
edge $-1 $357 -3.7182037813646183 $282 4.7741661370413233 $281 $390 forward 7 unknown #
vertex $-1 $356 $391 #
straight-curve $-1 -74.166081728568358 3.1902226035262657 10.341844768194093 0.77714595512881146 0 0.62932039886446345 I I #
point $-1 -64.724273602881809 3.1902226035262657 17.987670390067038 #
point $-1 -74.166081728568372 -5.3021473148796758 10.341844768194083 #
straight-curve $-1 -74.166081728568372 0 17.987670390067038 0 -1 0 I I #
vertex $-1 $288 $392 #
point $-1 -66.98736001456578 -1.055962355676705 12.7186213221702 #
coedge $-1 $303 $302 $295 $365 forward $292 $-1 #
edge $-1 $366 90.895101618031092 $369 94.659419291965222 $364 $393 forward 7 unknown #
vertex $-1 $307 $394 #
straight-curve $-1 62.457426534275569 -30.192943745799106 17.987670390067038 1 0 0 I I #
edge $-1 $369 -17.449459002220074 $304 -8.0375104849379841 $303 $395 forward 7 unknown #
vertex $-1 $368 $396 #
straight-curve $-1 -2.2306282514719271 -30.192943745799106 141.36883403615593 -0.51503806187062418 0 0.85716730853699208 I I #
point $-1 71.904251558729726 -30.192943745799106 17.987670390067038 #
point $-1 74.166081728568372 -20.780995228517014 14.223352716132908 #
straight-curve $-1 74.166081728568372 0 17.987670390067038 0 1 0 I I #
vertex $-1 $310 $397 #
point $-1 72.025010904600876 -27.503815598004223 14.915232078059947 #
vertex $-1 $314 $398 #
point $-1 72.025010904600876 -23.4701233763119 14.915232078059947 #
straight-curve $-1 -74.166081728568372 47.386438204187627 0 0 0 -1 I I #
point $-1 -74.166081728568372 -47.386438204187627 -17.987670390067038 #
straight-curve $-1 -74.166081728568372 0 -17.987670390067038 0 1 0 I I #
point $-1 -74.166081728568372 47.386438204187627 -17.987670390067038 #
straight-curve $-1 -45.464337890906421 -19.394845487496681 17.987670390067038 0 1 0 I I #
straight-curve $-1 -45.464337890906421 -19.394845487496681 -17.987670390067038 0 -1 0 I I #
point $-1 -45.464337890906421 -47.386438204187627 -17.987670390067038 #
point $-1 -45.464337890906421 -47.386438204187627 17.987670390067038 #
straight-curve $-1 0 -47.386438204187627 -17.987670390067038 -1 0 0 I I #
straight-curve $-1 0 -47.386438204187627 17.987670390067038 1 0 0 I I #
straight-curve $-1 -74.166081728568372 3.1902226035262657 62.808792807206807 0 0 -1 I I #
point $-1 -74.166081728568372 3.1902226035262657 17.987670390067038 #
straight-curve $-1 -74.166081728568372 -0.52798117783835252 10.341844768194091 0 -1 0 I I #
point $-1 -74.166081728568372 3.1902226035262657 10.341844768194083 #
point $-1 -67.135185570830131 -1.055962355676705 11.312154968176925 #
straight-curve $-1 74.166081728568372 -30.192943745799106 108.88277200809813 0 0 -1 I I #
point $-1 74.166081728568372 -30.192943745799106 17.987670390067038 #
straight-curve $-1 74.166081728568372 -12.74348474357903 14.223352716132922 0 1 0 I I #
point $-1 74.166081728568372 -30.192943745799106 14.223352716132908 #
point $-1 71.338908219397069 -27.503815598004223 15.086296701393131 #
point $-1 71.338908219397069 -23.4701233763119 15.086296701393131 #
End-of-ACIS-data 