500 0 7 0           
7 Unknown 11 ACIS 5.0 NT 24 Fri Mar 26 15:31:13 1999 
-1 9.9999999999999995e-007 1e-010 
body $-1 $7 $-1 $8 #
body $-1 $9 $-1 $10 #
body $-1 $11 $-1 $12 #
body $-1 $13 $-1 $14 #
body $-1 $15 $-1 $16 #
body $-1 $17 $-1 $18 #
body $-1 $19 $-1 $20 #
lump $-1 $-1 $21 $0 #
transform $-1 1 0 0 0 1 0 0 0 1 65.226599932859273 34.257749998612475 9.7198668160680057 1 rotate no_reflect no_shear #
lump $-1 $-1 $22 $1 #
transform $-1 1 0 0 0 1 0 0 0 1 65.226599932859273 34.257749998612475 9.7198668160680057 1 rotate no_reflect no_shear #
lump $-1 $-1 $23 $2 #
transform $-1 1 0 0 0 1 0 0 0 1 65.226599932859273 34.257749998612475 9.7198668160680057 1 rotate no_reflect no_shear #
lump $-1 $-1 $24 $3 #
transform $-1 1 0 0 0 1 0 0 0 1 65.226599932859273 34.257749998612475 9.7198668160680057 1 rotate no_reflect no_shear #
lump $-1 $-1 $25 $4 #
transform $-1 1 0 0 0 1 0 0 0 1 65.226599932859273 34.257749998612475 9.7198668160680057 1 rotate no_reflect no_shear #
lump $-1 $-1 $26 $5 #
transform $-1 1 0 0 0 1 0 0 0 1 65.226599932859273 34.257749998612475 9.7198668160680057 1 rotate no_reflect no_shear #
lump $-1 $-1 $27 $6 #
transform $-1 1 0 0 0 1 0 0 0 1 65.226599932859273 34.257749998612475 9.7198668160680057 1 rotate no_reflect no_shear #
shell $-1 $-1 $-1 $28 $-1 $7 #
shell $-1 $-1 $-1 $29 $-1 $9 #
shell $-1 $-1 $-1 $30 $-1 $11 #
shell $-1 $-1 $-1 $31 $-1 $13 #
shell $-1 $-1 $-1 $32 $-1 $15 #
shell $-1 $-1 $-1 $33 $-1 $17 #
shell $-1 $-1 $-1 $34 $-1 $19 #
face $-1 $35 $36 $21 $-1 $37 forward single #
face $-1 $38 $39 $22 $-1 $40 reversed single #
face $-1 $41 $42 $23 $-1 $43 forward single #
face $-1 $44 $45 $24 $-1 $46 reversed single #
face $-1 $47 $48 $25 $-1 $49 forward single #
face $-1 $50 $51 $26 $-1 $52 forward single #
face $-1 $53 $54 $27 $-1 $55 forward single #
face $-1 $56 $57 $21 $-1 $58 reversed single #
loop $-1 $-1 $59 $28 #
plane-surface $-1 0 0 9.7198668160680057 0 0 1 1 0 0 forward_v I I I I #
face $-1 $60 $61 $22 $-1 $62 reversed single #
loop $-1 $-1 $63 $29 #
plane-surface $-1 -32.863520725472597 82.937723656878745 143.25111173810882 -1 0 0 0 0.73135370988377701 0.68199835119979291 forward_v I I I I #
face $-1 $64 $65 $23 $-1 $66 forward single #
loop $-1 $67 $68 $30 #
cone-surface $-1 -49.045060329165935 31.305888365983112 6.6055239391537928 0 -0.73135370988377701 -0.68199835119979291 0.5 0 0 1 I I 0 1 0.5 forward I I I I #
face $-1 $69 $70 $24 $-1 $71 reversed single #
loop $-1 $-1 $72 $31 #
plane-surface $-1 57.813260931893588 -124.87815830308469 99.862976528316068 -1 0 0 0 -0.69465837861970381 0.71933979245794832 forward_v I I I I #
face $-1 $73 $74 $25 $-1 $75 forward single #
loop $-1 $76 $77 $32 #
cone-surface $-1 28.902790263205844 -31.924880664844444 7.4378014492243159 0 0.69465837861970381 -0.71933979245794832 1 0 0 1 I I 0 1 1 forward I I I I #
face $-1 $78 $79 $26 $-1 $80 forward single #
loop $-1 $81 $82 $33 #
cone-surface $-1 39.744216763963749 -31.924880664844444 7.4378014492243159 0 0.69465837861970381 -0.71933979245794832 1 0 0 1 I I 0 1 1 forward I I I I #
face $-1 $83 $84 $27 $-1 $85 forward single #
loop $-1 $86 $87 $34 #
cone-surface $-1 50.585643264721654 -31.924880664844444 7.4378014492243159 0 0.69465837861970381 -0.71933979245794832 1 0 0 1 I I 0 1 1 forward I I I I #
face $-1 $88 $89 $21 $-1 $90 reversed single #
loop $-1 $-1 $91 $35 #
plane-surface $-1 0 0 -9.7198668160680057 0 0 1 1 0 0 forward_v I I I I #
coedge $-1 $92 $93 $94 $95 forward $36 $-1 #
face $-1 $96 $97 $22 $-1 $98 reversed single #
loop $-1 $-1 $99 $38 #
plane-surface $-1 -49.045060329165935 -12.469708031124355 54.282244520951721 0 0.73135370988377701 0.68199835119979291 1 0 0 forward_v I I I I #
coedge $-1 $100 $101 $102 $103 reversed $39 $-1 #
face $-1 $-1 $104 $23 $-1 $105 forward single #
loop $-1 $106 $107 $41 #
cone-surface $-1 -49.045060329165935 30.757373083570279 6.0940251757539485 0 -0.73135370988377701 -0.68199835119979291 0.25 0 0 1 I I -0.70710678118654746 0.70710678118654746 0.25 forward I I I I #
loop $-1 $-1 $108 $30 #
coedge $-1 $68 $68 $109 $110 reversed $42 $-1 #
face $-1 $111 $112 $24 $-1 $113 reversed single #
loop $-1 $-1 $114 $44 #
plane-surface $-1 39.744216763963749 -34.257749998612482 6.0227988114348392 0 -0.69465837861970381 0.71933979245794832 1 0 0 forward_v I I I I #
coedge $-1 $115 $116 $117 $118 reversed $45 $-1 #
face $-1 $-1 $119 $25 $-1 $120 forward single #
loop $-1 $121 $122 $47 #
cone-surface $-1 28.902790263205844 -31.158895093779108 6.6446001884682389 0 0.69465837861970381 -0.71933979245794832 0.5 0 0 1 I I -0.70710678118654746 0.70710678118654746 0.5 forward I I I I #
loop $-1 $-1 $123 $32 #
coedge $-1 $77 $77 $124 $125 reversed $48 $-1 #
face $-1 $-1 $126 $26 $-1 $127 forward single #
loop $-1 $128 $129 $50 #
cone-surface $-1 39.744216763963749 -31.158895093779108 6.6446001884682389 0 0.69465837861970381 -0.71933979245794832 0.5 0 0 1 I I -0.70710678118654746 0.70710678118654746 0.5 forward I I I I #
loop $-1 $-1 $130 $33 #
coedge $-1 $82 $82 $131 $132 reversed $51 $-1 #
face $-1 $-1 $133 $27 $-1 $134 forward single #
loop $-1 $135 $136 $53 #
cone-surface $-1 50.585643264721654 -31.158895093779108 6.6446001884682389 0 0.69465837861970381 -0.71933979245794832 0.5 0 0 1 I I -0.70710678118654746 0.70710678118654746 0.5 forward I I I I #
loop $-1 $-1 $137 $34 #
coedge $-1 $87 $87 $138 $139 reversed $54 $-1 #
face $-1 $140 $141 $21 $-1 $142 reversed single #
loop $-1 $-1 $143 $56 #
plane-surface $-1 0 -34.257749998612475 0 0 1 0 0 0 1 forward_v I I I I #
coedge $-1 $144 $145 $146 $147 forward $57 $-1 #
coedge $-1 $148 $59 $149 $150 forward $36 $-1 #
coedge $-1 $59 $148 $151 $152 forward $36 $-1 #
coedge $-1 $153 $154 $59 $95 reversed $155 $-1 #
edge $-1 $156 -34.257749998612475 $157 34.257749998612475 $94 $158 forward 7 unknown #
face $-1 $159 $160 $22 $-1 $161 forward single #
loop $-1 $-1 $102 $60 #
plane-surface $-1 0 34.257749998612475 0 0 -1 0 0 0 -1 forward_v I I I I #
coedge $-1 $162 $163 $164 $165 reversed $61 $-1 #
coedge $-1 $101 $63 $166 $167 reversed $39 $-1 #
coedge $-1 $63 $100 $162 $168 reversed $39 $-1 #
coedge $-1 $164 $169 $63 $103 forward $97 $-1 #
edge $-1 $170 61.905689052986403 $171 67.452376455615067 $102 $172 forward 7 unknown #
loop $-1 $-1 $109 $64 #
plane-surface $-1 -49.045060329165935 -12.469708031124355 54.282244520951721 0 0.73135370988377701 0.68199835119979291 1 0 0 forward_v I I I I #
loop $-1 $-1 $173 $41 #
coedge $-1 $107 $107 $108 $174 reversed $65 $-1 #
coedge $-1 $108 $108 $107 $174 forward $67 $-1 #
coedge $-1 $109 $109 $68 $110 forward $104 $-1 #
edge $-1 $175 -8.0500033045155365e-016 $175 6.2831853071795996 $109 $176 forward 7 unknown #
face $-1 $177 $178 $24 $-1 $179 reversed single #
loop $-1 $-1 $180 $69 #
plane-surface $-1 21.67517259603391 -124.87815830308469 99.862976528316068 1 0 0 0 0.69465837861970381 -0.71933979245794832 forward_v I I I I #
coedge $-1 $181 $182 $183 $184 reversed $70 $-1 #
coedge $-1 $116 $72 $185 $186 reversed $45 $-1 #
coedge $-1 $72 $115 $181 $187 reversed $45 $-1 #
coedge $-1 $183 $188 $72 $118 forward $189 $-1 #
edge $-1 $190 28.18132915292987 $191 32.009755056954951 $117 $192 forward 7 unknown #
loop $-1 $-1 $124 $73 #
plane-surface $-1 39.744216763963749 -34.257749998612482 6.0227988114348392 0 -0.69465837861970381 0.71933979245794832 1 0 0 forward_v I I I I #
loop $-1 $-1 $193 $47 #
coedge $-1 $122 $122 $123 $194 reversed $74 $-1 #
coedge $-1 $123 $123 $122 $194 forward $76 $-1 #
coedge $-1 $124 $124 $77 $125 forward $119 $-1 #
edge $-1 $195 1.7537199311053519e-016 $195 6.2831853071796004 $124 $196 forward 7 unknown #
loop $-1 $-1 $131 $78 #
plane-surface $-1 39.744216763963749 -34.257749998612482 6.0227988114348392 0 -0.69465837861970381 0.71933979245794832 1 0 0 forward_v I I I I #
loop $-1 $-1 $197 $50 #
coedge $-1 $129 $129 $130 $198 reversed $79 $-1 #
coedge $-1 $130 $130 $129 $198 forward $81 $-1 #
coedge $-1 $131 $131 $82 $132 forward $126 $-1 #
edge $-1 $199 1.7537199311053519e-016 $199 6.2831853071796004 $131 $200 forward 7 unknown #
loop $-1 $-1 $138 $83 #
plane-surface $-1 39.744216763963749 -34.257749998612482 6.0227988114348392 0 -0.69465837861970381 0.71933979245794832 1 0 0 forward_v I I I I #
loop $-1 $-1 $201 $53 #
coedge $-1 $136 $136 $137 $202 reversed $84 $-1 #
coedge $-1 $137 $137 $136 $202 forward $86 $-1 #
coedge $-1 $138 $138 $87 $139 forward $133 $-1 #
edge $-1 $203 1.7537199311053519e-016 $203 6.2831853071796004 $138 $204 forward 7 unknown #
face $-1 $205 $206 $21 $-1 $207 reversed single #
loop $-1 $-1 $208 $88 #
plane-surface $-1 -65.226599932859273 0 0 1 0 0 0 0 -1 forward_v I I I I #
coedge $-1 $209 $151 $210 $211 forward $89 $-1 #
coedge $-1 $212 $91 $209 $213 forward $57 $-1 #
coedge $-1 $91 $212 $214 $215 forward $57 $-1 #
coedge $-1 $154 $153 $91 $147 reversed $155 $-1 #
edge $-1 $216 -34.257749998612475 $217 34.257749998612475 $146 $218 forward 7 unknown #
coedge $-1 $93 $92 $219 $220 forward $36 $-1 #
coedge $-1 $221 $222 $92 $150 reversed $206 $-1 #
edge $-1 $157 -65.226599932859273 $223 65.226599932859273 $149 $224 forward 7 unknown #
coedge $-1 $143 $225 $93 $152 reversed $89 $-1 #
edge $-1 $226 -65.226599932859273 $156 65.226599932859273 $151 $227 forward 7 unknown #
coedge $-1 $146 $94 $225 $228 forward $155 $-1 #
coedge $-1 $94 $146 $221 $229 reversed $155 $-1 #
loop $-1 $-1 $153 $205 #
vertex $-1 $95 $230 #
vertex $-1 $95 $231 #
straight-curve $-1 65.226599932859273 0 9.7198668160680057 0 1 0 I I #
face $-1 $-1 $232 $22 $-1 $233 reversed single #
loop $-1 $-1 $166 $96 #
plane-surface $-1 0 0 9.7198668160680057 0 0 1 1 0 0 forward_v I I I I #
coedge $-1 $234 $99 $101 $168 forward $61 $-1 #
coedge $-1 $99 $234 $235 $236 reversed $61 $-1 #
coedge $-1 $237 $102 $99 $165 forward $97 $-1 #
edge $-1 $171 8.3409905608896295 $238 40.704069768276305 $164 $239 forward 7 unknown #
coedge $-1 $240 $241 $100 $167 forward $160 $-1 #
edge $-1 $242 -12.383481385201897 $170 -7.2111118298268977 $166 $243 forward 7 unknown #
edge $-1 $171 -68.515499997224936 $242 -60.931362079185106 $101 $244 forward 7 unknown #
coedge $-1 $102 $237 $240 $245 reversed $97 $-1 #
vertex $-1 $245 $246 #
vertex $-1 $103 $247 #
straight-curve $-1 -32.863520725472597 34.257749998612475 71.625555869054409 0 0 -1 I I #
coedge $-1 $173 $173 $-1 $248 reversed $106 $-1 #
edge $-1 $249 0 $249 6.2831853071796004 $107 $250 forward 7 unknown #
vertex $-1 $110 $251 #
ellipse-curve $-1 -49.045060329165935 31.671565220924979 6.9465231147536697 0 0.73135370988377701 0.68199835119979291 0.5 0 0 1 I I #
face $-1 $-1 $189 $24 $-1 $252 forward single #
loop $-1 $-1 $253 $111 #
plane-surface $-1 0 -34.257749998612475 0 0 1 0 0 0 1 forward_v I I I I #
coedge $-1 $254 $255 $256 $257 reversed $112 $-1 #
coedge $-1 $258 $114 $116 $187 forward $70 $-1 #
coedge $-1 $114 $258 $254 $259 forward $70 $-1 #
coedge $-1 $256 $117 $114 $184 forward $189 $-1 #
edge $-1 $191 -37.941152549911713 $260 -1.8030642140520357 $183 $261 forward 7 unknown #
coedge $-1 $262 $263 $115 $186 forward $178 $-1 #
edge $-1 $264 -43.908689452723188 $190 -40.211621448090028 $185 $265 forward 7 unknown #
edge $-1 $191 -5.3221383609872994 $264 -1.0047061288372931e-014 $116 $266 forward 7 unknown #
coedge $-1 $117 $256 $262 $267 forward $189 $-1 #
loop $-1 $-1 $256 $177 #
vertex $-1 $186 $268 #
vertex $-1 $118 $269 #
straight-curve $-1 57.813260931893588 -62.439079151542344 9.7198668160680057 0 1 0 I I #
coedge $-1 $193 $193 $-1 $270 reversed $121 $-1 #
edge $-1 $271 0 $271 6.2831853071796004 $122 $272 forward 7 unknown #
vertex $-1 $125 $273 #
ellipse-curve $-1 28.902790263205844 -32.343537046599934 7.8713328137514251 0 -0.69465837861970381 0.71933979245794832 1 0 0 1 I I #
coedge $-1 $197 $197 $-1 $274 reversed $128 $-1 #
edge $-1 $275 0 $275 6.2831853071796004 $129 $276 forward 7 unknown #
vertex $-1 $132 $277 #
ellipse-curve $-1 39.744216763963749 -32.343537046599934 7.8713328137514251 0 -0.69465837861970381 0.71933979245794832 1 0 0 1 I I #
coedge $-1 $201 $201 $-1 $278 reversed $135 $-1 #
edge $-1 $279 0 $279 6.2831853071796004 $136 $280 forward 7 unknown #
vertex $-1 $139 $281 #
ellipse-curve $-1 50.585643264721654 -32.343537046599934 7.8713328137514251 0 -0.69465837861970381 0.71933979245794832 1 0 0 1 I I #
face $-1 $-1 $155 $21 $-1 $282 reversed single #
loop $-1 $-1 $221 $140 #
plane-surface $-1 0 34.257749998612475 0 0 -1 0 0 0 -1 forward_v I I I I #
coedge $-1 $283 $219 $222 $284 forward $141 $-1 #
coedge $-1 $225 $143 $144 $213 reversed $89 $-1 #
coedge $-1 $219 $283 $143 $211 reversed $141 $-1 #
edge $-1 $226 -9.7198668160680057 $285 9.7198668160680057 $210 $286 forward 7 unknown #
coedge $-1 $145 $144 $283 $287 forward $57 $-1 #
edge $-1 $217 -65.226599932859273 $285 65.226599932859273 $209 $288 forward 7 unknown #
coedge $-1 $222 $221 $145 $215 reversed $206 $-1 #
edge $-1 $289 -65.226599932859273 $216 65.226599932859273 $214 $290 forward 7 unknown #
vertex $-1 $147 $291 #
vertex $-1 $228 $292 #
straight-curve $-1 65.226599932859273 0 -9.7198668160680057 0 -1 0 I I #
coedge $-1 $208 $210 $148 $220 reversed $141 $-1 #
edge $-1 $223 -34.257749998612475 $226 34.257749998612475 $219 $293 forward 7 unknown #
coedge $-1 $214 $149 $154 $229 forward $206 $-1 #
coedge $-1 $149 $214 $208 $284 reversed $206 $-1 #
vertex $-1 $150 $294 #
straight-curve $-1 0 34.257749998612475 9.7198668160680057 -1 0 0 I I #
coedge $-1 $151 $209 $153 $228 reversed $89 $-1 #
vertex $-1 $220 $295 #
straight-curve $-1 0 -34.257749998612475 9.7198668160680057 1 0 0 I I #
edge $-1 $156 -9.7198668160680057 $217 9.7198668160680057 $153 $296 forward 7 unknown #
edge $-1 $157 -9.7198668160680057 $216 9.7198668160680057 $154 $297 forward 7 unknown #
point $-1 65.226599932859273 -34.257749998612475 9.7198668160680057 #
point $-1 65.226599932859273 34.257749998612475 9.7198668160680057 #
loop $-1 $-1 $235 $159 #
plane-surface $-1 -65.226599932859273 0 0 1 0 0 0 0 -1 forward_v I I I I #
coedge $-1 $163 $162 $241 $298 reversed $61 $-1 #
coedge $-1 $299 $300 $163 $236 forward $232 $-1 #
edge $-1 $238 -44.413579383031951 $301 -36.829441464992101 $235 $302 forward 7 unknown #
coedge $-1 $169 $164 $300 $303 reversed $97 $-1 #
vertex $-1 $165 $304 #
straight-curve $-1 -24.522530164582967 34.257749998612475 4.173179413439339 -1 0 0 I I #
coedge $-1 $305 $166 $169 $245 forward $160 $-1 #
coedge $-1 $166 $305 $234 $298 forward $160 $-1 #
vertex $-1 $167 $306 #
straight-curve $-1 -32.863520725472597 41.468861828439373 9.7198668160680057 0 1 0 I I #
straight-curve $-1 -32.863520725472597 -12.469708031124355 54.282244520951721 0 -0.68199835119979291 0.73135370988377701 I I #
edge $-1 $170 32.863520725472597 $307 65.226599932859273 $169 $308 forward 7 unknown #
point $-1 -32.863520725472597 34.257749998612475 9.7198668160680057 #
point $-1 -32.863520725472597 34.257749998612475 4.1731794134393425 #
edge $-1 $309 1 $309 0 $173 $-1 forward 7 unknown #
vertex $-1 $174 $310 #
ellipse-curve $-1 -49.045060329165935 30.940211511041223 6.2645247635538972 0 0.73135370988377701 0.68199835119979291 0.5 0 0 1 I I #
point $-1 -48.545060329165935 31.671565220925 6.9465231147536901 #
plane-surface $-1 0 0 9.7198668160680057 0 0 1 1 0 0 forward_v I I I I #
coedge $-1 $263 $262 $255 $311 forward $178 $-1 #
coedge $-1 $255 $180 $182 $259 reversed $112 $-1 #
coedge $-1 $180 $254 $253 $311 reversed $112 $-1 #
coedge $-1 $188 $183 $180 $257 forward $189 $-1 #
edge $-1 $260 -32.009755056954951 $312 -28.18132915292987 $256 $313 forward 7 unknown #
coedge $-1 $182 $181 $263 $314 reversed $70 $-1 #
edge $-1 $315 1.0047061288372931e-014 $260 5.3221383609872994 $254 $316 forward 7 unknown #
vertex $-1 $184 $317 #
straight-curve $-1 19.872108381981874 -30.429324094587393 9.7198668160680057 -1 0 0 I I #
coedge $-1 $253 $185 $188 $267 reversed $178 $-1 #
coedge $-1 $185 $253 $258 $314 forward $178 $-1 #
vertex $-1 $186 $318 #
straight-curve $-1 57.813260931893588 -34.257749998612475 49.931488264158034 0 0 1 I I #
straight-curve $-1 57.813260931893588 -34.257749998612482 6.0227988114348392 0 -0.71933979245794832 -0.69465837861970381 I I #
edge $-1 $312 21.67517259603391 $190 57.813260931893588 $262 $319 forward 7 unknown #
point $-1 57.813260931893588 -34.257749998612475 9.7198668160680057 #
point $-1 57.813260931893588 -30.429324094587393 9.7198668160680057 #
edge $-1 $320 1 $320 0 $193 $-1 forward 7 unknown #
vertex $-1 $194 $321 #
ellipse-curve $-1 28.902790263205844 -31.506224283088962 7.0042700846972128 0 -0.69465837861970381 0.71933979245794832 1 0 0 1 I I #
point $-1 29.902790263205844 -32.343537046599927 7.871332813751418 #
edge $-1 $322 1 $322 0 $197 $-1 forward 7 unknown #
vertex $-1 $198 $323 #
ellipse-curve $-1 39.744216763963749 -31.506224283088962 7.0042700846972128 0 -0.69465837861970381 0.71933979245794832 1 0 0 1 I I #
point $-1 40.744216763963749 -32.343537046599927 7.871332813751418 #
edge $-1 $324 1 $324 0 $201 $-1 forward 7 unknown #
vertex $-1 $202 $325 #
ellipse-curve $-1 50.585643264721654 -31.506224283088962 7.0042700846972128 0 -0.69465837861970381 0.71933979245794832 1 0 0 1 I I #
point $-1 51.585643264721654 -32.343537046599927 7.871332813751418 #
plane-surface $-1 65.226599932859273 0 0 -1 0 0 0 0 1 forward_v I I I I #
coedge $-1 $210 $208 $212 $287 reversed $141 $-1 #
edge $-1 $223 -9.7198668160680057 $289 9.7198668160680057 $222 $326 forward 7 unknown #
vertex $-1 $287 $327 #
straight-curve $-1 -65.226599932859273 -34.257749998612475 0 0 0 -1 I I #
edge $-1 $285 -34.257749998612475 $289 34.257749998612475 $283 $328 forward 7 unknown #
straight-curve $-1 0 -34.257749998612475 -9.7198668160680057 -1 0 0 I I #
vertex $-1 $215 $329 #
straight-curve $-1 0 34.257749998612475 -9.7198668160680057 1 0 0 I I #
point $-1 65.226599932859273 34.257749998612475 -9.7198668160680057 #
point $-1 65.226599932859273 -34.257749998612475 -9.7198668160680057 #
straight-curve $-1 -65.226599932859273 0 9.7198668160680057 0 -1 0 I I #
point $-1 -65.226599932859273 34.257749998612475 9.7198668160680057 #
point $-1 -65.226599932859273 -34.257749998612475 9.7198668160680057 #
straight-curve $-1 65.226599932859273 -34.257749998612475 0 0 0 -1 I I #
straight-curve $-1 65.226599932859273 34.257749998612475 0 0 0 -1 I I #
edge $-1 $301 -40.704069768276305 $242 -8.3409905608896295 $241 $330 forward 7 unknown #
coedge $-1 $300 $235 $305 $331 reversed $232 $-1 #
coedge $-1 $235 $299 $237 $303 forward $232 $-1 #
vertex $-1 $236 $332 #
straight-curve $-1 -65.226599932859273 3.9677620885035676 36.65521546443739 0 -0.68199835119979291 0.73135370988377701 I I #
edge $-1 $307 -9.7198668160680057 $238 -4.1731794134393381 $237 $333 forward 7 unknown #
point $-1 -65.226599932859273 34.257749998612475 4.1731794134393381 #
coedge $-1 $241 $240 $299 $331 forward $160 $-1 #
point $-1 -32.863520725472597 29.085380443237476 9.7198668160680057 #
vertex $-1 $245 $334 #
straight-curve $-1 0 34.257749998612475 9.7198668160680057 -1 0 0 I I #
vertex $-1 $248 $335 #
point $-1 -48.545060329165935 30.940211511041223 6.2645247635538972 #
edge $-1 $312 40.211621448090028 $315 43.908689452723188 $253 $336 forward 7 unknown #
vertex $-1 $267 $337 #
straight-curve $-1 21.67517259603391 -62.439079151542344 9.7198668160680057 0 -1 0 I I #
edge $-1 $315 1.8030642140520357 $264 37.941152549911713 $263 $338 forward 7 unknown #
vertex $-1 $314 $339 #
straight-curve $-1 21.67517259603391 -34.257749998612482 6.0227988114348392 0 0.71933979245794832 0.69465837861970381 I I #
point $-1 21.67517259603391 -30.429324094587393 9.7198668160680057 #
point $-1 57.813260931893588 -34.257749998612475 6.0227988114348463 #
straight-curve $-1 0 -34.257749998612475 9.7198668160680057 1 0 0 I I #
vertex $-1 $270 $340 #
point $-1 29.902790263205844 -31.506224283088962 7.0042700846972128 #
vertex $-1 $274 $341 #
point $-1 40.744216763963749 -31.506224283088962 7.0042700846972128 #
vertex $-1 $278 $342 #
point $-1 51.585643264721654 -31.506224283088962 7.0042700846972128 #
straight-curve $-1 -65.226599932859273 34.257749998612475 0 0 0 -1 I I #
point $-1 -65.226599932859273 -34.257749998612475 -9.7198668160680057 #
straight-curve $-1 -65.226599932859273 0 -9.7198668160680057 0 1 0 I I #
point $-1 -65.226599932859273 34.257749998612475 -9.7198668160680057 #
straight-curve $-1 -24.522530164582967 29.085380443237476 9.7198668160680022 1 0 0 I I #
edge $-1 $307 -34.257749998612475 $301 -29.085380443237476 $299 $343 forward 7 unknown #
point $-1 -65.226599932859273 29.085380443237476 9.7198668160680057 #
straight-curve $-1 -65.226599932859273 34.257749998612475 0 0 0 -1 I I #
point $-1 -65.226599932859273 34.257749998612475 9.7198668160680057 #
point $-1 -49.045060329165935 30.574534656099335 5.9235255879539999 #
straight-curve $-1 21.67517259603391 -34.257749998612475 49.931488264158034 0 0 -1 I I #
point $-1 21.67517259603391 -34.257749998612475 9.7198668160680057 #
straight-curve $-1 19.872108381981874 -34.257749998612475 6.0227988114348463 1 0 0 I I #
point $-1 21.67517259603391 -34.257749998612475 6.0227988114348463 #
point $-1 28.902790263205844 -30.811565904469255 6.2849302922392649 #
point $-1 39.744216763963749 -30.811565904469255 6.2849302922392649 #
point $-1 50.585643264721654 -30.811565904469255 6.2849302922392649 #
straight-curve $-1 -65.226599932859273 0 9.7198668160680057 0 -1 0 I I #
End-of-ACIS-data 