500 0 9 0           
7 Unknown 11 ACIS 5.0 NT 24 Fri Mar 26 16:33:50 1999 
-1 9.9999999999999995e-007 1e-010 
body $-1 $9 $-1 $10 #
body $-1 $11 $-1 $12 #
body $-1 $13 $-1 $14 #
body $-1 $15 $-1 $16 #
body $-1 $17 $-1 $18 #
body $-1 $19 $-1 $20 #
body $-1 $21 $-1 $22 #
body $-1 $23 $-1 $24 #
body $-1 $25 $-1 $26 #
lump $-1 $-1 $27 $0 #
transform $-1 1 0 0 0 1 0 0 0 1 65.340128788109979 27.776384470384812 12.79212408369219 1 rotate no_reflect no_shear #
lump $-1 $-1 $28 $1 #
transform $-1 1 0 0 0 1 0 0 0 1 65.340128788109979 27.776384470384812 12.79212408369219 1 rotate no_reflect no_shear #
lump $-1 $-1 $29 $2 #
transform $-1 1 0 0 0 1 0 0 0 1 65.340128788109979 27.776384470384812 12.79212408369219 1 rotate no_reflect no_shear #
lump $-1 $-1 $30 $3 #
transform $-1 1 0 0 0 1 0 0 0 1 65.340128788109979 27.776384470384812 12.79212408369219 1 rotate no_reflect no_shear #
lump $-1 $-1 $31 $4 #
transform $-1 1 0 0 0 1 0 0 0 1 65.340128788109979 27.776384470384812 12.79212408369219 1 rotate no_reflect no_shear #
lump $-1 $-1 $32 $5 #
transform $-1 1 0 0 0 1 0 0 0 1 65.340128788109979 27.776384470384812 12.79212408369219 1 rotate no_reflect no_shear #
lump $-1 $-1 $33 $6 #
transform $-1 1 0 0 0 1 0 0 0 1 65.340128788109979 27.776384470384812 12.79212408369219 1 rotate no_reflect no_shear #
lump $-1 $-1 $34 $7 #
transform $-1 1 0 0 0 1 0 0 0 1 65.340128788109979 27.776384470384812 12.79212408369219 1 rotate no_reflect no_shear #
lump $-1 $-1 $35 $8 #
transform $-1 1 0 0 0 1 0 0 0 1 65.340128788109979 27.776384470384812 12.79212408369219 1 rotate no_reflect no_shear #
shell $-1 $-1 $-1 $36 $-1 $9 #
shell $-1 $-1 $-1 $37 $-1 $11 #
shell $-1 $-1 $-1 $38 $-1 $13 #
shell $-1 $-1 $-1 $39 $-1 $15 #
shell $-1 $-1 $-1 $40 $-1 $17 #
shell $-1 $-1 $-1 $41 $-1 $19 #
shell $-1 $-1 $-1 $42 $-1 $21 #
shell $-1 $-1 $-1 $43 $-1 $23 #
shell $-1 $-1 $-1 $44 $-1 $25 #
face $-1 $45 $46 $27 $-1 $47 forward single #
face $-1 $48 $49 $28 $-1 $50 reversed single #
face $-1 $51 $52 $29 $-1 $53 reversed single #
face $-1 $54 $55 $30 $-1 $56 forward single #
face $-1 $57 $58 $31 $-1 $59 forward single #
face $-1 $60 $61 $32 $-1 $62 reversed single #
face $-1 $63 $64 $33 $-1 $65 forward single #
face $-1 $66 $67 $34 $-1 $68 forward single #
face $-1 $69 $70 $35 $-1 $71 forward single #
face $-1 $72 $73 $27 $-1 $74 reversed single #
loop $-1 $-1 $75 $36 #
plane-surface $-1 0 0 12.79212408369219 0 0 1 1 0 0 forward_v I I I I #
face $-1 $76 $77 $28 $-1 $78 reversed single #
loop $-1 $-1 $79 $37 #
plane-surface $-1 -62.790331735349007 -15.937343316713664 0 0 -1 0 0 0 -1 forward_v I I I I #
face $-1 $80 $81 $29 $-1 $82 reversed single #
loop $-1 $-1 $83 $38 #
plane-surface $-1 -177.35497345363933 16.494478387119003 73.551084148050762 0 1 0 -0.85716730853699208 0 0.51503806187062418 forward_v I I I I #
face $-1 $84 $85 $30 $-1 $86 forward single #
loop $-1 $87 $88 $39 #
cone-surface $-1 -62.735365424380603 19.096008973742833 9.1355762123996378 0.85716730853699208 0 -0.51503806187062418 0.51503806187062418 0 0.85716730853699208 1 I I 0 1 1 forward I I I I #
face $-1 $89 $90 $31 $-1 $91 forward single #
loop $-1 $92 $93 $40 #
cone-surface $-1 -62.735365424380603 22.998304853678583 9.1355762123996378 0.85716730853699208 0 -0.51503806187062418 0.51503806187062418 0 0.85716730853699208 1 I I 0 1 1 forward I I I I #
face $-1 $94 $95 $32 $-1 $96 reversed single #
loop $-1 $-1 $97 $41 #
plane-surface $-1 42.817482506480999 4.9783656544214807 190.77835888987332 0 -1 0 -0.61566148304635926 0 -0.78801074757464917 forward_v I I I I #
face $-1 $98 $99 $33 $-1 $100 forward single #
loop $-1 $101 $102 $42 #
cone-surface $-1 61.536035375431752 -2.3182519660753833 9.6610672224603764 -0.61566148304635926 0 -0.78801074757464917 0.39400537378732459 0 -0.30783074152317963 1 I I 0 1 0.5 forward I I I I #
face $-1 $103 $104 $34 $-1 $105 forward single #
loop $-1 $106 $107 $43 #
cone-surface $-1 61.536035375431752 0.41797964161094114 9.6610672224603764 -0.61566148304635926 0 -0.78801074757464917 0.39400537378732459 0 -0.30783074152317963 1 I I 0 1 0.5 forward I I I I #
face $-1 $108 $109 $35 $-1 $110 forward single #
loop $-1 $111 $112 $44 #
cone-surface $-1 61.536035375431752 3.1542112492972656 9.6610672224603764 -0.61566148304635926 0 -0.78801074757464917 0.39400537378732459 0 -0.30783074152317963 1 I I 0 1 0.5 forward I I I I #
face $-1 $113 $114 $27 $-1 $115 reversed single #
loop $-1 $-1 $116 $45 #
plane-surface $-1 0 0 -12.79212408369219 0 0 1 1 0 0 forward_v I I I I #
coedge $-1 $117 $118 $119 $120 forward $46 $-1 #
face $-1 $121 $122 $28 $-1 $123 forward single #
loop $-1 $-1 $124 $48 #
plane-surface $-1 -60.240534682588034 -21.856863893549239 0 -1 0 0 0 0 1 forward_v I I I I #
coedge $-1 $125 $126 $127 $128 forward $49 $-1 #
face $-1 $129 $130 $29 $-1 $131 reversed single #
loop $-1 $-1 $132 $51 #
plane-surface $-1 -65.340128788110007 21.047156913710708 6.2457775612404873 -0.85716730853699208 0 0.51503806187062418 0.51503806187062418 0 0.85716730853699208 forward_v I I I I #
coedge $-1 $133 $134 $135 $136 reversed $52 $-1 #
face $-1 $-1 $137 $30 $-1 $138 forward single #
loop $-1 $139 $140 $54 #
cone-surface $-1 -61.668739250538408 19.096008973742833 8.4946825713976288 0.85716730853699208 0 -0.51503806187062418 0.25751903093531209 0 0.42858365426849604 1 I I -0.70710678118654746 0.70710678118654746 0.5 forward I I I I #
loop $-1 $-1 $141 $39 #
coedge $-1 $88 $88 $142 $143 reversed $55 $-1 #
face $-1 $-1 $144 $31 $-1 $145 forward single #
loop $-1 $146 $147 $57 #
cone-surface $-1 -61.668739250538408 22.998304853678583 8.4946825713976288 0.85716730853699208 0 -0.51503806187062418 0.25751903093531209 0 0.42858365426849604 1 I I -0.70710678118654746 0.70710678118654746 0.5 forward I I I I #
loop $-1 $-1 $148 $40 #
coedge $-1 $93 $93 $149 $150 reversed $58 $-1 #
face $-1 $151 $152 $32 $-1 $153 reversed single #
loop $-1 $-1 $154 $60 #
plane-surface $-1 -37.6373186777748 0.41797964161094114 87.800911423988524 0.61566148304635926 0 0.78801074757464917 0.78801074757464917 0 -0.61566148304635926 forward_v I I I I #
coedge $-1 $155 $156 $157 $158 reversed $61 $-1 #
face $-1 $-1 $159 $33 $-1 $160 forward single #
loop $-1 $161 $162 $63 #
cone-surface $-1 61.063316445797241 -2.3182519660753833 9.0560145963146361 -0.61566148304635926 0 -0.78801074757464917 0.19700268689366229 0 -0.15391537076158981 1 I I -0.70710678118654746 0.70710678118654746 0.25 forward I I I I #
loop $-1 $-1 $163 $42 #
coedge $-1 $102 $102 $164 $165 reversed $64 $-1 #
face $-1 $-1 $166 $34 $-1 $167 forward single #
loop $-1 $168 $169 $66 #
cone-surface $-1 61.063316445797241 0.41797964161094114 9.0560145963146361 -0.61566148304635926 0 -0.78801074757464917 0.19700268689366229 0 -0.15391537076158981 1 I I -0.70710678118654746 0.70710678118654746 0.25 forward I I I I #
loop $-1 $-1 $170 $43 #
coedge $-1 $107 $107 $171 $172 reversed $67 $-1 #
face $-1 $-1 $173 $35 $-1 $174 forward single #
loop $-1 $175 $176 $69 #
cone-surface $-1 61.063316445797241 3.1542112492972656 9.0560145963146361 -0.61566148304635926 0 -0.78801074757464917 0.19700268689366229 0 -0.15391537076158981 1 I I -0.70710678118654746 0.70710678118654746 0.25 forward I I I I #
loop $-1 $-1 $177 $44 #
coedge $-1 $112 $112 $178 $179 reversed $70 $-1 #
face $-1 $180 $181 $27 $-1 $182 reversed single #
loop $-1 $-1 $183 $72 #
plane-surface $-1 0 -27.776384470384812 0 0 1 0 0 0 1 forward_v I I I I #
coedge $-1 $184 $185 $186 $187 forward $73 $-1 #
coedge $-1 $188 $75 $189 $190 forward $46 $-1 #
coedge $-1 $75 $188 $191 $192 forward $46 $-1 #
coedge $-1 $193 $194 $75 $120 reversed $195 $-1 #
edge $-1 $196 -27.776384470384812 $197 27.776384470384812 $119 $198 forward 7 unknown #
face $-1 $199 $200 $28 $-1 $201 reversed single #
loop $-1 $-1 $202 $76 #
plane-surface $-1 0 0 12.79212408369219 0 0 1 1 0 0 forward_v I I I I #
coedge $-1 $203 $204 $205 $206 reversed $77 $-1 #
coedge $-1 $207 $79 $208 $209 reversed $49 $-1 #
coedge $-1 $79 $207 $210 $211 reversed $49 $-1 #
coedge $-1 $204 $203 $79 $128 reversed $77 $-1 #
edge $-1 $212 -12.79212408369219 $213 12.79212408369219 $127 $214 forward 7 unknown #
face $-1 $215 $216 $29 $-1 $217 reversed single #
loop $-1 $-1 $218 $80 #
plane-surface $-1 -177.35497345363933 25.599835440302414 73.551084148050762 0 -1 0 0.85716730853699208 0 -0.51503806187062418 forward_v I I I I #
coedge $-1 $219 $220 $221 $222 reversed $81 $-1 #
coedge $-1 $134 $83 $223 $224 reversed $52 $-1 #
coedge $-1 $83 $133 $219 $225 reversed $52 $-1 #
coedge $-1 $221 $226 $83 $136 forward $227 $-1 #
edge $-1 $228 23.337357938709687 $229 27.270799627020992 $135 $230 forward 7 unknown #
loop $-1 $-1 $142 $84 #
plane-surface $-1 -65.340128788110007 21.047156913710708 6.2457775612404873 -0.85716730853699208 0 0.51503806187062418 0.51503806187062418 0 0.85716730853699208 forward_v I I I I #
loop $-1 $-1 $231 $54 #
coedge $-1 $140 $140 $141 $232 reversed $85 $-1 #
coedge $-1 $141 $141 $140 $232 forward $87 $-1 #
coedge $-1 $142 $142 $88 $143 forward $137 $-1 #
edge $-1 $233 0 $233 6.2831853071796004 $142 $234 forward 7 unknown #
loop $-1 $-1 $149 $89 #
plane-surface $-1 -65.340128788110007 21.047156913710708 6.2457775612404873 -0.85716730853699208 0 0.51503806187062418 0.51503806187062418 0 0.85716730853699208 forward_v I I I I #
loop $-1 $-1 $235 $57 #
coedge $-1 $147 $147 $148 $236 reversed $90 $-1 #
coedge $-1 $148 $148 $147 $236 forward $92 $-1 #
coedge $-1 $149 $149 $93 $150 forward $144 $-1 #
edge $-1 $237 0 $237 6.2831853071796004 $149 $238 forward 7 unknown #
face $-1 $239 $240 $32 $-1 $241 forward single #
loop $-1 $-1 $242 $94 #
plane-surface $-1 42.817482506480999 -4.1424063711995984 190.77835888987332 0 1 0 0.61566148304635926 0 0.78801074757464917 forward_v I I I I #
coedge $-1 $243 $244 $245 $246 reversed $95 $-1 #
coedge $-1 $156 $97 $247 $248 reversed $61 $-1 #
coedge $-1 $97 $155 $243 $249 reversed $61 $-1 #
coedge $-1 $245 $250 $97 $158 forward $240 $-1 #
edge $-1 $251 -43.931387534869479 $252 -36.960807827258911 $157 $253 forward 7 unknown #
loop $-1 $-1 $164 $98 #
plane-surface $-1 -37.6373186777748 0.41797964161094114 87.800911423988524 0.61566148304635926 0 0.78801074757464917 0.78801074757464917 0 -0.61566148304635926 forward_v I I I I #
loop $-1 $-1 $254 $63 #
coedge $-1 $162 $162 $163 $255 reversed $99 $-1 #
coedge $-1 $163 $163 $162 $255 forward $101 $-1 #
coedge $-1 $164 $164 $102 $165 forward $159 $-1 #
edge $-1 $256 0 $256 6.2831853071796004 $164 $257 forward 7 unknown #
loop $-1 $-1 $171 $103 #
plane-surface $-1 -37.6373186777748 0.41797964161094114 87.800911423988524 0.61566148304635926 0 0.78801074757464917 0.78801074757464917 0 -0.61566148304635926 forward_v I I I I #
loop $-1 $-1 $258 $66 #
coedge $-1 $169 $169 $170 $259 reversed $104 $-1 #
coedge $-1 $170 $170 $169 $259 forward $106 $-1 #
coedge $-1 $171 $171 $107 $172 forward $166 $-1 #
edge $-1 $260 0 $260 6.2831853071796004 $171 $261 forward 7 unknown #
loop $-1 $-1 $178 $108 #
plane-surface $-1 -37.6373186777748 0.41797964161094114 87.800911423988524 0.61566148304635926 0 0.78801074757464917 0.78801074757464917 0 -0.61566148304635926 forward_v I I I I #
loop $-1 $-1 $262 $69 #
coedge $-1 $176 $176 $177 $263 reversed $109 $-1 #
coedge $-1 $177 $177 $176 $263 forward $111 $-1 #
coedge $-1 $178 $178 $112 $179 forward $173 $-1 #
edge $-1 $264 0 $264 6.2831853071796004 $178 $265 forward 7 unknown #
face $-1 $266 $267 $27 $-1 $268 reversed single #
loop $-1 $-1 $269 $113 #
plane-surface $-1 -65.340128788109979 0 0 1 0 0 0 0 -1 forward_v I I I I #
coedge $-1 $270 $191 $271 $272 forward $114 $-1 #
coedge $-1 $273 $116 $270 $274 forward $73 $-1 #
coedge $-1 $116 $273 $275 $276 forward $73 $-1 #
coedge $-1 $194 $193 $116 $187 reversed $195 $-1 #
edge $-1 $277 -27.776384470384812 $278 27.776384470384812 $186 $279 forward 7 unknown #
coedge $-1 $118 $117 $280 $281 forward $46 $-1 #
coedge $-1 $282 $283 $117 $190 reversed $267 $-1 #
edge $-1 $197 -65.340128788109979 $284 65.340128788109979 $189 $285 forward 7 unknown #
coedge $-1 $183 $286 $118 $192 reversed $114 $-1 #
edge $-1 $287 -65.340128788109979 $196 65.340128788109979 $191 $288 forward 7 unknown #
coedge $-1 $186 $119 $286 $289 forward $195 $-1 #
coedge $-1 $119 $186 $282 $290 reversed $195 $-1 #
loop $-1 $-1 $193 $266 #
vertex $-1 $120 $291 #
vertex $-1 $120 $292 #
straight-curve $-1 65.340128788109979 0 12.79212408369219 0 1 0 I I #
face $-1 $293 $294 $28 $-1 $295 reversed single #
loop $-1 $-1 $296 $121 #
plane-surface $-1 -65.340128788109979 0 0 1 0 0 0 0 -1 forward_v I I I I #
coedge $-1 $210 $297 $204 $298 forward $122 $-1 #
coedge $-1 $127 $124 $299 $300 reversed $77 $-1 #
coedge $-1 $124 $127 $202 $298 reversed $77 $-1 #
coedge $-1 $301 $302 $124 $206 forward $303 $-1 #
edge $-1 $304 -12.79212408369219 $305 12.79212408369219 $205 $306 forward 7 unknown #
coedge $-1 $126 $125 $296 $307 reversed $49 $-1 #
coedge $-1 $299 $308 $125 $209 forward $294 $-1 #
edge $-1 $309 -33.944962920435472 $213 -28.845368814913531 $208 $310 forward 7 unknown #
coedge $-1 $311 $202 $126 $211 forward $122 $-1 #
edge $-1 $212 28.845368814913531 $312 33.944962920435472 $210 $313 forward 7 unknown #
vertex $-1 $211 $314 #
vertex $-1 $209 $315 #
straight-curve $-1 -60.240534682588034 -15.937343316713664 0 0 0 -1 I I #
face $-1 $-1 $227 $29 $-1 $316 forward single #
loop $-1 $-1 $317 $129 #
plane-surface $-1 -65.340128788109979 0 0 1 0 0 0 0 -1 forward_v I I I I #
coedge $-1 $318 $319 $320 $321 reversed $130 $-1 #
coedge $-1 $322 $132 $134 $225 forward $81 $-1 #
coedge $-1 $132 $322 $318 $323 forward $81 $-1 #
coedge $-1 $320 $135 $132 $222 forward $227 $-1 #
edge $-1 $229 5.9708999302636485 $324 15.07625698344706 $221 $325 forward 7 unknown #
coedge $-1 $326 $327 $133 $224 forward $216 $-1 #
edge $-1 $328 -30.529764512784848 $228 -23.983417990333191 $223 $329 forward 7 unknown #
edge $-1 $229 -7.6371864130294114 $328 -5.4988089932380084e-014 $134 $330 forward 7 unknown #
coedge $-1 $135 $320 $326 $331 forward $227 $-1 #
loop $-1 $-1 $320 $215 #
vertex $-1 $224 $332 #
vertex $-1 $136 $333 #
straight-curve $-1 -88.677486726819666 16.494478387119003 12.79212408369219 1 0 0 I I #
coedge $-1 $231 $231 $-1 $334 reversed $139 $-1 #
edge $-1 $335 0 $335 6.2831853071796004 $140 $336 forward 7 unknown #
vertex $-1 $143 $337 #
ellipse-curve $-1 -63.373407943954334 19.096008973742833 9.5189508224663513 -0.85716730853699208 0 0.51503806187062418 0.51503806187062418 0 0.85716730853699208 1 I I #
coedge $-1 $235 $235 $-1 $338 reversed $146 $-1 #
edge $-1 $339 0 $339 6.2831853071796004 $147 $340 forward 7 unknown #
vertex $-1 $150 $341 #
ellipse-curve $-1 -63.373407943954334 22.998304853678583 9.5189508224663513 -0.85716730853699208 0 0.51503806187062418 0.51503806187062418 0 0.85716730853699208 1 I I #
face $-1 $-1 $342 $32 $-1 $343 reversed single #
loop $-1 $-1 $157 $151 #
plane-surface $-1 0 0 12.79212408369219 0 0 1 1 0 0 forward_v I I I I #
coedge $-1 $344 $345 $346 $347 reversed $152 $-1 #
coedge $-1 $348 $154 $156 $249 forward $95 $-1 #
coedge $-1 $154 $348 $344 $349 forward $95 $-1 #
coedge $-1 $346 $157 $154 $246 forward $240 $-1 #
edge $-1 $252 -4.7693758336160101 $350 4.351396192005069 $245 $351 forward 7 unknown #
coedge $-1 $352 $353 $155 $248 forward $342 $-1 #
edge $-1 $354 -88.043069205203921 $251 -82.597055361244472 $247 $355 forward 7 unknown #
edge $-1 $252 121.83446488993397 $354 130.68025757621993 $156 $356 forward 7 unknown #
coedge $-1 $157 $346 $352 $357 forward $240 $-1 #
vertex $-1 $158 $358 #
vertex $-1 $158 $359 #
straight-curve $-1 21.4087412532405 4.9783656544214807 12.792124083692187 -1 0 0 I I #
coedge $-1 $254 $254 $-1 $360 reversed $161 $-1 #
edge $-1 $361 0 $361 6.2831853071796004 $162 $362 forward 7 unknown #
vertex $-1 $165 $363 #
ellipse-curve $-1 61.854838934304688 -2.3182519660753833 10.069117161712471 0.61566148304635926 0 0.78801074757464917 0.39400537378732459 0 -0.30783074152317963 1 I I #
coedge $-1 $258 $258 $-1 $364 reversed $168 $-1 #
edge $-1 $365 0 $365 6.2831853071796004 $169 $366 forward 7 unknown #
vertex $-1 $172 $367 #
ellipse-curve $-1 61.854838934304688 0.41797964161094114 10.069117161712471 0.61566148304635926 0 0.78801074757464917 0.39400537378732459 0 -0.30783074152317963 1 I I #
coedge $-1 $262 $262 $-1 $368 reversed $175 $-1 #
edge $-1 $369 0 $369 6.2831853071796004 $176 $370 forward 7 unknown #
vertex $-1 $179 $371 #
ellipse-curve $-1 61.854838934304688 3.1542112492972656 10.069117161712471 0.61566148304635926 0 0.78801074757464917 0.39400537378732459 0 -0.30783074152317963 1 I I #
face $-1 $-1 $195 $27 $-1 $372 reversed single #
loop $-1 $-1 $282 $180 #
plane-surface $-1 0 27.776384470384812 0 0 -1 0 0 0 -1 forward_v I I I I #
coedge $-1 $373 $280 $283 $374 forward $181 $-1 #
coedge $-1 $286 $183 $184 $274 reversed $114 $-1 #
coedge $-1 $280 $373 $183 $272 reversed $181 $-1 #
edge $-1 $287 -12.79212408369219 $375 12.79212408369219 $271 $376 forward 7 unknown #
coedge $-1 $185 $184 $373 $377 forward $73 $-1 #
edge $-1 $278 -65.340128788109979 $375 65.340128788109979 $270 $378 forward 7 unknown #
coedge $-1 $283 $282 $185 $276 reversed $267 $-1 #
edge $-1 $379 -65.340128788109979 $277 65.340128788109979 $275 $380 forward 7 unknown #
vertex $-1 $187 $381 #
vertex $-1 $289 $382 #
straight-curve $-1 65.340128788109979 0 -12.79212408369219 0 -1 0 I I #
coedge $-1 $269 $271 $188 $281 reversed $181 $-1 #
edge $-1 $284 -27.776384470384812 $287 27.776384470384812 $280 $383 forward 7 unknown #
coedge $-1 $275 $189 $194 $290 forward $267 $-1 #
coedge $-1 $189 $275 $269 $374 reversed $267 $-1 #
vertex $-1 $190 $384 #
straight-curve $-1 0 27.776384470384812 12.79212408369219 -1 0 0 I I #
coedge $-1 $191 $270 $193 $289 reversed $114 $-1 #
vertex $-1 $281 $385 #
straight-curve $-1 0 -27.776384470384812 12.79212408369219 1 0 0 I I #
edge $-1 $196 -12.79212408369219 $278 12.79212408369219 $193 $386 forward 7 unknown #
edge $-1 $197 -12.79212408369219 $277 12.79212408369219 $194 $387 forward 7 unknown #
point $-1 65.340128788109979 -27.776384470384812 12.79212408369219 #
point $-1 65.340128788109979 27.776384470384812 12.79212408369219 #
face $-1 $-1 $303 $28 $-1 $388 reversed single #
loop $-1 $-1 $299 $199 #
plane-surface $-1 0 0 -12.79212408369219 0 0 1 1 0 0 forward_v I I I I #
coedge $-1 $389 $390 $207 $307 forward $200 $-1 #
coedge $-1 $202 $311 $301 $391 forward $122 $-1 #
edge $-1 $305 -16.847952523610193 $212 -5.0089113699390442 $202 $392 forward 7 unknown #
coedge $-1 $393 $208 $203 $300 forward $294 $-1 #
edge $-1 $213 5.0089113699390442 $304 16.847952523610193 $299 $394 forward 7 unknown #
coedge $-1 $395 $205 $297 $391 reversed $303 $-1 #
coedge $-1 $205 $395 $393 $396 reversed $303 $-1 #
loop $-1 $-1 $205 $293 #
vertex $-1 $396 $397 #
vertex $-1 $206 $398 #
straight-curve $-1 -60.240534682588034 -27.776384470384812 0 0 0 1 I I #
edge $-1 $312 -12.79212408369219 $309 12.79212408369219 $296 $399 forward 7 unknown #
coedge $-1 $208 $393 $389 $400 forward $294 $-1 #
vertex $-1 $209 $401 #
straight-curve $-1 -31.395165867674503 -15.937343316713664 -12.79212408369219 1 0 0 I I #
coedge $-1 $297 $210 $390 $402 forward $122 $-1 #
vertex $-1 $402 $403 #
straight-curve $-1 -31.395165867674503 -15.937343316713664 12.79212408369219 -1 0 0 I I #
point $-1 -60.240534682588034 -15.937343316713664 12.79212408369219 #
point $-1 -60.240534682588034 -15.937343316713664 -12.79212408369219 #
plane-surface $-1 0 0 12.79212408369219 0 0 1 1 0 0 forward_v I I I I #
coedge $-1 $327 $326 $319 $404 forward $216 $-1 #
coedge $-1 $319 $218 $220 $323 reversed $130 $-1 #
coedge $-1 $218 $318 $317 $404 reversed $130 $-1 #
coedge $-1 $226 $221 $218 $321 forward $227 $-1 #
edge $-1 $324 -27.270799627020992 $405 -23.337357938709687 $320 $406 forward 7 unknown #
coedge $-1 $220 $219 $327 $407 reversed $81 $-1 #
edge $-1 $408 5.4988089932380084e-014 $324 7.6371864130294114 $318 $409 forward 7 unknown #
vertex $-1 $222 $410 #
straight-curve $-1 -61.406687099798667 10.523578456855354 12.79212408369219 0 1 0 I I #
coedge $-1 $317 $223 $226 $331 reversed $216 $-1 #
coedge $-1 $223 $317 $322 $407 forward $216 $-1 #
vertex $-1 $224 $411 #
straight-curve $-1 -65.340128788109979 16.494478387119003 36.775542074025381 0 0 1 I I #
straight-curve $-1 -65.340128788110007 16.494478387119003 6.2457775612404873 -0.51503806187062418 0 -0.85716730853699208 I I #
edge $-1 $405 -25.599835440302414 $228 -16.494478387119003 $326 $412 forward 7 unknown #
point $-1 -65.340128788109979 16.494478387119003 12.79212408369219 #
point $-1 -61.406687099798674 16.494478387119003 12.79212408369219 #
edge $-1 $413 1 $413 0 $231 $-1 forward 7 unknown #
vertex $-1 $232 $414 #
ellipse-curve $-1 -62.097322904806902 19.096008973742833 8.7522016023329403 -0.85716730853699208 0 0.51503806187062418 0.51503806187062418 0 0.85716730853699208 1 I I #
point $-1 -62.858369882083686 19.096008973742833 10.376118131003327 #
edge $-1 $415 1 $415 0 $235 $-1 forward 7 unknown #
vertex $-1 $236 $416 #
ellipse-curve $-1 -62.097322904806902 22.998304853678583 8.7522016023329403 -0.85716730853699208 0 0.51503806187062418 0.51503806187062418 0 0.85716730853699208 1 I I #
point $-1 -62.858369882083686 22.998304853678583 10.376118131003327 #
loop $-1 $-1 $247 $239 #
plane-surface $-1 65.340128788109979 0 0 -1 0 0 0 0 1 forward_v I I I I #
coedge $-1 $345 $242 $244 $349 reversed $152 $-1 #
coedge $-1 $242 $344 $417 $418 reversed $152 $-1 #
coedge $-1 $250 $245 $242 $347 forward $240 $-1 #
edge $-1 $350 36.960807827258911 $419 43.931387534869479 $346 $420 forward 7 unknown #
coedge $-1 $244 $243 $353 $421 reversed $95 $-1 #
edge $-1 $422 -130.68025757621993 $350 -121.83446488993397 $344 $423 forward 7 unknown #
vertex $-1 $246 $424 #
straight-curve $-1 58.369549080499432 0.20898982080547057 12.79212408369218 0 -1 0 I I #
coedge $-1 $417 $247 $250 $357 reversed $342 $-1 #
coedge $-1 $247 $417 $348 $421 forward $342 $-1 #
vertex $-1 $248 $425 #
straight-curve $-1 65.340128788109979 4.9783656544214807 95.389179444936659 0 0 1 I I #
straight-curve $-1 -37.6373186777748 4.9783656544214807 87.800911423988524 0.78801074757464917 0 -0.61566148304635926 I I #
edge $-1 $419 -4.1424063711995984 $251 4.9783656544214807 $352 $426 forward 7 unknown #
point $-1 65.340128788109979 4.9783656544214807 12.79212408369219 #
point $-1 58.369549080499411 4.9783656544214807 12.792124083692187 #
edge $-1 $427 1 $427 0 $254 $-1 forward 7 unknown #
vertex $-1 $255 $428 #
ellipse-curve $-1 61.217231816558829 -2.3182519660753833 9.2530172832082975 0.61566148304635926 0 0.78801074757464917 0.39400537378732459 0 -0.30783074152317963 1 I I #
point $-1 62.248844308092004 -2.3182519660753833 9.7612864201892755 #
edge $-1 $429 1 $429 0 $258 $-1 forward 7 unknown #
vertex $-1 $259 $430 #
ellipse-curve $-1 61.217231816558829 0.41797964161094114 9.2530172832082975 0.61566148304635926 0 0.78801074757464917 0.39400537378732459 0 -0.30783074152317963 1 I I #
point $-1 62.248844308092004 0.41797964161094114 9.7612864201892755 #
edge $-1 $431 1 $431 0 $262 $-1 forward 7 unknown #
vertex $-1 $263 $432 #
ellipse-curve $-1 61.217231816558829 3.1542112492972656 9.2530172832082975 0.61566148304635926 0 0.78801074757464917 0.39400537378732459 0 -0.30783074152317963 1 I I #
point $-1 62.248844308092004 3.1542112492972656 9.7612864201892755 #
plane-surface $-1 65.340128788109979 0 0 -1 0 0 0 0 1 forward_v I I I I #
coedge $-1 $271 $269 $273 $377 reversed $181 $-1 #
edge $-1 $284 -12.79212408369219 $379 12.79212408369219 $283 $433 forward 7 unknown #
vertex $-1 $377 $434 #
straight-curve $-1 -65.340128788109979 -27.776384470384812 0 0 0 -1 I I #
edge $-1 $375 -27.776384470384812 $379 27.776384470384812 $373 $435 forward 7 unknown #
straight-curve $-1 0 -27.776384470384812 -12.79212408369219 -1 0 0 I I #
vertex $-1 $276 $436 #
straight-curve $-1 0 27.776384470384812 -12.79212408369219 1 0 0 I I #
point $-1 65.340128788109979 27.776384470384812 -12.79212408369219 #
point $-1 65.340128788109979 -27.776384470384812 -12.79212408369219 #
straight-curve $-1 -65.340128788109979 0 12.79212408369219 0 -1 0 I I #
point $-1 -65.340128788109979 27.776384470384812 12.79212408369219 #
point $-1 -65.340128788109979 -27.776384470384812 12.79212408369219 #
straight-curve $-1 65.340128788109979 -27.776384470384812 0 0 0 -1 I I #
straight-curve $-1 65.340128788109979 27.776384470384812 0 0 0 -1 I I #
plane-surface $-1 0 -27.776384470384812 0 0 1 0 0 0 1 forward_v I I I I #
coedge $-1 $437 $296 $308 $400 reversed $200 $-1 #
coedge $-1 $296 $437 $311 $402 reversed $200 $-1 #
edge $-1 $438 -65.340128788109979 $305 -60.240534682588034 $301 $439 forward 7 unknown #
straight-curve $-1 -60.240534682588034 -10.928431946774619 12.79212408369219 0 1 0 I I #
coedge $-1 $308 $299 $302 $396 forward $294 $-1 #
straight-curve $-1 -60.240534682588034 -10.928431946774619 -12.79212408369219 0 -1 0 I I #
coedge $-1 $302 $301 $437 $440 forward $303 $-1 #
edge $-1 $304 60.240534682588034 $441 65.340128788109979 $302 $442 forward 7 unknown #
point $-1 -60.240534682588034 -27.776384470384812 -12.79212408369219 #
point $-1 -60.240534682588034 -27.776384470384812 12.79212408369219 #
straight-curve $-1 -65.340128788109979 -15.937343316713664 0 0 0 -1 I I #
edge $-1 $441 -27.776384470384812 $309 -15.937343316713664 $389 $443 forward 7 unknown #
point $-1 -65.340128788109979 -15.937343316713664 -12.79212408369219 #
edge $-1 $312 15.937343316713664 $438 27.776384470384812 $390 $444 forward 7 unknown #
point $-1 -65.340128788109979 -15.937343316713664 12.79212408369219 #
edge $-1 $405 23.983417990333191 $408 30.529764512784848 $317 $445 forward 7 unknown #
vertex $-1 $331 $446 #
straight-curve $-1 -88.677486726819666 25.599835440302414 12.79212408369219 -1 0 0 I I #
edge $-1 $408 -15.07625698344706 $328 -5.9708999302636485 $327 $447 forward 7 unknown #
vertex $-1 $407 $448 #
straight-curve $-1 -65.340128788110007 25.599835440302414 6.2457775612404873 0.51503806187062418 0 0.85716730853699208 I I #
point $-1 -61.406687099798674 25.599835440302414 12.79212408369219 #
point $-1 -65.340128788109979 16.494478387119003 6.2457775612405344 #
straight-curve $-1 -65.340128788109979 0 12.79212408369219 0 -1 0 I I #
vertex $-1 $334 $449 #
point $-1 -61.582284842936282 19.096008973742833 9.6093689108699323 #
vertex $-1 $338 $450 #
point $-1 -61.582284842936282 22.998304853678583 9.6093689108699323 #
coedge $-1 $353 $352 $345 $418 forward $342 $-1 #
edge $-1 $419 82.597055361244472 $422 88.043069205203921 $417 $451 forward 7 unknown #
vertex $-1 $357 $452 #
straight-curve $-1 21.4087412532405 -4.1424063711995984 12.792124083692187 1 0 0 I I #
edge $-1 $422 -4.351396192005069 $354 4.7693758336160101 $353 $453 forward 7 unknown #
vertex $-1 $421 $454 #
straight-curve $-1 -37.6373186777748 -4.1424063711995984 87.800911423988524 -0.78801074757464917 0 0.61566148304635926 I I #
point $-1 58.369549080499411 -4.1424063711995984 12.792124083692187 #
point $-1 65.340128788109979 4.9783656544214807 7.346110239732738 #
straight-curve $-1 65.340128788109979 0 12.79212408369219 0 1 0 I I #
vertex $-1 $360 $455 #
point $-1 61.611237190346152 -2.3182519660753833 8.9451865416851195 #
vertex $-1 $364 $456 #
point $-1 61.611237190346152 0.41797964161094114 8.9451865416851195 #
vertex $-1 $368 $457 #
point $-1 61.611237190346152 3.1542112492972656 8.9451865416851195 #
straight-curve $-1 -65.340128788109979 27.776384470384812 0 0 0 -1 I I #
point $-1 -65.340128788109979 -27.776384470384812 -12.79212408369219 #
straight-curve $-1 -65.340128788109979 0 -12.79212408369219 0 1 0 I I #
point $-1 -65.340128788109979 27.776384470384812 -12.79212408369219 #
coedge $-1 $390 $389 $395 $440 reversed $200 $-1 #
vertex $-1 $402 $458 #
straight-curve $-1 0 -27.776384470384812 12.79212408369219 1 0 0 I I #
edge $-1 $438 -12.79212408369219 $441 12.79212408369219 $437 $459 forward 7 unknown #
vertex $-1 $400 $460 #
straight-curve $-1 0 -27.776384470384812 -12.79212408369219 -1 0 0 I I #
straight-curve $-1 -65.340128788109979 0 -12.79212408369219 0 1 0 I I #
straight-curve $-1 -65.340128788109979 0 12.79212408369219 0 -1 0 I I #
straight-curve $-1 -65.340128788109979 25.599835440302414 36.775542074025381 0 0 -1 I I #
point $-1 -65.340128788109979 25.599835440302414 12.79212408369219 #
straight-curve $-1 -65.340128788109979 10.523578456855354 6.2457775612405282 0 -1 0 I I #
point $-1 -65.340128788109979 25.599835440302414 6.2457775612405344 #
point $-1 -61.240155596269915 19.096008973742833 8.2371635404623174 #
point $-1 -61.240155596269915 22.998304853678583 8.2371635404623174 #
straight-curve $-1 65.340128788109979 -4.1424063711995984 95.389179444936659 0 0 -1 I I #
point $-1 65.340128788109979 -4.1424063711995984 12.79212408369219 #
straight-curve $-1 65.340128788109979 0.20898982080547057 7.3461102397327309 0 1 0 I I #
point $-1 65.340128788109979 -4.1424063711995984 7.346110239732738 #
point $-1 60.909401075035653 -2.3182519660753833 8.8590119094209747 #
point $-1 60.909401075035653 0.41797964161094114 8.8590119094209747 #
point $-1 60.909401075035653 3.1542112492972656 8.8590119094209747 #
point $-1 -65.340128788109979 -27.776384470384812 12.79212408369219 #
straight-curve $-1 -65.340128788109979 -27.776384470384812 0 0 0 -1 I I #
point $-1 -65.340128788109979 -27.776384470384812 -12.79212408369219 #
End-of-ACIS-data 