500 0 14 0           
7 Unknown 11 ACIS 5.0 NT 24 Thu Mar 25 15:51:25 1999 
-1 9.9999999999999995e-007 1e-010 
body $-1 $14 $-1 $15 #
body $-1 $16 $-1 $17 #
body $-1 $18 $-1 $19 #
body $-1 $20 $-1 $21 #
body $-1 $22 $-1 $23 #
body $-1 $24 $-1 $25 #
body $-1 $26 $-1 $27 #
body $-1 $28 $-1 $29 #
body $-1 $30 $-1 $31 #
body $-1 $32 $-1 $33 #
body $-1 $34 $-1 $35 #
body $-1 $36 $-1 $37 #
body $-1 $38 $-1 $39 #
body $-1 $40 $-1 $41 #
lump $-1 $-1 $42 $0 #
transform $-1 1 0 0 0 1 0 0 0 1 47.72484511856441 21.552136316200237 7.1262082492825058 1 rotate no_reflect no_shear #
lump $-1 $-1 $43 $1 #
transform $-1 1 0 0 0 1 0 0 0 1 47.72484511856441 21.552136316200237 7.1262082492825058 1 rotate no_reflect no_shear #
lump $-1 $-1 $44 $2 #
transform $-1 1 0 0 0 1 0 0 0 1 47.72484511856441 21.552136316200237 7.1262082492825058 1 rotate no_reflect no_shear #
lump $-1 $-1 $45 $3 #
transform $-1 1 0 0 0 1 0 0 0 1 47.72484511856441 21.552136316200237 7.1262082492825058 1 rotate no_reflect no_shear #
lump $-1 $-1 $46 $4 #
transform $-1 1 0 0 0 1 0 0 0 1 47.72484511856441 21.552136316200237 7.1262082492825058 1 rotate no_reflect no_shear #
lump $-1 $-1 $47 $5 #
transform $-1 1 0 0 0 1 0 0 0 1 47.72484511856441 21.552136316200237 7.1262082492825058 1 rotate no_reflect no_shear #
lump $-1 $-1 $48 $6 #
transform $-1 1 0 0 0 1 0 0 0 1 47.72484511856441 21.552136316200237 7.1262082492825058 1 rotate no_reflect no_shear #
lump $-1 $-1 $49 $7 #
transform $-1 1 0 0 0 1 0 0 0 1 47.72484511856441 21.552136316200237 7.1262082492825058 1 rotate no_reflect no_shear #
lump $-1 $-1 $50 $8 #
transform $-1 1 0 0 0 1 0 0 0 1 47.72484511856441 21.552136316200237 7.1262082492825058 1 rotate no_reflect no_shear #
lump $-1 $-1 $51 $9 #
transform $-1 1 0 0 0 1 0 0 0 1 47.72484511856441 21.552136316200237 7.1262082492825058 1 rotate no_reflect no_shear #
lump $-1 $-1 $52 $10 #
transform $-1 1 0 0 0 1 0 0 0 1 47.72484511856441 21.552136316200237 7.1262082492825058 1 rotate no_reflect no_shear #
lump $-1 $-1 $53 $11 #
transform $-1 1 0 0 0 1 0 0 0 1 47.72484511856441 21.552136316200237 7.1262082492825058 1 rotate no_reflect no_shear #
lump $-1 $-1 $54 $12 #
transform $-1 1 0 0 0 1 0 0 0 1 47.72484511856441 21.552136316200237 7.1262082492825058 1 rotate no_reflect no_shear #
lump $-1 $-1 $55 $13 #
transform $-1 1 0 0 0 1 0 0 0 1 47.72484511856441 21.552136316200237 7.1262082492825058 1 rotate no_reflect no_shear #
shell $-1 $-1 $-1 $56 $-1 $14 #
shell $-1 $-1 $-1 $57 $-1 $16 #
shell $-1 $-1 $-1 $58 $-1 $18 #
shell $-1 $-1 $-1 $59 $-1 $20 #
shell $-1 $-1 $-1 $60 $-1 $22 #
shell $-1 $-1 $-1 $61 $-1 $24 #
shell $-1 $-1 $-1 $62 $-1 $26 #
shell $-1 $-1 $-1 $63 $-1 $28 #
shell $-1 $-1 $-1 $64 $-1 $30 #
shell $-1 $-1 $-1 $65 $-1 $32 #
shell $-1 $-1 $-1 $66 $-1 $34 #
shell $-1 $-1 $-1 $67 $-1 $36 #
shell $-1 $-1 $-1 $68 $-1 $38 #
shell $-1 $-1 $-1 $69 $-1 $40 #
face $-1 $70 $71 $42 $-1 $72 forward single #
face $-1 $73 $74 $43 $-1 $75 forward single #
face $-1 $76 $77 $44 $-1 $78 reversed single #
face $-1 $79 $80 $45 $-1 $81 forward single #
face $-1 $82 $83 $46 $-1 $84 forward single #
face $-1 $85 $86 $47 $-1 $87 reversed single #
face $-1 $88 $89 $48 $-1 $90 forward single #
face $-1 $91 $92 $49 $-1 $93 forward single #
face $-1 $94 $95 $50 $-1 $96 reversed single #
face $-1 $97 $98 $51 $-1 $99 forward single #
face $-1 $100 $101 $52 $-1 $102 forward single #
face $-1 $103 $104 $53 $-1 $105 reversed single #
face $-1 $106 $107 $54 $-1 $108 forward single #
face $-1 $109 $110 $55 $-1 $111 forward single #
face $-1 $112 $113 $42 $-1 $114 reversed single #
loop $-1 $-1 $115 $56 #
plane-surface $-1 0 0 7.1262082492825058 0 0 1 1 0 0 forward_v I I I I #
face $-1 $116 $117 $43 $-1 $118 reversed single #
loop $-1 $-1 $119 $57 #
plane-surface $-1 -47.72484511856441 0 0 1 0 0 0 0 -1 forward_v I I I I #
face $-1 $120 $121 $44 $-1 $122 reversed single #
loop $-1 $-1 $123 $58 #
plane-surface $-1 -20.918576156568662 -86.648669300342959 72.984841458830317 -1 0 0 0 -0.68199836817093118 0.7313536940579346 forward_v I I I I #
face $-1 $124 $125 $45 $-1 $126 forward single #
loop $-1 $127 $128 $59 #
cone-surface $-1 -35.274009957898336 -18.864012331894457 4.5396618874333674 0 0.68199836817093118 -0.7313536940579346 1 0 0 1 I I 0 1 1 forward I I I I #
face $-1 $129 $130 $46 $-1 $131 forward single #
loop $-1 $132 $133 $60 #
cone-surface $-1 -26.660749677100529 -18.864012331894457 4.5396618874333674 0 0.68199836817093118 -0.7313536940579346 1 0 0 1 I I 0 1 1 forward I I I I #
face $-1 $134 $135 $47 $-1 $136 reversed single #
loop $-1 $-1 $137 $61 #
plane-surface $-1 37.676041457633637 -21.552136316200247 3.177357907220582 0 -0.68199836817093118 0.7313536940579346 1 0 0 forward_v I I I I #
face $-1 $138 $139 $48 $-1 $140 forward single #
loop $-1 $141 $142 $62 #
cone-surface $-1 33.369411317234743 -18.864012331894457 4.5396618874333674 0 0.68199836817093118 -0.7313536940579346 1 0 0 1 I I 0 1 1 forward I I I I #
face $-1 $143 $144 $49 $-1 $145 forward single #
loop $-1 $146 $147 $63 #
cone-surface $-1 41.982671598032546 -18.864012331894457 4.5396618874333674 0 0.68199836817093118 -0.7313536940579346 1 0 0 1 I I 0 1 1 forward I I I I #
face $-1 $148 $149 $50 $-1 $150 reversed single #
loop $-1 $-1 $151 $64 #
plane-surface $-1 -41.016183478430207 55.124200280956529 102.38188505532236 1 0 0 0 -0.68199836817093118 -0.7313536940579346 forward_v I I I I #
face $-1 $152 $153 $51 $-1 $154 forward single #
loop $-1 $155 $156 $65 #
cone-surface $-1 -35.274009957898336 18.864012331894454 4.5396618874333656 0 -0.68199836817093118 -0.7313536940579346 1 0 0 1 I I 0 1 1 forward I I I I #
face $-1 $157 $158 $52 $-1 $159 forward single #
loop $-1 $160 $161 $66 #
cone-surface $-1 -26.660749677100529 18.864012331894454 4.5396618874333656 0 -0.68199836817093118 -0.7313536940579346 1 0 0 1 I I 0 1 1 forward I I I I #
face $-1 $162 $163 $53 $-1 $164 reversed single #
loop $-1 $-1 $165 $67 #
plane-surface $-1 37.676041457633637 -9.9723327031861828 32.574401503712622 0 0.68199836817093118 0.7313536940579346 1 0 0 forward_v I I I I #
face $-1 $166 $167 $54 $-1 $168 forward single #
loop $-1 $169 $170 $68 #
cone-surface $-1 33.369411317234743 18.864012331894454 4.5396618874333656 0 -0.68199836817093118 -0.7313536940579346 1 0 0 1 I I 0 1 1 forward I I I I #
face $-1 $171 $172 $55 $-1 $173 forward single #
loop $-1 $174 $175 $69 #
cone-surface $-1 41.982671598032546 18.864012331894454 4.5396618874333656 0 -0.68199836817093118 -0.7313536940579346 1 0 0 1 I I 0 1 1 forward I I I I #
face $-1 $176 $177 $42 $-1 $178 reversed single #
loop $-1 $-1 $179 $70 #
plane-surface $-1 0 0 -7.1262082492825058 0 0 1 1 0 0 forward_v I I I I #
coedge $-1 $180 $181 $182 $183 forward $71 $-1 #
face $-1 $184 $185 $43 $-1 $186 forward single #
loop $-1 $-1 $187 $73 #
plane-surface $-1 0 21.552136316200237 0 0 -1 0 0 0 -1 forward_v I I I I #
coedge $-1 $188 $189 $190 $191 forward $74 $-1 #
face $-1 $192 $193 $44 $-1 $194 reversed single #
loop $-1 $-1 $195 $76 #
plane-surface $-1 -30.967379817499435 -21.552136316200247 3.177357907220582 0 -0.68199836817093118 0.7313536940579346 1 0 0 forward_v I I I I #
coedge $-1 $196 $197 $198 $199 reversed $77 $-1 #
face $-1 $-1 $200 $45 $-1 $201 forward single #
loop $-1 $202 $203 $79 #
cone-surface $-1 -35.274009957898336 -17.952200890138535 3.5618638495862331 0 0.68199836817093118 -0.7313536940579346 0.5 0 0 1 I I -0.70710678118654746 0.70710678118654746 0.5 forward I I I I #
loop $-1 $-1 $204 $59 #
coedge $-1 $128 $128 $205 $206 reversed $80 $-1 #
face $-1 $-1 $207 $46 $-1 $208 forward single #
loop $-1 $209 $210 $82 #
cone-surface $-1 -26.660749677100529 -17.952200890138535 3.5618638495862331 0 0.68199836817093118 -0.7313536940579346 0.5 0 0 1 I I -0.70710678118654746 0.70710678118654746 0.5 forward I I I I #
loop $-1 $-1 $211 $60 #
coedge $-1 $133 $133 $212 $213 reversed $83 $-1 #
face $-1 $214 $215 $47 $-1 $216 reversed single #
loop $-1 $-1 $217 $85 #
plane-surface $-1 27.627237796702865 -86.648669300342959 72.984841458830317 1 0 0 0 0.68199836817093118 -0.7313536940579346 forward_v I I I I #
coedge $-1 $218 $219 $220 $221 reversed $86 $-1 #
face $-1 $-1 $222 $48 $-1 $223 forward single #
loop $-1 $224 $225 $88 #
cone-surface $-1 33.369411317234743 -17.952200890138535 3.5618638495862331 0 0.68199836817093118 -0.7313536940579346 0.5 0 0 1 I I -0.70710678118654746 0.70710678118654746 0.5 forward I I I I #
loop $-1 $-1 $226 $62 #
coedge $-1 $142 $142 $227 $228 reversed $89 $-1 #
face $-1 $-1 $229 $49 $-1 $230 forward single #
loop $-1 $231 $232 $91 #
cone-surface $-1 41.982671598032546 -17.952200890138535 3.5618638495862331 0 0.68199836817093118 -0.7313536940579346 0.5 0 0 1 I I -0.70710678118654746 0.70710678118654746 0.5 forward I I I I #
loop $-1 $-1 $233 $63 #
coedge $-1 $147 $147 $234 $235 reversed $92 $-1 #
face $-1 $236 $237 $50 $-1 $238 reversed single #
loop $-1 $-1 $239 $94 #
plane-surface $-1 -30.967379817499435 -9.9723327031861828 32.574401503712622 0 0.68199836817093118 0.7313536940579346 1 0 0 forward_v I I I I #
coedge $-1 $240 $241 $242 $243 reversed $95 $-1 #
face $-1 $-1 $244 $51 $-1 $245 forward single #
loop $-1 $246 $247 $97 #
cone-surface $-1 -35.274009957898336 17.952200890138531 3.5618638495862314 0 -0.68199836817093118 -0.7313536940579346 0.5 0 0 1 I I -0.70710678118654746 0.70710678118654746 0.5 forward I I I I #
loop $-1 $-1 $248 $65 #
coedge $-1 $156 $156 $249 $250 reversed $98 $-1 #
face $-1 $-1 $251 $52 $-1 $252 forward single #
loop $-1 $253 $254 $100 #
cone-surface $-1 -26.660749677100529 17.952200890138531 3.5618638495862314 0 -0.68199836817093118 -0.7313536940579346 0.5 0 0 1 I I -0.70710678118654746 0.70710678118654746 0.5 forward I I I I #
loop $-1 $-1 $255 $66 #
coedge $-1 $161 $161 $256 $257 reversed $101 $-1 #
face $-1 $258 $259 $53 $-1 $260 forward single #
loop $-1 $-1 $261 $103 #
plane-surface $-1 27.627237796702865 55.124200280956529 102.38188505532236 1 0 0 0 -0.68199836817093118 -0.7313536940579346 forward_v I I I I #
coedge $-1 $262 $263 $264 $265 reversed $104 $-1 #
face $-1 $-1 $266 $54 $-1 $267 forward single #
loop $-1 $268 $269 $106 #
cone-surface $-1 33.369411317234743 17.952200890138531 3.5618638495862314 0 -0.68199836817093118 -0.7313536940579346 0.5 0 0 1 I I -0.70710678118654746 0.70710678118654746 0.5 forward I I I I #
loop $-1 $-1 $270 $68 #
coedge $-1 $170 $170 $271 $272 reversed $107 $-1 #
face $-1 $-1 $273 $55 $-1 $274 forward single #
loop $-1 $275 $276 $109 #
cone-surface $-1 41.982671598032546 17.952200890138531 3.5618638495862314 0 -0.68199836817093118 -0.7313536940579346 0.5 0 0 1 I I -0.70710678118654746 0.70710678118654746 0.5 forward I I I I #
loop $-1 $-1 $277 $69 #
coedge $-1 $175 $175 $278 $279 reversed $110 $-1 #
face $-1 $280 $281 $42 $-1 $282 reversed single #
loop $-1 $-1 $283 $112 #
plane-surface $-1 0 -21.552136316200237 0 0 1 0 0 0 1 forward_v I I I I #
coedge $-1 $284 $285 $286 $287 forward $113 $-1 #
coedge $-1 $288 $115 $289 $290 forward $71 $-1 #
coedge $-1 $115 $288 $291 $292 forward $71 $-1 #
coedge $-1 $293 $294 $115 $183 reversed $295 $-1 #
edge $-1 $296 -21.552136316200237 $297 21.552136316200237 $182 $298 forward 7 unknown #
face $-1 $299 $300 $43 $-1 $301 reversed single #
loop $-1 $-1 $190 $116 #
plane-surface $-1 -51.079175938631508 0 -4.1262082492825058 0 0 1 1 0 0 forward_v I I I I #
coedge $-1 $302 $303 $189 $304 forward $117 $-1 #
coedge $-1 $305 $119 $306 $307 reversed $74 $-1 #
coedge $-1 $119 $305 $187 $304 reversed $74 $-1 #
coedge $-1 $308 $309 $119 $191 reversed $185 $-1 #
edge $-1 $310 -21.552136316200237 $311 21.552136316200237 $190 $312 forward 7 unknown #
face $-1 $313 $314 $44 $-1 $315 reversed single #
loop $-1 $-1 $316 $120 #
plane-surface $-1 -41.016183478430207 -86.648669300342959 72.984841458830317 1 0 0 0 0.68199836817093118 -0.7313536940579346 forward_v I I I I #
coedge $-1 $317 $318 $319 $320 reversed $121 $-1 #
coedge $-1 $197 $123 $321 $322 reversed $77 $-1 #
coedge $-1 $123 $196 $317 $323 reversed $77 $-1 #
coedge $-1 $319 $324 $123 $199 forward $325 $-1 #
edge $-1 $326 21.772198333971243 $327 26.006821787241869 $198 $328 forward 7 unknown #
loop $-1 $-1 $205 $124 #
plane-surface $-1 -30.967379817499435 -21.552136316200247 3.177357907220582 0 -0.68199836817093118 0.7313536940579346 1 0 0 forward_v I I I I #
loop $-1 $-1 $329 $79 #
coedge $-1 $203 $203 $204 $330 reversed $125 $-1 #
coedge $-1 $204 $204 $203 $330 forward $127 $-1 #
coedge $-1 $205 $205 $128 $206 forward $200 $-1 #
edge $-1 $331 1.3071175984817761e-015 $331 6.2831853071796013 $205 $332 forward 7 unknown #
loop $-1 $-1 $212 $129 #
plane-surface $-1 -30.967379817499435 -21.552136316200247 3.177357907220582 0 -0.68199836817093118 0.7313536940579346 1 0 0 forward_v I I I I #
loop $-1 $-1 $333 $82 #
coedge $-1 $210 $210 $211 $334 reversed $130 $-1 #
coedge $-1 $211 $211 $210 $334 forward $132 $-1 #
coedge $-1 $212 $212 $133 $213 forward $207 $-1 #
edge $-1 $335 1.3071175984817761e-015 $335 6.2831853071796013 $212 $336 forward 7 unknown #
face $-1 $337 $338 $47 $-1 $339 forward single #
loop $-1 $-1 $340 $134 #
plane-surface $-1 0 -21.552136316200237 0 0 1 0 0 0 1 forward_v I I I I #
coedge $-1 $341 $342 $343 $344 reversed $135 $-1 #
coedge $-1 $345 $137 $346 $347 reversed $86 $-1 #
coedge $-1 $137 $345 $341 $348 forward $86 $-1 #
coedge $-1 $343 $349 $137 $221 forward $338 $-1 #
edge $-1 $350 -28.886824389747591 $351 -8.789217067886046 $220 $352 forward 7 unknown #
loop $-1 $-1 $227 $138 #
plane-surface $-1 37.676041457633637 -21.552136316200247 3.177357907220582 0 -0.68199836817093118 0.7313536940579346 1 0 0 forward_v I I I I #
loop $-1 $-1 $353 $88 #
coedge $-1 $225 $225 $226 $354 reversed $139 $-1 #
coedge $-1 $226 $226 $225 $354 forward $141 $-1 #
coedge $-1 $227 $227 $142 $228 forward $222 $-1 #
edge $-1 $355 1.3071175984817761e-015 $355 6.2831853071796013 $227 $356 forward 7 unknown #
loop $-1 $-1 $234 $143 #
plane-surface $-1 37.676041457633637 -21.552136316200247 3.177357907220582 0 -0.68199836817093118 0.7313536940579346 1 0 0 forward_v I I I I #
loop $-1 $-1 $357 $91 #
coedge $-1 $232 $232 $233 $358 reversed $144 $-1 #
coedge $-1 $233 $233 $232 $358 forward $146 $-1 #
coedge $-1 $234 $234 $147 $235 forward $229 $-1 #
edge $-1 $359 1.3071175984817761e-015 $359 6.2831853071796013 $234 $360 forward 7 unknown #
face $-1 $361 $362 $50 $-1 $363 forward single #
loop $-1 $-1 $364 $148 #
plane-surface $-1 -20.918576156568662 55.124200280956529 102.38188505532236 -1 0 0 0 0.68199836817093118 0.7313536940579346 forward_v I I I I #
coedge $-1 $365 $366 $367 $368 reversed $149 $-1 #
coedge $-1 $241 $151 $369 $370 reversed $95 $-1 #
coedge $-1 $151 $240 $365 $371 reversed $95 $-1 #
coedge $-1 $367 $372 $151 $243 forward $362 $-1 #
edge $-1 $373 6.009963824278028 $374 10.244587277548675 $242 $375 forward 7 unknown #
loop $-1 $-1 $249 $152 #
plane-surface $-1 -30.967379817499435 -9.9723327031861828 32.574401503712622 0 0.68199836817093118 0.7313536940579346 1 0 0 forward_v I I I I #
loop $-1 $-1 $376 $97 #
coedge $-1 $247 $247 $248 $377 reversed $153 $-1 #
coedge $-1 $248 $248 $247 $377 forward $155 $-1 #
coedge $-1 $249 $249 $156 $250 forward $244 $-1 #
edge $-1 $378 -1.5621631485610709e-015 $378 6.2831853071795987 $249 $379 forward 7 unknown #
loop $-1 $-1 $256 $157 #
plane-surface $-1 -30.967379817499435 -9.9723327031861828 32.574401503712622 0 0.68199836817093118 0.7313536940579346 1 0 0 forward_v I I I I #
loop $-1 $-1 $380 $100 #
coedge $-1 $254 $254 $255 $381 reversed $158 $-1 #
coedge $-1 $255 $255 $254 $381 forward $160 $-1 #
coedge $-1 $256 $256 $161 $257 forward $251 $-1 #
edge $-1 $382 -1.5621631485610709e-015 $382 6.2831853071795987 $256 $383 forward 7 unknown #
face $-1 $384 $385 $53 $-1 $386 reversed single #
loop $-1 $-1 $387 $162 #
plane-surface $-1 0 0 7.1262082492825058 0 0 1 1 0 0 forward_v I I I I #
coedge $-1 $388 $389 $390 $391 reversed $163 $-1 #
coedge $-1 $392 $165 $393 $394 reversed $104 $-1 #
coedge $-1 $165 $392 $388 $395 forward $104 $-1 #
coedge $-1 $390 $396 $165 $265 forward $397 $-1 #
edge $-1 $398 -28.886824389747591 $399 -8.789217067886046 $264 $400 forward 7 unknown #
loop $-1 $-1 $271 $166 #
plane-surface $-1 37.676041457633637 -9.9723327031861828 32.574401503712622 0 0.68199836817093118 0.7313536940579346 1 0 0 forward_v I I I I #
loop $-1 $-1 $401 $106 #
coedge $-1 $269 $269 $270 $402 reversed $167 $-1 #
coedge $-1 $270 $270 $269 $402 forward $169 $-1 #
coedge $-1 $271 $271 $170 $272 forward $266 $-1 #
edge $-1 $403 -1.5621631485610709e-015 $403 6.2831853071795987 $271 $404 forward 7 unknown #
loop $-1 $-1 $278 $171 #
plane-surface $-1 37.676041457633637 -9.9723327031861828 32.574401503712622 0 0.68199836817093118 0.7313536940579346 1 0 0 forward_v I I I I #
loop $-1 $-1 $405 $109 #
coedge $-1 $276 $276 $277 $406 reversed $172 $-1 #
coedge $-1 $277 $277 $276 $406 forward $174 $-1 #
coedge $-1 $278 $278 $175 $279 forward $273 $-1 #
edge $-1 $407 -1.5621631485610709e-015 $407 6.2831853071795987 $278 $408 forward 7 unknown #
face $-1 $409 $410 $42 $-1 $411 reversed single #
loop $-1 $-1 $412 $176 #
plane-surface $-1 -47.72484511856441 0 0 1 0 0 0 0 -1 forward_v I I I I #
coedge $-1 $413 $291 $412 $414 forward $177 $-1 #
coedge $-1 $415 $179 $413 $416 forward $113 $-1 #
coedge $-1 $179 $415 $417 $418 forward $113 $-1 #
coedge $-1 $294 $293 $179 $287 reversed $295 $-1 #
edge $-1 $419 -21.552136316200237 $420 21.552136316200237 $286 $421 forward 7 unknown #
coedge $-1 $181 $180 $422 $423 forward $71 $-1 #
coedge $-1 $424 $425 $180 $290 reversed $410 $-1 #
edge $-1 $297 -47.72484511856441 $426 47.72484511856441 $289 $427 forward 7 unknown #
coedge $-1 $283 $428 $181 $292 reversed $177 $-1 #
edge $-1 $429 -47.72484511856441 $296 47.72484511856441 $291 $430 forward 7 unknown #
coedge $-1 $286 $182 $428 $431 forward $295 $-1 #
coedge $-1 $182 $286 $424 $432 reversed $295 $-1 #
loop $-1 $-1 $293 $409 #
vertex $-1 $183 $433 #
vertex $-1 $183 $434 #
straight-curve $-1 47.72484511856441 0 7.1262082492825058 0 1 0 I I #
face $-1 $435 $436 $43 $-1 $437 reversed single #
loop $-1 $-1 $438 $184 #
plane-surface $-1 -54.433506758698613 0 -5.6262082492825058 1 0 0 0 0 -1 forward_v I I I I #
coedge $-1 $439 $187 $440 $441 reversed $117 $-1 #
coedge $-1 $187 $439 $308 $442 reversed $117 $-1 #
edge $-1 $310 4.1262082492825058 $443 7.1262082492825058 $187 $444 forward 7 unknown #
coedge $-1 $189 $188 $445 $446 reversed $74 $-1 #
coedge $-1 $447 $448 $188 $307 forward $449 $-1 #
edge $-1 $450 -7.1262082492825058 $311 -4.1262082492825058 $306 $451 forward 7 unknown #
coedge $-1 $452 $190 $303 $442 forward $185 $-1 #
coedge $-1 $190 $452 $447 $453 forward $185 $-1 #
vertex $-1 $304 $454 #
vertex $-1 $453 $455 #
straight-curve $-1 -47.72484511856441 0 -4.1262082492825058 0 -1 0 I I #
face $-1 $-1 $325 $44 $-1 $456 forward single #
loop $-1 $-1 $457 $192 #
plane-surface $-1 0 -21.552136316200237 0 0 1 0 0 0 1 forward_v I I I I #
coedge $-1 $458 $459 $460 $461 reversed $193 $-1 #
coedge $-1 $462 $195 $197 $323 forward $121 $-1 #
coedge $-1 $195 $462 $458 $463 forward $121 $-1 #
coedge $-1 $460 $198 $195 $320 forward $325 $-1 #
edge $-1 $327 5.4348862478189446 $464 25.53249356968049 $319 $465 forward 7 unknown #
coedge $-1 $466 $467 $196 $322 forward $314 $-1 #
edge $-1 $468 -33.315062822194569 $326 -29.366212480132653 $321 $469 forward 7 unknown #
edge $-1 $327 -5.7901169949313029 $468 -1.4457969380444042e-014 $197 $470 forward 7 unknown #
coedge $-1 $198 $460 $466 $471 forward $325 $-1 #
loop $-1 $-1 $460 $313 #
vertex $-1 $322 $472 #
vertex $-1 $199 $473 #
straight-curve $-1 -20.918576156568662 -43.32433465017148 7.1262082492825058 0 1 0 I I #
coedge $-1 $329 $329 $-1 $474 reversed $202 $-1 #
edge $-1 $475 0 $475 6.2831853071796004 $203 $476 forward 7 unknown #
vertex $-1 $206 $477 #
ellipse-curve $-1 -35.274009957898336 -19.434824589564926 5.1517830782515475 0 -0.68199836817093118 0.7313536940579346 1 0 0 1 I I #
coedge $-1 $333 $333 $-1 $478 reversed $209 $-1 #
edge $-1 $479 0 $479 6.2831853071796004 $210 $480 forward 7 unknown #
vertex $-1 $213 $481 #
ellipse-curve $-1 -26.660749677100529 -19.434824589564926 5.1517830782515475 0 -0.68199836817093118 0.7313536940579346 1 0 0 1 I I #
face $-1 $-1 $482 $47 $-1 $483 reversed single #
loop $-1 $-1 $343 $214 #
plane-surface $-1 0 0 7.1262082492825058 0 0 1 1 0 0 forward_v I I I I #
coedge $-1 $484 $485 $342 $486 forward $215 $-1 #
coedge $-1 $342 $217 $219 $348 reversed $135 $-1 #
coedge $-1 $217 $341 $340 $486 reversed $135 $-1 #
coedge $-1 $487 $220 $217 $344 forward $338 $-1 #
edge $-1 $351 -26.006821787241869 $488 -21.772198333971243 $343 $489 forward 7 unknown #
coedge $-1 $219 $218 $484 $490 reversed $86 $-1 #
coedge $-1 $491 $492 $218 $347 forward $482 $-1 #
edge $-1 $493 -6.7976408009368718 $350 -1.0075238060055842 $346 $494 forward 7 unknown #
edge $-1 $495 1.4457969380444042e-014 $351 5.7901169949313029 $341 $496 forward 7 unknown #
coedge $-1 $220 $487 $491 $497 forward $338 $-1 #
vertex $-1 $347 $498 #
vertex $-1 $221 $499 #
straight-curve $-1 18.838020728816819 -17.317512862929611 7.1262082492825058 -1 0 0 I I #
coedge $-1 $353 $353 $-1 $500 reversed $224 $-1 #
edge $-1 $501 0 $501 6.2831853071796004 $225 $502 forward 7 unknown #
vertex $-1 $228 $503 #
ellipse-curve $-1 33.369411317234743 -19.434824589564926 5.1517830782515475 0 -0.68199836817093118 0.7313536940579346 1 0 0 1 I I #
coedge $-1 $357 $357 $-1 $504 reversed $231 $-1 #
edge $-1 $505 0 $505 6.2831853071796004 $232 $506 forward 7 unknown #
vertex $-1 $235 $507 #
ellipse-curve $-1 41.982671598032546 -19.434824589564926 5.1517830782515475 0 -0.68199836817093118 0.7313536940579346 1 0 0 1 I I #
face $-1 $-1 $508 $50 $-1 $509 reversed single #
loop $-1 $-1 $242 $236 #
plane-surface $-1 0 0 7.1262082492825058 0 0 1 1 0 0 forward_v I I I I #
coedge $-1 $510 $511 $512 $513 reversed $237 $-1 #
coedge $-1 $514 $239 $241 $371 forward $149 $-1 #
coedge $-1 $239 $514 $510 $515 forward $149 $-1 #
coedge $-1 $512 $242 $239 $368 forward $362 $-1 #
edge $-1 $374 -25.53249356968049 $516 -5.4348862478189446 $367 $517 forward 7 unknown #
coedge $-1 $518 $519 $240 $370 forward $508 $-1 #
edge $-1 $520 -48.013584620440611 $373 -44.064734278378673 $369 $521 forward 7 unknown #
edge $-1 $374 37.314155637469156 $520 43.104272632400473 $241 $522 forward 7 unknown #
coedge $-1 $242 $512 $518 $523 forward $362 $-1 #
vertex $-1 $370 $524 #
vertex $-1 $243 $525 #
straight-curve $-1 -41.016183478430207 27.562100140478265 7.1262082492825058 0 -1 0 I I #
coedge $-1 $376 $376 $-1 $526 reversed $246 $-1 #
edge $-1 $527 0 $527 6.2831853071796004 $247 $528 forward 7 unknown #
vertex $-1 $250 $529 #
ellipse-curve $-1 -35.274009957898336 19.434824589564915 5.1517830782515377 0 0.68199836817093118 0.7313536940579346 1 0 0 1 I I #
coedge $-1 $380 $380 $-1 $530 reversed $253 $-1 #
edge $-1 $531 0 $531 6.2831853071796004 $254 $532 forward 7 unknown #
vertex $-1 $257 $533 #
ellipse-curve $-1 -26.660749677100529 19.434824589564915 5.1517830782515377 0 0.68199836817093118 0.7313536940579346 1 0 0 1 I I #
face $-1 $-1 $397 $53 $-1 $534 reversed single #
loop $-1 $-1 $393 $258 #
plane-surface $-1 47.72484511856441 0 0 -1 0 0 0 0 1 forward_v I I I I #
coedge $-1 $535 $536 $389 $537 forward $259 $-1 #
coedge $-1 $389 $261 $263 $395 reversed $163 $-1 #
coedge $-1 $261 $388 $387 $537 reversed $163 $-1 #
coedge $-1 $538 $264 $261 $391 forward $397 $-1 #
edge $-1 $399 -48.013584620440611 $539 -44.064734278378673 $390 $540 forward 7 unknown #
coedge $-1 $263 $262 $535 $541 reversed $104 $-1 #
coedge $-1 $542 $543 $262 $394 forward $385 $-1 #
edge $-1 $544 22.559660122205806 $398 28.349777117137123 $393 $545 forward 7 unknown #
edge $-1 $546 37.314155637469156 $399 43.104272632400473 $388 $547 forward 7 unknown #
coedge $-1 $264 $538 $542 $548 forward $397 $-1 #
loop $-1 $-1 $390 $384 #
vertex $-1 $394 $549 #
vertex $-1 $265 $550 #
straight-curve $-1 18.838020728816819 21.552136316200233 3.1773579072205749 -1 0 0 I I #
coedge $-1 $401 $401 $-1 $551 reversed $268 $-1 #
edge $-1 $552 0 $552 6.2831853071796004 $269 $553 forward 7 unknown #
vertex $-1 $272 $554 #
ellipse-curve $-1 33.369411317234743 19.434824589564915 5.1517830782515377 0 0.68199836817093118 0.7313536940579346 1 0 0 1 I I #
coedge $-1 $405 $405 $-1 $555 reversed $275 $-1 #
edge $-1 $556 0 $556 6.2831853071796004 $276 $557 forward 7 unknown #
vertex $-1 $279 $558 #
ellipse-curve $-1 41.982671598032546 19.434824589564915 5.1517830782515377 0 0.68199836817093118 0.7313536940579346 1 0 0 1 I I #
face $-1 $-1 $295 $42 $-1 $559 reversed single #
loop $-1 $-1 $424 $280 #
plane-surface $-1 0 21.552136316200237 0 0 -1 0 0 0 -1 forward_v I I I I #
coedge $-1 $422 $560 $283 $414 reversed $281 $-1 #
coedge $-1 $428 $283 $284 $416 reversed $177 $-1 #
edge $-1 $429 -7.1262082492825058 $561 7.1262082492825058 $412 $562 forward 7 unknown #
coedge $-1 $285 $284 $560 $563 forward $113 $-1 #
edge $-1 $420 -47.72484511856441 $561 47.72484511856441 $413 $564 forward 7 unknown #
coedge $-1 $425 $424 $285 $418 reversed $410 $-1 #
edge $-1 $565 -47.72484511856441 $419 47.72484511856441 $417 $566 forward 7 unknown #
vertex $-1 $287 $567 #
vertex $-1 $431 $568 #
straight-curve $-1 47.72484511856441 0 -7.1262082492825058 0 -1 0 I I #
coedge $-1 $569 $412 $288 $423 reversed $281 $-1 #
edge $-1 $426 -21.552136316200237 $429 21.552136316200237 $422 $570 forward 7 unknown #
coedge $-1 $417 $289 $294 $432 forward $410 $-1 #
coedge $-1 $289 $417 $569 $571 reversed $410 $-1 #
vertex $-1 $290 $572 #
straight-curve $-1 0 21.552136316200237 7.1262082492825058 -1 0 0 I I #
coedge $-1 $291 $413 $293 $431 reversed $177 $-1 #
vertex $-1 $423 $573 #
straight-curve $-1 0 -21.552136316200237 7.1262082492825058 1 0 0 I I #
edge $-1 $296 -7.1262082492825058 $420 7.1262082492825058 $293 $574 forward 7 unknown #
edge $-1 $297 -7.1262082492825058 $419 7.1262082492825058 $294 $575 forward 7 unknown #
point $-1 47.72484511856441 -21.552136316200237 7.1262082492825058 #
point $-1 47.72484511856441 21.552136316200237 7.1262082492825058 #
face $-1 $-1 $449 $43 $-1 $576 reversed single #
loop $-1 $-1 $445 $299 #
plane-surface $-1 0 0 -7.1262082492825058 0 0 1 1 0 0 forward_v I I I I #
coedge $-1 $577 $578 $439 $579 forward $300 $-1 #
coedge $-1 $303 $302 $438 $579 reversed $117 $-1 #
coedge $-1 $445 $580 $302 $441 forward $436 $-1 #
edge $-1 $581 -54.433506758698613 $443 -47.72484511856441 $302 $582 forward 7 unknown #
edge $-1 $310 -3.3543308200671049 $583 3.3543308200671049 $303 $584 forward 7 unknown #
vertex $-1 $304 $585 #
straight-curve $-1 -47.72484511856441 21.552136316200237 0 0 0 -1 I I #
coedge $-1 $586 $440 $305 $446 forward $436 $-1 #
edge $-1 $443 -21.552136316200237 $450 21.552136316200237 $445 $587 forward 7 unknown #
coedge $-1 $588 $306 $309 $453 reversed $449 $-1 #
coedge $-1 $306 $588 $586 $589 reversed $449 $-1 #
loop $-1 $-1 $306 $435 #
vertex $-1 $589 $590 #
straight-curve $-1 -47.72484511856441 -21.552136316200237 0 0 0 1 I I #
coedge $-1 $309 $308 $578 $591 forward $185 $-1 #
edge $-1 $592 -3.3543308200671049 $311 3.3543308200671049 $447 $593 forward 7 unknown #
point $-1 -47.724845118564403 21.552136316200237 -4.1262082492825058 #
point $-1 -47.724845118564403 -21.552136316200237 -4.1262082492825058 #
plane-surface $-1 0 0 7.1262082492825058 0 0 1 1 0 0 forward_v I I I I #
coedge $-1 $467 $466 $459 $594 forward $314 $-1 #
coedge $-1 $459 $316 $318 $463 reversed $193 $-1 #
coedge $-1 $316 $458 $457 $594 reversed $193 $-1 #
coedge $-1 $324 $319 $316 $461 forward $325 $-1 #
edge $-1 $464 -26.006821787241869 $595 -21.772198333971243 $460 $596 forward 7 unknown #
coedge $-1 $318 $317 $467 $597 reversed $121 $-1 #
edge $-1 $598 1.4457969380444042e-014 $464 5.7901169949313029 $458 $599 forward 7 unknown #
vertex $-1 $320 $600 #
straight-curve $-1 -15.483689908749717 -17.317512862929611 7.1262082492825058 -1 0 0 I I #
coedge $-1 $457 $321 $324 $471 reversed $314 $-1 #
coedge $-1 $321 $457 $462 $597 forward $314 $-1 #
vertex $-1 $322 $601 #
straight-curve $-1 -20.918576156568662 -21.552136316200233 36.492420729415159 0 0 1 I I #
straight-curve $-1 -20.918576156568662 -21.552136316200247 3.177357907220582 0 -0.7313536940579346 -0.68199836817093118 I I #
edge $-1 $595 -41.016183478430207 $326 -20.918576156568662 $466 $602 forward 7 unknown #
point $-1 -20.918576156568662 -21.552136316200237 7.1262082492825058 #
point $-1 -20.918576156568662 -17.317512862929611 7.1262082492825058 #
edge $-1 $603 1 $603 0 $329 $-1 forward 7 unknown #
vertex $-1 $330 $604 #
ellipse-curve $-1 -35.274009957898336 -18.293200074224 3.9275406966152007 0 -0.68199836817093118 0.7313536940579346 1 0 0 1 I I #
point $-1 -34.274009957898336 -19.434824589564911 5.1517830782515341 #
edge $-1 $605 1 $605 0 $333 $-1 forward 7 unknown #
vertex $-1 $334 $606 #
ellipse-curve $-1 -26.660749677100529 -18.293200074224 3.9275406966152007 0 -0.68199836817093118 0.7313536940579346 1 0 0 1 I I #
point $-1 -25.660749677100529 -19.434824589564911 5.1517830782515341 #
loop $-1 $-1 $346 $337 #
plane-surface $-1 47.72484511856441 0 0 -1 0 0 0 0 1 forward_v I I I I #
coedge $-1 $607 $340 $345 $490 forward $215 $-1 #
coedge $-1 $340 $607 $487 $608 reversed $215 $-1 #
edge $-1 $488 29.366212480132653 $495 33.315062822194569 $340 $609 forward 7 unknown #
coedge $-1 $349 $343 $485 $608 forward $338 $-1 #
vertex $-1 $608 $610 #
straight-curve $-1 27.627237796702865 -43.32433465017148 7.1262082492825058 0 -1 0 I I #
edge $-1 $495 8.789217067886046 $493 28.886824389747591 $484 $611 forward 7 unknown #
coedge $-1 $492 $346 $349 $497 reversed $482 $-1 #
coedge $-1 $346 $491 $607 $612 forward $482 $-1 #
vertex $-1 $490 $613 #
straight-curve $-1 47.72484511856441 -16.580656605556118 7.8133378408716814 0 0.7313536940579346 0.68199836817093118 I I #
vertex $-1 $490 $614 #
straight-curve $-1 27.627237796702865 -21.552136316200247 3.177357907220582 0 0.7313536940579346 0.68199836817093118 I I #
edge $-1 $615 -21.552136316200237 $350 -17.317512862929611 $491 $616 forward 7 unknown #
point $-1 47.72484511856441 -17.317512862929611 7.1262082492825058 #
point $-1 27.627237796702865 -17.317512862929611 7.1262082492825058 #
edge $-1 $617 1 $617 0 $353 $-1 forward 7 unknown #
vertex $-1 $354 $618 #
ellipse-curve $-1 33.369411317234743 -18.293200074224 3.9275406966152007 0 -0.68199836817093118 0.7313536940579346 1 0 0 1 I I #
point $-1 34.369411317234743 -19.434824589564911 5.1517830782515341 #
edge $-1 $619 1 $619 0 $357 $-1 forward 7 unknown #
vertex $-1 $358 $620 #
ellipse-curve $-1 41.982671598032546 -18.293200074224 3.9275406966152007 0 -0.68199836817093118 0.7313536940579346 1 0 0 1 I I #
point $-1 42.982671598032546 -19.434824589564911 5.1517830782515341 #
loop $-1 $-1 $369 $361 #
plane-surface $-1 0 21.552136316200237 0 0 -1 0 0 0 -1 forward_v I I I I #
coedge $-1 $511 $364 $366 $515 reversed $237 $-1 #
coedge $-1 $364 $510 $621 $622 reversed $237 $-1 #
coedge $-1 $372 $367 $364 $513 forward $362 $-1 #
edge $-1 $516 -10.244587277548675 $623 -6.009963824278028 $512 $624 forward 7 unknown #
coedge $-1 $366 $365 $519 $625 reversed $149 $-1 #
edge $-1 $626 -43.104272632400473 $516 -37.314155637469156 $510 $627 forward 7 unknown #
vertex $-1 $368 $628 #
straight-curve $-1 -15.483689908749717 17.317512862929593 7.1262082492825058 1 0 0 I I #
coedge $-1 $621 $369 $372 $523 reversed $508 $-1 #
coedge $-1 $369 $621 $514 $625 forward $508 $-1 #
vertex $-1 $370 $629 #
straight-curve $-1 -41.016183478430207 21.552136316200237 51.190942527661178 0 0 1 I I #
straight-curve $-1 -41.016183478430207 -9.9723327031861828 32.574401503712622 0 0.7313536940579346 -0.68199836817093118 I I #
edge $-1 $623 20.918576156568662 $373 41.016183478430207 $518 $630 forward 7 unknown #
point $-1 -41.016183478430207 21.552136316200237 7.1262082492825058 #
point $-1 -41.016183478430207 17.31751286292959 7.1262082492825058 #
edge $-1 $631 1 $631 0 $376 $-1 forward 7 unknown #
vertex $-1 $377 $632 #
ellipse-curve $-1 -35.274009957898336 18.293200074223996 3.9275406966151989 0 0.68199836817093118 0.7313536940579346 1 0 0 1 I I #
point $-1 -34.274009957898336 19.434824589564908 5.1517830782515324 #
edge $-1 $633 1 $633 0 $380 $-1 forward 7 unknown #
vertex $-1 $381 $634 #
ellipse-curve $-1 -26.660749677100529 18.293200074223996 3.9275406966151989 0 0.68199836817093118 0.7313536940579346 1 0 0 1 I I #
point $-1 -25.660749677100529 19.434824589564908 5.1517830782515324 #
plane-surface $-1 0 21.552136316200237 0 0 -1 0 0 0 -1 forward_v I I I I #
coedge $-1 $635 $387 $392 $541 forward $259 $-1 #
coedge $-1 $387 $635 $538 $636 forward $259 $-1 #
edge $-1 $539 6.009963824278028 $546 10.244587277548675 $387 $637 forward 7 unknown #
coedge $-1 $396 $390 $536 $636 reversed $397 $-1 #
vertex $-1 $537 $638 #
straight-curve $-1 27.627237796702865 21.552136316200237 51.190942527661178 0 0 1 I I #
edge $-1 $546 8.789217067886046 $544 28.886824389747591 $535 $639 forward 7 unknown #
coedge $-1 $543 $393 $396 $548 reversed $385 $-1 #
coedge $-1 $393 $542 $635 $640 reversed $385 $-1 #
vertex $-1 $640 $641 #
straight-curve $-1 47.72484511856441 0.81842209586289716 22.511859639117695 0 0.7313536940579346 -0.68199836817093118 I I #
vertex $-1 $541 $642 #
straight-curve $-1 27.627237796702865 -9.9723327031861828 32.574401503712622 0 0.7313536940579346 -0.68199836817093118 I I #
edge $-1 $643 -7.1262082492825058 $398 -3.17735790722057 $542 $644 forward 7 unknown #
point $-1 47.72484511856441 21.552136316200237 3.17735790722057 #
point $-1 27.627237796702865 21.552136316200237 3.1773579072205713 #
edge $-1 $645 1 $645 0 $401 $-1 forward 7 unknown #
vertex $-1 $402 $646 #
ellipse-curve $-1 33.369411317234743 18.293200074223996 3.9275406966151989 0 0.68199836817093118 0.7313536940579346 1 0 0 1 I I #
point $-1 34.369411317234743 19.434824589564908 5.1517830782515324 #
edge $-1 $647 1 $647 0 $405 $-1 forward 7 unknown #
vertex $-1 $406 $648 #
ellipse-curve $-1 41.982671598032546 18.293200074223996 3.9275406966151989 0 0.68199836817093118 0.7313536940579346 1 0 0 1 I I #
point $-1 42.982671598032546 19.434824589564908 5.1517830782515324 #
plane-surface $-1 47.72484511856441 0 0 -1 0 0 0 0 1 forward_v I I I I #
coedge $-1 $412 $569 $415 $563 reversed $281 $-1 #
vertex $-1 $563 $649 #
straight-curve $-1 -47.72484511856441 -21.552136316200237 0 0 0 -1 I I #
edge $-1 $561 -21.552136316200237 $565 21.552136316200237 $560 $650 forward 7 unknown #
straight-curve $-1 0 -21.552136316200237 -7.1262082492825058 -1 0 0 I I #
vertex $-1 $418 $651 #
straight-curve $-1 0 21.552136316200237 -7.1262082492825058 1 0 0 I I #
point $-1 47.72484511856441 21.552136316200237 -7.1262082492825058 #
point $-1 47.72484511856441 -21.552136316200237 -7.1262082492825058 #
coedge $-1 $560 $422 $425 $571 forward $281 $-1 #
straight-curve $-1 -47.72484511856441 0 7.1262082492825058 0 -1 0 I I #
edge $-1 $426 -7.1262082492825058 $565 7.1262082492825058 $425 $652 forward 7 unknown #
point $-1 -47.72484511856441 21.552136316200237 7.1262082492825058 #
point $-1 -47.72484511856441 -21.552136316200237 7.1262082492825058 #
straight-curve $-1 47.72484511856441 -21.552136316200237 0 0 0 -1 I I #
straight-curve $-1 47.72484511856441 21.552136316200237 0 0 0 -1 I I #
plane-surface $-1 0 -21.552136316200237 0 0 1 0 0 0 1 forward_v I I I I #
coedge $-1 $653 $438 $580 $654 reversed $300 $-1 #
coedge $-1 $438 $653 $452 $591 reversed $300 $-1 #
edge $-1 $583 -1.5 $581 1.5 $439 $655 forward 7 unknown #
coedge $-1 $440 $586 $577 $654 forward $436 $-1 #
vertex $-1 $441 $656 #
straight-curve $-1 0 21.552136316200237 -7.1262082492825058 1 0 0 I I #
vertex $-1 $442 $657 #
straight-curve $-1 -51.079175938631508 21.552136316200237 -4.1262082492825058 -1 0 0 I I #
point $-1 -47.72484511856441 21.552136316200237 -7.1262082492825058 #
coedge $-1 $580 $445 $448 $589 forward $436 $-1 #
straight-curve $-1 -47.72484511856441 0 -7.1262082492825058 0 -1 0 I I #
coedge $-1 $448 $447 $653 $658 forward $449 $-1 #
edge $-1 $450 -3.3543308200670978 $659 3.3543308200671049 $448 $660 forward 7 unknown #
point $-1 -47.72484511856441 -21.552136316200237 -7.1262082492825058 #
edge $-1 $583 -21.552136316200237 $592 21.552136316200237 $578 $661 forward 7 unknown #
vertex $-1 $591 $662 #
straight-curve $-1 -51.079175938631508 -21.552136316200237 -4.1262082492825058 1 0 0 I I #
edge $-1 $595 29.366212480132653 $598 33.315062822194569 $457 $663 forward 7 unknown #
vertex $-1 $471 $664 #
straight-curve $-1 -41.016183478430207 -43.32433465017148 7.1262082492825058 0 -1 0 I I #
edge $-1 $598 -25.53249356968049 $468 -5.4348862478189446 $467 $665 forward 7 unknown #
vertex $-1 $597 $666 #
straight-curve $-1 -41.016183478430207 -21.552136316200247 3.177357907220582 0 0.7313536940579346 0.68199836817093118 I I #
point $-1 -41.016183478430207 -17.317512862929611 7.1262082492825058 #
point $-1 -20.918576156568662 -21.552136316200237 3.1773579072205917 #
straight-curve $-1 0 -21.552136316200237 7.1262082492825058 1 0 0 I I #
vertex $-1 $474 $667 #
point $-1 -34.274009957898336 -18.293200074224 3.9275406966152007 #
vertex $-1 $478 $668 #
point $-1 -25.660749677100529 -18.293200074224 3.9275406966152007 #
coedge $-1 $485 $484 $492 $612 reversed $215 $-1 #
edge $-1 $488 27.627237796702865 $615 47.72484511856441 $485 $669 forward 7 unknown #
straight-curve $-1 27.627237796702865 -21.552136316200233 36.492420729415159 0 0 -1 I I #
point $-1 27.627237796702865 -21.552136316200237 7.1262082492825058 #
straight-curve $-1 18.838020728816819 -21.552136316200237 3.1773579072205909 1 0 0 I I #
edge $-1 $615 -7.1262082492825058 $493 -3.1773579072205917 $492 $670 forward 7 unknown #
point $-1 47.72484511856441 -21.552136316200237 3.1773579072205917 #
point $-1 27.627237796702865 -21.552136316200237 3.1773579072205917 #
vertex $-1 $497 $671 #
straight-curve $-1 47.72484511856441 0 7.1262082492825058 0 1 0 I I #
vertex $-1 $500 $672 #
point $-1 34.369411317234743 -18.293200074224 3.9275406966152007 #
vertex $-1 $504 $673 #
point $-1 42.982671598032546 -18.293200074224 3.9275406966152007 #
coedge $-1 $519 $518 $511 $622 forward $508 $-1 #
edge $-1 $623 44.064734278378673 $626 48.013584620440611 $621 $674 forward 7 unknown #
vertex $-1 $523 $675 #
straight-curve $-1 -20.918576156568662 27.562100140478265 7.1262082492825058 0 1 0 I I #
edge $-1 $626 5.4348862478189446 $520 25.53249356968049 $519 $676 forward 7 unknown #
vertex $-1 $625 $677 #
straight-curve $-1 -20.918576156568662 -9.9723327031861828 32.574401503712622 0 -0.7313536940579346 0.68199836817093118 I I #
point $-1 -20.918576156568662 17.31751286292959 7.1262082492825058 #
point $-1 -41.016183478430207 21.552136316200237 3.1773579072205713 #
straight-curve $-1 0 21.552136316200237 7.1262082492825058 -1 0 0 I I #
vertex $-1 $526 $678 #
point $-1 -34.274009957898336 18.293200074223996 3.9275406966151989 #
vertex $-1 $530 $679 #
point $-1 -25.660749677100529 18.293200074223996 3.9275406966151989 #
coedge $-1 $536 $535 $543 $640 forward $259 $-1 #
edge $-1 $643 -47.72484511856441 $539 -27.627237796702865 $538 $680 forward 7 unknown #
straight-curve $-1 27.627237796702865 27.562100140478265 7.1262082492825058 0 -1 0 I I #
point $-1 27.627237796702865 21.552136316200237 7.1262082492825058 #
straight-curve $-1 18.838020728816819 17.317512862929593 7.1262082492825058 1 0 0 I I #
edge $-1 $544 17.31751286292959 $643 21.552136316200237 $543 $681 forward 7 unknown #
point $-1 47.72484511856441 17.31751286292959 7.1262082492825058 #
point $-1 27.627237796702865 17.31751286292959 7.1262082492825058 #
vertex $-1 $640 $682 #
straight-curve $-1 47.72484511856441 21.552136316200237 0 0 0 -1 I I #
vertex $-1 $551 $683 #
point $-1 34.369411317234743 18.293200074223996 3.9275406966151989 #
vertex $-1 $555 $684 #
point $-1 42.982671598032546 18.293200074223996 3.9275406966151989 #
point $-1 -47.72484511856441 -21.552136316200237 -7.1262082492825058 #
straight-curve $-1 -47.72484511856441 0 -7.1262082492825058 0 1 0 I I #
point $-1 -47.72484511856441 21.552136316200237 -7.1262082492825058 #
straight-curve $-1 -47.72484511856441 21.552136316200237 0 0 0 -1 I I #
coedge $-1 $578 $577 $588 $658 reversed $300 $-1 #
edge $-1 $659 -21.552136316200237 $581 21.552136316200237 $577 $685 forward 7 unknown #
straight-curve $-1 -54.433506758698613 21.552136316200237 -5.6262082492825058 0 0 -1 I I #
point $-1 -54.433506758698613 21.552136316200237 -7.1262082492825058 #
point $-1 -54.433506758698613 21.552136316200237 -4.1262082492825058 #
edge $-1 $592 -1.5 $659 1.5 $653 $686 forward 7 unknown #
vertex $-1 $654 $687 #
straight-curve $-1 -51.079175938631508 -21.552136316200237 -7.1262082492825058 -1 0 0 I I #
straight-curve $-1 -54.433506758698613 0 -4.1262082492825058 0 -1 0 I I #
point $-1 -54.433506758698613 -21.552136316200237 -4.1262082492825058 #
straight-curve $-1 -41.016183478430207 -21.552136316200233 36.492420729415159 0 0 -1 I I #
point $-1 -41.016183478430207 -21.552136316200237 7.1262082492825058 #
straight-curve $-1 -15.483689908749717 -21.552136316200237 3.1773579072205909 1 0 0 I I #
point $-1 -41.016183478430207 -21.552136316200237 3.1773579072205917 #
point $-1 -35.274009957898336 -17.61120170605307 3.1961870025572656 #
point $-1 -26.660749677100529 -17.61120170605307 3.1961870025572656 #
straight-curve $-1 0 -21.552136316200237 7.1262082492825058 1 0 0 I I #
straight-curve $-1 47.72484511856441 -21.552136316200237 0 0 0 -1 I I #
point $-1 47.72484511856441 -21.552136316200237 7.1262082492825058 #
point $-1 33.369411317234743 -17.61120170605307 3.1961870025572656 #
point $-1 41.982671598032546 -17.61120170605307 3.1961870025572656 #
straight-curve $-1 -20.918576156568662 21.552136316200237 51.190942527661178 0 0 -1 I I #
point $-1 -20.918576156568662 21.552136316200237 7.1262082492825058 #
straight-curve $-1 -15.483689908749717 21.552136316200233 3.1773579072205749 -1 0 0 I I #
point $-1 -20.918576156568662 21.552136316200237 3.1773579072205713 #
point $-1 -35.274009957898336 17.611201706053066 3.1961870025572638 #
point $-1 -26.660749677100529 17.611201706053066 3.1961870025572638 #
straight-curve $-1 0 21.552136316200237 7.1262082492825058 -1 0 0 I I #
straight-curve $-1 47.72484511856441 0 7.1262082492825058 0 1 0 I I #
point $-1 47.72484511856441 21.552136316200237 7.1262082492825058 #
point $-1 33.369411317234743 17.611201706053066 3.1961870025572638 #
point $-1 41.982671598032546 17.611201706053066 3.1961870025572638 #
straight-curve $-1 -54.433506758698613 0 -7.1262082492825058 0 1 0 I I #
straight-curve $-1 -54.433506758698613 -21.552136316200237 -5.6262082492825058 0 0 -1 I I #
point $-1 -54.433506758698613 -21.552136316200237 -7.1262082492825058 #
End-of-ACIS-data 