500 0 4 0           
7 Unknown 11 ACIS 5.0 NT 24 Thu Mar 25 19:32:49 1999 
-1 9.9999999999999995e-007 1e-010 
body $-1 $4 $-1 $5 #
body $-1 $6 $-1 $7 #
body $-1 $8 $-1 $9 #
body $-1 $10 $-1 $11 #
lump $-1 $-1 $12 $0 #
transform $-1 1 0 0 0 1 0 0 0 1 78.76705221716972 34.487358258127657 7.2422715590129219 1 rotate no_reflect no_shear #
lump $-1 $-1 $13 $1 #
transform $-1 1 0 0 0 1 0 0 0 1 78.76705221716972 34.487358258127657 7.2422715590129219 1 rotate no_reflect no_shear #
lump $-1 $-1 $14 $2 #
transform $-1 1 0 0 0 1 0 0 0 1 78.76705221716972 34.487358258127657 7.2422715590129219 1 rotate no_reflect no_shear #
lump $-1 $-1 $15 $3 #
transform $-1 1 0 0 0 1 0 0 0 1 78.76705221716972 34.487358258127657 7.2422715590129219 1 rotate no_reflect no_shear #
shell $-1 $-1 $-1 $16 $-1 $4 #
shell $-1 $-1 $-1 $17 $-1 $6 #
shell $-1 $-1 $-1 $18 $-1 $8 #
shell $-1 $-1 $-1 $19 $-1 $10 #
face $-1 $20 $21 $12 $-1 $22 forward single #
face $-1 $23 $24 $13 $-1 $25 reversed single #
face $-1 $26 $27 $14 $-1 $28 forward single #
face $-1 $29 $30 $15 $-1 $31 reversed single #
face $-1 $32 $33 $12 $-1 $34 reversed single #
loop $-1 $-1 $35 $16 #
plane-surface $-1 0 0 7.2422715590129219 0 0 1 1 0 0 forward_v I I I I #
face $-1 $36 $37 $13 $-1 $38 reversed single #
loop $-1 $-1 $39 $17 #
plane-surface $-1 -83.291013056970925 0 4.2422715590129219 0 0 1 1 0 0 forward_v I I I I #
face $-1 $40 $41 $14 $-1 $42 forward single #
loop $-1 $-1 $43 $18 #
plane-surface $-1 94.307881265306804 27.771673301692985 222.74520962462486 0 -1 0 -0.75470958851134928 0 -0.65605901945558964 forward_v I I I I #
face $-1 $44 $45 $15 $-1 $46 reversed single #
loop $-1 $47 $48 $19 #
cone-surface $-1 74.427925993849485 22.867115644689015 2.6467485228055123 -0.75470958851134928 0 -0.65605901945558964 0.98408852918338452 0 -1.132064382767024 1 I I 0 1 1.5 forward I I I I #
face $-1 $49 $50 $12 $-1 $51 reversed single #
loop $-1 $-1 $52 $20 #
plane-surface $-1 0 0 -7.2422715590129219 0 0 1 1 0 0 forward_v I I I I #
coedge $-1 $53 $54 $55 $56 forward $21 $-1 #
face $-1 $57 $58 $13 $-1 $59 forward single #
loop $-1 $-1 $60 $23 #
plane-surface $-1 -87.814973896772131 0 5.7422715590129219 1 0 0 0 0 -1 forward_v I I I I #
coedge $-1 $61 $62 $63 $64 reversed $24 $-1 #
face $-1 $65 $66 $14 $-1 $67 forward single #
loop $-1 $-1 $68 $26 #
plane-surface $-1 -24.584617868837441 22.867115644689015 119.39353953861767 0.75470958851134928 0 0.65605901945558964 0.65605901945558964 0 -0.75470958851134928 forward_v I I I I #
coedge $-1 $69 $70 $71 $72 reversed $27 $-1 #
face $-1 $73 $74 $15 $-1 $75 forward single #
loop $-1 $76 $77 $29 #
cone-surface $-1 72.452798923980168 22.867115644689015 0.92979679927620218 -0.75470958851134928 0 -0.65605901945558964 0.49204426459169226 0 -0.56603219138351202 1 I I -0.70710678118654757 0.70710678118654757 0.75 forward I I I I #
loop $-1 $-1 $78 $19 #
coedge $-1 $48 $48 $79 $80 reversed $30 $-1 #
face $-1 $81 $82 $12 $-1 $83 reversed single #
loop $-1 $-1 $84 $32 #
plane-surface $-1 0 -34.487358258127657 0 0 1 0 0 0 1 forward_v I I I I #
coedge $-1 $85 $86 $87 $88 forward $33 $-1 #
coedge $-1 $89 $35 $90 $91 forward $21 $-1 #
coedge $-1 $35 $89 $92 $93 forward $21 $-1 #
coedge $-1 $94 $95 $35 $56 reversed $96 $-1 #
edge $-1 $97 -34.487358258127657 $98 34.487358258127657 $55 $99 forward 7 unknown #
face $-1 $100 $101 $13 $-1 $102 reversed single #
loop $-1 $-1 $103 $36 #
plane-surface $-1 0 0 7.2422715590129219 0 0 1 1 0 0 forward_v I I I I #
coedge $-1 $104 $105 $106 $107 forward $37 $-1 #
coedge $-1 $108 $39 $109 $110 forward $24 $-1 #
coedge $-1 $39 $108 $111 $112 forward $24 $-1 #
coedge $-1 $113 $114 $39 $64 forward $115 $-1 #
edge $-1 $116 -34.487358258127657 $117 34.487358258127657 $63 $118 forward 7 unknown #
face $-1 $119 $120 $14 $-1 $121 forward single #
loop $-1 $-1 $122 $40 #
plane-surface $-1 94.307881265306804 17.962557987685045 222.74520962462486 0 1 0 0.75470958851134928 0 0.65605901945558964 forward_v I I I I #
coedge $-1 $123 $124 $125 $126 reversed $41 $-1 #
coedge $-1 $70 $43 $124 $127 forward $27 $-1 #
coedge $-1 $43 $69 $128 $129 reversed $27 $-1 #
coedge $-1 $130 $125 $43 $72 forward $120 $-1 #
edge $-1 $131 25.753048894847552 $132 31.613111584516318 $71 $133 forward 7 unknown #
face $-1 $134 $135 $15 $-1 $136 forward single #
loop $-1 $-1 $137 $44 #
plane-surface $-1 94.307881265306804 27.771673301692985 222.74520962462486 0 -1 0 -0.75470958851134928 0 -0.65605901945558964 forward_v I I I I #
loop $-1 $-1 $138 $29 #
coedge $-1 $77 $77 $78 $139 forward $45 $-1 #
coedge $-1 $78 $78 $77 $139 reversed $47 $-1 #
coedge $-1 $79 $79 $48 $80 forward $135 $-1 #
edge $-1 $140 0 $140 6.2831853071796004 $79 $141 forward 7 unknown #
face $-1 $142 $143 $12 $-1 $144 reversed single #
loop $-1 $-1 $145 $49 #
plane-surface $-1 -78.76705221716972 0 0 1 0 0 0 0 -1 forward_v I I I I #
coedge $-1 $146 $92 $147 $148 forward $50 $-1 #
coedge $-1 $149 $52 $146 $150 forward $33 $-1 #
coedge $-1 $52 $149 $151 $152 forward $33 $-1 #
coedge $-1 $95 $94 $52 $88 reversed $96 $-1 #
edge $-1 $153 -34.487358258127657 $154 34.487358258127657 $87 $155 forward 7 unknown #
coedge $-1 $54 $53 $156 $157 forward $21 $-1 #
coedge $-1 $158 $159 $53 $91 reversed $143 $-1 #
edge $-1 $98 -78.76705221716972 $160 78.76705221716972 $90 $161 forward 7 unknown #
coedge $-1 $84 $162 $54 $93 reversed $50 $-1 #
edge $-1 $163 -78.76705221716972 $97 78.76705221716972 $92 $164 forward 7 unknown #
coedge $-1 $87 $55 $162 $165 forward $96 $-1 #
coedge $-1 $55 $87 $158 $166 reversed $96 $-1 #
loop $-1 $-1 $94 $142 #
vertex $-1 $56 $167 #
vertex $-1 $56 $168 #
straight-curve $-1 78.76705221716972 0 7.2422715590129219 0 1 0 I I #
face $-1 $169 $170 $13 $-1 $171 reversed single #
loop $-1 $-1 $172 $57 #
plane-surface $-1 0 0 -7.2422715590129219 0 0 1 1 0 0 forward_v I I I I #
coedge $-1 $173 $174 $175 $176 forward $58 $-1 #
coedge $-1 $177 $60 $108 $178 reversed $37 $-1 #
coedge $-1 $60 $177 $179 $180 reversed $37 $-1 #
coedge $-1 $181 $111 $60 $107 reversed $182 $-1 #
edge $-1 $183 -1.5 $184 1.5 $106 $185 forward 7 unknown #
coedge $-1 $62 $61 $104 $178 forward $24 $-1 #
coedge $-1 $186 $187 $61 $110 reversed $170 $-1 #
edge $-1 $116 -4.5239608398012052 $188 4.5239608398012052 $109 $189 forward 7 unknown #
coedge $-1 $106 $190 $62 $112 reversed $182 $-1 #
edge $-1 $184 -4.5239608398012052 $117 4.5239608398012052 $111 $191 forward 7 unknown #
coedge $-1 $192 $63 $190 $193 forward $115 $-1 #
coedge $-1 $63 $192 $186 $194 reversed $115 $-1 #
loop $-1 $-1 $63 $169 #
vertex $-1 $194 $195 #
vertex $-1 $193 $196 #
straight-curve $-1 -78.76705221716972 0 4.2422715590129219 0 1 0 I I #
face $-1 $197 $198 $14 $-1 $199 reversed single #
loop $-1 $-1 $200 $65 #
plane-surface $-1 0 0 7.2422715590129219 0 0 1 1 0 0 forward_v I I I I #
coedge $-1 $201 $202 $200 $203 reversed $66 $-1 #
coedge $-1 $204 $68 $202 $205 reversed $41 $-1 #
coedge $-1 $68 $204 $69 $127 reversed $41 $-1 #
coedge $-1 $71 $200 $68 $126 forward $120 $-1 #
edge $-1 $206 6.5290001653405376 $131 16.338115479348478 $125 $207 forward 7 unknown #
edge $-1 $131 148.6018856615047 $208 157.53410443433944 $69 $209 forward 7 unknown #
coedge $-1 $210 $211 $70 $129 forward $212 $-1 #
edge $-1 $132 104.13033325329951 $208 110.87156440783897 $128 $213 forward 7 unknown #
coedge $-1 $214 $71 $211 $215 forward $120 $-1 #
vertex $-1 $126 $216 #
vertex $-1 $215 $217 #
straight-curve $-1 47.153940632653402 27.771673301692985 7.2422715590129201 1 0 0 I I #
face $-1 $218 $219 $15 $-1 $220 forward single #
loop $-1 $221 $79 $73 #
plane-surface $-1 -24.584617868837441 22.867115644689015 119.39353953861767 0.75470958851134928 0 0.65605901945558964 0.65605901945558964 0 -0.75470958851134928 forward_v I I I I #
coedge $-1 $222 $223 $224 $225 reversed $74 $-1 #
coedge $-1 $138 $138 $-1 $226 forward $76 $-1 #
edge $-1 $227 0 $227 6.2831853071796004 $77 $228 forward 7 unknown #
vertex $-1 $80 $229 #
ellipse-curve $-1 75.837020872335358 22.867115644689015 3.8716559817431841 -0.75470958851134928 0 -0.65605901945558964 0.98408852918338452 0 -1.132064382767024 1 I I #
face $-1 $-1 $96 $12 $-1 $230 reversed single #
loop $-1 $-1 $158 $81 #
plane-surface $-1 0 34.487358258127657 0 0 -1 0 0 0 -1 forward_v I I I I #
coedge $-1 $231 $156 $159 $232 forward $82 $-1 #
coedge $-1 $162 $84 $85 $150 reversed $50 $-1 #
coedge $-1 $156 $231 $84 $148 reversed $82 $-1 #
edge $-1 $163 -7.2422715590129219 $233 7.2422715590129219 $147 $234 forward 7 unknown #
coedge $-1 $86 $85 $231 $235 forward $33 $-1 #
edge $-1 $154 -78.76705221716972 $233 78.76705221716972 $146 $236 forward 7 unknown #
coedge $-1 $159 $158 $86 $152 reversed $143 $-1 #
edge $-1 $237 -78.76705221716972 $153 78.76705221716972 $151 $238 forward 7 unknown #
vertex $-1 $88 $239 #
vertex $-1 $165 $240 #
straight-curve $-1 78.76705221716972 0 -7.2422715590129219 0 -1 0 I I #
coedge $-1 $145 $147 $89 $157 reversed $82 $-1 #
edge $-1 $160 -34.487358258127657 $163 34.487358258127657 $156 $241 forward 7 unknown #
coedge $-1 $151 $90 $95 $166 forward $143 $-1 #
coedge $-1 $90 $151 $145 $232 reversed $143 $-1 #
vertex $-1 $91 $242 #
straight-curve $-1 0 34.487358258127657 7.2422715590129219 -1 0 0 I I #
coedge $-1 $92 $146 $94 $165 reversed $50 $-1 #
vertex $-1 $157 $243 #
straight-curve $-1 0 -34.487358258127657 7.2422715590129219 1 0 0 I I #
edge $-1 $97 -7.2422715590129219 $154 7.2422715590129219 $94 $244 forward 7 unknown #
edge $-1 $98 -7.2422715590129219 $153 7.2422715590129219 $95 $245 forward 7 unknown #
point $-1 78.76705221716972 -34.487358258127657 7.2422715590129219 #
point $-1 78.76705221716972 34.487358258127657 7.2422715590129219 #
face $-1 $246 $115 $13 $-1 $247 reversed single #
loop $-1 $-1 $186 $100 #
plane-surface $-1 0 -34.487358258127657 0 0 1 0 0 0 1 forward_v I I I I #
coedge $-1 $248 $249 $250 $251 forward $101 $-1 #
coedge $-1 $179 $103 $181 $252 forward $58 $-1 #
coedge $-1 $103 $179 $253 $254 forward $58 $-1 #
coedge $-1 $255 $256 $103 $176 reversed $257 $-1 #
edge $-1 $258 -34.487358258127657 $259 34.487358258127657 $175 $260 forward 7 unknown #
coedge $-1 $105 $104 $187 $261 reversed $37 $-1 #
edge $-1 $188 -34.487358258127657 $184 34.487358258127657 $104 $262 forward 7 unknown #
coedge $-1 $174 $173 $105 $180 forward $58 $-1 #
edge $-1 $183 -34.487358258127657 $263 34.487358258127657 $105 $264 forward 7 unknown #
coedge $-1 $265 $106 $173 $252 reversed $182 $-1 #
loop $-1 $-1 $265 $246 #
vertex $-1 $252 $266 #
vertex $-1 $112 $267 #
straight-curve $-1 -87.814973896772131 34.487358258127657 5.7422715590129219 0 0 -1 I I #
coedge $-1 $268 $109 $114 $194 forward $170 $-1 #
coedge $-1 $109 $253 $177 $261 forward $170 $-1 #
vertex $-1 $178 $269 #
straight-curve $-1 -83.291013056970925 -34.487358258127657 4.2422715590129219 -1 0 0 I I #
coedge $-1 $111 $270 $113 $193 reversed $182 $-1 #
straight-curve $-1 -83.291013056970925 34.487358258127657 4.2422715590129219 1 0 0 I I #
coedge $-1 $114 $113 $271 $272 reversed $115 $-1 #
edge $-1 $117 -4.2422715590129219 $273 7.2422715590129219 $190 $274 forward 7 unknown #
edge $-1 $116 -4.2422715590129219 $275 7.2422715590129219 $114 $276 forward 7 unknown #
point $-1 -78.76705221716972 -34.487358258127657 4.2422715590129219 #
point $-1 -78.76705221716972 34.487358258127657 4.2422715590129219 #
face $-1 $277 $278 $14 $-1 $279 reversed single #
loop $-1 $-1 $280 $119 #
plane-surface $-1 -83.291013056970925 0 4.2422715590129219 0 0 1 1 0 0 forward_v I I I I #
coedge $-1 $125 $281 $122 $203 forward $120 $-1 #
coedge $-1 $202 $122 $282 $283 reversed $66 $-1 #
coedge $-1 $122 $201 $123 $205 forward $66 $-1 #
edge $-1 $284 -31.613111584516318 $206 -25.753048894847552 $200 $285 forward 7 unknown #
coedge $-1 $124 $123 $210 $286 reversed $41 $-1 #
edge $-1 $287 -157.53410443433944 $206 -148.6018856615047 $202 $288 forward 7 unknown #
vertex $-1 $126 $289 #
straight-curve $-1 72.906989527500954 11.433557822344508 7.2422715590129201 0 1 0 I I #
vertex $-1 $286 $290 #
straight-curve $-1 -24.584617868837441 27.771673301692985 119.39353953861767 0.65605901945558964 0 -0.75470958851134928 I I #
coedge $-1 $282 $128 $204 $286 forward $212 $-1 #
coedge $-1 $128 $291 $130 $215 reversed $212 $-1 #
loop $-1 $-1 $282 $292 #
straight-curve $-1 78.76705221716972 27.771673301692985 111.37260481231243 0 0 -1 I I #
coedge $-1 $293 $130 $294 $295 forward $120 $-1 #
edge $-1 $132 27.771673301692985 $296 34.487358258127657 $211 $297 forward 7 unknown #
point $-1 72.906989527500954 27.771673301692985 7.2422715590129201 #
point $-1 78.76705221716972 27.771673301692985 7.2422715590129219 #
face $-1 $298 $299 $15 $-1 $300 forward single #
loop $-1 $-1 $301 $134 #
plane-surface $-1 94.307881265306804 17.962557987685045 222.74520962462486 0 1 0 0.75470958851134928 0 0.65605901945558964 forward_v I I I I #
loop $-1 $-1 $302 $73 #
coedge $-1 $223 $137 $303 $304 forward $74 $-1 #
coedge $-1 $137 $222 $305 $306 reversed $74 $-1 #
coedge $-1 $307 $308 $137 $225 forward $299 $-1 #
edge $-1 $309 25.753048894847552 $310 31.613111584516318 $224 $311 forward 7 unknown #
edge $-1 $312 1 $312 0 $138 $-1 forward 7 unknown #
vertex $-1 $139 $313 #
ellipse-curve $-1 73.018831115363682 22.867115644689015 1.4218410638678944 0.75470958851134928 0 0.65605901945558964 0.98408852918338452 0 -1.132064382767024 1 I I #
point $-1 76.821109401518683 22.867115644689015 2.7395915989761064 #
plane-surface $-1 78.76705221716972 0 0 -1 0 0 0 0 1 forward_v I I I I #
coedge $-1 $147 $145 $149 $235 reversed $82 $-1 #
edge $-1 $160 -7.2422715590129219 $237 7.2422715590129219 $159 $314 forward 7 unknown #
vertex $-1 $235 $315 #
straight-curve $-1 -78.76705221716972 -34.487358258127657 0 0 0 -1 I I #
edge $-1 $233 -34.487358258127657 $237 34.487358258127657 $231 $316 forward 7 unknown #
straight-curve $-1 0 -34.487358258127657 -7.2422715590129219 -1 0 0 I I #
vertex $-1 $152 $317 #
straight-curve $-1 0 34.487358258127657 -7.2422715590129219 1 0 0 I I #
point $-1 78.76705221716972 34.487358258127657 -7.2422715590129219 #
point $-1 78.76705221716972 -34.487358258127657 -7.2422715590129219 #
straight-curve $-1 -78.76705221716972 0 7.2422715590129219 0 -1 0 I I #
point $-1 -78.76705221716972 34.487358258127657 7.2422715590129219 #
point $-1 -78.76705221716972 -34.487358258127657 7.2422715590129219 #
straight-curve $-1 78.76705221716972 -34.487358258127657 0 0 0 -1 I I #
straight-curve $-1 78.76705221716972 34.487358258127657 0 0 0 -1 I I #
face $-1 $318 $182 $13 $-1 $319 reversed single #
plane-surface $-1 -78.76705221716972 0 0 1 0 0 0 0 -1 forward_v I I I I #
coedge $-1 $271 $172 $268 $320 forward $101 $-1 #
coedge $-1 $172 $271 $270 $321 forward $101 $-1 #
coedge $-1 $256 $255 $172 $251 reversed $257 $-1 #
edge $-1 $322 -34.487358258127657 $323 34.487358258127657 $250 $324 forward 7 unknown #
edge $-1 $259 -78.76705221716972 $183 87.814973896772131 $181 $325 forward 7 unknown #
coedge $-1 $187 $326 $174 $254 reversed $170 $-1 #
edge $-1 $263 -87.814973896772131 $258 78.76705221716972 $253 $327 forward 7 unknown #
coedge $-1 $250 $175 $326 $328 forward $257 $-1 #
coedge $-1 $175 $250 $265 $329 reversed $257 $-1 #
loop $-1 $-1 $255 $318 #
vertex $-1 $176 $330 #
vertex $-1 $176 $331 #
straight-curve $-1 78.76705221716972 0 7.2422715590129219 0 1 0 I I #
edge $-1 $263 -1.5 $188 1.5 $177 $332 forward 7 unknown #
straight-curve $-1 -87.814973896772131 0 4.2422715590129219 0 1 0 I I #
vertex $-1 $180 $333 #
straight-curve $-1 -87.814973896772131 0 7.2422715590129219 0 -1 0 I I #
coedge $-1 $270 $181 $256 $329 forward $182 $-1 #
point $-1 -87.814973896772131 34.487358258127657 7.2422715590129219 #
point $-1 -87.814973896772131 34.487358258127657 4.2422715590129219 #
coedge $-1 $326 $186 $248 $320 reversed $170 $-1 #
point $-1 -87.814973896772131 -34.487358258127657 4.2422715590129219 #
coedge $-1 $190 $265 $249 $321 reversed $182 $-1 #
coedge $-1 $249 $248 $192 $272 forward $101 $-1 #
edge $-1 $275 -34.487358258127657 $273 34.487358258127657 $192 $334 forward 7 unknown #
vertex $-1 $321 $335 #
straight-curve $-1 -78.76705221716972 34.487358258127657 0 0 0 -1 I I #
vertex $-1 $272 $336 #
straight-curve $-1 -78.76705221716972 -34.487358258127657 0 0 0 -1 I I #
face $-1 $337 $338 $14 $-1 $339 reversed single #
loop $-1 $-1 $340 $197 #
plane-surface $-1 -87.814973896772131 0 5.7422715590129219 1 0 0 0 0 -1 forward_v I I I I #
coedge $-1 $341 $342 $343 $344 reversed $198 $-1 #
coedge $-1 $200 $345 $346 $347 forward $120 $-1 #
coedge $-1 $346 $210 $201 $283 forward $212 $-1 #
edge $-1 $287 -110.87156440783897 $284 -104.13033325329951 $282 $348 forward 7 unknown #
vertex $-1 $283 $349 #
straight-curve $-1 47.153940632653402 17.962557987685045 7.2422715590129201 -1 0 0 I I #
edge $-1 $208 -16.338115479348478 $287 -6.5290001653405376 $210 $350 forward 7 unknown #
vertex $-1 $286 $351 #
straight-curve $-1 -24.584617868837441 17.962557987685045 119.39353953861767 -0.65605901945558964 0 0.75470958851134928 I I #
point $-1 72.906989527500954 17.962557987685045 7.2422715590129201 #
point $-1 78.767052217169734 27.771673301692985 0.5010404044734571 #
coedge $-1 $211 $352 $353 $354 reversed $212 $-1 #
face $-1 $-1 $212 $14 $-1 $355 reversed single #
coedge $-1 $345 $214 $356 $357 forward $120 $-1 #
coedge $-1 $353 $358 $214 $295 reversed $359 $-1 #
edge $-1 $296 -78.76705221716972 $360 87.814973896772131 $294 $361 forward 7 unknown #
vertex $-1 $215 $362 #
straight-curve $-1 78.76705221716972 0 7.2422715590129219 0 1 0 I I #
face $-1 $363 $364 $15 $-1 $365 reversed single #
loop $-1 $-1 $366 $218 #
plane-surface $-1 0 0 7.2422715590129219 0 0 1 1 0 0 forward_v I I I I #
coedge $-1 $367 $368 $366 $369 reversed $219 $-1 #
coedge $-1 $370 $303 $308 $371 reversed $221 $-1 #
coedge $-1 $302 $372 $222 $304 reversed $221 $-1 #
edge $-1 $309 148.6018856615047 $373 157.53410443433944 $222 $374 forward 7 unknown #
coedge $-1 $375 $376 $223 $306 forward $377 $-1 #
edge $-1 $310 104.13033325329951 $373 110.87156440783897 $305 $378 forward 7 unknown #
coedge $-1 $379 $224 $376 $380 forward $299 $-1 #
coedge $-1 $224 $366 $302 $371 forward $299 $-1 #
vertex $-1 $371 $381 #
vertex $-1 $380 $382 #
straight-curve $-1 47.153940632653402 27.771673301692985 7.2422715590129201 1 0 0 I I #
vertex $-1 $226 $383 #
point $-1 74.002919644547063 22.867115644689015 0.2897766811008704 #
straight-curve $-1 -78.76705221716972 34.487358258127657 0 0 0 -1 I I #
point $-1 -78.76705221716972 -34.487358258127657 -7.2422715590129219 #
straight-curve $-1 -78.76705221716972 0 -7.2422715590129219 0 1 0 I I #
point $-1 -78.76705221716972 34.487358258127657 -7.2422715590129219 #
face $-1 $-1 $257 $13 $-1 $384 reversed single #
plane-surface $-1 0 34.487358258127657 0 0 -1 0 0 0 -1 forward_v I I I I #
edge $-1 $323 -78.76705221716972 $275 78.76705221716972 $268 $385 forward 7 unknown #
edge $-1 $273 -78.76705221716972 $322 78.76705221716972 $270 $386 forward 7 unknown #
vertex $-1 $251 $387 #
vertex $-1 $328 $388 #
straight-curve $-1 78.76705221716972 0 -7.2422715590129219 0 -1 0 I I #
straight-curve $-1 0 34.487358258127657 7.2422715590129219 -1 0 0 I I #
coedge $-1 $253 $268 $255 $328 reversed $170 $-1 #
straight-curve $-1 0 -34.487358258127657 7.2422715590129219 1 0 0 I I #
edge $-1 $258 -7.2422715590129219 $323 7.2422715590129219 $255 $389 forward 7 unknown #
edge $-1 $259 -7.2422715590129219 $322 7.2422715590129219 $256 $390 forward 7 unknown #
point $-1 78.76705221716972 -34.487358258127657 7.2422715590129219 #
point $-1 78.76705221716972 34.487358258127657 7.2422715590129219 #
straight-curve $-1 -87.814973896772131 -34.487358258127657 5.7422715590129219 0 0 -1 I I #
point $-1 -87.814973896772131 -34.487358258127657 7.2422715590129219 #
straight-curve $-1 -78.76705221716972 0 -7.2422715590129219 0 1 0 I I #
point $-1 -78.76705221716972 34.487358258127657 -7.2422715590129219 #
point $-1 -78.76705221716972 -34.487358258127657 -7.2422715590129219 #
face $-1 $391 $392 $14 $-1 $393 reversed single #
loop $-1 $-1 $394 $277 #
plane-surface $-1 0 0 -7.2422715590129219 0 0 1 1 0 0 forward_v I I I I #
coedge $-1 $395 $356 $358 $396 forward $278 $-1 #
coedge $-1 $397 $280 $398 $399 forward $198 $-1 #
coedge $-1 $280 $397 $400 $401 forward $198 $-1 #
coedge $-1 $402 $403 $280 $344 forward $404 $-1 #
edge $-1 $405 -34.487358258127657 $406 34.487358258127657 $343 $407 forward 7 unknown #
coedge $-1 $281 $293 $408 $409 forward $120 $-1 #
coedge $-1 $410 $282 $281 $347 reversed $212 $-1 #
edge $-1 $411 -34.487358258127657 $284 17.962557987685045 $346 $297 forward 7 unknown #
straight-curve $-1 78.76705221716972 17.962557987685045 111.37260481231243 0 0 1 I I #
point $-1 78.76705221716972 17.962557987685045 7.2422715590129219 #
straight-curve $-1 78.76705221716972 11.433557822344508 0.50104040447347131 0 -1 0 I I #
point $-1 78.767052217169734 17.962557987685045 0.5010404044734571 #
coedge $-1 $291 $410 $394 $412 reversed $212 $-1 #
coedge $-1 $413 $294 $291 $354 forward $359 $-1 #
edge $-1 $296 -7.2422715590129219 $414 7.2422715590129219 $291 $415 forward 7 unknown #
plane-surface $-1 78.76705221716972 0 0 -1 0 0 0 0 1 forward_v I I I I #
coedge $-1 $340 $416 $293 $357 reversed $278 $-1 #
edge $-1 $360 -34.487358258127657 $417 34.487358258127657 $356 $418 forward 7 unknown #
coedge $-1 $294 $400 $340 $396 reversed $359 $-1 #
loop $-1 $-1 $353 $419 #
vertex $-1 $295 $420 #
straight-curve $-1 0 34.487358258127657 7.2422715590129219 -1 0 0 I I #
point $-1 78.76705221716972 34.487358258127657 7.2422715590129219 #
face $-1 $421 $422 $15 $-1 $423 reversed single #
loop $-1 $-1 $424 $298 #
plane-surface $-1 -83.291013056970925 0 4.2422715590129219 0 0 1 1 0 0 forward_v I I I I #
coedge $-1 $308 $425 $301 $369 forward $299 $-1 #
coedge $-1 $368 $301 $426 $427 reversed $219 $-1 #
coedge $-1 $301 $367 $370 $428 forward $219 $-1 #
edge $-1 $429 -31.613111584516318 $430 -25.753048894847552 $366 $431 forward 7 unknown #
coedge $-1 $372 $302 $368 $428 reversed $221 $-1 #
edge $-1 $430 6.5290001653405376 $309 16.338115479348478 $308 $432 forward 7 unknown #
coedge $-1 $303 $370 $375 $433 reversed $221 $-1 #
vertex $-1 $433 $434 #
straight-curve $-1 -24.584617868837441 27.771673301692985 119.39353953861767 0.65605901945558964 0 -0.75470958851134928 I I #
coedge $-1 $426 $305 $372 $433 forward $377 $-1 #
coedge $-1 $305 $435 $307 $380 reversed $377 $-1 #
loop $-1 $-1 $426 $436 #
straight-curve $-1 78.76705221716972 27.771673301692985 111.37260481231243 0 0 -1 I I #
coedge $-1 $437 $307 $438 $439 forward $299 $-1 #
edge $-1 $310 27.771673301692985 $440 34.487358258127657 $376 $441 forward 7 unknown #
point $-1 72.906989527500954 27.771673301692985 7.2422715590129201 #
point $-1 78.76705221716972 27.771673301692985 7.2422715590129219 #
point $-1 71.886766732596655 22.867115644689015 0.43775253468450992 #
plane-surface $-1 78.76705221716972 0 0 -1 0 0 0 0 1 forward_v I I I I #
straight-curve $-1 0 -34.487358258127657 -7.2422715590129219 -1 0 0 I I #
straight-curve $-1 0 34.487358258127657 -7.2422715590129219 1 0 0 I I #
point $-1 78.76705221716972 34.487358258127657 -7.2422715590129219 #
point $-1 78.76705221716972 -34.487358258127657 -7.2422715590129219 #
straight-curve $-1 78.76705221716972 -34.487358258127657 0 0 0 -1 I I #
straight-curve $-1 78.76705221716972 34.487358258127657 0 0 0 -1 I I #
face $-1 $419 $404 $14 $-1 $442 reversed single #
loop $-1 $-1 $443 $337 #
plane-surface $-1 0 -34.487358258127657 0 0 1 0 0 0 1 forward_v I I I I #
coedge $-1 $444 $445 $352 $412 forward $338 $-1 #
coedge $-1 $416 $340 $397 $446 reversed $278 $-1 #
edge $-1 $360 -1.5 $447 1.5 $358 $448 forward 7 unknown #
coedge $-1 $342 $341 $395 $446 forward $198 $-1 #
coedge $-1 $443 $449 $341 $399 reversed $392 $-1 #
edge $-1 $405 -4.5239608398012052 $450 4.5239608398012052 $398 $451 forward 7 unknown #
coedge $-1 $358 $452 $342 $401 reversed $359 $-1 #
edge $-1 $447 -4.5239608398012052 $406 4.5239608398012052 $400 $453 forward 7 unknown #
coedge $-1 $454 $343 $452 $455 forward $404 $-1 #
coedge $-1 $343 $454 $443 $456 reversed $404 $-1 #
loop $-1 $-1 $343 $391 #
vertex $-1 $456 $457 #
vertex $-1 $455 $458 #
straight-curve $-1 -78.76705221716972 0 4.2422715590129219 0 1 0 I I #
coedge $-1 $449 $459 $345 $409 reversed $392 $-1 #
edge $-1 $417 -87.814973896772131 $411 78.76705221716972 $408 $460 forward 7 unknown #
coedge $-1 $352 $346 $459 $461 forward $212 $-1 #
vertex $-1 $347 $462 #
edge $-1 $414 -34.487358258127657 $463 34.487358258127657 $352 $464 forward 7 unknown #
coedge $-1 $452 $353 $445 $465 reversed $359 $-1 #
vertex $-1 $412 $466 #
straight-curve $-1 78.76705221716972 34.487358258127657 0 0 0 -1 I I #
coedge $-1 $356 $395 $449 $467 reversed $278 $-1 #
vertex $-1 $357 $468 #
straight-curve $-1 -87.814973896772131 0 7.2422715590129219 0 -1 0 I I #
face $-1 $292 $359 $14 $-1 $469 reversed single #
point $-1 -87.814973896772131 34.487358258127657 7.2422715590129219 #
face $-1 $470 $471 $15 $-1 $472 reversed single #
loop $-1 $-1 $473 $363 #
plane-surface $-1 -87.814973896772131 0 5.7422715590129219 1 0 0 0 0 -1 forward_v I I I I #
coedge $-1 $474 $475 $476 $477 reversed $364 $-1 #
coedge $-1 $366 $478 $479 $480 forward $299 $-1 #
coedge $-1 $479 $375 $367 $427 forward $377 $-1 #
edge $-1 $481 -110.87156440783897 $429 -104.13033325329951 $426 $482 forward 7 unknown #
edge $-1 $481 -157.53410443433944 $430 -148.6018856615047 $368 $483 forward 7 unknown #
vertex $-1 $427 $484 #
vertex $-1 $371 $485 #
straight-curve $-1 47.153940632653402 17.962557987685045 7.2422715590129201 -1 0 0 I I #
straight-curve $-1 72.906989527500954 11.433557822344508 7.2422715590129201 0 1 0 I I #
edge $-1 $373 -16.338115479348478 $481 -6.5290001653405376 $375 $486 forward 7 unknown #
point $-1 78.767052217169734 27.771673301692985 0.5010404044734571 #
coedge $-1 $376 $487 $488 $489 reversed $377 $-1 #
face $-1 $-1 $377 $15 $-1 $490 reversed single #
coedge $-1 $478 $379 $491 $492 forward $299 $-1 #
coedge $-1 $488 $493 $379 $439 reversed $494 $-1 #
edge $-1 $440 -78.76705221716972 $495 87.814973896772131 $438 $496 forward 7 unknown #
vertex $-1 $380 $497 #
straight-curve $-1 78.76705221716972 0 7.2422715590129219 0 1 0 I I #
plane-surface $-1 -78.76705221716972 0 0 1 0 0 0 0 -1 forward_v I I I I #
coedge $-1 $498 $398 $403 $456 forward $392 $-1 #
coedge $-1 $499 $394 $498 $500 forward $338 $-1 #
coedge $-1 $394 $499 $413 $465 forward $338 $-1 #
edge $-1 $450 -34.487358258127657 $447 34.487358258127657 $395 $501 forward 7 unknown #
vertex $-1 $401 $502 #
straight-curve $-1 -87.814973896772131 34.487358258127657 5.7422715590129219 0 0 -1 I I #
coedge $-1 $398 $408 $416 $467 forward $392 $-1 #
vertex $-1 $446 $503 #
straight-curve $-1 -83.291013056970925 -34.487358258127657 4.2422715590129219 -1 0 0 I I #
coedge $-1 $400 $413 $402 $455 reversed $359 $-1 #
straight-curve $-1 -83.291013056970925 34.487358258127657 4.2422715590129219 1 0 0 I I #
coedge $-1 $403 $402 $499 $504 reversed $404 $-1 #
edge $-1 $406 -4.2422715590129219 $505 7.2422715590129219 $452 $506 forward 7 unknown #
edge $-1 $405 -4.2422715590129219 $507 7.2422715590129219 $403 $508 forward 7 unknown #
point $-1 -78.76705221716972 -34.487358258127657 4.2422715590129219 #
point $-1 -78.76705221716972 34.487358258127657 4.2422715590129219 #
coedge $-1 $408 $498 $410 $461 reversed $392 $-1 #
straight-curve $-1 0 -34.487358258127657 7.2422715590129219 1 0 0 I I #
edge $-1 $411 -7.2422715590129219 $463 7.2422715590129219 $410 $509 forward 7 unknown #
point $-1 78.76705221716972 -34.487358258127657 7.2422715590129219 #
vertex $-1 $461 $510 #
straight-curve $-1 78.76705221716972 0 -7.2422715590129219 0 -1 0 I I #
edge $-1 $505 -78.76705221716972 $414 78.76705221716972 $413 $511 forward 7 unknown #
point $-1 78.76705221716972 34.487358258127657 -7.2422715590129219 #
edge $-1 $417 -1.5 $450 1.5 $416 $512 forward 7 unknown #
point $-1 -87.814973896772131 -34.487358258127657 7.2422715590129219 #
plane-surface $-1 0 34.487358258127657 0 0 -1 0 0 0 -1 forward_v I I I I #
face $-1 $513 $514 $15 $-1 $515 reversed single #
loop $-1 $-1 $516 $421 #
plane-surface $-1 0 0 -7.2422715590129219 0 0 1 1 0 0 forward_v I I I I #
coedge $-1 $517 $491 $493 $518 forward $422 $-1 #
coedge $-1 $519 $424 $520 $521 forward $364 $-1 #
coedge $-1 $424 $519 $522 $523 forward $364 $-1 #
coedge $-1 $524 $525 $424 $477 forward $526 $-1 #
edge $-1 $527 -34.487358258127657 $528 34.487358258127657 $476 $529 forward 7 unknown #
coedge $-1 $425 $437 $530 $531 forward $299 $-1 #
coedge $-1 $532 $426 $425 $480 reversed $377 $-1 #
edge $-1 $533 -34.487358258127657 $429 17.962557987685045 $479 $441 forward 7 unknown #
vertex $-1 $433 $534 #
straight-curve $-1 78.76705221716972 17.962557987685045 111.37260481231243 0 0 1 I I #
straight-curve $-1 -24.584617868837441 17.962557987685045 119.39353953861767 -0.65605901945558964 0 0.75470958851134928 I I #
point $-1 78.76705221716972 17.962557987685045 7.2422715590129219 #
point $-1 72.906989527500954 17.962557987685045 7.2422715590129201 #
straight-curve $-1 78.76705221716972 11.433557822344508 0.50104040447347131 0 -1 0 I I #
coedge $-1 $435 $532 $516 $535 reversed $377 $-1 #
coedge $-1 $536 $438 $435 $489 forward $494 $-1 #
edge $-1 $440 -7.2422715590129219 $537 7.2422715590129219 $435 $538 forward 7 unknown #
plane-surface $-1 78.76705221716972 0 0 -1 0 0 0 0 1 forward_v I I I I #
coedge $-1 $473 $539 $437 $492 reversed $422 $-1 #
edge $-1 $495 -34.487358258127657 $540 34.487358258127657 $491 $541 forward 7 unknown #
coedge $-1 $438 $522 $473 $518 reversed $494 $-1 #
loop $-1 $-1 $488 $542 #
vertex $-1 $439 $543 #
straight-curve $-1 0 34.487358258127657 7.2422715590129219 -1 0 0 I I #
point $-1 78.76705221716972 34.487358258127657 7.2422715590129219 #
coedge $-1 $459 $443 $444 $500 reversed $392 $-1 #
coedge $-1 $445 $444 $454 $504 forward $338 $-1 #
edge $-1 $463 -78.76705221716972 $507 78.76705221716972 $498 $544 forward 7 unknown #
straight-curve $-1 -87.814973896772131 0 4.2422715590129219 0 1 0 I I #
point $-1 -87.814973896772131 34.487358258127657 4.2422715590129219 #
point $-1 -87.814973896772131 -34.487358258127657 4.2422715590129219 #
edge $-1 $507 -34.487358258127657 $505 34.487358258127657 $454 $545 forward 7 unknown #
vertex $-1 $465 $546 #
straight-curve $-1 -78.76705221716972 34.487358258127657 0 0 0 -1 I I #
vertex $-1 $504 $547 #
straight-curve $-1 -78.76705221716972 -34.487358258127657 0 0 0 -1 I I #
straight-curve $-1 78.76705221716972 -34.487358258127657 0 0 0 -1 I I #
point $-1 78.76705221716972 -34.487358258127657 -7.2422715590129219 #
straight-curve $-1 0 34.487358258127657 -7.2422715590129219 1 0 0 I I #
straight-curve $-1 -87.814973896772131 -34.487358258127657 5.7422715590129219 0 0 -1 I I #
face $-1 $542 $526 $15 $-1 $548 reversed single #
loop $-1 $-1 $549 $470 #
plane-surface $-1 0 -34.487358258127657 0 0 1 0 0 0 1 forward_v I I I I #
coedge $-1 $550 $551 $487 $535 forward $471 $-1 #
coedge $-1 $539 $473 $519 $552 reversed $422 $-1 #
edge $-1 $495 -1.5 $553 1.5 $493 $554 forward 7 unknown #
coedge $-1 $475 $474 $517 $552 forward $364 $-1 #
coedge $-1 $549 $555 $474 $521 reversed $514 $-1 #
edge $-1 $527 -4.5239608398012052 $556 4.5239608398012052 $520 $557 forward 7 unknown #
coedge $-1 $493 $558 $475 $523 reversed $494 $-1 #
edge $-1 $553 -4.5239608398012052 $528 4.5239608398012052 $522 $559 forward 7 unknown #
coedge $-1 $560 $476 $558 $561 forward $526 $-1 #
coedge $-1 $476 $560 $549 $562 reversed $526 $-1 #
loop $-1 $-1 $476 $513 #
vertex $-1 $562 $563 #
vertex $-1 $561 $564 #
straight-curve $-1 -78.76705221716972 0 4.2422715590129219 0 1 0 I I #
coedge $-1 $555 $565 $478 $531 reversed $514 $-1 #
edge $-1 $540 -87.814973896772131 $533 78.76705221716972 $530 $566 forward 7 unknown #
coedge $-1 $487 $479 $565 $567 forward $377 $-1 #
vertex $-1 $480 $568 #
point $-1 78.767052217169734 17.962557987685045 0.5010404044734571 #
edge $-1 $537 -34.487358258127657 $569 34.487358258127657 $487 $570 forward 7 unknown #
coedge $-1 $558 $488 $551 $571 reversed $494 $-1 #
vertex $-1 $535 $572 #
straight-curve $-1 78.76705221716972 34.487358258127657 0 0 0 -1 I I #
coedge $-1 $491 $517 $555 $573 reversed $422 $-1 #
vertex $-1 $492 $574 #
straight-curve $-1 -87.814973896772131 0 7.2422715590129219 0 -1 0 I I #
face $-1 $436 $494 $15 $-1 $575 reversed single #
point $-1 -87.814973896772131 34.487358258127657 7.2422715590129219 #
straight-curve $-1 0 -34.487358258127657 -7.2422715590129219 -1 0 0 I I #
straight-curve $-1 -78.76705221716972 0 -7.2422715590129219 0 1 0 I I #
point $-1 -78.76705221716972 34.487358258127657 -7.2422715590129219 #
point $-1 -78.76705221716972 -34.487358258127657 -7.2422715590129219 #
plane-surface $-1 -78.76705221716972 0 0 1 0 0 0 0 -1 forward_v I I I I #
coedge $-1 $576 $520 $525 $562 forward $514 $-1 #
coedge $-1 $577 $516 $576 $578 forward $471 $-1 #
coedge $-1 $516 $577 $536 $571 forward $471 $-1 #
edge $-1 $556 -34.487358258127657 $553 34.487358258127657 $517 $579 forward 7 unknown #
vertex $-1 $523 $580 #
straight-curve $-1 -87.814973896772131 34.487358258127657 5.7422715590129219 0 0 -1 I I #
coedge $-1 $520 $530 $539 $573 forward $514 $-1 #
vertex $-1 $552 $581 #
straight-curve $-1 -83.291013056970925 -34.487358258127657 4.2422715590129219 -1 0 0 I I #
coedge $-1 $522 $536 $524 $561 reversed $494 $-1 #
straight-curve $-1 -83.291013056970925 34.487358258127657 4.2422715590129219 1 0 0 I I #
coedge $-1 $525 $524 $577 $582 reversed $526 $-1 #
edge $-1 $528 -4.2422715590129219 $583 7.2422715590129219 $558 $584 forward 7 unknown #
edge $-1 $527 -4.2422715590129219 $585 7.2422715590129219 $525 $586 forward 7 unknown #
point $-1 -78.76705221716972 -34.487358258127657 4.2422715590129219 #
point $-1 -78.76705221716972 34.487358258127657 4.2422715590129219 #
coedge $-1 $530 $576 $532 $567 reversed $514 $-1 #
straight-curve $-1 0 -34.487358258127657 7.2422715590129219 1 0 0 I I #
edge $-1 $533 -7.2422715590129219 $569 7.2422715590129219 $532 $587 forward 7 unknown #
point $-1 78.76705221716972 -34.487358258127657 7.2422715590129219 #
vertex $-1 $567 $588 #
straight-curve $-1 78.76705221716972 0 -7.2422715590129219 0 -1 0 I I #
edge $-1 $583 -78.76705221716972 $537 78.76705221716972 $536 $589 forward 7 unknown #
point $-1 78.76705221716972 34.487358258127657 -7.2422715590129219 #
edge $-1 $540 -1.5 $556 1.5 $539 $590 forward 7 unknown #
point $-1 -87.814973896772131 -34.487358258127657 7.2422715590129219 #
plane-surface $-1 0 34.487358258127657 0 0 -1 0 0 0 -1 forward_v I I I I #
coedge $-1 $565 $549 $550 $578 reversed $514 $-1 #
coedge $-1 $551 $550 $560 $582 forward $471 $-1 #
edge $-1 $569 -78.76705221716972 $585 78.76705221716972 $576 $591 forward 7 unknown #
straight-curve $-1 -87.814973896772131 0 4.2422715590129219 0 1 0 I I #
point $-1 -87.814973896772131 34.487358258127657 4.2422715590129219 #
point $-1 -87.814973896772131 -34.487358258127657 4.2422715590129219 #
edge $-1 $585 -34.487358258127657 $583 34.487358258127657 $560 $592 forward 7 unknown #
vertex $-1 $571 $593 #
straight-curve $-1 -78.76705221716972 34.487358258127657 0 0 0 -1 I I #
vertex $-1 $582 $594 #
straight-curve $-1 -78.76705221716972 -34.487358258127657 0 0 0 -1 I I #
straight-curve $-1 78.76705221716972 -34.487358258127657 0 0 0 -1 I I #
point $-1 78.76705221716972 -34.487358258127657 -7.2422715590129219 #
straight-curve $-1 0 34.487358258127657 -7.2422715590129219 1 0 0 I I #
straight-curve $-1 -87.814973896772131 -34.487358258127657 5.7422715590129219 0 0 -1 I I #
straight-curve $-1 0 -34.487358258127657 -7.2422715590129219 -1 0 0 I I #
straight-curve $-1 -78.76705221716972 0 -7.2422715590129219 0 1 0 I I #
point $-1 -78.76705221716972 34.487358258127657 -7.2422715590129219 #
point $-1 -78.76705221716972 -34.487358258127657 -7.2422715590129219 #
End-of-ACIS-data 