500 0 12 0           
7 Unknown 11 ACIS 5.0 NT 24 Fri Mar 26 18:34:44 1999 
-1 9.9999999999999995e-007 1e-010 
body $-1 $12 $-1 $13 #
body $-1 $14 $-1 $15 #
body $-1 $16 $-1 $17 #
body $-1 $18 $-1 $19 #
body $-1 $20 $-1 $21 #
body $-1 $22 $-1 $23 #
body $-1 $24 $-1 $25 #
body $-1 $26 $-1 $27 #
body $-1 $28 $-1 $29 #
body $-1 $30 $-1 $31 #
body $-1 $32 $-1 $33 #
body $-1 $34 $-1 $35 #
lump $-1 $-1 $36 $0 #
transform $-1 1 0 0 0 1 0 0 0 1 66.609698782311469 39.010389769350674 18.950879949630636 1 rotate no_reflect no_shear #
lump $-1 $-1 $37 $1 #
transform $-1 1 0 0 0 1 0 0 0 1 66.609698782311469 39.010389769350674 18.950879949630636 1 rotate no_reflect no_shear #
lump $-1 $-1 $38 $2 #
transform $-1 1 0 0 0 1 0 0 0 1 66.609698782311469 39.010389769350674 18.950879949630636 1 rotate no_reflect no_shear #
lump $-1 $-1 $39 $3 #
transform $-1 1 0 0 0 1 0 0 0 1 66.609698782311469 39.010389769350674 18.950879949630636 1 rotate no_reflect no_shear #
lump $-1 $-1 $40 $4 #
transform $-1 1 0 0 0 1 0 0 0 1 66.609698782311469 39.010389769350674 18.950879949630636 1 rotate no_reflect no_shear #
lump $-1 $-1 $41 $5 #
transform $-1 1 0 0 0 1 0 0 0 1 66.609698782311469 39.010389769350674 18.950879949630636 1 rotate no_reflect no_shear #
lump $-1 $-1 $42 $6 #
transform $-1 1 0 0 0 1 0 0 0 1 66.609698782311469 39.010389769350674 18.950879949630636 1 rotate no_reflect no_shear #
lump $-1 $-1 $43 $7 #
transform $-1 1 0 0 0 1 0 0 0 1 66.609698782311469 39.010389769350674 18.950879949630636 1 rotate no_reflect no_shear #
lump $-1 $-1 $44 $8 #
transform $-1 1 0 0 0 1 0 0 0 1 66.609698782311469 39.010389769350674 18.950879949630636 1 rotate no_reflect no_shear #
lump $-1 $-1 $45 $9 #
transform $-1 1 0 0 0 1 0 0 0 1 66.609698782311469 39.010389769350674 18.950879949630636 1 rotate no_reflect no_shear #
lump $-1 $-1 $46 $10 #
transform $-1 1 0 0 0 1 0 0 0 1 66.609698782311469 39.010389769350674 18.950879949630636 1 rotate no_reflect no_shear #
lump $-1 $-1 $47 $11 #
transform $-1 1 0 0 0 1 0 0 0 1 66.609698782311469 39.010389769350674 18.950879949630636 1 rotate no_reflect no_shear #
shell $-1 $-1 $-1 $48 $-1 $12 #
shell $-1 $-1 $-1 $49 $-1 $14 #
shell $-1 $-1 $-1 $50 $-1 $16 #
shell $-1 $-1 $-1 $51 $-1 $18 #
shell $-1 $-1 $-1 $52 $-1 $20 #
shell $-1 $-1 $-1 $53 $-1 $22 #
shell $-1 $-1 $-1 $54 $-1 $24 #
shell $-1 $-1 $-1 $55 $-1 $26 #
shell $-1 $-1 $-1 $56 $-1 $28 #
shell $-1 $-1 $-1 $57 $-1 $30 #
shell $-1 $-1 $-1 $58 $-1 $32 #
shell $-1 $-1 $-1 $59 $-1 $34 #
face $-1 $60 $61 $36 $-1 $62 forward single #
face $-1 $63 $64 $37 $-1 $65 forward single #
face $-1 $66 $67 $38 $-1 $68 forward single #
face $-1 $69 $70 $39 $-1 $71 reversed single #
face $-1 $72 $73 $40 $-1 $74 forward single #
face $-1 $75 $76 $41 $-1 $77 forward single #
face $-1 $78 $79 $42 $-1 $80 reversed single #
face $-1 $81 $82 $43 $-1 $83 forward single #
face $-1 $84 $85 $44 $-1 $86 forward single #
face $-1 $87 $88 $45 $-1 $89 reversed single #
face $-1 $90 $91 $46 $-1 $92 forward single #
face $-1 $93 $94 $47 $-1 $95 forward single #
face $-1 $96 $97 $36 $-1 $98 reversed single #
loop $-1 $-1 $99 $48 #
plane-surface $-1 0 0 18.950879949630636 0 0 1 1 0 0 forward_v I I I I #
face $-1 $100 $101 $37 $-1 $102 reversed single #
loop $-1 $-1 $103 $49 #
plane-surface $-1 -66.609698782311469 0 0 1 0 0 0 0 -1 forward_v I I I I #
face $-1 $104 $105 $38 $-1 $106 reversed single #
loop $-1 $-1 $107 $50 #
plane-surface $-1 66.609698782311469 0 0 -1 0 0 0 0 1 forward_v I I I I #
face $-1 $108 $109 $39 $-1 $110 reversed single #
loop $-1 $-1 $111 $51 #
plane-surface $-1 -48.937163172115859 46.133143729152472 162.77532173496263 1 0 0 0 -0.54463904215088732 -0.83867056331134215 forward_v I I I I #
face $-1 $112 $113 $40 $-1 $114 forward single #
loop $-1 $115 $116 $52 #
cone-surface $-1 -43.303081548679117 29.352520902607104 11.206417821342335 0 -0.54463904215088732 -0.83867056331134215 2.5 0 0 1 I I 0 1 2.5 forward I I I I #
face $-1 $117 $118 $41 $-1 $119 forward single #
loop $-1 $120 $121 $53 #
cone-surface $-1 -34.851959113523989 29.352520902607104 11.206417821342335 0 -0.54463904215088732 -0.83867056331134215 2.5 0 0 1 I I 0 1 2.5 forward I I I I #
face $-1 $122 $123 $42 $-1 $124 reversed single #
loop $-1 $-1 $125 $54 #
plane-surface $-1 -1.7763568394002505e-015 46.133143729152472 162.77532173496263 1 0 0 0 -0.54463904215088732 -0.83867056331134215 forward_v I I I I #
face $-1 $126 $127 $43 $-1 $128 forward single #
loop $-1 $129 $130 $55 #
cone-surface $-1 5.6340816234367423 29.352520902607104 11.206417821342335 0 -0.54463904215088732 -0.83867056331134215 2.5 0 0 1 I I 0 1 2.5 forward I I I I #
face $-1 $131 $132 $44 $-1 $133 forward single #
loop $-1 $134 $135 $56 #
cone-surface $-1 14.08520405859187 29.352520902607104 11.206417821342335 0 -0.54463904215088732 -0.83867056331134215 2.5 0 0 1 I I 0 1 2.5 forward I I I I #
face $-1 $136 $137 $45 $-1 $138 reversed single #
loop $-1 $-1 $139 $57 #
plane-surface $-1 48.937163172115859 -136.44089040671949 94.031273642650433 -1 0 0 0 -0.73135370988377701 0.68199835119979291 forward_v I I I I #
face $-1 $140 $141 $46 $-1 $142 forward single #
loop $-1 $143 $144 $58 #
cone-surface $-1 39.040236438054421 -31.054800025987149 10.503518155483292 0 0.73135370988377701 -0.68199835119979291 1 0 0 1 I I 0 1 1 forward I I I I #
face $-1 $145 $146 $47 $-1 $147 forward single #
loop $-1 $148 $149 $59 #
cone-surface $-1 44.978392478491287 -31.054800025987149 10.503518155483292 0 0.73135370988377701 -0.68199835119979291 1 0 0 1 I I 0 1 1 forward I I I I #
face $-1 $150 $151 $36 $-1 $152 reversed single #
loop $-1 $-1 $153 $60 #
plane-surface $-1 0 0 -18.950879949630636 0 0 1 1 0 0 forward_v I I I I #
coedge $-1 $154 $155 $156 $157 forward $61 $-1 #
face $-1 $158 $159 $37 $-1 $160 forward single #
loop $-1 $-1 $161 $63 #
plane-surface $-1 0 39.010389769350674 0 0 -1 0 0 0 -1 forward_v I I I I #
coedge $-1 $162 $163 $164 $165 forward $64 $-1 #
face $-1 $166 $167 $38 $-1 $168 forward single #
loop $-1 $-1 $169 $66 #
plane-surface $-1 0 39.010389769350674 0 0 -1 0 0 0 -1 forward_v I I I I #
coedge $-1 $170 $171 $172 $173 forward $67 $-1 #
face $-1 $174 $175 $39 $-1 $176 reversed single #
loop $-1 $-1 $177 $69 #
plane-surface $-1 -39.077520331101553 -26.423341356362009 51.048134535442671 0 0.54463904215088732 0.83867056331134215 1 0 0 forward_v I I I I #
coedge $-1 $178 $179 $180 $181 reversed $70 $-1 #
face $-1 $-1 $182 $40 $-1 $183 forward single #
loop $-1 $184 $185 $72 #
cone-surface $-1 -43.303081548679117 27.018000370703213 7.6115715139207758 0 -0.54463904215088732 -0.83867056331134215 1.25 0 0 1 I I -0.70710678118654746 0.70710678118654746 1.25 forward I I I I #
loop $-1 $-1 $186 $52 #
coedge $-1 $116 $116 $187 $188 reversed $73 $-1 #
face $-1 $-1 $189 $41 $-1 $190 forward single #
loop $-1 $191 $192 $75 #
cone-surface $-1 -34.851959113523989 27.018000370703213 7.6115715139207758 0 -0.54463904215088732 -0.83867056331134215 1.25 0 0 1 I I -0.70710678118654746 0.70710678118654746 1.25 forward I I I I #
loop $-1 $-1 $193 $53 #
coedge $-1 $121 $121 $194 $195 reversed $76 $-1 #
face $-1 $196 $197 $42 $-1 $198 reversed single #
loop $-1 $-1 $199 $78 #
plane-surface $-1 9.8596428410143062 -26.423341356362009 51.048134535442671 0 0.54463904215088732 0.83867056331134215 1 0 0 forward_v I I I I #
coedge $-1 $200 $201 $202 $203 reversed $79 $-1 #
face $-1 $-1 $204 $43 $-1 $205 forward single #
loop $-1 $206 $207 $81 #
cone-surface $-1 5.6340816234367423 27.018000370703213 7.6115715139207758 0 -0.54463904215088732 -0.83867056331134215 1.25 0 0 1 I I -0.70710678118654746 0.70710678118654746 1.25 forward I I I I #
loop $-1 $-1 $208 $55 #
coedge $-1 $130 $130 $209 $210 reversed $82 $-1 #
face $-1 $-1 $211 $44 $-1 $212 forward single #
loop $-1 $213 $214 $84 #
cone-surface $-1 14.08520405859187 27.018000370703213 7.6115715139207758 0 -0.54463904215088732 -0.83867056331134215 1.25 0 0 1 I I -0.70710678118654746 0.70710678118654746 1.25 forward I I I I #
loop $-1 $-1 $215 $56 #
coedge $-1 $135 $135 $216 $217 reversed $85 $-1 #
face $-1 $218 $219 $45 $-1 $220 reversed single #
loop $-1 $-1 $221 $87 #
plane-surface $-1 42.009314458272854 -39.010389769350695 3.1758641557478882 0 -0.73135370988377701 0.68199835119979291 1 0 0 forward_v I I I I #
coedge $-1 $222 $223 $224 $225 reversed $88 $-1 #
face $-1 $-1 $226 $46 $-1 $227 forward single #
loop $-1 $228 $229 $90 #
cone-surface $-1 39.040236438054421 -30.088753354909855 9.6026650826774365 0 0.73135370988377701 -0.68199835119979291 0.5 0 0 1 I I -0.70710678118654746 0.70710678118654746 0.5 forward I I I I #
loop $-1 $-1 $230 $58 #
coedge $-1 $144 $144 $231 $232 reversed $91 $-1 #
face $-1 $-1 $233 $47 $-1 $234 forward single #
loop $-1 $235 $236 $93 #
cone-surface $-1 44.978392478491287 -30.088753354909855 9.6026650826774365 0 0.73135370988377701 -0.68199835119979291 0.5 0 0 1 I I -0.70710678118654746 0.70710678118654746 0.5 forward I I I I #
loop $-1 $-1 $237 $59 #
coedge $-1 $149 $149 $238 $239 reversed $94 $-1 #
face $-1 $240 $241 $36 $-1 $242 reversed single #
loop $-1 $-1 $243 $96 #
plane-surface $-1 0 -39.010389769350674 0 0 1 0 0 0 1 forward_v I I I I #
coedge $-1 $244 $245 $246 $247 forward $97 $-1 #
coedge $-1 $248 $99 $249 $250 forward $61 $-1 #
coedge $-1 $99 $248 $251 $252 forward $61 $-1 #
coedge $-1 $253 $254 $99 $157 reversed $255 $-1 #
edge $-1 $256 -39.010389769350674 $257 39.010389769350674 $156 $258 forward 7 unknown #
face $-1 $259 $260 $37 $-1 $261 reversed single #
loop $-1 $-1 $164 $100 #
plane-surface $-1 -75.445966587409274 0 -14.516187811876865 0 0 1 1 0 0 forward_v I I I I #
coedge $-1 $262 $263 $163 $264 forward $101 $-1 #
coedge $-1 $265 $103 $266 $267 reversed $64 $-1 #
coedge $-1 $103 $265 $161 $264 reversed $64 $-1 #
coedge $-1 $268 $269 $103 $165 reversed $159 $-1 #
edge $-1 $270 -39.010389769350674 $271 39.010389769350674 $164 $272 forward 7 unknown #
face $-1 $273 $274 $38 $-1 $275 reversed single #
loop $-1 $-1 $276 $104 #
plane-surface $-1 75.445966587409274 0 -14.516187811876865 0 0 1 1 0 0 forward_v I I I I #
coedge $-1 $277 $278 $170 $279 forward $105 $-1 #
coedge $-1 $280 $107 $169 $279 reversed $67 $-1 #
coedge $-1 $107 $280 $281 $282 reversed $67 $-1 #
coedge $-1 $283 $284 $107 $173 reversed $167 $-1 #
edge $-1 $285 -39.010389769350674 $286 39.010389769350674 $172 $287 forward 7 unknown #
face $-1 $288 $289 $39 $-1 $290 reversed single #
loop $-1 $-1 $291 $108 #
plane-surface $-1 -29.217877490087247 46.133143729152472 162.77532173496263 -1 0 0 0 0.54463904215088732 0.83867056331134215 forward_v I I I I #
coedge $-1 $292 $293 $294 $295 reversed $109 $-1 #
coedge $-1 $179 $111 $296 $297 reversed $70 $-1 #
coedge $-1 $111 $178 $292 $298 reversed $70 $-1 #
coedge $-1 $294 $299 $111 $181 forward $300 $-1 #
edge $-1 $301 -15.943817904774438 $302 0.06447637028207609 $180 $303 forward 7 unknown #
loop $-1 $-1 $187 $112 #
plane-surface $-1 -39.077520331101553 -26.423341356362009 51.048134535442671 0 0.54463904215088732 0.83867056331134215 1 0 0 forward_v I I I I #
loop $-1 $-1 $304 $72 #
coedge $-1 $185 $185 $186 $305 reversed $113 $-1 #
coedge $-1 $186 $186 $185 $305 forward $115 $-1 #
coedge $-1 $187 $187 $116 $188 forward $182 $-1 #
edge $-1 $306 1.0375495135211366e-015 $306 6.2831853071796013 $187 $307 forward 7 unknown #
loop $-1 $-1 $194 $117 #
plane-surface $-1 -39.077520331101553 -26.423341356362009 51.048134535442671 0 0.54463904215088732 0.83867056331134215 1 0 0 forward_v I I I I #
loop $-1 $-1 $308 $75 #
coedge $-1 $192 $192 $193 $309 reversed $118 $-1 #
coedge $-1 $193 $193 $192 $309 forward $120 $-1 #
coedge $-1 $194 $194 $121 $195 forward $189 $-1 #
edge $-1 $310 1.0375495135211366e-015 $310 6.2831853071796013 $194 $311 forward 7 unknown #
face $-1 $312 $313 $42 $-1 $314 forward single #
loop $-1 $-1 $315 $122 #
plane-surface $-1 19.719285682028612 46.133143729152472 162.77532173496263 -1 0 0 0 0.54463904215088732 0.83867056331134215 forward_v I I I I #
coedge $-1 $316 $317 $318 $319 reversed $123 $-1 #
coedge $-1 $201 $125 $320 $321 reversed $79 $-1 #
coedge $-1 $125 $200 $316 $322 reversed $79 $-1 #
coedge $-1 $318 $323 $125 $203 forward $313 $-1 #
edge $-1 $324 -15.943817904774438 $325 0.06447637028207609 $202 $326 forward 7 unknown #
loop $-1 $-1 $209 $126 #
plane-surface $-1 9.8596428410143062 -26.423341356362009 51.048134535442671 0 0.54463904215088732 0.83867056331134215 1 0 0 forward_v I I I I #
loop $-1 $-1 $327 $81 #
coedge $-1 $207 $207 $208 $328 reversed $127 $-1 #
coedge $-1 $208 $208 $207 $328 forward $129 $-1 #
coedge $-1 $209 $209 $130 $210 forward $204 $-1 #
edge $-1 $329 1.0375495135211366e-015 $329 6.2831853071796013 $209 $330 forward 7 unknown #
loop $-1 $-1 $216 $131 #
plane-surface $-1 9.8596428410143062 -26.423341356362009 51.048134535442671 0 0.54463904215088732 0.83867056331134215 1 0 0 forward_v I I I I #
loop $-1 $-1 $331 $84 #
coedge $-1 $214 $214 $215 $332 reversed $132 $-1 #
coedge $-1 $215 $215 $214 $332 forward $134 $-1 #
coedge $-1 $216 $216 $135 $217 forward $211 $-1 #
edge $-1 $333 1.0375495135211366e-015 $333 6.2831853071796013 $216 $334 forward 7 unknown #
face $-1 $335 $336 $45 $-1 $337 forward single #
loop $-1 $-1 $338 $136 #
plane-surface $-1 35.081465744429849 -136.44089040671949 94.031273642650433 1 0 0 0 0.73135370988377701 -0.68199835119979291 forward_v I I I I #
coedge $-1 $339 $340 $341 $342 reversed $137 $-1 #
coedge $-1 $223 $139 $343 $344 reversed $88 $-1 #
coedge $-1 $139 $222 $339 $345 reversed $88 $-1 #
coedge $-1 $341 $346 $139 $225 forward $336 $-1 #
edge $-1 $347 29.210055434009071 $348 43.920495288465276 $224 $349 forward 7 unknown #
loop $-1 $-1 $231 $140 #
plane-surface $-1 42.009314458272854 -39.010389769350695 3.1758641557478882 0 -0.73135370988377701 0.68199835119979291 1 0 0 forward_v I I I I #
loop $-1 $-1 $350 $90 #
coedge $-1 $229 $229 $230 $351 reversed $141 $-1 #
coedge $-1 $230 $230 $229 $351 forward $143 $-1 #
coedge $-1 $231 $231 $144 $232 forward $226 $-1 #
edge $-1 $352 -1.0520727475121722e-015 $352 6.2831853071795996 $231 $353 forward 7 unknown #
loop $-1 $-1 $238 $145 #
plane-surface $-1 42.009314458272854 -39.010389769350695 3.1758641557478882 0 -0.73135370988377701 0.68199835119979291 1 0 0 forward_v I I I I #
loop $-1 $-1 $354 $93 #
coedge $-1 $236 $236 $237 $355 reversed $146 $-1 #
coedge $-1 $237 $237 $236 $355 forward $148 $-1 #
coedge $-1 $238 $238 $149 $239 forward $233 $-1 #
edge $-1 $356 -1.0520727475121722e-015 $356 6.2831853071795996 $238 $357 forward 7 unknown #
face $-1 $358 $359 $36 $-1 $360 reversed single #
loop $-1 $-1 $361 $150 #
plane-surface $-1 -66.609698782311469 0 0 1 0 0 0 0 -1 forward_v I I I I #
coedge $-1 $362 $251 $361 $363 forward $151 $-1 #
coedge $-1 $364 $153 $362 $365 forward $97 $-1 #
coedge $-1 $153 $364 $366 $367 forward $97 $-1 #
coedge $-1 $254 $253 $153 $247 reversed $255 $-1 #
edge $-1 $368 -39.010389769350674 $369 39.010389769350674 $246 $370 forward 7 unknown #
coedge $-1 $155 $154 $371 $372 forward $61 $-1 #
coedge $-1 $373 $374 $154 $250 reversed $359 $-1 #
edge $-1 $257 -66.609698782311469 $375 66.609698782311469 $249 $376 forward 7 unknown #
coedge $-1 $243 $377 $155 $252 reversed $151 $-1 #
edge $-1 $378 -66.609698782311469 $256 66.609698782311469 $251 $379 forward 7 unknown #
coedge $-1 $246 $156 $377 $380 forward $255 $-1 #
coedge $-1 $156 $246 $373 $381 reversed $255 $-1 #
loop $-1 $-1 $254 $358 #
vertex $-1 $157 $382 #
vertex $-1 $157 $383 #
straight-curve $-1 66.609698782311469 0 18.950879949630636 0 1 0 I I #
face $-1 $384 $385 $37 $-1 $386 reversed single #
loop $-1 $-1 $387 $158 #
plane-surface $-1 -84.282234392507078 0 -16.73353388075375 1 0 0 0 0 -1 forward_v I I I I #
coedge $-1 $388 $161 $389 $390 reversed $101 $-1 #
coedge $-1 $161 $388 $268 $391 reversed $101 $-1 #
edge $-1 $270 14.516187811876865 $392 18.950879949630636 $161 $393 forward 7 unknown #
coedge $-1 $163 $162 $394 $395 reversed $64 $-1 #
coedge $-1 $396 $397 $162 $267 forward $398 $-1 #
edge $-1 $399 -18.950879949630636 $271 -14.516187811876865 $266 $400 forward 7 unknown #
coedge $-1 $401 $164 $263 $391 forward $159 $-1 #
coedge $-1 $164 $401 $396 $402 forward $159 $-1 #
vertex $-1 $264 $403 #
vertex $-1 $402 $404 #
straight-curve $-1 -66.609698782311469 0 -14.516187811876865 0 -1 0 I I #
face $-1 $405 $406 $38 $-1 $407 reversed single #
loop $-1 $-1 $408 $166 #
plane-surface $-1 84.282234392507078 0 -16.73353388075375 -1 0 0 0 0 1 forward_v I I I I #
coedge $-1 $284 $283 $409 $410 forward $167 $-1 #
coedge $-1 $411 $169 $284 $412 reversed $105 $-1 #
coedge $-1 $169 $411 $413 $414 reversed $105 $-1 #
edge $-1 $415 -18.950879949630636 $286 -14.516187811876865 $169 $416 forward 7 unknown #
coedge $-1 $171 $170 $417 $418 reversed $67 $-1 #
coedge $-1 $419 $420 $171 $282 forward $421 $-1 #
edge $-1 $285 14.516187811876865 $422 18.950879949630636 $281 $423 forward 7 unknown #
coedge $-1 $276 $172 $420 $424 forward $167 $-1 #
coedge $-1 $172 $276 $277 $412 forward $167 $-1 #
vertex $-1 $282 $425 #
vertex $-1 $412 $426 #
straight-curve $-1 66.609698782311469 0 -14.516187811876865 0 1 0 I I #
face $-1 $-1 $300 $39 $-1 $427 forward single #
loop $-1 $-1 $428 $174 #
plane-surface $-1 0 39.010389769350674 0 0 -1 0 0 0 -1 forward_v I I I I #
coedge $-1 $429 $430 $431 $432 reversed $175 $-1 #
coedge $-1 $433 $177 $179 $298 forward $109 $-1 #
coedge $-1 $177 $433 $429 $434 forward $109 $-1 #
coedge $-1 $431 $180 $177 $295 forward $300 $-1 #
edge $-1 $302 -29.398403006565083 $435 -9.6791173245364703 $294 $436 forward 7 unknown #
coedge $-1 $437 $438 $178 $297 forward $289 $-1 #
edge $-1 $439 -72.832688967862481 $301 -62.436780917850683 $296 $440 forward 7 unknown #
edge $-1 $302 58.933076958738823 $439 78.020779538701333 $179 $441 forward 7 unknown #
coedge $-1 $180 $431 $437 $442 forward $300 $-1 #
loop $-1 $-1 $431 $288 #
vertex $-1 $297 $443 #
vertex $-1 $181 $444 #
straight-curve $-1 -48.937163172115859 23.066571864576236 18.950879949630632 0 -1 0 I I #
coedge $-1 $304 $304 $-1 $445 reversed $184 $-1 #
edge $-1 $446 0 $446 6.2831853071796004 $185 $447 forward 7 unknown #
vertex $-1 $188 $448 #
ellipse-curve $-1 -43.303081548679117 31.006242631822403 13.752925924624741 0 0.54463904215088732 0.83867056331134215 2.5 0 0 1 I I #
coedge $-1 $308 $308 $-1 $449 reversed $191 $-1 #
edge $-1 $450 0 $450 6.2831853071796004 $192 $451 forward 7 unknown #
vertex $-1 $195 $452 #
ellipse-curve $-1 -34.851959113523989 31.006242631822403 13.752925924624741 0 0.54463904215088732 0.83867056331134215 2.5 0 0 1 I I #
face $-1 $-1 $453 $42 $-1 $454 reversed single #
loop $-1 $-1 $202 $196 #
plane-surface $-1 0 0 18.950879949630636 0 0 1 1 0 0 forward_v I I I I #
coedge $-1 $455 $456 $457 $458 reversed $197 $-1 #
coedge $-1 $459 $199 $201 $322 forward $123 $-1 #
coedge $-1 $199 $459 $455 $460 forward $123 $-1 #
coedge $-1 $457 $202 $199 $319 forward $313 $-1 #
edge $-1 $325 -4.9298214205071549 $461 14.789464261521459 $318 $462 forward 7 unknown #
coedge $-1 $463 $464 $200 $321 forward $453 $-1 #
edge $-1 $465 -72.832688967862481 $324 -62.436780917850683 $320 $466 forward 7 unknown #
edge $-1 $325 58.933076958738823 $465 78.020779538701333 $201 $467 forward 7 unknown #
coedge $-1 $202 $457 $463 $468 forward $313 $-1 #
vertex $-1 $203 $469 #
vertex $-1 $203 $470 #
straight-curve $-1 -1.7763568394002505e-015 23.066571864576236 18.950879949630632 0 -1 0 I I #
coedge $-1 $327 $327 $-1 $471 reversed $206 $-1 #
edge $-1 $472 0 $472 6.2831853071796004 $207 $473 forward 7 unknown #
vertex $-1 $210 $474 #
ellipse-curve $-1 5.6340816234367423 31.006242631822403 13.752925924624741 0 0.54463904215088732 0.83867056331134215 2.5 0 0 1 I I #
coedge $-1 $331 $331 $-1 $475 reversed $213 $-1 #
edge $-1 $476 0 $476 6.2831853071796004 $214 $477 forward 7 unknown #
vertex $-1 $217 $478 #
ellipse-curve $-1 14.08520405859187 31.006242631822403 13.752925924624741 0 0.54463904215088732 0.83867056331134215 2.5 0 0 1 I I #
face $-1 $-1 $479 $45 $-1 $480 reversed single #
loop $-1 $-1 $224 $218 #
plane-surface $-1 0 0 18.950879949630636 0 0 1 1 0 0 forward_v I I I I #
coedge $-1 $481 $482 $483 $484 reversed $219 $-1 #
coedge $-1 $485 $221 $223 $345 forward $137 $-1 #
coedge $-1 $221 $485 $481 $486 forward $137 $-1 #
coedge $-1 $483 $224 $221 $342 forward $336 $-1 #
edge $-1 $348 -27.932505942979432 $487 -14.076808515293422 $341 $488 forward 7 unknown #
coedge $-1 $489 $490 $222 $344 forward $479 $-1 #
edge $-1 $491 -43.839772665577307 $347 -28.064756871694581 $343 $492 forward 7 unknown #
edge $-1 $348 -21.56961205049419 $491 -3.1101770075664475e-014 $223 $493 forward 7 unknown #
coedge $-1 $224 $483 $489 $494 forward $336 $-1 #
vertex $-1 $344 $495 #
vertex $-1 $225 $496 #
straight-curve $-1 48.937163172115859 -68.220445203359745 18.950879949630632 0 1 0 I I #
coedge $-1 $350 $350 $-1 $497 reversed $228 $-1 #
edge $-1 $498 0 $498 6.2831853071796004 $229 $499 forward 7 unknown #
vertex $-1 $232 $500 #
ellipse-curve $-1 39.040236438054421 -31.655169842122575 11.063372052689271 0 -0.73135370988377701 0.68199835119979291 1 0 0 1 I I #
coedge $-1 $354 $354 $-1 $501 reversed $235 $-1 #
edge $-1 $502 0 $502 6.2831853071796004 $236 $503 forward 7 unknown #
vertex $-1 $239 $504 #
ellipse-curve $-1 44.978392478491287 -31.655169842122575 11.063372052689271 0 -0.73135370988377701 0.68199835119979291 1 0 0 1 I I #
face $-1 $-1 $255 $36 $-1 $505 reversed single #
loop $-1 $-1 $373 $240 #
plane-surface $-1 0 39.010389769350674 0 0 -1 0 0 0 -1 forward_v I I I I #
coedge $-1 $371 $506 $243 $363 reversed $241 $-1 #
coedge $-1 $377 $243 $244 $365 reversed $151 $-1 #
edge $-1 $378 -18.950879949630636 $507 18.950879949630636 $361 $508 forward 7 unknown #
coedge $-1 $245 $244 $506 $509 forward $97 $-1 #
edge $-1 $369 -66.609698782311469 $507 66.609698782311469 $362 $510 forward 7 unknown #
coedge $-1 $374 $373 $245 $367 reversed $359 $-1 #
edge $-1 $511 -66.609698782311469 $368 66.609698782311469 $366 $512 forward 7 unknown #
vertex $-1 $247 $513 #
vertex $-1 $380 $514 #
straight-curve $-1 66.609698782311469 0 -18.950879949630636 0 -1 0 I I #
coedge $-1 $515 $361 $248 $372 reversed $241 $-1 #
edge $-1 $375 -39.010389769350674 $378 39.010389769350674 $371 $516 forward 7 unknown #
coedge $-1 $366 $249 $254 $381 forward $359 $-1 #
coedge $-1 $249 $366 $515 $517 reversed $359 $-1 #
vertex $-1 $250 $518 #
straight-curve $-1 0 39.010389769350674 18.950879949630636 -1 0 0 I I #
coedge $-1 $251 $362 $253 $380 reversed $151 $-1 #
vertex $-1 $372 $519 #
straight-curve $-1 0 -39.010389769350674 18.950879949630636 1 0 0 I I #
edge $-1 $256 -18.950879949630636 $369 18.950879949630636 $253 $520 forward 7 unknown #
edge $-1 $257 -18.950879949630636 $368 18.950879949630636 $254 $521 forward 7 unknown #
point $-1 66.609698782311469 -39.010389769350674 18.950879949630636 #
point $-1 66.609698782311469 39.010389769350674 18.950879949630636 #
face $-1 $-1 $398 $37 $-1 $522 reversed single #
loop $-1 $-1 $394 $259 #
plane-surface $-1 0 0 -18.950879949630636 0 0 1 1 0 0 forward_v I I I I #
coedge $-1 $523 $524 $388 $525 forward $260 $-1 #
coedge $-1 $263 $262 $387 $525 reversed $101 $-1 #
coedge $-1 $394 $526 $262 $390 forward $385 $-1 #
edge $-1 $527 -84.282234392507078 $392 -66.609698782311469 $262 $528 forward 7 unknown #
edge $-1 $270 -8.8362678050978047 $529 8.8362678050978047 $263 $530 forward 7 unknown #
vertex $-1 $264 $531 #
straight-curve $-1 -66.609698782311469 39.010389769350674 0 0 0 -1 I I #
coedge $-1 $532 $389 $265 $395 forward $385 $-1 #
edge $-1 $392 -39.010389769350674 $399 39.010389769350674 $394 $533 forward 7 unknown #
coedge $-1 $534 $266 $269 $402 reversed $398 $-1 #
coedge $-1 $266 $534 $532 $535 reversed $398 $-1 #
loop $-1 $-1 $266 $384 #
vertex $-1 $535 $536 #
straight-curve $-1 -66.609698782311469 -39.010389769350674 0 0 0 1 I I #
coedge $-1 $269 $268 $524 $537 forward $159 $-1 #
edge $-1 $538 -8.8362678050978047 $271 8.8362678050978047 $396 $539 forward 7 unknown #
point $-1 -66.609698782311469 39.010389769350674 -14.516187811876865 #
point $-1 -66.609698782311469 -39.010389769350674 -14.516187811876865 #
face $-1 $-1 $421 $38 $-1 $540 reversed single #
loop $-1 $-1 $417 $273 #
plane-surface $-1 0 0 -18.950879949630636 0 0 1 1 0 0 forward_v I I I I #
coedge $-1 $541 $409 $542 $543 forward $274 $-1 #
coedge $-1 $408 $544 $276 $410 reversed $274 $-1 #
edge $-1 $545 -39.010389769350674 $546 39.010389769350674 $409 $547 forward 7 unknown #
coedge $-1 $278 $277 $544 $548 forward $105 $-1 #
edge $-1 $546 -8.8362678050978047 $286 8.8362678050978047 $277 $549 forward 7 unknown #
coedge $-1 $550 $417 $278 $414 forward $406 $-1 #
edge $-1 $415 -8.8362678050978047 $551 8.8362678050978047 $278 $552 forward 7 unknown #
vertex $-1 $414 $553 #
straight-curve $-1 66.609698782311469 39.010389769350674 0 0 0 1 I I #
coedge $-1 $413 $554 $280 $418 forward $406 $-1 #
edge $-1 $422 -39.010389769350674 $415 39.010389769350674 $417 $555 forward 7 unknown #
coedge $-1 $542 $281 $554 $556 reversed $421 $-1 #
coedge $-1 $281 $542 $283 $424 reversed $421 $-1 #
loop $-1 $-1 $281 $405 #
vertex $-1 $282 $557 #
straight-curve $-1 66.609698782311469 -39.010389769350674 0 0 0 -1 I I #
edge $-1 $285 -8.8362678050978047 $545 8.8362678050978047 $420 $558 forward 7 unknown #
point $-1 66.609698782311469 -39.010389769350674 -14.516187811876865 #
point $-1 66.609698782311469 39.010389769350674 -14.516187811876865 #
plane-surface $-1 0 0 18.950879949630636 0 0 1 1 0 0 forward_v I I I I #
coedge $-1 $438 $437 $430 $559 forward $289 $-1 #
coedge $-1 $430 $291 $293 $434 reversed $175 $-1 #
coedge $-1 $291 $429 $428 $559 reversed $175 $-1 #
coedge $-1 $299 $294 $291 $432 forward $300 $-1 #
edge $-1 $435 -0.06447637028207609 $560 15.943817904774438 $431 $561 forward 7 unknown #
coedge $-1 $293 $292 $438 $562 reversed $109 $-1 #
edge $-1 $563 -78.020779538701333 $435 -58.933076958738823 $429 $564 forward 7 unknown #
vertex $-1 $295 $565 #
straight-curve $-1 -19.538760165550777 23.002095494294153 18.950879949630636 1 0 0 I I #
coedge $-1 $428 $296 $299 $442 reversed $289 $-1 #
coedge $-1 $296 $428 $433 $562 forward $289 $-1 #
vertex $-1 $297 $566 #
straight-curve $-1 -48.937163172115859 39.010389769350674 81.387660867481316 0 0 1 I I #
straight-curve $-1 -48.937163172115859 -26.423341356362009 51.048134535442671 0 0.83867056331134215 -0.54463904215088732 I I #
edge $-1 $560 29.217877490087247 $301 48.937163172115859 $437 $567 forward 7 unknown #
point $-1 -48.937163172115859 39.010389769350674 18.950879949630636 #
point $-1 -48.937163172115859 23.00209549429416 18.950879949630632 #
edge $-1 $568 1 $568 0 $304 $-1 forward 7 unknown #
vertex $-1 $305 $569 #
ellipse-curve $-1 -43.303081548679117 27.698799173391823 8.6599097180599536 0 0.54463904215088732 0.83867056331134215 2.5 0 0 1 I I #
point $-1 -40.803081548679117 31.006242631822388 13.752925924624714 #
edge $-1 $570 1 $570 0 $308 $-1 forward 7 unknown #
vertex $-1 $309 $571 #
ellipse-curve $-1 -34.851959113523989 27.698799173391823 8.6599097180599536 0 0.54463904215088732 0.83867056331134215 2.5 0 0 1 I I #
point $-1 -32.351959113523989 31.006242631822388 13.752925924624714 #
loop $-1 $-1 $320 $312 #
plane-surface $-1 0 39.010389769350674 0 0 -1 0 0 0 -1 forward_v I I I I #
coedge $-1 $456 $315 $317 $460 reversed $197 $-1 #
coedge $-1 $315 $455 $572 $573 reversed $197 $-1 #
coedge $-1 $323 $318 $315 $458 forward $313 $-1 #
edge $-1 $461 -0.06447637028207609 $574 15.943817904774438 $457 $575 forward 7 unknown #
coedge $-1 $317 $316 $464 $576 reversed $123 $-1 #
edge $-1 $577 -78.020779538701333 $461 -58.933076958738823 $455 $578 forward 7 unknown #
vertex $-1 $319 $579 #
straight-curve $-1 4.9298214205071531 23.002095494294153 18.950879949630636 1 0 0 I I #
coedge $-1 $572 $320 $323 $468 reversed $453 $-1 #
coedge $-1 $320 $572 $459 $576 forward $453 $-1 #
vertex $-1 $321 $580 #
straight-curve $-1 -1.7763568394002505e-015 39.010389769350674 81.387660867481316 0 0 1 I I #
straight-curve $-1 -1.7763568394002505e-015 -26.423341356362009 51.048134535442671 0 0.83867056331134215 -0.54463904215088732 I I #
edge $-1 $574 -19.719285682028612 $324 1.7763568394002505e-015 $463 $581 forward 7 unknown #
point $-1 -1.7763568394002505e-015 39.010389769350674 18.950879949630636 #
point $-1 -1.7763568394002505e-015 23.00209549429416 18.950879949630632 #
edge $-1 $582 1 $582 0 $327 $-1 forward 7 unknown #
vertex $-1 $328 $583 #
ellipse-curve $-1 5.6340816234367423 27.698799173391823 8.6599097180599536 0 0.54463904215088732 0.83867056331134215 2.5 0 0 1 I I #
point $-1 8.1340816234367423 31.006242631822388 13.752925924624714 #
edge $-1 $584 1 $584 0 $331 $-1 forward 7 unknown #
vertex $-1 $332 $585 #
ellipse-curve $-1 14.08520405859187 27.698799173391823 8.6599097180599536 0 0.54463904215088732 0.83867056331134215 2.5 0 0 1 I I #
point $-1 16.58520405859187 31.006242631822388 13.752925924624714 #
loop $-1 $-1 $343 $335 #
plane-surface $-1 0 -39.010389769350674 0 0 1 0 0 0 1 forward_v I I I I #
coedge $-1 $482 $338 $340 $486 reversed $219 $-1 #
coedge $-1 $338 $481 $586 $587 reversed $219 $-1 #
coedge $-1 $346 $341 $338 $484 forward $336 $-1 #
edge $-1 $487 -43.920495288465276 $588 -29.210055434009071 $483 $589 forward 7 unknown #
coedge $-1 $340 $339 $490 $590 reversed $137 $-1 #
edge $-1 $591 3.1101770075664475e-014 $487 21.56961205049419 $481 $592 forward 7 unknown #
vertex $-1 $342 $593 #
straight-curve $-1 21.004657229136427 -24.299949914894473 18.950879949630636 -1 0 0 I I #
coedge $-1 $586 $343 $346 $494 reversed $479 $-1 #
coedge $-1 $343 $586 $485 $590 forward $479 $-1 #
vertex $-1 $344 $594 #
straight-curve $-1 48.937163172115859 -39.010389769350674 47.015636821325216 0 0 1 I I #
straight-curve $-1 48.937163172115859 -39.010389769350695 3.1758641557478882 0 -0.68199835119979291 -0.73135370988377701 I I #
edge $-1 $588 35.081465744429849 $347 48.937163172115859 $489 $595 forward 7 unknown #
point $-1 48.937163172115859 -39.010389769350674 18.950879949630636 #
point $-1 48.937163172115859 -24.299949914894473 18.950879949630636 #
edge $-1 $596 1 $596 0 $350 $-1 forward 7 unknown #
vertex $-1 $351 $597 #
ellipse-curve $-1 39.040236438054421 -30.454430209851743 9.9436642582773338 0 -0.73135370988377701 0.68199835119979291 1 0 0 1 I I #
point $-1 40.040236438054421 -31.655169842122554 11.06337205268925 #
edge $-1 $598 1 $598 0 $354 $-1 forward 7 unknown #
vertex $-1 $355 $599 #
ellipse-curve $-1 44.978392478491287 -30.454430209851743 9.9436642582773338 0 -0.73135370988377701 0.68199835119979291 1 0 0 1 I I #
point $-1 45.978392478491287 -31.655169842122554 11.06337205268925 #
plane-surface $-1 66.609698782311469 0 0 -1 0 0 0 0 1 forward_v I I I I #
coedge $-1 $361 $515 $364 $509 reversed $241 $-1 #
vertex $-1 $509 $600 #
straight-curve $-1 -66.609698782311469 -39.010389769350674 0 0 0 -1 I I #
edge $-1 $507 -39.010389769350674 $511 39.010389769350674 $506 $601 forward 7 unknown #
straight-curve $-1 0 -39.010389769350674 -18.950879949630636 -1 0 0 I I #
vertex $-1 $367 $602 #
straight-curve $-1 0 39.010389769350674 -18.950879949630636 1 0 0 I I #
point $-1 66.609698782311469 39.010389769350674 -18.950879949630636 #
point $-1 66.609698782311469 -39.010389769350674 -18.950879949630636 #
coedge $-1 $506 $371 $374 $517 forward $241 $-1 #
straight-curve $-1 -66.609698782311469 0 18.950879949630636 0 -1 0 I I #
edge $-1 $375 -18.950879949630636 $511 18.950879949630636 $374 $603 forward 7 unknown #
point $-1 -66.609698782311469 39.010389769350674 18.950879949630636 #
point $-1 -66.609698782311469 -39.010389769350674 18.950879949630636 #
straight-curve $-1 66.609698782311469 -39.010389769350674 0 0 0 -1 I I #
straight-curve $-1 66.609698782311469 39.010389769350674 0 0 0 -1 I I #
plane-surface $-1 0 -39.010389769350674 0 0 1 0 0 0 1 forward_v I I I I #
coedge $-1 $604 $387 $526 $605 reversed $260 $-1 #
coedge $-1 $387 $604 $401 $537 reversed $260 $-1 #
edge $-1 $529 -2.2173460688768856 $527 2.2173460688768856 $388 $606 forward 7 unknown #
coedge $-1 $389 $532 $523 $605 forward $385 $-1 #
vertex $-1 $390 $607 #
straight-curve $-1 0 39.010389769350674 -18.950879949630636 1 0 0 I I #
vertex $-1 $391 $608 #
straight-curve $-1 -75.445966587409274 39.010389769350674 -14.516187811876865 -1 0 0 I I #
point $-1 -66.609698782311469 39.010389769350674 -18.950879949630636 #
coedge $-1 $526 $394 $397 $535 forward $385 $-1 #
straight-curve $-1 -66.609698782311469 0 -18.950879949630636 0 -1 0 I I #
coedge $-1 $397 $396 $604 $609 forward $398 $-1 #
edge $-1 $399 -8.8362678050978047 $610 8.8362678050978047 $397 $611 forward 7 unknown #
point $-1 -66.609698782311469 -39.010389769350674 -18.950879949630636 #
edge $-1 $529 -39.010389769350674 $538 39.010389769350674 $524 $612 forward 7 unknown #
vertex $-1 $537 $613 #
straight-curve $-1 -75.445966587409274 -39.010389769350674 -14.516187811876865 1 0 0 I I #
plane-surface $-1 0 -39.010389769350674 0 0 1 0 0 0 1 forward_v I I I I #
coedge $-1 $544 $408 $550 $614 reversed $274 $-1 #
coedge $-1 $420 $419 $408 $543 reversed $421 $-1 #
edge $-1 $545 -2.2173460688768856 $615 2.2173460688768856 $408 $616 forward 7 unknown #
coedge $-1 $409 $541 $411 $548 reversed $274 $-1 #
vertex $-1 $410 $617 #
vertex $-1 $410 $618 #
straight-curve $-1 84.282234392507078 0 -14.516187811876865 0 1 0 I I #
edge $-1 $546 -2.2173460688768856 $551 2.2173460688768856 $544 $619 forward 7 unknown #
straight-curve $-1 75.445966587409274 39.010389769350674 -14.516187811876865 -1 0 0 I I #
coedge $-1 $554 $413 $541 $614 forward $406 $-1 #
vertex $-1 $614 $620 #
straight-curve $-1 75.445966587409274 39.010389769350674 -18.950879949630636 1 0 0 I I #
point $-1 66.609698782311469 39.010389769350674 -18.950879949630636 #
coedge $-1 $417 $550 $419 $556 forward $406 $-1 #
straight-curve $-1 66.609698782311469 0 -18.950879949630636 0 1 0 I I #
edge $-1 $615 -8.8362678050978047 $422 8.8362678050978047 $419 $621 forward 7 unknown #
point $-1 66.609698782311469 -39.010389769350674 -18.950879949630636 #
straight-curve $-1 75.445966587409274 -39.010389769350674 -14.516187811876865 1 0 0 I I #
edge $-1 $560 62.436780917850683 $563 72.832688967862481 $428 $622 forward 7 unknown #
vertex $-1 $442 $623 #
straight-curve $-1 -29.217877490087247 23.066571864576236 18.950879949630632 0 1 0 I I #
edge $-1 $563 9.6791173245364703 $439 29.398403006565083 $438 $624 forward 7 unknown #
vertex $-1 $562 $625 #
straight-curve $-1 -29.217877490087247 -26.423341356362009 51.048134535442671 0 -0.83867056331134215 0.54463904215088732 I I #
point $-1 -29.217877490087247 23.00209549429416 18.950879949630632 #
point $-1 -48.937163172115859 39.010389769350674 8.5549718996188275 #
straight-curve $-1 0 39.010389769350674 18.950879949630636 -1 0 0 I I #
vertex $-1 $445 $626 #
point $-1 -40.803081548679117 27.698799173391823 8.6599097180599536 #
vertex $-1 $449 $627 #
point $-1 -32.351959113523989 27.698799173391823 8.6599097180599536 #
coedge $-1 $464 $463 $456 $573 forward $453 $-1 #
edge $-1 $574 62.436780917850683 $577 72.832688967862481 $572 $628 forward 7 unknown #
vertex $-1 $468 $629 #
straight-curve $-1 19.719285682028612 23.066571864576236 18.950879949630632 0 1 0 I I #
edge $-1 $577 -14.789464261521459 $465 4.9298214205071549 $464 $630 forward 7 unknown #
vertex $-1 $576 $631 #
straight-curve $-1 19.719285682028612 -26.423341356362009 51.048134535442671 0 -0.83867056331134215 0.54463904215088732 I I #
point $-1 19.719285682028612 23.00209549429416 18.950879949630632 #
point $-1 -1.7763568394002505e-015 39.010389769350674 8.5549718996188275 #
straight-curve $-1 0 39.010389769350674 18.950879949630636 -1 0 0 I I #
vertex $-1 $471 $632 #
point $-1 8.1340816234367423 27.698799173391823 8.6599097180599536 #
vertex $-1 $475 $633 #
point $-1 16.58520405859187 27.698799173391823 8.6599097180599536 #
coedge $-1 $490 $489 $482 $587 forward $479 $-1 #
edge $-1 $588 28.064756871694581 $591 43.839772665577307 $586 $634 forward 7 unknown #
vertex $-1 $494 $635 #
straight-curve $-1 35.081465744429849 -68.220445203359745 18.950879949630632 0 -1 0 I I #
edge $-1 $591 14.076808515293422 $491 27.932505942979432 $490 $636 forward 7 unknown #
vertex $-1 $590 $637 #
straight-curve $-1 35.081465744429849 -39.010389769350695 3.1758641557478882 0 0.68199835119979291 0.73135370988377701 I I #
point $-1 35.081465744429849 -24.299949914894473 18.950879949630636 #
point $-1 48.937163172115859 -39.010389769350674 3.1758641557479108 #
straight-curve $-1 0 -39.010389769350674 18.950879949630636 1 0 0 I I #
vertex $-1 $497 $638 #
point $-1 40.040236438054421 -30.454430209851743 9.9436642582773338 #
vertex $-1 $501 $639 #
point $-1 45.978392478491287 -30.454430209851743 9.9436642582773338 #
point $-1 -66.609698782311469 -39.010389769350674 -18.950879949630636 #
straight-curve $-1 -66.609698782311469 0 -18.950879949630636 0 1 0 I I #
point $-1 -66.609698782311469 39.010389769350674 -18.950879949630636 #
straight-curve $-1 -66.609698782311469 39.010389769350674 0 0 0 -1 I I #
coedge $-1 $524 $523 $534 $609 reversed $260 $-1 #
edge $-1 $610 -39.010389769350674 $527 39.010389769350674 $523 $640 forward 7 unknown #
straight-curve $-1 -84.282234392507078 39.010389769350674 -16.73353388075375 0 0 -1 I I #
point $-1 -84.282234392507078 39.010389769350674 -18.950879949630636 #
point $-1 -84.282234392507078 39.010389769350674 -14.516187811876865 #
edge $-1 $538 -2.2173460688768856 $610 2.2173460688768856 $604 $641 forward 7 unknown #
vertex $-1 $605 $642 #
straight-curve $-1 -75.445966587409274 -39.010389769350674 -18.950879949630636 -1 0 0 I I #
straight-curve $-1 -84.282234392507078 0 -14.516187811876865 0 -1 0 I I #
point $-1 -84.282234392507078 -39.010389769350674 -14.516187811876865 #
edge $-1 $551 -39.010389769350674 $615 39.010389769350674 $541 $643 forward 7 unknown #
vertex $-1 $543 $644 #
straight-curve $-1 84.282234392507078 -39.010389769350674 -16.73353388075375 0 0 -1 I I #
point $-1 84.282234392507078 -39.010389769350674 -14.516187811876865 #
point $-1 84.282234392507078 39.010389769350674 -14.516187811876865 #
straight-curve $-1 84.282234392507078 39.010389769350674 -16.73353388075375 0 0 -1 I I #
point $-1 84.282234392507078 39.010389769350674 -18.950879949630636 #
straight-curve $-1 75.445966587409274 -39.010389769350674 -18.950879949630636 -1 0 0 I I #
straight-curve $-1 -29.217877490087247 39.010389769350674 81.387660867481316 0 0 -1 I I #
point $-1 -29.217877490087247 39.010389769350674 18.950879949630636 #
straight-curve $-1 -19.538760165550777 39.010389769350674 8.554971899618824 -1 0 0 I I #
point $-1 -29.217877490087247 39.010389769350674 8.5549718996188275 #
point $-1 -43.303081548679117 26.337201568014603 6.563233309781598 #
point $-1 -34.851959113523989 26.337201568014603 6.563233309781598 #
straight-curve $-1 19.719285682028612 39.010389769350674 81.387660867481316 0 0 -1 I I #
point $-1 19.719285682028612 39.010389769350674 18.950879949630636 #
straight-curve $-1 4.9298214205071531 39.010389769350674 8.554971899618824 -1 0 0 I I #
point $-1 19.719285682028612 39.010389769350674 8.5549718996188275 #
point $-1 5.6340816234367423 26.337201568014603 6.563233309781598 #
point $-1 14.08520405859187 26.337201568014603 6.563233309781598 #
straight-curve $-1 35.081465744429849 -39.010389769350674 47.015636821325216 0 0 -1 I I #
point $-1 35.081465744429849 -39.010389769350674 18.950879949630636 #
straight-curve $-1 21.004657229136427 -39.010389769350674 3.175864155747905 1 0 0 I I #
point $-1 35.081465744429849 -39.010389769350674 3.1758641557479108 #
point $-1 39.040236438054421 -29.723076499967966 9.2616659070775391 #
point $-1 44.978392478491287 -29.723076499967966 9.2616659070775391 #
straight-curve $-1 -84.282234392507078 0 -18.950879949630636 0 1 0 I I #
straight-curve $-1 -84.282234392507078 -39.010389769350674 -16.73353388075375 0 0 -1 I I #
point $-1 -84.282234392507078 -39.010389769350674 -18.950879949630636 #
straight-curve $-1 84.282234392507078 0 -18.950879949630636 0 -1 0 I I #
point $-1 84.282234392507078 -39.010389769350674 -18.950879949630636 #
End-of-ACIS-data 