500 0 8 0           
7 Unknown 11 ACIS 5.0 NT 24 Thu Mar 25 22:12:10 1999 
-1 9.9999999999999995e-007 1e-010 
body $-1 $8 $-1 $9 #
body $-1 $10 $-1 $11 #
body $-1 $12 $-1 $13 #
body $-1 $14 $-1 $15 #
body $-1 $16 $-1 $17 #
body $-1 $18 $-1 $19 #
body $-1 $20 $-1 $21 #
body $-1 $22 $-1 $23 #
lump $-1 $-1 $24 $0 #
transform $-1 1 0 0 0 1 0 0 0 1 58.311105685598314 38.238646031979194 9.8557843276186485 1 rotate no_reflect no_shear #
lump $-1 $-1 $25 $1 #
transform $-1 1 0 0 0 1 0 0 0 1 58.311105685598314 38.238646031979194 9.8557843276186485 1 rotate no_reflect no_shear #
lump $-1 $-1 $26 $2 #
transform $-1 1 0 0 0 1 0 0 0 1 58.311105685598314 38.238646031979194 9.8557843276186485 1 rotate no_reflect no_shear #
lump $-1 $-1 $27 $3 #
transform $-1 1 0 0 0 1 0 0 0 1 58.311105685598314 38.238646031979194 9.8557843276186485 1 rotate no_reflect no_shear #
lump $-1 $-1 $28 $4 #
transform $-1 1 0 0 0 1 0 0 0 1 58.311105685598314 38.238646031979194 9.8557843276186485 1 rotate no_reflect no_shear #
lump $-1 $-1 $29 $5 #
transform $-1 1 0 0 0 1 0 0 0 1 58.311105685598314 38.238646031979194 9.8557843276186485 1 rotate no_reflect no_shear #
lump $-1 $-1 $30 $6 #
transform $-1 1 0 0 0 1 0 0 0 1 58.311105685598314 38.238646031979194 9.8557843276186485 1 rotate no_reflect no_shear #
lump $-1 $-1 $31 $7 #
transform $-1 1 0 0 0 1 0 0 0 1 58.311105685598314 38.238646031979194 9.8557843276186485 1 rotate no_reflect no_shear #
shell $-1 $-1 $-1 $32 $-1 $8 #
shell $-1 $-1 $-1 $33 $-1 $10 #
shell $-1 $-1 $-1 $34 $-1 $12 #
shell $-1 $-1 $-1 $35 $-1 $14 #
shell $-1 $-1 $-1 $36 $-1 $16 #
shell $-1 $-1 $-1 $37 $-1 $18 #
shell $-1 $-1 $-1 $38 $-1 $20 #
shell $-1 $-1 $-1 $39 $-1 $22 #
face $-1 $40 $41 $24 $-1 $42 forward single #
face $-1 $43 $44 $25 $-1 $45 forward single #
face $-1 $46 $47 $26 $-1 $48 reversed single #
face $-1 $49 $50 $27 $-1 $51 forward single #
face $-1 $52 $53 $28 $-1 $54 forward single #
face $-1 $55 $56 $29 $-1 $57 reversed single #
face $-1 $58 $59 $30 $-1 $60 forward single #
face $-1 $61 $62 $31 $-1 $63 forward single #
face $-1 $64 $65 $24 $-1 $66 reversed single #
loop $-1 $-1 $67 $32 #
plane-surface $-1 0 0 9.8557843276186485 0 0 1 1 0 0 forward_v I I I I #
face $-1 $68 $69 $25 $-1 $70 reversed single #
loop $-1 $-1 $71 $33 #
plane-surface $-1 -58.311105685598314 0 0 1 0 0 0 0 -1 forward_v I I I I #
face $-1 $72 $73 $26 $-1 $74 reversed single #
loop $-1 $-1 $75 $34 #
plane-surface $-1 -6.419550889176044 -100.03900329105787 103.92104964167517 -1 0 0 0 -0.52991927123019833 0.84804809178421925 forward_v I I I I #
face $-1 $76 $77 $27 $-1 $78 forward single #
loop $-1 $79 $80 $35 #
cone-surface $-1 -28.273925252655925 -33.80302229572461 6.531954347764696 0 0.52991927123019833 -0.84804809178421925 1 0 0 1 I I 0 1 1 forward I I I I #
face $-1 $81 $82 $28 $-1 $83 forward single #
loop $-1 $84 $85 $36 #
cone-surface $-1 -15.161300634567993 -33.80302229572461 6.531954347764696 0 0.52991927123019833 -0.84804809178421925 1 0 0 1 I I 0 1 1 forward I I I I #
face $-1 $86 $87 $29 $-1 $88 reversed single #
loop $-1 $-1 $89 $37 #
plane-surface $-1 30.016988798934996 64.238082893105314 143.69515697157135 1 0 0 0 -0.69465837861970381 -0.71933979245794832 forward_v I I I I #
face $-1 $90 $91 $30 $-1 $92 forward single #
loop $-1 $93 $94 $38 #
cone-surface $-1 38.101022195124521 36.214274232433489 7.8743788922934632 0 -0.69465837861970381 -0.71933979245794832 1 0 0 1 I I 0 1 1 forward I I I I #
face $-1 $95 $96 $31 $-1 $97 forward single #
loop $-1 $98 $99 $39 #
cone-surface $-1 50.227072289408802 36.214274232433489 7.8743788922934632 0 -0.69465837861970381 -0.71933979245794832 1 0 0 1 I I 0 1 1 forward I I I I #
face $-1 $100 $101 $24 $-1 $102 reversed single #
loop $-1 $-1 $103 $40 #
plane-surface $-1 0 0 -9.8557843276186485 0 0 1 1 0 0 forward_v I I I I #
coedge $-1 $104 $105 $106 $107 forward $41 $-1 #
face $-1 $108 $109 $25 $-1 $110 forward single #
loop $-1 $-1 $111 $43 #
plane-surface $-1 0 38.238646031979194 0 0 -1 0 0 0 -1 forward_v I I I I #
coedge $-1 $112 $113 $114 $115 forward $44 $-1 #
face $-1 $116 $117 $26 $-1 $118 reversed single #
loop $-1 $-1 $119 $46 #
plane-surface $-1 -21.717612943611961 -38.238646031979201 5.0198058286759988 0 -0.52991927123019833 0.84804809178421925 1 0 0 forward_v I I I I #
coedge $-1 $120 $121 $122 $123 reversed $47 $-1 #
face $-1 $-1 $124 $27 $-1 $125 forward single #
loop $-1 $126 $127 $49 #
cone-surface $-1 -28.273925252655925 -32.972030539590179 5.2020895714899549 0 0.52991927123019833 -0.84804809178421925 0.5 0 0 1 I I -0.70710678118654746 0.70710678118654746 0.5 forward I I I I #
loop $-1 $-1 $128 $35 #
coedge $-1 $80 $80 $129 $130 reversed $50 $-1 #
face $-1 $-1 $131 $28 $-1 $132 forward single #
loop $-1 $133 $134 $52 #
cone-surface $-1 -15.161300634567993 -32.972030539590179 5.2020895714899549 0 0.52991927123019833 -0.84804809178421925 0.5 0 0 1 I I -0.70710678118654746 0.70710678118654746 0.5 forward I I I I #
loop $-1 $-1 $135 $36 #
coedge $-1 $85 $85 $136 $137 reversed $53 $-1 #
face $-1 $138 $139 $29 $-1 $140 forward single #
loop $-1 $-1 $141 $55 #
plane-surface $-1 44.164047242266655 -16.774513369054517 59.804159647827788 0 0.69465837861970381 0.71933979245794832 1 0 0 forward_v I I I I #
coedge $-1 $142 $143 $144 $145 reversed $56 $-1 #
face $-1 $-1 $146 $30 $-1 $147 forward single #
loop $-1 $148 $149 $58 #
cone-surface $-1 38.101022195124521 35.487625146903262 7.121911753822177 0 -0.69465837861970381 -0.71933979245794832 0.5 0 0 1 I I -0.70710678118654746 0.70710678118654746 0.5 forward I I I I #
loop $-1 $-1 $150 $38 #
coedge $-1 $94 $94 $151 $152 reversed $59 $-1 #
face $-1 $-1 $153 $31 $-1 $154 forward single #
loop $-1 $155 $156 $61 #
cone-surface $-1 50.227072289408802 35.487625146903262 7.121911753822177 0 -0.69465837861970381 -0.71933979245794832 0.5 0 0 1 I I -0.70710678118654746 0.70710678118654746 0.5 forward I I I I #
loop $-1 $-1 $157 $39 #
coedge $-1 $99 $99 $158 $159 reversed $62 $-1 #
face $-1 $160 $161 $24 $-1 $162 reversed single #
loop $-1 $-1 $163 $64 #
plane-surface $-1 0 -38.238646031979194 0 0 1 0 0 0 1 forward_v I I I I #
coedge $-1 $164 $165 $166 $167 forward $65 $-1 #
coedge $-1 $168 $67 $169 $170 forward $41 $-1 #
coedge $-1 $67 $168 $171 $172 forward $41 $-1 #
coedge $-1 $173 $174 $67 $107 reversed $175 $-1 #
edge $-1 $176 -38.238646031979194 $177 38.238646031979194 $106 $178 forward 7 unknown #
face $-1 $179 $180 $25 $-1 $181 reversed single #
loop $-1 $-1 $114 $68 #
plane-surface $-1 -64.12369337975295 0 -0.60356382113364937 0 0 1 1 0 0 forward_v I I I I #
coedge $-1 $182 $183 $113 $184 forward $69 $-1 #
coedge $-1 $185 $71 $186 $187 reversed $44 $-1 #
coedge $-1 $71 $185 $111 $184 reversed $44 $-1 #
coedge $-1 $188 $189 $71 $115 reversed $109 $-1 #
edge $-1 $190 -38.238646031979194 $191 38.238646031979194 $114 $192 forward 7 unknown #
face $-1 $193 $194 $26 $-1 $195 reversed single #
loop $-1 $-1 $196 $72 #
plane-surface $-1 -37.015674998047878 -100.03900329105787 103.92104964167517 1 0 0 0 0.52991927123019833 -0.84804809178421925 forward_v I I I I #
coedge $-1 $197 $198 $199 $200 reversed $73 $-1 #
coedge $-1 $121 $75 $201 $202 reversed $47 $-1 #
coedge $-1 $75 $120 $197 $203 reversed $47 $-1 #
coedge $-1 $199 $204 $75 $123 forward $205 $-1 #
edge $-1 $206 11.78085561354974 $207 19.520038845020249 $122 $208 forward 7 unknown #
loop $-1 $-1 $129 $76 #
plane-surface $-1 -21.717612943611961 -38.238646031979201 5.0198058286759988 0 -0.52991927123019833 0.84804809178421925 1 0 0 forward_v I I I I #
loop $-1 $-1 $209 $49 #
coedge $-1 $127 $127 $128 $210 reversed $77 $-1 #
coedge $-1 $128 $128 $127 $210 forward $79 $-1 #
coedge $-1 $129 $129 $80 $130 forward $124 $-1 #
edge $-1 $211 4.7066286088987959e-016 $211 6.2831853071796013 $129 $212 forward 7 unknown #
loop $-1 $-1 $136 $81 #
plane-surface $-1 -21.717612943611961 -38.238646031979201 5.0198058286759988 0 -0.52991927123019833 0.84804809178421925 1 0 0 forward_v I I I I #
loop $-1 $-1 $213 $52 #
coedge $-1 $134 $134 $135 $214 reversed $82 $-1 #
coedge $-1 $135 $135 $134 $214 forward $84 $-1 #
coedge $-1 $136 $136 $85 $137 forward $131 $-1 #
edge $-1 $215 4.7066286088987959e-016 $215 6.2831853071796013 $136 $216 forward 7 unknown #
face $-1 $217 $218 $29 $-1 $219 reversed single #
loop $-1 $-1 $144 $86 #
plane-surface $-1 0 0 9.8557843276186485 0 0 1 1 0 0 forward_v I I I I #
coedge $-1 $220 $221 $222 $223 reversed $87 $-1 #
coedge $-1 $143 $89 $224 $225 reversed $56 $-1 #
coedge $-1 $89 $142 $220 $226 reversed $56 $-1 #
coedge $-1 $222 $227 $89 $145 forward $139 $-1 #
edge $-1 $228 -6.1196045854265364 $229 -2.829500778775909 $144 $230 forward 7 unknown #
loop $-1 $-1 $151 $90 #
plane-surface $-1 44.164047242266655 -16.774513369054517 59.804159647827788 0 0.69465837861970381 0.71933979245794832 1 0 0 forward_v I I I I #
loop $-1 $-1 $231 $58 #
coedge $-1 $149 $149 $150 $232 reversed $91 $-1 #
coedge $-1 $150 $150 $149 $232 forward $93 $-1 #
coedge $-1 $151 $151 $94 $152 forward $146 $-1 #
edge $-1 $233 4.7604726545206638e-015 $233 6.2831853071796049 $151 $234 forward 7 unknown #
loop $-1 $-1 $158 $95 #
plane-surface $-1 44.164047242266655 -16.774513369054517 59.804159647827788 0 0.69465837861970381 0.71933979245794832 1 0 0 forward_v I I I I #
loop $-1 $-1 $235 $61 #
coedge $-1 $156 $156 $157 $236 reversed $96 $-1 #
coedge $-1 $157 $157 $156 $236 forward $98 $-1 #
coedge $-1 $158 $158 $99 $159 forward $153 $-1 #
edge $-1 $237 4.7604726545206638e-015 $237 6.2831853071796049 $158 $238 forward 7 unknown #
face $-1 $239 $240 $24 $-1 $241 reversed single #
loop $-1 $-1 $242 $100 #
plane-surface $-1 -58.311105685598314 0 0 1 0 0 0 0 -1 forward_v I I I I #
coedge $-1 $243 $171 $244 $245 forward $101 $-1 #
coedge $-1 $246 $103 $243 $247 forward $65 $-1 #
coedge $-1 $103 $246 $248 $249 forward $65 $-1 #
coedge $-1 $174 $173 $103 $167 reversed $175 $-1 #
edge $-1 $250 -38.238646031979194 $251 38.238646031979194 $166 $252 forward 7 unknown #
coedge $-1 $105 $104 $253 $254 forward $41 $-1 #
coedge $-1 $255 $256 $104 $170 reversed $240 $-1 #
edge $-1 $177 -58.311105685598314 $257 58.311105685598314 $169 $258 forward 7 unknown #
coedge $-1 $163 $259 $105 $172 reversed $101 $-1 #
edge $-1 $260 -58.311105685598314 $176 58.311105685598314 $171 $261 forward 7 unknown #
coedge $-1 $166 $106 $259 $262 forward $175 $-1 #
coedge $-1 $106 $166 $255 $263 reversed $175 $-1 #
loop $-1 $-1 $173 $239 #
vertex $-1 $107 $264 #
vertex $-1 $107 $265 #
straight-curve $-1 58.311105685598314 0 9.8557843276186485 0 1 0 I I #
face $-1 $266 $267 $25 $-1 $268 reversed single #
loop $-1 $-1 $269 $108 #
plane-surface $-1 -64.12369337975295 0 -6.0362615160273698 0 0 1 1 0 0 forward_v I I I I #
coedge $-1 $270 $111 $271 $272 reversed $69 $-1 #
coedge $-1 $111 $270 $188 $273 reversed $69 $-1 #
edge $-1 $190 0.60356382113364937 $274 6.0362615160273698 $111 $275 forward 7 unknown #
coedge $-1 $113 $112 $269 $276 forward $44 $-1 #
coedge $-1 $277 $278 $112 $187 forward $279 $-1 #
edge $-1 $280 -6.0362615160273698 $191 -0.60356382113364937 $186 $281 forward 7 unknown #
coedge $-1 $282 $114 $183 $273 forward $109 $-1 #
coedge $-1 $114 $282 $277 $283 forward $109 $-1 #
vertex $-1 $184 $284 #
vertex $-1 $283 $285 #
straight-curve $-1 -58.311105685598314 0 -0.60356382113364937 0 -1 0 I I #
face $-1 $-1 $205 $26 $-1 $286 forward single #
loop $-1 $-1 $287 $116 #
plane-surface $-1 0 -38.238646031979194 0 0 1 0 0 0 1 forward_v I I I I #
coedge $-1 $288 $289 $290 $291 reversed $117 $-1 #
coedge $-1 $292 $119 $121 $203 forward $73 $-1 #
coedge $-1 $119 $292 $288 $293 forward $73 $-1 #
coedge $-1 $290 $122 $119 $200 forward $205 $-1 #
edge $-1 $207 -4.4392555826299365 $294 26.156868526241897 $199 $295 forward 7 unknown #
coedge $-1 $296 $297 $120 $202 forward $194 $-1 #
edge $-1 $298 -46.940718992161578 $206 -42.104740493218934 $201 $299 forward 7 unknown #
edge $-1 $207 -9.1258777732615961 $298 -8.3790584163743152e-015 $121 $300 forward 7 unknown #
coedge $-1 $122 $290 $296 $301 forward $205 $-1 #
loop $-1 $-1 $290 $193 #
vertex $-1 $202 $302 #
vertex $-1 $123 $303 #
straight-curve $-1 -6.419550889176044 -50.019501645528933 9.8557843276186503 0 1 0 I I #
coedge $-1 $209 $209 $-1 $304 reversed $126 $-1 #
edge $-1 $305 0 $305 6.2831853071796004 $127 $306 forward 7 unknown #
vertex $-1 $130 $307 #
ellipse-curve $-1 -28.273925252655925 -34.369054416243941 7.4377950781473254 0 -0.52991927123019833 0.84804809178421925 1 0 0 1 I I #
coedge $-1 $213 $213 $-1 $308 reversed $133 $-1 #
edge $-1 $309 0 $309 6.2831853071796004 $134 $310 forward 7 unknown #
vertex $-1 $137 $311 #
ellipse-curve $-1 -15.161300634567993 -34.369054416243941 7.4377950781473254 0 -0.52991927123019833 0.84804809178421925 1 0 0 1 I I #
face $-1 $-1 $312 $29 $-1 $313 reversed single #
loop $-1 $-1 $314 $138 #
plane-surface $-1 58.311105685598314 0 0 -1 0 0 0 0 1 forward_v I I I I #
coedge $-1 $315 $141 $143 $226 forward $87 $-1 #
coedge $-1 $141 $315 $314 $316 reversed $87 $-1 #
coedge $-1 $317 $144 $141 $223 forward $139 $-1 #
edge $-1 $229 7.9349651778016685 $318 36.22908206446499 $222 $319 forward 7 unknown #
coedge $-1 $320 $321 $142 $225 forward $312 $-1 #
edge $-1 $322 -65.16901054433275 $228 -61.991794158167025 $224 $323 forward 7 unknown #
edge $-1 $229 71.903509491179364 $322 76.477292063958373 $143 $324 forward 7 unknown #
coedge $-1 $144 $317 $320 $325 forward $139 $-1 #
vertex $-1 $225 $326 #
vertex $-1 $145 $327 #
straight-curve $-1 30.016988798934996 32.119041446552657 9.8557843276186503 0 -1 0 I I #
coedge $-1 $231 $231 $-1 $328 reversed $148 $-1 #
edge $-1 $329 0 $329 6.2831853071796004 $149 $330 forward 7 unknown #
vertex $-1 $152 $331 #
ellipse-curve $-1 38.101022195124521 36.593594128653876 8.2671761345357897 0 0.69465837861970381 0.71933979245794832 1 0 0 1 I I #
coedge $-1 $235 $235 $-1 $332 reversed $155 $-1 #
edge $-1 $333 0 $333 6.2831853071796004 $156 $334 forward 7 unknown #
vertex $-1 $159 $335 #
ellipse-curve $-1 50.227072289408802 36.593594128653876 8.2671761345357897 0 0.69465837861970381 0.71933979245794832 1 0 0 1 I I #
face $-1 $-1 $175 $24 $-1 $336 reversed single #
loop $-1 $-1 $255 $160 #
plane-surface $-1 0 38.238646031979194 0 0 -1 0 0 0 -1 forward_v I I I I #
coedge $-1 $337 $253 $256 $338 forward $161 $-1 #
coedge $-1 $259 $163 $164 $247 reversed $101 $-1 #
coedge $-1 $253 $337 $163 $245 reversed $161 $-1 #
edge $-1 $260 -9.8557843276186485 $339 9.8557843276186485 $244 $340 forward 7 unknown #
coedge $-1 $165 $164 $337 $341 forward $65 $-1 #
edge $-1 $251 -58.311105685598314 $339 58.311105685598314 $243 $342 forward 7 unknown #
coedge $-1 $256 $255 $165 $249 reversed $240 $-1 #
edge $-1 $343 -58.311105685598314 $250 58.311105685598314 $248 $344 forward 7 unknown #
vertex $-1 $167 $345 #
vertex $-1 $262 $346 #
straight-curve $-1 58.311105685598314 0 -9.8557843276186485 0 -1 0 I I #
coedge $-1 $242 $244 $168 $254 reversed $161 $-1 #
edge $-1 $257 -38.238646031979194 $260 38.238646031979194 $253 $347 forward 7 unknown #
coedge $-1 $248 $169 $174 $263 forward $240 $-1 #
coedge $-1 $169 $248 $242 $338 reversed $240 $-1 #
vertex $-1 $170 $348 #
straight-curve $-1 0 38.238646031979194 9.8557843276186485 -1 0 0 I I #
coedge $-1 $171 $243 $173 $262 reversed $101 $-1 #
vertex $-1 $254 $349 #
straight-curve $-1 0 -38.238646031979194 9.8557843276186485 1 0 0 I I #
edge $-1 $176 -9.8557843276186485 $251 9.8557843276186485 $173 $350 forward 7 unknown #
edge $-1 $177 -9.8557843276186485 $250 9.8557843276186485 $174 $351 forward 7 unknown #
point $-1 58.311105685598314 -38.238646031979194 9.8557843276186485 #
point $-1 58.311105685598314 38.238646031979194 9.8557843276186485 #
face $-1 $-1 $279 $25 $-1 $352 reversed single #
loop $-1 $-1 $353 $179 #
plane-surface $-1 -69.93628107390758 0 -3.3199126685805096 1 0 0 0 0 -1 forward_v I I I I #
coedge $-1 $354 $271 $185 $276 reversed $180 $-1 #
coedge $-1 $183 $182 $353 $355 reversed $69 $-1 #
coedge $-1 $269 $356 $182 $272 forward $180 $-1 #
edge $-1 $357 -5.8125876941546295 $274 5.8125876941546366 $182 $358 forward 7 unknown #
edge $-1 $190 -5.8125876941546366 $359 5.8125876941546295 $183 $360 forward 7 unknown #
vertex $-1 $184 $361 #
straight-curve $-1 -58.311105685598314 38.238646031979194 0 0 0 -1 I I #
edge $-1 $280 -38.238646031979194 $274 38.238646031979194 $269 $362 forward 7 unknown #
coedge $-1 $363 $186 $189 $283 reversed $279 $-1 #
coedge $-1 $186 $363 $354 $364 reversed $279 $-1 #
loop $-1 $-1 $186 $266 #
vertex $-1 $187 $365 #
straight-curve $-1 -58.311105685598314 -38.238646031979194 0 0 0 1 I I #
coedge $-1 $189 $188 $366 $367 forward $109 $-1 #
edge $-1 $368 -5.8125876941546295 $191 5.8125876941546366 $277 $369 forward 7 unknown #
point $-1 -58.311105685598314 38.238646031979194 -0.60356382113364937 #
point $-1 -58.311105685598314 -38.238646031979194 -0.60356382113364937 #
plane-surface $-1 0 0 9.8557843276186485 0 0 1 1 0 0 forward_v I I I I #
coedge $-1 $297 $296 $289 $370 forward $194 $-1 #
coedge $-1 $289 $196 $198 $293 reversed $117 $-1 #
coedge $-1 $196 $288 $287 $370 reversed $117 $-1 #
coedge $-1 $204 $199 $196 $291 forward $205 $-1 #
edge $-1 $294 -19.520038845020249 $371 -11.78085561354974 $290 $372 forward 7 unknown #
coedge $-1 $198 $197 $297 $373 reversed $73 $-1 #
edge $-1 $374 8.3790584163743152e-015 $294 9.1258777732615961 $288 $375 forward 7 unknown #
vertex $-1 $200 $376 #
straight-curve $-1 -10.85880647180598 -30.499462800508688 9.8557843276186485 -1 0 0 I I #
coedge $-1 $287 $201 $204 $301 reversed $194 $-1 #
coedge $-1 $201 $287 $292 $373 forward $194 $-1 #
vertex $-1 $202 $377 #
straight-curve $-1 -6.419550889176044 -38.238646031979194 51.960524820837584 0 0 1 I I #
straight-curve $-1 -6.419550889176044 -38.238646031979201 5.0198058286759988 0 -0.84804809178421925 -0.52991927123019833 I I #
edge $-1 $371 -37.015674998047878 $206 -6.419550889176044 $296 $378 forward 7 unknown #
point $-1 -6.419550889176044 -38.238646031979194 9.8557843276186485 #
point $-1 -6.419550889176044 -30.499462800508685 9.8557843276186485 #
edge $-1 $379 1 $379 0 $209 $-1 forward 7 unknown #
vertex $-1 $210 $380 #
ellipse-curve $-1 -28.273925252655925 -33.236990175205278 5.6261136173820647 0 -0.52991927123019833 0.84804809178421925 1 0 0 1 I I #
point $-1 -27.273925252655925 -34.369054416243941 7.4377950781473263 #
edge $-1 $381 1 $381 0 $213 $-1 forward 7 unknown #
vertex $-1 $214 $382 #
ellipse-curve $-1 -15.161300634567993 -33.236990175205278 5.6261136173820647 0 -0.52991927123019833 0.84804809178421925 1 0 0 1 I I #
point $-1 -14.161300634567993 -34.369054416243941 7.4377950781473263 #
loop $-1 $-1 $224 $217 #
plane-surface $-1 0 38.238646031979194 0 0 -1 0 0 0 -1 forward_v I I I I #
coedge $-1 $383 $384 $221 $316 forward $218 $-1 #
coedge $-1 $221 $220 $321 $385 reversed $87 $-1 #
edge $-1 $318 45.098491720602993 $386 49.672274293382003 $314 $387 forward 7 unknown #
coedge $-1 $227 $222 $384 $388 forward $139 $-1 #
vertex $-1 $388 $389 #
straight-curve $-1 22.082023621133327 34.948542225328559 9.8557843276186503 1 0 0 I I #
coedge $-1 $390 $224 $227 $325 reversed $312 $-1 #
coedge $-1 $224 $390 $315 $385 forward $312 $-1 #
vertex $-1 $225 $391 #
straight-curve $-1 30.016988798934996 38.238646031979194 71.847578485785675 0 0 1 I I #
straight-curve $-1 30.016988798934996 -16.774513369054517 59.804159647827788 0 0.71933979245794832 -0.69465837861970381 I I #
edge $-1 $392 -58.311105685598314 $228 -30.016988798934996 $320 $393 forward 7 unknown #
point $-1 30.016988798934996 38.238646031979194 9.8557843276186485 #
point $-1 30.016988798934996 34.948542225328566 9.8557843276186503 #
edge $-1 $394 1 $394 0 $231 $-1 forward 7 unknown #
vertex $-1 $232 $395 #
ellipse-curve $-1 38.101022195124521 35.834954336213116 7.4815816500511509 0 0.69465837861970381 0.71933979245794832 1 0 0 1 I I #
point $-1 39.101022195124521 36.593594128653869 8.2671761345357755 #
edge $-1 $396 1 $396 0 $235 $-1 forward 7 unknown #
vertex $-1 $236 $397 #
ellipse-curve $-1 50.227072289408802 35.834954336213116 7.4815816500511509 0 0.69465837861970381 0.71933979245794832 1 0 0 1 I I #
point $-1 51.227072289408802 36.593594128653869 8.2671761345357755 #
plane-surface $-1 58.311105685598314 0 0 -1 0 0 0 0 1 forward_v I I I I #
coedge $-1 $244 $242 $246 $341 reversed $161 $-1 #
edge $-1 $257 -9.8557843276186485 $343 9.8557843276186485 $256 $398 forward 7 unknown #
vertex $-1 $341 $399 #
straight-curve $-1 -58.311105685598314 -38.238646031979194 0 0 0 -1 I I #
edge $-1 $339 -38.238646031979194 $343 38.238646031979194 $337 $400 forward 7 unknown #
straight-curve $-1 0 -38.238646031979194 -9.8557843276186485 -1 0 0 I I #
vertex $-1 $249 $401 #
straight-curve $-1 0 38.238646031979194 -9.8557843276186485 1 0 0 I I #
point $-1 58.311105685598314 38.238646031979194 -9.8557843276186485 #
point $-1 58.311105685598314 -38.238646031979194 -9.8557843276186485 #
straight-curve $-1 -58.311105685598314 0 9.8557843276186485 0 -1 0 I I #
point $-1 -58.311105685598314 38.238646031979194 9.8557843276186485 #
point $-1 -58.311105685598314 -38.238646031979194 9.8557843276186485 #
straight-curve $-1 58.311105685598314 -38.238646031979194 0 0 0 -1 I I #
straight-curve $-1 58.311105685598314 38.238646031979194 0 0 0 -1 I I #
plane-surface $-1 0 -38.238646031979194 0 0 1 0 0 0 1 forward_v I I I I #
coedge $-1 $402 $366 $270 $355 forward $267 $-1 #
coedge $-1 $356 $269 $278 $364 forward $180 $-1 #
edge $-1 $359 -2.7163488474468602 $357 2.7163488474468602 $270 $403 forward 7 unknown #
coedge $-1 $271 $354 $402 $404 forward $180 $-1 #
vertex $-1 $272 $405 #
straight-curve $-1 -64.12369337975295 38.238646031979194 -6.0362615160273698 1 0 0 I I #
vertex $-1 $273 $406 #
straight-curve $-1 -64.12369337975295 38.238646031979194 -0.60356382113364937 -1 0 0 I I #
point $-1 -58.311105685598314 38.238646031979194 -6.0362615160273698 #
straight-curve $-1 -58.311105685598314 0 -6.0362615160273698 0 1 0 I I #
coedge $-1 $278 $277 $407 $408 forward $279 $-1 #
edge $-1 $280 -5.8125876941546366 $409 5.8125876941546295 $278 $410 forward 7 unknown #
point $-1 -58.311105685598314 -38.238646031979194 -6.0362615160273698 #
coedge $-1 $353 $407 $282 $367 reversed $267 $-1 #
edge $-1 $359 -38.238646031979194 $368 38.238646031979194 $366 $411 forward 7 unknown #
vertex $-1 $367 $412 #
straight-curve $-1 -64.12369337975295 -38.238646031979194 -0.60356382113364937 1 0 0 I I #
edge $-1 $371 42.104740493218934 $374 46.940718992161578 $287 $413 forward 7 unknown #
vertex $-1 $301 $414 #
straight-curve $-1 -37.015674998047878 -50.019501645528933 9.8557843276186503 0 -1 0 I I #
edge $-1 $374 -26.156868526241897 $298 4.4392555826299365 $297 $415 forward 7 unknown #
vertex $-1 $373 $416 #
straight-curve $-1 -37.015674998047878 -38.238646031979201 5.0198058286759988 0 0.84804809178421925 0.52991927123019833 I I #
point $-1 -37.015674998047878 -30.499462800508685 9.8557843276186485 #
point $-1 -6.419550889176044 -38.238646031979194 5.0198058286760032 #
straight-curve $-1 0 -38.238646031979194 9.8557843276186485 1 0 0 I I #
vertex $-1 $304 $417 #
point $-1 -27.273925252655925 -33.236990175205278 5.6261136173820647 #
vertex $-1 $308 $418 #
point $-1 -14.161300634567993 -33.236990175205278 5.6261136173820647 #
coedge $-1 $384 $314 $390 $419 reversed $218 $-1 #
coedge $-1 $314 $383 $317 $388 reversed $218 $-1 #
edge $-1 $386 -36.22908206446499 $322 -7.9349651778016685 $321 $420 forward 7 unknown #
vertex $-1 $316 $421 #
straight-curve $-1 58.311105685598314 2.5074025508634996 41.183829464446859 0 0.71933979245794832 -0.69465837861970381 I I #
edge $-1 $318 34.948542225328566 $392 38.238646031979194 $384 $422 forward 7 unknown #
point $-1 58.311105685598314 34.948542225328566 9.8557843276186503 #
coedge $-1 $321 $320 $383 $419 forward $312 $-1 #
point $-1 30.016988798934996 38.238646031979194 6.6785679414529255 #
vertex $-1 $388 $423 #
straight-curve $-1 0 38.238646031979194 9.8557843276186485 -1 0 0 I I #
vertex $-1 $328 $424 #
point $-1 39.101022195124521 35.834954336213116 7.4815816500511509 #
vertex $-1 $332 $425 #
point $-1 51.227072289408802 35.834954336213116 7.4815816500511509 #
straight-curve $-1 -58.311105685598314 38.238646031979194 0 0 0 -1 I I #
point $-1 -58.311105685598314 -38.238646031979194 -9.8557843276186485 #
straight-curve $-1 -58.311105685598314 0 -9.8557843276186485 0 1 0 I I #
point $-1 -58.311105685598314 38.238646031979194 -9.8557843276186485 #
coedge $-1 $407 $353 $356 $404 reversed $267 $-1 #
straight-curve $-1 -69.93628107390758 38.238646031979194 -3.3199126685805096 0 0 -1 I I #
edge $-1 $409 -38.238646031979194 $357 38.238646031979194 $402 $426 forward 7 unknown #
point $-1 -69.93628107390758 38.238646031979194 -6.0362615160273698 #
point $-1 -69.93628107390758 38.238646031979194 -0.60356382113364937 #
coedge $-1 $366 $402 $363 $408 reversed $267 $-1 #
edge $-1 $368 -2.7163488474468602 $409 2.7163488474468602 $407 $427 forward 7 unknown #
vertex $-1 $404 $428 #
straight-curve $-1 -64.12369337975295 -38.238646031979194 -6.0362615160273698 -1 0 0 I I #
straight-curve $-1 -69.93628107390758 0 -0.60356382113364937 0 -1 0 I I #
point $-1 -69.93628107390758 -38.238646031979194 -0.60356382113364937 #
straight-curve $-1 -37.015674998047878 -38.238646031979194 51.960524820837584 0 0 -1 I I #
point $-1 -37.015674998047878 -38.238646031979194 9.8557843276186485 #
straight-curve $-1 -10.85880647180598 -38.238646031979194 5.0198058286760068 1 0 0 I I #
point $-1 -37.015674998047878 -38.238646031979194 5.0198058286760032 #
point $-1 -28.273925252655925 -32.70707090397508 4.778065525597845 #
point $-1 -15.161300634567993 -32.70707090397508 4.778065525597845 #
edge $-1 $392 -9.8557843276186485 $386 -6.6785679414529255 $383 $429 forward 7 unknown #
straight-curve $-1 22.082023621133327 38.238646031979187 6.6785679414529255 -1 0 0 I I #
point $-1 58.311105685598314 38.238646031979194 6.6785679414529255 #
straight-curve $-1 58.311105685598314 0 9.8557843276186485 0 1 0 I I #
point $-1 58.311105685598314 38.238646031979194 9.8557843276186485 #
point $-1 38.101022195124521 35.140295957593409 6.7622418575932031 #
point $-1 50.227072289408802 35.140295957593409 6.7622418575932031 #
straight-curve $-1 -69.93628107390758 0 -6.0362615160273698 0 1 0 I I #
straight-curve $-1 -69.93628107390758 -38.238646031979194 -3.3199126685805096 0 0 -1 I I #
point $-1 -69.93628107390758 -38.238646031979194 -6.0362615160273698 #
straight-curve $-1 58.311105685598314 38.238646031979194 0 0 0 -1 I I #
End-of-ACIS-data 