500 0 8 0           
7 Unknown 11 ACIS 5.0 NT 24 Thu Mar 25 17:30:53 1999 
-1 9.9999999999999995e-007 1e-010 
body $-1 $8 $-1 $9 #
body $-1 $10 $-1 $11 #
body $-1 $12 $-1 $13 #
body $-1 $14 $-1 $15 #
body $-1 $16 $-1 $17 #
body $-1 $18 $-1 $19 #
body $-1 $20 $-1 $21 #
body $-1 $22 $-1 $23 #
lump $-1 $-1 $24 $0 #
transform $-1 1 0 0 0 1 0 0 0 1 58.595538193914606 32.260002716703376 13.395870875104613 1 rotate no_reflect no_shear #
lump $-1 $-1 $25 $1 #
transform $-1 1 0 0 0 1 0 0 0 1 58.595538193914606 32.260002716703376 13.395870875104613 1 rotate no_reflect no_shear #
lump $-1 $-1 $26 $2 #
transform $-1 1 0 0 0 1 0 0 0 1 58.595538193914606 32.260002716703376 13.395870875104613 1 rotate no_reflect no_shear #
lump $-1 $-1 $27 $3 #
transform $-1 1 0 0 0 1 0 0 0 1 58.595538193914606 32.260002716703376 13.395870875104613 1 rotate no_reflect no_shear #
lump $-1 $-1 $28 $4 #
transform $-1 1 0 0 0 1 0 0 0 1 58.595538193914606 32.260002716703376 13.395870875104613 1 rotate no_reflect no_shear #
lump $-1 $-1 $29 $5 #
transform $-1 1 0 0 0 1 0 0 0 1 58.595538193914606 32.260002716703376 13.395870875104613 1 rotate no_reflect no_shear #
lump $-1 $-1 $30 $6 #
transform $-1 1 0 0 0 1 0 0 0 1 58.595538193914606 32.260002716703376 13.395870875104613 1 rotate no_reflect no_shear #
lump $-1 $-1 $31 $7 #
transform $-1 1 0 0 0 1 0 0 0 1 58.595538193914606 32.260002716703376 13.395870875104613 1 rotate no_reflect no_shear #
shell $-1 $-1 $-1 $32 $-1 $8 #
shell $-1 $-1 $-1 $33 $-1 $10 #
shell $-1 $-1 $-1 $34 $-1 $12 #
shell $-1 $-1 $-1 $35 $-1 $14 #
shell $-1 $-1 $-1 $36 $-1 $16 #
shell $-1 $-1 $-1 $37 $-1 $18 #
shell $-1 $-1 $-1 $38 $-1 $20 #
shell $-1 $-1 $-1 $39 $-1 $22 #
face $-1 $40 $41 $24 $-1 $42 reversed single #
face $-1 $43 $44 $25 $-1 $45 forward single #
face $-1 $46 $47 $26 $-1 $48 reversed single #
face $-1 $49 $50 $27 $-1 $51 forward single #
face $-1 $52 $53 $28 $-1 $54 forward single #
face $-1 $55 $56 $29 $-1 $57 forward single #
face $-1 $58 $59 $30 $-1 $60 reversed single #
face $-1 $61 $62 $31 $-1 $63 forward single #
face $-1 $64 $65 $24 $-1 $66 forward single #
loop $-1 $-1 $67 $32 #
plane-surface $-1 0 -32.260002716703376 0 0 1 0 0 0 1 forward_v I I I I #
face $-1 $68 $69 $25 $-1 $70 reversed single #
loop $-1 $-1 $71 $33 #
plane-surface $-1 0 -32.260002716703376 0 0 1 0 0 0 1 forward_v I I I I #
face $-1 $72 $73 $26 $-1 $74 reversed single #
loop $-1 $-1 $75 $34 #
plane-surface $-1 24.137667737170133 4.8988914757157804 171.18472854582973 0 -1 0 -0.54463904215088732 0 -0.83867056331134215 forward_v I I I I #
face $-1 $76 $77 $27 $-1 $78 forward single #
loop $-1 $79 $80 $35 #
cone-surface $-1 54.86282764389329 -4.9217373050394286 10.611598375058016 -0.54463904215088732 0 -0.83867056331134215 0.83867056331134215 0 -0.54463904215088732 1 I I 0 1 1 forward I I I I #
face $-1 $81 $82 $28 $-1 $83 forward single #
loop $-1 $84 $85 $36 #
cone-surface $-1 54.86282764389329 -1.2390015122562268 10.611598375058016 -0.54463904215088732 0 -0.83867056331134215 0.83867056331134215 0 -0.54463904215088732 1 I I 0 1 1 forward I I I I #
face $-1 $86 $87 $29 $-1 $88 forward single #
loop $-1 $89 $90 $37 #
cone-surface $-1 54.86282764389329 2.4437342805269751 10.611598375058016 -0.54463904215088732 0 -0.83867056331134215 0.83867056331134215 0 -0.54463904215088732 1 I I 0 1 1 forward I I I I #
face $-1 $91 $92 $30 $-1 $93 reversed single #
loop $-1 $-1 $94 $38 #
plane-surface $-1 -117.19107717286134 20.638698955068456 110.54491697700703 0 1 0 -0.50000000669873634 0 0.8660253999169214 forward_v I I I I #
face $-1 $95 $96 $31 $-1 $97 forward single #
loop $-1 $98 $99 $39 #
cone-surface $-1 -53.731369404680017 26.449350835885916 9.3122860069641629 0.50000000669873634 0 -0.8660253999169214 1.7320507998338428 0 1.0000000133974727 1 I I 0 1 2 forward I I I I #
face $-1 $100 $101 $24 $-1 $102 reversed single #
loop $-1 $-1 $103 $40 #
plane-surface $-1 0 0 13.395870875104613 0 0 1 1 0 0 forward_v I I I I #
coedge $-1 $104 $105 $106 $107 reversed $41 $-1 #
face $-1 $108 $109 $25 $-1 $110 reversed single #
loop $-1 $-1 $111 $43 #
plane-surface $-1 0 0 -13.395870875104613 0 0 1 1 0 0 forward_v I I I I #
coedge $-1 $112 $113 $114 $115 forward $44 $-1 #
face $-1 $116 $117 $26 $-1 $118 reversed single #
loop $-1 $-1 $119 $46 #
plane-surface $-1 -39.689167855328634 -1.2390015122562232 72.900022496586473 0.54463904215088732 0 0.83867056331134215 0.83867056331134215 0 -0.54463904215088732 forward_v I I I I #
coedge $-1 $120 $121 $122 $123 reversed $47 $-1 #
face $-1 $-1 $124 $27 $-1 $125 forward single #
loop $-1 $126 $127 $49 #
cone-surface $-1 54.185972309106845 -4.9217373050394286 9.5693325788641985 -0.54463904215088732 0 -0.83867056331134215 0.41933528165567108 0 -0.27231952107544366 1 I I -0.70710678118654746 0.70710678118654746 0.5 forward I I I I #
loop $-1 $-1 $128 $35 #
coedge $-1 $80 $80 $129 $130 reversed $50 $-1 #
face $-1 $-1 $131 $28 $-1 $132 forward single #
loop $-1 $133 $134 $52 #
cone-surface $-1 54.185972309106845 -1.2390015122562268 9.5693325788641985 -0.54463904215088732 0 -0.83867056331134215 0.41933528165567108 0 -0.27231952107544366 1 I I -0.70710678118654746 0.70710678118654746 0.5 forward I I I I #
loop $-1 $-1 $135 $36 #
coedge $-1 $85 $85 $136 $137 reversed $53 $-1 #
face $-1 $-1 $138 $29 $-1 $139 forward single #
loop $-1 $140 $141 $55 #
cone-surface $-1 54.185972309106845 2.4437342805269751 9.5693325788641985 -0.54463904215088732 0 -0.83867056331134215 0.41933528165567108 0 -0.27231952107544366 1 I I -0.70710678118654746 0.70710678118654746 0.5 forward I I I I #
loop $-1 $-1 $142 $37 #
coedge $-1 $90 $90 $143 $144 reversed $56 $-1 #
face $-1 $145 $146 $30 $-1 $147 reversed single #
loop $-1 $-1 $148 $58 #
plane-surface $-1 -58.595538193914614 26.449350835885916 9.0544681815427595 -0.50000000669873634 0 0.8660253999169214 0.8660253999169214 0 0.50000000669873634 forward_v I I I I #
coedge $-1 $149 $150 $151 $152 reversed $59 $-1 #
face $-1 $-1 $153 $31 $-1 $154 forward single #
loop $-1 $155 $156 $61 #
cone-surface $-1 -52.126965562267671 26.449350835885916 6.5333770856877287 0.50000000669873634 0 -0.8660253999169214 0.8660253999169214 0 0.50000000669873634 1 I I -0.70710678118654746 0.70710678118654746 1 forward I I I I #
loop $-1 $-1 $157 $39 #
coedge $-1 $99 $99 $158 $159 reversed $62 $-1 #
face $-1 $160 $161 $24 $-1 $162 reversed single #
loop $-1 $-1 $163 $64 #
plane-surface $-1 0 0 -13.395870875104613 0 0 1 1 0 0 forward_v I I I I #
coedge $-1 $164 $165 $166 $167 forward $65 $-1 #
coedge $-1 $168 $67 $169 $170 reversed $41 $-1 #
coedge $-1 $67 $168 $171 $172 forward $41 $-1 #
coedge $-1 $173 $163 $67 $107 forward $101 $-1 #
edge $-1 $174 -58.595538193914606 $175 58.595538193914606 $67 $176 forward 7 unknown #
face $-1 $177 $178 $25 $-1 $179 reversed single #
loop $-1 $-1 $180 $68 #
plane-surface $-1 -35.123635594109352 -48.525174531841763 0 0 1 0 0 0 1 forward_v I I I I #
coedge $-1 $181 $182 $113 $183 forward $69 $-1 #
coedge $-1 $184 $71 $185 $186 reversed $44 $-1 #
coedge $-1 $71 $184 $111 $183 reversed $44 $-1 #
coedge $-1 $187 $188 $71 $115 reversed $178 $-1 #
edge $-1 $189 -13.395870875104613 $190 13.395870875104613 $114 $191 forward 7 unknown #
face $-1 $192 $193 $26 $-1 $194 forward single #
loop $-1 $-1 $195 $72 #
plane-surface $-1 24.137667737170133 -7.3768945002282269 171.18472854582973 0 1 0 0.54463904215088732 0 0.83867056331134215 forward_v I I I I #
coedge $-1 $196 $197 $198 $199 reversed $73 $-1 #
coedge $-1 $121 $75 $200 $201 reversed $47 $-1 #
coedge $-1 $75 $120 $196 $202 reversed $47 $-1 #
coedge $-1 $198 $203 $75 $123 forward $193 $-1 #
edge $-1 $204 -46.52670432532954 $205 -39.870354852708935 $122 $206 forward 7 unknown #
loop $-1 $-1 $129 $76 #
plane-surface $-1 -39.689167855328634 -1.2390015122562232 72.900022496586473 0.54463904215088732 0 0.83867056331134215 0.83867056331134215 0 -0.54463904215088732 forward_v I I I I #
loop $-1 $-1 $207 $49 #
coedge $-1 $127 $127 $128 $208 reversed $77 $-1 #
coedge $-1 $128 $128 $127 $208 forward $79 $-1 #
coedge $-1 $129 $129 $80 $130 forward $124 $-1 #
edge $-1 $209 0 $209 6.2831853071796004 $129 $210 forward 7 unknown #
loop $-1 $-1 $136 $81 #
plane-surface $-1 -39.689167855328634 -1.2390015122562232 72.900022496586473 0.54463904215088732 0 0.83867056331134215 0.83867056331134215 0 -0.54463904215088732 forward_v I I I I #
loop $-1 $-1 $211 $52 #
coedge $-1 $134 $134 $135 $212 reversed $82 $-1 #
coedge $-1 $135 $135 $134 $212 forward $84 $-1 #
coedge $-1 $136 $136 $85 $137 forward $131 $-1 #
edge $-1 $213 0 $213 6.2831853071796004 $136 $214 forward 7 unknown #
loop $-1 $-1 $143 $86 #
plane-surface $-1 -39.689167855328634 -1.2390015122562232 72.900022496586473 0.54463904215088732 0 0.83867056331134215 0.83867056331134215 0 -0.54463904215088732 forward_v I I I I #
loop $-1 $-1 $215 $55 #
coedge $-1 $141 $141 $142 $216 reversed $87 $-1 #
coedge $-1 $142 $142 $141 $216 forward $89 $-1 #
coedge $-1 $143 $143 $90 $144 forward $138 $-1 #
edge $-1 $217 0 $217 6.2831853071796004 $143 $218 forward 7 unknown #
face $-1 $219 $220 $30 $-1 $221 reversed single #
loop $-1 $-1 $222 $91 #
plane-surface $-1 0 32.260002716703376 0 0 -1 0 0 0 -1 forward_v I I I I #
coedge $-1 $223 $224 $225 $226 reversed $92 $-1 #
coedge $-1 $150 $94 $227 $228 reversed $59 $-1 #
coedge $-1 $94 $149 $223 $229 reversed $59 $-1 #
coedge $-1 $225 $230 $94 $152 forward $231 $-1 #
edge $-1 $232 3.925160640960712e-007 $233 7.5195302995579709 $151 $234 forward 7 unknown #
loop $-1 $-1 $158 $95 #
plane-surface $-1 -58.595538193914614 26.449350835885916 9.0544681815427595 -0.50000000669873634 0 0.8660253999169214 0.8660253999169214 0 0.50000000669873634 forward_v I I I I #
loop $-1 $-1 $235 $61 #
coedge $-1 $156 $156 $157 $236 reversed $96 $-1 #
coedge $-1 $157 $157 $156 $236 forward $98 $-1 #
coedge $-1 $158 $158 $99 $159 forward $153 $-1 #
edge $-1 $237 0 $237 6.2831853071796004 $158 $238 forward 7 unknown #
face $-1 $239 $240 $24 $-1 $241 reversed single #
loop $-1 $-1 $242 $100 #
plane-surface $-1 -58.595538193914606 0 0 1 0 0 0 0 -1 forward_v I I I I #
coedge $-1 $106 $243 $244 $245 forward $101 $-1 #
coedge $-1 $246 $103 $247 $248 forward $65 $-1 #
coedge $-1 $103 $246 $168 $249 forward $65 $-1 #
coedge $-1 $169 $250 $103 $167 reversed $251 $-1 #
edge $-1 $252 -32.260002716703376 $253 32.260002716703376 $166 $254 forward 7 unknown #
coedge $-1 $105 $104 $165 $249 reversed $41 $-1 #
coedge $-1 $244 $166 $104 $170 forward $251 $-1 #
edge $-1 $252 -13.395870875104613 $174 13.395870875104613 $169 $255 forward 7 unknown #
coedge $-1 $256 $257 $105 $172 reversed $161 $-1 #
edge $-1 $258 -13.395870875104613 $175 13.395870875104613 $171 $259 forward 7 unknown #
coedge $-1 $243 $106 $257 $260 forward $101 $-1 #
vertex $-1 $170 $261 #
vertex $-1 $260 $262 #
straight-curve $-1 0 -32.260002716703376 -13.395870875104613 -1 0 0 I I #
face $-1 $263 $264 $25 $-1 $265 reversed single #
loop $-1 $-1 $114 $108 #
plane-surface $-1 -38.443474744513324 -40.39258862427257 0 1 0 0 0 0 -1 forward_v I I I I #
coedge $-1 $266 $267 $268 $269 forward $109 $-1 #
coedge $-1 $270 $111 $271 $272 forward $69 $-1 #
coedge $-1 $111 $270 $187 $273 forward $69 $-1 #
edge $-1 $189 -38.443474744513324 $274 -31.80379644370538 $111 $275 forward 7 unknown #
coedge $-1 $113 $112 $276 $277 forward $44 $-1 #
coedge $-1 $278 $279 $112 $186 forward $280 $-1 #
edge $-1 $281 31.80379644370538 $190 38.443474744513324 $185 $282 forward 7 unknown #
coedge $-1 $268 $114 $182 $273 reversed $178 $-1 #
coedge $-1 $114 $268 $278 $283 reversed $178 $-1 #
vertex $-1 $183 $284 #
vertex $-1 $283 $285 #
straight-curve $-1 -38.443474744513324 -32.260002716703376 0 0 0 1 I I #
face $-1 $-1 $286 $26 $-1 $287 reversed single #
loop $-1 $-1 $122 $116 #
plane-surface $-1 0 0 13.395870875104613 0 0 1 1 0 0 forward_v I I I I #
coedge $-1 $288 $289 $290 $291 reversed $117 $-1 #
coedge $-1 $292 $119 $121 $202 forward $73 $-1 #
coedge $-1 $119 $292 $288 $293 forward $73 $-1 #
coedge $-1 $290 $122 $119 $199 forward $193 $-1 #
edge $-1 $205 -5.518392231843892 $294 6.7573937441001153 $198 $295 forward 7 unknown #
coedge $-1 $296 $297 $120 $201 forward $286 $-1 #
edge $-1 $298 -76.519177368827144 $204 -72.196493397810258 $200 $299 forward 7 unknown #
edge $-1 $205 109.25428956853369 $298 117.19107638782918 $121 $300 forward 7 unknown #
coedge $-1 $122 $290 $296 $301 forward $193 $-1 #
vertex $-1 $123 $302 #
vertex $-1 $123 $303 #
straight-curve $-1 12.068833868585067 4.8988914757157804 13.395870875104606 -1 0 0 I I #
coedge $-1 $207 $207 $-1 $304 reversed $126 $-1 #
edge $-1 $305 0 $305 6.2831853071796004 $127 $306 forward 7 unknown #
vertex $-1 $130 $307 #
ellipse-curve $-1 55.26736345760429 -4.9217373050394286 11.234528889596163 0.54463904215088732 0 0.83867056331134215 0.83867056331134215 0 -0.54463904215088732 1 I I #
coedge $-1 $211 $211 $-1 $308 reversed $133 $-1 #
edge $-1 $309 0 $309 6.2831853071796004 $134 $310 forward 7 unknown #
vertex $-1 $137 $311 #
ellipse-curve $-1 55.26736345760429 -1.2390015122562268 11.234528889596163 0.54463904215088732 0 0.83867056331134215 0.83867056331134215 0 -0.54463904215088732 1 I I #
coedge $-1 $215 $215 $-1 $312 reversed $140 $-1 #
edge $-1 $313 0 $313 6.2831853071796004 $141 $314 forward 7 unknown #
vertex $-1 $144 $315 #
ellipse-curve $-1 55.26736345760429 2.4437342805269751 11.234528889596163 0.54463904215088732 0 0.83867056331134215 0.83867056331134215 0 -0.54463904215088732 1 I I #
face $-1 $-1 $231 $30 $-1 $316 forward single #
loop $-1 $-1 $317 $145 #
plane-surface $-1 -58.595538193914606 0 0 1 0 0 0 0 -1 forward_v I I I I #
coedge $-1 $318 $319 $224 $320 forward $146 $-1 #
coedge $-1 $321 $148 $150 $229 forward $92 $-1 #
coedge $-1 $148 $321 $222 $320 reversed $92 $-1 #
coedge $-1 $322 $151 $148 $226 forward $231 $-1 #
edge $-1 $233 7.4140235371254981 $323 19.035327298760418 $225 $324 forward 7 unknown #
coedge $-1 $325 $317 $149 $228 forward $220 $-1 #
edge $-1 $326 -46.217990306960758 $232 -41.876587613398904 $227 $327 forward 7 unknown #
edge $-1 $233 -8.682805270796063 $326 -7.929837432145984e-015 $150 $328 forward 7 unknown #
coedge $-1 $151 $322 $325 $329 forward $231 $-1 #
loop $-1 $-1 $225 $219 #
vertex $-1 $228 $330 #
vertex $-1 $152 $331 #
straight-curve $-1 -58.595538586430671 20.638698955068456 13.395870875104613 1 0 0 I I #
coedge $-1 $235 $235 $-1 $332 reversed $155 $-1 #
edge $-1 $333 0 $333 6.2831853071796004 $156 $334 forward 7 unknown #
vertex $-1 $159 $335 #
ellipse-curve $-1 -54.835773240393635 26.449350835885916 11.225169528323699 -0.50000000669873634 0 0.8660253999169214 1.7320507998338428 0 1.0000000133974727 1 I I #
face $-1 $-1 $251 $24 $-1 $336 reversed single #
loop $-1 $-1 $337 $160 #
plane-surface $-1 0 32.260002716703376 0 0 -1 0 0 0 -1 forward_v I I I I #
coedge $-1 $257 $256 $338 $339 forward $161 $-1 #
coedge $-1 $163 $173 $340 $341 forward $101 $-1 #
coedge $-1 $250 $169 $163 $245 reversed $251 $-1 #
edge $-1 $342 -32.260002716703376 $174 32.260002716703376 $244 $343 forward 7 unknown #
coedge $-1 $165 $164 $256 $344 forward $65 $-1 #
coedge $-1 $337 $338 $164 $248 reversed $240 $-1 #
edge $-1 $253 -58.595538193914606 $345 58.595538193914606 $247 $346 forward 7 unknown #
edge $-1 $258 -58.595538193914606 $252 58.595538193914606 $168 $347 forward 7 unknown #
coedge $-1 $166 $244 $337 $348 reversed $251 $-1 #
loop $-1 $-1 $169 $239 #
vertex $-1 $167 $349 #
vertex $-1 $167 $350 #
straight-curve $-1 58.595538193914606 0 13.395870875104613 0 1 0 I I #
straight-curve $-1 58.595538193914606 -32.260002716703376 0 0 0 -1 I I #
coedge $-1 $242 $171 $246 $344 reversed $161 $-1 #
coedge $-1 $171 $242 $173 $260 reversed $161 $-1 #
vertex $-1 $344 $351 #
straight-curve $-1 -58.595538193914606 -32.260002716703376 0 0 0 -1 I I #
edge $-1 $175 -32.260002716703376 $352 32.260002716703376 $257 $353 forward 7 unknown #
point $-1 58.595538193914606 -32.260002716703376 -13.395870875104613 #
point $-1 -58.595538193914606 -32.260002716703376 -13.395870875104613 #
face $-1 $-1 $280 $25 $-1 $354 forward single #
loop $-1 $-1 $355 $177 #
plane-surface $-1 -31.80379644370538 -40.39258862427257 0 -1 0 0 0 0 1 forward_v I I I I #
coedge $-1 $356 $180 $270 $357 reversed $109 $-1 #
coedge $-1 $180 $356 $358 $359 reversed $109 $-1 #
coedge $-1 $188 $187 $180 $269 reversed $178 $-1 #
edge $-1 $360 -13.395870875104613 $361 13.395870875104613 $268 $362 forward 7 unknown #
coedge $-1 $182 $181 $266 $357 forward $69 $-1 #
coedge $-1 $276 $355 $181 $272 reversed $264 $-1 #
edge $-1 $274 -8.1325859075691938 $363 8.1325859075691938 $271 $364 forward 7 unknown #
edge $-1 $361 -8.1325859075691938 $189 8.1325859075691938 $187 $365 forward 7 unknown #
vertex $-1 $272 $366 #
straight-curve $-1 0 -32.260002716703376 -13.395870875104613 1 0 0 I I #
coedge $-1 $367 $271 $184 $277 reversed $264 $-1 #
edge $-1 $281 -13.395870875104613 $274 13.395870875104613 $276 $368 forward 7 unknown #
coedge $-1 $358 $185 $188 $283 forward $280 $-1 #
coedge $-1 $185 $358 $367 $369 forward $280 $-1 #
loop $-1 $-1 $185 $263 #
vertex $-1 $186 $370 #
straight-curve $-1 0 -32.260002716703376 13.395870875104613 -1 0 0 I I #
edge $-1 $190 -8.1325859075691938 $360 8.1325859075691938 $188 $371 forward 7 unknown #
point $-1 -38.443474744513324 -32.260002716703376 -13.395870875104613 #
point $-1 -38.443474744513324 -32.260002716703376 13.395870875104613 #
loop $-1 $-1 $200 $192 #
plane-surface $-1 58.595538193914606 0 0 -1 0 0 0 0 1 forward_v I I I I #
coedge $-1 $289 $195 $197 $293 reversed $117 $-1 #
coedge $-1 $195 $288 $372 $373 reversed $117 $-1 #
coedge $-1 $203 $198 $195 $291 forward $193 $-1 #
edge $-1 $294 39.870354852708935 $374 46.52670432532954 $290 $375 forward 7 unknown #
coedge $-1 $197 $196 $297 $376 reversed $73 $-1 #
edge $-1 $377 -117.19107638782918 $294 -109.25428956853369 $288 $378 forward 7 unknown #
vertex $-1 $199 $379 #
straight-curve $-1 51.939188721294002 -0.61950075612811162 13.395870875104613 0 -1 0 I I #
coedge $-1 $372 $200 $203 $301 reversed $286 $-1 #
coedge $-1 $200 $372 $292 $376 forward $286 $-1 #
vertex $-1 $201 $380 #
straight-curve $-1 58.595538193914606 4.8988914757157804 85.592364272914864 0 0 1 I I #
straight-curve $-1 -39.689167855328634 4.8988914757157804 72.900022496586473 0.83867056331134215 0 -0.54463904215088732 I I #
edge $-1 $374 -7.3768945002282269 $204 4.8988914757157804 $296 $381 forward 7 unknown #
point $-1 58.595538193914606 4.8988914757157804 13.395870875104613 #
point $-1 51.939188721294002 4.8988914757157804 13.395870875104613 #
edge $-1 $382 1 $382 0 $207 $-1 forward 7 unknown #
vertex $-1 $208 $383 #
ellipse-curve $-1 54.45829183018229 -4.9217373050394286 9.98866786051987 0.54463904215088732 0 0.83867056331134215 0.83867056331134215 0 -0.54463904215088732 1 I I #
point $-1 56.106034020915629 -4.9217373050394286 10.689889847445276 #
edge $-1 $384 1 $384 0 $211 $-1 forward 7 unknown #
vertex $-1 $212 $385 #
ellipse-curve $-1 54.45829183018229 -1.2390015122562268 9.98866786051987 0.54463904215088732 0 0.83867056331134215 0.83867056331134215 0 -0.54463904215088732 1 I I #
point $-1 56.106034020915629 -1.2390015122562268 10.689889847445276 #
edge $-1 $386 1 $386 0 $215 $-1 forward 7 unknown #
vertex $-1 $216 $387 #
ellipse-curve $-1 54.45829183018229 2.4437342805269751 9.98866786051987 0.54463904215088732 0 0.83867056331134215 0.83867056331134215 0 -0.54463904215088732 1 I I #
point $-1 56.106034020915629 2.4437342805269751 10.689889847445276 #
plane-surface $-1 0 0 13.395870875104613 0 0 1 1 0 0 forward_v I I I I #
coedge $-1 $227 $388 $321 $389 forward $220 $-1 #
coedge $-1 $319 $222 $388 $390 reversed $146 $-1 #
coedge $-1 $222 $318 $322 $391 reversed $146 $-1 #
edge $-1 $323 14.426189852357572 $392 23.108995123153626 $222 $393 forward 7 unknown #
coedge $-1 $224 $223 $317 $389 reversed $92 $-1 #
coedge $-1 $230 $225 $319 $391 forward $231 $-1 #
vertex $-1 $391 $394 #
straight-curve $-1 -51.076008286872693 13.224675417942958 13.395870875104613 0 1 0 I I #
coedge $-1 $388 $227 $230 $329 reversed $220 $-1 #
vertex $-1 $228 $395 #
straight-curve $-1 -58.595538193914606 20.638698955068456 55.272458488503517 0 0 1 I I #
straight-curve $-1 -58.595538193914614 20.638698955068456 9.0544681815427595 -0.8660253999169214 0 -0.50000000669873634 I I #
edge $-1 $396 -32.260002716703376 $232 -20.638698955068456 $325 $397 forward 7 unknown #
point $-1 -58.595538193914606 20.638698955068456 13.395870875104613 #
point $-1 -51.0760082868727 20.638698955068456 13.395870875104613 #
edge $-1 $398 1 $398 0 $235 $-1 forward 7 unknown #
vertex $-1 $236 $399 #
ellipse-curve $-1 -52.626965568966405 26.449350835885916 7.3994024856046501 -0.50000000669873634 0 0.8660253999169214 1.7320507998338428 0 1.0000000133974727 1 I I #
point $-1 -53.103722440559778 26.449350835885916 12.225169541721145 #
plane-surface $-1 58.595538193914606 0 0 -1 0 0 0 0 1 forward_v I I I I #
coedge $-1 $340 $247 $250 $348 forward $240 $-1 #
coedge $-1 $247 $340 $242 $339 reversed $240 $-1 #
edge $-1 $345 -13.395870875104613 $352 13.395870875104613 $338 $400 forward 7 unknown #
coedge $-1 $338 $337 $243 $341 reversed $240 $-1 #
edge $-1 $352 -58.595538193914606 $342 58.595538193914606 $340 $401 forward 7 unknown #
vertex $-1 $245 $402 #
straight-curve $-1 58.595538193914606 0 -13.395870875104613 0 -1 0 I I #
edge $-1 $345 -32.260002716703376 $258 32.260002716703376 $256 $403 forward 7 unknown #
vertex $-1 $248 $404 #
straight-curve $-1 0 32.260002716703376 13.395870875104613 -1 0 0 I I #
straight-curve $-1 0 -32.260002716703376 13.395870875104613 1 0 0 I I #
edge $-1 $253 -13.395870875104613 $342 13.395870875104613 $250 $405 forward 7 unknown #
point $-1 58.595538193914606 -32.260002716703376 13.395870875104613 #
point $-1 58.595538193914606 32.260002716703376 13.395870875104613 #
point $-1 -58.595538193914606 -32.260002716703376 13.395870875104613 #
vertex $-1 $341 $406 #
straight-curve $-1 -58.595538193914606 0 -13.395870875104613 0 1 0 I I #
plane-surface $-1 0 0 13.395870875104613 0 0 1 1 0 0 forward_v I I I I #
coedge $-1 $271 $367 $356 $407 forward $264 $-1 #
coedge $-1 $267 $266 $355 $407 reversed $109 $-1 #
edge $-1 $363 -3.3198391504039719 $361 3.3198391504039719 $266 $408 forward 7 unknown #
coedge $-1 $279 $278 $267 $359 forward $280 $-1 #
edge $-1 $360 -3.3198391504039719 $409 3.3198391504039719 $267 $410 forward 7 unknown #
vertex $-1 $283 $411 #
vertex $-1 $273 $412 #
straight-curve $-1 -38.443474744513324 -48.525174531841763 0 0 0 -1 I I #
vertex $-1 $407 $413 #
straight-curve $-1 -31.80379644370538 -40.39258862427257 -13.395870875104613 0 -1 0 I I #
straight-curve $-1 -38.443474744513324 -40.39258862427257 -13.395870875104613 0 1 0 I I #
point $-1 -31.80379644370538 -32.260002716703376 -13.395870875104613 #
coedge $-1 $355 $276 $279 $369 reversed $264 $-1 #
straight-curve $-1 -31.80379644370538 -32.260002716703376 0 0 0 -1 I I #
edge $-1 $409 -8.1325859075691938 $281 8.1325859075691938 $367 $414 forward 7 unknown #
point $-1 -31.80379644370538 -32.260002716703376 13.395870875104613 #
straight-curve $-1 -38.443474744513324 -40.39258862427257 13.395870875104613 0 -1 0 I I #
coedge $-1 $297 $296 $289 $373 forward $286 $-1 #
edge $-1 $374 72.196493397810258 $377 76.519177368827144 $372 $415 forward 7 unknown #
vertex $-1 $301 $416 #
straight-curve $-1 12.068833868585067 -7.3768945002282269 13.395870875104606 1 0 0 I I #
edge $-1 $377 -6.7573937441001153 $298 5.518392231843892 $297 $417 forward 7 unknown #
vertex $-1 $376 $418 #
straight-curve $-1 -39.689167855328634 -7.3768945002282269 72.900022496586473 -0.83867056331134215 0 0.54463904215088732 I I #
point $-1 51.939188721294002 -7.3768945002282269 13.395870875104613 #
point $-1 58.595538193914606 4.8988914757157804 9.0731869040877129 #
straight-curve $-1 58.595538193914606 0 13.395870875104613 0 1 0 I I #
vertex $-1 $304 $419 #
point $-1 55.296962393493629 -4.9217373050394286 9.4440288183689827 #
vertex $-1 $308 $420 #
point $-1 55.296962393493629 -1.2390015122562268 9.4440288183689827 #
vertex $-1 $312 $421 #
point $-1 55.296962393493629 2.4437342805269751 9.4440288183689827 #
coedge $-1 $317 $325 $318 $390 forward $220 $-1 #
edge $-1 $392 -19.035327298760418 $326 -7.4140235371254981 $317 $422 forward 7 unknown #
edge $-1 $396 -13.395870875104613 $392 -9.054468181542763 $318 $423 forward 7 unknown #
edge $-1 $323 51.0760082868727 $396 58.595538193914606 $319 $424 forward 7 unknown #
vertex $-1 $389 $425 #
straight-curve $-1 -38.582561450707303 32.260002716703376 20.608965897920644 -0.8660253999169214 0 -0.50000000669873634 I I #
point $-1 -51.0760082868727 32.260002716703376 13.395870875104613 #
point $-1 -58.595538193914606 20.638698955068456 9.054468181542763 #
vertex $-1 $391 $426 #
straight-curve $-1 -58.595538193914606 0 13.395870875104613 0 -1 0 I I #
vertex $-1 $332 $427 #
point $-1 -50.894914769132562 26.449350835885916 8.3994024990021234 #
straight-curve $-1 -58.595538193914606 32.260002716703376 0 0 0 -1 I I #
straight-curve $-1 0 32.260002716703376 -13.395870875104613 1 0 0 I I #
point $-1 58.595538193914606 32.260002716703376 -13.395870875104613 #
straight-curve $-1 -58.595538193914606 0 13.395870875104613 0 -1 0 I I #
point $-1 -58.595538193914606 32.260002716703376 13.395870875104613 #
straight-curve $-1 58.595538193914606 32.260002716703376 0 0 0 -1 I I #
point $-1 -58.595538193914606 32.260002716703376 -13.395870875104613 #
edge $-1 $409 -13.395870875104613 $363 13.395870875104613 $355 $428 forward 7 unknown #
straight-curve $-1 -35.123635594109352 -48.525174531841763 -13.395870875104613 -1 0 0 I I #
vertex $-1 $369 $429 #
straight-curve $-1 -35.123635594109352 -48.525174531841763 13.395870875104613 1 0 0 I I #
point $-1 -38.443474744513324 -48.525174531841763 13.395870875104613 #
point $-1 -38.443474744513324 -48.525174531841763 -13.395870875104613 #
point $-1 -31.80379644370538 -48.525174531841763 -13.395870875104613 #
straight-curve $-1 -31.80379644370538 -40.39258862427257 13.395870875104613 0 1 0 I I #
straight-curve $-1 58.595538193914606 -7.3768945002282269 85.592364272914864 0 0 -1 I I #
point $-1 58.595538193914606 -7.3768945002282269 13.395870875104613 #
straight-curve $-1 58.595538193914606 -0.61950075612811162 9.0731869040877129 0 1 0 I I #
point $-1 58.595538193914606 -7.3768945002282269 9.0731869040877129 #
point $-1 53.913652788031399 -4.9217373050394286 9.1499972972085271 #
point $-1 53.913652788031399 -1.2390015122562268 9.1499972972085271 #
point $-1 53.913652788031399 2.4437342805269751 9.1499972972085271 #
straight-curve $-1 -58.595538193914606 13.224675417942958 9.054468181542763 0 -1 0 I I #
straight-curve $-1 -58.595538193914606 32.260002716703376 0 0 0 -1 I I #
straight-curve $-1 0 32.260002716703376 13.395870875104613 -1 0 0 I I #
point $-1 -58.595538193914606 32.260002716703376 9.054468181542763 #
point $-1 -58.595538193914606 32.260002716703376 13.395870875104613 #
point $-1 -51.626965555568937 26.449350835885916 5.6673516857708073 #
straight-curve $-1 -31.80379644370538 -48.525174531841763 0 0 0 -1 I I #
point $-1 -31.80379644370538 -48.525174531841763 13.395870875104613 #
End-of-ACIS-data 