500 0 12 0           
7 Unknown 11 ACIS 5.0 NT 24 Fri Mar 26 14:25:52 1999 
-1 9.9999999999999995e-007 1e-010 
body $-1 $12 $-1 $13 #
body $-1 $14 $-1 $15 #
body $-1 $16 $-1 $17 #
body $-1 $18 $-1 $19 #
body $-1 $20 $-1 $21 #
body $-1 $22 $-1 $23 #
body $-1 $24 $-1 $25 #
body $-1 $26 $-1 $27 #
body $-1 $28 $-1 $29 #
body $-1 $30 $-1 $31 #
body $-1 $32 $-1 $33 #
body $-1 $34 $-1 $35 #
lump $-1 $-1 $36 $0 #
transform $-1 1 0 0 0 1 0 0 0 1 62.19183935056612 25.823649057039017 9.0237367382762148 1 rotate no_reflect no_shear #
lump $-1 $-1 $37 $1 #
transform $-1 1 0 0 0 1 0 0 0 1 62.19183935056612 25.823649057039017 9.0237367382762148 1 rotate no_reflect no_shear #
lump $-1 $-1 $38 $2 #
transform $-1 1 0 0 0 1 0 0 0 1 62.19183935056612 25.823649057039017 9.0237367382762148 1 rotate no_reflect no_shear #
lump $-1 $-1 $39 $3 #
transform $-1 1 0 0 0 1 0 0 0 1 62.19183935056612 25.823649057039017 9.0237367382762148 1 rotate no_reflect no_shear #
lump $-1 $-1 $40 $4 #
transform $-1 1 0 0 0 1 0 0 0 1 62.19183935056612 25.823649057039017 9.0237367382762148 1 rotate no_reflect no_shear #
lump $-1 $-1 $41 $5 #
transform $-1 1 0 0 0 1 0 0 0 1 62.19183935056612 25.823649057039017 9.0237367382762148 1 rotate no_reflect no_shear #
lump $-1 $-1 $42 $6 #
transform $-1 1 0 0 0 1 0 0 0 1 62.19183935056612 25.823649057039017 9.0237367382762148 1 rotate no_reflect no_shear #
lump $-1 $-1 $43 $7 #
transform $-1 1 0 0 0 1 0 0 0 1 62.19183935056612 25.823649057039017 9.0237367382762148 1 rotate no_reflect no_shear #
lump $-1 $-1 $44 $8 #
transform $-1 1 0 0 0 1 0 0 0 1 62.19183935056612 25.823649057039017 9.0237367382762148 1 rotate no_reflect no_shear #
lump $-1 $-1 $45 $9 #
transform $-1 1 0 0 0 1 0 0 0 1 62.19183935056612 25.823649057039017 9.0237367382762148 1 rotate no_reflect no_shear #
lump $-1 $-1 $46 $10 #
transform $-1 1 0 0 0 1 0 0 0 1 62.19183935056612 25.823649057039017 9.0237367382762148 1 rotate no_reflect no_shear #
lump $-1 $-1 $47 $11 #
transform $-1 1 0 0 0 1 0 0 0 1 62.19183935056612 25.823649057039017 9.0237367382762148 1 rotate no_reflect no_shear #
shell $-1 $-1 $-1 $48 $-1 $12 #
shell $-1 $-1 $-1 $49 $-1 $14 #
shell $-1 $-1 $-1 $50 $-1 $16 #
shell $-1 $-1 $-1 $51 $-1 $18 #
shell $-1 $-1 $-1 $52 $-1 $20 #
shell $-1 $-1 $-1 $53 $-1 $22 #
shell $-1 $-1 $-1 $54 $-1 $24 #
shell $-1 $-1 $-1 $55 $-1 $26 #
shell $-1 $-1 $-1 $56 $-1 $28 #
shell $-1 $-1 $-1 $57 $-1 $30 #
shell $-1 $-1 $-1 $58 $-1 $32 #
shell $-1 $-1 $-1 $59 $-1 $34 #
face $-1 $60 $61 $36 $-1 $62 reversed single #
face $-1 $63 $64 $37 $-1 $65 forward single #
face $-1 $66 $67 $38 $-1 $68 reversed single #
face $-1 $69 $70 $39 $-1 $71 forward single #
face $-1 $72 $73 $40 $-1 $74 reversed single #
face $-1 $75 $76 $41 $-1 $77 forward single #
face $-1 $78 $79 $42 $-1 $80 reversed single #
face $-1 $81 $82 $43 $-1 $83 forward single #
face $-1 $84 $85 $44 $-1 $86 forward single #
face $-1 $87 $88 $45 $-1 $89 reversed single #
face $-1 $90 $91 $46 $-1 $92 forward single #
face $-1 $93 $94 $47 $-1 $95 forward single #
face $-1 $96 $97 $36 $-1 $98 forward single #
loop $-1 $-1 $99 $48 #
plane-surface $-1 -62.19183935056612 0 0 1 0 0 0 0 -1 forward_v I I I I #
face $-1 $100 $101 $37 $-1 $102 reversed single #
loop $-1 $-1 $103 $49 #
plane-surface $-1 -62.19183935056612 0 0 1 0 0 0 0 -1 forward_v I I I I #
face $-1 $104 $105 $38 $-1 $106 reversed single #
loop $-1 $-1 $107 $50 #
plane-surface $-1 -23.130434870053033 89.985226342066952 122.61365952177159 1 0 0 0 -0.77714596973225614 -0.62932038083071107 forward_v I I I I #
face $-1 $108 $109 $39 $-1 $110 forward single #
loop $-1 $111 $112 $51 #
cone-surface $-1 -8.9917051087535356 22.770942327276561 5.7212437483154304 0 -0.77714596973225614 -0.62932038083071107 1 0 0 1 I I 0 1 1 forward I I I I #
face $-1 $113 $114 $40 $-1 $115 reversed single #
loop $-1 $-1 $116 $52 #
plane-surface $-1 -8.9917051087535285 -6.6790482609898447 44.336475472450246 0 0.77714596973225614 0.62932038083071107 1 0 0 forward_v I I I I #
face $-1 $117 $118 $41 $-1 $119 forward single #
loop $-1 $120 $121 $53 #
cone-surface $-1 19.285754413845474 22.770942327276561 5.7212437483154304 0 -0.77714596973225614 -0.62932038083071107 1 0 0 1 I I 0 1 1 forward I I I I #
face $-1 $122 $123 $42 $-1 $124 reversed single #
loop $-1 $-1 $125 $54 #
plane-surface $-1 -23.899361173864239 -100.67961648196264 102.61298614854687 -1 0 0 0 -0.6018150307709319 0.79863550430605224 forward_v I I I I #
face $-1 $126 $127 $43 $-1 $128 forward single #
loop $-1 $129 $130 $55 #
cone-surface $-1 -37.078519203371862 -21.110617812077219 4.9565743438724823 0 0.6018150307709319 -0.79863550430605224 1 0 0 1 I I 0 1 1 forward I I I I #
face $-1 $131 $132 $44 $-1 $133 forward single #
loop $-1 $134 $135 $56 #
cone-surface $-1 -29.171024385667288 -21.110617812077219 4.9565743438724823 0 0.6018150307709319 -0.79863550430605224 1 0 0 1 I I 0 1 1 forward I I I I #
face $-1 $136 $137 $45 $-1 $138 reversed single #
loop $-1 $-1 $139 $57 #
plane-surface $-1 33.145453524155897 -100.67961648196264 102.61298614854687 -1 0 0 0 -0.6018150307709319 0.79863550430605224 forward_v I I I I #
face $-1 $140 $141 $46 $-1 $142 forward single #
loop $-1 $143 $144 $58 #
cone-surface $-1 19.966295494648286 -21.110617812077219 4.9565743438724823 0 0.6018150307709319 -0.79863550430605224 1 0 0 1 I I 0 1 1 forward I I I I #
face $-1 $145 $146 $47 $-1 $147 forward single #
loop $-1 $148 $149 $59 #
cone-surface $-1 27.87379031235286 -21.110617812077219 4.9565743438724823 0 0.6018150307709319 -0.79863550430605224 1 0 0 1 I I 0 1 1 forward I I I I #
face $-1 $150 $151 $36 $-1 $152 reversed single #
loop $-1 $-1 $153 $60 #
plane-surface $-1 0 0 9.0237367382762148 0 0 1 1 0 0 forward_v I I I I #
coedge $-1 $154 $155 $156 $157 reversed $61 $-1 #
face $-1 $158 $159 $37 $-1 $160 reversed single #
loop $-1 $-1 $161 $63 #
plane-surface $-1 0 0 -9.0237367382762148 0 0 1 1 0 0 forward_v I I I I #
coedge $-1 $162 $163 $164 $165 forward $64 $-1 #
face $-1 $166 $167 $38 $-1 $168 reversed single #
loop $-1 $-1 $169 $66 #
plane-surface $-1 -8.9917051087535285 -6.6790482609898447 44.336475472450246 0 0.77714596973225614 0.62932038083071107 1 0 0 forward_v I I I I #
coedge $-1 $170 $171 $172 $173 reversed $67 $-1 #
face $-1 $-1 $174 $39 $-1 $175 forward single #
loop $-1 $176 $177 $69 #
cone-surface $-1 -8.9917051087535356 21.283165658423155 4.5164659893103316 0 -0.77714596973225614 -0.62932038083071107 0.5 0 0 1 I I -0.70710678118654746 0.70710678118654746 0.5 forward I I I I #
loop $-1 $-1 $178 $51 #
coedge $-1 $112 $112 $179 $180 reversed $70 $-1 #
face $-1 $181 $182 $40 $-1 $183 forward single #
loop $-1 $-1 $184 $72 #
plane-surface $-1 33.424484175144997 89.985226342066952 122.61365952177159 -1 0 0 0 0.77714596973225614 0.62932038083071107 forward_v I I I I #
coedge $-1 $185 $186 $187 $188 reversed $73 $-1 #
face $-1 $-1 $189 $41 $-1 $190 forward single #
loop $-1 $191 $192 $75 #
cone-surface $-1 19.285754413845474 21.283165658423155 4.5164659893103316 0 -0.77714596973225614 -0.62932038083071107 0.5 0 0 1 I I -0.70710678118654746 0.70710678118654746 0.5 forward I I I I #
loop $-1 $-1 $193 $53 #
coedge $-1 $121 $121 $194 $195 reversed $76 $-1 #
face $-1 $196 $197 $42 $-1 $198 reversed single #
loop $-1 $-1 $199 $78 #
plane-surface $-1 -33.124771794519575 -25.82364905703902 3.275764181626144 0 -0.6018150307709319 0.79863550430605224 1 0 0 forward_v I I I I #
coedge $-1 $200 $201 $202 $203 reversed $79 $-1 #
face $-1 $-1 $204 $43 $-1 $205 forward single #
loop $-1 $206 $207 $81 #
cone-surface $-1 -37.078519203371862 -19.910587584088354 3.3640804756407601 0 0.6018150307709319 -0.79863550430605224 0.5 0 0 1 I I -0.70710678118654746 0.70710678118654746 0.5 forward I I I I #
loop $-1 $-1 $208 $55 #
coedge $-1 $130 $130 $209 $210 reversed $82 $-1 #
face $-1 $-1 $211 $44 $-1 $212 forward single #
loop $-1 $213 $214 $84 #
cone-surface $-1 -29.171024385667288 -19.910587584088354 3.3640804756407601 0 0.6018150307709319 -0.79863550430605224 0.5 0 0 1 I I -0.70710678118654746 0.70710678118654746 0.5 forward I I I I #
loop $-1 $-1 $215 $56 #
coedge $-1 $135 $135 $216 $217 reversed $85 $-1 #
face $-1 $218 $219 $45 $-1 $220 reversed single #
loop $-1 $-1 $221 $87 #
plane-surface $-1 23.920042903500566 -25.82364905703902 3.275764181626144 0 -0.6018150307709319 0.79863550430605224 1 0 0 forward_v I I I I #
coedge $-1 $222 $223 $224 $225 reversed $88 $-1 #
face $-1 $-1 $226 $46 $-1 $227 forward single #
loop $-1 $228 $229 $90 #
cone-surface $-1 19.966295494648286 -19.910587584088354 3.3640804756407601 0 0.6018150307709319 -0.79863550430605224 0.5 0 0 1 I I -0.70710678118654746 0.70710678118654746 0.5 forward I I I I #
loop $-1 $-1 $230 $58 #
coedge $-1 $144 $144 $231 $232 reversed $91 $-1 #
face $-1 $-1 $233 $47 $-1 $234 forward single #
loop $-1 $235 $236 $93 #
cone-surface $-1 27.87379031235286 -19.910587584088354 3.3640804756407601 0 0.6018150307709319 -0.79863550430605224 0.5 0 0 1 I I -0.70710678118654746 0.70710678118654746 0.5 forward I I I I #
loop $-1 $-1 $237 $59 #
coedge $-1 $149 $149 $238 $239 reversed $94 $-1 #
face $-1 $240 $241 $36 $-1 $242 reversed single #
loop $-1 $-1 $243 $96 #
plane-surface $-1 0 0 -9.0237367382762148 0 0 1 1 0 0 forward_v I I I I #
coedge $-1 $244 $245 $246 $247 forward $97 $-1 #
coedge $-1 $248 $99 $249 $250 reversed $61 $-1 #
coedge $-1 $99 $248 $251 $252 forward $61 $-1 #
coedge $-1 $253 $254 $99 $157 forward $151 $-1 #
edge $-1 $255 -25.823649057039017 $256 25.823649057039017 $99 $257 forward 7 unknown #
face $-1 $258 $259 $37 $-1 $260 reversed single #
loop $-1 $-1 $261 $100 #
plane-surface $-1 -67.338864003112093 -12.118816183101341 0 0 1 0 0 0 1 forward_v I I I I #
coedge $-1 $262 $263 $163 $264 forward $101 $-1 #
coedge $-1 $265 $103 $266 $267 reversed $64 $-1 #
coedge $-1 $103 $265 $161 $264 reversed $64 $-1 #
coedge $-1 $268 $269 $103 $165 reversed $270 $-1 #
edge $-1 $271 -9.0237367382762148 $272 9.0237367382762148 $164 $273 forward 7 unknown #
face $-1 $274 $275 $38 $-1 $276 forward single #
loop $-1 $-1 $277 $104 #
plane-surface $-1 5.1470246525459764 89.985226342066952 122.61365952177159 -1 0 0 0 0.77714596973225614 0.62932038083071107 forward_v I I I I #
coedge $-1 $278 $279 $280 $281 reversed $105 $-1 #
coedge $-1 $171 $107 $282 $283 reversed $67 $-1 #
coedge $-1 $107 $170 $278 $284 reversed $67 $-1 #
coedge $-1 $280 $285 $107 $173 forward $275 $-1 #
edge $-1 $286 19.168964113994459 $287 23.07597020554482 $172 $288 forward 7 unknown #
loop $-1 $-1 $179 $108 #
plane-surface $-1 -8.9917051087535285 -6.6790482609898447 44.336475472450246 0 0.77714596973225614 0.62932038083071107 1 0 0 forward_v I I I I #
loop $-1 $-1 $289 $69 #
coedge $-1 $177 $177 $178 $290 reversed $109 $-1 #
coedge $-1 $178 $178 $177 $290 forward $111 $-1 #
coedge $-1 $179 $179 $112 $180 forward $174 $-1 #
edge $-1 $291 0 $291 6.2831853071796004 $179 $292 forward 7 unknown #
face $-1 $293 $294 $40 $-1 $295 forward single #
loop $-1 $-1 $296 $113 #
plane-surface $-1 0 0 9.0237367382762148 0 0 1 1 0 0 forward_v I I I I #
coedge $-1 $297 $298 $299 $300 reversed $114 $-1 #
coedge $-1 $301 $116 $302 $303 reversed $73 $-1 #
coedge $-1 $116 $301 $296 $304 reversed $73 $-1 #
coedge $-1 $305 $306 $116 $188 forward $294 $-1 #
edge $-1 $307 -51.647298114078048 $308 -45.439003880236356 $187 $309 forward 7 unknown #
loop $-1 $-1 $194 $117 #
plane-surface $-1 -8.9917051087535285 -6.6790482609898447 44.336475472450246 0 0.77714596973225614 0.62932038083071107 1 0 0 forward_v I I I I #
loop $-1 $-1 $310 $75 #
coedge $-1 $192 $192 $193 $311 reversed $118 $-1 #
coedge $-1 $193 $193 $192 $311 forward $120 $-1 #
coedge $-1 $194 $194 $121 $195 forward $189 $-1 #
edge $-1 $312 0 $312 6.2831853071796004 $194 $313 forward 7 unknown #
face $-1 $314 $315 $42 $-1 $316 forward single #
loop $-1 $-1 $317 $122 #
plane-surface $-1 -42.350182415174913 -100.67961648196264 102.61298614854687 1 0 0 0 0.6018150307709319 -0.79863550430605224 forward_v I I I I #
coedge $-1 $318 $319 $320 $321 reversed $123 $-1 #
coedge $-1 $201 $125 $322 $323 reversed $79 $-1 #
coedge $-1 $125 $200 $318 $324 reversed $79 $-1 #
coedge $-1 $320 $325 $125 $203 forward $315 $-1 #
edge $-1 $326 24.516159183942303 $327 32.143976248659094 $202 $328 forward 7 unknown #
loop $-1 $-1 $209 $126 #
plane-surface $-1 -33.124771794519575 -25.82364905703902 3.275764181626144 0 -0.6018150307709319 0.79863550430605224 1 0 0 forward_v I I I I #
loop $-1 $-1 $329 $81 #
coedge $-1 $207 $207 $208 $330 reversed $127 $-1 #
coedge $-1 $208 $208 $207 $330 forward $129 $-1 #
coedge $-1 $209 $209 $130 $210 forward $204 $-1 #
edge $-1 $331 -1.6035573689457257e-015 $331 6.2831853071795987 $209 $332 forward 7 unknown #
loop $-1 $-1 $216 $131 #
plane-surface $-1 -33.124771794519575 -25.82364905703902 3.275764181626144 0 -0.6018150307709319 0.79863550430605224 1 0 0 forward_v I I I I #
loop $-1 $-1 $333 $84 #
coedge $-1 $214 $214 $215 $334 reversed $132 $-1 #
coedge $-1 $215 $215 $214 $334 forward $134 $-1 #
coedge $-1 $216 $216 $135 $217 forward $211 $-1 #
edge $-1 $335 -1.6035573689457257e-015 $335 6.2831853071795987 $216 $336 forward 7 unknown #
face $-1 $337 $338 $45 $-1 $339 reversed single #
loop $-1 $-1 $340 $136 #
plane-surface $-1 14.69463228284523 -100.67961648196264 102.61298614854687 1 0 0 0 0.6018150307709319 -0.79863550430605224 forward_v I I I I #
coedge $-1 $341 $342 $343 $344 reversed $137 $-1 #
coedge $-1 $223 $139 $345 $346 reversed $88 $-1 #
coedge $-1 $139 $222 $341 $347 reversed $88 $-1 #
coedge $-1 $343 $348 $139 $225 forward $349 $-1 #
edge $-1 $350 24.516159183942303 $351 32.143976248659094 $224 $352 forward 7 unknown #
loop $-1 $-1 $231 $140 #
plane-surface $-1 23.920042903500566 -25.82364905703902 3.275764181626144 0 -0.6018150307709319 0.79863550430605224 1 0 0 forward_v I I I I #
loop $-1 $-1 $353 $90 #
coedge $-1 $229 $229 $230 $354 reversed $141 $-1 #
coedge $-1 $230 $230 $229 $354 forward $143 $-1 #
coedge $-1 $231 $231 $144 $232 forward $226 $-1 #
edge $-1 $355 -1.6035573689457257e-015 $355 6.2831853071795987 $231 $356 forward 7 unknown #
loop $-1 $-1 $238 $145 #
plane-surface $-1 23.920042903500566 -25.82364905703902 3.275764181626144 0 -0.6018150307709319 0.79863550430605224 1 0 0 forward_v I I I I #
loop $-1 $-1 $357 $93 #
coedge $-1 $236 $236 $237 $358 reversed $146 $-1 #
coedge $-1 $237 $237 $236 $358 forward $148 $-1 #
coedge $-1 $238 $238 $149 $239 forward $233 $-1 #
edge $-1 $359 -1.6035573689457257e-015 $359 6.2831853071795987 $238 $360 forward 7 unknown #
face $-1 $361 $362 $36 $-1 $363 reversed single #
loop $-1 $-1 $249 $150 #
plane-surface $-1 0 -25.823649057039017 0 0 1 0 0 0 1 forward_v I I I I #
coedge $-1 $254 $253 $364 $365 forward $151 $-1 #
coedge $-1 $366 $153 $367 $368 forward $97 $-1 #
coedge $-1 $153 $366 $369 $370 forward $97 $-1 #
coedge $-1 $371 $372 $153 $247 reversed $373 $-1 #
edge $-1 $374 -25.823649057039017 $375 25.823649057039017 $246 $376 forward 7 unknown #
coedge $-1 $155 $154 $366 $377 reversed $61 $-1 #
coedge $-1 $378 $369 $154 $250 forward $241 $-1 #
edge $-1 $379 -9.0237367382762148 $255 9.0237367382762148 $154 $380 forward 7 unknown #
coedge $-1 $367 $381 $155 $252 reversed $362 $-1 #
edge $-1 $382 -9.0237367382762148 $256 9.0237367382762148 $251 $383 forward 7 unknown #
coedge $-1 $243 $156 $381 $384 forward $151 $-1 #
coedge $-1 $156 $243 $378 $385 forward $151 $-1 #
vertex $-1 $157 $386 #
vertex $-1 $384 $387 #
straight-curve $-1 -62.19183935056612 0 -9.0237367382762148 0 1 0 I I #
face $-1 $388 $270 $37 $-1 $389 reversed single #
loop $-1 $-1 $390 $158 #
plane-surface $-1 -72.485888655658059 -9.947495881793964 0 1 0 0 0 0 -1 forward_v I I I I #
coedge $-1 $391 $392 $393 $394 forward $159 $-1 #
coedge $-1 $395 $161 $391 $396 forward $101 $-1 #
coedge $-1 $161 $395 $268 $397 forward $101 $-1 #
edge $-1 $271 7.7761755804865871 $398 12.118816183101341 $161 $399 forward 7 unknown #
coedge $-1 $163 $162 $400 $401 forward $64 $-1 #
coedge $-1 $402 $403 $162 $267 forward $404 $-1 #
edge $-1 $405 -12.118816183101341 $272 -7.7761755804865871 $266 $406 forward 7 unknown #
coedge $-1 $407 $164 $263 $397 reversed $270 $-1 #
coedge $-1 $164 $407 $402 $408 reversed $270 $-1 #
loop $-1 $-1 $164 $258 #
vertex $-1 $264 $409 #
vertex $-1 $408 $410 #
straight-curve $-1 -62.19183935056612 -7.7761755804865871 0 0 0 1 I I #
face $-1 $-1 $411 $38 $-1 $412 reversed single #
loop $-1 $-1 $172 $166 #
plane-surface $-1 0 0 9.0237367382762148 0 0 1 1 0 0 forward_v I I I I #
coedge $-1 $413 $414 $415 $416 reversed $167 $-1 #
coedge $-1 $417 $169 $171 $284 forward $105 $-1 #
coedge $-1 $169 $417 $413 $418 forward $105 $-1 #
coedge $-1 $415 $172 $169 $281 forward $275 $-1 #
edge $-1 $287 -18.634582315676269 $419 9.6428772069227406 $280 $420 forward 7 unknown #
coedge $-1 $421 $422 $170 $283 forward $411 $-1 #
edge $-1 $423 -57.107843865351661 $286 -52.283093022609584 $282 $424 forward 7 unknown #
edge $-1 $287 45.439003880236356 $423 51.647298114078048 $171 $425 forward 7 unknown #
coedge $-1 $172 $415 $421 $426 forward $275 $-1 #
vertex $-1 $283 $427 #
vertex $-1 $173 $428 #
straight-curve $-1 -23.130434870053033 44.992613171033476 9.023736738276213 0 -1 0 I I #
coedge $-1 $289 $289 $-1 $429 reversed $176 $-1 #
edge $-1 $430 0 $430 6.2831853071796004 $177 $431 forward 7 unknown #
vertex $-1 $180 $432 #
ellipse-curve $-1 -8.9917051087535356 23.870146011263838 6.6113613169051737 0 0.77714596973225614 0.62932038083071107 1 0 0 1 I I #
face $-1 $-1 $433 $40 $-1 $434 reversed single #
loop $-1 $-1 $305 $181 #
plane-surface $-1 5.1470246525459764 89.985226342066952 122.61365952177159 -1 0 0 0 0.77714596973225614 0.62932038083071107 forward_v I I I I #
coedge $-1 $299 $435 $186 $304 forward $182 $-1 #
coedge $-1 $298 $184 $301 $436 reversed $114 $-1 #
coedge $-1 $184 $297 $437 $438 reversed $114 $-1 #
coedge $-1 $439 $296 $184 $300 forward $182 $-1 #
edge $-1 $440 -23.07597020554482 $441 -19.168964113994459 $299 $442 forward 7 unknown #
coedge $-1 $186 $185 $297 $436 forward $73 $-1 #
coedge $-1 $443 $437 $185 $303 forward $433 $-1 #
edge $-1 $444 -37.920336729521765 $307 -9.6428772069227406 $302 $445 forward 7 unknown #
edge $-1 $308 9.6428772069227406 $440 37.920336729521765 $296 $446 forward 7 unknown #
coedge $-1 $306 $187 $435 $447 reversed $294 $-1 #
coedge $-1 $187 $305 $443 $448 reversed $294 $-1 #
vertex $-1 $303 $449 #
vertex $-1 $304 $450 #
straight-curve $-1 5.1470246525459764 -6.6790482609898447 44.336475472450246 0 -0.62932038083071107 0.77714596973225614 I I #
coedge $-1 $310 $310 $-1 $451 reversed $191 $-1 #
edge $-1 $452 0 $452 6.2831853071796004 $192 $453 forward 7 unknown #
vertex $-1 $195 $454 #
ellipse-curve $-1 19.285754413845474 23.870146011263838 6.6113613169051737 0 0.77714596973225614 0.62932038083071107 1 0 0 1 I I #
face $-1 $-1 $455 $42 $-1 $456 reversed single #
loop $-1 $-1 $202 $196 #
plane-surface $-1 0 0 9.0237367382762148 0 0 1 1 0 0 forward_v I I I I #
coedge $-1 $457 $458 $459 $460 reversed $197 $-1 #
coedge $-1 $461 $199 $201 $324 forward $123 $-1 #
coedge $-1 $199 $461 $457 $462 forward $123 $-1 #
coedge $-1 $459 $202 $199 $321 forward $315 $-1 #
edge $-1 $327 7.336975276604452 $463 25.787796517915126 $320 $464 forward 7 unknown #
coedge $-1 $465 $466 $200 $323 forward $455 $-1 #
edge $-1 $467 -48.030728892647289 $326 -42.28275633599722 $322 $468 forward 7 unknown #
edge $-1 $327 -9.5510618092852422 $467 -4.4408806494695735e-015 $201 $469 forward 7 unknown #
coedge $-1 $202 $459 $465 $470 forward $315 $-1 #
vertex $-1 $203 $471 #
vertex $-1 $203 $472 #
straight-curve $-1 -23.899361173864239 -50.33980824098132 9.023736738276213 0 1 0 I I #
coedge $-1 $329 $329 $-1 $473 reversed $206 $-1 #
edge $-1 $474 0 $474 6.2831853071796004 $207 $475 forward 7 unknown #
vertex $-1 $210 $476 #
ellipse-curve $-1 -37.078519203371862 -22.00974052468062 6.1497504599511812 0 -0.6018150307709319 0.79863550430605224 1 0 0 1 I I #
coedge $-1 $333 $333 $-1 $477 reversed $213 $-1 #
edge $-1 $478 0 $478 6.2831853071796004 $214 $479 forward 7 unknown #
vertex $-1 $217 $480 #
ellipse-curve $-1 -29.171024385667288 -22.00974052468062 6.1497504599511812 0 -0.6018150307709319 0.79863550430605224 1 0 0 1 I I #
face $-1 $-1 $349 $45 $-1 $481 forward single #
loop $-1 $-1 $482 $218 #
plane-surface $-1 0 -25.823649057039017 0 0 1 0 0 0 1 forward_v I I I I #
coedge $-1 $483 $484 $485 $486 reversed $219 $-1 #
coedge $-1 $487 $221 $223 $347 forward $137 $-1 #
coedge $-1 $221 $487 $483 $488 forward $137 $-1 #
coedge $-1 $485 $224 $221 $344 forward $349 $-1 #
edge $-1 $351 -21.185432072405614 $489 -2.7346108310949475 $343 $490 forward 7 unknown #
coedge $-1 $491 $492 $222 $346 forward $338 $-1 #
edge $-1 $493 -48.030728892647289 $350 -42.28275633599722 $345 $494 forward 7 unknown #
edge $-1 $351 -9.5510618092852422 $493 -4.4408806494695735e-015 $223 $495 forward 7 unknown #
coedge $-1 $224 $485 $491 $496 forward $349 $-1 #
loop $-1 $-1 $485 $337 #
vertex $-1 $346 $497 #
vertex $-1 $225 $498 #
straight-curve $-1 33.145453524155897 -50.33980824098132 9.023736738276213 0 1 0 I I #
coedge $-1 $353 $353 $-1 $499 reversed $228 $-1 #
edge $-1 $500 0 $500 6.2831853071796004 $229 $501 forward 7 unknown #
vertex $-1 $232 $502 #
ellipse-curve $-1 19.966295494648286 -22.00974052468062 6.1497504599511812 0 -0.6018150307709319 0.79863550430605224 1 0 0 1 I I #
coedge $-1 $357 $357 $-1 $503 reversed $235 $-1 #
edge $-1 $504 0 $504 6.2831853071796004 $236 $505 forward 7 unknown #
vertex $-1 $239 $506 #
ellipse-curve $-1 27.87379031235286 -22.00974052468062 6.1497504599511812 0 -0.6018150307709319 0.79863550430605224 1 0 0 1 I I #
face $-1 $-1 $373 $36 $-1 $507 reversed single #
loop $-1 $-1 $508 $240 #
plane-surface $-1 0 25.823649057039017 0 0 -1 0 0 0 -1 forward_v I I I I #
coedge $-1 $372 $371 $243 $365 reversed $373 $-1 #
edge $-1 $509 -25.823649057039017 $510 25.823649057039017 $364 $511 forward 7 unknown #
coedge $-1 $245 $244 $248 $377 forward $97 $-1 #
coedge $-1 $508 $251 $244 $368 reversed $362 $-1 #
edge $-1 $375 -62.19183935056612 $382 62.19183935056612 $367 $512 forward 7 unknown #
coedge $-1 $249 $513 $245 $370 reversed $241 $-1 #
edge $-1 $379 -62.19183935056612 $374 62.19183935056612 $369 $514 forward 7 unknown #
coedge $-1 $364 $246 $513 $515 forward $373 $-1 #
coedge $-1 $246 $364 $508 $516 reversed $373 $-1 #
loop $-1 $-1 $371 $361 #
vertex $-1 $247 $517 #
vertex $-1 $247 $518 #
straight-curve $-1 62.19183935056612 0 9.0237367382762148 0 1 0 I I #
edge $-1 $382 -25.823649057039017 $379 25.823649057039017 $248 $519 forward 7 unknown #
coedge $-1 $513 $249 $254 $385 reversed $241 $-1 #
vertex $-1 $377 $520 #
straight-curve $-1 -62.19183935056612 -25.823649057039017 0 0 0 -1 I I #
coedge $-1 $251 $508 $253 $384 reversed $362 $-1 #
vertex $-1 $368 $521 #
straight-curve $-1 -62.19183935056612 25.823649057039017 0 0 0 -1 I I #
edge $-1 $256 -62.19183935056612 $509 62.19183935056612 $381 $522 forward 7 unknown #
edge $-1 $510 -62.19183935056612 $255 62.19183935056612 $378 $523 forward 7 unknown #
point $-1 -62.19183935056612 -25.823649057039017 -9.0237367382762148 #
point $-1 -62.19183935056612 25.823649057039017 -9.0237367382762148 #
face $-1 $-1 $404 $37 $-1 $524 forward single #
plane-surface $-1 -67.338864003112093 -7.7761755804865871 0 0 -1 0 0 0 -1 forward_v I I I I #
coedge $-1 $525 $526 $407 $527 forward $259 $-1 #
coedge $-1 $400 $261 $262 $396 reversed $159 $-1 #
coedge $-1 $261 $400 $403 $528 reversed $159 $-1 #
coedge $-1 $526 $525 $261 $394 reversed $259 $-1 #
edge $-1 $529 -9.0237367382762148 $530 9.0237367382762148 $393 $531 forward 7 unknown #
coedge $-1 $263 $262 $525 $532 forward $101 $-1 #
edge $-1 $398 -5.1470246525459729 $530 5.1470246525459658 $391 $533 forward 7 unknown #
edge $-1 $534 -5.1470246525459658 $271 5.1470246525459729 $268 $535 forward 7 unknown #
vertex $-1 $396 $536 #
straight-curve $-1 -62.19183935056612 0 -9.0237367382762148 0 -1 0 I I #
coedge $-1 $392 $391 $265 $401 reversed $159 $-1 #
edge $-1 $405 -9.0237367382762148 $398 9.0237367382762148 $400 $537 forward 7 unknown #
coedge $-1 $538 $266 $269 $408 forward $404 $-1 #
coedge $-1 $266 $538 $392 $528 forward $404 $-1 #
loop $-1 $-1 $266 $388 #
vertex $-1 $267 $539 #
straight-curve $-1 -62.19183935056612 0 9.0237367382762148 0 1 0 I I #
coedge $-1 $269 $268 $390 $527 reversed $270 $-1 #
edge $-1 $272 -5.1470246525459729 $540 5.1470246525459658 $269 $541 forward 7 unknown #
point $-1 -62.19183935056612 -7.7761755804865871 -9.0237367382762148 #
point $-1 -62.19183935056612 -7.7761755804865871 9.0237367382762148 #
loop $-1 $-1 $282 $274 #
plane-surface $-1 0 25.823649057039017 0 0 -1 0 0 0 -1 forward_v I I I I #
coedge $-1 $414 $277 $279 $418 reversed $167 $-1 #
coedge $-1 $277 $413 $542 $543 reversed $167 $-1 #
coedge $-1 $285 $280 $277 $416 forward $275 $-1 #
edge $-1 $419 -23.07597020554482 $544 -19.168964113994459 $415 $545 forward 7 unknown #
coedge $-1 $279 $278 $422 $546 reversed $105 $-1 #
edge $-1 $547 -51.647298114078048 $419 -45.439003880236356 $413 $548 forward 7 unknown #
vertex $-1 $281 $549 #
straight-curve $-1 -4.4958525543767642 21.916642965488663 9.023736738276213 1 0 0 I I #
coedge $-1 $542 $282 $285 $426 reversed $411 $-1 #
coedge $-1 $282 $542 $417 $546 forward $411 $-1 #
vertex $-1 $283 $550 #
straight-curve $-1 -23.130434870053033 25.82364905703902 61.306829760885797 0 0 1 I I #
straight-curve $-1 -23.130434870053033 -6.6790482609898447 44.336475472450246 0 0.62932038083071107 -0.77714596973225614 I I #
edge $-1 $544 -5.1470246525459764 $286 23.130434870053033 $421 $551 forward 7 unknown #
point $-1 -23.130434870053033 25.823649057039017 9.0237367382762148 #
point $-1 -23.130434870053033 21.916642965488656 9.023736738276213 #
edge $-1 $552 1 $552 0 $289 $-1 forward 7 unknown #
vertex $-1 $290 $553 #
ellipse-curve $-1 -8.9917051087535356 21.671738643289281 4.831126179725687 0 0.77714596973225614 0.62932038083071107 1 0 0 1 I I #
point $-1 -7.9917051087535356 23.870146011263838 6.6113613169051737 #
loop $-1 $-1 $302 $293 #
plane-surface $-1 0 25.823649057039017 0 0 -1 0 0 0 -1 forward_v I I I I #
coedge $-1 $296 $439 $305 $447 forward $182 $-1 #
edge $-1 $444 -51.647298114078048 $440 -45.439003880236356 $297 $554 forward 7 unknown #
coedge $-1 $302 $555 $298 $438 forward $433 $-1 #
edge $-1 $441 52.283093022609584 $444 57.107843865351661 $437 $556 forward 7 unknown #
coedge $-1 $435 $299 $555 $557 forward $182 $-1 #
vertex $-1 $300 $558 #
vertex $-1 $557 $559 #
straight-curve $-1 33.424484175144997 44.992613171033476 9.023736738276213 0 1 0 I I #
coedge $-1 $555 $302 $306 $448 forward $433 $-1 #
vertex $-1 $438 $560 #
straight-curve $-1 -4.4958525543767642 25.823649057039013 4.1989858955341397 -1 0 0 I I #
straight-curve $-1 -4.4958525543767642 21.916642965488663 9.023736738276213 1 0 0 I I #
edge $-1 $561 19.168964113994459 $308 23.07597020554482 $435 $562 forward 7 unknown #
edge $-1 $307 -57.107843865351661 $561 -52.283093022609584 $443 $563 forward 7 unknown #
point $-1 5.1470246525459764 25.82364905703902 4.1989858955341361 #
point $-1 5.1470246525459764 21.916642965488656 9.023736738276213 #
edge $-1 $564 1 $564 0 $310 $-1 forward 7 unknown #
vertex $-1 $311 $565 #
ellipse-curve $-1 19.285754413845474 21.671738643289281 4.831126179725687 0 0.77714596973225614 0.62932038083071107 1 0 0 1 I I #
point $-1 20.285754413845474 23.870146011263838 6.6113613169051737 #
loop $-1 $-1 $322 $314 #
plane-surface $-1 0 -25.823649057039017 0 0 1 0 0 0 1 forward_v I I I I #
coedge $-1 $458 $317 $319 $462 reversed $197 $-1 #
coedge $-1 $317 $457 $566 $567 reversed $197 $-1 #
coedge $-1 $325 $320 $317 $460 forward $315 $-1 #
edge $-1 $463 -32.143976248659094 $568 -24.516159183942303 $459 $569 forward 7 unknown #
coedge $-1 $319 $318 $466 $570 reversed $123 $-1 #
edge $-1 $571 4.4408806494695735e-015 $463 9.5510618092852422 $457 $572 forward 7 unknown #
vertex $-1 $321 $573 #
straight-curve $-1 -16.562385897259787 -18.195831992322226 9.0237367382762148 -1 0 0 I I #
coedge $-1 $566 $322 $325 $470 reversed $455 $-1 #
coedge $-1 $322 $566 $461 $570 forward $455 $-1 #
vertex $-1 $323 $574 #
straight-curve $-1 -23.899361173864239 -25.82364905703902 51.306493074273433 0 0 1 I I #
straight-curve $-1 -23.899361173864239 -25.82364905703902 3.275764181626144 0 -0.79863550430605224 -0.6018150307709319 I I #
edge $-1 $568 -42.350182415174913 $326 -23.899361173864239 $465 $575 forward 7 unknown #
point $-1 -23.899361173864239 -25.823649057039017 9.0237367382762148 #
point $-1 -23.899361173864239 -18.195831992322226 9.0237367382762148 #
edge $-1 $576 1 $576 0 $329 $-1 forward 7 unknown #
vertex $-1 $330 $577 #
ellipse-curve $-1 -37.078519203371862 -20.211495099473819 3.7633982277937861 0 -0.6018150307709319 0.79863550430605224 1 0 0 1 I I #
point $-1 -36.078519203371862 -22.00974052468062 6.1497504599511785 #
edge $-1 $578 1 $578 0 $333 $-1 forward 7 unknown #
vertex $-1 $334 $579 #
ellipse-curve $-1 -29.171024385667288 -20.211495099473819 3.7633982277937861 0 -0.6018150307709319 0.79863550430605224 1 0 0 1 I I #
point $-1 -28.171024385667288 -22.00974052468062 6.1497504599511785 #
plane-surface $-1 0 0 9.0237367382762148 0 0 1 1 0 0 forward_v I I I I #
coedge $-1 $492 $491 $484 $580 forward $338 $-1 #
coedge $-1 $484 $340 $342 $488 reversed $219 $-1 #
coedge $-1 $340 $483 $482 $580 reversed $219 $-1 #
coedge $-1 $348 $343 $340 $486 forward $349 $-1 #
edge $-1 $489 -32.143976248659094 $581 -24.516159183942303 $485 $582 forward 7 unknown #
coedge $-1 $342 $341 $492 $583 reversed $137 $-1 #
edge $-1 $584 4.4408806494695735e-015 $489 9.5510618092852422 $483 $585 forward 7 unknown #
vertex $-1 $344 $586 #
straight-curve $-1 11.960021451750283 -18.195831992322226 9.0237367382762148 -1 0 0 I I #
coedge $-1 $482 $345 $348 $496 reversed $338 $-1 #
coedge $-1 $345 $482 $487 $583 forward $338 $-1 #
vertex $-1 $346 $587 #
straight-curve $-1 33.145453524155897 -25.82364905703902 51.306493074273433 0 0 1 I I #
straight-curve $-1 33.145453524155897 -25.82364905703902 3.275764181626144 0 -0.79863550430605224 -0.6018150307709319 I I #
edge $-1 $581 14.69463228284523 $350 33.145453524155897 $491 $588 forward 7 unknown #
point $-1 33.145453524155897 -25.823649057039017 9.0237367382762148 #
point $-1 33.145453524155897 -18.195831992322226 9.0237367382762148 #
edge $-1 $589 1 $589 0 $353 $-1 forward 7 unknown #
vertex $-1 $354 $590 #
ellipse-curve $-1 19.966295494648286 -20.211495099473819 3.7633982277937861 0 -0.6018150307709319 0.79863550430605224 1 0 0 1 I I #
point $-1 20.966295494648286 -22.00974052468062 6.1497504599511785 #
edge $-1 $591 1 $591 0 $357 $-1 forward 7 unknown #
vertex $-1 $358 $592 #
ellipse-curve $-1 27.87379031235286 -20.211495099473819 3.7633982277937861 0 -0.6018150307709319 0.79863550430605224 1 0 0 1 I I #
point $-1 28.87379031235286 -22.00974052468062 6.1497504599511785 #
plane-surface $-1 62.19183935056612 0 0 -1 0 0 0 0 1 forward_v I I I I #
coedge $-1 $381 $367 $372 $516 forward $362 $-1 #
vertex $-1 $365 $593 #
vertex $-1 $515 $594 #
straight-curve $-1 62.19183935056612 0 -9.0237367382762148 0 -1 0 I I #
straight-curve $-1 0 25.823649057039017 9.0237367382762148 -1 0 0 I I #
coedge $-1 $369 $378 $371 $515 reversed $241 $-1 #
straight-curve $-1 0 -25.823649057039017 9.0237367382762148 1 0 0 I I #
edge $-1 $374 -9.0237367382762148 $510 9.0237367382762148 $371 $595 forward 7 unknown #
edge $-1 $375 -9.0237367382762148 $509 9.0237367382762148 $372 $596 forward 7 unknown #
point $-1 62.19183935056612 -25.823649057039017 9.0237367382762148 #
point $-1 62.19183935056612 25.823649057039017 9.0237367382762148 #
straight-curve $-1 -62.19183935056612 0 9.0237367382762148 0 -1 0 I I #
point $-1 -62.19183935056612 -25.823649057039017 9.0237367382762148 #
point $-1 -62.19183935056612 25.823649057039017 9.0237367382762148 #
straight-curve $-1 0 25.823649057039017 -9.0237367382762148 1 0 0 I I #
straight-curve $-1 0 -25.823649057039017 -9.0237367382762148 -1 0 0 I I #
plane-surface $-1 0 0 9.0237367382762148 0 0 1 1 0 0 forward_v I I I I #
coedge $-1 $393 $390 $395 $532 reversed $259 $-1 #
coedge $-1 $390 $393 $538 $597 reversed $259 $-1 #
edge $-1 $540 -9.0237367382762148 $534 9.0237367382762148 $407 $598 forward 7 unknown #
edge $-1 $529 -5.1470246525459658 $405 5.1470246525459729 $392 $599 forward 7 unknown #
vertex $-1 $597 $600 #
vertex $-1 $532 $601 #
straight-curve $-1 -72.485888655658059 -12.118816183101341 0 0 0 -1 I I #
edge $-1 $530 -2.171320301307377 $534 2.171320301307377 $525 $602 forward 7 unknown #
straight-curve $-1 -67.338864003112093 -12.118816183101341 -9.0237367382762148 -1 0 0 I I #
vertex $-1 $397 $603 #
straight-curve $-1 -67.338864003112093 -7.7761755804865871 -9.0237367382762148 1 0 0 I I #
point $-1 -62.19183935056612 -12.118816183101341 -9.0237367382762148 #
straight-curve $-1 -62.19183935056612 -12.118816183101341 0 0 0 -1 I I #
coedge $-1 $403 $402 $526 $597 forward $404 $-1 #
point $-1 -62.19183935056612 -12.118816183101341 9.0237367382762148 #
vertex $-1 $408 $604 #
straight-curve $-1 -67.338864003112093 -7.7761755804865871 9.0237367382762148 -1 0 0 I I #
coedge $-1 $422 $421 $414 $543 forward $411 $-1 #
edge $-1 $544 52.283093022609584 $547 57.107843865351661 $542 $605 forward 7 unknown #
vertex $-1 $426 $606 #
straight-curve $-1 5.1470246525459764 44.992613171033476 9.023736738276213 0 1 0 I I #
edge $-1 $547 -9.6428772069227406 $423 18.634582315676269 $422 $607 forward 7 unknown #
vertex $-1 $546 $608 #
straight-curve $-1 5.1470246525459764 -6.6790482609898447 44.336475472450246 0 -0.62932038083071107 0.77714596973225614 I I #
point $-1 5.1470246525459764 21.916642965488656 9.023736738276213 #
point $-1 -23.130434870053033 25.82364905703902 4.1989858955341361 #
straight-curve $-1 0 25.823649057039017 9.0237367382762148 -1 0 0 I I #
vertex $-1 $429 $609 #
point $-1 -7.9917051087535356 21.671738643289281 4.831126179725687 #
straight-curve $-1 33.424484175144997 -6.6790482609898447 44.336475472450246 0 -0.62932038083071107 0.77714596973225614 I I #
coedge $-1 $437 $443 $439 $557 reversed $433 $-1 #
straight-curve $-1 33.424484175144997 25.82364905703902 61.306829760885797 0 0 -1 I I #
edge $-1 $441 -33.424484175144997 $561 -5.1470246525459764 $555 $610 forward 7 unknown #
point $-1 33.424484175144997 21.916642965488656 9.023736738276213 #
point $-1 33.424484175144997 25.823649057039017 9.0237367382762148 #
point $-1 33.424484175144997 25.82364905703902 4.1989858955341361 #
vertex $-1 $448 $611 #
straight-curve $-1 5.1470246525459764 44.992613171033476 9.023736738276213 0 -1 0 I I #
straight-curve $-1 5.1470246525459764 25.82364905703902 61.306829760885797 0 0 1 I I #
vertex $-1 $451 $612 #
point $-1 20.285754413845474 21.671738643289281 4.831126179725687 #
coedge $-1 $466 $465 $458 $567 forward $455 $-1 #
edge $-1 $568 42.28275633599722 $571 48.030728892647289 $566 $613 forward 7 unknown #
vertex $-1 $470 $614 #
straight-curve $-1 -42.350182415174913 -50.33980824098132 9.023736738276213 0 -1 0 I I #
edge $-1 $571 -25.787796517915126 $467 -7.336975276604452 $466 $615 forward 7 unknown #
vertex $-1 $570 $616 #
straight-curve $-1 -42.350182415174913 -25.82364905703902 3.275764181626144 0 0.79863550430605224 0.6018150307709319 I I #
point $-1 -42.350182415174913 -18.195831992322226 9.0237367382762148 #
point $-1 -23.899361173864239 -25.823649057039017 3.2757641816261467 #
straight-curve $-1 0 -25.823649057039017 9.0237367382762148 1 0 0 I I #
vertex $-1 $473 $617 #
point $-1 -36.078519203371862 -20.211495099473819 3.7633982277937861 #
vertex $-1 $477 $618 #
point $-1 -28.171024385667288 -20.211495099473819 3.7633982277937861 #
edge $-1 $581 42.28275633599722 $584 48.030728892647289 $482 $619 forward 7 unknown #
vertex $-1 $496 $620 #
straight-curve $-1 14.69463228284523 -50.33980824098132 9.023736738276213 0 -1 0 I I #
edge $-1 $584 2.7346108310949475 $493 21.185432072405614 $492 $621 forward 7 unknown #
vertex $-1 $583 $622 #
straight-curve $-1 14.69463228284523 -25.82364905703902 3.275764181626144 0 0.79863550430605224 0.6018150307709319 I I #
point $-1 14.69463228284523 -18.195831992322226 9.0237367382762148 #
point $-1 33.145453524155897 -25.823649057039017 3.2757641816261467 #
straight-curve $-1 0 -25.823649057039017 9.0237367382762148 1 0 0 I I #
vertex $-1 $499 $623 #
point $-1 20.966295494648286 -20.211495099473819 3.7633982277937861 #
vertex $-1 $503 $624 #
point $-1 28.87379031235286 -20.211495099473819 3.7633982277937861 #
point $-1 62.19183935056612 25.823649057039017 -9.0237367382762148 #
point $-1 62.19183935056612 -25.823649057039017 -9.0237367382762148 #
straight-curve $-1 62.19183935056612 -25.823649057039017 0 0 0 -1 I I #
straight-curve $-1 62.19183935056612 25.823649057039017 0 0 0 -1 I I #
edge $-1 $540 -2.171320301307377 $529 2.171320301307377 $526 $625 forward 7 unknown #
straight-curve $-1 -72.485888655658059 -7.7761755804865871 0 0 0 -1 I I #
straight-curve $-1 -67.338864003112093 -12.118816183101341 9.0237367382762148 1 0 0 I I #
point $-1 -72.485888655658059 -12.118816183101341 9.0237367382762148 #
point $-1 -72.485888655658059 -12.118816183101341 -9.0237367382762148 #
straight-curve $-1 -72.485888655658059 -9.947495881793964 -9.0237367382762148 0 1 0 I I #
point $-1 -72.485888655658059 -7.7761755804865871 -9.0237367382762148 #
point $-1 -72.485888655658059 -7.7761755804865871 9.0237367382762148 #
straight-curve $-1 5.1470246525459764 25.82364905703902 61.306829760885797 0 0 -1 I I #
point $-1 5.1470246525459764 25.823649057039017 9.0237367382762148 #
straight-curve $-1 -4.4958525543767642 25.823649057039013 4.1989858955341397 -1 0 0 I I #
point $-1 5.1470246525459764 25.82364905703902 4.1989858955341361 #
point $-1 -8.9917051087535356 20.894592673557028 4.2018057988949762 #
straight-curve $-1 0 25.823649057039017 9.0237367382762148 -1 0 0 I I #
point $-1 5.1470246525459764 25.823649057039017 9.0237367382762148 #
point $-1 19.285754413845474 20.894592673557028 4.2018057988949762 #
straight-curve $-1 -42.350182415174913 -25.82364905703902 51.306493074273433 0 0 -1 I I #
point $-1 -42.350182415174913 -25.823649057039017 9.0237367382762148 #
straight-curve $-1 -16.562385897259787 -25.823649057039017 3.2757641816261489 1 0 0 I I #
point $-1 -42.350182415174913 -25.823649057039017 3.2757641816261467 #
point $-1 -37.078519203371862 -19.60968006870289 2.9647627234877341 #
point $-1 -29.171024385667288 -19.60968006870289 2.9647627234877341 #
straight-curve $-1 14.69463228284523 -25.82364905703902 51.306493074273433 0 0 -1 I I #
point $-1 14.69463228284523 -25.823649057039017 9.0237367382762148 #
straight-curve $-1 11.960021451750283 -25.823649057039017 3.2757641816261489 1 0 0 I I #
point $-1 14.69463228284523 -25.823649057039017 3.2757641816261467 #
point $-1 19.966295494648286 -19.60968006870289 2.9647627234877341 #
point $-1 27.87379031235286 -19.60968006870289 2.9647627234877341 #
straight-curve $-1 -72.485888655658059 -9.947495881793964 9.0237367382762148 0 -1 0 I I #
End-of-ACIS-data 