500 0 5 0           
7 Unknown 11 ACIS 5.0 NT 24 Fri Mar 26 17:26:52 1999 
-1 9.9999999999999995e-007 1e-010 
body $-1 $5 $-1 $6 #
body $-1 $7 $-1 $8 #
body $-1 $9 $-1 $10 #
body $-1 $11 $-1 $12 #
body $-1 $13 $-1 $14 #
lump $-1 $-1 $15 $0 #
transform $-1 1 0 0 0 1 0 0 0 1 73.9341410565508 48.229916028256447 12.493678098069507 1 rotate no_reflect no_shear #
lump $-1 $-1 $16 $1 #
transform $-1 1 0 0 0 1 0 0 0 1 73.9341410565508 48.229916028256447 12.493678098069507 1 rotate no_reflect no_shear #
lump $-1 $-1 $17 $2 #
transform $-1 1 0 0 0 1 0 0 0 1 73.9341410565508 48.229916028256447 12.493678098069507 1 rotate no_reflect no_shear #
lump $-1 $-1 $18 $3 #
transform $-1 1 0 0 0 1 0 0 0 1 73.9341410565508 48.229916028256447 12.493678098069507 1 rotate no_reflect no_shear #
lump $-1 $-1 $19 $4 #
transform $-1 1 0 0 0 1 0 0 0 1 73.9341410565508 48.229916028256447 12.493678098069507 1 rotate no_reflect no_shear #
shell $-1 $-1 $-1 $20 $-1 $5 #
shell $-1 $-1 $-1 $21 $-1 $7 #
shell $-1 $-1 $-1 $22 $-1 $9 #
shell $-1 $-1 $-1 $23 $-1 $11 #
shell $-1 $-1 $-1 $24 $-1 $13 #
face $-1 $25 $26 $15 $-1 $27 forward single #
face $-1 $28 $29 $16 $-1 $30 forward single #
face $-1 $31 $32 $17 $-1 $33 reversed single #
face $-1 $34 $35 $18 $-1 $36 reversed single #
face $-1 $37 $38 $19 $-1 $39 forward single #
face $-1 $40 $41 $15 $-1 $42 reversed single #
loop $-1 $-1 $43 $20 #
plane-surface $-1 0 0 12.493678098069507 0 0 1 1 0 0 forward_v I I I I #
face $-1 $44 $45 $16 $-1 $46 reversed single #
loop $-1 $-1 $47 $21 #
plane-surface $-1 0 -40.080722224098054 -8.9544826013227574 0 0 1 1 0 0 forward_v I I I I #
face $-1 $48 $49 $17 $-1 $50 reversed single #
loop $-1 $-1 $51 $22 #
plane-surface $-1 -51.388822889975245 35.131011174041191 0 0 1 0 0 0 1 forward_v I I I I #
face $-1 $52 $53 $18 $-1 $54 reversed single #
loop $-1 $-1 $55 $23 #
plane-surface $-1 26.892978870560555 35.131011174041184 205.44709934590594 0 -1 0 -0.52991927123019833 0 -0.84804809178421925 forward_v I I I I #
face $-1 $56 $57 $19 $-1 $58 forward single #
loop $-1 $59 $60 $24 #
cone-surface $-1 62.359406040663025 27.944101755686027 2.4033248711336803 -0.52991927123019833 0 -0.84804809178421925 2.5441442753526577 0 -1.589757813690595 1 I I 0 1 3 forward I I I I #
face $-1 $61 $62 $15 $-1 $63 reversed single #
loop $-1 $-1 $64 $25 #
plane-surface $-1 0 0 -12.493678098069507 0 0 1 1 0 0 forward_v I I I I #
coedge $-1 $65 $66 $67 $68 forward $26 $-1 #
face $-1 $69 $70 $16 $-1 $71 reversed single #
loop $-1 $-1 $72 $28 #
plane-surface $-1 0 -31.93152841993966 -10.724080349696132 0 -1 0 0 0 -1 forward_v I I I I #
coedge $-1 $73 $74 $75 $76 reversed $29 $-1 #
face $-1 $77 $78 $17 $-1 $79 reversed single #
loop $-1 $-1 $80 $31 #
plane-surface $-1 -53.830860919538701 41.680463601148823 0 1 0 0 0 0 -1 forward_v I I I I #
coedge $-1 $81 $82 $83 $84 forward $32 $-1 #
face $-1 $85 $86 $18 $-1 $87 reversed single #
loop $-1 $-1 $88 $34 #
plane-surface $-1 -51.465273424875619 27.944101755686027 80.047684864479535 0.52991927123019833 0 0.84804809178421925 0.84804809178421925 0 -0.52991927123019833 forward_v I I I I #
coedge $-1 $89 $90 $91 $92 reversed $35 $-1 #
face $-1 $-1 $93 $19 $-1 $94 forward single #
loop $-1 $95 $96 $37 #
cone-surface $-1 58.634995549377322 27.944101755686027 -3.5569777289654052 -0.52991927123019833 0 -0.84804809178421925 1.2720721376763289 0 -0.79487890684529749 1 I I -0.70710678118654757 0.70710678118654757 1.5 forward I I I I #
loop $-1 $-1 $97 $24 #
coedge $-1 $60 $60 $98 $99 reversed $38 $-1 #
face $-1 $100 $101 $15 $-1 $102 reversed single #
loop $-1 $-1 $103 $40 #
plane-surface $-1 0 -48.229916028256447 0 0 1 0 0 0 1 forward_v I I I I #
coedge $-1 $104 $105 $106 $107 forward $41 $-1 #
coedge $-1 $108 $43 $109 $110 forward $26 $-1 #
coedge $-1 $43 $108 $111 $112 forward $26 $-1 #
coedge $-1 $113 $114 $43 $68 reversed $115 $-1 #
edge $-1 $116 -48.229916028256447 $117 48.229916028256447 $67 $118 forward 7 unknown #
face $-1 $119 $120 $16 $-1 $121 reversed single #
loop $-1 $-1 $122 $44 #
plane-surface $-1 0 0 -12.493678098069507 0 0 1 1 0 0 forward_v I I I I #
coedge $-1 $123 $124 $125 $126 reversed $45 $-1 #
coedge $-1 $127 $47 $124 $128 forward $29 $-1 #
coedge $-1 $47 $127 $129 $130 reversed $29 $-1 #
coedge $-1 $131 $125 $47 $76 forward $120 $-1 #
edge $-1 $132 11.891167307890633 $133 28.18955491620742 $75 $134 forward 7 unknown #
face $-1 $135 $136 $17 $-1 $137 reversed single #
loop $-1 $-1 $138 $48 #
plane-surface $-1 -48.946784860411789 41.680463601148823 0 -1 0 0 0 0 1 forward_v I I I I #
coedge $-1 $139 $140 $141 $142 reversed $49 $-1 #
coedge $-1 $143 $51 $144 $145 reversed $32 $-1 #
coedge $-1 $51 $143 $146 $147 reversed $32 $-1 #
coedge $-1 $140 $139 $51 $84 reversed $49 $-1 #
edge $-1 $148 -12.493678098069507 $149 12.493678098069507 $83 $150 forward 7 unknown #
face $-1 $151 $152 $18 $-1 $153 forward single #
loop $-1 $-1 $154 $52 #
plane-surface $-1 26.892978870560555 20.757192337330871 205.44709934590594 0 1 0 0.52991927123019833 0 0.84804809178421925 forward_v I I I I #
coedge $-1 $155 $156 $157 $158 reversed $53 $-1 #
coedge $-1 $90 $55 $159 $160 reversed $35 $-1 #
coedge $-1 $55 $89 $155 $161 reversed $35 $-1 #
coedge $-1 $157 $162 $55 $92 forward $152 $-1 #
edge $-1 $163 -60.487651621270523 $164 -43.197244758375767 $91 $165 forward 7 unknown #
loop $-1 $-1 $98 $56 #
plane-surface $-1 -51.465273424875619 27.944101755686027 80.047684864479535 0.52991927123019833 0 0.84804809178421925 0.84804809178421925 0 -0.52991927123019833 forward_v I I I I #
loop $-1 $-1 $166 $37 #
coedge $-1 $96 $96 $97 $167 reversed $57 $-1 #
coedge $-1 $97 $97 $96 $167 forward $59 $-1 #
coedge $-1 $98 $98 $60 $99 forward $93 $-1 #
edge $-1 $168 0 $168 6.2831853071796004 $98 $169 forward 7 unknown #
face $-1 $170 $171 $15 $-1 $172 reversed single #
loop $-1 $-1 $173 $61 #
plane-surface $-1 -73.9341410565508 0 0 1 0 0 0 0 -1 forward_v I I I I #
coedge $-1 $174 $111 $175 $176 forward $62 $-1 #
coedge $-1 $177 $64 $174 $178 forward $41 $-1 #
coedge $-1 $64 $177 $179 $180 forward $41 $-1 #
coedge $-1 $114 $113 $64 $107 reversed $115 $-1 #
edge $-1 $181 -48.229916028256447 $182 48.229916028256447 $106 $183 forward 7 unknown #
coedge $-1 $66 $65 $184 $185 forward $26 $-1 #
coedge $-1 $186 $187 $65 $110 reversed $171 $-1 #
edge $-1 $117 -73.9341410565508 $188 73.9341410565508 $109 $189 forward 7 unknown #
coedge $-1 $103 $190 $66 $112 reversed $62 $-1 #
edge $-1 $191 -73.9341410565508 $116 73.9341410565508 $111 $192 forward 7 unknown #
coedge $-1 $106 $67 $190 $193 forward $115 $-1 #
coedge $-1 $67 $106 $186 $194 reversed $115 $-1 #
loop $-1 $-1 $113 $170 #
vertex $-1 $68 $195 #
vertex $-1 $68 $196 #
straight-curve $-1 73.9341410565508 0 12.493678098069507 0 1 0 I I #
face $-1 $197 $198 $16 $-1 $199 reversed single #
loop $-1 $-1 $125 $69 #
plane-surface $-1 73.9341410565508 0 0 -1 0 0 0 0 1 forward_v I I I I #
coedge $-1 $200 $201 $123 $202 forward $70 $-1 #
coedge $-1 $203 $72 $122 $202 reversed $45 $-1 #
coedge $-1 $72 $203 $73 $128 reversed $45 $-1 #
coedge $-1 $75 $204 $72 $126 forward $120 $-1 #
edge $-1 $205 -7.1316379232214411 $132 -3.5924424264746913 $125 $206 forward 7 unknown #
coedge $-1 $74 $73 $207 $208 reversed $29 $-1 #
edge $-1 $132 -73.9341410565508 $209 73.9341410565508 $124 $210 forward 7 unknown #
coedge $-1 $211 $212 $74 $130 forward $198 $-1 #
edge $-1 $133 -73.9341410565508 $213 73.9341410565508 $129 $214 forward 7 unknown #
coedge $-1 $204 $75 $212 $215 forward $120 $-1 #
vertex $-1 $76 $216 #
vertex $-1 $215 $217 #
straight-curve $-1 73.9341410565508 -20.040361112049027 -8.9544826013227574 0 -1 0 I I #
face $-1 $218 $219 $17 $-1 $220 forward single #
loop $-1 $-1 $221 $77 #
plane-surface $-1 0 0 -12.493678098069507 0 0 1 1 0 0 forward_v I I I I #
coedge $-1 $222 $223 $143 $224 forward $78 $-1 #
coedge $-1 $83 $80 $225 $226 reversed $49 $-1 #
coedge $-1 $80 $83 $227 $228 reversed $49 $-1 #
coedge $-1 $229 $230 $80 $142 forward $231 $-1 #
edge $-1 $232 -12.493678098069507 $233 12.493678098069507 $141 $234 forward 7 unknown #
coedge $-1 $82 $81 $138 $224 reversed $32 $-1 #
coedge $-1 $225 $221 $81 $145 forward $136 $-1 #
edge $-1 $235 23.252373415424167 $149 28.136449474551078 $144 $236 forward 7 unknown #
coedge $-1 $237 $227 $82 $147 forward $219 $-1 #
edge $-1 $148 -28.136449474551078 $238 -23.252373415424167 $146 $239 forward 7 unknown #
vertex $-1 $147 $240 #
vertex $-1 $145 $241 #
straight-curve $-1 -53.830860919538701 35.131011174041191 0 0 0 -1 I I #
face $-1 $-1 $242 $18 $-1 $243 reversed single #
loop $-1 $-1 $91 $85 #
plane-surface $-1 0 0 12.493678098069507 0 0 1 1 0 0 forward_v I I I I #
coedge $-1 $244 $245 $246 $247 reversed $86 $-1 #
coedge $-1 $248 $88 $90 $161 forward $53 $-1 #
coedge $-1 $88 $248 $244 $249 forward $53 $-1 #
coedge $-1 $246 $91 $88 $158 forward $152 $-1 #
edge $-1 $164 -21.15896029619817 $250 -6.785141459487857 $157 $251 forward 7 unknown #
coedge $-1 $252 $253 $89 $160 forward $242 $-1 #
edge $-1 $254 -101.03411710390961 $163 -90.229871574883461 $159 $255 forward 7 unknown #
edge $-1 $164 127.47980764991729 $254 147.8682821131016 $90 $256 forward 7 unknown #
coedge $-1 $91 $246 $252 $257 forward $152 $-1 #
vertex $-1 $92 $258 #
vertex $-1 $92 $259 #
straight-curve $-1 13.446489435280277 35.131011174041184 12.493678098069509 -1 0 0 I I #
coedge $-1 $166 $166 $-1 $260 reversed $95 $-1 #
edge $-1 $261 0 $261 6.2831853071796004 $96 $262 forward 7 unknown #
vertex $-1 $99 $263 #
ellipse-curve $-1 65.288937625103429 27.944101755686027 7.0915553335564372 0.52991927123019833 0 0.84804809178421925 2.5441442753526577 0 -1.589757813690595 1 I I #
face $-1 $-1 $115 $15 $-1 $264 reversed single #
loop $-1 $-1 $186 $100 #
plane-surface $-1 0 48.229916028256447 0 0 -1 0 0 0 -1 forward_v I I I I #
coedge $-1 $265 $184 $187 $266 forward $101 $-1 #
coedge $-1 $190 $103 $104 $178 reversed $62 $-1 #
coedge $-1 $184 $265 $103 $176 reversed $101 $-1 #
edge $-1 $191 -12.493678098069507 $267 12.493678098069507 $175 $268 forward 7 unknown #
coedge $-1 $105 $104 $265 $269 forward $41 $-1 #
edge $-1 $182 -73.9341410565508 $267 73.9341410565508 $174 $270 forward 7 unknown #
coedge $-1 $187 $186 $105 $180 reversed $171 $-1 #
edge $-1 $271 -73.9341410565508 $181 73.9341410565508 $179 $272 forward 7 unknown #
vertex $-1 $107 $273 #
vertex $-1 $193 $274 #
straight-curve $-1 73.9341410565508 0 -12.493678098069507 0 -1 0 I I #
coedge $-1 $173 $175 $108 $185 reversed $101 $-1 #
edge $-1 $188 -48.229916028256447 $191 48.229916028256447 $184 $275 forward 7 unknown #
coedge $-1 $179 $109 $114 $194 forward $171 $-1 #
coedge $-1 $109 $179 $173 $266 reversed $171 $-1 #
vertex $-1 $110 $276 #
straight-curve $-1 0 48.229916028256447 12.493678098069507 -1 0 0 I I #
coedge $-1 $111 $174 $113 $193 reversed $62 $-1 #
vertex $-1 $185 $277 #
straight-curve $-1 0 -48.229916028256447 12.493678098069507 1 0 0 I I #
edge $-1 $116 -12.493678098069507 $182 12.493678098069507 $113 $278 forward 7 unknown #
edge $-1 $117 -12.493678098069507 $181 12.493678098069507 $114 $279 forward 7 unknown #
point $-1 73.9341410565508 -48.229916028256447 12.493678098069507 #
point $-1 73.9341410565508 48.229916028256447 12.493678098069507 #
face $-1 $-1 $280 $16 $-1 $281 reversed single #
loop $-1 $-1 $129 $119 #
plane-surface $-1 0 -48.229916028256447 0 0 1 0 0 0 1 forward_v I I I I #
coedge $-1 $282 $122 $204 $283 forward $70 $-1 #
coedge $-1 $122 $282 $284 $285 forward $70 $-1 #
edge $-1 $286 -73.9341410565508 $205 73.9341410565508 $122 $287 forward 7 unknown #
coedge $-1 $124 $123 $288 $289 reversed $45 $-1 #
coedge $-1 $125 $131 $200 $283 reversed $120 $-1 #
vertex $-1 $283 $290 #
straight-curve $-1 73.9341410565508 -31.93152841993966 -5.3620401748480662 0 0 1 I I #
coedge $-1 $288 $291 $127 $208 forward $280 $-1 #
edge $-1 $213 -28.18955491620742 $209 -11.891167307890633 $207 $292 forward 7 unknown #
vertex $-1 $208 $293 #
straight-curve $-1 0 -31.93152841993966 -8.9544826013227574 -1 0 0 I I #
coedge $-1 $294 $129 $291 $295 forward $198 $-1 #
coedge $-1 $129 $294 $131 $215 reversed $198 $-1 #
vertex $-1 $295 $296 #
straight-curve $-1 0 -48.229916028256447 -8.9544826013227574 -1 0 0 I I #
edge $-1 $133 8.9544826013227574 $297 12.493678098069507 $131 $298 forward 7 unknown #
point $-1 73.9341410565508 -31.93152841993966 -8.9544826013227574 #
point $-1 73.9341410565508 -48.229916028256447 -8.9544826013227574 #
face $-1 $-1 $231 $17 $-1 $299 reversed single #
loop $-1 $-1 $237 $135 #
plane-surface $-1 0 0 12.493678098069507 0 0 1 1 0 0 forward_v I I I I #
coedge $-1 $144 $300 $222 $301 forward $136 $-1 #
coedge $-1 $302 $138 $221 $301 reversed $78 $-1 #
coedge $-1 $138 $302 $237 $303 reversed $78 $-1 #
edge $-1 $238 -12.493678098069507 $235 12.493678098069507 $138 $304 forward 7 unknown #
coedge $-1 $300 $144 $139 $226 forward $136 $-1 #
edge $-1 $149 14.29077937346678 $232 27.389684227682043 $225 $305 forward 7 unknown #
coedge $-1 $146 $306 $140 $228 forward $219 $-1 #
edge $-1 $233 -27.389684227682043 $148 -14.29077937346678 $227 $307 forward 7 unknown #
coedge $-1 $308 $141 $306 $309 reversed $231 $-1 #
coedge $-1 $141 $308 $300 $310 reversed $231 $-1 #
loop $-1 $-1 $308 $218 #
vertex $-1 $310 $311 #
vertex $-1 $142 $312 #
straight-curve $-1 -53.830860919538701 48.229916028256447 0 0 0 1 I I #
vertex $-1 $145 $313 #
straight-curve $-1 -25.694411444987622 35.131011174041191 -12.493678098069507 -1 0 0 I I #
coedge $-1 $306 $146 $223 $303 forward $219 $-1 #
vertex $-1 $147 $314 #
straight-curve $-1 -25.694411444987622 35.131011174041191 12.493678098069507 1 0 0 I I #
point $-1 -53.830860919538701 35.131011174041191 12.493678098069507 #
point $-1 -53.830860919538701 35.131011174041191 -12.493678098069507 #
loop $-1 $-1 $159 $151 #
plane-surface $-1 73.9341410565508 0 0 -1 0 0 0 0 1 forward_v I I I I #
coedge $-1 $245 $154 $156 $249 reversed $86 $-1 #
coedge $-1 $154 $244 $315 $316 reversed $86 $-1 #
coedge $-1 $162 $157 $154 $247 forward $152 $-1 #
edge $-1 $250 43.197244758375767 $317 60.487651621270523 $246 $318 forward 7 unknown #
coedge $-1 $156 $155 $253 $319 reversed $53 $-1 #
edge $-1 $320 -147.8682821131016 $250 -127.47980764991729 $244 $321 forward 7 unknown #
vertex $-1 $158 $322 #
straight-curve $-1 56.643734193656044 13.972050877843014 12.493678098069502 0 -1 0 I I #
coedge $-1 $315 $159 $162 $257 reversed $242 $-1 #
coedge $-1 $159 $315 $248 $319 forward $242 $-1 #
vertex $-1 $160 $323 #
straight-curve $-1 73.9341410565508 35.131011174041184 102.72354967295297 0 0 1 I I #
straight-curve $-1 -51.465273424875619 35.131011174041184 80.047684864479535 0.84804809178421925 0 -0.52991927123019833 I I #
edge $-1 $317 20.757192337330871 $163 35.131011174041184 $252 $324 forward 7 unknown #
point $-1 73.9341410565508 35.131011174041184 12.493678098069507 #
point $-1 56.643734193656044 35.131011174041184 12.493678098069509 #
edge $-1 $325 1 $325 0 $166 $-1 forward 7 unknown #
vertex $-1 $167 $326 #
ellipse-curve $-1 59.42987445622262 27.944101755686027 -2.2849055912890766 0.52991927123019833 0 0.84804809178421925 2.5441442753526577 0 -1.589757813690595 1 I I #
point $-1 67.833081900456079 27.944101755686027 5.5017975198658426 #
plane-surface $-1 73.9341410565508 0 0 -1 0 0 0 0 1 forward_v I I I I #
coedge $-1 $175 $173 $177 $269 reversed $101 $-1 #
edge $-1 $188 -12.493678098069507 $271 12.493678098069507 $187 $327 forward 7 unknown #
vertex $-1 $269 $328 #
straight-curve $-1 -73.9341410565508 -48.229916028256447 0 0 0 -1 I I #
edge $-1 $267 -48.229916028256447 $271 48.229916028256447 $265 $329 forward 7 unknown #
straight-curve $-1 0 -48.229916028256447 -12.493678098069507 -1 0 0 I I #
vertex $-1 $180 $330 #
straight-curve $-1 0 48.229916028256447 -12.493678098069507 1 0 0 I I #
point $-1 73.9341410565508 48.229916028256447 -12.493678098069507 #
point $-1 73.9341410565508 -48.229916028256447 -12.493678098069507 #
straight-curve $-1 -73.9341410565508 0 12.493678098069507 0 -1 0 I I #
point $-1 -73.9341410565508 48.229916028256447 12.493678098069507 #
point $-1 -73.9341410565508 -48.229916028256447 12.493678098069507 #
straight-curve $-1 73.9341410565508 -48.229916028256447 0 0 0 -1 I I #
straight-curve $-1 73.9341410565508 48.229916028256447 0 0 0 -1 I I #
loop $-1 $-1 $288 $197 #
plane-surface $-1 -73.9341410565508 0 0 1 0 0 0 0 -1 forward_v I I I I #
coedge $-1 $201 $200 $294 $331 forward $70 $-1 #
edge $-1 $205 31.93152841993966 $297 48.229916028256447 $204 $332 forward 7 unknown #
coedge $-1 $291 $288 $201 $285 reversed $280 $-1 #
edge $-1 $333 -48.229916028256447 $286 -31.93152841993966 $284 $334 forward 7 unknown #
vertex $-1 $289 $335 #
straight-curve $-1 0 -31.93152841993966 -12.493678098069507 1 0 0 I I #
coedge $-1 $284 $207 $203 $289 forward $280 $-1 #
edge $-1 $209 3.5924424264746913 $286 7.1316379232214411 $288 $336 forward 7 unknown #
point $-1 73.9341410565508 -31.93152841993966 -12.493678098069507 #
coedge $-1 $207 $284 $211 $295 reversed $280 $-1 #
straight-curve $-1 -73.9341410565508 -20.040361112049027 -8.9544826013227574 0 1 0 I I #
point $-1 -73.9341410565508 -31.93152841993966 -8.9544826013227574 #
coedge $-1 $212 $211 $282 $331 reversed $198 $-1 #
edge $-1 $213 8.9544826013227574 $333 12.493678098069507 $291 $337 forward 7 unknown #
point $-1 -73.9341410565508 -48.229916028256447 -8.9544826013227574 #
vertex $-1 $215 $338 #
straight-curve $-1 73.9341410565508 -48.229916028256447 0 0 0 -1 I I #
plane-surface $-1 0 48.229916028256447 0 0 -1 0 0 0 -1 forward_v I I I I #
coedge $-1 $221 $225 $230 $310 forward $136 $-1 #
edge $-1 $339 -27.389684227682043 $235 -14.29077937346678 $221 $340 forward 7 unknown #
coedge $-1 $223 $222 $308 $341 reversed $78 $-1 #
edge $-1 $238 14.29077937346678 $342 27.389684227682043 $237 $343 forward 7 unknown #
straight-curve $-1 -48.946784860411789 35.131011174041191 0 0 0 -1 I I #
straight-curve $-1 -53.830860919538701 20.840231800574411 -12.493678098069507 0 1 0 I I #
coedge $-1 $227 $237 $229 $309 forward $219 $-1 #
straight-curve $-1 -53.830860919538701 20.840231800574411 12.493678098069507 0 -1 0 I I #
coedge $-1 $230 $229 $302 $341 forward $231 $-1 #
edge $-1 $342 48.946784860411789 $233 53.830860919538701 $229 $344 forward 7 unknown #
edge $-1 $232 -53.830860919538701 $339 -48.946784860411789 $230 $345 forward 7 unknown #
point $-1 -53.830860919538701 48.229916028256454 -12.493678098069507 #
point $-1 -53.830860919538701 48.229916028256454 12.493678098069507 #
point $-1 -48.946784860411789 35.131011174041191 -12.493678098069507 #
point $-1 -48.946784860411789 35.131011174041191 12.493678098069507 #
coedge $-1 $253 $252 $245 $316 forward $242 $-1 #
edge $-1 $317 90.229871574883461 $320 101.03411710390961 $315 $346 forward 7 unknown #
vertex $-1 $257 $347 #
straight-curve $-1 13.446489435280277 20.757192337330871 12.493678098069509 1 0 0 I I #
edge $-1 $320 6.785141459487857 $254 21.15896029619817 $253 $348 forward 7 unknown #
vertex $-1 $319 $349 #
straight-curve $-1 -51.465273424875619 20.757192337330871 80.047684864479535 -0.84804809178421925 0 0.52991927123019833 I I #
point $-1 56.643734193656044 20.757192337330871 12.493678098069509 #
point $-1 73.934141056550786 35.131011174041184 1.6894325690433618 #
straight-curve $-1 73.9341410565508 0 12.493678098069507 0 1 0 I I #
vertex $-1 $260 $350 #
point $-1 61.974018731575278 27.944101755686027 -3.8746634049796711 #
straight-curve $-1 -73.9341410565508 48.229916028256447 0 0 0 -1 I I #
point $-1 -73.9341410565508 -48.229916028256447 -12.493678098069507 #
straight-curve $-1 -73.9341410565508 0 -12.493678098069507 0 1 0 I I #
point $-1 -73.9341410565508 48.229916028256447 -12.493678098069507 #
edge $-1 $297 -73.9341410565508 $333 73.9341410565508 $294 $351 forward 7 unknown #
straight-curve $-1 73.9341410565508 0 -12.493678098069507 0 -1 0 I I #
vertex $-1 $285 $352 #
straight-curve $-1 -73.9341410565508 0 -12.493678098069507 0 1 0 I I #
point $-1 -73.9341410565508 -31.93152841993966 -12.493678098069507 #
straight-curve $-1 -73.9341410565508 -31.93152841993966 -5.3620401748480662 0 0 -1 I I #
straight-curve $-1 -73.9341410565508 -48.229916028256447 0 0 0 -1 I I #
point $-1 73.9341410565508 -48.229916028256447 -12.493678098069507 #
vertex $-1 $341 $353 #
straight-curve $-1 -48.946784860411789 20.840231800574411 -12.493678098069507 0 -1 0 I I #
edge $-1 $342 -12.493678098069507 $339 12.493678098069507 $308 $354 forward 7 unknown #
vertex $-1 $309 $355 #
straight-curve $-1 -48.946784860411789 20.840231800574411 12.493678098069507 0 1 0 I I #
straight-curve $-1 0 48.229916028256447 12.493678098069507 -1 0 0 I I #
straight-curve $-1 0 48.229916028256447 -12.493678098069507 1 0 0 I I #
straight-curve $-1 73.9341410565508 20.757192337330871 102.72354967295297 0 0 -1 I I #
point $-1 73.9341410565508 20.757192337330871 12.493678098069507 #
straight-curve $-1 73.934141056550814 13.972050877843014 1.6894325690433618 0 1 0 I I #
point $-1 73.934141056550786 20.757192337330871 1.6894325690433618 #
point $-1 57.840116642532024 27.944101755686027 -4.8290498666417339 #
straight-curve $-1 0 -48.229916028256447 -12.493678098069507 -1 0 0 I I #
point $-1 -73.9341410565508 -48.229916028256447 -12.493678098069507 #
point $-1 -48.946784860411789 48.229916028256454 -12.493678098069507 #
straight-curve $-1 -48.946784860411789 48.229916028256447 0 0 0 -1 I I #
point $-1 -48.946784860411789 48.229916028256454 12.493678098069507 #
End-of-ACIS-data 