600 0 7 0           
106 GICL ACIS Healer - Source: /gicl/data5/repository/Drexel/CICIRELLO-THESISDATA/Part1001.smdg.feat.sat - 6 0 18 ACIS 6.0.3 Solaris 24 Fri Apr 12 10:23:19 2002 
1 9.999999999999999547e-07 1.000000000000000036e-10 
body $-1 $7 $-1 $-1 #
body $-1 $8 $-1 $-1 #
body $-1 $9 $-1 $-1 #
body $-1 $10 $-1 $-1 #
body $-1 $11 $-1 $-1 #
body $-1 $12 $-1 $-1 #
body $-1 $13 $-1 $-1 #
lump $-1 $-1 $14 $0 #
lump $-1 $-1 $15 $1 #
lump $-1 $-1 $16 $2 #
lump $-1 $-1 $17 $3 #
lump $-1 $-1 $18 $4 #
lump $-1 $-1 $19 $5 #
lump $-1 $-1 $20 $6 #
shell $-1 $-1 $-1 $21 $-1 $7 #
shell $-1 $-1 $-1 $22 $-1 $8 #
shell $-1 $-1 $-1 $23 $-1 $9 #
shell $-1 $-1 $-1 $24 $-1 $10 #
shell $-1 $-1 $-1 $25 $-1 $11 #
shell $-1 $-1 $-1 $26 $-1 $12 #
shell $-1 $-1 $-1 $27 $-1 $13 #
face $-1 $28 $29 $14 $-1 $30 forward single #
face $-1 $31 $32 $15 $-1 $33 forward single #
face $-1 $34 $35 $16 $-1 $36 forward single #
face $-1 $37 $38 $17 $-1 $39 forward single #
face $-1 $40 $41 $18 $-1 $42 forward single #
face $-1 $43 $44 $19 $-1 $45 forward single #
face $-1 $46 $47 $20 $-1 $48 forward single #
face $-1 $49 $50 $14 $-1 $51 reversed single #
loop $-1 $-1 $52 $21 #
plane-surface $-1 43.09823908200323217 28.12677339473219718 22.69421248099028787 0 0 1 1 0 0 forward_v I I I I #
face $-1 $53 $54 $15 $-1 $55 reversed single #
loop $-1 $-1 $56 $22 #
plane-surface $-1 1.5 -3.949331116871842351 22.69421248099028787 0 0 1 1 0 0 forward_v I I I I #
face $-1 $57 $58 $16 $-1 $59 reversed single #
loop $-1 $-1 $60 $23 #
plane-surface $-1 43.09823908200323217 51.52518299734976637 4.827155551079148843 0 0 1 1 0 0 forward_v I I I I #
face $-1 $61 $62 $17 $-1 $63 reversed single #
loop $-1 $-1 $64 $24 #
plane-surface $-1 -142.9202394316700406 23.97878858687963444 111.2043511203755486 -0.8290375806290775085 0 0.5591928915004963363 0.5591928915004963363 0 0.8290375806290775085 forward_v I I I I #
face $-1 $65 $66 $18 $-1 $67 forward single #
loop $-1 $68 $69 $25 #
cone-surface $-1 4.246064833992148735 20.71890639338960582 17.6798178560423267 0.8290375806290775085 0 -0.5591928915004963363 0.5591928915004963363 0 0.8290375806290775085 1 I I 0 1 1 forward I I I I #
face $-1 $70 $71 $19 $-1 $72 forward single #
loop $-1 $73 $74 $26 #
cone-surface $-1 4.246064833992148735 23.97878858687963444 17.6798178560423267 0.8290375806290775085 0 -0.5591928915004963363 0.5591928915004963363 0 0.8290375806290775085 1 I I 0 1 1 forward I I I I #
face $-1 $75 $76 $20 $-1 $77 forward single #
loop $-1 $78 $79 $27 #
cone-surface $-1 4.246064833992148735 27.23867078036966305 17.6798178560423267 0.8290375806290775085 0 -0.5591928915004963363 0.5591928915004963363 0 0.8290375806290775085 1 I I 0 1 1 forward I I I I #
face $-1 $80 $81 $14 $-1 $82 reversed single #
loop $-1 $-1 $83 $28 #
plane-surface $-1 43.09823908200323217 28.12677339473219718 0 0 0 1 1 0 0 forward_v I I I I #
coedge $-1 $84 $85 $86 $87 forward $29 $-1 #
face $-1 $88 $89 $15 $-1 $90 reversed single #
loop $-1 $-1 $91 $31 #
plane-surface $-1 1.5 -3.949331116871842351 0 0 0 1 1 0 0 forward_v I I I I #
coedge $-1 $92 $93 $94 $95 forward $32 $-1 #
face $-1 $96 $97 $16 $-1 $98 reversed single #
loop $-1 $-1 $99 $34 #
plane-surface $-1 43.09823908200323217 51.52518299734976637 1.827155551079148843 0 0 1 1 0 0 forward_v I I I I #
coedge $-1 $100 $101 $102 $103 forward $35 $-1 #
face $-1 $104 $105 $17 $-1 $106 reversed single #
loop $-1 $-1 $107 $37 #
plane-surface $-1 1.421085471520200372e-14 23.97878858687963444 14.80343539699521926 -0.8290375806290775085 0 0.5591928915004963363 0.5591928915004963363 0 0.8290375806290775085 forward_v I I I I #
coedge $-1 $108 $109 $110 $111 forward $38 $-1 #
face $-1 $-1 $112 $18 $-1 $113 forward single #
loop $-1 $-1 $114 $40 #
plane-surface $-1 2.661198090945922079 20.71890639338960582 18.74882393899276067 -0.8290375806290775085 0 0.5591928915004963363 -0.5591928915004963363 0 -0.8290375806290775085 forward_v I I I I #
loop $-1 $-1 $115 $25 #
coedge $-1 $69 $69 $114 $116 reversed $41 $-1 #
face $-1 $-1 $117 $19 $-1 $118 forward single #
loop $-1 $-1 $119 $43 #
plane-surface $-1 2.661198090945922079 23.97878858687963444 18.74882393899276067 -0.8290375806290775085 0 0.5591928915004963363 -0.5591928915004963363 0 -0.8290375806290775085 forward_v I I I I #
loop $-1 $-1 $120 $26 #
coedge $-1 $74 $74 $119 $121 reversed $44 $-1 #
face $-1 $-1 $122 $20 $-1 $123 forward single #
loop $-1 $-1 $124 $46 #
plane-surface $-1 2.661198090945922079 27.23867078036966305 18.74882393899276067 -0.8290375806290775085 0 0.5591928915004963363 -0.5591928915004963363 0 -0.8290375806290775085 forward_v I I I I #
loop $-1 $-1 $125 $27 #
coedge $-1 $79 $79 $124 $126 reversed $47 $-1 #
face $-1 $127 $128 $14 $-1 $129 reversed single #
loop $-1 $-1 $130 $49 #
plane-surface $-1 43.09823908200323217 0 11.34710624049514394 0 1 0 0 0 1 forward_v I I I I #
coedge $-1 $131 $132 $133 $134 forward $50 $-1 #
coedge $-1 $135 $52 $136 $137 forward $29 $-1 #
coedge $-1 $52 $135 $138 $139 forward $29 $-1 #
coedge $-1 $140 $141 $52 $87 reversed $142 $-1 #
edge $-1 $143 -28.12677339473219718 $144 28.12677339473219718 $86 $145 forward 7 unknown #
face $-1 $146 $147 $15 $-1 $148 reversed single #
loop $-1 $-1 $149 $53 #
plane-surface $-1 1.5 -7.898662233743684702 11.34710624049514394 0 1 0 0 0 1 forward_v I I I I #
coedge $-1 $150 $151 $152 $153 forward $54 $-1 #
coedge $-1 $154 $56 $155 $156 forward $32 $-1 #
coedge $-1 $56 $154 $157 $158 forward $32 $-1 #
coedge $-1 $159 $160 $56 $95 reversed $161 $-1 #
edge $-1 $162 -3.949331116871842351 $163 3.949331116871842351 $94 $164 forward 7 unknown #
face $-1 $165 $166 $16 $-1 $167 reversed single #
loop $-1 $-1 $168 $57 #
plane-surface $-1 43.09823908200323217 46.79681920523513838 3.327155551079148843 0 1 0 0 0 1 forward_v I I I I #
coedge $-1 $169 $170 $171 $172 forward $58 $-1 #
coedge $-1 $173 $60 $174 $175 forward $35 $-1 #
coedge $-1 $60 $173 $176 $177 forward $35 $-1 #
coedge $-1 $178 $179 $60 $103 reversed $180 $-1 #
edge $-1 $181 -4.728363792114627984 $182 4.728363792114627984 $102 $183 forward 7 unknown #
face $-1 $184 $185 $17 $-1 $186 reversed single #
loop $-1 $-1 $187 $61 #
plane-surface $-1 -71.46011971583502032 18.54565159772958793 63.00389325868538748 0 1 0 -0.8290375806290775085 0 0.5591928915004963363 forward_v I I I I #
coedge $-1 $188 $189 $190 $191 forward $62 $-1 #
coedge $-1 $192 $64 $193 $194 forward $38 $-1 #
coedge $-1 $64 $192 $195 $196 forward $38 $-1 #
coedge $-1 $197 $198 $64 $111 reversed $199 $-1 #
edge $-1 $200 -5.433136989150046503 $201 5.433136989150046503 $110 $202 forward 7 unknown #
loop $-1 $203 $204 $65 #
cone-surface $-1 6.245450367352914256 20.71890639338960582 16.3312153273416456 0.8290375806290775085 0 -0.5591928915004963363 0.2795964457502481681 0 0.4145187903145387542 1 I I -0.7071067811865474617 0.7071067811865474617 0.5 forward I I I I #
coedge $-1 $114 $114 $69 $116 forward $66 $-1 #
coedge $-1 $115 $115 $204 $205 forward $68 $-1 #
edge $-1 $206 0 $206 6.283185307179586232 $114 $207 forward 7 unknown #
loop $-1 $208 $209 $70 #
cone-surface $-1 6.245450367352914256 23.97878858687963444 16.3312153273416456 0.8290375806290775085 0 -0.5591928915004963363 0.2795964457502481681 0 0.4145187903145387542 1 I I -0.7071067811865474617 0.7071067811865474617 0.5 forward I I I I #
coedge $-1 $119 $119 $74 $121 forward $71 $-1 #
coedge $-1 $120 $120 $209 $210 forward $73 $-1 #
edge $-1 $211 0 $211 6.283185307179586232 $119 $212 forward 7 unknown #
loop $-1 $213 $214 $75 #
cone-surface $-1 6.245450367352914256 27.23867078036966305 16.3312153273416456 0.8290375806290775085 0 -0.5591928915004963363 0.2795964457502481681 0 0.4145187903145387542 1 I I -0.7071067811865474617 0.7071067811865474617 0.5 forward I I I I #
coedge $-1 $124 $124 $79 $126 forward $76 $-1 #
coedge $-1 $125 $125 $214 $215 forward $78 $-1 #
edge $-1 $216 0 $216 6.283185307179586232 $124 $217 forward 7 unknown #
face $-1 $218 $219 $14 $-1 $220 reversed single #
loop $-1 $-1 $221 $80 #
plane-surface $-1 0 28.12677339473219718 11.34710624049514394 1 0 0 0 0 -1 forward_v I I I I #
coedge $-1 $222 $138 $223 $224 forward $81 $-1 #
coedge $-1 $225 $83 $222 $226 forward $50 $-1 #
coedge $-1 $83 $225 $227 $228 forward $50 $-1 #
coedge $-1 $141 $140 $83 $134 reversed $142 $-1 #
edge $-1 $229 -28.12677339473219718 $230 28.12677339473219718 $133 $231 forward 7 unknown #
coedge $-1 $85 $84 $232 $233 forward $29 $-1 #
coedge $-1 $234 $235 $84 $137 reversed $219 $-1 #
edge $-1 $144 -43.09823908200323217 $236 43.09823908200323217 $136 $237 forward 7 unknown #
coedge $-1 $130 $238 $85 $139 reversed $81 $-1 #
edge $-1 $239 -43.09823908200323217 $143 43.09823908200323217 $138 $240 forward 7 unknown #
coedge $-1 $133 $86 $238 $241 forward $142 $-1 #
coedge $-1 $86 $133 $234 $242 reversed $142 $-1 #
loop $-1 $-1 $140 $218 #
vertex $-1 $87 $243 #
vertex $-1 $87 $244 #
straight-curve $-1 86.19647816400646434 28.12677339473219718 22.69421248099028787 0 1 0 I I #
face $-1 $245 $246 $15 $-1 $247 reversed single #
loop $-1 $-1 $248 $88 #
plane-surface $-1 0 -3.949331116871842351 11.34710624049514394 1 0 0 0 0 -1 forward_v I I I I #
coedge $-1 $249 $157 $250 $251 forward $89 $-1 #
coedge $-1 $252 $91 $249 $253 forward $54 $-1 #
coedge $-1 $91 $252 $254 $255 forward $54 $-1 #
coedge $-1 $160 $159 $91 $153 reversed $161 $-1 #
edge $-1 $256 -3.949331116871842351 $257 3.949331116871842351 $152 $258 forward 7 unknown #
coedge $-1 $93 $92 $259 $260 forward $32 $-1 #
coedge $-1 $261 $262 $92 $156 reversed $246 $-1 #
edge $-1 $163 -1.5 $263 1.5 $155 $264 forward 7 unknown #
coedge $-1 $149 $265 $93 $158 reversed $89 $-1 #
edge $-1 $266 -1.5 $162 1.5 $157 $267 forward 7 unknown #
coedge $-1 $152 $94 $265 $268 forward $161 $-1 #
coedge $-1 $94 $152 $261 $269 reversed $161 $-1 #
loop $-1 $-1 $159 $245 #
vertex $-1 $95 $270 #
vertex $-1 $95 $271 #
straight-curve $-1 3 -3.949331116871842351 22.69421248099028787 0 1 0 I I #
face $-1 $272 $273 $16 $-1 $274 reversed single #
loop $-1 $-1 $275 $96 #
plane-surface $-1 0 51.52518299734976637 3.327155551079148843 1 0 0 0 0 -1 forward_v I I I I #
coedge $-1 $276 $176 $277 $278 forward $97 $-1 #
coedge $-1 $279 $99 $276 $280 forward $58 $-1 #
coedge $-1 $99 $279 $281 $282 forward $58 $-1 #
coedge $-1 $179 $178 $99 $172 reversed $180 $-1 #
edge $-1 $283 -4.728363792114627984 $284 4.728363792114627984 $171 $285 forward 7 unknown #
coedge $-1 $101 $100 $286 $287 forward $35 $-1 #
coedge $-1 $288 $289 $100 $175 reversed $273 $-1 #
edge $-1 $182 -43.09823908200323217 $290 43.09823908200323217 $174 $291 forward 7 unknown #
coedge $-1 $168 $292 $101 $177 reversed $97 $-1 #
edge $-1 $293 -43.09823908200323217 $181 43.09823908200323217 $176 $294 forward 7 unknown #
coedge $-1 $171 $102 $292 $295 forward $180 $-1 #
coedge $-1 $102 $171 $288 $296 reversed $180 $-1 #
loop $-1 $-1 $178 $272 #
vertex $-1 $103 $297 #
vertex $-1 $103 $298 #
straight-curve $-1 86.19647816400646434 51.52518299734976637 4.827155551079148843 0 1 0 I I #
face $-1 $299 $300 $17 $-1 $301 reversed single #
loop $-1 $-1 $302 $104 #
plane-surface $-1 -167.8610354392153567 23.97878858687963444 -79.91634617298467447 0.5591928915004963363 0 0.8290375806290775085 0.8290375806290775085 0 -0.5591928915004963363 forward_v I I I I #
coedge $-1 $303 $195 $304 $305 forward $105 $-1 #
coedge $-1 $306 $107 $303 $307 forward $62 $-1 #
coedge $-1 $107 $306 $308 $309 forward $62 $-1 #
coedge $-1 $198 $197 $107 $191 reversed $199 $-1 #
edge $-1 $310 -5.433136989150046503 $311 5.433136989150046503 $190 $312 forward 7 unknown #
coedge $-1 $109 $108 $313 $314 forward $38 $-1 #
coedge $-1 $315 $316 $108 $194 reversed $300 $-1 #
edge $-1 $201 -172.3929563280129855 $317 172.3929563280129571 $193 $318 forward 7 unknown #
coedge $-1 $187 $319 $109 $196 reversed $105 $-1 #
edge $-1 $320 -172.3929563280129571 $200 172.3929563280129855 $195 $321 forward 7 unknown #
coedge $-1 $190 $110 $319 $322 forward $199 $-1 #
coedge $-1 $110 $190 $315 $323 reversed $199 $-1 #
loop $-1 $-1 $197 $299 #
vertex $-1 $111 $324 #
vertex $-1 $111 $325 #
straight-curve $-1 -46.51932370828971841 23.97878858687963444 254.1245905520456461 0 1 0 I I #
loop $-1 $-1 $326 $65 #
coedge $-1 $204 $204 $115 $205 reversed $112 $-1 #
edge $-1 $327 0 $327 6.283185307179586232 $204 $328 forward 7 unknown #
vertex $-1 $116 $329 #
ellipse-curve $-1 2.661198090945922079 20.71890639338960582 18.74882393899276067 -0.8290375806290775085 0 0.5591928915004963363 0.5591928915004963363 0 0.8290375806290775085 1 I I #
loop $-1 $-1 $330 $70 #
coedge $-1 $209 $209 $120 $210 reversed $117 $-1 #
edge $-1 $331 0 $331 6.283185307179586232 $209 $332 forward 7 unknown #
vertex $-1 $121 $333 #
ellipse-curve $-1 2.661198090945922079 23.97878858687963444 18.74882393899276067 -0.8290375806290775085 0 0.5591928915004963363 0.5591928915004963363 0 0.8290375806290775085 1 I I #
loop $-1 $-1 $334 $75 #
coedge $-1 $214 $214 $125 $215 reversed $122 $-1 #
edge $-1 $335 0 $335 6.283185307179586232 $214 $336 forward 7 unknown #
vertex $-1 $126 $337 #
ellipse-curve $-1 2.661198090945922079 27.23867078036966305 18.74882393899276067 -0.8290375806290775085 0 0.5591928915004963363 0.5591928915004963363 0 0.8290375806290775085 1 I I #
face $-1 $-1 $142 $14 $-1 $338 reversed single #
loop $-1 $-1 $234 $127 #
plane-surface $-1 43.09823908200323217 56.25354678946439435 11.34710624049514394 0 -1 0 0 0 -1 forward_v I I I I #
coedge $-1 $339 $232 $235 $340 forward $128 $-1 #
coedge $-1 $238 $130 $131 $226 reversed $81 $-1 #
coedge $-1 $232 $339 $130 $224 reversed $128 $-1 #
edge $-1 $239 -11.34710624049514394 $341 11.34710624049514394 $223 $342 forward 7 unknown #
coedge $-1 $132 $131 $339 $343 forward $50 $-1 #
edge $-1 $230 -43.09823908200323217 $341 43.09823908200323217 $222 $344 forward 7 unknown #
coedge $-1 $235 $234 $132 $228 reversed $219 $-1 #
edge $-1 $345 -43.09823908200323217 $229 43.09823908200323217 $227 $346 forward 7 unknown #
vertex $-1 $134 $347 #
vertex $-1 $241 $348 #
straight-curve $-1 86.19647816400646434 28.12677339473219718 0 0 -1 0 I I #
coedge $-1 $221 $223 $135 $233 reversed $128 $-1 #
edge $-1 $236 -28.12677339473219718 $239 28.12677339473219718 $232 $349 forward 7 unknown #
coedge $-1 $227 $136 $141 $242 forward $219 $-1 #
coedge $-1 $136 $227 $221 $340 reversed $219 $-1 #
vertex $-1 $137 $350 #
straight-curve $-1 43.09823908200323217 56.25354678946439435 22.69421248099028787 -1 0 0 I I #
coedge $-1 $138 $222 $140 $241 reversed $81 $-1 #
vertex $-1 $233 $351 #
straight-curve $-1 43.09823908200323217 0 22.69421248099028787 1 0 0 I I #
edge $-1 $143 -11.34710624049514394 $230 11.34710624049514394 $140 $352 forward 7 unknown #
edge $-1 $144 -11.34710624049514394 $229 11.34710624049514394 $141 $353 forward 7 unknown #
point $-1 86.19647816400646434 0 22.69421248099028787 #
point $-1 86.19647816400646434 56.25354678946439435 22.69421248099028787 #
face $-1 $-1 $161 $15 $-1 $354 reversed single #
loop $-1 $-1 $261 $146 #
plane-surface $-1 1.5 0 11.34710624049514394 0 -1 0 0 0 -1 forward_v I I I I #
coedge $-1 $355 $259 $262 $356 forward $147 $-1 #
coedge $-1 $265 $149 $150 $253 reversed $89 $-1 #
coedge $-1 $259 $355 $149 $251 reversed $147 $-1 #
edge $-1 $266 -11.34710624049514394 $357 11.34710624049514394 $250 $358 forward 7 unknown #
coedge $-1 $151 $150 $355 $359 forward $54 $-1 #
edge $-1 $257 -1.5 $357 1.5 $249 $360 forward 7 unknown #
coedge $-1 $262 $261 $151 $255 reversed $246 $-1 #
edge $-1 $361 -1.5 $256 1.5 $254 $362 forward 7 unknown #
vertex $-1 $153 $363 #
vertex $-1 $268 $364 #
straight-curve $-1 3 -3.949331116871842351 0 0 -1 0 I I #
coedge $-1 $248 $250 $154 $260 reversed $147 $-1 #
edge $-1 $263 -3.949331116871842351 $266 3.949331116871842351 $259 $365 forward 7 unknown #
coedge $-1 $254 $155 $160 $269 forward $246 $-1 #
coedge $-1 $155 $254 $248 $356 reversed $246 $-1 #
vertex $-1 $156 $366 #
straight-curve $-1 1.5 0 22.69421248099028787 -1 0 0 I I #
coedge $-1 $157 $249 $159 $268 reversed $89 $-1 #
vertex $-1 $260 $367 #
straight-curve $-1 1.5 -7.898662233743684702 22.69421248099028787 1 0 0 I I #
edge $-1 $162 -11.34710624049514394 $257 11.34710624049514394 $159 $368 forward 7 unknown #
edge $-1 $163 -11.34710624049514394 $256 11.34710624049514394 $160 $369 forward 7 unknown #
point $-1 3 -7.898662233743684702 22.69421248099028787 #
point $-1 3 0 22.69421248099028787 #
face $-1 $-1 $180 $16 $-1 $370 reversed single #
loop $-1 $-1 $288 $165 #
plane-surface $-1 43.09823908200323217 56.25354678946439435 3.327155551079148843 0 -1 0 0 0 -1 forward_v I I I I #
coedge $-1 $371 $286 $289 $372 forward $166 $-1 #
coedge $-1 $292 $168 $169 $280 reversed $97 $-1 #
coedge $-1 $286 $371 $168 $278 reversed $166 $-1 #
edge $-1 $293 -1.5 $373 1.5 $277 $374 forward 7 unknown #
coedge $-1 $170 $169 $371 $375 forward $58 $-1 #
edge $-1 $284 -43.09823908200323217 $373 43.09823908200323217 $276 $376 forward 7 unknown #
coedge $-1 $289 $288 $170 $282 reversed $273 $-1 #
edge $-1 $377 -43.09823908200323217 $283 43.09823908200323217 $281 $378 forward 7 unknown #
vertex $-1 $172 $379 #
vertex $-1 $295 $380 #
straight-curve $-1 86.19647816400646434 51.52518299734976637 1.827155551079148843 0 -1 0 I I #
coedge $-1 $275 $277 $173 $287 reversed $166 $-1 #
edge $-1 $290 -4.728363792114627984 $293 4.728363792114627984 $286 $381 forward 7 unknown #
coedge $-1 $281 $174 $179 $296 forward $273 $-1 #
coedge $-1 $174 $281 $275 $372 reversed $273 $-1 #
vertex $-1 $175 $382 #
straight-curve $-1 43.09823908200323217 56.25354678946439435 4.827155551079148843 -1 0 0 I I #
coedge $-1 $176 $276 $178 $295 reversed $97 $-1 #
vertex $-1 $287 $383 #
straight-curve $-1 43.09823908200323217 46.79681920523513838 4.827155551079148843 1 0 0 I I #
edge $-1 $181 -1.5 $284 1.5 $178 $384 forward 7 unknown #
edge $-1 $182 -1.5 $283 1.5 $179 $385 forward 7 unknown #
point $-1 86.19647816400646434 46.79681920523513838 4.827155551079148843 #
point $-1 86.19647816400646434 56.25354678946439435 4.827155551079148843 #
face $-1 $-1 $199 $17 $-1 $386 reversed single #
loop $-1 $-1 $315 $184 #
plane-surface $-1 -71.46011971583502032 29.41192557602968094 63.00389325868538748 0 -1 0 0.8290375806290775085 0 -0.5591928915004963363 forward_v I I I I #
coedge $-1 $387 $313 $316 $388 forward $185 $-1 #
coedge $-1 $319 $187 $188 $307 reversed $105 $-1 #
coedge $-1 $313 $387 $187 $305 reversed $185 $-1 #
edge $-1 $320 -86.19647816400646434 $389 86.19647816400647855 $304 $390 forward 7 unknown #
coedge $-1 $189 $188 $387 $391 forward $62 $-1 #
edge $-1 $311 -172.3929563280129287 $389 172.3929563280129571 $303 $392 forward 7 unknown #
coedge $-1 $316 $315 $189 $309 reversed $300 $-1 #
edge $-1 $393 -172.3929563280129571 $310 172.3929563280129287 $308 $394 forward 7 unknown #
vertex $-1 $191 $395 #
vertex $-1 $322 $396 #
straight-curve $-1 96.40091572338033643 23.97878858687963444 157.7236748286652812 0 -1 0 I I #
coedge $-1 $302 $304 $192 $314 reversed $185 $-1 #
edge $-1 $317 -5.433136989150046503 $320 5.433136989150046503 $313 $397 forward 7 unknown #
coedge $-1 $308 $193 $198 $323 forward $300 $-1 #
coedge $-1 $193 $308 $302 $388 reversed $300 $-1 #
vertex $-1 $194 $398 #
straight-curve $-1 -142.9202394316700406 29.41192557602968094 111.2043511203755486 -0.5591928915004963363 0 -0.8290375806290775085 I I #
coedge $-1 $195 $303 $197 $322 reversed $105 $-1 #
vertex $-1 $314 $399 #
straight-curve $-1 -142.9202394316700406 18.54565159772958793 111.2043511203755486 0.5591928915004963363 0 0.8290375806290775085 I I #
edge $-1 $200 -86.19647816400647855 $311 86.19647816400646434 $197 $400 forward 7 unknown #
edge $-1 $201 -86.19647816400647855 $310 86.19647816400646434 $198 $401 forward 7 unknown #
point $-1 -46.51932370828971841 18.54565159772958793 254.1245905520456461 #
point $-1 -46.51932370828971841 29.41192557602968094 254.1245905520456461 #
coedge $-1 $326 $326 $-1 $402 reversed $203 $-1 #
vertex $-1 $205 $403 #
ellipse-curve $-1 5.830931577038375835 20.71890639338960582 16.61081177309189272 -0.8290375806290775085 0 0.5591928915004963363 0.5591928915004963363 0 0.8290375806290775085 1 I I #
point $-1 3.220390982446418526 20.71890639338960582 19.57786151962183752 #
coedge $-1 $330 $330 $-1 $404 reversed $208 $-1 #
vertex $-1 $210 $405 #
ellipse-curve $-1 5.830931577038375835 23.97878858687963444 16.61081177309189272 -0.8290375806290775085 0 0.5591928915004963363 0.5591928915004963363 0 0.8290375806290775085 1 I I #
point $-1 3.220390982446418526 23.97878858687963444 19.57786151962183752 #
coedge $-1 $334 $334 $-1 $406 reversed $213 $-1 #
vertex $-1 $215 $407 #
ellipse-curve $-1 5.830931577038375835 27.23867078036966305 16.61081177309189272 -0.8290375806290775085 0 0.5591928915004963363 0.5591928915004963363 0 0.8290375806290775085 1 I I #
point $-1 3.220390982446418526 27.23867078036966305 19.57786151962183752 #
plane-surface $-1 86.19647816400646434 28.12677339473219718 11.34710624049514394 -1 0 0 0 0 1 forward_v I I I I #
coedge $-1 $223 $221 $225 $343 reversed $128 $-1 #
edge $-1 $236 -11.34710624049514394 $345 11.34710624049514394 $235 $408 forward 7 unknown #
vertex $-1 $343 $409 #
straight-curve $-1 0 0 11.34710624049514394 0 0 -1 I I #
edge $-1 $341 -28.12677339473219718 $345 28.12677339473219718 $339 $410 forward 7 unknown #
straight-curve $-1 43.09823908200323217 0 0 -1 0 0 I I #
vertex $-1 $228 $411 #
straight-curve $-1 43.09823908200323217 56.25354678946439435 0 1 0 0 I I #
point $-1 86.19647816400646434 56.25354678946439435 0 #
point $-1 86.19647816400646434 0 0 #
straight-curve $-1 0 28.12677339473219718 22.69421248099028787 0 -1 0 I I #
point $-1 0 56.25354678946439435 22.69421248099028787 #
point $-1 0 0 22.69421248099028787 #
straight-curve $-1 86.19647816400646434 0 11.34710624049514394 0 0 -1 I I #
straight-curve $-1 86.19647816400646434 56.25354678946439435 11.34710624049514394 0 0 -1 I I #
plane-surface $-1 3 -3.949331116871842351 11.34710624049514394 -1 0 0 0 0 1 forward_v I I I I #
coedge $-1 $250 $248 $252 $359 reversed $147 $-1 #
edge $-1 $263 -11.34710624049514394 $361 11.34710624049514394 $262 $412 forward 7 unknown #
vertex $-1 $359 $413 #
straight-curve $-1 0 -7.898662233743684702 11.34710624049514394 0 0 -1 I I #
edge $-1 $357 -3.949331116871842351 $361 3.949331116871842351 $355 $414 forward 7 unknown #
straight-curve $-1 1.5 -7.898662233743684702 0 -1 0 0 I I #
vertex $-1 $255 $415 #
straight-curve $-1 1.5 0 0 1 0 0 I I #
point $-1 3 0 0 #
point $-1 3 -7.898662233743684702 0 #
straight-curve $-1 0 -3.949331116871842351 22.69421248099028787 0 -1 0 I I #
point $-1 0 0 22.69421248099028787 #
point $-1 0 -7.898662233743684702 22.69421248099028787 #
straight-curve $-1 3 -7.898662233743684702 11.34710624049514394 0 0 -1 I I #
straight-curve $-1 3 0 11.34710624049514394 0 0 -1 I I #
plane-surface $-1 86.19647816400646434 51.52518299734976637 3.327155551079148843 -1 0 0 0 0 1 forward_v I I I I #
coedge $-1 $277 $275 $279 $375 reversed $166 $-1 #
edge $-1 $290 -1.5 $377 1.5 $289 $416 forward 7 unknown #
vertex $-1 $375 $417 #
straight-curve $-1 0 46.79681920523513838 3.327155551079148843 0 0 -1 I I #
edge $-1 $373 -4.728363792114627984 $377 4.728363792114627984 $371 $418 forward 7 unknown #
straight-curve $-1 43.09823908200323217 46.79681920523513838 1.827155551079148843 -1 0 0 I I #
vertex $-1 $282 $419 #
straight-curve $-1 43.09823908200323217 56.25354678946439435 1.827155551079148843 1 0 0 I I #
point $-1 86.19647816400646434 56.25354678946439435 1.827155551079148843 #
point $-1 86.19647816400646434 46.79681920523513838 1.827155551079148843 #
straight-curve $-1 0 51.52518299734976637 4.827155551079148843 0 -1 0 I I #
point $-1 0 56.25354678946439435 4.827155551079148843 #
point $-1 0 46.79681920523513838 4.827155551079148843 #
straight-curve $-1 86.19647816400646434 46.79681920523513838 3.327155551079148843 0 0 -1 I I #
straight-curve $-1 86.19647816400646434 56.25354678946439435 3.327155551079148843 0 0 -1 I I #
plane-surface $-1 24.94079600754531612 23.97878858687963444 205.9241326903554636 -0.5591928915004963363 0 -0.8290375806290775085 -0.8290375806290775085 0 0.5591928915004963363 forward_v I I I I #
coedge $-1 $304 $302 $306 $391 reversed $185 $-1 #
edge $-1 $317 -86.19647816400646434 $393 86.19647816400647855 $316 $420 forward 7 unknown #
vertex $-1 $391 $421 #
straight-curve $-1 -167.8610354392153567 18.54565159772958793 -79.91634617298467447 0.8290375806290775085 0 -0.5591928915004963363 I I #
edge $-1 $389 -5.433136989150046503 $393 5.433136989150046503 $387 $422 forward 7 unknown #
straight-curve $-1 1.421085471520200372e-14 18.54565159772958793 14.80343539699521926 -0.5591928915004963363 0 -0.8290375806290775085 I I #
vertex $-1 $309 $423 #
straight-curve $-1 1.421085471520200372e-14 29.41192557602968094 14.80343539699521926 0.5591928915004963363 0 0.8290375806290775085 I I #
point $-1 96.40091572338033643 29.41192557602968094 157.7236748286652812 #
point $-1 96.40091572338033643 18.54565159772958793 157.7236748286652812 #
straight-curve $-1 -239.3211551550503771 23.97878858687963444 -31.71588831129451336 0 -1 0 I I #
point $-1 -239.3211551550503771 29.41192557602968094 -31.71588831129451336 #
point $-1 -239.3211551550503771 18.54565159772958793 -31.71588831129451336 #
straight-curve $-1 24.94079600754531612 18.54565159772958793 205.9241326903554636 0.8290375806290775085 0 -0.5591928915004963363 I I #
straight-curve $-1 24.94079600754531612 29.41192557602968094 205.9241326903554636 0.8290375806290775085 0 -0.5591928915004963363 I I #
edge $-1 $424 1 $424 0 $326 $-1 forward 7 unknown #
point $-1 6.390124468538871838 20.71890639338960582 17.43984935372097311 #
edge $-1 $425 1 $425 0 $330 $-1 forward 7 unknown #
point $-1 6.390124468538871838 23.97878858687963444 17.43984935372097311 #
edge $-1 $426 1 $426 0 $334 $-1 forward 7 unknown #
point $-1 6.390124468538871838 27.23867078036966305 17.43984935372097311 #
straight-curve $-1 0 56.25354678946439435 11.34710624049514394 0 0 -1 I I #
point $-1 0 0 0 #
straight-curve $-1 0 28.12677339473219718 0 0 1 0 I I #
point $-1 0 56.25354678946439435 0 #
straight-curve $-1 0 0 11.34710624049514394 0 0 -1 I I #
point $-1 0 -7.898662233743684702 0 #
straight-curve $-1 0 -3.949331116871842351 0 0 1 0 I I #
point $-1 0 0 0 #
straight-curve $-1 0 56.25354678946439435 3.327155551079148843 0 0 -1 I I #
point $-1 0 46.79681920523513838 1.827155551079148843 #
straight-curve $-1 0 51.52518299734976637 1.827155551079148843 0 1 0 I I #
point $-1 0 56.25354678946439435 1.827155551079148843 #
straight-curve $-1 -167.8610354392153567 29.41192557602968094 -79.91634617298467447 0.8290375806290775085 0 -0.5591928915004963363 I I #
point $-1 -96.40091572338032222 18.54565159772958793 -128.1168040346748569 #
straight-curve $-1 -96.40091572338032222 23.97878858687963444 -128.1168040346748569 0 1 0 I I #
point $-1 -96.40091572338032222 29.41192557602968094 -128.1168040346748569 #
vertex $-1 $402 $427 #
vertex $-1 $404 $428 #
vertex $-1 $406 $429 #
point $-1 6.659969157667452677 20.71890639338960582 16.05161888159139849 #
point $-1 6.659969157667452677 23.97878858687963444 16.05161888159139849 #
point $-1 6.659969157667452677 27.23867078036966305 16.05161888159139849 #
End-of-ACIS-data 