600 0 7 0           
108 GICL ACIS Healer - Source: /gicl/data5/repository/Drexel/CICIRELLO-THESISDATA/Part1001.smdg.deltas.sat - 6 0 18 ACIS 6.0.3 Solaris 24 Fri Apr 12 10:22:45 2002 
1 9.999999999999999547e-07 1.000000000000000036e-10 
body $-1 $7 $-1 $-1 #
body $-1 $8 $-1 $-1 #
body $-1 $9 $-1 $-1 #
body $-1 $10 $-1 $-1 #
body $-1 $11 $-1 $-1 #
body $-1 $12 $-1 $-1 #
body $-1 $13 $-1 $-1 #
lump $-1 $-1 $14 $0 #
lump $-1 $-1 $15 $1 #
lump $-1 $-1 $16 $2 #
lump $-1 $-1 $17 $3 #
lump $-1 $-1 $18 $4 #
lump $-1 $-1 $19 $5 #
lump $-1 $-1 $20 $6 #
shell $-1 $-1 $-1 $21 $-1 $7 #
shell $-1 $-1 $-1 $22 $-1 $8 #
shell $-1 $-1 $-1 $23 $-1 $9 #
shell $-1 $-1 $-1 $24 $-1 $10 #
shell $-1 $-1 $-1 $25 $-1 $11 #
shell $-1 $-1 $-1 $26 $-1 $12 #
shell $-1 $-1 $-1 $27 $-1 $13 #
face $-1 $28 $29 $14 $-1 $30 reversed single #
face $-1 $31 $32 $15 $-1 $33 forward single #
face $-1 $34 $35 $16 $-1 $36 forward single #
face $-1 $37 $38 $17 $-1 $39 reversed single #
face $-1 $40 $41 $18 $-1 $42 forward single #
face $-1 $43 $44 $19 $-1 $45 forward single #
face $-1 $46 $47 $20 $-1 $48 forward single #
face $-1 $49 $50 $14 $-1 $51 forward single #
loop $-1 $-1 $52 $21 #
plane-surface $-1 43.09823908200323217 0 11.34710624049514394 0 1 0 0 0 1 forward_v I I I I #
face $-1 $53 $54 $15 $-1 $55 forward single #
loop $-1 $-1 $56 $22 #
plane-surface $-1 43.09823908200323217 0 11.34710624049514394 0 1 0 0 0 1 forward_v I I I I #
face $-1 $57 $58 $16 $-1 $59 reversed single #
loop $-1 $-1 $60 $23 #
plane-surface $-1 43.09823908200323217 51.52518299734976637 4.827155551079147955 0 0 1 1 0 0 forward_v I I I I #
face $-1 $61 $62 $17 $-1 $63 reversed single #
loop $-1 $-1 $64 $24 #
plane-surface $-1 -71.46011971583502032 29.41192557602968094 63.00389325868538748 0 -1 0 0.8290375806290775085 0 -0.5591928915004963363 forward_v I I I I #
face $-1 $65 $66 $18 $-1 $67 forward single #
loop $-1 $68 $69 $25 #
cone-surface $-1 4.246064833992150511 20.71890639338960582 17.6798178560423267 0.8290375806290775085 0 -0.5591928915004963363 0.5591928915004963363 0 0.8290375806290775085 1 I I 0 1 1 forward I I I I #
face $-1 $70 $71 $19 $-1 $72 forward single #
loop $-1 $73 $74 $26 #
cone-surface $-1 4.246064833992150511 23.97878858687963444 17.6798178560423267 0.8290375806290775085 0 -0.5591928915004963363 0.5591928915004963363 0 0.8290375806290775085 1 I I 0 1 1 forward I I I I #
face $-1 $75 $76 $20 $-1 $77 forward single #
loop $-1 $78 $79 $27 #
cone-surface $-1 4.246064833992150511 27.23867078036966305 17.6798178560423267 0.8290375806290775085 0 -0.5591928915004963363 0.5591928915004963363 0 0.8290375806290775085 1 I I 0 1 1 forward I I I I #
face $-1 $80 $81 $14 $-1 $82 reversed single #
loop $-1 $-1 $83 $28 #
plane-surface $-1 43.09823908200323217 28.12677339473219718 22.69421248099028787 0 0 1 1 0 0 forward_v I I I I #
coedge $-1 $84 $85 $86 $87 reversed $29 $-1 #
face $-1 $88 $89 $15 $-1 $90 reversed single #
loop $-1 $-1 $91 $31 #
plane-surface $-1 43.09823908200323217 28.12677339473219718 22.69421248099028787 0 0 1 1 0 0 forward_v I I I I #
coedge $-1 $92 $93 $94 $95 forward $32 $-1 #
face $-1 $96 $97 $16 $-1 $98 reversed single #
loop $-1 $-1 $99 $34 #
plane-surface $-1 43.09823908200323217 51.52518299734976637 1.827155551079147955 0 0 1 1 0 0 forward_v I I I I #
coedge $-1 $100 $101 $102 $103 reversed $35 $-1 #
face $-1 $104 $105 $17 $-1 $106 reversed single #
loop $-1 $-1 $107 $37 #
plane-surface $-1 1.421085471520200372e-14 23.97878858687963444 14.80343539699521926 -0.8290375806290775085 0 0.5591928915004963363 0.5591928915004963363 0 0.8290375806290775085 forward_v I I I I #
coedge $-1 $108 $109 $110 $111 reversed $38 $-1 #
face $-1 $-1 $112 $18 $-1 $113 forward single #
loop $-1 $114 $115 $40 #
cone-surface $-1 6.245450367352916032 20.71890639338960582 16.3312153273416456 0.8290375806290775085 0 -0.5591928915004963363 0.2795964457502481681 0 0.4145187903145387542 1 I I -0.7071067811865474617 0.7071067811865474617 0.5 forward I I I I #
loop $-1 $-1 $116 $25 #
coedge $-1 $69 $69 $117 $118 reversed $41 $-1 #
face $-1 $-1 $119 $19 $-1 $120 forward single #
loop $-1 $121 $122 $43 #
cone-surface $-1 6.245450367352916032 23.97878858687963444 16.3312153273416456 0.8290375806290775085 0 -0.5591928915004963363 0.2795964457502481681 0 0.4145187903145387542 1 I I -0.7071067811865474617 0.7071067811865474617 0.5 forward I I I I #
loop $-1 $-1 $123 $26 #
coedge $-1 $74 $74 $124 $125 reversed $44 $-1 #
face $-1 $-1 $126 $20 $-1 $127 forward single #
loop $-1 $128 $129 $46 #
cone-surface $-1 6.245450367352916032 27.23867078036966305 16.3312153273416456 0.8290375806290775085 0 -0.5591928915004963363 0.2795964457502481681 0 0.4145187903145387542 1 I I -0.7071067811865474617 0.7071067811865474617 0.5 forward I I I I #
loop $-1 $-1 $130 $27 #
coedge $-1 $79 $79 $131 $132 reversed $47 $-1 #
face $-1 $133 $134 $14 $-1 $135 reversed single #
loop $-1 $-1 $136 $49 #
plane-surface $-1 43.09823908200323217 28.12677339473219718 0 0 0 1 1 0 0 forward_v I I I I #
coedge $-1 $137 $138 $139 $140 forward $50 $-1 #
coedge $-1 $141 $52 $142 $143 reversed $29 $-1 #
coedge $-1 $52 $141 $144 $145 forward $29 $-1 #
coedge $-1 $146 $136 $52 $87 forward $81 $-1 #
edge $-1 $147 -43.09823908200323217 $148 43.09823908200323217 $52 $149 forward 7 unknown #
face $-1 $150 $151 $15 $-1 $152 reversed single #
loop $-1 $-1 $153 $53 #
plane-surface $-1 0 28.12677339473219718 11.34710624049514394 1 0 0 0 0 -1 forward_v I I I I #
coedge $-1 $154 $155 $93 $156 forward $54 $-1 #
coedge $-1 $157 $56 $158 $159 reversed $32 $-1 #
coedge $-1 $56 $157 $91 $156 reversed $32 $-1 #
coedge $-1 $160 $161 $56 $95 reversed $162 $-1 #
edge $-1 $163 -11.34710624049514394 $164 11.34710624049514394 $94 $165 forward 7 unknown #
face $-1 $166 $167 $16 $-1 $168 reversed single #
loop $-1 $-1 $169 $57 #
plane-surface $-1 43.09823908200323217 46.79681920523513838 3.327155551079147955 0 1 0 0 0 1 forward_v I I I I #
coedge $-1 $170 $171 $172 $173 reversed $58 $-1 #
coedge $-1 $174 $60 $175 $176 reversed $35 $-1 #
coedge $-1 $60 $174 $177 $178 forward $35 $-1 #
coedge $-1 $179 $180 $60 $103 forward $181 $-1 #
edge $-1 $182 -16.42756859342341613 $183 -6.970841009194160165 $102 $184 forward 7 unknown #
face $-1 $185 $186 $17 $-1 $187 reversed single #
loop $-1 $-1 $188 $61 #
plane-surface $-1 -71.46011971583502032 18.54565159772958793 63.00389325868538748 0 1 0 -0.8290375806290775085 0 0.5591928915004963363 forward_v I I I I #
coedge $-1 $189 $190 $191 $192 reversed $62 $-1 #
coedge $-1 $109 $64 $193 $194 reversed $38 $-1 #
coedge $-1 $64 $108 $189 $195 reversed $38 $-1 #
coedge $-1 $191 $196 $64 $111 forward $186 $-1 #
edge $-1 $197 14.48128726859997784 $198 22.37206435259506776 $110 $199 forward 7 unknown #
loop $-1 $-1 $117 $65 #
plane-surface $-1 1.421085471520200372e-14 23.97878858687963444 14.80343539699521926 -0.8290375806290775085 0 0.5591928915004963363 0.5591928915004963363 0 0.8290375806290775085 forward_v I I I I #
loop $-1 $-1 $200 $40 #
coedge $-1 $115 $115 $116 $201 reversed $66 $-1 #
coedge $-1 $116 $116 $115 $201 forward $68 $-1 #
coedge $-1 $117 $117 $69 $118 forward $112 $-1 #
edge $-1 $202 0 $202 6.283185307179586232 $117 $203 forward 7 unknown #
loop $-1 $-1 $124 $70 #
plane-surface $-1 1.421085471520200372e-14 23.97878858687963444 14.80343539699521926 -0.8290375806290775085 0 0.5591928915004963363 0.5591928915004963363 0 0.8290375806290775085 forward_v I I I I #
loop $-1 $-1 $204 $43 #
coedge $-1 $122 $122 $123 $205 reversed $71 $-1 #
coedge $-1 $123 $123 $122 $205 forward $73 $-1 #
coedge $-1 $124 $124 $74 $125 forward $119 $-1 #
edge $-1 $206 0 $206 6.283185307179586232 $124 $207 forward 7 unknown #
loop $-1 $-1 $131 $75 #
plane-surface $-1 1.421085471520200372e-14 23.97878858687963444 14.80343539699521926 -0.8290375806290775085 0 0.5591928915004963363 0.5591928915004963363 0 0.8290375806290775085 forward_v I I I I #
loop $-1 $-1 $208 $46 #
coedge $-1 $129 $129 $130 $209 reversed $76 $-1 #
coedge $-1 $130 $130 $129 $209 forward $78 $-1 #
coedge $-1 $131 $131 $79 $132 forward $126 $-1 #
edge $-1 $210 0 $210 6.283185307179586232 $131 $211 forward 7 unknown #
face $-1 $212 $213 $14 $-1 $214 reversed single #
loop $-1 $-1 $215 $80 #
plane-surface $-1 0 28.12677339473219718 11.34710624049514394 1 0 0 0 0 -1 forward_v I I I I #
coedge $-1 $86 $216 $217 $218 forward $81 $-1 #
coedge $-1 $219 $83 $220 $221 forward $50 $-1 #
coedge $-1 $83 $219 $141 $222 forward $50 $-1 #
coedge $-1 $142 $223 $83 $140 reversed $224 $-1 #
edge $-1 $225 -28.12677339473219718 $226 28.12677339473219718 $139 $227 forward 7 unknown #
coedge $-1 $85 $84 $138 $222 reversed $29 $-1 #
coedge $-1 $217 $139 $84 $143 forward $224 $-1 #
edge $-1 $225 -11.34710624049514394 $147 11.34710624049514394 $142 $228 forward 7 unknown #
coedge $-1 $229 $230 $85 $145 reversed $134 $-1 #
edge $-1 $231 -11.34710624049514394 $148 11.34710624049514394 $144 $232 forward 7 unknown #
coedge $-1 $216 $86 $230 $233 forward $81 $-1 #
vertex $-1 $143 $234 #
vertex $-1 $233 $235 #
straight-curve $-1 43.09823908200323217 0 0 -1 0 0 I I #
face $-1 $236 $162 $15 $-1 $237 reversed single #
loop $-1 $-1 $238 $88 #
plane-surface $-1 1.5 -7.898662233743678485 11.34710624049514394 0 1 0 0 0 1 forward_v I I I I #
coedge $-1 $239 $240 $157 $241 forward $89 $-1 #
coedge $-1 $242 $91 $240 $243 forward $54 $-1 #
coedge $-1 $91 $242 $160 $244 forward $54 $-1 #
edge $-1 $163 40.09823908200323217 $245 43.09823908200323217 $91 $246 forward 7 unknown #
coedge $-1 $93 $92 $153 $241 reversed $32 $-1 #
coedge $-1 $247 $248 $92 $159 forward $249 $-1 #
edge $-1 $250 -43.09823908200323217 $164 -40.09823908200323217 $158 $251 forward 7 unknown #
coedge $-1 $252 $94 $155 $244 reversed $162 $-1 #
coedge $-1 $94 $252 $247 $253 reversed $162 $-1 #
loop $-1 $-1 $252 $150 #
vertex $-1 $156 $254 #
vertex $-1 $253 $255 #
straight-curve $-1 3 0 11.34710624049514394 0 0 -1 I I #
face $-1 $256 $181 $16 $-1 $257 reversed single #
loop $-1 $-1 $258 $96 #
plane-surface $-1 0 28.12677339473219718 11.34710624049514394 1 0 0 0 0 -1 forward_v I I I I #
coedge $-1 $259 $177 $260 $261 reversed $97 $-1 #
coedge $-1 $262 $99 $259 $263 forward $58 $-1 #
coedge $-1 $99 $262 $264 $265 reversed $58 $-1 #
coedge $-1 $180 $179 $99 $173 forward $181 $-1 #
edge $-1 $266 6.970841009194160165 $267 16.42756859342341613 $172 $268 forward 7 unknown #
coedge $-1 $101 $100 $269 $270 reversed $35 $-1 #
coedge $-1 $271 $272 $100 $176 forward $273 $-1 #
edge $-1 $274 -43.09823908200323217 $182 43.09823908200323217 $175 $275 forward 7 unknown #
coedge $-1 $169 $276 $101 $178 reversed $97 $-1 #
edge $-1 $277 -43.09823908200323217 $183 43.09823908200323217 $177 $278 forward 7 unknown #
coedge $-1 $172 $102 $276 $279 forward $181 $-1 #
coedge $-1 $102 $172 $271 $280 reversed $181 $-1 #
loop $-1 $-1 $102 $166 #
vertex $-1 $280 $281 #
vertex $-1 $103 $282 #
straight-curve $-1 86.19647816400646434 39.82597819604097822 4.827155551079147955 0 -1 0 I I #
face $-1 $-1 $283 $17 $-1 $284 forward single #
loop $-1 $-1 $110 $104 #
plane-surface $-1 0 28.12677339473219718 11.34710624049514394 1 0 0 0 0 -1 forward_v I I I I #
coedge $-1 $285 $286 $287 $288 reversed $105 $-1 #
coedge $-1 $289 $107 $109 $195 forward $62 $-1 #
coedge $-1 $107 $289 $285 $290 forward $62 $-1 #
coedge $-1 $287 $110 $107 $192 forward $186 $-1 #
edge $-1 $198 -3.35914458522376691 $291 7.507129393076326096 $191 $292 forward 7 unknown #
coedge $-1 $293 $294 $108 $194 forward $283 $-1 #
edge $-1 $295 -19.50333649880775511 $197 -14.18094031691589407 $193 $296 forward 7 unknown #
edge $-1 $198 -2.5618607856530852e-14 $295 9.517996853661943035 $109 $297 forward 7 unknown #
coedge $-1 $110 $287 $293 $298 reversed $186 $-1 #
vertex $-1 $298 $299 #
vertex $-1 $111 $300 #
straight-curve $-1 0 29.41192557602968094 37.17549974959026571 0 0 -1 I I #
coedge $-1 $200 $200 $-1 $301 reversed $114 $-1 #
edge $-1 $302 0 $302 6.283185307179586232 $115 $303 forward 7 unknown #
vertex $-1 $118 $304 #
ellipse-curve $-1 2.661198090945937622 20.71890639338960582 18.74882393899275002 -0.8290375806290775085 0 0.5591928915004963363 0.5591928915004963363 0 0.8290375806290775085 1 I I #
coedge $-1 $204 $204 $-1 $305 reversed $121 $-1 #
edge $-1 $306 0 $306 6.283185307179586232 $122 $307 forward 7 unknown #
vertex $-1 $125 $308 #
ellipse-curve $-1 2.661198090945937622 23.97878858687963444 18.74882393899275002 -0.8290375806290775085 0 0.5591928915004963363 0.5591928915004963363 0 0.8290375806290775085 1 I I #
coedge $-1 $208 $208 $-1 $309 reversed $128 $-1 #
edge $-1 $310 0 $310 6.283185307179586232 $129 $311 forward 7 unknown #
vertex $-1 $132 $312 #
ellipse-curve $-1 2.661198090945937622 27.23867078036966305 18.74882393899275002 -0.8290375806290775085 0 0.5591928915004963363 0.5591928915004963363 0 0.8290375806290775085 1 I I #
face $-1 $-1 $224 $14 $-1 $313 reversed single #
loop $-1 $-1 $314 $133 #
plane-surface $-1 43.09823908200323217 56.25354678946439435 11.34710624049514394 0 -1 0 0 0 -1 forward_v I I I I #
coedge $-1 $230 $229 $315 $316 forward $134 $-1 #
coedge $-1 $136 $146 $317 $318 forward $81 $-1 #
coedge $-1 $223 $142 $136 $218 reversed $224 $-1 #
edge $-1 $319 -28.12677339473219718 $147 28.12677339473219718 $217 $320 forward 7 unknown #
coedge $-1 $138 $137 $229 $321 forward $50 $-1 #
coedge $-1 $314 $315 $137 $221 reversed $213 $-1 #
edge $-1 $226 -43.09823908200323217 $322 43.09823908200323217 $220 $323 forward 7 unknown #
edge $-1 $231 -43.09823908200323217 $225 43.09823908200323217 $141 $324 forward 7 unknown #
coedge $-1 $139 $217 $314 $325 reversed $224 $-1 #
loop $-1 $-1 $142 $212 #
vertex $-1 $140 $326 #
vertex $-1 $140 $327 #
straight-curve $-1 86.19647816400646434 28.12677339473219718 22.69421248099028787 0 1 0 I I #
straight-curve $-1 86.19647816400646434 0 11.34710624049514394 0 0 -1 I I #
coedge $-1 $215 $144 $219 $321 reversed $134 $-1 #
coedge $-1 $144 $215 $146 $233 reversed $134 $-1 #
vertex $-1 $321 $328 #
straight-curve $-1 0 0 11.34710624049514394 0 0 -1 I I #
edge $-1 $148 -28.12677339473219718 $329 28.12677339473219718 $230 $330 forward 7 unknown #
point $-1 86.19647816400646434 0 0 #
point $-1 0 0 0 #
face $-1 $-1 $249 $15 $-1 $331 reversed single #
plane-surface $-1 3 -3.949331116871839242 11.34710624049514394 -1 0 0 0 0 1 forward_v I I I I #
coedge $-1 $332 $333 $334 $335 forward $151 $-1 #
coedge $-1 $334 $153 $248 $336 reversed $89 $-1 #
coedge $-1 $153 $334 $154 $243 reversed $89 $-1 #
edge $-1 $245 -11.34710624049514394 $250 11.34710624049514394 $153 $337 forward 7 unknown #
coedge $-1 $155 $154 $333 $338 forward $54 $-1 #
edge $-1 $245 28.12677339473219718 $339 36.02543562847587566 $240 $340 forward 7 unknown #
edge $-1 $341 -3.949331116871839242 $163 3.949331116871842795 $160 $342 forward 7 unknown #
vertex $-1 $243 $343 #
straight-curve $-1 43.09823908200323217 0 22.69421248099028787 -1 0 0 I I #
coedge $-1 $344 $158 $161 $253 forward $249 $-1 #
coedge $-1 $158 $344 $239 $336 forward $249 $-1 #
loop $-1 $-1 $158 $236 #
vertex $-1 $241 $345 #
straight-curve $-1 43.09823908200323217 0 0 1 0 0 I I #
coedge $-1 $161 $160 $346 $347 forward $162 $-1 #
edge $-1 $164 -3.949331116871842795 $348 3.949331116871839242 $161 $349 forward 7 unknown #
point $-1 3 3.552713678800500929e-15 22.69421248099028787 #
point $-1 3 3.552713678800500929e-15 0 #
face $-1 $-1 $273 $16 $-1 $350 reversed single #
plane-surface $-1 86.19647816400646434 28.12677339473219718 11.34710624049514394 -1 0 0 0 0 1 forward_v I I I I #
coedge $-1 $260 $351 $262 $352 forward $167 $-1 #
coedge $-1 $276 $169 $170 $263 reversed $97 $-1 #
coedge $-1 $269 $258 $169 $261 forward $167 $-1 #
edge $-1 $353 -5.509975344707997991 $277 -2.509975344707997991 $260 $354 forward 7 unknown #
coedge $-1 $171 $170 $258 $352 reversed $58 $-1 #
edge $-1 $266 -43.09823908200323217 $353 43.09823908200323217 $259 $355 forward 7 unknown #
coedge $-1 $272 $271 $171 $265 forward $273 $-1 #
edge $-1 $267 -43.09823908200323217 $356 43.09823908200323217 $264 $357 forward 7 unknown #
vertex $-1 $173 $358 #
vertex $-1 $173 $359 #
straight-curve $-1 86.19647816400646434 39.82597819604097822 1.827155551079147955 0 1 0 I I #
coedge $-1 $351 $260 $174 $270 forward $167 $-1 #
edge $-1 $277 6.970841009194160165 $274 16.42756859342341613 $269 $360 forward 7 unknown #
coedge $-1 $264 $175 $180 $280 forward $273 $-1 #
coedge $-1 $175 $264 $351 $361 reversed $273 $-1 #
loop $-1 $-1 $264 $256 #
vertex $-1 $361 $362 #
straight-curve $-1 43.09823908200323217 56.25354678946439435 4.827155551079147955 1 0 0 I I #
coedge $-1 $177 $259 $179 $279 reversed $97 $-1 #
vertex $-1 $270 $363 #
straight-curve $-1 43.09823908200323217 46.79681920523513838 4.827155551079147955 1 0 0 I I #
edge $-1 $183 2.509975344707997991 $266 5.509975344707997991 $179 $364 forward 7 unknown #
edge $-1 $182 6.519950689415995981 $267 9.519950689415995981 $180 $365 forward 7 unknown #
point $-1 86.19647816400646434 56.25354678946439435 4.827155551079147955 #
point $-1 86.19647816400646434 46.79681920523513838 4.827155551079147955 #
loop $-1 $-1 $193 $185 #
plane-surface $-1 43.09823908200323217 28.12677339473219718 22.69421248099028787 0 0 1 1 0 0 forward_v I I I I #
coedge $-1 $286 $188 $190 $290 reversed $105 $-1 #
coedge $-1 $188 $285 $366 $367 reversed $105 $-1 #
coedge $-1 $196 $191 $188 $288 forward $186 $-1 #
edge $-1 $291 -22.37206435259506776 $368 -14.48128726859997784 $287 $369 forward 7 unknown #
coedge $-1 $190 $189 $294 $370 reversed $62 $-1 #
edge $-1 $371 -9.517996853661943035 $291 2.5618607856530852e-14 $285 $372 forward 7 unknown #
vertex $-1 $192 $373 #
straight-curve $-1 0 26.05278099080591403 14.80343539699519617 0 -1 0 I I #
coedge $-1 $366 $193 $196 $298 forward $283 $-1 #
coedge $-1 $193 $366 $289 $370 forward $283 $-1 #
vertex $-1 $194 $374 #
straight-curve $-1 -14.18094031691589407 29.41192557602968094 22.69421248099028787 -1 0 0 I I #
straight-curve $-1 1.421085471520200372e-14 29.41192557602968094 14.80343539699521926 0.5591928915004963363 0 0.8290375806290775085 I I #
edge $-1 $197 -1.285152181297483764 $368 9.581121797002609242 $196 $375 forward 7 unknown #
point $-1 0 29.41192557602968094 22.69421248099028787 #
point $-1 0 29.41192557602968094 14.80343539699519795 #
edge $-1 $376 1 $376 0 $200 $-1 forward 7 unknown #
vertex $-1 $201 $377 #
ellipse-curve $-1 5.830931577038377611 20.71890639338960582 16.61081177309189272 -0.8290375806290775085 0 0.5591928915004963363 0.5591928915004963363 0 0.8290375806290775085 1 I I #
point $-1 3.220390982446417638 20.71890639338960582 19.57786151962183752 #
edge $-1 $378 1 $378 0 $204 $-1 forward 7 unknown #
vertex $-1 $205 $379 #
ellipse-curve $-1 5.830931577038377611 23.97878858687963444 16.61081177309189272 -0.8290375806290775085 0 0.5591928915004963363 0.5591928915004963363 0 0.8290375806290775085 1 I I #
point $-1 3.220390982446417638 23.97878858687963444 19.57786151962183752 #
edge $-1 $380 1 $380 0 $208 $-1 forward 7 unknown #
vertex $-1 $209 $381 #
ellipse-curve $-1 5.830931577038377611 27.23867078036966305 16.61081177309189272 -0.8290375806290775085 0 0.5591928915004963363 0.5591928915004963363 0 0.8290375806290775085 1 I I #
point $-1 3.220390982446417638 27.23867078036966305 19.57786151962183752 #
plane-surface $-1 86.19647816400646434 28.12677339473219718 11.34710624049514394 -1 0 0 0 0 1 forward_v I I I I #
coedge $-1 $317 $220 $223 $325 forward $213 $-1 #
coedge $-1 $220 $317 $215 $316 reversed $213 $-1 #
edge $-1 $322 -11.34710624049514394 $329 11.34710624049514394 $315 $382 forward 7 unknown #
coedge $-1 $315 $314 $216 $318 reversed $213 $-1 #
edge $-1 $329 -43.09823908200323217 $319 43.09823908200323217 $317 $383 forward 7 unknown #
vertex $-1 $218 $384 #
straight-curve $-1 86.19647816400646434 28.12677339473219718 0 0 -1 0 I I #
edge $-1 $322 -28.12677339473219718 $231 28.12677339473219718 $229 $385 forward 7 unknown #
vertex $-1 $221 $386 #
straight-curve $-1 43.09823908200323217 56.25354678946439435 22.69421248099028787 -1 0 0 I I #
straight-curve $-1 43.09823908200323217 0 22.69421248099028787 1 0 0 I I #
edge $-1 $226 -11.34710624049514394 $319 11.34710624049514394 $223 $387 forward 7 unknown #
point $-1 86.19647816400646434 0 22.69421248099028787 #
point $-1 86.19647816400646434 56.25354678946439435 22.69421248099028787 #
point $-1 0 0 22.69421248099028787 #
vertex $-1 $318 $388 #
straight-curve $-1 0 28.12677339473219718 0 0 1 0 I I #
plane-surface $-1 43.09823908200323217 28.12677339473219718 0 0 0 1 1 0 0 forward_v I I I I #
coedge $-1 $346 $238 $344 $389 reversed $151 $-1 #
coedge $-1 $238 $346 $242 $338 reversed $151 $-1 #
coedge $-1 $240 $239 $238 $335 reversed $89 $-1 #
edge $-1 $339 -11.34710624049514394 $390 11.34710624049514394 $334 $391 forward 7 unknown #
edge $-1 $390 -36.02543562847587566 $250 -28.12677339473219718 $239 $392 forward 7 unknown #
straight-curve $-1 0 0 11.34710624049514394 0 0 -1 I I #
edge $-1 $339 -1.5 $341 1.5 $333 $393 forward 7 unknown #
vertex $-1 $243 $394 #
straight-curve $-1 0 28.12677339473219718 22.69421248099028787 0 -1 0 I I #
vertex $-1 $244 $395 #
straight-curve $-1 3 -3.949331116871839242 22.69421248099028787 0 1 0 I I #
point $-1 0 0 22.69421248099028787 #
coedge $-1 $248 $247 $332 $389 forward $249 $-1 #
point $-1 0 0 0 #
coedge $-1 $333 $332 $252 $347 reversed $151 $-1 #
edge $-1 $341 -11.34710624049514394 $348 11.34710624049514394 $252 $396 forward 7 unknown #
vertex $-1 $347 $397 #
straight-curve $-1 3 -3.949331116871839242 0 0 -1 0 I I #
plane-surface $-1 43.09823908200323217 56.25354678946439435 11.34710624049514394 0 -1 0 0 0 -1 forward_v I I I I #
coedge $-1 $258 $269 $272 $361 forward $167 $-1 #
edge $-1 $356 -16.42756859342341613 $353 -6.970841009194160165 $258 $398 forward 7 unknown #
vertex $-1 $352 $399 #
straight-curve $-1 0 46.79681920523513838 7.337130895787145946 0 0 1 I I #
straight-curve $-1 43.09823908200323217 46.79681920523513838 1.827155551079147955 -1 0 0 I I #
vertex $-1 $265 $400 #
straight-curve $-1 43.09823908200323217 56.25354678946439435 1.827155551079147955 -1 0 0 I I #
point $-1 86.19647816400646434 46.79681920523513838 1.827155551079147955 #
point $-1 86.19647816400646434 56.25354678946439435 1.827155551079147955 #
straight-curve $-1 0 39.82597819604097822 4.827155551079147955 0 1 0 I I #
edge $-1 $274 6.519950689415995981 $356 9.519950689415995981 $272 $401 forward 7 unknown #
point $-1 0 56.25354678946439435 4.827155551079147955 #
point $-1 0 46.79681920523513838 4.827155551079147955 #
straight-curve $-1 86.19647816400646434 46.79681920523513838 7.337130895787145946 0 0 -1 I I #
straight-curve $-1 86.19647816400646434 56.25354678946439435 11.34710624049514394 0 0 -1 I I #
coedge $-1 $294 $293 $286 $367 forward $283 $-1 #
edge $-1 $368 14.18094031691589407 $371 19.50333649880775511 $366 $402 forward 7 unknown #
vertex $-1 $367 $403 #
straight-curve $-1 0 18.54565159772958793 37.17549974959026571 0 0 1 I I #
edge $-1 $371 -7.507129393076326096 $295 3.35914458522376691 $294 $404 forward 7 unknown #
vertex $-1 $370 $405 #
straight-curve $-1 1.421085471520200372e-14 18.54565159772958793 14.80343539699521926 -0.5591928915004963363 0 -0.8290375806290775085 I I #
point $-1 0 18.54565159772958793 14.80343539699519795 #
point $-1 5.322396181891861033 29.41192557602968094 22.69421248099028787 #
straight-curve $-1 0 28.12677339473219718 22.69421248099028787 0 -1 0 I I #
vertex $-1 $301 $406 #
point $-1 6.390124468538871838 20.71890639338960582 17.43984935372097311 #
vertex $-1 $305 $407 #
point $-1 6.390124468538871838 23.97878858687963444 17.43984935372097311 #
vertex $-1 $309 $408 #
point $-1 6.390124468538871838 27.23867078036966305 17.43984935372097311 #
straight-curve $-1 0 56.25354678946439435 11.34710624049514394 0 0 -1 I I #
straight-curve $-1 43.09823908200323217 56.25354678946439435 0 1 0 0 I I #
point $-1 86.19647816400646434 56.25354678946439435 0 #
straight-curve $-1 0 28.12677339473219718 22.69421248099028787 0 -1 0 I I #
point $-1 0 56.25354678946439435 22.69421248099028787 #
straight-curve $-1 86.19647816400646434 56.25354678946439435 11.34710624049514394 0 0 -1 I I #
point $-1 0 56.25354678946439435 0 #
edge $-1 $348 -1.5 $390 1.5 $332 $409 forward 7 unknown #
vertex $-1 $336 $410 #
straight-curve $-1 0 -7.898662233743678485 11.34710624049514394 0 0 -1 I I #
straight-curve $-1 0 28.12677339473219718 0 0 1 0 I I #
straight-curve $-1 1.5 -7.898662233743678485 22.69421248099028787 1 0 0 I I #
point $-1 0 -7.898662233743678485 22.69421248099028787 #
point $-1 3 -7.898662233743678485 22.69421248099028787 #
straight-curve $-1 3 -7.898662233743678485 11.34710624049514394 0 0 -1 I I #
point $-1 3 -7.898662233743678485 0 #
straight-curve $-1 0 39.82597819604097822 1.827155551079147955 0 -1 0 I I #
point $-1 0 46.79681920523513838 1.827155551079147955 #
point $-1 0 56.25354678946439435 1.827155551079147955 #
straight-curve $-1 0 56.25354678946439435 11.34710624049514394 0 0 -1 I I #
straight-curve $-1 -14.18094031691589407 18.54565159772958793 22.69421248099028787 1 0 0 I I #
point $-1 0 18.54565159772958793 22.69421248099028787 #
straight-curve $-1 5.322396181891861033 26.05278099080591403 22.69421248099028787 0 1 0 I I #
point $-1 5.322396181891861033 18.54565159772958793 22.69421248099028787 #
point $-1 6.659969157667454454 20.71890639338960582 16.05161888159139849 #
point $-1 6.659969157667454454 23.97878858687963444 16.05161888159139849 #
point $-1 6.659969157667454454 27.23867078036966305 16.05161888159139849 #
straight-curve $-1 1.5 -7.898662233743678485 0 -1 0 0 I I #
point $-1 0 -7.898662233743678485 0 #
End-of-ACIS-data 