500 0 8 0           
7 Unknown 11 ACIS 5.0 NT 24 Fri Mar 26 03:15:12 1999 
-1 9.9999999999999995e-007 1e-010 
body $-1 $8 $-1 $9 #
body $-1 $10 $-1 $11 #
body $-1 $12 $-1 $13 #
body $-1 $14 $-1 $15 #
body $-1 $16 $-1 $17 #
body $-1 $18 $-1 $19 #
body $-1 $20 $-1 $21 #
body $-1 $22 $-1 $23 #
lump $-1 $-1 $24 $0 #
transform $-1 1 0 0 0 1 0 0 0 1 79.573961607715077 35.774648293457844 14.873331590836724 1 rotate no_reflect no_shear #
lump $-1 $-1 $25 $1 #
transform $-1 1 0 0 0 1 0 0 0 1 79.573961607715077 35.774648293457844 14.873331590836724 1 rotate no_reflect no_shear #
lump $-1 $-1 $26 $2 #
transform $-1 1 0 0 0 1 0 0 0 1 79.573961607715077 35.774648293457844 14.873331590836724 1 rotate no_reflect no_shear #
lump $-1 $-1 $27 $3 #
transform $-1 1 0 0 0 1 0 0 0 1 79.573961607715077 35.774648293457844 14.873331590836724 1 rotate no_reflect no_shear #
lump $-1 $-1 $28 $4 #
transform $-1 1 0 0 0 1 0 0 0 1 79.573961607715077 35.774648293457844 14.873331590836724 1 rotate no_reflect no_shear #
lump $-1 $-1 $29 $5 #
transform $-1 1 0 0 0 1 0 0 0 1 79.573961607715077 35.774648293457844 14.873331590836724 1 rotate no_reflect no_shear #
lump $-1 $-1 $30 $6 #
transform $-1 1 0 0 0 1 0 0 0 1 79.573961607715077 35.774648293457844 14.873331590836724 1 rotate no_reflect no_shear #
lump $-1 $-1 $31 $7 #
transform $-1 1 0 0 0 1 0 0 0 1 79.573961607715077 35.774648293457844 14.873331590836724 1 rotate no_reflect no_shear #
shell $-1 $-1 $-1 $32 $-1 $8 #
shell $-1 $-1 $-1 $33 $-1 $10 #
shell $-1 $-1 $-1 $34 $-1 $12 #
shell $-1 $-1 $-1 $35 $-1 $14 #
shell $-1 $-1 $-1 $36 $-1 $16 #
shell $-1 $-1 $-1 $37 $-1 $18 #
shell $-1 $-1 $-1 $38 $-1 $20 #
shell $-1 $-1 $-1 $39 $-1 $22 #
face $-1 $40 $41 $24 $-1 $42 forward single #
face $-1 $43 $44 $25 $-1 $45 forward single #
face $-1 $46 $47 $26 $-1 $48 reversed single #
face $-1 $49 $50 $27 $-1 $51 forward single #
face $-1 $52 $53 $28 $-1 $54 forward single #
face $-1 $55 $56 $29 $-1 $57 reversed single #
face $-1 $58 $59 $30 $-1 $60 forward single #
face $-1 $61 $62 $31 $-1 $63 forward single #
face $-1 $64 $65 $24 $-1 $66 reversed single #
loop $-1 $-1 $67 $32 #
plane-surface $-1 0 0 14.873331590836724 0 0 1 1 0 0 forward_v I I I I #
face $-1 $68 $69 $25 $-1 $70 reversed single #
loop $-1 $-1 $71 $33 #
plane-surface $-1 0 -26.686383157449782 -1.3707797691524517 0 0 1 1 0 0 forward_v I I I I #
face $-1 $72 $73 $26 $-1 $74 reversed single #
loop $-1 $-1 $75 $34 #
plane-surface $-1 48.250391998323124 -17.598118021441728 227.06835871983125 0 1 0 0.6018150307709319 0 0.79863550430605224 forward_v I I I I #
face $-1 $76 $77 $27 $-1 $78 forward single #
loop $-1 $79 $80 $35 #
cone-surface $-1 71.799182725044588 -14.889847111437025 8.6212809353251743 -0.6018150307709319 0 -0.79863550430605224 0.79863550430605224 0 -0.6018150307709319 1 I I 0 1 1 forward I I I I #
face $-1 $81 $82 $28 $-1 $83 forward single #
loop $-1 $84 $85 $36 #
cone-surface $-1 71.799182725044588 -10.827440746429975 8.6212809353251743 -0.6018150307709319 0 -0.79863550430605224 0.79863550430605224 0 -0.6018150307709319 1 I I 0 1 1 forward I I I I #
face $-1 $86 $87 $29 $-1 $88 reversed single #
loop $-1 $-1 $89 $37 #
plane-surface $-1 -208.32733741090738 -17.598118021441728 93.816205336980843 0 1 0 -0.80901700255871778 0 0.5877852410284794 forward_v I I I I #
face $-1 $90 $91 $30 $-1 $92 forward single #
loop $-1 $93 $94 $38 #
cone-surface $-1 -72.31731303711716 -13.07368094142668 6.1540204279183959 0.80901700255871778 0 -0.5877852410284794 0.8816778615427191 0 1.2135255038380768 1 I I 0 1 1.5 forward I I I I #
face $-1 $95 $96 $31 $-1 $97 forward single #
loop $-1 $98 $99 $39 #
cone-surface $-1 -72.31731303711716 -6.2870253214041156 6.1540204279183959 0.80901700255871778 0 -0.5877852410284794 0.8816778615427191 0 1.2135255038380768 1 I I 0 1 1.5 forward I I I I #
face $-1 $100 $101 $24 $-1 $102 reversed single #
loop $-1 $-1 $103 $40 #
plane-surface $-1 0 0 -14.873331590836724 0 0 1 1 0 0 forward_v I I I I #
coedge $-1 $104 $105 $106 $107 forward $41 $-1 #
face $-1 $108 $109 $25 $-1 $110 reversed single #
loop $-1 $-1 $111 $43 #
plane-surface $-1 0 -26.686383157449782 -4.6521089744553068 0 0 1 1 0 0 forward_v I I I I #
coedge $-1 $112 $113 $114 $115 reversed $44 $-1 #
face $-1 $116 $117 $26 $-1 $118 reversed single #
loop $-1 $-1 $119 $46 #
plane-surface $-1 -47.527220308700862 -12.858643928933503 99.967176803415342 0.6018150307709319 0 0.79863550430605224 0.79863550430605224 0 -0.6018150307709319 forward_v I I I I #
coedge $-1 $120 $121 $122 $123 reversed $47 $-1 #
face $-1 $-1 $124 $27 $-1 $125 forward single #
loop $-1 $126 $127 $49 #
cone-surface $-1 70.812415085324304 -14.889847111437025 7.3117960748832935 -0.6018150307709319 0 -0.79863550430605224 0.39931775215302612 0 -0.30090751538546595 1 I I -0.70710678118654746 0.70710678118654746 0.5 forward I I I I #
loop $-1 $-1 $128 $35 #
coedge $-1 $80 $80 $129 $130 reversed $50 $-1 #
face $-1 $-1 $131 $28 $-1 $132 forward single #
loop $-1 $133 $134 $52 #
cone-surface $-1 70.812415085324304 -10.827440746429975 7.3117960748832935 -0.6018150307709319 0 -0.79863550430605224 0.39931775215302612 0 -0.30090751538546595 1 I I -0.70710678118654746 0.70710678118654746 0.5 forward I I I I #
loop $-1 $-1 $135 $36 #
coedge $-1 $85 $85 $136 $137 reversed $53 $-1 #
face $-1 $138 $139 $29 $-1 $140 reversed single #
loop $-1 $-1 $141 $55 #
plane-surface $-1 -79.573961607715091 -9.6803531314154014 0.27140493061729387 -0.80901700255871778 0 0.5877852410284794 0.5877852410284794 0 0.80901700255871778 forward_v I I I I #
coedge $-1 $142 $143 $144 $145 reversed $56 $-1 #
face $-1 $-1 $146 $30 $-1 $147 forward single #
loop $-1 $148 $149 $58 #
cone-surface $-1 -69.758361914022458 -13.07368094142668 4.2948336643384231 0.80901700255871778 0 -0.5877852410284794 0.44083893077135955 0 0.60676275191903839 1 I I -0.70710678118654757 0.70710678118654757 0.75 forward I I I I #
loop $-1 $-1 $150 $38 #
coedge $-1 $94 $94 $151 $152 reversed $59 $-1 #
face $-1 $-1 $153 $31 $-1 $154 forward single #
loop $-1 $155 $156 $61 #
cone-surface $-1 -69.758361914022458 -6.2870253214041156 4.2948336643384231 0.80901700255871778 0 -0.5877852410284794 0.44083893077135955 0 0.60676275191903839 1 I I -0.70710678118654757 0.70710678118654757 0.75 forward I I I I #
loop $-1 $-1 $157 $39 #
coedge $-1 $99 $99 $158 $159 reversed $62 $-1 #
face $-1 $160 $161 $24 $-1 $162 reversed single #
loop $-1 $-1 $163 $64 #
plane-surface $-1 0 -35.774648293457844 0 0 1 0 0 0 1 forward_v I I I I #
coedge $-1 $164 $165 $166 $167 forward $65 $-1 #
coedge $-1 $168 $67 $169 $170 forward $41 $-1 #
coedge $-1 $67 $168 $171 $172 forward $41 $-1 #
coedge $-1 $173 $174 $67 $107 reversed $175 $-1 #
edge $-1 $176 -35.774648293457844 $177 35.774648293457844 $106 $178 forward 7 unknown #
face $-1 $179 $180 $25 $-1 $181 reversed single #
loop $-1 $-1 $182 $68 #
plane-surface $-1 0 -17.598118021441721 -3.0114443718038792 0 -1 0 0 0 -1 forward_v I I I I #
coedge $-1 $183 $184 $185 $186 reversed $69 $-1 #
coedge $-1 $187 $71 $188 $189 forward $44 $-1 #
coedge $-1 $71 $187 $190 $191 reversed $44 $-1 #
coedge $-1 $192 $193 $71 $115 forward $194 $-1 #
edge $-1 $195 4.2549264427168296 $196 22.431456714732953 $114 $197 forward 7 unknown #
face $-1 $198 $199 $26 $-1 $200 forward single #
loop $-1 $-1 $201 $72 #
plane-surface $-1 48.250391998323124 -8.1191698364252805 227.06835871983125 0 -1 0 -0.6018150307709319 0 -0.79863550430605224 forward_v I I I I #
coedge $-1 $202 $203 $204 $205 reversed $73 $-1 #
coedge $-1 $121 $75 $206 $207 reversed $47 $-1 #
coedge $-1 $75 $120 $202 $208 reversed $47 $-1 #
coedge $-1 $204 $209 $75 $123 forward $210 $-1 #
edge $-1 $211 98.660847769078899 $212 109.34461486352428 $122 $213 forward 7 unknown #
loop $-1 $-1 $129 $76 #
plane-surface $-1 -47.527220308700862 -12.858643928933503 99.967176803415342 0.6018150307709319 0 0.79863550430605224 0.79863550430605224 0 -0.6018150307709319 forward_v I I I I #
loop $-1 $-1 $214 $49 #
coedge $-1 $127 $127 $128 $215 reversed $77 $-1 #
coedge $-1 $128 $128 $127 $215 forward $79 $-1 #
coedge $-1 $129 $129 $80 $130 forward $124 $-1 #
edge $-1 $216 0 $216 6.2831853071796004 $129 $217 forward 7 unknown #
loop $-1 $-1 $136 $81 #
plane-surface $-1 -47.527220308700862 -12.858643928933503 99.967176803415342 0.6018150307709319 0 0.79863550430605224 0.79863550430605224 0 -0.6018150307709319 forward_v I I I I #
loop $-1 $-1 $218 $52 #
coedge $-1 $134 $134 $135 $219 reversed $82 $-1 #
coedge $-1 $135 $135 $134 $219 forward $84 $-1 #
coedge $-1 $136 $136 $85 $137 forward $131 $-1 #
edge $-1 $220 0 $220 6.2831853071796004 $136 $221 forward 7 unknown #
face $-1 $222 $223 $29 $-1 $224 reversed single #
loop $-1 $-1 $225 $86 #
plane-surface $-1 -208.32733741090738 -1.7625882413890768 93.816205336980843 0 -1 0 0.80901700255871778 0 -0.5877852410284794 forward_v I I I I #
coedge $-1 $226 $227 $228 $229 reversed $87 $-1 #
coedge $-1 $143 $89 $230 $231 reversed $56 $-1 #
coedge $-1 $89 $142 $226 $232 reversed $56 $-1 #
coedge $-1 $228 $233 $89 $145 forward $234 $-1 #
edge $-1 $235 24.589707097738611 $236 35.198627496583143 $144 $237 forward 7 unknown #
loop $-1 $-1 $151 $90 #
plane-surface $-1 -79.573961607715091 -9.6803531314154014 0.27140493061729387 -0.80901700255871778 0 0.5877852410284794 0.5877852410284794 0 0.80901700255871778 forward_v I I I I #
loop $-1 $-1 $238 $58 #
coedge $-1 $149 $149 $150 $239 reversed $91 $-1 #
coedge $-1 $150 $150 $149 $239 forward $93 $-1 #
coedge $-1 $151 $151 $94 $152 forward $146 $-1 #
edge $-1 $240 0 $240 6.2831853071796004 $151 $241 forward 7 unknown #
loop $-1 $-1 $158 $95 #
plane-surface $-1 -79.573961607715091 -9.6803531314154014 0.27140493061729387 -0.80901700255871778 0 0.5877852410284794 0.5877852410284794 0 0.80901700255871778 forward_v I I I I #
loop $-1 $-1 $242 $61 #
coedge $-1 $156 $156 $157 $243 reversed $96 $-1 #
coedge $-1 $157 $157 $156 $243 forward $98 $-1 #
coedge $-1 $158 $158 $99 $159 forward $153 $-1 #
edge $-1 $244 0 $244 6.2831853071796004 $158 $245 forward 7 unknown #
face $-1 $246 $247 $24 $-1 $248 reversed single #
loop $-1 $-1 $249 $100 #
plane-surface $-1 -79.573961607715077 0 0 1 0 0 0 0 -1 forward_v I I I I #
coedge $-1 $250 $171 $251 $252 forward $101 $-1 #
coedge $-1 $253 $103 $250 $254 forward $65 $-1 #
coedge $-1 $103 $253 $255 $256 forward $65 $-1 #
coedge $-1 $174 $173 $103 $167 reversed $175 $-1 #
edge $-1 $257 -35.774648293457844 $258 35.774648293457844 $166 $259 forward 7 unknown #
coedge $-1 $105 $104 $260 $261 forward $41 $-1 #
coedge $-1 $262 $263 $104 $170 reversed $247 $-1 #
edge $-1 $177 -79.573961607715077 $264 79.573961607715077 $169 $265 forward 7 unknown #
coedge $-1 $163 $266 $105 $172 reversed $101 $-1 #
edge $-1 $267 -79.573961607715077 $176 79.573961607715077 $171 $268 forward 7 unknown #
coedge $-1 $166 $106 $266 $269 forward $175 $-1 #
coedge $-1 $106 $166 $262 $270 reversed $175 $-1 #
loop $-1 $-1 $173 $246 #
vertex $-1 $107 $271 #
vertex $-1 $107 $272 #
straight-curve $-1 79.573961607715077 0 14.873331590836724 0 1 0 I I #
face $-1 $273 $274 $25 $-1 $275 reversed single #
loop $-1 $-1 $276 $108 #
plane-surface $-1 -79.573961607715077 0 0 1 0 0 0 0 -1 forward_v I I I I #
coedge $-1 $277 $188 $193 $278 reversed $109 $-1 #
coedge $-1 $279 $111 $280 $281 reversed $69 $-1 #
coedge $-1 $111 $279 $277 $282 forward $69 $-1 #
coedge $-1 $193 $192 $111 $186 forward $194 $-1 #
edge $-1 $283 -22.431456714732953 $284 -4.2549264427168296 $185 $285 forward 7 unknown #
coedge $-1 $113 $112 $276 $286 reversed $44 $-1 #
coedge $-1 $182 $287 $112 $189 reversed $109 $-1 #
edge $-1 $195 -79.573961607715077 $288 79.573961607715077 $188 $289 forward 7 unknown #
coedge $-1 $290 $291 $113 $191 forward $274 $-1 #
edge $-1 $196 -79.573961607715077 $292 79.573961607715077 $190 $293 forward 7 unknown #
coedge $-1 $185 $114 $291 $294 forward $194 $-1 #
coedge $-1 $114 $185 $182 $278 forward $194 $-1 #
loop $-1 $-1 $114 $273 #
vertex $-1 $115 $295 #
vertex $-1 $294 $296 #
straight-curve $-1 79.573961607715077 -13.343191578724891 -1.3707797691524517 0 -1 0 I I #
face $-1 $-1 $210 $26 $-1 $297 reversed single #
loop $-1 $-1 $298 $116 #
plane-surface $-1 0 0 14.873331590836724 0 0 1 1 0 0 forward_v I I I I #
coedge $-1 $299 $300 $301 $302 reversed $117 $-1 #
coedge $-1 $303 $119 $121 $208 forward $73 $-1 #
coedge $-1 $119 $303 $299 $304 forward $73 $-1 #
coedge $-1 $301 $122 $119 $205 forward $210 $-1 #
edge $-1 $212 -11.168796056974976 $305 -1.6898478719585288 $204 $306 forward 7 unknown #
coedge $-1 $307 $308 $120 $207 forward $199 $-1 #
edge $-1 $309 41.270928091882226 $211 55.448765608553515 $206 $310 forward 7 unknown #
edge $-1 $212 -159.14792321543018 $309 -141.39534717764101 $121 $311 forward 7 unknown #
coedge $-1 $122 $301 $307 $312 reversed $210 $-1 #
loop $-1 $-1 $301 $198 #
vertex $-1 $312 $313 #
vertex $-1 $123 $314 #
straight-curve $-1 79.573961607715077 -17.598118021441728 113.53417935991563 0 0 -1 I I #
coedge $-1 $214 $214 $-1 $315 reversed $126 $-1 #
edge $-1 $316 0 $316 6.2831853071796004 $127 $317 forward 7 unknown #
vertex $-1 $130 $318 #
ellipse-curve $-1 72.485042849379425 -14.889847111437025 9.5314480436140485 0.6018150307709319 0 0.79863550430605224 0.79863550430605224 0 -0.6018150307709319 1 I I #
coedge $-1 $218 $218 $-1 $319 reversed $133 $-1 #
edge $-1 $320 0 $320 6.2831853071796004 $134 $321 forward 7 unknown #
vertex $-1 $137 $322 #
ellipse-curve $-1 72.485042849379425 -10.827440746429975 9.5314480436140485 0.6018150307709319 0 0.79863550430605224 0.79863550430605224 0 -0.6018150307709319 1 I I #
face $-1 $-1 $234 $29 $-1 $323 forward single #
loop $-1 $-1 $324 $138 #
plane-surface $-1 -79.573961607715077 0 0 1 0 0 0 0 -1 forward_v I I I I #
coedge $-1 $325 $326 $327 $328 reversed $139 $-1 #
coedge $-1 $329 $141 $143 $232 forward $87 $-1 #
coedge $-1 $141 $329 $325 $330 forward $87 $-1 #
coedge $-1 $327 $144 $141 $229 forward $234 $-1 #
edge $-1 $236 -12.757941455734027 $331 3.0775883243186239 $228 $332 forward 7 unknown #
coedge $-1 $333 $334 $142 $231 forward $223 $-1 #
edge $-1 $335 -46.636697737873106 $235 -32.034771077653701 $230 $336 forward 7 unknown #
edge $-1 $236 -18.048973771919744 $335 -2.4161062406544664e-014 $143 $337 forward 7 unknown #
coedge $-1 $144 $327 $333 $338 forward $234 $-1 #
loop $-1 $-1 $327 $222 #
vertex $-1 $231 $339 #
vertex $-1 $145 $340 #
straight-curve $-1 -104.16366870545369 -17.598118021441728 14.87333159083672 1 0 0 I I #
coedge $-1 $238 $238 $-1 $341 reversed $148 $-1 #
edge $-1 $342 0 $342 6.2831853071796004 $149 $343 forward 7 unknown #
vertex $-1 $152 $344 #
ellipse-curve $-1 -74.269501408292811 -13.07368094142668 7.5723682607270089 -0.80901700255871778 0 0.5877852410284794 0.8816778615427191 0 1.2135255038380768 1 I I #
coedge $-1 $242 $242 $-1 $345 reversed $155 $-1 #
edge $-1 $346 0 $346 6.2831853071796004 $156 $347 forward 7 unknown #
vertex $-1 $159 $348 #
ellipse-curve $-1 -74.269501408292811 -6.2870253214041156 7.5723682607270089 -0.80901700255871778 0 0.5877852410284794 0.8816778615427191 0 1.2135255038380768 1 I I #
face $-1 $-1 $175 $24 $-1 $349 reversed single #
loop $-1 $-1 $262 $160 #
plane-surface $-1 0 35.774648293457844 0 0 -1 0 0 0 -1 forward_v I I I I #
coedge $-1 $350 $260 $263 $351 forward $161 $-1 #
coedge $-1 $266 $163 $164 $254 reversed $101 $-1 #
coedge $-1 $260 $350 $163 $252 reversed $161 $-1 #
edge $-1 $267 -14.873331590836724 $352 14.873331590836724 $251 $353 forward 7 unknown #
coedge $-1 $165 $164 $350 $354 forward $65 $-1 #
edge $-1 $258 -79.573961607715077 $352 79.573961607715077 $250 $355 forward 7 unknown #
coedge $-1 $263 $262 $165 $256 reversed $247 $-1 #
edge $-1 $356 -79.573961607715077 $257 79.573961607715077 $255 $357 forward 7 unknown #
vertex $-1 $167 $358 #
vertex $-1 $269 $359 #
straight-curve $-1 79.573961607715077 0 -14.873331590836724 0 -1 0 I I #
coedge $-1 $249 $251 $168 $261 reversed $161 $-1 #
edge $-1 $264 -35.774648293457844 $267 35.774648293457844 $260 $360 forward 7 unknown #
coedge $-1 $255 $169 $174 $270 forward $247 $-1 #
coedge $-1 $169 $255 $249 $351 reversed $247 $-1 #
vertex $-1 $170 $361 #
straight-curve $-1 0 35.774648293457844 14.873331590836724 -1 0 0 I I #
coedge $-1 $171 $250 $173 $269 reversed $101 $-1 #
vertex $-1 $261 $362 #
straight-curve $-1 0 -35.774648293457844 14.873331590836724 1 0 0 I I #
edge $-1 $176 -14.873331590836724 $258 14.873331590836724 $173 $363 forward 7 unknown #
edge $-1 $177 -14.873331590836724 $257 14.873331590836724 $174 $364 forward 7 unknown #
point $-1 79.573961607715077 -35.774648293457844 14.873331590836724 #
point $-1 79.573961607715077 35.774648293457844 14.873331590836724 #
face $-1 $-1 $194 $25 $-1 $365 reversed single #
loop $-1 $-1 $190 $179 #
plane-surface $-1 0 -35.774648293457844 0 0 1 0 0 0 1 forward_v I I I I #
coedge $-1 $366 $367 $187 $286 forward $180 $-1 #
coedge $-1 $287 $182 $184 $282 reversed $109 $-1 #
edge $-1 $284 -3.1463867885533672 $195 0.13494241674948793 $193 $368 forward 7 unknown #
coedge $-1 $184 $183 $369 $370 reversed $69 $-1 #
coedge $-1 $291 $290 $183 $281 forward $274 $-1 #
edge $-1 $371 -79.573961607715077 $283 79.573961607715077 $280 $372 forward 7 unknown #
edge $-1 $373 -79.573961607715077 $284 79.573961607715077 $277 $374 forward 7 unknown #
vertex $-1 $281 $375 #
vertex $-1 $186 $376 #
straight-curve $-1 79.573961607715077 -13.343191578724891 -4.6521089744553068 0 1 0 I I #
edge $-1 $292 -22.431456714732953 $288 -4.2549264427168296 $276 $377 forward 7 unknown #
coedge $-1 $188 $277 $366 $378 reversed $109 $-1 #
vertex $-1 $286 $379 #
straight-curve $-1 0 -17.598118021441721 -1.3707797691524517 -1 0 0 I I #
coedge $-1 $280 $190 $367 $380 forward $274 $-1 #
coedge $-1 $190 $280 $192 $294 reversed $274 $-1 #
vertex $-1 $380 $381 #
straight-curve $-1 0 -35.774648293457844 -1.3707797691524517 -1 0 0 I I #
edge $-1 $196 1.3707797691524517 $283 4.6521089744553068 $192 $382 forward 7 unknown #
point $-1 79.573961607715077 -17.598118021441721 -1.3707797691524517 #
point $-1 79.573961607715077 -35.774648293457844 -1.3707797691524517 #
plane-surface $-1 79.573961607715077 0 0 -1 0 0 0 0 1 forward_v I I I I #
coedge $-1 $308 $307 $300 $383 forward $199 $-1 #
coedge $-1 $300 $201 $203 $304 reversed $117 $-1 #
coedge $-1 $201 $299 $298 $383 reversed $117 $-1 #
coedge $-1 $209 $204 $201 $302 forward $210 $-1 #
edge $-1 $305 -109.34461486352428 $384 -98.660847769078899 $301 $385 forward 7 unknown #
coedge $-1 $203 $202 $308 $386 reversed $73 $-1 #
edge $-1 $387 141.39534717764101 $305 159.14792321543018 $299 $388 forward 7 unknown #
vertex $-1 $205 $389 #
straight-curve $-1 79.573961607715077 -6.4293219644667516 4.1895644963913412 0 1 0 I I #
coedge $-1 $298 $206 $209 $312 forward $199 $-1 #
coedge $-1 $206 $298 $303 $386 forward $199 $-1 #
vertex $-1 $207 $390 #
straight-curve $-1 24.125195999161562 -17.598118021441728 14.873331590836727 1 0 0 I I #
straight-curve $-1 -47.527220308700862 -17.598118021441728 99.967176803415342 -0.79863550430605224 0 0.6018150307709319 I I #
edge $-1 $211 -17.598118021441728 $384 -8.1191698364252805 $209 $391 forward 7 unknown #
point $-1 79.573961607715077 -17.598118021441728 14.873331590836724 #
point $-1 79.573961607715077 -17.598118021441728 4.1895644963913412 #
edge $-1 $392 1 $392 0 $214 $-1 forward 7 unknown #
vertex $-1 $215 $393 #
ellipse-curve $-1 71.113322600709765 -14.889847111437025 7.7111138270363195 0.6018150307709319 0 0.79863550430605224 0.79863550430605224 0 -0.6018150307709319 1 I I #
point $-1 73.28367835368546 -14.889847111437025 8.9296330128430981 #
edge $-1 $394 1 $394 0 $218 $-1 forward 7 unknown #
vertex $-1 $219 $395 #
ellipse-curve $-1 71.113322600709765 -10.827440746429975 7.7111138270363195 0.6018150307709319 0 0.79863550430605224 0.79863550430605224 0 -0.6018150307709319 1 I I #
point $-1 73.28367835368546 -10.827440746429975 8.9296330128430981 #
plane-surface $-1 0 0 14.873331590836724 0 0 1 1 0 0 forward_v I I I I #
coedge $-1 $334 $333 $326 $396 forward $223 $-1 #
coedge $-1 $326 $225 $227 $330 reversed $139 $-1 #
coedge $-1 $225 $325 $324 $396 reversed $139 $-1 #
coedge $-1 $233 $228 $225 $328 forward $234 $-1 #
edge $-1 $331 -35.198627496583143 $397 -24.589707097738611 $327 $398 forward 7 unknown #
coedge $-1 $227 $226 $334 $399 reversed $87 $-1 #
edge $-1 $400 2.4161062406544664e-014 $331 18.048973771919744 $325 $401 forward 7 unknown #
vertex $-1 $229 $402 #
straight-curve $-1 -68.965041208870545 -4.8401765657077007 14.873331590836726 0 1 0 I I #
coedge $-1 $324 $230 $233 $338 reversed $223 $-1 #
coedge $-1 $230 $324 $329 $399 forward $223 $-1 #
vertex $-1 $231 $403 #
straight-curve $-1 -79.573961607715077 -17.598118021441728 46.908102668490422 0 0 1 I I #
straight-curve $-1 -79.573961607715091 -17.598118021441728 0.27140493061729387 -0.5877852410284794 0 -0.80901700255871778 I I #
edge $-1 $397 1.7625882413890768 $235 17.598118021441728 $333 $404 forward 7 unknown #
point $-1 -79.573961607715077 -17.598118021441728 14.873331590836724 #
point $-1 -68.965041208870545 -17.598118021441728 14.873331590836722 #
edge $-1 $405 1 $405 0 $238 $-1 forward 7 unknown #
vertex $-1 $239 $406 #
ellipse-curve $-1 -70.365124665941494 -13.07368094142668 4.7356725951097829 -0.80901700255871778 0 0.5877852410284794 0.8816778615427191 0 1.2135255038380768 1 I I #
point $-1 -73.387823546750084 -13.07368094142668 8.7858937645650848 #
edge $-1 $407 1 $407 0 $242 $-1 forward 7 unknown #
vertex $-1 $243 $408 #
ellipse-curve $-1 -70.365124665941494 -6.2870253214041156 4.7356725951097829 -0.80901700255871778 0 0.5877852410284794 0.8816778615427191 0 1.2135255038380768 1 I I #
point $-1 -73.387823546750084 -6.2870253214041156 8.7858937645650848 #
plane-surface $-1 79.573961607715077 0 0 -1 0 0 0 0 1 forward_v I I I I #
coedge $-1 $251 $249 $253 $354 reversed $161 $-1 #
edge $-1 $264 -14.873331590836724 $356 14.873331590836724 $263 $409 forward 7 unknown #
vertex $-1 $354 $410 #
straight-curve $-1 -79.573961607715077 -35.774648293457844 0 0 0 -1 I I #
edge $-1 $352 -35.774648293457844 $356 35.774648293457844 $350 $411 forward 7 unknown #
straight-curve $-1 0 -35.774648293457844 -14.873331590836724 -1 0 0 I I #
vertex $-1 $256 $412 #
straight-curve $-1 0 35.774648293457844 -14.873331590836724 1 0 0 I I #
point $-1 79.573961607715077 35.774648293457844 -14.873331590836724 #
point $-1 79.573961607715077 -35.774648293457844 -14.873331590836724 #
straight-curve $-1 -79.573961607715077 0 14.873331590836724 0 -1 0 I I #
point $-1 -79.573961607715077 35.774648293457844 14.873331590836724 #
point $-1 -79.573961607715077 -35.774648293457844 14.873331590836724 #
straight-curve $-1 79.573961607715077 -35.774648293457844 0 0 0 -1 I I #
straight-curve $-1 79.573961607715077 35.774648293457844 0 0 0 -1 I I #
plane-surface $-1 79.573961607715077 0 0 -1 0 0 0 0 1 forward_v I I I I #
coedge $-1 $369 $276 $287 $378 forward $180 $-1 #
coedge $-1 $276 $369 $290 $380 reversed $180 $-1 #
straight-curve $-1 79.573961607715077 -17.598118021441721 -1.5057221859019396 0 0 1 I I #
coedge $-1 $367 $366 $279 $370 forward $180 $-1 #
edge $-1 $373 4.2549264427168296 $371 22.431456714732953 $369 $413 forward 7 unknown #
vertex $-1 $281 $414 #
straight-curve $-1 0 -35.774648293457844 -4.6521089744553068 1 0 0 I I #
vertex $-1 $370 $415 #
straight-curve $-1 0 -17.598118021441721 -4.6521089744553068 1 0 0 I I #
point $-1 79.573961607715077 -35.774648293457844 -4.6521089744553068 #
point $-1 79.573961607715077 -17.598118021441721 -4.6521089744553068 #
straight-curve $-1 -79.573961607715077 -13.343191578724891 -1.3707797691524517 0 1 0 I I #
edge $-1 $288 -0.13494241674948793 $373 3.1463867885533672 $366 $416 forward 7 unknown #
point $-1 -79.573961607715077 -17.598118021441721 -1.3707797691524517 #
edge $-1 $292 1.3707797691524517 $371 4.6521089744553068 $367 $417 forward 7 unknown #
point $-1 -79.573961607715077 -35.774648293457844 -1.3707797691524517 #
straight-curve $-1 79.573961607715077 -35.774648293457844 0 0 0 -1 I I #
edge $-1 $384 -55.448765608553515 $387 -41.270928091882226 $298 $418 forward 7 unknown #
vertex $-1 $383 $419 #
straight-curve $-1 79.573961607715077 -8.1191698364252805 113.53417935991563 0 0 1 I I #
edge $-1 $387 1.6898478719585288 $309 11.168796056974976 $308 $420 forward 7 unknown #
vertex $-1 $386 $421 #
straight-curve $-1 -47.527220308700862 -8.1191698364252805 99.967176803415342 0.79863550430605224 0 -0.6018150307709319 I I #
point $-1 79.573961607715077 -8.1191698364252805 4.1895644963913412 #
point $-1 65.396124091043788 -17.598118021441728 14.873331590836727 #
straight-curve $-1 79.573961607715077 0 14.873331590836724 0 1 0 I I #
vertex $-1 $315 $422 #
point $-1 71.911958105015827 -14.889847111437025 7.1092987962653877 #
vertex $-1 $319 $423 #
point $-1 71.911958105015827 -10.827440746429975 7.1092987962653877 #
edge $-1 $397 32.034771077653701 $400 46.636697737873106 $324 $424 forward 7 unknown #
vertex $-1 $338 $425 #
straight-curve $-1 -104.16366870545369 -1.7625882413890768 14.87333159083672 -1 0 0 I I #
edge $-1 $400 -3.0775883243186239 $335 12.757941455734027 $334 $426 forward 7 unknown #
vertex $-1 $399 $427 #
straight-curve $-1 -79.573961607715091 -1.7625882413890768 0.27140493061729387 0.5877852410284794 0 0.80901700255871778 I I #
point $-1 -68.965041208870545 -1.7625882413890768 14.873331590836722 #
point $-1 -79.573961607715077 -17.598118021441728 0.27140493061731341 #
straight-curve $-1 -79.573961607715077 0 14.873331590836724 0 -1 0 I I #
vertex $-1 $341 $428 #
point $-1 -69.483446804398781 -13.07368094142668 5.9491980989478597 #
vertex $-1 $345 $429 #
point $-1 -69.483446804398781 -6.2870253214041156 5.9491980989478597 #
straight-curve $-1 -79.573961607715077 35.774648293457844 0 0 0 -1 I I #
point $-1 -79.573961607715077 -35.774648293457844 -14.873331590836724 #
straight-curve $-1 -79.573961607715077 0 -14.873331590836724 0 1 0 I I #
point $-1 -79.573961607715077 35.774648293457844 -14.873331590836724 #
straight-curve $-1 -79.573961607715077 -13.343191578724891 -4.6521089744553068 0 -1 0 I I #
point $-1 -79.573961607715077 -35.774648293457844 -4.6521089744553068 #
point $-1 -79.573961607715077 -17.598118021441721 -4.6521089744553068 #
straight-curve $-1 -79.573961607715077 -17.598118021441721 -1.5057221859019396 0 0 -1 I I #
straight-curve $-1 -79.573961607715077 -35.774648293457844 0 0 0 -1 I I #
straight-curve $-1 24.125195999161562 -8.1191698364252805 14.873331590836727 -1 0 0 I I #
point $-1 79.573961607715077 -8.1191698364252805 14.873331590836724 #
straight-curve $-1 65.396124091043802 -6.4293219644667516 14.873331590836727 0 -1 0 I I #
point $-1 65.396124091043788 -8.1191698364252805 14.873331590836727 #
point $-1 70.511507569938843 -14.889847111437025 6.9124783227302675 #
point $-1 70.511507569938843 -10.827440746429975 6.9124783227302675 #
straight-curve $-1 -79.573961607715077 -1.7625882413890768 46.908102668490422 0 0 -1 I I #
point $-1 -79.573961607715077 -1.7625882413890768 14.873331590836724 #
straight-curve $-1 -79.573961607715077 -4.8401765657077007 0.27140493061731408 0 -1 0 I I #
point $-1 -79.573961607715077 -1.7625882413890768 0.27140493061731341 #
point $-1 -69.151599162103423 -13.07368094142668 3.8539947335670637 #
point $-1 -69.151599162103423 -6.2870253214041156 3.8539947335670637 #
End-of-ACIS-data 