500 0 6 0           
7 Unknown 11 ACIS 5.0 NT 24 Thu Mar 25 15:20:38 1999 
-1 9.9999999999999995e-007 1e-010 
body $-1 $6 $-1 $7 #
body $-1 $8 $-1 $9 #
body $-1 $10 $-1 $11 #
body $-1 $12 $-1 $13 #
body $-1 $14 $-1 $15 #
body $-1 $16 $-1 $17 #
lump $-1 $-1 $18 $0 #
transform $-1 1 0 0 0 1 0 0 0 1 72.776879177220991 33.600365720659035 11.590470099203742 1 rotate no_reflect no_shear #
lump $-1 $-1 $19 $1 #
transform $-1 1 0 0 0 1 0 0 0 1 72.776879177220991 33.600365720659035 11.590470099203742 1 rotate no_reflect no_shear #
lump $-1 $-1 $20 $2 #
transform $-1 1 0 0 0 1 0 0 0 1 72.776879177220991 33.600365720659035 11.590470099203742 1 rotate no_reflect no_shear #
lump $-1 $-1 $21 $3 #
transform $-1 1 0 0 0 1 0 0 0 1 72.776879177220991 33.600365720659035 11.590470099203742 1 rotate no_reflect no_shear #
lump $-1 $-1 $22 $4 #
transform $-1 1 0 0 0 1 0 0 0 1 72.776879177220991 33.600365720659035 11.590470099203742 1 rotate no_reflect no_shear #
lump $-1 $-1 $23 $5 #
transform $-1 1 0 0 0 1 0 0 0 1 72.776879177220991 33.600365720659035 11.590470099203742 1 rotate no_reflect no_shear #
shell $-1 $-1 $-1 $24 $-1 $6 #
shell $-1 $-1 $-1 $25 $-1 $8 #
shell $-1 $-1 $-1 $26 $-1 $10 #
shell $-1 $-1 $-1 $27 $-1 $12 #
shell $-1 $-1 $-1 $28 $-1 $14 #
shell $-1 $-1 $-1 $29 $-1 $16 #
face $-1 $30 $31 $18 $-1 $32 forward single #
face $-1 $33 $34 $19 $-1 $35 forward single #
face $-1 $36 $37 $20 $-1 $38 reversed single #
face $-1 $39 $40 $21 $-1 $41 forward single #
face $-1 $42 $43 $22 $-1 $44 forward single #
face $-1 $45 $46 $23 $-1 $47 forward single #
face $-1 $48 $49 $18 $-1 $50 reversed single #
loop $-1 $-1 $51 $24 #
plane-surface $-1 0 0 11.590470099203742 0 0 1 1 0 0 forward_v I I I I #
face $-1 $52 $53 $19 $-1 $54 reversed single #
loop $-1 $-1 $55 $25 #
plane-surface $-1 -72.776879177220991 0 0 1 0 0 0 0 -1 forward_v I I I I #
face $-1 $56 $57 $20 $-1 $58 reversed single #
loop $-1 $-1 $59 $26 #
plane-surface $-1 65.354667617375043 -33.600365720659042 3.9881048356299829 0 -0.61566148304635926 0.78801074757464917 1 0 0 forward_v I I I I #
face $-1 $60 $61 $21 $-1 $62 forward single #
loop $-1 $63 $64 $27 #
cone-surface $-1 60.901340681467445 -27.583059618694282 6.3147764360119503 0 0.61566148304635926 -0.78801074757464917 1 0 0 1 I I 0 1 1 forward I I I I #
face $-1 $65 $66 $22 $-1 $67 forward single #
loop $-1 $68 $69 $28 #
cone-surface $-1 65.354667617375014 -27.583059618694282 6.3147764360119503 0 0.61566148304635926 -0.78801074757464917 1 0 0 1 I I 0 1 1 forward I I I I #
face $-1 $70 $71 $23 $-1 $72 forward single #
loop $-1 $73 $74 $29 #
cone-surface $-1 69.807994553282583 -27.583059618694282 6.3147764360119503 0 0.61566148304635926 -0.78801074757464917 1 0 0 1 I I 0 1 1 forward I I I I #
face $-1 $75 $76 $18 $-1 $77 reversed single #
loop $-1 $-1 $78 $30 #
plane-surface $-1 0 0 -11.590470099203742 0 0 1 1 0 0 forward_v I I I I #
coedge $-1 $79 $80 $81 $82 forward $31 $-1 #
face $-1 $83 $84 $19 $-1 $85 forward single #
loop $-1 $-1 $86 $33 #
plane-surface $-1 0 33.600365720659035 0 0 -1 0 0 0 -1 forward_v I I I I #
coedge $-1 $87 $88 $89 $90 forward $34 $-1 #
face $-1 $91 $92 $20 $-1 $93 reversed single #
loop $-1 $-1 $94 $36 #
plane-surface $-1 57.93245605752908 -123.21220845212619 118.68603076881365 1 0 0 0 0.61566148304635926 -0.78801074757464917 forward_v I I I I #
coedge $-1 $95 $96 $97 $98 reversed $37 $-1 #
face $-1 $-1 $99 $21 $-1 $100 forward single #
loop $-1 $101 $102 $39 #
cone-surface $-1 60.901340681467445 -26.123214578943575 4.4462600308197224 0 0.61566148304635926 -0.78801074757464917 0.5 0 0 1 I I -0.70710678118654746 0.70710678118654746 0.5 forward I I I I #
loop $-1 $-1 $103 $27 #
coedge $-1 $64 $64 $104 $105 reversed $40 $-1 #
face $-1 $-1 $106 $22 $-1 $107 forward single #
loop $-1 $108 $109 $42 #
cone-surface $-1 65.354667617375014 -26.123214578943575 4.4462600308197224 0 0.61566148304635926 -0.78801074757464917 0.5 0 0 1 I I -0.70710678118654746 0.70710678118654746 0.5 forward I I I I #
loop $-1 $-1 $110 $28 #
coedge $-1 $69 $69 $111 $112 reversed $43 $-1 #
face $-1 $-1 $113 $23 $-1 $114 forward single #
loop $-1 $115 $116 $45 #
cone-surface $-1 69.807994553282583 -26.123214578943575 4.4462600308197224 0 0.61566148304635926 -0.78801074757464917 0.5 0 0 1 I I -0.70710678118654746 0.70710678118654746 0.5 forward I I I I #
loop $-1 $-1 $117 $29 #
coedge $-1 $74 $74 $118 $119 reversed $46 $-1 #
face $-1 $120 $121 $18 $-1 $122 reversed single #
loop $-1 $-1 $123 $48 #
plane-surface $-1 0 -33.600365720659035 0 0 1 0 0 0 1 forward_v I I I I #
coedge $-1 $124 $125 $126 $127 forward $49 $-1 #
coedge $-1 $128 $51 $129 $130 forward $31 $-1 #
coedge $-1 $51 $128 $131 $132 forward $31 $-1 #
coedge $-1 $133 $134 $51 $82 reversed $135 $-1 #
edge $-1 $136 -33.600365720659035 $137 33.600365720659035 $81 $138 forward 7 unknown #
face $-1 $139 $140 $19 $-1 $141 reversed single #
loop $-1 $-1 $89 $52 #
plane-surface $-1 -78.175006122422971 0 -0.055089059604895407 0 0 1 1 0 0 forward_v I I I I #
coedge $-1 $142 $143 $88 $144 forward $53 $-1 #
coedge $-1 $145 $55 $146 $147 reversed $34 $-1 #
coedge $-1 $55 $145 $86 $144 reversed $34 $-1 #
coedge $-1 $148 $149 $55 $90 reversed $84 $-1 #
edge $-1 $150 -33.600365720659035 $151 33.600365720659035 $89 $152 forward 7 unknown #
face $-1 $153 $154 $20 $-1 $155 forward single #
loop $-1 $-1 $156 $56 #
plane-surface $-1 0 -33.600365720659035 0 0 1 0 0 0 1 forward_v I I I I #
coedge $-1 $157 $158 $159 $160 reversed $57 $-1 #
coedge $-1 $161 $59 $162 $163 reversed $37 $-1 #
coedge $-1 $59 $161 $157 $164 forward $37 $-1 #
coedge $-1 $159 $165 $59 $98 forward $154 $-1 #
edge $-1 $166 -40.099545368533484 $167 -25.255122248841559 $97 $168 forward 7 unknown #
loop $-1 $-1 $104 $60 #
plane-surface $-1 65.354667617375043 -33.600365720659042 3.9881048356299829 0 -0.61566148304635926 0.78801074757464917 1 0 0 forward_v I I I I #
loop $-1 $-1 $169 $39 #
coedge $-1 $102 $102 $103 $170 reversed $61 $-1 #
coedge $-1 $103 $103 $102 $170 forward $63 $-1 #
coedge $-1 $104 $104 $64 $105 forward $99 $-1 #
edge $-1 $171 -2.0562882792523824e-015 $171 6.2831853071795987 $104 $172 forward 7 unknown #
loop $-1 $-1 $111 $65 #
plane-surface $-1 65.354667617375043 -33.600365720659042 3.9881048356299829 0 -0.61566148304635926 0.78801074757464917 1 0 0 forward_v I I I I #
loop $-1 $-1 $173 $42 #
coedge $-1 $109 $109 $110 $174 reversed $66 $-1 #
coedge $-1 $110 $110 $109 $174 forward $68 $-1 #
coedge $-1 $111 $111 $69 $112 forward $106 $-1 #
edge $-1 $175 -2.0562882792523824e-015 $175 6.2831853071795987 $111 $176 forward 7 unknown #
loop $-1 $-1 $118 $70 #
plane-surface $-1 65.354667617375043 -33.600365720659042 3.9881048356299829 0 -0.61566148304635926 0.78801074757464917 1 0 0 forward_v I I I I #
loop $-1 $-1 $177 $45 #
coedge $-1 $116 $116 $117 $178 reversed $71 $-1 #
coedge $-1 $117 $117 $116 $178 forward $73 $-1 #
coedge $-1 $118 $118 $74 $119 forward $113 $-1 #
edge $-1 $179 -2.0562882792523824e-015 $179 6.2831853071795987 $118 $180 forward 7 unknown #
face $-1 $181 $182 $18 $-1 $183 reversed single #
loop $-1 $-1 $184 $75 #
plane-surface $-1 -72.776879177220991 0 0 1 0 0 0 0 -1 forward_v I I I I #
coedge $-1 $185 $131 $186 $187 forward $76 $-1 #
coedge $-1 $188 $78 $185 $189 forward $49 $-1 #
coedge $-1 $78 $188 $190 $191 forward $49 $-1 #
coedge $-1 $134 $133 $78 $127 reversed $135 $-1 #
edge $-1 $192 -33.600365720659035 $193 33.600365720659035 $126 $194 forward 7 unknown #
coedge $-1 $80 $79 $195 $196 forward $31 $-1 #
coedge $-1 $197 $198 $79 $130 reversed $182 $-1 #
edge $-1 $137 -72.776879177220991 $199 72.776879177220991 $129 $200 forward 7 unknown #
coedge $-1 $123 $201 $80 $132 reversed $76 $-1 #
edge $-1 $202 -72.776879177220991 $136 72.776879177220991 $131 $203 forward 7 unknown #
coedge $-1 $126 $81 $201 $204 forward $135 $-1 #
coedge $-1 $81 $126 $197 $205 reversed $135 $-1 #
loop $-1 $-1 $133 $181 #
vertex $-1 $82 $206 #
vertex $-1 $82 $207 #
straight-curve $-1 72.776879177220991 0 11.590470099203742 0 1 0 I I #
face $-1 $208 $209 $19 $-1 $210 reversed single #
loop $-1 $-1 $211 $83 #
plane-surface $-1 -78.175006122422971 0 -5.8625983275496836 0 0 1 1 0 0 forward_v I I I I #
coedge $-1 $212 $86 $213 $214 reversed $53 $-1 #
coedge $-1 $86 $212 $148 $215 reversed $53 $-1 #
edge $-1 $150 0.055089059604895407 $216 5.8625983275496836 $86 $217 forward 7 unknown #
coedge $-1 $88 $87 $211 $218 forward $34 $-1 #
coedge $-1 $219 $220 $87 $147 forward $221 $-1 #
edge $-1 $222 -5.8625983275496836 $151 -0.055089059604895407 $146 $223 forward 7 unknown #
coedge $-1 $224 $89 $143 $215 forward $84 $-1 #
coedge $-1 $89 $224 $219 $225 forward $84 $-1 #
vertex $-1 $144 $226 #
vertex $-1 $225 $227 #
straight-curve $-1 -72.776879177220991 0 -0.055089059604895407 0 -1 0 I I #
face $-1 $-1 $228 $20 $-1 $229 reversed single #
loop $-1 $-1 $159 $91 #
plane-surface $-1 0 0 11.590470099203742 0 0 1 1 0 0 forward_v I I I I #
coedge $-1 $230 $231 $158 $232 forward $92 $-1 #
coedge $-1 $158 $94 $96 $164 reversed $57 $-1 #
coedge $-1 $94 $157 $156 $232 reversed $57 $-1 #
coedge $-1 $233 $97 $94 $160 forward $154 $-1 #
edge $-1 $167 -37.73632211287849 $234 -28.005738505404061 $159 $235 forward 7 unknown #
coedge $-1 $96 $95 $230 $236 reversed $37 $-1 #
coedge $-1 $237 $238 $95 $163 forward $228 $-1 #
edge $-1 $239 -12.011063386334907 $166 0.33722454936058704 $162 $240 forward 7 unknown #
edge $-1 $241 9.1534652039358102e-015 $167 12.348287935695504 $157 $242 forward 7 unknown #
coedge $-1 $97 $233 $237 $243 forward $154 $-1 #
vertex $-1 $163 $244 #
vertex $-1 $98 $245 #
straight-curve $-1 32.677333808687521 -23.869782113184613 11.590470099203742 -1 0 0 I I #
coedge $-1 $169 $169 $-1 $246 reversed $101 $-1 #
edge $-1 $247 0 $247 6.2831853071796004 $102 $248 forward 7 unknown #
vertex $-1 $105 $249 #
ellipse-curve $-1 60.901340681467445 -28.73507391692182 7.789287467416866 0 -0.61566148304635926 0.78801074757464917 1 0 0 1 I I #
coedge $-1 $173 $173 $-1 $250 reversed $108 $-1 #
edge $-1 $251 0 $251 6.2831853071796004 $109 $252 forward 7 unknown #
vertex $-1 $112 $253 #
ellipse-curve $-1 65.354667617375014 -28.73507391692182 7.789287467416866 0 -0.61566148304635926 0.78801074757464917 1 0 0 1 I I #
coedge $-1 $177 $177 $-1 $254 reversed $115 $-1 #
edge $-1 $255 0 $255 6.2831853071796004 $116 $256 forward 7 unknown #
vertex $-1 $119 $257 #
ellipse-curve $-1 69.807994553282583 -28.73507391692182 7.789287467416866 0 -0.61566148304635926 0.78801074757464917 1 0 0 1 I I #
face $-1 $-1 $135 $18 $-1 $258 reversed single #
loop $-1 $-1 $197 $120 #
plane-surface $-1 0 33.600365720659035 0 0 -1 0 0 0 -1 forward_v I I I I #
coedge $-1 $259 $195 $198 $260 forward $121 $-1 #
coedge $-1 $201 $123 $124 $189 reversed $76 $-1 #
coedge $-1 $195 $259 $123 $187 reversed $121 $-1 #
edge $-1 $202 -11.590470099203742 $261 11.590470099203742 $186 $262 forward 7 unknown #
coedge $-1 $125 $124 $259 $263 forward $49 $-1 #
edge $-1 $193 -72.776879177220991 $261 72.776879177220991 $185 $264 forward 7 unknown #
coedge $-1 $198 $197 $125 $191 reversed $182 $-1 #
edge $-1 $265 -72.776879177220991 $192 72.776879177220991 $190 $266 forward 7 unknown #
vertex $-1 $127 $267 #
vertex $-1 $204 $268 #
straight-curve $-1 72.776879177220991 0 -11.590470099203742 0 -1 0 I I #
coedge $-1 $184 $186 $128 $196 reversed $121 $-1 #
edge $-1 $199 -33.600365720659035 $202 33.600365720659035 $195 $269 forward 7 unknown #
coedge $-1 $190 $129 $134 $205 forward $182 $-1 #
coedge $-1 $129 $190 $184 $260 reversed $182 $-1 #
vertex $-1 $130 $270 #
straight-curve $-1 0 33.600365720659035 11.590470099203742 -1 0 0 I I #
coedge $-1 $131 $185 $133 $204 reversed $76 $-1 #
vertex $-1 $196 $271 #
straight-curve $-1 0 -33.600365720659035 11.590470099203742 1 0 0 I I #
edge $-1 $136 -11.590470099203742 $193 11.590470099203742 $133 $272 forward 7 unknown #
edge $-1 $137 -11.590470099203742 $192 11.590470099203742 $134 $273 forward 7 unknown #
point $-1 72.776879177220991 -33.600365720659035 11.590470099203742 #
point $-1 72.776879177220991 33.600365720659035 11.590470099203742 #
face $-1 $-1 $221 $19 $-1 $274 reversed single #
loop $-1 $-1 $275 $139 #
plane-surface $-1 -83.573133067624951 0 -2.9588436935772897 1 0 0 0 0 -1 forward_v I I I I #
coedge $-1 $276 $213 $145 $218 reversed $140 $-1 #
coedge $-1 $143 $142 $275 $277 reversed $53 $-1 #
coedge $-1 $211 $278 $142 $214 forward $140 $-1 #
edge $-1 $279 -5.3981269452019802 $216 5.3981269452019802 $142 $280 forward 7 unknown #
edge $-1 $150 -5.3981269452019802 $281 5.3981269452019802 $143 $282 forward 7 unknown #
vertex $-1 $144 $283 #
straight-curve $-1 -72.776879177220991 33.600365720659035 0 0 0 -1 I I #
edge $-1 $222 -33.600365720659035 $216 33.600365720659035 $211 $284 forward 7 unknown #
coedge $-1 $285 $146 $149 $225 reversed $221 $-1 #
coedge $-1 $146 $285 $276 $286 reversed $221 $-1 #
loop $-1 $-1 $146 $208 #
vertex $-1 $147 $287 #
straight-curve $-1 -72.776879177220991 -33.600365720659035 0 0 0 1 I I #
coedge $-1 $149 $148 $288 $289 forward $84 $-1 #
edge $-1 $290 -5.3981269452019802 $151 5.3981269452019802 $219 $291 forward 7 unknown #
point $-1 -72.776879177220991 33.600365720659035 -0.055089059604895407 #
point $-1 -72.776879177220991 -33.600365720659035 -0.055089059604895407 #
loop $-1 $-1 $162 $153 #
plane-surface $-1 72.776879177220991 0 0 -1 0 0 0 0 1 forward_v I I I I #
coedge $-1 $292 $156 $161 $236 forward $92 $-1 #
coedge $-1 $156 $292 $233 $293 reversed $92 $-1 #
edge $-1 $234 47.752545285203084 $241 55.354910548776836 $156 $294 forward 7 unknown #
coedge $-1 $165 $159 $231 $293 forward $154 $-1 #
vertex $-1 $293 $295 #
straight-curve $-1 57.93245605752908 -61.606104226063096 11.590470099203742 0 -1 0 I I #
edge $-1 $241 25.255122248841559 $239 40.099545368533484 $230 $296 forward 7 unknown #
coedge $-1 $238 $162 $165 $243 reversed $228 $-1 #
coedge $-1 $162 $237 $292 $297 forward $228 $-1 #
vertex $-1 $236 $298 #
straight-curve $-1 72.776879177220991 -24.135518682426767 11.382853933024764 0 0.78801074757464917 0.61566148304635926 I I #
vertex $-1 $236 $299 #
straight-curve $-1 57.93245605752908 -33.600365720659042 3.9881048356299829 0 0.78801074757464917 0.61566148304635926 I I #
edge $-1 $300 -33.600365720659035 $166 -23.869782113184606 $237 $301 forward 7 unknown #
point $-1 72.776879177221005 -23.869782113184606 11.590470099203742 #
point $-1 57.93245605752908 -23.869782113184606 11.590470099203742 #
edge $-1 $302 1 $302 0 $169 $-1 forward 7 unknown #
vertex $-1 $170 $303 #
ellipse-curve $-1 60.901340681467445 -26.431045320466755 4.840265404607047 0 -0.61566148304635926 0.78801074757464917 1 0 0 1 I I #
point $-1 61.901340681467445 -28.735073916921813 7.7892874674168535 #
edge $-1 $304 1 $304 0 $173 $-1 forward 7 unknown #
vertex $-1 $174 $305 #
ellipse-curve $-1 65.354667617375014 -26.431045320466755 4.840265404607047 0 -0.61566148304635926 0.78801074757464917 1 0 0 1 I I #
point $-1 66.354667617375014 -28.735073916921813 7.7892874674168535 #
edge $-1 $306 1 $306 0 $177 $-1 forward 7 unknown #
vertex $-1 $178 $307 #
ellipse-curve $-1 69.807994553282583 -26.431045320466755 4.840265404607047 0 -0.61566148304635926 0.78801074757464917 1 0 0 1 I I #
point $-1 70.807994553282583 -28.735073916921813 7.7892874674168535 #
plane-surface $-1 72.776879177220991 0 0 -1 0 0 0 0 1 forward_v I I I I #
coedge $-1 $186 $184 $188 $263 reversed $121 $-1 #
edge $-1 $199 -11.590470099203742 $265 11.590470099203742 $198 $308 forward 7 unknown #
vertex $-1 $263 $309 #
straight-curve $-1 -72.776879177220991 -33.600365720659035 0 0 0 -1 I I #
edge $-1 $261 -33.600365720659035 $265 33.600365720659035 $259 $310 forward 7 unknown #
straight-curve $-1 0 -33.600365720659035 -11.590470099203742 -1 0 0 I I #
vertex $-1 $191 $311 #
straight-curve $-1 0 33.600365720659035 -11.590470099203742 1 0 0 I I #
point $-1 72.776879177220991 33.600365720659035 -11.590470099203742 #
point $-1 72.776879177220991 -33.600365720659035 -11.590470099203742 #
straight-curve $-1 -72.776879177220991 0 11.590470099203742 0 -1 0 I I #
point $-1 -72.776879177220991 33.600365720659035 11.590470099203742 #
point $-1 -72.776879177220991 -33.600365720659035 11.590470099203742 #
straight-curve $-1 72.776879177220991 -33.600365720659035 0 0 0 -1 I I #
straight-curve $-1 72.776879177220991 33.600365720659035 0 0 0 -1 I I #
plane-surface $-1 0 -33.600365720659035 0 0 1 0 0 0 1 forward_v I I I I #
coedge $-1 $312 $288 $212 $277 forward $209 $-1 #
coedge $-1 $278 $211 $220 $286 forward $140 $-1 #
edge $-1 $281 -2.9037546339723943 $279 2.9037546339723939 $212 $313 forward 7 unknown #
coedge $-1 $213 $276 $312 $314 forward $140 $-1 #
vertex $-1 $214 $315 #
straight-curve $-1 -78.175006122422971 33.600365720659035 -5.8625983275496836 1 0 0 I I #
vertex $-1 $215 $316 #
straight-curve $-1 -78.175006122422971 33.600365720659035 -0.055089059604895407 -1 0 0 I I #
point $-1 -72.776879177220991 33.600365720659035 -5.8625983275496836 #
straight-curve $-1 -72.776879177220991 0 -5.8625983275496836 0 1 0 I I #
coedge $-1 $220 $219 $317 $318 forward $221 $-1 #
edge $-1 $222 -5.3981269452019802 $319 5.3981269452019802 $220 $320 forward 7 unknown #
point $-1 -72.776879177220991 -33.600365720659035 -5.8625983275496836 #
coedge $-1 $275 $317 $224 $289 reversed $209 $-1 #
edge $-1 $281 -33.600365720659035 $290 33.600365720659035 $288 $321 forward 7 unknown #
vertex $-1 $289 $322 #
straight-curve $-1 -78.175006122422971 -33.600365720659035 -0.055089059604895407 1 0 0 I I #
coedge $-1 $231 $230 $238 $297 reversed $92 $-1 #
edge $-1 $234 57.93245605752908 $300 72.776879177220991 $231 $323 forward 7 unknown #
straight-curve $-1 57.93245605752908 -33.600365720659035 59.343015384406826 0 0 -1 I I #
point $-1 57.93245605752908 -33.600365720659035 11.590470099203742 #
straight-curve $-1 32.677333808687521 -33.600365720659035 3.9881048356299891 1 0 0 I I #
edge $-1 $300 -11.590470099203742 $239 -3.9881048356299886 $238 $324 forward 7 unknown #
point $-1 72.776879177221005 -33.600365720659035 3.9881048356299886 #
point $-1 57.93245605752908 -33.600365720659035 3.9881048356299886 #
vertex $-1 $243 $325 #
straight-curve $-1 72.776879177220991 0 11.590470099203742 0 1 0 I I #
vertex $-1 $246 $326 #
point $-1 61.901340681467445 -26.431045320466755 4.840265404607047 #
vertex $-1 $250 $327 #
point $-1 66.354667617375014 -26.431045320466755 4.840265404607047 #
vertex $-1 $254 $328 #
point $-1 70.807994553282583 -26.431045320466755 4.840265404607047 #
straight-curve $-1 -72.776879177220991 33.600365720659035 0 0 0 -1 I I #
point $-1 -72.776879177220991 -33.600365720659035 -11.590470099203742 #
straight-curve $-1 -72.776879177220991 0 -11.590470099203742 0 1 0 I I #
point $-1 -72.776879177220991 33.600365720659035 -11.590470099203742 #
coedge $-1 $317 $275 $278 $314 reversed $209 $-1 #
straight-curve $-1 -83.573133067624951 33.600365720659035 -2.9588436935772897 0 0 -1 I I #
edge $-1 $319 -33.600365720659035 $279 33.600365720659035 $312 $329 forward 7 unknown #
point $-1 -83.573133067624951 33.600365720659035 -5.8625983275496836 #
point $-1 -83.573133067624951 33.600365720659035 -0.055089059604895407 #
coedge $-1 $288 $312 $285 $318 reversed $209 $-1 #
edge $-1 $290 -2.9037546339723943 $319 2.9037546339723939 $317 $330 forward 7 unknown #
vertex $-1 $314 $331 #
straight-curve $-1 -78.175006122422971 -33.600365720659035 -5.8625983275496836 -1 0 0 I I #
straight-curve $-1 -83.573133067624951 0 -0.055089059604895407 0 -1 0 I I #
point $-1 -83.573133067624951 -33.600365720659035 -0.055089059604895407 #
straight-curve $-1 0 -33.600365720659035 11.590470099203742 1 0 0 I I #
straight-curve $-1 72.776879177220991 -33.600365720659035 0 0 0 -1 I I #
point $-1 72.776879177220991 -33.600365720659035 11.590470099203742 #
point $-1 60.901340681467445 -25.815383837420395 4.0522546570323978 #
point $-1 65.354667617375014 -25.815383837420395 4.0522546570323978 #
point $-1 69.807994553282583 -25.815383837420395 4.0522546570323978 #
straight-curve $-1 -83.573133067624951 0 -5.8625983275496836 0 1 0 I I #
straight-curve $-1 -83.573133067624951 -33.600365720659035 -2.9588436935772897 0 0 -1 I I #
point $-1 -83.573133067624951 -33.600365720659035 -5.8625983275496836 #
End-of-ACIS-data 