500 0 10 0           
7 Unknown 11 ACIS 5.0 NT 24 Thu Mar 25 19:58:19 1999 
-1 9.9999999999999995e-007 1e-010 
body $-1 $10 $-1 $11 #
body $-1 $12 $-1 $13 #
body $-1 $14 $-1 $15 #
body $-1 $16 $-1 $17 #
body $-1 $18 $-1 $19 #
body $-1 $20 $-1 $21 #
body $-1 $22 $-1 $23 #
body $-1 $24 $-1 $25 #
body $-1 $26 $-1 $27 #
body $-1 $28 $-1 $29 #
lump $-1 $-1 $30 $0 #
transform $-1 1 0 0 0 1 0 0 0 1 53.518478957487716 22.487822316061223 5.740307120456535 1 rotate no_reflect no_shear #
lump $-1 $-1 $31 $1 #
transform $-1 1 0 0 0 1 0 0 0 1 53.518478957487716 22.487822316061223 5.740307120456535 1 rotate no_reflect no_shear #
lump $-1 $-1 $32 $2 #
transform $-1 1 0 0 0 1 0 0 0 1 53.518478957487716 22.487822316061223 5.740307120456535 1 rotate no_reflect no_shear #
lump $-1 $-1 $33 $3 #
transform $-1 1 0 0 0 1 0 0 0 1 53.518478957487716 22.487822316061223 5.740307120456535 1 rotate no_reflect no_shear #
lump $-1 $-1 $34 $4 #
transform $-1 1 0 0 0 1 0 0 0 1 53.518478957487716 22.487822316061223 5.740307120456535 1 rotate no_reflect no_shear #
lump $-1 $-1 $35 $5 #
transform $-1 1 0 0 0 1 0 0 0 1 53.518478957487716 22.487822316061223 5.740307120456535 1 rotate no_reflect no_shear #
lump $-1 $-1 $36 $6 #
transform $-1 1 0 0 0 1 0 0 0 1 53.518478957487716 22.487822316061223 5.740307120456535 1 rotate no_reflect no_shear #
lump $-1 $-1 $37 $7 #
transform $-1 1 0 0 0 1 0 0 0 1 53.518478957487716 22.487822316061223 5.740307120456535 1 rotate no_reflect no_shear #
lump $-1 $-1 $38 $8 #
transform $-1 1 0 0 0 1 0 0 0 1 53.518478957487716 22.487822316061223 5.740307120456535 1 rotate no_reflect no_shear #
lump $-1 $-1 $39 $9 #
transform $-1 1 0 0 0 1 0 0 0 1 53.518478957487716 22.487822316061223 5.740307120456535 1 rotate no_reflect no_shear #
shell $-1 $-1 $-1 $40 $-1 $10 #
shell $-1 $-1 $-1 $41 $-1 $12 #
shell $-1 $-1 $-1 $42 $-1 $14 #
shell $-1 $-1 $-1 $43 $-1 $16 #
shell $-1 $-1 $-1 $44 $-1 $18 #
shell $-1 $-1 $-1 $45 $-1 $20 #
shell $-1 $-1 $-1 $46 $-1 $22 #
shell $-1 $-1 $-1 $47 $-1 $24 #
shell $-1 $-1 $-1 $48 $-1 $26 #
shell $-1 $-1 $-1 $49 $-1 $28 #
face $-1 $50 $51 $30 $-1 $52 forward single #
face $-1 $53 $54 $31 $-1 $55 forward single #
face $-1 $56 $57 $32 $-1 $58 forward single #
face $-1 $59 $60 $33 $-1 $61 reversed single #
face $-1 $62 $63 $34 $-1 $64 forward single #
face $-1 $65 $66 $35 $-1 $67 forward single #
face $-1 $68 $69 $36 $-1 $70 reversed single #
face $-1 $71 $72 $37 $-1 $73 forward single #
face $-1 $74 $75 $38 $-1 $76 reversed single #
face $-1 $77 $78 $39 $-1 $79 forward single #
face $-1 $80 $81 $30 $-1 $82 reversed single #
loop $-1 $-1 $83 $40 #
plane-surface $-1 0 0 5.740307120456535 0 0 1 1 0 0 forward_v I I I I #
face $-1 $84 $85 $31 $-1 $86 reversed single #
loop $-1 $-1 $87 $41 #
plane-surface $-1 -53.518478957487716 0 0 1 0 0 0 0 -1 forward_v I I I I #
face $-1 $88 $89 $32 $-1 $90 forward single #
loop $-1 $-1 $91 $42 #
plane-surface $-1 53.518478957487716 0 0 -1 0 0 0 0 1 forward_v I I I I #
face $-1 $92 $93 $33 $-1 $94 reversed single #
loop $-1 $-1 $95 $43 #
plane-surface $-1 19.088637096352077 -113.26031154245932 59.067270398628551 -1 0 0 0 -0.84804810408105047 0.52991925155115449 forward_v I I I I #
face $-1 $96 $97 $34 $-1 $98 forward single #
loop $-1 $99 $100 $44 #
cone-surface $-1 0.47665336706567984 -20.797723225403111 3.6498351891811431 0 0.84804810408105047 -0.52991925155115449 1 0 0 1 I I 0 1 1 forward I I I I #
face $-1 $101 $102 $35 $-1 $103 forward single #
loop $-1 $104 $105 $45 #
cone-surface $-1 11.64384360463751 -20.797723225403111 3.6498351891811431 0 0.84804810408105047 -0.52991925155115449 1 0 0 1 I I 0 1 1 forward I I I I #
face $-1 $106 $107 $36 $-1 $108 reversed single #
loop $-1 $-1 $109 $46 #
plane-surface $-1 -40.289725897104447 56.83651114001951 113.21354580411109 1 0 0 0 -0.64278761758704617 -0.76604443648966558 forward_v I I I I #
face $-1 $110 $111 $37 $-1 $112 forward single #
loop $-1 $113 $114 $47 #
cone-surface $-1 -31.079696302753106 19.655922800420889 3.0864944300242509 0 -0.64278761758704617 -0.76604443648966558 1 0 0 1 I I 0 1 1 forward I I I I #
face $-1 $115 $116 $38 $-1 $117 reversed single #
loop $-1 $-1 $118 $48 #
plane-surface $-1 21.869666708401766 56.83651114001951 113.21354580411109 1 0 0 0 -0.64278761758704617 -0.76604443648966558 forward_v I I I I #
face $-1 $119 $120 $39 $-1 $121 forward single #
loop $-1 $122 $123 $49 #
cone-surface $-1 31.079696302753106 19.655922800420889 3.0864944300242509 0 -0.64278761758704617 -0.76604443648966558 1 0 0 1 I I 0 1 1 forward I I I I #
face $-1 $124 $125 $30 $-1 $126 reversed single #
loop $-1 $-1 $127 $50 #
plane-surface $-1 0 0 -5.740307120456535 0 0 1 1 0 0 forward_v I I I I #
coedge $-1 $128 $129 $130 $131 forward $51 $-1 #
face $-1 $132 $133 $31 $-1 $134 reversed single #
loop $-1 $-1 $135 $53 #
plane-surface $-1 0 22.487822316061223 0 0 -1 0 0 0 -1 forward_v I I I I #
coedge $-1 $136 $137 $138 $139 forward $54 $-1 #
face $-1 $140 $141 $32 $-1 $142 reversed single #
loop $-1 $-1 $143 $56 #
plane-surface $-1 0 0 5.740307120456535 0 0 1 1 0 0 forward_v I I I I #
coedge $-1 $144 $145 $146 $147 forward $57 $-1 #
face $-1 $148 $149 $33 $-1 $150 reversed single #
loop $-1 $-1 $151 $59 #
plane-surface $-1 6.0602484858516021 -22.487822316061212 2.3463257720123494 0 -0.84804810408105047 0.52991925155115449 1 0 0 forward_v I I I I #
coedge $-1 $152 $153 $154 $155 reversed $60 $-1 #
face $-1 $-1 $156 $34 $-1 $157 forward single #
loop $-1 $158 $159 $62 #
cone-surface $-1 0.47665336706567984 -19.743997510215394 2.9913943063522694 0 0.84804810408105047 -0.52991925155115449 0.5 0 0 1 I I -0.70710678118654746 0.70710678118654746 0.5 forward I I I I #
loop $-1 $-1 $160 $44 #
coedge $-1 $100 $100 $161 $162 reversed $63 $-1 #
face $-1 $-1 $163 $35 $-1 $164 forward single #
loop $-1 $165 $166 $65 #
cone-surface $-1 11.64384360463751 -19.743997510215394 2.9913943063522694 0 0.84804810408105047 -0.52991925155115449 0.5 0 0 1 I I -0.70710678118654746 0.70710678118654746 0.5 forward I I I I #
loop $-1 $-1 $167 $45 #
coedge $-1 $105 $105 $168 $169 reversed $66 $-1 #
face $-1 $170 $171 $36 $-1 $172 reversed single #
loop $-1 $-1 $173 $68 #
plane-surface $-1 -31.079696302753106 -11.965520031912476 31.218479694565687 0 0.64278761758704617 0.76604443648966558 1 0 0 forward_v I I I I #
coedge $-1 $174 $175 $176 $177 reversed $69 $-1 #
face $-1 $-1 $178 $37 $-1 $179 forward single #
loop $-1 $180 $181 $71 #
cone-surface $-1 -31.079696302753106 18.547449118992208 1.7654669655543564 0 -0.64278761758704617 -0.76604443648966558 0.5 0 0 1 I I -0.70710678118654746 0.70710678118654746 0.5 forward I I I I #
loop $-1 $-1 $182 $47 #
coedge $-1 $114 $114 $183 $184 reversed $72 $-1 #
face $-1 $185 $186 $38 $-1 $187 reversed single #
loop $-1 $-1 $188 $74 #
plane-surface $-1 31.079696302753106 -11.965520031912476 31.218479694565687 0 0.64278761758704617 0.76604443648966558 1 0 0 forward_v I I I I #
coedge $-1 $189 $190 $191 $192 reversed $75 $-1 #
face $-1 $-1 $193 $39 $-1 $194 forward single #
loop $-1 $195 $196 $77 #
cone-surface $-1 31.079696302753106 18.547449118992208 1.7654669655543564 0 -0.64278761758704617 -0.76604443648966558 0.5 0 0 1 I I -0.70710678118654746 0.70710678118654746 0.5 forward I I I I #
loop $-1 $-1 $197 $49 #
coedge $-1 $123 $123 $198 $199 reversed $78 $-1 #
face $-1 $200 $201 $30 $-1 $202 reversed single #
loop $-1 $-1 $203 $80 #
plane-surface $-1 0 -22.487822316061223 0 0 1 0 0 0 1 forward_v I I I I #
coedge $-1 $204 $205 $206 $207 forward $81 $-1 #
coedge $-1 $208 $83 $209 $210 forward $51 $-1 #
coedge $-1 $83 $208 $211 $212 forward $51 $-1 #
coedge $-1 $213 $214 $83 $131 reversed $215 $-1 #
edge $-1 $216 -22.487822316061223 $217 22.487822316061223 $130 $218 forward 7 unknown #
face $-1 $219 $220 $31 $-1 $221 reversed single #
loop $-1 $-1 $138 $84 #
plane-surface $-1 -55.794103336595818 0 2.740307120456535 0 0 1 1 0 0 forward_v I I I I #
coedge $-1 $222 $223 $136 $224 forward $85 $-1 #
coedge $-1 $225 $87 $135 $224 reversed $54 $-1 #
coedge $-1 $87 $225 $226 $227 reversed $54 $-1 #
coedge $-1 $228 $229 $87 $139 reversed $133 $-1 #
edge $-1 $230 -22.487822316061223 $231 22.487822316061223 $138 $232 forward 7 unknown #
face $-1 $233 $234 $32 $-1 $235 reversed single #
loop $-1 $-1 $236 $88 #
plane-surface $-1 0 -22.487822316061223 0 0 1 0 0 0 1 forward_v I I I I #
coedge $-1 $237 $238 $239 $240 forward $89 $-1 #
coedge $-1 $239 $91 $236 $241 reversed $57 $-1 #
coedge $-1 $91 $239 $242 $243 reversed $57 $-1 #
coedge $-1 $244 $245 $91 $147 reversed $234 $-1 #
edge $-1 $246 -22.487822316061223 $247 22.487822316061223 $146 $248 forward 7 unknown #
face $-1 $249 $250 $33 $-1 $251 reversed single #
loop $-1 $-1 $252 $92 #
plane-surface $-1 -6.9681401246488726 -113.26031154245932 59.067270398628551 1 0 0 0 0.84804810408105047 -0.52991925155115449 forward_v I I I I #
coedge $-1 $253 $254 $255 $256 reversed $93 $-1 #
coedge $-1 $153 $95 $257 $258 reversed $60 $-1 #
coedge $-1 $95 $152 $253 $259 reversed $60 $-1 #
coedge $-1 $255 $260 $95 $155 forward $261 $-1 #
edge $-1 $262 34.142333455168441 $263 36.263128310190297 $154 $264 forward 7 unknown #
loop $-1 $-1 $161 $96 #
plane-surface $-1 6.0602484858516021 -22.487822316061212 2.3463257720123494 0 -0.84804810408105047 0.52991925155115449 1 0 0 forward_v I I I I #
loop $-1 $-1 $265 $62 #
coedge $-1 $159 $159 $160 $266 reversed $97 $-1 #
coedge $-1 $160 $160 $159 $266 forward $99 $-1 #
coedge $-1 $161 $161 $100 $162 forward $156 $-1 #
edge $-1 $267 7.8737727095358535e-019 $267 6.2831853071796004 $161 $268 forward 7 unknown #
loop $-1 $-1 $168 $101 #
plane-surface $-1 6.0602484858516021 -22.487822316061212 2.3463257720123494 0 -0.84804810408105047 0.52991925155115449 1 0 0 forward_v I I I I #
loop $-1 $-1 $269 $65 #
coedge $-1 $166 $166 $167 $270 reversed $102 $-1 #
coedge $-1 $167 $167 $166 $270 forward $104 $-1 #
coedge $-1 $168 $168 $105 $169 forward $163 $-1 #
edge $-1 $271 7.8737727095358535e-019 $271 6.2831853071796004 $168 $272 forward 7 unknown #
face $-1 $273 $274 $36 $-1 $275 reversed single #
loop $-1 $-1 $276 $106 #
plane-surface $-1 -21.869666708401766 56.83651114001951 113.21354580411109 -1 0 0 0 0.64278761758704617 0.76604443648966558 forward_v I I I I #
coedge $-1 $277 $278 $279 $280 reversed $107 $-1 #
coedge $-1 $175 $109 $281 $282 reversed $69 $-1 #
coedge $-1 $109 $174 $277 $283 reversed $69 $-1 #
coedge $-1 $279 $284 $109 $177 forward $285 $-1 #
edge $-1 $286 5.9304332539485323 $287 10.020072539958914 $176 $288 forward 7 unknown #
loop $-1 $-1 $183 $110 #
plane-surface $-1 -31.079696302753106 -11.965520031912476 31.218479694565687 0 0.64278761758704617 0.76604443648966558 1 0 0 forward_v I I I I #
loop $-1 $-1 $289 $71 #
coedge $-1 $181 $181 $182 $290 reversed $111 $-1 #
coedge $-1 $182 $182 $181 $290 forward $113 $-1 #
coedge $-1 $183 $183 $114 $184 forward $178 $-1 #
edge $-1 $291 6.0976456530054579e-016 $291 6.2831853071796013 $183 $292 forward 7 unknown #
face $-1 $293 $294 $38 $-1 $295 forward single #
loop $-1 $-1 $296 $115 #
plane-surface $-1 40.289725897104447 56.83651114001951 113.21354580411109 -1 0 0 0 0.64278761758704617 0.76604443648966558 forward_v I I I I #
coedge $-1 $297 $298 $299 $300 reversed $116 $-1 #
coedge $-1 $190 $118 $301 $302 reversed $75 $-1 #
coedge $-1 $118 $189 $297 $303 reversed $75 $-1 #
coedge $-1 $299 $304 $118 $192 forward $294 $-1 #
edge $-1 $305 5.9304332539485323 $306 10.020072539958914 $191 $307 forward 7 unknown #
loop $-1 $-1 $198 $119 #
plane-surface $-1 31.079696302753106 -11.965520031912476 31.218479694565687 0 0.64278761758704617 0.76604443648966558 1 0 0 forward_v I I I I #
loop $-1 $-1 $308 $77 #
coedge $-1 $196 $196 $197 $309 reversed $120 $-1 #
coedge $-1 $197 $197 $196 $309 forward $122 $-1 #
coedge $-1 $198 $198 $123 $199 forward $193 $-1 #
edge $-1 $310 6.0976456530054579e-016 $310 6.2831853071796013 $198 $311 forward 7 unknown #
face $-1 $312 $313 $30 $-1 $314 reversed single #
loop $-1 $-1 $315 $124 #
plane-surface $-1 -53.518478957487716 0 0 1 0 0 0 0 -1 forward_v I I I I #
coedge $-1 $316 $211 $317 $318 forward $125 $-1 #
coedge $-1 $319 $127 $316 $320 forward $81 $-1 #
coedge $-1 $127 $319 $321 $322 forward $81 $-1 #
coedge $-1 $214 $213 $127 $207 reversed $215 $-1 #
edge $-1 $323 -22.487822316061223 $324 22.487822316061223 $206 $325 forward 7 unknown #
coedge $-1 $129 $128 $326 $327 forward $51 $-1 #
coedge $-1 $328 $329 $128 $210 reversed $313 $-1 #
edge $-1 $217 -53.518478957487716 $330 53.518478957487716 $209 $331 forward 7 unknown #
coedge $-1 $203 $332 $129 $212 reversed $125 $-1 #
edge $-1 $333 -53.518478957487716 $216 53.518478957487716 $211 $334 forward 7 unknown #
coedge $-1 $206 $130 $332 $335 forward $215 $-1 #
coedge $-1 $130 $206 $328 $336 reversed $215 $-1 #
loop $-1 $-1 $213 $312 #
vertex $-1 $131 $337 #
vertex $-1 $131 $338 #
straight-curve $-1 53.518478957487716 0 5.740307120456535 0 1 0 I I #
face $-1 $339 $340 $31 $-1 $341 forward single #
loop $-1 $-1 $342 $132 #
plane-surface $-1 -58.06972771570392 0 4.240307120456535 1 0 0 0 0 -1 forward_v I I I I #
coedge $-1 $343 $135 $229 $344 reversed $85 $-1 #
coedge $-1 $135 $343 $345 $346 reversed $85 $-1 #
edge $-1 $347 -5.740307120456535 $231 -2.740307120456535 $135 $348 forward 7 unknown #
coedge $-1 $137 $136 $349 $350 reversed $54 $-1 #
coedge $-1 $351 $352 $137 $227 forward $353 $-1 #
edge $-1 $230 2.740307120456535 $354 5.740307120456535 $226 $355 forward 7 unknown #
coedge $-1 $356 $138 $352 $357 forward $133 $-1 #
coedge $-1 $138 $356 $222 $344 forward $133 $-1 #
vertex $-1 $227 $358 #
vertex $-1 $224 $359 #
straight-curve $-1 -53.518478957487716 0 2.740307120456535 0 1 0 I I #
face $-1 $360 $361 $32 $-1 $362 reversed single #
loop $-1 $-1 $363 $140 #
plane-surface $-1 55.794103336595825 0 2.740307120456535 0 0 1 1 0 0 forward_v I I I I #
coedge $-1 $364 $365 $144 $241 forward $141 $-1 #
coedge $-1 $366 $143 $365 $367 forward $89 $-1 #
coedge $-1 $143 $366 $368 $369 forward $89 $-1 #
coedge $-1 $145 $144 $143 $240 reversed $57 $-1 #
edge $-1 $370 -22.487822316061223 $371 22.487822316061223 $143 $372 forward 7 unknown #
edge $-1 $371 -5.740307120456535 $247 -2.740307120456535 $236 $373 forward 7 unknown #
coedge $-1 $368 $374 $145 $243 forward $375 $-1 #
edge $-1 $246 2.740307120456535 $370 5.740307120456535 $242 $376 forward 7 unknown #
coedge $-1 $363 $146 $374 $377 forward $234 $-1 #
coedge $-1 $146 $363 $364 $378 forward $234 $-1 #
vertex $-1 $243 $379 #
vertex $-1 $241 $380 #
straight-curve $-1 53.518478957487716 0 2.740307120456535 0 -1 0 I I #
face $-1 $-1 $261 $33 $-1 $381 forward single #
loop $-1 $-1 $382 $148 #
plane-surface $-1 0 -22.487822316061223 0 0 1 0 0 0 1 forward_v I I I I #
coedge $-1 $383 $384 $385 $386 reversed $149 $-1 #
coedge $-1 $387 $151 $153 $259 forward $93 $-1 #
coedge $-1 $151 $387 $383 $388 forward $93 $-1 #
coedge $-1 $385 $154 $151 $256 forward $261 $-1 #
edge $-1 $263 -16.058512853426276 $389 9.9982643675746736 $255 $390 forward 7 unknown #
coedge $-1 $391 $392 $152 $258 forward $250 $-1 #
edge $-1 $393 -27.187309427301944 $262 -23.793328078857741 $257 $394 forward 7 unknown #
edge $-1 $263 -4.0021094701012547 $393 1.9959096594272027e-014 $153 $395 forward 7 unknown #
coedge $-1 $154 $385 $391 $396 forward $261 $-1 #
loop $-1 $-1 $385 $249 #
vertex $-1 $258 $397 #
vertex $-1 $155 $398 #
straight-curve $-1 19.088637096352077 -56.63015577122966 5.740307120456535 0 1 0 I I #
coedge $-1 $265 $265 $-1 $399 reversed $158 $-1 #
edge $-1 $400 0 $400 6.2831853071796004 $159 $401 forward 7 unknown #
vertex $-1 $162 $402 #
ellipse-curve $-1 0.47665336706567984 -21.427424888550295 4.0433164462344351 0 -0.84804810408105047 0.52991925155115449 1 0 0 1 I I #
coedge $-1 $269 $269 $-1 $403 reversed $165 $-1 #
edge $-1 $404 0 $404 6.2831853071796004 $166 $405 forward 7 unknown #
vertex $-1 $169 $406 #
ellipse-curve $-1 11.64384360463751 -21.427424888550295 4.0433164462344351 0 -0.84804810408105047 0.52991925155115449 1 0 0 1 I I #
face $-1 $-1 $285 $36 $-1 $407 forward single #
loop $-1 $-1 $408 $170 #
plane-surface $-1 0 22.487822316061223 0 0 -1 0 0 0 -1 forward_v I I I I #
coedge $-1 $409 $410 $411 $412 reversed $171 $-1 #
coedge $-1 $413 $173 $175 $283 forward $107 $-1 #
coedge $-1 $173 $413 $409 $414 forward $107 $-1 #
coedge $-1 $411 $176 $173 $280 forward $285 $-1 #
edge $-1 $287 -24.749877745727893 $415 -6.329818557025213 $279 $416 forward 7 unknown #
coedge $-1 $417 $418 $174 $282 forward $274 $-1 #
edge $-1 $419 -54.298080670013476 $286 -50.866465781599011 $281 $420 forward 7 unknown #
edge $-1 $287 39.636999651224464 $419 44.97564463212246 $175 $421 forward 7 unknown #
coedge $-1 $176 $411 $417 $422 forward $285 $-1 #
loop $-1 $-1 $411 $273 #
vertex $-1 $282 $423 #
vertex $-1 $177 $424 #
straight-curve $-1 -40.289725897104447 28.418255570009755 5.740307120456535 0 -1 0 I I #
coedge $-1 $289 $289 $-1 $425 reversed $180 $-1 #
edge $-1 $426 0 $426 6.2831853071796004 $181 $427 forward 7 unknown #
vertex $-1 $184 $428 #
ellipse-curve $-1 -31.079696302753106 20.443002673056036 4.0244996762492971 0 0.64278761758704617 0.76604443648966558 1 0 0 1 I I #
face $-1 $-1 $429 $38 $-1 $430 reversed single #
loop $-1 $-1 $191 $185 #
plane-surface $-1 0 0 5.740307120456535 0 0 1 1 0 0 forward_v I I I I #
coedge $-1 $431 $432 $433 $434 reversed $186 $-1 #
coedge $-1 $435 $188 $190 $303 forward $116 $-1 #
coedge $-1 $188 $435 $431 $436 forward $116 $-1 #
coedge $-1 $433 $191 $188 $300 forward $294 $-1 #
edge $-1 $306 6.329818557025213 $437 24.749877745727893 $299 $438 forward 7 unknown #
coedge $-1 $439 $440 $189 $302 forward $429 $-1 #
edge $-1 $441 -54.298080670013476 $305 -50.866465781599011 $301 $442 forward 7 unknown #
edge $-1 $306 39.636999651224464 $441 44.97564463212246 $190 $443 forward 7 unknown #
coedge $-1 $191 $433 $439 $444 forward $294 $-1 #
vertex $-1 $192 $445 #
vertex $-1 $192 $446 #
straight-curve $-1 21.869666708401766 28.418255570009755 5.740307120456535 0 -1 0 I I #
coedge $-1 $308 $308 $-1 $447 reversed $195 $-1 #
edge $-1 $448 0 $448 6.2831853071796004 $196 $449 forward 7 unknown #
vertex $-1 $199 $450 #
ellipse-curve $-1 31.079696302753106 20.443002673056036 4.0244996762492971 0 0.64278761758704617 0.76604443648966558 1 0 0 1 I I #
face $-1 $-1 $215 $30 $-1 $451 reversed single #
loop $-1 $-1 $328 $200 #
plane-surface $-1 0 22.487822316061223 0 0 -1 0 0 0 -1 forward_v I I I I #
coedge $-1 $452 $326 $329 $453 forward $201 $-1 #
coedge $-1 $332 $203 $204 $320 reversed $125 $-1 #
coedge $-1 $326 $452 $203 $318 reversed $201 $-1 #
edge $-1 $333 -5.740307120456535 $454 5.740307120456535 $317 $455 forward 7 unknown #
coedge $-1 $205 $204 $452 $456 forward $81 $-1 #
edge $-1 $324 -53.518478957487716 $454 53.518478957487716 $316 $457 forward 7 unknown #
coedge $-1 $329 $328 $205 $322 reversed $313 $-1 #
edge $-1 $458 -53.518478957487716 $323 53.518478957487716 $321 $459 forward 7 unknown #
vertex $-1 $207 $460 #
vertex $-1 $335 $461 #
straight-curve $-1 53.518478957487716 0 -5.740307120456535 0 -1 0 I I #
coedge $-1 $315 $317 $208 $327 reversed $201 $-1 #
edge $-1 $330 -22.487822316061223 $333 22.487822316061223 $326 $462 forward 7 unknown #
coedge $-1 $321 $209 $214 $336 forward $313 $-1 #
coedge $-1 $209 $321 $315 $453 reversed $313 $-1 #
vertex $-1 $210 $463 #
straight-curve $-1 0 22.487822316061223 5.740307120456535 -1 0 0 I I #
coedge $-1 $211 $316 $213 $335 reversed $125 $-1 #
vertex $-1 $327 $464 #
straight-curve $-1 0 -22.487822316061223 5.740307120456535 1 0 0 I I #
edge $-1 $216 -5.740307120456535 $324 5.740307120456535 $213 $465 forward 7 unknown #
edge $-1 $217 -5.740307120456535 $323 5.740307120456535 $214 $466 forward 7 unknown #
point $-1 53.518478957487716 -22.487822316061223 5.740307120456535 #
point $-1 53.518478957487716 22.487822316061223 5.740307120456535 #
face $-1 $-1 $353 $31 $-1 $467 reversed single #
loop $-1 $-1 $349 $219 #
plane-surface $-1 0 0 5.740307120456535 0 0 1 1 0 0 forward_v I I I I #
coedge $-1 $468 $469 $343 $470 forward $220 $-1 #
coedge $-1 $223 $222 $342 $470 reversed $85 $-1 #
edge $-1 $471 -2.2756243791081019 $231 2.2756243791081019 $222 $472 forward 7 unknown #
coedge $-1 $473 $349 $223 $346 forward $340 $-1 #
edge $-1 $347 53.518478957487716 $474 58.06972771570392 $223 $475 forward 7 unknown #
vertex $-1 $346 $476 #
straight-curve $-1 -53.518478957487716 22.487822316061223 0 0 0 -1 I I #
coedge $-1 $345 $477 $225 $350 forward $340 $-1 #
edge $-1 $354 -22.487822316061223 $347 22.487822316061223 $349 $478 forward 7 unknown #
coedge $-1 $479 $226 $477 $480 reversed $353 $-1 #
coedge $-1 $226 $479 $228 $357 reversed $353 $-1 #
loop $-1 $-1 $226 $339 #
vertex $-1 $227 $481 #
straight-curve $-1 -53.518478957487716 -22.487822316061223 0 0 0 1 I I #
coedge $-1 $229 $228 $468 $482 forward $133 $-1 #
edge $-1 $230 -2.2756243791081019 $483 2.2756243791081019 $352 $484 forward 7 unknown #
point $-1 -53.518478957487716 -22.487822316061223 2.740307120456535 #
point $-1 -53.518478957487716 22.487822316061223 2.740307120456535 #
face $-1 $-1 $375 $32 $-1 $485 reversed single #
loop $-1 $-1 $486 $233 #
plane-surface $-1 58.069727715703927 0 4.240307120456535 -1 0 0 0 0 1 forward_v I I I I #
coedge $-1 $245 $244 $487 $488 forward $234 $-1 #
coedge $-1 $489 $236 $245 $378 reversed $141 $-1 #
coedge $-1 $236 $489 $237 $367 reversed $141 $-1 #
coedge $-1 $238 $237 $490 $491 forward $89 $-1 #
edge $-1 $371 -2.275624379108109 $492 2.2756243791081019 $365 $493 forward 7 unknown #
coedge $-1 $494 $242 $238 $369 reversed $375 $-1 #
edge $-1 $495 -58.069727715703927 $370 -53.518478957487716 $368 $496 forward 7 unknown #
vertex $-1 $243 $497 #
vertex $-1 $367 $498 #
straight-curve $-1 53.518478957487716 0 5.740307120456535 0 -1 0 I I #
straight-curve $-1 53.518478957487716 -22.487822316061223 0 0 0 -1 I I #
coedge $-1 $242 $494 $244 $377 reversed $375 $-1 #
loop $-1 $-1 $242 $360 #
straight-curve $-1 53.518478957487716 22.487822316061223 0 0 0 1 I I #
edge $-1 $246 -2.2756243791081019 $499 2.2756243791081019 $374 $500 forward 7 unknown #
edge $-1 $501 -2.2756243791081019 $247 2.2756243791081019 $364 $502 forward 7 unknown #
point $-1 53.518478957487723 22.487822316061223 2.740307120456535 #
point $-1 53.518478957487723 -22.487822316061223 2.740307120456535 #
plane-surface $-1 0 0 5.740307120456535 0 0 1 1 0 0 forward_v I I I I #
coedge $-1 $392 $391 $384 $503 forward $250 $-1 #
coedge $-1 $384 $252 $254 $388 reversed $149 $-1 #
coedge $-1 $252 $383 $382 $503 reversed $149 $-1 #
coedge $-1 $260 $255 $252 $386 forward $261 $-1 #
edge $-1 $389 -36.263128310190297 $504 -34.142333455168441 $385 $505 forward 7 unknown #
coedge $-1 $254 $253 $392 $506 reversed $93 $-1 #
edge $-1 $507 -1.9959096594272027e-014 $389 4.0021094701012547 $383 $508 forward 7 unknown #
vertex $-1 $256 $509 #
straight-curve $-1 3.0301242429258011 -20.36702746103937 5.740307120456535 -1 0 0 I I #
coedge $-1 $382 $257 $260 $396 reversed $250 $-1 #
coedge $-1 $257 $382 $387 $506 forward $250 $-1 #
vertex $-1 $258 $510 #
straight-curve $-1 19.088637096352077 -22.487822316061227 29.533635199314276 0 0 1 I I #
straight-curve $-1 19.088637096352077 -22.487822316061212 2.3463257720123494 0 -0.52991925155115449 -0.84804810408105047 I I #
edge $-1 $504 -62.762243461244694 $262 -36.705466240243751 $391 $511 forward 7 unknown #
point $-1 19.088637096352073 -22.487822316061223 5.740307120456535 #
point $-1 19.088637096352077 -20.367027461039367 5.740307120456535 #
edge $-1 $512 1 $512 0 $265 $-1 forward 7 unknown #
vertex $-1 $266 $513 #
ellipse-curve $-1 0.47665336706567984 -20.16802156225592 3.2563539321278467 0 -0.84804810408105047 0.52991925155115449 1 0 0 1 I I #
point $-1 1.4766533670656798 -21.427424888550302 4.0433164462344395 #
edge $-1 $514 1 $514 0 $269 $-1 forward 7 unknown #
vertex $-1 $270 $515 #
ellipse-curve $-1 11.64384360463751 -20.16802156225592 3.2563539321278467 0 -0.84804810408105047 0.52991925155115449 1 0 0 1 I I #
point $-1 12.64384360463751 -21.427424888550302 4.0433164462344395 #
plane-surface $-1 0 0 5.740307120456535 0 0 1 1 0 0 forward_v I I I I #
coedge $-1 $418 $417 $410 $516 forward $274 $-1 #
coedge $-1 $410 $276 $278 $414 reversed $171 $-1 #
coedge $-1 $276 $409 $408 $516 reversed $171 $-1 #
coedge $-1 $284 $279 $276 $412 forward $285 $-1 #
edge $-1 $415 -10.020072539958914 $517 -5.9304332539485323 $411 $518 forward 7 unknown #
coedge $-1 $278 $277 $418 $519 reversed $107 $-1 #
edge $-1 $520 -44.97564463212246 $415 -39.636999651224464 $409 $521 forward 7 unknown #
vertex $-1 $280 $522 #
straight-curve $-1 -15.539848151376553 18.398183030050841 5.740307120456535 1 0 0 I I #
coedge $-1 $408 $281 $284 $422 reversed $274 $-1 #
coedge $-1 $281 $408 $413 $519 forward $274 $-1 #
vertex $-1 $282 $523 #
straight-curve $-1 -40.289725897104447 22.487822316061223 56.606772902055546 0 0 1 I I #
straight-curve $-1 -40.289725897104447 -11.965520031912476 31.218479694565687 0 0.76604443648966558 -0.64278761758704617 I I #
edge $-1 $517 21.869666708401766 $286 40.289725897104447 $417 $524 forward 7 unknown #
point $-1 -40.289725897104447 22.487822316061223 5.740307120456535 #
point $-1 -40.289725897104447 18.398183030050841 5.740307120456535 #
edge $-1 $525 1 $525 0 $289 $-1 forward 7 unknown #
vertex $-1 $290 $526 #
ellipse-curve $-1 -31.079696302753106 18.868842927785732 2.1484891837991893 0 0.64278761758704617 0.76604443648966558 1 0 0 1 I I #
point $-1 -30.079696302753106 20.44300267305605 4.024499676249313 #
loop $-1 $-1 $301 $293 #
plane-surface $-1 0 22.487822316061223 0 0 -1 0 0 0 -1 forward_v I I I I #
coedge $-1 $432 $296 $298 $436 reversed $186 $-1 #
coedge $-1 $296 $431 $527 $528 reversed $186 $-1 #
coedge $-1 $304 $299 $296 $434 forward $294 $-1 #
edge $-1 $437 -10.020072539958914 $529 -5.9304332539485323 $433 $530 forward 7 unknown #
coedge $-1 $298 $297 $440 $531 reversed $116 $-1 #
edge $-1 $532 -44.97564463212246 $437 -39.636999651224464 $431 $533 forward 7 unknown #
vertex $-1 $300 $534 #
straight-curve $-1 15.539848151376553 18.398183030050841 5.740307120456535 1 0 0 I I #
coedge $-1 $527 $301 $304 $444 reversed $429 $-1 #
coedge $-1 $301 $527 $435 $531 forward $429 $-1 #
vertex $-1 $302 $535 #
straight-curve $-1 21.869666708401766 22.487822316061223 56.606772902055546 0 0 1 I I #
straight-curve $-1 21.869666708401766 -11.965520031912476 31.218479694565687 0 0.76604443648966558 -0.64278761758704617 I I #
edge $-1 $529 -40.289725897104447 $305 -21.869666708401766 $439 $536 forward 7 unknown #
point $-1 21.869666708401766 22.487822316061223 5.740307120456535 #
point $-1 21.869666708401766 18.398183030050841 5.740307120456535 #
edge $-1 $537 1 $537 0 $308 $-1 forward 7 unknown #
vertex $-1 $309 $538 #
ellipse-curve $-1 31.079696302753106 18.868842927785732 2.1484891837991893 0 0.64278761758704617 0.76604443648966558 1 0 0 1 I I #
point $-1 32.079696302753106 20.44300267305605 4.024499676249313 #
plane-surface $-1 53.518478957487716 0 0 -1 0 0 0 0 1 forward_v I I I I #
coedge $-1 $317 $315 $319 $456 reversed $201 $-1 #
edge $-1 $330 -5.740307120456535 $458 5.740307120456535 $329 $539 forward 7 unknown #
vertex $-1 $456 $540 #
straight-curve $-1 -53.518478957487716 -22.487822316061223 0 0 0 -1 I I #
edge $-1 $454 -22.487822316061223 $458 22.487822316061223 $452 $541 forward 7 unknown #
straight-curve $-1 0 -22.487822316061223 -5.740307120456535 -1 0 0 I I #
vertex $-1 $322 $542 #
straight-curve $-1 0 22.487822316061223 -5.740307120456535 1 0 0 I I #
point $-1 53.518478957487716 22.487822316061223 -5.740307120456535 #
point $-1 53.518478957487716 -22.487822316061223 -5.740307120456535 #
straight-curve $-1 -53.518478957487716 0 5.740307120456535 0 -1 0 I I #
point $-1 -53.518478957487716 22.487822316061223 5.740307120456535 #
point $-1 -53.518478957487716 -22.487822316061223 5.740307120456535 #
straight-curve $-1 53.518478957487716 -22.487822316061223 0 0 0 -1 I I #
straight-curve $-1 53.518478957487716 22.487822316061223 0 0 0 -1 I I #
plane-surface $-1 0 -22.487822316061223 0 0 1 0 0 0 1 forward_v I I I I #
coedge $-1 $543 $342 $356 $482 reversed $220 $-1 #
coedge $-1 $342 $543 $473 $544 reversed $220 $-1 #
edge $-1 $474 -1.5 $471 1.5 $343 $545 forward 7 unknown #
vertex $-1 $344 $546 #
straight-curve $-1 -55.794103336595818 22.487822316061223 2.740307120456535 1 0 0 I I #
coedge $-1 $477 $345 $469 $544 forward $340 $-1 #
vertex $-1 $346 $547 #
straight-curve $-1 0 22.487822316061223 5.740307120456535 -1 0 0 I I #
point $-1 -53.518478957487716 22.487822316061223 5.740307120456535 #
coedge $-1 $349 $473 $351 $480 forward $340 $-1 #
straight-curve $-1 -53.518478957487716 0 5.740307120456535 0 1 0 I I #
coedge $-1 $352 $351 $543 $548 forward $353 $-1 #
edge $-1 $549 -58.06972771570392 $354 -53.518478957487716 $351 $550 forward 7 unknown #
point $-1 -53.518478957487716 -22.487822316061223 5.740307120456535 #
edge $-1 $483 -22.487822316061223 $471 22.487822316061223 $468 $551 forward 7 unknown #
vertex $-1 $482 $552 #
straight-curve $-1 -55.794103336595818 -22.487822316061223 2.740307120456535 -1 0 0 I I #
plane-surface $-1 0 22.487822316061223 0 0 -1 0 0 0 -1 forward_v I I I I #
coedge $-1 $487 $490 $489 $553 forward $361 $-1 #
coedge $-1 $554 $486 $363 $488 reversed $361 $-1 #
edge $-1 $499 -22.487822316061223 $501 22.487822316061223 $487 $555 forward 7 unknown #
coedge $-1 $365 $364 $486 $553 reversed $141 $-1 #
coedge $-1 $486 $554 $366 $491 reversed $361 $-1 #
edge $-1 $492 -22.487822316061223 $495 22.487822316061223 $490 $556 forward 7 unknown #
vertex $-1 $491 $557 #
straight-curve $-1 55.794103336595825 -22.487822316061223 5.740307120456535 1 0 0 I I #
coedge $-1 $374 $368 $554 $558 forward $375 $-1 #
vertex $-1 $491 $559 #
straight-curve $-1 0 22.487822316061223 5.740307120456535 -1 0 0 I I #
point $-1 53.518478957487716 22.487822316061223 5.740307120456535 #
point $-1 53.518478957487716 -22.487822316061223 5.740307120456535 #
vertex $-1 $488 $560 #
straight-curve $-1 55.794103336595825 22.487822316061223 2.740307120456535 1 0 0 I I #
vertex $-1 $553 $561 #
straight-curve $-1 55.794103336595825 -22.487822316061223 2.740307120456535 -1 0 0 I I #
edge $-1 $504 23.793328078857741 $507 27.187309427301944 $382 $562 forward 7 unknown #
vertex $-1 $396 $563 #
straight-curve $-1 -6.9681401246488726 -56.63015577122966 5.740307120456535 0 -1 0 I I #
edge $-1 $507 -9.9982643675746736 $393 16.058512853426276 $392 $564 forward 7 unknown #
vertex $-1 $506 $565 #
straight-curve $-1 -6.9681401246488726 -22.487822316061212 2.3463257720123494 0 0.52991925155115449 0.84804810408105047 I I #
point $-1 -6.9681401246488726 -20.367027461039367 5.740307120456535 #
point $-1 19.088637096352077 -22.487822316061223 2.3463257720123325 #
straight-curve $-1 55.794103336595825 -22.487822316061223 5.740307120456535 1 0 0 I I #
vertex $-1 $399 $566 #
point $-1 1.4766533670656798 -20.16802156225592 3.2563539321278467 #
vertex $-1 $403 $567 #
point $-1 12.64384360463751 -20.16802156225592 3.2563539321278467 #
edge $-1 $517 50.866465781599011 $520 54.298080670013476 $408 $568 forward 7 unknown #
vertex $-1 $422 $569 #
straight-curve $-1 -21.869666708401766 28.418255570009755 5.740307120456535 0 1 0 I I #
edge $-1 $520 6.329818557025213 $419 24.749877745727893 $418 $570 forward 7 unknown #
vertex $-1 $519 $571 #
straight-curve $-1 -21.869666708401766 -11.965520031912476 31.218479694565687 0 -0.76604443648966558 0.64278761758704617 I I #
point $-1 -21.869666708401766 18.398183030050841 5.740307120456535 #
point $-1 -40.289725897104447 22.487822316061227 2.3086922320420697 #
straight-curve $-1 0 22.487822316061223 5.740307120456535 -1 0 0 I I #
vertex $-1 $425 $572 #
point $-1 -30.079696302753106 18.868842927785732 2.1484891837991893 #
coedge $-1 $440 $439 $432 $528 forward $429 $-1 #
edge $-1 $529 50.866465781599011 $532 54.298080670013476 $527 $573 forward 7 unknown #
vertex $-1 $444 $574 #
straight-curve $-1 40.289725897104447 28.418255570009755 5.740307120456535 0 1 0 I I #
edge $-1 $532 -24.749877745727893 $441 -6.329818557025213 $440 $575 forward 7 unknown #
vertex $-1 $531 $576 #
straight-curve $-1 40.289725897104447 -11.965520031912476 31.218479694565687 0 -0.76604443648966558 0.64278761758704617 I I #
point $-1 40.289725897104447 18.398183030050841 5.740307120456535 #
point $-1 21.869666708401766 22.487822316061227 2.3086922320420697 #
straight-curve $-1 0 22.487822316061223 5.740307120456535 -1 0 0 I I #
vertex $-1 $447 $577 #
point $-1 32.079696302753106 18.868842927785732 2.1484891837991893 #
straight-curve $-1 -53.518478957487716 22.487822316061223 0 0 0 -1 I I #
point $-1 -53.518478957487716 -22.487822316061223 -5.740307120456535 #
straight-curve $-1 -53.518478957487716 0 -5.740307120456535 0 1 0 I I #
point $-1 -53.518478957487716 22.487822316061223 -5.740307120456535 #
coedge $-1 $469 $468 $479 $548 reversed $220 $-1 #
edge $-1 $474 -22.487822316061223 $549 22.487822316061223 $469 $578 forward 7 unknown #
straight-curve $-1 -58.06972771570392 22.487822316061223 4.240307120456535 0 0 -1 I I #
point $-1 -58.06972771570392 22.487822316061223 2.740307120456535 #
point $-1 -58.06972771570392 22.487822316061223 5.740307120456535 #
edge $-1 $549 -1.5 $483 1.5 $543 $579 forward 7 unknown #
vertex $-1 $544 $580 #
straight-curve $-1 0 -22.487822316061223 5.740307120456535 1 0 0 I I #
straight-curve $-1 -58.06972771570392 0 2.740307120456535 0 1 0 I I #
point $-1 -58.06972771570392 -22.487822316061223 2.740307120456535 #
edge $-1 $492 -1.5 $501 1.5 $486 $581 forward 7 unknown #
coedge $-1 $490 $487 $494 $558 reversed $361 $-1 #
straight-curve $-1 58.069727715703927 0 2.740307120456535 0 -1 0 I I #
straight-curve $-1 58.069727715703927 0 5.740307120456535 0 1 0 I I #
point $-1 58.069727715703927 -22.487822316061223 5.740307120456535 #
edge $-1 $495 -1.5 $499 1.5 $554 $582 forward 7 unknown #
point $-1 58.069727715703927 22.487822316061223 5.740307120456535 #
point $-1 58.069727715703927 22.487822316061223 2.740307120456535 #
point $-1 58.069727715703927 -22.487822316061223 2.740307120456535 #
straight-curve $-1 -6.9681401246488726 -22.487822316061227 29.533635199314276 0 0 -1 I I #
point $-1 -6.968140124648869 -22.487822316061223 5.740307120456535 #
straight-curve $-1 3.0301242429258011 -22.487822316061223 2.3463257720123325 1 0 0 I I #
point $-1 -6.9681401246488726 -22.487822316061223 2.3463257720123325 #
point $-1 0.47665336706567984 -19.319973458174868 2.7264346805766921 #
point $-1 11.64384360463751 -19.319973458174868 2.7264346805766921 #
straight-curve $-1 -21.869666708401766 22.487822316061223 56.606772902055546 0 0 -1 I I #
point $-1 -21.869666708401766 22.487822316061223 5.740307120456535 #
straight-curve $-1 -15.539848151376553 22.487822316061223 2.3086922320420733 -1 0 0 I I #
point $-1 -21.869666708401766 22.487822316061227 2.3086922320420697 #
point $-1 -31.079696302753106 18.226055310198685 1.3824447473095236 #
straight-curve $-1 40.289725897104447 22.487822316061223 56.606772902055546 0 0 -1 I I #
point $-1 40.289725897104447 22.487822316061223 5.740307120456535 #
straight-curve $-1 15.539848151376553 22.487822316061223 2.3086922320420733 -1 0 0 I I #
point $-1 40.289725897104447 22.487822316061227 2.3086922320420697 #
point $-1 31.079696302753106 18.226055310198685 1.3824447473095236 #
straight-curve $-1 -58.06972771570392 0 5.740307120456535 0 -1 0 I I #
straight-curve $-1 -58.06972771570392 -22.487822316061223 4.240307120456535 0 0 -1 I I #
point $-1 -58.06972771570392 -22.487822316061223 5.740307120456535 #
straight-curve $-1 58.069727715703927 -22.487822316061223 4.240307120456535 0 0 -1 I I #
straight-curve $-1 58.069727715703927 22.487822316061223 4.240307120456535 0 0 -1 I I #
End-of-ACIS-data 