500 0 5 0           
7 Unknown 11 ACIS 5.0 NT 24 Fri Mar 26 20:32:11 1999 
-1 9.9999999999999995e-007 1e-010 
body $-1 $5 $-1 $6 #
body $-1 $7 $-1 $8 #
body $-1 $9 $-1 $10 #
body $-1 $11 $-1 $12 #
body $-1 $13 $-1 $14 #
lump $-1 $-1 $15 $0 #
transform $-1 1 0 0 0 1 0 0 0 1 54.673299356059452 38.132152679027818 9.6415565949200577 1 rotate no_reflect no_shear #
lump $-1 $-1 $16 $1 #
transform $-1 1 0 0 0 1 0 0 0 1 54.673299356059452 38.132152679027818 9.6415565949200577 1 rotate no_reflect no_shear #
lump $-1 $-1 $17 $2 #
transform $-1 1 0 0 0 1 0 0 0 1 54.673299356059452 38.132152679027818 9.6415565949200577 1 rotate no_reflect no_shear #
lump $-1 $-1 $18 $3 #
transform $-1 1 0 0 0 1 0 0 0 1 54.673299356059452 38.132152679027818 9.6415565949200577 1 rotate no_reflect no_shear #
lump $-1 $-1 $19 $4 #
transform $-1 1 0 0 0 1 0 0 0 1 54.673299356059452 38.132152679027818 9.6415565949200577 1 rotate no_reflect no_shear #
shell $-1 $-1 $-1 $20 $-1 $5 #
shell $-1 $-1 $-1 $21 $-1 $7 #
shell $-1 $-1 $-1 $22 $-1 $9 #
shell $-1 $-1 $-1 $23 $-1 $11 #
shell $-1 $-1 $-1 $24 $-1 $13 #
face $-1 $25 $26 $15 $-1 $27 forward single #
face $-1 $28 $29 $16 $-1 $30 forward single #
face $-1 $31 $32 $17 $-1 $33 reversed single #
face $-1 $34 $35 $18 $-1 $36 forward single #
face $-1 $37 $38 $19 $-1 $39 forward single #
face $-1 $40 $41 $15 $-1 $42 reversed single #
loop $-1 $-1 $43 $20 #
plane-surface $-1 0 0 9.6415565949200577 0 0 1 1 0 0 forward_v I I I I #
face $-1 $44 $45 $16 $-1 $46 reversed single #
loop $-1 $-1 $47 $21 #
plane-surface $-1 -54.673299356059452 0 0 1 0 0 0 0 -1 forward_v I I I I #
face $-1 $48 $49 $17 $-1 $50 reversed single #
loop $-1 $-1 $51 $22 #
plane-surface $-1 30.48236224988208 28.870905160175333 157.65710076474195 0 1 0 0.5877852598018023 0 0.80901698891910034 forward_v I I I I #
face $-1 $52 $53 $18 $-1 $54 forward single #
loop $-1 $55 $56 $23 #
cone-surface $-1 50.973123449284856 31.516975879847472 6.6595632446407684 -0.5877852598018023 0 -0.80901698891910034 0.80901698891910034 0 -0.5877852598018023 1 I I 0 1 1 forward I I I I #
face $-1 $57 $58 $19 $-1 $59 forward single #
loop $-1 $60 $61 $24 #
cone-surface $-1 50.973123449284856 35.48608195935568 6.6595632446407684 -0.5877852598018023 0 -0.80901698891910034 0.80901698891910034 0 -0.5877852598018023 1 I I 0 1 1 forward I I I I #
face $-1 $62 $63 $15 $-1 $64 reversed single #
loop $-1 $-1 $65 $25 #
plane-surface $-1 0 0 -9.6415565949200577 0 0 1 1 0 0 forward_v I I I I #
coedge $-1 $66 $67 $68 $69 forward $26 $-1 #
face $-1 $70 $71 $16 $-1 $72 reversed single #
loop $-1 $-1 $73 $28 #
plane-surface $-1 0 0 -9.6415565949200577 0 0 1 1 0 0 forward_v I I I I #
coedge $-1 $74 $75 $76 $77 forward $29 $-1 #
face $-1 $78 $79 $17 $-1 $80 reversed single #
loop $-1 $-1 $81 $31 #
plane-surface $-1 -33.789956682564146 33.501528919601576 69.193844726118343 0.5877852598018023 0 0.80901698891910034 0.80901698891910034 0 -0.5877852598018023 forward_v I I I I #
coedge $-1 $82 $83 $84 $85 reversed $32 $-1 #
face $-1 $-1 $86 $18 $-1 $87 forward single #
loop $-1 $88 $89 $34 #
cone-surface $-1 50.22733737865709 31.516975879847472 5.6330768005259095 -0.5877852598018023 0 -0.80901698891910034 0.40450849445955017 0 -0.29389262990090115 1 I I -0.70710678118654813 0.70710678118654691 0.5 forward I I I I #
loop $-1 $-1 $90 $23 #
coedge $-1 $56 $56 $91 $92 reversed $35 $-1 #
face $-1 $-1 $93 $19 $-1 $94 forward single #
loop $-1 $95 $96 $37 #
cone-surface $-1 50.22733737865709 35.48608195935568 5.6330768005259095 -0.5877852598018023 0 -0.80901698891910034 0.40450849445955017 0 -0.29389262990090115 1 I I -0.70710678118654813 0.70710678118654691 0.5 forward I I I I #
loop $-1 $-1 $97 $24 #
coedge $-1 $61 $61 $98 $99 reversed $38 $-1 #
face $-1 $100 $101 $15 $-1 $102 reversed single #
loop $-1 $-1 $103 $40 #
plane-surface $-1 0 -38.132152679027818 0 0 1 0 0 0 1 forward_v I I I I #
coedge $-1 $104 $105 $106 $107 forward $41 $-1 #
coedge $-1 $108 $43 $109 $110 forward $26 $-1 #
coedge $-1 $43 $108 $111 $112 forward $26 $-1 #
coedge $-1 $113 $114 $43 $69 reversed $115 $-1 #
edge $-1 $116 -38.132152679027818 $117 38.132152679027818 $68 $118 forward 7 unknown #
face $-1 $119 $120 $16 $-1 $121 reversed single #
loop $-1 $-1 $122 $44 #
plane-surface $-1 -59.977061760749308 -29.792112628091559 0 0 1 0 0 0 1 forward_v I I I I #
coedge $-1 $123 $124 $75 $125 forward $45 $-1 #
coedge $-1 $126 $47 $127 $128 reversed $29 $-1 #
coedge $-1 $47 $126 $73 $125 reversed $29 $-1 #
coedge $-1 $129 $130 $47 $77 reversed $131 $-1 #
edge $-1 $132 -9.6415565949200577 $133 9.6415565949200577 $76 $134 forward 7 unknown #
face $-1 $135 $136 $17 $-1 $137 forward single #
loop $-1 $-1 $138 $48 #
plane-surface $-1 0 38.132152679027818 0 0 -1 0 0 0 -1 forward_v I I I I #
coedge $-1 $139 $140 $141 $142 reversed $49 $-1 #
coedge $-1 $83 $51 $143 $144 reversed $32 $-1 #
coedge $-1 $51 $82 $139 $145 reversed $32 $-1 #
coedge $-1 $141 $146 $51 $85 forward $147 $-1 #
edge $-1 $148 69.186993787450916 $149 73.90702458869886 $84 $150 forward 7 unknown #
loop $-1 $-1 $91 $52 #
plane-surface $-1 -33.789956682564146 33.501528919601576 69.193844726118343 0.5877852598018023 0 0.80901698891910034 0.80901698891910034 0 -0.5877852598018023 forward_v I I I I #
loop $-1 $-1 $151 $34 #
coedge $-1 $89 $89 $90 $152 reversed $53 $-1 #
coedge $-1 $90 $90 $89 $152 forward $55 $-1 #
coedge $-1 $91 $91 $56 $92 forward $86 $-1 #
edge $-1 $153 0 $153 6.2831853071796004 $91 $154 forward 7 unknown #
loop $-1 $-1 $98 $57 #
plane-surface $-1 -33.789956682564146 33.501528919601576 69.193844726118343 0.5877852598018023 0 0.80901698891910034 0.80901698891910034 0 -0.5877852598018023 forward_v I I I I #
loop $-1 $-1 $155 $37 #
coedge $-1 $96 $96 $97 $156 reversed $58 $-1 #
coedge $-1 $97 $97 $96 $156 forward $60 $-1 #
coedge $-1 $98 $98 $61 $99 forward $93 $-1 #
edge $-1 $157 0 $157 6.2831853071796004 $98 $158 forward 7 unknown #
face $-1 $159 $160 $15 $-1 $161 reversed single #
loop $-1 $-1 $162 $62 #
plane-surface $-1 -54.673299356059452 0 0 1 0 0 0 0 -1 forward_v I I I I #
coedge $-1 $163 $111 $164 $165 forward $63 $-1 #
coedge $-1 $166 $65 $163 $167 forward $41 $-1 #
coedge $-1 $65 $166 $168 $169 forward $41 $-1 #
coedge $-1 $114 $113 $65 $107 reversed $115 $-1 #
edge $-1 $170 -38.132152679027818 $171 38.132152679027818 $106 $172 forward 7 unknown #
coedge $-1 $67 $66 $173 $174 forward $26 $-1 #
coedge $-1 $175 $176 $66 $110 reversed $160 $-1 #
edge $-1 $117 -54.673299356059452 $177 54.673299356059452 $109 $178 forward 7 unknown #
coedge $-1 $103 $179 $67 $112 reversed $63 $-1 #
edge $-1 $180 -54.673299356059452 $116 54.673299356059452 $111 $181 forward 7 unknown #
coedge $-1 $106 $68 $179 $182 forward $115 $-1 #
coedge $-1 $68 $106 $175 $183 reversed $115 $-1 #
loop $-1 $-1 $113 $159 #
vertex $-1 $69 $184 #
vertex $-1 $69 $185 #
straight-curve $-1 54.673299356059452 0 9.6415565949200577 0 1 0 I I #
face $-1 $186 $131 $16 $-1 $187 reversed single #
loop $-1 $-1 $188 $70 #
plane-surface $-1 -65.280824165439157 -26.987978279694431 0 1 0 0 0 0 -1 forward_v I I I I #
coedge $-1 $189 $190 $191 $192 forward $71 $-1 #
coedge $-1 $193 $73 $189 $194 forward $45 $-1 #
coedge $-1 $73 $193 $129 $195 forward $45 $-1 #
edge $-1 $132 24.183843931297304 $196 29.792112628091559 $73 $197 forward 7 unknown #
coedge $-1 $75 $74 $198 $199 forward $29 $-1 #
coedge $-1 $200 $201 $74 $128 forward $202 $-1 #
edge $-1 $203 -29.792112628091559 $133 -24.183843931297304 $127 $204 forward 7 unknown #
coedge $-1 $205 $76 $124 $195 reversed $131 $-1 #
coedge $-1 $76 $205 $200 $206 reversed $131 $-1 #
loop $-1 $-1 $76 $119 #
vertex $-1 $125 $207 #
vertex $-1 $206 $208 #
straight-curve $-1 -54.673299356059452 -24.183843931297304 0 0 0 1 I I #
face $-1 $-1 $147 $17 $-1 $209 reversed single #
loop $-1 $-1 $210 $78 #
plane-surface $-1 0 0 9.6415565949200577 0 0 1 1 0 0 forward_v I I I I #
coedge $-1 $211 $212 $140 $213 forward $79 $-1 #
coedge $-1 $214 $81 $83 $145 forward $49 $-1 #
coedge $-1 $81 $214 $138 $213 reversed $49 $-1 #
coedge $-1 $215 $84 $81 $142 forward $147 $-1 #
edge $-1 $149 12.120140700374545 $216 21.381388219227031 $141 $217 forward 7 unknown #
coedge $-1 $218 $210 $82 $144 forward $136 $-1 #
edge $-1 $219 32.935553299022942 $148 39.432118231118409 $143 $220 forward 7 unknown #
edge $-1 $149 -109.34659871211888 $219 -101.31640278165357 $83 $221 forward 7 unknown #
coedge $-1 $84 $215 $218 $222 reversed $147 $-1 #
loop $-1 $-1 $141 $135 #
vertex $-1 $222 $223 #
vertex $-1 $85 $224 #
straight-curve $-1 54.673299356059452 28.870905160175333 78.828550382370977 0 0 -1 I I #
coedge $-1 $151 $151 $-1 $225 reversed $88 $-1 #
edge $-1 $226 0 $226 6.2831853071796004 $89 $227 forward 7 unknown #
vertex $-1 $92 $228 #
ellipse-curve $-1 51.425016890011726 31.516975879847472 7.2815411942960884 0.5877852598018023 0 0.80901698891910034 0.80901698891910034 0 -0.5877852598018023 1 I I #
coedge $-1 $155 $155 $-1 $229 reversed $95 $-1 #
edge $-1 $230 0 $230 6.2831853071796004 $96 $231 forward 7 unknown #
vertex $-1 $99 $232 #
ellipse-curve $-1 51.425016890011726 35.48608195935568 7.2815411942960884 0.5877852598018023 0 0.80901698891910034 0.80901698891910034 0 -0.5877852598018023 1 I I #
face $-1 $-1 $115 $15 $-1 $233 reversed single #
loop $-1 $-1 $175 $100 #
plane-surface $-1 0 38.132152679027818 0 0 -1 0 0 0 -1 forward_v I I I I #
coedge $-1 $234 $173 $176 $235 forward $101 $-1 #
coedge $-1 $179 $103 $104 $167 reversed $63 $-1 #
coedge $-1 $173 $234 $103 $165 reversed $101 $-1 #
edge $-1 $180 -9.6415565949200577 $236 9.6415565949200577 $164 $237 forward 7 unknown #
coedge $-1 $105 $104 $234 $238 forward $41 $-1 #
edge $-1 $171 -54.673299356059452 $236 54.673299356059452 $163 $239 forward 7 unknown #
coedge $-1 $176 $175 $105 $169 reversed $160 $-1 #
edge $-1 $240 -54.673299356059452 $170 54.673299356059452 $168 $241 forward 7 unknown #
vertex $-1 $107 $242 #
vertex $-1 $182 $243 #
straight-curve $-1 54.673299356059452 0 -9.6415565949200577 0 -1 0 I I #
coedge $-1 $162 $164 $108 $174 reversed $101 $-1 #
edge $-1 $177 -38.132152679027818 $180 38.132152679027818 $173 $244 forward 7 unknown #
coedge $-1 $168 $109 $114 $183 forward $160 $-1 #
coedge $-1 $109 $168 $162 $235 reversed $160 $-1 #
vertex $-1 $110 $245 #
straight-curve $-1 0 38.132152679027818 9.6415565949200577 -1 0 0 I I #
coedge $-1 $111 $163 $113 $182 reversed $63 $-1 #
vertex $-1 $174 $246 #
straight-curve $-1 0 -38.132152679027818 9.6415565949200577 1 0 0 I I #
edge $-1 $116 -9.6415565949200577 $171 9.6415565949200577 $113 $247 forward 7 unknown #
edge $-1 $117 -9.6415565949200577 $170 9.6415565949200577 $114 $248 forward 7 unknown #
point $-1 54.673299356059452 -38.132152679027818 9.6415565949200577 #
point $-1 54.673299356059452 38.132152679027818 9.6415565949200577 #
face $-1 $-1 $202 $16 $-1 $249 forward single #
plane-surface $-1 -59.977061760749308 -24.183843931297304 0 0 -1 0 0 0 -1 forward_v I I I I #
coedge $-1 $250 $251 $205 $252 forward $120 $-1 #
coedge $-1 $198 $122 $123 $194 reversed $71 $-1 #
coedge $-1 $122 $198 $201 $253 reversed $71 $-1 #
coedge $-1 $251 $250 $122 $192 reversed $120 $-1 #
edge $-1 $254 -9.6415565949200577 $255 9.6415565949200577 $191 $256 forward 7 unknown #
coedge $-1 $124 $123 $250 $257 forward $45 $-1 #
edge $-1 $196 -5.3037624046898486 $255 5.3037624046898486 $189 $258 forward 7 unknown #
edge $-1 $259 -5.3037624046898486 $132 5.3037624046898486 $129 $260 forward 7 unknown #
vertex $-1 $194 $261 #
straight-curve $-1 -54.673299356059452 0 -9.6415565949200577 0 -1 0 I I #
coedge $-1 $190 $189 $126 $199 reversed $71 $-1 #
edge $-1 $203 -9.6415565949200577 $196 9.6415565949200577 $198 $262 forward 7 unknown #
coedge $-1 $263 $127 $130 $206 forward $202 $-1 #
coedge $-1 $127 $263 $190 $253 forward $202 $-1 #
loop $-1 $-1 $127 $186 #
vertex $-1 $128 $264 #
straight-curve $-1 -54.673299356059452 0 9.6415565949200577 0 1 0 I I #
coedge $-1 $130 $129 $188 $252 reversed $131 $-1 #
edge $-1 $133 -5.3037624046898486 $265 5.3037624046898486 $130 $266 forward 7 unknown #
point $-1 -54.673299356059459 -24.183843931297304 -9.6415565949200577 #
point $-1 -54.673299356059459 -24.183843931297304 9.6415565949200577 #
plane-surface $-1 54.673299356059452 0 0 -1 0 0 0 0 1 forward_v I I I I #
coedge $-1 $143 $267 $214 $268 forward $136 $-1 #
coedge $-1 $212 $138 $267 $269 reversed $79 $-1 #
coedge $-1 $138 $211 $215 $270 forward $79 $-1 #
edge $-1 $216 -75.342713207087925 $271 -67.3125172766226 $138 $272 forward 7 unknown #
coedge $-1 $140 $139 $210 $268 reversed $49 $-1 #
coedge $-1 $146 $141 $212 $270 reversed $147 $-1 #
vertex $-1 $142 $273 #
straight-curve $-1 54.673299356059452 16.750764459800788 4.9215257936721208 0 1 0 I I #
coedge $-1 $267 $143 $146 $222 forward $136 $-1 #
vertex $-1 $144 $274 #
straight-curve $-1 15.24118112494104 28.870905160175333 9.6415565949200612 1 0 0 I I #
straight-curve $-1 -33.789956682564146 28.870905160175333 69.193844726118343 -0.80901698891910034 0 0.5877852598018023 I I #
edge $-1 $148 28.870905160175333 $275 38.132152679027818 $146 $276 forward 7 unknown #
point $-1 54.673299356059452 28.870905160175333 9.6415565949200577 #
point $-1 54.673299356059452 28.870905160175333 4.9215257936721173 #
edge $-1 $277 1 $277 0 $151 $-1 forward 7 unknown #
vertex $-1 $152 $278 #
ellipse-curve $-1 50.521230008557993 31.516975879847472 6.0375852949854592 0.5877852598018023 0 0.80901698891910034 0.80901698891910034 0 -0.5877852598018023 1 I I #
point $-1 52.234033878930816 31.516975879847472 6.6937559344942752 #
edge $-1 $279 1 $279 0 $155 $-1 forward 7 unknown #
vertex $-1 $156 $280 #
ellipse-curve $-1 50.521230008557993 35.48608195935568 6.0375852949854592 0.5877852598018023 0 0.80901698891910034 0.80901698891910034 0 -0.5877852598018023 1 I I #
point $-1 52.234033878930816 35.48608195935568 6.6937559344942752 #
plane-surface $-1 54.673299356059452 0 0 -1 0 0 0 0 1 forward_v I I I I #
coedge $-1 $164 $162 $166 $238 reversed $101 $-1 #
edge $-1 $177 -9.6415565949200577 $240 9.6415565949200577 $176 $281 forward 7 unknown #
vertex $-1 $238 $282 #
straight-curve $-1 -54.673299356059452 -38.132152679027818 0 0 0 -1 I I #
edge $-1 $236 -38.132152679027818 $240 38.132152679027818 $234 $283 forward 7 unknown #
straight-curve $-1 0 -38.132152679027818 -9.6415565949200577 -1 0 0 I I #
vertex $-1 $169 $284 #
straight-curve $-1 0 38.132152679027818 -9.6415565949200577 1 0 0 I I #
point $-1 54.673299356059452 38.132152679027818 -9.6415565949200577 #
point $-1 54.673299356059452 -38.132152679027818 -9.6415565949200577 #
straight-curve $-1 -54.673299356059452 0 9.6415565949200577 0 -1 0 I I #
point $-1 -54.673299356059452 38.132152679027818 9.6415565949200577 #
point $-1 -54.673299356059452 -38.132152679027818 9.6415565949200577 #
straight-curve $-1 54.673299356059452 -38.132152679027818 0 0 0 -1 I I #
straight-curve $-1 54.673299356059452 38.132152679027818 0 0 0 -1 I I #
plane-surface $-1 0 0 9.6415565949200577 0 0 1 1 0 0 forward_v I I I I #
coedge $-1 $191 $188 $193 $257 reversed $120 $-1 #
coedge $-1 $188 $191 $263 $285 reversed $120 $-1 #
edge $-1 $265 -9.6415565949200577 $259 9.6415565949200577 $205 $286 forward 7 unknown #
edge $-1 $254 -5.3037624046898486 $203 5.3037624046898486 $190 $287 forward 7 unknown #
vertex $-1 $285 $288 #
vertex $-1 $257 $289 #
straight-curve $-1 -65.280824165439157 -29.792112628091559 0 0 0 -1 I I #
edge $-1 $255 -2.8041343483971275 $259 2.8041343483971275 $250 $290 forward 7 unknown #
straight-curve $-1 -59.977061760749308 -29.792112628091559 -9.6415565949200577 -1 0 0 I I #
vertex $-1 $195 $291 #
straight-curve $-1 -59.977061760749308 -24.183843931297304 -9.6415565949200577 1 0 0 I I #
point $-1 -54.673299356059459 -29.792112628091559 -9.6415565949200577 #
straight-curve $-1 -54.673299356059452 -29.792112628091559 0 0 0 -1 I I #
coedge $-1 $201 $200 $251 $285 forward $202 $-1 #
point $-1 -54.673299356059459 -29.792112628091559 9.6415565949200577 #
vertex $-1 $206 $292 #
straight-curve $-1 -59.977061760749308 -24.183843931297304 9.6415565949200577 -1 0 0 I I #
coedge $-1 $210 $218 $211 $269 forward $136 $-1 #
edge $-1 $271 -21.381388219227031 $219 -12.120140700374545 $210 $293 forward 7 unknown #
edge $-1 $275 -54.673299356059452 $271 -48.176734423963985 $211 $294 forward 7 unknown #
edge $-1 $275 -9.6415565949200577 $216 -4.9215257936721271 $215 $295 forward 7 unknown #
vertex $-1 $268 $296 #
straight-curve $-1 -6.2802356197341567 38.132152679027818 49.206862050272981 -0.80901698891910034 0 0.5877852598018023 I I #
point $-1 54.673299356059452 38.132152679027818 4.9215257936721271 #
point $-1 48.176734423963985 28.870905160175333 9.6415565949200541 #
vertex $-1 $222 $297 #
straight-curve $-1 54.673299356059452 0 9.6415565949200577 0 1 0 I I #
vertex $-1 $225 $298 #
point $-1 51.33024699747709 31.516975879847472 5.4498000351836566 #
vertex $-1 $229 $299 #
point $-1 51.33024699747709 35.48608195935568 5.4498000351836566 #
straight-curve $-1 -54.673299356059452 38.132152679027818 0 0 0 -1 I I #
point $-1 -54.673299356059452 -38.132152679027818 -9.6415565949200577 #
straight-curve $-1 -54.673299356059452 0 -9.6415565949200577 0 1 0 I I #
point $-1 -54.673299356059452 38.132152679027818 -9.6415565949200577 #
edge $-1 $265 -2.8041343483971275 $254 2.8041343483971275 $251 $300 forward 7 unknown #
straight-curve $-1 -65.280824165439157 -24.183843931297304 0 0 0 -1 I I #
straight-curve $-1 -59.977061760749308 -29.792112628091559 9.6415565949200577 1 0 0 I I #
point $-1 -65.280824165439157 -29.792112628091559 9.6415565949200577 #
point $-1 -65.280824165439157 -29.792112628091559 -9.6415565949200577 #
straight-curve $-1 -65.280824165439157 -26.987978279694431 -9.6415565949200577 0 1 0 I I #
point $-1 -65.280824165439157 -24.183843931297304 -9.6415565949200577 #
point $-1 -65.280824165439157 -24.183843931297304 9.6415565949200577 #
straight-curve $-1 48.176734423963978 16.750764459800788 9.6415565949200541 0 -1 0 I I #
straight-curve $-1 0 38.132152679027818 9.6415565949200577 -1 0 0 I I #
straight-curve $-1 54.673299356059452 38.132152679027818 0 0 0 -1 I I #
point $-1 48.176734423963985 38.132152679027818 9.6415565949200541 #
point $-1 54.673299356059452 38.132152679027818 9.6415565949200577 #
point $-1 49.933444748756187 31.516975879847472 5.2285683060663599 #
point $-1 49.933444748756187 35.48608195935568 5.2285683060663599 #
straight-curve $-1 -65.280824165439157 -26.987978279694431 9.6415565949200577 0 -1 0 I I #
End-of-ACIS-data 