500 0 5 0           
7 Unknown 11 ACIS 5.0 NT 24 Thu Mar 25 19:07:34 1999 
-1 9.9999999999999995e-007 1e-010 
body $-1 $5 $-1 $6 #
body $-1 $7 $-1 $8 #
body $-1 $9 $-1 $10 #
body $-1 $11 $-1 $12 #
body $-1 $13 $-1 $14 #
lump $-1 $-1 $15 $0 #
transform $-1 1 0 0 0 1 0 0 0 1 48.131351664784688 31.500939233277599 10.106315002588907 1 rotate no_reflect no_shear #
lump $-1 $-1 $16 $1 #
transform $-1 1 0 0 0 1 0 0 0 1 48.131351664784688 31.500939233277599 10.106315002588907 1 rotate no_reflect no_shear #
lump $-1 $-1 $17 $2 #
transform $-1 1 0 0 0 1 0 0 0 1 48.131351664784688 31.500939233277599 10.106315002588907 1 rotate no_reflect no_shear #
lump $-1 $-1 $18 $3 #
transform $-1 1 0 0 0 1 0 0 0 1 48.131351664784688 31.500939233277599 10.106315002588907 1 rotate no_reflect no_shear #
lump $-1 $-1 $19 $4 #
transform $-1 1 0 0 0 1 0 0 0 1 48.131351664784688 31.500939233277599 10.106315002588907 1 rotate no_reflect no_shear #
shell $-1 $-1 $-1 $20 $-1 $5 #
shell $-1 $-1 $-1 $21 $-1 $7 #
shell $-1 $-1 $-1 $22 $-1 $9 #
shell $-1 $-1 $-1 $23 $-1 $11 #
shell $-1 $-1 $-1 $24 $-1 $13 #
face $-1 $25 $26 $15 $-1 $27 forward single #
face $-1 $28 $29 $16 $-1 $30 reversed single #
face $-1 $31 $32 $17 $-1 $33 forward single #
face $-1 $34 $35 $18 $-1 $36 reversed single #
face $-1 $37 $38 $19 $-1 $39 forward single #
face $-1 $40 $41 $15 $-1 $42 reversed single #
loop $-1 $-1 $43 $20 #
plane-surface $-1 0 0 10.106315002588907 0 0 1 1 0 0 forward_v I I I I #
face $-1 $44 $45 $16 $-1 $46 reversed single #
loop $-1 $-1 $47 $21 #
plane-surface $-1 0 -26.044213845747375 7.1063150025889072 0 0 1 1 0 0 forward_v I I I I #
face $-1 $48 $49 $17 $-1 $50 reversed single #
loop $-1 $-1 $51 $22 #
plane-surface $-1 0 31.500939233277599 0 0 -1 0 0 0 -1 forward_v I I I I #
face $-1 $52 $53 $18 $-1 $54 reversed single #
loop $-1 $-1 $55 $23 #
plane-surface $-1 -121.87286142770645 14.400320296394508 66.568327207054637 0 1 0 -0.7660444514056185 0 0.64278759981090561 forward_v I I I I #
face $-1 $56 $57 $19 $-1 $58 forward single #
loop $-1 $59 $60 $24 #
cone-surface $-1 -44.872405510755215 17.460519949806205 6.5706331585590778 0.7660444514056185 0 -0.64278759981090561 0.64278759981090561 0 0.7660444514056185 1 I I 0 1 1 forward I I I I #
face $-1 $61 $62 $15 $-1 $63 reversed single #
loop $-1 $-1 $64 $25 #
plane-surface $-1 0 0 -10.106315002588907 0 0 1 1 0 0 forward_v I I I I #
coedge $-1 $65 $66 $67 $68 forward $26 $-1 #
face $-1 $69 $70 $16 $-1 $71 reversed single #
loop $-1 $-1 $72 $28 #
plane-surface $-1 0 -20.587488458217152 8.6063150025889072 0 -1 0 0 0 -1 forward_v I I I I #
coedge $-1 $73 $74 $75 $76 reversed $29 $-1 #
face $-1 $77 $78 $17 $-1 $79 reversed single #
loop $-1 $-1 $80 $31 #
plane-surface $-1 0 0 -10.106315002588907 0 0 1 1 0 0 forward_v I I I I #
coedge $-1 $81 $82 $83 $84 forward $32 $-1 #
face $-1 $85 $86 $18 $-1 $87 reversed single #
loop $-1 $-1 $88 $34 #
plane-surface $-1 -48.131351664784674 17.460519949806205 4.6918551825314623 -0.7660444514056185 0 0.64278759981090561 0.64278759981090561 0 0.7660444514056185 forward_v I I I I #
coedge $-1 $89 $90 $91 $92 reversed $35 $-1 #
face $-1 $-1 $93 $19 $-1 $94 forward single #
loop $-1 $95 $96 $37 #
cone-surface $-1 -43.502072690565988 17.460519949806205 5.4207874246525183 0.7660444514056185 0 -0.64278759981090561 0.3213937999054528 0 0.38302222570280925 1 I I -0.70710678118654746 0.70710678118654746 0.5 forward I I I I #
loop $-1 $-1 $97 $24 #
coedge $-1 $60 $60 $98 $99 reversed $38 $-1 #
face $-1 $100 $101 $15 $-1 $102 reversed single #
loop $-1 $-1 $103 $40 #
plane-surface $-1 0 -31.500939233277599 0 0 1 0 0 0 1 forward_v I I I I #
coedge $-1 $104 $105 $106 $107 forward $41 $-1 #
coedge $-1 $108 $43 $109 $110 forward $26 $-1 #
coedge $-1 $43 $108 $111 $112 forward $26 $-1 #
coedge $-1 $113 $114 $43 $68 reversed $115 $-1 #
edge $-1 $116 -31.500939233277599 $117 31.500939233277599 $67 $118 forward 7 unknown #
face $-1 $119 $120 $16 $-1 $121 reversed single #
loop $-1 $-1 $122 $44 #
plane-surface $-1 -48.131351664784688 0 0 1 0 0 0 0 -1 forward_v I I I I #
coedge $-1 $123 $124 $125 $126 reversed $45 $-1 #
coedge $-1 $127 $47 $128 $129 reversed $29 $-1 #
coedge $-1 $47 $127 $123 $130 forward $29 $-1 #
coedge $-1 $125 $131 $47 $76 forward $132 $-1 #
edge $-1 $133 -18.478832310403909 $134 -7.5653815353434641 $75 $135 forward 7 unknown #
face $-1 $136 $137 $17 $-1 $138 reversed single #
loop $-1 $-1 $139 $48 #
plane-surface $-1 -32.169931175482112 36.991049048307438 0 1 0 0 0 0 -1 forward_v I I I I #
coedge $-1 $140 $141 $82 $142 forward $49 $-1 #
coedge $-1 $143 $51 $144 $145 reversed $32 $-1 #
coedge $-1 $51 $143 $80 $142 reversed $32 $-1 #
coedge $-1 $146 $147 $51 $84 reversed $148 $-1 #
edge $-1 $149 -10.106315002588907 $150 10.106315002588907 $83 $151 forward 7 unknown #
face $-1 $152 $153 $18 $-1 $154 reversed single #
loop $-1 $-1 $155 $52 #
plane-surface $-1 -121.87286142770645 20.520719603217902 66.568327207054637 0 -1 0 0.7660444514056185 0 -0.64278759981090561 forward_v I I I I #
coedge $-1 $156 $157 $158 $159 reversed $53 $-1 #
coedge $-1 $90 $55 $160 $161 reversed $35 $-1 #
coedge $-1 $55 $89 $156 $162 reversed $35 $-1 #
coedge $-1 $158 $163 $55 $92 forward $164 $-1 #
edge $-1 $165 12.805079049068539 $166 17.348350168154667 $91 $167 forward 7 unknown #
loop $-1 $-1 $98 $56 #
plane-surface $-1 -48.131351664784674 17.460519949806205 4.6918551825314623 -0.7660444514056185 0 0.64278759981090561 0.64278759981090561 0 0.7660444514056185 forward_v I I I I #
loop $-1 $-1 $168 $37 #
coedge $-1 $96 $96 $97 $169 reversed $57 $-1 #
coedge $-1 $97 $97 $96 $169 forward $59 $-1 #
coedge $-1 $98 $98 $60 $99 forward $93 $-1 #
edge $-1 $170 0 $170 6.2831853071796004 $98 $171 forward 7 unknown #
face $-1 $172 $173 $15 $-1 $174 reversed single #
loop $-1 $-1 $175 $61 #
plane-surface $-1 -48.131351664784688 0 0 1 0 0 0 0 -1 forward_v I I I I #
coedge $-1 $176 $111 $177 $178 forward $62 $-1 #
coedge $-1 $179 $64 $176 $180 forward $41 $-1 #
coedge $-1 $64 $179 $181 $182 forward $41 $-1 #
coedge $-1 $114 $113 $64 $107 reversed $115 $-1 #
edge $-1 $183 -31.500939233277599 $184 31.500939233277599 $106 $185 forward 7 unknown #
coedge $-1 $66 $65 $186 $187 forward $26 $-1 #
coedge $-1 $188 $189 $65 $110 reversed $173 $-1 #
edge $-1 $117 -48.131351664784688 $190 48.131351664784688 $109 $191 forward 7 unknown #
coedge $-1 $103 $192 $66 $112 reversed $62 $-1 #
edge $-1 $193 -48.131351664784688 $116 48.131351664784688 $111 $194 forward 7 unknown #
coedge $-1 $106 $67 $192 $195 forward $115 $-1 #
coedge $-1 $67 $106 $188 $196 reversed $115 $-1 #
loop $-1 $-1 $113 $172 #
vertex $-1 $68 $197 #
vertex $-1 $68 $198 #
straight-curve $-1 48.131351664784688 0 10.106315002588907 0 1 0 I I #
face $-1 $199 $200 $16 $-1 $201 forward single #
loop $-1 $-1 $128 $69 #
plane-surface $-1 0 -31.500939233277599 0 0 1 0 0 0 1 forward_v I I I I #
coedge $-1 $202 $203 $204 $205 forward $70 $-1 #
coedge $-1 $204 $72 $74 $130 reversed $45 $-1 #
coedge $-1 $72 $204 $206 $207 reversed $45 $-1 #
coedge $-1 $208 $75 $72 $126 forward $132 $-1 #
edge $-1 $134 2.8031575012944536 $209 5.8031575012944536 $125 $210 forward 7 unknown #
coedge $-1 $74 $73 $202 $211 reversed $29 $-1 #
coedge $-1 $212 $213 $73 $129 forward $120 $-1 #
edge $-1 $214 -48.131351664784688 $133 48.131351664784688 $128 $215 forward 7 unknown #
edge $-1 $216 -48.131351664784688 $134 48.131351664784688 $123 $217 forward 7 unknown #
coedge $-1 $75 $208 $212 $218 forward $132 $-1 #
loop $-1 $-1 $125 $199 #
vertex $-1 $129 $219 #
vertex $-1 $76 $220 #
straight-curve $-1 48.131351664784688 -13.022106922873688 7.1063150025889072 0 1 0 I I #
face $-1 $221 $148 $17 $-1 $222 reversed single #
loop $-1 $-1 $223 $77 #
plane-surface $-1 -30.044326417544493 42.481158863337285 0 0 -1 0 0 0 -1 forward_v I I I I #
coedge $-1 $224 $225 $226 $227 forward $78 $-1 #
coedge $-1 $228 $80 $224 $229 forward $49 $-1 #
coedge $-1 $80 $228 $146 $230 forward $49 $-1 #
edge $-1 $149 27.918721659606874 $231 32.169931175482112 $80 $232 forward 7 unknown #
coedge $-1 $82 $81 $233 $234 forward $32 $-1 #
coedge $-1 $235 $236 $81 $145 forward $237 $-1 #
edge $-1 $238 -32.169931175482112 $150 -27.918721659606874 $144 $239 forward 7 unknown #
coedge $-1 $240 $83 $141 $230 reversed $148 $-1 #
coedge $-1 $83 $240 $235 $241 reversed $148 $-1 #
loop $-1 $-1 $83 $136 #
vertex $-1 $142 $242 #
vertex $-1 $241 $243 #
straight-curve $-1 -27.918721659606874 31.500939233277599 0 0 0 1 I I #
face $-1 $-1 $164 $18 $-1 $244 forward single #
loop $-1 $-1 $245 $85 #
plane-surface $-1 -48.131351664784688 0 0 1 0 0 0 0 -1 forward_v I I I I #
coedge $-1 $246 $247 $248 $249 reversed $86 $-1 #
coedge $-1 $250 $88 $90 $162 forward $53 $-1 #
coedge $-1 $88 $250 $246 $251 forward $53 $-1 #
coedge $-1 $248 $91 $88 $159 forward $164 $-1 #
edge $-1 $166 5.6700603214914054 $252 11.7904596283148 $158 $253 forward 7 unknown #
coedge $-1 $254 $255 $89 $161 forward $153 $-1 #
edge $-1 $256 -28.592308420995874 $165 -23.177848600938411 $160 $257 forward 7 unknown #
edge $-1 $166 -7.0680752404412415 $256 2.2061860048766535e-014 $90 $258 forward 7 unknown #
coedge $-1 $91 $248 $254 $259 forward $164 $-1 #
loop $-1 $-1 $248 $152 #
vertex $-1 $161 $260 #
vertex $-1 $92 $261 #
straight-curve $-1 -60.936430713853227 14.400320296394508 10.106315002588907 1 0 0 I I #
coedge $-1 $168 $168 $-1 $262 reversed $95 $-1 #
edge $-1 $263 0 $263 6.2831853071796004 $96 $264 forward 7 unknown #
vertex $-1 $99 $265 #
ellipse-curve $-1 -45.859716105241624 17.460519949806205 7.3990850925601777 -0.7660444514056185 0 0.64278759981090561 0.64278759981090561 0 0.7660444514056185 1 I I #
face $-1 $-1 $115 $15 $-1 $266 reversed single #
loop $-1 $-1 $188 $100 #
plane-surface $-1 0 31.500939233277599 0 0 -1 0 0 0 -1 forward_v I I I I #
coedge $-1 $267 $186 $189 $268 forward $101 $-1 #
coedge $-1 $192 $103 $104 $180 reversed $62 $-1 #
coedge $-1 $186 $267 $103 $178 reversed $101 $-1 #
edge $-1 $193 -10.106315002588907 $269 10.106315002588907 $177 $270 forward 7 unknown #
coedge $-1 $105 $104 $267 $271 forward $41 $-1 #
edge $-1 $184 -48.131351664784688 $269 48.131351664784688 $176 $272 forward 7 unknown #
coedge $-1 $189 $188 $105 $182 reversed $173 $-1 #
edge $-1 $273 -48.131351664784688 $183 48.131351664784688 $181 $274 forward 7 unknown #
vertex $-1 $107 $275 #
vertex $-1 $195 $276 #
straight-curve $-1 48.131351664784688 0 -10.106315002588907 0 -1 0 I I #
coedge $-1 $175 $177 $108 $187 reversed $101 $-1 #
edge $-1 $190 -31.500939233277599 $193 31.500939233277599 $186 $277 forward 7 unknown #
coedge $-1 $181 $109 $114 $196 forward $173 $-1 #
coedge $-1 $109 $181 $175 $268 reversed $173 $-1 #
vertex $-1 $110 $278 #
straight-curve $-1 0 31.500939233277599 10.106315002588907 -1 0 0 I I #
coedge $-1 $111 $176 $113 $195 reversed $62 $-1 #
vertex $-1 $187 $279 #
straight-curve $-1 0 -31.500939233277599 10.106315002588907 1 0 0 I I #
edge $-1 $116 -10.106315002588907 $184 10.106315002588907 $113 $280 forward 7 unknown #
edge $-1 $117 -10.106315002588907 $183 10.106315002588907 $114 $281 forward 7 unknown #
point $-1 48.131351664784688 -31.500939233277599 10.106315002588907 #
point $-1 48.131351664784688 31.500939233277599 10.106315002588907 #
face $-1 $-1 $132 $16 $-1 $282 reversed single #
loop $-1 $-1 $206 $119 #
plane-surface $-1 0 0 10.106315002588907 0 0 1 1 0 0 forward_v I I I I #
coedge $-1 $283 $122 $127 $211 forward $70 $-1 #
coedge $-1 $122 $283 $284 $285 reversed $70 $-1 #
coedge $-1 $124 $123 $122 $205 reversed $45 $-1 #
edge $-1 $286 -5.8031575012944536 $216 -2.8031575012944536 $122 $287 forward 7 unknown #
coedge $-1 $284 $288 $124 $207 forward $200 $-1 #
edge $-1 $209 -48.131351664784688 $286 48.131351664784688 $206 $289 forward 7 unknown #
coedge $-1 $131 $125 $288 $290 reversed $132 $-1 #
vertex $-1 $126 $291 #
straight-curve $-1 48.131351664784688 -20.587488458217152 4.3031575012944536 0 0 1 I I #
edge $-1 $216 7.5653815353434641 $214 18.478832310403909 $202 $292 forward 7 unknown #
coedge $-1 $293 $128 $131 $218 reversed $120 $-1 #
coedge $-1 $128 $293 $283 $294 forward $120 $-1 #
vertex $-1 $129 $295 #
straight-curve $-1 0 -31.500939233277599 7.1063150025889072 1 0 0 I I #
vertex $-1 $211 $296 #
straight-curve $-1 0 -20.587488458217152 7.1063150025889072 1 0 0 I I #
edge $-1 $297 -10.106315002588907 $133 -7.1063150025889072 $131 $298 forward 7 unknown #
point $-1 48.131351664784688 -31.500939233277599 7.1063150025889072 #
point $-1 48.131351664784688 -20.587488458217152 7.1063150025889072 #
face $-1 $-1 $237 $17 $-1 $299 forward single #
plane-surface $-1 -27.918721659606874 36.991049048307438 0 -1 0 0 0 0 1 forward_v I I I I #
coedge $-1 $300 $301 $240 $302 forward $137 $-1 #
coedge $-1 $233 $139 $140 $229 reversed $78 $-1 #
coedge $-1 $139 $233 $236 $303 reversed $78 $-1 #
coedge $-1 $301 $300 $139 $227 reversed $137 $-1 #
edge $-1 $304 -10.106315002588907 $305 10.106315002588907 $226 $306 forward 7 unknown #
coedge $-1 $141 $140 $300 $307 forward $49 $-1 #
edge $-1 $231 -5.4901098150298466 $305 5.4901098150298466 $224 $308 forward 7 unknown #
edge $-1 $309 -5.4901098150298466 $149 5.4901098150298466 $146 $310 forward 7 unknown #
vertex $-1 $229 $311 #
straight-curve $-1 0 31.500939233277599 -10.106315002588907 -1 0 0 I I #
coedge $-1 $225 $224 $143 $234 reversed $78 $-1 #
edge $-1 $238 -10.106315002588907 $231 10.106315002588907 $233 $312 forward 7 unknown #
coedge $-1 $313 $144 $147 $241 forward $237 $-1 #
coedge $-1 $144 $313 $225 $303 forward $237 $-1 #
loop $-1 $-1 $144 $221 #
vertex $-1 $145 $314 #
straight-curve $-1 0 31.500939233277599 10.106315002588907 1 0 0 I I #
coedge $-1 $147 $146 $223 $302 reversed $148 $-1 #
edge $-1 $150 -5.4901098150298466 $315 5.4901098150298466 $147 $316 forward 7 unknown #
point $-1 -27.918721659606874 31.500939233277592 -10.106315002588907 #
point $-1 -27.918721659606874 31.500939233277592 10.106315002588907 #
plane-surface $-1 0 0 10.106315002588907 0 0 1 1 0 0 forward_v I I I I #
coedge $-1 $255 $254 $247 $317 forward $153 $-1 #
coedge $-1 $247 $155 $157 $251 reversed $86 $-1 #
coedge $-1 $155 $246 $245 $317 reversed $86 $-1 #
coedge $-1 $163 $158 $155 $249 forward $164 $-1 #
edge $-1 $252 -17.348350168154667 $318 -12.805079049068539 $248 $319 forward 7 unknown #
coedge $-1 $157 $156 $255 $320 reversed $53 $-1 #
edge $-1 $321 -2.2061860048766535e-014 $252 7.0680752404412415 $246 $322 forward 7 unknown #
vertex $-1 $159 $323 #
straight-curve $-1 -43.58808054569856 8.7302599749031025 10.106315002588907 0 1 0 I I #
coedge $-1 $245 $160 $163 $259 reversed $153 $-1 #
coedge $-1 $160 $245 $250 $320 forward $153 $-1 #
vertex $-1 $161 $324 #
straight-curve $-1 -48.131351664784688 14.400320296394508 33.284163603527318 0 0 1 I I #
straight-curve $-1 -48.131351664784674 14.400320296394508 4.6918551825314623 -0.64278759981090561 0 -0.7660444514056185 I I #
edge $-1 $318 -20.520719603217902 $165 -14.400320296394508 $254 $325 forward 7 unknown #
point $-1 -48.131351664784688 14.400320296394508 10.106315002588907 #
point $-1 -43.58808054569856 14.400320296394508 10.106315002588907 #
edge $-1 $326 1 $326 0 $168 $-1 forward 7 unknown #
vertex $-1 $169 $327 #
ellipse-curve $-1 -43.885094916268798 17.460519949806205 5.7421812245579709 -0.7660444514056185 0 0.64278759981090561 0.64278759981090561 0 0.7660444514056185 1 I I #
point $-1 -45.216928505430722 17.460519949806205 8.1651295439658025 #
plane-surface $-1 48.131351664784688 0 0 -1 0 0 0 0 1 forward_v I I I I #
coedge $-1 $177 $175 $179 $271 reversed $101 $-1 #
edge $-1 $190 -10.106315002588907 $273 10.106315002588907 $189 $328 forward 7 unknown #
vertex $-1 $271 $329 #
straight-curve $-1 -48.131351664784688 -31.500939233277599 0 0 0 -1 I I #
edge $-1 $269 -31.500939233277599 $273 31.500939233277599 $267 $330 forward 7 unknown #
straight-curve $-1 0 -31.500939233277599 -10.106315002588907 -1 0 0 I I #
vertex $-1 $182 $331 #
straight-curve $-1 0 31.500939233277599 -10.106315002588907 1 0 0 I I #
point $-1 48.131351664784688 31.500939233277599 -10.106315002588907 #
point $-1 48.131351664784688 -31.500939233277599 -10.106315002588907 #
straight-curve $-1 -48.131351664784688 0 10.106315002588907 0 -1 0 I I #
point $-1 -48.131351664784688 31.500939233277599 10.106315002588907 #
point $-1 -48.131351664784688 -31.500939233277599 10.106315002588907 #
straight-curve $-1 48.131351664784688 -31.500939233277599 0 0 0 -1 I I #
straight-curve $-1 48.131351664784688 31.500939233277599 0 0 0 -1 I I #
plane-surface $-1 48.131351664784688 0 0 -1 0 0 0 0 1 forward_v I I I I #
coedge $-1 $203 $202 $213 $294 reversed $70 $-1 #
coedge $-1 $332 $206 $203 $285 forward $200 $-1 #
edge $-1 $286 20.587488458217152 $333 31.500939233277599 $203 $334 forward 7 unknown #
vertex $-1 $285 $335 #
straight-curve $-1 -48.131351664784688 -20.587488458217152 4.3031575012944536 0 0 -1 I I #
coedge $-1 $206 $332 $208 $290 forward $200 $-1 #
straight-curve $-1 0 -20.587488458217152 10.106315002588907 -1 0 0 I I #
edge $-1 $297 -31.500939233277599 $209 -20.587488458217152 $208 $336 forward 7 unknown #
point $-1 48.131351664784688 -20.587488458217152 10.106315002588907 #
straight-curve $-1 -48.131351664784688 -13.022106922873688 7.1063150025889072 0 -1 0 I I #
coedge $-1 $213 $212 $332 $337 reversed $120 $-1 #
edge $-1 $333 -10.106315002588907 $214 -7.1063150025889072 $283 $338 forward 7 unknown #
point $-1 -48.131351664784688 -31.500939233277599 7.1063150025889072 #
point $-1 -48.131351664784688 -20.587488458217152 7.1063150025889072 #
vertex $-1 $290 $339 #
straight-curve $-1 48.131351664784688 -31.500939233277599 0 0 0 -1 I I #
plane-surface $-1 0 0 10.106315002588907 0 0 1 1 0 0 forward_v I I I I #
coedge $-1 $226 $223 $228 $307 reversed $137 $-1 #
coedge $-1 $223 $226 $313 $340 reversed $137 $-1 #
edge $-1 $315 -10.106315002588907 $309 10.106315002588907 $240 $341 forward 7 unknown #
edge $-1 $304 -5.4901098150298466 $238 5.4901098150298466 $225 $342 forward 7 unknown #
vertex $-1 $340 $343 #
vertex $-1 $307 $344 #
straight-curve $-1 -32.169931175482112 42.481158863337285 0 0 0 -1 I I #
edge $-1 $305 -2.1256047579376194 $309 2.1256047579376194 $300 $345 forward 7 unknown #
straight-curve $-1 -32.169931175482112 36.991049048307438 -10.106315002588907 0 1 0 I I #
vertex $-1 $230 $346 #
straight-curve $-1 -27.918721659606874 36.991049048307438 -10.106315002588907 0 -1 0 I I #
point $-1 -32.169931175482112 31.500939233277592 -10.106315002588907 #
straight-curve $-1 -32.169931175482112 31.500939233277599 0 0 0 -1 I I #
coedge $-1 $236 $235 $301 $340 forward $237 $-1 #
point $-1 -32.169931175482112 31.500939233277592 10.106315002588907 #
vertex $-1 $241 $347 #
straight-curve $-1 -27.918721659606874 36.991049048307438 10.106315002588907 0 1 0 I I #
edge $-1 $318 23.177848600938411 $321 28.592308420995874 $245 $348 forward 7 unknown #
vertex $-1 $259 $349 #
straight-curve $-1 -60.936430713853227 20.520719603217902 10.106315002588907 -1 0 0 I I #
edge $-1 $321 -11.7904596283148 $256 -5.6700603214914054 $255 $350 forward 7 unknown #
vertex $-1 $320 $351 #
straight-curve $-1 -48.131351664784674 20.520719603217902 4.6918551825314623 0.64278759981090561 0 0.7660444514056185 I I #
point $-1 -43.58808054569856 20.520719603217902 10.106315002588907 #
point $-1 -48.131351664784688 14.400320296394508 4.6918551825314454 #
straight-curve $-1 -48.131351664784688 0 10.106315002588907 0 -1 0 I I #
vertex $-1 $262 $352 #
point $-1 -43.242307316457889 17.460519949806205 6.5082256759635895 #
straight-curve $-1 -48.131351664784688 31.500939233277599 0 0 0 -1 I I #
point $-1 -48.131351664784688 -31.500939233277599 -10.106315002588907 #
straight-curve $-1 -48.131351664784688 0 -10.106315002588907 0 1 0 I I #
point $-1 -48.131351664784688 31.500939233277599 -10.106315002588907 #
coedge $-1 $288 $284 $293 $337 forward $200 $-1 #
vertex $-1 $285 $353 #
straight-curve $-1 -48.131351664784688 0 10.106315002588907 0 -1 0 I I #
point $-1 -48.131351664784688 -20.587488458217152 10.106315002588907 #
straight-curve $-1 48.131351664784688 0 10.106315002588907 0 1 0 I I #
edge $-1 $333 -48.131351664784688 $297 48.131351664784688 $293 $354 forward 7 unknown #
straight-curve $-1 -48.131351664784688 -31.500939233277599 0 0 0 -1 I I #
point $-1 48.131351664784688 -31.500939233277599 10.106315002588907 #
edge $-1 $315 -2.1256047579376194 $304 2.1256047579376194 $301 $355 forward 7 unknown #
straight-curve $-1 -27.918721659606874 42.481158863337285 0 0 0 -1 I I #
straight-curve $-1 -32.169931175482112 36.991049048307438 10.106315002588907 0 -1 0 I I #
point $-1 -32.169931175482112 42.481158863337285 10.106315002588907 #
point $-1 -32.169931175482112 42.481158863337285 -10.106315002588907 #
straight-curve $-1 -30.044326417544493 42.481158863337285 -10.106315002588907 1 0 0 I I #
point $-1 -27.918721659606874 42.481158863337285 -10.106315002588907 #
point $-1 -27.918721659606874 42.481158863337285 10.106315002588907 #
straight-curve $-1 -48.131351664784688 20.520719603217902 33.284163603527318 0 0 -1 I I #
point $-1 -48.131351664784688 20.520719603217902 10.106315002588907 #
straight-curve $-1 -48.131351664784688 8.7302599749031025 4.691855182531441 0 -1 0 I I #
point $-1 -48.131351664784688 20.520719603217902 4.6918551825314454 #
point $-1 -43.119050464863179 17.460519949806205 5.0993936247470657 #
point $-1 -48.131351664784688 -31.500939233277599 10.106315002588907 #
straight-curve $-1 0 -31.500939233277599 10.106315002588907 1 0 0 I I #
straight-curve $-1 -30.044326417544493 42.481158863337285 10.106315002588907 -1 0 0 I I #
End-of-ACIS-data 