500 0 5 0           
7 Unknown 11 ACIS 5.0 NT 24 Fri Mar 26 03:18:35 1999 
-1 9.9999999999999995e-007 1e-010 
body $-1 $5 $-1 $6 #
body $-1 $7 $-1 $8 #
body $-1 $9 $-1 $10 #
body $-1 $11 $-1 $12 #
body $-1 $13 $-1 $14 #
lump $-1 $-1 $15 $0 #
transform $-1 1 0 0 0 1 0 0 0 1 42.589190343943599 24.940288094599058 5.8484507480477381 1 rotate no_reflect no_shear #
lump $-1 $-1 $16 $1 #
transform $-1 1 0 0 0 1 0 0 0 1 42.589190343943599 24.940288094599058 5.8484507480477381 1 rotate no_reflect no_shear #
lump $-1 $-1 $17 $2 #
transform $-1 1 0 0 0 1 0 0 0 1 42.589190343943599 24.940288094599058 5.8484507480477381 1 rotate no_reflect no_shear #
lump $-1 $-1 $18 $3 #
transform $-1 1 0 0 0 1 0 0 0 1 42.589190343943599 24.940288094599058 5.8484507480477381 1 rotate no_reflect no_shear #
lump $-1 $-1 $19 $4 #
transform $-1 1 0 0 0 1 0 0 0 1 42.589190343943599 24.940288094599058 5.8484507480477381 1 rotate no_reflect no_shear #
shell $-1 $-1 $-1 $20 $-1 $5 #
shell $-1 $-1 $-1 $21 $-1 $7 #
shell $-1 $-1 $-1 $22 $-1 $9 #
shell $-1 $-1 $-1 $23 $-1 $11 #
shell $-1 $-1 $-1 $24 $-1 $13 #
face $-1 $25 $26 $15 $-1 $27 forward single #
face $-1 $28 $29 $16 $-1 $30 forward single #
face $-1 $31 $32 $17 $-1 $33 forward single #
face $-1 $34 $35 $18 $-1 $36 reversed single #
face $-1 $37 $38 $19 $-1 $39 forward single #
face $-1 $40 $41 $15 $-1 $42 reversed single #
loop $-1 $-1 $43 $20 #
plane-surface $-1 0 0 5.8484507480477381 0 0 1 1 0 0 forward_v I I I I #
face $-1 $44 $45 $16 $-1 $46 reversed single #
loop $-1 $-1 $47 $21 #
plane-surface $-1 -42.589190343943599 0 0 1 0 0 0 0 -1 forward_v I I I I #
face $-1 $48 $49 $17 $-1 $50 reversed single #
loop $-1 $-1 $51 $22 #
plane-surface $-1 42.589190343943599 0 0 -1 0 0 0 0 1 forward_v I I I I #
face $-1 $52 $53 $18 $-1 $54 reversed single #
loop $-1 $-1 $55 $23 #
plane-surface $-1 6.7168033070123272 73.766642856063498 88.547860556979643 1 0 0 0 -0.86602541151947299 -0.49999998660252726 forward_v I I I I #
face $-1 $56 $57 $19 $-1 $58 forward single #
loop $-1 $59 $60 $24 #
cone-surface $-1 11.776876411294573 23.199890000638586 3.8144228008260797 0 -0.86602541151947299 -0.49999998660252726 0.5 0 0 1 I I 0 1 0.5 forward I I I I #
face $-1 $61 $62 $15 $-1 $63 reversed single #
loop $-1 $-1 $64 $25 #
plane-surface $-1 0 0 -5.8484507480477381 0 0 1 1 0 0 forward_v I I I I #
coedge $-1 $65 $66 $67 $68 forward $26 $-1 #
face $-1 $69 $70 $16 $-1 $71 reversed single #
loop $-1 $-1 $72 $28 #
plane-surface $-1 0 0 -5.8484507480477381 0 0 1 1 0 0 forward_v I I I I #
coedge $-1 $73 $74 $75 $76 forward $29 $-1 #
face $-1 $77 $78 $17 $-1 $79 reversed single #
loop $-1 $-1 $80 $31 #
plane-surface $-1 0 0 -5.8484507480477381 0 0 1 1 0 0 forward_v I I I I #
coedge $-1 $81 $82 $83 $84 forward $32 $-1 #
face $-1 $85 $86 $18 $-1 $87 reversed single #
loop $-1 $-1 $88 $34 #
plane-surface $-1 11.776876411294573 6.6827365685639961e-007 45.958671354211077 0 0.86602541151947299 0.49999998660252726 1 0 0 forward_v I I I I #
coedge $-1 $89 $90 $91 $92 reversed $35 $-1 #
face $-1 $-1 $93 $19 $-1 $94 forward single #
loop $-1 $95 $96 $37 #
cone-surface $-1 11.776876411294573 22.134306348521019 3.1992078144114737 0 -0.86602541151947299 -0.49999998660252726 0.25 0 0 1 I I -0.70710678118654746 0.70710678118654746 0.25 forward I I I I #
loop $-1 $-1 $97 $24 #
coedge $-1 $60 $60 $98 $99 reversed $38 $-1 #
face $-1 $100 $101 $15 $-1 $102 reversed single #
loop $-1 $-1 $103 $40 #
plane-surface $-1 0 -24.940288094599058 0 0 1 0 0 0 1 forward_v I I I I #
coedge $-1 $104 $105 $106 $107 forward $41 $-1 #
coedge $-1 $108 $43 $109 $110 forward $26 $-1 #
coedge $-1 $43 $108 $111 $112 forward $26 $-1 #
coedge $-1 $113 $114 $43 $68 reversed $115 $-1 #
edge $-1 $116 -24.940288094599058 $117 24.940288094599058 $67 $118 forward 7 unknown #
face $-1 $119 $120 $16 $-1 $121 reversed single #
loop $-1 $-1 $122 $44 #
plane-surface $-1 -45.731054406408262 -16.870711191442929 0 0 1 0 0 0 1 forward_v I I I I #
coedge $-1 $123 $124 $74 $125 forward $45 $-1 #
coedge $-1 $126 $47 $127 $128 reversed $29 $-1 #
coedge $-1 $47 $126 $72 $125 reversed $29 $-1 #
coedge $-1 $129 $130 $47 $76 reversed $131 $-1 #
edge $-1 $132 -5.8484507480477381 $133 5.8484507480477381 $75 $134 forward 7 unknown #
face $-1 $135 $136 $17 $-1 $137 reversed single #
loop $-1 $-1 $83 $48 #
plane-surface $-1 45.731054406408262 -16.870711191442929 0 0 1 0 0 0 1 forward_v I I I I #
coedge $-1 $138 $139 $82 $140 forward $49 $-1 #
coedge $-1 $141 $51 $142 $143 reversed $32 $-1 #
coedge $-1 $51 $141 $80 $140 reversed $32 $-1 #
coedge $-1 $144 $145 $51 $84 reversed $78 $-1 #
edge $-1 $146 -5.8484507480477381 $147 5.8484507480477381 $83 $148 forward 7 unknown #
face $-1 $149 $150 $18 $-1 $151 reversed single #
loop $-1 $-1 $152 $52 #
plane-surface $-1 16.836949515576819 73.766642856063498 88.547860556979643 -1 0 0 0 0.86602541151947299 0.49999998660252726 forward_v I I I I #
coedge $-1 $153 $154 $155 $156 reversed $53 $-1 #
coedge $-1 $90 $55 $157 $158 reversed $35 $-1 #
coedge $-1 $55 $89 $153 $159 reversed $35 $-1 #
coedge $-1 $155 $160 $55 $92 forward $161 $-1 #
edge $-1 $162 11.943033333432691 $163 13.725674922878241 $91 $164 forward 7 unknown #
loop $-1 $-1 $98 $56 #
plane-surface $-1 11.776876411294573 6.6827365685639961e-007 45.958671354211077 0 0.86602541151947299 0.49999998660252726 1 0 0 forward_v I I I I #
loop $-1 $-1 $165 $37 #
coedge $-1 $96 $96 $97 $166 reversed $57 $-1 #
coedge $-1 $97 $97 $96 $166 forward $59 $-1 #
coedge $-1 $98 $98 $60 $99 forward $93 $-1 #
edge $-1 $167 -5.8642364702369861e-016 $167 6.2831853071795996 $98 $168 forward 7 unknown #
face $-1 $169 $170 $15 $-1 $171 reversed single #
loop $-1 $-1 $172 $61 #
plane-surface $-1 -42.589190343943599 0 0 1 0 0 0 0 -1 forward_v I I I I #
coedge $-1 $173 $111 $174 $175 forward $62 $-1 #
coedge $-1 $176 $64 $173 $177 forward $41 $-1 #
coedge $-1 $64 $176 $178 $179 forward $41 $-1 #
coedge $-1 $114 $113 $64 $107 reversed $115 $-1 #
edge $-1 $180 -24.940288094599058 $181 24.940288094599058 $106 $182 forward 7 unknown #
coedge $-1 $66 $65 $183 $184 forward $26 $-1 #
coedge $-1 $185 $186 $65 $110 reversed $170 $-1 #
edge $-1 $117 -42.589190343943599 $187 42.589190343943599 $109 $188 forward 7 unknown #
coedge $-1 $103 $189 $66 $112 reversed $62 $-1 #
edge $-1 $190 -42.589190343943599 $116 42.589190343943599 $111 $191 forward 7 unknown #
coedge $-1 $106 $67 $189 $192 forward $115 $-1 #
coedge $-1 $67 $106 $185 $193 reversed $115 $-1 #
loop $-1 $-1 $113 $169 #
vertex $-1 $68 $194 #
vertex $-1 $68 $195 #
straight-curve $-1 42.589190343943599 0 5.8484507480477381 0 1 0 I I #
face $-1 $196 $131 $16 $-1 $197 reversed single #
loop $-1 $-1 $198 $69 #
plane-surface $-1 -48.872918468872925 -15.307048894973256 0 1 0 0 0 0 -1 forward_v I I I I #
coedge $-1 $199 $200 $201 $202 forward $70 $-1 #
coedge $-1 $203 $72 $199 $204 forward $45 $-1 #
coedge $-1 $72 $203 $129 $205 forward $45 $-1 #
edge $-1 $132 13.743386598503582 $206 16.870711191442929 $72 $207 forward 7 unknown #
coedge $-1 $74 $73 $208 $209 forward $29 $-1 #
coedge $-1 $210 $211 $73 $128 forward $212 $-1 #
edge $-1 $213 -16.870711191442929 $133 -13.743386598503582 $127 $214 forward 7 unknown #
coedge $-1 $215 $75 $124 $205 reversed $131 $-1 #
coedge $-1 $75 $215 $210 $216 reversed $131 $-1 #
loop $-1 $-1 $75 $119 #
vertex $-1 $125 $217 #
vertex $-1 $216 $218 #
straight-curve $-1 -42.589190343943599 -13.743386598503582 0 0 0 1 I I #
face $-1 $219 $220 $17 $-1 $221 reversed single #
loop $-1 $-1 $222 $77 #
plane-surface $-1 45.731054406408262 -13.743386598503582 0 0 -1 0 0 0 -1 forward_v I I I I #
coedge $-1 $223 $80 $224 $225 forward $49 $-1 #
coedge $-1 $80 $223 $144 $226 forward $49 $-1 #
edge $-1 $146 -16.870711191442929 $227 -13.743386598503582 $80 $228 forward 7 unknown #
coedge $-1 $82 $81 $229 $230 forward $32 $-1 #
coedge $-1 $231 $232 $81 $143 forward $233 $-1 #
edge $-1 $234 13.743386598503582 $147 16.870711191442929 $142 $235 forward 7 unknown #
coedge $-1 $236 $83 $139 $226 reversed $78 $-1 #
coedge $-1 $83 $236 $231 $237 reversed $78 $-1 #
vertex $-1 $140 $238 #
vertex $-1 $237 $239 #
straight-curve $-1 42.589190343943599 -16.870711191442929 0 0 0 1 I I #
face $-1 $-1 $161 $18 $-1 $240 forward single #
loop $-1 $-1 $241 $85 #
plane-surface $-1 0 24.940288094599058 0 0 -1 0 0 0 -1 forward_v I I I I #
coedge $-1 $242 $243 $244 $245 reversed $86 $-1 #
coedge $-1 $246 $88 $90 $159 forward $53 $-1 #
coedge $-1 $88 $246 $242 $247 forward $53 $-1 #
coedge $-1 $244 $91 $88 $156 forward $161 $-1 #
edge $-1 $163 0.8283651013650406 $248 10.948511309929533 $155 $249 forward 7 unknown #
coedge $-1 $250 $251 $89 $158 forward $150 $-1 #
edge $-1 $252 -41.513105445357475 $162 -38.425479530442082 $157 $253 forward 7 unknown #
edge $-1 $163 46.315292914775448 $252 49.880576189198116 $90 $254 forward 7 unknown #
coedge $-1 $91 $244 $250 $255 forward $161 $-1 #
loop $-1 $-1 $244 $149 #
vertex $-1 $158 $256 #
vertex $-1 $92 $257 #
straight-curve $-1 6.7168033070123272 36.883321428031749 5.848450748047739 0 -1 0 I I #
coedge $-1 $165 $165 $-1 $258 reversed $95 $-1 #
edge $-1 $259 0 $259 6.2831853071796004 $96 $260 forward 7 unknown #
vertex $-1 $99 $261 #
ellipse-curve $-1 11.776876411294573 24.048967299876278 4.304637790590049 0 0.86602541151947299 0.49999998660252726 0.5 0 0 1 I I #
face $-1 $-1 $115 $15 $-1 $262 reversed single #
loop $-1 $-1 $185 $100 #
plane-surface $-1 0 24.940288094599058 0 0 -1 0 0 0 -1 forward_v I I I I #
coedge $-1 $263 $183 $186 $264 forward $101 $-1 #
coedge $-1 $189 $103 $104 $177 reversed $62 $-1 #
coedge $-1 $183 $263 $103 $175 reversed $101 $-1 #
edge $-1 $190 -5.8484507480477381 $265 5.8484507480477381 $174 $266 forward 7 unknown #
coedge $-1 $105 $104 $263 $267 forward $41 $-1 #
edge $-1 $181 -42.589190343943599 $265 42.589190343943599 $173 $268 forward 7 unknown #
coedge $-1 $186 $185 $105 $179 reversed $170 $-1 #
edge $-1 $269 -42.589190343943599 $180 42.589190343943599 $178 $270 forward 7 unknown #
vertex $-1 $107 $271 #
vertex $-1 $192 $272 #
straight-curve $-1 42.589190343943599 0 -5.8484507480477381 0 -1 0 I I #
coedge $-1 $172 $174 $108 $184 reversed $101 $-1 #
edge $-1 $187 -24.940288094599058 $190 24.940288094599058 $183 $273 forward 7 unknown #
coedge $-1 $178 $109 $114 $193 forward $170 $-1 #
coedge $-1 $109 $178 $172 $264 reversed $170 $-1 #
vertex $-1 $110 $274 #
straight-curve $-1 0 24.940288094599058 5.8484507480477381 -1 0 0 I I #
coedge $-1 $111 $173 $113 $192 reversed $62 $-1 #
vertex $-1 $184 $275 #
straight-curve $-1 0 -24.940288094599058 5.8484507480477381 1 0 0 I I #
edge $-1 $116 -5.8484507480477381 $181 5.8484507480477381 $113 $276 forward 7 unknown #
edge $-1 $117 -5.8484507480477381 $180 5.8484507480477381 $114 $277 forward 7 unknown #
point $-1 42.589190343943599 -24.940288094599058 5.8484507480477381 #
point $-1 42.589190343943599 24.940288094599058 5.8484507480477381 #
face $-1 $-1 $212 $16 $-1 $278 forward single #
plane-surface $-1 -45.731054406408262 -13.743386598503582 0 0 -1 0 0 0 -1 forward_v I I I I #
coedge $-1 $279 $280 $215 $281 forward $120 $-1 #
coedge $-1 $208 $122 $123 $204 reversed $70 $-1 #
coedge $-1 $122 $208 $211 $282 reversed $70 $-1 #
coedge $-1 $280 $279 $122 $202 reversed $120 $-1 #
edge $-1 $283 -5.8484507480477381 $284 5.8484507480477381 $201 $285 forward 7 unknown #
coedge $-1 $124 $123 $279 $286 forward $45 $-1 #
edge $-1 $206 -3.1418640624646628 $284 3.1418640624646628 $199 $287 forward 7 unknown #
edge $-1 $288 -3.1418640624646628 $132 3.1418640624646628 $129 $289 forward 7 unknown #
vertex $-1 $204 $290 #
straight-curve $-1 -42.589190343943599 0 -5.8484507480477381 0 -1 0 I I #
coedge $-1 $200 $199 $126 $209 reversed $70 $-1 #
edge $-1 $213 -5.8484507480477381 $206 5.8484507480477381 $208 $291 forward 7 unknown #
coedge $-1 $292 $127 $130 $216 forward $212 $-1 #
coedge $-1 $127 $292 $200 $282 forward $212 $-1 #
loop $-1 $-1 $127 $196 #
vertex $-1 $128 $293 #
straight-curve $-1 -42.589190343943599 0 5.8484507480477381 0 1 0 I I #
coedge $-1 $130 $129 $198 $281 reversed $131 $-1 #
edge $-1 $133 -3.1418640624646628 $294 3.1418640624646628 $130 $295 forward 7 unknown #
point $-1 -42.589190343943599 -13.743386598503582 -5.8484507480477381 #
point $-1 -42.589190343943599 -13.743386598503582 5.8484507480477381 #
face $-1 $-1 $233 $17 $-1 $296 forward single #
loop $-1 $-1 $297 $135 #
plane-surface $-1 48.872918468872925 -15.307048894973256 0 -1 0 0 0 0 1 forward_v I I I I #
coedge $-1 $224 $298 $299 $300 forward $136 $-1 #
coedge $-1 $139 $138 $301 $302 forward $49 $-1 #
coedge $-1 $229 $222 $138 $225 reversed $136 $-1 #
edge $-1 $227 -3.1418640624646628 $303 3.1418640624646628 $224 $304 forward 7 unknown #
edge $-1 $305 -3.1418640624646628 $146 3.1418640624646628 $144 $306 forward 7 unknown #
vertex $-1 $225 $307 #
straight-curve $-1 42.589190343943599 0 -5.8484507480477381 0 1 0 I I #
coedge $-1 $298 $224 $141 $230 reversed $136 $-1 #
edge $-1 $234 -5.8484507480477381 $227 5.8484507480477381 $229 $308 forward 7 unknown #
coedge $-1 $309 $142 $145 $237 forward $233 $-1 #
coedge $-1 $142 $309 $298 $310 forward $233 $-1 #
loop $-1 $-1 $142 $219 #
vertex $-1 $143 $311 #
straight-curve $-1 42.589190343943599 0 5.8484507480477381 0 -1 0 I I #
coedge $-1 $145 $144 $297 $312 reversed $78 $-1 #
edge $-1 $147 -3.1418640624646628 $313 3.1418640624646628 $145 $314 forward 7 unknown #
point $-1 42.589190343943599 -16.870711191442929 -5.8484507480477381 #
point $-1 42.589190343943599 -16.870711191442929 5.8484507480477381 #
plane-surface $-1 0 0 5.8484507480477381 0 0 1 1 0 0 forward_v I I I I #
coedge $-1 $251 $250 $243 $315 forward $150 $-1 #
coedge $-1 $243 $152 $154 $247 reversed $86 $-1 #
coedge $-1 $152 $242 $241 $315 reversed $86 $-1 #
coedge $-1 $160 $155 $152 $245 forward $161 $-1 #
edge $-1 $248 -13.725674922878241 $316 -11.943033333432691 $244 $317 forward 7 unknown #
coedge $-1 $154 $153 $251 $318 reversed $53 $-1 #
edge $-1 $319 -49.880576189198116 $248 -46.315292914775448 $242 $320 forward 7 unknown #
vertex $-1 $156 $321 #
straight-curve $-1 5.8884382056472866 23.157646505153505 5.848450748047739 1 0 0 I I #
coedge $-1 $241 $157 $160 $255 reversed $150 $-1 #
coedge $-1 $157 $241 $246 $318 forward $150 $-1 #
vertex $-1 $158 $322 #
straight-curve $-1 6.7168033070123272 24.940288094599058 44.273930278489821 0 0 1 I I #
straight-curve $-1 6.7168033070123272 6.6827365685639961e-007 45.958671354211077 0 0.49999998660252726 -0.86602541151947299 I I #
edge $-1 $316 -16.836949515576819 $162 -6.7168033070123272 $250 $323 forward 7 unknown #
point $-1 6.7168033070123272 24.940288094599058 5.8484507480477381 #
point $-1 6.7168033070123272 23.157646505153508 5.848450748047739 #
edge $-1 $324 1 $324 0 $165 $-1 forward 7 unknown #
vertex $-1 $166 $325 #
ellipse-curve $-1 11.776876411294573 22.350812701400887 3.3242078110621054 0 0.86602541151947299 0.49999998660252726 0.5 0 0 1 I I #
point $-1 12.276876411294573 24.048967299876285 4.3046377905900535 #
plane-surface $-1 42.589190343943599 0 0 -1 0 0 0 0 1 forward_v I I I I #
coedge $-1 $174 $172 $176 $267 reversed $101 $-1 #
edge $-1 $187 -5.8484507480477381 $269 5.8484507480477381 $186 $326 forward 7 unknown #
vertex $-1 $267 $327 #
straight-curve $-1 -42.589190343943599 -24.940288094599058 0 0 0 -1 I I #
edge $-1 $265 -24.940288094599058 $269 24.940288094599058 $263 $328 forward 7 unknown #
straight-curve $-1 0 -24.940288094599058 -5.8484507480477381 -1 0 0 I I #
vertex $-1 $179 $329 #
straight-curve $-1 0 24.940288094599058 -5.8484507480477381 1 0 0 I I #
point $-1 42.589190343943599 24.940288094599058 -5.8484507480477381 #
point $-1 42.589190343943599 -24.940288094599058 -5.8484507480477381 #
straight-curve $-1 -42.589190343943599 0 5.8484507480477381 0 -1 0 I I #
point $-1 -42.589190343943599 24.940288094599058 5.8484507480477381 #
point $-1 -42.589190343943599 -24.940288094599058 5.8484507480477381 #
straight-curve $-1 42.589190343943599 -24.940288094599058 0 0 0 -1 I I #
straight-curve $-1 42.589190343943599 24.940288094599058 0 0 0 -1 I I #
plane-surface $-1 0 0 5.8484507480477381 0 0 1 1 0 0 forward_v I I I I #
coedge $-1 $201 $198 $203 $286 reversed $120 $-1 #
coedge $-1 $198 $201 $292 $330 reversed $120 $-1 #
edge $-1 $294 -5.8484507480477381 $288 5.8484507480477381 $215 $331 forward 7 unknown #
edge $-1 $283 -3.1418640624646628 $213 3.1418640624646628 $200 $332 forward 7 unknown #
vertex $-1 $330 $333 #
vertex $-1 $286 $334 #
straight-curve $-1 -48.872918468872925 -16.870711191442929 0 0 0 -1 I I #
edge $-1 $284 -1.5636622964696727 $288 1.5636622964696745 $279 $335 forward 7 unknown #
straight-curve $-1 -45.731054406408262 -16.870711191442929 -5.8484507480477381 -1 0 0 I I #
vertex $-1 $205 $336 #
straight-curve $-1 -45.731054406408262 -13.743386598503582 -5.8484507480477381 1 0 0 I I #
point $-1 -42.589190343943599 -16.870711191442929 -5.8484507480477381 #
straight-curve $-1 -42.589190343943599 -16.870711191442929 0 0 0 -1 I I #
coedge $-1 $211 $210 $280 $330 forward $212 $-1 #
point $-1 -42.589190343943599 -16.870711191442929 5.8484507480477381 #
vertex $-1 $216 $337 #
straight-curve $-1 -45.731054406408262 -13.743386598503582 5.8484507480477381 -1 0 0 I I #
plane-surface $-1 0 0 5.8484507480477381 0 0 1 1 0 0 forward_v I I I I #
coedge $-1 $301 $338 $236 $312 forward $220 $-1 #
coedge $-1 $222 $229 $232 $310 reversed $136 $-1 #
coedge $-1 $338 $301 $222 $300 reversed $220 $-1 #
edge $-1 $339 -5.8484507480477381 $303 5.8484507480477381 $299 $340 forward 7 unknown #
coedge $-1 $299 $297 $223 $302 reversed $220 $-1 #
edge $-1 $303 -1.5636622964696745 $305 1.5636622964696727 $301 $341 forward 7 unknown #
vertex $-1 $302 $342 #
straight-curve $-1 45.731054406408262 -13.743386598503582 -5.8484507480477381 1 0 0 I I #
vertex $-1 $312 $343 #
straight-curve $-1 45.731054406408262 -16.870711191442929 -5.8484507480477381 -1 0 0 I I #
point $-1 42.589190343943599 -13.743386598503582 -5.8484507480477381 #
straight-curve $-1 42.589190343943599 -13.743386598503582 0 0 0 -1 I I #
coedge $-1 $232 $231 $338 $344 forward $233 $-1 #
edge $-1 $339 -3.1418640624646628 $234 3.1418640624646628 $298 $345 forward 7 unknown #
point $-1 42.589190343943599 -13.743386598503582 5.8484507480477381 #
edge $-1 $313 -5.8484507480477381 $305 5.8484507480477381 $297 $346 forward 7 unknown #
vertex $-1 $344 $347 #
straight-curve $-1 45.731054406408262 -16.870711191442929 5.8484507480477381 1 0 0 I I #
edge $-1 $316 38.425479530442082 $319 41.513105445357475 $241 $348 forward 7 unknown #
vertex $-1 $255 $349 #
straight-curve $-1 16.836949515576819 36.883321428031749 5.848450748047739 0 1 0 I I #
edge $-1 $319 -10.948511309929533 $252 -0.8283651013650406 $251 $350 forward 7 unknown #
vertex $-1 $318 $351 #
straight-curve $-1 16.836949515576819 6.6827365685639961e-007 45.958671354211077 0 -0.49999998660252726 0.86602541151947299 I I #
point $-1 16.836949515576819 23.157646505153508 5.848450748047739 #
point $-1 6.7168033070123272 24.940288094599058 2.7608248331323466 #
straight-curve $-1 0 24.940288094599058 5.8484507480477381 -1 0 0 I I #
vertex $-1 $258 $352 #
point $-1 12.276876411294573 22.350812701400887 3.3242078110621054 #
straight-curve $-1 -42.589190343943599 24.940288094599058 0 0 0 -1 I I #
point $-1 -42.589190343943599 -24.940288094599058 -5.8484507480477381 #
straight-curve $-1 -42.589190343943599 0 -5.8484507480477381 0 1 0 I I #
point $-1 -42.589190343943599 24.940288094599058 -5.8484507480477381 #
edge $-1 $294 -1.5636622964696745 $283 1.5636622964696727 $280 $353 forward 7 unknown #
straight-curve $-1 -48.872918468872925 -13.743386598503582 0 0 0 -1 I I #
straight-curve $-1 -45.731054406408262 -16.870711191442929 5.8484507480477381 1 0 0 I I #
point $-1 -48.872918468872925 -16.870711191442929 5.8484507480477381 #
point $-1 -48.872918468872925 -16.870711191442929 -5.8484507480477381 #
straight-curve $-1 -48.872918468872925 -15.307048894973256 -5.8484507480477381 0 1 0 I I #
point $-1 -48.872918468872925 -13.743386598503582 -5.8484507480477381 #
point $-1 -48.872918468872925 -13.743386598503582 5.8484507480477381 #
coedge $-1 $297 $299 $309 $344 reversed $220 $-1 #
vertex $-1 $344 $354 #
straight-curve $-1 48.872918468872925 -13.743386598503582 0 0 0 -1 I I #
straight-curve $-1 48.872918468872925 -15.307048894973256 -5.8484507480477381 0 -1 0 I I #
point $-1 48.872918468872925 -13.743386598503582 -5.8484507480477381 #
point $-1 48.872918468872925 -16.870711191442929 -5.8484507480477381 #
edge $-1 $313 -1.5636622964696727 $339 1.5636622964696745 $338 $355 forward 7 unknown #
straight-curve $-1 45.731054406408262 -13.743386598503582 5.8484507480477381 -1 0 0 I I #
straight-curve $-1 48.872918468872925 -16.870711191442929 0 0 0 -1 I I #
point $-1 48.872918468872925 -16.870711191442929 5.8484507480477381 #
straight-curve $-1 16.836949515576819 24.940288094599058 44.273930278489821 0 0 -1 I I #
point $-1 16.836949515576819 24.940288094599058 5.8484507480477381 #
straight-curve $-1 5.8884382056472866 24.940288094599062 2.7608248331323431 -1 0 0 I I #
point $-1 16.836949515576819 24.940288094599058 2.7608248331323466 #
point $-1 11.776876411294573 21.91779999564115 3.0742078177608421 #
straight-curve $-1 -48.872918468872925 -15.307048894973256 5.8484507480477381 0 -1 0 I I #
point $-1 48.872918468872925 -13.743386598503582 5.8484507480477381 #
straight-curve $-1 48.872918468872925 -15.307048894973256 5.8484507480477381 0 1 0 I I #
End-of-ACIS-data 