500 0 5 0           
7 Unknown 11 ACIS 5.0 NT 24 Fri Mar 26 18:56:24 1999 
-1 9.9999999999999995e-007 1e-010 
body $-1 $5 $-1 $6 #
body $-1 $7 $-1 $8 #
body $-1 $9 $-1 $10 #
body $-1 $11 $-1 $12 #
body $-1 $13 $-1 $14 #
lump $-1 $-1 $15 $0 #
transform $-1 1 0 0 0 1 0 0 0 1 77.371745963927111 43.812899319787427 13.691681461676666 1 rotate no_reflect no_shear #
lump $-1 $-1 $16 $1 #
transform $-1 1 0 0 0 1 0 0 0 1 77.371745963927111 43.812899319787427 13.691681461676666 1 rotate no_reflect no_shear #
lump $-1 $-1 $17 $2 #
transform $-1 1 0 0 0 1 0 0 0 1 77.371745963927111 43.812899319787427 13.691681461676666 1 rotate no_reflect no_shear #
lump $-1 $-1 $18 $3 #
transform $-1 1 0 0 0 1 0 0 0 1 77.371745963927111 43.812899319787427 13.691681461676666 1 rotate no_reflect no_shear #
lump $-1 $-1 $19 $4 #
transform $-1 1 0 0 0 1 0 0 0 1 77.371745963927111 43.812899319787427 13.691681461676666 1 rotate no_reflect no_shear #
shell $-1 $-1 $-1 $20 $-1 $5 #
shell $-1 $-1 $-1 $21 $-1 $7 #
shell $-1 $-1 $-1 $22 $-1 $9 #
shell $-1 $-1 $-1 $23 $-1 $11 #
shell $-1 $-1 $-1 $24 $-1 $13 #
face $-1 $25 $26 $15 $-1 $27 forward single #
face $-1 $28 $29 $16 $-1 $30 reversed single #
face $-1 $31 $32 $17 $-1 $33 reversed single #
face $-1 $34 $35 $18 $-1 $36 reversed single #
face $-1 $37 $38 $19 $-1 $39 forward single #
face $-1 $40 $41 $15 $-1 $42 reversed single #
loop $-1 $-1 $43 $20 #
plane-surface $-1 0 0 13.691681461676666 0 0 1 1 0 0 forward_v I I I I #
face $-1 $44 $45 $16 $-1 $46 reversed single #
loop $-1 $-1 $47 $21 #
plane-surface $-1 -76.273049441000509 -35.425026017576322 0 1 0 0 0 0 -1 forward_v I I I I #
face $-1 $48 $49 $17 $-1 $50 reversed single #
loop $-1 $-1 $51 $22 #
plane-surface $-1 -74.637961739114857 27.037152715365217 0 0 1 0 0 0 1 forward_v I I I I #
face $-1 $52 $53 $18 $-1 $54 reversed single #
loop $-1 $-1 $55 $23 #
plane-surface $-1 85.009166512038547 27.037152715365217 226.65229658726295 0 -1 0 -0.73135370988377701 0 -0.68199835119979291 forward_v I I I I #
face $-1 $56 $57 $19 $-1 $58 forward single #
loop $-1 $59 $60 $24 #
cone-surface $-1 73.251617979046344 19.368847043816551 9.4748886061801425 -0.73135370988377701 0 -0.68199835119979291 1.0229975267996894 0 -1.0970305648256655 1 I I 0 1 1.5 forward I I I I #
face $-1 $61 $62 $15 $-1 $63 reversed single #
loop $-1 $-1 $64 $25 #
plane-surface $-1 0 0 -13.691681461676666 0 0 1 1 0 0 forward_v I I I I #
coedge $-1 $65 $66 $67 $68 forward $26 $-1 #
face $-1 $69 $70 $16 $-1 $71 reversed single #
loop $-1 $-1 $72 $28 #
plane-surface $-1 -74.637961739114857 -27.037152715365217 0 0 -1 0 0 0 -1 forward_v I I I I #
coedge $-1 $73 $74 $75 $76 forward $29 $-1 #
face $-1 $77 $78 $17 $-1 $79 reversed single #
loop $-1 $-1 $80 $31 #
plane-surface $-1 -76.273049441000509 35.425026017576322 0 1 0 0 0 0 -1 forward_v I I I I #
coedge $-1 $81 $82 $83 $84 forward $32 $-1 #
face $-1 $85 $86 $18 $-1 $87 reversed single #
loop $-1 $-1 $88 $34 #
plane-surface $-1 -28.163060389767935 19.368847043816551 121.11749023356791 0.73135370988377701 0 0.68199835119979291 0.68199835119979291 0 -0.73135370988377701 forward_v I I I I #
coedge $-1 $89 $90 $91 $92 reversed $35 $-1 #
face $-1 $-1 $93 $19 $-1 $94 forward single #
loop $-1 $95 $96 $37 #
cone-surface $-1 71.262285445357691 19.368847043816551 7.6198060522414011 -0.73135370988377701 0 -0.68199835119979291 0.51149876339984468 0 -0.54851528241283276 1 I I -0.70710678118654757 0.70710678118654757 0.75 forward I I I I #
loop $-1 $-1 $97 $24 #
coedge $-1 $60 $60 $98 $99 reversed $38 $-1 #
face $-1 $100 $101 $15 $-1 $102 reversed single #
loop $-1 $-1 $103 $40 #
plane-surface $-1 0 -43.812899319787427 0 0 1 0 0 0 1 forward_v I I I I #
coedge $-1 $104 $105 $106 $107 forward $41 $-1 #
coedge $-1 $108 $43 $109 $110 forward $26 $-1 #
coedge $-1 $43 $108 $111 $112 forward $26 $-1 #
coedge $-1 $113 $114 $43 $68 reversed $115 $-1 #
edge $-1 $116 -43.812899319787427 $117 43.812899319787427 $67 $118 forward 7 unknown #
face $-1 $119 $120 $16 $-1 $121 forward single #
loop $-1 $-1 $122 $44 #
plane-surface $-1 -73.002874037229205 -35.425026017576322 0 -1 0 0 0 0 1 forward_v I I I I #
coedge $-1 $123 $124 $125 $126 forward $45 $-1 #
coedge $-1 $127 $47 $128 $129 reversed $29 $-1 #
coedge $-1 $47 $127 $130 $131 reversed $29 $-1 #
coedge $-1 $124 $123 $47 $76 reversed $45 $-1 #
edge $-1 $132 -13.691681461676666 $133 13.691681461676666 $75 $134 forward 7 unknown #
face $-1 $135 $136 $17 $-1 $137 reversed single #
loop $-1 $-1 $138 $48 #
plane-surface $-1 -73.002874037229205 35.425026017576322 0 -1 0 0 0 0 1 forward_v I I I I #
coedge $-1 $139 $140 $141 $142 reversed $49 $-1 #
coedge $-1 $143 $51 $144 $145 reversed $32 $-1 #
coedge $-1 $51 $143 $146 $147 reversed $32 $-1 #
coedge $-1 $140 $139 $51 $84 reversed $49 $-1 #
edge $-1 $148 -13.691681461676666 $149 13.691681461676666 $83 $150 forward 7 unknown #
face $-1 $151 $152 $18 $-1 $153 forward single #
loop $-1 $-1 $154 $52 #
plane-surface $-1 85.009166512038547 11.700541372267885 226.65229658726295 0 1 0 0.73135370988377701 0 0.68199835119979291 forward_v I I I I #
coedge $-1 $155 $156 $157 $158 reversed $53 $-1 #
coedge $-1 $90 $55 $159 $160 reversed $35 $-1 #
coedge $-1 $55 $89 $155 $161 reversed $35 $-1 #
coedge $-1 $157 $162 $55 $92 forward $152 $-1 #
edge $-1 $163 -34.867162707907838 $164 -29.508541240697951 $91 $165 forward 7 unknown #
loop $-1 $-1 $98 $56 #
plane-surface $-1 -28.163060389767935 19.368847043816551 121.11749023356791 0.73135370988377701 0 0.68199835119979291 0.68199835119979291 0 -0.73135370988377701 forward_v I I I I #
loop $-1 $-1 $166 $37 #
coedge $-1 $96 $96 $97 $167 reversed $57 $-1 #
coedge $-1 $97 $97 $96 $167 forward $59 $-1 #
coedge $-1 $98 $98 $60 $99 forward $93 $-1 #
edge $-1 $168 0 $168 6.2831853071796004 $98 $169 forward 7 unknown #
face $-1 $170 $171 $15 $-1 $172 reversed single #
loop $-1 $-1 $173 $61 #
plane-surface $-1 -77.371745963927111 0 0 1 0 0 0 0 -1 forward_v I I I I #
coedge $-1 $174 $111 $175 $176 forward $62 $-1 #
coedge $-1 $177 $64 $174 $178 forward $41 $-1 #
coedge $-1 $64 $177 $179 $180 forward $41 $-1 #
coedge $-1 $114 $113 $64 $107 reversed $115 $-1 #
edge $-1 $181 -43.812899319787427 $182 43.812899319787427 $106 $183 forward 7 unknown #
coedge $-1 $66 $65 $184 $185 forward $26 $-1 #
coedge $-1 $186 $187 $65 $110 reversed $171 $-1 #
edge $-1 $117 -77.371745963927111 $188 77.371745963927111 $109 $189 forward 7 unknown #
coedge $-1 $103 $190 $66 $112 reversed $62 $-1 #
edge $-1 $191 -77.371745963927111 $116 77.371745963927111 $111 $192 forward 7 unknown #
coedge $-1 $106 $67 $190 $193 forward $115 $-1 #
coedge $-1 $67 $106 $186 $194 reversed $115 $-1 #
loop $-1 $-1 $113 $170 #
vertex $-1 $68 $195 #
vertex $-1 $68 $196 #
straight-curve $-1 77.371745963927111 0 13.691681461676666 0 1 0 I I #
face $-1 $197 $198 $16 $-1 $199 reversed single #
loop $-1 $-1 $200 $69 #
plane-surface $-1 0 0 13.691681461676666 0 0 1 1 0 0 forward_v I I I I #
coedge $-1 $201 $202 $203 $204 reversed $70 $-1 #
coedge $-1 $75 $72 $205 $206 reversed $45 $-1 #
coedge $-1 $72 $75 $207 $208 reversed $45 $-1 #
coedge $-1 $202 $201 $72 $126 reversed $70 $-1 #
edge $-1 $209 -13.691681461676666 $210 13.691681461676666 $125 $211 forward 7 unknown #
coedge $-1 $74 $73 $212 $213 reversed $29 $-1 #
coedge $-1 $205 $214 $73 $129 forward $198 $-1 #
edge $-1 $215 -26.100386310999266 $133 -9.3246397065770559 $128 $216 forward 7 unknown #
coedge $-1 $217 $207 $74 $131 forward $120 $-1 #
edge $-1 $132 9.3246397065770559 $218 26.100386310999266 $130 $219 forward 7 unknown #
vertex $-1 $131 $220 #
vertex $-1 $129 $221 #
straight-curve $-1 -76.273049441000509 -27.037152715365217 0 0 0 -1 I I #
face $-1 $222 $223 $17 $-1 $224 forward single #
loop $-1 $-1 $225 $77 #
plane-surface $-1 0 0 -13.691681461676666 0 0 1 1 0 0 forward_v I I I I #
coedge $-1 $226 $227 $143 $228 forward $78 $-1 #
coedge $-1 $83 $80 $229 $230 reversed $49 $-1 #
coedge $-1 $80 $83 $231 $232 reversed $49 $-1 #
coedge $-1 $233 $234 $80 $142 forward $235 $-1 #
edge $-1 $236 -13.691681461676666 $237 13.691681461676666 $141 $238 forward 7 unknown #
coedge $-1 $82 $81 $138 $228 reversed $32 $-1 #
coedge $-1 $229 $225 $81 $145 forward $136 $-1 #
edge $-1 $239 35.683893167671776 $149 38.954068571443081 $144 $240 forward 7 unknown #
coedge $-1 $241 $231 $82 $147 forward $223 $-1 #
edge $-1 $148 -38.954068571443081 $242 -35.683893167671776 $146 $243 forward 7 unknown #
vertex $-1 $147 $244 #
vertex $-1 $145 $245 #
straight-curve $-1 -76.273049441000509 27.037152715365217 0 0 0 -1 I I #
face $-1 $-1 $246 $18 $-1 $247 reversed single #
loop $-1 $-1 $91 $85 #
plane-surface $-1 0 0 13.691681461676666 0 0 1 1 0 0 forward_v I I I I #
coedge $-1 $248 $249 $250 $251 reversed $86 $-1 #
coedge $-1 $252 $88 $90 $161 forward $53 $-1 #
coedge $-1 $88 $252 $248 $253 forward $53 $-1 #
coedge $-1 $250 $91 $88 $158 forward $152 $-1 #
edge $-1 $164 -17.352729193456941 $254 -2.0161178503596098 $157 $255 forward 7 unknown #
coedge $-1 $256 $257 $89 $160 forward $246 $-1 #
edge $-1 $258 -105.38088496187005 $163 -99.634466831954811 $159 $259 forward 7 unknown #
edge $-1 $164 146.88625670465635 $258 154.74349192785422 $90 $260 forward 7 unknown #
coedge $-1 $91 $250 $256 $261 forward $152 $-1 #
vertex $-1 $92 $262 #
vertex $-1 $92 $263 #
straight-curve $-1 42.504583256019274 27.037152715365217 13.691681461676666 -1 0 0 I I #
coedge $-1 $166 $166 $-1 $264 reversed $95 $-1 #
edge $-1 $265 0 $265 6.2831853071796004 $96 $266 forward 7 unknown #
vertex $-1 $99 $267 #
ellipse-curve $-1 74.692435230322175 19.368847043816551 10.818472396719045 0.73135370988377701 0 0.68199835119979291 1.0229975267996894 0 -1.0970305648256655 1 I I #
face $-1 $-1 $115 $15 $-1 $268 reversed single #
loop $-1 $-1 $186 $100 #
plane-surface $-1 0 43.812899319787427 0 0 -1 0 0 0 -1 forward_v I I I I #
coedge $-1 $269 $184 $187 $270 forward $101 $-1 #
coedge $-1 $190 $103 $104 $178 reversed $62 $-1 #
coedge $-1 $184 $269 $103 $176 reversed $101 $-1 #
edge $-1 $191 -13.691681461676666 $271 13.691681461676666 $175 $272 forward 7 unknown #
coedge $-1 $105 $104 $269 $273 forward $41 $-1 #
edge $-1 $182 -77.371745963927111 $271 77.371745963927111 $174 $274 forward 7 unknown #
coedge $-1 $187 $186 $105 $180 reversed $171 $-1 #
edge $-1 $275 -77.371745963927111 $181 77.371745963927111 $179 $276 forward 7 unknown #
vertex $-1 $107 $277 #
vertex $-1 $193 $278 #
straight-curve $-1 77.371745963927111 0 -13.691681461676666 0 -1 0 I I #
coedge $-1 $173 $175 $108 $185 reversed $101 $-1 #
edge $-1 $188 -43.812899319787427 $191 43.812899319787427 $184 $279 forward 7 unknown #
coedge $-1 $179 $109 $114 $194 forward $171 $-1 #
coedge $-1 $109 $179 $173 $270 reversed $171 $-1 #
vertex $-1 $110 $280 #
straight-curve $-1 0 43.812899319787427 13.691681461676666 -1 0 0 I I #
coedge $-1 $111 $174 $113 $193 reversed $62 $-1 #
vertex $-1 $185 $281 #
straight-curve $-1 0 -43.812899319787427 13.691681461676666 1 0 0 I I #
edge $-1 $116 -13.691681461676666 $182 13.691681461676666 $113 $282 forward 7 unknown #
edge $-1 $117 -13.691681461676666 $181 13.691681461676666 $114 $283 forward 7 unknown #
point $-1 77.371745963927111 -43.812899319787427 13.691681461676666 #
point $-1 77.371745963927111 43.812899319787427 13.691681461676666 #
face $-1 $-1 $284 $16 $-1 $285 reversed single #
loop $-1 $-1 $286 $119 #
plane-surface $-1 0 0 -13.691681461676666 0 0 1 1 0 0 forward_v I I I I #
coedge $-1 $207 $217 $202 $287 forward $120 $-1 #
coedge $-1 $125 $122 $286 $288 reversed $70 $-1 #
coedge $-1 $122 $125 $200 $287 reversed $70 $-1 #
coedge $-1 $289 $290 $122 $204 forward $284 $-1 #
edge $-1 $291 -13.691681461676666 $292 13.691681461676666 $203 $293 forward 7 unknown #
coedge $-1 $286 $128 $123 $206 forward $198 $-1 #
edge $-1 $133 -38.954068571443081 $210 -35.683893167671776 $205 $294 forward 7 unknown #
coedge $-1 $130 $200 $124 $208 forward $120 $-1 #
edge $-1 $209 35.683893167671776 $132 38.954068571443081 $207 $295 forward 7 unknown #
vertex $-1 $208 $296 #
vertex $-1 $206 $297 #
straight-curve $-1 -73.002874037229205 -27.037152715365217 0 0 0 -1 I I #
coedge $-1 $290 $289 $127 $213 forward $284 $-1 #
edge $-1 $218 -13.691681461676666 $215 13.691681461676666 $212 $298 forward 7 unknown #
coedge $-1 $128 $286 $290 $299 forward $198 $-1 #
vertex $-1 $129 $300 #
straight-curve $-1 -76.273049441000509 -17.712513008788161 -13.691681461676666 0 1 0 I I #
coedge $-1 $200 $130 $289 $301 forward $120 $-1 #
vertex $-1 $301 $302 #
straight-curve $-1 -76.273049441000509 -17.712513008788161 13.691681461676666 0 -1 0 I I #
point $-1 -76.273049441000509 -27.037152715365217 13.691681461676666 #
point $-1 -76.273049441000509 -27.037152715365217 -13.691681461676666 #
face $-1 $-1 $235 $17 $-1 $303 reversed single #
loop $-1 $-1 $241 $135 #
plane-surface $-1 0 0 13.691681461676666 0 0 1 1 0 0 forward_v I I I I #
coedge $-1 $144 $304 $226 $305 forward $136 $-1 #
coedge $-1 $306 $138 $225 $305 reversed $78 $-1 #
coedge $-1 $138 $306 $241 $307 reversed $78 $-1 #
edge $-1 $242 -13.691681461676666 $239 13.691681461676666 $138 $308 forward 7 unknown #
coedge $-1 $304 $144 $139 $230 forward $136 $-1 #
edge $-1 $149 9.3246397065770559 $236 26.100386310999266 $229 $309 forward 7 unknown #
coedge $-1 $146 $310 $140 $232 forward $223 $-1 #
edge $-1 $237 -26.100386310999266 $148 -9.3246397065770559 $231 $311 forward 7 unknown #
coedge $-1 $312 $141 $310 $313 reversed $235 $-1 #
coedge $-1 $141 $312 $304 $314 reversed $235 $-1 #
loop $-1 $-1 $312 $222 #
vertex $-1 $314 $315 #
vertex $-1 $142 $316 #
straight-curve $-1 -76.273049441000509 43.812899319787427 0 0 0 1 I I #
vertex $-1 $145 $317 #
straight-curve $-1 -37.318980869557429 27.037152715365217 -13.691681461676666 -1 0 0 I I #
coedge $-1 $310 $146 $227 $307 forward $223 $-1 #
vertex $-1 $147 $318 #
straight-curve $-1 -37.318980869557429 27.037152715365217 13.691681461676666 1 0 0 I I #
point $-1 -76.273049441000509 27.037152715365217 13.691681461676666 #
point $-1 -76.273049441000509 27.037152715365217 -13.691681461676666 #
loop $-1 $-1 $159 $151 #
plane-surface $-1 77.371745963927111 0 0 -1 0 0 0 0 1 forward_v I I I I #
coedge $-1 $249 $154 $156 $253 reversed $86 $-1 #
coedge $-1 $154 $248 $319 $320 reversed $86 $-1 #
coedge $-1 $162 $157 $154 $251 forward $152 $-1 #
edge $-1 $254 29.508541240697951 $321 34.867162707907838 $250 $322 forward 7 unknown #
coedge $-1 $156 $155 $257 $323 reversed $53 $-1 #
edge $-1 $324 -154.74349192785422 $254 -146.88625670465635 $248 $325 forward 7 unknown #
vertex $-1 $158 $326 #
straight-curve $-1 72.013124496717225 9.6844235219082755 13.691681461676666 0 -1 0 I I #
coedge $-1 $319 $159 $162 $261 reversed $246 $-1 #
coedge $-1 $159 $319 $252 $323 forward $246 $-1 #
vertex $-1 $160 $327 #
straight-curve $-1 77.371745963927111 27.037152715365217 113.32614829363148 0 0 1 I I #
straight-curve $-1 -28.163060389767935 27.037152715365217 121.11749023356791 0.68199835119979291 0 -0.73135370988377701 I I #
edge $-1 $321 11.700541372267885 $163 27.037152715365217 $256 $328 forward 7 unknown #
point $-1 77.371745963927111 27.037152715365217 13.691681461676666 #
point $-1 72.013124496717225 27.037152715365217 13.691681461676666 #
edge $-1 $329 1 $329 0 $166 $-1 forward 7 unknown #
vertex $-1 $167 $330 #
ellipse-curve $-1 71.810800727770527 19.368847043816551 8.1313048156412453 0.73135370988377701 0 0.68199835119979291 1.0229975267996894 0 -1.0970305648256655 1 I I #
point $-1 75.71543275712186 19.368847043816551 9.721441831893376 #
plane-surface $-1 77.371745963927111 0 0 -1 0 0 0 0 1 forward_v I I I I #
coedge $-1 $175 $173 $177 $273 reversed $101 $-1 #
edge $-1 $188 -13.691681461676666 $275 13.691681461676666 $187 $331 forward 7 unknown #
vertex $-1 $273 $332 #
straight-curve $-1 -77.371745963927111 -43.812899319787427 0 0 0 -1 I I #
edge $-1 $271 -43.812899319787427 $275 43.812899319787427 $269 $333 forward 7 unknown #
straight-curve $-1 0 -43.812899319787427 -13.691681461676666 -1 0 0 I I #
vertex $-1 $180 $334 #
straight-curve $-1 0 43.812899319787427 -13.691681461676666 1 0 0 I I #
point $-1 77.371745963927111 43.812899319787427 -13.691681461676666 #
point $-1 77.371745963927111 -43.812899319787427 -13.691681461676666 #
straight-curve $-1 -77.371745963927111 0 13.691681461676666 0 -1 0 I I #
point $-1 -77.371745963927111 43.812899319787427 13.691681461676666 #
point $-1 -77.371745963927111 -43.812899319787427 13.691681461676666 #
straight-curve $-1 77.371745963927111 -43.812899319787427 0 0 0 -1 I I #
straight-curve $-1 77.371745963927111 43.812899319787427 0 0 0 -1 I I #
loop $-1 $-1 $203 $197 #
plane-surface $-1 0 -43.812899319787427 0 0 1 0 0 0 1 forward_v I I I I #
coedge $-1 $214 $205 $201 $288 forward $198 $-1 #
edge $-1 $292 -26.100386310999266 $209 -9.3246397065770559 $200 $335 forward 7 unknown #
edge $-1 $210 9.3246397065770559 $291 26.100386310999266 $286 $336 forward 7 unknown #
coedge $-1 $212 $203 $217 $301 reversed $284 $-1 #
coedge $-1 $203 $212 $214 $299 reversed $284 $-1 #
vertex $-1 $299 $337 #
vertex $-1 $204 $338 #
straight-curve $-1 -73.002874037229205 -43.812899319787427 0 0 0 1 I I #
straight-curve $-1 -37.318980869557429 -27.037152715365217 -13.691681461676666 1 0 0 I I #
straight-curve $-1 -37.318980869557429 -27.037152715365217 13.691681461676666 -1 0 0 I I #
point $-1 -73.002874037229205 -27.037152715365217 13.691681461676666 #
point $-1 -73.002874037229205 -27.037152715365217 -13.691681461676666 #
straight-curve $-1 -76.273049441000509 -43.812899319787427 0 0 0 -1 I I #
edge $-1 $291 73.002874037229205 $215 76.273049441000509 $290 $339 forward 7 unknown #
point $-1 -76.273049441000509 -43.812899319787427 -13.691681461676666 #
edge $-1 $218 -76.273049441000509 $292 -73.002874037229205 $289 $340 forward 7 unknown #
point $-1 -76.273049441000509 -43.812899319787427 13.691681461676666 #
plane-surface $-1 0 43.812899319787427 0 0 -1 0 0 0 -1 forward_v I I I I #
coedge $-1 $225 $229 $234 $314 forward $136 $-1 #
edge $-1 $341 -26.100386310999266 $239 -9.3246397065770559 $225 $342 forward 7 unknown #
coedge $-1 $227 $226 $312 $343 reversed $78 $-1 #
edge $-1 $242 9.3246397065770559 $344 26.100386310999266 $241 $345 forward 7 unknown #
straight-curve $-1 -73.002874037229205 27.037152715365217 0 0 0 -1 I I #
straight-curve $-1 -76.273049441000509 17.712513008788161 -13.691681461676666 0 1 0 I I #
coedge $-1 $231 $241 $233 $313 forward $223 $-1 #
straight-curve $-1 -76.273049441000509 17.712513008788161 13.691681461676666 0 -1 0 I I #
coedge $-1 $234 $233 $306 $343 forward $235 $-1 #
edge $-1 $344 73.002874037229205 $237 76.273049441000509 $233 $346 forward 7 unknown #
edge $-1 $236 -76.273049441000509 $341 -73.002874037229205 $234 $347 forward 7 unknown #
point $-1 -76.273049441000509 43.812899319787427 -13.691681461676666 #
point $-1 -76.273049441000509 43.812899319787427 13.691681461676666 #
point $-1 -73.002874037229205 27.037152715365217 -13.691681461676666 #
point $-1 -73.002874037229205 27.037152715365217 13.691681461676666 #
coedge $-1 $257 $256 $249 $320 forward $246 $-1 #
edge $-1 $321 99.634466831954811 $324 105.38088496187005 $319 $348 forward 7 unknown #
vertex $-1 $261 $349 #
straight-curve $-1 42.504583256019274 11.700541372267885 13.691681461676666 1 0 0 I I #
edge $-1 $324 2.0161178503596098 $258 17.352729193456941 $257 $350 forward 7 unknown #
vertex $-1 $323 $351 #
straight-curve $-1 -28.163060389767935 11.700541372267885 121.11749023356791 -0.68199835119979291 0 0.73135370988377701 I I #
point $-1 72.013124496717225 11.700541372267885 13.691681461676666 #
point $-1 77.371745963927111 27.037152715365217 7.9452633317614243 #
straight-curve $-1 77.371745963927111 0 13.691681461676666 0 1 0 I I #
vertex $-1 $264 $352 #
point $-1 72.833798254570212 19.368847043816551 7.0342742508155798 #
straight-curve $-1 -77.371745963927111 43.812899319787427 0 0 0 -1 I I #
point $-1 -77.371745963927111 -43.812899319787427 -13.691681461676666 #
straight-curve $-1 -77.371745963927111 0 -13.691681461676666 0 1 0 I I #
point $-1 -77.371745963927111 43.812899319787427 -13.691681461676666 #
straight-curve $-1 -73.002874037229205 -17.712513008788161 13.691681461676666 0 1 0 I I #
straight-curve $-1 -73.002874037229205 -17.712513008788161 -13.691681461676666 0 -1 0 I I #
point $-1 -73.002874037229205 -43.812899319787427 -13.691681461676666 #
point $-1 -73.002874037229205 -43.812899319787427 13.691681461676666 #
straight-curve $-1 0 -43.812899319787427 -13.691681461676666 -1 0 0 I I #
straight-curve $-1 0 -43.812899319787427 13.691681461676666 1 0 0 I I #
vertex $-1 $343 $353 #
straight-curve $-1 -73.002874037229205 17.712513008788161 -13.691681461676666 0 -1 0 I I #
edge $-1 $344 -13.691681461676666 $341 13.691681461676666 $312 $354 forward 7 unknown #
vertex $-1 $313 $355 #
straight-curve $-1 -73.002874037229205 17.712513008788161 13.691681461676666 0 1 0 I I #
straight-curve $-1 0 43.812899319787427 13.691681461676666 -1 0 0 I I #
straight-curve $-1 0 43.812899319787427 -13.691681461676666 1 0 0 I I #
straight-curve $-1 77.371745963927111 11.700541372267885 113.32614829363148 0 0 -1 I I #
point $-1 77.371745963927111 11.700541372267885 13.691681461676666 #
straight-curve $-1 77.371745963927111 9.6844235219082755 7.9452633317614172 0 1 0 I I #
point $-1 77.371745963927111 11.700541372267885 7.9452633317614243 #
point $-1 70.713770162944854 19.368847043816551 7.1083072888415568 #
point $-1 -73.002874037229205 43.812899319787427 -13.691681461676666 #
straight-curve $-1 -73.002874037229205 43.812899319787427 0 0 0 -1 I I #
point $-1 -73.002874037229205 43.812899319787427 13.691681461676666 #
End-of-ACIS-data 