500 0 13 0           
7 Unknown 11 ACIS 5.0 NT 24 Fri Mar 26 14:50:49 1999 
-1 9.9999999999999995e-007 1e-010 
body $-1 $13 $-1 $14 #
body $-1 $15 $-1 $16 #
body $-1 $17 $-1 $18 #
body $-1 $19 $-1 $20 #
body $-1 $21 $-1 $22 #
body $-1 $23 $-1 $24 #
body $-1 $25 $-1 $26 #
body $-1 $27 $-1 $28 #
body $-1 $29 $-1 $30 #
body $-1 $31 $-1 $32 #
body $-1 $33 $-1 $34 #
body $-1 $35 $-1 $36 #
body $-1 $37 $-1 $38 #
lump $-1 $-1 $39 $0 #
transform $-1 1 0 0 0 1 0 0 0 1 49.482711264381848 21.377370903270457 5.4989302082093481 1 rotate no_reflect no_shear #
lump $-1 $-1 $40 $1 #
transform $-1 1 0 0 0 1 0 0 0 1 49.482711264381848 21.377370903270457 5.4989302082093481 1 rotate no_reflect no_shear #
lump $-1 $-1 $41 $2 #
transform $-1 1 0 0 0 1 0 0 0 1 49.482711264381848 21.377370903270457 5.4989302082093481 1 rotate no_reflect no_shear #
lump $-1 $-1 $42 $3 #
transform $-1 1 0 0 0 1 0 0 0 1 49.482711264381848 21.377370903270457 5.4989302082093481 1 rotate no_reflect no_shear #
lump $-1 $-1 $43 $4 #
transform $-1 1 0 0 0 1 0 0 0 1 49.482711264381848 21.377370903270457 5.4989302082093481 1 rotate no_reflect no_shear #
lump $-1 $-1 $44 $5 #
transform $-1 1 0 0 0 1 0 0 0 1 49.482711264381848 21.377370903270457 5.4989302082093481 1 rotate no_reflect no_shear #
lump $-1 $-1 $45 $6 #
transform $-1 1 0 0 0 1 0 0 0 1 49.482711264381848 21.377370903270457 5.4989302082093481 1 rotate no_reflect no_shear #
lump $-1 $-1 $46 $7 #
transform $-1 1 0 0 0 1 0 0 0 1 49.482711264381848 21.377370903270457 5.4989302082093481 1 rotate no_reflect no_shear #
lump $-1 $-1 $47 $8 #
transform $-1 1 0 0 0 1 0 0 0 1 49.482711264381848 21.377370903270457 5.4989302082093481 1 rotate no_reflect no_shear #
lump $-1 $-1 $48 $9 #
transform $-1 1 0 0 0 1 0 0 0 1 49.482711264381848 21.377370903270457 5.4989302082093481 1 rotate no_reflect no_shear #
lump $-1 $-1 $49 $10 #
transform $-1 1 0 0 0 1 0 0 0 1 49.482711264381848 21.377370903270457 5.4989302082093481 1 rotate no_reflect no_shear #
lump $-1 $-1 $50 $11 #
transform $-1 1 0 0 0 1 0 0 0 1 49.482711264381848 21.377370903270457 5.4989302082093481 1 rotate no_reflect no_shear #
lump $-1 $-1 $51 $12 #
transform $-1 1 0 0 0 1 0 0 0 1 49.482711264381848 21.377370903270457 5.4989302082093481 1 rotate no_reflect no_shear #
shell $-1 $-1 $-1 $52 $-1 $13 #
shell $-1 $-1 $-1 $53 $-1 $15 #
shell $-1 $-1 $-1 $54 $-1 $17 #
shell $-1 $-1 $-1 $55 $-1 $19 #
shell $-1 $-1 $-1 $56 $-1 $21 #
shell $-1 $-1 $-1 $57 $-1 $23 #
shell $-1 $-1 $-1 $58 $-1 $25 #
shell $-1 $-1 $-1 $59 $-1 $27 #
shell $-1 $-1 $-1 $60 $-1 $29 #
shell $-1 $-1 $-1 $61 $-1 $31 #
shell $-1 $-1 $-1 $62 $-1 $33 #
shell $-1 $-1 $-1 $63 $-1 $35 #
shell $-1 $-1 $-1 $64 $-1 $37 #
face $-1 $65 $66 $39 $-1 $67 forward single #
face $-1 $68 $69 $40 $-1 $70 reversed single #
face $-1 $71 $72 $41 $-1 $73 reversed single #
face $-1 $74 $75 $42 $-1 $76 reversed single #
face $-1 $77 $78 $43 $-1 $79 forward single #
face $-1 $80 $81 $44 $-1 $82 forward single #
face $-1 $83 $84 $45 $-1 $85 reversed single #
face $-1 $86 $87 $46 $-1 $88 forward single #
face $-1 $89 $90 $47 $-1 $91 forward single #
face $-1 $92 $93 $48 $-1 $94 reversed single #
face $-1 $95 $96 $49 $-1 $97 forward single #
face $-1 $98 $99 $50 $-1 $100 forward single #
face $-1 $101 $102 $51 $-1 $103 forward single #
face $-1 $104 $105 $39 $-1 $106 reversed single #
loop $-1 $-1 $107 $52 #
plane-surface $-1 0 0 5.4989302082093481 0 0 1 1 0 0 forward_v I I I I #
face $-1 $108 $109 $40 $-1 $110 reversed single #
loop $-1 $-1 $111 $53 #
plane-surface $-1 -41.594908967552293 -19.408489741383637 0 1 0 0 0 0 -1 forward_v I I I I #
face $-1 $112 $113 $41 $-1 $114 reversed single #
loop $-1 $-1 $115 $54 #
plane-surface $-1 -40.039879907757722 17.439608579496817 0 0 1 0 0 0 1 forward_v I I I I #
face $-1 $116 $117 $42 $-1 $118 reversed single #
loop $-1 $-1 $119 $55 #
plane-surface $-1 66.539332274482987 -6.1509431749876811 140.49931555021664 0 -1 0 -0.78801076186113728 0 -0.61566146476048833 forward_v I I I I #
face $-1 $120 $121 $43 $-1 $122 forward single #
loop $-1 $123 $124 $56 #
cone-surface $-1 47.490944578840811 -11.979056577361256 3.1802357968809325 -0.78801076186113728 0 -0.61566146476048833 0.61566146476048833 0 -0.78801076186113728 1 I I 0 1 1 forward I I I I #
face $-1 $125 $126 $44 $-1 $127 forward single #
loop $-1 $128 $129 $57 #
cone-surface $-1 47.490944578840811 -8.4821885359371123 3.1802357968809325 -0.78801076186113728 0 -0.61566146476048833 0.61566146476048833 0 -0.78801076186113728 1 I I 0 1 1 forward I I I I #
face $-1 $130 $131 $45 $-1 $132 reversed single #
loop $-1 $-1 $133 $58 #
plane-surface $-1 66.539332274482987 14.310301938310678 140.49931555021664 0 -1 0 -0.78801076186113728 0 -0.61566146476048833 forward_v I I I I #
face $-1 $134 $135 $46 $-1 $136 forward single #
loop $-1 $137 $138 $59 #
cone-surface $-1 47.490944578840811 8.4821885359371052 3.1802357968809325 -0.78801076186113728 0 -0.61566146476048833 0.61566146476048833 0 -0.78801076186113728 1 I I 0 1 1 forward I I I I #
face $-1 $139 $140 $47 $-1 $141 forward single #
loop $-1 $142 $143 $60 #
cone-surface $-1 47.490944578840811 11.979056577361252 3.1802357968809325 -0.78801076186113728 0 -0.61566146476048833 0.61566146476048833 0 -0.78801076186113728 1 I I 0 1 1 forward I I I I #
face $-1 $144 $145 $48 $-1 $146 reversed single #
loop $-1 $-1 $147 $61 #
plane-surface $-1 -126.39329052546037 -4.8093065320295647 62.766680424021587 0 1 0 -0.77714596973225614 0 0.62932038083071107 forward_v I I I I #
face $-1 $148 $149 $49 $-1 $150 forward single #
loop $-1 $151 $152 $62 #
cone-surface $-1 -47.064330769739136 -3.2299675498133098 2.6776664282632088 0.77714596973225614 0 -0.62932038083071107 0.31466019041535553 0 0.38857298486612807 1 I I 0 1 0.5 forward I I I I #
face $-1 $153 $154 $50 $-1 $155 forward single #
loop $-1 $156 $157 $63 #
cone-surface $-1 -47.064330769739136 -0.86095907648892478 2.6776664282632088 0.77714596973225614 0 -0.62932038083071107 0.31466019041535553 0 0.38857298486612807 1 I I 0 1 0.5 forward I I I I #
face $-1 $158 $159 $51 $-1 $160 forward single #
loop $-1 $161 $162 $64 #
cone-surface $-1 -47.064330769739136 1.5080493968354602 2.6776664282632088 0.77714596973225614 0 -0.62932038083071107 0.31466019041535553 0 0.38857298486612807 1 I I 0 1 0.5 forward I I I I #
face $-1 $163 $164 $39 $-1 $165 reversed single #
loop $-1 $-1 $166 $65 #
plane-surface $-1 0 0 -5.4989302082093481 0 0 1 1 0 0 forward_v I I I I #
coedge $-1 $167 $168 $169 $170 forward $66 $-1 #
face $-1 $171 $172 $40 $-1 $173 reversed single #
loop $-1 $-1 $174 $68 #
plane-surface $-1 -40.039879907757722 -17.439608579496817 0 0 -1 0 0 0 -1 forward_v I I I I #
coedge $-1 $175 $176 $177 $178 forward $69 $-1 #
face $-1 $179 $180 $41 $-1 $181 reversed single #
loop $-1 $-1 $182 $71 #
plane-surface $-1 -41.594908967552293 19.408489741383637 0 1 0 0 0 0 -1 forward_v I I I I #
coedge $-1 $183 $184 $185 $186 forward $72 $-1 #
face $-1 $187 $188 $42 $-1 $189 reversed single #
loop $-1 $-1 $190 $74 #
plane-surface $-1 -11.446485730317448 -10.230622556649182 79.570118555517354 0.78801076186113728 0 0.61566146476048833 0.61566146476048833 0 -0.78801076186113728 forward_v I I I I #
coedge $-1 $191 $192 $193 $194 reversed $75 $-1 #
face $-1 $-1 $195 $43 $-1 $196 forward single #
loop $-1 $197 $198 $77 #
cone-surface $-1 46.634394412355988 -11.979056577361256 2.511025481918491 -0.78801076186113728 0 -0.61566146476048833 0.30783073238024417 0 -0.39400538093056864 1 I I -0.70710678118654746 0.70710678118654746 0.5 forward I I I I #
loop $-1 $-1 $199 $56 #
coedge $-1 $124 $124 $200 $201 reversed $78 $-1 #
face $-1 $-1 $202 $44 $-1 $203 forward single #
loop $-1 $204 $205 $80 #
cone-surface $-1 46.634394412355988 -8.4821885359371123 2.511025481918491 -0.78801076186113728 0 -0.61566146476048833 0.30783073238024417 0 -0.39400538093056864 1 I I -0.70710678118654746 0.70710678118654746 0.5 forward I I I I #
loop $-1 $-1 $206 $57 #
coedge $-1 $129 $129 $207 $208 reversed $81 $-1 #
face $-1 $209 $210 $45 $-1 $211 reversed single #
loop $-1 $-1 $212 $83 #
plane-surface $-1 -11.446485730317448 10.230622556649177 79.570118555517354 0.78801076186113728 0 0.61566146476048833 0.61566146476048833 0 -0.78801076186113728 forward_v I I I I #
coedge $-1 $213 $214 $215 $216 reversed $84 $-1 #
face $-1 $-1 $217 $46 $-1 $218 forward single #
loop $-1 $219 $220 $86 #
cone-surface $-1 46.634394412355988 8.4821885359371052 2.511025481918491 -0.78801076186113728 0 -0.61566146476048833 0.30783073238024417 0 -0.39400538093056864 1 I I -0.70710678118654746 0.70710678118654746 0.5 forward I I I I #
loop $-1 $-1 $221 $59 #
coedge $-1 $138 $138 $222 $223 reversed $87 $-1 #
face $-1 $-1 $224 $47 $-1 $225 forward single #
loop $-1 $226 $227 $89 #
cone-surface $-1 46.634394412355988 11.979056577361252 2.511025481918491 -0.78801076186113728 0 -0.61566146476048833 0.30783073238024417 0 -0.39400538093056864 1 I I -0.70710678118654746 0.70710678118654746 0.5 forward I I I I #
loop $-1 $-1 $228 $60 #
coedge $-1 $143 $143 $229 $230 reversed $90 $-1 #
face $-1 $231 $232 $48 $-1 $233 reversed single #
loop $-1 $-1 $234 $92 #
plane-surface $-1 -49.482711264381848 -0.86095907648892123 0.48572302914778476 -0.77714596973225614 0 0.62932038083071107 0.62932038083071107 0 0.77714596973225614 forward_v I I I I #
coedge $-1 $235 $236 $237 $238 reversed $93 $-1 #
face $-1 $-1 $239 $49 $-1 $240 forward single #
loop $-1 $241 $242 $95 #
cone-surface $-1 -46.481471292439942 -3.2299675498133098 2.2056761426401756 0.77714596973225614 0 -0.62932038083071107 0.15733009520767777 0 0.19428649243306403 1 I I -0.70710678118654746 0.70710678118654746 0.25 forward I I I I #
loop $-1 $-1 $243 $62 #
coedge $-1 $152 $152 $244 $245 reversed $96 $-1 #
face $-1 $-1 $246 $50 $-1 $247 forward single #
loop $-1 $248 $249 $98 #
cone-surface $-1 -46.481471292439942 -0.86095907648892478 2.2056761426401756 0.77714596973225614 0 -0.62932038083071107 0.15733009520767777 0 0.19428649243306403 1 I I -0.70710678118654746 0.70710678118654746 0.25 forward I I I I #
loop $-1 $-1 $250 $63 #
coedge $-1 $157 $157 $251 $252 reversed $99 $-1 #
face $-1 $-1 $253 $51 $-1 $254 forward single #
loop $-1 $255 $256 $101 #
cone-surface $-1 -46.481471292439942 1.5080493968354602 2.2056761426401756 0.77714596973225614 0 -0.62932038083071107 0.15733009520767777 0 0.19428649243306403 1 I I -0.70710678118654746 0.70710678118654746 0.25 forward I I I I #
loop $-1 $-1 $257 $64 #
coedge $-1 $162 $162 $258 $259 reversed $102 $-1 #
face $-1 $260 $261 $39 $-1 $262 reversed single #
loop $-1 $-1 $263 $104 #
plane-surface $-1 0 -21.377370903270457 0 0 1 0 0 0 1 forward_v I I I I #
coedge $-1 $264 $265 $266 $267 forward $105 $-1 #
coedge $-1 $268 $107 $269 $270 forward $66 $-1 #
coedge $-1 $107 $268 $271 $272 forward $66 $-1 #
coedge $-1 $273 $274 $107 $170 reversed $275 $-1 #
edge $-1 $276 -21.377370903270457 $277 21.377370903270457 $169 $278 forward 7 unknown #
face $-1 $279 $280 $40 $-1 $281 forward single #
loop $-1 $-1 $282 $108 #
plane-surface $-1 -38.484850847963152 -19.408489741383637 0 -1 0 0 0 0 1 forward_v I I I I #
coedge $-1 $283 $284 $285 $286 forward $109 $-1 #
coedge $-1 $287 $111 $288 $289 reversed $69 $-1 #
coedge $-1 $111 $287 $290 $291 reversed $69 $-1 #
coedge $-1 $284 $283 $111 $178 reversed $109 $-1 #
edge $-1 $292 -5.4989302082093481 $293 5.4989302082093481 $177 $294 forward 7 unknown #
face $-1 $295 $296 $41 $-1 $297 reversed single #
loop $-1 $-1 $298 $112 #
plane-surface $-1 -38.484850847963152 19.408489741383637 0 -1 0 0 0 0 1 forward_v I I I I #
coedge $-1 $299 $300 $301 $302 reversed $113 $-1 #
coedge $-1 $303 $115 $304 $305 reversed $72 $-1 #
coedge $-1 $115 $303 $306 $307 reversed $72 $-1 #
coedge $-1 $300 $299 $115 $186 reversed $113 $-1 #
edge $-1 $308 -5.4989302082093481 $309 5.4989302082093481 $185 $310 forward 7 unknown #
face $-1 $311 $312 $42 $-1 $313 forward single #
loop $-1 $-1 $314 $116 #
plane-surface $-1 66.539332274482987 -14.310301938310683 140.49931555021664 0 1 0 0.78801076186113728 0 0.61566146476048833 forward_v I I I I #
coedge $-1 $315 $316 $317 $318 reversed $117 $-1 #
coedge $-1 $192 $119 $319 $320 reversed $75 $-1 #
coedge $-1 $119 $191 $315 $321 reversed $75 $-1 #
coedge $-1 $317 $322 $119 $194 forward $312 $-1 #
edge $-1 $323 -16.213045127140354 $324 -13.154601327166787 $193 $325 forward 7 unknown #
loop $-1 $-1 $200 $120 #
plane-surface $-1 -11.446485730317448 -10.230622556649182 79.570118555517354 0.78801076186113728 0 0.61566146476048833 0.61566146476048833 0 -0.78801076186113728 forward_v I I I I #
loop $-1 $-1 $326 $77 #
coedge $-1 $198 $198 $199 $327 reversed $121 $-1 #
coedge $-1 $199 $199 $198 $327 forward $123 $-1 #
coedge $-1 $200 $200 $124 $201 forward $195 $-1 #
edge $-1 $328 0 $328 6.2831853071796004 $200 $329 forward 7 unknown #
loop $-1 $-1 $207 $125 #
plane-surface $-1 -11.446485730317448 -10.230622556649182 79.570118555517354 0.78801076186113728 0 0.61566146476048833 0.61566146476048833 0 -0.78801076186113728 forward_v I I I I #
loop $-1 $-1 $330 $80 #
coedge $-1 $205 $205 $206 $331 reversed $126 $-1 #
coedge $-1 $206 $206 $205 $331 forward $128 $-1 #
coedge $-1 $207 $207 $129 $208 forward $202 $-1 #
edge $-1 $332 0 $332 6.2831853071796004 $207 $333 forward 7 unknown #
face $-1 $334 $335 $45 $-1 $336 reversed single #
loop $-1 $-1 $337 $130 #
plane-surface $-1 66.539332274482987 6.1509431749876757 140.49931555021664 0 1 0 0.78801076186113728 0 0.61566146476048833 forward_v I I I I #
coedge $-1 $338 $339 $340 $341 reversed $131 $-1 #
coedge $-1 $214 $133 $342 $343 reversed $84 $-1 #
coedge $-1 $133 $213 $338 $344 reversed $84 $-1 #
coedge $-1 $340 $345 $133 $216 forward $346 $-1 #
edge $-1 $347 -16.213045127140354 $348 -13.154601327166787 $215 $349 forward 7 unknown #
loop $-1 $-1 $222 $134 #
plane-surface $-1 -11.446485730317448 10.230622556649177 79.570118555517354 0.78801076186113728 0 0.61566146476048833 0.61566146476048833 0 -0.78801076186113728 forward_v I I I I #
loop $-1 $-1 $350 $86 #
coedge $-1 $220 $220 $221 $351 reversed $135 $-1 #
coedge $-1 $221 $221 $220 $351 forward $137 $-1 #
coedge $-1 $222 $222 $138 $223 forward $217 $-1 #
edge $-1 $352 0 $352 6.2831853071796004 $222 $353 forward 7 unknown #
loop $-1 $-1 $229 $139 #
plane-surface $-1 -11.446485730317448 10.230622556649177 79.570118555517354 0.78801076186113728 0 0.61566146476048833 0.61566146476048833 0 -0.78801076186113728 forward_v I I I I #
loop $-1 $-1 $354 $89 #
coedge $-1 $227 $227 $228 $355 reversed $140 $-1 #
coedge $-1 $228 $228 $227 $355 forward $142 $-1 #
coedge $-1 $229 $229 $143 $230 forward $224 $-1 #
edge $-1 $356 0 $356 6.2831853071796004 $229 $357 forward 7 unknown #
face $-1 $358 $359 $48 $-1 $360 reversed single #
loop $-1 $-1 $361 $144 #
plane-surface $-1 -126.39329052546037 3.0873883790517223 62.766680424021587 0 -1 0 0.77714596973225614 0 -0.62932038083071107 forward_v I I I I #
coedge $-1 $362 $363 $364 $365 reversed $145 $-1 #
coedge $-1 $236 $147 $366 $367 reversed $93 $-1 #
coedge $-1 $147 $235 $362 $368 reversed $93 $-1 #
coedge $-1 $364 $369 $147 $238 forward $370 $-1 #
edge $-1 $371 13.713933998348338 $372 17.773549017901502 $237 $373 forward 7 unknown #
loop $-1 $-1 $244 $148 #
plane-surface $-1 -49.482711264381848 -0.86095907648892123 0.48572302914778476 -0.77714596973225614 0 0.62932038083071107 0.62932038083071107 0 0.77714596973225614 forward_v I I I I #
loop $-1 $-1 $374 $95 #
coedge $-1 $242 $242 $243 $375 reversed $149 $-1 #
coedge $-1 $243 $243 $242 $375 forward $151 $-1 #
coedge $-1 $244 $244 $152 $245 forward $239 $-1 #
edge $-1 $376 0 $376 6.2831853071796004 $244 $377 forward 7 unknown #
loop $-1 $-1 $251 $153 #
plane-surface $-1 -49.482711264381848 -0.86095907648892123 0.48572302914778476 -0.77714596973225614 0 0.62932038083071107 0.62932038083071107 0 0.77714596973225614 forward_v I I I I #
loop $-1 $-1 $378 $98 #
coedge $-1 $249 $249 $250 $379 reversed $154 $-1 #
coedge $-1 $250 $250 $249 $379 forward $156 $-1 #
coedge $-1 $251 $251 $157 $252 forward $246 $-1 #
edge $-1 $380 0 $380 6.2831853071796004 $251 $381 forward 7 unknown #
loop $-1 $-1 $258 $158 #
plane-surface $-1 -49.482711264381848 -0.86095907648892123 0.48572302914778476 -0.77714596973225614 0 0.62932038083071107 0.62932038083071107 0 0.77714596973225614 forward_v I I I I #
loop $-1 $-1 $382 $101 #
coedge $-1 $256 $256 $257 $383 reversed $159 $-1 #
coedge $-1 $257 $257 $256 $383 forward $161 $-1 #
coedge $-1 $258 $258 $162 $259 forward $253 $-1 #
edge $-1 $384 0 $384 6.2831853071796004 $258 $385 forward 7 unknown #
face $-1 $386 $387 $39 $-1 $388 reversed single #
loop $-1 $-1 $389 $163 #
plane-surface $-1 -49.482711264381848 0 0 1 0 0 0 0 -1 forward_v I I I I #
coedge $-1 $390 $271 $391 $392 forward $164 $-1 #
coedge $-1 $393 $166 $390 $394 forward $105 $-1 #
coedge $-1 $166 $393 $395 $396 forward $105 $-1 #
coedge $-1 $274 $273 $166 $267 reversed $275 $-1 #
edge $-1 $397 -21.377370903270457 $398 21.377370903270457 $266 $399 forward 7 unknown #
coedge $-1 $168 $167 $400 $401 forward $66 $-1 #
coedge $-1 $402 $403 $167 $270 reversed $387 $-1 #
edge $-1 $277 -49.482711264381848 $404 49.482711264381848 $269 $405 forward 7 unknown #
coedge $-1 $263 $406 $168 $272 reversed $164 $-1 #
edge $-1 $407 -49.482711264381848 $276 49.482711264381848 $271 $408 forward 7 unknown #
coedge $-1 $266 $169 $406 $409 forward $275 $-1 #
coedge $-1 $169 $266 $402 $410 reversed $275 $-1 #
loop $-1 $-1 $273 $386 #
vertex $-1 $170 $411 #
vertex $-1 $170 $412 #
straight-curve $-1 49.482711264381848 0 5.4989302082093481 0 1 0 I I #
face $-1 $413 $414 $40 $-1 $415 reversed single #
loop $-1 $-1 $416 $171 #
plane-surface $-1 0 0 5.4989302082093481 0 0 1 1 0 0 forward_v I I I I #
coedge $-1 $417 $418 $419 $420 reversed $172 $-1 #
coedge $-1 $177 $174 $421 $422 reversed $109 $-1 #
coedge $-1 $174 $177 $423 $424 reversed $109 $-1 #
coedge $-1 $418 $417 $174 $286 reversed $172 $-1 #
edge $-1 $425 -5.4989302082093481 $426 5.4989302082093481 $285 $427 forward 7 unknown #
coedge $-1 $176 $175 $428 $429 reversed $69 $-1 #
coedge $-1 $421 $430 $175 $289 forward $414 $-1 #
edge $-1 $431 -11.673126032578638 $293 -7.7353637088049982 $288 $432 forward 7 unknown #
coedge $-1 $433 $423 $176 $291 forward $280 $-1 #
edge $-1 $292 7.7353637088049982 $434 11.673126032578638 $290 $435 forward 7 unknown #
vertex $-1 $291 $436 #
vertex $-1 $289 $437 #
straight-curve $-1 -41.594908967552293 -17.439608579496817 0 0 0 -1 I I #
face $-1 $438 $439 $41 $-1 $440 forward single #
loop $-1 $-1 $441 $179 #
plane-surface $-1 0 0 -5.4989302082093481 0 0 1 1 0 0 forward_v I I I I #
coedge $-1 $442 $443 $303 $444 forward $180 $-1 #
coedge $-1 $185 $182 $445 $446 reversed $113 $-1 #
coedge $-1 $182 $185 $447 $448 reversed $113 $-1 #
coedge $-1 $449 $450 $182 $302 forward $451 $-1 #
edge $-1 $452 -5.4989302082093481 $453 5.4989302082093481 $301 $454 forward 7 unknown #
coedge $-1 $184 $183 $298 $444 reversed $72 $-1 #
coedge $-1 $445 $441 $183 $305 forward $296 $-1 #
edge $-1 $455 18.464910894084291 $309 21.574969013673432 $304 $456 forward 7 unknown #
coedge $-1 $457 $447 $184 $307 forward $439 $-1 #
edge $-1 $308 -21.574969013673432 $458 -18.464910894084291 $306 $459 forward 7 unknown #
vertex $-1 $307 $460 #
vertex $-1 $305 $461 #
straight-curve $-1 -41.594908967552293 17.439608579496817 0 0 0 -1 I I #
face $-1 $-1 $462 $42 $-1 $463 reversed single #
loop $-1 $-1 $193 $187 #
plane-surface $-1 0 0 5.4989302082093481 0 0 1 1 0 0 forward_v I I I I #
coedge $-1 $464 $465 $466 $467 reversed $188 $-1 #
coedge $-1 $468 $190 $192 $321 forward $117 $-1 #
coedge $-1 $190 $468 $464 $469 forward $117 $-1 #
coedge $-1 $466 $193 $190 $318 forward $312 $-1 #
edge $-1 $324 1.03563189666309 $470 9.1949906599860931 $317 $471 forward 7 unknown #
coedge $-1 $472 $473 $191 $320 forward $462 $-1 #
edge $-1 $474 -68.665357224391414 $323 -64.750727566898973 $319 $475 forward 7 unknown #
edge $-1 $324 93.997686240179533 $474 98.96542252876371 $192 $476 forward 7 unknown #
coedge $-1 $193 $466 $472 $477 forward $312 $-1 #
vertex $-1 $194 $478 #
vertex $-1 $194 $479 #
straight-curve $-1 33.269666137241494 -6.1509431749876811 5.4989302082093445 -1 0 0 I I #
coedge $-1 $326 $326 $-1 $480 reversed $197 $-1 #
edge $-1 $481 0 $481 6.2831853071796004 $198 $482 forward 7 unknown #
vertex $-1 $201 $483 #
ellipse-curve $-1 47.953489364395061 -11.979056577361256 3.5416153794631282 0.78801076186113728 0 0.61566146476048833 0.61566146476048833 0 -0.78801076186113728 1 I I #
coedge $-1 $330 $330 $-1 $484 reversed $204 $-1 #
edge $-1 $485 0 $485 6.2831853071796004 $205 $486 forward 7 unknown #
vertex $-1 $208 $487 #
ellipse-curve $-1 47.953489364395061 -8.4821885359371123 3.5416153794631282 0.78801076186113728 0 0.61566146476048833 0.61566146476048833 0 -0.78801076186113728 1 I I #
face $-1 $-1 $346 $45 $-1 $488 forward single #
loop $-1 $-1 $489 $209 #
plane-surface $-1 49.482711264381848 0 0 -1 0 0 0 0 1 forward_v I I I I #
coedge $-1 $490 $491 $492 $493 reversed $210 $-1 #
coedge $-1 $494 $212 $214 $344 forward $131 $-1 #
coedge $-1 $212 $494 $490 $495 forward $131 $-1 #
coedge $-1 $492 $215 $212 $341 forward $346 $-1 #
edge $-1 $348 -9.1949906599860896 $496 -1.0356318966630873 $340 $497 forward 7 unknown #
coedge $-1 $498 $499 $213 $343 forward $335 $-1 #
edge $-1 $500 -68.665357224391414 $347 -64.750727566898973 $342 $501 forward 7 unknown #
edge $-1 $348 93.997686240179533 $500 98.96542252876371 $214 $502 forward 7 unknown #
coedge $-1 $215 $492 $498 $503 forward $346 $-1 #
loop $-1 $-1 $492 $334 #
vertex $-1 $343 $504 #
vertex $-1 $216 $505 #
straight-curve $-1 33.269666137241494 14.310301938310678 5.4989302082093445 -1 0 0 I I #
coedge $-1 $350 $350 $-1 $506 reversed $219 $-1 #
edge $-1 $507 0 $507 6.2831853071796004 $220 $508 forward 7 unknown #
vertex $-1 $223 $509 #
ellipse-curve $-1 47.953489364395061 8.4821885359371052 3.5416153794631282 0.78801076186113728 0 0.61566146476048833 0.61566146476048833 0 -0.78801076186113728 1 I I #
coedge $-1 $354 $354 $-1 $510 reversed $226 $-1 #
edge $-1 $511 0 $511 6.2831853071796004 $227 $512 forward 7 unknown #
vertex $-1 $230 $513 #
ellipse-curve $-1 47.953489364395061 11.979056577361252 3.5416153794631282 0.78801076186113728 0 0.61566146476048833 0.61566146476048833 0 -0.78801076186113728 1 I I #
face $-1 $-1 $370 $48 $-1 $514 forward single #
loop $-1 $-1 $515 $231 #
plane-surface $-1 -49.482711264381848 0 0 1 0 0 0 0 -1 forward_v I I I I #
coedge $-1 $516 $517 $518 $519 reversed $232 $-1 #
coedge $-1 $520 $234 $236 $368 forward $145 $-1 #
coedge $-1 $234 $520 $516 $521 forward $145 $-1 #
coedge $-1 $518 $237 $234 $365 forward $370 $-1 #
edge $-1 $372 -4.3788269937851041 $522 3.5178679172961829 $364 $523 forward 7 unknown #
coedge $-1 $524 $525 $235 $367 forward $359 $-1 #
edge $-1 $526 -30.897617182863009 $371 -25.884410003801445 $366 $527 forward 7 unknown #
edge $-1 $372 -6.4507922247717779 $526 0 $236 $528 forward 7 unknown #
coedge $-1 $237 $518 $524 $529 forward $370 $-1 #
loop $-1 $-1 $518 $358 #
vertex $-1 $367 $530 #
vertex $-1 $238 $531 #
straight-curve $-1 -63.196645262730186 -4.8093065320295647 5.4989302082093481 1 0 0 I I #
coedge $-1 $374 $374 $-1 $532 reversed $241 $-1 #
edge $-1 $533 0 $533 6.2831853071796004 $242 $534 forward 7 unknown #
vertex $-1 $245 $535 #
ellipse-curve $-1 -47.452903754605266 -3.2299675498133098 2.9923266186785655 -0.77714596973225614 0 0.62932038083071107 0.31466019041535553 0 0.38857298486612807 1 I I #
coedge $-1 $378 $378 $-1 $536 reversed $248 $-1 #
edge $-1 $537 0 $537 6.2831853071796004 $249 $538 forward 7 unknown #
vertex $-1 $252 $539 #
ellipse-curve $-1 -47.452903754605266 -0.86095907648892478 2.9923266186785655 -0.77714596973225614 0 0.62932038083071107 0.31466019041535553 0 0.38857298486612807 1 I I #
coedge $-1 $382 $382 $-1 $540 reversed $255 $-1 #
edge $-1 $541 0 $541 6.2831853071796004 $256 $542 forward 7 unknown #
vertex $-1 $259 $543 #
ellipse-curve $-1 -47.452903754605266 1.5080493968354602 2.9923266186785655 -0.77714596973225614 0 0.62932038083071107 0.31466019041535553 0 0.38857298486612807 1 I I #
face $-1 $-1 $275 $39 $-1 $544 reversed single #
loop $-1 $-1 $402 $260 #
plane-surface $-1 0 21.377370903270457 0 0 -1 0 0 0 -1 forward_v I I I I #
coedge $-1 $545 $400 $403 $546 forward $261 $-1 #
coedge $-1 $406 $263 $264 $394 reversed $164 $-1 #
coedge $-1 $400 $545 $263 $392 reversed $261 $-1 #
edge $-1 $407 -5.4989302082093481 $547 5.4989302082093481 $391 $548 forward 7 unknown #
coedge $-1 $265 $264 $545 $549 forward $105 $-1 #
edge $-1 $398 -49.482711264381848 $547 49.482711264381848 $390 $550 forward 7 unknown #
coedge $-1 $403 $402 $265 $396 reversed $387 $-1 #
edge $-1 $551 -49.482711264381848 $397 49.482711264381848 $395 $552 forward 7 unknown #
vertex $-1 $267 $553 #
vertex $-1 $409 $554 #
straight-curve $-1 49.482711264381848 0 -5.4989302082093481 0 -1 0 I I #
coedge $-1 $389 $391 $268 $401 reversed $261 $-1 #
edge $-1 $404 -21.377370903270457 $407 21.377370903270457 $400 $555 forward 7 unknown #
coedge $-1 $395 $269 $274 $410 forward $387 $-1 #
coedge $-1 $269 $395 $389 $546 reversed $387 $-1 #
vertex $-1 $270 $556 #
straight-curve $-1 0 21.377370903270457 5.4989302082093481 -1 0 0 I I #
coedge $-1 $271 $390 $273 $409 reversed $164 $-1 #
vertex $-1 $401 $557 #
straight-curve $-1 0 -21.377370903270457 5.4989302082093481 1 0 0 I I #
edge $-1 $276 -5.4989302082093481 $398 5.4989302082093481 $273 $558 forward 7 unknown #
edge $-1 $277 -5.4989302082093481 $397 5.4989302082093481 $274 $559 forward 7 unknown #
point $-1 49.482711264381848 -21.377370903270457 5.4989302082093481 #
point $-1 49.482711264381848 21.377370903270457 5.4989302082093481 #
face $-1 $-1 $560 $40 $-1 $561 reversed single #
loop $-1 $-1 $562 $279 #
plane-surface $-1 0 0 -5.4989302082093481 0 0 1 1 0 0 forward_v I I I I #
coedge $-1 $423 $433 $418 $563 forward $280 $-1 #
coedge $-1 $285 $282 $562 $564 reversed $172 $-1 #
coedge $-1 $282 $285 $416 $563 reversed $172 $-1 #
coedge $-1 $565 $566 $282 $420 forward $560 $-1 #
edge $-1 $567 -5.4989302082093481 $568 5.4989302082093481 $419 $569 forward 7 unknown #
coedge $-1 $562 $288 $283 $422 forward $414 $-1 #
edge $-1 $293 -21.574969013673432 $426 -18.464910894084291 $421 $570 forward 7 unknown #
coedge $-1 $290 $416 $284 $424 forward $280 $-1 #
edge $-1 $425 18.464910894084291 $292 21.574969013673432 $423 $571 forward 7 unknown #
vertex $-1 $424 $572 #
vertex $-1 $422 $573 #
straight-curve $-1 -38.484850847963152 -17.439608579496817 0 0 0 -1 I I #
coedge $-1 $566 $565 $287 $429 forward $560 $-1 #
edge $-1 $434 -5.4989302082093481 $431 5.4989302082093481 $428 $574 forward 7 unknown #
coedge $-1 $288 $562 $566 $575 forward $414 $-1 #
vertex $-1 $289 $576 #
straight-curve $-1 -41.594908967552293 -9.7042448706918183 -5.4989302082093481 0 1 0 I I #
coedge $-1 $416 $290 $565 $577 forward $280 $-1 #
vertex $-1 $577 $578 #
straight-curve $-1 -41.594908967552293 -9.7042448706918183 5.4989302082093481 0 -1 0 I I #
point $-1 -41.594908967552293 -17.439608579496817 5.4989302082093481 #
point $-1 -41.594908967552293 -17.439608579496817 -5.4989302082093481 #
face $-1 $-1 $451 $41 $-1 $579 reversed single #
loop $-1 $-1 $457 $295 #
plane-surface $-1 0 0 5.4989302082093481 0 0 1 1 0 0 forward_v I I I I #
coedge $-1 $304 $580 $442 $581 forward $296 $-1 #
coedge $-1 $582 $298 $441 $581 reversed $180 $-1 #
coedge $-1 $298 $582 $457 $583 reversed $180 $-1 #
edge $-1 $458 -5.4989302082093481 $455 5.4989302082093481 $298 $584 forward 7 unknown #
coedge $-1 $580 $304 $299 $446 forward $296 $-1 #
edge $-1 $309 7.7353637088049982 $452 11.673126032578638 $445 $585 forward 7 unknown #
coedge $-1 $306 $586 $300 $448 forward $439 $-1 #
edge $-1 $453 -11.673126032578638 $308 -7.7353637088049982 $447 $587 forward 7 unknown #
coedge $-1 $588 $301 $586 $589 reversed $451 $-1 #
coedge $-1 $301 $588 $580 $590 reversed $451 $-1 #
loop $-1 $-1 $588 $438 #
vertex $-1 $590 $591 #
vertex $-1 $302 $592 #
straight-curve $-1 -41.594908967552293 21.377370903270457 0 0 0 1 I I #
vertex $-1 $305 $593 #
straight-curve $-1 -20.019939953878861 17.439608579496817 -5.4989302082093481 -1 0 0 I I #
coedge $-1 $586 $306 $443 $583 forward $439 $-1 #
vertex $-1 $307 $594 #
straight-curve $-1 -20.019939953878861 17.439608579496817 5.4989302082093481 1 0 0 I I #
point $-1 -41.594908967552293 17.439608579496817 5.4989302082093481 #
point $-1 -41.594908967552293 17.439608579496817 -5.4989302082093481 #
loop $-1 $-1 $319 $311 #
plane-surface $-1 49.482711264381848 0 0 -1 0 0 0 0 1 forward_v I I I I #
coedge $-1 $465 $314 $316 $469 reversed $188 $-1 #
coedge $-1 $314 $464 $595 $596 reversed $188 $-1 #
coedge $-1 $322 $317 $314 $467 forward $312 $-1 #
edge $-1 $470 13.154601327166787 $597 16.213045127140354 $466 $598 forward 7 unknown #
coedge $-1 $316 $315 $473 $599 reversed $117 $-1 #
edge $-1 $600 -98.96542252876371 $470 -93.997686240179533 $464 $601 forward 7 unknown #
vertex $-1 $318 $602 #
straight-curve $-1 46.424267464408288 -5.1153112783245911 5.4989302082093374 0 -1 0 I I #
coedge $-1 $595 $319 $322 $477 reversed $462 $-1 #
coedge $-1 $319 $595 $468 $599 forward $462 $-1 #
vertex $-1 $320 $603 #
straight-curve $-1 49.482711264381848 -6.1509431749876811 70.249657775108318 0 0 1 I I #
straight-curve $-1 -11.446485730317448 -6.1509431749876811 79.570118555517354 0.61566146476048833 0 -0.78801076186113728 I I #
edge $-1 $597 -14.310301938310683 $323 -6.1509431749876811 $472 $604 forward 7 unknown #
point $-1 49.482711264381848 -6.1509431749876811 5.4989302082093481 #
point $-1 46.424267464408281 -6.1509431749876811 5.4989302082093445 #
edge $-1 $605 1 $605 0 $326 $-1 forward 7 unknown #
vertex $-1 $327 $606 #
ellipse-curve $-1 47.028399793286553 -11.979056577361256 2.818856214298735 0.78801076186113728 0 0.61566146476048833 0.61566146476048833 0 -0.78801076186113728 1 I I #
point $-1 48.569150829155546 -11.979056577361256 2.7536046176019924 #
edge $-1 $607 1 $607 0 $330 $-1 forward 7 unknown #
vertex $-1 $331 $608 #
ellipse-curve $-1 47.028399793286553 -8.4821885359371123 2.818856214298735 0.78801076186113728 0 0.61566146476048833 0.61566146476048833 0 -0.78801076186113728 1 I I #
point $-1 48.569150829155546 -8.4821885359371123 2.7536046176019924 #
plane-surface $-1 0 0 5.4989302082093481 0 0 1 1 0 0 forward_v I I I I #
coedge $-1 $499 $498 $491 $609 forward $335 $-1 #
coedge $-1 $491 $337 $339 $495 reversed $210 $-1 #
coedge $-1 $337 $490 $489 $609 reversed $210 $-1 #
coedge $-1 $345 $340 $337 $493 forward $346 $-1 #
edge $-1 $496 13.154601327166787 $610 16.213045127140354 $492 $611 forward 7 unknown #
coedge $-1 $339 $338 $499 $612 reversed $131 $-1 #
edge $-1 $613 -98.96542252876371 $496 -93.997686240179533 $490 $614 forward 7 unknown #
vertex $-1 $341 $615 #
straight-curve $-1 46.424267464408288 5.1153112783245884 5.4989302082093374 0 -1 0 I I #
coedge $-1 $489 $342 $345 $503 reversed $335 $-1 #
coedge $-1 $342 $489 $494 $612 forward $335 $-1 #
vertex $-1 $343 $616 #
straight-curve $-1 49.482711264381848 14.310301938310678 70.249657775108318 0 0 1 I I #
straight-curve $-1 -11.446485730317448 14.310301938310678 79.570118555517354 0.61566146476048833 0 -0.78801076186113728 I I #
edge $-1 $610 6.1509431749876757 $347 14.310301938310678 $498 $617 forward 7 unknown #
point $-1 49.482711264381848 14.310301938310678 5.4989302082093481 #
point $-1 46.424267464408281 14.310301938310678 5.4989302082093445 #
edge $-1 $618 1 $618 0 $350 $-1 forward 7 unknown #
vertex $-1 $351 $619 #
ellipse-curve $-1 47.028399793286553 8.4821885359371052 2.818856214298735 0.78801076186113728 0 0.61566146476048833 0.61566146476048833 0 -0.78801076186113728 1 I I #
point $-1 48.569150829155546 8.4821885359371052 2.7536046176019924 #
edge $-1 $620 1 $620 0 $354 $-1 forward 7 unknown #
vertex $-1 $355 $621 #
ellipse-curve $-1 47.028399793286553 11.979056577361252 2.818856214298735 0.78801076186113728 0 0.61566146476048833 0.61566146476048833 0 -0.78801076186113728 1 I I #
point $-1 48.569150829155546 11.979056577361252 2.7536046176019924 #
plane-surface $-1 0 0 5.4989302082093481 0 0 1 1 0 0 forward_v I I I I #
coedge $-1 $525 $524 $517 $622 forward $359 $-1 #
coedge $-1 $517 $361 $363 $521 reversed $232 $-1 #
coedge $-1 $361 $516 $515 $622 reversed $232 $-1 #
coedge $-1 $369 $364 $361 $519 forward $370 $-1 #
edge $-1 $522 -17.773549017901502 $623 -13.713933998348338 $518 $624 forward 7 unknown #
coedge $-1 $363 $362 $525 $625 reversed $145 $-1 #
edge $-1 $626 0 $522 6.4507922247717779 $516 $627 forward 7 unknown #
vertex $-1 $365 $628 #
straight-curve $-1 -45.423096244828685 -0.43047953824446061 5.4989302082093481 0 1 0 I I #
coedge $-1 $515 $366 $369 $529 reversed $359 $-1 #
coedge $-1 $366 $515 $520 $625 forward $359 $-1 #
vertex $-1 $367 $629 #
straight-curve $-1 -49.482711264381848 -4.8093065320295647 31.383340212010793 0 0 1 I I #
straight-curve $-1 -49.482711264381848 -4.8093065320295647 0.48572302914778476 -0.62932038083071107 0 -0.77714596973225614 I I #
edge $-1 $623 -3.0873883790517223 $371 4.8093065320295647 $524 $630 forward 7 unknown #
point $-1 -49.482711264381848 -4.8093065320295647 5.4989302082093481 #
point $-1 -45.423096244828685 -4.8093065320295647 5.4989302082093481 #
edge $-1 $631 1 $631 0 $374 $-1 forward 7 unknown #
vertex $-1 $375 $632 #
ellipse-curve $-1 -46.675757784873007 -3.2299675498133098 2.3630062378478534 -0.77714596973225614 0 0.62932038083071107 0.31466019041535553 0 0.38857298486612807 1 I I #
point $-1 -47.138243564189906 -3.2299675498133098 3.3808996035446928 #
edge $-1 $633 1 $633 0 $378 $-1 forward 7 unknown #
vertex $-1 $379 $634 #
ellipse-curve $-1 -46.675757784873007 -0.86095907648892478 2.3630062378478534 -0.77714596973225614 0 0.62932038083071107 0.31466019041535553 0 0.38857298486612807 1 I I #
point $-1 -47.138243564189906 -0.86095907648892478 3.3808996035446928 #
edge $-1 $635 1 $635 0 $382 $-1 forward 7 unknown #
vertex $-1 $383 $636 #
ellipse-curve $-1 -46.675757784873007 1.5080493968354602 2.3630062378478534 -0.77714596973225614 0 0.62932038083071107 0.31466019041535553 0 0.38857298486612807 1 I I #
point $-1 -47.138243564189906 1.5080493968354602 3.3808996035446928 #
plane-surface $-1 49.482711264381848 0 0 -1 0 0 0 0 1 forward_v I I I I #
coedge $-1 $391 $389 $393 $549 reversed $261 $-1 #
edge $-1 $404 -5.4989302082093481 $551 5.4989302082093481 $403 $637 forward 7 unknown #
vertex $-1 $549 $638 #
straight-curve $-1 -49.482711264381848 -21.377370903270457 0 0 0 -1 I I #
edge $-1 $547 -21.377370903270457 $551 21.377370903270457 $545 $639 forward 7 unknown #
straight-curve $-1 0 -21.377370903270457 -5.4989302082093481 -1 0 0 I I #
vertex $-1 $396 $640 #
straight-curve $-1 0 21.377370903270457 -5.4989302082093481 1 0 0 I I #
point $-1 49.482711264381848 21.377370903270457 -5.4989302082093481 #
point $-1 49.482711264381848 -21.377370903270457 -5.4989302082093481 #
straight-curve $-1 -49.482711264381848 0 5.4989302082093481 0 -1 0 I I #
point $-1 -49.482711264381848 21.377370903270457 5.4989302082093481 #
point $-1 -49.482711264381848 -21.377370903270457 5.4989302082093481 #
straight-curve $-1 49.482711264381848 -21.377370903270457 0 0 0 -1 I I #
straight-curve $-1 49.482711264381848 21.377370903270457 0 0 0 -1 I I #
loop $-1 $-1 $419 $413 #
plane-surface $-1 0 -21.377370903270457 0 0 1 0 0 0 1 forward_v I I I I #
coedge $-1 $430 $421 $417 $564 forward $414 $-1 #
edge $-1 $568 -11.673126032578638 $425 -7.7353637088049982 $416 $641 forward 7 unknown #
edge $-1 $426 7.7353637088049982 $567 11.673126032578638 $562 $642 forward 7 unknown #
coedge $-1 $428 $419 $433 $577 reversed $560 $-1 #
coedge $-1 $419 $428 $430 $575 reversed $560 $-1 #
vertex $-1 $575 $643 #
vertex $-1 $420 $644 #
straight-curve $-1 -38.484850847963152 -21.377370903270457 0 0 0 1 I I #
straight-curve $-1 -20.019939953878861 -17.439608579496817 -5.4989302082093481 1 0 0 I I #
straight-curve $-1 -20.019939953878861 -17.439608579496817 5.4989302082093481 -1 0 0 I I #
point $-1 -38.484850847963152 -17.439608579496817 5.4989302082093481 #
point $-1 -38.484850847963152 -17.439608579496817 -5.4989302082093481 #
straight-curve $-1 -41.594908967552293 -21.377370903270457 0 0 0 -1 I I #
edge $-1 $567 38.484850847963152 $431 41.594908967552293 $566 $645 forward 7 unknown #
point $-1 -41.594908967552293 -21.377370903270457 -5.4989302082093481 #
edge $-1 $434 -41.594908967552293 $568 -38.484850847963152 $565 $646 forward 7 unknown #
point $-1 -41.594908967552293 -21.377370903270457 5.4989302082093481 #
plane-surface $-1 0 21.377370903270457 0 0 -1 0 0 0 -1 forward_v I I I I #
coedge $-1 $441 $445 $450 $590 forward $296 $-1 #
edge $-1 $647 -11.673126032578638 $455 -7.7353637088049982 $441 $648 forward 7 unknown #
coedge $-1 $443 $442 $588 $649 reversed $180 $-1 #
edge $-1 $458 7.7353637088049982 $650 11.673126032578638 $457 $651 forward 7 unknown #
straight-curve $-1 -38.484850847963152 17.439608579496817 0 0 0 -1 I I #
straight-curve $-1 -41.594908967552293 9.7042448706918183 -5.4989302082093481 0 1 0 I I #
coedge $-1 $447 $457 $449 $589 forward $439 $-1 #
straight-curve $-1 -41.594908967552293 9.7042448706918183 5.4989302082093481 0 -1 0 I I #
coedge $-1 $450 $449 $582 $649 forward $451 $-1 #
edge $-1 $650 38.484850847963152 $453 41.594908967552293 $449 $652 forward 7 unknown #
edge $-1 $452 -41.594908967552293 $647 -38.484850847963152 $450 $653 forward 7 unknown #
point $-1 -41.594908967552293 21.377370903270457 -5.4989302082093481 #
point $-1 -41.594908967552293 21.377370903270457 5.4989302082093481 #
point $-1 -38.484850847963152 17.439608579496817 -5.4989302082093481 #
point $-1 -38.484850847963152 17.439608579496817 5.4989302082093481 #
coedge $-1 $473 $472 $465 $596 forward $462 $-1 #
edge $-1 $597 64.750727566898973 $600 68.665357224391414 $595 $654 forward 7 unknown #
vertex $-1 $477 $655 #
straight-curve $-1 33.269666137241494 -14.310301938310683 5.4989302082093445 1 0 0 I I #
edge $-1 $600 -9.1949906599860931 $474 -1.03563189666309 $473 $656 forward 7 unknown #
vertex $-1 $599 $657 #
straight-curve $-1 -11.446485730317448 -14.310301938310683 79.570118555517354 -0.61566146476048833 0 0.78801076186113728 I I #
point $-1 46.424267464408281 -14.310301938310683 5.4989302082093445 #
point $-1 49.482711264381848 -6.1509431749876811 1.5843005507169039 #
straight-curve $-1 49.482711264381848 0 5.4989302082093481 0 1 0 I I #
vertex $-1 $480 $658 #
point $-1 47.644061258047046 -11.979056577361256 2.0308454524375978 #
vertex $-1 $484 $659 #
point $-1 47.644061258047046 -8.4821885359371123 2.0308454524375978 #
edge $-1 $610 64.750727566898973 $613 68.665357224391414 $489 $660 forward 7 unknown #
vertex $-1 $503 $661 #
straight-curve $-1 33.269666137241494 6.1509431749876757 5.4989302082093445 1 0 0 I I #
edge $-1 $613 1.0356318966630873 $500 9.1949906599860896 $499 $662 forward 7 unknown #
vertex $-1 $612 $663 #
straight-curve $-1 -11.446485730317448 6.1509431749876757 79.570118555517354 -0.61566146476048833 0 0.78801076186113728 I I #
point $-1 46.424267464408281 6.1509431749876757 5.4989302082093445 #
point $-1 49.482711264381848 14.310301938310678 1.5843005507169039 #
straight-curve $-1 49.482711264381848 0 5.4989302082093481 0 1 0 I I #
vertex $-1 $506 $664 #
point $-1 47.644061258047046 8.4821885359371052 2.0308454524375978 #
vertex $-1 $510 $665 #
point $-1 47.644061258047046 11.979056577361252 2.0308454524375978 #
edge $-1 $623 25.884410003801445 $626 30.897617182863009 $515 $666 forward 7 unknown #
vertex $-1 $529 $667 #
straight-curve $-1 -63.196645262730186 3.0873883790517223 5.4989302082093481 -1 0 0 I I #
edge $-1 $626 -3.5178679172961829 $526 4.3788269937851041 $525 $668 forward 7 unknown #
vertex $-1 $625 $669 #
straight-curve $-1 -49.482711264381848 3.0873883790517223 0.48572302914778476 0.62932038083071107 0 0.77714596973225614 I I #
point $-1 -45.423096244828685 3.0873883790517223 5.4989302082093481 #
point $-1 -49.482711264381848 -4.8093065320295647 0.48572302914778476 #
straight-curve $-1 -49.482711264381848 0 5.4989302082093481 0 -1 0 I I #
vertex $-1 $532 $670 #
point $-1 -46.361097594457647 -3.2299675498133098 2.7515792227139815 #
vertex $-1 $536 $671 #
point $-1 -46.361097594457647 -0.86095907648892478 2.7515792227139815 #
vertex $-1 $540 $672 #
point $-1 -46.361097594457647 1.5080493968354602 2.7515792227139815 #
straight-curve $-1 -49.482711264381848 21.377370903270457 0 0 0 -1 I I #
point $-1 -49.482711264381848 -21.377370903270457 -5.4989302082093481 #
straight-curve $-1 -49.482711264381848 0 -5.4989302082093481 0 1 0 I I #
point $-1 -49.482711264381848 21.377370903270457 -5.4989302082093481 #
straight-curve $-1 -38.484850847963152 -9.7042448706918183 5.4989302082093481 0 1 0 I I #
straight-curve $-1 -38.484850847963152 -9.7042448706918183 -5.4989302082093481 0 -1 0 I I #
point $-1 -38.484850847963152 -21.377370903270457 -5.4989302082093481 #
point $-1 -38.484850847963152 -21.377370903270457 5.4989302082093481 #
straight-curve $-1 0 -21.377370903270457 -5.4989302082093481 -1 0 0 I I #
straight-curve $-1 0 -21.377370903270457 5.4989302082093481 1 0 0 I I #
vertex $-1 $649 $673 #
straight-curve $-1 -38.484850847963152 9.7042448706918183 -5.4989302082093481 0 -1 0 I I #
edge $-1 $650 -5.4989302082093481 $647 5.4989302082093481 $588 $674 forward 7 unknown #
vertex $-1 $589 $675 #
straight-curve $-1 -38.484850847963152 9.7042448706918183 5.4989302082093481 0 1 0 I I #
straight-curve $-1 0 21.377370903270457 5.4989302082093481 -1 0 0 I I #
straight-curve $-1 0 21.377370903270457 -5.4989302082093481 1 0 0 I I #
straight-curve $-1 49.482711264381848 -14.310301938310683 70.249657775108318 0 0 -1 I I #
point $-1 49.482711264381848 -14.310301938310683 5.4989302082093481 #
straight-curve $-1 49.482711264381848 -5.1153112783245911 1.5843005507168968 0 1 0 I I #
point $-1 49.482711264381848 -14.310301938310683 1.5843005507169039 #
point $-1 46.240389031425423 -11.979056577361256 2.2031947495382469 #
point $-1 46.240389031425423 -8.4821885359371123 2.2031947495382469 #
straight-curve $-1 49.482711264381848 6.1509431749876757 70.249657775108318 0 0 -1 I I #
point $-1 49.482711264381848 6.1509431749876757 5.4989302082093481 #
straight-curve $-1 49.482711264381848 5.1153112783245884 1.5843005507168968 0 1 0 I I #
point $-1 49.482711264381848 6.1509431749876757 1.5843005507169039 #
point $-1 46.240389031425423 8.4821885359371052 2.2031947495382469 #
point $-1 46.240389031425423 11.979056577361252 2.2031947495382469 #
straight-curve $-1 -49.482711264381848 3.0873883790517223 31.383340212010793 0 0 -1 I I #
point $-1 -49.482711264381848 3.0873883790517223 5.4989302082093481 #
straight-curve $-1 -49.482711264381848 -0.43047953824446061 0.48572302914778487 0 -1 0 I I #
point $-1 -49.482711264381848 3.0873883790517223 0.48572302914778476 #
point $-1 -46.287184800006877 -3.2299675498133098 2.0483460474324979 #
point $-1 -46.287184800006877 -0.86095907648892478 2.0483460474324979 #
point $-1 -46.287184800006877 1.5080493968354602 2.0483460474324979 #
point $-1 -38.484850847963152 21.377370903270457 -5.4989302082093481 #
straight-curve $-1 -38.484850847963152 21.377370903270457 0 0 0 -1 I I #
point $-1 -38.484850847963152 21.377370903270457 5.4989302082093481 #
End-of-ACIS-data 