500 0 10 0           
7 Unknown 11 ACIS 5.0 NT 24 Fri Mar 26 20:20:04 1999 
-1 9.9999999999999995e-007 1e-010 
body $-1 $10 $-1 $11 #
body $-1 $12 $-1 $13 #
body $-1 $14 $-1 $15 #
body $-1 $16 $-1 $17 #
body $-1 $18 $-1 $19 #
body $-1 $20 $-1 $21 #
body $-1 $22 $-1 $23 #
body $-1 $24 $-1 $25 #
body $-1 $26 $-1 $27 #
body $-1 $28 $-1 $29 #
lump $-1 $-1 $30 $0 #
transform $-1 1 0 0 0 1 0 0 0 1 40.263679921872615 18.472853960920432 4 1 rotate no_reflect no_shear #
lump $-1 $-1 $31 $1 #
transform $-1 1 0 0 0 1 0 0 0 1 40.263679921872615 18.472853960920432 4 1 rotate no_reflect no_shear #
lump $-1 $-1 $32 $2 #
transform $-1 1 0 0 0 1 0 0 0 1 40.263679921872615 18.472853960920432 4 1 rotate no_reflect no_shear #
lump $-1 $-1 $33 $3 #
transform $-1 1 0 0 0 1 0 0 0 1 40.263679921872615 18.472853960920432 4 1 rotate no_reflect no_shear #
lump $-1 $-1 $34 $4 #
transform $-1 1 0 0 0 1 0 0 0 1 40.263679921872615 18.472853960920432 4 1 rotate no_reflect no_shear #
lump $-1 $-1 $35 $5 #
transform $-1 1 0 0 0 1 0 0 0 1 40.263679921872615 18.472853960920432 4 1 rotate no_reflect no_shear #
lump $-1 $-1 $36 $6 #
transform $-1 1 0 0 0 1 0 0 0 1 40.263679921872615 18.472853960920432 4 1 rotate no_reflect no_shear #
lump $-1 $-1 $37 $7 #
transform $-1 1 0 0 0 1 0 0 0 1 40.263679921872615 18.472853960920432 4 1 rotate no_reflect no_shear #
lump $-1 $-1 $38 $8 #
transform $-1 1 0 0 0 1 0 0 0 1 40.263679921872615 18.472853960920432 4 1 rotate no_reflect no_shear #
lump $-1 $-1 $39 $9 #
transform $-1 1 0 0 0 1 0 0 0 1 40.263679921872615 18.472853960920432 4 1 rotate no_reflect no_shear #
shell $-1 $-1 $-1 $40 $-1 $10 #
shell $-1 $-1 $-1 $41 $-1 $12 #
shell $-1 $-1 $-1 $42 $-1 $14 #
shell $-1 $-1 $-1 $43 $-1 $16 #
shell $-1 $-1 $-1 $44 $-1 $18 #
shell $-1 $-1 $-1 $45 $-1 $20 #
shell $-1 $-1 $-1 $46 $-1 $22 #
shell $-1 $-1 $-1 $47 $-1 $24 #
shell $-1 $-1 $-1 $48 $-1 $26 #
shell $-1 $-1 $-1 $49 $-1 $28 #
face $-1 $50 $51 $30 $-1 $52 forward single #
face $-1 $53 $54 $31 $-1 $55 reversed single #
face $-1 $56 $57 $32 $-1 $58 reversed single #
face $-1 $59 $60 $33 $-1 $61 forward single #
face $-1 $62 $63 $34 $-1 $64 forward single #
face $-1 $65 $66 $35 $-1 $67 forward single #
face $-1 $68 $69 $36 $-1 $70 reversed single #
face $-1 $71 $72 $37 $-1 $73 forward single #
face $-1 $74 $75 $38 $-1 $76 forward single #
face $-1 $77 $78 $39 $-1 $79 forward single #
face $-1 $80 $81 $30 $-1 $82 reversed single #
loop $-1 $-1 $83 $40 #
plane-surface $-1 0 0 4 0 0 1 1 0 0 forward_v I I I I #
face $-1 $84 $85 $31 $-1 $86 reversed single #
loop $-1 $-1 $87 $41 #
plane-surface $-1 0 -15.956084039963372 1 0 0 1 1 0 0 forward_v I I I I #
face $-1 $88 $89 $32 $-1 $90 reversed single #
loop $-1 $-1 $91 $42 #
plane-surface $-1 -84.122024054109858 10.799835451327766 67.572609490519113 0 1 0 -0.54463904215088732 0 0.83867056331134215 forward_v I I I I #
face $-1 $92 $93 $33 $-1 $94 forward single #
loop $-1 $95 $96 $43 #
cone-surface $-1 -36.939874154487043 12.334439153246301 1.5990063425394028 0.54463904215088732 0 -0.83867056331134215 0.41933528165567108 0 0.27231952107544366 1 I I 0 1 0.5 forward I I I I #
face $-1 $97 $98 $34 $-1 $99 forward single #
loop $-1 $100 $101 $44 #
cone-surface $-1 -36.939874154487043 14.636344706124099 1.5990063425394028 0.54463904215088732 0 -0.83867056331134215 0.41933528165567108 0 0.27231952107544366 1 I I 0 1 0.5 forward I I I I #
face $-1 $102 $103 $35 $-1 $104 forward single #
loop $-1 $105 $106 $45 #
cone-surface $-1 -36.939874154487043 16.938250259001897 1.5990063425394028 0.54463904215088732 0 -0.83867056331134215 0.41933528165567108 0 0.27231952107544366 1 I I 0 1 0.5 forward I I I I #
face $-1 $107 $108 $36 $-1 $109 reversed single #
loop $-1 $-1 $110 $46 #
plane-surface $-1 58.078889591483751 11.147773655511962 112.50875185457693 0 -1 0 -0.80901700255871778 0 -0.5877852410284794 forward_v I I I I #
face $-1 $111 $112 $37 $-1 $113 forward single #
loop $-1 $114 $115 $47 #
cone-surface $-1 38.41624163855203 5.7297819943153598 1.7200848568257816 -0.80901700255871778 0 -0.5877852410284794 0.2938926205142397 0 -0.40450850127935889 1 I I 0 1 0.5 forward I I I I #
face $-1 $116 $117 $38 $-1 $118 forward single #
loop $-1 $119 $120 $48 #
cone-surface $-1 38.41624163855203 7.7615288672640865 1.7200848568257816 -0.80901700255871778 0 -0.5877852410284794 0.2938926205142397 0 -0.40450850127935889 1 I I 0 1 0.5 forward I I I I #
face $-1 $121 $122 $39 $-1 $123 forward single #
loop $-1 $124 $125 $49 #
cone-surface $-1 38.41624163855203 9.7932757402128132 1.7200848568257816 -0.80901700255871778 0 -0.5877852410284794 0.2938926205142397 0 -0.40450850127935889 1 I I 0 1 0.5 forward I I I I #
face $-1 $126 $127 $30 $-1 $128 reversed single #
loop $-1 $-1 $129 $50 #
plane-surface $-1 0 0 -4 0 0 1 1 0 0 forward_v I I I I #
coedge $-1 $130 $131 $132 $133 forward $51 $-1 #
face $-1 $134 $135 $31 $-1 $136 reversed single #
loop $-1 $-1 $137 $53 #
plane-surface $-1 0 -13.439314119006312 2.5 0 -1 0 0 0 -1 forward_v I I I I #
coedge $-1 $138 $139 $140 $141 reversed $54 $-1 #
face $-1 $142 $143 $32 $-1 $144 forward single #
loop $-1 $-1 $145 $56 #
plane-surface $-1 -40.26367992187263 14.636344706124099 0.036683248390147583 -0.54463904215088732 0 0.83867056331134215 0.83867056331134215 0 0.54463904215088732 forward_v I I I I #
coedge $-1 $146 $147 $148 $149 reversed $57 $-1 #
face $-1 $-1 $150 $33 $-1 $151 forward single #
loop $-1 $152 $153 $59 #
cone-surface $-1 -36.531394872873875 12.334439153246301 0.97000342005589602 0.54463904215088732 0 -0.83867056331134215 0.20966764082783554 0 0.13615976053772183 1 I I -0.70710678118654746 0.70710678118654746 0.25 forward I I I I #
loop $-1 $-1 $154 $43 #
coedge $-1 $96 $96 $155 $156 reversed $60 $-1 #
face $-1 $-1 $157 $34 $-1 $158 forward single #
loop $-1 $159 $160 $62 #
cone-surface $-1 -36.531394872873875 14.636344706124099 0.97000342005589602 0.54463904215088732 0 -0.83867056331134215 0.20966764082783554 0 0.13615976053772183 1 I I -0.70710678118654746 0.70710678118654746 0.25 forward I I I I #
loop $-1 $-1 $161 $44 #
coedge $-1 $101 $101 $162 $163 reversed $63 $-1 #
face $-1 $-1 $164 $35 $-1 $165 forward single #
loop $-1 $166 $167 $65 #
cone-surface $-1 -36.531394872873875 16.938250259001897 0.97000342005589602 0.54463904215088732 0 -0.83867056331134215 0.20966764082783554 0 0.13615976053772183 1 I I -0.70710678118654746 0.70710678118654746 0.25 forward I I I I #
loop $-1 $-1 $168 $45 #
coedge $-1 $106 $106 $169 $170 reversed $66 $-1 #
face $-1 $171 $172 $36 $-1 $173 reversed single #
loop $-1 $-1 $174 $68 #
plane-surface $-1 -7.0691136932702747 7.7615288672640865 65.175958239434038 0.80901700255871778 0 0.5877852410284794 0.5877852410284794 0 -0.80901700255871778 forward_v I I I I #
coedge $-1 $175 $176 $177 $178 reversed $69 $-1 #
face $-1 $-1 $179 $37 $-1 $180 forward single #
loop $-1 $181 $182 $71 #
cone-surface $-1 37.809478886632995 5.7297819943153598 1.279245926054422 -0.80901700255871778 0 -0.5877852410284794 0.14694631025711985 0 -0.20225425063967944 1 I I -0.70710678118654746 0.70710678118654746 0.25 forward I I I I #
loop $-1 $-1 $183 $47 #
coedge $-1 $115 $115 $184 $185 reversed $72 $-1 #
face $-1 $-1 $186 $38 $-1 $187 forward single #
loop $-1 $188 $189 $74 #
cone-surface $-1 37.809478886632995 7.7615288672640865 1.279245926054422 -0.80901700255871778 0 -0.5877852410284794 0.14694631025711985 0 -0.20225425063967944 1 I I -0.70710678118654746 0.70710678118654746 0.25 forward I I I I #
loop $-1 $-1 $190 $48 #
coedge $-1 $120 $120 $191 $192 reversed $75 $-1 #
face $-1 $-1 $193 $39 $-1 $194 forward single #
loop $-1 $195 $196 $77 #
cone-surface $-1 37.809478886632995 9.7932757402128132 1.279245926054422 -0.80901700255871778 0 -0.5877852410284794 0.14694631025711985 0 -0.20225425063967944 1 I I -0.70710678118654746 0.70710678118654746 0.25 forward I I I I #
loop $-1 $-1 $197 $49 #
coedge $-1 $125 $125 $198 $199 reversed $78 $-1 #
face $-1 $200 $201 $30 $-1 $202 reversed single #
loop $-1 $-1 $203 $80 #
plane-surface $-1 0 -18.472853960920432 0 0 1 0 0 0 1 forward_v I I I I #
coedge $-1 $204 $205 $206 $207 forward $81 $-1 #
coedge $-1 $208 $83 $209 $210 forward $51 $-1 #
coedge $-1 $83 $208 $211 $212 forward $51 $-1 #
coedge $-1 $213 $214 $83 $133 reversed $215 $-1 #
edge $-1 $216 -18.472853960920432 $217 18.472853960920432 $132 $218 forward 7 unknown #
face $-1 $219 $220 $31 $-1 $221 reversed single #
loop $-1 $-1 $222 $84 #
plane-surface $-1 -40.263679921872615 0 0 1 0 0 0 0 -1 forward_v I I I I #
coedge $-1 $223 $224 $225 $226 reversed $85 $-1 #
coedge $-1 $227 $87 $228 $229 reversed $54 $-1 #
coedge $-1 $87 $227 $223 $230 forward $54 $-1 #
coedge $-1 $225 $231 $87 $141 forward $232 $-1 #
edge $-1 $233 -10.494811940938746 $234 -5.461272099024626 $140 $235 forward 7 unknown #
face $-1 $236 $237 $32 $-1 $238 reversed single #
loop $-1 $-1 $148 $88 #
plane-surface $-1 0 0 4 0 0 1 1 0 0 forward_v I I I I #
coedge $-1 $239 $240 $241 $242 reversed $89 $-1 #
coedge $-1 $147 $91 $243 $244 reversed $57 $-1 #
coedge $-1 $91 $146 $239 $245 reversed $57 $-1 #
coedge $-1 $241 $246 $91 $149 forward $143 $-1 #
edge $-1 $247 1.7973321051823135 $248 7.9003045978025597 $148 $249 forward 7 unknown #
loop $-1 $-1 $155 $92 #
plane-surface $-1 -40.26367992187263 14.636344706124099 0.036683248390147583 -0.54463904215088732 0 0.83867056331134215 0.83867056331134215 0 0.54463904215088732 forward_v I I I I #
loop $-1 $-1 $250 $59 #
coedge $-1 $153 $153 $154 $251 reversed $93 $-1 #
coedge $-1 $154 $154 $153 $251 forward $95 $-1 #
coedge $-1 $155 $155 $96 $156 forward $150 $-1 #
edge $-1 $252 0 $252 6.2831853071796004 $155 $253 forward 7 unknown #
loop $-1 $-1 $162 $97 #
plane-surface $-1 -40.26367992187263 14.636344706124099 0.036683248390147583 -0.54463904215088732 0 0.83867056331134215 0.83867056331134215 0 0.54463904215088732 forward_v I I I I #
loop $-1 $-1 $254 $62 #
coedge $-1 $160 $160 $161 $255 reversed $98 $-1 #
coedge $-1 $161 $161 $160 $255 forward $100 $-1 #
coedge $-1 $162 $162 $101 $163 forward $157 $-1 #
edge $-1 $256 0 $256 6.2831853071796004 $162 $257 forward 7 unknown #
loop $-1 $-1 $169 $102 #
plane-surface $-1 -40.26367992187263 14.636344706124099 0.036683248390147583 -0.54463904215088732 0 0.83867056331134215 0.83867056331134215 0 0.54463904215088732 forward_v I I I I #
loop $-1 $-1 $258 $65 #
coedge $-1 $167 $167 $168 $259 reversed $103 $-1 #
coedge $-1 $168 $168 $167 $259 forward $105 $-1 #
coedge $-1 $169 $169 $106 $170 forward $164 $-1 #
edge $-1 $260 0 $260 6.2831853071796004 $169 $261 forward 7 unknown #
face $-1 $262 $263 $36 $-1 $264 reversed single #
loop $-1 $-1 $265 $107 #
plane-surface $-1 58.078889591483751 4.3752840790162111 112.50875185457693 0 1 0 0.80901700255871778 0 0.5877852410284794 forward_v I I I I #
coedge $-1 $266 $267 $268 $269 reversed $108 $-1 #
coedge $-1 $176 $110 $270 $271 reversed $69 $-1 #
coedge $-1 $110 $175 $266 $272 reversed $69 $-1 #
coedge $-1 $268 $273 $110 $178 forward $274 $-1 #
edge $-1 $275 -11.22423512613074 $276 -8.3383755620482951 $177 $277 forward 7 unknown #
loop $-1 $-1 $184 $111 #
plane-surface $-1 -7.0691136932702747 7.7615288672640865 65.175958239434038 0.80901700255871778 0 0.5877852410284794 0.5877852410284794 0 -0.80901700255871778 forward_v I I I I #
loop $-1 $-1 $278 $71 #
coedge $-1 $182 $182 $183 $279 reversed $112 $-1 #
coedge $-1 $183 $183 $182 $279 forward $114 $-1 #
coedge $-1 $184 $184 $115 $185 forward $179 $-1 #
edge $-1 $280 0 $280 6.2831853071796004 $184 $281 forward 7 unknown #
loop $-1 $-1 $191 $116 #
plane-surface $-1 -7.0691136932702747 7.7615288672640865 65.175958239434038 0.80901700255871778 0 0.5877852410284794 0.5877852410284794 0 -0.80901700255871778 forward_v I I I I #
loop $-1 $-1 $282 $74 #
coedge $-1 $189 $189 $190 $283 reversed $117 $-1 #
coedge $-1 $190 $190 $189 $283 forward $119 $-1 #
coedge $-1 $191 $191 $120 $192 forward $186 $-1 #
edge $-1 $284 0 $284 6.2831853071796004 $191 $285 forward 7 unknown #
loop $-1 $-1 $198 $121 #
plane-surface $-1 -7.0691136932702747 7.7615288672640865 65.175958239434038 0.80901700255871778 0 0.5877852410284794 0.5877852410284794 0 -0.80901700255871778 forward_v I I I I #
loop $-1 $-1 $286 $77 #
coedge $-1 $196 $196 $197 $287 reversed $122 $-1 #
coedge $-1 $197 $197 $196 $287 forward $124 $-1 #
coedge $-1 $198 $198 $125 $199 forward $193 $-1 #
edge $-1 $288 0 $288 6.2831853071796004 $198 $289 forward 7 unknown #
face $-1 $290 $291 $30 $-1 $292 reversed single #
loop $-1 $-1 $293 $126 #
plane-surface $-1 -40.263679921872615 0 0 1 0 0 0 0 -1 forward_v I I I I #
coedge $-1 $294 $211 $295 $296 forward $127 $-1 #
coedge $-1 $297 $129 $294 $298 forward $81 $-1 #
coedge $-1 $129 $297 $299 $300 forward $81 $-1 #
coedge $-1 $214 $213 $129 $207 reversed $215 $-1 #
edge $-1 $301 -18.472853960920432 $302 18.472853960920432 $206 $303 forward 7 unknown #
coedge $-1 $131 $130 $304 $305 forward $51 $-1 #
coedge $-1 $306 $307 $130 $210 reversed $291 $-1 #
edge $-1 $217 -40.263679921872615 $308 40.263679921872615 $209 $309 forward 7 unknown #
coedge $-1 $203 $310 $131 $212 reversed $127 $-1 #
edge $-1 $311 -40.263679921872615 $216 40.263679921872615 $211 $312 forward 7 unknown #
coedge $-1 $206 $132 $310 $313 forward $215 $-1 #
coedge $-1 $132 $206 $306 $314 reversed $215 $-1 #
loop $-1 $-1 $213 $290 #
vertex $-1 $133 $315 #
vertex $-1 $133 $316 #
straight-curve $-1 40.263679921872615 0 4 0 1 0 I I #
face $-1 $317 $318 $31 $-1 $319 forward single #
loop $-1 $-1 $228 $134 #
plane-surface $-1 0 -18.472853960920432 0 0 1 0 0 0 1 forward_v I I I I #
coedge $-1 $320 $321 $322 $323 forward $135 $-1 #
coedge $-1 $322 $137 $139 $230 reversed $85 $-1 #
coedge $-1 $137 $322 $324 $325 reversed $85 $-1 #
coedge $-1 $326 $140 $137 $226 forward $232 $-1 #
edge $-1 $234 -0.25 $327 2.75 $225 $328 forward 7 unknown #
coedge $-1 $139 $138 $320 $329 reversed $54 $-1 #
coedge $-1 $330 $331 $138 $229 forward $220 $-1 #
edge $-1 $332 -40.263679921872615 $233 40.263679921872615 $228 $333 forward 7 unknown #
edge $-1 $334 -40.263679921872615 $234 40.263679921872615 $223 $335 forward 7 unknown #
coedge $-1 $140 $326 $330 $336 forward $232 $-1 #
loop $-1 $-1 $225 $317 #
vertex $-1 $229 $337 #
vertex $-1 $141 $338 #
straight-curve $-1 40.263679921872615 -7.9780420199816859 1 0 1 0 I I #
face $-1 $-1 $339 $32 $-1 $340 reversed single #
loop $-1 $-1 $341 $142 #
plane-surface $-1 0 18.472853960920432 0 0 -1 0 0 0 -1 forward_v I I I I #
coedge $-1 $342 $145 $147 $245 forward $89 $-1 #
coedge $-1 $145 $342 $341 $343 reversed $89 $-1 #
coedge $-1 $344 $148 $145 $242 forward $143 $-1 #
edge $-1 $248 3.4816630982657166 $345 11.154681607858382 $241 $346 forward 7 unknown #
coedge $-1 $347 $348 $146 $244 forward $339 $-1 #
edge $-1 $349 -33.749621496869402 $247 -29.786304745259557 $243 $350 forward 7 unknown #
edge $-1 $248 -7.2769604175968166 $349 -1.6944551593250291e-014 $147 $351 forward 7 unknown #
coedge $-1 $148 $344 $347 $352 forward $143 $-1 #
vertex $-1 $244 $353 #
vertex $-1 $149 $354 #
straight-curve $-1 -42.061012027054929 10.799835451327766 4 1 0 0 I I #
coedge $-1 $250 $250 $-1 $355 reversed $152 $-1 #
edge $-1 $356 0 $356 6.2831853071796004 $153 $357 forward 7 unknown #
vertex $-1 $156 $358 #
ellipse-curve $-1 -37.212193675562489 12.334439153246301 2.0183416241950791 -0.54463904215088732 0 0.83867056331134215 0.41933528165567108 0 0.27231952107544366 1 I I #
coedge $-1 $254 $254 $-1 $359 reversed $159 $-1 #
edge $-1 $360 0 $360 6.2831853071796004 $160 $361 forward 7 unknown #
vertex $-1 $163 $362 #
ellipse-curve $-1 -37.212193675562489 14.636344706124099 2.0183416241950791 -0.54463904215088732 0 0.83867056331134215 0.41933528165567108 0 0.27231952107544366 1 I I #
coedge $-1 $258 $258 $-1 $363 reversed $166 $-1 #
edge $-1 $364 0 $364 6.2831853071796004 $167 $365 forward 7 unknown #
vertex $-1 $170 $366 #
ellipse-curve $-1 -37.212193675562489 16.938250259001897 2.0183416241950791 -0.54463904215088732 0 0.83867056331134215 0.41933528165567108 0 0.27231952107544366 1 I I #
face $-1 $-1 $274 $36 $-1 $367 forward single #
loop $-1 $-1 $368 $171 #
plane-surface $-1 40.263679921872615 0 0 -1 0 0 0 0 1 forward_v I I I I #
coedge $-1 $369 $370 $371 $372 reversed $172 $-1 #
coedge $-1 $373 $174 $176 $272 forward $108 $-1 #
coedge $-1 $174 $373 $369 $374 forward $108 $-1 #
coedge $-1 $371 $177 $174 $269 forward $274 $-1 #
edge $-1 $276 -7.2670092218799187 $375 -0.49451964538416782 $268 $376 forward 7 unknown #
coedge $-1 $377 $378 $175 $271 forward $263 $-1 #
edge $-1 $379 -56.226420972608466 $275 -52.254375927288464 $270 $380 forward 7 unknown #
edge $-1 $276 75.61764220770371 $379 80.527359843745245 $176 $381 forward 7 unknown #
coedge $-1 $177 $371 $377 $382 forward $274 $-1 #
loop $-1 $-1 $371 $262 #
vertex $-1 $271 $383 #
vertex $-1 $178 $384 #
straight-curve $-1 29.039444795741876 11.147773655511962 4 -1 0 0 I I #
coedge $-1 $278 $278 $-1 $385 reversed $181 $-1 #
edge $-1 $386 0 $386 6.2831853071796004 $182 $387 forward 7 unknown #
vertex $-1 $185 $388 #
ellipse-curve $-1 38.820750139831382 5.7297819943153598 2.013977477340017 0.80901700255871778 0 0.5877852410284794 0.2938926205142397 0 -0.40450850127935889 1 I I #
coedge $-1 $282 $282 $-1 $389 reversed $188 $-1 #
edge $-1 $390 0 $390 6.2831853071796004 $189 $391 forward 7 unknown #
vertex $-1 $192 $392 #
ellipse-curve $-1 38.820750139831382 7.7615288672640865 2.013977477340017 0.80901700255871778 0 0.5877852410284794 0.2938926205142397 0 -0.40450850127935889 1 I I #
coedge $-1 $286 $286 $-1 $393 reversed $195 $-1 #
edge $-1 $394 0 $394 6.2831853071796004 $196 $395 forward 7 unknown #
vertex $-1 $199 $396 #
ellipse-curve $-1 38.820750139831382 9.7932757402128132 2.013977477340017 0.80901700255871778 0 0.5877852410284794 0.2938926205142397 0 -0.40450850127935889 1 I I #
face $-1 $-1 $215 $30 $-1 $397 reversed single #
loop $-1 $-1 $306 $200 #
plane-surface $-1 0 18.472853960920432 0 0 -1 0 0 0 -1 forward_v I I I I #
coedge $-1 $398 $304 $307 $399 forward $201 $-1 #
coedge $-1 $310 $203 $204 $298 reversed $127 $-1 #
coedge $-1 $304 $398 $203 $296 reversed $201 $-1 #
edge $-1 $311 -4 $400 4 $295 $401 forward 7 unknown #
coedge $-1 $205 $204 $398 $402 forward $81 $-1 #
edge $-1 $302 -40.263679921872615 $400 40.263679921872615 $294 $403 forward 7 unknown #
coedge $-1 $307 $306 $205 $300 reversed $291 $-1 #
edge $-1 $404 -40.263679921872615 $301 40.263679921872615 $299 $405 forward 7 unknown #
vertex $-1 $207 $406 #
vertex $-1 $313 $407 #
straight-curve $-1 40.263679921872615 0 -4 0 -1 0 I I #
coedge $-1 $293 $295 $208 $305 reversed $201 $-1 #
edge $-1 $308 -18.472853960920432 $311 18.472853960920432 $304 $408 forward 7 unknown #
coedge $-1 $299 $209 $214 $314 forward $291 $-1 #
coedge $-1 $209 $299 $293 $399 reversed $291 $-1 #
vertex $-1 $210 $409 #
straight-curve $-1 0 18.472853960920432 4 -1 0 0 I I #
coedge $-1 $211 $294 $213 $313 reversed $127 $-1 #
vertex $-1 $305 $410 #
straight-curve $-1 0 -18.472853960920432 4 1 0 0 I I #
edge $-1 $216 -4 $302 4 $213 $411 forward 7 unknown #
edge $-1 $217 -4 $301 4 $214 $412 forward 7 unknown #
point $-1 40.263679921872615 -18.472853960920432 4 #
point $-1 40.263679921872615 18.472853960920432 4 #
face $-1 $-1 $232 $31 $-1 $413 reversed single #
loop $-1 $-1 $324 $219 #
plane-surface $-1 0 0 4 0 0 1 1 0 0 forward_v I I I I #
coedge $-1 $414 $222 $227 $329 forward $135 $-1 #
coedge $-1 $222 $414 $415 $416 reversed $135 $-1 #
coedge $-1 $224 $223 $222 $323 reversed $85 $-1 #
edge $-1 $417 -2.75 $334 0.25 $222 $418 forward 7 unknown #
coedge $-1 $415 $419 $224 $325 forward $318 $-1 #
edge $-1 $327 -40.263679921872615 $417 40.263679921872615 $324 $420 forward 7 unknown #
coedge $-1 $231 $225 $419 $421 reversed $232 $-1 #
vertex $-1 $226 $422 #
straight-curve $-1 40.263679921872615 -13.439314119006312 1.25 0 0 1 I I #
edge $-1 $334 5.461272099024626 $332 10.494811940938746 $320 $423 forward 7 unknown #
coedge $-1 $424 $228 $231 $336 reversed $220 $-1 #
coedge $-1 $228 $424 $414 $425 forward $220 $-1 #
vertex $-1 $229 $426 #
straight-curve $-1 0 -18.472853960920432 1 1 0 0 I I #
vertex $-1 $329 $427 #
straight-curve $-1 0 -13.439314119006312 1 1 0 0 I I #
edge $-1 $428 -4 $233 -1 $231 $429 forward 7 unknown #
point $-1 40.263679921872615 -18.472853960920432 1 #
point $-1 40.263679921872615 -13.439314119006312 1 #
loop $-1 $-1 $243 $236 #
plane-surface $-1 -40.263679921872615 0 0 1 0 0 0 0 -1 forward_v I I I I #
coedge $-1 $430 $431 $240 $343 forward $237 $-1 #
coedge $-1 $240 $239 $348 $432 reversed $89 $-1 #
edge $-1 $345 9.5970315783023352 $433 16.873991995899136 $341 $434 forward 7 unknown #
coedge $-1 $246 $241 $431 $435 forward $143 $-1 #
vertex $-1 $435 $436 #
straight-curve $-1 -34.160707429252362 7.3181723530620495 4 0 1 0 I I #
coedge $-1 $437 $243 $246 $352 reversed $339 $-1 #
coedge $-1 $243 $437 $342 $432 forward $339 $-1 #
vertex $-1 $244 $438 #
straight-curve $-1 -40.263679921872615 10.799835451327766 33.786304745259557 0 0 1 I I #
straight-curve $-1 -40.26367992187263 10.799835451327766 0.036683248390147583 -0.83867056331134215 0 -0.54463904215088732 I I #
edge $-1 $439 -18.472853960920432 $247 -10.799835451327766 $347 $440 forward 7 unknown #
point $-1 -40.263679921872615 10.799835451327766 4 #
point $-1 -34.160707429252369 10.799835451327766 4 #
edge $-1 $441 1 $441 0 $250 $-1 forward 7 unknown #
vertex $-1 $251 $442 #
ellipse-curve $-1 -36.667554633411598 12.334439153246301 1.1796710608837315 -0.54463904215088732 0 0.83867056331134215 0.41933528165567108 0 0.27231952107544366 1 I I #
point $-1 -36.792858393906812 12.334439153246301 2.2906611452705175 #
edge $-1 $443 1 $443 0 $254 $-1 forward 7 unknown #
vertex $-1 $255 $444 #
ellipse-curve $-1 -36.667554633411598 14.636344706124099 1.1796710608837315 -0.54463904215088732 0 0.83867056331134215 0.41933528165567108 0 0.27231952107544366 1 I I #
point $-1 -36.792858393906812 14.636344706124099 2.2906611452705175 #
edge $-1 $445 1 $445 0 $258 $-1 forward 7 unknown #
vertex $-1 $259 $446 #
ellipse-curve $-1 -36.667554633411598 16.938250259001897 1.1796710608837315 -0.54463904215088732 0 0.83867056331134215 0.41933528165567108 0 0.27231952107544366 1 I I #
point $-1 -36.792858393906812 16.938250259001897 2.2906611452705175 #
plane-surface $-1 0 0 4 0 0 1 1 0 0 forward_v I I I I #
coedge $-1 $378 $377 $370 $447 forward $263 $-1 #
coedge $-1 $370 $265 $267 $374 reversed $172 $-1 #
coedge $-1 $265 $369 $368 $447 reversed $172 $-1 #
coedge $-1 $273 $268 $265 $372 forward $274 $-1 #
edge $-1 $375 8.3383755620482951 $448 11.22423512613074 $371 $449 forward 7 unknown #
coedge $-1 $267 $266 $378 $450 reversed $108 $-1 #
edge $-1 $451 -80.527359843745245 $375 -75.61764220770371 $369 $452 forward 7 unknown #
vertex $-1 $269 $453 #
straight-curve $-1 37.377820357790164 3.8807644336320433 4 0 -1 0 I I #
coedge $-1 $368 $270 $273 $382 reversed $263 $-1 #
coedge $-1 $270 $368 $373 $450 forward $263 $-1 #
vertex $-1 $271 $454 #
straight-curve $-1 40.263679921872615 11.147773655511962 56.254375927288464 0 0 1 I I #
straight-curve $-1 -7.0691136932702747 11.147773655511962 65.175958239434038 0.5877852410284794 0 -0.80901700255871778 I I #
edge $-1 $448 4.3752840790162111 $275 11.147773655511962 $377 $455 forward 7 unknown #
point $-1 40.263679921872615 11.147773655511962 4 #
point $-1 37.377820357790171 11.147773655511962 4 #
edge $-1 $456 1 $456 0 $278 $-1 forward 7 unknown #
vertex $-1 $279 $457 #
ellipse-curve $-1 38.011733137272671 5.7297819943153598 1.4261922363115418 0.80901700255871778 0 0.5877852410284794 0.2938926205142397 0 -0.40450850127935889 1 I I #
point $-1 39.114642760345632 5.7297819943153598 1.6094689760606622 #
edge $-1 $458 1 $458 0 $282 $-1 forward 7 unknown #
vertex $-1 $283 $459 #
ellipse-curve $-1 38.011733137272671 7.7615288672640865 1.4261922363115418 0.80901700255871778 0 0.5877852410284794 0.2938926205142397 0 -0.40450850127935889 1 I I #
point $-1 39.114642760345632 7.7615288672640865 1.6094689760606622 #
edge $-1 $460 1 $460 0 $286 $-1 forward 7 unknown #
vertex $-1 $287 $461 #
ellipse-curve $-1 38.011733137272671 9.7932757402128132 1.4261922363115418 0.80901700255871778 0 0.5877852410284794 0.2938926205142397 0 -0.40450850127935889 1 I I #
point $-1 39.114642760345632 9.7932757402128132 1.6094689760606622 #
plane-surface $-1 40.263679921872615 0 0 -1 0 0 0 0 1 forward_v I I I I #
coedge $-1 $295 $293 $297 $402 reversed $201 $-1 #
edge $-1 $308 -4 $404 4 $307 $462 forward 7 unknown #
vertex $-1 $402 $463 #
straight-curve $-1 -40.263679921872615 -18.472853960920432 0 0 0 -1 I I #
edge $-1 $400 -18.472853960920432 $404 18.472853960920432 $398 $464 forward 7 unknown #
straight-curve $-1 0 -18.472853960920432 -4 -1 0 0 I I #
vertex $-1 $300 $465 #
straight-curve $-1 0 18.472853960920432 -4 1 0 0 I I #
point $-1 40.263679921872615 18.472853960920432 -4 #
point $-1 40.263679921872615 -18.472853960920432 -4 #
straight-curve $-1 -40.263679921872615 0 4 0 -1 0 I I #
point $-1 -40.263679921872615 18.472853960920432 4 #
point $-1 -40.263679921872615 -18.472853960920432 4 #
straight-curve $-1 40.263679921872615 -18.472853960920432 0 0 0 -1 I I #
straight-curve $-1 40.263679921872615 18.472853960920432 0 0 0 -1 I I #
plane-surface $-1 40.263679921872615 0 0 -1 0 0 0 0 1 forward_v I I I I #
coedge $-1 $321 $320 $331 $425 reversed $135 $-1 #
coedge $-1 $466 $324 $321 $416 forward $318 $-1 #
edge $-1 $417 13.439314119006312 $467 18.472853960920432 $321 $468 forward 7 unknown #
vertex $-1 $416 $469 #
straight-curve $-1 -40.263679921872615 -13.439314119006312 1.25 0 0 -1 I I #
coedge $-1 $324 $466 $326 $421 forward $318 $-1 #
straight-curve $-1 0 -13.439314119006312 4 -1 0 0 I I #
edge $-1 $428 -18.472853960920432 $327 -13.439314119006312 $326 $470 forward 7 unknown #
point $-1 40.263679921872615 -13.439314119006312 4 #
straight-curve $-1 -40.263679921872615 -7.9780420199816859 1 0 -1 0 I I #
coedge $-1 $331 $330 $466 $471 reversed $220 $-1 #
edge $-1 $467 -4 $332 -1 $414 $472 forward 7 unknown #
point $-1 -40.263679921872615 -18.472853960920432 1 #
point $-1 -40.263679921872615 -13.439314119006312 1 #
vertex $-1 $421 $473 #
straight-curve $-1 40.263679921872615 -18.472853960920432 0 0 0 -1 I I #
coedge $-1 $431 $341 $437 $474 reversed $237 $-1 #
coedge $-1 $341 $430 $344 $435 reversed $237 $-1 #
edge $-1 $433 -11.154681607858382 $349 -3.4816630982657166 $348 $475 forward 7 unknown #
vertex $-1 $343 $476 #
straight-curve $-1 -26.111959549360808 18.472853960920432 9.226918086298399 -0.83867056331134215 0 -0.54463904215088732 I I #
edge $-1 $345 34.160707429252369 $439 40.263679921872615 $431 $477 forward 7 unknown #
point $-1 -34.160707429252369 18.472853960920432 4 #
coedge $-1 $348 $347 $430 $474 forward $339 $-1 #
point $-1 -40.263679921872615 10.799835451327766 0.036683248390156811 #
vertex $-1 $435 $478 #
straight-curve $-1 -40.263679921872615 0 4 0 -1 0 I I #
vertex $-1 $355 $479 #
point $-1 -36.248219351755928 12.334439153246301 1.4519905819591752 #
vertex $-1 $359 $480 #
point $-1 -36.248219351755928 14.636344706124099 1.4519905819591752 #
vertex $-1 $363 $481 #
point $-1 -36.248219351755928 16.938250259001897 1.4519905819591752 #
edge $-1 $448 52.254375927288464 $451 56.226420972608466 $368 $482 forward 7 unknown #
vertex $-1 $382 $483 #
straight-curve $-1 29.039444795741876 4.3752840790162111 4 1 0 0 I I #
edge $-1 $451 0.49451964538416782 $379 7.2670092218799187 $378 $484 forward 7 unknown #
vertex $-1 $450 $485 #
straight-curve $-1 -7.0691136932702747 4.3752840790162111 65.175958239434038 -0.5877852410284794 0 0.80901700255871778 I I #
point $-1 37.377820357790171 4.3752840790162111 4 #
point $-1 40.263679921872615 11.147773655511962 0.027954954679998423 #
straight-curve $-1 40.263679921872615 0 4 0 1 0 I I #
vertex $-1 $385 $486 #
point $-1 38.305625757786913 5.7297819943153598 1.021683735032183 #
vertex $-1 $389 $487 #
point $-1 38.305625757786913 7.7615288672640865 1.021683735032183 #
vertex $-1 $393 $488 #
point $-1 38.305625757786913 9.7932757402128132 1.021683735032183 #
straight-curve $-1 -40.263679921872615 18.472853960920432 0 0 0 -1 I I #
point $-1 -40.263679921872615 -18.472853960920432 -4 #
straight-curve $-1 -40.263679921872615 0 -4 0 1 0 I I #
point $-1 -40.263679921872615 18.472853960920432 -4 #
coedge $-1 $419 $415 $424 $471 forward $318 $-1 #
vertex $-1 $416 $489 #
straight-curve $-1 -40.263679921872615 0 4 0 -1 0 I I #
point $-1 -40.263679921872615 -13.439314119006312 4 #
straight-curve $-1 40.263679921872615 0 4 0 1 0 I I #
edge $-1 $467 -40.263679921872615 $428 40.263679921872615 $424 $490 forward 7 unknown #
straight-curve $-1 -40.263679921872615 -18.472853960920432 0 0 0 -1 I I #
point $-1 40.263679921872615 -18.472853960920432 4 #
edge $-1 $439 -4 $433 -0.036683248390156811 $430 $491 forward 7 unknown #
straight-curve $-1 -40.263679921872615 7.3181723530620495 0.03668324839015575 0 -1 0 I I #
point $-1 -40.263679921872615 18.472853960920432 0.036683248390156811 #
straight-curve $-1 0 18.472853960920432 4 -1 0 0 I I #
point $-1 -40.263679921872615 18.472853960920432 4 #
point $-1 -36.395235112336152 12.334439153246301 0.7603357792280605 #
point $-1 -36.395235112336152 14.636344706124099 0.7603357792280605 #
point $-1 -36.395235112336152 16.938250259001897 0.7603357792280605 #
straight-curve $-1 40.263679921872615 4.3752840790162111 56.254375927288464 0 0 -1 I I #
point $-1 40.263679921872615 4.3752840790162111 4 #
straight-curve $-1 40.263679921872622 3.8807644336320433 0.027954954680005528 0 1 0 I I #
point $-1 40.263679921872615 4.3752840790162111 0.027954954679998423 #
point $-1 37.607224635993319 5.7297819943153598 1.1322996157973022 #
point $-1 37.607224635993319 7.7615288672640865 1.1322996157973022 #
point $-1 37.607224635993319 9.7932757402128132 1.1322996157973022 #
point $-1 -40.263679921872615 -18.472853960920432 4 #
straight-curve $-1 0 -18.472853960920432 4 1 0 0 I I #
straight-curve $-1 -40.263679921872615 18.472853960920432 0 0 0 -1 I I #
End-of-ACIS-data 