500 0 8 0           
7 Unknown 11 ACIS 5.0 NT 24 Thu Mar 25 18:54:29 1999 
-1 9.9999999999999995e-007 1e-010 
body $-1 $8 $-1 $9 #
body $-1 $10 $-1 $11 #
body $-1 $12 $-1 $13 #
body $-1 $14 $-1 $15 #
body $-1 $16 $-1 $17 #
body $-1 $18 $-1 $19 #
body $-1 $20 $-1 $21 #
body $-1 $22 $-1 $23 #
lump $-1 $-1 $24 $0 #
transform $-1 1 0 0 0 1 0 0 0 1 64.505142368846705 41.562281221244326 12.394355020398235 1 rotate no_reflect no_shear #
lump $-1 $-1 $25 $1 #
transform $-1 1 0 0 0 1 0 0 0 1 64.505142368846705 41.562281221244326 12.394355020398235 1 rotate no_reflect no_shear #
lump $-1 $-1 $26 $2 #
transform $-1 1 0 0 0 1 0 0 0 1 64.505142368846705 41.562281221244326 12.394355020398235 1 rotate no_reflect no_shear #
lump $-1 $-1 $27 $3 #
transform $-1 1 0 0 0 1 0 0 0 1 64.505142368846705 41.562281221244326 12.394355020398235 1 rotate no_reflect no_shear #
lump $-1 $-1 $28 $4 #
transform $-1 1 0 0 0 1 0 0 0 1 64.505142368846705 41.562281221244326 12.394355020398235 1 rotate no_reflect no_shear #
lump $-1 $-1 $29 $5 #
transform $-1 1 0 0 0 1 0 0 0 1 64.505142368846705 41.562281221244326 12.394355020398235 1 rotate no_reflect no_shear #
lump $-1 $-1 $30 $6 #
transform $-1 1 0 0 0 1 0 0 0 1 64.505142368846705 41.562281221244326 12.394355020398235 1 rotate no_reflect no_shear #
lump $-1 $-1 $31 $7 #
transform $-1 1 0 0 0 1 0 0 0 1 64.505142368846705 41.562281221244326 12.394355020398235 1 rotate no_reflect no_shear #
shell $-1 $-1 $-1 $32 $-1 $8 #
shell $-1 $-1 $-1 $33 $-1 $10 #
shell $-1 $-1 $-1 $34 $-1 $12 #
shell $-1 $-1 $-1 $35 $-1 $14 #
shell $-1 $-1 $-1 $36 $-1 $16 #
shell $-1 $-1 $-1 $37 $-1 $18 #
shell $-1 $-1 $-1 $38 $-1 $20 #
shell $-1 $-1 $-1 $39 $-1 $22 #
face $-1 $40 $41 $24 $-1 $42 forward single #
face $-1 $43 $44 $25 $-1 $45 forward single #
face $-1 $46 $47 $26 $-1 $48 reversed single #
face $-1 $49 $50 $27 $-1 $51 forward single #
face $-1 $52 $53 $28 $-1 $54 reversed single #
face $-1 $55 $56 $29 $-1 $57 forward single #
face $-1 $58 $59 $30 $-1 $60 reversed single #
face $-1 $61 $62 $31 $-1 $63 forward single #
face $-1 $64 $65 $24 $-1 $66 reversed single #
loop $-1 $-1 $67 $32 #
plane-surface $-1 0 0 12.394355020398235 0 0 1 1 0 0 forward_v I I I I #
face $-1 $68 $69 $25 $-1 $70 forward single #
loop $-1 $-1 $71 $33 #
plane-surface $-1 0 -41.562281221244326 0 0 1 0 0 0 1 forward_v I I I I #
face $-1 $72 $73 $26 $-1 $74 reversed single #
loop $-1 $-1 $75 $34 #
plane-surface $-1 80.406543888952243 36.318077172519565 184.2077040341251 0 -1 0 -0.7660444514056185 0 -0.64278759981090561 forward_v I I I I #
face $-1 $76 $77 $27 $-1 $78 forward single #
loop $-1 $79 $80 $35 #
cone-surface $-1 55.993785162531083 28.448939123400173 3.7817263528549621 -0.7660444514056185 0 -0.64278759981090561 1.9283627994327168 0 -2.2981333542168554 1 I I 0 1 3 forward I I I I #
face $-1 $81 $82 $28 $-1 $83 reversed single #
loop $-1 $-1 $84 $36 #
plane-surface $-1 -152.48994603722082 -30.20870856498459 101.67106963646205 0 1 0 -0.68199836817093118 0 0.7313536940579346 forward_v I I I I #
face $-1 $85 $86 $29 $-1 $87 forward single #
loop $-1 $88 $89 $37 #
cone-surface $-1 -60.311406474393912 -25.291989455884192 8.2777170361683652 0.68199836817093118 0 -0.7313536940579346 1.0970305410869019 0 1.0229975522563968 1 I I 0 1 1.5 forward I I I I #
face $-1 $90 $91 $30 $-1 $92 reversed single #
loop $-1 $-1 $93 $38 #
plane-surface $-1 -152.48994603722082 5.6767863281298725 101.67106963646205 0 1 0 -0.68199836817093118 0 0.7313536940579346 forward_v I I I I #
face $-1 $94 $95 $31 $-1 $96 forward single #
loop $-1 $97 $98 $39 #
cone-surface $-1 -60.311406474393912 10.59350543723027 8.2777170361683652 0.68199836817093118 0 -0.7313536940579346 1.0970305410869019 0 1.0229975522563968 1 I I 0 1 1.5 forward I I I I #
face $-1 $99 $100 $24 $-1 $101 reversed single #
loop $-1 $-1 $102 $40 #
plane-surface $-1 0 0 -12.394355020398235 0 0 1 1 0 0 forward_v I I I I #
coedge $-1 $103 $104 $105 $106 forward $41 $-1 #
face $-1 $107 $108 $25 $-1 $109 reversed single #
loop $-1 $-1 $110 $43 #
plane-surface $-1 0 0 12.394355020398235 0 0 1 1 0 0 forward_v I I I I #
coedge $-1 $111 $112 $113 $114 forward $44 $-1 #
face $-1 $115 $116 $26 $-1 $117 reversed single #
loop $-1 $-1 $118 $46 #
plane-surface $-1 -18.421068908616746 28.448939123400173 101.28149275666165 0.7660444514056185 0 0.64278759981090561 0.64278759981090561 0 -0.7660444514056185 forward_v I I I I #
coedge $-1 $119 $120 $121 $122 reversed $47 $-1 #
face $-1 $-1 $123 $27 $-1 $124 forward single #
loop $-1 $125 $126 $49 #
cone-surface $-1 50.503885648751933 28.448939123400173 -0.82484618375185725 -0.7660444514056185 0 -0.64278759981090561 0.96418139971635841 0 -1.1490666771084277 1 I I -0.70710678118654757 0.70710678118654757 1.5 forward I I I I #
loop $-1 $-1 $127 $35 #
coedge $-1 $80 $80 $128 $129 reversed $50 $-1 #
face $-1 $130 $131 $28 $-1 $132 reversed single #
loop $-1 $-1 $133 $52 #
plane-surface $-1 -64.50514236884672 -25.291989455884192 7.3189213220839946 -0.68199836817093118 0 0.7313536940579346 0.7313536940579346 0 0.68199836817093118 forward_v I I I I #
coedge $-1 $134 $135 $136 $137 reversed $53 $-1 #
face $-1 $-1 $138 $29 $-1 $139 forward single #
loop $-1 $140 $141 $55 #
cone-surface $-1 -58.327539887261111 -25.291989455884192 6.150280630552162 0.68199836817093118 0 -0.7313536940579346 0.54851527054345095 0 0.51149877612819838 1 I I -0.70710678118654757 0.70710678118654757 0.75 forward I I I I #
loop $-1 $-1 $142 $37 #
coedge $-1 $89 $89 $143 $144 reversed $56 $-1 #
face $-1 $145 $146 $30 $-1 $147 reversed single #
loop $-1 $-1 $148 $58 #
plane-surface $-1 -64.50514236884672 10.59350543723027 7.3189213220839946 -0.68199836817093118 0 0.7313536940579346 0.7313536940579346 0 0.68199836817093118 forward_v I I I I #
coedge $-1 $149 $150 $151 $152 reversed $59 $-1 #
face $-1 $-1 $153 $31 $-1 $154 forward single #
loop $-1 $155 $156 $61 #
cone-surface $-1 -58.327539887261111 10.59350543723027 6.150280630552162 0.68199836817093118 0 -0.7313536940579346 0.54851527054345095 0 0.51149877612819838 1 I I -0.70710678118654757 0.70710678118654757 0.75 forward I I I I #
loop $-1 $-1 $157 $39 #
coedge $-1 $98 $98 $158 $159 reversed $62 $-1 #
face $-1 $160 $161 $24 $-1 $162 reversed single #
loop $-1 $-1 $163 $64 #
plane-surface $-1 0 -41.562281221244326 0 0 1 0 0 0 1 forward_v I I I I #
coedge $-1 $164 $165 $166 $167 forward $65 $-1 #
coedge $-1 $168 $67 $169 $170 forward $41 $-1 #
coedge $-1 $67 $168 $171 $172 forward $41 $-1 #
coedge $-1 $173 $174 $67 $106 reversed $175 $-1 #
edge $-1 $176 -41.562281221244326 $177 41.562281221244326 $105 $178 forward 7 unknown #
face $-1 $179 $180 $25 $-1 $181 reversed single #
loop $-1 $-1 $182 $68 #
plane-surface $-1 -64.505142368846705 0 0 1 0 0 0 0 -1 forward_v I I I I #
coedge $-1 $183 $184 $112 $185 forward $69 $-1 #
coedge $-1 $186 $71 $187 $188 reversed $44 $-1 #
coedge $-1 $71 $186 $110 $185 reversed $44 $-1 #
coedge $-1 $189 $190 $71 $114 reversed $191 $-1 #
edge $-1 $192 -12.394355020398235 $193 12.394355020398235 $113 $194 forward 7 unknown #
face $-1 $195 $196 $26 $-1 $197 forward single #
loop $-1 $-1 $198 $72 #
plane-surface $-1 80.406543888952243 20.579801074280777 184.2077040341251 0 1 0 0.7660444514056185 0 0.64278759981090561 forward_v I I I I #
coedge $-1 $199 $200 $201 $202 reversed $73 $-1 #
coedge $-1 $120 $75 $203 $204 reversed $47 $-1 #
coedge $-1 $75 $119 $199 $205 reversed $47 $-1 #
coedge $-1 $201 $206 $75 $122 forward $196 $-1 #
edge $-1 $207 -24.301870424370584 $208 -15.960821685080795 $121 $209 forward 7 unknown #
loop $-1 $-1 $128 $76 #
plane-surface $-1 -18.421068908616746 28.448939123400173 101.28149275666165 0.7660444514056185 0 0.64278759981090561 0.64278759981090561 0 -0.7660444514056185 forward_v I I I I #
loop $-1 $-1 $210 $49 #
coedge $-1 $126 $126 $127 $211 reversed $77 $-1 #
coedge $-1 $127 $127 $126 $211 forward $79 $-1 #
coedge $-1 $128 $128 $80 $129 forward $123 $-1 #
edge $-1 $212 0 $212 6.2831853071796004 $128 $213 forward 7 unknown #
face $-1 $214 $215 $28 $-1 $216 reversed single #
loop $-1 $-1 $217 $81 #
plane-surface $-1 -152.48994603722082 -20.375270346783793 101.67106963646205 0 -1 0 0.68199836817093118 0 -0.7313536940579346 forward_v I I I I #
coedge $-1 $218 $219 $220 $221 reversed $82 $-1 #
coedge $-1 $135 $84 $222 $223 reversed $53 $-1 #
coedge $-1 $84 $134 $218 $224 reversed $53 $-1 #
coedge $-1 $220 $225 $84 $137 forward $226 $-1 #
edge $-1 $227 11.739830649763704 $228 17.182566816660078 $136 $229 forward 7 unknown #
loop $-1 $-1 $143 $85 #
plane-surface $-1 -64.50514236884672 -25.291989455884192 7.3189213220839946 -0.68199836817093118 0 0.7313536940579346 0.7313536940579346 0 0.68199836817093118 forward_v I I I I #
loop $-1 $-1 $230 $55 #
coedge $-1 $141 $141 $142 $231 reversed $86 $-1 #
coedge $-1 $142 $142 $141 $231 forward $88 $-1 #
coedge $-1 $143 $143 $89 $144 forward $138 $-1 #
edge $-1 $232 0 $232 6.2831853071796004 $143 $233 forward 7 unknown #
face $-1 $234 $235 $30 $-1 $236 forward single #
loop $-1 $-1 $237 $90 #
plane-surface $-1 -152.48994603722082 15.510224546330669 101.67106963646205 0 -1 0 0.68199836817093118 0 -0.7313536940579346 forward_v I I I I #
coedge $-1 $238 $239 $240 $241 reversed $91 $-1 #
coedge $-1 $150 $93 $242 $243 reversed $59 $-1 #
coedge $-1 $93 $149 $238 $244 reversed $59 $-1 #
coedge $-1 $240 $245 $93 $152 forward $235 $-1 #
edge $-1 $246 11.739830649763704 $247 17.182566816660078 $151 $248 forward 7 unknown #
loop $-1 $-1 $158 $94 #
plane-surface $-1 -64.50514236884672 10.59350543723027 7.3189213220839946 -0.68199836817093118 0 0.7313536940579346 0.7313536940579346 0 0.68199836817093118 forward_v I I I I #
loop $-1 $-1 $249 $61 #
coedge $-1 $156 $156 $157 $250 reversed $95 $-1 #
coedge $-1 $157 $157 $156 $250 forward $97 $-1 #
coedge $-1 $158 $158 $98 $159 forward $153 $-1 #
edge $-1 $251 0 $251 6.2831853071796004 $158 $252 forward 7 unknown #
face $-1 $253 $254 $24 $-1 $255 reversed single #
loop $-1 $-1 $256 $99 #
plane-surface $-1 -64.505142368846705 0 0 1 0 0 0 0 -1 forward_v I I I I #
coedge $-1 $257 $171 $258 $259 forward $100 $-1 #
coedge $-1 $260 $102 $257 $261 forward $65 $-1 #
coedge $-1 $102 $260 $262 $263 forward $65 $-1 #
coedge $-1 $174 $173 $102 $167 reversed $175 $-1 #
edge $-1 $264 -41.562281221244326 $265 41.562281221244326 $166 $266 forward 7 unknown #
coedge $-1 $104 $103 $267 $268 forward $41 $-1 #
coedge $-1 $269 $270 $103 $170 reversed $254 $-1 #
edge $-1 $177 -64.505142368846705 $271 64.505142368846705 $169 $272 forward 7 unknown #
coedge $-1 $163 $273 $104 $172 reversed $100 $-1 #
edge $-1 $274 -64.505142368846705 $176 64.505142368846705 $171 $275 forward 7 unknown #
coedge $-1 $166 $105 $273 $276 forward $175 $-1 #
coedge $-1 $105 $166 $269 $277 reversed $175 $-1 #
loop $-1 $-1 $173 $253 #
vertex $-1 $106 $278 #
vertex $-1 $106 $279 #
straight-curve $-1 64.505142368846705 0 12.394355020398235 0 1 0 I I #
face $-1 $280 $191 $25 $-1 $281 reversed single #
loop $-1 $-1 $282 $107 #
plane-surface $-1 -62.470231888691785 -52.91585387750407 0 0 1 0 0 0 1 forward_v I I I I #
coedge $-1 $283 $284 $186 $285 forward $108 $-1 #
coedge $-1 $286 $110 $284 $287 forward $69 $-1 #
coedge $-1 $110 $286 $189 $288 forward $69 $-1 #
edge $-1 $192 60.435321408536865 $289 64.505142368846705 $110 $290 forward 7 unknown #
coedge $-1 $112 $111 $182 $285 reversed $44 $-1 #
coedge $-1 $291 $292 $111 $188 forward $293 $-1 #
edge $-1 $294 -64.505142368846705 $193 -60.435321408536865 $187 $295 forward 7 unknown #
coedge $-1 $296 $113 $184 $288 reversed $191 $-1 #
coedge $-1 $113 $296 $291 $297 reversed $191 $-1 #
loop $-1 $-1 $296 $179 #
vertex $-1 $185 $298 #
vertex $-1 $297 $299 #
straight-curve $-1 -60.435321408536865 -41.562281221244326 0 0 0 -1 I I #
face $-1 $-1 $300 $26 $-1 $301 reversed single #
loop $-1 $-1 $121 $115 #
plane-surface $-1 0 0 12.394355020398235 0 0 1 1 0 0 forward_v I I I I #
coedge $-1 $302 $303 $304 $305 reversed $116 $-1 #
coedge $-1 $306 $118 $120 $205 forward $73 $-1 #
coedge $-1 $118 $306 $302 $307 forward $73 $-1 #
coedge $-1 $304 $121 $118 $202 forward $196 $-1 #
edge $-1 $208 -22.093607610819479 $308 -6.3553315125806904 $201 $309 forward 7 unknown #
coedge $-1 $310 $311 $119 $204 forward $300 $-1 #
edge $-1 $312 -89.649972057969876 $207 -79.709496996664313 $203 $313 forward 7 unknown #
edge $-1 $208 116.0339162736105 $312 129.01028473769344 $120 $314 forward 7 unknown #
coedge $-1 $121 $304 $310 $315 forward $196 $-1 #
vertex $-1 $204 $316 #
vertex $-1 $122 $317 #
straight-curve $-1 40.203271944476121 36.318077172519565 12.394355020398237 -1 0 0 I I #
coedge $-1 $210 $210 $-1 $318 reversed $125 $-1 #
edge $-1 $319 0 $319 6.2831853071796004 $126 $320 forward 7 unknown #
vertex $-1 $129 $321 #
ellipse-curve $-1 60.334617999201825 28.448939123400173 7.4241174897454378 0.7660444514056185 0 0.64278759981090561 1.9283627994327168 0 -2.2981333542168554 1 I I #
face $-1 $-1 $226 $28 $-1 $322 forward single #
loop $-1 $-1 $323 $130 #
plane-surface $-1 -64.505142368846705 0 0 1 0 0 0 0 -1 forward_v I I I I #
coedge $-1 $324 $325 $326 $327 reversed $131 $-1 #
coedge $-1 $328 $133 $135 $224 forward $82 $-1 #
coedge $-1 $133 $328 $324 $329 forward $82 $-1 #
coedge $-1 $326 $136 $133 $221 forward $226 $-1 #
edge $-1 $228 -17.562713837042494 $330 -7.7292756188416973 $220 $331 forward 7 unknown #
coedge $-1 $332 $333 $134 $223 forward $215 $-1 #
edge $-1 $334 -43.516613496147016 $227 -38.441179797832788 $222 $335 forward 7 unknown #
edge $-1 $228 -7.4420027014524628 $334 -1.9479204584885432e-014 $135 $336 forward 7 unknown #
coedge $-1 $136 $326 $332 $337 forward $226 $-1 #
loop $-1 $-1 $326 $214 #
vertex $-1 $223 $338 #
vertex $-1 $137 $339 #
straight-curve $-1 -76.244973018610409 -30.20870856498459 12.394355020398237 1 0 0 I I #
coedge $-1 $230 $230 $-1 $340 reversed $140 $-1 #
edge $-1 $341 0 $341 6.2831853071796004 $141 $342 forward 7 unknown #
vertex $-1 $144 $343 #
ellipse-curve $-1 -61.783774285398522 -25.291989455884192 9.8566381712411211 -0.68199836817093118 0 0.7313536940579346 1.0970305410869019 0 1.0229975522563968 1 I I #
face $-1 $-1 $344 $30 $-1 $345 reversed single #
loop $-1 $-1 $151 $145 #
plane-surface $-1 0 0 12.394355020398235 0 0 1 1 0 0 forward_v I I I I #
coedge $-1 $346 $347 $348 $349 reversed $146 $-1 #
coedge $-1 $350 $148 $150 $244 forward $91 $-1 #
coedge $-1 $148 $350 $346 $351 forward $91 $-1 #
coedge $-1 $348 $151 $148 $241 forward $235 $-1 #
edge $-1 $247 0.38003360951473741 $352 10.213471827715534 $240 $353 forward 7 unknown #
coedge $-1 $354 $355 $149 $243 forward $344 $-1 #
edge $-1 $356 -43.516613496147016 $246 -38.441179797832788 $242 $357 forward 7 unknown #
edge $-1 $247 -7.4420027014524628 $356 -1.9479204584885432e-014 $150 $358 forward 7 unknown #
coedge $-1 $151 $348 $354 $359 forward $235 $-1 #
vertex $-1 $243 $360 #
vertex $-1 $152 $361 #
straight-curve $-1 -76.244973018610409 5.6767863281298725 12.394355020398237 1 0 0 I I #
coedge $-1 $249 $249 $-1 $362 reversed $155 $-1 #
edge $-1 $363 0 $363 6.2831853071796004 $156 $364 forward 7 unknown #
vertex $-1 $159 $365 #
ellipse-curve $-1 -61.783774285398522 10.59350543723027 9.8566381712411211 -0.68199836817093118 0 0.7313536940579346 1.0970305410869019 0 1.0229975522563968 1 I I #
face $-1 $-1 $175 $24 $-1 $366 reversed single #
loop $-1 $-1 $269 $160 #
plane-surface $-1 0 41.562281221244326 0 0 -1 0 0 0 -1 forward_v I I I I #
coedge $-1 $367 $267 $270 $368 forward $161 $-1 #
coedge $-1 $273 $163 $164 $261 reversed $100 $-1 #
coedge $-1 $267 $367 $163 $259 reversed $161 $-1 #
edge $-1 $274 -12.394355020398235 $369 12.394355020398235 $258 $370 forward 7 unknown #
coedge $-1 $165 $164 $367 $371 forward $65 $-1 #
edge $-1 $265 -64.505142368846705 $369 64.505142368846705 $257 $372 forward 7 unknown #
coedge $-1 $270 $269 $165 $263 reversed $254 $-1 #
edge $-1 $373 -64.505142368846705 $264 64.505142368846705 $262 $374 forward 7 unknown #
vertex $-1 $167 $375 #
vertex $-1 $276 $376 #
straight-curve $-1 64.505142368846705 0 -12.394355020398235 0 -1 0 I I #
coedge $-1 $256 $258 $168 $268 reversed $161 $-1 #
edge $-1 $271 -41.562281221244326 $274 41.562281221244326 $267 $377 forward 7 unknown #
coedge $-1 $262 $169 $174 $277 forward $254 $-1 #
coedge $-1 $169 $262 $256 $368 reversed $254 $-1 #
vertex $-1 $170 $378 #
straight-curve $-1 0 41.562281221244326 12.394355020398235 -1 0 0 I I #
coedge $-1 $171 $257 $173 $276 reversed $100 $-1 #
vertex $-1 $268 $379 #
straight-curve $-1 0 -41.562281221244326 12.394355020398235 1 0 0 I I #
edge $-1 $176 -12.394355020398235 $265 12.394355020398235 $173 $380 forward 7 unknown #
edge $-1 $177 -12.394355020398235 $264 12.394355020398235 $174 $381 forward 7 unknown #
point $-1 64.505142368846705 -41.562281221244326 12.394355020398235 #
point $-1 64.505142368846705 41.562281221244326 12.394355020398235 #
face $-1 $-1 $293 $25 $-1 $382 reversed single #
plane-surface $-1 -60.435321408536865 -47.239067549374198 0 -1 0 0 0 0 1 forward_v I I I I #
coedge $-1 $383 $384 $385 $386 forward $180 $-1 #
coedge $-1 $385 $182 $292 $387 reversed $108 $-1 #
coedge $-1 $182 $385 $183 $287 reversed $108 $-1 #
edge $-1 $289 -12.394355020398235 $294 12.394355020398235 $182 $388 forward 7 unknown #
coedge $-1 $184 $183 $384 $389 forward $69 $-1 #
edge $-1 $289 41.562281221244326 $390 52.91585387750407 $284 $391 forward 7 unknown #
edge $-1 $392 -5.6767863281298716 $192 5.6767863281298716 $189 $393 forward 7 unknown #
vertex $-1 $287 $394 #
straight-curve $-1 0 -41.562281221244326 12.394355020398235 -1 0 0 I I #
coedge $-1 $395 $187 $190 $297 forward $293 $-1 #
coedge $-1 $187 $395 $283 $387 forward $293 $-1 #
loop $-1 $-1 $187 $280 #
vertex $-1 $285 $396 #
straight-curve $-1 0 -41.562281221244326 -12.394355020398235 1 0 0 I I #
coedge $-1 $190 $189 $397 $398 forward $191 $-1 #
edge $-1 $193 -5.6767863281298716 $399 5.6767863281298716 $190 $400 forward 7 unknown #
point $-1 -60.435321408536865 -41.562281221244326 12.394355020398235 #
point $-1 -60.435321408536865 -41.562281221244326 -12.394355020398235 #
loop $-1 $-1 $203 $195 #
plane-surface $-1 64.505142368846705 0 0 -1 0 0 0 0 1 forward_v I I I I #
coedge $-1 $303 $198 $200 $307 reversed $116 $-1 #
coedge $-1 $198 $302 $401 $402 reversed $116 $-1 #
coedge $-1 $206 $201 $198 $305 forward $196 $-1 #
edge $-1 $308 15.960821685080795 $403 24.301870424370584 $304 $404 forward 7 unknown #
coedge $-1 $200 $199 $311 $405 reversed $73 $-1 #
edge $-1 $406 -129.01028473769344 $308 -116.0339162736105 $302 $407 forward 7 unknown #
vertex $-1 $202 $408 #
straight-curve $-1 56.164093629556916 14.224469561700086 12.394355020398237 0 -1 0 I I #
coedge $-1 $401 $203 $206 $315 reversed $300 $-1 #
coedge $-1 $203 $401 $306 $405 forward $300 $-1 #
vertex $-1 $204 $409 #
straight-curve $-1 64.505142368846705 36.318077172519565 92.10385201706255 0 0 1 I I #
straight-curve $-1 -18.421068908616746 36.318077172519565 101.28149275666165 0.64278759981090561 0 -0.7660444514056185 I I #
edge $-1 $403 20.579801074280777 $207 36.318077172519565 $310 $410 forward 7 unknown #
point $-1 64.505142368846705 36.318077172519565 12.394355020398235 #
point $-1 56.164093629556916 36.318077172519565 12.394355020398237 #
edge $-1 $411 1 $411 0 $210 $-1 forward 7 unknown #
vertex $-1 $211 $412 #
ellipse-curve $-1 51.652952325860362 28.448939123400173 0.13933521596450116 0.7660444514056185 0 0.64278759981090561 1.9283627994327168 0 -2.2981333542168554 1 I I #
point $-1 62.26298079863453 28.448939123400173 5.1259841355285669 #
plane-surface $-1 0 0 12.394355020398235 0 0 1 1 0 0 forward_v I I I I #
coedge $-1 $333 $332 $325 $413 forward $215 $-1 #
coedge $-1 $325 $217 $219 $329 reversed $131 $-1 #
coedge $-1 $217 $324 $323 $413 reversed $131 $-1 #
coedge $-1 $225 $220 $217 $327 forward $226 $-1 #
edge $-1 $330 -17.182566816660078 $414 -11.739830649763704 $326 $415 forward 7 unknown #
coedge $-1 $219 $218 $333 $416 reversed $82 $-1 #
edge $-1 $417 1.9479204584885432e-014 $330 7.4420027014524628 $324 $418 forward 7 unknown #
vertex $-1 $221 $419 #
straight-curve $-1 -59.062406201950331 -12.645994727942096 12.394355020398237 0 1 0 I I #
coedge $-1 $323 $222 $225 $337 reversed $215 $-1 #
coedge $-1 $222 $323 $328 $416 forward $215 $-1 #
vertex $-1 $223 $420 #
straight-curve $-1 -64.505142368846705 -30.20870856498459 50.835534818231025 0 0 1 I I #
straight-curve $-1 -64.50514236884672 -30.20870856498459 7.3189213220839946 -0.7313536940579346 0 -0.68199836817093118 I I #
edge $-1 $414 20.375270346783793 $227 30.20870856498459 $332 $421 forward 7 unknown #
point $-1 -64.505142368846705 -30.20870856498459 12.394355020398235 #
point $-1 -59.062406201950331 -30.20870856498459 12.394355020398235 #
edge $-1 $422 1 $422 0 $230 $-1 forward 7 unknown #
vertex $-1 $231 $423 #
ellipse-curve $-1 -58.83903866338931 -25.291989455884192 6.6987959010956128 -0.68199836817093118 0 0.7313536940579346 1.0970305410869019 0 1.0229975522563968 1 I I #
point $-1 -60.686743744311613 -25.291989455884192 10.879635723497513 #
loop $-1 $-1 $242 $234 #
plane-surface $-1 -64.505142368846705 0 0 1 0 0 0 0 -1 forward_v I I I I #
coedge $-1 $347 $237 $239 $351 reversed $146 $-1 #
coedge $-1 $237 $346 $424 $425 reversed $146 $-1 #
coedge $-1 $245 $240 $237 $349 forward $235 $-1 #
edge $-1 $352 -17.182566816660078 $426 -11.739830649763704 $348 $427 forward 7 unknown #
coedge $-1 $239 $238 $355 $428 reversed $91 $-1 #
edge $-1 $429 1.9479204584885432e-014 $352 7.4420027014524628 $346 $430 forward 7 unknown #
vertex $-1 $241 $431 #
straight-curve $-1 -59.062406201950331 5.2967527186151351 12.394355020398237 0 1 0 I I #
coedge $-1 $424 $242 $245 $359 reversed $344 $-1 #
coedge $-1 $242 $424 $350 $428 forward $344 $-1 #
vertex $-1 $243 $432 #
straight-curve $-1 -64.505142368846705 5.6767863281298725 50.835534818231025 0 0 1 I I #
straight-curve $-1 -64.50514236884672 5.6767863281298725 7.3189213220839946 -0.7313536940579346 0 -0.68199836817093118 I I #
edge $-1 $426 -15.510224546330669 $246 -5.6767863281298725 $354 $433 forward 7 unknown #
point $-1 -64.505142368846705 5.6767863281298725 12.394355020398235 #
point $-1 -59.062406201950331 5.6767863281298725 12.394355020398235 #
edge $-1 $434 1 $434 0 $249 $-1 forward 7 unknown #
vertex $-1 $250 $435 #
ellipse-curve $-1 -58.83903866338931 10.59350543723027 6.6987959010956128 -0.68199836817093118 0 0.7313536940579346 1.0970305410869019 0 1.0229975522563968 1 I I #
point $-1 -60.686743744311613 10.59350543723027 10.879635723497513 #
plane-surface $-1 64.505142368846705 0 0 -1 0 0 0 0 1 forward_v I I I I #
coedge $-1 $258 $256 $260 $371 reversed $161 $-1 #
edge $-1 $271 -12.394355020398235 $373 12.394355020398235 $270 $436 forward 7 unknown #
vertex $-1 $371 $437 #
straight-curve $-1 -64.505142368846705 -41.562281221244326 0 0 0 -1 I I #
edge $-1 $369 -41.562281221244326 $373 41.562281221244326 $367 $438 forward 7 unknown #
straight-curve $-1 0 -41.562281221244326 -12.394355020398235 -1 0 0 I I #
vertex $-1 $263 $439 #
straight-curve $-1 0 41.562281221244326 -12.394355020398235 1 0 0 I I #
point $-1 64.505142368846705 41.562281221244326 -12.394355020398235 #
point $-1 64.505142368846705 -41.562281221244326 -12.394355020398235 #
straight-curve $-1 -64.505142368846705 0 12.394355020398235 0 -1 0 I I #
point $-1 -64.505142368846705 41.562281221244326 12.394355020398235 #
point $-1 -64.505142368846705 -41.562281221244326 12.394355020398235 #
straight-curve $-1 64.505142368846705 -41.562281221244326 0 0 0 -1 I I #
straight-curve $-1 64.505142368846705 41.562281221244326 0 0 0 -1 I I #
plane-surface $-1 0 0 -12.394355020398235 0 0 1 1 0 0 forward_v I I I I #
coedge $-1 $397 $282 $395 $440 reversed $180 $-1 #
coedge $-1 $282 $397 $286 $389 reversed $180 $-1 #
coedge $-1 $284 $283 $282 $386 reversed $108 $-1 #
edge $-1 $390 -12.394355020398235 $441 12.394355020398235 $385 $442 forward 7 unknown #
edge $-1 $441 -52.91585387750407 $294 -41.562281221244326 $283 $443 forward 7 unknown #
straight-curve $-1 -64.505142368846705 -41.562281221244326 0 0 0 -1 I I #
edge $-1 $390 -2.0349104801549203 $392 2.0349104801549203 $384 $444 forward 7 unknown #
vertex $-1 $287 $445 #
straight-curve $-1 -64.505142368846705 0 12.394355020398235 0 -1 0 I I #
vertex $-1 $288 $446 #
straight-curve $-1 -60.435321408536865 -47.239067549374198 12.394355020398235 0 1 0 I I #
point $-1 -64.505142368846705 -41.562281221244326 12.394355020398235 #
coedge $-1 $292 $291 $383 $440 forward $293 $-1 #
point $-1 -64.505142368846705 -41.562281221244326 -12.394355020398235 #
coedge $-1 $384 $383 $296 $398 reversed $180 $-1 #
edge $-1 $392 -12.394355020398235 $399 12.394355020398235 $296 $447 forward 7 unknown #
vertex $-1 $398 $448 #
straight-curve $-1 -60.435321408536865 -47.239067549374198 -12.394355020398235 0 -1 0 I I #
coedge $-1 $311 $310 $303 $402 forward $300 $-1 #
edge $-1 $403 79.709496996664313 $406 89.649972057969876 $401 $449 forward 7 unknown #
vertex $-1 $315 $450 #
straight-curve $-1 40.203271944476121 20.579801074280777 12.394355020398237 1 0 0 I I #
edge $-1 $406 6.3553315125806904 $312 22.093607610819479 $311 $451 forward 7 unknown #
vertex $-1 $405 $452 #
straight-curve $-1 -18.421068908616746 20.579801074280777 101.28149275666165 -0.64278759981090561 0 0.7660444514056185 I I #
point $-1 56.164093629556916 20.579801074280777 12.394355020398237 #
point $-1 64.505142368846705 36.318077172519565 2.4538799590926743 #
straight-curve $-1 64.505142368846705 0 12.394355020398235 0 1 0 I I #
vertex $-1 $318 $453 #
point $-1 53.581315125293074 28.448939123400173 -2.1587981382523544 #
edge $-1 $414 38.441179797832788 $417 43.516613496147016 $323 $454 forward 7 unknown #
vertex $-1 $337 $455 #
straight-curve $-1 -76.244973018610409 -20.375270346783793 12.394355020398237 -1 0 0 I I #
edge $-1 $417 7.7292756188416973 $334 17.562713837042494 $333 $456 forward 7 unknown #
vertex $-1 $416 $457 #
straight-curve $-1 -64.50514236884672 -20.375270346783793 7.3189213220839946 0.7313536940579346 0 0.68199836817093118 I I #
point $-1 -59.062406201950331 -20.375270346783793 12.394355020398235 #
point $-1 -64.505142368846705 -30.20870856498459 7.3189213220840079 #
straight-curve $-1 -64.505142368846705 0 12.394355020398235 0 -1 0 I I #
vertex $-1 $340 $458 #
point $-1 -57.742008122302408 -25.291989455884192 7.7217934533520101 #
coedge $-1 $355 $354 $347 $425 forward $344 $-1 #
edge $-1 $426 38.441179797832788 $429 43.516613496147016 $424 $459 forward 7 unknown #
vertex $-1 $359 $460 #
straight-curve $-1 -76.244973018610409 15.510224546330669 12.394355020398237 -1 0 0 I I #
edge $-1 $429 -10.213471827715534 $356 -0.38003360951473741 $355 $461 forward 7 unknown #
vertex $-1 $428 $462 #
straight-curve $-1 -64.50514236884672 15.510224546330669 7.3189213220839946 0.7313536940579346 0 0.68199836817093118 I I #
point $-1 -59.062406201950331 15.510224546330669 12.394355020398235 #
point $-1 -64.505142368846705 5.6767863281298725 7.3189213220840079 #
straight-curve $-1 -64.505142368846705 0 12.394355020398235 0 -1 0 I I #
vertex $-1 $362 $463 #
point $-1 -57.742008122302408 10.59350543723027 7.7217934533520101 #
straight-curve $-1 -64.505142368846705 41.562281221244326 0 0 0 -1 I I #
point $-1 -64.505142368846705 -41.562281221244326 -12.394355020398235 #
straight-curve $-1 -64.505142368846705 0 -12.394355020398235 0 1 0 I I #
point $-1 -64.505142368846705 41.562281221244326 -12.394355020398235 #
edge $-1 $399 -2.0349104801549203 $441 2.0349104801549203 $383 $464 forward 7 unknown #
vertex $-1 $387 $465 #
straight-curve $-1 -64.505142368846705 -52.91585387750407 0 0 0 -1 I I #
straight-curve $-1 -64.505142368846705 0 -12.394355020398235 0 1 0 I I #
straight-curve $-1 -62.470231888691785 -52.91585387750407 12.394355020398235 1 0 0 I I #
point $-1 -64.505142368846705 -52.91585387750407 12.394355020398235 #
point $-1 -60.435321408536865 -52.91585387750407 12.394355020398235 #
straight-curve $-1 -60.435321408536865 -52.91585387750407 0 0 0 -1 I I #
point $-1 -60.435321408536865 -52.91585387750407 -12.394355020398235 #
straight-curve $-1 64.505142368846705 20.579801074280777 92.10385201706255 0 0 -1 I I #
point $-1 64.505142368846705 20.579801074280777 12.394355020398235 #
straight-curve $-1 64.505142368846705 14.224469561700086 2.4538799590926814 0 1 0 I I #
point $-1 64.505142368846705 20.579801074280777 2.4538799590926743 #
point $-1 49.354818971643503 28.448939123400173 -1.7890275834682157 #
straight-curve $-1 -64.505142368846705 -20.375270346783793 50.835534818231025 0 0 -1 I I #
point $-1 -64.505142368846705 -20.375270346783793 12.394355020398235 #
straight-curve $-1 -64.505142368846705 -12.645994727942096 7.3189213220840106 0 -1 0 I I #
point $-1 -64.505142368846705 -20.375270346783793 7.3189213220840079 #
point $-1 -57.816041111132911 -25.291989455884192 5.6017653600087112 #
straight-curve $-1 -64.505142368846705 15.510224546330669 50.835534818231025 0 0 -1 I I #
point $-1 -64.505142368846705 15.510224546330669 12.394355020398235 #
straight-curve $-1 -64.505142368846705 5.2967527186151351 7.3189213220840106 0 -1 0 I I #
point $-1 -64.505142368846705 15.510224546330669 7.3189213220840079 #
point $-1 -57.816041111132911 10.59350543723027 5.6017653600087112 #
straight-curve $-1 -62.470231888691785 -52.91585387750407 -12.394355020398235 -1 0 0 I I #
point $-1 -64.505142368846705 -52.91585387750407 -12.394355020398235 #
End-of-ACIS-data 