500 0 7 0           
7 Unknown 11 ACIS 5.0 NT 24 Fri Mar 26 18:34:34 1999 
-1 9.9999999999999995e-007 1e-010 
body $-1 $7 $-1 $8 #
body $-1 $9 $-1 $10 #
body $-1 $11 $-1 $12 #
body $-1 $13 $-1 $14 #
body $-1 $15 $-1 $16 #
body $-1 $17 $-1 $18 #
body $-1 $19 $-1 $20 #
lump $-1 $-1 $21 $0 #
transform $-1 1 0 0 0 1 0 0 0 1 78.413037507248148 38.611128155406256 12.709137935121742 1 rotate no_reflect no_shear #
lump $-1 $-1 $22 $1 #
transform $-1 1 0 0 0 1 0 0 0 1 78.413037507248148 38.611128155406256 12.709137935121742 1 rotate no_reflect no_shear #
lump $-1 $-1 $23 $2 #
transform $-1 1 0 0 0 1 0 0 0 1 78.413037507248148 38.611128155406256 12.709137935121742 1 rotate no_reflect no_shear #
lump $-1 $-1 $24 $3 #
transform $-1 1 0 0 0 1 0 0 0 1 78.413037507248148 38.611128155406256 12.709137935121742 1 rotate no_reflect no_shear #
lump $-1 $-1 $25 $4 #
transform $-1 1 0 0 0 1 0 0 0 1 78.413037507248148 38.611128155406256 12.709137935121742 1 rotate no_reflect no_shear #
lump $-1 $-1 $26 $5 #
transform $-1 1 0 0 0 1 0 0 0 1 78.413037507248148 38.611128155406256 12.709137935121742 1 rotate no_reflect no_shear #
lump $-1 $-1 $27 $6 #
transform $-1 1 0 0 0 1 0 0 0 1 78.413037507248148 38.611128155406256 12.709137935121742 1 rotate no_reflect no_shear #
shell $-1 $-1 $-1 $28 $-1 $7 #
shell $-1 $-1 $-1 $29 $-1 $9 #
shell $-1 $-1 $-1 $30 $-1 $11 #
shell $-1 $-1 $-1 $31 $-1 $13 #
shell $-1 $-1 $-1 $32 $-1 $15 #
shell $-1 $-1 $-1 $33 $-1 $17 #
shell $-1 $-1 $-1 $34 $-1 $19 #
face $-1 $35 $36 $21 $-1 $37 forward single #
face $-1 $38 $39 $22 $-1 $40 forward single #
face $-1 $41 $42 $23 $-1 $43 forward single #
face $-1 $44 $45 $24 $-1 $46 reversed single #
face $-1 $47 $48 $25 $-1 $49 forward single #
face $-1 $50 $51 $26 $-1 $52 forward single #
face $-1 $53 $54 $27 $-1 $55 forward single #
face $-1 $56 $57 $21 $-1 $58 reversed single #
loop $-1 $-1 $59 $28 #
plane-surface $-1 0 0 12.709137935121742 0 0 1 1 0 0 forward_v I I I I #
face $-1 $60 $61 $22 $-1 $62 reversed single #
loop $-1 $-1 $63 $29 #
plane-surface $-1 0 -31.467337508136946 10.231202239577719 0 0 1 1 0 0 forward_v I I I I #
face $-1 $64 $65 $23 $-1 $66 reversed single #
loop $-1 $-1 $67 $30 #
plane-surface $-1 0 31.467337508136943 10.231202239577719 0 0 1 1 0 0 forward_v I I I I #
face $-1 $68 $69 $24 $-1 $70 reversed single #
loop $-1 $-1 $71 $31 #
plane-surface $-1 -38.13144750333521 -18.58009826628146 106.90402320858919 0.66913061440640931 0 0.74314481823134659 0.74314481823134659 0 -0.66913061440640931 forward_v I I I I #
face $-1 $72 $73 $25 $-1 $74 forward single #
loop $-1 $75 $76 $32 #
cone-surface $-1 71.987011267965102 -22.026167423033169 6.8262554743965076 -0.66913061440640931 0 -0.74314481823134659 0.3715724091156733 0 -0.33456530720320465 1 I I 0 1 0.5 forward I I I I #
face $-1 $77 $78 $26 $-1 $79 forward single #
loop $-1 $80 $81 $33 #
cone-surface $-1 71.987011267965102 -18.58009826628146 6.8262554743965076 -0.66913061440640931 0 -0.74314481823134659 0.3715724091156733 0 -0.33456530720320465 1 I I 0 1 0.5 forward I I I I #
face $-1 $82 $83 $27 $-1 $84 forward single #
loop $-1 $85 $86 $34 #
cone-surface $-1 71.987011267965102 -15.134029109529752 6.8262554743965076 -0.66913061440640931 0 -0.74314481823134659 0.3715724091156733 0 -0.33456530720320465 1 I I 0 1 0.5 forward I I I I #
face $-1 $87 $88 $21 $-1 $89 reversed single #
loop $-1 $-1 $90 $35 #
plane-surface $-1 0 0 -12.709137935121742 0 0 1 1 0 0 forward_v I I I I #
coedge $-1 $91 $92 $93 $94 forward $36 $-1 #
face $-1 $95 $96 $22 $-1 $97 reversed single #
loop $-1 $-1 $98 $38 #
plane-surface $-1 0 -31.467337508136946 5.1879624887548204 0 0 1 1 0 0 forward_v I I I I #
coedge $-1 $99 $100 $101 $102 reversed $39 $-1 #
face $-1 $103 $104 $23 $-1 $105 reversed single #
loop $-1 $-1 $106 $41 #
plane-surface $-1 0 31.467337508136943 5.1879624887548204 0 0 1 1 0 0 forward_v I I I I #
coedge $-1 $107 $108 $109 $110 reversed $42 $-1 #
face $-1 $111 $112 $24 $-1 $113 forward single #
loop $-1 $-1 $114 $44 #
plane-surface $-1 66.805680426060334 -12.836649671695284 223.44850821917257 0 -1 0 -0.66913061440640931 0 -0.74314481823134659 forward_v I I I I #
coedge $-1 $115 $116 $117 $118 reversed $45 $-1 #
face $-1 $-1 $119 $25 $-1 $120 forward single #
loop $-1 $121 $122 $47 #
cone-surface $-1 71.358936810676042 -22.026167423033169 6.128708137077485 -0.66913061440640931 0 -0.74314481823134659 0.18578620455783665 0 -0.16728265360160233 1 I I -0.70710678118654746 0.70710678118654746 0.25 forward I I I I #
loop $-1 $-1 $123 $32 #
coedge $-1 $76 $76 $124 $125 reversed $48 $-1 #
face $-1 $-1 $126 $26 $-1 $127 forward single #
loop $-1 $128 $129 $50 #
cone-surface $-1 71.358936810676042 -18.58009826628146 6.128708137077485 -0.66913061440640931 0 -0.74314481823134659 0.18578620455783665 0 -0.16728265360160233 1 I I -0.70710678118654746 0.70710678118654746 0.25 forward I I I I #
loop $-1 $-1 $130 $33 #
coedge $-1 $81 $81 $131 $132 reversed $51 $-1 #
face $-1 $-1 $133 $27 $-1 $134 forward single #
loop $-1 $135 $136 $53 #
cone-surface $-1 71.358936810676042 -15.134029109529752 6.128708137077485 -0.66913061440640931 0 -0.74314481823134659 0.18578620455783665 0 -0.16728265360160233 1 I I -0.70710678118654746 0.70710678118654746 0.25 forward I I I I #
loop $-1 $-1 $137 $34 #
coedge $-1 $86 $86 $138 $139 reversed $54 $-1 #
face $-1 $140 $141 $21 $-1 $142 reversed single #
loop $-1 $-1 $143 $56 #
plane-surface $-1 0 -38.611128155406256 0 0 1 0 0 0 1 forward_v I I I I #
coedge $-1 $144 $145 $146 $147 forward $57 $-1 #
coedge $-1 $148 $59 $149 $150 forward $36 $-1 #
coedge $-1 $59 $148 $151 $152 forward $36 $-1 #
coedge $-1 $153 $154 $59 $94 reversed $155 $-1 #
edge $-1 $156 -38.611128155406256 $157 38.611128155406256 $93 $158 forward 7 unknown #
face $-1 $159 $160 $22 $-1 $161 reversed single #
loop $-1 $-1 $162 $60 #
plane-surface $-1 0 -24.323546860867637 7.7095823641662697 0 -1 0 0 0 -1 forward_v I I I I #
coedge $-1 $163 $164 $165 $166 reversed $61 $-1 #
coedge $-1 $167 $63 $168 $169 forward $39 $-1 #
coedge $-1 $63 $167 $170 $171 reversed $39 $-1 #
coedge $-1 $172 $173 $63 $102 forward $174 $-1 #
edge $-1 $175 8.5898781067991639 $176 22.877459401337781 $101 $177 forward 7 unknown #
face $-1 $178 $179 $23 $-1 $180 reversed single #
loop $-1 $-1 $181 $64 #
plane-surface $-1 0 24.323546860867634 7.7095823641662697 0 1 0 0 0 1 forward_v I I I I #
coedge $-1 $182 $183 $184 $185 reversed $65 $-1 #
coedge $-1 $186 $67 $187 $188 reversed $42 $-1 #
coedge $-1 $67 $186 $189 $190 forward $42 $-1 #
coedge $-1 $191 $192 $67 $110 forward $179 $-1 #
edge $-1 $193 -22.877459401337777 $194 -8.5898781067991621 $109 $195 forward 7 unknown #
face $-1 $196 $197 $24 $-1 $198 reversed single #
loop $-1 $-1 $199 $68 #
plane-surface $-1 0 -24.323546860867637 7.7095823641662697 0 -1 0 0 0 -1 forward_v I I I I #
coedge $-1 $200 $201 $202 $203 reversed $69 $-1 #
coedge $-1 $204 $71 $199 $205 forward $45 $-1 #
coedge $-1 $71 $204 $200 $206 forward $45 $-1 #
coedge $-1 $202 $207 $71 $118 forward $197 $-1 #
edge $-1 $208 -15.033497727726907 $209 -3.5466005385545536 $117 $210 forward 7 unknown #
loop $-1 $-1 $124 $72 #
plane-surface $-1 -38.13144750333521 -18.58009826628146 106.90402320858919 0.66913061440640931 0 0.74314481823134659 0.74314481823134659 0 -0.66913061440640931 forward_v I I I I #
loop $-1 $-1 $211 $47 #
coedge $-1 $122 $122 $123 $212 reversed $73 $-1 #
coedge $-1 $123 $123 $122 $212 forward $75 $-1 #
coedge $-1 $124 $124 $76 $125 forward $119 $-1 #
edge $-1 $213 0 $213 6.2831853071796004 $124 $214 forward 7 unknown #
loop $-1 $-1 $131 $77 #
plane-surface $-1 -38.13144750333521 -18.58009826628146 106.90402320858919 0.66913061440640931 0 0.74314481823134659 0.74314481823134659 0 -0.66913061440640931 forward_v I I I I #
loop $-1 $-1 $215 $50 #
coedge $-1 $129 $129 $130 $216 reversed $78 $-1 #
coedge $-1 $130 $130 $129 $216 forward $80 $-1 #
coedge $-1 $131 $131 $81 $132 forward $126 $-1 #
edge $-1 $217 0 $217 6.2831853071796004 $131 $218 forward 7 unknown #
loop $-1 $-1 $138 $82 #
plane-surface $-1 -38.13144750333521 -18.58009826628146 106.90402320858919 0.66913061440640931 0 0.74314481823134659 0.74314481823134659 0 -0.66913061440640931 forward_v I I I I #
loop $-1 $-1 $219 $53 #
coedge $-1 $136 $136 $137 $220 reversed $83 $-1 #
coedge $-1 $137 $137 $136 $220 forward $85 $-1 #
coedge $-1 $138 $138 $86 $139 forward $133 $-1 #
edge $-1 $221 0 $221 6.2831853071796004 $138 $222 forward 7 unknown #
face $-1 $223 $224 $21 $-1 $225 reversed single #
loop $-1 $-1 $226 $87 #
plane-surface $-1 -78.413037507248148 0 0 1 0 0 0 0 -1 forward_v I I I I #
coedge $-1 $227 $151 $228 $229 forward $88 $-1 #
coedge $-1 $230 $90 $227 $231 forward $57 $-1 #
coedge $-1 $90 $230 $232 $233 forward $57 $-1 #
coedge $-1 $154 $153 $90 $147 reversed $155 $-1 #
edge $-1 $234 -38.611128155406256 $235 38.611128155406256 $146 $236 forward 7 unknown #
coedge $-1 $92 $91 $237 $238 forward $36 $-1 #
coedge $-1 $239 $240 $91 $150 reversed $224 $-1 #
edge $-1 $157 -78.413037507248148 $241 78.413037507248148 $149 $242 forward 7 unknown #
coedge $-1 $143 $243 $92 $152 reversed $88 $-1 #
edge $-1 $244 -78.413037507248148 $156 78.413037507248148 $151 $245 forward 7 unknown #
coedge $-1 $146 $93 $243 $246 forward $155 $-1 #
coedge $-1 $93 $146 $239 $247 reversed $155 $-1 #
loop $-1 $-1 $153 $223 #
vertex $-1 $94 $248 #
vertex $-1 $94 $249 #
straight-curve $-1 78.413037507248148 0 12.709137935121742 0 1 0 I I #
face $-1 $250 $251 $22 $-1 $252 reversed single #
loop $-1 $-1 $253 $95 #
plane-surface $-1 -78.413037507248148 0 0 1 0 0 0 0 -1 forward_v I I I I #
coedge $-1 $254 $168 $173 $255 reversed $96 $-1 #
coedge $-1 $256 $98 $257 $258 reversed $61 $-1 #
coedge $-1 $98 $256 $254 $259 forward $61 $-1 #
coedge $-1 $173 $172 $98 $166 forward $174 $-1 #
edge $-1 $260 -22.877459401337781 $261 -8.5898781067991639 $165 $262 forward 7 unknown #
coedge $-1 $100 $99 $253 $263 reversed $39 $-1 #
coedge $-1 $162 $264 $99 $169 reversed $96 $-1 #
edge $-1 $175 -78.413037507248148 $265 78.413037507248148 $168 $266 forward 7 unknown #
coedge $-1 $267 $268 $100 $171 forward $251 $-1 #
edge $-1 $176 -78.413037507248148 $269 78.413037507248148 $170 $270 forward 7 unknown #
coedge $-1 $165 $101 $268 $271 forward $174 $-1 #
coedge $-1 $101 $165 $162 $255 forward $174 $-1 #
loop $-1 $-1 $101 $250 #
vertex $-1 $102 $272 #
vertex $-1 $271 $273 #
straight-curve $-1 78.413037507248148 -15.733668754068473 10.231202239577719 0 -1 0 I I #
face $-1 $274 $275 $23 $-1 $276 reversed single #
loop $-1 $-1 $109 $103 #
plane-surface $-1 78.413037507248148 0 0 -1 0 0 0 0 1 forward_v I I I I #
coedge $-1 $277 $189 $278 $279 reversed $104 $-1 #
coedge $-1 $280 $106 $277 $281 forward $65 $-1 #
coedge $-1 $106 $280 $282 $283 reversed $65 $-1 #
coedge $-1 $192 $191 $106 $185 forward $179 $-1 #
edge $-1 $284 8.5898781067991621 $285 22.877459401337777 $184 $286 forward 7 unknown #
coedge $-1 $108 $107 $287 $288 reversed $42 $-1 #
coedge $-1 $289 $290 $107 $188 forward $291 $-1 #
edge $-1 $292 -78.413037507248148 $193 78.413037507248148 $187 $293 forward 7 unknown #
coedge $-1 $181 $294 $108 $190 reversed $104 $-1 #
edge $-1 $295 -78.413037507248148 $194 78.413037507248148 $189 $296 forward 7 unknown #
coedge $-1 $184 $109 $294 $297 forward $179 $-1 #
coedge $-1 $109 $184 $289 $298 reversed $179 $-1 #
vertex $-1 $298 $299 #
vertex $-1 $110 $300 #
straight-curve $-1 78.413037507248148 15.733668754068471 10.231202239577719 0 -1 0 I I #
face $-1 $-1 $301 $24 $-1 $302 forward single #
loop $-1 $-1 $207 $111 #
plane-surface $-1 78.413037507248148 0 0 -1 0 0 0 0 1 forward_v I I I I #
coedge $-1 $303 $304 $115 $205 reversed $112 $-1 #
coedge $-1 $201 $114 $116 $206 reversed $69 $-1 #
coedge $-1 $114 $200 $305 $306 reversed $69 $-1 #
coedge $-1 $307 $117 $114 $203 forward $197 $-1 #
edge $-1 $209 -109.75735883039262 $308 -99.015116174464538 $202 $309 forward 7 unknown #
coedge $-1 $116 $115 $310 $311 reversed $45 $-1 #
edge $-1 $208 -156.82607501449627 $312 -140.77204546533628 $199 $313 forward 7 unknown #
edge $-1 $314 140.77204546533628 $209 156.82607501449627 $200 $315 forward 7 unknown #
coedge $-1 $117 $307 $303 $316 forward $197 $-1 #
vertex $-1 $118 $317 #
vertex $-1 $118 $318 #
straight-curve $-1 78.413037507248134 -9.2900491331407302 1.9668952791936718 0 1 0 I I #
coedge $-1 $211 $211 $-1 $319 reversed $121 $-1 #
edge $-1 $320 0 $320 6.2831853071796004 $122 $321 forward 7 unknown #
vertex $-1 $125 $322 #
ellipse-curve $-1 72.447803071652572 -22.026167423033169 7.3380166071577051 0.66913061440640931 0 0.74314481823134659 0.3715724091156733 0 -0.33456530720320465 1 I I #
coedge $-1 $215 $215 $-1 $323 reversed $128 $-1 #
edge $-1 $324 0 $324 6.2831853071796004 $129 $325 forward 7 unknown #
vertex $-1 $132 $326 #
ellipse-curve $-1 72.447803071652572 -18.58009826628146 7.3380166071577051 0.66913061440640931 0 0.74314481823134659 0.3715724091156733 0 -0.33456530720320465 1 I I #
coedge $-1 $219 $219 $-1 $327 reversed $135 $-1 #
edge $-1 $328 0 $328 6.2831853071796004 $136 $329 forward 7 unknown #
vertex $-1 $139 $330 #
ellipse-curve $-1 72.447803071652572 -15.134029109529752 7.3380166071577051 0.66913061440640931 0 0.74314481823134659 0.3715724091156733 0 -0.33456530720320465 1 I I #
face $-1 $-1 $155 $21 $-1 $331 reversed single #
loop $-1 $-1 $239 $140 #
plane-surface $-1 0 38.611128155406256 0 0 -1 0 0 0 -1 forward_v I I I I #
coedge $-1 $332 $237 $240 $333 forward $141 $-1 #
coedge $-1 $243 $143 $144 $231 reversed $88 $-1 #
coedge $-1 $237 $332 $143 $229 reversed $141 $-1 #
edge $-1 $244 -12.709137935121742 $334 12.709137935121742 $228 $335 forward 7 unknown #
coedge $-1 $145 $144 $332 $336 forward $57 $-1 #
edge $-1 $235 -78.413037507248148 $334 78.413037507248148 $227 $337 forward 7 unknown #
coedge $-1 $240 $239 $145 $233 reversed $224 $-1 #
edge $-1 $338 -78.413037507248148 $234 78.413037507248148 $232 $339 forward 7 unknown #
vertex $-1 $147 $340 #
vertex $-1 $246 $341 #
straight-curve $-1 78.413037507248148 0 -12.709137935121742 0 -1 0 I I #
coedge $-1 $226 $228 $148 $238 reversed $141 $-1 #
edge $-1 $241 -38.611128155406256 $244 38.611128155406256 $237 $342 forward 7 unknown #
coedge $-1 $232 $149 $154 $247 forward $224 $-1 #
coedge $-1 $149 $232 $226 $333 reversed $224 $-1 #
vertex $-1 $150 $343 #
straight-curve $-1 0 38.611128155406256 12.709137935121742 -1 0 0 I I #
coedge $-1 $151 $227 $153 $246 reversed $88 $-1 #
vertex $-1 $238 $344 #
straight-curve $-1 0 -38.611128155406256 12.709137935121742 1 0 0 I I #
edge $-1 $156 -12.709137935121742 $235 12.709137935121742 $153 $345 forward 7 unknown #
edge $-1 $157 -12.709137935121742 $234 12.709137935121742 $154 $346 forward 7 unknown #
point $-1 78.413037507248148 -38.611128155406256 12.709137935121742 #
point $-1 78.413037507248148 38.611128155406256 12.709137935121742 #
face $-1 $-1 $174 $22 $-1 $347 reversed single #
loop $-1 $-1 $170 $159 #
plane-surface $-1 0 -38.611128155406256 0 0 1 0 0 0 1 forward_v I I I I #
coedge $-1 $348 $349 $167 $263 forward $160 $-1 #
coedge $-1 $264 $162 $164 $259 reversed $96 $-1 #
edge $-1 $261 1.3331713066716855 $175 6.3764110574945843 $173 $350 forward 7 unknown #
coedge $-1 $164 $163 $351 $352 reversed $61 $-1 #
coedge $-1 $268 $267 $163 $258 forward $251 $-1 #
edge $-1 $353 -78.413037507248148 $260 78.413037507248148 $257 $354 forward 7 unknown #
edge $-1 $355 -78.413037507248148 $261 78.413037507248148 $254 $356 forward 7 unknown #
vertex $-1 $258 $357 #
vertex $-1 $166 $358 #
straight-curve $-1 78.413037507248148 -15.733668754068473 5.1879624887548204 0 1 0 I I #
edge $-1 $269 -22.877459401337781 $265 -8.5898781067991639 $253 $359 forward 7 unknown #
coedge $-1 $168 $254 $348 $360 reversed $96 $-1 #
vertex $-1 $263 $361 #
straight-curve $-1 0 -24.323546860867637 10.231202239577719 -1 0 0 I I #
coedge $-1 $257 $170 $349 $362 forward $251 $-1 #
coedge $-1 $170 $257 $172 $271 reversed $251 $-1 #
vertex $-1 $362 $363 #
straight-curve $-1 0 -38.611128155406256 10.231202239577719 -1 0 0 I I #
edge $-1 $176 -10.231202239577719 $260 -5.1879624887548204 $172 $364 forward 7 unknown #
point $-1 78.413037507248148 -24.323546860867637 10.231202239577719 #
point $-1 78.413037507248148 -38.611128155406256 10.231202239577719 #
face $-1 $-1 $291 $23 $-1 $365 reversed single #
loop $-1 $-1 $287 $178 #
plane-surface $-1 -78.413037507248148 0 0 1 0 0 0 0 -1 forward_v I I I I #
coedge $-1 $294 $181 $182 $281 reversed $104 $-1 #
coedge $-1 $287 $366 $181 $279 forward $275 $-1 #
edge $-1 $367 1.3331713066716855 $295 6.3764110574945843 $278 $368 forward 7 unknown #
coedge $-1 $183 $182 $366 $369 reversed $65 $-1 #
edge $-1 $284 -78.413037507248148 $367 78.413037507248148 $277 $370 forward 7 unknown #
coedge $-1 $290 $289 $183 $283 forward $291 $-1 #
edge $-1 $285 -78.413037507248148 $371 78.413037507248148 $282 $372 forward 7 unknown #
vertex $-1 $185 $373 #
vertex $-1 $283 $374 #
straight-curve $-1 78.413037507248148 15.733668754068471 5.1879624887548204 0 1 0 I I #
coedge $-1 $375 $278 $186 $288 forward $275 $-1 #
edge $-1 $295 8.5898781067991621 $292 22.877459401337777 $287 $376 forward 7 unknown #
coedge $-1 $282 $187 $192 $298 forward $291 $-1 #
coedge $-1 $187 $282 $375 $377 reversed $291 $-1 #
loop $-1 $-1 $187 $274 #
vertex $-1 $377 $378 #
straight-curve $-1 0 38.611128155406256 10.231202239577719 1 0 0 I I #
coedge $-1 $189 $277 $191 $297 reversed $104 $-1 #
vertex $-1 $288 $379 #
straight-curve $-1 0 24.323546860867634 10.231202239577719 1 0 0 I I #
edge $-1 $194 -6.3764110574945843 $284 -1.3331713066716855 $191 $380 forward 7 unknown #
edge $-1 $193 -10.231202239577719 $285 -5.1879624887548204 $192 $381 forward 7 unknown #
point $-1 78.413037507248148 38.611128155406249 10.231202239577719 #
point $-1 78.413037507248148 24.323546860867634 10.231202239577719 #
loop $-1 $-1 $382 $196 #
plane-surface $-1 0 0 12.709137935121742 0 0 1 1 0 0 forward_v I I I I #
coedge $-1 $304 $199 $207 $316 reversed $112 $-1 #
coedge $-1 $199 $303 $382 $383 reversed $112 $-1 #
coedge $-1 $310 $384 $201 $306 forward $301 $-1 #
edge $-1 $308 -45.010197294217981 $314 -33.079728423026815 $305 $385 forward 7 unknown #
coedge $-1 $207 $202 $384 $386 reversed $197 $-1 #
vertex $-1 $306 $387 #
straight-curve $-1 78.413037507248148 -12.836649671695284 111.72425410958628 0 0 1 I I #
coedge $-1 $382 $305 $204 $311 forward $301 $-1 #
edge $-1 $314 3.5466005385545536 $312 15.033497727726907 $310 $388 forward 7 unknown #
vertex $-1 $383 $389 #
straight-curve $-1 -38.13144750333521 -24.323546860867637 106.90402320858919 -0.74314481823134659 0 0.66913061440640931 I I #
vertex $-1 $311 $390 #
straight-curve $-1 -38.13144750333521 -12.836649671695284 106.90402320858919 0.74314481823134659 0 -0.66913061440640931 I I #
edge $-1 $391 99.015116174464538 $208 109.75735883039262 $207 $392 forward 7 unknown #
point $-1 78.413037507248148 -24.323546860867637 1.9668952791936647 #
point $-1 78.413037507248148 -12.836649671695284 1.9668952791936647 #
edge $-1 $393 1 $393 0 $211 $-1 forward 7 unknown #
vertex $-1 $212 $394 #
ellipse-curve $-1 71.526219464277645 -22.026167423033169 6.3144943416353216 0.66913061440640931 0 0.74314481823134659 0.3715724091156733 0 -0.33456530720320465 1 I I #
point $-1 72.819375480768244 -22.026167423033169 7.0034512999544889 #
edge $-1 $395 1 $395 0 $215 $-1 forward 7 unknown #
vertex $-1 $216 $396 #
ellipse-curve $-1 71.526219464277645 -18.58009826628146 6.3144943416353216 0.66913061440640931 0 0.74314481823134659 0.3715724091156733 0 -0.33456530720320465 1 I I #
point $-1 72.819375480768244 -18.58009826628146 7.0034512999544889 #
edge $-1 $397 1 $397 0 $219 $-1 forward 7 unknown #
vertex $-1 $220 $398 #
ellipse-curve $-1 71.526219464277645 -15.134029109529752 6.3144943416353216 0.66913061440640931 0 0.74314481823134659 0.3715724091156733 0 -0.33456530720320465 1 I I #
point $-1 72.819375480768244 -15.134029109529752 7.0034512999544889 #
plane-surface $-1 78.413037507248148 0 0 -1 0 0 0 0 1 forward_v I I I I #
coedge $-1 $228 $226 $230 $336 reversed $141 $-1 #
edge $-1 $241 -12.709137935121742 $338 12.709137935121742 $240 $399 forward 7 unknown #
vertex $-1 $336 $400 #
straight-curve $-1 -78.413037507248148 -38.611128155406256 0 0 0 -1 I I #
edge $-1 $334 -38.611128155406256 $338 38.611128155406256 $332 $401 forward 7 unknown #
straight-curve $-1 0 -38.611128155406256 -12.709137935121742 -1 0 0 I I #
vertex $-1 $233 $402 #
straight-curve $-1 0 38.611128155406256 -12.709137935121742 1 0 0 I I #
point $-1 78.413037507248148 38.611128155406256 -12.709137935121742 #
point $-1 78.413037507248148 -38.611128155406256 -12.709137935121742 #
straight-curve $-1 -78.413037507248148 0 12.709137935121742 0 -1 0 I I #
point $-1 -78.413037507248148 38.611128155406256 12.709137935121742 #
point $-1 -78.413037507248148 -38.611128155406256 12.709137935121742 #
straight-curve $-1 78.413037507248148 -38.611128155406256 0 0 0 -1 I I #
straight-curve $-1 78.413037507248148 38.611128155406256 0 0 0 -1 I I #
plane-surface $-1 78.413037507248148 0 0 -1 0 0 0 0 1 forward_v I I I I #
coedge $-1 $351 $253 $264 $360 forward $160 $-1 #
coedge $-1 $253 $351 $267 $362 reversed $160 $-1 #
straight-curve $-1 78.413037507248148 -24.323546860867637 3.8547911820831349 0 0 1 I I #
coedge $-1 $349 $348 $256 $352 forward $160 $-1 #
edge $-1 $355 8.5898781067991639 $353 22.877459401337781 $351 $403 forward 7 unknown #
vertex $-1 $258 $404 #
straight-curve $-1 0 -38.611128155406256 5.1879624887548204 1 0 0 I I #
vertex $-1 $352 $405 #
straight-curve $-1 0 -24.323546860867637 5.1879624887548204 1 0 0 I I #
point $-1 78.413037507248148 -38.611128155406256 5.1879624887548204 #
point $-1 78.413037507248148 -24.323546860867637 5.1879624887548204 #
straight-curve $-1 -78.413037507248148 -15.733668754068473 10.231202239577719 0 1 0 I I #
edge $-1 $265 -6.3764110574945843 $355 -1.3331713066716855 $348 $406 forward 7 unknown #
point $-1 -78.413037507248148 -24.323546860867637 10.231202239577719 #
edge $-1 $269 -10.231202239577719 $353 -5.1879624887548204 $349 $407 forward 7 unknown #
point $-1 -78.413037507248148 -38.611128155406256 10.231202239577719 #
straight-curve $-1 78.413037507248148 -38.611128155406256 0 0 0 -1 I I #
plane-surface $-1 0 38.611128155406256 0 0 -1 0 0 0 -1 forward_v I I I I #
coedge $-1 $278 $375 $280 $369 forward $275 $-1 #
vertex $-1 $369 $408 #
straight-curve $-1 -78.413037507248148 24.323546860867634 3.8547911820831349 0 0 1 I I #
edge $-1 $371 -22.877459401337777 $367 -8.5898781067991621 $366 $409 forward 7 unknown #
straight-curve $-1 0 24.323546860867634 5.1879624887548204 -1 0 0 I I #
vertex $-1 $283 $410 #
straight-curve $-1 0 38.611128155406256 5.1879624887548204 -1 0 0 I I #
point $-1 78.413037507248148 24.323546860867634 5.1879624887548204 #
point $-1 78.413037507248148 38.611128155406249 5.1879624887548204 #
coedge $-1 $366 $287 $290 $377 forward $275 $-1 #
straight-curve $-1 -78.413037507248148 15.733668754068471 10.231202239577719 0 1 0 I I #
edge $-1 $292 -10.231202239577719 $371 -5.1879624887548204 $290 $411 forward 7 unknown #
point $-1 -78.413037507248148 38.611128155406249 10.231202239577719 #
point $-1 -78.413037507248148 24.323546860867634 10.231202239577719 #
straight-curve $-1 78.413037507248148 24.323546860867634 3.8547911820831349 0 0 -1 I I #
straight-curve $-1 78.413037507248148 38.611128155406256 0 0 0 -1 I I #
coedge $-1 $384 $310 $304 $383 forward $301 $-1 #
edge $-1 $312 33.079728423026815 $391 45.010197294217981 $382 $412 forward 7 unknown #
coedge $-1 $305 $382 $307 $386 forward $301 $-1 #
straight-curve $-1 33.402840213030167 -12.836649671695284 12.709137935121745 -1 0 0 I I #
edge $-1 $391 -24.323546860867637 $308 -12.836649671695284 $307 $413 forward 7 unknown #
point $-1 78.413037507248148 -12.836649671695284 12.709137935121742 #
straight-curve $-1 66.482568636056982 -9.2900491331407302 12.709137935121738 0 -1 0 I I #
point $-1 66.482568636056982 -24.323546860867637 12.709137935121745 #
point $-1 66.482568636056982 -12.836649671695284 12.709137935121745 #
vertex $-1 $386 $414 #
straight-curve $-1 78.413037507248148 -24.323546860867637 111.72425410958628 0 0 -1 I I #
vertex $-1 $319 $415 #
point $-1 71.897791873393317 -22.026167423033169 5.979929034432117 #
vertex $-1 $323 $416 #
point $-1 71.897791873393317 -18.58009826628146 5.979929034432117 #
vertex $-1 $327 $417 #
point $-1 71.897791873393317 -15.134029109529752 5.979929034432117 #
straight-curve $-1 -78.413037507248148 38.611128155406256 0 0 0 -1 I I #
point $-1 -78.413037507248148 -38.611128155406256 -12.709137935121742 #
straight-curve $-1 -78.413037507248148 0 -12.709137935121742 0 1 0 I I #
point $-1 -78.413037507248148 38.611128155406256 -12.709137935121742 #
straight-curve $-1 -78.413037507248148 -15.733668754068473 5.1879624887548204 0 -1 0 I I #
point $-1 -78.413037507248148 -38.611128155406256 5.1879624887548204 #
point $-1 -78.413037507248148 -24.323546860867637 5.1879624887548204 #
straight-curve $-1 -78.413037507248148 -24.323546860867637 3.8547911820831349 0 0 -1 I I #
straight-curve $-1 -78.413037507248148 -38.611128155406256 0 0 0 -1 I I #
point $-1 -78.413037507248148 24.323546860867634 5.1879624887548204 #
straight-curve $-1 -78.413037507248148 15.733668754068471 5.1879624887548204 0 -1 0 I I #
point $-1 -78.413037507248148 38.611128155406249 5.1879624887548204 #
straight-curve $-1 -78.413037507248148 38.611128155406256 0 0 0 -1 I I #
straight-curve $-1 33.402840213030167 -24.323546860867637 12.709137935121745 1 0 0 I I #
straight-curve $-1 78.413037507248148 0 12.709137935121742 0 1 0 I I #
point $-1 78.413037507248148 -24.323546860867637 12.709137935121742 #
point $-1 71.191654157074439 -22.026167423033169 5.9429219325196483 #
point $-1 71.191654157074439 -18.58009826628146 5.9429219325196483 #
point $-1 71.191654157074439 -15.134029109529752 5.9429219325196483 #
End-of-ACIS-data 