500 0 4 0           
7 Unknown 11 ACIS 5.0 NT 24 Thu Mar 25 15:32:06 1999 
-1 9.9999999999999995e-007 1e-010 
body $-1 $4 $-1 $5 #
body $-1 $6 $-1 $7 #
body $-1 $8 $-1 $9 #
body $-1 $10 $-1 $11 #
lump $-1 $-1 $12 $0 #
transform $-1 1 0 0 0 1 0 0 0 1 72.778099917600031 29.877512267573231 14.809095736299847 1 rotate no_reflect no_shear #
lump $-1 $-1 $13 $1 #
transform $-1 1 0 0 0 1 0 0 0 1 72.778099917600031 29.877512267573231 14.809095736299847 1 rotate no_reflect no_shear #
lump $-1 $-1 $14 $2 #
transform $-1 1 0 0 0 1 0 0 0 1 72.778099917600031 29.877512267573231 14.809095736299847 1 rotate no_reflect no_shear #
lump $-1 $-1 $15 $3 #
transform $-1 1 0 0 0 1 0 0 0 1 72.778099917600031 29.877512267573231 14.809095736299847 1 rotate no_reflect no_shear #
shell $-1 $-1 $-1 $16 $-1 $4 #
shell $-1 $-1 $-1 $17 $-1 $6 #
shell $-1 $-1 $-1 $18 $-1 $8 #
shell $-1 $-1 $-1 $19 $-1 $10 #
face $-1 $20 $21 $12 $-1 $22 forward single #
face $-1 $23 $24 $13 $-1 $25 forward single #
face $-1 $26 $27 $14 $-1 $28 reversed single #
face $-1 $29 $30 $15 $-1 $31 forward single #
face $-1 $32 $33 $12 $-1 $34 reversed single #
loop $-1 $-1 $35 $16 #
plane-surface $-1 0 0 14.809095736299847 0 0 1 1 0 0 forward_v I I I I #
face $-1 $36 $37 $13 $-1 $38 reversed single #
loop $-1 $-1 $39 $17 #
plane-surface $-1 0 -20.860414904069877 -1.6572988208605519 0 0 1 1 0 0 forward_v I I I I #
face $-1 $40 $41 $14 $-1 $42 reversed single #
loop $-1 $-1 $43 $18 #
plane-surface $-1 35.538744048829756 80.27328348757834 158.46614167295996 1 0 0 0 -0.6560590369687036 -0.75470957328743171 forward_v I I I I #
face $-1 $44 $45 $15 $-1 $46 forward single #
loop $-1 $47 $48 $19 #
cone-surface $-1 44.333995303558737 25.496489168305153 10.642090344148016 0 -0.6560590369687036 -0.75470957328743171 1 0 0 1 I I 0 1 1 forward I I I I #
face $-1 $49 $50 $12 $-1 $51 reversed single #
loop $-1 $-1 $52 $20 #
plane-surface $-1 0 0 -14.809095736299847 0 0 1 1 0 0 forward_v I I I I #
coedge $-1 $53 $54 $55 $56 forward $21 $-1 #
face $-1 $57 $58 $13 $-1 $59 reversed single #
loop $-1 $-1 $60 $23 #
plane-surface $-1 0 -20.860414904069877 -10.527389910669443 0 0 1 1 0 0 forward_v I I I I #
coedge $-1 $61 $62 $63 $64 reversed $24 $-1 #
face $-1 $65 $66 $14 $-1 $67 reversed single #
loop $-1 $-1 $68 $26 #
plane-surface $-1 44.333995303558737 -15.220176801127181 48.613484205995988 0 0.6560590369687036 0.75470957328743171 1 0 0 forward_v I I I I #
coedge $-1 $69 $70 $71 $72 reversed $27 $-1 #
face $-1 $-1 $73 $15 $-1 $74 forward single #
loop $-1 $75 $76 $29 #
cone-surface $-1 44.333995303558737 23.892531239548696 8.7969478557891119 0 -0.6560590369687036 -0.75470957328743171 0.5 0 0 1 I I -0.70710678118654746 0.70710678118654746 0.5 forward I I I I #
loop $-1 $-1 $77 $19 #
coedge $-1 $48 $48 $78 $79 reversed $30 $-1 #
face $-1 $80 $81 $12 $-1 $82 reversed single #
loop $-1 $-1 $83 $32 #
plane-surface $-1 0 -29.877512267573231 0 0 1 0 0 0 1 forward_v I I I I #
coedge $-1 $84 $85 $86 $87 forward $33 $-1 #
coedge $-1 $88 $35 $89 $90 forward $21 $-1 #
coedge $-1 $35 $88 $91 $92 forward $21 $-1 #
coedge $-1 $93 $94 $35 $56 reversed $95 $-1 #
edge $-1 $96 -29.877512267573231 $97 29.877512267573231 $55 $98 forward 7 unknown #
face $-1 $99 $100 $13 $-1 $101 reversed single #
loop $-1 $-1 $102 $36 #
plane-surface $-1 0 -11.843317540566526 -6.0923443657649976 0 -1 0 0 0 -1 forward_v I I I I #
coedge $-1 $103 $104 $105 $106 reversed $37 $-1 #
coedge $-1 $107 $39 $108 $109 forward $24 $-1 #
coedge $-1 $39 $107 $110 $111 reversed $24 $-1 #
coedge $-1 $112 $113 $39 $64 forward $114 $-1 #
edge $-1 $115 1.413110088531587 $116 19.447304815538292 $63 $117 forward 7 unknown #
face $-1 $118 $119 $14 $-1 $120 reversed single #
loop $-1 $-1 $121 $40 #
plane-surface $-1 53.129246558287718 80.27328348757834 158.46614167295996 -1 0 0 0 0.6560590369687036 0.75470957328743171 forward_v I I I I #
coedge $-1 $122 $123 $124 $125 reversed $41 $-1 #
coedge $-1 $70 $43 $126 $127 reversed $27 $-1 #
coedge $-1 $43 $69 $122 $128 reversed $27 $-1 #
coedge $-1 $124 $129 $43 $72 forward $130 $-1 #
edge $-1 $131 10.259129476215939 $132 16.469318854207884 $71 $133 forward 7 unknown #
loop $-1 $-1 $78 $44 #
plane-surface $-1 44.333995303558737 -15.220176801127181 48.613484205995988 0 0.6560590369687036 0.75470957328743171 1 0 0 forward_v I I I I #
loop $-1 $-1 $134 $29 #
coedge $-1 $76 $76 $77 $135 reversed $45 $-1 #
coedge $-1 $77 $77 $76 $135 forward $47 $-1 #
coedge $-1 $78 $78 $48 $79 forward $73 $-1 #
edge $-1 $136 3.3822212441410489e-015 $136 6.283185307179604 $78 $137 forward 7 unknown #
face $-1 $138 $139 $12 $-1 $140 reversed single #
loop $-1 $-1 $141 $49 #
plane-surface $-1 -72.778099917600031 0 0 1 0 0 0 0 -1 forward_v I I I I #
coedge $-1 $142 $91 $143 $144 forward $50 $-1 #
coedge $-1 $145 $52 $142 $146 forward $33 $-1 #
coedge $-1 $52 $145 $147 $148 forward $33 $-1 #
coedge $-1 $94 $93 $52 $87 reversed $95 $-1 #
edge $-1 $149 -29.877512267573231 $150 29.877512267573231 $86 $151 forward 7 unknown #
coedge $-1 $54 $53 $152 $153 forward $21 $-1 #
coedge $-1 $154 $155 $53 $90 reversed $139 $-1 #
edge $-1 $97 -72.778099917600031 $156 72.778099917600031 $89 $157 forward 7 unknown #
coedge $-1 $83 $158 $54 $92 reversed $50 $-1 #
edge $-1 $159 -72.778099917600031 $96 72.778099917600031 $91 $160 forward 7 unknown #
coedge $-1 $86 $55 $158 $161 forward $95 $-1 #
coedge $-1 $55 $86 $154 $162 reversed $95 $-1 #
loop $-1 $-1 $93 $138 #
vertex $-1 $56 $163 #
vertex $-1 $56 $164 #
straight-curve $-1 72.778099917600031 0 14.809095736299847 0 1 0 I I #
face $-1 $165 $166 $13 $-1 $167 reversed single #
loop $-1 $-1 $168 $57 #
plane-surface $-1 -72.778099917600031 0 0 1 0 0 0 0 -1 forward_v I I I I #
coedge $-1 $169 $108 $113 $170 reversed $58 $-1 #
coedge $-1 $171 $60 $172 $173 reversed $37 $-1 #
coedge $-1 $60 $171 $169 $174 forward $37 $-1 #
coedge $-1 $113 $112 $60 $106 forward $114 $-1 #
edge $-1 $175 -19.447304815538292 $176 -1.413110088531587 $105 $177 forward 7 unknown #
coedge $-1 $62 $61 $168 $178 reversed $24 $-1 #
coedge $-1 $102 $179 $61 $109 reversed $58 $-1 #
edge $-1 $115 -72.778099917600031 $180 72.778099917600031 $108 $181 forward 7 unknown #
coedge $-1 $182 $183 $62 $111 forward $166 $-1 #
edge $-1 $116 -72.778099917600031 $184 72.778099917600031 $110 $185 forward 7 unknown #
coedge $-1 $105 $63 $183 $186 forward $114 $-1 #
coedge $-1 $63 $105 $102 $170 forward $114 $-1 #
loop $-1 $-1 $63 $165 #
vertex $-1 $64 $187 #
vertex $-1 $186 $188 #
straight-curve $-1 72.778099917600031 -10.430207452034939 -1.6572988208605519 0 -1 0 I I #
face $-1 $-1 $130 $14 $-1 $189 forward single #
loop $-1 $-1 $190 $65 #
plane-surface $-1 0 29.877512267573231 0 0 -1 0 0 0 -1 forward_v I I I I #
coedge $-1 $191 $192 $193 $194 reversed $66 $-1 #
coedge $-1 $195 $68 $70 $128 forward $41 $-1 #
coedge $-1 $68 $195 $191 $196 forward $41 $-1 #
coedge $-1 $193 $71 $68 $125 forward $130 $-1 #
edge $-1 $132 13.371746397050387 $197 30.96224890650835 $124 $198 forward 7 unknown #
coedge $-1 $199 $200 $69 $127 forward $119 $-1 #
edge $-1 $201 -69.822410481053453 $131 -64.42397510018013 $126 $202 forward 7 unknown #
edge $-1 $132 51.526442842534522 $201 59.755024535146482 $70 $203 forward 7 unknown #
coedge $-1 $71 $193 $199 $204 forward $130 $-1 #
loop $-1 $-1 $193 $118 #
vertex $-1 $127 $205 #
vertex $-1 $72 $206 #
straight-curve $-1 35.538744048829756 40.13664174378917 14.809095736299852 0 -1 0 I I #
coedge $-1 $134 $134 $-1 $207 reversed $75 $-1 #
edge $-1 $208 0 $208 6.2831853071796004 $76 $209 forward 7 unknown #
vertex $-1 $79 $210 #
ellipse-curve $-1 44.333995303558737 26.772417578577251 12.109878045863194 0 0.6560590369687036 0.75470957328743171 1 0 0 1 I I #
face $-1 $-1 $95 $12 $-1 $211 reversed single #
loop $-1 $-1 $154 $80 #
plane-surface $-1 0 29.877512267573231 0 0 -1 0 0 0 -1 forward_v I I I I #
coedge $-1 $212 $152 $155 $213 forward $81 $-1 #
coedge $-1 $158 $83 $84 $146 reversed $50 $-1 #
coedge $-1 $152 $212 $83 $144 reversed $81 $-1 #
edge $-1 $159 -14.809095736299847 $214 14.809095736299847 $143 $215 forward 7 unknown #
coedge $-1 $85 $84 $212 $216 forward $33 $-1 #
edge $-1 $150 -72.778099917600031 $214 72.778099917600031 $142 $217 forward 7 unknown #
coedge $-1 $155 $154 $85 $148 reversed $139 $-1 #
edge $-1 $218 -72.778099917600031 $149 72.778099917600031 $147 $219 forward 7 unknown #
vertex $-1 $87 $220 #
vertex $-1 $161 $221 #
straight-curve $-1 72.778099917600031 0 -14.809095736299847 0 -1 0 I I #
coedge $-1 $141 $143 $88 $153 reversed $81 $-1 #
edge $-1 $156 -29.877512267573231 $159 29.877512267573231 $152 $222 forward 7 unknown #
coedge $-1 $147 $89 $94 $162 forward $139 $-1 #
coedge $-1 $89 $147 $141 $213 reversed $139 $-1 #
vertex $-1 $90 $223 #
straight-curve $-1 0 29.877512267573231 14.809095736299847 -1 0 0 I I #
coedge $-1 $91 $142 $93 $161 reversed $50 $-1 #
vertex $-1 $153 $224 #
straight-curve $-1 0 -29.877512267573231 14.809095736299847 1 0 0 I I #
edge $-1 $96 -14.809095736299847 $150 14.809095736299847 $93 $225 forward 7 unknown #
edge $-1 $97 -14.809095736299847 $149 14.809095736299847 $94 $226 forward 7 unknown #
point $-1 72.778099917600031 -29.877512267573231 14.809095736299847 #
point $-1 72.778099917600031 29.877512267573231 14.809095736299847 #
face $-1 $-1 $114 $13 $-1 $227 reversed single #
loop $-1 $-1 $110 $99 #
plane-surface $-1 0 -29.877512267573231 0 0 1 0 0 0 1 forward_v I I I I #
coedge $-1 $228 $229 $107 $178 forward $100 $-1 #
coedge $-1 $179 $102 $104 $174 reversed $58 $-1 #
edge $-1 $176 -7.4812177277869445 $115 1.3888733620219469 $113 $230 forward 7 unknown #
coedge $-1 $104 $103 $231 $232 reversed $37 $-1 #
coedge $-1 $183 $182 $103 $173 forward $166 $-1 #
edge $-1 $233 -72.778099917600031 $175 72.778099917600031 $172 $234 forward 7 unknown #
edge $-1 $235 -72.778099917600031 $176 72.778099917600031 $169 $236 forward 7 unknown #
vertex $-1 $173 $237 #
vertex $-1 $106 $238 #
straight-curve $-1 72.778099917600031 -10.430207452034939 -10.527389910669443 0 1 0 I I #
edge $-1 $184 -19.447304815538292 $180 -1.413110088531587 $168 $239 forward 7 unknown #
coedge $-1 $108 $169 $228 $240 reversed $58 $-1 #
vertex $-1 $178 $241 #
straight-curve $-1 0 -11.843317540566526 -1.6572988208605519 -1 0 0 I I #
coedge $-1 $172 $110 $229 $242 forward $166 $-1 #
coedge $-1 $110 $172 $112 $186 reversed $166 $-1 #
vertex $-1 $242 $243 #
straight-curve $-1 0 -29.877512267573231 -1.6572988208605519 -1 0 0 I I #
edge $-1 $116 1.6572988208605519 $175 10.527389910669443 $112 $244 forward 7 unknown #
point $-1 72.778099917600031 -11.843317540566526 -1.6572988208605519 #
point $-1 72.778099917600031 -29.877512267573231 -1.6572988208605519 #
plane-surface $-1 0 0 14.809095736299847 0 0 1 1 0 0 forward_v I I I I #
coedge $-1 $200 $199 $192 $245 forward $119 $-1 #
coedge $-1 $192 $121 $123 $196 reversed $66 $-1 #
coedge $-1 $121 $191 $190 $245 reversed $66 $-1 #
coedge $-1 $129 $124 $121 $194 forward $130 $-1 #
edge $-1 $197 -16.469318854207884 $246 -10.259129476215939 $193 $247 forward 7 unknown #
coedge $-1 $123 $122 $200 $248 reversed $41 $-1 #
edge $-1 $249 -59.755024535146482 $197 -51.526442842534522 $191 $250 forward 7 unknown #
vertex $-1 $125 $251 #
straight-curve $-1 22.166997651779369 23.667322889581282 14.809095736299849 1 0 0 I I #
coedge $-1 $190 $126 $129 $204 reversed $119 $-1 #
coedge $-1 $126 $190 $195 $248 forward $119 $-1 #
vertex $-1 $127 $252 #
straight-curve $-1 35.538744048829756 29.877512267573231 79.233070836479982 0 0 1 I I #
straight-curve $-1 35.538744048829756 -15.220176801127181 48.613484205995988 0 0.75470957328743171 -0.6560590369687036 I I #
edge $-1 $246 -53.129246558287718 $131 -35.538744048829756 $199 $253 forward 7 unknown #
point $-1 35.538744048829756 29.877512267573231 14.809095736299847 #
point $-1 35.538744048829756 23.667322889581285 14.809095736299845 #
edge $-1 $254 1 $254 0 $134 $-1 forward 7 unknown #
vertex $-1 $135 $255 #
ellipse-curve $-1 44.333995303558737 24.220560758033049 9.1743026424328278 0 0.6560590369687036 0.75470957328743171 1 0 0 1 I I #
point $-1 45.333995303558737 26.772417578577262 12.109878045863201 #
plane-surface $-1 72.778099917600031 0 0 -1 0 0 0 0 1 forward_v I I I I #
coedge $-1 $143 $141 $145 $216 reversed $81 $-1 #
edge $-1 $156 -14.809095736299847 $218 14.809095736299847 $155 $256 forward 7 unknown #
vertex $-1 $216 $257 #
straight-curve $-1 -72.778099917600031 -29.877512267573231 0 0 0 -1 I I #
edge $-1 $214 -29.877512267573231 $218 29.877512267573231 $212 $258 forward 7 unknown #
straight-curve $-1 0 -29.877512267573231 -14.809095736299847 -1 0 0 I I #
vertex $-1 $148 $259 #
straight-curve $-1 0 29.877512267573231 -14.809095736299847 1 0 0 I I #
point $-1 72.778099917600031 29.877512267573231 -14.809095736299847 #
point $-1 72.778099917600031 -29.877512267573231 -14.809095736299847 #
straight-curve $-1 -72.778099917600031 0 14.809095736299847 0 -1 0 I I #
point $-1 -72.778099917600031 29.877512267573231 14.809095736299847 #
point $-1 -72.778099917600031 -29.877512267573231 14.809095736299847 #
straight-curve $-1 72.778099917600031 -29.877512267573231 0 0 0 -1 I I #
straight-curve $-1 72.778099917600031 29.877512267573231 0 0 0 -1 I I #
plane-surface $-1 72.778099917600031 0 0 -1 0 0 0 0 1 forward_v I I I I #
coedge $-1 $231 $168 $179 $240 forward $100 $-1 #
coedge $-1 $168 $231 $182 $242 reversed $100 $-1 #
straight-curve $-1 72.778099917600031 -11.843317540566526 -3.0461721828824988 0 0 1 I I #
coedge $-1 $229 $228 $171 $232 forward $100 $-1 #
edge $-1 $235 1.413110088531587 $233 19.447304815538292 $231 $260 forward 7 unknown #
vertex $-1 $173 $261 #
straight-curve $-1 0 -29.877512267573231 -10.527389910669443 1 0 0 I I #
vertex $-1 $232 $262 #
straight-curve $-1 0 -11.843317540566526 -10.527389910669443 1 0 0 I I #
point $-1 72.778099917600031 -29.877512267573231 -10.527389910669443 #
point $-1 72.778099917600031 -11.843317540566526 -10.527389910669443 #
straight-curve $-1 -72.778099917600031 -10.430207452034939 -1.6572988208605519 0 1 0 I I #
edge $-1 $180 -1.3888733620219469 $235 7.4812177277869445 $228 $263 forward 7 unknown #
point $-1 -72.778099917600031 -11.843317540566526 -1.6572988208605519 #
edge $-1 $184 1.6572988208605519 $233 10.527389910669443 $229 $264 forward 7 unknown #
point $-1 -72.778099917600031 -29.877512267573231 -1.6572988208605519 #
straight-curve $-1 72.778099917600031 -29.877512267573231 0 0 0 -1 I I #
edge $-1 $246 64.42397510018013 $249 69.822410481053453 $190 $265 forward 7 unknown #
vertex $-1 $204 $266 #
straight-curve $-1 53.129246558287718 40.13664174378917 14.809095736299852 0 1 0 I I #
edge $-1 $249 -30.96224890650835 $201 -13.371746397050387 $200 $267 forward 7 unknown #
vertex $-1 $248 $268 #
straight-curve $-1 53.129246558287718 -15.220176801127181 48.613484205995988 0 -0.75470957328743171 0.6560590369687036 I I #
point $-1 53.129246558287718 23.667322889581285 14.809095736299845 #
point $-1 35.538744048829756 29.877512267573231 9.4106603554265362 #
straight-curve $-1 0 29.877512267573231 14.809095736299847 -1 0 0 I I #
vertex $-1 $207 $269 #
point $-1 45.333995303558737 24.220560758033049 9.1743026424328278 #
straight-curve $-1 -72.778099917600031 29.877512267573231 0 0 0 -1 I I #
point $-1 -72.778099917600031 -29.877512267573231 -14.809095736299847 #
straight-curve $-1 -72.778099917600031 0 -14.809095736299847 0 1 0 I I #
point $-1 -72.778099917600031 29.877512267573231 -14.809095736299847 #
straight-curve $-1 -72.778099917600031 -10.430207452034939 -10.527389910669443 0 -1 0 I I #
point $-1 -72.778099917600031 -29.877512267573231 -10.527389910669443 #
point $-1 -72.778099917600031 -11.843317540566526 -10.527389910669443 #
straight-curve $-1 -72.778099917600031 -11.843317540566526 -3.0461721828824988 0 0 -1 I I #
straight-curve $-1 -72.778099917600031 -29.877512267573231 0 0 0 -1 I I #
straight-curve $-1 53.129246558287718 29.877512267573231 79.233070836479982 0 0 -1 I I #
point $-1 53.129246558287718 29.877512267573231 14.809095736299847 #
straight-curve $-1 22.166997651779369 29.877512267573231 9.4106603554265327 -1 0 0 I I #
point $-1 53.129246558287718 29.877512267573231 9.4106603554265362 #
point $-1 44.333995303558737 23.564501721064342 8.419593069145396 #
End-of-ACIS-data 