500 0 8 0           
7 Unknown 11 ACIS 5.0 NT 24 Fri Mar 26 01:02:32 1999 
-1 9.9999999999999995e-007 1e-010 
body $-1 $8 $-1 $9 #
body $-1 $10 $-1 $11 #
body $-1 $12 $-1 $13 #
body $-1 $14 $-1 $15 #
body $-1 $16 $-1 $17 #
body $-1 $18 $-1 $19 #
body $-1 $20 $-1 $21 #
body $-1 $22 $-1 $23 #
lump $-1 $-1 $24 $0 #
transform $-1 1 0 0 0 1 0 0 0 1 64.868923001800596 32.990757999313516 15.214390767516903 1 rotate no_reflect no_shear #
lump $-1 $-1 $25 $1 #
transform $-1 1 0 0 0 1 0 0 0 1 64.868923001800596 32.990757999313516 15.214390767516903 1 rotate no_reflect no_shear #
lump $-1 $-1 $26 $2 #
transform $-1 1 0 0 0 1 0 0 0 1 64.868923001800596 32.990757999313516 15.214390767516903 1 rotate no_reflect no_shear #
lump $-1 $-1 $27 $3 #
transform $-1 1 0 0 0 1 0 0 0 1 64.868923001800596 32.990757999313516 15.214390767516903 1 rotate no_reflect no_shear #
lump $-1 $-1 $28 $4 #
transform $-1 1 0 0 0 1 0 0 0 1 64.868923001800596 32.990757999313516 15.214390767516903 1 rotate no_reflect no_shear #
lump $-1 $-1 $29 $5 #
transform $-1 1 0 0 0 1 0 0 0 1 64.868923001800596 32.990757999313516 15.214390767516903 1 rotate no_reflect no_shear #
lump $-1 $-1 $30 $6 #
transform $-1 1 0 0 0 1 0 0 0 1 64.868923001800596 32.990757999313516 15.214390767516903 1 rotate no_reflect no_shear #
lump $-1 $-1 $31 $7 #
transform $-1 1 0 0 0 1 0 0 0 1 64.868923001800596 32.990757999313516 15.214390767516903 1 rotate no_reflect no_shear #
shell $-1 $-1 $-1 $32 $-1 $8 #
shell $-1 $-1 $-1 $33 $-1 $10 #
shell $-1 $-1 $-1 $34 $-1 $12 #
shell $-1 $-1 $-1 $35 $-1 $14 #
shell $-1 $-1 $-1 $36 $-1 $16 #
shell $-1 $-1 $-1 $37 $-1 $18 #
shell $-1 $-1 $-1 $38 $-1 $20 #
shell $-1 $-1 $-1 $39 $-1 $22 #
face $-1 $40 $41 $24 $-1 $42 forward single #
face $-1 $43 $44 $25 $-1 $45 reversed single #
face $-1 $46 $47 $26 $-1 $48 forward single #
face $-1 $49 $50 $27 $-1 $51 forward single #
face $-1 $52 $53 $28 $-1 $54 reversed single #
face $-1 $55 $56 $29 $-1 $57 forward single #
face $-1 $58 $59 $30 $-1 $60 reversed single #
face $-1 $61 $62 $31 $-1 $63 forward single #
face $-1 $64 $65 $24 $-1 $66 reversed single #
loop $-1 $-1 $67 $32 #
plane-surface $-1 0 0 15.214390767516903 0 0 1 1 0 0 forward_v I I I I #
face $-1 $68 $69 $25 $-1 $70 reversed single #
loop $-1 $-1 $71 $33 #
plane-surface $-1 -38.258153349235414 -109.24875151866645 112.74270920065871 -1 0 0 0 -0.5877852598018023 0.80901698891910034 forward_v I I I I #
face $-1 $72 $73 $26 $-1 $74 forward single #
loop $-1 $75 $76 $34 #
cone-surface $-1 -57.265845958210541 -24.865847850529086 7.3550146574699777 0 0.5877852598018023 -0.80901698891910034 3 0 0 1 I I 0 1 3 forward I I I I #
face $-1 $77 $78 $27 $-1 $79 forward single #
loop $-1 $80 $81 $35 #
cone-surface $-1 -45.861230392825462 -24.865847850529086 7.3550146574699777 0 0.5877852598018023 -0.80901698891910034 3 0 0 1 I I 0 1 3 forward I I I I #
face $-1 $82 $83 $28 $-1 $84 reversed single #
loop $-1 $-1 $85 $36 #
plane-surface $-1 -50.084605113469976 96.895343023563541 131.88793295748272 1 0 0 0 -0.79863551827123203 -0.60181501223851219 forward_v I I I I #
face $-1 $86 $87 $29 $-1 $88 forward single #
loop $-1 $89 $90 $37 #
cone-surface $-1 -37.200995977532358 26.474136754891141 7.2571006339432778 0 -0.79863551827123203 -0.60181501223851219 1.5 0 0 1 I I 0 1 1.5 forward I I I I #
face $-1 $91 $92 $30 $-1 $93 reversed single #
loop $-1 $-1 $94 $38 #
plane-surface $-1 24.31738684159475 96.895343023563541 131.88793295748272 1 0 0 0 -0.79863551827123203 -0.60181501223851219 forward_v I I I I #
face $-1 $95 $96 $31 $-1 $97 forward single #
loop $-1 $98 $99 $39 #
cone-surface $-1 37.200995977532372 26.474136754891141 7.2571006339432778 0 -0.79863551827123203 -0.60181501223851219 1.5 0 0 1 I I 0 1 1.5 forward I I I I #
face $-1 $100 $101 $24 $-1 $102 reversed single #
loop $-1 $-1 $103 $40 #
plane-surface $-1 0 0 -15.214390767516903 0 0 1 1 0 0 forward_v I I I I #
coedge $-1 $104 $105 $106 $107 forward $41 $-1 #
face $-1 $108 $109 $25 $-1 $110 forward single #
loop $-1 $-1 $111 $43 #
plane-surface $-1 -51.563538175518005 -32.990757999313502 7.7825876779753429 0 -0.5877852598018023 0.80901698891910034 1 0 0 forward_v I I I I #
coedge $-1 $112 $113 $114 $115 reversed $44 $-1 #
face $-1 $-1 $116 $26 $-1 $117 forward single #
loop $-1 $118 $119 $46 #
cone-surface $-1 -57.265845958210541 -20.973759416683237 1.9980146088151827 0 0.5877852598018023 -0.80901698891910034 1.5 0 0 1 I I -0.70710678118654757 0.70710678118654757 1.5 forward I I I I #
loop $-1 $-1 $120 $34 #
coedge $-1 $76 $76 $121 $122 reversed $47 $-1 #
face $-1 $-1 $123 $27 $-1 $124 forward single #
loop $-1 $125 $126 $49 #
cone-surface $-1 -45.861230392825462 -20.973759416683237 1.9980146088151827 0 0.5877852598018023 -0.80901698891910034 1.5 0 0 1 I I -0.70710678118654757 0.70710678118654757 1.5 forward I I I I #
loop $-1 $-1 $127 $35 #
coedge $-1 $81 $81 $128 $129 reversed $50 $-1 #
face $-1 $130 $131 $28 $-1 $132 reversed single #
loop $-1 $-1 $133 $52 #
plane-surface $-1 -37.200995977532358 -6.7179088589157914 53.809749577027262 0 0.79863551827123203 0.60181501223851219 1 0 0 forward_v I I I I #
coedge $-1 $134 $135 $136 $137 reversed $53 $-1 #
face $-1 $-1 $138 $29 $-1 $139 forward single #
loop $-1 $140 $141 $55 #
cone-surface $-1 -37.200995977532358 24.671028241293101 5.8983609493781373 0 -0.79863551827123203 -0.60181501223851219 0.75 0 0 1 I I -0.70710678118654757 0.70710678118654757 0.75 forward I I I I #
loop $-1 $-1 $142 $37 #
coedge $-1 $90 $90 $143 $144 reversed $56 $-1 #
face $-1 $145 $146 $30 $-1 $147 reversed single #
loop $-1 $-1 $148 $58 #
plane-surface $-1 37.200995977532372 -6.7179088589157914 53.809749577027262 0 0.79863551827123203 0.60181501223851219 1 0 0 forward_v I I I I #
coedge $-1 $149 $150 $151 $152 reversed $59 $-1 #
face $-1 $-1 $153 $31 $-1 $154 forward single #
loop $-1 $155 $156 $61 #
cone-surface $-1 37.200995977532372 24.671028241293101 5.8983609493781373 0 -0.79863551827123203 -0.60181501223851219 0.75 0 0 1 I I -0.70710678118654757 0.70710678118654757 0.75 forward I I I I #
loop $-1 $-1 $157 $39 #
coedge $-1 $99 $99 $158 $159 reversed $62 $-1 #
face $-1 $160 $161 $24 $-1 $162 reversed single #
loop $-1 $-1 $163 $64 #
plane-surface $-1 0 -32.990757999313516 0 0 1 0 0 0 1 forward_v I I I I #
coedge $-1 $164 $165 $166 $167 forward $65 $-1 #
coedge $-1 $168 $67 $169 $170 forward $41 $-1 #
coedge $-1 $67 $168 $171 $172 forward $41 $-1 #
coedge $-1 $173 $174 $67 $107 reversed $175 $-1 #
edge $-1 $176 -32.990757999313516 $177 32.990757999313516 $106 $178 forward 7 unknown #
face $-1 $179 $180 $25 $-1 $181 reversed single #
loop $-1 $-1 $114 $68 #
plane-surface $-1 0 0 15.214390767516903 0 0 1 1 0 0 forward_v I I I I #
coedge $-1 $182 $183 $184 $185 reversed $69 $-1 #
coedge $-1 $113 $71 $186 $187 reversed $44 $-1 #
coedge $-1 $71 $112 $182 $188 reversed $44 $-1 #
coedge $-1 $184 $189 $71 $115 forward $109 $-1 #
edge $-1 $190 21.63361776001971 $191 31.862616969302287 $114 $192 forward 7 unknown #
loop $-1 $-1 $121 $72 #
plane-surface $-1 -51.563538175518005 -32.990757999313502 7.7825876779753429 0 -0.5877852598018023 0.80901698891910034 1 0 0 forward_v I I I I #
loop $-1 $-1 $193 $46 #
coedge $-1 $119 $119 $120 $194 reversed $73 $-1 #
coedge $-1 $120 $120 $119 $194 forward $75 $-1 #
coedge $-1 $121 $121 $76 $122 forward $116 $-1 #
edge $-1 $195 -2.6199099673990393e-016 $195 6.2831853071796004 $121 $196 forward 7 unknown #
loop $-1 $-1 $128 $77 #
plane-surface $-1 -51.563538175518005 -32.990757999313502 7.7825876779753429 0 -0.5877852598018023 0.80901698891910034 1 0 0 forward_v I I I I #
loop $-1 $-1 $197 $49 #
coedge $-1 $126 $126 $127 $198 reversed $78 $-1 #
coedge $-1 $127 $127 $126 $198 forward $80 $-1 #
coedge $-1 $128 $128 $81 $129 forward $123 $-1 #
edge $-1 $199 -2.6199099673990393e-016 $199 6.2831853071796004 $128 $200 forward 7 unknown #
face $-1 $201 $202 $28 $-1 $203 forward single #
loop $-1 $-1 $204 $82 #
plane-surface $-1 -24.317386841594736 96.895343023563541 131.88793295748272 -1 0 0 0 0.79863551827123203 0.60181501223851219 forward_v I I I I #
coedge $-1 $205 $206 $207 $208 reversed $83 $-1 #
coedge $-1 $135 $85 $209 $210 reversed $53 $-1 #
coedge $-1 $85 $134 $205 $211 reversed $53 $-1 #
coedge $-1 $207 $212 $85 $137 forward $202 $-1 #
edge $-1 $213 15.456913512468255 $214 26.081892251523755 $136 $215 forward 7 unknown #
loop $-1 $-1 $143 $86 #
plane-surface $-1 -37.200995977532358 -6.7179088589157914 53.809749577027262 0 0.79863551827123203 0.60181501223851219 1 0 0 forward_v I I I I #
loop $-1 $-1 $216 $55 #
coedge $-1 $141 $141 $142 $217 reversed $87 $-1 #
coedge $-1 $142 $142 $141 $217 forward $89 $-1 #
coedge $-1 $143 $143 $90 $144 forward $138 $-1 #
edge $-1 $218 1.4119390460799646e-015 $218 6.2831853071796022 $143 $219 forward 7 unknown #
face $-1 $220 $221 $30 $-1 $222 forward single #
loop $-1 $-1 $223 $91 #
plane-surface $-1 50.084605113469991 96.895343023563541 131.88793295748272 -1 0 0 0 0.79863551827123203 0.60181501223851219 forward_v I I I I #
coedge $-1 $224 $225 $226 $227 reversed $92 $-1 #
coedge $-1 $150 $94 $228 $229 reversed $59 $-1 #
coedge $-1 $94 $149 $224 $230 reversed $59 $-1 #
coedge $-1 $226 $231 $94 $152 forward $221 $-1 #
edge $-1 $232 15.456913512468255 $233 26.081892251523755 $151 $234 forward 7 unknown #
loop $-1 $-1 $158 $95 #
plane-surface $-1 37.200995977532372 -6.7179088589157914 53.809749577027262 0 0.79863551827123203 0.60181501223851219 1 0 0 forward_v I I I I #
loop $-1 $-1 $235 $61 #
coedge $-1 $156 $156 $157 $236 reversed $96 $-1 #
coedge $-1 $157 $157 $156 $236 forward $98 $-1 #
coedge $-1 $158 $158 $99 $159 forward $153 $-1 #
edge $-1 $237 1.4119390460799646e-015 $237 6.2831853071796022 $158 $238 forward 7 unknown #
face $-1 $239 $240 $24 $-1 $241 reversed single #
loop $-1 $-1 $242 $100 #
plane-surface $-1 -64.868923001800596 0 0 1 0 0 0 0 -1 forward_v I I I I #
coedge $-1 $243 $171 $244 $245 forward $101 $-1 #
coedge $-1 $246 $103 $243 $247 forward $65 $-1 #
coedge $-1 $103 $246 $248 $249 forward $65 $-1 #
coedge $-1 $174 $173 $103 $167 reversed $175 $-1 #
edge $-1 $250 -32.990757999313516 $251 32.990757999313516 $166 $252 forward 7 unknown #
coedge $-1 $105 $104 $253 $254 forward $41 $-1 #
coedge $-1 $255 $256 $104 $170 reversed $240 $-1 #
edge $-1 $177 -64.868923001800596 $257 64.868923001800596 $169 $258 forward 7 unknown #
coedge $-1 $163 $259 $105 $172 reversed $101 $-1 #
edge $-1 $260 -64.868923001800596 $176 64.868923001800596 $171 $261 forward 7 unknown #
coedge $-1 $166 $106 $259 $262 forward $175 $-1 #
coedge $-1 $106 $166 $255 $263 reversed $175 $-1 #
loop $-1 $-1 $173 $239 #
vertex $-1 $107 $264 #
vertex $-1 $107 $265 #
straight-curve $-1 64.868923001800596 0 15.214390767516903 0 1 0 I I #
face $-1 $-1 $266 $25 $-1 $267 reversed single #
loop $-1 $-1 $268 $108 #
plane-surface $-1 -64.868923001800596 0 0 1 0 0 0 0 -1 forward_v I I I I #
coedge $-1 $269 $111 $113 $188 forward $69 $-1 #
coedge $-1 $111 $269 $268 $270 reversed $69 $-1 #
coedge $-1 $271 $114 $111 $185 forward $109 $-1 #
edge $-1 $191 12.476384261476412 $272 39.087153914041593 $184 $273 forward 7 unknown #
coedge $-1 $274 $275 $112 $187 forward $266 $-1 #
edge $-1 $276 -48.588766922354026 $190 -41.156963832812451 $186 $277 forward 7 unknown #
edge $-1 $191 -12.643738449731661 $276 1.7761521089745031e-014 $113 $278 forward 7 unknown #
coedge $-1 $114 $271 $274 $279 forward $109 $-1 #
vertex $-1 $187 $280 #
vertex $-1 $115 $281 #
straight-curve $-1 -38.258153349235414 -54.624375759333226 15.214390767516903 0 1 0 I I #
coedge $-1 $193 $193 $-1 $282 reversed $118 $-1 #
edge $-1 $283 0 $283 6.2831853071796004 $119 $284 forward 7 unknown #
vertex $-1 $122 $285 #
ellipse-curve $-1 -57.265845958210541 -27.876258394672227 11.498489222746118 0 -0.5877852598018023 0.80901698891910034 3 0 0 1 I I #
coedge $-1 $197 $197 $-1 $286 reversed $125 $-1 #
edge $-1 $287 0 $287 6.2831853071796004 $126 $288 forward 7 unknown #
vertex $-1 $129 $289 #
ellipse-curve $-1 -45.861230392825462 -27.876258394672227 11.498489222746118 0 -0.5877852598018023 0.80901698891910034 3 0 0 1 I I #
face $-1 $-1 $290 $28 $-1 $291 reversed single #
loop $-1 $-1 $136 $130 #
plane-surface $-1 0 0 15.214390767516903 0 0 1 1 0 0 forward_v I I I I #
coedge $-1 $292 $293 $294 $295 reversed $131 $-1 #
coedge $-1 $296 $133 $135 $211 forward $83 $-1 #
coedge $-1 $133 $296 $292 $297 forward $83 $-1 #
coedge $-1 $294 $136 $133 $208 forward $202 $-1 #
edge $-1 $214 -31.484107124703797 $298 -5.7168888528285571 $207 $299 forward 7 unknown #
coedge $-1 $300 $301 $134 $210 forward $290 $-1 #
edge $-1 $302 -64.829399127599174 $213 -50.729575711224456 $209 $303 forward 7 unknown #
edge $-1 $214 48.326624507079124 $302 65.981515998627017 $135 $304 forward 7 unknown #
coedge $-1 $136 $294 $300 $305 forward $202 $-1 #
vertex $-1 $210 $306 #
vertex $-1 $137 $307 #
straight-curve $-1 -50.084605113469976 48.44767151178177 15.214390767516903 0 -1 0 I I #
coedge $-1 $216 $216 $-1 $308 reversed $140 $-1 #
edge $-1 $309 0 $309 6.2831853071796004 $141 $310 forward 7 unknown #
vertex $-1 $144 $311 #
ellipse-curve $-1 -37.200995977532358 27.678268629785766 8.1644790593295387 0 0.79863551827123203 0.60181501223851219 1.5 0 0 1 I I #
face $-1 $-1 $312 $30 $-1 $313 reversed single #
loop $-1 $-1 $151 $145 #
plane-surface $-1 0 0 15.214390767516903 0 0 1 1 0 0 forward_v I I I I #
coedge $-1 $314 $315 $316 $317 reversed $146 $-1 #
coedge $-1 $318 $148 $150 $230 forward $92 $-1 #
coedge $-1 $148 $318 $314 $319 forward $92 $-1 #
coedge $-1 $316 $151 $148 $227 forward $221 $-1 #
edge $-1 $233 5.7168888528285642 $320 31.484107124703804 $226 $321 forward 7 unknown #
coedge $-1 $322 $323 $149 $229 forward $312 $-1 #
edge $-1 $324 -64.829399127599174 $232 -50.729575711224456 $228 $325 forward 7 unknown #
edge $-1 $233 48.326624507079124 $324 65.981515998627017 $150 $326 forward 7 unknown #
coedge $-1 $151 $316 $322 $327 forward $221 $-1 #
vertex $-1 $152 $328 #
vertex $-1 $152 $329 #
straight-curve $-1 24.31738684159475 48.44767151178177 15.214390767516903 0 -1 0 I I #
coedge $-1 $235 $235 $-1 $330 reversed $155 $-1 #
edge $-1 $331 0 $331 6.2831853071796004 $156 $332 forward 7 unknown #
vertex $-1 $159 $333 #
ellipse-curve $-1 37.200995977532372 27.678268629785766 8.1644790593295387 0 0.79863551827123203 0.60181501223851219 1.5 0 0 1 I I #
face $-1 $-1 $175 $24 $-1 $334 reversed single #
loop $-1 $-1 $255 $160 #
plane-surface $-1 0 32.990757999313516 0 0 -1 0 0 0 -1 forward_v I I I I #
coedge $-1 $335 $253 $256 $336 forward $161 $-1 #
coedge $-1 $259 $163 $164 $247 reversed $101 $-1 #
coedge $-1 $253 $335 $163 $245 reversed $161 $-1 #
edge $-1 $260 -15.214390767516903 $337 15.214390767516903 $244 $338 forward 7 unknown #
coedge $-1 $165 $164 $335 $339 forward $65 $-1 #
edge $-1 $251 -64.868923001800596 $337 64.868923001800596 $243 $340 forward 7 unknown #
coedge $-1 $256 $255 $165 $249 reversed $240 $-1 #
edge $-1 $341 -64.868923001800596 $250 64.868923001800596 $248 $342 forward 7 unknown #
vertex $-1 $167 $343 #
vertex $-1 $262 $344 #
straight-curve $-1 64.868923001800596 0 -15.214390767516903 0 -1 0 I I #
coedge $-1 $242 $244 $168 $254 reversed $161 $-1 #
edge $-1 $257 -32.990757999313516 $260 32.990757999313516 $253 $345 forward 7 unknown #
coedge $-1 $248 $169 $174 $263 forward $240 $-1 #
coedge $-1 $169 $248 $242 $336 reversed $240 $-1 #
vertex $-1 $170 $346 #
straight-curve $-1 0 32.990757999313516 15.214390767516903 -1 0 0 I I #
coedge $-1 $171 $243 $173 $262 reversed $101 $-1 #
vertex $-1 $254 $347 #
straight-curve $-1 0 -32.990757999313516 15.214390767516903 1 0 0 I I #
edge $-1 $176 -15.214390767516903 $251 15.214390767516903 $173 $348 forward 7 unknown #
edge $-1 $177 -15.214390767516903 $250 15.214390767516903 $174 $349 forward 7 unknown #
point $-1 64.868923001800596 -32.990757999313516 15.214390767516903 #
point $-1 64.868923001800596 32.990757999313516 15.214390767516903 #
loop $-1 $-1 $186 $179 #
plane-surface $-1 0 -32.990757999313516 0 0 1 0 0 0 1 forward_v I I I I #
coedge $-1 $350 $351 $183 $270 forward $180 $-1 #
coedge $-1 $183 $182 $275 $352 reversed $69 $-1 #
edge $-1 $272 -1.5859417604645163 $353 11.057796689267162 $268 $354 forward 7 unknown #
coedge $-1 $189 $184 $351 $355 forward $109 $-1 #
vertex $-1 $355 $356 #
straight-curve $-1 -25.781769087759002 -22.761758790030939 15.214390767516903 -1 0 0 I I #
coedge $-1 $357 $186 $189 $279 reversed $266 $-1 #
coedge $-1 $186 $357 $269 $352 forward $266 $-1 #
vertex $-1 $187 $358 #
straight-curve $-1 -38.258153349235414 -32.990757999313516 56.371354600329354 0 0 1 I I #
straight-curve $-1 -38.258153349235414 -32.990757999313502 7.7825876779753429 0 -0.80901698891910034 -0.5877852598018023 I I #
edge $-1 $359 -64.868923001800596 $190 -38.258153349235414 $274 $360 forward 7 unknown #
point $-1 -38.258153349235414 -32.990757999313516 15.214390767516903 #
point $-1 -38.258153349235414 -22.761758790030939 15.214390767516903 #
edge $-1 $361 1 $361 0 $193 $-1 forward 7 unknown #
vertex $-1 $194 $362 #
ellipse-curve $-1 -57.265845958210541 -21.855437306385941 3.2115400921938333 0 -0.5877852598018023 0.80901698891910034 3 0 0 1 I I #
point $-1 -54.265845958210541 -27.876258394672231 11.498489222746121 #
edge $-1 $363 1 $363 0 $197 $-1 forward 7 unknown #
vertex $-1 $198 $364 #
ellipse-curve $-1 -45.861230392825462 -21.855437306385941 3.2115400921938333 0 -0.5877852598018023 0.80901698891910034 3 0 0 1 I I #
point $-1 -42.861230392825462 -27.876258394672231 11.498489222746121 #
loop $-1 $-1 $209 $201 #
plane-surface $-1 0 32.990757999313516 0 0 -1 0 0 0 -1 forward_v I I I I #
coedge $-1 $293 $204 $206 $297 reversed $131 $-1 #
coedge $-1 $204 $292 $365 $366 reversed $131 $-1 #
coedge $-1 $212 $207 $204 $295 forward $202 $-1 #
edge $-1 $298 -26.081892251523755 $367 -15.456913512468255 $294 $368 forward 7 unknown #
coedge $-1 $206 $205 $301 $369 reversed $83 $-1 #
edge $-1 $370 -65.981515998627017 $298 -48.326624507079124 $292 $371 forward 7 unknown #
vertex $-1 $208 $372 #
straight-curve $-1 -18.600497988766179 22.365779260258016 15.214390767516903 1 0 0 I I #
coedge $-1 $365 $209 $212 $305 reversed $290 $-1 #
coedge $-1 $209 $365 $296 $369 forward $290 $-1 #
vertex $-1 $210 $373 #
straight-curve $-1 -50.084605113469976 32.990757999313516 65.943966478741359 0 0 1 I I #
straight-curve $-1 -50.084605113469976 -6.7179088589157914 53.809749577027262 0 0.60181501223851219 -0.79863551827123203 I I #
edge $-1 $367 24.317386841594736 $213 50.084605113469976 $300 $374 forward 7 unknown #
point $-1 -50.084605113469976 32.990757999313516 15.214390767516903 #
point $-1 -50.084605113469976 22.365779260258016 15.214390767516903 #
edge $-1 $375 1 $375 0 $216 $-1 forward 7 unknown #
vertex $-1 $217 $376 #
ellipse-curve $-1 -37.200995977532358 25.270004879996524 6.3497222085570213 0 0.79863551827123203 0.60181501223851219 1.5 0 0 1 I I #
point $-1 -35.700995977532358 27.678268629785762 8.1644790593295333 #
loop $-1 $-1 $228 $220 #
plane-surface $-1 0 32.990757999313516 0 0 -1 0 0 0 -1 forward_v I I I I #
coedge $-1 $315 $223 $225 $319 reversed $146 $-1 #
coedge $-1 $223 $314 $377 $378 reversed $146 $-1 #
coedge $-1 $231 $226 $223 $317 forward $221 $-1 #
edge $-1 $320 -26.081892251523755 $379 -15.456913512468255 $316 $380 forward 7 unknown #
coedge $-1 $225 $224 $323 $381 reversed $92 $-1 #
edge $-1 $382 -65.981515998627017 $320 -48.326624507079124 $314 $383 forward 7 unknown #
vertex $-1 $227 $384 #
straight-curve $-1 18.600497988766186 22.365779260258016 15.214390767516903 1 0 0 I I #
coedge $-1 $377 $228 $231 $327 reversed $312 $-1 #
coedge $-1 $228 $377 $318 $381 forward $312 $-1 #
vertex $-1 $229 $385 #
straight-curve $-1 24.31738684159475 32.990757999313516 65.943966478741359 0 0 1 I I #
straight-curve $-1 24.31738684159475 -6.7179088589157914 53.809749577027262 0 0.60181501223851219 -0.79863551827123203 I I #
edge $-1 $379 -50.084605113469991 $232 -24.31738684159475 $322 $386 forward 7 unknown #
point $-1 24.31738684159475 32.990757999313516 15.214390767516903 #
point $-1 24.31738684159475 22.365779260258016 15.214390767516903 #
edge $-1 $387 1 $387 0 $235 $-1 forward 7 unknown #
vertex $-1 $236 $388 #
ellipse-curve $-1 37.200995977532372 25.270004879996524 6.3497222085570213 0 0.79863551827123203 0.60181501223851219 1.5 0 0 1 I I #
point $-1 38.700995977532372 27.678268629785762 8.1644790593295333 #
plane-surface $-1 64.868923001800596 0 0 -1 0 0 0 0 1 forward_v I I I I #
coedge $-1 $244 $242 $246 $339 reversed $161 $-1 #
edge $-1 $257 -15.214390767516903 $341 15.214390767516903 $256 $389 forward 7 unknown #
vertex $-1 $339 $390 #
straight-curve $-1 -64.868923001800596 -32.990757999313516 0 0 0 -1 I I #
edge $-1 $337 -32.990757999313516 $341 32.990757999313516 $335 $391 forward 7 unknown #
straight-curve $-1 0 -32.990757999313516 -15.214390767516903 -1 0 0 I I #
vertex $-1 $249 $392 #
straight-curve $-1 0 32.990757999313516 -15.214390767516903 1 0 0 I I #
point $-1 64.868923001800596 32.990757999313516 -15.214390767516903 #
point $-1 64.868923001800596 -32.990757999313516 -15.214390767516903 #
straight-curve $-1 -64.868923001800596 0 15.214390767516903 0 -1 0 I I #
point $-1 -64.868923001800596 32.990757999313516 15.214390767516903 #
point $-1 -64.868923001800596 -32.990757999313516 15.214390767516903 #
straight-curve $-1 64.868923001800596 -32.990757999313516 0 0 0 -1 I I #
straight-curve $-1 64.868923001800596 32.990757999313516 0 0 0 -1 I I #
coedge $-1 $351 $268 $357 $393 reversed $180 $-1 #
coedge $-1 $268 $350 $271 $355 reversed $180 $-1 #
edge $-1 $353 -39.087153914041593 $276 -12.476384261476412 $275 $394 forward 7 unknown #
vertex $-1 $270 $395 #
straight-curve $-1 -64.868923001800596 -24.044812617683 14.282197577811742 0 -0.80901698891910034 -0.5877852598018023 I I #
edge $-1 $272 22.761758790030939 $359 32.990757999313516 $351 $396 forward 7 unknown #
point $-1 -64.868923001800596 -22.761758790030939 15.214390767516903 #
coedge $-1 $275 $274 $350 $393 forward $266 $-1 #
point $-1 -38.258153349235414 -32.990757999313516 7.7825876779753322 #
vertex $-1 $355 $397 #
straight-curve $-1 0 -32.990757999313516 15.214390767516903 1 0 0 I I #
vertex $-1 $282 $398 #
point $-1 -54.265845958210541 -21.855437306385941 3.2115400921938333 #
vertex $-1 $286 $399 #
point $-1 -42.861230392825462 -21.855437306385941 3.2115400921938333 #
coedge $-1 $301 $300 $293 $366 forward $290 $-1 #
edge $-1 $367 50.729575711224456 $370 64.829399127599174 $365 $400 forward 7 unknown #
vertex $-1 $305 $401 #
straight-curve $-1 -24.317386841594736 48.44767151178177 15.214390767516903 0 1 0 I I #
edge $-1 $370 5.7168888528285571 $302 31.484107124703797 $301 $402 forward 7 unknown #
vertex $-1 $369 $403 #
straight-curve $-1 -24.317386841594736 -6.7179088589157914 53.809749577027262 0 -0.60181501223851219 0.79863551827123203 I I #
point $-1 -24.317386841594736 22.365779260258016 15.214390767516903 #
point $-1 -50.084605113469976 32.990757999313516 1.1145673511421847 #
straight-curve $-1 0 32.990757999313516 15.214390767516903 -1 0 0 I I #
vertex $-1 $308 $404 #
point $-1 -35.700995977532358 25.270004879996524 6.3497222085570213 #
coedge $-1 $323 $322 $315 $378 forward $312 $-1 #
edge $-1 $379 50.729575711224456 $382 64.829399127599174 $377 $405 forward 7 unknown #
vertex $-1 $327 $406 #
straight-curve $-1 50.084605113469991 48.44767151178177 15.214390767516903 0 1 0 I I #
edge $-1 $382 -31.484107124703804 $324 -5.7168888528285642 $323 $407 forward 7 unknown #
vertex $-1 $381 $408 #
straight-curve $-1 50.084605113469991 -6.7179088589157914 53.809749577027262 0 -0.60181501223851219 0.79863551827123203 I I #
point $-1 50.084605113469991 22.365779260258016 15.214390767516903 #
point $-1 24.31738684159475 32.990757999313516 1.1145673511421847 #
straight-curve $-1 0 32.990757999313516 15.214390767516903 -1 0 0 I I #
vertex $-1 $330 $409 #
point $-1 38.700995977532372 25.270004879996524 6.3497222085570213 #
straight-curve $-1 -64.868923001800596 32.990757999313516 0 0 0 -1 I I #
point $-1 -64.868923001800596 -32.990757999313516 -15.214390767516903 #
straight-curve $-1 -64.868923001800596 0 -15.214390767516903 0 1 0 I I #
point $-1 -64.868923001800596 32.990757999313516 -15.214390767516903 #
edge $-1 $359 -15.214390767516903 $353 -7.7825876779753322 $350 $410 forward 7 unknown #
straight-curve $-1 -25.781769087759002 -32.990757999313516 7.782587677975334 1 0 0 I I #
point $-1 -64.868923001800596 -32.990757999313516 7.7825876779753322 #
straight-curve $-1 -64.868923001800596 0 15.214390767516903 0 -1 0 I I #
point $-1 -64.868923001800596 -32.990757999313516 15.214390767516903 #
point $-1 -57.265845958210541 -20.092081526980532 0.78448912543653204 #
point $-1 -45.861230392825462 -20.092081526980532 0.78448912543653204 #
straight-curve $-1 -24.317386841594736 32.990757999313516 65.943966478741359 0 0 -1 I I #
point $-1 -24.317386841594736 32.990757999313516 15.214390767516903 #
straight-curve $-1 -18.600497988766179 32.990757999313516 1.1145673511421812 -1 0 0 I I #
point $-1 -24.317386841594736 32.990757999313516 1.1145673511421847 #
point $-1 -37.200995977532358 24.072051602589678 5.4469996901992532 #
straight-curve $-1 50.084605113469991 32.990757999313516 65.943966478741359 0 0 -1 I I #
point $-1 50.084605113469991 32.990757999313516 15.214390767516903 #
straight-curve $-1 18.600497988766186 32.990757999313516 1.1145673511421812 -1 0 0 I I #
point $-1 50.084605113469991 32.990757999313516 1.1145673511421847 #
point $-1 37.200995977532372 24.072051602589678 5.4469996901992532 #
straight-curve $-1 -64.868923001800596 -32.990757999313516 0 0 0 -1 I I #
End-of-ACIS-data 