500 0 7 0           
7 Unknown 11 ACIS 5.0 NT 24 Fri Mar 26 14:55:27 1999 
-1 9.9999999999999995e-007 1e-010 
body $-1 $7 $-1 $8 #
body $-1 $9 $-1 $10 #
body $-1 $11 $-1 $12 #
body $-1 $13 $-1 $14 #
body $-1 $15 $-1 $16 #
body $-1 $17 $-1 $18 #
body $-1 $19 $-1 $20 #
lump $-1 $-1 $21 $0 #
transform $-1 1 0 0 0 1 0 0 0 1 55.424054689168983 24.975753249590486 7.3497329846850876 1 rotate no_reflect no_shear #
lump $-1 $-1 $22 $1 #
transform $-1 1 0 0 0 1 0 0 0 1 55.424054689168983 24.975753249590486 7.3497329846850876 1 rotate no_reflect no_shear #
lump $-1 $-1 $23 $2 #
transform $-1 1 0 0 0 1 0 0 0 1 55.424054689168983 24.975753249590486 7.3497329846850876 1 rotate no_reflect no_shear #
lump $-1 $-1 $24 $3 #
transform $-1 1 0 0 0 1 0 0 0 1 55.424054689168983 24.975753249590486 7.3497329846850876 1 rotate no_reflect no_shear #
lump $-1 $-1 $25 $4 #
transform $-1 1 0 0 0 1 0 0 0 1 55.424054689168983 24.975753249590486 7.3497329846850876 1 rotate no_reflect no_shear #
lump $-1 $-1 $26 $5 #
transform $-1 1 0 0 0 1 0 0 0 1 55.424054689168983 24.975753249590486 7.3497329846850876 1 rotate no_reflect no_shear #
lump $-1 $-1 $27 $6 #
transform $-1 1 0 0 0 1 0 0 0 1 55.424054689168983 24.975753249590486 7.3497329846850876 1 rotate no_reflect no_shear #
shell $-1 $-1 $-1 $28 $-1 $7 #
shell $-1 $-1 $-1 $29 $-1 $9 #
shell $-1 $-1 $-1 $30 $-1 $11 #
shell $-1 $-1 $-1 $31 $-1 $13 #
shell $-1 $-1 $-1 $32 $-1 $15 #
shell $-1 $-1 $-1 $33 $-1 $17 #
shell $-1 $-1 $-1 $34 $-1 $19 #
face $-1 $35 $36 $21 $-1 $37 forward single #
face $-1 $38 $39 $22 $-1 $40 forward single #
face $-1 $41 $42 $23 $-1 $43 forward single #
face $-1 $44 $45 $24 $-1 $46 reversed single #
face $-1 $47 $48 $25 $-1 $49 forward single #
face $-1 $50 $51 $26 $-1 $52 reversed single #
face $-1 $53 $54 $27 $-1 $55 forward single #
face $-1 $56 $57 $21 $-1 $58 reversed single #
loop $-1 $-1 $59 $28 #
plane-surface $-1 0 0 7.3497329846850876 0 0 1 1 0 0 forward_v I I I I #
face $-1 $60 $61 $22 $-1 $62 reversed single #
loop $-1 $-1 $63 $29 #
plane-surface $-1 0 -24.975753249590486 0 0 1 0 0 0 1 forward_v I I I I #
face $-1 $64 $65 $23 $-1 $66 reversed single #
loop $-1 $-1 $67 $30 #
plane-surface $-1 0 24.975753249590486 0 0 -1 0 0 0 -1 forward_v I I I I #
face $-1 $68 $69 $24 $-1 $70 reversed single #
loop $-1 $-1 $71 $31 #
plane-surface $-1 -129.59591822328514 -9.3755171333888079 84.953222736865115 0 1 0 -0.66913061440640931 0 0.74314481823134659 forward_v I I I I #
face $-1 $72 $73 $25 $-1 $74 forward single #
loop $-1 $75 $76 $32 #
cone-surface $-1 -52.130656143161005 -5.8962259381260473 4.249161916779121 0.66913061440640931 0 -0.74314481823134659 0.74314481823134659 0 0.66913061440640931 1 I I 0 1 1 forward I I I I #
face $-1 $77 $78 $26 $-1 $79 reversed single #
loop $-1 $-1 $80 $33 #
plane-surface $-1 -129.59591822328514 2.4169347428632868 84.953222736865115 0 1 0 -0.66913061440640931 0 0.74314481823134659 forward_v I I I I #
face $-1 $81 $82 $27 $-1 $83 forward single #
loop $-1 $84 $85 $34 #
cone-surface $-1 -52.130656143161005 5.8962259381260473 4.249161916779121 0.66913061440640931 0 -0.74314481823134659 0.74314481823134659 0 0.66913061440640931 1 I I 0 1 1 forward I I I I #
face $-1 $86 $87 $21 $-1 $88 reversed single #
loop $-1 $-1 $89 $35 #
plane-surface $-1 0 0 -7.3497329846850876 0 0 1 1 0 0 forward_v I I I I #
coedge $-1 $90 $91 $92 $93 forward $36 $-1 #
face $-1 $94 $95 $22 $-1 $96 reversed single #
loop $-1 $-1 $97 $38 #
plane-surface $-1 0 0 -7.3497329846850876 0 0 1 1 0 0 forward_v I I I I #
coedge $-1 $98 $99 $100 $101 forward $39 $-1 #
face $-1 $102 $103 $23 $-1 $104 forward single #
loop $-1 $-1 $105 $41 #
plane-surface $-1 -55.424054689168983 0 0 1 0 0 0 0 -1 forward_v I I I I #
coedge $-1 $106 $107 $108 $109 forward $42 $-1 #
face $-1 $110 $111 $24 $-1 $112 reversed single #
loop $-1 $-1 $113 $44 #
plane-surface $-1 -55.424054689168997 -5.8962259381260473 2.5770246416117146 -0.66913061440640931 0 0.74314481823134659 0.74314481823134659 0 0.66913061440640931 forward_v I I I I #
coedge $-1 $114 $115 $116 $117 reversed $45 $-1 #
face $-1 $-1 $118 $25 $-1 $119 forward single #
loop $-1 $120 $121 $47 #
cone-surface $-1 -51.15300703995635 -5.8962259381260473 3.16337261129416 0.66913061440640931 0 -0.74314481823134659 0.3715724091156733 0 0.33456530720320465 1 I I -0.70710678118654746 0.70710678118654746 0.5 forward I I I I #
loop $-1 $-1 $122 $32 #
coedge $-1 $76 $76 $123 $124 reversed $48 $-1 #
face $-1 $125 $126 $26 $-1 $127 reversed single #
loop $-1 $-1 $128 $50 #
plane-surface $-1 -55.424054689168997 5.8962259381260473 2.5770246416117146 -0.66913061440640931 0 0.74314481823134659 0.74314481823134659 0 0.66913061440640931 forward_v I I I I #
coedge $-1 $129 $130 $131 $132 reversed $51 $-1 #
face $-1 $-1 $133 $27 $-1 $134 forward single #
loop $-1 $135 $136 $53 #
cone-surface $-1 -51.15300703995635 5.8962259381260473 3.16337261129416 0.66913061440640931 0 -0.74314481823134659 0.3715724091156733 0 0.33456530720320465 1 I I -0.70710678118654746 0.70710678118654746 0.5 forward I I I I #
loop $-1 $-1 $137 $34 #
coedge $-1 $85 $85 $138 $139 reversed $54 $-1 #
face $-1 $140 $141 $21 $-1 $142 reversed single #
loop $-1 $-1 $143 $56 #
plane-surface $-1 0 -24.975753249590486 0 0 1 0 0 0 1 forward_v I I I I #
coedge $-1 $144 $145 $146 $147 forward $57 $-1 #
coedge $-1 $148 $59 $149 $150 forward $36 $-1 #
coedge $-1 $59 $148 $151 $152 forward $36 $-1 #
coedge $-1 $153 $154 $59 $93 reversed $155 $-1 #
edge $-1 $156 -24.975753249590486 $157 24.975753249590486 $92 $158 forward 7 unknown #
face $-1 $159 $160 $22 $-1 $161 forward single #
loop $-1 $-1 $162 $60 #
plane-surface $-1 55.424054689168983 0 0 -1 0 0 0 0 1 forward_v I I I I #
coedge $-1 $163 $164 $165 $166 forward $61 $-1 #
coedge $-1 $165 $63 $162 $167 reversed $39 $-1 #
coedge $-1 $63 $165 $168 $169 reversed $39 $-1 #
coedge $-1 $170 $171 $63 $101 reversed $160 $-1 #
edge $-1 $172 -55.424054689168983 $173 55.424054689168983 $100 $174 forward 7 unknown #
face $-1 $175 $176 $23 $-1 $177 reversed single #
loop $-1 $-1 $178 $64 #
plane-surface $-1 0 29.279051407954395 -4.2670485673835037 0 0 1 1 0 0 forward_v I I I I #
coedge $-1 $179 $180 $106 $181 forward $65 $-1 #
coedge $-1 $182 $67 $105 $181 reversed $42 $-1 #
coedge $-1 $67 $182 $183 $184 reversed $42 $-1 #
coedge $-1 $178 $185 $67 $109 reversed $103 $-1 #
edge $-1 $186 -55.424054689168983 $187 55.424054689168983 $108 $188 forward 7 unknown #
face $-1 $189 $190 $24 $-1 $191 reversed single #
loop $-1 $-1 $192 $68 #
plane-surface $-1 -129.59591822328514 -2.4169347428632868 84.953222736865115 0 -1 0 0.66913061440640931 0 -0.74314481823134659 forward_v I I I I #
coedge $-1 $193 $194 $195 $196 reversed $69 $-1 #
coedge $-1 $115 $71 $197 $198 reversed $45 $-1 #
coedge $-1 $71 $114 $193 $199 reversed $45 $-1 #
coedge $-1 $195 $200 $71 $117 forward $201 $-1 #
edge $-1 $202 9.3739044224735864 $203 14.67453392248666 $116 $204 forward 7 unknown #
loop $-1 $-1 $123 $72 #
plane-surface $-1 -55.424054689168997 -5.8962259381260473 2.5770246416117146 -0.66913061440640931 0 0.74314481823134659 0.74314481823134659 0 0.66913061440640931 forward_v I I I I #
loop $-1 $-1 $205 $47 #
coedge $-1 $121 $121 $122 $206 reversed $73 $-1 #
coedge $-1 $122 $122 $121 $206 forward $75 $-1 #
coedge $-1 $123 $123 $76 $124 forward $118 $-1 #
edge $-1 $207 0 $207 6.2831853071796004 $123 $208 forward 7 unknown #
face $-1 $209 $210 $26 $-1 $211 forward single #
loop $-1 $-1 $212 $77 #
plane-surface $-1 -129.59591822328514 9.3755171333888079 84.953222736865115 0 -1 0 0.66913061440640931 0 -0.74314481823134659 forward_v I I I I #
coedge $-1 $213 $214 $215 $216 reversed $78 $-1 #
coedge $-1 $130 $80 $217 $218 reversed $51 $-1 #
coedge $-1 $80 $129 $213 $219 reversed $51 $-1 #
coedge $-1 $215 $220 $80 $132 forward $210 $-1 #
edge $-1 $221 9.3739044224735864 $222 14.67453392248666 $131 $223 forward 7 unknown #
loop $-1 $-1 $138 $81 #
plane-surface $-1 -55.424054689168997 5.8962259381260473 2.5770246416117146 -0.66913061440640931 0 0.74314481823134659 0.74314481823134659 0 0.66913061440640931 forward_v I I I I #
loop $-1 $-1 $224 $53 #
coedge $-1 $136 $136 $137 $225 reversed $82 $-1 #
coedge $-1 $137 $137 $136 $225 forward $84 $-1 #
coedge $-1 $138 $138 $85 $139 forward $133 $-1 #
edge $-1 $226 0 $226 6.2831853071796004 $138 $227 forward 7 unknown #
face $-1 $228 $229 $21 $-1 $230 reversed single #
loop $-1 $-1 $231 $86 #
plane-surface $-1 -55.424054689168983 0 0 1 0 0 0 0 -1 forward_v I I I I #
coedge $-1 $232 $151 $233 $234 forward $87 $-1 #
coedge $-1 $235 $89 $232 $236 forward $57 $-1 #
coedge $-1 $89 $235 $237 $238 forward $57 $-1 #
coedge $-1 $154 $153 $89 $147 reversed $155 $-1 #
edge $-1 $239 -24.975753249590486 $240 24.975753249590486 $146 $241 forward 7 unknown #
coedge $-1 $91 $90 $242 $243 forward $36 $-1 #
coedge $-1 $244 $245 $90 $150 reversed $229 $-1 #
edge $-1 $157 -55.424054689168983 $246 55.424054689168983 $149 $247 forward 7 unknown #
coedge $-1 $143 $248 $91 $152 reversed $87 $-1 #
edge $-1 $249 -55.424054689168983 $156 55.424054689168983 $151 $250 forward 7 unknown #
coedge $-1 $146 $92 $248 $251 forward $155 $-1 #
coedge $-1 $92 $146 $244 $252 reversed $155 $-1 #
loop $-1 $-1 $153 $228 #
vertex $-1 $93 $253 #
vertex $-1 $93 $254 #
straight-curve $-1 55.424054689168983 0 7.3497329846850876 0 1 0 I I #
face $-1 $255 $256 $22 $-1 $257 reversed single #
loop $-1 $-1 $171 $94 #
plane-surface $-1 0 -29.279051407954395 -4.2670485673835037 0 0 1 1 0 0 forward_v I I I I #
coedge $-1 $258 $259 $98 $167 forward $95 $-1 #
coedge $-1 $260 $97 $259 $261 forward $61 $-1 #
coedge $-1 $97 $260 $262 $263 forward $61 $-1 #
coedge $-1 $99 $98 $97 $166 reversed $39 $-1 #
edge $-1 $264 -55.424054689168983 $265 55.424054689168983 $97 $266 forward 7 unknown #
edge $-1 $265 -7.3497329846850876 $173 -4.2670485673835037 $162 $267 forward 7 unknown #
coedge $-1 $262 $268 $99 $169 forward $269 $-1 #
edge $-1 $172 4.2670485673835037 $264 7.3497329846850876 $168 $270 forward 7 unknown #
coedge $-1 $271 $100 $268 $272 forward $160 $-1 #
coedge $-1 $100 $271 $258 $273 forward $160 $-1 #
vertex $-1 $169 $274 #
vertex $-1 $273 $275 #
straight-curve $-1 0 -24.975753249590486 -4.2670485673835037 1 0 0 I I #
face $-1 $276 $277 $23 $-1 $278 reversed single #
loop $-1 $-1 $279 $102 #
plane-surface $-1 0 33.5823495663183 -5.8083907760342957 0 -1 0 0 0 -1 forward_v I I I I #
coedge $-1 $280 $108 $281 $282 forward $103 $-1 #
coedge $-1 $283 $105 $185 $284 reversed $65 $-1 #
coedge $-1 $105 $283 $285 $286 reversed $65 $-1 #
edge $-1 $287 -7.3497329846850876 $187 -4.2670485673835037 $105 $288 forward 7 unknown #
coedge $-1 $107 $106 $289 $290 reversed $42 $-1 #
coedge $-1 $291 $281 $107 $184 forward $292 $-1 #
edge $-1 $186 4.2670485673835037 $293 7.3497329846850876 $183 $294 forward 7 unknown #
coedge $-1 $108 $280 $179 $284 forward $103 $-1 #
vertex $-1 $184 $295 #
vertex $-1 $284 $296 #
straight-curve $-1 0 24.975753249590486 -4.2670485673835037 -1 0 0 I I #
face $-1 $-1 $201 $24 $-1 $297 forward single #
loop $-1 $-1 $298 $110 #
plane-surface $-1 -55.424054689168983 0 0 1 0 0 0 0 -1 forward_v I I I I #
coedge $-1 $299 $300 $301 $302 reversed $111 $-1 #
coedge $-1 $303 $113 $115 $199 forward $69 $-1 #
coedge $-1 $113 $303 $299 $304 forward $69 $-1 #
coedge $-1 $301 $116 $113 $196 forward $201 $-1 #
edge $-1 $203 -6.4274041643257842 $305 0.53117822619973687 $195 $306 forward 7 unknown #
coedge $-1 $307 $308 $114 $198 forward $190 $-1 #
edge $-1 $309 -39.899586726820829 $202 -35.126878383747467 $197 $310 forward 7 unknown #
edge $-1 $203 -7.1327006122822212 $309 -1.9178179933549516e-014 $115 $311 forward 7 unknown #
coedge $-1 $116 $301 $307 $312 forward $201 $-1 #
loop $-1 $-1 $301 $189 #
vertex $-1 $198 $313 #
vertex $-1 $117 $314 #
straight-curve $-1 -64.797959111642569 -9.3755171333888079 7.3497329846850903 1 0 0 I I #
coedge $-1 $205 $205 $-1 $315 reversed $120 $-1 #
edge $-1 $316 0 $316 6.2831853071796004 $121 $317 forward 7 unknown #
vertex $-1 $124 $318 #
ellipse-curve $-1 -52.773739939162454 -5.8962259381260473 4.963378813148406 -0.66913061440640931 0 0.74314481823134659 0.74314481823134659 0 0.66913061440640931 1 I I #
face $-1 $-1 $319 $26 $-1 $320 reversed single #
loop $-1 $-1 $131 $125 #
plane-surface $-1 0 0 7.3497329846850876 0 0 1 1 0 0 forward_v I I I I #
coedge $-1 $321 $322 $323 $324 reversed $126 $-1 #
coedge $-1 $325 $128 $130 $219 forward $78 $-1 #
coedge $-1 $128 $325 $321 $326 forward $78 $-1 #
coedge $-1 $323 $131 $128 $216 forward $210 $-1 #
edge $-1 $222 -0.53117822619973687 $327 6.4274041643257842 $215 $328 forward 7 unknown #
coedge $-1 $329 $330 $129 $218 forward $319 $-1 #
edge $-1 $331 -39.899586726820829 $221 -35.126878383747467 $217 $332 forward 7 unknown #
edge $-1 $222 -7.1327006122822212 $331 -1.9178179933549516e-014 $130 $333 forward 7 unknown #
coedge $-1 $131 $323 $329 $334 forward $210 $-1 #
vertex $-1 $132 $335 #
vertex $-1 $132 $336 #
straight-curve $-1 -64.797959111642569 2.4169347428632868 7.3497329846850903 1 0 0 I I #
coedge $-1 $224 $224 $-1 $337 reversed $135 $-1 #
edge $-1 $338 0 $338 6.2831853071796004 $136 $339 forward 7 unknown #
vertex $-1 $139 $340 #
ellipse-curve $-1 -52.773739939162454 5.8962259381260473 4.963378813148406 -0.66913061440640931 0 0.74314481823134659 0.74314481823134659 0 0.66913061440640931 1 I I #
face $-1 $-1 $155 $21 $-1 $341 reversed single #
loop $-1 $-1 $244 $140 #
plane-surface $-1 0 24.975753249590486 0 0 -1 0 0 0 -1 forward_v I I I I #
coedge $-1 $342 $242 $245 $343 forward $141 $-1 #
coedge $-1 $248 $143 $144 $236 reversed $87 $-1 #
coedge $-1 $242 $342 $143 $234 reversed $141 $-1 #
edge $-1 $249 -7.3497329846850876 $344 7.3497329846850876 $233 $345 forward 7 unknown #
coedge $-1 $145 $144 $342 $346 forward $57 $-1 #
edge $-1 $240 -55.424054689168983 $344 55.424054689168983 $232 $347 forward 7 unknown #
coedge $-1 $245 $244 $145 $238 reversed $229 $-1 #
edge $-1 $348 -55.424054689168983 $239 55.424054689168983 $237 $349 forward 7 unknown #
vertex $-1 $147 $350 #
vertex $-1 $251 $351 #
straight-curve $-1 55.424054689168983 0 -7.3497329846850876 0 -1 0 I I #
coedge $-1 $231 $233 $148 $243 reversed $141 $-1 #
edge $-1 $246 -24.975753249590486 $249 24.975753249590486 $242 $352 forward 7 unknown #
coedge $-1 $237 $149 $154 $252 forward $229 $-1 #
coedge $-1 $149 $237 $231 $343 reversed $229 $-1 #
vertex $-1 $150 $353 #
straight-curve $-1 0 24.975753249590486 7.3497329846850876 -1 0 0 I I #
coedge $-1 $151 $232 $153 $251 reversed $87 $-1 #
vertex $-1 $243 $354 #
straight-curve $-1 0 -24.975753249590486 7.3497329846850876 1 0 0 I I #
edge $-1 $156 -7.3497329846850876 $240 7.3497329846850876 $153 $355 forward 7 unknown #
edge $-1 $157 -7.3497329846850876 $239 7.3497329846850876 $154 $356 forward 7 unknown #
point $-1 55.424054689168983 -24.975753249590486 7.3497329846850876 #
point $-1 55.424054689168983 24.975753249590486 7.3497329846850876 #
face $-1 $-1 $269 $22 $-1 $357 reversed single #
loop $-1 $-1 $358 $159 #
plane-surface $-1 0 -33.5823495663183 -5.8083907760342957 0 1 0 0 0 1 forward_v I I I I #
coedge $-1 $359 $162 $171 $273 reversed $95 $-1 #
coedge $-1 $162 $359 $163 $261 reversed $95 $-1 #
coedge $-1 $164 $163 $360 $361 forward $61 $-1 #
edge $-1 $265 24.975753249590486 $362 33.5823495663183 $259 $363 forward 7 unknown #
coedge $-1 $364 $168 $164 $263 reversed $269 $-1 #
edge $-1 $365 -33.5823495663183 $264 -24.975753249590486 $262 $366 forward 7 unknown #
vertex $-1 $169 $367 #
vertex $-1 $261 $368 #
straight-curve $-1 0 -24.975753249590486 -7.3497329846850876 1 0 0 I I #
straight-curve $-1 55.424054689168983 -24.975753249590486 0 0 0 1 I I #
coedge $-1 $168 $364 $170 $272 reversed $269 $-1 #
loop $-1 $-1 $168 $255 #
straight-curve $-1 -55.424054689168983 -24.975753249590486 0 0 0 -1 I I #
coedge $-1 $171 $170 $369 $370 forward $160 $-1 #
edge $-1 $172 -4.3032981583639085 $371 4.3032981583639049 $268 $372 forward 7 unknown #
edge $-1 $373 -4.3032981583639049 $173 4.3032981583639085 $258 $374 forward 7 unknown #
point $-1 -55.424054689168983 -24.975753249590486 -4.2670485673835037 #
point $-1 55.424054689168983 -24.975753249590486 -4.2670485673835037 #
face $-1 $-1 $292 $23 $-1 $375 reversed single #
loop $-1 $-1 $289 $175 #
plane-surface $-1 0 0 -7.3497329846850876 0 0 1 1 0 0 forward_v I I I I #
coedge $-1 $376 $377 $378 $379 forward $176 $-1 #
coedge $-1 $185 $178 $377 $380 forward $103 $-1 #
coedge $-1 $183 $378 $178 $282 reversed $292 $-1 #
edge $-1 $186 -4.3032981583639085 $381 4.3032981583639049 $281 $382 forward 7 unknown #
coedge $-1 $180 $179 $383 $384 forward $65 $-1 #
edge $-1 $385 -4.3032981583639049 $187 4.3032981583639085 $179 $386 forward 7 unknown #
coedge $-1 $387 $289 $180 $286 forward $277 $-1 #
edge $-1 $287 -4.3032981583639085 $388 4.3032981583639049 $180 $389 forward 7 unknown #
vertex $-1 $286 $390 #
straight-curve $-1 -55.424054689168983 24.975753249590486 0 0 0 1 I I #
coedge $-1 $285 $391 $182 $290 forward $277 $-1 #
edge $-1 $293 -55.424054689168983 $287 55.424054689168983 $289 $392 forward 7 unknown #
coedge $-1 $378 $183 $391 $393 reversed $292 $-1 #
loop $-1 $-1 $183 $276 #
vertex $-1 $184 $394 #
straight-curve $-1 55.424054689168983 24.975753249590486 0 0 0 -1 I I #
point $-1 55.424054689168983 24.975753249590486 -4.2670485673835037 #
point $-1 -55.424054689168983 24.975753249590486 -4.2670485673835037 #
plane-surface $-1 0 0 7.3497329846850876 0 0 1 1 0 0 forward_v I I I I #
coedge $-1 $308 $307 $300 $395 forward $190 $-1 #
coedge $-1 $300 $192 $194 $304 reversed $111 $-1 #
coedge $-1 $192 $299 $298 $395 reversed $111 $-1 #
coedge $-1 $200 $195 $192 $302 forward $201 $-1 #
edge $-1 $305 -14.67453392248666 $396 -9.3739044224735864 $301 $397 forward 7 unknown #
coedge $-1 $194 $193 $308 $398 reversed $69 $-1 #
edge $-1 $399 1.9178179933549516e-014 $305 7.1327006122822212 $299 $400 forward 7 unknown #
vertex $-1 $196 $401 #
straight-curve $-1 -50.123425189155917 -2.9481129690630237 7.349732984685085 0 1 0 I I #
coedge $-1 $298 $197 $200 $312 reversed $190 $-1 #
coedge $-1 $197 $298 $303 $398 forward $190 $-1 #
vertex $-1 $198 $402 #
straight-curve $-1 -55.424054689168983 -9.3755171333888079 42.476611368432557 0 0 1 I I #
straight-curve $-1 -55.424054689168997 -9.3755171333888079 2.5770246416117146 -0.74314481823134659 0 -0.66913061440640931 I I #
edge $-1 $396 2.4169347428632868 $202 9.3755171333888079 $307 $403 forward 7 unknown #
point $-1 -55.424054689168983 -9.3755171333888079 7.3497329846850876 #
point $-1 -50.12342518915591 -9.3755171333888079 7.3497329846850876 #
edge $-1 $404 1 $404 0 $205 $-1 forward 7 unknown #
vertex $-1 $206 $405 #
ellipse-curve $-1 -51.487572347159556 -5.8962259381260473 3.5349450204098334 -0.66913061440640931 0 0.74314481823134659 0.74314481823134659 0 0.66913061440640931 1 I I #
point $-1 -52.030595120931103 -5.8962259381260473 5.632509427554818 #
loop $-1 $-1 $217 $209 #
plane-surface $-1 -55.424054689168983 0 0 1 0 0 0 0 -1 forward_v I I I I #
coedge $-1 $322 $212 $214 $326 reversed $126 $-1 #
coedge $-1 $212 $321 $406 $407 reversed $126 $-1 #
coedge $-1 $220 $215 $212 $324 forward $210 $-1 #
edge $-1 $327 -14.67453392248666 $408 -9.3739044224735864 $323 $409 forward 7 unknown #
coedge $-1 $214 $213 $330 $410 reversed $78 $-1 #
edge $-1 $411 1.9178179933549516e-014 $327 7.1327006122822212 $321 $412 forward 7 unknown #
vertex $-1 $216 $413 #
straight-curve $-1 -50.123425189155917 2.9481129690630237 7.349732984685085 0 1 0 I I #
coedge $-1 $406 $217 $220 $334 reversed $319 $-1 #
coedge $-1 $217 $406 $325 $410 forward $319 $-1 #
vertex $-1 $218 $414 #
straight-curve $-1 -55.424054689168983 2.4169347428632868 42.476611368432557 0 0 1 I I #
straight-curve $-1 -55.424054689168997 2.4169347428632868 2.5770246416117146 -0.74314481823134659 0 -0.66913061440640931 I I #
edge $-1 $408 -9.3755171333888079 $221 -2.4169347428632868 $329 $415 forward 7 unknown #
point $-1 -55.424054689168983 2.4169347428632868 7.3497329846850876 #
point $-1 -50.12342518915591 2.4169347428632868 7.3497329846850876 #
edge $-1 $416 1 $416 0 $224 $-1 forward 7 unknown #
vertex $-1 $225 $417 #
ellipse-curve $-1 -51.487572347159556 5.8962259381260473 3.5349450204098334 -0.66913061440640931 0 0.74314481823134659 0.74314481823134659 0 0.66913061440640931 1 I I #
point $-1 -52.030595120931103 5.8962259381260473 5.632509427554818 #
plane-surface $-1 55.424054689168983 0 0 -1 0 0 0 0 1 forward_v I I I I #
coedge $-1 $233 $231 $235 $346 reversed $141 $-1 #
edge $-1 $246 -7.3497329846850876 $348 7.3497329846850876 $245 $418 forward 7 unknown #
vertex $-1 $346 $419 #
straight-curve $-1 -55.424054689168983 -24.975753249590486 0 0 0 -1 I I #
edge $-1 $344 -24.975753249590486 $348 24.975753249590486 $342 $420 forward 7 unknown #
straight-curve $-1 0 -24.975753249590486 -7.3497329846850876 -1 0 0 I I #
vertex $-1 $238 $421 #
straight-curve $-1 0 24.975753249590486 -7.3497329846850876 1 0 0 I I #
point $-1 55.424054689168983 24.975753249590486 -7.3497329846850876 #
point $-1 55.424054689168983 -24.975753249590486 -7.3497329846850876 #
straight-curve $-1 -55.424054689168983 0 7.3497329846850876 0 -1 0 I I #
point $-1 -55.424054689168983 24.975753249590486 7.3497329846850876 #
point $-1 -55.424054689168983 -24.975753249590486 7.3497329846850876 #
straight-curve $-1 55.424054689168983 -24.975753249590486 0 0 0 -1 I I #
straight-curve $-1 55.424054689168983 24.975753249590486 0 0 0 -1 I I #
plane-surface $-1 -55.424054689168983 0 0 1 0 0 0 0 -1 forward_v I I I I #
coedge $-1 $360 $369 $364 $422 forward $256 $-1 #
coedge $-1 $259 $258 $423 $424 forward $95 $-1 #
coedge $-1 $423 $358 $260 $361 reversed $256 $-1 #
edge $-1 $362 -55.424054689168983 $365 55.424054689168983 $360 $425 forward 7 unknown #
vertex $-1 $424 $426 #
straight-curve $-1 55.424054689168983 0 -7.3497329846850876 0 -1 0 I I #
coedge $-1 $268 $262 $358 $422 reversed $269 $-1 #
vertex $-1 $263 $427 #
straight-curve $-1 -55.424054689168983 0 -7.3497329846850876 0 1 0 I I #
point $-1 -55.424054689168983 -24.975753249590486 -7.3497329846850876 #
point $-1 55.424054689168983 -24.975753249590486 -7.3497329846850876 #
coedge $-1 $358 $423 $271 $370 reversed $256 $-1 #
edge $-1 $371 -55.424054689168983 $373 55.424054689168983 $369 $428 forward 7 unknown #
vertex $-1 $272 $429 #
straight-curve $-1 -55.424054689168983 -29.279051407954395 -4.2670485673835037 0 -1 0 I I #
vertex $-1 $273 $430 #
straight-curve $-1 55.424054689168983 -29.279051407954395 -4.2670485673835037 0 1 0 I I #
plane-surface $-1 55.424054689168983 0 0 -1 0 0 0 0 1 forward_v I I I I #
coedge $-1 $383 $279 $387 $431 reversed $176 $-1 #
coedge $-1 $279 $383 $280 $380 reversed $176 $-1 #
coedge $-1 $281 $291 $279 $379 reversed $292 $-1 #
edge $-1 $381 -1.541342208650792 $432 1.541342208650792 $378 $433 forward 7 unknown #
edge $-1 $381 -55.424054689168983 $385 55.424054689168983 $377 $434 forward 7 unknown #
vertex $-1 $282 $435 #
straight-curve $-1 55.424054689168983 29.279051407954395 -4.2670485673835037 0 1 0 I I #
coedge $-1 $377 $376 $283 $384 reversed $176 $-1 #
edge $-1 $385 -1.541342208650792 $388 1.541342208650792 $383 $436 forward 7 unknown #
vertex $-1 $380 $437 #
straight-curve $-1 -55.424054689168983 29.279051407954395 -4.2670485673835037 0 -1 0 I I #
coedge $-1 $391 $285 $376 $431 forward $277 $-1 #
vertex $-1 $431 $438 #
straight-curve $-1 -55.424054689168983 29.279051407954395 -7.3497329846850876 0 1 0 I I #
point $-1 -55.424054689168983 24.975753249590486 -7.3497329846850876 #
coedge $-1 $289 $387 $291 $393 forward $277 $-1 #
straight-curve $-1 0 24.975753249590486 -7.3497329846850876 -1 0 0 I I #
edge $-1 $432 -33.5823495663183 $293 -24.975753249590486 $291 $439 forward 7 unknown #
point $-1 55.424054689168983 24.975753249590486 -7.3497329846850876 #
edge $-1 $396 35.126878383747467 $399 39.899586726820829 $298 $440 forward 7 unknown #
vertex $-1 $312 $441 #
straight-curve $-1 -64.797959111642569 -2.4169347428632868 7.3497329846850903 -1 0 0 I I #
edge $-1 $399 -0.53117822619973687 $309 6.4274041643257842 $308 $442 forward 7 unknown #
vertex $-1 $398 $443 #
straight-curve $-1 -55.424054689168997 -2.4169347428632868 2.5770246416117146 0.74314481823134659 0 0.66913061440640931 I I #
point $-1 -50.12342518915591 -2.4169347428632868 7.3497329846850876 #
point $-1 -55.424054689168983 -9.3755171333888079 2.5770246416117275 #
straight-curve $-1 -55.424054689168983 0 7.3497329846850876 0 -1 0 I I #
vertex $-1 $315 $444 #
point $-1 -50.744427528928206 -5.8962259381260473 4.2040756348162427 #
coedge $-1 $330 $329 $322 $407 forward $319 $-1 #
edge $-1 $408 35.126878383747467 $411 39.899586726820829 $406 $445 forward 7 unknown #
vertex $-1 $334 $446 #
straight-curve $-1 -64.797959111642569 9.3755171333888079 7.3497329846850903 -1 0 0 I I #
edge $-1 $411 -6.4274041643257842 $331 0.53117822619973687 $330 $447 forward 7 unknown #
vertex $-1 $410 $448 #
straight-curve $-1 -55.424054689168997 9.3755171333888079 2.5770246416117146 0.74314481823134659 0 0.66913061440640931 I I #
point $-1 -50.12342518915591 9.3755171333888079 7.3497329846850876 #
point $-1 -55.424054689168983 2.4169347428632868 2.5770246416117275 #
straight-curve $-1 -55.424054689168983 0 7.3497329846850876 0 -1 0 I I #
vertex $-1 $337 $449 #
point $-1 -50.744427528928206 5.8962259381260473 4.2040756348162427 #
straight-curve $-1 -55.424054689168983 24.975753249590486 0 0 0 -1 I I #
point $-1 -55.424054689168983 -24.975753249590486 -7.3497329846850876 #
straight-curve $-1 -55.424054689168983 0 -7.3497329846850876 0 1 0 I I #
point $-1 -55.424054689168983 24.975753249590486 -7.3497329846850876 #
edge $-1 $371 -1.541342208650792 $365 1.541342208650792 $364 $450 forward 7 unknown #
coedge $-1 $369 $360 $359 $424 reversed $256 $-1 #
edge $-1 $373 -1.541342208650792 $362 1.541342208650792 $359 $451 forward 7 unknown #
straight-curve $-1 0 -33.5823495663183 -7.3497329846850876 -1 0 0 I I #
point $-1 55.424054689168983 -33.5823495663183 -7.3497329846850876 #
point $-1 -55.424054689168983 -33.5823495663183 -7.3497329846850876 #
straight-curve $-1 0 -33.5823495663183 -4.2670485673835037 1 0 0 I I #
point $-1 -55.424054689168983 -33.5823495663183 -4.2670485673835037 #
point $-1 55.424054689168983 -33.5823495663183 -4.2670485673835037 #
edge $-1 $388 -55.424054689168983 $432 55.424054689168983 $376 $452 forward 7 unknown #
vertex $-1 $393 $453 #
straight-curve $-1 55.424054689168983 33.5823495663183 -5.8083907760342957 0 0 -1 I I #
straight-curve $-1 0 33.5823495663183 -4.2670485673835037 -1 0 0 I I #
point $-1 55.424054689168983 33.5823495663183 -4.2670485673835037 #
straight-curve $-1 -55.424054689168983 33.5823495663183 -5.8083907760342957 0 0 -1 I I #
point $-1 -55.424054689168983 33.5823495663183 -4.2670485673835037 #
point $-1 -55.424054689168983 33.5823495663183 -7.3497329846850876 #
straight-curve $-1 55.424054689168983 0 -7.3497329846850876 0 -1 0 I I #
straight-curve $-1 -55.424054689168983 -2.4169347428632868 42.476611368432557 0 0 -1 I I #
point $-1 -55.424054689168983 -2.4169347428632868 7.3497329846850876 #
straight-curve $-1 -55.424054689168983 -2.9481129690630237 2.5770246416117253 0 -1 0 I I #
point $-1 -55.424054689168983 -2.4169347428632868 2.5770246416117275 #
point $-1 -50.818441732753143 -5.8962259381260473 2.7918002021784867 #
straight-curve $-1 -55.424054689168983 9.3755171333888079 42.476611368432557 0 0 -1 I I #
point $-1 -55.424054689168983 9.3755171333888079 7.3497329846850876 #
straight-curve $-1 -55.424054689168983 2.9481129690630237 2.5770246416117253 0 -1 0 I I #
point $-1 -55.424054689168983 9.3755171333888079 2.5770246416117275 #
point $-1 -50.818441732753143 5.8962259381260473 2.7918002021784867 #
straight-curve $-1 -55.424054689168983 -33.5823495663183 -5.8083907760342957 0 0 -1 I I #
straight-curve $-1 55.424054689168983 -33.5823495663183 -5.8083907760342957 0 0 -1 I I #
straight-curve $-1 0 33.5823495663183 -7.3497329846850876 1 0 0 I I #
point $-1 55.424054689168983 33.5823495663183 -7.3497329846850876 #
End-of-ACIS-data 