500 0 7 0           
7 Unknown 11 ACIS 5.0 NT 24 Fri Mar 26 02:34:37 1999 
-1 9.9999999999999995e-007 1e-010 
body $-1 $7 $-1 $8 #
body $-1 $9 $-1 $10 #
body $-1 $11 $-1 $12 #
body $-1 $13 $-1 $14 #
body $-1 $15 $-1 $16 #
body $-1 $17 $-1 $18 #
body $-1 $19 $-1 $20 #
lump $-1 $-1 $21 $0 #
transform $-1 1 0 0 0 1 0 0 0 1 48.830835901974545 21.017511858269231 4.2814352825330761 1 rotate no_reflect no_shear #
lump $-1 $-1 $22 $1 #
transform $-1 1 0 0 0 1 0 0 0 1 48.830835901974545 21.017511858269231 4.2814352825330761 1 rotate no_reflect no_shear #
lump $-1 $-1 $23 $2 #
transform $-1 1 0 0 0 1 0 0 0 1 48.830835901974545 21.017511858269231 4.2814352825330761 1 rotate no_reflect no_shear #
lump $-1 $-1 $24 $3 #
transform $-1 1 0 0 0 1 0 0 0 1 48.830835901974545 21.017511858269231 4.2814352825330761 1 rotate no_reflect no_shear #
lump $-1 $-1 $25 $4 #
transform $-1 1 0 0 0 1 0 0 0 1 48.830835901974545 21.017511858269231 4.2814352825330761 1 rotate no_reflect no_shear #
lump $-1 $-1 $26 $5 #
transform $-1 1 0 0 0 1 0 0 0 1 48.830835901974545 21.017511858269231 4.2814352825330761 1 rotate no_reflect no_shear #
lump $-1 $-1 $27 $6 #
transform $-1 1 0 0 0 1 0 0 0 1 48.830835901974545 21.017511858269231 4.2814352825330761 1 rotate no_reflect no_shear #
shell $-1 $-1 $-1 $28 $-1 $7 #
shell $-1 $-1 $-1 $29 $-1 $9 #
shell $-1 $-1 $-1 $30 $-1 $11 #
shell $-1 $-1 $-1 $31 $-1 $13 #
shell $-1 $-1 $-1 $32 $-1 $15 #
shell $-1 $-1 $-1 $33 $-1 $17 #
shell $-1 $-1 $-1 $34 $-1 $19 #
face $-1 $35 $36 $21 $-1 $37 forward single #
face $-1 $38 $39 $22 $-1 $40 reversed single #
face $-1 $41 $42 $23 $-1 $43 forward single #
face $-1 $44 $45 $24 $-1 $46 forward single #
face $-1 $47 $48 $25 $-1 $49 reversed single #
face $-1 $50 $51 $26 $-1 $52 forward single #
face $-1 $53 $54 $27 $-1 $55 forward single #
face $-1 $56 $57 $21 $-1 $58 reversed single #
loop $-1 $-1 $59 $28 #
plane-surface $-1 0 0 4.2814352825330761 0 0 1 1 0 0 forward_v I I I I #
face $-1 $60 $61 $22 $-1 $62 reversed single #
loop $-1 $-1 $63 $29 #
plane-surface $-1 -103.44255042560306 -10.972164750837706 81.722237729853887 0 -1 0 0.55919291073839883 0 -0.82903756765294845 forward_v I I I I #
face $-1 $64 $65 $23 $-1 $66 forward single #
loop $-1 $67 $68 $30 #
cone-surface $-1 -45.511537932627206 -18.147412684717366 1.4714617993893426 0.55919291073839883 0 -0.82903756765294845 0.82903756765294845 0 0.55919291073839883 1 I I 0 1 1 forward I I I I #
face $-1 $69 $70 $24 $-1 $71 forward single #
loop $-1 $72 $73 $31 #
cone-surface $-1 -45.511537932627206 -13.84226392438957 1.4714617993893426 0.55919291073839883 0 -0.82903756765294845 0.82903756765294845 0 0.55919291073839883 1 I I 0 1 1 forward I I I I #
face $-1 $74 $75 $25 $-1 $76 reversed single #
loop $-1 $-1 $77 $32 #
plane-surface $-1 -32.13435894329195 -15.994838304553468 55.368757408215913 0.55919291073839883 0 0.82903756765294845 0.82903756765294845 0 -0.55919291073839883 forward_v I I I I #
face $-1 $78 $79 $26 $-1 $80 forward single #
loop $-1 $81 $82 $33 #
cone-surface $-1 45.511537932627199 -18.147412684717366 1.4714617993893488 -0.55919291073839883 0 -0.82903756765294845 0.82903756765294845 0 -0.55919291073839883 1 I I 0 1 1 forward I I I I #
face $-1 $83 $84 $27 $-1 $85 forward single #
loop $-1 $86 $87 $34 #
cone-surface $-1 45.511537932627199 -13.84226392438957 1.4714617993893488 -0.55919291073839883 0 -0.82903756765294845 0.82903756765294845 0 -0.55919291073839883 1 I I 0 1 1 forward I I I I #
face $-1 $88 $89 $21 $-1 $90 reversed single #
loop $-1 $-1 $91 $35 #
plane-surface $-1 0 0 -4.2814352825330761 0 0 1 1 0 0 forward_v I I I I #
coedge $-1 $92 $93 $94 $95 forward $36 $-1 #
face $-1 $96 $97 $22 $-1 $98 forward single #
loop $-1 $-1 $99 $38 #
plane-surface $-1 -48.830835901974552 -15.994838304553468 0.757042884587392 -0.55919291073839883 0 0.82903756765294845 0.82903756765294845 0 0.55919291073839883 forward_v I I I I #
coedge $-1 $100 $101 $102 $103 reversed $39 $-1 #
face $-1 $-1 $104 $23 $-1 $105 forward single #
loop $-1 $106 $107 $41 #
cone-surface $-1 -44.525206761966587 -18.147412684717366 0.0091657313919730754 0.55919291073839883 0 -0.82903756765294845 0.41451878382647422 0 0.27959645536919941 1 I I -0.70710678118654746 0.70710678118654746 0.5 forward I I I I #
loop $-1 $-1 $108 $30 #
coedge $-1 $68 $68 $109 $110 reversed $42 $-1 #
face $-1 $-1 $111 $24 $-1 $112 forward single #
loop $-1 $113 $114 $44 #
cone-surface $-1 -44.525206761966587 -13.84226392438957 0.0091657313919730754 0.55919291073839883 0 -0.82903756765294845 0.41451878382647422 0 0.27959645536919941 1 I I -0.70710678118654746 0.70710678118654746 0.5 forward I I I I #
loop $-1 $-1 $115 $31 #
coedge $-1 $73 $73 $116 $117 reversed $45 $-1 #
face $-1 $118 $119 $25 $-1 $120 forward single #
loop $-1 $-1 $121 $47 #
plane-surface $-1 22.477355580336557 -10.972164750837706 136.33395225348241 0 -1 0 -0.55919291073839883 0 -0.82903756765294845 forward_v I I I I #
coedge $-1 $122 $123 $124 $125 reversed $48 $-1 #
face $-1 $-1 $126 $26 $-1 $127 forward single #
loop $-1 $128 $129 $50 #
cone-surface $-1 44.525206761966579 -18.147412684717366 0.0091657313919792927 -0.55919291073839883 0 -0.82903756765294845 0.41451878382647422 0 -0.27959645536919941 1 I I -0.70710678118654746 0.70710678118654746 0.5 forward I I I I #
loop $-1 $-1 $130 $33 #
coedge $-1 $82 $82 $131 $132 reversed $51 $-1 #
face $-1 $-1 $133 $27 $-1 $134 forward single #
loop $-1 $135 $136 $53 #
cone-surface $-1 44.525206761966579 -13.84226392438957 0.0091657313919792927 -0.55919291073839883 0 -0.82903756765294845 0.41451878382647422 0 -0.27959645536919941 1 I I -0.70710678118654746 0.70710678118654746 0.5 forward I I I I #
loop $-1 $-1 $137 $34 #
coedge $-1 $87 $87 $138 $139 reversed $54 $-1 #
face $-1 $140 $141 $21 $-1 $142 reversed single #
loop $-1 $-1 $143 $56 #
plane-surface $-1 0 -21.017511858269231 0 0 1 0 0 0 1 forward_v I I I I #
coedge $-1 $144 $145 $146 $147 forward $57 $-1 #
coedge $-1 $148 $59 $149 $150 forward $36 $-1 #
coedge $-1 $59 $148 $151 $152 forward $36 $-1 #
coedge $-1 $153 $154 $59 $95 reversed $155 $-1 #
edge $-1 $156 -21.017511858269231 $157 21.017511858269231 $94 $158 forward 7 unknown #
face $-1 $159 $160 $22 $-1 $161 reversed single #
loop $-1 $-1 $162 $60 #
plane-surface $-1 0 0 4.2814352825330761 0 0 1 1 0 0 forward_v I I I I #
coedge $-1 $163 $164 $165 $166 reversed $61 $-1 #
coedge $-1 $101 $63 $167 $168 reversed $39 $-1 #
coedge $-1 $63 $100 $163 $169 reversed $39 $-1 #
coedge $-1 $165 $170 $63 $103 forward $160 $-1 #
edge $-1 $171 36.579683582393869 $172 40.104075980339545 $102 $173 forward 7 unknown #
loop $-1 $-1 $109 $64 #
plane-surface $-1 -48.830835901974552 -15.994838304553468 0.757042884587392 -0.55919291073839883 0 0.82903756765294845 0.82903756765294845 0 0.55919291073839883 forward_v I I I I #
loop $-1 $-1 $174 $41 #
coedge $-1 $107 $107 $108 $175 reversed $65 $-1 #
coedge $-1 $108 $108 $107 $175 forward $67 $-1 #
coedge $-1 $109 $109 $68 $110 forward $104 $-1 #
edge $-1 $176 0 $176 6.2831853071796004 $109 $177 forward 7 unknown #
loop $-1 $-1 $116 $69 #
plane-surface $-1 -48.830835901974552 -15.994838304553468 0.757042884587392 -0.55919291073839883 0 0.82903756765294845 0.82903756765294845 0 0.55919291073839883 forward_v I I I I #
loop $-1 $-1 $178 $44 #
coedge $-1 $114 $114 $115 $179 reversed $70 $-1 #
coedge $-1 $115 $115 $114 $179 forward $72 $-1 #
coedge $-1 $116 $116 $73 $117 forward $111 $-1 #
edge $-1 $180 0 $180 6.2831853071796004 $116 $181 forward 7 unknown #
face $-1 $182 $183 $25 $-1 $184 reversed single #
loop $-1 $-1 $185 $74 #
plane-surface $-1 0 0 4.2814352825330761 0 0 1 1 0 0 forward_v I I I I #
coedge $-1 $186 $187 $188 $189 reversed $75 $-1 #
coedge $-1 $190 $77 $191 $192 reversed $48 $-1 #
coedge $-1 $77 $190 $186 $193 forward $48 $-1 #
coedge $-1 $188 $194 $77 $125 forward $195 $-1 #
edge $-1 $196 -13.020092705992496 $197 -2.9747455985609719 $124 $198 forward 7 unknown #
loop $-1 $-1 $131 $78 #
plane-surface $-1 -32.13435894329195 -15.994838304553468 55.368757408215913 0.55919291073839883 0 0.82903756765294845 0.82903756765294845 0 -0.55919291073839883 forward_v I I I I #
loop $-1 $-1 $199 $50 #
coedge $-1 $129 $129 $130 $200 reversed $79 $-1 #
coedge $-1 $130 $130 $129 $200 forward $81 $-1 #
coedge $-1 $131 $131 $82 $132 forward $126 $-1 #
edge $-1 $201 0 $201 6.2831853071796004 $131 $202 forward 7 unknown #
loop $-1 $-1 $138 $83 #
plane-surface $-1 -32.13435894329195 -15.994838304553468 55.368757408215913 0.55919291073839883 0 0.82903756765294845 0.82903756765294845 0 -0.55919291073839883 forward_v I I I I #
loop $-1 $-1 $203 $53 #
coedge $-1 $136 $136 $137 $204 reversed $84 $-1 #
coedge $-1 $137 $137 $136 $204 forward $86 $-1 #
coedge $-1 $138 $138 $87 $139 forward $133 $-1 #
edge $-1 $205 0 $205 6.2831853071796004 $138 $206 forward 7 unknown #
face $-1 $207 $208 $21 $-1 $209 reversed single #
loop $-1 $-1 $210 $88 #
plane-surface $-1 -48.830835901974545 0 0 1 0 0 0 0 -1 forward_v I I I I #
coedge $-1 $211 $151 $212 $213 forward $89 $-1 #
coedge $-1 $214 $91 $211 $215 forward $57 $-1 #
coedge $-1 $91 $214 $216 $217 forward $57 $-1 #
coedge $-1 $154 $153 $91 $147 reversed $155 $-1 #
edge $-1 $218 -21.017511858269231 $219 21.017511858269231 $146 $220 forward 7 unknown #
coedge $-1 $93 $92 $221 $222 forward $36 $-1 #
coedge $-1 $223 $224 $92 $150 reversed $208 $-1 #
edge $-1 $157 -48.830835901974545 $225 48.830835901974545 $149 $226 forward 7 unknown #
coedge $-1 $143 $227 $93 $152 reversed $89 $-1 #
edge $-1 $228 -48.830835901974545 $156 48.830835901974545 $151 $229 forward 7 unknown #
coedge $-1 $146 $94 $227 $230 forward $155 $-1 #
coedge $-1 $94 $146 $223 $231 reversed $155 $-1 #
loop $-1 $-1 $153 $207 #
vertex $-1 $95 $232 #
vertex $-1 $95 $233 #
straight-curve $-1 48.830835901974545 0 4.2814352825330761 0 1 0 I I #
face $-1 $-1 $234 $22 $-1 $235 reversed single #
loop $-1 $-1 $102 $96 #
plane-surface $-1 -48.830835901974545 0 0 1 0 0 0 0 -1 forward_v I I I I #
coedge $-1 $167 $236 $237 $238 forward $97 $-1 #
coedge $-1 $237 $99 $101 $169 forward $61 $-1 #
coedge $-1 $99 $237 $239 $240 reversed $61 $-1 #
coedge $-1 $241 $102 $99 $166 forward $160 $-1 #
edge $-1 $172 2.9747455985609719 $242 13.020092705992496 $165 $243 forward 7 unknown #
coedge $-1 $244 $162 $100 $168 forward $97 $-1 #
edge $-1 $245 -8.1155658189388262 $171 -2.8904393108269844 $167 $246 forward 7 unknown #
edge $-1 $172 8.5602302459286524e-015 $245 6.3026414145555236 $101 $247 forward 7 unknown #
coedge $-1 $102 $241 $244 $248 reversed $160 $-1 #
vertex $-1 $248 $249 #
vertex $-1 $103 $250 #
straight-curve $-1 -48.830835901974545 -10.972164750837706 40.861118864926944 0 0 -1 I I #
coedge $-1 $174 $174 $-1 $251 reversed $106 $-1 #
edge $-1 $252 0 $252 6.2831853071796004 $107 $253 forward 7 unknown #
vertex $-1 $110 $254 #
ellipse-curve $-1 -46.218272647918624 -18.147412684717366 2.5192390835602358 -0.55919291073839883 0 0.82903756765294845 0.82903756765294845 0 0.55919291073839883 1 I I #
coedge $-1 $178 $178 $-1 $255 reversed $113 $-1 #
edge $-1 $256 0 $256 6.2831853071796004 $114 $257 forward 7 unknown #
vertex $-1 $117 $258 #
ellipse-curve $-1 -46.218272647918624 -13.84226392438957 2.5192390835602358 -0.55919291073839883 0 0.82903756765294845 0.82903756765294845 0 0.55919291073839883 1 I I #
face $-1 $-1 $195 $25 $-1 $259 reversed single #
loop $-1 $-1 $191 $118 #
plane-surface $-1 0 -21.017511858269231 0 0 1 0 0 0 1 forward_v I I I I #
coedge $-1 $260 $261 $187 $262 forward $119 $-1 #
coedge $-1 $187 $121 $123 $193 reversed $75 $-1 #
coedge $-1 $121 $186 $185 $262 reversed $75 $-1 #
coedge $-1 $263 $124 $121 $189 forward $195 $-1 #
edge $-1 $197 -67.409933242153798 $264 -63.88554084420813 $188 $265 forward 7 unknown #
coedge $-1 $123 $122 $260 $266 reversed $48 $-1 #
coedge $-1 $267 $268 $122 $192 forward $183 $-1 #
edge $-1 $269 62.55782669164256 $196 68.860468106198056 $191 $270 forward 7 unknown #
edge $-1 $271 91.359030389393595 $197 97.661671803949091 $186 $272 forward 7 unknown #
coedge $-1 $124 $263 $267 $273 forward $195 $-1 #
loop $-1 $-1 $188 $182 #
vertex $-1 $192 $274 #
vertex $-1 $125 $275 #
straight-curve $-1 48.830835901974545 -7.9974191522767342 0.75704288458740621 0 1 0 I I #
coedge $-1 $199 $199 $-1 $276 reversed $128 $-1 #
edge $-1 $277 0 $277 6.2831853071796004 $129 $278 forward 7 unknown #
vertex $-1 $132 $279 #
ellipse-curve $-1 46.218272647918624 -18.147412684717366 2.5192390835602501 0.55919291073839883 0 0.82903756765294845 0.82903756765294845 0 -0.55919291073839883 1 I I #
coedge $-1 $203 $203 $-1 $280 reversed $135 $-1 #
edge $-1 $281 0 $281 6.2831853071796004 $136 $282 forward 7 unknown #
vertex $-1 $139 $283 #
ellipse-curve $-1 46.218272647918624 -13.84226392438957 2.5192390835602501 0.55919291073839883 0 0.82903756765294845 0.82903756765294845 0 -0.55919291073839883 1 I I #
face $-1 $-1 $155 $21 $-1 $284 reversed single #
loop $-1 $-1 $223 $140 #
plane-surface $-1 0 21.017511858269231 0 0 -1 0 0 0 -1 forward_v I I I I #
coedge $-1 $285 $221 $224 $286 forward $141 $-1 #
coedge $-1 $227 $143 $144 $215 reversed $89 $-1 #
coedge $-1 $221 $285 $143 $213 reversed $141 $-1 #
edge $-1 $228 -4.2814352825330761 $287 4.2814352825330761 $212 $288 forward 7 unknown #
coedge $-1 $145 $144 $285 $289 forward $57 $-1 #
edge $-1 $219 -48.830835901974545 $287 48.830835901974545 $211 $290 forward 7 unknown #
coedge $-1 $224 $223 $145 $217 reversed $208 $-1 #
edge $-1 $291 -48.830835901974545 $218 48.830835901974545 $216 $292 forward 7 unknown #
vertex $-1 $147 $293 #
vertex $-1 $230 $294 #
straight-curve $-1 48.830835901974545 0 -4.2814352825330761 0 -1 0 I I #
coedge $-1 $210 $212 $148 $222 reversed $141 $-1 #
edge $-1 $225 -21.017511858269231 $228 21.017511858269231 $221 $295 forward 7 unknown #
coedge $-1 $216 $149 $154 $231 forward $208 $-1 #
coedge $-1 $149 $216 $210 $286 reversed $208 $-1 #
vertex $-1 $150 $296 #
straight-curve $-1 0 21.017511858269231 4.2814352825330761 -1 0 0 I I #
coedge $-1 $151 $211 $153 $230 reversed $89 $-1 #
vertex $-1 $222 $297 #
straight-curve $-1 0 -21.017511858269231 4.2814352825330761 1 0 0 I I #
edge $-1 $156 -4.2814352825330761 $219 4.2814352825330761 $153 $298 forward 7 unknown #
edge $-1 $157 -4.2814352825330761 $218 4.2814352825330761 $154 $299 forward 7 unknown #
point $-1 48.830835901974545 -21.017511858269231 4.2814352825330761 #
point $-1 48.830835901974545 21.017511858269231 4.2814352825330761 #
loop $-1 $-1 $239 $159 #
plane-surface $-1 0 -21.017511858269231 0 0 1 0 0 0 1 forward_v I I I I #
coedge $-1 $162 $244 $300 $301 forward $97 $-1 #
coedge $-1 $164 $163 $162 $238 reversed $61 $-1 #
edge $-1 $302 -13.020092705992496 $245 -2.9747455985609719 $162 $303 forward 7 unknown #
coedge $-1 $300 $304 $164 $240 forward $234 $-1 #
edge $-1 $242 -20.029632204223507 $302 -13.72699078966799 $239 $305 forward 7 unknown #
coedge $-1 $170 $165 $304 $306 reversed $160 $-1 #
vertex $-1 $166 $307 #
straight-curve $-1 -48.830835901974545 -7.9974191522767342 0.75704288458740143 0 -1 0 I I #
coedge $-1 $236 $167 $170 $248 forward $97 $-1 #
vertex $-1 $168 $308 #
straight-curve $-1 -51.72127521280153 -10.972164750837706 4.2814352825330744 -1 0 0 I I #
straight-curve $-1 -48.830835901974552 -10.972164750837706 0.757042884587392 0.82903756765294845 0 0.55919291073839883 I I #
edge $-1 $171 10.972164750837706 $309 21.017511858269231 $170 $310 forward 7 unknown #
point $-1 -48.830835901974545 -10.972164750837706 4.2814352825330761 #
point $-1 -48.830835901974545 -10.972164750837706 0.75704288458739677 #
edge $-1 $311 1 $311 0 $174 $-1 forward 7 unknown #
vertex $-1 $175 $312 #
ellipse-curve $-1 -44.804803217335788 -18.147412684717366 0.4236845152184473 -0.55919291073839883 0 0.82903756765294845 0.82903756765294845 0 0.55919291073839883 1 I I #
point $-1 -45.389235080265678 -18.147412684717366 3.0784319942986369 #
edge $-1 $313 1 $313 0 $178 $-1 forward 7 unknown #
vertex $-1 $179 $314 #
ellipse-curve $-1 -44.804803217335788 -13.84226392438957 0.4236845152184473 -0.55919291073839883 0 0.82903756765294845 0.82903756765294845 0 0.55919291073839883 1 I I #
point $-1 -45.389235080265678 -13.84226392438957 3.0784319942986369 #
plane-surface $-1 48.830835901974545 0 0 -1 0 0 0 0 1 forward_v I I I I #
coedge $-1 $315 $185 $190 $266 forward $119 $-1 #
coedge $-1 $185 $315 $263 $316 forward $119 $-1 #
edge $-1 $264 -37.59215811180627 $271 -32.367031603694443 $185 $317 forward 7 unknown #
coedge $-1 $194 $188 $261 $316 reversed $195 $-1 #
vertex $-1 $262 $318 #
straight-curve $-1 48.830835901974545 -10.972164750837706 68.166976126741204 0 0 1 I I #
edge $-1 $271 2.9747455985609719 $269 13.020092705992496 $260 $319 forward 7 unknown #
coedge $-1 $268 $191 $194 $273 reversed $183 $-1 #
coedge $-1 $191 $267 $315 $320 reversed $183 $-1 #
vertex $-1 $320 $321 #
straight-curve $-1 -8.2570790842313286 -21.017511858269231 39.263328479700974 0.82903756765294845 0 -0.55919291073839883 I I #
vertex $-1 $266 $322 #
straight-curve $-1 -32.13435894329195 -10.972164750837706 55.368757408215913 0.82903756765294845 0 -0.55919291073839883 I I #
edge $-1 $323 -4.2814352825330761 $196 -0.75704288458740632 $194 $324 forward 7 unknown #
point $-1 48.830835901974545 -21.017511858269231 0.75704288458740632 #
point $-1 48.830835901974545 -10.972164750837706 0.75704288458740621 #
edge $-1 $325 1 $325 0 $199 $-1 forward 7 unknown #
vertex $-1 $200 $326 #
ellipse-curve $-1 44.804803217335781 -18.147412684717366 0.42368451521845352 0.55919291073839883 0 0.82903756765294845 0.82903756765294845 0 -0.55919291073839883 1 I I #
point $-1 47.047310215571564 -18.147412684717366 1.9600461728218455 #
edge $-1 $327 1 $327 0 $203 $-1 forward 7 unknown #
vertex $-1 $204 $328 #
ellipse-curve $-1 44.804803217335781 -13.84226392438957 0.42368451521845352 0.55919291073839883 0 0.82903756765294845 0.82903756765294845 0 -0.55919291073839883 1 I I #
point $-1 47.047310215571564 -13.84226392438957 1.9600461728218455 #
plane-surface $-1 48.830835901974545 0 0 -1 0 0 0 0 1 forward_v I I I I #
coedge $-1 $212 $210 $214 $289 reversed $141 $-1 #
edge $-1 $225 -4.2814352825330761 $291 4.2814352825330761 $224 $329 forward 7 unknown #
vertex $-1 $289 $330 #
straight-curve $-1 -48.830835901974545 -21.017511858269231 0 0 0 -1 I I #
edge $-1 $287 -21.017511858269231 $291 21.017511858269231 $285 $331 forward 7 unknown #
straight-curve $-1 0 -21.017511858269231 -4.2814352825330761 -1 0 0 I I #
vertex $-1 $217 $332 #
straight-curve $-1 0 21.017511858269231 -4.2814352825330761 1 0 0 I I #
point $-1 48.830835901974545 21.017511858269231 -4.2814352825330761 #
point $-1 48.830835901974545 -21.017511858269231 -4.2814352825330761 #
straight-curve $-1 -48.830835901974545 0 4.2814352825330761 0 -1 0 I I #
point $-1 -48.830835901974545 21.017511858269231 4.2814352825330761 #
point $-1 -48.830835901974545 -21.017511858269231 4.2814352825330761 #
straight-curve $-1 48.830835901974545 -21.017511858269231 0 0 0 -1 I I #
straight-curve $-1 48.830835901974545 21.017511858269231 0 0 0 -1 I I #
coedge $-1 $304 $239 $236 $301 reversed $234 $-1 #
edge $-1 $309 -48.830835901974545 $302 -43.605709393862703 $300 $333 forward 7 unknown #
vertex $-1 $240 $334 #
straight-curve $-1 -43.605709393862703 -7.9974191522767342 4.2814352825330761 0 1 0 I I #
coedge $-1 $239 $300 $241 $306 forward $234 $-1 #
straight-curve $-1 -32.225518338401926 -21.017511858269231 11.957471217886713 0.82903756765294845 0 0.55919291073839883 I I #
edge $-1 $309 -4.2814352825330761 $242 -0.75704288458739677 $241 $335 forward 7 unknown #
point $-1 -48.830835901974545 -21.017511858269231 0.75704288458739677 #
point $-1 -43.605709393862703 -10.972164750837706 4.2814352825330761 #
vertex $-1 $248 $336 #
straight-curve $-1 -48.830835901974545 0 4.2814352825330761 0 -1 0 I I #
vertex $-1 $251 $337 #
point $-1 -43.975765649682835 -18.147412684717366 0.98287742595684613 #
vertex $-1 $255 $338 #
point $-1 -43.975765649682835 -13.84226392438957 0.98287742595684613 #
coedge $-1 $261 $260 $268 $320 forward $119 $-1 #
edge $-1 $323 -21.017511858269231 $264 -10.972164750837706 $263 $339 forward 7 unknown #
straight-curve $-1 11.238677790168278 -10.972164750837706 4.2814352825330815 -1 0 0 I I #
point $-1 48.830835901974545 -10.972164750837706 4.2814352825330761 #
straight-curve $-1 43.605709393862725 -7.9974191522767342 4.2814352825330673 0 -1 0 I I #
edge $-1 $269 43.605709393862718 $323 48.830835901974545 $268 $340 forward 7 unknown #
point $-1 43.605709393862718 -21.017511858269231 4.2814352825330744 #
point $-1 43.605709393862718 -10.972164750837706 4.2814352825330744 #
vertex $-1 $316 $341 #
straight-curve $-1 48.830835901974545 -21.017511858269231 0 0 0 -1 I I #
vertex $-1 $276 $342 #
point $-1 45.633840784988728 -18.147412684717366 -0.13550839551994531 #
vertex $-1 $280 $343 #
point $-1 45.633840784988728 -13.84226392438957 -0.13550839551994531 #
straight-curve $-1 -48.830835901974545 21.017511858269231 0 0 0 -1 I I #
point $-1 -48.830835901974545 -21.017511858269231 -4.2814352825330761 #
straight-curve $-1 -48.830835901974545 0 -4.2814352825330761 0 1 0 I I #
point $-1 -48.830835901974545 21.017511858269231 -4.2814352825330761 #
straight-curve $-1 0 -21.017511858269231 4.2814352825330761 1 0 0 I I #
point $-1 -43.605709393862703 -21.017511858269231 4.2814352825330761 #
straight-curve $-1 -48.830835901974545 -21.017511858269231 0 0 0 -1 I I #
point $-1 -48.830835901974545 -21.017511858269231 4.2814352825330761 #
point $-1 -44.245610306597385 -18.147412684717366 -0.40535305243450115 #
point $-1 -44.245610306597385 -13.84226392438957 -0.40535305243450115 #
straight-curve $-1 48.830835901974545 0 4.2814352825330761 0 1 0 I I #
straight-curve $-1 0 -21.017511858269231 4.2814352825330761 1 0 0 I I #
point $-1 48.830835901974545 -21.017511858269231 4.2814352825330761 #
point $-1 44.245610306597378 -18.147412684717366 -0.40535305243449493 #
point $-1 44.245610306597378 -13.84226392438957 -0.40535305243449493 #
End-of-ACIS-data 