500 0 5 0           
7 Unknown 11 ACIS 5.0 NT 24 Fri Mar 26 14:49:47 1999 
-1 9.9999999999999995e-007 1e-010 
body $-1 $5 $-1 $6 #
body $-1 $7 $-1 $8 #
body $-1 $9 $-1 $10 #
body $-1 $11 $-1 $12 #
body $-1 $13 $-1 $14 #
lump $-1 $-1 $15 $0 #
transform $-1 1 0 0 0 1 0 0 0 1 74.905850398266551 33.167790259360011 12.051021154020345 1 rotate no_reflect no_shear #
lump $-1 $-1 $16 $1 #
transform $-1 1 0 0 0 1 0 0 0 1 74.905850398266551 33.167790259360011 12.051021154020345 1 rotate no_reflect no_shear #
lump $-1 $-1 $17 $2 #
transform $-1 1 0 0 0 1 0 0 0 1 74.905850398266551 33.167790259360011 12.051021154020345 1 rotate no_reflect no_shear #
lump $-1 $-1 $18 $3 #
transform $-1 1 0 0 0 1 0 0 0 1 74.905850398266551 33.167790259360011 12.051021154020345 1 rotate no_reflect no_shear #
lump $-1 $-1 $19 $4 #
transform $-1 1 0 0 0 1 0 0 0 1 74.905850398266551 33.167790259360011 12.051021154020345 1 rotate no_reflect no_shear #
shell $-1 $-1 $-1 $20 $-1 $5 #
shell $-1 $-1 $-1 $21 $-1 $7 #
shell $-1 $-1 $-1 $22 $-1 $9 #
shell $-1 $-1 $-1 $23 $-1 $11 #
shell $-1 $-1 $-1 $24 $-1 $13 #
face $-1 $25 $26 $15 $-1 $27 forward single #
face $-1 $28 $29 $16 $-1 $30 reversed single #
face $-1 $31 $32 $17 $-1 $33 forward single #
face $-1 $34 $35 $18 $-1 $36 reversed single #
face $-1 $37 $38 $19 $-1 $39 forward single #
face $-1 $40 $41 $15 $-1 $42 reversed single #
loop $-1 $-1 $43 $20 #
plane-surface $-1 0 0 12.051021154020345 0 0 1 1 0 0 forward_v I I I I #
face $-1 $44 $45 $16 $-1 $46 reversed single #
loop $-1 $-1 $47 $21 #
plane-surface $-1 118.95521748003802 -13.588416870352384 213.48745790965825 0 -1 0 -0.83867057594974714 0 -0.54463902268945019 forward_v I I I I #
face $-1 $48 $49 $17 $-1 $50 forward single #
loop $-1 $51 $52 $22 #
cone-surface $-1 72.224491527447583 -22.331566635824416 8.6328807414523858 -0.83867057594974714 0 -0.54463902268945019 0.54463902268945019 0 -0.83867057594974714 1 I I 0 1 1 forward I I I I #
face $-1 $53 $54 $18 $-1 $55 reversed single #
loop $-1 $-1 $56 $23 #
plane-surface $-1 -200.54851578930612 -31.074716401296449 87.844792518618632 0 1 0 -0.83867057594974714 0 0.54463902268945019 forward_v I I I I #
face $-1 $57 $58 $19 $-1 $59 forward single #
loop $-1 $60 $61 $24 #
cone-surface $-1 -72.224491527447583 -22.331566635824416 8.6328807414524 0.83867057594974714 0 -0.54463902268945019 0.54463902268945019 0 0.83867057594974714 1 I I 0 1 1 forward I I I I #
face $-1 $62 $63 $15 $-1 $64 reversed single #
loop $-1 $-1 $65 $25 #
plane-surface $-1 0 0 -12.051021154020345 0 0 1 1 0 0 forward_v I I I I #
coedge $-1 $66 $67 $68 $69 forward $26 $-1 #
face $-1 $70 $71 $16 $-1 $72 reversed single #
loop $-1 $-1 $73 $28 #
plane-surface $-1 -6.6874479110015983 -22.331566635824416 131.89415960039014 0.83867057594974714 0 0.54463902268945019 0.54463902268945019 0 -0.83867057594974714 forward_v I I I I #
coedge $-1 $74 $75 $76 $77 reversed $29 $-1 #
face $-1 $-1 $78 $17 $-1 $79 forward single #
loop $-1 $80 $81 $31 #
cone-surface $-1 71.006925725475554 -22.331566635824416 7.8421842898746252 -0.83867057594974714 0 -0.54463902268945019 0.2723195113447251 0 -0.41933528797487357 1 I I -0.70710678118654746 0.70710678118654746 0.5 forward I I I I #
loop $-1 $-1 $82 $22 #
coedge $-1 $52 $52 $83 $84 reversed $32 $-1 #
face $-1 $85 $86 $18 $-1 $87 reversed single #
loop $-1 $-1 $88 $34 #
plane-surface $-1 -74.905850398266509 -22.331566635824416 6.2514942093505113 -0.83867057594974714 0 0.54463902268945019 0.54463902268945019 0 0.83867057594974714 forward_v I I I I #
coedge $-1 $89 $90 $91 $92 reversed $35 $-1 #
face $-1 $-1 $93 $19 $-1 $94 forward single #
loop $-1 $95 $96 $37 #
cone-surface $-1 -71.006925725475554 -22.331566635824416 7.8421842898746394 0.83867057594974714 0 -0.54463902268945019 0.2723195113447251 0 0.41933528797487357 1 I I -0.70710678118654746 0.70710678118654746 0.5 forward I I I I #
loop $-1 $-1 $97 $24 #
coedge $-1 $61 $61 $98 $99 reversed $38 $-1 #
face $-1 $100 $101 $15 $-1 $102 reversed single #
loop $-1 $-1 $103 $40 #
plane-surface $-1 0 -33.167790259360011 0 0 1 0 0 0 1 forward_v I I I I #
coedge $-1 $104 $105 $106 $107 forward $41 $-1 #
coedge $-1 $108 $43 $109 $110 forward $26 $-1 #
coedge $-1 $43 $108 $111 $112 forward $26 $-1 #
coedge $-1 $113 $114 $43 $69 reversed $115 $-1 #
edge $-1 $116 -33.167790259360011 $117 33.167790259360011 $68 $118 forward 7 unknown #
face $-1 $119 $120 $16 $-1 $121 forward single #
loop $-1 $-1 $122 $44 #
plane-surface $-1 118.95521748003802 -31.074716401296449 213.48745790965825 0 1 0 0.83867057594974714 0 0.54463902268945019 forward_v I I I I #
coedge $-1 $123 $124 $125 $126 reversed $45 $-1 #
coedge $-1 $75 $47 $127 $128 reversed $29 $-1 #
coedge $-1 $47 $74 $123 $129 reversed $29 $-1 #
coedge $-1 $125 $130 $47 $77 forward $120 $-1 #
edge $-1 $131 -15.428241658247543 $132 -11.661984944603887 $76 $133 forward 7 unknown #
loop $-1 $-1 $83 $48 #
plane-surface $-1 -6.6874479110015983 -22.331566635824416 131.89415960039014 0.83867057594974714 0 0.54463902268945019 0.54463902268945019 0 -0.83867057594974714 forward_v I I I I #
loop $-1 $-1 $134 $31 #
coedge $-1 $81 $81 $82 $135 reversed $49 $-1 #
coedge $-1 $82 $82 $81 $135 forward $51 $-1 #
coedge $-1 $83 $83 $52 $84 forward $78 $-1 #
edge $-1 $136 0 $136 6.2831853071796004 $83 $137 forward 7 unknown #
face $-1 $138 $139 $18 $-1 $140 reversed single #
loop $-1 $-1 $141 $53 #
plane-surface $-1 -200.54851578930612 -13.588416870352384 87.844792518618632 0 -1 0 0.83867057594974714 0 -0.54463902268945019 forward_v I I I I #
coedge $-1 $142 $143 $144 $145 reversed $54 $-1 #
coedge $-1 $90 $56 $146 $147 reversed $35 $-1 #
coedge $-1 $56 $89 $142 $148 reversed $35 $-1 #
coedge $-1 $144 $149 $56 $92 forward $150 $-1 #
edge $-1 $151 25.36840749638651 $152 29.134664210030195 $91 $153 forward 7 unknown #
loop $-1 $-1 $98 $57 #
plane-surface $-1 -74.905850398266509 -22.331566635824416 6.2514942093505113 -0.83867057594974714 0 0.54463902268945019 0.54463902268945019 0 0.83867057594974714 forward_v I I I I #
loop $-1 $-1 $154 $37 #
coedge $-1 $96 $96 $97 $155 reversed $58 $-1 #
coedge $-1 $97 $97 $96 $155 forward $60 $-1 #
coedge $-1 $98 $98 $61 $99 forward $93 $-1 #
edge $-1 $156 0 $156 6.2831853071796004 $98 $157 forward 7 unknown #
face $-1 $158 $159 $15 $-1 $160 reversed single #
loop $-1 $-1 $161 $62 #
plane-surface $-1 -74.905850398266551 0 0 1 0 0 0 0 -1 forward_v I I I I #
coedge $-1 $162 $111 $163 $164 forward $63 $-1 #
coedge $-1 $165 $65 $162 $166 forward $41 $-1 #
coedge $-1 $65 $165 $167 $168 forward $41 $-1 #
coedge $-1 $114 $113 $65 $107 reversed $115 $-1 #
edge $-1 $169 -33.167790259360011 $170 33.167790259360011 $106 $171 forward 7 unknown #
coedge $-1 $67 $66 $172 $173 forward $26 $-1 #
coedge $-1 $174 $175 $66 $110 reversed $159 $-1 #
edge $-1 $117 -74.905850398266551 $176 74.905850398266551 $109 $177 forward 7 unknown #
coedge $-1 $103 $178 $67 $112 reversed $63 $-1 #
edge $-1 $179 -74.905850398266551 $116 74.905850398266551 $111 $180 forward 7 unknown #
coedge $-1 $106 $68 $178 $181 forward $115 $-1 #
coedge $-1 $68 $106 $174 $182 reversed $115 $-1 #
loop $-1 $-1 $113 $158 #
vertex $-1 $69 $183 #
vertex $-1 $69 $184 #
straight-curve $-1 74.905850398266551 0 12.051021154020345 0 1 0 I I #
face $-1 $-1 $185 $16 $-1 $186 reversed single #
loop $-1 $-1 $76 $70 #
plane-surface $-1 0 0 12.051021154020345 0 0 1 1 0 0 forward_v I I I I #
coedge $-1 $187 $188 $189 $190 reversed $71 $-1 #
coedge $-1 $191 $73 $75 $129 forward $45 $-1 #
coedge $-1 $73 $191 $187 $192 forward $45 $-1 #
coedge $-1 $189 $76 $73 $126 forward $120 $-1 #
edge $-1 $132 2.4226335524401765 $193 19.908933083384241 $125 $194 forward 7 unknown #
coedge $-1 $195 $196 $74 $128 forward $185 $-1 #
edge $-1 $197 -100.49223474547864 $131 -94.692707800808776 $127 $198 forward 7 unknown #
edge $-1 $132 142.89655781789435 $197 149.81170079653316 $75 $199 forward 7 unknown #
coedge $-1 $76 $189 $195 $200 forward $120 $-1 #
vertex $-1 $128 $201 #
vertex $-1 $77 $202 #
straight-curve $-1 59.477608740019008 -13.588416870352384 12.051021154020347 -1 0 0 I I #
coedge $-1 $134 $134 $-1 $203 reversed $80 $-1 #
edge $-1 $204 0 $204 6.2831853071796004 $81 $205 forward 7 unknown #
vertex $-1 $84 $206 #
ellipse-curve $-1 73.022722041444723 -22.331566635824416 9.151257681685415 0.83867057594974714 0 0.54463902268945019 0.54463902268945019 0 -0.83867057594974714 1 I I #
face $-1 $-1 $150 $18 $-1 $207 forward single #
loop $-1 $-1 $208 $85 #
plane-surface $-1 -74.905850398266551 0 0 1 0 0 0 0 -1 forward_v I I I I #
coedge $-1 $209 $210 $211 $212 reversed $86 $-1 #
coedge $-1 $213 $88 $90 $148 forward $54 $-1 #
coedge $-1 $88 $213 $209 $214 forward $54 $-1 #
coedge $-1 $211 $91 $88 $145 forward $150 $-1 #
edge $-1 $152 -19.908933083384241 $215 -2.4226335524401765 $144 $216 forward 7 unknown #
coedge $-1 $217 $218 $89 $147 forward $139 $-1 #
edge $-1 $219 -37.670902049958869 $151 -31.871375105288969 $146 $220 forward 7 unknown #
edge $-1 $152 -6.915142978638781 $219 7.8341151973915139e-014 $90 $221 forward 7 unknown #
coedge $-1 $91 $211 $217 $222 forward $150 $-1 #
loop $-1 $-1 $211 $138 #
vertex $-1 $147 $223 #
vertex $-1 $92 $224 #
straight-curve $-1 -100.27425789465306 -31.074716401296449 12.051021154020347 1 0 0 I I #
coedge $-1 $154 $154 $-1 $225 reversed $95 $-1 #
edge $-1 $226 0 $226 6.2831853071796004 $96 $227 forward 7 unknown #
vertex $-1 $99 $228 #
ellipse-curve $-1 -73.022722041444695 -22.331566635824416 9.1512576816854114 -0.83867057594974714 0 0.54463902268945019 0.54463902268945019 0 0.83867057594974714 1 I I #
face $-1 $-1 $115 $15 $-1 $229 reversed single #
loop $-1 $-1 $174 $100 #
plane-surface $-1 0 33.167790259360011 0 0 -1 0 0 0 -1 forward_v I I I I #
coedge $-1 $230 $172 $175 $231 forward $101 $-1 #
coedge $-1 $178 $103 $104 $166 reversed $63 $-1 #
coedge $-1 $172 $230 $103 $164 reversed $101 $-1 #
edge $-1 $179 -12.051021154020345 $232 12.051021154020345 $163 $233 forward 7 unknown #
coedge $-1 $105 $104 $230 $234 forward $41 $-1 #
edge $-1 $170 -74.905850398266551 $232 74.905850398266551 $162 $235 forward 7 unknown #
coedge $-1 $175 $174 $105 $168 reversed $159 $-1 #
edge $-1 $236 -74.905850398266551 $169 74.905850398266551 $167 $237 forward 7 unknown #
vertex $-1 $107 $238 #
vertex $-1 $181 $239 #
straight-curve $-1 74.905850398266551 0 -12.051021154020345 0 -1 0 I I #
coedge $-1 $161 $163 $108 $173 reversed $101 $-1 #
edge $-1 $176 -33.167790259360011 $179 33.167790259360011 $172 $240 forward 7 unknown #
coedge $-1 $167 $109 $114 $182 forward $159 $-1 #
coedge $-1 $109 $167 $161 $231 reversed $159 $-1 #
vertex $-1 $110 $241 #
straight-curve $-1 0 33.167790259360011 12.051021154020345 -1 0 0 I I #
coedge $-1 $111 $162 $113 $181 reversed $63 $-1 #
vertex $-1 $173 $242 #
straight-curve $-1 0 -33.167790259360011 12.051021154020345 1 0 0 I I #
edge $-1 $116 -12.051021154020345 $170 12.051021154020345 $113 $243 forward 7 unknown #
edge $-1 $117 -12.051021154020345 $169 12.051021154020345 $114 $244 forward 7 unknown #
point $-1 74.905850398266551 -33.167790259360011 12.051021154020345 #
point $-1 74.905850398266551 33.167790259360011 12.051021154020345 #
loop $-1 $-1 $127 $119 #
plane-surface $-1 74.905850398266551 0 0 -1 0 0 0 0 1 forward_v I I I I #
coedge $-1 $188 $122 $124 $192 reversed $71 $-1 #
coedge $-1 $122 $187 $245 $246 reversed $71 $-1 #
coedge $-1 $130 $125 $122 $190 forward $120 $-1 #
edge $-1 $193 11.661984944603887 $247 15.428241658247543 $189 $248 forward 7 unknown #
coedge $-1 $124 $123 $196 $249 reversed $45 $-1 #
edge $-1 $250 -149.81170079653316 $193 -142.89655781789435 $187 $251 forward 7 unknown #
vertex $-1 $126 $252 #
straight-curve $-1 71.139593684622881 -11.165783317912208 12.051021154020361 0 -1 0 I I #
coedge $-1 $245 $127 $130 $200 reversed $185 $-1 #
coedge $-1 $127 $245 $191 $249 forward $185 $-1 #
vertex $-1 $128 $253 #
straight-curve $-1 74.905850398266551 -13.588416870352384 106.74372895482912 0 0 1 I I #
straight-curve $-1 -6.6874479110015983 -13.588416870352384 131.89415960039014 0.54463902268945019 0 -0.83867057594974714 I I #
edge $-1 $247 -31.074716401296449 $131 -13.588416870352384 $195 $254 forward 7 unknown #
point $-1 74.905850398266551 -13.588416870352384 12.051021154020345 #
point $-1 71.139593684622895 -13.588416870352384 12.051021154020347 #
edge $-1 $255 1 $255 0 $134 $-1 forward 7 unknown #
vertex $-1 $135 $256 #
ellipse-curve $-1 71.426261013450429 -22.331566635824416 8.1145038012193496 0.83867057594974714 0 0.54463902268945019 0.54463902268945019 0 -0.83867057594974714 1 I I #
point $-1 73.56736106413419 -22.331566635824416 8.3125871057356733 #
plane-surface $-1 0 0 12.051021154020345 0 0 1 1 0 0 forward_v I I I I #
coedge $-1 $218 $217 $210 $257 forward $139 $-1 #
coedge $-1 $210 $141 $143 $214 reversed $86 $-1 #
coedge $-1 $141 $209 $208 $257 reversed $86 $-1 #
coedge $-1 $149 $144 $141 $212 forward $150 $-1 #
edge $-1 $215 -29.134664210030195 $258 -25.36840749638651 $211 $259 forward 7 unknown #
coedge $-1 $143 $142 $218 $260 reversed $54 $-1 #
edge $-1 $261 -7.8341151973915139e-014 $215 6.915142978638781 $209 $262 forward 7 unknown #
vertex $-1 $145 $263 #
straight-curve $-1 -71.139593684622881 -11.165783317912208 12.051021154020345 0 1 0 I I #
coedge $-1 $208 $146 $149 $222 reversed $139 $-1 #
coedge $-1 $146 $208 $213 $260 forward $139 $-1 #
vertex $-1 $147 $264 #
straight-curve $-1 -74.905850398266551 -31.074716401296449 43.922396259309316 0 0 1 I I #
straight-curve $-1 -74.905850398266509 -31.074716401296449 6.2514942093505113 -0.54463902268945019 0 -0.83867057594974714 I I #
edge $-1 $258 13.588416870352384 $151 31.074716401296449 $217 $265 forward 7 unknown #
point $-1 -74.905850398266551 -31.074716401296449 12.051021154020345 #
point $-1 -71.139593684622866 -31.074716401296449 12.051021154020345 #
edge $-1 $266 1 $266 0 $154 $-1 forward 7 unknown #
vertex $-1 $155 $267 #
ellipse-curve $-1 -71.426261013450429 -22.331566635824416 8.1145038012193638 -0.83867057594974714 0 0.54463902268945019 0.54463902268945019 0 0.83867057594974714 1 I I #
point $-1 -72.478083018755285 -22.331566635824416 9.9899282576351816 #
plane-surface $-1 74.905850398266551 0 0 -1 0 0 0 0 1 forward_v I I I I #
coedge $-1 $163 $161 $165 $234 reversed $101 $-1 #
edge $-1 $176 -12.051021154020345 $236 12.051021154020345 $175 $268 forward 7 unknown #
vertex $-1 $234 $269 #
straight-curve $-1 -74.905850398266551 -33.167790259360011 0 0 0 -1 I I #
edge $-1 $232 -33.167790259360011 $236 33.167790259360011 $230 $270 forward 7 unknown #
straight-curve $-1 0 -33.167790259360011 -12.051021154020345 -1 0 0 I I #
vertex $-1 $168 $271 #
straight-curve $-1 0 33.167790259360011 -12.051021154020345 1 0 0 I I #
point $-1 74.905850398266551 33.167790259360011 -12.051021154020345 #
point $-1 74.905850398266551 -33.167790259360011 -12.051021154020345 #
straight-curve $-1 -74.905850398266551 0 12.051021154020345 0 -1 0 I I #
point $-1 -74.905850398266551 33.167790259360011 12.051021154020345 #
point $-1 -74.905850398266551 -33.167790259360011 12.051021154020345 #
straight-curve $-1 74.905850398266551 -33.167790259360011 0 0 0 -1 I I #
straight-curve $-1 74.905850398266551 33.167790259360011 0 0 0 -1 I I #
coedge $-1 $196 $195 $188 $246 forward $185 $-1 #
edge $-1 $247 94.692707800808776 $250 100.49223474547864 $245 $272 forward 7 unknown #
vertex $-1 $200 $273 #
straight-curve $-1 59.477608740019008 -31.074716401296449 12.051021154020347 1 0 0 I I #
edge $-1 $250 -19.908933083384241 $197 -2.4226335524401765 $196 $274 forward 7 unknown #
vertex $-1 $249 $275 #
straight-curve $-1 -6.6874479110015983 -31.074716401296449 131.89415960039014 -0.54463902268945019 0 0.83867057594974714 I I #
point $-1 71.139593684622895 -31.074716401296449 12.051021154020347 #
point $-1 74.905850398266551 -13.588416870352384 6.2514942093504828 #
straight-curve $-1 74.905850398266551 0 12.051021154020345 0 1 0 I I #
vertex $-1 $203 $276 #
point $-1 71.970900036139881 -22.331566635824416 7.2758332252696034 #
edge $-1 $258 31.871375105288969 $261 37.670902049958869 $208 $277 forward 7 unknown #
vertex $-1 $222 $278 #
straight-curve $-1 -100.27425789465306 -13.588416870352384 12.051021154020347 -1 0 0 I I #
edge $-1 $261 2.4226335524401765 $219 19.908933083384241 $218 $279 forward 7 unknown #
vertex $-1 $260 $280 #
straight-curve $-1 -74.905850398266509 -13.588416870352384 6.2514942093505113 0.54463902268945019 0 0.83867057594974714 I I #
point $-1 -71.139593684622866 -13.588416870352384 12.051021154020345 #
point $-1 -74.905850398266551 -31.074716401296449 6.2514942093504455 #
straight-curve $-1 -74.905850398266551 0 12.051021154020345 0 -1 0 I I #
vertex $-1 $225 $281 #
point $-1 -70.881621990760976 -22.331566635824416 8.9531743771691126 #
straight-curve $-1 -74.905850398266551 33.167790259360011 0 0 0 -1 I I #
point $-1 -74.905850398266551 -33.167790259360011 -12.051021154020345 #
straight-curve $-1 -74.905850398266551 0 -12.051021154020345 0 1 0 I I #
point $-1 -74.905850398266551 33.167790259360011 -12.051021154020345 #
straight-curve $-1 74.905850398266551 -31.074716401296449 106.74372895482912 0 0 -1 I I #
point $-1 74.905850398266551 -31.074716401296449 12.051021154020345 #
straight-curve $-1 74.905850398266551 -11.165783317912208 6.2514942093504757 0 1 0 I I #
point $-1 74.905850398266551 -31.074716401296449 6.2514942093504828 #
point $-1 70.58759043750068 -22.331566635824416 7.5698647785299 #
straight-curve $-1 -74.905850398266551 -13.588416870352384 43.922396259309316 0 0 -1 I I #
point $-1 -74.905850398266551 -13.588416870352384 12.051021154020345 #
straight-curve $-1 -74.905850398266551 -11.165783317912208 6.2514942093504242 0 -1 0 I I #
point $-1 -74.905850398266551 -13.588416870352384 6.2514942093504455 #
point $-1 -70.58759043750068 -22.331566635824416 7.5698647785299142 #
End-of-ACIS-data 