500 0 8 0           
7 Unknown 11 ACIS 5.0 NT 24 Thu Mar 25 19:53:31 1999 
-1 9.9999999999999995e-007 1e-010 
body $-1 $8 $-1 $9 #
body $-1 $10 $-1 $11 #
body $-1 $12 $-1 $13 #
body $-1 $14 $-1 $15 #
body $-1 $16 $-1 $17 #
body $-1 $18 $-1 $19 #
body $-1 $20 $-1 $21 #
body $-1 $22 $-1 $23 #
lump $-1 $-1 $24 $0 #
transform $-1 1 0 0 0 1 0 0 0 1 40.101321451460308 19.015543147567822 5.7752886225765385 1 rotate no_reflect no_shear #
lump $-1 $-1 $25 $1 #
transform $-1 1 0 0 0 1 0 0 0 1 40.101321451460308 19.015543147567822 5.7752886225765385 1 rotate no_reflect no_shear #
lump $-1 $-1 $26 $2 #
transform $-1 1 0 0 0 1 0 0 0 1 40.101321451460308 19.015543147567822 5.7752886225765385 1 rotate no_reflect no_shear #
lump $-1 $-1 $27 $3 #
transform $-1 1 0 0 0 1 0 0 0 1 40.101321451460308 19.015543147567822 5.7752886225765385 1 rotate no_reflect no_shear #
lump $-1 $-1 $28 $4 #
transform $-1 1 0 0 0 1 0 0 0 1 40.101321451460308 19.015543147567822 5.7752886225765385 1 rotate no_reflect no_shear #
lump $-1 $-1 $29 $5 #
transform $-1 1 0 0 0 1 0 0 0 1 40.101321451460308 19.015543147567822 5.7752886225765385 1 rotate no_reflect no_shear #
lump $-1 $-1 $30 $6 #
transform $-1 1 0 0 0 1 0 0 0 1 40.101321451460308 19.015543147567822 5.7752886225765385 1 rotate no_reflect no_shear #
lump $-1 $-1 $31 $7 #
transform $-1 1 0 0 0 1 0 0 0 1 40.101321451460308 19.015543147567822 5.7752886225765385 1 rotate no_reflect no_shear #
shell $-1 $-1 $-1 $32 $-1 $8 #
shell $-1 $-1 $-1 $33 $-1 $10 #
shell $-1 $-1 $-1 $34 $-1 $12 #
shell $-1 $-1 $-1 $35 $-1 $14 #
shell $-1 $-1 $-1 $36 $-1 $16 #
shell $-1 $-1 $-1 $37 $-1 $18 #
shell $-1 $-1 $-1 $38 $-1 $20 #
shell $-1 $-1 $-1 $39 $-1 $22 #
face $-1 $40 $41 $24 $-1 $42 forward single #
face $-1 $43 $44 $25 $-1 $45 reversed single #
face $-1 $46 $47 $26 $-1 $48 reversed single #
face $-1 $49 $50 $27 $-1 $51 reversed single #
face $-1 $52 $53 $28 $-1 $54 forward single #
face $-1 $55 $56 $29 $-1 $57 reversed single #
face $-1 $58 $59 $30 $-1 $60 forward single #
face $-1 $61 $62 $31 $-1 $63 forward single #
face $-1 $64 $65 $24 $-1 $66 reversed single #
loop $-1 $-1 $67 $32 #
plane-surface $-1 0 0 5.7752886225765385 0 0 1 1 0 0 forward_v I I I I #
face $-1 $68 $69 $25 $-1 $70 reversed single #
loop $-1 $-1 $71 $33 #
plane-surface $-1 -37.942581063726116 0 2.4448433955346438 0 0 1 1 0 0 forward_v I I I I #
face $-1 $72 $73 $26 $-1 $74 reversed single #
loop $-1 $-1 $75 $34 #
plane-surface $-1 37.942581063726124 0 2.4448433955346438 0 0 1 1 0 0 forward_v I I I I #
face $-1 $76 $77 $27 $-1 $78 reversed single #
loop $-1 $-1 $79 $35 #
plane-surface $-1 23.235686833604728 -63.864292481364373 67.5518423349626 -1 0 0 0 -0.55919291073839883 0.82903756765294845 forward_v I I I I #
face $-1 $80 $81 $28 $-1 $82 forward single #
loop $-1 $83 $84 $36 #
cone-surface $-1 16.269921650590888 -15.055140540069775 2.7276753452657339 0 0.55919291073839883 -0.82903756765294845 1 0 0 1 I I 0 1 1 forward I I I I #
face $-1 $85 $86 $29 $-1 $87 reversed single #
loop $-1 $-1 $88 $37 #
plane-surface $-1 27.838598375686395 60.180543764913409 79.588829459407293 1 0 0 0 -0.79863551827123203 -0.60181501223851219 forward_v I I I I #
face $-1 $89 $90 $30 $-1 $91 forward single #
loop $-1 $92 $93 $38 #
cone-surface $-1 30.108667604345115 15.719493678402298 2.2486165665707567 0 -0.79863551827123203 -0.60181501223851219 1 0 0 1 I I 0 1 1 forward I I I I #
face $-1 $94 $95 $31 $-1 $96 forward single #
loop $-1 $97 $98 $39 #
cone-surface $-1 33.513771447333198 15.719493678402298 2.2486165665707567 0 -0.79863551827123203 -0.60181501223851219 1 0 0 1 I I 0 1 1 forward I I I I #
face $-1 $99 $100 $24 $-1 $101 reversed single #
loop $-1 $-1 $102 $40 #
plane-surface $-1 0 0 -5.7752886225765385 0 0 1 1 0 0 forward_v I I I I #
coedge $-1 $103 $104 $105 $106 forward $41 $-1 #
face $-1 $107 $108 $25 $-1 $109 reversed single #
loop $-1 $-1 $110 $43 #
plane-surface $-1 -35.783840675991925 0 4.1100660090555907 -1 0 0 0 0 1 forward_v I I I I #
coedge $-1 $111 $112 $113 $114 forward $44 $-1 #
face $-1 $115 $116 $26 $-1 $117 forward single #
loop $-1 $-1 $118 $46 #
plane-surface $-1 35.783840675991932 0 4.1100660090555907 1 0 0 0 0 -1 forward_v I I I I #
coedge $-1 $119 $120 $121 $122 reversed $47 $-1 #
face $-1 $123 $124 $27 $-1 $125 reversed single #
loop $-1 $-1 $126 $49 #
plane-surface $-1 16.269921650590888 -19.015543147567811 1.0608383433872888 0 -0.55919291073839883 0.82903756765294845 1 0 0 forward_v I I I I #
coedge $-1 $127 $128 $129 $130 reversed $50 $-1 #
face $-1 $-1 $131 $28 $-1 $132 forward single #
loop $-1 $133 $134 $52 #
cone-surface $-1 16.269921650590888 -14.309871397078313 1.6227684237230813 0 0.55919291073839883 -0.82903756765294845 0.5 0 0 1 I I -0.70710678118654746 0.70710678118654746 0.5 forward I I I I #
loop $-1 $-1 $135 $36 #
coedge $-1 $84 $84 $136 $137 reversed $53 $-1 #
face $-1 $138 $139 $29 $-1 $140 forward single #
loop $-1 $-1 $141 $55 #
plane-surface $-1 31.811219525839164 -3.8721355165831426 31.321674939225097 0 0.79863551827123203 0.60181501223851219 1 0 0 forward_v I I I I #
coedge $-1 $142 $143 $144 $145 reversed $56 $-1 #
face $-1 $-1 $146 $30 $-1 $147 forward single #
loop $-1 $148 $149 $58 #
cone-surface $-1 30.108667604345115 13.842674618640988 0.83433200298824151 0 -0.79863551827123203 -0.60181501223851219 0.5 0 0 1 I I -0.70710678118654746 0.70710678118654746 0.5 forward I I I I #
loop $-1 $-1 $150 $38 #
coedge $-1 $93 $93 $151 $152 reversed $59 $-1 #
face $-1 $-1 $153 $31 $-1 $154 forward single #
loop $-1 $155 $156 $61 #
cone-surface $-1 33.513771447333198 13.842674618640988 0.83433200298824151 0 -0.79863551827123203 -0.60181501223851219 0.5 0 0 1 I I -0.70710678118654746 0.70710678118654746 0.5 forward I I I I #
loop $-1 $-1 $157 $39 #
coedge $-1 $98 $98 $158 $159 reversed $62 $-1 #
face $-1 $160 $161 $24 $-1 $162 reversed single #
loop $-1 $-1 $163 $64 #
plane-surface $-1 0 -19.015543147567822 0 0 1 0 0 0 1 forward_v I I I I #
coedge $-1 $164 $165 $166 $167 forward $65 $-1 #
coedge $-1 $168 $67 $169 $170 forward $41 $-1 #
coedge $-1 $67 $168 $171 $172 forward $41 $-1 #
coedge $-1 $173 $174 $67 $106 reversed $175 $-1 #
edge $-1 $176 -19.015543147567822 $177 19.015543147567822 $105 $178 forward 7 unknown #
face $-1 $179 $180 $25 $-1 $181 reversed single #
loop $-1 $-1 $182 $68 #
plane-surface $-1 0 19.015543147567822 0 0 -1 0 0 0 -1 forward_v I I I I #
coedge $-1 $113 $183 $184 $185 reversed $69 $-1 #
coedge $-1 $186 $71 $187 $188 reversed $44 $-1 #
coedge $-1 $71 $186 $189 $190 reversed $44 $-1 #
coedge $-1 $191 $110 $71 $114 reversed $69 $-1 #
edge $-1 $192 -19.015543147567822 $193 19.015543147567822 $113 $194 forward 7 unknown #
face $-1 $195 $196 $26 $-1 $197 reversed single #
loop $-1 $-1 $198 $72 #
plane-surface $-1 0 0 5.7752886225765385 0 0 1 1 0 0 forward_v I I I I #
coedge $-1 $199 $200 $201 $202 reversed $73 $-1 #
coedge $-1 $201 $75 $203 $204 reversed $47 $-1 #
coedge $-1 $75 $201 $205 $206 reversed $47 $-1 #
coedge $-1 $207 $208 $75 $122 forward $209 $-1 #
edge $-1 $210 -19.015543147567822 $211 19.015543147567822 $121 $212 forward 7 unknown #
face $-1 $213 $214 $27 $-1 $215 forward single #
loop $-1 $-1 $216 $76 #
plane-surface $-1 9.3041564675770481 -63.864292481364373 67.5518423349626 1 0 0 0 0.55919291073839883 -0.82903756765294845 forward_v I I I I #
coedge $-1 $217 $218 $219 $220 reversed $77 $-1 #
coedge $-1 $128 $79 $221 $222 reversed $50 $-1 #
coedge $-1 $79 $127 $217 $223 reversed $50 $-1 #
coedge $-1 $219 $224 $79 $130 forward $214 $-1 #
edge $-1 $225 12.916603093114364 $226 19.90606293286594 $129 $227 forward 7 unknown #
loop $-1 $-1 $136 $80 #
plane-surface $-1 16.269921650590888 -19.015543147567811 1.0608383433872888 0 -0.55919291073839883 0.82903756765294845 1 0 0 forward_v I I I I #
loop $-1 $-1 $228 $52 #
coedge $-1 $134 $134 $135 $229 reversed $81 $-1 #
coedge $-1 $135 $135 $134 $229 forward $83 $-1 #
coedge $-1 $136 $136 $84 $137 forward $131 $-1 #
edge $-1 $230 -2.3100886400220222e-016 $230 6.2831853071796004 $136 $231 forward 7 unknown #
face $-1 $232 $233 $29 $-1 $234 forward single #
loop $-1 $-1 $144 $85 #
plane-surface $-1 0 0 5.7752886225765385 0 0 1 1 0 0 forward_v I I I I #
coedge $-1 $235 $236 $237 $238 reversed $86 $-1 #
coedge $-1 $143 $88 $239 $240 reversed $56 $-1 #
coedge $-1 $88 $142 $235 $241 reversed $56 $-1 #
coedge $-1 $237 $242 $88 $145 forward $139 $-1 #
edge $-1 $243 11.074728734888883 $244 14.711825071968541 $144 $245 forward 7 unknown #
loop $-1 $-1 $151 $89 #
plane-surface $-1 31.811219525839164 -3.8721355165831426 31.321674939225097 0 0.79863551827123203 0.60181501223851219 1 0 0 forward_v I I I I #
loop $-1 $-1 $246 $58 #
coedge $-1 $149 $149 $150 $247 reversed $90 $-1 #
coedge $-1 $150 $150 $149 $247 forward $92 $-1 #
coedge $-1 $151 $151 $93 $152 forward $146 $-1 #
edge $-1 $248 -1.0083928483652995e-017 $248 6.2831853071796004 $151 $249 forward 7 unknown #
loop $-1 $-1 $158 $94 #
plane-surface $-1 31.811219525839164 -3.8721355165831426 31.321674939225097 0 0.79863551827123203 0.60181501223851219 1 0 0 forward_v I I I I #
loop $-1 $-1 $250 $61 #
coedge $-1 $156 $156 $157 $251 reversed $95 $-1 #
coedge $-1 $157 $157 $156 $251 forward $97 $-1 #
coedge $-1 $158 $158 $98 $159 forward $153 $-1 #
edge $-1 $252 -1.0083928483652995e-017 $252 6.2831853071796004 $158 $253 forward 7 unknown #
face $-1 $254 $255 $24 $-1 $256 reversed single #
loop $-1 $-1 $257 $99 #
plane-surface $-1 -40.101321451460308 0 0 1 0 0 0 0 -1 forward_v I I I I #
coedge $-1 $258 $171 $259 $260 forward $100 $-1 #
coedge $-1 $261 $102 $258 $262 forward $65 $-1 #
coedge $-1 $102 $261 $263 $264 forward $65 $-1 #
coedge $-1 $174 $173 $102 $167 reversed $175 $-1 #
edge $-1 $265 -19.015543147567822 $266 19.015543147567822 $166 $267 forward 7 unknown #
coedge $-1 $104 $103 $268 $269 forward $41 $-1 #
coedge $-1 $270 $271 $103 $170 reversed $255 $-1 #
edge $-1 $177 -40.101321451460308 $272 40.101321451460308 $169 $273 forward 7 unknown #
coedge $-1 $163 $274 $104 $172 reversed $100 $-1 #
edge $-1 $275 -40.101321451460308 $176 40.101321451460308 $171 $276 forward 7 unknown #
coedge $-1 $166 $105 $274 $277 forward $175 $-1 #
coedge $-1 $105 $166 $270 $278 reversed $175 $-1 #
loop $-1 $-1 $173 $254 #
vertex $-1 $106 $279 #
vertex $-1 $106 $280 #
straight-curve $-1 40.101321451460308 0 5.7752886225765385 0 1 0 I I #
face $-1 $281 $282 $25 $-1 $283 forward single #
loop $-1 $-1 $284 $107 #
plane-surface $-1 -40.101321451460308 0 0 1 0 0 0 0 -1 forward_v I I I I #
coedge $-1 $189 $285 $191 $286 forward $108 $-1 #
coedge $-1 $110 $191 $287 $288 reversed $69 $-1 #
coedge $-1 $289 $187 $110 $185 forward $290 $-1 #
edge $-1 $193 0.38981039100684844 $291 3.7202556180487423 $184 $292 forward 7 unknown #
coedge $-1 $112 $111 $284 $293 reversed $44 $-1 #
coedge $-1 $184 $294 $111 $188 forward $290 $-1 #
edge $-1 $295 -21.13003091959725 $193 -16.812550144128867 $187 $296 forward 7 unknown #
coedge $-1 $297 $182 $112 $190 forward $108 $-1 #
edge $-1 $192 16.812550144128867 $298 21.13003091959725 $189 $299 forward 7 unknown #
coedge $-1 $183 $113 $182 $286 reversed $69 $-1 #
vertex $-1 $190 $300 #
vertex $-1 $188 $301 #
straight-curve $-1 -35.783840675991925 0 2.4448433955346438 0 -1 0 I I #
face $-1 $302 $303 $26 $-1 $304 reversed single #
loop $-1 $-1 $305 $115 #
plane-surface $-1 0 -19.015543147567822 0 0 1 0 0 0 1 forward_v I I I I #
coedge $-1 $306 $307 $308 $309 forward $116 $-1 #
coedge $-1 $308 $118 $305 $310 reversed $73 $-1 #
coedge $-1 $118 $308 $311 $312 reversed $73 $-1 #
coedge $-1 $120 $119 $118 $202 forward $47 $-1 #
edge $-1 $313 -19.015543147567822 $314 19.015543147567822 $118 $315 forward 7 unknown #
coedge $-1 $316 $305 $119 $204 forward $196 $-1 #
edge $-1 $313 16.81255014412887 $210 21.130030919597253 $203 $317 forward 7 unknown #
coedge $-1 $311 $318 $120 $206 forward $303 $-1 #
edge $-1 $211 -21.130030919597253 $314 -16.81255014412887 $205 $319 forward 7 unknown #
coedge $-1 $320 $121 $318 $321 reversed $209 $-1 #
coedge $-1 $121 $320 $316 $322 forward $209 $-1 #
loop $-1 $-1 $121 $302 #
vertex $-1 $204 $323 #
vertex $-1 $122 $324 #
straight-curve $-1 40.101321451460308 0 2.4448433955346438 0 1 0 I I #
face $-1 $-1 $325 $27 $-1 $326 reversed single #
loop $-1 $-1 $129 $123 #
plane-surface $-1 0 0 5.7752886225765385 0 0 1 1 0 0 forward_v I I I I #
coedge $-1 $327 $328 $329 $330 reversed $124 $-1 #
coedge $-1 $331 $126 $128 $223 forward $77 $-1 #
coedge $-1 $126 $331 $327 $332 forward $77 $-1 #
coedge $-1 $329 $129 $126 $220 forward $214 $-1 #
edge $-1 $226 -15.100726008309284 $333 -1.1691956422816041 $219 $334 forward 7 unknown #
coedge $-1 $335 $336 $127 $222 forward $325 $-1 #
edge $-1 $337 -32.715082824094019 $225 -28.000632544904761 $221 $338 forward 7 unknown #
edge $-1 $226 -8.4308119589068973 $337 1.2809303926657532e-014 $128 $339 forward 7 unknown #
coedge $-1 $129 $329 $335 $340 forward $214 $-1 #
vertex $-1 $222 $341 #
vertex $-1 $130 $342 #
straight-curve $-1 23.235686833604728 -31.932146240682187 5.7752886225765394 0 1 0 I I #
coedge $-1 $228 $228 $-1 $343 reversed $133 $-1 #
edge $-1 $344 0 $344 6.2831853071796004 $134 $345 forward 7 unknown #
vertex $-1 $137 $346 #
ellipse-curve $-1 16.269921650590888 -15.520813227692036 3.4180634829819092 0 -0.55919291073839883 0.82903756765294845 1 0 0 1 I I #
face $-1 $-1 $347 $29 $-1 $348 reversed single #
loop $-1 $-1 $349 $138 #
plane-surface $-1 35.783840675991932 0 4.1100660090555907 1 0 0 0 0 -1 forward_v I I I I #
coedge $-1 $350 $141 $143 $241 forward $86 $-1 #
coedge $-1 $141 $350 $349 $351 forward $86 $-1 #
coedge $-1 $352 $144 $141 $238 forward $139 $-1 #
edge $-1 $244 11.932988612766813 $353 19.87823091307235 $237 $354 forward 7 unknown #
coedge $-1 $355 $356 $142 $240 forward $347 $-1 #
edge $-1 $357 -38.845716104212144 $243 -34.019126107127107 $239 $358 forward 7 unknown #
edge $-1 $244 31.987540914718636 $357 38.031086295135637 $143 $359 forward 7 unknown #
coedge $-1 $144 $352 $355 $360 forward $139 $-1 #
vertex $-1 $240 $361 #
vertex $-1 $145 $362 #
straight-curve $-1 27.838598375686395 30.090271882456705 5.7752886225765394 0 -1 0 I I #
coedge $-1 $246 $246 $-1 $363 reversed $148 $-1 #
edge $-1 $364 0 $364 6.2831853071796004 $149 $365 forward 7 unknown #
vertex $-1 $152 $366 #
ellipse-curve $-1 30.108667604345115 17.196994979027995 3.3619936240340182 0 0.79863551827123203 0.60181501223851219 1 0 0 1 I I #
coedge $-1 $250 $250 $-1 $367 reversed $155 $-1 #
edge $-1 $368 0 $368 6.2831853071796004 $156 $369 forward 7 unknown #
vertex $-1 $159 $370 #
ellipse-curve $-1 33.513771447333198 17.196994979027995 3.3619936240340182 0 0.79863551827123203 0.60181501223851219 1 0 0 1 I I #
face $-1 $-1 $175 $24 $-1 $371 reversed single #
loop $-1 $-1 $270 $160 #
plane-surface $-1 0 19.015543147567822 0 0 -1 0 0 0 -1 forward_v I I I I #
coedge $-1 $372 $268 $271 $373 forward $161 $-1 #
coedge $-1 $274 $163 $164 $262 reversed $100 $-1 #
coedge $-1 $268 $372 $163 $260 reversed $161 $-1 #
edge $-1 $275 -5.7752886225765385 $374 5.7752886225765385 $259 $375 forward 7 unknown #
coedge $-1 $165 $164 $372 $376 forward $65 $-1 #
edge $-1 $266 -40.101321451460308 $374 40.101321451460308 $258 $377 forward 7 unknown #
coedge $-1 $271 $270 $165 $264 reversed $255 $-1 #
edge $-1 $378 -40.101321451460308 $265 40.101321451460308 $263 $379 forward 7 unknown #
vertex $-1 $167 $380 #
vertex $-1 $277 $381 #
straight-curve $-1 40.101321451460308 0 -5.7752886225765385 0 -1 0 I I #
coedge $-1 $257 $259 $168 $269 reversed $161 $-1 #
edge $-1 $272 -19.015543147567822 $275 19.015543147567822 $268 $382 forward 7 unknown #
coedge $-1 $263 $169 $174 $278 forward $255 $-1 #
coedge $-1 $169 $263 $257 $373 reversed $255 $-1 #
vertex $-1 $170 $383 #
straight-curve $-1 0 19.015543147567822 5.7752886225765385 -1 0 0 I I #
coedge $-1 $171 $258 $173 $277 reversed $100 $-1 #
vertex $-1 $269 $384 #
straight-curve $-1 0 -19.015543147567822 5.7752886225765385 1 0 0 I I #
edge $-1 $176 -5.7752886225765385 $266 5.7752886225765385 $173 $385 forward 7 unknown #
edge $-1 $177 -5.7752886225765385 $265 5.7752886225765385 $174 $386 forward 7 unknown #
point $-1 40.101321451460308 -19.015543147567822 5.7752886225765385 #
point $-1 40.101321451460308 19.015543147567822 5.7752886225765385 #
face $-1 $-1 $290 $25 $-1 $387 reversed single #
loop $-1 $-1 $287 $179 #
plane-surface $-1 0 0 5.7752886225765385 0 0 1 1 0 0 forward_v I I I I #
coedge $-1 $388 $389 $186 $293 forward $180 $-1 #
coedge $-1 $182 $297 $390 $391 reversed $108 $-1 #
edge $-1 $392 -3.7202556180487423 $192 -0.38981039100684844 $182 $393 forward 7 unknown #
coedge $-1 $390 $394 $183 $288 forward $282 $-1 #
edge $-1 $291 -19.015543147567822 $392 19.015543147567822 $287 $395 forward 7 unknown #
coedge $-1 $294 $184 $394 $396 reversed $290 $-1 #
loop $-1 $-1 $184 $281 #
vertex $-1 $185 $397 #
straight-curve $-1 -35.783840675991925 -19.015543147567822 2.0550330045277954 0 0 1 I I #
edge $-1 $298 -19.015543147567822 $295 19.015543147567822 $284 $398 forward 7 unknown #
coedge $-1 $187 $289 $388 $399 forward $290 $-1 #
vertex $-1 $293 $400 #
straight-curve $-1 -18.971290531863058 -19.015543147567822 2.4448433955346438 1 0 0 I I #
coedge $-1 $285 $189 $389 $401 reversed $108 $-1 #
vertex $-1 $293 $402 #
straight-curve $-1 -18.971290531863058 19.015543147567822 2.4448433955346438 -1 0 0 I I #
point $-1 -35.783840675991925 19.015543147567822 2.4448433955346438 #
point $-1 -35.783840675991925 -19.015543147567822 2.4448433955346438 #
face $-1 $-1 $209 $26 $-1 $403 reversed single #
loop $-1 $-1 $311 $195 #
plane-surface $-1 0 19.015543147567822 0 0 -1 0 0 0 -1 forward_v I I I I #
coedge $-1 $203 $404 $199 $310 forward $196 $-1 #
coedge $-1 $405 $198 $404 $406 forward $116 $-1 #
coedge $-1 $198 $405 $407 $408 forward $116 $-1 #
coedge $-1 $200 $199 $198 $309 reversed $73 $-1 #
edge $-1 $409 -19.015543147567822 $410 19.015543147567822 $198 $411 forward 7 unknown #
edge $-1 $410 -3.7202556180487423 $313 -0.38981039100684844 $305 $412 forward 7 unknown #
coedge $-1 $407 $205 $200 $312 forward $303 $-1 #
edge $-1 $314 0.38981039100684844 $409 3.7202556180487423 $311 $413 forward 7 unknown #
vertex $-1 $204 $414 #
vertex $-1 $206 $415 #
straight-curve $-1 35.783840675991932 0 2.4448433955346438 0 1 0 I I #
coedge $-1 $404 $203 $208 $322 reversed $196 $-1 #
straight-curve $-1 18.971290531863062 -19.015543147567822 2.4448433955346438 1 0 0 I I #
coedge $-1 $205 $407 $207 $321 forward $303 $-1 #
straight-curve $-1 18.971290531863062 19.015543147567822 2.4448433955346438 -1 0 0 I I #
coedge $-1 $208 $207 $405 $416 reversed $209 $-1 #
edge $-1 $417 -5.7752886225765385 $211 -2.4448433955346438 $207 $418 forward 7 unknown #
edge $-1 $419 -5.7752886225765385 $210 -2.4448433955346438 $208 $420 forward 7 unknown #
point $-1 40.101321451460315 -19.015543147567822 2.4448433955346438 #
point $-1 40.101321451460315 19.015543147567822 2.4448433955346438 #
loop $-1 $-1 $221 $213 #
plane-surface $-1 0 -19.015543147567822 0 0 1 0 0 0 1 forward_v I I I I #
coedge $-1 $328 $216 $218 $332 reversed $124 $-1 #
coedge $-1 $216 $327 $421 $422 reversed $124 $-1 #
coedge $-1 $224 $219 $216 $330 forward $214 $-1 #
edge $-1 $333 -19.90606293286594 $423 -12.916603093114364 $329 $424 forward 7 unknown #
coedge $-1 $218 $217 $336 $425 reversed $77 $-1 #
edge $-1 $426 -1.2809303926657532e-014 $333 8.4308119589068973 $327 $427 forward 7 unknown #
vertex $-1 $220 $428 #
straight-curve $-1 8.134960825295444 -12.026083307816247 5.7752886225765385 -1 0 0 I I #
coedge $-1 $421 $221 $224 $340 reversed $325 $-1 #
coedge $-1 $221 $421 $331 $425 forward $325 $-1 #
vertex $-1 $222 $429 #
straight-curve $-1 23.235686833604728 -19.015543147567822 33.7759211674813 0 0 1 I I #
straight-curve $-1 23.235686833604728 -19.015543147567811 1.0608383433872888 0 -0.82903756765294845 -0.55919291073839883 I I #
edge $-1 $423 9.3041564675770481 $225 23.235686833604728 $335 $430 forward 7 unknown #
point $-1 23.235686833604728 -19.015543147567822 5.7752886225765385 #
point $-1 23.235686833604728 -12.026083307816247 5.7752886225765385 #
edge $-1 $431 1 $431 0 $228 $-1 forward 7 unknown #
vertex $-1 $229 $432 #
ellipse-curve $-1 16.269921650590888 -14.589467852447513 2.0372872075495554 0 -0.55919291073839883 0.82903756765294845 1 0 0 1 I I #
point $-1 17.269921650590888 -15.520813227692038 3.4180634829819114 #
loop $-1 $-1 $239 $232 #
plane-surface $-1 0 19.015543147567822 0 0 -1 0 0 0 -1 forward_v I I I I #
coedge $-1 $433 $434 $236 $351 reversed $233 $-1 #
coedge $-1 $236 $235 $356 $435 reversed $86 $-1 #
edge $-1 $436 -38.031086295135637 $353 -31.987540914718636 $349 $437 forward 7 unknown #
coedge $-1 $242 $237 $434 $438 forward $139 $-1 #
vertex $-1 $438 $439 #
straight-curve $-1 15.905609762919582 15.378446810488164 5.7752886225765394 1 0 0 I I #
coedge $-1 $440 $239 $242 $360 reversed $347 $-1 #
coedge $-1 $239 $440 $350 $435 forward $347 $-1 #
vertex $-1 $240 $441 #
straight-curve $-1 27.838598375686395 19.015543147567822 39.794414729703647 0 0 1 I I #
straight-curve $-1 27.838598375686395 -3.8721355165831426 31.321674939225097 0 0.60181501223851219 -0.79863551827123203 I I #
edge $-1 $442 -35.783840675991932 $243 -27.838598375686395 $355 $443 forward 7 unknown #
point $-1 27.838598375686395 19.015543147567822 5.7752886225765385 #
point $-1 27.838598375686395 15.378446810488164 5.7752886225765394 #
edge $-1 $444 1 $444 0 $246 $-1 forward 7 unknown #
vertex $-1 $247 $445 #
ellipse-curve $-1 30.108667604345115 14.241992377776604 1.1352395091074976 0 0.79863551827123203 0.60181501223851219 1 0 0 1 I I #
point $-1 31.108667604345115 17.196994979027991 3.3619936240340156 #
edge $-1 $446 1 $446 0 $250 $-1 forward 7 unknown #
vertex $-1 $251 $447 #
ellipse-curve $-1 33.513771447333198 14.241992377776604 1.1352395091074976 0 0.79863551827123203 0.60181501223851219 1 0 0 1 I I #
point $-1 34.513771447333198 17.196994979027991 3.3619936240340156 #
plane-surface $-1 40.101321451460308 0 0 -1 0 0 0 0 1 forward_v I I I I #
coedge $-1 $259 $257 $261 $376 reversed $161 $-1 #
edge $-1 $272 -5.7752886225765385 $378 5.7752886225765385 $271 $448 forward 7 unknown #
vertex $-1 $376 $449 #
straight-curve $-1 -40.101321451460308 -19.015543147567822 0 0 0 -1 I I #
edge $-1 $374 -19.015543147567822 $378 19.015543147567822 $372 $450 forward 7 unknown #
straight-curve $-1 0 -19.015543147567822 -5.7752886225765385 -1 0 0 I I #
vertex $-1 $264 $451 #
straight-curve $-1 0 19.015543147567822 -5.7752886225765385 1 0 0 I I #
point $-1 40.101321451460308 19.015543147567822 -5.7752886225765385 #
point $-1 40.101321451460308 -19.015543147567822 -5.7752886225765385 #
straight-curve $-1 -40.101321451460308 0 5.7752886225765385 0 -1 0 I I #
point $-1 -40.101321451460308 19.015543147567822 5.7752886225765385 #
point $-1 -40.101321451460308 -19.015543147567822 5.7752886225765385 #
straight-curve $-1 40.101321451460308 -19.015543147567822 0 0 0 -1 I I #
straight-curve $-1 40.101321451460308 19.015543147567822 0 0 0 -1 I I #
plane-surface $-1 0 -19.015543147567822 0 0 1 0 0 0 1 forward_v I I I I #
coedge $-1 $452 $284 $294 $399 reversed $180 $-1 #
coedge $-1 $284 $452 $297 $401 forward $180 $-1 #
coedge $-1 $453 $287 $285 $391 forward $282 $-1 #
edge $-1 $392 35.783840675991925 $454 40.101321451460308 $285 $455 forward 7 unknown #
vertex $-1 $391 $456 #
straight-curve $-1 -35.783840675991925 19.015543147567822 2.0550330045277954 0 0 -1 I I #
coedge $-1 $287 $453 $289 $396 forward $282 $-1 #
straight-curve $-1 -35.783840675991925 0 5.7752886225765385 0 1 0 I I #
edge $-1 $457 -40.101321451460308 $291 -35.783840675991925 $289 $458 forward 7 unknown #
point $-1 -35.783840675991925 -19.015543147567822 5.7752886225765376 #
straight-curve $-1 -40.101321451460308 0 2.4448433955346438 0 -1 0 I I #
edge $-1 $457 -5.7752886225765385 $295 -2.4448433955346438 $388 $459 forward 7 unknown #
point $-1 -40.101321451460308 -19.015543147567822 2.4448433955346438 #
edge $-1 $454 -5.7752886225765385 $298 -2.4448433955346438 $297 $460 forward 7 unknown #
point $-1 -40.101321451460308 19.015543147567822 2.4448433955346438 #
plane-surface $-1 40.101321451460308 0 0 -1 0 0 0 0 1 forward_v I I I I #
coedge $-1 $305 $316 $306 $406 reversed $196 $-1 #
coedge $-1 $307 $306 $320 $416 forward $116 $-1 #
edge $-1 $410 35.783840675991932 $419 40.101321451460308 $404 $461 forward 7 unknown #
coedge $-1 $318 $311 $307 $408 reversed $303 $-1 #
edge $-1 $417 -40.101321451460308 $409 -35.783840675991932 $407 $462 forward 7 unknown #
vertex $-1 $312 $463 #
vertex $-1 $406 $464 #
straight-curve $-1 35.783840675991932 0 5.7752886225765385 0 -1 0 I I #
straight-curve $-1 35.783840675991932 -19.015543147567822 2.0550330045277954 0 0 -1 I I #
straight-curve $-1 35.783840675991932 19.015543147567822 2.0550330045277954 0 0 1 I I #
point $-1 35.783840675991932 -19.015543147567822 2.4448433955346438 #
point $-1 35.783840675991932 19.015543147567822 2.4448433955346438 #
edge $-1 $419 -19.015543147567822 $417 19.015543147567822 $320 $465 forward 7 unknown #
vertex $-1 $416 $466 #
straight-curve $-1 40.101321451460308 19.015543147567822 0 0 0 -1 I I #
vertex $-1 $416 $467 #
straight-curve $-1 40.101321451460308 -19.015543147567822 0 0 0 -1 I I #
coedge $-1 $336 $335 $328 $422 forward $325 $-1 #
edge $-1 $423 28.000632544904761 $426 32.715082824094019 $421 $468 forward 7 unknown #
vertex $-1 $340 $469 #
straight-curve $-1 9.3041564675770481 -31.932146240682187 5.7752886225765394 0 -1 0 I I #
edge $-1 $426 1.1691956422816041 $337 15.100726008309284 $336 $470 forward 7 unknown #
vertex $-1 $425 $471 #
straight-curve $-1 9.3041564675770481 -19.015543147567811 1.0608383433872888 0 0.82903756765294845 0.55919291073839883 I I #
point $-1 9.3041564675770481 -12.026083307816247 5.7752886225765385 #
point $-1 23.235686833604728 -19.015543147567822 1.0608383433872817 #
straight-curve $-1 0 -19.015543147567822 5.7752886225765385 1 0 0 I I #
vertex $-1 $343 $472 #
point $-1 17.269921650590888 -14.589467852447513 2.0372872075495554 #
coedge $-1 $434 $349 $440 $473 reversed $233 $-1 #
coedge $-1 $349 $433 $352 $438 reversed $233 $-1 #
edge $-1 $436 -19.87823091307235 $357 -11.932988612766813 $356 $474 forward 7 unknown #
vertex $-1 $473 $475 #
straight-curve $-1 35.783840675991932 -3.8721355165831426 31.321674939225097 0 -0.60181501223851219 0.79863551827123203 I I #
edge $-1 $353 15.378446810488164 $442 19.015543147567822 $352 $476 forward 7 unknown #
point $-1 35.783840675991932 15.378446810488164 5.7752886225765394 #
coedge $-1 $356 $355 $433 $473 forward $347 $-1 #
point $-1 27.838598375686395 19.015543147567826 0.94869862549149886 #
vertex $-1 $360 $477 #
straight-curve $-1 0 19.015543147567822 5.7752886225765385 -1 0 0 I I #
vertex $-1 $363 $478 #
point $-1 31.108667604345115 14.241992377776604 1.1352395091074976 #
vertex $-1 $367 $479 #
point $-1 34.513771447333198 14.241992377776604 1.1352395091074976 #
straight-curve $-1 -40.101321451460308 19.015543147567822 0 0 0 -1 I I #
point $-1 -40.101321451460308 -19.015543147567822 -5.7752886225765385 #
straight-curve $-1 -40.101321451460308 0 -5.7752886225765385 0 1 0 I I #
point $-1 -40.101321451460308 19.015543147567822 -5.7752886225765385 #
coedge $-1 $389 $388 $453 $480 reversed $180 $-1 #
coedge $-1 $394 $390 $452 $480 forward $282 $-1 #
vertex $-1 $391 $481 #
straight-curve $-1 0 19.015543147567822 5.7752886225765385 -1 0 0 I I #
point $-1 -35.783840675991925 19.015543147567822 5.7752886225765376 #
vertex $-1 $480 $482 #
straight-curve $-1 0 -19.015543147567822 5.7752886225765385 1 0 0 I I #
straight-curve $-1 -40.101321451460308 -19.015543147567822 0 0 0 -1 I I #
straight-curve $-1 -40.101321451460308 19.015543147567822 0 0 0 -1 I I #
straight-curve $-1 0 -19.015543147567822 5.7752886225765385 1 0 0 I I #
straight-curve $-1 0 19.015543147567822 5.7752886225765385 -1 0 0 I I #
point $-1 35.783840675991932 19.015543147567822 5.7752886225765376 #
point $-1 35.783840675991932 -19.015543147567822 5.7752886225765376 #
straight-curve $-1 40.101321451460308 0 5.7752886225765385 0 1 0 I I #
point $-1 40.101321451460308 19.015543147567822 5.7752886225765385 #
point $-1 40.101321451460308 -19.015543147567822 5.7752886225765385 #
straight-curve $-1 9.3041564675770481 -19.015543147567822 33.7759211674813 0 0 -1 I I #
point $-1 9.3041564675770481 -19.015543147567822 5.7752886225765385 #
straight-curve $-1 8.134960825295444 -19.015543147567822 1.0608383433872821 1 0 0 I I #
point $-1 9.3041564675770481 -19.015543147567822 1.0608383433872817 #
point $-1 16.269921650590888 -14.030274941709113 1.2082496398966072 #
edge $-1 $442 34.019126107127107 $436 38.845716104212144 $440 $483 forward 7 unknown #
straight-curve $-1 15.905609762919582 19.015543147567822 0.94869862549150064 -1 0 0 I I #
point $-1 35.783840675991932 19.015543147567826 0.94869862549149886 #
straight-curve $-1 35.783840675991932 0 5.7752886225765385 0 1 0 I I #
point $-1 35.783840675991932 19.015543147567822 5.7752886225765376 #
point $-1 30.108667604345115 13.443356859505371 0.53342449686898541 #
point $-1 33.513771447333198 13.443356859505371 0.53342449686898541 #
edge $-1 $454 -19.015543147567822 $457 19.015543147567822 $452 $484 forward 7 unknown #
point $-1 -40.101321451460308 19.015543147567822 5.7752886225765385 #
point $-1 -40.101321451460308 -19.015543147567822 5.7752886225765385 #
straight-curve $-1 35.783840675991932 19.015543147567822 39.794414729703647 0 0 -1 I I #
straight-curve $-1 -40.101321451460308 0 5.7752886225765385 0 -1 0 I I #
End-of-ACIS-data 