500 0 7 0           
7 Unknown 11 ACIS 5.0 NT 24 Thu Mar 25 23:25:35 1999 
-1 9.9999999999999995e-007 1e-010 
body $-1 $7 $-1 $8 #
body $-1 $9 $-1 $10 #
body $-1 $11 $-1 $12 #
body $-1 $13 $-1 $14 #
body $-1 $15 $-1 $16 #
body $-1 $17 $-1 $18 #
body $-1 $19 $-1 $20 #
lump $-1 $-1 $21 $0 #
transform $-1 1 0 0 0 1 0 0 0 1 74.459059419537951 35.878145614893057 9.0138270311875566 1 rotate no_reflect no_shear #
lump $-1 $-1 $22 $1 #
transform $-1 1 0 0 0 1 0 0 0 1 74.459059419537951 35.878145614893057 9.0138270311875566 1 rotate no_reflect no_shear #
lump $-1 $-1 $23 $2 #
transform $-1 1 0 0 0 1 0 0 0 1 74.459059419537951 35.878145614893057 9.0138270311875566 1 rotate no_reflect no_shear #
lump $-1 $-1 $24 $3 #
transform $-1 1 0 0 0 1 0 0 0 1 74.459059419537951 35.878145614893057 9.0138270311875566 1 rotate no_reflect no_shear #
lump $-1 $-1 $25 $4 #
transform $-1 1 0 0 0 1 0 0 0 1 74.459059419537951 35.878145614893057 9.0138270311875566 1 rotate no_reflect no_shear #
lump $-1 $-1 $26 $5 #
transform $-1 1 0 0 0 1 0 0 0 1 74.459059419537951 35.878145614893057 9.0138270311875566 1 rotate no_reflect no_shear #
lump $-1 $-1 $27 $6 #
transform $-1 1 0 0 0 1 0 0 0 1 74.459059419537951 35.878145614893057 9.0138270311875566 1 rotate no_reflect no_shear #
shell $-1 $-1 $-1 $28 $-1 $7 #
shell $-1 $-1 $-1 $29 $-1 $9 #
shell $-1 $-1 $-1 $30 $-1 $11 #
shell $-1 $-1 $-1 $31 $-1 $13 #
shell $-1 $-1 $-1 $32 $-1 $15 #
shell $-1 $-1 $-1 $33 $-1 $17 #
shell $-1 $-1 $-1 $34 $-1 $19 #
face $-1 $35 $36 $21 $-1 $37 forward single #
face $-1 $38 $39 $22 $-1 $40 forward single #
face $-1 $41 $42 $23 $-1 $43 reversed single #
face $-1 $44 $45 $24 $-1 $46 forward single #
face $-1 $47 $48 $25 $-1 $49 forward single #
face $-1 $50 $51 $26 $-1 $52 reversed single #
face $-1 $53 $54 $27 $-1 $55 forward single #
face $-1 $56 $57 $21 $-1 $58 reversed single #
loop $-1 $-1 $59 $28 #
plane-surface $-1 0 0 9.0138270311875566 0 0 1 1 0 0 forward_v I I I I #
face $-1 $60 $61 $22 $-1 $62 reversed single #
loop $-1 $-1 $63 $29 #
plane-surface $-1 0 -32.626887611711375 -4.0772526848795891 0 0 1 1 0 0 forward_v I I I I #
face $-1 $64 $65 $23 $-1 $66 reversed single #
loop $-1 $-1 $67 $30 #
plane-surface $-1 89.149916585726018 21.410077058855322 215.55150100298195 0 1 0 0.75470958851134928 0 0.65605901945558964 forward_v I I I I #
face $-1 $68 $69 $24 $-1 $70 forward single #
loop $-1 $71 $72 $31 #
cone-surface $-1 72.300882286023239 25.543810932008959 6.7038848605431056 -0.75470958851134928 0 -0.65605901945558964 0.32802950972779482 0 -0.37735479425567464 1 I I 0 1 0.5 forward I I I I #
face $-1 $73 $74 $25 $-1 $75 forward single #
loop $-1 $76 $77 $32 #
cone-surface $-1 72.300882286023239 31.744411741739412 6.7038848605431056 -0.75470958851134928 0 -0.65605901945558964 0.32802950972779482 0 -0.37735479425567464 1 I I 0 1 0.5 forward I I I I #
face $-1 $78 $79 $26 $-1 $80 reversed single #
loop $-1 $-1 $81 $33 #
plane-surface $-1 -191.80813970084552 21.825614904286308 94.805411203339986 0 1 0 -0.78801076186113728 0 0.61566146476048833 forward_v I I I I #
face $-1 $82 $83 $27 $-1 $84 forward single #
loop $-1 $85 $86 $34 #
cone-surface $-1 -71.041849450540994 25.833105201562674 5.196354799871119 0.78801076186113728 0 -0.61566146476048833 0.9234921971407325 0 1.182016142791706 1 I I 0 1 1.5 forward I I I I #
face $-1 $87 $88 $21 $-1 $89 reversed single #
loop $-1 $-1 $90 $35 #
plane-surface $-1 0 0 -9.0138270311875566 0 0 1 1 0 0 forward_v I I I I #
coedge $-1 $91 $92 $93 $94 forward $36 $-1 #
face $-1 $95 $96 $22 $-1 $97 reversed single #
loop $-1 $-1 $98 $38 #
plane-surface $-1 0 -29.375629608529692 -6.5455398580335729 0 -1 0 0 0 -1 forward_v I I I I #
coedge $-1 $99 $100 $101 $102 reversed $39 $-1 #
face $-1 $103 $104 $23 $-1 $105 forward single #
loop $-1 $-1 $106 $41 #
plane-surface $-1 -23.240015605197172 28.64411133687419 117.85242597824684 0.75470958851134928 0 0.65605901945558964 0.65605901945558964 0 -0.75470958851134928 forward_v I I I I #
coedge $-1 $107 $108 $109 $110 reversed $42 $-1 #
face $-1 $-1 $111 $24 $-1 $112 forward single #
loop $-1 $113 $114 $44 #
cone-surface $-1 71.497591161223326 25.543810932008959 6.0055945569667024 -0.75470958851134928 0 -0.65605901945558964 0.16401475486389741 0 -0.18867739712783732 1 I I -0.70710678118654746 0.70710678118654746 0.25 forward I I I I #
loop $-1 $-1 $115 $31 #
coedge $-1 $72 $72 $116 $117 reversed $45 $-1 #
face $-1 $-1 $118 $25 $-1 $119 forward single #
loop $-1 $120 $121 $47 #
cone-surface $-1 71.497591161223326 31.744411741739412 6.0055945569667024 -0.75470958851134928 0 -0.65605901945558964 0.16401475486389741 0 -0.18867739712783732 1 I I -0.70710678118654746 0.70710678118654746 0.25 forward I I I I #
loop $-1 $-1 $122 $32 #
coedge $-1 $77 $77 $123 $124 reversed $48 $-1 #
face $-1 $125 $126 $26 $-1 $127 reversed single #
loop $-1 $-1 $128 $50 #
plane-surface $-1 -74.459059419537937 25.833105201562674 3.1222640294980408 -0.78801076186113728 0 0.61566146476048833 0.61566146476048833 0 0.78801076186113728 forward_v I I I I #
coedge $-1 $129 $130 $131 $132 reversed $51 $-1 #
face $-1 $-1 $133 $27 $-1 $134 forward single #
loop $-1 $135 $136 $53 #
cone-surface $-1 -69.335128091984132 25.833105201562674 3.8629179708290682 0.78801076186113728 0 -0.61566146476048833 0.46174609857036625 0 0.59100807139585299 1 I I -0.70710678118654724 0.70710678118654768 0.75 forward I I I I #
loop $-1 $-1 $137 $34 #
coedge $-1 $86 $86 $138 $139 reversed $54 $-1 #
face $-1 $140 $141 $21 $-1 $142 reversed single #
loop $-1 $-1 $143 $56 #
plane-surface $-1 0 -35.878145614893057 0 0 1 0 0 0 1 forward_v I I I I #
coedge $-1 $144 $145 $146 $147 forward $57 $-1 #
coedge $-1 $148 $59 $149 $150 forward $36 $-1 #
coedge $-1 $59 $148 $151 $152 forward $36 $-1 #
coedge $-1 $153 $154 $59 $94 reversed $155 $-1 #
edge $-1 $156 -35.878145614893057 $157 35.878145614893057 $93 $158 forward 7 unknown #
face $-1 $159 $160 $22 $-1 $161 reversed single #
loop $-1 $-1 $162 $60 #
plane-surface $-1 0 0 -9.0138270311875566 0 0 1 1 0 0 forward_v I I I I #
coedge $-1 $163 $164 $165 $166 reversed $61 $-1 #
coedge $-1 $167 $63 $164 $168 forward $39 $-1 #
coedge $-1 $63 $167 $169 $170 reversed $39 $-1 #
coedge $-1 $171 $165 $63 $102 forward $160 $-1 #
edge $-1 $172 13.062185802674005 $173 19.56470180903737 $101 $174 forward 7 unknown #
face $-1 $175 $176 $23 $-1 $177 reversed single #
loop $-1 $-1 $178 $64 #
plane-surface $-1 0 0 9.0138270311875566 0 0 1 1 0 0 forward_v I I I I #
coedge $-1 $179 $180 $181 $182 reversed $65 $-1 #
coedge $-1 $108 $67 $183 $184 reversed $42 $-1 #
coedge $-1 $67 $107 $179 $185 reversed $42 $-1 #
coedge $-1 $181 $186 $67 $110 forward $187 $-1 #
edge $-1 $188 98.761923470303415 $189 102.31325671416734 $109 $190 forward 7 unknown #
loop $-1 $-1 $116 $68 #
plane-surface $-1 -23.240015605197172 28.64411133687419 117.85242597824684 0.75470958851134928 0 0.65605901945558964 0.65605901945558964 0 -0.75470958851134928 forward_v I I I I #
loop $-1 $-1 $191 $44 #
coedge $-1 $114 $114 $115 $192 reversed $69 $-1 #
coedge $-1 $115 $115 $114 $192 forward $71 $-1 #
coedge $-1 $116 $116 $72 $117 forward $111 $-1 #
edge $-1 $193 0 $193 6.2831853071796004 $116 $194 forward 7 unknown #
loop $-1 $-1 $123 $73 #
plane-surface $-1 -23.240015605197172 28.64411133687419 117.85242597824684 0.75470958851134928 0 0.65605901945558964 0.65605901945558964 0 -0.75470958851134928 forward_v I I I I #
loop $-1 $-1 $195 $47 #
coedge $-1 $121 $121 $122 $196 reversed $74 $-1 #
coedge $-1 $122 $122 $121 $196 forward $76 $-1 #
coedge $-1 $123 $123 $77 $124 forward $118 $-1 #
edge $-1 $197 0 $197 6.2831853071796004 $123 $198 forward 7 unknown #
face $-1 $199 $200 $26 $-1 $201 reversed single #
loop $-1 $-1 $202 $78 #
plane-surface $-1 -191.80813970084552 29.84059549883904 94.805411203339986 0 -1 0 0.78801076186113728 0 -0.61566146476048833 forward_v I I I I #
coedge $-1 $203 $204 $205 $206 reversed $79 $-1 #
coedge $-1 $130 $81 $207 $208 reversed $51 $-1 #
coedge $-1 $81 $129 $203 $209 reversed $51 $-1 #
coedge $-1 $205 $210 $81 $132 forward $211 $-1 #
edge $-1 $212 21.445010430884807 $213 26.048003794556735 $131 $214 forward 7 unknown #
loop $-1 $-1 $138 $82 #
plane-surface $-1 -74.459059419537937 25.833105201562674 3.1222640294980408 -0.78801076186113728 0 0.61566146476048833 0.61566146476048833 0 0.78801076186113728 forward_v I I I I #
loop $-1 $-1 $215 $53 #
coedge $-1 $136 $136 $137 $216 reversed $83 $-1 #
coedge $-1 $137 $137 $136 $216 forward $85 $-1 #
coedge $-1 $138 $138 $86 $139 forward $133 $-1 #
edge $-1 $217 0 $217 6.2831853071796004 $138 $218 forward 7 unknown #
face $-1 $219 $220 $21 $-1 $221 reversed single #
loop $-1 $-1 $222 $87 #
plane-surface $-1 -74.459059419537951 0 0 1 0 0 0 0 -1 forward_v I I I I #
coedge $-1 $223 $151 $224 $225 forward $88 $-1 #
coedge $-1 $226 $90 $223 $227 forward $57 $-1 #
coedge $-1 $90 $226 $228 $229 forward $57 $-1 #
coedge $-1 $154 $153 $90 $147 reversed $155 $-1 #
edge $-1 $230 -35.878145614893057 $231 35.878145614893057 $146 $232 forward 7 unknown #
coedge $-1 $92 $91 $233 $234 forward $36 $-1 #
coedge $-1 $235 $236 $91 $150 reversed $220 $-1 #
edge $-1 $157 -74.459059419537951 $237 74.459059419537951 $149 $238 forward 7 unknown #
coedge $-1 $143 $239 $92 $152 reversed $88 $-1 #
edge $-1 $240 -74.459059419537951 $156 74.459059419537951 $151 $241 forward 7 unknown #
coedge $-1 $146 $93 $239 $242 forward $155 $-1 #
coedge $-1 $93 $146 $235 $243 reversed $155 $-1 #
loop $-1 $-1 $153 $219 #
vertex $-1 $94 $244 #
vertex $-1 $94 $245 #
straight-curve $-1 74.459059419537951 0 9.0138270311875566 0 1 0 I I #
face $-1 $246 $247 $22 $-1 $248 reversed single #
loop $-1 $-1 $165 $95 #
plane-surface $-1 74.459059419537951 0 0 -1 0 0 0 0 1 forward_v I I I I #
coedge $-1 $249 $250 $163 $251 forward $96 $-1 #
coedge $-1 $252 $98 $162 $251 reversed $61 $-1 #
coedge $-1 $98 $252 $99 $168 reversed $61 $-1 #
coedge $-1 $101 $253 $98 $166 forward $160 $-1 #
edge $-1 $254 -5.7410571021707701 $172 -0.80448275586280271 $165 $255 forward 7 unknown #
coedge $-1 $100 $99 $256 $257 reversed $39 $-1 #
edge $-1 $172 -74.459059419537951 $258 74.459059419537951 $164 $259 forward 7 unknown #
coedge $-1 $260 $261 $100 $170 forward $247 $-1 #
edge $-1 $173 -74.459059419537951 $262 74.459059419537951 $169 $263 forward 7 unknown #
coedge $-1 $253 $101 $261 $264 forward $160 $-1 #
vertex $-1 $102 $265 #
vertex $-1 $264 $266 #
straight-curve $-1 74.459059419537951 -16.313443805855687 -4.0772526848795891 0 -1 0 I I #
face $-1 $-1 $187 $23 $-1 $267 reversed single #
loop $-1 $-1 $268 $103 #
plane-surface $-1 0 35.878145614893057 0 0 -1 0 0 0 -1 forward_v I I I I #
coedge $-1 $183 $269 $270 $271 forward $104 $-1 #
coedge $-1 $270 $106 $108 $185 forward $65 $-1 #
coedge $-1 $106 $270 $268 $272 reversed $65 $-1 #
coedge $-1 $273 $109 $106 $182 forward $187 $-1 #
edge $-1 $189 7.088021390418227 $274 21.556089946455963 $181 $275 forward 7 unknown #
coedge $-1 $276 $178 $107 $184 forward $104 $-1 #
edge $-1 $277 26.796974314989605 $188 29.884101126674942 $183 $278 forward 7 unknown #
edge $-1 $189 -148.91811883907596 $277 -144.21255619892341 $108 $279 forward 7 unknown #
coedge $-1 $109 $273 $276 $280 reversed $187 $-1 #
loop $-1 $-1 $181 $175 #
vertex $-1 $280 $281 #
vertex $-1 $110 $282 #
straight-curve $-1 74.459059419537951 21.410077058855322 107.77575050149098 0 0 -1 I I #
coedge $-1 $191 $191 $-1 $283 reversed $113 $-1 #
edge $-1 $284 0 $284 6.2831853071796004 $114 $285 forward 7 unknown #
vertex $-1 $117 $286 #
ellipse-curve $-1 72.915496013695275 25.543810932008959 7.2381604092555776 0.75470958851134928 0 0.65605901945558964 0.32802950972779482 0 -0.37735479425567464 1 I I #
coedge $-1 $195 $195 $-1 $287 reversed $120 $-1 #
edge $-1 $288 0 $288 6.2831853071796004 $121 $289 forward 7 unknown #
vertex $-1 $124 $290 #
ellipse-curve $-1 72.915496013695275 31.744411741739412 7.2381604092555776 0.75470958851134928 0 0.65605901945558964 0.32802950972779482 0 -0.37735479425567464 1 I I #
face $-1 $-1 $211 $26 $-1 $291 forward single #
loop $-1 $-1 $292 $125 #
plane-surface $-1 -74.459059419537951 0 0 1 0 0 0 0 -1 forward_v I I I I #
coedge $-1 $293 $294 $295 $296 reversed $126 $-1 #
coedge $-1 $297 $128 $130 $209 forward $79 $-1 #
coedge $-1 $128 $297 $293 $298 forward $79 $-1 #
coedge $-1 $295 $131 $128 $206 forward $211 $-1 #
edge $-1 $213 8.909062303504971 $299 16.924042898057703 $205 $300 forward 7 unknown #
coedge $-1 $301 $302 $129 $208 forward $200 $-1 #
edge $-1 $303 -44.280441572171974 $212 -38.388878570482433 $207 $304 forward 7 unknown #
edge $-1 $213 -7.476500686075302 $303 2.3096905769578348e-014 $130 $305 forward 7 unknown #
coedge $-1 $131 $295 $301 $306 forward $211 $-1 #
loop $-1 $-1 $295 $199 #
vertex $-1 $208 $307 #
vertex $-1 $132 $308 #
straight-curve $-1 -95.904069850422758 21.825614904286308 9.0138270311875601 1 0 0 I I #
coedge $-1 $215 $215 $-1 $309 reversed $135 $-1 #
edge $-1 $310 0 $310 6.2831853071796004 $136 $311 forward 7 unknown #
vertex $-1 $139 $312 #
ellipse-curve $-1 -72.15756273770198 25.833105201562674 6.0680455303427916 -0.78801076186113728 0 0.61566146476048833 0.9234921971407325 0 1.182016142791706 1 I I #
face $-1 $-1 $155 $21 $-1 $313 reversed single #
loop $-1 $-1 $235 $140 #
plane-surface $-1 0 35.878145614893057 0 0 -1 0 0 0 -1 forward_v I I I I #
coedge $-1 $314 $233 $236 $315 forward $141 $-1 #
coedge $-1 $239 $143 $144 $227 reversed $88 $-1 #
coedge $-1 $233 $314 $143 $225 reversed $141 $-1 #
edge $-1 $240 -9.0138270311875566 $316 9.0138270311875566 $224 $317 forward 7 unknown #
coedge $-1 $145 $144 $314 $318 forward $57 $-1 #
edge $-1 $231 -74.459059419537951 $316 74.459059419537951 $223 $319 forward 7 unknown #
coedge $-1 $236 $235 $145 $229 reversed $220 $-1 #
edge $-1 $320 -74.459059419537951 $230 74.459059419537951 $228 $321 forward 7 unknown #
vertex $-1 $147 $322 #
vertex $-1 $242 $323 #
straight-curve $-1 74.459059419537951 0 -9.0138270311875566 0 -1 0 I I #
coedge $-1 $222 $224 $148 $234 reversed $141 $-1 #
edge $-1 $237 -35.878145614893057 $240 35.878145614893057 $233 $324 forward 7 unknown #
coedge $-1 $228 $149 $154 $243 forward $220 $-1 #
coedge $-1 $149 $228 $222 $315 reversed $220 $-1 #
vertex $-1 $150 $325 #
straight-curve $-1 0 35.878145614893057 9.0138270311875566 -1 0 0 I I #
coedge $-1 $151 $223 $153 $242 reversed $88 $-1 #
vertex $-1 $234 $326 #
straight-curve $-1 0 -35.878145614893057 9.0138270311875566 1 0 0 I I #
edge $-1 $156 -9.0138270311875566 $231 9.0138270311875566 $153 $327 forward 7 unknown #
edge $-1 $157 -9.0138270311875566 $230 9.0138270311875566 $154 $328 forward 7 unknown #
point $-1 74.459059419537951 -35.878145614893057 9.0138270311875566 #
point $-1 74.459059419537951 35.878145614893057 9.0138270311875566 #
face $-1 $-1 $329 $22 $-1 $330 reversed single #
loop $-1 $-1 $169 $159 #
plane-surface $-1 0 -35.878145614893057 0 0 1 0 0 0 1 forward_v I I I I #
coedge $-1 $331 $162 $253 $332 forward $96 $-1 #
coedge $-1 $162 $331 $333 $334 forward $96 $-1 #
edge $-1 $335 -74.459059419537951 $254 74.459059419537951 $162 $336 forward 7 unknown #
coedge $-1 $164 $163 $337 $338 reversed $61 $-1 #
coedge $-1 $165 $171 $249 $332 reversed $160 $-1 #
vertex $-1 $332 $339 #
straight-curve $-1 74.459059419537951 -29.375629608529692 -3.2727699290167864 0 0 1 I I #
coedge $-1 $337 $340 $167 $257 forward $329 $-1 #
edge $-1 $262 -19.56470180903737 $258 -13.062185802674005 $256 $341 forward 7 unknown #
vertex $-1 $257 $342 #
straight-curve $-1 0 -29.375629608529692 -4.0772526848795891 -1 0 0 I I #
coedge $-1 $343 $169 $340 $344 forward $247 $-1 #
coedge $-1 $169 $343 $171 $264 reversed $247 $-1 #
vertex $-1 $344 $345 #
straight-curve $-1 0 -35.878145614893057 -4.0772526848795891 -1 0 0 I I #
edge $-1 $173 4.0772526848795891 $346 9.0138270311875566 $171 $347 forward 7 unknown #
point $-1 74.459059419537951 -29.375629608529692 -4.0772526848795891 #
point $-1 74.459059419537951 -35.878145614893057 -4.0772526848795891 #
plane-surface $-1 74.459059419537951 0 0 -1 0 0 0 0 1 forward_v I I I I #
coedge $-1 $348 $349 $180 $272 forward $176 $-1 #
coedge $-1 $178 $276 $348 $350 forward $104 $-1 #
coedge $-1 $180 $179 $178 $271 reversed $65 $-1 #
edge $-1 $351 -21.556089946455963 $277 -7.088021390418227 $178 $352 forward 7 unknown #
edge $-1 $274 -96.822529956483336 $351 -92.116967316330786 $268 $353 forward 7 unknown #
coedge $-1 $186 $181 $349 $354 reversed $187 $-1 #
vertex $-1 $182 $355 #
straight-curve $-1 74.459059419537951 14.322055668437095 5.4624937873236306 0 1 0 I I #
coedge $-1 $269 $183 $186 $280 forward $104 $-1 #
vertex $-1 $184 $356 #
straight-curve $-1 44.574958292863009 21.410077058855322 9.0138270311875601 1 0 0 I I #
straight-curve $-1 -23.240015605197172 21.410077058855322 117.85242597824684 -0.65605901945558964 0 0.75470958851134928 I I #
edge $-1 $188 21.410077058855322 $357 35.878145614893057 $186 $358 forward 7 unknown #
point $-1 74.459059419537951 21.410077058855322 9.0138270311875566 #
point $-1 74.459059419537951 21.410077058855322 5.4624937873236377 #
edge $-1 $359 1 $359 0 $191 $-1 forward 7 unknown #
vertex $-1 $192 $360 #
ellipse-curve $-1 71.686268558351159 25.543810932008959 6.1696093118305999 0.75470958851134928 0 0.65605901945558964 0.32802950972779482 0 -0.37735479425567464 1 I I #
point $-1 73.243525523423116 25.543810932008959 6.8608056149999372 #
edge $-1 $361 1 $361 0 $195 $-1 forward 7 unknown #
vertex $-1 $196 $362 #
ellipse-curve $-1 71.686268558351159 31.744411741739412 6.1696093118305999 0.75470958851134928 0 0.65605901945558964 0.32802950972779482 0 -0.37735479425567464 1 I I #
point $-1 73.243525523423116 31.744411741739412 6.8608056149999372 #
plane-surface $-1 0 0 9.0138270311875566 0 0 1 1 0 0 forward_v I I I I #
coedge $-1 $302 $301 $294 $363 forward $200 $-1 #
coedge $-1 $294 $202 $204 $298 reversed $126 $-1 #
coedge $-1 $202 $293 $292 $363 reversed $126 $-1 #
coedge $-1 $210 $205 $202 $296 forward $211 $-1 #
edge $-1 $299 -26.048003794556735 $364 -21.445010430884807 $295 $365 forward 7 unknown #
coedge $-1 $204 $203 $302 $366 reversed $79 $-1 #
edge $-1 $367 -2.3096905769578348e-014 $299 7.476500686075302 $293 $368 forward 7 unknown #
vertex $-1 $206 $369 #
straight-curve $-1 -69.856066055866023 12.916552600781337 9.0138270311875583 0 1 0 I I #
coedge $-1 $292 $207 $210 $306 reversed $200 $-1 #
coedge $-1 $207 $292 $297 $366 forward $200 $-1 #
vertex $-1 $208 $370 #
straight-curve $-1 -74.459059419537951 21.825614904286308 47.402705601669993 0 0 1 I I #
straight-curve $-1 -74.459059419537937 21.825614904286308 3.1222640294980408 -0.61566146476048833 0 -0.78801076186113728 I I #
edge $-1 $364 -29.84059549883904 $212 -21.825614904286308 $301 $371 forward 7 unknown #
point $-1 -74.459059419537951 21.825614904286308 9.0138270311875566 #
point $-1 -69.856066055866023 21.825614904286308 9.0138270311875566 #
edge $-1 $372 1 $372 0 $215 $-1 forward 7 unknown #
vertex $-1 $216 $373 #
ellipse-curve $-1 -69.926136163379979 25.833105201562674 4.3246640693994349 -0.78801076186113728 0 0.61566146476048833 0.9234921971407325 0 1.182016142791706 1 I I #
point $-1 -71.234070540561262 25.833105201562674 7.2500616731345104 #
plane-surface $-1 74.459059419537951 0 0 -1 0 0 0 0 1 forward_v I I I I #
coedge $-1 $224 $222 $226 $318 reversed $141 $-1 #
edge $-1 $237 -9.0138270311875566 $320 9.0138270311875566 $236 $374 forward 7 unknown #
vertex $-1 $318 $375 #
straight-curve $-1 -74.459059419537951 -35.878145614893057 0 0 0 -1 I I #
edge $-1 $316 -35.878145614893057 $320 35.878145614893057 $314 $376 forward 7 unknown #
straight-curve $-1 0 -35.878145614893057 -9.0138270311875566 -1 0 0 I I #
vertex $-1 $229 $377 #
straight-curve $-1 0 35.878145614893057 -9.0138270311875566 1 0 0 I I #
point $-1 74.459059419537951 35.878145614893057 -9.0138270311875566 #
point $-1 74.459059419537951 -35.878145614893057 -9.0138270311875566 #
straight-curve $-1 -74.459059419537951 0 9.0138270311875566 0 -1 0 I I #
point $-1 -74.459059419537951 35.878145614893057 9.0138270311875566 #
point $-1 -74.459059419537951 -35.878145614893057 9.0138270311875566 #
straight-curve $-1 74.459059419537951 -35.878145614893057 0 0 0 -1 I I #
straight-curve $-1 74.459059419537951 35.878145614893057 0 0 0 -1 I I #
loop $-1 $-1 $337 $246 #
plane-surface $-1 -74.459059419537951 0 0 1 0 0 0 0 -1 forward_v I I I I #
coedge $-1 $250 $249 $343 $378 forward $96 $-1 #
edge $-1 $254 29.375629608529692 $346 35.878145614893057 $253 $379 forward 7 unknown #
coedge $-1 $340 $337 $250 $334 reversed $329 $-1 #
edge $-1 $380 -35.878145614893057 $335 -29.375629608529692 $333 $381 forward 7 unknown #
vertex $-1 $338 $382 #
straight-curve $-1 0 -29.375629608529692 -9.0138270311875566 1 0 0 I I #
coedge $-1 $333 $256 $252 $338 forward $329 $-1 #
edge $-1 $258 0.80448275586280271 $335 5.7410571021707701 $337 $383 forward 7 unknown #
point $-1 74.459059419537951 -29.375629608529692 -9.0138270311875566 #
coedge $-1 $256 $333 $260 $344 reversed $329 $-1 #
straight-curve $-1 -74.459059419537951 -16.313443805855687 -4.0772526848795891 0 1 0 I I #
point $-1 -74.459059419537951 -29.375629608529692 -4.0772526848795891 #
coedge $-1 $261 $260 $331 $378 reversed $247 $-1 #
edge $-1 $262 4.0772526848795891 $380 9.0138270311875566 $340 $384 forward 7 unknown #
point $-1 -74.459059419537951 -35.878145614893057 -4.0772526848795891 #
vertex $-1 $264 $385 #
straight-curve $-1 74.459059419537951 -35.878145614893057 0 0 0 -1 I I #
coedge $-1 $349 $268 $269 $350 reversed $176 $-1 #
coedge $-1 $268 $348 $273 $354 forward $176 $-1 #
edge $-1 $357 -74.459059419537951 $351 -71.371932607852614 $348 $386 forward 7 unknown #
vertex $-1 $271 $387 #
straight-curve $-1 71.371932607852614 14.322055668437095 9.0138270311875459 0 -1 0 I I #
straight-curve $-1 10.937765355078042 35.878145614893057 78.535385529408956 -0.65605901945558975 0 0.75470958851134939 I I #
edge $-1 $357 -9.0138270311875566 $274 -5.4624937873236403 $273 $388 forward 7 unknown #
point $-1 74.459059419537951 35.878145614893057 5.4624937873236403 #
point $-1 71.371932607852614 21.410077058855322 9.0138270311875459 #
vertex $-1 $280 $389 #
straight-curve $-1 74.459059419537951 0 9.0138270311875566 0 1 0 I I #
vertex $-1 $283 $390 #
point $-1 72.014298068078958 25.543810932008959 5.7922545175749249 #
vertex $-1 $287 $391 #
point $-1 72.014298068078958 31.744411741739412 5.7922545175749249 #
edge $-1 $364 38.388878570482433 $367 44.280441572171974 $292 $392 forward 7 unknown #
vertex $-1 $306 $393 #
straight-curve $-1 -95.904069850422758 29.84059549883904 9.0138270311875601 -1 0 0 I I #
edge $-1 $367 -16.924042898057703 $303 -8.909062303504971 $302 $394 forward 7 unknown #
vertex $-1 $366 $395 #
straight-curve $-1 -74.459059419537937 29.84059549883904 3.1222640294980408 0.61566146476048833 0 0.78801076186113728 I I #
point $-1 -69.856066055866023 29.84059549883904 9.0138270311875566 #
point $-1 -74.459059419537951 21.825614904286308 3.1222640294980226 #
straight-curve $-1 -74.459059419537951 0 9.0138270311875566 0 -1 0 I I #
vertex $-1 $309 $396 #
point $-1 -69.002643966239248 25.833105201562674 5.5066802121911405 #
straight-curve $-1 -74.459059419537951 35.878145614893057 0 0 0 -1 I I #
point $-1 -74.459059419537951 -35.878145614893057 -9.0138270311875566 #
straight-curve $-1 -74.459059419537951 0 -9.0138270311875566 0 1 0 I I #
point $-1 -74.459059419537951 35.878145614893057 -9.0138270311875566 #
edge $-1 $346 -74.459059419537951 $380 74.459059419537951 $343 $397 forward 7 unknown #
straight-curve $-1 74.459059419537951 0 -9.0138270311875566 0 -1 0 I I #
vertex $-1 $334 $398 #
straight-curve $-1 -74.459059419537951 0 -9.0138270311875566 0 1 0 I I #
point $-1 -74.459059419537951 -29.375629608529692 -9.0138270311875566 #
straight-curve $-1 -74.459059419537951 -29.375629608529692 -3.2727699290167864 0 0 -1 I I #
straight-curve $-1 -74.459059419537951 -35.878145614893057 0 0 0 -1 I I #
point $-1 74.459059419537951 -35.878145614893057 -9.0138270311875566 #
straight-curve $-1 0 35.878145614893057 9.0138270311875566 -1 0 0 I I #
point $-1 71.371932607852614 35.878145614893057 9.0138270311875459 #
straight-curve $-1 74.459059419537951 35.878145614893057 0 0 0 -1 I I #
point $-1 74.459059419537951 35.878145614893057 9.0138270311875566 #
point $-1 71.308913764095493 25.543810932008959 5.8415798021028049 #
point $-1 71.308913764095493 31.744411741739412 5.8415798021028049 #
straight-curve $-1 -74.459059419537951 29.84059549883904 47.402705601669993 0 0 -1 I I #
point $-1 -74.459059419537951 29.84059549883904 9.0138270311875566 #
straight-curve $-1 -74.459059419537951 12.916552600781337 3.1222640294980226 0 -1 0 I I #
point $-1 -74.459059419537951 29.84059549883904 3.1222640294980226 #
point $-1 -68.744120020588284 25.833105201562674 3.4011718722587014 #
straight-curve $-1 0 -35.878145614893057 -9.0138270311875566 -1 0 0 I I #
point $-1 -74.459059419537951 -35.878145614893057 -9.0138270311875566 #
End-of-ACIS-data 