500 0 3 0           
7 Unknown 11 ACIS 5.0 NT 24 Thu Mar 25 19:06:34 1999 
-1 9.9999999999999995e-007 1e-010 
body $-1 $3 $-1 $4 #
body $-1 $5 $-1 $6 #
body $-1 $7 $-1 $8 #
lump $-1 $-1 $9 $0 #
transform $-1 1 0 0 0 1 0 0 0 1 53.646656697286907 36.172977764250504 13.370765467850253 1 rotate no_reflect no_shear #
lump $-1 $-1 $10 $1 #
transform $-1 1 0 0 0 1 0 0 0 1 53.646656697286907 36.172977764250504 13.370765467850253 1 rotate no_reflect no_shear #
lump $-1 $-1 $11 $2 #
transform $-1 1 0 0 0 1 0 0 0 1 53.646656697286907 36.172977764250504 13.370765467850253 1 rotate no_reflect no_shear #
shell $-1 $-1 $-1 $12 $-1 $3 #
shell $-1 $-1 $-1 $13 $-1 $5 #
shell $-1 $-1 $-1 $14 $-1 $7 #
face $-1 $15 $16 $9 $-1 $17 forward single #
face $-1 $18 $19 $10 $-1 $20 forward single #
face $-1 $21 $22 $11 $-1 $23 forward single #
face $-1 $24 $25 $9 $-1 $26 reversed single #
loop $-1 $-1 $27 $12 #
plane-surface $-1 0 0 13.370765467850253 0 0 1 1 0 0 forward_v I I I I #
face $-1 $28 $29 $10 $-1 $30 reversed single #
loop $-1 $-1 $31 $13 #
plane-surface $-1 0 -29.655240688603875 -0.0233792776973889 0 0 1 1 0 0 forward_v I I I I #
face $-1 $32 $33 $11 $-1 $34 reversed single #
loop $-1 $-1 $35 $14 #
plane-surface $-1 0 29.534586740011264 -6.2310125642894807 0 0 1 1 0 0 forward_v I I I I #
face $-1 $36 $37 $9 $-1 $38 reversed single #
loop $-1 $-1 $39 $15 #
plane-surface $-1 0 0 -13.370765467850253 0 0 1 1 0 0 forward_v I I I I #
coedge $-1 $40 $41 $42 $43 forward $16 $-1 #
face $-1 $44 $45 $10 $-1 $46 reversed single #
loop $-1 $-1 $47 $18 #
plane-surface $-1 0 -29.655240688603875 -3.0233792776973889 0 0 1 1 0 0 forward_v I I I I #
coedge $-1 $48 $49 $50 $51 reversed $19 $-1 #
face $-1 $52 $53 $11 $-1 $54 reversed single #
loop $-1 $-1 $55 $21 #
plane-surface $-1 0 22.896195715772031 -9.800889016069867 0 1 0 0 0 1 forward_v I I I I #
coedge $-1 $56 $57 $58 $59 reversed $22 $-1 #
face $-1 $60 $61 $9 $-1 $62 reversed single #
loop $-1 $-1 $63 $24 #
plane-surface $-1 0 -36.172977764250504 0 0 1 0 0 0 1 forward_v I I I I #
coedge $-1 $64 $65 $66 $67 forward $25 $-1 #
coedge $-1 $68 $27 $69 $70 forward $16 $-1 #
coedge $-1 $27 $68 $71 $72 forward $16 $-1 #
coedge $-1 $73 $74 $27 $43 reversed $75 $-1 #
edge $-1 $76 -36.172977764250504 $77 36.172977764250504 $42 $78 forward 7 unknown #
face $-1 $79 $80 $10 $-1 $81 reversed single #
loop $-1 $-1 $82 $28 #
plane-surface $-1 0 -23.137503612957246 -1.5233792776973889 0 -1 0 0 0 -1 forward_v I I I I #
coedge $-1 $83 $84 $85 $86 reversed $29 $-1 #
coedge $-1 $87 $31 $88 $89 forward $19 $-1 #
coedge $-1 $31 $87 $90 $91 reversed $19 $-1 #
coedge $-1 $92 $93 $31 $51 forward $94 $-1 #
edge $-1 $95 8.3098832686553088 $96 21.345357419948567 $50 $97 forward 7 unknown #
face $-1 $98 $99 $11 $-1 $100 reversed single #
loop $-1 $-1 $58 $32 #
plane-surface $-1 53.646656697286907 0 0 -1 0 0 0 0 1 forward_v I I I I #
coedge $-1 $101 $102 $103 $104 reversed $33 $-1 #
coedge $-1 $105 $35 $106 $107 reversed $22 $-1 #
coedge $-1 $35 $105 $102 $108 forward $22 $-1 #
coedge $-1 $109 $110 $35 $59 forward $53 $-1 #
edge $-1 $111 -21.405684394244865 $112 -8.1289023457663987 $58 $113 forward 7 unknown #
face $-1 $114 $115 $9 $-1 $116 reversed single #
loop $-1 $-1 $117 $36 #
plane-surface $-1 -53.646656697286907 0 0 1 0 0 0 0 -1 forward_v I I I I #
coedge $-1 $118 $71 $119 $120 forward $37 $-1 #
coedge $-1 $121 $39 $118 $122 forward $25 $-1 #
coedge $-1 $39 $121 $123 $124 forward $25 $-1 #
coedge $-1 $74 $73 $39 $67 reversed $75 $-1 #
edge $-1 $125 -36.172977764250504 $126 36.172977764250504 $66 $127 forward 7 unknown #
coedge $-1 $41 $40 $128 $129 forward $16 $-1 #
coedge $-1 $130 $131 $40 $70 reversed $115 $-1 #
edge $-1 $77 -53.646656697286907 $132 53.646656697286907 $69 $133 forward 7 unknown #
coedge $-1 $63 $134 $41 $72 reversed $37 $-1 #
edge $-1 $135 -53.646656697286907 $76 53.646656697286907 $71 $136 forward 7 unknown #
coedge $-1 $66 $42 $134 $137 forward $75 $-1 #
coedge $-1 $42 $66 $130 $138 reversed $75 $-1 #
loop $-1 $-1 $73 $114 #
vertex $-1 $43 $139 #
vertex $-1 $43 $140 #
straight-curve $-1 53.646656697286907 0 13.370765467850253 0 1 0 I I #
face $-1 $141 $142 $10 $-1 $143 reversed single #
loop $-1 $-1 $144 $44 #
plane-surface $-1 -53.646656697286907 0 0 1 0 0 0 0 -1 forward_v I I I I #
coedge $-1 $145 $88 $93 $146 reversed $45 $-1 #
coedge $-1 $147 $47 $148 $149 reversed $29 $-1 #
coedge $-1 $47 $147 $145 $150 forward $29 $-1 #
coedge $-1 $93 $92 $47 $86 forward $94 $-1 #
edge $-1 $151 -21.345357419948567 $152 -8.3098832686553088 $85 $153 forward 7 unknown #
coedge $-1 $49 $48 $144 $154 reversed $19 $-1 #
coedge $-1 $82 $155 $48 $89 reversed $45 $-1 #
edge $-1 $95 -53.646656697286907 $156 53.646656697286907 $88 $157 forward 7 unknown #
coedge $-1 $158 $159 $49 $91 forward $142 $-1 #
edge $-1 $96 -53.646656697286907 $160 53.646656697286907 $90 $161 forward 7 unknown #
coedge $-1 $85 $50 $159 $162 forward $94 $-1 #
coedge $-1 $50 $85 $82 $146 forward $94 $-1 #
loop $-1 $-1 $50 $141 #
vertex $-1 $51 $163 #
vertex $-1 $162 $164 #
straight-curve $-1 53.646656697286907 -14.827620344301938 -0.0233792776973889 0 -1 0 I I #
face $-1 $165 $166 $11 $-1 $167 reversed single #
loop $-1 $-1 $168 $52 #
plane-surface $-1 0 0 -13.370765467850253 0 0 1 1 0 0 forward_v I I I I #
coedge $-1 $169 $55 $168 $170 reversed $33 $-1 #
coedge $-1 $55 $169 $57 $108 reversed $33 $-1 #
coedge $-1 $171 $172 $55 $104 forward $166 $-1 #
edge $-1 $173 -8.4703209598153197 $174 -1.3305680562545472 $103 $175 forward 7 unknown #
coedge $-1 $57 $56 $171 $176 reversed $22 $-1 #
coedge $-1 $177 $178 $56 $107 forward $179 $-1 #
edge $-1 $180 -53.646656697286907 $111 53.646656697286907 $106 $181 forward 7 unknown #
edge $-1 $174 -53.646656697286907 $112 53.646656697286907 $102 $182 forward 7 unknown #
coedge $-1 $183 $58 $169 $184 forward $53 $-1 #
coedge $-1 $58 $183 $177 $185 reversed $53 $-1 #
vertex $-1 $185 $186 #
vertex $-1 $59 $187 #
straight-curve $-1 53.646656697286907 14.767293370005632 -6.2310125642894807 0 -1 0 I I #
face $-1 $-1 $75 $9 $-1 $188 reversed single #
loop $-1 $-1 $130 $60 #
plane-surface $-1 0 36.172977764250504 0 0 -1 0 0 0 -1 forward_v I I I I #
coedge $-1 $189 $128 $131 $190 forward $61 $-1 #
coedge $-1 $134 $63 $64 $122 reversed $37 $-1 #
coedge $-1 $128 $189 $63 $120 reversed $61 $-1 #
edge $-1 $135 -13.370765467850253 $191 13.370765467850253 $119 $192 forward 7 unknown #
coedge $-1 $65 $64 $189 $193 forward $25 $-1 #
edge $-1 $126 -53.646656697286907 $191 53.646656697286907 $118 $194 forward 7 unknown #
coedge $-1 $131 $130 $65 $124 reversed $115 $-1 #
edge $-1 $195 -53.646656697286907 $125 53.646656697286907 $123 $196 forward 7 unknown #
vertex $-1 $67 $197 #
vertex $-1 $137 $198 #
straight-curve $-1 53.646656697286907 0 -13.370765467850253 0 -1 0 I I #
coedge $-1 $117 $119 $68 $129 reversed $61 $-1 #
edge $-1 $132 -36.172977764250504 $135 36.172977764250504 $128 $199 forward 7 unknown #
coedge $-1 $123 $69 $74 $138 forward $115 $-1 #
coedge $-1 $69 $123 $117 $190 reversed $115 $-1 #
vertex $-1 $70 $200 #
straight-curve $-1 0 36.172977764250504 13.370765467850253 -1 0 0 I I #
coedge $-1 $71 $118 $73 $137 reversed $37 $-1 #
vertex $-1 $129 $201 #
straight-curve $-1 0 -36.172977764250504 13.370765467850253 1 0 0 I I #
edge $-1 $76 -13.370765467850253 $126 13.370765467850253 $73 $202 forward 7 unknown #
edge $-1 $77 -13.370765467850253 $125 13.370765467850253 $74 $203 forward 7 unknown #
point $-1 53.646656697286907 -36.172977764250504 13.370765467850253 #
point $-1 53.646656697286907 36.172977764250504 13.370765467850253 #
face $-1 $-1 $94 $10 $-1 $204 reversed single #
loop $-1 $-1 $90 $79 #
plane-surface $-1 0 -36.172977764250504 0 0 1 0 0 0 1 forward_v I I I I #
coedge $-1 $205 $206 $87 $154 forward $80 $-1 #
coedge $-1 $155 $82 $84 $150 reversed $45 $-1 #
edge $-1 $152 -2.2616896388486945 $95 0.73831036115130555 $93 $207 forward 7 unknown #
coedge $-1 $84 $83 $208 $209 reversed $29 $-1 #
coedge $-1 $159 $158 $83 $149 forward $142 $-1 #
edge $-1 $210 -53.646656697286907 $151 53.646656697286907 $148 $211 forward 7 unknown #
edge $-1 $212 -53.646656697286907 $152 53.646656697286907 $145 $213 forward 7 unknown #
vertex $-1 $149 $214 #
vertex $-1 $86 $215 #
straight-curve $-1 53.646656697286907 -14.827620344301938 -3.0233792776973889 0 1 0 I I #
edge $-1 $160 -21.345357419948567 $156 -8.3098832686553088 $144 $216 forward 7 unknown #
coedge $-1 $88 $145 $205 $217 reversed $45 $-1 #
vertex $-1 $154 $218 #
straight-curve $-1 0 -23.137503612957246 -0.0233792776973889 -1 0 0 I I #
coedge $-1 $148 $90 $206 $219 forward $142 $-1 #
coedge $-1 $90 $148 $92 $162 reversed $142 $-1 #
vertex $-1 $219 $220 #
straight-curve $-1 0 -36.172977764250504 -0.0233792776973889 -1 0 0 I I #
edge $-1 $96 0.0233792776973889 $151 3.0233792776973889 $92 $221 forward 7 unknown #
point $-1 53.646656697286907 -23.137503612957246 -0.0233792776973889 #
point $-1 53.646656697286907 -36.172977764250504 -0.0233792776973889 #
face $-1 $-1 $179 $11 $-1 $222 reversed single #
loop $-1 $-1 $171 $98 #
plane-surface $-1 -53.646656697286907 0 0 1 0 0 0 0 -1 forward_v I I I I #
coedge $-1 $223 $224 $101 $170 forward $99 $-1 #
coedge $-1 $102 $101 $109 $184 reversed $33 $-1 #
edge $-1 $225 -53.646656697286907 $173 53.646656697286907 $168 $226 forward 7 unknown #
coedge $-1 $227 $103 $105 $176 forward $166 $-1 #
coedge $-1 $103 $227 $223 $228 reversed $166 $-1 #
vertex $-1 $228 $229 #
vertex $-1 $176 $230 #
straight-curve $-1 -53.646656697286907 22.896195715772031 -4.9004445080349335 0 0 1 I I #
edge $-1 $174 8.1289023457663987 $180 21.405684394244865 $171 $231 forward 7 unknown #
coedge $-1 $232 $106 $110 $185 forward $179 $-1 #
coedge $-1 $106 $232 $227 $233 reversed $179 $-1 #
loop $-1 $-1 $106 $165 #
vertex $-1 $233 $234 #
straight-curve $-1 0 36.172977764250504 -6.2310125642894807 1 0 0 I I #
straight-curve $-1 0 22.896195715772031 -6.2310125642894807 1 0 0 I I #
coedge $-1 $110 $109 $224 $235 reversed $53 $-1 #
edge $-1 $112 1.3305680562545472 $225 8.4703209598153197 $109 $236 forward 7 unknown #
edge $-1 $111 6.2310125642894807 $237 13.370765467850253 $110 $238 forward 7 unknown #
point $-1 53.646656697286907 36.172977764250497 -6.2310125642894807 #
point $-1 53.646656697286907 22.896195715772031 -6.2310125642894807 #
plane-surface $-1 53.646656697286907 0 0 -1 0 0 0 0 1 forward_v I I I I #
coedge $-1 $119 $117 $121 $193 reversed $61 $-1 #
edge $-1 $132 -13.370765467850253 $195 13.370765467850253 $131 $239 forward 7 unknown #
vertex $-1 $193 $240 #
straight-curve $-1 -53.646656697286907 -36.172977764250504 0 0 0 -1 I I #
edge $-1 $191 -36.172977764250504 $195 36.172977764250504 $189 $241 forward 7 unknown #
straight-curve $-1 0 -36.172977764250504 -13.370765467850253 -1 0 0 I I #
vertex $-1 $124 $242 #
straight-curve $-1 0 36.172977764250504 -13.370765467850253 1 0 0 I I #
point $-1 53.646656697286907 36.172977764250504 -13.370765467850253 #
point $-1 53.646656697286907 -36.172977764250504 -13.370765467850253 #
straight-curve $-1 -53.646656697286907 0 13.370765467850253 0 -1 0 I I #
point $-1 -53.646656697286907 36.172977764250504 13.370765467850253 #
point $-1 -53.646656697286907 -36.172977764250504 13.370765467850253 #
straight-curve $-1 53.646656697286907 -36.172977764250504 0 0 0 -1 I I #
straight-curve $-1 53.646656697286907 36.172977764250504 0 0 0 -1 I I #
plane-surface $-1 53.646656697286907 0 0 -1 0 0 0 0 1 forward_v I I I I #
coedge $-1 $208 $144 $155 $217 forward $80 $-1 #
coedge $-1 $144 $208 $158 $219 reversed $80 $-1 #
straight-curve $-1 53.646656697286907 -23.137503612957246 -0.76168963884869445 0 0 1 I I #
coedge $-1 $206 $205 $147 $209 forward $80 $-1 #
edge $-1 $212 8.3098832686553088 $210 21.345357419948567 $208 $243 forward 7 unknown #
vertex $-1 $149 $244 #
straight-curve $-1 0 -36.172977764250504 -3.0233792776973889 1 0 0 I I #
vertex $-1 $209 $245 #
straight-curve $-1 0 -23.137503612957246 -3.0233792776973889 1 0 0 I I #
point $-1 53.646656697286907 -36.172977764250504 -3.0233792776973889 #
point $-1 53.646656697286907 -23.137503612957246 -3.0233792776973889 #
straight-curve $-1 -53.646656697286907 -14.827620344301938 -0.0233792776973889 0 1 0 I I #
edge $-1 $156 -0.73831036115130555 $212 2.2616896388486945 $205 $246 forward 7 unknown #
point $-1 -53.646656697286907 -23.137503612957246 -0.0233792776973889 #
edge $-1 $160 0.0233792776973889 $210 3.0233792776973889 $206 $247 forward 7 unknown #
point $-1 -53.646656697286907 -36.172977764250504 -0.0233792776973889 #
straight-curve $-1 53.646656697286907 -36.172977764250504 0 0 0 -1 I I #
plane-surface $-1 0 36.172977764250504 0 0 -1 0 0 0 -1 forward_v I I I I #
coedge $-1 $248 $168 $172 $228 forward $99 $-1 #
coedge $-1 $168 $248 $183 $235 forward $99 $-1 #
vertex $-1 $170 $249 #
straight-curve $-1 0 22.896195715772031 -13.370765467850253 -1 0 0 I I #
coedge $-1 $172 $171 $178 $233 forward $166 $-1 #
edge $-1 $173 22.896195715772031 $250 36.172977764250504 $172 $251 forward 7 unknown #
point $-1 -53.646656697286907 22.896195715772031 -13.370765467850253 #
point $-1 -53.646656697286907 22.896195715772031 -6.2310125642894807 #
straight-curve $-1 -53.646656697286907 14.767293370005632 -6.2310125642894807 0 1 0 I I #
coedge $-1 $178 $177 $248 $252 reversed $179 $-1 #
edge $-1 $180 6.2310125642894807 $250 13.370765467850253 $178 $253 forward 7 unknown #
point $-1 -53.646656697286907 36.172977764250497 -6.2310125642894807 #
edge $-1 $237 -36.172977764250504 $225 -22.896195715772031 $183 $254 forward 7 unknown #
straight-curve $-1 53.646656697286907 22.896195715772031 -4.9004445080349335 0 0 -1 I I #
vertex $-1 $235 $255 #
straight-curve $-1 53.646656697286907 36.172977764250504 0 0 0 -1 I I #
straight-curve $-1 -53.646656697286907 36.172977764250504 0 0 0 -1 I I #
point $-1 -53.646656697286907 -36.172977764250504 -13.370765467850253 #
straight-curve $-1 -53.646656697286907 0 -13.370765467850253 0 1 0 I I #
point $-1 -53.646656697286907 36.172977764250504 -13.370765467850253 #
straight-curve $-1 -53.646656697286907 -14.827620344301938 -3.0233792776973889 0 -1 0 I I #
point $-1 -53.646656697286907 -36.172977764250504 -3.0233792776973889 #
point $-1 -53.646656697286907 -23.137503612957246 -3.0233792776973889 #
straight-curve $-1 -53.646656697286907 -23.137503612957246 -0.76168963884869445 0 0 -1 I I #
straight-curve $-1 -53.646656697286907 -36.172977764250504 0 0 0 -1 I I #
coedge $-1 $224 $223 $232 $252 forward $99 $-1 #
point $-1 53.646656697286907 22.896195715772031 -13.370765467850253 #
vertex $-1 $252 $256 #
straight-curve $-1 -53.646656697286907 0 -13.370765467850253 0 1 0 I I #
edge $-1 $250 -53.646656697286907 $237 53.646656697286907 $232 $257 forward 7 unknown #
straight-curve $-1 -53.646656697286907 36.172977764250504 0 0 0 -1 I I #
straight-curve $-1 53.646656697286907 0 -13.370765467850253 0 -1 0 I I #
point $-1 53.646656697286907 36.172977764250504 -13.370765467850253 #
point $-1 -53.646656697286907 36.172977764250504 -13.370765467850253 #
straight-curve $-1 0 36.172977764250504 -13.370765467850253 1 0 0 I I #
End-of-ACIS-data 