500 0 11 0           
7 Unknown 11 ACIS 5.0 NT 24 Thu Mar 25 15:51:15 1999 
-1 9.9999999999999995e-007 1e-010 
body $-1 $11 $-1 $12 #
body $-1 $13 $-1 $14 #
body $-1 $15 $-1 $16 #
body $-1 $17 $-1 $18 #
body $-1 $19 $-1 $20 #
body $-1 $21 $-1 $22 #
body $-1 $23 $-1 $24 #
body $-1 $25 $-1 $26 #
body $-1 $27 $-1 $28 #
body $-1 $29 $-1 $30 #
body $-1 $31 $-1 $32 #
lump $-1 $-1 $33 $0 #
transform $-1 1 0 0 0 1 0 0 0 1 49.930722983489488 22.69869226850366 8.682196106107881 1 rotate no_reflect no_shear #
lump $-1 $-1 $34 $1 #
transform $-1 1 0 0 0 1 0 0 0 1 49.930722983489488 22.69869226850366 8.682196106107881 1 rotate no_reflect no_shear #
lump $-1 $-1 $35 $2 #
transform $-1 1 0 0 0 1 0 0 0 1 49.930722983489488 22.69869226850366 8.682196106107881 1 rotate no_reflect no_shear #
lump $-1 $-1 $36 $3 #
transform $-1 1 0 0 0 1 0 0 0 1 49.930722983489488 22.69869226850366 8.682196106107881 1 rotate no_reflect no_shear #
lump $-1 $-1 $37 $4 #
transform $-1 1 0 0 0 1 0 0 0 1 49.930722983489488 22.69869226850366 8.682196106107881 1 rotate no_reflect no_shear #
lump $-1 $-1 $38 $5 #
transform $-1 1 0 0 0 1 0 0 0 1 49.930722983489488 22.69869226850366 8.682196106107881 1 rotate no_reflect no_shear #
lump $-1 $-1 $39 $6 #
transform $-1 1 0 0 0 1 0 0 0 1 49.930722983489488 22.69869226850366 8.682196106107881 1 rotate no_reflect no_shear #
lump $-1 $-1 $40 $7 #
transform $-1 1 0 0 0 1 0 0 0 1 49.930722983489488 22.69869226850366 8.682196106107881 1 rotate no_reflect no_shear #
lump $-1 $-1 $41 $8 #
transform $-1 1 0 0 0 1 0 0 0 1 49.930722983489488 22.69869226850366 8.682196106107881 1 rotate no_reflect no_shear #
lump $-1 $-1 $42 $9 #
transform $-1 1 0 0 0 1 0 0 0 1 49.930722983489488 22.69869226850366 8.682196106107881 1 rotate no_reflect no_shear #
lump $-1 $-1 $43 $10 #
transform $-1 1 0 0 0 1 0 0 0 1 49.930722983489488 22.69869226850366 8.682196106107881 1 rotate no_reflect no_shear #
shell $-1 $-1 $-1 $44 $-1 $11 #
shell $-1 $-1 $-1 $45 $-1 $13 #
shell $-1 $-1 $-1 $46 $-1 $15 #
shell $-1 $-1 $-1 $47 $-1 $17 #
shell $-1 $-1 $-1 $48 $-1 $19 #
shell $-1 $-1 $-1 $49 $-1 $21 #
shell $-1 $-1 $-1 $50 $-1 $23 #
shell $-1 $-1 $-1 $51 $-1 $25 #
shell $-1 $-1 $-1 $52 $-1 $27 #
shell $-1 $-1 $-1 $53 $-1 $29 #
shell $-1 $-1 $-1 $54 $-1 $31 #
face $-1 $55 $56 $33 $-1 $57 forward single #
face $-1 $58 $59 $34 $-1 $60 reversed single #
face $-1 $61 $62 $35 $-1 $63 reversed single #
face $-1 $64 $65 $36 $-1 $66 forward single #
face $-1 $67 $68 $37 $-1 $69 forward single #
face $-1 $70 $71 $38 $-1 $72 reversed single #
face $-1 $73 $74 $39 $-1 $75 forward single #
face $-1 $76 $77 $40 $-1 $78 forward single #
face $-1 $79 $80 $41 $-1 $81 reversed single #
face $-1 $82 $83 $42 $-1 $84 forward single #
face $-1 $85 $86 $43 $-1 $87 forward single #
face $-1 $88 $89 $33 $-1 $90 reversed single #
loop $-1 $-1 $91 $44 #
plane-surface $-1 0 0 8.682196106107881 0 0 1 1 0 0 forward_v I I I I #
face $-1 $92 $93 $34 $-1 $94 reversed single #
loop $-1 $-1 $95 $45 #
plane-surface $-1 -45.994409192887105 -17.216508234038095 0 1 0 0 0 0 -1 forward_v I I I I #
face $-1 $96 $97 $35 $-1 $98 reversed single #
loop $-1 $-1 $99 $46 #
plane-surface $-1 -134.61803290657826 -1.2685238294709169 53.957935166955671 0 1 0 -0.84804810408105047 0 0.52991925155115449 forward_v I I I I #
face $-1 $100 $101 $36 $-1 $102 forward single #
loop $-1 $103 $104 $47 #
cone-surface $-1 -46.78487702718018 0.66024984593950364 4.3871747951977644 0.84804810408105047 0 -0.52991925155115449 0.26495962577557725 0 0.42402405204052523 1 I I 0 1 0.5 forward I I I I #
face $-1 $105 $106 $37 $-1 $107 forward single #
loop $-1 $108 $109 $48 #
cone-surface $-1 -46.78487702718018 3.5534103590551389 4.3871747951977644 0.84804810408105047 0 -0.52991925155115449 0.26495962577557725 0 0.42402405204052523 1 I I 0 1 0.5 forward I I I I #
face $-1 $110 $111 $38 $-1 $112 reversed single #
loop $-1 $-1 $113 $49 #
plane-surface $-1 -134.61803290657826 15.947984404567178 53.957935166955671 0 1 0 -0.84804810408105047 0 0.52991925155115449 forward_v I I I I #
face $-1 $114 $115 $39 $-1 $116 forward single #
loop $-1 $117 $118 $50 #
cone-surface $-1 -46.78487702718018 17.876758079977595 4.3871747951977644 0.84804810408105047 0 -0.52991925155115449 0.26495962577557725 0 0.42402405204052523 1 I I 0 1 0.5 forward I I I I #
face $-1 $119 $120 $40 $-1 $121 forward single #
loop $-1 $122 $123 $51 #
cone-surface $-1 -46.78487702718018 20.769918593093234 4.3871747951977644 0.84804810408105047 0 -0.52991925155115449 0.26495962577557725 0 0.42402405204052523 1 I I 0 1 0.5 forward I I I I #
face $-1 $124 $125 $41 $-1 $126 reversed single #
loop $-1 $-1 $127 $52 #
plane-surface $-1 69.585503311869388 -3.1523968754072991 142.30861205262997 0 -1 0 -0.79863551827123203 0 -0.60181501223851219 forward_v I I I I #
face $-1 $128 $129 $42 $-1 $130 forward single #
loop $-1 $131 $132 $53 #
cone-surface $-1 47.004124956561604 -9.282344964096751 5.1318464480393216 -0.79863551827123203 0 -0.60181501223851219 0.60181501223851219 0 -0.79863551827123203 1 I I 0 1 1 forward I I I I #
face $-1 $133 $134 $43 $-1 $135 forward single #
loop $-1 $136 $137 $54 #
cone-surface $-1 47.004124956561604 -5.6043761108830772 5.1318464480393216 -0.79863551827123203 0 -0.60181501223851219 0.60181501223851219 0 -0.79863551827123203 1 I I 0 1 1 forward I I I I #
face $-1 $138 $139 $33 $-1 $140 reversed single #
loop $-1 $-1 $141 $55 #
plane-surface $-1 0 0 -8.682196106107881 0 0 1 1 0 0 forward_v I I I I #
coedge $-1 $142 $143 $144 $145 forward $56 $-1 #
face $-1 $146 $147 $34 $-1 $148 reversed single #
loop $-1 $-1 $149 $58 #
plane-surface $-1 -43.887518652473979 -11.73432419957253 0 0 -1 0 0 0 -1 forward_v I I I I #
coedge $-1 $150 $151 $152 $153 forward $59 $-1 #
face $-1 $154 $155 $35 $-1 $156 reversed single #
loop $-1 $-1 $157 $61 #
plane-surface $-1 -49.930722983489474 2.1068301024973231 1.0394324613181141 -0.84804810408105047 0 0.52991925155115449 0.52991925155115449 0 0.84804810408105047 forward_v I I I I #
coedge $-1 $158 $159 $160 $161 reversed $62 $-1 #
face $-1 $-1 $162 $36 $-1 $163 forward single #
loop $-1 $164 $165 $64 #
cone-surface $-1 -45.814883348148605 0.66024984593950364 3.7810554937947423 0.84804810408105047 0 -0.52991925155115449 0.13247981288778862 0 0.21201202602026262 1 I I -0.70710678118654746 0.70710678118654746 0.25 forward I I I I #
loop $-1 $-1 $166 $47 #
coedge $-1 $104 $104 $167 $168 reversed $65 $-1 #
face $-1 $-1 $169 $37 $-1 $170 forward single #
loop $-1 $171 $172 $67 #
cone-surface $-1 -45.814883348148605 3.5534103590551389 3.7810554937947423 0.84804810408105047 0 -0.52991925155115449 0.13247981288778862 0 0.21201202602026262 1 I I -0.70710678118654746 0.70710678118654746 0.25 forward I I I I #
loop $-1 $-1 $173 $48 #
coedge $-1 $109 $109 $174 $175 reversed $68 $-1 #
face $-1 $176 $177 $38 $-1 $178 forward single #
loop $-1 $-1 $179 $70 #
plane-surface $-1 -49.930722983489474 19.323338336535418 1.0394324613181141 -0.84804810408105047 0 0.52991925155115449 0.52991925155115449 0 0.84804810408105047 forward_v I I I I #
coedge $-1 $180 $181 $182 $183 reversed $71 $-1 #
face $-1 $-1 $184 $39 $-1 $185 forward single #
loop $-1 $186 $187 $73 #
cone-surface $-1 -45.814883348148605 17.876758079977595 3.7810554937947423 0.84804810408105047 0 -0.52991925155115449 0.13247981288778862 0 0.21201202602026262 1 I I -0.70710678118654746 0.70710678118654746 0.25 forward I I I I #
loop $-1 $-1 $188 $50 #
coedge $-1 $118 $118 $189 $190 reversed $74 $-1 #
face $-1 $-1 $191 $40 $-1 $192 forward single #
loop $-1 $193 $194 $76 #
cone-surface $-1 -45.814883348148605 20.769918593093234 3.7810554937947423 0.84804810408105047 0 -0.52991925155115449 0.13247981288778862 0 0.21201202602026262 1 I I -0.70710678118654746 0.70710678118654746 0.25 forward I I I I #
loop $-1 $-1 $195 $51 #
coedge $-1 $123 $123 $196 $197 reversed $77 $-1 #
face $-1 $198 $199 $41 $-1 $200 reversed single #
loop $-1 $-1 $201 $79 #
plane-surface $-1 -10.167394343283505 -7.4433605374899159 82.210494725856989 0.79863551827123203 0 0.60181501223851219 0.60181501223851219 0 -0.79863551827123203 forward_v I I I I #
coedge $-1 $202 $203 $204 $205 reversed $80 $-1 #
face $-1 $-1 $206 $42 $-1 $207 forward single #
loop $-1 $208 $209 $82 #
cone-surface $-1 46.023495010514523 -9.282344964096751 4.3928888015533971 -0.79863551827123203 0 -0.60181501223851219 0.3009075061192561 0 -0.39931775913561601 1 I I -0.70710678118654746 0.70710678118654746 0.5 forward I I I I #
loop $-1 $-1 $210 $53 #
coedge $-1 $132 $132 $211 $212 reversed $83 $-1 #
face $-1 $-1 $213 $43 $-1 $214 forward single #
loop $-1 $215 $216 $85 #
cone-surface $-1 46.023495010514523 -5.6043761108830772 4.3928888015533971 -0.79863551827123203 0 -0.60181501223851219 0.3009075061192561 0 -0.39931775913561601 1 I I -0.70710678118654746 0.70710678118654746 0.5 forward I I I I #
loop $-1 $-1 $217 $54 #
coedge $-1 $137 $137 $218 $219 reversed $86 $-1 #
face $-1 $220 $221 $33 $-1 $222 reversed single #
loop $-1 $-1 $223 $88 #
plane-surface $-1 0 -22.69869226850366 0 0 1 0 0 0 1 forward_v I I I I #
coedge $-1 $224 $225 $226 $227 forward $89 $-1 #
coedge $-1 $228 $91 $229 $230 forward $56 $-1 #
coedge $-1 $91 $228 $231 $232 forward $56 $-1 #
coedge $-1 $233 $234 $91 $145 reversed $235 $-1 #
edge $-1 $236 -22.69869226850366 $237 22.69869226850366 $144 $238 forward 7 unknown #
face $-1 $239 $240 $34 $-1 $241 forward single #
loop $-1 $-1 $242 $92 #
plane-surface $-1 -41.780628112060853 -17.216508234038095 0 -1 0 0 0 0 1 forward_v I I I I #
coedge $-1 $243 $244 $245 $246 forward $93 $-1 #
coedge $-1 $247 $95 $248 $249 reversed $59 $-1 #
coedge $-1 $95 $247 $250 $251 reversed $59 $-1 #
coedge $-1 $244 $243 $95 $153 reversed $93 $-1 #
edge $-1 $252 -8.682196106107881 $253 8.682196106107881 $152 $254 forward 7 unknown #
face $-1 $255 $256 $35 $-1 $257 reversed single #
loop $-1 $-1 $258 $96 #
plane-surface $-1 -134.61803290657826 5.482184034465563 53.957935166955671 0 -1 0 0.84804810408105047 0 -0.52991925155115449 forward_v I I I I #
coedge $-1 $259 $260 $261 $262 reversed $97 $-1 #
coedge $-1 $159 $99 $263 $264 reversed $62 $-1 #
coedge $-1 $99 $158 $259 $265 reversed $62 $-1 #
coedge $-1 $261 $266 $99 $161 forward $267 $-1 #
edge $-1 $268 17.378293469799644 $269 22.154022076395648 $160 $270 forward 7 unknown #
loop $-1 $-1 $167 $100 #
plane-surface $-1 -49.930722983489474 2.1068301024973231 1.0394324613181141 -0.84804810408105047 0 0.52991925155115449 0.52991925155115449 0 0.84804810408105047 forward_v I I I I #
loop $-1 $-1 $271 $64 #
coedge $-1 $165 $165 $166 $272 reversed $101 $-1 #
coedge $-1 $166 $166 $165 $272 forward $103 $-1 #
coedge $-1 $167 $167 $104 $168 forward $162 $-1 #
edge $-1 $273 0 $273 6.2831853071796004 $167 $274 forward 7 unknown #
loop $-1 $-1 $174 $105 #
plane-surface $-1 -49.930722983489474 2.1068301024973231 1.0394324613181141 -0.84804810408105047 0 0.52991925155115449 0.52991925155115449 0 0.84804810408105047 forward_v I I I I #
loop $-1 $-1 $275 $67 #
coedge $-1 $172 $172 $173 $276 reversed $106 $-1 #
coedge $-1 $173 $173 $172 $276 forward $108 $-1 #
coedge $-1 $174 $174 $109 $175 forward $169 $-1 #
edge $-1 $277 0 $277 6.2831853071796004 $174 $278 forward 7 unknown #
face $-1 $279 $280 $38 $-1 $281 reversed single #
loop $-1 $-1 $182 $110 #
plane-surface $-1 0 0 8.682196106107881 0 0 1 1 0 0 forward_v I I I I #
coedge $-1 $282 $283 $284 $285 reversed $111 $-1 #
coedge $-1 $181 $113 $286 $287 reversed $71 $-1 #
coedge $-1 $113 $180 $282 $288 reversed $71 $-1 #
coedge $-1 $284 $289 $113 $183 forward $177 $-1 #
edge $-1 $290 17.378293469799644 $291 22.154022076395648 $182 $292 forward 7 unknown #
loop $-1 $-1 $189 $114 #
plane-surface $-1 -49.930722983489474 19.323338336535418 1.0394324613181141 -0.84804810408105047 0 0.52991925155115449 0.52991925155115449 0 0.84804810408105047 forward_v I I I I #
loop $-1 $-1 $293 $73 #
coedge $-1 $187 $187 $188 $294 reversed $115 $-1 #
coedge $-1 $188 $188 $187 $294 forward $117 $-1 #
coedge $-1 $189 $189 $118 $190 forward $184 $-1 #
edge $-1 $295 0 $295 6.2831853071796004 $189 $296 forward 7 unknown #
loop $-1 $-1 $196 $119 #
plane-surface $-1 -49.930722983489474 19.323338336535418 1.0394324613181141 -0.84804810408105047 0 0.52991925155115449 0.52991925155115449 0 0.84804810408105047 forward_v I I I I #
loop $-1 $-1 $297 $76 #
coedge $-1 $194 $194 $195 $298 reversed $120 $-1 #
coedge $-1 $195 $195 $194 $298 forward $122 $-1 #
coedge $-1 $196 $196 $123 $197 forward $191 $-1 #
edge $-1 $299 0 $299 6.2831853071796004 $196 $300 forward 7 unknown #
face $-1 $301 $302 $41 $-1 $303 reversed single #
loop $-1 $-1 $304 $124 #
plane-surface $-1 69.585503311869388 -11.734324199572534 142.30861205262997 0 1 0 0.79863551827123203 0 0.60181501223851219 forward_v I I I I #
coedge $-1 $305 $306 $307 $308 reversed $125 $-1 #
coedge $-1 $203 $127 $309 $310 reversed $80 $-1 #
coedge $-1 $127 $202 $305 $311 reversed $80 $-1 #
coedge $-1 $307 $312 $127 $205 forward $313 $-1 #
edge $-1 $314 -15.137971327554794 $315 -10.447399647521983 $204 $316 forward 7 unknown #
loop $-1 $-1 $211 $128 #
plane-surface $-1 -10.167394343283505 -7.4433605374899159 82.210494725856989 0.79863551827123203 0 0.60181501223851219 0.60181501223851219 0 -0.79863551827123203 forward_v I I I I #
loop $-1 $-1 $317 $82 #
coedge $-1 $209 $209 $210 $318 reversed $129 $-1 #
coedge $-1 $210 $210 $209 $318 forward $131 $-1 #
coedge $-1 $211 $211 $132 $212 forward $206 $-1 #
edge $-1 $319 0 $319 6.2831853071796004 $211 $320 forward 7 unknown #
loop $-1 $-1 $218 $133 #
plane-surface $-1 -10.167394343283505 -7.4433605374899159 82.210494725856989 0.79863551827123203 0 0.60181501223851219 0.60181501223851219 0 -0.79863551827123203 forward_v I I I I #
loop $-1 $-1 $321 $85 #
coedge $-1 $216 $216 $217 $322 reversed $134 $-1 #
coedge $-1 $217 $217 $216 $322 forward $136 $-1 #
coedge $-1 $218 $218 $137 $219 forward $213 $-1 #
edge $-1 $323 0 $323 6.2831853071796004 $218 $324 forward 7 unknown #
face $-1 $325 $326 $33 $-1 $327 reversed single #
loop $-1 $-1 $328 $138 #
plane-surface $-1 -49.930722983489488 0 0 1 0 0 0 0 -1 forward_v I I I I #
coedge $-1 $329 $231 $330 $331 forward $139 $-1 #
coedge $-1 $332 $141 $329 $333 forward $89 $-1 #
coedge $-1 $141 $332 $334 $335 forward $89 $-1 #
coedge $-1 $234 $233 $141 $227 reversed $235 $-1 #
edge $-1 $336 -22.69869226850366 $337 22.69869226850366 $226 $338 forward 7 unknown #
coedge $-1 $143 $142 $339 $340 forward $56 $-1 #
coedge $-1 $341 $342 $142 $230 reversed $326 $-1 #
edge $-1 $237 -49.930722983489488 $343 49.930722983489488 $229 $344 forward 7 unknown #
coedge $-1 $223 $345 $143 $232 reversed $139 $-1 #
edge $-1 $346 -49.930722983489488 $236 49.930722983489488 $231 $347 forward 7 unknown #
coedge $-1 $226 $144 $345 $348 forward $235 $-1 #
coedge $-1 $144 $226 $341 $349 reversed $235 $-1 #
loop $-1 $-1 $233 $325 #
vertex $-1 $145 $350 #
vertex $-1 $145 $351 #
straight-curve $-1 49.930722983489488 0 8.682196106107881 0 1 0 I I #
face $-1 $352 $353 $34 $-1 $354 reversed single #
loop $-1 $-1 $355 $146 #
plane-surface $-1 0 0 8.682196106107881 0 0 1 1 0 0 forward_v I I I I #
coedge $-1 $356 $357 $358 $359 reversed $147 $-1 #
coedge $-1 $152 $149 $360 $361 reversed $93 $-1 #
coedge $-1 $149 $152 $362 $363 reversed $93 $-1 #
coedge $-1 $357 $356 $149 $246 reversed $147 $-1 #
edge $-1 $364 -8.682196106107881 $365 8.682196106107881 $245 $366 forward 7 unknown #
coedge $-1 $151 $150 $367 $368 reversed $59 $-1 #
coedge $-1 $360 $369 $150 $249 forward $353 $-1 #
edge $-1 $370 -14.090438151484612 $253 -3.1260700825534826 $248 $371 forward 7 unknown #
coedge $-1 $372 $362 $151 $251 forward $240 $-1 #
edge $-1 $252 3.1260700825534826 $373 14.090438151484612 $250 $374 forward 7 unknown #
vertex $-1 $251 $375 #
vertex $-1 $249 $376 #
straight-curve $-1 -45.994409192887105 -11.73432419957253 0 0 0 -1 I I #
face $-1 $-1 $267 $35 $-1 $377 forward single #
loop $-1 $-1 $378 $154 #
plane-surface $-1 -49.930722983489488 0 0 1 0 0 0 0 -1 forward_v I I I I #
coedge $-1 $379 $380 $381 $382 reversed $155 $-1 #
coedge $-1 $383 $157 $159 $265 forward $97 $-1 #
coedge $-1 $157 $383 $379 $384 forward $97 $-1 #
coedge $-1 $381 $160 $157 $262 forward $267 $-1 #
edge $-1 $269 -2.3219388807195784 $385 4.4287689832169015 $261 $386 forward 7 unknown #
coedge $-1 $387 $388 $158 $264 forward $256 $-1 #
edge $-1 $389 -25.939535122159743 $268 -18.296771477369955 $263 $390 forward 7 unknown #
edge $-1 $269 -9.0121817477223267 $389 2.6737665129848107e-014 $159 $391 forward 7 unknown #
coedge $-1 $160 $381 $387 $392 forward $267 $-1 #
loop $-1 $-1 $381 $255 #
vertex $-1 $264 $393 #
vertex $-1 $161 $394 #
straight-curve $-1 -67.309016453289132 -1.2685238294709169 8.682196106107881 1 0 0 I I #
coedge $-1 $271 $271 $-1 $395 reversed $164 $-1 #
edge $-1 $396 0 $396 6.2831853071796004 $165 $397 forward 7 unknown #
vertex $-1 $168 $398 #
ellipse-curve $-1 -47.542858680191486 0.66024984593950364 4.8608142837129913 -0.84804810408105047 0 0.52991925155115449 0.26495962577557725 0 0.42402405204052523 1 I I #
coedge $-1 $275 $275 $-1 $399 reversed $171 $-1 #
edge $-1 $400 0 $400 6.2831853071796004 $172 $401 forward 7 unknown #
vertex $-1 $175 $402 #
ellipse-curve $-1 -47.542858680191486 3.5534103590551389 4.8608142837129913 -0.84804810408105047 0 0.52991925155115449 0.26495962577557725 0 0.42402405204052523 1 I I #
face $-1 $-1 $403 $38 $-1 $404 reversed single #
loop $-1 $-1 $405 $176 #
plane-surface $-1 0 22.69869226850366 0 0 -1 0 0 0 -1 forward_v I I I I #
coedge $-1 $406 $179 $181 $288 forward $111 $-1 #
coedge $-1 $179 $406 $405 $407 reversed $111 $-1 #
coedge $-1 $408 $182 $179 $285 forward $177 $-1 #
edge $-1 $291 6.286315236299469 $409 13.037023100235947 $284 $410 forward 7 unknown #
coedge $-1 $411 $412 $180 $287 forward $403 $-1 #
edge $-1 $413 -25.939535122159743 $290 -18.296771477369955 $286 $414 forward 7 unknown #
edge $-1 $291 -9.0121817477223267 $413 2.6737665129848107e-014 $181 $415 forward 7 unknown #
coedge $-1 $182 $408 $411 $416 forward $177 $-1 #
vertex $-1 $287 $417 #
vertex $-1 $183 $418 #
straight-curve $-1 -67.309016453289132 15.947984404567178 8.682196106107881 1 0 0 I I #
coedge $-1 $293 $293 $-1 $419 reversed $186 $-1 #
edge $-1 $420 0 $420 6.2831853071796004 $187 $421 forward 7 unknown #
vertex $-1 $190 $422 #
ellipse-curve $-1 -47.542858680191486 17.876758079977595 4.8608142837129913 -0.84804810408105047 0 0.52991925155115449 0.26495962577557725 0 0.42402405204052523 1 I I #
coedge $-1 $297 $297 $-1 $423 reversed $193 $-1 #
edge $-1 $424 0 $424 6.2831853071796004 $194 $425 forward 7 unknown #
vertex $-1 $197 $426 #
ellipse-curve $-1 -47.542858680191486 20.769918593093234 4.8608142837129913 -0.84804810408105047 0 0.52991925155115449 0.26495962577557725 0 0.42402405204052523 1 I I #
face $-1 $-1 $313 $41 $-1 $427 forward single #
loop $-1 $-1 $428 $198 #
plane-surface $-1 49.930722983489488 0 0 -1 0 0 0 0 1 forward_v I I I I #
coedge $-1 $429 $430 $431 $432 reversed $199 $-1 #
coedge $-1 $433 $201 $203 $311 forward $125 $-1 #
coedge $-1 $201 $433 $429 $434 forward $125 $-1 #
coedge $-1 $431 $204 $201 $308 forward $313 $-1 #
edge $-1 $315 -0.56928339333765887 $435 8.0126439308275756 $307 $436 forward 7 unknown #
coedge $-1 $437 $438 $202 $310 forward $302 $-1 #
edge $-1 $439 -68.696708955610902 $314 -62.472109920207103 $309 $440 forward 7 unknown #
edge $-1 $315 92.067403637284116 $439 99.861445966979005 $203 $441 forward 7 unknown #
coedge $-1 $204 $431 $437 $442 forward $313 $-1 #
loop $-1 $-1 $431 $301 #
vertex $-1 $310 $443 #
vertex $-1 $205 $444 #
straight-curve $-1 34.792751655934694 -3.1523968754072991 8.682196106107881 -1 0 0 I I #
coedge $-1 $317 $317 $-1 $445 reversed $208 $-1 #
edge $-1 $446 0 $446 6.2831853071796004 $209 $447 forward 7 unknown #
vertex $-1 $212 $448 #
ellipse-curve $-1 47.585437143473072 -9.282344964096751 5.5698965884059906 0.79863551827123203 0 0.60181501223851219 0.60181501223851219 0 -0.79863551827123203 1 I I #
coedge $-1 $321 $321 $-1 $449 reversed $215 $-1 #
edge $-1 $450 0 $450 6.2831853071796004 $216 $451 forward 7 unknown #
vertex $-1 $219 $452 #
ellipse-curve $-1 47.585437143473072 -5.6043761108830772 5.5698965884059906 0.79863551827123203 0 0.60181501223851219 0.60181501223851219 0 -0.79863551827123203 1 I I #
face $-1 $-1 $235 $33 $-1 $453 reversed single #
loop $-1 $-1 $341 $220 #
plane-surface $-1 0 22.69869226850366 0 0 -1 0 0 0 -1 forward_v I I I I #
coedge $-1 $454 $339 $342 $455 forward $221 $-1 #
coedge $-1 $345 $223 $224 $333 reversed $139 $-1 #
coedge $-1 $339 $454 $223 $331 reversed $221 $-1 #
edge $-1 $346 -8.682196106107881 $456 8.682196106107881 $330 $457 forward 7 unknown #
coedge $-1 $225 $224 $454 $458 forward $89 $-1 #
edge $-1 $337 -49.930722983489488 $456 49.930722983489488 $329 $459 forward 7 unknown #
coedge $-1 $342 $341 $225 $335 reversed $326 $-1 #
edge $-1 $460 -49.930722983489488 $336 49.930722983489488 $334 $461 forward 7 unknown #
vertex $-1 $227 $462 #
vertex $-1 $348 $463 #
straight-curve $-1 49.930722983489488 0 -8.682196106107881 0 -1 0 I I #
coedge $-1 $328 $330 $228 $340 reversed $221 $-1 #
edge $-1 $343 -22.69869226850366 $346 22.69869226850366 $339 $464 forward 7 unknown #
coedge $-1 $334 $229 $234 $349 forward $326 $-1 #
coedge $-1 $229 $334 $328 $455 reversed $326 $-1 #
vertex $-1 $230 $465 #
straight-curve $-1 0 22.69869226850366 8.682196106107881 -1 0 0 I I #
coedge $-1 $231 $329 $233 $348 reversed $139 $-1 #
vertex $-1 $340 $466 #
straight-curve $-1 0 -22.69869226850366 8.682196106107881 1 0 0 I I #
edge $-1 $236 -8.682196106107881 $337 8.682196106107881 $233 $467 forward 7 unknown #
edge $-1 $237 -8.682196106107881 $336 8.682196106107881 $234 $468 forward 7 unknown #
point $-1 49.930722983489488 -22.69869226850366 8.682196106107881 #
point $-1 49.930722983489488 22.69869226850366 8.682196106107881 #
face $-1 $-1 $469 $34 $-1 $470 reversed single #
loop $-1 $-1 $471 $239 #
plane-surface $-1 0 0 -8.682196106107881 0 0 1 1 0 0 forward_v I I I I #
coedge $-1 $362 $372 $357 $472 forward $240 $-1 #
coedge $-1 $245 $242 $471 $473 reversed $147 $-1 #
coedge $-1 $242 $245 $355 $472 reversed $147 $-1 #
coedge $-1 $474 $475 $242 $359 forward $469 $-1 #
edge $-1 $476 -8.682196106107881 $477 8.682196106107881 $358 $478 forward 7 unknown #
coedge $-1 $471 $248 $243 $361 forward $353 $-1 #
edge $-1 $253 -24.050649866650115 $365 -19.836868785823864 $360 $479 forward 7 unknown #
coedge $-1 $250 $355 $244 $363 forward $240 $-1 #
edge $-1 $364 19.836868785823864 $252 24.050649866650115 $362 $480 forward 7 unknown #
vertex $-1 $363 $481 #
vertex $-1 $361 $482 #
straight-curve $-1 -41.780628112060853 -11.73432419957253 0 0 0 -1 I I #
coedge $-1 $475 $474 $247 $368 forward $469 $-1 #
edge $-1 $373 -8.682196106107881 $370 8.682196106107881 $367 $483 forward 7 unknown #
coedge $-1 $248 $471 $475 $484 forward $353 $-1 #
vertex $-1 $249 $485 #
straight-curve $-1 -45.994409192887105 -8.6082541170190474 -8.682196106107881 0 1 0 I I #
coedge $-1 $355 $250 $474 $486 forward $240 $-1 #
vertex $-1 $486 $487 #
straight-curve $-1 -45.994409192887105 -8.6082541170190474 8.682196106107881 0 -1 0 I I #
point $-1 -45.994409192887105 -11.73432419957253 8.682196106107881 #
point $-1 -45.994409192887105 -11.73432419957253 -8.682196106107881 #
plane-surface $-1 0 0 8.682196106107881 0 0 1 1 0 0 forward_v I I I I #
coedge $-1 $388 $387 $380 $488 forward $256 $-1 #
coedge $-1 $380 $258 $260 $384 reversed $155 $-1 #
coedge $-1 $258 $379 $378 $488 reversed $155 $-1 #
coedge $-1 $266 $261 $258 $382 forward $267 $-1 #
edge $-1 $385 -22.154022076395648 $489 -17.378293469799644 $381 $490 forward 7 unknown #
coedge $-1 $260 $259 $388 $491 reversed $97 $-1 #
edge $-1 $492 -2.6737665129848107e-014 $385 9.0121817477223267 $379 $493 forward 7 unknown #
vertex $-1 $262 $494 #
straight-curve $-1 -45.154994376893491 1.0534150512486615 8.682196106107881 0 1 0 I I #
coedge $-1 $378 $263 $266 $392 reversed $256 $-1 #
coedge $-1 $263 $378 $383 $491 forward $256 $-1 #
vertex $-1 $264 $495 #
straight-curve $-1 -49.930722983489488 -1.2685238294709169 26.978967583477836 0 0 1 I I #
straight-curve $-1 -49.930722983489474 -1.2685238294709169 1.0394324613181141 -0.52991925155115449 0 -0.84804810408105047 I I #
edge $-1 $489 -5.482184034465563 $268 1.2685238294709169 $387 $496 forward 7 unknown #
point $-1 -49.930722983489488 -1.2685238294709169 8.682196106107881 #
point $-1 -45.154994376893484 -1.2685238294709169 8.682196106107881 #
edge $-1 $497 1 $497 0 $271 $-1 forward 7 unknown #
vertex $-1 $272 $498 #
ellipse-curve $-1 -46.026895374168866 0.66024984593950364 3.9135353066825309 -0.84804810408105047 0 0.52991925155115449 0.26495962577557725 0 0.42402405204052523 1 I I #
point $-1 -47.277899054415919 0.66024984593950364 5.2848383357535234 #
edge $-1 $499 1 $499 0 $275 $-1 forward 7 unknown #
vertex $-1 $276 $500 #
ellipse-curve $-1 -46.026895374168866 3.5534103590551389 3.9135353066825309 -0.84804810408105047 0 0.52991925155115449 0.26495962577557725 0 0.42402405204052523 1 I I #
point $-1 -47.277899054415919 3.5534103590551389 5.2848383357535234 #
loop $-1 $-1 $286 $279 #
plane-surface $-1 -49.930722983489488 0 0 1 0 0 0 0 -1 forward_v I I I I #
coedge $-1 $501 $502 $283 $407 forward $280 $-1 #
coedge $-1 $283 $282 $412 $503 reversed $111 $-1 #
edge $-1 $409 3.7766995646164974 $504 12.788881312338852 $405 $505 forward 7 unknown #
coedge $-1 $289 $284 $502 $506 forward $177 $-1 #
vertex $-1 $506 $507 #
straight-curve $-1 -45.154994376893491 9.6616691682677089 8.682196106107881 0 1 0 I I #
coedge $-1 $508 $286 $289 $416 reversed $403 $-1 #
coedge $-1 $286 $508 $406 $503 forward $403 $-1 #
vertex $-1 $287 $509 #
straight-curve $-1 -49.930722983489488 15.947984404567178 26.978967583477836 0 0 1 I I #
straight-curve $-1 -49.930722983489474 15.947984404567178 1.0394324613181141 -0.52991925155115449 0 -0.84804810408105047 I I #
edge $-1 $510 -22.69869226850366 $290 -15.947984404567178 $411 $511 forward 7 unknown #
point $-1 -49.930722983489488 15.947984404567178 8.682196106107881 #
point $-1 -45.154994376893484 15.947984404567178 8.682196106107881 #
edge $-1 $512 1 $512 0 $293 $-1 forward 7 unknown #
vertex $-1 $294 $513 #
ellipse-curve $-1 -46.026895374168866 17.876758079977595 3.9135353066825309 -0.84804810408105047 0 0.52991925155115449 0.26495962577557725 0 0.42402405204052523 1 I I #
point $-1 -47.277899054415919 17.876758079977595 5.2848383357535234 #
edge $-1 $514 1 $514 0 $297 $-1 forward 7 unknown #
vertex $-1 $298 $515 #
ellipse-curve $-1 -46.026895374168866 20.769918593093234 3.9135353066825309 -0.84804810408105047 0 0.52991925155115449 0.26495962577557725 0 0.42402405204052523 1 I I #
point $-1 -47.277899054415919 20.769918593093234 5.2848383357535234 #
plane-surface $-1 0 0 8.682196106107881 0 0 1 1 0 0 forward_v I I I I #
coedge $-1 $438 $437 $430 $516 forward $302 $-1 #
coedge $-1 $430 $304 $306 $434 reversed $199 $-1 #
coedge $-1 $304 $429 $428 $516 reversed $199 $-1 #
coedge $-1 $312 $307 $304 $432 forward $313 $-1 #
edge $-1 $435 10.447399647521983 $517 15.137971327554794 $431 $518 forward 7 unknown #
coedge $-1 $306 $305 $438 $519 reversed $125 $-1 #
edge $-1 $520 -99.861445966979005 $435 -92.067403637284116 $429 $521 forward 7 unknown #
vertex $-1 $308 $522 #
straight-curve $-1 45.240151303456678 -3.7216802687449579 8.682196106107881 0 -1 0 I I #
coedge $-1 $428 $309 $312 $442 reversed $302 $-1 #
coedge $-1 $309 $428 $433 $519 forward $302 $-1 #
vertex $-1 $310 $523 #
straight-curve $-1 49.930722983489488 -3.1523968754072991 71.154306026314984 0 0 1 I I #
straight-curve $-1 -10.167394343283505 -3.1523968754072991 82.210494725856989 0.60181501223851219 0 -0.79863551827123203 I I #
edge $-1 $517 -11.734324199572534 $314 -3.1523968754072991 $437 $524 forward 7 unknown #
point $-1 49.930722983489488 -3.1523968754072991 8.682196106107881 #
point $-1 45.240151303456678 -3.1523968754072991 8.682196106107881 #
edge $-1 $525 1 $525 0 $317 $-1 forward 7 unknown #
vertex $-1 $318 $526 #
ellipse-curve $-1 46.422812769650136 -9.282344964096751 4.6937963076726534 0.79863551827123203 0 0.60181501223851219 0.60181501223851219 0 -0.79863551827123203 1 I I #
point $-1 48.187252155711583 -9.282344964096751 4.7712610701347575 #
edge $-1 $527 1 $527 0 $321 $-1 forward 7 unknown #
vertex $-1 $322 $528 #
ellipse-curve $-1 46.422812769650136 -5.6043761108830772 4.6937963076726534 0.79863551827123203 0 0.60181501223851219 0.60181501223851219 0 -0.79863551827123203 1 I I #
point $-1 48.187252155711583 -5.6043761108830772 4.7712610701347575 #
plane-surface $-1 49.930722983489488 0 0 -1 0 0 0 0 1 forward_v I I I I #
coedge $-1 $330 $328 $332 $458 reversed $221 $-1 #
edge $-1 $343 -8.682196106107881 $460 8.682196106107881 $342 $529 forward 7 unknown #
vertex $-1 $458 $530 #
straight-curve $-1 -49.930722983489488 -22.69869226850366 0 0 0 -1 I I #
edge $-1 $456 -22.69869226850366 $460 22.69869226850366 $454 $531 forward 7 unknown #
straight-curve $-1 0 -22.69869226850366 -8.682196106107881 -1 0 0 I I #
vertex $-1 $335 $532 #
straight-curve $-1 0 22.69869226850366 -8.682196106107881 1 0 0 I I #
point $-1 49.930722983489488 22.69869226850366 -8.682196106107881 #
point $-1 49.930722983489488 -22.69869226850366 -8.682196106107881 #
straight-curve $-1 -49.930722983489488 0 8.682196106107881 0 -1 0 I I #
point $-1 -49.930722983489488 22.69869226850366 8.682196106107881 #
point $-1 -49.930722983489488 -22.69869226850366 8.682196106107881 #
straight-curve $-1 49.930722983489488 -22.69869226850366 0 0 0 -1 I I #
straight-curve $-1 49.930722983489488 22.69869226850366 0 0 0 -1 I I #
loop $-1 $-1 $358 $352 #
plane-surface $-1 0 -22.69869226850366 0 0 1 0 0 0 1 forward_v I I I I #
coedge $-1 $369 $360 $356 $473 forward $353 $-1 #
edge $-1 $477 -14.090438151484612 $364 -3.1260700825534826 $355 $533 forward 7 unknown #
edge $-1 $365 3.1260700825534826 $476 14.090438151484612 $471 $534 forward 7 unknown #
coedge $-1 $367 $358 $372 $486 reversed $469 $-1 #
coedge $-1 $358 $367 $369 $484 reversed $469 $-1 #
vertex $-1 $484 $535 #
vertex $-1 $359 $536 #
straight-curve $-1 -41.780628112060853 -22.69869226850366 0 0 0 1 I I #
straight-curve $-1 -21.943759326236989 -11.73432419957253 -8.682196106107881 1 0 0 I I #
straight-curve $-1 -21.943759326236989 -11.73432419957253 8.682196106107881 -1 0 0 I I #
point $-1 -41.780628112060853 -11.73432419957253 8.682196106107881 #
point $-1 -41.780628112060853 -11.73432419957253 -8.682196106107881 #
straight-curve $-1 -45.994409192887105 -22.69869226850366 0 0 0 -1 I I #
edge $-1 $476 41.780628112060853 $370 45.994409192887105 $475 $537 forward 7 unknown #
point $-1 -45.994409192887105 -22.69869226850366 -8.682196106107881 #
edge $-1 $373 -45.994409192887105 $477 -41.780628112060853 $474 $538 forward 7 unknown #
point $-1 -45.994409192887105 -22.69869226850366 8.682196106107881 #
edge $-1 $489 18.296771477369955 $492 25.939535122159743 $378 $539 forward 7 unknown #
vertex $-1 $392 $540 #
straight-curve $-1 -67.309016453289132 5.482184034465563 8.682196106107881 -1 0 0 I I #
edge $-1 $492 -4.4287689832169015 $389 2.3219388807195784 $388 $541 forward 7 unknown #
vertex $-1 $491 $542 #
straight-curve $-1 -49.930722983489474 5.482184034465563 1.0394324613181141 0.52991925155115449 0 0.84804810408105047 I I #
point $-1 -45.154994376893484 5.482184034465563 8.682196106107881 #
point $-1 -49.930722983489488 -1.2685238294709169 1.0394324613180914 #
straight-curve $-1 -49.930722983489488 0 8.682196106107881 0 -1 0 I I #
vertex $-1 $395 $543 #
point $-1 -45.761935748393292 0.66024984593950364 4.3375593587230563 #
vertex $-1 $399 $544 #
point $-1 -45.761935748393292 3.5534103590551389 4.3375593587230563 #
coedge $-1 $502 $405 $508 $545 reversed $280 $-1 #
coedge $-1 $405 $501 $408 $506 reversed $280 $-1 #
edge $-1 $504 -13.037023100235947 $413 -6.286315236299469 $412 $546 forward 7 unknown #
vertex $-1 $407 $547 #
straight-curve $-1 -43.153648570278335 22.69869226850366 11.885019011564628 -0.52991925155115449 0 -0.84804810408105047 I I #
edge $-1 $409 45.154994376893484 $510 49.930722983489488 $502 $548 forward 7 unknown #
point $-1 -45.154994376893484 22.698692268503656 8.682196106107881 #
coedge $-1 $412 $411 $501 $545 forward $403 $-1 #
point $-1 -49.930722983489488 15.947984404567178 1.0394324613180914 #
vertex $-1 $506 $549 #
straight-curve $-1 -49.930722983489488 0 8.682196106107881 0 -1 0 I I #
vertex $-1 $419 $550 #
point $-1 -45.761935748393292 17.876758079977595 4.3375593587230563 #
vertex $-1 $423 $551 #
point $-1 -45.761935748393292 20.769918593093234 4.3375593587230563 #
edge $-1 $517 62.472109920207103 $520 68.696708955610902 $428 $552 forward 7 unknown #
vertex $-1 $442 $553 #
straight-curve $-1 34.792751655934694 -11.734324199572534 8.682196106107881 1 0 0 I I #
edge $-1 $520 -8.0126439308275756 $439 0.56928339333765887 $438 $554 forward 7 unknown #
vertex $-1 $519 $555 #
straight-curve $-1 -10.167394343283505 -11.734324199572534 82.210494725856989 -0.60181501223851219 0 0.79863551827123203 I I #
point $-1 45.240151303456678 -11.734324199572534 8.682196106107881 #
point $-1 49.930722983489488 -3.1523968754072991 2.4575970707040824 #
straight-curve $-1 49.930722983489488 0 8.682196106107881 0 1 0 I I #
vertex $-1 $445 $556 #
point $-1 47.024627781888654 -9.282344964096751 3.8951607894014213 #
vertex $-1 $449 $557 #
point $-1 47.024627781888654 -5.6043761108830772 3.8951607894014213 #
straight-curve $-1 -49.930722983489488 22.69869226850366 0 0 0 -1 I I #
point $-1 -49.930722983489488 -22.69869226850366 -8.682196106107881 #
straight-curve $-1 -49.930722983489488 0 -8.682196106107881 0 1 0 I I #
point $-1 -49.930722983489488 22.69869226850366 -8.682196106107881 #
straight-curve $-1 -41.780628112060853 -8.6082541170190474 8.682196106107881 0 1 0 I I #
straight-curve $-1 -41.780628112060853 -8.6082541170190474 -8.682196106107881 0 -1 0 I I #
point $-1 -41.780628112060853 -22.69869226850366 -8.682196106107881 #
point $-1 -41.780628112060853 -22.69869226850366 8.682196106107881 #
straight-curve $-1 0 -22.69869226850366 -8.682196106107881 -1 0 0 I I #
straight-curve $-1 0 -22.69869226850366 8.682196106107881 1 0 0 I I #
straight-curve $-1 -49.930722983489488 5.482184034465563 26.978967583477836 0 0 -1 I I #
point $-1 -49.930722983489488 5.482184034465563 8.682196106107881 #
straight-curve $-1 -49.930722983489488 1.0534150512486615 1.0394324613180908 0 -1 0 I I #
point $-1 -49.930722983489488 5.482184034465563 1.0394324613180914 #
point $-1 -45.602871322128344 0.66024984593950364 3.6485756809069536 #
point $-1 -45.602871322128344 3.5534103590551389 3.6485756809069536 #
edge $-1 $510 -8.682196106107881 $504 -1.0394324613180914 $501 $558 forward 7 unknown #
straight-curve $-1 -49.930722983489488 9.6616691682677089 1.0394324613180908 0 -1 0 I I #
point $-1 -49.930722983489488 22.698692268503656 1.0394324613180914 #
straight-curve $-1 0 22.69869226850366 8.682196106107881 -1 0 0 I I #
point $-1 -49.930722983489488 22.69869226850366 8.682196106107881 #
point $-1 -45.602871322128344 17.876758079977595 3.6485756809069536 #
point $-1 -45.602871322128344 20.769918593093234 3.6485756809069536 #
straight-curve $-1 49.930722983489488 -11.734324199572534 71.154306026314984 0 0 -1 I I #
point $-1 49.930722983489488 -11.734324199572534 8.682196106107881 #
straight-curve $-1 49.930722983489488 -3.7216802687449579 2.4575970707040824 0 1 0 I I #
point $-1 49.930722983489488 -11.734324199572534 2.4575970707040824 #
point $-1 45.62417725137891 -9.282344964096751 4.0919812954341408 #
point $-1 45.62417725137891 -5.6043761108830772 4.0919812954341408 #
straight-curve $-1 -49.930722983489488 22.69869226850366 0 0 0 -1 I I #
End-of-ACIS-data 