500 0 9 0           
7 Unknown 11 ACIS 5.0 NT 24 Fri Mar 26 02:21:28 1999 
-1 9.9999999999999995e-007 1e-010 
body $-1 $9 $-1 $10 #
body $-1 $11 $-1 $12 #
body $-1 $13 $-1 $14 #
body $-1 $15 $-1 $16 #
body $-1 $17 $-1 $18 #
body $-1 $19 $-1 $20 #
body $-1 $21 $-1 $22 #
body $-1 $23 $-1 $24 #
body $-1 $25 $-1 $26 #
lump $-1 $-1 $27 $0 #
transform $-1 1 0 0 0 1 0 0 0 1 43.739127780999176 26.243610153898072 9.957386493677717 1 rotate no_reflect no_shear #
lump $-1 $-1 $28 $1 #
transform $-1 1 0 0 0 1 0 0 0 1 43.739127780999176 26.243610153898072 9.957386493677717 1 rotate no_reflect no_shear #
lump $-1 $-1 $29 $2 #
transform $-1 1 0 0 0 1 0 0 0 1 43.739127780999176 26.243610153898072 9.957386493677717 1 rotate no_reflect no_shear #
lump $-1 $-1 $30 $3 #
transform $-1 1 0 0 0 1 0 0 0 1 43.739127780999176 26.243610153898072 9.957386493677717 1 rotate no_reflect no_shear #
lump $-1 $-1 $31 $4 #
transform $-1 1 0 0 0 1 0 0 0 1 43.739127780999176 26.243610153898072 9.957386493677717 1 rotate no_reflect no_shear #
lump $-1 $-1 $32 $5 #
transform $-1 1 0 0 0 1 0 0 0 1 43.739127780999176 26.243610153898072 9.957386493677717 1 rotate no_reflect no_shear #
lump $-1 $-1 $33 $6 #
transform $-1 1 0 0 0 1 0 0 0 1 43.739127780999176 26.243610153898072 9.957386493677717 1 rotate no_reflect no_shear #
lump $-1 $-1 $34 $7 #
transform $-1 1 0 0 0 1 0 0 0 1 43.739127780999176 26.243610153898072 9.957386493677717 1 rotate no_reflect no_shear #
lump $-1 $-1 $35 $8 #
transform $-1 1 0 0 0 1 0 0 0 1 43.739127780999176 26.243610153898072 9.957386493677717 1 rotate no_reflect no_shear #
shell $-1 $-1 $-1 $36 $-1 $9 #
shell $-1 $-1 $-1 $37 $-1 $11 #
shell $-1 $-1 $-1 $38 $-1 $13 #
shell $-1 $-1 $-1 $39 $-1 $15 #
shell $-1 $-1 $-1 $40 $-1 $17 #
shell $-1 $-1 $-1 $41 $-1 $19 #
shell $-1 $-1 $-1 $42 $-1 $21 #
shell $-1 $-1 $-1 $43 $-1 $23 #
shell $-1 $-1 $-1 $44 $-1 $25 #
face $-1 $45 $46 $27 $-1 $47 forward single #
face $-1 $48 $49 $28 $-1 $50 reversed single #
face $-1 $51 $52 $29 $-1 $53 reversed single #
face $-1 $54 $55 $30 $-1 $56 reversed single #
face $-1 $57 $58 $31 $-1 $59 forward single #
face $-1 $60 $61 $32 $-1 $62 reversed single #
face $-1 $63 $64 $33 $-1 $65 forward single #
face $-1 $66 $67 $34 $-1 $68 reversed single #
face $-1 $69 $70 $35 $-1 $71 forward single #
face $-1 $72 $73 $27 $-1 $74 reversed single #
loop $-1 $-1 $75 $36 #
plane-surface $-1 0 0 9.957386493677717 0 0 1 1 0 0 forward_v I I I I #
face $-1 $76 $77 $28 $-1 $78 reversed single #
loop $-1 $-1 $79 $37 #
plane-surface $-1 0 -22.031869962094419 4.8158414928802458 0 0 1 1 0 0 forward_v I I I I #
face $-1 $80 $81 $29 $-1 $82 reversed single #
loop $-1 $-1 $83 $38 #
plane-surface $-1 0 22.031869962094422 4.8158414928802458 0 0 1 1 0 0 forward_v I I I I #
face $-1 $84 $85 $30 $-1 $86 reversed single #
loop $-1 $-1 $87 $39 #
plane-surface $-1 18.01776322964178 -5.9400432567635901 127.52610254141049 0 -1 0 -0.54463904215088732 0 -0.83867056331134215 forward_v I I I I #
face $-1 $88 $89 $31 $-1 $90 forward single #
loop $-1 $91 $92 $40 #
cone-surface $-1 40.568105331802563 -9.6183880184498918 7.4334218691811538 -0.54463904215088732 0 -0.83867056331134215 0.83867056331134215 0 -0.54463904215088732 1 I I 0 1 1 forward I I I I #
face $-1 $93 $94 $32 $-1 $95 reversed single #
loop $-1 $-1 $96 $41 #
plane-surface $-1 18.01776322964178 5.9400432567635884 127.52610254141049 0 -1 0 -0.54463904215088732 0 -0.83867056331134215 forward_v I I I I #
face $-1 $97 $98 $33 $-1 $99 forward single #
loop $-1 $100 $101 $42 #
cone-surface $-1 40.568105331802563 2.2616984950772867 7.4334218691811538 -0.54463904215088732 0 -0.83867056331134215 0.83867056331134215 0 -0.54463904215088732 1 I I 0 1 1 forward I I I I #
face $-1 $102 $103 $34 $-1 $104 reversed single #
loop $-1 $-1 $105 $43 #
plane-surface $-1 18.01776322964178 10.463440246918161 127.52610254141049 0 1 0 0.54463904215088732 0 0.83867056331134215 forward_v I I I I #
face $-1 $106 $107 $35 $-1 $108 forward single #
loop $-1 $109 $110 $44 #
cone-surface $-1 40.568105331802563 14.141785008604462 7.4334218691811538 -0.54463904215088732 0 -0.83867056331134215 0.83867056331134215 0 -0.54463904215088732 1 I I 0 1 1 forward I I I I #
face $-1 $111 $112 $27 $-1 $113 reversed single #
loop $-1 $-1 $114 $45 #
plane-surface $-1 0 0 -9.957386493677717 0 0 1 1 0 0 forward_v I I I I #
coedge $-1 $115 $116 $117 $118 forward $46 $-1 #
face $-1 $119 $120 $28 $-1 $121 reversed single #
loop $-1 $-1 $122 $48 #
plane-surface $-1 0 -17.820129770290766 7.3866139932789814 0 -1 0 0 0 -1 forward_v I I I I #
coedge $-1 $123 $124 $125 $126 reversed $49 $-1 #
face $-1 $127 $128 $29 $-1 $129 forward single #
loop $-1 $-1 $130 $51 #
plane-surface $-1 0 17.820129770290769 7.3866139932789814 0 1 0 0 0 1 forward_v I I I I #
coedge $-1 $131 $132 $133 $134 reversed $52 $-1 #
face $-1 $135 $136 $30 $-1 $137 reversed single #
loop $-1 $-1 $138 $54 #
plane-surface $-1 -29.626310088675524 -9.6183880184498918 54.160664671735802 0.54463904215088732 0 0.83867056331134215 0.83867056331134215 0 -0.54463904215088732 forward_v I I I I #
coedge $-1 $139 $140 $141 $142 reversed $55 $-1 #
face $-1 $-1 $143 $31 $-1 $144 forward single #
loop $-1 $145 $146 $57 #
cone-surface $-1 39.773943254257254 -9.6183880184498918 6.2105195331585534 -0.54463904215088732 0 -0.83867056331134215 0.41933528165567108 0 -0.27231952107544366 1 I I -0.70710678118654813 0.70710678118654691 0.5 forward I I I I #
loop $-1 $-1 $147 $40 #
coedge $-1 $92 $92 $148 $149 reversed $58 $-1 #
face $-1 $150 $151 $32 $-1 $152 reversed single #
loop $-1 $-1 $153 $60 #
plane-surface $-1 -29.626310088675524 2.2616984950772867 54.160664671735802 0.54463904215088732 0 0.83867056331134215 0.83867056331134215 0 -0.54463904215088732 forward_v I I I I #
coedge $-1 $154 $155 $156 $157 reversed $61 $-1 #
face $-1 $-1 $158 $33 $-1 $159 forward single #
loop $-1 $160 $161 $63 #
cone-surface $-1 39.773943254257254 2.2616984950772867 6.2105195331585534 -0.54463904215088732 0 -0.83867056331134215 0.41933528165567108 0 -0.27231952107544366 1 I I -0.70710678118654813 0.70710678118654691 0.5 forward I I I I #
loop $-1 $-1 $162 $42 #
coedge $-1 $101 $101 $163 $164 reversed $64 $-1 #
face $-1 $165 $166 $34 $-1 $167 reversed single #
loop $-1 $-1 $168 $66 #
plane-surface $-1 -29.626310088675524 14.141785008604462 54.160664671735802 0.54463904215088732 0 0.83867056331134215 0.83867056331134215 0 -0.54463904215088732 forward_v I I I I #
coedge $-1 $169 $170 $171 $172 reversed $67 $-1 #
face $-1 $-1 $173 $35 $-1 $174 forward single #
loop $-1 $175 $176 $69 #
cone-surface $-1 39.773943254257254 14.141785008604462 6.2105195331585534 -0.54463904215088732 0 -0.83867056331134215 0.41933528165567108 0 -0.27231952107544366 1 I I -0.70710678118654813 0.70710678118654691 0.5 forward I I I I #
loop $-1 $-1 $177 $44 #
coedge $-1 $110 $110 $178 $179 reversed $70 $-1 #
face $-1 $180 $181 $27 $-1 $182 reversed single #
loop $-1 $-1 $183 $72 #
plane-surface $-1 0 -26.243610153898072 0 0 1 0 0 0 1 forward_v I I I I #
coedge $-1 $184 $185 $186 $187 forward $73 $-1 #
coedge $-1 $188 $75 $189 $190 forward $46 $-1 #
coedge $-1 $75 $188 $191 $192 forward $46 $-1 #
coedge $-1 $193 $194 $75 $118 reversed $195 $-1 #
edge $-1 $196 -26.243610153898072 $197 26.243610153898072 $117 $198 forward 7 unknown #
face $-1 $199 $200 $28 $-1 $201 reversed single #
loop $-1 $-1 $202 $76 #
plane-surface $-1 -43.739127780999176 0 0 1 0 0 0 0 -1 forward_v I I I I #
coedge $-1 $203 $204 $205 $206 reversed $77 $-1 #
coedge $-1 $207 $79 $208 $209 reversed $49 $-1 #
coedge $-1 $79 $207 $203 $210 forward $49 $-1 #
coedge $-1 $205 $211 $79 $126 forward $212 $-1 #
edge $-1 $213 -15.227675172850862 $214 -6.8041947892435566 $125 $215 forward 7 unknown #
face $-1 $216 $217 $29 $-1 $218 reversed single #
loop $-1 $-1 $219 $80 #
plane-surface $-1 0 0 9.957386493677717 0 0 1 1 0 0 forward_v I I I I #
coedge $-1 $220 $221 $219 $222 reversed $81 $-1 #
coedge $-1 $223 $83 $224 $225 forward $52 $-1 #
coedge $-1 $83 $223 $226 $227 reversed $52 $-1 #
coedge $-1 $228 $229 $83 $134 forward $217 $-1 #
edge $-1 $230 6.8041947892435584 $231 15.227675172850864 $133 $232 forward 7 unknown #
face $-1 $233 $234 $30 $-1 $235 forward single #
loop $-1 $-1 $236 $84 #
plane-surface $-1 18.01776322964178 -13.296732780136193 127.52610254141049 0 1 0 0.54463904215088732 0 0.83867056331134215 forward_v I I I I #
coedge $-1 $237 $238 $239 $240 reversed $85 $-1 #
coedge $-1 $140 $87 $241 $242 reversed $55 $-1 #
coedge $-1 $87 $139 $237 $243 reversed $55 $-1 #
coedge $-1 $239 $244 $87 $142 forward $234 $-1 #
edge $-1 $245 -34.73024616617829 $246 -29.431886380724865 $141 $247 forward 7 unknown #
loop $-1 $-1 $148 $88 #
plane-surface $-1 -29.626310088675524 -9.6183880184498918 54.160664671735802 0.54463904215088732 0 0.83867056331134215 0.83867056331134215 0 -0.54463904215088732 forward_v I I I I #
loop $-1 $-1 $248 $57 #
coedge $-1 $146 $146 $147 $249 reversed $89 $-1 #
coedge $-1 $147 $147 $146 $249 forward $91 $-1 #
coedge $-1 $148 $148 $92 $149 forward $143 $-1 #
edge $-1 $250 0 $250 6.2831853071796004 $148 $251 forward 7 unknown #
face $-1 $252 $253 $32 $-1 $254 reversed single #
loop $-1 $-1 $255 $93 #
plane-surface $-1 18.01776322964178 -1.4166462666090149 127.52610254141049 0 1 0 0.54463904215088732 0 0.83867056331134215 forward_v I I I I #
coedge $-1 $256 $257 $258 $259 reversed $94 $-1 #
coedge $-1 $155 $96 $260 $261 reversed $61 $-1 #
coedge $-1 $96 $154 $256 $262 reversed $61 $-1 #
coedge $-1 $258 $263 $96 $157 forward $264 $-1 #
edge $-1 $265 -34.73024616617829 $266 -29.431886380724865 $156 $267 forward 7 unknown #
loop $-1 $-1 $163 $97 #
plane-surface $-1 -29.626310088675524 2.2616984950772867 54.160664671735802 0.54463904215088732 0 0.83867056331134215 0.83867056331134215 0 -0.54463904215088732 forward_v I I I I #
loop $-1 $-1 $268 $63 #
coedge $-1 $161 $161 $162 $269 reversed $98 $-1 #
coedge $-1 $162 $162 $161 $269 forward $100 $-1 #
coedge $-1 $163 $163 $101 $164 forward $158 $-1 #
edge $-1 $270 0 $270 6.2831853071796004 $163 $271 forward 7 unknown #
face $-1 $272 $273 $34 $-1 $274 forward single #
loop $-1 $-1 $171 $102 #
plane-surface $-1 43.739127780999176 0 0 -1 0 0 0 0 1 forward_v I I I I #
coedge $-1 $275 $276 $277 $278 reversed $103 $-1 #
coedge $-1 $170 $105 $279 $280 reversed $67 $-1 #
coedge $-1 $105 $169 $275 $281 reversed $67 $-1 #
coedge $-1 $277 $282 $105 $172 forward $166 $-1 #
edge $-1 $283 53.80566477702753 $284 57.246459917286757 $171 $285 forward 7 unknown #
loop $-1 $-1 $178 $106 #
plane-surface $-1 -29.626310088675524 14.141785008604462 54.160664671735802 0.54463904215088732 0 0.83867056331134215 0.83867056331134215 0 -0.54463904215088732 forward_v I I I I #
loop $-1 $-1 $286 $69 #
coedge $-1 $176 $176 $177 $287 reversed $107 $-1 #
coedge $-1 $177 $177 $176 $287 forward $109 $-1 #
coedge $-1 $178 $178 $110 $179 forward $173 $-1 #
edge $-1 $288 0 $288 6.2831853071796004 $178 $289 forward 7 unknown #
face $-1 $290 $291 $27 $-1 $292 reversed single #
loop $-1 $-1 $293 $111 #
plane-surface $-1 -43.739127780999176 0 0 1 0 0 0 0 -1 forward_v I I I I #
coedge $-1 $294 $191 $295 $296 forward $112 $-1 #
coedge $-1 $297 $114 $294 $298 forward $73 $-1 #
coedge $-1 $114 $297 $299 $300 forward $73 $-1 #
coedge $-1 $194 $193 $114 $187 reversed $195 $-1 #
edge $-1 $301 -26.243610153898072 $302 26.243610153898072 $186 $303 forward 7 unknown #
coedge $-1 $116 $115 $304 $305 forward $46 $-1 #
coedge $-1 $306 $307 $115 $190 reversed $291 $-1 #
edge $-1 $197 -43.739127780999176 $308 43.739127780999176 $189 $309 forward 7 unknown #
coedge $-1 $183 $310 $116 $192 reversed $112 $-1 #
edge $-1 $311 -43.739127780999176 $196 43.739127780999176 $191 $312 forward 7 unknown #
coedge $-1 $186 $117 $310 $313 forward $195 $-1 #
coedge $-1 $117 $186 $306 $314 reversed $195 $-1 #
loop $-1 $-1 $193 $290 #
vertex $-1 $118 $315 #
vertex $-1 $118 $316 #
straight-curve $-1 43.739127780999176 0 9.957386493677717 0 1 0 I I #
face $-1 $317 $318 $28 $-1 $319 forward single #
loop $-1 $-1 $208 $119 #
plane-surface $-1 0 -26.243610153898072 0 0 1 0 0 0 1 forward_v I I I I #
coedge $-1 $320 $321 $322 $323 forward $120 $-1 #
coedge $-1 $322 $122 $124 $210 reversed $77 $-1 #
coedge $-1 $122 $322 $324 $325 reversed $77 $-1 #
coedge $-1 $326 $125 $122 $206 forward $212 $-1 #
edge $-1 $214 1.1225344962407551 $327 6.2640794970382263 $205 $328 forward 7 unknown #
coedge $-1 $124 $123 $320 $329 reversed $49 $-1 #
coedge $-1 $330 $331 $123 $209 forward $200 $-1 #
edge $-1 $332 -43.739127780999176 $213 43.739127780999176 $208 $333 forward 7 unknown #
edge $-1 $334 -43.739127780999176 $214 43.739127780999176 $203 $335 forward 7 unknown #
coedge $-1 $125 $326 $330 $336 forward $212 $-1 #
loop $-1 $-1 $205 $317 #
vertex $-1 $209 $337 #
vertex $-1 $126 $338 #
straight-curve $-1 43.739127780999176 -11.015934981047209 4.8158414928802458 0 1 0 I I #
face $-1 $339 $340 $29 $-1 $341 reversed single #
loop $-1 $-1 $229 $127 #
plane-surface $-1 43.739127780999176 0 0 -1 0 0 0 0 1 forward_v I I I I #
coedge $-1 $342 $343 $130 $222 forward $128 $-1 #
coedge $-1 $224 $130 $344 $345 reversed $81 $-1 #
coedge $-1 $130 $224 $229 $346 reversed $81 $-1 #
edge $-1 $347 -43.739127780999176 $348 43.739127780999176 $219 $349 forward 7 unknown #
coedge $-1 $132 $131 $350 $351 reversed $52 $-1 #
coedge $-1 $221 $220 $131 $225 reversed $81 $-1 #
edge $-1 $230 -43.739127780999176 $352 43.739127780999176 $224 $353 forward 7 unknown #
coedge $-1 $354 $355 $132 $227 forward $356 $-1 #
edge $-1 $231 -43.739127780999176 $357 43.739127780999176 $226 $358 forward 7 unknown #
coedge $-1 $359 $133 $355 $360 reversed $217 $-1 #
coedge $-1 $133 $359 $221 $346 forward $217 $-1 #
vertex $-1 $134 $361 #
vertex $-1 $227 $362 #
straight-curve $-1 43.739127780999176 11.015934981047211 4.8158414928802458 0 1 0 I I #
face $-1 $-1 $363 $30 $-1 $364 reversed single #
loop $-1 $-1 $141 $135 #
plane-surface $-1 0 0 9.957386493677717 0 0 1 1 0 0 forward_v I I I I #
coedge $-1 $365 $366 $367 $368 reversed $136 $-1 #
coedge $-1 $369 $138 $140 $243 forward $85 $-1 #
coedge $-1 $138 $369 $365 $370 forward $85 $-1 #
coedge $-1 $367 $141 $138 $240 forward $234 $-1 #
edge $-1 $246 1.1308492475386442 $371 8.4875387709112466 $239 $372 forward 7 unknown #
coedge $-1 $373 $374 $139 $242 forward $363 $-1 #
edge $-1 $375 -57.246459917286757 $245 -53.80566477702753 $241 $376 forward 7 unknown #
edge $-1 $246 81.160685806677748 $375 87.478255561998338 $140 $377 forward 7 unknown #
coedge $-1 $141 $367 $373 $378 forward $234 $-1 #
vertex $-1 $242 $379 #
vertex $-1 $142 $380 #
straight-curve $-1 9.0088816148208899 -5.9400432567635901 9.957386493677717 -1 0 0 I I #
coedge $-1 $248 $248 $-1 $381 reversed $145 $-1 #
edge $-1 $382 0 $382 6.2831853071796004 $146 $383 forward 7 unknown #
vertex $-1 $149 $384 #
ellipse-curve $-1 41.089947888272455 -9.6183880184498918 8.2369889235481164 0.54463904215088732 0 0.83867056331134215 0.83867056331134215 0 -0.54463904215088732 1 I I #
face $-1 $-1 $264 $32 $-1 $385 forward single #
loop $-1 $-1 $386 $150 #
plane-surface $-1 43.739127780999176 0 0 -1 0 0 0 0 1 forward_v I I I I #
coedge $-1 $387 $388 $389 $390 reversed $151 $-1 #
coedge $-1 $391 $153 $155 $262 forward $94 $-1 #
coedge $-1 $153 $391 $387 $392 forward $94 $-1 #
coedge $-1 $389 $156 $153 $259 forward $264 $-1 #
edge $-1 $266 -4.809194009224945 $393 2.5474955141476583 $258 $394 forward 7 unknown #
coedge $-1 $395 $396 $154 $261 forward $253 $-1 #
edge $-1 $397 -57.246459917286757 $265 -53.80566477702753 $260 $398 forward 7 unknown #
edge $-1 $266 81.160685806677748 $397 87.478255561998338 $155 $399 forward 7 unknown #
coedge $-1 $156 $389 $395 $400 forward $264 $-1 #
loop $-1 $-1 $389 $252 #
vertex $-1 $261 $401 #
vertex $-1 $157 $402 #
straight-curve $-1 9.0088816148208899 5.9400432567635884 9.957386493677717 -1 0 0 I I #
coedge $-1 $268 $268 $-1 $403 reversed $160 $-1 #
edge $-1 $404 0 $404 6.2831853071796004 $161 $405 forward 7 unknown #
vertex $-1 $164 $406 #
ellipse-curve $-1 41.089947888272455 2.2616984950772867 8.2369889235481164 0.54463904215088732 0 0.83867056331134215 0.83867056331134215 0 -0.54463904215088732 1 I I #
face $-1 $-1 $407 $34 $-1 $408 forward single #
loop $-1 $-1 $279 $165 #
plane-surface $-1 0 0 9.957386493677717 0 0 1 1 0 0 forward_v I I I I #
coedge $-1 $409 $168 $170 $281 forward $103 $-1 #
coedge $-1 $168 $409 $410 $411 reversed $103 $-1 #
coedge $-1 $412 $171 $168 $278 forward $166 $-1 #
edge $-1 $284 3.3925477426159301 $413 10.749237265988539 $277 $414 forward 7 unknown #
coedge $-1 $415 $416 $169 $280 forward $273 $-1 #
edge $-1 $417 29.431886380724865 $283 34.73024616617829 $279 $418 forward 7 unknown #
edge $-1 $284 -87.478255561998338 $417 -81.160685806677748 $170 $419 forward 7 unknown #
coedge $-1 $171 $412 $415 $420 reversed $166 $-1 #
vertex $-1 $420 $421 #
vertex $-1 $172 $422 #
straight-curve $-1 43.739127780999176 10.463440246918161 63.763051270705247 0 0 -1 I I #
coedge $-1 $286 $286 $-1 $423 reversed $175 $-1 #
edge $-1 $424 0 $424 6.2831853071796004 $176 $425 forward 7 unknown #
vertex $-1 $179 $426 #
ellipse-curve $-1 41.089947888272455 14.141785008604462 8.2369889235481164 0.54463904215088732 0 0.83867056331134215 0.83867056331134215 0 -0.54463904215088732 1 I I #
face $-1 $-1 $195 $27 $-1 $427 reversed single #
loop $-1 $-1 $306 $180 #
plane-surface $-1 0 26.243610153898072 0 0 -1 0 0 0 -1 forward_v I I I I #
coedge $-1 $428 $304 $307 $429 forward $181 $-1 #
coedge $-1 $310 $183 $184 $298 reversed $112 $-1 #
coedge $-1 $304 $428 $183 $296 reversed $181 $-1 #
edge $-1 $311 -9.957386493677717 $430 9.957386493677717 $295 $431 forward 7 unknown #
coedge $-1 $185 $184 $428 $432 forward $73 $-1 #
edge $-1 $302 -43.739127780999176 $430 43.739127780999176 $294 $433 forward 7 unknown #
coedge $-1 $307 $306 $185 $300 reversed $291 $-1 #
edge $-1 $434 -43.739127780999176 $301 43.739127780999176 $299 $435 forward 7 unknown #
vertex $-1 $187 $436 #
vertex $-1 $313 $437 #
straight-curve $-1 43.739127780999176 0 -9.957386493677717 0 -1 0 I I #
coedge $-1 $293 $295 $188 $305 reversed $181 $-1 #
edge $-1 $308 -26.243610153898072 $311 26.243610153898072 $304 $438 forward 7 unknown #
coedge $-1 $299 $189 $194 $314 forward $291 $-1 #
coedge $-1 $189 $299 $293 $429 reversed $291 $-1 #
vertex $-1 $190 $439 #
straight-curve $-1 0 26.243610153898072 9.957386493677717 -1 0 0 I I #
coedge $-1 $191 $294 $193 $313 reversed $112 $-1 #
vertex $-1 $305 $440 #
straight-curve $-1 0 -26.243610153898072 9.957386493677717 1 0 0 I I #
edge $-1 $196 -9.957386493677717 $302 9.957386493677717 $193 $441 forward 7 unknown #
edge $-1 $197 -9.957386493677717 $301 9.957386493677717 $194 $442 forward 7 unknown #
point $-1 43.739127780999176 -26.243610153898072 9.957386493677717 #
point $-1 43.739127780999176 26.243610153898072 9.957386493677717 #
face $-1 $-1 $212 $28 $-1 $443 reversed single #
loop $-1 $-1 $324 $199 #
plane-surface $-1 0 0 9.957386493677717 0 0 1 1 0 0 forward_v I I I I #
coedge $-1 $444 $202 $207 $329 forward $120 $-1 #
coedge $-1 $202 $444 $445 $446 reversed $120 $-1 #
coedge $-1 $204 $203 $202 $323 reversed $77 $-1 #
edge $-1 $447 -6.2640794970382263 $334 -1.1225344962407551 $202 $448 forward 7 unknown #
coedge $-1 $445 $449 $204 $325 forward $318 $-1 #
edge $-1 $327 -43.739127780999176 $447 43.739127780999176 $324 $450 forward 7 unknown #
coedge $-1 $211 $205 $449 $451 reversed $212 $-1 #
vertex $-1 $206 $452 #
straight-curve $-1 43.739127780999176 -17.820129770290766 3.6933069966394907 0 0 1 I I #
edge $-1 $334 6.8041947892435566 $332 15.227675172850862 $320 $453 forward 7 unknown #
coedge $-1 $454 $208 $211 $336 reversed $200 $-1 #
coedge $-1 $208 $454 $444 $455 forward $200 $-1 #
vertex $-1 $209 $456 #
straight-curve $-1 0 -26.243610153898072 4.8158414928802458 1 0 0 I I #
vertex $-1 $329 $457 #
straight-curve $-1 0 -17.820129770290766 4.8158414928802458 1 0 0 I I #
edge $-1 $458 -9.957386493677717 $213 -4.8158414928802458 $211 $459 forward 7 unknown #
point $-1 43.739127780999176 -26.243610153898072 4.8158414928802458 #
point $-1 43.739127780999176 -17.820129770290766 4.8158414928802458 #
face $-1 $-1 $356 $29 $-1 $460 reversed single #
loop $-1 $-1 $344 $216 #
plane-surface $-1 -43.739127780999176 0 0 1 0 0 0 0 -1 forward_v I I I I #
coedge $-1 $461 $219 $359 $462 forward $128 $-1 #
coedge $-1 $219 $461 $463 $464 forward $128 $-1 #
coedge $-1 $463 $350 $220 $345 forward $340 $-1 #
edge $-1 $352 1.1225344962407551 $347 6.2640794970382263 $344 $465 forward 7 unknown #
edge $-1 $348 -6.2640794970382263 $230 -1.1225344962407551 $229 $466 forward 7 unknown #
vertex $-1 $345 $467 #
vertex $-1 $462 $468 #
straight-curve $-1 0 17.820129770290769 9.957386493677717 1 0 0 I I #
coedge $-1 $344 $469 $223 $351 forward $340 $-1 #
edge $-1 $357 -15.227675172850864 $352 -6.8041947892435584 $350 $470 forward 7 unknown #
vertex $-1 $351 $471 #
straight-curve $-1 0 17.820129770290769 4.8158414928802458 -1 0 0 I I #
coedge $-1 $472 $226 $469 $473 reversed $356 $-1 #
coedge $-1 $226 $472 $228 $360 forward $356 $-1 #
loop $-1 $-1 $226 $339 #
vertex $-1 $227 $474 #
straight-curve $-1 0 26.243610153898072 4.8158414928802458 -1 0 0 I I #
coedge $-1 $229 $228 $342 $462 reversed $217 $-1 #
edge $-1 $475 -9.957386493677717 $231 -4.8158414928802458 $228 $476 forward 7 unknown #
point $-1 43.739127780999176 17.820129770290769 4.8158414928802458 #
point $-1 43.739127780999176 26.243610153898075 4.8158414928802458 #
loop $-1 $-1 $241 $233 #
plane-surface $-1 43.739127780999176 0 0 -1 0 0 0 0 1 forward_v I I I I #
coedge $-1 $366 $236 $238 $370 reversed $136 $-1 #
coedge $-1 $236 $365 $477 $478 reversed $136 $-1 #
coedge $-1 $244 $239 $236 $368 forward $234 $-1 #
edge $-1 $371 29.431886380724865 $479 34.73024616617829 $367 $480 forward 7 unknown #
coedge $-1 $238 $237 $374 $481 reversed $85 $-1 #
edge $-1 $482 -87.478255561998338 $371 -81.160685806677748 $365 $483 forward 7 unknown #
vertex $-1 $240 $484 #
straight-curve $-1 38.440767995545755 -4.8091940092249459 9.957386493677717 0 -1 0 I I #
coedge $-1 $477 $241 $244 $378 reversed $363 $-1 #
coedge $-1 $241 $477 $369 $481 forward $363 $-1 #
vertex $-1 $242 $485 #
straight-curve $-1 43.739127780999176 -5.9400432567635901 63.763051270705247 0 0 1 I I #
straight-curve $-1 -29.626310088675524 -5.9400432567635901 54.160664671735802 0.83867056331134215 0 -0.54463904215088732 I I #
edge $-1 $479 -13.296732780136193 $245 -5.9400432567635901 $373 $486 forward 7 unknown #
point $-1 43.739127780999176 -5.9400432567635901 9.957386493677717 #
point $-1 38.440767995545755 -5.9400432567635901 9.957386493677717 #
edge $-1 $487 1 $487 0 $248 $-1 forward 7 unknown #
vertex $-1 $249 $488 #
ellipse-curve $-1 40.0462627753327 -9.6183880184498918 6.629854814814224 0.54463904215088732 0 0.83867056331134215 0.83867056331134215 0 -0.54463904215088732 1 I I #
point $-1 41.928618451583773 -9.6183880184498918 7.6923498813971989 #
plane-surface $-1 0 0 9.957386493677717 0 0 1 1 0 0 forward_v I I I I #
coedge $-1 $396 $395 $388 $489 forward $253 $-1 #
coedge $-1 $388 $255 $257 $392 reversed $151 $-1 #
coedge $-1 $255 $387 $386 $489 reversed $151 $-1 #
coedge $-1 $263 $258 $255 $390 forward $264 $-1 #
edge $-1 $393 29.431886380724865 $490 34.73024616617829 $389 $491 forward 7 unknown #
coedge $-1 $257 $256 $396 $492 reversed $94 $-1 #
edge $-1 $493 -87.478255561998338 $393 -81.160685806677748 $387 $494 forward 7 unknown #
vertex $-1 $259 $495 #
straight-curve $-1 38.440767995545755 1.1308492475386434 9.957386493677717 0 -1 0 I I #
coedge $-1 $386 $260 $263 $400 reversed $253 $-1 #
coedge $-1 $260 $386 $391 $492 forward $253 $-1 #
vertex $-1 $261 $496 #
straight-curve $-1 43.739127780999176 5.9400432567635884 63.763051270705247 0 0 1 I I #
straight-curve $-1 -29.626310088675524 5.9400432567635884 54.160664671735802 0.83867056331134215 0 -0.54463904215088732 I I #
edge $-1 $490 -1.4166462666090149 $265 5.9400432567635884 $395 $497 forward 7 unknown #
point $-1 43.739127780999176 5.9400432567635884 9.957386493677717 #
point $-1 38.440767995545755 5.9400432567635884 9.957386493677717 #
edge $-1 $498 1 $498 0 $268 $-1 forward 7 unknown #
vertex $-1 $269 $499 #
ellipse-curve $-1 40.0462627753327 2.2616984950772867 6.629854814814224 0.54463904215088732 0 0.83867056331134215 0.83867056331134215 0 -0.54463904215088732 1 I I #
point $-1 41.928618451583773 2.2616984950772867 7.6923498813971989 #
loop $-1 $-1 $410 $272 #
plane-surface $-1 0 17.820129770290769 7.3866139932789814 0 1 0 0 0 1 forward_v I I I I #
coedge $-1 $276 $275 $416 $500 reversed $103 $-1 #
coedge $-1 $501 $502 $276 $411 forward $407 $-1 #
edge $-1 $413 -62.317411397029446 $503 -55.999841641708855 $410 $504 forward 7 unknown #
coedge $-1 $282 $277 $502 $505 forward $166 $-1 #
vertex $-1 $505 $506 #
straight-curve $-1 43.739127780999169 7.0708925043022308 6.5165913534184909 0 1 0 I I #
coedge $-1 $507 $279 $282 $420 forward $273 $-1 #
coedge $-1 $279 $507 $409 $500 forward $273 $-1 #
vertex $-1 $280 $508 #
straight-curve $-1 9.0088816148208899 10.463440246918161 9.957386493677717 1 0 0 I I #
straight-curve $-1 -29.626310088675524 10.463440246918161 54.160664671735802 -0.83867056331134215 0 0.54463904215088732 I I #
edge $-1 $283 10.463440246918161 $509 17.820129770290769 $282 $510 forward 7 unknown #
point $-1 43.739127780999176 10.463440246918161 9.957386493677717 #
point $-1 43.739127780999183 10.463440246918161 6.5165913534184909 #
edge $-1 $511 1 $511 0 $286 $-1 forward 7 unknown #
vertex $-1 $287 $512 #
ellipse-curve $-1 40.0462627753327 14.141785008604462 6.629854814814224 0.54463904215088732 0 0.83867056331134215 0.83867056331134215 0 -0.54463904215088732 1 I I #
point $-1 41.928618451583773 14.141785008604462 7.6923498813971989 #
plane-surface $-1 43.739127780999176 0 0 -1 0 0 0 0 1 forward_v I I I I #
coedge $-1 $295 $293 $297 $432 reversed $181 $-1 #
edge $-1 $308 -9.957386493677717 $434 9.957386493677717 $307 $513 forward 7 unknown #
vertex $-1 $432 $514 #
straight-curve $-1 -43.739127780999176 -26.243610153898072 0 0 0 -1 I I #
edge $-1 $430 -26.243610153898072 $434 26.243610153898072 $428 $515 forward 7 unknown #
straight-curve $-1 0 -26.243610153898072 -9.957386493677717 -1 0 0 I I #
vertex $-1 $300 $516 #
straight-curve $-1 0 26.243610153898072 -9.957386493677717 1 0 0 I I #
point $-1 43.739127780999176 26.243610153898072 -9.957386493677717 #
point $-1 43.739127780999176 -26.243610153898072 -9.957386493677717 #
straight-curve $-1 -43.739127780999176 0 9.957386493677717 0 -1 0 I I #
point $-1 -43.739127780999176 26.243610153898072 9.957386493677717 #
point $-1 -43.739127780999176 -26.243610153898072 9.957386493677717 #
straight-curve $-1 43.739127780999176 -26.243610153898072 0 0 0 -1 I I #
straight-curve $-1 43.739127780999176 26.243610153898072 0 0 0 -1 I I #
plane-surface $-1 43.739127780999176 0 0 -1 0 0 0 0 1 forward_v I I I I #
coedge $-1 $321 $320 $331 $455 reversed $120 $-1 #
coedge $-1 $517 $324 $321 $446 forward $318 $-1 #
edge $-1 $447 17.820129770290766 $518 26.243610153898072 $321 $519 forward 7 unknown #
vertex $-1 $446 $520 #
straight-curve $-1 -43.739127780999176 -17.820129770290766 3.6933069966394907 0 0 -1 I I #
coedge $-1 $324 $517 $326 $451 forward $318 $-1 #
straight-curve $-1 0 -17.820129770290766 9.957386493677717 -1 0 0 I I #
edge $-1 $458 -26.243610153898072 $327 -17.820129770290766 $326 $521 forward 7 unknown #
point $-1 43.739127780999176 -17.820129770290766 9.957386493677717 #
straight-curve $-1 -43.739127780999176 -11.015934981047209 4.8158414928802458 0 -1 0 I I #
coedge $-1 $331 $330 $517 $522 reversed $200 $-1 #
edge $-1 $518 -9.957386493677717 $332 -4.8158414928802458 $444 $523 forward 7 unknown #
point $-1 -43.739127780999176 -26.243610153898072 4.8158414928802458 #
point $-1 -43.739127780999176 -17.820129770290766 4.8158414928802458 #
vertex $-1 $451 $524 #
straight-curve $-1 43.739127780999176 -26.243610153898072 0 0 0 -1 I I #
plane-surface $-1 0 26.243610153898072 0 0 -1 0 0 0 -1 forward_v I I I I #
coedge $-1 $343 $342 $472 $525 forward $128 $-1 #
edge $-1 $348 17.820129770290769 $475 26.243610153898072 $359 $526 forward 7 unknown #
coedge $-1 $469 $344 $343 $464 reversed $340 $-1 #
edge $-1 $527 -26.243610153898072 $347 -17.820129770290769 $463 $528 forward 7 unknown #
straight-curve $-1 -43.739127780999176 17.820129770290769 3.6933069966394907 0 0 1 I I #
straight-curve $-1 43.739127780999176 17.820129770290769 3.6933069966394907 0 0 -1 I I #
point $-1 -43.739127780999176 17.820129770290769 9.957386493677717 #
point $-1 43.739127780999176 17.820129770290769 9.957386493677717 #
coedge $-1 $350 $463 $354 $473 forward $340 $-1 #
straight-curve $-1 -43.739127780999176 11.015934981047211 4.8158414928802458 0 -1 0 I I #
point $-1 -43.739127780999176 17.820129770290769 4.8158414928802458 #
coedge $-1 $355 $354 $461 $525 reversed $356 $-1 #
edge $-1 $527 -9.957386493677717 $357 -4.8158414928802458 $354 $529 forward 7 unknown #
point $-1 -43.739127780999176 26.243610153898075 4.8158414928802458 #
vertex $-1 $462 $530 #
straight-curve $-1 43.739127780999176 26.243610153898072 0 0 0 -1 I I #
coedge $-1 $374 $373 $366 $478 forward $363 $-1 #
edge $-1 $479 53.80566477702753 $482 57.246459917286757 $477 $531 forward 7 unknown #
vertex $-1 $378 $532 #
straight-curve $-1 9.0088816148208899 -13.296732780136193 9.957386493677717 1 0 0 I I #
edge $-1 $482 -8.4875387709112466 $375 -1.1308492475386442 $374 $533 forward 7 unknown #
vertex $-1 $481 $534 #
straight-curve $-1 -29.626310088675524 -13.296732780136193 54.160664671735802 -0.83867056331134215 0 0.54463904215088732 I I #
point $-1 38.440767995545755 -13.296732780136193 9.957386493677717 #
point $-1 43.739127780999183 -5.9400432567635901 6.5165913534184909 #
straight-curve $-1 43.739127780999176 0 9.957386493677717 0 1 0 I I #
vertex $-1 $381 $535 #
point $-1 40.884933338644039 -9.6183880184498918 6.0852157726633367 #
edge $-1 $490 53.80566477702753 $493 57.246459917286757 $386 $536 forward 7 unknown #
vertex $-1 $400 $537 #
straight-curve $-1 9.0088816148208899 -1.4166462666090149 9.957386493677717 1 0 0 I I #
edge $-1 $493 -2.5474955141476583 $397 4.809194009224945 $396 $538 forward 7 unknown #
vertex $-1 $492 $539 #
straight-curve $-1 -29.626310088675524 -1.4166462666090149 54.160664671735802 -0.83867056331134215 0 0.54463904215088732 I I #
point $-1 38.440767995545755 -1.4166462666090149 9.957386493677717 #
point $-1 43.739127780999183 5.9400432567635884 6.5165913534184909 #
straight-curve $-1 43.739127780999176 0 9.957386493677717 0 1 0 I I #
vertex $-1 $403 $540 #
point $-1 40.884933338644039 2.2616984950772867 6.0852157726633367 #
edge $-1 $503 -10.749237265988532 $417 -3.3925477426159301 $416 $541 forward 7 unknown #
coedge $-1 $502 $410 $507 $542 reversed $407 $-1 #
coedge $-1 $410 $501 $412 $505 reversed $407 $-1 #
vertex $-1 $411 $543 #
straight-curve $-1 -8.5246507394521664 17.820129770290769 40.457086606019402 -0.83867056331134215 0 0.54463904215088732 I I #
edge $-1 $413 2.8232843567789967 $509 6.2640794970382263 $412 $544 forward 7 unknown #
point $-1 43.739127780999176 17.820129770290769 6.5165913534184874 #
coedge $-1 $416 $415 $501 $542 forward $273 $-1 #
point $-1 38.440767995545755 10.463440246918161 9.957386493677717 #
vertex $-1 $542 $545 #
straight-curve $-1 43.739127780999176 0 9.957386493677717 0 1 0 I I #
vertex $-1 $423 $546 #
point $-1 40.884933338644039 14.141785008604462 6.0852157726633367 #
straight-curve $-1 -43.739127780999176 26.243610153898072 0 0 0 -1 I I #
point $-1 -43.739127780999176 -26.243610153898072 -9.957386493677717 #
straight-curve $-1 -43.739127780999176 0 -9.957386493677717 0 1 0 I I #
point $-1 -43.739127780999176 26.243610153898072 -9.957386493677717 #
coedge $-1 $449 $445 $454 $522 forward $318 $-1 #
vertex $-1 $446 $547 #
straight-curve $-1 -43.739127780999176 0 9.957386493677717 0 -1 0 I I #
point $-1 -43.739127780999176 -17.820129770290766 9.957386493677717 #
straight-curve $-1 43.739127780999176 0 9.957386493677717 0 1 0 I I #
edge $-1 $518 -43.739127780999176 $458 43.739127780999176 $454 $548 forward 7 unknown #
straight-curve $-1 -43.739127780999176 -26.243610153898072 0 0 0 -1 I I #
point $-1 43.739127780999176 -26.243610153898072 9.957386493677717 #
edge $-1 $475 -43.739127780999176 $527 43.739127780999176 $472 $549 forward 7 unknown #
straight-curve $-1 43.739127780999176 0 9.957386493677717 0 1 0 I I #
vertex $-1 $525 $550 #
straight-curve $-1 -43.739127780999176 0 9.957386493677717 0 -1 0 I I #
straight-curve $-1 -43.739127780999176 26.243610153898072 0 0 0 -1 I I #
point $-1 43.739127780999176 26.243610153898072 9.957386493677717 #
straight-curve $-1 43.739127780999176 -13.296732780136193 63.763051270705247 0 0 -1 I I #
point $-1 43.739127780999176 -13.296732780136193 9.957386493677717 #
straight-curve $-1 43.739127780999169 -4.8091940092249459 6.5165913534184909 0 1 0 I I #
point $-1 43.739127780999183 -13.296732780136193 6.5165913534184909 #
point $-1 39.501623733181809 -9.6183880184498918 5.7911842515028829 #
straight-curve $-1 43.739127780999176 -1.4166462666090149 63.763051270705247 0 0 -1 I I #
point $-1 43.739127780999176 -1.4166462666090149 9.957386493677717 #
straight-curve $-1 43.739127780999169 1.1308492475386434 6.5165913534184909 0 1 0 I I #
point $-1 43.739127780999183 -1.4166462666090149 6.5165913534184909 #
point $-1 39.501623733181809 2.2616984950772867 5.7911842515028829 #
straight-curve $-1 38.440767995545755 7.0708925043022308 9.957386493677717 0 -1 0 I I #
edge $-1 $509 -43.739127780999176 $503 -38.440767995545755 $507 $551 forward 7 unknown #
point $-1 38.440767995545755 17.820129770290762 9.957386493677717 #
straight-curve $-1 43.739127780999176 17.820129770290769 3.6933069966394907 0 0 1 I I #
point $-1 43.739127780999176 17.820129770290769 9.957386493677717 #
point $-1 39.501623733181809 14.141785008604462 5.7911842515028829 #
point $-1 -43.739127780999176 -26.243610153898072 9.957386493677717 #
straight-curve $-1 0 -26.243610153898072 9.957386493677717 1 0 0 I I #
straight-curve $-1 0 26.243610153898072 9.957386493677717 -1 0 0 I I #
point $-1 -43.739127780999176 26.243610153898072 9.957386493677717 #
straight-curve $-1 0 17.820129770290769 9.957386493677717 -1 0 0 I I #
End-of-ACIS-data 