500 0 9 0           
7 Unknown 11 ACIS 5.0 NT 24 Fri Mar 26 15:51:33 1999 
-1 9.9999999999999995e-007 1e-010 
body $-1 $9 $-1 $10 #
body $-1 $11 $-1 $12 #
body $-1 $13 $-1 $14 #
body $-1 $15 $-1 $16 #
body $-1 $17 $-1 $18 #
body $-1 $19 $-1 $20 #
body $-1 $21 $-1 $22 #
body $-1 $23 $-1 $24 #
body $-1 $25 $-1 $26 #
lump $-1 $-1 $27 $0 #
transform $-1 1 0 0 0 1 0 0 0 1 64.640644550920143 41.93070357354236 12.366403185949238 1 rotate no_reflect no_shear #
lump $-1 $-1 $28 $1 #
transform $-1 1 0 0 0 1 0 0 0 1 64.640644550920143 41.93070357354236 12.366403185949238 1 rotate no_reflect no_shear #
lump $-1 $-1 $29 $2 #
transform $-1 1 0 0 0 1 0 0 0 1 64.640644550920143 41.93070357354236 12.366403185949238 1 rotate no_reflect no_shear #
lump $-1 $-1 $30 $3 #
transform $-1 1 0 0 0 1 0 0 0 1 64.640644550920143 41.93070357354236 12.366403185949238 1 rotate no_reflect no_shear #
lump $-1 $-1 $31 $4 #
transform $-1 1 0 0 0 1 0 0 0 1 64.640644550920143 41.93070357354236 12.366403185949238 1 rotate no_reflect no_shear #
lump $-1 $-1 $32 $5 #
transform $-1 1 0 0 0 1 0 0 0 1 64.640644550920143 41.93070357354236 12.366403185949238 1 rotate no_reflect no_shear #
lump $-1 $-1 $33 $6 #
transform $-1 1 0 0 0 1 0 0 0 1 64.640644550920143 41.93070357354236 12.366403185949238 1 rotate no_reflect no_shear #
lump $-1 $-1 $34 $7 #
transform $-1 1 0 0 0 1 0 0 0 1 64.640644550920143 41.93070357354236 12.366403185949238 1 rotate no_reflect no_shear #
lump $-1 $-1 $35 $8 #
transform $-1 1 0 0 0 1 0 0 0 1 64.640644550920143 41.93070357354236 12.366403185949238 1 rotate no_reflect no_shear #
shell $-1 $-1 $-1 $36 $-1 $9 #
shell $-1 $-1 $-1 $37 $-1 $11 #
shell $-1 $-1 $-1 $38 $-1 $13 #
shell $-1 $-1 $-1 $39 $-1 $15 #
shell $-1 $-1 $-1 $40 $-1 $17 #
shell $-1 $-1 $-1 $41 $-1 $19 #
shell $-1 $-1 $-1 $42 $-1 $21 #
shell $-1 $-1 $-1 $43 $-1 $23 #
shell $-1 $-1 $-1 $44 $-1 $25 #
face $-1 $45 $46 $27 $-1 $47 forward single #
face $-1 $48 $49 $28 $-1 $50 forward single #
face $-1 $51 $52 $29 $-1 $53 reversed single #
face $-1 $54 $55 $30 $-1 $56 forward single #
face $-1 $57 $58 $31 $-1 $59 forward single #
face $-1 $60 $61 $32 $-1 $62 reversed single #
face $-1 $63 $64 $33 $-1 $65 forward single #
face $-1 $66 $67 $34 $-1 $68 forward single #
face $-1 $69 $70 $35 $-1 $71 forward single #
face $-1 $72 $73 $27 $-1 $74 reversed single #
loop $-1 $-1 $75 $36 #
plane-surface $-1 0 0 12.366403185949238 0 0 1 1 0 0 forward_v I I I I #
face $-1 $76 $77 $28 $-1 $78 reversed single #
loop $-1 $-1 $79 $37 #
plane-surface $-1 -58.602158595680201 0 -8.0059506230102961 0 0 1 1 0 0 forward_v I I I I #
face $-1 $80 $81 $29 $-1 $82 reversed single #
loop $-1 $-1 $83 $38 #
plane-surface $-1 -52.563672640440259 94.710279129601872 146.83765856980546 1 0 0 0 -0.79863551827123203 -0.60181501223851219 forward_v I I I I #
face $-1 $84 $85 $30 $-1 $86 forward single #
loop $-1 $87 $88 $39 #
cone-surface $-1 -45.189635602355246 36.485359975025261 6.0359544363254605 0 -0.79863551827123203 -0.60181501223851219 2.5 0 0 1 I I 0 1 2.5 forward I I I I #
face $-1 $89 $90 $31 $-1 $91 forward single #
loop $-1 $92 $93 $40 #
cone-surface $-1 -34.128580045227721 36.485359975025261 6.0359544363254605 0 -0.79863551827123203 -0.60181501223851219 2.5 0 0 1 I I 0 1 2.5 forward I I I I #
face $-1 $94 $95 $32 $-1 $96 reversed single #
loop $-1 $-1 $97 $41 #
plane-surface $-1 29.110593270114094 -134.92788132872136 93.983720896683351 -1 0 0 0 -0.71933980857756763 0.69465836192734942 forward_v I I I I #
face $-1 $98 $99 $33 $-1 $100 forward single #
loop $-1 $101 $102 $42 #
cone-surface $-1 17.234995582785629 -37.312086204672589 7.6301014666256535 0 0.71933980857756763 -0.69465836192734942 1 0 0 1 I I 0 1 1 forward I I I I #
face $-1 $103 $104 $34 $-1 $105 forward single #
loop $-1 $106 $107 $43 #
cone-surface $-1 21.688344715533802 -37.312086204672589 7.6301014666256535 0 0.71933980857756763 -0.69465836192734942 1 0 0 1 I I 0 1 1 forward I I I I #
face $-1 $108 $109 $35 $-1 $110 forward single #
loop $-1 $111 $112 $44 #
cone-surface $-1 26.141693848281975 -37.312086204672589 7.6301014666256535 0 0.71933980857756763 -0.69465836192734942 1 0 0 1 I I 0 1 1 forward I I I I #
face $-1 $113 $114 $27 $-1 $115 reversed single #
loop $-1 $-1 $116 $45 #
plane-surface $-1 0 0 -12.366403185949238 0 0 1 1 0 0 forward_v I I I I #
coedge $-1 $117 $118 $119 $120 forward $46 $-1 #
face $-1 $121 $122 $28 $-1 $123 reversed single #
loop $-1 $-1 $124 $48 #
plane-surface $-1 -52.563672640440259 0 -10.186176904479767 -1 0 0 0 0 1 forward_v I I I I #
coedge $-1 $125 $126 $127 $128 forward $49 $-1 #
face $-1 $129 $130 $29 $-1 $131 reversed single #
loop $-1 $-1 $132 $51 #
plane-surface $-1 -39.659107823791487 -8.5383501950193192 69.034237986770805 0 0.79863551827123203 0.60181501223851219 1 0 0 forward_v I I I I #
coedge $-1 $133 $134 $135 $136 reversed $52 $-1 #
face $-1 $-1 $137 $30 $-1 $138 forward single #
loop $-1 $139 $140 $54 #
cone-surface $-1 -45.189635602355246 33.925111257644858 4.10666870092615 0 -0.79863551827123203 -0.60181501223851219 1.25 0 0 1 I I -0.70710678118654746 0.70710678118654746 1.25 forward I I I I #
loop $-1 $-1 $141 $39 #
coedge $-1 $88 $88 $142 $143 reversed $55 $-1 #
face $-1 $-1 $144 $31 $-1 $145 forward single #
loop $-1 $146 $147 $57 #
cone-surface $-1 -34.128580045227721 33.925111257644858 4.10666870092615 0 -0.79863551827123203 -0.60181501223851219 1.25 0 0 1 I I -0.70710678118654746 0.70710678118654746 1.25 forward I I I I #
loop $-1 $-1 $148 $40 #
coedge $-1 $93 $93 $149 $150 reversed $58 $-1 #
face $-1 $151 $152 $32 $-1 $153 reversed single #
loop $-1 $-1 $154 $60 #
plane-surface $-1 21.688344715533802 -41.930703573542388 4.1773923813428837 0 -0.71933980857756763 0.69465836192734942 1 0 0 forward_v I I I I #
coedge $-1 $155 $156 $157 $158 reversed $61 $-1 #
face $-1 $-1 $159 $33 $-1 $160 forward single #
loop $-1 $161 $162 $63 #
cone-surface $-1 17.234995582785629 -36.287816743055608 6.6409759686415732 0 0.71933980857756763 -0.69465836192734942 0.5 0 0 1 I I -0.70710678118654746 0.70710678118654746 0.5 forward I I I I #
loop $-1 $-1 $163 $42 #
coedge $-1 $102 $102 $164 $165 reversed $64 $-1 #
face $-1 $-1 $166 $34 $-1 $167 forward single #
loop $-1 $168 $169 $66 #
cone-surface $-1 21.688344715533802 -36.287816743055608 6.6409759686415732 0 0.71933980857756763 -0.69465836192734942 0.5 0 0 1 I I -0.70710678118654746 0.70710678118654746 0.5 forward I I I I #
loop $-1 $-1 $170 $43 #
coedge $-1 $107 $107 $171 $172 reversed $67 $-1 #
face $-1 $-1 $173 $35 $-1 $174 forward single #
loop $-1 $175 $176 $69 #
cone-surface $-1 26.141693848281975 -36.287816743055608 6.6409759686415732 0 0.71933980857756763 -0.69465836192734942 0.5 0 0 1 I I -0.70710678118654746 0.70710678118654746 0.5 forward I I I I #
loop $-1 $-1 $177 $44 #
coedge $-1 $112 $112 $178 $179 reversed $70 $-1 #
face $-1 $180 $181 $27 $-1 $182 reversed single #
loop $-1 $-1 $183 $72 #
plane-surface $-1 0 -41.93070357354236 0 0 1 0 0 0 1 forward_v I I I I #
coedge $-1 $184 $185 $186 $187 forward $73 $-1 #
coedge $-1 $188 $75 $189 $190 forward $46 $-1 #
coedge $-1 $75 $188 $191 $192 forward $46 $-1 #
coedge $-1 $193 $194 $75 $120 reversed $195 $-1 #
edge $-1 $196 -41.93070357354236 $197 41.93070357354236 $119 $198 forward 7 unknown #
face $-1 $199 $200 $28 $-1 $201 reversed single #
loop $-1 $-1 $202 $76 #
plane-surface $-1 0 0 -12.366403185949238 0 0 1 1 0 0 forward_v I I I I #
coedge $-1 $203 $127 $204 $205 reversed $77 $-1 #
coedge $-1 $206 $79 $207 $208 reversed $49 $-1 #
coedge $-1 $79 $206 $209 $210 reversed $49 $-1 #
coedge $-1 $124 $211 $79 $128 reversed $77 $-1 #
edge $-1 $212 -41.93070357354236 $213 41.93070357354236 $127 $214 forward 7 unknown #
face $-1 $215 $216 $29 $-1 $217 reversed single #
loop $-1 $-1 $218 $80 #
plane-surface $-1 -26.754543007142711 94.710279129601872 146.83765856980546 -1 0 0 0 0.79863551827123203 0.60181501223851219 forward_v I I I I #
coedge $-1 $219 $220 $221 $222 reversed $81 $-1 #
coedge $-1 $134 $83 $223 $224 reversed $52 $-1 #
coedge $-1 $83 $133 $219 $225 reversed $52 $-1 #
coedge $-1 $221 $226 $83 $136 forward $227 $-1 #
edge $-1 $228 5.4244359912585765 $229 13.191214549210109 $135 $230 forward 7 unknown #
loop $-1 $-1 $142 $84 #
plane-surface $-1 -39.659107823791487 -8.5383501950193192 69.034237986770805 0 0.79863551827123203 0.60181501223851219 1 0 0 forward_v I I I I #
loop $-1 $-1 $231 $54 #
coedge $-1 $140 $140 $141 $232 reversed $85 $-1 #
coedge $-1 $141 $141 $140 $232 forward $87 $-1 #
coedge $-1 $142 $142 $88 $143 forward $137 $-1 #
edge $-1 $233 -5.2712895209301418e-016 $233 6.2831853071795996 $142 $234 forward 7 unknown #
loop $-1 $-1 $149 $89 #
plane-surface $-1 -39.659107823791487 -8.5383501950193192 69.034237986770805 0 0.79863551827123203 0.60181501223851219 1 0 0 forward_v I I I I #
loop $-1 $-1 $235 $57 #
coedge $-1 $147 $147 $148 $236 reversed $90 $-1 #
coedge $-1 $148 $148 $147 $236 forward $92 $-1 #
coedge $-1 $149 $149 $93 $150 forward $144 $-1 #
edge $-1 $237 -5.2712895209301418e-016 $237 6.2831853071795996 $149 $238 forward 7 unknown #
face $-1 $239 $240 $32 $-1 $241 forward single #
loop $-1 $-1 $242 $94 #
plane-surface $-1 14.266096160953509 -134.92788132872136 93.983720896683351 1 0 0 0 0.71933980857756763 -0.69465836192734942 forward_v I I I I #
coedge $-1 $243 $244 $245 $246 reversed $95 $-1 #
coedge $-1 $156 $97 $247 $248 reversed $61 $-1 #
coedge $-1 $97 $155 $243 $249 reversed $61 $-1 #
coedge $-1 $245 $250 $97 $158 forward $240 $-1 #
edge $-1 $251 25.533237090818318 $252 33.441272713901434 $157 $253 forward 7 unknown #
loop $-1 $-1 $164 $98 #
plane-surface $-1 21.688344715533802 -41.930703573542388 4.1773923813428837 0 -0.71933980857756763 0.69465836192734942 1 0 0 forward_v I I I I #
loop $-1 $-1 $254 $63 #
coedge $-1 $162 $162 $163 $255 reversed $99 $-1 #
coedge $-1 $163 $163 $162 $255 forward $101 $-1 #
coedge $-1 $164 $164 $102 $165 forward $159 $-1 #
edge $-1 $256 -1.6285486413268891e-015 $256 6.2831853071795987 $164 $257 forward 7 unknown #
loop $-1 $-1 $171 $103 #
plane-surface $-1 21.688344715533802 -41.930703573542388 4.1773923813428837 0 -0.71933980857756763 0.69465836192734942 1 0 0 forward_v I I I I #
loop $-1 $-1 $258 $66 #
coedge $-1 $169 $169 $170 $259 reversed $104 $-1 #
coedge $-1 $170 $170 $169 $259 forward $106 $-1 #
coedge $-1 $171 $171 $107 $172 forward $166 $-1 #
edge $-1 $260 -1.6285486413268891e-015 $260 6.2831853071795987 $171 $261 forward 7 unknown #
loop $-1 $-1 $178 $108 #
plane-surface $-1 21.688344715533802 -41.930703573542388 4.1773923813428837 0 -0.71933980857756763 0.69465836192734942 1 0 0 forward_v I I I I #
loop $-1 $-1 $262 $69 #
coedge $-1 $176 $176 $177 $263 reversed $109 $-1 #
coedge $-1 $177 $177 $176 $263 forward $111 $-1 #
coedge $-1 $178 $178 $112 $179 forward $173 $-1 #
edge $-1 $264 -1.6285486413268891e-015 $264 6.2831853071795987 $178 $265 forward 7 unknown #
face $-1 $266 $267 $27 $-1 $268 reversed single #
loop $-1 $-1 $269 $113 #
plane-surface $-1 -64.640644550920143 0 0 1 0 0 0 0 -1 forward_v I I I I #
coedge $-1 $270 $191 $271 $272 forward $114 $-1 #
coedge $-1 $273 $116 $270 $274 forward $73 $-1 #
coedge $-1 $116 $273 $275 $276 forward $73 $-1 #
coedge $-1 $194 $193 $116 $187 reversed $195 $-1 #
edge $-1 $277 -41.93070357354236 $278 41.93070357354236 $186 $279 forward 7 unknown #
coedge $-1 $118 $117 $280 $281 forward $46 $-1 #
coedge $-1 $282 $283 $117 $190 reversed $267 $-1 #
edge $-1 $197 -64.640644550920143 $284 64.640644550920143 $189 $285 forward 7 unknown #
coedge $-1 $183 $286 $118 $192 reversed $114 $-1 #
edge $-1 $287 -64.640644550920143 $196 64.640644550920143 $191 $288 forward 7 unknown #
coedge $-1 $186 $119 $286 $289 forward $195 $-1 #
coedge $-1 $119 $186 $282 $290 reversed $195 $-1 #
loop $-1 $-1 $193 $266 #
vertex $-1 $120 $291 #
vertex $-1 $120 $292 #
straight-curve $-1 64.640644550920143 0 12.366403185949238 0 1 0 I I #
face $-1 $293 $294 $28 $-1 $295 reversed single #
loop $-1 $-1 $204 $121 #
plane-surface $-1 0 -41.93070357354236 0 0 1 0 0 0 1 forward_v I I I I #
coedge $-1 $296 $297 $203 $298 forward $122 $-1 #
coedge $-1 $211 $124 $202 $298 reversed $77 $-1 #
coedge $-1 $209 $299 $124 $205 forward $200 $-1 #
edge $-1 $300 -7.2733147337093547 $212 -2.9128621707704125 $204 $301 forward 7 unknown #
coedge $-1 $126 $125 $302 $303 reversed $49 $-1 #
coedge $-1 $304 $305 $125 $208 forward $306 $-1 #
edge $-1 $307 -35.339565253080039 $213 -23.262593342600159 $207 $308 forward 7 unknown #
coedge $-1 $309 $204 $126 $210 forward $200 $-1 #
edge $-1 $212 23.262593342600159 $310 35.339565253080039 $209 $311 forward 7 unknown #
coedge $-1 $127 $203 $304 $312 reversed $77 $-1 #
vertex $-1 $210 $313 #
vertex $-1 $208 $314 #
straight-curve $-1 -52.563672640440259 0 -8.0059506230102961 0 1 0 I I #
face $-1 $-1 $227 $29 $-1 $315 forward single #
loop $-1 $-1 $316 $129 #
plane-surface $-1 0 41.93070357354236 0 0 -1 0 0 0 -1 forward_v I I I I #
coedge $-1 $317 $318 $319 $320 reversed $130 $-1 #
coedge $-1 $321 $132 $134 $225 forward $81 $-1 #
coedge $-1 $132 $321 $317 $322 forward $81 $-1 #
coedge $-1 $319 $135 $132 $222 forward $227 $-1 #
edge $-1 $229 -32.734118728544516 $323 -6.9249890952469677 $221 $324 forward 7 unknown #
coedge $-1 $325 $326 $133 $224 forward $216 $-1 #
edge $-1 $327 -71.359289657998772 $228 -61.052426098953489 $223 $328 forward 7 unknown #
edge $-1 $229 70.955815893948355 $327 83.861407147084776 $134 $329 forward 7 unknown #
coedge $-1 $135 $319 $325 $330 forward $227 $-1 #
loop $-1 $-1 $319 $215 #
vertex $-1 $224 $331 #
vertex $-1 $136 $332 #
straight-curve $-1 -52.563672640440259 47.355139564800936 12.366403185949238 0 -1 0 I I #
coedge $-1 $231 $231 $-1 $333 reversed $139 $-1 #
edge $-1 $334 0 $334 6.2831853071796004 $140 $335 forward 7 unknown #
vertex $-1 $143 $336 #
ellipse-curve $-1 -45.189635602355246 38.04731429456659 7.2129714064266022 0 0.79863551827123203 0.60181501223851219 2.5 0 0 1 I I #
coedge $-1 $235 $235 $-1 $337 reversed $146 $-1 #
edge $-1 $338 0 $338 6.2831853071796004 $147 $339 forward 7 unknown #
vertex $-1 $150 $340 #
ellipse-curve $-1 -34.128580045227721 38.04731429456659 7.2129714064266022 0 0.79863551827123203 0.60181501223851219 2.5 0 0 1 I I #
face $-1 $-1 $341 $32 $-1 $342 reversed single #
loop $-1 $-1 $157 $151 #
plane-surface $-1 0 0 12.366403185949238 0 0 1 1 0 0 forward_v I I I I #
coedge $-1 $343 $344 $345 $346 reversed $152 $-1 #
coedge $-1 $347 $154 $156 $249 forward $95 $-1 #
coedge $-1 $154 $347 $343 $348 forward $95 $-1 #
coedge $-1 $345 $157 $154 $246 forward $240 $-1 #
edge $-1 $252 -18.266420912347193 $349 -3.4219238031866084 $245 $350 forward 7 unknown #
coedge $-1 $351 $352 $155 $248 forward $341 $-1 #
edge $-1 $353 -42.814468066998764 $251 -34.625457262392437 $247 $354 forward 7 unknown #
edge $-1 $252 -11.384064536619231 $353 -4.082714723162343e-014 $156 $355 forward 7 unknown #
coedge $-1 $157 $345 $351 $356 forward $240 $-1 #
vertex $-1 $158 $357 #
vertex $-1 $158 $358 #
straight-curve $-1 29.110593270114094 -67.463940664360678 12.366403185949238 0 1 0 I I #
coedge $-1 $254 $254 $-1 $359 reversed $161 $-1 #
edge $-1 $360 0 $360 6.2831853071796004 $162 $361 forward 7 unknown #
vertex $-1 $165 $362 #
ellipse-curve $-1 17.234995582785629 -37.976685762000798 8.2718977836460752 0 -0.71933980857756763 0.69465836192734942 1 0 0 1 I I #
coedge $-1 $258 $258 $-1 $363 reversed $168 $-1 #
edge $-1 $364 0 $364 6.2831853071796004 $169 $365 forward 7 unknown #
vertex $-1 $172 $366 #
ellipse-curve $-1 21.688344715533802 -37.976685762000798 8.2718977836460752 0 -0.71933980857756763 0.69465836192734942 1 0 0 1 I I #
coedge $-1 $262 $262 $-1 $367 reversed $175 $-1 #
edge $-1 $368 0 $368 6.2831853071796004 $176 $369 forward 7 unknown #
vertex $-1 $179 $370 #
ellipse-curve $-1 26.141693848281975 -37.976685762000798 8.2718977836460752 0 -0.71933980857756763 0.69465836192734942 1 0 0 1 I I #
face $-1 $-1 $195 $27 $-1 $371 reversed single #
loop $-1 $-1 $282 $180 #
plane-surface $-1 0 41.93070357354236 0 0 -1 0 0 0 -1 forward_v I I I I #
coedge $-1 $372 $280 $283 $373 forward $181 $-1 #
coedge $-1 $286 $183 $184 $274 reversed $114 $-1 #
coedge $-1 $280 $372 $183 $272 reversed $181 $-1 #
edge $-1 $287 -12.366403185949238 $374 12.366403185949238 $271 $375 forward 7 unknown #
coedge $-1 $185 $184 $372 $376 forward $73 $-1 #
edge $-1 $278 -64.640644550920143 $374 64.640644550920143 $270 $377 forward 7 unknown #
coedge $-1 $283 $282 $185 $276 reversed $267 $-1 #
edge $-1 $378 -64.640644550920143 $277 64.640644550920143 $275 $379 forward 7 unknown #
vertex $-1 $187 $380 #
vertex $-1 $289 $381 #
straight-curve $-1 64.640644550920143 0 -12.366403185949238 0 -1 0 I I #
coedge $-1 $269 $271 $188 $281 reversed $181 $-1 #
edge $-1 $284 -41.93070357354236 $287 41.93070357354236 $280 $382 forward 7 unknown #
coedge $-1 $275 $189 $194 $290 forward $267 $-1 #
coedge $-1 $189 $275 $269 $373 reversed $267 $-1 #
vertex $-1 $190 $383 #
straight-curve $-1 0 41.93070357354236 12.366403185949238 -1 0 0 I I #
coedge $-1 $191 $270 $193 $289 reversed $114 $-1 #
vertex $-1 $281 $384 #
straight-curve $-1 0 -41.93070357354236 12.366403185949238 1 0 0 I I #
edge $-1 $196 -12.366403185949238 $278 12.366403185949238 $193 $385 forward 7 unknown #
edge $-1 $197 -12.366403185949238 $277 12.366403185949238 $194 $386 forward 7 unknown #
point $-1 64.640644550920143 -41.93070357354236 12.366403185949238 #
point $-1 64.640644550920143 41.93070357354236 12.366403185949238 #
face $-1 $-1 $306 $28 $-1 $387 reversed single #
loop $-1 $-1 $302 $199 #
plane-surface $-1 -64.640644550920143 0 0 1 0 0 0 0 -1 forward_v I I I I #
coedge $-1 $388 $202 $299 $389 forward $122 $-1 #
coedge $-1 $202 $388 $390 $391 forward $122 $-1 #
edge $-1 $392 -41.93070357354236 $300 41.93070357354236 $202 $393 forward 7 unknown #
coedge $-1 $204 $309 $296 $389 reversed $200 $-1 #
vertex $-1 $389 $394 #
straight-curve $-1 -52.563672640440259 -41.93070357354236 -5.0930884522398836 0 0 1 I I #
coedge $-1 $395 $396 $206 $303 forward $294 $-1 #
edge $-1 $310 -41.93070357354236 $307 41.93070357354236 $302 $397 forward 7 unknown #
coedge $-1 $390 $207 $211 $312 forward $306 $-1 #
coedge $-1 $207 $390 $395 $398 reversed $306 $-1 #
loop $-1 $-1 $304 $293 #
vertex $-1 $398 $399 #
straight-curve $-1 -29.301079297840101 41.93070357354236 -8.0059506230102961 1 0 0 I I #
coedge $-1 $299 $209 $396 $400 forward $200 $-1 #
vertex $-1 $400 $401 #
straight-curve $-1 -29.301079297840101 -41.93070357354236 -8.0059506230102961 -1 0 0 I I #
edge $-1 $213 2.9128621707704125 $392 7.2733147337093547 $304 $402 forward 7 unknown #
point $-1 -52.563672640440259 -41.93070357354236 -8.0059506230102961 #
point $-1 -52.563672640440259 41.93070357354236 -8.0059506230102961 #
plane-surface $-1 0 0 12.366403185949238 0 0 1 1 0 0 forward_v I I I I #
coedge $-1 $326 $325 $318 $403 forward $216 $-1 #
coedge $-1 $318 $218 $220 $322 reversed $130 $-1 #
coedge $-1 $218 $317 $316 $403 reversed $130 $-1 #
coedge $-1 $226 $221 $218 $320 forward $227 $-1 #
edge $-1 $323 -13.191214549210109 $404 -5.4244359912585765 $319 $405 forward 7 unknown #
coedge $-1 $220 $219 $326 $406 reversed $81 $-1 #
edge $-1 $407 -83.861407147084776 $323 -70.955815893948355 $317 $408 forward 7 unknown #
vertex $-1 $222 $409 #
straight-curve $-1 -19.829553911895744 34.16392501559082 12.366403185949238 1 0 0 I I #
coedge $-1 $316 $223 $226 $330 reversed $216 $-1 #
coedge $-1 $223 $316 $321 $406 forward $216 $-1 #
vertex $-1 $224 $410 #
straight-curve $-1 -52.563672640440259 41.93070357354236 73.418829284902728 0 0 1 I I #
straight-curve $-1 -52.563672640440259 -8.5383501950193192 69.034237986770805 0 0.60181501223851219 -0.79863551827123203 I I #
edge $-1 $404 26.754543007142711 $228 52.563672640440259 $325 $411 forward 7 unknown #
point $-1 -52.563672640440259 41.93070357354236 12.366403185949238 #
point $-1 -52.563672640440259 34.163925015590827 12.366403185949238 #
edge $-1 $412 1 $412 0 $231 $-1 forward 7 unknown #
vertex $-1 $232 $413 #
ellipse-curve $-1 -45.189635602355246 34.923405655483897 4.8589374662242903 0 0.79863551827123203 0.60181501223851219 2.5 0 0 1 I I #
point $-1 -42.689635602355246 38.047314294566625 7.2129714064266306 #
edge $-1 $414 1 $414 0 $235 $-1 forward 7 unknown #
vertex $-1 $236 $415 #
ellipse-curve $-1 -34.128580045227721 34.923405655483897 4.8589374662242903 0 0.79863551827123203 0.60181501223851219 2.5 0 0 1 I I #
point $-1 -31.628580045227721 38.047314294566625 7.2129714064266306 #
loop $-1 $-1 $247 $239 #
plane-surface $-1 0 -41.93070357354236 0 0 1 0 0 0 1 forward_v I I I I #
coedge $-1 $344 $242 $244 $348 reversed $152 $-1 #
coedge $-1 $242 $343 $416 $417 reversed $152 $-1 #
coedge $-1 $250 $245 $242 $346 forward $240 $-1 #
edge $-1 $349 -33.441272713901434 $418 -25.533237090818318 $345 $419 forward 7 unknown #
coedge $-1 $244 $243 $352 $420 reversed $95 $-1 #
edge $-1 $421 4.082714723162343e-014 $349 11.384064536619231 $343 $422 forward 7 unknown #
vertex $-1 $246 $423 #
straight-curve $-1 10.844172357766901 -34.022667950459244 12.366403185949238 -1 0 0 I I #
coedge $-1 $416 $247 $250 $356 reversed $341 $-1 #
coedge $-1 $247 $416 $347 $420 forward $341 $-1 #
vertex $-1 $248 $424 #
straight-curve $-1 29.110593270114094 -41.93070357354236 46.991860448341676 0 0 1 I I #
straight-curve $-1 29.110593270114094 -41.930703573542388 4.1773923813428837 0 -0.69465836192734942 -0.71933980857756763 I I #
edge $-1 $418 14.266096160953509 $251 29.110593270114094 $351 $425 forward 7 unknown #
point $-1 29.110593270114094 -41.93070357354236 12.366403185949238 #
point $-1 29.110593270114094 -34.022667950459244 12.366403185949238 #
edge $-1 $426 1 $426 0 $254 $-1 forward 7 unknown #
vertex $-1 $255 $427 #
ellipse-curve $-1 17.234995582785629 -36.647486647344394 6.9883051496052477 0 -0.71933980857756763 0.69465836192734942 1 0 0 1 I I #
point $-1 18.234995582785629 -37.976685762000784 8.2718977836460592 #
edge $-1 $428 1 $428 0 $258 $-1 forward 7 unknown #
vertex $-1 $259 $429 #
ellipse-curve $-1 21.688344715533802 -36.647486647344394 6.9883051496052477 0 -0.71933980857756763 0.69465836192734942 1 0 0 1 I I #
point $-1 22.688344715533802 -37.976685762000784 8.2718977836460592 #
edge $-1 $430 1 $430 0 $262 $-1 forward 7 unknown #
vertex $-1 $263 $431 #
ellipse-curve $-1 26.141693848281975 -36.647486647344394 6.9883051496052477 0 -0.71933980857756763 0.69465836192734942 1 0 0 1 I I #
point $-1 27.141693848281975 -37.976685762000784 8.2718977836460592 #
plane-surface $-1 64.640644550920143 0 0 -1 0 0 0 0 1 forward_v I I I I #
coedge $-1 $271 $269 $273 $376 reversed $181 $-1 #
edge $-1 $284 -12.366403185949238 $378 12.366403185949238 $283 $432 forward 7 unknown #
vertex $-1 $376 $433 #
straight-curve $-1 -64.640644550920143 -41.93070357354236 0 0 0 -1 I I #
edge $-1 $374 -41.93070357354236 $378 41.93070357354236 $372 $434 forward 7 unknown #
straight-curve $-1 0 -41.93070357354236 -12.366403185949238 -1 0 0 I I #
vertex $-1 $276 $435 #
straight-curve $-1 0 41.93070357354236 -12.366403185949238 1 0 0 I I #
point $-1 64.640644550920143 41.93070357354236 -12.366403185949238 #
point $-1 64.640644550920143 -41.93070357354236 -12.366403185949238 #
straight-curve $-1 -64.640644550920143 0 12.366403185949238 0 -1 0 I I #
point $-1 -64.640644550920143 41.93070357354236 12.366403185949238 #
point $-1 -64.640644550920143 -41.93070357354236 12.366403185949238 #
straight-curve $-1 64.640644550920143 -41.93070357354236 0 0 0 -1 I I #
straight-curve $-1 64.640644550920143 41.93070357354236 0 0 0 -1 I I #
plane-surface $-1 0 41.93070357354236 0 0 -1 0 0 0 -1 forward_v I I I I #
coedge $-1 $297 $296 $436 $437 forward $122 $-1 #
edge $-1 $300 52.563672640440259 $438 64.640644550920143 $299 $439 forward 7 unknown #
coedge $-1 $305 $304 $297 $391 reversed $306 $-1 #
edge $-1 $440 -64.640644550920143 $392 -52.563672640440259 $390 $441 forward 7 unknown #
vertex $-1 $312 $442 #
straight-curve $-1 -52.563672640440259 0 -12.366403185949238 0 -1 0 I I #
point $-1 -52.563672640440259 -41.93070357354236 -12.366403185949238 #
coedge $-1 $436 $302 $305 $398 forward $294 $-1 #
coedge $-1 $302 $436 $309 $400 reversed $294 $-1 #
straight-curve $-1 -64.640644550920143 0 -8.0059506230102961 0 1 0 I I #
edge $-1 $307 8.0059506230102961 $440 12.366403185949238 $305 $443 forward 7 unknown #
point $-1 -64.640644550920143 41.93070357354236 -8.0059506230102961 #
edge $-1 $310 8.0059506230102961 $438 12.366403185949238 $396 $444 forward 7 unknown #
point $-1 -64.640644550920143 -41.93070357354236 -8.0059506230102961 #
straight-curve $-1 -52.563672640440259 41.93070357354236 -5.0930884522398836 0 0 -1 I I #
edge $-1 $404 61.052426098953489 $407 71.359289657998772 $316 $445 forward 7 unknown #
vertex $-1 $330 $446 #
straight-curve $-1 -26.754543007142711 47.355139564800936 12.366403185949238 0 1 0 I I #
edge $-1 $407 6.9249890952469677 $327 32.734118728544516 $326 $447 forward 7 unknown #
vertex $-1 $406 $448 #
straight-curve $-1 -26.754543007142711 -8.5383501950193192 69.034237986770805 0 -0.60181501223851219 0.79863551827123203 I I #
point $-1 -26.754543007142711 34.163925015590827 12.366403185949238 #
point $-1 -52.563672640440259 41.93070357354236 2.0595396269039554 #
straight-curve $-1 0 41.93070357354236 12.366403185949238 -1 0 0 I I #
vertex $-1 $333 $449 #
point $-1 -42.689635602355246 34.923405655483897 4.8589374662242903 #
vertex $-1 $337 $450 #
point $-1 -31.628580045227721 34.923405655483897 4.8589374662242903 #
coedge $-1 $352 $351 $344 $417 forward $341 $-1 #
edge $-1 $418 34.625457262392437 $421 42.814468066998764 $416 $451 forward 7 unknown #
vertex $-1 $356 $452 #
straight-curve $-1 14.266096160953509 -67.463940664360678 12.366403185949238 0 -1 0 I I #
edge $-1 $421 3.4219238031866084 $353 18.266420912347193 $352 $453 forward 7 unknown #
vertex $-1 $420 $454 #
straight-curve $-1 14.266096160953509 -41.930703573542388 4.1773923813428837 0 0.69465836192734942 0.71933980857756763 I I #
point $-1 14.266096160953509 -34.022667950459244 12.366403185949238 #
point $-1 29.110593270114094 -41.93070357354236 4.177392381342913 #
straight-curve $-1 0 -41.93070357354236 12.366403185949238 1 0 0 I I #
vertex $-1 $359 $455 #
point $-1 18.234995582785629 -36.647486647344394 6.9883051496052477 #
vertex $-1 $363 $456 #
point $-1 22.688344715533802 -36.647486647344394 6.9883051496052477 #
vertex $-1 $367 $457 #
point $-1 27.141693848281975 -36.647486647344394 6.9883051496052477 #
straight-curve $-1 -64.640644550920143 41.93070357354236 0 0 0 -1 I I #
point $-1 -64.640644550920143 -41.93070357354236 -12.366403185949238 #
straight-curve $-1 -64.640644550920143 0 -12.366403185949238 0 1 0 I I #
point $-1 -64.640644550920143 41.93070357354236 -12.366403185949238 #
coedge $-1 $396 $395 $388 $437 reversed $294 $-1 #
edge $-1 $438 -41.93070357354236 $440 41.93070357354236 $436 $458 forward 7 unknown #
vertex $-1 $437 $459 #
straight-curve $-1 0 -41.93070357354236 -12.366403185949238 -1 0 0 I I #
vertex $-1 $391 $460 #
straight-curve $-1 0 41.93070357354236 -12.366403185949238 1 0 0 I I #
point $-1 -52.563672640440259 41.93070357354236 -12.366403185949238 #
straight-curve $-1 -64.640644550920143 41.93070357354236 0 0 0 -1 I I #
straight-curve $-1 -64.640644550920143 -41.93070357354236 0 0 0 -1 I I #
straight-curve $-1 -26.754543007142711 41.93070357354236 73.418829284902728 0 0 -1 I I #
point $-1 -26.754543007142711 41.93070357354236 12.366403185949238 #
straight-curve $-1 -19.829553911895744 41.93070357354236 2.0595396269039554 -1 0 0 I I #
point $-1 -26.754543007142711 41.93070357354236 2.0595396269039554 #
point $-1 -45.189635602355246 32.926816859805818 3.3543999356280096 #
point $-1 -34.128580045227721 32.926816859805818 3.3543999356280096 #
straight-curve $-1 14.266096160953509 -41.93070357354236 46.991860448341676 0 0 -1 I I #
point $-1 14.266096160953509 -41.93070357354236 12.366403185949238 #
straight-curve $-1 10.844172357766901 -41.93070357354236 4.1773923813429148 1 0 0 I I #
point $-1 14.266096160953509 -41.93070357354236 4.177392381342913 #
point $-1 17.234995582785629 -35.928146838766821 6.2936467876778988 #
point $-1 21.688344715533802 -35.928146838766821 6.2936467876778988 #
point $-1 26.141693848281975 -35.928146838766821 6.2936467876778988 #
straight-curve $-1 -64.640644550920143 0 -12.366403185949238 0 1 0 I I #
point $-1 -64.640644550920143 -41.93070357354236 -12.366403185949238 #
point $-1 -64.640644550920143 41.93070357354236 -12.366403185949238 #
End-of-ACIS-data 