500 0 8 0           
7 Unknown 11 ACIS 5.0 NT 24 Fri Mar 26 00:57:47 1999 
-1 9.9999999999999995e-007 1e-010 
body $-1 $8 $-1 $9 #
body $-1 $10 $-1 $11 #
body $-1 $12 $-1 $13 #
body $-1 $14 $-1 $15 #
body $-1 $16 $-1 $17 #
body $-1 $18 $-1 $19 #
body $-1 $20 $-1 $21 #
body $-1 $22 $-1 $23 #
lump $-1 $-1 $24 $0 #
transform $-1 1 0 0 0 1 0 0 0 1 73.880428479873046 48.435681525979938 19.790825088617666 1 rotate no_reflect no_shear #
lump $-1 $-1 $25 $1 #
transform $-1 1 0 0 0 1 0 0 0 1 73.880428479873046 48.435681525979938 19.790825088617666 1 rotate no_reflect no_shear #
lump $-1 $-1 $26 $2 #
transform $-1 1 0 0 0 1 0 0 0 1 73.880428479873046 48.435681525979938 19.790825088617666 1 rotate no_reflect no_shear #
lump $-1 $-1 $27 $3 #
transform $-1 1 0 0 0 1 0 0 0 1 73.880428479873046 48.435681525979938 19.790825088617666 1 rotate no_reflect no_shear #
lump $-1 $-1 $28 $4 #
transform $-1 1 0 0 0 1 0 0 0 1 73.880428479873046 48.435681525979938 19.790825088617666 1 rotate no_reflect no_shear #
lump $-1 $-1 $29 $5 #
transform $-1 1 0 0 0 1 0 0 0 1 73.880428479873046 48.435681525979938 19.790825088617666 1 rotate no_reflect no_shear #
lump $-1 $-1 $30 $6 #
transform $-1 1 0 0 0 1 0 0 0 1 73.880428479873046 48.435681525979938 19.790825088617666 1 rotate no_reflect no_shear #
lump $-1 $-1 $31 $7 #
transform $-1 1 0 0 0 1 0 0 0 1 73.880428479873046 48.435681525979938 19.790825088617666 1 rotate no_reflect no_shear #
shell $-1 $-1 $-1 $32 $-1 $8 #
shell $-1 $-1 $-1 $33 $-1 $10 #
shell $-1 $-1 $-1 $34 $-1 $12 #
shell $-1 $-1 $-1 $35 $-1 $14 #
shell $-1 $-1 $-1 $36 $-1 $16 #
shell $-1 $-1 $-1 $37 $-1 $18 #
shell $-1 $-1 $-1 $38 $-1 $20 #
shell $-1 $-1 $-1 $39 $-1 $22 #
face $-1 $40 $41 $24 $-1 $42 forward single #
face $-1 $43 $44 $25 $-1 $45 forward single #
face $-1 $46 $47 $26 $-1 $48 reversed single #
face $-1 $49 $50 $27 $-1 $51 forward single #
face $-1 $52 $53 $28 $-1 $54 forward single #
face $-1 $55 $56 $29 $-1 $57 reversed single #
face $-1 $58 $59 $30 $-1 $60 forward single #
face $-1 $61 $62 $31 $-1 $63 forward single #
face $-1 $64 $65 $24 $-1 $66 reversed single #
loop $-1 $-1 $67 $32 #
plane-surface $-1 0 0 19.790825088617666 0 0 1 1 0 0 forward_v I I I I #
face $-1 $68 $69 $25 $-1 $70 reversed single #
loop $-1 $-1 $71 $33 #
plane-surface $-1 0 -39.66579779275051 -10.27405167050453 0 0 1 1 0 0 forward_v I I I I #
face $-1 $72 $73 $26 $-1 $74 reversed single #
loop $-1 $-1 $75 $34 #
plane-surface $-1 -197.80311148913148 24.204053744761083 87.458200482420509 0 1 0 -0.83867057594974714 0 0.54463902268945019 forward_v I I I I #
face $-1 $76 $77 $27 $-1 $78 forward single #
loop $-1 $79 $80 $35 #
cone-surface $-1 -68.712269303012803 26.807408687983873 12.731067911147735 0.83867057594974714 0 -0.54463902268945019 0.54463902268945019 0 0.83867057594974714 1 I I 0 1 1 forward I I I I #
face $-1 $81 $82 $28 $-1 $83 forward single #
loop $-1 $84 $85 $36 #
cone-surface $-1 -68.712269303012803 30.71244110281804 12.731067911147735 0.83867057594974714 0 -0.54463902268945019 0.54463902268945019 0 0.83867057594974714 1 I I 0 1 1 forward I I I I #
face $-1 $86 $87 $29 $-1 $88 reversed single #
loop $-1 $-1 $89 $37 #
plane-surface $-1 77.527380187915526 -4.8302393980037497 217.02845320276924 0 -1 0 -0.71933980857756763 0 -0.69465836192734942 forward_v I I I I #
face $-1 $90 $91 $30 $-1 $92 forward single #
loop $-1 $93 $94 $38 #
cone-surface $-1 64.615801106918042 -20.352661103114258 10.449660487770577 -0.71933980857756763 0 -0.69465836192734942 2.0839750857820483 0 -2.1580194257327028 1 I I 0 1 3 forward I I I I #
face $-1 $95 $96 $31 $-1 $97 forward single #
loop $-1 $98 $99 $39 #
cone-surface $-1 64.615801106918042 -11.039208080047949 10.449660487770577 -0.71933980857756763 0 -0.69465836192734942 2.0839750857820483 0 -2.1580194257327028 1 I I 0 1 3 forward I I I I #
face $-1 $100 $101 $24 $-1 $102 reversed single #
loop $-1 $-1 $103 $40 #
plane-surface $-1 0 0 -19.790825088617666 0 0 1 1 0 0 forward_v I I I I #
coedge $-1 $104 $105 $106 $107 forward $41 $-1 #
face $-1 $108 $109 $25 $-1 $110 reversed single #
loop $-1 $-1 $111 $43 #
plane-surface $-1 0 -30.895914059521086 -15.032438379561098 0 -1 0 0 0 -1 forward_v I I I I #
coedge $-1 $112 $113 $114 $115 reversed $44 $-1 #
face $-1 $116 $117 $26 $-1 $118 reversed single #
loop $-1 $-1 $119 $46 #
plane-surface $-1 -73.880428479873018 28.75992489540095 6.9818717561087453 -0.83867057594974714 0 0.54463902268945019 0.54463902268945019 0 0.83867057594974714 forward_v I I I I #
coedge $-1 $120 $121 $122 $123 reversed $47 $-1 #
face $-1 $-1 $124 $27 $-1 $125 forward single #
loop $-1 $126 $127 $49 #
cone-surface $-1 -67.283890481880945 26.807408687983873 11.803467888587534 0.83867057594974714 0 -0.54463902268945019 0.2723195113447251 0 0.41933528797487357 1 I I -0.70710678118654746 0.70710678118654746 0.5 forward I I I I #
loop $-1 $-1 $128 $35 #
coedge $-1 $80 $80 $129 $130 reversed $50 $-1 #
face $-1 $-1 $131 $28 $-1 $132 forward single #
loop $-1 $133 $134 $52 #
cone-surface $-1 -67.283890481880945 30.71244110281804 11.803467888587534 0.83867057594974714 0 -0.54463902268945019 0.2723195113447251 0 0.41933528797487357 1 I I -0.70710678118654746 0.70710678118654746 0.5 forward I I I I #
loop $-1 $-1 $135 $36 #
coedge $-1 $85 $85 $136 $137 reversed $53 $-1 #
face $-1 $138 $139 $29 $-1 $140 reversed single #
loop $-1 $-1 $141 $55 #
plane-surface $-1 -28.762886372765578 -15.695934591581107 114.38513835013063 0.71933980857756763 0 0.69465836192734942 0.69465836192734942 0 -0.71933980857756763 forward_v I I I I #
coedge $-1 $142 $143 $144 $145 reversed $56 $-1 #
face $-1 $-1 $146 $30 $-1 $147 forward single #
loop $-1 $148 $149 $58 #
cone-surface $-1 59.919489292893331 -20.352661103114258 5.9144849936165116 -0.71933980857756763 0 -0.69465836192734942 1.0419875428910241 0 -1.0790097128663514 1 I I -0.70710678118654724 0.70710678118654768 1.5 forward I I I I #
loop $-1 $-1 $150 $38 #
coedge $-1 $94 $94 $151 $152 reversed $59 $-1 #
face $-1 $-1 $153 $31 $-1 $154 forward single #
loop $-1 $155 $156 $61 #
cone-surface $-1 59.919489292893331 -11.039208080047949 5.9144849936165116 -0.71933980857756763 0 -0.69465836192734942 1.0419875428910241 0 -1.0790097128663514 1 I I -0.70710678118654724 0.70710678118654768 1.5 forward I I I I #
loop $-1 $-1 $157 $39 #
coedge $-1 $99 $99 $158 $159 reversed $62 $-1 #
face $-1 $160 $161 $24 $-1 $162 reversed single #
loop $-1 $-1 $163 $64 #
plane-surface $-1 0 -48.435681525979938 0 0 1 0 0 0 1 forward_v I I I I #
coedge $-1 $164 $165 $166 $167 forward $65 $-1 #
coedge $-1 $168 $67 $169 $170 forward $41 $-1 #
coedge $-1 $67 $168 $171 $172 forward $41 $-1 #
coedge $-1 $173 $174 $67 $107 reversed $175 $-1 #
edge $-1 $176 -48.435681525979938 $177 48.435681525979938 $106 $178 forward 7 unknown #
face $-1 $179 $180 $25 $-1 $181 reversed single #
loop $-1 $-1 $182 $68 #
plane-surface $-1 0 0 -19.790825088617666 0 0 1 1 0 0 forward_v I I I I #
coedge $-1 $183 $184 $185 $186 reversed $69 $-1 #
coedge $-1 $187 $71 $184 $188 forward $44 $-1 #
coedge $-1 $71 $187 $189 $190 reversed $44 $-1 #
coedge $-1 $191 $185 $71 $115 forward $180 $-1 #
edge $-1 $192 11.063015163145831 $193 28.602782629604675 $114 $194 forward 7 unknown #
face $-1 $195 $196 $26 $-1 $197 forward single #
loop $-1 $-1 $198 $72 #
plane-surface $-1 -197.80311148913148 33.315796046040816 87.458200482420509 0 -1 0 0.83867057594974714 0 -0.54463902268945019 forward_v I I I I #
coedge $-1 $199 $200 $201 $202 reversed $73 $-1 #
coedge $-1 $121 $75 $203 $204 reversed $47 $-1 #
coedge $-1 $75 $120 $199 $205 reversed $47 $-1 #
coedge $-1 $201 $206 $75 $123 forward $196 $-1 #
edge $-1 $207 25.021127264692694 $208 33.339358552099242 $122 $209 forward 7 unknown #
loop $-1 $-1 $129 $76 #
plane-surface $-1 -73.880428479873018 28.75992489540095 6.9818717561087453 -0.83867057594974714 0 0.54463902268945019 0.54463902268945019 0 0.83867057594974714 forward_v I I I I #
loop $-1 $-1 $210 $49 #
coedge $-1 $127 $127 $128 $211 reversed $77 $-1 #
coedge $-1 $128 $128 $127 $211 forward $79 $-1 #
coedge $-1 $129 $129 $80 $130 forward $124 $-1 #
edge $-1 $212 0 $212 6.2831853071796004 $129 $213 forward 7 unknown #
loop $-1 $-1 $136 $81 #
plane-surface $-1 -73.880428479873018 28.75992489540095 6.9818717561087453 -0.83867057594974714 0 0.54463902268945019 0.54463902268945019 0 0.83867057594974714 forward_v I I I I #
loop $-1 $-1 $214 $52 #
coedge $-1 $134 $134 $135 $215 reversed $82 $-1 #
coedge $-1 $135 $135 $134 $215 forward $84 $-1 #
coedge $-1 $136 $136 $85 $137 forward $131 $-1 #
edge $-1 $216 0 $216 6.2831853071796004 $136 $217 forward 7 unknown #
face $-1 $218 $219 $29 $-1 $220 reversed single #
loop $-1 $-1 $221 $86 #
plane-surface $-1 77.527380187915526 -26.561629785158466 217.02845320276924 0 1 0 0.71933980857756763 0 0.69465836192734942 forward_v I I I I #
coedge $-1 $222 $223 $224 $225 reversed $87 $-1 #
coedge $-1 $143 $89 $226 $227 reversed $56 $-1 #
coedge $-1 $89 $142 $222 $228 reversed $56 $-1 #
coedge $-1 $224 $229 $89 $145 forward $230 $-1 #
edge $-1 $231 -35.116738385915284 $232 -23.822087842321977 $144 $233 forward 7 unknown #
loop $-1 $-1 $151 $90 #
plane-surface $-1 -28.762886372765578 -15.695934591581107 114.38513835013063 0.71933980857756763 0 0.69465836192734942 0.69465836192734942 0 -0.71933980857756763 forward_v I I I I #
loop $-1 $-1 $234 $58 #
coedge $-1 $149 $149 $150 $235 reversed $91 $-1 #
coedge $-1 $150 $150 $149 $235 forward $93 $-1 #
coedge $-1 $151 $151 $94 $152 forward $146 $-1 #
edge $-1 $236 0 $236 6.2831853071796004 $151 $237 forward 7 unknown #
loop $-1 $-1 $158 $95 #
plane-surface $-1 -28.762886372765578 -15.695934591581107 114.38513835013063 0.71933980857756763 0 0.69465836192734942 0.69465836192734942 0 -0.71933980857756763 forward_v I I I I #
loop $-1 $-1 $238 $61 #
coedge $-1 $156 $156 $157 $239 reversed $96 $-1 #
coedge $-1 $157 $157 $156 $239 forward $98 $-1 #
coedge $-1 $158 $158 $99 $159 forward $153 $-1 #
edge $-1 $240 0 $240 6.2831853071796004 $158 $241 forward 7 unknown #
face $-1 $242 $243 $24 $-1 $244 reversed single #
loop $-1 $-1 $245 $100 #
plane-surface $-1 -73.880428479873046 0 0 1 0 0 0 0 -1 forward_v I I I I #
coedge $-1 $246 $171 $247 $248 forward $101 $-1 #
coedge $-1 $249 $103 $246 $250 forward $65 $-1 #
coedge $-1 $103 $249 $251 $252 forward $65 $-1 #
coedge $-1 $174 $173 $103 $167 reversed $175 $-1 #
edge $-1 $253 -48.435681525979938 $254 48.435681525979938 $166 $255 forward 7 unknown #
coedge $-1 $105 $104 $256 $257 forward $41 $-1 #
coedge $-1 $258 $259 $104 $170 reversed $243 $-1 #
edge $-1 $177 -73.880428479873046 $260 73.880428479873046 $169 $261 forward 7 unknown #
coedge $-1 $163 $262 $105 $172 reversed $101 $-1 #
edge $-1 $263 -73.880428479873046 $176 73.880428479873046 $171 $264 forward 7 unknown #
coedge $-1 $166 $106 $262 $265 forward $175 $-1 #
coedge $-1 $106 $166 $258 $266 reversed $175 $-1 #
loop $-1 $-1 $173 $242 #
vertex $-1 $107 $267 #
vertex $-1 $107 $268 #
straight-curve $-1 73.880428479873046 0 19.790825088617666 0 1 0 I I #
face $-1 $269 $270 $25 $-1 $271 reversed single #
loop $-1 $-1 $185 $108 #
plane-surface $-1 73.880428479873046 0 0 -1 0 0 0 0 1 forward_v I I I I #
coedge $-1 $272 $273 $183 $274 forward $109 $-1 #
coedge $-1 $275 $111 $182 $274 reversed $69 $-1 #
coedge $-1 $111 $275 $112 $188 reversed $69 $-1 #
coedge $-1 $114 $276 $111 $186 forward $180 $-1 #
edge $-1 $277 -12.274605898837116 $192 -2.7578324807239811 $185 $278 forward 7 unknown #
coedge $-1 $113 $112 $279 $280 reversed $44 $-1 #
edge $-1 $192 -73.880428479873046 $281 73.880428479873046 $184 $282 forward 7 unknown #
coedge $-1 $283 $284 $113 $190 forward $270 $-1 #
edge $-1 $193 -73.880428479873046 $285 73.880428479873046 $189 $286 forward 7 unknown #
coedge $-1 $276 $114 $284 $287 forward $180 $-1 #
vertex $-1 $115 $288 #
vertex $-1 $287 $289 #
straight-curve $-1 73.880428479873046 -19.832898896375255 -10.27405167050453 0 -1 0 I I #
face $-1 $-1 $290 $26 $-1 $291 reversed single #
loop $-1 $-1 $122 $116 #
plane-surface $-1 0 0 19.790825088617666 0 0 1 1 0 0 forward_v I I I I #
coedge $-1 $292 $293 $294 $295 reversed $117 $-1 #
coedge $-1 $296 $119 $121 $205 forward $73 $-1 #
coedge $-1 $119 $296 $292 $297 forward $73 $-1 #
coedge $-1 $294 $122 $119 $202 forward $196 $-1 #
edge $-1 $208 9.8240912970606082 $298 18.935833598340341 $201 $299 forward 7 unknown #
coedge $-1 $300 $301 $120 $204 forward $290 $-1 #
edge $-1 $302 -36.747228485101552 $207 -23.938275152592588 $203 $303 forward 7 unknown #
edge $-1 $208 -15.272925627566583 $302 5.1979138280344745e-014 $121 $304 forward 7 unknown #
coedge $-1 $122 $294 $300 $305 forward $196 $-1 #
vertex $-1 $204 $306 #
vertex $-1 $123 $307 #
straight-curve $-1 -98.901555744565741 24.204053744761083 19.790825088617666 1 0 0 I I #
coedge $-1 $210 $210 $-1 $308 reversed $126 $-1 #
edge $-1 $309 0 $309 6.2831853071796004 $127 $310 forward 7 unknown #
vertex $-1 $130 $311 #
ellipse-curve $-1 -69.721312836169758 26.807408687983873 13.386348422363197 -0.83867057594974714 0 0.54463902268945019 0.54463902268945019 0 0.83867057594974714 1 I I #
coedge $-1 $214 $214 $-1 $312 reversed $133 $-1 #
edge $-1 $313 0 $313 6.2831853071796004 $134 $314 forward 7 unknown #
vertex $-1 $137 $315 #
ellipse-curve $-1 -69.721312836169758 30.71244110281804 13.386348422363197 -0.83867057594974714 0 0.54463902268945019 0.54463902268945019 0 0.83867057594974714 1 I I #
face $-1 $-1 $230 $29 $-1 $316 forward single #
loop $-1 $-1 $317 $138 #
plane-surface $-1 73.880428479873046 0 0 -1 0 0 0 0 1 forward_v I I I I #
coedge $-1 $318 $319 $320 $321 reversed $139 $-1 #
coedge $-1 $322 $141 $143 $228 forward $87 $-1 #
coedge $-1 $141 $322 $318 $323 forward $87 $-1 #
coedge $-1 $320 $144 $141 $225 forward $230 $-1 #
edge $-1 $232 -3.0177278977868038 $324 18.713662489367913 $224 $325 forward 7 unknown #
coedge $-1 $326 $327 $142 $227 forward $219 $-1 #
edge $-1 $328 -100.41935481193512 $231 -88.723401512766955 $226 $329 forward 7 unknown #
edge $-1 $232 131.50156870723595 $328 147.76085695974612 $143 $330 forward 7 unknown #
coedge $-1 $144 $320 $326 $331 forward $230 $-1 #
loop $-1 $-1 $320 $218 #
vertex $-1 $227 $332 #
vertex $-1 $145 $333 #
straight-curve $-1 38.763690093957763 -4.8302393980037497 19.790825088617666 -1 0 0 I I #
coedge $-1 $234 $234 $-1 $334 reversed $148 $-1 #
edge $-1 $335 0 $335 6.2831853071796004 $149 $336 forward 7 unknown #
vertex $-1 $152 $337 #
ellipse-curve $-1 68.233103208076372 -20.352661103114258 13.9428484390336 0.71933980857756763 0 0.69465836192734942 2.0839750857820483 0 -2.1580194257327028 1 I I #
coedge $-1 $238 $238 $-1 $338 reversed $155 $-1 #
edge $-1 $339 0 $339 6.2831853071796004 $156 $340 forward 7 unknown #
vertex $-1 $159 $341 #
ellipse-curve $-1 68.233103208076372 -11.039208080047949 13.9428484390336 0.71933980857756763 0 0.69465836192734942 2.0839750857820483 0 -2.1580194257327028 1 I I #
face $-1 $-1 $175 $24 $-1 $342 reversed single #
loop $-1 $-1 $258 $160 #
plane-surface $-1 0 48.435681525979938 0 0 -1 0 0 0 -1 forward_v I I I I #
coedge $-1 $343 $256 $259 $344 forward $161 $-1 #
coedge $-1 $262 $163 $164 $250 reversed $101 $-1 #
coedge $-1 $256 $343 $163 $248 reversed $161 $-1 #
edge $-1 $263 -19.790825088617666 $345 19.790825088617666 $247 $346 forward 7 unknown #
coedge $-1 $165 $164 $343 $347 forward $65 $-1 #
edge $-1 $254 -73.880428479873046 $345 73.880428479873046 $246 $348 forward 7 unknown #
coedge $-1 $259 $258 $165 $252 reversed $243 $-1 #
edge $-1 $349 -73.880428479873046 $253 73.880428479873046 $251 $350 forward 7 unknown #
vertex $-1 $167 $351 #
vertex $-1 $265 $352 #
straight-curve $-1 73.880428479873046 0 -19.790825088617666 0 -1 0 I I #
coedge $-1 $245 $247 $168 $257 reversed $161 $-1 #
edge $-1 $260 -48.435681525979938 $263 48.435681525979938 $256 $353 forward 7 unknown #
coedge $-1 $251 $169 $174 $266 forward $243 $-1 #
coedge $-1 $169 $251 $245 $344 reversed $243 $-1 #
vertex $-1 $170 $354 #
straight-curve $-1 0 48.435681525979938 19.790825088617666 -1 0 0 I I #
coedge $-1 $171 $246 $173 $265 reversed $101 $-1 #
vertex $-1 $257 $355 #
straight-curve $-1 0 -48.435681525979938 19.790825088617666 1 0 0 I I #
edge $-1 $176 -19.790825088617666 $254 19.790825088617666 $173 $356 forward 7 unknown #
edge $-1 $177 -19.790825088617666 $253 19.790825088617666 $174 $357 forward 7 unknown #
point $-1 73.880428479873046 -48.435681525979938 19.790825088617666 #
point $-1 73.880428479873046 48.435681525979938 19.790825088617666 #
face $-1 $-1 $358 $25 $-1 $359 reversed single #
loop $-1 $-1 $189 $179 #
plane-surface $-1 0 -48.435681525979938 0 0 1 0 0 0 1 forward_v I I I I #
coedge $-1 $360 $182 $276 $361 forward $109 $-1 #
coedge $-1 $182 $360 $362 $363 forward $109 $-1 #
edge $-1 $364 -73.880428479873046 $277 73.880428479873046 $182 $365 forward 7 unknown #
coedge $-1 $184 $183 $366 $367 reversed $69 $-1 #
coedge $-1 $185 $191 $272 $361 reversed $180 $-1 #
vertex $-1 $361 $368 #
straight-curve $-1 73.880428479873046 -30.895914059521086 -7.516219189780549 0 0 1 I I #
coedge $-1 $366 $369 $187 $280 forward $358 $-1 #
edge $-1 $285 -28.602782629604675 $281 -11.063015163145831 $279 $370 forward 7 unknown #
vertex $-1 $280 $371 #
straight-curve $-1 0 -30.895914059521086 -10.27405167050453 -1 0 0 I I #
coedge $-1 $372 $189 $369 $373 forward $270 $-1 #
coedge $-1 $189 $372 $191 $287 reversed $270 $-1 #
vertex $-1 $373 $374 #
straight-curve $-1 0 -48.435681525979938 -10.27405167050453 -1 0 0 I I #
edge $-1 $193 10.27405167050453 $375 19.790825088617666 $191 $376 forward 7 unknown #
point $-1 73.880428479873046 -30.895914059521086 -10.27405167050453 #
point $-1 73.880428479873046 -48.43568152597993 -10.27405167050453 #
loop $-1 $-1 $203 $195 #
plane-surface $-1 -73.880428479873046 0 0 1 0 0 0 0 -1 forward_v I I I I #
coedge $-1 $293 $198 $200 $297 reversed $117 $-1 #
coedge $-1 $198 $292 $377 $378 reversed $117 $-1 #
coedge $-1 $206 $201 $198 $295 forward $196 $-1 #
edge $-1 $298 -33.339358552099242 $379 -25.021127264692694 $294 $380 forward 7 unknown #
coedge $-1 $200 $199 $301 $381 reversed $73 $-1 #
edge $-1 $382 -5.1979138280344745e-014 $298 15.272925627566583 $292 $383 forward 7 unknown #
vertex $-1 $202 $384 #
straight-curve $-1 -65.562197192466499 14.379962447700475 19.790825088617666 0 1 0 I I #
coedge $-1 $377 $203 $206 $305 reversed $290 $-1 #
coedge $-1 $203 $377 $296 $381 forward $290 $-1 #
vertex $-1 $204 $385 #
straight-curve $-1 -73.880428479873046 24.204053744761083 43.729100241210254 0 0 1 I I #
straight-curve $-1 -73.880428479873018 24.204053744761083 6.9818717561087453 -0.54463902268945019 0 -0.83867057594974714 I I #
edge $-1 $379 -33.315796046040816 $207 -24.204053744761083 $300 $386 forward 7 unknown #
point $-1 -73.880428479873046 24.204053744761083 19.790825088617666 #
point $-1 -65.562197192466499 24.204053744761083 19.790825088617666 #
edge $-1 $387 1 $387 0 $210 $-1 forward 7 unknown #
vertex $-1 $211 $388 #
ellipse-curve $-1 -67.70322576985582 26.807408687983873 12.075787399932258 -0.83867057594974714 0 0.54463902268945019 0.54463902268945019 0 0.83867057594974714 1 I I #
point $-1 -69.176673813480335 26.807408687983873 14.225018998312958 #
edge $-1 $389 1 $389 0 $214 $-1 forward 7 unknown #
vertex $-1 $215 $390 #
ellipse-curve $-1 -67.70322576985582 30.71244110281804 12.075787399932258 -0.83867057594974714 0 0.54463902268945019 0.54463902268945019 0 0.83867057594974714 1 I I #
point $-1 -69.176673813480335 30.71244110281804 14.225018998312958 #
plane-surface $-1 0 0 19.790825088617666 0 0 1 1 0 0 forward_v I I I I #
coedge $-1 $327 $326 $319 $391 forward $219 $-1 #
coedge $-1 $319 $221 $223 $323 reversed $139 $-1 #
coedge $-1 $221 $318 $317 $391 reversed $139 $-1 #
coedge $-1 $229 $224 $221 $321 forward $230 $-1 #
edge $-1 $324 23.822087842321977 $392 35.116738385915284 $320 $393 forward 7 unknown #
coedge $-1 $223 $222 $327 $394 reversed $87 $-1 #
edge $-1 $395 -147.76085695974612 $324 -131.50156870723595 $318 $396 forward 7 unknown #
vertex $-1 $225 $397 #
straight-curve $-1 62.585777936279712 -7.8479672957905535 19.79082508861768 0 -1 0 I I #
coedge $-1 $317 $226 $229 $331 reversed $219 $-1 #
coedge $-1 $226 $317 $322 $394 forward $219 $-1 #
vertex $-1 $227 $398 #
straight-curve $-1 73.880428479873046 -4.8302393980037497 108.51422660138462 0 0 1 I I #
straight-curve $-1 -28.762886372765578 -4.8302393980037497 114.38513835013063 0.69465836192734942 0 -0.71933980857756763 I I #
edge $-1 $392 -26.561629785158466 $231 -4.8302393980037497 $326 $399 forward 7 unknown #
point $-1 73.880428479873046 -4.8302393980037497 19.790825088617666 #
point $-1 62.58577793627974 -4.8302393980037497 19.790825088617666 #
edge $-1 $400 1 $400 0 $234 $-1 forward 7 unknown #
vertex $-1 $235 $401 #
ellipse-curve $-1 60.998499005759683 -20.352661103114258 6.9564725365075368 0.71933980857756763 0 0.69465836192734942 2.0839750857820483 0 -2.1580194257327028 1 I I #
point $-1 70.317078293858444 -20.352661103114258 11.784829013300918 #
edge $-1 $402 1 $402 0 $238 $-1 forward 7 unknown #
vertex $-1 $239 $403 #
ellipse-curve $-1 60.998499005759683 -11.039208080047949 6.9564725365075368 0.71933980857756763 0 0.69465836192734942 2.0839750857820483 0 -2.1580194257327028 1 I I #
point $-1 70.317078293858444 -11.039208080047949 11.784829013300918 #
plane-surface $-1 73.880428479873046 0 0 -1 0 0 0 0 1 forward_v I I I I #
coedge $-1 $247 $245 $249 $347 reversed $161 $-1 #
edge $-1 $260 -19.790825088617666 $349 19.790825088617666 $259 $404 forward 7 unknown #
vertex $-1 $347 $405 #
straight-curve $-1 -73.880428479873046 -48.435681525979938 0 0 0 -1 I I #
edge $-1 $345 -48.435681525979938 $349 48.435681525979938 $343 $406 forward 7 unknown #
straight-curve $-1 0 -48.435681525979938 -19.790825088617666 -1 0 0 I I #
vertex $-1 $252 $407 #
straight-curve $-1 0 48.435681525979938 -19.790825088617666 1 0 0 I I #
point $-1 73.880428479873046 48.435681525979938 -19.790825088617666 #
point $-1 73.880428479873046 -48.435681525979938 -19.790825088617666 #
straight-curve $-1 -73.880428479873046 0 19.790825088617666 0 -1 0 I I #
point $-1 -73.880428479873046 48.435681525979938 19.790825088617666 #
point $-1 -73.880428479873046 -48.435681525979938 19.790825088617666 #
straight-curve $-1 73.880428479873046 -48.435681525979938 0 0 0 -1 I I #
straight-curve $-1 73.880428479873046 48.435681525979938 0 0 0 -1 I I #
loop $-1 $-1 $366 $269 #
plane-surface $-1 -73.880428479873046 0 0 1 0 0 0 0 -1 forward_v I I I I #
coedge $-1 $273 $272 $372 $408 forward $109 $-1 #
edge $-1 $277 30.895914059521086 $375 48.435681525979938 $276 $409 forward 7 unknown #
coedge $-1 $369 $366 $273 $363 reversed $358 $-1 #
edge $-1 $410 -48.435681525979938 $364 -30.895914059521086 $362 $411 forward 7 unknown #
vertex $-1 $367 $412 #
straight-curve $-1 0 -30.895914059521086 -19.790825088617666 1 0 0 I I #
coedge $-1 $362 $279 $275 $367 forward $358 $-1 #
edge $-1 $281 2.7578324807239811 $364 12.274605898837116 $366 $413 forward 7 unknown #
point $-1 73.880428479873046 -30.895914059521086 -19.790825088617666 #
coedge $-1 $279 $362 $283 $373 reversed $358 $-1 #
straight-curve $-1 -73.880428479873046 -19.832898896375255 -10.27405167050453 0 1 0 I I #
point $-1 -73.880428479873046 -30.895914059521086 -10.27405167050453 #
coedge $-1 $284 $283 $360 $408 reversed $270 $-1 #
edge $-1 $285 10.27405167050453 $410 19.790825088617666 $369 $414 forward 7 unknown #
point $-1 -73.880428479873046 -48.43568152597993 -10.27405167050453 #
vertex $-1 $287 $415 #
straight-curve $-1 73.880428479873046 -48.435681525979938 0 0 0 -1 I I #
coedge $-1 $301 $300 $293 $378 forward $290 $-1 #
edge $-1 $379 23.938275152592588 $382 36.747228485101552 $377 $416 forward 7 unknown #
vertex $-1 $305 $417 #
straight-curve $-1 -98.901555744565741 33.315796046040816 19.790825088617666 -1 0 0 I I #
edge $-1 $382 -18.935833598340341 $302 -9.8240912970606082 $301 $418 forward 7 unknown #
vertex $-1 $381 $419 #
straight-curve $-1 -73.880428479873018 33.315796046040816 6.9818717561087453 0.54463902268945019 0 0.83867057594974714 I I #
point $-1 -65.562197192466499 33.315796046040816 19.790825088617666 #
point $-1 -73.880428479873046 24.204053744761083 6.9818717561087018 #
straight-curve $-1 -73.880428479873046 0 19.790825088617666 0 -1 0 I I #
vertex $-1 $308 $420 #
point $-1 -67.158586747166368 26.807408687983873 12.914457975882005 #
vertex $-1 $312 $421 #
point $-1 -67.158586747166368 30.71244110281804 12.914457975882005 #
edge $-1 $392 88.723401512766955 $395 100.41935481193512 $317 $422 forward 7 unknown #
vertex $-1 $331 $423 #
straight-curve $-1 38.763690093957763 -26.561629785158466 19.790825088617666 1 0 0 I I #
edge $-1 $395 -18.713662489367913 $328 3.0177278977868038 $327 $424 forward 7 unknown #
vertex $-1 $394 $425 #
straight-curve $-1 -28.762886372765578 -26.561629785158466 114.38513835013063 -0.69465836192734942 0 0.71933980857756763 I I #
point $-1 62.58577793627974 -26.561629785158466 19.790825088617666 #
point $-1 73.880428479873046 -4.8302393980037497 8.094871789449499 #
straight-curve $-1 73.880428479873046 0 19.790825088617666 0 1 0 I I #
vertex $-1 $334 $426 #
point $-1 63.082474091541734 -20.352661103114258 4.7984531107748332 #
vertex $-1 $338 $427 #
point $-1 63.082474091541734 -11.039208080047949 4.7984531107748332 #
straight-curve $-1 -73.880428479873046 48.435681525979938 0 0 0 -1 I I #
point $-1 -73.880428479873046 -48.435681525979938 -19.790825088617666 #
straight-curve $-1 -73.880428479873046 0 -19.790825088617666 0 1 0 I I #
point $-1 -73.880428479873046 48.435681525979938 -19.790825088617666 #
edge $-1 $375 -73.880428479873046 $410 73.880428479873046 $372 $428 forward 7 unknown #
straight-curve $-1 73.880428479873046 0 -19.790825088617666 0 -1 0 I I #
vertex $-1 $363 $429 #
straight-curve $-1 -73.880428479873046 0 -19.790825088617666 0 1 0 I I #
point $-1 -73.880428479873046 -30.895914059521086 -19.790825088617666 #
straight-curve $-1 -73.880428479873046 -30.895914059521086 -7.516219189780549 0 0 -1 I I #
straight-curve $-1 -73.880428479873046 -48.435681525979938 0 0 0 -1 I I #
point $-1 73.880428479873046 -48.435681525979938 -19.790825088617666 #
straight-curve $-1 -73.880428479873046 33.315796046040816 43.729100241210254 0 0 -1 I I #
point $-1 -73.880428479873046 33.315796046040816 19.790825088617666 #
straight-curve $-1 -73.880428479873046 14.379962447700475 6.981871756108708 0 -1 0 I I #
point $-1 -73.880428479873046 33.315796046040816 6.9818717561087018 #
point $-1 -66.864555193906071 26.807408687983873 11.531148377242809 #
point $-1 -66.864555193906071 30.71244110281804 11.531148377242809 #
straight-curve $-1 73.880428479873046 -26.561629785158466 108.51422660138462 0 0 -1 I I #
point $-1 73.880428479873046 -26.561629785158466 19.790825088617666 #
straight-curve $-1 73.880428479873046 -7.8479672957905535 8.0948717894495061 0 1 0 I I #
point $-1 73.880428479873046 -26.561629785158466 8.094871789449499 #
point $-1 58.84047958002698 -20.352661103114258 4.8724974507254863 #
point $-1 58.84047958002698 -11.039208080047949 4.8724974507254863 #
straight-curve $-1 0 -48.435681525979938 -19.790825088617666 -1 0 0 I I #
point $-1 -73.880428479873046 -48.435681525979938 -19.790825088617666 #
End-of-ACIS-data 