500 0 7 0           
7 Unknown 11 ACIS 5.0 NT 24 Fri Mar 26 03:25:32 1999 
-1 9.9999999999999995e-007 1e-010 
body $-1 $7 $-1 $8 #
body $-1 $9 $-1 $10 #
body $-1 $11 $-1 $12 #
body $-1 $13 $-1 $14 #
body $-1 $15 $-1 $16 #
body $-1 $17 $-1 $18 #
body $-1 $19 $-1 $20 #
lump $-1 $-1 $21 $0 #
transform $-1 1 0 0 0 1 0 0 0 1 76.181524094363226 36.407500734143525 11.978131074384621 1 rotate no_reflect no_shear #
lump $-1 $-1 $22 $1 #
transform $-1 1 0 0 0 1 0 0 0 1 76.181524094363226 36.407500734143525 11.978131074384621 1 rotate no_reflect no_shear #
lump $-1 $-1 $23 $2 #
transform $-1 1 0 0 0 1 0 0 0 1 76.181524094363226 36.407500734143525 11.978131074384621 1 rotate no_reflect no_shear #
lump $-1 $-1 $24 $3 #
transform $-1 1 0 0 0 1 0 0 0 1 76.181524094363226 36.407500734143525 11.978131074384621 1 rotate no_reflect no_shear #
lump $-1 $-1 $25 $4 #
transform $-1 1 0 0 0 1 0 0 0 1 76.181524094363226 36.407500734143525 11.978131074384621 1 rotate no_reflect no_shear #
lump $-1 $-1 $26 $5 #
transform $-1 1 0 0 0 1 0 0 0 1 76.181524094363226 36.407500734143525 11.978131074384621 1 rotate no_reflect no_shear #
lump $-1 $-1 $27 $6 #
transform $-1 1 0 0 0 1 0 0 0 1 76.181524094363226 36.407500734143525 11.978131074384621 1 rotate no_reflect no_shear #
shell $-1 $-1 $-1 $28 $-1 $7 #
shell $-1 $-1 $-1 $29 $-1 $9 #
shell $-1 $-1 $-1 $30 $-1 $11 #
shell $-1 $-1 $-1 $31 $-1 $13 #
shell $-1 $-1 $-1 $32 $-1 $15 #
shell $-1 $-1 $-1 $33 $-1 $17 #
shell $-1 $-1 $-1 $34 $-1 $19 #
face $-1 $35 $36 $21 $-1 $37 forward single #
face $-1 $38 $39 $22 $-1 $40 reversed single #
face $-1 $41 $42 $23 $-1 $43 forward single #
face $-1 $44 $45 $24 $-1 $46 forward single #
face $-1 $47 $48 $25 $-1 $49 reversed single #
face $-1 $50 $51 $26 $-1 $52 forward single #
face $-1 $53 $54 $27 $-1 $55 forward single #
face $-1 $56 $57 $21 $-1 $58 reversed single #
loop $-1 $-1 $59 $28 #
plane-surface $-1 0 0 11.978131074384621 0 0 1 1 0 0 forward_v I I I I #
face $-1 $60 $61 $22 $-1 $62 reversed single #
loop $-1 $-1 $63 $29 #
plane-surface $-1 102.44118835380252 -2.4000351098610313 217.71911155569575 0 -1 0 -0.78801076186113728 0 -0.61566146476048833 forward_v I I I I #
face $-1 $64 $65 $23 $-1 $66 forward single #
loop $-1 $67 $68 $30 #
cone-surface $-1 72.120441811538342 -9.6975986265186798 7.2221948164031193 -0.78801076186113728 0 -0.61566146476048833 0.61566146476048833 0 -0.78801076186113728 1 I I 0 1 1 forward I I I I #
face $-1 $69 $70 $24 $-1 $71 forward single #
loop $-1 $72 $73 $31 #
cone-surface $-1 72.120441811538342 -5.3190605165240896 7.2221948164031193 -0.78801076186113728 0 -0.61566146476048833 0.61566146476048833 0 -0.78801076186113728 1 I I 0 1 1 forward I I I I #
face $-1 $74 $75 $25 $-1 $76 reversed single #
loop $-1 $-1 $77 $32 #
plane-surface $-1 -156.92163955294473 28.995334914951293 134.69829981891854 0 1 0 -0.52991927123019833 0 0.84804809178421925 forward_v I I I I #
face $-1 $78 $79 $26 $-1 $80 forward single #
loop $-1 $81 $82 $33 #
cone-surface $-1 -70.2573088332678 31.11309657757765 7.5638777177099463 0.52991927123019833 0 -0.84804809178421925 0.84804809178421925 0 0.52991927123019833 1 I I 0 1 1 forward I I I I #
face $-1 $83 $84 $27 $-1 $85 forward single #
loop $-1 $86 $87 $34 #
cone-surface $-1 -70.2573088332678 34.289739071517175 7.5638777177099463 0.52991927123019833 0 -0.84804809178421925 0.84804809178421925 0 0.52991927123019833 1 I I 0 1 1 forward I I I I #
face $-1 $88 $89 $21 $-1 $90 reversed single #
loop $-1 $-1 $91 $35 #
plane-surface $-1 0 0 -11.978131074384621 0 0 1 1 0 0 forward_v I I I I #
coedge $-1 $92 $93 $94 $95 forward $36 $-1 #
face $-1 $96 $97 $22 $-1 $98 reversed single #
loop $-1 $-1 $99 $38 #
plane-surface $-1 -17.622533328880991 -7.5083295715213865 123.91505413245154 0.78801076186113728 0 0.61566146476048833 0.61566146476048833 0 -0.78801076186113728 forward_v I I I I #
coedge $-1 $100 $101 $102 $103 reversed $39 $-1 #
face $-1 $-1 $104 $23 $-1 $105 forward single #
loop $-1 $106 $107 $41 #
cone-surface $-1 70.840029537512322 -9.6975986265186798 6.2218271383496528 -0.78801076186113728 0 -0.61566146476048833 0.30783073238024417 0 -0.39400538093056864 1 I I -0.70710678118654746 0.70710678118654746 0.5 forward I I I I #
loop $-1 $-1 $108 $30 #
coedge $-1 $68 $68 $109 $110 reversed $42 $-1 #
face $-1 $-1 $111 $24 $-1 $112 forward single #
loop $-1 $113 $114 $44 #
cone-surface $-1 70.840029537512322 -5.3190605165240896 6.2218271383496528 -0.78801076186113728 0 -0.61566146476048833 0.30783073238024417 0 -0.39400538093056864 1 I I -0.70710678118654746 0.70710678118654746 0.5 forward I I I I #
loop $-1 $-1 $115 $31 #
coedge $-1 $73 $73 $116 $117 reversed $45 $-1 #
face $-1 $118 $119 $25 $-1 $120 forward single #
loop $-1 $-1 $121 $47 #
plane-surface $-1 -76.181524094363212 32.701417824547406 5.4871075440420327 -0.52991927123019833 0 0.84804809178421925 0.84804809178421925 0 0.52991927123019833 forward_v I I I I #
coedge $-1 $122 $123 $124 $125 reversed $48 $-1 #
face $-1 $-1 $126 $26 $-1 $127 forward single #
loop $-1 $128 $129 $50 #
cone-surface $-1 -69.26203838341236 31.11309657757765 5.9711120803144411 0.52991927123019833 0 -0.84804809178421925 0.42402404589210962 0 0.26495963561509916 1 I I -0.70710678118654746 0.70710678118654746 0.5 forward I I I I #
loop $-1 $-1 $130 $33 #
coedge $-1 $82 $82 $131 $132 reversed $51 $-1 #
face $-1 $-1 $133 $27 $-1 $134 forward single #
loop $-1 $135 $136 $53 #
cone-surface $-1 -69.26203838341236 34.289739071517175 5.9711120803144411 0.52991927123019833 0 -0.84804809178421925 0.42402404589210962 0 0.26495963561509916 1 I I -0.70710678118654746 0.70710678118654746 0.5 forward I I I I #
loop $-1 $-1 $137 $34 #
coedge $-1 $87 $87 $138 $139 reversed $54 $-1 #
face $-1 $140 $141 $21 $-1 $142 reversed single #
loop $-1 $-1 $143 $56 #
plane-surface $-1 0 -36.407500734143525 0 0 1 0 0 0 1 forward_v I I I I #
coedge $-1 $144 $145 $146 $147 forward $57 $-1 #
coedge $-1 $148 $59 $149 $150 forward $36 $-1 #
coedge $-1 $59 $148 $151 $152 forward $36 $-1 #
coedge $-1 $153 $154 $59 $95 reversed $155 $-1 #
edge $-1 $156 -36.407500734143525 $157 36.407500734143525 $94 $158 forward 7 unknown #
face $-1 $159 $160 $22 $-1 $161 forward single #
loop $-1 $-1 $162 $60 #
plane-surface $-1 102.44118835380252 -12.616624033181742 217.71911155569575 0 1 0 0.78801076186113728 0 0.61566146476048833 forward_v I I I I #
coedge $-1 $163 $164 $165 $166 reversed $61 $-1 #
coedge $-1 $101 $63 $167 $168 reversed $39 $-1 #
coedge $-1 $63 $100 $163 $169 reversed $39 $-1 #
coedge $-1 $165 $170 $63 $103 forward $160 $-1 #
edge $-1 $171 -24.960929917461968 $172 -18.611579138003108 $102 $173 forward 7 unknown #
loop $-1 $-1 $109 $64 #
plane-surface $-1 -17.622533328880991 -7.5083295715213865 123.91505413245154 0.78801076186113728 0 0.61566146476048833 0.61566146476048833 0 -0.78801076186113728 forward_v I I I I #
loop $-1 $-1 $174 $41 #
coedge $-1 $107 $107 $108 $175 reversed $65 $-1 #
coedge $-1 $108 $108 $107 $175 forward $67 $-1 #
coedge $-1 $109 $109 $68 $110 forward $104 $-1 #
edge $-1 $176 0 $176 6.2831853071796004 $109 $177 forward 7 unknown #
loop $-1 $-1 $116 $69 #
plane-surface $-1 -17.622533328880991 -7.5083295715213865 123.91505413245154 0.78801076186113728 0 0.61566146476048833 0.61566146476048833 0 -0.78801076186113728 forward_v I I I I #
loop $-1 $-1 $178 $44 #
coedge $-1 $114 $114 $115 $179 reversed $70 $-1 #
coedge $-1 $115 $115 $114 $179 forward $72 $-1 #
coedge $-1 $116 $116 $73 $117 forward $111 $-1 #
edge $-1 $180 0 $180 6.2831853071796004 $116 $181 forward 7 unknown #
face $-1 $182 $183 $25 $-1 $184 reversed single #
loop $-1 $-1 $124 $74 #
plane-surface $-1 0 0 11.978131074384621 0 0 1 1 0 0 forward_v I I I I #
coedge $-1 $185 $186 $187 $188 reversed $75 $-1 #
coedge $-1 $123 $77 $189 $190 reversed $48 $-1 #
coedge $-1 $77 $122 $185 $191 reversed $48 $-1 #
coedge $-1 $187 $192 $77 $125 forward $119 $-1 #
edge $-1 $193 2.2792956821091366 $194 12.66710457581938 $124 $195 forward 7 unknown #
loop $-1 $-1 $131 $78 #
plane-surface $-1 -76.181524094363212 32.701417824547406 5.4871075440420327 -0.52991927123019833 0 0.84804809178421925 0.84804809178421925 0 0.52991927123019833 forward_v I I I I #
loop $-1 $-1 $196 $50 #
coedge $-1 $129 $129 $130 $197 reversed $79 $-1 #
coedge $-1 $130 $130 $129 $197 forward $81 $-1 #
coedge $-1 $131 $131 $82 $132 forward $126 $-1 #
edge $-1 $198 0 $198 6.2831853071796004 $131 $199 forward 7 unknown #
loop $-1 $-1 $138 $83 #
plane-surface $-1 -76.181524094363212 32.701417824547406 5.4871075440420327 -0.52991927123019833 0 0.84804809178421925 0.84804809178421925 0 0.52991927123019833 forward_v I I I I #
loop $-1 $-1 $200 $53 #
coedge $-1 $136 $136 $137 $201 reversed $84 $-1 #
coedge $-1 $137 $137 $136 $201 forward $86 $-1 #
coedge $-1 $138 $138 $87 $139 forward $133 $-1 #
edge $-1 $202 0 $202 6.2831853071796004 $138 $203 forward 7 unknown #
face $-1 $204 $205 $21 $-1 $206 reversed single #
loop $-1 $-1 $207 $88 #
plane-surface $-1 -76.181524094363226 0 0 1 0 0 0 0 -1 forward_v I I I I #
coedge $-1 $208 $151 $209 $210 forward $89 $-1 #
coedge $-1 $211 $91 $208 $212 forward $57 $-1 #
coedge $-1 $91 $211 $213 $214 forward $57 $-1 #
coedge $-1 $154 $153 $91 $147 reversed $155 $-1 #
edge $-1 $215 -36.407500734143525 $216 36.407500734143525 $146 $217 forward 7 unknown #
coedge $-1 $93 $92 $218 $219 forward $36 $-1 #
coedge $-1 $220 $221 $92 $150 reversed $205 $-1 #
edge $-1 $157 -76.181524094363226 $222 76.181524094363226 $149 $223 forward 7 unknown #
coedge $-1 $143 $224 $93 $152 reversed $89 $-1 #
edge $-1 $225 -76.181524094363226 $156 76.181524094363226 $151 $226 forward 7 unknown #
coedge $-1 $146 $94 $224 $227 forward $155 $-1 #
coedge $-1 $94 $146 $220 $228 reversed $155 $-1 #
loop $-1 $-1 $153 $204 #
vertex $-1 $95 $229 #
vertex $-1 $95 $230 #
straight-curve $-1 76.181524094363226 0 11.978131074384621 0 1 0 I I #
face $-1 $-1 $231 $22 $-1 $232 reversed single #
loop $-1 $-1 $102 $96 #
plane-surface $-1 0 0 11.978131074384621 0 0 1 1 0 0 forward_v I I I I #
coedge $-1 $233 $234 $235 $236 reversed $97 $-1 #
coedge $-1 $237 $99 $101 $169 forward $61 $-1 #
coedge $-1 $99 $237 $233 $238 forward $61 $-1 #
coedge $-1 $235 $102 $99 $166 forward $160 $-1 #
edge $-1 $172 -1.3541296758996619 $239 8.8624592474210484 $165 $240 forward 7 unknown #
coedge $-1 $241 $242 $100 $168 forward $231 $-1 #
edge $-1 $243 -105.00822332807985 $171 -96.881424703463253 $167 $244 forward 7 unknown #
edge $-1 $172 142.04999281189055 $243 152.36304818872648 $101 $245 forward 7 unknown #
coedge $-1 $102 $235 $241 $246 forward $160 $-1 #
vertex $-1 $168 $247 #
vertex $-1 $103 $248 #
straight-curve $-1 51.220594176901258 -2.4000351098610313 11.978131074384621 -1 0 0 I I #
coedge $-1 $174 $174 $-1 $249 reversed $106 $-1 #
edge $-1 $250 0 $250 6.2831853071796004 $107 $251 forward 7 unknown #
vertex $-1 $110 $252 #
ellipse-curve $-1 73.006848704633782 -9.6975986265186798 7.9147317620763307 0.78801076186113728 0 0.61566146476048833 0.61566146476048833 0 -0.78801076186113728 1 I I #
coedge $-1 $178 $178 $-1 $253 reversed $113 $-1 #
edge $-1 $254 0 $254 6.2831853071796004 $114 $255 forward 7 unknown #
vertex $-1 $117 $256 #
ellipse-curve $-1 73.006848704633782 -5.3190605165240896 7.9147317620763307 0.78801076186113728 0 0.61566146476048833 0.61566146476048833 0 -0.78801076186113728 1 I I #
face $-1 $-1 $257 $25 $-1 $258 reversed single #
loop $-1 $-1 $259 $118 #
plane-surface $-1 0 36.407500734143525 0 0 -1 0 0 0 -1 forward_v I I I I #
coedge $-1 $260 $121 $123 $191 forward $75 $-1 #
coedge $-1 $121 $260 $259 $261 reversed $75 $-1 #
coedge $-1 $262 $124 $121 $188 forward $119 $-1 #
edge $-1 $194 12.64462600267759 $263 20.056791821869815 $187 $264 forward 7 unknown #
coedge $-1 $265 $266 $122 $190 forward $257 $-1 #
edge $-1 $267 -61.862042365417246 $193 -55.371018835074651 $189 $268 forward 7 unknown #
edge $-1 $194 -12.249079968867314 $267 1.675811683274863e-014 $123 $269 forward 7 unknown #
coedge $-1 $124 $262 $265 $270 forward $119 $-1 #
vertex $-1 $190 $271 #
vertex $-1 $125 $272 #
straight-curve $-1 -78.460819776472363 28.995334914951293 11.978131074384621 1 0 0 I I #
coedge $-1 $196 $196 $-1 $273 reversed $128 $-1 #
edge $-1 $274 0 $274 6.2831853071796004 $129 $275 forward 7 unknown #
vertex $-1 $132 $276 #
ellipse-curve $-1 -70.987619647508126 31.11309657757765 8.7326193092133106 -0.52991927123019833 0 0.84804809178421925 0.84804809178421925 0 0.52991927123019833 1 I I #
coedge $-1 $200 $200 $-1 $277 reversed $135 $-1 #
edge $-1 $278 0 $278 6.2831853071796004 $136 $279 forward 7 unknown #
vertex $-1 $139 $280 #
ellipse-curve $-1 -70.987619647508126 34.289739071517175 8.7326193092133106 -0.52991927123019833 0 0.84804809178421925 0.84804809178421925 0 0.52991927123019833 1 I I #
face $-1 $-1 $155 $21 $-1 $281 reversed single #
loop $-1 $-1 $220 $140 #
plane-surface $-1 0 36.407500734143525 0 0 -1 0 0 0 -1 forward_v I I I I #
coedge $-1 $282 $218 $221 $283 forward $141 $-1 #
coedge $-1 $224 $143 $144 $212 reversed $89 $-1 #
coedge $-1 $218 $282 $143 $210 reversed $141 $-1 #
edge $-1 $225 -11.978131074384621 $284 11.978131074384621 $209 $285 forward 7 unknown #
coedge $-1 $145 $144 $282 $286 forward $57 $-1 #
edge $-1 $216 -76.181524094363226 $284 76.181524094363226 $208 $287 forward 7 unknown #
coedge $-1 $221 $220 $145 $214 reversed $205 $-1 #
edge $-1 $288 -76.181524094363226 $215 76.181524094363226 $213 $289 forward 7 unknown #
vertex $-1 $147 $290 #
vertex $-1 $227 $291 #
straight-curve $-1 76.181524094363226 0 -11.978131074384621 0 -1 0 I I #
coedge $-1 $207 $209 $148 $219 reversed $141 $-1 #
edge $-1 $222 -36.407500734143525 $225 36.407500734143525 $218 $292 forward 7 unknown #
coedge $-1 $213 $149 $154 $228 forward $205 $-1 #
coedge $-1 $149 $213 $207 $283 reversed $205 $-1 #
vertex $-1 $150 $293 #
straight-curve $-1 0 36.407500734143525 11.978131074384621 -1 0 0 I I #
coedge $-1 $151 $208 $153 $227 reversed $89 $-1 #
vertex $-1 $219 $294 #
straight-curve $-1 0 -36.407500734143525 11.978131074384621 1 0 0 I I #
edge $-1 $156 -11.978131074384621 $216 11.978131074384621 $153 $295 forward 7 unknown #
edge $-1 $157 -11.978131074384621 $215 11.978131074384621 $154 $296 forward 7 unknown #
point $-1 76.181524094363226 -36.407500734143525 11.978131074384621 #
point $-1 76.181524094363226 36.407500734143525 11.978131074384621 #
loop $-1 $-1 $167 $159 #
plane-surface $-1 76.181524094363226 0 0 -1 0 0 0 0 1 forward_v I I I I #
coedge $-1 $234 $162 $164 $238 reversed $97 $-1 #
coedge $-1 $162 $233 $297 $298 reversed $97 $-1 #
coedge $-1 $170 $165 $162 $236 forward $160 $-1 #
edge $-1 $239 18.611579138003108 $299 24.960929917461968 $235 $300 forward 7 unknown #
coedge $-1 $164 $163 $242 $301 reversed $61 $-1 #
edge $-1 $302 -152.36304818872648 $239 -142.04999281189055 $233 $303 forward 7 unknown #
vertex $-1 $166 $304 #
straight-curve $-1 69.832173314904367 -3.7541647857606932 11.978131074384621 0 -1 0 I I #
coedge $-1 $297 $167 $170 $246 reversed $231 $-1 #
coedge $-1 $167 $297 $237 $301 forward $231 $-1 #
vertex $-1 $168 $305 #
straight-curve $-1 76.181524094363226 -2.4000351098610313 108.85955577784787 0 0 1 I I #
straight-curve $-1 -17.622533328880991 -2.4000351098610313 123.91505413245154 0.61566146476048833 0 -0.78801076186113728 I I #
edge $-1 $299 -12.616624033181742 $171 -2.4000351098610313 $241 $306 forward 7 unknown #
point $-1 76.181524094363226 -2.4000351098610313 11.978131074384621 #
point $-1 69.832173314904367 -2.4000351098610313 11.978131074384621 #
edge $-1 $307 1 $307 0 $174 $-1 forward 7 unknown #
vertex $-1 $175 $308 #
ellipse-curve $-1 71.234034918442887 -9.6975986265186798 6.5296578707298973 0.78801076186113728 0 0.61566146476048833 0.61566146476048833 0 -0.78801076186113728 1 I I #
point $-1 73.622510169394289 -9.6975986265186798 7.1267210002152037 #
edge $-1 $309 1 $309 0 $178 $-1 forward 7 unknown #
vertex $-1 $179 $310 #
ellipse-curve $-1 71.234034918442887 -5.3190605165240896 6.5296578707298973 0.78801076186113728 0 0.61566146476048833 0.61566146476048833 0 -0.78801076186113728 1 I I #
point $-1 73.622510169394289 -5.3190605165240896 7.1267210002152037 #
loop $-1 $-1 $189 $182 #
plane-surface $-1 -76.181524094363226 0 0 1 0 0 0 0 -1 forward_v I I I I #
coedge $-1 $311 $312 $186 $261 forward $183 $-1 #
coedge $-1 $186 $185 $266 $313 reversed $75 $-1 #
edge $-1 $263 18.599856084401569 $314 30.848936053268901 $259 $315 forward 7 unknown #
coedge $-1 $192 $187 $312 $316 forward $119 $-1 #
vertex $-1 $316 $317 #
straight-curve $-1 -65.793715200652997 16.350708912273703 11.978131074384621 0 1 0 I I #
coedge $-1 $318 $189 $192 $270 reversed $257 $-1 #
coedge $-1 $189 $318 $260 $313 forward $257 $-1 #
vertex $-1 $190 $319 #
straight-curve $-1 -76.181524094363226 28.995334914951293 67.349149909459271 0 0 1 I I #
straight-curve $-1 -76.181524094363212 28.995334914951293 5.4871075440420327 -0.84804809178421925 0 -0.52991927123019833 I I #
edge $-1 $320 -36.407500734143525 $193 -28.995334914951293 $265 $321 forward 7 unknown #
point $-1 -76.181524094363226 28.995334914951293 11.978131074384621 #
point $-1 -65.793715200652983 28.995334914951293 11.978131074384621 #
edge $-1 $322 1 $322 0 $196 $-1 forward 7 unknown #
vertex $-1 $197 $323 #
ellipse-curve $-1 -69.526998019027459 31.11309657757765 6.3951361262065509 -0.52991927123019833 0 0.84804809178421925 0.84804809178421925 0 0.52991927123019833 1 I I #
point $-1 -70.139571555723919 31.11309657757765 9.2625385804435396 #
edge $-1 $324 1 $324 0 $200 $-1 forward 7 unknown #
vertex $-1 $201 $325 #
ellipse-curve $-1 -69.526998019027459 34.289739071517175 6.3951361262065509 -0.52991927123019833 0 0.84804809178421925 0.84804809178421925 0 0.52991927123019833 1 I I #
point $-1 -70.139571555723919 34.289739071517175 9.2625385804435396 #
plane-surface $-1 76.181524094363226 0 0 -1 0 0 0 0 1 forward_v I I I I #
coedge $-1 $209 $207 $211 $286 reversed $141 $-1 #
edge $-1 $222 -11.978131074384621 $288 11.978131074384621 $221 $326 forward 7 unknown #
vertex $-1 $286 $327 #
straight-curve $-1 -76.181524094363226 -36.407500734143525 0 0 0 -1 I I #
edge $-1 $284 -36.407500734143525 $288 36.407500734143525 $282 $328 forward 7 unknown #
straight-curve $-1 0 -36.407500734143525 -11.978131074384621 -1 0 0 I I #
vertex $-1 $214 $329 #
straight-curve $-1 0 36.407500734143525 -11.978131074384621 1 0 0 I I #
point $-1 76.181524094363226 36.407500734143525 -11.978131074384621 #
point $-1 76.181524094363226 -36.407500734143525 -11.978131074384621 #
straight-curve $-1 -76.181524094363226 0 11.978131074384621 0 -1 0 I I #
point $-1 -76.181524094363226 36.407500734143525 11.978131074384621 #
point $-1 -76.181524094363226 -36.407500734143525 11.978131074384621 #
straight-curve $-1 76.181524094363226 -36.407500734143525 0 0 0 -1 I I #
straight-curve $-1 76.181524094363226 36.407500734143525 0 0 0 -1 I I #
coedge $-1 $242 $241 $234 $298 forward $231 $-1 #
edge $-1 $299 96.881424703463253 $302 105.00822332807985 $297 $330 forward 7 unknown #
vertex $-1 $246 $331 #
straight-curve $-1 51.220594176901258 -12.616624033181742 11.978131074384621 1 0 0 I I #
edge $-1 $302 -8.8624592474210484 $243 1.3541296758996619 $242 $332 forward 7 unknown #
vertex $-1 $301 $333 #
straight-curve $-1 -17.622533328880991 -12.616624033181742 123.91505413245154 -0.61566146476048833 0 0.78801076186113728 I I #
point $-1 69.832173314904367 -12.616624033181742 11.978131074384621 #
point $-1 76.181524094363226 -2.4000351098610313 3.851332449768023 #
straight-curve $-1 76.181524094363226 0 11.978131074384621 0 1 0 I I #
vertex $-1 $249 $334 #
point $-1 71.84969638320338 -9.6975986265186798 5.7416471088687597 #
vertex $-1 $253 $335 #
point $-1 71.84969638320338 -5.3190605165240896 5.7416471088687597 #
coedge $-1 $312 $259 $318 $336 reversed $183 $-1 #
coedge $-1 $259 $311 $262 $316 reversed $183 $-1 #
edge $-1 $314 -20.056791821869815 $267 -12.64462600267759 $266 $337 forward 7 unknown #
vertex $-1 $261 $338 #
straight-curve $-1 -50.020142740815132 36.407500734143525 21.834553255617269 -0.84804809178421925 0 -0.52991927123019833 I I #
edge $-1 $263 65.793715200652983 $320 76.181524094363226 $312 $339 forward 7 unknown #
point $-1 -65.793715200652983 36.407500734143518 11.978131074384621 #
coedge $-1 $266 $265 $311 $336 forward $257 $-1 #
point $-1 -76.181524094363226 28.995334914951293 5.4871075440420238 #
vertex $-1 $316 $340 #
straight-curve $-1 -76.181524094363226 0 11.978131074384621 0 -1 0 I I #
vertex $-1 $273 $341 #
point $-1 -68.678949927243238 31.11309657757765 6.9250553974367488 #
vertex $-1 $277 $342 #
point $-1 -68.678949927243238 34.289739071517175 6.9250553974367488 #
straight-curve $-1 -76.181524094363226 36.407500734143525 0 0 0 -1 I I #
point $-1 -76.181524094363226 -36.407500734143525 -11.978131074384621 #
straight-curve $-1 -76.181524094363226 0 -11.978131074384621 0 1 0 I I #
point $-1 -76.181524094363226 36.407500734143525 -11.978131074384621 #
straight-curve $-1 76.181524094363226 -12.616624033181742 108.85955577784787 0 0 -1 I I #
point $-1 76.181524094363226 -12.616624033181742 11.978131074384621 #
straight-curve $-1 76.181524094363226 -3.7541647857606932 3.851332449768023 0 1 0 I I #
point $-1 76.181524094363226 -12.616624033181742 3.851332449768023 #
point $-1 70.446024156581757 -9.6975986265186798 5.9139964059694083 #
point $-1 70.446024156581757 -5.3190605165240896 5.9139964059694083 #
edge $-1 $320 -11.978131074384621 $314 -5.4871075440420238 $311 $343 forward 7 unknown #
straight-curve $-1 -76.181524094363226 16.350708912273703 5.4871075440420256 0 -1 0 I I #
point $-1 -76.181524094363226 36.407500734143518 5.4871075440420238 #
straight-curve $-1 0 36.407500734143525 11.978131074384621 -1 0 0 I I #
point $-1 -76.181524094363226 36.407500734143525 11.978131074384621 #
point $-1 -68.997078747797261 31.11309657757765 5.5470880344223312 #
point $-1 -68.997078747797261 34.289739071517175 5.5470880344223312 #
straight-curve $-1 -76.181524094363226 36.407500734143525 0 0 0 -1 I I #
End-of-ACIS-data 