500 0 18 0           
7 Unknown 11 ACIS 5.0 NT 24 Fri Mar 26 20:01:31 1999 
-1 9.9999999999999995e-007 1e-010 
body $-1 $18 $-1 $19 #
body $-1 $20 $-1 $21 #
body $-1 $22 $-1 $23 #
body $-1 $24 $-1 $25 #
body $-1 $26 $-1 $27 #
body $-1 $28 $-1 $29 #
body $-1 $30 $-1 $31 #
body $-1 $32 $-1 $33 #
body $-1 $34 $-1 $35 #
body $-1 $36 $-1 $37 #
body $-1 $38 $-1 $39 #
body $-1 $40 $-1 $41 #
body $-1 $42 $-1 $43 #
body $-1 $44 $-1 $45 #
body $-1 $46 $-1 $47 #
body $-1 $48 $-1 $49 #
body $-1 $50 $-1 $51 #
body $-1 $52 $-1 $53 #
lump $-1 $-1 $54 $0 #
transform $-1 1 0 0 0 1 0 0 0 1 74.609210486159853 32.55486272548206 6.6057549146758978 1 rotate no_reflect no_shear #
lump $-1 $-1 $55 $1 #
transform $-1 1 0 0 0 1 0 0 0 1 74.609210486159853 32.55486272548206 6.6057549146758978 1 rotate no_reflect no_shear #
lump $-1 $-1 $56 $2 #
transform $-1 1 0 0 0 1 0 0 0 1 74.609210486159853 32.55486272548206 6.6057549146758978 1 rotate no_reflect no_shear #
lump $-1 $-1 $57 $3 #
transform $-1 1 0 0 0 1 0 0 0 1 74.609210486159853 32.55486272548206 6.6057549146758978 1 rotate no_reflect no_shear #
lump $-1 $-1 $58 $4 #
transform $-1 1 0 0 0 1 0 0 0 1 74.609210486159853 32.55486272548206 6.6057549146758978 1 rotate no_reflect no_shear #
lump $-1 $-1 $59 $5 #
transform $-1 1 0 0 0 1 0 0 0 1 74.609210486159853 32.55486272548206 6.6057549146758978 1 rotate no_reflect no_shear #
lump $-1 $-1 $60 $6 #
transform $-1 1 0 0 0 1 0 0 0 1 74.609210486159853 32.55486272548206 6.6057549146758978 1 rotate no_reflect no_shear #
lump $-1 $-1 $61 $7 #
transform $-1 1 0 0 0 1 0 0 0 1 74.609210486159853 32.55486272548206 6.6057549146758978 1 rotate no_reflect no_shear #
lump $-1 $-1 $62 $8 #
transform $-1 1 0 0 0 1 0 0 0 1 74.609210486159853 32.55486272548206 6.6057549146758978 1 rotate no_reflect no_shear #
lump $-1 $-1 $63 $9 #
transform $-1 1 0 0 0 1 0 0 0 1 74.609210486159853 32.55486272548206 6.6057549146758978 1 rotate no_reflect no_shear #
lump $-1 $-1 $64 $10 #
transform $-1 1 0 0 0 1 0 0 0 1 74.609210486159853 32.55486272548206 6.6057549146758978 1 rotate no_reflect no_shear #
lump $-1 $-1 $65 $11 #
transform $-1 1 0 0 0 1 0 0 0 1 74.609210486159853 32.55486272548206 6.6057549146758978 1 rotate no_reflect no_shear #
lump $-1 $-1 $66 $12 #
transform $-1 1 0 0 0 1 0 0 0 1 74.609210486159853 32.55486272548206 6.6057549146758978 1 rotate no_reflect no_shear #
lump $-1 $-1 $67 $13 #
transform $-1 1 0 0 0 1 0 0 0 1 74.609210486159853 32.55486272548206 6.6057549146758978 1 rotate no_reflect no_shear #
lump $-1 $-1 $68 $14 #
transform $-1 1 0 0 0 1 0 0 0 1 74.609210486159853 32.55486272548206 6.6057549146758978 1 rotate no_reflect no_shear #
lump $-1 $-1 $69 $15 #
transform $-1 1 0 0 0 1 0 0 0 1 74.609210486159853 32.55486272548206 6.6057549146758978 1 rotate no_reflect no_shear #
lump $-1 $-1 $70 $16 #
transform $-1 1 0 0 0 1 0 0 0 1 74.609210486159853 32.55486272548206 6.6057549146758978 1 rotate no_reflect no_shear #
lump $-1 $-1 $71 $17 #
transform $-1 1 0 0 0 1 0 0 0 1 74.609210486159853 32.55486272548206 6.6057549146758978 1 rotate no_reflect no_shear #
shell $-1 $-1 $-1 $72 $-1 $18 #
shell $-1 $-1 $-1 $73 $-1 $20 #
shell $-1 $-1 $-1 $74 $-1 $22 #
shell $-1 $-1 $-1 $75 $-1 $24 #
shell $-1 $-1 $-1 $76 $-1 $26 #
shell $-1 $-1 $-1 $77 $-1 $28 #
shell $-1 $-1 $-1 $78 $-1 $30 #
shell $-1 $-1 $-1 $79 $-1 $32 #
shell $-1 $-1 $-1 $80 $-1 $34 #
shell $-1 $-1 $-1 $81 $-1 $36 #
shell $-1 $-1 $-1 $82 $-1 $38 #
shell $-1 $-1 $-1 $83 $-1 $40 #
shell $-1 $-1 $-1 $84 $-1 $42 #
shell $-1 $-1 $-1 $85 $-1 $44 #
shell $-1 $-1 $-1 $86 $-1 $46 #
shell $-1 $-1 $-1 $87 $-1 $48 #
shell $-1 $-1 $-1 $88 $-1 $50 #
shell $-1 $-1 $-1 $89 $-1 $52 #
face $-1 $90 $91 $54 $-1 $92 reversed single #
face $-1 $93 $94 $55 $-1 $95 forward single #
face $-1 $96 $97 $56 $-1 $98 reversed single #
face $-1 $99 $100 $57 $-1 $101 forward single #
face $-1 $102 $103 $58 $-1 $104 forward single #
face $-1 $105 $106 $59 $-1 $107 forward single #
face $-1 $108 $109 $60 $-1 $110 reversed single #
face $-1 $111 $112 $61 $-1 $113 forward single #
face $-1 $114 $115 $62 $-1 $116 forward single #
face $-1 $117 $118 $63 $-1 $119 forward single #
face $-1 $120 $121 $64 $-1 $122 reversed single #
face $-1 $123 $124 $65 $-1 $125 forward single #
face $-1 $126 $127 $66 $-1 $128 forward single #
face $-1 $129 $130 $67 $-1 $131 forward single #
face $-1 $132 $133 $68 $-1 $134 reversed single #
face $-1 $135 $136 $69 $-1 $137 forward single #
face $-1 $138 $139 $70 $-1 $140 forward single #
face $-1 $141 $142 $71 $-1 $143 forward single #
face $-1 $144 $145 $54 $-1 $146 forward single #
loop $-1 $-1 $147 $72 #
plane-surface $-1 0 -32.55486272548206 0 0 1 0 0 0 1 forward_v I I I I #
face $-1 $148 $149 $55 $-1 $150 reversed single #
loop $-1 $-1 $151 $73 #
plane-surface $-1 0 -32.55486272548206 0 0 1 0 0 0 1 forward_v I I I I #
face $-1 $152 $153 $56 $-1 $154 reversed single #
loop $-1 $-1 $155 $74 #
plane-surface $-1 111.25361787906202 -12.739079083607773 208.46438141572855 0 -1 0 -0.81915205242281985 0 -0.57357642473473569 forward_v I I I I #
face $-1 $156 $157 $57 $-1 $158 forward single #
loop $-1 $159 $160 $75 #
cone-surface $-1 71.57858959363486 -23.581829862280586 2.9642175671463287 -0.81915205242281985 0 -0.57357642473473569 0.57357642473473569 0 -0.81915205242281985 1 I I 0 1 1 forward I I I I #
face $-1 $161 $162 $58 $-1 $163 forward single #
loop $-1 $164 $165 $76 #
cone-surface $-1 71.57858959363486 -19.515798320278282 2.9642175671463287 -0.81915205242281985 0 -0.57357642473473569 0.57357642473473569 0 -0.81915205242281985 1 I I 0 1 1 forward I I I I #
face $-1 $166 $167 $59 $-1 $168 forward single #
loop $-1 $169 $170 $77 #
cone-surface $-1 71.57858959363486 -15.449766778275979 2.9642175671463287 -0.81915205242281985 0 -0.57357642473473569 0.57357642473473569 0 -0.81915205242281985 1 I I 0 1 1 forward I I I I #
face $-1 $171 $172 $60 $-1 $173 reversed single #
loop $-1 $-1 $174 $78 #
plane-surface $-1 111.25361787906202 16.684611057607654 208.46438141572855 0 -1 0 -0.81915205242281985 0 -0.57357642473473569 forward_v I I I I #
face $-1 $175 $176 $61 $-1 $177 forward single #
loop $-1 $178 $179 $79 #
cone-surface $-1 71.57858959363486 5.8418602789348384 2.9642175671463287 -0.81915205242281985 0 -0.57357642473473569 0.57357642473473569 0 -0.81915205242281985 1 I I 0 1 1 forward I I I I #
face $-1 $180 $181 $62 $-1 $182 forward single #
loop $-1 $183 $184 $80 #
cone-surface $-1 71.57858959363486 9.9078918209371452 2.9642175671463287 -0.81915205242281985 0 -0.57357642473473569 0.57357642473473569 0 -0.81915205242281985 1 I I 0 1 1 forward I I I I #
face $-1 $185 $186 $63 $-1 $187 forward single #
loop $-1 $188 $189 $81 #
cone-surface $-1 71.57858959363486 13.973923362939445 2.9642175671463287 -0.81915205242281985 0 -0.57357642473473569 0.57357642473473569 0 -0.81915205242281985 1 I I 0 1 1 forward I I I I #
face $-1 $190 $191 $64 $-1 $192 reversed single #
loop $-1 $-1 $193 $82 #
plane-surface $-1 -196.84178628492788 -26.292517556948791 86.2318056169605 0 1 0 -0.81915205242281985 0 0.57357642473473569 forward_v I I I I #
face $-1 $194 $195 $65 $-1 $196 forward single #
loop $-1 $197 $198 $83 #
cone-surface $-1 -71.578589593634831 -23.581829862280586 2.9642175671463216 0.81915205242281985 0 -0.57357642473473569 0.57357642473473569 0 0.81915205242281985 1 I I 0 1 1 forward I I I I #
face $-1 $199 $200 $66 $-1 $201 forward single #
loop $-1 $202 $203 $84 #
cone-surface $-1 -71.578589593634831 -19.515798320278282 2.9642175671463216 0.81915205242281985 0 -0.57357642473473569 0.57357642473473569 0 0.81915205242281985 1 I I 0 1 1 forward I I I I #
face $-1 $204 $205 $67 $-1 $206 forward single #
loop $-1 $207 $208 $85 #
cone-surface $-1 -71.578589593634831 -15.449766778275979 2.9642175671463216 0.81915205242281985 0 -0.57357642473473569 0.57357642473473569 0 0.81915205242281985 1 I I 0 1 1 forward I I I I #
face $-1 $209 $210 $68 $-1 $211 reversed single #
loop $-1 $-1 $212 $86 #
plane-surface $-1 -196.84178628492788 3.1311725842666362 86.2318056169605 0 1 0 -0.81915205242281985 0 0.57357642473473569 forward_v I I I I #
face $-1 $213 $214 $69 $-1 $215 forward single #
loop $-1 $216 $217 $87 #
cone-surface $-1 -71.578589593634831 5.8418602789348384 2.9642175671463216 0.81915205242281985 0 -0.57357642473473569 0.57357642473473569 0 0.81915205242281985 1 I I 0 1 1 forward I I I I #
face $-1 $218 $219 $70 $-1 $220 forward single #
loop $-1 $221 $222 $88 #
cone-surface $-1 -71.578589593634831 9.9078918209371452 2.9642175671463216 0.81915205242281985 0 -0.57357642473473569 0.57357642473473569 0 0.81915205242281985 1 I I 0 1 1 forward I I I I #
face $-1 $223 $224 $71 $-1 $225 forward single #
loop $-1 $226 $227 $89 #
cone-surface $-1 -71.578589593634831 13.973923362939445 2.9642175671463216 0.81915205242281985 0 -0.57357642473473569 0.57357642473473569 0 0.81915205242281985 1 I I 0 1 1 forward I I I I #
face $-1 $228 $229 $54 $-1 $230 reversed single #
loop $-1 $-1 $231 $90 #
plane-surface $-1 0 0 6.6057549146758978 0 0 1 1 0 0 forward_v I I I I #
coedge $-1 $232 $233 $234 $235 reversed $91 $-1 #
face $-1 $236 $237 $55 $-1 $238 reversed single #
loop $-1 $-1 $239 $93 #
plane-surface $-1 0 0 -6.6057549146758978 0 0 1 1 0 0 forward_v I I I I #
coedge $-1 $240 $241 $242 $243 forward $94 $-1 #
face $-1 $244 $245 $56 $-1 $246 reversed single #
loop $-1 $-1 $247 $96 #
plane-surface $-1 -10.978957919706019 -19.515798320278282 122.87621300986271 0.81915205242281985 0 0.57357642473473569 0.57357642473473569 0 -0.81915205242281985 forward_v I I I I #
coedge $-1 $248 $249 $250 $251 reversed $97 $-1 #
face $-1 $-1 $252 $57 $-1 $253 forward single #
loop $-1 $254 $255 $99 #
cone-surface $-1 70.225752491768318 -23.581829862280586 2.0169508590399952 -0.81915205242281985 0 -0.57357642473473569 0.28678821236736785 0 -0.40957602621140993 1 I I -0.70710678118654768 0.70710678118654735 0.5 forward I I I I #
loop $-1 $-1 $256 $75 #
coedge $-1 $160 $160 $257 $258 reversed $100 $-1 #
face $-1 $-1 $259 $58 $-1 $260 forward single #
loop $-1 $261 $262 $102 #
cone-surface $-1 70.225752491768318 -19.515798320278282 2.0169508590399952 -0.81915205242281985 0 -0.57357642473473569 0.28678821236736785 0 -0.40957602621140993 1 I I -0.70710678118654768 0.70710678118654735 0.5 forward I I I I #
loop $-1 $-1 $263 $76 #
coedge $-1 $165 $165 $264 $265 reversed $103 $-1 #
face $-1 $-1 $266 $59 $-1 $267 forward single #
loop $-1 $268 $269 $105 #
cone-surface $-1 70.225752491768318 -15.449766778275979 2.0169508590399952 -0.81915205242281985 0 -0.57357642473473569 0.28678821236736785 0 -0.40957602621140993 1 I I -0.70710678118654768 0.70710678118654735 0.5 forward I I I I #
loop $-1 $-1 $270 $77 #
coedge $-1 $170 $170 $271 $272 reversed $106 $-1 #
face $-1 $273 $274 $60 $-1 $275 reversed single #
loop $-1 $-1 $276 $108 #
plane-surface $-1 -10.978957919706019 9.9078918209371452 122.87621300986271 0.81915205242281985 0 0.57357642473473569 0.57357642473473569 0 -0.81915205242281985 forward_v I I I I #
coedge $-1 $277 $278 $279 $280 reversed $109 $-1 #
face $-1 $-1 $281 $61 $-1 $282 forward single #
loop $-1 $283 $284 $111 #
cone-surface $-1 70.225752491768318 5.8418602789348384 2.0169508590399952 -0.81915205242281985 0 -0.57357642473473569 0.28678821236736785 0 -0.40957602621140993 1 I I -0.70710678118654768 0.70710678118654735 0.5 forward I I I I #
loop $-1 $-1 $285 $79 #
coedge $-1 $179 $179 $286 $287 reversed $112 $-1 #
face $-1 $-1 $288 $62 $-1 $289 forward single #
loop $-1 $290 $291 $114 #
cone-surface $-1 70.225752491768318 9.9078918209371452 2.0169508590399952 -0.81915205242281985 0 -0.57357642473473569 0.28678821236736785 0 -0.40957602621140993 1 I I -0.70710678118654768 0.70710678118654735 0.5 forward I I I I #
loop $-1 $-1 $292 $80 #
coedge $-1 $184 $184 $293 $294 reversed $115 $-1 #
face $-1 $-1 $295 $63 $-1 $296 forward single #
loop $-1 $297 $298 $117 #
cone-surface $-1 70.225752491768318 13.973923362939445 2.0169508590399952 -0.81915205242281985 0 -0.57357642473473569 0.28678821236736785 0 -0.40957602621140993 1 I I -0.70710678118654768 0.70710678118654735 0.5 forward I I I I #
loop $-1 $-1 $299 $81 #
coedge $-1 $189 $189 $300 $301 reversed $118 $-1 #
face $-1 $302 $303 $64 $-1 $304 reversed single #
loop $-1 $-1 $305 $120 #
plane-surface $-1 -74.609210486159839 -19.515798320278282 0.64363721109465644 -0.81915205242281985 0 0.57357642473473569 0.57357642473473569 0 0.81915205242281985 forward_v I I I I #
coedge $-1 $306 $307 $308 $309 reversed $121 $-1 #
face $-1 $-1 $310 $65 $-1 $311 forward single #
loop $-1 $312 $313 $123 #
cone-surface $-1 -70.22575249176829 -23.581829862280586 2.0169508590399881 0.81915205242281985 0 -0.57357642473473569 0.28678821236736785 0 0.40957602621140993 1 I I -0.70710678118654768 0.70710678118654735 0.5 forward I I I I #
loop $-1 $-1 $314 $83 #
coedge $-1 $198 $198 $315 $316 reversed $124 $-1 #
face $-1 $-1 $317 $66 $-1 $318 forward single #
loop $-1 $319 $320 $126 #
cone-surface $-1 -70.22575249176829 -19.515798320278282 2.0169508590399881 0.81915205242281985 0 -0.57357642473473569 0.28678821236736785 0 0.40957602621140993 1 I I -0.70710678118654768 0.70710678118654735 0.5 forward I I I I #
loop $-1 $-1 $321 $84 #
coedge $-1 $203 $203 $322 $323 reversed $127 $-1 #
face $-1 $-1 $324 $67 $-1 $325 forward single #
loop $-1 $326 $327 $129 #
cone-surface $-1 -70.22575249176829 -15.449766778275979 2.0169508590399881 0.81915205242281985 0 -0.57357642473473569 0.28678821236736785 0 0.40957602621140993 1 I I -0.70710678118654768 0.70710678118654735 0.5 forward I I I I #
loop $-1 $-1 $328 $85 #
coedge $-1 $208 $208 $329 $330 reversed $130 $-1 #
face $-1 $331 $332 $68 $-1 $333 reversed single #
loop $-1 $-1 $334 $132 #
plane-surface $-1 -74.609210486159839 9.9078918209371452 0.64363721109465644 -0.81915205242281985 0 0.57357642473473569 0.57357642473473569 0 0.81915205242281985 forward_v I I I I #
coedge $-1 $335 $336 $337 $338 reversed $133 $-1 #
face $-1 $-1 $339 $69 $-1 $340 forward single #
loop $-1 $341 $342 $135 #
cone-surface $-1 -70.22575249176829 5.8418602789348384 2.0169508590399881 0.81915205242281985 0 -0.57357642473473569 0.28678821236736785 0 0.40957602621140993 1 I I -0.70710678118654768 0.70710678118654735 0.5 forward I I I I #
loop $-1 $-1 $343 $87 #
coedge $-1 $217 $217 $344 $345 reversed $136 $-1 #
face $-1 $-1 $346 $70 $-1 $347 forward single #
loop $-1 $348 $349 $138 #
cone-surface $-1 -70.22575249176829 9.9078918209371452 2.0169508590399881 0.81915205242281985 0 -0.57357642473473569 0.28678821236736785 0 0.40957602621140993 1 I I -0.70710678118654768 0.70710678118654735 0.5 forward I I I I #
loop $-1 $-1 $350 $88 #
coedge $-1 $222 $222 $351 $352 reversed $139 $-1 #
face $-1 $-1 $353 $71 $-1 $354 forward single #
loop $-1 $355 $356 $141 #
cone-surface $-1 -70.22575249176829 13.973923362939445 2.0169508590399881 0.81915205242281985 0 -0.57357642473473569 0.28678821236736785 0 0.40957602621140993 1 I I -0.70710678118654768 0.70710678118654735 0.5 forward I I I I #
loop $-1 $-1 $357 $89 #
coedge $-1 $227 $227 $358 $359 reversed $142 $-1 #
face $-1 $360 $361 $54 $-1 $362 reversed single #
loop $-1 $-1 $363 $144 #
plane-surface $-1 0 0 -6.6057549146758978 0 0 1 1 0 0 forward_v I I I I #
coedge $-1 $364 $365 $366 $367 forward $145 $-1 #
coedge $-1 $368 $147 $369 $370 reversed $91 $-1 #
coedge $-1 $147 $368 $371 $372 forward $91 $-1 #
coedge $-1 $373 $363 $147 $235 forward $229 $-1 #
edge $-1 $374 -74.609210486159853 $375 74.609210486159853 $147 $376 forward 7 unknown #
face $-1 $377 $378 $55 $-1 $379 reversed single #
loop $-1 $-1 $380 $148 #
plane-surface $-1 -63.685423811058058 -38.817207894015333 0 0 1 0 0 0 1 forward_v I I I I #
coedge $-1 $381 $382 $241 $383 forward $149 $-1 #
coedge $-1 $384 $151 $385 $386 reversed $94 $-1 #
coedge $-1 $151 $384 $239 $383 reversed $94 $-1 #
coedge $-1 $387 $388 $151 $243 reversed $378 $-1 #
edge $-1 $389 -6.6057549146758978 $390 6.6057549146758978 $242 $391 forward 7 unknown #
face $-1 $392 $393 $56 $-1 $394 forward single #
loop $-1 $-1 $395 $152 #
plane-surface $-1 111.25361787906202 -26.292517556948791 208.46438141572855 0 1 0 0.81915205242281985 0 0.57357642473473569 forward_v I I I I #
coedge $-1 $396 $397 $398 $399 reversed $153 $-1 #
coedge $-1 $249 $155 $400 $401 reversed $97 $-1 #
coedge $-1 $155 $248 $396 $402 reversed $97 $-1 #
coedge $-1 $398 $403 $155 $251 forward $393 $-1 #
edge $-1 $404 -18.982401546628843 $405 -14.807681912889031 $250 $406 forward 7 unknown #
loop $-1 $-1 $257 $156 #
plane-surface $-1 -10.978957919706019 -19.515798320278282 122.87621300986271 0.81915205242281985 0 0.57357642473473569 0.57357642473473569 0 -0.81915205242281985 forward_v I I I I #
loop $-1 $-1 $407 $99 #
coedge $-1 $255 $255 $256 $408 reversed $157 $-1 #
coedge $-1 $256 $256 $255 $408 forward $159 $-1 #
coedge $-1 $257 $257 $160 $258 forward $252 $-1 #
edge $-1 $409 0 $409 6.2831853071796004 $257 $410 forward 7 unknown #
loop $-1 $-1 $264 $161 #
plane-surface $-1 -10.978957919706019 -19.515798320278282 122.87621300986271 0.81915205242281985 0 0.57357642473473569 0.57357642473473569 0 -0.81915205242281985 forward_v I I I I #
loop $-1 $-1 $411 $102 #
coedge $-1 $262 $262 $263 $412 reversed $162 $-1 #
coedge $-1 $263 $263 $262 $412 forward $164 $-1 #
coedge $-1 $264 $264 $165 $265 forward $259 $-1 #
edge $-1 $413 0 $413 6.2831853071796004 $264 $414 forward 7 unknown #
loop $-1 $-1 $271 $166 #
plane-surface $-1 -10.978957919706019 -19.515798320278282 122.87621300986271 0.81915205242281985 0 0.57357642473473569 0.57357642473473569 0 -0.81915205242281985 forward_v I I I I #
loop $-1 $-1 $415 $105 #
coedge $-1 $269 $269 $270 $416 reversed $167 $-1 #
coedge $-1 $270 $270 $269 $416 forward $169 $-1 #
coedge $-1 $271 $271 $170 $272 forward $266 $-1 #
edge $-1 $417 0 $417 6.2831853071796004 $271 $418 forward 7 unknown #
face $-1 $419 $420 $60 $-1 $421 reversed single #
loop $-1 $-1 $422 $171 #
plane-surface $-1 111.25361787906202 3.1311725842666362 208.46438141572855 0 1 0 0.81915205242281985 0 0.57357642473473569 forward_v I I I I #
coedge $-1 $423 $424 $425 $426 reversed $172 $-1 #
coedge $-1 $278 $174 $427 $428 reversed $109 $-1 #
coedge $-1 $174 $277 $423 $429 reversed $109 $-1 #
coedge $-1 $425 $430 $174 $280 forward $431 $-1 #
edge $-1 $432 -18.982401546628843 $433 -14.807681912889031 $279 $434 forward 7 unknown #
loop $-1 $-1 $286 $175 #
plane-surface $-1 -10.978957919706019 9.9078918209371452 122.87621300986271 0.81915205242281985 0 0.57357642473473569 0.57357642473473569 0 -0.81915205242281985 forward_v I I I I #
loop $-1 $-1 $435 $111 #
coedge $-1 $284 $284 $285 $436 reversed $176 $-1 #
coedge $-1 $285 $285 $284 $436 forward $178 $-1 #
coedge $-1 $286 $286 $179 $287 forward $281 $-1 #
edge $-1 $437 0 $437 6.2831853071796004 $286 $438 forward 7 unknown #
loop $-1 $-1 $293 $180 #
plane-surface $-1 -10.978957919706019 9.9078918209371452 122.87621300986271 0.81915205242281985 0 0.57357642473473569 0.57357642473473569 0 -0.81915205242281985 forward_v I I I I #
loop $-1 $-1 $439 $114 #
coedge $-1 $291 $291 $292 $440 reversed $181 $-1 #
coedge $-1 $292 $292 $291 $440 forward $183 $-1 #
coedge $-1 $293 $293 $184 $294 forward $288 $-1 #
edge $-1 $441 0 $441 6.2831853071796004 $293 $442 forward 7 unknown #
loop $-1 $-1 $300 $185 #
plane-surface $-1 -10.978957919706019 9.9078918209371452 122.87621300986271 0.81915205242281985 0 0.57357642473473569 0.57357642473473569 0 -0.81915205242281985 forward_v I I I I #
loop $-1 $-1 $443 $117 #
coedge $-1 $298 $298 $299 $444 reversed $186 $-1 #
coedge $-1 $299 $299 $298 $444 forward $188 $-1 #
coedge $-1 $300 $300 $189 $301 forward $295 $-1 #
edge $-1 $445 0 $445 6.2831853071796004 $300 $446 forward 7 unknown #
face $-1 $447 $448 $64 $-1 $449 reversed single #
loop $-1 $-1 $450 $190 #
plane-surface $-1 -196.84178628492788 -12.739079083607773 86.2318056169605 0 -1 0 0.81915205242281985 0 -0.57357642473473569 forward_v I I I I #
coedge $-1 $451 $452 $453 $454 reversed $191 $-1 #
coedge $-1 $307 $193 $455 $456 reversed $121 $-1 #
coedge $-1 $193 $306 $451 $457 reversed $121 $-1 #
coedge $-1 $453 $458 $193 $309 forward $459 $-1 #
edge $-1 $460 23.811682656304086 $461 27.986402290043898 $308 $462 forward 7 unknown #
loop $-1 $-1 $315 $194 #
plane-surface $-1 -74.609210486159839 -19.515798320278282 0.64363721109465644 -0.81915205242281985 0 0.57357642473473569 0.57357642473473569 0 0.81915205242281985 forward_v I I I I #
loop $-1 $-1 $463 $123 #
coedge $-1 $313 $313 $314 $464 reversed $195 $-1 #
coedge $-1 $314 $314 $313 $464 forward $197 $-1 #
coedge $-1 $315 $315 $198 $316 forward $310 $-1 #
edge $-1 $465 0 $465 6.2831853071796004 $315 $466 forward 7 unknown #
loop $-1 $-1 $322 $199 #
plane-surface $-1 -74.609210486159839 -19.515798320278282 0.64363721109465644 -0.81915205242281985 0 0.57357642473473569 0.57357642473473569 0 0.81915205242281985 forward_v I I I I #
loop $-1 $-1 $467 $126 #
coedge $-1 $320 $320 $321 $468 reversed $200 $-1 #
coedge $-1 $321 $321 $320 $468 forward $202 $-1 #
coedge $-1 $322 $322 $203 $323 forward $317 $-1 #
edge $-1 $469 0 $469 6.2831853071796004 $322 $470 forward 7 unknown #
loop $-1 $-1 $329 $204 #
plane-surface $-1 -74.609210486159839 -19.515798320278282 0.64363721109465644 -0.81915205242281985 0 0.57357642473473569 0.57357642473473569 0 0.81915205242281985 forward_v I I I I #
loop $-1 $-1 $471 $129 #
coedge $-1 $327 $327 $328 $472 reversed $205 $-1 #
coedge $-1 $328 $328 $327 $472 forward $207 $-1 #
coedge $-1 $329 $329 $208 $330 forward $324 $-1 #
edge $-1 $473 0 $473 6.2831853071796004 $329 $474 forward 7 unknown #
face $-1 $475 $476 $68 $-1 $477 forward single #
loop $-1 $-1 $478 $209 #
plane-surface $-1 -196.84178628492788 16.684611057607654 86.2318056169605 0 -1 0 0.81915205242281985 0 -0.57357642473473569 forward_v I I I I #
coedge $-1 $479 $480 $481 $482 reversed $210 $-1 #
coedge $-1 $336 $212 $483 $484 reversed $133 $-1 #
coedge $-1 $212 $335 $479 $485 reversed $133 $-1 #
coedge $-1 $481 $486 $212 $338 forward $476 $-1 #
edge $-1 $487 23.811682656304086 $488 27.986402290043898 $337 $489 forward 7 unknown #
loop $-1 $-1 $344 $213 #
plane-surface $-1 -74.609210486159839 9.9078918209371452 0.64363721109465644 -0.81915205242281985 0 0.57357642473473569 0.57357642473473569 0 0.81915205242281985 forward_v I I I I #
loop $-1 $-1 $490 $135 #
coedge $-1 $342 $342 $343 $491 reversed $214 $-1 #
coedge $-1 $343 $343 $342 $491 forward $216 $-1 #
coedge $-1 $344 $344 $217 $345 forward $339 $-1 #
edge $-1 $492 0 $492 6.2831853071796004 $344 $493 forward 7 unknown #
loop $-1 $-1 $351 $218 #
plane-surface $-1 -74.609210486159839 9.9078918209371452 0.64363721109465644 -0.81915205242281985 0 0.57357642473473569 0.57357642473473569 0 0.81915205242281985 forward_v I I I I #
loop $-1 $-1 $494 $138 #
coedge $-1 $349 $349 $350 $495 reversed $219 $-1 #
coedge $-1 $350 $350 $349 $495 forward $221 $-1 #
coedge $-1 $351 $351 $222 $352 forward $346 $-1 #
edge $-1 $496 0 $496 6.2831853071796004 $351 $497 forward 7 unknown #
loop $-1 $-1 $358 $223 #
plane-surface $-1 -74.609210486159839 9.9078918209371452 0.64363721109465644 -0.81915205242281985 0 0.57357642473473569 0.57357642473473569 0 0.81915205242281985 forward_v I I I I #
loop $-1 $-1 $498 $141 #
coedge $-1 $356 $356 $357 $499 reversed $224 $-1 #
coedge $-1 $357 $357 $356 $499 forward $226 $-1 #
coedge $-1 $358 $358 $227 $359 forward $353 $-1 #
edge $-1 $500 0 $500 6.2831853071796004 $358 $501 forward 7 unknown #
face $-1 $502 $503 $54 $-1 $504 reversed single #
loop $-1 $-1 $505 $228 #
plane-surface $-1 -74.609210486159853 0 0 1 0 0 0 0 -1 forward_v I I I I #
coedge $-1 $234 $506 $507 $508 forward $229 $-1 #
coedge $-1 $509 $231 $510 $511 forward $145 $-1 #
coedge $-1 $231 $509 $368 $512 forward $145 $-1 #
coedge $-1 $369 $513 $231 $367 reversed $514 $-1 #
edge $-1 $515 -32.55486272548206 $516 32.55486272548206 $366 $517 forward 7 unknown #
coedge $-1 $233 $232 $365 $512 reversed $91 $-1 #
coedge $-1 $507 $366 $232 $370 forward $514 $-1 #
edge $-1 $515 -6.6057549146758978 $374 6.6057549146758978 $369 $518 forward 7 unknown #
coedge $-1 $519 $520 $233 $372 reversed $361 $-1 #
edge $-1 $521 -6.6057549146758978 $375 6.6057549146758978 $371 $522 forward 7 unknown #
coedge $-1 $506 $234 $520 $523 forward $229 $-1 #
vertex $-1 $370 $524 #
vertex $-1 $523 $525 #
straight-curve $-1 0 -32.55486272548206 -6.6057549146758978 -1 0 0 I I #
face $-1 $526 $527 $55 $-1 $528 reversed single #
loop $-1 $-1 $242 $236 #
plane-surface $-1 -65.255447270636424 -35.686035309748696 0 1 0 0 0 0 -1 forward_v I I I I #
coedge $-1 $529 $530 $531 $532 forward $237 $-1 #
coedge $-1 $533 $239 $534 $535 forward $149 $-1 #
coedge $-1 $239 $533 $387 $536 forward $149 $-1 #
edge $-1 $389 -65.255447270636424 $537 -62.115400351479693 $239 $538 forward 7 unknown #
coedge $-1 $241 $240 $539 $540 forward $94 $-1 #
coedge $-1 $541 $542 $240 $386 forward $543 $-1 #
edge $-1 $544 62.115400351479693 $390 65.255447270636424 $385 $545 forward 7 unknown #
coedge $-1 $531 $242 $382 $536 reversed $378 $-1 #
coedge $-1 $242 $531 $541 $546 reversed $378 $-1 #
vertex $-1 $383 $547 #
vertex $-1 $546 $548 #
straight-curve $-1 -65.255447270636424 -32.55486272548206 0 0 0 1 I I #
face $-1 $-1 $549 $56 $-1 $550 reversed single #
loop $-1 $-1 $250 $244 #
plane-surface $-1 0 0 6.6057549146758978 0 0 1 1 0 0 forward_v I I I I #
coedge $-1 $551 $552 $553 $554 reversed $245 $-1 #
coedge $-1 $555 $247 $249 $402 forward $153 $-1 #
coedge $-1 $247 $555 $551 $556 forward $153 $-1 #
coedge $-1 $553 $250 $247 $399 forward $393 $-1 #
edge $-1 $405 2.9811799234686323 $557 16.534618396809648 $398 $558 forward 7 unknown #
coedge $-1 $559 $560 $248 $401 forward $549 $-1 #
edge $-1 $561 -103.58855349676965 $404 -97.626435793188378 $400 $562 forward 7 unknown #
edge $-1 $405 141.94001925685438 $561 149.21842097231979 $249 $563 forward 7 unknown #
coedge $-1 $250 $553 $559 $564 forward $393 $-1 #
vertex $-1 $251 $565 #
vertex $-1 $251 $566 #
straight-curve $-1 55.62680893953101 -12.739079083607773 6.6057549146758987 -1 0 0 I I #
coedge $-1 $407 $407 $-1 $567 reversed $254 $-1 #
edge $-1 $568 0 $568 6.2831853071796004 $255 $569 forward 7 unknown #
vertex $-1 $258 $570 #
ellipse-curve $-1 72.521850669289933 -23.581829862280586 3.6246960628852589 0.81915205242281985 0 0.57357642473473569 0.57357642473473569 0 -0.81915205242281985 1 I I #
coedge $-1 $411 $411 $-1 $571 reversed $261 $-1 #
edge $-1 $572 0 $572 6.2831853071796004 $262 $573 forward 7 unknown #
vertex $-1 $265 $574 #
ellipse-curve $-1 72.521850669289933 -19.515798320278282 3.6246960628852589 0.81915205242281985 0 0.57357642473473569 0.57357642473473569 0 -0.81915205242281985 1 I I #
coedge $-1 $415 $415 $-1 $575 reversed $268 $-1 #
edge $-1 $576 0 $576 6.2831853071796004 $269 $577 forward 7 unknown #
vertex $-1 $272 $578 #
ellipse-curve $-1 72.521850669289933 -15.449766778275979 3.6246960628852589 0.81915205242281985 0 0.57357642473473569 0.57357642473473569 0 -0.81915205242281985 1 I I #
face $-1 $-1 $431 $60 $-1 $579 forward single #
loop $-1 $-1 $580 $273 #
plane-surface $-1 74.609210486159853 0 0 -1 0 0 0 0 1 forward_v I I I I #
coedge $-1 $581 $582 $583 $584 reversed $274 $-1 #
coedge $-1 $585 $276 $278 $429 forward $172 $-1 #
coedge $-1 $276 $585 $581 $586 forward $172 $-1 #
coedge $-1 $583 $279 $276 $426 forward $431 $-1 #
edge $-1 $433 -11.730665147139081 $587 1.8227733262019363 $425 $588 forward 7 unknown #
coedge $-1 $589 $590 $277 $428 forward $420 $-1 #
edge $-1 $591 -103.58855349676965 $432 -97.626435793188378 $427 $592 forward 7 unknown #
edge $-1 $433 141.94001925685438 $591 149.21842097231979 $278 $593 forward 7 unknown #
coedge $-1 $279 $583 $589 $594 forward $431 $-1 #
loop $-1 $-1 $583 $419 #
vertex $-1 $428 $595 #
vertex $-1 $280 $596 #
straight-curve $-1 55.62680893953101 16.684611057607654 6.6057549146758987 -1 0 0 I I #
coedge $-1 $435 $435 $-1 $597 reversed $283 $-1 #
edge $-1 $598 0 $598 6.2831853071796004 $284 $599 forward 7 unknown #
vertex $-1 $287 $600 #
ellipse-curve $-1 72.521850669289933 5.8418602789348384 3.6246960628852589 0.81915205242281985 0 0.57357642473473569 0.57357642473473569 0 -0.81915205242281985 1 I I #
coedge $-1 $439 $439 $-1 $601 reversed $290 $-1 #
edge $-1 $602 0 $602 6.2831853071796004 $291 $603 forward 7 unknown #
vertex $-1 $294 $604 #
ellipse-curve $-1 72.521850669289933 9.9078918209371452 3.6246960628852589 0.81915205242281985 0 0.57357642473473569 0.57357642473473569 0 -0.81915205242281985 1 I I #
coedge $-1 $443 $443 $-1 $605 reversed $297 $-1 #
edge $-1 $606 0 $606 6.2831853071796004 $298 $607 forward 7 unknown #
vertex $-1 $301 $608 #
ellipse-curve $-1 72.521850669289933 13.973923362939445 3.6246960628852589 0.81915205242281985 0 0.57357642473473569 0.57357642473473569 0 -0.81915205242281985 1 I I #
face $-1 $-1 $459 $64 $-1 $609 forward single #
loop $-1 $-1 $610 $302 #
plane-surface $-1 -74.609210486159853 0 0 1 0 0 0 0 -1 forward_v I I I I #
coedge $-1 $611 $612 $613 $614 reversed $303 $-1 #
coedge $-1 $615 $305 $307 $457 forward $191 $-1 #
coedge $-1 $305 $615 $611 $616 forward $191 $-1 #
coedge $-1 $613 $308 $305 $454 forward $459 $-1 #
edge $-1 $461 -16.534618396809648 $617 -2.9811799234686323 $453 $618 forward 7 unknown #
coedge $-1 $619 $620 $306 $456 forward $448 $-1 #
edge $-1 $621 -42.472265597385615 $460 -36.510147893804351 $455 $622 forward 7 unknown #
edge $-1 $461 -7.2784017154653817 $621 2.4793790127588779e-014 $307 $623 forward 7 unknown #
coedge $-1 $308 $613 $619 $624 forward $459 $-1 #
loop $-1 $-1 $613 $447 #
vertex $-1 $456 $625 #
vertex $-1 $309 $626 #
straight-curve $-1 -98.420893142463939 -26.292517556948791 6.6057549146758987 1 0 0 I I #
coedge $-1 $463 $463 $-1 $627 reversed $312 $-1 #
edge $-1 $628 0 $628 6.2831853071796004 $313 $629 forward 7 unknown #
vertex $-1 $316 $630 #
ellipse-curve $-1 -72.521850669289947 -23.581829862280586 3.6246960628852731 -0.81915205242281985 0 0.57357642473473569 0.57357642473473569 0 0.81915205242281985 1 I I #
coedge $-1 $467 $467 $-1 $631 reversed $319 $-1 #
edge $-1 $632 0 $632 6.2831853071796004 $320 $633 forward 7 unknown #
vertex $-1 $323 $634 #
ellipse-curve $-1 -72.521850669289947 -19.515798320278282 3.6246960628852731 -0.81915205242281985 0 0.57357642473473569 0.57357642473473569 0 0.81915205242281985 1 I I #
coedge $-1 $471 $471 $-1 $635 reversed $326 $-1 #
edge $-1 $636 0 $636 6.2831853071796004 $327 $637 forward 7 unknown #
vertex $-1 $330 $638 #
ellipse-curve $-1 -72.521850669289947 -15.449766778275979 3.6246960628852731 -0.81915205242281985 0 0.57357642473473569 0.57357642473473569 0 0.81915205242281985 1 I I #
face $-1 $-1 $639 $68 $-1 $640 reversed single #
loop $-1 $-1 $337 $331 #
plane-surface $-1 0 0 6.6057549146758978 0 0 1 1 0 0 forward_v I I I I #
coedge $-1 $641 $642 $643 $644 reversed $332 $-1 #
coedge $-1 $645 $334 $336 $485 forward $210 $-1 #
coedge $-1 $334 $645 $641 $646 forward $210 $-1 #
coedge $-1 $643 $337 $334 $482 forward $476 $-1 #
edge $-1 $488 -1.8227733262019363 $647 11.730665147139081 $481 $648 forward 7 unknown #
coedge $-1 $649 $650 $335 $484 forward $639 $-1 #
edge $-1 $651 -42.472265597385615 $487 -36.510147893804351 $483 $652 forward 7 unknown #
edge $-1 $488 -7.2784017154653817 $651 2.4793790127588779e-014 $336 $653 forward 7 unknown #
coedge $-1 $337 $643 $649 $654 forward $476 $-1 #
vertex $-1 $484 $655 #
vertex $-1 $338 $656 #
straight-curve $-1 -98.420893142463939 3.1311725842666362 6.6057549146758987 1 0 0 I I #
coedge $-1 $490 $490 $-1 $657 reversed $341 $-1 #
edge $-1 $658 0 $658 6.2831853071796004 $342 $659 forward 7 unknown #
vertex $-1 $345 $660 #
ellipse-curve $-1 -72.521850669289947 5.8418602789348384 3.6246960628852731 -0.81915205242281985 0 0.57357642473473569 0.57357642473473569 0 0.81915205242281985 1 I I #
coedge $-1 $494 $494 $-1 $661 reversed $348 $-1 #
edge $-1 $662 0 $662 6.2831853071796004 $349 $663 forward 7 unknown #
vertex $-1 $352 $664 #
ellipse-curve $-1 -72.521850669289947 9.9078918209371452 3.6246960628852731 -0.81915205242281985 0 0.57357642473473569 0.57357642473473569 0 0.81915205242281985 1 I I #
coedge $-1 $498 $498 $-1 $665 reversed $355 $-1 #
edge $-1 $666 0 $666 6.2831853071796004 $356 $667 forward 7 unknown #
vertex $-1 $359 $668 #
ellipse-curve $-1 -72.521850669289947 13.973923362939445 3.6246960628852731 -0.81915205242281985 0 0.57357642473473569 0.57357642473473569 0 0.81915205242281985 1 I I #
face $-1 $-1 $514 $54 $-1 $669 reversed single #
loop $-1 $-1 $670 $360 #
plane-surface $-1 0 32.55486272548206 0 0 -1 0 0 0 -1 forward_v I I I I #
coedge $-1 $520 $519 $671 $672 forward $361 $-1 #
coedge $-1 $363 $373 $673 $674 forward $229 $-1 #
coedge $-1 $513 $369 $363 $508 reversed $514 $-1 #
edge $-1 $675 -32.55486272548206 $374 32.55486272548206 $507 $676 forward 7 unknown #
coedge $-1 $365 $364 $519 $677 forward $145 $-1 #
coedge $-1 $670 $671 $364 $511 reversed $503 $-1 #
edge $-1 $516 -74.609210486159853 $678 74.609210486159853 $510 $679 forward 7 unknown #
edge $-1 $521 -74.609210486159853 $515 74.609210486159853 $368 $680 forward 7 unknown #
coedge $-1 $366 $507 $670 $681 reversed $514 $-1 #
loop $-1 $-1 $369 $502 #
vertex $-1 $367 $682 #
vertex $-1 $367 $683 #
straight-curve $-1 74.609210486159853 0 6.6057549146758978 0 1 0 I I #
straight-curve $-1 74.609210486159853 -32.55486272548206 0 0 0 -1 I I #
coedge $-1 $505 $371 $509 $677 reversed $361 $-1 #
coedge $-1 $371 $505 $373 $523 reversed $361 $-1 #
vertex $-1 $677 $684 #
straight-curve $-1 -74.609210486159853 -32.55486272548206 0 0 0 -1 I I #
edge $-1 $375 -32.55486272548206 $685 32.55486272548206 $520 $686 forward 7 unknown #
point $-1 74.609210486159853 -32.55486272548206 -6.6057549146758978 #
point $-1 -74.609210486159853 -32.55486272548206 -6.6057549146758978 #
face $-1 $-1 $543 $55 $-1 $687 forward single #
loop $-1 $-1 $688 $377 #
plane-surface $-1 -62.115400351479693 -35.686035309748696 0 -1 0 0 0 0 1 forward_v I I I I #
coedge $-1 $689 $380 $533 $690 reversed $237 $-1 #
coedge $-1 $380 $689 $691 $692 reversed $237 $-1 #
coedge $-1 $388 $387 $380 $532 reversed $378 $-1 #
edge $-1 $693 -6.6057549146758978 $694 6.6057549146758978 $531 $695 forward 7 unknown #
coedge $-1 $382 $381 $529 $690 forward $149 $-1 #
coedge $-1 $539 $688 $381 $535 reversed $527 $-1 #
edge $-1 $537 -3.1311725842666362 $696 3.1311725842666362 $534 $697 forward 7 unknown #
edge $-1 $694 -3.1311725842666362 $389 3.1311725842666362 $387 $698 forward 7 unknown #
vertex $-1 $535 $699 #
straight-curve $-1 0 -32.55486272548206 -6.6057549146758978 1 0 0 I I #
coedge $-1 $700 $534 $384 $540 reversed $527 $-1 #
edge $-1 $544 -6.6057549146758978 $537 6.6057549146758978 $539 $701 forward 7 unknown #
coedge $-1 $691 $385 $388 $546 forward $543 $-1 #
coedge $-1 $385 $691 $700 $702 forward $543 $-1 #
loop $-1 $-1 $385 $526 #
vertex $-1 $386 $703 #
straight-curve $-1 0 -32.55486272548206 6.6057549146758978 -1 0 0 I I #
edge $-1 $390 -3.1311725842666362 $693 3.1311725842666362 $388 $704 forward 7 unknown #
point $-1 -65.255447270636424 -32.55486272548206 -6.6057549146758978 #
point $-1 -65.255447270636424 -32.55486272548206 6.6057549146758978 #
loop $-1 $-1 $400 $392 #
plane-surface $-1 74.609210486159853 0 0 -1 0 0 0 0 1 forward_v I I I I #
coedge $-1 $552 $395 $397 $556 reversed $245 $-1 #
coedge $-1 $395 $551 $705 $706 reversed $245 $-1 #
coedge $-1 $403 $398 $395 $554 forward $393 $-1 #
edge $-1 $557 14.807681912889031 $707 18.982401546628843 $553 $708 forward 7 unknown #
coedge $-1 $397 $396 $560 $709 reversed $153 $-1 #
edge $-1 $710 -149.21842097231979 $557 -141.94001925685438 $551 $711 forward 7 unknown #
vertex $-1 $399 $712 #
straight-curve $-1 70.434490852420041 -9.7578991601391412 6.6057549146758987 0 -1 0 I I #
coedge $-1 $705 $400 $403 $564 reversed $549 $-1 #
coedge $-1 $400 $705 $555 $709 forward $549 $-1 #
vertex $-1 $401 $713 #
straight-curve $-1 74.609210486159853 -12.739079083607773 104.23219070786428 0 0 1 I I #
straight-curve $-1 -10.978957919706019 -12.739079083607773 122.87621300986271 0.57357642473473569 0 -0.81915205242281985 I I #
edge $-1 $707 -26.292517556948791 $404 -12.739079083607773 $559 $714 forward 7 unknown #
point $-1 74.609210486159853 -12.739079083607773 6.6057549146758978 #
point $-1 70.434490852420041 -12.739079083607773 6.6057549146758845 #
edge $-1 $715 1 $715 0 $407 $-1 forward 7 unknown #
vertex $-1 $408 $716 #
ellipse-curve $-1 70.63532851797973 -23.581829862280586 2.3037390714073629 0.81915205242281985 0 0.57357642473473569 0.57357642473473569 0 -0.81915205242281985 1 I I #
point $-1 73.095427094024728 -23.581829862280586 2.8055440104624743 #
edge $-1 $717 1 $717 0 $411 $-1 forward 7 unknown #
vertex $-1 $412 $718 #
ellipse-curve $-1 70.63532851797973 -19.515798320278282 2.3037390714073629 0.81915205242281985 0 0.57357642473473569 0.57357642473473569 0 -0.81915205242281985 1 I I #
point $-1 73.095427094024728 -19.515798320278282 2.8055440104624743 #
edge $-1 $719 1 $719 0 $415 $-1 forward 7 unknown #
vertex $-1 $416 $720 #
ellipse-curve $-1 70.63532851797973 -15.449766778275979 2.3037390714073629 0.81915205242281985 0 0.57357642473473569 0.57357642473473569 0 -0.81915205242281985 1 I I #
point $-1 73.095427094024728 -15.449766778275979 2.8055440104624743 #
plane-surface $-1 0 0 6.6057549146758978 0 0 1 1 0 0 forward_v I I I I #
coedge $-1 $590 $589 $582 $721 forward $420 $-1 #
coedge $-1 $582 $422 $424 $586 reversed $274 $-1 #
coedge $-1 $422 $581 $580 $721 reversed $274 $-1 #
coedge $-1 $430 $425 $422 $584 forward $431 $-1 #
edge $-1 $587 14.807681912889031 $722 18.982401546628843 $583 $723 forward 7 unknown #
coedge $-1 $424 $423 $590 $724 reversed $172 $-1 #
edge $-1 $725 -149.21842097231979 $587 -141.94001925685438 $581 $726 forward 7 unknown #
vertex $-1 $426 $727 #
straight-curve $-1 70.434490852420041 4.9539459104685726 6.6057549146758987 0 -1 0 I I #
coedge $-1 $580 $427 $430 $594 reversed $420 $-1 #
coedge $-1 $427 $580 $585 $724 forward $420 $-1 #
vertex $-1 $428 $728 #
straight-curve $-1 74.609210486159853 16.684611057607654 104.23219070786428 0 0 1 I I #
straight-curve $-1 -10.978957919706019 16.684611057607654 122.87621300986271 0.57357642473473569 0 -0.81915205242281985 I I #
edge $-1 $722 3.1311725842666362 $432 16.684611057607654 $589 $729 forward 7 unknown #
point $-1 74.609210486159853 16.684611057607654 6.6057549146758978 #
point $-1 70.434490852420041 16.684611057607654 6.6057549146758845 #
edge $-1 $730 1 $730 0 $435 $-1 forward 7 unknown #
vertex $-1 $436 $731 #
ellipse-curve $-1 70.63532851797973 5.8418602789348384 2.3037390714073629 0.81915205242281985 0 0.57357642473473569 0.57357642473473569 0 -0.81915205242281985 1 I I #
point $-1 73.095427094024728 5.8418602789348384 2.8055440104624743 #
edge $-1 $732 1 $732 0 $439 $-1 forward 7 unknown #
vertex $-1 $440 $733 #
ellipse-curve $-1 70.63532851797973 9.9078918209371452 2.3037390714073629 0.81915205242281985 0 0.57357642473473569 0.57357642473473569 0 -0.81915205242281985 1 I I #
point $-1 73.095427094024728 9.9078918209371452 2.8055440104624743 #
edge $-1 $734 1 $734 0 $443 $-1 forward 7 unknown #
vertex $-1 $444 $735 #
ellipse-curve $-1 70.63532851797973 13.973923362939445 2.3037390714073629 0.81915205242281985 0 0.57357642473473569 0.57357642473473569 0 -0.81915205242281985 1 I I #
point $-1 73.095427094024728 13.973923362939445 2.8055440104624743 #
plane-surface $-1 0 0 6.6057549146758978 0 0 1 1 0 0 forward_v I I I I #
coedge $-1 $620 $619 $612 $736 forward $448 $-1 #
coedge $-1 $612 $450 $452 $616 reversed $303 $-1 #
coedge $-1 $450 $611 $610 $736 reversed $303 $-1 #
coedge $-1 $458 $453 $450 $614 forward $459 $-1 #
edge $-1 $617 -27.986402290043898 $737 -23.811682656304086 $613 $738 forward 7 unknown #
coedge $-1 $452 $451 $620 $739 reversed $191 $-1 #
edge $-1 $740 -2.4793790127588779e-014 $617 7.2784017154653817 $611 $741 forward 7 unknown #
vertex $-1 $454 $742 #
straight-curve $-1 -70.434490852420041 -9.7578991601391412 6.6057549146759005 0 1 0 I I #
coedge $-1 $610 $455 $458 $624 reversed $448 $-1 #
coedge $-1 $455 $610 $615 $739 forward $448 $-1 #
vertex $-1 $456 $743 #
straight-curve $-1 -74.609210486159853 -26.292517556948791 43.11590280848025 0 0 1 I I #
straight-curve $-1 -74.609210486159839 -26.292517556948791 0.64363721109465644 -0.57357642473473569 0 -0.81915205242281985 I I #
edge $-1 $737 12.739079083607773 $460 26.292517556948791 $619 $744 forward 7 unknown #
point $-1 -74.609210486159853 -26.292517556948791 6.6057549146758978 #
point $-1 -70.434490852420041 -26.292517556948791 6.6057549146758978 #
edge $-1 $745 1 $745 0 $463 $-1 forward 7 unknown #
vertex $-1 $464 $746 #
ellipse-curve $-1 -70.635328517979701 -23.581829862280586 2.3037390714073558 -0.81915205242281985 0 0.57357642473473569 0.57357642473473569 0 0.81915205242281985 1 I I #
point $-1 -71.948274244555222 -23.581829862280586 4.4438481153081071 #
edge $-1 $747 1 $747 0 $467 $-1 forward 7 unknown #
vertex $-1 $468 $748 #
ellipse-curve $-1 -70.635328517979701 -19.515798320278282 2.3037390714073558 -0.81915205242281985 0 0.57357642473473569 0.57357642473473569 0 0.81915205242281985 1 I I #
point $-1 -71.948274244555222 -19.515798320278282 4.4438481153081071 #
edge $-1 $749 1 $749 0 $471 $-1 forward 7 unknown #
vertex $-1 $472 $750 #
ellipse-curve $-1 -70.635328517979701 -15.449766778275979 2.3037390714073558 -0.81915205242281985 0 0.57357642473473569 0.57357642473473569 0 0.81915205242281985 1 I I #
point $-1 -71.948274244555222 -15.449766778275979 4.4438481153081071 #
loop $-1 $-1 $483 $475 #
plane-surface $-1 -74.609210486159853 0 0 1 0 0 0 0 -1 forward_v I I I I #
coedge $-1 $642 $478 $480 $646 reversed $332 $-1 #
coedge $-1 $478 $641 $751 $752 reversed $332 $-1 #
coedge $-1 $486 $481 $478 $644 forward $476 $-1 #
edge $-1 $647 -27.986402290043898 $753 -23.811682656304086 $643 $754 forward 7 unknown #
coedge $-1 $480 $479 $650 $755 reversed $210 $-1 #
edge $-1 $756 -2.4793790127588779e-014 $647 7.2784017154653817 $641 $757 forward 7 unknown #
vertex $-1 $482 $758 #
straight-curve $-1 -70.434490852420041 4.9539459104685726 6.6057549146759005 0 1 0 I I #
coedge $-1 $751 $483 $486 $654 reversed $639 $-1 #
coedge $-1 $483 $751 $645 $755 forward $639 $-1 #
vertex $-1 $484 $759 #
straight-curve $-1 -74.609210486159853 3.1311725842666362 43.11590280848025 0 0 1 I I #
straight-curve $-1 -74.609210486159839 3.1311725842666362 0.64363721109465644 -0.57357642473473569 0 -0.81915205242281985 I I #
edge $-1 $753 -16.684611057607654 $487 -3.1311725842666362 $649 $760 forward 7 unknown #
point $-1 -74.609210486159853 3.1311725842666362 6.6057549146758978 #
point $-1 -70.434490852420041 3.1311725842666362 6.6057549146758978 #
edge $-1 $761 1 $761 0 $490 $-1 forward 7 unknown #
vertex $-1 $491 $762 #
ellipse-curve $-1 -70.635328517979701 5.8418602789348384 2.3037390714073558 -0.81915205242281985 0 0.57357642473473569 0.57357642473473569 0 0.81915205242281985 1 I I #
point $-1 -71.948274244555222 5.8418602789348384 4.4438481153081071 #
edge $-1 $763 1 $763 0 $494 $-1 forward 7 unknown #
vertex $-1 $495 $764 #
ellipse-curve $-1 -70.635328517979701 9.9078918209371452 2.3037390714073558 -0.81915205242281985 0 0.57357642473473569 0.57357642473473569 0 0.81915205242281985 1 I I #
point $-1 -71.948274244555222 9.9078918209371452 4.4438481153081071 #
edge $-1 $765 1 $765 0 $498 $-1 forward 7 unknown #
vertex $-1 $499 $766 #
ellipse-curve $-1 -70.635328517979701 13.973923362939445 2.3037390714073558 -0.81915205242281985 0 0.57357642473473569 0.57357642473473569 0 0.81915205242281985 1 I I #
point $-1 -71.948274244555222 13.973923362939445 4.4438481153081071 #
plane-surface $-1 74.609210486159853 0 0 -1 0 0 0 0 1 forward_v I I I I #
coedge $-1 $673 $510 $513 $681 forward $503 $-1 #
coedge $-1 $510 $673 $505 $672 reversed $503 $-1 #
edge $-1 $678 -6.6057549146758978 $685 6.6057549146758978 $671 $767 forward 7 unknown #
coedge $-1 $671 $670 $506 $674 reversed $503 $-1 #
edge $-1 $685 -74.609210486159853 $675 74.609210486159853 $673 $768 forward 7 unknown #
vertex $-1 $508 $769 #
straight-curve $-1 74.609210486159853 0 -6.6057549146758978 0 -1 0 I I #
edge $-1 $678 -32.55486272548206 $521 32.55486272548206 $519 $770 forward 7 unknown #
vertex $-1 $511 $771 #
straight-curve $-1 0 32.55486272548206 6.6057549146758978 -1 0 0 I I #
straight-curve $-1 0 -32.55486272548206 6.6057549146758978 1 0 0 I I #
edge $-1 $516 -6.6057549146758978 $675 6.6057549146758978 $513 $772 forward 7 unknown #
point $-1 74.609210486159853 -32.55486272548206 6.6057549146758978 #
point $-1 74.609210486159853 32.55486272548206 6.6057549146758978 #
point $-1 -74.609210486159853 -32.55486272548206 6.6057549146758978 #
vertex $-1 $674 $773 #
straight-curve $-1 -74.609210486159853 0 -6.6057549146758978 0 1 0 I I #
plane-surface $-1 0 0 6.6057549146758978 0 0 1 1 0 0 forward_v I I I I #
coedge $-1 $534 $700 $689 $774 forward $527 $-1 #
coedge $-1 $530 $529 $688 $774 reversed $237 $-1 #
edge $-1 $696 -1.5700234595783655 $694 1.5700234595783655 $529 $775 forward 7 unknown #
coedge $-1 $542 $541 $530 $692 forward $543 $-1 #
edge $-1 $693 -1.5700234595783655 $776 1.5700234595783655 $530 $777 forward 7 unknown #
vertex $-1 $546 $778 #
vertex $-1 $536 $779 #
straight-curve $-1 -65.255447270636424 -38.817207894015333 0 0 0 -1 I I #
vertex $-1 $774 $780 #
straight-curve $-1 -62.115400351479693 -35.686035309748696 -6.6057549146758978 0 -1 0 I I #
straight-curve $-1 -65.255447270636424 -35.686035309748696 -6.6057549146758978 0 1 0 I I #
point $-1 -62.115400351479693 -32.55486272548206 -6.6057549146758978 #
coedge $-1 $688 $539 $542 $702 reversed $527 $-1 #
straight-curve $-1 -62.115400351479693 -32.55486272548206 0 0 0 -1 I I #
edge $-1 $776 -3.1311725842666362 $544 3.1311725842666362 $700 $781 forward 7 unknown #
point $-1 -62.115400351479693 -32.55486272548206 6.6057549146758978 #
straight-curve $-1 -65.255447270636424 -35.686035309748696 6.6057549146758978 0 -1 0 I I #
coedge $-1 $560 $559 $552 $706 forward $549 $-1 #
edge $-1 $707 97.626435793188378 $710 103.58855349676965 $705 $782 forward 7 unknown #
vertex $-1 $564 $783 #
straight-curve $-1 55.62680893953101 -26.292517556948791 6.6057549146758987 1 0 0 I I #
edge $-1 $710 -16.534618396809648 $561 -2.9811799234686323 $560 $784 forward 7 unknown #
vertex $-1 $709 $785 #
straight-curve $-1 -10.978957919706019 -26.292517556948791 122.87621300986271 -0.57357642473473569 0 0.81915205242281985 I I #
point $-1 70.434490852420041 -26.292517556948791 6.6057549146758845 #
point $-1 74.609210486159853 -12.739079083607773 0.64363721109462801 #
straight-curve $-1 74.609210486159853 0 6.6057549146758978 0 1 0 I I #
vertex $-1 $567 $786 #
point $-1 71.208904942714469 -23.581829862280586 1.4845870189845431 #
vertex $-1 $571 $787 #
point $-1 71.208904942714469 -19.515798320278282 1.4845870189845431 #
vertex $-1 $575 $788 #
point $-1 71.208904942714469 -15.449766778275979 1.4845870189845431 #
edge $-1 $722 97.626435793188378 $725 103.58855349676965 $580 $789 forward 7 unknown #
vertex $-1 $594 $790 #
straight-curve $-1 55.62680893953101 3.1311725842666362 6.6057549146758987 1 0 0 I I #
edge $-1 $725 -1.8227733262019363 $591 11.730665147139081 $590 $791 forward 7 unknown #
vertex $-1 $724 $792 #
straight-curve $-1 -10.978957919706019 3.1311725842666362 122.87621300986271 -0.57357642473473569 0 0.81915205242281985 I I #
point $-1 70.434490852420041 3.1311725842666362 6.6057549146758845 #
point $-1 74.609210486159853 16.684611057607654 0.64363721109462801 #
straight-curve $-1 74.609210486159853 0 6.6057549146758978 0 1 0 I I #
vertex $-1 $597 $793 #
point $-1 71.208904942714469 5.8418602789348384 1.4845870189845431 #
vertex $-1 $601 $794 #
point $-1 71.208904942714469 9.9078918209371452 1.4845870189845431 #
vertex $-1 $605 $795 #
point $-1 71.208904942714469 13.973923362939445 1.4845870189845431 #
edge $-1 $737 36.510147893804351 $740 42.472265597385615 $610 $796 forward 7 unknown #
vertex $-1 $624 $797 #
straight-curve $-1 -98.420893142463939 -12.739079083607773 6.6057549146758987 -1 0 0 I I #
edge $-1 $740 2.9811799234686323 $621 16.534618396809648 $620 $798 forward 7 unknown #
vertex $-1 $739 $799 #
straight-curve $-1 -74.609210486159839 -12.739079083607773 0.64363721109465644 0.57357642473473569 0 0.81915205242281985 I I #
point $-1 -70.434490852420041 -12.739079083607773 6.6057549146758978 #
point $-1 -74.609210486159853 -26.292517556948791 0.64363721109463612 #
straight-curve $-1 -74.609210486159853 0 6.6057549146758978 0 -1 0 I I #
vertex $-1 $627 $800 #
point $-1 -70.061752093244962 -23.581829862280586 3.1228911238301755 #
vertex $-1 $631 $801 #
point $-1 -70.061752093244962 -19.515798320278282 3.1228911238301755 #
vertex $-1 $635 $802 #
point $-1 -70.061752093244962 -15.449766778275979 3.1228911238301755 #
coedge $-1 $650 $649 $642 $752 forward $639 $-1 #
edge $-1 $753 36.510147893804351 $756 42.472265597385615 $751 $803 forward 7 unknown #
vertex $-1 $654 $804 #
straight-curve $-1 -98.420893142463939 16.684611057607654 6.6057549146758987 -1 0 0 I I #
edge $-1 $756 -11.730665147139081 $651 1.8227733262019363 $650 $805 forward 7 unknown #
vertex $-1 $755 $806 #
straight-curve $-1 -74.609210486159839 16.684611057607654 0.64363721109465644 0.57357642473473569 0 0.81915205242281985 I I #
point $-1 -70.434490852420041 16.684611057607654 6.6057549146758978 #
point $-1 -74.609210486159853 3.1311725842666362 0.64363721109463612 #
straight-curve $-1 -74.609210486159853 0 6.6057549146758978 0 -1 0 I I #
vertex $-1 $657 $807 #
point $-1 -70.061752093244962 5.8418602789348384 3.1228911238301755 #
vertex $-1 $661 $808 #
point $-1 -70.061752093244962 9.9078918209371452 3.1228911238301755 #
vertex $-1 $665 $809 #
point $-1 -70.061752093244962 13.973923362939445 3.1228911238301755 #
straight-curve $-1 -74.609210486159853 32.55486272548206 0 0 0 -1 I I #
straight-curve $-1 0 32.55486272548206 -6.6057549146758978 1 0 0 I I #
point $-1 74.609210486159853 32.55486272548206 -6.6057549146758978 #
straight-curve $-1 -74.609210486159853 0 6.6057549146758978 0 -1 0 I I #
point $-1 -74.609210486159853 32.55486272548206 6.6057549146758978 #
straight-curve $-1 74.609210486159853 32.55486272548206 0 0 0 -1 I I #
point $-1 -74.609210486159853 32.55486272548206 -6.6057549146758978 #
edge $-1 $776 -6.6057549146758978 $696 6.6057549146758978 $688 $810 forward 7 unknown #
straight-curve $-1 -63.685423811058058 -38.817207894015333 -6.6057549146758978 -1 0 0 I I #
vertex $-1 $702 $811 #
straight-curve $-1 -63.685423811058058 -38.817207894015333 6.6057549146758978 1 0 0 I I #
point $-1 -65.255447270636424 -38.817207894015333 6.6057549146758978 #
point $-1 -65.255447270636424 -38.817207894015333 -6.6057549146758978 #
point $-1 -62.115400351479693 -38.817207894015333 -6.6057549146758978 #
straight-curve $-1 -62.115400351479693 -35.686035309748696 6.6057549146758978 0 1 0 I I #
straight-curve $-1 74.609210486159853 -26.292517556948791 104.23219070786428 0 0 -1 I I #
point $-1 74.609210486159853 -26.292517556948791 6.6057549146758978 #
straight-curve $-1 74.609210486159853 -9.7578991601391412 0.64363721109462801 0 1 0 I I #
point $-1 74.609210486159853 -26.292517556948791 0.64363721109462801 #
point $-1 69.816176465556907 -23.581829862280586 1.7301626466726274 #
point $-1 69.816176465556907 -19.515798320278282 1.7301626466726274 #
point $-1 69.816176465556907 -15.449766778275979 1.7301626466726274 #
straight-curve $-1 74.609210486159853 3.1311725842666362 104.23219070786428 0 0 -1 I I #
point $-1 74.609210486159853 3.1311725842666362 6.6057549146758978 #
straight-curve $-1 74.609210486159853 4.9539459104685726 0.64363721109462801 0 1 0 I I #
point $-1 74.609210486159853 3.1311725842666362 0.64363721109462801 #
point $-1 69.816176465556907 5.8418602789348384 1.7301626466726274 #
point $-1 69.816176465556907 9.9078918209371452 1.7301626466726274 #
point $-1 69.816176465556907 13.973923362939445 1.7301626466726274 #
straight-curve $-1 -74.609210486159853 -12.739079083607773 43.11590280848025 0 0 -1 I I #
point $-1 -74.609210486159853 -12.739079083607773 6.6057549146758978 #
straight-curve $-1 -74.609210486159853 -9.7578991601391412 0.64363721109462813 0 -1 0 I I #
point $-1 -74.609210486159853 -12.739079083607773 0.64363721109463612 #
point $-1 -69.816176465556879 -23.581829862280586 1.7301626466726203 #
point $-1 -69.816176465556879 -19.515798320278282 1.7301626466726203 #
point $-1 -69.816176465556879 -15.449766778275979 1.7301626466726203 #
straight-curve $-1 -74.609210486159853 16.684611057607654 43.11590280848025 0 0 -1 I I #
point $-1 -74.609210486159853 16.684611057607654 6.6057549146758978 #
straight-curve $-1 -74.609210486159853 4.9539459104685726 0.64363721109462813 0 -1 0 I I #
point $-1 -74.609210486159853 16.684611057607654 0.64363721109463612 #
point $-1 -69.816176465556879 5.8418602789348384 1.7301626466726203 #
point $-1 -69.816176465556879 9.9078918209371452 1.7301626466726203 #
point $-1 -69.816176465556879 13.973923362939445 1.7301626466726203 #
straight-curve $-1 -62.115400351479693 -38.817207894015333 0 0 0 -1 I I #
point $-1 -62.115400351479693 -38.817207894015333 6.6057549146758978 #
End-of-ACIS-data 