500 0 7 0           
7 Unknown 11 ACIS 5.0 NT 24 Thu Mar 25 22:28:06 1999 
-1 9.9999999999999995e-007 1e-010 
body $-1 $7 $-1 $8 #
body $-1 $9 $-1 $10 #
body $-1 $11 $-1 $12 #
body $-1 $13 $-1 $14 #
body $-1 $15 $-1 $16 #
body $-1 $17 $-1 $18 #
body $-1 $19 $-1 $20 #
lump $-1 $-1 $21 $0 #
transform $-1 1 0 0 0 1 0 0 0 1 69.021881771294289 44.259568127614671 20.385308456128442 1 rotate no_reflect no_shear #
lump $-1 $-1 $22 $1 #
transform $-1 1 0 0 0 1 0 0 0 1 69.021881771294289 44.259568127614671 20.385308456128442 1 rotate no_reflect no_shear #
lump $-1 $-1 $23 $2 #
transform $-1 1 0 0 0 1 0 0 0 1 69.021881771294289 44.259568127614671 20.385308456128442 1 rotate no_reflect no_shear #
lump $-1 $-1 $24 $3 #
transform $-1 1 0 0 0 1 0 0 0 1 69.021881771294289 44.259568127614671 20.385308456128442 1 rotate no_reflect no_shear #
lump $-1 $-1 $25 $4 #
transform $-1 1 0 0 0 1 0 0 0 1 69.021881771294289 44.259568127614671 20.385308456128442 1 rotate no_reflect no_shear #
lump $-1 $-1 $26 $5 #
transform $-1 1 0 0 0 1 0 0 0 1 69.021881771294289 44.259568127614671 20.385308456128442 1 rotate no_reflect no_shear #
lump $-1 $-1 $27 $6 #
transform $-1 1 0 0 0 1 0 0 0 1 69.021881771294289 44.259568127614671 20.385308456128442 1 rotate no_reflect no_shear #
shell $-1 $-1 $-1 $28 $-1 $7 #
shell $-1 $-1 $-1 $29 $-1 $9 #
shell $-1 $-1 $-1 $30 $-1 $11 #
shell $-1 $-1 $-1 $31 $-1 $13 #
shell $-1 $-1 $-1 $32 $-1 $15 #
shell $-1 $-1 $-1 $33 $-1 $17 #
shell $-1 $-1 $-1 $34 $-1 $19 #
face $-1 $35 $36 $21 $-1 $37 forward single #
face $-1 $38 $39 $22 $-1 $40 forward single #
face $-1 $41 $42 $23 $-1 $43 reversed single #
face $-1 $44 $45 $24 $-1 $46 reversed single #
face $-1 $47 $48 $25 $-1 $49 forward single #
face $-1 $50 $51 $26 $-1 $52 forward single #
face $-1 $53 $54 $27 $-1 $55 forward single #
face $-1 $56 $57 $21 $-1 $58 reversed single #
loop $-1 $-1 $59 $28 #
plane-surface $-1 0 0 20.385308456128442 0 0 1 1 0 0 forward_v I I I I #
face $-1 $60 $61 $22 $-1 $62 reversed single #
loop $-1 $-1 $63 $29 #
plane-surface $-1 -57.232993251888288 0 5.4188893297783682 0 0 1 1 0 0 forward_v I I I I #
face $-1 $64 $65 $23 $-1 $66 reversed single #
loop $-1 $-1 $67 $30 #
plane-surface $-1 61.108696596762144 0 8.3318034903364548 0 0 1 1 0 0 forward_v I I I I #
face $-1 $68 $69 $24 $-1 $70 reversed single #
loop $-1 $-1 $71 $31 #
plane-surface $-1 -40.096697824421639 -9.0125769411686889 73.580847192803418 0 0.79863551827123203 0.60181501223851219 1 0 0 forward_v I I I I #
face $-1 $72 $73 $25 $-1 $74 forward single #
loop $-1 $75 $76 $32 #
cone-surface $-1 -43.305141969258031 36.075551893510983 10.437060974924776 0 -0.79863551827123203 -0.60181501223851219 1 0 0 1 I I 0 1 1 forward I I I I #
face $-1 $77 $78 $26 $-1 $79 forward single #
loop $-1 $80 $81 $33 #
cone-surface $-1 -40.096697824421639 36.075551893510983 10.437060974924776 0 -0.79863551827123203 -0.60181501223851219 1 0 0 1 I I 0 1 1 forward I I I I #
face $-1 $82 $83 $27 $-1 $84 forward single #
loop $-1 $85 $86 $34 #
cone-surface $-1 -36.888253679585254 36.075551893510983 10.437060974924776 0 -0.79863551827123203 -0.60181501223851219 1 0 0 1 I I 0 1 1 forward I I I I #
face $-1 $87 $88 $21 $-1 $89 reversed single #
loop $-1 $-1 $90 $35 #
plane-surface $-1 0 0 -20.385308456128442 0 0 1 1 0 0 forward_v I I I I #
coedge $-1 $91 $92 $93 $94 forward $36 $-1 #
face $-1 $95 $96 $22 $-1 $97 reversed single #
loop $-1 $-1 $98 $38 #
plane-surface $-1 -57.232993251888288 0 -3.4264196264136206 0 0 1 1 0 0 forward_v I I I I #
coedge $-1 $99 $100 $101 $102 forward $39 $-1 #
face $-1 $103 $104 $23 $-1 $105 reversed single #
loop $-1 $-1 $106 $41 #
plane-surface $-1 53.195511422229998 0 14.358555973232448 1 0 0 0 0 -1 forward_v I I I I #
coedge $-1 $107 $108 $109 $110 reversed $42 $-1 #
face $-1 $111 $112 $24 $-1 $113 forward single #
loop $-1 $-1 $114 $44 #
plane-surface $-1 -34.749290916360991 101.23407569977795 156.65765643863665 -1 0 0 0 0.79863551827123203 0.60181501223851219 forward_v I I I I #
coedge $-1 $115 $116 $117 $118 reversed $45 $-1 #
face $-1 $-1 $119 $25 $-1 $120 forward single #
loop $-1 $121 $122 $47 #
cone-surface $-1 -43.305141969258031 34.085434173308258 8.9373997493228288 0 -0.79863551827123203 -0.60181501223851219 0.5 0 0 1 I I -0.70710678118654746 0.70710678118654746 0.5 forward I I I I #
loop $-1 $-1 $123 $32 #
coedge $-1 $76 $76 $124 $125 reversed $48 $-1 #
face $-1 $-1 $126 $26 $-1 $127 forward single #
loop $-1 $128 $129 $50 #
cone-surface $-1 -40.096697824421639 34.085434173308258 8.9373997493228288 0 -0.79863551827123203 -0.60181501223851219 0.5 0 0 1 I I -0.70710678118654746 0.70710678118654746 0.5 forward I I I I #
loop $-1 $-1 $130 $33 #
coedge $-1 $81 $81 $131 $132 reversed $51 $-1 #
face $-1 $-1 $133 $27 $-1 $134 forward single #
loop $-1 $135 $136 $53 #
cone-surface $-1 -36.888253679585254 34.085434173308258 8.9373997493228288 0 -0.79863551827123203 -0.60181501223851219 0.5 0 0 1 I I -0.70710678118654746 0.70710678118654746 0.5 forward I I I I #
loop $-1 $-1 $137 $34 #
coedge $-1 $86 $86 $138 $139 reversed $54 $-1 #
face $-1 $140 $141 $21 $-1 $142 reversed single #
loop $-1 $-1 $143 $56 #
plane-surface $-1 0 -44.259568127614671 0 0 1 0 0 0 1 forward_v I I I I #
coedge $-1 $144 $145 $146 $147 forward $57 $-1 #
coedge $-1 $148 $59 $149 $150 forward $36 $-1 #
coedge $-1 $59 $148 $151 $152 forward $36 $-1 #
coedge $-1 $153 $154 $59 $94 reversed $155 $-1 #
edge $-1 $156 -44.259568127614671 $157 44.259568127614671 $93 $158 forward 7 unknown #
face $-1 $159 $160 $22 $-1 $161 reversed single #
loop $-1 $-1 $101 $60 #
plane-surface $-1 -45.444104732482288 0 0.9962348516823738 -1 0 0 0 0 1 forward_v I I I I #
coedge $-1 $162 $163 $164 $165 forward $61 $-1 #
coedge $-1 $166 $63 $167 $168 reversed $39 $-1 #
coedge $-1 $63 $166 $169 $170 reversed $39 $-1 #
coedge $-1 $171 $172 $63 $102 reversed $96 $-1 #
edge $-1 $173 -44.259568127614671 $174 44.259568127614671 $101 $175 forward 7 unknown #
face $-1 $176 $177 $23 $-1 $178 reversed single #
loop $-1 $-1 $179 $64 #
plane-surface $-1 0 -44.259568127614671 0 0 1 0 0 0 1 forward_v I I I I #
coedge $-1 $180 $181 $182 $183 reversed $65 $-1 #
coedge $-1 $184 $67 $185 $186 reversed $42 $-1 #
coedge $-1 $67 $184 $187 $188 reversed $42 $-1 #
coedge $-1 $189 $190 $67 $110 forward $177 $-1 #
edge $-1 $191 -44.259568127614671 $192 44.259568127614671 $109 $193 forward 7 unknown #
face $-1 $194 $195 $24 $-1 $196 reversed single #
loop $-1 $-1 $197 $68 #
plane-surface $-1 0 0 20.385308456128442 0 0 1 1 0 0 forward_v I I I I #
coedge $-1 $198 $199 $200 $201 reversed $69 $-1 #
coedge $-1 $202 $71 $203 $204 forward $45 $-1 #
coedge $-1 $71 $202 $198 $205 forward $45 $-1 #
coedge $-1 $200 $197 $71 $118 forward $112 $-1 #
edge $-1 $206 -25.395755820271468 $207 -14.700942004150171 $117 $208 forward 7 unknown #
loop $-1 $-1 $124 $72 #
plane-surface $-1 -40.096697824421639 -9.0125769411686889 73.580847192803418 0 0.79863551827123203 0.60181501223851219 1 0 0 forward_v I I I I #
loop $-1 $-1 $209 $47 #
coedge $-1 $122 $122 $123 $210 reversed $73 $-1 #
coedge $-1 $123 $123 $122 $210 forward $75 $-1 #
coedge $-1 $124 $124 $76 $125 forward $119 $-1 #
edge $-1 $211 1.358158094167149e-015 $211 6.2831853071796022 $124 $212 forward 7 unknown #
loop $-1 $-1 $131 $77 #
plane-surface $-1 -40.096697824421639 -9.0125769411686889 73.580847192803418 0 0.79863551827123203 0.60181501223851219 1 0 0 forward_v I I I I #
loop $-1 $-1 $213 $50 #
coedge $-1 $129 $129 $130 $214 reversed $78 $-1 #
coedge $-1 $130 $130 $129 $214 forward $80 $-1 #
coedge $-1 $131 $131 $81 $132 forward $126 $-1 #
edge $-1 $215 1.358158094167149e-015 $215 6.2831853071796022 $131 $216 forward 7 unknown #
loop $-1 $-1 $138 $82 #
plane-surface $-1 -40.096697824421639 -9.0125769411686889 73.580847192803418 0 0.79863551827123203 0.60181501223851219 1 0 0 forward_v I I I I #
loop $-1 $-1 $217 $53 #
coedge $-1 $136 $136 $137 $218 reversed $83 $-1 #
coedge $-1 $137 $137 $136 $218 forward $85 $-1 #
coedge $-1 $138 $138 $86 $139 forward $133 $-1 #
edge $-1 $219 1.358158094167149e-015 $219 6.2831853071796022 $138 $220 forward 7 unknown #
face $-1 $221 $222 $21 $-1 $223 reversed single #
loop $-1 $-1 $224 $87 #
plane-surface $-1 -69.021881771294289 0 0 1 0 0 0 0 -1 forward_v I I I I #
coedge $-1 $225 $151 $226 $227 forward $88 $-1 #
coedge $-1 $228 $90 $225 $229 forward $57 $-1 #
coedge $-1 $90 $228 $230 $231 forward $57 $-1 #
coedge $-1 $154 $153 $90 $147 reversed $155 $-1 #
edge $-1 $232 -44.259568127614671 $233 44.259568127614671 $146 $234 forward 7 unknown #
coedge $-1 $92 $91 $235 $236 forward $36 $-1 #
coedge $-1 $237 $238 $91 $150 reversed $222 $-1 #
edge $-1 $157 -69.021881771294289 $239 69.021881771294289 $149 $240 forward 7 unknown #
coedge $-1 $143 $241 $92 $152 reversed $88 $-1 #
edge $-1 $242 -69.021881771294289 $156 69.021881771294289 $151 $243 forward 7 unknown #
coedge $-1 $146 $93 $241 $244 forward $155 $-1 #
coedge $-1 $93 $146 $237 $245 reversed $155 $-1 #
loop $-1 $-1 $153 $221 #
vertex $-1 $94 $246 #
vertex $-1 $94 $247 #
straight-curve $-1 69.021881771294289 0 20.385308456128442 0 1 0 I I #
face $-1 $248 $249 $22 $-1 $250 reversed single #
loop $-1 $-1 $251 $95 #
plane-surface $-1 0 -44.259568127614671 0 0 1 0 0 0 1 forward_v I I I I #
coedge $-1 $252 $98 $251 $253 reversed $61 $-1 #
coedge $-1 $98 $252 $254 $255 reversed $61 $-1 #
coedge $-1 $172 $171 $98 $165 reversed $96 $-1 #
edge $-1 $256 -44.259568127614671 $257 44.259568127614671 $164 $258 forward 7 unknown #
coedge $-1 $100 $99 $259 $260 reversed $39 $-1 #
coedge $-1 $261 $262 $99 $168 forward $263 $-1 #
edge $-1 $264 -40.405385145350145 $174 -16.827608106538143 $167 $265 forward 7 unknown #
coedge $-1 $266 $267 $100 $170 forward $160 $-1 #
edge $-1 $173 16.827608106538143 $268 40.405385145350145 $169 $269 forward 7 unknown #
coedge $-1 $164 $101 $267 $270 reversed $96 $-1 #
coedge $-1 $101 $164 $261 $271 reversed $96 $-1 #
vertex $-1 $170 $272 #
vertex $-1 $168 $273 #
straight-curve $-1 -45.444104732482288 0 5.4188893297783682 0 1 0 I I #
face $-1 $274 $275 $23 $-1 $276 forward single #
loop $-1 $-1 $109 $103 #
plane-surface $-1 69.021881771294289 0 0 -1 0 0 0 0 1 forward_v I I I I #
coedge $-1 $185 $277 $278 $279 forward $104 $-1 #
coedge $-1 $278 $106 $184 $280 reversed $65 $-1 #
coedge $-1 $106 $278 $281 $282 reversed $65 $-1 #
coedge $-1 $283 $187 $106 $183 forward $284 $-1 #
edge $-1 $285 1.1525255037202307 $286 13.206030469512218 $182 $287 forward 7 unknown #
coedge $-1 $108 $107 $180 $280 forward $42 $-1 #
coedge $-1 $288 $179 $107 $186 forward $104 $-1 #
edge $-1 $289 22.641163123848926 $191 38.467533472913217 $185 $290 forward 7 unknown #
coedge $-1 $182 $291 $108 $188 forward $284 $-1 #
edge $-1 $192 -38.467533472913217 $285 -22.641163123848926 $187 $292 forward 7 unknown #
coedge $-1 $293 $109 $291 $294 reversed $177 $-1 #
coedge $-1 $109 $293 $288 $295 forward $177 $-1 #
vertex $-1 $110 $296 #
vertex $-1 $110 $297 #
straight-curve $-1 69.021881771294289 0 8.3318034903364548 0 1 0 I I #
face $-1 $-1 $298 $24 $-1 $299 forward single #
loop $-1 $-1 $300 $111 #
plane-surface $-1 0 44.259568127614671 0 0 -1 0 0 0 -1 forward_v I I I I #
coedge $-1 $117 $301 $302 $303 forward $112 $-1 #
coedge $-1 $199 $114 $116 $205 reversed $69 $-1 #
coedge $-1 $114 $198 $304 $305 reversed $69 $-1 #
coedge $-1 $301 $117 $114 $201 forward $112 $-1 #
edge $-1 $207 -19.543902268347431 $306 -6.3574697222743026 $200 $307 forward 7 unknown #
coedge $-1 $116 $115 $308 $309 reversed $45 $-1 #
coedge $-1 $302 $310 $115 $204 reversed $298 $-1 #
edge $-1 $206 66.608030221126157 $311 88.519136255229313 $203 $312 forward 7 unknown #
edge $-1 $313 -88.519136255229313 $207 -66.608030221126157 $198 $314 forward 7 unknown #
vertex $-1 $303 $315 #
vertex $-1 $118 $316 #
straight-curve $-1 -20.04834891221082 31.073135581541543 20.385308456128442 1 0 0 I I #
coedge $-1 $209 $209 $-1 $317 reversed $121 $-1 #
edge $-1 $318 0 $318 6.2831853071796004 $122 $319 forward 7 unknown #
vertex $-1 $125 $320 #
ellipse-curve $-1 -43.305141969258031 37.66635185457811 11.635814694407484 0 0.79863551827123203 0.60181501223851219 1 0 0 1 I I #
coedge $-1 $213 $213 $-1 $321 reversed $128 $-1 #
edge $-1 $322 0 $322 6.2831853071796004 $129 $323 forward 7 unknown #
vertex $-1 $132 $324 #
ellipse-curve $-1 -40.096697824421639 37.66635185457811 11.635814694407484 0 0.79863551827123203 0.60181501223851219 1 0 0 1 I I #
coedge $-1 $217 $217 $-1 $325 reversed $135 $-1 #
edge $-1 $326 0 $326 6.2831853071796004 $136 $327 forward 7 unknown #
vertex $-1 $139 $328 #
ellipse-curve $-1 -36.888253679585254 37.66635185457811 11.635814694407484 0 0.79863551827123203 0.60181501223851219 1 0 0 1 I I #
face $-1 $-1 $155 $21 $-1 $329 reversed single #
loop $-1 $-1 $237 $140 #
plane-surface $-1 0 44.259568127614671 0 0 -1 0 0 0 -1 forward_v I I I I #
coedge $-1 $330 $235 $238 $331 forward $141 $-1 #
coedge $-1 $241 $143 $144 $229 reversed $88 $-1 #
coedge $-1 $235 $330 $143 $227 reversed $141 $-1 #
edge $-1 $242 -20.385308456128442 $332 20.385308456128442 $226 $333 forward 7 unknown #
coedge $-1 $145 $144 $330 $334 forward $57 $-1 #
edge $-1 $233 -69.021881771294289 $332 69.021881771294289 $225 $335 forward 7 unknown #
coedge $-1 $238 $237 $145 $231 reversed $222 $-1 #
edge $-1 $336 -69.021881771294289 $232 69.021881771294289 $230 $337 forward 7 unknown #
vertex $-1 $147 $338 #
vertex $-1 $244 $339 #
straight-curve $-1 69.021881771294289 0 -20.385308456128442 0 -1 0 I I #
coedge $-1 $224 $226 $148 $236 reversed $141 $-1 #
edge $-1 $239 -44.259568127614671 $242 44.259568127614671 $235 $340 forward 7 unknown #
coedge $-1 $230 $149 $154 $245 forward $222 $-1 #
coedge $-1 $149 $230 $224 $331 reversed $222 $-1 #
vertex $-1 $150 $341 #
straight-curve $-1 0 44.259568127614671 20.385308456128442 -1 0 0 I I #
coedge $-1 $151 $225 $153 $244 reversed $88 $-1 #
vertex $-1 $236 $342 #
straight-curve $-1 0 -44.259568127614671 20.385308456128442 1 0 0 I I #
edge $-1 $156 -20.385308456128442 $233 20.385308456128442 $153 $343 forward 7 unknown #
edge $-1 $157 -20.385308456128442 $232 20.385308456128442 $154 $344 forward 7 unknown #
point $-1 69.021881771294289 -44.259568127614671 20.385308456128442 #
point $-1 69.021881771294289 44.259568127614671 20.385308456128442 #
face $-1 $-1 $263 $22 $-1 $345 reversed single #
loop $-1 $-1 $346 $159 #
plane-surface $-1 -69.021881771294289 0 0 1 0 0 0 0 -1 forward_v I I I I #
coedge $-1 $267 $266 $162 $253 forward $160 $-1 #
coedge $-1 $163 $162 $346 $347 reversed $61 $-1 #
edge $-1 $348 -40.405385145350145 $257 -16.827608106538143 $251 $349 forward 7 unknown #
coedge $-1 $262 $261 $163 $255 forward $263 $-1 #
edge $-1 $256 16.827608106538143 $350 40.405385145350145 $254 $351 forward 7 unknown #
vertex $-1 $255 $352 #
vertex $-1 $253 $353 #
straight-curve $-1 -45.444104732482288 0 -3.4264196264136206 0 -1 0 I I #
coedge $-1 $354 $355 $166 $260 forward $249 $-1 #
edge $-1 $268 -44.259568127614671 $264 44.259568127614671 $259 $356 forward 7 unknown #
coedge $-1 $254 $167 $172 $271 forward $263 $-1 #
coedge $-1 $167 $254 $354 $357 reversed $263 $-1 #
loop $-1 $-1 $254 $248 #
vertex $-1 $357 $358 #
straight-curve $-1 -28.616496625944144 44.259568127614671 5.4188893297783682 1 0 0 I I #
coedge $-1 $251 $169 $355 $359 forward $160 $-1 #
coedge $-1 $169 $251 $171 $270 forward $160 $-1 #
vertex $-1 $359 $360 #
straight-curve $-1 -28.616496625944144 -44.259568127614671 5.4188893297783682 -1 0 0 I I #
edge $-1 $257 -3.9245370522548075 $173 4.9207719039371813 $267 $361 forward 7 unknown #
edge $-1 $174 -4.9207719039371813 $256 3.9245370522548075 $261 $362 forward 7 unknown #
point $-1 -45.444104732482288 -44.259568127614671 5.4188893297783682 #
point $-1 -45.444104732482288 44.259568127614671 5.4188893297783682 #
face $-1 $-1 $284 $23 $-1 $363 reversed single #
loop $-1 $-1 $281 $176 #
plane-surface $-1 0 0 20.385308456128442 0 0 1 1 0 0 forward_v I I I I #
coedge $-1 $179 $288 $364 $365 reversed $104 $-1 #
coedge $-1 $181 $180 $179 $279 reversed $65 $-1 #
edge $-1 $366 -13.206030469512218 $289 -1.1525255037202307 $179 $367 forward 7 unknown #
edge $-1 $289 -44.259568127614671 $285 44.259568127614671 $180 $368 forward 7 unknown #
coedge $-1 $364 $369 $181 $282 forward $275 $-1 #
edge $-1 $286 -44.259568127614671 $366 44.259568127614671 $281 $370 forward 7 unknown #
coedge $-1 $291 $182 $369 $371 reversed $284 $-1 #
loop $-1 $-1 $182 $274 #
vertex $-1 $188 $372 #
vertex $-1 $183 $373 #
straight-curve $-1 53.195511422229998 44.259568127614671 7.1792779866162242 0 0 1 I I #
coedge $-1 $277 $185 $190 $295 reversed $104 $-1 #
vertex $-1 $186 $374 #
straight-curve $-1 30.554348298381072 -44.259568127614671 8.3318034903364548 1 0 0 I I #
coedge $-1 $187 $283 $189 $294 forward $284 $-1 #
straight-curve $-1 30.554348298381072 44.259568127614671 8.3318034903364548 -1 0 0 I I #
coedge $-1 $190 $189 $375 $376 reversed $177 $-1 #
edge $-1 $377 -20.385308456128442 $192 -8.3318034903364548 $189 $378 forward 7 unknown #
edge $-1 $379 -20.385308456128442 $191 -8.3318034903364548 $190 $380 forward 7 unknown #
point $-1 69.021881771294289 -44.259568127614671 8.3318034903364548 #
point $-1 69.021881771294289 44.259568127614671 8.3318034903364548 #
loop $-1 $-1 $203 $194 #
plane-surface $-1 -45.444104732482288 0 0.9962348516823738 -1 0 0 0 0 1 forward_v I I I I #
coedge $-1 $381 $308 $310 $382 forward $195 $-1 #
coedge $-1 $197 $200 $381 $383 forward $112 $-1 #
coedge $-1 $310 $203 $197 $303 reversed $298 $-1 #
edge $-1 $384 6.3574697222743026 $206 19.543902268347431 $197 $385 forward 7 unknown #
coedge $-1 $308 $381 $199 $305 forward $195 $-1 #
edge $-1 $306 57.943519763189883 $313 75.442507286631781 $304 $386 forward 7 unknown #
vertex $-1 $383 $387 #
straight-curve $-1 -34.749290916360991 50.617037849888973 20.385308456128442 0 1 0 I I #
coedge $-1 $300 $304 $202 $309 forward $195 $-1 #
edge $-1 $313 14.700942004150171 $311 25.395755820271468 $308 $388 forward 7 unknown #
coedge $-1 $203 $302 $300 $382 reversed $298 $-1 #
vertex $-1 $382 $389 #
straight-curve $-1 -45.444104732482288 -9.0125769411686889 73.580847192803418 0 0.60181501223851219 -0.79863551827123203 I I #
vertex $-1 $309 $390 #
straight-curve $-1 -34.749290916360991 -9.0125769411686889 73.580847192803418 0 -0.60181501223851219 0.79863551827123203 I I #
point $-1 -45.444104732482288 31.073135581541543 20.385308456128442 #
point $-1 -34.749290916360991 31.073135581541543 20.385308456128442 #
edge $-1 $391 1 $391 0 $209 $-1 forward 7 unknown #
vertex $-1 $210 $392 #
ellipse-curve $-1 -43.305141969258031 34.484751932443871 9.2383072554420842 0 0.79863551827123203 0.60181501223851219 1 0 0 1 I I #
point $-1 -42.305141969258031 37.666351854578089 11.635814694407467 #
edge $-1 $393 1 $393 0 $213 $-1 forward 7 unknown #
vertex $-1 $214 $394 #
ellipse-curve $-1 -40.096697824421639 34.484751932443871 9.2383072554420842 0 0.79863551827123203 0.60181501223851219 1 0 0 1 I I #
point $-1 -39.096697824421639 37.666351854578089 11.635814694407467 #
edge $-1 $395 1 $395 0 $217 $-1 forward 7 unknown #
vertex $-1 $218 $396 #
ellipse-curve $-1 -36.888253679585254 34.484751932443871 9.2383072554420842 0 0.79863551827123203 0.60181501223851219 1 0 0 1 I I #
point $-1 -35.888253679585254 37.666351854578089 11.635814694407467 #
plane-surface $-1 69.021881771294289 0 0 -1 0 0 0 0 1 forward_v I I I I #
coedge $-1 $226 $224 $228 $334 reversed $141 $-1 #
edge $-1 $239 -20.385308456128442 $336 20.385308456128442 $238 $397 forward 7 unknown #
vertex $-1 $334 $398 #
straight-curve $-1 -69.021881771294289 -44.259568127614671 0 0 0 -1 I I #
edge $-1 $332 -44.259568127614671 $336 44.259568127614671 $330 $399 forward 7 unknown #
straight-curve $-1 0 -44.259568127614671 -20.385308456128442 -1 0 0 I I #
vertex $-1 $231 $400 #
straight-curve $-1 0 44.259568127614671 -20.385308456128442 1 0 0 I I #
point $-1 69.021881771294289 44.259568127614671 -20.385308456128442 #
point $-1 69.021881771294289 -44.259568127614671 -20.385308456128442 #
straight-curve $-1 -69.021881771294289 0 20.385308456128442 0 -1 0 I I #
point $-1 -69.021881771294289 44.259568127614671 20.385308456128442 #
point $-1 -69.021881771294289 -44.259568127614671 20.385308456128442 #
straight-curve $-1 69.021881771294289 -44.259568127614671 0 0 0 -1 I I #
straight-curve $-1 69.021881771294289 44.259568127614671 0 0 0 -1 I I #
plane-surface $-1 0 44.259568127614671 0 0 -1 0 0 0 -1 forward_v I I I I #
coedge $-1 $355 $354 $252 $347 forward $249 $-1 #
edge $-1 $350 -44.259568127614671 $348 44.259568127614671 $346 $401 forward 7 unknown #
vertex $-1 $253 $402 #
straight-curve $-1 -28.616496625944144 -44.259568127614671 -3.4264196264136206 1 0 0 I I #
vertex $-1 $255 $403 #
straight-curve $-1 -28.616496625944144 44.259568127614671 -3.4264196264136206 -1 0 0 I I #
point $-1 -45.444104732482288 44.259568127614671 -3.4264196264136206 #
point $-1 -45.444104732482288 -44.259568127614671 -3.4264196264136206 #
coedge $-1 $346 $259 $262 $357 forward $249 $-1 #
coedge $-1 $259 $346 $266 $359 reversed $249 $-1 #
straight-curve $-1 -69.021881771294289 0 5.4188893297783682 0 1 0 I I #
edge $-1 $264 -5.4188893297783682 $350 3.4264196264136206 $262 $404 forward 7 unknown #
point $-1 -69.021881771294289 44.259568127614671 5.4188893297783682 #
edge $-1 $268 -5.4188893297783682 $348 3.4264196264136206 $355 $405 forward 7 unknown #
point $-1 -69.021881771294289 -44.259568127614671 5.4188893297783682 #
straight-curve $-1 -45.444104732482288 -44.259568127614671 0.4981174258411869 0 0 1 I I #
straight-curve $-1 -45.444104732482288 44.259568127614671 0.4981174258411869 0 0 -1 I I #
plane-surface $-1 0 44.259568127614671 0 0 -1 0 0 0 -1 forward_v I I I I #
coedge $-1 $375 $281 $277 $365 forward $275 $-1 #
edge $-1 $366 53.195511422229998 $379 69.021881771294289 $277 $406 forward 7 unknown #
vertex $-1 $365 $407 #
straight-curve $-1 53.195511422229998 -44.259568127614671 7.1792779866162242 0 0 -1 I I #
straight-curve $-1 53.195511422229998 0 8.3318034903364548 0 1 0 I I #
coedge $-1 $281 $375 $283 $371 forward $275 $-1 #
straight-curve $-1 53.195511422229998 0 20.385308456128442 0 -1 0 I I #
edge $-1 $377 -69.021881771294289 $286 -53.195511422229998 $283 $408 forward 7 unknown #
point $-1 53.195511422229998 44.259568127614671 8.3318034903364548 #
point $-1 53.195511422229998 44.259568127614671 20.385308456128442 #
point $-1 53.195511422229998 -44.259568127614671 8.3318034903364548 #
coedge $-1 $369 $364 $293 $376 forward $275 $-1 #
edge $-1 $379 -44.259568127614671 $377 44.259568127614671 $293 $409 forward 7 unknown #
vertex $-1 $376 $410 #
straight-curve $-1 69.021881771294289 44.259568127614671 0 0 0 -1 I I #
vertex $-1 $376 $411 #
straight-curve $-1 69.021881771294289 -44.259568127614671 0 0 0 -1 I I #
coedge $-1 $304 $300 $301 $383 reversed $195 $-1 #
edge $-1 $311 -75.442507286631781 $384 -57.943519763189883 $300 $412 forward 7 unknown #
edge $-1 $306 34.749290916360991 $384 45.444104732482288 $381 $413 forward 7 unknown #
vertex $-1 $382 $414 #
straight-curve $-1 -45.444104732482288 50.617037849888973 20.385308456128442 0 -1 0 I I #
straight-curve $-1 -34.749290916360991 44.259568127614671 78.328828219318325 0 0 -1 I I #
point $-1 -34.749290916360991 44.259568127614671 20.385308456128442 #
straight-curve $-1 -20.04834891221082 44.259568127614671 2.8863209326865444 -1 0 0 I I #
point $-1 -45.444104732482288 44.259568127614671 2.8863209326865444 #
point $-1 -34.749290916360991 44.259568127614671 2.8863209326865444 #
vertex $-1 $317 $415 #
point $-1 -42.305141969258031 34.484751932443871 9.2383072554420842 #
vertex $-1 $321 $416 #
point $-1 -39.096697824421639 34.484751932443871 9.2383072554420842 #
vertex $-1 $325 $417 #
point $-1 -35.888253679585254 34.484751932443871 9.2383072554420842 #
straight-curve $-1 -69.021881771294289 44.259568127614671 0 0 0 -1 I I #
point $-1 -69.021881771294289 -44.259568127614671 -20.385308456128442 #
straight-curve $-1 -69.021881771294289 0 -20.385308456128442 0 1 0 I I #
point $-1 -69.021881771294289 44.259568127614671 -20.385308456128442 #
straight-curve $-1 -69.021881771294289 0 -3.4264196264136206 0 -1 0 I I #
point $-1 -69.021881771294289 -44.259568127614671 -3.4264196264136206 #
point $-1 -69.021881771294289 44.259568127614671 -3.4264196264136206 #
straight-curve $-1 -69.021881771294289 44.259568127614671 0 0 0 -1 I I #
straight-curve $-1 -69.021881771294289 -44.259568127614671 0 0 0 -1 I I #
straight-curve $-1 0 -44.259568127614671 20.385308456128442 1 0 0 I I #
point $-1 53.195511422229998 -44.259568127614671 20.385308456128442 #
straight-curve $-1 0 44.259568127614671 20.385308456128442 -1 0 0 I I #
straight-curve $-1 69.021881771294289 0 20.385308456128442 0 1 0 I I #
point $-1 69.021881771294289 44.259568127614671 20.385308456128442 #
point $-1 69.021881771294289 -44.259568127614671 20.385308456128442 #
straight-curve $-1 -45.444104732482288 44.259568127614671 78.328828219318325 0 0 1 I I #
straight-curve $-1 0 44.259568127614671 20.385308456128442 -1 0 0 I I #
point $-1 -45.444104732482288 44.259568127614671 20.385308456128442 #
point $-1 -43.305141969258031 33.686116414172645 8.6364922432035733 #
point $-1 -40.096697824421639 33.686116414172645 8.6364922432035733 #
point $-1 -36.888253679585254 33.686116414172645 8.6364922432035733 #
End-of-ACIS-data 