500 0 4 0           
7 Unknown 11 ACIS 5.0 NT 24 Thu Mar 25 18:25:52 1999 
-1 9.9999999999999995e-007 1e-010 
body $-1 $4 $-1 $5 #
body $-1 $6 $-1 $7 #
body $-1 $8 $-1 $9 #
body $-1 $10 $-1 $11 #
lump $-1 $-1 $12 $0 #
transform $-1 1 0 0 0 1 0 0 0 1 60.693990905484171 40.353066770574827 17.295156685463997 1 rotate no_reflect no_shear #
lump $-1 $-1 $13 $1 #
transform $-1 1 0 0 0 1 0 0 0 1 60.693990905484171 40.353066770574827 17.295156685463997 1 rotate no_reflect no_shear #
lump $-1 $-1 $14 $2 #
transform $-1 1 0 0 0 1 0 0 0 1 60.693990905484171 40.353066770574827 17.295156685463997 1 rotate no_reflect no_shear #
lump $-1 $-1 $15 $3 #
transform $-1 1 0 0 0 1 0 0 0 1 60.693990905484171 40.353066770574827 17.295156685463997 1 rotate no_reflect no_shear #
shell $-1 $-1 $-1 $16 $-1 $4 #
shell $-1 $-1 $-1 $17 $-1 $6 #
shell $-1 $-1 $-1 $18 $-1 $8 #
shell $-1 $-1 $-1 $19 $-1 $10 #
face $-1 $20 $21 $12 $-1 $22 forward single #
face $-1 $23 $24 $13 $-1 $25 reversed single #
face $-1 $26 $27 $14 $-1 $28 reversed single #
face $-1 $29 $30 $15 $-1 $31 forward single #
face $-1 $32 $33 $12 $-1 $34 reversed single #
loop $-1 $-1 $35 $16 #
plane-surface $-1 0 0 17.295156685463997 0 0 1 1 0 0 forward_v I I I I #
face $-1 $36 $37 $13 $-1 $38 reversed single #
loop $-1 $-1 $39 $17 #
plane-surface $-1 -53.559869408775064 0 11.383651334169716 0 0 1 1 0 0 forward_v I I I I #
face $-1 $40 $41 $14 $-1 $42 reversed single #
loop $-1 $-1 $43 $18 #
plane-surface $-1 -12.575479376512803 -124.67624539930019 92.62333830619859 -1 0 0 0 -0.69465837861970381 0.71933979245794832 forward_v I I I I #
face $-1 $44 $45 $15 $-1 $46 forward single #
loop $-1 $47 $48 $19 #
cone-surface $-1 -18.961897595056612 -32.712752243738272 9.8169928734398226 0 0.69465837861970381 -0.71933979245794832 2 0 0 1 I I 0 1 2 forward I I I I #
face $-1 $49 $50 $12 $-1 $51 reversed single #
loop $-1 $-1 $52 $20 #
plane-surface $-1 0 0 -17.295156685463997 0 0 1 1 0 0 forward_v I I I I #
coedge $-1 $53 $54 $55 $56 forward $21 $-1 #
face $-1 $57 $58 $13 $-1 $59 reversed single #
loop $-1 $-1 $60 $23 #
plane-surface $-1 -46.425747912065958 0 14.339404009816857 -1 0 0 0 0 1 forward_v I I I I #
coedge $-1 $61 $62 $63 $64 forward $24 $-1 #
face $-1 $65 $66 $14 $-1 $67 reversed single #
loop $-1 $-1 $68 $26 #
plane-surface $-1 -18.961897595056612 -40.353066770574827 5.3041326634074153 0 -0.69465837861970381 0.71933979245794832 1 0 0 forward_v I I I I #
coedge $-1 $69 $70 $71 $72 reversed $27 $-1 #
face $-1 $-1 $73 $15 $-1 $74 forward single #
loop $-1 $75 $76 $29 #
cone-surface $-1 -18.961897595056612 -30.586313631443254 7.6150012799859788 0 0.69465837861970381 -0.71933979245794832 1 0 0 1 I I -0.70710678118654746 0.70710678118654746 1 forward I I I I #
loop $-1 $-1 $77 $19 #
coedge $-1 $48 $48 $78 $79 reversed $30 $-1 #
face $-1 $80 $81 $12 $-1 $82 reversed single #
loop $-1 $-1 $83 $32 #
plane-surface $-1 0 -40.353066770574827 0 0 1 0 0 0 1 forward_v I I I I #
coedge $-1 $84 $85 $86 $87 forward $33 $-1 #
coedge $-1 $88 $35 $89 $90 forward $21 $-1 #
coedge $-1 $35 $88 $91 $92 forward $21 $-1 #
coedge $-1 $93 $94 $35 $56 reversed $95 $-1 #
edge $-1 $96 -40.353066770574827 $97 40.353066770574827 $55 $98 forward 7 unknown #
face $-1 $99 $100 $13 $-1 $101 reversed single #
loop $-1 $-1 $102 $36 #
plane-surface $-1 0 40.353066770574827 0 0 -1 0 0 0 -1 forward_v I I I I #
coedge $-1 $63 $103 $104 $105 reversed $37 $-1 #
coedge $-1 $106 $39 $107 $108 reversed $24 $-1 #
coedge $-1 $39 $106 $109 $110 reversed $24 $-1 #
coedge $-1 $111 $60 $39 $64 reversed $37 $-1 #
edge $-1 $112 -40.353066770574827 $113 40.353066770574827 $63 $114 forward 7 unknown #
face $-1 $115 $116 $14 $-1 $117 reversed single #
loop $-1 $-1 $118 $40 #
plane-surface $-1 -25.348315813600422 -124.67624539930019 92.62333830619859 1 0 0 0 0.69465837861970381 -0.71933979245794832 forward_v I I I I #
coedge $-1 $119 $120 $121 $122 reversed $41 $-1 #
coedge $-1 $70 $43 $123 $124 reversed $27 $-1 #
coedge $-1 $43 $69 $119 $125 reversed $27 $-1 #
coedge $-1 $121 $126 $43 $72 forward $127 $-1 #
edge $-1 $128 21.985055929075266 $129 34.40212451539778 $71 $130 forward 7 unknown #
loop $-1 $-1 $78 $44 #
plane-surface $-1 -18.961897595056612 -40.353066770574827 5.3041326634074153 0 -0.69465837861970381 0.71933979245794832 1 0 0 forward_v I I I I #
loop $-1 $-1 $131 $29 #
coedge $-1 $76 $76 $77 $132 reversed $45 $-1 #
coedge $-1 $77 $77 $76 $132 forward $47 $-1 #
coedge $-1 $78 $78 $48 $79 forward $73 $-1 #
edge $-1 $133 -7.9235257406443392e-016 $133 6.2831853071795996 $78 $134 forward 7 unknown #
face $-1 $135 $136 $12 $-1 $137 reversed single #
loop $-1 $-1 $138 $49 #
plane-surface $-1 -60.693990905484171 0 0 1 0 0 0 0 -1 forward_v I I I I #
coedge $-1 $139 $91 $140 $141 forward $50 $-1 #
coedge $-1 $142 $52 $139 $143 forward $33 $-1 #
coedge $-1 $52 $142 $144 $145 forward $33 $-1 #
coedge $-1 $94 $93 $52 $87 reversed $95 $-1 #
edge $-1 $146 -40.353066770574827 $147 40.353066770574827 $86 $148 forward 7 unknown #
coedge $-1 $54 $53 $149 $150 forward $21 $-1 #
coedge $-1 $151 $152 $53 $90 reversed $136 $-1 #
edge $-1 $97 -60.693990905484171 $153 60.693990905484171 $89 $154 forward 7 unknown #
coedge $-1 $83 $155 $54 $92 reversed $50 $-1 #
edge $-1 $156 -60.693990905484171 $96 60.693990905484171 $91 $157 forward 7 unknown #
coedge $-1 $86 $55 $155 $158 forward $95 $-1 #
coedge $-1 $55 $86 $151 $159 reversed $95 $-1 #
loop $-1 $-1 $93 $135 #
vertex $-1 $56 $160 #
vertex $-1 $56 $161 #
straight-curve $-1 60.693990905484171 0 17.295156685463997 0 1 0 I I #
face $-1 $162 $163 $13 $-1 $164 forward single #
loop $-1 $-1 $165 $57 #
plane-surface $-1 -60.693990905484171 0 0 1 0 0 0 0 -1 forward_v I I I I #
coedge $-1 $109 $166 $111 $167 forward $58 $-1 #
coedge $-1 $60 $111 $168 $169 reversed $37 $-1 #
coedge $-1 $170 $107 $60 $105 forward $171 $-1 #
edge $-1 $113 4.213949329261288 $172 10.125454680555569 $104 $173 forward 7 unknown #
coedge $-1 $62 $61 $165 $174 reversed $24 $-1 #
coedge $-1 $104 $175 $61 $108 forward $171 $-1 #
edge $-1 $176 -33.914056201096642 $113 -19.645813207678426 $107 $177 forward 7 unknown #
coedge $-1 $178 $102 $62 $110 forward $58 $-1 #
edge $-1 $112 19.645813207678426 $179 33.914056201096642 $109 $180 forward 7 unknown #
coedge $-1 $103 $63 $102 $167 reversed $37 $-1 #
vertex $-1 $110 $181 #
vertex $-1 $108 $182 #
straight-curve $-1 -46.425747912065958 0 11.383651334169716 0 -1 0 I I #
face $-1 $-1 $127 $14 $-1 $183 forward single #
loop $-1 $-1 $184 $65 #
plane-surface $-1 0 -40.353066770574827 0 0 1 0 0 0 1 forward_v I I I I #
coedge $-1 $185 $186 $187 $188 reversed $66 $-1 #
coedge $-1 $189 $68 $70 $125 forward $41 $-1 #
coedge $-1 $68 $189 $185 $190 forward $41 $-1 #
coedge $-1 $187 $71 $68 $122 forward $127 $-1 #
edge $-1 $129 3.0945305789844966 $191 15.867367016072116 $121 $192 forward 7 unknown #
coedge $-1 $193 $194 $69 $124 forward $116 $-1 #
edge $-1 $195 -41.00753648969188 $128 -29.016512467635298 $123 $196 forward 7 unknown #
edge $-1 $129 -17.261756844973092 $195 0 $70 $197 forward 7 unknown #
coedge $-1 $71 $187 $193 $198 forward $127 $-1 #
loop $-1 $-1 $187 $115 #
vertex $-1 $124 $199 #
vertex $-1 $72 $200 #
straight-curve $-1 -12.575479376512803 -62.338122699650093 17.295156685463994 0 1 0 I I #
coedge $-1 $131 $131 $-1 $201 reversed $75 $-1 #
edge $-1 $202 0 $202 6.2831853071796004 $76 $203 forward 7 unknown #
vertex $-1 $79 $204 #
ellipse-curve $-1 -18.961897595056612 -34.14453247741357 11.299644674435704 0 -0.69465837861970381 0.71933979245794832 2 0 0 1 I I #
face $-1 $-1 $95 $12 $-1 $205 reversed single #
loop $-1 $-1 $151 $80 #
plane-surface $-1 0 40.353066770574827 0 0 -1 0 0 0 -1 forward_v I I I I #
coedge $-1 $206 $149 $152 $207 forward $81 $-1 #
coedge $-1 $155 $83 $84 $143 reversed $50 $-1 #
coedge $-1 $149 $206 $83 $141 reversed $81 $-1 #
edge $-1 $156 -17.295156685463997 $208 17.295156685463997 $140 $209 forward 7 unknown #
coedge $-1 $85 $84 $206 $210 forward $33 $-1 #
edge $-1 $147 -60.693990905484171 $208 60.693990905484171 $139 $211 forward 7 unknown #
coedge $-1 $152 $151 $85 $145 reversed $136 $-1 #
edge $-1 $212 -60.693990905484171 $146 60.693990905484171 $144 $213 forward 7 unknown #
vertex $-1 $87 $214 #
vertex $-1 $158 $215 #
straight-curve $-1 60.693990905484171 0 -17.295156685463997 0 -1 0 I I #
coedge $-1 $138 $140 $88 $150 reversed $81 $-1 #
edge $-1 $153 -40.353066770574827 $156 40.353066770574827 $149 $216 forward 7 unknown #
coedge $-1 $144 $89 $94 $159 forward $136 $-1 #
coedge $-1 $89 $144 $138 $207 reversed $136 $-1 #
vertex $-1 $90 $217 #
straight-curve $-1 0 40.353066770574827 17.295156685463997 -1 0 0 I I #
coedge $-1 $91 $139 $93 $158 reversed $50 $-1 #
vertex $-1 $150 $218 #
straight-curve $-1 0 -40.353066770574827 17.295156685463997 1 0 0 I I #
edge $-1 $96 -17.295156685463997 $147 17.295156685463997 $93 $219 forward 7 unknown #
edge $-1 $97 -17.295156685463997 $146 17.295156685463997 $94 $220 forward 7 unknown #
point $-1 60.693990905484171 -40.353066770574827 17.295156685463997 #
point $-1 60.693990905484171 40.353066770574827 17.295156685463997 #
face $-1 $-1 $171 $13 $-1 $221 reversed single #
loop $-1 $-1 $168 $99 #
plane-surface $-1 0 0 17.295156685463997 0 0 1 1 0 0 forward_v I I I I #
coedge $-1 $222 $223 $106 $174 forward $100 $-1 #
coedge $-1 $102 $178 $224 $225 reversed $58 $-1 #
edge $-1 $226 -10.125454680555569 $112 -4.213949329261288 $102 $227 forward 7 unknown #
coedge $-1 $224 $228 $103 $169 forward $163 $-1 #
edge $-1 $172 -40.353066770574827 $226 40.353066770574827 $168 $229 forward 7 unknown #
coedge $-1 $175 $104 $228 $230 reversed $171 $-1 #
loop $-1 $-1 $104 $162 #
vertex $-1 $105 $231 #
straight-curve $-1 -46.425747912065958 -40.353066770574827 7.1697020049084283 0 0 1 I I #
edge $-1 $179 -40.353066770574827 $176 40.353066770574827 $165 $232 forward 7 unknown #
coedge $-1 $107 $170 $222 $233 forward $171 $-1 #
vertex $-1 $174 $234 #
straight-curve $-1 -26.779934704387532 -40.353066770574827 11.383651334169716 1 0 0 I I #
coedge $-1 $166 $109 $223 $235 reversed $58 $-1 #
vertex $-1 $174 $236 #
straight-curve $-1 -26.779934704387532 40.353066770574827 11.383651334169716 -1 0 0 I I #
point $-1 -46.425747912065958 40.353066770574827 11.383651334169716 #
point $-1 -46.425747912065958 -40.353066770574827 11.383651334169716 #
plane-surface $-1 0 0 17.295156685463997 0 0 1 1 0 0 forward_v I I I I #
coedge $-1 $194 $193 $186 $237 forward $116 $-1 #
coedge $-1 $186 $118 $120 $190 reversed $66 $-1 #
coedge $-1 $118 $185 $184 $237 reversed $66 $-1 #
coedge $-1 $126 $121 $118 $188 forward $127 $-1 #
edge $-1 $191 -34.40212451539778 $238 -21.985055929075266 $187 $239 forward 7 unknown #
coedge $-1 $120 $119 $194 $240 reversed $41 $-1 #
edge $-1 $241 0 $191 17.261756844973092 $185 $242 forward 7 unknown #
vertex $-1 $122 $243 #
straight-curve $-1 -9.4809487975283062 -27.935998184252316 17.295156685463997 -1 0 0 I I #
coedge $-1 $184 $123 $126 $198 reversed $116 $-1 #
coedge $-1 $123 $184 $189 $240 forward $116 $-1 #
vertex $-1 $124 $244 #
straight-curve $-1 -12.575479376512803 -40.353066770574827 46.311669153099295 0 0 1 I I #
straight-curve $-1 -12.575479376512803 -40.353066770574827 5.3041326634074153 0 -0.71933979245794832 -0.69465837861970381 I I #
edge $-1 $238 -25.348315813600422 $128 -12.575479376512803 $193 $245 forward 7 unknown #
point $-1 -12.575479376512803 -40.353066770574827 17.295156685463997 #
point $-1 -12.575479376512803 -27.935998184252313 17.295156685463997 #
edge $-1 $246 1 $246 0 $131 $-1 forward 7 unknown #
vertex $-1 $132 $247 #
ellipse-curve $-1 -18.961897595056612 -31.280972010062957 8.3343410724439266 0 -0.69465837861970381 0.71933979245794832 2 0 0 1 I I #
point $-1 -16.961897595056612 -34.144532477413584 11.299644674435717 #
plane-surface $-1 60.693990905484171 0 0 -1 0 0 0 0 1 forward_v I I I I #
coedge $-1 $140 $138 $142 $210 reversed $81 $-1 #
edge $-1 $153 -17.295156685463997 $212 17.295156685463997 $152 $248 forward 7 unknown #
vertex $-1 $210 $249 #
straight-curve $-1 -60.693990905484171 -40.353066770574827 0 0 0 -1 I I #
edge $-1 $208 -40.353066770574827 $212 40.353066770574827 $206 $250 forward 7 unknown #
straight-curve $-1 0 -40.353066770574827 -17.295156685463997 -1 0 0 I I #
vertex $-1 $145 $251 #
straight-curve $-1 0 40.353066770574827 -17.295156685463997 1 0 0 I I #
point $-1 60.693990905484171 40.353066770574827 -17.295156685463997 #
point $-1 60.693990905484171 -40.353066770574827 -17.295156685463997 #
straight-curve $-1 -60.693990905484171 0 17.295156685463997 0 -1 0 I I #
point $-1 -60.693990905484171 40.353066770574827 17.295156685463997 #
point $-1 -60.693990905484171 -40.353066770574827 17.295156685463997 #
straight-curve $-1 60.693990905484171 -40.353066770574827 0 0 0 -1 I I #
straight-curve $-1 60.693990905484171 40.353066770574827 0 0 0 -1 I I #
plane-surface $-1 0 -40.353066770574827 0 0 1 0 0 0 1 forward_v I I I I #
coedge $-1 $252 $165 $175 $233 reversed $100 $-1 #
coedge $-1 $165 $252 $178 $235 forward $100 $-1 #
coedge $-1 $253 $168 $166 $225 forward $163 $-1 #
edge $-1 $226 46.425747912065958 $254 60.693990905484171 $166 $255 forward 7 unknown #
vertex $-1 $225 $256 #
straight-curve $-1 -46.425747912065958 40.353066770574827 7.1697020049084283 0 0 -1 I I #
coedge $-1 $168 $253 $170 $230 forward $163 $-1 #
straight-curve $-1 -46.425747912065958 0 17.295156685463997 0 1 0 I I #
edge $-1 $257 -60.693990905484171 $172 -46.425747912065958 $170 $258 forward 7 unknown #
point $-1 -46.425747912065958 -40.353066770574827 17.295156685463997 #
straight-curve $-1 -60.693990905484171 0 11.383651334169716 0 -1 0 I I #
edge $-1 $257 -17.295156685463997 $176 -11.383651334169716 $222 $259 forward 7 unknown #
point $-1 -60.693990905484171 -40.353066770574827 11.383651334169716 #
edge $-1 $254 -17.295156685463997 $179 -11.383651334169716 $178 $260 forward 7 unknown #
point $-1 -60.693990905484171 40.353066770574827 11.383651334169716 #
edge $-1 $238 29.016512467635298 $241 41.00753648969188 $184 $261 forward 7 unknown #
vertex $-1 $198 $262 #
straight-curve $-1 -25.348315813600422 -62.338122699650093 17.295156685463994 0 -1 0 I I #
edge $-1 $241 -15.867367016072116 $195 -3.0945305789844966 $194 $263 forward 7 unknown #
vertex $-1 $240 $264 #
straight-curve $-1 -25.348315813600422 -40.353066770574827 5.3041326634074153 0 0.71933979245794832 0.69465837861970381 I I #
point $-1 -25.348315813600422 -27.935998184252313 17.295156685463997 #
point $-1 -12.575479376512803 -40.353066770574827 5.3041326634074153 #
straight-curve $-1 0 -40.353066770574827 17.295156685463997 1 0 0 I I #
vertex $-1 $201 $265 #
point $-1 -16.961897595056612 -31.280972010062957 8.3343410724439266 #
straight-curve $-1 -60.693990905484171 40.353066770574827 0 0 0 -1 I I #
point $-1 -60.693990905484171 -40.353066770574827 -17.295156685463997 #
straight-curve $-1 -60.693990905484171 0 -17.295156685463997 0 1 0 I I #
point $-1 -60.693990905484171 40.353066770574827 -17.295156685463997 #
coedge $-1 $223 $222 $253 $266 reversed $100 $-1 #
coedge $-1 $228 $224 $252 $266 forward $163 $-1 #
vertex $-1 $225 $267 #
straight-curve $-1 0 40.353066770574827 17.295156685463997 -1 0 0 I I #
point $-1 -46.425747912065958 40.353066770574827 17.295156685463997 #
vertex $-1 $266 $268 #
straight-curve $-1 0 -40.353066770574827 17.295156685463997 1 0 0 I I #
straight-curve $-1 -60.693990905484171 -40.353066770574827 0 0 0 -1 I I #
straight-curve $-1 -60.693990905484171 40.353066770574827 0 0 0 -1 I I #
straight-curve $-1 -25.348315813600422 -40.353066770574827 46.311669153099295 0 0 -1 I I #
point $-1 -25.348315813600422 -40.353066770574827 17.295156685463997 #
straight-curve $-1 -9.4809487975283062 -40.353066770574827 5.3041326634074153 1 0 0 I I #
point $-1 -25.348315813600422 -40.353066770574827 5.3041326634074153 #
point $-1 -18.961897595056612 -29.891655252823551 6.8956614875280309 #
edge $-1 $254 -40.353066770574827 $257 40.353066770574827 $252 $269 forward 7 unknown #
point $-1 -60.693990905484171 40.353066770574827 17.295156685463997 #
point $-1 -60.693990905484171 -40.353066770574827 17.295156685463997 #
straight-curve $-1 -60.693990905484171 0 17.295156685463997 0 -1 0 I I #
End-of-ACIS-data 