500 0 6 0           
7 Unknown 11 ACIS 5.0 NT 24 Fri Mar 26 18:36:04 1999 
-1 9.9999999999999995e-007 1e-010 
body $-1 $6 $-1 $7 #
body $-1 $8 $-1 $9 #
body $-1 $10 $-1 $11 #
body $-1 $12 $-1 $13 #
body $-1 $14 $-1 $15 #
body $-1 $16 $-1 $17 #
lump $-1 $-1 $18 $0 #
transform $-1 1 0 0 0 1 0 0 0 1 78.240913113803515 48.928328825188387 22.158483924939741 1 rotate no_reflect no_shear #
lump $-1 $-1 $19 $1 #
transform $-1 1 0 0 0 1 0 0 0 1 78.240913113803515 48.928328825188387 22.158483924939741 1 rotate no_reflect no_shear #
lump $-1 $-1 $20 $2 #
transform $-1 1 0 0 0 1 0 0 0 1 78.240913113803515 48.928328825188387 22.158483924939741 1 rotate no_reflect no_shear #
lump $-1 $-1 $21 $3 #
transform $-1 1 0 0 0 1 0 0 0 1 78.240913113803515 48.928328825188387 22.158483924939741 1 rotate no_reflect no_shear #
lump $-1 $-1 $22 $4 #
transform $-1 1 0 0 0 1 0 0 0 1 78.240913113803515 48.928328825188387 22.158483924939741 1 rotate no_reflect no_shear #
lump $-1 $-1 $23 $5 #
transform $-1 1 0 0 0 1 0 0 0 1 78.240913113803515 48.928328825188387 22.158483924939741 1 rotate no_reflect no_shear #
shell $-1 $-1 $-1 $24 $-1 $6 #
shell $-1 $-1 $-1 $25 $-1 $8 #
shell $-1 $-1 $-1 $26 $-1 $10 #
shell $-1 $-1 $-1 $27 $-1 $12 #
shell $-1 $-1 $-1 $28 $-1 $14 #
shell $-1 $-1 $-1 $29 $-1 $16 #
face $-1 $30 $31 $18 $-1 $32 forward single #
face $-1 $33 $34 $19 $-1 $35 forward single #
face $-1 $36 $37 $20 $-1 $38 reversed single #
face $-1 $39 $40 $21 $-1 $41 forward single #
face $-1 $42 $43 $22 $-1 $44 reversed single #
face $-1 $45 $46 $23 $-1 $47 forward single #
face $-1 $48 $49 $18 $-1 $50 reversed single #
loop $-1 $-1 $51 $24 #
plane-surface $-1 0 0 22.158483924939741 0 0 1 1 0 0 forward_v I I I I #
face $-1 $52 $53 $19 $-1 $54 reversed single #
loop $-1 $-1 $55 $25 #
plane-surface $-1 0 -48.928328825188387 0 0 1 0 0 0 1 forward_v I I I I #
face $-1 $56 $57 $20 $-1 $58 reversed single #
loop $-1 $-1 $59 $26 #
plane-surface $-1 120.46670286646477 -18.729015385134918 229.12540101472018 0 -1 0 -0.82903758062907751 0 -0.55919289150049634 forward_v I I I I #
face $-1 $60 $61 $21 $-1 $62 forward single #
loop $-1 $63 $64 $27 #
cone-surface $-1 73.203675163986532 -23.906733668636303 15.963163738276027 -0.82903758062907751 0 -0.55919289150049634 1.1183857830009927 0 -1.658075161258155 1 I I 0 1 2 forward I I I I #
face $-1 $65 $66 $22 $-1 $67 reversed single #
loop $-1 $-1 $68 $28 #
plane-surface $-1 -178.82549339031721 -29.084451952137691 121.62960564326728 0 1 0 -0.64278761758704617 0 0.76604443648966558 forward_v I I I I #
face $-1 $69 $70 $23 $-1 $71 forward single #
loop $-1 $72 $73 $29 #
cone-surface $-1 -64.573466289787731 -22.215151261266385 10.157267752533727 0.64278761758704617 0 -0.76604443648966558 1.915111091224164 0 1.6069690439676154 1 I I 0 1 2.5 forward I I I I #
face $-1 $74 $75 $18 $-1 $76 reversed single #
loop $-1 $-1 $77 $30 #
plane-surface $-1 0 0 -22.158483924939741 0 0 1 1 0 0 forward_v I I I I #
coedge $-1 $78 $79 $80 $81 forward $31 $-1 #
face $-1 $82 $83 $19 $-1 $84 reversed single #
loop $-1 $-1 $85 $33 #
plane-surface $-1 0 0 -22.158483924939741 0 0 1 1 0 0 forward_v I I I I #
coedge $-1 $86 $87 $88 $89 forward $34 $-1 #
face $-1 $90 $91 $20 $-1 $92 reversed single #
loop $-1 $-1 $93 $36 #
plane-surface $-1 -9.2626117616902945 -23.906733668636303 141.6218761392264 0.82903758062907751 0 0.55919289150049634 0.55919289150049634 0 -0.82903758062907751 forward_v I I I I #
coedge $-1 $94 $95 $96 $97 reversed $37 $-1 #
face $-1 $-1 $98 $21 $-1 $99 forward single #
loop $-1 $100 $101 $39 #
cone-surface $-1 70.799625576407152 -23.906733668636303 14.341611867046002 -0.82903758062907751 0 -0.55919289150049634 0.55919289150049634 0 -0.82903758062907751 1 I I -0.70710678118654746 0.70710678118654746 1 forward I I I I #
loop $-1 $-1 $102 $27 #
coedge $-1 $64 $64 $103 $104 reversed $40 $-1 #
face $-1 $105 $106 $22 $-1 $107 reversed single #
loop $-1 $-1 $108 $42 #
plane-surface $-1 -78.240913113803529 -22.215151261266385 1.757573249866283 -0.64278761758704617 0 0.76604443648966558 0.76604443648966558 0 0.64278761758704617 forward_v I I I I #
coedge $-1 $109 $110 $111 $112 reversed $43 $-1 #
face $-1 $-1 $113 $23 $-1 $114 forward single #
loop $-1 $115 $116 $45 #
cone-surface $-1 -62.258963983778408 -22.215151261266385 7.3989513720523519 0.64278761758704617 0 -0.76604443648966558 0.957555545612082 0 0.80348452198380771 1 I I -0.70710678118654746 0.70710678118654746 1.25 forward I I I I #
loop $-1 $-1 $117 $29 #
coedge $-1 $73 $73 $118 $119 reversed $46 $-1 #
face $-1 $120 $121 $18 $-1 $122 reversed single #
loop $-1 $-1 $123 $48 #
plane-surface $-1 0 -48.928328825188387 0 0 1 0 0 0 1 forward_v I I I I #
coedge $-1 $124 $125 $126 $127 forward $49 $-1 #
coedge $-1 $128 $51 $129 $130 forward $31 $-1 #
coedge $-1 $51 $128 $131 $132 forward $31 $-1 #
coedge $-1 $133 $134 $51 $81 reversed $135 $-1 #
edge $-1 $136 -48.928328825188387 $137 48.928328825188387 $80 $138 forward 7 unknown #
face $-1 $139 $140 $19 $-1 $141 forward single #
loop $-1 $-1 $142 $52 #
plane-surface $-1 78.240913113803515 0 0 -1 0 0 0 0 1 forward_v I I I I #
coedge $-1 $143 $144 $145 $146 forward $53 $-1 #
coedge $-1 $145 $55 $142 $147 reversed $34 $-1 #
coedge $-1 $55 $145 $148 $149 reversed $34 $-1 #
coedge $-1 $150 $151 $55 $89 reversed $140 $-1 #
edge $-1 $152 -78.240913113803515 $153 78.240913113803515 $88 $154 forward 7 unknown #
face $-1 $155 $156 $20 $-1 $157 reversed single #
loop $-1 $-1 $158 $56 #
plane-surface $-1 120.46670286646477 -29.084451952137687 229.12540101472018 0 1 0 0.82903758062907751 0 0.55919289150049634 forward_v I I I I #
coedge $-1 $159 $160 $161 $162 reversed $57 $-1 #
coedge $-1 $95 $59 $163 $164 reversed $37 $-1 #
coedge $-1 $59 $94 $159 $165 reversed $37 $-1 #
coedge $-1 $161 $166 $59 $97 forward $167 $-1 #
edge $-1 $168 -18.007561680571129 $169 -11.083109794837753 $96 $170 forward 7 unknown #
loop $-1 $-1 $103 $60 #
plane-surface $-1 -9.2626117616902945 -23.906733668636303 141.6218761392264 0.82903758062907751 0 0.55919289150049634 0.55919289150049634 0 -0.82903758062907751 forward_v I I I I #
loop $-1 $-1 $171 $39 #
coedge $-1 $101 $101 $102 $172 reversed $61 $-1 #
coedge $-1 $102 $102 $101 $172 forward $63 $-1 #
coedge $-1 $103 $103 $64 $104 forward $98 $-1 #
edge $-1 $173 0 $173 6.2831853071796004 $103 $174 forward 7 unknown #
face $-1 $175 $176 $22 $-1 $177 forward single #
loop $-1 $-1 $178 $65 #
plane-surface $-1 -178.82549339031721 -15.345850570395081 121.62960564326728 0 -1 0 0.64278761758704617 0 -0.76604443648966558 forward_v I I I I #
coedge $-1 $179 $180 $181 $182 reversed $66 $-1 #
coedge $-1 $110 $68 $183 $184 reversed $43 $-1 #
coedge $-1 $68 $109 $179 $185 reversed $43 $-1 #
coedge $-1 $181 $186 $68 $112 forward $176 $-1 #
edge $-1 $187 11.171833581355088 $188 35.484691661335603 $111 $189 forward 7 unknown #
loop $-1 $-1 $118 $69 #
plane-surface $-1 -78.240913113803529 -22.215151261266385 1.757573249866283 -0.64278761758704617 0 0.76604443648966558 0.76604443648966558 0 0.64278761758704617 forward_v I I I I #
loop $-1 $-1 $190 $45 #
coedge $-1 $116 $116 $117 $191 reversed $70 $-1 #
coedge $-1 $117 $117 $116 $191 forward $72 $-1 #
coedge $-1 $118 $118 $73 $119 forward $113 $-1 #
edge $-1 $192 0 $192 6.2831853071796004 $118 $193 forward 7 unknown #
face $-1 $194 $195 $18 $-1 $196 reversed single #
loop $-1 $-1 $197 $74 #
plane-surface $-1 -78.240913113803515 0 0 1 0 0 0 0 -1 forward_v I I I I #
coedge $-1 $198 $131 $199 $200 forward $75 $-1 #
coedge $-1 $201 $77 $198 $202 forward $49 $-1 #
coedge $-1 $77 $201 $203 $204 forward $49 $-1 #
coedge $-1 $134 $133 $77 $127 reversed $135 $-1 #
edge $-1 $205 -48.928328825188387 $206 48.928328825188387 $126 $207 forward 7 unknown #
coedge $-1 $79 $78 $208 $209 forward $31 $-1 #
coedge $-1 $210 $211 $78 $130 reversed $195 $-1 #
edge $-1 $137 -78.240913113803515 $212 78.240913113803515 $129 $213 forward 7 unknown #
coedge $-1 $123 $214 $79 $132 reversed $75 $-1 #
edge $-1 $215 -78.240913113803515 $136 78.240913113803515 $131 $216 forward 7 unknown #
coedge $-1 $126 $80 $214 $217 forward $135 $-1 #
coedge $-1 $80 $126 $210 $218 reversed $135 $-1 #
loop $-1 $-1 $133 $194 #
vertex $-1 $81 $219 #
vertex $-1 $81 $220 #
straight-curve $-1 78.240913113803515 0 22.158483924939741 0 1 0 I I #
face $-1 $221 $222 $19 $-1 $223 reversed single #
loop $-1 $-1 $151 $82 #
plane-surface $-1 0 -58.850267261713739 -9.2107124378566638 0 0 1 1 0 0 forward_v I I I I #
coedge $-1 $224 $225 $86 $147 forward $83 $-1 #
coedge $-1 $226 $85 $225 $227 forward $53 $-1 #
coedge $-1 $85 $226 $228 $229 forward $53 $-1 #
coedge $-1 $87 $86 $85 $146 reversed $34 $-1 #
edge $-1 $230 -78.240913113803515 $231 78.240913113803515 $85 $232 forward 7 unknown #
edge $-1 $231 -22.158483924939741 $153 -9.2107124378566638 $142 $233 forward 7 unknown #
coedge $-1 $228 $234 $87 $149 forward $235 $-1 #
edge $-1 $152 9.2107124378566638 $230 22.158483924939741 $148 $236 forward 7 unknown #
coedge $-1 $237 $88 $234 $238 forward $140 $-1 #
coedge $-1 $88 $237 $224 $239 forward $140 $-1 #
vertex $-1 $149 $240 #
vertex $-1 $239 $241 #
straight-curve $-1 0 -48.928328825188387 -9.2107124378566638 1 0 0 I I #
face $-1 $-1 $167 $20 $-1 $242 forward single #
loop $-1 $-1 $243 $90 #
plane-surface $-1 78.240913113803515 0 0 -1 0 0 0 0 1 forward_v I I I I #
coedge $-1 $244 $245 $246 $247 reversed $91 $-1 #
coedge $-1 $248 $93 $95 $165 forward $57 $-1 #
coedge $-1 $93 $248 $244 $249 forward $57 $-1 #
coedge $-1 $246 $96 $93 $162 forward $167 $-1 #
edge $-1 $169 6.7756485508167668 $250 17.131085117819538 $161 $251 forward 7 unknown #
coedge $-1 $252 $253 $94 $164 forward $156 $-1 #
edge $-1 $254 -102.67013899628878 $168 -92.404216582420347 $163 $255 forward 7 unknown #
edge $-1 $169 144.09888647464845 $254 156.48182622760709 $95 $256 forward 7 unknown #
coedge $-1 $96 $246 $252 $257 forward $167 $-1 #
loop $-1 $-1 $246 $155 #
vertex $-1 $164 $258 #
vertex $-1 $97 $259 #
straight-curve $-1 60.233351433232386 -18.729015385134918 22.158483924939745 -1 0 0 I I #
coedge $-1 $171 $171 $-1 $260 reversed $100 $-1 #
edge $-1 $261 0 $261 6.2831853071796004 $101 $262 forward 7 unknown #
vertex $-1 $104 $263 #
ellipse-curve $-1 74.77868717093682 -23.906733668636303 17.02552271800554 0.82903758062907751 0 0.55919289150049634 1.1183857830009927 0 -1.658075161258155 1 I I #
face $-1 $-1 $264 $22 $-1 $265 reversed single #
loop $-1 $-1 $111 $105 #
plane-surface $-1 0 0 22.158483924939741 0 0 1 1 0 0 forward_v I I I I #
coedge $-1 $266 $267 $268 $269 reversed $106 $-1 #
coedge $-1 $270 $108 $110 $185 forward $66 $-1 #
coedge $-1 $108 $270 $266 $271 forward $66 $-1 #
coedge $-1 $268 $111 $108 $182 forward $176 $-1 #
edge $-1 $188 -17.976876321504498 $272 -4.2382749397618884 $181 $273 forward 7 unknown #
coedge $-1 $274 $275 $109 $184 forward $264 $-1 #
edge $-1 $276 -59.057229571767344 $187 -38.656318896693904 $183 $277 forward 7 unknown #
edge $-1 $188 -31.738182436768504 $276 -1.8593432412625586e-014 $110 $278 forward 7 unknown #
coedge $-1 $111 $268 $274 $279 forward $176 $-1 #
vertex $-1 $184 $280 #
vertex $-1 $112 $281 #
straight-curve $-1 -89.412746695158603 -29.084451952137691 22.158483924939745 1 0 0 I I #
coedge $-1 $190 $190 $-1 $282 reversed $115 $-1 #
edge $-1 $283 0 $283 6.2831853071796004 $116 $284 forward 7 unknown #
vertex $-1 $119 $285 #
ellipse-curve $-1 -66.084484073813258 -22.215151261266385 11.958028587403021 -0.64278761758704617 0 0.76604443648966558 1.915111091224164 0 1.6069690439676154 1 I I #
face $-1 $-1 $135 $18 $-1 $286 reversed single #
loop $-1 $-1 $210 $120 #
plane-surface $-1 0 48.928328825188387 0 0 -1 0 0 0 -1 forward_v I I I I #
coedge $-1 $287 $208 $211 $288 forward $121 $-1 #
coedge $-1 $214 $123 $124 $202 reversed $75 $-1 #
coedge $-1 $208 $287 $123 $200 reversed $121 $-1 #
edge $-1 $215 -22.158483924939741 $289 22.158483924939741 $199 $290 forward 7 unknown #
coedge $-1 $125 $124 $287 $291 forward $49 $-1 #
edge $-1 $206 -78.240913113803515 $289 78.240913113803515 $198 $292 forward 7 unknown #
coedge $-1 $211 $210 $125 $204 reversed $195 $-1 #
edge $-1 $293 -78.240913113803515 $205 78.240913113803515 $203 $294 forward 7 unknown #
vertex $-1 $127 $295 #
vertex $-1 $217 $296 #
straight-curve $-1 78.240913113803515 0 -22.158483924939741 0 -1 0 I I #
coedge $-1 $197 $199 $128 $209 reversed $121 $-1 #
edge $-1 $212 -48.928328825188387 $215 48.928328825188387 $208 $297 forward 7 unknown #
coedge $-1 $203 $129 $134 $218 forward $195 $-1 #
coedge $-1 $129 $203 $197 $288 reversed $195 $-1 #
vertex $-1 $130 $298 #
straight-curve $-1 0 48.928328825188387 22.158483924939741 -1 0 0 I I #
coedge $-1 $131 $198 $133 $217 reversed $75 $-1 #
vertex $-1 $209 $299 #
straight-curve $-1 0 -48.928328825188387 22.158483924939741 1 0 0 I I #
edge $-1 $136 -22.158483924939741 $206 22.158483924939741 $133 $300 forward 7 unknown #
edge $-1 $137 -22.158483924939741 $205 22.158483924939741 $134 $301 forward 7 unknown #
point $-1 78.240913113803515 -48.928328825188387 22.158483924939741 #
point $-1 78.240913113803515 48.928328825188387 22.158483924939741 #
face $-1 $-1 $235 $19 $-1 $302 reversed single #
loop $-1 $-1 $303 $139 #
plane-surface $-1 0 -68.772205698239091 -15.684598181398202 0 1 0 0 0 1 forward_v I I I I #
coedge $-1 $304 $142 $151 $239 reversed $83 $-1 #
coedge $-1 $142 $304 $143 $227 reversed $83 $-1 #
coedge $-1 $144 $143 $305 $306 forward $53 $-1 #
edge $-1 $231 48.928328825188387 $307 68.772205698239091 $225 $308 forward 7 unknown #
coedge $-1 $309 $148 $144 $229 reversed $235 $-1 #
edge $-1 $310 -68.772205698239091 $230 -48.928328825188387 $228 $311 forward 7 unknown #
vertex $-1 $149 $312 #
vertex $-1 $227 $313 #
straight-curve $-1 0 -48.928328825188387 -22.158483924939741 1 0 0 I I #
straight-curve $-1 78.240913113803515 -48.928328825188387 0 0 0 1 I I #
coedge $-1 $148 $309 $150 $238 reversed $235 $-1 #
loop $-1 $-1 $148 $221 #
straight-curve $-1 -78.240913113803515 -48.928328825188387 0 0 0 -1 I I #
coedge $-1 $151 $150 $314 $315 forward $140 $-1 #
edge $-1 $152 -9.9219384365253518 $316 9.9219384365253518 $234 $317 forward 7 unknown #
edge $-1 $318 -9.9219384365253518 $153 9.9219384365253518 $224 $319 forward 7 unknown #
point $-1 -78.240913113803515 -48.928328825188387 -9.2107124378566638 #
point $-1 78.240913113803515 -48.928328825188387 -9.2107124378566638 #
plane-surface $-1 0 0 22.158483924939741 0 0 1 1 0 0 forward_v I I I I #
coedge $-1 $253 $252 $245 $320 forward $156 $-1 #
coedge $-1 $245 $158 $160 $249 reversed $91 $-1 #
coedge $-1 $158 $244 $243 $320 reversed $91 $-1 #
coedge $-1 $166 $161 $158 $247 forward $167 $-1 #
edge $-1 $250 11.083109794837753 $321 18.007561680571129 $246 $322 forward 7 unknown #
coedge $-1 $160 $159 $253 $323 reversed $57 $-1 #
edge $-1 $324 -156.48182622760709 $250 -144.09888647464845 $244 $325 forward 7 unknown #
vertex $-1 $162 $326 #
straight-curve $-1 71.316461228070139 -11.953366834318151 22.158483924939745 0 -1 0 I I #
coedge $-1 $243 $163 $166 $257 reversed $156 $-1 #
coedge $-1 $163 $243 $248 $323 forward $156 $-1 #
vertex $-1 $164 $327 #
straight-curve $-1 78.240913113803515 -18.729015385134918 114.56270050736009 0 0 1 I I #
straight-curve $-1 -9.2626117616902945 -18.729015385134918 141.6218761392264 0.55919289150049634 0 -0.82903758062907751 I I #
edge $-1 $321 -29.084451952137687 $168 -18.729015385134918 $252 $328 forward 7 unknown #
point $-1 78.240913113803515 -18.729015385134918 22.158483924939741 #
point $-1 71.316461228070139 -18.729015385134918 22.158483924939745 #
edge $-1 $329 1 $329 0 $171 $-1 forward 7 unknown #
vertex $-1 $172 $330 #
ellipse-curve $-1 71.628663157036229 -23.906733668636303 14.900804758546498 0.82903758062907751 0 0.55919289150049634 1.1183857830009927 0 -1.658075161258155 1 I I #
point $-1 75.897072953937837 -23.906733668636303 15.367447556747397 #
loop $-1 $-1 $183 $175 #
plane-surface $-1 -78.240913113803515 0 0 1 0 0 0 0 -1 forward_v I I I I #
coedge $-1 $267 $178 $180 $271 reversed $106 $-1 #
coedge $-1 $178 $266 $331 $332 reversed $106 $-1 #
coedge $-1 $186 $181 $178 $269 forward $176 $-1 #
edge $-1 $272 -35.484691661335603 $333 -11.171833581355088 $268 $334 forward 7 unknown #
coedge $-1 $180 $179 $275 $335 reversed $66 $-1 #
edge $-1 $336 1.8593432412625586e-014 $272 31.738182436768504 $266 $337 forward 7 unknown #
vertex $-1 $182 $338 #
straight-curve $-1 -53.928055033823 -11.107575630633193 22.158483924939741 0 1 0 I I #
coedge $-1 $331 $183 $186 $279 reversed $264 $-1 #
coedge $-1 $183 $331 $270 $335 forward $264 $-1 #
vertex $-1 $184 $339 #
straight-curve $-1 -78.240913113803515 -29.084451952137691 60.814802821633641 0 0 1 I I #
straight-curve $-1 -78.240913113803529 -29.084451952137691 1.757573249866283 -0.76604443648966558 0 -0.64278761758704617 I I #
edge $-1 $333 15.345850570395081 $187 29.084451952137691 $274 $340 forward 7 unknown #
point $-1 -78.240913113803515 -29.084451952137691 22.158483924939741 #
point $-1 -53.928055033823 -29.084451952137691 22.158483924939741 #
edge $-1 $341 1 $341 0 $190 $-1 forward 7 unknown #
vertex $-1 $191 $342 #
ellipse-curve $-1 -63.062448505762212 -22.215151261266385 8.3565069176644347 -0.64278761758704617 0 0.76604443648966558 1.915111091224164 0 1.6069690439676154 1 I I #
point $-1 -64.169372982589095 -22.215151261266385 13.564997631370636 #
plane-surface $-1 78.240913113803515 0 0 -1 0 0 0 0 1 forward_v I I I I #
coedge $-1 $199 $197 $201 $291 reversed $121 $-1 #
edge $-1 $212 -22.158483924939741 $293 22.158483924939741 $211 $343 forward 7 unknown #
vertex $-1 $291 $344 #
straight-curve $-1 -78.240913113803515 -48.928328825188387 0 0 0 -1 I I #
edge $-1 $289 -48.928328825188387 $293 48.928328825188387 $287 $345 forward 7 unknown #
straight-curve $-1 0 -48.928328825188387 -22.158483924939741 -1 0 0 I I #
vertex $-1 $204 $346 #
straight-curve $-1 0 48.928328825188387 -22.158483924939741 1 0 0 I I #
point $-1 78.240913113803515 48.928328825188387 -22.158483924939741 #
point $-1 78.240913113803515 -48.928328825188387 -22.158483924939741 #
straight-curve $-1 -78.240913113803515 0 22.158483924939741 0 -1 0 I I #
point $-1 -78.240913113803515 48.928328825188387 22.158483924939741 #
point $-1 -78.240913113803515 -48.928328825188387 22.158483924939741 #
straight-curve $-1 78.240913113803515 -48.928328825188387 0 0 0 -1 I I #
straight-curve $-1 78.240913113803515 48.928328825188387 0 0 0 -1 I I #
plane-surface $-1 -78.240913113803515 0 0 1 0 0 0 0 -1 forward_v I I I I #
coedge $-1 $305 $314 $309 $347 forward $222 $-1 #
coedge $-1 $225 $224 $348 $349 forward $83 $-1 #
coedge $-1 $348 $303 $226 $306 reversed $222 $-1 #
edge $-1 $307 -78.240913113803515 $310 78.240913113803515 $305 $350 forward 7 unknown #
vertex $-1 $349 $351 #
straight-curve $-1 78.240913113803515 0 -22.158483924939741 0 -1 0 I I #
coedge $-1 $234 $228 $303 $347 reversed $235 $-1 #
vertex $-1 $229 $352 #
straight-curve $-1 -78.240913113803515 0 -22.158483924939741 0 1 0 I I #
point $-1 -78.240913113803515 -48.928328825188387 -22.158483924939741 #
point $-1 78.240913113803515 -48.928328825188387 -22.158483924939741 #
coedge $-1 $303 $348 $237 $315 reversed $222 $-1 #
edge $-1 $316 -78.240913113803515 $318 78.240913113803515 $314 $353 forward 7 unknown #
vertex $-1 $238 $354 #
straight-curve $-1 -78.240913113803515 -58.850267261713739 -9.2107124378566638 0 -1 0 I I #
vertex $-1 $239 $355 #
straight-curve $-1 78.240913113803515 -58.850267261713739 -9.2107124378566638 0 1 0 I I #
edge $-1 $321 92.404216582420347 $324 102.67013899628878 $243 $356 forward 7 unknown #
vertex $-1 $257 $357 #
straight-curve $-1 60.233351433232386 -29.084451952137687 22.158483924939745 1 0 0 I I #
edge $-1 $324 -17.131085117819538 $254 -6.7756485508167668 $253 $358 forward 7 unknown #
vertex $-1 $323 $359 #
straight-curve $-1 -9.2626117616902945 -29.084451952137687 141.6218761392264 -0.55919289150049634 0 0.82903758062907751 I I #
point $-1 71.316461228070139 -29.084451952137687 22.158483924939745 #
point $-1 78.240913113803515 -18.729015385134918 11.892561511071307 #
straight-curve $-1 78.240913113803515 0 22.158483924939741 0 1 0 I I #
vertex $-1 $260 $360 #
point $-1 72.747048940037217 -23.906733668636303 13.242729597288342 #
coedge $-1 $275 $274 $267 $332 forward $264 $-1 #
edge $-1 $333 38.656318896693904 $336 59.057229571767344 $331 $361 forward 7 unknown #
vertex $-1 $279 $362 #
straight-curve $-1 -89.412746695158603 -15.345850570395081 22.158483924939745 -1 0 0 I I #
edge $-1 $336 4.2382749397618884 $276 17.976876321504498 $275 $363 forward 7 unknown #
vertex $-1 $335 $364 #
straight-curve $-1 -78.240913113803529 -15.345850570395081 1.757573249866283 0.76604443648966558 0 0.64278761758704617 I I #
point $-1 -53.928055033823 -15.345850570395081 22.158483924939741 #
point $-1 -78.240913113803515 -29.084451952137691 1.757573249866295 #
straight-curve $-1 -78.240913113803515 0 22.158483924939741 0 -1 0 I I #
vertex $-1 $282 $365 #
point $-1 -61.14733741453805 -22.215151261266385 9.9634759616320494 #
straight-curve $-1 -78.240913113803515 48.928328825188387 0 0 0 -1 I I #
point $-1 -78.240913113803515 -48.928328825188387 -22.158483924939741 #
straight-curve $-1 -78.240913113803515 0 -22.158483924939741 0 1 0 I I #
point $-1 -78.240913113803515 48.928328825188387 -22.158483924939741 #
edge $-1 $316 -6.4738857435415387 $310 6.4738857435415387 $309 $366 forward 7 unknown #
coedge $-1 $314 $305 $304 $349 reversed $222 $-1 #
edge $-1 $318 -6.4738857435415387 $307 6.4738857435415387 $304 $367 forward 7 unknown #
straight-curve $-1 0 -68.772205698239091 -22.158483924939741 -1 0 0 I I #
point $-1 78.240913113803515 -68.772205698239091 -22.158483924939741 #
point $-1 -78.240913113803515 -68.772205698239091 -22.158483924939741 #
straight-curve $-1 0 -68.772205698239091 -9.2107124378566638 1 0 0 I I #
point $-1 -78.240913113803515 -68.772205698239091 -9.2107124378566638 #
point $-1 78.240913113803515 -68.772205698239091 -9.2107124378566638 #
straight-curve $-1 78.240913113803515 -29.084451952137687 114.56270050736009 0 0 -1 I I #
point $-1 78.240913113803515 -29.084451952137687 22.158483924939741 #
straight-curve $-1 78.240913113803515 -11.953366834318151 11.8925615110713 0 1 0 I I #
point $-1 78.240913113803515 -29.084451952137687 11.892561511071307 #
point $-1 69.970587995778075 -23.906733668636303 13.782418975545506 #
straight-curve $-1 -78.240913113803515 -15.345850570395081 60.814802821633641 0 0 -1 I I #
point $-1 -78.240913113803515 -15.345850570395081 22.158483924939741 #
straight-curve $-1 -78.240913113803515 -11.107575630633193 1.7575732498662933 0 -1 0 I I #
point $-1 -78.240913113803515 -15.345850570395081 1.757573249866295 #
point $-1 -61.455479461794603 -22.215151261266385 6.44139582644027 #
straight-curve $-1 -78.240913113803515 -68.772205698239091 -15.684598181398202 0 0 -1 I I #
straight-curve $-1 78.240913113803515 -68.772205698239091 -15.684598181398202 0 0 -1 I I #
End-of-ACIS-data 