500 0 9 0           
7 Unknown 11 ACIS 5.0 NT 24 Thu Mar 25 20:14:02 1999 
-1 9.9999999999999995e-007 1e-010 
body $-1 $9 $-1 $10 #
body $-1 $11 $-1 $12 #
body $-1 $13 $-1 $14 #
body $-1 $15 $-1 $16 #
body $-1 $17 $-1 $18 #
body $-1 $19 $-1 $20 #
body $-1 $21 $-1 $22 #
body $-1 $23 $-1 $24 #
body $-1 $25 $-1 $26 #
lump $-1 $-1 $27 $0 #
transform $-1 1 0 0 0 1 0 0 0 1 50.812097537156284 34.341236793392568 16.147832881187639 1 rotate no_reflect no_shear #
lump $-1 $-1 $28 $1 #
transform $-1 1 0 0 0 1 0 0 0 1 50.812097537156284 34.341236793392568 16.147832881187639 1 rotate no_reflect no_shear #
lump $-1 $-1 $29 $2 #
transform $-1 1 0 0 0 1 0 0 0 1 50.812097537156284 34.341236793392568 16.147832881187639 1 rotate no_reflect no_shear #
lump $-1 $-1 $30 $3 #
transform $-1 1 0 0 0 1 0 0 0 1 50.812097537156284 34.341236793392568 16.147832881187639 1 rotate no_reflect no_shear #
lump $-1 $-1 $31 $4 #
transform $-1 1 0 0 0 1 0 0 0 1 50.812097537156284 34.341236793392568 16.147832881187639 1 rotate no_reflect no_shear #
lump $-1 $-1 $32 $5 #
transform $-1 1 0 0 0 1 0 0 0 1 50.812097537156284 34.341236793392568 16.147832881187639 1 rotate no_reflect no_shear #
lump $-1 $-1 $33 $6 #
transform $-1 1 0 0 0 1 0 0 0 1 50.812097537156284 34.341236793392568 16.147832881187639 1 rotate no_reflect no_shear #
lump $-1 $-1 $34 $7 #
transform $-1 1 0 0 0 1 0 0 0 1 50.812097537156284 34.341236793392568 16.147832881187639 1 rotate no_reflect no_shear #
lump $-1 $-1 $35 $8 #
transform $-1 1 0 0 0 1 0 0 0 1 50.812097537156284 34.341236793392568 16.147832881187639 1 rotate no_reflect no_shear #
shell $-1 $-1 $-1 $36 $-1 $9 #
shell $-1 $-1 $-1 $37 $-1 $11 #
shell $-1 $-1 $-1 $38 $-1 $13 #
shell $-1 $-1 $-1 $39 $-1 $15 #
shell $-1 $-1 $-1 $40 $-1 $17 #
shell $-1 $-1 $-1 $41 $-1 $19 #
shell $-1 $-1 $-1 $42 $-1 $21 #
shell $-1 $-1 $-1 $43 $-1 $23 #
shell $-1 $-1 $-1 $44 $-1 $25 #
face $-1 $45 $46 $27 $-1 $47 forward single #
face $-1 $48 $49 $28 $-1 $50 reversed single #
face $-1 $51 $52 $29 $-1 $53 reversed single #
face $-1 $54 $55 $30 $-1 $56 forward single #
face $-1 $57 $58 $31 $-1 $59 forward single #
face $-1 $60 $61 $32 $-1 $62 reversed single #
face $-1 $63 $64 $33 $-1 $65 forward single #
face $-1 $66 $67 $34 $-1 $68 reversed single #
face $-1 $69 $70 $35 $-1 $71 forward single #
face $-1 $72 $73 $27 $-1 $74 reversed single #
loop $-1 $-1 $75 $36 #
plane-surface $-1 0 0 16.147832881187639 0 0 1 1 0 0 forward_v I I I I #
face $-1 $76 $77 $28 $-1 $78 reversed single #
loop $-1 $-1 $79 $37 #
plane-surface $-1 -47.004319579971536 -13.765072528687314 0 0 -1 0 0 0 -1 forward_v I I I I #
face $-1 $80 $81 $29 $-1 $82 reversed single #
loop $-1 $-1 $83 $38 #
plane-surface $-1 -125.13532961870743 17.873990317584429 70.08516036716685 0 1 0 -0.73135370988377701 0 0.68199835119979291 forward_v I I I I #
face $-1 $84 $85 $30 $-1 $86 forward single #
loop $-1 $87 $88 $39 #
cone-surface $-1 -41.583790321131119 21.796377705252404 6.5400396399308205 0.73135370988377701 0 -0.68199835119979291 1.0229975267996894 0 1.0970305648256655 1 I I 0 1 1.5 forward I I I I #
face $-1 $89 $90 $31 $-1 $91 forward single #
loop $-1 $92 $93 $40 #
cone-surface $-1 -41.583790321131119 27.679958786754362 6.5400396399308205 0.73135370988377701 0 -0.68199835119979291 1.0229975267996894 0 1.0970305648256655 1 I I 0 1 1.5 forward I I I I #
face $-1 $94 $95 $32 $-1 $96 reversed single #
loop $-1 $-1 $97 $41 #
plane-surface $-1 63.337975867862973 10.288082132352628 143.39371695312678 0 -1 0 -0.7660444514056185 0 -0.64278759981090561 forward_v I I I I #
face $-1 $98 $99 $33 $-1 $100 forward single #
loop $-1 $101 $102 $42 #
cone-surface $-1 42.783498753009887 7.0214869652458205 7.054760939372601 -0.7660444514056185 0 -0.64278759981090561 0.96418139971635841 0 -1.1490666771084277 1 I I 0 1 1.5 forward I I I I #
face $-1 $103 $104 $34 $-1 $105 reversed single #
loop $-1 $-1 $106 $43 #
plane-surface $-1 63.337975867862973 27.808046459178961 143.39371695312678 0 1 0 0.7660444514056185 0 0.64278759981090561 forward_v I I I I #
face $-1 $107 $108 $35 $-1 $109 forward single #
loop $-1 $110 $111 $44 #
cone-surface $-1 42.783498753009887 31.074641626285768 7.054760939372601 -0.7660444514056185 0 -0.64278759981090561 0.96418139971635841 0 -1.1490666771084277 1 I I 0 1 1.5 forward I I I I #
face $-1 $112 $113 $27 $-1 $114 reversed single #
loop $-1 $-1 $115 $45 #
plane-surface $-1 0 0 -16.147832881187639 0 0 1 1 0 0 forward_v I I I I #
coedge $-1 $116 $117 $118 $119 forward $46 $-1 #
face $-1 $120 $121 $28 $-1 $122 forward single #
loop $-1 $-1 $123 $48 #
plane-surface $-1 -43.196541622786789 -24.05315466103994 0 -1 0 0 0 0 1 forward_v I I I I #
coedge $-1 $124 $125 $126 $127 forward $49 $-1 #
face $-1 $128 $129 $29 $-1 $130 reversed single #
loop $-1 $-1 $131 $51 #
plane-surface $-1 -50.812097537156276 24.738168246003383 0.77762688447955952 -0.73135370988377701 0 0.68199835119979291 0.68199835119979291 0 0.73135370988377701 forward_v I I I I #
coedge $-1 $132 $133 $134 $135 reversed $52 $-1 #
face $-1 $-1 $136 $30 $-1 $137 forward single #
loop $-1 $138 $139 $54 #
cone-surface $-1 -38.973442133066065 21.796377705252404 4.1058506336281937 0.73135370988377701 0 -0.68199835119979291 0.51149876339984468 0 0.54851528241283276 1 I I -0.70710678118654757 0.70710678118654757 0.75 forward I I I I #
loop $-1 $-1 $140 $39 #
coedge $-1 $88 $88 $141 $142 reversed $55 $-1 #
face $-1 $-1 $143 $31 $-1 $144 forward single #
loop $-1 $145 $146 $57 #
cone-surface $-1 -38.973442133066065 27.679958786754362 4.1058506336281937 0.73135370988377701 0 -0.68199835119979291 0.51149876339984468 0 0.54851528241283276 1 I I -0.70710678118654757 0.70710678118654757 0.75 forward I I I I #
loop $-1 $-1 $147 $40 #
coedge $-1 $93 $93 $148 $149 reversed $58 $-1 #
face $-1 $150 $151 $32 $-1 $152 reversed single #
loop $-1 $-1 $153 $60 #
plane-surface $-1 -14.51067489737634 7.0214869652458205 78.07094451859416 0.7660444514056185 0 0.64278759981090561 0.64278759981090561 0 -0.7660444514056185 forward_v I I I I #
coedge $-1 $154 $155 $156 $157 reversed $61 $-1 #
face $-1 $-1 $158 $33 $-1 $159 forward single #
loop $-1 $160 $161 $63 #
cone-surface $-1 40.861923459610018 7.0214869652458205 5.4423678616157858 -0.7660444514056185 0 -0.64278759981090561 0.48209069985817921 0 -0.57453333855421385 1 I I -0.70710678118654757 0.70710678118654757 0.75 forward I I I I #
loop $-1 $-1 $162 $42 #
coedge $-1 $102 $102 $163 $164 reversed $64 $-1 #
face $-1 $165 $166 $34 $-1 $167 reversed single #
loop $-1 $-1 $168 $66 #
plane-surface $-1 -14.51067489737634 31.074641626285768 78.07094451859416 0.7660444514056185 0 0.64278759981090561 0.64278759981090561 0 -0.7660444514056185 forward_v I I I I #
coedge $-1 $169 $170 $171 $172 reversed $67 $-1 #
face $-1 $-1 $173 $35 $-1 $174 forward single #
loop $-1 $175 $176 $69 #
cone-surface $-1 40.861923459610018 31.074641626285768 5.4423678616157858 -0.7660444514056185 0 -0.64278759981090561 0.48209069985817921 0 -0.57453333855421385 1 I I -0.70710678118654757 0.70710678118654757 0.75 forward I I I I #
loop $-1 $-1 $177 $44 #
coedge $-1 $111 $111 $178 $179 reversed $70 $-1 #
face $-1 $180 $181 $27 $-1 $182 reversed single #
loop $-1 $-1 $183 $72 #
plane-surface $-1 0 -34.341236793392568 0 0 1 0 0 0 1 forward_v I I I I #
coedge $-1 $184 $185 $186 $187 forward $73 $-1 #
coedge $-1 $188 $75 $189 $190 forward $46 $-1 #
coedge $-1 $75 $188 $191 $192 forward $46 $-1 #
coedge $-1 $193 $194 $75 $119 reversed $195 $-1 #
edge $-1 $196 -34.341236793392568 $197 34.341236793392568 $118 $198 forward 7 unknown #
face $-1 $199 $200 $28 $-1 $201 reversed single #
loop $-1 $-1 $202 $76 #
plane-surface $-1 0 0 16.147832881187639 0 0 1 1 0 0 forward_v I I I I #
coedge $-1 $203 $204 $205 $206 reversed $77 $-1 #
coedge $-1 $207 $79 $208 $209 reversed $49 $-1 #
coedge $-1 $79 $207 $210 $211 reversed $49 $-1 #
coedge $-1 $204 $203 $79 $127 reversed $77 $-1 #
edge $-1 $212 -16.147832881187639 $213 16.147832881187639 $126 $214 forward 7 unknown #
face $-1 $215 $216 $29 $-1 $217 reversed single #
loop $-1 $-1 $218 $80 #
plane-surface $-1 -125.13532961870743 31.602346174422337 70.08516036716685 0 -1 0 0.73135370988377701 0 -0.68199835119979291 forward_v I I I I #
coedge $-1 $219 $220 $221 $222 reversed $81 $-1 #
coedge $-1 $133 $83 $223 $224 reversed $52 $-1 #
coedge $-1 $83 $132 $219 $225 reversed $52 $-1 #
coedge $-1 $221 $226 $83 $135 forward $227 $-1 #
edge $-1 $228 11.755567272197432 $229 26.088515892943342 $134 $230 forward 7 unknown #
loop $-1 $-1 $141 $84 #
plane-surface $-1 -50.812097537156276 24.738168246003383 0.77762688447955952 -0.73135370988377701 0 0.68199835119979291 0.68199835119979291 0 0.73135370988377701 forward_v I I I I #
loop $-1 $-1 $231 $54 #
coedge $-1 $139 $139 $140 $232 reversed $85 $-1 #
coedge $-1 $140 $140 $139 $232 forward $87 $-1 #
coedge $-1 $141 $141 $88 $142 forward $136 $-1 #
edge $-1 $233 0 $233 6.2831853071796004 $141 $234 forward 7 unknown #
loop $-1 $-1 $148 $89 #
plane-surface $-1 -50.812097537156276 24.738168246003383 0.77762688447955952 -0.73135370988377701 0 0.68199835119979291 0.68199835119979291 0 0.73135370988377701 forward_v I I I I #
loop $-1 $-1 $235 $57 #
coedge $-1 $146 $146 $147 $236 reversed $90 $-1 #
coedge $-1 $147 $147 $146 $236 forward $92 $-1 #
coedge $-1 $148 $148 $93 $149 forward $143 $-1 #
edge $-1 $237 0 $237 6.2831853071796004 $148 $238 forward 7 unknown #
face $-1 $239 $240 $32 $-1 $241 forward single #
loop $-1 $-1 $242 $94 #
plane-surface $-1 63.337975867862973 3.7548917981390133 143.39371695312678 0 1 0 0.7660444514056185 0 0.64278759981090561 forward_v I I I I #
coedge $-1 $243 $244 $245 $246 reversed $95 $-1 #
coedge $-1 $155 $97 $247 $248 reversed $61 $-1 #
coedge $-1 $97 $154 $243 $249 reversed $61 $-1 #
coedge $-1 $245 $250 $97 $157 forward $240 $-1 #
edge $-1 $251 -19.143109603224797 $252 -5.7799959446233053 $156 $253 forward 7 unknown #
loop $-1 $-1 $163 $98 #
plane-surface $-1 -14.51067489737634 7.0214869652458205 78.07094451859416 0.7660444514056185 0 0.64278759981090561 0.64278759981090561 0 -0.7660444514056185 forward_v I I I I #
loop $-1 $-1 $254 $63 #
coedge $-1 $161 $161 $162 $255 reversed $99 $-1 #
coedge $-1 $162 $162 $161 $255 forward $101 $-1 #
coedge $-1 $163 $163 $102 $164 forward $158 $-1 #
edge $-1 $256 0 $256 6.2831853071796004 $163 $257 forward 7 unknown #
face $-1 $258 $259 $34 $-1 $260 forward single #
loop $-1 $-1 $171 $103 #
plane-surface $-1 50.812097537156284 0 0 -1 0 0 0 0 1 forward_v I I I I #
coedge $-1 $261 $262 $263 $264 reversed $104 $-1 #
coedge $-1 $170 $106 $265 $266 reversed $67 $-1 #
coedge $-1 $106 $169 $261 $267 reversed $67 $-1 #
coedge $-1 $263 $268 $106 $172 forward $166 $-1 #
edge $-1 $269 55.549025595375753 $270 71.474564723208545 $171 $271 forward 7 unknown #
loop $-1 $-1 $178 $107 #
plane-surface $-1 -14.51067489737634 31.074641626285768 78.07094451859416 0.7660444514056185 0 0.64278759981090561 0.64278759981090561 0 -0.7660444514056185 forward_v I I I I #
loop $-1 $-1 $272 $69 #
coedge $-1 $176 $176 $177 $273 reversed $108 $-1 #
coedge $-1 $177 $177 $176 $273 forward $110 $-1 #
coedge $-1 $178 $178 $111 $179 forward $173 $-1 #
edge $-1 $274 0 $274 6.2831853071796004 $178 $275 forward 7 unknown #
face $-1 $276 $277 $27 $-1 $278 reversed single #
loop $-1 $-1 $279 $112 #
plane-surface $-1 -50.812097537156284 0 0 1 0 0 0 0 -1 forward_v I I I I #
coedge $-1 $280 $191 $281 $282 forward $113 $-1 #
coedge $-1 $283 $115 $280 $284 forward $73 $-1 #
coedge $-1 $115 $283 $285 $286 forward $73 $-1 #
coedge $-1 $194 $193 $115 $187 reversed $195 $-1 #
edge $-1 $287 -34.341236793392568 $288 34.341236793392568 $186 $289 forward 7 unknown #
coedge $-1 $117 $116 $290 $291 forward $46 $-1 #
coedge $-1 $292 $293 $116 $190 reversed $277 $-1 #
edge $-1 $197 -50.812097537156284 $294 50.812097537156284 $189 $295 forward 7 unknown #
coedge $-1 $183 $296 $117 $192 reversed $113 $-1 #
edge $-1 $297 -50.812097537156284 $196 50.812097537156284 $191 $298 forward 7 unknown #
coedge $-1 $186 $118 $296 $299 forward $195 $-1 #
coedge $-1 $118 $186 $292 $300 reversed $195 $-1 #
loop $-1 $-1 $193 $276 #
vertex $-1 $119 $301 #
vertex $-1 $119 $302 #
straight-curve $-1 50.812097537156284 0 16.147832881187639 0 1 0 I I #
face $-1 $303 $304 $28 $-1 $305 reversed single #
loop $-1 $-1 $306 $120 #
plane-surface $-1 -50.812097537156284 0 0 1 0 0 0 0 -1 forward_v I I I I #
coedge $-1 $210 $307 $204 $308 forward $121 $-1 #
coedge $-1 $126 $123 $309 $310 reversed $77 $-1 #
coedge $-1 $123 $126 $202 $308 reversed $77 $-1 #
coedge $-1 $311 $312 $123 $206 forward $313 $-1 #
edge $-1 $314 -16.147832881187639 $315 16.147832881187639 $205 $316 forward 7 unknown #
coedge $-1 $125 $124 $306 $317 reversed $49 $-1 #
coedge $-1 $309 $318 $124 $209 forward $304 $-1 #
edge $-1 $319 -27.309937747170515 $213 -19.694381832801021 $208 $320 forward 7 unknown #
coedge $-1 $321 $202 $125 $211 forward $121 $-1 #
edge $-1 $212 19.694381832801021 $322 27.309937747170515 $210 $323 forward 7 unknown #
vertex $-1 $211 $324 #
vertex $-1 $209 $325 #
straight-curve $-1 -43.196541622786789 -13.765072528687314 0 0 0 -1 I I #
face $-1 $-1 $227 $29 $-1 $326 forward single #
loop $-1 $-1 $327 $128 #
plane-surface $-1 -50.812097537156284 0 0 1 0 0 0 0 -1 forward_v I I I I #
coedge $-1 $328 $329 $330 $331 reversed $129 $-1 #
coedge $-1 $332 $131 $133 $225 forward $81 $-1 #
coedge $-1 $131 $332 $328 $333 forward $81 $-1 #
coedge $-1 $330 $134 $131 $222 forward $227 $-1 #
edge $-1 $229 5.5049061945827376 $334 19.233262051420645 $221 $335 forward 7 unknown #
coedge $-1 $336 $337 $132 $224 forward $216 $-1 #
edge $-1 $338 -34.264953299103873 $228 -18.894747302395785 $223 $339 forward 7 unknown #
edge $-1 $229 -21.016104504550384 $338 1.0448453264673958e-014 $133 $340 forward 7 unknown #
coedge $-1 $134 $330 $336 $341 forward $227 $-1 #
loop $-1 $-1 $330 $215 #
vertex $-1 $224 $342 #
vertex $-1 $135 $343 #
straight-curve $-1 -62.567664809353715 17.873990317584429 16.147832881187639 1 0 0 I I #
coedge $-1 $231 $231 $-1 $344 reversed $138 $-1 #
edge $-1 $345 0 $345 6.2831853071796004 $139 $346 forward 7 unknown #
vertex $-1 $142 $347 #
ellipse-curve $-1 -43.645623226783329 21.796377705252404 8.462729882833596 -0.73135370988377701 0 0.68199835119979291 1.0229975267996894 0 1.0970305648256655 1 I I #
coedge $-1 $235 $235 $-1 $348 reversed $145 $-1 #
edge $-1 $349 0 $349 6.2831853071796004 $146 $350 forward 7 unknown #
vertex $-1 $149 $351 #
ellipse-curve $-1 -43.645623226783329 27.679958786754362 8.462729882833596 -0.73135370988377701 0 0.68199835119979291 1.0229975267996894 0 1.0970305648256655 1 I I #
face $-1 $-1 $352 $32 $-1 $353 reversed single #
loop $-1 $-1 $156 $150 #
plane-surface $-1 0 0 16.147832881187639 0 0 1 1 0 0 forward_v I I I I #
coedge $-1 $354 $355 $356 $357 reversed $151 $-1 #
coedge $-1 $358 $153 $155 $249 forward $95 $-1 #
coedge $-1 $153 $358 $354 $359 forward $95 $-1 #
coedge $-1 $356 $156 $153 $246 forward $240 $-1 #
edge $-1 $252 -6.7773386497297174 $360 -0.24414831551610305 $245 $361 forward 7 unknown #
coedge $-1 $362 $363 $154 $248 forward $352 $-1 #
edge $-1 $364 -71.474564723208545 $251 -55.549025595375753 $247 $365 forward 7 unknown #
edge $-1 $252 80.834880435180395 $364 101.62419507431257 $155 $366 forward 7 unknown #
coedge $-1 $156 $356 $362 $367 forward $240 $-1 #
vertex $-1 $157 $368 #
vertex $-1 $157 $369 #
straight-curve $-1 31.668987933931486 10.288082132352628 16.147832881187639 -1 0 0 I I #
coedge $-1 $254 $254 $-1 $370 reversed $160 $-1 #
edge $-1 $371 0 $371 6.2831853071796004 $161 $372 forward 7 unknown #
vertex $-1 $164 $373 #
ellipse-curve $-1 44.130540707855538 7.0214869652458205 8.1850633172712364 0.7660444514056185 0 0.64278759981090561 0.96418139971635841 0 -1.1490666771084277 1 I I #
face $-1 $-1 $374 $34 $-1 $375 reversed single #
loop $-1 $-1 $265 $165 #
plane-surface $-1 0 0 16.147832881187639 0 0 1 1 0 0 forward_v I I I I #
coedge $-1 $376 $168 $170 $267 forward $104 $-1 #
coedge $-1 $168 $376 $377 $378 reversed $104 $-1 #
coedge $-1 $379 $171 $168 $264 forward $166 $-1 #
edge $-1 $270 12.270725646036077 $380 18.803915980249684 $263 $381 forward 7 unknown #
coedge $-1 $382 $383 $169 $266 forward $259 $-1 #
edge $-1 $384 5.7799959446233053 $269 19.143109603224797 $265 $385 forward 7 unknown #
edge $-1 $270 -101.62419507431257 $384 -80.834880435180395 $170 $386 forward 7 unknown #
coedge $-1 $171 $379 $382 $387 reversed $166 $-1 #
vertex $-1 $387 $388 #
vertex $-1 $172 $389 #
straight-curve $-1 50.812097537156284 27.808046459178961 71.696858476563392 0 0 -1 I I #
coedge $-1 $272 $272 $-1 $390 reversed $175 $-1 #
edge $-1 $391 0 $391 6.2831853071796004 $176 $392 forward 7 unknown #
vertex $-1 $179 $393 #
ellipse-curve $-1 44.130540707855538 31.074641626285768 8.1850633172712364 0.7660444514056185 0 0.64278759981090561 0.96418139971635841 0 -1.1490666771084277 1 I I #
face $-1 $-1 $195 $27 $-1 $394 reversed single #
loop $-1 $-1 $292 $180 #
plane-surface $-1 0 34.341236793392568 0 0 -1 0 0 0 -1 forward_v I I I I #
coedge $-1 $395 $290 $293 $396 forward $181 $-1 #
coedge $-1 $296 $183 $184 $284 reversed $113 $-1 #
coedge $-1 $290 $395 $183 $282 reversed $181 $-1 #
edge $-1 $297 -16.147832881187639 $397 16.147832881187639 $281 $398 forward 7 unknown #
coedge $-1 $185 $184 $395 $399 forward $73 $-1 #
edge $-1 $288 -50.812097537156284 $397 50.812097537156284 $280 $400 forward 7 unknown #
coedge $-1 $293 $292 $185 $286 reversed $277 $-1 #
edge $-1 $401 -50.812097537156284 $287 50.812097537156284 $285 $402 forward 7 unknown #
vertex $-1 $187 $403 #
vertex $-1 $299 $404 #
straight-curve $-1 50.812097537156284 0 -16.147832881187639 0 -1 0 I I #
coedge $-1 $279 $281 $188 $291 reversed $181 $-1 #
edge $-1 $294 -34.341236793392568 $297 34.341236793392568 $290 $405 forward 7 unknown #
coedge $-1 $285 $189 $194 $300 forward $277 $-1 #
coedge $-1 $189 $285 $279 $396 reversed $277 $-1 #
vertex $-1 $190 $406 #
straight-curve $-1 0 34.341236793392568 16.147832881187639 -1 0 0 I I #
coedge $-1 $191 $280 $193 $299 reversed $113 $-1 #
vertex $-1 $291 $407 #
straight-curve $-1 0 -34.341236793392568 16.147832881187639 1 0 0 I I #
edge $-1 $196 -16.147832881187639 $288 16.147832881187639 $193 $408 forward 7 unknown #
edge $-1 $197 -16.147832881187639 $287 16.147832881187639 $194 $409 forward 7 unknown #
point $-1 50.812097537156284 -34.341236793392568 16.147832881187639 #
point $-1 50.812097537156284 34.341236793392568 16.147832881187639 #
face $-1 $-1 $313 $28 $-1 $410 reversed single #
loop $-1 $-1 $309 $199 #
plane-surface $-1 0 0 -16.147832881187639 0 0 1 1 0 0 forward_v I I I I #
coedge $-1 $411 $412 $207 $317 forward $200 $-1 #
coedge $-1 $202 $321 $311 $413 forward $121 $-1 #
edge $-1 $315 -22.314659462872598 $212 -1.7384951981673442 $202 $414 forward 7 unknown #
coedge $-1 $415 $208 $203 $310 forward $304 $-1 #
edge $-1 $213 1.7384951981673442 $314 22.314659462872598 $309 $416 forward 7 unknown #
coedge $-1 $417 $205 $307 $413 reversed $313 $-1 #
coedge $-1 $205 $417 $415 $418 reversed $313 $-1 #
loop $-1 $-1 $205 $303 #
vertex $-1 $418 $419 #
vertex $-1 $206 $420 #
straight-curve $-1 -43.196541622786789 -34.341236793392568 0 0 0 1 I I #
edge $-1 $322 -16.147832881187639 $319 16.147832881187639 $306 $421 forward 7 unknown #
coedge $-1 $208 $415 $411 $422 forward $304 $-1 #
vertex $-1 $209 $423 #
straight-curve $-1 -23.502159789985768 -13.765072528687314 -16.147832881187639 1 0 0 I I #
coedge $-1 $307 $210 $412 $424 forward $121 $-1 #
vertex $-1 $424 $425 #
straight-curve $-1 -23.502159789985768 -13.765072528687314 16.147832881187639 -1 0 0 I I #
point $-1 -43.196541622786789 -13.765072528687314 16.147832881187639 #
point $-1 -43.196541622786789 -13.765072528687314 -16.147832881187639 #
plane-surface $-1 0 0 16.147832881187639 0 0 1 1 0 0 forward_v I I I I #
coedge $-1 $337 $336 $329 $426 forward $216 $-1 #
coedge $-1 $329 $218 $220 $333 reversed $129 $-1 #
coedge $-1 $218 $328 $327 $426 reversed $129 $-1 #
coedge $-1 $226 $221 $218 $331 forward $227 $-1 #
edge $-1 $334 -26.088515892943342 $427 -11.755567272197432 $330 $428 forward 7 unknown #
coedge $-1 $220 $219 $337 $429 reversed $81 $-1 #
edge $-1 $430 -1.0448453264673958e-014 $334 21.016104504550384 $328 $431 forward 7 unknown #
vertex $-1 $222 $432 #
straight-curve $-1 -36.479148916410367 12.369084123001691 16.147832881187639 0 1 0 I I #
coedge $-1 $327 $223 $226 $341 reversed $216 $-1 #
coedge $-1 $223 $327 $332 $429 forward $216 $-1 #
vertex $-1 $224 $433 #
straight-curve $-1 -50.812097537156284 17.873990317584429 35.042580183583425 0 0 1 I I #
straight-curve $-1 -50.812097537156276 17.873990317584429 0.77762688447955952 -0.68199835119979291 0 -0.73135370988377701 I I #
edge $-1 $427 -31.602346174422337 $228 -17.873990317584429 $336 $434 forward 7 unknown #
point $-1 -50.812097537156284 17.873990317584429 16.147832881187639 #
point $-1 -36.479148916410374 17.873990317584429 16.147832881187639 #
edge $-1 $435 1 $435 0 $231 $-1 forward 7 unknown #
vertex $-1 $232 $436 #
ellipse-curve $-1 -39.521957415478894 21.796377705252404 4.6173493970280379 -0.73135370988377701 0 0.68199835119979291 1.0229975267996894 0 1.0970305648256655 1 I I #
point $-1 -42.622625699983644 21.796377705252404 9.5597604476592686 #
edge $-1 $437 1 $437 0 $235 $-1 forward 7 unknown #
vertex $-1 $236 $438 #
ellipse-curve $-1 -39.521957415478894 27.679958786754362 4.6173493970280379 -0.73135370988377701 0 0.68199835119979291 1.0229975267996894 0 1.0970305648256655 1 I I #
point $-1 -42.622625699983644 27.679958786754362 9.5597604476592686 #
loop $-1 $-1 $247 $239 #
plane-surface $-1 50.812097537156284 0 0 -1 0 0 0 0 1 forward_v I I I I #
coedge $-1 $355 $242 $244 $359 reversed $151 $-1 #
coedge $-1 $242 $354 $439 $440 reversed $151 $-1 #
coedge $-1 $250 $245 $242 $357 forward $240 $-1 #
edge $-1 $360 5.7799959446233053 $441 19.143109603224797 $356 $442 forward 7 unknown #
coedge $-1 $244 $243 $363 $443 reversed $95 $-1 #
edge $-1 $444 -101.62419507431257 $360 -80.834880435180395 $354 $445 forward 7 unknown #
vertex $-1 $246 $446 #
straight-curve $-1 37.448983878554799 3.5107434826229102 16.147832881187639 0 -1 0 I I #
coedge $-1 $439 $247 $250 $367 reversed $352 $-1 #
coedge $-1 $247 $439 $358 $443 forward $352 $-1 #
vertex $-1 $248 $447 #
straight-curve $-1 50.812097537156284 10.288082132352628 71.696858476563392 0 0 1 I I #
straight-curve $-1 -14.51067489737634 10.288082132352628 78.07094451859416 0.64278759981090561 0 -0.7660444514056185 I I #
edge $-1 $441 3.7548917981390133 $251 10.288082132352628 $362 $448 forward 7 unknown #
point $-1 50.812097537156284 10.288082132352628 16.147832881187639 #
point $-1 37.448983878554792 10.288082132352628 16.147832881187647 #
edge $-1 $449 1 $449 0 $254 $-1 forward 7 unknown #
vertex $-1 $255 $450 #
ellipse-curve $-1 41.43645679816423 7.0214869652458205 5.9244585614739647 0.7660444514056185 0 0.64278759981090561 0.96418139971635841 0 -1.1490666771084277 1 I I #
point $-1 45.094722107571897 7.0214869652458205 7.0359966401628098 #
loop $-1 $-1 $377 $258 #
plane-surface $-1 0 34.341236793392568 0 0 -1 0 0 0 -1 forward_v I I I I #
coedge $-1 $262 $261 $383 $451 reversed $104 $-1 #
coedge $-1 $452 $453 $262 $378 forward $374 $-1 #
edge $-1 $380 -67.057647197619644 $454 -46.268332558487458 $377 $455 forward 7 unknown #
coedge $-1 $268 $263 $453 $456 reversed $166 $-1 #
vertex $-1 $264 $457 #
straight-curve $-1 50.812097537156276 15.537320813142884 0.22229375335484747 0 1 0 I I #
coedge $-1 $458 $265 $268 $387 forward $259 $-1 #
coedge $-1 $265 $458 $376 $451 forward $259 $-1 #
vertex $-1 $266 $459 #
straight-curve $-1 31.668987933931486 27.808046459178961 16.147832881187639 1 0 0 I I #
straight-curve $-1 -14.51067489737634 27.808046459178961 78.07094451859416 -0.64278759981090561 0 0.7660444514056185 I I #
edge $-1 $269 27.808046459178961 $460 34.341236793392568 $268 $461 forward 7 unknown #
point $-1 50.812097537156284 27.808046459178961 16.147832881187639 #
point $-1 50.812097537156284 27.808046459178961 0.22229375335484747 #
edge $-1 $462 1 $462 0 $272 $-1 forward 7 unknown #
vertex $-1 $273 $463 #
ellipse-curve $-1 41.43645679816423 31.074641626285768 5.9244585614739647 0.7660444514056185 0 0.64278759981090561 0.96418139971635841 0 -1.1490666771084277 1 I I #
point $-1 45.094722107571897 31.074641626285768 7.0359966401628098 #
plane-surface $-1 50.812097537156284 0 0 -1 0 0 0 0 1 forward_v I I I I #
coedge $-1 $281 $279 $283 $399 reversed $181 $-1 #
edge $-1 $294 -16.147832881187639 $401 16.147832881187639 $293 $464 forward 7 unknown #
vertex $-1 $399 $465 #
straight-curve $-1 -50.812097537156284 -34.341236793392568 0 0 0 -1 I I #
edge $-1 $397 -34.341236793392568 $401 34.341236793392568 $395 $466 forward 7 unknown #
straight-curve $-1 0 -34.341236793392568 -16.147832881187639 -1 0 0 I I #
vertex $-1 $286 $467 #
straight-curve $-1 0 34.341236793392568 -16.147832881187639 1 0 0 I I #
point $-1 50.812097537156284 34.341236793392568 -16.147832881187639 #
point $-1 50.812097537156284 -34.341236793392568 -16.147832881187639 #
straight-curve $-1 -50.812097537156284 0 16.147832881187639 0 -1 0 I I #
point $-1 -50.812097537156284 34.341236793392568 16.147832881187639 #
point $-1 -50.812097537156284 -34.341236793392568 16.147832881187639 #
straight-curve $-1 50.812097537156284 -34.341236793392568 0 0 0 -1 I I #
straight-curve $-1 50.812097537156284 34.341236793392568 0 0 0 -1 I I #
plane-surface $-1 0 -34.341236793392568 0 0 1 0 0 0 1 forward_v I I I I #
coedge $-1 $468 $306 $318 $422 reversed $200 $-1 #
coedge $-1 $306 $468 $321 $424 reversed $200 $-1 #
edge $-1 $469 -50.812097537156284 $315 -43.196541622786789 $311 $470 forward 7 unknown #
straight-curve $-1 -43.196541622786789 -12.02657733051997 16.147832881187639 0 1 0 I I #
coedge $-1 $318 $309 $312 $418 forward $304 $-1 #
straight-curve $-1 -43.196541622786789 -12.02657733051997 -16.147832881187639 0 -1 0 I I #
coedge $-1 $312 $311 $468 $471 forward $313 $-1 #
edge $-1 $314 43.196541622786789 $472 50.812097537156284 $312 $473 forward 7 unknown #
point $-1 -43.196541622786789 -34.341236793392568 -16.147832881187639 #
point $-1 -43.196541622786789 -34.341236793392568 16.147832881187639 #
straight-curve $-1 -50.812097537156284 -13.765072528687314 0 0 0 -1 I I #
edge $-1 $472 -34.341236793392568 $319 -13.765072528687314 $411 $474 forward 7 unknown #
point $-1 -50.812097537156284 -13.765072528687314 -16.147832881187639 #
edge $-1 $322 13.765072528687314 $469 34.341236793392568 $412 $475 forward 7 unknown #
point $-1 -50.812097537156284 -13.765072528687314 16.147832881187639 #
edge $-1 $427 18.894747302395785 $430 34.264953299103873 $327 $476 forward 7 unknown #
vertex $-1 $341 $477 #
straight-curve $-1 -62.567664809353715 31.602346174422337 16.147832881187639 -1 0 0 I I #
edge $-1 $430 -19.233262051420645 $338 -5.5049061945827376 $337 $478 forward 7 unknown #
vertex $-1 $429 $479 #
straight-curve $-1 -50.812097537156276 31.602346174422337 0.77762688447955952 0.68199835119979291 0 0.73135370988377701 I I #
point $-1 -36.479148916410374 31.602346174422337 16.147832881187639 #
point $-1 -50.812097537156284 17.873990317584429 0.77762688447955186 #
straight-curve $-1 -50.812097537156284 0 16.147832881187639 0 -1 0 I I #
vertex $-1 $344 $480 #
point $-1 -38.498959888679209 21.796377705252404 5.7143799618537034 #
vertex $-1 $348 $481 #
point $-1 -38.498959888679209 27.679958786754362 5.7143799618537034 #
coedge $-1 $363 $362 $355 $440 forward $352 $-1 #
edge $-1 $441 55.549025595375753 $444 71.474564723208545 $439 $482 forward 7 unknown #
vertex $-1 $367 $483 #
straight-curve $-1 31.668987933931486 3.7548917981390133 16.147832881187639 1 0 0 I I #
edge $-1 $444 0.24414831551610305 $364 6.7773386497297174 $363 $484 forward 7 unknown #
vertex $-1 $443 $485 #
straight-curve $-1 -14.51067489737634 3.7548917981390133 78.07094451859416 -0.64278759981090561 0 0.7660444514056185 I I #
point $-1 37.448983878554792 3.7548917981390133 16.147832881187647 #
point $-1 50.812097537156284 10.288082132352628 0.22229375335484747 #
straight-curve $-1 50.812097537156284 0 16.147832881187639 0 1 0 I I #
vertex $-1 $370 $486 #
point $-1 42.400638197880589 7.0214869652458205 4.7753918843655372 #
edge $-1 $454 -18.803915980249691 $384 -12.270725646036077 $383 $487 forward 7 unknown #
coedge $-1 $453 $377 $458 $488 reversed $374 $-1 #
coedge $-1 $377 $452 $379 $456 forward $374 $-1 #
vertex $-1 $378 $489 #
straight-curve $-1 7.7082734460318569 34.341236793392568 51.591432313406884 -0.64278759981090572 0 0.76604445140561861 I I #
edge $-1 $460 -16.147832881187639 $380 -0.22229375335484147 $379 $490 forward 7 unknown #
point $-1 50.812097537156284 34.341236793392568 0.22229375335484147 #
coedge $-1 $383 $382 $452 $488 forward $259 $-1 #
point $-1 37.448983878554792 27.808046459178961 16.147832881187647 #
vertex $-1 $387 $491 #
straight-curve $-1 50.812097537156284 0 16.147832881187639 0 1 0 I I #
vertex $-1 $390 $492 #
point $-1 42.400638197880589 31.074641626285768 4.7753918843655372 #
straight-curve $-1 -50.812097537156284 34.341236793392568 0 0 0 -1 I I #
point $-1 -50.812097537156284 -34.341236793392568 -16.147832881187639 #
straight-curve $-1 -50.812097537156284 0 -16.147832881187639 0 1 0 I I #
point $-1 -50.812097537156284 34.341236793392568 -16.147832881187639 #
coedge $-1 $412 $411 $417 $471 reversed $200 $-1 #
vertex $-1 $424 $493 #
straight-curve $-1 0 -34.341236793392568 16.147832881187639 1 0 0 I I #
edge $-1 $469 -16.147832881187639 $472 16.147832881187639 $468 $494 forward 7 unknown #
vertex $-1 $422 $495 #
straight-curve $-1 0 -34.341236793392568 -16.147832881187639 -1 0 0 I I #
straight-curve $-1 -50.812097537156284 0 -16.147832881187639 0 1 0 I I #
straight-curve $-1 -50.812097537156284 0 16.147832881187639 0 -1 0 I I #
straight-curve $-1 -50.812097537156284 31.602346174422337 35.042580183583425 0 0 -1 I I #
point $-1 -50.812097537156284 31.602346174422337 16.147832881187639 #
straight-curve $-1 -50.812097537156284 12.369084123001691 0.77762688447955053 0 -1 0 I I #
point $-1 -50.812097537156284 31.602346174422337 0.77762688447955186 #
point $-1 -38.424926850653236 21.796377705252404 3.594351870228349 #
point $-1 -38.424926850653236 27.679958786754362 3.594351870228349 #
straight-curve $-1 50.812097537156284 3.7548917981390133 71.696858476563392 0 0 -1 I I #
point $-1 50.812097537156284 3.7548917981390133 16.147832881187639 #
straight-curve $-1 50.812097537156276 3.5107434826229102 0.22229375335484747 0 1 0 I I #
point $-1 50.812097537156284 3.7548917981390133 0.22229375335484747 #
point $-1 40.287390121055807 7.0214869652458205 4.9602771617576069 #
straight-curve $-1 37.448983878554799 15.537320813142884 16.147832881187639 0 -1 0 I I #
edge $-1 $460 -50.812097537156284 $454 -37.448983878554792 $452 $496 forward 7 unknown #
point $-1 37.448983878554792 34.341236793392575 16.147832881187647 #
straight-curve $-1 50.812097537156284 34.341236793392568 0 0 0 -1 I I #
point $-1 50.812097537156284 34.341236793392568 16.147832881187639 #
point $-1 40.287390121055807 31.074641626285768 4.9602771617576069 #
point $-1 -50.812097537156284 -34.341236793392568 16.147832881187639 #
straight-curve $-1 -50.812097537156284 -34.341236793392568 0 0 0 -1 I I #
point $-1 -50.812097537156284 -34.341236793392568 -16.147832881187639 #
straight-curve $-1 0 34.341236793392568 16.147832881187639 -1 0 0 I I #
End-of-ACIS-data 