500 0 16 0           
7 Unknown 11 ACIS 5.0 NT 24 Fri Mar 26 18:46:35 1999 
-1 9.9999999999999995e-007 1e-010 
body $-1 $16 $-1 $17 #
body $-1 $18 $-1 $19 #
body $-1 $20 $-1 $21 #
body $-1 $22 $-1 $23 #
body $-1 $24 $-1 $25 #
body $-1 $26 $-1 $27 #
body $-1 $28 $-1 $29 #
body $-1 $30 $-1 $31 #
body $-1 $32 $-1 $33 #
body $-1 $34 $-1 $35 #
body $-1 $36 $-1 $37 #
body $-1 $38 $-1 $39 #
body $-1 $40 $-1 $41 #
body $-1 $42 $-1 $43 #
body $-1 $44 $-1 $45 #
body $-1 $46 $-1 $47 #
lump $-1 $-1 $48 $0 #
transform $-1 1 0 0 0 1 0 0 0 1 46.729941709646901 27.463092760913153 12.064500526351646 1 rotate no_reflect no_shear #
lump $-1 $-1 $49 $1 #
transform $-1 1 0 0 0 1 0 0 0 1 46.729941709646901 27.463092760913153 12.064500526351646 1 rotate no_reflect no_shear #
lump $-1 $-1 $50 $2 #
transform $-1 1 0 0 0 1 0 0 0 1 46.729941709646901 27.463092760913153 12.064500526351646 1 rotate no_reflect no_shear #
lump $-1 $-1 $51 $3 #
transform $-1 1 0 0 0 1 0 0 0 1 46.729941709646901 27.463092760913153 12.064500526351646 1 rotate no_reflect no_shear #
lump $-1 $-1 $52 $4 #
transform $-1 1 0 0 0 1 0 0 0 1 46.729941709646901 27.463092760913153 12.064500526351646 1 rotate no_reflect no_shear #
lump $-1 $-1 $53 $5 #
transform $-1 1 0 0 0 1 0 0 0 1 46.729941709646901 27.463092760913153 12.064500526351646 1 rotate no_reflect no_shear #
lump $-1 $-1 $54 $6 #
transform $-1 1 0 0 0 1 0 0 0 1 46.729941709646901 27.463092760913153 12.064500526351646 1 rotate no_reflect no_shear #
lump $-1 $-1 $55 $7 #
transform $-1 1 0 0 0 1 0 0 0 1 46.729941709646901 27.463092760913153 12.064500526351646 1 rotate no_reflect no_shear #
lump $-1 $-1 $56 $8 #
transform $-1 1 0 0 0 1 0 0 0 1 46.729941709646901 27.463092760913153 12.064500526351646 1 rotate no_reflect no_shear #
lump $-1 $-1 $57 $9 #
transform $-1 1 0 0 0 1 0 0 0 1 46.729941709646901 27.463092760913153 12.064500526351646 1 rotate no_reflect no_shear #
lump $-1 $-1 $58 $10 #
transform $-1 1 0 0 0 1 0 0 0 1 46.729941709646901 27.463092760913153 12.064500526351646 1 rotate no_reflect no_shear #
lump $-1 $-1 $59 $11 #
transform $-1 1 0 0 0 1 0 0 0 1 46.729941709646901 27.463092760913153 12.064500526351646 1 rotate no_reflect no_shear #
lump $-1 $-1 $60 $12 #
transform $-1 1 0 0 0 1 0 0 0 1 46.729941709646901 27.463092760913153 12.064500526351646 1 rotate no_reflect no_shear #
lump $-1 $-1 $61 $13 #
transform $-1 1 0 0 0 1 0 0 0 1 46.729941709646901 27.463092760913153 12.064500526351646 1 rotate no_reflect no_shear #
lump $-1 $-1 $62 $14 #
transform $-1 1 0 0 0 1 0 0 0 1 46.729941709646901 27.463092760913153 12.064500526351646 1 rotate no_reflect no_shear #
lump $-1 $-1 $63 $15 #
transform $-1 1 0 0 0 1 0 0 0 1 46.729941709646901 27.463092760913153 12.064500526351646 1 rotate no_reflect no_shear #
shell $-1 $-1 $-1 $64 $-1 $16 #
shell $-1 $-1 $-1 $65 $-1 $18 #
shell $-1 $-1 $-1 $66 $-1 $20 #
shell $-1 $-1 $-1 $67 $-1 $22 #
shell $-1 $-1 $-1 $68 $-1 $24 #
shell $-1 $-1 $-1 $69 $-1 $26 #
shell $-1 $-1 $-1 $70 $-1 $28 #
shell $-1 $-1 $-1 $71 $-1 $30 #
shell $-1 $-1 $-1 $72 $-1 $32 #
shell $-1 $-1 $-1 $73 $-1 $34 #
shell $-1 $-1 $-1 $74 $-1 $36 #
shell $-1 $-1 $-1 $75 $-1 $38 #
shell $-1 $-1 $-1 $76 $-1 $40 #
shell $-1 $-1 $-1 $77 $-1 $42 #
shell $-1 $-1 $-1 $78 $-1 $44 #
shell $-1 $-1 $-1 $79 $-1 $46 #
face $-1 $80 $81 $48 $-1 $82 forward single #
face $-1 $83 $84 $49 $-1 $85 reversed single #
face $-1 $86 $87 $50 $-1 $88 reversed single #
face $-1 $89 $90 $51 $-1 $91 reversed single #
face $-1 $92 $93 $52 $-1 $94 forward single #
face $-1 $95 $96 $53 $-1 $97 forward single #
face $-1 $98 $99 $54 $-1 $100 reversed single #
face $-1 $101 $102 $55 $-1 $103 forward single #
face $-1 $104 $105 $56 $-1 $106 forward single #
face $-1 $107 $108 $57 $-1 $109 reversed single #
face $-1 $110 $111 $58 $-1 $112 forward single #
face $-1 $113 $114 $59 $-1 $115 forward single #
face $-1 $116 $117 $60 $-1 $118 reversed single #
face $-1 $119 $120 $61 $-1 $121 forward single #
face $-1 $122 $123 $62 $-1 $124 forward single #
face $-1 $125 $126 $63 $-1 $127 forward single #
face $-1 $128 $129 $48 $-1 $130 reversed single #
loop $-1 $-1 $131 $64 #
plane-surface $-1 0 0 12.064500526351646 0 0 1 1 0 0 forward_v I I I I #
face $-1 $132 $133 $49 $-1 $134 reversed single #
loop $-1 $-1 $135 $65 #
plane-surface $-1 -28.669531329737367 -20.354080210854196 0 1 0 0 0 0 -1 forward_v I I I I #
face $-1 $136 $137 $50 $-1 $138 reversed single #
loop $-1 $-1 $139 $66 #
plane-surface $-1 -25.635235993340487 13.24506766079524 0 0 1 0 0 0 1 forward_v I I I I #
face $-1 $140 $141 $51 $-1 $142 reversed single #
loop $-1 $-1 $143 $67 #
plane-surface $-1 -96.256135020458373 -13.245067660795243 80.443856960826736 0 1 0 -0.52991927123019833 0 0.84804809178421925 forward_v I I I I #
face $-1 $144 $145 $52 $-1 $146 forward single #
loop $-1 $147 $148 $68 #
cone-surface $-1 -37.75986705706417 -11.754633645847973 6.2009168016432348 0.52991927123019833 0 -0.84804809178421925 0.42402404589210962 0 0.26495963561509916 1 I I 0 1 0.5 forward I I I I #
face $-1 $149 $150 $53 $-1 $151 forward single #
loop $-1 $152 $153 $69 #
cone-surface $-1 -37.75986705706417 -9.5189826234270711 6.2009168016432348 0.52991927123019833 0 -0.84804809178421925 0.42402404589210962 0 0.26495963561509916 1 I I 0 1 0.5 forward I I I I #
face $-1 $154 $155 $54 $-1 $156 reversed single #
loop $-1 $-1 $157 $70 #
plane-surface $-1 -96.256135020458373 -4.4150225535984182 80.443856960826736 0 1 0 -0.52991927123019833 0 0.84804809178421925 forward_v I I I I #
face $-1 $158 $159 $55 $-1 $160 forward single #
loop $-1 $161 $162 $71 #
cone-surface $-1 -37.75986705706417 -2.9245885386511468 6.2009168016432348 0.52991927123019833 0 -0.84804809178421925 0.42402404589210962 0 0.26495963561509916 1 I I 0 1 0.5 forward I I I I #
face $-1 $163 $164 $56 $-1 $165 forward single #
loop $-1 $166 $167 $72 #
cone-surface $-1 -37.75986705706417 -0.68893751623024357 6.2009168016432348 0.52991927123019833 0 -0.84804809178421925 0.42402404589210962 0 0.26495963561509916 1 I I 0 1 0.5 forward I I I I #
face $-1 $168 $169 $57 $-1 $170 reversed single #
loop $-1 $-1 $171 $73 #
plane-surface $-1 -96.256135020458373 4.4150225535984058 80.443856960826736 0 1 0 -0.52991927123019833 0 0.84804809178421925 forward_v I I I I #
face $-1 $172 $173 $58 $-1 $174 forward single #
loop $-1 $175 $176 $74 #
cone-surface $-1 -37.75986705706417 5.9054565685456772 6.2009168016432348 0.52991927123019833 0 -0.84804809178421925 0.42402404589210962 0 0.26495963561509916 1 I I 0 1 0.5 forward I I I I #
face $-1 $177 $178 $59 $-1 $179 forward single #
loop $-1 $180 $181 $75 #
cone-surface $-1 -37.75986705706417 8.1411075909665804 6.2009168016432348 0.52991927123019833 0 -0.84804809178421925 0.42402404589210962 0 0.26495963561509916 1 I I 0 1 0.5 forward I I I I #
face $-1 $182 $183 $60 $-1 $184 reversed single #
loop $-1 $-1 $185 $76 #
plane-surface $-1 19.249790020393171 5.0916547330969486 134.1557742404587 0 -1 0 -0.54463904215088732 0 -0.83867056331134215 forward_v I I I I #
face $-1 $186 $187 $61 $-1 $188 forward single #
loop $-1 $189 $190 $77 #
cone-surface $-1 40.919743754023415 -0.95119023641249711 8.0488248721048681 -0.54463904215088732 0 -0.83867056331134215 0.20966764082783554 0 -0.13615976053772183 1 I I 0 1 0.25 forward I I I I #
face $-1 $191 $192 $62 $-1 $193 forward single #
loop $-1 $194 $195 $78 #
cone-surface $-1 40.919743754023415 1.314876627153545 8.0488248721048681 -0.54463904215088732 0 -0.83867056331134215 0.20966764082783554 0 -0.13615976053772183 1 I I 0 1 0.25 forward I I I I #
face $-1 $196 $197 $63 $-1 $198 forward single #
loop $-1 $199 $200 $79 #
cone-surface $-1 40.919743754023415 3.5809434907195872 8.0488248721048681 -0.54463904215088732 0 -0.83867056331134215 0.20966764082783554 0 -0.13615976053772183 1 I I 0 1 0.25 forward I I I I #
face $-1 $201 $202 $48 $-1 $203 reversed single #
loop $-1 $-1 $204 $80 #
plane-surface $-1 0 0 -12.064500526351646 0 0 1 1 0 0 forward_v I I I I #
coedge $-1 $205 $206 $207 $208 forward $81 $-1 #
face $-1 $209 $210 $49 $-1 $211 reversed single #
loop $-1 $-1 $212 $83 #
plane-surface $-1 -25.635235993340487 -13.24506766079524 0 0 -1 0 0 0 -1 forward_v I I I I #
coedge $-1 $213 $214 $215 $216 forward $84 $-1 #
face $-1 $217 $218 $50 $-1 $219 reversed single #
loop $-1 $-1 $220 $86 #
plane-surface $-1 -28.669531329737367 20.354080210854196 0 1 0 0 0 0 -1 forward_v I I I I #
coedge $-1 $221 $222 $223 $224 forward $87 $-1 #
face $-1 $225 $226 $51 $-1 $227 reversed single #
loop $-1 $-1 $228 $89 #
plane-surface $-1 -46.729941709646901 -10.636808134637523 1.185381168719033 -0.52991927123019833 0 0.84804809178421925 0.84804809178421925 0 0.52991927123019833 forward_v I I I I #
coedge $-1 $229 $230 $231 $232 reversed $90 $-1 #
face $-1 $-1 $233 $52 $-1 $234 forward single #
loop $-1 $235 $236 $92 #
cone-surface $-1 -37.362427603641521 -11.754633645847973 5.5648807328050705 0.52991927123019833 0 -0.84804809178421925 0.21201202294605481 0 0.13247981780754958 1 I I -0.70710678118654746 0.70710678118654746 0.25 forward I I I I #
loop $-1 $-1 $237 $68 #
coedge $-1 $148 $148 $238 $239 reversed $93 $-1 #
face $-1 $-1 $240 $53 $-1 $241 forward single #
loop $-1 $242 $243 $95 #
cone-surface $-1 -37.362427603641521 -9.5189826234270711 5.5648807328050705 0.52991927123019833 0 -0.84804809178421925 0.21201202294605481 0 0.13247981780754958 1 I I -0.70710678118654746 0.70710678118654746 0.25 forward I I I I #
loop $-1 $-1 $244 $69 #
coedge $-1 $153 $153 $245 $246 reversed $96 $-1 #
face $-1 $247 $248 $54 $-1 $249 reversed single #
loop $-1 $-1 $250 $98 #
plane-surface $-1 -46.729941709646901 -1.8067630274406987 1.185381168719033 -0.52991927123019833 0 0.84804809178421925 0.84804809178421925 0 0.52991927123019833 forward_v I I I I #
coedge $-1 $251 $252 $253 $254 reversed $99 $-1 #
face $-1 $-1 $255 $55 $-1 $256 forward single #
loop $-1 $257 $258 $101 #
cone-surface $-1 -37.362427603641521 -2.9245885386511468 5.5648807328050705 0.52991927123019833 0 -0.84804809178421925 0.21201202294605481 0 0.13247981780754958 1 I I -0.70710678118654746 0.70710678118654746 0.25 forward I I I I #
loop $-1 $-1 $259 $71 #
coedge $-1 $162 $162 $260 $261 reversed $102 $-1 #
face $-1 $-1 $262 $56 $-1 $263 forward single #
loop $-1 $264 $265 $104 #
cone-surface $-1 -37.362427603641521 -0.68893751623024357 5.5648807328050705 0.52991927123019833 0 -0.84804809178421925 0.21201202294605481 0 0.13247981780754958 1 I I -0.70710678118654746 0.70710678118654746 0.25 forward I I I I #
loop $-1 $-1 $266 $72 #
coedge $-1 $167 $167 $267 $268 reversed $105 $-1 #
face $-1 $269 $270 $57 $-1 $271 reversed single #
loop $-1 $-1 $272 $107 #
plane-surface $-1 -46.729941709646901 7.0232820797561253 1.185381168719033 -0.52991927123019833 0 0.84804809178421925 0.84804809178421925 0 0.52991927123019833 forward_v I I I I #
coedge $-1 $273 $274 $275 $276 reversed $108 $-1 #
face $-1 $-1 $277 $58 $-1 $278 forward single #
loop $-1 $279 $280 $110 #
cone-surface $-1 -37.362427603641521 5.9054565685456772 5.5648807328050705 0.52991927123019833 0 -0.84804809178421925 0.21201202294605481 0 0.13247981780754958 1 I I -0.70710678118654746 0.70710678118654746 0.25 forward I I I I #
loop $-1 $-1 $281 $74 #
coedge $-1 $176 $176 $282 $283 reversed $111 $-1 #
face $-1 $-1 $284 $59 $-1 $285 forward single #
loop $-1 $286 $287 $113 #
cone-surface $-1 -37.362427603641521 8.1411075909665804 5.5648807328050705 0.52991927123019833 0 -0.84804809178421925 0.21201202294605481 0 0.13247981780754958 1 I I -0.70710678118654746 0.70710678118654746 0.25 forward I I I I #
loop $-1 $-1 $288 $75 #
coedge $-1 $181 $181 $289 $290 reversed $114 $-1 #
face $-1 $291 $292 $60 $-1 $293 reversed single #
loop $-1 $-1 $294 $116 #
plane-surface $-1 -31.652111364624602 1.314876627153545 55.773721166187201 0.54463904215088732 0 0.83867056331134215 0.83867056331134215 0 -0.54463904215088732 forward_v I I I I #
coedge $-1 $295 $296 $297 $298 reversed $117 $-1 #
face $-1 $-1 $299 $61 $-1 $300 forward single #
loop $-1 $301 $302 $119 #
cone-surface $-1 40.579344352679108 -0.95119023641249711 7.5246557700352792 -0.54463904215088732 0 -0.83867056331134215 0.10483382041391777 0 -0.068079880268860915 1 I I -0.70710678118654746 0.70710678118654746 0.125 forward I I I I #
loop $-1 $-1 $303 $77 #
coedge $-1 $190 $190 $304 $305 reversed $120 $-1 #
face $-1 $-1 $306 $62 $-1 $307 forward single #
loop $-1 $308 $309 $122 #
cone-surface $-1 40.579344352679108 1.314876627153545 7.5246557700352792 -0.54463904215088732 0 -0.83867056331134215 0.10483382041391777 0 -0.068079880268860915 1 I I -0.70710678118654746 0.70710678118654746 0.125 forward I I I I #
loop $-1 $-1 $310 $78 #
coedge $-1 $195 $195 $311 $312 reversed $123 $-1 #
face $-1 $-1 $313 $63 $-1 $314 forward single #
loop $-1 $315 $316 $125 #
cone-surface $-1 40.579344352679108 3.5809434907195872 7.5246557700352792 -0.54463904215088732 0 -0.83867056331134215 0.10483382041391777 0 -0.068079880268860915 1 I I -0.70710678118654746 0.70710678118654746 0.125 forward I I I I #
loop $-1 $-1 $317 $79 #
coedge $-1 $200 $200 $318 $319 reversed $126 $-1 #
face $-1 $320 $321 $48 $-1 $322 reversed single #
loop $-1 $-1 $323 $128 #
plane-surface $-1 0 -27.463092760913153 0 0 1 0 0 0 1 forward_v I I I I #
coedge $-1 $324 $325 $326 $327 forward $129 $-1 #
coedge $-1 $328 $131 $329 $330 forward $81 $-1 #
coedge $-1 $131 $328 $331 $332 forward $81 $-1 #
coedge $-1 $333 $334 $131 $208 reversed $335 $-1 #
edge $-1 $336 -27.463092760913153 $337 27.463092760913153 $207 $338 forward 7 unknown #
face $-1 $339 $340 $49 $-1 $341 forward single #
loop $-1 $-1 $342 $132 #
plane-surface $-1 -22.600940656943607 -20.354080210854196 0 -1 0 0 0 0 1 forward_v I I I I #
coedge $-1 $343 $344 $345 $346 forward $133 $-1 #
coedge $-1 $347 $135 $348 $349 reversed $84 $-1 #
coedge $-1 $135 $347 $350 $351 reversed $84 $-1 #
coedge $-1 $344 $343 $135 $216 reversed $133 $-1 #
edge $-1 $352 -12.064500526351646 $353 12.064500526351646 $215 $354 forward 7 unknown #
face $-1 $355 $356 $50 $-1 $357 reversed single #
loop $-1 $-1 $358 $136 #
plane-surface $-1 -22.600940656943607 20.354080210854196 0 -1 0 0 0 0 1 forward_v I I I I #
coedge $-1 $359 $360 $361 $362 reversed $137 $-1 #
coedge $-1 $363 $139 $364 $365 reversed $87 $-1 #
coedge $-1 $139 $363 $366 $367 reversed $87 $-1 #
coedge $-1 $360 $359 $139 $224 reversed $137 $-1 #
edge $-1 $368 -12.064500526351646 $369 12.064500526351646 $223 $370 forward 7 unknown #
face $-1 $371 $372 $51 $-1 $373 reversed single #
loop $-1 $-1 $374 $140 #
plane-surface $-1 -96.256135020458373 -8.0285486084798023 80.443856960826736 0 -1 0 0.52991927123019833 0 -0.84804809178421925 forward_v I I I I #
coedge $-1 $375 $376 $377 $378 reversed $141 $-1 #
coedge $-1 $230 $143 $379 $380 reversed $90 $-1 #
coedge $-1 $143 $229 $375 $381 reversed $90 $-1 #
coedge $-1 $377 $382 $143 $232 forward $383 $-1 #
edge $-1 $384 1.3981258005822852 $385 18.80835583451757 $231 $386 forward 7 unknown #
loop $-1 $-1 $238 $144 #
plane-surface $-1 -46.729941709646901 -10.636808134637523 1.185381168719033 -0.52991927123019833 0 0.84804809178421925 0.84804809178421925 0 0.52991927123019833 forward_v I I I I #
loop $-1 $-1 $387 $92 #
coedge $-1 $236 $236 $237 $388 reversed $145 $-1 #
coedge $-1 $237 $237 $236 $388 forward $147 $-1 #
coedge $-1 $238 $238 $148 $239 forward $233 $-1 #
edge $-1 $389 0 $389 6.2831853071796004 $238 $390 forward 7 unknown #
loop $-1 $-1 $245 $149 #
plane-surface $-1 -46.729941709646901 -10.636808134637523 1.185381168719033 -0.52991927123019833 0 0.84804809178421925 0.84804809178421925 0 0.52991927123019833 forward_v I I I I #
loop $-1 $-1 $391 $95 #
coedge $-1 $243 $243 $244 $392 reversed $150 $-1 #
coedge $-1 $244 $244 $243 $392 forward $152 $-1 #
coedge $-1 $245 $245 $153 $246 forward $240 $-1 #
edge $-1 $393 0 $393 6.2831853071796004 $245 $394 forward 7 unknown #
face $-1 $395 $396 $54 $-1 $397 forward single #
loop $-1 $-1 $398 $154 #
plane-surface $-1 -96.256135020458373 0.80149649871702078 80.443856960826736 0 -1 0 0.52991927123019833 0 -0.84804809178421925 forward_v I I I I #
coedge $-1 $399 $400 $401 $402 reversed $155 $-1 #
coedge $-1 $252 $157 $403 $404 reversed $99 $-1 #
coedge $-1 $157 $251 $399 $405 reversed $99 $-1 #
coedge $-1 $401 $406 $157 $254 forward $396 $-1 #
edge $-1 $407 1.3981258005822852 $408 18.80835583451757 $253 $409 forward 7 unknown #
loop $-1 $-1 $260 $158 #
plane-surface $-1 -46.729941709646901 -1.8067630274406987 1.185381168719033 -0.52991927123019833 0 0.84804809178421925 0.84804809178421925 0 0.52991927123019833 forward_v I I I I #
loop $-1 $-1 $410 $101 #
coedge $-1 $258 $258 $259 $411 reversed $159 $-1 #
coedge $-1 $259 $259 $258 $411 forward $161 $-1 #
coedge $-1 $260 $260 $162 $261 forward $255 $-1 #
edge $-1 $412 0 $412 6.2831853071796004 $260 $413 forward 7 unknown #
loop $-1 $-1 $267 $163 #
plane-surface $-1 -46.729941709646901 -1.8067630274406987 1.185381168719033 -0.52991927123019833 0 0.84804809178421925 0.84804809178421925 0 0.52991927123019833 forward_v I I I I #
loop $-1 $-1 $414 $104 #
coedge $-1 $265 $265 $266 $415 reversed $164 $-1 #
coedge $-1 $266 $266 $265 $415 forward $166 $-1 #
coedge $-1 $267 $267 $167 $268 forward $262 $-1 #
edge $-1 $416 0 $416 6.2831853071796004 $267 $417 forward 7 unknown #
face $-1 $418 $419 $57 $-1 $420 forward single #
loop $-1 $-1 $421 $168 #
plane-surface $-1 -96.256135020458373 9.6315416059138457 80.443856960826736 0 -1 0 0.52991927123019833 0 -0.84804809178421925 forward_v I I I I #
coedge $-1 $422 $423 $424 $425 reversed $169 $-1 #
coedge $-1 $274 $171 $426 $427 reversed $108 $-1 #
coedge $-1 $171 $273 $422 $428 reversed $108 $-1 #
coedge $-1 $424 $429 $171 $276 forward $419 $-1 #
edge $-1 $430 1.3981258005822852 $431 18.80835583451757 $275 $432 forward 7 unknown #
loop $-1 $-1 $282 $172 #
plane-surface $-1 -46.729941709646901 7.0232820797561253 1.185381168719033 -0.52991927123019833 0 0.84804809178421925 0.84804809178421925 0 0.52991927123019833 forward_v I I I I #
loop $-1 $-1 $433 $110 #
coedge $-1 $280 $280 $281 $434 reversed $173 $-1 #
coedge $-1 $281 $281 $280 $434 forward $175 $-1 #
coedge $-1 $282 $282 $176 $283 forward $277 $-1 #
edge $-1 $435 0 $435 6.2831853071796004 $282 $436 forward 7 unknown #
loop $-1 $-1 $289 $177 #
plane-surface $-1 -46.729941709646901 7.0232820797561253 1.185381168719033 -0.52991927123019833 0 0.84804809178421925 0.84804809178421925 0 0.52991927123019833 forward_v I I I I #
loop $-1 $-1 $437 $113 #
coedge $-1 $287 $287 $288 $438 reversed $178 $-1 #
coedge $-1 $288 $288 $287 $438 forward $180 $-1 #
coedge $-1 $289 $289 $181 $290 forward $284 $-1 #
edge $-1 $439 0 $439 6.2831853071796004 $289 $440 forward 7 unknown #
face $-1 $441 $442 $60 $-1 $443 forward single #
loop $-1 $-1 $444 $182 #
plane-surface $-1 19.249790020393171 -2.4619014787898585 134.1557742404587 0 1 0 0.54463904215088732 0 0.83867056331134215 forward_v I I I I #
coedge $-1 $445 $446 $447 $448 reversed $183 $-1 #
coedge $-1 $296 $185 $449 $450 reversed $117 $-1 #
coedge $-1 $185 $295 $445 $451 reversed $117 $-1 #
coedge $-1 $447 $452 $185 $298 forward $442 $-1 #
edge $-1 $453 -37.105046699450313 $454 -26.029289830354198 $297 $455 forward 7 unknown #
loop $-1 $-1 $304 $186 #
plane-surface $-1 -31.652111364624602 1.314876627153545 55.773721166187201 0.54463904215088732 0 0.83867056331134215 0.83867056331134215 0 -0.54463904215088732 forward_v I I I I #
loop $-1 $-1 $456 $119 #
coedge $-1 $302 $302 $303 $457 reversed $187 $-1 #
coedge $-1 $303 $303 $302 $457 forward $189 $-1 #
coedge $-1 $304 $304 $190 $305 forward $299 $-1 #
edge $-1 $458 0 $458 6.2831853071796004 $304 $459 forward 7 unknown #
loop $-1 $-1 $311 $191 #
plane-surface $-1 -31.652111364624602 1.314876627153545 55.773721166187201 0.54463904215088732 0 0.83867056331134215 0.83867056331134215 0 -0.54463904215088732 forward_v I I I I #
loop $-1 $-1 $460 $122 #
coedge $-1 $309 $309 $310 $461 reversed $192 $-1 #
coedge $-1 $310 $310 $309 $461 forward $194 $-1 #
coedge $-1 $311 $311 $195 $312 forward $306 $-1 #
edge $-1 $462 0 $462 6.2831853071796004 $311 $463 forward 7 unknown #
loop $-1 $-1 $318 $196 #
plane-surface $-1 -31.652111364624602 1.314876627153545 55.773721166187201 0.54463904215088732 0 0.83867056331134215 0.83867056331134215 0 -0.54463904215088732 forward_v I I I I #
loop $-1 $-1 $464 $125 #
coedge $-1 $316 $316 $317 $465 reversed $197 $-1 #
coedge $-1 $317 $317 $316 $465 forward $199 $-1 #
coedge $-1 $318 $318 $200 $319 forward $313 $-1 #
edge $-1 $466 0 $466 6.2831853071796004 $318 $467 forward 7 unknown #
face $-1 $468 $469 $48 $-1 $470 reversed single #
loop $-1 $-1 $471 $201 #
plane-surface $-1 -46.729941709646901 0 0 1 0 0 0 0 -1 forward_v I I I I #
coedge $-1 $472 $331 $473 $474 forward $202 $-1 #
coedge $-1 $475 $204 $472 $476 forward $129 $-1 #
coedge $-1 $204 $475 $477 $478 forward $129 $-1 #
coedge $-1 $334 $333 $204 $327 reversed $335 $-1 #
edge $-1 $479 -27.463092760913153 $480 27.463092760913153 $326 $481 forward 7 unknown #
coedge $-1 $206 $205 $482 $483 forward $81 $-1 #
coedge $-1 $484 $485 $205 $330 reversed $469 $-1 #
edge $-1 $337 -46.729941709646901 $486 46.729941709646901 $329 $487 forward 7 unknown #
coedge $-1 $323 $488 $206 $332 reversed $202 $-1 #
edge $-1 $489 -46.729941709646901 $336 46.729941709646901 $331 $490 forward 7 unknown #
coedge $-1 $326 $207 $488 $491 forward $335 $-1 #
coedge $-1 $207 $326 $484 $492 reversed $335 $-1 #
loop $-1 $-1 $333 $468 #
vertex $-1 $208 $493 #
vertex $-1 $208 $494 #
straight-curve $-1 46.729941709646901 0 12.064500526351646 0 1 0 I I #
face $-1 $495 $496 $49 $-1 $497 reversed single #
loop $-1 $-1 $498 $209 #
plane-surface $-1 0 0 12.064500526351646 0 0 1 1 0 0 forward_v I I I I #
coedge $-1 $499 $500 $501 $502 reversed $210 $-1 #
coedge $-1 $215 $212 $503 $504 reversed $133 $-1 #
coedge $-1 $212 $215 $505 $506 reversed $133 $-1 #
coedge $-1 $500 $499 $212 $346 reversed $210 $-1 #
edge $-1 $507 -12.064500526351646 $508 12.064500526351646 $345 $509 forward 7 unknown #
coedge $-1 $214 $213 $510 $511 reversed $84 $-1 #
coedge $-1 $503 $512 $213 $349 forward $496 $-1 #
edge $-1 $513 -17.286052655486053 $353 -3.0680275553681415 $348 $514 forward 7 unknown #
coedge $-1 $515 $505 $214 $351 forward $340 $-1 #
edge $-1 $352 3.0680275553681415 $516 17.286052655486053 $350 $517 forward 7 unknown #
vertex $-1 $351 $518 #
vertex $-1 $349 $519 #
straight-curve $-1 -28.669531329737367 -13.24506766079524 0 0 0 -1 I I #
face $-1 $520 $521 $50 $-1 $522 forward single #
loop $-1 $-1 $523 $217 #
plane-surface $-1 0 0 -12.064500526351646 0 0 1 1 0 0 forward_v I I I I #
coedge $-1 $524 $525 $363 $526 forward $218 $-1 #
coedge $-1 $223 $220 $527 $528 reversed $137 $-1 #
coedge $-1 $220 $223 $529 $530 reversed $137 $-1 #
coedge $-1 $531 $532 $220 $362 forward $533 $-1 #
edge $-1 $534 -12.064500526351646 $535 12.064500526351646 $361 $536 forward 7 unknown #
coedge $-1 $222 $221 $358 $526 reversed $87 $-1 #
coedge $-1 $527 $523 $221 $365 forward $356 $-1 #
edge $-1 $537 9.7833226602733632 $369 15.851913333067124 $364 $538 forward 7 unknown #
coedge $-1 $539 $529 $222 $367 forward $521 $-1 #
edge $-1 $368 -15.851913333067124 $540 -9.7833226602733632 $366 $541 forward 7 unknown #
vertex $-1 $367 $542 #
vertex $-1 $365 $543 #
straight-curve $-1 -28.669531329737367 13.24506766079524 0 0 0 -1 I I #
face $-1 $-1 $383 $51 $-1 $544 forward single #
loop $-1 $-1 $545 $225 #
plane-surface $-1 -46.729941709646901 0 0 1 0 0 0 0 -1 forward_v I I I I #
coedge $-1 $546 $547 $548 $549 reversed $226 $-1 #
coedge $-1 $550 $228 $230 $381 forward $141 $-1 #
coedge $-1 $228 $550 $546 $551 forward $141 $-1 #
coedge $-1 $548 $231 $228 $378 forward $383 $-1 #
edge $-1 $385 -7.9266635934764818 $552 -2.710144541161041 $377 $553 forward 7 unknown #
coedge $-1 $554 $555 $229 $380 forward $372 $-1 #
edge $-1 $556 -39.036547311694335 $384 -28.157427954061724 $379 $557 forward 7 unknown #
edge $-1 $385 -20.529767359426138 $556 0 $230 $558 forward 7 unknown #
coedge $-1 $231 $548 $554 $559 forward $383 $-1 #
loop $-1 $-1 $548 $371 #
vertex $-1 $380 $560 #
vertex $-1 $232 $561 #
straight-curve $-1 -48.128067510229187 -13.245067660795243 12.064500526351644 1 0 0 I I #
coedge $-1 $387 $387 $-1 $562 reversed $235 $-1 #
edge $-1 $563 0 $563 6.2831853071796004 $236 $564 forward 7 unknown #
vertex $-1 $239 $565 #
ellipse-curve $-1 -38.024826692679262 -11.754633645847973 6.6249408475353357 -0.52991927123019833 0 0.84804809178421925 0.42402404589210962 0 0.26495963561509916 1 I I #
coedge $-1 $391 $391 $-1 $566 reversed $242 $-1 #
edge $-1 $567 0 $567 6.2831853071796004 $243 $568 forward 7 unknown #
vertex $-1 $246 $569 #
ellipse-curve $-1 -38.024826692679262 -9.5189826234270711 6.6249408475353357 -0.52991927123019833 0 0.84804809178421925 0.42402404589210962 0 0.26495963561509916 1 I I #
face $-1 $-1 $570 $54 $-1 $571 reversed single #
loop $-1 $-1 $253 $247 #
plane-surface $-1 0 0 12.064500526351646 0 0 1 1 0 0 forward_v I I I I #
coedge $-1 $572 $573 $574 $575 reversed $248 $-1 #
coedge $-1 $576 $250 $252 $405 forward $155 $-1 #
coedge $-1 $250 $576 $572 $577 forward $155 $-1 #
coedge $-1 $574 $253 $250 $402 forward $396 $-1 #
edge $-1 $408 -3.5116410398780689 $578 1.7048780124373701 $401 $579 forward 7 unknown #
coedge $-1 $580 $581 $251 $404 forward $570 $-1 #
edge $-1 $582 -39.036547311694335 $407 -28.157427954061724 $403 $583 forward 7 unknown #
edge $-1 $408 -20.529767359426138 $582 0 $252 $584 forward 7 unknown #
coedge $-1 $253 $574 $580 $585 forward $396 $-1 #
vertex $-1 $404 $586 #
vertex $-1 $254 $587 #
straight-curve $-1 -48.128067510229187 -4.4150225535984182 12.064500526351644 1 0 0 I I #
coedge $-1 $410 $410 $-1 $588 reversed $257 $-1 #
edge $-1 $589 0 $589 6.2831853071796004 $258 $590 forward 7 unknown #
vertex $-1 $261 $591 #
ellipse-curve $-1 -38.024826692679262 -2.9245885386511468 6.6249408475353357 -0.52991927123019833 0 0.84804809178421925 0.42402404589210962 0 0.26495963561509916 1 I I #
coedge $-1 $414 $414 $-1 $592 reversed $264 $-1 #
edge $-1 $593 0 $593 6.2831853071796004 $265 $594 forward 7 unknown #
vertex $-1 $268 $595 #
ellipse-curve $-1 -38.024826692679262 -0.68893751623024357 6.6249408475353357 -0.52991927123019833 0 0.84804809178421925 0.42402404589210962 0 0.26495963561509916 1 I I #
face $-1 $-1 $596 $57 $-1 $597 reversed single #
loop $-1 $-1 $275 $269 #
plane-surface $-1 0 0 12.064500526351646 0 0 1 1 0 0 forward_v I I I I #
coedge $-1 $598 $599 $600 $601 reversed $270 $-1 #
coedge $-1 $602 $272 $274 $428 forward $169 $-1 #
coedge $-1 $272 $602 $598 $603 forward $169 $-1 #
coedge $-1 $600 $275 $272 $425 forward $419 $-1 #
edge $-1 $431 0.90338151372034314 $604 6.119900566035783 $424 $605 forward 7 unknown #
coedge $-1 $606 $607 $273 $427 forward $596 $-1 #
edge $-1 $608 -39.036547311694335 $430 -28.157427954061724 $426 $609 forward 7 unknown #
edge $-1 $431 -20.529767359426138 $608 0 $274 $610 forward 7 unknown #
coedge $-1 $275 $600 $606 $611 forward $419 $-1 #
vertex $-1 $276 $612 #
vertex $-1 $276 $613 #
straight-curve $-1 -48.128067510229187 4.4150225535984058 12.064500526351644 1 0 0 I I #
coedge $-1 $433 $433 $-1 $614 reversed $279 $-1 #
edge $-1 $615 0 $615 6.2831853071796004 $280 $616 forward 7 unknown #
vertex $-1 $283 $617 #
ellipse-curve $-1 -38.024826692679262 5.9054565685456772 6.6249408475353357 -0.52991927123019833 0 0.84804809178421925 0.42402404589210962 0 0.26495963561509916 1 I I #
coedge $-1 $437 $437 $-1 $618 reversed $286 $-1 #
edge $-1 $619 0 $619 6.2831853071796004 $287 $620 forward 7 unknown #
vertex $-1 $290 $621 #
ellipse-curve $-1 -38.024826692679262 8.1411075909665804 6.6249408475353357 -0.52991927123019833 0 0.84804809178421925 0.42402404589210962 0 0.26495963561509916 1 I I #
face $-1 $-1 $622 $60 $-1 $623 reversed single #
loop $-1 $-1 $297 $291 #
plane-surface $-1 0 0 12.064500526351646 0 0 1 1 0 0 forward_v I I I I #
coedge $-1 $624 $625 $626 $627 reversed $292 $-1 #
coedge $-1 $628 $294 $296 $451 forward $183 $-1 #
coedge $-1 $294 $628 $624 $629 forward $183 $-1 #
coedge $-1 $626 $297 $294 $448 forward $442 $-1 #
edge $-1 $454 -4.4342164195201761 $630 3.1193397923666311 $447 $631 forward 7 unknown #
coedge $-1 $632 $633 $295 $450 forward $622 $-1 #
edge $-1 $634 -62.206067339059928 $453 -55.013386593877705 $449 $635 forward 7 unknown #
edge $-1 $454 80.25355741523633 $634 93.459883419293803 $296 $636 forward 7 unknown #
coedge $-1 $297 $626 $632 $637 forward $442 $-1 #
vertex $-1 $298 $638 #
vertex $-1 $298 $639 #
straight-curve $-1 9.6248950101965853 5.0916547330969486 12.064500526351644 -1 0 0 I I #
coedge $-1 $456 $456 $-1 $640 reversed $301 $-1 #
edge $-1 $641 0 $641 6.2831853071796004 $302 $642 forward 7 unknown #
vertex $-1 $305 $643 #
ellipse-curve $-1 41.192063275098853 -0.95119023641249711 8.4681601537605324 0.54463904215088732 0 0.83867056331134215 0.20966764082783554 0 -0.13615976053772183 1 I I #
coedge $-1 $460 $460 $-1 $644 reversed $308 $-1 #
edge $-1 $645 0 $645 6.2831853071796004 $309 $646 forward 7 unknown #
vertex $-1 $312 $647 #
ellipse-curve $-1 41.192063275098853 1.314876627153545 8.4681601537605324 0.54463904215088732 0 0.83867056331134215 0.20966764082783554 0 -0.13615976053772183 1 I I #
coedge $-1 $464 $464 $-1 $648 reversed $315 $-1 #
edge $-1 $649 0 $649 6.2831853071796004 $316 $650 forward 7 unknown #
vertex $-1 $319 $651 #
ellipse-curve $-1 41.192063275098853 3.5809434907195872 8.4681601537605324 0.54463904215088732 0 0.83867056331134215 0.20966764082783554 0 -0.13615976053772183 1 I I #
face $-1 $-1 $335 $48 $-1 $652 reversed single #
loop $-1 $-1 $484 $320 #
plane-surface $-1 0 27.463092760913153 0 0 -1 0 0 0 -1 forward_v I I I I #
coedge $-1 $653 $482 $485 $654 forward $321 $-1 #
coedge $-1 $488 $323 $324 $476 reversed $202 $-1 #
coedge $-1 $482 $653 $323 $474 reversed $321 $-1 #
edge $-1 $489 -12.064500526351646 $655 12.064500526351646 $473 $656 forward 7 unknown #
coedge $-1 $325 $324 $653 $657 forward $129 $-1 #
edge $-1 $480 -46.729941709646901 $655 46.729941709646901 $472 $658 forward 7 unknown #
coedge $-1 $485 $484 $325 $478 reversed $469 $-1 #
edge $-1 $659 -46.729941709646901 $479 46.729941709646901 $477 $660 forward 7 unknown #
vertex $-1 $327 $661 #
vertex $-1 $491 $662 #
straight-curve $-1 46.729941709646901 0 -12.064500526351646 0 -1 0 I I #
coedge $-1 $471 $473 $328 $483 reversed $321 $-1 #
edge $-1 $486 -27.463092760913153 $489 27.463092760913153 $482 $663 forward 7 unknown #
coedge $-1 $477 $329 $334 $492 forward $469 $-1 #
coedge $-1 $329 $477 $471 $654 reversed $469 $-1 #
vertex $-1 $330 $664 #
straight-curve $-1 0 27.463092760913153 12.064500526351646 -1 0 0 I I #
coedge $-1 $331 $472 $333 $491 reversed $202 $-1 #
vertex $-1 $483 $665 #
straight-curve $-1 0 -27.463092760913153 12.064500526351646 1 0 0 I I #
edge $-1 $336 -12.064500526351646 $480 12.064500526351646 $333 $666 forward 7 unknown #
edge $-1 $337 -12.064500526351646 $479 12.064500526351646 $334 $667 forward 7 unknown #
point $-1 46.729941709646901 -27.463092760913153 12.064500526351646 #
point $-1 46.729941709646901 27.463092760913153 12.064500526351646 #
face $-1 $-1 $668 $49 $-1 $669 reversed single #
loop $-1 $-1 $670 $339 #
plane-surface $-1 0 0 -12.064500526351646 0 0 1 1 0 0 forward_v I I I I #
coedge $-1 $505 $515 $500 $671 forward $340 $-1 #
coedge $-1 $345 $342 $670 $672 reversed $210 $-1 #
coedge $-1 $342 $345 $498 $671 reversed $210 $-1 #
coedge $-1 $673 $674 $342 $502 forward $668 $-1 #
edge $-1 $675 -12.064500526351646 $676 12.064500526351646 $501 $677 forward 7 unknown #
coedge $-1 $670 $348 $343 $504 forward $496 $-1 #
edge $-1 $353 -15.851913333067124 $508 -9.7833226602733632 $503 $678 forward 7 unknown #
coedge $-1 $350 $498 $344 $506 forward $340 $-1 #
edge $-1 $507 9.7833226602733632 $352 15.851913333067124 $505 $679 forward 7 unknown #
vertex $-1 $506 $680 #
vertex $-1 $504 $681 #
straight-curve $-1 -22.600940656943607 -13.24506766079524 0 0 0 -1 I I #
coedge $-1 $674 $673 $347 $511 forward $668 $-1 #
edge $-1 $516 -12.064500526351646 $513 12.064500526351646 $510 $682 forward 7 unknown #
coedge $-1 $348 $670 $674 $683 forward $496 $-1 #
vertex $-1 $349 $684 #
straight-curve $-1 -28.669531329737367 -10.177040105427098 -12.064500526351646 0 1 0 I I #
coedge $-1 $498 $350 $673 $685 forward $340 $-1 #
vertex $-1 $685 $686 #
straight-curve $-1 -28.669531329737367 -10.177040105427098 12.064500526351646 0 -1 0 I I #
point $-1 -28.669531329737367 -13.24506766079524 12.064500526351646 #
point $-1 -28.669531329737367 -13.24506766079524 -12.064500526351646 #
face $-1 $-1 $533 $50 $-1 $687 reversed single #
loop $-1 $-1 $539 $355 #
plane-surface $-1 0 0 12.064500526351646 0 0 1 1 0 0 forward_v I I I I #
coedge $-1 $364 $688 $524 $689 forward $356 $-1 #
coedge $-1 $690 $358 $523 $689 reversed $218 $-1 #
coedge $-1 $358 $690 $539 $691 reversed $218 $-1 #
edge $-1 $540 -12.064500526351646 $537 12.064500526351646 $358 $692 forward 7 unknown #
coedge $-1 $688 $364 $359 $528 forward $356 $-1 #
edge $-1 $369 3.0680275553681415 $534 17.286052655486053 $527 $693 forward 7 unknown #
coedge $-1 $366 $694 $360 $530 forward $521 $-1 #
edge $-1 $535 -17.286052655486053 $368 -3.0680275553681415 $529 $695 forward 7 unknown #
coedge $-1 $696 $361 $694 $697 reversed $533 $-1 #
coedge $-1 $361 $696 $688 $698 reversed $533 $-1 #
loop $-1 $-1 $696 $520 #
vertex $-1 $698 $699 #
vertex $-1 $362 $700 #
straight-curve $-1 -28.669531329737367 27.463092760913153 0 0 0 1 I I #
vertex $-1 $365 $701 #
straight-curve $-1 -12.817617996670243 13.24506766079524 -12.064500526351646 -1 0 0 I I #
coedge $-1 $694 $366 $525 $691 forward $521 $-1 #
vertex $-1 $367 $702 #
straight-curve $-1 -12.817617996670243 13.24506766079524 12.064500526351646 1 0 0 I I #
point $-1 -28.669531329737367 13.24506766079524 12.064500526351646 #
point $-1 -28.669531329737367 13.24506766079524 -12.064500526351646 #
plane-surface $-1 0 0 12.064500526351646 0 0 1 1 0 0 forward_v I I I I #
coedge $-1 $555 $554 $547 $703 forward $372 $-1 #
coedge $-1 $547 $374 $376 $551 reversed $226 $-1 #
coedge $-1 $374 $546 $545 $703 reversed $226 $-1 #
coedge $-1 $382 $377 $374 $549 forward $383 $-1 #
edge $-1 $552 -18.80835583451757 $704 -1.3981258005822852 $548 $705 forward 7 unknown #
coedge $-1 $376 $375 $555 $706 reversed $141 $-1 #
edge $-1 $707 0 $552 20.529767359426138 $546 $708 forward 7 unknown #
vertex $-1 $378 $709 #
straight-curve $-1 -29.319711675711616 -5.3184040673187614 12.064500526351646 0 1 0 I I #
coedge $-1 $545 $379 $382 $559 reversed $372 $-1 #
coedge $-1 $379 $545 $550 $706 forward $372 $-1 #
vertex $-1 $380 $710 #
straight-curve $-1 -46.729941709646901 -13.245067660795243 40.221928480413368 0 0 1 I I #
straight-curve $-1 -46.729941709646901 -13.245067660795243 1.185381168719033 -0.84804809178421925 0 -0.52991927123019833 I I #
edge $-1 $704 8.0285486084798023 $384 13.245067660795243 $554 $711 forward 7 unknown #
point $-1 -46.729941709646901 -13.245067660795243 12.064500526351646 #
point $-1 -29.319711675711616 -13.245067660795243 12.064500526351646 #
edge $-1 $712 1 $712 0 $387 $-1 forward 7 unknown #
vertex $-1 $388 $713 #
ellipse-curve $-1 -37.494907421449071 -11.754633645847973 5.7768927557511249 -0.52991927123019833 0 0.84804809178421925 0.42402404589210962 0 0.26495963561509916 1 I I #
point $-1 -37.600802646787159 -11.754633645847973 6.889900483150444 #
edge $-1 $714 1 $714 0 $391 $-1 forward 7 unknown #
vertex $-1 $392 $715 #
ellipse-curve $-1 -37.494907421449071 -9.5189826234270711 5.7768927557511249 -0.52991927123019833 0 0.84804809178421925 0.42402404589210962 0 0.26495963561509916 1 I I #
point $-1 -37.600802646787159 -9.5189826234270711 6.889900483150444 #
loop $-1 $-1 $403 $395 #
plane-surface $-1 -46.729941709646901 0 0 1 0 0 0 0 -1 forward_v I I I I #
coedge $-1 $573 $398 $400 $577 reversed $248 $-1 #
coedge $-1 $398 $572 $716 $717 reversed $248 $-1 #
coedge $-1 $406 $401 $398 $575 forward $396 $-1 #
edge $-1 $578 -18.80835583451757 $718 -1.3981258005822852 $574 $719 forward 7 unknown #
coedge $-1 $400 $399 $581 $720 reversed $155 $-1 #
edge $-1 $721 0 $578 20.529767359426138 $572 $722 forward 7 unknown #
vertex $-1 $402 $723 #
straight-curve $-1 -29.319711675711616 -0.90338151372034936 12.064500526351646 0 1 0 I I #
coedge $-1 $716 $403 $406 $585 reversed $570 $-1 #
coedge $-1 $403 $716 $576 $720 forward $570 $-1 #
vertex $-1 $404 $724 #
straight-curve $-1 -46.729941709646901 -4.4150225535984182 40.221928480413368 0 0 1 I I #
straight-curve $-1 -46.729941709646901 -4.4150225535984182 1.185381168719033 -0.84804809178421925 0 -0.52991927123019833 I I #
edge $-1 $718 -0.80149649871702078 $407 4.4150225535984182 $580 $725 forward 7 unknown #
point $-1 -46.729941709646901 -4.4150225535984182 12.064500526351646 #
point $-1 -29.319711675711616 -4.4150225535984182 12.064500526351646 #
edge $-1 $726 1 $726 0 $410 $-1 forward 7 unknown #
vertex $-1 $411 $727 #
ellipse-curve $-1 -37.494907421449071 -2.9245885386511468 5.7768927557511249 -0.52991927123019833 0 0.84804809178421925 0.42402404589210962 0 0.26495963561509916 1 I I #
point $-1 -37.600802646787159 -2.9245885386511468 6.889900483150444 #
edge $-1 $728 1 $728 0 $414 $-1 forward 7 unknown #
vertex $-1 $415 $729 #
ellipse-curve $-1 -37.494907421449071 -0.68893751623024357 5.7768927557511249 -0.52991927123019833 0 0.84804809178421925 0.42402404589210962 0 0.26495963561509916 1 I I #
point $-1 -37.600802646787159 -0.68893751623024357 6.889900483150444 #
loop $-1 $-1 $426 $418 #
plane-surface $-1 -46.729941709646901 0 0 1 0 0 0 0 -1 forward_v I I I I #
coedge $-1 $599 $421 $423 $603 reversed $270 $-1 #
coedge $-1 $421 $598 $730 $731 reversed $270 $-1 #
coedge $-1 $429 $424 $421 $601 forward $419 $-1 #
edge $-1 $604 -18.80835583451757 $732 -1.3981258005822852 $600 $733 forward 7 unknown #
coedge $-1 $423 $422 $607 $734 reversed $169 $-1 #
edge $-1 $735 0 $604 20.529767359426138 $598 $736 forward 7 unknown #
vertex $-1 $425 $737 #
straight-curve $-1 -29.319711675711616 3.5116410398780626 12.064500526351646 0 1 0 I I #
coedge $-1 $730 $426 $429 $611 reversed $596 $-1 #
coedge $-1 $426 $730 $602 $734 forward $596 $-1 #
vertex $-1 $427 $738 #
straight-curve $-1 -46.729941709646901 4.4150225535984058 40.221928480413368 0 0 1 I I #
straight-curve $-1 -46.729941709646901 4.4150225535984058 1.185381168719033 -0.84804809178421925 0 -0.52991927123019833 I I #
edge $-1 $732 -9.6315416059138457 $430 -4.4150225535984058 $606 $739 forward 7 unknown #
point $-1 -46.729941709646901 4.4150225535984058 12.064500526351646 #
point $-1 -29.319711675711616 4.4150225535984058 12.064500526351646 #
edge $-1 $740 1 $740 0 $433 $-1 forward 7 unknown #
vertex $-1 $434 $741 #
ellipse-curve $-1 -37.494907421449071 5.9054565685456772 5.7768927557511249 -0.52991927123019833 0 0.84804809178421925 0.42402404589210962 0 0.26495963561509916 1 I I #
point $-1 -37.600802646787159 5.9054565685456772 6.889900483150444 #
edge $-1 $742 1 $742 0 $437 $-1 forward 7 unknown #
vertex $-1 $438 $743 #
ellipse-curve $-1 -37.494907421449071 8.1411075909665804 5.7768927557511249 -0.52991927123019833 0 0.84804809178421925 0.42402404589210962 0 0.26495963561509916 1 I I #
point $-1 -37.600802646787159 8.1411075909665804 6.889900483150444 #
loop $-1 $-1 $449 $441 #
plane-surface $-1 46.729941709646901 0 0 -1 0 0 0 0 1 forward_v I I I I #
coedge $-1 $625 $444 $446 $629 reversed $292 $-1 #
coedge $-1 $444 $624 $744 $745 reversed $292 $-1 #
coedge $-1 $452 $447 $444 $627 forward $442 $-1 #
edge $-1 $630 26.029289830354198 $746 37.105046699450313 $626 $747 forward 7 unknown #
coedge $-1 $446 $445 $633 $748 reversed $183 $-1 #
edge $-1 $749 -93.459883419293803 $630 -80.25355741523633 $624 $750 forward 7 unknown #
vertex $-1 $448 $751 #
straight-curve $-1 35.654184840550812 0.65743831357677252 12.064500526351637 0 -1 0 I I #
coedge $-1 $744 $449 $452 $637 reversed $622 $-1 #
coedge $-1 $449 $744 $628 $748 forward $622 $-1 #
vertex $-1 $450 $752 #
straight-curve $-1 46.729941709646901 5.0916547330969486 67.077887120229349 0 0 1 I I #
straight-curve $-1 -31.652111364624602 5.0916547330969486 55.773721166187201 0.83867056331134215 0 -0.54463904215088732 I I #
edge $-1 $746 -2.4619014787898585 $453 5.0916547330969486 $632 $753 forward 7 unknown #
point $-1 46.729941709646901 5.0916547330969486 12.064500526351646 #
point $-1 35.654184840550784 5.0916547330969486 12.064500526351644 #
edge $-1 $754 1 $754 0 $456 $-1 forward 7 unknown #
vertex $-1 $457 $755 #
ellipse-curve $-1 40.647424232947969 -0.95119023641249711 7.6294895904491966 0.54463904215088732 0 0.83867056331134215 0.20966764082783554 0 -0.13615976053772183 1 I I #
point $-1 41.401730915926692 -0.95119023641249711 8.3320003932228168 #
edge $-1 $756 1 $756 0 $460 $-1 forward 7 unknown #
vertex $-1 $461 $757 #
ellipse-curve $-1 40.647424232947969 1.314876627153545 7.6294895904491966 0.54463904215088732 0 0.83867056331134215 0.20966764082783554 0 -0.13615976053772183 1 I I #
point $-1 41.401730915926692 1.314876627153545 8.3320003932228168 #
edge $-1 $758 1 $758 0 $464 $-1 forward 7 unknown #
vertex $-1 $465 $759 #
ellipse-curve $-1 40.647424232947969 3.5809434907195872 7.6294895904491966 0.54463904215088732 0 0.83867056331134215 0.20966764082783554 0 -0.13615976053772183 1 I I #
point $-1 41.401730915926692 3.5809434907195872 8.3320003932228168 #
plane-surface $-1 46.729941709646901 0 0 -1 0 0 0 0 1 forward_v I I I I #
coedge $-1 $473 $471 $475 $657 reversed $321 $-1 #
edge $-1 $486 -12.064500526351646 $659 12.064500526351646 $485 $760 forward 7 unknown #
vertex $-1 $657 $761 #
straight-curve $-1 -46.729941709646901 -27.463092760913153 0 0 0 -1 I I #
edge $-1 $655 -27.463092760913153 $659 27.463092760913153 $653 $762 forward 7 unknown #
straight-curve $-1 0 -27.463092760913153 -12.064500526351646 -1 0 0 I I #
vertex $-1 $478 $763 #
straight-curve $-1 0 27.463092760913153 -12.064500526351646 1 0 0 I I #
point $-1 46.729941709646901 27.463092760913153 -12.064500526351646 #
point $-1 46.729941709646901 -27.463092760913153 -12.064500526351646 #
straight-curve $-1 -46.729941709646901 0 12.064500526351646 0 -1 0 I I #
point $-1 -46.729941709646901 27.463092760913153 12.064500526351646 #
point $-1 -46.729941709646901 -27.463092760913153 12.064500526351646 #
straight-curve $-1 46.729941709646901 -27.463092760913153 0 0 0 -1 I I #
straight-curve $-1 46.729941709646901 27.463092760913153 0 0 0 -1 I I #
loop $-1 $-1 $501 $495 #
plane-surface $-1 0 -27.463092760913153 0 0 1 0 0 0 1 forward_v I I I I #
coedge $-1 $512 $503 $499 $672 forward $496 $-1 #
edge $-1 $676 -17.286052655486053 $507 -3.0680275553681415 $498 $764 forward 7 unknown #
edge $-1 $508 3.0680275553681415 $675 17.286052655486053 $670 $765 forward 7 unknown #
coedge $-1 $510 $501 $515 $685 reversed $668 $-1 #
coedge $-1 $501 $510 $512 $683 reversed $668 $-1 #
vertex $-1 $683 $766 #
vertex $-1 $502 $767 #
straight-curve $-1 -22.600940656943607 -27.463092760913153 0 0 0 1 I I #
straight-curve $-1 -12.817617996670243 -13.24506766079524 -12.064500526351646 1 0 0 I I #
straight-curve $-1 -12.817617996670243 -13.24506766079524 12.064500526351646 -1 0 0 I I #
point $-1 -22.600940656943607 -13.24506766079524 12.064500526351646 #
point $-1 -22.600940656943607 -13.24506766079524 -12.064500526351646 #
straight-curve $-1 -28.669531329737367 -27.463092760913153 0 0 0 -1 I I #
edge $-1 $675 22.600940656943607 $513 28.669531329737367 $674 $768 forward 7 unknown #
point $-1 -28.669531329737367 -27.463092760913153 -12.064500526351646 #
edge $-1 $516 -28.669531329737367 $676 -22.600940656943607 $673 $769 forward 7 unknown #
point $-1 -28.669531329737367 -27.463092760913153 12.064500526351646 #
plane-surface $-1 0 27.463092760913153 0 0 -1 0 0 0 -1 forward_v I I I I #
coedge $-1 $523 $527 $532 $698 forward $356 $-1 #
edge $-1 $770 -17.286052655486053 $537 -3.0680275553681415 $523 $771 forward 7 unknown #
coedge $-1 $525 $524 $696 $772 reversed $218 $-1 #
edge $-1 $540 3.0680275553681415 $773 17.286052655486053 $539 $774 forward 7 unknown #
straight-curve $-1 -22.600940656943607 13.24506766079524 0 0 0 -1 I I #
straight-curve $-1 -28.669531329737367 10.177040105427098 -12.064500526351646 0 1 0 I I #
coedge $-1 $529 $539 $531 $697 forward $521 $-1 #
straight-curve $-1 -28.669531329737367 10.177040105427098 12.064500526351646 0 -1 0 I I #
coedge $-1 $532 $531 $690 $772 forward $533 $-1 #
edge $-1 $773 22.600940656943607 $535 28.669531329737367 $531 $775 forward 7 unknown #
edge $-1 $534 -28.669531329737367 $770 -22.600940656943607 $532 $776 forward 7 unknown #
point $-1 -28.669531329737367 27.463092760913153 -12.064500526351646 #
point $-1 -28.669531329737367 27.463092760913153 12.064500526351646 #
point $-1 -22.600940656943607 13.24506766079524 -12.064500526351646 #
point $-1 -22.600940656943607 13.24506766079524 12.064500526351646 #
edge $-1 $704 28.157427954061724 $707 39.036547311694335 $545 $777 forward 7 unknown #
vertex $-1 $559 $778 #
straight-curve $-1 -48.128067510229187 -8.0285486084798023 12.064500526351644 -1 0 0 I I #
edge $-1 $707 2.710144541161041 $556 7.9266635934764818 $555 $779 forward 7 unknown #
vertex $-1 $706 $780 #
straight-curve $-1 -46.729941709646901 -8.0285486084798023 1.185381168719033 0.84804809178421925 0 0.52991927123019833 I I #
point $-1 -29.319711675711616 -8.0285486084798023 12.064500526351646 #
point $-1 -46.729941709646901 -13.245067660795243 1.185381168719033 #
straight-curve $-1 -46.729941709646901 0 12.064500526351646 0 -1 0 I I #
vertex $-1 $562 $781 #
point $-1 -37.07088337555696 -11.754633645847973 6.0418523913662243 #
vertex $-1 $566 $782 #
point $-1 -37.07088337555696 -9.5189826234270711 6.0418523913662243 #
coedge $-1 $581 $580 $573 $717 forward $570 $-1 #
edge $-1 $718 28.157427954061724 $721 39.036547311694335 $716 $783 forward 7 unknown #
vertex $-1 $585 $784 #
straight-curve $-1 -48.128067510229187 0.80149649871702078 12.064500526351644 -1 0 0 I I #
edge $-1 $721 -1.7048780124373701 $582 3.5116410398780689 $581 $785 forward 7 unknown #
vertex $-1 $720 $786 #
straight-curve $-1 -46.729941709646901 0.80149649871702078 1.185381168719033 0.84804809178421925 0 0.52991927123019833 I I #
point $-1 -29.319711675711616 0.80149649871702078 12.064500526351646 #
point $-1 -46.729941709646901 -4.4150225535984182 1.185381168719033 #
straight-curve $-1 -46.729941709646901 0 12.064500526351646 0 -1 0 I I #
vertex $-1 $588 $787 #
point $-1 -37.07088337555696 -2.9245885386511468 6.0418523913662243 #
vertex $-1 $592 $788 #
point $-1 -37.07088337555696 -0.68893751623024357 6.0418523913662243 #
coedge $-1 $607 $606 $599 $731 forward $596 $-1 #
edge $-1 $732 28.157427954061724 $735 39.036547311694335 $730 $789 forward 7 unknown #
vertex $-1 $611 $790 #
straight-curve $-1 -48.128067510229187 9.6315416059138457 12.064500526351644 -1 0 0 I I #
edge $-1 $735 -6.119900566035783 $608 -0.90338151372034314 $607 $791 forward 7 unknown #
vertex $-1 $734 $792 #
straight-curve $-1 -46.729941709646901 9.6315416059138457 1.185381168719033 0.84804809178421925 0 0.52991927123019833 I I #
point $-1 -29.319711675711616 9.6315416059138457 12.064500526351646 #
point $-1 -46.729941709646901 4.4150225535984058 1.185381168719033 #
straight-curve $-1 -46.729941709646901 0 12.064500526351646 0 -1 0 I I #
vertex $-1 $614 $793 #
point $-1 -37.07088337555696 5.9054565685456772 6.0418523913662243 #
vertex $-1 $618 $794 #
point $-1 -37.07088337555696 8.1411075909665804 6.0418523913662243 #
coedge $-1 $633 $632 $625 $745 forward $622 $-1 #
edge $-1 $746 55.013386593877705 $749 62.206067339059928 $744 $795 forward 7 unknown #
vertex $-1 $637 $796 #
straight-curve $-1 9.6248950101965853 -2.4619014787898585 12.064500526351644 1 0 0 I I #
edge $-1 $749 -3.1193397923666311 $634 4.4342164195201761 $633 $797 forward 7 unknown #
vertex $-1 $748 $798 #
straight-curve $-1 -31.652111364624602 -2.4619014787898585 55.773721166187201 -0.83867056331134215 0 0.54463904215088732 I I #
point $-1 35.654184840550784 -2.4619014787898585 12.064500526351644 #
point $-1 46.729941709646909 5.0916547330969486 4.871819781169421 #
straight-curve $-1 46.729941709646901 0 12.064500526351646 0 1 0 I I #
vertex $-1 $640 $799 #
point $-1 40.857091873775808 -0.95119023641249711 7.4933298299114748 #
vertex $-1 $644 $800 #
point $-1 40.857091873775808 1.314876627153545 7.4933298299114748 #
vertex $-1 $648 $801 #
point $-1 40.857091873775808 3.5809434907195872 7.4933298299114748 #
straight-curve $-1 -46.729941709646901 27.463092760913153 0 0 0 -1 I I #
point $-1 -46.729941709646901 -27.463092760913153 -12.064500526351646 #
straight-curve $-1 -46.729941709646901 0 -12.064500526351646 0 1 0 I I #
point $-1 -46.729941709646901 27.463092760913153 -12.064500526351646 #
straight-curve $-1 -22.600940656943607 -10.177040105427098 12.064500526351646 0 1 0 I I #
straight-curve $-1 -22.600940656943607 -10.177040105427098 -12.064500526351646 0 -1 0 I I #
point $-1 -22.600940656943607 -27.463092760913153 -12.064500526351646 #
point $-1 -22.600940656943607 -27.463092760913153 12.064500526351646 #
straight-curve $-1 0 -27.463092760913153 -12.064500526351646 -1 0 0 I I #
straight-curve $-1 0 -27.463092760913153 12.064500526351646 1 0 0 I I #
vertex $-1 $772 $802 #
straight-curve $-1 -22.600940656943607 10.177040105427098 -12.064500526351646 0 -1 0 I I #
edge $-1 $773 -12.064500526351646 $770 12.064500526351646 $696 $803 forward 7 unknown #
vertex $-1 $697 $804 #
straight-curve $-1 -22.600940656943607 10.177040105427098 12.064500526351646 0 1 0 I I #
straight-curve $-1 0 27.463092760913153 12.064500526351646 -1 0 0 I I #
straight-curve $-1 0 27.463092760913153 -12.064500526351646 1 0 0 I I #
straight-curve $-1 -46.729941709646901 -8.0285486084798023 40.221928480413368 0 0 -1 I I #
point $-1 -46.729941709646901 -8.0285486084798023 12.064500526351646 #
straight-curve $-1 -46.729941709646901 -5.3184040673187614 1.1853811687190319 0 -1 0 I I #
point $-1 -46.729941709646901 -8.0285486084798023 1.185381168719033 #
point $-1 -37.229947785833971 -11.754633645847973 5.352868709859016 #
point $-1 -37.229947785833971 -9.5189826234270711 5.352868709859016 #
straight-curve $-1 -46.729941709646901 0.80149649871702078 40.221928480413368 0 0 -1 I I #
point $-1 -46.729941709646901 0.80149649871702078 12.064500526351646 #
straight-curve $-1 -46.729941709646901 -0.90338151372034936 1.1853811687190319 0 -1 0 I I #
point $-1 -46.729941709646901 0.80149649871702078 1.185381168719033 #
point $-1 -37.229947785833971 -2.9245885386511468 5.352868709859016 #
point $-1 -37.229947785833971 -0.68893751623024357 5.352868709859016 #
straight-curve $-1 -46.729941709646901 9.6315416059138457 40.221928480413368 0 0 -1 I I #
point $-1 -46.729941709646901 9.6315416059138457 12.064500526351646 #
straight-curve $-1 -46.729941709646901 3.5116410398780626 1.1853811687190319 0 -1 0 I I #
point $-1 -46.729941709646901 9.6315416059138457 1.185381168719033 #
point $-1 -37.229947785833971 5.9054565685456772 5.352868709859016 #
point $-1 -37.229947785833971 8.1411075909665804 5.352868709859016 #
straight-curve $-1 46.729941709646901 -2.4619014787898585 67.077887120229349 0 0 -1 I I #
point $-1 46.729941709646901 -2.4619014787898585 12.064500526351646 #
straight-curve $-1 46.729941709646901 0.65743831357677252 4.8718197811694246 0 1 0 I I #
point $-1 46.729941709646909 -2.4619014787898585 4.871819781169421 #
point $-1 40.511264472410247 -0.95119023641249711 7.4198219496213618 #
point $-1 40.511264472410247 1.314876627153545 7.4198219496213618 #
point $-1 40.511264472410247 3.5809434907195872 7.4198219496213618 #
point $-1 -22.600940656943607 27.463092760913153 -12.064500526351646 #
straight-curve $-1 -22.600940656943607 27.463092760913153 0 0 0 -1 I I #
point $-1 -22.600940656943607 27.463092760913153 12.064500526351646 #
End-of-ACIS-data 