500 0 18 0           
7 Unknown 11 ACIS 5.0 NT 24 Fri Mar 26 14:33:59 1999 
-1 9.9999999999999995e-007 1e-010 
body $-1 $18 $-1 $19 #
body $-1 $20 $-1 $21 #
body $-1 $22 $-1 $23 #
body $-1 $24 $-1 $25 #
body $-1 $26 $-1 $27 #
body $-1 $28 $-1 $29 #
body $-1 $30 $-1 $31 #
body $-1 $32 $-1 $33 #
body $-1 $34 $-1 $35 #
body $-1 $36 $-1 $37 #
body $-1 $38 $-1 $39 #
body $-1 $40 $-1 $41 #
body $-1 $42 $-1 $43 #
body $-1 $44 $-1 $45 #
body $-1 $46 $-1 $47 #
body $-1 $48 $-1 $49 #
body $-1 $50 $-1 $51 #
body $-1 $52 $-1 $53 #
lump $-1 $-1 $54 $0 #
transform $-1 1 0 0 0 1 0 0 0 1 62.995086519974365 42.686394971697091 15.242144793476678 1 rotate no_reflect no_shear #
lump $-1 $-1 $55 $1 #
transform $-1 1 0 0 0 1 0 0 0 1 62.995086519974365 42.686394971697091 15.242144793476678 1 rotate no_reflect no_shear #
lump $-1 $-1 $56 $2 #
transform $-1 1 0 0 0 1 0 0 0 1 62.995086519974365 42.686394971697091 15.242144793476678 1 rotate no_reflect no_shear #
lump $-1 $-1 $57 $3 #
transform $-1 1 0 0 0 1 0 0 0 1 62.995086519974365 42.686394971697091 15.242144793476678 1 rotate no_reflect no_shear #
lump $-1 $-1 $58 $4 #
transform $-1 1 0 0 0 1 0 0 0 1 62.995086519974365 42.686394971697091 15.242144793476678 1 rotate no_reflect no_shear #
lump $-1 $-1 $59 $5 #
transform $-1 1 0 0 0 1 0 0 0 1 62.995086519974365 42.686394971697091 15.242144793476678 1 rotate no_reflect no_shear #
lump $-1 $-1 $60 $6 #
transform $-1 1 0 0 0 1 0 0 0 1 62.995086519974365 42.686394971697091 15.242144793476678 1 rotate no_reflect no_shear #
lump $-1 $-1 $61 $7 #
transform $-1 1 0 0 0 1 0 0 0 1 62.995086519974365 42.686394971697091 15.242144793476678 1 rotate no_reflect no_shear #
lump $-1 $-1 $62 $8 #
transform $-1 1 0 0 0 1 0 0 0 1 62.995086519974365 42.686394971697091 15.242144793476678 1 rotate no_reflect no_shear #
lump $-1 $-1 $63 $9 #
transform $-1 1 0 0 0 1 0 0 0 1 62.995086519974365 42.686394971697091 15.242144793476678 1 rotate no_reflect no_shear #
lump $-1 $-1 $64 $10 #
transform $-1 1 0 0 0 1 0 0 0 1 62.995086519974365 42.686394971697091 15.242144793476678 1 rotate no_reflect no_shear #
lump $-1 $-1 $65 $11 #
transform $-1 1 0 0 0 1 0 0 0 1 62.995086519974365 42.686394971697091 15.242144793476678 1 rotate no_reflect no_shear #
lump $-1 $-1 $66 $12 #
transform $-1 1 0 0 0 1 0 0 0 1 62.995086519974365 42.686394971697091 15.242144793476678 1 rotate no_reflect no_shear #
lump $-1 $-1 $67 $13 #
transform $-1 1 0 0 0 1 0 0 0 1 62.995086519974365 42.686394971697091 15.242144793476678 1 rotate no_reflect no_shear #
lump $-1 $-1 $68 $14 #
transform $-1 1 0 0 0 1 0 0 0 1 62.995086519974365 42.686394971697091 15.242144793476678 1 rotate no_reflect no_shear #
lump $-1 $-1 $69 $15 #
transform $-1 1 0 0 0 1 0 0 0 1 62.995086519974365 42.686394971697091 15.242144793476678 1 rotate no_reflect no_shear #
lump $-1 $-1 $70 $16 #
transform $-1 1 0 0 0 1 0 0 0 1 62.995086519974365 42.686394971697091 15.242144793476678 1 rotate no_reflect no_shear #
lump $-1 $-1 $71 $17 #
transform $-1 1 0 0 0 1 0 0 0 1 62.995086519974365 42.686394971697091 15.242144793476678 1 rotate no_reflect no_shear #
shell $-1 $-1 $-1 $72 $-1 $18 #
shell $-1 $-1 $-1 $73 $-1 $20 #
shell $-1 $-1 $-1 $74 $-1 $22 #
shell $-1 $-1 $-1 $75 $-1 $24 #
shell $-1 $-1 $-1 $76 $-1 $26 #
shell $-1 $-1 $-1 $77 $-1 $28 #
shell $-1 $-1 $-1 $78 $-1 $30 #
shell $-1 $-1 $-1 $79 $-1 $32 #
shell $-1 $-1 $-1 $80 $-1 $34 #
shell $-1 $-1 $-1 $81 $-1 $36 #
shell $-1 $-1 $-1 $82 $-1 $38 #
shell $-1 $-1 $-1 $83 $-1 $40 #
shell $-1 $-1 $-1 $84 $-1 $42 #
shell $-1 $-1 $-1 $85 $-1 $44 #
shell $-1 $-1 $-1 $86 $-1 $46 #
shell $-1 $-1 $-1 $87 $-1 $48 #
shell $-1 $-1 $-1 $88 $-1 $50 #
shell $-1 $-1 $-1 $89 $-1 $52 #
face $-1 $90 $91 $54 $-1 $92 forward single #
face $-1 $93 $94 $55 $-1 $95 reversed single #
face $-1 $96 $97 $56 $-1 $98 reversed single #
face $-1 $99 $100 $57 $-1 $101 forward single #
face $-1 $102 $103 $58 $-1 $104 forward single #
face $-1 $105 $106 $59 $-1 $107 forward single #
face $-1 $108 $109 $60 $-1 $110 reversed single #
face $-1 $111 $112 $61 $-1 $113 forward single #
face $-1 $114 $115 $62 $-1 $116 forward single #
face $-1 $117 $118 $63 $-1 $119 forward single #
face $-1 $120 $121 $64 $-1 $122 reversed single #
face $-1 $123 $124 $65 $-1 $125 forward single #
face $-1 $126 $127 $66 $-1 $128 forward single #
face $-1 $129 $130 $67 $-1 $131 forward single #
face $-1 $132 $133 $68 $-1 $134 reversed single #
face $-1 $135 $136 $69 $-1 $137 forward single #
face $-1 $138 $139 $70 $-1 $140 forward single #
face $-1 $141 $142 $71 $-1 $143 forward single #
face $-1 $144 $145 $54 $-1 $146 reversed single #
loop $-1 $-1 $147 $72 #
plane-surface $-1 0 0 15.242144793476678 0 0 1 1 0 0 forward_v I I I I #
face $-1 $148 $149 $55 $-1 $150 reversed single #
loop $-1 $-1 $151 $73 #
plane-surface $-1 -53.969896599446685 -37.175555121594293 0 0 -1 0 0 0 -1 forward_v I I I I #
face $-1 $152 $153 $56 $-1 $154 reversed single #
loop $-1 $-1 $155 $74 #
plane-surface $-1 6.2065720186368623 -140.59915017556281 79.50712031739306 -1 0 0 0 -0.77714596973225614 0.62932038083071107 forward_v I I I I #
face $-1 $156 $157 $57 $-1 $158 forward single #
loop $-1 $159 $160 $75 #
cone-surface $-1 -10.769428612469106 -34.609843902366826 6.1160142568517397 0 0.77714596973225614 -0.62932038083071107 2 0 0 1 I I 0 1 2 forward I I I I #
face $-1 $161 $162 $58 $-1 $163 forward single #
loop $-1 $164 $165 $76 #
cone-surface $-1 -4.4034283758043671 -34.609843902366826 6.1160142568517397 0 0.77714596973225614 -0.62932038083071107 2 0 0 1 I I 0 1 2 forward I I I I #
face $-1 $166 $167 $59 $-1 $168 forward single #
loop $-1 $169 $170 $77 #
cone-surface $-1 1.9625718608603648 -34.609843902366826 6.1160142568517397 0 0.77714596973225614 -0.62932038083071107 2 0 0 1 I I 0 1 2 forward I I I I #
face $-1 $171 $172 $60 $-1 $173 reversed single #
loop $-1 $-1 $174 $78 #
plane-surface $-1 60.176468618083547 -140.59915017556281 79.50712031739306 -1 0 0 0 -0.77714596973225614 0.62932038083071107 forward_v I I I I #
face $-1 $175 $176 $61 $-1 $177 forward single #
loop $-1 $178 $179 $79 #
cone-surface $-1 43.200467986977571 -34.609843902366826 6.1160142568517397 0 0.77714596973225614 -0.62932038083071107 2 0 0 1 I I 0 1 2 forward I I I I #
face $-1 $180 $181 $62 $-1 $182 forward single #
loop $-1 $183 $184 $80 #
cone-surface $-1 49.566468223642318 -34.609843902366826 6.1160142568517397 0 0.77714596973225614 -0.62932038083071107 2 0 0 1 I I 0 1 2 forward I I I I #
face $-1 $185 $186 $63 $-1 $187 forward single #
loop $-1 $188 $189 $81 #
cone-surface $-1 55.932468460307049 -34.609843902366826 6.1160142568517397 0 0.77714596973225614 -0.62932038083071107 2 0 0 1 I I 0 1 2 forward I I I I #
face $-1 $190 $191 $64 $-1 $192 reversed single #
loop $-1 $-1 $193 $82 #
plane-surface $-1 -15.013428770245596 86.872313495805656 145.85423994670035 1 0 0 0 -0.77714596973225614 -0.62932038083071107 forward_v I I I I #
face $-1 $194 $195 $65 $-1 $196 forward single #
loop $-1 $197 $198 $83 #
cone-surface $-1 -10.769428612469106 34.609843902366819 6.1160142568517433 0 -0.77714596973225614 -0.62932038083071107 2 0 0 1 I I 0 1 2 forward I I I I #
face $-1 $199 $200 $66 $-1 $201 forward single #
loop $-1 $202 $203 $84 #
cone-surface $-1 -4.4034283758043671 34.609843902366819 6.1160142568517433 0 -0.77714596973225614 -0.62932038083071107 2 0 0 1 I I 0 1 2 forward I I I I #
face $-1 $204 $205 $67 $-1 $206 forward single #
loop $-1 $207 $208 $85 #
cone-surface $-1 1.9625718608603648 34.609843902366819 6.1160142568517433 0 -0.77714596973225614 -0.62932038083071107 2 0 0 1 I I 0 1 2 forward I I I I #
face $-1 $209 $210 $68 $-1 $211 reversed single #
loop $-1 $-1 $212 $86 #
plane-surface $-1 38.956467829201088 86.872313495805656 145.85423994670035 1 0 0 0 -0.77714596973225614 -0.62932038083071107 forward_v I I I I #
face $-1 $213 $214 $69 $-1 $215 forward single #
loop $-1 $216 $217 $87 #
cone-surface $-1 43.200467986977571 34.609843902366819 6.1160142568517433 0 -0.77714596973225614 -0.62932038083071107 2 0 0 1 I I 0 1 2 forward I I I I #
face $-1 $218 $219 $70 $-1 $220 forward single #
loop $-1 $221 $222 $88 #
cone-surface $-1 49.566468223642318 34.609843902366819 6.1160142568517433 0 -0.77714596973225614 -0.62932038083071107 2 0 0 1 I I 0 1 2 forward I I I I #
face $-1 $223 $224 $71 $-1 $225 forward single #
loop $-1 $226 $227 $89 #
cone-surface $-1 55.932468460307049 34.609843902366819 6.1160142568517433 0 -0.77714596973225614 -0.62932038083071107 2 0 0 1 I I 0 1 2 forward I I I I #
face $-1 $228 $229 $54 $-1 $230 reversed single #
loop $-1 $-1 $231 $90 #
plane-surface $-1 0 0 -15.242144793476678 0 0 1 1 0 0 forward_v I I I I #
coedge $-1 $232 $233 $234 $235 forward $91 $-1 #
face $-1 $236 $237 $55 $-1 $238 forward single #
loop $-1 $-1 $239 $93 #
plane-surface $-1 -44.944706678919005 -39.930975046645692 0 -1 0 0 0 0 1 forward_v I I I I #
coedge $-1 $240 $241 $242 $243 forward $94 $-1 #
face $-1 $244 $245 $56 $-1 $246 reversed single #
loop $-1 $-1 $247 $96 #
plane-surface $-1 -4.4034283758043671 -42.686394971697098 0.21893663896534576 0 -0.77714596973225614 0.62932038083071107 1 0 0 forward_v I I I I #
coedge $-1 $248 $249 $250 $251 reversed $97 $-1 #
face $-1 $-1 $252 $57 $-1 $253 forward single #
loop $-1 $254 $255 $99 #
cone-surface $-1 -10.769428612469106 -31.838923745202937 3.8721674166517577 0 0.77714596973225614 -0.62932038083071107 1 0 0 1 I I -0.70710678118654746 0.70710678118654746 1 forward I I I I #
loop $-1 $-1 $256 $75 #
coedge $-1 $160 $160 $257 $258 reversed $100 $-1 #
face $-1 $-1 $259 $58 $-1 $260 forward single #
loop $-1 $261 $262 $102 #
cone-surface $-1 -4.4034283758043671 -31.838923745202937 3.8721674166517577 0 0.77714596973225614 -0.62932038083071107 1 0 0 1 I I -0.70710678118654746 0.70710678118654746 1 forward I I I I #
loop $-1 $-1 $263 $76 #
coedge $-1 $165 $165 $264 $265 reversed $103 $-1 #
face $-1 $-1 $266 $59 $-1 $267 forward single #
loop $-1 $268 $269 $105 #
cone-surface $-1 1.9625718608603648 -31.838923745202937 3.8721674166517577 0 0.77714596973225614 -0.62932038083071107 1 0 0 1 I I -0.70710678118654746 0.70710678118654746 1 forward I I I I #
loop $-1 $-1 $270 $77 #
coedge $-1 $170 $170 $271 $272 reversed $106 $-1 #
face $-1 $273 $274 $60 $-1 $275 reversed single #
loop $-1 $-1 $276 $108 #
plane-surface $-1 49.566468223642318 -42.686394971697098 0.21893663896534576 0 -0.77714596973225614 0.62932038083071107 1 0 0 forward_v I I I I #
coedge $-1 $277 $278 $279 $280 reversed $109 $-1 #
face $-1 $-1 $281 $61 $-1 $282 forward single #
loop $-1 $283 $284 $111 #
cone-surface $-1 43.200467986977571 -31.838923745202937 3.8721674166517577 0 0.77714596973225614 -0.62932038083071107 1 0 0 1 I I -0.70710678118654746 0.70710678118654746 1 forward I I I I #
loop $-1 $-1 $285 $79 #
coedge $-1 $179 $179 $286 $287 reversed $112 $-1 #
face $-1 $-1 $288 $62 $-1 $289 forward single #
loop $-1 $290 $291 $114 #
cone-surface $-1 49.566468223642318 -31.838923745202937 3.8721674166517577 0 0.77714596973225614 -0.62932038083071107 1 0 0 1 I I -0.70710678118654746 0.70710678118654746 1 forward I I I I #
loop $-1 $-1 $292 $80 #
coedge $-1 $184 $184 $293 $294 reversed $115 $-1 #
face $-1 $-1 $295 $63 $-1 $296 forward single #
loop $-1 $297 $298 $117 #
cone-surface $-1 55.932468460307049 -31.838923745202937 3.8721674166517577 0 0.77714596973225614 -0.62932038083071107 1 0 0 1 I I -0.70710678118654746 0.70710678118654746 1 forward I I I I #
loop $-1 $-1 $299 $81 #
coedge $-1 $189 $189 $300 $301 reversed $118 $-1 #
face $-1 $302 $303 $64 $-1 $304 reversed single #
loop $-1 $-1 $305 $120 #
plane-surface $-1 -4.4034283758043671 -11.040441708060058 66.566056268272632 0 0.77714596973225614 0.62932038083071107 1 0 0 forward_v I I I I #
coedge $-1 $306 $307 $308 $309 reversed $121 $-1 #
face $-1 $-1 $310 $65 $-1 $311 forward single #
loop $-1 $312 $313 $123 #
cone-surface $-1 -10.769428612469106 31.838923745202926 3.8721674166517612 0 -0.77714596973225614 -0.62932038083071107 1 0 0 1 I I -0.70710678118654746 0.70710678118654746 1 forward I I I I #
loop $-1 $-1 $314 $83 #
coedge $-1 $198 $198 $315 $316 reversed $124 $-1 #
face $-1 $-1 $317 $66 $-1 $318 forward single #
loop $-1 $319 $320 $126 #
cone-surface $-1 -4.4034283758043671 31.838923745202926 3.8721674166517612 0 -0.77714596973225614 -0.62932038083071107 1 0 0 1 I I -0.70710678118654746 0.70710678118654746 1 forward I I I I #
loop $-1 $-1 $321 $84 #
coedge $-1 $203 $203 $322 $323 reversed $127 $-1 #
face $-1 $-1 $324 $67 $-1 $325 forward single #
loop $-1 $326 $327 $129 #
cone-surface $-1 1.9625718608603648 31.838923745202926 3.8721674166517612 0 -0.77714596973225614 -0.62932038083071107 1 0 0 1 I I -0.70710678118654746 0.70710678118654746 1 forward I I I I #
loop $-1 $-1 $328 $85 #
coedge $-1 $208 $208 $329 $330 reversed $130 $-1 #
face $-1 $331 $332 $68 $-1 $333 reversed single #
loop $-1 $-1 $334 $132 #
plane-surface $-1 49.566468223642318 -11.040441708060058 66.566056268272632 0 0.77714596973225614 0.62932038083071107 1 0 0 forward_v I I I I #
coedge $-1 $335 $336 $337 $338 reversed $133 $-1 #
face $-1 $-1 $339 $69 $-1 $340 forward single #
loop $-1 $341 $342 $135 #
cone-surface $-1 43.200467986977571 31.838923745202926 3.8721674166517612 0 -0.77714596973225614 -0.62932038083071107 1 0 0 1 I I -0.70710678118654746 0.70710678118654746 1 forward I I I I #
loop $-1 $-1 $343 $87 #
coedge $-1 $217 $217 $344 $345 reversed $136 $-1 #
face $-1 $-1 $346 $70 $-1 $347 forward single #
loop $-1 $348 $349 $138 #
cone-surface $-1 49.566468223642318 31.838923745202926 3.8721674166517612 0 -0.77714596973225614 -0.62932038083071107 1 0 0 1 I I -0.70710678118654746 0.70710678118654746 1 forward I I I I #
loop $-1 $-1 $350 $88 #
coedge $-1 $222 $222 $351 $352 reversed $139 $-1 #
face $-1 $-1 $353 $71 $-1 $354 forward single #
loop $-1 $355 $356 $141 #
cone-surface $-1 55.932468460307049 31.838923745202926 3.8721674166517612 0 -0.77714596973225614 -0.62932038083071107 1 0 0 1 I I -0.70710678118654746 0.70710678118654746 1 forward I I I I #
loop $-1 $-1 $357 $89 #
coedge $-1 $227 $227 $358 $359 reversed $142 $-1 #
face $-1 $360 $361 $54 $-1 $362 reversed single #
loop $-1 $-1 $363 $144 #
plane-surface $-1 0 -42.686394971697091 0 0 1 0 0 0 1 forward_v I I I I #
coedge $-1 $364 $365 $366 $367 forward $145 $-1 #
coedge $-1 $368 $147 $369 $370 forward $91 $-1 #
coedge $-1 $147 $368 $371 $372 forward $91 $-1 #
coedge $-1 $373 $374 $147 $235 reversed $375 $-1 #
edge $-1 $376 -42.686394971697091 $377 42.686394971697091 $234 $378 forward 7 unknown #
face $-1 $379 $380 $55 $-1 $381 reversed single #
loop $-1 $-1 $382 $148 #
plane-surface $-1 0 0 15.242144793476678 0 0 1 1 0 0 forward_v I I I I #
coedge $-1 $383 $384 $385 $386 reversed $149 $-1 #
coedge $-1 $387 $151 $388 $389 reversed $94 $-1 #
coedge $-1 $151 $387 $390 $391 reversed $94 $-1 #
coedge $-1 $384 $383 $151 $243 reversed $149 $-1 #
edge $-1 $392 -15.242144793476678 $393 15.242144793476678 $242 $394 forward 7 unknown #
face $-1 $395 $396 $56 $-1 $397 forward single #
loop $-1 $-1 $398 $152 #
plane-surface $-1 -15.013428770245596 -140.59915017556281 79.50712031739306 1 0 0 0 0.77714596973225614 -0.62932038083071107 forward_v I I I I #
coedge $-1 $399 $400 $401 $402 reversed $153 $-1 #
coedge $-1 $249 $155 $403 $404 reversed $97 $-1 #
coedge $-1 $155 $248 $399 $405 reversed $97 $-1 #
coedge $-1 $401 $406 $155 $251 forward $396 $-1 #
edge $-1 $407 27.613180116084315 $408 39.778733879881564 $250 $409 forward 7 unknown #
loop $-1 $-1 $257 $156 #
plane-surface $-1 -4.4034283758043671 -42.686394971697098 0.21893663896534576 0 -0.77714596973225614 0.62932038083071107 1 0 0 forward_v I I I I #
loop $-1 $-1 $410 $99 #
coedge $-1 $255 $255 $256 $411 reversed $157 $-1 #
coedge $-1 $256 $256 $255 $411 forward $159 $-1 #
coedge $-1 $257 $257 $160 $258 forward $252 $-1 #
edge $-1 $412 -1.800598521307003e-016 $412 6.2831853071796004 $257 $413 forward 7 unknown #
loop $-1 $-1 $264 $161 #
plane-surface $-1 -4.4034283758043671 -42.686394971697098 0.21893663896534576 0 -0.77714596973225614 0.62932038083071107 1 0 0 forward_v I I I I #
loop $-1 $-1 $414 $102 #
coedge $-1 $262 $262 $263 $415 reversed $162 $-1 #
coedge $-1 $263 $263 $262 $415 forward $164 $-1 #
coedge $-1 $264 $264 $165 $265 forward $259 $-1 #
edge $-1 $416 -1.800598521307003e-016 $416 6.2831853071796004 $264 $417 forward 7 unknown #
loop $-1 $-1 $271 $166 #
plane-surface $-1 -4.4034283758043671 -42.686394971697098 0.21893663896534576 0 -0.77714596973225614 0.62932038083071107 1 0 0 forward_v I I I I #
loop $-1 $-1 $418 $105 #
coedge $-1 $269 $269 $270 $419 reversed $167 $-1 #
coedge $-1 $270 $270 $269 $419 forward $169 $-1 #
coedge $-1 $271 $271 $170 $272 forward $266 $-1 #
edge $-1 $420 -1.800598521307003e-016 $420 6.2831853071796004 $271 $421 forward 7 unknown #
face $-1 $422 $423 $60 $-1 $424 reversed single #
loop $-1 $-1 $425 $171 #
plane-surface $-1 38.956467829201088 -140.59915017556281 79.50712031739306 1 0 0 0 0.77714596973225614 -0.62932038083071107 forward_v I I I I #
coedge $-1 $426 $427 $428 $429 reversed $172 $-1 #
coedge $-1 $278 $174 $430 $431 reversed $109 $-1 #
coedge $-1 $174 $277 $426 $432 reversed $109 $-1 #
coedge $-1 $428 $433 $174 $280 forward $434 $-1 #
edge $-1 $435 27.613180116084315 $436 39.778733879881564 $279 $437 forward 7 unknown #
loop $-1 $-1 $286 $175 #
plane-surface $-1 49.566468223642318 -42.686394971697098 0.21893663896534576 0 -0.77714596973225614 0.62932038083071107 1 0 0 forward_v I I I I #
loop $-1 $-1 $438 $111 #
coedge $-1 $284 $284 $285 $439 reversed $176 $-1 #
coedge $-1 $285 $285 $284 $439 forward $178 $-1 #
coedge $-1 $286 $286 $179 $287 forward $281 $-1 #
edge $-1 $440 -1.800598521307003e-016 $440 6.2831853071796004 $286 $441 forward 7 unknown #
loop $-1 $-1 $293 $180 #
plane-surface $-1 49.566468223642318 -42.686394971697098 0.21893663896534576 0 -0.77714596973225614 0.62932038083071107 1 0 0 forward_v I I I I #
loop $-1 $-1 $442 $114 #
coedge $-1 $291 $291 $292 $443 reversed $181 $-1 #
coedge $-1 $292 $292 $291 $443 forward $183 $-1 #
coedge $-1 $293 $293 $184 $294 forward $288 $-1 #
edge $-1 $444 -1.800598521307003e-016 $444 6.2831853071796004 $293 $445 forward 7 unknown #
loop $-1 $-1 $300 $185 #
plane-surface $-1 49.566468223642318 -42.686394971697098 0.21893663896534576 0 -0.77714596973225614 0.62932038083071107 1 0 0 forward_v I I I I #
loop $-1 $-1 $446 $117 #
coedge $-1 $298 $298 $299 $447 reversed $186 $-1 #
coedge $-1 $299 $299 $298 $447 forward $188 $-1 #
coedge $-1 $300 $300 $189 $301 forward $295 $-1 #
edge $-1 $448 -1.800598521307003e-016 $448 6.2831853071796004 $300 $449 forward 7 unknown #
face $-1 $450 $451 $64 $-1 $452 reversed single #
loop $-1 $-1 $453 $190 #
plane-surface $-1 6.2065720186368623 86.872313495805656 145.85423994670035 -1 0 0 0 0.77714596973225614 0.62932038083071107 forward_v I I I I #
coedge $-1 $454 $455 $456 $457 reversed $191 $-1 #
coedge $-1 $307 $193 $458 $459 reversed $121 $-1 #
coedge $-1 $193 $306 $454 $460 reversed $121 $-1 #
coedge $-1 $456 $461 $193 $309 forward $462 $-1 #
edge $-1 $463 0.74976177620573736 $464 12.915315540003 $308 $465 forward 7 unknown #
loop $-1 $-1 $315 $194 #
plane-surface $-1 -4.4034283758043671 -11.040441708060058 66.566056268272632 0 0.77714596973225614 0.62932038083071107 1 0 0 forward_v I I I I #
loop $-1 $-1 $466 $123 #
coedge $-1 $313 $313 $314 $467 reversed $195 $-1 #
coedge $-1 $314 $314 $313 $467 forward $197 $-1 #
coedge $-1 $315 $315 $198 $316 forward $310 $-1 #
edge $-1 $468 1.6506228750585818e-016 $468 6.2831853071796004 $315 $469 forward 7 unknown #
loop $-1 $-1 $322 $199 #
plane-surface $-1 -4.4034283758043671 -11.040441708060058 66.566056268272632 0 0.77714596973225614 0.62932038083071107 1 0 0 forward_v I I I I #
loop $-1 $-1 $470 $126 #
coedge $-1 $320 $320 $321 $471 reversed $200 $-1 #
coedge $-1 $321 $321 $320 $471 forward $202 $-1 #
coedge $-1 $322 $322 $203 $323 forward $317 $-1 #
edge $-1 $472 1.6506228750585818e-016 $472 6.2831853071796004 $322 $473 forward 7 unknown #
loop $-1 $-1 $329 $204 #
plane-surface $-1 -4.4034283758043671 -11.040441708060058 66.566056268272632 0 0.77714596973225614 0.62932038083071107 1 0 0 forward_v I I I I #
loop $-1 $-1 $474 $129 #
coedge $-1 $327 $327 $328 $475 reversed $205 $-1 #
coedge $-1 $328 $328 $327 $475 forward $207 $-1 #
coedge $-1 $329 $329 $208 $330 forward $324 $-1 #
edge $-1 $476 1.6506228750585818e-016 $476 6.2831853071796004 $329 $477 forward 7 unknown #
face $-1 $478 $479 $68 $-1 $480 forward single #
loop $-1 $-1 $481 $209 #
plane-surface $-1 60.176468618083547 86.872313495805656 145.85423994670035 -1 0 0 0 0.77714596973225614 0.62932038083071107 forward_v I I I I #
coedge $-1 $482 $483 $484 $485 reversed $210 $-1 #
coedge $-1 $336 $212 $486 $487 reversed $133 $-1 #
coedge $-1 $212 $335 $482 $488 reversed $133 $-1 #
coedge $-1 $484 $489 $212 $338 forward $479 $-1 #
edge $-1 $490 0.74976177620573736 $491 12.915315540003 $337 $492 forward 7 unknown #
loop $-1 $-1 $344 $213 #
plane-surface $-1 49.566468223642318 -11.040441708060058 66.566056268272632 0 0.77714596973225614 0.62932038083071107 1 0 0 forward_v I I I I #
loop $-1 $-1 $493 $135 #
coedge $-1 $342 $342 $343 $494 reversed $214 $-1 #
coedge $-1 $343 $343 $342 $494 forward $216 $-1 #
coedge $-1 $344 $344 $217 $345 forward $339 $-1 #
edge $-1 $495 1.6506228750585818e-016 $495 6.2831853071796004 $344 $496 forward 7 unknown #
loop $-1 $-1 $351 $218 #
plane-surface $-1 49.566468223642318 -11.040441708060058 66.566056268272632 0 0.77714596973225614 0.62932038083071107 1 0 0 forward_v I I I I #
loop $-1 $-1 $497 $138 #
coedge $-1 $349 $349 $350 $498 reversed $219 $-1 #
coedge $-1 $350 $350 $349 $498 forward $221 $-1 #
coedge $-1 $351 $351 $222 $352 forward $346 $-1 #
edge $-1 $499 1.6506228750585818e-016 $499 6.2831853071796004 $351 $500 forward 7 unknown #
loop $-1 $-1 $358 $223 #
plane-surface $-1 49.566468223642318 -11.040441708060058 66.566056268272632 0 0.77714596973225614 0.62932038083071107 1 0 0 forward_v I I I I #
loop $-1 $-1 $501 $141 #
coedge $-1 $356 $356 $357 $502 reversed $224 $-1 #
coedge $-1 $357 $357 $356 $502 forward $226 $-1 #
coedge $-1 $358 $358 $227 $359 forward $353 $-1 #
edge $-1 $503 1.6506228750585818e-016 $503 6.2831853071796004 $358 $504 forward 7 unknown #
face $-1 $505 $506 $54 $-1 $507 reversed single #
loop $-1 $-1 $508 $228 #
plane-surface $-1 -62.995086519974365 0 0 1 0 0 0 0 -1 forward_v I I I I #
coedge $-1 $509 $371 $510 $511 forward $229 $-1 #
coedge $-1 $512 $231 $509 $513 forward $145 $-1 #
coedge $-1 $231 $512 $514 $515 forward $145 $-1 #
coedge $-1 $374 $373 $231 $367 reversed $375 $-1 #
edge $-1 $516 -42.686394971697091 $517 42.686394971697091 $366 $518 forward 7 unknown #
coedge $-1 $233 $232 $519 $520 forward $91 $-1 #
coedge $-1 $521 $522 $232 $370 reversed $506 $-1 #
edge $-1 $377 -62.995086519974365 $523 62.995086519974365 $369 $524 forward 7 unknown #
coedge $-1 $363 $525 $233 $372 reversed $229 $-1 #
edge $-1 $526 -62.995086519974365 $376 62.995086519974365 $371 $527 forward 7 unknown #
coedge $-1 $366 $234 $525 $528 forward $375 $-1 #
coedge $-1 $234 $366 $521 $529 reversed $375 $-1 #
loop $-1 $-1 $373 $505 #
vertex $-1 $235 $530 #
vertex $-1 $235 $531 #
straight-curve $-1 62.995086519974365 0 15.242144793476678 0 1 0 I I #
face $-1 $532 $533 $55 $-1 $534 reversed single #
loop $-1 $-1 $535 $236 #
plane-surface $-1 -62.995086519974365 0 0 1 0 0 0 0 -1 forward_v I I I I #
coedge $-1 $390 $536 $384 $537 forward $237 $-1 #
coedge $-1 $242 $239 $538 $539 reversed $149 $-1 #
coedge $-1 $239 $242 $382 $537 reversed $149 $-1 #
coedge $-1 $540 $541 $239 $386 forward $542 $-1 #
edge $-1 $543 -15.242144793476678 $544 15.242144793476678 $385 $545 forward 7 unknown #
coedge $-1 $241 $240 $535 $546 reversed $94 $-1 #
coedge $-1 $538 $547 $240 $389 forward $533 $-1 #
edge $-1 $548 -36.010138220251022 $393 -17.959758379195662 $388 $549 forward 7 unknown #
coedge $-1 $550 $382 $241 $391 forward $237 $-1 #
edge $-1 $392 17.959758379195662 $551 36.010138220251022 $390 $552 forward 7 unknown #
vertex $-1 $391 $553 #
vertex $-1 $389 $554 #
straight-curve $-1 -44.944706678919005 -37.175555121594293 0 0 0 -1 I I #
face $-1 $-1 $555 $56 $-1 $556 reversed single #
loop $-1 $-1 $250 $244 #
plane-surface $-1 0 0 15.242144793476678 0 0 1 1 0 0 forward_v I I I I #
coedge $-1 $557 $558 $559 $560 reversed $245 $-1 #
coedge $-1 $561 $247 $249 $405 forward $153 $-1 #
coedge $-1 $247 $561 $557 $562 forward $153 $-1 #
coedge $-1 $559 $250 $247 $402 forward $396 $-1 #
edge $-1 $408 -8.4082862065390458 $563 12.811714582343413 $401 $564 forward 7 unknown #
coedge $-1 $565 $566 $248 $404 forward $555 $-1 #
edge $-1 $567 -39.534623519731177 $407 -24.511415365219854 $403 $568 forward 7 unknown #
edge $-1 $408 -19.331256597376626 $567 -1.1287752508472441e-014 $249 $569 forward 7 unknown #
coedge $-1 $250 $559 $565 $570 forward $396 $-1 #
vertex $-1 $404 $571 #
vertex $-1 $251 $572 #
straight-curve $-1 6.2065720186368623 -70.299575087781406 15.242144793476676 0 1 0 I I #
coedge $-1 $410 $410 $-1 $573 reversed $254 $-1 #
edge $-1 $574 0 $574 6.2831853071796004 $255 $575 forward 7 unknown #
vertex $-1 $258 $576 #
ellipse-curve $-1 -10.769428612469106 -36.603618089798466 7.7305407162210162 0 -0.77714596973225614 0.62932038083071107 2 0 0 1 I I #
coedge $-1 $414 $414 $-1 $577 reversed $261 $-1 #
edge $-1 $578 0 $578 6.2831853071796004 $262 $579 forward 7 unknown #
vertex $-1 $265 $580 #
ellipse-curve $-1 -4.4034283758043671 -36.603618089798466 7.7305407162210162 0 -0.77714596973225614 0.62932038083071107 2 0 0 1 I I #
coedge $-1 $418 $418 $-1 $581 reversed $268 $-1 #
edge $-1 $582 0 $582 6.2831853071796004 $269 $583 forward 7 unknown #
vertex $-1 $272 $584 #
ellipse-curve $-1 1.9625718608603648 -36.603618089798466 7.7305407162210162 0 -0.77714596973225614 0.62932038083071107 2 0 0 1 I I #
face $-1 $-1 $434 $60 $-1 $585 forward single #
loop $-1 $-1 $586 $273 #
plane-surface $-1 0 -42.686394971697091 0 0 1 0 0 0 1 forward_v I I I I #
coedge $-1 $587 $588 $589 $590 reversed $274 $-1 #
coedge $-1 $591 $276 $278 $432 forward $172 $-1 #
coedge $-1 $276 $591 $587 $592 forward $172 $-1 #
coedge $-1 $589 $279 $276 $429 forward $434 $-1 #
edge $-1 $436 -35.393234506262388 $593 -14.173233717379929 $428 $594 forward 7 unknown #
coedge $-1 $595 $596 $277 $431 forward $423 $-1 #
edge $-1 $597 -39.534623519731177 $435 -24.511415365219854 $430 $598 forward 7 unknown #
edge $-1 $436 -19.331256597376626 $597 -1.1287752508472441e-014 $278 $599 forward 7 unknown #
coedge $-1 $279 $589 $595 $600 forward $434 $-1 #
loop $-1 $-1 $589 $422 #
vertex $-1 $431 $601 #
vertex $-1 $280 $602 #
straight-curve $-1 60.176468618083547 -70.299575087781406 15.242144793476676 0 1 0 I I #
coedge $-1 $438 $438 $-1 $603 reversed $283 $-1 #
edge $-1 $604 0 $604 6.2831853071796004 $284 $605 forward 7 unknown #
vertex $-1 $287 $606 #
ellipse-curve $-1 43.200467986977571 -36.603618089798466 7.7305407162210162 0 -0.77714596973225614 0.62932038083071107 2 0 0 1 I I #
coedge $-1 $442 $442 $-1 $607 reversed $290 $-1 #
edge $-1 $608 0 $608 6.2831853071796004 $291 $609 forward 7 unknown #
vertex $-1 $294 $610 #
ellipse-curve $-1 49.566468223642318 -36.603618089798466 7.7305407162210162 0 -0.77714596973225614 0.62932038083071107 2 0 0 1 I I #
coedge $-1 $446 $446 $-1 $611 reversed $297 $-1 #
edge $-1 $612 0 $612 6.2831853071796004 $298 $613 forward 7 unknown #
vertex $-1 $301 $614 #
ellipse-curve $-1 55.932468460307049 -36.603618089798466 7.7305407162210162 0 -0.77714596973225614 0.62932038083071107 2 0 0 1 I I #
face $-1 $-1 $462 $64 $-1 $615 forward single #
loop $-1 $-1 $616 $302 #
plane-surface $-1 0 42.686394971697091 0 0 -1 0 0 0 -1 forward_v I I I I #
coedge $-1 $617 $618 $619 $620 reversed $303 $-1 #
coedge $-1 $621 $305 $307 $460 forward $191 $-1 #
coedge $-1 $305 $621 $617 $622 forward $191 $-1 #
coedge $-1 $619 $308 $305 $457 forward $462 $-1 #
edge $-1 $464 -12.811714582343413 $623 8.4082862065390458 $456 $624 forward 7 unknown #
coedge $-1 $625 $626 $306 $459 forward $451 $-1 #
edge $-1 $627 -72.708183334384856 $463 -57.684975179873497 $458 $628 forward 7 unknown #
edge $-1 $464 66.041533346017573 $627 85.372789943394224 $307 $629 forward 7 unknown #
coedge $-1 $308 $619 $625 $630 forward $462 $-1 #
loop $-1 $-1 $619 $450 #
vertex $-1 $459 $631 #
vertex $-1 $309 $632 #
straight-curve $-1 -15.013428770245596 43.436156747902828 15.242144793476683 0 -1 0 I I #
coedge $-1 $466 $466 $-1 $633 reversed $312 $-1 #
edge $-1 $634 0 $634 6.2831853071796004 $313 $635 forward 7 unknown #
vertex $-1 $316 $636 #
ellipse-curve $-1 -10.769428612469106 36.603618089798445 7.7305407162210082 0 0.77714596973225614 0.62932038083071107 2 0 0 1 I I #
coedge $-1 $470 $470 $-1 $637 reversed $319 $-1 #
edge $-1 $638 0 $638 6.2831853071796004 $320 $639 forward 7 unknown #
vertex $-1 $323 $640 #
ellipse-curve $-1 -4.4034283758043671 36.603618089798445 7.7305407162210082 0 0.77714596973225614 0.62932038083071107 2 0 0 1 I I #
coedge $-1 $474 $474 $-1 $641 reversed $326 $-1 #
edge $-1 $642 0 $642 6.2831853071796004 $327 $643 forward 7 unknown #
vertex $-1 $330 $644 #
ellipse-curve $-1 1.9625718608603648 36.603618089798445 7.7305407162210082 0 0.77714596973225614 0.62932038083071107 2 0 0 1 I I #
face $-1 $-1 $645 $68 $-1 $646 reversed single #
loop $-1 $-1 $337 $331 #
plane-surface $-1 0 0 15.242144793476678 0 0 1 1 0 0 forward_v I I I I #
coedge $-1 $647 $648 $649 $650 reversed $332 $-1 #
coedge $-1 $651 $334 $336 $488 forward $210 $-1 #
coedge $-1 $334 $651 $647 $652 forward $210 $-1 #
coedge $-1 $649 $337 $334 $485 forward $479 $-1 #
edge $-1 $491 14.173233717379929 $653 35.393234506262388 $484 $654 forward 7 unknown #
coedge $-1 $655 $656 $335 $487 forward $645 $-1 #
edge $-1 $657 -72.708183334384856 $490 -57.684975179873497 $486 $658 forward 7 unknown #
edge $-1 $491 66.041533346017573 $657 85.372789943394224 $336 $659 forward 7 unknown #
coedge $-1 $337 $649 $655 $660 forward $479 $-1 #
vertex $-1 $487 $661 #
vertex $-1 $338 $662 #
straight-curve $-1 38.956467829201088 43.436156747902828 15.242144793476683 0 -1 0 I I #
coedge $-1 $493 $493 $-1 $663 reversed $341 $-1 #
edge $-1 $664 0 $664 6.2831853071796004 $342 $665 forward 7 unknown #
vertex $-1 $345 $666 #
ellipse-curve $-1 43.200467986977571 36.603618089798445 7.7305407162210082 0 0.77714596973225614 0.62932038083071107 2 0 0 1 I I #
coedge $-1 $497 $497 $-1 $667 reversed $348 $-1 #
edge $-1 $668 0 $668 6.2831853071796004 $349 $669 forward 7 unknown #
vertex $-1 $352 $670 #
ellipse-curve $-1 49.566468223642318 36.603618089798445 7.7305407162210082 0 0.77714596973225614 0.62932038083071107 2 0 0 1 I I #
coedge $-1 $501 $501 $-1 $671 reversed $355 $-1 #
edge $-1 $672 0 $672 6.2831853071796004 $356 $673 forward 7 unknown #
vertex $-1 $359 $674 #
ellipse-curve $-1 55.932468460307049 36.603618089798445 7.7305407162210082 0 0.77714596973225614 0.62932038083071107 2 0 0 1 I I #
face $-1 $-1 $375 $54 $-1 $675 reversed single #
loop $-1 $-1 $521 $360 #
plane-surface $-1 0 42.686394971697091 0 0 -1 0 0 0 -1 forward_v I I I I #
coedge $-1 $676 $519 $522 $677 forward $361 $-1 #
coedge $-1 $525 $363 $364 $513 reversed $229 $-1 #
coedge $-1 $519 $676 $363 $511 reversed $361 $-1 #
edge $-1 $526 -15.242144793476678 $678 15.242144793476678 $510 $679 forward 7 unknown #
coedge $-1 $365 $364 $676 $680 forward $145 $-1 #
edge $-1 $517 -62.995086519974365 $678 62.995086519974365 $509 $681 forward 7 unknown #
coedge $-1 $522 $521 $365 $515 reversed $506 $-1 #
edge $-1 $682 -62.995086519974365 $516 62.995086519974365 $514 $683 forward 7 unknown #
vertex $-1 $367 $684 #
vertex $-1 $528 $685 #
straight-curve $-1 62.995086519974365 0 -15.242144793476678 0 -1 0 I I #
coedge $-1 $508 $510 $368 $520 reversed $361 $-1 #
edge $-1 $523 -42.686394971697091 $526 42.686394971697091 $519 $686 forward 7 unknown #
coedge $-1 $514 $369 $374 $529 forward $506 $-1 #
coedge $-1 $369 $514 $508 $677 reversed $506 $-1 #
vertex $-1 $370 $687 #
straight-curve $-1 0 42.686394971697091 15.242144793476678 -1 0 0 I I #
coedge $-1 $371 $509 $373 $528 reversed $229 $-1 #
vertex $-1 $520 $688 #
straight-curve $-1 0 -42.686394971697091 15.242144793476678 1 0 0 I I #
edge $-1 $376 -15.242144793476678 $517 15.242144793476678 $373 $689 forward 7 unknown #
edge $-1 $377 -15.242144793476678 $516 15.242144793476678 $374 $690 forward 7 unknown #
point $-1 62.995086519974365 -42.686394971697091 15.242144793476678 #
point $-1 62.995086519974365 42.686394971697091 15.242144793476678 #
face $-1 $-1 $542 $55 $-1 $691 reversed single #
loop $-1 $-1 $538 $379 #
plane-surface $-1 0 0 -15.242144793476678 0 0 1 1 0 0 forward_v I I I I #
coedge $-1 $692 $693 $387 $546 forward $380 $-1 #
coedge $-1 $382 $550 $540 $694 forward $237 $-1 #
edge $-1 $544 -22.720907448374245 $392 -17.210067598271447 $382 $695 forward 7 unknown #
coedge $-1 $696 $388 $383 $539 forward $533 $-1 #
edge $-1 $393 17.210067598271447 $543 22.720907448374245 $538 $697 forward 7 unknown #
coedge $-1 $698 $385 $536 $694 reversed $542 $-1 #
coedge $-1 $385 $698 $696 $699 reversed $542 $-1 #
loop $-1 $-1 $385 $532 #
vertex $-1 $699 $700 #
vertex $-1 $386 $701 #
straight-curve $-1 -44.944706678919005 -42.686394971697091 0 0 0 1 I I #
edge $-1 $551 -15.242144793476678 $548 15.242144793476678 $535 $702 forward 7 unknown #
coedge $-1 $388 $696 $692 $703 forward $533 $-1 #
vertex $-1 $389 $704 #
straight-curve $-1 -26.984948299723342 -37.175555121594293 -15.242144793476678 1 0 0 I I #
coedge $-1 $536 $390 $693 $705 forward $237 $-1 #
vertex $-1 $705 $706 #
straight-curve $-1 -26.984948299723342 -37.175555121594293 15.242144793476678 -1 0 0 I I #
point $-1 -44.944706678919005 -37.175555121594293 15.242144793476678 #
point $-1 -44.944706678919005 -37.175555121594293 -15.242144793476678 #
loop $-1 $-1 $403 $395 #
plane-surface $-1 0 -42.686394971697091 0 0 1 0 0 0 1 forward_v I I I I #
coedge $-1 $558 $398 $400 $562 reversed $245 $-1 #
coedge $-1 $398 $557 $707 $708 reversed $245 $-1 #
coedge $-1 $406 $401 $398 $560 forward $396 $-1 #
edge $-1 $563 -39.778733879881564 $709 -27.613180116084315 $559 $710 forward 7 unknown #
coedge $-1 $400 $399 $566 $711 reversed $153 $-1 #
edge $-1 $712 1.1287752508472441e-014 $563 19.331256597376626 $557 $713 forward 7 unknown #
vertex $-1 $402 $714 #
straight-curve $-1 -2.2017141879021835 -30.520841207899842 15.242144793476678 -1 0 0 I I #
coedge $-1 $707 $403 $406 $570 reversed $555 $-1 #
coedge $-1 $403 $707 $561 $711 forward $555 $-1 #
vertex $-1 $404 $715 #
straight-curve $-1 6.2065720186368623 -42.686394971697091 39.75356015869653 0 0 1 I I #
straight-curve $-1 6.2065720186368623 -42.686394971697098 0.21893663896534576 0 -0.62932038083071107 -0.77714596973225614 I I #
edge $-1 $709 -15.013428770245596 $407 6.2065720186368623 $565 $716 forward 7 unknown #
point $-1 6.2065720186368623 -42.686394971697091 15.242144793476678 #
point $-1 6.2065720186368623 -30.520841207899842 15.242144793476678 #
edge $-1 $717 1 $717 0 $410 $-1 forward 7 unknown #
vertex $-1 $411 $718 #
ellipse-curve $-1 -10.769428612469106 -32.616069714935193 4.5014877974824685 0 -0.77714596973225614 0.62932038083071107 2 0 0 1 I I #
point $-1 -8.7694286124691061 -36.603618089798459 7.73054071622101 #
edge $-1 $719 1 $719 0 $414 $-1 forward 7 unknown #
vertex $-1 $415 $720 #
ellipse-curve $-1 -4.4034283758043671 -32.616069714935193 4.5014877974824685 0 -0.77714596973225614 0.62932038083071107 2 0 0 1 I I #
point $-1 -2.4034283758043671 -36.603618089798459 7.73054071622101 #
edge $-1 $721 1 $721 0 $418 $-1 forward 7 unknown #
vertex $-1 $419 $722 #
ellipse-curve $-1 1.9625718608603648 -32.616069714935193 4.5014877974824685 0 -0.77714596973225614 0.62932038083071107 2 0 0 1 I I #
point $-1 3.9625718608603648 -36.603618089798459 7.73054071622101 #
plane-surface $-1 0 0 15.242144793476678 0 0 1 1 0 0 forward_v I I I I #
coedge $-1 $596 $595 $588 $723 forward $423 $-1 #
coedge $-1 $588 $425 $427 $592 reversed $274 $-1 #
coedge $-1 $425 $587 $586 $723 reversed $274 $-1 #
coedge $-1 $433 $428 $425 $590 forward $434 $-1 #
edge $-1 $593 -39.778733879881564 $724 -27.613180116084315 $589 $725 forward 7 unknown #
coedge $-1 $427 $426 $596 $726 reversed $172 $-1 #
edge $-1 $727 1.1287752508472441e-014 $593 19.331256597376626 $587 $728 forward 7 unknown #
vertex $-1 $429 $729 #
straight-curve $-1 24.783234111821159 -30.520841207899842 15.242144793476678 -1 0 0 I I #
coedge $-1 $586 $430 $433 $600 reversed $423 $-1 #
coedge $-1 $430 $586 $591 $726 forward $423 $-1 #
vertex $-1 $431 $730 #
straight-curve $-1 60.176468618083547 -42.686394971697091 39.75356015869653 0 0 1 I I #
straight-curve $-1 60.176468618083547 -42.686394971697098 0.21893663896534576 0 -0.62932038083071107 -0.77714596973225614 I I #
edge $-1 $724 38.956467829201088 $435 60.176468618083547 $595 $731 forward 7 unknown #
point $-1 60.176468618083547 -42.686394971697091 15.242144793476678 #
point $-1 60.176468618083547 -30.520841207899842 15.242144793476678 #
edge $-1 $732 1 $732 0 $438 $-1 forward 7 unknown #
vertex $-1 $439 $733 #
ellipse-curve $-1 43.200467986977571 -32.616069714935193 4.5014877974824685 0 -0.77714596973225614 0.62932038083071107 2 0 0 1 I I #
point $-1 45.200467986977571 -36.603618089798459 7.73054071622101 #
edge $-1 $734 1 $734 0 $442 $-1 forward 7 unknown #
vertex $-1 $443 $735 #
ellipse-curve $-1 49.566468223642318 -32.616069714935193 4.5014877974824685 0 -0.77714596973225614 0.62932038083071107 2 0 0 1 I I #
point $-1 51.566468223642318 -36.603618089798459 7.73054071622101 #
edge $-1 $736 1 $736 0 $446 $-1 forward 7 unknown #
vertex $-1 $447 $737 #
ellipse-curve $-1 55.932468460307049 -32.616069714935193 4.5014877974824685 0 -0.77714596973225614 0.62932038083071107 2 0 0 1 I I #
point $-1 57.932468460307049 -36.603618089798459 7.73054071622101 #
plane-surface $-1 0 0 15.242144793476678 0 0 1 1 0 0 forward_v I I I I #
coedge $-1 $626 $625 $618 $738 forward $451 $-1 #
coedge $-1 $618 $453 $455 $622 reversed $303 $-1 #
coedge $-1 $453 $617 $616 $738 reversed $303 $-1 #
coedge $-1 $461 $456 $453 $620 forward $462 $-1 #
edge $-1 $623 -12.915315540003 $739 -0.74976177620573736 $619 $740 forward 7 unknown #
coedge $-1 $455 $454 $626 $741 reversed $191 $-1 #
edge $-1 $742 -85.372789943394224 $623 -66.041533346017573 $617 $743 forward 7 unknown #
vertex $-1 $457 $744 #
straight-curve $-1 -2.2017141879021835 30.520841207899828 15.242144793476676 1 0 0 I I #
coedge $-1 $616 $458 $461 $630 reversed $451 $-1 #
coedge $-1 $458 $616 $621 $741 forward $451 $-1 #
vertex $-1 $459 $745 #
straight-curve $-1 -15.013428770245596 42.686394971697091 72.927119973350173 0 0 1 I I #
straight-curve $-1 -15.013428770245596 -11.040441708060058 66.566056268272632 0 0.62932038083071107 -0.77714596973225614 I I #
edge $-1 $739 -6.2065720186368623 $463 15.013428770245596 $625 $746 forward 7 unknown #
point $-1 -15.013428770245596 42.686394971697091 15.242144793476678 #
point $-1 -15.013428770245596 30.520841207899828 15.242144793476676 #
edge $-1 $747 1 $747 0 $466 $-1 forward 7 unknown #
vertex $-1 $467 $748 #
ellipse-curve $-1 -10.769428612469106 32.616069714935179 4.5014877974824721 0 0.77714596973225614 0.62932038083071107 2 0 0 1 I I #
point $-1 -8.7694286124691061 36.603618089798452 7.7305407162210136 #
edge $-1 $749 1 $749 0 $470 $-1 forward 7 unknown #
vertex $-1 $471 $750 #
ellipse-curve $-1 -4.4034283758043671 32.616069714935179 4.5014877974824721 0 0.77714596973225614 0.62932038083071107 2 0 0 1 I I #
point $-1 -2.4034283758043671 36.603618089798452 7.7305407162210136 #
edge $-1 $751 1 $751 0 $474 $-1 forward 7 unknown #
vertex $-1 $475 $752 #
ellipse-curve $-1 1.9625718608603648 32.616069714935179 4.5014877974824721 0 0.77714596973225614 0.62932038083071107 2 0 0 1 I I #
point $-1 3.9625718608603648 36.603618089798452 7.7305407162210136 #
loop $-1 $-1 $486 $478 #
plane-surface $-1 0 42.686394971697091 0 0 -1 0 0 0 -1 forward_v I I I I #
coedge $-1 $648 $481 $483 $652 reversed $332 $-1 #
coedge $-1 $481 $647 $753 $754 reversed $332 $-1 #
coedge $-1 $489 $484 $481 $650 forward $479 $-1 #
edge $-1 $653 -12.915315540003 $755 -0.74976177620573736 $649 $756 forward 7 unknown #
coedge $-1 $483 $482 $656 $757 reversed $210 $-1 #
edge $-1 $758 -85.372789943394224 $653 -66.041533346017573 $647 $759 forward 7 unknown #
vertex $-1 $485 $760 #
straight-curve $-1 24.783234111821159 30.520841207899828 15.242144793476676 1 0 0 I I #
coedge $-1 $753 $486 $489 $660 reversed $645 $-1 #
coedge $-1 $486 $753 $651 $757 forward $645 $-1 #
vertex $-1 $487 $761 #
straight-curve $-1 38.956467829201088 42.686394971697091 72.927119973350173 0 0 1 I I #
straight-curve $-1 38.956467829201088 -11.040441708060058 66.566056268272632 0 0.62932038083071107 -0.77714596973225614 I I #
edge $-1 $755 -60.176468618083547 $490 -38.956467829201088 $655 $762 forward 7 unknown #
point $-1 38.956467829201088 42.686394971697091 15.242144793476678 #
point $-1 38.956467829201088 30.520841207899828 15.242144793476676 #
edge $-1 $763 1 $763 0 $493 $-1 forward 7 unknown #
vertex $-1 $494 $764 #
ellipse-curve $-1 43.200467986977571 32.616069714935179 4.5014877974824721 0 0.77714596973225614 0.62932038083071107 2 0 0 1 I I #
point $-1 45.200467986977571 36.603618089798452 7.7305407162210136 #
edge $-1 $765 1 $765 0 $497 $-1 forward 7 unknown #
vertex $-1 $498 $766 #
ellipse-curve $-1 49.566468223642318 32.616069714935179 4.5014877974824721 0 0.77714596973225614 0.62932038083071107 2 0 0 1 I I #
point $-1 51.566468223642318 36.603618089798452 7.7305407162210136 #
edge $-1 $767 1 $767 0 $501 $-1 forward 7 unknown #
vertex $-1 $502 $768 #
ellipse-curve $-1 55.932468460307049 32.616069714935179 4.5014877974824721 0 0.77714596973225614 0.62932038083071107 2 0 0 1 I I #
point $-1 57.932468460307049 36.603618089798452 7.7305407162210136 #
plane-surface $-1 62.995086519974365 0 0 -1 0 0 0 0 1 forward_v I I I I #
coedge $-1 $510 $508 $512 $680 reversed $361 $-1 #
edge $-1 $523 -15.242144793476678 $682 15.242144793476678 $522 $769 forward 7 unknown #
vertex $-1 $680 $770 #
straight-curve $-1 -62.995086519974365 -42.686394971697091 0 0 0 -1 I I #
edge $-1 $678 -42.686394971697091 $682 42.686394971697091 $676 $771 forward 7 unknown #
straight-curve $-1 0 -42.686394971697091 -15.242144793476678 -1 0 0 I I #
vertex $-1 $515 $772 #
straight-curve $-1 0 42.686394971697091 -15.242144793476678 1 0 0 I I #
point $-1 62.995086519974365 42.686394971697091 -15.242144793476678 #
point $-1 62.995086519974365 -42.686394971697091 -15.242144793476678 #
straight-curve $-1 -62.995086519974365 0 15.242144793476678 0 -1 0 I I #
point $-1 -62.995086519974365 42.686394971697091 15.242144793476678 #
point $-1 -62.995086519974365 -42.686394971697091 15.242144793476678 #
straight-curve $-1 62.995086519974365 -42.686394971697091 0 0 0 -1 I I #
straight-curve $-1 62.995086519974365 42.686394971697091 0 0 0 -1 I I #
plane-surface $-1 0 -42.686394971697091 0 0 1 0 0 0 1 forward_v I I I I #
coedge $-1 $773 $535 $547 $703 reversed $380 $-1 #
coedge $-1 $535 $773 $550 $705 reversed $380 $-1 #
edge $-1 $774 -62.995086519974365 $544 -44.944706678919005 $540 $775 forward 7 unknown #
straight-curve $-1 -44.944706678919005 -19.965487523322846 15.242144793476678 0 1 0 I I #
coedge $-1 $547 $538 $541 $699 forward $533 $-1 #
straight-curve $-1 -44.944706678919005 -19.965487523322846 -15.242144793476678 0 -1 0 I I #
coedge $-1 $541 $540 $773 $776 forward $542 $-1 #
edge $-1 $543 44.944706678919005 $777 62.995086519974365 $541 $778 forward 7 unknown #
point $-1 -44.944706678919005 -42.686394971697091 -15.242144793476678 #
point $-1 -44.944706678919005 -42.686394971697091 15.242144793476678 #
straight-curve $-1 -62.995086519974365 -37.175555121594293 0 0 0 -1 I I #
edge $-1 $777 -42.686394971697091 $548 -37.175555121594293 $692 $779 forward 7 unknown #
point $-1 -62.995086519974365 -37.175555121594293 -15.242144793476678 #
edge $-1 $551 37.175555121594293 $774 42.686394971697091 $693 $780 forward 7 unknown #
point $-1 -62.995086519974365 -37.175555121594293 15.242144793476678 #
coedge $-1 $566 $565 $558 $708 forward $555 $-1 #
edge $-1 $709 24.511415365219854 $712 39.534623519731177 $707 $781 forward 7 unknown #
vertex $-1 $570 $782 #
straight-curve $-1 -15.013428770245596 -70.299575087781406 15.242144793476676 0 -1 0 I I #
edge $-1 $712 -12.811714582343413 $567 8.4082862065390458 $566 $783 forward 7 unknown #
vertex $-1 $711 $784 #
straight-curve $-1 -15.013428770245596 -42.686394971697098 0.21893663896534576 0 0.62932038083071107 0.77714596973225614 I I #
point $-1 -15.013428770245596 -30.520841207899842 15.242144793476678 #
point $-1 6.2065720186368623 -42.686394971697091 0.21893663896535454 #
straight-curve $-1 0 -42.686394971697091 15.242144793476678 1 0 0 I I #
vertex $-1 $573 $785 #
point $-1 -8.7694286124691061 -32.616069714935193 4.5014877974824685 #
vertex $-1 $577 $786 #
point $-1 -2.4034283758043671 -32.616069714935193 4.5014877974824685 #
vertex $-1 $581 $787 #
point $-1 3.9625718608603648 -32.616069714935193 4.5014877974824685 #
edge $-1 $724 24.511415365219854 $727 39.534623519731177 $586 $788 forward 7 unknown #
vertex $-1 $600 $789 #
straight-curve $-1 38.956467829201088 -70.299575087781406 15.242144793476676 0 -1 0 I I #
edge $-1 $727 14.173233717379929 $597 35.393234506262388 $596 $790 forward 7 unknown #
vertex $-1 $726 $791 #
straight-curve $-1 38.956467829201088 -42.686394971697098 0.21893663896534576 0 0.62932038083071107 0.77714596973225614 I I #
point $-1 38.956467829201088 -30.520841207899842 15.242144793476678 #
point $-1 60.176468618083547 -42.686394971697091 0.21893663896535454 #
straight-curve $-1 0 -42.686394971697091 15.242144793476678 1 0 0 I I #
vertex $-1 $603 $792 #
point $-1 45.200467986977571 -32.616069714935193 4.5014877974824685 #
vertex $-1 $607 $793 #
point $-1 51.566468223642318 -32.616069714935193 4.5014877974824685 #
vertex $-1 $611 $794 #
point $-1 57.932468460307049 -32.616069714935193 4.5014877974824685 #
edge $-1 $739 57.684975179873497 $742 72.708183334384856 $616 $795 forward 7 unknown #
vertex $-1 $630 $796 #
straight-curve $-1 6.2065720186368623 43.436156747902828 15.242144793476683 0 1 0 I I #
edge $-1 $742 -8.4082862065390458 $627 12.811714582343413 $626 $797 forward 7 unknown #
vertex $-1 $741 $798 #
straight-curve $-1 6.2065720186368623 -11.040441708060058 66.566056268272632 0 -0.62932038083071107 0.77714596973225614 I I #
point $-1 6.2065720186368623 30.520841207899828 15.242144793476676 #
point $-1 -15.013428770245596 42.686394971697098 0.21893663896531734 #
straight-curve $-1 0 42.686394971697091 15.242144793476678 -1 0 0 I I #
vertex $-1 $633 $799 #
point $-1 -8.7694286124691061 32.616069714935179 4.5014877974824721 #
vertex $-1 $637 $800 #
point $-1 -2.4034283758043671 32.616069714935179 4.5014877974824721 #
vertex $-1 $641 $801 #
point $-1 3.9625718608603648 32.616069714935179 4.5014877974824721 #
coedge $-1 $656 $655 $648 $754 forward $645 $-1 #
edge $-1 $755 57.684975179873497 $758 72.708183334384856 $753 $802 forward 7 unknown #
vertex $-1 $660 $803 #
straight-curve $-1 60.176468618083547 43.436156747902828 15.242144793476683 0 1 0 I I #
edge $-1 $758 -35.393234506262388 $657 -14.173233717379929 $656 $804 forward 7 unknown #
vertex $-1 $757 $805 #
straight-curve $-1 60.176468618083547 -11.040441708060058 66.566056268272632 0 -0.62932038083071107 0.77714596973225614 I I #
point $-1 60.176468618083547 30.520841207899828 15.242144793476676 #
point $-1 38.956467829201088 42.686394971697098 0.21893663896531734 #
straight-curve $-1 0 42.686394971697091 15.242144793476678 -1 0 0 I I #
vertex $-1 $663 $806 #
point $-1 45.200467986977571 32.616069714935179 4.5014877974824721 #
vertex $-1 $667 $807 #
point $-1 51.566468223642318 32.616069714935179 4.5014877974824721 #
vertex $-1 $671 $808 #
point $-1 57.932468460307049 32.616069714935179 4.5014877974824721 #
straight-curve $-1 -62.995086519974365 42.686394971697091 0 0 0 -1 I I #
point $-1 -62.995086519974365 -42.686394971697091 -15.242144793476678 #
straight-curve $-1 -62.995086519974365 0 -15.242144793476678 0 1 0 I I #
point $-1 -62.995086519974365 42.686394971697091 -15.242144793476678 #
coedge $-1 $693 $692 $698 $776 reversed $380 $-1 #
vertex $-1 $705 $809 #
straight-curve $-1 0 -42.686394971697091 15.242144793476678 1 0 0 I I #
edge $-1 $774 -15.242144793476678 $777 15.242144793476678 $773 $810 forward 7 unknown #
vertex $-1 $703 $811 #
straight-curve $-1 0 -42.686394971697091 -15.242144793476678 -1 0 0 I I #
straight-curve $-1 -62.995086519974365 0 -15.242144793476678 0 1 0 I I #
straight-curve $-1 -62.995086519974365 0 15.242144793476678 0 -1 0 I I #
straight-curve $-1 -15.013428770245596 -42.686394971697091 39.75356015869653 0 0 -1 I I #
point $-1 -15.013428770245596 -42.686394971697091 15.242144793476678 #
straight-curve $-1 -2.2017141879021835 -42.686394971697091 0.21893663896536308 1 0 0 I I #
point $-1 -15.013428770245596 -42.686394971697091 0.21893663896535454 #
point $-1 -10.769428612469106 -31.061777775470681 3.2428470358210468 #
point $-1 -4.4034283758043671 -31.061777775470681 3.2428470358210468 #
point $-1 1.9625718608603648 -31.061777775470681 3.2428470358210468 #
straight-curve $-1 38.956467829201088 -42.686394971697091 39.75356015869653 0 0 -1 I I #
point $-1 38.956467829201088 -42.686394971697091 15.242144793476678 #
straight-curve $-1 24.783234111821159 -42.686394971697091 0.21893663896536308 1 0 0 I I #
point $-1 38.956467829201088 -42.686394971697091 0.21893663896535454 #
point $-1 43.200467986977571 -31.061777775470681 3.2428470358210468 #
point $-1 49.566468223642318 -31.061777775470681 3.2428470358210468 #
point $-1 55.932468460307049 -31.061777775470681 3.2428470358210468 #
straight-curve $-1 6.2065720186368623 42.686394971697091 72.927119973350173 0 0 -1 I I #
point $-1 6.2065720186368623 42.686394971697091 15.242144793476678 #
straight-curve $-1 -2.2017141879021835 42.686394971697091 0.21893663896532445 -1 0 0 I I #
point $-1 6.2065720186368623 42.686394971697098 0.21893663896531734 #
point $-1 -10.769428612469106 31.06177777547067 3.2428470358210504 #
point $-1 -4.4034283758043671 31.06177777547067 3.2428470358210504 #
point $-1 1.9625718608603648 31.06177777547067 3.2428470358210504 #
straight-curve $-1 60.176468618083547 42.686394971697091 72.927119973350173 0 0 -1 I I #
point $-1 60.176468618083547 42.686394971697091 15.242144793476678 #
straight-curve $-1 24.783234111821159 42.686394971697091 0.21893663896532445 -1 0 0 I I #
point $-1 60.176468618083547 42.686394971697098 0.21893663896531734 #
point $-1 43.200467986977571 31.06177777547067 3.2428470358210504 #
point $-1 49.566468223642318 31.06177777547067 3.2428470358210504 #
point $-1 55.932468460307049 31.06177777547067 3.2428470358210504 #
point $-1 -62.995086519974365 -42.686394971697091 15.242144793476678 #
straight-curve $-1 -62.995086519974365 -42.686394971697091 0 0 0 -1 I I #
point $-1 -62.995086519974365 -42.686394971697091 -15.242144793476678 #
End-of-ACIS-data 