500 0 14 0           
7 Unknown 11 ACIS 5.0 NT 24 Fri Mar 26 00:25:29 1999 
-1 9.9999999999999995e-007 1e-010 
body $-1 $14 $-1 $15 #
body $-1 $16 $-1 $17 #
body $-1 $18 $-1 $19 #
body $-1 $20 $-1 $21 #
body $-1 $22 $-1 $23 #
body $-1 $24 $-1 $25 #
body $-1 $26 $-1 $27 #
body $-1 $28 $-1 $29 #
body $-1 $30 $-1 $31 #
body $-1 $32 $-1 $33 #
body $-1 $34 $-1 $35 #
body $-1 $36 $-1 $37 #
body $-1 $38 $-1 $39 #
body $-1 $40 $-1 $41 #
lump $-1 $-1 $42 $0 #
transform $-1 1 0 0 0 1 0 0 0 1 51.759392071291238 32.352818774039257 12.768537015469089 1 rotate no_reflect no_shear #
lump $-1 $-1 $43 $1 #
transform $-1 1 0 0 0 1 0 0 0 1 51.759392071291238 32.352818774039257 12.768537015469089 1 rotate no_reflect no_shear #
lump $-1 $-1 $44 $2 #
transform $-1 1 0 0 0 1 0 0 0 1 51.759392071291238 32.352818774039257 12.768537015469089 1 rotate no_reflect no_shear #
lump $-1 $-1 $45 $3 #
transform $-1 1 0 0 0 1 0 0 0 1 51.759392071291238 32.352818774039257 12.768537015469089 1 rotate no_reflect no_shear #
lump $-1 $-1 $46 $4 #
transform $-1 1 0 0 0 1 0 0 0 1 51.759392071291238 32.352818774039257 12.768537015469089 1 rotate no_reflect no_shear #
lump $-1 $-1 $47 $5 #
transform $-1 1 0 0 0 1 0 0 0 1 51.759392071291238 32.352818774039257 12.768537015469089 1 rotate no_reflect no_shear #
lump $-1 $-1 $48 $6 #
transform $-1 1 0 0 0 1 0 0 0 1 51.759392071291238 32.352818774039257 12.768537015469089 1 rotate no_reflect no_shear #
lump $-1 $-1 $49 $7 #
transform $-1 1 0 0 0 1 0 0 0 1 51.759392071291238 32.352818774039257 12.768537015469089 1 rotate no_reflect no_shear #
lump $-1 $-1 $50 $8 #
transform $-1 1 0 0 0 1 0 0 0 1 51.759392071291238 32.352818774039257 12.768537015469089 1 rotate no_reflect no_shear #
lump $-1 $-1 $51 $9 #
transform $-1 1 0 0 0 1 0 0 0 1 51.759392071291238 32.352818774039257 12.768537015469089 1 rotate no_reflect no_shear #
lump $-1 $-1 $52 $10 #
transform $-1 1 0 0 0 1 0 0 0 1 51.759392071291238 32.352818774039257 12.768537015469089 1 rotate no_reflect no_shear #
lump $-1 $-1 $53 $11 #
transform $-1 1 0 0 0 1 0 0 0 1 51.759392071291238 32.352818774039257 12.768537015469089 1 rotate no_reflect no_shear #
lump $-1 $-1 $54 $12 #
transform $-1 1 0 0 0 1 0 0 0 1 51.759392071291238 32.352818774039257 12.768537015469089 1 rotate no_reflect no_shear #
lump $-1 $-1 $55 $13 #
transform $-1 1 0 0 0 1 0 0 0 1 51.759392071291238 32.352818774039257 12.768537015469089 1 rotate no_reflect no_shear #
shell $-1 $-1 $-1 $56 $-1 $14 #
shell $-1 $-1 $-1 $57 $-1 $16 #
shell $-1 $-1 $-1 $58 $-1 $18 #
shell $-1 $-1 $-1 $59 $-1 $20 #
shell $-1 $-1 $-1 $60 $-1 $22 #
shell $-1 $-1 $-1 $61 $-1 $24 #
shell $-1 $-1 $-1 $62 $-1 $26 #
shell $-1 $-1 $-1 $63 $-1 $28 #
shell $-1 $-1 $-1 $64 $-1 $30 #
shell $-1 $-1 $-1 $65 $-1 $32 #
shell $-1 $-1 $-1 $66 $-1 $34 #
shell $-1 $-1 $-1 $67 $-1 $36 #
shell $-1 $-1 $-1 $68 $-1 $38 #
shell $-1 $-1 $-1 $69 $-1 $40 #
face $-1 $70 $71 $42 $-1 $72 reversed single #
face $-1 $73 $74 $43 $-1 $75 forward single #
face $-1 $76 $77 $44 $-1 $78 reversed single #
face $-1 $79 $80 $45 $-1 $81 forward single #
face $-1 $82 $83 $46 $-1 $84 forward single #
face $-1 $85 $86 $47 $-1 $87 reversed single #
face $-1 $88 $89 $48 $-1 $90 forward single #
face $-1 $91 $92 $49 $-1 $93 forward single #
face $-1 $94 $95 $50 $-1 $96 reversed single #
face $-1 $97 $98 $51 $-1 $99 forward single #
face $-1 $100 $101 $52 $-1 $102 forward single #
face $-1 $103 $104 $53 $-1 $105 reversed single #
face $-1 $106 $107 $54 $-1 $108 forward single #
face $-1 $109 $110 $55 $-1 $111 forward single #
face $-1 $112 $113 $42 $-1 $114 forward single #
loop $-1 $-1 $115 $56 #
plane-surface $-1 -51.759392071291238 0 0 1 0 0 0 0 -1 forward_v I I I I #
face $-1 $116 $117 $43 $-1 $118 reversed single #
loop $-1 $-1 $119 $57 #
plane-surface $-1 -51.759392071291238 0 0 1 0 0 0 0 -1 forward_v I I I I #
face $-1 $120 $121 $44 $-1 $122 reversed single #
loop $-1 $-1 $123 $58 #
plane-surface $-1 13.868888400034059 -18.797257067541118 146.48480245151134 0 -1 0 -0.50000000669873634 0 -0.8660253999169214 forward_v I I I I #
face $-1 $124 $125 $45 $-1 $126 forward single #
loop $-1 $127 $128 $59 #
cone-surface $-1 44.528196042794541 -26.584916488573903 7.9367616707759439 -0.50000000669873634 0 -0.8660253999169214 0.8660253999169214 0 -0.50000000669873634 1 I I 0 1 1 forward I I I I #
face $-1 $129 $130 $46 $-1 $131 forward single #
loop $-1 $132 $133 $60 #
cone-surface $-1 44.528196042794541 -21.912320835954233 7.9367616707759439 -0.50000000669873634 0 -0.8660253999169214 0.8660253999169214 0 -0.50000000669873634 1 I I 0 1 1 forward I I I I #
face $-1 $134 $135 $47 $-1 $136 reversed single #
loop $-1 $-1 $137 $61 #
plane-surface $-1 13.868888400034059 -2.6208476805214911 146.48480245151134 0 -1 0 -0.50000000669873634 0 -0.8660253999169214 forward_v I I I I #
face $-1 $138 $139 $48 $-1 $140 forward single #
loop $-1 $141 $142 $62 #
cone-surface $-1 44.528196042794541 -10.408507101554271 7.9367616707759439 -0.50000000669873634 0 -0.8660253999169214 0.8660253999169214 0 -0.50000000669873634 1 I I 0 1 1 forward I I I I #
face $-1 $143 $144 $49 $-1 $145 forward single #
loop $-1 $146 $147 $63 #
cone-surface $-1 44.528196042794541 -5.7359114489346013 7.9367616707759439 -0.50000000669873634 0 -0.8660253999169214 0.8660253999169214 0 -0.50000000669873634 1 I I 0 1 1 forward I I I I #
face $-1 $148 $149 $50 $-1 $150 reversed single #
loop $-1 $-1 $151 $64 #
plane-surface $-1 13.868888400034059 13.555561706498141 146.48480245151134 0 -1 0 -0.50000000669873634 0 -0.8660253999169214 forward_v I I I I #
face $-1 $152 $153 $51 $-1 $154 forward single #
loop $-1 $155 $156 $65 #
cone-surface $-1 44.528196042794541 5.767902285465361 7.9367616707759439 -0.50000000669873634 0 -0.8660253999169214 0.8660253999169214 0 -0.50000000669873634 1 I I 0 1 1 forward I I I I #
face $-1 $157 $158 $52 $-1 $159 forward single #
loop $-1 $160 $161 $66 #
cone-surface $-1 44.528196042794541 10.440497938085024 7.9367616707759439 -0.50000000669873634 0 -0.8660253999169214 0.8660253999169214 0 -0.50000000669873634 1 I I 0 1 1 forward I I I I #
face $-1 $162 $163 $53 $-1 $164 reversed single #
loop $-1 $-1 $165 $67 #
plane-surface $-1 13.868888400034059 29.731971093517771 146.48480245151134 0 -1 0 -0.50000000669873634 0 -0.8660253999169214 forward_v I I I I #
face $-1 $166 $167 $54 $-1 $168 forward single #
loop $-1 $169 $170 $68 #
cone-surface $-1 44.528196042794541 21.944311672484993 7.9367616707759439 -0.50000000669873634 0 -0.8660253999169214 0.8660253999169214 0 -0.50000000669873634 1 I I 0 1 1 forward I I I I #
face $-1 $171 $172 $55 $-1 $173 forward single #
loop $-1 $174 $175 $69 #
cone-surface $-1 44.528196042794541 26.616907325104656 7.9367616707759439 -0.50000000669873634 0 -0.8660253999169214 0.8660253999169214 0 -0.50000000669873634 1 I I 0 1 1 forward I I I I #
face $-1 $176 $177 $42 $-1 $178 reversed single #
loop $-1 $-1 $179 $70 #
plane-surface $-1 0 0 12.768537015469089 0 0 1 1 0 0 forward_v I I I I #
coedge $-1 $180 $181 $182 $183 reversed $71 $-1 #
face $-1 $184 $185 $43 $-1 $186 reversed single #
loop $-1 $-1 $187 $73 #
plane-surface $-1 0 0 -12.768537015469089 0 0 1 1 0 0 forward_v I I I I #
coedge $-1 $188 $189 $190 $191 forward $74 $-1 #
face $-1 $192 $193 $44 $-1 $194 reversed single #
loop $-1 $-1 $195 $76 #
plane-surface $-1 -37.890504364702224 -24.248618662264064 56.834906015517873 0.50000000669873634 0 0.8660253999169214 0.8660253999169214 0 -0.50000000669873634 forward_v I I I I #
coedge $-1 $196 $197 $198 $199 reversed $77 $-1 #
face $-1 $-1 $200 $45 $-1 $201 forward single #
loop $-1 $202 $203 $79 #
cone-surface $-1 43.709353904073645 -26.584916488573903 6.5184855084680784 -0.50000000669873634 0 -0.8660253999169214 0.4330126999584607 0 -0.25000000334936817 1 I I -0.70710678118654746 0.70710678118654746 0.5 forward I I I I #
loop $-1 $-1 $204 $59 #
coedge $-1 $128 $128 $205 $206 reversed $80 $-1 #
face $-1 $-1 $207 $46 $-1 $208 forward single #
loop $-1 $209 $210 $82 #
cone-surface $-1 43.709353904073645 -21.912320835954233 6.5184855084680784 -0.50000000669873634 0 -0.8660253999169214 0.4330126999584607 0 -0.25000000334936817 1 I I -0.70710678118654746 0.70710678118654746 0.5 forward I I I I #
loop $-1 $-1 $211 $60 #
coedge $-1 $133 $133 $212 $213 reversed $83 $-1 #
face $-1 $214 $215 $47 $-1 $216 reversed single #
loop $-1 $-1 $217 $85 #
plane-surface $-1 -37.890504364702224 -8.0722092752444397 56.834906015517873 0.50000000669873634 0 0.8660253999169214 0.8660253999169214 0 -0.50000000669873634 forward_v I I I I #
coedge $-1 $218 $219 $220 $221 reversed $86 $-1 #
face $-1 $-1 $222 $48 $-1 $223 forward single #
loop $-1 $224 $225 $88 #
cone-surface $-1 43.709353904073645 -10.408507101554271 6.5184855084680784 -0.50000000669873634 0 -0.8660253999169214 0.4330126999584607 0 -0.25000000334936817 1 I I -0.70710678118654746 0.70710678118654746 0.5 forward I I I I #
loop $-1 $-1 $226 $62 #
coedge $-1 $142 $142 $227 $228 reversed $89 $-1 #
face $-1 $-1 $229 $49 $-1 $230 forward single #
loop $-1 $231 $232 $91 #
cone-surface $-1 43.709353904073645 -5.7359114489346013 6.5184855084680784 -0.50000000669873634 0 -0.8660253999169214 0.4330126999584607 0 -0.25000000334936817 1 I I -0.70710678118654746 0.70710678118654746 0.5 forward I I I I #
loop $-1 $-1 $233 $63 #
coedge $-1 $147 $147 $234 $235 reversed $92 $-1 #
face $-1 $236 $237 $50 $-1 $238 reversed single #
loop $-1 $-1 $239 $94 #
plane-surface $-1 -37.890504364702224 8.1042001117751923 56.834906015517873 0.50000000669873634 0 0.8660253999169214 0.8660253999169214 0 -0.50000000669873634 forward_v I I I I #
coedge $-1 $240 $241 $242 $243 reversed $95 $-1 #
face $-1 $-1 $244 $51 $-1 $245 forward single #
loop $-1 $246 $247 $97 #
cone-surface $-1 43.709353904073645 5.767902285465361 6.5184855084680784 -0.50000000669873634 0 -0.8660253999169214 0.4330126999584607 0 -0.25000000334936817 1 I I -0.70710678118654746 0.70710678118654746 0.5 forward I I I I #
loop $-1 $-1 $248 $65 #
coedge $-1 $156 $156 $249 $250 reversed $98 $-1 #
face $-1 $-1 $251 $52 $-1 $252 forward single #
loop $-1 $253 $254 $100 #
cone-surface $-1 43.709353904073645 10.440497938085024 6.5184855084680784 -0.50000000669873634 0 -0.8660253999169214 0.4330126999584607 0 -0.25000000334936817 1 I I -0.70710678118654746 0.70710678118654746 0.5 forward I I I I #
loop $-1 $-1 $255 $66 #
coedge $-1 $161 $161 $256 $257 reversed $101 $-1 #
face $-1 $258 $259 $53 $-1 $260 reversed single #
loop $-1 $-1 $261 $103 #
plane-surface $-1 -37.890504364702224 24.280609498794824 56.834906015517873 0.50000000669873634 0 0.8660253999169214 0.8660253999169214 0 -0.50000000669873634 forward_v I I I I #
coedge $-1 $262 $263 $264 $265 reversed $104 $-1 #
face $-1 $-1 $266 $54 $-1 $267 forward single #
loop $-1 $268 $269 $106 #
cone-surface $-1 43.709353904073645 21.944311672484993 6.5184855084680784 -0.50000000669873634 0 -0.8660253999169214 0.4330126999584607 0 -0.25000000334936817 1 I I -0.70710678118654746 0.70710678118654746 0.5 forward I I I I #
loop $-1 $-1 $270 $68 #
coedge $-1 $170 $170 $271 $272 reversed $107 $-1 #
face $-1 $-1 $273 $55 $-1 $274 forward single #
loop $-1 $275 $276 $109 #
cone-surface $-1 43.709353904073645 26.616907325104656 6.5184855084680784 -0.50000000669873634 0 -0.8660253999169214 0.4330126999584607 0 -0.25000000334936817 1 I I -0.70710678118654746 0.70710678118654746 0.5 forward I I I I #
loop $-1 $-1 $277 $69 #
coedge $-1 $175 $175 $278 $279 reversed $110 $-1 #
face $-1 $280 $281 $42 $-1 $282 reversed single #
loop $-1 $-1 $283 $112 #
plane-surface $-1 0 0 -12.768537015469089 0 0 1 1 0 0 forward_v I I I I #
coedge $-1 $284 $285 $286 $287 forward $113 $-1 #
coedge $-1 $288 $115 $289 $290 reversed $71 $-1 #
coedge $-1 $115 $288 $291 $292 forward $71 $-1 #
coedge $-1 $293 $294 $115 $183 forward $177 $-1 #
edge $-1 $295 -32.352818774039257 $296 32.352818774039257 $115 $297 forward 7 unknown #
face $-1 $298 $299 $43 $-1 $300 reversed single #
loop $-1 $-1 $301 $116 #
plane-surface $-1 -58.192015562950147 -13.693305008026769 0 0 1 0 0 0 1 forward_v I I I I #
coedge $-1 $302 $303 $189 $304 forward $117 $-1 #
coedge $-1 $305 $119 $306 $307 reversed $74 $-1 #
coedge $-1 $119 $305 $187 $304 reversed $74 $-1 #
coedge $-1 $308 $309 $119 $191 reversed $310 $-1 #
edge $-1 $311 -12.768537015469089 $312 12.768537015469089 $190 $313 forward 7 unknown #
face $-1 $314 $315 $44 $-1 $316 forward single #
loop $-1 $-1 $317 $120 #
plane-surface $-1 13.868888400034059 -29.699980256987011 146.48480245151134 0 1 0 0.50000000669873634 0 0.8660253999169214 forward_v I I I I #
coedge $-1 $318 $319 $320 $321 reversed $121 $-1 #
coedge $-1 $197 $123 $322 $323 reversed $77 $-1 #
coedge $-1 $123 $196 $318 $324 reversed $77 $-1 #
coedge $-1 $320 $325 $123 $199 forward $315 $-1 #
edge $-1 $326 -44.824947871274205 $327 -31.500240085023872 $198 $328 forward 7 unknown #
loop $-1 $-1 $205 $124 #
plane-surface $-1 -37.890504364702224 -24.248618662264064 56.834906015517873 0.50000000669873634 0 0.8660253999169214 0.8660253999169214 0 -0.50000000669873634 forward_v I I I I #
loop $-1 $-1 $329 $79 #
coedge $-1 $203 $203 $204 $330 reversed $125 $-1 #
coedge $-1 $204 $204 $203 $330 forward $127 $-1 #
coedge $-1 $205 $205 $128 $206 forward $200 $-1 #
edge $-1 $331 0 $331 6.2831853071796004 $205 $332 forward 7 unknown #
loop $-1 $-1 $212 $129 #
plane-surface $-1 -37.890504364702224 -24.248618662264064 56.834906015517873 0.50000000669873634 0 0.8660253999169214 0.8660253999169214 0 -0.50000000669873634 forward_v I I I I #
loop $-1 $-1 $333 $82 #
coedge $-1 $210 $210 $211 $334 reversed $130 $-1 #
coedge $-1 $211 $211 $210 $334 forward $132 $-1 #
coedge $-1 $212 $212 $133 $213 forward $207 $-1 #
edge $-1 $335 0 $335 6.2831853071796004 $212 $336 forward 7 unknown #
face $-1 $337 $338 $47 $-1 $339 reversed single #
loop $-1 $-1 $340 $134 #
plane-surface $-1 13.868888400034059 -13.523570869967388 146.48480245151134 0 1 0 0.50000000669873634 0 0.8660253999169214 forward_v I I I I #
coedge $-1 $341 $342 $343 $344 reversed $135 $-1 #
coedge $-1 $219 $137 $345 $346 reversed $86 $-1 #
coedge $-1 $137 $218 $341 $347 reversed $86 $-1 #
coedge $-1 $343 $348 $137 $221 forward $349 $-1 #
edge $-1 $350 -44.824947871274205 $351 -31.500240085023872 $220 $352 forward 7 unknown #
loop $-1 $-1 $227 $138 #
plane-surface $-1 -37.890504364702224 -8.0722092752444397 56.834906015517873 0.50000000669873634 0 0.8660253999169214 0.8660253999169214 0 -0.50000000669873634 forward_v I I I I #
loop $-1 $-1 $353 $88 #
coedge $-1 $225 $225 $226 $354 reversed $139 $-1 #
coedge $-1 $226 $226 $225 $354 forward $141 $-1 #
coedge $-1 $227 $227 $142 $228 forward $222 $-1 #
edge $-1 $355 0 $355 6.2831853071796004 $227 $356 forward 7 unknown #
loop $-1 $-1 $234 $143 #
plane-surface $-1 -37.890504364702224 -8.0722092752444397 56.834906015517873 0.50000000669873634 0 0.8660253999169214 0.8660253999169214 0 -0.50000000669873634 forward_v I I I I #
loop $-1 $-1 $357 $91 #
coedge $-1 $232 $232 $233 $358 reversed $144 $-1 #
coedge $-1 $233 $233 $232 $358 forward $146 $-1 #
coedge $-1 $234 $234 $147 $235 forward $229 $-1 #
edge $-1 $359 0 $359 6.2831853071796004 $234 $360 forward 7 unknown #
face $-1 $361 $362 $50 $-1 $363 reversed single #
loop $-1 $-1 $364 $148 #
plane-surface $-1 13.868888400034059 2.6528385170522437 146.48480245151134 0 1 0 0.50000000669873634 0 0.8660253999169214 forward_v I I I I #
coedge $-1 $365 $366 $367 $368 reversed $149 $-1 #
coedge $-1 $241 $151 $369 $370 reversed $95 $-1 #
coedge $-1 $151 $240 $365 $371 reversed $95 $-1 #
coedge $-1 $367 $372 $151 $243 forward $373 $-1 #
edge $-1 $374 -44.824947871274205 $375 -31.500240085023872 $242 $376 forward 7 unknown #
loop $-1 $-1 $249 $152 #
plane-surface $-1 -37.890504364702224 8.1042001117751923 56.834906015517873 0.50000000669873634 0 0.8660253999169214 0.8660253999169214 0 -0.50000000669873634 forward_v I I I I #
loop $-1 $-1 $377 $97 #
coedge $-1 $247 $247 $248 $378 reversed $153 $-1 #
coedge $-1 $248 $248 $247 $378 forward $155 $-1 #
coedge $-1 $249 $249 $156 $250 forward $244 $-1 #
edge $-1 $379 0 $379 6.2831853071796004 $249 $380 forward 7 unknown #
loop $-1 $-1 $256 $157 #
plane-surface $-1 -37.890504364702224 8.1042001117751923 56.834906015517873 0.50000000669873634 0 0.8660253999169214 0.8660253999169214 0 -0.50000000669873634 forward_v I I I I #
loop $-1 $-1 $381 $100 #
coedge $-1 $254 $254 $255 $382 reversed $158 $-1 #
coedge $-1 $255 $255 $254 $382 forward $160 $-1 #
coedge $-1 $256 $256 $161 $257 forward $251 $-1 #
edge $-1 $383 0 $383 6.2831853071796004 $256 $384 forward 7 unknown #
face $-1 $385 $386 $53 $-1 $387 reversed single #
loop $-1 $-1 $388 $162 #
plane-surface $-1 13.868888400034059 18.829247904071877 146.48480245151134 0 1 0 0.50000000669873634 0 0.8660253999169214 forward_v I I I I #
coedge $-1 $389 $390 $391 $392 reversed $163 $-1 #
coedge $-1 $263 $165 $393 $394 reversed $104 $-1 #
coedge $-1 $165 $262 $389 $395 reversed $104 $-1 #
coedge $-1 $391 $396 $165 $265 forward $397 $-1 #
edge $-1 $398 -44.824947871274205 $399 -31.500240085023872 $264 $400 forward 7 unknown #
loop $-1 $-1 $271 $166 #
plane-surface $-1 -37.890504364702224 24.280609498794824 56.834906015517873 0.50000000669873634 0 0.8660253999169214 0.8660253999169214 0 -0.50000000669873634 forward_v I I I I #
loop $-1 $-1 $401 $106 #
coedge $-1 $269 $269 $270 $402 reversed $167 $-1 #
coedge $-1 $270 $270 $269 $402 forward $169 $-1 #
coedge $-1 $271 $271 $170 $272 forward $266 $-1 #
edge $-1 $403 0 $403 6.2831853071796004 $271 $404 forward 7 unknown #
loop $-1 $-1 $278 $171 #
plane-surface $-1 -37.890504364702224 24.280609498794824 56.834906015517873 0.50000000669873634 0 0.8660253999169214 0.8660253999169214 0 -0.50000000669873634 forward_v I I I I #
loop $-1 $-1 $405 $109 #
coedge $-1 $276 $276 $277 $406 reversed $172 $-1 #
coedge $-1 $277 $277 $276 $406 forward $174 $-1 #
coedge $-1 $278 $278 $175 $279 forward $273 $-1 #
edge $-1 $407 0 $407 6.2831853071796004 $278 $408 forward 7 unknown #
face $-1 $409 $410 $42 $-1 $411 reversed single #
loop $-1 $-1 $289 $176 #
plane-surface $-1 0 -32.352818774039257 0 0 1 0 0 0 1 forward_v I I I I #
coedge $-1 $294 $293 $412 $413 forward $177 $-1 #
coedge $-1 $414 $179 $415 $416 forward $113 $-1 #
coedge $-1 $179 $414 $417 $418 forward $113 $-1 #
coedge $-1 $419 $420 $179 $287 reversed $421 $-1 #
edge $-1 $422 -32.352818774039257 $423 32.352818774039257 $286 $424 forward 7 unknown #
coedge $-1 $181 $180 $414 $425 reversed $71 $-1 #
coedge $-1 $426 $417 $180 $290 forward $281 $-1 #
edge $-1 $427 -12.768537015469089 $295 12.768537015469089 $180 $428 forward 7 unknown #
coedge $-1 $415 $429 $181 $292 reversed $410 $-1 #
edge $-1 $430 -12.768537015469089 $296 12.768537015469089 $291 $431 forward 7 unknown #
coedge $-1 $283 $182 $429 $432 forward $177 $-1 #
coedge $-1 $182 $283 $426 $433 forward $177 $-1 #
vertex $-1 $183 $434 #
vertex $-1 $432 $435 #
straight-curve $-1 -51.759392071291238 0 -12.768537015469089 0 1 0 I I #
face $-1 $436 $310 $43 $-1 $437 reversed single #
loop $-1 $-1 $438 $184 #
plane-surface $-1 -64.624639054609048 -10.254524875563924 0 1 0 0 0 0 -1 forward_v I I I I #
coedge $-1 $439 $440 $441 $442 forward $185 $-1 #
coedge $-1 $443 $187 $439 $444 forward $117 $-1 #
coedge $-1 $187 $443 $308 $445 forward $117 $-1 #
edge $-1 $311 6.815744743101078 $446 13.693305008026769 $187 $447 forward 7 unknown #
coedge $-1 $189 $188 $448 $449 forward $74 $-1 #
coedge $-1 $450 $451 $188 $307 forward $452 $-1 #
edge $-1 $453 -13.693305008026769 $312 -6.815744743101078 $306 $454 forward 7 unknown #
coedge $-1 $455 $190 $303 $445 reversed $310 $-1 #
coedge $-1 $190 $455 $450 $456 reversed $310 $-1 #
loop $-1 $-1 $190 $298 #
vertex $-1 $304 $457 #
vertex $-1 $456 $458 #
straight-curve $-1 -51.759392071291238 -6.815744743101078 0 0 0 1 I I #
face $-1 $-1 $459 $44 $-1 $460 reversed single #
loop $-1 $-1 $198 $192 #
plane-surface $-1 0 0 12.768537015469089 0 0 1 1 0 0 forward_v I I I I #
coedge $-1 $461 $462 $463 $464 reversed $193 $-1 #
coedge $-1 $465 $195 $197 $324 forward $121 $-1 #
coedge $-1 $195 $465 $461 $466 forward $121 $-1 #
coedge $-1 $463 $198 $195 $321 forward $315 $-1 #
edge $-1 $327 6.6729477364090855 $467 17.575670925854979 $320 $468 forward 7 unknown #
coedge $-1 $469 $470 $196 $323 forward $459 $-1 #
edge $-1 $471 -68.166887974974088 $326 -60.473864210286578 $322 $472 forward 7 unknown #
edge $-1 $327 88.132736819341631 $471 103.5187841425825 $197 $473 forward 7 unknown #
coedge $-1 $198 $463 $469 $474 forward $315 $-1 #
vertex $-1 $199 $475 #
vertex $-1 $199 $476 #
straight-curve $-1 6.9344442000170297 -18.797257067541118 12.768537015469093 -1 0 0 I I #
coedge $-1 $329 $329 $-1 $477 reversed $202 $-1 #
edge $-1 $478 0 $478 6.2831853071796004 $203 $479 forward 7 unknown #
vertex $-1 $206 $480 #
ellipse-curve $-1 45.097038178166059 -26.584916488573903 8.9220251331253397 0.50000000669873634 0 0.8660253999169214 0.8660253999169214 0 -0.50000000669873634 1 I I #
coedge $-1 $333 $333 $-1 $481 reversed $209 $-1 #
edge $-1 $482 0 $482 6.2831853071796004 $210 $483 forward 7 unknown #
vertex $-1 $213 $484 #
ellipse-curve $-1 45.097038178166059 -21.912320835954233 8.9220251331253397 0.50000000669873634 0 0.8660253999169214 0.8660253999169214 0 -0.50000000669873634 1 I I #
face $-1 $-1 $349 $47 $-1 $485 forward single #
loop $-1 $-1 $486 $214 #
plane-surface $-1 51.759392071291238 0 0 -1 0 0 0 0 1 forward_v I I I I #
coedge $-1 $487 $488 $489 $490 reversed $215 $-1 #
coedge $-1 $491 $217 $219 $347 forward $135 $-1 #
coedge $-1 $217 $491 $487 $492 forward $135 $-1 #
coedge $-1 $489 $220 $217 $344 forward $349 $-1 #
edge $-1 $351 -1.4152569571007287 $493 9.4874662323451684 $343 $494 forward 7 unknown #
coedge $-1 $495 $496 $218 $346 forward $338 $-1 #
edge $-1 $497 -68.166887974974088 $350 -60.473864210286578 $345 $498 forward 7 unknown #
edge $-1 $351 88.132736819341631 $497 103.5187841425825 $219 $499 forward 7 unknown #
coedge $-1 $220 $489 $495 $500 forward $349 $-1 #
loop $-1 $-1 $489 $337 #
vertex $-1 $346 $501 #
vertex $-1 $221 $502 #
straight-curve $-1 6.9344442000170297 -2.6208476805214911 12.768537015469093 -1 0 0 I I #
coedge $-1 $353 $353 $-1 $503 reversed $224 $-1 #
edge $-1 $504 0 $504 6.2831853071796004 $225 $505 forward 7 unknown #
vertex $-1 $228 $506 #
ellipse-curve $-1 45.097038178166059 -10.408507101554271 8.9220251331253397 0.50000000669873634 0 0.8660253999169214 0.8660253999169214 0 -0.50000000669873634 1 I I #
coedge $-1 $357 $357 $-1 $507 reversed $231 $-1 #
edge $-1 $508 0 $508 6.2831853071796004 $232 $509 forward 7 unknown #
vertex $-1 $235 $510 #
ellipse-curve $-1 45.097038178166059 -5.7359114489346013 8.9220251331253397 0.50000000669873634 0 0.8660253999169214 0.8660253999169214 0 -0.50000000669873634 1 I I #
face $-1 $-1 $373 $50 $-1 $511 forward single #
loop $-1 $-1 $512 $236 #
plane-surface $-1 51.759392071291238 0 0 -1 0 0 0 0 1 forward_v I I I I #
coedge $-1 $513 $514 $515 $516 reversed $237 $-1 #
coedge $-1 $517 $239 $241 $371 forward $149 $-1 #
coedge $-1 $239 $517 $513 $518 forward $149 $-1 #
coedge $-1 $515 $242 $239 $368 forward $373 $-1 #
edge $-1 $375 -9.5034616506105447 $519 1.3992615388353524 $367 $520 forward 7 unknown #
coedge $-1 $521 $522 $240 $370 forward $362 $-1 #
edge $-1 $523 -68.166887974974088 $374 -60.473864210286578 $369 $524 forward 7 unknown #
edge $-1 $375 88.132736819341631 $523 103.5187841425825 $241 $525 forward 7 unknown #
coedge $-1 $242 $515 $521 $526 forward $373 $-1 #
loop $-1 $-1 $515 $361 #
vertex $-1 $370 $527 #
vertex $-1 $243 $528 #
straight-curve $-1 6.9344442000170297 13.555561706498141 12.768537015469093 -1 0 0 I I #
coedge $-1 $377 $377 $-1 $529 reversed $246 $-1 #
edge $-1 $530 0 $530 6.2831853071796004 $247 $531 forward 7 unknown #
vertex $-1 $250 $532 #
ellipse-curve $-1 45.097038178166059 5.767902285465361 8.9220251331253397 0.50000000669873634 0 0.8660253999169214 0.8660253999169214 0 -0.50000000669873634 1 I I #
coedge $-1 $381 $381 $-1 $533 reversed $253 $-1 #
edge $-1 $534 0 $534 6.2831853071796004 $254 $535 forward 7 unknown #
vertex $-1 $257 $536 #
ellipse-curve $-1 45.097038178166059 10.440497938085024 8.9220251331253397 0.50000000669873634 0 0.8660253999169214 0.8660253999169214 0 -0.50000000669873634 1 I I #
face $-1 $-1 $397 $53 $-1 $537 forward single #
loop $-1 $-1 $538 $258 #
plane-surface $-1 51.759392071291238 0 0 -1 0 0 0 0 1 forward_v I I I I #
coedge $-1 $539 $540 $541 $542 reversed $259 $-1 #
coedge $-1 $543 $261 $263 $395 forward $163 $-1 #
coedge $-1 $261 $543 $539 $544 forward $163 $-1 #
coedge $-1 $541 $264 $261 $392 forward $397 $-1 #
edge $-1 $399 -17.591666344120359 $545 -6.6889431546744653 $391 $546 forward 7 unknown #
coedge $-1 $547 $548 $262 $394 forward $386 $-1 #
edge $-1 $549 -68.166887974974088 $398 -60.473864210286578 $393 $550 forward 7 unknown #
edge $-1 $399 88.132736819341631 $549 103.5187841425825 $263 $551 forward 7 unknown #
coedge $-1 $264 $541 $547 $552 forward $397 $-1 #
loop $-1 $-1 $541 $385 #
vertex $-1 $394 $553 #
vertex $-1 $265 $554 #
straight-curve $-1 6.9344442000170297 29.731971093517771 12.768537015469093 -1 0 0 I I #
coedge $-1 $401 $401 $-1 $555 reversed $268 $-1 #
edge $-1 $556 0 $556 6.2831853071796004 $269 $557 forward 7 unknown #
vertex $-1 $272 $558 #
ellipse-curve $-1 45.097038178166059 21.944311672484993 8.9220251331253397 0.50000000669873634 0 0.8660253999169214 0.8660253999169214 0 -0.50000000669873634 1 I I #
coedge $-1 $405 $405 $-1 $559 reversed $275 $-1 #
edge $-1 $560 0 $560 6.2831853071796004 $276 $561 forward 7 unknown #
vertex $-1 $279 $562 #
ellipse-curve $-1 45.097038178166059 26.616907325104656 8.9220251331253397 0.50000000669873634 0 0.8660253999169214 0.8660253999169214 0 -0.50000000669873634 1 I I #
face $-1 $-1 $421 $42 $-1 $563 reversed single #
loop $-1 $-1 $564 $280 #
plane-surface $-1 0 32.352818774039257 0 0 -1 0 0 0 -1 forward_v I I I I #
coedge $-1 $420 $419 $283 $413 reversed $421 $-1 #
edge $-1 $565 -32.352818774039257 $566 32.352818774039257 $412 $567 forward 7 unknown #
coedge $-1 $285 $284 $288 $425 forward $113 $-1 #
coedge $-1 $564 $291 $284 $416 reversed $410 $-1 #
edge $-1 $423 -51.759392071291238 $430 51.759392071291238 $415 $568 forward 7 unknown #
coedge $-1 $289 $569 $285 $418 reversed $281 $-1 #
edge $-1 $427 -51.759392071291238 $422 51.759392071291238 $417 $570 forward 7 unknown #
coedge $-1 $412 $286 $569 $571 forward $421 $-1 #
coedge $-1 $286 $412 $564 $572 reversed $421 $-1 #
loop $-1 $-1 $419 $409 #
vertex $-1 $287 $573 #
vertex $-1 $287 $574 #
straight-curve $-1 51.759392071291238 0 12.768537015469089 0 1 0 I I #
edge $-1 $430 -32.352818774039257 $427 32.352818774039257 $288 $575 forward 7 unknown #
coedge $-1 $569 $289 $294 $433 reversed $281 $-1 #
vertex $-1 $425 $576 #
straight-curve $-1 -51.759392071291238 -32.352818774039257 0 0 0 -1 I I #
coedge $-1 $291 $564 $293 $432 reversed $410 $-1 #
vertex $-1 $416 $577 #
straight-curve $-1 -51.759392071291238 32.352818774039257 0 0 0 -1 I I #
edge $-1 $296 -51.759392071291238 $565 51.759392071291238 $429 $578 forward 7 unknown #
edge $-1 $566 -51.759392071291238 $295 51.759392071291238 $426 $579 forward 7 unknown #
point $-1 -51.759392071291238 -32.352818774039257 -12.768537015469089 #
point $-1 -51.759392071291238 32.352818774039257 -12.768537015469089 #
face $-1 $-1 $452 $43 $-1 $580 forward single #
plane-surface $-1 -58.192015562950147 -6.815744743101078 0 0 -1 0 0 0 -1 forward_v I I I I #
coedge $-1 $581 $582 $455 $583 forward $299 $-1 #
coedge $-1 $448 $301 $302 $444 reversed $185 $-1 #
coedge $-1 $301 $448 $451 $584 reversed $185 $-1 #
coedge $-1 $582 $581 $301 $442 reversed $299 $-1 #
edge $-1 $585 -12.768537015469089 $586 12.768537015469089 $441 $587 forward 7 unknown #
coedge $-1 $303 $302 $581 $588 forward $117 $-1 #
edge $-1 $446 -6.4326234916589087 $586 6.4326234916589016 $439 $589 forward 7 unknown #
edge $-1 $590 -6.4326234916589016 $311 6.4326234916589087 $308 $591 forward 7 unknown #
vertex $-1 $444 $592 #
straight-curve $-1 -51.759392071291238 0 -12.768537015469089 0 -1 0 I I #
coedge $-1 $440 $439 $305 $449 reversed $185 $-1 #
edge $-1 $453 -12.768537015469089 $446 12.768537015469089 $448 $593 forward 7 unknown #
coedge $-1 $594 $306 $309 $456 forward $452 $-1 #
coedge $-1 $306 $594 $440 $584 forward $452 $-1 #
loop $-1 $-1 $306 $436 #
vertex $-1 $307 $595 #
straight-curve $-1 -51.759392071291238 0 12.768537015469089 0 1 0 I I #
coedge $-1 $309 $308 $438 $583 reversed $310 $-1 #
edge $-1 $312 -6.4326234916589087 $596 6.4326234916589016 $309 $597 forward 7 unknown #
point $-1 -51.759392071291238 -6.815744743101078 -12.768537015469089 #
point $-1 -51.759392071291238 -6.815744743101078 12.768537015469089 #
loop $-1 $-1 $322 $314 #
plane-surface $-1 51.759392071291238 0 0 -1 0 0 0 0 1 forward_v I I I I #
coedge $-1 $462 $317 $319 $466 reversed $193 $-1 #
coedge $-1 $317 $461 $598 $599 reversed $193 $-1 #
coedge $-1 $325 $320 $317 $464 forward $315 $-1 #
edge $-1 $467 31.500240085023872 $600 44.824947871274205 $463 $601 forward 7 unknown #
coedge $-1 $319 $318 $470 $602 reversed $121 $-1 #
edge $-1 $603 -103.5187841425825 $467 -88.132736819341631 $461 $604 forward 7 unknown #
vertex $-1 $321 $605 #
straight-curve $-1 38.434684285040888 -12.124309331132032 12.768537015469093 0 -1 0 I I #
coedge $-1 $598 $322 $325 $474 reversed $459 $-1 #
coedge $-1 $322 $598 $465 $602 forward $459 $-1 #
vertex $-1 $323 $606 #
straight-curve $-1 51.759392071291238 -18.797257067541118 73.242401225755671 0 0 1 I I #
straight-curve $-1 -37.890504364702224 -18.797257067541118 56.834906015517873 0.8660253999169214 0 -0.50000000669873634 I I #
edge $-1 $600 -29.699980256987011 $326 -18.797257067541118 $469 $607 forward 7 unknown #
point $-1 51.759392071291238 -18.797257067541118 12.768537015469089 #
point $-1 38.434684285040902 -18.797257067541118 12.768537015469093 #
edge $-1 $608 1 $608 0 $329 $-1 forward 7 unknown #
vertex $-1 $330 $609 #
ellipse-curve $-1 43.959353907423015 -26.584916488573903 6.9514982084265391 0.50000000669873634 0 0.8660253999169214 0.8660253999169214 0 -0.50000000669873634 1 I I #
point $-1 45.963063578082988 -26.584916488573903 8.4220251264266128 #
edge $-1 $610 1 $610 0 $333 $-1 forward 7 unknown #
vertex $-1 $334 $611 #
ellipse-curve $-1 43.959353907423015 -21.912320835954233 6.9514982084265391 0.50000000669873634 0 0.8660253999169214 0.8660253999169214 0 -0.50000000669873634 1 I I #
point $-1 45.963063578082988 -21.912320835954233 8.4220251264266128 #
plane-surface $-1 0 0 12.768537015469089 0 0 1 1 0 0 forward_v I I I I #
coedge $-1 $496 $495 $488 $612 forward $338 $-1 #
coedge $-1 $488 $340 $342 $492 reversed $215 $-1 #
coedge $-1 $340 $487 $486 $612 reversed $215 $-1 #
coedge $-1 $348 $343 $340 $490 forward $349 $-1 #
edge $-1 $493 31.500240085023872 $613 44.824947871274205 $489 $614 forward 7 unknown #
coedge $-1 $342 $341 $496 $615 reversed $135 $-1 #
edge $-1 $616 -103.5187841425825 $493 -88.132736819341631 $487 $617 forward 7 unknown #
vertex $-1 $344 $618 #
straight-curve $-1 38.434684285040888 -4.0361046376222198 12.768537015469093 0 -1 0 I I #
coedge $-1 $486 $345 $348 $500 reversed $338 $-1 #
coedge $-1 $345 $486 $491 $615 forward $338 $-1 #
vertex $-1 $346 $619 #
straight-curve $-1 51.759392071291238 -2.6208476805214911 73.242401225755671 0 0 1 I I #
straight-curve $-1 -37.890504364702224 -2.6208476805214911 56.834906015517873 0.8660253999169214 0 -0.50000000669873634 I I #
edge $-1 $613 -13.523570869967388 $350 -2.6208476805214911 $495 $620 forward 7 unknown #
point $-1 51.759392071291238 -2.6208476805214911 12.768537015469089 #
point $-1 38.434684285040902 -2.6208476805214911 12.768537015469093 #
edge $-1 $621 1 $621 0 $353 $-1 forward 7 unknown #
vertex $-1 $354 $622 #
ellipse-curve $-1 43.959353907423015 -10.408507101554271 6.9514982084265391 0.50000000669873634 0 0.8660253999169214 0.8660253999169214 0 -0.50000000669873634 1 I I #
point $-1 45.963063578082988 -10.408507101554271 8.4220251264266128 #
edge $-1 $623 1 $623 0 $357 $-1 forward 7 unknown #
vertex $-1 $358 $624 #
ellipse-curve $-1 43.959353907423015 -5.7359114489346013 6.9514982084265391 0.50000000669873634 0 0.8660253999169214 0.8660253999169214 0 -0.50000000669873634 1 I I #
point $-1 45.963063578082988 -5.7359114489346013 8.4220251264266128 #
plane-surface $-1 0 0 12.768537015469089 0 0 1 1 0 0 forward_v I I I I #
coedge $-1 $522 $521 $514 $625 forward $362 $-1 #
coedge $-1 $514 $364 $366 $518 reversed $237 $-1 #
coedge $-1 $364 $513 $512 $625 reversed $237 $-1 #
coedge $-1 $372 $367 $364 $516 forward $373 $-1 #
edge $-1 $519 31.500240085023872 $626 44.824947871274205 $515 $627 forward 7 unknown #
coedge $-1 $366 $365 $522 $628 reversed $149 $-1 #
edge $-1 $629 -103.5187841425825 $519 -88.132736819341631 $513 $630 forward 7 unknown #
vertex $-1 $368 $631 #
straight-curve $-1 38.434684285040888 4.0521000558875961 12.768537015469093 0 -1 0 I I #
coedge $-1 $512 $369 $372 $526 reversed $362 $-1 #
coedge $-1 $369 $512 $517 $628 forward $362 $-1 #
vertex $-1 $370 $632 #
straight-curve $-1 51.759392071291238 13.555561706498141 73.242401225755671 0 0 1 I I #
straight-curve $-1 -37.890504364702224 13.555561706498141 56.834906015517873 0.8660253999169214 0 -0.50000000669873634 I I #
edge $-1 $626 2.6528385170522437 $374 13.555561706498141 $521 $633 forward 7 unknown #
point $-1 51.759392071291238 13.555561706498141 12.768537015469089 #
point $-1 38.434684285040902 13.555561706498141 12.768537015469093 #
edge $-1 $634 1 $634 0 $377 $-1 forward 7 unknown #
vertex $-1 $378 $635 #
ellipse-curve $-1 43.959353907423015 5.767902285465361 6.9514982084265391 0.50000000669873634 0 0.8660253999169214 0.8660253999169214 0 -0.50000000669873634 1 I I #
point $-1 45.963063578082988 5.767902285465361 8.4220251264266128 #
edge $-1 $636 1 $636 0 $381 $-1 forward 7 unknown #
vertex $-1 $382 $637 #
ellipse-curve $-1 43.959353907423015 10.440497938085024 6.9514982084265391 0.50000000669873634 0 0.8660253999169214 0.8660253999169214 0 -0.50000000669873634 1 I I #
point $-1 45.963063578082988 10.440497938085024 8.4220251264266128 #
plane-surface $-1 0 0 12.768537015469089 0 0 1 1 0 0 forward_v I I I I #
coedge $-1 $548 $547 $540 $638 forward $386 $-1 #
coedge $-1 $540 $388 $390 $544 reversed $259 $-1 #
coedge $-1 $388 $539 $538 $638 reversed $259 $-1 #
coedge $-1 $396 $391 $388 $542 forward $397 $-1 #
edge $-1 $545 31.500240085023872 $639 44.824947871274205 $541 $640 forward 7 unknown #
coedge $-1 $390 $389 $548 $641 reversed $163 $-1 #
edge $-1 $642 -103.5187841425825 $545 -88.132736819341631 $539 $643 forward 7 unknown #
vertex $-1 $392 $644 #
straight-curve $-1 38.434684285040888 12.140304749397412 12.768537015469093 0 -1 0 I I #
coedge $-1 $538 $393 $396 $552 reversed $386 $-1 #
coedge $-1 $393 $538 $543 $641 forward $386 $-1 #
vertex $-1 $394 $645 #
straight-curve $-1 51.759392071291238 29.731971093517771 73.242401225755671 0 0 1 I I #
straight-curve $-1 -37.890504364702224 29.731971093517771 56.834906015517873 0.8660253999169214 0 -0.50000000669873634 I I #
edge $-1 $639 18.829247904071877 $398 29.731971093517771 $547 $646 forward 7 unknown #
point $-1 51.759392071291238 29.731971093517771 12.768537015469089 #
point $-1 38.434684285040902 29.731971093517771 12.768537015469093 #
edge $-1 $647 1 $647 0 $401 $-1 forward 7 unknown #
vertex $-1 $402 $648 #
ellipse-curve $-1 43.959353907423015 21.944311672484993 6.9514982084265391 0.50000000669873634 0 0.8660253999169214 0.8660253999169214 0 -0.50000000669873634 1 I I #
point $-1 45.963063578082988 21.944311672484993 8.4220251264266128 #
edge $-1 $649 1 $649 0 $405 $-1 forward 7 unknown #
vertex $-1 $406 $650 #
ellipse-curve $-1 43.959353907423015 26.616907325104656 6.9514982084265391 0.50000000669873634 0 0.8660253999169214 0.8660253999169214 0 -0.50000000669873634 1 I I #
point $-1 45.963063578082988 26.616907325104656 8.4220251264266128 #
plane-surface $-1 51.759392071291238 0 0 -1 0 0 0 0 1 forward_v I I I I #
coedge $-1 $429 $415 $420 $572 forward $410 $-1 #
vertex $-1 $413 $651 #
vertex $-1 $571 $652 #
straight-curve $-1 51.759392071291238 0 -12.768537015469089 0 -1 0 I I #
straight-curve $-1 0 32.352818774039257 12.768537015469089 -1 0 0 I I #
coedge $-1 $417 $426 $419 $571 reversed $281 $-1 #
straight-curve $-1 0 -32.352818774039257 12.768537015469089 1 0 0 I I #
edge $-1 $422 -12.768537015469089 $566 12.768537015469089 $419 $653 forward 7 unknown #
edge $-1 $423 -12.768537015469089 $565 12.768537015469089 $420 $654 forward 7 unknown #
point $-1 51.759392071291238 -32.352818774039257 12.768537015469089 #
point $-1 51.759392071291238 32.352818774039257 12.768537015469089 #
straight-curve $-1 -51.759392071291238 0 12.768537015469089 0 -1 0 I I #
point $-1 -51.759392071291238 -32.352818774039257 12.768537015469089 #
point $-1 -51.759392071291238 32.352818774039257 12.768537015469089 #
straight-curve $-1 0 32.352818774039257 -12.768537015469089 1 0 0 I I #
straight-curve $-1 0 -32.352818774039257 -12.768537015469089 -1 0 0 I I #
plane-surface $-1 0 0 12.768537015469089 0 0 1 1 0 0 forward_v I I I I #
coedge $-1 $441 $438 $443 $588 reversed $299 $-1 #
coedge $-1 $438 $441 $594 $655 reversed $299 $-1 #
edge $-1 $596 -12.768537015469089 $590 12.768537015469089 $455 $656 forward 7 unknown #
edge $-1 $585 -6.4326234916589016 $453 6.4326234916589087 $440 $657 forward 7 unknown #
vertex $-1 $655 $658 #
vertex $-1 $588 $659 #
straight-curve $-1 -64.624639054609048 -13.693305008026769 0 0 0 -1 I I #
edge $-1 $586 -3.4387801324628455 $590 3.4387801324628455 $581 $660 forward 7 unknown #
straight-curve $-1 -58.192015562950147 -13.693305008026769 -12.768537015469089 -1 0 0 I I #
vertex $-1 $445 $661 #
straight-curve $-1 -58.192015562950147 -6.815744743101078 -12.768537015469089 1 0 0 I I #
point $-1 -51.759392071291238 -13.693305008026769 -12.768537015469089 #
straight-curve $-1 -51.759392071291238 -13.693305008026769 0 0 0 -1 I I #
coedge $-1 $451 $450 $582 $655 forward $452 $-1 #
point $-1 -51.759392071291238 -13.693305008026769 12.768537015469089 #
vertex $-1 $456 $662 #
straight-curve $-1 -58.192015562950147 -6.815744743101078 12.768537015469089 -1 0 0 I I #
coedge $-1 $470 $469 $462 $599 forward $459 $-1 #
edge $-1 $600 60.473864210286578 $603 68.166887974974088 $598 $663 forward 7 unknown #
vertex $-1 $474 $664 #
straight-curve $-1 6.9344442000170297 -29.699980256987011 12.768537015469093 1 0 0 I I #
edge $-1 $603 -17.575670925854979 $471 -6.6729477364090855 $470 $665 forward 7 unknown #
vertex $-1 $602 $666 #
straight-curve $-1 -37.890504364702224 -29.699980256987011 56.834906015517873 -0.8660253999169214 0 0.50000000669873634 I I #
point $-1 38.434684285040902 -29.699980256987011 12.768537015469093 #
point $-1 51.759392071291245 -18.797257067541118 5.075513250781583 #
straight-curve $-1 51.759392071291238 0 12.768537015469089 0 1 0 I I #
vertex $-1 $477 $667 #
point $-1 44.825379307339936 -26.584916488573903 6.4514982017278024 #
vertex $-1 $481 $668 #
point $-1 44.825379307339936 -21.912320835954233 6.4514982017278024 #
edge $-1 $613 60.473864210286578 $616 68.166887974974088 $486 $669 forward 7 unknown #
vertex $-1 $500 $670 #
straight-curve $-1 6.9344442000170297 -13.523570869967388 12.768537015469093 1 0 0 I I #
edge $-1 $616 -9.4874662323451684 $497 1.4152569571007287 $496 $671 forward 7 unknown #
vertex $-1 $615 $672 #
straight-curve $-1 -37.890504364702224 -13.523570869967388 56.834906015517873 -0.8660253999169214 0 0.50000000669873634 I I #
point $-1 38.434684285040902 -13.523570869967388 12.768537015469093 #
point $-1 51.759392071291245 -2.6208476805214911 5.075513250781583 #
straight-curve $-1 51.759392071291238 0 12.768537015469089 0 1 0 I I #
vertex $-1 $503 $673 #
point $-1 44.825379307339936 -10.408507101554271 6.4514982017278024 #
vertex $-1 $507 $674 #
point $-1 44.825379307339936 -5.7359114489346013 6.4514982017278024 #
edge $-1 $626 60.473864210286578 $629 68.166887974974088 $512 $675 forward 7 unknown #
vertex $-1 $526 $676 #
straight-curve $-1 6.9344442000170297 2.6528385170522437 12.768537015469093 1 0 0 I I #
edge $-1 $629 -1.3992615388353524 $523 9.5034616506105447 $522 $677 forward 7 unknown #
vertex $-1 $628 $678 #
straight-curve $-1 -37.890504364702224 2.6528385170522437 56.834906015517873 -0.8660253999169214 0 0.50000000669873634 I I #
point $-1 38.434684285040902 2.6528385170522437 12.768537015469093 #
point $-1 51.759392071291245 13.555561706498141 5.075513250781583 #
straight-curve $-1 51.759392071291238 0 12.768537015469089 0 1 0 I I #
vertex $-1 $529 $679 #
point $-1 44.825379307339936 5.767902285465361 6.4514982017278024 #
vertex $-1 $533 $680 #
point $-1 44.825379307339936 10.440497938085024 6.4514982017278024 #
edge $-1 $639 60.473864210286578 $642 68.166887974974088 $538 $681 forward 7 unknown #
vertex $-1 $552 $682 #
straight-curve $-1 6.9344442000170297 18.829247904071877 12.768537015469093 1 0 0 I I #
edge $-1 $642 6.6889431546744653 $549 17.591666344120359 $548 $683 forward 7 unknown #
vertex $-1 $641 $684 #
straight-curve $-1 -37.890504364702224 18.829247904071877 56.834906015517873 -0.8660253999169214 0 0.50000000669873634 I I #
point $-1 38.434684285040902 18.829247904071877 12.768537015469093 #
point $-1 51.759392071291245 29.731971093517771 5.075513250781583 #
straight-curve $-1 51.759392071291238 0 12.768537015469089 0 1 0 I I #
vertex $-1 $555 $685 #
point $-1 44.825379307339936 21.944311672484993 6.4514982017278024 #
vertex $-1 $559 $686 #
point $-1 44.825379307339936 26.616907325104656 6.4514982017278024 #
point $-1 51.759392071291238 32.352818774039257 -12.768537015469089 #
point $-1 51.759392071291238 -32.352818774039257 -12.768537015469089 #
straight-curve $-1 51.759392071291238 -32.352818774039257 0 0 0 -1 I I #
straight-curve $-1 51.759392071291238 32.352818774039257 0 0 0 -1 I I #
edge $-1 $596 -3.4387801324628455 $585 3.4387801324628455 $582 $687 forward 7 unknown #
straight-curve $-1 -64.624639054609048 -6.815744743101078 0 0 0 -1 I I #
straight-curve $-1 -58.192015562950147 -13.693305008026769 12.768537015469089 1 0 0 I I #
point $-1 -64.624639054609048 -13.693305008026769 12.768537015469089 #
point $-1 -64.624639054609048 -13.693305008026769 -12.768537015469089 #
straight-curve $-1 -64.624639054609048 -10.254524875563924 -12.768537015469089 0 1 0 I I #
point $-1 -64.624639054609048 -6.815744743101078 -12.768537015469089 #
point $-1 -64.624639054609048 -6.815744743101078 12.768537015469089 #
straight-curve $-1 51.759392071291238 -29.699980256987011 73.242401225755671 0 0 -1 I I #
point $-1 51.759392071291238 -29.699980256987011 12.768537015469089 #
straight-curve $-1 51.759392071291238 -12.124309331132032 5.0755132507815794 0 1 0 I I #
point $-1 51.759392071291245 -29.699980256987011 5.075513250781583 #
point $-1 43.459353900724274 -26.584916488573903 6.0854728085096177 #
point $-1 43.459353900724274 -21.912320835954233 6.0854728085096177 #
straight-curve $-1 51.759392071291238 -13.523570869967388 73.242401225755671 0 0 -1 I I #
point $-1 51.759392071291238 -13.523570869967388 12.768537015469089 #
straight-curve $-1 51.759392071291238 -4.0361046376222198 5.0755132507815794 0 1 0 I I #
point $-1 51.759392071291245 -13.523570869967388 5.075513250781583 #
point $-1 43.459353900724274 -10.408507101554271 6.0854728085096177 #
point $-1 43.459353900724274 -5.7359114489346013 6.0854728085096177 #
straight-curve $-1 51.759392071291238 2.6528385170522437 73.242401225755671 0 0 -1 I I #
point $-1 51.759392071291238 2.6528385170522437 12.768537015469089 #
straight-curve $-1 51.759392071291238 4.0521000558875961 5.0755132507815794 0 1 0 I I #
point $-1 51.759392071291245 2.6528385170522437 5.075513250781583 #
point $-1 43.459353900724274 5.767902285465361 6.0854728085096177 #
point $-1 43.459353900724274 10.440497938085024 6.0854728085096177 #
straight-curve $-1 51.759392071291238 18.829247904071877 73.242401225755671 0 0 -1 I I #
point $-1 51.759392071291238 18.829247904071877 12.768537015469089 #
straight-curve $-1 51.759392071291238 12.140304749397412 5.0755132507815794 0 1 0 I I #
point $-1 51.759392071291245 18.829247904071877 5.075513250781583 #
point $-1 43.459353900724274 21.944311672484993 6.0854728085096177 #
point $-1 43.459353900724274 26.616907325104656 6.0854728085096177 #
straight-curve $-1 -64.624639054609048 -10.254524875563924 12.768537015469089 0 -1 0 I I #
End-of-ACIS-data 