500 0 17 0           
7 Unknown 11 ACIS 5.0 NT 24 Thu Mar 25 20:11:40 1999 
-1 9.9999999999999995e-007 1e-010 
body $-1 $17 $-1 $18 #
body $-1 $19 $-1 $20 #
body $-1 $21 $-1 $22 #
body $-1 $23 $-1 $24 #
body $-1 $25 $-1 $26 #
body $-1 $27 $-1 $28 #
body $-1 $29 $-1 $30 #
body $-1 $31 $-1 $32 #
body $-1 $33 $-1 $34 #
body $-1 $35 $-1 $36 #
body $-1 $37 $-1 $38 #
body $-1 $39 $-1 $40 #
body $-1 $41 $-1 $42 #
body $-1 $43 $-1 $44 #
body $-1 $45 $-1 $46 #
body $-1 $47 $-1 $48 #
body $-1 $49 $-1 $50 #
lump $-1 $-1 $51 $0 #
transform $-1 1 0 0 0 1 0 0 0 1 75.056001464888453 48.992669238316388 17.440116352719812 1 rotate no_reflect no_shear #
lump $-1 $-1 $52 $1 #
transform $-1 1 0 0 0 1 0 0 0 1 75.056001464888453 48.992669238316388 17.440116352719812 1 rotate no_reflect no_shear #
lump $-1 $-1 $53 $2 #
transform $-1 1 0 0 0 1 0 0 0 1 75.056001464888453 48.992669238316388 17.440116352719812 1 rotate no_reflect no_shear #
lump $-1 $-1 $54 $3 #
transform $-1 1 0 0 0 1 0 0 0 1 75.056001464888453 48.992669238316388 17.440116352719812 1 rotate no_reflect no_shear #
lump $-1 $-1 $55 $4 #
transform $-1 1 0 0 0 1 0 0 0 1 75.056001464888453 48.992669238316388 17.440116352719812 1 rotate no_reflect no_shear #
lump $-1 $-1 $56 $5 #
transform $-1 1 0 0 0 1 0 0 0 1 75.056001464888453 48.992669238316388 17.440116352719812 1 rotate no_reflect no_shear #
lump $-1 $-1 $57 $6 #
transform $-1 1 0 0 0 1 0 0 0 1 75.056001464888453 48.992669238316388 17.440116352719812 1 rotate no_reflect no_shear #
lump $-1 $-1 $58 $7 #
transform $-1 1 0 0 0 1 0 0 0 1 75.056001464888453 48.992669238316388 17.440116352719812 1 rotate no_reflect no_shear #
lump $-1 $-1 $59 $8 #
transform $-1 1 0 0 0 1 0 0 0 1 75.056001464888453 48.992669238316388 17.440116352719812 1 rotate no_reflect no_shear #
lump $-1 $-1 $60 $9 #
transform $-1 1 0 0 0 1 0 0 0 1 75.056001464888453 48.992669238316388 17.440116352719812 1 rotate no_reflect no_shear #
lump $-1 $-1 $61 $10 #
transform $-1 1 0 0 0 1 0 0 0 1 75.056001464888453 48.992669238316388 17.440116352719812 1 rotate no_reflect no_shear #
lump $-1 $-1 $62 $11 #
transform $-1 1 0 0 0 1 0 0 0 1 75.056001464888453 48.992669238316388 17.440116352719812 1 rotate no_reflect no_shear #
lump $-1 $-1 $63 $12 #
transform $-1 1 0 0 0 1 0 0 0 1 75.056001464888453 48.992669238316388 17.440116352719812 1 rotate no_reflect no_shear #
lump $-1 $-1 $64 $13 #
transform $-1 1 0 0 0 1 0 0 0 1 75.056001464888453 48.992669238316388 17.440116352719812 1 rotate no_reflect no_shear #
lump $-1 $-1 $65 $14 #
transform $-1 1 0 0 0 1 0 0 0 1 75.056001464888453 48.992669238316388 17.440116352719812 1 rotate no_reflect no_shear #
lump $-1 $-1 $66 $15 #
transform $-1 1 0 0 0 1 0 0 0 1 75.056001464888453 48.992669238316388 17.440116352719812 1 rotate no_reflect no_shear #
lump $-1 $-1 $67 $16 #
transform $-1 1 0 0 0 1 0 0 0 1 75.056001464888453 48.992669238316388 17.440116352719812 1 rotate no_reflect no_shear #
shell $-1 $-1 $-1 $68 $-1 $17 #
shell $-1 $-1 $-1 $69 $-1 $19 #
shell $-1 $-1 $-1 $70 $-1 $21 #
shell $-1 $-1 $-1 $71 $-1 $23 #
shell $-1 $-1 $-1 $72 $-1 $25 #
shell $-1 $-1 $-1 $73 $-1 $27 #
shell $-1 $-1 $-1 $74 $-1 $29 #
shell $-1 $-1 $-1 $75 $-1 $31 #
shell $-1 $-1 $-1 $76 $-1 $33 #
shell $-1 $-1 $-1 $77 $-1 $35 #
shell $-1 $-1 $-1 $78 $-1 $37 #
shell $-1 $-1 $-1 $79 $-1 $39 #
shell $-1 $-1 $-1 $80 $-1 $41 #
shell $-1 $-1 $-1 $81 $-1 $43 #
shell $-1 $-1 $-1 $82 $-1 $45 #
shell $-1 $-1 $-1 $83 $-1 $47 #
shell $-1 $-1 $-1 $84 $-1 $49 #
face $-1 $85 $86 $51 $-1 $87 forward single #
face $-1 $88 $89 $52 $-1 $90 forward single #
face $-1 $91 $92 $53 $-1 $93 forward single #
face $-1 $94 $95 $54 $-1 $96 reversed single #
face $-1 $97 $98 $55 $-1 $99 forward single #
face $-1 $100 $101 $56 $-1 $102 forward single #
face $-1 $103 $104 $57 $-1 $105 reversed single #
face $-1 $106 $107 $58 $-1 $108 forward single #
face $-1 $109 $110 $59 $-1 $111 forward single #
face $-1 $112 $113 $60 $-1 $114 reversed single #
face $-1 $115 $116 $61 $-1 $117 forward single #
face $-1 $118 $119 $62 $-1 $120 forward single #
face $-1 $121 $122 $63 $-1 $123 forward single #
face $-1 $124 $125 $64 $-1 $126 reversed single #
face $-1 $127 $128 $65 $-1 $129 forward single #
face $-1 $130 $131 $66 $-1 $132 forward single #
face $-1 $133 $134 $67 $-1 $135 forward single #
face $-1 $136 $137 $51 $-1 $138 reversed single #
loop $-1 $-1 $139 $68 #
plane-surface $-1 0 0 17.440116352719812 0 0 1 1 0 0 forward_v I I I I #
face $-1 $140 $141 $52 $-1 $142 reversed single #
loop $-1 $-1 $143 $69 #
plane-surface $-1 0 -42.253488293116121 -9.9506649764674364 0 0 1 1 0 0 forward_v I I I I #
face $-1 $144 $145 $53 $-1 $146 reversed single #
loop $-1 $-1 $147 $70 #
plane-surface $-1 0 39.262316996059631 16.864683949209599 0 0 1 1 0 0 forward_v I I I I #
face $-1 $148 $149 $54 $-1 $150 reversed single #
loop $-1 $-1 $151 $71 #
plane-surface $-1 34.549079535546937 -25.155082559280515 220.55444655773221 0 -1 0 -0.55919291073839883 0 -0.82903756765294845 forward_v I I I I #
face $-1 $152 $153 $55 $-1 $154 forward single #
loop $-1 $155 $156 $72 #
cone-surface $-1 70.424214615238171 -32.554528836877182 13.7333363734442 -0.55919291073839883 0 -0.82903756765294845 0.82903756765294845 0 -0.55919291073839883 1 I I 0 1 1 forward I I I I #
face $-1 $157 $158 $56 $-1 $159 forward single #
loop $-1 $160 $161 $73 #
cone-surface $-1 70.424214615238171 -28.114861070319183 13.7333363734442 -0.55919291073839883 0 -0.82903756765294845 0.82903756765294845 0 -0.55919291073839883 1 I I 0 1 1 forward I I I I #
face $-1 $162 $163 $57 $-1 $164 reversed single #
loop $-1 $-1 $165 $74 #
plane-surface $-1 -49.392488319526066 24.352352359485202 96.105956773317686 0.55919291073839883 0 0.82903756765294845 0.82903756765294845 0 -0.55919291073839883 forward_v I I I I #
face $-1 $166 $167 $58 $-1 $168 forward single #
loop $-1 $169 $170 $75 #
cone-surface $-1 70.424214615238171 22.132518476206208 13.7333363734442 -0.55919291073839883 0 -0.82903756765294845 0.82903756765294845 0 -0.55919291073839883 1 I I 0 1 1 forward I I I I #
face $-1 $171 $172 $59 $-1 $173 forward single #
loop $-1 $174 $175 $76 #
cone-surface $-1 70.424214615238171 26.572186242764211 13.7333363734442 -0.55919291073839883 0 -0.82903756765294845 0.82903756765294845 0 -0.55919291073839883 1 I I 0 1 1 forward I I I I #
face $-1 $176 $177 $60 $-1 $178 reversed single #
loop $-1 $-1 $179 $77 #
plane-surface $-1 -200.95052141897457 -21.946368864897018 95.822383718766162 0 1 0 -0.83867057594974714 0 0.54463902268945019 forward_v I I I I #
face $-1 $180 $181 $61 $-1 $182 forward single #
loop $-1 $183 $184 $78 #
cone-surface $-1 -73.540924935211763 -19.383446091302666 15.480503239583472 0.83867057594974714 0 -0.54463902268945019 0.2723195113447251 0 0.41933528797487357 1 I I 0 1 0.5 forward I I I I #
face $-1 $185 $186 $62 $-1 $187 forward single #
loop $-1 $188 $189 $79 #
cone-surface $-1 -73.540924935211763 -15.539061930911146 15.480503239583472 0.83867057594974714 0 -0.54463902268945019 0.2723195113447251 0 0.41933528797487357 1 I I 0 1 0.5 forward I I I I #
face $-1 $190 $191 $63 $-1 $192 forward single #
loop $-1 $193 $194 $80 #
cone-surface $-1 -73.540924935211763 -11.694677770519625 15.480503239583472 0.83867057594974714 0 -0.54463902268945019 0.2723195113447251 0 0.41933528797487357 1 I I 0 1 0.5 forward I I I I #
face $-1 $195 $196 $64 $-1 $197 reversed single #
loop $-1 $-1 $198 $81 #
plane-surface $-1 -200.95052141897457 10.576767185962341 95.822383718766162 0 1 0 -0.83867057594974714 0 0.54463902268945019 forward_v I I I I #
face $-1 $199 $200 $65 $-1 $201 forward single #
loop $-1 $202 $203 $82 #
cone-surface $-1 -73.540924935211763 13.139689959556698 15.480503239583472 0.83867057594974714 0 -0.54463902268945019 0.2723195113447251 0 0.41933528797487357 1 I I 0 1 0.5 forward I I I I #
face $-1 $204 $205 $66 $-1 $206 forward single #
loop $-1 $207 $208 $83 #
cone-surface $-1 -73.540924935211763 16.984074119948211 15.480503239583472 0.83867057594974714 0 -0.54463902268945019 0.2723195113447251 0 0.41933528797487357 1 I I 0 1 0.5 forward I I I I #
face $-1 $209 $210 $67 $-1 $211 forward single #
loop $-1 $212 $213 $84 #
cone-surface $-1 -73.540924935211763 20.828458280339738 15.480503239583472 0.83867057594974714 0 -0.54463902268945019 0.2723195113447251 0 0.41933528797487357 1 I I 0 1 0.5 forward I I I I #
face $-1 $214 $215 $51 $-1 $216 reversed single #
loop $-1 $-1 $217 $85 #
plane-surface $-1 0 0 -17.440116352719812 0 0 1 1 0 0 forward_v I I I I #
coedge $-1 $218 $219 $220 $221 forward $86 $-1 #
face $-1 $222 $223 $52 $-1 $224 reversed single #
loop $-1 $-1 $225 $88 #
plane-surface $-1 0 -35.514307347915853 -13.695390664593624 0 -1 0 0 0 -1 forward_v I I I I #
coedge $-1 $226 $227 $228 $229 reversed $89 $-1 #
face $-1 $230 $231 $53 $-1 $232 reversed single #
loop $-1 $-1 $233 $91 #
plane-surface $-1 0 39.262316996059631 11.35391162666587 0 0 1 1 0 0 forward_v I I I I #
coedge $-1 $234 $235 $236 $237 reversed $92 $-1 #
face $-1 $238 $239 $54 $-1 $240 reversed single #
loop $-1 $-1 $241 $94 #
plane-surface $-1 -49.392488319526066 -30.334694953598184 96.105956773317686 0.55919291073839883 0 0.82903756765294845 0.82903756765294845 0 -0.55919291073839883 forward_v I I I I #
coedge $-1 $242 $243 $244 $245 reversed $95 $-1 #
face $-1 $-1 $246 $55 $-1 $247 forward single #
loop $-1 $248 $249 $97 #
cone-surface $-1 69.423625023699174 -32.554528836877182 12.249901327579643 -0.55919291073839883 0 -0.82903756765294845 0.41451878382647422 0 -0.27959645536919941 1 I I -0.70710678118654746 0.70710678118654746 0.5 forward I I I I #
loop $-1 $-1 $250 $72 #
coedge $-1 $156 $156 $251 $252 reversed $98 $-1 #
face $-1 $-1 $253 $56 $-1 $254 forward single #
loop $-1 $255 $256 $100 #
cone-surface $-1 69.423625023699174 -28.114861070319183 12.249901327579643 -0.55919291073839883 0 -0.82903756765294845 0.41451878382647422 0 -0.27959645536919941 1 I I -0.70710678118654746 0.70710678118654746 0.5 forward I I I I #
loop $-1 $-1 $257 $73 #
coedge $-1 $161 $161 $258 $259 reversed $101 $-1 #
face $-1 $260 $261 $57 $-1 $262 forward single #
loop $-1 $-1 $263 $103 #
plane-surface $-1 34.549079535546937 19.172739965167533 220.55444655773221 0 1 0 0.55919291073839883 0 0.82903756765294845 forward_v I I I I #
coedge $-1 $264 $265 $266 $267 reversed $104 $-1 #
face $-1 $-1 $268 $58 $-1 $269 forward single #
loop $-1 $270 $271 $106 #
cone-surface $-1 69.423625023699174 22.132518476206208 12.249901327579643 -0.55919291073839883 0 -0.82903756765294845 0.41451878382647422 0 -0.27959645536919941 1 I I -0.70710678118654746 0.70710678118654746 0.5 forward I I I I #
loop $-1 $-1 $272 $75 #
coedge $-1 $170 $170 $273 $274 reversed $107 $-1 #
face $-1 $-1 $275 $59 $-1 $276 forward single #
loop $-1 $277 $278 $109 #
cone-surface $-1 69.423625023699174 26.572186242764211 12.249901327579643 -0.55919291073839883 0 -0.82903756765294845 0.41451878382647422 0 -0.27959645536919941 1 I I -0.70710678118654746 0.70710678118654746 0.5 forward I I I I #
loop $-1 $-1 $279 $76 #
coedge $-1 $175 $175 $280 $281 reversed $110 $-1 #
face $-1 $282 $283 $60 $-1 $284 reversed single #
loop $-1 $-1 $285 $112 #
plane-surface $-1 -75.056001464888439 -15.539061930911146 14.06552914913658 -0.83867057594974714 0 0.54463902268945019 0.54463902268945019 0 0.83867057594974714 forward_v I I I I #
coedge $-1 $286 $287 $288 $289 reversed $113 $-1 #
face $-1 $-1 $290 $61 $-1 $291 forward single #
loop $-1 $292 $293 $115 #
cone-surface $-1 -72.911922003249458 -19.383446091302666 15.072023972566384 0.83867057594974714 0 -0.54463902268945019 0.13615975567236255 0 0.20966764398743679 1 I I -0.70710678118654746 0.70710678118654746 0.25 forward I I I I #
loop $-1 $-1 $294 $78 #
coedge $-1 $184 $184 $295 $296 reversed $116 $-1 #
face $-1 $-1 $297 $62 $-1 $298 forward single #
loop $-1 $299 $300 $118 #
cone-surface $-1 -72.911922003249458 -15.539061930911146 15.072023972566384 0.83867057594974714 0 -0.54463902268945019 0.13615975567236255 0 0.20966764398743679 1 I I -0.70710678118654746 0.70710678118654746 0.25 forward I I I I #
loop $-1 $-1 $301 $79 #
coedge $-1 $189 $189 $302 $303 reversed $119 $-1 #
face $-1 $-1 $304 $63 $-1 $305 forward single #
loop $-1 $306 $307 $121 #
cone-surface $-1 -72.911922003249458 -11.694677770519625 15.072023972566384 0.83867057594974714 0 -0.54463902268945019 0.13615975567236255 0 0.20966764398743679 1 I I -0.70710678118654746 0.70710678118654746 0.25 forward I I I I #
loop $-1 $-1 $308 $80 #
coedge $-1 $194 $194 $309 $310 reversed $122 $-1 #
face $-1 $311 $312 $64 $-1 $313 reversed single #
loop $-1 $-1 $314 $124 #
plane-surface $-1 -75.056001464888439 16.984074119948211 14.06552914913658 -0.83867057594974714 0 0.54463902268945019 0.54463902268945019 0 0.83867057594974714 forward_v I I I I #
coedge $-1 $315 $316 $317 $318 reversed $125 $-1 #
face $-1 $-1 $319 $65 $-1 $320 forward single #
loop $-1 $321 $322 $127 #
cone-surface $-1 -72.911922003249458 13.139689959556698 15.072023972566384 0.83867057594974714 0 -0.54463902268945019 0.13615975567236255 0 0.20966764398743679 1 I I -0.70710678118654746 0.70710678118654746 0.25 forward I I I I #
loop $-1 $-1 $323 $82 #
coedge $-1 $203 $203 $324 $325 reversed $128 $-1 #
face $-1 $-1 $326 $66 $-1 $327 forward single #
loop $-1 $328 $329 $130 #
cone-surface $-1 -72.911922003249458 16.984074119948211 15.072023972566384 0.83867057594974714 0 -0.54463902268945019 0.13615975567236255 0 0.20966764398743679 1 I I -0.70710678118654746 0.70710678118654746 0.25 forward I I I I #
loop $-1 $-1 $330 $83 #
coedge $-1 $208 $208 $331 $332 reversed $131 $-1 #
face $-1 $-1 $333 $67 $-1 $334 forward single #
loop $-1 $335 $336 $133 #
cone-surface $-1 -72.911922003249458 20.828458280339738 15.072023972566384 0.83867057594974714 0 -0.54463902268945019 0.13615975567236255 0 0.20966764398743679 1 I I -0.70710678118654746 0.70710678118654746 0.25 forward I I I I #
loop $-1 $-1 $337 $84 #
coedge $-1 $213 $213 $338 $339 reversed $134 $-1 #
face $-1 $340 $341 $51 $-1 $342 reversed single #
loop $-1 $-1 $343 $136 #
plane-surface $-1 0 -48.992669238316388 0 0 1 0 0 0 1 forward_v I I I I #
coedge $-1 $344 $345 $346 $347 forward $137 $-1 #
coedge $-1 $348 $139 $349 $350 forward $86 $-1 #
coedge $-1 $139 $348 $351 $352 forward $86 $-1 #
coedge $-1 $353 $354 $139 $221 reversed $355 $-1 #
edge $-1 $356 -48.992669238316388 $357 48.992669238316388 $220 $358 forward 7 unknown #
face $-1 $359 $360 $52 $-1 $361 reversed single #
loop $-1 $-1 $362 $140 #
plane-surface $-1 0 0 -17.440116352719812 0 0 1 1 0 0 forward_v I I I I #
coedge $-1 $363 $364 $365 $366 reversed $141 $-1 #
coedge $-1 $367 $143 $364 $368 forward $89 $-1 #
coedge $-1 $143 $367 $369 $370 reversed $89 $-1 #
coedge $-1 $371 $365 $143 $229 forward $360 $-1 #
edge $-1 $372 14.387563201357793 $373 27.865925091758328 $228 $374 forward 7 unknown #
face $-1 $375 $376 $53 $-1 $377 reversed single #
loop $-1 $-1 $378 $144 #
plane-surface $-1 0 29.531964753802875 14.109297787937734 0 1 0 0 0 1 forward_v I I I I #
coedge $-1 $379 $380 $381 $382 reversed $145 $-1 #
coedge $-1 $383 $147 $384 $385 reversed $92 $-1 #
coedge $-1 $147 $383 $378 $386 forward $92 $-1 #
coedge $-1 $387 $388 $147 $237 forward $376 $-1 #
edge $-1 $389 -29.361510740286572 $390 -9.900806255773059 $236 $391 forward 7 unknown #
face $-1 $392 $393 $54 $-1 $394 forward single #
loop $-1 $-1 $395 $148 #
plane-surface $-1 34.549079535546937 -35.514307347915853 220.55444655773221 0 1 0 0.55919291073839883 0 0.82903756765294845 forward_v I I I I #
coedge $-1 $396 $397 $398 $399 reversed $149 $-1 #
coedge $-1 $243 $151 $400 $401 reversed $95 $-1 #
coedge $-1 $151 $242 $396 $402 reversed $95 $-1 #
coedge $-1 $398 $403 $151 $245 forward $393 $-1 #
edge $-1 $404 -57.781461697114985 $405 -49.959874270153982 $244 $406 forward 7 unknown #
loop $-1 $-1 $251 $152 #
plane-surface $-1 -49.392488319526066 -30.334694953598184 96.105956773317686 0.55919291073839883 0 0.82903756765294845 0.82903756765294845 0 -0.55919291073839883 forward_v I I I I #
loop $-1 $-1 $407 $97 #
coedge $-1 $249 $249 $250 $408 reversed $153 $-1 #
coedge $-1 $250 $250 $249 $408 forward $155 $-1 #
coedge $-1 $251 $251 $156 $252 forward $246 $-1 #
edge $-1 $409 0 $409 6.2831853071796004 $251 $410 forward 7 unknown #
loop $-1 $-1 $258 $157 #
plane-surface $-1 -49.392488319526066 -30.334694953598184 96.105956773317686 0.55919291073839883 0 0.82903756765294845 0.82903756765294845 0 -0.55919291073839883 forward_v I I I I #
loop $-1 $-1 $411 $100 #
coedge $-1 $256 $256 $257 $412 reversed $158 $-1 #
coedge $-1 $257 $257 $256 $412 forward $160 $-1 #
coedge $-1 $258 $258 $161 $259 forward $253 $-1 #
edge $-1 $413 0 $413 6.2831853071796004 $258 $414 forward 7 unknown #
face $-1 $415 $416 $57 $-1 $417 reversed single #
loop $-1 $-1 $418 $162 #
plane-surface $-1 0 29.531964753802875 14.109297787937734 0 1 0 0 0 1 forward_v I I I I #
coedge $-1 $419 $420 $421 $422 reversed $163 $-1 #
coedge $-1 $423 $165 $418 $424 forward $104 $-1 #
coedge $-1 $165 $423 $419 $425 forward $104 $-1 #
coedge $-1 $421 $426 $165 $267 forward $427 $-1 #
edge $-1 $428 -17.35578857406027 $429 -6.9965637854249323 $266 $430 forward 7 unknown #
loop $-1 $-1 $273 $166 #
plane-surface $-1 -49.392488319526066 24.352352359485202 96.105956773317686 0.55919291073839883 0 0.82903756765294845 0.82903756765294845 0 -0.55919291073839883 forward_v I I I I #
loop $-1 $-1 $431 $106 #
coedge $-1 $271 $271 $272 $432 reversed $167 $-1 #
coedge $-1 $272 $272 $271 $432 forward $169 $-1 #
coedge $-1 $273 $273 $170 $274 forward $268 $-1 #
edge $-1 $433 0 $433 6.2831853071796004 $273 $434 forward 7 unknown #
loop $-1 $-1 $280 $171 #
plane-surface $-1 -49.392488319526066 24.352352359485202 96.105956773317686 0.55919291073839883 0 0.82903756765294845 0.82903756765294845 0 -0.55919291073839883 forward_v I I I I #
loop $-1 $-1 $435 $109 #
coedge $-1 $278 $278 $279 $436 reversed $172 $-1 #
coedge $-1 $279 $279 $278 $436 forward $174 $-1 #
coedge $-1 $280 $280 $175 $281 forward $275 $-1 #
edge $-1 $437 0 $437 6.2831853071796004 $280 $438 forward 7 unknown #
face $-1 $439 $440 $60 $-1 $441 reversed single #
loop $-1 $-1 $442 $176 #
plane-surface $-1 -200.95052141897457 -9.1317549969252756 95.822383718766162 0 -1 0 0.83867057594974714 0 -0.54463902268945019 forward_v I I I I #
coedge $-1 $443 $444 $445 $446 reversed $177 $-1 #
coedge $-1 $287 $179 $447 $448 reversed $113 $-1 #
coedge $-1 $179 $286 $443 $449 reversed $113 $-1 #
coedge $-1 $445 $450 $179 $289 forward $451 $-1 #
edge $-1 $452 25.419259244598834 $453 27.610741728002466 $288 $454 forward 7 unknown #
loop $-1 $-1 $295 $180 #
plane-surface $-1 -75.056001464888439 -15.539061930911146 14.06552914913658 -0.83867057594974714 0 0.54463902268945019 0.54463902268945019 0 0.83867057594974714 forward_v I I I I #
loop $-1 $-1 $455 $115 #
coedge $-1 $293 $293 $294 $456 reversed $181 $-1 #
coedge $-1 $294 $294 $293 $456 forward $183 $-1 #
coedge $-1 $295 $295 $184 $296 forward $290 $-1 #
edge $-1 $457 0 $457 6.2831853071796004 $295 $458 forward 7 unknown #
loop $-1 $-1 $302 $185 #
plane-surface $-1 -75.056001464888439 -15.539061930911146 14.06552914913658 -0.83867057594974714 0 0.54463902268945019 0.54463902268945019 0 0.83867057594974714 forward_v I I I I #
loop $-1 $-1 $459 $118 #
coedge $-1 $300 $300 $301 $460 reversed $186 $-1 #
coedge $-1 $301 $301 $300 $460 forward $188 $-1 #
coedge $-1 $302 $302 $189 $303 forward $297 $-1 #
edge $-1 $461 0 $461 6.2831853071796004 $302 $462 forward 7 unknown #
loop $-1 $-1 $309 $190 #
plane-surface $-1 -75.056001464888439 -15.539061930911146 14.06552914913658 -0.83867057594974714 0 0.54463902268945019 0.54463902268945019 0 0.83867057594974714 forward_v I I I I #
loop $-1 $-1 $463 $121 #
coedge $-1 $307 $307 $308 $464 reversed $191 $-1 #
coedge $-1 $308 $308 $307 $464 forward $193 $-1 #
coedge $-1 $309 $309 $194 $310 forward $304 $-1 #
edge $-1 $465 0 $465 6.2831853071796004 $309 $466 forward 7 unknown #
face $-1 $467 $468 $64 $-1 $469 reversed single #
loop $-1 $-1 $470 $195 #
plane-surface $-1 -200.95052141897457 23.391381053934083 95.822383718766162 0 -1 0 0.83867057594974714 0 -0.54463902268945019 forward_v I I I I #
coedge $-1 $471 $472 $473 $474 reversed $196 $-1 #
coedge $-1 $316 $198 $475 $476 reversed $125 $-1 #
coedge $-1 $198 $315 $471 $477 reversed $125 $-1 #
coedge $-1 $473 $478 $198 $318 forward $479 $-1 #
edge $-1 $480 25.419259244598834 $481 27.610741728002466 $317 $482 forward 7 unknown #
loop $-1 $-1 $324 $199 #
plane-surface $-1 -75.056001464888439 16.984074119948211 14.06552914913658 -0.83867057594974714 0 0.54463902268945019 0.54463902268945019 0 0.83867057594974714 forward_v I I I I #
loop $-1 $-1 $483 $127 #
coedge $-1 $322 $322 $323 $484 reversed $200 $-1 #
coedge $-1 $323 $323 $322 $484 forward $202 $-1 #
coedge $-1 $324 $324 $203 $325 forward $319 $-1 #
edge $-1 $485 0 $485 6.2831853071796004 $324 $486 forward 7 unknown #
loop $-1 $-1 $331 $204 #
plane-surface $-1 -75.056001464888439 16.984074119948211 14.06552914913658 -0.83867057594974714 0 0.54463902268945019 0.54463902268945019 0 0.83867057594974714 forward_v I I I I #
loop $-1 $-1 $487 $130 #
coedge $-1 $329 $329 $330 $488 reversed $205 $-1 #
coedge $-1 $330 $330 $329 $488 forward $207 $-1 #
coedge $-1 $331 $331 $208 $332 forward $326 $-1 #
edge $-1 $489 0 $489 6.2831853071796004 $331 $490 forward 7 unknown #
loop $-1 $-1 $338 $209 #
plane-surface $-1 -75.056001464888439 16.984074119948211 14.06552914913658 -0.83867057594974714 0 0.54463902268945019 0.54463902268945019 0 0.83867057594974714 forward_v I I I I #
loop $-1 $-1 $491 $133 #
coedge $-1 $336 $336 $337 $492 reversed $210 $-1 #
coedge $-1 $337 $337 $336 $492 forward $212 $-1 #
coedge $-1 $338 $338 $213 $339 forward $333 $-1 #
edge $-1 $493 0 $493 6.2831853071796004 $338 $494 forward 7 unknown #
face $-1 $495 $496 $51 $-1 $497 reversed single #
loop $-1 $-1 $498 $214 #
plane-surface $-1 -75.056001464888453 0 0 1 0 0 0 0 -1 forward_v I I I I #
coedge $-1 $499 $351 $500 $501 forward $215 $-1 #
coedge $-1 $502 $217 $499 $503 forward $137 $-1 #
coedge $-1 $217 $502 $504 $505 forward $137 $-1 #
coedge $-1 $354 $353 $217 $347 reversed $355 $-1 #
edge $-1 $506 -48.992669238316388 $507 48.992669238316388 $346 $508 forward 7 unknown #
coedge $-1 $219 $218 $509 $510 forward $86 $-1 #
coedge $-1 $511 $512 $218 $350 reversed $496 $-1 #
edge $-1 $357 -75.056001464888453 $513 75.056001464888453 $349 $514 forward 7 unknown #
coedge $-1 $343 $515 $219 $352 reversed $215 $-1 #
edge $-1 $516 -75.056001464888453 $356 75.056001464888453 $351 $517 forward 7 unknown #
coedge $-1 $346 $220 $515 $518 forward $355 $-1 #
coedge $-1 $220 $346 $511 $519 reversed $355 $-1 #
loop $-1 $-1 $353 $495 #
vertex $-1 $221 $520 #
vertex $-1 $221 $521 #
straight-curve $-1 75.056001464888453 0 17.440116352719812 0 1 0 I I #
face $-1 $522 $523 $52 $-1 $524 reversed single #
loop $-1 $-1 $365 $222 #
plane-surface $-1 75.056001464888453 0 0 -1 0 0 0 0 1 forward_v I I I I #
coedge $-1 $525 $526 $363 $527 forward $223 $-1 #
coedge $-1 $528 $225 $362 $527 reversed $141 $-1 #
coedge $-1 $225 $528 $226 $368 reversed $141 $-1 #
coedge $-1 $228 $529 $225 $366 forward $360 $-1 #
edge $-1 $530 -10.592421020423 $372 -3.1029696441706243 $365 $531 forward 7 unknown #
coedge $-1 $227 $226 $532 $533 reversed $89 $-1 #
edge $-1 $372 -75.056001464888453 $534 75.056001464888453 $364 $535 forward 7 unknown #
coedge $-1 $536 $537 $227 $370 forward $523 $-1 #
edge $-1 $373 -75.056001464888453 $538 75.056001464888453 $369 $539 forward 7 unknown #
coedge $-1 $529 $228 $537 $540 forward $360 $-1 #
vertex $-1 $229 $541 #
vertex $-1 $540 $542 #
straight-curve $-1 75.056001464888453 -21.12674414655806 -9.9506649764674364 0 -1 0 I I #
face $-1 $543 $544 $53 $-1 $545 reversed single #
loop $-1 $-1 $236 $230 #
plane-surface $-1 75.056001464888453 0 0 -1 0 0 0 0 1 forward_v I I I I #
coedge $-1 $546 $547 $235 $386 reversed $231 $-1 #
coedge $-1 $548 $233 $549 $550 forward $145 $-1 #
coedge $-1 $233 $548 $551 $552 reversed $145 $-1 #
coedge $-1 $388 $387 $233 $382 forward $376 $-1 #
edge $-1 $553 9.900806255773059 $554 29.361510740286572 $381 $555 forward 7 unknown #
coedge $-1 $235 $234 $556 $557 reversed $92 $-1 #
coedge $-1 $558 $559 $234 $385 forward $560 $-1 #
edge $-1 $561 -75.056001464888453 $389 75.056001464888453 $384 $562 forward 7 unknown #
edge $-1 $563 -75.056001464888453 $390 75.056001464888453 $378 $564 forward 7 unknown #
coedge $-1 $381 $236 $547 $565 forward $376 $-1 #
coedge $-1 $236 $381 $558 $566 reversed $376 $-1 #
vertex $-1 $566 $567 #
vertex $-1 $237 $568 #
straight-curve $-1 75.056001464888453 19.631158498029816 16.864683949209599 0 -1 0 I I #
face $-1 $-1 $569 $54 $-1 $570 reversed single #
loop $-1 $-1 $244 $238 #
plane-surface $-1 0 0 17.440116352719812 0 0 1 1 0 0 forward_v I I I I #
coedge $-1 $571 $572 $573 $574 reversed $239 $-1 #
coedge $-1 $575 $241 $243 $402 forward $149 $-1 #
coedge $-1 $241 $575 $571 $576 forward $149 $-1 #
coedge $-1 $573 $244 $241 $399 forward $393 $-1 #
edge $-1 $405 9.9877350824814233 $577 20.346959871116759 $398 $578 forward 7 unknown #
coedge $-1 $579 $580 $242 $401 forward $569 $-1 #
edge $-1 $581 -98.11283436062142 $404 -92.837106926146291 $400 $582 forward 7 unknown #
edge $-1 $405 140.67746373379771 $581 150.11200292977691 $243 $583 forward 7 unknown #
coedge $-1 $244 $573 $579 $584 forward $393 $-1 #
vertex $-1 $401 $585 #
vertex $-1 $245 $586 #
straight-curve $-1 17.274539767773469 -25.155082559280515 17.440116352719812 -1 0 0 I I #
coedge $-1 $407 $407 $-1 $587 reversed $248 $-1 #
edge $-1 $588 0 $588 6.2831853071796004 $249 $589 forward 7 unknown #
vertex $-1 $252 $590 #
ellipse-curve $-1 71.145207751407952 -32.554528836877182 14.802252635482249 0.55919291073839883 0 0.82903756765294845 0.82903756765294845 0 -0.55919291073839883 1 I I #
coedge $-1 $411 $411 $-1 $591 reversed $255 $-1 #
edge $-1 $592 0 $592 6.2831853071796004 $256 $593 forward 7 unknown #
vertex $-1 $259 $594 #
ellipse-curve $-1 71.145207751407952 -28.114861070319183 14.802252635482249 0.55919291073839883 0 0.82903756765294845 0.82903756765294845 0 -0.55919291073839883 1 I I #
face $-1 $-1 $427 $57 $-1 $595 forward single #
loop $-1 $-1 $596 $260 #
plane-surface $-1 75.056001464888453 0 0 -1 0 0 0 0 1 forward_v I I I I #
coedge $-1 $597 $598 $264 $424 reversed $261 $-1 #
coedge $-1 $420 $263 $265 $425 reversed $163 $-1 #
coedge $-1 $263 $419 $596 $599 reversed $163 $-1 #
coedge $-1 $600 $266 $263 $422 forward $427 $-1 #
edge $-1 $429 49.959874270153982 $601 57.781461697114985 $421 $602 forward 7 unknown #
coedge $-1 $265 $264 $603 $604 reversed $104 $-1 #
edge $-1 $428 140.67746373379771 $605 150.11200292977691 $418 $606 forward 7 unknown #
edge $-1 $607 -150.11200292977691 $429 -140.67746373379771 $419 $608 forward 7 unknown #
coedge $-1 $266 $600 $597 $609 forward $427 $-1 #
loop $-1 $-1 $421 $415 #
vertex $-1 $267 $610 #
vertex $-1 $267 $611 #
straight-curve $-1 67.234414037927451 12.176176179742601 17.440116352719812 0 -1 0 I I #
coedge $-1 $431 $431 $-1 $612 reversed $270 $-1 #
edge $-1 $613 0 $613 6.2831853071796004 $271 $614 forward 7 unknown #
vertex $-1 $274 $615 #
ellipse-curve $-1 71.145207751407952 22.132518476206208 14.802252635482249 0.55919291073839883 0 0.82903756765294845 0.82903756765294845 0 -0.55919291073839883 1 I I #
coedge $-1 $435 $435 $-1 $616 reversed $277 $-1 #
edge $-1 $617 0 $617 6.2831853071796004 $278 $618 forward 7 unknown #
vertex $-1 $281 $619 #
ellipse-curve $-1 71.145207751407952 26.572186242764211 14.802252635482249 0.55919291073839883 0 0.82903756765294845 0.82903756765294845 0 -0.55919291073839883 1 I I #
face $-1 $-1 $451 $60 $-1 $620 forward single #
loop $-1 $-1 $621 $282 #
plane-surface $-1 -75.056001464888453 0 0 1 0 0 0 0 -1 forward_v I I I I #
coedge $-1 $622 $623 $624 $625 reversed $283 $-1 #
coedge $-1 $626 $285 $287 $449 forward $177 $-1 #
coedge $-1 $285 $626 $622 $627 forward $177 $-1 #
coedge $-1 $624 $288 $285 $446 forward $451 $-1 #
edge $-1 $453 -14.176837899441445 $628 -1.3622240314697027 $445 $629 forward 7 unknown #
coedge $-1 $630 $631 $286 $448 forward $440 $-1 #
edge $-1 $632 -33.845662710246522 $452 -30.471075506663269 $447 $633 forward 7 unknown #
edge $-1 $453 -4.0237338716237918 $632 2.5617124586774352e-014 $287 $634 forward 7 unknown #
coedge $-1 $288 $624 $630 $635 forward $451 $-1 #
loop $-1 $-1 $624 $439 #
vertex $-1 $448 $636 #
vertex $-1 $289 $637 #
straight-curve $-1 -100.47526070948729 -21.946368864897018 17.440116352719812 1 0 0 I I #
coedge $-1 $455 $455 $-1 $638 reversed $292 $-1 #
edge $-1 $639 0 $639 6.2831853071796004 $293 $640 forward 7 unknown #
vertex $-1 $296 $641 #
ellipse-curve $-1 -73.960260223186637 -19.383446091302666 15.752822750928193 -0.83867057594974714 0 0.54463902268945019 0.2723195113447251 0 0.41933528797487357 1 I I #
coedge $-1 $459 $459 $-1 $642 reversed $299 $-1 #
edge $-1 $643 0 $643 6.2831853071796004 $300 $644 forward 7 unknown #
vertex $-1 $303 $645 #
ellipse-curve $-1 -73.960260223186637 -15.539061930911146 15.752822750928193 -0.83867057594974714 0 0.54463902268945019 0.2723195113447251 0 0.41933528797487357 1 I I #
coedge $-1 $463 $463 $-1 $646 reversed $306 $-1 #
edge $-1 $647 0 $647 6.2831853071796004 $307 $648 forward 7 unknown #
vertex $-1 $310 $649 #
ellipse-curve $-1 -73.960260223186637 -11.694677770519625 15.752822750928193 -0.83867057594974714 0 0.54463902268945019 0.2723195113447251 0 0.41933528797487357 1 I I #
face $-1 $-1 $479 $64 $-1 $650 forward single #
loop $-1 $-1 $651 $311 #
plane-surface $-1 -75.056001464888453 0 0 1 0 0 0 0 -1 forward_v I I I I #
coedge $-1 $652 $653 $654 $655 reversed $312 $-1 #
coedge $-1 $656 $314 $316 $477 forward $196 $-1 #
coedge $-1 $314 $656 $652 $657 forward $196 $-1 #
coedge $-1 $654 $317 $314 $474 forward $479 $-1 #
edge $-1 $481 2.0847301259882354 $658 14.899343993959977 $473 $659 forward 7 unknown #
coedge $-1 $660 $661 $315 $476 forward $468 $-1 #
edge $-1 $662 -33.845662710246522 $480 -30.471075506663269 $475 $663 forward 7 unknown #
edge $-1 $481 -4.0237338716237918 $662 2.5617124586774352e-014 $316 $664 forward 7 unknown #
coedge $-1 $317 $654 $660 $665 forward $479 $-1 #
loop $-1 $-1 $654 $467 #
vertex $-1 $476 $666 #
vertex $-1 $318 $667 #
straight-curve $-1 -100.47526070948729 10.576767185962341 17.440116352719812 1 0 0 I I #
coedge $-1 $483 $483 $-1 $668 reversed $321 $-1 #
edge $-1 $669 0 $669 6.2831853071796004 $322 $670 forward 7 unknown #
vertex $-1 $325 $671 #
ellipse-curve $-1 -73.960260223186637 13.139689959556698 15.752822750928193 -0.83867057594974714 0 0.54463902268945019 0.2723195113447251 0 0.41933528797487357 1 I I #
coedge $-1 $487 $487 $-1 $672 reversed $328 $-1 #
edge $-1 $673 0 $673 6.2831853071796004 $329 $674 forward 7 unknown #
vertex $-1 $332 $675 #
ellipse-curve $-1 -73.960260223186637 16.984074119948211 15.752822750928193 -0.83867057594974714 0 0.54463902268945019 0.2723195113447251 0 0.41933528797487357 1 I I #
coedge $-1 $491 $491 $-1 $676 reversed $335 $-1 #
edge $-1 $677 0 $677 6.2831853071796004 $336 $678 forward 7 unknown #
vertex $-1 $339 $679 #
ellipse-curve $-1 -73.960260223186637 20.828458280339738 15.752822750928193 -0.83867057594974714 0 0.54463902268945019 0.2723195113447251 0 0.41933528797487357 1 I I #
face $-1 $-1 $355 $51 $-1 $680 reversed single #
loop $-1 $-1 $511 $340 #
plane-surface $-1 0 48.992669238316388 0 0 -1 0 0 0 -1 forward_v I I I I #
coedge $-1 $681 $509 $512 $682 forward $341 $-1 #
coedge $-1 $515 $343 $344 $503 reversed $215 $-1 #
coedge $-1 $509 $681 $343 $501 reversed $341 $-1 #
edge $-1 $516 -17.440116352719812 $683 17.440116352719812 $500 $684 forward 7 unknown #
coedge $-1 $345 $344 $681 $685 forward $137 $-1 #
edge $-1 $507 -75.056001464888453 $683 75.056001464888453 $499 $686 forward 7 unknown #
coedge $-1 $512 $511 $345 $505 reversed $496 $-1 #
edge $-1 $687 -75.056001464888453 $506 75.056001464888453 $504 $688 forward 7 unknown #
vertex $-1 $347 $689 #
vertex $-1 $518 $690 #
straight-curve $-1 75.056001464888453 0 -17.440116352719812 0 -1 0 I I #
coedge $-1 $498 $500 $348 $510 reversed $341 $-1 #
edge $-1 $513 -48.992669238316388 $516 48.992669238316388 $509 $691 forward 7 unknown #
coedge $-1 $504 $349 $354 $519 forward $496 $-1 #
coedge $-1 $349 $504 $498 $682 reversed $496 $-1 #
vertex $-1 $350 $692 #
straight-curve $-1 0 48.992669238316388 17.440116352719812 -1 0 0 I I #
coedge $-1 $351 $499 $353 $518 reversed $215 $-1 #
vertex $-1 $510 $693 #
straight-curve $-1 0 -48.992669238316388 17.440116352719812 1 0 0 I I #
edge $-1 $356 -17.440116352719812 $507 17.440116352719812 $353 $694 forward 7 unknown #
edge $-1 $357 -17.440116352719812 $506 17.440116352719812 $354 $695 forward 7 unknown #
point $-1 75.056001464888453 -48.992669238316388 17.440116352719812 #
point $-1 75.056001464888453 48.992669238316388 17.440116352719812 #
face $-1 $-1 $696 $52 $-1 $697 reversed single #
loop $-1 $-1 $369 $359 #
plane-surface $-1 0 -48.992669238316388 0 0 1 0 0 0 1 forward_v I I I I #
coedge $-1 $698 $362 $529 $699 forward $223 $-1 #
coedge $-1 $362 $698 $700 $701 forward $223 $-1 #
edge $-1 $702 -75.056001464888453 $530 75.056001464888453 $362 $703 forward 7 unknown #
coedge $-1 $364 $363 $704 $705 reversed $141 $-1 #
coedge $-1 $365 $371 $525 $699 reversed $360 $-1 #
vertex $-1 $699 $706 #
straight-curve $-1 75.056001464888453 -35.514307347915853 -6.8476953322968122 0 0 1 I I #
coedge $-1 $704 $707 $367 $533 forward $696 $-1 #
edge $-1 $538 -27.865925091758328 $534 -14.387563201357793 $532 $708 forward 7 unknown #
vertex $-1 $533 $709 #
straight-curve $-1 0 -35.514307347915853 -9.9506649764674364 -1 0 0 I I #
coedge $-1 $710 $369 $707 $711 forward $523 $-1 #
coedge $-1 $369 $710 $371 $540 reversed $523 $-1 #
vertex $-1 $711 $712 #
straight-curve $-1 0 -48.992669238316388 -9.9506649764674364 -1 0 0 I I #
edge $-1 $373 9.9506649764674364 $713 17.440116352719812 $371 $714 forward 7 unknown #
point $-1 75.056001464888453 -35.514307347915853 -9.9506649764674364 #
point $-1 75.056001464888453 -48.992669238316388 -9.9506649764674364 #
face $-1 $-1 $560 $53 $-1 $715 reversed single #
loop $-1 $-1 $556 $375 #
plane-surface $-1 -75.056001464888453 0 0 1 0 0 0 0 -1 forward_v I I I I #
coedge $-1 $549 $378 $716 $717 reversed $231 $-1 #
coedge $-1 $378 $549 $387 $565 reversed $231 $-1 #
coedge $-1 $380 $379 $718 $719 reversed $145 $-1 #
coedge $-1 $547 $546 $379 $550 reversed $231 $-1 #
edge $-1 $553 -75.056001464888453 $720 75.056001464888453 $549 $721 forward 7 unknown #
coedge $-1 $559 $558 $380 $552 forward $560 $-1 #
edge $-1 $554 -75.056001464888453 $722 75.056001464888453 $551 $723 forward 7 unknown #
vertex $-1 $382 $724 #
vertex $-1 $552 $725 #
straight-curve $-1 75.056001464888453 19.631158498029816 11.35391162666587 0 1 0 I I #
coedge $-1 $726 $716 $383 $557 forward $544 $-1 #
edge $-1 $563 9.900806255773059 $561 29.361510740286572 $556 $727 forward 7 unknown #
coedge $-1 $551 $384 $388 $566 forward $560 $-1 #
coedge $-1 $384 $551 $726 $728 reversed $560 $-1 #
loop $-1 $-1 $384 $543 #
vertex $-1 $728 $729 #
straight-curve $-1 0 48.992669238316388 16.864683949209599 1 0 0 I I #
vertex $-1 $557 $730 #
straight-curve $-1 0 29.531964753802875 16.864683949209599 1 0 0 I I #
edge $-1 $390 -9.810035055240732 $553 -4.2992627326970023 $387 $731 forward 7 unknown #
edge $-1 $389 -16.864683949209599 $554 -11.35391162666587 $388 $732 forward 7 unknown #
point $-1 75.056001464888453 48.992669238316388 16.864683949209599 #
point $-1 75.056001464888453 29.531964753802875 16.864683949209599 #
loop $-1 $-1 $400 $392 #
plane-surface $-1 75.056001464888453 0 0 -1 0 0 0 0 1 forward_v I I I I #
coedge $-1 $572 $395 $397 $576 reversed $239 $-1 #
coedge $-1 $395 $571 $733 $734 reversed $239 $-1 #
coedge $-1 $403 $398 $395 $574 forward $393 $-1 #
edge $-1 $577 49.959874270153982 $735 57.781461697114985 $573 $736 forward 7 unknown #
coedge $-1 $397 $396 $580 $737 reversed $149 $-1 #
edge $-1 $738 -150.11200292977691 $577 -140.67746373379771 $571 $739 forward 7 unknown #
vertex $-1 $399 $740 #
straight-curve $-1 67.234414037927451 -15.167347476799092 17.440116352719812 0 -1 0 I I #
coedge $-1 $733 $400 $403 $584 reversed $569 $-1 #
coedge $-1 $400 $733 $575 $737 forward $569 $-1 #
vertex $-1 $401 $741 #
straight-curve $-1 75.056001464888453 -25.155082559280515 110.2772232788661 0 0 1 I I #
straight-curve $-1 -49.392488319526066 -25.155082559280515 96.105956773317686 0.82903756765294845 0 -0.55919291073839883 I I #
edge $-1 $735 -35.514307347915853 $404 -25.155082559280515 $579 $742 forward 7 unknown #
point $-1 75.056001464888453 -25.155082559280515 17.440116352719812 #
point $-1 67.234414037927451 -25.155082559280515 17.440116352719812 #
edge $-1 $743 1 $743 0 $407 $-1 forward 7 unknown #
vertex $-1 $408 $744 #
ellipse-curve $-1 69.703221479068375 -32.554528836877182 12.664420111406118 0.55919291073839883 0 0.82903756765294845 0.82903756765294845 0 -0.55919291073839883 1 I I #
point $-1 71.974245319060927 -32.554528836877182 14.24305972474388 #
edge $-1 $745 1 $745 0 $411 $-1 forward 7 unknown #
vertex $-1 $412 $746 #
ellipse-curve $-1 69.703221479068375 -28.114861070319183 12.664420111406118 0.55919291073839883 0 0.82903756765294845 0.82903756765294845 0 -0.55919291073839883 1 I I #
point $-1 71.974245319060927 -28.114861070319183 14.24305972474388 #
plane-surface $-1 0 0 17.440116352719812 0 0 1 1 0 0 forward_v I I I I #
coedge $-1 $603 $747 $420 $599 forward $416 $-1 #
coedge $-1 $598 $418 $426 $609 reversed $261 $-1 #
coedge $-1 $418 $597 $748 $749 reversed $261 $-1 #
edge $-1 $601 92.837106926146291 $607 98.11283436062142 $596 $750 forward 7 unknown #
coedge $-1 $426 $421 $747 $751 forward $427 $-1 #
vertex $-1 $751 $752 #
straight-curve $-1 17.274539767773469 19.172739965167533 17.440116352719812 1 0 0 I I #
coedge $-1 $748 $596 $423 $604 forward $416 $-1 #
edge $-1 $607 6.9965637854249323 $605 17.355788574060274 $603 $753 forward 7 unknown #
vertex $-1 $749 $754 #
straight-curve $-1 -49.392488319526066 29.531964753802871 96.105956773317686 0.82903756765294845 0 -0.55919291073839883 I I #
vertex $-1 $604 $755 #
straight-curve $-1 -49.392488319526066 19.172739965167533 96.105956773317686 -0.82903756765294845 0 0.55919291073839883 I I #
edge $-1 $756 -57.781461697114985 $428 -49.959874270153982 $426 $757 forward 7 unknown #
point $-1 67.234414037927451 29.531964753802871 17.440116352719812 #
point $-1 67.234414037927451 19.172739965167533 17.440116352719812 #
edge $-1 $758 1 $758 0 $431 $-1 forward 7 unknown #
vertex $-1 $432 $759 #
ellipse-curve $-1 69.703221479068375 22.132518476206208 12.664420111406118 0.55919291073839883 0 0.82903756765294845 0.82903756765294845 0 -0.55919291073839883 1 I I #
point $-1 71.974245319060927 22.132518476206208 14.24305972474388 #
edge $-1 $760 1 $760 0 $435 $-1 forward 7 unknown #
vertex $-1 $436 $761 #
ellipse-curve $-1 69.703221479068375 26.572186242764211 12.664420111406118 0.55919291073839883 0 0.82903756765294845 0.82903756765294845 0 -0.55919291073839883 1 I I #
point $-1 71.974245319060927 26.572186242764211 14.24305972474388 #
plane-surface $-1 0 0 17.440116352719812 0 0 1 1 0 0 forward_v I I I I #
coedge $-1 $631 $630 $623 $762 forward $440 $-1 #
coedge $-1 $623 $442 $444 $627 reversed $283 $-1 #
coedge $-1 $442 $622 $621 $762 reversed $283 $-1 #
coedge $-1 $450 $445 $442 $625 forward $451 $-1 #
edge $-1 $628 -27.610741728002466 $763 -25.419259244598834 $624 $764 forward 7 unknown #
coedge $-1 $444 $443 $631 $765 reversed $177 $-1 #
edge $-1 $766 -2.5617124586774352e-014 $628 4.0237338716237918 $622 $767 forward 7 unknown #
vertex $-1 $446 $768 #
straight-curve $-1 -72.864518981484821 -7.7695309654555729 17.440116352719812 0 1 0 I I #
coedge $-1 $621 $447 $450 $635 reversed $440 $-1 #
coedge $-1 $447 $621 $626 $765 forward $440 $-1 #
vertex $-1 $448 $769 #
straight-curve $-1 -75.056001464888453 -21.946368864897018 47.911191859383081 0 0 1 I I #
straight-curve $-1 -75.056001464888439 -21.946368864897018 14.06552914913658 -0.54463902268945019 0 -0.83867057594974714 I I #
edge $-1 $763 9.1317549969252756 $452 21.946368864897018 $630 $770 forward 7 unknown #
point $-1 -75.056001464888453 -21.946368864897018 17.440116352719812 #
point $-1 -72.864518981484821 -21.946368864897018 17.440116352719812 #
edge $-1 $771 1 $771 0 $455 $-1 forward 7 unknown #
vertex $-1 $456 $772 #
ellipse-curve $-1 -73.121589647236888 -19.383446091302666 15.208183728238748 -0.83867057594974714 0 0.54463902268945019 0.2723195113447251 0 0.41933528797487357 1 I I #
point $-1 -73.687940711841918 -19.383446091302666 16.172158038903071 #
edge $-1 $773 1 $773 0 $459 $-1 forward 7 unknown #
vertex $-1 $460 $774 #
ellipse-curve $-1 -73.121589647236888 -15.539061930911146 15.208183728238748 -0.83867057594974714 0 0.54463902268945019 0.2723195113447251 0 0.41933528797487357 1 I I #
point $-1 -73.687940711841918 -15.539061930911146 16.172158038903071 #
edge $-1 $775 1 $775 0 $463 $-1 forward 7 unknown #
vertex $-1 $464 $776 #
ellipse-curve $-1 -73.121589647236888 -11.694677770519625 15.208183728238748 -0.83867057594974714 0 0.54463902268945019 0.2723195113447251 0 0.41933528797487357 1 I I #
point $-1 -73.687940711841918 -11.694677770519625 16.172158038903071 #
plane-surface $-1 0 0 17.440116352719812 0 0 1 1 0 0 forward_v I I I I #
coedge $-1 $661 $660 $653 $777 forward $468 $-1 #
coedge $-1 $653 $470 $472 $657 reversed $312 $-1 #
coedge $-1 $470 $652 $651 $777 reversed $312 $-1 #
coedge $-1 $478 $473 $470 $655 forward $479 $-1 #
edge $-1 $658 -27.610741728002466 $778 -25.419259244598834 $654 $779 forward 7 unknown #
coedge $-1 $472 $471 $661 $780 reversed $196 $-1 #
edge $-1 $781 -2.5617124586774352e-014 $658 4.0237338716237918 $652 $782 forward 7 unknown #
vertex $-1 $474 $783 #
straight-curve $-1 -72.864518981484821 8.4920370599741055 17.440116352719812 0 1 0 I I #
coedge $-1 $651 $475 $478 $665 reversed $468 $-1 #
coedge $-1 $475 $651 $656 $780 forward $468 $-1 #
vertex $-1 $476 $784 #
straight-curve $-1 -75.056001464888453 10.576767185962341 47.911191859383081 0 0 1 I I #
straight-curve $-1 -75.056001464888439 10.576767185962341 14.06552914913658 -0.54463902268945019 0 -0.83867057594974714 I I #
edge $-1 $778 -23.391381053934083 $480 -10.576767185962341 $660 $785 forward 7 unknown #
point $-1 -75.056001464888453 10.576767185962341 17.440116352719812 #
point $-1 -72.864518981484821 10.576767185962341 17.440116352719812 #
edge $-1 $786 1 $786 0 $483 $-1 forward 7 unknown #
vertex $-1 $484 $787 #
ellipse-curve $-1 -73.121589647236888 13.139689959556698 15.208183728238748 -0.83867057594974714 0 0.54463902268945019 0.2723195113447251 0 0.41933528797487357 1 I I #
point $-1 -73.687940711841918 13.139689959556698 16.172158038903071 #
edge $-1 $788 1 $788 0 $487 $-1 forward 7 unknown #
vertex $-1 $488 $789 #
ellipse-curve $-1 -73.121589647236888 16.984074119948211 15.208183728238748 -0.83867057594974714 0 0.54463902268945019 0.2723195113447251 0 0.41933528797487357 1 I I #
point $-1 -73.687940711841918 16.984074119948211 16.172158038903071 #
edge $-1 $790 1 $790 0 $491 $-1 forward 7 unknown #
vertex $-1 $492 $791 #
ellipse-curve $-1 -73.121589647236888 20.828458280339738 15.208183728238748 -0.83867057594974714 0 0.54463902268945019 0.2723195113447251 0 0.41933528797487357 1 I I #
point $-1 -73.687940711841918 20.828458280339738 16.172158038903071 #
plane-surface $-1 75.056001464888453 0 0 -1 0 0 0 0 1 forward_v I I I I #
coedge $-1 $500 $498 $502 $685 reversed $341 $-1 #
edge $-1 $513 -17.440116352719812 $687 17.440116352719812 $512 $792 forward 7 unknown #
vertex $-1 $685 $793 #
straight-curve $-1 -75.056001464888453 -48.992669238316388 0 0 0 -1 I I #
edge $-1 $683 -48.992669238316388 $687 48.992669238316388 $681 $794 forward 7 unknown #
straight-curve $-1 0 -48.992669238316388 -17.440116352719812 -1 0 0 I I #
vertex $-1 $505 $795 #
straight-curve $-1 0 48.992669238316388 -17.440116352719812 1 0 0 I I #
point $-1 75.056001464888453 48.992669238316388 -17.440116352719812 #
point $-1 75.056001464888453 -48.992669238316388 -17.440116352719812 #
straight-curve $-1 -75.056001464888453 0 17.440116352719812 0 -1 0 I I #
point $-1 -75.056001464888453 48.992669238316388 17.440116352719812 #
point $-1 -75.056001464888453 -48.992669238316388 17.440116352719812 #
straight-curve $-1 75.056001464888453 -48.992669238316388 0 0 0 -1 I I #
straight-curve $-1 75.056001464888453 48.992669238316388 0 0 0 -1 I I #
loop $-1 $-1 $704 $522 #
plane-surface $-1 -75.056001464888453 0 0 1 0 0 0 0 -1 forward_v I I I I #
coedge $-1 $526 $525 $710 $796 forward $223 $-1 #
edge $-1 $530 35.514307347915853 $713 48.992669238316388 $529 $797 forward 7 unknown #
coedge $-1 $707 $704 $526 $701 reversed $696 $-1 #
edge $-1 $798 -48.992669238316388 $702 -35.514307347915853 $700 $799 forward 7 unknown #
vertex $-1 $705 $800 #
straight-curve $-1 0 -35.514307347915853 -17.440116352719812 1 0 0 I I #
coedge $-1 $700 $532 $528 $705 forward $696 $-1 #
edge $-1 $534 3.1029696441706243 $702 10.592421020423 $704 $801 forward 7 unknown #
point $-1 75.056001464888453 -35.514307347915853 -17.440116352719812 #
coedge $-1 $532 $700 $536 $711 reversed $696 $-1 #
straight-curve $-1 -75.056001464888453 -21.12674414655806 -9.9506649764674364 0 1 0 I I #
point $-1 -75.056001464888453 -35.514307347915853 -9.9506649764674364 #
coedge $-1 $537 $536 $698 $796 reversed $523 $-1 #
edge $-1 $538 9.9506649764674364 $798 17.440116352719812 $707 $802 forward 7 unknown #
point $-1 -75.056001464888453 -48.992669238316388 -9.9506649764674364 #
vertex $-1 $540 $803 #
straight-curve $-1 75.056001464888453 -48.992669238316388 0 0 0 -1 I I #
plane-surface $-1 0 48.992669238316388 0 0 -1 0 0 0 -1 forward_v I I I I #
coedge $-1 $556 $718 $546 $717 forward $544 $-1 #
edge $-1 $720 4.2992627326970023 $563 9.810035055240732 $716 $804 forward 7 unknown #
coedge $-1 $716 $726 $548 $719 forward $544 $-1 #
edge $-1 $722 -29.361510740286572 $720 -9.900806255773059 $718 $805 forward 7 unknown #
vertex $-1 $719 $806 #
straight-curve $-1 0 29.531964753802875 11.35391162666587 -1 0 0 I I #
vertex $-1 $552 $807 #
straight-curve $-1 0 48.992669238316388 11.35391162666587 -1 0 0 I I #
point $-1 75.056001464888453 29.531964753802875 11.35391162666587 #
point $-1 75.056001464888453 48.992669238316388 11.35391162666587 #
coedge $-1 $718 $556 $559 $728 forward $544 $-1 #
straight-curve $-1 -75.056001464888453 19.631158498029816 16.864683949209599 0 1 0 I I #
edge $-1 $561 -16.864683949209599 $722 -11.35391162666587 $559 $808 forward 7 unknown #
point $-1 -75.056001464888453 48.992669238316388 16.864683949209599 #
point $-1 -75.056001464888453 29.531964753802875 16.864683949209599 #
straight-curve $-1 75.056001464888453 29.531964753802875 7.0546488939688672 0 0 -1 I I #
straight-curve $-1 75.056001464888453 48.992669238316388 0 0 0 -1 I I #
coedge $-1 $580 $579 $572 $734 forward $569 $-1 #
edge $-1 $735 92.837106926146291 $738 98.11283436062142 $733 $809 forward 7 unknown #
vertex $-1 $584 $810 #
straight-curve $-1 17.274539767773469 -35.514307347915853 17.440116352719812 1 0 0 I I #
edge $-1 $738 -20.346959871116759 $581 -9.9877350824814233 $580 $811 forward 7 unknown #
vertex $-1 $737 $812 #
straight-curve $-1 -49.392488319526066 -35.514307347915853 96.105956773317686 -0.82903756765294845 0 0.55919291073839883 I I #
point $-1 67.234414037927451 -35.514307347915853 17.440116352719812 #
point $-1 75.056001464888453 -25.155082559280515 12.164388918244683 #
straight-curve $-1 75.056001464888453 0 17.440116352719812 0 1 0 I I #
vertex $-1 $587 $813 #
point $-1 70.532259046721322 -32.554528836877182 12.105227200667718 #
vertex $-1 $591 $814 #
point $-1 70.532259046721322 -28.114861070319183 12.105227200667718 #
coedge $-1 $596 $748 $600 $751 reversed $416 $-1 #
coedge $-1 $747 $603 $598 $749 forward $416 $-1 #
edge $-1 $605 -98.112834360621406 $756 -92.837106926146291 $748 $815 forward 7 unknown #
straight-curve $-1 75.056001464888453 19.172739965167533 110.2772232788661 0 0 -1 I I #
edge $-1 $601 19.172739965167533 $756 29.531964753802871 $747 $816 forward 7 unknown #
point $-1 75.056001464888453 19.172739965167533 17.440116352719812 #
straight-curve $-1 75.056001464888453 12.176176179742601 12.16438891824469 0 1 0 I I #
point $-1 75.056001464888453 29.531964753802875 12.1643889182447 #
point $-1 75.056001464888453 19.172739965167533 12.164388918244683 #
vertex $-1 $749 $817 #
straight-curve $-1 17.274539767773469 29.531964753802871 17.440116352719812 -1 0 0 I I #
vertex $-1 $612 $818 #
point $-1 70.532259046721322 22.132518476206208 12.105227200667718 #
vertex $-1 $616 $819 #
point $-1 70.532259046721322 26.572186242764211 12.105227200667718 #
edge $-1 $763 30.471075506663269 $766 33.845662710246522 $621 $820 forward 7 unknown #
vertex $-1 $635 $821 #
straight-curve $-1 -100.47526070948729 -9.1317549969252756 17.440116352719812 -1 0 0 I I #
edge $-1 $766 1.3622240314697027 $632 14.176837899441445 $631 $822 forward 7 unknown #
vertex $-1 $765 $823 #
straight-curve $-1 -75.056001464888439 -9.1317549969252756 14.06552914913658 0.54463902268945019 0 0.83867057594974714 I I #
point $-1 -72.864518981484821 -9.1317549969252756 17.440116352719812 #
point $-1 -75.056001464888453 -21.946368864897018 14.065529149136559 #
straight-curve $-1 -75.056001464888453 0 17.440116352719812 0 -1 0 I I #
vertex $-1 $638 $824 #
point $-1 -72.849270135892169 -19.383446091302666 15.62751901621362 #
vertex $-1 $642 $825 #
point $-1 -72.849270135892169 -15.539061930911146 15.62751901621362 #
vertex $-1 $646 $826 #
point $-1 -72.849270135892169 -11.694677770519625 15.62751901621362 #
edge $-1 $778 30.471075506663269 $781 33.845662710246522 $651 $827 forward 7 unknown #
vertex $-1 $665 $828 #
straight-curve $-1 -100.47526070948729 23.391381053934083 17.440116352719812 -1 0 0 I I #
edge $-1 $781 -14.899343993959977 $662 -2.0847301259882354 $661 $829 forward 7 unknown #
vertex $-1 $780 $830 #
straight-curve $-1 -75.056001464888439 23.391381053934083 14.06552914913658 0.54463902268945019 0 0.83867057594974714 I I #
point $-1 -72.864518981484821 23.391381053934083 17.440116352719812 #
point $-1 -75.056001464888453 10.576767185962341 14.065529149136559 #
straight-curve $-1 -75.056001464888453 0 17.440116352719812 0 -1 0 I I #
vertex $-1 $668 $831 #
point $-1 -72.849270135892169 13.139689959556698 15.62751901621362 #
vertex $-1 $672 $832 #
point $-1 -72.849270135892169 16.984074119948211 15.62751901621362 #
vertex $-1 $676 $833 #
point $-1 -72.849270135892169 20.828458280339738 15.62751901621362 #
straight-curve $-1 -75.056001464888453 48.992669238316388 0 0 0 -1 I I #
point $-1 -75.056001464888453 -48.992669238316388 -17.440116352719812 #
straight-curve $-1 -75.056001464888453 0 -17.440116352719812 0 1 0 I I #
point $-1 -75.056001464888453 48.992669238316388 -17.440116352719812 #
edge $-1 $713 -75.056001464888453 $798 75.056001464888453 $710 $834 forward 7 unknown #
straight-curve $-1 75.056001464888453 0 -17.440116352719812 0 -1 0 I I #
vertex $-1 $701 $835 #
straight-curve $-1 -75.056001464888453 0 -17.440116352719812 0 1 0 I I #
point $-1 -75.056001464888453 -35.514307347915853 -17.440116352719812 #
straight-curve $-1 -75.056001464888453 -35.514307347915853 -6.8476953322968122 0 0 -1 I I #
straight-curve $-1 -75.056001464888453 -48.992669238316388 0 0 0 -1 I I #
point $-1 75.056001464888453 -48.992669238316388 -17.440116352719812 #
straight-curve $-1 -75.056001464888453 29.531964753802875 7.0546488939688672 0 0 1 I I #
straight-curve $-1 -75.056001464888453 19.631158498029816 11.35391162666587 0 -1 0 I I #
point $-1 -75.056001464888453 29.531964753802875 11.35391162666587 #
point $-1 -75.056001464888453 48.992669238316388 11.35391162666587 #
straight-curve $-1 -75.056001464888453 48.992669238316388 0 0 0 -1 I I #
straight-curve $-1 75.056001464888453 -35.514307347915853 110.2772232788661 0 0 -1 I I #
point $-1 75.056001464888453 -35.514307347915853 17.440116352719812 #
straight-curve $-1 75.056001464888453 -15.167347476799092 12.16438891824469 0 1 0 I I #
point $-1 75.056001464888453 -35.514307347915853 12.164388918244683 #
point $-1 69.144028568329972 -32.554528836877182 11.835382543753168 #
point $-1 69.144028568329972 -28.114861070319183 11.835382543753168 #
straight-curve $-1 75.056001464888453 29.531964753802871 110.2772232788661 0 0 1 I I #
straight-curve $-1 75.056001464888453 0 17.440116352719812 0 1 0 I I #
point $-1 75.056001464888453 29.531964753802871 17.440116352719812 #
point $-1 69.144028568329972 22.132518476206208 11.835382543753168 #
point $-1 69.144028568329972 26.572186242764211 11.835382543753168 #
straight-curve $-1 -75.056001464888453 -9.1317549969252756 47.911191859383081 0 0 -1 I I #
point $-1 -75.056001464888453 -9.1317549969252756 17.440116352719812 #
straight-curve $-1 -75.056001464888453 -7.7695309654555729 14.065529149136568 0 -1 0 I I #
point $-1 -75.056001464888453 -9.1317549969252756 14.065529149136559 #
point $-1 -72.702254359262028 -19.383446091302666 14.935864216894021 #
point $-1 -72.702254359262028 -15.539061930911146 14.935864216894021 #
point $-1 -72.702254359262028 -11.694677770519625 14.935864216894021 #
straight-curve $-1 -75.056001464888453 23.391381053934083 47.911191859383081 0 0 -1 I I #
point $-1 -75.056001464888453 23.391381053934083 17.440116352719812 #
straight-curve $-1 -75.056001464888453 8.4920370599741055 14.065529149136568 0 -1 0 I I #
point $-1 -75.056001464888453 23.391381053934083 14.065529149136559 #
point $-1 -72.702254359262028 13.139689959556698 14.935864216894021 #
point $-1 -72.702254359262028 16.984074119948211 14.935864216894021 #
point $-1 -72.702254359262028 20.828458280339738 14.935864216894021 #
straight-curve $-1 0 -48.992669238316388 -17.440116352719812 -1 0 0 I I #
point $-1 -75.056001464888453 -48.992669238316388 -17.440116352719812 #
End-of-ACIS-data 