500 0 4 0           
7 Unknown 11 ACIS 5.0 NT 24 Fri Mar 26 19:14:20 1999 
-1 9.9999999999999995e-007 1e-010 
body $-1 $4 $-1 $5 #
body $-1 $6 $-1 $7 #
body $-1 $8 $-1 $9 #
body $-1 $10 $-1 $11 #
lump $-1 $-1 $12 $0 #
transform $-1 1 0 0 0 1 0 0 0 1 41.787163914914395 18.260507298955542 5.6959385678241734 1 rotate no_reflect no_shear #
lump $-1 $-1 $13 $1 #
transform $-1 1 0 0 0 1 0 0 0 1 41.787163914914395 18.260507298955542 5.6959385678241734 1 rotate no_reflect no_shear #
lump $-1 $-1 $14 $2 #
transform $-1 1 0 0 0 1 0 0 0 1 41.787163914914395 18.260507298955542 5.6959385678241734 1 rotate no_reflect no_shear #
lump $-1 $-1 $15 $3 #
transform $-1 1 0 0 0 1 0 0 0 1 41.787163914914395 18.260507298955542 5.6959385678241734 1 rotate no_reflect no_shear #
shell $-1 $-1 $-1 $16 $-1 $4 #
shell $-1 $-1 $-1 $17 $-1 $6 #
shell $-1 $-1 $-1 $18 $-1 $8 #
shell $-1 $-1 $-1 $19 $-1 $10 #
face $-1 $20 $21 $12 $-1 $22 forward single #
face $-1 $23 $24 $13 $-1 $25 reversed single #
face $-1 $26 $27 $14 $-1 $28 forward single #
face $-1 $29 $30 $15 $-1 $31 forward single #
face $-1 $32 $33 $12 $-1 $34 reversed single #
loop $-1 $-1 $35 $16 #
plane-surface $-1 0 0 5.6959385678241734 0 0 1 1 0 0 forward_v I I I I #
face $-1 $36 $37 $13 $-1 $38 reversed single #
loop $-1 $-1 $39 $17 #
plane-surface $-1 -102.90955862430266 -13.922048922892149 59.180419047717265 0 1 0 -0.73135370988377701 0 0.68199835119979291 forward_v I I I I #
face $-1 $40 $41 $14 $-1 $42 forward single #
loop $-1 $43 $44 $18 #
cone-surface $-1 -39.770767872718402 -11.333529277339846 3.5865390041918164 0.73135370988377701 0 -0.68199835119979291 0.68199835119979291 0 0.73135370988377701 1 I I 0 1 1 forward I I I I #
face $-1 $45 $46 $15 $-1 $47 forward single #
loop $-1 $48 $49 $19 #
cone-surface $-1 -39.770767872718402 -7.4507498090113931 3.5865390041918164 0.73135370988377701 0 -0.68199835119979291 0.68199835119979291 0 0.73135370988377701 1 I I 0 1 1 forward I I I I #
face $-1 $50 $51 $12 $-1 $52 reversed single #
loop $-1 $-1 $53 $20 #
plane-surface $-1 0 0 -5.6959385678241734 0 0 1 1 0 0 forward_v I I I I #
coedge $-1 $54 $55 $56 $57 forward $21 $-1 #
face $-1 $58 $59 $13 $-1 $60 reversed single #
loop $-1 $-1 $61 $23 #
plane-surface $-1 -41.787163914914387 -9.3921395431756203 2.1828652651430644 -0.73135370988377701 0 0.68199835119979291 0.68199835119979291 0 0.73135370988377701 forward_v I I I I #
coedge $-1 $62 $63 $64 $65 reversed $24 $-1 #
face $-1 $-1 $66 $14 $-1 $67 forward single #
loop $-1 $68 $69 $26 #
cone-surface $-1 -39.026691862513147 -11.333529277339846 2.8926769163001111 0.73135370988377701 0 -0.68199835119979291 0.34099917559989645 0 0.36567685494188851 1 I I -0.70710678118654746 0.70710678118654746 0.5 forward I I I I #
loop $-1 $-1 $70 $18 #
coedge $-1 $44 $44 $71 $72 reversed $27 $-1 #
face $-1 $-1 $73 $15 $-1 $74 forward single #
loop $-1 $75 $76 $29 #
cone-surface $-1 -39.026691862513147 -7.4507498090113931 2.8926769163001111 0.73135370988377701 0 -0.68199835119979291 0.34099917559989645 0 0.36567685494188851 1 I I -0.70710678118654746 0.70710678118654746 0.5 forward I I I I #
loop $-1 $-1 $77 $19 #
coedge $-1 $49 $49 $78 $79 reversed $30 $-1 #
face $-1 $80 $81 $12 $-1 $82 reversed single #
loop $-1 $-1 $83 $32 #
plane-surface $-1 0 -18.260507298955542 0 0 1 0 0 0 1 forward_v I I I I #
coedge $-1 $84 $85 $86 $87 forward $33 $-1 #
coedge $-1 $88 $35 $89 $90 forward $21 $-1 #
coedge $-1 $35 $88 $91 $92 forward $21 $-1 #
coedge $-1 $93 $94 $35 $57 reversed $95 $-1 #
edge $-1 $96 -18.260507298955542 $97 18.260507298955542 $56 $98 forward 7 unknown #
face $-1 $99 $100 $13 $-1 $101 reversed single #
loop $-1 $-1 $102 $36 #
plane-surface $-1 -102.90955862430266 -4.8622301634590919 59.180419047717265 0 -1 0 0.73135370988377701 0 -0.68199835119979291 forward_v I I I I #
coedge $-1 $103 $104 $105 $106 reversed $37 $-1 #
coedge $-1 $63 $39 $107 $108 reversed $24 $-1 #
coedge $-1 $39 $62 $103 $109 reversed $24 $-1 #
coedge $-1 $105 $110 $39 $65 forward $111 $-1 #
edge $-1 $112 9.6676153972369363 $113 12.943609171102224 $64 $114 forward 7 unknown #
loop $-1 $-1 $71 $40 #
plane-surface $-1 -41.787163914914387 -9.3921395431756203 2.1828652651430644 -0.73135370988377701 0 0.68199835119979291 0.68199835119979291 0 0.73135370988377701 forward_v I I I I #
loop $-1 $-1 $115 $26 #
coedge $-1 $69 $69 $70 $116 reversed $41 $-1 #
coedge $-1 $70 $70 $69 $116 forward $43 $-1 #
coedge $-1 $71 $71 $44 $72 forward $66 $-1 #
edge $-1 $117 0 $117 6.2831853071796004 $71 $118 forward 7 unknown #
loop $-1 $-1 $78 $45 #
plane-surface $-1 -41.787163914914387 -9.3921395431756203 2.1828652651430644 -0.73135370988377701 0 0.68199835119979291 0.68199835119979291 0 0.73135370988377701 forward_v I I I I #
loop $-1 $-1 $119 $29 #
coedge $-1 $76 $76 $77 $120 reversed $46 $-1 #
coedge $-1 $77 $77 $76 $120 forward $48 $-1 #
coedge $-1 $78 $78 $49 $79 forward $73 $-1 #
edge $-1 $121 0 $121 6.2831853071796004 $78 $122 forward 7 unknown #
face $-1 $123 $124 $12 $-1 $125 reversed single #
loop $-1 $-1 $126 $50 #
plane-surface $-1 -41.787163914914395 0 0 1 0 0 0 0 -1 forward_v I I I I #
coedge $-1 $127 $91 $128 $129 forward $51 $-1 #
coedge $-1 $130 $53 $127 $131 forward $33 $-1 #
coedge $-1 $53 $130 $132 $133 forward $33 $-1 #
coedge $-1 $94 $93 $53 $87 reversed $95 $-1 #
edge $-1 $134 -18.260507298955542 $135 18.260507298955542 $86 $136 forward 7 unknown #
coedge $-1 $55 $54 $137 $138 forward $21 $-1 #
coedge $-1 $139 $140 $54 $90 reversed $124 $-1 #
edge $-1 $97 -41.787163914914395 $141 41.787163914914395 $89 $142 forward 7 unknown #
coedge $-1 $83 $143 $55 $92 reversed $51 $-1 #
edge $-1 $144 -41.787163914914395 $96 41.787163914914395 $91 $145 forward 7 unknown #
coedge $-1 $86 $56 $143 $146 forward $95 $-1 #
coedge $-1 $56 $86 $139 $147 reversed $95 $-1 #
loop $-1 $-1 $93 $123 #
vertex $-1 $57 $148 #
vertex $-1 $57 $149 #
straight-curve $-1 41.787163914914395 0 5.6959385678241734 0 1 0 I I #
face $-1 $-1 $111 $13 $-1 $150 forward single #
loop $-1 $-1 $151 $58 #
plane-surface $-1 -41.787163914914395 0 0 1 0 0 0 0 -1 forward_v I I I I #
coedge $-1 $152 $153 $154 $155 reversed $59 $-1 #
coedge $-1 $156 $61 $63 $109 forward $37 $-1 #
coedge $-1 $61 $156 $152 $157 forward $37 $-1 #
coedge $-1 $154 $64 $61 $106 forward $111 $-1 #
edge $-1 $113 -9.2259791513043385 $158 -0.16616039187128173 $105 $159 forward 7 unknown #
coedge $-1 $160 $161 $62 $108 forward $100 $-1 #
edge $-1 $162 -27.407344258715575 $112 -23.894270956034461 $107 $163 forward 7 unknown #
edge $-1 $113 -4.8035215453263911 $162 1.0367256691888158e-014 $63 $164 forward 7 unknown #
coedge $-1 $64 $154 $160 $165 forward $111 $-1 #
loop $-1 $-1 $154 $99 #
vertex $-1 $108 $166 #
vertex $-1 $65 $167 #
straight-curve $-1 -51.454779312151331 -13.922048922892149 5.6959385678241716 1 0 0 I I #
coedge $-1 $115 $115 $-1 $168 reversed $68 $-1 #
edge $-1 $169 0 $169 6.2831853071796004 $69 $170 forward 7 unknown #
vertex $-1 $72 $171 #
ellipse-curve $-1 -40.149167027981754 -11.333529277339846 3.9394019164836136 -0.73135370988377701 0 0.68199835119979291 0.68199835119979291 0 0.73135370988377701 1 I I #
coedge $-1 $119 $119 $-1 $172 reversed $75 $-1 #
edge $-1 $173 0 $173 6.2831853071796004 $76 $174 forward 7 unknown #
vertex $-1 $79 $175 #
ellipse-curve $-1 -40.149167027981754 -7.4507498090113931 3.9394019164836136 -0.73135370988377701 0 0.68199835119979291 0.68199835119979291 0 0.73135370988377701 1 I I #
face $-1 $-1 $95 $12 $-1 $176 reversed single #
loop $-1 $-1 $139 $80 #
plane-surface $-1 0 18.260507298955542 0 0 -1 0 0 0 -1 forward_v I I I I #
coedge $-1 $177 $137 $140 $178 forward $81 $-1 #
coedge $-1 $143 $83 $84 $131 reversed $51 $-1 #
coedge $-1 $137 $177 $83 $129 reversed $81 $-1 #
edge $-1 $144 -5.6959385678241734 $179 5.6959385678241734 $128 $180 forward 7 unknown #
coedge $-1 $85 $84 $177 $181 forward $33 $-1 #
edge $-1 $135 -41.787163914914395 $179 41.787163914914395 $127 $182 forward 7 unknown #
coedge $-1 $140 $139 $85 $133 reversed $124 $-1 #
edge $-1 $183 -41.787163914914395 $134 41.787163914914395 $132 $184 forward 7 unknown #
vertex $-1 $87 $185 #
vertex $-1 $146 $186 #
straight-curve $-1 41.787163914914395 0 -5.6959385678241734 0 -1 0 I I #
coedge $-1 $126 $128 $88 $138 reversed $81 $-1 #
edge $-1 $141 -18.260507298955542 $144 18.260507298955542 $137 $187 forward 7 unknown #
coedge $-1 $132 $89 $94 $147 forward $124 $-1 #
coedge $-1 $89 $132 $126 $178 reversed $124 $-1 #
vertex $-1 $90 $188 #
straight-curve $-1 0 18.260507298955542 5.6959385678241734 -1 0 0 I I #
coedge $-1 $91 $127 $93 $146 reversed $51 $-1 #
vertex $-1 $138 $189 #
straight-curve $-1 0 -18.260507298955542 5.6959385678241734 1 0 0 I I #
edge $-1 $96 -5.6959385678241734 $135 5.6959385678241734 $93 $190 forward 7 unknown #
edge $-1 $97 -5.6959385678241734 $134 5.6959385678241734 $94 $191 forward 7 unknown #
point $-1 41.787163914914395 -18.260507298955542 5.6959385678241734 #
point $-1 41.787163914914395 18.260507298955542 5.6959385678241734 #
plane-surface $-1 0 0 5.6959385678241734 0 0 1 1 0 0 forward_v I I I I #
coedge $-1 $161 $160 $153 $192 forward $100 $-1 #
coedge $-1 $153 $102 $104 $157 reversed $59 $-1 #
coedge $-1 $102 $152 $151 $192 reversed $59 $-1 #
coedge $-1 $110 $105 $102 $155 forward $111 $-1 #
edge $-1 $158 -12.943609171102224 $193 -9.6676153972369363 $154 $194 forward 7 unknown #
coedge $-1 $104 $103 $161 $195 reversed $37 $-1 #
edge $-1 $196 -1.0367256691888158e-014 $158 4.8035215453263911 $152 $197 forward 7 unknown #
vertex $-1 $106 $198 #
straight-curve $-1 -38.511170141049107 -4.6960697715878101 5.6959385678241734 0 1 0 I I #
coedge $-1 $151 $107 $110 $165 reversed $100 $-1 #
coedge $-1 $107 $151 $156 $195 forward $100 $-1 #
vertex $-1 $108 $199 #
straight-curve $-1 -41.787163914914395 -13.922048922892149 29.590209523858633 0 0 1 I I #
straight-curve $-1 -41.787163914914387 -13.922048922892149 2.1828652651430644 -0.68199835119979291 0 -0.73135370988377701 I I #
edge $-1 $193 4.8622301634590919 $112 13.922048922892149 $160 $200 forward 7 unknown #
point $-1 -41.787163914914395 -13.922048922892149 5.6959385678241734 #
point $-1 -38.511170141049107 -13.922048922892149 5.6959385678241734 #
edge $-1 $201 1 $201 0 $115 $-1 forward 7 unknown #
vertex $-1 $116 $202 #
ellipse-curve $-1 -39.392368717455035 -11.333529277339846 3.2336760919000076 -0.73135370988377701 0 0.68199835119979291 0.68199835119979291 0 0.73135370988377701 1 I I #
point $-1 -39.467168676781966 -11.333529277339846 4.6707556263674022 #
edge $-1 $203 1 $203 0 $119 $-1 forward 7 unknown #
vertex $-1 $120 $204 #
ellipse-curve $-1 -39.392368717455035 -7.4507498090113931 3.2336760919000076 -0.73135370988377701 0 0.68199835119979291 0.68199835119979291 0 0.73135370988377701 1 I I #
point $-1 -39.467168676781966 -7.4507498090113931 4.6707556263674022 #
plane-surface $-1 41.787163914914395 0 0 -1 0 0 0 0 1 forward_v I I I I #
coedge $-1 $128 $126 $130 $181 reversed $81 $-1 #
edge $-1 $141 -5.6959385678241734 $183 5.6959385678241734 $140 $205 forward 7 unknown #
vertex $-1 $181 $206 #
straight-curve $-1 -41.787163914914395 -18.260507298955542 0 0 0 -1 I I #
edge $-1 $179 -18.260507298955542 $183 18.260507298955542 $177 $207 forward 7 unknown #
straight-curve $-1 0 -18.260507298955542 -5.6959385678241734 -1 0 0 I I #
vertex $-1 $133 $208 #
straight-curve $-1 0 18.260507298955542 -5.6959385678241734 1 0 0 I I #
point $-1 41.787163914914395 18.260507298955542 -5.6959385678241734 #
point $-1 41.787163914914395 -18.260507298955542 -5.6959385678241734 #
straight-curve $-1 -41.787163914914395 0 5.6959385678241734 0 -1 0 I I #
point $-1 -41.787163914914395 18.260507298955542 5.6959385678241734 #
point $-1 -41.787163914914395 -18.260507298955542 5.6959385678241734 #
straight-curve $-1 41.787163914914395 -18.260507298955542 0 0 0 -1 I I #
straight-curve $-1 41.787163914914395 18.260507298955542 0 0 0 -1 I I #
edge $-1 $193 23.894270956034461 $196 27.407344258715575 $151 $209 forward 7 unknown #
vertex $-1 $165 $210 #
straight-curve $-1 -51.454779312151331 -4.8622301634590919 5.6959385678241716 -1 0 0 I I #
edge $-1 $196 0.16616039187128173 $162 9.2259791513043385 $161 $211 forward 7 unknown #
vertex $-1 $195 $212 #
straight-curve $-1 -41.787163914914387 -4.8622301634590919 2.1828652651430644 0.68199835119979291 0 0.73135370988377701 I I #
point $-1 -38.511170141049107 -4.8622301634590919 5.6959385678241734 #
point $-1 -41.787163914914395 -13.922048922892149 2.1828652651430569 #
straight-curve $-1 -41.787163914914395 0 5.6959385678241734 0 -1 0 I I #
vertex $-1 $168 $213 #
point $-1 -38.710370366255241 -11.333529277339846 3.9650298017837846 #
vertex $-1 $172 $214 #
point $-1 -38.710370366255241 -7.4507498090113931 3.9650298017837846 #
straight-curve $-1 -41.787163914914395 18.260507298955542 0 0 0 -1 I I #
point $-1 -41.787163914914395 -18.260507298955542 -5.6959385678241734 #
straight-curve $-1 -41.787163914914395 0 -5.6959385678241734 0 1 0 I I #
point $-1 -41.787163914914395 18.260507298955542 -5.6959385678241734 #
straight-curve $-1 -41.787163914914395 -4.8622301634590919 29.590209523858633 0 0 -1 I I #
point $-1 -41.787163914914395 -4.8622301634590919 5.6959385678241734 #
straight-curve $-1 -41.787163914914395 -4.6960697715878101 2.1828652651430529 0 -1 0 I I #
point $-1 -41.787163914914395 -4.8622301634590919 2.1828652651430569 #
point $-1 -38.661015007571258 -11.333529277339846 2.5516777407002147 #
point $-1 -38.661015007571258 -7.4507498090113931 2.5516777407002147 #
End-of-ACIS-data 