500 0 5 0           
7 Unknown 11 ACIS 5.0 NT 24 Thu Mar 25 20:14:37 1999 
-1 9.9999999999999995e-007 1e-010 
body $-1 $5 $-1 $6 #
body $-1 $7 $-1 $8 #
body $-1 $9 $-1 $10 #
body $-1 $11 $-1 $12 #
body $-1 $13 $-1 $14 #
lump $-1 $-1 $15 $0 #
transform $-1 1 0 0 0 1 0 0 0 1 63.749504074221015 35.803186090477219 14.194525890810006 1 rotate no_reflect no_shear #
lump $-1 $-1 $16 $1 #
transform $-1 1 0 0 0 1 0 0 0 1 63.749504074221015 35.803186090477219 14.194525890810006 1 rotate no_reflect no_shear #
lump $-1 $-1 $17 $2 #
transform $-1 1 0 0 0 1 0 0 0 1 63.749504074221015 35.803186090477219 14.194525890810006 1 rotate no_reflect no_shear #
lump $-1 $-1 $18 $3 #
transform $-1 1 0 0 0 1 0 0 0 1 63.749504074221015 35.803186090477219 14.194525890810006 1 rotate no_reflect no_shear #
lump $-1 $-1 $19 $4 #
transform $-1 1 0 0 0 1 0 0 0 1 63.749504074221015 35.803186090477219 14.194525890810006 1 rotate no_reflect no_shear #
shell $-1 $-1 $-1 $20 $-1 $5 #
shell $-1 $-1 $-1 $21 $-1 $7 #
shell $-1 $-1 $-1 $22 $-1 $9 #
shell $-1 $-1 $-1 $23 $-1 $11 #
shell $-1 $-1 $-1 $24 $-1 $13 #
face $-1 $25 $26 $15 $-1 $27 forward single #
face $-1 $28 $29 $16 $-1 $30 forward single #
face $-1 $31 $32 $17 $-1 $33 reversed single #
face $-1 $34 $35 $18 $-1 $36 forward single #
face $-1 $37 $38 $19 $-1 $39 forward single #
face $-1 $40 $41 $15 $-1 $42 reversed single #
loop $-1 $-1 $43 $20 #
plane-surface $-1 0 0 14.194525890810006 0 0 1 1 0 0 forward_v I I I I #
face $-1 $44 $45 $16 $-1 $46 reversed single #
loop $-1 $-1 $47 $21 #
plane-surface $-1 0 -35.803186090477219 0 0 1 0 0 0 1 forward_v I I I I #
face $-1 $48 $49 $17 $-1 $50 reversed single #
loop $-1 $-1 $51 $22 #
plane-surface $-1 48.034381916604907 31.790171072189885 182.6673375598339 0 -1 0 -0.64278761758704617 0 -0.76604443648966558 forward_v I I I I #
face $-1 $52 $53 $18 $-1 $54 forward single #
loop $-1 $55 $56 $23 #
cone-surface $-1 56.521138113440095 25.718356610502859 7.9235314372633212 -0.64278761758704617 0 -0.76604443648966558 0.76604443648966558 0 -0.64278761758704617 1 I I 0 1 1 forward I I I I #
face $-1 $57 $58 $19 $-1 $59 forward single #
loop $-1 $60 $61 $24 #
cone-surface $-1 56.521138113440095 29.361445287515075 7.9235314372633212 -0.64278761758704617 0 -0.76604443648966558 0.76604443648966558 0 -0.64278761758704617 1 I I 0 1 1 forward I I I I #
face $-1 $62 $63 $15 $-1 $64 reversed single #
loop $-1 $-1 $65 $25 #
plane-surface $-1 0 0 -14.194525890810006 0 0 1 1 0 0 forward_v I I I I #
coedge $-1 $66 $67 $68 $69 forward $26 $-1 #
face $-1 $70 $71 $16 $-1 $72 forward single #
loop $-1 $-1 $73 $28 #
plane-surface $-1 -63.749504074221015 0 0 1 0 0 0 0 -1 forward_v I I I I #
coedge $-1 $74 $75 $76 $77 forward $29 $-1 #
face $-1 $78 $79 $17 $-1 $80 reversed single #
loop $-1 $-1 $81 $31 #
plane-surface $-1 -33.920401775843537 27.539900949008967 84.99743170976933 0.64278761758704617 0 0.76604443648966558 0.76604443648966558 0 -0.64278761758704617 forward_v I I I I #
coedge $-1 $82 $83 $84 $85 reversed $32 $-1 #
face $-1 $-1 $86 $18 $-1 $87 forward single #
loop $-1 $88 $89 $34 #
cone-surface $-1 55.616523464634618 25.718356610502859 6.8454537022163393 -0.64278761758704617 0 -0.76604443648966558 0.38302221824483279 0 -0.32139380879352308 1 I I -0.70710678118654746 0.70710678118654746 0.5 forward I I I I #
loop $-1 $-1 $90 $23 #
coedge $-1 $56 $56 $91 $92 reversed $35 $-1 #
face $-1 $-1 $93 $19 $-1 $94 forward single #
loop $-1 $95 $96 $37 #
cone-surface $-1 55.616523464634618 29.361445287515075 6.8454537022163393 -0.64278761758704617 0 -0.76604443648966558 0.38302221824483279 0 -0.32139380879352308 1 I I -0.70710678118654746 0.70710678118654746 0.5 forward I I I I #
loop $-1 $-1 $97 $24 #
coedge $-1 $61 $61 $98 $99 reversed $38 $-1 #
face $-1 $100 $101 $15 $-1 $102 reversed single #
loop $-1 $-1 $103 $40 #
plane-surface $-1 0 -35.803186090477219 0 0 1 0 0 0 1 forward_v I I I I #
coedge $-1 $104 $105 $106 $107 forward $41 $-1 #
coedge $-1 $108 $43 $109 $110 forward $26 $-1 #
coedge $-1 $43 $108 $111 $112 forward $26 $-1 #
coedge $-1 $113 $114 $43 $69 reversed $115 $-1 #
edge $-1 $116 -35.803186090477219 $117 35.803186090477219 $68 $118 forward 7 unknown #
face $-1 $119 $120 $16 $-1 $121 reversed single #
loop $-1 $-1 $122 $44 #
plane-surface $-1 0 -41.714359009665671 -8.2052085357427131 0 0 1 1 0 0 forward_v I I I I #
coedge $-1 $123 $124 $75 $125 forward $45 $-1 #
coedge $-1 $126 $47 $127 $128 reversed $29 $-1 #
coedge $-1 $47 $126 $73 $125 reversed $29 $-1 #
coedge $-1 $129 $122 $47 $77 reversed $71 $-1 #
edge $-1 $130 -63.749504074221015 $131 63.749504074221015 $76 $132 forward 7 unknown #
face $-1 $133 $134 $17 $-1 $135 reversed single #
loop $-1 $-1 $136 $48 #
plane-surface $-1 48.034381916604907 23.289630825828048 182.6673375598339 0 1 0 0.64278761758704617 0 0.76604443648966558 forward_v I I I I #
coedge $-1 $137 $138 $139 $140 reversed $49 $-1 #
coedge $-1 $83 $51 $141 $142 reversed $32 $-1 #
coedge $-1 $51 $82 $137 $143 reversed $32 $-1 #
coedge $-1 $139 $144 $51 $85 forward $145 $-1 #
edge $-1 $146 -39.732313115918558 $147 -26.442022874380616 $84 $148 forward 7 unknown #
loop $-1 $-1 $91 $52 #
plane-surface $-1 -33.920401775843537 27.539900949008967 84.99743170976933 0.64278761758704617 0 0.76604443648966558 0.76604443648966558 0 -0.64278761758704617 forward_v I I I I #
loop $-1 $-1 $149 $34 #
coedge $-1 $89 $89 $90 $150 reversed $53 $-1 #
coedge $-1 $90 $90 $89 $150 forward $55 $-1 #
coedge $-1 $91 $91 $56 $92 forward $86 $-1 #
edge $-1 $151 0 $151 6.2831853071796004 $91 $152 forward 7 unknown #
loop $-1 $-1 $98 $57 #
plane-surface $-1 -33.920401775843537 27.539900949008967 84.99743170976933 0.64278761758704617 0 0.76604443648966558 0.76604443648966558 0 -0.64278761758704617 forward_v I I I I #
loop $-1 $-1 $153 $37 #
coedge $-1 $96 $96 $97 $154 reversed $58 $-1 #
coedge $-1 $97 $97 $96 $154 forward $60 $-1 #
coedge $-1 $98 $98 $61 $99 forward $93 $-1 #
edge $-1 $155 0 $155 6.2831853071796004 $98 $156 forward 7 unknown #
face $-1 $157 $158 $15 $-1 $159 reversed single #
loop $-1 $-1 $160 $62 #
plane-surface $-1 -63.749504074221015 0 0 1 0 0 0 0 -1 forward_v I I I I #
coedge $-1 $161 $111 $162 $163 forward $63 $-1 #
coedge $-1 $164 $65 $161 $165 forward $41 $-1 #
coedge $-1 $65 $164 $166 $167 forward $41 $-1 #
coedge $-1 $114 $113 $65 $107 reversed $115 $-1 #
edge $-1 $168 -35.803186090477219 $169 35.803186090477219 $106 $170 forward 7 unknown #
coedge $-1 $67 $66 $171 $172 forward $26 $-1 #
coedge $-1 $173 $174 $66 $110 reversed $158 $-1 #
edge $-1 $117 -63.749504074221015 $175 63.749504074221015 $109 $176 forward 7 unknown #
coedge $-1 $103 $177 $67 $112 reversed $63 $-1 #
edge $-1 $178 -63.749504074221015 $116 63.749504074221015 $111 $179 forward 7 unknown #
coedge $-1 $106 $68 $177 $180 forward $115 $-1 #
coedge $-1 $68 $106 $173 $181 reversed $115 $-1 #
loop $-1 $-1 $113 $157 #
vertex $-1 $69 $182 #
vertex $-1 $69 $183 #
straight-curve $-1 63.749504074221015 0 14.194525890810006 0 1 0 I I #
face $-1 $184 $185 $16 $-1 $186 reversed single #
loop $-1 $-1 $187 $70 #
plane-surface $-1 0 -41.714359009665671 -11.205208535742713 0 0 1 1 0 0 forward_v I I I I #
coedge $-1 $76 $188 $189 $190 forward $71 $-1 #
coedge $-1 $191 $73 $192 $193 reversed $45 $-1 #
coedge $-1 $73 $191 $129 $194 reversed $45 $-1 #
edge $-1 $130 8.2052085357427131 $195 11.205208535742713 $73 $196 forward 7 unknown #
coedge $-1 $75 $74 $197 $198 forward $29 $-1 #
coedge $-1 $189 $199 $74 $128 forward $200 $-1 #
edge $-1 $201 -11.205208535742713 $131 -8.2052085357427131 $127 $202 forward 7 unknown #
coedge $-1 $188 $76 $124 $194 forward $71 $-1 #
vertex $-1 $125 $203 #
vertex $-1 $190 $204 #
straight-curve $-1 0 -35.803186090477219 -8.2052085357427131 1 0 0 I I #
face $-1 $-1 $145 $17 $-1 $205 forward single #
loop $-1 $-1 $206 $78 #
plane-surface $-1 63.749504074221015 0 0 -1 0 0 0 0 1 forward_v I I I I #
coedge $-1 $207 $208 $209 $210 reversed $79 $-1 #
coedge $-1 $211 $81 $83 $143 forward $49 $-1 #
coedge $-1 $81 $211 $207 $212 forward $49 $-1 #
coedge $-1 $209 $84 $81 $140 forward $145 $-1 #
edge $-1 $147 -18.020220597685402 $213 -9.519680351323565 $139 $214 forward 7 unknown #
coedge $-1 $215 $216 $82 $142 forward $134 $-1 #
edge $-1 $217 -88.291020762596062 $146 -77.139142889106949 $141 $218 forward 7 unknown #
edge $-1 $147 110.14976623965723 $217 127.49900814844203 $83 $219 forward 7 unknown #
coedge $-1 $84 $209 $215 $220 forward $145 $-1 #
loop $-1 $-1 $209 $133 #
vertex $-1 $142 $221 #
vertex $-1 $85 $222 #
straight-curve $-1 24.017190958302454 31.790171072189885 14.194525890810013 -1 0 0 I I #
coedge $-1 $149 $149 $-1 $223 reversed $88 $-1 #
edge $-1 $224 0 $224 6.2831853071796004 $89 $225 forward 7 unknown #
vertex $-1 $92 $226 #
ellipse-curve $-1 57.104358953452042 25.718356610502859 8.61858695406546 0.64278761758704617 0 0.76604443648966558 0.76604443648966558 0 -0.64278761758704617 1 I I #
coedge $-1 $153 $153 $-1 $227 reversed $95 $-1 #
edge $-1 $228 0 $228 6.2831853071796004 $96 $229 forward 7 unknown #
vertex $-1 $99 $230 #
ellipse-curve $-1 57.104358953452042 29.361445287515075 8.61858695406546 0.64278761758704617 0 0.76604443648966558 0.76604443648966558 0 -0.64278761758704617 1 I I #
face $-1 $-1 $115 $15 $-1 $231 reversed single #
loop $-1 $-1 $173 $100 #
plane-surface $-1 0 35.803186090477219 0 0 -1 0 0 0 -1 forward_v I I I I #
coedge $-1 $232 $171 $174 $233 forward $101 $-1 #
coedge $-1 $177 $103 $104 $165 reversed $63 $-1 #
coedge $-1 $171 $232 $103 $163 reversed $101 $-1 #
edge $-1 $178 -14.194525890810006 $234 14.194525890810006 $162 $235 forward 7 unknown #
coedge $-1 $105 $104 $232 $236 forward $41 $-1 #
edge $-1 $169 -63.749504074221015 $234 63.749504074221015 $161 $237 forward 7 unknown #
coedge $-1 $174 $173 $105 $167 reversed $158 $-1 #
edge $-1 $238 -63.749504074221015 $168 63.749504074221015 $166 $239 forward 7 unknown #
vertex $-1 $107 $240 #
vertex $-1 $180 $241 #
straight-curve $-1 63.749504074221015 0 -14.194525890810006 0 -1 0 I I #
coedge $-1 $160 $162 $108 $172 reversed $101 $-1 #
edge $-1 $175 -35.803186090477219 $178 35.803186090477219 $171 $242 forward 7 unknown #
coedge $-1 $166 $109 $114 $181 forward $158 $-1 #
coedge $-1 $109 $166 $160 $233 reversed $158 $-1 #
vertex $-1 $110 $243 #
straight-curve $-1 0 35.803186090477219 14.194525890810006 -1 0 0 I I #
coedge $-1 $111 $161 $113 $180 reversed $63 $-1 #
vertex $-1 $172 $244 #
straight-curve $-1 0 -35.803186090477219 14.194525890810006 1 0 0 I I #
edge $-1 $116 -14.194525890810006 $169 14.194525890810006 $113 $245 forward 7 unknown #
edge $-1 $117 -14.194525890810006 $168 14.194525890810006 $114 $246 forward 7 unknown #
point $-1 63.749504074221015 -35.803186090477219 14.194525890810006 #
point $-1 63.749504074221015 35.803186090477219 14.194525890810006 #
face $-1 $-1 $200 $16 $-1 $247 reversed single #
loop $-1 $-1 $248 $119 #
plane-surface $-1 0 -47.625531928854123 -9.7052085357427131 0 1 0 0 0 1 forward_v I I I I #
coedge $-1 $249 $197 $199 $250 forward $120 $-1 #
coedge $-1 $122 $129 $251 $252 forward $71 $-1 #
coedge $-1 $253 $127 $122 $190 reversed $200 $-1 #
edge $-1 $254 -5.9111729191884521 $131 5.9111729191884521 $189 $255 forward 7 unknown #
coedge $-1 $124 $123 $248 $256 reversed $45 $-1 #
coedge $-1 $197 $249 $123 $193 forward $120 $-1 #
edge $-1 $257 -5.9111729191884521 $195 5.9111729191884521 $123 $258 forward 7 unknown #
edge $-1 $130 -5.9111729191884521 $259 5.9111729191884521 $124 $260 forward 7 unknown #
vertex $-1 $125 $261 #
straight-curve $-1 -63.749504074221015 -35.803186090477219 0 0 0 -1 I I #
coedge $-1 $187 $192 $126 $198 reversed $120 $-1 #
edge $-1 $201 -63.749504074221015 $195 63.749504074221015 $197 $262 forward 7 unknown #
coedge $-1 $127 $253 $187 $250 reversed $200 $-1 #
loop $-1 $-1 $127 $184 #
vertex $-1 $128 $263 #
straight-curve $-1 63.749504074221015 -35.803186090477219 0 0 0 1 I I #
point $-1 -63.749504074221015 -35.803186090477219 -8.2052085357427131 #
point $-1 63.749504074221015 -35.803186090477219 -8.2052085357427131 #
plane-surface $-1 0 0 14.194525890810006 0 0 1 1 0 0 forward_v I I I I #
coedge $-1 $216 $215 $208 $264 forward $134 $-1 #
coedge $-1 $208 $136 $138 $212 reversed $79 $-1 #
coedge $-1 $136 $207 $206 $264 reversed $79 $-1 #
coedge $-1 $144 $139 $136 $210 forward $145 $-1 #
edge $-1 $213 26.442022874380616 $265 39.732313115918558 $209 $266 forward 7 unknown #
coedge $-1 $138 $137 $216 $267 reversed $49 $-1 #
edge $-1 $268 -127.49900814844203 $213 -110.14976623965723 $207 $269 forward 7 unknown #
vertex $-1 $140 $270 #
straight-curve $-1 50.459213832683076 13.769950474504483 14.194525890810013 0 -1 0 I I #
coedge $-1 $206 $141 $144 $220 reversed $134 $-1 #
coedge $-1 $141 $206 $211 $267 forward $134 $-1 #
vertex $-1 $142 $271 #
straight-curve $-1 63.749504074221015 31.790171072189885 91.333668779916948 0 0 1 I I #
straight-curve $-1 -33.920401775843537 31.790171072189885 84.99743170976933 0.76604443648966558 0 -0.64278761758704617 I I #
edge $-1 $265 23.289630825828048 $146 31.790171072189885 $215 $272 forward 7 unknown #
point $-1 63.749504074221015 31.790171072189885 14.194525890810006 #
point $-1 50.459213832683069 31.790171072189885 14.194525890810013 #
edge $-1 $273 1 $273 0 $149 $-1 forward 7 unknown #
vertex $-1 $150 $274 #
ellipse-curve $-1 55.937917273428141 25.718356610502859 7.2284759204611717 0.64278761758704617 0 0.76604443648966558 0.76604443648966558 0 -0.64278761758704617 1 I I #
point $-1 57.870403389941714 25.718356610502859 7.9757993364784241 #
edge $-1 $275 1 $275 0 $153 $-1 forward 7 unknown #
vertex $-1 $154 $276 #
ellipse-curve $-1 55.937917273428141 29.361445287515075 7.2284759204611717 0.64278761758704617 0 0.76604443648966558 0.76604443648966558 0 -0.64278761758704617 1 I I #
point $-1 57.870403389941714 29.361445287515075 7.9757993364784241 #
plane-surface $-1 63.749504074221015 0 0 -1 0 0 0 0 1 forward_v I I I I #
coedge $-1 $162 $160 $164 $236 reversed $101 $-1 #
edge $-1 $175 -14.194525890810006 $238 14.194525890810006 $174 $277 forward 7 unknown #
vertex $-1 $236 $278 #
straight-curve $-1 -63.749504074221015 -35.803186090477219 0 0 0 -1 I I #
edge $-1 $234 -35.803186090477219 $238 35.803186090477219 $232 $279 forward 7 unknown #
straight-curve $-1 0 -35.803186090477219 -14.194525890810006 -1 0 0 I I #
vertex $-1 $167 $280 #
straight-curve $-1 0 35.803186090477219 -14.194525890810006 1 0 0 I I #
point $-1 63.749504074221015 35.803186090477219 -14.194525890810006 #
point $-1 63.749504074221015 -35.803186090477219 -14.194525890810006 #
straight-curve $-1 -63.749504074221015 0 14.194525890810006 0 -1 0 I I #
point $-1 -63.749504074221015 35.803186090477219 14.194525890810006 #
point $-1 -63.749504074221015 -35.803186090477219 14.194525890810006 #
straight-curve $-1 63.749504074221015 -35.803186090477219 0 0 0 -1 I I #
straight-curve $-1 63.749504074221015 35.803186090477219 0 0 0 -1 I I #
plane-surface $-1 63.749504074221015 0 0 -1 0 0 0 0 1 forward_v I I I I #
coedge $-1 $281 $251 $191 $256 forward $185 $-1 #
coedge $-1 $192 $187 $281 $282 forward $120 $-1 #
edge $-1 $201 -5.9111729191884521 $283 5.9111729191884521 $199 $284 forward 7 unknown #
coedge $-1 $248 $285 $188 $252 reversed $185 $-1 #
edge $-1 $259 -63.749504074221015 $254 63.749504074221015 $251 $286 forward 7 unknown #
coedge $-1 $199 $189 $285 $287 forward $200 $-1 #
vertex $-1 $190 $288 #
straight-curve $-1 63.749504074221015 -41.714359009665671 -8.2052085357427131 0 1 0 I I #
edge $-1 $259 -1.5 $257 1.5 $191 $289 forward 7 unknown #
vertex $-1 $193 $290 #
straight-curve $-1 -63.749504074221015 -41.714359009665671 -11.205208535742713 0 1 0 I I #
vertex $-1 $194 $291 #
straight-curve $-1 -63.749504074221015 -41.714359009665671 -8.2052085357427131 0 -1 0 I I #
point $-1 -63.749504074221015 -35.803186090477219 -11.205208535742713 #
straight-curve $-1 0 -35.803186090477219 -11.205208535742713 -1 0 0 I I #
point $-1 63.749504074221015 -35.803186090477219 -11.205208535742713 #
edge $-1 $265 77.139142889106949 $268 88.291020762596062 $206 $292 forward 7 unknown #
vertex $-1 $220 $293 #
straight-curve $-1 24.017190958302454 23.289630825828048 14.194525890810013 1 0 0 I I #
edge $-1 $268 9.519680351323565 $217 18.020220597685402 $216 $294 forward 7 unknown #
vertex $-1 $267 $295 #
straight-curve $-1 -33.920401775843537 23.289630825828048 84.99743170976933 -0.76604443648966558 0 0.64278761758704617 I I #
point $-1 50.459213832683069 23.289630825828048 14.194525890810013 #
point $-1 63.749504074221015 31.790171072189885 3.0426480173208859 #
straight-curve $-1 63.749504074221015 0 14.194525890810006 0 1 0 I I #
vertex $-1 $223 $296 #
point $-1 56.703961709917806 25.718356610502859 6.585688302874126 #
vertex $-1 $227 $297 #
point $-1 56.703961709917806 29.361445287515075 6.585688302874126 #
straight-curve $-1 -63.749504074221015 35.803186090477219 0 0 0 -1 I I #
point $-1 -63.749504074221015 -35.803186090477219 -14.194525890810006 #
straight-curve $-1 -63.749504074221015 0 -14.194525890810006 0 1 0 I I #
point $-1 -63.749504074221015 35.803186090477219 -14.194525890810006 #
coedge $-1 $285 $248 $249 $282 reversed $185 $-1 #
edge $-1 $283 -63.749504074221015 $257 63.749504074221015 $281 $298 forward 7 unknown #
vertex $-1 $287 $299 #
straight-curve $-1 63.749504074221015 -41.714359009665671 -11.205208535742713 0 -1 0 I I #
coedge $-1 $251 $281 $253 $287 reversed $185 $-1 #
straight-curve $-1 0 -47.625531928854123 -8.2052085357427131 1 0 0 I I #
edge $-1 $254 -1.5 $283 1.5 $253 $300 forward 7 unknown #
point $-1 63.749504074221015 -47.625531928854123 -8.2052085357427131 #
straight-curve $-1 -63.749504074221015 -47.625531928854123 -9.7052085357427131 0 0 -1 I I #
point $-1 -63.749504074221015 -47.625531928854123 -11.205208535742713 #
point $-1 -63.749504074221015 -47.625531928854123 -8.2052085357427131 #
straight-curve $-1 63.749504074221015 23.289630825828048 91.333668779916948 0 0 -1 I I #
point $-1 63.749504074221015 23.289630825828048 14.194525890810006 #
straight-curve $-1 63.749504074221008 13.769950474504483 3.0426480173209072 0 1 0 I I #
point $-1 63.749504074221015 23.289630825828048 3.0426480173208859 #
point $-1 55.295129655841095 25.718356610502859 6.4624314839715069 #
point $-1 55.295129655841095 29.361445287515075 6.4624314839715069 #
straight-curve $-1 0 -47.625531928854123 -11.205208535742713 -1 0 0 I I #
point $-1 63.749504074221015 -47.625531928854123 -11.205208535742713 #
straight-curve $-1 63.749504074221015 -47.625531928854123 -9.7052085357427131 0 0 -1 I I #
End-of-ACIS-data 