500 0 6 0           
7 Unknown 11 ACIS 5.0 NT 24 Thu Mar 25 15:37:12 1999 
-1 9.9999999999999995e-007 1e-010 
body $-1 $6 $-1 $7 #
body $-1 $8 $-1 $9 #
body $-1 $10 $-1 $11 #
body $-1 $12 $-1 $13 #
body $-1 $14 $-1 $15 #
body $-1 $16 $-1 $17 #
lump $-1 $-1 $18 $0 #
transform $-1 1 0 0 0 1 0 0 0 1 78.229926450392156 44.806669657208005 12.95779295241258 1 rotate no_reflect no_shear #
lump $-1 $-1 $19 $1 #
transform $-1 1 0 0 0 1 0 0 0 1 78.229926450392156 44.806669657208005 12.95779295241258 1 rotate no_reflect no_shear #
lump $-1 $-1 $20 $2 #
transform $-1 1 0 0 0 1 0 0 0 1 78.229926450392156 44.806669657208005 12.95779295241258 1 rotate no_reflect no_shear #
lump $-1 $-1 $21 $3 #
transform $-1 1 0 0 0 1 0 0 0 1 78.229926450392156 44.806669657208005 12.95779295241258 1 rotate no_reflect no_shear #
lump $-1 $-1 $22 $4 #
transform $-1 1 0 0 0 1 0 0 0 1 78.229926450392156 44.806669657208005 12.95779295241258 1 rotate no_reflect no_shear #
lump $-1 $-1 $23 $5 #
transform $-1 1 0 0 0 1 0 0 0 1 78.229926450392156 44.806669657208005 12.95779295241258 1 rotate no_reflect no_shear #
shell $-1 $-1 $-1 $24 $-1 $6 #
shell $-1 $-1 $-1 $25 $-1 $8 #
shell $-1 $-1 $-1 $26 $-1 $10 #
shell $-1 $-1 $-1 $27 $-1 $12 #
shell $-1 $-1 $-1 $28 $-1 $14 #
shell $-1 $-1 $-1 $29 $-1 $16 #
face $-1 $30 $31 $18 $-1 $32 forward single #
face $-1 $33 $34 $19 $-1 $35 reversed single #
face $-1 $36 $37 $20 $-1 $38 reversed single #
face $-1 $39 $40 $21 $-1 $41 reversed single #
face $-1 $42 $43 $22 $-1 $44 forward single #
face $-1 $45 $46 $23 $-1 $47 forward single #
face $-1 $48 $49 $18 $-1 $50 reversed single #
loop $-1 $-1 $51 $24 #
plane-surface $-1 0 0 12.95779295241258 0 0 1 1 0 0 forward_v I I I I #
face $-1 $52 $53 $19 $-1 $54 reversed single #
loop $-1 $-1 $55 $25 #
plane-surface $-1 -70.784286954040127 0 8.7724024970842258 0 0 1 1 0 0 forward_v I I I I #
face $-1 $56 $57 $20 $-1 $58 reversed single #
loop $-1 $-1 $59 $26 #
plane-surface $-1 70.784286954040113 0 8.7724024970842258 0 0 1 1 0 0 forward_v I I I I #
face $-1 $60 $61 $21 $-1 $62 reversed single #
loop $-1 $-1 $63 $27 #
plane-surface $-1 -26.458490546272188 -166.39881376395419 100.51467895264165 -1 0 0 0 -0.77714596973225614 0.62932038083071107 forward_v I I I I #
face $-1 $64 $65 $22 $-1 $66 forward single #
loop $-1 $67 $68 $28 #
cone-surface $-1 -51.148161471917916 -36.756779096239782 4.5618417905160218 0 0.77714596973225614 -0.62932038083071107 2.5 0 0 1 I I 0 1 2.5 forward I I I I #
face $-1 $69 $70 $23 $-1 $71 forward single #
loop $-1 $72 $73 $29 #
cone-surface $-1 -36.334358916530476 -36.756779096239782 4.5618417905160218 0 0.77714596973225614 -0.62932038083071107 2.5 0 0 1 I I 0 1 2.5 forward I I I I #
face $-1 $74 $75 $18 $-1 $76 reversed single #
loop $-1 $-1 $77 $30 #
plane-surface $-1 0 0 -12.95779295241258 0 0 1 1 0 0 forward_v I I I I #
coedge $-1 $78 $79 $80 $81 forward $31 $-1 #
face $-1 $82 $83 $19 $-1 $84 reversed single #
loop $-1 $-1 $85 $33 #
plane-surface $-1 -63.338647457688097 0 10.865097724748404 -1 0 0 0 0 1 forward_v I I I I #
coedge $-1 $86 $87 $88 $89 forward $34 $-1 #
face $-1 $90 $91 $20 $-1 $92 forward single #
loop $-1 $-1 $93 $36 #
plane-surface $-1 63.338647457688083 0 10.865097724748404 1 0 0 0 0 -1 forward_v I I I I #
coedge $-1 $94 $95 $96 $97 reversed $37 $-1 #
face $-1 $98 $99 $21 $-1 $100 reversed single #
loop $-1 $-1 $101 $39 #
plane-surface $-1 -43.741260194224196 -44.806669657208019 2.051304740403026 0 -0.77714596973225614 0.62932038083071107 1 0 0 forward_v I I I I #
coedge $-1 $102 $103 $104 $105 reversed $40 $-1 #
face $-1 $-1 $106 $22 $-1 $107 forward single #
loop $-1 $108 $109 $42 #
cone-surface $-1 -51.148161471917916 -32.15140596053358 0.8324842585858665 0 0.77714596973225614 -0.62932038083071107 1.25 0 0 1 I I -0.70710678118654746 0.70710678118654746 1.25 forward I I I I #
loop $-1 $-1 $110 $28 #
coedge $-1 $68 $68 $111 $112 reversed $43 $-1 #
face $-1 $-1 $113 $23 $-1 $114 forward single #
loop $-1 $115 $116 $45 #
cone-surface $-1 -36.334358916530476 -32.15140596053358 0.8324842585858665 0 0.77714596973225614 -0.62932038083071107 1.25 0 0 1 I I -0.70710678118654746 0.70710678118654746 1.25 forward I I I I #
loop $-1 $-1 $117 $29 #
coedge $-1 $73 $73 $118 $119 reversed $46 $-1 #
face $-1 $120 $121 $18 $-1 $122 reversed single #
loop $-1 $-1 $123 $48 #
plane-surface $-1 0 -44.806669657208005 0 0 1 0 0 0 1 forward_v I I I I #
coedge $-1 $124 $125 $126 $127 forward $49 $-1 #
coedge $-1 $128 $51 $129 $130 forward $31 $-1 #
coedge $-1 $51 $128 $131 $132 forward $31 $-1 #
coedge $-1 $133 $134 $51 $81 reversed $135 $-1 #
edge $-1 $136 -44.806669657208005 $137 44.806669657208005 $80 $138 forward 7 unknown #
face $-1 $139 $140 $19 $-1 $141 reversed single #
loop $-1 $-1 $142 $52 #
plane-surface $-1 0 44.806669657208005 0 0 -1 0 0 0 -1 forward_v I I I I #
coedge $-1 $88 $143 $144 $145 reversed $53 $-1 #
coedge $-1 $146 $55 $147 $148 reversed $34 $-1 #
coedge $-1 $55 $146 $149 $150 reversed $34 $-1 #
coedge $-1 $151 $85 $55 $89 reversed $53 $-1 #
edge $-1 $152 -44.806669657208005 $153 44.806669657208005 $88 $154 forward 7 unknown #
face $-1 $155 $156 $20 $-1 $157 reversed single #
loop $-1 $-1 $158 $56 #
plane-surface $-1 0 0 12.95779295241258 0 0 1 1 0 0 forward_v I I I I #
coedge $-1 $159 $160 $161 $162 reversed $57 $-1 #
coedge $-1 $163 $59 $164 $165 reversed $37 $-1 #
coedge $-1 $59 $163 $166 $167 reversed $37 $-1 #
coedge $-1 $168 $169 $59 $97 forward $170 $-1 #
edge $-1 $171 -44.806669657208005 $172 44.806669657208005 $96 $173 forward 7 unknown #
face $-1 $174 $175 $21 $-1 $176 forward single #
loop $-1 $-1 $177 $60 #
plane-surface $-1 -61.024029842176205 -166.39881376395419 100.51467895264165 1 0 0 0 0.77714596973225614 -0.62932038083071107 forward_v I I I I #
coedge $-1 $178 $179 $180 $181 reversed $61 $-1 #
coedge $-1 $103 $63 $182 $183 reversed $40 $-1 #
coedge $-1 $63 $102 $178 $184 reversed $40 $-1 #
coedge $-1 $180 $185 $63 $105 forward $175 $-1 #
edge $-1 $186 38.392737224769093 $187 47.224636999623726 $104 $188 forward 7 unknown #
loop $-1 $-1 $111 $64 #
plane-surface $-1 -43.741260194224196 -44.806669657208019 2.051304740403026 0 -0.77714596973225614 0.62932038083071107 1 0 0 forward_v I I I I #
loop $-1 $-1 $189 $42 #
coedge $-1 $109 $109 $110 $190 reversed $65 $-1 #
coedge $-1 $110 $110 $109 $190 forward $67 $-1 #
coedge $-1 $111 $111 $68 $112 forward $106 $-1 #
edge $-1 $191 -4.3214364511368111e-016 $191 6.2831853071796004 $111 $192 forward 7 unknown #
loop $-1 $-1 $118 $69 #
plane-surface $-1 -43.741260194224196 -44.806669657208019 2.051304740403026 0 -0.77714596973225614 0.62932038083071107 1 0 0 forward_v I I I I #
loop $-1 $-1 $193 $45 #
coedge $-1 $116 $116 $117 $194 reversed $70 $-1 #
coedge $-1 $117 $117 $116 $194 forward $72 $-1 #
coedge $-1 $118 $118 $73 $119 forward $113 $-1 #
edge $-1 $195 -4.3214364511368111e-016 $195 6.2831853071796004 $118 $196 forward 7 unknown #
face $-1 $197 $198 $18 $-1 $199 reversed single #
loop $-1 $-1 $200 $74 #
plane-surface $-1 -78.229926450392156 0 0 1 0 0 0 0 -1 forward_v I I I I #
coedge $-1 $201 $131 $202 $203 forward $75 $-1 #
coedge $-1 $204 $77 $201 $205 forward $49 $-1 #
coedge $-1 $77 $204 $206 $207 forward $49 $-1 #
coedge $-1 $134 $133 $77 $127 reversed $135 $-1 #
edge $-1 $208 -44.806669657208005 $209 44.806669657208005 $126 $210 forward 7 unknown #
coedge $-1 $79 $78 $211 $212 forward $31 $-1 #
coedge $-1 $213 $214 $78 $130 reversed $198 $-1 #
edge $-1 $137 -78.229926450392156 $215 78.229926450392156 $129 $216 forward 7 unknown #
coedge $-1 $123 $217 $79 $132 reversed $75 $-1 #
edge $-1 $218 -78.229926450392156 $136 78.229926450392156 $131 $219 forward 7 unknown #
coedge $-1 $126 $80 $217 $220 forward $135 $-1 #
coedge $-1 $80 $126 $213 $221 reversed $135 $-1 #
loop $-1 $-1 $133 $197 #
vertex $-1 $81 $222 #
vertex $-1 $81 $223 #
straight-curve $-1 78.229926450392156 0 12.95779295241258 0 1 0 I I #
face $-1 $224 $225 $19 $-1 $226 forward single #
loop $-1 $-1 $227 $82 #
plane-surface $-1 -78.229926450392156 0 0 1 0 0 0 0 -1 forward_v I I I I #
coedge $-1 $149 $228 $151 $229 forward $83 $-1 #
coedge $-1 $85 $151 $230 $231 reversed $53 $-1 #
coedge $-1 $232 $147 $85 $145 forward $233 $-1 #
edge $-1 $153 3.3398536347100238 $234 7.5252440900383801 $144 $235 forward 7 unknown #
coedge $-1 $87 $86 $227 $236 reversed $34 $-1 #
coedge $-1 $144 $237 $86 $148 forward $233 $-1 #
edge $-1 $238 -42.837782973372093 $153 -27.946503980668034 $147 $239 forward 7 unknown #
coedge $-1 $240 $142 $87 $150 forward $83 $-1 #
edge $-1 $152 27.946503980668034 $241 42.837782973372093 $149 $242 forward 7 unknown #
coedge $-1 $143 $88 $142 $229 reversed $53 $-1 #
vertex $-1 $150 $243 #
vertex $-1 $148 $244 #
straight-curve $-1 -63.338647457688097 0 8.7724024970842258 0 -1 0 I I #
face $-1 $245 $246 $20 $-1 $247 reversed single #
loop $-1 $-1 $248 $90 #
plane-surface $-1 0 -44.806669657208005 0 0 1 0 0 0 1 forward_v I I I I #
coedge $-1 $249 $250 $160 $251 forward $91 $-1 #
coedge $-1 $252 $93 $163 $253 reversed $57 $-1 #
coedge $-1 $93 $252 $158 $251 reversed $57 $-1 #
coedge $-1 $254 $166 $93 $162 forward $246 $-1 #
edge $-1 $255 3.3398536347100238 $256 7.5252440900383801 $161 $257 forward 7 unknown #
coedge $-1 $95 $94 $159 $253 forward $37 $-1 #
coedge $-1 $258 $248 $94 $165 forward $156 $-1 #
edge $-1 $259 27.946503980668027 $171 42.837782973372086 $164 $260 forward 7 unknown #
coedge $-1 $161 $261 $95 $167 forward $246 $-1 #
edge $-1 $172 -42.837782973372086 $255 -27.946503980668027 $166 $262 forward 7 unknown #
coedge $-1 $263 $96 $261 $264 reversed $170 $-1 #
coedge $-1 $96 $263 $258 $265 forward $170 $-1 #
loop $-1 $-1 $96 $245 #
vertex $-1 $165 $266 #
vertex $-1 $97 $267 #
straight-curve $-1 78.229926450392156 0 8.7724024970842258 0 1 0 I I #
face $-1 $-1 $268 $21 $-1 $269 reversed single #
loop $-1 $-1 $104 $98 #
plane-surface $-1 0 0 12.95779295241258 0 0 1 1 0 0 forward_v I I I I #
coedge $-1 $270 $271 $272 $273 reversed $99 $-1 #
coedge $-1 $274 $101 $103 $184 forward $61 $-1 #
coedge $-1 $101 $274 $270 $275 forward $61 $-1 #
coedge $-1 $272 $104 $101 $181 forward $175 $-1 #
edge $-1 $187 4.5878604491600896 $276 39.153399745064107 $180 $277 forward 7 unknown #
coedge $-1 $278 $279 $102 $183 forward $268 $-1 #
edge $-1 $280 -48.206034735917783 $186 -37.299546523908241 $182 $281 forward 7 unknown #
edge $-1 $187 -14.034027887665783 $280 -2.2748066086763162e-014 $103 $282 forward 7 unknown #
coedge $-1 $104 $272 $278 $283 forward $175 $-1 #
vertex $-1 $183 $284 #
vertex $-1 $105 $285 #
straight-curve $-1 -26.458490546272188 -83.199406881977097 12.957792952412582 0 1 0 I I #
coedge $-1 $189 $189 $-1 $286 reversed $108 $-1 #
edge $-1 $287 0 $287 6.2831853071796004 $109 $288 forward 7 unknown #
vertex $-1 $112 $289 #
ellipse-curve $-1 -51.148161471917916 -40.390719769780688 7.5045488464078076 0 -0.77714596973225614 0.62932038083071107 2.5 0 0 1 I I #
coedge $-1 $193 $193 $-1 $290 reversed $115 $-1 #
edge $-1 $291 0 $291 6.2831853071796004 $116 $292 forward 7 unknown #
vertex $-1 $119 $293 #
ellipse-curve $-1 -36.334358916530476 -40.390719769780688 7.5045488464078076 0 -0.77714596973225614 0.62932038083071107 2.5 0 0 1 I I #
face $-1 $-1 $135 $18 $-1 $294 reversed single #
loop $-1 $-1 $213 $120 #
plane-surface $-1 0 44.806669657208005 0 0 -1 0 0 0 -1 forward_v I I I I #
coedge $-1 $295 $211 $214 $296 forward $121 $-1 #
coedge $-1 $217 $123 $124 $205 reversed $75 $-1 #
coedge $-1 $211 $295 $123 $203 reversed $121 $-1 #
edge $-1 $218 -12.95779295241258 $297 12.95779295241258 $202 $298 forward 7 unknown #
coedge $-1 $125 $124 $295 $299 forward $49 $-1 #
edge $-1 $209 -78.229926450392156 $297 78.229926450392156 $201 $300 forward 7 unknown #
coedge $-1 $214 $213 $125 $207 reversed $198 $-1 #
edge $-1 $301 -78.229926450392156 $208 78.229926450392156 $206 $302 forward 7 unknown #
vertex $-1 $127 $303 #
vertex $-1 $220 $304 #
straight-curve $-1 78.229926450392156 0 -12.95779295241258 0 -1 0 I I #
coedge $-1 $200 $202 $128 $212 reversed $121 $-1 #
edge $-1 $215 -44.806669657208005 $218 44.806669657208005 $211 $305 forward 7 unknown #
coedge $-1 $206 $129 $134 $221 forward $198 $-1 #
coedge $-1 $129 $206 $200 $296 reversed $198 $-1 #
vertex $-1 $130 $306 #
straight-curve $-1 0 44.806669657208005 12.95779295241258 -1 0 0 I I #
coedge $-1 $131 $201 $133 $220 reversed $75 $-1 #
vertex $-1 $212 $307 #
straight-curve $-1 0 -44.806669657208005 12.95779295241258 1 0 0 I I #
edge $-1 $136 -12.95779295241258 $209 12.95779295241258 $133 $308 forward 7 unknown #
edge $-1 $137 -12.95779295241258 $208 12.95779295241258 $134 $309 forward 7 unknown #
point $-1 78.229926450392156 -44.806669657208005 12.95779295241258 #
point $-1 78.229926450392156 44.806669657208005 12.95779295241258 #
face $-1 $-1 $233 $19 $-1 $310 reversed single #
loop $-1 $-1 $230 $139 #
plane-surface $-1 0 0 12.95779295241258 0 0 1 1 0 0 forward_v I I I I #
coedge $-1 $311 $312 $146 $236 forward $140 $-1 #
coedge $-1 $142 $240 $313 $314 reversed $83 $-1 #
edge $-1 $315 -7.5252440900383801 $152 -3.3398536347100238 $142 $316 forward 7 unknown #
coedge $-1 $313 $317 $143 $231 forward $225 $-1 #
edge $-1 $234 -44.806669657208005 $315 44.806669657208005 $230 $318 forward 7 unknown #
coedge $-1 $237 $144 $317 $319 reversed $233 $-1 #
loop $-1 $-1 $144 $224 #
vertex $-1 $145 $320 #
straight-curve $-1 -63.338647457688097 -44.806669657208005 5.432548862374202 0 0 1 I I #
edge $-1 $241 -44.806669657208005 $238 44.806669657208005 $227 $321 forward 7 unknown #
coedge $-1 $147 $232 $311 $322 forward $233 $-1 #
vertex $-1 $236 $323 #
straight-curve $-1 -35.392143477020063 -44.806669657208005 8.7724024970842258 1 0 0 I I #
coedge $-1 $228 $149 $312 $324 reversed $83 $-1 #
vertex $-1 $236 $325 #
straight-curve $-1 -35.392143477020063 44.806669657208005 8.7724024970842258 -1 0 0 I I #
point $-1 -63.338647457688097 44.806669657208005 8.7724024970842258 #
point $-1 -63.338647457688097 -44.806669657208005 8.7724024970842258 #
face $-1 $-1 $170 $20 $-1 $326 reversed single #
loop $-1 $-1 $161 $155 #
plane-surface $-1 0 44.806669657208005 0 0 -1 0 0 0 -1 forward_v I I I I #
coedge $-1 $164 $327 $252 $328 forward $156 $-1 #
coedge $-1 $329 $158 $327 $330 forward $91 $-1 #
coedge $-1 $158 $329 $254 $331 forward $91 $-1 #
edge $-1 $256 -44.806669657208005 $332 44.806669657208005 $158 $333 forward 7 unknown #
coedge $-1 $160 $159 $248 $328 reversed $57 $-1 #
edge $-1 $259 -44.806669657208005 $255 44.806669657208005 $159 $334 forward 7 unknown #
coedge $-1 $261 $161 $250 $331 reversed $246 $-1 #
vertex $-1 $167 $335 #
vertex $-1 $162 $336 #
straight-curve $-1 63.338647457688083 44.806669657208005 5.432548862374202 0 0 1 I I #
coedge $-1 $327 $164 $169 $265 reversed $156 $-1 #
vertex $-1 $165 $337 #
straight-curve $-1 35.392143477020056 -44.806669657208005 8.7724024970842258 1 0 0 I I #
coedge $-1 $166 $254 $168 $264 forward $246 $-1 #
straight-curve $-1 35.392143477020056 44.806669657208005 8.7724024970842258 -1 0 0 I I #
coedge $-1 $169 $168 $329 $338 reversed $170 $-1 #
edge $-1 $339 -12.95779295241258 $172 -8.7724024970842258 $168 $340 forward 7 unknown #
edge $-1 $341 -12.95779295241258 $171 -8.7724024970842258 $169 $342 forward 7 unknown #
point $-1 78.229926450392142 -44.806669657208005 8.7724024970842258 #
point $-1 78.229926450392142 44.806669657208005 8.7724024970842258 #
loop $-1 $-1 $182 $174 #
plane-surface $-1 0 -44.806669657208005 0 0 1 0 0 0 1 forward_v I I I I #
coedge $-1 $271 $177 $179 $275 reversed $99 $-1 #
coedge $-1 $177 $270 $343 $344 reversed $99 $-1 #
coedge $-1 $185 $180 $177 $273 forward $175 $-1 #
edge $-1 $276 -47.224636999623726 $345 -38.392737224769093 $272 $346 forward 7 unknown #
coedge $-1 $179 $178 $279 $347 reversed $61 $-1 #
edge $-1 $348 2.2748066086763162e-014 $276 14.034027887665783 $270 $349 forward 7 unknown #
vertex $-1 $181 $350 #
straight-curve $-1 -21.870630097112098 -35.974769882353364 12.95779295241258 -1 0 0 I I #
coedge $-1 $343 $182 $185 $283 reversed $268 $-1 #
coedge $-1 $182 $343 $274 $347 forward $268 $-1 #
vertex $-1 $183 $351 #
straight-curve $-1 -26.458490546272188 -44.806669657208005 50.257339476320823 0 0 1 I I #
straight-curve $-1 -26.458490546272188 -44.806669657208019 2.051304740403026 0 -0.62932038083071107 -0.77714596973225614 I I #
edge $-1 $345 -61.024029842176205 $186 -26.458490546272188 $278 $352 forward 7 unknown #
point $-1 -26.458490546272188 -44.806669657208005 12.95779295241258 #
point $-1 -26.458490546272188 -35.974769882353371 12.95779295241258 #
edge $-1 $353 1 $353 0 $189 $-1 forward 7 unknown #
vertex $-1 $190 $354 #
ellipse-curve $-1 -51.148161471917916 -33.122838422698898 1.6191347346242553 0 -0.77714596973225614 0.62932038083071107 2.5 0 0 1 I I #
point $-1 -48.648161471917916 -40.390719769780667 7.504548846407789 #
edge $-1 $355 1 $355 0 $193 $-1 forward 7 unknown #
vertex $-1 $194 $356 #
ellipse-curve $-1 -36.334358916530476 -33.122838422698898 1.6191347346242553 0 -0.77714596973225614 0.62932038083071107 2.5 0 0 1 I I #
point $-1 -33.834358916530476 -40.390719769780667 7.504548846407789 #
plane-surface $-1 78.229926450392156 0 0 -1 0 0 0 0 1 forward_v I I I I #
coedge $-1 $202 $200 $204 $299 reversed $121 $-1 #
edge $-1 $215 -12.95779295241258 $301 12.95779295241258 $214 $357 forward 7 unknown #
vertex $-1 $299 $358 #
straight-curve $-1 -78.229926450392156 -44.806669657208005 0 0 0 -1 I I #
edge $-1 $297 -44.806669657208005 $301 44.806669657208005 $295 $359 forward 7 unknown #
straight-curve $-1 0 -44.806669657208005 -12.95779295241258 -1 0 0 I I #
vertex $-1 $207 $360 #
straight-curve $-1 0 44.806669657208005 -12.95779295241258 1 0 0 I I #
point $-1 78.229926450392156 44.806669657208005 -12.95779295241258 #
point $-1 78.229926450392156 -44.806669657208005 -12.95779295241258 #
straight-curve $-1 -78.229926450392156 0 12.95779295241258 0 -1 0 I I #
point $-1 -78.229926450392156 44.806669657208005 12.95779295241258 #
point $-1 -78.229926450392156 -44.806669657208005 12.95779295241258 #
straight-curve $-1 78.229926450392156 -44.806669657208005 0 0 0 -1 I I #
straight-curve $-1 78.229926450392156 44.806669657208005 0 0 0 -1 I I #
plane-surface $-1 0 -44.806669657208005 0 0 1 0 0 0 1 forward_v I I I I #
coedge $-1 $361 $227 $237 $322 reversed $140 $-1 #
coedge $-1 $227 $361 $240 $324 forward $140 $-1 #
coedge $-1 $362 $230 $228 $314 forward $225 $-1 #
edge $-1 $315 63.338647457688097 $363 78.229926450392156 $228 $364 forward 7 unknown #
vertex $-1 $314 $365 #
straight-curve $-1 -63.338647457688097 44.806669657208005 5.432548862374202 0 0 -1 I I #
coedge $-1 $230 $362 $232 $319 forward $225 $-1 #
straight-curve $-1 -63.338647457688097 0 12.95779295241258 0 1 0 I I #
edge $-1 $366 -78.229926450392156 $234 -63.338647457688097 $232 $367 forward 7 unknown #
point $-1 -63.338647457688097 -44.806669657208005 12.957792952412582 #
straight-curve $-1 -78.229926450392156 0 8.7724024970842258 0 -1 0 I I #
edge $-1 $366 -12.95779295241258 $238 -8.7724024970842258 $311 $368 forward 7 unknown #
point $-1 -78.229926450392156 -44.806669657208005 8.7724024970842258 #
edge $-1 $363 -12.95779295241258 $241 -8.7724024970842258 $240 $369 forward 7 unknown #
point $-1 -78.229926450392156 44.806669657208005 8.7724024970842258 #
plane-surface $-1 78.229926450392156 0 0 -1 0 0 0 0 1 forward_v I I I I #
coedge $-1 $248 $258 $249 $330 reversed $156 $-1 #
edge $-1 $332 -7.5252440900383801 $259 -3.3398536347100238 $248 $370 forward 7 unknown #
coedge $-1 $250 $249 $263 $338 forward $91 $-1 #
edge $-1 $332 63.338647457688083 $341 78.229926450392156 $327 $371 forward 7 unknown #
edge $-1 $339 -78.229926450392156 $256 -63.338647457688083 $254 $372 forward 7 unknown #
vertex $-1 $330 $373 #
straight-curve $-1 63.338647457688083 0 12.95779295241258 0 -1 0 I I #
straight-curve $-1 63.338647457688083 0 8.7724024970842258 0 1 0 I I #
point $-1 63.338647457688083 44.806669657208005 8.7724024970842258 #
point $-1 63.338647457688083 44.806669657208005 12.957792952412582 #
point $-1 63.338647457688083 -44.806669657208005 8.7724024970842258 #
edge $-1 $341 -44.806669657208005 $339 44.806669657208005 $263 $374 forward 7 unknown #
vertex $-1 $338 $375 #
straight-curve $-1 78.229926450392156 44.806669657208005 0 0 0 -1 I I #
vertex $-1 $338 $376 #
straight-curve $-1 78.229926450392156 -44.806669657208005 0 0 0 -1 I I #
coedge $-1 $279 $278 $271 $344 forward $268 $-1 #
edge $-1 $345 37.299546523908241 $348 48.206034735917783 $343 $377 forward 7 unknown #
vertex $-1 $283 $378 #
straight-curve $-1 -61.024029842176205 -83.199406881977097 12.957792952412582 0 -1 0 I I #
edge $-1 $348 -39.153399745064107 $280 -4.5878604491600896 $279 $379 forward 7 unknown #
vertex $-1 $347 $380 #
straight-curve $-1 -61.024029842176205 -44.806669657208019 2.051304740403026 0 0.62932038083071107 0.77714596973225614 I I #
point $-1 -61.024029842176205 -35.974769882353371 12.95779295241258 #
point $-1 -26.458490546272188 -44.806669657208005 2.0513047404030438 #
straight-curve $-1 0 -44.806669657208005 12.95779295241258 1 0 0 I I #
vertex $-1 $286 $381 #
point $-1 -48.648161471917916 -33.122838422698898 1.6191347346242553 #
vertex $-1 $290 $382 #
point $-1 -33.834358916530476 -33.122838422698898 1.6191347346242553 #
straight-curve $-1 -78.229926450392156 44.806669657208005 0 0 0 -1 I I #
point $-1 -78.229926450392156 -44.806669657208005 -12.95779295241258 #
straight-curve $-1 -78.229926450392156 0 -12.95779295241258 0 1 0 I I #
point $-1 -78.229926450392156 44.806669657208005 -12.95779295241258 #
coedge $-1 $312 $311 $362 $383 reversed $140 $-1 #
coedge $-1 $317 $313 $361 $383 forward $225 $-1 #
vertex $-1 $314 $384 #
straight-curve $-1 0 44.806669657208005 12.95779295241258 -1 0 0 I I #
point $-1 -63.338647457688097 44.806669657208005 12.957792952412582 #
vertex $-1 $383 $385 #
straight-curve $-1 0 -44.806669657208005 12.95779295241258 1 0 0 I I #
straight-curve $-1 -78.229926450392156 -44.806669657208005 0 0 0 -1 I I #
straight-curve $-1 -78.229926450392156 44.806669657208005 0 0 0 -1 I I #
straight-curve $-1 63.338647457688083 -44.806669657208005 5.432548862374202 0 0 -1 I I #
straight-curve $-1 0 -44.806669657208005 12.95779295241258 1 0 0 I I #
straight-curve $-1 0 44.806669657208005 12.95779295241258 -1 0 0 I I #
point $-1 63.338647457688083 -44.806669657208005 12.957792952412582 #
straight-curve $-1 78.229926450392156 0 12.95779295241258 0 1 0 I I #
point $-1 78.229926450392156 44.806669657208005 12.95779295241258 #
point $-1 78.229926450392156 -44.806669657208005 12.95779295241258 #
straight-curve $-1 -61.024029842176205 -44.806669657208005 50.257339476320823 0 0 -1 I I #
point $-1 -61.024029842176205 -44.806669657208005 12.95779295241258 #
straight-curve $-1 -21.870630097112098 -44.806669657208005 2.0513047404030464 1 0 0 I I #
point $-1 -61.024029842176205 -44.806669657208005 2.0513047404030438 #
point $-1 -51.148161471917916 -31.179973498368259 0.045833782547477719 #
point $-1 -36.334358916530476 -31.179973498368259 0.045833782547477719 #
edge $-1 $363 -44.806669657208005 $366 44.806669657208005 $361 $386 forward 7 unknown #
point $-1 -78.229926450392156 44.806669657208005 12.95779295241258 #
point $-1 -78.229926450392156 -44.806669657208005 12.95779295241258 #
straight-curve $-1 -78.229926450392156 0 12.95779295241258 0 -1 0 I I #
End-of-ACIS-data 