500 0 15 0           
7 Unknown 11 ACIS 5.0 NT 24 Thu Mar 25 23:27:36 1999 
-1 9.9999999999999995e-007 1e-010 
body $-1 $15 $-1 $16 #
body $-1 $17 $-1 $18 #
body $-1 $19 $-1 $20 #
body $-1 $21 $-1 $22 #
body $-1 $23 $-1 $24 #
body $-1 $25 $-1 $26 #
body $-1 $27 $-1 $28 #
body $-1 $29 $-1 $30 #
body $-1 $31 $-1 $32 #
body $-1 $33 $-1 $34 #
body $-1 $35 $-1 $36 #
body $-1 $37 $-1 $38 #
body $-1 $39 $-1 $40 #
body $-1 $41 $-1 $42 #
body $-1 $43 $-1 $44 #
lump $-1 $-1 $45 $0 #
transform $-1 1 0 0 0 1 0 0 0 1 62.650837733085112 36.902370174256497 10.879706627656022 1 rotate no_reflect no_shear #
lump $-1 $-1 $46 $1 #
transform $-1 1 0 0 0 1 0 0 0 1 4.2651491397468684 19.876756175033947 10.879706627656022 1 rotate no_reflect no_shear #
lump $-1 $-1 $47 $2 #
transform $-1 1 0 0 0 1 0 0 0 1 121.03652632642336 19.876756175033947 10.879706627656022 1 rotate no_reflect no_shear #
lump $-1 $-1 $48 $3 #
transform $-1 1 0 0 0 0.61566146476048833 0.78801076186113728 0 -0.78801076186113728 0.61566146476048833 55.652924967682466 -98.73906874657375 91.867142950728123 1 rotate no_reflect no_shear #
lump $-1 $-1 $49 $4 #
transform $-1 1 0 0 0 -0.61566146476048833 -0.78801076186113728 0 0.78801076186113728 -0.61566146476048833 51.454177308440876 5.1492301150603934 16.365868087644301 1 rotate no_reflect no_shear #
lump $-1 $-1 $50 $5 #
transform $-1 1 0 0 0 -0.61566146476048833 -0.78801076186113728 0 0.78801076186113728 -0.61566146476048833 55.652924967682466 5.1492301150603934 16.365868087644301 1 rotate no_reflect no_shear #
lump $-1 $-1 $51 $6 #
transform $-1 1 0 0 0 -0.61566146476048833 -0.78801076186113728 0 0.78801076186113728 -0.61566146476048833 59.851672626924056 5.1492301150603934 16.365868087644301 1 rotate no_reflect no_shear #
lump $-1 $-1 $52 $7 #
transform $-1 1 0 0 0 0.61566146476048833 0.78801076186113728 0 -0.78801076186113728 0.61566146476048833 109.77346442127384 -98.73906874657375 91.867142950728123 1 rotate no_reflect no_shear #
lump $-1 $-1 $53 $8 #
transform $-1 1 0 0 0 -0.61566146476048833 -0.78801076186113728 0 0.78801076186113728 -0.61566146476048833 105.57471676203225 5.1492301150603934 16.365868087644301 1 rotate no_reflect no_shear #
lump $-1 $-1 $54 $9 #
transform $-1 1 0 0 0 -0.61566146476048833 -0.78801076186113728 0 0.78801076186113728 -0.61566146476048833 109.77346442127384 5.1492301150603934 16.365868087644301 1 rotate no_reflect no_shear #
lump $-1 $-1 $55 $10 #
transform $-1 1 0 0 0 -0.61566146476048833 -0.78801076186113728 0 0.78801076186113728 -0.61566146476048833 113.97221208051543 5.1492301150603934 16.365868087644301 1 rotate no_reflect no_shear #
lump $-1 $-1 $56 $11 #
transform $-1 1 0 0 0 0.52991925155115449 -0.84804810408105047 0 0.84804810408105047 0.52991925155115449 25.28643456259373 140.95603589936641 143.73415111569068 1 rotate no_reflect no_shear #
lump $-1 $-1 $57 $12 #
transform $-1 1 0 0 0 -0.52991925155115449 0.84804810408105047 0 -0.84804810408105047 -0.52991925155115449 25.28643456259373 68.201394206823863 16.120097730904305 1 rotate no_reflect no_shear #
lump $-1 $-1 $58 $13 #
transform $-1 1 0 0 0 0.52991925155115449 -0.84804810408105047 0 0.84804810408105047 0.52991925155115449 79.406974016185117 140.95603589936641 143.73415111569068 1 rotate no_reflect no_shear #
lump $-1 $-1 $59 $14 #
transform $-1 1 0 0 0 -0.52991925155115449 0.84804810408105047 0 -0.84804810408105047 -0.52991925155115449 79.406974016185117 68.201394206823863 16.120097730904305 1 rotate no_reflect no_shear #
shell $-1 $-1 $-1 $60 $-1 $15 #
shell $-1 $-1 $-1 $61 $-1 $17 #
shell $-1 $-1 $-1 $62 $-1 $19 #
shell $-1 $-1 $-1 $63 $-1 $21 #
shell $-1 $-1 $-1 $64 $-1 $23 #
shell $-1 $-1 $-1 $65 $-1 $25 #
shell $-1 $-1 $-1 $66 $-1 $27 #
shell $-1 $-1 $-1 $67 $-1 $29 #
shell $-1 $-1 $-1 $68 $-1 $31 #
shell $-1 $-1 $-1 $69 $-1 $33 #
shell $-1 $-1 $-1 $70 $-1 $35 #
shell $-1 $-1 $-1 $71 $-1 $37 #
shell $-1 $-1 $-1 $72 $-1 $39 #
shell $-1 $-1 $-1 $73 $-1 $41 #
shell $-1 $-1 $-1 $74 $-1 $43 #
face $-1 $75 $76 $45 $-1 $77 forward single #
face $-1 $78 $79 $46 $-1 $80 forward single #
face $-1 $81 $82 $47 $-1 $83 forward single #
face $-1 $84 $85 $48 $-1 $86 forward single #
face $-1 $87 $88 $49 $-1 $89 forward single #
face $-1 $90 $91 $50 $-1 $92 forward single #
face $-1 $93 $94 $51 $-1 $95 forward single #
face $-1 $96 $97 $52 $-1 $98 forward single #
face $-1 $99 $100 $53 $-1 $101 forward single #
face $-1 $102 $103 $54 $-1 $104 forward single #
face $-1 $105 $106 $55 $-1 $107 forward single #
face $-1 $108 $109 $56 $-1 $110 forward single #
face $-1 $111 $112 $57 $-1 $113 forward single #
face $-1 $114 $115 $58 $-1 $116 forward single #
face $-1 $117 $118 $59 $-1 $119 forward single #
face $-1 $120 $121 $45 $-1 $122 reversed single #
loop $-1 $-1 $123 $60 #
plane-surface $-1 0 0 10.879706627656022 0 0 1 1 0 0 forward_v I I I I #
face $-1 $124 $125 $46 $-1 $126 reversed single #
loop $-1 $-1 $127 $61 #
plane-surface $-1 0 0 10.879706627656022 0 0 1 1 0 0 forward_v I I I I #
face $-1 $128 $129 $47 $-1 $130 reversed single #
loop $-1 $-1 $131 $62 #
plane-surface $-1 0 0 10.879706627656022 0 0 1 1 0 0 forward_v I I I I #
face $-1 $132 $133 $48 $-1 $134 reversed single #
loop $-1 $-1 $135 $63 #
plane-surface $-1 0 0 125.30167546617021 0 0 1 1 0 0 forward_v I I I I #
face $-1 $136 $137 $49 $-1 $138 forward single #
loop $-1 $139 $140 $64 #
cone-surface $-1 0 0 -1.7733237708670302 0 0 1 1 0 0 1 I I 0 1 1 forward I I I I #
face $-1 $141 $142 $50 $-1 $143 forward single #
loop $-1 $144 $145 $65 #
cone-surface $-1 0 0 -1.7733237708670302 0 0 1 1 0 0 1 I I 0 1 1 forward I I I I #
face $-1 $146 $147 $51 $-1 $148 forward single #
loop $-1 $149 $150 $66 #
cone-surface $-1 0 0 -1.7733237708670302 0 0 1 1 0 0 1 I I 0 1 1 forward I I I I #
face $-1 $151 $152 $52 $-1 $153 reversed single #
loop $-1 $-1 $154 $67 #
plane-surface $-1 0 0 125.30167546617021 0 0 1 1 0 0 forward_v I I I I #
face $-1 $155 $156 $53 $-1 $157 forward single #
loop $-1 $158 $159 $68 #
cone-surface $-1 0 0 -1.7733237708670302 0 0 1 1 0 0 1 I I 0 1 1 forward I I I I #
face $-1 $160 $161 $54 $-1 $162 forward single #
loop $-1 $163 $164 $69 #
cone-surface $-1 0 0 -1.7733237708670302 0 0 1 1 0 0 1 I I 0 1 1 forward I I I I #
face $-1 $165 $166 $55 $-1 $167 forward single #
loop $-1 $168 $169 $70 #
cone-surface $-1 0 0 -1.7733237708670302 0 0 1 1 0 0 1 I I 0 1 1 forward I I I I #
face $-1 $170 $171 $56 $-1 $172 reversed single #
loop $-1 $-1 $173 $71 #
plane-surface $-1 0 0 125.30167546617021 0 0 1 1 0 0 forward_v I I I I #
face $-1 $174 $175 $57 $-1 $176 forward single #
loop $-1 $177 $178 $72 #
cone-surface $-1 0 0 -2.2614520706808676 0 0 1 1 0 0 1 I I 0 1 1 forward I I I I #
face $-1 $179 $180 $58 $-1 $181 reversed single #
loop $-1 $-1 $182 $73 #
plane-surface $-1 0 0 125.30167546617021 0 0 1 1 0 0 forward_v I I I I #
face $-1 $183 $184 $59 $-1 $185 forward single #
loop $-1 $186 $187 $74 #
cone-surface $-1 0 0 -2.2614520706808676 0 0 1 1 0 0 1 I I 0 1 1 forward I I I I #
face $-1 $188 $189 $45 $-1 $190 reversed single #
loop $-1 $-1 $191 $75 #
plane-surface $-1 0 0 -10.879706627656022 0 0 1 1 0 0 forward_v I I I I #
coedge $-1 $192 $193 $194 $195 forward $76 $-1 #
face $-1 $196 $197 $46 $-1 $198 reversed single #
loop $-1 $-1 $199 $78 #
plane-surface $-1 0 0 -10.879706627656022 0 0 1 1 0 0 forward_v I I I I #
coedge $-1 $200 $201 $202 $203 forward $79 $-1 #
face $-1 $204 $205 $47 $-1 $206 reversed single #
loop $-1 $-1 $207 $81 #
plane-surface $-1 0 0 -10.879706627656022 0 0 1 1 0 0 forward_v I I I I #
coedge $-1 $208 $209 $210 $211 forward $82 $-1 #
face $-1 $212 $213 $48 $-1 $214 reversed single #
loop $-1 $-1 $215 $84 #
plane-surface $-1 0 0 -125.30167546617021 0 0 1 1 0 0 forward_v I I I I #
coedge $-1 $216 $217 $218 $219 forward $85 $-1 #
face $-1 $-1 $220 $49 $-1 $221 forward single #
loop $-1 $-1 $222 $87 #
plane-surface $-1 0 0 -3.0466475417340613 0 0 -1 -1 0 0 forward_v I I I I #
loop $-1 $-1 $223 $64 #
coedge $-1 $140 $140 $222 $224 reversed $88 $-1 #
face $-1 $-1 $225 $50 $-1 $226 forward single #
loop $-1 $-1 $227 $90 #
plane-surface $-1 0 0 -3.0466475417340613 0 0 -1 -1 0 0 forward_v I I I I #
loop $-1 $-1 $228 $65 #
coedge $-1 $145 $145 $227 $229 reversed $91 $-1 #
face $-1 $-1 $230 $51 $-1 $231 forward single #
loop $-1 $-1 $232 $93 #
plane-surface $-1 0 0 -3.0466475417340613 0 0 -1 -1 0 0 forward_v I I I I #
loop $-1 $-1 $233 $66 #
coedge $-1 $150 $150 $232 $234 reversed $94 $-1 #
face $-1 $235 $236 $52 $-1 $237 reversed single #
loop $-1 $-1 $238 $96 #
plane-surface $-1 0 0 -125.30167546617021 0 0 1 1 0 0 forward_v I I I I #
coedge $-1 $239 $240 $241 $242 forward $97 $-1 #
face $-1 $-1 $243 $53 $-1 $244 forward single #
loop $-1 $-1 $245 $99 #
plane-surface $-1 0 0 -3.0466475417340613 0 0 -1 -1 0 0 forward_v I I I I #
loop $-1 $-1 $246 $68 #
coedge $-1 $159 $159 $245 $247 reversed $100 $-1 #
face $-1 $-1 $248 $54 $-1 $249 forward single #
loop $-1 $-1 $250 $102 #
plane-surface $-1 0 0 -3.0466475417340613 0 0 -1 -1 0 0 forward_v I I I I #
loop $-1 $-1 $251 $69 #
coedge $-1 $164 $164 $250 $252 reversed $103 $-1 #
face $-1 $-1 $253 $55 $-1 $254 forward single #
loop $-1 $-1 $255 $105 #
plane-surface $-1 0 0 -3.0466475417340613 0 0 -1 -1 0 0 forward_v I I I I #
loop $-1 $-1 $256 $70 #
coedge $-1 $169 $169 $255 $257 reversed $106 $-1 #
face $-1 $258 $259 $56 $-1 $260 reversed single #
loop $-1 $-1 $261 $108 #
plane-surface $-1 0 0 -125.30167546617021 0 0 1 1 0 0 forward_v I I I I #
coedge $-1 $262 $263 $264 $265 forward $109 $-1 #
face $-1 $-1 $266 $57 $-1 $267 forward single #
loop $-1 $-1 $268 $111 #
plane-surface $-1 0 0 -4.0229041413617352 0 0 -1 -1 0 0 forward_v I I I I #
loop $-1 $-1 $269 $72 #
coedge $-1 $178 $178 $268 $270 reversed $112 $-1 #
face $-1 $271 $272 $58 $-1 $273 reversed single #
loop $-1 $-1 $274 $114 #
plane-surface $-1 0 0 -125.30167546617021 0 0 1 1 0 0 forward_v I I I I #
coedge $-1 $275 $276 $277 $278 forward $115 $-1 #
face $-1 $-1 $279 $59 $-1 $280 forward single #
loop $-1 $-1 $281 $117 #
plane-surface $-1 0 0 -4.0229041413617352 0 0 -1 -1 0 0 forward_v I I I I #
loop $-1 $-1 $282 $74 #
coedge $-1 $187 $187 $281 $283 reversed $118 $-1 #
face $-1 $284 $285 $45 $-1 $286 reversed single #
loop $-1 $-1 $287 $120 #
plane-surface $-1 0 -36.902370174256497 0 0 1 0 0 0 1 forward_v I I I I #
coedge $-1 $288 $289 $290 $291 forward $121 $-1 #
coedge $-1 $292 $123 $293 $294 forward $76 $-1 #
coedge $-1 $123 $292 $295 $296 forward $76 $-1 #
coedge $-1 $297 $298 $123 $195 reversed $299 $-1 #
edge $-1 $300 -36.902370174256497 $301 36.902370174256497 $194 $302 forward 7 unknown #
face $-1 $303 $304 $46 $-1 $305 reversed single #
loop $-1 $-1 $306 $124 #
plane-surface $-1 0 -1.8826570802780971 0 0 1 0 0 0 1 forward_v I I I I #
coedge $-1 $307 $308 $309 $310 forward $125 $-1 #
coedge $-1 $311 $127 $312 $313 forward $79 $-1 #
coedge $-1 $127 $311 $314 $315 forward $79 $-1 #
coedge $-1 $316 $317 $127 $203 reversed $318 $-1 #
edge $-1 $319 -1.8826570802780971 $320 1.8826570802780971 $202 $321 forward 7 unknown #
face $-1 $322 $323 $47 $-1 $324 reversed single #
loop $-1 $-1 $325 $128 #
plane-surface $-1 0 -1.8826570802780971 0 0 1 0 0 0 1 forward_v I I I I #
coedge $-1 $326 $327 $328 $329 forward $129 $-1 #
coedge $-1 $330 $131 $331 $332 forward $82 $-1 #
coedge $-1 $131 $330 $333 $334 forward $82 $-1 #
coedge $-1 $335 $336 $131 $211 reversed $337 $-1 #
edge $-1 $338 -1.8826570802780971 $339 1.8826570802780971 $210 $340 forward 7 unknown #
face $-1 $341 $342 $48 $-1 $343 reversed single #
loop $-1 $-1 $344 $132 #
plane-surface $-1 0 -250.60335093234045 0 0 1 0 0 0 1 forward_v I I I I #
coedge $-1 $345 $346 $347 $348 forward $133 $-1 #
coedge $-1 $349 $135 $350 $351 forward $85 $-1 #
coedge $-1 $135 $349 $352 $353 forward $85 $-1 #
coedge $-1 $354 $355 $135 $219 reversed $356 $-1 #
edge $-1 $357 -250.60335093234045 $358 250.60335093234045 $218 $359 forward 7 unknown #
loop $-1 $360 $361 $136 #
cone-surface $-1 0 0 0 0 0 1 0.5 0 0 1 I I -0.70710678118654746 0.70710678118654746 0.5 forward I I I I #
coedge $-1 $222 $222 $140 $224 forward $137 $-1 #
coedge $-1 $223 $223 $361 $362 forward $139 $-1 #
edge $-1 $363 0 $363 6.2831853071796004 $222 $364 forward 7 unknown #
loop $-1 $365 $366 $141 #
cone-surface $-1 0 0 0 0 0 1 0.5 0 0 1 I I -0.70710678118654746 0.70710678118654746 0.5 forward I I I I #
coedge $-1 $227 $227 $145 $229 forward $142 $-1 #
coedge $-1 $228 $228 $366 $367 forward $144 $-1 #
edge $-1 $368 0 $368 6.2831853071796004 $227 $369 forward 7 unknown #
loop $-1 $370 $371 $146 #
cone-surface $-1 0 0 0 0 0 1 0.5 0 0 1 I I -0.70710678118654746 0.70710678118654746 0.5 forward I I I I #
coedge $-1 $232 $232 $150 $234 forward $147 $-1 #
coedge $-1 $233 $233 $371 $372 forward $149 $-1 #
edge $-1 $373 0 $373 6.2831853071796004 $232 $374 forward 7 unknown #
face $-1 $375 $376 $52 $-1 $377 reversed single #
loop $-1 $-1 $378 $151 #
plane-surface $-1 0 -250.60335093234045 0 0 1 0 0 0 1 forward_v I I I I #
coedge $-1 $379 $380 $381 $382 forward $152 $-1 #
coedge $-1 $383 $154 $384 $385 forward $97 $-1 #
coedge $-1 $154 $383 $386 $387 forward $97 $-1 #
coedge $-1 $388 $389 $154 $242 reversed $390 $-1 #
edge $-1 $391 -250.60335093234045 $392 250.60335093234045 $241 $393 forward 7 unknown #
loop $-1 $394 $395 $155 #
cone-surface $-1 0 0 0 0 0 1 0.5 0 0 1 I I -0.70710678118654746 0.70710678118654746 0.5 forward I I I I #
coedge $-1 $245 $245 $159 $247 forward $156 $-1 #
coedge $-1 $246 $246 $395 $396 forward $158 $-1 #
edge $-1 $397 0 $397 6.2831853071796004 $245 $398 forward 7 unknown #
loop $-1 $399 $400 $160 #
cone-surface $-1 0 0 0 0 0 1 0.5 0 0 1 I I -0.70710678118654746 0.70710678118654746 0.5 forward I I I I #
coedge $-1 $250 $250 $164 $252 forward $161 $-1 #
coedge $-1 $251 $251 $400 $401 forward $163 $-1 #
edge $-1 $402 0 $402 6.2831853071796004 $250 $403 forward 7 unknown #
loop $-1 $404 $405 $165 #
cone-surface $-1 0 0 0 0 0 1 0.5 0 0 1 I I -0.70710678118654746 0.70710678118654746 0.5 forward I I I I #
coedge $-1 $255 $255 $169 $257 forward $166 $-1 #
coedge $-1 $256 $256 $405 $406 forward $168 $-1 #
edge $-1 $407 0 $407 6.2831853071796004 $255 $408 forward 7 unknown #
face $-1 $409 $410 $56 $-1 $411 reversed single #
loop $-1 $-1 $412 $170 #
plane-surface $-1 0 -250.60335093234045 0 0 1 0 0 0 1 forward_v I I I I #
coedge $-1 $413 $414 $415 $416 forward $171 $-1 #
coedge $-1 $417 $173 $418 $419 forward $109 $-1 #
coedge $-1 $173 $417 $420 $421 forward $109 $-1 #
coedge $-1 $422 $423 $173 $265 reversed $424 $-1 #
edge $-1 $425 -250.60335093234045 $426 250.60335093234045 $264 $427 forward 7 unknown #
loop $-1 $428 $429 $174 #
cone-surface $-1 0 0 0 0 0 1 0.5 0 0 1 I I -0.70710678118654746 0.70710678118654746 0.5 forward I I I I #
coedge $-1 $268 $268 $178 $270 forward $175 $-1 #
coedge $-1 $269 $269 $429 $430 forward $177 $-1 #
edge $-1 $431 0 $431 6.2831853071796004 $268 $432 forward 7 unknown #
face $-1 $433 $434 $58 $-1 $435 reversed single #
loop $-1 $-1 $436 $179 #
plane-surface $-1 0 -250.60335093234045 0 0 1 0 0 0 1 forward_v I I I I #
coedge $-1 $437 $438 $439 $440 forward $180 $-1 #
coedge $-1 $441 $182 $442 $443 forward $115 $-1 #
coedge $-1 $182 $441 $444 $445 forward $115 $-1 #
coedge $-1 $446 $447 $182 $278 reversed $448 $-1 #
edge $-1 $449 -250.60335093234045 $450 250.60335093234045 $277 $451 forward 7 unknown #
loop $-1 $452 $453 $183 #
cone-surface $-1 0 0 0 0 0 1 0.5 0 0 1 I I -0.70710678118654746 0.70710678118654746 0.5 forward I I I I #
coedge $-1 $281 $281 $187 $283 forward $184 $-1 #
coedge $-1 $282 $282 $453 $454 forward $186 $-1 #
edge $-1 $455 0 $455 6.2831853071796004 $281 $456 forward 7 unknown #
face $-1 $457 $458 $45 $-1 $459 reversed single #
loop $-1 $-1 $460 $188 #
plane-surface $-1 -62.650837733085112 0 0 1 0 0 0 0 -1 forward_v I I I I #
coedge $-1 $461 $295 $462 $463 forward $189 $-1 #
coedge $-1 $464 $191 $461 $465 forward $121 $-1 #
coedge $-1 $191 $464 $466 $467 forward $121 $-1 #
coedge $-1 $298 $297 $191 $291 reversed $299 $-1 #
edge $-1 $468 -36.902370174256497 $469 36.902370174256497 $290 $470 forward 7 unknown #
coedge $-1 $193 $192 $471 $472 forward $76 $-1 #
coedge $-1 $473 $474 $192 $294 reversed $458 $-1 #
edge $-1 $301 -62.650837733085112 $475 62.650837733085112 $293 $476 forward 7 unknown #
coedge $-1 $287 $477 $193 $296 reversed $189 $-1 #
edge $-1 $478 -62.650837733085112 $300 62.650837733085112 $295 $479 forward 7 unknown #
coedge $-1 $290 $194 $477 $480 forward $299 $-1 #
coedge $-1 $194 $290 $473 $481 reversed $299 $-1 #
loop $-1 $-1 $297 $457 #
vertex $-1 $195 $482 #
vertex $-1 $195 $483 #
straight-curve $-1 62.650837733085112 0 10.879706627656022 0 1 0 I I #
face $-1 $484 $485 $46 $-1 $486 reversed single #
loop $-1 $-1 $487 $196 #
plane-surface $-1 -4.2651491397468684 0 0 1 0 0 0 0 -1 forward_v I I I I #
coedge $-1 $488 $314 $489 $490 forward $197 $-1 #
coedge $-1 $491 $199 $488 $492 forward $125 $-1 #
coedge $-1 $199 $491 $493 $494 forward $125 $-1 #
coedge $-1 $317 $316 $199 $310 reversed $318 $-1 #
edge $-1 $495 -1.8826570802780971 $496 1.8826570802780971 $309 $497 forward 7 unknown #
coedge $-1 $201 $200 $498 $499 forward $79 $-1 #
coedge $-1 $500 $501 $200 $313 reversed $485 $-1 #
edge $-1 $320 -4.2651491397468684 $502 4.2651491397468684 $312 $503 forward 7 unknown #
coedge $-1 $306 $504 $201 $315 reversed $197 $-1 #
edge $-1 $505 -4.2651491397468684 $319 4.2651491397468684 $314 $506 forward 7 unknown #
coedge $-1 $309 $202 $504 $507 forward $318 $-1 #
coedge $-1 $202 $309 $500 $508 reversed $318 $-1 #
loop $-1 $-1 $316 $484 #
vertex $-1 $203 $509 #
vertex $-1 $203 $510 #
straight-curve $-1 4.2651491397468684 0 10.879706627656022 0 1 0 I I #
face $-1 $511 $512 $47 $-1 $513 reversed single #
loop $-1 $-1 $514 $204 #
plane-surface $-1 -4.2651491397468675 0 0 1 0 0 0 0 -1 forward_v I I I I #
coedge $-1 $515 $333 $516 $517 forward $205 $-1 #
coedge $-1 $518 $207 $515 $519 forward $129 $-1 #
coedge $-1 $207 $518 $520 $521 forward $129 $-1 #
coedge $-1 $336 $335 $207 $329 reversed $337 $-1 #
edge $-1 $522 -1.8826570802780971 $523 1.8826570802780971 $328 $524 forward 7 unknown #
coedge $-1 $209 $208 $525 $526 forward $82 $-1 #
coedge $-1 $527 $528 $208 $332 reversed $512 $-1 #
edge $-1 $339 -4.2651491397468675 $529 4.2651491397468675 $331 $530 forward 7 unknown #
coedge $-1 $325 $531 $209 $334 reversed $205 $-1 #
edge $-1 $532 -4.2651491397468675 $338 4.2651491397468675 $333 $533 forward 7 unknown #
coedge $-1 $328 $210 $531 $534 forward $337 $-1 #
coedge $-1 $210 $328 $527 $535 reversed $337 $-1 #
loop $-1 $-1 $335 $511 #
vertex $-1 $211 $536 #
vertex $-1 $211 $537 #
straight-curve $-1 4.2651491397468675 0 10.879706627656022 0 1 0 I I #
face $-1 $538 $539 $48 $-1 $540 reversed single #
loop $-1 $-1 $541 $212 #
plane-surface $-1 -6.9979127654026492 0 0 1 0 0 0 0 -1 forward_v I I I I #
coedge $-1 $542 $352 $543 $544 forward $213 $-1 #
coedge $-1 $545 $215 $542 $546 forward $133 $-1 #
coedge $-1 $215 $545 $547 $548 forward $133 $-1 #
coedge $-1 $355 $354 $215 $348 reversed $356 $-1 #
edge $-1 $549 -250.60335093234045 $550 250.60335093234045 $347 $551 forward 7 unknown #
coedge $-1 $217 $216 $552 $553 forward $85 $-1 #
coedge $-1 $554 $555 $216 $351 reversed $539 $-1 #
edge $-1 $358 -6.9979127654026492 $556 6.9979127654026492 $350 $557 forward 7 unknown #
coedge $-1 $344 $558 $217 $353 reversed $213 $-1 #
edge $-1 $559 -6.9979127654026492 $357 6.9979127654026492 $352 $560 forward 7 unknown #
coedge $-1 $347 $218 $558 $561 forward $356 $-1 #
coedge $-1 $218 $347 $554 $562 reversed $356 $-1 #
loop $-1 $-1 $354 $538 #
vertex $-1 $219 $563 #
vertex $-1 $219 $564 #
straight-curve $-1 6.9979127654026492 0 125.30167546617021 0 1 0 I I #
loop $-1 $-1 $565 $136 #
coedge $-1 $361 $361 $223 $362 reversed $220 $-1 #
edge $-1 $566 0 $566 6.2831853071796004 $361 $567 forward 7 unknown #
vertex $-1 $224 $568 #
ellipse-curve $-1 0 0 -3.0466475417340613 0 0 -1 1 0 0 1 I I #
loop $-1 $-1 $569 $141 #
coedge $-1 $366 $366 $228 $367 reversed $225 $-1 #
edge $-1 $570 0 $570 6.2831853071796004 $366 $571 forward 7 unknown #
vertex $-1 $229 $572 #
ellipse-curve $-1 0 0 -3.0466475417340613 0 0 -1 1 0 0 1 I I #
loop $-1 $-1 $573 $146 #
coedge $-1 $371 $371 $233 $372 reversed $230 $-1 #
edge $-1 $574 0 $574 6.2831853071796004 $371 $575 forward 7 unknown #
vertex $-1 $234 $576 #
ellipse-curve $-1 0 0 -3.0466475417340613 0 0 -1 1 0 0 1 I I #
face $-1 $577 $578 $52 $-1 $579 reversed single #
loop $-1 $-1 $580 $235 #
plane-surface $-1 -6.9979127654026492 0 0 1 0 0 0 0 -1 forward_v I I I I #
coedge $-1 $581 $386 $582 $583 forward $236 $-1 #
coedge $-1 $584 $238 $581 $585 forward $152 $-1 #
coedge $-1 $238 $584 $586 $587 forward $152 $-1 #
coedge $-1 $389 $388 $238 $382 reversed $390 $-1 #
edge $-1 $588 -250.60335093234045 $589 250.60335093234045 $381 $590 forward 7 unknown #
coedge $-1 $240 $239 $591 $592 forward $97 $-1 #
coedge $-1 $593 $594 $239 $385 reversed $578 $-1 #
edge $-1 $392 -6.9979127654026492 $595 6.9979127654026492 $384 $596 forward 7 unknown #
coedge $-1 $378 $597 $240 $387 reversed $236 $-1 #
edge $-1 $598 -6.9979127654026492 $391 6.9979127654026492 $386 $599 forward 7 unknown #
coedge $-1 $381 $241 $597 $600 forward $390 $-1 #
coedge $-1 $241 $381 $593 $601 reversed $390 $-1 #
loop $-1 $-1 $388 $577 #
vertex $-1 $242 $602 #
vertex $-1 $242 $603 #
straight-curve $-1 6.9979127654026492 0 125.30167546617021 0 1 0 I I #
loop $-1 $-1 $604 $155 #
coedge $-1 $395 $395 $246 $396 reversed $243 $-1 #
edge $-1 $605 0 $605 6.2831853071796004 $395 $606 forward 7 unknown #
vertex $-1 $247 $607 #
ellipse-curve $-1 0 0 -3.0466475417340613 0 0 -1 1 0 0 1 I I #
loop $-1 $-1 $608 $160 #
coedge $-1 $400 $400 $251 $401 reversed $248 $-1 #
edge $-1 $609 0 $609 6.2831853071796004 $400 $610 forward 7 unknown #
vertex $-1 $252 $611 #
ellipse-curve $-1 0 0 -3.0466475417340613 0 0 -1 1 0 0 1 I I #
loop $-1 $-1 $612 $165 #
coedge $-1 $405 $405 $256 $406 reversed $253 $-1 #
edge $-1 $613 0 $613 6.2831853071796004 $405 $614 forward 7 unknown #
vertex $-1 $257 $615 #
ellipse-curve $-1 0 0 -3.0466475417340613 0 0 -1 1 0 0 1 I I #
face $-1 $616 $617 $56 $-1 $618 reversed single #
loop $-1 $-1 $619 $258 #
plane-surface $-1 -7.5761653018784436 0 0 1 0 0 0 0 -1 forward_v I I I I #
coedge $-1 $620 $420 $621 $622 forward $259 $-1 #
coedge $-1 $623 $261 $620 $624 forward $171 $-1 #
coedge $-1 $261 $623 $625 $626 forward $171 $-1 #
coedge $-1 $423 $422 $261 $416 reversed $424 $-1 #
edge $-1 $627 -250.60335093234045 $628 250.60335093234045 $415 $629 forward 7 unknown #
coedge $-1 $263 $262 $630 $631 forward $109 $-1 #
coedge $-1 $632 $633 $262 $419 reversed $617 $-1 #
edge $-1 $426 -7.5761653018784436 $634 7.5761653018784436 $418 $635 forward 7 unknown #
coedge $-1 $412 $636 $263 $421 reversed $259 $-1 #
edge $-1 $637 -7.5761653018784436 $425 7.5761653018784436 $420 $638 forward 7 unknown #
coedge $-1 $415 $264 $636 $639 forward $424 $-1 #
coedge $-1 $264 $415 $632 $640 reversed $424 $-1 #
loop $-1 $-1 $422 $616 #
vertex $-1 $265 $641 #
vertex $-1 $265 $642 #
straight-curve $-1 7.5761653018784436 0 125.30167546617021 0 1 0 I I #
loop $-1 $-1 $643 $174 #
coedge $-1 $429 $429 $269 $430 reversed $266 $-1 #
edge $-1 $644 0 $644 6.2831853071796004 $429 $645 forward 7 unknown #
vertex $-1 $270 $646 #
ellipse-curve $-1 0 0 -4.0229041413617352 0 0 -1 1 0 0 1 I I #
face $-1 $647 $648 $58 $-1 $649 reversed single #
loop $-1 $-1 $650 $271 #
plane-surface $-1 -7.5761653018784436 0 0 1 0 0 0 0 -1 forward_v I I I I #
coedge $-1 $651 $444 $652 $653 forward $272 $-1 #
coedge $-1 $654 $274 $651 $655 forward $180 $-1 #
coedge $-1 $274 $654 $656 $657 forward $180 $-1 #
coedge $-1 $447 $446 $274 $440 reversed $448 $-1 #
edge $-1 $658 -250.60335093234045 $659 250.60335093234045 $439 $660 forward 7 unknown #
coedge $-1 $276 $275 $661 $662 forward $115 $-1 #
coedge $-1 $663 $664 $275 $443 reversed $648 $-1 #
edge $-1 $450 -7.5761653018784436 $665 7.5761653018784436 $442 $666 forward 7 unknown #
coedge $-1 $436 $667 $276 $445 reversed $272 $-1 #
edge $-1 $668 -7.5761653018784436 $449 7.5761653018784436 $444 $669 forward 7 unknown #
coedge $-1 $439 $277 $667 $670 forward $448 $-1 #
coedge $-1 $277 $439 $663 $671 reversed $448 $-1 #
loop $-1 $-1 $446 $647 #
vertex $-1 $278 $672 #
vertex $-1 $278 $673 #
straight-curve $-1 7.5761653018784436 0 125.30167546617021 0 1 0 I I #
loop $-1 $-1 $674 $183 #
coedge $-1 $453 $453 $282 $454 reversed $279 $-1 #
edge $-1 $675 0 $675 6.2831853071796004 $453 $676 forward 7 unknown #
vertex $-1 $283 $677 #
ellipse-curve $-1 0 0 -4.0229041413617352 0 0 -1 1 0 0 1 I I #
face $-1 $-1 $299 $45 $-1 $678 reversed single #
loop $-1 $-1 $473 $284 #
plane-surface $-1 0 36.902370174256497 0 0 -1 0 0 0 -1 forward_v I I I I #
coedge $-1 $679 $471 $474 $680 forward $285 $-1 #
coedge $-1 $477 $287 $288 $465 reversed $189 $-1 #
coedge $-1 $471 $679 $287 $463 reversed $285 $-1 #
edge $-1 $478 -10.879706627656022 $681 10.879706627656022 $462 $682 forward 7 unknown #
coedge $-1 $289 $288 $679 $683 forward $121 $-1 #
edge $-1 $469 -62.650837733085112 $681 62.650837733085112 $461 $684 forward 7 unknown #
coedge $-1 $474 $473 $289 $467 reversed $458 $-1 #
edge $-1 $685 -62.650837733085112 $468 62.650837733085112 $466 $686 forward 7 unknown #
vertex $-1 $291 $687 #
vertex $-1 $480 $688 #
straight-curve $-1 62.650837733085112 0 -10.879706627656022 0 -1 0 I I #
coedge $-1 $460 $462 $292 $472 reversed $285 $-1 #
edge $-1 $475 -36.902370174256497 $478 36.902370174256497 $471 $689 forward 7 unknown #
coedge $-1 $466 $293 $298 $481 forward $458 $-1 #
coedge $-1 $293 $466 $460 $680 reversed $458 $-1 #
vertex $-1 $294 $690 #
straight-curve $-1 0 36.902370174256497 10.879706627656022 -1 0 0 I I #
coedge $-1 $295 $461 $297 $480 reversed $189 $-1 #
vertex $-1 $472 $691 #
straight-curve $-1 0 -36.902370174256497 10.879706627656022 1 0 0 I I #
edge $-1 $300 -10.879706627656022 $469 10.879706627656022 $297 $692 forward 7 unknown #
edge $-1 $301 -10.879706627656022 $468 10.879706627656022 $298 $693 forward 7 unknown #
point $-1 62.650837733085112 -36.902370174256497 10.879706627656022 #
point $-1 62.650837733085112 36.902370174256497 10.879706627656022 #
face $-1 $-1 $318 $46 $-1 $694 reversed single #
loop $-1 $-1 $500 $303 #
plane-surface $-1 0 1.8826570802780971 0 0 -1 0 0 0 -1 forward_v I I I I #
coedge $-1 $695 $498 $501 $696 forward $304 $-1 #
coedge $-1 $504 $306 $307 $492 reversed $197 $-1 #
coedge $-1 $498 $695 $306 $490 reversed $304 $-1 #
edge $-1 $505 -10.879706627656022 $697 10.879706627656022 $489 $698 forward 7 unknown #
coedge $-1 $308 $307 $695 $699 forward $125 $-1 #
edge $-1 $496 -4.2651491397468684 $697 4.2651491397468684 $488 $700 forward 7 unknown #
coedge $-1 $501 $500 $308 $494 reversed $485 $-1 #
edge $-1 $701 -4.2651491397468684 $495 4.2651491397468684 $493 $702 forward 7 unknown #
vertex $-1 $310 $703 #
vertex $-1 $507 $704 #
straight-curve $-1 4.2651491397468684 0 -10.879706627656022 0 -1 0 I I #
coedge $-1 $487 $489 $311 $499 reversed $304 $-1 #
edge $-1 $502 -1.8826570802780971 $505 1.8826570802780971 $498 $705 forward 7 unknown #
coedge $-1 $493 $312 $317 $508 forward $485 $-1 #
coedge $-1 $312 $493 $487 $696 reversed $485 $-1 #
vertex $-1 $313 $706 #
straight-curve $-1 0 1.8826570802780971 10.879706627656022 -1 0 0 I I #
coedge $-1 $314 $488 $316 $507 reversed $197 $-1 #
vertex $-1 $499 $707 #
straight-curve $-1 0 -1.8826570802780971 10.879706627656022 1 0 0 I I #
edge $-1 $319 -10.879706627656022 $496 10.879706627656022 $316 $708 forward 7 unknown #
edge $-1 $320 -10.879706627656022 $495 10.879706627656022 $317 $709 forward 7 unknown #
point $-1 4.2651491397468684 -1.8826570802780971 10.879706627656022 #
point $-1 4.2651491397468684 1.8826570802780971 10.879706627656022 #
face $-1 $-1 $337 $47 $-1 $710 reversed single #
loop $-1 $-1 $527 $322 #
plane-surface $-1 0 1.8826570802780971 0 0 -1 0 0 0 -1 forward_v I I I I #
coedge $-1 $711 $525 $528 $712 forward $323 $-1 #
coedge $-1 $531 $325 $326 $519 reversed $205 $-1 #
coedge $-1 $525 $711 $325 $517 reversed $323 $-1 #
edge $-1 $532 -10.879706627656022 $713 10.879706627656022 $516 $714 forward 7 unknown #
coedge $-1 $327 $326 $711 $715 forward $129 $-1 #
edge $-1 $523 -4.2651491397468675 $713 4.2651491397468675 $515 $716 forward 7 unknown #
coedge $-1 $528 $527 $327 $521 reversed $512 $-1 #
edge $-1 $717 -4.2651491397468675 $522 4.2651491397468675 $520 $718 forward 7 unknown #
vertex $-1 $329 $719 #
vertex $-1 $534 $720 #
straight-curve $-1 4.2651491397468675 0 -10.879706627656022 0 -1 0 I I #
coedge $-1 $514 $516 $330 $526 reversed $323 $-1 #
edge $-1 $529 -1.8826570802780971 $532 1.8826570802780971 $525 $721 forward 7 unknown #
coedge $-1 $520 $331 $336 $535 forward $512 $-1 #
coedge $-1 $331 $520 $514 $712 reversed $512 $-1 #
vertex $-1 $332 $722 #
straight-curve $-1 0 1.8826570802780971 10.879706627656022 -1 0 0 I I #
coedge $-1 $333 $515 $335 $534 reversed $205 $-1 #
vertex $-1 $526 $723 #
straight-curve $-1 0 -1.8826570802780971 10.879706627656022 1 0 0 I I #
edge $-1 $338 -10.879706627656022 $523 10.879706627656022 $335 $724 forward 7 unknown #
edge $-1 $339 -10.879706627656022 $522 10.879706627656022 $336 $725 forward 7 unknown #
point $-1 4.2651491397468675 -1.8826570802780971 10.879706627656022 #
point $-1 4.2651491397468675 1.8826570802780971 10.879706627656022 #
face $-1 $-1 $356 $48 $-1 $726 reversed single #
loop $-1 $-1 $554 $341 #
plane-surface $-1 0 250.60335093234045 0 0 -1 0 0 0 -1 forward_v I I I I #
coedge $-1 $727 $552 $555 $728 forward $342 $-1 #
coedge $-1 $558 $344 $345 $546 reversed $213 $-1 #
coedge $-1 $552 $727 $344 $544 reversed $342 $-1 #
edge $-1 $559 -125.30167546617021 $729 125.30167546617021 $543 $730 forward 7 unknown #
coedge $-1 $346 $345 $727 $731 forward $133 $-1 #
edge $-1 $550 -6.9979127654026492 $729 6.9979127654026492 $542 $732 forward 7 unknown #
coedge $-1 $555 $554 $346 $548 reversed $539 $-1 #
edge $-1 $733 -6.9979127654026492 $549 6.9979127654026492 $547 $734 forward 7 unknown #
vertex $-1 $348 $735 #
vertex $-1 $561 $736 #
straight-curve $-1 6.9979127654026492 0 -125.30167546617021 0 -1 0 I I #
coedge $-1 $541 $543 $349 $553 reversed $342 $-1 #
edge $-1 $556 -250.60335093234045 $559 250.60335093234045 $552 $737 forward 7 unknown #
coedge $-1 $547 $350 $355 $562 forward $539 $-1 #
coedge $-1 $350 $547 $541 $728 reversed $539 $-1 #
vertex $-1 $351 $738 #
straight-curve $-1 0 250.60335093234045 125.30167546617021 -1 0 0 I I #
coedge $-1 $352 $542 $354 $561 reversed $213 $-1 #
vertex $-1 $553 $739 #
straight-curve $-1 0 -250.60335093234045 125.30167546617021 1 0 0 I I #
edge $-1 $357 -125.30167546617021 $550 125.30167546617021 $354 $740 forward 7 unknown #
edge $-1 $358 -125.30167546617021 $549 125.30167546617021 $355 $741 forward 7 unknown #
point $-1 6.9979127654026492 -250.60335093234045 125.30167546617021 #
point $-1 6.9979127654026492 250.60335093234045 125.30167546617021 #
coedge $-1 $565 $565 $-1 $742 reversed $360 $-1 #
vertex $-1 $362 $743 #
ellipse-curve $-1 0 0 -0.5 0 0 -1 1 0 0 1 I I #
point $-1 1 0 -3.0466475417340613 #
coedge $-1 $569 $569 $-1 $744 reversed $365 $-1 #
vertex $-1 $367 $745 #
ellipse-curve $-1 0 0 -0.5 0 0 -1 1 0 0 1 I I #
point $-1 1 0 -3.0466475417340613 #
coedge $-1 $573 $573 $-1 $746 reversed $370 $-1 #
vertex $-1 $372 $747 #
ellipse-curve $-1 0 0 -0.5 0 0 -1 1 0 0 1 I I #
point $-1 1 0 -3.0466475417340613 #
face $-1 $-1 $390 $52 $-1 $748 reversed single #
loop $-1 $-1 $593 $375 #
plane-surface $-1 0 250.60335093234045 0 0 -1 0 0 0 -1 forward_v I I I I #
coedge $-1 $749 $591 $594 $750 forward $376 $-1 #
coedge $-1 $597 $378 $379 $585 reversed $236 $-1 #
coedge $-1 $591 $749 $378 $583 reversed $376 $-1 #
edge $-1 $598 -125.30167546617021 $751 125.30167546617021 $582 $752 forward 7 unknown #
coedge $-1 $380 $379 $749 $753 forward $152 $-1 #
edge $-1 $589 -6.9979127654026492 $751 6.9979127654026492 $581 $754 forward 7 unknown #
coedge $-1 $594 $593 $380 $587 reversed $578 $-1 #
edge $-1 $755 -6.9979127654026492 $588 6.9979127654026492 $586 $756 forward 7 unknown #
vertex $-1 $382 $757 #
vertex $-1 $600 $758 #
straight-curve $-1 6.9979127654026492 0 -125.30167546617021 0 -1 0 I I #
coedge $-1 $580 $582 $383 $592 reversed $376 $-1 #
edge $-1 $595 -250.60335093234045 $598 250.60335093234045 $591 $759 forward 7 unknown #
coedge $-1 $586 $384 $389 $601 forward $578 $-1 #
coedge $-1 $384 $586 $580 $750 reversed $578 $-1 #
vertex $-1 $385 $760 #
straight-curve $-1 0 250.60335093234045 125.30167546617021 -1 0 0 I I #
coedge $-1 $386 $581 $388 $600 reversed $236 $-1 #
vertex $-1 $592 $761 #
straight-curve $-1 0 -250.60335093234045 125.30167546617021 1 0 0 I I #
edge $-1 $391 -125.30167546617021 $589 125.30167546617021 $388 $762 forward 7 unknown #
edge $-1 $392 -125.30167546617021 $588 125.30167546617021 $389 $763 forward 7 unknown #
point $-1 6.9979127654026492 -250.60335093234045 125.30167546617021 #
point $-1 6.9979127654026492 250.60335093234045 125.30167546617021 #
coedge $-1 $604 $604 $-1 $764 reversed $394 $-1 #
vertex $-1 $396 $765 #
ellipse-curve $-1 0 0 -0.5 0 0 -1 1 0 0 1 I I #
point $-1 1 0 -3.0466475417340613 #
coedge $-1 $608 $608 $-1 $766 reversed $399 $-1 #
vertex $-1 $401 $767 #
ellipse-curve $-1 0 0 -0.5 0 0 -1 1 0 0 1 I I #
point $-1 1 0 -3.0466475417340613 #
coedge $-1 $612 $612 $-1 $768 reversed $404 $-1 #
vertex $-1 $406 $769 #
ellipse-curve $-1 0 0 -0.5 0 0 -1 1 0 0 1 I I #
point $-1 1 0 -3.0466475417340613 #
face $-1 $-1 $424 $56 $-1 $770 reversed single #
loop $-1 $-1 $632 $409 #
plane-surface $-1 0 250.60335093234045 0 0 -1 0 0 0 -1 forward_v I I I I #
coedge $-1 $771 $630 $633 $772 forward $410 $-1 #
coedge $-1 $636 $412 $413 $624 reversed $259 $-1 #
coedge $-1 $630 $771 $412 $622 reversed $410 $-1 #
edge $-1 $637 -125.30167546617021 $773 125.30167546617021 $621 $774 forward 7 unknown #
coedge $-1 $414 $413 $771 $775 forward $171 $-1 #
edge $-1 $628 -7.5761653018784436 $773 7.5761653018784436 $620 $776 forward 7 unknown #
coedge $-1 $633 $632 $414 $626 reversed $617 $-1 #
edge $-1 $777 -7.5761653018784436 $627 7.5761653018784436 $625 $778 forward 7 unknown #
vertex $-1 $416 $779 #
vertex $-1 $639 $780 #
straight-curve $-1 7.5761653018784436 0 -125.30167546617021 0 -1 0 I I #
coedge $-1 $619 $621 $417 $631 reversed $410 $-1 #
edge $-1 $634 -250.60335093234045 $637 250.60335093234045 $630 $781 forward 7 unknown #
coedge $-1 $625 $418 $423 $640 forward $617 $-1 #
coedge $-1 $418 $625 $619 $772 reversed $617 $-1 #
vertex $-1 $419 $782 #
straight-curve $-1 0 250.60335093234045 125.30167546617021 -1 0 0 I I #
coedge $-1 $420 $620 $422 $639 reversed $259 $-1 #
vertex $-1 $631 $783 #
straight-curve $-1 0 -250.60335093234045 125.30167546617021 1 0 0 I I #
edge $-1 $425 -125.30167546617021 $628 125.30167546617021 $422 $784 forward 7 unknown #
edge $-1 $426 -125.30167546617021 $627 125.30167546617021 $423 $785 forward 7 unknown #
point $-1 7.5761653018784436 -250.60335093234045 125.30167546617021 #
point $-1 7.5761653018784436 250.60335093234045 125.30167546617021 #
coedge $-1 $643 $643 $-1 $786 reversed $428 $-1 #
vertex $-1 $430 $787 #
ellipse-curve $-1 0 0 -0.5 0 0 -1 1 0 0 1 I I #
point $-1 1 0 -4.0229041413617352 #
face $-1 $-1 $448 $58 $-1 $788 reversed single #
loop $-1 $-1 $663 $433 #
plane-surface $-1 0 250.60335093234045 0 0 -1 0 0 0 -1 forward_v I I I I #
coedge $-1 $789 $661 $664 $790 forward $434 $-1 #
coedge $-1 $667 $436 $437 $655 reversed $272 $-1 #
coedge $-1 $661 $789 $436 $653 reversed $434 $-1 #
edge $-1 $668 -125.30167546617021 $791 125.30167546617021 $652 $792 forward 7 unknown #
coedge $-1 $438 $437 $789 $793 forward $180 $-1 #
edge $-1 $659 -7.5761653018784436 $791 7.5761653018784436 $651 $794 forward 7 unknown #
coedge $-1 $664 $663 $438 $657 reversed $648 $-1 #
edge $-1 $795 -7.5761653018784436 $658 7.5761653018784436 $656 $796 forward 7 unknown #
vertex $-1 $440 $797 #
vertex $-1 $670 $798 #
straight-curve $-1 7.5761653018784436 0 -125.30167546617021 0 -1 0 I I #
coedge $-1 $650 $652 $441 $662 reversed $434 $-1 #
edge $-1 $665 -250.60335093234045 $668 250.60335093234045 $661 $799 forward 7 unknown #
coedge $-1 $656 $442 $447 $671 forward $648 $-1 #
coedge $-1 $442 $656 $650 $790 reversed $648 $-1 #
vertex $-1 $443 $800 #
straight-curve $-1 0 250.60335093234045 125.30167546617021 -1 0 0 I I #
coedge $-1 $444 $651 $446 $670 reversed $272 $-1 #
vertex $-1 $662 $801 #
straight-curve $-1 0 -250.60335093234045 125.30167546617021 1 0 0 I I #
edge $-1 $449 -125.30167546617021 $659 125.30167546617021 $446 $802 forward 7 unknown #
edge $-1 $450 -125.30167546617021 $658 125.30167546617021 $447 $803 forward 7 unknown #
point $-1 7.5761653018784436 -250.60335093234045 125.30167546617021 #
point $-1 7.5761653018784436 250.60335093234045 125.30167546617021 #
coedge $-1 $674 $674 $-1 $804 reversed $452 $-1 #
vertex $-1 $454 $805 #
ellipse-curve $-1 0 0 -0.5 0 0 -1 1 0 0 1 I I #
point $-1 1 0 -4.0229041413617352 #
plane-surface $-1 62.650837733085112 0 0 -1 0 0 0 0 1 forward_v I I I I #
coedge $-1 $462 $460 $464 $683 reversed $285 $-1 #
edge $-1 $475 -10.879706627656022 $685 10.879706627656022 $474 $806 forward 7 unknown #
vertex $-1 $683 $807 #
straight-curve $-1 -62.650837733085112 -36.902370174256497 0 0 0 -1 I I #
edge $-1 $681 -36.902370174256497 $685 36.902370174256497 $679 $808 forward 7 unknown #
straight-curve $-1 0 -36.902370174256497 -10.879706627656022 -1 0 0 I I #
vertex $-1 $467 $809 #
straight-curve $-1 0 36.902370174256497 -10.879706627656022 1 0 0 I I #
point $-1 62.650837733085112 36.902370174256497 -10.879706627656022 #
point $-1 62.650837733085112 -36.902370174256497 -10.879706627656022 #
straight-curve $-1 -62.650837733085112 0 10.879706627656022 0 -1 0 I I #
point $-1 -62.650837733085112 36.902370174256497 10.879706627656022 #
point $-1 -62.650837733085112 -36.902370174256497 10.879706627656022 #
straight-curve $-1 62.650837733085112 -36.902370174256497 0 0 0 -1 I I #
straight-curve $-1 62.650837733085112 36.902370174256497 0 0 0 -1 I I #
plane-surface $-1 4.2651491397468684 0 0 -1 0 0 0 0 1 forward_v I I I I #
coedge $-1 $489 $487 $491 $699 reversed $304 $-1 #
edge $-1 $502 -10.879706627656022 $701 10.879706627656022 $501 $810 forward 7 unknown #
vertex $-1 $699 $811 #
straight-curve $-1 -4.2651491397468684 -1.8826570802780971 0 0 0 -1 I I #
edge $-1 $697 -1.8826570802780971 $701 1.8826570802780971 $695 $812 forward 7 unknown #
straight-curve $-1 0 -1.8826570802780971 -10.879706627656022 -1 0 0 I I #
vertex $-1 $494 $813 #
straight-curve $-1 0 1.8826570802780971 -10.879706627656022 1 0 0 I I #
point $-1 4.2651491397468684 1.8826570802780971 -10.879706627656022 #
point $-1 4.2651491397468684 -1.8826570802780971 -10.879706627656022 #
straight-curve $-1 -4.2651491397468684 0 10.879706627656022 0 -1 0 I I #
point $-1 -4.2651491397468684 1.8826570802780971 10.879706627656022 #
point $-1 -4.2651491397468684 -1.8826570802780971 10.879706627656022 #
straight-curve $-1 4.2651491397468684 -1.8826570802780971 0 0 0 -1 I I #
straight-curve $-1 4.2651491397468684 1.8826570802780971 0 0 0 -1 I I #
plane-surface $-1 4.2651491397468675 0 0 -1 0 0 0 0 1 forward_v I I I I #
coedge $-1 $516 $514 $518 $715 reversed $323 $-1 #
edge $-1 $529 -10.879706627656022 $717 10.879706627656022 $528 $814 forward 7 unknown #
vertex $-1 $715 $815 #
straight-curve $-1 -4.2651491397468675 -1.8826570802780971 0 0 0 -1 I I #
edge $-1 $713 -1.8826570802780971 $717 1.8826570802780971 $711 $816 forward 7 unknown #
straight-curve $-1 0 -1.8826570802780971 -10.879706627656022 -1 0 0 I I #
vertex $-1 $521 $817 #
straight-curve $-1 0 1.8826570802780971 -10.879706627656022 1 0 0 I I #
point $-1 4.2651491397468675 1.8826570802780971 -10.879706627656022 #
point $-1 4.2651491397468675 -1.8826570802780971 -10.879706627656022 #
straight-curve $-1 -4.2651491397468675 0 10.879706627656022 0 -1 0 I I #
point $-1 -4.2651491397468675 1.8826570802780971 10.879706627656022 #
point $-1 -4.2651491397468675 -1.8826570802780971 10.879706627656022 #
straight-curve $-1 4.2651491397468675 -1.8826570802780971 0 0 0 -1 I I #
straight-curve $-1 4.2651491397468675 1.8826570802780971 0 0 0 -1 I I #
plane-surface $-1 6.9979127654026492 0 0 -1 0 0 0 0 1 forward_v I I I I #
coedge $-1 $543 $541 $545 $731 reversed $342 $-1 #
edge $-1 $556 -125.30167546617021 $733 125.30167546617021 $555 $818 forward 7 unknown #
vertex $-1 $731 $819 #
straight-curve $-1 -6.9979127654026492 -250.60335093234045 0 0 0 -1 I I #
edge $-1 $729 -250.60335093234045 $733 250.60335093234045 $727 $820 forward 7 unknown #
straight-curve $-1 0 -250.60335093234045 -125.30167546617021 -1 0 0 I I #
vertex $-1 $548 $821 #
straight-curve $-1 0 250.60335093234045 -125.30167546617021 1 0 0 I I #
point $-1 6.9979127654026492 250.60335093234045 -125.30167546617021 #
point $-1 6.9979127654026492 -250.60335093234045 -125.30167546617021 #
straight-curve $-1 -6.9979127654026492 0 125.30167546617021 0 -1 0 I I #
point $-1 -6.9979127654026492 250.60335093234045 125.30167546617021 #
point $-1 -6.9979127654026492 -250.60335093234045 125.30167546617021 #
straight-curve $-1 6.9979127654026492 -250.60335093234045 0 0 0 -1 I I #
straight-curve $-1 6.9979127654026492 250.60335093234045 0 0 0 -1 I I #
edge $-1 $822 1 $822 0 $565 $-1 forward 7 unknown #
point $-1 1 0 -0.5 #
edge $-1 $823 1 $823 0 $569 $-1 forward 7 unknown #
point $-1 1 0 -0.5 #
edge $-1 $824 1 $824 0 $573 $-1 forward 7 unknown #
point $-1 1 0 -0.5 #
plane-surface $-1 6.9979127654026492 0 0 -1 0 0 0 0 1 forward_v I I I I #
coedge $-1 $582 $580 $584 $753 reversed $376 $-1 #
edge $-1 $595 -125.30167546617021 $755 125.30167546617021 $594 $825 forward 7 unknown #
vertex $-1 $753 $826 #
straight-curve $-1 -6.9979127654026492 -250.60335093234045 0 0 0 -1 I I #
edge $-1 $751 -250.60335093234045 $755 250.60335093234045 $749 $827 forward 7 unknown #
straight-curve $-1 0 -250.60335093234045 -125.30167546617021 -1 0 0 I I #
vertex $-1 $587 $828 #
straight-curve $-1 0 250.60335093234045 -125.30167546617021 1 0 0 I I #
point $-1 6.9979127654026492 250.60335093234045 -125.30167546617021 #
point $-1 6.9979127654026492 -250.60335093234045 -125.30167546617021 #
straight-curve $-1 -6.9979127654026492 0 125.30167546617021 0 -1 0 I I #
point $-1 -6.9979127654026492 250.60335093234045 125.30167546617021 #
point $-1 -6.9979127654026492 -250.60335093234045 125.30167546617021 #
straight-curve $-1 6.9979127654026492 -250.60335093234045 0 0 0 -1 I I #
straight-curve $-1 6.9979127654026492 250.60335093234045 0 0 0 -1 I I #
edge $-1 $829 1 $829 0 $604 $-1 forward 7 unknown #
point $-1 1 0 -0.5 #
edge $-1 $830 1 $830 0 $608 $-1 forward 7 unknown #
point $-1 1 0 -0.5 #
edge $-1 $831 1 $831 0 $612 $-1 forward 7 unknown #
point $-1 1 0 -0.5 #
plane-surface $-1 7.5761653018784436 0 0 -1 0 0 0 0 1 forward_v I I I I #
coedge $-1 $621 $619 $623 $775 reversed $410 $-1 #
edge $-1 $634 -125.30167546617021 $777 125.30167546617021 $633 $832 forward 7 unknown #
vertex $-1 $775 $833 #
straight-curve $-1 -7.5761653018784436 -250.60335093234045 0 0 0 -1 I I #
edge $-1 $773 -250.60335093234045 $777 250.60335093234045 $771 $834 forward 7 unknown #
straight-curve $-1 0 -250.60335093234045 -125.30167546617021 -1 0 0 I I #
vertex $-1 $626 $835 #
straight-curve $-1 0 250.60335093234045 -125.30167546617021 1 0 0 I I #
point $-1 7.5761653018784436 250.60335093234045 -125.30167546617021 #
point $-1 7.5761653018784436 -250.60335093234045 -125.30167546617021 #
straight-curve $-1 -7.5761653018784436 0 125.30167546617021 0 -1 0 I I #
point $-1 -7.5761653018784436 250.60335093234045 125.30167546617021 #
point $-1 -7.5761653018784436 -250.60335093234045 125.30167546617021 #
straight-curve $-1 7.5761653018784436 -250.60335093234045 0 0 0 -1 I I #
straight-curve $-1 7.5761653018784436 250.60335093234045 0 0 0 -1 I I #
edge $-1 $836 1 $836 0 $643 $-1 forward 7 unknown #
point $-1 1 0 -0.5 #
plane-surface $-1 7.5761653018784436 0 0 -1 0 0 0 0 1 forward_v I I I I #
coedge $-1 $652 $650 $654 $793 reversed $434 $-1 #
edge $-1 $665 -125.30167546617021 $795 125.30167546617021 $664 $837 forward 7 unknown #
vertex $-1 $793 $838 #
straight-curve $-1 -7.5761653018784436 -250.60335093234045 0 0 0 -1 I I #
edge $-1 $791 -250.60335093234045 $795 250.60335093234045 $789 $839 forward 7 unknown #
straight-curve $-1 0 -250.60335093234045 -125.30167546617021 -1 0 0 I I #
vertex $-1 $657 $840 #
straight-curve $-1 0 250.60335093234045 -125.30167546617021 1 0 0 I I #
point $-1 7.5761653018784436 250.60335093234045 -125.30167546617021 #
point $-1 7.5761653018784436 -250.60335093234045 -125.30167546617021 #
straight-curve $-1 -7.5761653018784436 0 125.30167546617021 0 -1 0 I I #
point $-1 -7.5761653018784436 250.60335093234045 125.30167546617021 #
point $-1 -7.5761653018784436 -250.60335093234045 125.30167546617021 #
straight-curve $-1 7.5761653018784436 -250.60335093234045 0 0 0 -1 I I #
straight-curve $-1 7.5761653018784436 250.60335093234045 0 0 0 -1 I I #
edge $-1 $841 1 $841 0 $674 $-1 forward 7 unknown #
point $-1 1 0 -0.5 #
straight-curve $-1 -62.650837733085112 36.902370174256497 0 0 0 -1 I I #
point $-1 -62.650837733085112 -36.902370174256497 -10.879706627656022 #
straight-curve $-1 -62.650837733085112 0 -10.879706627656022 0 1 0 I I #
point $-1 -62.650837733085112 36.902370174256497 -10.879706627656022 #
straight-curve $-1 -4.2651491397468684 1.8826570802780971 0 0 0 -1 I I #
point $-1 -4.2651491397468684 -1.8826570802780971 -10.879706627656022 #
straight-curve $-1 -4.2651491397468684 0 -10.879706627656022 0 1 0 I I #
point $-1 -4.2651491397468684 1.8826570802780971 -10.879706627656022 #
straight-curve $-1 -4.2651491397468675 1.8826570802780971 0 0 0 -1 I I #
point $-1 -4.2651491397468675 -1.8826570802780971 -10.879706627656022 #
straight-curve $-1 -4.2651491397468675 0 -10.879706627656022 0 1 0 I I #
point $-1 -4.2651491397468675 1.8826570802780971 -10.879706627656022 #
straight-curve $-1 -6.9979127654026492 250.60335093234045 0 0 0 -1 I I #
point $-1 -6.9979127654026492 -250.60335093234045 -125.30167546617021 #
straight-curve $-1 -6.9979127654026492 0 -125.30167546617021 0 1 0 I I #
point $-1 -6.9979127654026492 250.60335093234045 -125.30167546617021 #
vertex $-1 $742 $842 #
vertex $-1 $744 $843 #
vertex $-1 $746 $844 #
straight-curve $-1 -6.9979127654026492 250.60335093234045 0 0 0 -1 I I #
point $-1 -6.9979127654026492 -250.60335093234045 -125.30167546617021 #
straight-curve $-1 -6.9979127654026492 0 -125.30167546617021 0 1 0 I I #
point $-1 -6.9979127654026492 250.60335093234045 -125.30167546617021 #
vertex $-1 $764 $845 #
vertex $-1 $766 $846 #
vertex $-1 $768 $847 #
straight-curve $-1 -7.5761653018784436 250.60335093234045 0 0 0 -1 I I #
point $-1 -7.5761653018784436 -250.60335093234045 -125.30167546617021 #
straight-curve $-1 -7.5761653018784436 0 -125.30167546617021 0 1 0 I I #
point $-1 -7.5761653018784436 250.60335093234045 -125.30167546617021 #
vertex $-1 $786 $848 #
straight-curve $-1 -7.5761653018784436 250.60335093234045 0 0 0 -1 I I #
point $-1 -7.5761653018784436 -250.60335093234045 -125.30167546617021 #
straight-curve $-1 -7.5761653018784436 0 -125.30167546617021 0 1 0 I I #
point $-1 -7.5761653018784436 250.60335093234045 -125.30167546617021 #
vertex $-1 $804 $849 #
point $-1 0 0 0.5 #
point $-1 0 0 0.5 #
point $-1 0 0 0.5 #
point $-1 0 0 0.5 #
point $-1 0 0 0.5 #
point $-1 0 0 0.5 #
point $-1 0 0 0.5 #
point $-1 0 0 0.5 #
End-of-ACIS-data 