500 0 9 0           
7 Unknown 11 ACIS 5.0 NT 24 Fri Mar 26 19:48:31 1999 
-1 9.9999999999999995e-007 1e-010 
body $-1 $9 $-1 $10 #
body $-1 $11 $-1 $12 #
body $-1 $13 $-1 $14 #
body $-1 $15 $-1 $16 #
body $-1 $17 $-1 $18 #
body $-1 $19 $-1 $20 #
body $-1 $21 $-1 $22 #
body $-1 $23 $-1 $24 #
body $-1 $25 $-1 $26 #
lump $-1 $-1 $27 $0 #
transform $-1 1 0 0 0 1 0 0 0 1 68.638569292275761 33.201737213738546 8.4845956773351148 1 rotate no_reflect no_shear #
lump $-1 $-1 $28 $1 #
transform $-1 1 0 0 0 1 0 0 0 1 68.638569292275761 33.201737213738546 8.4845956773351148 1 rotate no_reflect no_shear #
lump $-1 $-1 $29 $2 #
transform $-1 1 0 0 0 1 0 0 0 1 68.638569292275761 33.201737213738546 8.4845956773351148 1 rotate no_reflect no_shear #
lump $-1 $-1 $30 $3 #
transform $-1 1 0 0 0 1 0 0 0 1 68.638569292275761 33.201737213738546 8.4845956773351148 1 rotate no_reflect no_shear #
lump $-1 $-1 $31 $4 #
transform $-1 1 0 0 0 1 0 0 0 1 68.638569292275761 33.201737213738546 8.4845956773351148 1 rotate no_reflect no_shear #
lump $-1 $-1 $32 $5 #
transform $-1 1 0 0 0 1 0 0 0 1 68.638569292275761 33.201737213738546 8.4845956773351148 1 rotate no_reflect no_shear #
lump $-1 $-1 $33 $6 #
transform $-1 1 0 0 0 1 0 0 0 1 68.638569292275761 33.201737213738546 8.4845956773351148 1 rotate no_reflect no_shear #
lump $-1 $-1 $34 $7 #
transform $-1 1 0 0 0 1 0 0 0 1 68.638569292275761 33.201737213738546 8.4845956773351148 1 rotate no_reflect no_shear #
lump $-1 $-1 $35 $8 #
transform $-1 1 0 0 0 1 0 0 0 1 68.638569292275761 33.201737213738546 8.4845956773351148 1 rotate no_reflect no_shear #
shell $-1 $-1 $-1 $36 $-1 $9 #
shell $-1 $-1 $-1 $37 $-1 $11 #
shell $-1 $-1 $-1 $38 $-1 $13 #
shell $-1 $-1 $-1 $39 $-1 $15 #
shell $-1 $-1 $-1 $40 $-1 $17 #
shell $-1 $-1 $-1 $41 $-1 $19 #
shell $-1 $-1 $-1 $42 $-1 $21 #
shell $-1 $-1 $-1 $43 $-1 $23 #
shell $-1 $-1 $-1 $44 $-1 $25 #
face $-1 $45 $46 $27 $-1 $47 forward single #
face $-1 $48 $49 $28 $-1 $50 reversed single #
face $-1 $51 $52 $29 $-1 $53 reversed single #
face $-1 $54 $55 $30 $-1 $56 forward single #
face $-1 $57 $58 $31 $-1 $59 forward single #
face $-1 $60 $61 $32 $-1 $62 reversed single #
face $-1 $63 $64 $33 $-1 $65 forward single #
face $-1 $66 $67 $34 $-1 $68 forward single #
face $-1 $69 $70 $35 $-1 $71 forward single #
face $-1 $72 $73 $27 $-1 $74 reversed single #
loop $-1 $-1 $75 $36 #
plane-surface $-1 0 0 8.4845956773351148 0 0 1 1 0 0 forward_v I I I I #
face $-1 $76 $77 $28 $-1 $78 reversed single #
loop $-1 $-1 $79 $37 #
plane-surface $-1 0 -30.117445434777224 5.4845956773351148 0 0 1 1 0 0 forward_v I I I I #
face $-1 $80 $81 $29 $-1 $82 reversed single #
loop $-1 $-1 $83 $38 #
plane-surface $-1 72.026767664545005 -14.745544749313545 196.09309577974238 0 -1 0 -0.71933980857756763 0 -0.69465836192734942 forward_v I I I I #
face $-1 $84 $85 $30 $-1 $86 forward single #
loop $-1 $87 $88 $39 #
cone-surface $-1 64.562511226051029 -23.522408253958087 4.3291573780231634 -0.71933980857756763 0 -0.69465836192734942 0.69465836192734942 0 -0.71933980857756763 1 I I 0 1 1 forward I I I I #
face $-1 $89 $90 $31 $-1 $91 forward single #
loop $-1 $92 $93 $40 #
cone-surface $-1 64.562511226051029 -18.256290151171363 4.3291573780231634 -0.71933980857756763 0 -0.69465836192734942 0.69465836192734942 0 -0.71933980857756763 1 I I 0 1 1 forward I I I I #
face $-1 $94 $95 $32 $-1 $96 reversed single #
loop $-1 $-1 $97 $41 #
plane-surface $-1 -173.79895960981159 17.611758360914344 89.517499440743563 0 1 0 -0.7660444514056185 0 0.64278759981090561 forward_v I I I I #
face $-1 $98 $99 $33 $-1 $100 forward single #
loop $-1 $101 $102 $42 #
cone-surface $-1 -65.03594562051498 19.249701793715346 4.3952967107856322 0.7660444514056185 0 -0.64278759981090561 0.3213937999054528 0 0.38302222570280925 1 I I 0 1 0.5 forward I I I I #
face $-1 $103 $104 $34 $-1 $105 forward single #
loop $-1 $106 $107 $43 #
cone-surface $-1 -65.03594562051498 21.706616942916845 4.3952967107856322 0.7660444514056185 0 -0.64278759981090561 0.3213937999054528 0 0.38302222570280925 1 I I 0 1 0.5 forward I I I I #
face $-1 $108 $109 $35 $-1 $110 forward single #
loop $-1 $111 $112 $44 #
cone-surface $-1 -65.03594562051498 24.163532092118345 4.3952967107856322 0.7660444514056185 0 -0.64278759981090561 0.3213937999054528 0 0.38302222570280925 1 I I 0 1 0.5 forward I I I I #
face $-1 $113 $114 $27 $-1 $115 reversed single #
loop $-1 $-1 $116 $45 #
plane-surface $-1 0 0 -8.4845956773351148 0 0 1 1 0 0 forward_v I I I I #
coedge $-1 $117 $118 $119 $120 forward $46 $-1 #
face $-1 $121 $122 $28 $-1 $123 reversed single #
loop $-1 $-1 $124 $48 #
plane-surface $-1 0 -27.033153655815902 6.9845956773351148 0 -1 0 0 0 -1 forward_v I I I I #
coedge $-1 $125 $126 $127 $128 reversed $49 $-1 #
face $-1 $129 $130 $29 $-1 $131 forward single #
loop $-1 $-1 $132 $51 #
plane-surface $-1 -26.72214292694251 -20.889349202564723 100.73238356052408 0.71933980857756763 0 0.69465836192734942 0.69465836192734942 0 -0.71933980857756763 forward_v I I I I #
coedge $-1 $133 $134 $135 $136 reversed $52 $-1 #
face $-1 $-1 $137 $30 $-1 $138 forward single #
loop $-1 $139 $140 $54 #
cone-surface $-1 63.265813792555534 -23.522408253958087 3.0769512518968227 -0.71933980857756763 0 -0.69465836192734942 0.34732918096367471 0 -0.35966990428878381 1 I I -0.70710678118654746 0.70710678118654746 0.5 forward I I I I #
loop $-1 $-1 $141 $39 #
coedge $-1 $88 $88 $142 $143 reversed $55 $-1 #
face $-1 $-1 $144 $31 $-1 $145 forward single #
loop $-1 $146 $147 $57 #
cone-surface $-1 63.265813792555534 -18.256290151171363 3.0769512518968227 -0.71933980857756763 0 -0.69465836192734942 0.34732918096367471 0 -0.35966990428878381 1 I I -0.70710678118654746 0.70710678118654746 0.5 forward I I I I #
loop $-1 $-1 $148 $40 #
coedge $-1 $93 $93 $149 $150 reversed $58 $-1 #
face $-1 $151 $152 $32 $-1 $153 reversed single #
loop $-1 $-1 $154 $60 #
plane-surface $-1 -68.638569292275761 21.706616942916845 1.2774570210706315 -0.7660444514056185 0 0.64278759981090561 0.64278759981090561 0 0.7660444514056185 forward_v I I I I #
coedge $-1 $155 $156 $157 $158 reversed $61 $-1 #
face $-1 $-1 $159 $33 $-1 $160 forward single #
loop $-1 $161 $162 $63 #
cone-surface $-1 -64.265564450894828 19.249701793715346 3.7488701724156606 0.7660444514056185 0 -0.64278759981090561 0.1606968999527264 0 0.19151111285140462 1 I I -0.70710678118654746 0.70710678118654746 0.25 forward I I I I #
loop $-1 $-1 $163 $42 #
coedge $-1 $102 $102 $164 $165 reversed $64 $-1 #
face $-1 $-1 $166 $34 $-1 $167 forward single #
loop $-1 $168 $169 $66 #
cone-surface $-1 -64.265564450894828 21.706616942916845 3.7488701724156606 0.7660444514056185 0 -0.64278759981090561 0.1606968999527264 0 0.19151111285140462 1 I I -0.70710678118654746 0.70710678118654746 0.25 forward I I I I #
loop $-1 $-1 $170 $43 #
coedge $-1 $107 $107 $171 $172 reversed $67 $-1 #
face $-1 $-1 $173 $35 $-1 $174 forward single #
loop $-1 $175 $176 $69 #
cone-surface $-1 -64.265564450894828 24.163532092118345 3.7488701724156606 0.7660444514056185 0 -0.64278759981090561 0.1606968999527264 0 0.19151111285140462 1 I I -0.70710678118654746 0.70710678118654746 0.25 forward I I I I #
loop $-1 $-1 $177 $44 #
coedge $-1 $112 $112 $178 $179 reversed $70 $-1 #
face $-1 $180 $181 $27 $-1 $182 reversed single #
loop $-1 $-1 $183 $72 #
plane-surface $-1 0 -33.201737213738546 0 0 1 0 0 0 1 forward_v I I I I #
coedge $-1 $184 $185 $186 $187 forward $73 $-1 #
coedge $-1 $188 $75 $189 $190 forward $46 $-1 #
coedge $-1 $75 $188 $191 $192 forward $46 $-1 #
coedge $-1 $193 $194 $75 $120 reversed $195 $-1 #
edge $-1 $196 -33.201737213738546 $197 33.201737213738546 $119 $198 forward 7 unknown #
face $-1 $199 $200 $28 $-1 $201 reversed single #
loop $-1 $-1 $202 $76 #
plane-surface $-1 -68.638569292275761 0 0 1 0 0 0 0 -1 forward_v I I I I #
coedge $-1 $203 $204 $126 $205 reversed $77 $-1 #
coedge $-1 $206 $79 $207 $208 reversed $49 $-1 #
coedge $-1 $79 $206 $124 $205 forward $49 $-1 #
coedge $-1 $209 $210 $79 $128 forward $211 $-1 #
edge $-1 $212 -18.143014496349934 $213 -11.97443093842729 $127 $214 forward 7 unknown #
face $-1 $215 $216 $29 $-1 $217 forward single #
loop $-1 $-1 $218 $80 #
plane-surface $-1 0 -27.033153655815902 6.9845956773351148 0 -1 0 0 0 -1 forward_v I I I I #
coedge $-1 $219 $220 $221 $222 reversed $81 $-1 #
coedge $-1 $134 $83 $223 $224 reversed $52 $-1 #
coedge $-1 $83 $133 $219 $225 reversed $52 $-1 #
coedge $-1 $221 $226 $83 $136 forward $216 $-1 #
edge $-1 $227 -32.625185460003259 $228 -26.347124385967255 $135 $229 forward 7 unknown #
loop $-1 $-1 $142 $84 #
plane-surface $-1 -26.72214292694251 -20.889349202564723 100.73238356052408 0.71933980857756763 0 0.69465836192734942 0.69465836192734942 0 -0.71933980857756763 forward_v I I I I #
loop $-1 $-1 $230 $54 #
coedge $-1 $140 $140 $141 $231 reversed $85 $-1 #
coedge $-1 $141 $141 $140 $231 forward $87 $-1 #
coedge $-1 $142 $142 $88 $143 forward $137 $-1 #
edge $-1 $232 0 $232 6.2831853071796004 $142 $233 forward 7 unknown #
loop $-1 $-1 $149 $89 #
plane-surface $-1 -26.72214292694251 -20.889349202564723 100.73238356052408 0.71933980857756763 0 0.69465836192734942 0.69465836192734942 0 -0.71933980857756763 forward_v I I I I #
loop $-1 $-1 $234 $57 #
coedge $-1 $147 $147 $148 $235 reversed $90 $-1 #
coedge $-1 $148 $148 $147 $235 forward $92 $-1 #
coedge $-1 $149 $149 $93 $150 forward $144 $-1 #
edge $-1 $236 0 $236 6.2831853071796004 $149 $237 forward 7 unknown #
face $-1 $238 $239 $32 $-1 $240 forward single #
loop $-1 $-1 $241 $94 #
plane-surface $-1 -173.79895960981159 25.801475524919347 89.517499440743563 0 -1 0 0.7660444514056185 0 -0.64278759981090561 forward_v I I I I #
coedge $-1 $242 $243 $244 $245 reversed $95 $-1 #
coedge $-1 $156 $97 $246 $247 reversed $61 $-1 #
coedge $-1 $97 $155 $242 $248 reversed $61 $-1 #
coedge $-1 $244 $249 $97 $158 forward $239 $-1 #
edge $-1 $250 18.260910512630034 $251 24.308417742614083 $157 $252 forward 7 unknown #
loop $-1 $-1 $164 $98 #
plane-surface $-1 -68.638569292275761 21.706616942916845 1.2774570210706315 -0.7660444514056185 0 0.64278759981090561 0.64278759981090561 0 0.7660444514056185 forward_v I I I I #
loop $-1 $-1 $253 $63 #
coedge $-1 $162 $162 $163 $254 reversed $99 $-1 #
coedge $-1 $163 $163 $162 $254 forward $101 $-1 #
coedge $-1 $164 $164 $102 $165 forward $159 $-1 #
edge $-1 $255 0 $255 6.2831853071796004 $164 $256 forward 7 unknown #
loop $-1 $-1 $171 $103 #
plane-surface $-1 -68.638569292275761 21.706616942916845 1.2774570210706315 -0.7660444514056185 0 0.64278759981090561 0.64278759981090561 0 0.7660444514056185 forward_v I I I I #
loop $-1 $-1 $257 $66 #
coedge $-1 $169 $169 $170 $258 reversed $104 $-1 #
coedge $-1 $170 $170 $169 $258 forward $106 $-1 #
coedge $-1 $171 $171 $107 $172 forward $166 $-1 #
edge $-1 $259 0 $259 6.2831853071796004 $171 $260 forward 7 unknown #
loop $-1 $-1 $178 $108 #
plane-surface $-1 -68.638569292275761 21.706616942916845 1.2774570210706315 -0.7660444514056185 0 0.64278759981090561 0.64278759981090561 0 0.7660444514056185 forward_v I I I I #
loop $-1 $-1 $261 $69 #
coedge $-1 $176 $176 $177 $262 reversed $109 $-1 #
coedge $-1 $177 $177 $176 $262 forward $111 $-1 #
coedge $-1 $178 $178 $112 $179 forward $173 $-1 #
edge $-1 $263 0 $263 6.2831853071796004 $178 $264 forward 7 unknown #
face $-1 $265 $266 $27 $-1 $267 reversed single #
loop $-1 $-1 $268 $113 #
plane-surface $-1 -68.638569292275761 0 0 1 0 0 0 0 -1 forward_v I I I I #
coedge $-1 $269 $191 $270 $271 forward $114 $-1 #
coedge $-1 $272 $116 $269 $273 forward $73 $-1 #
coedge $-1 $116 $272 $274 $275 forward $73 $-1 #
coedge $-1 $194 $193 $116 $187 reversed $195 $-1 #
edge $-1 $276 -33.201737213738546 $277 33.201737213738546 $186 $278 forward 7 unknown #
coedge $-1 $118 $117 $279 $280 forward $46 $-1 #
coedge $-1 $281 $282 $117 $190 reversed $266 $-1 #
edge $-1 $197 -68.638569292275761 $283 68.638569292275761 $189 $284 forward 7 unknown #
coedge $-1 $183 $285 $118 $192 reversed $114 $-1 #
edge $-1 $286 -68.638569292275761 $196 68.638569292275761 $191 $287 forward 7 unknown #
coedge $-1 $186 $119 $285 $288 forward $195 $-1 #
coedge $-1 $119 $186 $281 $289 reversed $195 $-1 #
loop $-1 $-1 $193 $265 #
vertex $-1 $120 $290 #
vertex $-1 $120 $291 #
straight-curve $-1 68.638569292275761 0 8.4845956773351148 0 1 0 I I #
face $-1 $292 $293 $28 $-1 $294 forward single #
loop $-1 $-1 $207 $121 #
plane-surface $-1 0 -33.201737213738546 0 0 1 0 0 0 1 forward_v I I I I #
coedge $-1 $295 $296 $203 $297 forward $122 $-1 #
coedge $-1 $298 $124 $202 $297 reversed $77 $-1 #
coedge $-1 $124 $298 $209 $299 reversed $77 $-1 #
edge $-1 $300 -68.638569292275761 $213 68.638569292275761 $124 $301 forward 7 unknown #
coedge $-1 $126 $125 $295 $302 reversed $49 $-1 #
coedge $-1 $303 $304 $125 $208 forward $200 $-1 #
edge $-1 $305 -68.638569292275761 $212 68.638569292275761 $207 $306 forward 7 unknown #
coedge $-1 $307 $127 $204 $299 forward $211 $-1 #
coedge $-1 $127 $307 $303 $308 forward $211 $-1 #
loop $-1 $-1 $209 $292 #
vertex $-1 $208 $309 #
vertex $-1 $128 $310 #
straight-curve $-1 68.638569292275761 -15.058722717388612 5.4845956773351148 0 1 0 I I #
face $-1 $-1 $311 $29 $-1 $312 reversed single #
loop $-1 $-1 $221 $129 #
plane-surface $-1 0 0 8.4845956773351148 0 0 1 1 0 0 forward_v I I I I #
coedge $-1 $313 $314 $220 $315 reversed $130 $-1 #
coedge $-1 $316 $132 $134 $225 forward $81 $-1 #
coedge $-1 $132 $316 $218 $315 forward $81 $-1 #
coedge $-1 $317 $135 $132 $222 forward $216 $-1 #
edge $-1 $228 4.3008701480311835 $318 16.58847905453354 $221 $319 forward 7 unknown #
coedge $-1 $320 $321 $133 $224 forward $311 $-1 #
edge $-1 $322 -96.063074920834609 $227 -89.561952212536085 $223 $323 forward 7 unknown #
edge $-1 $228 128.23951459825506 $322 137.27713858455149 $134 $324 forward 7 unknown #
coedge $-1 $135 $317 $320 $325 forward $216 $-1 #
vertex $-1 $224 $326 #
vertex $-1 $136 $327 #
straight-curve $-1 36.013383832272503 -14.745544749313545 8.4845956773351077 -1 0 0 I I #
coedge $-1 $230 $230 $-1 $328 reversed $139 $-1 #
edge $-1 $329 0 $329 6.2831853071796004 $140 $330 forward 7 unknown #
vertex $-1 $143 $331 #
ellipse-curve $-1 65.49953875525776 -23.522408253958087 5.2340343231858428 0.71933980857756763 0 0.69465836192734942 0.69465836192734942 0 -0.71933980857756763 1 I I #
coedge $-1 $234 $234 $-1 $332 reversed $146 $-1 #
edge $-1 $333 0 $333 6.2831853071796004 $147 $334 forward 7 unknown #
vertex $-1 $150 $335 #
ellipse-curve $-1 65.49953875525776 -18.256290151171363 5.2340343231858428 0.71933980857756763 0 0.69465836192734942 0.69465836192734942 0 -0.71933980857756763 1 I I #
face $-1 $-1 $336 $32 $-1 $337 reversed single #
loop $-1 $-1 $157 $151 #
plane-surface $-1 0 0 8.4845956773351148 0 0 1 1 0 0 forward_v I I I I #
coedge $-1 $338 $339 $340 $341 reversed $152 $-1 #
coedge $-1 $342 $154 $156 $248 forward $95 $-1 #
coedge $-1 $154 $342 $338 $343 forward $95 $-1 #
coedge $-1 $340 $157 $154 $245 forward $239 $-1 #
edge $-1 $251 6.7584498894559211 $344 14.948167053460924 $244 $345 forward 7 unknown #
coedge $-1 $346 $347 $155 $247 forward $336 $-1 #
edge $-1 $348 -43.48129269930115 $250 -36.274154043036667 $246 $349 forward 7 unknown #
edge $-1 $251 -9.4082512353429006 $348 0 $156 $350 forward 7 unknown #
coedge $-1 $157 $340 $346 $351 forward $239 $-1 #
vertex $-1 $247 $352 #
vertex $-1 $158 $353 #
straight-curve $-1 -86.899479804905795 17.611758360914344 8.4845956773351148 1 0 0 I I #
coedge $-1 $253 $253 $-1 $354 reversed $161 $-1 #
edge $-1 $355 0 $355 6.2831853071796004 $162 $356 forward 7 unknown #
vertex $-1 $165 $357 #
ellipse-curve $-1 -65.61481567728373 19.249701793715346 4.8810263492028785 -0.7660444514056185 0 0.64278759981090561 0.3213937999054528 0 0.38302222570280925 1 I I #
coedge $-1 $257 $257 $-1 $358 reversed $168 $-1 #
edge $-1 $359 0 $359 6.2831853071796004 $169 $360 forward 7 unknown #
vertex $-1 $172 $361 #
ellipse-curve $-1 -65.61481567728373 21.706616942916845 4.8810263492028785 -0.7660444514056185 0 0.64278759981090561 0.3213937999054528 0 0.38302222570280925 1 I I #
coedge $-1 $261 $261 $-1 $362 reversed $175 $-1 #
edge $-1 $363 0 $363 6.2831853071796004 $176 $364 forward 7 unknown #
vertex $-1 $179 $365 #
ellipse-curve $-1 -65.61481567728373 24.163532092118345 4.8810263492028785 -0.7660444514056185 0 0.64278759981090561 0.3213937999054528 0 0.38302222570280925 1 I I #
face $-1 $-1 $195 $27 $-1 $366 reversed single #
loop $-1 $-1 $281 $180 #
plane-surface $-1 0 33.201737213738546 0 0 -1 0 0 0 -1 forward_v I I I I #
coedge $-1 $367 $279 $282 $368 forward $181 $-1 #
coedge $-1 $285 $183 $184 $273 reversed $114 $-1 #
coedge $-1 $279 $367 $183 $271 reversed $181 $-1 #
edge $-1 $286 -8.4845956773351148 $369 8.4845956773351148 $270 $370 forward 7 unknown #
coedge $-1 $185 $184 $367 $371 forward $73 $-1 #
edge $-1 $277 -68.638569292275761 $369 68.638569292275761 $269 $372 forward 7 unknown #
coedge $-1 $282 $281 $185 $275 reversed $266 $-1 #
edge $-1 $373 -68.638569292275761 $276 68.638569292275761 $274 $374 forward 7 unknown #
vertex $-1 $187 $375 #
vertex $-1 $288 $376 #
straight-curve $-1 68.638569292275761 0 -8.4845956773351148 0 -1 0 I I #
coedge $-1 $268 $270 $188 $280 reversed $181 $-1 #
edge $-1 $283 -33.201737213738546 $286 33.201737213738546 $279 $377 forward 7 unknown #
coedge $-1 $274 $189 $194 $289 forward $266 $-1 #
coedge $-1 $189 $274 $268 $368 reversed $266 $-1 #
vertex $-1 $190 $378 #
straight-curve $-1 0 33.201737213738546 8.4845956773351148 -1 0 0 I I #
coedge $-1 $191 $269 $193 $288 reversed $114 $-1 #
vertex $-1 $280 $379 #
straight-curve $-1 0 -33.201737213738546 8.4845956773351148 1 0 0 I I #
edge $-1 $196 -8.4845956773351148 $277 8.4845956773351148 $193 $380 forward 7 unknown #
edge $-1 $197 -8.4845956773351148 $276 8.4845956773351148 $194 $381 forward 7 unknown #
point $-1 68.638569292275761 -33.201737213738546 8.4845956773351148 #
point $-1 68.638569292275761 33.201737213738546 8.4845956773351148 #
face $-1 $-1 $211 $28 $-1 $382 reversed single #
loop $-1 $-1 $383 $199 #
plane-surface $-1 0 0 8.4845956773351148 0 0 1 1 0 0 forward_v I I I I #
coedge $-1 $384 $202 $206 $302 forward $122 $-1 #
coedge $-1 $202 $384 $385 $386 reversed $122 $-1 #
edge $-1 $387 -4.9922978386675574 $300 -1.9922978386675574 $202 $388 forward 7 unknown #
coedge $-1 $204 $203 $383 $389 reversed $77 $-1 #
edge $-1 $213 1.9922978386675574 $390 4.9922978386675574 $209 $391 forward 7 unknown #
vertex $-1 $302 $392 #
straight-curve $-1 0 -27.033153655815902 5.4845956773351148 1 0 0 I I #
edge $-1 $300 11.97443093842729 $305 18.143014496349934 $295 $393 forward 7 unknown #
coedge $-1 $394 $207 $210 $308 reversed $200 $-1 #
coedge $-1 $207 $394 $384 $395 forward $200 $-1 #
vertex $-1 $208 $396 #
straight-curve $-1 0 -33.201737213738546 5.4845956773351148 1 0 0 I I #
coedge $-1 $210 $209 $397 $398 reversed $211 $-1 #
edge $-1 $399 -8.4845956773351148 $212 -5.4845956773351148 $210 $400 forward 7 unknown #
point $-1 68.638569292275761 -33.201737213738546 5.4845956773351148 #
point $-1 68.638569292275761 -27.033153655815902 5.4845956773351148 #
loop $-1 $-1 $223 $215 #
plane-surface $-1 68.638569292275761 0 0 -1 0 0 0 0 1 forward_v I I I I #
coedge $-1 $314 $218 $401 $402 reversed $130 $-1 #
coedge $-1 $218 $313 $317 $403 reversed $130 $-1 #
edge $-1 $404 -137.27713858455149 $318 -128.23951459825503 $218 $405 forward 7 unknown #
coedge $-1 $220 $219 $321 $406 reversed $81 $-1 #
coedge $-1 $226 $221 $314 $403 forward $216 $-1 #
vertex $-1 $403 $407 #
straight-curve $-1 62.36050821823973 -10.444674601282362 8.4845956773351219 0 -1 0 I I #
coedge $-1 $401 $223 $226 $325 reversed $311 $-1 #
coedge $-1 $223 $401 $316 $406 forward $311 $-1 #
vertex $-1 $224 $408 #
straight-curve $-1 68.638569292275761 -14.745544749313545 98.046547889871192 0 0 1 I I #
straight-curve $-1 -26.72214292694251 -14.745544749313545 100.73238356052408 0.69465836192734942 0 -0.71933980857756763 I I #
edge $-1 $409 -27.033153655815902 $227 -14.745544749313545 $320 $410 forward 7 unknown #
point $-1 68.638569292275761 -14.745544749313545 8.4845956773351148 #
point $-1 62.360508218239758 -14.745544749313545 8.4845956773351077 #
edge $-1 $411 1 $411 0 $230 $-1 forward 7 unknown #
vertex $-1 $231 $412 #
ellipse-curve $-1 63.62548369684432 -23.522408253958087 3.4242804328604972 0.71933980857756763 0 0.69465836192734942 0.69465836192734942 0 -0.71933980857756763 1 I I #
point $-1 66.194197117185084 -23.522408253958087 4.5146945146082604 #
edge $-1 $413 1 $413 0 $234 $-1 forward 7 unknown #
vertex $-1 $235 $414 #
ellipse-curve $-1 63.62548369684432 -18.256290151171363 3.4242804328604972 0.71933980857756763 0 0.69465836192734942 0.69465836192734942 0 -0.71933980857756763 1 I I #
point $-1 66.194197117185084 -18.256290151171363 4.5146945146082604 #
loop $-1 $-1 $246 $238 #
plane-surface $-1 -68.638569292275761 0 0 1 0 0 0 0 -1 forward_v I I I I #
coedge $-1 $339 $241 $243 $343 reversed $152 $-1 #
coedge $-1 $241 $338 $415 $416 reversed $152 $-1 #
coedge $-1 $249 $244 $241 $341 forward $239 $-1 #
edge $-1 $344 -24.308417742614083 $417 -18.260910512630034 $340 $418 forward 7 unknown #
coedge $-1 $243 $242 $347 $419 reversed $95 $-1 #
edge $-1 $420 0 $344 9.4082512353429006 $338 $421 forward 7 unknown #
vertex $-1 $245 $422 #
straight-curve $-1 -62.591062062291712 10.853308471458423 8.484595677335113 0 1 0 I I #
coedge $-1 $415 $246 $249 $351 reversed $336 $-1 #
coedge $-1 $246 $415 $342 $419 forward $336 $-1 #
vertex $-1 $247 $423 #
straight-curve $-1 -68.638569292275761 17.611758360914344 44.758749720371782 0 0 1 I I #
straight-curve $-1 -68.638569292275761 17.611758360914344 1.2774570210706315 -0.64278759981090561 0 -0.7660444514056185 I I #
edge $-1 $417 -25.801475524919347 $250 -17.611758360914344 $346 $424 forward 7 unknown #
point $-1 -68.638569292275761 17.611758360914344 8.4845956773351148 #
point $-1 -62.591062062291712 17.611758360914344 8.4845956773351148 #
edge $-1 $425 1 $425 0 $253 $-1 forward 7 unknown #
vertex $-1 $254 $426 #
ellipse-curve $-1 -64.45707556374623 19.249701793715346 3.9095670723683869 -0.7660444514056185 0 0.64278759981090561 0.3213937999054528 0 0.38302222570280925 1 I I #
point $-1 -65.293421877378279 19.249701793715346 5.2640485749056865 #
edge $-1 $427 1 $427 0 $257 $-1 forward 7 unknown #
vertex $-1 $258 $428 #
ellipse-curve $-1 -64.45707556374623 21.706616942916845 3.9095670723683869 -0.7660444514056185 0 0.64278759981090561 0.3213937999054528 0 0.38302222570280925 1 I I #
point $-1 -65.293421877378279 21.706616942916845 5.2640485749056865 #
edge $-1 $429 1 $429 0 $261 $-1 forward 7 unknown #
vertex $-1 $262 $430 #
ellipse-curve $-1 -64.45707556374623 24.163532092118345 3.9095670723683869 -0.7660444514056185 0 0.64278759981090561 0.3213937999054528 0 0.38302222570280925 1 I I #
point $-1 -65.293421877378279 24.163532092118345 5.2640485749056865 #
plane-surface $-1 68.638569292275761 0 0 -1 0 0 0 0 1 forward_v I I I I #
coedge $-1 $270 $268 $272 $371 reversed $181 $-1 #
edge $-1 $283 -8.4845956773351148 $373 8.4845956773351148 $282 $431 forward 7 unknown #
vertex $-1 $371 $432 #
straight-curve $-1 -68.638569292275761 -33.201737213738546 0 0 0 -1 I I #
edge $-1 $369 -33.201737213738546 $373 33.201737213738546 $367 $433 forward 7 unknown #
straight-curve $-1 0 -33.201737213738546 -8.4845956773351148 -1 0 0 I I #
vertex $-1 $275 $434 #
straight-curve $-1 0 33.201737213738546 -8.4845956773351148 1 0 0 I I #
point $-1 68.638569292275761 33.201737213738546 -8.4845956773351148 #
point $-1 68.638569292275761 -33.201737213738546 -8.4845956773351148 #
straight-curve $-1 -68.638569292275761 0 8.4845956773351148 0 -1 0 I I #
point $-1 -68.638569292275761 33.201737213738546 8.4845956773351148 #
point $-1 -68.638569292275761 -33.201737213738546 8.4845956773351148 #
straight-curve $-1 68.638569292275761 -33.201737213738546 0 0 0 -1 I I #
straight-curve $-1 68.638569292275761 33.201737213738546 0 0 0 -1 I I #
plane-surface $-1 68.638569292275761 0 0 -1 0 0 0 0 1 forward_v I I I I #
coedge $-1 $385 $397 $298 $389 forward $293 $-1 #
coedge $-1 $296 $295 $304 $395 reversed $122 $-1 #
coedge $-1 $435 $383 $296 $386 forward $293 $-1 #
edge $-1 $387 27.033153655815902 $436 33.201737213738546 $296 $437 forward 7 unknown #
vertex $-1 $386 $438 #
straight-curve $-1 -68.638569292275761 -27.033153655815902 3.4922978386675574 0 0 -1 I I #
edge $-1 $390 -68.638569292275761 $387 68.638569292275761 $383 $439 forward 7 unknown #
vertex $-1 $299 $440 #
straight-curve $-1 68.638569292275761 -27.033153655815902 3.4922978386675574 0 0 1 I I #
point $-1 -68.638569292275761 -27.033153655815902 5.4845956773351148 #
straight-curve $-1 -68.638569292275761 -15.058722717388612 5.4845956773351148 0 -1 0 I I #
coedge $-1 $304 $303 $435 $441 reversed $200 $-1 #
edge $-1 $436 -8.4845956773351148 $305 -5.4845956773351148 $384 $442 forward 7 unknown #
point $-1 -68.638569292275761 -33.201737213738546 5.4845956773351148 #
coedge $-1 $383 $435 $307 $398 forward $293 $-1 #
edge $-1 $399 -33.201737213738546 $390 -27.033153655815902 $307 $443 forward 7 unknown #
vertex $-1 $398 $444 #
straight-curve $-1 68.638569292275761 -33.201737213738546 0 0 0 -1 I I #
coedge $-1 $321 $320 $313 $402 forward $311 $-1 #
edge $-1 $409 89.561952212536085 $404 96.063074920834609 $401 $445 forward 7 unknown #
edge $-1 $318 62.360508218239744 $409 68.638569292275761 $317 $446 forward 7 unknown #
vertex $-1 $402 $447 #
straight-curve $-1 -26.72214292694251 -27.033153655815902 100.73238356052408 -0.69465836192734942 0 0.71933980857756763 I I #
edge $-1 $404 -16.58847905453354 $322 -4.3008701480311835 $321 $448 forward 7 unknown #
point $-1 62.360508218239744 -27.033153655815902 8.4845956773351148 #
point $-1 68.638569292275761 -14.745544749313545 1.9834729690365833 #
vertex $-1 $325 $449 #
straight-curve $-1 68.638569292275761 0 8.4845956773351148 0 1 0 I I #
vertex $-1 $328 $450 #
point $-1 64.320142058771665 -23.522408253958087 2.7049406242829299 #
vertex $-1 $332 $451 #
point $-1 64.320142058771665 -18.256290151171363 2.7049406242829299 #
coedge $-1 $347 $346 $339 $416 forward $336 $-1 #
edge $-1 $417 36.274154043036667 $420 43.48129269930115 $415 $452 forward 7 unknown #
vertex $-1 $351 $453 #
straight-curve $-1 -86.899479804905795 25.801475524919347 8.4845956773351148 -1 0 0 I I #
edge $-1 $420 -14.948167053460924 $348 -6.7584498894559211 $347 $454 forward 7 unknown #
vertex $-1 $419 $455 #
straight-curve $-1 -68.638569292275761 25.801475524919347 1.2774570210706315 0.64278759981090561 0 0.7660444514056185 I I #
point $-1 -62.591062062291712 25.801475524919347 8.4845956773351148 #
point $-1 -68.638569292275761 17.611758360914344 1.2774570210706315 #
straight-curve $-1 -68.638569292275761 0 8.4845956773351148 0 -1 0 I I #
vertex $-1 $354 $456 #
point $-1 -64.135681763840779 19.249701793715346 4.2925892980711957 #
vertex $-1 $358 $457 #
point $-1 -64.135681763840779 21.706616942916845 4.2925892980711957 #
vertex $-1 $362 $458 #
point $-1 -64.135681763840779 24.163532092118345 4.2925892980711957 #
straight-curve $-1 -68.638569292275761 33.201737213738546 0 0 0 -1 I I #
point $-1 -68.638569292275761 -33.201737213738546 -8.4845956773351148 #
straight-curve $-1 -68.638569292275761 0 -8.4845956773351148 0 1 0 I I #
point $-1 -68.638569292275761 33.201737213738546 -8.4845956773351148 #
coedge $-1 $397 $385 $394 $441 forward $293 $-1 #
vertex $-1 $386 $459 #
straight-curve $-1 -68.638569292275761 0 8.4845956773351148 0 -1 0 I I #
point $-1 -68.638569292275761 -27.033153655815902 8.4845956773351148 #
straight-curve $-1 0 -27.033153655815902 8.4845956773351148 -1 0 0 I I #
point $-1 68.638569292275761 -27.033153655815902 8.4845956773351148 #
edge $-1 $436 -68.638569292275761 $399 68.638569292275761 $394 $460 forward 7 unknown #
straight-curve $-1 -68.638569292275761 -33.201737213738546 0 0 0 -1 I I #
straight-curve $-1 68.638569292275761 0 8.4845956773351148 0 1 0 I I #
point $-1 68.638569292275761 -33.201737213738546 8.4845956773351148 #
straight-curve $-1 68.638569292275761 -27.033153655815902 98.046547889871192 0 0 -1 I I #
straight-curve $-1 0 -27.033153655815902 8.4845956773351148 1 0 0 I I #
point $-1 68.638569292275761 -27.033153655815902 1.9834729690365833 #
straight-curve $-1 68.638569292275761 -10.444674601282362 1.9834729690365904 0 1 0 I I #
point $-1 68.638569292275761 -27.033153655815902 8.4845956773351148 #
point $-1 62.906143888266747 -23.522408253958087 2.7296220709331482 #
point $-1 62.906143888266747 -18.256290151171363 2.7296220709331482 #
straight-curve $-1 -68.638569292275761 25.801475524919347 44.758749720371782 0 0 -1 I I #
point $-1 -68.638569292275761 25.801475524919347 8.4845956773351148 #
straight-curve $-1 -68.638569292275761 10.853308471458423 1.2774570210706315 0 -1 0 I I #
point $-1 -68.638569292275761 25.801475524919347 1.2774570210706315 #
point $-1 -64.074053338043427 19.249701793715346 3.5881732724629343 #
point $-1 -64.074053338043427 21.706616942916845 3.5881732724629343 #
point $-1 -64.074053338043427 24.163532092118345 3.5881732724629343 #
point $-1 -68.638569292275761 -33.201737213738546 8.4845956773351148 #
straight-curve $-1 0 -33.201737213738546 8.4845956773351148 1 0 0 I I #
End-of-ACIS-data 