500 0 9 0           
7 Unknown 11 ACIS 5.0 NT 24 Fri Mar 26 01:48:48 1999 
-1 9.9999999999999995e-007 1e-010 
body $-1 $9 $-1 $10 #
body $-1 $11 $-1 $12 #
body $-1 $13 $-1 $14 #
body $-1 $15 $-1 $16 #
body $-1 $17 $-1 $18 #
body $-1 $19 $-1 $20 #
body $-1 $21 $-1 $22 #
body $-1 $23 $-1 $24 #
body $-1 $25 $-1 $26 #
lump $-1 $-1 $27 $0 #
transform $-1 1 0 0 0 1 0 0 0 1 51.417584765160072 29.047239954462661 7.0532659290652839 1 rotate no_reflect no_shear #
lump $-1 $-1 $28 $1 #
transform $-1 1 0 0 0 1 0 0 0 1 51.417584765160072 29.047239954462661 7.0532659290652839 1 rotate no_reflect no_shear #
lump $-1 $-1 $29 $2 #
transform $-1 1 0 0 0 1 0 0 0 1 51.417584765160072 29.047239954462661 7.0532659290652839 1 rotate no_reflect no_shear #
lump $-1 $-1 $30 $3 #
transform $-1 1 0 0 0 1 0 0 0 1 51.417584765160072 29.047239954462661 7.0532659290652839 1 rotate no_reflect no_shear #
lump $-1 $-1 $31 $4 #
transform $-1 1 0 0 0 1 0 0 0 1 51.417584765160072 29.047239954462661 7.0532659290652839 1 rotate no_reflect no_shear #
lump $-1 $-1 $32 $5 #
transform $-1 1 0 0 0 1 0 0 0 1 51.417584765160072 29.047239954462661 7.0532659290652839 1 rotate no_reflect no_shear #
lump $-1 $-1 $33 $6 #
transform $-1 1 0 0 0 1 0 0 0 1 51.417584765160072 29.047239954462661 7.0532659290652839 1 rotate no_reflect no_shear #
lump $-1 $-1 $34 $7 #
transform $-1 1 0 0 0 1 0 0 0 1 51.417584765160072 29.047239954462661 7.0532659290652839 1 rotate no_reflect no_shear #
lump $-1 $-1 $35 $8 #
transform $-1 1 0 0 0 1 0 0 0 1 51.417584765160072 29.047239954462661 7.0532659290652839 1 rotate no_reflect no_shear #
shell $-1 $-1 $-1 $36 $-1 $9 #
shell $-1 $-1 $-1 $37 $-1 $11 #
shell $-1 $-1 $-1 $38 $-1 $13 #
shell $-1 $-1 $-1 $39 $-1 $15 #
shell $-1 $-1 $-1 $40 $-1 $17 #
shell $-1 $-1 $-1 $41 $-1 $19 #
shell $-1 $-1 $-1 $42 $-1 $21 #
shell $-1 $-1 $-1 $43 $-1 $23 #
shell $-1 $-1 $-1 $44 $-1 $25 #
face $-1 $45 $46 $27 $-1 $47 forward single #
face $-1 $48 $49 $28 $-1 $50 reversed single #
face $-1 $51 $52 $29 $-1 $53 forward single #
face $-1 $54 $55 $30 $-1 $56 forward single #
face $-1 $57 $58 $31 $-1 $59 forward single #
face $-1 $60 $61 $32 $-1 $62 reversed single #
face $-1 $63 $64 $33 $-1 $65 forward single #
face $-1 $66 $67 $34 $-1 $68 forward single #
face $-1 $69 $70 $35 $-1 $71 forward single #
face $-1 $72 $73 $27 $-1 $74 reversed single #
loop $-1 $-1 $75 $36 #
plane-surface $-1 0 0 7.0532659290652839 0 0 1 1 0 0 forward_v I I I I #
face $-1 $76 $77 $28 $-1 $78 reversed single #
loop $-1 $-1 $79 $37 #
plane-surface $-1 53.955705515688805 0 146.82522609598362 0 -1 0 -0.71933980857756763 0 -0.69465836192734942 forward_v I I I I #
face $-1 $80 $81 $29 $-1 $82 forward single #
loop $-1 $83 $84 $38 #
cone-surface $-1 48.07750295738186 -9.9515784181978582 3.6376994748730009 -0.71933980857756763 0 -0.69465836192734942 0.34732918096367471 0 -0.35966990428878381 1 I I 0 1 0.5 forward I I I I #
face $-1 $85 $86 $30 $-1 $87 forward single #
loop $-1 $88 $89 $39 #
cone-surface $-1 48.07750295738186 -6.2197365113736609 3.6376994748730009 -0.71933980857756763 0 -0.69465836192734942 0.34732918096367471 0 -0.35966990428878381 1 I I 0 1 0.5 forward I I I I #
face $-1 $90 $91 $31 $-1 $92 forward single #
loop $-1 $93 $94 $40 #
cone-surface $-1 48.07750295738186 -2.4878946045494637 3.6376994748730009 -0.71933980857756763 0 -0.69465836192734942 0.34732918096367471 0 -0.35966990428878381 1 I I 0 1 0.5 forward I I I I #
face $-1 $95 $96 $32 $-1 $97 reversed single #
loop $-1 $-1 $98 $41 #
plane-surface $-1 53.955705515688805 12.439473022747322 146.82522609598362 0 -1 0 -0.71933980857756763 0 -0.69465836192734942 forward_v I I I I #
face $-1 $99 $100 $33 $-1 $101 forward single #
loop $-1 $102 $103 $42 #
cone-surface $-1 48.07750295738186 2.4878946045494637 3.6376994748730009 -0.71933980857756763 0 -0.69465836192734942 0.34732918096367471 0 -0.35966990428878381 1 I I 0 1 0.5 forward I I I I #
face $-1 $104 $105 $34 $-1 $106 forward single #
loop $-1 $107 $108 $43 #
cone-surface $-1 48.07750295738186 6.2197365113736609 3.6376994748730009 -0.71933980857756763 0 -0.69465836192734942 0.34732918096367471 0 -0.35966990428878381 1 I I 0 1 0.5 forward I I I I #
face $-1 $109 $110 $35 $-1 $111 forward single #
loop $-1 $112 $113 $44 #
cone-surface $-1 48.07750295738186 9.9515784181978617 3.6376994748730009 -0.71933980857756763 0 -0.69465836192734942 0.34732918096367471 0 -0.35966990428878381 1 I I 0 1 0.5 forward I I I I #
face $-1 $114 $115 $27 $-1 $116 reversed single #
loop $-1 $-1 $117 $45 #
plane-surface $-1 0 0 -7.0532659290652839 0 0 1 1 0 0 forward_v I I I I #
coedge $-1 $118 $119 $120 $121 forward $46 $-1 #
face $-1 $122 $123 $28 $-1 $124 reversed single #
loop $-1 $-1 $125 $48 #
plane-surface $-1 -20.017725649293396 -6.2197365113736609 75.389915681530155 0.71933980857756763 0 0.69465836192734942 0.69465836192734942 0 -0.71933980857756763 forward_v I I I I #
coedge $-1 $126 $127 $128 $129 reversed $49 $-1 #
face $-1 $-1 $130 $29 $-1 $131 forward single #
loop $-1 $132 $133 $51 #
cone-surface $-1 47.279274400913934 -9.9515784181978582 2.8668591364575411 -0.71933980857756763 0 -0.69465836192734942 0.17366459048183736 0 -0.17983495214439191 1 I I -0.70710678118654746 0.70710678118654746 0.25 forward I I I I #
loop $-1 $-1 $134 $38 #
coedge $-1 $84 $84 $135 $136 reversed $52 $-1 #
face $-1 $-1 $137 $30 $-1 $138 forward single #
loop $-1 $139 $140 $54 #
cone-surface $-1 47.279274400913934 -6.2197365113736609 2.8668591364575411 -0.71933980857756763 0 -0.69465836192734942 0.17366459048183736 0 -0.17983495214439191 1 I I -0.70710678118654746 0.70710678118654746 0.25 forward I I I I #
loop $-1 $-1 $141 $39 #
coedge $-1 $89 $89 $142 $143 reversed $55 $-1 #
face $-1 $-1 $144 $31 $-1 $145 forward single #
loop $-1 $146 $147 $57 #
cone-surface $-1 47.279274400913934 -2.4878946045494637 2.8668591364575411 -0.71933980857756763 0 -0.69465836192734942 0.17366459048183736 0 -0.17983495214439191 1 I I -0.70710678118654746 0.70710678118654746 0.25 forward I I I I #
loop $-1 $-1 $148 $40 #
coedge $-1 $94 $94 $149 $150 reversed $58 $-1 #
face $-1 $151 $152 $32 $-1 $153 reversed single #
loop $-1 $-1 $154 $60 #
plane-surface $-1 -20.017725649293396 -6.2197365113736609 75.389915681530155 0.71933980857756763 0 0.69465836192734942 0.69465836192734942 0 -0.71933980857756763 forward_v I I I I #
coedge $-1 $155 $156 $157 $158 reversed $61 $-1 #
face $-1 $-1 $159 $33 $-1 $160 forward single #
loop $-1 $161 $162 $63 #
cone-surface $-1 47.279274400913934 2.4878946045494637 2.8668591364575411 -0.71933980857756763 0 -0.69465836192734942 0.17366459048183736 0 -0.17983495214439191 1 I I -0.70710678118654746 0.70710678118654746 0.25 forward I I I I #
loop $-1 $-1 $163 $42 #
coedge $-1 $103 $103 $164 $165 reversed $64 $-1 #
face $-1 $-1 $166 $34 $-1 $167 forward single #
loop $-1 $168 $169 $66 #
cone-surface $-1 47.279274400913934 6.2197365113736609 2.8668591364575411 -0.71933980857756763 0 -0.69465836192734942 0.17366459048183736 0 -0.17983495214439191 1 I I -0.70710678118654746 0.70710678118654746 0.25 forward I I I I #
loop $-1 $-1 $170 $43 #
coedge $-1 $108 $108 $171 $172 reversed $67 $-1 #
face $-1 $-1 $173 $35 $-1 $174 forward single #
loop $-1 $175 $176 $69 #
cone-surface $-1 47.279274400913934 9.9515784181978617 2.8668591364575411 -0.71933980857756763 0 -0.69465836192734942 0.17366459048183736 0 -0.17983495214439191 1 I I -0.70710678118654746 0.70710678118654746 0.25 forward I I I I #
loop $-1 $-1 $177 $44 #
coedge $-1 $113 $113 $178 $179 reversed $70 $-1 #
face $-1 $180 $181 $27 $-1 $182 reversed single #
loop $-1 $-1 $183 $72 #
plane-surface $-1 0 -29.047239954462661 0 0 1 0 0 0 1 forward_v I I I I #
coedge $-1 $184 $185 $186 $187 forward $73 $-1 #
coedge $-1 $188 $75 $189 $190 forward $46 $-1 #
coedge $-1 $75 $188 $191 $192 forward $46 $-1 #
coedge $-1 $193 $194 $75 $121 reversed $195 $-1 #
edge $-1 $196 -29.047239954462661 $197 29.047239954462661 $120 $198 forward 7 unknown #
face $-1 $199 $200 $28 $-1 $201 forward single #
loop $-1 $-1 $202 $76 #
plane-surface $-1 53.955705515688805 -12.439473022747322 146.82522609598362 0 1 0 0.71933980857756763 0 0.69465836192734942 forward_v I I I I #
coedge $-1 $203 $204 $205 $206 reversed $77 $-1 #
coedge $-1 $127 $79 $207 $208 reversed $49 $-1 #
coedge $-1 $79 $126 $203 $209 reversed $49 $-1 #
coedge $-1 $205 $210 $79 $129 forward $200 $-1 #
edge $-1 $211 -24.439732007315669 $212 -18.996355600406304 $128 $213 forward 7 unknown #
loop $-1 $-1 $135 $80 #
plane-surface $-1 -20.017725649293396 -6.2197365113736609 75.389915681530155 0.71933980857756763 0 0.69465836192734942 0.69465836192734942 0 -0.71933980857756763 forward_v I I I I #
loop $-1 $-1 $214 $51 #
coedge $-1 $133 $133 $134 $215 reversed $81 $-1 #
coedge $-1 $134 $134 $133 $215 forward $83 $-1 #
coedge $-1 $135 $135 $84 $136 forward $130 $-1 #
edge $-1 $216 0 $216 6.2831853071796004 $135 $217 forward 7 unknown #
loop $-1 $-1 $142 $85 #
plane-surface $-1 -20.017725649293396 -6.2197365113736609 75.389915681530155 0.71933980857756763 0 0.69465836192734942 0.69465836192734942 0 -0.71933980857756763 forward_v I I I I #
loop $-1 $-1 $218 $54 #
coedge $-1 $140 $140 $141 $219 reversed $86 $-1 #
coedge $-1 $141 $141 $140 $219 forward $88 $-1 #
coedge $-1 $142 $142 $89 $143 forward $137 $-1 #
edge $-1 $220 0 $220 6.2831853071796004 $142 $221 forward 7 unknown #
loop $-1 $-1 $149 $90 #
plane-surface $-1 -20.017725649293396 -6.2197365113736609 75.389915681530155 0.71933980857756763 0 0.69465836192734942 0.69465836192734942 0 -0.71933980857756763 forward_v I I I I #
loop $-1 $-1 $222 $57 #
coedge $-1 $147 $147 $148 $223 reversed $91 $-1 #
coedge $-1 $148 $148 $147 $223 forward $93 $-1 #
coedge $-1 $149 $149 $94 $150 forward $144 $-1 #
edge $-1 $224 0 $224 6.2831853071796004 $149 $225 forward 7 unknown #
face $-1 $226 $227 $32 $-1 $228 forward single #
loop $-1 $-1 $229 $95 #
plane-surface $-1 51.417584765160072 0 0 -1 0 0 0 0 1 forward_v I I I I #
coedge $-1 $230 $231 $232 $233 reversed $96 $-1 #
coedge $-1 $156 $98 $234 $235 reversed $61 $-1 #
coedge $-1 $98 $155 $236 $237 reversed $61 $-1 #
coedge $-1 $238 $229 $98 $158 forward $152 $-1 #
edge $-1 $239 -71.996128531443858 $240 -66.359347118926522 $157 $241 forward 7 unknown #
loop $-1 $-1 $164 $99 #
plane-surface $-1 -20.017725649293396 -6.2197365113736609 75.389915681530155 0.71933980857756763 0 0.69465836192734942 0.69465836192734942 0 -0.71933980857756763 forward_v I I I I #
loop $-1 $-1 $242 $63 #
coedge $-1 $162 $162 $163 $243 reversed $100 $-1 #
coedge $-1 $163 $163 $162 $243 forward $102 $-1 #
coedge $-1 $164 $164 $103 $165 forward $159 $-1 #
edge $-1 $244 0 $244 6.2831853071796004 $164 $245 forward 7 unknown #
loop $-1 $-1 $171 $104 #
plane-surface $-1 -20.017725649293396 -6.2197365113736609 75.389915681530155 0.71933980857756763 0 0.69465836192734942 0.69465836192734942 0 -0.71933980857756763 forward_v I I I I #
loop $-1 $-1 $246 $66 #
coedge $-1 $169 $169 $170 $247 reversed $105 $-1 #
coedge $-1 $170 $170 $169 $247 forward $107 $-1 #
coedge $-1 $171 $171 $108 $172 forward $166 $-1 #
edge $-1 $248 0 $248 6.2831853071796004 $171 $249 forward 7 unknown #
loop $-1 $-1 $178 $109 #
plane-surface $-1 -20.017725649293396 -6.2197365113736609 75.389915681530155 0.71933980857756763 0 0.69465836192734942 0.69465836192734942 0 -0.71933980857756763 forward_v I I I I #
loop $-1 $-1 $250 $69 #
coedge $-1 $176 $176 $177 $251 reversed $110 $-1 #
coedge $-1 $177 $177 $176 $251 forward $112 $-1 #
coedge $-1 $178 $178 $113 $179 forward $173 $-1 #
edge $-1 $252 0 $252 6.2831853071796004 $178 $253 forward 7 unknown #
face $-1 $254 $255 $27 $-1 $256 reversed single #
loop $-1 $-1 $257 $114 #
plane-surface $-1 -51.417584765160072 0 0 1 0 0 0 0 -1 forward_v I I I I #
coedge $-1 $258 $191 $259 $260 forward $115 $-1 #
coedge $-1 $261 $117 $258 $262 forward $73 $-1 #
coedge $-1 $117 $261 $263 $264 forward $73 $-1 #
coedge $-1 $194 $193 $117 $187 reversed $195 $-1 #
edge $-1 $265 -29.047239954462661 $266 29.047239954462661 $186 $267 forward 7 unknown #
coedge $-1 $119 $118 $268 $269 forward $46 $-1 #
coedge $-1 $270 $271 $118 $190 reversed $255 $-1 #
edge $-1 $197 -51.417584765160072 $272 51.417584765160072 $189 $273 forward 7 unknown #
coedge $-1 $183 $274 $119 $192 reversed $115 $-1 #
edge $-1 $275 -51.417584765160072 $196 51.417584765160072 $191 $276 forward 7 unknown #
coedge $-1 $186 $120 $274 $277 forward $195 $-1 #
coedge $-1 $120 $186 $270 $278 reversed $195 $-1 #
loop $-1 $-1 $193 $254 #
vertex $-1 $121 $279 #
vertex $-1 $121 $280 #
straight-curve $-1 51.417584765160072 0 7.0532659290652839 0 1 0 I I #
face $-1 $-1 $281 $28 $-1 $282 reversed single #
loop $-1 $-1 $128 $122 #
plane-surface $-1 0 0 7.0532659290652839 0 0 1 1 0 0 forward_v I I I I #
coedge $-1 $283 $284 $285 $286 reversed $123 $-1 #
coedge $-1 $287 $125 $127 $209 forward $77 $-1 #
coedge $-1 $125 $287 $283 $288 forward $77 $-1 #
coedge $-1 $285 $128 $125 $206 forward $200 $-1 #
edge $-1 $212 -3.1098682556868305 $289 9.3296047670604914 $205 $290 forward 7 unknown #
coedge $-1 $291 $292 $126 $208 forward $281 $-1 #
edge $-1 $293 -71.996128531443858 $211 -66.359347118926522 $207 $294 forward 7 unknown #
edge $-1 $212 94.9991213298687 $293 102.83516953032014 $127 $295 forward 7 unknown #
coedge $-1 $128 $285 $291 $296 forward $200 $-1 #
vertex $-1 $208 $297 #
vertex $-1 $129 $298 #
straight-curve $-1 26.977852757844403 0 7.0532659290652902 -1 0 0 I I #
coedge $-1 $214 $214 $-1 $299 reversed $132 $-1 #
edge $-1 $300 0 $300 6.2831853071796004 $133 $301 forward 7 unknown #
vertex $-1 $136 $302 #
ellipse-curve $-1 48.695896561705396 -9.9515784181978582 4.2348752228066218 0.71933980857756763 0 0.69465836192734942 0.34732918096367471 0 -0.35966990428878381 1 I I #
coedge $-1 $218 $218 $-1 $303 reversed $139 $-1 #
edge $-1 $304 0 $304 6.2831853071796004 $140 $305 forward 7 unknown #
vertex $-1 $143 $306 #
ellipse-curve $-1 48.695896561705396 -6.2197365113736609 4.2348752228066218 0.71933980857756763 0 0.69465836192734942 0.34732918096367471 0 -0.35966990428878381 1 I I #
coedge $-1 $222 $222 $-1 $307 reversed $146 $-1 #
edge $-1 $308 0 $308 6.2831853071796004 $147 $309 forward 7 unknown #
vertex $-1 $150 $310 #
ellipse-curve $-1 48.695896561705396 -2.4878946045494637 4.2348752228066218 0.71933980857756763 0 0.69465836192734942 0.34732918096367471 0 -0.35966990428878381 1 I I #
face $-1 $-1 $311 $32 $-1 $312 forward single #
loop $-1 $-1 $313 $151 #
plane-surface $-1 53.955705515688805 0 146.82522609598362 0 -1 0 -0.71933980857756763 0 -0.69465836192734942 forward_v I I I I #
coedge $-1 $157 $314 $231 $315 forward $152 $-1 #
coedge $-1 $234 $154 $316 $317 reversed $96 $-1 #
coedge $-1 $154 $234 $229 $315 reversed $96 $-1 #
coedge $-1 $318 $313 $154 $233 forward $227 $-1 #
edge $-1 $319 94.9991213298687 $320 102.83516953032014 $232 $321 forward 7 unknown #
coedge $-1 $231 $230 $155 $235 forward $96 $-1 #
edge $-1 $322 94.9991213298687 $239 102.83516953032014 $155 $323 forward 7 unknown #
coedge $-1 $316 $324 $156 $237 forward $311 $-1 #
edge $-1 $240 -24.439732007315669 $322 -18.996355600406304 $236 $325 forward 7 unknown #
coedge $-1 $314 $157 $324 $326 reversed $152 $-1 #
vertex $-1 $158 $327 #
vertex $-1 $158 $328 #
straight-curve $-1 51.417584765160072 12.439473022747322 73.412613047991812 0 0 1 I I #
coedge $-1 $242 $242 $-1 $329 reversed $161 $-1 #
edge $-1 $330 0 $330 6.2831853071796004 $162 $331 forward 7 unknown #
vertex $-1 $165 $332 #
ellipse-curve $-1 48.695896561705396 2.4878946045494637 4.2348752228066218 0.71933980857756763 0 0.69465836192734942 0.34732918096367471 0 -0.35966990428878381 1 I I #
coedge $-1 $246 $246 $-1 $333 reversed $168 $-1 #
edge $-1 $334 0 $334 6.2831853071796004 $169 $335 forward 7 unknown #
vertex $-1 $172 $336 #
ellipse-curve $-1 48.695896561705396 6.2197365113736609 4.2348752228066218 0.71933980857756763 0 0.69465836192734942 0.34732918096367471 0 -0.35966990428878381 1 I I #
coedge $-1 $250 $250 $-1 $337 reversed $175 $-1 #
edge $-1 $338 0 $338 6.2831853071796004 $176 $339 forward 7 unknown #
vertex $-1 $179 $340 #
ellipse-curve $-1 48.695896561705396 9.9515784181978617 4.2348752228066218 0.71933980857756763 0 0.69465836192734942 0.34732918096367471 0 -0.35966990428878381 1 I I #
face $-1 $-1 $195 $27 $-1 $341 reversed single #
loop $-1 $-1 $270 $180 #
plane-surface $-1 0 29.047239954462661 0 0 -1 0 0 0 -1 forward_v I I I I #
coedge $-1 $342 $268 $271 $343 forward $181 $-1 #
coedge $-1 $274 $183 $184 $262 reversed $115 $-1 #
coedge $-1 $268 $342 $183 $260 reversed $181 $-1 #
edge $-1 $275 -7.0532659290652839 $344 7.0532659290652839 $259 $345 forward 7 unknown #
coedge $-1 $185 $184 $342 $346 forward $73 $-1 #
edge $-1 $266 -51.417584765160072 $344 51.417584765160072 $258 $347 forward 7 unknown #
coedge $-1 $271 $270 $185 $264 reversed $255 $-1 #
edge $-1 $348 -51.417584765160072 $265 51.417584765160072 $263 $349 forward 7 unknown #
vertex $-1 $187 $350 #
vertex $-1 $277 $351 #
straight-curve $-1 51.417584765160072 0 -7.0532659290652839 0 -1 0 I I #
coedge $-1 $257 $259 $188 $269 reversed $181 $-1 #
edge $-1 $272 -29.047239954462661 $275 29.047239954462661 $268 $352 forward 7 unknown #
coedge $-1 $263 $189 $194 $278 forward $255 $-1 #
coedge $-1 $189 $263 $257 $343 reversed $255 $-1 #
vertex $-1 $190 $353 #
straight-curve $-1 0 29.047239954462661 7.0532659290652839 -1 0 0 I I #
coedge $-1 $191 $258 $193 $277 reversed $115 $-1 #
vertex $-1 $269 $354 #
straight-curve $-1 0 -29.047239954462661 7.0532659290652839 1 0 0 I I #
edge $-1 $196 -7.0532659290652839 $266 7.0532659290652839 $193 $355 forward 7 unknown #
edge $-1 $197 -7.0532659290652839 $265 7.0532659290652839 $194 $356 forward 7 unknown #
point $-1 51.417584765160072 -29.047239954462661 7.0532659290652839 #
point $-1 51.417584765160072 29.047239954462661 7.0532659290652839 #
loop $-1 $-1 $207 $199 #
plane-surface $-1 51.417584765160072 0 0 -1 0 0 0 0 1 forward_v I I I I #
coedge $-1 $284 $202 $204 $288 reversed $123 $-1 #
coedge $-1 $202 $283 $357 $358 reversed $123 $-1 #
coedge $-1 $210 $205 $202 $286 forward $200 $-1 #
edge $-1 $289 18.996355600406304 $359 24.439732007315669 $285 $360 forward 7 unknown #
coedge $-1 $204 $203 $292 $361 reversed $77 $-1 #
edge $-1 $362 -102.83516953032014 $289 -94.9991213298687 $283 $363 forward 7 unknown #
vertex $-1 $206 $364 #
straight-curve $-1 45.974208358250706 -3.1098682556868305 7.0532659290652902 0 -1 0 I I #
coedge $-1 $357 $207 $210 $296 reversed $281 $-1 #
coedge $-1 $207 $357 $287 $361 forward $281 $-1 #
vertex $-1 $208 $365 #
straight-curve $-1 51.417584765160072 0 73.412613047991812 0 0 1 I I #
straight-curve $-1 -20.017725649293396 0 75.389915681530155 0.69465836192734942 0 -0.71933980857756763 I I #
edge $-1 $359 -12.439473022747322 $211 0 $291 $366 forward 7 unknown #
point $-1 51.417584765160072 0 7.0532659290652839 #
point $-1 45.974208358250706 0 7.0532659290652902 #
edge $-1 $367 1 $367 0 $214 $-1 forward 7 unknown #
vertex $-1 $215 $368 #
ellipse-curve $-1 47.459109353058324 -9.9515784181978582 3.0405237269393783 0.71933980857756763 0 0.69465836192734942 0.34732918096367471 0 -0.35966990428878381 1 I I #
point $-1 49.043225742669073 -9.9515784181978582 3.8752053185178399 #
edge $-1 $369 1 $369 0 $218 $-1 forward 7 unknown #
vertex $-1 $219 $370 #
ellipse-curve $-1 47.459109353058324 -6.2197365113736609 3.0405237269393783 0.71933980857756763 0 0.69465836192734942 0.34732918096367471 0 -0.35966990428878381 1 I I #
point $-1 49.043225742669073 -6.2197365113736609 3.8752053185178399 #
edge $-1 $371 1 $371 0 $222 $-1 forward 7 unknown #
vertex $-1 $223 $372 #
ellipse-curve $-1 47.459109353058324 -2.4878946045494637 3.0405237269393783 0.71933980857756763 0 0.69465836192734942 0.34732918096367471 0 -0.35966990428878381 1 I I #
point $-1 49.043225742669073 -2.4878946045494637 3.8752053185178399 #
loop $-1 $-1 $316 $226 #
plane-surface $-1 0 0 7.0532659290652839 0 0 1 1 0 0 forward_v I I I I #
coedge $-1 $232 $318 $373 $374 reversed $227 $-1 #
coedge $-1 $229 $238 $318 $375 forward $152 $-1 #
edge $-1 $320 3.1098682556868305 $239 15.549341278434152 $229 $376 forward 7 unknown #
coedge $-1 $373 $236 $230 $317 forward $311 $-1 #
edge $-1 $322 -15.549341278434152 $319 -3.1098682556868305 $316 $377 forward 7 unknown #
coedge $-1 $313 $232 $314 $375 reversed $227 $-1 #
vertex $-1 $317 $378 #
vertex $-1 $315 $379 #
straight-curve $-1 -20.017725649293396 0 75.389915681530155 0.69465836192734942 0 -0.71933980857756763 I I #
vertex $-1 $237 $380 #
straight-curve $-1 -20.017725649293396 12.439473022747322 75.389915681530155 0.69465836192734942 0 -0.71933980857756763 I I #
coedge $-1 $236 $373 $238 $326 forward $311 $-1 #
straight-curve $-1 26.977852757844403 12.439473022747322 7.0532659290652902 -1 0 0 I I #
edge $-1 $381 0 $240 12.439473022747322 $238 $382 forward 7 unknown #
point $-1 51.417584765160072 12.439473022747322 1.4164845165479534 #
point $-1 51.417584765160072 12.439473022747322 7.0532659290652839 #
edge $-1 $383 1 $383 0 $242 $-1 forward 7 unknown #
vertex $-1 $243 $384 #
ellipse-curve $-1 47.459109353058324 2.4878946045494637 3.0405237269393783 0.71933980857756763 0 0.69465836192734942 0.34732918096367471 0 -0.35966990428878381 1 I I #
point $-1 49.043225742669073 2.4878946045494637 3.8752053185178399 #
edge $-1 $385 1 $385 0 $246 $-1 forward 7 unknown #
vertex $-1 $247 $386 #
ellipse-curve $-1 47.459109353058324 6.2197365113736609 3.0405237269393783 0.71933980857756763 0 0.69465836192734942 0.34732918096367471 0 -0.35966990428878381 1 I I #
point $-1 49.043225742669073 6.2197365113736609 3.8752053185178399 #
edge $-1 $387 1 $387 0 $250 $-1 forward 7 unknown #
vertex $-1 $251 $388 #
ellipse-curve $-1 47.459109353058324 9.9515784181978617 3.0405237269393783 0.71933980857756763 0 0.69465836192734942 0.34732918096367471 0 -0.35966990428878381 1 I I #
point $-1 49.043225742669073 9.9515784181978617 3.8752053185178399 #
plane-surface $-1 51.417584765160072 0 0 -1 0 0 0 0 1 forward_v I I I I #
coedge $-1 $259 $257 $261 $346 reversed $181 $-1 #
edge $-1 $272 -7.0532659290652839 $348 7.0532659290652839 $271 $389 forward 7 unknown #
vertex $-1 $346 $390 #
straight-curve $-1 -51.417584765160072 -29.047239954462661 0 0 0 -1 I I #
edge $-1 $344 -29.047239954462661 $348 29.047239954462661 $342 $391 forward 7 unknown #
straight-curve $-1 0 -29.047239954462661 -7.0532659290652839 -1 0 0 I I #
vertex $-1 $264 $392 #
straight-curve $-1 0 29.047239954462661 -7.0532659290652839 1 0 0 I I #
point $-1 51.417584765160072 29.047239954462661 -7.0532659290652839 #
point $-1 51.417584765160072 -29.047239954462661 -7.0532659290652839 #
straight-curve $-1 -51.417584765160072 0 7.0532659290652839 0 -1 0 I I #
point $-1 -51.417584765160072 29.047239954462661 7.0532659290652839 #
point $-1 -51.417584765160072 -29.047239954462661 7.0532659290652839 #
straight-curve $-1 51.417584765160072 -29.047239954462661 0 0 0 -1 I I #
straight-curve $-1 51.417584765160072 29.047239954462661 0 0 0 -1 I I #
coedge $-1 $292 $291 $284 $358 forward $281 $-1 #
edge $-1 $359 66.359347118926522 $362 71.996128531443858 $357 $393 forward 7 unknown #
vertex $-1 $296 $394 #
straight-curve $-1 26.977852757844403 -12.439473022747322 7.0532659290652902 1 0 0 I I #
edge $-1 $362 -9.3296047670604914 $293 3.1098682556868305 $292 $395 forward 7 unknown #
vertex $-1 $361 $396 #
straight-curve $-1 -20.017725649293396 -12.439473022747322 75.389915681530155 -0.69465836192734942 0 0.71933980857756763 I I #
point $-1 45.974208358250706 -12.439473022747322 7.0532659290652902 #
point $-1 51.417584765160072 0 1.4164845165479534 #
straight-curve $-1 51.417584765160072 0 7.0532659290652839 0 1 0 I I #
vertex $-1 $299 $397 #
point $-1 47.806438534022 -9.9515784181978582 2.6808538226505947 #
vertex $-1 $303 $398 #
point $-1 47.806438534022 -6.2197365113736609 2.6808538226505947 #
vertex $-1 $307 $399 #
point $-1 47.806438534022 -2.4878946045494637 2.6808538226505947 #
coedge $-1 $324 $316 $313 $374 forward $311 $-1 #
edge $-1 $319 18.996355600406304 $381 24.439732007315669 $373 $400 forward 7 unknown #
edge $-1 $381 66.359347118926522 $320 71.996128531443858 $314 $401 forward 7 unknown #
straight-curve $-1 51.417584765160072 -3.1098682556868305 1.4164845165479392 0 1 0 I I #
straight-curve $-1 45.974208358250706 -3.1098682556868305 7.0532659290652902 0 -1 0 I I #
point $-1 45.974208358250706 0 7.0532659290652902 #
point $-1 51.417584765160072 0 1.4164845165479534 #
point $-1 45.974208358250706 12.439473022747322 7.0532659290652902 #
vertex $-1 $326 $402 #
straight-curve $-1 51.417584765160072 0 7.0532659290652839 0 1 0 I I #
vertex $-1 $329 $403 #
point $-1 47.806438534022 2.4878946045494637 2.6808538226505947 #
vertex $-1 $333 $404 #
point $-1 47.806438534022 6.2197365113736609 2.6808538226505947 #
vertex $-1 $337 $405 #
point $-1 47.806438534022 9.9515784181978617 2.6808538226505947 #
straight-curve $-1 -51.417584765160072 29.047239954462661 0 0 0 -1 I I #
point $-1 -51.417584765160072 -29.047239954462661 -7.0532659290652839 #
straight-curve $-1 -51.417584765160072 0 -7.0532659290652839 0 1 0 I I #
point $-1 -51.417584765160072 29.047239954462661 -7.0532659290652839 #
straight-curve $-1 51.417584765160072 -12.439473022747322 73.412613047991812 0 0 -1 I I #
point $-1 51.417584765160072 -12.439473022747322 7.0532659290652839 #
straight-curve $-1 51.417584765160072 -3.1098682556868305 1.4164845165479392 0 1 0 I I #
point $-1 51.417584765160072 -12.439473022747322 1.4164845165479534 #
point $-1 47.099439448769544 -9.9515784181978582 2.6931945459757038 #
point $-1 47.099439448769544 -6.2197365113736609 2.6931945459757038 #
point $-1 47.099439448769544 -2.4878946045494637 2.6931945459757038 #
straight-curve $-1 26.977852757844403 0 7.0532659290652902 1 0 0 I I #
straight-curve $-1 51.417584765160072 0 73.412613047991812 0 0 -1 I I #
point $-1 51.417584765160072 0 7.0532659290652839 #
point $-1 47.099439448769544 2.4878946045494637 2.6931945459757038 #
point $-1 47.099439448769544 6.2197365113736609 2.6931945459757038 #
point $-1 47.099439448769544 9.9515784181978617 2.6931945459757038 #
End-of-ACIS-data 