500 0 9 0           
7 Unknown 11 ACIS 5.0 NT 24 Fri Mar 26 00:36:32 1999 
-1 9.9999999999999995e-007 1e-010 
body $-1 $9 $-1 $10 #
body $-1 $11 $-1 $12 #
body $-1 $13 $-1 $14 #
body $-1 $15 $-1 $16 #
body $-1 $17 $-1 $18 #
body $-1 $19 $-1 $20 #
body $-1 $21 $-1 $22 #
body $-1 $23 $-1 $24 #
body $-1 $25 $-1 $26 #
lump $-1 $-1 $27 $0 #
transform $-1 1 0 0 0 1 0 0 0 1 61.422772911770991 29.109599308660901 9.3244530882810395 1 rotate no_reflect no_shear #
lump $-1 $-1 $28 $1 #
transform $-1 1 0 0 0 1 0 0 0 1 61.422772911770991 29.109599308660901 9.3244530882810395 1 rotate no_reflect no_shear #
lump $-1 $-1 $29 $2 #
transform $-1 1 0 0 0 1 0 0 0 1 61.422772911770991 29.109599308660901 9.3244530882810395 1 rotate no_reflect no_shear #
lump $-1 $-1 $30 $3 #
transform $-1 1 0 0 0 1 0 0 0 1 61.422772911770991 29.109599308660901 9.3244530882810395 1 rotate no_reflect no_shear #
lump $-1 $-1 $31 $4 #
transform $-1 1 0 0 0 1 0 0 0 1 61.422772911770991 29.109599308660901 9.3244530882810395 1 rotate no_reflect no_shear #
lump $-1 $-1 $32 $5 #
transform $-1 1 0 0 0 1 0 0 0 1 61.422772911770991 29.109599308660901 9.3244530882810395 1 rotate no_reflect no_shear #
lump $-1 $-1 $33 $6 #
transform $-1 1 0 0 0 1 0 0 0 1 61.422772911770991 29.109599308660901 9.3244530882810395 1 rotate no_reflect no_shear #
lump $-1 $-1 $34 $7 #
transform $-1 1 0 0 0 1 0 0 0 1 61.422772911770991 29.109599308660901 9.3244530882810395 1 rotate no_reflect no_shear #
lump $-1 $-1 $35 $8 #
transform $-1 1 0 0 0 1 0 0 0 1 61.422772911770991 29.109599308660901 9.3244530882810395 1 rotate no_reflect no_shear #
shell $-1 $-1 $-1 $36 $-1 $9 #
shell $-1 $-1 $-1 $37 $-1 $11 #
shell $-1 $-1 $-1 $38 $-1 $13 #
shell $-1 $-1 $-1 $39 $-1 $15 #
shell $-1 $-1 $-1 $40 $-1 $17 #
shell $-1 $-1 $-1 $41 $-1 $19 #
shell $-1 $-1 $-1 $42 $-1 $21 #
shell $-1 $-1 $-1 $43 $-1 $23 #
shell $-1 $-1 $-1 $44 $-1 $25 #
face $-1 $45 $46 $27 $-1 $47 forward single #
face $-1 $48 $49 $28 $-1 $50 reversed single #
face $-1 $51 $52 $29 $-1 $53 reversed single #
face $-1 $54 $55 $30 $-1 $56 reversed single #
face $-1 $57 $58 $31 $-1 $59 forward single #
face $-1 $60 $61 $32 $-1 $62 forward single #
face $-1 $63 $64 $33 $-1 $65 reversed single #
face $-1 $66 $67 $34 $-1 $68 forward single #
face $-1 $69 $70 $35 $-1 $71 forward single #
face $-1 $72 $73 $27 $-1 $74 reversed single #
loop $-1 $-1 $75 $36 #
plane-surface $-1 0 0 9.3244530882810395 0 0 1 1 0 0 forward_v I I I I #
face $-1 $76 $77 $28 $-1 $78 reversed single #
loop $-1 $-1 $79 $37 #
plane-surface $-1 -45.773866735208912 -25.356583062677437 0 1 0 0 0 0 -1 forward_v I I I I #
face $-1 $80 $81 $29 $-1 $82 reversed single #
loop $-1 $-1 $83 $38 #
plane-surface $-1 -44.273866735208912 21.60356681669397 0 0 1 0 0 0 1 forward_v I I I I #
face $-1 $84 $85 $30 $-1 $86 reversed single #
loop $-1 $-1 $87 $39 #
plane-surface $-1 -142.01670340065868 9.1865266220749255 97.06514994668936 0 1 0 -0.6560590369687036 0 0.75470957328743171 forward_v I I I I #
face $-1 $88 $89 $31 $-1 $90 forward single #
loop $-1 $91 $92 $40 #
cone-surface $-1 -57.46181301950368 12.156291666188377 5.5717337777312181 0.6560590369687036 0 -0.75470957328743171 0.75470957328743171 0 0.6560590369687036 1 I I 0 1 1 forward I I I I #
face $-1 $93 $94 $32 $-1 $95 forward single #
loop $-1 $96 $97 $41 #
cone-surface $-1 -57.46181301950368 16.61093923235855 5.5717337777312181 0.6560590369687036 0 -0.75470957328743171 0.75470957328743171 0 0.6560590369687036 1 I I 0 1 1 forward I I I I #
face $-1 $98 $99 $33 $-1 $100 reversed single #
loop $-1 $-1 $101 $42 #
plane-surface $-1 49.303993931911677 19.580704276471995 177.65908043557707 0 -1 0 -0.6560590369687036 0 -0.75470957328743171 forward_v I I I I #
face $-1 $102 $103 $34 $-1 $104 forward single #
loop $-1 $105 $106 $43 #
cone-surface $-1 57.461813019503673 12.156291666188377 5.5717337777312128 -0.6560590369687036 0 -0.75470957328743171 0.75470957328743171 0 -0.6560590369687036 1 I I 0 1 1 forward I I I I #
face $-1 $107 $108 $35 $-1 $109 forward single #
loop $-1 $110 $111 $44 #
cone-surface $-1 57.461813019503673 16.61093923235855 5.5717337777312128 -0.6560590369687036 0 -0.75470957328743171 0.75470957328743171 0 -0.6560590369687036 1 I I 0 1 1 forward I I I I #
face $-1 $112 $113 $27 $-1 $114 reversed single #
loop $-1 $-1 $115 $45 #
plane-surface $-1 0 0 -9.3244530882810395 0 0 1 1 0 0 forward_v I I I I #
coedge $-1 $116 $117 $118 $119 forward $46 $-1 #
face $-1 $120 $121 $28 $-1 $122 reversed single #
loop $-1 $-1 $123 $48 #
plane-surface $-1 -44.273866735208912 -21.603566816693977 0 0 -1 0 0 0 -1 forward_v I I I I #
coedge $-1 $124 $125 $126 $127 forward $49 $-1 #
face $-1 $128 $129 $29 $-1 $130 reversed single #
loop $-1 $-1 $131 $51 #
plane-surface $-1 -45.773866735208912 25.356583062677434 0 1 0 0 0 0 -1 forward_v I I I I #
coedge $-1 $132 $133 $134 $135 forward $52 $-1 #
face $-1 $136 $137 $30 $-1 $138 reversed single #
loop $-1 $-1 $139 $54 #
plane-surface $-1 -61.422772911770991 14.38361544927346 4.3524404779423662 -0.6560590369687036 0 0.75470957328743171 0.75470957328743171 0 0.6560590369687036 forward_v I I I I #
coedge $-1 $140 $141 $142 $143 reversed $55 $-1 #
face $-1 $-1 $144 $31 $-1 $145 forward single #
loop $-1 $146 $147 $57 #
cone-surface $-1 -56.032646661313244 12.156291666188377 3.9276659857070211 0.6560590369687036 0 -0.75470957328743171 0.37735478664371586 0 0.3280295184843518 1 I I -0.70710678118654746 0.70710678118654746 0.5 forward I I I I #
loop $-1 $-1 $148 $40 #
coedge $-1 $92 $92 $149 $150 reversed $58 $-1 #
face $-1 $-1 $151 $32 $-1 $152 forward single #
loop $-1 $153 $154 $60 #
cone-surface $-1 -56.032646661313244 16.61093923235855 3.9276659857070211 0.6560590369687036 0 -0.75470957328743171 0.37735478664371586 0 0.3280295184843518 1 I I -0.70710678118654746 0.70710678118654746 0.5 forward I I I I #
loop $-1 $-1 $155 $41 #
coedge $-1 $97 $97 $156 $157 reversed $61 $-1 #
face $-1 $158 $159 $33 $-1 $160 reversed single #
loop $-1 $-1 $161 $63 #
plane-surface $-1 -31.289936556976016 14.38361544927346 84.946370966830074 0.6560590369687036 0 0.75470957328743171 0.75470957328743171 0 -0.6560590369687036 forward_v I I I I #
coedge $-1 $162 $163 $164 $165 reversed $64 $-1 #
face $-1 $-1 $166 $34 $-1 $167 forward single #
loop $-1 $168 $169 $66 #
cone-surface $-1 56.032646661313237 12.156291666188377 3.9276659857070157 -0.6560590369687036 0 -0.75470957328743171 0.37735478664371586 0 -0.3280295184843518 1 I I -0.70710678118654746 0.70710678118654746 0.5 forward I I I I #
loop $-1 $-1 $170 $43 #
coedge $-1 $106 $106 $171 $172 reversed $67 $-1 #
face $-1 $-1 $173 $35 $-1 $174 forward single #
loop $-1 $175 $176 $69 #
cone-surface $-1 56.032646661313237 16.61093923235855 3.9276659857070157 -0.6560590369687036 0 -0.75470957328743171 0.37735478664371586 0 -0.3280295184843518 1 I I -0.70710678118654746 0.70710678118654746 0.5 forward I I I I #
loop $-1 $-1 $177 $44 #
coedge $-1 $111 $111 $178 $179 reversed $70 $-1 #
face $-1 $180 $181 $27 $-1 $182 reversed single #
loop $-1 $-1 $183 $72 #
plane-surface $-1 0 -29.109599308660901 0 0 1 0 0 0 1 forward_v I I I I #
coedge $-1 $184 $185 $186 $187 forward $73 $-1 #
coedge $-1 $188 $75 $189 $190 forward $46 $-1 #
coedge $-1 $75 $188 $191 $192 forward $46 $-1 #
coedge $-1 $193 $194 $75 $119 reversed $195 $-1 #
edge $-1 $196 -29.109599308660901 $197 29.109599308660901 $118 $198 forward 7 unknown #
face $-1 $199 $200 $28 $-1 $201 forward single #
loop $-1 $-1 $202 $76 #
plane-surface $-1 -42.773866735208912 -25.356583062677437 0 -1 0 0 0 0 1 forward_v I I I I #
coedge $-1 $203 $204 $205 $206 forward $77 $-1 #
coedge $-1 $207 $79 $208 $209 reversed $49 $-1 #
coedge $-1 $79 $207 $210 $211 reversed $49 $-1 #
coedge $-1 $204 $203 $79 $127 reversed $77 $-1 #
edge $-1 $212 -9.3244530882810395 $213 9.3244530882810395 $126 $214 forward 7 unknown #
face $-1 $215 $216 $29 $-1 $217 reversed single #
loop $-1 $-1 $218 $80 #
plane-surface $-1 -42.773866735208912 25.356583062677434 0 -1 0 0 0 0 1 forward_v I I I I #
coedge $-1 $219 $220 $221 $222 reversed $81 $-1 #
coedge $-1 $223 $83 $224 $225 reversed $52 $-1 #
coedge $-1 $83 $223 $226 $227 reversed $52 $-1 #
coedge $-1 $220 $219 $83 $135 reversed $81 $-1 #
edge $-1 $228 -9.3244530882810395 $229 9.3244530882810395 $134 $230 forward 7 unknown #
face $-1 $231 $232 $30 $-1 $233 reversed single #
loop $-1 $-1 $234 $84 #
plane-surface $-1 -142.01670340065868 19.580704276471995 97.06514994668936 0 -1 0 0.6560590369687036 0 -0.75470957328743171 forward_v I I I I #
coedge $-1 $235 $236 $237 $238 reversed $85 $-1 #
coedge $-1 $141 $87 $239 $240 reversed $55 $-1 #
coedge $-1 $87 $140 $235 $241 reversed $55 $-1 #
coedge $-1 $237 $242 $87 $143 forward $243 $-1 #
edge $-1 $244 9.585578788558351 $245 15.305224893680801 $142 $246 forward 7 unknown #
loop $-1 $-1 $149 $88 #
plane-surface $-1 -61.422772911770991 14.38361544927346 4.3524404779423662 -0.6560590369687036 0 0.75470957328743171 0.75470957328743171 0 0.6560590369687036 forward_v I I I I #
loop $-1 $-1 $247 $57 #
coedge $-1 $147 $147 $148 $248 reversed $89 $-1 #
coedge $-1 $148 $148 $147 $248 forward $91 $-1 #
coedge $-1 $149 $149 $92 $150 forward $144 $-1 #
edge $-1 $249 0 $249 6.2831853071796004 $149 $250 forward 7 unknown #
loop $-1 $-1 $156 $93 #
plane-surface $-1 -61.422772911770991 14.38361544927346 4.3524404779423662 -0.6560590369687036 0 0.75470957328743171 0.75470957328743171 0 0.6560590369687036 forward_v I I I I #
loop $-1 $-1 $251 $60 #
coedge $-1 $154 $154 $155 $252 reversed $94 $-1 #
coedge $-1 $155 $155 $154 $252 forward $96 $-1 #
coedge $-1 $156 $156 $97 $157 forward $151 $-1 #
edge $-1 $253 0 $253 6.2831853071796004 $156 $254 forward 7 unknown #
face $-1 $255 $256 $33 $-1 $257 forward single #
loop $-1 $-1 $258 $98 #
plane-surface $-1 49.303993931911677 9.1865266220749255 177.65908043557707 0 1 0 0.6560590369687036 0 0.75470957328743171 forward_v I I I I #
coedge $-1 $259 $260 $261 $262 reversed $99 $-1 #
coedge $-1 $163 $101 $263 $264 reversed $64 $-1 #
coedge $-1 $101 $162 $259 $265 reversed $64 $-1 #
coedge $-1 $261 $266 $101 $165 forward $256 $-1 #
edge $-1 $267 -36.770775945815153 $268 -31.051129840692703 $164 $269 forward 7 unknown #
loop $-1 $-1 $171 $102 #
plane-surface $-1 -31.289936556976016 14.38361544927346 84.946370966830074 0.6560590369687036 0 0.75470957328743171 0.75470957328743171 0 -0.6560590369687036 forward_v I I I I #
loop $-1 $-1 $270 $66 #
coedge $-1 $169 $169 $170 $271 reversed $103 $-1 #
coedge $-1 $170 $170 $169 $271 forward $105 $-1 #
coedge $-1 $171 $171 $106 $172 forward $166 $-1 #
edge $-1 $272 0 $272 6.2831853071796004 $171 $273 forward 7 unknown #
loop $-1 $-1 $178 $107 #
plane-surface $-1 -31.289936556976016 14.38361544927346 84.946370966830074 0.6560590369687036 0 0.75470957328743171 0.75470957328743171 0 -0.6560590369687036 forward_v I I I I #
loop $-1 $-1 $274 $69 #
coedge $-1 $176 $176 $177 $275 reversed $108 $-1 #
coedge $-1 $177 $177 $176 $275 forward $110 $-1 #
coedge $-1 $178 $178 $111 $179 forward $173 $-1 #
edge $-1 $276 0 $276 6.2831853071796004 $178 $277 forward 7 unknown #
face $-1 $278 $279 $27 $-1 $280 reversed single #
loop $-1 $-1 $281 $112 #
plane-surface $-1 -61.422772911770991 0 0 1 0 0 0 0 -1 forward_v I I I I #
coedge $-1 $282 $191 $283 $284 forward $113 $-1 #
coedge $-1 $285 $115 $282 $286 forward $73 $-1 #
coedge $-1 $115 $285 $287 $288 forward $73 $-1 #
coedge $-1 $194 $193 $115 $187 reversed $195 $-1 #
edge $-1 $289 -29.109599308660901 $290 29.109599308660901 $186 $291 forward 7 unknown #
coedge $-1 $117 $116 $292 $293 forward $46 $-1 #
coedge $-1 $294 $295 $116 $190 reversed $279 $-1 #
edge $-1 $197 -61.422772911770991 $296 61.422772911770991 $189 $297 forward 7 unknown #
coedge $-1 $183 $298 $117 $192 reversed $113 $-1 #
edge $-1 $299 -61.422772911770991 $196 61.422772911770991 $191 $300 forward 7 unknown #
coedge $-1 $186 $118 $298 $301 forward $195 $-1 #
coedge $-1 $118 $186 $294 $302 reversed $195 $-1 #
loop $-1 $-1 $193 $278 #
vertex $-1 $119 $303 #
vertex $-1 $119 $304 #
straight-curve $-1 61.422772911770991 0 9.3244530882810395 0 1 0 I I #
face $-1 $305 $306 $28 $-1 $307 reversed single #
loop $-1 $-1 $308 $120 #
plane-surface $-1 0 0 9.3244530882810395 0 0 1 1 0 0 forward_v I I I I #
coedge $-1 $309 $310 $311 $312 reversed $121 $-1 #
coedge $-1 $126 $123 $313 $314 reversed $77 $-1 #
coedge $-1 $123 $126 $315 $316 reversed $77 $-1 #
coedge $-1 $310 $309 $123 $206 reversed $121 $-1 #
edge $-1 $317 -9.3244530882810395 $318 9.3244530882810395 $205 $319 forward 7 unknown #
coedge $-1 $125 $124 $320 $321 reversed $49 $-1 #
coedge $-1 $313 $322 $124 $209 forward $306 $-1 #
edge $-1 $323 -16.431307777322179 $213 -8.9252752853552586 $208 $324 forward 7 unknown #
coedge $-1 $325 $315 $125 $211 forward $200 $-1 #
edge $-1 $212 8.9252752853552586 $326 16.431307777322179 $210 $327 forward 7 unknown #
vertex $-1 $211 $328 #
vertex $-1 $209 $329 #
straight-curve $-1 -45.773866735208912 -21.603566816693977 0 0 0 -1 I I #
face $-1 $330 $331 $29 $-1 $332 forward single #
loop $-1 $-1 $333 $128 #
plane-surface $-1 0 0 -9.3244530882810395 0 0 1 1 0 0 forward_v I I I I #
coedge $-1 $334 $335 $223 $336 forward $129 $-1 #
coedge $-1 $134 $131 $337 $338 reversed $81 $-1 #
coedge $-1 $131 $134 $339 $340 reversed $81 $-1 #
coedge $-1 $341 $342 $131 $222 forward $343 $-1 #
edge $-1 $344 -9.3244530882810395 $345 9.3244530882810395 $221 $346 forward 7 unknown #
coedge $-1 $133 $132 $218 $336 reversed $52 $-1 #
coedge $-1 $337 $333 $132 $225 forward $216 $-1 #
edge $-1 $347 20.636933367604456 $229 23.636933367604456 $224 $348 forward 7 unknown #
coedge $-1 $349 $339 $133 $227 forward $331 $-1 #
edge $-1 $228 -23.636933367604456 $350 -20.636933367604456 $226 $351 forward 7 unknown #
vertex $-1 $227 $352 #
vertex $-1 $225 $353 #
straight-curve $-1 -45.773866735208912 21.60356681669397 0 0 0 -1 I I #
face $-1 $-1 $243 $30 $-1 $354 forward single #
loop $-1 $-1 $355 $136 #
plane-surface $-1 -61.422772911770991 0 0 1 0 0 0 0 -1 forward_v I I I I #
coedge $-1 $356 $357 $358 $359 reversed $137 $-1 #
coedge $-1 $360 $139 $141 $241 forward $85 $-1 #
coedge $-1 $139 $360 $356 $361 forward $85 $-1 #
coedge $-1 $358 $142 $139 $238 forward $243 $-1 #
edge $-1 $245 1.9947188974381955 $362 12.388896551835265 $237 $363 forward 7 unknown #
coedge $-1 $364 $365 $140 $240 forward $232 $-1 #
edge $-1 $366 -44.180134495402314 $244 -39.20812188506364 $239 $367 forward 7 unknown #
edge $-1 $245 -7.5786054762871249 $366 0 $141 $368 forward 7 unknown #
coedge $-1 $142 $358 $364 $369 forward $243 $-1 #
loop $-1 $-1 $358 $231 #
vertex $-1 $240 $370 #
vertex $-1 $143 $371 #
straight-curve $-1 -71.008351700329342 9.1865266220749255 9.3244530882810395 1 0 0 I I #
coedge $-1 $247 $247 $-1 $372 reversed $146 $-1 #
edge $-1 $373 0 $373 6.2831853071796004 $147 $374 forward 7 unknown #
vertex $-1 $150 $375 #
ellipse-curve $-1 -58.562949859209766 12.156291666188377 6.8384467831117028 -0.6560590369687036 0 0.75470957328743171 0.75470957328743171 0 0.6560590369687036 1 I I #
coedge $-1 $251 $251 $-1 $376 reversed $153 $-1 #
edge $-1 $377 0 $377 6.2831853071796004 $154 $378 forward 7 unknown #
vertex $-1 $157 $379 #
ellipse-curve $-1 -58.562949859209766 16.61093923235855 6.8384467831117028 -0.6560590369687036 0 0.75470957328743171 0.75470957328743171 0 0.6560590369687036 1 I I #
face $-1 $-1 $380 $33 $-1 $381 reversed single #
loop $-1 $-1 $164 $158 #
plane-surface $-1 0 0 9.3244530882810395 0 0 1 1 0 0 forward_v I I I I #
coedge $-1 $382 $383 $384 $385 reversed $159 $-1 #
coedge $-1 $386 $161 $163 $265 forward $99 $-1 #
coedge $-1 $161 $386 $382 $387 forward $99 $-1 #
coedge $-1 $384 $164 $161 $262 forward $256 $-1 #
edge $-1 $268 -12.388896551835265 $388 -1.9947188974381955 $261 $389 forward 7 unknown #
coedge $-1 $390 $391 $162 $264 forward $380 $-1 #
edge $-1 $392 -84.477099739846167 $267 -79.505087129507501 $263 $393 forward 7 unknown #
edge $-1 $268 115.26694034725486 $392 122.845545823542 $163 $394 forward 7 unknown #
coedge $-1 $164 $384 $390 $395 forward $256 $-1 #
vertex $-1 $165 $396 #
vertex $-1 $165 $397 #
straight-curve $-1 24.651996965955838 19.580704276471995 9.3244530882810466 -1 0 0 I I #
coedge $-1 $270 $270 $-1 $398 reversed $168 $-1 #
edge $-1 $399 0 $399 6.2831853071796004 $169 $400 forward 7 unknown #
vertex $-1 $172 $401 #
ellipse-curve $-1 58.562949859209773 12.156291666188377 6.8384467831117117 0.6560590369687036 0 0.75470957328743171 0.75470957328743171 0 -0.6560590369687036 1 I I #
coedge $-1 $274 $274 $-1 $402 reversed $175 $-1 #
edge $-1 $403 0 $403 6.2831853071796004 $176 $404 forward 7 unknown #
vertex $-1 $179 $405 #
ellipse-curve $-1 58.562949859209773 16.61093923235855 6.8384467831117117 0.6560590369687036 0 0.75470957328743171 0.75470957328743171 0 -0.6560590369687036 1 I I #
face $-1 $-1 $195 $27 $-1 $406 reversed single #
loop $-1 $-1 $294 $180 #
plane-surface $-1 0 29.109599308660901 0 0 -1 0 0 0 -1 forward_v I I I I #
coedge $-1 $407 $292 $295 $408 forward $181 $-1 #
coedge $-1 $298 $183 $184 $286 reversed $113 $-1 #
coedge $-1 $292 $407 $183 $284 reversed $181 $-1 #
edge $-1 $299 -9.3244530882810395 $409 9.3244530882810395 $283 $410 forward 7 unknown #
coedge $-1 $185 $184 $407 $411 forward $73 $-1 #
edge $-1 $290 -61.422772911770991 $409 61.422772911770991 $282 $412 forward 7 unknown #
coedge $-1 $295 $294 $185 $288 reversed $279 $-1 #
edge $-1 $413 -61.422772911770991 $289 61.422772911770991 $287 $414 forward 7 unknown #
vertex $-1 $187 $415 #
vertex $-1 $301 $416 #
straight-curve $-1 61.422772911770991 0 -9.3244530882810395 0 -1 0 I I #
coedge $-1 $281 $283 $188 $293 reversed $181 $-1 #
edge $-1 $296 -29.109599308660901 $299 29.109599308660901 $292 $417 forward 7 unknown #
coedge $-1 $287 $189 $194 $302 forward $279 $-1 #
coedge $-1 $189 $287 $281 $408 reversed $279 $-1 #
vertex $-1 $190 $418 #
straight-curve $-1 0 29.109599308660901 9.3244530882810395 -1 0 0 I I #
coedge $-1 $191 $282 $193 $301 reversed $113 $-1 #
vertex $-1 $293 $419 #
straight-curve $-1 0 -29.109599308660901 9.3244530882810395 1 0 0 I I #
edge $-1 $196 -9.3244530882810395 $290 9.3244530882810395 $193 $420 forward 7 unknown #
edge $-1 $197 -9.3244530882810395 $289 9.3244530882810395 $194 $421 forward 7 unknown #
point $-1 61.422772911770991 -29.109599308660901 9.3244530882810395 #
point $-1 61.422772911770991 29.109599308660901 9.3244530882810395 #
face $-1 $-1 $422 $28 $-1 $423 reversed single #
loop $-1 $-1 $424 $199 #
plane-surface $-1 0 0 -9.3244530882810395 0 0 1 1 0 0 forward_v I I I I #
coedge $-1 $315 $325 $310 $425 forward $200 $-1 #
coedge $-1 $205 $202 $424 $426 reversed $121 $-1 #
coedge $-1 $202 $205 $308 $425 reversed $121 $-1 #
coedge $-1 $427 $428 $202 $312 forward $422 $-1 #
edge $-1 $429 -9.3244530882810395 $430 9.3244530882810395 $311 $431 forward 7 unknown #
coedge $-1 $424 $208 $203 $314 forward $306 $-1 #
edge $-1 $213 -23.636933367604456 $318 -20.636933367604456 $313 $432 forward 7 unknown #
coedge $-1 $210 $308 $204 $316 forward $200 $-1 #
edge $-1 $317 20.636933367604456 $212 23.636933367604456 $315 $433 forward 7 unknown #
vertex $-1 $316 $434 #
vertex $-1 $314 $435 #
straight-curve $-1 -42.773866735208912 -21.603566816693977 0 0 0 -1 I I #
coedge $-1 $428 $427 $207 $321 forward $422 $-1 #
edge $-1 $326 -9.3244530882810395 $323 9.3244530882810395 $320 $436 forward 7 unknown #
coedge $-1 $208 $424 $428 $437 forward $306 $-1 #
vertex $-1 $209 $438 #
straight-curve $-1 -45.773866735208912 -12.678291531338719 -9.3244530882810395 0 1 0 I I #
coedge $-1 $308 $210 $427 $439 forward $200 $-1 #
vertex $-1 $439 $440 #
straight-curve $-1 -45.773866735208912 -12.678291531338719 9.3244530882810395 0 -1 0 I I #
point $-1 -45.773866735208912 -21.603566816693977 9.3244530882810395 #
point $-1 -45.773866735208912 -21.603566816693977 -9.3244530882810395 #
face $-1 $-1 $343 $29 $-1 $441 reversed single #
loop $-1 $-1 $349 $215 #
plane-surface $-1 0 0 9.3244530882810395 0 0 1 1 0 0 forward_v I I I I #
coedge $-1 $224 $442 $334 $443 forward $216 $-1 #
coedge $-1 $444 $218 $333 $443 reversed $129 $-1 #
coedge $-1 $218 $444 $349 $445 reversed $129 $-1 #
edge $-1 $350 -9.3244530882810395 $347 9.3244530882810395 $218 $446 forward 7 unknown #
coedge $-1 $442 $224 $219 $338 forward $216 $-1 #
edge $-1 $229 8.9252752853552533 $344 16.431307777322182 $337 $447 forward 7 unknown #
coedge $-1 $226 $448 $220 $340 forward $331 $-1 #
edge $-1 $345 -16.431307777322182 $228 -8.9252752853552533 $339 $449 forward 7 unknown #
coedge $-1 $450 $221 $448 $451 reversed $343 $-1 #
coedge $-1 $221 $450 $442 $452 reversed $343 $-1 #
loop $-1 $-1 $450 $330 #
vertex $-1 $452 $453 #
vertex $-1 $222 $454 #
straight-curve $-1 -45.773866735208912 29.109599308660901 0 0 0 1 I I #
vertex $-1 $225 $455 #
straight-curve $-1 -22.136933367604456 21.60356681669397 -9.3244530882810395 -1 0 0 I I #
coedge $-1 $448 $226 $335 $445 forward $331 $-1 #
vertex $-1 $227 $456 #
straight-curve $-1 -22.136933367604456 21.60356681669397 9.3244530882810395 1 0 0 I I #
point $-1 -45.773866735208912 21.60356681669397 9.3244530882810395 #
point $-1 -45.773866735208912 21.60356681669397 -9.3244530882810395 #
plane-surface $-1 0 0 9.3244530882810395 0 0 1 1 0 0 forward_v I I I I #
coedge $-1 $365 $364 $357 $457 forward $232 $-1 #
coedge $-1 $357 $234 $236 $361 reversed $137 $-1 #
coedge $-1 $234 $356 $355 $457 reversed $137 $-1 #
coedge $-1 $242 $237 $234 $359 forward $243 $-1 #
edge $-1 $362 -15.305224893680801 $458 -9.585578788558351 $358 $459 forward 7 unknown #
coedge $-1 $236 $235 $365 $460 reversed $85 $-1 #
edge $-1 $461 0 $362 7.5786054762871249 $356 $462 forward 7 unknown #
vertex $-1 $238 $463 #
straight-curve $-1 -55.703126806648548 7.19180772463673 9.3244530882810412 0 1 0 I I #
coedge $-1 $355 $239 $242 $369 reversed $232 $-1 #
coedge $-1 $239 $355 $360 $460 forward $232 $-1 #
vertex $-1 $240 $464 #
straight-curve $-1 -61.422772911770991 9.1865266220749255 48.53257497334468 0 0 1 I I #
straight-curve $-1 -61.422772911770991 9.1865266220749255 4.3524404779423662 -0.75470957328743171 0 -0.6560590369687036 I I #
edge $-1 $458 -19.580704276471995 $244 -9.1865266220749255 $364 $465 forward 7 unknown #
point $-1 -61.422772911770991 9.1865266220749255 9.3244530882810395 #
point $-1 -55.703126806648541 9.1865266220749255 9.3244530882810395 #
edge $-1 $466 1 $466 0 $247 $-1 forward 7 unknown #
vertex $-1 $248 $467 #
ellipse-curve $-1 -56.360676179797593 12.156291666188377 4.305020772350737 -0.6560590369687036 0 0.75470957328743171 0.75470957328743171 0 0.6560590369687036 1 I I #
point $-1 -57.808240285922338 12.156291666188377 7.4945058200804038 #
edge $-1 $468 1 $468 0 $251 $-1 forward 7 unknown #
vertex $-1 $252 $469 #
ellipse-curve $-1 -56.360676179797593 16.61093923235855 4.305020772350737 -0.6560590369687036 0 0.75470957328743171 0.75470957328743171 0 0.6560590369687036 1 I I #
point $-1 -57.808240285922338 16.61093923235855 7.4945058200804038 #
loop $-1 $-1 $263 $255 #
plane-surface $-1 61.422772911770991 0 0 -1 0 0 0 0 1 forward_v I I I I #
coedge $-1 $383 $258 $260 $387 reversed $159 $-1 #
coedge $-1 $258 $382 $470 $471 reversed $159 $-1 #
coedge $-1 $266 $261 $258 $385 forward $256 $-1 #
edge $-1 $388 31.051129840692703 $472 36.770775945815153 $384 $473 forward 7 unknown #
coedge $-1 $260 $259 $391 $474 reversed $99 $-1 #
edge $-1 $475 -122.845545823542 $388 -115.26694034725486 $382 $476 forward 7 unknown #
vertex $-1 $262 $477 #
straight-curve $-1 55.703126806648541 7.19180772463673 9.3244530882810466 0 -1 0 I I #
coedge $-1 $470 $263 $266 $395 reversed $380 $-1 #
coedge $-1 $263 $470 $386 $474 forward $380 $-1 #
vertex $-1 $264 $478 #
straight-curve $-1 61.422772911770991 19.580704276471995 88.829540217788534 0 0 1 I I #
straight-curve $-1 -31.289936556976016 19.580704276471995 84.946370966830074 0.75470957328743171 0 -0.6560590369687036 I I #
edge $-1 $472 9.1865266220749255 $267 19.580704276471995 $390 $479 forward 7 unknown #
point $-1 61.422772911770991 19.580704276471995 9.3244530882810395 #
point $-1 55.703126806648541 19.580704276471995 9.3244530882810466 #
edge $-1 $480 1 $480 0 $270 $-1 forward 7 unknown #
vertex $-1 $271 $481 #
ellipse-curve $-1 56.360676179797586 12.156291666188377 4.3050207723507317 0.6560590369687036 0 0.75470957328743171 0.75470957328743171 0 -0.6560590369687036 1 I I #
point $-1 59.317659432497194 12.156291666188377 6.1823877461429912 #
edge $-1 $482 1 $482 0 $274 $-1 forward 7 unknown #
vertex $-1 $275 $483 #
ellipse-curve $-1 56.360676179797586 16.61093923235855 4.3050207723507317 0.6560590369687036 0 0.75470957328743171 0.75470957328743171 0 -0.6560590369687036 1 I I #
point $-1 59.317659432497194 16.61093923235855 6.1823877461429912 #
plane-surface $-1 61.422772911770991 0 0 -1 0 0 0 0 1 forward_v I I I I #
coedge $-1 $283 $281 $285 $411 reversed $181 $-1 #
edge $-1 $296 -9.3244530882810395 $413 9.3244530882810395 $295 $484 forward 7 unknown #
vertex $-1 $411 $485 #
straight-curve $-1 -61.422772911770991 -29.109599308660901 0 0 0 -1 I I #
edge $-1 $409 -29.109599308660901 $413 29.109599308660901 $407 $486 forward 7 unknown #
straight-curve $-1 0 -29.109599308660901 -9.3244530882810395 -1 0 0 I I #
vertex $-1 $288 $487 #
straight-curve $-1 0 29.109599308660901 -9.3244530882810395 1 0 0 I I #
point $-1 61.422772911770991 29.109599308660901 -9.3244530882810395 #
point $-1 61.422772911770991 -29.109599308660901 -9.3244530882810395 #
straight-curve $-1 -61.422772911770991 0 9.3244530882810395 0 -1 0 I I #
point $-1 -61.422772911770991 29.109599308660901 9.3244530882810395 #
point $-1 -61.422772911770991 -29.109599308660901 9.3244530882810395 #
straight-curve $-1 61.422772911770991 -29.109599308660901 0 0 0 -1 I I #
straight-curve $-1 61.422772911770991 29.109599308660901 0 0 0 -1 I I #
loop $-1 $-1 $311 $305 #
plane-surface $-1 0 -29.109599308660901 0 0 1 0 0 0 1 forward_v I I I I #
coedge $-1 $322 $313 $309 $426 forward $306 $-1 #
edge $-1 $430 -16.431307777322179 $317 -8.9252752853552586 $308 $488 forward 7 unknown #
edge $-1 $318 8.9252752853552586 $429 16.431307777322179 $424 $489 forward 7 unknown #
coedge $-1 $320 $311 $325 $439 reversed $422 $-1 #
coedge $-1 $311 $320 $322 $437 reversed $422 $-1 #
vertex $-1 $437 $490 #
vertex $-1 $312 $491 #
straight-curve $-1 -42.773866735208912 -29.109599308660901 0 0 0 1 I I #
straight-curve $-1 -22.136933367604456 -21.603566816693977 -9.3244530882810395 1 0 0 I I #
straight-curve $-1 -22.136933367604456 -21.603566816693977 9.3244530882810395 -1 0 0 I I #
point $-1 -42.773866735208912 -21.603566816693977 9.3244530882810395 #
point $-1 -42.773866735208912 -21.603566816693977 -9.3244530882810395 #
straight-curve $-1 -45.773866735208912 -29.109599308660901 0 0 0 -1 I I #
edge $-1 $429 42.773866735208912 $323 45.773866735208912 $428 $492 forward 7 unknown #
point $-1 -45.773866735208912 -29.109599308660897 -9.3244530882810395 #
edge $-1 $326 -45.773866735208912 $430 -42.773866735208912 $427 $493 forward 7 unknown #
point $-1 -45.773866735208912 -29.109599308660897 9.3244530882810395 #
plane-surface $-1 0 29.109599308660901 0 0 -1 0 0 0 -1 forward_v I I I I #
coedge $-1 $333 $337 $342 $452 forward $216 $-1 #
edge $-1 $494 -16.431307777322182 $347 -8.9252752853552533 $333 $495 forward 7 unknown #
coedge $-1 $335 $334 $450 $496 reversed $129 $-1 #
edge $-1 $350 8.9252752853552533 $497 16.431307777322182 $349 $498 forward 7 unknown #
straight-curve $-1 -42.773866735208912 21.60356681669397 0 0 0 -1 I I #
straight-curve $-1 -45.773866735208912 12.678291531338717 -9.3244530882810395 0 1 0 I I #
coedge $-1 $339 $349 $341 $451 forward $331 $-1 #
straight-curve $-1 -45.773866735208912 12.678291531338717 9.3244530882810395 0 -1 0 I I #
coedge $-1 $342 $341 $444 $496 forward $343 $-1 #
edge $-1 $497 42.773866735208912 $345 45.773866735208912 $341 $499 forward 7 unknown #
edge $-1 $344 -45.773866735208912 $494 -42.773866735208912 $342 $500 forward 7 unknown #
point $-1 -45.773866735208912 29.109599308660897 -9.3244530882810395 #
point $-1 -45.773866735208912 29.109599308660897 9.3244530882810395 #
point $-1 -42.773866735208912 21.60356681669397 -9.3244530882810395 #
point $-1 -42.773866735208912 21.60356681669397 9.3244530882810395 #
edge $-1 $458 39.20812188506364 $461 44.180134495402314 $355 $501 forward 7 unknown #
vertex $-1 $369 $502 #
straight-curve $-1 -71.008351700329342 19.580704276471995 9.3244530882810395 -1 0 0 I I #
edge $-1 $461 -12.388896551835265 $366 -1.9947188974381955 $365 $503 forward 7 unknown #
vertex $-1 $460 $504 #
straight-curve $-1 -61.422772911770991 19.580704276471995 4.3524404779423662 0.75470957328743171 0 0.6560590369687036 I I #
point $-1 -55.703126806648541 19.580704276471995 9.3244530882810395 #
point $-1 -61.422772911770991 9.1865266220749255 4.3524404779423662 #
straight-curve $-1 -61.422772911770991 0 9.3244530882810395 0 -1 0 I I #
vertex $-1 $372 $505 #
point $-1 -55.605966606510165 12.156291666188377 4.9610798093194406 #
vertex $-1 $376 $506 #
point $-1 -55.605966606510165 16.61093923235855 4.9610798093194406 #
coedge $-1 $391 $390 $383 $471 forward $380 $-1 #
edge $-1 $472 79.505087129507501 $475 84.477099739846167 $470 $507 forward 7 unknown #
vertex $-1 $395 $508 #
straight-curve $-1 24.651996965955838 9.1865266220749255 9.3244530882810466 1 0 0 I I #
edge $-1 $475 1.9947188974381955 $392 12.388896551835265 $391 $509 forward 7 unknown #
vertex $-1 $474 $510 #
straight-curve $-1 -31.289936556976016 9.1865266220749255 84.946370966830074 -0.75470957328743171 0 0.6560590369687036 I I #
point $-1 55.703126806648541 9.1865266220749255 9.3244530882810466 #
point $-1 61.422772911770991 19.580704276471995 4.3524404779423662 #
straight-curve $-1 61.422772911770991 0 9.3244530882810395 0 1 0 I I #
vertex $-1 $398 $511 #
point $-1 57.115385753085022 12.156291666188377 3.6489617353820281 #
vertex $-1 $402 $512 #
point $-1 57.115385753085022 16.61093923235855 3.6489617353820281 #
straight-curve $-1 -61.422772911770991 29.109599308660901 0 0 0 -1 I I #
point $-1 -61.422772911770991 -29.109599308660901 -9.3244530882810395 #
straight-curve $-1 -61.422772911770991 0 -9.3244530882810395 0 1 0 I I #
point $-1 -61.422772911770991 29.109599308660901 -9.3244530882810395 #
straight-curve $-1 -42.773866735208912 -12.678291531338719 9.3244530882810395 0 1 0 I I #
straight-curve $-1 -42.773866735208912 -12.678291531338719 -9.3244530882810395 0 -1 0 I I #
point $-1 -42.773866735208912 -29.109599308660897 -9.3244530882810395 #
point $-1 -42.773866735208912 -29.109599308660897 9.3244530882810395 #
straight-curve $-1 0 -29.109599308660901 -9.3244530882810395 -1 0 0 I I #
straight-curve $-1 0 -29.109599308660901 9.3244530882810395 1 0 0 I I #
vertex $-1 $496 $513 #
straight-curve $-1 -42.773866735208912 12.678291531338717 -9.3244530882810395 0 -1 0 I I #
edge $-1 $497 -9.3244530882810395 $494 9.3244530882810395 $450 $514 forward 7 unknown #
vertex $-1 $451 $515 #
straight-curve $-1 -42.773866735208912 12.678291531338717 9.3244530882810395 0 1 0 I I #
straight-curve $-1 0 29.109599308660901 9.3244530882810395 -1 0 0 I I #
straight-curve $-1 0 29.109599308660901 -9.3244530882810395 1 0 0 I I #
straight-curve $-1 -61.422772911770991 19.580704276471995 48.53257497334468 0 0 -1 I I #
point $-1 -61.422772911770991 19.580704276471995 9.3244530882810395 #
straight-curve $-1 -61.422772911770991 7.19180772463673 4.352440477942368 0 -1 0 I I #
point $-1 -61.422772911770991 19.580704276471995 4.3524404779423662 #
point $-1 -55.704617142828894 12.156291666188377 3.5503111990633052 #
point $-1 -55.704617142828894 16.61093923235855 3.5503111990633052 #
straight-curve $-1 61.422772911770991 9.1865266220749255 88.829540217788534 0 0 -1 I I #
point $-1 61.422772911770991 9.1865266220749255 9.3244530882810395 #
straight-curve $-1 61.422772911770991 7.19180772463673 4.3524404779423804 0 1 0 I I #
point $-1 61.422772911770991 9.1865266220749255 4.3524404779423662 #
point $-1 55.704617142828887 12.156291666188377 3.5503111990632998 #
point $-1 55.704617142828887 16.61093923235855 3.5503111990632998 #
point $-1 -42.773866735208912 29.109599308660897 -9.3244530882810395 #
straight-curve $-1 -42.773866735208912 29.109599308660901 0 0 0 -1 I I #
point $-1 -42.773866735208912 29.109599308660897 9.3244530882810395 #
End-of-ACIS-data 