500 0 9 0           
7 Unknown 11 ACIS 5.0 NT 24 Fri Mar 26 02:43:49 1999 
-1 9.9999999999999995e-007 1e-010 
body $-1 $9 $-1 $10 #
body $-1 $11 $-1 $12 #
body $-1 $13 $-1 $14 #
body $-1 $15 $-1 $16 #
body $-1 $17 $-1 $18 #
body $-1 $19 $-1 $20 #
body $-1 $21 $-1 $22 #
body $-1 $23 $-1 $24 #
body $-1 $25 $-1 $26 #
lump $-1 $-1 $27 $0 #
transform $-1 1 0 0 0 1 0 0 0 1 78.146916104617446 41.293348475911067 19.932512411077919 1 rotate no_reflect no_shear #
lump $-1 $-1 $28 $1 #
transform $-1 1 0 0 0 1 0 0 0 1 78.146916104617446 41.293348475911067 19.932512411077919 1 rotate no_reflect no_shear #
lump $-1 $-1 $29 $2 #
transform $-1 1 0 0 0 1 0 0 0 1 78.146916104617446 41.293348475911067 19.932512411077919 1 rotate no_reflect no_shear #
lump $-1 $-1 $30 $3 #
transform $-1 1 0 0 0 1 0 0 0 1 78.146916104617446 41.293348475911067 19.932512411077919 1 rotate no_reflect no_shear #
lump $-1 $-1 $31 $4 #
transform $-1 1 0 0 0 1 0 0 0 1 78.146916104617446 41.293348475911067 19.932512411077919 1 rotate no_reflect no_shear #
lump $-1 $-1 $32 $5 #
transform $-1 1 0 0 0 1 0 0 0 1 78.146916104617446 41.293348475911067 19.932512411077919 1 rotate no_reflect no_shear #
lump $-1 $-1 $33 $6 #
transform $-1 1 0 0 0 1 0 0 0 1 78.146916104617446 41.293348475911067 19.932512411077919 1 rotate no_reflect no_shear #
lump $-1 $-1 $34 $7 #
transform $-1 1 0 0 0 1 0 0 0 1 78.146916104617446 41.293348475911067 19.932512411077919 1 rotate no_reflect no_shear #
lump $-1 $-1 $35 $8 #
transform $-1 1 0 0 0 1 0 0 0 1 78.146916104617446 41.293348475911067 19.932512411077919 1 rotate no_reflect no_shear #
shell $-1 $-1 $-1 $36 $-1 $9 #
shell $-1 $-1 $-1 $37 $-1 $11 #
shell $-1 $-1 $-1 $38 $-1 $13 #
shell $-1 $-1 $-1 $39 $-1 $15 #
shell $-1 $-1 $-1 $40 $-1 $17 #
shell $-1 $-1 $-1 $41 $-1 $19 #
shell $-1 $-1 $-1 $42 $-1 $21 #
shell $-1 $-1 $-1 $43 $-1 $23 #
shell $-1 $-1 $-1 $44 $-1 $25 #
face $-1 $45 $46 $27 $-1 $47 forward single #
face $-1 $48 $49 $28 $-1 $50 forward single #
face $-1 $51 $52 $29 $-1 $53 reversed single #
face $-1 $54 $55 $30 $-1 $56 forward single #
face $-1 $57 $58 $31 $-1 $59 forward single #
face $-1 $60 $61 $32 $-1 $62 reversed single #
face $-1 $63 $64 $33 $-1 $65 forward single #
face $-1 $66 $67 $34 $-1 $68 forward single #
face $-1 $69 $70 $35 $-1 $71 forward single #
face $-1 $72 $73 $27 $-1 $74 reversed single #
loop $-1 $-1 $75 $36 #
plane-surface $-1 0 0 19.932512411077919 0 0 1 1 0 0 forward_v I I I I #
face $-1 $76 $77 $28 $-1 $78 reversed single #
loop $-1 $-1 $79 $37 #
plane-surface $-1 0 -30.801341611885018 -14.76418415560747 0 0 1 1 0 0 forward_v I I I I #
face $-1 $80 $81 $29 $-1 $82 reversed single #
loop $-1 $-1 $83 $38 #
plane-surface $-1 -202.96872179363675 17.870077966261647 108.04646646916358 0 1 0 -0.79863551827123203 0 0.60181501223851219 forward_v I I I I #
face $-1 $84 $85 $30 $-1 $86 forward single #
loop $-1 $87 $88 $39 #
cone-surface $-1 -74.673340544276414 21.296606194162983 16.030180370357655 0.79863551827123203 0 -0.60181501223851219 0.90272251835776829 0 1.197953277406848 1 I I 0 1 1.5 forward I I I I #
face $-1 $89 $90 $31 $-1 $91 forward single #
loop $-1 $92 $93 $40 #
cone-surface $-1 -74.673340544276414 26.436398536014998 16.030180370357655 0.79863551827123203 0 -0.60181501223851219 0.90272251835776829 0 1.197953277406848 1 I I 0 1 1.5 forward I I I I #
face $-1 $94 $95 $32 $-1 $96 reversed single #
loop $-1 $-1 $97 $41 #
plane-surface $-1 70.432983081802007 32.162269275815582 231.71544332873134 0 1 0 0.68199836817093118 0 0.7313536940579346 forward_v I I I I #
face $-1 $98 $99 $33 $-1 $100 forward single #
loop $-1 $101 $102 $42 #
cone-surface $-1 72.608371540930833 33.988485115834685 14.676680822021932 -0.68199836817093118 0 -0.7313536940579346 0.3656768470289673 0 -0.34099918408546559 1 I I 0 1 0.5 forward I I I I #
face $-1 $103 $104 $34 $-1 $105 forward single #
loop $-1 $106 $107 $43 #
cone-surface $-1 72.608371540930833 36.727808875863325 14.676680822021932 -0.68199836817093118 0 -0.7313536940579346 0.3656768470289673 0 -0.34099918408546559 1 I I 0 1 0.5 forward I I I I #
face $-1 $108 $109 $35 $-1 $110 forward single #
loop $-1 $111 $112 $44 #
cone-surface $-1 72.608371540930833 39.467132635891964 14.676680822021932 -0.68199836817093118 0 -0.7313536940579346 0.3656768470289673 0 -0.34099918408546559 1 I I 0 1 0.5 forward I I I I #
face $-1 $113 $114 $27 $-1 $115 reversed single #
loop $-1 $-1 $116 $45 #
plane-surface $-1 0 0 -19.932512411077919 0 0 1 1 0 0 forward_v I I I I #
coedge $-1 $117 $118 $119 $120 forward $46 $-1 #
face $-1 $121 $122 $28 $-1 $123 reversed single #
loop $-1 $-1 $124 $48 #
plane-surface $-1 0 -20.309334747858969 -17.348348283342695 0 -1 0 0 0 -1 forward_v I I I I #
coedge $-1 $125 $126 $127 $128 reversed $49 $-1 #
face $-1 $129 $130 $29 $-1 $131 reversed single #
loop $-1 $-1 $132 $51 #
plane-surface $-1 -78.146916104617461 23.866502365088998 13.986491925358905 -0.79863551827123203 0 0.60181501223851219 0.60181501223851219 0 0.79863551827123203 forward_v I I I I #
coedge $-1 $133 $134 $135 $136 reversed $52 $-1 #
face $-1 $-1 $137 $30 $-1 $138 forward single #
loop $-1 $139 $140 $54 #
cone-surface $-1 -72.841112191039258 21.296606194162983 14.649497313318012 0.79863551827123203 0 -0.60181501223851219 0.45136125917888414 0 0.59897663870342399 1 I I -0.70710678118654757 0.70710678118654757 0.75 forward I I I I #
loop $-1 $-1 $141 $39 #
coedge $-1 $88 $88 $142 $143 reversed $55 $-1 #
face $-1 $-1 $144 $31 $-1 $145 forward single #
loop $-1 $146 $147 $57 #
cone-surface $-1 -72.841112191039258 26.436398536014998 14.649497313318012 0.79863551827123203 0 -0.60181501223851219 0.45136125917888414 0 0.59897663870342399 1 I I -0.70710678118654757 0.70710678118654757 0.75 forward I I I I #
loop $-1 $-1 $148 $40 #
coedge $-1 $93 $93 $149 $150 reversed $58 $-1 #
face $-1 $151 $152 $32 $-1 $153 reversed single #
loop $-1 $-1 $154 $60 #
plane-surface $-1 -36.159155440077512 36.727808875863325 117.4093717840364 0.68199836817093118 0 0.7313536940579346 0.7313536940579346 0 -0.68199836817093118 forward_v I I I I #
coedge $-1 $155 $156 $157 $158 reversed $61 $-1 #
face $-1 $-1 $159 $33 $-1 $160 forward single #
loop $-1 $161 $162 $63 #
cone-surface $-1 71.786797347784955 33.988485115834685 13.79565038391198 -0.68199836817093118 0 -0.7313536940579346 0.18283842351448365 0 -0.17049959204273279 1 I I -0.70710678118654746 0.70710678118654746 0.25 forward I I I I #
loop $-1 $-1 $163 $42 #
coedge $-1 $102 $102 $164 $165 reversed $64 $-1 #
face $-1 $-1 $166 $34 $-1 $167 forward single #
loop $-1 $168 $169 $66 #
cone-surface $-1 71.786797347784955 36.727808875863325 13.79565038391198 -0.68199836817093118 0 -0.7313536940579346 0.18283842351448365 0 -0.17049959204273279 1 I I -0.70710678118654746 0.70710678118654746 0.25 forward I I I I #
loop $-1 $-1 $170 $43 #
coedge $-1 $107 $107 $171 $172 reversed $67 $-1 #
face $-1 $-1 $173 $35 $-1 $174 forward single #
loop $-1 $175 $176 $69 #
cone-surface $-1 71.786797347784955 39.467132635891964 13.79565038391198 -0.68199836817093118 0 -0.7313536940579346 0.18283842351448365 0 -0.17049959204273279 1 I I -0.70710678118654746 0.70710678118654746 0.25 forward I I I I #
loop $-1 $-1 $177 $44 #
coedge $-1 $112 $112 $178 $179 reversed $70 $-1 #
face $-1 $180 $181 $27 $-1 $182 reversed single #
loop $-1 $-1 $183 $72 #
plane-surface $-1 0 -41.293348475911067 0 0 1 0 0 0 1 forward_v I I I I #
coedge $-1 $184 $185 $186 $187 forward $73 $-1 #
coedge $-1 $188 $75 $189 $190 forward $46 $-1 #
coedge $-1 $75 $188 $191 $192 forward $46 $-1 #
coedge $-1 $193 $194 $75 $120 reversed $195 $-1 #
edge $-1 $196 -41.293348475911067 $197 41.293348475911067 $119 $198 forward 7 unknown #
face $-1 $199 $200 $28 $-1 $201 reversed single #
loop $-1 $-1 $202 $76 #
plane-surface $-1 0 0 -19.932512411077919 0 0 1 1 0 0 forward_v I I I I #
coedge $-1 $203 $204 $205 $206 reversed $77 $-1 #
coedge $-1 $207 $79 $204 $208 forward $49 $-1 #
coedge $-1 $79 $207 $209 $210 reversed $49 $-1 #
coedge $-1 $211 $205 $79 $128 forward $200 $-1 #
edge $-1 $212 4.9086639419164602 $213 25.892677669968556 $127 $214 forward 7 unknown #
face $-1 $215 $216 $29 $-1 $217 forward single #
loop $-1 $-1 $218 $80 #
plane-surface $-1 -202.96872179363675 29.862926763916349 108.04646646916358 0 -1 0 0.79863551827123203 0 -0.60181501223851219 forward_v I I I I #
coedge $-1 $219 $220 $221 $222 reversed $81 $-1 #
coedge $-1 $134 $83 $223 $224 reversed $52 $-1 #
coedge $-1 $83 $133 $219 $225 reversed $52 $-1 #
coedge $-1 $221 $226 $83 $136 forward $216 $-1 #
edge $-1 $227 23.337444792200927 $228 27.818092483815519 $135 $229 forward 7 unknown #
loop $-1 $-1 $142 $84 #
plane-surface $-1 -78.146916104617461 23.866502365088998 13.986491925358905 -0.79863551827123203 0 0.60181501223851219 0.60181501223851219 0 0.79863551827123203 forward_v I I I I #
loop $-1 $-1 $230 $54 #
coedge $-1 $140 $140 $141 $231 reversed $85 $-1 #
coedge $-1 $141 $141 $140 $231 forward $87 $-1 #
coedge $-1 $142 $142 $88 $143 forward $137 $-1 #
edge $-1 $232 0 $232 6.2831853071796004 $142 $233 forward 7 unknown #
loop $-1 $-1 $149 $89 #
plane-surface $-1 -78.146916104617461 23.866502365088998 13.986491925358905 -0.79863551827123203 0 0.60181501223851219 0.60181501223851219 0 0.79863551827123203 forward_v I I I I #
loop $-1 $-1 $234 $57 #
coedge $-1 $147 $147 $148 $235 reversed $90 $-1 #
coedge $-1 $148 $148 $147 $235 forward $92 $-1 #
coedge $-1 $149 $149 $93 $150 forward $144 $-1 #
edge $-1 $236 0 $236 6.2831853071796004 $149 $237 forward 7 unknown #
face $-1 $238 $239 $32 $-1 $240 forward single #
loop $-1 $-1 $241 $94 #
plane-surface $-1 0 41.293348475911067 0 0 -1 0 0 0 -1 forward_v I I I I #
coedge $-1 $242 $243 $244 $245 reversed $95 $-1 #
coedge $-1 $156 $97 $246 $247 reversed $61 $-1 #
coedge $-1 $97 $155 $242 $248 reversed $61 $-1 #
coedge $-1 $244 $249 $97 $158 forward $250 $-1 #
edge $-1 $251 95.925209253287747 $252 105.04048840220881 $157 $253 forward 7 unknown #
loop $-1 $-1 $164 $98 #
plane-surface $-1 -36.159155440077512 36.727808875863325 117.4093717840364 0.68199836817093118 0 0.7313536940579346 0.7313536940579346 0 -0.68199836817093118 forward_v I I I I #
loop $-1 $-1 $254 $63 #
coedge $-1 $162 $162 $163 $255 reversed $99 $-1 #
coedge $-1 $163 $163 $162 $255 forward $101 $-1 #
coedge $-1 $164 $164 $102 $165 forward $159 $-1 #
edge $-1 $256 0 $256 6.2831853071796004 $164 $257 forward 7 unknown #
loop $-1 $-1 $171 $103 #
plane-surface $-1 -36.159155440077512 36.727808875863325 117.4093717840364 0.68199836817093118 0 0.7313536940579346 0.7313536940579346 0 -0.68199836817093118 forward_v I I I I #
loop $-1 $-1 $258 $66 #
coedge $-1 $169 $169 $170 $259 reversed $104 $-1 #
coedge $-1 $170 $170 $169 $259 forward $106 $-1 #
coedge $-1 $171 $171 $107 $172 forward $166 $-1 #
edge $-1 $260 0 $260 6.2831853071796004 $171 $261 forward 7 unknown #
loop $-1 $-1 $178 $108 #
plane-surface $-1 -36.159155440077512 36.727808875863325 117.4093717840364 0.68199836817093118 0 0.7313536940579346 0.7313536940579346 0 -0.68199836817093118 forward_v I I I I #
loop $-1 $-1 $262 $69 #
coedge $-1 $176 $176 $177 $263 reversed $109 $-1 #
coedge $-1 $177 $177 $176 $263 forward $111 $-1 #
coedge $-1 $178 $178 $112 $179 forward $173 $-1 #
edge $-1 $264 0 $264 6.2831853071796004 $178 $265 forward 7 unknown #
face $-1 $266 $267 $27 $-1 $268 reversed single #
loop $-1 $-1 $269 $113 #
plane-surface $-1 -78.146916104617446 0 0 1 0 0 0 0 -1 forward_v I I I I #
coedge $-1 $270 $191 $271 $272 forward $114 $-1 #
coedge $-1 $273 $116 $270 $274 forward $73 $-1 #
coedge $-1 $116 $273 $275 $276 forward $73 $-1 #
coedge $-1 $194 $193 $116 $187 reversed $195 $-1 #
edge $-1 $277 -41.293348475911067 $278 41.293348475911067 $186 $279 forward 7 unknown #
coedge $-1 $118 $117 $280 $281 forward $46 $-1 #
coedge $-1 $282 $283 $117 $190 reversed $267 $-1 #
edge $-1 $197 -78.146916104617446 $284 78.146916104617446 $189 $285 forward 7 unknown #
coedge $-1 $183 $286 $118 $192 reversed $114 $-1 #
edge $-1 $287 -78.146916104617446 $196 78.146916104617446 $191 $288 forward 7 unknown #
coedge $-1 $186 $119 $286 $289 forward $195 $-1 #
coedge $-1 $119 $186 $282 $290 reversed $195 $-1 #
loop $-1 $-1 $193 $266 #
vertex $-1 $120 $291 #
vertex $-1 $120 $292 #
straight-curve $-1 78.146916104617446 0 19.932512411077919 0 1 0 I I #
face $-1 $293 $294 $28 $-1 $295 reversed single #
loop $-1 $-1 $205 $121 #
plane-surface $-1 78.146916104617446 0 0 -1 0 0 0 0 1 forward_v I I I I #
coedge $-1 $296 $297 $203 $298 forward $122 $-1 #
coedge $-1 $299 $124 $202 $298 reversed $77 $-1 #
coedge $-1 $124 $299 $125 $208 reversed $77 $-1 #
coedge $-1 $127 $300 $124 $206 forward $200 $-1 #
edge $-1 $301 -11.258338269406572 $212 -6.0900100139361228 $205 $302 forward 7 unknown #
coedge $-1 $126 $125 $303 $304 reversed $49 $-1 #
edge $-1 $212 -78.146916104617446 $305 78.146916104617446 $204 $306 forward 7 unknown #
coedge $-1 $307 $308 $126 $210 forward $294 $-1 #
edge $-1 $213 -78.146916104617446 $309 78.146916104617446 $209 $310 forward 7 unknown #
coedge $-1 $300 $127 $308 $311 forward $200 $-1 #
vertex $-1 $128 $312 #
vertex $-1 $311 $313 #
straight-curve $-1 78.146916104617446 -15.400670805942509 -14.76418415560747 0 -1 0 I I #
face $-1 $-1 $314 $29 $-1 $315 reversed single #
loop $-1 $-1 $135 $129 #
plane-surface $-1 0 0 19.932512411077919 0 0 1 1 0 0 forward_v I I I I #
coedge $-1 $316 $317 $318 $319 reversed $130 $-1 #
coedge $-1 $320 $132 $134 $225 forward $81 $-1 #
coedge $-1 $132 $320 $316 $321 forward $81 $-1 #
coedge $-1 $318 $135 $132 $222 forward $216 $-1 #
edge $-1 $228 5.936826783717148 $322 17.92967558137185 $221 $323 forward 7 unknown #
coedge $-1 $324 $325 $133 $224 forward $314 $-1 #
edge $-1 $326 -40.036741309222862 $227 -34.090720823503872 $223 $327 forward 7 unknown #
edge $-1 $228 -7.4452241976290736 $326 -2.4157584020108747e-014 $134 $328 forward 7 unknown #
coedge $-1 $135 $318 $324 $329 forward $216 $-1 #
vertex $-1 $224 $330 #
vertex $-1 $136 $331 #
straight-curve $-1 -101.48436089681837 17.870077966261647 19.932512411077923 1 0 0 I I #
coedge $-1 $230 $230 $-1 $332 reversed $139 $-1 #
edge $-1 $333 0 $333 6.2831853071796004 $140 $334 forward 7 unknown #
vertex $-1 $143 $335 #
ellipse-curve $-1 -75.90659225881015 21.296606194162983 16.959502168218421 -0.79863551827123203 0 0.60181501223851219 0.90272251835776829 0 1.197953277406848 1 I I #
coedge $-1 $234 $234 $-1 $336 reversed $146 $-1 #
edge $-1 $337 0 $337 6.2831853071796004 $147 $338 forward 7 unknown #
vertex $-1 $150 $339 #
ellipse-curve $-1 -75.90659225881015 26.436398536014998 16.959502168218421 -0.79863551827123203 0 0.60181501223851219 0.90272251835776829 0 1.197953277406848 1 I I #
face $-1 $-1 $250 $32 $-1 $340 reversed single #
loop $-1 $-1 $341 $151 #
plane-surface $-1 0 0 19.932512411077919 0 0 1 1 0 0 forward_v I I I I #
coedge $-1 $342 $343 $243 $344 forward $152 $-1 #
coedge $-1 $345 $154 $156 $248 forward $95 $-1 #
coedge $-1 $154 $345 $241 $344 reversed $95 $-1 #
coedge $-1 $346 $157 $154 $245 forward $250 $-1 #
edge $-1 $252 13.79836483788392 $347 22.929444037979405 $244 $348 forward 7 unknown #
coedge $-1 $349 $341 $155 $247 forward $239 $-1 #
edge $-1 $350 33.155484638549567 $251 42.930424563716443 $246 $351 forward 7 unknown #
edge $-1 $252 -156.29383220923492 $350 -142.92828828078305 $156 $352 forward 7 unknown #
coedge $-1 $157 $346 $349 $353 reversed $250 $-1 #
loop $-1 $-1 $244 $238 #
vertex $-1 $353 $354 #
vertex $-1 $158 $355 #
straight-curve $-1 78.146916104617446 32.162269275815582 115.85772166436567 0 0 -1 I I #
coedge $-1 $254 $254 $-1 $356 reversed $161 $-1 #
edge $-1 $357 0 $357 6.2831853071796004 $162 $358 forward 7 unknown #
vertex $-1 $165 $359 #
ellipse-curve $-1 73.259446142033994 33.988485115834685 15.374872836617408 0.68199836817093118 0 0.7313536940579346 0.3656768470289673 0 -0.34099918408546559 1 I I #
coedge $-1 $258 $258 $-1 $360 reversed $168 $-1 #
edge $-1 $361 0 $361 6.2831853071796004 $169 $362 forward 7 unknown #
vertex $-1 $172 $363 #
ellipse-curve $-1 73.259446142033994 36.727808875863325 15.374872836617408 0.68199836817093118 0 0.7313536940579346 0.3656768470289673 0 -0.34099918408546559 1 I I #
coedge $-1 $262 $262 $-1 $364 reversed $175 $-1 #
edge $-1 $365 0 $365 6.2831853071796004 $176 $366 forward 7 unknown #
vertex $-1 $179 $367 #
ellipse-curve $-1 73.259446142033994 39.467132635891964 15.374872836617408 0.68199836817093118 0 0.7313536940579346 0.3656768470289673 0 -0.34099918408546559 1 I I #
face $-1 $-1 $195 $27 $-1 $368 reversed single #
loop $-1 $-1 $282 $180 #
plane-surface $-1 0 41.293348475911067 0 0 -1 0 0 0 -1 forward_v I I I I #
coedge $-1 $369 $280 $283 $370 forward $181 $-1 #
coedge $-1 $286 $183 $184 $274 reversed $114 $-1 #
coedge $-1 $280 $369 $183 $272 reversed $181 $-1 #
edge $-1 $287 -19.932512411077919 $371 19.932512411077919 $271 $372 forward 7 unknown #
coedge $-1 $185 $184 $369 $373 forward $73 $-1 #
edge $-1 $278 -78.146916104617446 $371 78.146916104617446 $270 $374 forward 7 unknown #
coedge $-1 $283 $282 $185 $276 reversed $267 $-1 #
edge $-1 $375 -78.146916104617446 $277 78.146916104617446 $275 $376 forward 7 unknown #
vertex $-1 $187 $377 #
vertex $-1 $289 $378 #
straight-curve $-1 78.146916104617446 0 -19.932512411077919 0 -1 0 I I #
coedge $-1 $269 $271 $188 $281 reversed $181 $-1 #
edge $-1 $284 -41.293348475911067 $287 41.293348475911067 $280 $379 forward 7 unknown #
coedge $-1 $275 $189 $194 $290 forward $267 $-1 #
coedge $-1 $189 $275 $269 $370 reversed $267 $-1 #
vertex $-1 $190 $380 #
straight-curve $-1 0 41.293348475911067 19.932512411077919 -1 0 0 I I #
coedge $-1 $191 $270 $193 $289 reversed $114 $-1 #
vertex $-1 $281 $381 #
straight-curve $-1 0 -41.293348475911067 19.932512411077919 1 0 0 I I #
edge $-1 $196 -19.932512411077919 $278 19.932512411077919 $193 $382 forward 7 unknown #
edge $-1 $197 -19.932512411077919 $277 19.932512411077919 $194 $383 forward 7 unknown #
point $-1 78.146916104617446 -41.293348475911067 19.932512411077919 #
point $-1 78.146916104617446 41.293348475911067 19.932512411077919 #
face $-1 $-1 $384 $28 $-1 $385 reversed single #
loop $-1 $-1 $209 $199 #
plane-surface $-1 0 -41.293348475911067 0 0 1 0 0 0 1 forward_v I I I I #
coedge $-1 $386 $202 $300 $387 forward $122 $-1 #
coedge $-1 $202 $386 $388 $389 forward $122 $-1 #
edge $-1 $390 -78.146916104617446 $301 78.146916104617446 $202 $391 forward 7 unknown #
coedge $-1 $204 $203 $392 $393 reversed $77 $-1 #
coedge $-1 $205 $211 $296 $387 reversed $200 $-1 #
vertex $-1 $387 $394 #
straight-curve $-1 78.146916104617446 -20.309334747858969 -8.6741741416713474 0 0 1 I I #
coedge $-1 $392 $395 $207 $304 forward $384 $-1 #
edge $-1 $309 -25.892677669968556 $305 -4.9086639419164602 $303 $396 forward 7 unknown #
vertex $-1 $304 $397 #
straight-curve $-1 0 -20.309334747858969 -14.76418415560747 -1 0 0 I I #
coedge $-1 $398 $209 $395 $399 forward $294 $-1 #
coedge $-1 $209 $398 $211 $311 reversed $294 $-1 #
vertex $-1 $399 $400 #
straight-curve $-1 0 -41.293348475911067 -14.76418415560747 -1 0 0 I I #
edge $-1 $213 14.76418415560747 $401 19.932512411077919 $211 $402 forward 7 unknown #
point $-1 78.146916104617446 -20.309334747858969 -14.76418415560747 #
point $-1 78.146916104617446 -41.293348475911067 -14.76418415560747 #
loop $-1 $-1 $223 $215 #
plane-surface $-1 -78.146916104617446 0 0 1 0 0 0 0 -1 forward_v I I I I #
coedge $-1 $317 $218 $220 $321 reversed $130 $-1 #
coedge $-1 $218 $316 $403 $404 reversed $130 $-1 #
coedge $-1 $226 $221 $218 $319 forward $216 $-1 #
edge $-1 $322 -27.818092483815519 $405 -23.337444792200927 $318 $406 forward 7 unknown #
coedge $-1 $220 $219 $325 $407 reversed $81 $-1 #
edge $-1 $408 2.4157584020108747e-014 $322 7.4452241976290736 $316 $409 forward 7 unknown #
vertex $-1 $222 $410 #
straight-curve $-1 -73.666268413002854 11.933251182544499 19.932512411077916 0 1 0 I I #
coedge $-1 $403 $223 $226 $329 reversed $314 $-1 #
coedge $-1 $223 $403 $320 $407 forward $314 $-1 #
vertex $-1 $224 $411 #
straight-curve $-1 -78.146916104617446 17.870077966261647 54.023233234581788 0 0 1 I I #
straight-curve $-1 -78.146916104617461 17.870077966261647 13.986491925358905 -0.60181501223851219 0 -0.79863551827123203 I I #
edge $-1 $405 -29.862926763916349 $227 -17.870077966261647 $324 $412 forward 7 unknown #
point $-1 -78.146916104617446 17.870077966261647 19.932512411077919 #
point $-1 -73.666268413002854 17.870077966261647 19.932512411077919 #
edge $-1 $413 1 $413 0 $230 $-1 forward 7 unknown #
vertex $-1 $231 $414 #
ellipse-curve $-1 -73.440088829742677 21.296606194162983 15.100858572496897 -0.79863551827123203 0 0.60181501223851219 0.90272251835776829 0 1.197953277406848 1 I I #
point $-1 -75.003869740452359 21.296606194162983 18.15745544562526 #
edge $-1 $415 1 $415 0 $234 $-1 forward 7 unknown #
vertex $-1 $235 $416 #
ellipse-curve $-1 -73.440088829742677 26.436398536014998 15.100858572496897 -0.79863551827123203 0 0.60181501223851219 0.90272251835776829 0 1.197953277406848 1 I I #
point $-1 -75.003869740452359 26.436398536014998 18.15745544562526 #
plane-surface $-1 78.146916104617446 0 0 -1 0 0 0 0 1 forward_v I I I I #
coedge $-1 $246 $417 $345 $418 forward $239 $-1 #
coedge $-1 $343 $241 $417 $419 reversed $152 $-1 #
coedge $-1 $241 $342 $346 $420 forward $152 $-1 #
edge $-1 $347 -103.03476627433355 $421 -89.669222345881678 $241 $422 forward 7 unknown #
coedge $-1 $243 $242 $341 $418 reversed $95 $-1 #
coedge $-1 $249 $244 $343 $420 reversed $250 $-1 #
vertex $-1 $344 $423 #
straight-curve $-1 78.146916104617432 18.363904437931662 10.817233262156861 0 1 0 I I #
coedge $-1 $417 $246 $249 $353 forward $239 $-1 #
vertex $-1 $247 $424 #
straight-curve $-1 35.216491540901004 32.162269275815582 19.932512411077923 1 0 0 I I #
straight-curve $-1 -36.159155440077512 32.162269275815582 117.4093717840364 -0.7313536940579346 0 0.68199836817093118 I I #
edge $-1 $251 32.162269275815582 $425 41.293348475911067 $249 $426 forward 7 unknown #
point $-1 78.146916104617446 32.162269275815582 19.932512411077919 #
point $-1 78.146916104617446 32.162269275815582 10.817233262156861 #
edge $-1 $427 1 $427 0 $254 $-1 forward 7 unknown #
vertex $-1 $255 $428 #
ellipse-curve $-1 71.957296939827685 33.988485115834685 13.978488807426464 0.68199836817093118 0 0.7313536940579346 0.3656768470289673 0 -0.34099918408546559 1 I I #
point $-1 73.625122989062959 33.988485115834685 15.033873652531936 #
edge $-1 $429 1 $429 0 $258 $-1 forward 7 unknown #
vertex $-1 $259 $430 #
ellipse-curve $-1 71.957296939827685 36.727808875863325 13.978488807426464 0.68199836817093118 0 0.7313536940579346 0.3656768470289673 0 -0.34099918408546559 1 I I #
point $-1 73.625122989062959 36.727808875863325 15.033873652531936 #
edge $-1 $431 1 $431 0 $262 $-1 forward 7 unknown #
vertex $-1 $263 $432 #
ellipse-curve $-1 71.957296939827685 39.467132635891964 13.978488807426464 0.68199836817093118 0 0.7313536940579346 0.3656768470289673 0 -0.34099918408546559 1 I I #
point $-1 73.625122989062959 39.467132635891964 15.033873652531936 #
plane-surface $-1 78.146916104617446 0 0 -1 0 0 0 0 1 forward_v I I I I #
coedge $-1 $271 $269 $273 $373 reversed $181 $-1 #
edge $-1 $284 -19.932512411077919 $375 19.932512411077919 $283 $433 forward 7 unknown #
vertex $-1 $373 $434 #
straight-curve $-1 -78.146916104617446 -41.293348475911067 0 0 0 -1 I I #
edge $-1 $371 -41.293348475911067 $375 41.293348475911067 $369 $435 forward 7 unknown #
straight-curve $-1 0 -41.293348475911067 -19.932512411077919 -1 0 0 I I #
vertex $-1 $276 $436 #
straight-curve $-1 0 41.293348475911067 -19.932512411077919 1 0 0 I I #
point $-1 78.146916104617446 41.293348475911067 -19.932512411077919 #
point $-1 78.146916104617446 -41.293348475911067 -19.932512411077919 #
straight-curve $-1 -78.146916104617446 0 19.932512411077919 0 -1 0 I I #
point $-1 -78.146916104617446 41.293348475911067 19.932512411077919 #
point $-1 -78.146916104617446 -41.293348475911067 19.932512411077919 #
straight-curve $-1 78.146916104617446 -41.293348475911067 0 0 0 -1 I I #
straight-curve $-1 78.146916104617446 41.293348475911067 0 0 0 -1 I I #
loop $-1 $-1 $392 $293 #
plane-surface $-1 -78.146916104617446 0 0 1 0 0 0 0 -1 forward_v I I I I #
coedge $-1 $297 $296 $398 $437 forward $122 $-1 #
edge $-1 $301 20.309334747858969 $401 41.293348475911067 $300 $438 forward 7 unknown #
coedge $-1 $395 $392 $297 $389 reversed $384 $-1 #
edge $-1 $439 -41.293348475911067 $390 -20.309334747858969 $388 $440 forward 7 unknown #
vertex $-1 $393 $441 #
straight-curve $-1 0 -20.309334747858969 -19.932512411077919 1 0 0 I I #
coedge $-1 $388 $303 $299 $393 forward $384 $-1 #
edge $-1 $305 6.0900100139361228 $390 11.258338269406572 $392 $442 forward 7 unknown #
point $-1 78.146916104617446 -20.309334747858969 -19.932512411077919 #
coedge $-1 $303 $388 $307 $399 reversed $384 $-1 #
straight-curve $-1 -78.146916104617446 -15.400670805942509 -14.76418415560747 0 1 0 I I #
point $-1 -78.146916104617446 -20.309334747858969 -14.76418415560747 #
coedge $-1 $308 $307 $386 $437 reversed $294 $-1 #
edge $-1 $309 14.76418415560747 $439 19.932512411077919 $395 $443 forward 7 unknown #
point $-1 -78.146916104617446 -41.293348475911067 -14.76418415560747 #
vertex $-1 $311 $444 #
straight-curve $-1 78.146916104617446 -41.293348475911067 0 0 0 -1 I I #
coedge $-1 $325 $324 $317 $404 forward $314 $-1 #
edge $-1 $405 34.090720823503872 $408 40.036741309222862 $403 $445 forward 7 unknown #
vertex $-1 $329 $446 #
straight-curve $-1 -101.48436089681837 29.862926763916349 19.932512411077923 -1 0 0 I I #
edge $-1 $408 -17.92967558137185 $326 -5.936826783717148 $325 $447 forward 7 unknown #
vertex $-1 $407 $448 #
straight-curve $-1 -78.146916104617461 29.862926763916349 13.986491925358905 0.60181501223851219 0 0.79863551827123203 I I #
point $-1 -73.666268413002854 29.862926763916349 19.932512411077919 #
point $-1 -78.146916104617446 17.870077966261647 13.986491925358925 #
straight-curve $-1 -78.146916104617446 0 19.932512411077919 0 -1 0 I I #
vertex $-1 $332 $449 #
point $-1 -72.537366311384915 21.296606194162983 16.298811849903743 #
vertex $-1 $336 $450 #
point $-1 -72.537366311384915 26.436398536014998 16.298811849903743 #
coedge $-1 $341 $349 $342 $419 forward $239 $-1 #
edge $-1 $421 -22.929444037979405 $350 -13.79836483788392 $341 $451 forward 7 unknown #
edge $-1 $425 -78.146916104617446 $421 -68.37197617945057 $342 $452 forward 7 unknown #
edge $-1 $425 -19.932512411077919 $347 -10.817233262156858 $346 $453 forward 7 unknown #
vertex $-1 $344 $454 #
straight-curve $-1 2.7920591734877114 41.293348475911067 81.086775726125637 -0.7313536940579346 0 0.68199836817093118 I I #
point $-1 78.146916104617446 41.293348475911067 10.817233262156858 #
point $-1 68.37197617945057 32.162269275815582 19.932512411077923 #
vertex $-1 $353 $455 #
straight-curve $-1 78.146916104617446 0 19.932512411077919 0 1 0 I I #
vertex $-1 $356 $456 #
point $-1 72.32297378685665 33.988485115834685 13.637489623340997 #
vertex $-1 $360 $457 #
point $-1 72.32297378685665 36.727808875863325 13.637489623340997 #
vertex $-1 $364 $458 #
point $-1 72.32297378685665 39.467132635891964 13.637489623340997 #
straight-curve $-1 -78.146916104617446 41.293348475911067 0 0 0 -1 I I #
point $-1 -78.146916104617446 -41.293348475911067 -19.932512411077919 #
straight-curve $-1 -78.146916104617446 0 -19.932512411077919 0 1 0 I I #
point $-1 -78.146916104617446 41.293348475911067 -19.932512411077919 #
edge $-1 $401 -78.146916104617446 $439 78.146916104617446 $398 $459 forward 7 unknown #
straight-curve $-1 78.146916104617446 0 -19.932512411077919 0 -1 0 I I #
vertex $-1 $389 $460 #
straight-curve $-1 -78.146916104617446 0 -19.932512411077919 0 1 0 I I #
point $-1 -78.146916104617446 -20.309334747858969 -19.932512411077919 #
straight-curve $-1 -78.146916104617446 -20.309334747858969 -8.6741741416713474 0 0 -1 I I #
straight-curve $-1 -78.146916104617446 -41.293348475911067 0 0 0 -1 I I #
point $-1 78.146916104617446 -41.293348475911067 -19.932512411077919 #
straight-curve $-1 -78.146916104617446 29.862926763916349 54.023233234581788 0 0 -1 I I #
point $-1 -78.146916104617446 29.862926763916349 19.932512411077919 #
straight-curve $-1 -78.146916104617446 11.933251182544499 13.986491925358905 0 -1 0 I I #
point $-1 -78.146916104617446 29.862926763916349 13.986491925358925 #
point $-1 -72.242135552335839 21.296606194162983 14.198136054139127 #
point $-1 -72.242135552335839 26.436398536014998 14.198136054139127 #
straight-curve $-1 68.37197617945057 18.363904437931662 19.932512411077923 0 -1 0 I I #
straight-curve $-1 0 41.293348475911067 19.932512411077919 -1 0 0 I I #
straight-curve $-1 78.146916104617446 41.293348475911067 0 0 0 -1 I I #
point $-1 68.37197617945057 41.293348475911067 19.932512411077923 #
point $-1 78.146916104617446 41.293348475911067 19.932512411077919 #
point $-1 71.616297755742224 33.988485115834685 13.612811960397496 #
point $-1 71.616297755742224 36.727808875863325 13.612811960397496 #
point $-1 71.616297755742224 39.467132635891964 13.612811960397496 #
straight-curve $-1 0 -41.293348475911067 -19.932512411077919 -1 0 0 I I #
point $-1 -78.146916104617446 -41.293348475911067 -19.932512411077919 #
End-of-ACIS-data 