500 0 12 0           
7 Unknown 11 ACIS 5.0 NT 24 Thu Mar 25 22:05:55 1999 
-1 9.9999999999999995e-007 1e-010 
body $-1 $12 $-1 $13 #
body $-1 $14 $-1 $15 #
body $-1 $16 $-1 $17 #
body $-1 $18 $-1 $19 #
body $-1 $20 $-1 $21 #
body $-1 $22 $-1 $23 #
body $-1 $24 $-1 $25 #
body $-1 $26 $-1 $27 #
body $-1 $28 $-1 $29 #
body $-1 $30 $-1 $31 #
body $-1 $32 $-1 $33 #
body $-1 $34 $-1 $35 #
lump $-1 $-1 $36 $0 #
transform $-1 1 0 0 0 1 0 0 0 1 48.806421094393748 32.223379376500318 10.419813791975061 1 rotate no_reflect no_shear #
lump $-1 $-1 $37 $1 #
transform $-1 1 0 0 0 1 0 0 0 1 48.806421094393748 32.223379376500318 10.419813791975061 1 rotate no_reflect no_shear #
lump $-1 $-1 $38 $2 #
transform $-1 1 0 0 0 1 0 0 0 1 48.806421094393748 32.223379376500318 10.419813791975061 1 rotate no_reflect no_shear #
lump $-1 $-1 $39 $3 #
transform $-1 1 0 0 0 1 0 0 0 1 48.806421094393748 32.223379376500318 10.419813791975061 1 rotate no_reflect no_shear #
lump $-1 $-1 $40 $4 #
transform $-1 1 0 0 0 1 0 0 0 1 48.806421094393748 32.223379376500318 10.419813791975061 1 rotate no_reflect no_shear #
lump $-1 $-1 $41 $5 #
transform $-1 1 0 0 0 1 0 0 0 1 48.806421094393748 32.223379376500318 10.419813791975061 1 rotate no_reflect no_shear #
lump $-1 $-1 $42 $6 #
transform $-1 1 0 0 0 1 0 0 0 1 48.806421094393748 32.223379376500318 10.419813791975061 1 rotate no_reflect no_shear #
lump $-1 $-1 $43 $7 #
transform $-1 1 0 0 0 1 0 0 0 1 48.806421094393748 32.223379376500318 10.419813791975061 1 rotate no_reflect no_shear #
lump $-1 $-1 $44 $8 #
transform $-1 1 0 0 0 1 0 0 0 1 48.806421094393748 32.223379376500318 10.419813791975061 1 rotate no_reflect no_shear #
lump $-1 $-1 $45 $9 #
transform $-1 1 0 0 0 1 0 0 0 1 48.806421094393748 32.223379376500318 10.419813791975061 1 rotate no_reflect no_shear #
lump $-1 $-1 $46 $10 #
transform $-1 1 0 0 0 1 0 0 0 1 48.806421094393748 32.223379376500318 10.419813791975061 1 rotate no_reflect no_shear #
lump $-1 $-1 $47 $11 #
transform $-1 1 0 0 0 1 0 0 0 1 48.806421094393748 32.223379376500318 10.419813791975061 1 rotate no_reflect no_shear #
shell $-1 $-1 $-1 $48 $-1 $12 #
shell $-1 $-1 $-1 $49 $-1 $14 #
shell $-1 $-1 $-1 $50 $-1 $16 #
shell $-1 $-1 $-1 $51 $-1 $18 #
shell $-1 $-1 $-1 $52 $-1 $20 #
shell $-1 $-1 $-1 $53 $-1 $22 #
shell $-1 $-1 $-1 $54 $-1 $24 #
shell $-1 $-1 $-1 $55 $-1 $26 #
shell $-1 $-1 $-1 $56 $-1 $28 #
shell $-1 $-1 $-1 $57 $-1 $30 #
shell $-1 $-1 $-1 $58 $-1 $32 #
shell $-1 $-1 $-1 $59 $-1 $34 #
face $-1 $60 $61 $36 $-1 $62 forward single #
face $-1 $63 $64 $37 $-1 $65 forward single #
face $-1 $66 $67 $38 $-1 $68 reversed single #
face $-1 $69 $70 $39 $-1 $71 forward single #
face $-1 $72 $73 $40 $-1 $74 reversed single #
face $-1 $75 $76 $41 $-1 $77 forward single #
face $-1 $78 $79 $42 $-1 $80 forward single #
face $-1 $81 $82 $43 $-1 $83 forward single #
face $-1 $84 $85 $44 $-1 $86 reversed single #
face $-1 $87 $88 $45 $-1 $89 forward single #
face $-1 $90 $91 $46 $-1 $92 forward single #
face $-1 $93 $94 $47 $-1 $95 forward single #
face $-1 $96 $97 $36 $-1 $98 reversed single #
loop $-1 $-1 $99 $48 #
plane-surface $-1 0 0 10.419813791975061 0 0 1 1 0 0 forward_v I I I I #
face $-1 $100 $101 $37 $-1 $102 reversed single #
loop $-1 $-1 $103 $49 #
plane-surface $-1 0 -26.4813232696591 5.7186147310160402 0 0 1 1 0 0 forward_v I I I I #
face $-1 $104 $105 $38 $-1 $106 reversed single #
loop $-1 $-1 $107 $50 #
plane-surface $-1 15.410216039585315 -6.0712865200760717 136.97125979992961 0 1 0 0.51503808176128008 0 0.85716729658548041 forward_v I I I I #
face $-1 $108 $109 $39 $-1 $110 forward single #
loop $-1 $111 $112 $51 #
cone-surface $-1 40.848497006357988 -1.2271910733293083 3.7181389934881488 -0.51503808176128008 0 -0.85716729658548041 1.7143345931709608 0 -1.0300761635225602 1 I I 0 1 2 forward I I I I #
face $-1 $113 $114 $40 $-1 $115 reversed single #
loop $-1 $-1 $116 $52 #
plane-surface $-1 -132.47695831200286 -13.026318493577797 54.143990539964463 0 1 0 -0.85716730853699208 0 0.51503806187062418 forward_v I I I I #
face $-1 $117 $118 $41 $-1 $119 forward single #
loop $-1 $120 $121 $53 #
cone-surface $-1 -46.409973223097332 -11.23715707963137 6.8872186077363509 0.85716730853699208 0 -0.51503806187062418 0.25751903093531209 0 0.42858365426849604 1 I I 0 1 0.5 forward I I I I #
face $-1 $122 $123 $42 $-1 $124 forward single #
loop $-1 $125 $126 $54 #
cone-surface $-1 -46.409973223097332 -8.5534149587117305 6.8872186077363509 0.85716730853699208 0 -0.51503806187062418 0.25751903093531209 0 0.42858365426849604 1 I I 0 1 0.5 forward I I I I #
face $-1 $127 $128 $43 $-1 $129 forward single #
loop $-1 $130 $131 $55 #
cone-surface $-1 -46.409973223097332 -5.8696728377920913 6.8872186077363509 0.85716730853699208 0 -0.51503806187062418 0.25751903093531209 0 0.42858365426849604 1 I I 0 1 0.5 forward I I I I #
face $-1 $132 $133 $44 $-1 $134 reversed single #
loop $-1 $-1 $135 $56 #
plane-surface $-1 -132.47695831200286 13.455004776081307 54.143990539964463 0 1 0 -0.85716730853699208 0 0.51503806187062418 forward_v I I I I #
face $-1 $136 $137 $45 $-1 $138 forward single #
loop $-1 $139 $140 $57 #
cone-surface $-1 -46.409973223097332 15.244166190027734 6.8872186077363509 0.85716730853699208 0 -0.51503806187062418 0.25751903093531209 0 0.42858365426849604 1 I I 0 1 0.5 forward I I I I #
face $-1 $141 $142 $46 $-1 $143 forward single #
loop $-1 $144 $145 $58 #
cone-surface $-1 -46.409973223097332 17.927908310947373 6.8872186077363509 0.85716730853699208 0 -0.51503806187062418 0.25751903093531209 0 0.42858365426849604 1 I I 0 1 0.5 forward I I I I #
face $-1 $146 $147 $47 $-1 $148 forward single #
loop $-1 $149 $150 $59 #
cone-surface $-1 -46.409973223097332 20.611650431867012 6.8872186077363509 0.85716730853699208 0 -0.51503806187062418 0.25751903093531209 0 0.42858365426849604 1 I I 0 1 0.5 forward I I I I #
face $-1 $151 $152 $36 $-1 $153 reversed single #
loop $-1 $-1 $154 $60 #
plane-surface $-1 0 0 -10.419813791975061 0 0 1 1 0 0 forward_v I I I I #
coedge $-1 $155 $156 $157 $158 forward $61 $-1 #
face $-1 $159 $160 $37 $-1 $161 reversed single #
loop $-1 $-1 $162 $63 #
plane-surface $-1 0 -26.4813232696591 0.46892638706634937 0 0 1 1 0 0 forward_v I I I I #
coedge $-1 $163 $164 $165 $166 reversed $64 $-1 #
face $-1 $167 $168 $38 $-1 $169 reversed single #
loop $-1 $-1 $170 $66 #
plane-surface $-1 -34.864114956594349 -1.2271910733293083 53.300723748941508 0.51503808176128008 0 0.85716729658548041 0.85716729658548041 0 -0.51503808176128008 forward_v I I I I #
coedge $-1 $171 $172 $173 $174 reversed $67 $-1 #
face $-1 $-1 $175 $39 $-1 $176 forward single #
loop $-1 $177 $178 $69 #
cone-surface $-1 38.527894195143297 -1.2271910733293083 -0.14399258197762954 -0.51503808176128008 0 -0.85716729658548041 0.85716729658548041 0 -0.51503808176128008 1 I I -0.70710678118654746 0.70710678118654746 1 forward I I I I #
loop $-1 $-1 $179 $51 #
coedge $-1 $112 $112 $180 $181 reversed $70 $-1 #
face $-1 $182 $183 $40 $-1 $184 reversed single #
loop $-1 $-1 $185 $72 #
plane-surface $-1 -48.806421094393741 -8.5534149587117305 3.8696614853682547 -0.85716730853699208 0 0.51503806187062418 0.51503806187062418 0 0.85716730853699208 forward_v I I I I #
coedge $-1 $186 $187 $188 $189 reversed $73 $-1 #
face $-1 $-1 $190 $41 $-1 $191 forward single #
loop $-1 $192 $193 $75 #
cone-surface $-1 -45.767097741694585 -11.23715707963137 6.5009400613333828 0.85716730853699208 0 -0.51503806187062418 0.12875951546765604 0 0.21429182713424802 1 I I -0.70710678118654746 0.70710678118654746 0.25 forward I I I I #
loop $-1 $-1 $194 $53 #
coedge $-1 $121 $121 $195 $196 reversed $76 $-1 #
face $-1 $-1 $197 $42 $-1 $198 forward single #
loop $-1 $199 $200 $78 #
cone-surface $-1 -45.767097741694585 -8.5534149587117305 6.5009400613333828 0.85716730853699208 0 -0.51503806187062418 0.12875951546765604 0 0.21429182713424802 1 I I -0.70710678118654746 0.70710678118654746 0.25 forward I I I I #
loop $-1 $-1 $201 $54 #
coedge $-1 $126 $126 $202 $203 reversed $79 $-1 #
face $-1 $-1 $204 $43 $-1 $205 forward single #
loop $-1 $206 $207 $81 #
cone-surface $-1 -45.767097741694585 -5.8696728377920913 6.5009400613333828 0.85716730853699208 0 -0.51503806187062418 0.12875951546765604 0 0.21429182713424802 1 I I -0.70710678118654746 0.70710678118654746 0.25 forward I I I I #
loop $-1 $-1 $208 $55 #
coedge $-1 $131 $131 $209 $210 reversed $82 $-1 #
face $-1 $211 $212 $44 $-1 $213 reversed single #
loop $-1 $-1 $214 $84 #
plane-surface $-1 -48.806421094393741 17.927908310947373 3.8696614853682547 -0.85716730853699208 0 0.51503806187062418 0.51503806187062418 0 0.85716730853699208 forward_v I I I I #
coedge $-1 $215 $216 $217 $218 reversed $85 $-1 #
face $-1 $-1 $219 $45 $-1 $220 forward single #
loop $-1 $221 $222 $87 #
cone-surface $-1 -45.767097741694585 15.244166190027734 6.5009400613333828 0.85716730853699208 0 -0.51503806187062418 0.12875951546765604 0 0.21429182713424802 1 I I -0.70710678118654746 0.70710678118654746 0.25 forward I I I I #
loop $-1 $-1 $223 $57 #
coedge $-1 $140 $140 $224 $225 reversed $88 $-1 #
face $-1 $-1 $226 $46 $-1 $227 forward single #
loop $-1 $228 $229 $90 #
cone-surface $-1 -45.767097741694585 17.927908310947373 6.5009400613333828 0.85716730853699208 0 -0.51503806187062418 0.12875951546765604 0 0.21429182713424802 1 I I -0.70710678118654746 0.70710678118654746 0.25 forward I I I I #
loop $-1 $-1 $230 $58 #
coedge $-1 $145 $145 $231 $232 reversed $91 $-1 #
face $-1 $-1 $233 $47 $-1 $234 forward single #
loop $-1 $235 $236 $93 #
cone-surface $-1 -45.767097741694585 20.611650431867012 6.5009400613333828 0.85716730853699208 0 -0.51503806187062418 0.12875951546765604 0 0.21429182713424802 1 I I -0.70710678118654746 0.70710678118654746 0.25 forward I I I I #
loop $-1 $-1 $237 $59 #
coedge $-1 $150 $150 $238 $239 reversed $94 $-1 #
face $-1 $240 $241 $36 $-1 $242 reversed single #
loop $-1 $-1 $243 $96 #
plane-surface $-1 0 -32.223379376500318 0 0 1 0 0 0 1 forward_v I I I I #
coedge $-1 $244 $245 $246 $247 forward $97 $-1 #
coedge $-1 $248 $99 $249 $250 forward $61 $-1 #
coedge $-1 $99 $248 $251 $252 forward $61 $-1 #
coedge $-1 $253 $254 $99 $158 reversed $255 $-1 #
edge $-1 $256 -32.223379376500318 $257 32.223379376500318 $157 $258 forward 7 unknown #
face $-1 $259 $260 $37 $-1 $261 reversed single #
loop $-1 $-1 $262 $100 #
plane-surface $-1 0 -20.739267162817882 3.0937705590411948 0 -1 0 0 0 -1 forward_v I I I I #
coedge $-1 $263 $264 $265 $266 reversed $101 $-1 #
coedge $-1 $267 $103 $268 $269 forward $64 $-1 #
coedge $-1 $103 $267 $270 $271 reversed $64 $-1 #
coedge $-1 $272 $273 $103 $166 forward $274 $-1 #
edge $-1 $275 7.4986055279883317 $276 18.982717741670768 $165 $277 forward 7 unknown #
face $-1 $278 $279 $38 $-1 $280 forward single #
loop $-1 $-1 $281 $104 #
plane-surface $-1 15.410216039585315 3.6169043734174551 136.97125979992961 0 -1 0 -0.51503808176128008 0 -0.85716729658548041 forward_v I I I I #
coedge $-1 $282 $283 $284 $285 reversed $105 $-1 #
coedge $-1 $172 $107 $286 $287 reversed $67 $-1 #
coedge $-1 $107 $171 $282 $288 reversed $67 $-1 #
coedge $-1 $284 $289 $107 $174 forward $290 $-1 #
edge $-1 $291 58.065816107989747 $292 65.459237147202955 $173 $293 forward 7 unknown #
loop $-1 $-1 $180 $108 #
plane-surface $-1 -34.864114956594349 -1.2271910733293083 53.300723748941508 0.51503808176128008 0 0.85716729658548041 0.85716729658548041 0 -0.51503808176128008 forward_v I I I I #
loop $-1 $-1 $294 $69 #
coedge $-1 $178 $178 $179 $295 reversed $109 $-1 #
coedge $-1 $179 $179 $178 $295 forward $111 $-1 #
coedge $-1 $180 $180 $112 $181 forward $175 $-1 #
edge $-1 $296 0 $296 6.2831853071796004 $180 $297 forward 7 unknown #
face $-1 $298 $299 $40 $-1 $300 reversed single #
loop $-1 $-1 $301 $113 #
plane-surface $-1 -132.47695831200286 -4.0805114238456639 54.143990539964463 0 -1 0 0.85716730853699208 0 -0.51503806187062418 forward_v I I I I #
coedge $-1 $302 $303 $304 $305 reversed $114 $-1 #
coedge $-1 $187 $116 $306 $307 reversed $73 $-1 #
coedge $-1 $116 $186 $302 $308 reversed $73 $-1 #
coedge $-1 $304 $309 $116 $189 forward $310 $-1 #
edge $-1 $311 17.432058061607684 $312 21.367786495663545 $188 $313 forward 7 unknown #
loop $-1 $-1 $195 $117 #
plane-surface $-1 -48.806421094393741 -8.5534149587117305 3.8696614853682547 -0.85716730853699208 0 0.51503806187062418 0.51503806187062418 0 0.85716730853699208 forward_v I I I I #
loop $-1 $-1 $314 $75 #
coedge $-1 $193 $193 $194 $315 reversed $118 $-1 #
coedge $-1 $194 $194 $193 $315 forward $120 $-1 #
coedge $-1 $195 $195 $121 $196 forward $190 $-1 #
edge $-1 $316 0 $316 6.2831853071796004 $195 $317 forward 7 unknown #
loop $-1 $-1 $202 $122 #
plane-surface $-1 -48.806421094393741 -8.5534149587117305 3.8696614853682547 -0.85716730853699208 0 0.51503806187062418 0.51503806187062418 0 0.85716730853699208 forward_v I I I I #
loop $-1 $-1 $318 $78 #
coedge $-1 $200 $200 $201 $319 reversed $123 $-1 #
coedge $-1 $201 $201 $200 $319 forward $125 $-1 #
coedge $-1 $202 $202 $126 $203 forward $197 $-1 #
edge $-1 $320 0 $320 6.2831853071796004 $202 $321 forward 7 unknown #
loop $-1 $-1 $209 $127 #
plane-surface $-1 -48.806421094393741 -8.5534149587117305 3.8696614853682547 -0.85716730853699208 0 0.51503806187062418 0.51503806187062418 0 0.85716730853699208 forward_v I I I I #
loop $-1 $-1 $322 $81 #
coedge $-1 $207 $207 $208 $323 reversed $128 $-1 #
coedge $-1 $208 $208 $207 $323 forward $130 $-1 #
coedge $-1 $209 $209 $131 $210 forward $204 $-1 #
edge $-1 $324 0 $324 6.2831853071796004 $209 $325 forward 7 unknown #
face $-1 $326 $327 $44 $-1 $328 forward single #
loop $-1 $-1 $329 $132 #
plane-surface $-1 -132.47695831200286 22.40081184581344 54.143990539964463 0 -1 0 0.85716730853699208 0 -0.51503806187062418 forward_v I I I I #
coedge $-1 $330 $331 $332 $333 reversed $133 $-1 #
coedge $-1 $216 $135 $334 $335 reversed $85 $-1 #
coedge $-1 $135 $215 $330 $336 reversed $85 $-1 #
coedge $-1 $332 $337 $135 $218 forward $327 $-1 #
edge $-1 $338 17.432058061607684 $339 21.367786495663545 $217 $340 forward 7 unknown #
loop $-1 $-1 $224 $136 #
plane-surface $-1 -48.806421094393741 17.927908310947373 3.8696614853682547 -0.85716730853699208 0 0.51503806187062418 0.51503806187062418 0 0.85716730853699208 forward_v I I I I #
loop $-1 $-1 $341 $87 #
coedge $-1 $222 $222 $223 $342 reversed $137 $-1 #
coedge $-1 $223 $223 $222 $342 forward $139 $-1 #
coedge $-1 $224 $224 $140 $225 forward $219 $-1 #
edge $-1 $343 0 $343 6.2831853071796004 $224 $344 forward 7 unknown #
loop $-1 $-1 $231 $141 #
plane-surface $-1 -48.806421094393741 17.927908310947373 3.8696614853682547 -0.85716730853699208 0 0.51503806187062418 0.51503806187062418 0 0.85716730853699208 forward_v I I I I #
loop $-1 $-1 $345 $90 #
coedge $-1 $229 $229 $230 $346 reversed $142 $-1 #
coedge $-1 $230 $230 $229 $346 forward $144 $-1 #
coedge $-1 $231 $231 $145 $232 forward $226 $-1 #
edge $-1 $347 0 $347 6.2831853071796004 $231 $348 forward 7 unknown #
loop $-1 $-1 $238 $146 #
plane-surface $-1 -48.806421094393741 17.927908310947373 3.8696614853682547 -0.85716730853699208 0 0.51503806187062418 0.51503806187062418 0 0.85716730853699208 forward_v I I I I #
loop $-1 $-1 $349 $93 #
coedge $-1 $236 $236 $237 $350 reversed $147 $-1 #
coedge $-1 $237 $237 $236 $350 forward $149 $-1 #
coedge $-1 $238 $238 $150 $239 forward $233 $-1 #
edge $-1 $351 0 $351 6.2831853071796004 $238 $352 forward 7 unknown #
face $-1 $353 $354 $36 $-1 $355 reversed single #
loop $-1 $-1 $356 $151 #
plane-surface $-1 -48.806421094393748 0 0 1 0 0 0 0 -1 forward_v I I I I #
coedge $-1 $357 $251 $358 $359 forward $152 $-1 #
coedge $-1 $360 $154 $357 $361 forward $97 $-1 #
coedge $-1 $154 $360 $362 $363 forward $97 $-1 #
coedge $-1 $254 $253 $154 $247 reversed $255 $-1 #
edge $-1 $364 -32.223379376500318 $365 32.223379376500318 $246 $366 forward 7 unknown #
coedge $-1 $156 $155 $367 $368 forward $61 $-1 #
coedge $-1 $369 $370 $155 $250 reversed $354 $-1 #
edge $-1 $257 -48.806421094393748 $371 48.806421094393748 $249 $372 forward 7 unknown #
coedge $-1 $243 $373 $156 $252 reversed $152 $-1 #
edge $-1 $374 -48.806421094393748 $256 48.806421094393748 $251 $375 forward 7 unknown #
coedge $-1 $246 $157 $373 $376 forward $255 $-1 #
coedge $-1 $157 $246 $369 $377 reversed $255 $-1 #
loop $-1 $-1 $253 $353 #
vertex $-1 $158 $378 #
vertex $-1 $158 $379 #
straight-curve $-1 48.806421094393748 0 10.419813791975061 0 1 0 I I #
face $-1 $380 $381 $37 $-1 $382 reversed single #
loop $-1 $-1 $383 $159 #
plane-surface $-1 -48.806421094393748 0 0 1 0 0 0 0 -1 forward_v I I I I #
coedge $-1 $384 $268 $273 $385 reversed $160 $-1 #
coedge $-1 $386 $162 $387 $388 reversed $101 $-1 #
coedge $-1 $162 $386 $384 $389 forward $101 $-1 #
coedge $-1 $273 $272 $162 $266 forward $274 $-1 #
edge $-1 $390 -18.982717741670768 $391 -7.4986055279883317 $265 $392 forward 7 unknown #
coedge $-1 $164 $163 $383 $393 reversed $64 $-1 #
coedge $-1 $262 $394 $163 $269 reversed $160 $-1 #
edge $-1 $275 -48.806421094393748 $395 48.806421094393748 $268 $396 forward 7 unknown #
coedge $-1 $397 $398 $164 $271 forward $381 $-1 #
edge $-1 $276 -48.806421094393748 $399 48.806421094393748 $270 $400 forward 7 unknown #
coedge $-1 $265 $165 $398 $401 forward $274 $-1 #
coedge $-1 $165 $265 $262 $385 forward $274 $-1 #
loop $-1 $-1 $165 $380 #
vertex $-1 $166 $402 #
vertex $-1 $401 $403 #
straight-curve $-1 48.806421094393748 -13.24066163482955 5.7186147310160402 0 -1 0 I I #
face $-1 $-1 $290 $38 $-1 $404 reversed single #
loop $-1 $-1 $405 $167 #
plane-surface $-1 0 0 10.419813791975061 0 0 1 1 0 0 forward_v I I I I #
coedge $-1 $406 $407 $408 $409 reversed $168 $-1 #
coedge $-1 $410 $170 $172 $288 forward $105 $-1 #
coedge $-1 $170 $410 $406 $411 forward $105 $-1 #
coedge $-1 $408 $173 $170 $285 forward $290 $-1 #
edge $-1 $292 -5.4576909834114176 $412 4.2304999100821092 $284 $413 forward 7 unknown #
coedge $-1 $414 $415 $171 $287 forward $279 $-1 #
edge $-1 $416 28.796594357436437 $291 41.101313074601094 $286 $417 forward 7 unknown #
edge $-1 $292 -97.612842188787482 $416 -83.257746321060836 $172 $418 forward 7 unknown #
coedge $-1 $173 $408 $414 $419 reversed $290 $-1 #
loop $-1 $-1 $408 $278 #
vertex $-1 $419 $420 #
vertex $-1 $174 $421 #
straight-curve $-1 48.806421094393748 -6.0712865200760717 68.485629899964806 0 0 -1 I I #
coedge $-1 $294 $294 $-1 $422 reversed $177 $-1 #
edge $-1 $423 0 $423 6.2831853071796004 $178 $424 forward 7 unknown #
vertex $-1 $181 $425 #
ellipse-curve $-1 42.65406173581141 -1.2271910733293083 6.7231032723684647 0.51503808176128008 0 0.85716729658548041 1.7143345931709608 0 -1.0300761635225602 1 I I #
face $-1 $-1 $310 $40 $-1 $426 forward single #
loop $-1 $-1 $427 $182 #
plane-surface $-1 -48.806421094393748 0 0 1 0 0 0 0 -1 forward_v I I I I #
coedge $-1 $428 $429 $430 $431 reversed $183 $-1 #
coedge $-1 $432 $185 $187 $308 forward $114 $-1 #
coedge $-1 $185 $432 $428 $433 forward $114 $-1 #
coedge $-1 $430 $188 $185 $305 forward $310 $-1 #
edge $-1 $312 -8.7496110142219319 $434 0.19619605551020136 $304 $435 forward 7 unknown #
coedge $-1 $436 $437 $186 $307 forward $299 $-1 #
edge $-1 $438 -23.202333784613987 $311 -16.652181478007172 $306 $439 forward 7 unknown #
edge $-1 $312 -7.6416263678867624 $438 1.393735185947377e-014 $187 $440 forward 7 unknown #
coedge $-1 $188 $430 $436 $441 forward $310 $-1 #
loop $-1 $-1 $430 $298 #
vertex $-1 $307 $442 #
vertex $-1 $189 $443 #
straight-curve $-1 -66.238479156001432 -13.026318493577797 10.419813791975059 1 0 0 I I #
coedge $-1 $314 $314 $-1 $444 reversed $192 $-1 #
edge $-1 $445 0 $445 6.2831853071796004 $193 $446 forward 7 unknown #
vertex $-1 $196 $447 #
ellipse-curve $-1 -46.838556877365818 -11.23715707963137 7.1447376386716552 -0.85716730853699208 0 0.51503806187062418 0.25751903093531209 0 0.42858365426849604 1 I I #
coedge $-1 $318 $318 $-1 $448 reversed $199 $-1 #
edge $-1 $449 0 $449 6.2831853071796004 $200 $450 forward 7 unknown #
vertex $-1 $203 $451 #
ellipse-curve $-1 -46.838556877365818 -8.5534149587117305 7.1447376386716552 -0.85716730853699208 0 0.51503806187062418 0.25751903093531209 0 0.42858365426849604 1 I I #
coedge $-1 $322 $322 $-1 $452 reversed $206 $-1 #
edge $-1 $453 0 $453 6.2831853071796004 $207 $454 forward 7 unknown #
vertex $-1 $210 $455 #
ellipse-curve $-1 -46.838556877365818 -5.8696728377920913 7.1447376386716552 -0.85716730853699208 0 0.51503806187062418 0.25751903093531209 0 0.42858365426849604 1 I I #
face $-1 $-1 $456 $44 $-1 $457 reversed single #
loop $-1 $-1 $217 $211 #
plane-surface $-1 0 0 10.419813791975061 0 0 1 1 0 0 forward_v I I I I #
coedge $-1 $458 $459 $460 $461 reversed $212 $-1 #
coedge $-1 $462 $214 $216 $336 forward $133 $-1 #
coedge $-1 $214 $462 $458 $463 forward $133 $-1 #
coedge $-1 $460 $217 $214 $333 forward $327 $-1 #
edge $-1 $339 4.4910506206076199 $464 13.436857690339753 $332 $465 forward 7 unknown #
coedge $-1 $466 $467 $215 $335 forward $456 $-1 #
edge $-1 $468 -23.202333784613987 $338 -16.652181478007172 $334 $469 forward 7 unknown #
edge $-1 $339 -7.6416263678867624 $468 1.393735185947377e-014 $216 $470 forward 7 unknown #
coedge $-1 $217 $460 $466 $471 forward $327 $-1 #
vertex $-1 $218 $472 #
vertex $-1 $218 $473 #
straight-curve $-1 -66.238479156001432 13.455004776081307 10.419813791975059 1 0 0 I I #
coedge $-1 $341 $341 $-1 $474 reversed $221 $-1 #
edge $-1 $475 0 $475 6.2831853071796004 $222 $476 forward 7 unknown #
vertex $-1 $225 $477 #
ellipse-curve $-1 -46.838556877365818 15.244166190027734 7.1447376386716552 -0.85716730853699208 0 0.51503806187062418 0.25751903093531209 0 0.42858365426849604 1 I I #
coedge $-1 $345 $345 $-1 $478 reversed $228 $-1 #
edge $-1 $479 0 $479 6.2831853071796004 $229 $480 forward 7 unknown #
vertex $-1 $232 $481 #
ellipse-curve $-1 -46.838556877365818 17.927908310947373 7.1447376386716552 -0.85716730853699208 0 0.51503806187062418 0.25751903093531209 0 0.42858365426849604 1 I I #
coedge $-1 $349 $349 $-1 $482 reversed $235 $-1 #
edge $-1 $483 0 $483 6.2831853071796004 $236 $484 forward 7 unknown #
vertex $-1 $239 $485 #
ellipse-curve $-1 -46.838556877365818 20.611650431867012 7.1447376386716552 -0.85716730853699208 0 0.51503806187062418 0.25751903093531209 0 0.42858365426849604 1 I I #
face $-1 $-1 $255 $36 $-1 $486 reversed single #
loop $-1 $-1 $369 $240 #
plane-surface $-1 0 32.223379376500318 0 0 -1 0 0 0 -1 forward_v I I I I #
coedge $-1 $487 $367 $370 $488 forward $241 $-1 #
coedge $-1 $373 $243 $244 $361 reversed $152 $-1 #
coedge $-1 $367 $487 $243 $359 reversed $241 $-1 #
edge $-1 $374 -10.419813791975061 $489 10.419813791975061 $358 $490 forward 7 unknown #
coedge $-1 $245 $244 $487 $491 forward $97 $-1 #
edge $-1 $365 -48.806421094393748 $489 48.806421094393748 $357 $492 forward 7 unknown #
coedge $-1 $370 $369 $245 $363 reversed $354 $-1 #
edge $-1 $493 -48.806421094393748 $364 48.806421094393748 $362 $494 forward 7 unknown #
vertex $-1 $247 $495 #
vertex $-1 $376 $496 #
straight-curve $-1 48.806421094393748 0 -10.419813791975061 0 -1 0 I I #
coedge $-1 $356 $358 $248 $368 reversed $241 $-1 #
edge $-1 $371 -32.223379376500318 $374 32.223379376500318 $367 $497 forward 7 unknown #
coedge $-1 $362 $249 $254 $377 forward $354 $-1 #
coedge $-1 $249 $362 $356 $488 reversed $354 $-1 #
vertex $-1 $250 $498 #
straight-curve $-1 0 32.223379376500318 10.419813791975061 -1 0 0 I I #
coedge $-1 $251 $357 $253 $376 reversed $152 $-1 #
vertex $-1 $368 $499 #
straight-curve $-1 0 -32.223379376500318 10.419813791975061 1 0 0 I I #
edge $-1 $256 -10.419813791975061 $365 10.419813791975061 $253 $500 forward 7 unknown #
edge $-1 $257 -10.419813791975061 $364 10.419813791975061 $254 $501 forward 7 unknown #
point $-1 48.806421094393748 -32.223379376500318 10.419813791975061 #
point $-1 48.806421094393748 32.223379376500318 10.419813791975061 #
face $-1 $-1 $274 $37 $-1 $502 reversed single #
loop $-1 $-1 $270 $259 #
plane-surface $-1 0 -32.223379376500318 0 0 1 0 0 0 1 forward_v I I I I #
coedge $-1 $503 $504 $267 $393 forward $260 $-1 #
coedge $-1 $394 $262 $264 $389 reversed $160 $-1 #
edge $-1 $391 -1.077958892454248 $275 4.1717294514954428 $273 $505 forward 7 unknown #
coedge $-1 $264 $263 $506 $507 reversed $101 $-1 #
coedge $-1 $398 $397 $263 $388 forward $381 $-1 #
edge $-1 $508 -48.806421094393748 $390 48.806421094393748 $387 $509 forward 7 unknown #
edge $-1 $510 -48.806421094393748 $391 48.806421094393748 $384 $511 forward 7 unknown #
vertex $-1 $388 $512 #
vertex $-1 $266 $513 #
straight-curve $-1 48.806421094393748 -13.24066163482955 0.46892638706634937 0 1 0 I I #
edge $-1 $399 -18.982717741670768 $395 -7.4986055279883317 $383 $514 forward 7 unknown #
coedge $-1 $268 $384 $503 $515 reversed $160 $-1 #
vertex $-1 $393 $516 #
straight-curve $-1 0 -20.739267162817882 5.7186147310160402 -1 0 0 I I #
coedge $-1 $387 $270 $504 $517 forward $381 $-1 #
coedge $-1 $270 $387 $272 $401 reversed $381 $-1 #
vertex $-1 $517 $518 #
straight-curve $-1 0 -32.223379376500318 5.7186147310160402 -1 0 0 I I #
edge $-1 $276 -5.7186147310160402 $390 -0.46892638706634937 $272 $519 forward 7 unknown #
point $-1 48.806421094393748 -20.739267162817882 5.7186147310160402 #
point $-1 48.806421094393748 -32.223379376500318 5.7186147310160402 #
plane-surface $-1 48.806421094393748 0 0 -1 0 0 0 0 1 forward_v I I I I #
coedge $-1 $415 $414 $407 $520 forward $279 $-1 #
coedge $-1 $407 $281 $283 $411 reversed $168 $-1 #
coedge $-1 $281 $406 $405 $520 reversed $168 $-1 #
coedge $-1 $289 $284 $281 $409 forward $290 $-1 #
edge $-1 $412 -65.459237147202955 $521 -58.065816107989747 $408 $522 forward 7 unknown #
coedge $-1 $283 $282 $415 $523 reversed $105 $-1 #
edge $-1 $524 83.257746321060836 $412 97.612842188787482 $406 $525 forward 7 unknown #
vertex $-1 $285 $526 #
straight-curve $-1 48.806421094393748 -0.61359553666465416 3.0263927527618506 0 1 0 I I #
coedge $-1 $405 $286 $289 $419 forward $279 $-1 #
coedge $-1 $286 $405 $410 $523 forward $279 $-1 #
vertex $-1 $287 $527 #
straight-curve $-1 7.7051080197926574 -6.0712865200760717 10.419813791975059 1 0 0 I I #
straight-curve $-1 -34.864114956594349 -6.0712865200760717 53.300723748941508 -0.85716729658548041 0 0.51503808176128008 I I #
edge $-1 $291 -6.0712865200760717 $521 3.6169043734174551 $289 $528 forward 7 unknown #
point $-1 48.806421094393748 -6.0712865200760717 10.419813791975061 #
point $-1 48.806421094393741 -6.0712865200760717 3.0263927527618506 #
edge $-1 $529 1 $529 0 $294 $-1 forward 7 unknown #
vertex $-1 $295 $530 #
ellipse-curve $-1 39.04293227690458 -1.2271910733293083 0.71317471460785087 0.51503808176128008 0 0.85716729658548041 1.7143345931709608 0 -1.0300761635225602 1 I I #
point $-1 44.368396328982364 -1.2271910733293083 5.6930271088458859 #
plane-surface $-1 0 0 10.419813791975061 0 0 1 1 0 0 forward_v I I I I #
coedge $-1 $437 $436 $429 $531 forward $299 $-1 #
coedge $-1 $429 $301 $303 $433 reversed $183 $-1 #
coedge $-1 $301 $428 $427 $531 reversed $183 $-1 #
coedge $-1 $309 $304 $301 $431 forward $310 $-1 #
edge $-1 $434 -21.367786495663545 $532 -17.432058061607684 $430 $533 forward 7 unknown #
coedge $-1 $303 $302 $437 $534 reversed $114 $-1 #
edge $-1 $535 -1.393735185947377e-014 $434 7.6416263678867624 $428 $536 forward 7 unknown #
vertex $-1 $305 $537 #
straight-curve $-1 -44.870692660337888 -4.2767074793558653 10.419813791975059 0 1 0 I I #
coedge $-1 $427 $306 $309 $441 reversed $299 $-1 #
coedge $-1 $306 $427 $432 $534 forward $299 $-1 #
vertex $-1 $307 $538 #
straight-curve $-1 -48.806421094393748 -13.026318493577797 27.071995269982231 0 0 1 I I #
straight-curve $-1 -48.806421094393741 -13.026318493577797 3.8696614853682547 -0.51503806187062418 0 -0.85716730853699208 I I #
edge $-1 $532 4.0805114238456639 $311 13.026318493577797 $436 $539 forward 7 unknown #
point $-1 -48.806421094393748 -13.026318493577797 10.419813791975061 #
point $-1 -44.870692660337888 -13.026318493577797 10.419813791975061 #
edge $-1 $540 1 $540 0 $314 $-1 forward 7 unknown #
vertex $-1 $315 $541 #
ellipse-curve $-1 -45.981389568828831 -11.23715707963137 6.6296995768010385 -0.85716730853699208 0 0.51503806187062418 0.25751903093531209 0 0.42858365426849604 1 I I #
point $-1 -46.581037846430512 -11.23715707963137 7.5733212929401592 #
edge $-1 $542 1 $542 0 $318 $-1 forward 7 unknown #
vertex $-1 $319 $543 #
ellipse-curve $-1 -45.981389568828831 -8.5534149587117305 6.6296995768010385 -0.85716730853699208 0 0.51503806187062418 0.25751903093531209 0 0.42858365426849604 1 I I #
point $-1 -46.581037846430512 -8.5534149587117305 7.5733212929401592 #
edge $-1 $544 1 $544 0 $322 $-1 forward 7 unknown #
vertex $-1 $323 $545 #
ellipse-curve $-1 -45.981389568828831 -5.8696728377920913 6.6296995768010385 -0.85716730853699208 0 0.51503806187062418 0.25751903093531209 0 0.42858365426849604 1 I I #
point $-1 -46.581037846430512 -5.8696728377920913 7.5733212929401592 #
loop $-1 $-1 $334 $326 #
plane-surface $-1 -48.806421094393748 0 0 1 0 0 0 0 -1 forward_v I I I I #
coedge $-1 $459 $329 $331 $463 reversed $212 $-1 #
coedge $-1 $329 $458 $546 $547 reversed $212 $-1 #
coedge $-1 $337 $332 $329 $461 forward $327 $-1 #
edge $-1 $464 -21.367786495663545 $548 -17.432058061607684 $460 $549 forward 7 unknown #
coedge $-1 $331 $330 $467 $550 reversed $133 $-1 #
edge $-1 $551 -1.393735185947377e-014 $464 7.6416263678867624 $458 $552 forward 7 unknown #
vertex $-1 $333 $553 #
straight-curve $-1 -44.870692660337888 8.9639541554736866 10.419813791975059 0 1 0 I I #
coedge $-1 $546 $334 $337 $471 reversed $456 $-1 #
coedge $-1 $334 $546 $462 $550 forward $456 $-1 #
vertex $-1 $335 $554 #
straight-curve $-1 -48.806421094393748 13.455004776081307 27.071995269982231 0 0 1 I I #
straight-curve $-1 -48.806421094393741 13.455004776081307 3.8696614853682547 -0.51503806187062418 0 -0.85716730853699208 I I #
edge $-1 $548 -22.40081184581344 $338 -13.455004776081307 $466 $555 forward 7 unknown #
point $-1 -48.806421094393748 13.455004776081307 10.419813791975061 #
point $-1 -44.870692660337888 13.455004776081307 10.419813791975061 #
edge $-1 $556 1 $556 0 $341 $-1 forward 7 unknown #
vertex $-1 $342 $557 #
ellipse-curve $-1 -45.981389568828831 15.244166190027734 6.6296995768010385 -0.85716730853699208 0 0.51503806187062418 0.25751903093531209 0 0.42858365426849604 1 I I #
point $-1 -46.581037846430512 15.244166190027734 7.5733212929401592 #
edge $-1 $558 1 $558 0 $345 $-1 forward 7 unknown #
vertex $-1 $346 $559 #
ellipse-curve $-1 -45.981389568828831 17.927908310947373 6.6296995768010385 -0.85716730853699208 0 0.51503806187062418 0.25751903093531209 0 0.42858365426849604 1 I I #
point $-1 -46.581037846430512 17.927908310947373 7.5733212929401592 #
edge $-1 $560 1 $560 0 $349 $-1 forward 7 unknown #
vertex $-1 $350 $561 #
ellipse-curve $-1 -45.981389568828831 20.611650431867012 6.6296995768010385 -0.85716730853699208 0 0.51503806187062418 0.25751903093531209 0 0.42858365426849604 1 I I #
point $-1 -46.581037846430512 20.611650431867012 7.5733212929401592 #
plane-surface $-1 48.806421094393748 0 0 -1 0 0 0 0 1 forward_v I I I I #
coedge $-1 $358 $356 $360 $491 reversed $241 $-1 #
edge $-1 $371 -10.419813791975061 $493 10.419813791975061 $370 $562 forward 7 unknown #
vertex $-1 $491 $563 #
straight-curve $-1 -48.806421094393748 -32.223379376500318 0 0 0 -1 I I #
edge $-1 $489 -32.223379376500318 $493 32.223379376500318 $487 $564 forward 7 unknown #
straight-curve $-1 0 -32.223379376500318 -10.419813791975061 -1 0 0 I I #
vertex $-1 $363 $565 #
straight-curve $-1 0 32.223379376500318 -10.419813791975061 1 0 0 I I #
point $-1 48.806421094393748 32.223379376500318 -10.419813791975061 #
point $-1 48.806421094393748 -32.223379376500318 -10.419813791975061 #
straight-curve $-1 -48.806421094393748 0 10.419813791975061 0 -1 0 I I #
point $-1 -48.806421094393748 32.223379376500318 10.419813791975061 #
point $-1 -48.806421094393748 -32.223379376500318 10.419813791975061 #
straight-curve $-1 48.806421094393748 -32.223379376500318 0 0 0 -1 I I #
straight-curve $-1 48.806421094393748 32.223379376500318 0 0 0 -1 I I #
plane-surface $-1 48.806421094393748 0 0 -1 0 0 0 0 1 forward_v I I I I #
coedge $-1 $506 $383 $394 $515 forward $260 $-1 #
coedge $-1 $383 $506 $397 $517 reversed $260 $-1 #
straight-curve $-1 48.806421094393748 -20.739267162817882 1.5468852795205974 0 0 1 I I #
coedge $-1 $504 $503 $386 $507 forward $260 $-1 #
edge $-1 $510 7.4986055279883317 $508 18.982717741670768 $506 $566 forward 7 unknown #
vertex $-1 $388 $567 #
straight-curve $-1 0 -32.223379376500318 0.46892638706634937 1 0 0 I I #
vertex $-1 $507 $568 #
straight-curve $-1 0 -20.739267162817882 0.46892638706634937 1 0 0 I I #
point $-1 48.806421094393748 -32.223379376500318 0.46892638706634937 #
point $-1 48.806421094393748 -20.739267162817882 0.46892638706634937 #
straight-curve $-1 -48.806421094393748 -13.24066163482955 5.7186147310160402 0 1 0 I I #
edge $-1 $395 -4.1717294514954428 $510 1.077958892454248 $503 $569 forward 7 unknown #
point $-1 -48.806421094393748 -20.739267162817882 5.7186147310160402 #
edge $-1 $399 -5.7186147310160402 $508 -0.46892638706634937 $504 $570 forward 7 unknown #
point $-1 -48.806421094393748 -32.223379376500318 5.7186147310160402 #
straight-curve $-1 48.806421094393748 -32.223379376500318 0 0 0 -1 I I #
edge $-1 $521 -41.101313074601094 $524 -28.796594357436437 $405 $571 forward 7 unknown #
vertex $-1 $520 $572 #
straight-curve $-1 48.806421094393748 3.6169043734174551 68.485629899964806 0 0 1 I I #
edge $-1 $524 -4.2304999100821092 $416 5.4576909834114176 $415 $573 forward 7 unknown #
vertex $-1 $523 $574 #
straight-curve $-1 -34.864114956594349 3.6169043734174551 53.300723748941508 0.85716729658548041 0 -0.51503808176128008 I I #
point $-1 48.806421094393741 3.6169043734174551 3.0263927527618506 #
point $-1 36.501702377229094 -6.0712865200760717 10.419813791975059 #
straight-curve $-1 48.806421094393748 0 10.419813791975061 0 1 0 I I #
vertex $-1 $422 $575 #
point $-1 40.75726687007554 -1.2271910733293083 -0.31690144891470928 #
edge $-1 $532 16.652181478007172 $535 23.202333784613987 $427 $576 forward 7 unknown #
vertex $-1 $441 $577 #
straight-curve $-1 -66.238479156001432 -4.0805114238456639 10.419813791975059 -1 0 0 I I #
edge $-1 $535 -0.19619605551020136 $438 8.7496110142219319 $437 $578 forward 7 unknown #
vertex $-1 $534 $579 #
straight-curve $-1 -48.806421094393741 -4.0805114238456639 3.8696614853682547 0.51503806187062418 0 0.85716730853699208 I I #
point $-1 -44.870692660337888 -4.0805114238456639 10.419813791975061 #
point $-1 -48.806421094393748 -13.026318493577797 3.8696614853682427 #
straight-curve $-1 -48.806421094393748 0 10.419813791975061 0 -1 0 I I #
vertex $-1 $444 $580 #
point $-1 -45.723870537893518 -11.23715707963137 7.0582832310695345 #
vertex $-1 $448 $581 #
point $-1 -45.723870537893518 -8.5534149587117305 7.0582832310695345 #
vertex $-1 $452 $582 #
point $-1 -45.723870537893518 -5.8696728377920913 7.0582832310695345 #
coedge $-1 $467 $466 $459 $547 forward $456 $-1 #
edge $-1 $548 16.652181478007172 $551 23.202333784613987 $546 $583 forward 7 unknown #
vertex $-1 $471 $584 #
straight-curve $-1 -66.238479156001432 22.40081184581344 10.419813791975059 -1 0 0 I I #
edge $-1 $551 -13.436857690339753 $468 -4.4910506206076199 $467 $585 forward 7 unknown #
vertex $-1 $550 $586 #
straight-curve $-1 -48.806421094393741 22.40081184581344 3.8696614853682547 0.51503806187062418 0 0.85716730853699208 I I #
point $-1 -44.870692660337888 22.40081184581344 10.419813791975061 #
point $-1 -48.806421094393748 13.455004776081307 3.8696614853682427 #
straight-curve $-1 -48.806421094393748 0 10.419813791975061 0 -1 0 I I #
vertex $-1 $474 $587 #
point $-1 -45.723870537893518 15.244166190027734 7.0582832310695345 #
vertex $-1 $478 $588 #
point $-1 -45.723870537893518 17.927908310947373 7.0582832310695345 #
vertex $-1 $482 $589 #
point $-1 -45.723870537893518 20.611650431867012 7.0582832310695345 #
straight-curve $-1 -48.806421094393748 32.223379376500318 0 0 0 -1 I I #
point $-1 -48.806421094393748 -32.223379376500318 -10.419813791975061 #
straight-curve $-1 -48.806421094393748 0 -10.419813791975061 0 1 0 I I #
point $-1 -48.806421094393748 32.223379376500318 -10.419813791975061 #
straight-curve $-1 -48.806421094393748 -13.24066163482955 0.46892638706634937 0 -1 0 I I #
point $-1 -48.806421094393748 -32.223379376500318 0.46892638706634937 #
point $-1 -48.806421094393748 -20.739267162817882 0.46892638706634937 #
straight-curve $-1 -48.806421094393748 -20.739267162817882 1.5468852795205974 0 0 -1 I I #
straight-curve $-1 -48.806421094393748 -32.223379376500318 0 0 0 -1 I I #
straight-curve $-1 7.7051080197926574 3.6169043734174551 10.419813791975059 -1 0 0 I I #
point $-1 48.806421094393748 3.6169043734174551 10.419813791975061 #
straight-curve $-1 36.501702377229094 -0.61359553666465416 10.419813791975059 0 -1 0 I I #
point $-1 36.501702377229094 3.6169043734174551 10.419813791975059 #
point $-1 38.012856113382014 -1.2271910733293083 -1.00115987856311 #
straight-curve $-1 -48.806421094393748 -4.0805114238456639 27.071995269982231 0 0 -1 I I #
point $-1 -48.806421094393748 -4.0805114238456639 10.419813791975061 #
straight-curve $-1 -48.806421094393748 -4.2767074793558653 3.8696614853682387 0 -1 0 I I #
point $-1 -48.806421094393748 -4.0805114238456639 3.8696614853682427 #
point $-1 -45.552805914560338 -11.23715707963137 6.372180545865727 #
point $-1 -45.552805914560338 -8.5534149587117305 6.372180545865727 #
point $-1 -45.552805914560338 -5.8696728377920913 6.372180545865727 #
straight-curve $-1 -48.806421094393748 22.40081184581344 27.071995269982231 0 0 -1 I I #
point $-1 -48.806421094393748 22.40081184581344 10.419813791975061 #
straight-curve $-1 -48.806421094393748 8.9639541554736866 3.8696614853682387 0 -1 0 I I #
point $-1 -48.806421094393748 22.40081184581344 3.8696614853682427 #
point $-1 -45.552805914560338 15.244166190027734 6.372180545865727 #
point $-1 -45.552805914560338 17.927908310947373 6.372180545865727 #
point $-1 -45.552805914560338 20.611650431867012 6.372180545865727 #
End-of-ACIS-data 