500 0 15 0           
7 Unknown 11 ACIS 5.0 NT 24 Fri Mar 26 19:59:58 1999 
-1 9.9999999999999995e-007 1e-010 
body $-1 $15 $-1 $16 #
body $-1 $17 $-1 $18 #
body $-1 $19 $-1 $20 #
body $-1 $21 $-1 $22 #
body $-1 $23 $-1 $24 #
body $-1 $25 $-1 $26 #
body $-1 $27 $-1 $28 #
body $-1 $29 $-1 $30 #
body $-1 $31 $-1 $32 #
body $-1 $33 $-1 $34 #
body $-1 $35 $-1 $36 #
body $-1 $37 $-1 $38 #
body $-1 $39 $-1 $40 #
body $-1 $41 $-1 $42 #
body $-1 $43 $-1 $44 #
lump $-1 $-1 $45 $0 #
transform $-1 1 0 0 0 1 0 0 0 1 69.063386944181644 32.558032302788426 14.505697866205258 1 rotate no_reflect no_shear #
lump $-1 $-1 $46 $1 #
transform $-1 1 0 0 0 1 0 0 0 1 69.063386944181644 32.558032302788426 14.505697866205258 1 rotate no_reflect no_shear #
lump $-1 $-1 $47 $2 #
transform $-1 1 0 0 0 1 0 0 0 1 69.063386944181644 32.558032302788426 14.505697866205258 1 rotate no_reflect no_shear #
lump $-1 $-1 $48 $3 #
transform $-1 1 0 0 0 1 0 0 0 1 69.063386944181644 32.558032302788426 14.505697866205258 1 rotate no_reflect no_shear #
lump $-1 $-1 $49 $4 #
transform $-1 1 0 0 0 1 0 0 0 1 69.063386944181644 32.558032302788426 14.505697866205258 1 rotate no_reflect no_shear #
lump $-1 $-1 $50 $5 #
transform $-1 1 0 0 0 1 0 0 0 1 69.063386944181644 32.558032302788426 14.505697866205258 1 rotate no_reflect no_shear #
lump $-1 $-1 $51 $6 #
transform $-1 1 0 0 0 1 0 0 0 1 69.063386944181644 32.558032302788426 14.505697866205258 1 rotate no_reflect no_shear #
lump $-1 $-1 $52 $7 #
transform $-1 1 0 0 0 1 0 0 0 1 69.063386944181644 32.558032302788426 14.505697866205258 1 rotate no_reflect no_shear #
lump $-1 $-1 $53 $8 #
transform $-1 1 0 0 0 1 0 0 0 1 69.063386944181644 32.558032302788426 14.505697866205258 1 rotate no_reflect no_shear #
lump $-1 $-1 $54 $9 #
transform $-1 1 0 0 0 1 0 0 0 1 69.063386944181644 32.558032302788426 14.505697866205258 1 rotate no_reflect no_shear #
lump $-1 $-1 $55 $10 #
transform $-1 1 0 0 0 1 0 0 0 1 69.063386944181644 32.558032302788426 14.505697866205258 1 rotate no_reflect no_shear #
lump $-1 $-1 $56 $11 #
transform $-1 1 0 0 0 1 0 0 0 1 69.063386944181644 32.558032302788426 14.505697866205258 1 rotate no_reflect no_shear #
lump $-1 $-1 $57 $12 #
transform $-1 1 0 0 0 1 0 0 0 1 69.063386944181644 32.558032302788426 14.505697866205258 1 rotate no_reflect no_shear #
lump $-1 $-1 $58 $13 #
transform $-1 1 0 0 0 1 0 0 0 1 69.063386944181644 32.558032302788426 14.505697866205258 1 rotate no_reflect no_shear #
lump $-1 $-1 $59 $14 #
transform $-1 1 0 0 0 1 0 0 0 1 69.063386944181644 32.558032302788426 14.505697866205258 1 rotate no_reflect no_shear #
shell $-1 $-1 $-1 $60 $-1 $15 #
shell $-1 $-1 $-1 $61 $-1 $17 #
shell $-1 $-1 $-1 $62 $-1 $19 #
shell $-1 $-1 $-1 $63 $-1 $21 #
shell $-1 $-1 $-1 $64 $-1 $23 #
shell $-1 $-1 $-1 $65 $-1 $25 #
shell $-1 $-1 $-1 $66 $-1 $27 #
shell $-1 $-1 $-1 $67 $-1 $29 #
shell $-1 $-1 $-1 $68 $-1 $31 #
shell $-1 $-1 $-1 $69 $-1 $33 #
shell $-1 $-1 $-1 $70 $-1 $35 #
shell $-1 $-1 $-1 $71 $-1 $37 #
shell $-1 $-1 $-1 $72 $-1 $39 #
shell $-1 $-1 $-1 $73 $-1 $41 #
shell $-1 $-1 $-1 $74 $-1 $43 #
face $-1 $75 $76 $45 $-1 $77 forward single #
face $-1 $78 $79 $46 $-1 $80 reversed single #
face $-1 $81 $82 $47 $-1 $83 reversed single #
face $-1 $84 $85 $48 $-1 $86 reversed single #
face $-1 $87 $88 $49 $-1 $89 forward single #
face $-1 $90 $91 $50 $-1 $92 forward single #
face $-1 $93 $94 $51 $-1 $95 reversed single #
face $-1 $96 $97 $52 $-1 $98 forward single #
face $-1 $99 $100 $53 $-1 $101 forward single #
face $-1 $102 $103 $54 $-1 $104 reversed single #
face $-1 $105 $106 $55 $-1 $107 forward single #
face $-1 $108 $109 $56 $-1 $110 forward single #
face $-1 $111 $112 $57 $-1 $113 reversed single #
face $-1 $114 $115 $58 $-1 $116 forward single #
face $-1 $117 $118 $59 $-1 $119 forward single #
face $-1 $120 $121 $45 $-1 $122 reversed single #
loop $-1 $-1 $123 $60 #
plane-surface $-1 0 0 14.505697866205258 0 0 1 1 0 0 forward_v I I I I #
face $-1 $124 $125 $46 $-1 $126 reversed single #
loop $-1 $-1 $127 $61 #
plane-surface $-1 -47.117448503687058 -25.179396785875756 0 1 0 0 0 0 -1 forward_v I I I I #
face $-1 $128 $129 $47 $-1 $130 reversed single #
loop $-1 $-1 $131 $62 #
plane-surface $-1 -43.584719857729091 17.80076126896309 0 0 1 0 0 0 1 forward_v I I I I #
face $-1 $132 $133 $48 $-1 $134 reversed single #
loop $-1 $-1 $135 $63 #
plane-surface $-1 -170.08291546171372 -11.912832605221158 102.72291640832542 0 1 0 -0.73135370988377701 0 0.68199835119979291 forward_v I I I I #
face $-1 $136 $137 $49 $-1 $138 forward single #
loop $-1 $139 $140 $64 #
cone-surface $-1 -65.841922775432508 -9.4616950045318404 11.111364269947789 0.73135370988377701 0 -0.68199835119979291 0.34099917559989645 0 0.36567685494188851 1 I I 0 1 0.5 forward I I I I #
face $-1 $141 $142 $50 $-1 $143 forward single #
loop $-1 $144 $145 $65 #
cone-surface $-1 -65.841922775432508 -5.7849886034978617 11.111364269947789 0.73135370988377701 0 -0.68199835119979291 0.34099917559989645 0 0.36567685494188851 1 I I 0 1 0.5 forward I I I I #
face $-1 $146 $147 $51 $-1 $148 reversed single #
loop $-1 $-1 $149 $66 #
plane-surface $-1 -170.08291546171372 5.8879286637419277 102.72291640832542 0 1 0 -0.73135370988377701 0 0.68199835119979291 forward_v I I I I #
face $-1 $150 $151 $52 $-1 $152 forward single #
loop $-1 $153 $154 $67 #
cone-surface $-1 -65.841922775432508 8.3390662644312457 11.111364269947789 0.73135370988377701 0 -0.68199835119979291 0.34099917559989645 0 0.36567685494188851 1 I I 0 1 0.5 forward I I I I #
face $-1 $155 $156 $53 $-1 $157 forward single #
loop $-1 $158 $159 $68 #
cone-surface $-1 -65.841922775432508 12.015772665465228 11.111364269947789 0.73135370988377701 0 -0.68199835119979291 0.34099917559989645 0 0.36567685494188851 1 I I 0 1 0.5 forward I I I I #
face $-1 $160 $161 $54 $-1 $162 reversed single #
loop $-1 $-1 $163 $69 #
plane-surface $-1 75.880683413303359 -3.3338510028085402 203.74244492585751 0 -1 0 -0.73135370988377701 0 -0.68199835119979291 forward_v I I I I #
face $-1 $164 $165 $55 $-1 $166 forward single #
loop $-1 $167 $168 $70 #
cone-surface $-1 65.841922775432508 -9.4616950045318404 11.111364269947792 -0.73135370988377701 0 -0.68199835119979291 0.34099917559989645 0 -0.36567685494188851 1 I I 0 1 0.5 forward I I I I #
face $-1 $169 $170 $56 $-1 $171 forward single #
loop $-1 $172 $173 $71 #
cone-surface $-1 65.841922775432508 -5.7849886034978617 11.111364269947792 -0.73135370988377701 0 -0.68199835119979291 0.34099917559989645 0 -0.36567685494188851 1 I I 0 1 0.5 forward I I I I #
face $-1 $174 $175 $57 $-1 $176 reversed single #
loop $-1 $-1 $177 $72 #
plane-surface $-1 75.880683413303359 14.466910266154546 203.74244492585751 0 -1 0 -0.73135370988377701 0 -0.68199835119979291 forward_v I I I I #
face $-1 $178 $179 $58 $-1 $180 forward single #
loop $-1 $181 $182 $73 #
cone-surface $-1 65.841922775432508 8.3390662644312457 11.111364269947792 -0.73135370988377701 0 -0.68199835119979291 0.34099917559989645 0 -0.36567685494188851 1 I I 0 1 0.5 forward I I I I #
face $-1 $183 $184 $59 $-1 $185 forward single #
loop $-1 $186 $187 $74 #
cone-surface $-1 65.841922775432508 12.015772665465228 11.111364269947792 -0.73135370988377701 0 -0.68199835119979291 0.34099917559989645 0 -0.36567685494188851 1 I I 0 1 0.5 forward I I I I #
face $-1 $188 $189 $45 $-1 $190 reversed single #
loop $-1 $-1 $191 $75 #
plane-surface $-1 0 0 -14.505697866205258 0 0 1 1 0 0 forward_v I I I I #
coedge $-1 $192 $193 $194 $195 forward $76 $-1 #
face $-1 $196 $197 $46 $-1 $198 reversed single #
loop $-1 $-1 $199 $78 #
plane-surface $-1 -43.584719857729091 -17.800761268963086 0 0 -1 0 0 0 -1 forward_v I I I I #
coedge $-1 $200 $201 $202 $203 forward $79 $-1 #
face $-1 $204 $205 $47 $-1 $206 reversed single #
loop $-1 $-1 $207 $81 #
plane-surface $-1 -47.117448503687058 25.17939678587576 0 1 0 0 0 0 -1 forward_v I I I I #
coedge $-1 $208 $209 $210 $211 forward $82 $-1 #
face $-1 $212 $213 $48 $-1 $214 reversed single #
loop $-1 $-1 $215 $84 #
plane-surface $-1 -69.063386944181616 -7.6233418040148493 8.5206843599150517 -0.73135370988377701 0 0.68199835119979291 0.68199835119979291 0 0.73135370988377701 forward_v I I I I #
coedge $-1 $216 $217 $218 $219 reversed $85 $-1 #
face $-1 $-1 $220 $49 $-1 $221 forward single #
loop $-1 $222 $223 $87 #
cone-surface $-1 -65.228177804090706 -9.4616950045318404 10.539037839035464 0.73135370988377701 0 -0.68199835119979291 0.17049958779994823 0 0.18283842747094425 1 I I -0.70710678118654746 0.70710678118654746 0.25 forward I I I I #
loop $-1 $-1 $224 $64 #
coedge $-1 $140 $140 $225 $226 reversed $88 $-1 #
face $-1 $-1 $227 $50 $-1 $228 forward single #
loop $-1 $229 $230 $90 #
cone-surface $-1 -65.228177804090706 -5.7849886034978617 10.539037839035464 0.73135370988377701 0 -0.68199835119979291 0.17049958779994823 0 0.18283842747094425 1 I I -0.70710678118654746 0.70710678118654746 0.25 forward I I I I #
loop $-1 $-1 $231 $65 #
coedge $-1 $145 $145 $232 $233 reversed $91 $-1 #
face $-1 $234 $235 $51 $-1 $236 reversed single #
loop $-1 $-1 $237 $93 #
plane-surface $-1 -69.063386944181616 10.177419464948237 8.5206843599150517 -0.73135370988377701 0 0.68199835119979291 0.68199835119979291 0 0.73135370988377701 forward_v I I I I #
coedge $-1 $238 $239 $240 $241 reversed $94 $-1 #
face $-1 $-1 $242 $52 $-1 $243 forward single #
loop $-1 $244 $245 $96 #
cone-surface $-1 -65.228177804090706 8.3390662644312457 10.539037839035464 0.73135370988377701 0 -0.68199835119979291 0.17049958779994823 0 0.18283842747094425 1 I I -0.70710678118654746 0.70710678118654746 0.25 forward I I I I #
loop $-1 $-1 $246 $67 #
coedge $-1 $154 $154 $247 $248 reversed $97 $-1 #
face $-1 $-1 $249 $53 $-1 $250 forward single #
loop $-1 $251 $252 $99 #
cone-surface $-1 -65.228177804090706 12.015772665465228 10.539037839035464 0.73135370988377701 0 -0.68199835119979291 0.17049958779994823 0 0.18283842747094425 1 I I -0.70710678118654746 0.70710678118654746 0.25 forward I I I I #
loop $-1 $-1 $253 $68 #
coedge $-1 $159 $159 $254 $255 reversed $100 $-1 #
face $-1 $256 $257 $54 $-1 $258 reversed single #
loop $-1 $-1 $259 $102 #
plane-surface $-1 -25.13884510422875 -7.6233418040148493 109.54021287744715 0.73135370988377701 0 0.68199835119979291 0.68199835119979291 0 -0.73135370988377701 forward_v I I I I #
coedge $-1 $260 $261 $262 $263 reversed $103 $-1 #
face $-1 $-1 $264 $55 $-1 $265 forward single #
loop $-1 $266 $267 $105 #
cone-surface $-1 65.228177804090706 -9.4616950045318404 10.539037839035467 -0.73135370988377701 0 -0.68199835119979291 0.17049958779994823 0 -0.18283842747094425 1 I I -0.70710678118654746 0.70710678118654746 0.25 forward I I I I #
loop $-1 $-1 $268 $70 #
coedge $-1 $168 $168 $269 $270 reversed $106 $-1 #
face $-1 $-1 $271 $56 $-1 $272 forward single #
loop $-1 $273 $274 $108 #
cone-surface $-1 65.228177804090706 -5.7849886034978617 10.539037839035467 -0.73135370988377701 0 -0.68199835119979291 0.17049958779994823 0 -0.18283842747094425 1 I I -0.70710678118654746 0.70710678118654746 0.25 forward I I I I #
loop $-1 $-1 $275 $71 #
coedge $-1 $173 $173 $276 $277 reversed $109 $-1 #
face $-1 $278 $279 $57 $-1 $280 reversed single #
loop $-1 $-1 $281 $111 #
plane-surface $-1 -25.13884510422875 10.177419464948237 109.54021287744715 0.73135370988377701 0 0.68199835119979291 0.68199835119979291 0 -0.73135370988377701 forward_v I I I I #
coedge $-1 $282 $283 $284 $285 reversed $112 $-1 #
face $-1 $-1 $286 $58 $-1 $287 forward single #
loop $-1 $288 $289 $114 #
cone-surface $-1 65.228177804090706 8.3390662644312457 10.539037839035467 -0.73135370988377701 0 -0.68199835119979291 0.17049958779994823 0 -0.18283842747094425 1 I I -0.70710678118654746 0.70710678118654746 0.25 forward I I I I #
loop $-1 $-1 $290 $73 #
coedge $-1 $182 $182 $291 $292 reversed $115 $-1 #
face $-1 $-1 $293 $59 $-1 $294 forward single #
loop $-1 $295 $296 $117 #
cone-surface $-1 65.228177804090706 12.015772665465228 10.539037839035467 -0.73135370988377701 0 -0.68199835119979291 0.17049958779994823 0 -0.18283842747094425 1 I I -0.70710678118654746 0.70710678118654746 0.25 forward I I I I #
loop $-1 $-1 $297 $74 #
coedge $-1 $187 $187 $298 $299 reversed $118 $-1 #
face $-1 $300 $301 $45 $-1 $302 reversed single #
loop $-1 $-1 $303 $120 #
plane-surface $-1 0 -32.558032302788426 0 0 1 0 0 0 1 forward_v I I I I #
coedge $-1 $304 $305 $306 $307 forward $121 $-1 #
coedge $-1 $308 $123 $309 $310 forward $76 $-1 #
coedge $-1 $123 $308 $311 $312 forward $76 $-1 #
coedge $-1 $313 $314 $123 $195 reversed $315 $-1 #
edge $-1 $316 -32.558032302788426 $317 32.558032302788426 $194 $318 forward 7 unknown #
face $-1 $319 $320 $46 $-1 $321 forward single #
loop $-1 $-1 $322 $124 #
plane-surface $-1 -40.051991211771124 -25.179396785875756 0 -1 0 0 0 0 1 forward_v I I I I #
coedge $-1 $323 $324 $325 $326 forward $125 $-1 #
coedge $-1 $327 $127 $328 $329 reversed $79 $-1 #
coedge $-1 $127 $327 $330 $331 reversed $79 $-1 #
coedge $-1 $324 $323 $127 $203 reversed $125 $-1 #
edge $-1 $332 -14.505697866205258 $333 14.505697866205258 $202 $334 forward 7 unknown #
face $-1 $335 $336 $47 $-1 $337 reversed single #
loop $-1 $-1 $338 $128 #
plane-surface $-1 -40.051991211771124 25.17939678587576 0 -1 0 0 0 0 1 forward_v I I I I #
coedge $-1 $339 $340 $341 $342 reversed $129 $-1 #
coedge $-1 $343 $131 $344 $345 reversed $82 $-1 #
coedge $-1 $131 $343 $346 $347 reversed $82 $-1 #
coedge $-1 $340 $339 $131 $211 reversed $129 $-1 #
edge $-1 $348 -14.505697866205258 $349 14.505697866205258 $210 $350 forward 7 unknown #
face $-1 $351 $352 $48 $-1 $353 reversed single #
loop $-1 $-1 $354 $132 #
plane-surface $-1 -170.08291546171372 -3.3338510028085402 102.72291640832542 0 -1 0 0.73135370988377701 0 -0.68199835119979291 forward_v I I I I #
coedge $-1 $355 $356 $357 $358 reversed $133 $-1 #
coedge $-1 $217 $135 $359 $360 reversed $85 $-1 #
coedge $-1 $135 $216 $355 $361 reversed $85 $-1 #
coedge $-1 $357 $362 $135 $219 forward $363 $-1 #
edge $-1 $364 15.978070786675218 $365 21.559186036431846 $218 $366 forward 7 unknown #
loop $-1 $-1 $225 $136 #
plane-surface $-1 -69.063386944181616 -7.6233418040148493 8.5206843599150517 -0.73135370988377701 0 0.68199835119979291 0.68199835119979291 0 0.73135370988377701 forward_v I I I I #
loop $-1 $-1 $367 $87 #
coedge $-1 $223 $223 $224 $368 reversed $137 $-1 #
coedge $-1 $224 $224 $223 $368 forward $139 $-1 #
coedge $-1 $225 $225 $140 $226 forward $220 $-1 #
edge $-1 $369 0 $369 6.2831853071796004 $225 $370 forward 7 unknown #
loop $-1 $-1 $232 $141 #
plane-surface $-1 -69.063386944181616 -7.6233418040148493 8.5206843599150517 -0.73135370988377701 0 0.68199835119979291 0.68199835119979291 0 0.73135370988377701 forward_v I I I I #
loop $-1 $-1 $371 $90 #
coedge $-1 $230 $230 $231 $372 reversed $142 $-1 #
coedge $-1 $231 $231 $230 $372 forward $144 $-1 #
coedge $-1 $232 $232 $145 $233 forward $227 $-1 #
edge $-1 $373 0 $373 6.2831853071796004 $232 $374 forward 7 unknown #
face $-1 $375 $376 $51 $-1 $377 forward single #
loop $-1 $-1 $378 $146 #
plane-surface $-1 -170.08291546171372 14.466910266154546 102.72291640832542 0 -1 0 0.73135370988377701 0 -0.68199835119979291 forward_v I I I I #
coedge $-1 $379 $380 $381 $382 reversed $147 $-1 #
coedge $-1 $239 $149 $383 $384 reversed $94 $-1 #
coedge $-1 $149 $238 $379 $385 reversed $94 $-1 #
coedge $-1 $381 $386 $149 $241 forward $376 $-1 #
edge $-1 $387 15.978070786675218 $388 21.559186036431846 $240 $389 forward 7 unknown #
loop $-1 $-1 $247 $150 #
plane-surface $-1 -69.063386944181616 10.177419464948237 8.5206843599150517 -0.73135370988377701 0 0.68199835119979291 0.68199835119979291 0 0.73135370988377701 forward_v I I I I #
loop $-1 $-1 $390 $96 #
coedge $-1 $245 $245 $246 $391 reversed $151 $-1 #
coedge $-1 $246 $246 $245 $391 forward $153 $-1 #
coedge $-1 $247 $247 $154 $248 forward $242 $-1 #
edge $-1 $392 0 $392 6.2831853071796004 $247 $393 forward 7 unknown #
loop $-1 $-1 $254 $155 #
plane-surface $-1 -69.063386944181616 10.177419464948237 8.5206843599150517 -0.73135370988377701 0 0.68199835119979291 0.68199835119979291 0 0.73135370988377701 forward_v I I I I #
loop $-1 $-1 $394 $99 #
coedge $-1 $252 $252 $253 $395 reversed $156 $-1 #
coedge $-1 $253 $253 $252 $395 forward $158 $-1 #
coedge $-1 $254 $254 $159 $255 forward $249 $-1 #
edge $-1 $396 0 $396 6.2831853071796004 $254 $397 forward 7 unknown #
face $-1 $398 $399 $54 $-1 $400 forward single #
loop $-1 $-1 $401 $160 #
plane-surface $-1 75.880683413303359 -11.912832605221158 203.74244492585751 0 1 0 0.73135370988377701 0 0.68199835119979291 forward_v I I I I #
coedge $-1 $402 $403 $404 $405 reversed $161 $-1 #
coedge $-1 $261 $163 $406 $407 reversed $103 $-1 #
coedge $-1 $163 $260 $402 $408 reversed $103 $-1 #
coedge $-1 $404 $409 $163 $263 forward $399 $-1 #
edge $-1 $410 -31.123045237529965 $411 -25.541929987773344 $262 $412 forward 7 unknown #
loop $-1 $-1 $269 $164 #
plane-surface $-1 -25.13884510422875 -7.6233418040148493 109.54021287744715 0.73135370988377701 0 0.68199835119979291 0.68199835119979291 0 -0.73135370988377701 forward_v I I I I #
loop $-1 $-1 $413 $105 #
coedge $-1 $267 $267 $268 $414 reversed $165 $-1 #
coedge $-1 $268 $268 $267 $414 forward $167 $-1 #
coedge $-1 $269 $269 $168 $270 forward $264 $-1 #
edge $-1 $415 0 $415 6.2831853071796004 $269 $416 forward 7 unknown #
loop $-1 $-1 $276 $169 #
plane-surface $-1 -25.13884510422875 -7.6233418040148493 109.54021287744715 0.73135370988377701 0 0.68199835119979291 0.68199835119979291 0 -0.73135370988377701 forward_v I I I I #
loop $-1 $-1 $417 $108 #
coedge $-1 $274 $274 $275 $418 reversed $170 $-1 #
coedge $-1 $275 $275 $274 $418 forward $172 $-1 #
coedge $-1 $276 $276 $173 $277 forward $271 $-1 #
edge $-1 $419 0 $419 6.2831853071796004 $276 $420 forward 7 unknown #
face $-1 $421 $422 $57 $-1 $423 reversed single #
loop $-1 $-1 $424 $174 #
plane-surface $-1 75.880683413303359 5.8879286637419277 203.74244492585751 0 1 0 0.73135370988377701 0 0.68199835119979291 forward_v I I I I #
coedge $-1 $425 $426 $427 $428 reversed $175 $-1 #
coedge $-1 $283 $177 $429 $430 reversed $112 $-1 #
coedge $-1 $177 $282 $425 $431 reversed $112 $-1 #
coedge $-1 $427 $432 $177 $285 forward $433 $-1 #
edge $-1 $434 -31.123045237529965 $435 -25.541929987773344 $284 $436 forward 7 unknown #
loop $-1 $-1 $291 $178 #
plane-surface $-1 -25.13884510422875 10.177419464948237 109.54021287744715 0.73135370988377701 0 0.68199835119979291 0.68199835119979291 0 -0.73135370988377701 forward_v I I I I #
loop $-1 $-1 $437 $114 #
coedge $-1 $289 $289 $290 $438 reversed $179 $-1 #
coedge $-1 $290 $290 $289 $438 forward $181 $-1 #
coedge $-1 $291 $291 $182 $292 forward $286 $-1 #
edge $-1 $439 0 $439 6.2831853071796004 $291 $440 forward 7 unknown #
loop $-1 $-1 $298 $183 #
plane-surface $-1 -25.13884510422875 10.177419464948237 109.54021287744715 0.73135370988377701 0 0.68199835119979291 0.68199835119979291 0 -0.73135370988377701 forward_v I I I I #
loop $-1 $-1 $441 $117 #
coedge $-1 $296 $296 $297 $442 reversed $184 $-1 #
coedge $-1 $297 $297 $296 $442 forward $186 $-1 #
coedge $-1 $298 $298 $187 $299 forward $293 $-1 #
edge $-1 $443 0 $443 6.2831853071796004 $298 $444 forward 7 unknown #
face $-1 $445 $446 $45 $-1 $447 reversed single #
loop $-1 $-1 $448 $188 #
plane-surface $-1 -69.063386944181644 0 0 1 0 0 0 0 -1 forward_v I I I I #
coedge $-1 $449 $311 $450 $451 forward $189 $-1 #
coedge $-1 $452 $191 $449 $453 forward $121 $-1 #
coedge $-1 $191 $452 $454 $455 forward $121 $-1 #
coedge $-1 $314 $313 $191 $307 reversed $315 $-1 #
edge $-1 $456 -32.558032302788426 $457 32.558032302788426 $306 $458 forward 7 unknown #
coedge $-1 $193 $192 $459 $460 forward $76 $-1 #
coedge $-1 $461 $462 $192 $310 reversed $446 $-1 #
edge $-1 $317 -69.063386944181644 $463 69.063386944181644 $309 $464 forward 7 unknown #
coedge $-1 $303 $465 $193 $312 reversed $189 $-1 #
edge $-1 $466 -69.063386944181644 $316 69.063386944181644 $311 $467 forward 7 unknown #
coedge $-1 $306 $194 $465 $468 forward $315 $-1 #
coedge $-1 $194 $306 $461 $469 reversed $315 $-1 #
loop $-1 $-1 $313 $445 #
vertex $-1 $195 $470 #
vertex $-1 $195 $471 #
straight-curve $-1 69.063386944181644 0 14.505697866205258 0 1 0 I I #
face $-1 $472 $473 $46 $-1 $474 reversed single #
loop $-1 $-1 $475 $196 #
plane-surface $-1 0 0 14.505697866205258 0 0 1 1 0 0 forward_v I I I I #
coedge $-1 $476 $477 $478 $479 reversed $197 $-1 #
coedge $-1 $202 $199 $480 $481 reversed $125 $-1 #
coedge $-1 $199 $202 $482 $483 reversed $125 $-1 #
coedge $-1 $477 $476 $199 $326 reversed $197 $-1 #
edge $-1 $484 -14.505697866205258 $485 14.505697866205258 $325 $486 forward 7 unknown #
coedge $-1 $201 $200 $487 $488 reversed $79 $-1 #
coedge $-1 $480 $489 $200 $329 forward $473 $-1 #
edge $-1 $490 -19.96833390985055 $333 -5.211062876025208 $328 $491 forward 7 unknown #
coedge $-1 $492 $482 $201 $331 forward $320 $-1 #
edge $-1 $332 5.211062876025208 $493 19.96833390985055 $330 $494 forward 7 unknown #
vertex $-1 $331 $495 #
vertex $-1 $329 $496 #
straight-curve $-1 -47.117448503687058 -17.800761268963086 0 0 0 -1 I I #
face $-1 $497 $498 $47 $-1 $499 forward single #
loop $-1 $-1 $500 $204 #
plane-surface $-1 0 0 -14.505697866205258 0 0 1 1 0 0 forward_v I I I I #
coedge $-1 $501 $502 $343 $503 forward $205 $-1 #
coedge $-1 $210 $207 $504 $505 reversed $129 $-1 #
coedge $-1 $207 $210 $506 $507 reversed $129 $-1 #
coedge $-1 $508 $509 $207 $342 forward $510 $-1 #
edge $-1 $511 -14.505697866205258 $512 14.505697866205258 $341 $513 forward 7 unknown #
coedge $-1 $209 $208 $338 $503 reversed $82 $-1 #
coedge $-1 $504 $500 $208 $345 forward $336 $-1 #
edge $-1 $514 18.259631282906579 $349 25.325088574822512 $344 $515 forward 7 unknown #
coedge $-1 $516 $506 $209 $347 forward $498 $-1 #
edge $-1 $348 -25.325088574822512 $517 -18.259631282906579 $346 $518 forward 7 unknown #
vertex $-1 $347 $519 #
vertex $-1 $345 $520 #
straight-curve $-1 -47.117448503687058 17.80076126896309 0 0 0 -1 I I #
face $-1 $-1 $363 $48 $-1 $521 forward single #
loop $-1 $-1 $522 $212 #
plane-surface $-1 -69.063386944181644 0 0 1 0 0 0 0 -1 forward_v I I I I #
coedge $-1 $523 $524 $525 $526 reversed $213 $-1 #
coedge $-1 $527 $215 $217 $361 forward $133 $-1 #
coedge $-1 $215 $527 $523 $528 forward $133 $-1 #
coedge $-1 $525 $218 $215 $358 forward $363 $-1 #
edge $-1 $365 -8.1011617032137337 $529 0.47781989919888446 $357 $530 forward 7 unknown #
coedge $-1 $531 $532 $216 $360 forward $352 $-1 #
edge $-1 $533 -42.840773844247686 $364 -36.855760337957449 $359 $534 forward 7 unknown #
edge $-1 $365 -8.1834732297198745 $533 4.1469026767552634e-014 $217 $535 forward 7 unknown #
coedge $-1 $218 $525 $531 $536 forward $363 $-1 #
loop $-1 $-1 $525 $351 #
vertex $-1 $360 $537 #
vertex $-1 $219 $538 #
straight-curve $-1 -85.041457730856862 -11.912832605221158 14.50569786620526 1 0 0 I I #
coedge $-1 $367 $367 $-1 $539 reversed $222 $-1 #
edge $-1 $540 0 $540 6.2831853071796004 $223 $541 forward 7 unknown #
vertex $-1 $226 $542 #
ellipse-curve $-1 -66.272829319303327 -9.4616950045318404 11.513191113060138 -0.73135370988377701 0 0.68199835119979291 0.34099917559989645 0 0.36567685494188851 1 I I #
coedge $-1 $371 $371 $-1 $543 reversed $229 $-1 #
edge $-1 $544 0 $544 6.2831853071796004 $230 $545 forward 7 unknown #
vertex $-1 $233 $546 #
ellipse-curve $-1 -66.272829319303327 -5.7849886034978617 11.513191113060138 -0.73135370988377701 0 0.68199835119979291 0.34099917559989645 0 0.36567685494188851 1 I I #
face $-1 $-1 $547 $51 $-1 $548 reversed single #
loop $-1 $-1 $240 $234 #
plane-surface $-1 0 0 14.505697866205258 0 0 1 1 0 0 forward_v I I I I #
coedge $-1 $549 $550 $551 $552 reversed $235 $-1 #
coedge $-1 $553 $237 $239 $385 forward $147 $-1 #
coedge $-1 $237 $553 $549 $554 forward $147 $-1 #
coedge $-1 $551 $240 $237 $382 forward $376 $-1 #
edge $-1 $388 0.7992189312678093 $555 9.3782005336804275 $381 $556 forward 7 unknown #
coedge $-1 $557 $558 $238 $384 forward $547 $-1 #
edge $-1 $559 -42.840773844247686 $387 -36.855760337957449 $383 $560 forward 7 unknown #
edge $-1 $388 -8.1834732297198745 $559 4.1469026767552634e-014 $239 $561 forward 7 unknown #
coedge $-1 $240 $551 $557 $562 forward $376 $-1 #
vertex $-1 $384 $563 #
vertex $-1 $241 $564 #
straight-curve $-1 -85.041457730856862 5.8879286637419277 14.50569786620526 1 0 0 I I #
coedge $-1 $390 $390 $-1 $565 reversed $244 $-1 #
edge $-1 $566 0 $566 6.2831853071796004 $245 $567 forward 7 unknown #
vertex $-1 $248 $568 #
ellipse-curve $-1 -66.272829319303327 8.3390662644312457 11.513191113060138 -0.73135370988377701 0 0.68199835119979291 0.34099917559989645 0 0.36567685494188851 1 I I #
coedge $-1 $394 $394 $-1 $569 reversed $251 $-1 #
edge $-1 $570 0 $570 6.2831853071796004 $252 $571 forward 7 unknown #
vertex $-1 $255 $572 #
ellipse-curve $-1 -66.272829319303327 12.015772665465228 11.513191113060138 -0.73135370988377701 0 0.68199835119979291 0.34099917559989645 0 0.36567685494188851 1 I I #
face $-1 $-1 $573 $54 $-1 $574 reversed single #
loop $-1 $-1 $262 $256 #
plane-surface $-1 0 0 14.505697866205258 0 0 1 1 0 0 forward_v I I I I #
coedge $-1 $575 $576 $577 $578 reversed $257 $-1 #
coedge $-1 $579 $259 $261 $408 forward $161 $-1 #
coedge $-1 $259 $579 $575 $580 forward $161 $-1 #
coedge $-1 $577 $262 $259 $405 forward $399 $-1 #
edge $-1 $411 -0.47781989919888446 $581 8.1011617032137337 $404 $582 forward 7 unknown #
coedge $-1 $583 $584 $260 $407 forward $573 $-1 #
edge $-1 $585 -93.350538103013747 $410 -87.365524596723503 $406 $586 forward 7 unknown #
edge $-1 $411 129.94330065864341 $585 138.12677388836332 $261 $587 forward 7 unknown #
coedge $-1 $262 $577 $583 $588 forward $399 $-1 #
vertex $-1 $263 $589 #
vertex $-1 $263 $590 #
straight-curve $-1 37.940341706651679 -3.3338510028085402 14.505697866205253 -1 0 0 I I #
coedge $-1 $413 $413 $-1 $591 reversed $266 $-1 #
edge $-1 $592 0 $592 6.2831853071796004 $267 $593 forward 7 unknown #
vertex $-1 $270 $594 #
ellipse-curve $-1 66.272829319303327 -9.4616950045318404 11.513191113060136 0.73135370988377701 0 0.68199835119979291 0.34099917559989645 0 -0.36567685494188851 1 I I #
coedge $-1 $417 $417 $-1 $595 reversed $273 $-1 #
edge $-1 $596 0 $596 6.2831853071796004 $274 $597 forward 7 unknown #
vertex $-1 $277 $598 #
ellipse-curve $-1 66.272829319303327 -5.7849886034978617 11.513191113060136 0.73135370988377701 0 0.68199835119979291 0.34099917559989645 0 -0.36567685494188851 1 I I #
face $-1 $-1 $433 $57 $-1 $599 forward single #
loop $-1 $-1 $600 $278 #
plane-surface $-1 69.063386944181644 0 0 -1 0 0 0 0 1 forward_v I I I I #
coedge $-1 $601 $602 $603 $604 reversed $279 $-1 #
coedge $-1 $605 $281 $283 $431 forward $175 $-1 #
coedge $-1 $281 $605 $601 $606 forward $175 $-1 #
coedge $-1 $603 $284 $281 $428 forward $433 $-1 #
edge $-1 $435 -9.3782005336804275 $607 -0.7992189312678093 $427 $608 forward 7 unknown #
coedge $-1 $609 $610 $282 $430 forward $422 $-1 #
edge $-1 $611 -93.350538103013747 $434 -87.365524596723503 $429 $612 forward 7 unknown #
edge $-1 $435 129.94330065864341 $611 138.12677388836332 $283 $613 forward 7 unknown #
coedge $-1 $284 $603 $609 $614 forward $433 $-1 #
loop $-1 $-1 $603 $421 #
vertex $-1 $430 $615 #
vertex $-1 $285 $616 #
straight-curve $-1 37.940341706651679 14.466910266154546 14.505697866205253 -1 0 0 I I #
coedge $-1 $437 $437 $-1 $617 reversed $288 $-1 #
edge $-1 $618 0 $618 6.2831853071796004 $289 $619 forward 7 unknown #
vertex $-1 $292 $620 #
ellipse-curve $-1 66.272829319303327 8.3390662644312457 11.513191113060136 0.73135370988377701 0 0.68199835119979291 0.34099917559989645 0 -0.36567685494188851 1 I I #
coedge $-1 $441 $441 $-1 $621 reversed $295 $-1 #
edge $-1 $622 0 $622 6.2831853071796004 $296 $623 forward 7 unknown #
vertex $-1 $299 $624 #
ellipse-curve $-1 66.272829319303327 12.015772665465228 11.513191113060136 0.73135370988377701 0 0.68199835119979291 0.34099917559989645 0 -0.36567685494188851 1 I I #
face $-1 $-1 $315 $45 $-1 $625 reversed single #
loop $-1 $-1 $461 $300 #
plane-surface $-1 0 32.558032302788426 0 0 -1 0 0 0 -1 forward_v I I I I #
coedge $-1 $626 $459 $462 $627 forward $301 $-1 #
coedge $-1 $465 $303 $304 $453 reversed $189 $-1 #
coedge $-1 $459 $626 $303 $451 reversed $301 $-1 #
edge $-1 $466 -14.505697866205258 $628 14.505697866205258 $450 $629 forward 7 unknown #
coedge $-1 $305 $304 $626 $630 forward $121 $-1 #
edge $-1 $457 -69.063386944181644 $628 69.063386944181644 $449 $631 forward 7 unknown #
coedge $-1 $462 $461 $305 $455 reversed $446 $-1 #
edge $-1 $632 -69.063386944181644 $456 69.063386944181644 $454 $633 forward 7 unknown #
vertex $-1 $307 $634 #
vertex $-1 $468 $635 #
straight-curve $-1 69.063386944181644 0 -14.505697866205258 0 -1 0 I I #
coedge $-1 $448 $450 $308 $460 reversed $301 $-1 #
edge $-1 $463 -32.558032302788426 $466 32.558032302788426 $459 $636 forward 7 unknown #
coedge $-1 $454 $309 $314 $469 forward $446 $-1 #
coedge $-1 $309 $454 $448 $627 reversed $446 $-1 #
vertex $-1 $310 $637 #
straight-curve $-1 0 32.558032302788426 14.505697866205258 -1 0 0 I I #
coedge $-1 $311 $449 $313 $468 reversed $189 $-1 #
vertex $-1 $460 $638 #
straight-curve $-1 0 -32.558032302788426 14.505697866205258 1 0 0 I I #
edge $-1 $316 -14.505697866205258 $457 14.505697866205258 $313 $639 forward 7 unknown #
edge $-1 $317 -14.505697866205258 $456 14.505697866205258 $314 $640 forward 7 unknown #
point $-1 69.063386944181644 -32.558032302788426 14.505697866205258 #
point $-1 69.063386944181644 32.558032302788426 14.505697866205258 #
face $-1 $-1 $641 $46 $-1 $642 reversed single #
loop $-1 $-1 $643 $319 #
plane-surface $-1 0 0 -14.505697866205258 0 0 1 1 0 0 forward_v I I I I #
coedge $-1 $482 $492 $477 $644 forward $320 $-1 #
coedge $-1 $325 $322 $643 $645 reversed $197 $-1 #
coedge $-1 $322 $325 $475 $644 reversed $197 $-1 #
coedge $-1 $646 $647 $322 $479 forward $641 $-1 #
edge $-1 $648 -14.505697866205258 $649 14.505697866205258 $478 $650 forward 7 unknown #
coedge $-1 $643 $328 $323 $481 forward $473 $-1 #
edge $-1 $333 -25.325088574822512 $485 -18.259631282906579 $480 $651 forward 7 unknown #
coedge $-1 $330 $475 $324 $483 forward $320 $-1 #
edge $-1 $484 18.259631282906579 $332 25.325088574822512 $482 $652 forward 7 unknown #
vertex $-1 $483 $653 #
vertex $-1 $481 $654 #
straight-curve $-1 -40.051991211771124 -17.800761268963086 0 0 0 -1 I I #
coedge $-1 $647 $646 $327 $488 forward $641 $-1 #
edge $-1 $493 -14.505697866205258 $490 14.505697866205258 $487 $655 forward 7 unknown #
coedge $-1 $328 $643 $647 $656 forward $473 $-1 #
vertex $-1 $329 $657 #
straight-curve $-1 -47.117448503687058 -12.589698392937878 -14.505697866205258 0 1 0 I I #
coedge $-1 $475 $330 $646 $658 forward $320 $-1 #
vertex $-1 $658 $659 #
straight-curve $-1 -47.117448503687058 -12.589698392937878 14.505697866205258 0 -1 0 I I #
point $-1 -47.117448503687058 -17.800761268963086 14.505697866205258 #
point $-1 -47.117448503687058 -17.800761268963086 -14.505697866205258 #
face $-1 $-1 $510 $47 $-1 $660 reversed single #
loop $-1 $-1 $516 $335 #
plane-surface $-1 0 0 14.505697866205258 0 0 1 1 0 0 forward_v I I I I #
coedge $-1 $344 $661 $501 $662 forward $336 $-1 #
coedge $-1 $663 $338 $500 $662 reversed $205 $-1 #
coedge $-1 $338 $663 $516 $664 reversed $205 $-1 #
edge $-1 $517 -14.505697866205258 $514 14.505697866205258 $338 $665 forward 7 unknown #
coedge $-1 $661 $344 $339 $505 forward $336 $-1 #
edge $-1 $349 5.2110628760252098 $511 19.968333909850553 $504 $666 forward 7 unknown #
coedge $-1 $346 $667 $340 $507 forward $498 $-1 #
edge $-1 $512 -19.968333909850553 $348 -5.2110628760252098 $506 $668 forward 7 unknown #
coedge $-1 $669 $341 $667 $670 reversed $510 $-1 #
coedge $-1 $341 $669 $661 $671 reversed $510 $-1 #
loop $-1 $-1 $669 $497 #
vertex $-1 $671 $672 #
vertex $-1 $342 $673 #
straight-curve $-1 -47.117448503687058 32.558032302788426 0 0 0 1 I I #
vertex $-1 $345 $674 #
straight-curve $-1 -21.792359928864546 17.80076126896309 -14.505697866205258 -1 0 0 I I #
coedge $-1 $667 $346 $502 $664 forward $498 $-1 #
vertex $-1 $347 $675 #
straight-curve $-1 -21.792359928864546 17.80076126896309 14.505697866205258 1 0 0 I I #
point $-1 -47.117448503687058 17.80076126896309 14.505697866205258 #
point $-1 -47.117448503687058 17.80076126896309 -14.505697866205258 #
plane-surface $-1 0 0 14.505697866205258 0 0 1 1 0 0 forward_v I I I I #
coedge $-1 $532 $531 $524 $676 forward $352 $-1 #
coedge $-1 $524 $354 $356 $528 reversed $213 $-1 #
coedge $-1 $354 $523 $522 $676 reversed $213 $-1 #
coedge $-1 $362 $357 $354 $526 forward $363 $-1 #
edge $-1 $529 -21.559186036431846 $677 -15.978070786675218 $525 $678 forward 7 unknown #
coedge $-1 $356 $355 $532 $679 reversed $133 $-1 #
edge $-1 $680 -4.1469026767552634e-014 $529 8.1834732297198745 $523 $681 forward 7 unknown #
vertex $-1 $358 $682 #
straight-curve $-1 -63.482271694425009 -3.8116709020074246 14.505697866205258 0 1 0 I I #
coedge $-1 $522 $359 $362 $536 reversed $352 $-1 #
coedge $-1 $359 $522 $527 $679 forward $352 $-1 #
vertex $-1 $360 $683 #
straight-curve $-1 -69.063386944181644 -11.912832605221158 51.361458204162709 0 0 1 I I #
straight-curve $-1 -69.063386944181616 -11.912832605221158 8.5206843599150517 -0.68199835119979291 0 -0.73135370988377701 I I #
edge $-1 $677 3.3338510028085402 $364 11.912832605221158 $531 $684 forward 7 unknown #
point $-1 -69.063386944181644 -11.912832605221158 14.505697866205258 #
point $-1 -63.482271694425016 -11.912832605221158 14.505697866205256 #
edge $-1 $685 1 $685 0 $367 $-1 forward 7 unknown #
vertex $-1 $368 $686 #
ellipse-curve $-1 -65.411016231561646 -9.4616950045318404 10.709537426835412 -0.73135370988377701 0 0.68199835119979291 0.34099917559989645 0 0.36567685494188851 1 I I #
point $-1 -65.931830143703451 -9.4616950045318404 11.878867968002051 #
edge $-1 $687 1 $687 0 $371 $-1 forward 7 unknown #
vertex $-1 $372 $688 #
ellipse-curve $-1 -65.411016231561646 -5.7849886034978617 10.709537426835412 -0.73135370988377701 0 0.68199835119979291 0.34099917559989645 0 0.36567685494188851 1 I I #
point $-1 -65.931830143703451 -5.7849886034978617 11.878867968002051 #
loop $-1 $-1 $383 $375 #
plane-surface $-1 -69.063386944181644 0 0 1 0 0 0 0 -1 forward_v I I I I #
coedge $-1 $550 $378 $380 $554 reversed $235 $-1 #
coedge $-1 $378 $549 $689 $690 reversed $235 $-1 #
coedge $-1 $386 $381 $378 $552 forward $376 $-1 #
edge $-1 $555 -21.559186036431846 $691 -15.978070786675218 $551 $692 forward 7 unknown #
coedge $-1 $380 $379 $558 $693 reversed $147 $-1 #
edge $-1 $694 -4.1469026767552634e-014 $555 8.1834732297198745 $549 $695 forward 7 unknown #
vertex $-1 $382 $696 #
straight-curve $-1 -63.482271694425009 5.0887097324741184 14.505697866205258 0 1 0 I I #
coedge $-1 $689 $383 $386 $562 reversed $547 $-1 #
coedge $-1 $383 $689 $553 $693 forward $547 $-1 #
vertex $-1 $384 $697 #
straight-curve $-1 -69.063386944181644 5.8879286637419277 51.361458204162709 0 0 1 I I #
straight-curve $-1 -69.063386944181616 5.8879286637419277 8.5206843599150517 -0.68199835119979291 0 -0.73135370988377701 I I #
edge $-1 $691 -14.466910266154546 $387 -5.8879286637419277 $557 $698 forward 7 unknown #
point $-1 -69.063386944181644 5.8879286637419277 14.505697866205258 #
point $-1 -63.482271694425016 5.8879286637419277 14.505697866205256 #
edge $-1 $699 1 $699 0 $390 $-1 forward 7 unknown #
vertex $-1 $391 $700 #
ellipse-curve $-1 -65.411016231561646 8.3390662644312457 10.709537426835412 -0.73135370988377701 0 0.68199835119979291 0.34099917559989645 0 0.36567685494188851 1 I I #
point $-1 -65.931830143703451 8.3390662644312457 11.878867968002051 #
edge $-1 $701 1 $701 0 $394 $-1 forward 7 unknown #
vertex $-1 $395 $702 #
ellipse-curve $-1 -65.411016231561646 12.015772665465228 10.709537426835412 -0.73135370988377701 0 0.68199835119979291 0.34099917559989645 0 0.36567685494188851 1 I I #
point $-1 -65.931830143703451 12.015772665465228 11.878867968002051 #
loop $-1 $-1 $406 $398 #
plane-surface $-1 69.063386944181644 0 0 -1 0 0 0 0 1 forward_v I I I I #
coedge $-1 $576 $401 $403 $580 reversed $257 $-1 #
coedge $-1 $401 $575 $703 $704 reversed $257 $-1 #
coedge $-1 $409 $404 $401 $578 forward $399 $-1 #
edge $-1 $581 25.541929987773344 $705 31.123045237529965 $577 $706 forward 7 unknown #
coedge $-1 $403 $402 $584 $707 reversed $161 $-1 #
edge $-1 $708 -138.12677388836332 $581 -129.94330065864341 $575 $709 forward 7 unknown #
vertex $-1 $405 $710 #
straight-curve $-1 63.482271694425009 -3.8116709020074246 14.50569786620526 0 -1 0 I I #
coedge $-1 $703 $406 $409 $588 reversed $573 $-1 #
coedge $-1 $406 $703 $579 $707 forward $573 $-1 #
vertex $-1 $407 $711 #
straight-curve $-1 69.063386944181644 -3.3338510028085402 101.87122246292876 0 0 1 I I #
straight-curve $-1 -25.13884510422875 -3.3338510028085402 109.54021287744715 0.68199835119979291 0 -0.73135370988377701 I I #
edge $-1 $705 -11.912832605221158 $410 -3.3338510028085402 $583 $712 forward 7 unknown #
point $-1 69.063386944181644 -3.3338510028085402 14.505697866205258 #
point $-1 63.482271694425023 -3.3338510028085402 14.505697866205239 #
edge $-1 $713 1 $713 0 $413 $-1 forward 7 unknown #
vertex $-1 $414 $714 #
ellipse-curve $-1 65.411016231561646 -9.4616950045318404 10.709537426835416 0.73135370988377701 0 0.68199835119979291 0.34099917559989645 0 -0.36567685494188851 1 I I #
point $-1 66.613828494903245 -9.4616950045318404 11.147514258118278 #
edge $-1 $715 1 $715 0 $417 $-1 forward 7 unknown #
vertex $-1 $418 $716 #
ellipse-curve $-1 65.411016231561646 -5.7849886034978617 10.709537426835416 0.73135370988377701 0 0.68199835119979291 0.34099917559989645 0 -0.36567685494188851 1 I I #
point $-1 66.613828494903245 -5.7849886034978617 11.147514258118278 #
plane-surface $-1 0 0 14.505697866205258 0 0 1 1 0 0 forward_v I I I I #
coedge $-1 $610 $609 $602 $717 forward $422 $-1 #
coedge $-1 $602 $424 $426 $606 reversed $279 $-1 #
coedge $-1 $424 $601 $600 $717 reversed $279 $-1 #
coedge $-1 $432 $427 $424 $604 forward $433 $-1 #
edge $-1 $607 25.541929987773344 $718 31.123045237529965 $603 $719 forward 7 unknown #
coedge $-1 $426 $425 $610 $720 reversed $175 $-1 #
edge $-1 $721 -138.12677388836332 $607 -129.94330065864341 $601 $722 forward 7 unknown #
vertex $-1 $428 $723 #
straight-curve $-1 63.482271694425009 5.0887097324741184 14.50569786620526 0 -1 0 I I #
coedge $-1 $600 $429 $432 $614 reversed $422 $-1 #
coedge $-1 $429 $600 $605 $720 forward $422 $-1 #
vertex $-1 $430 $724 #
straight-curve $-1 69.063386944181644 14.466910266154546 101.87122246292876 0 0 1 I I #
straight-curve $-1 -25.13884510422875 14.466910266154546 109.54021287744715 0.68199835119979291 0 -0.73135370988377701 I I #
edge $-1 $718 5.8879286637419277 $434 14.466910266154546 $609 $725 forward 7 unknown #
point $-1 69.063386944181644 14.466910266154546 14.505697866205258 #
point $-1 63.482271694425023 14.466910266154546 14.505697866205239 #
edge $-1 $726 1 $726 0 $437 $-1 forward 7 unknown #
vertex $-1 $438 $727 #
ellipse-curve $-1 65.411016231561646 8.3390662644312457 10.709537426835416 0.73135370988377701 0 0.68199835119979291 0.34099917559989645 0 -0.36567685494188851 1 I I #
point $-1 66.613828494903245 8.3390662644312457 11.147514258118278 #
edge $-1 $728 1 $728 0 $441 $-1 forward 7 unknown #
vertex $-1 $442 $729 #
ellipse-curve $-1 65.411016231561646 12.015772665465228 10.709537426835416 0.73135370988377701 0 0.68199835119979291 0.34099917559989645 0 -0.36567685494188851 1 I I #
point $-1 66.613828494903245 12.015772665465228 11.147514258118278 #
plane-surface $-1 69.063386944181644 0 0 -1 0 0 0 0 1 forward_v I I I I #
coedge $-1 $450 $448 $452 $630 reversed $301 $-1 #
edge $-1 $463 -14.505697866205258 $632 14.505697866205258 $462 $730 forward 7 unknown #
vertex $-1 $630 $731 #
straight-curve $-1 -69.063386944181644 -32.558032302788426 0 0 0 -1 I I #
edge $-1 $628 -32.558032302788426 $632 32.558032302788426 $626 $732 forward 7 unknown #
straight-curve $-1 0 -32.558032302788426 -14.505697866205258 -1 0 0 I I #
vertex $-1 $455 $733 #
straight-curve $-1 0 32.558032302788426 -14.505697866205258 1 0 0 I I #
point $-1 69.063386944181644 32.558032302788426 -14.505697866205258 #
point $-1 69.063386944181644 -32.558032302788426 -14.505697866205258 #
straight-curve $-1 -69.063386944181644 0 14.505697866205258 0 -1 0 I I #
point $-1 -69.063386944181644 32.558032302788426 14.505697866205258 #
point $-1 -69.063386944181644 -32.558032302788426 14.505697866205258 #
straight-curve $-1 69.063386944181644 -32.558032302788426 0 0 0 -1 I I #
straight-curve $-1 69.063386944181644 32.558032302788426 0 0 0 -1 I I #
loop $-1 $-1 $478 $472 #
plane-surface $-1 0 -32.558032302788426 0 0 1 0 0 0 1 forward_v I I I I #
coedge $-1 $489 $480 $476 $645 forward $473 $-1 #
edge $-1 $649 -19.96833390985055 $484 -5.211062876025208 $475 $734 forward 7 unknown #
edge $-1 $485 5.211062876025208 $648 19.96833390985055 $643 $735 forward 7 unknown #
coedge $-1 $487 $478 $492 $658 reversed $641 $-1 #
coedge $-1 $478 $487 $489 $656 reversed $641 $-1 #
vertex $-1 $656 $736 #
vertex $-1 $479 $737 #
straight-curve $-1 -40.051991211771124 -32.558032302788426 0 0 0 1 I I #
straight-curve $-1 -21.792359928864546 -17.800761268963086 -14.505697866205258 1 0 0 I I #
straight-curve $-1 -21.792359928864546 -17.800761268963086 14.505697866205258 -1 0 0 I I #
point $-1 -40.051991211771124 -17.800761268963086 14.505697866205258 #
point $-1 -40.051991211771124 -17.800761268963086 -14.505697866205258 #
straight-curve $-1 -47.117448503687058 -32.558032302788426 0 0 0 -1 I I #
edge $-1 $648 40.051991211771124 $490 47.117448503687058 $647 $738 forward 7 unknown #
point $-1 -47.117448503687058 -32.558032302788426 -14.505697866205258 #
edge $-1 $493 -47.117448503687058 $649 -40.051991211771124 $646 $739 forward 7 unknown #
point $-1 -47.117448503687058 -32.558032302788426 14.505697866205258 #
plane-surface $-1 0 32.558032302788426 0 0 -1 0 0 0 -1 forward_v I I I I #
coedge $-1 $500 $504 $509 $671 forward $336 $-1 #
edge $-1 $740 -19.968333909850553 $514 -5.2110628760252098 $500 $741 forward 7 unknown #
coedge $-1 $502 $501 $669 $742 reversed $205 $-1 #
edge $-1 $517 5.2110628760252098 $743 19.968333909850553 $516 $744 forward 7 unknown #
straight-curve $-1 -40.051991211771124 17.80076126896309 0 0 0 -1 I I #
straight-curve $-1 -47.117448503687058 12.58969839293788 -14.505697866205258 0 1 0 I I #
coedge $-1 $506 $516 $508 $670 forward $498 $-1 #
straight-curve $-1 -47.117448503687058 12.58969839293788 14.505697866205258 0 -1 0 I I #
coedge $-1 $509 $508 $663 $742 forward $510 $-1 #
edge $-1 $743 40.051991211771124 $512 47.117448503687058 $508 $745 forward 7 unknown #
edge $-1 $511 -47.117448503687058 $740 -40.051991211771124 $509 $746 forward 7 unknown #
point $-1 -47.117448503687058 32.558032302788433 -14.505697866205258 #
point $-1 -47.117448503687058 32.558032302788433 14.505697866205258 #
point $-1 -40.051991211771124 17.80076126896309 -14.505697866205258 #
point $-1 -40.051991211771124 17.80076126896309 14.505697866205258 #
edge $-1 $677 36.855760337957449 $680 42.840773844247686 $522 $747 forward 7 unknown #
vertex $-1 $536 $748 #
straight-curve $-1 -85.041457730856862 -3.3338510028085402 14.50569786620526 -1 0 0 I I #
edge $-1 $680 -0.47781989919888446 $533 8.1011617032137337 $532 $749 forward 7 unknown #
vertex $-1 $679 $750 #
straight-curve $-1 -69.063386944181616 -3.3338510028085402 8.5206843599150517 0.68199835119979291 0 0.73135370988377701 I I #
point $-1 -63.482271694425016 -3.3338510028085402 14.505697866205256 #
point $-1 -69.063386944181644 -11.912832605221158 8.5206843599150215 #
straight-curve $-1 -69.063386944181644 0 14.505697866205258 0 -1 0 I I #
vertex $-1 $539 $751 #
point $-1 -65.070017055961756 -9.4616950045318404 11.075214281777301 #
vertex $-1 $543 $752 #
point $-1 -65.070017055961756 -5.7849886034978617 11.075214281777301 #
coedge $-1 $558 $557 $550 $690 forward $547 $-1 #
edge $-1 $691 36.855760337957449 $694 42.840773844247686 $689 $753 forward 7 unknown #
vertex $-1 $562 $754 #
straight-curve $-1 -85.041457730856862 14.466910266154546 14.50569786620526 -1 0 0 I I #
edge $-1 $694 -9.3782005336804275 $559 -0.7992189312678093 $558 $755 forward 7 unknown #
vertex $-1 $693 $756 #
straight-curve $-1 -69.063386944181616 14.466910266154546 8.5206843599150517 0.68199835119979291 0 0.73135370988377701 I I #
point $-1 -63.482271694425016 14.466910266154546 14.505697866205256 #
point $-1 -69.063386944181644 5.8879286637419277 8.5206843599150215 #
straight-curve $-1 -69.063386944181644 0 14.505697866205258 0 -1 0 I I #
vertex $-1 $565 $757 #
point $-1 -65.070017055961756 8.3390662644312457 11.075214281777301 #
vertex $-1 $569 $758 #
point $-1 -65.070017055961756 12.015772665465228 11.075214281777301 #
coedge $-1 $584 $583 $576 $704 forward $573 $-1 #
edge $-1 $705 87.365524596723503 $708 93.350538103013747 $703 $759 forward 7 unknown #
vertex $-1 $588 $760 #
straight-curve $-1 37.940341706651679 -11.912832605221158 14.505697866205253 1 0 0 I I #
edge $-1 $708 -8.1011617032137337 $585 0.47781989919888446 $584 $761 forward 7 unknown #
vertex $-1 $707 $762 #
straight-curve $-1 -25.13884510422875 -11.912832605221158 109.54021287744715 -0.68199835119979291 0 0.73135370988377701 I I #
point $-1 63.482271694425023 -11.912832605221158 14.505697866205239 #
point $-1 69.063386944181644 -3.3338510028085402 8.5206843599150091 #
straight-curve $-1 69.063386944181644 0 14.505697866205258 0 1 0 I I #
vertex $-1 $591 $763 #
point $-1 65.752015407161551 -9.4616950045318404 10.343860571893527 #
vertex $-1 $595 $764 #
point $-1 65.752015407161551 -5.7849886034978617 10.343860571893527 #
edge $-1 $718 87.365524596723503 $721 93.350538103013747 $600 $765 forward 7 unknown #
vertex $-1 $614 $766 #
straight-curve $-1 37.940341706651679 5.8879286637419277 14.505697866205253 1 0 0 I I #
edge $-1 $721 0.7992189312678093 $611 9.3782005336804275 $610 $767 forward 7 unknown #
vertex $-1 $720 $768 #
straight-curve $-1 -25.13884510422875 5.8879286637419277 109.54021287744715 -0.68199835119979291 0 0.73135370988377701 I I #
point $-1 63.482271694425023 5.8879286637419277 14.505697866205239 #
point $-1 69.063386944181644 14.466910266154546 8.5206843599150091 #
straight-curve $-1 69.063386944181644 0 14.505697866205258 0 1 0 I I #
vertex $-1 $617 $769 #
point $-1 65.752015407161551 8.3390662644312457 10.343860571893527 #
vertex $-1 $621 $770 #
point $-1 65.752015407161551 12.015772665465228 10.343860571893527 #
straight-curve $-1 -69.063386944181644 32.558032302788426 0 0 0 -1 I I #
point $-1 -69.063386944181644 -32.558032302788426 -14.505697866205258 #
straight-curve $-1 -69.063386944181644 0 -14.505697866205258 0 1 0 I I #
point $-1 -69.063386944181644 32.558032302788426 -14.505697866205258 #
straight-curve $-1 -40.051991211771124 -12.589698392937878 14.505697866205258 0 1 0 I I #
straight-curve $-1 -40.051991211771124 -12.589698392937878 -14.505697866205258 0 -1 0 I I #
point $-1 -40.051991211771124 -32.558032302788426 -14.505697866205258 #
point $-1 -40.051991211771124 -32.558032302788426 14.505697866205258 #
straight-curve $-1 0 -32.558032302788426 -14.505697866205258 -1 0 0 I I #
straight-curve $-1 0 -32.558032302788426 14.505697866205258 1 0 0 I I #
vertex $-1 $742 $771 #
straight-curve $-1 -40.051991211771124 12.58969839293788 -14.505697866205258 0 -1 0 I I #
edge $-1 $743 -14.505697866205258 $740 14.505697866205258 $669 $772 forward 7 unknown #
vertex $-1 $670 $773 #
straight-curve $-1 -40.051991211771124 12.58969839293788 14.505697866205258 0 1 0 I I #
straight-curve $-1 0 32.558032302788426 14.505697866205258 -1 0 0 I I #
straight-curve $-1 0 32.558032302788426 -14.505697866205258 1 0 0 I I #
straight-curve $-1 -69.063386944181644 -3.3338510028085402 51.361458204162709 0 0 -1 I I #
point $-1 -69.063386944181644 -3.3338510028085402 14.505697866205258 #
straight-curve $-1 -69.063386944181644 -3.8116709020074246 8.5206843599150268 0 -1 0 I I #
point $-1 -69.063386944181644 -3.3338510028085402 8.5206843599150215 #
point $-1 -65.045339376619765 -9.4616950045318404 10.368538251235515 #
point $-1 -65.045339376619765 -5.7849886034978617 10.368538251235515 #
straight-curve $-1 -69.063386944181644 14.466910266154546 51.361458204162709 0 0 -1 I I #
point $-1 -69.063386944181644 14.466910266154546 14.505697866205258 #
straight-curve $-1 -69.063386944181644 5.0887097324741184 8.5206843599150268 0 -1 0 I I #
point $-1 -69.063386944181644 14.466910266154546 8.5206843599150215 #
point $-1 -65.045339376619765 8.3390662644312457 10.368538251235515 #
point $-1 -65.045339376619765 12.015772665465228 10.368538251235515 #
straight-curve $-1 69.063386944181644 -11.912832605221158 101.87122246292876 0 0 -1 I I #
point $-1 69.063386944181644 -11.912832605221158 14.505697866205258 #
straight-curve $-1 69.063386944181644 -3.8116709020074246 8.5206843599150162 0 1 0 I I #
point $-1 69.063386944181644 -11.912832605221158 8.5206843599150091 #
point $-1 65.045339376619765 -9.4616950045318404 10.368538251235519 #
point $-1 65.045339376619765 -5.7849886034978617 10.368538251235519 #
straight-curve $-1 69.063386944181644 5.8879286637419277 101.87122246292876 0 0 -1 I I #
point $-1 69.063386944181644 5.8879286637419277 14.505697866205258 #
straight-curve $-1 69.063386944181644 5.0887097324741184 8.5206843599150162 0 1 0 I I #
point $-1 69.063386944181644 5.8879286637419277 8.5206843599150091 #
point $-1 65.045339376619765 8.3390662644312457 10.368538251235519 #
point $-1 65.045339376619765 12.015772665465228 10.368538251235519 #
point $-1 -40.051991211771124 32.558032302788433 -14.505697866205258 #
straight-curve $-1 -40.051991211771124 32.558032302788426 0 0 0 -1 I I #
point $-1 -40.051991211771124 32.558032302788433 14.505697866205258 #
End-of-ACIS-data 