500 0 5 0           
7 Unknown 11 ACIS 5.0 NT 24 Thu Mar 25 23:31:12 1999 
-1 9.9999999999999995e-007 1e-010 
body $-1 $5 $-1 $6 #
body $-1 $7 $-1 $8 #
body $-1 $9 $-1 $10 #
body $-1 $11 $-1 $12 #
body $-1 $13 $-1 $14 #
lump $-1 $-1 $15 $0 #
transform $-1 1 0 0 0 1 0 0 0 1 76.694235053559993 43.83300113280233 10.003454160316656 1 rotate no_reflect no_shear #
lump $-1 $-1 $16 $1 #
transform $-1 1 0 0 0 1 0 0 0 1 76.694235053559993 43.83300113280233 10.003454160316656 1 rotate no_reflect no_shear #
lump $-1 $-1 $17 $2 #
transform $-1 1 0 0 0 1 0 0 0 1 76.694235053559993 43.83300113280233 10.003454160316656 1 rotate no_reflect no_shear #
lump $-1 $-1 $18 $3 #
transform $-1 1 0 0 0 1 0 0 0 1 76.694235053559993 43.83300113280233 10.003454160316656 1 rotate no_reflect no_shear #
lump $-1 $-1 $19 $4 #
transform $-1 1 0 0 0 1 0 0 0 1 76.694235053559993 43.83300113280233 10.003454160316656 1 rotate no_reflect no_shear #
shell $-1 $-1 $-1 $20 $-1 $5 #
shell $-1 $-1 $-1 $21 $-1 $7 #
shell $-1 $-1 $-1 $22 $-1 $9 #
shell $-1 $-1 $-1 $23 $-1 $11 #
shell $-1 $-1 $-1 $24 $-1 $13 #
face $-1 $25 $26 $15 $-1 $27 forward single #
face $-1 $28 $29 $16 $-1 $30 forward single #
face $-1 $31 $32 $17 $-1 $33 reversed single #
face $-1 $34 $35 $18 $-1 $36 forward single #
face $-1 $37 $38 $19 $-1 $39 forward single #
face $-1 $40 $41 $15 $-1 $42 reversed single #
loop $-1 $-1 $43 $20 #
plane-surface $-1 0 0 10.003454160316656 0 0 1 1 0 0 forward_v I I I I #
face $-1 $44 $45 $16 $-1 $46 reversed single #
loop $-1 $-1 $47 $21 #
plane-surface $-1 0 -38.856961196204566 -5.9839382398612848 0 0 1 1 0 0 forward_v I I I I #
face $-1 $48 $49 $17 $-1 $50 reversed single #
loop $-1 $-1 $51 $22 #
plane-surface $-1 28.387863176805887 47.689474376605922 179.44088370206924 1 0 0 0 -0.51503808176128008 -0.85716729658548041 forward_v I I I I #
face $-1 $52 $53 $18 $-1 $54 forward single #
loop $-1 $55 $56 $23 #
cone-surface $-1 41.524478975323746 35.41679100535309 2.3621331984944272 0 -0.51503808176128008 -0.85716729658548041 3 0 0 1 I I 0 1 3 forward I I I I #
face $-1 $57 $58 $19 $-1 $59 forward single #
loop $-1 $60 $61 $24 #
cone-surface $-1 61.229402673100537 35.41679100535309 2.3621331984944272 0 -0.51503808176128008 -0.85716729658548041 3 0 0 1 I I 0 1 3 forward I I I I #
face $-1 $62 $63 $15 $-1 $64 reversed single #
loop $-1 $-1 $65 $25 #
plane-surface $-1 0 0 -10.003454160316656 0 0 1 1 0 0 forward_v I I I I #
coedge $-1 $66 $67 $68 $69 forward $26 $-1 #
face $-1 $70 $71 $16 $-1 $72 reversed single #
loop $-1 $-1 $73 $28 #
plane-surface $-1 0 -33.880921259606801 -7.9936962000889702 0 -1 0 0 0 -1 forward_v I I I I #
coedge $-1 $74 $75 $76 $77 reversed $29 $-1 #
face $-1 $78 $79 $17 $-1 $80 reversed single #
loop $-1 $-1 $81 $31 #
plane-surface $-1 51.376940824212141 -31.311429031662605 47.961303452966433 0 0.51503808176128008 0.85716729658548041 1 0 0 forward_v I I I I #
coedge $-1 $82 $83 $84 $85 reversed $32 $-1 #
face $-1 $-1 $86 $18 $-1 $87 forward single #
loop $-1 $88 $89 $34 #
cone-surface $-1 41.524478975323746 32.21400452340712 -2.9681985332523677 0 -0.51503808176128008 -0.85716729658548041 1.5 0 0 1 I I -0.70710678118654757 0.70710678118654757 1.5 forward I I I I #
loop $-1 $-1 $90 $23 #
coedge $-1 $56 $56 $91 $92 reversed $35 $-1 #
face $-1 $-1 $93 $19 $-1 $94 forward single #
loop $-1 $95 $96 $37 #
cone-surface $-1 61.229402673100537 32.21400452340712 -2.9681985332523677 0 -0.51503808176128008 -0.85716729658548041 1.5 0 0 1 I I -0.70710678118654757 0.70710678118654757 1.5 forward I I I I #
loop $-1 $-1 $97 $24 #
coedge $-1 $61 $61 $98 $99 reversed $38 $-1 #
face $-1 $100 $101 $15 $-1 $102 reversed single #
loop $-1 $-1 $103 $40 #
plane-surface $-1 0 -43.83300113280233 0 0 1 0 0 0 1 forward_v I I I I #
coedge $-1 $104 $105 $106 $107 forward $41 $-1 #
coedge $-1 $108 $43 $109 $110 forward $26 $-1 #
coedge $-1 $43 $108 $111 $112 forward $26 $-1 #
coedge $-1 $113 $114 $43 $69 reversed $115 $-1 #
edge $-1 $116 -43.83300113280233 $117 43.83300113280233 $68 $118 forward 7 unknown #
face $-1 $119 $120 $16 $-1 $121 reversed single #
loop $-1 $-1 $122 $44 #
plane-surface $-1 0 0 -10.003454160316656 0 0 1 1 0 0 forward_v I I I I #
coedge $-1 $123 $124 $125 $126 reversed $45 $-1 #
coedge $-1 $127 $47 $124 $128 forward $29 $-1 #
coedge $-1 $47 $127 $129 $130 reversed $29 $-1 #
coedge $-1 $131 $125 $47 $77 forward $120 $-1 #
edge $-1 $132 14.452440661504518 $133 24.404520534700048 $76 $134 forward 7 unknown #
face $-1 $135 $136 $17 $-1 $137 reversed single #
loop $-1 $-1 $138 $48 #
plane-surface $-1 74.366018471618389 47.689474376605922 179.44088370206924 -1 0 0 0 0.51503808176128008 0.85716729658548041 forward_v I I I I #
coedge $-1 $139 $140 $141 $142 reversed $49 $-1 #
coedge $-1 $83 $51 $143 $144 reversed $32 $-1 #
coedge $-1 $51 $82 $139 $145 reversed $32 $-1 #
coedge $-1 $141 $146 $51 $85 forward $147 $-1 #
edge $-1 $148 -19.988263944499369 $149 -8.0163024082090537 $84 $150 forward 7 unknown #
loop $-1 $-1 $91 $52 #
plane-surface $-1 51.376940824212141 -31.311429031662605 47.961303452966433 0 0.51503808176128008 0.85716729658548041 1 0 0 forward_v I I I I #
loop $-1 $-1 $151 $34 #
coedge $-1 $89 $89 $90 $152 reversed $53 $-1 #
coedge $-1 $90 $90 $89 $152 forward $55 $-1 #
coedge $-1 $91 $91 $56 $92 forward $86 $-1 #
edge $-1 $153 1.2765066385484629e-015 $153 6.2831853071796013 $91 $154 forward 7 unknown #
loop $-1 $-1 $98 $57 #
plane-surface $-1 51.376940824212141 -31.311429031662605 47.961303452966433 0 0.51503808176128008 0.85716729658548041 1 0 0 forward_v I I I I #
loop $-1 $-1 $155 $37 #
coedge $-1 $96 $96 $97 $156 reversed $58 $-1 #
coedge $-1 $97 $97 $96 $156 forward $60 $-1 #
coedge $-1 $98 $98 $61 $99 forward $93 $-1 #
edge $-1 $157 1.2765066385484629e-015 $157 6.2831853071796013 $98 $158 forward 7 unknown #
face $-1 $159 $160 $15 $-1 $161 reversed single #
loop $-1 $-1 $162 $62 #
plane-surface $-1 -76.694235053559993 0 0 1 0 0 0 0 -1 forward_v I I I I #
coedge $-1 $163 $111 $164 $165 forward $63 $-1 #
coedge $-1 $166 $65 $163 $167 forward $41 $-1 #
coedge $-1 $65 $166 $168 $169 forward $41 $-1 #
coedge $-1 $114 $113 $65 $107 reversed $115 $-1 #
edge $-1 $170 -43.83300113280233 $171 43.83300113280233 $106 $172 forward 7 unknown #
coedge $-1 $67 $66 $173 $174 forward $26 $-1 #
coedge $-1 $175 $176 $66 $110 reversed $160 $-1 #
edge $-1 $117 -76.694235053559993 $177 76.694235053559993 $109 $178 forward 7 unknown #
coedge $-1 $103 $179 $67 $112 reversed $63 $-1 #
edge $-1 $180 -76.694235053559993 $116 76.694235053559993 $111 $181 forward 7 unknown #
coedge $-1 $106 $68 $179 $182 forward $115 $-1 #
coedge $-1 $68 $106 $175 $183 reversed $115 $-1 #
loop $-1 $-1 $113 $159 #
vertex $-1 $69 $184 #
vertex $-1 $69 $185 #
straight-curve $-1 76.694235053559993 0 10.003454160316656 0 1 0 I I #
face $-1 $186 $187 $16 $-1 $188 reversed single #
loop $-1 $-1 $125 $70 #
plane-surface $-1 76.694235053559993 0 0 -1 0 0 0 0 1 forward_v I I I I #
coedge $-1 $189 $190 $123 $191 forward $71 $-1 #
coedge $-1 $192 $73 $122 $191 reversed $45 $-1 #
coedge $-1 $73 $192 $74 $128 reversed $45 $-1 #
coedge $-1 $76 $193 $73 $126 forward $120 $-1 #
edge $-1 $194 -6.0066060602721709 $132 -1.9870901398167997 $125 $195 forward 7 unknown #
coedge $-1 $75 $74 $196 $197 reversed $29 $-1 #
edge $-1 $132 -76.694235053559993 $198 76.694235053559993 $124 $199 forward 7 unknown #
coedge $-1 $200 $201 $75 $130 forward $187 $-1 #
edge $-1 $133 -76.694235053559993 $202 76.694235053559993 $129 $203 forward 7 unknown #
coedge $-1 $193 $76 $201 $204 forward $120 $-1 #
vertex $-1 $77 $205 #
vertex $-1 $204 $206 #
straight-curve $-1 76.694235053559993 -19.428480598102283 -5.9839382398612848 0 -1 0 I I #
face $-1 $-1 $147 $17 $-1 $207 forward single #
loop $-1 $-1 $208 $78 #
plane-surface $-1 0 43.83300113280233 0 0 -1 0 0 0 -1 forward_v I I I I #
coedge $-1 $209 $210 $211 $212 reversed $79 $-1 #
coedge $-1 $213 $81 $83 $145 forward $49 $-1 #
coedge $-1 $81 $213 $209 $214 forward $49 $-1 #
coedge $-1 $211 $84 $81 $142 forward $147 $-1 #
edge $-1 $149 2.6993927646998159 $215 48.677548059512318 $141 $216 forward 7 unknown #
coedge $-1 $217 $218 $82 $144 forward $136 $-1 #
edge $-1 $219 -86.910468040625233 $148 -79.716987690717971 $143 $220 forward 7 unknown #
edge $-1 $149 73.699112040113619 $219 87.666002265604632 $83 $221 forward 7 unknown #
coedge $-1 $84 $211 $217 $222 forward $147 $-1 #
loop $-1 $-1 $211 $135 #
vertex $-1 $144 $223 #
vertex $-1 $85 $224 #
straight-curve $-1 28.387863176805887 23.844737188302961 10.00345416031665 0 -1 0 I I #
coedge $-1 $151 $151 $-1 $225 reversed $88 $-1 #
edge $-1 $226 0 $226 6.2831853071796004 $89 $227 forward 7 unknown #
vertex $-1 $92 $228 #
ellipse-curve $-1 41.524478975323746 37.847020364657162 6.4067139853630328 0 0.51503808176128008 0.85716729658548041 3 0 0 1 I I #
coedge $-1 $155 $155 $-1 $229 reversed $95 $-1 #
edge $-1 $230 0 $230 6.2831853071796004 $96 $231 forward 7 unknown #
vertex $-1 $99 $232 #
ellipse-curve $-1 61.229402673100537 37.847020364657162 6.4067139853630328 0 0.51503808176128008 0.85716729658548041 3 0 0 1 I I #
face $-1 $-1 $115 $15 $-1 $233 reversed single #
loop $-1 $-1 $175 $100 #
plane-surface $-1 0 43.83300113280233 0 0 -1 0 0 0 -1 forward_v I I I I #
coedge $-1 $234 $173 $176 $235 forward $101 $-1 #
coedge $-1 $179 $103 $104 $167 reversed $63 $-1 #
coedge $-1 $173 $234 $103 $165 reversed $101 $-1 #
edge $-1 $180 -10.003454160316656 $236 10.003454160316656 $164 $237 forward 7 unknown #
coedge $-1 $105 $104 $234 $238 forward $41 $-1 #
edge $-1 $171 -76.694235053559993 $236 76.694235053559993 $163 $239 forward 7 unknown #
coedge $-1 $176 $175 $105 $169 reversed $160 $-1 #
edge $-1 $240 -76.694235053559993 $170 76.694235053559993 $168 $241 forward 7 unknown #
vertex $-1 $107 $242 #
vertex $-1 $182 $243 #
straight-curve $-1 76.694235053559993 0 -10.003454160316656 0 -1 0 I I #
coedge $-1 $162 $164 $108 $174 reversed $101 $-1 #
edge $-1 $177 -43.83300113280233 $180 43.83300113280233 $173 $244 forward 7 unknown #
coedge $-1 $168 $109 $114 $183 forward $160 $-1 #
coedge $-1 $109 $168 $162 $235 reversed $160 $-1 #
vertex $-1 $110 $245 #
straight-curve $-1 0 43.83300113280233 10.003454160316656 -1 0 0 I I #
coedge $-1 $111 $163 $113 $182 reversed $63 $-1 #
vertex $-1 $174 $246 #
straight-curve $-1 0 -43.83300113280233 10.003454160316656 1 0 0 I I #
edge $-1 $116 -10.003454160316656 $171 10.003454160316656 $113 $247 forward 7 unknown #
edge $-1 $117 -10.003454160316656 $170 10.003454160316656 $114 $248 forward 7 unknown #
point $-1 76.694235053559993 -43.83300113280233 10.003454160316656 #
point $-1 76.694235053559993 43.83300113280233 10.003454160316656 #
face $-1 $-1 $249 $16 $-1 $250 reversed single #
loop $-1 $-1 $129 $119 #
plane-surface $-1 0 -43.83300113280233 0 0 1 0 0 0 1 forward_v I I I I #
coedge $-1 $251 $122 $193 $252 forward $71 $-1 #
coedge $-1 $122 $251 $253 $254 forward $71 $-1 #
edge $-1 $255 -76.694235053559993 $194 76.694235053559993 $122 $256 forward 7 unknown #
coedge $-1 $124 $123 $257 $258 reversed $45 $-1 #
coedge $-1 $125 $131 $189 $252 reversed $120 $-1 #
vertex $-1 $252 $259 #
straight-curve $-1 76.694235053559993 -33.880921259606801 -3.9968481000444851 0 0 1 I I #
coedge $-1 $257 $260 $127 $197 forward $249 $-1 #
edge $-1 $202 -24.404520534700048 $198 -14.452440661504518 $196 $261 forward 7 unknown #
vertex $-1 $197 $262 #
straight-curve $-1 0 -33.880921259606801 -5.9839382398612848 -1 0 0 I I #
coedge $-1 $263 $129 $260 $264 forward $187 $-1 #
coedge $-1 $129 $263 $131 $204 reversed $187 $-1 #
vertex $-1 $264 $265 #
straight-curve $-1 0 -43.83300113280233 -5.9839382398612848 -1 0 0 I I #
edge $-1 $133 5.9839382398612848 $266 10.003454160316656 $131 $267 forward 7 unknown #
point $-1 76.694235053559993 -33.880921259606801 -5.9839382398612848 #
point $-1 76.694235053559993 -43.83300113280233 -5.9839382398612848 #
plane-surface $-1 0 0 10.003454160316656 0 0 1 1 0 0 forward_v I I I I #
coedge $-1 $218 $217 $210 $268 forward $136 $-1 #
coedge $-1 $210 $138 $140 $214 reversed $79 $-1 #
coedge $-1 $138 $209 $208 $268 reversed $79 $-1 #
coedge $-1 $146 $141 $138 $212 forward $147 $-1 #
edge $-1 $215 8.0163024082090537 $269 19.988263944499369 $211 $270 forward 7 unknown #
coedge $-1 $140 $139 $218 $271 reversed $49 $-1 #
edge $-1 $272 -87.666002265604632 $215 -73.699112040113619 $209 $273 forward 7 unknown #
vertex $-1 $142 $274 #
straight-curve $-1 25.688470412106071 31.861039596512022 10.003454160316654 1 0 0 I I #
coedge $-1 $208 $143 $146 $222 reversed $136 $-1 #
coedge $-1 $143 $208 $213 $271 forward $136 $-1 #
vertex $-1 $144 $275 #
straight-curve $-1 28.387863176805887 43.83300113280233 89.720441851034622 0 0 1 I I #
straight-curve $-1 28.387863176805887 -31.311429031662605 47.961303452966433 0 0.85716729658548041 -0.51503808176128008 I I #
edge $-1 $269 -74.366018471618389 $148 -28.387863176805887 $217 $276 forward 7 unknown #
point $-1 28.387863176805887 43.83300113280233 10.003454160316656 #
point $-1 28.387863176805887 31.861039596512015 10.003454160316657 #
edge $-1 $277 1 $277 0 $151 $-1 forward 7 unknown #
vertex $-1 $152 $278 #
ellipse-curve $-1 41.524478975323746 32.98656164604904 -1.682447588374147 0 0.51503808176128008 0.85716729658548041 3 0 0 1 I I #
point $-1 44.524478975323746 37.847020364657148 6.4067139853630017 #
edge $-1 $279 1 $279 0 $155 $-1 forward 7 unknown #
vertex $-1 $156 $280 #
ellipse-curve $-1 61.229402673100537 32.98656164604904 -1.682447588374147 0 0.51503808176128008 0.85716729658548041 3 0 0 1 I I #
point $-1 64.229402673100537 37.847020364657148 6.4067139853630017 #
plane-surface $-1 76.694235053559993 0 0 -1 0 0 0 0 1 forward_v I I I I #
coedge $-1 $164 $162 $166 $238 reversed $101 $-1 #
edge $-1 $177 -10.003454160316656 $240 10.003454160316656 $176 $281 forward 7 unknown #
vertex $-1 $238 $282 #
straight-curve $-1 -76.694235053559993 -43.83300113280233 0 0 0 -1 I I #
edge $-1 $236 -43.83300113280233 $240 43.83300113280233 $234 $283 forward 7 unknown #
straight-curve $-1 0 -43.83300113280233 -10.003454160316656 -1 0 0 I I #
vertex $-1 $169 $284 #
straight-curve $-1 0 43.83300113280233 -10.003454160316656 1 0 0 I I #
point $-1 76.694235053559993 43.83300113280233 -10.003454160316656 #
point $-1 76.694235053559993 -43.83300113280233 -10.003454160316656 #
straight-curve $-1 -76.694235053559993 0 10.003454160316656 0 -1 0 I I #
point $-1 -76.694235053559993 43.83300113280233 10.003454160316656 #
point $-1 -76.694235053559993 -43.83300113280233 10.003454160316656 #
straight-curve $-1 76.694235053559993 -43.83300113280233 0 0 0 -1 I I #
straight-curve $-1 76.694235053559993 43.83300113280233 0 0 0 -1 I I #
loop $-1 $-1 $257 $186 #
plane-surface $-1 -76.694235053559993 0 0 1 0 0 0 0 -1 forward_v I I I I #
coedge $-1 $190 $189 $263 $285 forward $71 $-1 #
edge $-1 $194 33.880921259606801 $266 43.83300113280233 $193 $286 forward 7 unknown #
coedge $-1 $260 $257 $190 $254 reversed $249 $-1 #
edge $-1 $287 -43.83300113280233 $255 -33.880921259606801 $253 $288 forward 7 unknown #
vertex $-1 $258 $289 #
straight-curve $-1 0 -33.880921259606801 -10.003454160316656 1 0 0 I I #
coedge $-1 $253 $196 $192 $258 forward $249 $-1 #
edge $-1 $198 1.9870901398167997 $255 6.0066060602721709 $257 $290 forward 7 unknown #
point $-1 76.694235053559993 -33.880921259606801 -10.003454160316656 #
coedge $-1 $196 $253 $200 $264 reversed $249 $-1 #
straight-curve $-1 -76.694235053559993 -19.428480598102283 -5.9839382398612848 0 1 0 I I #
point $-1 -76.694235053559993 -33.880921259606801 -5.9839382398612848 #
coedge $-1 $201 $200 $251 $285 reversed $187 $-1 #
edge $-1 $202 5.9839382398612848 $287 10.003454160316656 $260 $291 forward 7 unknown #
point $-1 -76.694235053559993 -43.83300113280233 -5.9839382398612848 #
vertex $-1 $204 $292 #
straight-curve $-1 76.694235053559993 -43.83300113280233 0 0 0 -1 I I #
edge $-1 $269 79.716987690717971 $272 86.910468040625233 $208 $293 forward 7 unknown #
vertex $-1 $222 $294 #
straight-curve $-1 74.366018471618389 23.844737188302961 10.00345416031665 0 1 0 I I #
edge $-1 $272 -48.677548059512318 $219 -2.6993927646998159 $218 $295 forward 7 unknown #
vertex $-1 $271 $296 #
straight-curve $-1 74.366018471618389 -31.311429031662605 47.961303452966433 0 -0.85716729658548041 0.51503808176128008 I I #
point $-1 74.366018471618389 31.861039596512015 10.003454160316657 #
point $-1 28.387863176805887 43.83300113280233 2.8099738104093817 #
straight-curve $-1 0 43.83300113280233 10.003454160316656 -1 0 0 I I #
vertex $-1 $225 $297 #
point $-1 44.524478975323746 32.98656164604904 -1.682447588374147 #
vertex $-1 $229 $298 #
point $-1 64.229402673100537 32.98656164604904 -1.682447588374147 #
straight-curve $-1 -76.694235053559993 43.83300113280233 0 0 0 -1 I I #
point $-1 -76.694235053559993 -43.83300113280233 -10.003454160316656 #
straight-curve $-1 -76.694235053559993 0 -10.003454160316656 0 1 0 I I #
point $-1 -76.694235053559993 43.83300113280233 -10.003454160316656 #
edge $-1 $266 -76.694235053559993 $287 76.694235053559993 $263 $299 forward 7 unknown #
straight-curve $-1 76.694235053559993 0 -10.003454160316656 0 -1 0 I I #
vertex $-1 $254 $300 #
straight-curve $-1 -76.694235053559993 0 -10.003454160316656 0 1 0 I I #
point $-1 -76.694235053559993 -33.880921259606801 -10.003454160316656 #
straight-curve $-1 -76.694235053559993 -33.880921259606801 -3.9968481000444851 0 0 -1 I I #
straight-curve $-1 -76.694235053559993 -43.83300113280233 0 0 0 -1 I I #
point $-1 76.694235053559993 -43.83300113280233 -10.003454160316656 #
straight-curve $-1 74.366018471618389 43.83300113280233 89.720441851034622 0 0 -1 I I #
point $-1 74.366018471618389 43.83300113280233 10.003454160316656 #
straight-curve $-1 25.688470412106071 43.83300113280233 2.8099738104093817 -1 0 0 I I #
point $-1 74.366018471618389 43.83300113280233 2.8099738104093817 #
point $-1 41.524478975323746 31.441447400765199 -4.253949478130588 #
point $-1 61.229402673100537 31.441447400765199 -4.253949478130588 #
straight-curve $-1 0 -43.83300113280233 -10.003454160316656 -1 0 0 I I #
point $-1 -76.694235053559993 -43.83300113280233 -10.003454160316656 #
End-of-ACIS-data 