500 0 8 0           
7 Unknown 11 ACIS 5.0 NT 24 Thu Mar 25 16:36:44 1999 
-1 9.9999999999999995e-007 1e-010 
body $-1 $8 $-1 $9 #
body $-1 $10 $-1 $11 #
body $-1 $12 $-1 $13 #
body $-1 $14 $-1 $15 #
body $-1 $16 $-1 $17 #
body $-1 $18 $-1 $19 #
body $-1 $20 $-1 $21 #
body $-1 $22 $-1 $23 #
lump $-1 $-1 $24 $0 #
transform $-1 1 0 0 0 1 0 0 0 1 71.458479567857907 41.432048221379688 15.735377791404751 1 rotate no_reflect no_shear #
lump $-1 $-1 $25 $1 #
transform $-1 1 0 0 0 1 0 0 0 1 71.458479567857907 41.432048221379688 15.735377791404751 1 rotate no_reflect no_shear #
lump $-1 $-1 $26 $2 #
transform $-1 1 0 0 0 1 0 0 0 1 71.458479567857907 41.432048221379688 15.735377791404751 1 rotate no_reflect no_shear #
lump $-1 $-1 $27 $3 #
transform $-1 1 0 0 0 1 0 0 0 1 71.458479567857907 41.432048221379688 15.735377791404751 1 rotate no_reflect no_shear #
lump $-1 $-1 $28 $4 #
transform $-1 1 0 0 0 1 0 0 0 1 71.458479567857907 41.432048221379688 15.735377791404751 1 rotate no_reflect no_shear #
lump $-1 $-1 $29 $5 #
transform $-1 1 0 0 0 1 0 0 0 1 71.458479567857907 41.432048221379688 15.735377791404751 1 rotate no_reflect no_shear #
lump $-1 $-1 $30 $6 #
transform $-1 1 0 0 0 1 0 0 0 1 71.458479567857907 41.432048221379688 15.735377791404751 1 rotate no_reflect no_shear #
lump $-1 $-1 $31 $7 #
transform $-1 1 0 0 0 1 0 0 0 1 71.458479567857907 41.432048221379688 15.735377791404751 1 rotate no_reflect no_shear #
shell $-1 $-1 $-1 $32 $-1 $8 #
shell $-1 $-1 $-1 $33 $-1 $10 #
shell $-1 $-1 $-1 $34 $-1 $12 #
shell $-1 $-1 $-1 $35 $-1 $14 #
shell $-1 $-1 $-1 $36 $-1 $16 #
shell $-1 $-1 $-1 $37 $-1 $18 #
shell $-1 $-1 $-1 $38 $-1 $20 #
shell $-1 $-1 $-1 $39 $-1 $22 #
face $-1 $40 $41 $24 $-1 $42 forward single #
face $-1 $43 $44 $25 $-1 $45 reversed single #
face $-1 $46 $47 $26 $-1 $48 reversed single #
face $-1 $49 $50 $27 $-1 $51 forward single #
face $-1 $52 $53 $28 $-1 $54 forward single #
face $-1 $55 $56 $29 $-1 $57 reversed single #
face $-1 $58 $59 $30 $-1 $60 forward single #
face $-1 $61 $62 $31 $-1 $63 forward single #
face $-1 $64 $65 $24 $-1 $66 reversed single #
loop $-1 $-1 $67 $32 #
plane-surface $-1 0 0 15.735377791404751 0 0 1 1 0 0 forward_v I I I I #
face $-1 $68 $69 $25 $-1 $70 reversed single #
loop $-1 $-1 $71 $33 #
plane-surface $-1 -49.038819707477629 -35.928925548238233 0 1 0 0 0 0 -1 forward_v I I I I #
face $-1 $72 $73 $26 $-1 $74 reversed single #
loop $-1 $-1 $75 $34 #
plane-surface $-1 -40.24678000502999 103.03591908078852 158.52391031085563 -1 0 0 0 0.78801076186113728 0.61566146476048833 forward_v I I I I #
face $-1 $76 $77 $27 $-1 $78 forward single #
loop $-1 $79 $80 $35 #
cone-surface $-1 -62.540851121335649 34.406187658907754 8.2012537195819188 0 -0.78801076186113728 -0.61566146476048833 2 0 0 1 I I 0 1 2 forward I I I I #
face $-1 $81 $82 $28 $-1 $83 forward single #
loop $-1 $84 $85 $36 #
cone-surface $-1 -49.164408451552255 34.406187658907754 8.2012537195819188 0 -0.78801076186113728 -0.61566146476048833 2 0 0 1 I I 0 1 2 forward I I I I #
face $-1 $86 $87 $29 $-1 $88 reversed single #
loop $-1 $-1 $89 $37 #
plane-surface $-1 31.211699562827924 103.03591908078852 158.52391031085563 -1 0 0 0 0.78801076186113728 0.61566146476048833 forward_v I I I I #
face $-1 $90 $91 $30 $-1 $92 forward single #
loop $-1 $93 $94 $38 #
cone-surface $-1 8.9176284465222579 34.406187658907754 8.2012537195819188 0 -0.78801076186113728 -0.61566146476048833 2 0 0 1 I I 0 1 2 forward I I I I #
face $-1 $95 $96 $31 $-1 $97 forward single #
loop $-1 $98 $99 $39 #
cone-surface $-1 22.294071116305659 34.406187658907754 8.2012537195819188 0 -0.78801076186113728 -0.61566146476048833 2 0 0 1 I I 0 1 2 forward I I I I #
face $-1 $100 $101 $24 $-1 $102 reversed single #
loop $-1 $-1 $103 $40 #
plane-surface $-1 0 0 -15.735377791404751 0 0 1 1 0 0 forward_v I I I I #
coedge $-1 $104 $105 $106 $107 forward $41 $-1 #
face $-1 $108 $109 $25 $-1 $110 reversed single #
loop $-1 $-1 $111 $43 #
plane-surface $-1 -44.513271846263017 -30.425802875096778 0 0 -1 0 0 0 -1 forward_v I I I I #
coedge $-1 $112 $113 $114 $115 forward $44 $-1 #
face $-1 $116 $117 $26 $-1 $118 reversed single #
loop $-1 $-1 $119 $46 #
plane-surface $-1 -55.852629786443948 -9.5841827706239258 70.535445910245969 0 0.78801076186113728 0.61566146476048833 1 0 0 forward_v I I I I #
coedge $-1 $120 $121 $122 $123 reversed $47 $-1 #
face $-1 $-1 $124 $27 $-1 $125 forward single #
loop $-1 $126 $127 $49 #
cone-surface $-1 -62.540851121335649 30.693179645760736 5.30033400797479 0 -0.78801076186113728 -0.61566146476048833 1 0 0 1 I I -0.70710678118654746 0.70710678118654746 1 forward I I I I #
loop $-1 $-1 $128 $35 #
coedge $-1 $80 $80 $129 $130 reversed $50 $-1 #
face $-1 $-1 $131 $28 $-1 $132 forward single #
loop $-1 $133 $134 $52 #
cone-surface $-1 -49.164408451552255 30.693179645760736 5.30033400797479 0 -0.78801076186113728 -0.61566146476048833 1 0 0 1 I I -0.70710678118654746 0.70710678118654746 1 forward I I I I #
loop $-1 $-1 $135 $36 #
coedge $-1 $85 $85 $136 $137 reversed $53 $-1 #
face $-1 $138 $139 $29 $-1 $140 reversed single #
loop $-1 $-1 $141 $55 #
plane-surface $-1 15.605849781413966 -9.5841827706239258 70.535445910245969 0 0.78801076186113728 0.61566146476048833 1 0 0 forward_v I I I I #
coedge $-1 $142 $143 $144 $145 reversed $56 $-1 #
face $-1 $-1 $146 $30 $-1 $147 forward single #
loop $-1 $148 $149 $58 #
cone-surface $-1 8.9176284465222579 30.693179645760736 5.30033400797479 0 -0.78801076186113728 -0.61566146476048833 1 0 0 1 I I -0.70710678118654746 0.70710678118654746 1 forward I I I I #
loop $-1 $-1 $150 $38 #
coedge $-1 $94 $94 $151 $152 reversed $59 $-1 #
face $-1 $-1 $153 $31 $-1 $154 forward single #
loop $-1 $155 $156 $61 #
cone-surface $-1 22.294071116305659 30.693179645760736 5.30033400797479 0 -0.78801076186113728 -0.61566146476048833 1 0 0 1 I I -0.70710678118654746 0.70710678118654746 1 forward I I I I #
loop $-1 $-1 $157 $39 #
coedge $-1 $99 $99 $158 $159 reversed $62 $-1 #
face $-1 $160 $161 $24 $-1 $162 reversed single #
loop $-1 $-1 $163 $64 #
plane-surface $-1 0 -41.432048221379688 0 0 1 0 0 0 1 forward_v I I I I #
coedge $-1 $164 $165 $166 $167 forward $65 $-1 #
coedge $-1 $168 $67 $169 $170 forward $41 $-1 #
coedge $-1 $67 $168 $171 $172 forward $41 $-1 #
coedge $-1 $173 $174 $67 $107 reversed $175 $-1 #
edge $-1 $176 -41.432048221379688 $177 41.432048221379688 $106 $178 forward 7 unknown #
face $-1 $179 $180 $25 $-1 $181 forward single #
loop $-1 $-1 $182 $68 #
plane-surface $-1 -39.987723985048405 -35.928925548238233 0 -1 0 0 0 0 1 forward_v I I I I #
coedge $-1 $183 $184 $185 $186 forward $69 $-1 #
coedge $-1 $187 $71 $188 $189 reversed $44 $-1 #
coedge $-1 $71 $187 $190 $191 reversed $44 $-1 #
coedge $-1 $184 $183 $71 $115 reversed $69 $-1 #
edge $-1 $192 -15.735377791404751 $193 15.735377791404751 $114 $194 forward 7 unknown #
face $-1 $195 $196 $26 $-1 $197 reversed single #
loop $-1 $-1 $122 $72 #
plane-surface $-1 0 41.432048221379688 0 0 -1 0 0 0 -1 forward_v I I I I #
coedge $-1 $198 $199 $200 $201 reversed $73 $-1 #
coedge $-1 $121 $75 $202 $203 reversed $47 $-1 #
coedge $-1 $75 $120 $198 $204 reversed $47 $-1 #
coedge $-1 $200 $205 $75 $123 forward $117 $-1 #
edge $-1 $206 63.526577364023062 $207 74.024309013975426 $122 $208 forward 7 unknown #
loop $-1 $-1 $129 $76 #
plane-surface $-1 -55.852629786443948 -9.5841827706239258 70.535445910245969 0 0.78801076186113728 0.61566146476048833 1 0 0 forward_v I I I I #
loop $-1 $-1 $209 $49 #
coedge $-1 $127 $127 $128 $210 reversed $77 $-1 #
coedge $-1 $128 $128 $127 $210 forward $79 $-1 #
coedge $-1 $129 $129 $80 $130 forward $124 $-1 #
edge $-1 $211 6.9989415317651662e-016 $211 6.2831853071796013 $129 $212 forward 7 unknown #
loop $-1 $-1 $136 $81 #
plane-surface $-1 -55.852629786443948 -9.5841827706239258 70.535445910245969 0 0.78801076186113728 0.61566146476048833 1 0 0 forward_v I I I I #
loop $-1 $-1 $213 $52 #
coedge $-1 $134 $134 $135 $214 reversed $82 $-1 #
coedge $-1 $135 $135 $134 $214 forward $84 $-1 #
coedge $-1 $136 $136 $85 $137 forward $131 $-1 #
edge $-1 $215 6.9989415317651662e-016 $215 6.2831853071796013 $136 $216 forward 7 unknown #
face $-1 $217 $218 $29 $-1 $219 reversed single #
loop $-1 $-1 $220 $86 #
plane-surface $-1 7.1054273576010019e-015 103.03591908078852 158.52391031085563 1 0 0 0 -0.78801076186113728 -0.61566146476048833 forward_v I I I I #
coedge $-1 $221 $222 $223 $224 reversed $87 $-1 #
coedge $-1 $143 $89 $225 $226 reversed $56 $-1 #
coedge $-1 $89 $142 $221 $227 reversed $56 $-1 #
coedge $-1 $223 $228 $89 $145 forward $218 $-1 #
edge $-1 $229 63.526577364023062 $230 74.024309013975426 $144 $231 forward 7 unknown #
loop $-1 $-1 $151 $90 #
plane-surface $-1 15.605849781413966 -9.5841827706239258 70.535445910245969 0 0.78801076186113728 0.61566146476048833 1 0 0 forward_v I I I I #
loop $-1 $-1 $232 $58 #
coedge $-1 $149 $149 $150 $233 reversed $91 $-1 #
coedge $-1 $150 $150 $149 $233 forward $93 $-1 #
coedge $-1 $151 $151 $94 $152 forward $146 $-1 #
edge $-1 $234 6.9989415317651662e-016 $234 6.2831853071796013 $151 $235 forward 7 unknown #
loop $-1 $-1 $158 $95 #
plane-surface $-1 15.605849781413966 -9.5841827706239258 70.535445910245969 0 0.78801076186113728 0.61566146476048833 1 0 0 forward_v I I I I #
loop $-1 $-1 $236 $61 #
coedge $-1 $156 $156 $157 $237 reversed $96 $-1 #
coedge $-1 $157 $157 $156 $237 forward $98 $-1 #
coedge $-1 $158 $158 $99 $159 forward $153 $-1 #
edge $-1 $238 6.9989415317651662e-016 $238 6.2831853071796013 $158 $239 forward 7 unknown #
face $-1 $240 $241 $24 $-1 $242 reversed single #
loop $-1 $-1 $243 $100 #
plane-surface $-1 -71.458479567857907 0 0 1 0 0 0 0 -1 forward_v I I I I #
coedge $-1 $244 $171 $245 $246 forward $101 $-1 #
coedge $-1 $247 $103 $244 $248 forward $65 $-1 #
coedge $-1 $103 $247 $249 $250 forward $65 $-1 #
coedge $-1 $174 $173 $103 $167 reversed $175 $-1 #
edge $-1 $251 -41.432048221379688 $252 41.432048221379688 $166 $253 forward 7 unknown #
coedge $-1 $105 $104 $254 $255 forward $41 $-1 #
coedge $-1 $256 $257 $104 $170 reversed $241 $-1 #
edge $-1 $177 -71.458479567857907 $258 71.458479567857907 $169 $259 forward 7 unknown #
coedge $-1 $163 $260 $105 $172 reversed $101 $-1 #
edge $-1 $261 -71.458479567857907 $176 71.458479567857907 $171 $262 forward 7 unknown #
coedge $-1 $166 $106 $260 $263 forward $175 $-1 #
coedge $-1 $106 $166 $256 $264 reversed $175 $-1 #
loop $-1 $-1 $173 $240 #
vertex $-1 $107 $265 #
vertex $-1 $107 $266 #
straight-curve $-1 71.458479567857907 0 15.735377791404751 0 1 0 I I #
face $-1 $267 $268 $25 $-1 $269 reversed single #
loop $-1 $-1 $270 $108 #
plane-surface $-1 0 0 15.735377791404751 0 0 1 1 0 0 forward_v I I I I #
coedge $-1 $271 $272 $273 $274 reversed $109 $-1 #
coedge $-1 $114 $111 $275 $276 reversed $69 $-1 #
coedge $-1 $111 $114 $277 $278 reversed $69 $-1 #
coedge $-1 $272 $271 $111 $186 reversed $109 $-1 #
edge $-1 $279 -15.735377791404751 $280 15.735377791404751 $185 $281 forward 7 unknown #
coedge $-1 $113 $112 $282 $283 reversed $44 $-1 #
coedge $-1 $275 $284 $112 $189 forward $268 $-1 #
edge $-1 $285 -23.467585447260571 $193 -12.461340100977662 $188 $286 forward 7 unknown #
coedge $-1 $287 $277 $113 $191 forward $180 $-1 #
edge $-1 $192 12.461340100977662 $288 23.467585447260571 $190 $289 forward 7 unknown #
vertex $-1 $191 $290 #
vertex $-1 $189 $291 #
straight-curve $-1 -49.038819707477629 -30.425802875096778 0 0 0 -1 I I #
face $-1 $-1 $292 $26 $-1 $293 forward single #
loop $-1 $-1 $294 $116 #
plane-surface $-1 -71.458479567857907 0 0 1 0 0 0 0 -1 forward_v I I I I #
coedge $-1 $295 $119 $121 $204 forward $73 $-1 #
coedge $-1 $119 $295 $294 $296 reversed $73 $-1 #
coedge $-1 $297 $122 $119 $201 forward $117 $-1 #
edge $-1 $207 12.320465111808016 $298 43.532164674635936 $200 $299 forward 7 unknown #
coedge $-1 $300 $301 $120 $203 forward $292 $-1 #
edge $-1 $302 -18.28763794138667 $206 -10.085911319014571 $202 $303 forward 7 unknown #
edge $-1 $207 -82.86409644275939 $302 -69.542283901571949 $121 $304 forward 7 unknown #
coedge $-1 $122 $297 $300 $305 reversed $117 $-1 #
vertex $-1 $305 $306 #
vertex $-1 $123 $307 #
straight-curve $-1 -40.24678000502999 41.432048221379688 79.261955155427813 0 0 -1 I I #
coedge $-1 $209 $209 $-1 $308 reversed $126 $-1 #
edge $-1 $309 0 $309 6.2831853071796004 $127 $310 forward 7 unknown #
vertex $-1 $130 $311 #
ellipse-curve $-1 -62.540851121335649 37.331184910193642 10.486511966428562 0 0.78801076186113728 0.61566146476048833 2 0 0 1 I I #
coedge $-1 $213 $213 $-1 $312 reversed $133 $-1 #
edge $-1 $313 0 $313 6.2831853071796004 $134 $314 forward 7 unknown #
vertex $-1 $137 $315 #
ellipse-curve $-1 -49.164408451552255 37.331184910193642 10.486511966428562 0 0.78801076186113728 0.61566146476048833 2 0 0 1 I I #
face $-1 $-1 $316 $29 $-1 $317 forward single #
loop $-1 $-1 $144 $138 #
plane-surface $-1 0 41.432048221379688 0 0 -1 0 0 0 -1 forward_v I I I I #
coedge $-1 $318 $319 $320 $321 reversed $139 $-1 #
coedge $-1 $322 $141 $143 $227 forward $87 $-1 #
coedge $-1 $141 $322 $318 $323 forward $87 $-1 #
coedge $-1 $320 $144 $141 $224 forward $218 $-1 #
edge $-1 $230 -23.408774672120941 $324 7.8029248907069757 $223 $325 forward 7 unknown #
coedge $-1 $326 $327 $142 $226 forward $316 $-1 #
edge $-1 $328 -18.28763794138667 $229 -10.085911319014571 $225 $329 forward 7 unknown #
edge $-1 $230 -82.86409644275939 $328 -69.542283901571949 $143 $330 forward 7 unknown #
coedge $-1 $144 $320 $326 $331 reversed $218 $-1 #
vertex $-1 $331 $332 #
vertex $-1 $145 $333 #
straight-curve $-1 31.211699562827924 41.432048221379688 79.261955155427813 0 0 -1 I I #
coedge $-1 $232 $232 $-1 $334 reversed $148 $-1 #
edge $-1 $335 0 $335 6.2831853071796004 $149 $336 forward 7 unknown #
vertex $-1 $152 $337 #
ellipse-curve $-1 8.9176284465222579 37.331184910193642 10.486511966428562 0 0.78801076186113728 0.61566146476048833 2 0 0 1 I I #
coedge $-1 $236 $236 $-1 $338 reversed $155 $-1 #
edge $-1 $339 0 $339 6.2831853071796004 $156 $340 forward 7 unknown #
vertex $-1 $159 $341 #
ellipse-curve $-1 22.294071116305659 37.331184910193642 10.486511966428562 0 0.78801076186113728 0.61566146476048833 2 0 0 1 I I #
face $-1 $-1 $175 $24 $-1 $342 reversed single #
loop $-1 $-1 $256 $160 #
plane-surface $-1 0 41.432048221379688 0 0 -1 0 0 0 -1 forward_v I I I I #
coedge $-1 $343 $254 $257 $344 forward $161 $-1 #
coedge $-1 $260 $163 $164 $248 reversed $101 $-1 #
coedge $-1 $254 $343 $163 $246 reversed $161 $-1 #
edge $-1 $261 -15.735377791404751 $345 15.735377791404751 $245 $346 forward 7 unknown #
coedge $-1 $165 $164 $343 $347 forward $65 $-1 #
edge $-1 $252 -71.458479567857907 $345 71.458479567857907 $244 $348 forward 7 unknown #
coedge $-1 $257 $256 $165 $250 reversed $241 $-1 #
edge $-1 $349 -71.458479567857907 $251 71.458479567857907 $249 $350 forward 7 unknown #
vertex $-1 $167 $351 #
vertex $-1 $263 $352 #
straight-curve $-1 71.458479567857907 0 -15.735377791404751 0 -1 0 I I #
coedge $-1 $243 $245 $168 $255 reversed $161 $-1 #
edge $-1 $258 -41.432048221379688 $261 41.432048221379688 $254 $353 forward 7 unknown #
coedge $-1 $249 $169 $174 $264 forward $241 $-1 #
coedge $-1 $169 $249 $243 $344 reversed $241 $-1 #
vertex $-1 $170 $354 #
straight-curve $-1 0 41.432048221379688 15.735377791404751 -1 0 0 I I #
coedge $-1 $171 $244 $173 $263 reversed $101 $-1 #
vertex $-1 $255 $355 #
straight-curve $-1 0 -41.432048221379688 15.735377791404751 1 0 0 I I #
edge $-1 $176 -15.735377791404751 $252 15.735377791404751 $173 $356 forward 7 unknown #
edge $-1 $177 -15.735377791404751 $251 15.735377791404751 $174 $357 forward 7 unknown #
point $-1 71.458479567857907 -41.432048221379688 15.735377791404751 #
point $-1 71.458479567857907 41.432048221379688 15.735377791404751 #
face $-1 $-1 $358 $25 $-1 $359 reversed single #
loop $-1 $-1 $360 $179 #
plane-surface $-1 0 0 -15.735377791404751 0 0 1 1 0 0 forward_v I I I I #
coedge $-1 $277 $287 $272 $361 forward $180 $-1 #
coedge $-1 $185 $182 $360 $362 reversed $109 $-1 #
coedge $-1 $182 $185 $270 $361 reversed $109 $-1 #
coedge $-1 $363 $364 $182 $274 forward $358 $-1 #
edge $-1 $365 -15.735377791404751 $366 15.735377791404751 $273 $367 forward 7 unknown #
coedge $-1 $360 $188 $183 $276 forward $268 $-1 #
edge $-1 $193 -26.78218378434612 $280 -17.731088061916896 $275 $368 forward 7 unknown #
coedge $-1 $190 $270 $184 $278 forward $180 $-1 #
edge $-1 $279 17.731088061916896 $192 26.78218378434612 $277 $369 forward 7 unknown #
vertex $-1 $278 $370 #
vertex $-1 $276 $371 #
straight-curve $-1 -39.987723985048405 -30.425802875096778 0 0 0 -1 I I #
coedge $-1 $364 $363 $187 $283 forward $358 $-1 #
edge $-1 $288 -15.735377791404751 $285 15.735377791404751 $282 $372 forward 7 unknown #
coedge $-1 $188 $360 $364 $373 forward $268 $-1 #
vertex $-1 $189 $374 #
straight-curve $-1 -49.038819707477629 -17.964462774119117 -15.735377791404751 0 1 0 I I #
coedge $-1 $270 $190 $363 $375 forward $180 $-1 #
vertex $-1 $375 $376 #
straight-curve $-1 -49.038819707477629 -17.964462774119117 15.735377791404751 0 -1 0 I I #
point $-1 -49.038819707477629 -30.425802875096778 15.735377791404751 #
point $-1 -49.038819707477629 -30.425802875096778 -15.735377791404751 #
loop $-1 $-1 $202 $195 #
plane-surface $-1 0 0 15.735377791404751 0 0 1 1 0 0 forward_v I I I I #
coedge $-1 $377 $378 $199 $296 forward $196 $-1 #
coedge $-1 $199 $198 $301 $379 reversed $73 $-1 #
edge $-1 $298 -52.122445206238119 $380 -38.800632665050685 $294 $381 forward 7 unknown #
coedge $-1 $205 $200 $378 $382 reversed $117 $-1 #
vertex $-1 $296 $383 #
straight-curve $-1 -27.926314893221974 41.432048221379688 5.2376461414523945 -1 0 0 I I #
coedge $-1 $384 $202 $205 $305 forward $292 $-1 #
coedge $-1 $202 $384 $295 $379 forward $292 $-1 #
vertex $-1 $203 $385 #
straight-curve $-1 -40.24678000502999 51.517959540394259 15.735377791404744 0 1 0 I I #
straight-curve $-1 -40.24678000502999 -9.5841827706239258 70.535445910245969 0 -0.61566146476048833 0.78801076186113728 I I #
edge $-1 $206 40.24678000502999 $386 71.458479567857907 $205 $387 forward 7 unknown #
point $-1 -40.24678000502999 41.432048221379688 15.735377791404751 #
point $-1 -40.24678000502999 41.432048221379688 5.2376461414523874 #
edge $-1 $388 1 $388 0 $209 $-1 forward 7 unknown #
vertex $-1 $210 $389 #
ellipse-curve $-1 -62.540851121335649 31.481190407621874 5.9159954727352781 0 0.78801076186113728 0.61566146476048833 2 0 0 1 I I #
point $-1 -60.540851121335649 37.331184910193642 10.48651196642856 #
edge $-1 $390 1 $390 0 $213 $-1 forward 7 unknown #
vertex $-1 $214 $391 #
ellipse-curve $-1 -49.164408451552255 31.481190407621874 5.9159954727352781 0 0.78801076186113728 0.61566146476048833 2 0 0 1 I I #
point $-1 -47.164408451552255 37.331184910193642 10.48651196642856 #
loop $-1 $-1 $225 $217 #
plane-surface $-1 0 0 15.735377791404751 0 0 1 1 0 0 forward_v I I I I #
coedge $-1 $319 $220 $222 $323 reversed $139 $-1 #
coedge $-1 $220 $318 $392 $393 reversed $139 $-1 #
coedge $-1 $228 $223 $220 $321 forward $218 $-1 #
edge $-1 $324 -74.024309013975426 $394 -63.526577364023062 $320 $395 forward 7 unknown #
coedge $-1 $222 $221 $327 $396 reversed $87 $-1 #
edge $-1 $397 69.542283901571949 $324 82.86409644275939 $318 $398 forward 7 unknown #
vertex $-1 $224 $399 #
straight-curve $-1 7.8029248907069828 41.432048221379688 5.2376461414523945 -1 0 0 I I #
coedge $-1 $392 $225 $228 $331 forward $316 $-1 #
coedge $-1 $225 $392 $322 $396 forward $316 $-1 #
vertex $-1 $226 $400 #
straight-curve $-1 31.211699562827924 51.517959540394259 15.735377791404744 0 1 0 I I #
straight-curve $-1 31.211699562827924 -9.5841827706239258 70.535445910245969 0 -0.61566146476048833 0.78801076186113728 I I #
edge $-1 $229 -31.211699562827924 $394 -7.1054273576010019e-015 $228 $401 forward 7 unknown #
point $-1 31.211699562827924 41.432048221379688 15.735377791404751 #
point $-1 31.211699562827924 41.432048221379688 5.2376461414523874 #
edge $-1 $402 1 $402 0 $232 $-1 forward 7 unknown #
vertex $-1 $233 $403 #
ellipse-curve $-1 8.9176284465222579 31.481190407621874 5.9159954727352781 0 0.78801076186113728 0.61566146476048833 2 0 0 1 I I #
point $-1 10.917628446522258 37.331184910193642 10.48651196642856 #
edge $-1 $404 1 $404 0 $236 $-1 forward 7 unknown #
vertex $-1 $237 $405 #
ellipse-curve $-1 22.294071116305659 31.481190407621874 5.9159954727352781 0 0.78801076186113728 0.61566146476048833 2 0 0 1 I I #
point $-1 24.294071116305659 37.331184910193642 10.48651196642856 #
plane-surface $-1 71.458479567857907 0 0 -1 0 0 0 0 1 forward_v I I I I #
coedge $-1 $245 $243 $247 $347 reversed $161 $-1 #
edge $-1 $258 -15.735377791404751 $349 15.735377791404751 $257 $406 forward 7 unknown #
vertex $-1 $347 $407 #
straight-curve $-1 -71.458479567857907 -41.432048221379688 0 0 0 -1 I I #
edge $-1 $345 -41.432048221379688 $349 41.432048221379688 $343 $408 forward 7 unknown #
straight-curve $-1 0 -41.432048221379688 -15.735377791404751 -1 0 0 I I #
vertex $-1 $250 $409 #
straight-curve $-1 0 41.432048221379688 -15.735377791404751 1 0 0 I I #
point $-1 71.458479567857907 41.432048221379688 -15.735377791404751 #
point $-1 71.458479567857907 -41.432048221379688 -15.735377791404751 #
straight-curve $-1 -71.458479567857907 0 15.735377791404751 0 -1 0 I I #
point $-1 -71.458479567857907 41.432048221379688 15.735377791404751 #
point $-1 -71.458479567857907 -41.432048221379688 15.735377791404751 #
straight-curve $-1 71.458479567857907 -41.432048221379688 0 0 0 -1 I I #
straight-curve $-1 71.458479567857907 41.432048221379688 0 0 0 -1 I I #
loop $-1 $-1 $273 $267 #
plane-surface $-1 0 -41.432048221379688 0 0 1 0 0 0 1 forward_v I I I I #
coedge $-1 $284 $275 $271 $362 forward $268 $-1 #
edge $-1 $366 -23.467585447260571 $279 -12.461340100977662 $270 $410 forward 7 unknown #
edge $-1 $280 12.461340100977662 $365 23.467585447260571 $360 $411 forward 7 unknown #
coedge $-1 $282 $273 $287 $375 reversed $358 $-1 #
coedge $-1 $273 $282 $284 $373 reversed $358 $-1 #
vertex $-1 $373 $412 #
vertex $-1 $274 $413 #
straight-curve $-1 -39.987723985048405 -41.432048221379688 0 0 0 1 I I #
straight-curve $-1 -22.256635923131508 -30.425802875096778 -15.735377791404751 1 0 0 I I #
straight-curve $-1 -22.256635923131508 -30.425802875096778 15.735377791404751 -1 0 0 I I #
point $-1 -39.987723985048405 -30.425802875096778 15.735377791404751 #
point $-1 -39.987723985048405 -30.425802875096778 -15.735377791404751 #
straight-curve $-1 -49.038819707477629 -41.432048221379688 0 0 0 -1 I I #
edge $-1 $365 39.987723985048405 $285 49.038819707477629 $364 $414 forward 7 unknown #
point $-1 -49.038819707477629 -41.432048221379688 -15.735377791404751 #
edge $-1 $288 -49.038819707477629 $366 -39.987723985048405 $363 $415 forward 7 unknown #
point $-1 -49.038819707477629 -41.432048221379688 15.735377791404751 #
coedge $-1 $378 $294 $384 $416 reversed $196 $-1 #
coedge $-1 $294 $377 $297 $382 forward $196 $-1 #
edge $-1 $380 -43.532164674635936 $302 -12.320465111808016 $301 $417 forward 7 unknown #
vertex $-1 $296 $418 #
straight-curve $-1 -71.458479567857907 9.3422672588088318 46.310693898485475 0 -0.61566146476048833 0.78801076186113728 I I #
edge $-1 $386 -15.735377791404751 $298 -5.2376461414523936 $297 $419 forward 7 unknown #
point $-1 -71.458479567857907 41.432048221379688 5.2376461414523936 #
coedge $-1 $301 $300 $377 $416 forward $292 $-1 #
point $-1 -40.24678000502999 33.230321599007588 15.735377791404758 #
vertex $-1 $305 $420 #
straight-curve $-1 0 41.432048221379688 15.735377791404751 -1 0 0 I I #
vertex $-1 $308 $421 #
point $-1 -60.540851121335649 31.481190407621874 5.9159954727352781 #
vertex $-1 $312 $422 #
point $-1 -47.164408451552255 31.481190407621874 5.9159954727352781 #
coedge $-1 $327 $326 $319 $393 forward $316 $-1 #
edge $-1 $394 10.085911319014571 $397 18.28763794138667 $392 $423 forward 7 unknown #
vertex $-1 $393 $424 #
straight-curve $-1 7.1054273576010019e-015 41.432048221379688 79.261955155427813 0 0 1 I I #
edge $-1 $397 -7.8029248907069757 $328 23.408774672120941 $327 $425 forward 7 unknown #
vertex $-1 $396 $426 #
straight-curve $-1 7.1054273576010019e-015 -9.5841827706239258 70.535445910245969 0 0.61566146476048833 -0.78801076186113728 I I #
point $-1 7.1054273576010019e-015 41.432048221379688 5.2376461414523874 #
point $-1 31.211699562827924 33.230321599007588 15.735377791404758 #
straight-curve $-1 0 41.432048221379688 15.735377791404751 -1 0 0 I I #
vertex $-1 $334 $427 #
point $-1 10.917628446522258 31.481190407621874 5.9159954727352781 #
vertex $-1 $338 $428 #
point $-1 24.294071116305659 31.481190407621874 5.9159954727352781 #
straight-curve $-1 -71.458479567857907 41.432048221379688 0 0 0 -1 I I #
point $-1 -71.458479567857907 -41.432048221379688 -15.735377791404751 #
straight-curve $-1 -71.458479567857907 0 -15.735377791404751 0 1 0 I I #
point $-1 -71.458479567857907 41.432048221379688 -15.735377791404751 #
straight-curve $-1 -39.987723985048405 -17.964462774119117 15.735377791404751 0 1 0 I I #
straight-curve $-1 -39.987723985048405 -17.964462774119117 -15.735377791404751 0 -1 0 I I #
point $-1 -39.987723985048405 -41.432048221379688 -15.735377791404751 #
point $-1 -39.987723985048405 -41.432048221379688 15.735377791404751 #
straight-curve $-1 0 -41.432048221379688 -15.735377791404751 -1 0 0 I I #
straight-curve $-1 0 -41.432048221379688 15.735377791404751 1 0 0 I I #
edge $-1 $386 -41.432048221379688 $380 -33.230321599007588 $377 $429 forward 7 unknown #
straight-curve $-1 -27.926314893221974 33.230321599007596 15.735377791404751 1 0 0 I I #
point $-1 -71.458479567857907 33.230321599007588 15.735377791404758 #
straight-curve $-1 -71.458479567857907 41.432048221379688 0 0 0 -1 I I #
point $-1 -71.458479567857907 41.432048221379688 15.735377791404751 #
point $-1 -62.540851121335649 29.905168883899599 4.6846725432143019 #
point $-1 -49.164408451552255 29.905168883899599 4.6846725432143019 #
straight-curve $-1 7.1054273576010019e-015 51.517959540394259 15.735377791404744 0 -1 0 I I #
point $-1 7.1054273576010019e-015 41.432048221379688 15.735377791404751 #
straight-curve $-1 7.8029248907069828 33.230321599007596 15.735377791404751 1 0 0 I I #
point $-1 7.1054273576010019e-015 33.230321599007588 15.735377791404758 #
point $-1 8.9176284465222579 29.905168883899599 4.6846725432143019 #
point $-1 22.294071116305659 29.905168883899599 4.6846725432143019 #
straight-curve $-1 -71.458479567857907 0 15.735377791404751 0 -1 0 I I #
End-of-ACIS-data 