500 0 13 0           
7 Unknown 11 ACIS 5.0 NT 24 Fri Mar 26 19:00:12 1999 
-1 9.9999999999999995e-007 1e-010 
body $-1 $13 $-1 $14 #
body $-1 $15 $-1 $16 #
body $-1 $17 $-1 $18 #
body $-1 $19 $-1 $20 #
body $-1 $21 $-1 $22 #
body $-1 $23 $-1 $24 #
body $-1 $25 $-1 $26 #
body $-1 $27 $-1 $28 #
body $-1 $29 $-1 $30 #
body $-1 $31 $-1 $32 #
body $-1 $33 $-1 $34 #
body $-1 $35 $-1 $36 #
body $-1 $37 $-1 $38 #
lump $-1 $-1 $39 $0 #
transform $-1 1 0 0 0 1 0 0 0 1 65.353556932279417 27.435649375693714 8.9339389885754539 1 rotate no_reflect no_shear #
lump $-1 $-1 $40 $1 #
transform $-1 1 0 0 0 1 0 0 0 1 65.353556932279417 27.435649375693714 8.9339389885754539 1 rotate no_reflect no_shear #
lump $-1 $-1 $41 $2 #
transform $-1 1 0 0 0 1 0 0 0 1 65.353556932279417 27.435649375693714 8.9339389885754539 1 rotate no_reflect no_shear #
lump $-1 $-1 $42 $3 #
transform $-1 1 0 0 0 1 0 0 0 1 65.353556932279417 27.435649375693714 8.9339389885754539 1 rotate no_reflect no_shear #
lump $-1 $-1 $43 $4 #
transform $-1 1 0 0 0 1 0 0 0 1 65.353556932279417 27.435649375693714 8.9339389885754539 1 rotate no_reflect no_shear #
lump $-1 $-1 $44 $5 #
transform $-1 1 0 0 0 1 0 0 0 1 65.353556932279417 27.435649375693714 8.9339389885754539 1 rotate no_reflect no_shear #
lump $-1 $-1 $45 $6 #
transform $-1 1 0 0 0 1 0 0 0 1 65.353556932279417 27.435649375693714 8.9339389885754539 1 rotate no_reflect no_shear #
lump $-1 $-1 $46 $7 #
transform $-1 1 0 0 0 1 0 0 0 1 65.353556932279417 27.435649375693714 8.9339389885754539 1 rotate no_reflect no_shear #
lump $-1 $-1 $47 $8 #
transform $-1 1 0 0 0 1 0 0 0 1 65.353556932279417 27.435649375693714 8.9339389885754539 1 rotate no_reflect no_shear #
lump $-1 $-1 $48 $9 #
transform $-1 1 0 0 0 1 0 0 0 1 65.353556932279417 27.435649375693714 8.9339389885754539 1 rotate no_reflect no_shear #
lump $-1 $-1 $49 $10 #
transform $-1 1 0 0 0 1 0 0 0 1 65.353556932279417 27.435649375693714 8.9339389885754539 1 rotate no_reflect no_shear #
lump $-1 $-1 $50 $11 #
transform $-1 1 0 0 0 1 0 0 0 1 65.353556932279417 27.435649375693714 8.9339389885754539 1 rotate no_reflect no_shear #
lump $-1 $-1 $51 $12 #
transform $-1 1 0 0 0 1 0 0 0 1 65.353556932279417 27.435649375693714 8.9339389885754539 1 rotate no_reflect no_shear #
shell $-1 $-1 $-1 $52 $-1 $13 #
shell $-1 $-1 $-1 $53 $-1 $15 #
shell $-1 $-1 $-1 $54 $-1 $17 #
shell $-1 $-1 $-1 $55 $-1 $19 #
shell $-1 $-1 $-1 $56 $-1 $21 #
shell $-1 $-1 $-1 $57 $-1 $23 #
shell $-1 $-1 $-1 $58 $-1 $25 #
shell $-1 $-1 $-1 $59 $-1 $27 #
shell $-1 $-1 $-1 $60 $-1 $29 #
shell $-1 $-1 $-1 $61 $-1 $31 #
shell $-1 $-1 $-1 $62 $-1 $33 #
shell $-1 $-1 $-1 $63 $-1 $35 #
shell $-1 $-1 $-1 $64 $-1 $37 #
face $-1 $65 $66 $39 $-1 $67 forward single #
face $-1 $68 $69 $40 $-1 $70 reversed single #
face $-1 $71 $72 $41 $-1 $73 reversed single #
face $-1 $74 $75 $42 $-1 $76 forward single #
face $-1 $77 $78 $43 $-1 $79 forward single #
face $-1 $80 $81 $44 $-1 $82 reversed single #
face $-1 $83 $84 $45 $-1 $85 forward single #
face $-1 $86 $87 $46 $-1 $88 forward single #
face $-1 $89 $90 $47 $-1 $91 forward single #
face $-1 $92 $93 $48 $-1 $94 reversed single #
face $-1 $95 $96 $49 $-1 $97 forward single #
face $-1 $98 $99 $50 $-1 $100 forward single #
face $-1 $101 $102 $51 $-1 $103 forward single #
face $-1 $104 $105 $39 $-1 $106 reversed single #
loop $-1 $-1 $107 $52 #
plane-surface $-1 0 0 8.9339389885754539 0 0 1 1 0 0 forward_v I I I I #
face $-1 $108 $109 $40 $-1 $110 reversed single #
loop $-1 $-1 $111 $53 #
plane-surface $-1 -61.95035518233955 -12.567771398542806 0 0 1 0 0 0 1 forward_v I I I I #
face $-1 $112 $113 $41 $-1 $114 reversed single #
loop $-1 $-1 $115 $54 #
plane-surface $-1 -58.547153432399668 92.292518287969912 131.64008120360623 1 0 0 0 -0.7660444514056185 -0.64278759981090561 forward_v I I I I #
face $-1 $116 $117 $42 $-1 $118 forward single #
loop $-1 $119 $120 $55 #
cone-surface $-1 -48.725047495847832 25.649390915874218 6.9402333216199361 0 -0.7660444514056185 -0.64278759981090561 0.5 0 0 1 I I 0 1 0.5 forward I I I I #
face $-1 $121 $122 $43 $-1 $123 forward single #
loop $-1 $124 $125 $56 #
cone-surface $-1 -33.991888591020064 25.649390915874218 6.9402333216199361 0 -0.7660444514056185 -0.64278759981090561 0.5 0 0 1 I I 0 1 0.5 forward I I I I #
face $-1 $126 $127 $44 $-1 $128 reversed single #
loop $-1 $-1 $129 $57 #
plane-surface $-1 -41.298534993130893 -113.18723262263485 103.28429568027764 -1 0 0 0 -0.6560590369687036 0.75470957328743171 forward_v I I I I #
face $-1 $130 $131 $45 $-1 $132 forward single #
loop $-1 $133 $134 $58 #
cone-surface $-1 -55.09742974454592 -24.354841307535263 6.0843528458832381 0 0.6560590369687036 -0.75470957328743171 1.5 0 0 1 I I 0 1 1.5 forward I I I I #
face $-1 $135 $136 $46 $-1 $137 forward single #
loop $-1 $138 $139 $59 #
cone-surface $-1 -49.922844212765284 -24.354841307535263 6.0843528458832381 0 0.6560590369687036 -0.75470957328743171 1.5 0 0 1 I I 0 1 1.5 forward I I I I #
face $-1 $140 $141 $47 $-1 $142 forward single #
loop $-1 $143 $144 $60 #
cone-surface $-1 -44.748258680984648 -24.354841307535263 6.0843528458832381 0 0.6560590369687036 -0.75470957328743171 1.5 0 0 1 I I 0 1 1.5 forward I I I I #
face $-1 $145 $146 $48 $-1 $147 reversed single #
loop $-1 $-1 $148 $61 #
plane-surface $-1 56.729247712645034 -27.4356493756937 4.638385549924692 0 -0.6560590369687036 0.75470957328743171 1 0 0 forward_v I I I I #
face $-1 $149 $150 $49 $-1 $151 forward single #
loop $-1 $152 $153 $62 #
cone-surface $-1 51.554662180864398 -24.354841307535263 6.0843528458832381 0 0.6560590369687036 -0.75470957328743171 1.5 0 0 1 I I 0 1 1.5 forward I I I I #
face $-1 $154 $155 $50 $-1 $156 forward single #
loop $-1 $157 $158 $63 #
cone-surface $-1 56.729247712645034 -24.354841307535263 6.0843528458832381 0 0.6560590369687036 -0.75470957328743171 1.5 0 0 1 I I 0 1 1.5 forward I I I I #
face $-1 $159 $160 $51 $-1 $161 forward single #
loop $-1 $162 $163 $64 #
cone-surface $-1 61.90383324442567 -24.354841307535263 6.0843528458832381 0 0.6560590369687036 -0.75470957328743171 1.5 0 0 1 I I 0 1 1.5 forward I I I I #
face $-1 $164 $165 $39 $-1 $166 reversed single #
loop $-1 $-1 $167 $65 #
plane-surface $-1 0 0 -8.9339389885754539 0 0 1 1 0 0 forward_v I I I I #
coedge $-1 $168 $169 $170 $171 forward $66 $-1 #
face $-1 $172 $173 $40 $-1 $174 reversed single #
loop $-1 $-1 $175 $68 #
plane-surface $-1 -61.95035518233955 -9.5677713985428063 0 0 -1 0 0 0 -1 forward_v I I I I #
coedge $-1 $176 $177 $178 $179 reversed $69 $-1 #
face $-1 $180 $181 $41 $-1 $182 reversed single #
loop $-1 $-1 $183 $71 #
plane-surface $-1 -41.358468043433945 -7.8349410472177681 47.623169204395708 0 0.7660444514056185 0.64278759981090561 1 0 0 forward_v I I I I #
coedge $-1 $184 $185 $186 $187 reversed $72 $-1 #
face $-1 $-1 $188 $42 $-1 $189 forward single #
loop $-1 $190 $191 $74 #
cone-surface $-1 -48.725047495847832 25.074857577320003 6.4581426217617572 0 -0.7660444514056185 -0.64278759981090561 0.25 0 0 1 I I -0.70710678118654746 0.70710678118654746 0.25 forward I I I I #
loop $-1 $-1 $192 $55 #
coedge $-1 $120 $120 $193 $194 reversed $75 $-1 #
face $-1 $-1 $195 $43 $-1 $196 forward single #
loop $-1 $197 $198 $77 #
cone-surface $-1 -33.991888591020064 25.074857577320003 6.4581426217617572 0 -0.7660444514056185 -0.64278759981090561 0.25 0 0 1 I I -0.70710678118654746 0.70710678118654746 0.25 forward I I I I #
loop $-1 $-1 $199 $56 #
coedge $-1 $125 $125 $200 $201 reversed $78 $-1 #
face $-1 $202 $203 $44 $-1 $204 reversed single #
loop $-1 $-1 $205 $80 #
plane-surface $-1 -49.922844212765284 -27.4356493756937 4.638385549924692 0 -0.6560590369687036 0.75470957328743171 1 0 0 forward_v I I I I #
coedge $-1 $206 $207 $208 $209 reversed $81 $-1 #
face $-1 $-1 $210 $45 $-1 $211 forward single #
loop $-1 $212 $213 $83 #
cone-surface $-1 -55.09742974454592 -23.252723392576286 4.8165112425508205 0 0.6560590369687036 -0.75470957328743171 0.75 0 0 1 I I -0.70710678118654757 0.70710678118654757 0.75 forward I I I I #
loop $-1 $-1 $214 $58 #
coedge $-1 $134 $134 $215 $216 reversed $84 $-1 #
face $-1 $-1 $217 $46 $-1 $218 forward single #
loop $-1 $219 $220 $86 #
cone-surface $-1 -49.922844212765284 -23.252723392576286 4.8165112425508205 0 0.6560590369687036 -0.75470957328743171 0.75 0 0 1 I I -0.70710678118654757 0.70710678118654757 0.75 forward I I I I #
loop $-1 $-1 $221 $59 #
coedge $-1 $139 $139 $222 $223 reversed $87 $-1 #
face $-1 $-1 $224 $47 $-1 $225 forward single #
loop $-1 $226 $227 $89 #
cone-surface $-1 -44.748258680984648 -23.252723392576286 4.8165112425508205 0 0.6560590369687036 -0.75470957328743171 0.75 0 0 1 I I -0.70710678118654757 0.70710678118654757 0.75 forward I I I I #
loop $-1 $-1 $228 $60 #
coedge $-1 $144 $144 $229 $230 reversed $90 $-1 #
face $-1 $231 $232 $48 $-1 $233 reversed single #
loop $-1 $-1 $234 $92 #
plane-surface $-1 48.104938493010643 -113.18723262263485 103.28429568027764 1 0 0 0 0.6560590369687036 -0.75470957328743171 forward_v I I I I #
coedge $-1 $235 $236 $237 $238 reversed $93 $-1 #
face $-1 $-1 $239 $49 $-1 $240 forward single #
loop $-1 $241 $242 $95 #
cone-surface $-1 51.554662180864398 -23.252723392576286 4.8165112425508205 0 0.6560590369687036 -0.75470957328743171 0.75 0 0 1 I I -0.70710678118654757 0.70710678118654757 0.75 forward I I I I #
loop $-1 $-1 $243 $62 #
coedge $-1 $153 $153 $244 $245 reversed $96 $-1 #
face $-1 $-1 $246 $50 $-1 $247 forward single #
loop $-1 $248 $249 $98 #
cone-surface $-1 56.729247712645034 -23.252723392576286 4.8165112425508205 0 0.6560590369687036 -0.75470957328743171 0.75 0 0 1 I I -0.70710678118654757 0.70710678118654757 0.75 forward I I I I #
loop $-1 $-1 $250 $63 #
coedge $-1 $158 $158 $251 $252 reversed $99 $-1 #
face $-1 $-1 $253 $51 $-1 $254 forward single #
loop $-1 $255 $256 $101 #
cone-surface $-1 61.90383324442567 -23.252723392576286 4.8165112425508205 0 0.6560590369687036 -0.75470957328743171 0.75 0 0 1 I I -0.70710678118654757 0.70710678118654757 0.75 forward I I I I #
loop $-1 $-1 $257 $64 #
coedge $-1 $163 $163 $258 $259 reversed $102 $-1 #
face $-1 $260 $261 $39 $-1 $262 reversed single #
loop $-1 $-1 $263 $104 #
plane-surface $-1 0 -27.435649375693714 0 0 1 0 0 0 1 forward_v I I I I #
coedge $-1 $264 $265 $266 $267 forward $105 $-1 #
coedge $-1 $268 $107 $269 $270 forward $66 $-1 #
coedge $-1 $107 $268 $271 $272 forward $66 $-1 #
coedge $-1 $273 $274 $107 $171 reversed $275 $-1 #
edge $-1 $276 -27.435649375693714 $277 27.435649375693714 $170 $278 forward 7 unknown #
face $-1 $279 $280 $40 $-1 $281 reversed single #
loop $-1 $-1 $282 $108 #
plane-surface $-1 -58.547153432399682 -11.067771398542806 0 -1 0 0 0 0 1 forward_v I I I I #
coedge $-1 $283 $284 $285 $286 forward $109 $-1 #
coedge $-1 $287 $111 $288 $289 reversed $69 $-1 #
coedge $-1 $111 $287 $290 $291 reversed $69 $-1 #
coedge $-1 $292 $293 $111 $179 forward $294 $-1 #
edge $-1 $295 -8.9339389885754539 $296 8.9339389885754539 $178 $297 forward 7 unknown #
face $-1 $298 $299 $41 $-1 $300 reversed single #
loop $-1 $-1 $301 $112 #
plane-surface $-1 -24.169782654468218 92.292518287969912 131.64008120360623 -1 0 0 0 0.7660444514056185 0.64278759981090561 forward_v I I I I #
coedge $-1 $302 $303 $304 $305 reversed $113 $-1 #
coedge $-1 $185 $115 $306 $307 reversed $72 $-1 #
coedge $-1 $115 $184 $302 $308 reversed $72 $-1 #
coedge $-1 $304 $309 $115 $187 forward $310 $-1 #
edge $-1 $311 18.710609768291242 $312 21.517082236524629 $186 $313 forward 7 unknown #
loop $-1 $-1 $193 $116 #
plane-surface $-1 -41.358468043433945 -7.8349410472177681 47.623169204395708 0 0.7660444514056185 0.64278759981090561 1 0 0 forward_v I I I I #
loop $-1 $-1 $314 $74 #
coedge $-1 $191 $191 $192 $315 reversed $117 $-1 #
coedge $-1 $192 $192 $191 $315 forward $119 $-1 #
coedge $-1 $193 $193 $120 $194 forward $188 $-1 #
edge $-1 $316 -1.2666095154595345e-015 $316 6.2831853071795996 $193 $317 forward 7 unknown #
loop $-1 $-1 $200 $121 #
plane-surface $-1 -41.358468043433945 -7.8349410472177681 47.623169204395708 0 0.7660444514056185 0.64278759981090561 1 0 0 forward_v I I I I #
loop $-1 $-1 $318 $77 #
coedge $-1 $198 $198 $199 $319 reversed $122 $-1 #
coedge $-1 $199 $199 $198 $319 forward $124 $-1 #
coedge $-1 $200 $200 $125 $201 forward $195 $-1 #
edge $-1 $320 -1.2666095154595345e-015 $320 6.2831853071795996 $200 $321 forward 7 unknown #
face $-1 $322 $323 $44 $-1 $324 forward single #
loop $-1 $-1 $325 $126 #
plane-surface $-1 -58.547153432399675 -113.18723262263485 103.28429568027764 1 0 0 0 0.6560590369687036 -0.75470957328743171 forward_v I I I I #
coedge $-1 $326 $327 $328 $329 reversed $127 $-1 #
coedge $-1 $207 $129 $330 $331 reversed $81 $-1 #
coedge $-1 $129 $206 $326 $332 reversed $81 $-1 #
coedge $-1 $328 $333 $129 $209 forward $323 $-1 #
edge $-1 $334 29.157966935623712 $335 34.099435797475749 $208 $336 forward 7 unknown #
loop $-1 $-1 $215 $130 #
plane-surface $-1 -49.922844212765284 -27.4356493756937 4.638385549924692 0 -0.6560590369687036 0.75470957328743171 1 0 0 forward_v I I I I #
loop $-1 $-1 $337 $83 #
coedge $-1 $213 $213 $214 $338 reversed $131 $-1 #
coedge $-1 $214 $214 $213 $338 forward $133 $-1 #
coedge $-1 $215 $215 $134 $216 forward $210 $-1 #
edge $-1 $339 6.1925431702479578e-016 $339 6.2831853071796013 $215 $340 forward 7 unknown #
loop $-1 $-1 $222 $135 #
plane-surface $-1 -49.922844212765284 -27.4356493756937 4.638385549924692 0 -0.6560590369687036 0.75470957328743171 1 0 0 forward_v I I I I #
loop $-1 $-1 $341 $86 #
coedge $-1 $220 $220 $221 $342 reversed $136 $-1 #
coedge $-1 $221 $221 $220 $342 forward $138 $-1 #
coedge $-1 $222 $222 $139 $223 forward $217 $-1 #
edge $-1 $343 6.1925431702479578e-016 $343 6.2831853071796013 $222 $344 forward 7 unknown #
loop $-1 $-1 $229 $140 #
plane-surface $-1 -49.922844212765284 -27.4356493756937 4.638385549924692 0 -0.6560590369687036 0.75470957328743171 1 0 0 forward_v I I I I #
loop $-1 $-1 $345 $89 #
coedge $-1 $227 $227 $228 $346 reversed $141 $-1 #
coedge $-1 $228 $228 $227 $346 forward $143 $-1 #
coedge $-1 $229 $229 $144 $230 forward $224 $-1 #
edge $-1 $347 6.1925431702479578e-016 $347 6.2831853071796013 $229 $348 forward 7 unknown #
face $-1 $349 $350 $48 $-1 $351 forward single #
loop $-1 $-1 $352 $145 #
plane-surface $-1 0 -27.435649375693714 0 0 1 0 0 0 1 forward_v I I I I #
coedge $-1 $353 $354 $355 $356 reversed $146 $-1 #
coedge $-1 $357 $148 $358 $359 reversed $93 $-1 #
coedge $-1 $148 $357 $353 $360 forward $93 $-1 #
coedge $-1 $355 $361 $148 $238 forward $350 $-1 #
edge $-1 $362 -36.988933075956901 $363 -19.740314636688126 $237 $364 forward 7 unknown #
loop $-1 $-1 $244 $149 #
plane-surface $-1 56.729247712645034 -27.4356493756937 4.638385549924692 0 -0.6560590369687036 0.75470957328743171 1 0 0 forward_v I I I I #
loop $-1 $-1 $365 $95 #
coedge $-1 $242 $242 $243 $366 reversed $150 $-1 #
coedge $-1 $243 $243 $242 $366 forward $152 $-1 #
coedge $-1 $244 $244 $153 $245 forward $239 $-1 #
edge $-1 $367 6.1925431702479578e-016 $367 6.2831853071796013 $244 $368 forward 7 unknown #
loop $-1 $-1 $251 $154 #
plane-surface $-1 56.729247712645034 -27.4356493756937 4.638385549924692 0 -0.6560590369687036 0.75470957328743171 1 0 0 forward_v I I I I #
loop $-1 $-1 $369 $98 #
coedge $-1 $249 $249 $250 $370 reversed $155 $-1 #
coedge $-1 $250 $250 $249 $370 forward $157 $-1 #
coedge $-1 $251 $251 $158 $252 forward $246 $-1 #
edge $-1 $371 6.1925431702479578e-016 $371 6.2831853071796013 $251 $372 forward 7 unknown #
loop $-1 $-1 $258 $159 #
plane-surface $-1 56.729247712645034 -27.4356493756937 4.638385549924692 0 -0.6560590369687036 0.75470957328743171 1 0 0 forward_v I I I I #
loop $-1 $-1 $373 $101 #
coedge $-1 $256 $256 $257 $374 reversed $160 $-1 #
coedge $-1 $257 $257 $256 $374 forward $162 $-1 #
coedge $-1 $258 $258 $163 $259 forward $253 $-1 #
edge $-1 $375 6.1925431702479578e-016 $375 6.2831853071796013 $258 $376 forward 7 unknown #
face $-1 $377 $378 $39 $-1 $379 reversed single #
loop $-1 $-1 $380 $164 #
plane-surface $-1 -65.353556932279417 0 0 1 0 0 0 0 -1 forward_v I I I I #
coedge $-1 $381 $271 $382 $383 forward $165 $-1 #
coedge $-1 $384 $167 $381 $385 forward $105 $-1 #
coedge $-1 $167 $384 $386 $387 forward $105 $-1 #
coedge $-1 $274 $273 $167 $267 reversed $275 $-1 #
edge $-1 $388 -27.435649375693714 $389 27.435649375693714 $266 $390 forward 7 unknown #
coedge $-1 $169 $168 $391 $392 forward $66 $-1 #
coedge $-1 $393 $394 $168 $270 reversed $378 $-1 #
edge $-1 $277 -65.353556932279417 $395 65.353556932279417 $269 $396 forward 7 unknown #
coedge $-1 $263 $397 $169 $272 reversed $165 $-1 #
edge $-1 $398 -65.353556932279417 $276 65.353556932279417 $271 $399 forward 7 unknown #
coedge $-1 $266 $170 $397 $400 forward $275 $-1 #
coedge $-1 $170 $266 $393 $401 reversed $275 $-1 #
loop $-1 $-1 $273 $377 #
vertex $-1 $171 $402 #
vertex $-1 $171 $403 #
straight-curve $-1 65.353556932279417 0 8.9339389885754539 0 1 0 I I #
face $-1 $404 $405 $40 $-1 $406 forward single #
loop $-1 $-1 $407 $172 #
plane-surface $-1 0 0 -8.9339389885754539 0 0 1 1 0 0 forward_v I I I I #
coedge $-1 $408 $409 $287 $410 forward $173 $-1 #
coedge $-1 $411 $175 $407 $412 reversed $109 $-1 #
coedge $-1 $175 $411 $413 $414 reversed $109 $-1 #
coedge $-1 $409 $408 $175 $286 reversed $173 $-1 #
edge $-1 $415 -8.9339389885754539 $416 8.9339389885754539 $285 $417 forward 7 unknown #
coedge $-1 $177 $176 $282 $410 reversed $69 $-1 #
coedge $-1 $418 $419 $176 $289 forward $280 $-1 #
edge $-1 $420 27.571975841229907 $295 34.378379341109643 $288 $421 forward 7 unknown #
coedge $-1 $422 $423 $177 $291 forward $405 $-1 #
edge $-1 $296 -34.378379341109643 $424 -27.571975841229907 $290 $425 forward 7 unknown #
coedge $-1 $426 $178 $423 $427 reversed $294 $-1 #
coedge $-1 $178 $426 $418 $428 reversed $294 $-1 #
loop $-1 $-1 $426 $404 #
vertex $-1 $428 $429 #
vertex $-1 $179 $430 #
straight-curve $-1 -65.353556932279417 -12.567771398542806 0 0 0 1 I I #
face $-1 $-1 $310 $41 $-1 $431 forward single #
loop $-1 $-1 $432 $180 #
plane-surface $-1 0 27.435649375693714 0 0 -1 0 0 0 -1 forward_v I I I I #
coedge $-1 $433 $434 $435 $436 reversed $181 $-1 #
coedge $-1 $437 $183 $185 $308 forward $113 $-1 #
coedge $-1 $183 $437 $433 $438 forward $113 $-1 #
coedge $-1 $435 $186 $183 $305 forward $310 $-1 #
edge $-1 $312 -37.867919410682696 $439 -3.4905486327512456 $304 $440 forward 7 unknown #
coedge $-1 $441 $442 $184 $307 forward $299 $-1 #
edge $-1 $443 -60.230725347327805 $311 -56.886101613227659 $306 $444 forward 7 unknown #
edge $-1 $312 50.505202596049379 $443 54.871298751387464 $185 $445 forward 7 unknown #
coedge $-1 $186 $435 $441 $446 forward $310 $-1 #
loop $-1 $-1 $435 $298 #
vertex $-1 $307 $447 #
vertex $-1 $187 $448 #
straight-curve $-1 -58.547153432399668 46.146259143984956 8.9339389885754557 0 -1 0 I I #
coedge $-1 $314 $314 $-1 $449 reversed $190 $-1 #
edge $-1 $450 0 $450 6.2831853071796004 $191 $451 forward 7 unknown #
vertex $-1 $194 $452 #
ellipse-curve $-1 -48.725047495847832 26.032413141577017 7.2616271215253798 0 0.7660444514056185 0.64278759981090561 0.5 0 0 1 I I #
coedge $-1 $318 $318 $-1 $453 reversed $197 $-1 #
edge $-1 $454 0 $454 6.2831853071796004 $198 $455 forward 7 unknown #
vertex $-1 $201 $456 #
ellipse-curve $-1 -33.991888591020064 26.032413141577017 7.2616271215253798 0 0.7660444514056185 0.64278759981090561 0.5 0 0 1 I I #
face $-1 $-1 $457 $44 $-1 $458 reversed single #
loop $-1 $-1 $208 $202 #
plane-surface $-1 0 0 8.9339389885754539 0 0 1 1 0 0 forward_v I I I I #
coedge $-1 $459 $460 $461 $462 reversed $203 $-1 #
coedge $-1 $463 $205 $207 $332 forward $127 $-1 #
coedge $-1 $205 $463 $459 $464 forward $127 $-1 #
coedge $-1 $461 $208 $205 $329 forward $323 $-1 #
edge $-1 $335 16.337112886748251 $465 33.585731326017033 $328 $466 forward 7 unknown #
coedge $-1 $467 $468 $206 $331 forward $457 $-1 #
edge $-1 $469 -47.003762290214141 $334 -42.708208851563363 $330 $470 forward 7 unknown #
edge $-1 $335 -6.547510508350296 $469 1.888283279974768e-014 $207 $471 forward 7 unknown #
coedge $-1 $208 $461 $467 $472 forward $323 $-1 #
vertex $-1 $331 $473 #
vertex $-1 $209 $474 #
straight-curve $-1 -41.298534993130893 -56.593616311317426 8.9339389885754557 0 1 0 I I #
coedge $-1 $337 $337 $-1 $475 reversed $212 $-1 #
edge $-1 $476 0 $476 6.2831853071796004 $213 $477 forward 7 unknown #
vertex $-1 $216 $478 #
ellipse-curve $-1 -55.09742974454592 -24.964914944767695 6.786162269250064 0 -0.6560590369687036 0.75470957328743171 1.5 0 0 1 I I #
coedge $-1 $341 $341 $-1 $479 reversed $219 $-1 #
edge $-1 $480 0 $480 6.2831853071796004 $220 $481 forward 7 unknown #
vertex $-1 $223 $482 #
ellipse-curve $-1 -49.922844212765284 -24.964914944767695 6.786162269250064 0 -0.6560590369687036 0.75470957328743171 1.5 0 0 1 I I #
coedge $-1 $345 $345 $-1 $483 reversed $226 $-1 #
edge $-1 $484 0 $484 6.2831853071796004 $227 $485 forward 7 unknown #
vertex $-1 $230 $486 #
ellipse-curve $-1 -44.748258680984648 -24.964914944767695 6.786162269250064 0 -0.6560590369687036 0.75470957328743171 1.5 0 0 1 I I #
face $-1 $-1 $487 $48 $-1 $488 reversed single #
loop $-1 $-1 $355 $231 #
plane-surface $-1 0 0 8.9339389885754539 0 0 1 1 0 0 forward_v I I I I #
coedge $-1 $489 $490 $354 $491 forward $232 $-1 #
coedge $-1 $354 $234 $236 $360 reversed $146 $-1 #
coedge $-1 $234 $353 $352 $491 reversed $146 $-1 #
coedge $-1 $492 $237 $234 $356 forward $350 $-1 #
edge $-1 $363 -34.099435797475749 $493 -29.157966935623712 $355 $494 forward 7 unknown #
coedge $-1 $236 $235 $489 $495 reversed $93 $-1 #
coedge $-1 $496 $497 $235 $359 forward $487 $-1 #
edge $-1 $498 -8.8314462381101393 $362 -2.2839357297598237 $358 $499 forward 7 unknown #
edge $-1 $500 -1.888283279974768e-014 $363 6.547510508350296 $353 $501 forward 7 unknown #
coedge $-1 $237 $492 $496 $502 forward $350 $-1 #
vertex $-1 $359 $503 #
vertex $-1 $238 $504 #
straight-curve $-1 28.364623856322517 -22.49418051384167 8.9339389885754539 -1 0 0 I I #
coedge $-1 $365 $365 $-1 $505 reversed $241 $-1 #
edge $-1 $506 0 $506 6.2831853071796004 $242 $507 forward 7 unknown #
vertex $-1 $245 $508 #
ellipse-curve $-1 51.554662180864398 -24.964914944767695 6.786162269250064 0 -0.6560590369687036 0.75470957328743171 1.5 0 0 1 I I #
coedge $-1 $369 $369 $-1 $509 reversed $248 $-1 #
edge $-1 $510 0 $510 6.2831853071796004 $249 $511 forward 7 unknown #
vertex $-1 $252 $512 #
ellipse-curve $-1 56.729247712645034 -24.964914944767695 6.786162269250064 0 -0.6560590369687036 0.75470957328743171 1.5 0 0 1 I I #
coedge $-1 $373 $373 $-1 $513 reversed $255 $-1 #
edge $-1 $514 0 $514 6.2831853071796004 $256 $515 forward 7 unknown #
vertex $-1 $259 $516 #
ellipse-curve $-1 61.90383324442567 -24.964914944767695 6.786162269250064 0 -0.6560590369687036 0.75470957328743171 1.5 0 0 1 I I #
face $-1 $-1 $275 $39 $-1 $517 reversed single #
loop $-1 $-1 $393 $260 #
plane-surface $-1 0 27.435649375693714 0 0 -1 0 0 0 -1 forward_v I I I I #
coedge $-1 $518 $391 $394 $519 forward $261 $-1 #
coedge $-1 $397 $263 $264 $385 reversed $165 $-1 #
coedge $-1 $391 $518 $263 $383 reversed $261 $-1 #
edge $-1 $398 -8.9339389885754539 $520 8.9339389885754539 $382 $521 forward 7 unknown #
coedge $-1 $265 $264 $518 $522 forward $105 $-1 #
edge $-1 $389 -65.353556932279417 $520 65.353556932279417 $381 $523 forward 7 unknown #
coedge $-1 $394 $393 $265 $387 reversed $378 $-1 #
edge $-1 $524 -65.353556932279417 $388 65.353556932279417 $386 $525 forward 7 unknown #
vertex $-1 $267 $526 #
vertex $-1 $400 $527 #
straight-curve $-1 65.353556932279417 0 -8.9339389885754539 0 -1 0 I I #
coedge $-1 $380 $382 $268 $392 reversed $261 $-1 #
edge $-1 $395 -27.435649375693714 $398 27.435649375693714 $391 $528 forward 7 unknown #
coedge $-1 $386 $269 $274 $401 forward $378 $-1 #
coedge $-1 $269 $386 $380 $519 reversed $378 $-1 #
vertex $-1 $270 $529 #
straight-curve $-1 0 27.435649375693714 8.9339389885754539 -1 0 0 I I #
coedge $-1 $271 $381 $273 $400 reversed $165 $-1 #
vertex $-1 $392 $530 #
straight-curve $-1 0 -27.435649375693714 8.9339389885754539 1 0 0 I I #
edge $-1 $276 -8.9339389885754539 $389 8.9339389885754539 $273 $531 forward 7 unknown #
edge $-1 $277 -8.9339389885754539 $388 8.9339389885754539 $274 $532 forward 7 unknown #
point $-1 65.353556932279417 -27.435649375693714 8.9339389885754539 #
point $-1 65.353556932279417 27.435649375693714 8.9339389885754539 #
face $-1 $-1 $294 $40 $-1 $533 reversed single #
loop $-1 $-1 $413 $279 #
plane-surface $-1 0 0 8.9339389885754539 0 0 1 1 0 0 forward_v I I I I #
coedge $-1 $419 $418 $283 $412 forward $280 $-1 #
coedge $-1 $285 $282 $419 $534 reversed $173 $-1 #
coedge $-1 $282 $285 $422 $535 reversed $173 $-1 #
edge $-1 $424 -8.9339389885754539 $420 8.9339389885754539 $282 $536 forward 7 unknown #
coedge $-1 $284 $283 $426 $537 reversed $109 $-1 #
edge $-1 $538 -34.378379341109643 $416 -27.571975841229907 $407 $539 forward 7 unknown #
coedge $-1 $423 $422 $284 $414 forward $405 $-1 #
edge $-1 $415 27.571975841229907 $540 34.378379341109643 $413 $541 forward 7 unknown #
vertex $-1 $414 $542 #
vertex $-1 $412 $543 #
straight-curve $-1 -58.547153432399682 -9.5677713985428063 0 0 0 -1 I I #
coedge $-1 $407 $288 $293 $428 forward $280 $-1 #
coedge $-1 $288 $407 $408 $534 forward $280 $-1 #
vertex $-1 $289 $544 #
straight-curve $-1 -30.975177591169775 -12.567771398542806 -8.9339389885754539 -1 0 0 I I #
coedge $-1 $413 $290 $409 $535 forward $405 $-1 #
coedge $-1 $290 $413 $292 $427 forward $405 $-1 #
vertex $-1 $291 $545 #
straight-curve $-1 -30.975177591169775 -12.567771398542806 8.9339389885754539 1 0 0 I I #
coedge $-1 $293 $292 $411 $537 forward $294 $-1 #
edge $-1 $540 9.5677713985428063 $296 12.567771398542806 $292 $546 forward 7 unknown #
edge $-1 $295 -12.567771398542806 $538 -9.5677713985428063 $293 $547 forward 7 unknown #
point $-1 -65.353556932279417 -12.567771398542806 -8.9339389885754539 #
point $-1 -65.353556932279417 -12.567771398542806 8.9339389885754539 #
plane-surface $-1 0 0 8.9339389885754539 0 0 1 1 0 0 forward_v I I I I #
coedge $-1 $442 $441 $434 $548 forward $299 $-1 #
coedge $-1 $434 $301 $303 $438 reversed $181 $-1 #
coedge $-1 $301 $433 $432 $548 reversed $181 $-1 #
coedge $-1 $309 $304 $301 $436 forward $310 $-1 #
edge $-1 $439 -21.517082236524629 $549 -18.710609768291242 $435 $550 forward 7 unknown #
coedge $-1 $303 $302 $442 $551 reversed $113 $-1 #
edge $-1 $552 -54.871298751387464 $439 -50.505202596049379 $433 $553 forward 7 unknown #
vertex $-1 $305 $554 #
straight-curve $-1 -20.679234021716972 24.62917690746032 8.9339389885754557 1 0 0 I I #
coedge $-1 $432 $306 $309 $446 reversed $299 $-1 #
coedge $-1 $306 $432 $437 $551 forward $299 $-1 #
vertex $-1 $307 $555 #
straight-curve $-1 -58.547153432399668 27.435649375693714 65.820040601803115 0 0 1 I I #
straight-curve $-1 -58.547153432399668 -7.8349410472177681 47.623169204395708 0 0.64278759981090561 -0.7660444514056185 I I #
edge $-1 $549 24.169782654468218 $311 58.547153432399668 $441 $556 forward 7 unknown #
point $-1 -58.547153432399668 27.435649375693714 8.9339389885754539 #
point $-1 -58.547153432399668 24.629176907460327 8.9339389885754557 #
edge $-1 $557 1 $557 0 $314 $-1 forward 7 unknown #
vertex $-1 $315 $558 #
ellipse-curve $-1 -48.725047495847832 25.266368690171408 6.6188395217144835 0 0.7660444514056185 0.64278759981090561 0.5 0 0 1 I I #
point $-1 -48.225047495847832 26.032413141577027 7.2616271215253896 #
edge $-1 $559 1 $559 0 $318 $-1 forward 7 unknown #
vertex $-1 $319 $560 #
ellipse-curve $-1 -33.991888591020064 25.266368690171408 6.6188395217144835 0 0.7660444514056185 0.64278759981090561 0.5 0 0 1 I I #
point $-1 -33.491888591020064 26.032413141577027 7.2616271215253896 #
loop $-1 $-1 $330 $322 #
plane-surface $-1 0 -27.435649375693714 0 0 1 0 0 0 1 forward_v I I I I #
coedge $-1 $460 $325 $327 $464 reversed $203 $-1 #
coedge $-1 $325 $459 $561 $562 reversed $203 $-1 #
coedge $-1 $333 $328 $325 $462 forward $323 $-1 #
edge $-1 $465 -34.099435797475749 $563 -29.157966935623712 $461 $564 forward 7 unknown #
coedge $-1 $327 $326 $468 $565 reversed $127 $-1 #
edge $-1 $566 -1.888283279974768e-014 $465 6.547510508350296 $459 $567 forward 7 unknown #
vertex $-1 $329 $568 #
straight-curve $-1 -24.961422106382642 -22.49418051384167 8.9339389885754539 -1 0 0 I I #
coedge $-1 $561 $330 $333 $472 reversed $457 $-1 #
coedge $-1 $330 $561 $463 $565 forward $457 $-1 #
vertex $-1 $331 $569 #
straight-curve $-1 -41.298534993130893 -27.435649375693714 51.642147840138819 0 0 1 I I #
straight-curve $-1 -41.298534993130893 -27.4356493756937 4.638385549924692 0 -0.75470957328743171 -0.6560590369687036 I I #
edge $-1 $563 -58.547153432399675 $334 -41.298534993130893 $467 $570 forward 7 unknown #
point $-1 -41.298534993130893 -27.435649375693714 8.9339389885754539 #
point $-1 -41.298534993130893 -22.494180513841673 8.9339389885754539 #
edge $-1 $571 1 $571 0 $337 $-1 forward 7 unknown #
vertex $-1 $338 $572 #
ellipse-curve $-1 -55.09742974454592 -23.744767670302814 5.3825434225163944 0 -0.6560590369687036 0.75470957328743171 1.5 0 0 1 I I #
point $-1 -53.59742974454592 -24.96491494476771 6.7861622692500818 #
edge $-1 $573 1 $573 0 $341 $-1 forward 7 unknown #
vertex $-1 $342 $574 #
ellipse-curve $-1 -49.922844212765284 -23.744767670302814 5.3825434225163944 0 -0.6560590369687036 0.75470957328743171 1.5 0 0 1 I I #
point $-1 -48.422844212765284 -24.96491494476771 6.7861622692500818 #
edge $-1 $575 1 $575 0 $345 $-1 forward 7 unknown #
vertex $-1 $346 $576 #
ellipse-curve $-1 -44.748258680984648 -23.744767670302814 5.3825434225163944 0 -0.6560590369687036 0.75470957328743171 1.5 0 0 1 I I #
point $-1 -43.248258680984648 -24.96491494476771 6.7861622692500818 #
loop $-1 $-1 $358 $349 #
plane-surface $-1 65.353556932279417 0 0 -1 0 0 0 0 1 forward_v I I I I #
coedge $-1 $577 $352 $357 $495 forward $232 $-1 #
coedge $-1 $352 $577 $492 $578 reversed $232 $-1 #
edge $-1 $493 42.708208851563363 $500 47.003762290214141 $352 $579 forward 7 unknown #
coedge $-1 $361 $355 $490 $578 forward $350 $-1 #
vertex $-1 $578 $580 #
straight-curve $-1 48.104938493010643 -56.593616311317426 8.9339389885754557 0 -1 0 I I #
edge $-1 $500 19.740314636688126 $498 36.988933075956901 $489 $581 forward 7 unknown #
coedge $-1 $497 $358 $361 $502 reversed $487 $-1 #
coedge $-1 $358 $496 $577 $582 forward $487 $-1 #
vertex $-1 $495 $583 #
straight-curve $-1 65.353556932279417 -20.770472353818718 10.432335663940098 0 0.75470957328743171 0.6560590369687036 I I #
vertex $-1 $495 $584 #
straight-curve $-1 48.104938493010643 -27.4356493756937 4.638385549924692 0 0.75470957328743171 0.6560590369687036 I I #
edge $-1 $585 -27.435649375693714 $362 -22.494180513841673 $496 $586 forward 7 unknown #
point $-1 65.353556932279417 -22.494180513841673 8.9339389885754539 #
point $-1 48.104938493010643 -22.494180513841673 8.9339389885754539 #
edge $-1 $587 1 $587 0 $365 $-1 forward 7 unknown #
vertex $-1 $366 $588 #
ellipse-curve $-1 51.554662180864398 -23.744767670302814 5.3825434225163944 0 -0.6560590369687036 0.75470957328743171 1.5 0 0 1 I I #
point $-1 53.054662180864398 -24.96491494476771 6.7861622692500818 #
edge $-1 $589 1 $589 0 $369 $-1 forward 7 unknown #
vertex $-1 $370 $590 #
ellipse-curve $-1 56.729247712645034 -23.744767670302814 5.3825434225163944 0 -0.6560590369687036 0.75470957328743171 1.5 0 0 1 I I #
point $-1 58.229247712645034 -24.96491494476771 6.7861622692500818 #
edge $-1 $591 1 $591 0 $373 $-1 forward 7 unknown #
vertex $-1 $374 $592 #
ellipse-curve $-1 61.90383324442567 -23.744767670302814 5.3825434225163944 0 -0.6560590369687036 0.75470957328743171 1.5 0 0 1 I I #
point $-1 63.40383324442567 -24.96491494476771 6.7861622692500818 #
plane-surface $-1 65.353556932279417 0 0 -1 0 0 0 0 1 forward_v I I I I #
coedge $-1 $382 $380 $384 $522 reversed $261 $-1 #
edge $-1 $395 -8.9339389885754539 $524 8.9339389885754539 $394 $593 forward 7 unknown #
vertex $-1 $522 $594 #
straight-curve $-1 -65.353556932279417 -27.435649375693714 0 0 0 -1 I I #
edge $-1 $520 -27.435649375693714 $524 27.435649375693714 $518 $595 forward 7 unknown #
straight-curve $-1 0 -27.435649375693714 -8.9339389885754539 -1 0 0 I I #
vertex $-1 $387 $596 #
straight-curve $-1 0 27.435649375693714 -8.9339389885754539 1 0 0 I I #
point $-1 65.353556932279417 27.435649375693714 -8.9339389885754539 #
point $-1 65.353556932279417 -27.435649375693714 -8.9339389885754539 #
straight-curve $-1 -65.353556932279417 0 8.9339389885754539 0 -1 0 I I #
point $-1 -65.353556932279417 27.435649375693714 8.9339389885754539 #
point $-1 -65.353556932279417 -27.435649375693714 8.9339389885754539 #
straight-curve $-1 65.353556932279417 -27.435649375693714 0 0 0 -1 I I #
straight-curve $-1 65.353556932279417 27.435649375693714 0 0 0 -1 I I #
plane-surface $-1 -65.353556932279417 0 0 1 0 0 0 0 -1 forward_v I I I I #
edge $-1 $416 4.0338856992714032 $420 7.0338856992714032 $419 $597 forward 7 unknown #
edge $-1 $424 -7.0338856992714032 $415 -4.0338856992714032 $422 $598 forward 7 unknown #
straight-curve $-1 -58.547153432399682 -12.567771398542806 0 0 0 -1 I I #
edge $-1 $540 -8.9339389885754539 $538 8.9339389885754539 $426 $599 forward 7 unknown #
vertex $-1 $537 $600 #
straight-curve $-1 -30.975177591169775 -9.5677713985428063 -8.9339389885754539 1 0 0 I I #
vertex $-1 $427 $601 #
straight-curve $-1 -30.975177591169775 -9.5677713985428063 8.9339389885754539 -1 0 0 I I #
point $-1 -58.547153432399682 -9.5677713985428063 8.9339389885754539 #
point $-1 -58.547153432399682 -9.5677713985428063 -8.9339389885754539 #
point $-1 -58.547153432399682 -12.567771398542806 -8.9339389885754539 #
point $-1 -58.547153432399682 -12.567771398542806 8.9339389885754539 #
straight-curve $-1 -65.353556932279417 0 8.9339389885754539 0 -1 0 I I #
straight-curve $-1 -65.353556932279417 0 -8.9339389885754539 0 1 0 I I #
edge $-1 $549 56.886101613227659 $552 60.230725347327805 $432 $602 forward 7 unknown #
vertex $-1 $446 $603 #
straight-curve $-1 -24.169782654468218 46.146259143984956 8.9339389885754557 0 1 0 I I #
edge $-1 $552 3.4905486327512456 $443 37.867919410682696 $442 $604 forward 7 unknown #
vertex $-1 $551 $605 #
straight-curve $-1 -24.169782654468218 -7.8349410472177681 47.623169204395708 0 -0.64278759981090561 0.7660444514056185 I I #
point $-1 -24.169782654468218 24.629176907460327 8.9339389885754557 #
point $-1 -58.547153432399668 27.435649375693714 5.5893152544753093 #
straight-curve $-1 0 27.435649375693714 8.9339389885754539 -1 0 0 I I #
vertex $-1 $449 $606 #
point $-1 -48.225047495847832 25.266368690171408 6.6188395217144835 #
vertex $-1 $453 $607 #
point $-1 -33.491888591020064 25.266368690171408 6.6188395217144835 #
coedge $-1 $468 $467 $460 $562 forward $457 $-1 #
edge $-1 $563 42.708208851563363 $566 47.003762290214141 $561 $608 forward 7 unknown #
vertex $-1 $472 $609 #
straight-curve $-1 -58.547153432399675 -56.593616311317426 8.9339389885754557 0 -1 0 I I #
edge $-1 $566 -33.585731326017033 $469 -16.337112886748251 $468 $610 forward 7 unknown #
vertex $-1 $565 $611 #
straight-curve $-1 -58.547153432399675 -27.4356493756937 4.638385549924692 0 0.75470957328743171 0.6560590369687036 I I #
point $-1 -58.547153432399675 -22.494180513841673 8.9339389885754539 #
point $-1 -41.298534993130893 -27.435649375693714 4.6383855499246796 #
straight-curve $-1 0 -27.435649375693714 8.9339389885754539 1 0 0 I I #
vertex $-1 $475 $612 #
point $-1 -53.59742974454592 -23.744767670302814 5.3825434225163944 #
vertex $-1 $479 $613 #
point $-1 -48.422844212765284 -23.744767670302814 5.3825434225163944 #
vertex $-1 $483 $614 #
point $-1 -43.248258680984648 -23.744767670302814 5.3825434225163944 #
coedge $-1 $490 $489 $497 $582 reversed $232 $-1 #
edge $-1 $493 48.104938493010643 $585 65.353556932279417 $490 $615 forward 7 unknown #
straight-curve $-1 48.104938493010643 -27.435649375693714 51.642147840138819 0 0 -1 I I #
point $-1 48.104938493010643 -27.435649375693714 8.9339389885754539 #
straight-curve $-1 28.364623856322517 -27.435649375693714 4.6383855499246813 1 0 0 I I #
edge $-1 $585 -8.9339389885754539 $498 -4.6383855499246796 $497 $616 forward 7 unknown #
point $-1 65.353556932279417 -27.435649375693714 4.6383855499246796 #
point $-1 48.104938493010643 -27.435649375693714 4.6383855499246796 #
vertex $-1 $502 $617 #
straight-curve $-1 65.353556932279417 0 8.9339389885754539 0 1 0 I I #
vertex $-1 $505 $618 #
point $-1 53.054662180864398 -23.744767670302814 5.3825434225163944 #
vertex $-1 $509 $619 #
point $-1 58.229247712645034 -23.744767670302814 5.3825434225163944 #
vertex $-1 $513 $620 #
point $-1 63.40383324442567 -23.744767670302814 5.3825434225163944 #
straight-curve $-1 -65.353556932279417 27.435649375693714 0 0 0 -1 I I #
point $-1 -65.353556932279417 -27.435649375693714 -8.9339389885754539 #
straight-curve $-1 -65.353556932279417 0 -8.9339389885754539 0 1 0 I I #
point $-1 -65.353556932279417 27.435649375693714 -8.9339389885754539 #
straight-curve $-1 -58.547153432399682 -5.5338856992714032 -8.9339389885754539 0 -1 0 I I #
straight-curve $-1 -58.547153432399682 -5.5338856992714032 8.9339389885754539 0 1 0 I I #
straight-curve $-1 -65.353556932279417 -9.5677713985428063 0 0 0 -1 I I #
point $-1 -65.353556932279417 -9.5677713985428063 -8.9339389885754539 #
point $-1 -65.353556932279417 -9.5677713985428063 8.9339389885754539 #
straight-curve $-1 -24.169782654468218 27.435649375693714 65.820040601803115 0 0 -1 I I #
point $-1 -24.169782654468218 27.435649375693714 8.9339389885754539 #
straight-curve $-1 -20.679234021716972 27.435649375693714 5.5893152544753093 -1 0 0 I I #
point $-1 -24.169782654468218 27.435649375693714 5.5893152544753093 #
point $-1 -48.725047495847832 24.883346464468598 6.2974457218090309 #
point $-1 -33.991888591020064 24.883346464468598 6.2974457218090309 #
straight-curve $-1 -58.547153432399675 -27.435649375693714 51.642147840138819 0 0 -1 I I #
point $-1 -58.547153432399675 -27.435649375693714 8.9339389885754539 #
straight-curve $-1 -24.961422106382642 -27.435649375693714 4.6383855499246813 1 0 0 I I #
point $-1 -58.547153432399675 -27.435649375693714 4.6383855499246796 #
point $-1 -55.09742974454592 -22.760679114849758 4.2504790625852467 #
point $-1 -49.922844212765284 -22.760679114849758 4.2504790625852467 #
point $-1 -44.748258680984648 -22.760679114849758 4.2504790625852467 #
straight-curve $-1 0 -27.435649375693714 8.9339389885754539 1 0 0 I I #
straight-curve $-1 65.353556932279417 -27.435649375693714 0 0 0 -1 I I #
point $-1 65.353556932279417 -27.435649375693714 8.9339389885754539 #
point $-1 51.554662180864398 -22.760679114849758 4.2504790625852467 #
point $-1 56.729247712645034 -22.760679114849758 4.2504790625852467 #
point $-1 61.90383324442567 -22.760679114849758 4.2504790625852467 #
End-of-ACIS-data 