500 0 11 0           
7 Unknown 11 ACIS 5.0 NT 24 Thu Mar 25 22:37:46 1999 
-1 9.9999999999999995e-007 1e-010 
body $-1 $11 $-1 $12 #
body $-1 $13 $-1 $14 #
body $-1 $15 $-1 $16 #
body $-1 $17 $-1 $18 #
body $-1 $19 $-1 $20 #
body $-1 $21 $-1 $22 #
body $-1 $23 $-1 $24 #
body $-1 $25 $-1 $26 #
body $-1 $27 $-1 $28 #
body $-1 $29 $-1 $30 #
body $-1 $31 $-1 $32 #
lump $-1 $-1 $33 $0 #
transform $-1 1 0 0 0 1 0 0 0 1 78.225043488875997 45.373962952440685 19.900734616373366 1 rotate no_reflect no_shear #
lump $-1 $-1 $34 $1 #
transform $-1 1 0 0 0 1 0 0 0 1 78.225043488875997 45.373962952440685 19.900734616373366 1 rotate no_reflect no_shear #
lump $-1 $-1 $35 $2 #
transform $-1 1 0 0 0 1 0 0 0 1 78.225043488875997 45.373962952440685 19.900734616373366 1 rotate no_reflect no_shear #
lump $-1 $-1 $36 $3 #
transform $-1 1 0 0 0 1 0 0 0 1 78.225043488875997 45.373962952440685 19.900734616373366 1 rotate no_reflect no_shear #
lump $-1 $-1 $37 $4 #
transform $-1 1 0 0 0 1 0 0 0 1 78.225043488875997 45.373962952440685 19.900734616373366 1 rotate no_reflect no_shear #
lump $-1 $-1 $38 $5 #
transform $-1 1 0 0 0 1 0 0 0 1 78.225043488875997 45.373962952440685 19.900734616373366 1 rotate no_reflect no_shear #
lump $-1 $-1 $39 $6 #
transform $-1 1 0 0 0 1 0 0 0 1 78.225043488875997 45.373962952440685 19.900734616373366 1 rotate no_reflect no_shear #
lump $-1 $-1 $40 $7 #
transform $-1 1 0 0 0 1 0 0 0 1 78.225043488875997 45.373962952440685 19.900734616373366 1 rotate no_reflect no_shear #
lump $-1 $-1 $41 $8 #
transform $-1 1 0 0 0 1 0 0 0 1 78.225043488875997 45.373962952440685 19.900734616373366 1 rotate no_reflect no_shear #
lump $-1 $-1 $42 $9 #
transform $-1 1 0 0 0 1 0 0 0 1 78.225043488875997 45.373962952440685 19.900734616373366 1 rotate no_reflect no_shear #
lump $-1 $-1 $43 $10 #
transform $-1 1 0 0 0 1 0 0 0 1 78.225043488875997 45.373962952440685 19.900734616373366 1 rotate no_reflect no_shear #
shell $-1 $-1 $-1 $44 $-1 $11 #
shell $-1 $-1 $-1 $45 $-1 $13 #
shell $-1 $-1 $-1 $46 $-1 $15 #
shell $-1 $-1 $-1 $47 $-1 $17 #
shell $-1 $-1 $-1 $48 $-1 $19 #
shell $-1 $-1 $-1 $49 $-1 $21 #
shell $-1 $-1 $-1 $50 $-1 $23 #
shell $-1 $-1 $-1 $51 $-1 $25 #
shell $-1 $-1 $-1 $52 $-1 $27 #
shell $-1 $-1 $-1 $53 $-1 $29 #
shell $-1 $-1 $-1 $54 $-1 $31 #
face $-1 $55 $56 $33 $-1 $57 forward single #
face $-1 $58 $59 $34 $-1 $60 forward single #
face $-1 $61 $62 $35 $-1 $63 reversed single #
face $-1 $64 $65 $36 $-1 $66 forward single #
face $-1 $67 $68 $37 $-1 $69 forward single #
face $-1 $70 $71 $38 $-1 $72 reversed single #
face $-1 $73 $74 $39 $-1 $75 forward single #
face $-1 $76 $77 $40 $-1 $78 forward single #
face $-1 $79 $80 $41 $-1 $81 reversed single #
face $-1 $82 $83 $42 $-1 $84 forward single #
face $-1 $85 $86 $43 $-1 $87 forward single #
face $-1 $88 $89 $33 $-1 $90 reversed single #
loop $-1 $-1 $91 $44 #
plane-surface $-1 0 0 19.900734616373366 0 0 1 1 0 0 forward_v I I I I #
face $-1 $92 $93 $34 $-1 $94 reversed single #
loop $-1 $-1 $95 $45 #
plane-surface $-1 -78.225043488875997 0 0 1 0 0 0 0 -1 forward_v I I I I #
face $-1 $96 $97 $35 $-1 $98 reversed single #
loop $-1 $-1 $99 $46 #
plane-surface $-1 12.910212125111173 -170.32055924949699 98.031168579692604 -1 0 0 0 -0.79863551827123203 0.60181501223851219 forward_v I I I I #
face $-1 $100 $101 $36 $-1 $102 forward single #
loop $-1 $103 $104 $47 #
cone-surface $-1 -4.9700749937329505 -36.710682568835566 9.9101396900666856 0 0.79863551827123203 -0.60181501223851219 2 0 0 1 I I 0 1 2 forward I I I I #
face $-1 $105 $106 $37 $-1 $107 forward single #
loop $-1 $108 $109 $48 #
cone-surface $-1 5.7580972775735262 -36.710682568835566 9.9101396900666856 0 0.79863551827123203 -0.60181501223851219 2 0 0 1 I I 0 1 2 forward I I I I #
face $-1 $110 $111 $38 $-1 $112 reversed single #
loop $-1 $-1 $113 $49 #
plane-surface $-1 37.942614091492942 -170.32055924949699 98.031168579692604 -1 0 0 0 -0.79863551827123203 0.60181501223851219 forward_v I I I I #
face $-1 $114 $115 $39 $-1 $116 forward single #
loop $-1 $117 $118 $50 #
cone-surface $-1 20.062326972648819 -36.710682568835566 9.9101396900666856 0 0.79863551827123203 -0.60181501223851219 2 0 0 1 I I 0 1 2 forward I I I I #
face $-1 $119 $120 $40 $-1 $121 forward single #
loop $-1 $122 $123 $51 #
cone-surface $-1 30.790499243955296 -36.710682568835566 9.9101396900666856 0 0.79863551827123203 -0.60181501223851219 2 0 0 1 I I 0 1 2 forward I I I I #
face $-1 $124 $125 $41 $-1 $126 reversed single #
loop $-1 $-1 $127 $52 #
plane-surface $-1 -25.675077034194576 51.321273630581821 186.59464557593896 1 0 0 0 -0.52991927123019833 -0.84804809178421925 forward_v I I I I #
face $-1 $128 $129 $42 $-1 $130 forward single #
loop $-1 $131 $132 $53 #
cone-surface $-1 -16.278835373480092 32.563471362644918 10.38363726272198 0 -0.52991927123019833 -0.84804809178421925 4 0 0 1 I I 0 1 4 forward I I I I #
face $-1 $133 $134 $43 $-1 $135 forward single #
loop $-1 $136 $137 $54 #
cone-surface $-1 -2.1844728824083575 32.563471362644918 10.38363726272198 0 -0.52991927123019833 -0.84804809178421925 4 0 0 1 I I 0 1 4 forward I I I I #
face $-1 $138 $139 $33 $-1 $140 reversed single #
loop $-1 $-1 $141 $55 #
plane-surface $-1 0 0 -19.900734616373366 0 0 1 1 0 0 forward_v I I I I #
coedge $-1 $142 $143 $144 $145 forward $56 $-1 #
face $-1 $146 $147 $34 $-1 $148 reversed single #
loop $-1 $-1 $149 $58 #
plane-surface $-1 0 0 -19.900734616373366 0 0 1 1 0 0 forward_v I I I I #
coedge $-1 $150 $151 $152 $153 forward $59 $-1 #
face $-1 $154 $155 $35 $-1 $156 reversed single #
loop $-1 $-1 $157 $61 #
plane-surface $-1 0.39401114192028786 -45.373962952440706 3.877157570460497 0 -0.79863551827123203 0.60181501223851219 1 0 0 forward_v I I I I #
coedge $-1 $158 $159 $160 $161 reversed $62 $-1 #
face $-1 $-1 $162 $36 $-1 $163 forward single #
loop $-1 $164 $165 $64 #
cone-surface $-1 -4.9700749937329505 -33.286082185348036 7.3295182744779339 0 0.79863551827123203 -0.60181501223851219 1 0 0 1 I I -0.70710678118654779 0.70710678118654713 1 forward I I I I #
loop $-1 $-1 $166 $47 #
coedge $-1 $104 $104 $167 $168 reversed $65 $-1 #
face $-1 $-1 $169 $37 $-1 $170 forward single #
loop $-1 $171 $172 $67 #
cone-surface $-1 5.7580972775735262 -33.286082185348036 7.3295182744779339 0 0.79863551827123203 -0.60181501223851219 1 0 0 1 I I -0.70710678118654779 0.70710678118654713 1 forward I I I I #
loop $-1 $-1 $173 $48 #
coedge $-1 $109 $109 $174 $175 reversed $68 $-1 #
face $-1 $176 $177 $38 $-1 $178 forward single #
loop $-1 $-1 $179 $70 #
plane-surface $-1 0.39401114192028786 -45.373962952440706 3.877157570460497 0 -0.79863551827123203 0.60181501223851219 1 0 0 forward_v I I I I #
coedge $-1 $180 $181 $182 $183 reversed $71 $-1 #
face $-1 $-1 $184 $39 $-1 $185 forward single #
loop $-1 $186 $187 $73 #
cone-surface $-1 20.062326972648819 -33.286082185348036 7.3295182744779339 0 0.79863551827123203 -0.60181501223851219 1 0 0 1 I I -0.70710678118654779 0.70710678118654713 1 forward I I I I #
loop $-1 $-1 $188 $50 #
coedge $-1 $118 $118 $189 $190 reversed $74 $-1 #
face $-1 $-1 $191 $40 $-1 $192 forward single #
loop $-1 $193 $194 $76 #
cone-surface $-1 30.790499243955296 -33.286082185348036 7.3295182744779339 0 0.79863551827123203 -0.60181501223851219 1 0 0 1 I I -0.70710678118654779 0.70710678118654713 1 forward I I I I #
loop $-1 $-1 $195 $51 #
coedge $-1 $123 $123 $196 $197 reversed $77 $-1 #
face $-1 $198 $199 $41 $-1 $200 reversed single #
loop $-1 $-1 $201 $79 #
plane-surface $-1 -9.2316541279442248 -31.58464244456966 53.917447854981248 0 0.52991927123019833 0.84804809178421925 1 0 0 forward_v I I I I #
coedge $-1 $202 $203 $204 $205 reversed $80 $-1 #
face $-1 $-1 $206 $42 $-1 $207 forward single #
loop $-1 $208 $209 $82 #
cone-surface $-1 -16.278835373480092 29.953384048506173 6.2066244867815925 0 -0.52991927123019833 -0.84804809178421925 2 0 0 1 I I -0.70710678118654746 0.70710678118654746 2 forward I I I I #
loop $-1 $-1 $210 $53 #
coedge $-1 $132 $132 $211 $212 reversed $83 $-1 #
face $-1 $-1 $213 $43 $-1 $214 forward single #
loop $-1 $215 $216 $85 #
cone-surface $-1 -2.1844728824083575 29.953384048506173 6.2066244867815925 0 -0.52991927123019833 -0.84804809178421925 2 0 0 1 I I -0.70710678118654746 0.70710678118654746 2 forward I I I I #
loop $-1 $-1 $217 $54 #
coedge $-1 $137 $137 $218 $219 reversed $86 $-1 #
face $-1 $220 $221 $33 $-1 $222 reversed single #
loop $-1 $-1 $223 $88 #
plane-surface $-1 0 -45.373962952440685 0 0 1 0 0 0 1 forward_v I I I I #
coedge $-1 $224 $225 $226 $227 forward $89 $-1 #
coedge $-1 $228 $91 $229 $230 forward $56 $-1 #
coedge $-1 $91 $228 $231 $232 forward $56 $-1 #
coedge $-1 $233 $234 $91 $145 reversed $235 $-1 #
edge $-1 $236 -45.373962952440685 $237 45.373962952440685 $144 $238 forward 7 unknown #
face $-1 $239 $240 $34 $-1 $241 reversed single #
loop $-1 $-1 $242 $92 #
plane-surface $-1 -91.135255613987169 -12.842969933342001 0 0 1 0 0 0 1 forward_v I I I I #
coedge $-1 $243 $244 $151 $245 forward $93 $-1 #
coedge $-1 $246 $95 $247 $248 reversed $59 $-1 #
coedge $-1 $95 $246 $149 $245 reversed $59 $-1 #
coedge $-1 $249 $250 $95 $153 reversed $251 $-1 #
edge $-1 $252 -19.900734616373366 $253 19.900734616373366 $152 $254 forward 7 unknown #
face $-1 $255 $256 $35 $-1 $257 forward single #
loop $-1 $-1 $258 $96 #
plane-surface $-1 -12.122189841270597 -170.32055924949699 98.031168579692604 1 0 0 0 0.79863551827123203 -0.60181501223851219 forward_v I I I I #
coedge $-1 $259 $260 $261 $262 reversed $97 $-1 #
coedge $-1 $159 $99 $263 $264 reversed $62 $-1 #
coedge $-1 $99 $158 $259 $265 reversed $62 $-1 #
coedge $-1 $261 $266 $99 $161 forward $256 $-1 #
edge $-1 $267 39.786316672307812 $268 51.860947709085409 $160 $269 forward 7 unknown #
loop $-1 $-1 $167 $100 #
plane-surface $-1 0.39401114192028786 -45.373962952440706 3.877157570460497 0 -0.79863551827123203 0.60181501223851219 1 0 0 forward_v I I I I #
loop $-1 $-1 $270 $64 #
coedge $-1 $165 $165 $166 $271 reversed $101 $-1 #
coedge $-1 $166 $166 $165 $271 forward $103 $-1 #
coedge $-1 $167 $167 $104 $168 forward $162 $-1 #
edge $-1 $272 3.025178545095875e-017 $272 6.2831853071796004 $167 $273 forward 7 unknown #
loop $-1 $-1 $174 $105 #
plane-surface $-1 0.39401114192028786 -45.373962952440706 3.877157570460497 0 -0.79863551827123203 0.60181501223851219 1 0 0 forward_v I I I I #
loop $-1 $-1 $274 $67 #
coedge $-1 $172 $172 $173 $275 reversed $106 $-1 #
coedge $-1 $173 $173 $172 $275 forward $108 $-1 #
coedge $-1 $174 $174 $109 $175 forward $169 $-1 #
edge $-1 $276 3.025178545095875e-017 $276 6.2831853071796004 $174 $277 forward 7 unknown #
face $-1 $278 $279 $38 $-1 $280 forward single #
loop $-1 $-1 $281 $110 #
plane-surface $-1 0 0 19.900734616373366 0 0 1 1 0 0 forward_v I I I I #
coedge $-1 $282 $283 $284 $285 reversed $111 $-1 #
coedge $-1 $181 $113 $286 $287 reversed $71 $-1 #
coedge $-1 $113 $180 $281 $288 reversed $71 $-1 #
coedge $-1 $289 $290 $113 $183 forward $291 $-1 #
edge $-1 $292 -45.138426719385777 $293 -29.114849673472936 $182 $294 forward 7 unknown #
loop $-1 $-1 $189 $114 #
plane-surface $-1 0.39401114192028786 -45.373962952440706 3.877157570460497 0 -0.79863551827123203 0.60181501223851219 1 0 0 forward_v I I I I #
loop $-1 $-1 $295 $73 #
coedge $-1 $187 $187 $188 $296 reversed $115 $-1 #
coedge $-1 $188 $188 $187 $296 forward $117 $-1 #
coedge $-1 $189 $189 $118 $190 forward $184 $-1 #
edge $-1 $297 3.025178545095875e-017 $297 6.2831853071796004 $189 $298 forward 7 unknown #
loop $-1 $-1 $196 $119 #
plane-surface $-1 0.39401114192028786 -45.373962952440706 3.877157570460497 0 -0.79863551827123203 0.60181501223851219 1 0 0 forward_v I I I I #
loop $-1 $-1 $299 $76 #
coedge $-1 $194 $194 $195 $300 reversed $120 $-1 #
coedge $-1 $195 $195 $194 $300 forward $122 $-1 #
coedge $-1 $196 $196 $123 $197 forward $191 $-1 #
edge $-1 $301 3.025178545095875e-017 $301 6.2831853071796004 $196 $302 forward 7 unknown #
face $-1 $303 $304 $41 $-1 $305 reversed single #
loop $-1 $-1 $306 $124 #
plane-surface $-1 7.2117687783061264 51.321273630581821 186.59464557593896 -1 0 0 0 0.52991927123019833 0.84804809178421925 forward_v I I I I #
coedge $-1 $307 $308 $309 $310 reversed $125 $-1 #
coedge $-1 $203 $127 $311 $312 reversed $80 $-1 #
coedge $-1 $127 $202 $307 $313 reversed $80 $-1 #
coedge $-1 $309 $314 $127 $205 forward $315 $-1 #
edge $-1 $316 -19.713326137149775 $317 2.807159499085099 $204 $318 forward 7 unknown #
loop $-1 $-1 $211 $128 #
plane-surface $-1 -9.2316541279442248 -31.58464244456966 53.917447854981248 0 0.52991927123019833 0.84804809178421925 1 0 0 forward_v I I I I #
loop $-1 $-1 $319 $82 #
coedge $-1 $209 $209 $210 $320 reversed $129 $-1 #
coedge $-1 $210 $210 $209 $320 forward $131 $-1 #
coedge $-1 $211 $211 $132 $212 forward $206 $-1 #
edge $-1 $321 -1.5064360279812292e-015 $321 6.2831853071795987 $211 $322 forward 7 unknown #
loop $-1 $-1 $218 $133 #
plane-surface $-1 -9.2316541279442248 -31.58464244456966 53.917447854981248 0 0.52991927123019833 0.84804809178421925 1 0 0 forward_v I I I I #
loop $-1 $-1 $323 $85 #
coedge $-1 $216 $216 $217 $324 reversed $134 $-1 #
coedge $-1 $217 $217 $216 $324 forward $136 $-1 #
coedge $-1 $218 $218 $137 $219 forward $213 $-1 #
edge $-1 $325 -1.5064360279812292e-015 $325 6.2831853071795987 $218 $326 forward 7 unknown #
face $-1 $327 $328 $33 $-1 $329 reversed single #
loop $-1 $-1 $330 $138 #
plane-surface $-1 -78.225043488875997 0 0 1 0 0 0 0 -1 forward_v I I I I #
coedge $-1 $331 $231 $332 $333 forward $139 $-1 #
coedge $-1 $334 $141 $331 $335 forward $89 $-1 #
coedge $-1 $141 $334 $336 $337 forward $89 $-1 #
coedge $-1 $234 $233 $141 $227 reversed $235 $-1 #
edge $-1 $338 -45.373962952440685 $339 45.373962952440685 $226 $340 forward 7 unknown #
coedge $-1 $143 $142 $341 $342 forward $56 $-1 #
coedge $-1 $343 $344 $142 $230 reversed $328 $-1 #
edge $-1 $237 -78.225043488875997 $345 78.225043488875997 $229 $346 forward 7 unknown #
coedge $-1 $223 $347 $143 $232 reversed $139 $-1 #
edge $-1 $348 -78.225043488875997 $236 78.225043488875997 $231 $349 forward 7 unknown #
coedge $-1 $226 $144 $347 $350 forward $235 $-1 #
coedge $-1 $144 $226 $343 $351 reversed $235 $-1 #
loop $-1 $-1 $233 $327 #
vertex $-1 $145 $352 #
vertex $-1 $145 $353 #
straight-curve $-1 78.225043488875997 0 19.900734616373366 0 1 0 I I #
face $-1 $354 $251 $34 $-1 $355 reversed single #
loop $-1 $-1 $356 $146 #
plane-surface $-1 -104.04546773909834 -9.2077318265179784 0 1 0 0 0 0 -1 forward_v I I I I #
coedge $-1 $357 $358 $359 $360 forward $147 $-1 #
coedge $-1 $361 $149 $357 $362 forward $93 $-1 #
coedge $-1 $149 $361 $249 $363 forward $93 $-1 #
edge $-1 $252 5.5724937196939557 $364 12.842969933342001 $149 $365 forward 7 unknown #
coedge $-1 $151 $150 $366 $367 forward $59 $-1 #
coedge $-1 $368 $369 $150 $248 forward $370 $-1 #
edge $-1 $371 -12.842969933342001 $253 -5.5724937196939557 $247 $372 forward 7 unknown #
coedge $-1 $373 $152 $244 $363 reversed $251 $-1 #
coedge $-1 $152 $373 $368 $374 reversed $251 $-1 #
loop $-1 $-1 $152 $239 #
vertex $-1 $245 $375 #
vertex $-1 $374 $376 #
straight-curve $-1 -78.225043488875997 -5.5724937196939557 0 0 0 1 I I #
face $-1 $-1 $377 $35 $-1 $378 reversed single #
loop $-1 $-1 $160 $154 #
plane-surface $-1 0 0 19.900734616373366 0 0 1 1 0 0 forward_v I I I I #
coedge $-1 $379 $380 $381 $382 reversed $155 $-1 #
coedge $-1 $383 $157 $159 $265 forward $97 $-1 #
coedge $-1 $157 $383 $379 $384 forward $97 $-1 #
coedge $-1 $381 $160 $157 $262 forward $256 $-1 #
edge $-1 $268 -12.713206554151029 $385 12.319195412230741 $261 $386 forward 7 unknown #
coedge $-1 $387 $388 $158 $264 forward $377 $-1 #
edge $-1 $389 -45.138426719385777 $267 -29.114849673472936 $263 $390 forward 7 unknown #
edge $-1 $268 -20.063691983795483 $389 -3.5527045197628586e-014 $159 $391 forward 7 unknown #
coedge $-1 $160 $381 $387 $392 forward $256 $-1 #
vertex $-1 $161 $393 #
vertex $-1 $161 $394 #
straight-curve $-1 12.910212125111173 -85.160279624748497 19.90073461637337 0 1 0 I I #
coedge $-1 $270 $270 $-1 $395 reversed $164 $-1 #
edge $-1 $396 0 $396 6.2831853071796004 $165 $397 forward 7 unknown #
vertex $-1 $168 $398 #
ellipse-curve $-1 -4.9700749937329505 -39.336647434051891 11.888946093416942 0 -0.79863551827123203 0.60181501223851219 2 0 0 1 I I #
coedge $-1 $274 $274 $-1 $399 reversed $171 $-1 #
edge $-1 $400 0 $400 6.2831853071796004 $172 $401 forward 7 unknown #
vertex $-1 $175 $402 #
ellipse-curve $-1 5.7580972775735262 -39.336647434051891 11.888946093416942 0 -0.79863551827123203 0.60181501223851219 2 0 0 1 I I #
face $-1 $-1 $291 $38 $-1 $403 reversed single #
loop $-1 $-1 $404 $176 #
plane-surface $-1 12.910212125111173 -170.32055924949699 98.031168579692604 -1 0 0 0 -0.79863551827123203 0.60181501223851219 forward_v I I I I #
coedge $-1 $405 $406 $181 $288 forward $177 $-1 #
coedge $-1 $286 $179 $405 $407 reversed $111 $-1 #
coedge $-1 $179 $286 $290 $408 reversed $111 $-1 #
coedge $-1 $409 $404 $179 $285 forward $279 $-1 #
edge $-1 $410 -20.063691983795483 $411 -3.5527045197628586e-014 $284 $412 forward 7 unknown #
coedge $-1 $283 $282 $180 $287 forward $111 $-1 #
edge $-1 $413 -20.063691983795483 $292 -3.5527045197628586e-014 $180 $414 forward 7 unknown #
edge $-1 $293 39.786316672307812 $413 51.860947709085409 $281 $415 forward 7 unknown #
coedge $-1 $416 $182 $406 $417 reversed $291 $-1 #
coedge $-1 $182 $416 $283 $408 forward $291 $-1 #
loop $-1 $-1 $182 $278 #
vertex $-1 $183 $418 #
vertex $-1 $288 $419 #
straight-curve $-1 37.942614091492942 -45.373962952440685 49.015584289846302 0 0 1 I I #
coedge $-1 $295 $295 $-1 $420 reversed $186 $-1 #
edge $-1 $421 0 $421 6.2831853071796004 $187 $422 forward 7 unknown #
vertex $-1 $190 $423 #
ellipse-curve $-1 20.062326972648819 -39.336647434051891 11.888946093416942 0 -0.79863551827123203 0.60181501223851219 2 0 0 1 I I #
coedge $-1 $299 $299 $-1 $424 reversed $193 $-1 #
edge $-1 $425 0 $425 6.2831853071796004 $194 $426 forward 7 unknown #
vertex $-1 $197 $427 #
ellipse-curve $-1 30.790499243955296 -39.336647434051891 11.888946093416942 0 -0.79863551827123203 0.60181501223851219 2 0 0 1 I I #
face $-1 $-1 $315 $41 $-1 $428 forward single #
loop $-1 $-1 $429 $198 #
plane-surface $-1 0 45.373962952440685 0 0 -1 0 0 0 -1 forward_v I I I I #
coedge $-1 $430 $431 $432 $433 reversed $199 $-1 #
coedge $-1 $434 $201 $203 $313 forward $125 $-1 #
coedge $-1 $201 $434 $430 $435 forward $125 $-1 #
coedge $-1 $432 $204 $201 $310 forward $315 $-1 #
edge $-1 $317 -21.059249970222464 $436 11.827595842278239 $309 $437 forward 7 unknown #
coedge $-1 $438 $439 $202 $312 forward $304 $-1 #
edge $-1 $440 -87.468949694154986 $316 -73.396588171596107 $311 $441 forward 7 unknown #
edge $-1 $317 64.192255472496157 $440 90.747925904881356 $203 $442 forward 7 unknown #
coedge $-1 $204 $432 $438 $443 forward $315 $-1 #
loop $-1 $-1 $432 $303 #
vertex $-1 $312 $444 #
vertex $-1 $205 $445 #
straight-curve $-1 -25.675077034194576 25.660636815290911 19.90073461637337 0 -1 0 I I #
coedge $-1 $319 $319 $-1 $446 reversed $208 $-1 #
edge $-1 $447 0 $447 6.2831853071796004 $209 $448 forward 7 unknown #
vertex $-1 $212 $449 #
ellipse-curve $-1 -16.278835373480092 34.113720134323266 12.864553855093931 0 0.52991927123019833 0.84804809178421925 4 0 0 1 I I #
coedge $-1 $323 $323 $-1 $450 reversed $215 $-1 #
edge $-1 $451 0 $451 6.2831853071796004 $216 $452 forward 7 unknown #
vertex $-1 $219 $453 #
ellipse-curve $-1 -2.1844728824083575 34.113720134323266 12.864553855093931 0 0.52991927123019833 0.84804809178421925 4 0 0 1 I I #
face $-1 $-1 $235 $33 $-1 $454 reversed single #
loop $-1 $-1 $343 $220 #
plane-surface $-1 0 45.373962952440685 0 0 -1 0 0 0 -1 forward_v I I I I #
coedge $-1 $455 $341 $344 $456 forward $221 $-1 #
coedge $-1 $347 $223 $224 $335 reversed $139 $-1 #
coedge $-1 $341 $455 $223 $333 reversed $221 $-1 #
edge $-1 $348 -19.900734616373366 $457 19.900734616373366 $332 $458 forward 7 unknown #
coedge $-1 $225 $224 $455 $459 forward $89 $-1 #
edge $-1 $339 -78.225043488875997 $457 78.225043488875997 $331 $460 forward 7 unknown #
coedge $-1 $344 $343 $225 $337 reversed $328 $-1 #
edge $-1 $461 -78.225043488875997 $338 78.225043488875997 $336 $462 forward 7 unknown #
vertex $-1 $227 $463 #
vertex $-1 $350 $464 #
straight-curve $-1 78.225043488875997 0 -19.900734616373366 0 -1 0 I I #
coedge $-1 $330 $332 $228 $342 reversed $221 $-1 #
edge $-1 $345 -45.373962952440685 $348 45.373962952440685 $341 $465 forward 7 unknown #
coedge $-1 $336 $229 $234 $351 forward $328 $-1 #
coedge $-1 $229 $336 $330 $456 reversed $328 $-1 #
vertex $-1 $230 $466 #
straight-curve $-1 0 45.373962952440685 19.900734616373366 -1 0 0 I I #
coedge $-1 $231 $331 $233 $350 reversed $139 $-1 #
vertex $-1 $342 $467 #
straight-curve $-1 0 -45.373962952440685 19.900734616373366 1 0 0 I I #
edge $-1 $236 -19.900734616373366 $339 19.900734616373366 $233 $468 forward 7 unknown #
edge $-1 $237 -19.900734616373366 $338 19.900734616373366 $234 $469 forward 7 unknown #
point $-1 78.225043488875997 -45.373962952440685 19.900734616373366 #
point $-1 78.225043488875997 45.373962952440685 19.900734616373366 #
face $-1 $-1 $370 $34 $-1 $470 forward single #
plane-surface $-1 -91.135255613987169 -5.5724937196939557 0 0 -1 0 0 0 -1 forward_v I I I I #
coedge $-1 $471 $472 $373 $473 forward $240 $-1 #
coedge $-1 $366 $242 $243 $362 reversed $147 $-1 #
coedge $-1 $242 $366 $369 $474 reversed $147 $-1 #
coedge $-1 $472 $471 $242 $360 reversed $240 $-1 #
edge $-1 $475 -19.900734616373366 $476 19.900734616373366 $359 $477 forward 7 unknown #
coedge $-1 $244 $243 $471 $478 forward $93 $-1 #
edge $-1 $364 -12.910212125111173 $476 12.910212125111173 $357 $479 forward 7 unknown #
edge $-1 $480 -12.910212125111173 $252 12.910212125111173 $249 $481 forward 7 unknown #
vertex $-1 $362 $482 #
straight-curve $-1 -78.225043488875997 0 -19.900734616373366 0 -1 0 I I #
coedge $-1 $358 $357 $246 $367 reversed $147 $-1 #
edge $-1 $371 -19.900734616373366 $364 19.900734616373366 $366 $483 forward 7 unknown #
coedge $-1 $484 $247 $250 $374 forward $370 $-1 #
coedge $-1 $247 $484 $358 $474 forward $370 $-1 #
loop $-1 $-1 $247 $354 #
vertex $-1 $248 $485 #
straight-curve $-1 -78.225043488875997 0 19.900734616373366 0 1 0 I I #
coedge $-1 $250 $249 $356 $473 reversed $251 $-1 #
edge $-1 $253 -12.910212125111173 $486 12.910212125111173 $250 $487 forward 7 unknown #
point $-1 -78.225043488875997 -5.5724937196939557 -19.900734616373366 #
point $-1 -78.225043488875997 -5.5724937196939557 19.900734616373366 #
loop $-1 $-1 $263 $255 #
plane-surface $-1 0 -45.373962952440685 0 0 1 0 0 0 1 forward_v I I I I #
coedge $-1 $380 $258 $260 $384 reversed $155 $-1 #
coedge $-1 $258 $379 $488 $489 reversed $155 $-1 #
coedge $-1 $266 $261 $258 $382 forward $256 $-1 #
edge $-1 $385 -51.860947709085409 $490 -39.786316672307812 $381 $491 forward 7 unknown #
coedge $-1 $260 $259 $388 $492 reversed $97 $-1 #
edge $-1 $493 3.5527045197628586e-014 $385 20.063691983795483 $379 $494 forward 7 unknown #
vertex $-1 $262 $495 #
straight-curve $-1 0.19700557096014393 -33.299331915663089 19.900734616373366 -1 0 0 I I #
coedge $-1 $488 $263 $266 $392 reversed $377 $-1 #
coedge $-1 $263 $488 $383 $492 forward $377 $-1 #
vertex $-1 $264 $496 #
straight-curve $-1 12.910212125111173 -45.373962952440685 49.015584289846302 0 0 1 I I #
straight-curve $-1 12.910212125111173 -45.373962952440706 3.877157570460497 0 -0.60181501223851219 -0.79863551827123203 I I #
edge $-1 $490 -12.122189841270597 $267 12.910212125111173 $387 $497 forward 7 unknown #
point $-1 12.910212125111173 -45.373962952440685 19.900734616373366 #
point $-1 12.910212125111173 -33.299331915663089 19.900734616373366 #
edge $-1 $498 1 $498 0 $270 $-1 forward 7 unknown #
vertex $-1 $271 $499 #
ellipse-curve $-1 -4.9700749937329505 -34.084717703619269 7.9313332867164457 0 -0.79863551827123203 0.60181501223851219 2 0 0 1 I I #
point $-1 -2.9700749937329505 -39.336647434051869 11.888946093416926 #
edge $-1 $500 1 $500 0 $274 $-1 forward 7 unknown #
vertex $-1 $275 $501 #
ellipse-curve $-1 5.7580972775735262 -34.084717703619269 7.9313332867164457 0 -0.79863551827123203 0.60181501223851219 2 0 0 1 I I #
point $-1 7.7580972775735262 -39.336647434051869 11.888946093416926 #
plane-surface $-1 0 -45.373962952440685 0 0 1 0 0 0 1 forward_v I I I I #
coedge $-1 $284 $409 $502 $503 reversed $279 $-1 #
coedge $-1 $502 $281 $282 $407 forward $177 $-1 #
coedge $-1 $281 $502 $289 $417 forward $177 $-1 #
edge $-1 $413 -37.745608520532798 $410 -12.713206554151029 $405 $504 forward 7 unknown #
edge $-1 $411 12.713206554151029 $292 37.745608520532798 $290 $505 forward 7 unknown #
coedge $-1 $404 $284 $416 $506 reversed $279 $-1 #
vertex $-1 $407 $507 #
vertex $-1 $408 $508 #
straight-curve $-1 12.910212125111173 -45.373962952440706 3.877157570460497 0 -0.60181501223851219 -0.79863551827123203 I I #
vertex $-1 $288 $509 #
straight-curve $-1 37.942614091492942 -45.373962952440706 3.877157570460497 0 -0.60181501223851219 -0.79863551827123203 I I #
straight-curve $-1 37.942614091492942 -85.160279624748497 19.90073461637337 0 1 0 I I #
coedge $-1 $290 $289 $409 $506 forward $291 $-1 #
edge $-1 $510 12.910212125111173 $293 37.942614091492942 $289 $511 forward 7 unknown #
point $-1 37.942614091492942 -45.373962952440685 3.8771575704605254 #
point $-1 37.942614091492942 -45.373962952440685 19.900734616373366 #
edge $-1 $512 1 $512 0 $295 $-1 forward 7 unknown #
vertex $-1 $296 $513 #
ellipse-curve $-1 20.062326972648819 -34.084717703619269 7.9313332867164457 0 -0.79863551827123203 0.60181501223851219 2 0 0 1 I I #
point $-1 22.062326972648819 -39.336647434051869 11.888946093416926 #
edge $-1 $514 1 $514 0 $299 $-1 forward 7 unknown #
vertex $-1 $300 $515 #
ellipse-curve $-1 30.790499243955296 -34.084717703619269 7.9313332867164457 0 -0.79863551827123203 0.60181501223851219 2 0 0 1 I I #
point $-1 32.790499243955296 -39.336647434051869 11.888946093416926 #
plane-surface $-1 0 0 19.900734616373366 0 0 1 1 0 0 forward_v I I I I #
coedge $-1 $439 $438 $431 $516 forward $304 $-1 #
coedge $-1 $431 $306 $308 $435 reversed $199 $-1 #
coedge $-1 $306 $430 $429 $516 reversed $199 $-1 #
coedge $-1 $314 $309 $306 $433 forward $315 $-1 #
edge $-1 $436 -2.807159499085099 $517 19.713326137149775 $432 $518 forward 7 unknown #
coedge $-1 $308 $307 $439 $519 reversed $125 $-1 #
edge $-1 $520 -90.747925904881356 $436 -64.192255472496157 $430 $521 forward 7 unknown #
vertex $-1 $310 $522 #
straight-curve $-1 -4.6158270639721124 22.853477316205829 19.900734616373363 1 0 0 I I #
coedge $-1 $429 $311 $314 $443 reversed $304 $-1 #
coedge $-1 $311 $429 $434 $519 forward $304 $-1 #
vertex $-1 $312 $523 #
straight-curve $-1 -25.675077034194576 45.373962952440685 93.297322787969478 0 0 1 I I #
straight-curve $-1 -25.675077034194576 -31.58464244456966 53.917447854981248 0 0.84804809178421925 -0.52991927123019833 I I #
edge $-1 $517 -7.2117687783061264 $316 25.675077034194576 $438 $524 forward 7 unknown #
point $-1 -25.675077034194576 45.373962952440685 19.900734616373366 #
point $-1 -25.675077034194576 22.853477316205812 19.90073461637337 #
edge $-1 $525 1 $525 0 $319 $-1 forward 7 unknown #
vertex $-1 $320 $526 #
ellipse-curve $-1 -16.278835373480092 31.013222590966571 7.902720670350031 0 0.52991927123019833 0.84804809178421925 4 0 0 1 I I #
point $-1 -12.278835373480092 34.113720134323259 12.864553855093931 #
edge $-1 $527 1 $527 0 $323 $-1 forward 7 unknown #
vertex $-1 $324 $528 #
ellipse-curve $-1 -2.1844728824083575 31.013222590966571 7.902720670350031 0 0.52991927123019833 0.84804809178421925 4 0 0 1 I I #
point $-1 1.8155271175916425 34.113720134323259 12.864553855093931 #
plane-surface $-1 78.225043488875997 0 0 -1 0 0 0 0 1 forward_v I I I I #
coedge $-1 $332 $330 $334 $459 reversed $221 $-1 #
edge $-1 $345 -19.900734616373366 $461 19.900734616373366 $344 $529 forward 7 unknown #
vertex $-1 $459 $530 #
straight-curve $-1 -78.225043488875997 -45.373962952440685 0 0 0 -1 I I #
edge $-1 $457 -45.373962952440685 $461 45.373962952440685 $455 $531 forward 7 unknown #
straight-curve $-1 0 -45.373962952440685 -19.900734616373366 -1 0 0 I I #
vertex $-1 $337 $532 #
straight-curve $-1 0 45.373962952440685 -19.900734616373366 1 0 0 I I #
point $-1 78.225043488875997 45.373962952440685 -19.900734616373366 #
point $-1 78.225043488875997 -45.373962952440685 -19.900734616373366 #
straight-curve $-1 -78.225043488875997 0 19.900734616373366 0 -1 0 I I #
point $-1 -78.225043488875997 45.373962952440685 19.900734616373366 #
point $-1 -78.225043488875997 -45.373962952440685 19.900734616373366 #
straight-curve $-1 78.225043488875997 -45.373962952440685 0 0 0 -1 I I #
straight-curve $-1 78.225043488875997 45.373962952440685 0 0 0 -1 I I #
plane-surface $-1 0 0 19.900734616373366 0 0 1 1 0 0 forward_v I I I I #
coedge $-1 $359 $356 $361 $478 reversed $240 $-1 #
coedge $-1 $356 $359 $484 $533 reversed $240 $-1 #
edge $-1 $486 -19.900734616373366 $480 19.900734616373366 $373 $534 forward 7 unknown #
edge $-1 $475 -12.910212125111173 $371 12.910212125111173 $358 $535 forward 7 unknown #
vertex $-1 $533 $536 #
vertex $-1 $478 $537 #
straight-curve $-1 -104.04546773909834 -12.842969933342001 0 0 0 -1 I I #
edge $-1 $476 -3.6352381068240227 $480 3.6352381068240227 $471 $538 forward 7 unknown #
straight-curve $-1 -91.135255613987169 -12.842969933342001 -19.900734616373366 -1 0 0 I I #
vertex $-1 $363 $539 #
straight-curve $-1 -91.135255613987169 -5.5724937196939557 -19.900734616373366 1 0 0 I I #
point $-1 -78.225043488875997 -12.842969933342001 -19.900734616373366 #
straight-curve $-1 -78.225043488875997 -12.842969933342001 0 0 0 -1 I I #
coedge $-1 $369 $368 $472 $533 forward $370 $-1 #
point $-1 -78.225043488875997 -12.842969933342001 19.900734616373366 #
vertex $-1 $374 $540 #
straight-curve $-1 -91.135255613987169 -5.5724937196939557 19.900734616373366 -1 0 0 I I #
coedge $-1 $388 $387 $380 $489 forward $377 $-1 #
edge $-1 $490 29.114849673472936 $493 45.138426719385777 $488 $541 forward 7 unknown #
vertex $-1 $392 $542 #
straight-curve $-1 -12.122189841270597 -85.160279624748497 19.90073461637337 0 -1 0 I I #
edge $-1 $493 -12.319195412230741 $389 12.713206554151029 $388 $543 forward 7 unknown #
vertex $-1 $492 $544 #
straight-curve $-1 -12.122189841270597 -45.373962952440706 3.877157570460497 0 0.60181501223851219 0.79863551827123203 I I #
point $-1 -12.122189841270597 -33.299331915663089 19.900734616373366 #
point $-1 12.910212125111173 -45.373962952440685 3.8771575704605254 #
straight-curve $-1 0 -45.373962952440685 19.900734616373366 1 0 0 I I #
vertex $-1 $395 $545 #
point $-1 -2.9700749937329505 -34.084717703619269 7.9313332867164457 #
vertex $-1 $399 $546 #
point $-1 7.7580972775735262 -34.084717703619269 7.9313332867164457 #
coedge $-1 $406 $405 $404 $503 forward $177 $-1 #
edge $-1 $410 -51.860947709085409 $510 -39.786316672307812 $502 $547 forward 7 unknown #
straight-curve $-1 0.19700557096014393 -33.299331915663089 19.900734616373366 -1 0 0 I I #
straight-curve $-1 0.19700557096014393 -45.373962952440685 3.8771575704605188 1 0 0 I I #
edge $-1 $510 29.114849673472936 $411 45.138426719385777 $416 $548 forward 7 unknown #
point $-1 12.910212125111173 -33.299331915663089 19.900734616373366 #
point $-1 12.910212125111173 -45.373962952440685 3.8771575704605254 #
point $-1 37.942614091492942 -33.299331915663089 19.900734616373366 #
vertex $-1 $417 $549 #
straight-curve $-1 0 -45.373962952440685 19.900734616373366 1 0 0 I I #
vertex $-1 $420 $550 #
point $-1 22.062326972648819 -34.084717703619269 7.9313332867164457 #
vertex $-1 $424 $551 #
point $-1 32.790499243955296 -34.084717703619269 7.9313332867164457 #
edge $-1 $517 73.396588171596107 $520 87.468949694154986 $429 $552 forward 7 unknown #
vertex $-1 $443 $553 #
straight-curve $-1 7.2117687783061264 25.660636815290911 19.90073461637337 0 1 0 I I #
edge $-1 $520 -11.827595842278239 $440 21.059249970222464 $439 $554 forward 7 unknown #
vertex $-1 $519 $555 #
straight-curve $-1 7.2117687783061264 -31.58464244456966 53.917447854981248 0 -0.84804809178421925 0.52991927123019833 I I #
point $-1 7.2117687783061264 22.853477316205812 19.90073461637337 #
point $-1 -25.675077034194576 45.373962952440685 5.8283730938144913 #
straight-curve $-1 0 45.373962952440685 19.900734616373366 -1 0 0 I I #
vertex $-1 $446 $556 #
point $-1 -12.278835373480092 31.013222590966571 7.902720670350031 #
vertex $-1 $450 $557 #
point $-1 1.8155271175916425 31.013222590966571 7.902720670350031 #
straight-curve $-1 -78.225043488875997 45.373962952440685 0 0 0 -1 I I #
point $-1 -78.225043488875997 -45.373962952440685 -19.900734616373366 #
straight-curve $-1 -78.225043488875997 0 -19.900734616373366 0 1 0 I I #
point $-1 -78.225043488875997 45.373962952440685 -19.900734616373366 #
edge $-1 $486 -3.6352381068240227 $475 3.6352381068240227 $472 $558 forward 7 unknown #
straight-curve $-1 -104.04546773909834 -5.5724937196939557 0 0 0 -1 I I #
straight-curve $-1 -91.135255613987169 -12.842969933342001 19.900734616373366 1 0 0 I I #
point $-1 -104.04546773909834 -12.842969933342001 19.900734616373366 #
point $-1 -104.04546773909834 -12.842969933342001 -19.900734616373366 #
straight-curve $-1 -104.04546773909834 -9.2077318265179784 -19.900734616373366 0 1 0 I I #
point $-1 -104.04546773909834 -5.5724937196939557 -19.900734616373366 #
point $-1 -104.04546773909834 -5.5724937196939557 19.900734616373366 #
straight-curve $-1 -12.122189841270597 -45.373962952440685 49.015584289846302 0 0 -1 I I #
point $-1 -12.122189841270597 -45.373962952440685 19.900734616373366 #
straight-curve $-1 0.19700557096014393 -45.373962952440685 3.8771575704605188 1 0 0 I I #
point $-1 -12.122189841270597 -45.373962952440685 3.8771575704605254 #
point $-1 -4.9700749937329505 -32.487446667076803 6.7277032622394222 #
point $-1 5.7580972775735262 -32.487446667076803 6.7277032622394222 #
straight-curve $-1 12.910212125111173 -85.160279624748497 19.90073461637337 0 -1 0 I I #
straight-curve $-1 12.910212125111173 -45.373962952440685 49.015584289846302 0 0 -1 I I #
point $-1 12.910212125111173 -45.373962952440685 19.900734616373366 #
point $-1 20.062326972648819 -32.487446667076803 6.7277032622394222 #
point $-1 30.790499243955296 -32.487446667076803 6.7277032622394222 #
straight-curve $-1 7.2117687783061264 45.373962952440685 93.297322787969478 0 0 -1 I I #
point $-1 7.2117687783061264 45.373962952440685 19.900734616373366 #
straight-curve $-1 -4.6158270639721124 45.373962952440692 5.8283730938144878 -1 0 0 I I #
point $-1 7.2117687783061264 45.373962952440685 5.8283730938144913 #
point $-1 -16.278835373480092 28.893545506045776 4.510528303213154 #
point $-1 -2.1844728824083575 28.893545506045776 4.510528303213154 #
straight-curve $-1 -104.04546773909834 -9.2077318265179784 19.900734616373366 0 -1 0 I I #
End-of-ACIS-data 