500 0 5 0           
7 Unknown 11 ACIS 5.0 NT 24 Thu Mar 25 19:21:58 1999 
-1 9.9999999999999995e-007 1e-010 
body $-1 $5 $-1 $6 #
body $-1 $7 $-1 $8 #
body $-1 $9 $-1 $10 #
body $-1 $11 $-1 $12 #
body $-1 $13 $-1 $14 #
lump $-1 $-1 $15 $0 #
transform $-1 1 0 0 0 1 0 0 0 1 74.354075746940524 50.795948863503305 24.244148181588212 1 rotate no_reflect no_shear #
lump $-1 $-1 $16 $1 #
transform $-1 1 0 0 0 1 0 0 0 1 74.354075746940524 50.795948863503305 24.244148181588212 1 rotate no_reflect no_shear #
lump $-1 $-1 $17 $2 #
transform $-1 1 0 0 0 1 0 0 0 1 74.354075746940524 50.795948863503305 24.244148181588212 1 rotate no_reflect no_shear #
lump $-1 $-1 $18 $3 #
transform $-1 1 0 0 0 1 0 0 0 1 74.354075746940524 50.795948863503305 24.244148181588212 1 rotate no_reflect no_shear #
lump $-1 $-1 $19 $4 #
transform $-1 1 0 0 0 1 0 0 0 1 74.354075746940524 50.795948863503305 24.244148181588212 1 rotate no_reflect no_shear #
shell $-1 $-1 $-1 $20 $-1 $5 #
shell $-1 $-1 $-1 $21 $-1 $7 #
shell $-1 $-1 $-1 $22 $-1 $9 #
shell $-1 $-1 $-1 $23 $-1 $11 #
shell $-1 $-1 $-1 $24 $-1 $13 #
face $-1 $25 $26 $15 $-1 $27 forward single #
face $-1 $28 $29 $16 $-1 $30 forward single #
face $-1 $31 $32 $17 $-1 $33 forward single #
face $-1 $34 $35 $18 $-1 $36 reversed single #
face $-1 $37 $38 $19 $-1 $39 reversed single #
face $-1 $40 $41 $15 $-1 $42 reversed single #
loop $-1 $-1 $43 $20 #
plane-surface $-1 0 0 24.244148181588212 0 0 1 1 0 0 forward_v I I I I #
face $-1 $44 $45 $16 $-1 $46 forward single #
loop $-1 $-1 $47 $21 #
plane-surface $-1 0 -37.982390853947429 17.011967914375703 0 0 1 1 0 0 forward_v I I I I #
face $-1 $48 $49 $17 $-1 $50 forward single #
loop $-1 $-1 $51 $22 #
plane-surface $-1 -56.398089499022184 108.4200313290637 186.64563244229066 -1 0 0 0 0.79863551827123203 0.60181501223851219 forward_v I I I I #
face $-1 $52 $53 $18 $-1 $54 reversed single #
loop $-1 $55 $56 $23 #
cone-surface $-1 -69.223793961821002 44.423071498147877 17.663903912423375 0 -0.79863551827123203 -0.60181501223851219 2.5 0 0 1 I I 0 1 2.5 forward I I I I #
face $-1 $57 $58 $19 $-1 $59 reversed single #
loop $-1 $60 $61 $24 #
cone-surface $-1 -61.528371284141706 44.423071498147877 17.663903912423375 0 -0.79863551827123203 -0.60181501223851219 2.5 0 0 1 I I 0 1 2.5 forward I I I I #
face $-1 $62 $63 $15 $-1 $64 reversed single #
loop $-1 $-1 $65 $25 #
plane-surface $-1 0 0 -24.244148181588212 0 0 1 1 0 0 forward_v I I I I #
coedge $-1 $66 $67 $68 $69 forward $26 $-1 #
face $-1 $70 $71 $16 $-1 $72 forward single #
loop $-1 $-1 $73 $28 #
plane-surface $-1 0 -25.168832844391552 20.628058047981956 0 -1 0 0 0 -1 forward_v I I I I #
coedge $-1 $74 $75 $76 $77 reversed $29 $-1 #
face $-1 $78 $79 $17 $-1 $80 reversed single #
loop $-1 $-1 $81 $31 #
plane-surface $-1 -65.376082622981357 -10.343580310408868 97.150834431034113 0 0.79863551827123203 0.60181501223851219 1 0 0 forward_v I I I I #
coedge $-1 $82 $83 $84 $85 reversed $32 $-1 #
face $-1 $86 $87 $18 $-1 $88 forward single #
loop $-1 $89 $90 $34 #
cone-surface $-1 -69.223793961821002 40.152100751498388 14.445496699920394 0 -0.79863551827123203 -0.60181501223851219 1.25 0 0 1 I I -0.70710678118654746 0.70710678118654746 1.25 forward I I I I #
loop $-1 $-1 $91 $23 #
coedge $-1 $56 $56 $92 $93 reversed $35 $-1 #
face $-1 $94 $95 $19 $-1 $96 reversed single #
loop $-1 $97 $98 $37 #
cone-surface $-1 -61.528371284141706 40.152100751498388 14.445496699920394 0 -0.79863551827123203 -0.60181501223851219 1.25 0 0 1 I I -0.70710678118654746 0.70710678118654746 1.25 forward I I I I #
loop $-1 $-1 $99 $24 #
coedge $-1 $61 $61 $100 $101 reversed $38 $-1 #
face $-1 $102 $103 $15 $-1 $104 reversed single #
loop $-1 $-1 $105 $40 #
plane-surface $-1 0 -50.795948863503305 0 0 1 0 0 0 1 forward_v I I I I #
coedge $-1 $106 $107 $108 $109 forward $41 $-1 #
coedge $-1 $110 $43 $111 $112 forward $26 $-1 #
coedge $-1 $43 $110 $113 $114 forward $26 $-1 #
coedge $-1 $115 $116 $43 $69 reversed $117 $-1 #
edge $-1 $118 -50.795948863503305 $119 50.795948863503305 $68 $120 forward 7 unknown #
face $-1 $121 $122 $16 $-1 $123 reversed single #
loop $-1 $-1 $124 $44 #
plane-surface $-1 0 0 24.244148181588212 0 0 1 1 0 0 forward_v I I I I #
coedge $-1 $125 $126 $127 $128 reversed $45 $-1 #
coedge $-1 $129 $47 $126 $130 reversed $29 $-1 #
coedge $-1 $47 $129 $131 $132 reversed $29 $-1 #
coedge $-1 $133 $127 $47 $77 forward $122 $-1 #
edge $-1 $134 6.1776374174178379 $135 31.804753436529591 $76 $136 forward 7 unknown #
face $-1 $137 $138 $17 $-1 $139 forward single #
loop $-1 $-1 $140 $48 #
plane-surface $-1 0 50.795948863503305 0 0 -1 0 0 0 -1 forward_v I I I I #
coedge $-1 $141 $142 $140 $143 reversed $49 $-1 #
coedge $-1 $83 $51 $142 $144 forward $32 $-1 #
coedge $-1 $51 $82 $145 $146 reversed $32 $-1 #
coedge $-1 $147 $140 $51 $85 forward $79 $-1 #
edge $-1 $148 -77.306879683477149 $149 -69.078668039557115 $84 $150 forward 7 unknown #
face $-1 $151 $152 $18 $-1 $153 forward single #
loop $-1 $-1 $154 $52 #
plane-surface $-1 -56.398089499022184 108.4200313290637 186.64563244229066 -1 0 0 0 0.79863551827123203 0.60181501223851219 forward_v I I I I #
loop $-1 $-1 $155 $34 #
coedge $-1 $90 $90 $91 $156 forward $53 $-1 #
coedge $-1 $91 $91 $90 $156 reversed $55 $-1 #
coedge $-1 $92 $92 $56 $93 forward $152 $-1 #
edge $-1 $157 5.5939752324070413e-016 $157 6.2831853071796013 $92 $158 forward 7 unknown #
face $-1 $159 $160 $19 $-1 $161 reversed single #
loop $-1 $162 $163 $57 #
cone-surface $-1 -69.223793961821002 44.423071498147877 17.663903912423375 0 -0.79863551827123203 -0.60181501223851219 2.5 0 0 1 I I 0 1 2.5 forward I I I I #
loop $-1 $-1 $164 $37 #
coedge $-1 $98 $98 $99 $165 forward $58 $-1 #
coedge $-1 $99 $99 $98 $165 reversed $60 $-1 #
coedge $-1 $100 $100 $61 $101 forward $166 $-1 #
edge $-1 $167 5.5939752324070413e-016 $167 6.2831853071796013 $100 $168 forward 7 unknown #
face $-1 $169 $170 $15 $-1 $171 reversed single #
loop $-1 $-1 $172 $62 #
plane-surface $-1 -74.354075746940524 0 0 1 0 0 0 0 -1 forward_v I I I I #
coedge $-1 $173 $113 $174 $175 forward $63 $-1 #
coedge $-1 $176 $65 $173 $177 forward $41 $-1 #
coedge $-1 $65 $176 $178 $179 forward $41 $-1 #
coedge $-1 $116 $115 $65 $109 reversed $117 $-1 #
edge $-1 $180 -50.795948863503305 $181 50.795948863503305 $108 $182 forward 7 unknown #
coedge $-1 $67 $66 $183 $184 forward $26 $-1 #
coedge $-1 $185 $186 $66 $112 reversed $170 $-1 #
edge $-1 $119 -74.354075746940524 $187 74.354075746940524 $111 $188 forward 7 unknown #
coedge $-1 $105 $189 $67 $114 reversed $63 $-1 #
edge $-1 $190 -74.354075746940524 $118 74.354075746940524 $113 $191 forward 7 unknown #
coedge $-1 $108 $68 $189 $192 forward $117 $-1 #
coedge $-1 $68 $108 $185 $193 reversed $117 $-1 #
loop $-1 $-1 $115 $169 #
vertex $-1 $69 $194 #
vertex $-1 $69 $195 #
straight-curve $-1 74.354075746940524 0 24.244148181588212 0 1 0 I I #
face $-1 $196 $197 $16 $-1 $198 reversed single #
loop $-1 $-1 $127 $70 #
plane-surface $-1 74.354075746940524 0 0 -1 0 0 0 0 1 forward_v I I I I #
coedge $-1 $199 $200 $125 $201 forward $71 $-1 #
coedge $-1 $202 $73 $124 $201 reversed $45 $-1 #
coedge $-1 $73 $202 $74 $130 forward $45 $-1 #
coedge $-1 $76 $203 $73 $128 forward $122 $-1 #
edge $-1 $204 -13.930119157597231 $134 -6.6979388903847248 $127 $205 forward 7 unknown #
coedge $-1 $75 $74 $206 $207 reversed $29 $-1 #
edge $-1 $208 -74.354075746940524 $134 74.354075746940524 $126 $209 forward 7 unknown #
coedge $-1 $210 $211 $75 $132 forward $212 $-1 #
edge $-1 $135 -74.354075746940524 $213 74.354075746940524 $131 $214 forward 7 unknown #
coedge $-1 $215 $76 $211 $216 forward $122 $-1 #
vertex $-1 $77 $217 #
vertex $-1 $216 $218 #
straight-curve $-1 74.354075746940524 -18.991195426973714 17.011967914375703 0 -1 0 I I #
face $-1 $219 $220 $17 $-1 $221 forward single #
loop $-1 $-1 $145 $78 #
plane-surface $-1 0 0 24.244148181588212 0 0 1 1 0 0 forward_v I I I I #
coedge $-1 $84 $222 $81 $143 forward $79 $-1 #
coedge $-1 $223 $81 $224 $225 reversed $49 $-1 #
coedge $-1 $81 $223 $82 $144 reversed $49 $-1 #
edge $-1 $226 -41.666034435449845 $148 -23.710048187531505 $140 $227 forward 7 unknown #
edge $-1 $148 -101.59189772700663 $228 -91.289060630891427 $82 $229 forward 7 unknown #
coedge $-1 $230 $231 $83 $146 forward $138 $-1 #
edge $-1 $149 3.4140668010285466 $228 9.6144688341185116 $145 $232 forward 7 unknown #
coedge $-1 $233 $84 $231 $234 reversed $79 $-1 #
vertex $-1 $143 $235 #
vertex $-1 $146 $236 #
straight-curve $-1 -56.398089499022184 50.795948863503305 93.322816221145331 0 0 1 I I #
face $-1 $237 $238 $18 $-1 $239 reversed single #
loop $-1 $240 $92 $86 #
plane-surface $-1 -65.376082622981357 -10.343580310408868 97.150834431034113 0 0.79863551827123203 0.60181501223851219 1 0 0 forward_v I I I I #
coedge $-1 $241 $242 $243 $244 reversed $87 $-1 #
coedge $-1 $155 $155 $-1 $245 forward $89 $-1 #
edge $-1 $246 0 $246 6.2831853071796004 $90 $247 forward 7 unknown #
vertex $-1 $93 $248 #
ellipse-curve $-1 -69.223793961821002 47.695747846958312 20.130042359628206 0 -0.79863551827123203 -0.60181501223851219 2.5 0 0 1 I I #
face $-1 $249 $250 $19 $-1 $251 forward single #
loop $-1 $252 $253 $94 #
cone-surface $-1 -69.223793961821002 40.152100751498388 14.445496699920394 0 -0.79863551827123203 -0.60181501223851219 1.25 0 0 1 I I -0.70710678118654746 0.70710678118654746 1.25 forward I I I I #
loop $-1 $-1 $254 $57 #
coedge $-1 $163 $163 $255 $256 reversed $95 $-1 #
coedge $-1 $164 $164 $-1 $257 forward $97 $-1 #
edge $-1 $258 0 $258 6.2831853071796004 $98 $259 forward 7 unknown #
loop $-1 $260 $100 $249 #
vertex $-1 $101 $261 #
ellipse-curve $-1 -61.528371284141706 47.695747846958312 20.130042359628206 0 -0.79863551827123203 -0.60181501223851219 2.5 0 0 1 I I #
face $-1 $-1 $117 $15 $-1 $262 reversed single #
loop $-1 $-1 $185 $102 #
plane-surface $-1 0 50.795948863503305 0 0 -1 0 0 0 -1 forward_v I I I I #
coedge $-1 $263 $183 $186 $264 forward $103 $-1 #
coedge $-1 $189 $105 $106 $177 reversed $63 $-1 #
coedge $-1 $183 $263 $105 $175 reversed $103 $-1 #
edge $-1 $190 -24.244148181588212 $265 24.244148181588212 $174 $266 forward 7 unknown #
coedge $-1 $107 $106 $263 $267 forward $41 $-1 #
edge $-1 $181 -74.354075746940524 $265 74.354075746940524 $173 $268 forward 7 unknown #
coedge $-1 $186 $185 $107 $179 reversed $170 $-1 #
edge $-1 $269 -74.354075746940524 $180 74.354075746940524 $178 $270 forward 7 unknown #
vertex $-1 $109 $271 #
vertex $-1 $192 $272 #
straight-curve $-1 74.354075746940524 0 -24.244148181588212 0 -1 0 I I #
coedge $-1 $172 $174 $110 $184 reversed $103 $-1 #
edge $-1 $187 -50.795948863503305 $190 50.795948863503305 $183 $273 forward 7 unknown #
coedge $-1 $178 $111 $116 $193 forward $170 $-1 #
coedge $-1 $111 $178 $172 $264 reversed $170 $-1 #
vertex $-1 $112 $274 #
straight-curve $-1 0 50.795948863503305 24.244148181588212 -1 0 0 I I #
coedge $-1 $113 $173 $115 $192 reversed $63 $-1 #
vertex $-1 $184 $275 #
straight-curve $-1 0 -50.795948863503305 24.244148181588212 1 0 0 I I #
edge $-1 $118 -24.244148181588212 $181 24.244148181588212 $115 $276 forward 7 unknown #
edge $-1 $119 -24.244148181588212 $180 24.244148181588212 $116 $277 forward 7 unknown #
point $-1 74.354075746940524 -50.795948863503305 24.244148181588212 #
point $-1 74.354075746940524 50.795948863503305 24.244148181588212 #
face $-1 $278 $212 $16 $-1 $279 reversed single #
loop $-1 $-1 $280 $121 #
plane-surface $-1 0 0 -24.244148181588212 0 0 1 1 0 0 forward_v I I I I #
coedge $-1 $281 $124 $203 $282 forward $71 $-1 #
coedge $-1 $124 $281 $283 $284 forward $71 $-1 #
edge $-1 $285 -74.354075746940524 $204 74.354075746940524 $124 $286 forward 7 unknown #
coedge $-1 $126 $125 $287 $288 reversed $45 $-1 #
coedge $-1 $127 $289 $199 $282 reversed $122 $-1 #
vertex $-1 $282 $290 #
straight-curve $-1 74.354075746940524 -25.168832844391552 10.314029023990978 0 0 -1 I I #
coedge $-1 $287 $291 $129 $207 forward $292 $-1 #
edge $-1 $213 -31.804753436529591 $208 -6.1776374174178379 $206 $293 forward 7 unknown #
vertex $-1 $207 $294 #
straight-curve $-1 0 -25.168832844391552 17.011967914375703 1 0 0 I I #
coedge $-1 $295 $131 $291 $296 forward $212 $-1 #
coedge $-1 $131 $295 $133 $216 reversed $212 $-1 #
loop $-1 $-1 $131 $196 #
vertex $-1 $296 $297 #
straight-curve $-1 0 -50.795948863503305 17.011967914375703 -1 0 0 I I #
coedge $-1 $289 $133 $280 $298 reversed $122 $-1 #
edge $-1 $135 -17.011967914375703 $299 24.244148181588212 $133 $300 forward 7 unknown #
point $-1 74.354075746940524 -25.168832844391552 17.011967914375703 #
point $-1 74.354075746940524 -50.795948863503305 17.011967914375703 #
face $-1 $301 $302 $17 $-1 $303 forward single #
loop $-1 $-1 $304 $137 #
plane-surface $-1 0 -37.982390853947429 17.011967914375703 0 0 1 1 0 0 forward_v I I I I #
coedge $-1 $140 $305 $306 $307 reversed $79 $-1 #
coedge $-1 $142 $141 $230 $308 reversed $49 $-1 #
coedge $-1 $306 $309 $141 $225 forward $310 $-1 #
edge $-1 $311 49.382546172186252 $226 59.685383268301457 $224 $312 forward 7 unknown #
vertex $-1 $307 $313 #
straight-curve $-1 -32.688041311490679 50.795948863503298 16.015936537668182 1 0 0 I I #
vertex $-1 $308 $314 #
straight-curve $-1 -56.398089499022184 -10.343580310408868 97.150834431034113 0 -0.60181501223851219 0.79863551827123203 I I #
coedge $-1 $315 $145 $223 $308 forward $138 $-1 #
coedge $-1 $145 $316 $147 $234 forward $138 $-1 #
straight-curve $-1 -56.398089499022184 54.210015664531852 24.244148181588216 0 -1 0 I I #
coedge $-1 $305 $147 $317 $318 forward $79 $-1 #
edge $-1 $319 -74.354075746940524 $149 56.398089499022184 $147 $320 forward 7 unknown #
point $-1 -56.398089499022184 50.795948863503305 16.015936537668182 #
point $-1 -56.398089499022184 50.795948863503305 24.244148181588212 #
face $-1 $321 $322 $18 $-1 $323 forward single #
loop $-1 $-1 $324 $151 #
plane-surface $-1 0 50.795948863503305 0 0 -1 0 0 0 -1 forward_v I I I I #
loop $-1 $-1 $325 $86 #
coedge $-1 $242 $154 $326 $327 forward $87 $-1 #
coedge $-1 $154 $241 $328 $329 reversed $87 $-1 #
coedge $-1 $330 $324 $154 $244 forward $238 $-1 #
edge $-1 $331 -77.306879683477149 $332 -69.078668039557115 $243 $333 forward 7 unknown #
edge $-1 $334 1 $334 0 $155 $-1 forward 7 unknown #
vertex $-1 $156 $335 #
ellipse-curve $-1 -69.223793961821002 41.150395149337427 15.197765465218534 0 0.79863551827123203 0.60181501223851219 2.5 0 0 1 I I #
point $-1 -66.723793961821002 47.695747846958319 20.130042359628213 #
face $-1 $336 $166 $19 $-1 $337 forward single #
loop $-1 $-1 $338 $159 #
plane-surface $-1 -56.398089499022184 108.4200313290637 186.64563244229066 -1 0 0 0 0.79863551827123203 0.60181501223851219 forward_v I I I I #
loop $-1 $-1 $339 $94 #
coedge $-1 $253 $253 $254 $340 forward $160 $-1 #
coedge $-1 $254 $254 $253 $340 reversed $162 $-1 #
coedge $-1 $255 $255 $163 $256 forward $260 $-1 #
edge $-1 $341 5.5939752324070413e-016 $341 6.2831853071796013 $255 $342 forward 7 unknown #
edge $-1 $343 1 $343 0 $164 $-1 forward 7 unknown #
vertex $-1 $165 $344 #
ellipse-curve $-1 -61.528371284141706 41.150395149337427 15.197765465218534 0 0.79863551827123203 0.60181501223851219 2.5 0 0 1 I I #
loop $-1 $345 $255 $249 #
point $-1 -59.028371284141706 47.695747846958319 20.130042359628213 #
plane-surface $-1 74.354075746940524 0 0 -1 0 0 0 0 1 forward_v I I I I #
coedge $-1 $174 $172 $176 $267 reversed $103 $-1 #
edge $-1 $187 -24.244148181588212 $269 24.244148181588212 $186 $346 forward 7 unknown #
vertex $-1 $267 $347 #
straight-curve $-1 -74.354075746940524 -50.795948863503305 0 0 0 -1 I I #
edge $-1 $265 -50.795948863503305 $269 50.795948863503305 $263 $348 forward 7 unknown #
straight-curve $-1 0 -50.795948863503305 -24.244148181588212 -1 0 0 I I #
vertex $-1 $179 $349 #
straight-curve $-1 0 50.795948863503305 -24.244148181588212 1 0 0 I I #
point $-1 74.354075746940524 50.795948863503305 -24.244148181588212 #
point $-1 74.354075746940524 -50.795948863503305 -24.244148181588212 #
straight-curve $-1 -74.354075746940524 0 24.244148181588212 0 -1 0 I I #
point $-1 -74.354075746940524 50.795948863503305 24.244148181588212 #
point $-1 -74.354075746940524 -50.795948863503305 24.244148181588212 #
straight-curve $-1 74.354075746940524 -50.795948863503305 0 0 0 -1 I I #
straight-curve $-1 74.354075746940524 50.795948863503305 0 0 0 -1 I I #
face $-1 $350 $292 $16 $-1 $351 reversed single #
plane-surface $-1 0 -50.795948863503305 0 0 1 0 0 0 1 forward_v I I I I #
coedge $-1 $352 $353 $215 $298 forward $197 $-1 #
coedge $-1 $200 $199 $354 $355 forward $71 $-1 #
edge $-1 $204 -25.168832844391552 $356 50.795948863503305 $203 $357 forward 7 unknown #
coedge $-1 $358 $287 $200 $284 reversed $292 $-1 #
edge $-1 $359 -50.795948863503305 $285 25.168832844391552 $283 $360 forward 7 unknown #
vertex $-1 $288 $361 #
straight-curve $-1 0 -25.168832844391552 24.244148181588212 1 0 0 I I #
coedge $-1 $283 $206 $202 $288 forward $292 $-1 #
edge $-1 $208 6.6979388903847248 $285 13.930119157597231 $287 $362 forward 7 unknown #
coedge $-1 $203 $215 $363 $364 reversed $122 $-1 #
point $-1 74.354075746940524 -25.168832844391552 24.244148181588209 #
coedge $-1 $206 $365 $210 $296 reversed $292 $-1 #
loop $-1 $-1 $287 $278 #
straight-curve $-1 -74.354075746940524 -18.991195426973714 17.011967914375703 0 1 0 I I #
point $-1 -74.354075746940524 -25.168832844391552 17.011967914375703 #
coedge $-1 $211 $210 $352 $366 reversed $212 $-1 #
edge $-1 $213 -17.011967914375703 $367 24.244148181588212 $291 $368 forward 7 unknown #
point $-1 -74.354075746940524 -50.795948863503305 17.011967914375703 #
edge $-1 $369 -50.795948863503305 $299 50.795948863503305 $215 $370 forward 7 unknown #
vertex $-1 $216 $371 #
straight-curve $-1 74.354075746940524 -50.795948863503305 0 0 0 -1 I I #
face $-1 $372 $373 $17 $-1 $374 reversed single #
loop $-1 $-1 $375 $219 #
plane-surface $-1 0 -25.168832844391552 20.628058047981956 0 -1 0 0 0 -1 forward_v I I I I #
coedge $-1 $376 $377 $378 $379 reversed $220 $-1 #
coedge $-1 $222 $233 $380 $381 reversed $79 $-1 #
coedge $-1 $382 $224 $222 $307 forward $310 $-1 #
edge $-1 $226 -16.015936537668185 $383 24.244148181588212 $222 $384 forward 7 unknown #
edge $-1 $228 23.710048187531505 $311 41.666034435449859 $230 $385 forward 7 unknown #
coedge $-1 $224 $386 $315 $387 reversed $310 $-1 #
loop $-1 $-1 $224 $388 #
vertex $-1 $387 $389 #
straight-curve $-1 -74.354075746940524 14.876389201430168 63.682803537365231 0 0.60181501223851219 -0.79863551827123203 I I #
point $-1 -74.354075746940524 50.795948863503305 16.015936537668185 #
point $-1 -56.398089499022184 44.59554683041334 24.244148181588216 #
coedge $-1 $390 $230 $309 $387 forward $138 $-1 #
coedge $-1 $231 $390 $391 $392 forward $138 $-1 #
coedge $-1 $391 $393 $233 $318 reversed $373 $-1 #
edge $-1 $319 -24.244148181588212 $394 24.244148181588212 $317 $395 forward 7 unknown #
vertex $-1 $392 $396 #
straight-curve $-1 0 50.795948863503305 24.244148181588212 -1 0 0 I I #
face $-1 $397 $398 $18 $-1 $399 forward single #
loop $-1 $-1 $328 $237 #
plane-surface $-1 0 0 24.244148181588212 0 0 1 1 0 0 forward_v I I I I #
coedge $-1 $243 $400 $325 $401 forward $238 $-1 #
coedge $-1 $402 $326 $324 $401 reversed $240 $-1 #
coedge $-1 $325 $403 $241 $327 reversed $240 $-1 #
edge $-1 $331 -101.59189772700663 $404 -91.289060630891427 $241 $405 forward 7 unknown #
coedge $-1 $406 $407 $242 $329 forward $322 $-1 #
edge $-1 $332 3.4140668010285466 $404 9.6144688341185116 $328 $408 forward 7 unknown #
coedge $-1 $409 $243 $407 $410 reversed $238 $-1 #
vertex $-1 $401 $411 #
vertex $-1 $329 $412 #
straight-curve $-1 -56.398089499022184 50.795948863503305 93.322816221145331 0 0 1 I I #
vertex $-1 $245 $413 #
point $-1 -66.723793961821002 41.150395149337427 15.197765465218534 #
face $-1 $414 $415 $19 $-1 $416 reversed single #
plane-surface $-1 -65.376082622981357 -10.343580310408868 97.150834431034113 0 0.79863551827123203 0.60181501223851219 1 0 0 forward_v I I I I #
coedge $-1 $417 $418 $419 $420 reversed $250 $-1 #
coedge $-1 $339 $339 $-1 $421 forward $252 $-1 #
edge $-1 $422 0 $422 6.2831853071796004 $253 $423 forward 7 unknown #
vertex $-1 $256 $424 #
ellipse-curve $-1 -69.223793961821002 47.695747846958312 20.130042359628206 0 -0.79863551827123203 -0.60181501223851219 2.5 0 0 1 I I #
vertex $-1 $257 $425 #
point $-1 -59.028371284141706 41.150395149337427 15.197765465218534 #
loop $-1 $-1 $426 $249 #
straight-curve $-1 -74.354075746940524 50.795948863503305 0 0 0 -1 I I #
point $-1 -74.354075746940524 -50.795948863503305 -24.244148181588212 #
straight-curve $-1 -74.354075746940524 0 -24.244148181588212 0 1 0 I I #
point $-1 -74.354075746940524 50.795948863503305 -24.244148181588212 #
face $-1 $-1 $427 $16 $-1 $428 reversed single #
plane-surface $-1 -74.354075746940524 0 0 1 0 0 0 0 -1 forward_v I I I I #
coedge $-1 $429 $280 $295 $366 forward $197 $-1 #
coedge $-1 $280 $429 $430 $431 forward $197 $-1 #
coedge $-1 $363 $432 $281 $355 reversed $427 $-1 #
edge $-1 $356 -74.354075746940524 $359 74.354075746940524 $354 $433 forward 7 unknown #
vertex $-1 $282 $434 #
straight-curve $-1 74.354075746940524 0 24.244148181588212 0 1 0 I I #
coedge $-1 $365 $283 $432 $435 forward $292 $-1 #
vertex $-1 $355 $436 #
straight-curve $-1 -74.354075746940524 0 24.244148181588212 0 -1 0 I I #
point $-1 -74.354075746940524 -25.168832844391552 24.244148181588209 #
straight-curve $-1 -74.354075746940524 -25.168832844391552 10.314029023990978 0 0 1 I I #
coedge $-1 $430 $354 $289 $364 forward $427 $-1 #
edge $-1 $356 -24.244148181588212 $369 24.244148181588212 $289 $437 forward 7 unknown #
coedge $-1 $291 $358 $429 $438 reversed $292 $-1 #
edge $-1 $299 -74.354075746940524 $367 74.354075746940524 $295 $439 forward 7 unknown #
vertex $-1 $438 $440 #
straight-curve $-1 -74.354075746940524 -50.795948863503305 0 0 0 -1 I I #
vertex $-1 $298 $441 #
straight-curve $-1 74.354075746940524 0 -24.244148181588212 0 -1 0 I I #
point $-1 74.354075746940524 -50.795948863503305 -24.244148181588212 #
face $-1 $442 $443 $17 $-1 $444 reversed single #
loop $-1 $-1 $445 $301 #
plane-surface $-1 74.354075746940524 0 0 -1 0 0 0 0 1 forward_v I I I I #
coedge $-1 $446 $447 $445 $448 reversed $302 $-1 #
coedge $-1 $449 $304 $447 $450 reversed $220 $-1 #
coedge $-1 $304 $449 $451 $452 reversed $220 $-1 #
coedge $-1 $453 $445 $304 $379 forward $373 $-1 #
edge $-1 $454 6.1776374174178379 $455 31.804753436529591 $378 $456 forward 7 unknown #
coedge $-1 $457 $458 $305 $381 forward $443 $-1 #
edge $-1 $383 -74.354075746940524 $394 74.354075746940524 $305 $459 forward 7 unknown #
coedge $-1 $460 $306 $458 $461 reversed $310 $-1 #
vertex $-1 $381 $462 #
straight-curve $-1 -74.354075746940524 50.795948863503305 0 0 0 -1 I I #
straight-curve $-1 -32.688041311490679 44.595546830413326 24.244148181588223 -1 0 0 I I #
coedge $-1 $309 $463 $464 $465 forward $310 $-1 #
edge $-1 $311 -44.59554683041334 $466 25.168832844391552 $309 $467 forward 7 unknown #
face $-1 $-1 $310 $17 $-1 $468 reversed single #
point $-1 -74.354075746940538 44.59554683041334 24.244148181588216 #
coedge $-1 $316 $315 $446 $469 forward $138 $-1 #
coedge $-1 $445 $317 $316 $392 reversed $373 $-1 #
edge $-1 $470 -25.168832844391552 $319 50.795948863503305 $391 $471 forward 7 unknown #
coedge $-1 $317 $453 $457 $472 reversed $373 $-1 #
vertex $-1 $472 $473 #
straight-curve $-1 74.354075746940524 50.795948863503305 0 0 0 -1 I I #
point $-1 74.354075746940524 50.795948863503305 24.244148181588212 #
face $-1 $474 $475 $18 $-1 $476 forward single #
loop $-1 $-1 $477 $321 #
plane-surface $-1 0 -37.982390853947429 17.011967914375703 0 0 1 1 0 0 forward_v I I I I #
coedge $-1 $324 $478 $479 $480 reversed $238 $-1 #
edge $-1 $481 -41.666034435449845 $331 -23.710048187531505 $324 $482 forward 7 unknown #
coedge $-1 $403 $325 $483 $484 reversed $240 $-1 #
coedge $-1 $326 $402 $406 $485 reversed $240 $-1 #
vertex $-1 $485 $486 #
straight-curve $-1 -56.398089499022184 -10.343580310408868 97.150834431034113 0 -0.60181501223851219 0.79863551827123203 I I #
coedge $-1 $487 $328 $403 $485 forward $322 $-1 #
coedge $-1 $328 $488 $330 $410 forward $322 $-1 #
straight-curve $-1 -56.398089499022184 54.210015664531852 24.244148181588216 0 -1 0 I I #
coedge $-1 $478 $330 $489 $490 forward $238 $-1 #
edge $-1 $491 -74.354075746940524 $332 56.398089499022184 $330 $492 forward 7 unknown #
point $-1 -56.398089499022184 50.795948863503305 16.015936537668182 #
point $-1 -56.398089499022184 50.795948863503305 24.244148181588212 #
point $-1 -69.223793961821002 39.153806353659348 13.693227934622254 #
face $-1 $493 $494 $19 $-1 $495 forward single #
loop $-1 $-1 $496 $336 #
plane-surface $-1 0 50.795948863503305 0 0 -1 0 0 0 -1 forward_v I I I I #
coedge $-1 $418 $338 $497 $498 forward $250 $-1 #
coedge $-1 $338 $417 $499 $500 reversed $250 $-1 #
coedge $-1 $501 $496 $338 $420 forward $415 $-1 #
edge $-1 $502 -77.306879683477149 $503 -69.078668039557115 $419 $504 forward 7 unknown #
edge $-1 $505 1 $505 0 $339 $-1 forward 7 unknown #
vertex $-1 $340 $506 #
ellipse-curve $-1 -69.223793961821002 41.150395149337427 15.197765465218534 0 0.79863551827123203 0.60181501223851219 2.5 0 0 1 I I #
point $-1 -66.723793961821002 47.695747846958319 20.130042359628213 #
point $-1 -61.528371284141706 39.153806353659348 13.693227934622254 #
coedge $-1 $507 $497 $496 $508 reversed $345 $-1 #
loop $-1 $-1 $363 $350 #
plane-surface $-1 0 50.795948863503305 0 0 -1 0 0 0 -1 forward_v I I I I #
coedge $-1 $353 $352 $365 $438 forward $197 $-1 #
coedge $-1 $432 $363 $353 $431 reversed $427 $-1 #
edge $-1 $509 -74.354075746940524 $369 74.354075746940524 $430 $510 forward 7 unknown #
coedge $-1 $354 $430 $358 $435 reversed $427 $-1 #
straight-curve $-1 0 50.795948863503305 24.244148181588212 -1 0 0 I I #
point $-1 74.354075746940524 50.795948863503305 24.244148181588212 #
edge $-1 $359 -24.244148181588212 $509 24.244148181588212 $432 $511 forward 7 unknown #
point $-1 -74.354075746940524 50.795948863503305 24.244148181588212 #
straight-curve $-1 74.354075746940524 50.795948863503305 0 0 0 -1 I I #
edge $-1 $367 -50.795948863503305 $509 50.795948863503305 $365 $512 forward 7 unknown #
straight-curve $-1 0 -50.795948863503305 -24.244148181588212 -1 0 0 I I #
point $-1 -74.354075746940524 -50.795948863503305 -24.244148181588212 #
point $-1 74.354075746940524 50.795948863503305 -24.244148181588212 #
face $-1 $388 $513 $17 $-1 $514 reversed single #
loop $-1 $-1 $457 $372 #
plane-surface $-1 0 0 -24.244148181588212 0 0 1 1 0 0 forward_v I I I I #
coedge $-1 $378 $391 $375 $448 forward $373 $-1 #
coedge $-1 $464 $375 $390 $469 reversed $302 $-1 #
coedge $-1 $375 $464 $376 $450 forward $302 $-1 #
edge $-1 $470 -13.930119157597231 $454 -6.6979388903847248 $445 $515 forward 7 unknown #
coedge $-1 $377 $376 $463 $516 reversed $220 $-1 #
edge $-1 $517 -74.354075746940524 $454 74.354075746940524 $447 $518 forward 7 unknown #
coedge $-1 $519 $520 $377 $452 forward $513 $-1 #
edge $-1 $455 -74.354075746940524 $521 74.354075746940524 $451 $522 forward 7 unknown #
coedge $-1 $393 $378 $520 $523 forward $373 $-1 #
vertex $-1 $379 $524 #
vertex $-1 $523 $525 #
straight-curve $-1 74.354075746940524 -18.991195426973714 17.011967914375703 0 -1 0 I I #
coedge $-1 $526 $380 $393 $472 forward $443 $-1 #
coedge $-1 $380 $526 $382 $461 forward $443 $-1 #
straight-curve $-1 0 50.795948863503305 -24.244148181588212 1 0 0 I I #
coedge $-1 $463 $382 $519 $527 reversed $310 $-1 #
edge $-1 $528 -50.795948863503305 $383 50.795948863503305 $382 $529 forward 7 unknown #
point $-1 -74.354075746940524 50.795948863503305 -24.244148181588212 #
coedge $-1 $386 $460 $449 $516 forward $310 $-1 #
coedge $-1 $447 $446 $386 $465 reversed $302 $-1 #
edge $-1 $517 6.6979388903847248 $466 13.930119157597231 $386 $530 forward 7 unknown #
vertex $-1 $465 $531 #
straight-curve $-1 -74.354075746940524 0 24.244148181588212 0 -1 0 I I #
plane-surface $-1 -74.354075746940524 0 0 1 0 0 0 0 -1 forward_v I I I I #
edge $-1 $466 -74.354075746940524 $470 74.354075746940524 $390 $532 forward 7 unknown #
vertex $-1 $392 $533 #
straight-curve $-1 74.354075746940524 0 24.244148181588212 0 1 0 I I #
edge $-1 $394 -50.795948863503305 $534 50.795948863503305 $393 $535 forward 7 unknown #
point $-1 74.354075746940524 50.795948863503305 -24.244148181588212 #
face $-1 $536 $537 $18 $-1 $538 reversed single #
loop $-1 $-1 $539 $397 #
plane-surface $-1 0 -25.168832844391552 20.628058047981956 0 -1 0 0 0 -1 forward_v I I I I #
coedge $-1 $540 $541 $542 $543 reversed $398 $-1 #
coedge $-1 $400 $409 $544 $545 reversed $238 $-1 #
coedge $-1 $546 $483 $400 $480 forward $547 $-1 #
edge $-1 $481 -16.015936537668185 $548 24.244148181588212 $400 $549 forward 7 unknown #
vertex $-1 $480 $550 #
straight-curve $-1 -32.688041311490679 50.795948863503298 16.015936537668182 1 0 0 I I #
coedge $-1 $479 $551 $402 $484 forward $547 $-1 #
edge $-1 $552 49.382546172186252 $481 59.685383268301457 $483 $553 forward 7 unknown #
edge $-1 $404 23.710048187531505 $552 41.666034435449859 $406 $554 forward 7 unknown #
point $-1 -56.398089499022184 44.59554683041334 24.244148181588216 #
coedge $-1 $555 $406 $551 $556 forward $322 $-1 #
coedge $-1 $407 $555 $557 $558 forward $322 $-1 #
coedge $-1 $557 $559 $409 $490 reversed $537 $-1 #
edge $-1 $491 -24.244148181588212 $560 24.244148181588212 $489 $561 forward 7 unknown #
vertex $-1 $558 $562 #
straight-curve $-1 0 50.795948863503305 24.244148181588212 -1 0 0 I I #
face $-1 $563 $564 $19 $-1 $565 forward single #
loop $-1 $-1 $499 $414 #
plane-surface $-1 0 0 24.244148181588212 0 0 1 1 0 0 forward_v I I I I #
coedge $-1 $419 $566 $426 $508 forward $415 $-1 #
coedge $-1 $426 $567 $417 $498 reversed $345 $-1 #
edge $-1 $502 -101.59189772700663 $568 -91.289060630891427 $417 $569 forward 7 unknown #
coedge $-1 $570 $571 $418 $500 forward $494 $-1 #
edge $-1 $503 3.4140668010285466 $568 9.6144688341185116 $499 $572 forward 7 unknown #
coedge $-1 $573 $419 $571 $574 reversed $415 $-1 #
vertex $-1 $508 $575 #
vertex $-1 $500 $576 #
straight-curve $-1 -56.398089499022184 50.795948863503305 93.322816221145331 0 0 1 I I #
vertex $-1 $421 $577 #
point $-1 -66.723793961821002 41.150395149337427 15.197765465218534 #
coedge $-1 $567 $426 $578 $579 reversed $345 $-1 #
edge $-1 $580 -41.666034435449845 $502 -23.710048187531505 $496 $581 forward 7 unknown #
vertex $-1 $431 $582 #
straight-curve $-1 0 50.795948863503305 -24.244148181588212 1 0 0 I I #
straight-curve $-1 -74.354075746940524 50.795948863503305 0 0 0 -1 I I #
straight-curve $-1 -74.354075746940524 0 -24.244148181588212 0 1 0 I I #
loop $-1 $-1 $451 $442 #
plane-surface $-1 0 -50.795948863503305 0 0 1 0 0 0 1 forward_v I I I I #
straight-curve $-1 74.354075746940524 -25.168832844391552 10.314029023990978 0 0 -1 I I #
edge $-1 $521 -31.804753436529591 $517 -6.1776374174178379 $463 $583 forward 7 unknown #
vertex $-1 $516 $584 #
straight-curve $-1 0 -25.168832844391552 17.011967914375703 1 0 0 I I #
coedge $-1 $585 $451 $460 $527 forward $513 $-1 #
coedge $-1 $451 $585 $453 $523 reversed $513 $-1 #
vertex $-1 $527 $586 #
straight-curve $-1 0 -50.795948863503305 17.011967914375703 -1 0 0 I I #
edge $-1 $455 -17.011967914375703 $534 24.244148181588212 $453 $587 forward 7 unknown #
point $-1 74.354075746940524 -25.168832844391552 17.011967914375703 #
point $-1 74.354075746940524 -50.795948863503305 17.011967914375703 #
coedge $-1 $458 $457 $585 $588 forward $443 $-1 #
edge $-1 $521 -17.011967914375703 $528 24.244148181588212 $460 $589 forward 7 unknown #
vertex $-1 $461 $590 #
straight-curve $-1 -74.354075746940524 0 -24.244148181588212 0 1 0 I I #
straight-curve $-1 -74.354075746940524 -25.168832844391552 10.314029023990978 0 0 1 I I #
point $-1 -74.354075746940524 -25.168832844391552 24.244148181588209 #
straight-curve $-1 0 -25.168832844391552 24.244148181588212 1 0 0 I I #
point $-1 74.354075746940524 -25.168832844391552 24.244148181588209 #
vertex $-1 $523 $591 #
straight-curve $-1 74.354075746940524 0 -24.244148181588212 0 -1 0 I I #
face $-1 $592 $593 $18 $-1 $594 reversed single #
loop $-1 $-1 $595 $474 #
plane-surface $-1 74.354075746940524 0 0 -1 0 0 0 0 1 forward_v I I I I #
coedge $-1 $596 $597 $595 $598 reversed $475 $-1 #
coedge $-1 $599 $477 $597 $600 reversed $398 $-1 #
coedge $-1 $477 $599 $601 $602 reversed $398 $-1 #
coedge $-1 $603 $595 $477 $543 forward $537 $-1 #
edge $-1 $604 6.1776374174178379 $605 31.804753436529591 $542 $606 forward 7 unknown #
coedge $-1 $607 $608 $478 $545 forward $593 $-1 #
edge $-1 $548 -74.354075746940524 $560 74.354075746940524 $478 $609 forward 7 unknown #
coedge $-1 $610 $479 $608 $611 reversed $547 $-1 #
loop $-1 $-1 $483 $612 #
vertex $-1 $545 $613 #
straight-curve $-1 -74.354075746940524 50.795948863503305 0 0 0 -1 I I #
point $-1 -74.354075746940524 50.795948863503305 16.015936537668185 #
coedge $-1 $483 $614 $487 $556 reversed $547 $-1 #
vertex $-1 $556 $615 #
straight-curve $-1 -74.354075746940524 14.876389201430168 63.682803537365231 0 0.60181501223851219 -0.79863551827123203 I I #
straight-curve $-1 -32.688041311490679 44.595546830413326 24.244148181588223 -1 0 0 I I #
coedge $-1 $488 $487 $596 $616 forward $322 $-1 #
edge $-1 $552 -44.59554683041334 $617 25.168832844391552 $551 $618 forward 7 unknown #
coedge $-1 $595 $489 $488 $558 reversed $537 $-1 #
edge $-1 $619 -25.168832844391552 $491 50.795948863503305 $557 $620 forward 7 unknown #
coedge $-1 $489 $603 $607 $621 reversed $537 $-1 #
vertex $-1 $621 $622 #
straight-curve $-1 74.354075746940524 50.795948863503305 0 0 0 -1 I I #
point $-1 74.354075746940524 50.795948863503305 24.244148181588212 #
face $-1 $623 $624 $19 $-1 $625 forward single #
loop $-1 $-1 $626 $493 #
plane-surface $-1 0 -37.982390853947429 17.011967914375703 0 0 1 1 0 0 forward_v I I I I #
coedge $-1 $496 $627 $628 $629 reversed $415 $-1 #
coedge $-1 $497 $507 $570 $630 reversed $345 $-1 #
vertex $-1 $630 $631 #
straight-curve $-1 -56.398089499022184 -10.343580310408868 97.150834431034113 0 -0.60181501223851219 0.79863551827123203 I I #
coedge $-1 $632 $499 $567 $630 forward $494 $-1 #
coedge $-1 $499 $633 $501 $574 forward $494 $-1 #
straight-curve $-1 -56.398089499022184 54.210015664531852 24.244148181588216 0 -1 0 I I #
coedge $-1 $627 $501 $634 $635 forward $415 $-1 #
edge $-1 $636 -74.354075746940524 $503 56.398089499022184 $501 $637 forward 7 unknown #
point $-1 -56.398089499022184 50.795948863503305 16.015936537668182 #
point $-1 -56.398089499022184 50.795948863503305 24.244148181588212 #
point $-1 -69.223793961821002 39.153806353659348 13.693227934622254 #
coedge $-1 $628 $638 $507 $579 forward $639 $-1 #
edge $-1 $640 49.382546172186252 $580 59.685383268301457 $578 $641 forward 7 unknown #
vertex $-1 $629 $642 #
straight-curve $-1 -32.688041311490679 50.795948863503298 16.015936537668182 1 0 0 I I #
point $-1 -74.354075746940524 50.795948863503305 -24.244148181588212 #
straight-curve $-1 -74.354075746940524 -18.991195426973714 17.011967914375703 0 1 0 I I #
point $-1 -74.354075746940524 -25.168832844391552 17.011967914375703 #
coedge $-1 $520 $519 $526 $588 reversed $513 $-1 #
point $-1 -74.354075746940524 -50.795948863503305 17.011967914375703 #
straight-curve $-1 74.354075746940524 -50.795948863503305 0 0 0 -1 I I #
edge $-1 $534 -74.354075746940524 $528 74.354075746940524 $585 $643 forward 7 unknown #
straight-curve $-1 -74.354075746940524 -50.795948863503305 0 0 0 -1 I I #
point $-1 -74.354075746940524 -50.795948863503305 -24.244148181588212 #
point $-1 74.354075746940524 -50.795948863503305 -24.244148181588212 #
face $-1 $612 $644 $18 $-1 $645 reversed single #
loop $-1 $-1 $607 $536 #
plane-surface $-1 0 0 -24.244148181588212 0 0 1 1 0 0 forward_v I I I I #
coedge $-1 $542 $557 $539 $598 forward $537 $-1 #
coedge $-1 $646 $539 $555 $616 reversed $475 $-1 #
coedge $-1 $539 $646 $540 $600 forward $475 $-1 #
edge $-1 $619 -13.930119157597231 $604 -6.6979388903847248 $595 $647 forward 7 unknown #
coedge $-1 $541 $540 $648 $649 reversed $398 $-1 #
edge $-1 $650 -74.354075746940524 $604 74.354075746940524 $597 $651 forward 7 unknown #
coedge $-1 $652 $653 $541 $602 forward $644 $-1 #
edge $-1 $605 -74.354075746940524 $654 74.354075746940524 $601 $655 forward 7 unknown #
coedge $-1 $559 $542 $653 $656 forward $537 $-1 #
vertex $-1 $543 $657 #
vertex $-1 $656 $658 #
straight-curve $-1 74.354075746940524 -18.991195426973714 17.011967914375703 0 -1 0 I I #
coedge $-1 $659 $544 $559 $621 forward $593 $-1 #
coedge $-1 $544 $659 $546 $611 forward $593 $-1 #
straight-curve $-1 0 50.795948863503305 -24.244148181588212 1 0 0 I I #
coedge $-1 $648 $546 $652 $660 reversed $547 $-1 #
edge $-1 $661 -50.795948863503305 $548 50.795948863503305 $546 $662 forward 7 unknown #
face $-1 $-1 $547 $18 $-1 $663 reversed single #
point $-1 -74.354075746940524 50.795948863503305 -24.244148181588212 #
coedge $-1 $551 $648 $646 $664 forward $547 $-1 #
point $-1 -74.354075746940538 44.59554683041334 24.244148181588216 #
edge $-1 $617 -74.354075746940524 $619 74.354075746940524 $555 $665 forward 7 unknown #
vertex $-1 $664 $666 #
straight-curve $-1 -74.354075746940524 0 24.244148181588212 0 -1 0 I I #
vertex $-1 $558 $667 #
straight-curve $-1 74.354075746940524 0 24.244148181588212 0 1 0 I I #
edge $-1 $560 -50.795948863503305 $668 50.795948863503305 $559 $669 forward 7 unknown #
point $-1 74.354075746940524 50.795948863503305 -24.244148181588212 #
face $-1 $670 $671 $19 $-1 $672 reversed single #
loop $-1 $-1 $673 $563 #
plane-surface $-1 0 -25.168832844391552 20.628058047981956 0 -1 0 0 0 -1 forward_v I I I I #
coedge $-1 $674 $675 $676 $677 reversed $564 $-1 #
coedge $-1 $566 $573 $678 $679 reversed $415 $-1 #
coedge $-1 $680 $578 $566 $629 forward $639 $-1 #
edge $-1 $580 -16.015936537668185 $681 24.244148181588212 $566 $682 forward 7 unknown #
edge $-1 $568 23.710048187531505 $640 41.666034435449859 $570 $683 forward 7 unknown #
point $-1 -56.398089499022184 44.59554683041334 24.244148181588216 #
coedge $-1 $684 $570 $638 $685 forward $494 $-1 #
coedge $-1 $571 $684 $686 $687 forward $494 $-1 #
coedge $-1 $686 $688 $573 $635 reversed $671 $-1 #
edge $-1 $636 -24.244148181588212 $689 24.244148181588212 $634 $690 forward 7 unknown #
vertex $-1 $687 $691 #
straight-curve $-1 0 50.795948863503305 24.244148181588212 -1 0 0 I I #
coedge $-1 $578 $692 $632 $685 reversed $639 $-1 #
loop $-1 $-1 $578 $693 #
vertex $-1 $685 $694 #
straight-curve $-1 -74.354075746940524 14.876389201430168 63.682803537365231 0 0.60181501223851219 -0.79863551827123203 I I #
point $-1 -74.354075746940524 50.795948863503305 16.015936537668185 #
straight-curve $-1 0 -50.795948863503305 -24.244148181588212 -1 0 0 I I #
loop $-1 $-1 $601 $592 #
plane-surface $-1 0 -50.795948863503305 0 0 1 0 0 0 1 forward_v I I I I #
coedge $-1 $597 $596 $614 $664 reversed $475 $-1 #
straight-curve $-1 74.354075746940524 -25.168832844391552 10.314029023990978 0 0 -1 I I #
coedge $-1 $614 $610 $599 $649 forward $547 $-1 #
edge $-1 $654 -31.804753436529591 $650 -6.1776374174178379 $648 $695 forward 7 unknown #
vertex $-1 $649 $696 #
straight-curve $-1 0 -25.168832844391552 17.011967914375703 1 0 0 I I #
coedge $-1 $697 $601 $610 $660 forward $644 $-1 #
coedge $-1 $601 $697 $603 $656 reversed $644 $-1 #
vertex $-1 $660 $698 #
straight-curve $-1 0 -50.795948863503305 17.011967914375703 -1 0 0 I I #
edge $-1 $605 -17.011967914375703 $668 24.244148181588212 $603 $699 forward 7 unknown #
point $-1 74.354075746940524 -25.168832844391552 17.011967914375703 #
point $-1 74.354075746940524 -50.795948863503305 17.011967914375703 #
coedge $-1 $608 $607 $697 $700 forward $593 $-1 #
edge $-1 $654 -17.011967914375703 $661 24.244148181588212 $610 $701 forward 7 unknown #
vertex $-1 $611 $702 #
straight-curve $-1 -74.354075746940524 0 -24.244148181588212 0 1 0 I I #
plane-surface $-1 -74.354075746940524 0 0 1 0 0 0 0 -1 forward_v I I I I #
edge $-1 $650 6.6979388903847248 $617 13.930119157597231 $614 $703 forward 7 unknown #
straight-curve $-1 0 -25.168832844391552 24.244148181588212 1 0 0 I I #
point $-1 -74.354075746940524 -25.168832844391552 24.244148181588209 #
point $-1 74.354075746940524 -25.168832844391552 24.244148181588209 #
vertex $-1 $656 $704 #
straight-curve $-1 74.354075746940524 0 -24.244148181588212 0 -1 0 I I #
face $-1 $705 $706 $19 $-1 $707 reversed single #
loop $-1 $-1 $708 $623 #
plane-surface $-1 74.354075746940524 0 0 -1 0 0 0 0 1 forward_v I I I I #
coedge $-1 $709 $710 $708 $711 reversed $624 $-1 #
coedge $-1 $712 $626 $710 $713 reversed $564 $-1 #
coedge $-1 $626 $712 $714 $715 reversed $564 $-1 #
coedge $-1 $716 $708 $626 $677 forward $671 $-1 #
edge $-1 $717 6.1776374174178379 $718 31.804753436529591 $676 $719 forward 7 unknown #
coedge $-1 $720 $721 $627 $679 forward $706 $-1 #
edge $-1 $681 -74.354075746940524 $689 74.354075746940524 $627 $722 forward 7 unknown #
coedge $-1 $723 $628 $721 $724 reversed $639 $-1 #
vertex $-1 $679 $725 #
straight-curve $-1 -74.354075746940524 50.795948863503305 0 0 0 -1 I I #
straight-curve $-1 -32.688041311490679 44.595546830413326 24.244148181588223 -1 0 0 I I #
coedge $-1 $633 $632 $709 $726 forward $494 $-1 #
edge $-1 $640 -44.59554683041334 $727 25.168832844391552 $638 $728 forward 7 unknown #
coedge $-1 $708 $634 $633 $687 reversed $671 $-1 #
edge $-1 $729 -25.168832844391552 $636 50.795948863503305 $686 $730 forward 7 unknown #
coedge $-1 $634 $716 $720 $731 reversed $671 $-1 #
vertex $-1 $731 $732 #
straight-curve $-1 74.354075746940524 50.795948863503305 0 0 0 -1 I I #
point $-1 74.354075746940524 50.795948863503305 24.244148181588212 #
coedge $-1 $638 $733 $734 $735 forward $639 $-1 #
face $-1 $-1 $639 $19 $-1 $736 reversed single #
point $-1 -74.354075746940538 44.59554683041334 24.244148181588216 #
straight-curve $-1 -74.354075746940524 -18.991195426973714 17.011967914375703 0 1 0 I I #
point $-1 -74.354075746940524 -25.168832844391552 17.011967914375703 #
coedge $-1 $653 $652 $659 $700 reversed $644 $-1 #
point $-1 -74.354075746940524 -50.795948863503305 17.011967914375703 #
straight-curve $-1 74.354075746940524 -50.795948863503305 0 0 0 -1 I I #
edge $-1 $668 -74.354075746940524 $661 74.354075746940524 $697 $737 forward 7 unknown #
straight-curve $-1 -74.354075746940524 -50.795948863503305 0 0 0 -1 I I #
point $-1 -74.354075746940524 -50.795948863503305 -24.244148181588212 #
straight-curve $-1 -74.354075746940524 -25.168832844391552 10.314029023990978 0 0 1 I I #
point $-1 74.354075746940524 -50.795948863503305 -24.244148181588212 #
face $-1 $693 $738 $19 $-1 $739 reversed single #
loop $-1 $-1 $720 $670 #
plane-surface $-1 0 0 -24.244148181588212 0 0 1 1 0 0 forward_v I I I I #
coedge $-1 $676 $686 $673 $711 forward $671 $-1 #
coedge $-1 $734 $673 $684 $726 reversed $624 $-1 #
coedge $-1 $673 $734 $674 $713 forward $624 $-1 #
edge $-1 $729 -13.930119157597231 $717 -6.6979388903847248 $708 $740 forward 7 unknown #
coedge $-1 $675 $674 $733 $741 reversed $564 $-1 #
edge $-1 $742 -74.354075746940524 $717 74.354075746940524 $710 $743 forward 7 unknown #
coedge $-1 $744 $745 $675 $715 forward $738 $-1 #
edge $-1 $718 -74.354075746940524 $746 74.354075746940524 $714 $747 forward 7 unknown #
coedge $-1 $688 $676 $745 $748 forward $671 $-1 #
vertex $-1 $677 $749 #
vertex $-1 $748 $750 #
straight-curve $-1 74.354075746940524 -18.991195426973714 17.011967914375703 0 -1 0 I I #
coedge $-1 $751 $678 $688 $731 forward $706 $-1 #
coedge $-1 $678 $751 $680 $724 forward $706 $-1 #
straight-curve $-1 0 50.795948863503305 -24.244148181588212 1 0 0 I I #
coedge $-1 $733 $680 $744 $752 reversed $639 $-1 #
edge $-1 $753 -50.795948863503305 $681 50.795948863503305 $680 $754 forward 7 unknown #
point $-1 -74.354075746940524 50.795948863503305 -24.244148181588212 #
edge $-1 $727 -74.354075746940524 $729 74.354075746940524 $684 $755 forward 7 unknown #
vertex $-1 $735 $756 #
straight-curve $-1 -74.354075746940524 0 24.244148181588212 0 -1 0 I I #
vertex $-1 $687 $757 #
straight-curve $-1 74.354075746940524 0 24.244148181588212 0 1 0 I I #
edge $-1 $689 -50.795948863503305 $758 50.795948863503305 $688 $759 forward 7 unknown #
point $-1 74.354075746940524 50.795948863503305 -24.244148181588212 #
coedge $-1 $692 $723 $712 $741 forward $639 $-1 #
coedge $-1 $710 $709 $692 $735 reversed $624 $-1 #
edge $-1 $742 6.6979388903847248 $727 13.930119157597231 $692 $760 forward 7 unknown #
plane-surface $-1 -74.354075746940524 0 0 1 0 0 0 0 -1 forward_v I I I I #
straight-curve $-1 0 -50.795948863503305 -24.244148181588212 -1 0 0 I I #
loop $-1 $-1 $714 $705 #
plane-surface $-1 0 -50.795948863503305 0 0 1 0 0 0 1 forward_v I I I I #
straight-curve $-1 74.354075746940524 -25.168832844391552 10.314029023990978 0 0 -1 I I #
edge $-1 $746 -31.804753436529591 $742 -6.1776374174178379 $733 $761 forward 7 unknown #
vertex $-1 $741 $762 #
straight-curve $-1 0 -25.168832844391552 17.011967914375703 1 0 0 I I #
coedge $-1 $763 $714 $723 $752 forward $738 $-1 #
coedge $-1 $714 $763 $716 $748 reversed $738 $-1 #
vertex $-1 $752 $764 #
straight-curve $-1 0 -50.795948863503305 17.011967914375703 -1 0 0 I I #
edge $-1 $718 -17.011967914375703 $758 24.244148181588212 $716 $765 forward 7 unknown #
point $-1 74.354075746940524 -25.168832844391552 17.011967914375703 #
point $-1 74.354075746940524 -50.795948863503305 17.011967914375703 #
coedge $-1 $721 $720 $763 $766 forward $706 $-1 #
edge $-1 $746 -17.011967914375703 $753 24.244148181588212 $723 $767 forward 7 unknown #
vertex $-1 $724 $768 #
straight-curve $-1 -74.354075746940524 0 -24.244148181588212 0 1 0 I I #
straight-curve $-1 0 -25.168832844391552 24.244148181588212 1 0 0 I I #
point $-1 -74.354075746940524 -25.168832844391552 24.244148181588209 #
point $-1 74.354075746940524 -25.168832844391552 24.244148181588209 #
vertex $-1 $748 $769 #
straight-curve $-1 74.354075746940524 0 -24.244148181588212 0 -1 0 I I #
straight-curve $-1 -74.354075746940524 -25.168832844391552 10.314029023990978 0 0 1 I I #
straight-curve $-1 -74.354075746940524 -18.991195426973714 17.011967914375703 0 1 0 I I #
point $-1 -74.354075746940524 -25.168832844391552 17.011967914375703 #
coedge $-1 $745 $744 $751 $766 reversed $738 $-1 #
point $-1 -74.354075746940524 -50.795948863503305 17.011967914375703 #
straight-curve $-1 74.354075746940524 -50.795948863503305 0 0 0 -1 I I #
edge $-1 $758 -74.354075746940524 $753 74.354075746940524 $763 $770 forward 7 unknown #
straight-curve $-1 -74.354075746940524 -50.795948863503305 0 0 0 -1 I I #
point $-1 -74.354075746940524 -50.795948863503305 -24.244148181588212 #
point $-1 74.354075746940524 -50.795948863503305 -24.244148181588212 #
straight-curve $-1 0 -50.795948863503305 -24.244148181588212 -1 0 0 I I #
End-of-ACIS-data 