500 0 6 0           
7 Unknown 11 ACIS 5.0 NT 24 Thu Mar 25 18:54:23 1999 
-1 9.9999999999999995e-007 1e-010 
body $-1 $6 $-1 $7 #
body $-1 $8 $-1 $9 #
body $-1 $10 $-1 $11 #
body $-1 $12 $-1 $13 #
body $-1 $14 $-1 $15 #
body $-1 $16 $-1 $17 #
lump $-1 $-1 $18 $0 #
transform $-1 1 0 0 0 1 0 0 0 1 58.248847926267281 37.644786770549608 17.275564535887678 1 rotate no_reflect no_shear #
lump $-1 $-1 $19 $1 #
transform $-1 1 0 0 0 1 0 0 0 1 58.248847926267281 37.644786770549608 17.275564535887678 1 rotate no_reflect no_shear #
lump $-1 $-1 $20 $2 #
transform $-1 1 0 0 0 1 0 0 0 1 58.248847926267281 37.644786770549608 17.275564535887678 1 rotate no_reflect no_shear #
lump $-1 $-1 $21 $3 #
transform $-1 1 0 0 0 1 0 0 0 1 58.248847926267281 37.644786770549608 17.275564535887678 1 rotate no_reflect no_shear #
lump $-1 $-1 $22 $4 #
transform $-1 1 0 0 0 1 0 0 0 1 58.248847926267281 37.644786770549608 17.275564535887678 1 rotate no_reflect no_shear #
lump $-1 $-1 $23 $5 #
transform $-1 1 0 0 0 1 0 0 0 1 58.248847926267281 37.644786770549608 17.275564535887678 1 rotate no_reflect no_shear #
shell $-1 $-1 $-1 $24 $-1 $6 #
shell $-1 $-1 $-1 $25 $-1 $8 #
shell $-1 $-1 $-1 $26 $-1 $10 #
shell $-1 $-1 $-1 $27 $-1 $12 #
shell $-1 $-1 $-1 $28 $-1 $14 #
shell $-1 $-1 $-1 $29 $-1 $16 #
face $-1 $30 $31 $18 $-1 $32 forward single #
face $-1 $33 $34 $19 $-1 $35 reversed single #
face $-1 $36 $37 $20 $-1 $38 reversed single #
face $-1 $39 $40 $21 $-1 $41 forward single #
face $-1 $42 $43 $22 $-1 $44 reversed single #
face $-1 $45 $46 $23 $-1 $47 forward single #
face $-1 $48 $49 $18 $-1 $50 reversed single #
loop $-1 $-1 $51 $24 #
plane-surface $-1 0 0 17.275564535887678 0 0 1 1 0 0 forward_v I I I I #
face $-1 $52 $53 $19 $-1 $54 reversed single #
loop $-1 $-1 $55 $25 #
plane-surface $-1 -52.226041084389422 0 10.861667846996784 0 0 1 1 0 0 forward_v I I I I #
face $-1 $56 $57 $20 $-1 $58 reversed single #
loop $-1 $-1 $59 $26 #
plane-surface $-1 -10.363743653387127 -134.22575468899697 78.333689567611998 -1 0 0 0 -0.82903758062907751 0.55919289150049634 forward_v I I I I #
face $-1 $60 $61 $21 $-1 $62 forward single #
loop $-1 $63 $64 $27 #
cone-surface $-1 -19.81685313455597 -35.584526130622066 14.772235840893432 0 0.82903758062907751 -0.55919289150049634 0.5 0 0 1 I I 0 1 0.5 forward I I I I #
face $-1 $65 $66 $22 $-1 $67 reversed single #
loop $-1 $-1 $68 $28 #
plane-surface $-1 41.862297431002304 -134.22575468899697 78.333689567611998 -1 0 0 0 -0.82903758062907751 0.55919289150049634 forward_v I I I I #
face $-1 $69 $70 $23 $-1 $71 forward single #
loop $-1 $72 $73 $29 #
cone-surface $-1 32.409187949833459 -35.584526130622066 14.772235840893432 0 0.82903758062907751 -0.55919289150049634 0.5 0 0 1 I I 0 1 0.5 forward I I I I #
face $-1 $74 $75 $18 $-1 $76 reversed single #
loop $-1 $-1 $77 $30 #
plane-surface $-1 0 0 -17.275564535887678 0 0 1 1 0 0 forward_v I I I I #
coedge $-1 $78 $79 $80 $81 forward $31 $-1 #
face $-1 $82 $83 $19 $-1 $84 reversed single #
loop $-1 $-1 $85 $33 #
plane-surface $-1 -46.203234242511563 0 14.068616191442231 -1 0 0 0 0 1 forward_v I I I I #
coedge $-1 $86 $87 $88 $89 forward $34 $-1 #
face $-1 $90 $91 $20 $-1 $92 reversed single #
loop $-1 $-1 $93 $36 #
plane-surface $-1 -19.81685313455597 -37.644786770549615 13.189006170687819 0 -0.82903758062907751 0.55919289150049634 1 0 0 forward_v I I I I #
coedge $-1 $94 $95 $96 $97 reversed $37 $-1 #
face $-1 $-1 $98 $21 $-1 $99 forward single #
loop $-1 $100 $101 $39 #
cone-surface $-1 -19.81685313455597 -34.695215263562929 14.172388105623988 0 0.82903758062907751 -0.55919289150049634 0.25 0 0 1 I I -0.70710678118654746 0.70710678118654746 0.25 forward I I I I #
loop $-1 $-1 $102 $27 #
coedge $-1 $64 $64 $103 $104 reversed $40 $-1 #
face $-1 $105 $106 $22 $-1 $107 reversed single #
loop $-1 $-1 $108 $42 #
plane-surface $-1 32.409187949833459 -37.644786770549615 13.189006170687819 0 -0.82903758062907751 0.55919289150049634 1 0 0 forward_v I I I I #
coedge $-1 $109 $110 $111 $112 reversed $43 $-1 #
face $-1 $-1 $113 $23 $-1 $114 forward single #
loop $-1 $115 $116 $45 #
cone-surface $-1 32.409187949833459 -34.695215263562929 14.172388105623988 0 0.82903758062907751 -0.55919289150049634 0.25 0 0 1 I I -0.70710678118654746 0.70710678118654746 0.25 forward I I I I #
loop $-1 $-1 $117 $29 #
coedge $-1 $73 $73 $118 $119 reversed $46 $-1 #
face $-1 $120 $121 $18 $-1 $122 reversed single #
loop $-1 $-1 $123 $48 #
plane-surface $-1 0 -37.644786770549608 0 0 1 0 0 0 1 forward_v I I I I #
coedge $-1 $124 $125 $126 $127 forward $49 $-1 #
coedge $-1 $128 $51 $129 $130 forward $31 $-1 #
coedge $-1 $51 $128 $131 $132 forward $31 $-1 #
coedge $-1 $133 $134 $51 $81 reversed $135 $-1 #
edge $-1 $136 -37.644786770549608 $137 37.644786770549608 $80 $138 forward 7 unknown #
face $-1 $139 $140 $19 $-1 $141 reversed single #
loop $-1 $-1 $142 $52 #
plane-surface $-1 0 37.644786770549608 0 0 -1 0 0 0 -1 forward_v I I I I #
coedge $-1 $88 $143 $144 $145 reversed $53 $-1 #
coedge $-1 $146 $55 $147 $148 reversed $34 $-1 #
coedge $-1 $55 $146 $149 $150 reversed $34 $-1 #
coedge $-1 $151 $85 $55 $89 reversed $53 $-1 #
edge $-1 $152 -37.644786770549608 $153 37.644786770549608 $88 $154 forward 7 unknown #
face $-1 $155 $156 $20 $-1 $157 reversed single #
loop $-1 $-1 $158 $56 #
plane-surface $-1 -29.269962615724815 -134.22575468899697 78.333689567611998 1 0 0 0 0.82903758062907751 -0.55919289150049634 forward_v I I I I #
coedge $-1 $159 $160 $161 $162 reversed $57 $-1 #
coedge $-1 $95 $59 $163 $164 reversed $37 $-1 #
coedge $-1 $59 $94 $159 $165 reversed $37 $-1 #
coedge $-1 $161 $166 $59 $97 forward $167 $-1 #
edge $-1 $168 29.468090573948878 $169 32.224508910000239 $96 $170 forward 7 unknown #
loop $-1 $-1 $103 $60 #
plane-surface $-1 -19.81685313455597 -37.644786770549615 13.189006170687819 0 -0.82903758062907751 0.55919289150049634 1 0 0 forward_v I I I I #
loop $-1 $-1 $171 $39 #
coedge $-1 $101 $101 $102 $172 reversed $61 $-1 #
coedge $-1 $102 $102 $101 $172 forward $63 $-1 #
coedge $-1 $103 $103 $64 $104 forward $98 $-1 #
edge $-1 $173 5.001275785946674e-015 $173 6.2831853071796058 $103 $174 forward 7 unknown #
face $-1 $175 $176 $22 $-1 $177 reversed single #
loop $-1 $-1 $178 $65 #
plane-surface $-1 22.956078468664614 -134.22575468899697 78.333689567611998 1 0 0 0 0.82903758062907751 -0.55919289150049634 forward_v I I I I #
coedge $-1 $179 $180 $181 $182 reversed $66 $-1 #
coedge $-1 $110 $68 $183 $184 reversed $43 $-1 #
coedge $-1 $68 $109 $179 $185 reversed $43 $-1 #
coedge $-1 $181 $186 $68 $112 forward $187 $-1 #
edge $-1 $188 29.468090573948878 $189 32.224508910000239 $111 $190 forward 7 unknown #
loop $-1 $-1 $118 $69 #
plane-surface $-1 32.409187949833459 -37.644786770549615 13.189006170687819 0 -0.82903758062907751 0.55919289150049634 1 0 0 forward_v I I I I #
loop $-1 $-1 $191 $45 #
coedge $-1 $116 $116 $117 $192 reversed $70 $-1 #
coedge $-1 $117 $117 $116 $192 forward $72 $-1 #
coedge $-1 $118 $118 $73 $119 forward $113 $-1 #
edge $-1 $193 5.001275785946674e-015 $193 6.2831853071796058 $118 $194 forward 7 unknown #
face $-1 $195 $196 $18 $-1 $197 reversed single #
loop $-1 $-1 $198 $74 #
plane-surface $-1 -58.248847926267281 0 0 1 0 0 0 0 -1 forward_v I I I I #
coedge $-1 $199 $131 $200 $201 forward $75 $-1 #
coedge $-1 $202 $77 $199 $203 forward $49 $-1 #
coedge $-1 $77 $202 $204 $205 forward $49 $-1 #
coedge $-1 $134 $133 $77 $127 reversed $135 $-1 #
edge $-1 $206 -37.644786770549608 $207 37.644786770549608 $126 $208 forward 7 unknown #
coedge $-1 $79 $78 $209 $210 forward $31 $-1 #
coedge $-1 $211 $212 $78 $130 reversed $196 $-1 #
edge $-1 $137 -58.248847926267281 $213 58.248847926267281 $129 $214 forward 7 unknown #
coedge $-1 $123 $215 $79 $132 reversed $75 $-1 #
edge $-1 $216 -58.248847926267281 $136 58.248847926267281 $131 $217 forward 7 unknown #
coedge $-1 $126 $80 $215 $218 forward $135 $-1 #
coedge $-1 $80 $126 $211 $219 reversed $135 $-1 #
loop $-1 $-1 $133 $195 #
vertex $-1 $81 $220 #
vertex $-1 $81 $221 #
straight-curve $-1 58.248847926267281 0 17.275564535887678 0 1 0 I I #
face $-1 $222 $223 $19 $-1 $224 forward single #
loop $-1 $-1 $225 $82 #
plane-surface $-1 -58.248847926267281 0 0 1 0 0 0 0 -1 forward_v I I I I #
coedge $-1 $149 $226 $151 $227 forward $83 $-1 #
coedge $-1 $85 $151 $228 $229 reversed $53 $-1 #
coedge $-1 $230 $147 $85 $145 forward $231 $-1 #
edge $-1 $153 3.8273597512756687 $232 10.241256440166563 $144 $233 forward 7 unknown #
coedge $-1 $87 $86 $225 $234 reversed $34 $-1 #
coedge $-1 $144 $235 $86 $148 forward $231 $-1 #
edge $-1 $236 -32.13582738407257 $153 -20.090213700316852 $147 $237 forward 7 unknown #
coedge $-1 $238 $142 $87 $150 forward $83 $-1 #
edge $-1 $152 20.090213700316852 $239 32.13582738407257 $149 $240 forward 7 unknown #
coedge $-1 $143 $88 $142 $227 reversed $53 $-1 #
vertex $-1 $150 $241 #
vertex $-1 $148 $242 #
straight-curve $-1 -46.203234242511563 0 10.861667846996784 0 -1 0 I I #
face $-1 $-1 $167 $20 $-1 $243 forward single #
loop $-1 $-1 $244 $90 #
plane-surface $-1 0 -37.644786770549608 0 0 1 0 0 0 1 forward_v I I I I #
coedge $-1 $245 $246 $247 $248 reversed $91 $-1 #
coedge $-1 $249 $93 $95 $165 forward $57 $-1 #
coedge $-1 $93 $249 $245 $250 forward $57 $-1 #
coedge $-1 $247 $96 $93 $162 forward $167 $-1 #
edge $-1 $169 0.45531708610914201 $251 19.36153604844683 $161 $252 forward 7 unknown #
coedge $-1 $253 $254 $94 $164 forward $156 $-1 #
edge $-1 $255 -25.97783861311817 $168 -21.891280247918321 $163 $256 forward 7 unknown #
edge $-1 $169 -4.9292799997063614 $255 -1.2809303928265426e-014 $95 $257 forward 7 unknown #
coedge $-1 $96 $247 $253 $258 forward $167 $-1 #
loop $-1 $-1 $247 $155 #
vertex $-1 $164 $259 #
vertex $-1 $97 $260 #
straight-curve $-1 -10.363743653387127 -67.112877344498486 17.275564535887678 0 1 0 I I #
coedge $-1 $171 $171 $-1 $261 reversed $100 $-1 #
edge $-1 $262 0 $262 6.2831853071796004 $101 $263 forward 7 unknown #
vertex $-1 $104 $264 #
ellipse-curve $-1 -19.81685313455597 -36.266577602523931 15.23228535328775 0 -0.82903758062907751 0.55919289150049634 0.5 0 0 1 I I #
face $-1 $-1 $187 $22 $-1 $265 forward single #
loop $-1 $-1 $266 $105 #
plane-surface $-1 0 -37.644786770549608 0 0 1 0 0 0 1 forward_v I I I I #
coedge $-1 $267 $268 $269 $270 reversed $106 $-1 #
coedge $-1 $271 $108 $110 $185 forward $66 $-1 #
coedge $-1 $108 $271 $267 $272 forward $66 $-1 #
coedge $-1 $269 $111 $108 $182 forward $187 $-1 #
edge $-1 $189 -25.657703456085574 $273 -6.7514844937478848 $181 $274 forward 7 unknown #
coedge $-1 $275 $276 $109 $184 forward $176 $-1 #
edge $-1 $277 -25.97783861311817 $188 -21.891280247918321 $183 $278 forward 7 unknown #
edge $-1 $189 -4.9292799997063614 $277 -1.2809303928265426e-014 $110 $279 forward 7 unknown #
coedge $-1 $111 $269 $275 $280 forward $187 $-1 #
loop $-1 $-1 $269 $175 #
vertex $-1 $184 $281 #
vertex $-1 $112 $282 #
straight-curve $-1 41.862297431002304 -67.112877344498486 17.275564535887678 0 1 0 I I #
coedge $-1 $191 $191 $-1 $283 reversed $115 $-1 #
edge $-1 $284 0 $284 6.2831853071796004 $116 $285 forward 7 unknown #
vertex $-1 $119 $286 #
ellipse-curve $-1 32.409187949833459 -36.266577602523931 15.23228535328775 0 -0.82903758062907751 0.55919289150049634 0.5 0 0 1 I I #
face $-1 $-1 $135 $18 $-1 $287 reversed single #
loop $-1 $-1 $211 $120 #
plane-surface $-1 0 37.644786770549608 0 0 -1 0 0 0 -1 forward_v I I I I #
coedge $-1 $288 $209 $212 $289 forward $121 $-1 #
coedge $-1 $215 $123 $124 $203 reversed $75 $-1 #
coedge $-1 $209 $288 $123 $201 reversed $121 $-1 #
edge $-1 $216 -17.275564535887678 $290 17.275564535887678 $200 $291 forward 7 unknown #
coedge $-1 $125 $124 $288 $292 forward $49 $-1 #
edge $-1 $207 -58.248847926267281 $290 58.248847926267281 $199 $293 forward 7 unknown #
coedge $-1 $212 $211 $125 $205 reversed $196 $-1 #
edge $-1 $294 -58.248847926267281 $206 58.248847926267281 $204 $295 forward 7 unknown #
vertex $-1 $127 $296 #
vertex $-1 $218 $297 #
straight-curve $-1 58.248847926267281 0 -17.275564535887678 0 -1 0 I I #
coedge $-1 $198 $200 $128 $210 reversed $121 $-1 #
edge $-1 $213 -37.644786770549608 $216 37.644786770549608 $209 $298 forward 7 unknown #
coedge $-1 $204 $129 $134 $219 forward $196 $-1 #
coedge $-1 $129 $204 $198 $289 reversed $196 $-1 #
vertex $-1 $130 $299 #
straight-curve $-1 0 37.644786770549608 17.275564535887678 -1 0 0 I I #
coedge $-1 $131 $199 $133 $218 reversed $75 $-1 #
vertex $-1 $210 $300 #
straight-curve $-1 0 -37.644786770549608 17.275564535887678 1 0 0 I I #
edge $-1 $136 -17.275564535887678 $207 17.275564535887678 $133 $301 forward 7 unknown #
edge $-1 $137 -17.275564535887678 $206 17.275564535887678 $134 $302 forward 7 unknown #
point $-1 58.248847926267281 -37.644786770549608 17.275564535887678 #
point $-1 58.248847926267281 37.644786770549608 17.275564535887678 #
face $-1 $-1 $231 $19 $-1 $303 reversed single #
loop $-1 $-1 $228 $139 #
plane-surface $-1 0 0 17.275564535887678 0 0 1 1 0 0 forward_v I I I I #
coedge $-1 $304 $305 $146 $234 forward $140 $-1 #
coedge $-1 $142 $238 $306 $307 reversed $83 $-1 #
edge $-1 $308 -10.241256440166563 $152 -3.8273597512756687 $142 $309 forward 7 unknown #
coedge $-1 $306 $310 $143 $229 forward $223 $-1 #
edge $-1 $232 -37.644786770549608 $308 37.644786770549608 $228 $311 forward 7 unknown #
coedge $-1 $235 $144 $310 $312 reversed $231 $-1 #
loop $-1 $-1 $144 $222 #
vertex $-1 $145 $313 #
straight-curve $-1 -46.203234242511563 -37.644786770549608 7.0343080957211157 0 0 1 I I #
edge $-1 $239 -37.644786770549608 $236 37.644786770549608 $225 $314 forward 7 unknown #
coedge $-1 $147 $230 $304 $315 forward $231 $-1 #
vertex $-1 $234 $316 #
straight-curve $-1 -26.113020542194711 -37.644786770549608 10.861667846996784 1 0 0 I I #
coedge $-1 $226 $149 $305 $317 reversed $83 $-1 #
vertex $-1 $234 $318 #
straight-curve $-1 -26.113020542194711 37.644786770549608 10.861667846996784 -1 0 0 I I #
point $-1 -46.203234242511563 37.644786770549608 10.861667846996784 #
point $-1 -46.203234242511563 -37.644786770549608 10.861667846996784 #
plane-surface $-1 0 0 17.275564535887678 0 0 1 1 0 0 forward_v I I I I #
coedge $-1 $254 $253 $246 $319 forward $156 $-1 #
coedge $-1 $246 $158 $160 $250 reversed $91 $-1 #
coedge $-1 $158 $245 $244 $319 reversed $91 $-1 #
coedge $-1 $166 $161 $158 $248 forward $167 $-1 #
edge $-1 $251 -32.224508910000239 $320 -29.468090573948878 $247 $321 forward 7 unknown #
coedge $-1 $160 $159 $254 $322 reversed $57 $-1 #
edge $-1 $323 1.2809303928265426e-014 $251 4.9292799997063614 $245 $324 forward 7 unknown #
vertex $-1 $162 $325 #
straight-curve $-1 -9.908426567277985 -34.888368434498247 17.275564535887678 -1 0 0 I I #
coedge $-1 $244 $163 $166 $258 reversed $156 $-1 #
coedge $-1 $163 $244 $249 $322 forward $156 $-1 #
vertex $-1 $164 $326 #
straight-curve $-1 -10.363743653387127 -37.644786770549608 39.166844783805999 0 0 1 I I #
straight-curve $-1 -10.363743653387127 -37.644786770549615 13.189006170687819 0 -0.55919289150049634 -0.82903758062907751 I I #
edge $-1 $320 -29.269962615724815 $168 -10.363743653387127 $253 $327 forward 7 unknown #
point $-1 -10.363743653387127 -37.644786770549608 17.275564535887678 #
point $-1 -10.363743653387127 -34.888368434498247 17.275564535887678 #
edge $-1 $328 1 $328 0 $171 $-1 forward 7 unknown #
vertex $-1 $172 $329 #
ellipse-curve $-1 -19.81685313455597 -34.902474658720202 14.312186328499111 0 -0.82903758062907751 0.55919289150049634 0.5 0 0 1 I I #
point $-1 -19.31685313455597 -36.266577602523924 15.232285353287748 #
plane-surface $-1 0 0 17.275564535887678 0 0 1 1 0 0 forward_v I I I I #
coedge $-1 $276 $275 $268 $330 forward $176 $-1 #
coedge $-1 $268 $178 $180 $272 reversed $106 $-1 #
coedge $-1 $178 $267 $266 $330 reversed $106 $-1 #
coedge $-1 $186 $181 $178 $270 forward $187 $-1 #
edge $-1 $273 -32.224508910000239 $331 -29.468090573948878 $269 $332 forward 7 unknown #
coedge $-1 $180 $179 $276 $333 reversed $66 $-1 #
edge $-1 $334 1.2809303928265426e-014 $273 4.9292799997063614 $267 $335 forward 7 unknown #
vertex $-1 $182 $336 #
straight-curve $-1 16.20459397491673 -34.888368434498247 17.275564535887678 -1 0 0 I I #
coedge $-1 $266 $183 $186 $280 reversed $176 $-1 #
coedge $-1 $183 $266 $271 $333 forward $176 $-1 #
vertex $-1 $184 $337 #
straight-curve $-1 41.862297431002304 -37.644786770549608 39.166844783805999 0 0 1 I I #
straight-curve $-1 41.862297431002304 -37.644786770549615 13.189006170687819 0 -0.55919289150049634 -0.82903758062907751 I I #
edge $-1 $331 22.956078468664614 $188 41.862297431002304 $275 $338 forward 7 unknown #
point $-1 41.862297431002304 -37.644786770549608 17.275564535887678 #
point $-1 41.862297431002304 -34.888368434498247 17.275564535887678 #
edge $-1 $339 1 $339 0 $191 $-1 forward 7 unknown #
vertex $-1 $192 $340 #
ellipse-curve $-1 32.409187949833459 -34.902474658720202 14.312186328499111 0 -0.82903758062907751 0.55919289150049634 0.5 0 0 1 I I #
point $-1 32.909187949833459 -36.266577602523924 15.232285353287748 #
plane-surface $-1 58.248847926267281 0 0 -1 0 0 0 0 1 forward_v I I I I #
coedge $-1 $200 $198 $202 $292 reversed $121 $-1 #
edge $-1 $213 -17.275564535887678 $294 17.275564535887678 $212 $341 forward 7 unknown #
vertex $-1 $292 $342 #
straight-curve $-1 -58.248847926267281 -37.644786770549608 0 0 0 -1 I I #
edge $-1 $290 -37.644786770549608 $294 37.644786770549608 $288 $343 forward 7 unknown #
straight-curve $-1 0 -37.644786770549608 -17.275564535887678 -1 0 0 I I #
vertex $-1 $205 $344 #
straight-curve $-1 0 37.644786770549608 -17.275564535887678 1 0 0 I I #
point $-1 58.248847926267281 37.644786770549608 -17.275564535887678 #
point $-1 58.248847926267281 -37.644786770549608 -17.275564535887678 #
straight-curve $-1 -58.248847926267281 0 17.275564535887678 0 -1 0 I I #
point $-1 -58.248847926267281 37.644786770549608 17.275564535887678 #
point $-1 -58.248847926267281 -37.644786770549608 17.275564535887678 #
straight-curve $-1 58.248847926267281 -37.644786770549608 0 0 0 -1 I I #
straight-curve $-1 58.248847926267281 37.644786770549608 0 0 0 -1 I I #
plane-surface $-1 0 -37.644786770549608 0 0 1 0 0 0 1 forward_v I I I I #
coedge $-1 $345 $225 $235 $315 reversed $140 $-1 #
coedge $-1 $225 $345 $238 $317 forward $140 $-1 #
coedge $-1 $346 $228 $226 $307 forward $223 $-1 #
edge $-1 $308 46.203234242511563 $347 58.248847926267281 $226 $348 forward 7 unknown #
vertex $-1 $307 $349 #
straight-curve $-1 -46.203234242511563 37.644786770549608 7.0343080957211157 0 0 -1 I I #
coedge $-1 $228 $346 $230 $312 forward $223 $-1 #
straight-curve $-1 -46.203234242511563 0 17.275564535887678 0 1 0 I I #
edge $-1 $350 -58.248847926267281 $232 -46.203234242511563 $230 $351 forward 7 unknown #
point $-1 -46.203234242511563 -37.644786770549608 17.275564535887678 #
straight-curve $-1 -58.248847926267281 0 10.861667846996784 0 -1 0 I I #
edge $-1 $350 -17.275564535887678 $236 -10.861667846996784 $304 $352 forward 7 unknown #
point $-1 -58.248847926267281 -37.644786770549608 10.861667846996784 #
edge $-1 $347 -17.275564535887678 $239 -10.861667846996784 $238 $353 forward 7 unknown #
point $-1 -58.248847926267281 37.644786770549608 10.861667846996784 #
edge $-1 $320 21.891280247918321 $323 25.97783861311817 $244 $354 forward 7 unknown #
vertex $-1 $258 $355 #
straight-curve $-1 -29.269962615724815 -67.112877344498486 17.275564535887678 0 -1 0 I I #
edge $-1 $323 -19.36153604844683 $255 -0.45531708610914201 $254 $356 forward 7 unknown #
vertex $-1 $322 $357 #
straight-curve $-1 -29.269962615724815 -37.644786770549615 13.189006170687819 0 0.55919289150049634 0.82903758062907751 I I #
point $-1 -29.269962615724815 -34.888368434498247 17.275564535887678 #
point $-1 -10.363743653387127 -37.644786770549608 13.189006170687829 #
straight-curve $-1 0 -37.644786770549608 17.275564535887678 1 0 0 I I #
vertex $-1 $261 $358 #
point $-1 -19.31685313455597 -34.902474658720202 14.312186328499111 #
edge $-1 $331 21.891280247918321 $334 25.97783861311817 $266 $359 forward 7 unknown #
vertex $-1 $280 $360 #
straight-curve $-1 22.956078468664614 -67.112877344498486 17.275564535887678 0 -1 0 I I #
edge $-1 $334 6.7514844937478848 $277 25.657703456085574 $276 $361 forward 7 unknown #
vertex $-1 $333 $362 #
straight-curve $-1 22.956078468664614 -37.644786770549615 13.189006170687819 0 0.55919289150049634 0.82903758062907751 I I #
point $-1 22.956078468664614 -34.888368434498247 17.275564535887678 #
point $-1 41.862297431002304 -37.644786770549608 13.189006170687829 #
straight-curve $-1 0 -37.644786770549608 17.275564535887678 1 0 0 I I #
vertex $-1 $283 $363 #
point $-1 32.909187949833459 -34.902474658720202 14.312186328499111 #
straight-curve $-1 -58.248847926267281 37.644786770549608 0 0 0 -1 I I #
point $-1 -58.248847926267281 -37.644786770549608 -17.275564535887678 #
straight-curve $-1 -58.248847926267281 0 -17.275564535887678 0 1 0 I I #
point $-1 -58.248847926267281 37.644786770549608 -17.275564535887678 #
coedge $-1 $305 $304 $346 $364 reversed $140 $-1 #
coedge $-1 $310 $306 $345 $364 forward $223 $-1 #
vertex $-1 $307 $365 #
straight-curve $-1 0 37.644786770549608 17.275564535887678 -1 0 0 I I #
point $-1 -46.203234242511563 37.644786770549608 17.275564535887678 #
vertex $-1 $364 $366 #
straight-curve $-1 0 -37.644786770549608 17.275564535887678 1 0 0 I I #
straight-curve $-1 -58.248847926267281 -37.644786770549608 0 0 0 -1 I I #
straight-curve $-1 -58.248847926267281 37.644786770549608 0 0 0 -1 I I #
straight-curve $-1 -29.269962615724815 -37.644786770549608 39.166844783805999 0 0 -1 I I #
point $-1 -29.269962615724815 -37.644786770549608 17.275564535887678 #
straight-curve $-1 -9.908426567277985 -37.644786770549608 13.18900617068784 1 0 0 I I #
point $-1 -29.269962615724815 -37.644786770549608 13.189006170687829 #
point $-1 -19.81685313455597 -34.487955868405656 14.032589882748864 #
straight-curve $-1 22.956078468664614 -37.644786770549608 39.166844783805999 0 0 -1 I I #
point $-1 22.956078468664614 -37.644786770549608 17.275564535887678 #
straight-curve $-1 16.20459397491673 -37.644786770549608 13.18900617068784 1 0 0 I I #
point $-1 22.956078468664614 -37.644786770549608 13.189006170687829 #
point $-1 32.409187949833459 -34.487955868405656 14.032589882748864 #
edge $-1 $347 -37.644786770549608 $350 37.644786770549608 $345 $367 forward 7 unknown #
point $-1 -58.248847926267281 37.644786770549608 17.275564535887678 #
point $-1 -58.248847926267281 -37.644786770549608 17.275564535887678 #
straight-curve $-1 -58.248847926267281 0 17.275564535887678 0 -1 0 I I #
End-of-ACIS-data 