500 0 8 0           
7 Unknown 11 ACIS 5.0 NT 24 Fri Mar 26 15:12:35 1999 
-1 9.9999999999999995e-007 1e-010 
body $-1 $8 $-1 $9 #
body $-1 $10 $-1 $11 #
body $-1 $12 $-1 $13 #
body $-1 $14 $-1 $15 #
body $-1 $16 $-1 $17 #
body $-1 $18 $-1 $19 #
body $-1 $20 $-1 $21 #
body $-1 $22 $-1 $23 #
lump $-1 $-1 $24 $0 #
transform $-1 1 0 0 0 1 0 0 0 1 77.648854029969186 44.384281176949791 11.481234341988712 1 rotate no_reflect no_shear #
lump $-1 $-1 $25 $1 #
transform $-1 1 0 0 0 1 0 0 0 1 77.648854029969186 44.384281176949791 11.481234341988712 1 rotate no_reflect no_shear #
lump $-1 $-1 $26 $2 #
transform $-1 1 0 0 0 1 0 0 0 1 77.648854029969186 44.384281176949791 11.481234341988712 1 rotate no_reflect no_shear #
lump $-1 $-1 $27 $3 #
transform $-1 1 0 0 0 1 0 0 0 1 77.648854029969186 44.384281176949791 11.481234341988712 1 rotate no_reflect no_shear #
lump $-1 $-1 $28 $4 #
transform $-1 1 0 0 0 1 0 0 0 1 77.648854029969186 44.384281176949791 11.481234341988712 1 rotate no_reflect no_shear #
lump $-1 $-1 $29 $5 #
transform $-1 1 0 0 0 1 0 0 0 1 77.648854029969186 44.384281176949791 11.481234341988712 1 rotate no_reflect no_shear #
lump $-1 $-1 $30 $6 #
transform $-1 1 0 0 0 1 0 0 0 1 77.648854029969186 44.384281176949791 11.481234341988712 1 rotate no_reflect no_shear #
lump $-1 $-1 $31 $7 #
transform $-1 1 0 0 0 1 0 0 0 1 77.648854029969186 44.384281176949791 11.481234341988712 1 rotate no_reflect no_shear #
shell $-1 $-1 $-1 $32 $-1 $8 #
shell $-1 $-1 $-1 $33 $-1 $10 #
shell $-1 $-1 $-1 $34 $-1 $12 #
shell $-1 $-1 $-1 $35 $-1 $14 #
shell $-1 $-1 $-1 $36 $-1 $16 #
shell $-1 $-1 $-1 $37 $-1 $18 #
shell $-1 $-1 $-1 $38 $-1 $20 #
shell $-1 $-1 $-1 $39 $-1 $22 #
face $-1 $40 $41 $24 $-1 $42 forward single #
face $-1 $43 $44 $25 $-1 $45 forward single #
face $-1 $46 $47 $26 $-1 $48 forward single #
face $-1 $49 $50 $27 $-1 $51 reversed single #
face $-1 $52 $53 $28 $-1 $54 forward single #
face $-1 $55 $56 $29 $-1 $57 forward single #
face $-1 $58 $59 $30 $-1 $60 reversed single #
face $-1 $61 $62 $31 $-1 $63 forward single #
face $-1 $64 $65 $24 $-1 $66 reversed single #
loop $-1 $-1 $67 $32 #
plane-surface $-1 0 0 11.481234341988712 0 0 1 1 0 0 forward_v I I I I #
face $-1 $68 $69 $25 $-1 $70 reversed single #
loop $-1 $-1 $71 $33 #
plane-surface $-1 -77.648854029969186 0 0 1 0 0 0 0 -1 forward_v I I I I #
face $-1 $72 $73 $26 $-1 $74 forward single #
loop $-1 $-1 $75 $34 #
plane-surface $-1 77.648854029969186 0 0 -1 0 0 0 0 1 forward_v I I I I #
face $-1 $76 $77 $27 $-1 $78 reversed single #
loop $-1 $-1 $79 $35 #
plane-surface $-1 31.174859874599633 76.207061631135446 177.67900776464637 1 0 0 0 -0.64278761758704617 -0.76604443648966558 forward_v I I I I #
face $-1 $80 $81 $28 $-1 $82 forward single #
loop $-1 $83 $84 $36 #
cone-surface $-1 38.485918580839908 37.353218905410898 5.1668655891460729 0 -0.64278761758704617 -0.76604443648966558 1.5 0 0 1 I I 0 1 1.5 forward I I I I #
face $-1 $85 $86 $29 $-1 $87 forward single #
loop $-1 $88 $89 $37 #
cone-surface $-1 49.452506640200312 37.353218905410898 5.1668655891460729 0 -0.64278761758704617 -0.76604443648966558 1.5 0 0 1 I I 0 1 1.5 forward I I I I #
face $-1 $90 $91 $30 $-1 $92 reversed single #
loop $-1 $-1 $93 $38 #
plane-surface $-1 -17.213522606416504 -159.79297061624294 109.07405765904404 -1 0 0 0 -0.74314483375859142 0.66913059716165679 forward_v I I I I #
face $-1 $94 $95 $31 $-1 $96 forward single #
loop $-1 $97 $98 $39 #
cone-surface $-1 -25.138347685027945 -40.57679093046449 7.4546996366009202 0 0.74314483375859142 -0.66913059716165679 2 0 0 1 I I 0 1 2 forward I I I I #
face $-1 $99 $100 $24 $-1 $101 reversed single #
loop $-1 $-1 $102 $40 #
plane-surface $-1 0 0 -11.481234341988712 0 0 1 1 0 0 forward_v I I I I #
coedge $-1 $103 $104 $105 $106 forward $41 $-1 #
face $-1 $107 $108 $25 $-1 $109 reversed single #
loop $-1 $-1 $110 $43 #
plane-surface $-1 0 44.384281176949791 0 0 -1 0 0 0 -1 forward_v I I I I #
coedge $-1 $111 $112 $113 $114 forward $44 $-1 #
face $-1 $115 $116 $26 $-1 $117 reversed single #
loop $-1 $-1 $118 $46 #
plane-surface $-1 0 0 11.481234341988712 0 0 1 1 0 0 forward_v I I I I #
coedge $-1 $119 $120 $121 $122 forward $47 $-1 #
face $-1 $123 $124 $27 $-1 $125 reversed single #
loop $-1 $-1 $126 $49 #
plane-surface $-1 43.969212610520103 -23.616382149440952 58.71406250573429 0 0.64278761758704617 0.76604443648966558 1 0 0 forward_v I I I I #
coedge $-1 $127 $128 $129 $130 reversed $50 $-1 #
face $-1 $-1 $131 $28 $-1 $132 forward single #
loop $-1 $133 $134 $52 #
cone-surface $-1 38.485918580839908 35.695451847107471 3.1912157831085306 0 -0.64278761758704617 -0.76604443648966558 0.75 0 0 1 I I -0.70710678118654724 0.70710678118654768 0.75 forward I I I I #
loop $-1 $-1 $135 $36 #
coedge $-1 $84 $84 $136 $137 reversed $53 $-1 #
face $-1 $-1 $138 $29 $-1 $139 forward single #
loop $-1 $140 $141 $55 #
cone-surface $-1 49.452506640200312 35.695451847107471 3.1912157831085306 0 -0.64278761758704617 -0.76604443648966558 0.75 0 0 1 I I -0.70710678118654724 0.70710678118654768 0.75 forward I I I I #
loop $-1 $-1 $142 $37 #
coedge $-1 $89 $89 $143 $144 reversed $56 $-1 #
face $-1 $145 $146 $30 $-1 $147 reversed single #
loop $-1 $-1 $148 $58 #
plane-surface $-1 -25.138347685027945 -44.38428117694977 5.1596095270608373 0 -0.74314483375859142 0.66913059716165679 1 0 0 forward_v I I I I #
coedge $-1 $149 $150 $151 $152 reversed $59 $-1 #
face $-1 $-1 $153 $31 $-1 $154 forward single #
loop $-1 $155 $156 $61 #
cone-surface $-1 -25.138347685027945 -38.872164054335165 5.9198467415153981 0 0.74314483375859142 -0.66913059716165679 1 0 0 1 I I -0.70710678118654746 0.70710678118654746 1 forward I I I I #
loop $-1 $-1 $157 $39 #
coedge $-1 $98 $98 $158 $159 reversed $62 $-1 #
face $-1 $160 $161 $24 $-1 $162 reversed single #
loop $-1 $-1 $163 $64 #
plane-surface $-1 0 -44.384281176949791 0 0 1 0 0 0 1 forward_v I I I I #
coedge $-1 $164 $165 $166 $167 forward $65 $-1 #
coedge $-1 $168 $67 $169 $170 forward $41 $-1 #
coedge $-1 $67 $168 $171 $172 forward $41 $-1 #
coedge $-1 $173 $174 $67 $106 reversed $175 $-1 #
edge $-1 $176 -44.384281176949791 $177 44.384281176949791 $105 $178 forward 7 unknown #
face $-1 $179 $180 $25 $-1 $181 reversed single #
loop $-1 $-1 $113 $68 #
plane-surface $-1 -82.876083043807299 0 7.5998223939939056 0 0 1 1 0 0 forward_v I I I I #
coedge $-1 $182 $183 $111 $184 forward $69 $-1 #
coedge $-1 $185 $71 $110 $184 reversed $44 $-1 #
coedge $-1 $71 $185 $186 $187 reversed $44 $-1 #
coedge $-1 $188 $189 $71 $114 reversed $108 $-1 #
edge $-1 $190 -44.384281176949791 $191 44.384281176949791 $113 $192 forward 7 unknown #
face $-1 $193 $194 $26 $-1 $195 reversed single #
loop $-1 $-1 $196 $72 #
plane-surface $-1 0 -44.384281176949791 0 0 1 0 0 0 1 forward_v I I I I #
coedge $-1 $197 $198 $199 $200 forward $73 $-1 #
coedge $-1 $199 $75 $196 $201 reversed $47 $-1 #
coedge $-1 $75 $199 $202 $203 reversed $47 $-1 #
coedge $-1 $204 $205 $75 $122 reversed $194 $-1 #
edge $-1 $206 -44.384281176949791 $207 44.384281176949791 $121 $208 forward 7 unknown #
face $-1 $209 $210 $27 $-1 $211 reversed single #
loop $-1 $-1 $212 $76 #
plane-surface $-1 56.763565346440572 76.207061631135446 177.67900776464637 -1 0 0 0 0.64278761758704617 0.76604443648966558 forward_v I I I I #
coedge $-1 $213 $214 $215 $216 reversed $77 $-1 #
coedge $-1 $128 $79 $217 $218 reversed $50 $-1 #
coedge $-1 $79 $127 $213 $219 reversed $50 $-1 #
coedge $-1 $215 $220 $79 $130 forward $221 $-1 #
edge $-1 $222 -6.2807503613820685 $223 5.4300214914694038 $129 $224 forward 7 unknown #
loop $-1 $-1 $136 $80 #
plane-surface $-1 43.969212610520103 -23.616382149440952 58.71406250573429 0 0.64278761758704617 0.76604443648966558 1 0 0 forward_v I I I I #
loop $-1 $-1 $225 $52 #
coedge $-1 $134 $134 $135 $226 reversed $81 $-1 #
coedge $-1 $135 $135 $134 $226 forward $83 $-1 #
coedge $-1 $136 $136 $84 $137 forward $131 $-1 #
edge $-1 $227 1.522426907710056e-015 $227 6.2831853071796022 $136 $228 forward 7 unknown #
loop $-1 $-1 $143 $85 #
plane-surface $-1 43.969212610520103 -23.616382149440952 58.71406250573429 0 0.64278761758704617 0.76604443648966558 1 0 0 forward_v I I I I #
loop $-1 $-1 $229 $55 #
coedge $-1 $141 $141 $142 $230 reversed $86 $-1 #
coedge $-1 $142 $142 $141 $230 forward $88 $-1 #
coedge $-1 $143 $143 $89 $144 forward $138 $-1 #
edge $-1 $231 1.522426907710056e-015 $231 6.2831853071796022 $143 $232 forward 7 unknown #
face $-1 $233 $234 $30 $-1 $235 reversed single #
loop $-1 $-1 $236 $90 #
plane-surface $-1 -33.063172763639386 -159.79297061624294 109.07405765904404 1 0 0 0 0.74314483375859142 -0.66913059716165679 forward_v I I I I #
coedge $-1 $237 $238 $239 $240 reversed $91 $-1 #
coedge $-1 $150 $93 $241 $242 reversed $59 $-1 #
coedge $-1 $93 $149 $237 $243 reversed $59 $-1 #
coedge $-1 $239 $244 $93 $152 forward $245 $-1 #
edge $-1 $246 35.512204131171679 $247 41.204220539400865 $151 $248 forward 7 unknown #
loop $-1 $-1 $158 $94 #
plane-surface $-1 -25.138347685027945 -44.38428117694977 5.1596095270608373 0 -0.74314483375859142 0.66913059716165679 1 0 0 forward_v I I I I #
loop $-1 $-1 $249 $61 #
coedge $-1 $156 $156 $157 $250 reversed $95 $-1 #
coedge $-1 $157 $157 $156 $250 forward $97 $-1 #
coedge $-1 $158 $158 $98 $159 forward $153 $-1 #
edge $-1 $251 1.2880896829570053e-016 $251 6.2831853071796004 $158 $252 forward 7 unknown #
face $-1 $253 $254 $24 $-1 $255 reversed single #
loop $-1 $-1 $256 $99 #
plane-surface $-1 -77.648854029969186 0 0 1 0 0 0 0 -1 forward_v I I I I #
coedge $-1 $257 $171 $258 $259 forward $100 $-1 #
coedge $-1 $260 $102 $257 $261 forward $65 $-1 #
coedge $-1 $102 $260 $262 $263 forward $65 $-1 #
coedge $-1 $174 $173 $102 $167 reversed $175 $-1 #
edge $-1 $264 -44.384281176949791 $265 44.384281176949791 $166 $266 forward 7 unknown #
coedge $-1 $104 $103 $267 $268 forward $41 $-1 #
coedge $-1 $269 $270 $103 $170 reversed $254 $-1 #
edge $-1 $177 -77.648854029969186 $271 77.648854029969186 $169 $272 forward 7 unknown #
coedge $-1 $163 $273 $104 $172 reversed $100 $-1 #
edge $-1 $274 -77.648854029969186 $176 77.648854029969186 $171 $275 forward 7 unknown #
coedge $-1 $166 $105 $273 $276 forward $175 $-1 #
coedge $-1 $105 $166 $269 $277 reversed $175 $-1 #
loop $-1 $-1 $173 $253 #
vertex $-1 $106 $278 #
vertex $-1 $106 $279 #
straight-curve $-1 77.648854029969186 0 11.481234341988712 0 1 0 I I #
face $-1 $280 $281 $25 $-1 $282 forward single #
loop $-1 $-1 $283 $107 #
plane-surface $-1 -88.103312057645411 0 9.5405283679913087 1 0 0 0 0 -1 forward_v I I I I #
coedge $-1 $284 $110 $189 $285 reversed $69 $-1 #
coedge $-1 $110 $284 $286 $287 reversed $69 $-1 #
edge $-1 $288 -11.481234341988712 $191 -7.5998223939939056 $110 $289 forward 7 unknown #
coedge $-1 $112 $111 $290 $291 reversed $44 $-1 #
coedge $-1 $292 $293 $112 $187 forward $294 $-1 #
edge $-1 $190 7.5998223939939056 $295 11.481234341988712 $186 $296 forward 7 unknown #
coedge $-1 $297 $113 $293 $298 forward $108 $-1 #
coedge $-1 $113 $297 $182 $285 forward $108 $-1 #
vertex $-1 $187 $299 #
vertex $-1 $184 $300 #
straight-curve $-1 -77.648854029969186 0 7.5998223939939056 0 1 0 I I #
face $-1 $301 $302 $26 $-1 $303 reversed single #
loop $-1 $-1 $304 $115 #
plane-surface $-1 82.876083043807284 0 7.5998223939939056 0 0 1 1 0 0 forward_v I I I I #
coedge $-1 $305 $306 $119 $201 forward $116 $-1 #
coedge $-1 $307 $118 $306 $308 forward $73 $-1 #
coedge $-1 $118 $307 $309 $310 forward $73 $-1 #
coedge $-1 $120 $119 $118 $200 reversed $47 $-1 #
edge $-1 $311 -44.384281176949791 $312 44.384281176949791 $118 $313 forward 7 unknown #
edge $-1 $312 -11.481234341988712 $207 -7.5998223939939056 $196 $314 forward 7 unknown #
coedge $-1 $309 $315 $120 $203 forward $316 $-1 #
edge $-1 $206 7.5998223939939056 $311 11.481234341988712 $202 $317 forward 7 unknown #
coedge $-1 $304 $121 $315 $318 forward $194 $-1 #
coedge $-1 $121 $304 $305 $319 forward $194 $-1 #
vertex $-1 $203 $320 #
vertex $-1 $201 $321 #
straight-curve $-1 77.648854029969186 0 7.5998223939939056 0 -1 0 I I #
face $-1 $-1 $221 $27 $-1 $322 forward single #
loop $-1 $-1 $323 $123 #
plane-surface $-1 0 44.384281176949791 0 0 -1 0 0 0 -1 forward_v I I I I #
coedge $-1 $324 $325 $326 $327 reversed $124 $-1 #
coedge $-1 $328 $126 $128 $219 forward $77 $-1 #
coedge $-1 $126 $328 $324 $329 forward $77 $-1 #
coedge $-1 $326 $129 $126 $216 forward $221 $-1 #
edge $-1 $223 9.1902535693395819 $330 34.778959041180521 $215 $331 forward 7 unknown #
coedge $-1 $332 $333 $127 $218 forward $210 $-1 #
edge $-1 $334 -87.184774088679148 $222 -77.358269540334476 $217 $335 forward 7 unknown #
edge $-1 $223 73.481235281184183 $334 88.768562353899569 $128 $336 forward 7 unknown #
coedge $-1 $129 $326 $332 $337 forward $221 $-1 #
loop $-1 $-1 $326 $209 #
vertex $-1 $218 $338 #
vertex $-1 $130 $339 #
straight-curve $-1 31.174859874599633 38.103530815567723 11.48123434198871 0 -1 0 I I #
coedge $-1 $225 $225 $-1 $340 reversed $133 $-1 #
edge $-1 $341 0 $341 6.2831853071796004 $134 $342 forward 7 unknown #
vertex $-1 $137 $343 #
ellipse-curve $-1 38.485918580839908 38.528895250524045 6.5679820678163701 0 0.64278761758704617 0.76604443648966558 1.5 0 0 1 I I #
coedge $-1 $229 $229 $-1 $344 reversed $140 $-1 #
edge $-1 $345 0 $345 6.2831853071796004 $141 $346 forward 7 unknown #
vertex $-1 $144 $347 #
ellipse-curve $-1 49.452506640200312 38.528895250524045 6.5679820678163701 0 0.64278761758704617 0.76604443648966558 1.5 0 0 1 I I #
face $-1 $-1 $245 $30 $-1 $348 forward single #
loop $-1 $-1 $349 $145 #
plane-surface $-1 0 -44.384281176949791 0 0 1 0 0 0 1 forward_v I I I I #
coedge $-1 $350 $351 $352 $353 reversed $146 $-1 #
coedge $-1 $354 $148 $150 $243 forward $91 $-1 #
coedge $-1 $148 $354 $350 $355 forward $91 $-1 #
coedge $-1 $352 $151 $148 $240 forward $245 $-1 #
edge $-1 $247 4.6443487639025314 $356 20.493998921125414 $239 $357 forward 7 unknown #
coedge $-1 $358 $359 $149 $242 forward $234 $-1 #
edge $-1 $360 -49.377419302461206 $246 -43.055794487533312 $241 $361 forward 7 unknown #
edge $-1 $247 -8.5065851604660914 $360 3.208459706215348e-014 $150 $362 forward 7 unknown #
coedge $-1 $151 $352 $358 $363 forward $245 $-1 #
loop $-1 $-1 $352 $233 #
vertex $-1 $242 $364 #
vertex $-1 $152 $365 #
straight-curve $-1 -17.213522606416504 -79.89648530812147 11.48123434198871 0 1 0 I I #
coedge $-1 $249 $249 $-1 $366 reversed $155 $-1 #
edge $-1 $367 0 $367 6.2831853071796004 $156 $368 forward 7 unknown #
vertex $-1 $159 $369 #
ellipse-curve $-1 -25.138347685027945 -41.538272972835195 8.3204219345247648 0 -0.74314483375859142 0.66913059716165679 2 0 0 1 I I #
face $-1 $-1 $175 $24 $-1 $370 reversed single #
loop $-1 $-1 $269 $160 #
plane-surface $-1 0 44.384281176949791 0 0 -1 0 0 0 -1 forward_v I I I I #
coedge $-1 $371 $267 $270 $372 forward $161 $-1 #
coedge $-1 $273 $163 $164 $261 reversed $100 $-1 #
coedge $-1 $267 $371 $163 $259 reversed $161 $-1 #
edge $-1 $274 -11.481234341988712 $373 11.481234341988712 $258 $374 forward 7 unknown #
coedge $-1 $165 $164 $371 $375 forward $65 $-1 #
edge $-1 $265 -77.648854029969186 $373 77.648854029969186 $257 $376 forward 7 unknown #
coedge $-1 $270 $269 $165 $263 reversed $254 $-1 #
edge $-1 $377 -77.648854029969186 $264 77.648854029969186 $262 $378 forward 7 unknown #
vertex $-1 $167 $379 #
vertex $-1 $276 $380 #
straight-curve $-1 77.648854029969186 0 -11.481234341988712 0 -1 0 I I #
coedge $-1 $256 $258 $168 $268 reversed $161 $-1 #
edge $-1 $271 -44.384281176949791 $274 44.384281176949791 $267 $381 forward 7 unknown #
coedge $-1 $262 $169 $174 $277 forward $254 $-1 #
coedge $-1 $169 $262 $256 $372 reversed $254 $-1 #
vertex $-1 $170 $382 #
straight-curve $-1 0 44.384281176949791 11.481234341988712 -1 0 0 I I #
coedge $-1 $171 $257 $173 $276 reversed $100 $-1 #
vertex $-1 $268 $383 #
straight-curve $-1 0 -44.384281176949791 11.481234341988712 1 0 0 I I #
edge $-1 $176 -11.481234341988712 $265 11.481234341988712 $173 $384 forward 7 unknown #
edge $-1 $177 -11.481234341988712 $264 11.481234341988712 $174 $385 forward 7 unknown #
point $-1 77.648854029969186 -44.384281176949791 11.481234341988712 #
point $-1 77.648854029969186 44.384281176949791 11.481234341988712 #
face $-1 $-1 $294 $25 $-1 $386 reversed single #
loop $-1 $-1 $290 $179 #
plane-surface $-1 0 0 11.481234341988712 0 0 1 1 0 0 forward_v I I I I #
coedge $-1 $387 $388 $284 $389 forward $180 $-1 #
coedge $-1 $183 $182 $283 $389 reversed $69 $-1 #
edge $-1 $390 -5.2272290138381123 $191 5.2272290138381123 $182 $391 forward 7 unknown #
coedge $-1 $392 $290 $183 $287 forward $281 $-1 #
edge $-1 $288 77.648854029969186 $393 88.103312057645411 $183 $394 forward 7 unknown #
vertex $-1 $287 $395 #
straight-curve $-1 -77.648854029969186 44.384281176949791 0 0 0 -1 I I #
coedge $-1 $286 $396 $185 $291 forward $281 $-1 #
edge $-1 $295 -44.384281176949791 $288 44.384281176949791 $290 $397 forward 7 unknown #
coedge $-1 $398 $186 $396 $399 reversed $294 $-1 #
coedge $-1 $186 $398 $188 $298 reversed $294 $-1 #
loop $-1 $-1 $186 $280 #
vertex $-1 $187 $400 #
straight-curve $-1 -77.648854029969186 -44.384281176949791 0 0 0 1 I I #
coedge $-1 $189 $188 $387 $401 forward $108 $-1 #
edge $-1 $190 -5.2272290138381123 $402 5.2272290138381123 $293 $403 forward 7 unknown #
point $-1 -77.648854029969186 -44.384281176949791 7.5998223939939056 #
point $-1 -77.648854029969186 44.384281176949791 7.5998223939939056 #
face $-1 $-1 $316 $26 $-1 $404 reversed single #
loop $-1 $-1 $405 $193 #
plane-surface $-1 88.103312057645397 0 9.5405283679913087 -1 0 0 0 0 1 forward_v I I I I #
coedge $-1 $205 $204 $406 $407 forward $194 $-1 #
coedge $-1 $408 $196 $205 $319 reversed $116 $-1 #
coedge $-1 $196 $408 $197 $308 reversed $116 $-1 #
coedge $-1 $198 $197 $409 $410 forward $73 $-1 #
edge $-1 $312 -5.2272290138380981 $411 5.2272290138381123 $306 $412 forward 7 unknown #
coedge $-1 $413 $202 $198 $310 reversed $316 $-1 #
edge $-1 $414 -88.103312057645397 $311 -77.648854029969186 $309 $415 forward 7 unknown #
vertex $-1 $203 $416 #
vertex $-1 $308 $417 #
straight-curve $-1 77.648854029969186 0 11.481234341988712 0 -1 0 I I #
straight-curve $-1 77.648854029969186 -44.384281176949791 0 0 0 -1 I I #
coedge $-1 $202 $413 $204 $318 reversed $316 $-1 #
loop $-1 $-1 $202 $301 #
straight-curve $-1 77.648854029969186 44.384281176949791 0 0 0 1 I I #
edge $-1 $206 -5.2272290138381123 $418 5.2272290138381123 $315 $419 forward 7 unknown #
edge $-1 $420 -5.2272290138381123 $207 5.2272290138381123 $305 $421 forward 7 unknown #
point $-1 77.648854029969172 44.384281176949791 7.5998223939939056 #
point $-1 77.648854029969172 -44.384281176949791 7.5998223939939056 #
plane-surface $-1 0 0 11.481234341988712 0 0 1 1 0 0 forward_v I I I I #
coedge $-1 $333 $332 $325 $422 forward $210 $-1 #
coedge $-1 $325 $212 $214 $329 reversed $124 $-1 #
coedge $-1 $212 $324 $323 $422 reversed $124 $-1 #
coedge $-1 $220 $215 $212 $327 forward $221 $-1 #
edge $-1 $330 -5.4300214914694038 $423 6.2807503613820685 $326 $424 forward 7 unknown #
coedge $-1 $214 $213 $333 $425 reversed $77 $-1 #
edge $-1 $426 -88.768562353899569 $330 -73.481235281184183 $324 $427 forward 7 unknown #
vertex $-1 $216 $428 #
straight-curve $-1 21.984606305260051 32.673509324098312 11.481234341988714 1 0 0 I I #
coedge $-1 $323 $217 $220 $337 reversed $210 $-1 #
coedge $-1 $217 $323 $328 $425 forward $210 $-1 #
vertex $-1 $218 $429 #
straight-curve $-1 31.174859874599633 44.384281176949791 88.839503882323186 0 0 1 I I #
straight-curve $-1 31.174859874599633 -23.616382149440952 58.71406250573429 0 0.76604443648966558 -0.64278761758704617 I I #
edge $-1 $423 -56.763565346440572 $222 -31.174859874599633 $332 $430 forward 7 unknown #
point $-1 31.174859874599633 44.384281176949791 11.481234341988712 #
point $-1 31.174859874599633 32.673509324098319 11.48123434198871 #
edge $-1 $431 1 $431 0 $225 $-1 forward 7 unknown #
vertex $-1 $226 $432 #
ellipse-curve $-1 38.485918580839908 36.177542560297752 3.7657491104757801 0 0.64278761758704617 0.76604443648966558 1.5 0 0 1 I I #
point $-1 39.985918580839908 38.528895250524045 6.5679820678163665 #
edge $-1 $433 1 $433 0 $229 $-1 forward 7 unknown #
vertex $-1 $230 $434 #
ellipse-curve $-1 49.452506640200312 36.177542560297752 3.7657491104757801 0 0.64278761758704617 0.76604443648966558 1.5 0 0 1 I I #
point $-1 50.952506640200312 38.528895250524045 6.5679820678163665 #
plane-surface $-1 0 0 11.481234341988712 0 0 1 1 0 0 forward_v I I I I #
coedge $-1 $359 $358 $351 $435 forward $234 $-1 #
coedge $-1 $351 $236 $238 $355 reversed $146 $-1 #
coedge $-1 $236 $350 $349 $435 reversed $146 $-1 #
coedge $-1 $244 $239 $236 $353 forward $245 $-1 #
edge $-1 $356 -41.204220539400865 $436 -35.512204131171679 $352 $437 forward 7 unknown #
coedge $-1 $238 $237 $359 $438 reversed $91 $-1 #
edge $-1 $439 -3.208459706215348e-014 $356 8.5065851604660914 $350 $440 forward 7 unknown #
vertex $-1 $240 $441 #
straight-curve $-1 -12.569173842513973 -38.692264768720598 11.481234341988712 -1 0 0 I I #
coedge $-1 $349 $241 $244 $363 reversed $234 $-1 #
coedge $-1 $241 $349 $354 $438 forward $234 $-1 #
vertex $-1 $242 $442 #
straight-curve $-1 -17.213522606416504 -44.384281176949791 54.537028829522022 0 0 1 I I #
straight-curve $-1 -17.213522606416504 -44.38428117694977 5.1596095270608373 0 -0.66913059716165679 -0.74314483375859142 I I #
edge $-1 $436 -115.93925580744667 $246 -100.08960565022379 $358 $443 forward 7 unknown #
point $-1 -17.213522606416504 -44.384281176949791 11.481234341988712 #
point $-1 -17.213522606416504 -38.692264768720605 11.481234341988712 #
edge $-1 $444 1 $444 0 $249 $-1 forward 7 unknown #
vertex $-1 $250 $445 #
ellipse-curve $-1 -25.138347685027945 -39.615308888093757 6.5889773386770552 0 -0.74314483375859142 0.66913059716165679 2 0 0 1 I I #
point $-1 -23.138347685027945 -41.538272972835216 8.3204219345247843 #
plane-surface $-1 77.648854029969186 0 0 -1 0 0 0 0 1 forward_v I I I I #
coedge $-1 $258 $256 $260 $375 reversed $161 $-1 #
edge $-1 $271 -11.481234341988712 $377 11.481234341988712 $270 $446 forward 7 unknown #
vertex $-1 $375 $447 #
straight-curve $-1 -77.648854029969186 -44.384281176949791 0 0 0 -1 I I #
edge $-1 $373 -44.384281176949791 $377 44.384281176949791 $371 $448 forward 7 unknown #
straight-curve $-1 0 -44.384281176949791 -11.481234341988712 -1 0 0 I I #
vertex $-1 $263 $449 #
straight-curve $-1 0 44.384281176949791 -11.481234341988712 1 0 0 I I #
point $-1 77.648854029969186 44.384281176949791 -11.481234341988712 #
point $-1 77.648854029969186 -44.384281176949791 -11.481234341988712 #
straight-curve $-1 -77.648854029969186 0 11.481234341988712 0 -1 0 I I #
point $-1 -77.648854029969186 44.384281176949791 11.481234341988712 #
point $-1 -77.648854029969186 -44.384281176949791 11.481234341988712 #
straight-curve $-1 77.648854029969186 -44.384281176949791 0 0 0 -1 I I #
straight-curve $-1 77.648854029969186 44.384281176949791 0 0 0 -1 I I #
plane-surface $-1 0 -44.384281176949791 0 0 1 0 0 0 1 forward_v I I I I #
coedge $-1 $450 $283 $297 $401 reversed $180 $-1 #
coedge $-1 $283 $450 $392 $451 reversed $180 $-1 #
edge $-1 $393 -1.9407059739974031 $390 1.9407059739974031 $284 $452 forward 7 unknown #
vertex $-1 $285 $453 #
straight-curve $-1 -82.876083043807299 44.384281176949791 7.5998223939939056 1 0 0 I I #
coedge $-1 $396 $286 $388 $451 forward $281 $-1 #
vertex $-1 $287 $454 #
straight-curve $-1 0 44.384281176949791 11.481234341988712 -1 0 0 I I #
point $-1 -77.648854029969186 44.384281176949791 11.481234341988712 #
coedge $-1 $290 $392 $292 $399 forward $281 $-1 #
straight-curve $-1 -77.648854029969186 0 11.481234341988712 0 1 0 I I #
coedge $-1 $293 $292 $450 $455 forward $294 $-1 #
edge $-1 $456 -88.103312057645411 $295 -77.648854029969186 $292 $457 forward 7 unknown #
point $-1 -77.648854029969186 -44.384281176949791 11.481234341988712 #
edge $-1 $402 -44.384281176949791 $390 44.384281176949791 $387 $458 forward 7 unknown #
vertex $-1 $401 $459 #
straight-curve $-1 -82.876083043807299 -44.384281176949791 7.5998223939939056 -1 0 0 I I #
plane-surface $-1 0 44.384281176949791 0 0 -1 0 0 0 -1 forward_v I I I I #
coedge $-1 $406 $409 $408 $460 forward $302 $-1 #
coedge $-1 $461 $405 $304 $407 reversed $302 $-1 #
edge $-1 $418 -44.384281176949791 $420 44.384281176949791 $406 $462 forward 7 unknown #
coedge $-1 $306 $305 $405 $460 reversed $116 $-1 #
coedge $-1 $405 $461 $307 $410 reversed $302 $-1 #
edge $-1 $411 -44.384281176949791 $414 44.384281176949791 $409 $463 forward 7 unknown #
vertex $-1 $410 $464 #
straight-curve $-1 82.876083043807284 -44.384281176949791 11.481234341988712 1 0 0 I I #
coedge $-1 $315 $309 $461 $465 forward $316 $-1 #
vertex $-1 $410 $466 #
straight-curve $-1 0 44.384281176949791 11.481234341988712 -1 0 0 I I #
point $-1 77.648854029969186 44.384281176949791 11.481234341988712 #
point $-1 77.648854029969186 -44.384281176949791 11.481234341988712 #
vertex $-1 $407 $467 #
straight-curve $-1 82.876083043807284 44.384281176949791 7.5998223939939056 1 0 0 I I #
vertex $-1 $460 $468 #
straight-curve $-1 82.876083043807284 -44.384281176949791 7.5998223939939056 -1 0 0 I I #
edge $-1 $423 77.358269540334476 $426 87.184774088679148 $323 $469 forward 7 unknown #
vertex $-1 $337 $470 #
straight-curve $-1 56.763565346440572 38.103530815567723 11.48123434198871 0 1 0 I I #
edge $-1 $426 -34.778959041180521 $334 -9.1902535693395819 $333 $471 forward 7 unknown #
vertex $-1 $425 $472 #
straight-curve $-1 56.763565346440572 -23.616382149440952 58.71406250573429 0 -0.76604443648966558 0.64278761758704617 I I #
point $-1 56.763565346440572 32.673509324098319 11.48123434198871 #
point $-1 31.174859874599633 44.384281176949784 1.6547297936440302 #
straight-curve $-1 0 44.384281176949791 11.481234341988712 -1 0 0 I I #
vertex $-1 $340 $473 #
point $-1 39.985918580839908 36.177542560297752 3.7657491104757801 #
vertex $-1 $344 $474 #
point $-1 50.952506640200312 36.177542560297752 3.7657491104757801 #
edge $-1 $436 43.055794487533312 $439 49.377419302461206 $349 $475 forward 7 unknown #
vertex $-1 $363 $476 #
straight-curve $-1 -33.063172763639386 -79.89648530812147 11.48123434198871 0 -1 0 I I #
edge $-1 $439 -20.493998921125414 $360 -4.6443487639025314 $359 $477 forward 7 unknown #
vertex $-1 $438 $478 #
straight-curve $-1 -33.063172763639386 -44.38428117694977 5.1596095270608373 0 0.66913059716165679 0.74314483375859142 I I #
point $-1 -33.063172763639386 -38.692264768720605 11.481234341988712 #
point $-1 -17.213522606416504 -44.384281176949791 5.1596095270608133 #
straight-curve $-1 82.876083043807284 -44.384281176949791 11.481234341988712 1 0 0 I I #
vertex $-1 $366 $479 #
point $-1 -23.138347685027945 -39.615308888093757 6.5889773386770552 #
straight-curve $-1 -77.648854029969186 44.384281176949791 0 0 0 -1 I I #
point $-1 -77.648854029969186 -44.384281176949791 -11.481234341988712 #
straight-curve $-1 -77.648854029969186 0 -11.481234341988712 0 1 0 I I #
point $-1 -77.648854029969186 44.384281176949791 -11.481234341988712 #
coedge $-1 $388 $387 $398 $455 reversed $180 $-1 #
edge $-1 $393 -44.384281176949791 $456 44.384281176949791 $388 $480 forward 7 unknown #
straight-curve $-1 -88.103312057645411 44.384281176949791 9.5405283679913087 0 0 -1 I I #
point $-1 -88.103312057645411 44.384281176949791 7.5998223939939056 #
point $-1 -88.103312057645411 44.384281176949791 11.481234341988712 #
edge $-1 $456 -1.9407059739974031 $402 1.9407059739974031 $450 $481 forward 7 unknown #
vertex $-1 $451 $482 #
straight-curve $-1 0 -44.384281176949791 11.481234341988712 1 0 0 I I #
straight-curve $-1 -88.103312057645411 0 7.5998223939939056 0 1 0 I I #
point $-1 -88.103312057645411 -44.384281176949791 7.5998223939939056 #
edge $-1 $411 -1.9407059739974031 $420 1.9407059739974031 $405 $483 forward 7 unknown #
coedge $-1 $409 $406 $413 $465 reversed $302 $-1 #
straight-curve $-1 88.103312057645397 0 7.5998223939939056 0 -1 0 I I #
straight-curve $-1 88.103312057645397 0 11.481234341988712 0 1 0 I I #
point $-1 88.103312057645397 -44.384281176949791 11.481234341988712 #
edge $-1 $414 -1.9407059739974031 $418 1.9407059739974031 $461 $484 forward 7 unknown #
point $-1 88.103312057645397 44.384281176949791 11.481234341988712 #
point $-1 88.103312057645397 44.384281176949791 7.5998223939939056 #
point $-1 88.103312057645397 -44.384281176949791 7.5998223939939056 #
straight-curve $-1 56.763565346440572 44.384281176949791 88.839503882323186 0 0 -1 I I #
point $-1 56.763565346440572 44.384281176949791 11.481234341988712 #
straight-curve $-1 21.984606305260051 44.384281176949784 1.6547297936440373 -1 0 0 I I #
point $-1 56.763565346440572 44.384281176949784 1.6547297936440302 #
point $-1 38.485918580839908 35.213361133917189 2.6166824557412811 #
point $-1 49.452506640200312 35.213361133917189 2.6166824557412811 #
straight-curve $-1 -33.063172763639386 -44.384281176949791 54.537028829522022 0 0 -1 I I #
point $-1 -33.063172763639386 -44.384281176949791 11.481234341988712 #
straight-curve $-1 -12.569173842513973 -44.384281176949791 5.1596095270608178 1 0 0 I I #
point $-1 -33.063172763639386 -44.384281176949791 5.1596095270608133 #
point $-1 -25.138347685027945 -38.129019220576573 5.2507161443537411 #
straight-curve $-1 -88.103312057645411 0 11.481234341988712 0 -1 0 I I #
straight-curve $-1 -88.103312057645411 -44.384281176949791 9.5405283679913087 0 0 -1 I I #
point $-1 -88.103312057645411 -44.384281176949791 11.481234341988712 #
straight-curve $-1 88.103312057645397 -44.384281176949791 9.5405283679913087 0 0 -1 I I #
straight-curve $-1 88.103312057645397 44.384281176949791 9.5405283679913087 0 0 -1 I I #
End-of-ACIS-data 