500 0 5 0           
7 Unknown 11 ACIS 5.0 NT 24 Fri Mar 26 02:30:01 1999 
-1 9.9999999999999995e-007 1e-010 
body $-1 $5 $-1 $6 #
body $-1 $7 $-1 $8 #
body $-1 $9 $-1 $10 #
body $-1 $11 $-1 $12 #
body $-1 $13 $-1 $14 #
lump $-1 $-1 $15 $0 #
transform $-1 1 0 0 0 1 0 0 0 1 44.421521652882475 20.508164035650044 6.6890149331524489 1 rotate no_reflect no_shear #
lump $-1 $-1 $16 $1 #
transform $-1 1 0 0 0 1 0 0 0 1 44.421521652882475 20.508164035650044 6.6890149331524489 1 rotate no_reflect no_shear #
lump $-1 $-1 $17 $2 #
transform $-1 1 0 0 0 1 0 0 0 1 44.421521652882475 20.508164035650044 6.6890149331524489 1 rotate no_reflect no_shear #
lump $-1 $-1 $18 $3 #
transform $-1 1 0 0 0 1 0 0 0 1 44.421521652882475 20.508164035650044 6.6890149331524489 1 rotate no_reflect no_shear #
lump $-1 $-1 $19 $4 #
transform $-1 1 0 0 0 1 0 0 0 1 44.421521652882475 20.508164035650044 6.6890149331524489 1 rotate no_reflect no_shear #
shell $-1 $-1 $-1 $20 $-1 $5 #
shell $-1 $-1 $-1 $21 $-1 $7 #
shell $-1 $-1 $-1 $22 $-1 $9 #
shell $-1 $-1 $-1 $23 $-1 $11 #
shell $-1 $-1 $-1 $24 $-1 $13 #
face $-1 $25 $26 $15 $-1 $27 forward single #
face $-1 $28 $29 $16 $-1 $30 forward single #
face $-1 $31 $32 $17 $-1 $33 forward single #
face $-1 $34 $35 $18 $-1 $36 forward single #
face $-1 $37 $38 $19 $-1 $39 reversed single #
face $-1 $40 $41 $15 $-1 $42 reversed single #
loop $-1 $-1 $43 $20 #
plane-surface $-1 0 0 6.6890149331524489 0 0 1 1 0 0 forward_v I I I I #
face $-1 $44 $45 $16 $-1 $46 forward single #
loop $-1 $-1 $47 $21 #
plane-surface $-1 -42.921521652882475 -12.532593111588977 0 0 -1 0 0 0 -1 forward_v I I I I #
face $-1 $48 $49 $17 $-1 $50 forward single #
loop $-1 $-1 $51 $22 #
plane-surface $-1 -42.921521652882475 12.532593111588973 0 0 1 0 0 0 1 forward_v I I I I #
face $-1 $52 $53 $18 $-1 $54 forward single #
loop $-1 $-1 $55 $23 #
plane-surface $-1 44.421523110662307 8.2749859073309544 125.99857462857325 0 -1 0 -0.70710678939079041 0 -0.70710677298230451 forward_v I I I I #
face $-1 $56 $57 $19 $-1 $58 reversed single #
loop $-1 $59 $60 $24 #
cone-surface $-1 40.052591592145738 5.0162389375239407 2.3200848268281993 -0.70710678939079041 0 -0.70710677298230451 0.70710677298230451 0 -0.70710678939079041 1 I I 0 1 1 forward I I I I #
face $-1 $61 $62 $15 $-1 $63 reversed single #
loop $-1 $-1 $64 $25 #
plane-surface $-1 0 0 -6.6890149331524489 0 0 1 1 0 0 forward_v I I I I #
coedge $-1 $65 $66 $67 $68 forward $26 $-1 #
face $-1 $69 $70 $16 $-1 $71 forward single #
loop $-1 $-1 $72 $28 #
plane-surface $-1 -41.421521652882475 -16.52037857361951 0 -1 0 0 0 0 1 forward_v I I I I #
coedge $-1 $73 $74 $75 $76 reversed $29 $-1 #
face $-1 $77 $78 $17 $-1 $79 forward single #
loop $-1 $-1 $80 $31 #
plane-surface $-1 -41.421521652882475 16.520378573619507 0 -1 0 0 0 0 1 forward_v I I I I #
coedge $-1 $81 $82 $83 $84 reversed $32 $-1 #
face $-1 $85 $86 $18 $-1 $87 forward single #
loop $-1 $-1 $88 $34 #
plane-surface $-1 -18.399996000984103 5.0162389375239407 63.177056974706666 0.70710678939079041 0 0.70710677298230451 0.70710677298230451 0 -0.70710678939079041 forward_v I I I I #
coedge $-1 $89 $90 $91 $92 reversed $35 $-1 #
face $-1 $93 $94 $19 $-1 $95 forward single #
loop $-1 $96 $97 $37 #
cone-surface $-1 38.496846598275212 5.0162389375239407 0.76433986905889473 -0.70710678939079041 0 -0.70710677298230451 0.35355338649115226 0 -0.35355339469539521 1 I I -0.70710678118654746 0.70710678118654746 0.5 forward I I I I #
loop $-1 $-1 $98 $24 #
coedge $-1 $60 $60 $99 $100 reversed $38 $-1 #
face $-1 $101 $102 $15 $-1 $103 reversed single #
loop $-1 $-1 $104 $40 #
plane-surface $-1 0 -20.508164035650044 0 0 1 0 0 0 1 forward_v I I I I #
coedge $-1 $105 $106 $107 $108 forward $41 $-1 #
coedge $-1 $109 $43 $110 $111 forward $26 $-1 #
coedge $-1 $43 $109 $112 $113 forward $26 $-1 #
coedge $-1 $114 $115 $43 $68 reversed $116 $-1 #
edge $-1 $117 -20.508164035650044 $118 20.508164035650044 $67 $119 forward 7 unknown #
face $-1 $120 $121 $16 $-1 $122 reversed single #
loop $-1 $-1 $123 $44 #
plane-surface $-1 0 0 6.6890149331524489 0 0 1 1 0 0 forward_v I I I I #
coedge $-1 $124 $125 $126 $127 reversed $45 $-1 #
coedge $-1 $128 $47 $123 $129 reversed $29 $-1 #
coedge $-1 $47 $128 $130 $131 reversed $29 $-1 #
coedge $-1 $125 $124 $47 $76 forward $45 $-1 #
edge $-1 $132 -6.6890149331524489 $133 6.6890149331524489 $75 $134 forward 7 unknown #
face $-1 $135 $136 $17 $-1 $137 reversed single #
loop $-1 $-1 $138 $48 #
plane-surface $-1 0 0 6.6890149331524489 0 0 1 1 0 0 forward_v I I I I #
coedge $-1 $139 $140 $141 $142 reversed $49 $-1 #
coedge $-1 $141 $51 $143 $144 reversed $32 $-1 #
coedge $-1 $51 $141 $145 $146 reversed $32 $-1 #
coedge $-1 $147 $148 $51 $84 forward $136 $-1 #
edge $-1 $149 -6.6890149331524489 $150 6.6890149331524489 $83 $151 forward 7 unknown #
face $-1 $152 $153 $18 $-1 $154 forward single #
loop $-1 $-1 $155 $52 #
plane-surface $-1 44.421523110662307 1.757491967716927 125.99857462857325 0 1 0 0.70710678939079041 0 0.70710677298230451 forward_v I I I I #
coedge $-1 $156 $157 $158 $159 reversed $53 $-1 #
coedge $-1 $90 $55 $157 $160 forward $35 $-1 #
coedge $-1 $55 $89 $161 $162 reversed $35 $-1 #
coedge $-1 $163 $158 $55 $92 forward $153 $-1 #
edge $-1 $164 15.877283174428122 $165 22.210760097551322 $91 $166 forward 7 unknown #
face $-1 $167 $168 $19 $-1 $169 forward single #
loop $-1 $-1 $170 $56 #
plane-surface $-1 44.421523110662307 8.2749859073309544 125.99857462857325 0 -1 0 -0.70710678939079041 0 -0.70710677298230451 forward_v I I I I #
loop $-1 $-1 $171 $37 #
coedge $-1 $97 $97 $98 $172 forward $57 $-1 #
coedge $-1 $98 $98 $97 $172 reversed $59 $-1 #
coedge $-1 $99 $99 $60 $100 forward $168 $-1 #
edge $-1 $173 0 $173 6.2831853071796004 $99 $174 forward 7 unknown #
face $-1 $175 $176 $15 $-1 $177 reversed single #
loop $-1 $-1 $178 $61 #
plane-surface $-1 -44.421521652882475 0 0 1 0 0 0 0 -1 forward_v I I I I #
coedge $-1 $179 $112 $180 $181 forward $62 $-1 #
coedge $-1 $182 $64 $179 $183 forward $41 $-1 #
coedge $-1 $64 $182 $184 $185 forward $41 $-1 #
coedge $-1 $115 $114 $64 $108 reversed $116 $-1 #
edge $-1 $186 -20.508164035650044 $187 20.508164035650044 $107 $188 forward 7 unknown #
coedge $-1 $66 $65 $189 $190 forward $26 $-1 #
coedge $-1 $191 $192 $65 $111 reversed $176 $-1 #
edge $-1 $118 -44.421521652882475 $193 44.421521652882475 $110 $194 forward 7 unknown #
coedge $-1 $104 $195 $66 $113 reversed $62 $-1 #
edge $-1 $196 -44.421521652882475 $117 44.421521652882475 $112 $197 forward 7 unknown #
coedge $-1 $107 $67 $195 $198 forward $116 $-1 #
coedge $-1 $67 $107 $191 $199 reversed $116 $-1 #
loop $-1 $-1 $114 $175 #
vertex $-1 $68 $200 #
vertex $-1 $68 $201 #
straight-curve $-1 44.421521652882475 0 6.6890149331524489 0 1 0 I I #
face $-1 $202 $203 $16 $-1 $204 reversed single #
loop $-1 $-1 $126 $69 #
plane-surface $-1 0 -20.508164035650044 0 0 1 0 0 0 1 forward_v I I I I #
coedge $-1 $205 $206 $73 $129 forward $70 $-1 #
coedge $-1 $75 $72 $205 $207 reversed $45 $-1 #
coedge $-1 $72 $75 $208 $209 reversed $45 $-1 #
coedge $-1 $210 $211 $72 $127 forward $121 $-1 #
edge $-1 $212 -6.6890149331524489 $213 6.6890149331524489 $126 $214 forward 7 unknown #
coedge $-1 $74 $73 $215 $216 reversed $29 $-1 #
edge $-1 $217 -22.960760826441238 $132 -19.960760826441238 $123 $218 forward 7 unknown #
coedge $-1 $219 $208 $74 $131 forward $203 $-1 #
edge $-1 $133 19.960760826441238 $220 22.960760826441238 $130 $221 forward 7 unknown #
vertex $-1 $129 $222 #
vertex $-1 $131 $223 #
straight-curve $-1 -41.421521652882475 -12.532593111588977 0 0 0 -1 I I #
face $-1 $224 $225 $17 $-1 $226 forward single #
loop $-1 $-1 $83 $77 #
plane-surface $-1 -44.421521652882475 0 0 1 0 0 0 0 -1 forward_v I I I I #
coedge $-1 $143 $227 $139 $228 forward $78 $-1 #
coedge $-1 $229 $80 $138 $228 reversed $49 $-1 #
coedge $-1 $80 $229 $230 $231 reversed $49 $-1 #
coedge $-1 $82 $81 $80 $142 forward $32 $-1 #
edge $-1 $232 -6.6890149331524489 $233 6.6890149331524489 $80 $234 forward 7 unknown #
coedge $-1 $235 $138 $81 $144 forward $78 $-1 #
edge $-1 $232 19.960760826441238 $149 22.960760826441238 $143 $236 forward 7 unknown #
coedge $-1 $230 $237 $82 $146 forward $238 $-1 #
edge $-1 $150 -22.960760826441238 $233 -19.960760826441238 $145 $239 forward 7 unknown #
coedge $-1 $240 $83 $237 $241 reversed $136 $-1 #
coedge $-1 $83 $240 $235 $242 reversed $136 $-1 #
vertex $-1 $242 $243 #
vertex $-1 $84 $244 #
straight-curve $-1 -44.421521652882475 12.532593111588973 0 0 0 -1 I I #
face $-1 $245 $246 $18 $-1 $247 forward single #
loop $-1 $-1 $248 $85 #
plane-surface $-1 0 0 6.6890149331524489 0 0 1 1 0 0 forward_v I I I I #
coedge $-1 $249 $250 $248 $251 reversed $86 $-1 #
coedge $-1 $252 $88 $250 $253 reversed $53 $-1 #
coedge $-1 $88 $252 $89 $160 reversed $53 $-1 #
coedge $-1 $91 $248 $88 $159 forward $153 $-1 #
edge $-1 $254 -0.75062750104504339 $164 5.7668664385689841 $158 $255 forward 7 unknown #
edge $-1 $164 79.886154240184354 $256 88.843043305764965 $89 $257 forward 7 unknown #
coedge $-1 $258 $259 $90 $162 forward $260 $-1 #
edge $-1 $165 56.310272381134176 $256 62.643749451226356 $161 $261 forward 7 unknown #
coedge $-1 $262 $91 $259 $263 forward $153 $-1 #
vertex $-1 $159 $264 #
vertex $-1 $263 $265 #
straight-curve $-1 22.210761555331153 8.2749859073309544 6.6890149331524498 1 0 0 I I #
face $-1 $266 $267 $19 $-1 $268 forward single #
loop $-1 $269 $99 $93 #
plane-surface $-1 -18.399996000984103 5.0162389375239407 63.177056974706666 0.70710678939079041 0 0.70710677298230451 0.70710677298230451 0 -0.70710678939079041 forward_v I I I I #
coedge $-1 $270 $271 $272 $273 reversed $94 $-1 #
coedge $-1 $171 $171 $-1 $274 forward $96 $-1 #
edge $-1 $275 0 $275 6.2831853071796004 $97 $276 forward 7 unknown #
vertex $-1 $100 $277 #
ellipse-curve $-1 41.254783191320875 5.0162389375239407 3.5222763981063574 -0.70710678939079041 0 -0.70710677298230451 0.70710677298230451 0 -0.70710678939079041 1 I I #
face $-1 $-1 $116 $15 $-1 $278 reversed single #
loop $-1 $-1 $191 $101 #
plane-surface $-1 0 20.508164035650044 0 0 -1 0 0 0 -1 forward_v I I I I #
coedge $-1 $279 $189 $192 $280 forward $102 $-1 #
coedge $-1 $195 $104 $105 $183 reversed $62 $-1 #
coedge $-1 $189 $279 $104 $181 reversed $102 $-1 #
edge $-1 $196 -6.6890149331524489 $281 6.6890149331524489 $180 $282 forward 7 unknown #
coedge $-1 $106 $105 $279 $283 forward $41 $-1 #
edge $-1 $187 -44.421521652882475 $281 44.421521652882475 $179 $284 forward 7 unknown #
coedge $-1 $192 $191 $106 $185 reversed $176 $-1 #
edge $-1 $285 -44.421521652882475 $186 44.421521652882475 $184 $286 forward 7 unknown #
vertex $-1 $108 $287 #
vertex $-1 $198 $288 #
straight-curve $-1 44.421521652882475 0 -6.6890149331524489 0 -1 0 I I #
coedge $-1 $178 $180 $109 $190 reversed $102 $-1 #
edge $-1 $193 -20.508164035650044 $196 20.508164035650044 $189 $289 forward 7 unknown #
coedge $-1 $184 $110 $115 $199 forward $176 $-1 #
coedge $-1 $110 $184 $178 $280 reversed $176 $-1 #
vertex $-1 $111 $290 #
straight-curve $-1 0 20.508164035650044 6.6890149331524489 -1 0 0 I I #
coedge $-1 $112 $179 $114 $198 reversed $62 $-1 #
vertex $-1 $190 $291 #
straight-curve $-1 0 -20.508164035650044 6.6890149331524489 1 0 0 I I #
edge $-1 $117 -6.6890149331524489 $187 6.6890149331524489 $114 $292 forward 7 unknown #
edge $-1 $118 -6.6890149331524489 $186 6.6890149331524489 $115 $293 forward 7 unknown #
point $-1 44.421521652882475 -20.508164035650044 6.6890149331524489 #
point $-1 44.421521652882475 20.508164035650044 6.6890149331524489 #
face $-1 $294 $295 $16 $-1 $296 reversed single #
loop $-1 $-1 $130 $120 #
plane-surface $-1 0 0 -6.6890149331524489 0 0 1 1 0 0 forward_v I I I I #
coedge $-1 $297 $123 $124 $207 forward $70 $-1 #
coedge $-1 $123 $298 $299 $300 forward $70 $-1 #
edge $-1 $132 4.2724038247792215 $212 12.247974748840289 $205 $301 forward 7 unknown #
coedge $-1 $130 $302 $125 $209 forward $203 $-1 #
edge $-1 $213 -12.247974748840289 $133 -4.2724038247792215 $208 $303 forward 7 unknown #
coedge $-1 $304 $126 $302 $305 reversed $121 $-1 #
coedge $-1 $126 $304 $297 $306 reversed $121 $-1 #
vertex $-1 $306 $307 #
vertex $-1 $127 $308 #
straight-curve $-1 -41.421521652882475 -20.508164035650044 0 0 0 -1 I I #
coedge $-1 $299 $309 $128 $216 forward $295 $-1 #
edge $-1 $220 -6.6890149331524489 $217 6.6890149331524489 $215 $310 forward 7 unknown #
vertex $-1 $216 $311 #
straight-curve $-1 -21.460760826441238 -12.532593111588977 6.6890149331524489 1 0 0 I I #
coedge $-1 $312 $130 $309 $313 forward $203 $-1 #
vertex $-1 $313 $314 #
straight-curve $-1 -21.460760826441238 -12.532593111588977 -6.6890149331524489 -1 0 0 I I #
point $-1 -41.421521652882475 -12.532593111588977 6.6890149331524489 #
point $-1 -41.421521652882475 -12.532593111588977 -6.6890149331524489 #
face $-1 $315 $316 $17 $-1 $317 forward single #
loop $-1 $-1 $318 $135 #
plane-surface $-1 -42.921521652882475 -12.532593111588977 0 0 -1 0 0 0 -1 forward_v I I I I #
coedge $-1 $138 $319 $320 $321 forward $78 $-1 #
edge $-1 $322 -12.247974748840287 $232 -4.2724038247792198 $138 $323 forward 7 unknown #
coedge $-1 $140 $139 $324 $325 reversed $49 $-1 #
coedge $-1 $326 $145 $140 $231 forward $238 $-1 #
edge $-1 $233 4.2724038247792198 $327 12.247974748840287 $230 $328 forward 7 unknown #
vertex $-1 $144 $329 #
vertex $-1 $146 $330 #
straight-curve $-1 -41.421521652882475 12.532593111588973 0 0 0 -1 I I #
coedge $-1 $331 $143 $148 $242 forward $78 $-1 #
straight-curve $-1 -21.460760826441238 12.532593111588973 6.6890149331524489 -1 0 0 I I #
coedge $-1 $145 $332 $147 $241 forward $238 $-1 #
loop $-1 $-1 $230 $333 #
straight-curve $-1 -21.460760826441238 12.532593111588973 -6.6890149331524489 1 0 0 I I #
coedge $-1 $148 $147 $334 $335 forward $136 $-1 #
edge $-1 $336 -12.532593111588977 $150 12.532593111588973 $147 $337 forward 7 unknown #
edge $-1 $149 -12.532593111588973 $338 12.532593111588977 $148 $339 forward 7 unknown #
point $-1 -44.421521652882475 12.532593111588973 6.6890149331524489 #
point $-1 -44.421521652882475 12.532593111588973 -6.6890149331524489 #
face $-1 $340 $341 $18 $-1 $342 forward single #
loop $-1 $-1 $343 $152 #
plane-surface $-1 -42.921521652882475 12.532593111588973 0 0 1 0 0 0 1 forward_v I I I I #
coedge $-1 $158 $344 $155 $251 forward $153 $-1 #
coedge $-1 $250 $155 $345 $346 reversed $86 $-1 #
coedge $-1 $155 $249 $156 $253 forward $86 $-1 #
edge $-1 $347 -22.210760097551322 $254 -15.877283174428122 $248 $348 forward 7 unknown #
coedge $-1 $157 $156 $258 $349 reversed $53 $-1 #
edge $-1 $350 -88.843043305764965 $254 -79.886154240184354 $250 $351 forward 7 unknown #
vertex $-1 $159 $352 #
straight-curve $-1 38.088044729759282 2.5081194687619703 6.6890149331524427 0 1 0 I I #
vertex $-1 $349 $353 #
straight-curve $-1 -18.399996000984103 8.2749859073309544 63.177056974706666 0.70710677298230451 0 -0.70710678939079041 I I #
coedge $-1 $345 $161 $252 $349 forward $260 $-1 #
coedge $-1 $161 $354 $163 $263 reversed $260 $-1 #
loop $-1 $-1 $345 $355 #
straight-curve $-1 44.421521652882475 8.2749859073309544 62.999287314286626 0 0 -1 I I #
coedge $-1 $356 $163 $357 $358 forward $153 $-1 #
edge $-1 $165 8.2749859073309544 $359 20.508164035650044 $259 $360 forward 7 unknown #
point $-1 38.088044729759275 8.2749859073309544 6.6890149331524498 #
point $-1 44.421521652882475 8.2749859073309544 6.6890149331524489 #
face $-1 $361 $362 $19 $-1 $363 forward single #
loop $-1 $-1 $364 $167 #
plane-surface $-1 44.421523110662307 1.757491967716927 125.99857462857325 0 1 0 0.70710678939079041 0 0.70710677298230451 forward_v I I I I #
loop $-1 $-1 $365 $93 #
coedge $-1 $271 $170 $366 $367 forward $94 $-1 #
coedge $-1 $170 $270 $368 $369 reversed $94 $-1 #
coedge $-1 $370 $371 $170 $273 forward $362 $-1 #
edge $-1 $372 15.877283174428122 $373 22.210760097551322 $272 $374 forward 7 unknown #
edge $-1 $375 1 $375 0 $171 $-1 forward 7 unknown #
vertex $-1 $172 $376 #
ellipse-curve $-1 38.850399992970608 5.0162389375239407 1.1178932555500469 0.70710678939079041 0 0.70710677298230451 0.70710677298230451 0 -0.70710678939079041 1 I I #
point $-1 41.961889964303175 5.0162389375239407 2.8151696087155607 #
plane-surface $-1 44.421521652882475 0 0 -1 0 0 0 0 1 forward_v I I I I #
coedge $-1 $180 $178 $182 $283 reversed $102 $-1 #
edge $-1 $193 -6.6890149331524489 $285 6.6890149331524489 $192 $377 forward 7 unknown #
vertex $-1 $283 $378 #
straight-curve $-1 -44.421521652882475 -20.508164035650044 0 0 0 -1 I I #
edge $-1 $281 -20.508164035650044 $285 20.508164035650044 $279 $379 forward 7 unknown #
straight-curve $-1 0 -20.508164035650044 -6.6890149331524489 -1 0 0 I I #
vertex $-1 $185 $380 #
straight-curve $-1 0 20.508164035650044 -6.6890149331524489 1 0 0 I I #
point $-1 44.421521652882475 20.508164035650044 -6.6890149331524489 #
point $-1 44.421521652882475 -20.508164035650044 -6.6890149331524489 #
straight-curve $-1 -44.421521652882475 0 6.6890149331524489 0 -1 0 I I #
point $-1 -44.421521652882475 20.508164035650044 6.6890149331524489 #
point $-1 -44.421521652882475 -20.508164035650044 6.6890149331524489 #
straight-curve $-1 44.421521652882475 -20.508164035650044 0 0 0 -1 I I #
straight-curve $-1 44.421521652882475 20.508164035650044 0 0 0 -1 I I #
face $-1 $381 $382 $16 $-1 $383 reversed single #
loop $-1 $-1 $215 $202 #
plane-surface $-1 -44.421521652882475 0 0 1 0 0 0 0 -1 forward_v I I I I #
coedge $-1 $384 $205 $211 $306 forward $70 $-1 #
coedge $-1 $206 $384 $385 $386 forward $70 $-1 #
coedge $-1 $387 $215 $206 $300 reversed $295 $-1 #
edge $-1 $388 -20.508164035650044 $217 12.532593111588977 $299 $389 forward 7 unknown #
straight-curve $-1 -41.421521652882475 -8.2601892868097551 6.6890149331524489 0 -1 0 I I #
coedge $-1 $208 $390 $210 $305 forward $203 $-1 #
straight-curve $-1 -41.421521652882475 -8.2601892868097551 -6.6890149331524489 0 1 0 I I #
coedge $-1 $211 $210 $391 $392 reversed $121 $-1 #
edge $-1 $393 -44.421521652882475 $213 41.421521652882475 $210 $394 forward 7 unknown #
edge $-1 $212 -41.421521652882475 $395 44.421521652882475 $211 $396 forward 7 unknown #
point $-1 -41.421521652882475 -20.508164035650044 6.6890149331524489 #
point $-1 -41.421521652882475 -20.508164035650044 -6.6890149331524489 #
coedge $-1 $215 $387 $219 $313 reversed $295 $-1 #
straight-curve $-1 -44.421521652882475 -12.532593111588977 0 0 0 1 I I #
point $-1 -44.421521652882475 -12.532593111588977 6.6890149331524489 #
coedge $-1 $390 $219 $397 $398 forward $203 $-1 #
edge $-1 $220 -12.532593111588977 $399 20.508164035650044 $309 $400 forward 7 unknown #
point $-1 -44.421521652882475 -12.532593111588977 -6.6890149331524489 #
face $-1 $333 $401 $17 $-1 $402 reversed single #
loop $-1 $-1 $403 $224 #
plane-surface $-1 -41.421521652882475 -16.52037857361951 0 -1 0 0 0 0 1 forward_v I I I I #
coedge $-1 $404 $405 $406 $407 reversed $225 $-1 #
coedge $-1 $227 $408 $409 $410 forward $78 $-1 #
coedge $-1 $411 $324 $227 $321 reversed $412 $-1 #
edge $-1 $413 -44.421521652882475 $322 41.421521652882475 $320 $414 forward 7 unknown #
vertex $-1 $325 $415 #
straight-curve $-1 -41.421521652882475 8.2601892868097533 6.6890149331524489 0 -1 0 I I #
coedge $-1 $320 $416 $229 $325 forward $412 $-1 #
edge $-1 $327 -6.6890149331524489 $322 6.6890149331524489 $324 $417 forward 7 unknown #
coedge $-1 $418 $230 $416 $419 forward $238 $-1 #
vertex $-1 $419 $420 #
straight-curve $-1 -41.421521652882475 8.2601892868097533 -6.6890149331524489 0 1 0 I I #
point $-1 -41.421521652882475 12.532593111588973 6.6890149331524489 #
point $-1 -41.421521652882475 12.532593111588973 -6.6890149331524489 #
coedge $-1 $421 $235 $404 $422 forward $78 $-1 #
coedge $-1 $237 $423 $405 $424 forward $238 $-1 #
face $-1 $425 $238 $17 $-1 $426 reversed single #
coedge $-1 $405 $404 $240 $335 reversed $225 $-1 #
edge $-1 $336 -6.6890149331524489 $338 6.6890149331524489 $240 $427 forward 7 unknown #
vertex $-1 $241 $428 #
straight-curve $-1 -44.421521652882475 0 -6.6890149331524489 0 1 0 I I #
vertex $-1 $335 $429 #
straight-curve $-1 -44.421521652882475 0 6.6890149331524489 0 -1 0 I I #
face $-1 $430 $431 $18 $-1 $432 reversed single #
loop $-1 $-1 $433 $245 #
plane-surface $-1 -41.421521652882475 16.520378573619507 0 -1 0 0 0 0 1 forward_v I I I I #
coedge $-1 $434 $435 $436 $437 reversed $246 $-1 #
coedge $-1 $248 $438 $439 $440 forward $153 $-1 #
coedge $-1 $439 $258 $249 $346 forward $260 $-1 #
edge $-1 $350 -62.643749451226356 $347 -56.310272381134176 $345 $441 forward 7 unknown #
vertex $-1 $346 $442 #
straight-curve $-1 22.210761555331153 1.757491967716927 6.6890149331524498 -1 0 0 I I #
edge $-1 $256 -5.7668664385689841 $350 0.75062750104504339 $258 $443 forward 7 unknown #
vertex $-1 $349 $444 #
straight-curve $-1 -18.399996000984103 1.757491967716927 63.177056974706666 -0.70710677298230451 0 0.70710678939079041 I I #
point $-1 38.088044729759275 1.757491967716927 6.6890149331524498 #
point $-1 44.421521652882475 8.2749859073309544 0.35553786306027035 #
coedge $-1 $259 $445 $446 $447 reversed $260 $-1 #
face $-1 $-1 $260 $18 $-1 $448 reversed single #
coedge $-1 $449 $262 $450 $451 forward $153 $-1 #
coedge $-1 $446 $452 $262 $358 reversed $453 $-1 #
edge $-1 $359 -44.421521652882475 $454 41.421521652882475 $357 $455 forward 7 unknown #
vertex $-1 $263 $456 #
straight-curve $-1 44.421521652882475 0 6.6890149331524489 0 1 0 I I #
face $-1 $457 $458 $19 $-1 $459 forward single #
loop $-1 $-1 $460 $266 #
plane-surface $-1 0 0 6.6890149331524489 0 0 1 1 0 0 forward_v I I I I #
coedge $-1 $461 $462 $460 $463 reversed $267 $-1 #
coedge $-1 $464 $366 $371 $465 reversed $269 $-1 #
coedge $-1 $365 $466 $270 $367 reversed $269 $-1 #
edge $-1 $372 79.886154240184354 $467 88.843043305764965 $270 $468 forward 7 unknown #
coedge $-1 $469 $470 $271 $369 forward $471 $-1 #
edge $-1 $373 56.310272381134176 $467 62.643749451226356 $368 $472 forward 7 unknown #
coedge $-1 $473 $272 $470 $474 forward $362 $-1 #
coedge $-1 $272 $460 $365 $465 forward $362 $-1 #
vertex $-1 $465 $475 #
vertex $-1 $474 $476 #
straight-curve $-1 22.210761555331153 8.2749859073309544 6.6890149331524498 1 0 0 I I #
vertex $-1 $274 $477 #
point $-1 39.557506765952908 5.0162389375239407 0.41078646615925657 #
straight-curve $-1 -44.421521652882475 20.508164035650044 0 0 0 -1 I I #
point $-1 -44.421521652882475 -20.508164035650044 -6.6890149331524489 #
straight-curve $-1 -44.421521652882475 0 -6.6890149331524489 0 1 0 I I #
point $-1 -44.421521652882475 20.508164035650044 -6.6890149331524489 #
face $-1 $-1 $478 $16 $-1 $479 reversed single #
loop $-1 $-1 $480 $294 #
plane-surface $-1 0 20.508164035650044 0 0 -1 0 0 0 -1 forward_v I I I I #
coedge $-1 $298 $297 $481 $482 forward $70 $-1 #
coedge $-1 $480 $483 $298 $386 reversed $382 $-1 #
edge $-1 $484 -44.421521652882475 $388 44.421521652882475 $385 $485 forward 7 unknown #
coedge $-1 $309 $299 $483 $486 forward $295 $-1 #
vertex $-1 $386 $487 #
straight-curve $-1 -44.421521652882475 0 6.6890149331524489 0 -1 0 I I #
coedge $-1 $302 $312 $488 $489 forward $203 $-1 #
coedge $-1 $488 $481 $304 $392 forward $478 $-1 #
edge $-1 $395 -6.6890149331524489 $393 6.6890149331524489 $391 $490 forward 7 unknown #
vertex $-1 $392 $491 #
straight-curve $-1 0 -20.508164035650044 -6.6890149331524489 -1 0 0 I I #
vertex $-1 $482 $492 #
straight-curve $-1 0 -20.508164035650044 6.6890149331524489 1 0 0 I I #
coedge $-1 $483 $480 $312 $398 reversed $382 $-1 #
edge $-1 $399 -44.421521652882475 $493 44.421521652882475 $397 $494 forward 7 unknown #
vertex $-1 $398 $495 #
straight-curve $-1 -44.421521652882475 0 -6.6890149331524489 0 1 0 I I #
loop $-1 $-1 $496 $315 #
plane-surface $-1 0 -20.508164035650044 0 0 1 0 0 0 1 forward_v I I I I #
coedge $-1 $497 $498 $496 $499 reversed $316 $-1 #
coedge $-1 $334 $318 $331 $422 reversed $225 $-1 #
coedge $-1 $318 $334 $332 $424 reversed $225 $-1 #
coedge $-1 $498 $497 $318 $407 forward $316 $-1 #
edge $-1 $500 -6.6890149331524489 $501 6.6890149331524489 $406 $502 forward 7 unknown #
coedge $-1 $319 $421 $503 $504 forward $78 $-1 #
coedge $-1 $505 $506 $319 $410 reversed $507 $-1 #
edge $-1 $508 -20.508164035650044 $413 20.508164035650044 $409 $509 forward 7 unknown #
coedge $-1 $416 $320 $506 $510 forward $412 $-1 #
loop $-1 $-1 $324 $425 #
vertex $-1 $410 $511 #
straight-curve $-1 0 20.508164035650044 6.6890149331524489 -1 0 0 I I #
point $-1 -41.421521652882475 20.50816403565004 6.6890149331524489 #
coedge $-1 $324 $411 $326 $419 reversed $412 $-1 #
straight-curve $-1 -41.421521652882475 20.508164035650044 0 0 0 1 I I #
coedge $-1 $512 $326 $513 $514 forward $238 $-1 #
edge $-1 $327 -41.421521652882475 $515 44.421521652882475 $416 $516 forward 7 unknown #
point $-1 -41.421521652882475 20.50816403565004 -6.6890149331524489 #
coedge $-1 $408 $331 $497 $517 forward $78 $-1 #
edge $-1 $338 -22.960760826441238 $500 -19.960760826441238 $331 $518 forward 7 unknown #
coedge $-1 $332 $512 $498 $519 forward $238 $-1 #
edge $-1 $501 19.960760826441238 $336 22.960760826441238 $332 $520 forward 7 unknown #
face $-1 $521 $412 $17 $-1 $522 reversed single #
plane-surface $-1 0 0 -6.6890149331524489 0 0 1 1 0 0 forward_v I I I I #
straight-curve $-1 -44.421521652882475 -12.532593111588977 0 0 0 1 I I #
point $-1 -44.421521652882475 -12.532593111588977 -6.6890149331524489 #
point $-1 -44.421521652882475 -12.532593111588977 6.6890149331524489 #
face $-1 $523 $524 $18 $-1 $525 forward single #
loop $-1 $-1 $436 $340 #
plane-surface $-1 -44.421521652882475 0 0 1 0 0 0 0 -1 forward_v I I I I #
coedge $-1 $450 $526 $527 $528 reversed $341 $-1 #
coedge $-1 $527 $343 $449 $529 reversed $246 $-1 #
coedge $-1 $343 $527 $530 $531 reversed $246 $-1 #
coedge $-1 $532 $533 $343 $437 forward $431 $-1 #
edge $-1 $534 -6.6890149331524489 $535 6.6890149331524489 $436 $536 forward 7 unknown #
coedge $-1 $344 $537 $538 $539 forward $153 $-1 #
coedge $-1 $540 $345 $344 $440 reversed $260 $-1 #
edge $-1 $541 -20.508164035650044 $347 1.757491967716927 $439 $360 forward 7 unknown #
straight-curve $-1 44.421521652882475 1.757491967716927 62.999287314286626 0 0 1 I I #
point $-1 44.421521652882475 1.757491967716927 6.6890149331524489 #
straight-curve $-1 44.421521652882475 2.5081194687619703 0.35553786306026325 0 -1 0 I I #
point $-1 44.421521652882475 1.757491967716927 0.35553786306027035 #
coedge $-1 $354 $540 $542 $543 reversed $260 $-1 #
coedge $-1 $544 $357 $354 $447 forward $453 $-1 #
edge $-1 $359 -6.6890149331524489 $545 6.6890149331524489 $354 $546 forward 7 unknown #
plane-surface $-1 44.421521652882475 0 0 -1 0 0 0 0 1 forward_v I I I I #
coedge $-1 $547 $356 $434 $529 forward $153 $-1 #
coedge $-1 $548 $433 $356 $451 reversed $341 $-1 #
edge $-1 $454 -12.247974748840287 $549 -4.2724038247792198 $356 $550 forward 7 unknown #
coedge $-1 $357 $544 $548 $551 forward $453 $-1 #
loop $-1 $-1 $452 $552 #
vertex $-1 $551 $553 #
straight-curve $-1 0 20.508164035650044 6.6890149331524489 -1 0 0 I I #
point $-1 44.421521652882475 20.508164035650044 6.6890149331524489 #
face $-1 $554 $555 $19 $-1 $556 forward single #
loop $-1 $-1 $557 $361 #
plane-surface $-1 -42.921521652882475 12.532593111588973 0 0 1 0 0 0 1 forward_v I I I I #
coedge $-1 $371 $558 $364 $463 forward $362 $-1 #
coedge $-1 $462 $364 $559 $560 reversed $267 $-1 #
coedge $-1 $364 $461 $464 $561 forward $267 $-1 #
edge $-1 $562 -22.210760097551322 $563 -15.877283174428122 $460 $564 forward 7 unknown #
coedge $-1 $466 $365 $462 $561 reversed $269 $-1 #
edge $-1 $563 -0.75062750104504339 $372 5.7668664385689841 $371 $565 forward 7 unknown #
coedge $-1 $366 $464 $469 $566 reversed $269 $-1 #
vertex $-1 $566 $567 #
straight-curve $-1 -18.399996000984103 8.2749859073309544 63.177056974706666 0.70710677298230451 0 -0.70710678939079041 I I #
coedge $-1 $559 $368 $466 $566 forward $471 $-1 #
coedge $-1 $368 $568 $370 $474 reversed $471 $-1 #
loop $-1 $-1 $559 $569 #
straight-curve $-1 44.421521652882475 8.2749859073309544 62.999287314286626 0 0 -1 I I #
coedge $-1 $570 $370 $571 $572 forward $362 $-1 #
edge $-1 $373 8.2749859073309544 $573 20.508164035650044 $470 $574 forward 7 unknown #
point $-1 38.088044729759275 8.2749859073309544 6.6890149331524498 #
point $-1 44.421521652882475 8.2749859073309544 6.6890149331524489 #
point $-1 38.143293203579816 5.0162389375239407 0.41078648256774247 #
loop $-1 $-1 $391 $381 #
plane-surface $-1 44.421521652882475 0 0 -1 0 0 0 0 1 forward_v I I I I #
coedge $-1 $397 $385 $575 $576 forward $382 $-1 #
coedge $-1 $391 $575 $384 $482 reversed $478 $-1 #
edge $-1 $395 -20.508164035650044 $484 20.508164035650044 $481 $577 forward 7 unknown #
coedge $-1 $385 $397 $387 $486 reversed $382 $-1 #
vertex $-1 $482 $578 #
straight-curve $-1 0 20.508164035650044 6.6890149331524489 -1 0 0 I I #
edge $-1 $388 -6.6890149331524489 $399 6.6890149331524489 $483 $579 forward 7 unknown #
point $-1 -44.421521652882475 20.508164035650044 6.6890149331524489 #
coedge $-1 $575 $391 $390 $489 reversed $478 $-1 #
edge $-1 $493 -20.508164035650044 $393 20.508164035650044 $488 $580 forward 7 unknown #
straight-curve $-1 44.421521652882475 -20.508164035650044 0 0 0 -1 I I #
point $-1 44.421521652882475 -20.508164035650044 -6.6890149331524489 #
point $-1 44.421521652882475 -20.508164035650044 6.6890149331524489 #
vertex $-1 $489 $581 #
straight-curve $-1 0 20.508164035650044 -6.6890149331524489 1 0 0 I I #
point $-1 -44.421521652882475 20.508164035650044 -6.6890149331524489 #
coedge $-1 $582 $503 $403 $499 forward $401 $-1 #
coedge $-1 $406 $403 $421 $517 reversed $316 $-1 #
coedge $-1 $403 $406 $423 $519 reversed $316 $-1 #
edge $-1 $583 -6.6890149331524489 $584 6.6890149331524489 $496 $585 forward 7 unknown #
vertex $-1 $422 $586 #
vertex $-1 $424 $587 #
straight-curve $-1 -41.421521652882475 -12.532593111588977 0 0 0 -1 I I #
coedge $-1 $496 $588 $408 $504 reversed $401 $-1 #
edge $-1 $583 -41.421521652882475 $508 44.421521652882475 $503 $589 forward 7 unknown #
coedge $-1 $513 $409 $588 $590 forward $507 $-1 #
coedge $-1 $409 $513 $411 $510 reversed $507 $-1 #
loop $-1 $-1 $505 $521 #
vertex $-1 $410 $591 #
straight-curve $-1 44.421521652882475 0 6.6890149331524489 0 1 0 I I #
edge $-1 $413 -6.6890149331524489 $515 6.6890149331524489 $506 $592 forward 7 unknown #
point $-1 44.421521652882475 20.508164035650044 6.6890149331524489 #
coedge $-1 $423 $418 $582 $593 forward $238 $-1 #
coedge $-1 $506 $505 $418 $514 reversed $507 $-1 #
edge $-1 $515 -20.508164035650044 $594 20.508164035650044 $513 $595 forward 7 unknown #
vertex $-1 $514 $596 #
straight-curve $-1 0 20.508164035650044 -6.6890149331524489 1 0 0 I I #
edge $-1 $500 4.2724038247792215 $583 12.247974748840289 $421 $597 forward 7 unknown #
straight-curve $-1 -21.460760826441238 -12.532593111588977 6.6890149331524489 1 0 0 I I #
edge $-1 $584 -12.247974748840289 $501 -4.2724038247792215 $423 $598 forward 7 unknown #
straight-curve $-1 -21.460760826441238 -12.532593111588977 -6.6890149331524489 -1 0 0 I I #
face $-1 $-1 $507 $17 $-1 $599 reversed single #
plane-surface $-1 0 20.508164035650044 0 0 -1 0 0 0 -1 forward_v I I I I #
face $-1 $600 $601 $18 $-1 $602 forward single #
loop $-1 $-1 $603 $430 #
plane-surface $-1 -42.921521652882475 -12.532593111588977 0 0 -1 0 0 0 -1 forward_v I I I I #
coedge $-1 $433 $548 $604 $605 reversed $341 $-1 #
coedge $-1 $435 $434 $433 $528 forward $246 $-1 #
edge $-1 $549 -6.6890149331524489 $606 6.6890149331524489 $433 $607 forward 7 unknown #
edge $-1 $549 19.960760826441238 $534 22.960760826441238 $449 $608 forward 7 unknown #
coedge $-1 $604 $609 $435 $531 forward $610 $-1 #
edge $-1 $535 -22.960760826441238 $606 -19.960760826441238 $530 $611 forward 7 unknown #
coedge $-1 $612 $436 $609 $613 reversed $431 $-1 #
coedge $-1 $436 $612 $547 $614 reversed $431 $-1 #
vertex $-1 $614 $615 #
vertex $-1 $437 $616 #
straight-curve $-1 -44.421521652882475 12.532593111588973 0 0 0 -1 I I #
coedge $-1 $438 $617 $618 $619 forward $153 $-1 #
coedge $-1 $620 $621 $438 $539 reversed $622 $-1 #
edge $-1 $623 -41.421521652882475 $541 44.421521652882475 $538 $624 forward 7 unknown #
coedge $-1 $445 $439 $621 $625 forward $260 $-1 #
vertex $-1 $440 $626 #
coedge $-1 $627 $628 $445 $543 forward $610 $-1 #
edge $-1 $545 -20.508164035650044 $629 20.508164035650044 $445 $630 forward 7 unknown #
coedge $-1 $452 $446 $628 $631 reversed $453 $-1 #
vertex $-1 $543 $632 #
straight-curve $-1 44.421521652882475 20.508164035650044 0 0 0 -1 I I #
coedge $-1 $617 $449 $533 $614 forward $153 $-1 #
coedge $-1 $526 $450 $452 $551 reversed $341 $-1 #
vertex $-1 $529 $633 #
straight-curve $-1 -41.421521652882475 8.2601892868097533 6.6890149331524489 0 -1 0 I I #
edge $-1 $634 -6.6890149331524489 $454 6.6890149331524489 $452 $635 forward 7 unknown #
face $-1 $355 $453 $18 $-1 $636 reversed single #
point $-1 -41.421521652882475 20.50816403565004 6.6890149331524489 #
face $-1 $637 $638 $19 $-1 $639 reversed single #
loop $-1 $-1 $640 $457 #
plane-surface $-1 -41.421521652882475 16.520378573619507 0 -1 0 0 0 0 1 forward_v I I I I #
coedge $-1 $641 $642 $643 $644 reversed $458 $-1 #
coedge $-1 $460 $645 $646 $647 forward $362 $-1 #
coedge $-1 $646 $469 $461 $560 forward $471 $-1 #
edge $-1 $648 -62.643749451226356 $562 -56.310272381134176 $559 $649 forward 7 unknown #
edge $-1 $648 -88.843043305764965 $563 -79.886154240184354 $462 $650 forward 7 unknown #
vertex $-1 $560 $651 #
vertex $-1 $465 $652 #
straight-curve $-1 22.210761555331153 1.757491967716927 6.6890149331524498 -1 0 0 I I #
straight-curve $-1 38.088044729759282 2.5081194687619703 6.6890149331524427 0 1 0 I I #
edge $-1 $467 -5.7668664385689841 $648 0.75062750104504339 $469 $653 forward 7 unknown #
point $-1 44.421521652882475 8.2749859073309544 0.35553786306027035 #
coedge $-1 $470 $654 $655 $656 reversed $471 $-1 #
face $-1 $-1 $471 $19 $-1 $657 reversed single #
coedge $-1 $658 $473 $659 $660 forward $362 $-1 #
coedge $-1 $655 $661 $473 $572 reversed $662 $-1 #
edge $-1 $573 -44.421521652882475 $663 41.421521652882475 $571 $664 forward 7 unknown #
vertex $-1 $474 $665 #
straight-curve $-1 44.421521652882475 0 6.6890149331524489 0 1 0 I I #
coedge $-1 $481 $488 $480 $576 reversed $478 $-1 #
edge $-1 $484 -6.6890149331524489 $493 6.6890149331524489 $575 $666 forward 7 unknown #
straight-curve $-1 44.421521652882475 0 6.6890149331524489 0 1 0 I I #
point $-1 44.421521652882475 20.508164035650044 6.6890149331524489 #
straight-curve $-1 -44.421521652882475 20.508164035650044 0 0 0 -1 I I #
straight-curve $-1 44.421521652882475 0 -6.6890149331524489 0 -1 0 I I #
point $-1 44.421521652882475 20.508164035650044 -6.6890149331524489 #
coedge $-1 $588 $496 $512 $593 reversed $401 $-1 #
vertex $-1 $504 $667 #
vertex $-1 $499 $668 #
straight-curve $-1 -41.421521652882475 -20.508164035650044 0 0 0 -1 I I #
point $-1 -41.421521652882475 -12.532593111588977 6.6890149331524489 #
point $-1 -41.421521652882475 -12.532593111588977 -6.6890149331524489 #
coedge $-1 $503 $582 $505 $590 reversed $401 $-1 #
straight-curve $-1 0 -20.508164035650044 6.6890149331524489 1 0 0 I I #
edge $-1 $508 -6.6890149331524489 $594 6.6890149331524489 $505 $669 forward 7 unknown #
point $-1 44.421521652882475 -20.508164035650044 6.6890149331524489 #
straight-curve $-1 44.421521652882475 20.508164035650044 0 0 0 -1 I I #
edge $-1 $594 -44.421521652882475 $584 41.421521652882475 $582 $670 forward 7 unknown #
vertex $-1 $590 $671 #
straight-curve $-1 44.421521652882475 0 -6.6890149331524489 0 -1 0 I I #
point $-1 44.421521652882475 20.508164035650044 -6.6890149331524489 #
straight-curve $-1 -41.421521652882475 -8.2601892868097551 6.6890149331524489 0 -1 0 I I #
straight-curve $-1 -41.421521652882475 -8.2601892868097551 -6.6890149331524489 0 1 0 I I #
plane-surface $-1 44.421521652882475 0 0 -1 0 0 0 0 1 forward_v I I I I #
face $-1 $672 $622 $18 $-1 $673 reversed single #
loop $-1 $-1 $674 $523 #
plane-surface $-1 -41.421521652882475 -16.52037857361951 0 -1 0 0 0 0 1 forward_v I I I I #
coedge $-1 $675 $676 $677 $678 reversed $524 $-1 #
coedge $-1 $628 $530 $526 $605 forward $610 $-1 #
edge $-1 $606 4.2724038247792198 $634 12.247974748840287 $604 $679 forward 7 unknown #
vertex $-1 $531 $680 #
straight-curve $-1 -41.421521652882475 12.532593111588973 0 0 0 -1 I I #
straight-curve $-1 -21.460760826441238 12.532593111588973 6.6890149331524489 -1 0 0 I I #
coedge $-1 $530 $681 $532 $613 forward $610 $-1 #
loop $-1 $-1 $604 $672 #
straight-curve $-1 -21.460760826441238 12.532593111588973 -6.6890149331524489 1 0 0 I I #
coedge $-1 $533 $532 $682 $683 forward $431 $-1 #
edge $-1 $684 -12.532593111588977 $535 12.532593111588973 $532 $685 forward 7 unknown #
edge $-1 $534 -12.532593111588973 $686 12.532593111588977 $533 $687 forward 7 unknown #
point $-1 -44.421521652882475 12.532593111588973 6.6890149331524489 #
point $-1 -44.421521652882475 12.532593111588973 -6.6890149331524489 #
coedge $-1 $537 $547 $675 $688 forward $153 $-1 #
coedge $-1 $677 $674 $537 $619 reversed $601 $-1 #
edge $-1 $689 4.2724038247792215 $623 12.247974748840289 $537 $690 forward 7 unknown #
coedge $-1 $691 $538 $674 $692 forward $622 $-1 #
coedge $-1 $538 $691 $540 $625 reversed $622 $-1 #
loop $-1 $-1 $620 $600 #
vertex $-1 $539 $693 #
straight-curve $-1 0 -20.508164035650044 6.6890149331524489 1 0 0 I I #
edge $-1 $541 -6.6890149331524489 $629 6.6890149331524489 $540 $694 forward 7 unknown #
point $-1 44.421521652882475 -20.508164035650044 6.6890149331524489 #
coedge $-1 $695 $542 $691 $696 forward $610 $-1 #
coedge $-1 $542 $604 $544 $631 forward $610 $-1 #
vertex $-1 $625 $697 #
straight-curve $-1 44.421521652882475 0 -6.6890149331524489 0 -1 0 I I #
edge $-1 $634 -41.421521652882475 $545 44.421521652882475 $544 $698 forward 7 unknown #
point $-1 44.421521652882475 20.508164035650044 -6.6890149331524489 #
point $-1 -41.421521652882475 12.532593111588973 6.6890149331524489 #
vertex $-1 $631 $699 #
straight-curve $-1 -41.421521652882475 20.508164035650044 0 0 0 1 I I #
plane-surface $-1 0 20.508164035650044 0 0 -1 0 0 0 -1 forward_v I I I I #
face $-1 $700 $701 $19 $-1 $702 forward single #
loop $-1 $-1 $643 $554 #
plane-surface $-1 -44.421521652882475 0 0 1 0 0 0 0 -1 forward_v I I I I #
coedge $-1 $659 $703 $704 $705 reversed $555 $-1 #
coedge $-1 $704 $557 $658 $706 reversed $458 $-1 #
coedge $-1 $557 $704 $707 $708 reversed $458 $-1 #
coedge $-1 $709 $710 $557 $644 forward $638 $-1 #
edge $-1 $711 -6.6890149331524489 $712 6.6890149331524489 $643 $713 forward 7 unknown #
coedge $-1 $558 $714 $715 $716 forward $362 $-1 #
coedge $-1 $717 $559 $558 $647 reversed $471 $-1 #
edge $-1 $718 -20.508164035650044 $562 1.757491967716927 $646 $574 forward 7 unknown #
vertex $-1 $566 $719 #
straight-curve $-1 44.421521652882475 1.757491967716927 62.999287314286626 0 0 1 I I #
straight-curve $-1 -18.399996000984103 1.757491967716927 63.177056974706666 -0.70710677298230451 0 0.70710678939079041 I I #
point $-1 44.421521652882475 1.757491967716927 6.6890149331524489 #
point $-1 38.088044729759275 1.757491967716927 6.6890149331524498 #
straight-curve $-1 44.421521652882475 2.5081194687619703 0.35553786306026325 0 -1 0 I I #
coedge $-1 $568 $717 $720 $721 reversed $471 $-1 #
coedge $-1 $722 $571 $568 $656 forward $662 $-1 #
edge $-1 $573 -6.6890149331524489 $723 6.6890149331524489 $568 $724 forward 7 unknown #
plane-surface $-1 44.421521652882475 0 0 -1 0 0 0 0 1 forward_v I I I I #
coedge $-1 $725 $570 $641 $706 forward $362 $-1 #
coedge $-1 $726 $640 $570 $660 reversed $555 $-1 #
edge $-1 $663 -12.247974748840287 $727 -4.2724038247792198 $570 $728 forward 7 unknown #
coedge $-1 $571 $722 $726 $729 forward $662 $-1 #
loop $-1 $-1 $661 $730 #
vertex $-1 $729 $731 #
straight-curve $-1 0 20.508164035650044 6.6890149331524489 -1 0 0 I I #
point $-1 44.421521652882475 20.508164035650044 6.6890149331524489 #
straight-curve $-1 44.421521652882475 20.508164035650044 0 0 0 -1 I I #
point $-1 -41.421521652882475 -20.508164035650044 6.6890149331524489 #
point $-1 -41.421521652882475 -20.508164035650044 -6.6890149331524489 #
straight-curve $-1 44.421521652882475 -20.508164035650044 0 0 0 -1 I I #
straight-curve $-1 0 -20.508164035650044 -6.6890149331524489 -1 0 0 I I #
point $-1 44.421521652882475 -20.508164035650044 -6.6890149331524489 #
face $-1 $552 $610 $18 $-1 $732 reversed single #
plane-surface $-1 0 -20.508164035650044 0 0 1 0 0 0 1 forward_v I I I I #
coedge $-1 $618 $733 $620 $692 reversed $601 $-1 #
coedge $-1 $682 $603 $617 $688 reversed $524 $-1 #
coedge $-1 $603 $682 $681 $734 reversed $524 $-1 #
coedge $-1 $733 $618 $603 $678 forward $601 $-1 #
edge $-1 $689 -6.6890149331524489 $735 6.6890149331524489 $677 $736 forward 7 unknown #
straight-curve $-1 -41.421521652882475 8.2601892868097533 -6.6890149331524489 0 1 0 I I #
point $-1 -41.421521652882475 12.532593111588973 -6.6890149331524489 #
coedge $-1 $609 $695 $676 $734 forward $610 $-1 #
coedge $-1 $676 $675 $612 $683 reversed $524 $-1 #
edge $-1 $684 -6.6890149331524489 $686 6.6890149331524489 $612 $737 forward 7 unknown #
vertex $-1 $613 $738 #
straight-curve $-1 -44.421521652882475 0 -6.6890149331524489 0 1 0 I I #
vertex $-1 $683 $739 #
straight-curve $-1 -44.421521652882475 0 6.6890149331524489 0 -1 0 I I #
edge $-1 $686 -22.960760826441238 $689 -19.960760826441238 $617 $740 forward 7 unknown #
vertex $-1 $688 $741 #
straight-curve $-1 -41.421521652882475 -8.2601892868097551 6.6890149331524489 0 -1 0 I I #
coedge $-1 $621 $620 $627 $696 reversed $622 $-1 #
edge $-1 $623 -6.6890149331524489 $742 6.6890149331524489 $620 $743 forward 7 unknown #
point $-1 -41.421521652882475 -20.508164035650044 6.6890149331524489 #
straight-curve $-1 44.421521652882475 -20.508164035650044 0 0 0 -1 I I #
coedge $-1 $681 $627 $733 $744 forward $610 $-1 #
edge $-1 $629 -44.421521652882475 $742 41.421521652882475 $691 $745 forward 7 unknown #
point $-1 44.421521652882475 -20.508164035650044 -6.6890149331524489 #
straight-curve $-1 0 20.508164035650044 -6.6890149331524489 1 0 0 I I #
point $-1 -41.421521652882475 20.50816403565004 -6.6890149331524489 #
face $-1 $746 $747 $19 $-1 $748 forward single #
loop $-1 $-1 $749 $637 #
plane-surface $-1 -42.921521652882475 -12.532593111588977 0 0 -1 0 0 0 -1 forward_v I I I I #
coedge $-1 $640 $726 $750 $751 reversed $555 $-1 #
coedge $-1 $642 $641 $640 $705 forward $458 $-1 #
edge $-1 $727 -6.6890149331524489 $752 6.6890149331524489 $640 $753 forward 7 unknown #
edge $-1 $727 19.960760826441238 $711 22.960760826441238 $658 $754 forward 7 unknown #
coedge $-1 $750 $755 $642 $708 forward $756 $-1 #
edge $-1 $712 -22.960760826441238 $752 -19.960760826441238 $707 $757 forward 7 unknown #
coedge $-1 $758 $643 $755 $759 reversed $638 $-1 #
coedge $-1 $643 $758 $725 $760 reversed $638 $-1 #
vertex $-1 $760 $761 #
vertex $-1 $644 $762 #
straight-curve $-1 -44.421521652882475 12.532593111588973 0 0 0 -1 I I #
coedge $-1 $645 $763 $764 $765 forward $362 $-1 #
coedge $-1 $766 $767 $645 $716 reversed $768 $-1 #
edge $-1 $769 -41.421521652882475 $718 44.421521652882475 $715 $770 forward 7 unknown #
coedge $-1 $654 $646 $767 $771 forward $471 $-1 #
vertex $-1 $647 $772 #
point $-1 44.421521652882475 1.757491967716927 0.35553786306027035 #
coedge $-1 $773 $774 $654 $721 forward $756 $-1 #
edge $-1 $723 -20.508164035650044 $775 20.508164035650044 $654 $776 forward 7 unknown #
coedge $-1 $661 $655 $774 $777 reversed $662 $-1 #
vertex $-1 $721 $778 #
straight-curve $-1 44.421521652882475 20.508164035650044 0 0 0 -1 I I #
coedge $-1 $763 $658 $710 $760 forward $362 $-1 #
coedge $-1 $703 $659 $661 $729 reversed $555 $-1 #
vertex $-1 $706 $779 #
straight-curve $-1 -41.421521652882475 8.2601892868097533 6.6890149331524489 0 -1 0 I I #
edge $-1 $780 -6.6890149331524489 $663 6.6890149331524489 $661 $781 forward 7 unknown #
face $-1 $569 $662 $19 $-1 $782 reversed single #
point $-1 -41.421521652882475 20.50816403565004 6.6890149331524489 #
plane-surface $-1 0 0 -6.6890149331524489 0 0 1 1 0 0 forward_v I I I I #
coedge $-1 $674 $677 $695 $744 reversed $601 $-1 #
edge $-1 $735 19.960760826441238 $684 22.960760826441238 $681 $783 forward 7 unknown #
vertex $-1 $734 $784 #
straight-curve $-1 -41.421521652882475 -12.532593111588977 0 0 0 -1 I I #
straight-curve $-1 -44.421521652882475 -12.532593111588977 0 0 0 1 I I #
point $-1 -44.421521652882475 -12.532593111588977 -6.6890149331524489 #
point $-1 -44.421521652882475 -12.532593111588977 6.6890149331524489 #
straight-curve $-1 -21.460760826441238 -12.532593111588977 6.6890149331524489 1 0 0 I I #
point $-1 -41.421521652882475 -12.532593111588977 6.6890149331524489 #
vertex $-1 $692 $785 #
straight-curve $-1 -41.421521652882475 -20.508164035650044 0 0 0 -1 I I #
edge $-1 $742 -12.247974748840289 $735 -4.2724038247792215 $695 $786 forward 7 unknown #
straight-curve $-1 0 -20.508164035650044 -6.6890149331524489 -1 0 0 I I #
face $-1 $787 $768 $19 $-1 $788 reversed single #
loop $-1 $-1 $789 $700 #
plane-surface $-1 -41.421521652882475 -16.52037857361951 0 -1 0 0 0 0 1 forward_v I I I I #
coedge $-1 $790 $791 $792 $793 reversed $701 $-1 #
coedge $-1 $774 $707 $703 $751 forward $756 $-1 #
edge $-1 $752 4.2724038247792198 $780 12.247974748840287 $750 $794 forward 7 unknown #
vertex $-1 $708 $795 #
straight-curve $-1 -41.421521652882475 12.532593111588973 0 0 0 -1 I I #
straight-curve $-1 -21.460760826441238 12.532593111588973 6.6890149331524489 -1 0 0 I I #
coedge $-1 $707 $796 $709 $759 forward $756 $-1 #
loop $-1 $-1 $750 $787 #
straight-curve $-1 -21.460760826441238 12.532593111588973 -6.6890149331524489 1 0 0 I I #
coedge $-1 $710 $709 $797 $798 forward $638 $-1 #
edge $-1 $799 -12.532593111588977 $712 12.532593111588973 $709 $800 forward 7 unknown #
edge $-1 $711 -12.532593111588973 $801 12.532593111588977 $710 $802 forward 7 unknown #
point $-1 -44.421521652882475 12.532593111588973 6.6890149331524489 #
point $-1 -44.421521652882475 12.532593111588973 -6.6890149331524489 #
coedge $-1 $714 $725 $790 $803 forward $362 $-1 #
coedge $-1 $792 $789 $714 $765 reversed $747 $-1 #
edge $-1 $804 4.2724038247792215 $769 12.247974748840289 $714 $805 forward 7 unknown #
coedge $-1 $806 $715 $789 $807 forward $768 $-1 #
coedge $-1 $715 $806 $717 $771 reversed $768 $-1 #
loop $-1 $-1 $766 $746 #
vertex $-1 $716 $808 #
straight-curve $-1 0 -20.508164035650044 6.6890149331524489 1 0 0 I I #
edge $-1 $718 -6.6890149331524489 $775 6.6890149331524489 $717 $809 forward 7 unknown #
point $-1 44.421521652882475 -20.508164035650044 6.6890149331524489 #
coedge $-1 $810 $720 $806 $811 forward $756 $-1 #
coedge $-1 $720 $750 $722 $777 forward $756 $-1 #
vertex $-1 $771 $812 #
straight-curve $-1 44.421521652882475 0 -6.6890149331524489 0 -1 0 I I #
edge $-1 $780 -41.421521652882475 $723 44.421521652882475 $722 $813 forward 7 unknown #
point $-1 44.421521652882475 20.508164035650044 -6.6890149331524489 #
point $-1 -41.421521652882475 12.532593111588973 6.6890149331524489 #
vertex $-1 $777 $814 #
straight-curve $-1 -41.421521652882475 20.508164035650044 0 0 0 1 I I #
plane-surface $-1 0 20.508164035650044 0 0 -1 0 0 0 -1 forward_v I I I I #
straight-curve $-1 -21.460760826441238 -12.532593111588977 -6.6890149331524489 -1 0 0 I I #
point $-1 -41.421521652882475 -12.532593111588977 -6.6890149331524489 #
point $-1 -41.421521652882475 -20.508164035650044 -6.6890149331524489 #
straight-curve $-1 -41.421521652882475 -8.2601892868097551 -6.6890149331524489 0 1 0 I I #
face $-1 $730 $756 $19 $-1 $815 reversed single #
plane-surface $-1 0 -20.508164035650044 0 0 1 0 0 0 1 forward_v I I I I #
coedge $-1 $764 $816 $766 $807 reversed $747 $-1 #
coedge $-1 $797 $749 $763 $803 reversed $701 $-1 #
coedge $-1 $749 $797 $796 $817 reversed $701 $-1 #
coedge $-1 $816 $764 $749 $793 forward $747 $-1 #
edge $-1 $804 -6.6890149331524489 $818 6.6890149331524489 $792 $819 forward 7 unknown #
straight-curve $-1 -41.421521652882475 8.2601892868097533 -6.6890149331524489 0 1 0 I I #
point $-1 -41.421521652882475 12.532593111588973 -6.6890149331524489 #
coedge $-1 $755 $810 $791 $817 forward $756 $-1 #
coedge $-1 $791 $790 $758 $798 reversed $701 $-1 #
edge $-1 $799 -6.6890149331524489 $801 6.6890149331524489 $758 $820 forward 7 unknown #
vertex $-1 $759 $821 #
straight-curve $-1 -44.421521652882475 0 -6.6890149331524489 0 1 0 I I #
vertex $-1 $798 $822 #
straight-curve $-1 -44.421521652882475 0 6.6890149331524489 0 -1 0 I I #
edge $-1 $801 -22.960760826441238 $804 -19.960760826441238 $763 $823 forward 7 unknown #
vertex $-1 $803 $824 #
straight-curve $-1 -41.421521652882475 -8.2601892868097551 6.6890149331524489 0 -1 0 I I #
coedge $-1 $767 $766 $773 $811 reversed $768 $-1 #
edge $-1 $769 -6.6890149331524489 $825 6.6890149331524489 $766 $826 forward 7 unknown #
point $-1 -41.421521652882475 -20.508164035650044 6.6890149331524489 #
straight-curve $-1 44.421521652882475 -20.508164035650044 0 0 0 -1 I I #
coedge $-1 $796 $773 $816 $827 forward $756 $-1 #
edge $-1 $775 -44.421521652882475 $825 41.421521652882475 $806 $828 forward 7 unknown #
point $-1 44.421521652882475 -20.508164035650044 -6.6890149331524489 #
straight-curve $-1 0 20.508164035650044 -6.6890149331524489 1 0 0 I I #
point $-1 -41.421521652882475 20.50816403565004 -6.6890149331524489 #
plane-surface $-1 0 0 -6.6890149331524489 0 0 1 1 0 0 forward_v I I I I #
coedge $-1 $789 $792 $810 $827 reversed $747 $-1 #
edge $-1 $818 19.960760826441238 $799 22.960760826441238 $796 $829 forward 7 unknown #
vertex $-1 $817 $830 #
straight-curve $-1 -41.421521652882475 -12.532593111588977 0 0 0 -1 I I #
straight-curve $-1 -44.421521652882475 -12.532593111588977 0 0 0 1 I I #
point $-1 -44.421521652882475 -12.532593111588977 -6.6890149331524489 #
point $-1 -44.421521652882475 -12.532593111588977 6.6890149331524489 #
straight-curve $-1 -21.460760826441238 -12.532593111588977 6.6890149331524489 1 0 0 I I #
point $-1 -41.421521652882475 -12.532593111588977 6.6890149331524489 #
vertex $-1 $807 $831 #
straight-curve $-1 -41.421521652882475 -20.508164035650044 0 0 0 -1 I I #
edge $-1 $825 -12.247974748840289 $818 -4.2724038247792215 $810 $832 forward 7 unknown #
straight-curve $-1 0 -20.508164035650044 -6.6890149331524489 -1 0 0 I I #
straight-curve $-1 -21.460760826441238 -12.532593111588977 -6.6890149331524489 -1 0 0 I I #
point $-1 -41.421521652882475 -12.532593111588977 -6.6890149331524489 #
point $-1 -41.421521652882475 -20.508164035650044 -6.6890149331524489 #
straight-curve $-1 -41.421521652882475 -8.2601892868097551 -6.6890149331524489 0 1 0 I I #
End-of-ACIS-data 