500 0 8 0           
7 Unknown 11 ACIS 5.0 NT 24 Fri Mar 26 15:53:33 1999 
-1 9.9999999999999995e-007 1e-010 
body $-1 $8 $-1 $9 #
body $-1 $10 $-1 $11 #
body $-1 $12 $-1 $13 #
body $-1 $14 $-1 $15 #
body $-1 $16 $-1 $17 #
body $-1 $18 $-1 $19 #
body $-1 $20 $-1 $21 #
body $-1 $22 $-1 $23 #
lump $-1 $-1 $24 $0 #
transform $-1 1 0 0 0 1 0 0 0 1 44.975737784966583 18.509546849087585 8.5804716552711753 1 rotate no_reflect no_shear #
lump $-1 $-1 $25 $1 #
transform $-1 1 0 0 0 1 0 0 0 1 44.975737784966583 18.509546849087585 8.5804716552711753 1 rotate no_reflect no_shear #
lump $-1 $-1 $26 $2 #
transform $-1 1 0 0 0 1 0 0 0 1 44.975737784966583 18.509546849087585 8.5804716552711753 1 rotate no_reflect no_shear #
lump $-1 $-1 $27 $3 #
transform $-1 1 0 0 0 1 0 0 0 1 44.975737784966583 18.509546849087585 8.5804716552711753 1 rotate no_reflect no_shear #
lump $-1 $-1 $28 $4 #
transform $-1 1 0 0 0 1 0 0 0 1 44.975737784966583 18.509546849087585 8.5804716552711753 1 rotate no_reflect no_shear #
lump $-1 $-1 $29 $5 #
transform $-1 1 0 0 0 1 0 0 0 1 44.975737784966583 18.509546849087585 8.5804716552711753 1 rotate no_reflect no_shear #
lump $-1 $-1 $30 $6 #
transform $-1 1 0 0 0 1 0 0 0 1 44.975737784966583 18.509546849087585 8.5804716552711753 1 rotate no_reflect no_shear #
lump $-1 $-1 $31 $7 #
transform $-1 1 0 0 0 1 0 0 0 1 44.975737784966583 18.509546849087585 8.5804716552711753 1 rotate no_reflect no_shear #
shell $-1 $-1 $-1 $32 $-1 $8 #
shell $-1 $-1 $-1 $33 $-1 $10 #
shell $-1 $-1 $-1 $34 $-1 $12 #
shell $-1 $-1 $-1 $35 $-1 $14 #
shell $-1 $-1 $-1 $36 $-1 $16 #
shell $-1 $-1 $-1 $37 $-1 $18 #
shell $-1 $-1 $-1 $38 $-1 $20 #
shell $-1 $-1 $-1 $39 $-1 $22 #
face $-1 $40 $41 $24 $-1 $42 forward single #
face $-1 $43 $44 $25 $-1 $45 reversed single #
face $-1 $46 $47 $26 $-1 $48 reversed single #
face $-1 $49 $50 $27 $-1 $51 forward single #
face $-1 $52 $53 $28 $-1 $54 reversed single #
face $-1 $55 $56 $29 $-1 $57 forward single #
face $-1 $58 $59 $30 $-1 $60 forward single #
face $-1 $61 $62 $31 $-1 $63 forward single #
face $-1 $64 $65 $24 $-1 $66 reversed single #
loop $-1 $-1 $67 $32 #
plane-surface $-1 0 0 8.5804716552711753 0 0 1 1 0 0 forward_v I I I I #
face $-1 $68 $69 $25 $-1 $70 reversed single #
loop $-1 $-1 $71 $33 #
plane-surface $-1 -31.314794474424232 -13.824392502575352 0 1 0 0 0 0 -1 forward_v I I I I #
face $-1 $72 $73 $26 $-1 $74 reversed single #
loop $-1 $-1 $75 $34 #
plane-surface $-1 -119.54889146547954 -9.1392381560631186 51.104077954561085 0 1 0 -0.82903758062907751 0 0.55919289150049634 forward_v I I I I #
face $-1 $76 $77 $27 $-1 $78 forward single #
loop $-1 $79 $80 $35 #
cone-surface $-1 -41.089919488902872 -5.5301972015375682 3.8401765298479367 0.82903758062907751 0 -0.55919289150049634 0.83878933725074445 0 1.2435563709436162 1 I I 0 1 1.5 forward I I I I #
face $-1 $81 $82 $28 $-1 $83 reversed single #
loop $-1 $-1 $84 $36 #
plane-surface $-1 71.424309864849675 10.637535489265003 129.59344649101249 0 1 0 0.83867057594974714 0 0.54463902268945019 forward_v I I I I #
face $-1 $85 $86 $29 $-1 $87 forward single #
loop $-1 $88 $89 $37 #
cone-surface $-1 43.331470355473527 12.211937761229517 6.5244768630787302 -0.83867057594974714 0 -0.54463902268945019 0.2723195113447251 0 -0.41933528797487357 1 I I 0 1 0.5 forward I I I I #
face $-1 $90 $91 $30 $-1 $92 forward single #
loop $-1 $93 $94 $38 #
cone-surface $-1 43.331470355473527 14.573541169176295 6.5244768630787302 -0.83867057594974714 0 -0.54463902268945019 0.2723195113447251 0 -0.41933528797487357 1 I I 0 1 0.5 forward I I I I #
face $-1 $95 $96 $31 $-1 $97 forward single #
loop $-1 $98 $99 $39 #
cone-surface $-1 43.331470355473527 16.935144577123069 6.5244768630787302 -0.83867057594974714 0 -0.54463902268945019 0.2723195113447251 0 -0.41933528797487357 1 I I 0 1 0.5 forward I I I I #
face $-1 $100 $101 $24 $-1 $102 reversed single #
loop $-1 $-1 $103 $40 #
plane-surface $-1 0 0 -8.5804716552711753 0 0 1 1 0 0 forward_v I I I I #
coedge $-1 $104 $105 $106 $107 forward $41 $-1 #
face $-1 $108 $109 $25 $-1 $110 reversed single #
loop $-1 $-1 $111 $43 #
plane-surface $-1 -29.814794474424232 -9.1392381560631186 0 0 -1 0 0 0 -1 forward_v I I I I #
coedge $-1 $112 $113 $114 $115 forward $44 $-1 #
face $-1 $116 $117 $26 $-1 $118 reversed single #
loop $-1 $-1 $119 $46 #
plane-surface $-1 -44.975737784966583 -5.5301972015375682 0.80385223587390442 -0.82903758062907751 0 0.55919289150049634 0.55919289150049634 0 0.82903758062907751 forward_v I I I I #
coedge $-1 $120 $121 $122 $123 reversed $47 $-1 #
face $-1 $-1 $124 $27 $-1 $125 forward single #
loop $-1 $126 $127 $49 #
cone-surface $-1 -39.205020940995354 -5.5301972015375682 2.5687964454979664 0.82903758062907751 0 -0.55919289150049634 0.41939466862537222 0 0.62177818547180808 1 I I -0.70710678118654757 0.70710678118654757 0.75 forward I I I I #
loop $-1 $-1 $128 $35 #
coedge $-1 $80 $80 $129 $130 reversed $50 $-1 #
face $-1 $131 $132 $28 $-1 $133 forward single #
loop $-1 $-1 $134 $52 #
plane-surface $-1 -4.0153459589157876 14.573541169176295 80.60236274713013 0.83867057594974714 0 0.54463902268945019 0.54463902268945019 0 -0.83867057594974714 forward_v I I I I #
coedge $-1 $135 $136 $137 $138 reversed $53 $-1 #
face $-1 $-1 $139 $29 $-1 $140 forward single #
loop $-1 $141 $142 $55 #
cone-surface $-1 42.587296430618068 12.211937761229517 6.04120468116718 -0.83867057594974714 0 -0.54463902268945019 0.13615975567236255 0 -0.20966764398743679 1 I I -0.70710678118654746 0.70710678118654746 0.25 forward I I I I #
loop $-1 $-1 $143 $37 #
coedge $-1 $89 $89 $144 $145 reversed $56 $-1 #
face $-1 $-1 $146 $30 $-1 $147 forward single #
loop $-1 $148 $149 $58 #
cone-surface $-1 42.587296430618068 14.573541169176295 6.04120468116718 -0.83867057594974714 0 -0.54463902268945019 0.13615975567236255 0 -0.20966764398743679 1 I I -0.70710678118654746 0.70710678118654746 0.25 forward I I I I #
loop $-1 $-1 $150 $38 #
coedge $-1 $94 $94 $151 $152 reversed $59 $-1 #
face $-1 $-1 $153 $31 $-1 $154 forward single #
loop $-1 $155 $156 $61 #
cone-surface $-1 42.587296430618068 16.935144577123069 6.04120468116718 -0.83867057594974714 0 -0.54463902268945019 0.13615975567236255 0 -0.20966764398743679 1 I I -0.70710678118654746 0.70710678118654746 0.25 forward I I I I #
loop $-1 $-1 $157 $39 #
coedge $-1 $99 $99 $158 $159 reversed $62 $-1 #
face $-1 $160 $161 $24 $-1 $162 reversed single #
loop $-1 $-1 $163 $64 #
plane-surface $-1 0 -18.509546849087585 0 0 1 0 0 0 1 forward_v I I I I #
coedge $-1 $164 $165 $166 $167 forward $65 $-1 #
coedge $-1 $168 $67 $169 $170 forward $41 $-1 #
coedge $-1 $67 $168 $171 $172 forward $41 $-1 #
coedge $-1 $173 $174 $67 $107 reversed $175 $-1 #
edge $-1 $176 -18.509546849087585 $177 18.509546849087585 $106 $178 forward 7 unknown #
face $-1 $179 $180 $25 $-1 $181 forward single #
loop $-1 $-1 $182 $68 #
plane-surface $-1 -28.314794474424232 -13.824392502575352 0 -1 0 0 0 0 1 forward_v I I I I #
coedge $-1 $183 $184 $185 $186 forward $69 $-1 #
coedge $-1 $187 $71 $188 $189 reversed $44 $-1 #
coedge $-1 $71 $187 $190 $191 reversed $44 $-1 #
coedge $-1 $184 $183 $71 $115 reversed $69 $-1 #
edge $-1 $192 -8.5804716552711753 $193 8.5804716552711753 $114 $194 forward 7 unknown #
face $-1 $195 $196 $26 $-1 $197 reversed single #
loop $-1 $-1 $198 $72 #
plane-surface $-1 -119.54889146547954 -1.9211562470120178 51.104077954561085 0 -1 0 0.82903758062907751 0 -0.55919289150049634 forward_v I I I I #
coedge $-1 $199 $200 $201 $202 reversed $73 $-1 #
coedge $-1 $121 $75 $203 $204 reversed $47 $-1 #
coedge $-1 $75 $120 $199 $205 reversed $47 $-1 #
coedge $-1 $201 $206 $75 $123 forward $207 $-1 #
edge $-1 $208 14.798707947773188 $209 20.044103815029182 $122 $210 forward 7 unknown #
loop $-1 $-1 $129 $76 #
plane-surface $-1 -44.975737784966583 -5.5301972015375682 0.80385223587390442 -0.82903758062907751 0 0.55919289150049634 0.55919289150049634 0 0.82903758062907751 forward_v I I I I #
loop $-1 $-1 $211 $49 #
coedge $-1 $127 $127 $128 $212 reversed $77 $-1 #
coedge $-1 $128 $128 $127 $212 forward $79 $-1 #
coedge $-1 $129 $129 $80 $130 forward $124 $-1 #
edge $-1 $213 0 $213 6.2831853071796004 $129 $214 forward 7 unknown #
face $-1 $215 $216 $28 $-1 $217 reversed single #
loop $-1 $-1 $218 $81 #
plane-surface $-1 0 0 8.5804716552711753 0 0 1 1 0 0 forward_v I I I I #
coedge $-1 $219 $220 $221 $222 reversed $82 $-1 #
coedge $-1 $136 $84 $223 $224 reversed $53 $-1 #
coedge $-1 $84 $135 $219 $225 reversed $53 $-1 #
coedge $-1 $221 $226 $84 $138 forward $227 $-1 #
edge $-1 $228 56.216251590235068 $229 59.634016322141591 $137 $230 forward 7 unknown #
loop $-1 $-1 $144 $85 #
plane-surface $-1 -4.0153459589157876 14.573541169176295 80.60236274713013 0.83867057594974714 0 0.54463902268945019 0.54463902268945019 0 -0.83867057594974714 forward_v I I I I #
loop $-1 $-1 $231 $55 #
coedge $-1 $142 $142 $143 $232 reversed $86 $-1 #
coedge $-1 $143 $143 $142 $232 forward $88 $-1 #
coedge $-1 $144 $144 $89 $145 forward $139 $-1 #
edge $-1 $233 0 $233 6.2831853071796004 $144 $234 forward 7 unknown #
loop $-1 $-1 $151 $90 #
plane-surface $-1 -4.0153459589157876 14.573541169176295 80.60236274713013 0.83867057594974714 0 0.54463902268945019 0.54463902268945019 0 -0.83867057594974714 forward_v I I I I #
loop $-1 $-1 $235 $58 #
coedge $-1 $149 $149 $150 $236 reversed $91 $-1 #
coedge $-1 $150 $150 $149 $236 forward $93 $-1 #
coedge $-1 $151 $151 $94 $152 forward $146 $-1 #
edge $-1 $237 0 $237 6.2831853071796004 $151 $238 forward 7 unknown #
loop $-1 $-1 $158 $95 #
plane-surface $-1 -4.0153459589157876 14.573541169176295 80.60236274713013 0.83867057594974714 0 0.54463902268945019 0.54463902268945019 0 -0.83867057594974714 forward_v I I I I #
loop $-1 $-1 $239 $61 #
coedge $-1 $156 $156 $157 $240 reversed $96 $-1 #
coedge $-1 $157 $157 $156 $240 forward $98 $-1 #
coedge $-1 $158 $158 $99 $159 forward $153 $-1 #
edge $-1 $241 0 $241 6.2831853071796004 $158 $242 forward 7 unknown #
face $-1 $243 $244 $24 $-1 $245 reversed single #
loop $-1 $-1 $246 $100 #
plane-surface $-1 -44.975737784966583 0 0 1 0 0 0 0 -1 forward_v I I I I #
coedge $-1 $247 $171 $248 $249 forward $101 $-1 #
coedge $-1 $250 $103 $247 $251 forward $65 $-1 #
coedge $-1 $103 $250 $252 $253 forward $65 $-1 #
coedge $-1 $174 $173 $103 $167 reversed $175 $-1 #
edge $-1 $254 -18.509546849087585 $255 18.509546849087585 $166 $256 forward 7 unknown #
coedge $-1 $105 $104 $257 $258 forward $41 $-1 #
coedge $-1 $259 $260 $104 $170 reversed $244 $-1 #
edge $-1 $177 -44.975737784966583 $261 44.975737784966583 $169 $262 forward 7 unknown #
coedge $-1 $163 $263 $105 $172 reversed $101 $-1 #
edge $-1 $264 -44.975737784966583 $176 44.975737784966583 $171 $265 forward 7 unknown #
coedge $-1 $166 $106 $263 $266 forward $175 $-1 #
coedge $-1 $106 $166 $259 $267 reversed $175 $-1 #
loop $-1 $-1 $173 $243 #
vertex $-1 $107 $268 #
vertex $-1 $107 $269 #
straight-curve $-1 44.975737784966583 0 8.5804716552711753 0 1 0 I I #
face $-1 $270 $271 $25 $-1 $272 reversed single #
loop $-1 $-1 $273 $108 #
plane-surface $-1 0 0 8.5804716552711753 0 0 1 1 0 0 forward_v I I I I #
coedge $-1 $274 $275 $276 $277 reversed $109 $-1 #
coedge $-1 $114 $111 $278 $279 reversed $69 $-1 #
coedge $-1 $111 $114 $280 $281 reversed $69 $-1 #
coedge $-1 $275 $274 $111 $186 reversed $109 $-1 #
edge $-1 $282 -8.5804716552711753 $283 8.5804716552711753 $185 $284 forward 7 unknown #
coedge $-1 $113 $112 $285 $286 reversed $44 $-1 #
coedge $-1 $278 $287 $112 $189 forward $271 $-1 #
edge $-1 $288 -11.59735059779991 $193 -2.2270419047754428 $188 $289 forward 7 unknown #
coedge $-1 $290 $280 $113 $191 forward $180 $-1 #
edge $-1 $192 2.2270419047754428 $291 11.59735059779991 $190 $292 forward 7 unknown #
vertex $-1 $191 $293 #
vertex $-1 $189 $294 #
straight-curve $-1 -31.314794474424232 -9.1392381560631186 0 0 0 -1 I I #
face $-1 $-1 $207 $26 $-1 $295 forward single #
loop $-1 $-1 $296 $116 #
plane-surface $-1 -44.975737784966583 0 0 1 0 0 0 0 -1 forward_v I I I I #
coedge $-1 $297 $298 $299 $300 reversed $117 $-1 #
coedge $-1 $301 $119 $121 $205 forward $73 $-1 #
coedge $-1 $119 $301 $297 $302 forward $73 $-1 #
coedge $-1 $299 $122 $119 $202 forward $207 $-1 #
edge $-1 $209 -6.3741395552943345 $303 0.84394235375676629 $201 $304 forward 7 unknown #
coedge $-1 $305 $306 $120 $204 forward $196 $-1 #
edge $-1 $307 -24.748186741406638 $208 -16.971567322009367 $203 $308 forward 7 unknown #
edge $-1 $209 -9.3802978310058478 $307 0 $121 $309 forward 7 unknown #
coedge $-1 $122 $299 $305 $310 forward $207 $-1 #
loop $-1 $-1 $299 $195 #
vertex $-1 $204 $311 #
vertex $-1 $123 $312 #
straight-curve $-1 -59.774445732739771 -9.1392381560631186 8.5804716552711753 1 0 0 I I #
coedge $-1 $211 $211 $-1 $313 reversed $126 $-1 #
edge $-1 $314 0 $314 6.2831853071796004 $127 $315 forward 7 unknown #
vertex $-1 $130 $316 #
ellipse-curve $-1 -42.353039851338586 -5.5301972015375682 4.6921619455725381 -0.82903758062907751 0 0.55919289150049634 0.83878933725074445 0 1.2435563709436162 1 I I #
face $-1 $-1 $227 $28 $-1 $317 reversed single #
loop $-1 $-1 $318 $131 #
plane-surface $-1 0 18.509546849087585 0 0 -1 0 0 0 -1 forward_v I I I I #
coedge $-1 $223 $319 $320 $321 forward $132 $-1 #
coedge $-1 $320 $134 $136 $225 forward $82 $-1 #
coedge $-1 $134 $320 $318 $322 reversed $82 $-1 #
coedge $-1 $323 $137 $134 $222 forward $227 $-1 #
edge $-1 $229 3.3507649046768559 $324 11.222776264499437 $221 $325 forward 7 unknown #
coedge $-1 $326 $218 $135 $224 forward $132 $-1 #
edge $-1 $327 7.0440605552916438 $228 9.2635828525417452 $223 $328 forward 7 unknown #
edge $-1 $229 -89.951475569933194 $327 -85.876258398952672 $136 $329 forward 7 unknown #
coedge $-1 $137 $323 $326 $330 reversed $227 $-1 #
loop $-1 $-1 $221 $215 #
vertex $-1 $330 $331 #
vertex $-1 $138 $332 #
straight-curve $-1 44.975737784966583 10.637535489265003 64.796723245506243 0 0 -1 I I #
coedge $-1 $231 $231 $-1 $333 reversed $141 $-1 #
edge $-1 $334 0 $334 6.2831853071796004 $142 $335 forward 7 unknown #
vertex $-1 $145 $336 #
ellipse-curve $-1 43.865976636341536 12.211937761229517 6.8715892893179076 0.83867057594974714 0 0.54463902268945019 0.2723195113447251 0 -0.41933528797487357 1 I I #
coedge $-1 $235 $235 $-1 $337 reversed $148 $-1 #
edge $-1 $338 0 $338 6.2831853071796004 $149 $339 forward 7 unknown #
vertex $-1 $152 $340 #
ellipse-curve $-1 43.865976636341536 14.573541169176295 6.8715892893179076 0.83867057594974714 0 0.54463902268945019 0.2723195113447251 0 -0.41933528797487357 1 I I #
coedge $-1 $239 $239 $-1 $341 reversed $155 $-1 #
edge $-1 $342 0 $342 6.2831853071796004 $156 $343 forward 7 unknown #
vertex $-1 $159 $344 #
ellipse-curve $-1 43.865976636341536 16.935144577123069 6.8715892893179076 0.83867057594974714 0 0.54463902268945019 0.2723195113447251 0 -0.41933528797487357 1 I I #
face $-1 $-1 $175 $24 $-1 $345 reversed single #
loop $-1 $-1 $259 $160 #
plane-surface $-1 0 18.509546849087585 0 0 -1 0 0 0 -1 forward_v I I I I #
coedge $-1 $346 $257 $260 $347 forward $161 $-1 #
coedge $-1 $263 $163 $164 $251 reversed $101 $-1 #
coedge $-1 $257 $346 $163 $249 reversed $161 $-1 #
edge $-1 $264 -8.5804716552711753 $348 8.5804716552711753 $248 $349 forward 7 unknown #
coedge $-1 $165 $164 $346 $350 forward $65 $-1 #
edge $-1 $255 -44.975737784966583 $348 44.975737784966583 $247 $351 forward 7 unknown #
coedge $-1 $260 $259 $165 $253 reversed $244 $-1 #
edge $-1 $352 -44.975737784966583 $254 44.975737784966583 $252 $353 forward 7 unknown #
vertex $-1 $167 $354 #
vertex $-1 $266 $355 #
straight-curve $-1 44.975737784966583 0 -8.5804716552711753 0 -1 0 I I #
coedge $-1 $246 $248 $168 $258 reversed $161 $-1 #
edge $-1 $261 -18.509546849087585 $264 18.509546849087585 $257 $356 forward 7 unknown #
coedge $-1 $252 $169 $174 $267 forward $244 $-1 #
coedge $-1 $169 $252 $246 $347 reversed $244 $-1 #
vertex $-1 $170 $357 #
straight-curve $-1 0 18.509546849087585 8.5804716552711753 -1 0 0 I I #
coedge $-1 $171 $247 $173 $266 reversed $101 $-1 #
vertex $-1 $258 $358 #
straight-curve $-1 0 -18.509546849087585 8.5804716552711753 1 0 0 I I #
edge $-1 $176 -8.5804716552711753 $255 8.5804716552711753 $173 $359 forward 7 unknown #
edge $-1 $177 -8.5804716552711753 $254 8.5804716552711753 $174 $360 forward 7 unknown #
point $-1 44.975737784966583 -18.509546849087585 8.5804716552711753 #
point $-1 44.975737784966583 18.509546849087585 8.5804716552711753 #
face $-1 $-1 $361 $25 $-1 $362 reversed single #
loop $-1 $-1 $363 $179 #
plane-surface $-1 0 0 -8.5804716552711753 0 0 1 1 0 0 forward_v I I I I #
coedge $-1 $280 $290 $275 $364 forward $180 $-1 #
coedge $-1 $185 $182 $363 $365 reversed $109 $-1 #
coedge $-1 $182 $185 $273 $364 reversed $109 $-1 #
coedge $-1 $366 $367 $182 $277 forward $361 $-1 #
edge $-1 $368 -8.5804716552711753 $369 8.5804716552711753 $276 $370 forward 7 unknown #
coedge $-1 $363 $188 $183 $279 forward $271 $-1 #
edge $-1 $193 -16.407397237212116 $283 -13.407397237212116 $278 $371 forward 7 unknown #
coedge $-1 $190 $273 $184 $281 forward $180 $-1 #
edge $-1 $282 13.407397237212116 $192 16.407397237212116 $280 $372 forward 7 unknown #
vertex $-1 $281 $373 #
vertex $-1 $279 $374 #
straight-curve $-1 -28.314794474424232 -9.1392381560631186 0 0 0 -1 I I #
coedge $-1 $367 $366 $187 $286 forward $361 $-1 #
edge $-1 $291 -8.5804716552711753 $288 8.5804716552711753 $285 $375 forward 7 unknown #
coedge $-1 $188 $363 $367 $376 forward $271 $-1 #
vertex $-1 $189 $377 #
straight-curve $-1 -31.314794474424232 -6.9121962512876758 -8.5804716552711753 0 1 0 I I #
coedge $-1 $273 $190 $366 $378 forward $180 $-1 #
vertex $-1 $378 $379 #
straight-curve $-1 -31.314794474424232 -6.9121962512876758 8.5804716552711753 0 -1 0 I I #
point $-1 -31.314794474424232 -9.1392381560631186 8.5804716552711753 #
point $-1 -31.314794474424232 -9.1392381560631186 -8.5804716552711753 #
plane-surface $-1 0 0 8.5804716552711753 0 0 1 1 0 0 forward_v I I I I #
coedge $-1 $306 $305 $298 $380 forward $196 $-1 #
coedge $-1 $298 $198 $200 $302 reversed $117 $-1 #
coedge $-1 $198 $297 $296 $380 reversed $117 $-1 #
coedge $-1 $206 $201 $198 $300 forward $207 $-1 #
edge $-1 $303 -20.044103815029182 $381 -14.798707947773188 $299 $382 forward 7 unknown #
coedge $-1 $200 $199 $306 $383 reversed $73 $-1 #
edge $-1 $384 0 $303 9.3802978310058478 $297 $385 forward 7 unknown #
vertex $-1 $202 $386 #
straight-curve $-1 -39.730341917710589 -2.7650986007687841 8.5804716552711753 0 1 0 I I #
coedge $-1 $296 $203 $206 $310 reversed $196 $-1 #
coedge $-1 $203 $296 $301 $383 forward $196 $-1 #
vertex $-1 $204 $387 #
straight-curve $-1 -44.975737784966583 -9.1392381560631186 25.552038977280542 0 0 1 I I #
straight-curve $-1 -44.975737784966583 -9.1392381560631186 0.80385223587390442 -0.55919289150049634 0 -0.82903758062907751 I I #
edge $-1 $381 1.9211562470120178 $208 9.1392381560631186 $305 $388 forward 7 unknown #
point $-1 -44.975737784966583 -9.1392381560631186 8.5804716552711753 #
point $-1 -39.730341917710589 -9.1392381560631186 8.5804716552711753 #
edge $-1 $389 1 $389 0 $211 $-1 forward 7 unknown #
vertex $-1 $212 $390 #
ellipse-curve $-1 -39.826799126467165 -5.5301972015375682 2.9881911141233388 -0.82903758062907751 0 0.55919289150049634 0.83878933725074445 0 1.2435563709436162 1 I I #
point $-1 -41.514250514087834 -5.5301972015375682 5.9357183165161516 #
plane-surface $-1 44.975737784966583 0 0 -1 0 0 0 0 1 forward_v I I I I #
coedge $-1 $391 $392 $220 $322 forward $216 $-1 #
coedge $-1 $218 $326 $391 $393 forward $132 $-1 #
coedge $-1 $220 $219 $218 $321 reversed $82 $-1 #
edge $-1 $394 -11.222776264499437 $327 -3.3507649046768559 $218 $395 forward 7 unknown #
edge $-1 $324 -55.058603526498203 $394 -50.983386355517673 $318 $396 forward 7 unknown #
coedge $-1 $226 $221 $392 $397 reversed $227 $-1 #
vertex $-1 $222 $398 #
straight-curve $-1 44.975737784966583 7.2867705845881474 5.1627069233646452 0 1 0 I I #
coedge $-1 $319 $223 $226 $330 forward $132 $-1 #
vertex $-1 $224 $399 #
straight-curve $-1 35.712154932424838 10.637535489265003 8.5804716552711753 1 0 0 I I #
straight-curve $-1 -4.0153459589157876 10.637535489265003 80.60236274713013 -0.54463902268945019 0 0.83867057594974714 I I #
edge $-1 $228 10.637535489265003 $400 18.509546849087585 $226 $401 forward 7 unknown #
point $-1 44.975737784966583 10.637535489265003 8.5804716552711753 #
point $-1 44.975737784966583 10.637535489265003 5.1627069233646523 #
edge $-1 $402 1 $402 0 $231 $-1 forward 7 unknown #
vertex $-1 $232 $403 #
ellipse-curve $-1 42.796964074605505 12.211937761229517 6.1773644368395422 0.83867057594974714 0 0.54463902268945019 0.2723195113447251 0 -0.41933528797487357 1 I I #
point $-1 44.138296147686276 12.211937761229517 6.4522540013430438 #
edge $-1 $404 1 $404 0 $235 $-1 forward 7 unknown #
vertex $-1 $236 $405 #
ellipse-curve $-1 42.796964074605505 14.573541169176295 6.1773644368395422 0.83867057594974714 0 0.54463902268945019 0.2723195113447251 0 -0.41933528797487357 1 I I #
point $-1 44.138296147686276 14.573541169176295 6.4522540013430438 #
edge $-1 $406 1 $406 0 $239 $-1 forward 7 unknown #
vertex $-1 $240 $407 #
ellipse-curve $-1 42.796964074605505 16.935144577123069 6.1773644368395422 0.83867057594974714 0 0.54463902268945019 0.2723195113447251 0 -0.41933528797487357 1 I I #
point $-1 44.138296147686276 16.935144577123069 6.4522540013430438 #
plane-surface $-1 44.975737784966583 0 0 -1 0 0 0 0 1 forward_v I I I I #
coedge $-1 $248 $246 $250 $350 reversed $161 $-1 #
edge $-1 $261 -8.5804716552711753 $352 8.5804716552711753 $260 $408 forward 7 unknown #
vertex $-1 $350 $409 #
straight-curve $-1 -44.975737784966583 -18.509546849087585 0 0 0 -1 I I #
edge $-1 $348 -18.509546849087585 $352 18.509546849087585 $346 $410 forward 7 unknown #
straight-curve $-1 0 -18.509546849087585 -8.5804716552711753 -1 0 0 I I #
vertex $-1 $253 $411 #
straight-curve $-1 0 18.509546849087585 -8.5804716552711753 1 0 0 I I #
point $-1 44.975737784966583 18.509546849087585 -8.5804716552711753 #
point $-1 44.975737784966583 -18.509546849087585 -8.5804716552711753 #
straight-curve $-1 -44.975737784966583 0 8.5804716552711753 0 -1 0 I I #
point $-1 -44.975737784966583 18.509546849087585 8.5804716552711753 #
point $-1 -44.975737784966583 -18.509546849087585 8.5804716552711753 #
straight-curve $-1 44.975737784966583 -18.509546849087585 0 0 0 -1 I I #
straight-curve $-1 44.975737784966583 18.509546849087585 0 0 0 -1 I I #
loop $-1 $-1 $276 $270 #
plane-surface $-1 0 -18.509546849087585 0 0 1 0 0 0 1 forward_v I I I I #
coedge $-1 $287 $278 $274 $365 forward $271 $-1 #
edge $-1 $369 -11.59735059779991 $282 -2.2270419047754428 $273 $412 forward 7 unknown #
edge $-1 $283 2.2270419047754428 $368 11.59735059779991 $363 $413 forward 7 unknown #
coedge $-1 $285 $276 $290 $378 reversed $361 $-1 #
coedge $-1 $276 $285 $287 $376 reversed $361 $-1 #
vertex $-1 $376 $414 #
vertex $-1 $277 $415 #
straight-curve $-1 -28.314794474424232 -18.509546849087585 0 0 0 1 I I #
straight-curve $-1 -14.907397237212116 -9.1392381560631186 -8.5804716552711753 1 0 0 I I #
straight-curve $-1 -14.907397237212116 -9.1392381560631186 8.5804716552711753 -1 0 0 I I #
point $-1 -28.314794474424232 -9.1392381560631186 8.5804716552711753 #
point $-1 -28.314794474424232 -9.1392381560631186 -8.5804716552711753 #
straight-curve $-1 -31.314794474424232 -18.509546849087585 0 0 0 -1 I I #
edge $-1 $368 28.314794474424232 $288 31.314794474424232 $367 $416 forward 7 unknown #
point $-1 -31.314794474424232 -18.509546849087585 -8.5804716552711753 #
edge $-1 $291 -31.314794474424232 $369 -28.314794474424232 $366 $417 forward 7 unknown #
point $-1 -31.314794474424232 -18.509546849087585 8.5804716552711753 #
edge $-1 $381 16.971567322009367 $384 24.748186741406638 $296 $418 forward 7 unknown #
vertex $-1 $310 $419 #
straight-curve $-1 -59.774445732739771 -1.9211562470120178 8.5804716552711753 -1 0 0 I I #
edge $-1 $384 -0.84394235375676629 $307 6.3741395552943345 $306 $420 forward 7 unknown #
vertex $-1 $383 $421 #
straight-curve $-1 -44.975737784966583 -1.9211562470120178 0.80385223587390442 0.55919289150049634 0 0.82903758062907751 I I #
point $-1 -39.730341917710589 -1.9211562470120178 8.5804716552711753 #
point $-1 -44.975737784966583 -9.1392381560631186 0.80385223587390442 #
straight-curve $-1 -44.975737784966583 0 8.5804716552711753 0 -1 0 I I #
vertex $-1 $313 $422 #
point $-1 -38.98800978921642 -5.5301972015375682 4.231747485066955 #
coedge $-1 $392 $318 $319 $393 reversed $216 $-1 #
coedge $-1 $318 $391 $323 $397 forward $216 $-1 #
edge $-1 $400 -44.975737784966583 $394 -42.756215487716482 $391 $423 forward 7 unknown #
vertex $-1 $322 $424 #
straight-curve $-1 42.756215487716489 7.2867705845881474 8.5804716552711824 0 -1 0 I I #
straight-curve $-1 14.988673769648688 18.509546849087585 51.338737653921669 -0.54463902268945019 0 0.83867057594974714 I I #
edge $-1 $400 -8.5804716552711753 $324 -5.1627069233646461 $323 $425 forward 7 unknown #
point $-1 44.975737784966583 18.509546849087585 5.1627069233646461 #
point $-1 42.756215487716482 10.637535489265003 8.5804716552711824 #
vertex $-1 $330 $426 #
straight-curve $-1 44.975737784966583 0 8.5804716552711753 0 1 0 I I #
vertex $-1 $333 $427 #
point $-1 43.069283585950231 12.211937761229517 5.7580291488646687 #
vertex $-1 $337 $428 #
point $-1 43.069283585950231 14.573541169176295 5.7580291488646687 #
vertex $-1 $341 $429 #
point $-1 43.069283585950231 16.935144577123069 5.7580291488646687 #
straight-curve $-1 -44.975737784966583 18.509546849087585 0 0 0 -1 I I #
point $-1 -44.975737784966583 -18.509546849087585 -8.5804716552711753 #
straight-curve $-1 -44.975737784966583 0 -8.5804716552711753 0 1 0 I I #
point $-1 -44.975737784966583 18.509546849087585 -8.5804716552711753 #
straight-curve $-1 -28.314794474424232 -6.9121962512876758 8.5804716552711753 0 1 0 I I #
straight-curve $-1 -28.314794474424232 -6.9121962512876758 -8.5804716552711753 0 -1 0 I I #
point $-1 -28.314794474424232 -18.509546849087585 -8.5804716552711753 #
point $-1 -28.314794474424232 -18.509546849087585 8.5804716552711753 #
straight-curve $-1 0 -18.509546849087585 -8.5804716552711753 -1 0 0 I I #
straight-curve $-1 0 -18.509546849087585 8.5804716552711753 1 0 0 I I #
straight-curve $-1 -44.975737784966583 -1.9211562470120178 25.552038977280542 0 0 -1 I I #
point $-1 -44.975737784966583 -1.9211562470120178 8.5804716552711753 #
straight-curve $-1 -44.975737784966583 -2.7650986007687841 0.80385223587389909 0 -1 0 I I #
point $-1 -44.975737784966583 -1.9211562470120178 0.80385223587390442 #
point $-1 -38.583242755523543 -5.5301972015375682 2.1494017768725939 #
straight-curve $-1 0 18.509546849087585 8.5804716552711753 -1 0 0 I I #
point $-1 42.756215487716482 18.509546849087585 8.5804716552711824 #
straight-curve $-1 44.975737784966583 18.509546849087585 0 0 0 -1 I I #
point $-1 44.975737784966583 18.509546849087585 8.5804716552711753 #
point $-1 42.37762878663063 12.211937761229517 5.9050449254948179 #
point $-1 42.37762878663063 14.573541169176295 5.9050449254948179 #
point $-1 42.37762878663063 16.935144577123069 5.9050449254948179 #
End-of-ACIS-data 