500 0 17 0           
7 Unknown 11 ACIS 5.0 NT 24 Fri Mar 26 19:23:26 1999 
-1 9.9999999999999995e-007 1e-010 
body $-1 $17 $-1 $18 #
body $-1 $19 $-1 $20 #
body $-1 $21 $-1 $22 #
body $-1 $23 $-1 $24 #
body $-1 $25 $-1 $26 #
body $-1 $27 $-1 $28 #
body $-1 $29 $-1 $30 #
body $-1 $31 $-1 $32 #
body $-1 $33 $-1 $34 #
body $-1 $35 $-1 $36 #
body $-1 $37 $-1 $38 #
body $-1 $39 $-1 $40 #
body $-1 $41 $-1 $42 #
body $-1 $43 $-1 $44 #
body $-1 $45 $-1 $46 #
body $-1 $47 $-1 $48 #
body $-1 $49 $-1 $50 #
lump $-1 $-1 $51 $0 #
transform $-1 1 0 0 0 1 0 0 0 1 55.421613208410903 36.897395244610834 11.834259325639746 1 rotate no_reflect no_shear #
lump $-1 $-1 $52 $1 #
transform $-1 1 0 0 0 1 0 0 0 1 55.421613208410903 36.897395244610834 11.834259325639746 1 rotate no_reflect no_shear #
lump $-1 $-1 $53 $2 #
transform $-1 1 0 0 0 1 0 0 0 1 55.421613208410903 36.897395244610834 11.834259325639746 1 rotate no_reflect no_shear #
lump $-1 $-1 $54 $3 #
transform $-1 1 0 0 0 1 0 0 0 1 55.421613208410903 36.897395244610834 11.834259325639746 1 rotate no_reflect no_shear #
lump $-1 $-1 $55 $4 #
transform $-1 1 0 0 0 1 0 0 0 1 55.421613208410903 36.897395244610834 11.834259325639746 1 rotate no_reflect no_shear #
lump $-1 $-1 $56 $5 #
transform $-1 1 0 0 0 1 0 0 0 1 55.421613208410903 36.897395244610834 11.834259325639746 1 rotate no_reflect no_shear #
lump $-1 $-1 $57 $6 #
transform $-1 1 0 0 0 1 0 0 0 1 55.421613208410903 36.897395244610834 11.834259325639746 1 rotate no_reflect no_shear #
lump $-1 $-1 $58 $7 #
transform $-1 1 0 0 0 1 0 0 0 1 55.421613208410903 36.897395244610834 11.834259325639746 1 rotate no_reflect no_shear #
lump $-1 $-1 $59 $8 #
transform $-1 1 0 0 0 1 0 0 0 1 55.421613208410903 36.897395244610834 11.834259325639746 1 rotate no_reflect no_shear #
lump $-1 $-1 $60 $9 #
transform $-1 1 0 0 0 1 0 0 0 1 55.421613208410903 36.897395244610834 11.834259325639746 1 rotate no_reflect no_shear #
lump $-1 $-1 $61 $10 #
transform $-1 1 0 0 0 1 0 0 0 1 55.421613208410903 36.897395244610834 11.834259325639746 1 rotate no_reflect no_shear #
lump $-1 $-1 $62 $11 #
transform $-1 1 0 0 0 1 0 0 0 1 55.421613208410903 36.897395244610834 11.834259325639746 1 rotate no_reflect no_shear #
lump $-1 $-1 $63 $12 #
transform $-1 1 0 0 0 1 0 0 0 1 55.421613208410903 36.897395244610834 11.834259325639746 1 rotate no_reflect no_shear #
lump $-1 $-1 $64 $13 #
transform $-1 1 0 0 0 1 0 0 0 1 55.421613208410903 36.897395244610834 11.834259325639746 1 rotate no_reflect no_shear #
lump $-1 $-1 $65 $14 #
transform $-1 1 0 0 0 1 0 0 0 1 55.421613208410903 36.897395244610834 11.834259325639746 1 rotate no_reflect no_shear #
lump $-1 $-1 $66 $15 #
transform $-1 1 0 0 0 1 0 0 0 1 55.421613208410903 36.897395244610834 11.834259325639746 1 rotate no_reflect no_shear #
lump $-1 $-1 $67 $16 #
transform $-1 1 0 0 0 1 0 0 0 1 55.421613208410903 36.897395244610834 11.834259325639746 1 rotate no_reflect no_shear #
shell $-1 $-1 $-1 $68 $-1 $17 #
shell $-1 $-1 $-1 $69 $-1 $19 #
shell $-1 $-1 $-1 $70 $-1 $21 #
shell $-1 $-1 $-1 $71 $-1 $23 #
shell $-1 $-1 $-1 $72 $-1 $25 #
shell $-1 $-1 $-1 $73 $-1 $27 #
shell $-1 $-1 $-1 $74 $-1 $29 #
shell $-1 $-1 $-1 $75 $-1 $31 #
shell $-1 $-1 $-1 $76 $-1 $33 #
shell $-1 $-1 $-1 $77 $-1 $35 #
shell $-1 $-1 $-1 $78 $-1 $37 #
shell $-1 $-1 $-1 $79 $-1 $39 #
shell $-1 $-1 $-1 $80 $-1 $41 #
shell $-1 $-1 $-1 $81 $-1 $43 #
shell $-1 $-1 $-1 $82 $-1 $45 #
shell $-1 $-1 $-1 $83 $-1 $47 #
shell $-1 $-1 $-1 $84 $-1 $49 #
face $-1 $85 $86 $51 $-1 $87 forward single #
face $-1 $88 $89 $52 $-1 $90 forward single #
face $-1 $91 $92 $53 $-1 $93 reversed single #
face $-1 $94 $95 $54 $-1 $96 forward single #
face $-1 $97 $98 $55 $-1 $99 forward single #
face $-1 $100 $101 $56 $-1 $102 reversed single #
face $-1 $103 $104 $57 $-1 $105 forward single #
face $-1 $106 $107 $58 $-1 $108 forward single #
face $-1 $109 $110 $59 $-1 $111 reversed single #
face $-1 $112 $113 $60 $-1 $114 forward single #
face $-1 $115 $116 $61 $-1 $117 forward single #
face $-1 $118 $119 $62 $-1 $120 reversed single #
face $-1 $121 $122 $63 $-1 $123 forward single #
face $-1 $124 $125 $64 $-1 $126 forward single #
face $-1 $127 $128 $65 $-1 $129 reversed single #
face $-1 $130 $131 $66 $-1 $132 forward single #
face $-1 $133 $134 $67 $-1 $135 forward single #
face $-1 $136 $137 $51 $-1 $138 reversed single #
loop $-1 $-1 $139 $68 #
plane-surface $-1 0 0 11.834259325639746 0 0 1 1 0 0 forward_v I I I I #
face $-1 $140 $141 $52 $-1 $142 reversed single #
loop $-1 $-1 $143 $69 #
plane-surface $-1 -55.421613208410903 0 0 1 0 0 0 0 -1 forward_v I I I I #
face $-1 $144 $145 $53 $-1 $146 reversed single #
loop $-1 $-1 $147 $70 #
plane-surface $-1 -17.702718741855755 33.053825750216234 141.53201002230048 1 0 0 0 -0.52991927123019833 -0.84804809178421925 forward_v I I I I #
face $-1 $148 $149 $54 $-1 $150 forward single #
loop $-1 $151 $152 $71 #
cone-surface $-1 -11.967116985950284 33.502253924956435 9.0608973358223341 0 -0.52991927123019833 -0.84804809178421925 1.5 0 0 1 I I 0 1 1.5 forward I I I I #
face $-1 $153 $154 $55 $-1 $155 forward single #
loop $-1 $156 $157 $72 #
cone-surface $-1 -3.3637143520920745 33.502253924956435 9.0608973358223341 0 -0.52991927123019833 -0.84804809178421925 1.5 0 0 1 I I 0 1 1.5 forward I I I I #
face $-1 $158 $159 $56 $-1 $160 reversed single #
loop $-1 $-1 $161 $73 #
plane-surface $-1 -26.753219628295838 -115.27539320192615 81.654277742756562 -1 0 0 0 -0.70710678939079041 0.70710677298230451 forward_v I I I I #
face $-1 $162 $163 $57 $-1 $164 forward single #
loop $-1 $165 $166 $74 #
cone-surface $-1 -36.530635168750251 -31.367433643822167 6.3042976545856568 0 0.70710678939079041 -0.70710677298230451 1 0 0 1 I I 0 1 1 forward I I I I #
face $-1 $167 $168 $58 $-1 $169 forward single #
loop $-1 $170 $171 $75 #
cone-surface $-1 -30.664185844477604 -31.367433643822167 6.3042976545856568 0 0.70710678939079041 -0.70710677298230451 1 0 0 1 I I 0 1 1 forward I I I I #
face $-1 $172 $173 $59 $-1 $174 reversed single #
loop $-1 $-1 $175 $76 #
plane-surface $-1 0.63839131727307663 -115.27539320192615 81.654277742756562 -1 0 0 0 -0.70710678939079041 0.70710677298230451 forward_v I I I I #
face $-1 $176 $177 $60 $-1 $178 forward single #
loop $-1 $179 $180 $77 #
cone-surface $-1 -9.1390242231813374 -31.367433643822167 6.3042976545856568 0 0.70710678939079041 -0.70710677298230451 1 0 0 1 I I 0 1 1 forward I I I I #
face $-1 $181 $182 $61 $-1 $183 forward single #
loop $-1 $184 $185 $78 #
cone-surface $-1 -3.2725748989086867 -31.367433643822167 6.3042976545856568 0 0.70710678939079041 -0.70710677298230451 1 0 0 1 I I 0 1 1 forward I I I I #
face $-1 $186 $187 $62 $-1 $188 reversed single #
loop $-1 $-1 $189 $79 #
plane-surface $-1 28.03000226284199 -115.27539320192615 81.654277742756562 -1 0 0 0 -0.70710678939079041 0.70710677298230451 forward_v I I I I #
face $-1 $190 $191 $63 $-1 $192 forward single #
loop $-1 $193 $194 $80 #
cone-surface $-1 18.252586722387576 -31.367433643822167 6.3042976545856568 0 0.70710678939079041 -0.70710677298230451 1 0 0 1 I I 0 1 1 forward I I I I #
face $-1 $195 $196 $64 $-1 $197 forward single #
loop $-1 $198 $199 $81 #
cone-surface $-1 24.119036046660227 -31.367433643822167 6.3042976545856568 0 0.70710678939079041 -0.70710677298230451 1 0 0 1 I I 0 1 1 forward I I I I #
face $-1 $200 $201 $65 $-1 $202 reversed single #
loop $-1 $-1 $203 $82 #
plane-surface $-1 48.577422330092816 -36.897395244610834 3.2762816042107659 0 -0.70710678939079041 0.70710677298230451 1 0 0 forward_v I I I I #
face $-1 $204 $205 $66 $-1 $206 forward single #
loop $-1 $207 $208 $83 #
cone-surface $-1 45.64419766795649 -31.367433643822167 6.3042976545856568 0 0.70710678939079041 -0.70710677298230451 1 0 0 1 I I 0 1 1 forward I I I I #
face $-1 $209 $210 $67 $-1 $211 forward single #
loop $-1 $212 $213 $84 #
cone-surface $-1 51.510646992229141 -31.367433643822167 6.3042976545856568 0 0.70710678939079041 -0.70710677298230451 1 0 0 1 I I 0 1 1 forward I I I I #
face $-1 $214 $215 $51 $-1 $216 reversed single #
loop $-1 $-1 $217 $85 #
plane-surface $-1 0 0 -11.834259325639746 0 0 1 1 0 0 forward_v I I I I #
coedge $-1 $218 $219 $220 $221 forward $86 $-1 #
face $-1 $222 $223 $52 $-1 $224 forward single #
loop $-1 $-1 $225 $88 #
plane-surface $-1 0 36.897395244610834 0 0 -1 0 0 0 -1 forward_v I I I I #
coedge $-1 $226 $227 $228 $229 forward $89 $-1 #
face $-1 $230 $231 $53 $-1 $232 reversed single #
loop $-1 $-1 $233 $91 #
plane-surface $-1 -7.6654156690211792 -25.684136013389846 47.531623372308587 0 0.52991927123019833 0.84804809178421925 1 0 0 forward_v I I I I #
coedge $-1 $234 $235 $236 $237 reversed $92 $-1 #
face $-1 $-1 $238 $54 $-1 $239 forward single #
loop $-1 $240 $241 $94 #
cone-surface $-1 -11.967116985950284 32.436577165481538 7.3554580521490927 0 -0.52991927123019833 -0.84804809178421925 0.75 0 0 1 I I -0.70710678118654757 0.70710678118654757 0.75 forward I I I I #
loop $-1 $-1 $242 $71 #
coedge $-1 $152 $152 $243 $244 reversed $95 $-1 #
face $-1 $-1 $245 $55 $-1 $246 forward single #
loop $-1 $247 $248 $97 #
cone-surface $-1 -3.3637143520920745 32.436577165481538 7.3554580521490927 0 -0.52991927123019833 -0.84804809178421925 0.75 0 0 1 I I -0.70710678118654757 0.70710678118654757 0.75 forward I I I I #
loop $-1 $-1 $249 $72 #
coedge $-1 $157 $157 $250 $251 reversed $98 $-1 #
face $-1 $252 $253 $56 $-1 $254 reversed single #
loop $-1 $-1 $255 $100 #
plane-surface $-1 -33.597410506613926 -36.897395244610834 3.2762816042107659 0 -0.70710678939079041 0.70710677298230451 1 0 0 forward_v I I I I #
coedge $-1 $256 $257 $258 $259 reversed $101 $-1 #
face $-1 $-1 $260 $57 $-1 $261 forward single #
loop $-1 $262 $263 $103 #
cone-surface $-1 -36.530635168750251 -29.762907409758217 4.6997714577549026 0 0.70710678939079041 -0.70710677298230451 0.5 0 0 1 I I -0.70710678118654746 0.70710678118654746 0.5 forward I I I I #
loop $-1 $-1 $264 $74 #
coedge $-1 $166 $166 $265 $266 reversed $104 $-1 #
face $-1 $-1 $267 $58 $-1 $268 forward single #
loop $-1 $269 $270 $106 #
cone-surface $-1 -30.664185844477604 -29.762907409758217 4.6997714577549026 0 0.70710678939079041 -0.70710677298230451 0.5 0 0 1 I I -0.70710678118654746 0.70710678118654746 0.5 forward I I I I #
loop $-1 $-1 $271 $75 #
coedge $-1 $171 $171 $272 $273 reversed $107 $-1 #
face $-1 $274 $275 $59 $-1 $276 reversed single #
loop $-1 $-1 $277 $109 #
plane-surface $-1 -6.2057995610450121 -36.897395244610834 3.2762816042107659 0 -0.70710678939079041 0.70710677298230451 1 0 0 forward_v I I I I #
coedge $-1 $278 $279 $280 $281 reversed $110 $-1 #
face $-1 $-1 $282 $60 $-1 $283 forward single #
loop $-1 $284 $285 $112 #
cone-surface $-1 -9.1390242231813374 -29.762907409758217 4.6997714577549026 0 0.70710678939079041 -0.70710677298230451 0.5 0 0 1 I I -0.70710678118654746 0.70710678118654746 0.5 forward I I I I #
loop $-1 $-1 $286 $77 #
coedge $-1 $180 $180 $287 $288 reversed $113 $-1 #
face $-1 $-1 $289 $61 $-1 $290 forward single #
loop $-1 $291 $292 $115 #
cone-surface $-1 -3.2725748989086867 -29.762907409758217 4.6997714577549026 0 0.70710678939079041 -0.70710677298230451 0.5 0 0 1 I I -0.70710678118654746 0.70710678118654746 0.5 forward I I I I #
loop $-1 $-1 $293 $78 #
coedge $-1 $185 $185 $294 $295 reversed $116 $-1 #
face $-1 $296 $297 $62 $-1 $298 reversed single #
loop $-1 $-1 $299 $118 #
plane-surface $-1 21.185811384523902 -36.897395244610834 3.2762816042107659 0 -0.70710678939079041 0.70710677298230451 1 0 0 forward_v I I I I #
coedge $-1 $300 $301 $302 $303 reversed $119 $-1 #
face $-1 $-1 $304 $63 $-1 $305 forward single #
loop $-1 $306 $307 $121 #
cone-surface $-1 18.252586722387576 -29.762907409758217 4.6997714577549026 0 0.70710678939079041 -0.70710677298230451 0.5 0 0 1 I I -0.70710678118654746 0.70710678118654746 0.5 forward I I I I #
loop $-1 $-1 $308 $80 #
coedge $-1 $194 $194 $309 $310 reversed $122 $-1 #
face $-1 $-1 $311 $64 $-1 $312 forward single #
loop $-1 $313 $314 $124 #
cone-surface $-1 24.119036046660227 -29.762907409758217 4.6997714577549026 0 0.70710678939079041 -0.70710677298230451 0.5 0 0 1 I I -0.70710678118654746 0.70710678118654746 0.5 forward I I I I #
loop $-1 $-1 $315 $81 #
coedge $-1 $199 $199 $316 $317 reversed $125 $-1 #
face $-1 $318 $319 $65 $-1 $320 reversed single #
loop $-1 $-1 $321 $127 #
plane-surface $-1 41.733231451774728 -115.27539320192615 81.654277742756562 1 0 0 0 0.70710678939079041 -0.70710677298230451 forward_v I I I I #
coedge $-1 $322 $323 $324 $325 reversed $128 $-1 #
face $-1 $-1 $326 $66 $-1 $327 forward single #
loop $-1 $328 $329 $130 #
cone-surface $-1 45.64419766795649 -29.762907409758217 4.6997714577549026 0 0.70710678939079041 -0.70710677298230451 0.5 0 0 1 I I -0.70710678118654746 0.70710678118654746 0.5 forward I I I I #
loop $-1 $-1 $330 $83 #
coedge $-1 $208 $208 $331 $332 reversed $131 $-1 #
face $-1 $-1 $333 $67 $-1 $334 forward single #
loop $-1 $335 $336 $133 #
cone-surface $-1 51.510646992229141 -29.762907409758217 4.6997714577549026 0 0.70710678939079041 -0.70710677298230451 0.5 0 0 1 I I -0.70710678118654746 0.70710678118654746 0.5 forward I I I I #
loop $-1 $-1 $337 $84 #
coedge $-1 $213 $213 $338 $339 reversed $134 $-1 #
face $-1 $340 $341 $51 $-1 $342 reversed single #
loop $-1 $-1 $343 $136 #
plane-surface $-1 0 -36.897395244610834 0 0 1 0 0 0 1 forward_v I I I I #
coedge $-1 $344 $345 $346 $347 forward $137 $-1 #
coedge $-1 $348 $139 $349 $350 forward $86 $-1 #
coedge $-1 $139 $348 $351 $352 forward $86 $-1 #
coedge $-1 $353 $354 $139 $221 reversed $355 $-1 #
edge $-1 $356 -36.897395244610834 $357 36.897395244610834 $220 $358 forward 7 unknown #
face $-1 $359 $360 $52 $-1 $361 reversed single #
loop $-1 $-1 $228 $140 #
plane-surface $-1 -62.911619120150348 0 -0.67041020913636773 0 0 1 1 0 0 forward_v I I I I #
coedge $-1 $362 $363 $227 $364 forward $141 $-1 #
coedge $-1 $365 $143 $366 $367 reversed $89 $-1 #
coedge $-1 $143 $365 $225 $364 reversed $89 $-1 #
coedge $-1 $368 $369 $143 $229 reversed $223 $-1 #
edge $-1 $370 -36.897395244610834 $371 36.897395244610834 $228 $372 forward 7 unknown #
face $-1 $373 $374 $53 $-1 $375 forward single #
loop $-1 $-1 $376 $144 #
plane-surface $-1 2.3718874038133961 33.053825750216234 141.53201002230048 -1 0 0 0 0.52991927123019833 0.84804809178421925 forward_v I I I I #
coedge $-1 $377 $378 $379 $380 reversed $145 $-1 #
coedge $-1 $235 $147 $381 $382 reversed $92 $-1 #
coedge $-1 $147 $234 $377 $383 reversed $92 $-1 #
coedge $-1 $379 $384 $147 $237 forward $374 $-1 #
edge $-1 $385 -20.370482369502717 $386 -14.916674342298442 $236 $387 forward 7 unknown #
loop $-1 $-1 $243 $148 #
plane-surface $-1 -7.6654156690211792 -25.684136013389846 47.531623372308587 0 0.52991927123019833 0.84804809178421925 1 0 0 forward_v I I I I #
loop $-1 $-1 $388 $94 #
coedge $-1 $241 $241 $242 $389 reversed $149 $-1 #
coedge $-1 $242 $242 $241 $389 forward $151 $-1 #
coedge $-1 $243 $243 $152 $244 forward $238 $-1 #
edge $-1 $390 -1.506960816537253e-015 $390 6.2831853071795987 $243 $391 forward 7 unknown #
loop $-1 $-1 $250 $153 #
plane-surface $-1 -7.6654156690211792 -25.684136013389846 47.531623372308587 0 0.52991927123019833 0.84804809178421925 1 0 0 forward_v I I I I #
loop $-1 $-1 $392 $97 #
coedge $-1 $248 $248 $249 $393 reversed $154 $-1 #
coedge $-1 $249 $249 $248 $393 forward $156 $-1 #
coedge $-1 $250 $250 $157 $251 forward $245 $-1 #
edge $-1 $394 -1.506960816537253e-015 $394 6.2831853071795987 $250 $395 forward 7 unknown #
face $-1 $396 $397 $56 $-1 $398 reversed single #
loop $-1 $-1 $399 $158 #
plane-surface $-1 -40.441601384932014 -115.27539320192615 81.654277742756562 1 0 0 0 0.70710678939079041 -0.70710677298230451 forward_v I I I I #
coedge $-1 $400 $401 $402 $403 reversed $159 $-1 #
coedge $-1 $257 $161 $404 $405 reversed $101 $-1 #
coedge $-1 $161 $256 $400 $406 reversed $101 $-1 #
coedge $-1 $402 $407 $161 $259 forward $408 $-1 #
edge $-1 $409 20.740301356352241 $410 29.298278879192466 $258 $411 forward 7 unknown #
loop $-1 $-1 $265 $162 #
plane-surface $-1 -33.597410506613926 -36.897395244610834 3.2762816042107659 0 -0.70710678939079041 0.70710677298230451 1 0 0 forward_v I I I I #
loop $-1 $-1 $412 $103 #
coedge $-1 $263 $263 $264 $413 reversed $163 $-1 #
coedge $-1 $264 $264 $263 $413 forward $165 $-1 #
coedge $-1 $265 $265 $166 $266 forward $260 $-1 #
edge $-1 $414 -4.3962588187330858e-015 $414 6.283185307179596 $265 $415 forward 7 unknown #
loop $-1 $-1 $272 $167 #
plane-surface $-1 -33.597410506613926 -36.897395244610834 3.2762816042107659 0 -0.70710678939079041 0.70710677298230451 1 0 0 forward_v I I I I #
loop $-1 $-1 $416 $106 #
coedge $-1 $270 $270 $271 $417 reversed $168 $-1 #
coedge $-1 $271 $271 $270 $417 forward $170 $-1 #
coedge $-1 $272 $272 $171 $273 forward $267 $-1 #
edge $-1 $418 -4.3962588187330858e-015 $418 6.283185307179596 $272 $419 forward 7 unknown #
face $-1 $420 $421 $59 $-1 $422 reversed single #
loop $-1 $-1 $423 $172 #
plane-surface $-1 -13.0499904393631 -115.27539320192615 81.654277742756562 1 0 0 0 0.70710678939079041 -0.70710677298230451 forward_v I I I I #
coedge $-1 $424 $425 $426 $427 reversed $173 $-1 #
coedge $-1 $279 $175 $428 $429 reversed $110 $-1 #
coedge $-1 $175 $278 $424 $430 reversed $110 $-1 #
coedge $-1 $426 $431 $175 $281 forward $432 $-1 #
edge $-1 $433 20.740301356352241 $434 29.298278879192466 $280 $435 forward 7 unknown #
loop $-1 $-1 $287 $176 #
plane-surface $-1 -6.2057995610450121 -36.897395244610834 3.2762816042107659 0 -0.70710678939079041 0.70710677298230451 1 0 0 forward_v I I I I #
loop $-1 $-1 $436 $112 #
coedge $-1 $285 $285 $286 $437 reversed $177 $-1 #
coedge $-1 $286 $286 $285 $437 forward $179 $-1 #
coedge $-1 $287 $287 $180 $288 forward $282 $-1 #
edge $-1 $438 -4.3962588187330858e-015 $438 6.283185307179596 $287 $439 forward 7 unknown #
loop $-1 $-1 $294 $181 #
plane-surface $-1 -6.2057995610450121 -36.897395244610834 3.2762816042107659 0 -0.70710678939079041 0.70710677298230451 1 0 0 forward_v I I I I #
loop $-1 $-1 $440 $115 #
coedge $-1 $292 $292 $293 $441 reversed $182 $-1 #
coedge $-1 $293 $293 $292 $441 forward $184 $-1 #
coedge $-1 $294 $294 $185 $295 forward $289 $-1 #
edge $-1 $442 -4.3962588187330858e-015 $442 6.283185307179596 $294 $443 forward 7 unknown #
face $-1 $444 $445 $62 $-1 $446 reversed single #
loop $-1 $-1 $447 $186 #
plane-surface $-1 14.341620506205814 -115.27539320192615 81.654277742756562 1 0 0 0 0.70710678939079041 -0.70710677298230451 forward_v I I I I #
coedge $-1 $448 $449 $450 $451 reversed $187 $-1 #
coedge $-1 $301 $189 $452 $453 reversed $119 $-1 #
coedge $-1 $189 $300 $448 $454 reversed $119 $-1 #
coedge $-1 $450 $455 $189 $303 forward $456 $-1 #
edge $-1 $457 20.740301356352241 $458 29.298278879192466 $302 $459 forward 7 unknown #
loop $-1 $-1 $309 $190 #
plane-surface $-1 21.185811384523902 -36.897395244610834 3.2762816042107659 0 -0.70710678939079041 0.70710677298230451 1 0 0 forward_v I I I I #
loop $-1 $-1 $460 $121 #
coedge $-1 $307 $307 $308 $461 reversed $191 $-1 #
coedge $-1 $308 $308 $307 $461 forward $193 $-1 #
coedge $-1 $309 $309 $194 $310 forward $304 $-1 #
edge $-1 $462 -4.3962588187330858e-015 $462 6.283185307179596 $309 $463 forward 7 unknown #
loop $-1 $-1 $316 $195 #
plane-surface $-1 21.185811384523902 -36.897395244610834 3.2762816042107659 0 -0.70710678939079041 0.70710677298230451 1 0 0 forward_v I I I I #
loop $-1 $-1 $464 $124 #
coedge $-1 $314 $314 $315 $465 reversed $196 $-1 #
coedge $-1 $315 $315 $314 $465 forward $198 $-1 #
coedge $-1 $316 $316 $199 $317 forward $311 $-1 #
edge $-1 $466 -4.3962588187330858e-015 $466 6.283185307179596 $316 $467 forward 7 unknown #
face $-1 $468 $469 $65 $-1 $470 forward single #
loop $-1 $-1 $471 $200 #
plane-surface $-1 0 -36.897395244610834 0 0 1 0 0 0 1 forward_v I I I I #
coedge $-1 $472 $473 $474 $475 reversed $201 $-1 #
coedge $-1 $476 $203 $477 $478 reversed $128 $-1 #
coedge $-1 $203 $476 $472 $479 forward $128 $-1 #
coedge $-1 $474 $480 $203 $325 forward $469 $-1 #
edge $-1 $481 -31.132902043364496 $482 -17.44452028672832 $324 $483 forward 7 unknown #
loop $-1 $-1 $331 $204 #
plane-surface $-1 48.577422330092816 -36.897395244610834 3.2762816042107659 0 -0.70710678939079041 0.70710677298230451 1 0 0 forward_v I I I I #
loop $-1 $-1 $484 $130 #
coedge $-1 $329 $329 $330 $485 reversed $205 $-1 #
coedge $-1 $330 $330 $329 $485 forward $207 $-1 #
coedge $-1 $331 $331 $208 $332 forward $326 $-1 #
edge $-1 $486 -4.3962588187330858e-015 $486 6.283185307179596 $331 $487 forward 7 unknown #
loop $-1 $-1 $338 $209 #
plane-surface $-1 48.577422330092816 -36.897395244610834 3.2762816042107659 0 -0.70710678939079041 0.70710677298230451 1 0 0 forward_v I I I I #
loop $-1 $-1 $488 $133 #
coedge $-1 $336 $336 $337 $489 reversed $210 $-1 #
coedge $-1 $337 $337 $336 $489 forward $212 $-1 #
coedge $-1 $338 $338 $213 $339 forward $333 $-1 #
edge $-1 $490 -4.3962588187330858e-015 $490 6.283185307179596 $338 $491 forward 7 unknown #
face $-1 $492 $493 $51 $-1 $494 reversed single #
loop $-1 $-1 $495 $214 #
plane-surface $-1 -55.421613208410903 0 0 1 0 0 0 0 -1 forward_v I I I I #
coedge $-1 $496 $351 $495 $497 forward $215 $-1 #
coedge $-1 $498 $217 $496 $499 forward $137 $-1 #
coedge $-1 $217 $498 $500 $501 forward $137 $-1 #
coedge $-1 $354 $353 $217 $347 reversed $355 $-1 #
edge $-1 $502 -36.897395244610834 $503 36.897395244610834 $346 $504 forward 7 unknown #
coedge $-1 $219 $218 $505 $506 forward $86 $-1 #
coedge $-1 $507 $508 $218 $350 reversed $493 $-1 #
edge $-1 $357 -55.421613208410903 $509 55.421613208410903 $349 $510 forward 7 unknown #
coedge $-1 $343 $511 $219 $352 reversed $215 $-1 #
edge $-1 $512 -55.421613208410903 $356 55.421613208410903 $351 $513 forward 7 unknown #
coedge $-1 $346 $220 $511 $514 forward $355 $-1 #
coedge $-1 $220 $346 $507 $515 reversed $355 $-1 #
loop $-1 $-1 $353 $492 #
vertex $-1 $221 $516 #
vertex $-1 $221 $517 #
straight-curve $-1 55.421613208410903 0 11.834259325639746 0 1 0 I I #
face $-1 $518 $519 $52 $-1 $520 reversed single #
loop $-1 $-1 $521 $222 #
plane-surface $-1 -62.911619120150348 0 -5.8838119049159552 0 0 1 1 0 0 forward_v I I I I #
coedge $-1 $522 $225 $523 $524 reversed $141 $-1 #
coedge $-1 $225 $522 $368 $525 reversed $141 $-1 #
edge $-1 $370 0.67041020913636773 $526 5.8838119049159552 $225 $527 forward 7 unknown #
coedge $-1 $227 $226 $521 $528 forward $89 $-1 #
coedge $-1 $529 $530 $226 $367 forward $531 $-1 #
edge $-1 $532 -5.8838119049159552 $371 -0.67041020913636773 $366 $533 forward 7 unknown #
coedge $-1 $534 $228 $363 $525 forward $223 $-1 #
coedge $-1 $228 $534 $529 $535 forward $223 $-1 #
vertex $-1 $364 $536 #
vertex $-1 $535 $537 #
straight-curve $-1 -55.421613208410903 0 -0.67041020913636773 0 -1 0 I I #
face $-1 $-1 $538 $53 $-1 $539 reversed single #
loop $-1 $-1 $236 $230 #
plane-surface $-1 0 0 11.834259325639746 0 0 1 1 0 0 forward_v I I I I #
coedge $-1 $540 $541 $542 $543 reversed $231 $-1 #
coedge $-1 $544 $233 $235 $383 forward $145 $-1 #
coedge $-1 $233 $544 $540 $545 forward $145 $-1 #
coedge $-1 $542 $236 $233 $380 forward $374 $-1 #
edge $-1 $386 -13.870010907345165 $546 6.2045952383239857 $379 $547 forward 7 unknown #
coedge $-1 $548 $549 $234 $382 forward $538 $-1 #
edge $-1 $550 -62.339663235475165 $385 -58.931745685510492 $381 $551 forward 7 unknown #
edge $-1 $386 67.363777814303745 $550 73.794790489221654 $235 $552 forward 7 unknown #
coedge $-1 $236 $542 $548 $553 forward $374 $-1 #
vertex $-1 $382 $554 #
vertex $-1 $237 $555 #
straight-curve $-1 -17.702718741855755 16.526912875108117 11.834259325639749 0 -1 0 I I #
coedge $-1 $388 $388 $-1 $556 reversed $240 $-1 #
edge $-1 $557 0 $557 6.2831853071796004 $241 $558 forward 7 unknown #
vertex $-1 $244 $559 #
ellipse-curve $-1 -11.967116985950284 34.17049123100869 10.13030055065742 0 0.52991927123019833 0.84804809178421925 1.5 0 0 1 I I #
coedge $-1 $392 $392 $-1 $560 reversed $247 $-1 #
edge $-1 $561 0 $561 6.2831853071796004 $248 $562 forward 7 unknown #
vertex $-1 $251 $563 #
ellipse-curve $-1 -3.3637143520920745 34.17049123100869 10.13030055065742 0 0.52991927123019833 0.84804809178421925 1.5 0 0 1 I I #
face $-1 $-1 $408 $56 $-1 $564 forward single #
loop $-1 $-1 $565 $252 #
plane-surface $-1 0 -36.897395244610834 0 0 1 0 0 0 1 forward_v I I I I #
coedge $-1 $566 $567 $568 $569 reversed $253 $-1 #
coedge $-1 $570 $255 $257 $406 forward $159 $-1 #
coedge $-1 $255 $570 $566 $571 forward $159 $-1 #
coedge $-1 $568 $258 $255 $403 forward $408 $-1 #
edge $-1 $410 9.9545143749888751 $572 23.642896131625051 $402 $573 forward 7 unknown #
coedge $-1 $574 $575 $256 $405 forward $397 $-1 #
edge $-1 $576 -37.550857267167515 $409 -28.992879545738536 $404 $577 forward 7 unknown #
edge $-1 $410 -12.10280801970821 $576 0 $257 $578 forward 7 unknown #
coedge $-1 $258 $568 $574 $579 forward $408 $-1 #
loop $-1 $-1 $568 $396 #
vertex $-1 $405 $580 #
vertex $-1 $259 $581 #
straight-curve $-1 -26.753219628295838 -57.637696600963075 11.834259325639749 0 1 0 I I #
coedge $-1 $412 $412 $-1 $582 reversed $262 $-1 #
edge $-1 $583 0 $583 6.2831853071796004 $263 $584 forward 7 unknown #
vertex $-1 $266 $585 #
ellipse-curve $-1 -36.530635168750251 -32.618406483190718 7.5552704649252567 0 -0.70710678939079041 0.70710677298230451 1 0 0 1 I I #
coedge $-1 $416 $416 $-1 $586 reversed $269 $-1 #
edge $-1 $587 0 $587 6.2831853071796004 $270 $588 forward 7 unknown #
vertex $-1 $273 $589 #
ellipse-curve $-1 -30.664185844477604 -32.618406483190718 7.5552704649252567 0 -0.70710678939079041 0.70710677298230451 1 0 0 1 I I #
face $-1 $-1 $432 $59 $-1 $590 forward single #
loop $-1 $-1 $591 $274 #
plane-surface $-1 0 -36.897395244610834 0 0 1 0 0 0 1 forward_v I I I I #
coedge $-1 $592 $593 $594 $595 reversed $275 $-1 #
coedge $-1 $596 $277 $279 $430 forward $173 $-1 #
coedge $-1 $277 $596 $592 $597 forward $173 $-1 #
coedge $-1 $594 $280 $277 $427 forward $432 $-1 #
edge $-1 $434 -3.7412910977955827 $598 9.9470906588405938 $426 $599 forward 7 unknown #
coedge $-1 $600 $601 $278 $429 forward $421 $-1 #
edge $-1 $602 -37.550857267167515 $433 -28.992879545738536 $428 $603 forward 7 unknown #
edge $-1 $434 -12.10280801970821 $602 0 $279 $604 forward 7 unknown #
coedge $-1 $280 $594 $600 $605 forward $432 $-1 #
loop $-1 $-1 $594 $420 #
vertex $-1 $429 $606 #
vertex $-1 $281 $607 #
straight-curve $-1 0.63839131727307663 -57.637696600963075 11.834259325639749 0 1 0 I I #
coedge $-1 $436 $436 $-1 $608 reversed $284 $-1 #
edge $-1 $609 0 $609 6.2831853071796004 $285 $610 forward 7 unknown #
vertex $-1 $288 $611 #
ellipse-curve $-1 -9.1390242231813374 -32.618406483190718 7.5552704649252567 0 -0.70710678939079041 0.70710677298230451 1 0 0 1 I I #
coedge $-1 $440 $440 $-1 $612 reversed $291 $-1 #
edge $-1 $613 0 $613 6.2831853071796004 $292 $614 forward 7 unknown #
vertex $-1 $295 $615 #
ellipse-curve $-1 -3.2725748989086867 -32.618406483190718 7.5552704649252567 0 -0.70710678939079041 0.70710677298230451 1 0 0 1 I I #
face $-1 $-1 $456 $62 $-1 $616 forward single #
loop $-1 $-1 $617 $296 #
plane-surface $-1 0 -36.897395244610834 0 0 1 0 0 0 1 forward_v I I I I #
coedge $-1 $618 $619 $620 $621 reversed $297 $-1 #
coedge $-1 $622 $299 $301 $454 forward $187 $-1 #
coedge $-1 $299 $622 $618 $623 forward $187 $-1 #
coedge $-1 $620 $302 $299 $451 forward $456 $-1 #
edge $-1 $458 -17.437096570580039 $624 -3.7487148139438631 $450 $625 forward 7 unknown #
coedge $-1 $626 $627 $300 $453 forward $445 $-1 #
edge $-1 $628 -37.550857267167515 $457 -28.992879545738536 $452 $629 forward 7 unknown #
edge $-1 $458 -12.10280801970821 $628 0 $301 $630 forward 7 unknown #
coedge $-1 $302 $620 $626 $631 forward $456 $-1 #
loop $-1 $-1 $620 $444 #
vertex $-1 $453 $632 #
vertex $-1 $303 $633 #
straight-curve $-1 28.03000226284199 -57.637696600963075 11.834259325639749 0 1 0 I I #
coedge $-1 $460 $460 $-1 $634 reversed $306 $-1 #
edge $-1 $635 0 $635 6.2831853071796004 $307 $636 forward 7 unknown #
vertex $-1 $310 $637 #
ellipse-curve $-1 18.252586722387576 -32.618406483190718 7.5552704649252567 0 -0.70710678939079041 0.70710677298230451 1 0 0 1 I I #
coedge $-1 $464 $464 $-1 $638 reversed $313 $-1 #
edge $-1 $639 0 $639 6.2831853071796004 $314 $640 forward 7 unknown #
vertex $-1 $317 $641 #
ellipse-curve $-1 24.119036046660227 -32.618406483190718 7.5552704649252567 0 -0.70710678939079041 0.70710677298230451 1 0 0 1 I I #
face $-1 $-1 $642 $65 $-1 $643 reversed single #
loop $-1 $-1 $474 $318 #
plane-surface $-1 0 0 11.834259325639746 0 0 1 1 0 0 forward_v I I I I #
coedge $-1 $644 $645 $473 $646 forward $319 $-1 #
coedge $-1 $473 $321 $323 $479 reversed $201 $-1 #
coedge $-1 $321 $472 $471 $646 reversed $201 $-1 #
coedge $-1 $647 $324 $321 $475 forward $469 $-1 #
edge $-1 $482 -29.298278879192466 $648 -20.740301356352241 $474 $649 forward 7 unknown #
coedge $-1 $323 $322 $644 $650 reversed $128 $-1 #
coedge $-1 $651 $652 $322 $478 forward $642 $-1 #
edge $-1 $653 -11.886858558287908 $481 0.21594946142029856 $477 $654 forward 7 unknown #
edge $-1 $655 0 $482 12.10280801970821 $472 $656 forward 7 unknown #
coedge $-1 $324 $647 $651 $657 forward $469 $-1 #
vertex $-1 $478 $658 #
vertex $-1 $325 $659 #
straight-curve $-1 24.288711165046408 -28.339417721770609 11.834259325639746 -1 0 0 I I #
coedge $-1 $484 $484 $-1 $660 reversed $328 $-1 #
edge $-1 $661 0 $661 6.2831853071796004 $329 $662 forward 7 unknown #
vertex $-1 $332 $663 #
ellipse-curve $-1 45.64419766795649 -32.618406483190718 7.5552704649252567 0 -0.70710678939079041 0.70710677298230451 1 0 0 1 I I #
coedge $-1 $488 $488 $-1 $664 reversed $335 $-1 #
edge $-1 $665 0 $665 6.2831853071796004 $336 $666 forward 7 unknown #
vertex $-1 $339 $667 #
ellipse-curve $-1 51.510646992229141 -32.618406483190718 7.5552704649252567 0 -0.70710678939079041 0.70710677298230451 1 0 0 1 I I #
face $-1 $-1 $355 $51 $-1 $668 reversed single #
loop $-1 $-1 $507 $340 #
plane-surface $-1 0 36.897395244610834 0 0 -1 0 0 0 -1 forward_v I I I I #
coedge $-1 $505 $669 $343 $497 reversed $341 $-1 #
coedge $-1 $511 $343 $344 $499 reversed $215 $-1 #
edge $-1 $512 -11.834259325639746 $670 11.834259325639746 $495 $671 forward 7 unknown #
coedge $-1 $345 $344 $669 $672 forward $137 $-1 #
edge $-1 $503 -55.421613208410903 $670 55.421613208410903 $496 $673 forward 7 unknown #
coedge $-1 $508 $507 $345 $501 reversed $493 $-1 #
edge $-1 $674 -55.421613208410903 $502 55.421613208410903 $500 $675 forward 7 unknown #
vertex $-1 $347 $676 #
vertex $-1 $514 $677 #
straight-curve $-1 55.421613208410903 0 -11.834259325639746 0 -1 0 I I #
coedge $-1 $678 $495 $348 $506 reversed $341 $-1 #
edge $-1 $509 -36.897395244610834 $512 36.897395244610834 $505 $679 forward 7 unknown #
coedge $-1 $500 $349 $354 $515 forward $493 $-1 #
coedge $-1 $349 $500 $678 $680 reversed $493 $-1 #
vertex $-1 $350 $681 #
straight-curve $-1 0 36.897395244610834 11.834259325639746 -1 0 0 I I #
coedge $-1 $351 $496 $353 $514 reversed $215 $-1 #
vertex $-1 $506 $682 #
straight-curve $-1 0 -36.897395244610834 11.834259325639746 1 0 0 I I #
edge $-1 $356 -11.834259325639746 $503 11.834259325639746 $353 $683 forward 7 unknown #
edge $-1 $357 -11.834259325639746 $502 11.834259325639746 $354 $684 forward 7 unknown #
point $-1 55.421613208410903 -36.897395244610834 11.834259325639746 #
point $-1 55.421613208410903 36.897395244610834 11.834259325639746 #
face $-1 $-1 $531 $52 $-1 $685 reversed single #
loop $-1 $-1 $686 $359 #
plane-surface $-1 -70.401625031889793 0 -3.2771110570261612 1 0 0 0 0 -1 forward_v I I I I #
coedge $-1 $687 $523 $365 $528 reversed $360 $-1 #
coedge $-1 $363 $362 $686 $688 reversed $141 $-1 #
coedge $-1 $521 $689 $362 $524 forward $360 $-1 #
edge $-1 $690 -7.4900059117394449 $526 7.4900059117394449 $362 $691 forward 7 unknown #
edge $-1 $370 -7.4900059117394449 $692 7.4900059117394449 $363 $693 forward 7 unknown #
vertex $-1 $364 $694 #
straight-curve $-1 -55.421613208410903 36.897395244610834 0 0 0 -1 I I #
edge $-1 $532 -36.897395244610834 $526 36.897395244610834 $521 $695 forward 7 unknown #
coedge $-1 $696 $366 $369 $535 reversed $531 $-1 #
coedge $-1 $366 $696 $687 $697 reversed $531 $-1 #
loop $-1 $-1 $366 $518 #
vertex $-1 $367 $698 #
straight-curve $-1 -55.421613208410903 -36.897395244610834 0 0 0 1 I I #
coedge $-1 $369 $368 $699 $700 forward $223 $-1 #
edge $-1 $701 -7.4900059117394449 $371 7.4900059117394449 $529 $702 forward 7 unknown #
point $-1 -55.421613208410903 36.897395244610834 -0.67041020913636773 #
point $-1 -55.421613208410903 -36.897395244610834 -0.67041020913636773 #
loop $-1 $-1 $381 $373 #
plane-surface $-1 0 36.897395244610834 0 0 -1 0 0 0 -1 forward_v I I I I #
coedge $-1 $541 $376 $378 $545 reversed $231 $-1 #
coedge $-1 $376 $540 $703 $704 reversed $231 $-1 #
coedge $-1 $384 $379 $376 $543 forward $374 $-1 #
edge $-1 $546 14.916674342298442 $705 20.370482369502717 $542 $706 forward 7 unknown #
coedge $-1 $378 $377 $549 $707 reversed $145 $-1 #
edge $-1 $708 -73.794790489221654 $546 -67.363777814303745 $540 $709 forward 7 unknown #
vertex $-1 $380 $710 #
straight-curve $-1 -3.8327078345105896 31.443587217406574 11.834259325639742 1 0 0 I I #
coedge $-1 $703 $381 $384 $553 reversed $538 $-1 #
coedge $-1 $381 $703 $544 $707 forward $538 $-1 #
vertex $-1 $382 $711 #
straight-curve $-1 -17.702718741855755 36.897395244610834 70.766005011150241 0 0 1 I I #
straight-curve $-1 -17.702718741855755 -25.684136013389846 47.531623372308587 0 0.84804809178421925 -0.52991927123019833 I I #
edge $-1 $705 -2.3718874038133961 $385 17.702718741855755 $548 $712 forward 7 unknown #
point $-1 -17.702718741855755 36.897395244610834 11.834259325639746 #
point $-1 -17.702718741855755 31.443587217406559 11.834259325639749 #
edge $-1 $713 1 $713 0 $388 $-1 forward 7 unknown #
vertex $-1 $389 $714 #
ellipse-curve $-1 -11.967116985950284 32.834016618904187 7.991494120987257 0 0.52991927123019833 0.84804809178421925 1.5 0 0 1 I I #
point $-1 -10.467116985950284 34.170491231008683 10.130300550657413 #
edge $-1 $715 1 $715 0 $392 $-1 forward 7 unknown #
vertex $-1 $393 $716 #
ellipse-curve $-1 -3.3637143520920745 32.834016618904187 7.991494120987257 0 0.52991927123019833 0.84804809178421925 1.5 0 0 1 I I #
point $-1 -1.8637143520920745 34.170491231008683 10.130300550657413 #
plane-surface $-1 0 0 11.834259325639746 0 0 1 1 0 0 forward_v I I I I #
coedge $-1 $575 $574 $567 $717 forward $397 $-1 #
coedge $-1 $567 $399 $401 $571 reversed $253 $-1 #
coedge $-1 $399 $566 $565 $717 reversed $253 $-1 #
coedge $-1 $407 $402 $399 $569 forward $408 $-1 #
edge $-1 $572 -29.298278879192466 $718 -20.740301356352241 $568 $719 forward 7 unknown #
coedge $-1 $401 $400 $575 $720 reversed $159 $-1 #
edge $-1 $721 0 $572 12.10280801970821 $566 $722 forward 7 unknown #
vertex $-1 $403 $723 #
straight-curve $-1 -16.798705253306963 -28.339417721770609 11.834259325639746 -1 0 0 I I #
coedge $-1 $565 $404 $407 $579 reversed $397 $-1 #
coedge $-1 $404 $565 $570 $720 forward $397 $-1 #
vertex $-1 $405 $724 #
straight-curve $-1 -26.753219628295838 -36.897395244610834 40.827138871378281 0 0 1 I I #
straight-curve $-1 -26.753219628295838 -36.897395244610834 3.2762816042107659 0 -0.70710677298230451 -0.70710678939079041 I I #
edge $-1 $718 -40.441601384932014 $409 -26.753219628295838 $574 $725 forward 7 unknown #
point $-1 -26.753219628295838 -36.897395244610834 11.834259325639746 #
point $-1 -26.753219628295838 -28.339417721770609 11.834259325639746 #
edge $-1 $726 1 $726 0 $412 $-1 forward 7 unknown #
vertex $-1 $413 $727 #
ellipse-curve $-1 -36.530635168750251 -30.116460804453613 5.0533248442460552 0 -0.70710678939079041 0.70710677298230451 1 0 0 1 I I #
point $-1 -35.530635168750251 -32.618406483190725 7.5552704649252576 #
edge $-1 $728 1 $728 0 $416 $-1 forward 7 unknown #
vertex $-1 $417 $729 #
ellipse-curve $-1 -30.664185844477604 -30.116460804453613 5.0533248442460552 0 -0.70710678939079041 0.70710677298230451 1 0 0 1 I I #
point $-1 -29.664185844477604 -32.618406483190725 7.5552704649252576 #
plane-surface $-1 0 0 11.834259325639746 0 0 1 1 0 0 forward_v I I I I #
coedge $-1 $601 $600 $593 $730 forward $421 $-1 #
coedge $-1 $593 $423 $425 $597 reversed $275 $-1 #
coedge $-1 $423 $592 $591 $730 reversed $275 $-1 #
coedge $-1 $431 $426 $423 $595 forward $432 $-1 #
edge $-1 $598 -29.298278879192466 $731 -20.740301356352241 $594 $732 forward 7 unknown #
coedge $-1 $425 $424 $601 $733 reversed $173 $-1 #
edge $-1 $734 0 $598 12.10280801970821 $592 $735 forward 7 unknown #
vertex $-1 $427 $736 #
straight-curve $-1 -3.102899780522506 -28.339417721770609 11.834259325639746 -1 0 0 I I #
coedge $-1 $591 $428 $431 $605 reversed $421 $-1 #
coedge $-1 $428 $591 $596 $733 forward $421 $-1 #
vertex $-1 $429 $737 #
straight-curve $-1 0.63839131727307663 -36.897395244610834 40.827138871378281 0 0 1 I I #
straight-curve $-1 0.63839131727307663 -36.897395244610834 3.2762816042107659 0 -0.70710677298230451 -0.70710678939079041 I I #
edge $-1 $731 -13.0499904393631 $433 0.63839131727307663 $600 $738 forward 7 unknown #
point $-1 0.63839131727307663 -36.897395244610834 11.834259325639746 #
point $-1 0.63839131727307663 -28.339417721770609 11.834259325639746 #
edge $-1 $739 1 $739 0 $436 $-1 forward 7 unknown #
vertex $-1 $437 $740 #
ellipse-curve $-1 -9.1390242231813374 -30.116460804453613 5.0533248442460552 0 -0.70710678939079041 0.70710677298230451 1 0 0 1 I I #
point $-1 -8.1390242231813374 -32.618406483190725 7.5552704649252576 #
edge $-1 $741 1 $741 0 $440 $-1 forward 7 unknown #
vertex $-1 $441 $742 #
ellipse-curve $-1 -3.2725748989086867 -30.116460804453613 5.0533248442460552 0 -0.70710678939079041 0.70710677298230451 1 0 0 1 I I #
point $-1 -2.2725748989086867 -32.618406483190725 7.5552704649252576 #
plane-surface $-1 0 0 11.834259325639746 0 0 1 1 0 0 forward_v I I I I #
coedge $-1 $627 $626 $619 $743 forward $445 $-1 #
coedge $-1 $619 $447 $449 $623 reversed $297 $-1 #
coedge $-1 $447 $618 $617 $743 reversed $297 $-1 #
coedge $-1 $455 $450 $447 $621 forward $456 $-1 #
edge $-1 $624 -29.298278879192466 $744 -20.740301356352241 $620 $745 forward 7 unknown #
coedge $-1 $449 $448 $627 $746 reversed $187 $-1 #
edge $-1 $747 0 $624 12.10280801970821 $618 $748 forward 7 unknown #
vertex $-1 $451 $749 #
straight-curve $-1 10.592905692261951 -28.339417721770609 11.834259325639746 -1 0 0 I I #
coedge $-1 $617 $452 $455 $631 reversed $445 $-1 #
coedge $-1 $452 $617 $622 $746 forward $445 $-1 #
vertex $-1 $453 $750 #
straight-curve $-1 28.03000226284199 -36.897395244610834 40.827138871378281 0 0 1 I I #
straight-curve $-1 28.03000226284199 -36.897395244610834 3.2762816042107659 0 -0.70710677298230451 -0.70710678939079041 I I #
edge $-1 $744 14.341620506205814 $457 28.03000226284199 $626 $751 forward 7 unknown #
point $-1 28.03000226284199 -36.897395244610834 11.834259325639746 #
point $-1 28.03000226284199 -28.339417721770609 11.834259325639746 #
edge $-1 $752 1 $752 0 $460 $-1 forward 7 unknown #
vertex $-1 $461 $753 #
ellipse-curve $-1 18.252586722387576 -30.116460804453613 5.0533248442460552 0 -0.70710678939079041 0.70710677298230451 1 0 0 1 I I #
point $-1 19.252586722387576 -32.618406483190725 7.5552704649252576 #
edge $-1 $754 1 $754 0 $464 $-1 forward 7 unknown #
vertex $-1 $465 $755 #
ellipse-curve $-1 24.119036046660227 -30.116460804453613 5.0533248442460552 0 -0.70710678939079041 0.70710677298230451 1 0 0 1 I I #
point $-1 25.119036046660227 -32.618406483190725 7.5552704649252576 #
loop $-1 $-1 $477 $468 #
plane-surface $-1 55.421613208410903 0 0 -1 0 0 0 0 1 forward_v I I I I #
coedge $-1 $756 $471 $476 $650 forward $319 $-1 #
coedge $-1 $471 $756 $647 $757 reversed $319 $-1 #
edge $-1 $648 28.992879545738536 $655 37.550857267167515 $471 $758 forward 7 unknown #
coedge $-1 $480 $474 $645 $757 forward $469 $-1 #
vertex $-1 $757 $759 #
straight-curve $-1 41.733231451774728 -57.637696600963075 11.834259325639749 0 -1 0 I I #
edge $-1 $655 17.44452028672832 $653 31.132902043364496 $644 $760 forward 7 unknown #
coedge $-1 $652 $477 $480 $657 reversed $642 $-1 #
coedge $-1 $477 $651 $756 $761 forward $642 $-1 #
vertex $-1 $650 $762 #
straight-curve $-1 55.421613208410903 -28.492117048562783 11.681559995304168 0 0.70710677298230462 0.70710678939079052 I I #
vertex $-1 $650 $763 #
straight-curve $-1 41.733231451774728 -36.897395244610834 3.2762816042107659 0 0.70710677298230451 0.70710678939079041 I I #
edge $-1 $764 -36.897395244610834 $481 -28.339417721770609 $651 $765 forward 7 unknown #
point $-1 55.421613208410903 -28.339417721770609 11.834259325639746 #
point $-1 41.733231451774728 -28.339417721770609 11.834259325639746 #
edge $-1 $766 1 $766 0 $484 $-1 forward 7 unknown #
vertex $-1 $485 $767 #
ellipse-curve $-1 45.64419766795649 -30.116460804453613 5.0533248442460552 0 -0.70710678939079041 0.70710677298230451 1 0 0 1 I I #
point $-1 46.64419766795649 -32.618406483190725 7.5552704649252576 #
edge $-1 $768 1 $768 0 $488 $-1 forward 7 unknown #
vertex $-1 $489 $769 #
ellipse-curve $-1 51.510646992229141 -30.116460804453613 5.0533248442460552 0 -0.70710678939079041 0.70710677298230451 1 0 0 1 I I #
point $-1 52.510646992229141 -32.618406483190725 7.5552704649252576 #
plane-surface $-1 55.421613208410903 0 0 -1 0 0 0 0 1 forward_v I I I I #
coedge $-1 $495 $678 $498 $672 reversed $341 $-1 #
vertex $-1 $672 $770 #
straight-curve $-1 -55.421613208410903 -36.897395244610834 0 0 0 -1 I I #
edge $-1 $670 -36.897395244610834 $674 36.897395244610834 $669 $771 forward 7 unknown #
straight-curve $-1 0 -36.897395244610834 -11.834259325639746 -1 0 0 I I #
vertex $-1 $501 $772 #
straight-curve $-1 0 36.897395244610834 -11.834259325639746 1 0 0 I I #
point $-1 55.421613208410903 36.897395244610834 -11.834259325639746 #
point $-1 55.421613208410903 -36.897395244610834 -11.834259325639746 #
coedge $-1 $669 $505 $508 $680 forward $341 $-1 #
straight-curve $-1 -55.421613208410903 0 11.834259325639746 0 -1 0 I I #
edge $-1 $509 -11.834259325639746 $674 11.834259325639746 $508 $773 forward 7 unknown #
point $-1 -55.421613208410903 36.897395244610834 11.834259325639746 #
point $-1 -55.421613208410903 -36.897395244610834 11.834259325639746 #
straight-curve $-1 55.421613208410903 -36.897395244610834 0 0 0 -1 I I #
straight-curve $-1 55.421613208410903 36.897395244610834 0 0 0 -1 I I #
plane-surface $-1 0 -36.897395244610834 0 0 1 0 0 0 1 forward_v I I I I #
coedge $-1 $774 $699 $522 $688 forward $519 $-1 #
coedge $-1 $689 $521 $530 $697 forward $360 $-1 #
edge $-1 $692 -2.6067008478897935 $690 2.6067008478897939 $522 $775 forward 7 unknown #
coedge $-1 $523 $687 $774 $776 forward $360 $-1 #
vertex $-1 $524 $777 #
straight-curve $-1 -62.911619120150348 36.897395244610834 -5.8838119049159552 1 0 0 I I #
vertex $-1 $525 $778 #
straight-curve $-1 -62.911619120150348 36.897395244610834 -0.67041020913636773 -1 0 0 I I #
point $-1 -55.421613208410903 36.897395244610834 -5.8838119049159552 #
straight-curve $-1 -55.421613208410903 0 -5.8838119049159552 0 1 0 I I #
coedge $-1 $530 $529 $779 $780 forward $531 $-1 #
edge $-1 $532 -7.4900059117394449 $781 7.4900059117394449 $530 $782 forward 7 unknown #
point $-1 -55.421613208410903 -36.897395244610834 -5.8838119049159552 #
coedge $-1 $686 $779 $534 $700 reversed $519 $-1 #
edge $-1 $692 -36.897395244610834 $701 36.897395244610834 $699 $783 forward 7 unknown #
vertex $-1 $700 $784 #
straight-curve $-1 -62.911619120150348 -36.897395244610834 -0.67041020913636773 1 0 0 I I #
coedge $-1 $549 $548 $541 $704 forward $538 $-1 #
edge $-1 $705 58.931745685510492 $708 62.339663235475165 $703 $785 forward 7 unknown #
vertex $-1 $553 $786 #
straight-curve $-1 2.3718874038133961 16.526912875108117 11.834259325639749 0 1 0 I I #
edge $-1 $708 -6.2045952383239857 $550 13.870010907345165 $549 $787 forward 7 unknown #
vertex $-1 $707 $788 #
straight-curve $-1 2.3718874038133961 -25.684136013389846 47.531623372308587 0 -0.84804809178421925 0.52991927123019833 I I #
point $-1 2.3718874038133961 31.443587217406559 11.834259325639749 #
point $-1 -17.702718741855755 36.897395244610827 8.4263417756750769 #
straight-curve $-1 0 36.897395244610834 11.834259325639746 -1 0 0 I I #
vertex $-1 $556 $789 #
point $-1 -10.467116985950284 32.834016618904187 7.991494120987257 #
vertex $-1 $560 $790 #
point $-1 -1.8637143520920745 32.834016618904187 7.991494120987257 #
edge $-1 $718 28.992879545738536 $721 37.550857267167515 $565 $791 forward 7 unknown #
vertex $-1 $579 $792 #
straight-curve $-1 -40.441601384932014 -57.637696600963075 11.834259325639749 0 -1 0 I I #
edge $-1 $721 -23.642896131625051 $576 -9.9545143749888751 $575 $793 forward 7 unknown #
vertex $-1 $720 $794 #
straight-curve $-1 -40.441601384932014 -36.897395244610834 3.2762816042107659 0 0.70710677298230451 0.70710678939079041 I I #
point $-1 -40.441601384932014 -28.339417721770609 11.834259325639746 #
point $-1 -26.753219628295838 -36.897395244610834 3.2762816042107659 #
straight-curve $-1 0 -36.897395244610834 11.834259325639746 1 0 0 I I #
vertex $-1 $582 $795 #
point $-1 -35.530635168750251 -30.116460804453613 5.0533248442460552 #
vertex $-1 $586 $796 #
point $-1 -29.664185844477604 -30.116460804453613 5.0533248442460552 #
edge $-1 $731 28.992879545738536 $734 37.550857267167515 $591 $797 forward 7 unknown #
vertex $-1 $605 $798 #
straight-curve $-1 -13.0499904393631 -57.637696600963075 11.834259325639749 0 -1 0 I I #
edge $-1 $734 -9.9470906588405938 $602 3.7412910977955827 $601 $799 forward 7 unknown #
vertex $-1 $733 $800 #
straight-curve $-1 -13.0499904393631 -36.897395244610834 3.2762816042107659 0 0.70710677298230451 0.70710678939079041 I I #
point $-1 -13.0499904393631 -28.339417721770609 11.834259325639746 #
point $-1 0.63839131727307663 -36.897395244610834 3.2762816042107659 #
straight-curve $-1 0 -36.897395244610834 11.834259325639746 1 0 0 I I #
vertex $-1 $608 $801 #
point $-1 -8.1390242231813374 -30.116460804453613 5.0533248442460552 #
vertex $-1 $612 $802 #
point $-1 -2.2725748989086867 -30.116460804453613 5.0533248442460552 #
edge $-1 $744 28.992879545738536 $747 37.550857267167515 $617 $803 forward 7 unknown #
vertex $-1 $631 $804 #
straight-curve $-1 14.341620506205814 -57.637696600963075 11.834259325639749 0 -1 0 I I #
edge $-1 $747 3.7487148139438631 $628 17.437096570580039 $627 $805 forward 7 unknown #
vertex $-1 $746 $806 #
straight-curve $-1 14.341620506205814 -36.897395244610834 3.2762816042107659 0 0.70710677298230451 0.70710678939079041 I I #
point $-1 14.341620506205814 -28.339417721770609 11.834259325639746 #
point $-1 28.03000226284199 -36.897395244610834 3.2762816042107659 #
straight-curve $-1 0 -36.897395244610834 11.834259325639746 1 0 0 I I #
vertex $-1 $634 $807 #
point $-1 19.252586722387576 -30.116460804453613 5.0533248442460552 #
vertex $-1 $638 $808 #
point $-1 25.119036046660227 -30.116460804453613 5.0533248442460552 #
coedge $-1 $645 $644 $652 $761 reversed $319 $-1 #
edge $-1 $648 41.733231451774728 $764 55.421613208410903 $645 $809 forward 7 unknown #
straight-curve $-1 41.733231451774728 -36.897395244610834 40.827138871378281 0 0 -1 I I #
point $-1 41.733231451774728 -36.897395244610834 11.834259325639746 #
straight-curve $-1 24.288711165046408 -36.897395244610834 3.2762816042107659 1 0 0 I I #
edge $-1 $764 -11.834259325639746 $653 -3.2762816042107659 $652 $810 forward 7 unknown #
point $-1 55.421613208410903 -36.897395244610834 3.2762816042107659 #
point $-1 41.733231451774728 -36.897395244610834 3.2762816042107659 #
vertex $-1 $657 $811 #
straight-curve $-1 55.421613208410903 0 11.834259325639746 0 1 0 I I #
vertex $-1 $660 $812 #
point $-1 46.64419766795649 -30.116460804453613 5.0533248442460552 #
vertex $-1 $664 $813 #
point $-1 52.510646992229141 -30.116460804453613 5.0533248442460552 #
point $-1 -55.421613208410903 -36.897395244610834 -11.834259325639746 #
straight-curve $-1 -55.421613208410903 0 -11.834259325639746 0 1 0 I I #
point $-1 -55.421613208410903 36.897395244610834 -11.834259325639746 #
straight-curve $-1 -55.421613208410903 36.897395244610834 0 0 0 -1 I I #
coedge $-1 $779 $686 $689 $776 reversed $519 $-1 #
straight-curve $-1 -70.401625031889793 36.897395244610834 -3.2771110570261612 0 0 -1 I I #
edge $-1 $781 -36.897395244610834 $690 36.897395244610834 $774 $814 forward 7 unknown #
point $-1 -70.401625031889793 36.897395244610834 -5.8838119049159552 #
point $-1 -70.401625031889793 36.897395244610834 -0.67041020913636773 #
coedge $-1 $699 $774 $696 $780 reversed $519 $-1 #
edge $-1 $701 -2.6067008478897935 $781 2.6067008478897939 $779 $815 forward 7 unknown #
vertex $-1 $776 $816 #
straight-curve $-1 -62.911619120150348 -36.897395244610834 -5.8838119049159552 -1 0 0 I I #
straight-curve $-1 -70.401625031889793 0 -0.67041020913636773 0 -1 0 I I #
point $-1 -70.401625031889793 -36.897395244610834 -0.67041020913636773 #
straight-curve $-1 2.3718874038133961 36.897395244610834 70.766005011150241 0 0 -1 I I #
point $-1 2.3718874038133961 36.897395244610834 11.834259325639746 #
straight-curve $-1 -3.8327078345105896 36.897395244610834 8.4263417756750734 -1 0 0 I I #
point $-1 2.3718874038133961 36.897395244610827 8.4263417756750769 #
point $-1 -11.967116985950284 32.039137712058888 6.7194219833109283 #
point $-1 -3.3637143520920745 32.039137712058888 6.7194219833109283 #
straight-curve $-1 -40.441601384932014 -36.897395244610834 40.827138871378281 0 0 -1 I I #
point $-1 -40.441601384932014 -36.897395244610834 11.834259325639746 #
straight-curve $-1 -16.798705253306963 -36.897395244610834 3.2762816042107659 1 0 0 I I #
point $-1 -40.441601384932014 -36.897395244610834 3.2762816042107659 #
point $-1 -36.530635168750251 -29.409354015062821 4.3462180712637499 #
point $-1 -30.664185844477604 -29.409354015062821 4.3462180712637499 #
straight-curve $-1 -13.0499904393631 -36.897395244610834 40.827138871378281 0 0 -1 I I #
point $-1 -13.0499904393631 -36.897395244610834 11.834259325639746 #
straight-curve $-1 -3.102899780522506 -36.897395244610834 3.2762816042107659 1 0 0 I I #
point $-1 -13.0499904393631 -36.897395244610834 3.2762816042107659 #
point $-1 -9.1390242231813374 -29.409354015062821 4.3462180712637499 #
point $-1 -3.2725748989086867 -29.409354015062821 4.3462180712637499 #
straight-curve $-1 14.341620506205814 -36.897395244610834 40.827138871378281 0 0 -1 I I #
point $-1 14.341620506205814 -36.897395244610834 11.834259325639746 #
straight-curve $-1 10.592905692261951 -36.897395244610834 3.2762816042107659 1 0 0 I I #
point $-1 14.341620506205814 -36.897395244610834 3.2762816042107659 #
point $-1 18.252586722387576 -29.409354015062821 4.3462180712637499 #
point $-1 24.119036046660227 -29.409354015062821 4.3462180712637499 #
straight-curve $-1 0 -36.897395244610834 11.834259325639746 1 0 0 I I #
straight-curve $-1 55.421613208410903 -36.897395244610834 0 0 0 -1 I I #
point $-1 55.421613208410903 -36.897395244610834 11.834259325639746 #
point $-1 45.64419766795649 -29.409354015062821 4.3462180712637499 #
point $-1 51.510646992229141 -29.409354015062821 4.3462180712637499 #
straight-curve $-1 -70.401625031889793 0 -5.8838119049159552 0 1 0 I I #
straight-curve $-1 -70.401625031889793 -36.897395244610834 -3.2771110570261612 0 0 -1 I I #
point $-1 -70.401625031889793 -36.897395244610834 -5.8838119049159552 #
End-of-ACIS-data 