500 0 6 0           
7 Unknown 11 ACIS 5.0 NT 24 Fri Mar 26 02:27:39 1999 
-1 9.9999999999999995e-007 1e-010 
body $-1 $6 $-1 $7 #
body $-1 $8 $-1 $9 #
body $-1 $10 $-1 $11 #
body $-1 $12 $-1 $13 #
body $-1 $14 $-1 $15 #
body $-1 $16 $-1 $17 #
lump $-1 $-1 $18 $0 #
transform $-1 1 0 0 0 1 0 0 0 1 61.65837580492569 26.654964597062087 11.507424991195411 1 rotate no_reflect no_shear #
lump $-1 $-1 $19 $1 #
transform $-1 1 0 0 0 1 0 0 0 1 61.65837580492569 26.654964597062087 11.507424991195411 1 rotate no_reflect no_shear #
lump $-1 $-1 $20 $2 #
transform $-1 1 0 0 0 1 0 0 0 1 61.65837580492569 26.654964597062087 11.507424991195411 1 rotate no_reflect no_shear #
lump $-1 $-1 $21 $3 #
transform $-1 1 0 0 0 1 0 0 0 1 61.65837580492569 26.654964597062087 11.507424991195411 1 rotate no_reflect no_shear #
lump $-1 $-1 $22 $4 #
transform $-1 1 0 0 0 1 0 0 0 1 61.65837580492569 26.654964597062087 11.507424991195411 1 rotate no_reflect no_shear #
lump $-1 $-1 $23 $5 #
transform $-1 1 0 0 0 1 0 0 0 1 61.65837580492569 26.654964597062087 11.507424991195411 1 rotate no_reflect no_shear #
shell $-1 $-1 $-1 $24 $-1 $6 #
shell $-1 $-1 $-1 $25 $-1 $8 #
shell $-1 $-1 $-1 $26 $-1 $10 #
shell $-1 $-1 $-1 $27 $-1 $12 #
shell $-1 $-1 $-1 $28 $-1 $14 #
shell $-1 $-1 $-1 $29 $-1 $16 #
face $-1 $30 $31 $18 $-1 $32 forward single #
face $-1 $33 $34 $19 $-1 $35 reversed single #
face $-1 $36 $37 $20 $-1 $38 reversed single #
face $-1 $39 $40 $21 $-1 $41 forward single #
face $-1 $42 $43 $22 $-1 $44 forward single #
face $-1 $45 $46 $23 $-1 $47 forward single #
face $-1 $48 $49 $18 $-1 $50 reversed single #
loop $-1 $-1 $51 $24 #
plane-surface $-1 0 0 11.507424991195411 0 0 1 1 0 0 forward_v I I I I #
face $-1 $52 $53 $19 $-1 $54 reversed single #
loop $-1 $-1 $55 $25 #
plane-surface $-1 -56.095882457661858 -9.394334443831923 0 0 1 0 0 0 1 forward_v I I I I #
face $-1 $56 $57 $20 $-1 $58 reversed single #
loop $-1 $-1 $59 $26 #
plane-surface $-1 28.420273575216733 56.010095083852136 133.43840082754298 1 0 0 0 -0.5877852598018023 -0.80901698891910034 forward_v I I I I #
face $-1 $60 $61 $21 $-1 $62 forward single #
loop $-1 $63 $64 $27 #
cone-surface $-1 33.146317861011021 18.760014865009197 4.7415326133481299 0 -0.5877852598018023 -0.80901698891910034 2 0 0 1 I I 0 1 2 forward I I I I #
face $-1 $65 $66 $22 $-1 $67 forward single #
loop $-1 $68 $69 $28 #
cone-surface $-1 40.235384289702445 18.760014865009197 4.7415326133481299 0 -0.5877852598018023 -0.80901698891910034 2 0 0 1 I I 0 1 2 forward I I I I #
face $-1 $70 $71 $23 $-1 $72 forward single #
loop $-1 $73 $74 $29 #
cone-surface $-1 47.324450718393869 18.760014865009197 4.7415326133481299 0 -0.5877852598018023 -0.80901698891910034 2 0 0 1 I I 0 1 2 forward I I I I #
face $-1 $75 $76 $18 $-1 $77 reversed single #
loop $-1 $-1 $78 $30 #
plane-surface $-1 0 0 -11.507424991195411 0 0 1 1 0 0 forward_v I I I I #
coedge $-1 $79 $80 $81 $82 forward $31 $-1 #
face $-1 $83 $84 $19 $-1 $85 reversed single #
loop $-1 $-1 $86 $33 #
plane-surface $-1 -56.095882457661858 -6.3879419642143986 0 0 -1 0 0 0 -1 forward_v I I I I #
coedge $-1 $87 $88 $89 $90 reversed $34 $-1 #
face $-1 $91 $92 $20 $-1 $93 reversed single #
loop $-1 $-1 $94 $36 #
plane-surface $-1 40.235384289702445 -16.473673799058687 33.673053756856376 0 0.5877852598018023 0.80901698891910034 1 0 0 forward_v I I I I #
coedge $-1 $95 $96 $97 $98 reversed $37 $-1 #
face $-1 $-1 $99 $21 $-1 $100 forward single #
loop $-1 $101 $102 $39 #
cone-surface $-1 33.146317861011021 16.58741402450212 1.7512041544432293 0 -0.5877852598018023 -0.80901698891910034 1 0 0 1 I I -0.70710678118654768 0.70710678118654735 1 forward I I I I #
loop $-1 $-1 $103 $27 #
coedge $-1 $64 $64 $104 $105 reversed $40 $-1 #
face $-1 $-1 $106 $22 $-1 $107 forward single #
loop $-1 $108 $109 $42 #
cone-surface $-1 40.235384289702445 16.58741402450212 1.7512041544432293 0 -0.5877852598018023 -0.80901698891910034 1 0 0 1 I I -0.70710678118654768 0.70710678118654735 1 forward I I I I #
loop $-1 $-1 $110 $28 #
coedge $-1 $69 $69 $111 $112 reversed $43 $-1 #
face $-1 $-1 $113 $23 $-1 $114 forward single #
loop $-1 $115 $116 $45 #
cone-surface $-1 47.324450718393869 16.58741402450212 1.7512041544432293 0 -0.5877852598018023 -0.80901698891910034 1 0 0 1 I I -0.70710678118654768 0.70710678118654735 1 forward I I I I #
loop $-1 $-1 $117 $29 #
coedge $-1 $74 $74 $118 $119 reversed $46 $-1 #
face $-1 $120 $121 $18 $-1 $122 reversed single #
loop $-1 $-1 $123 $48 #
plane-surface $-1 0 -26.654964597062087 0 0 1 0 0 0 1 forward_v I I I I #
coedge $-1 $124 $125 $126 $127 forward $49 $-1 #
coedge $-1 $128 $51 $129 $130 forward $31 $-1 #
coedge $-1 $51 $128 $131 $132 forward $31 $-1 #
coedge $-1 $133 $134 $51 $82 reversed $135 $-1 #
edge $-1 $136 -26.654964597062087 $137 26.654964597062087 $81 $138 forward 7 unknown #
face $-1 $139 $140 $19 $-1 $141 reversed single #
loop $-1 $-1 $142 $52 #
plane-surface $-1 -50.533389110398026 -7.8911382040231608 0 -1 0 0 0 0 1 forward_v I I I I #
coedge $-1 $143 $144 $145 $146 forward $53 $-1 #
coedge $-1 $147 $55 $148 $149 reversed $34 $-1 #
coedge $-1 $55 $147 $150 $151 reversed $34 $-1 #
coedge $-1 $152 $153 $55 $90 forward $154 $-1 #
edge $-1 $155 -11.507424991195411 $156 11.507424991195411 $89 $157 forward 7 unknown #
face $-1 $158 $159 $20 $-1 $160 reversed single #
loop $-1 $-1 $161 $56 #
plane-surface $-1 52.050495004188157 56.010095083852136 133.43840082754298 -1 0 0 0 0.5877852598018023 0.80901698891910034 forward_v I I I I #
coedge $-1 $162 $163 $164 $165 reversed $57 $-1 #
coedge $-1 $96 $59 $166 $167 reversed $37 $-1 #
coedge $-1 $59 $95 $162 $168 reversed $37 $-1 #
coedge $-1 $164 $169 $59 $98 forward $170 $-1 #
edge $-1 $171 1.3500829448639813 $172 13.970351247559282 $97 $173 forward 7 unknown #
loop $-1 $-1 $104 $60 #
plane-surface $-1 40.235384289702445 -16.473673799058687 33.673053756856376 0 0.5877852598018023 0.80901698891910034 1 0 0 forward_v I I I I #
loop $-1 $-1 $174 $39 #
coedge $-1 $102 $102 $103 $175 reversed $61 $-1 #
coedge $-1 $103 $103 $102 $175 forward $63 $-1 #
coedge $-1 $104 $104 $64 $105 forward $99 $-1 #
edge $-1 $176 -1.2330025714588919e-016 $176 6.2831853071796004 $104 $177 forward 7 unknown #
loop $-1 $-1 $111 $65 #
plane-surface $-1 40.235384289702445 -16.473673799058687 33.673053756856376 0 0.5877852598018023 0.80901698891910034 1 0 0 forward_v I I I I #
loop $-1 $-1 $178 $42 #
coedge $-1 $109 $109 $110 $179 reversed $66 $-1 #
coedge $-1 $110 $110 $109 $179 forward $68 $-1 #
coedge $-1 $111 $111 $69 $112 forward $106 $-1 #
edge $-1 $180 -1.2330025714588919e-016 $180 6.2831853071796004 $111 $181 forward 7 unknown #
loop $-1 $-1 $118 $70 #
plane-surface $-1 40.235384289702445 -16.473673799058687 33.673053756856376 0 0.5877852598018023 0.80901698891910034 1 0 0 forward_v I I I I #
loop $-1 $-1 $182 $45 #
coedge $-1 $116 $116 $117 $183 reversed $71 $-1 #
coedge $-1 $117 $117 $116 $183 forward $73 $-1 #
coedge $-1 $118 $118 $74 $119 forward $113 $-1 #
edge $-1 $184 -1.2330025714588919e-016 $184 6.2831853071796004 $118 $185 forward 7 unknown #
face $-1 $186 $187 $18 $-1 $188 reversed single #
loop $-1 $-1 $189 $75 #
plane-surface $-1 -61.65837580492569 0 0 1 0 0 0 0 -1 forward_v I I I I #
coedge $-1 $190 $131 $191 $192 forward $76 $-1 #
coedge $-1 $193 $78 $190 $194 forward $49 $-1 #
coedge $-1 $78 $193 $195 $196 forward $49 $-1 #
coedge $-1 $134 $133 $78 $127 reversed $135 $-1 #
edge $-1 $197 -26.654964597062087 $198 26.654964597062087 $126 $199 forward 7 unknown #
coedge $-1 $80 $79 $200 $201 forward $31 $-1 #
coedge $-1 $202 $203 $79 $130 reversed $187 $-1 #
edge $-1 $137 -61.65837580492569 $204 61.65837580492569 $129 $205 forward 7 unknown #
coedge $-1 $123 $206 $80 $132 reversed $76 $-1 #
edge $-1 $207 -61.65837580492569 $136 61.65837580492569 $131 $208 forward 7 unknown #
coedge $-1 $126 $81 $206 $209 forward $135 $-1 #
coedge $-1 $81 $126 $202 $210 reversed $135 $-1 #
loop $-1 $-1 $133 $186 #
vertex $-1 $82 $211 #
vertex $-1 $82 $212 #
straight-curve $-1 61.65837580492569 0 11.507424991195411 0 1 0 I I #
face $-1 $213 $214 $19 $-1 $215 forward single #
loop $-1 $-1 $216 $83 #
plane-surface $-1 0 0 -11.507424991195411 0 0 1 1 0 0 forward_v I I I I #
coedge $-1 $217 $218 $147 $219 forward $84 $-1 #
coedge $-1 $220 $86 $216 $221 reversed $53 $-1 #
coedge $-1 $86 $220 $222 $223 reversed $53 $-1 #
coedge $-1 $218 $217 $86 $146 reversed $84 $-1 #
edge $-1 $224 -11.507424991195411 $225 11.507424991195411 $145 $226 forward 7 unknown #
coedge $-1 $88 $87 $142 $219 reversed $34 $-1 #
coedge $-1 $227 $228 $87 $149 forward $140 $-1 #
edge $-1 $229 22.485447881567097 $155 33.610434576094761 $148 $230 forward 7 unknown #
coedge $-1 $231 $232 $88 $151 forward $214 $-1 #
edge $-1 $156 -33.610434576094761 $233 -22.485447881567097 $150 $234 forward 7 unknown #
coedge $-1 $235 $89 $232 $236 reversed $154 $-1 #
coedge $-1 $89 $235 $227 $237 reversed $154 $-1 #
loop $-1 $-1 $235 $213 #
vertex $-1 $237 $238 #
vertex $-1 $90 $239 #
straight-curve $-1 -61.65837580492569 -9.394334443831923 0 0 0 1 I I #
face $-1 $-1 $170 $20 $-1 $240 forward single #
loop $-1 $-1 $241 $91 #
plane-surface $-1 0 26.654964597062087 0 0 -1 0 0 0 -1 forward_v I I I I #
coedge $-1 $242 $243 $244 $245 reversed $92 $-1 #
coedge $-1 $246 $94 $96 $168 forward $57 $-1 #
coedge $-1 $94 $246 $242 $247 forward $57 $-1 #
coedge $-1 $244 $97 $94 $165 forward $170 $-1 #
edge $-1 $172 8.3025814303655103 $248 31.932802859336935 $164 $249 forward 7 unknown #
coedge $-1 $250 $251 $95 $167 forward $159 $-1 #
edge $-1 $252 -64.380937238299083 $171 -55.211775422576082 $166 $253 forward 7 unknown #
edge $-1 $172 37.710419572506936 $252 53.309929194124166 $96 $254 forward 7 unknown #
coedge $-1 $97 $244 $250 $255 forward $170 $-1 #
loop $-1 $-1 $244 $158 #
vertex $-1 $167 $256 #
vertex $-1 $98 $257 #
straight-curve $-1 28.420273575216733 28.005047541926068 11.507424991195407 0 -1 0 I I #
coedge $-1 $174 $174 $-1 $258 reversed $101 $-1 #
edge $-1 $259 0 $259 6.2831853071796004 $102 $260 forward 7 unknown #
vertex $-1 $105 $261 #
ellipse-curve $-1 33.146317861011021 20.34483044571445 6.9228440833339047 0 0.5877852598018023 0.80901698891910034 2 0 0 1 I I #
coedge $-1 $178 $178 $-1 $262 reversed $108 $-1 #
edge $-1 $263 0 $263 6.2831853071796004 $109 $264 forward 7 unknown #
vertex $-1 $112 $265 #
ellipse-curve $-1 40.235384289702445 20.34483044571445 6.9228440833339047 0 0.5877852598018023 0.80901698891910034 2 0 0 1 I I #
coedge $-1 $182 $182 $-1 $266 reversed $115 $-1 #
edge $-1 $267 0 $267 6.2831853071796004 $116 $268 forward 7 unknown #
vertex $-1 $119 $269 #
ellipse-curve $-1 47.324450718393869 20.34483044571445 6.9228440833339047 0 0.5877852598018023 0.80901698891910034 2 0 0 1 I I #
face $-1 $-1 $135 $18 $-1 $270 reversed single #
loop $-1 $-1 $202 $120 #
plane-surface $-1 0 26.654964597062087 0 0 -1 0 0 0 -1 forward_v I I I I #
coedge $-1 $271 $200 $203 $272 forward $121 $-1 #
coedge $-1 $206 $123 $124 $194 reversed $76 $-1 #
coedge $-1 $200 $271 $123 $192 reversed $121 $-1 #
edge $-1 $207 -11.507424991195411 $273 11.507424991195411 $191 $274 forward 7 unknown #
coedge $-1 $125 $124 $271 $275 forward $49 $-1 #
edge $-1 $198 -61.65837580492569 $273 61.65837580492569 $190 $276 forward 7 unknown #
coedge $-1 $203 $202 $125 $196 reversed $187 $-1 #
edge $-1 $277 -61.65837580492569 $197 61.65837580492569 $195 $278 forward 7 unknown #
vertex $-1 $127 $279 #
vertex $-1 $209 $280 #
straight-curve $-1 61.65837580492569 0 -11.507424991195411 0 -1 0 I I #
coedge $-1 $189 $191 $128 $201 reversed $121 $-1 #
edge $-1 $204 -26.654964597062087 $207 26.654964597062087 $200 $281 forward 7 unknown #
coedge $-1 $195 $129 $134 $210 forward $187 $-1 #
coedge $-1 $129 $195 $189 $272 reversed $187 $-1 #
vertex $-1 $130 $282 #
straight-curve $-1 0 26.654964597062087 11.507424991195411 -1 0 0 I I #
coedge $-1 $131 $190 $133 $209 reversed $76 $-1 #
vertex $-1 $201 $283 #
straight-curve $-1 0 -26.654964597062087 11.507424991195411 1 0 0 I I #
edge $-1 $136 -11.507424991195411 $198 11.507424991195411 $133 $284 forward 7 unknown #
edge $-1 $137 -11.507424991195411 $197 11.507424991195411 $134 $285 forward 7 unknown #
point $-1 61.65837580492569 -26.654964597062087 11.507424991195411 #
point $-1 61.65837580492569 26.654964597062087 11.507424991195411 #
face $-1 $-1 $154 $19 $-1 $286 reversed single #
loop $-1 $-1 $222 $139 #
plane-surface $-1 0 0 11.507424991195411 0 0 1 1 0 0 forward_v I I I I #
coedge $-1 $228 $227 $143 $221 forward $140 $-1 #
coedge $-1 $145 $142 $228 $287 reversed $84 $-1 #
coedge $-1 $142 $145 $231 $288 reversed $84 $-1 #
edge $-1 $233 -11.507424991195411 $229 11.507424991195411 $142 $289 forward 7 unknown #
coedge $-1 $144 $143 $235 $290 reversed $53 $-1 #
edge $-1 $291 -33.610434576094761 $225 -22.485447881567097 $216 $292 forward 7 unknown #
coedge $-1 $232 $231 $144 $223 forward $214 $-1 #
edge $-1 $224 22.485447881567097 $293 33.610434576094761 $222 $294 forward 7 unknown #
vertex $-1 $223 $295 #
vertex $-1 $221 $296 #
straight-curve $-1 -50.533389110398026 -6.3879419642143986 0 0 0 -1 I I #
coedge $-1 $216 $148 $153 $237 forward $140 $-1 #
coedge $-1 $148 $216 $217 $287 forward $140 $-1 #
vertex $-1 $149 $297 #
straight-curve $-1 -28.047941228830929 -9.394334443831923 -11.507424991195411 -1 0 0 I I #
coedge $-1 $222 $150 $218 $288 forward $214 $-1 #
coedge $-1 $150 $222 $152 $236 forward $214 $-1 #
vertex $-1 $151 $298 #
straight-curve $-1 -28.047941228830929 -9.394334443831923 11.507424991195411 1 0 0 I I #
coedge $-1 $153 $152 $220 $290 forward $154 $-1 #
edge $-1 $293 6.3879419642143986 $156 9.394334443831923 $152 $299 forward 7 unknown #
edge $-1 $155 -9.394334443831923 $291 -6.3879419642143986 $153 $300 forward 7 unknown #
point $-1 -61.65837580492569 -9.394334443831923 -11.507424991195411 #
point $-1 -61.65837580492569 -9.394334443831923 11.507424991195411 #
plane-surface $-1 0 0 11.507424991195411 0 0 1 1 0 0 forward_v I I I I #
coedge $-1 $251 $250 $243 $301 forward $159 $-1 #
coedge $-1 $243 $161 $163 $247 reversed $92 $-1 #
coedge $-1 $161 $242 $241 $301 reversed $92 $-1 #
coedge $-1 $169 $164 $161 $245 forward $170 $-1 #
edge $-1 $248 -13.970351247559282 $302 -1.3500829448639813 $244 $303 forward 7 unknown #
coedge $-1 $163 $162 $251 $304 reversed $57 $-1 #
edge $-1 $305 -53.309929194124166 $248 -37.710419572506936 $242 $306 forward 7 unknown #
vertex $-1 $165 $307 #
straight-curve $-1 20.117692144851222 14.034696294366787 11.507424991195411 1 0 0 I I #
coedge $-1 $241 $166 $169 $255 reversed $159 $-1 #
coedge $-1 $166 $241 $246 $304 forward $159 $-1 #
vertex $-1 $167 $308 #
straight-curve $-1 28.420273575216733 26.654964597062087 66.719200413771489 0 0 1 I I #
straight-curve $-1 28.420273575216733 -16.473673799058687 33.673053756856376 0 0.80901698891910034 -0.5877852598018023 I I #
edge $-1 $302 -52.050495004188157 $171 -28.420273575216733 $250 $309 forward 7 unknown #
point $-1 28.420273575216733 26.654964597062087 11.507424991195411 #
point $-1 28.420273575216733 14.034696294366785 11.507424991195414 #
edge $-1 $310 1 $310 0 $174 $-1 forward 7 unknown #
vertex $-1 $175 $311 #
ellipse-curve $-1 33.146317861011021 17.175199284303922 2.5602211433623294 0 0.5877852598018023 0.80901698891910034 2 0 0 1 I I #
point $-1 35.146317861011021 20.344830445714468 6.9228440833339295 #
edge $-1 $312 1 $312 0 $178 $-1 forward 7 unknown #
vertex $-1 $179 $313 #
ellipse-curve $-1 40.235384289702445 17.175199284303922 2.5602211433623294 0 0.5877852598018023 0.80901698891910034 2 0 0 1 I I #
point $-1 42.235384289702445 20.344830445714468 6.9228440833339295 #
edge $-1 $314 1 $314 0 $182 $-1 forward 7 unknown #
vertex $-1 $183 $315 #
ellipse-curve $-1 47.324450718393869 17.175199284303922 2.5602211433623294 0 0.5877852598018023 0.80901698891910034 2 0 0 1 I I #
point $-1 49.324450718393869 20.344830445714468 6.9228440833339295 #
plane-surface $-1 61.65837580492569 0 0 -1 0 0 0 0 1 forward_v I I I I #
coedge $-1 $191 $189 $193 $275 reversed $121 $-1 #
edge $-1 $204 -11.507424991195411 $277 11.507424991195411 $203 $316 forward 7 unknown #
vertex $-1 $275 $317 #
straight-curve $-1 -61.65837580492569 -26.654964597062087 0 0 0 -1 I I #
edge $-1 $273 -26.654964597062087 $277 26.654964597062087 $271 $318 forward 7 unknown #
straight-curve $-1 0 -26.654964597062087 -11.507424991195411 -1 0 0 I I #
vertex $-1 $196 $319 #
straight-curve $-1 0 26.654964597062087 -11.507424991195411 1 0 0 I I #
point $-1 61.65837580492569 26.654964597062087 -11.507424991195411 #
point $-1 61.65837580492569 -26.654964597062087 -11.507424991195411 #
straight-curve $-1 -61.65837580492569 0 11.507424991195411 0 -1 0 I I #
point $-1 -61.65837580492569 26.654964597062087 11.507424991195411 #
point $-1 -61.65837580492569 -26.654964597062087 11.507424991195411 #
straight-curve $-1 61.65837580492569 -26.654964597062087 0 0 0 -1 I I #
straight-curve $-1 61.65837580492569 26.654964597062087 0 0 0 -1 I I #
plane-surface $-1 -61.65837580492569 0 0 1 0 0 0 0 -1 forward_v I I I I #
edge $-1 $225 2.4423728622028182 $229 5.4487653418203426 $228 $320 forward 7 unknown #
edge $-1 $233 -5.4487653418203426 $224 -2.4423728622028182 $231 $321 forward 7 unknown #
straight-curve $-1 -50.533389110398026 -9.394334443831923 0 0 0 -1 I I #
edge $-1 $293 -11.507424991195411 $291 11.507424991195411 $235 $322 forward 7 unknown #
vertex $-1 $290 $323 #
straight-curve $-1 -28.047941228830929 -6.3879419642143986 -11.507424991195411 1 0 0 I I #
vertex $-1 $236 $324 #
straight-curve $-1 -28.047941228830929 -6.3879419642143986 11.507424991195411 -1 0 0 I I #
point $-1 -50.533389110398026 -6.3879419642143986 11.507424991195411 #
point $-1 -50.533389110398026 -6.3879419642143986 -11.507424991195411 #
point $-1 -50.533389110398026 -9.394334443831923 -11.507424991195411 #
point $-1 -50.533389110398026 -9.394334443831923 11.507424991195411 #
straight-curve $-1 -61.65837580492569 0 11.507424991195411 0 -1 0 I I #
straight-curve $-1 -61.65837580492569 0 -11.507424991195411 0 1 0 I I #
edge $-1 $302 55.211775422576082 $305 64.380937238299083 $241 $325 forward 7 unknown #
vertex $-1 $255 $326 #
straight-curve $-1 52.050495004188157 28.005047541926068 11.507424991195407 0 1 0 I I #
edge $-1 $305 -31.932802859336935 $252 -8.3025814303655103 $251 $327 forward 7 unknown #
vertex $-1 $304 $328 #
straight-curve $-1 52.050495004188157 -16.473673799058687 33.673053756856376 0 -0.80901698891910034 0.5877852598018023 I I #
point $-1 52.050495004188157 14.034696294366785 11.507424991195414 #
point $-1 28.420273575216733 26.65496459706209 2.338263175472413 #
straight-curve $-1 0 26.654964597062087 11.507424991195411 -1 0 0 I I #
vertex $-1 $258 $329 #
point $-1 35.146317861011021 17.175199284303922 2.5602211433623294 #
vertex $-1 $262 $330 #
point $-1 42.235384289702445 17.175199284303922 2.5602211433623294 #
vertex $-1 $266 $331 #
point $-1 49.324450718393869 17.175199284303922 2.5602211433623294 #
straight-curve $-1 -61.65837580492569 26.654964597062087 0 0 0 -1 I I #
point $-1 -61.65837580492569 -26.654964597062087 -11.507424991195411 #
straight-curve $-1 -61.65837580492569 0 -11.507424991195411 0 1 0 I I #
point $-1 -61.65837580492569 26.654964597062087 -11.507424991195411 #
straight-curve $-1 -50.533389110398026 -3.9455691020115804 -11.507424991195411 0 -1 0 I I #
straight-curve $-1 -50.533389110398026 -3.9455691020115804 11.507424991195411 0 1 0 I I #
straight-curve $-1 -61.65837580492569 -6.3879419642143986 0 0 0 -1 I I #
point $-1 -61.65837580492569 -6.3879419642143986 -11.507424991195411 #
point $-1 -61.65837580492569 -6.3879419642143986 11.507424991195411 #
straight-curve $-1 52.050495004188157 26.654964597062087 66.719200413771489 0 0 -1 I I #
point $-1 52.050495004188157 26.654964597062087 11.507424991195411 #
straight-curve $-1 20.117692144851222 26.65496459706209 2.3382631754724166 -1 0 0 I I #
point $-1 52.050495004188157 26.65496459706209 2.338263175472413 #
point $-1 33.146317861011021 15.999628764700319 0.94218716552412929 #
point $-1 40.235384289702445 15.999628764700319 0.94218716552412929 #
point $-1 47.324450718393869 15.999628764700319 0.94218716552412929 #
End-of-ACIS-data 