500 0 11 0           
7 Unknown 11 ACIS 5.0 NT 24 Thu Mar 25 17:55:36 1999 
-1 9.9999999999999995e-007 1e-010 
body $-1 $11 $-1 $12 #
body $-1 $13 $-1 $14 #
body $-1 $15 $-1 $16 #
body $-1 $17 $-1 $18 #
body $-1 $19 $-1 $20 #
body $-1 $21 $-1 $22 #
body $-1 $23 $-1 $24 #
body $-1 $25 $-1 $26 #
body $-1 $27 $-1 $28 #
body $-1 $29 $-1 $30 #
body $-1 $31 $-1 $32 #
lump $-1 $-1 $33 $0 #
transform $-1 1 0 0 0 1 0 0 0 1 71.766106143375964 29.872721076734148 14.681730850060795 1 rotate no_reflect no_shear #
lump $-1 $-1 $34 $1 #
transform $-1 1 0 0 0 1 0 0 0 1 71.766106143375964 29.872721076734148 14.681730850060795 1 rotate no_reflect no_shear #
lump $-1 $-1 $35 $2 #
transform $-1 1 0 0 0 1 0 0 0 1 71.766106143375964 29.872721076734148 14.681730850060795 1 rotate no_reflect no_shear #
lump $-1 $-1 $36 $3 #
transform $-1 1 0 0 0 1 0 0 0 1 71.766106143375964 29.872721076734148 14.681730850060795 1 rotate no_reflect no_shear #
lump $-1 $-1 $37 $4 #
transform $-1 1 0 0 0 1 0 0 0 1 71.766106143375964 29.872721076734148 14.681730850060795 1 rotate no_reflect no_shear #
lump $-1 $-1 $38 $5 #
transform $-1 1 0 0 0 1 0 0 0 1 71.766106143375964 29.872721076734148 14.681730850060795 1 rotate no_reflect no_shear #
lump $-1 $-1 $39 $6 #
transform $-1 1 0 0 0 1 0 0 0 1 71.766106143375964 29.872721076734148 14.681730850060795 1 rotate no_reflect no_shear #
lump $-1 $-1 $40 $7 #
transform $-1 1 0 0 0 1 0 0 0 1 71.766106143375964 29.872721076734148 14.681730850060795 1 rotate no_reflect no_shear #
lump $-1 $-1 $41 $8 #
transform $-1 1 0 0 0 1 0 0 0 1 71.766106143375964 29.872721076734148 14.681730850060795 1 rotate no_reflect no_shear #
lump $-1 $-1 $42 $9 #
transform $-1 1 0 0 0 1 0 0 0 1 71.766106143375964 29.872721076734148 14.681730850060795 1 rotate no_reflect no_shear #
lump $-1 $-1 $43 $10 #
transform $-1 1 0 0 0 1 0 0 0 1 71.766106143375964 29.872721076734148 14.681730850060795 1 rotate no_reflect no_shear #
shell $-1 $-1 $-1 $44 $-1 $11 #
shell $-1 $-1 $-1 $45 $-1 $13 #
shell $-1 $-1 $-1 $46 $-1 $15 #
shell $-1 $-1 $-1 $47 $-1 $17 #
shell $-1 $-1 $-1 $48 $-1 $19 #
shell $-1 $-1 $-1 $49 $-1 $21 #
shell $-1 $-1 $-1 $50 $-1 $23 #
shell $-1 $-1 $-1 $51 $-1 $25 #
shell $-1 $-1 $-1 $52 $-1 $27 #
shell $-1 $-1 $-1 $53 $-1 $29 #
shell $-1 $-1 $-1 $54 $-1 $31 #
face $-1 $55 $56 $33 $-1 $57 forward single #
face $-1 $58 $59 $34 $-1 $60 reversed single #
face $-1 $61 $62 $35 $-1 $63 reversed single #
face $-1 $64 $65 $36 $-1 $66 forward single #
face $-1 $67 $68 $37 $-1 $69 forward single #
face $-1 $70 $71 $38 $-1 $72 reversed single #
face $-1 $73 $74 $39 $-1 $75 forward single #
face $-1 $76 $77 $40 $-1 $78 forward single #
face $-1 $79 $80 $41 $-1 $81 reversed single #
face $-1 $82 $83 $42 $-1 $84 forward single #
face $-1 $85 $86 $43 $-1 $87 forward single #
face $-1 $88 $89 $33 $-1 $90 reversed single #
loop $-1 $-1 $91 $44 #
plane-surface $-1 0 0 14.681730850060795 0 0 1 1 0 0 forward_v I I I I #
face $-1 $92 $93 $34 $-1 $94 reversed single #
loop $-1 $-1 $95 $45 #
plane-surface $-1 -68.069170413197227 -12.638303801455439 0 0 -1 0 0 0 -1 forward_v I I I I #
face $-1 $96 $97 $35 $-1 $98 reversed single #
loop $-1 $-1 $99 $46 #
plane-surface $-1 71.766108498522215 4.5645310410629722 212.34855398767499 0 -1 0 -0.70710678939079041 0 -0.70710677298230451 forward_v I I I I #
face $-1 $100 $101 $36 $-1 $102 forward single #
loop $-1 $103 $104 $47 #
cone-surface $-1 68.276492332133898 -1.0668236802058715 11.192116996382051 -0.70710678939079041 0 -0.70710677298230451 0.70710677298230451 0 -0.70710678939079041 1 I I 0 1 1 forward I I I I #
face $-1 $105 $106 $37 $-1 $107 forward single #
loop $-1 $108 $109 $48 #
cone-surface $-1 68.276492332133898 2.3119891525554372 11.192116996382051 -0.70710678939079041 0 -0.70710677298230451 0.70710677298230451 0 -0.70710678939079041 1 I I 0 1 1 forward I I I I #
face $-1 $110 $111 $38 $-1 $112 reversed single #
loop $-1 $-1 $113 $49 #
plane-surface $-1 71.766108498522215 20.55378284399211 212.34855398767499 0 -1 0 -0.70710678939079041 0 -0.70710677298230451 forward_v I I I I #
face $-1 $114 $115 $39 $-1 $116 forward single #
loop $-1 $117 $118 $50 #
cone-surface $-1 68.276492332133898 14.922428122723264 11.192116996382051 -0.70710678939079041 0 -0.70710677298230451 0.70710677298230451 0 -0.70710678939079041 1 I I 0 1 1 forward I I I I #
face $-1 $119 $120 $40 $-1 $121 forward single #
loop $-1 $122 $123 $51 #
cone-surface $-1 68.276492332133898 18.301240955484577 11.192116996382051 -0.70710678939079041 0 -0.70710677298230451 0.70710677298230451 0 -0.70710678939079041 1 I I 0 1 1 forward I I I I #
face $-1 $124 $125 $41 $-1 $126 reversed single #
loop $-1 $-1 $127 $52 #
plane-surface $-1 -147.82659147642966 2.4989968135321767 132.8770292672429 0 1 0 -0.52991927123019833 0 0.84804809178421925 forward_v I I I I #
face $-1 $128 $129 $42 $-1 $130 forward single #
loop $-1 $131 $132 $53 #
cone-surface $-1 -67.9301356192383 5.7570958746036318 11.295780535044232 0.52991927123019833 0 -0.84804809178421925 0.84804809178421925 0 0.52991927123019833 1 I I 0 1 1 forward I I I I #
face $-1 $133 $134 $43 $-1 $135 forward single #
loop $-1 $136 $137 $54 #
cone-surface $-1 -67.9301356192383 10.644244466210811 11.295780535044232 0.52991927123019833 0 -0.84804809178421925 0.84804809178421925 0 0.52991927123019833 1 I I 0 1 1 forward I I I I #
face $-1 $138 $139 $33 $-1 $140 reversed single #
loop $-1 $-1 $141 $55 #
plane-surface $-1 0 0 -14.681730850060795 0 0 1 1 0 0 forward_v I I I I #
coedge $-1 $142 $143 $144 $145 forward $56 $-1 #
face $-1 $146 $147 $34 $-1 $148 forward single #
loop $-1 $-1 $149 $58 #
plane-surface $-1 -64.37223468301849 -21.255512439094794 0 -1 0 0 0 0 1 forward_v I I I I #
coedge $-1 $150 $151 $152 $153 forward $59 $-1 #
face $-1 $154 $155 $35 $-1 $156 reversed single #
loop $-1 $-1 $157 $61 #
plane-surface $-1 -29.726493305720297 0.6225827361747811 110.85595453857876 0.70710678939079041 0 0.70710677298230451 0.70710677298230451 0 -0.70710678939079041 forward_v I I I I #
coedge $-1 $158 $159 $160 $161 reversed $62 $-1 #
face $-1 $-1 $162 $36 $-1 $163 forward single #
loop $-1 $164 $165 $64 #
cone-surface $-1 67.092514122351929 -1.0668236802058715 10.008138814074421 -0.70710678939079041 0 -0.70710677298230451 0.35355338649115226 0 -0.35355339469539521 1 I I -0.70710678118654746 0.70710678118654746 0.5 forward I I I I #
loop $-1 $-1 $166 $47 #
coedge $-1 $104 $104 $167 $168 reversed $65 $-1 #
face $-1 $-1 $169 $37 $-1 $170 forward single #
loop $-1 $171 $172 $67 #
cone-surface $-1 67.092514122351929 2.3119891525554372 10.008138814074421 -0.70710678939079041 0 -0.70710677298230451 0.35355338649115226 0 -0.35355339469539521 1 I I -0.70710678118654746 0.70710678118654746 0.5 forward I I I I #
loop $-1 $-1 $173 $48 #
coedge $-1 $109 $109 $174 $175 reversed $68 $-1 #
face $-1 $176 $177 $38 $-1 $178 reversed single #
loop $-1 $-1 $179 $70 #
plane-surface $-1 -29.726493305720297 16.611834539103921 110.85595453857876 0.70710678939079041 0 0.70710677298230451 0.70710677298230451 0 -0.70710678939079041 forward_v I I I I #
coedge $-1 $180 $181 $182 $183 reversed $71 $-1 #
face $-1 $-1 $184 $39 $-1 $185 forward single #
loop $-1 $186 $187 $73 #
cone-surface $-1 67.092514122351929 14.922428122723264 10.008138814074421 -0.70710678939079041 0 -0.70710677298230451 0.35355338649115226 0 -0.35355339469539521 1 I I -0.70710678118654746 0.70710678118654746 0.5 forward I I I I #
loop $-1 $-1 $188 $50 #
coedge $-1 $118 $118 $189 $190 reversed $74 $-1 #
face $-1 $-1 $191 $40 $-1 $192 forward single #
loop $-1 $193 $194 $76 #
cone-surface $-1 67.092514122351929 18.301240955484577 10.008138814074421 -0.70710678939079041 0 -0.70710677298230451 0.35355338649115226 0 -0.35355339469539521 1 I I -0.70710678118654746 0.70710678118654746 0.5 forward I I I I #
loop $-1 $-1 $195 $51 #
coedge $-1 $123 $123 $196 $197 reversed $77 $-1 #
face $-1 $198 $199 $41 $-1 $200 reversed single #
loop $-1 $-1 $201 $79 #
plane-surface $-1 -71.76610614337595 8.2006701704072178 11.154810527895464 -0.52991927123019833 0 0.84804809178421925 0.84804809178421925 0 0.52991927123019833 forward_v I I I I #
coedge $-1 $202 $203 $204 $205 reversed $80 $-1 #
face $-1 $-1 $206 $42 $-1 $207 forward single #
loop $-1 $208 $209 $82 #
cone-surface $-1 -66.651331594041579 5.7570958746036318 9.2492663352182021 0.52991927123019833 0 -0.84804809178421925 0.42402404589210962 0 0.26495963561509916 1 I I -0.70710678118654746 0.70710678118654746 0.5 forward I I I I #
loop $-1 $-1 $210 $53 #
coedge $-1 $132 $132 $211 $212 reversed $83 $-1 #
face $-1 $-1 $213 $43 $-1 $214 forward single #
loop $-1 $215 $216 $85 #
cone-surface $-1 -66.651331594041579 10.644244466210811 9.2492663352182021 0.52991927123019833 0 -0.84804809178421925 0.42402404589210962 0 0.26495963561509916 1 I I -0.70710678118654746 0.70710678118654746 0.5 forward I I I I #
loop $-1 $-1 $217 $54 #
coedge $-1 $137 $137 $218 $219 reversed $86 $-1 #
face $-1 $220 $221 $33 $-1 $222 reversed single #
loop $-1 $-1 $223 $88 #
plane-surface $-1 0 -29.872721076734148 0 0 1 0 0 0 1 forward_v I I I I #
coedge $-1 $224 $225 $226 $227 forward $89 $-1 #
coedge $-1 $228 $91 $229 $230 forward $56 $-1 #
coedge $-1 $91 $228 $231 $232 forward $56 $-1 #
coedge $-1 $233 $234 $91 $145 reversed $235 $-1 #
edge $-1 $236 -29.872721076734148 $237 29.872721076734148 $144 $238 forward 7 unknown #
face $-1 $239 $240 $34 $-1 $241 reversed single #
loop $-1 $-1 $242 $92 #
plane-surface $-1 0 0 14.681730850060795 0 0 1 1 0 0 forward_v I I I I #
coedge $-1 $243 $244 $245 $246 reversed $93 $-1 #
coedge $-1 $247 $95 $248 $249 reversed $59 $-1 #
coedge $-1 $95 $247 $250 $251 reversed $59 $-1 #
coedge $-1 $244 $243 $95 $153 reversed $93 $-1 #
edge $-1 $252 -14.681730850060795 $253 14.681730850060795 $152 $254 forward 7 unknown #
face $-1 $255 $256 $35 $-1 $257 reversed single #
loop $-1 $-1 $258 $96 #
plane-surface $-1 71.766108498522215 -3.31936556871341 212.34855398767499 0 1 0 0.70710678939079041 0 0.70710677298230451 forward_v I I I I #
coedge $-1 $259 $260 $261 $262 reversed $97 $-1 #
coedge $-1 $159 $99 $263 $264 reversed $62 $-1 #
coedge $-1 $99 $158 $259 $265 reversed $62 $-1 #
coedge $-1 $261 $266 $99 $161 forward $267 $-1 #
edge $-1 $268 -35.883051894114857 $269 -30.564673901803801 $160 $270 forward 7 unknown #
loop $-1 $-1 $167 $100 #
plane-surface $-1 -29.726493305720297 0.6225827361747811 110.85595453857876 0.70710678939079041 0 0.70710677298230451 0.70710677298230451 0 -0.70710678939079041 forward_v I I I I #
loop $-1 $-1 $271 $64 #
coedge $-1 $165 $165 $166 $272 reversed $101 $-1 #
coedge $-1 $166 $166 $165 $272 forward $103 $-1 #
coedge $-1 $167 $167 $104 $168 forward $162 $-1 #
edge $-1 $273 0 $273 6.2831853071796004 $167 $274 forward 7 unknown #
loop $-1 $-1 $174 $105 #
plane-surface $-1 -29.726493305720297 0.6225827361747811 110.85595453857876 0.70710678939079041 0 0.70710677298230451 0.70710677298230451 0 -0.70710678939079041 forward_v I I I I #
loop $-1 $-1 $275 $67 #
coedge $-1 $172 $172 $173 $276 reversed $106 $-1 #
coedge $-1 $173 $173 $172 $276 forward $108 $-1 #
coedge $-1 $174 $174 $109 $175 forward $169 $-1 #
edge $-1 $277 0 $277 6.2831853071796004 $174 $278 forward 7 unknown #
face $-1 $279 $280 $38 $-1 $281 reversed single #
loop $-1 $-1 $282 $110 #
plane-surface $-1 71.766108498522215 12.669886234215729 212.34855398767499 0 1 0 0.70710678939079041 0 0.70710677298230451 forward_v I I I I #
coedge $-1 $283 $284 $285 $286 reversed $111 $-1 #
coedge $-1 $181 $113 $287 $288 reversed $71 $-1 #
coedge $-1 $113 $180 $283 $289 reversed $71 $-1 #
coedge $-1 $285 $290 $113 $183 forward $291 $-1 #
edge $-1 $292 -35.883051894114857 $293 -30.564673901803801 $182 $294 forward 7 unknown #
loop $-1 $-1 $189 $114 #
plane-surface $-1 -29.726493305720297 16.611834539103921 110.85595453857876 0.70710678939079041 0 0.70710677298230451 0.70710677298230451 0 -0.70710678939079041 forward_v I I I I #
loop $-1 $-1 $295 $73 #
coedge $-1 $187 $187 $188 $296 reversed $115 $-1 #
coedge $-1 $188 $188 $187 $296 forward $117 $-1 #
coedge $-1 $189 $189 $118 $190 forward $184 $-1 #
edge $-1 $297 0 $297 6.2831853071796004 $189 $298 forward 7 unknown #
loop $-1 $-1 $196 $119 #
plane-surface $-1 -29.726493305720297 16.611834539103921 110.85595453857876 0.70710678939079041 0 0.70710677298230451 0.70710677298230451 0 -0.70710678939079041 forward_v I I I I #
loop $-1 $-1 $299 $76 #
coedge $-1 $194 $194 $195 $300 reversed $120 $-1 #
coedge $-1 $195 $195 $194 $300 forward $122 $-1 #
coedge $-1 $196 $196 $123 $197 forward $191 $-1 #
edge $-1 $301 0 $301 6.2831853071796004 $196 $302 forward 7 unknown #
face $-1 $303 $304 $41 $-1 $305 reversed single #
loop $-1 $-1 $306 $124 #
plane-surface $-1 -147.82659147642966 13.902343527282259 132.8770292672429 0 -1 0 0.52991927123019833 0 -0.84804809178421925 forward_v I I I I #
coedge $-1 $307 $308 $309 $310 reversed $125 $-1 #
coedge $-1 $203 $127 $311 $312 reversed $80 $-1 #
coedge $-1 $127 $202 $307 $313 reversed $80 $-1 #
coedge $-1 $309 $314 $127 $205 forward $315 $-1 #
edge $-1 $316 2.1471895948388635 $317 7.7914418639510075 $204 $318 forward 7 unknown #
loop $-1 $-1 $211 $128 #
plane-surface $-1 -71.76610614337595 8.2006701704072178 11.154810527895464 -0.52991927123019833 0 0.84804809178421925 0.84804809178421925 0 0.52991927123019833 forward_v I I I I #
loop $-1 $-1 $319 $82 #
coedge $-1 $209 $209 $210 $320 reversed $129 $-1 #
coedge $-1 $210 $210 $209 $320 forward $131 $-1 #
coedge $-1 $211 $211 $132 $212 forward $206 $-1 #
edge $-1 $321 0 $321 6.2831853071796004 $211 $322 forward 7 unknown #
loop $-1 $-1 $218 $133 #
plane-surface $-1 -71.76610614337595 8.2006701704072178 11.154810527895464 -0.52991927123019833 0 0.84804809178421925 0.84804809178421925 0 0.52991927123019833 forward_v I I I I #
loop $-1 $-1 $323 $85 #
coedge $-1 $216 $216 $217 $324 reversed $134 $-1 #
coedge $-1 $217 $217 $216 $324 forward $136 $-1 #
coedge $-1 $218 $218 $137 $219 forward $213 $-1 #
edge $-1 $325 0 $325 6.2831853071796004 $218 $326 forward 7 unknown #
face $-1 $327 $328 $33 $-1 $329 reversed single #
loop $-1 $-1 $330 $138 #
plane-surface $-1 -71.766106143375964 0 0 1 0 0 0 0 -1 forward_v I I I I #
coedge $-1 $331 $231 $332 $333 forward $139 $-1 #
coedge $-1 $334 $141 $331 $335 forward $89 $-1 #
coedge $-1 $141 $334 $336 $337 forward $89 $-1 #
coedge $-1 $234 $233 $141 $227 reversed $235 $-1 #
edge $-1 $338 -29.872721076734148 $339 29.872721076734148 $226 $340 forward 7 unknown #
coedge $-1 $143 $142 $341 $342 forward $56 $-1 #
coedge $-1 $343 $344 $142 $230 reversed $328 $-1 #
edge $-1 $237 -71.766106143375964 $345 71.766106143375964 $229 $346 forward 7 unknown #
coedge $-1 $223 $347 $143 $232 reversed $139 $-1 #
edge $-1 $348 -71.766106143375964 $236 71.766106143375964 $231 $349 forward 7 unknown #
coedge $-1 $226 $144 $347 $350 forward $235 $-1 #
coedge $-1 $144 $226 $343 $351 reversed $235 $-1 #
loop $-1 $-1 $233 $327 #
vertex $-1 $145 $352 #
vertex $-1 $145 $353 #
straight-curve $-1 71.766106143375964 0 14.681730850060795 0 1 0 I I #
face $-1 $354 $355 $34 $-1 $356 reversed single #
loop $-1 $-1 $357 $146 #
plane-surface $-1 -71.766106143375964 0 0 1 0 0 0 0 -1 forward_v I I I I #
coedge $-1 $250 $358 $244 $359 forward $147 $-1 #
coedge $-1 $152 $149 $360 $361 reversed $93 $-1 #
coedge $-1 $149 $152 $242 $359 reversed $93 $-1 #
coedge $-1 $362 $363 $149 $246 forward $364 $-1 #
edge $-1 $365 -14.681730850060795 $366 14.681730850060795 $245 $367 forward 7 unknown #
coedge $-1 $151 $150 $357 $368 reversed $59 $-1 #
coedge $-1 $360 $369 $150 $249 forward $355 $-1 #
edge $-1 $370 -37.731520936777351 $253 -30.337649476419877 $248 $371 forward 7 unknown #
coedge $-1 $372 $242 $151 $251 forward $147 $-1 #
edge $-1 $252 30.337649476419877 $373 37.731520936777351 $250 $374 forward 7 unknown #
vertex $-1 $251 $375 #
vertex $-1 $249 $376 #
straight-curve $-1 -64.37223468301849 -12.638303801455439 0 0 0 -1 I I #
face $-1 $-1 $267 $35 $-1 $377 forward single #
loop $-1 $-1 $378 $154 #
plane-surface $-1 71.766106143375964 0 0 -1 0 0 0 0 1 forward_v I I I I #
coedge $-1 $379 $380 $381 $382 reversed $155 $-1 #
coedge $-1 $383 $157 $159 $265 forward $97 $-1 #
coedge $-1 $157 $383 $379 $384 forward $97 $-1 #
coedge $-1 $381 $160 $157 $262 forward $267 $-1 #
edge $-1 $269 -4.2532396729755817 $385 3.6306569368008006 $261 $386 forward 7 unknown #
coedge $-1 $387 $388 $158 $264 forward $256 $-1 #
edge $-1 $389 -96.810924259501292 $268 -91.492546143776707 $263 $390 forward 7 unknown #
edge $-1 $269 136.01088991293258 $389 143.53221228675201 $159 $391 forward 7 unknown #
coedge $-1 $160 $381 $387 $392 forward $267 $-1 #
loop $-1 $-1 $381 $255 #
vertex $-1 $264 $393 #
vertex $-1 $161 $394 #
straight-curve $-1 35.883054249261107 4.5645310410629722 14.681730850060802 -1 0 0 I I #
coedge $-1 $271 $271 $-1 $395 reversed $164 $-1 #
edge $-1 $396 0 $396 6.2831853071796004 $165 $397 forward 7 unknown #
vertex $-1 $168 $398 #
ellipse-curve $-1 69.106917147220429 -1.0668236802058715 12.022541792198485 0.70710678939079041 0 0.70710677298230451 0.70710677298230451 0 -0.70710678939079041 1 I I #
coedge $-1 $275 $275 $-1 $399 reversed $171 $-1 #
edge $-1 $400 0 $400 6.2831853071796004 $172 $401 forward 7 unknown #
vertex $-1 $175 $402 #
ellipse-curve $-1 69.106917147220429 2.3119891525554372 12.022541792198485 0.70710678939079041 0 0.70710677298230451 0.70710677298230451 0 -0.70710678939079041 1 I I #
face $-1 $-1 $291 $38 $-1 $403 forward single #
loop $-1 $-1 $404 $176 #
plane-surface $-1 71.766106143375964 0 0 -1 0 0 0 0 1 forward_v I I I I #
coedge $-1 $405 $406 $407 $408 reversed $177 $-1 #
coedge $-1 $409 $179 $181 $289 forward $111 $-1 #
coedge $-1 $179 $409 $405 $410 forward $111 $-1 #
coedge $-1 $407 $182 $179 $286 forward $291 $-1 #
edge $-1 $293 -12.24786557444015 $411 -4.3639689646637692 $285 $412 forward 7 unknown #
coedge $-1 $413 $414 $180 $288 forward $280 $-1 #
edge $-1 $415 -96.810924259501292 $292 -91.492546143776707 $287 $416 forward 7 unknown #
edge $-1 $293 136.01088991293258 $415 143.53221228675201 $181 $417 forward 7 unknown #
coedge $-1 $182 $407 $413 $418 forward $291 $-1 #
loop $-1 $-1 $407 $279 #
vertex $-1 $288 $419 #
vertex $-1 $183 $420 #
straight-curve $-1 35.883054249261107 20.55378284399211 14.681730850060802 -1 0 0 I I #
coedge $-1 $295 $295 $-1 $421 reversed $186 $-1 #
edge $-1 $422 0 $422 6.2831853071796004 $187 $423 forward 7 unknown #
vertex $-1 $190 $424 #
ellipse-curve $-1 69.106917147220429 14.922428122723264 12.022541792198485 0.70710678939079041 0 0.70710677298230451 0.70710677298230451 0 -0.70710678939079041 1 I I #
coedge $-1 $299 $299 $-1 $425 reversed $193 $-1 #
edge $-1 $426 0 $426 6.2831853071796004 $194 $427 forward 7 unknown #
vertex $-1 $197 $428 #
ellipse-curve $-1 69.106917147220429 18.301240955484577 12.022541792198485 0.70710678939079041 0 0.70710677298230451 0.70710677298230451 0 -0.70710678939079041 1 I I #
face $-1 $-1 $315 $41 $-1 $429 forward single #
loop $-1 $-1 $430 $198 #
plane-surface $-1 -71.766106143375964 0 0 1 0 0 0 0 -1 forward_v I I I I #
coedge $-1 $431 $432 $433 $434 reversed $199 $-1 #
coedge $-1 $435 $201 $203 $313 forward $125 $-1 #
coedge $-1 $201 $435 $431 $436 forward $125 $-1 #
coedge $-1 $433 $204 $201 $310 forward $315 $-1 #
edge $-1 $317 -1.6013382716714322 $437 9.80200844207865 $309 $438 forward 7 unknown #
coedge $-1 $439 $440 $202 $312 forward $304 $-1 #
edge $-1 $441 -55.283704105725995 $316 -51.756783783560657 $311 $442 forward 7 unknown #
edge $-1 $317 -6.6555804131781198 $441 1.675811683274863e-014 $203 $443 forward 7 unknown #
coedge $-1 $204 $433 $439 $444 forward $315 $-1 #
loop $-1 $-1 $433 $303 #
vertex $-1 $312 $445 #
vertex $-1 $205 $446 #
straight-curve $-1 -73.913295738214828 2.4989968135321767 14.681730850060795 1 0 0 I I #
coedge $-1 $319 $319 $-1 $447 reversed $208 $-1 #
edge $-1 $448 0 $448 6.2831853071796004 $209 $449 forward 7 unknown #
vertex $-1 $212 $450 #
ellipse-curve $-1 -68.943980008819906 5.7570958746036318 12.918270688978117 -0.52991927123019833 0 0.84804809178421925 0.84804809178421925 0 0.52991927123019833 1 I I #
coedge $-1 $323 $323 $-1 $451 reversed $215 $-1 #
edge $-1 $452 0 $452 6.2831853071796004 $216 $453 forward 7 unknown #
vertex $-1 $219 $454 #
ellipse-curve $-1 -68.943980008819906 10.644244466210811 12.918270688978117 -0.52991927123019833 0 0.84804809178421925 0.84804809178421925 0 0.52991927123019833 1 I I #
face $-1 $-1 $235 $33 $-1 $455 reversed single #
loop $-1 $-1 $343 $220 #
plane-surface $-1 0 29.872721076734148 0 0 -1 0 0 0 -1 forward_v I I I I #
coedge $-1 $456 $341 $344 $457 forward $221 $-1 #
coedge $-1 $347 $223 $224 $335 reversed $139 $-1 #
coedge $-1 $341 $456 $223 $333 reversed $221 $-1 #
edge $-1 $348 -14.681730850060795 $458 14.681730850060795 $332 $459 forward 7 unknown #
coedge $-1 $225 $224 $456 $460 forward $89 $-1 #
edge $-1 $339 -71.766106143375964 $458 71.766106143375964 $331 $461 forward 7 unknown #
coedge $-1 $344 $343 $225 $337 reversed $328 $-1 #
edge $-1 $462 -71.766106143375964 $338 71.766106143375964 $336 $463 forward 7 unknown #
vertex $-1 $227 $464 #
vertex $-1 $350 $465 #
straight-curve $-1 71.766106143375964 0 -14.681730850060795 0 -1 0 I I #
coedge $-1 $330 $332 $228 $342 reversed $221 $-1 #
edge $-1 $345 -29.872721076734148 $348 29.872721076734148 $341 $466 forward 7 unknown #
coedge $-1 $336 $229 $234 $351 forward $328 $-1 #
coedge $-1 $229 $336 $330 $457 reversed $328 $-1 #
vertex $-1 $230 $467 #
straight-curve $-1 0 29.872721076734148 14.681730850060795 -1 0 0 I I #
coedge $-1 $231 $331 $233 $350 reversed $139 $-1 #
vertex $-1 $342 $468 #
straight-curve $-1 0 -29.872721076734148 14.681730850060795 1 0 0 I I #
edge $-1 $236 -14.681730850060795 $339 14.681730850060795 $233 $469 forward 7 unknown #
edge $-1 $237 -14.681730850060795 $338 14.681730850060795 $234 $470 forward 7 unknown #
point $-1 71.766106143375964 -29.872721076734148 14.681730850060795 #
point $-1 71.766106143375964 29.872721076734148 14.681730850060795 #
face $-1 $-1 $364 $34 $-1 $471 reversed single #
loop $-1 $-1 $360 $239 #
plane-surface $-1 0 0 -14.681730850060795 0 0 1 1 0 0 forward_v I I I I #
coedge $-1 $472 $473 $247 $368 forward $240 $-1 #
coedge $-1 $242 $372 $362 $474 forward $147 $-1 #
edge $-1 $366 -19.244964857186751 $252 -2.0105475819080425 $242 $475 forward 7 unknown #
coedge $-1 $476 $248 $243 $361 forward $355 $-1 #
edge $-1 $253 2.0105475819080425 $365 19.244964857186751 $360 $477 forward 7 unknown #
coedge $-1 $478 $245 $358 $474 reversed $364 $-1 #
coedge $-1 $245 $478 $476 $479 reversed $364 $-1 #
loop $-1 $-1 $245 $354 #
vertex $-1 $479 $480 #
vertex $-1 $246 $481 #
straight-curve $-1 -64.37223468301849 -29.872721076734148 0 0 0 1 I I #
edge $-1 $373 -14.681730850060795 $370 14.681730850060795 $357 $482 forward 7 unknown #
coedge $-1 $248 $476 $472 $483 forward $355 $-1 #
vertex $-1 $249 $484 #
straight-curve $-1 -34.034585206598614 -12.638303801455439 -14.681730850060795 1 0 0 I I #
coedge $-1 $358 $250 $473 $485 forward $147 $-1 #
vertex $-1 $485 $486 #
straight-curve $-1 -34.034585206598614 -12.638303801455439 14.681730850060795 -1 0 0 I I #
point $-1 -64.37223468301849 -12.638303801455439 14.681730850060795 #
point $-1 -64.37223468301849 -12.638303801455439 -14.681730850060795 #
plane-surface $-1 0 0 14.681730850060795 0 0 1 1 0 0 forward_v I I I I #
coedge $-1 $388 $387 $380 $487 forward $256 $-1 #
coedge $-1 $380 $258 $260 $384 reversed $155 $-1 #
coedge $-1 $258 $379 $378 $487 reversed $155 $-1 #
coedge $-1 $266 $261 $258 $382 forward $267 $-1 #
edge $-1 $385 30.564673901803801 $488 35.883051894114857 $381 $489 forward 7 unknown #
coedge $-1 $260 $259 $388 $490 reversed $97 $-1 #
edge $-1 $491 -143.53221228675201 $385 -136.01088991293258 $379 $492 forward 7 unknown #
vertex $-1 $262 $493 #
straight-curve $-1 66.447728151064908 0.31129136808739055 14.681730850060788 0 -1 0 I I #
coedge $-1 $378 $263 $266 $392 reversed $256 $-1 #
coedge $-1 $263 $378 $383 $490 forward $256 $-1 #
vertex $-1 $264 $494 #
straight-curve $-1 71.766106143375964 4.5645310410629722 106.17427699383749 0 0 1 I I #
straight-curve $-1 -29.726493305720297 4.5645310410629722 110.85595453857876 0.70710677298230451 0 -0.70710678939079041 I I #
edge $-1 $488 -3.31936556871341 $268 4.5645310410629722 $387 $495 forward 7 unknown #
point $-1 71.766106143375964 4.5645310410629722 14.681730850060795 #
point $-1 66.447728151064908 4.5645310410629722 14.681730850060788 #
edge $-1 $496 1 $496 0 $271 $-1 forward 7 unknown #
vertex $-1 $272 $497 #
ellipse-curve $-1 67.446067517047325 -1.0668236802058715 10.361692200565573 0.70710678939079041 0 0.70710677298230451 0.70710677298230451 0 -0.70710678939079041 1 I I #
point $-1 69.814023920202771 -1.0668236802058715 11.315435002807739 #
edge $-1 $498 1 $498 0 $275 $-1 forward 7 unknown #
vertex $-1 $276 $499 #
ellipse-curve $-1 67.446067517047325 2.3119891525554372 10.361692200565573 0.70710678939079041 0 0.70710677298230451 0.70710677298230451 0 -0.70710678939079041 1 I I #
point $-1 69.814023920202771 2.3119891525554372 11.315435002807739 #
plane-surface $-1 0 0 14.681730850060795 0 0 1 1 0 0 forward_v I I I I #
coedge $-1 $414 $413 $406 $500 forward $280 $-1 #
coedge $-1 $406 $282 $284 $410 reversed $177 $-1 #
coedge $-1 $282 $405 $404 $500 reversed $177 $-1 #
coedge $-1 $290 $285 $282 $408 forward $291 $-1 #
edge $-1 $411 30.564673901803801 $501 35.883051894114857 $407 $502 forward 7 unknown #
coedge $-1 $284 $283 $414 $503 reversed $111 $-1 #
edge $-1 $504 -143.53221228675201 $411 -136.01088991293258 $405 $505 forward 7 unknown #
vertex $-1 $286 $506 #
straight-curve $-1 66.447728151064908 8.3059172695519603 14.681730850060788 0 -1 0 I I #
coedge $-1 $404 $287 $290 $418 reversed $280 $-1 #
coedge $-1 $287 $404 $409 $503 forward $280 $-1 #
vertex $-1 $288 $507 #
straight-curve $-1 71.766106143375964 20.55378284399211 106.17427699383749 0 0 1 I I #
straight-curve $-1 -29.726493305720297 20.55378284399211 110.85595453857876 0.70710677298230451 0 -0.70710678939079041 I I #
edge $-1 $501 12.669886234215729 $292 20.55378284399211 $413 $508 forward 7 unknown #
point $-1 71.766106143375964 20.55378284399211 14.681730850060795 #
point $-1 66.447728151064908 20.55378284399211 14.681730850060788 #
edge $-1 $509 1 $509 0 $295 $-1 forward 7 unknown #
vertex $-1 $296 $510 #
ellipse-curve $-1 67.446067517047325 14.922428122723264 10.361692200565573 0.70710678939079041 0 0.70710677298230451 0.70710677298230451 0 -0.70710678939079041 1 I I #
point $-1 69.814023920202771 14.922428122723264 11.315435002807739 #
edge $-1 $511 1 $511 0 $299 $-1 forward 7 unknown #
vertex $-1 $300 $512 #
ellipse-curve $-1 67.446067517047325 18.301240955484577 10.361692200565573 0.70710678939079041 0 0.70710677298230451 0.70710677298230451 0 -0.70710678939079041 1 I I #
point $-1 69.814023920202771 18.301240955484577 11.315435002807739 #
plane-surface $-1 0 0 14.681730850060795 0 0 1 1 0 0 forward_v I I I I #
coedge $-1 $440 $439 $432 $513 forward $304 $-1 #
coedge $-1 $432 $306 $308 $436 reversed $199 $-1 #
coedge $-1 $306 $431 $430 $513 reversed $199 $-1 #
coedge $-1 $314 $309 $306 $434 forward $315 $-1 #
edge $-1 $437 -7.7914418639510075 $514 -2.1471895948388635 $433 $515 forward 7 unknown #
coedge $-1 $308 $307 $440 $516 reversed $125 $-1 #
edge $-1 $517 -1.675811683274863e-014 $437 6.6555804131781198 $431 $518 forward 7 unknown #
vertex $-1 $310 $519 #
straight-curve $-1 -66.12185387426382 4.1003350852036089 14.681730850060793 0 1 0 I I #
coedge $-1 $430 $311 $314 $444 reversed $304 $-1 #
coedge $-1 $311 $430 $435 $516 forward $304 $-1 #
vertex $-1 $312 $520 #
straight-curve $-1 -71.766106143375964 2.4989968135321767 66.438514633621452 0 0 1 I I #
straight-curve $-1 -71.76610614337595 2.4989968135321767 11.154810527895464 -0.84804809178421925 0 -0.52991927123019833 I I #
edge $-1 $514 -13.902343527282259 $316 -2.4989968135321767 $439 $521 forward 7 unknown #
point $-1 -71.766106143375964 2.4989968135321767 14.681730850060795 #
point $-1 -66.12185387426382 2.4989968135321767 14.681730850060795 #
edge $-1 $522 1 $522 0 $319 $-1 forward 7 unknown #
vertex $-1 $320 $523 #
ellipse-curve $-1 -66.916291229656679 5.7570958746036318 9.673290381110311 -0.52991927123019833 0 0.84804809178421925 0.84804809178421925 0 0.52991927123019833 1 I I #
point $-1 -68.095931917035713 5.7570958746036318 13.448189960208349 #
edge $-1 $524 1 $524 0 $323 $-1 forward 7 unknown #
vertex $-1 $324 $525 #
ellipse-curve $-1 -66.916291229656679 10.644244466210811 9.673290381110311 -0.52991927123019833 0 0.84804809178421925 0.84804809178421925 0 0.52991927123019833 1 I I #
point $-1 -68.095931917035713 10.644244466210811 13.448189960208349 #
plane-surface $-1 71.766106143375964 0 0 -1 0 0 0 0 1 forward_v I I I I #
coedge $-1 $332 $330 $334 $460 reversed $221 $-1 #
edge $-1 $345 -14.681730850060795 $462 14.681730850060795 $344 $526 forward 7 unknown #
vertex $-1 $460 $527 #
straight-curve $-1 -71.766106143375964 -29.872721076734148 0 0 0 -1 I I #
edge $-1 $458 -29.872721076734148 $462 29.872721076734148 $456 $528 forward 7 unknown #
straight-curve $-1 0 -29.872721076734148 -14.681730850060795 -1 0 0 I I #
vertex $-1 $337 $529 #
straight-curve $-1 0 29.872721076734148 -14.681730850060795 1 0 0 I I #
point $-1 71.766106143375964 29.872721076734148 -14.681730850060795 #
point $-1 71.766106143375964 -29.872721076734148 -14.681730850060795 #
straight-curve $-1 -71.766106143375964 0 14.681730850060795 0 -1 0 I I #
point $-1 -71.766106143375964 29.872721076734148 14.681730850060795 #
point $-1 -71.766106143375964 -29.872721076734148 14.681730850060795 #
straight-curve $-1 71.766106143375964 -29.872721076734148 0 0 0 -1 I I #
straight-curve $-1 71.766106143375964 29.872721076734148 0 0 0 -1 I I #
plane-surface $-1 0 -29.872721076734148 0 0 1 0 0 0 1 forward_v I I I I #
coedge $-1 $530 $357 $369 $483 reversed $240 $-1 #
coedge $-1 $357 $530 $372 $485 reversed $240 $-1 #
edge $-1 $531 -71.766106143375964 $366 -64.37223468301849 $362 $532 forward 7 unknown #
straight-curve $-1 -64.37223468301849 -10.627756219547397 14.681730850060795 0 1 0 I I #
coedge $-1 $369 $360 $363 $479 forward $355 $-1 #
straight-curve $-1 -64.37223468301849 -10.627756219547397 -14.681730850060795 0 -1 0 I I #
coedge $-1 $363 $362 $530 $533 forward $364 $-1 #
edge $-1 $365 64.37223468301849 $534 71.766106143375964 $363 $535 forward 7 unknown #
point $-1 -64.37223468301849 -29.872721076734148 -14.681730850060795 #
point $-1 -64.37223468301849 -29.872721076734148 14.681730850060795 #
straight-curve $-1 -71.766106143375964 -12.638303801455439 0 0 0 -1 I I #
edge $-1 $534 -29.872721076734148 $370 -12.638303801455439 $472 $536 forward 7 unknown #
point $-1 -71.766106143375964 -12.638303801455439 -14.681730850060795 #
edge $-1 $373 12.638303801455439 $531 29.872721076734148 $473 $537 forward 7 unknown #
point $-1 -71.766106143375964 -12.638303801455439 14.681730850060795 #
edge $-1 $488 91.492546143776707 $491 96.810924259501292 $378 $538 forward 7 unknown #
vertex $-1 $392 $539 #
straight-curve $-1 35.883054249261107 -3.31936556871341 14.681730850060802 1 0 0 I I #
edge $-1 $491 -3.6306569368008006 $389 4.2532396729755817 $388 $540 forward 7 unknown #
vertex $-1 $490 $541 #
straight-curve $-1 -29.726493305720297 -3.31936556871341 110.85595453857876 -0.70710677298230451 0 0.70710678939079041 I I #
point $-1 66.447728151064908 -3.31936556871341 14.681730850060788 #
point $-1 71.766106143375978 4.5645310410629722 9.3633527343362033 #
straight-curve $-1 71.766106143375964 0 14.681730850060795 0 1 0 I I #
vertex $-1 $395 $542 #
point $-1 68.153174290029625 -1.0668236802058715 9.6545854111747822 #
vertex $-1 $399 $543 #
point $-1 68.153174290029625 2.3119891525554372 9.6545854111747822 #
edge $-1 $501 91.492546143776707 $504 96.810924259501292 $404 $544 forward 7 unknown #
vertex $-1 $418 $545 #
straight-curve $-1 35.883054249261107 12.669886234215729 14.681730850060802 1 0 0 I I #
edge $-1 $504 4.3639689646637692 $415 12.24786557444015 $414 $546 forward 7 unknown #
vertex $-1 $503 $547 #
straight-curve $-1 -29.726493305720297 12.669886234215729 110.85595453857876 -0.70710677298230451 0 0.70710678939079041 I I #
point $-1 66.447728151064908 12.669886234215729 14.681730850060788 #
point $-1 71.766106143375978 20.55378284399211 9.3633527343362033 #
straight-curve $-1 71.766106143375964 0 14.681730850060795 0 1 0 I I #
vertex $-1 $421 $548 #
point $-1 68.153174290029625 14.922428122723264 9.6545854111747822 #
vertex $-1 $425 $549 #
point $-1 68.153174290029625 18.301240955484577 9.6545854111747822 #
edge $-1 $514 51.756783783560657 $517 55.283704105725995 $430 $550 forward 7 unknown #
vertex $-1 $444 $551 #
straight-curve $-1 -73.913295738214828 13.902343527282259 14.681730850060795 -1 0 0 I I #
edge $-1 $517 -9.80200844207865 $441 1.6013382716714322 $440 $552 forward 7 unknown #
vertex $-1 $516 $553 #
straight-curve $-1 -71.76610614337595 13.902343527282259 11.154810527895464 0.84804809178421925 0 0.52991927123019833 I I #
point $-1 -66.12185387426382 13.902343527282259 14.681730850060795 #
point $-1 -71.766106143375964 2.4989968135321767 11.154810527895455 #
straight-curve $-1 -71.766106143375964 0 14.681730850060795 0 -1 0 I I #
vertex $-1 $447 $554 #
point $-1 -66.068243137872457 5.7570958746036318 10.20320965234051 #
vertex $-1 $451 $555 #
point $-1 -66.068243137872457 10.644244466210811 10.20320965234051 #
straight-curve $-1 -71.766106143375964 29.872721076734148 0 0 0 -1 I I #
point $-1 -71.766106143375964 -29.872721076734148 -14.681730850060795 #
straight-curve $-1 -71.766106143375964 0 -14.681730850060795 0 1 0 I I #
point $-1 -71.766106143375964 29.872721076734148 -14.681730850060795 #
coedge $-1 $473 $472 $478 $533 reversed $240 $-1 #
vertex $-1 $485 $556 #
straight-curve $-1 0 -29.872721076734148 14.681730850060795 1 0 0 I I #
edge $-1 $531 -14.681730850060795 $534 14.681730850060795 $530 $557 forward 7 unknown #
vertex $-1 $483 $558 #
straight-curve $-1 0 -29.872721076734148 -14.681730850060795 -1 0 0 I I #
straight-curve $-1 -71.766106143375964 0 -14.681730850060795 0 1 0 I I #
straight-curve $-1 -71.766106143375964 0 14.681730850060795 0 -1 0 I I #
straight-curve $-1 71.766106143375964 -3.31936556871341 106.17427699383749 0 0 -1 I I #
point $-1 71.766106143375964 -3.31936556871341 14.681730850060795 #
straight-curve $-1 71.766106143375964 0.31129136808739055 9.3633527343362104 0 1 0 I I #
point $-1 71.766106143375978 -3.31936556871341 9.3633527343362033 #
point $-1 66.738960727656533 -1.0668236802058715 9.6545854275832692 #
point $-1 66.738960727656533 2.3119891525554372 9.6545854275832692 #
straight-curve $-1 71.766106143375964 12.669886234215729 106.17427699383749 0 0 -1 I I #
point $-1 71.766106143375964 12.669886234215729 14.681730850060795 #
straight-curve $-1 71.766106143375964 8.3059172695519603 9.3633527343362104 0 1 0 I I #
point $-1 71.766106143375978 12.669886234215729 9.3633527343362033 #
point $-1 66.738960727656533 14.922428122723264 9.6545854275832692 #
point $-1 66.738960727656533 18.301240955484577 9.6545854275832692 #
straight-curve $-1 -71.766106143375964 13.902343527282259 66.438514633621452 0 0 -1 I I #
point $-1 -71.766106143375964 13.902343527282259 14.681730850060795 #
straight-curve $-1 -71.766106143375964 4.1003350852036089 11.154810527895464 0 -1 0 I I #
point $-1 -71.766106143375964 13.902343527282259 11.154810527895455 #
point $-1 -66.38637195842648 5.7570958746036318 8.8252422893260931 #
point $-1 -66.38637195842648 10.644244466210811 8.8252422893260931 #
point $-1 -71.766106143375964 -29.872721076734148 14.681730850060795 #
straight-curve $-1 -71.766106143375964 -29.872721076734148 0 0 0 -1 I I #
point $-1 -71.766106143375964 -29.872721076734148 -14.681730850060795 #
End-of-ACIS-data 