500 0 16 0           
7 Unknown 11 ACIS 5.0 NT 24 Fri Mar 26 17:11:41 1999 
-1 9.9999999999999995e-007 1e-010 
body $-1 $16 $-1 $17 #
body $-1 $18 $-1 $19 #
body $-1 $20 $-1 $21 #
body $-1 $22 $-1 $23 #
body $-1 $24 $-1 $25 #
body $-1 $26 $-1 $27 #
body $-1 $28 $-1 $29 #
body $-1 $30 $-1 $31 #
body $-1 $32 $-1 $33 #
body $-1 $34 $-1 $35 #
body $-1 $36 $-1 $37 #
body $-1 $38 $-1 $39 #
body $-1 $40 $-1 $41 #
body $-1 $42 $-1 $43 #
body $-1 $44 $-1 $45 #
body $-1 $46 $-1 $47 #
lump $-1 $-1 $48 $0 #
transform $-1 1 0 0 0 1 0 0 0 1 56.605731376079589 33.503399570743426 15.480867077877068 1 rotate no_reflect no_shear #
lump $-1 $-1 $49 $1 #
transform $-1 1 0 0 0 1 0 0 0 1 56.605731376079589 33.503399570743426 15.480867077877068 1 rotate no_reflect no_shear #
lump $-1 $-1 $50 $2 #
transform $-1 1 0 0 0 1 0 0 0 1 56.605731376079589 33.503399570743426 15.480867077877068 1 rotate no_reflect no_shear #
lump $-1 $-1 $51 $3 #
transform $-1 1 0 0 0 1 0 0 0 1 56.605731376079589 33.503399570743426 15.480867077877068 1 rotate no_reflect no_shear #
lump $-1 $-1 $52 $4 #
transform $-1 1 0 0 0 1 0 0 0 1 56.605731376079589 33.503399570743426 15.480867077877068 1 rotate no_reflect no_shear #
lump $-1 $-1 $53 $5 #
transform $-1 1 0 0 0 1 0 0 0 1 56.605731376079589 33.503399570743426 15.480867077877068 1 rotate no_reflect no_shear #
lump $-1 $-1 $54 $6 #
transform $-1 1 0 0 0 1 0 0 0 1 56.605731376079589 33.503399570743426 15.480867077877068 1 rotate no_reflect no_shear #
lump $-1 $-1 $55 $7 #
transform $-1 1 0 0 0 1 0 0 0 1 56.605731376079589 33.503399570743426 15.480867077877068 1 rotate no_reflect no_shear #
lump $-1 $-1 $56 $8 #
transform $-1 1 0 0 0 1 0 0 0 1 56.605731376079589 33.503399570743426 15.480867077877068 1 rotate no_reflect no_shear #
lump $-1 $-1 $57 $9 #
transform $-1 1 0 0 0 1 0 0 0 1 56.605731376079589 33.503399570743426 15.480867077877068 1 rotate no_reflect no_shear #
lump $-1 $-1 $58 $10 #
transform $-1 1 0 0 0 1 0 0 0 1 56.605731376079589 33.503399570743426 15.480867077877068 1 rotate no_reflect no_shear #
lump $-1 $-1 $59 $11 #
transform $-1 1 0 0 0 1 0 0 0 1 56.605731376079589 33.503399570743426 15.480867077877068 1 rotate no_reflect no_shear #
lump $-1 $-1 $60 $12 #
transform $-1 1 0 0 0 1 0 0 0 1 56.605731376079589 33.503399570743426 15.480867077877068 1 rotate no_reflect no_shear #
lump $-1 $-1 $61 $13 #
transform $-1 1 0 0 0 1 0 0 0 1 56.605731376079589 33.503399570743426 15.480867077877068 1 rotate no_reflect no_shear #
lump $-1 $-1 $62 $14 #
transform $-1 1 0 0 0 1 0 0 0 1 56.605731376079589 33.503399570743426 15.480867077877068 1 rotate no_reflect no_shear #
lump $-1 $-1 $63 $15 #
transform $-1 1 0 0 0 1 0 0 0 1 56.605731376079589 33.503399570743426 15.480867077877068 1 rotate no_reflect no_shear #
shell $-1 $-1 $-1 $64 $-1 $16 #
shell $-1 $-1 $-1 $65 $-1 $18 #
shell $-1 $-1 $-1 $66 $-1 $20 #
shell $-1 $-1 $-1 $67 $-1 $22 #
shell $-1 $-1 $-1 $68 $-1 $24 #
shell $-1 $-1 $-1 $69 $-1 $26 #
shell $-1 $-1 $-1 $70 $-1 $28 #
shell $-1 $-1 $-1 $71 $-1 $30 #
shell $-1 $-1 $-1 $72 $-1 $32 #
shell $-1 $-1 $-1 $73 $-1 $34 #
shell $-1 $-1 $-1 $74 $-1 $36 #
shell $-1 $-1 $-1 $75 $-1 $38 #
shell $-1 $-1 $-1 $76 $-1 $40 #
shell $-1 $-1 $-1 $77 $-1 $42 #
shell $-1 $-1 $-1 $78 $-1 $44 #
shell $-1 $-1 $-1 $79 $-1 $46 #
face $-1 $80 $81 $48 $-1 $82 forward single #
face $-1 $83 $84 $49 $-1 $85 reversed single #
face $-1 $86 $87 $50 $-1 $88 forward single #
face $-1 $89 $90 $51 $-1 $91 forward single #
face $-1 $92 $93 $52 $-1 $94 reversed single #
face $-1 $95 $96 $53 $-1 $97 forward single #
face $-1 $98 $99 $54 $-1 $100 forward single #
face $-1 $101 $102 $55 $-1 $103 reversed single #
face $-1 $104 $105 $56 $-1 $106 forward single #
face $-1 $107 $108 $57 $-1 $109 forward single #
face $-1 $110 $111 $58 $-1 $112 reversed single #
face $-1 $113 $114 $59 $-1 $115 forward single #
face $-1 $116 $117 $60 $-1 $118 forward single #
face $-1 $119 $120 $61 $-1 $121 reversed single #
face $-1 $122 $123 $62 $-1 $124 forward single #
face $-1 $125 $126 $63 $-1 $127 forward single #
face $-1 $128 $129 $48 $-1 $130 reversed single #
loop $-1 $-1 $131 $64 #
plane-surface $-1 0 0 15.480867077877068 0 0 1 1 0 0 forward_v I I I I #
face $-1 $132 $133 $49 $-1 $134 reversed single #
loop $-1 $-1 $135 $65 #
plane-surface $-1 -32.734885915145732 -118.94517603919343 79.001481417589133 -1 0 0 0 -0.75470958851134928 0.65605901945558964 forward_v I I I I #
face $-1 $136 $137 $50 $-1 $138 forward single #
loop $-1 $139 $140 $66 #
cone-surface $-1 -41.401126178661777 -28.081742033518648 9.4542209697068316 0 0.75470958851134928 -0.65605901945558964 1 0 0 1 I I 0 1 1 forward I I I I #
face $-1 $141 $142 $51 $-1 $143 forward single #
loop $-1 $144 $145 $67 #
cone-surface $-1 -36.201382020552145 -28.081742033518648 9.4542209697068316 0 0.75470958851134928 -0.65605901945558964 1 0 0 1 I I 0 1 1 forward I I I I #
face $-1 $146 $147 $52 $-1 $148 reversed single #
loop $-1 $-1 $149 $68 #
plane-surface $-1 -6.8673831820744224 -118.94517603919343 79.001481417589133 -1 0 0 0 -0.75470958851134928 0.65605901945558964 forward_v I I I I #
face $-1 $150 $151 $53 $-1 $152 forward single #
loop $-1 $153 $154 $69 #
cone-surface $-1 -15.533623445590464 -28.081742033518648 9.4542209697068316 0 0.75470958851134928 -0.65605901945558964 1 0 0 1 I I 0 1 1 forward I I I I #
face $-1 $155 $156 $54 $-1 $157 forward single #
loop $-1 $158 $159 $70 #
cone-surface $-1 -10.333879287480841 -28.081742033518648 9.4542209697068316 0 0.75470958851134928 -0.65605901945558964 1 0 0 1 I I 0 1 1 forward I I I I #
face $-1 $160 $161 $55 $-1 $162 reversed single #
loop $-1 $-1 $163 $71 #
plane-surface $-1 19.000119550996889 -118.94517603919343 79.001481417589133 -1 0 0 0 -0.75470958851134928 0.65605901945558964 forward_v I I I I #
face $-1 $164 $165 $56 $-1 $166 forward single #
loop $-1 $167 $168 $72 #
cone-surface $-1 10.333879287480841 -28.081742033518648 9.4542209697068316 0 0.75470958851134928 -0.65605901945558964 1 0 0 1 I I 0 1 1 forward I I I I #
face $-1 $169 $170 $57 $-1 $171 forward single #
loop $-1 $172 $173 $73 #
cone-surface $-1 15.533623445590464 -28.081742033518648 9.4542209697068316 0 0.75470958851134928 -0.65605901945558964 1 0 0 1 I I 0 1 1 forward I I I I #
face $-1 $174 $175 $58 $-1 $176 reversed single #
loop $-1 $-1 $177 $74 #
plane-surface $-1 44.867622284068197 -118.94517603919343 79.001481417589133 -1 0 0 0 -0.75470958851134928 0.65605901945558964 forward_v I I I I #
face $-1 $178 $179 $59 $-1 $180 forward single #
loop $-1 $181 $182 $75 #
cone-surface $-1 36.201382020552145 -28.081742033518648 9.4542209697068316 0 0.75470958851134928 -0.65605901945558964 1 0 0 1 I I 0 1 1 forward I I I I #
face $-1 $183 $184 $60 $-1 $185 forward single #
loop $-1 $186 $187 $76 #
cone-surface $-1 41.401126178661769 -28.081742033518648 9.4542209697068316 0 0.75470958851134928 -0.65605901945558964 1 0 0 1 I I 0 1 1 forward I I I I #
face $-1 $188 $189 $61 $-1 $190 reversed single #
loop $-1 $-1 $191 $77 #
plane-surface $-1 7.5844052845257082 43.55007161591881 141.25480148351315 1 0 0 0 -0.57357644374324357 -0.81915203911291934 forward_v I I I I #
face $-1 $192 $193 $62 $-1 $194 forward single #
loop $-1 $195 $196 $78 #
cone-surface $-1 16.240082981596871 28.979243613951667 11.825075052537818 0 -0.57357644374324357 -0.81915203911291934 2 0 0 1 I I 0 1 2 forward I I I I #
face $-1 $197 $198 $63 $-1 $199 forward single #
loop $-1 $200 $201 $79 #
cone-surface $-1 29.223599527203604 28.979243613951667 11.825075052537818 0 -0.57357644374324357 -0.81915203911291934 2 0 0 1 I I 0 1 2 forward I I I I #
face $-1 $202 $203 $48 $-1 $204 reversed single #
loop $-1 $-1 $205 $80 #
plane-surface $-1 0 0 -15.480867077877068 0 0 1 1 0 0 forward_v I I I I #
coedge $-1 $206 $207 $208 $209 forward $81 $-1 #
face $-1 $210 $211 $49 $-1 $212 reversed single #
loop $-1 $-1 $213 $83 #
plane-surface $-1 -38.801254099606965 -33.503399570743426 4.7280801732745772 0 -0.75470958851134928 0.65605901945558964 1 0 0 forward_v I I I I #
coedge $-1 $214 $215 $216 $217 reversed $84 $-1 #
face $-1 $-1 $218 $50 $-1 $219 forward single #
loop $-1 $220 $221 $86 #
cone-surface $-1 -41.401126178661777 -26.956357108152922 8.4759388041100472 0 0.75470958851134928 -0.65605901945558964 0.5 0 0 1 I I -0.70710678118654746 0.70710678118654746 0.5 forward I I I I #
loop $-1 $-1 $222 $66 #
coedge $-1 $140 $140 $223 $224 reversed $87 $-1 #
face $-1 $-1 $225 $51 $-1 $226 forward single #
loop $-1 $227 $228 $89 #
cone-surface $-1 -36.201382020552145 -26.956357108152922 8.4759388041100472 0 0.75470958851134928 -0.65605901945558964 0.5 0 0 1 I I -0.70710678118654746 0.70710678118654746 0.5 forward I I I I #
loop $-1 $-1 $229 $67 #
coedge $-1 $145 $145 $230 $231 reversed $90 $-1 #
face $-1 $232 $233 $52 $-1 $234 reversed single #
loop $-1 $-1 $235 $92 #
plane-surface $-1 -12.933751366535652 -33.503399570743426 4.7280801732745772 0 -0.75470958851134928 0.65605901945558964 1 0 0 forward_v I I I I #
coedge $-1 $236 $237 $238 $239 reversed $93 $-1 #
face $-1 $-1 $240 $53 $-1 $241 forward single #
loop $-1 $242 $243 $95 #
cone-surface $-1 -15.533623445590464 -26.956357108152922 8.4759388041100472 0 0.75470958851134928 -0.65605901945558964 0.5 0 0 1 I I -0.70710678118654746 0.70710678118654746 0.5 forward I I I I #
loop $-1 $-1 $244 $69 #
coedge $-1 $154 $154 $245 $246 reversed $96 $-1 #
face $-1 $-1 $247 $54 $-1 $248 forward single #
loop $-1 $249 $250 $98 #
cone-surface $-1 -10.333879287480841 -26.956357108152922 8.4759388041100472 0 0.75470958851134928 -0.65605901945558964 0.5 0 0 1 I I -0.70710678118654746 0.70710678118654746 0.5 forward I I I I #
loop $-1 $-1 $251 $70 #
coedge $-1 $159 $159 $252 $253 reversed $99 $-1 #
face $-1 $254 $255 $55 $-1 $256 reversed single #
loop $-1 $-1 $257 $101 #
plane-surface $-1 12.93375136653566 -33.503399570743426 4.7280801732745772 0 -0.75470958851134928 0.65605901945558964 1 0 0 forward_v I I I I #
coedge $-1 $258 $259 $260 $261 reversed $102 $-1 #
face $-1 $-1 $262 $56 $-1 $263 forward single #
loop $-1 $264 $265 $104 #
cone-surface $-1 10.333879287480841 -26.956357108152922 8.4759388041100472 0 0.75470958851134928 -0.65605901945558964 0.5 0 0 1 I I -0.70710678118654746 0.70710678118654746 0.5 forward I I I I #
loop $-1 $-1 $266 $72 #
coedge $-1 $168 $168 $267 $268 reversed $105 $-1 #
face $-1 $-1 $269 $57 $-1 $270 forward single #
loop $-1 $271 $272 $107 #
cone-surface $-1 15.533623445590464 -26.956357108152922 8.4759388041100472 0 0.75470958851134928 -0.65605901945558964 0.5 0 0 1 I I -0.70710678118654746 0.70710678118654746 0.5 forward I I I I #
loop $-1 $-1 $273 $73 #
coedge $-1 $173 $173 $274 $275 reversed $108 $-1 #
face $-1 $276 $277 $58 $-1 $278 reversed single #
loop $-1 $-1 $279 $110 #
plane-surface $-1 38.801254099606965 -33.503399570743426 4.7280801732745772 0 -0.75470958851134928 0.65605901945558964 1 0 0 forward_v I I I I #
coedge $-1 $280 $281 $282 $283 reversed $111 $-1 #
face $-1 $-1 $284 $59 $-1 $285 forward single #
loop $-1 $286 $287 $113 #
cone-surface $-1 36.201382020552145 -26.956357108152922 8.4759388041100472 0 0.75470958851134928 -0.65605901945558964 0.5 0 0 1 I I -0.70710678118654746 0.70710678118654746 0.5 forward I I I I #
loop $-1 $-1 $288 $75 #
coedge $-1 $182 $182 $289 $290 reversed $114 $-1 #
face $-1 $-1 $291 $60 $-1 $292 forward single #
loop $-1 $293 $294 $116 #
cone-surface $-1 41.401126178661769 -26.956357108152922 8.4759388041100472 0 0.75470958851134928 -0.65605901945558964 0.5 0 0 1 I I -0.70710678118654746 0.70710678118654746 0.5 forward I I I I #
loop $-1 $-1 $295 $76 #
coedge $-1 $187 $187 $296 $297 reversed $117 $-1 #
face $-1 $298 $299 $61 $-1 $300 reversed single #
loop $-1 $-1 $301 $119 #
plane-surface $-1 22.731841254400237 -21.385356580435328 48.517400919125649 0 0.57357644374324357 0.81915203911291934 1 0 0 forward_v I I I I #
coedge $-1 $302 $303 $304 $305 reversed $120 $-1 #
face $-1 $-1 $306 $62 $-1 $307 forward single #
loop $-1 $308 $309 $122 #
cone-surface $-1 16.240082981596871 27.73535976457898 10.048624846557288 0 -0.57357644374324357 -0.81915203911291934 1 0 0 1 I I -0.70710678118654746 0.70710678118654746 1 forward I I I I #
loop $-1 $-1 $310 $78 #
coedge $-1 $196 $196 $311 $312 reversed $123 $-1 #
face $-1 $-1 $313 $63 $-1 $314 forward single #
loop $-1 $315 $316 $125 #
cone-surface $-1 29.223599527203604 27.73535976457898 10.048624846557288 0 -0.57357644374324357 -0.81915203911291934 1 0 0 1 I I -0.70710678118654746 0.70710678118654746 1 forward I I I I #
loop $-1 $-1 $317 $79 #
coedge $-1 $201 $201 $318 $319 reversed $126 $-1 #
face $-1 $320 $321 $48 $-1 $322 reversed single #
loop $-1 $-1 $323 $128 #
plane-surface $-1 0 -33.503399570743426 0 0 1 0 0 0 1 forward_v I I I I #
coedge $-1 $324 $325 $326 $327 forward $129 $-1 #
coedge $-1 $328 $131 $329 $330 forward $81 $-1 #
coedge $-1 $131 $328 $331 $332 forward $81 $-1 #
coedge $-1 $333 $334 $131 $209 reversed $335 $-1 #
edge $-1 $336 -33.503399570743426 $337 33.503399570743426 $208 $338 forward 7 unknown #
face $-1 $339 $340 $49 $-1 $341 reversed single #
loop $-1 $-1 $342 $132 #
plane-surface $-1 -44.867622284068197 -118.94517603919343 79.001481417589133 1 0 0 0 0.75470958851134928 -0.65605901945558964 forward_v I I I I #
coedge $-1 $343 $344 $345 $346 reversed $133 $-1 #
coedge $-1 $215 $135 $347 $348 reversed $84 $-1 #
coedge $-1 $135 $214 $343 $349 reversed $84 $-1 #
coedge $-1 $345 $350 $135 $217 forward $351 $-1 #
edge $-1 $352 25.969188448853288 $353 35.316443261082739 $216 $354 forward 7 unknown #
loop $-1 $-1 $223 $136 #
plane-surface $-1 -38.801254099606965 -33.503399570743426 4.7280801732745772 0 -0.75470958851134928 0.65605901945558964 1 0 0 forward_v I I I I #
loop $-1 $-1 $355 $86 #
coedge $-1 $221 $221 $222 $356 reversed $137 $-1 #
coedge $-1 $222 $222 $221 $356 forward $139 $-1 #
coedge $-1 $223 $223 $140 $224 forward $218 $-1 #
edge $-1 $357 -1.340633539313084e-015 $357 6.2831853071795987 $223 $358 forward 7 unknown #
loop $-1 $-1 $230 $141 #
plane-surface $-1 -38.801254099606965 -33.503399570743426 4.7280801732745772 0 -0.75470958851134928 0.65605901945558964 1 0 0 forward_v I I I I #
loop $-1 $-1 $359 $89 #
coedge $-1 $228 $228 $229 $360 reversed $142 $-1 #
coedge $-1 $229 $229 $228 $360 forward $144 $-1 #
coedge $-1 $230 $230 $145 $231 forward $225 $-1 #
edge $-1 $361 -1.340633539313084e-015 $361 6.2831853071795987 $230 $362 forward 7 unknown #
face $-1 $363 $364 $52 $-1 $365 reversed single #
loop $-1 $-1 $366 $146 #
plane-surface $-1 -19.000119550996882 -118.94517603919343 79.001481417589133 1 0 0 0 0.75470958851134928 -0.65605901945558964 forward_v I I I I #
coedge $-1 $367 $368 $369 $370 reversed $147 $-1 #
coedge $-1 $237 $149 $371 $372 reversed $93 $-1 #
coedge $-1 $149 $236 $367 $373 reversed $93 $-1 #
coedge $-1 $369 $374 $149 $239 forward $375 $-1 #
edge $-1 $376 25.969188448853288 $377 35.316443261082739 $238 $378 forward 7 unknown #
loop $-1 $-1 $245 $150 #
plane-surface $-1 -12.933751366535652 -33.503399570743426 4.7280801732745772 0 -0.75470958851134928 0.65605901945558964 1 0 0 forward_v I I I I #
loop $-1 $-1 $379 $95 #
coedge $-1 $243 $243 $244 $380 reversed $151 $-1 #
coedge $-1 $244 $244 $243 $380 forward $153 $-1 #
coedge $-1 $245 $245 $154 $246 forward $240 $-1 #
edge $-1 $381 -1.340633539313084e-015 $381 6.2831853071795987 $245 $382 forward 7 unknown #
loop $-1 $-1 $252 $155 #
plane-surface $-1 -12.933751366535652 -33.503399570743426 4.7280801732745772 0 -0.75470958851134928 0.65605901945558964 1 0 0 forward_v I I I I #
loop $-1 $-1 $383 $98 #
coedge $-1 $250 $250 $251 $384 reversed $156 $-1 #
coedge $-1 $251 $251 $250 $384 forward $158 $-1 #
coedge $-1 $252 $252 $159 $253 forward $247 $-1 #
edge $-1 $385 -1.340633539313084e-015 $385 6.2831853071795987 $252 $386 forward 7 unknown #
face $-1 $387 $388 $55 $-1 $389 reversed single #
loop $-1 $-1 $390 $160 #
plane-surface $-1 6.8673831820744295 -118.94517603919343 79.001481417589133 1 0 0 0 0.75470958851134928 -0.65605901945558964 forward_v I I I I #
coedge $-1 $391 $392 $393 $394 reversed $161 $-1 #
coedge $-1 $259 $163 $395 $396 reversed $102 $-1 #
coedge $-1 $163 $258 $391 $397 reversed $102 $-1 #
coedge $-1 $393 $398 $163 $261 forward $399 $-1 #
edge $-1 $400 25.969188448853288 $401 35.316443261082739 $260 $402 forward 7 unknown #
loop $-1 $-1 $267 $164 #
plane-surface $-1 12.93375136653566 -33.503399570743426 4.7280801732745772 0 -0.75470958851134928 0.65605901945558964 1 0 0 forward_v I I I I #
loop $-1 $-1 $403 $104 #
coedge $-1 $265 $265 $266 $404 reversed $165 $-1 #
coedge $-1 $266 $266 $265 $404 forward $167 $-1 #
coedge $-1 $267 $267 $168 $268 forward $262 $-1 #
edge $-1 $405 -1.340633539313084e-015 $405 6.2831853071795987 $267 $406 forward 7 unknown #
loop $-1 $-1 $274 $169 #
plane-surface $-1 12.93375136653566 -33.503399570743426 4.7280801732745772 0 -0.75470958851134928 0.65605901945558964 1 0 0 forward_v I I I I #
loop $-1 $-1 $407 $107 #
coedge $-1 $272 $272 $273 $408 reversed $170 $-1 #
coedge $-1 $273 $273 $272 $408 forward $172 $-1 #
coedge $-1 $274 $274 $173 $275 forward $269 $-1 #
edge $-1 $409 -1.340633539313084e-015 $409 6.2831853071795987 $274 $410 forward 7 unknown #
face $-1 $411 $412 $58 $-1 $413 reversed single #
loop $-1 $-1 $414 $174 #
plane-surface $-1 32.734885915145732 -118.94517603919343 79.001481417589133 1 0 0 0 0.75470958851134928 -0.65605901945558964 forward_v I I I I #
coedge $-1 $415 $416 $417 $418 reversed $175 $-1 #
coedge $-1 $281 $177 $419 $420 reversed $111 $-1 #
coedge $-1 $177 $280 $415 $421 reversed $111 $-1 #
coedge $-1 $417 $422 $177 $283 forward $423 $-1 #
edge $-1 $424 25.969188448853288 $425 35.316443261082739 $282 $426 forward 7 unknown #
loop $-1 $-1 $289 $178 #
plane-surface $-1 38.801254099606965 -33.503399570743426 4.7280801732745772 0 -0.75470958851134928 0.65605901945558964 1 0 0 forward_v I I I I #
loop $-1 $-1 $427 $113 #
coedge $-1 $287 $287 $288 $428 reversed $179 $-1 #
coedge $-1 $288 $288 $287 $428 forward $181 $-1 #
coedge $-1 $289 $289 $182 $290 forward $284 $-1 #
edge $-1 $429 -1.340633539313084e-015 $429 6.2831853071795987 $289 $430 forward 7 unknown #
loop $-1 $-1 $296 $183 #
plane-surface $-1 38.801254099606965 -33.503399570743426 4.7280801732745772 0 -0.75470958851134928 0.65605901945558964 1 0 0 forward_v I I I I #
loop $-1 $-1 $431 $116 #
coedge $-1 $294 $294 $295 $432 reversed $184 $-1 #
coedge $-1 $295 $295 $294 $432 forward $186 $-1 #
coedge $-1 $296 $296 $187 $297 forward $291 $-1 #
edge $-1 $433 -1.340633539313084e-015 $433 6.2831853071795987 $296 $434 forward 7 unknown #
face $-1 $435 $436 $61 $-1 $437 reversed single #
loop $-1 $-1 $438 $188 #
plane-surface $-1 37.879277224274766 43.55007161591881 141.25480148351315 -1 0 0 0 0.57357644374324357 0.81915203911291934 forward_v I I I I #
coedge $-1 $439 $440 $441 $442 reversed $189 $-1 #
coedge $-1 $303 $191 $443 $444 reversed $120 $-1 #
coedge $-1 $191 $302 $439 $445 reversed $120 $-1 #
coedge $-1 $441 $446 $191 $305 forward $447 $-1 #
edge $-1 $448 -11.728363762784021 $449 -4.020666660459419 $304 $450 forward 7 unknown #
loop $-1 $-1 $311 $192 #
plane-surface $-1 22.731841254400237 -21.385356580435328 48.517400919125649 0 0.57357644374324357 0.81915203911291934 1 0 0 forward_v I I I I #
loop $-1 $-1 $451 $122 #
coedge $-1 $309 $309 $310 $452 reversed $193 $-1 #
coedge $-1 $310 $310 $309 $452 forward $195 $-1 #
coedge $-1 $311 $311 $196 $312 forward $306 $-1 #
edge $-1 $453 7.3208330956379823e-017 $453 6.2831853071796004 $311 $454 forward 7 unknown #
loop $-1 $-1 $318 $197 #
plane-surface $-1 22.731841254400237 -21.385356580435328 48.517400919125649 0 0.57357644374324357 0.81915203911291934 1 0 0 forward_v I I I I #
loop $-1 $-1 $455 $125 #
coedge $-1 $316 $316 $317 $456 reversed $198 $-1 #
coedge $-1 $317 $317 $316 $456 forward $200 $-1 #
coedge $-1 $318 $318 $201 $319 forward $313 $-1 #
edge $-1 $457 7.3208330956379823e-017 $457 6.2831853071796004 $318 $458 forward 7 unknown #
face $-1 $459 $460 $48 $-1 $461 reversed single #
loop $-1 $-1 $462 $202 #
plane-surface $-1 -56.605731376079589 0 0 1 0 0 0 0 -1 forward_v I I I I #
coedge $-1 $463 $331 $464 $465 forward $203 $-1 #
coedge $-1 $466 $205 $463 $467 forward $129 $-1 #
coedge $-1 $205 $466 $468 $469 forward $129 $-1 #
coedge $-1 $334 $333 $205 $327 reversed $335 $-1 #
edge $-1 $470 -33.503399570743426 $471 33.503399570743426 $326 $472 forward 7 unknown #
coedge $-1 $207 $206 $473 $474 forward $81 $-1 #
coedge $-1 $475 $476 $206 $330 reversed $460 $-1 #
edge $-1 $337 -56.605731376079589 $477 56.605731376079589 $329 $478 forward 7 unknown #
coedge $-1 $323 $479 $207 $332 reversed $203 $-1 #
edge $-1 $480 -56.605731376079589 $336 56.605731376079589 $331 $481 forward 7 unknown #
coedge $-1 $326 $208 $479 $482 forward $335 $-1 #
coedge $-1 $208 $326 $475 $483 reversed $335 $-1 #
loop $-1 $-1 $333 $459 #
vertex $-1 $209 $484 #
vertex $-1 $209 $485 #
straight-curve $-1 56.605731376079589 0 15.480867077877068 0 1 0 I I #
face $-1 $-1 $351 $49 $-1 $486 forward single #
loop $-1 $-1 $487 $210 #
plane-surface $-1 0 -33.503399570743426 0 0 1 0 0 0 1 forward_v I I I I #
coedge $-1 $488 $489 $490 $491 reversed $211 $-1 #
coedge $-1 $492 $213 $215 $349 forward $133 $-1 #
coedge $-1 $213 $492 $488 $493 forward $133 $-1 #
coedge $-1 $490 $216 $213 $346 forward $351 $-1 #
edge $-1 $353 13.33425886534225 $494 25.466995234264715 $345 $495 forward 7 unknown #
coedge $-1 $496 $497 $214 $348 forward $340 $-1 #
edge $-1 $498 -34.772660535519989 $352 -24.019873630917498 $347 $499 forward 7 unknown #
edge $-1 $353 -14.247582206835569 $498 0 $215 $500 forward 7 unknown #
coedge $-1 $216 $490 $496 $501 forward $351 $-1 #
loop $-1 $-1 $490 $339 #
vertex $-1 $348 $502 #
vertex $-1 $217 $503 #
straight-curve $-1 -32.734885915145732 -59.472588019596714 15.480867077877068 0 1 0 I I #
coedge $-1 $355 $355 $-1 $504 reversed $220 $-1 #
edge $-1 $505 0 $505 6.2831853071796004 $221 $506 forward 7 unknown #
vertex $-1 $224 $507 #
ellipse-curve $-1 -41.401126178661777 -28.8297721646287 10.104473625575823 0 -0.75470958851134928 0.65605901945558964 1 0 0 1 I I #
coedge $-1 $359 $359 $-1 $508 reversed $227 $-1 #
edge $-1 $509 0 $509 6.2831853071796004 $228 $510 forward 7 unknown #
vertex $-1 $231 $511 #
ellipse-curve $-1 -36.201382020552145 -28.8297721646287 10.104473625575823 0 -0.75470958851134928 0.65605901945558964 1 0 0 1 I I #
face $-1 $-1 $375 $52 $-1 $512 forward single #
loop $-1 $-1 $513 $232 #
plane-surface $-1 0 -33.503399570743426 0 0 1 0 0 0 1 forward_v I I I I #
coedge $-1 $514 $515 $516 $517 reversed $233 $-1 #
coedge $-1 $518 $235 $237 $373 forward $147 $-1 #
coedge $-1 $235 $518 $514 $519 forward $147 $-1 #
coedge $-1 $516 $238 $235 $370 forward $375 $-1 #
edge $-1 $377 0.4005074988065962 $520 12.533243867729055 $369 $521 forward 7 unknown #
coedge $-1 $522 $523 $236 $372 forward $364 $-1 #
edge $-1 $524 -34.772660535519989 $376 -24.019873630917498 $371 $525 forward 7 unknown #
edge $-1 $377 -14.247582206835569 $524 0 $237 $526 forward 7 unknown #
coedge $-1 $238 $516 $522 $527 forward $375 $-1 #
loop $-1 $-1 $516 $363 #
vertex $-1 $372 $528 #
vertex $-1 $239 $529 #
straight-curve $-1 -6.8673831820744224 -59.472588019596714 15.480867077877068 0 1 0 I I #
coedge $-1 $379 $379 $-1 $530 reversed $242 $-1 #
edge $-1 $531 0 $531 6.2831853071796004 $243 $532 forward 7 unknown #
vertex $-1 $246 $533 #
ellipse-curve $-1 -15.533623445590464 -28.8297721646287 10.104473625575823 0 -0.75470958851134928 0.65605901945558964 1 0 0 1 I I #
coedge $-1 $383 $383 $-1 $534 reversed $249 $-1 #
edge $-1 $535 0 $535 6.2831853071796004 $250 $536 forward 7 unknown #
vertex $-1 $253 $537 #
ellipse-curve $-1 -10.333879287480841 -28.8297721646287 10.104473625575823 0 -0.75470958851134928 0.65605901945558964 1 0 0 1 I I #
face $-1 $-1 $399 $55 $-1 $538 forward single #
loop $-1 $-1 $539 $254 #
plane-surface $-1 0 -33.503399570743426 0 0 1 0 0 0 1 forward_v I I I I #
coedge $-1 $540 $541 $542 $543 reversed $255 $-1 #
coedge $-1 $544 $257 $259 $397 forward $161 $-1 #
coedge $-1 $257 $544 $540 $545 forward $161 $-1 #
coedge $-1 $542 $260 $257 $394 forward $399 $-1 #
edge $-1 $401 -12.533243867729059 $546 -0.40050749880659975 $393 $547 forward 7 unknown #
coedge $-1 $548 $549 $258 $396 forward $388 $-1 #
edge $-1 $550 -34.772660535519989 $400 -24.019873630917498 $395 $551 forward 7 unknown #
edge $-1 $401 -14.247582206835569 $550 0 $259 $552 forward 7 unknown #
coedge $-1 $260 $542 $548 $553 forward $399 $-1 #
loop $-1 $-1 $542 $387 #
vertex $-1 $396 $554 #
vertex $-1 $261 $555 #
straight-curve $-1 19.000119550996889 -59.472588019596714 15.480867077877068 0 1 0 I I #
coedge $-1 $403 $403 $-1 $556 reversed $264 $-1 #
edge $-1 $557 0 $557 6.2831853071796004 $265 $558 forward 7 unknown #
vertex $-1 $268 $559 #
ellipse-curve $-1 10.333879287480841 -28.8297721646287 10.104473625575823 0 -0.75470958851134928 0.65605901945558964 1 0 0 1 I I #
coedge $-1 $407 $407 $-1 $560 reversed $271 $-1 #
edge $-1 $561 0 $561 6.2831853071796004 $272 $562 forward 7 unknown #
vertex $-1 $275 $563 #
ellipse-curve $-1 15.533623445590464 -28.8297721646287 10.104473625575823 0 -0.75470958851134928 0.65605901945558964 1 0 0 1 I I #
face $-1 $-1 $423 $58 $-1 $564 forward single #
loop $-1 $-1 $565 $276 #
plane-surface $-1 0 -33.503399570743426 0 0 1 0 0 0 1 forward_v I I I I #
coedge $-1 $566 $567 $568 $569 reversed $277 $-1 #
coedge $-1 $570 $279 $281 $421 forward $175 $-1 #
coedge $-1 $279 $570 $566 $571 forward $175 $-1 #
coedge $-1 $568 $282 $279 $418 forward $423 $-1 #
edge $-1 $425 -25.466995234264715 $572 -13.33425886534225 $417 $573 forward 7 unknown #
coedge $-1 $574 $575 $280 $420 forward $412 $-1 #
edge $-1 $576 -34.772660535519989 $424 -24.019873630917498 $419 $577 forward 7 unknown #
edge $-1 $425 -14.247582206835569 $576 0 $281 $578 forward 7 unknown #
coedge $-1 $282 $568 $574 $579 forward $423 $-1 #
loop $-1 $-1 $568 $411 #
vertex $-1 $420 $580 #
vertex $-1 $283 $581 #
straight-curve $-1 44.867622284068197 -59.472588019596714 15.480867077877068 0 1 0 I I #
coedge $-1 $427 $427 $-1 $582 reversed $286 $-1 #
edge $-1 $583 0 $583 6.2831853071796004 $287 $584 forward 7 unknown #
vertex $-1 $290 $585 #
ellipse-curve $-1 36.201382020552145 -28.8297721646287 10.104473625575823 0 -0.75470958851134928 0.65605901945558964 1 0 0 1 I I #
coedge $-1 $431 $431 $-1 $586 reversed $293 $-1 #
edge $-1 $587 0 $587 6.2831853071796004 $294 $588 forward 7 unknown #
vertex $-1 $297 $589 #
ellipse-curve $-1 41.401126178661769 -28.8297721646287 10.104473625575823 0 -0.75470958851134928 0.65605901945558964 1 0 0 1 I I #
face $-1 $-1 $447 $61 $-1 $590 forward single #
loop $-1 $-1 $591 $298 #
plane-surface $-1 0 33.503399570743426 0 0 -1 0 0 0 -1 forward_v I I I I #
coedge $-1 $592 $593 $594 $595 reversed $299 $-1 #
coedge $-1 $596 $301 $303 $445 forward $189 $-1 #
coedge $-1 $301 $596 $592 $597 forward $189 $-1 #
coedge $-1 $594 $304 $301 $442 forward $447 $-1 #
edge $-1 $449 -3.7815153426744104 $598 26.513356597074647 $441 $599 forward 7 unknown #
coedge $-1 $600 $601 $302 $444 forward $436 $-1 #
edge $-1 $602 -60.543521380822774 $448 -55.146533663879509 $443 $603 forward 7 unknown #
edge $-1 $449 57.597438321642613 $602 67.006799141486837 $303 $604 forward 7 unknown #
coedge $-1 $304 $594 $600 $605 forward $447 $-1 #
loop $-1 $-1 $594 $435 #
vertex $-1 $444 $606 #
vertex $-1 $305 $607 #
straight-curve $-1 7.5844052845257082 21.775035807959405 15.480867077877065 0 -1 0 I I #
coedge $-1 $451 $451 $-1 $608 reversed $308 $-1 #
edge $-1 $609 0 $609 6.2831853071796004 $309 $610 forward 7 unknown #
vertex $-1 $312 $611 #
ellipse-curve $-1 16.240082981596871 29.649551019581118 12.782373219405436 0 0.57357644374324357 0.81915203911291934 2 0 0 1 I I #
coedge $-1 $455 $455 $-1 $612 reversed $315 $-1 #
edge $-1 $613 0 $613 6.2831853071796004 $316 $614 forward 7 unknown #
vertex $-1 $319 $615 #
ellipse-curve $-1 29.223599527203604 29.649551019581118 12.782373219405436 0 0.57357644374324357 0.81915203911291934 2 0 0 1 I I #
face $-1 $-1 $335 $48 $-1 $616 reversed single #
loop $-1 $-1 $475 $320 #
plane-surface $-1 0 33.503399570743426 0 0 -1 0 0 0 -1 forward_v I I I I #
coedge $-1 $617 $473 $476 $618 forward $321 $-1 #
coedge $-1 $479 $323 $324 $467 reversed $203 $-1 #
coedge $-1 $473 $617 $323 $465 reversed $321 $-1 #
edge $-1 $480 -15.480867077877068 $619 15.480867077877068 $464 $620 forward 7 unknown #
coedge $-1 $325 $324 $617 $621 forward $129 $-1 #
edge $-1 $471 -56.605731376079589 $619 56.605731376079589 $463 $622 forward 7 unknown #
coedge $-1 $476 $475 $325 $469 reversed $460 $-1 #
edge $-1 $623 -56.605731376079589 $470 56.605731376079589 $468 $624 forward 7 unknown #
vertex $-1 $327 $625 #
vertex $-1 $482 $626 #
straight-curve $-1 56.605731376079589 0 -15.480867077877068 0 -1 0 I I #
coedge $-1 $462 $464 $328 $474 reversed $321 $-1 #
edge $-1 $477 -33.503399570743426 $480 33.503399570743426 $473 $627 forward 7 unknown #
coedge $-1 $468 $329 $334 $483 forward $460 $-1 #
coedge $-1 $329 $468 $462 $618 reversed $460 $-1 #
vertex $-1 $330 $628 #
straight-curve $-1 0 33.503399570743426 15.480867077877068 -1 0 0 I I #
coedge $-1 $331 $463 $333 $482 reversed $203 $-1 #
vertex $-1 $474 $629 #
straight-curve $-1 0 -33.503399570743426 15.480867077877068 1 0 0 I I #
edge $-1 $336 -15.480867077877068 $471 15.480867077877068 $333 $630 forward 7 unknown #
edge $-1 $337 -15.480867077877068 $470 15.480867077877068 $334 $631 forward 7 unknown #
point $-1 56.605731376079589 -33.503399570743426 15.480867077877068 #
point $-1 56.605731376079589 33.503399570743426 15.480867077877068 #
plane-surface $-1 0 0 15.480867077877068 0 0 1 1 0 0 forward_v I I I I #
coedge $-1 $497 $496 $489 $632 forward $340 $-1 #
coedge $-1 $489 $342 $344 $493 reversed $211 $-1 #
coedge $-1 $342 $488 $487 $632 reversed $211 $-1 #
coedge $-1 $350 $345 $342 $491 forward $351 $-1 #
edge $-1 $494 -35.316443261082739 $633 -25.969188448853288 $490 $634 forward 7 unknown #
coedge $-1 $344 $343 $497 $635 reversed $133 $-1 #
edge $-1 $636 0 $494 14.247582206835569 $488 $637 forward 7 unknown #
vertex $-1 $346 $638 #
straight-curve $-1 -19.400627049803482 -24.156144758513975 15.480867077877068 -1 0 0 I I #
coedge $-1 $487 $347 $350 $501 reversed $340 $-1 #
coedge $-1 $347 $487 $492 $635 forward $340 $-1 #
vertex $-1 $348 $639 #
straight-curve $-1 -32.734885915145732 -33.503399570743426 39.500740708794567 0 0 1 I I #
straight-curve $-1 -32.734885915145732 -33.503399570743426 4.7280801732745772 0 -0.65605901945558964 -0.75470958851134928 I I #
edge $-1 $633 -44.867622284068197 $352 -32.734885915145732 $496 $640 forward 7 unknown #
point $-1 -32.734885915145732 -33.503399570743426 15.480867077877068 #
point $-1 -32.734885915145732 -24.156144758513978 15.480867077877068 #
edge $-1 $641 1 $641 0 $355 $-1 forward 7 unknown #
vertex $-1 $356 $642 #
ellipse-curve $-1 -41.401126178661777 -27.333711902408595 8.8039683138378422 0 -0.75470958851134928 0.65605901945558964 1 0 0 1 I I #
point $-1 -40.401126178661777 -28.8297721646287 10.104473625575821 #
edge $-1 $643 1 $643 0 $359 $-1 forward 7 unknown #
vertex $-1 $360 $644 #
ellipse-curve $-1 -36.201382020552145 -27.333711902408595 8.8039683138378422 0 -0.75470958851134928 0.65605901945558964 1 0 0 1 I I #
point $-1 -35.201382020552145 -28.8297721646287 10.104473625575821 #
plane-surface $-1 0 0 15.480867077877068 0 0 1 1 0 0 forward_v I I I I #
coedge $-1 $523 $522 $515 $645 forward $364 $-1 #
coedge $-1 $515 $366 $368 $519 reversed $233 $-1 #
coedge $-1 $366 $514 $513 $645 reversed $233 $-1 #
coedge $-1 $374 $369 $366 $517 forward $375 $-1 #
edge $-1 $520 -35.316443261082739 $646 -25.969188448853288 $516 $647 forward 7 unknown #
coedge $-1 $368 $367 $523 $648 reversed $147 $-1 #
edge $-1 $649 0 $520 14.247582206835569 $514 $650 forward 7 unknown #
vertex $-1 $370 $651 #
straight-curve $-1 -6.4668756832678262 -24.156144758513975 15.480867077877068 -1 0 0 I I #
coedge $-1 $513 $371 $374 $527 reversed $364 $-1 #
coedge $-1 $371 $513 $518 $648 forward $364 $-1 #
vertex $-1 $372 $652 #
straight-curve $-1 -6.8673831820744224 -33.503399570743426 39.500740708794567 0 0 1 I I #
straight-curve $-1 -6.8673831820744224 -33.503399570743426 4.7280801732745772 0 -0.65605901945558964 -0.75470958851134928 I I #
edge $-1 $646 -19.000119550996882 $376 -6.8673831820744224 $522 $653 forward 7 unknown #
point $-1 -6.8673831820744224 -33.503399570743426 15.480867077877068 #
point $-1 -6.8673831820744224 -24.156144758513978 15.480867077877068 #
edge $-1 $654 1 $654 0 $379 $-1 forward 7 unknown #
vertex $-1 $380 $655 #
ellipse-curve $-1 -15.533623445590464 -27.333711902408595 8.8039683138378422 0 -0.75470958851134928 0.65605901945558964 1 0 0 1 I I #
point $-1 -14.533623445590464 -28.8297721646287 10.104473625575821 #
edge $-1 $656 1 $656 0 $383 $-1 forward 7 unknown #
vertex $-1 $384 $657 #
ellipse-curve $-1 -10.333879287480841 -27.333711902408595 8.8039683138378422 0 -0.75470958851134928 0.65605901945558964 1 0 0 1 I I #
point $-1 -9.3338792874808405 -28.8297721646287 10.104473625575821 #
plane-surface $-1 0 0 15.480867077877068 0 0 1 1 0 0 forward_v I I I I #
coedge $-1 $549 $548 $541 $658 forward $388 $-1 #
coedge $-1 $541 $390 $392 $545 reversed $255 $-1 #
coedge $-1 $390 $540 $539 $658 reversed $255 $-1 #
coedge $-1 $398 $393 $390 $543 forward $399 $-1 #
edge $-1 $546 -35.316443261082739 $659 -25.969188448853288 $542 $660 forward 7 unknown #
coedge $-1 $392 $391 $549 $661 reversed $161 $-1 #
edge $-1 $662 0 $546 14.247582206835569 $540 $663 forward 7 unknown #
vertex $-1 $394 $664 #
straight-curve $-1 6.4668756832678298 -24.156144758513975 15.480867077877068 -1 0 0 I I #
coedge $-1 $539 $395 $398 $553 reversed $388 $-1 #
coedge $-1 $395 $539 $544 $661 forward $388 $-1 #
vertex $-1 $396 $665 #
straight-curve $-1 19.000119550996889 -33.503399570743426 39.500740708794567 0 0 1 I I #
straight-curve $-1 19.000119550996889 -33.503399570743426 4.7280801732745772 0 -0.65605901945558964 -0.75470958851134928 I I #
edge $-1 $659 6.8673831820744295 $400 19.000119550996889 $548 $666 forward 7 unknown #
point $-1 19.000119550996889 -33.503399570743426 15.480867077877068 #
point $-1 19.000119550996889 -24.156144758513978 15.480867077877068 #
edge $-1 $667 1 $667 0 $403 $-1 forward 7 unknown #
vertex $-1 $404 $668 #
ellipse-curve $-1 10.333879287480841 -27.333711902408595 8.8039683138378422 0 -0.75470958851134928 0.65605901945558964 1 0 0 1 I I #
point $-1 11.333879287480841 -28.8297721646287 10.104473625575821 #
edge $-1 $669 1 $669 0 $407 $-1 forward 7 unknown #
vertex $-1 $408 $670 #
ellipse-curve $-1 15.533623445590464 -27.333711902408595 8.8039683138378422 0 -0.75470958851134928 0.65605901945558964 1 0 0 1 I I #
point $-1 16.533623445590464 -28.8297721646287 10.104473625575821 #
plane-surface $-1 0 0 15.480867077877068 0 0 1 1 0 0 forward_v I I I I #
coedge $-1 $575 $574 $567 $671 forward $412 $-1 #
coedge $-1 $567 $414 $416 $571 reversed $277 $-1 #
coedge $-1 $414 $566 $565 $671 reversed $277 $-1 #
coedge $-1 $422 $417 $414 $569 forward $423 $-1 #
edge $-1 $572 -35.316443261082739 $672 -25.969188448853288 $568 $673 forward 7 unknown #
coedge $-1 $416 $415 $575 $674 reversed $175 $-1 #
edge $-1 $675 0 $572 14.247582206835569 $566 $676 forward 7 unknown #
vertex $-1 $418 $677 #
straight-curve $-1 19.400627049803482 -24.156144758513975 15.480867077877068 -1 0 0 I I #
coedge $-1 $565 $419 $422 $579 reversed $412 $-1 #
coedge $-1 $419 $565 $570 $674 forward $412 $-1 #
vertex $-1 $420 $678 #
straight-curve $-1 44.867622284068197 -33.503399570743426 39.500740708794567 0 0 1 I I #
straight-curve $-1 44.867622284068197 -33.503399570743426 4.7280801732745772 0 -0.65605901945558964 -0.75470958851134928 I I #
edge $-1 $672 32.734885915145732 $424 44.867622284068197 $574 $679 forward 7 unknown #
point $-1 44.867622284068197 -33.503399570743426 15.480867077877068 #
point $-1 44.867622284068197 -24.156144758513978 15.480867077877068 #
edge $-1 $680 1 $680 0 $427 $-1 forward 7 unknown #
vertex $-1 $428 $681 #
ellipse-curve $-1 36.201382020552145 -27.333711902408595 8.8039683138378422 0 -0.75470958851134928 0.65605901945558964 1 0 0 1 I I #
point $-1 37.201382020552145 -28.8297721646287 10.104473625575821 #
edge $-1 $682 1 $682 0 $431 $-1 forward 7 unknown #
vertex $-1 $432 $683 #
ellipse-curve $-1 41.401126178661769 -27.333711902408595 8.8039683138378422 0 -0.75470958851134928 0.65605901945558964 1 0 0 1 I I #
point $-1 42.401126178661769 -28.8297721646287 10.104473625575821 #
plane-surface $-1 0 0 15.480867077877068 0 0 1 1 0 0 forward_v I I I I #
coedge $-1 $601 $600 $593 $684 forward $436 $-1 #
coedge $-1 $593 $438 $440 $597 reversed $299 $-1 #
coedge $-1 $438 $592 $591 $684 reversed $299 $-1 #
coedge $-1 $446 $441 $438 $595 forward $447 $-1 #
edge $-1 $598 4.020666660459419 $685 11.728363762784021 $594 $686 forward 7 unknown #
coedge $-1 $440 $439 $601 $687 reversed $189 $-1 #
edge $-1 $688 -67.006799141486837 $598 -57.597438321642613 $592 $689 forward 7 unknown #
vertex $-1 $442 $690 #
straight-curve $-1 11.365920627200119 25.795702468418803 15.480867077877072 1 0 0 I I #
coedge $-1 $591 $443 $446 $605 reversed $436 $-1 #
coedge $-1 $443 $591 $596 $687 forward $436 $-1 #
vertex $-1 $444 $691 #
straight-curve $-1 7.5844052845257082 33.503399570743426 70.627400741756574 0 0 1 I I #
straight-curve $-1 7.5844052845257082 -21.385356580435328 48.517400919125649 0 0.81915203911291934 -0.57357644374324357 I I #
edge $-1 $685 -37.879277224274766 $448 -7.5844052845257082 $600 $692 forward 7 unknown #
point $-1 7.5844052845257082 33.503399570743426 15.480867077877068 #
point $-1 7.5844052845257082 25.795702468418824 15.480867077877065 #
edge $-1 $693 1 $693 0 $451 $-1 forward 7 unknown #
vertex $-1 $452 $694 #
ellipse-curve $-1 16.240082981596871 28.308936208322223 10.867776885670208 0 0.57357644374324357 0.81915203911291934 2 0 0 1 I I #
point $-1 18.240082981596871 29.649551019581114 12.78237321940543 #
edge $-1 $695 1 $695 0 $455 $-1 forward 7 unknown #
vertex $-1 $456 $696 #
ellipse-curve $-1 29.223599527203604 28.308936208322223 10.867776885670208 0 0.57357644374324357 0.81915203911291934 2 0 0 1 I I #
point $-1 31.223599527203604 29.649551019581114 12.78237321940543 #
plane-surface $-1 56.605731376079589 0 0 -1 0 0 0 0 1 forward_v I I I I #
coedge $-1 $464 $462 $466 $621 reversed $321 $-1 #
edge $-1 $477 -15.480867077877068 $623 15.480867077877068 $476 $697 forward 7 unknown #
vertex $-1 $621 $698 #
straight-curve $-1 -56.605731376079589 -33.503399570743426 0 0 0 -1 I I #
edge $-1 $619 -33.503399570743426 $623 33.503399570743426 $617 $699 forward 7 unknown #
straight-curve $-1 0 -33.503399570743426 -15.480867077877068 -1 0 0 I I #
vertex $-1 $469 $700 #
straight-curve $-1 0 33.503399570743426 -15.480867077877068 1 0 0 I I #
point $-1 56.605731376079589 33.503399570743426 -15.480867077877068 #
point $-1 56.605731376079589 -33.503399570743426 -15.480867077877068 #
straight-curve $-1 -56.605731376079589 0 15.480867077877068 0 -1 0 I I #
point $-1 -56.605731376079589 33.503399570743426 15.480867077877068 #
point $-1 -56.605731376079589 -33.503399570743426 15.480867077877068 #
straight-curve $-1 56.605731376079589 -33.503399570743426 0 0 0 -1 I I #
straight-curve $-1 56.605731376079589 33.503399570743426 0 0 0 -1 I I #
edge $-1 $633 24.019873630917498 $636 34.772660535519989 $487 $701 forward 7 unknown #
vertex $-1 $501 $702 #
straight-curve $-1 -44.867622284068197 -59.472588019596714 15.480867077877068 0 -1 0 I I #
edge $-1 $636 -25.466995234264715 $498 -13.33425886534225 $497 $703 forward 7 unknown #
vertex $-1 $635 $704 #
straight-curve $-1 -44.867622284068197 -33.503399570743426 4.7280801732745772 0 0.65605901945558964 0.75470958851134928 I I #
point $-1 -44.867622284068197 -24.156144758513978 15.480867077877068 #
point $-1 -32.734885915145732 -33.503399570743426 4.7280801732745772 #
straight-curve $-1 0 -33.503399570743426 15.480867077877068 1 0 0 I I #
vertex $-1 $504 $705 #
point $-1 -40.401126178661777 -27.333711902408595 8.8039683138378422 #
vertex $-1 $508 $706 #
point $-1 -35.201382020552145 -27.333711902408595 8.8039683138378422 #
edge $-1 $646 24.019873630917498 $649 34.772660535519989 $513 $707 forward 7 unknown #
vertex $-1 $527 $708 #
straight-curve $-1 -19.000119550996882 -59.472588019596714 15.480867077877068 0 -1 0 I I #
edge $-1 $649 -12.533243867729055 $524 -0.4005074988065962 $523 $709 forward 7 unknown #
vertex $-1 $648 $710 #
straight-curve $-1 -19.000119550996882 -33.503399570743426 4.7280801732745772 0 0.65605901945558964 0.75470958851134928 I I #
point $-1 -19.000119550996882 -24.156144758513978 15.480867077877068 #
point $-1 -6.8673831820744224 -33.503399570743426 4.7280801732745772 #
straight-curve $-1 0 -33.503399570743426 15.480867077877068 1 0 0 I I #
vertex $-1 $530 $711 #
point $-1 -14.533623445590464 -27.333711902408595 8.8039683138378422 #
vertex $-1 $534 $712 #
point $-1 -9.3338792874808405 -27.333711902408595 8.8039683138378422 #
edge $-1 $659 24.019873630917498 $662 34.772660535519989 $539 $713 forward 7 unknown #
vertex $-1 $553 $714 #
straight-curve $-1 6.8673831820744295 -59.472588019596714 15.480867077877068 0 -1 0 I I #
edge $-1 $662 0.40050749880659975 $550 12.533243867729059 $549 $715 forward 7 unknown #
vertex $-1 $661 $716 #
straight-curve $-1 6.8673831820744295 -33.503399570743426 4.7280801732745772 0 0.65605901945558964 0.75470958851134928 I I #
point $-1 6.8673831820744295 -24.156144758513978 15.480867077877068 #
point $-1 19.000119550996889 -33.503399570743426 4.7280801732745772 #
straight-curve $-1 0 -33.503399570743426 15.480867077877068 1 0 0 I I #
vertex $-1 $556 $717 #
point $-1 11.333879287480841 -27.333711902408595 8.8039683138378422 #
vertex $-1 $560 $718 #
point $-1 16.533623445590464 -27.333711902408595 8.8039683138378422 #
edge $-1 $672 24.019873630917498 $675 34.772660535519989 $565 $719 forward 7 unknown #
vertex $-1 $579 $720 #
straight-curve $-1 32.734885915145732 -59.472588019596714 15.480867077877068 0 -1 0 I I #
edge $-1 $675 13.33425886534225 $576 25.466995234264715 $575 $721 forward 7 unknown #
vertex $-1 $674 $722 #
straight-curve $-1 32.734885915145732 -33.503399570743426 4.7280801732745772 0 0.65605901945558964 0.75470958851134928 I I #
point $-1 32.734885915145732 -24.156144758513978 15.480867077877068 #
point $-1 44.867622284068197 -33.503399570743426 4.7280801732745772 #
straight-curve $-1 0 -33.503399570743426 15.480867077877068 1 0 0 I I #
vertex $-1 $582 $723 #
point $-1 37.201382020552145 -27.333711902408595 8.8039683138378422 #
vertex $-1 $586 $724 #
point $-1 42.401126178661769 -27.333711902408595 8.8039683138378422 #
edge $-1 $685 55.146533663879509 $688 60.543521380822774 $591 $725 forward 7 unknown #
vertex $-1 $605 $726 #
straight-curve $-1 37.879277224274766 21.775035807959405 15.480867077877065 0 1 0 I I #
edge $-1 $688 -26.513356597074647 $602 3.7815153426744104 $601 $727 forward 7 unknown #
vertex $-1 $687 $728 #
straight-curve $-1 37.879277224274766 -21.385356580435328 48.517400919125649 0 -0.81915203911291934 0.57357644374324357 I I #
point $-1 37.879277224274766 25.795702468418824 15.480867077877065 #
point $-1 7.5844052845257082 33.503399570743426 10.0838793609338 #
straight-curve $-1 0 33.503399570743426 15.480867077877068 -1 0 0 I I #
vertex $-1 $608 $729 #
point $-1 18.240082981596871 28.308936208322223 10.867776885670208 #
vertex $-1 $612 $730 #
point $-1 31.223599527203604 28.308936208322223 10.867776885670208 #
straight-curve $-1 -56.605731376079589 33.503399570743426 0 0 0 -1 I I #
point $-1 -56.605731376079589 -33.503399570743426 -15.480867077877068 #
straight-curve $-1 -56.605731376079589 0 -15.480867077877068 0 1 0 I I #
point $-1 -56.605731376079589 33.503399570743426 -15.480867077877068 #
straight-curve $-1 -44.867622284068197 -33.503399570743426 39.500740708794567 0 0 -1 I I #
point $-1 -44.867622284068197 -33.503399570743426 15.480867077877068 #
straight-curve $-1 -19.400627049803482 -33.503399570743426 4.7280801732745772 1 0 0 I I #
point $-1 -44.867622284068197 -33.503399570743426 4.7280801732745772 #
point $-1 -41.401126178661777 -26.579002313897249 8.1479092943822522 #
point $-1 -36.201382020552145 -26.579002313897249 8.1479092943822522 #
straight-curve $-1 -19.000119550996882 -33.503399570743426 39.500740708794567 0 0 -1 I I #
point $-1 -19.000119550996882 -33.503399570743426 15.480867077877068 #
straight-curve $-1 -6.4668756832678262 -33.503399570743426 4.7280801732745772 1 0 0 I I #
point $-1 -19.000119550996882 -33.503399570743426 4.7280801732745772 #
point $-1 -15.533623445590464 -26.579002313897249 8.1479092943822522 #
point $-1 -10.333879287480841 -26.579002313897249 8.1479092943822522 #
straight-curve $-1 6.8673831820744295 -33.503399570743426 39.500740708794567 0 0 -1 I I #
point $-1 6.8673831820744295 -33.503399570743426 15.480867077877068 #
straight-curve $-1 6.4668756832678298 -33.503399570743426 4.7280801732745772 1 0 0 I I #
point $-1 6.8673831820744295 -33.503399570743426 4.7280801732745772 #
point $-1 10.333879287480841 -26.579002313897249 8.1479092943822522 #
point $-1 15.533623445590464 -26.579002313897249 8.1479092943822522 #
straight-curve $-1 32.734885915145732 -33.503399570743426 39.500740708794567 0 0 -1 I I #
point $-1 32.734885915145732 -33.503399570743426 15.480867077877068 #
straight-curve $-1 19.400627049803482 -33.503399570743426 4.7280801732745772 1 0 0 I I #
point $-1 32.734885915145732 -33.503399570743426 4.7280801732745772 #
point $-1 36.201382020552145 -26.579002313897249 8.1479092943822522 #
point $-1 41.401126178661769 -26.579002313897249 8.1479092943822522 #
straight-curve $-1 37.879277224274766 33.503399570743426 70.627400741756574 0 0 -1 I I #
point $-1 37.879277224274766 33.503399570743426 15.480867077877068 #
straight-curve $-1 11.365920627200119 33.503399570743433 10.0838793609338 -1 0 0 I I #
point $-1 37.879277224274766 33.503399570743426 10.0838793609338 #
point $-1 16.240082981596871 27.161783320835738 9.2294728074443686 #
point $-1 29.223599527203604 27.161783320835738 9.2294728074443686 #
End-of-ACIS-data 