500 0 15 0           
7 Unknown 11 ACIS 5.0 NT 24 Fri Mar 26 17:39:15 1999 
-1 9.9999999999999995e-007 1e-010 
body $-1 $15 $-1 $16 #
body $-1 $17 $-1 $18 #
body $-1 $19 $-1 $20 #
body $-1 $21 $-1 $22 #
body $-1 $23 $-1 $24 #
body $-1 $25 $-1 $26 #
body $-1 $27 $-1 $28 #
body $-1 $29 $-1 $30 #
body $-1 $31 $-1 $32 #
body $-1 $33 $-1 $34 #
body $-1 $35 $-1 $36 #
body $-1 $37 $-1 $38 #
body $-1 $39 $-1 $40 #
body $-1 $41 $-1 $42 #
body $-1 $43 $-1 $44 #
lump $-1 $-1 $45 $0 #
transform $-1 1 0 0 0 1 0 0 0 1 41.451460310678428 17.813235966879027 6.0248172735659917 1 rotate no_reflect no_shear #
lump $-1 $-1 $46 $1 #
transform $-1 1 0 0 0 1 0 0 0 1 41.451460310678428 17.813235966879027 6.0248172735659917 1 rotate no_reflect no_shear #
lump $-1 $-1 $47 $2 #
transform $-1 1 0 0 0 1 0 0 0 1 41.451460310678428 17.813235966879027 6.0248172735659917 1 rotate no_reflect no_shear #
lump $-1 $-1 $48 $3 #
transform $-1 1 0 0 0 1 0 0 0 1 41.451460310678428 17.813235966879027 6.0248172735659917 1 rotate no_reflect no_shear #
lump $-1 $-1 $49 $4 #
transform $-1 1 0 0 0 1 0 0 0 1 41.451460310678428 17.813235966879027 6.0248172735659917 1 rotate no_reflect no_shear #
lump $-1 $-1 $50 $5 #
transform $-1 1 0 0 0 1 0 0 0 1 41.451460310678428 17.813235966879027 6.0248172735659917 1 rotate no_reflect no_shear #
lump $-1 $-1 $51 $6 #
transform $-1 1 0 0 0 1 0 0 0 1 41.451460310678428 17.813235966879027 6.0248172735659917 1 rotate no_reflect no_shear #
lump $-1 $-1 $52 $7 #
transform $-1 1 0 0 0 1 0 0 0 1 41.451460310678428 17.813235966879027 6.0248172735659917 1 rotate no_reflect no_shear #
lump $-1 $-1 $53 $8 #
transform $-1 1 0 0 0 1 0 0 0 1 41.451460310678428 17.813235966879027 6.0248172735659917 1 rotate no_reflect no_shear #
lump $-1 $-1 $54 $9 #
transform $-1 1 0 0 0 1 0 0 0 1 41.451460310678428 17.813235966879027 6.0248172735659917 1 rotate no_reflect no_shear #
lump $-1 $-1 $55 $10 #
transform $-1 1 0 0 0 1 0 0 0 1 41.451460310678428 17.813235966879027 6.0248172735659917 1 rotate no_reflect no_shear #
lump $-1 $-1 $56 $11 #
transform $-1 1 0 0 0 1 0 0 0 1 41.451460310678428 17.813235966879027 6.0248172735659917 1 rotate no_reflect no_shear #
lump $-1 $-1 $57 $12 #
transform $-1 1 0 0 0 1 0 0 0 1 41.451460310678428 17.813235966879027 6.0248172735659917 1 rotate no_reflect no_shear #
lump $-1 $-1 $58 $13 #
transform $-1 1 0 0 0 1 0 0 0 1 41.451460310678428 17.813235966879027 6.0248172735659917 1 rotate no_reflect no_shear #
lump $-1 $-1 $59 $14 #
transform $-1 1 0 0 0 1 0 0 0 1 41.451460310678428 17.813235966879027 6.0248172735659917 1 rotate no_reflect no_shear #
shell $-1 $-1 $-1 $60 $-1 $15 #
shell $-1 $-1 $-1 $61 $-1 $17 #
shell $-1 $-1 $-1 $62 $-1 $19 #
shell $-1 $-1 $-1 $63 $-1 $21 #
shell $-1 $-1 $-1 $64 $-1 $23 #
shell $-1 $-1 $-1 $65 $-1 $25 #
shell $-1 $-1 $-1 $66 $-1 $27 #
shell $-1 $-1 $-1 $67 $-1 $29 #
shell $-1 $-1 $-1 $68 $-1 $31 #
shell $-1 $-1 $-1 $69 $-1 $33 #
shell $-1 $-1 $-1 $70 $-1 $35 #
shell $-1 $-1 $-1 $71 $-1 $37 #
shell $-1 $-1 $-1 $72 $-1 $39 #
shell $-1 $-1 $-1 $73 $-1 $41 #
shell $-1 $-1 $-1 $74 $-1 $43 #
face $-1 $75 $76 $45 $-1 $77 forward single #
face $-1 $78 $79 $46 $-1 $80 reversed single #
face $-1 $81 $82 $47 $-1 $83 forward single #
face $-1 $84 $85 $48 $-1 $86 forward single #
face $-1 $87 $88 $49 $-1 $89 reversed single #
face $-1 $90 $91 $50 $-1 $92 forward single #
face $-1 $93 $94 $51 $-1 $95 forward single #
face $-1 $96 $97 $52 $-1 $98 reversed single #
face $-1 $99 $100 $53 $-1 $101 forward single #
face $-1 $102 $103 $54 $-1 $104 forward single #
face $-1 $105 $106 $55 $-1 $107 reversed single #
face $-1 $108 $109 $56 $-1 $110 forward single #
face $-1 $111 $112 $57 $-1 $113 forward single #
face $-1 $114 $115 $58 $-1 $116 reversed single #
face $-1 $117 $118 $59 $-1 $119 forward single #
face $-1 $120 $121 $45 $-1 $122 reversed single #
loop $-1 $-1 $123 $60 #
plane-surface $-1 0 0 6.0248172735659917 0 0 1 1 0 0 forward_v I I I I #
face $-1 $124 $125 $46 $-1 $126 reversed single #
loop $-1 $-1 $127 $61 #
plane-surface $-1 -38.286661979628398 36.180901221868197 88.901433051311329 1 0 0 0 -0.57357644374324357 -0.81915203911291934 forward_v I I I I #
face $-1 $128 $129 $47 $-1 $130 forward single #
loop $-1 $131 $132 $62 #
cone-surface $-1 -35.578290512289691 13.611267224911847 2.8660612934347292 0 -0.57357644374324357 -0.81915203911291934 1 0 0 1 I I 0 1 1 forward I I I I #
face $-1 $133 $134 $48 $-1 $135 forward single #
loop $-1 $136 $137 $63 #
cone-surface $-1 -31.515733311281622 13.611267224911847 2.8660612934347292 0 -0.57357644374324357 -0.81915203911291934 1 0 0 1 I I 0 1 1 forward I I I I #
face $-1 $138 $139 $49 $-1 $140 reversed single #
loop $-1 $-1 $141 $64 #
plane-surface $-1 -17.560931824289192 36.180901221868197 88.901433051311329 1 0 0 0 -0.57357644374324357 -0.81915203911291934 forward_v I I I I #
face $-1 $142 $143 $50 $-1 $144 forward single #
loop $-1 $145 $146 $65 #
cone-surface $-1 -14.852560356950477 13.611267224911847 2.8660612934347292 0 -0.57357644374324357 -0.81915203911291934 1 0 0 1 I I 0 1 1 forward I I I I #
face $-1 $147 $148 $51 $-1 $149 forward single #
loop $-1 $150 $151 $66 #
cone-surface $-1 -10.790003155942408 13.611267224911847 2.8660612934347292 0 -0.57357644374324357 -0.81915203911291934 1 0 0 1 I I 0 1 1 forward I I I I #
face $-1 $152 $153 $52 $-1 $154 reversed single #
loop $-1 $-1 $155 $67 #
plane-surface $-1 3.1647983310500196 36.180901221868197 88.901433051311329 1 0 0 0 -0.57357644374324357 -0.81915203911291934 forward_v I I I I #
face $-1 $156 $157 $53 $-1 $158 forward single #
loop $-1 $159 $160 $68 #
cone-surface $-1 5.8731697983887372 13.611267224911847 2.8660612934347292 0 -0.57357644374324357 -0.81915203911291934 1 0 0 1 I I 0 1 1 forward I I I I #
face $-1 $161 $162 $54 $-1 $163 forward single #
loop $-1 $164 $165 $69 #
cone-surface $-1 9.935726999396806 13.611267224911847 2.8660612934347292 0 -0.57357644374324357 -0.81915203911291934 1 0 0 1 I I 0 1 1 forward I I I I #
face $-1 $166 $167 $55 $-1 $168 reversed single #
loop $-1 $-1 $169 $70 #
plane-surface $-1 23.89052848638924 36.180901221868197 88.901433051311329 1 0 0 0 -0.57357644374324357 -0.81915203911291934 forward_v I I I I #
face $-1 $170 $171 $56 $-1 $172 forward single #
loop $-1 $173 $174 $71 #
cone-surface $-1 26.598899953727951 13.611267224911847 2.8660612934347292 0 -0.57357644374324357 -0.81915203911291934 1 0 0 1 I I 0 1 1 forward I I I I #
face $-1 $175 $176 $57 $-1 $177 forward single #
loop $-1 $178 $179 $72 #
cone-surface $-1 30.661457154736027 13.611267224911847 2.8660612934347292 0 -0.57357644374324357 -0.81915203911291934 1 0 0 1 I I 0 1 1 forward I I I I #
face $-1 $180 $181 $58 $-1 $182 reversed single #
loop $-1 $-1 $183 $73 #
plane-surface $-1 -21.737380071732218 -65.36439835280531 68.38181546914231 -1 0 0 0 -0.57357644374324357 0.81915203911291934 forward_v I I I I #
face $-1 $184 $185 $59 $-1 $186 forward single #
loop $-1 $187 $188 $74 #
cone-surface $-1 -31.594420191205323 -13.406181865851487 2.6174108166269425 0 0.57357644374324357 -0.81915203911291934 1 0 0 1 I I 0 1 1 forward I I I I #
face $-1 $189 $190 $45 $-1 $191 reversed single #
loop $-1 $-1 $192 $75 #
plane-surface $-1 0 0 -6.0248172735659917 0 0 1 1 0 0 forward_v I I I I #
coedge $-1 $193 $194 $195 $196 forward $76 $-1 #
face $-1 $197 $198 $46 $-1 $199 reversed single #
loop $-1 $-1 $200 $78 #
plane-surface $-1 -33.547011911785653 -11.370261164058078 20.991336575910367 0 0.57357644374324357 0.81915203911291934 1 0 0 forward_v I I I I #
coedge $-1 $201 $202 $203 $204 reversed $79 $-1 #
face $-1 $-1 $205 $47 $-1 $206 forward single #
loop $-1 $207 $208 $81 #
cone-surface $-1 -35.578290512289691 13.02705667705245 2.0317221800165299 0 -0.57357644374324357 -0.81915203911291934 0.5 0 0 1 I I -0.70710678118654746 0.70710678118654746 0.5 forward I I I I #
loop $-1 $-1 $209 $62 #
coedge $-1 $132 $132 $210 $211 reversed $82 $-1 #
face $-1 $-1 $212 $48 $-1 $213 forward single #
loop $-1 $214 $215 $84 #
cone-surface $-1 -31.515733311281622 13.02705667705245 2.0317221800165299 0 -0.57357644374324357 -0.81915203911291934 0.5 0 0 1 I I -0.70710678118654746 0.70710678118654746 0.5 forward I I I I #
loop $-1 $-1 $216 $63 #
coedge $-1 $137 $137 $217 $218 reversed $85 $-1 #
face $-1 $219 $220 $49 $-1 $221 reversed single #
loop $-1 $-1 $222 $87 #
plane-surface $-1 -12.821281756446442 -11.370261164058078 20.991336575910367 0 0.57357644374324357 0.81915203911291934 1 0 0 forward_v I I I I #
coedge $-1 $223 $224 $225 $226 reversed $88 $-1 #
face $-1 $-1 $227 $50 $-1 $228 forward single #
loop $-1 $229 $230 $90 #
cone-surface $-1 -14.852560356950477 13.02705667705245 2.0317221800165299 0 -0.57357644374324357 -0.81915203911291934 0.5 0 0 1 I I -0.70710678118654746 0.70710678118654746 0.5 forward I I I I #
loop $-1 $-1 $231 $65 #
coedge $-1 $146 $146 $232 $233 reversed $91 $-1 #
face $-1 $-1 $234 $51 $-1 $235 forward single #
loop $-1 $236 $237 $93 #
cone-surface $-1 -10.790003155942408 13.02705667705245 2.0317221800165299 0 -0.57357644374324357 -0.81915203911291934 0.5 0 0 1 I I -0.70710678118654746 0.70710678118654746 0.5 forward I I I I #
loop $-1 $-1 $238 $66 #
coedge $-1 $151 $151 $239 $240 reversed $94 $-1 #
face $-1 $241 $242 $52 $-1 $243 reversed single #
loop $-1 $-1 $244 $96 #
plane-surface $-1 7.9044483988927681 -11.370261164058078 20.991336575910367 0 0.57357644374324357 0.81915203911291934 1 0 0 forward_v I I I I #
coedge $-1 $245 $246 $247 $248 reversed $97 $-1 #
face $-1 $-1 $249 $53 $-1 $250 forward single #
loop $-1 $251 $252 $99 #
cone-surface $-1 5.8731697983887372 13.02705667705245 2.0317221800165299 0 -0.57357644374324357 -0.81915203911291934 0.5 0 0 1 I I -0.70710678118654746 0.70710678118654746 0.5 forward I I I I #
loop $-1 $-1 $253 $68 #
coedge $-1 $160 $160 $254 $255 reversed $100 $-1 #
face $-1 $-1 $256 $54 $-1 $257 forward single #
loop $-1 $258 $259 $102 #
cone-surface $-1 9.935726999396806 13.02705667705245 2.0317221800165299 0 -0.57357644374324357 -0.81915203911291934 0.5 0 0 1 I I -0.70710678118654746 0.70710678118654746 0.5 forward I I I I #
loop $-1 $-1 $260 $69 #
coedge $-1 $165 $165 $261 $262 reversed $103 $-1 #
face $-1 $263 $264 $55 $-1 $265 reversed single #
loop $-1 $-1 $266 $105 #
plane-surface $-1 28.630178554231989 -11.370261164058078 20.991336575910367 0 0.57357644374324357 0.81915203911291934 1 0 0 forward_v I I I I #
coedge $-1 $267 $268 $269 $270 reversed $106 $-1 #
face $-1 $-1 $271 $56 $-1 $272 forward single #
loop $-1 $273 $274 $108 #
cone-surface $-1 26.598899953727951 13.02705667705245 2.0317221800165299 0 -0.57357644374324357 -0.81915203911291934 0.5 0 0 1 I I -0.70710678118654746 0.70710678118654746 0.5 forward I I I I #
loop $-1 $-1 $275 $71 #
coedge $-1 $174 $174 $276 $277 reversed $109 $-1 #
face $-1 $-1 $278 $57 $-1 $279 forward single #
loop $-1 $280 $281 $111 #
cone-surface $-1 30.661457154736027 13.02705667705245 2.0317221800165299 0 -0.57357644374324357 -0.81915203911291934 0.5 0 0 1 I I -0.70710678118654746 0.70710678118654746 0.5 forward I I I I #
loop $-1 $-1 $282 $72 #
coedge $-1 $179 $179 $283 $284 reversed $112 $-1 #
face $-1 $285 $286 $58 $-1 $287 forward single #
loop $-1 $-1 $288 $114 #
plane-surface $-1 -31.594420191205323 -17.813235966879034 0.47171899374134796 0 -0.57357644374324357 0.81915203911291934 1 0 0 forward_v I I I I #
coedge $-1 $289 $290 $291 $292 reversed $115 $-1 #
face $-1 $-1 $293 $59 $-1 $294 forward single #
loop $-1 $295 $296 $117 #
cone-surface $-1 -31.594420191205323 -12.677662586578798 1.5769774800437633 0 0.57357644374324357 -0.81915203911291934 0.5 0 0 1 I I -0.70710678118654746 0.70710678118654746 0.5 forward I I I I #
loop $-1 $-1 $297 $74 #
coedge $-1 $188 $188 $298 $299 reversed $118 $-1 #
face $-1 $300 $301 $45 $-1 $302 reversed single #
loop $-1 $-1 $303 $120 #
plane-surface $-1 0 -17.813235966879027 0 0 1 0 0 0 1 forward_v I I I I #
coedge $-1 $304 $305 $306 $307 forward $121 $-1 #
coedge $-1 $308 $123 $309 $310 forward $76 $-1 #
coedge $-1 $123 $308 $311 $312 forward $76 $-1 #
coedge $-1 $313 $314 $123 $196 reversed $315 $-1 #
edge $-1 $316 -17.813235966879027 $317 17.813235966879027 $195 $318 forward 7 unknown #
face $-1 $319 $320 $46 $-1 $321 reversed single #
loop $-1 $-1 $322 $124 #
plane-surface $-1 -28.807361843942903 36.180901221868197 88.901433051311329 -1 0 0 0 0.57357644374324357 0.81915203911291934 forward_v I I I I #
coedge $-1 $323 $324 $325 $326 reversed $125 $-1 #
coedge $-1 $202 $127 $327 $328 reversed $79 $-1 #
coedge $-1 $127 $201 $323 $329 reversed $79 $-1 #
coedge $-1 $325 $330 $127 $204 forward $331 $-1 #
edge $-1 $332 0.27721464405507135 $333 8.0863074760138893 $203 $334 forward 7 unknown #
loop $-1 $-1 $210 $128 #
plane-surface $-1 -33.547011911785653 -11.370261164058078 20.991336575910367 0 0.57357644374324357 0.81915203911291934 1 0 0 forward_v I I I I #
loop $-1 $-1 $335 $81 #
coedge $-1 $208 $208 $209 $336 reversed $129 $-1 #
coedge $-1 $209 $209 $208 $336 forward $131 $-1 #
coedge $-1 $210 $210 $132 $211 forward $205 $-1 #
edge $-1 $337 1.0830244777778638e-016 $337 6.2831853071796004 $210 $338 forward 7 unknown #
loop $-1 $-1 $217 $133 #
plane-surface $-1 -33.547011911785653 -11.370261164058078 20.991336575910367 0 0.57357644374324357 0.81915203911291934 1 0 0 forward_v I I I I #
loop $-1 $-1 $339 $84 #
coedge $-1 $215 $215 $216 $340 reversed $134 $-1 #
coedge $-1 $216 $216 $215 $340 forward $136 $-1 #
coedge $-1 $217 $217 $137 $218 forward $212 $-1 #
edge $-1 $341 1.0830244777778638e-016 $341 6.2831853071796004 $217 $342 forward 7 unknown #
face $-1 $343 $344 $49 $-1 $345 forward single #
loop $-1 $-1 $346 $138 #
plane-surface $-1 -8.081631688603693 36.180901221868197 88.901433051311329 -1 0 0 0 0.57357644374324357 0.81915203911291934 forward_v I I I I #
coedge $-1 $347 $348 $349 $350 reversed $139 $-1 #
coedge $-1 $224 $141 $351 $352 reversed $88 $-1 #
coedge $-1 $141 $223 $347 $353 reversed $88 $-1 #
coedge $-1 $349 $354 $141 $226 forward $344 $-1 #
edge $-1 $355 0.27721464405507135 $356 8.0863074760138893 $225 $357 forward 7 unknown #
loop $-1 $-1 $232 $142 #
plane-surface $-1 -12.821281756446442 -11.370261164058078 20.991336575910367 0 0.57357644374324357 0.81915203911291934 1 0 0 forward_v I I I I #
loop $-1 $-1 $358 $90 #
coedge $-1 $230 $230 $231 $359 reversed $143 $-1 #
coedge $-1 $231 $231 $230 $359 forward $145 $-1 #
coedge $-1 $232 $232 $146 $233 forward $227 $-1 #
edge $-1 $360 1.0830244777778638e-016 $360 6.2831853071796004 $232 $361 forward 7 unknown #
loop $-1 $-1 $239 $147 #
plane-surface $-1 -12.821281756446442 -11.370261164058078 20.991336575910367 0 0.57357644374324357 0.81915203911291934 1 0 0 forward_v I I I I #
loop $-1 $-1 $362 $93 #
coedge $-1 $237 $237 $238 $363 reversed $148 $-1 #
coedge $-1 $238 $238 $237 $363 forward $150 $-1 #
coedge $-1 $239 $239 $151 $240 forward $234 $-1 #
edge $-1 $364 1.0830244777778638e-016 $364 6.2831853071796004 $239 $365 forward 7 unknown #
face $-1 $366 $367 $52 $-1 $368 forward single #
loop $-1 $-1 $369 $152 #
plane-surface $-1 12.644098466735517 36.180901221868197 88.901433051311329 -1 0 0 0 0.57357644374324357 0.81915203911291934 forward_v I I I I #
coedge $-1 $370 $371 $372 $373 reversed $153 $-1 #
coedge $-1 $246 $155 $374 $375 reversed $97 $-1 #
coedge $-1 $155 $245 $370 $376 reversed $97 $-1 #
coedge $-1 $372 $377 $155 $248 forward $367 $-1 #
edge $-1 $378 0.27721464405507135 $379 8.0863074760138893 $247 $380 forward 7 unknown #
loop $-1 $-1 $254 $156 #
plane-surface $-1 7.9044483988927681 -11.370261164058078 20.991336575910367 0 0.57357644374324357 0.81915203911291934 1 0 0 forward_v I I I I #
loop $-1 $-1 $381 $99 #
coedge $-1 $252 $252 $253 $382 reversed $157 $-1 #
coedge $-1 $253 $253 $252 $382 forward $159 $-1 #
coedge $-1 $254 $254 $160 $255 forward $249 $-1 #
edge $-1 $383 1.0830244777778638e-016 $383 6.2831853071796004 $254 $384 forward 7 unknown #
loop $-1 $-1 $261 $161 #
plane-surface $-1 7.9044483988927681 -11.370261164058078 20.991336575910367 0 0.57357644374324357 0.81915203911291934 1 0 0 forward_v I I I I #
loop $-1 $-1 $385 $102 #
coedge $-1 $259 $259 $260 $386 reversed $162 $-1 #
coedge $-1 $260 $260 $259 $386 forward $164 $-1 #
coedge $-1 $261 $261 $165 $262 forward $256 $-1 #
edge $-1 $387 1.0830244777778638e-016 $387 6.2831853071796004 $261 $388 forward 7 unknown #
face $-1 $389 $390 $55 $-1 $391 forward single #
loop $-1 $-1 $392 $166 #
plane-surface $-1 33.369828622074735 36.180901221868197 88.901433051311329 -1 0 0 0 0.57357644374324357 0.81915203911291934 forward_v I I I I #
coedge $-1 $393 $394 $395 $396 reversed $167 $-1 #
coedge $-1 $268 $169 $397 $398 reversed $106 $-1 #
coedge $-1 $169 $267 $393 $399 reversed $106 $-1 #
coedge $-1 $395 $400 $169 $270 forward $390 $-1 #
edge $-1 $401 0.27721464405507135 $402 8.0863074760138893 $269 $403 forward 7 unknown #
loop $-1 $-1 $276 $170 #
plane-surface $-1 28.630178554231989 -11.370261164058078 20.991336575910367 0 0.57357644374324357 0.81915203911291934 1 0 0 forward_v I I I I #
loop $-1 $-1 $404 $108 #
coedge $-1 $274 $274 $275 $405 reversed $171 $-1 #
coedge $-1 $275 $275 $274 $405 forward $173 $-1 #
coedge $-1 $276 $276 $174 $277 forward $271 $-1 #
edge $-1 $406 1.0830244777778638e-016 $406 6.2831853071796004 $276 $407 forward 7 unknown #
loop $-1 $-1 $283 $175 #
plane-surface $-1 28.630178554231989 -11.370261164058078 20.991336575910367 0 0.57357644374324357 0.81915203911291934 1 0 0 forward_v I I I I #
loop $-1 $-1 $408 $111 #
coedge $-1 $281 $281 $282 $409 reversed $176 $-1 #
coedge $-1 $282 $282 $281 $409 forward $178 $-1 #
coedge $-1 $283 $283 $179 $284 forward $278 $-1 #
edge $-1 $410 1.0830244777778638e-016 $410 6.2831853071796004 $283 $411 forward 7 unknown #
face $-1 $412 $413 $58 $-1 $414 reversed single #
loop $-1 $-1 $291 $180 #
plane-surface $-1 0 0 6.0248172735659917 0 0 1 1 0 0 forward_v I I I I #
coedge $-1 $415 $416 $417 $418 reversed $181 $-1 #
coedge $-1 $290 $183 $419 $420 reversed $115 $-1 #
coedge $-1 $183 $289 $415 $421 reversed $115 $-1 #
coedge $-1 $417 $422 $183 $292 forward $286 $-1 #
edge $-1 $423 14.868963209523628 $424 22.799609296776545 $291 $425 forward 7 unknown #
loop $-1 $-1 $298 $184 #
plane-surface $-1 -31.594420191205323 -17.813235966879034 0.47171899374134796 0 -0.57357644374324357 0.81915203911291934 1 0 0 forward_v I I I I #
loop $-1 $-1 $426 $117 #
coedge $-1 $296 $296 $297 $427 reversed $185 $-1 #
coedge $-1 $297 $297 $296 $427 forward $187 $-1 #
coedge $-1 $298 $298 $188 $299 forward $293 $-1 #
edge $-1 $428 8.3434556271445129e-016 $428 6.2831853071796013 $298 $429 forward 7 unknown #
face $-1 $430 $431 $45 $-1 $432 reversed single #
loop $-1 $-1 $433 $189 #
plane-surface $-1 -41.451460310678428 0 0 1 0 0 0 0 -1 forward_v I I I I #
coedge $-1 $434 $311 $435 $436 forward $190 $-1 #
coedge $-1 $437 $192 $434 $438 forward $121 $-1 #
coedge $-1 $192 $437 $439 $440 forward $121 $-1 #
coedge $-1 $314 $313 $192 $307 reversed $315 $-1 #
edge $-1 $441 -17.813235966879027 $442 17.813235966879027 $306 $443 forward 7 unknown #
coedge $-1 $194 $193 $444 $445 forward $76 $-1 #
coedge $-1 $446 $447 $193 $310 reversed $431 $-1 #
edge $-1 $317 -41.451460310678428 $448 41.451460310678428 $309 $449 forward 7 unknown #
coedge $-1 $303 $450 $194 $312 reversed $190 $-1 #
edge $-1 $451 -41.451460310678428 $316 41.451460310678428 $311 $452 forward 7 unknown #
coedge $-1 $306 $195 $450 $453 forward $315 $-1 #
coedge $-1 $195 $306 $446 $454 reversed $315 $-1 #
loop $-1 $-1 $313 $430 #
vertex $-1 $196 $455 #
vertex $-1 $196 $456 #
straight-curve $-1 41.451460310678428 0 6.0248172735659917 0 1 0 I I #
face $-1 $-1 $331 $46 $-1 $457 forward single #
loop $-1 $-1 $458 $197 #
plane-surface $-1 0 17.813235966879027 0 0 -1 0 0 0 -1 forward_v I I I I #
coedge $-1 $459 $460 $461 $462 reversed $198 $-1 #
coedge $-1 $463 $200 $202 $329 forward $125 $-1 #
coedge $-1 $200 $463 $459 $464 forward $125 $-1 #
coedge $-1 $461 $203 $200 $326 forward $331 $-1 #
edge $-1 $333 -21.513156023735572 $465 -12.033855888050077 $325 $466 forward 7 unknown #
coedge $-1 $467 $468 $201 $328 forward $320 $-1 #
edge $-1 $469 -43.893885024628723 $332 -38.425899252089671 $327 $470 forward 7 unknown #
edge $-1 $333 26.093329782985311 $469 35.626471933758054 $202 $471 forward 7 unknown #
coedge $-1 $203 $461 $467 $472 forward $331 $-1 #
loop $-1 $-1 $461 $319 #
vertex $-1 $328 $473 #
vertex $-1 $204 $474 #
straight-curve $-1 -38.286661979628398 18.090450610934099 6.0248172735659935 0 -1 0 I I #
coedge $-1 $335 $335 $-1 $475 reversed $207 $-1 #
edge $-1 $476 0 $476 6.2831853071796004 $208 $477 forward 7 unknown #
vertex $-1 $211 $478 #
ellipse-curve $-1 -35.578290512289691 13.90868955089962 3.2908243872964635 0 0.57357644374324357 0.81915203911291934 1 0 0 1 I I #
coedge $-1 $339 $339 $-1 $479 reversed $214 $-1 #
edge $-1 $480 0 $480 6.2831853071796004 $215 $481 forward 7 unknown #
vertex $-1 $218 $482 #
ellipse-curve $-1 -31.515733311281622 13.90868955089962 3.2908243872964635 0 0.57357644374324357 0.81915203911291934 1 0 0 1 I I #
face $-1 $-1 $483 $49 $-1 $484 reversed single #
loop $-1 $-1 $225 $219 #
plane-surface $-1 0 0 6.0248172735659917 0 0 1 1 0 0 forward_v I I I I #
coedge $-1 $485 $486 $487 $488 reversed $220 $-1 #
coedge $-1 $489 $222 $224 $353 forward $139 $-1 #
coedge $-1 $222 $489 $485 $490 forward $139 $-1 #
coedge $-1 $487 $225 $222 $350 forward $344 $-1 #
edge $-1 $356 -11.15029094606597 $491 -1.6709908103804718 $349 $492 forward 7 unknown #
coedge $-1 $493 $494 $223 $352 forward $483 $-1 #
edge $-1 $495 -43.893885024628723 $355 -38.425899252089671 $351 $496 forward 7 unknown #
edge $-1 $356 26.093329782985311 $495 35.626471933758054 $224 $497 forward 7 unknown #
coedge $-1 $225 $487 $493 $498 forward $344 $-1 #
vertex $-1 $226 $499 #
vertex $-1 $226 $500 #
straight-curve $-1 -17.560931824289192 18.090450610934099 6.0248172735659935 0 -1 0 I I #
coedge $-1 $358 $358 $-1 $501 reversed $229 $-1 #
edge $-1 $502 0 $502 6.2831853071796004 $230 $503 forward 7 unknown #
vertex $-1 $233 $504 #
ellipse-curve $-1 -14.852560356950477 13.90868955089962 3.2908243872964635 0 0.57357644374324357 0.81915203911291934 1 0 0 1 I I #
coedge $-1 $362 $362 $-1 $505 reversed $236 $-1 #
edge $-1 $506 0 $506 6.2831853071796004 $237 $507 forward 7 unknown #
vertex $-1 $240 $508 #
ellipse-curve $-1 -10.790003155942408 13.90868955089962 3.2908243872964635 0 0.57357644374324357 0.81915203911291934 1 0 0 1 I I #
face $-1 $-1 $509 $52 $-1 $510 reversed single #
loop $-1 $-1 $247 $241 #
plane-surface $-1 0 0 6.0248172735659917 0 0 1 1 0 0 forward_v I I I I #
coedge $-1 $511 $512 $513 $514 reversed $242 $-1 #
coedge $-1 $515 $244 $246 $376 forward $153 $-1 #
coedge $-1 $244 $515 $511 $516 forward $153 $-1 #
coedge $-1 $513 $247 $244 $373 forward $367 $-1 #
edge $-1 $379 -0.78742586839636441 $517 8.6918742672891334 $372 $518 forward 7 unknown #
coedge $-1 $519 $520 $245 $375 forward $509 $-1 #
edge $-1 $521 -43.893885024628723 $378 -38.425899252089671 $374 $522 forward 7 unknown #
edge $-1 $379 26.093329782985311 $521 35.626471933758054 $246 $523 forward 7 unknown #
coedge $-1 $247 $513 $519 $524 forward $367 $-1 #
vertex $-1 $248 $525 #
vertex $-1 $248 $526 #
straight-curve $-1 3.1647983310500196 18.090450610934099 6.0248172735659935 0 -1 0 I I #
coedge $-1 $381 $381 $-1 $527 reversed $251 $-1 #
edge $-1 $528 0 $528 6.2831853071796004 $252 $529 forward 7 unknown #
vertex $-1 $255 $530 #
ellipse-curve $-1 5.8731697983887372 13.90868955089962 3.2908243872964635 0 0.57357644374324357 0.81915203911291934 1 0 0 1 I I #
coedge $-1 $385 $385 $-1 $531 reversed $258 $-1 #
edge $-1 $532 0 $532 6.2831853071796004 $259 $533 forward 7 unknown #
vertex $-1 $262 $534 #
ellipse-curve $-1 9.935726999396806 13.90868955089962 3.2908243872964635 0 0.57357644374324357 0.81915203911291934 1 0 0 1 I I #
face $-1 $-1 $535 $55 $-1 $536 reversed single #
loop $-1 $-1 $269 $263 #
plane-surface $-1 0 0 6.0248172735659917 0 0 1 1 0 0 forward_v I I I I #
coedge $-1 $537 $538 $539 $540 reversed $264 $-1 #
coedge $-1 $541 $266 $268 $399 forward $167 $-1 #
coedge $-1 $266 $541 $537 $542 forward $167 $-1 #
coedge $-1 $539 $269 $266 $396 forward $390 $-1 #
edge $-1 $402 9.5754392092732452 $543 19.05473934495874 $395 $544 forward 7 unknown #
coedge $-1 $545 $546 $267 $398 forward $535 $-1 #
edge $-1 $547 -43.893885024628723 $401 -38.425899252089671 $397 $548 forward 7 unknown #
edge $-1 $402 26.093329782985311 $547 35.626471933758054 $268 $549 forward 7 unknown #
coedge $-1 $269 $539 $545 $550 forward $390 $-1 #
vertex $-1 $270 $551 #
vertex $-1 $270 $552 #
straight-curve $-1 23.89052848638924 18.090450610934099 6.0248172735659935 0 -1 0 I I #
coedge $-1 $404 $404 $-1 $553 reversed $273 $-1 #
edge $-1 $554 0 $554 6.2831853071796004 $274 $555 forward 7 unknown #
vertex $-1 $277 $556 #
ellipse-curve $-1 26.598899953727951 13.90868955089962 3.2908243872964635 0 0.57357644374324357 0.81915203911291934 1 0 0 1 I I #
coedge $-1 $408 $408 $-1 $557 reversed $280 $-1 #
edge $-1 $558 0 $558 6.2831853071796004 $281 $559 forward 7 unknown #
vertex $-1 $284 $560 #
ellipse-curve $-1 30.661457154736027 13.90868955089962 3.2908243872964635 0 0.57357644374324357 0.81915203911291934 1 0 0 1 I I #
face $-1 $-1 $561 $58 $-1 $562 reversed single #
loop $-1 $-1 $563 $285 #
plane-surface $-1 -41.451460310678428 0 0 1 0 0 0 0 -1 forward_v I I I I #
coedge $-1 $564 $288 $290 $421 forward $181 $-1 #
coedge $-1 $288 $564 $563 $565 reversed $181 $-1 #
coedge $-1 $566 $291 $288 $418 forward $286 $-1 #
edge $-1 $424 5.9401699761295568 $567 25.654250215075766 $417 $568 forward 7 unknown #
coedge $-1 $569 $570 $289 $420 forward $561 $-1 #
edge $-1 $571 -33.7191887408298 $423 -28.166090461005162 $419 $572 forward 7 unknown #
edge $-1 $424 -9.6815312769546704 $571 -8.6860152927662243e-015 $290 $573 forward 7 unknown #
coedge $-1 $291 $566 $569 $574 forward $286 $-1 #
vertex $-1 $420 $575 #
vertex $-1 $292 $576 #
straight-curve $-1 -21.737380071732218 -32.682199176402655 6.0248172735659935 0 1 0 I I #
coedge $-1 $426 $426 $-1 $577 reversed $295 $-1 #
edge $-1 $578 0 $578 6.2831853071796004 $296 $579 forward 7 unknown #
vertex $-1 $299 $580 #
ellipse-curve $-1 -31.594420191205323 -13.847912923252563 3.2482681336536761 0 -0.57357644374324357 0.81915203911291934 1 0 0 1 I I #
face $-1 $-1 $315 $45 $-1 $581 reversed single #
loop $-1 $-1 $446 $300 #
plane-surface $-1 0 17.813235966879027 0 0 -1 0 0 0 -1 forward_v I I I I #
coedge $-1 $582 $444 $447 $583 forward $301 $-1 #
coedge $-1 $450 $303 $304 $438 reversed $190 $-1 #
coedge $-1 $444 $582 $303 $436 reversed $301 $-1 #
edge $-1 $451 -6.0248172735659917 $584 6.0248172735659917 $435 $585 forward 7 unknown #
coedge $-1 $305 $304 $582 $586 forward $121 $-1 #
edge $-1 $442 -41.451460310678428 $584 41.451460310678428 $434 $587 forward 7 unknown #
coedge $-1 $447 $446 $305 $440 reversed $431 $-1 #
edge $-1 $588 -41.451460310678428 $441 41.451460310678428 $439 $589 forward 7 unknown #
vertex $-1 $307 $590 #
vertex $-1 $453 $591 #
straight-curve $-1 41.451460310678428 0 -6.0248172735659917 0 -1 0 I I #
coedge $-1 $433 $435 $308 $445 reversed $301 $-1 #
edge $-1 $448 -17.813235966879027 $451 17.813235966879027 $444 $592 forward 7 unknown #
coedge $-1 $439 $309 $314 $454 forward $431 $-1 #
coedge $-1 $309 $439 $433 $583 reversed $431 $-1 #
vertex $-1 $310 $593 #
straight-curve $-1 0 17.813235966879027 6.0248172735659917 -1 0 0 I I #
coedge $-1 $311 $434 $313 $453 reversed $190 $-1 #
vertex $-1 $445 $594 #
straight-curve $-1 0 -17.813235966879027 6.0248172735659917 1 0 0 I I #
edge $-1 $316 -6.0248172735659917 $442 6.0248172735659917 $313 $595 forward 7 unknown #
edge $-1 $317 -6.0248172735659917 $441 6.0248172735659917 $314 $596 forward 7 unknown #
point $-1 41.451460310678428 -17.813235966879027 6.0248172735659917 #
point $-1 41.451460310678428 17.813235966879027 6.0248172735659917 #
plane-surface $-1 0 0 6.0248172735659917 0 0 1 1 0 0 forward_v I I I I #
coedge $-1 $468 $467 $460 $597 forward $320 $-1 #
coedge $-1 $460 $322 $324 $464 reversed $198 $-1 #
coedge $-1 $322 $459 $458 $597 reversed $198 $-1 #
coedge $-1 $330 $325 $322 $462 forward $331 $-1 #
edge $-1 $465 -8.0863074760138893 $598 -0.27721464405507135 $461 $599 forward 7 unknown #
coedge $-1 $324 $323 $468 $600 reversed $125 $-1 #
edge $-1 $601 -35.626471933758054 $465 -26.093329782985311 $459 $602 forward 7 unknown #
vertex $-1 $326 $603 #
straight-curve $-1 -16.773505955892826 10.004143134920209 6.0248172735659935 1 0 0 I I #
coedge $-1 $458 $327 $330 $472 reversed $320 $-1 #
coedge $-1 $327 $458 $463 $600 forward $320 $-1 #
vertex $-1 $328 $604 #
straight-curve $-1 -38.286661979628398 17.813235966879027 44.450716525655665 0 0 1 I I #
straight-curve $-1 -38.286661979628398 -11.370261164058078 20.991336575910367 0 0.81915203911291934 -0.57357644374324357 I I #
edge $-1 $598 28.807361843942903 $332 38.286661979628398 $467 $605 forward 7 unknown #
point $-1 -38.286661979628398 17.813235966879027 6.0248172735659917 #
point $-1 -38.286661979628398 10.004143134920209 6.02481727356599 #
edge $-1 $606 1 $606 0 $335 $-1 forward 7 unknown #
vertex $-1 $336 $607 #
ellipse-curve $-1 -35.578290512289691 13.313844898924071 2.4412981995729894 0 0.57357644374324357 0.81915203911291934 1 0 0 1 I I #
point $-1 -34.578290512289691 13.908689550899624 3.2908243872964684 #
edge $-1 $608 1 $608 0 $339 $-1 forward 7 unknown #
vertex $-1 $340 $609 #
ellipse-curve $-1 -31.515733311281622 13.313844898924071 2.4412981995729894 0 0.57357644374324357 0.81915203911291934 1 0 0 1 I I #
point $-1 -30.515733311281622 13.908689550899624 3.2908243872964684 #
loop $-1 $-1 $351 $343 #
plane-surface $-1 0 17.813235966879027 0 0 -1 0 0 0 -1 forward_v I I I I #
coedge $-1 $486 $346 $348 $490 reversed $220 $-1 #
coedge $-1 $346 $485 $610 $611 reversed $220 $-1 #
coedge $-1 $354 $349 $346 $488 forward $344 $-1 #
edge $-1 $491 -8.0863074760138893 $612 -0.27721464405507135 $487 $613 forward 7 unknown #
coedge $-1 $348 $347 $494 $614 reversed $139 $-1 #
edge $-1 $615 -35.626471933758054 $491 -26.093329782985311 $485 $616 forward 7 unknown #
vertex $-1 $350 $617 #
straight-curve $-1 -6.4106408782232212 10.004143134920209 6.0248172735659935 1 0 0 I I #
coedge $-1 $610 $351 $354 $498 reversed $483 $-1 #
coedge $-1 $351 $610 $489 $614 forward $483 $-1 #
vertex $-1 $352 $618 #
straight-curve $-1 -17.560931824289192 17.813235966879027 44.450716525655665 0 0 1 I I #
straight-curve $-1 -17.560931824289192 -11.370261164058078 20.991336575910367 0 0.81915203911291934 -0.57357644374324357 I I #
edge $-1 $612 8.081631688603693 $355 17.560931824289192 $493 $619 forward 7 unknown #
point $-1 -17.560931824289192 17.813235966879027 6.0248172735659917 #
point $-1 -17.560931824289192 10.004143134920209 6.02481727356599 #
edge $-1 $620 1 $620 0 $358 $-1 forward 7 unknown #
vertex $-1 $359 $621 #
ellipse-curve $-1 -14.852560356950477 13.313844898924071 2.4412981995729894 0 0.57357644374324357 0.81915203911291934 1 0 0 1 I I #
point $-1 -13.852560356950477 13.908689550899624 3.2908243872964684 #
edge $-1 $622 1 $622 0 $362 $-1 forward 7 unknown #
vertex $-1 $363 $623 #
ellipse-curve $-1 -10.790003155942408 13.313844898924071 2.4412981995729894 0 0.57357644374324357 0.81915203911291934 1 0 0 1 I I #
point $-1 -9.7900031559424079 13.908689550899624 3.2908243872964684 #
loop $-1 $-1 $374 $366 #
plane-surface $-1 0 17.813235966879027 0 0 -1 0 0 0 -1 forward_v I I I I #
coedge $-1 $512 $369 $371 $516 reversed $242 $-1 #
coedge $-1 $369 $511 $624 $625 reversed $242 $-1 #
coedge $-1 $377 $372 $369 $514 forward $367 $-1 #
edge $-1 $517 -8.0863074760138893 $626 -0.27721464405507135 $513 $627 forward 7 unknown #
coedge $-1 $371 $370 $520 $628 reversed $153 $-1 #
edge $-1 $629 -35.626471933758054 $517 -26.093329782985311 $511 $630 forward 7 unknown #
vertex $-1 $373 $631 #
straight-curve $-1 3.952224199446384 10.004143134920209 6.0248172735659935 1 0 0 I I #
coedge $-1 $624 $374 $377 $524 reversed $509 $-1 #
coedge $-1 $374 $624 $515 $628 forward $509 $-1 #
vertex $-1 $375 $632 #
straight-curve $-1 3.1647983310500196 17.813235966879027 44.450716525655665 0 0 1 I I #
straight-curve $-1 3.1647983310500196 -11.370261164058078 20.991336575910367 0 0.81915203911291934 -0.57357644374324357 I I #
edge $-1 $626 -12.644098466735517 $378 -3.1647983310500196 $519 $633 forward 7 unknown #
point $-1 3.1647983310500196 17.813235966879027 6.0248172735659917 #
point $-1 3.1647983310500196 10.004143134920209 6.02481727356599 #
edge $-1 $634 1 $634 0 $381 $-1 forward 7 unknown #
vertex $-1 $382 $635 #
ellipse-curve $-1 5.8731697983887372 13.313844898924071 2.4412981995729894 0 0.57357644374324357 0.81915203911291934 1 0 0 1 I I #
point $-1 6.8731697983887372 13.908689550899624 3.2908243872964684 #
edge $-1 $636 1 $636 0 $385 $-1 forward 7 unknown #
vertex $-1 $386 $637 #
ellipse-curve $-1 9.935726999396806 13.313844898924071 2.4412981995729894 0 0.57357644374324357 0.81915203911291934 1 0 0 1 I I #
point $-1 10.935726999396806 13.908689550899624 3.2908243872964684 #
loop $-1 $-1 $397 $389 #
plane-surface $-1 0 17.813235966879027 0 0 -1 0 0 0 -1 forward_v I I I I #
coedge $-1 $538 $392 $394 $542 reversed $264 $-1 #
coedge $-1 $392 $537 $638 $639 reversed $264 $-1 #
coedge $-1 $400 $395 $392 $540 forward $390 $-1 #
edge $-1 $543 -8.0863074760138893 $640 -0.27721464405507135 $539 $641 forward 7 unknown #
coedge $-1 $394 $393 $546 $642 reversed $167 $-1 #
edge $-1 $643 -35.626471933758054 $543 -26.093329782985311 $537 $644 forward 7 unknown #
vertex $-1 $396 $645 #
straight-curve $-1 14.315089277115995 10.004143134920209 6.0248172735659935 1 0 0 I I #
coedge $-1 $638 $397 $400 $550 reversed $535 $-1 #
coedge $-1 $397 $638 $541 $642 forward $535 $-1 #
vertex $-1 $398 $646 #
straight-curve $-1 23.89052848638924 17.813235966879027 44.450716525655665 0 0 1 I I #
straight-curve $-1 23.89052848638924 -11.370261164058078 20.991336575910367 0 0.81915203911291934 -0.57357644374324357 I I #
edge $-1 $640 -33.369828622074735 $401 -23.89052848638924 $545 $647 forward 7 unknown #
point $-1 23.89052848638924 17.813235966879027 6.0248172735659917 #
point $-1 23.89052848638924 10.004143134920209 6.02481727356599 #
edge $-1 $648 1 $648 0 $404 $-1 forward 7 unknown #
vertex $-1 $405 $649 #
ellipse-curve $-1 26.598899953727951 13.313844898924071 2.4412981995729894 0 0.57357644374324357 0.81915203911291934 1 0 0 1 I I #
point $-1 27.598899953727951 13.908689550899624 3.2908243872964684 #
edge $-1 $650 1 $650 0 $408 $-1 forward 7 unknown #
vertex $-1 $409 $651 #
ellipse-curve $-1 30.661457154736027 13.313844898924071 2.4412981995729894 0 0.57357644374324357 0.81915203911291934 1 0 0 1 I I #
point $-1 31.661457154736027 13.908689550899624 3.2908243872964684 #
loop $-1 $-1 $419 $412 #
plane-surface $-1 0 -17.813235966879027 0 0 1 0 0 0 1 forward_v I I I I #
coedge $-1 $652 $653 $416 $565 forward $413 $-1 #
coedge $-1 $416 $415 $570 $654 reversed $181 $-1 #
edge $-1 $567 -2.5209404456585447 $655 7.1605908312961173 $563 $656 forward 7 unknown #
coedge $-1 $422 $417 $653 $657 forward $286 $-1 #
vertex $-1 $657 $658 #
straight-curve $-1 -15.797210095602662 -9.88258987962611 6.0248172735659917 -1 0 0 I I #
coedge $-1 $659 $419 $422 $574 reversed $561 $-1 #
coedge $-1 $419 $659 $564 $654 forward $561 $-1 #
vertex $-1 $420 $660 #
straight-curve $-1 -21.737380071732218 -17.813235966879027 34.190907734571155 0 0 1 I I #
straight-curve $-1 -21.737380071732218 -17.813235966879034 0.47171899374134796 0 -0.81915203911291934 -0.57357644374324357 I I #
edge $-1 $661 -41.451460310678428 $423 -21.737380071732218 $569 $662 forward 7 unknown #
point $-1 -21.737380071732218 -17.813235966879027 6.0248172735659917 #
point $-1 -21.737380071732218 -9.88258987962611 6.0248172735659917 #
edge $-1 $663 1 $663 0 $426 $-1 forward 7 unknown #
vertex $-1 $427 $664 #
ellipse-curve $-1 -31.594420191205323 -12.964450808450419 1.986553499600223 0 -0.57357644374324357 0.81915203911291934 1 0 0 1 I I #
point $-1 -30.594420191205323 -13.847912923252553 3.2482681336536623 #
plane-surface $-1 41.451460310678428 0 0 -1 0 0 0 0 1 forward_v I I I I #
coedge $-1 $435 $433 $437 $586 reversed $301 $-1 #
edge $-1 $448 -6.0248172735659917 $588 6.0248172735659917 $447 $665 forward 7 unknown #
vertex $-1 $586 $666 #
straight-curve $-1 -41.451460310678428 -17.813235966879027 0 0 0 -1 I I #
edge $-1 $584 -17.813235966879027 $588 17.813235966879027 $582 $667 forward 7 unknown #
straight-curve $-1 0 -17.813235966879027 -6.0248172735659917 -1 0 0 I I #
vertex $-1 $440 $668 #
straight-curve $-1 0 17.813235966879027 -6.0248172735659917 1 0 0 I I #
point $-1 41.451460310678428 17.813235966879027 -6.0248172735659917 #
point $-1 41.451460310678428 -17.813235966879027 -6.0248172735659917 #
straight-curve $-1 -41.451460310678428 0 6.0248172735659917 0 -1 0 I I #
point $-1 -41.451460310678428 17.813235966879027 6.0248172735659917 #
point $-1 -41.451460310678428 -17.813235966879027 6.0248172735659917 #
straight-curve $-1 41.451460310678428 -17.813235966879027 0 0 0 -1 I I #
straight-curve $-1 41.451460310678428 17.813235966879027 0 0 0 -1 I I #
edge $-1 $598 38.425899252089671 $601 43.893885024628723 $458 $669 forward 7 unknown #
vertex $-1 $472 $670 #
straight-curve $-1 -28.807361843942903 18.090450610934099 6.0248172735659935 0 1 0 I I #
edge $-1 $601 12.033855888050077 $469 21.513156023735572 $468 $671 forward 7 unknown #
vertex $-1 $600 $672 #
straight-curve $-1 -28.807361843942903 -11.370261164058078 20.991336575910367 0 -0.81915203911291934 0.57357644374324357 I I #
point $-1 -28.807361843942903 10.004143134920209 6.02481727356599 #
point $-1 -38.286661979628398 17.813235966879027 0.55683150102694157 #
straight-curve $-1 0 17.813235966879027 6.0248172735659917 -1 0 0 I I #
vertex $-1 $475 $673 #
point $-1 -34.578290512289691 13.313844898924071 2.4412981995729894 #
vertex $-1 $479 $674 #
point $-1 -30.515733311281622 13.313844898924071 2.4412981995729894 #
coedge $-1 $494 $493 $486 $611 forward $483 $-1 #
edge $-1 $612 38.425899252089671 $615 43.893885024628723 $610 $675 forward 7 unknown #
vertex $-1 $498 $676 #
straight-curve $-1 -8.081631688603693 18.090450610934099 6.0248172735659935 0 1 0 I I #
edge $-1 $615 1.6709908103804718 $495 11.15029094606597 $494 $677 forward 7 unknown #
vertex $-1 $614 $678 #
straight-curve $-1 -8.081631688603693 -11.370261164058078 20.991336575910367 0 -0.81915203911291934 0.57357644374324357 I I #
point $-1 -8.081631688603693 10.004143134920209 6.02481727356599 #
point $-1 -17.560931824289192 17.813235966879027 0.55683150102694157 #
straight-curve $-1 0 17.813235966879027 6.0248172735659917 -1 0 0 I I #
vertex $-1 $501 $679 #
point $-1 -13.852560356950477 13.313844898924071 2.4412981995729894 #
vertex $-1 $505 $680 #
point $-1 -9.7900031559424079 13.313844898924071 2.4412981995729894 #
coedge $-1 $520 $519 $512 $625 forward $509 $-1 #
edge $-1 $626 38.425899252089671 $629 43.893885024628723 $624 $681 forward 7 unknown #
vertex $-1 $524 $682 #
straight-curve $-1 12.644098466735517 18.090450610934099 6.0248172735659935 0 1 0 I I #
edge $-1 $629 -8.6918742672891334 $521 0.78742586839636441 $520 $683 forward 7 unknown #
vertex $-1 $628 $684 #
straight-curve $-1 12.644098466735517 -11.370261164058078 20.991336575910367 0 -0.81915203911291934 0.57357644374324357 I I #
point $-1 12.644098466735517 10.004143134920209 6.02481727356599 #
point $-1 3.1647983310500196 17.813235966879027 0.55683150102694157 #
straight-curve $-1 0 17.813235966879027 6.0248172735659917 -1 0 0 I I #
vertex $-1 $527 $685 #
point $-1 6.8731697983887372 13.313844898924071 2.4412981995729894 #
vertex $-1 $531 $686 #
point $-1 10.935726999396806 13.313844898924071 2.4412981995729894 #
coedge $-1 $546 $545 $538 $639 forward $535 $-1 #
edge $-1 $640 38.425899252089671 $643 43.893885024628723 $638 $687 forward 7 unknown #
vertex $-1 $550 $688 #
straight-curve $-1 33.369828622074735 18.090450610934099 6.0248172735659935 0 1 0 I I #
edge $-1 $643 -19.05473934495874 $547 -9.5754392092732452 $546 $689 forward 7 unknown #
vertex $-1 $642 $690 #
straight-curve $-1 33.369828622074735 -11.370261164058078 20.991336575910367 0 -0.81915203911291934 0.57357644374324357 I I #
point $-1 33.369828622074735 10.004143134920209 6.02481727356599 #
point $-1 23.89052848638924 17.813235966879027 0.55683150102694157 #
straight-curve $-1 0 17.813235966879027 6.0248172735659917 -1 0 0 I I #
vertex $-1 $553 $691 #
point $-1 27.598899953727951 13.313844898924071 2.4412981995729894 #
vertex $-1 $557 $692 #
point $-1 31.661457154736027 13.313844898924071 2.4412981995729894 #
coedge $-1 $653 $563 $659 $693 reversed $413 $-1 #
coedge $-1 $563 $652 $566 $657 reversed $413 $-1 #
edge $-1 $655 -25.654250215075766 $571 -5.9401699761295568 $570 $694 forward 7 unknown #
vertex $-1 $565 $695 #
straight-curve $-1 -41.451460310678428 -11.947623386169539 4.5788652178566567 0 -0.81915203911291934 -0.57357644374324357 I I #
edge $-1 $567 9.88258987962611 $661 17.813235966879027 $653 $696 forward 7 unknown #
point $-1 -41.451460310678428 -9.88258987962611 6.0248172735659917 #
coedge $-1 $570 $569 $652 $693 forward $561 $-1 #
point $-1 -21.737380071732218 -17.813235966879027 0.47171899374135295 #
vertex $-1 $657 $697 #
straight-curve $-1 0 -17.813235966879027 6.0248172735659917 1 0 0 I I #
vertex $-1 $577 $698 #
point $-1 -30.594420191205323 -12.964450808450419 1.986553499600223 #
straight-curve $-1 -41.451460310678428 17.813235966879027 0 0 0 -1 I I #
point $-1 -41.451460310678428 -17.813235966879027 -6.0248172735659917 #
straight-curve $-1 -41.451460310678428 0 -6.0248172735659917 0 1 0 I I #
point $-1 -41.451460310678428 17.813235966879027 -6.0248172735659917 #
straight-curve $-1 -28.807361843942903 17.813235966879027 44.450716525655665 0 0 -1 I I #
point $-1 -28.807361843942903 17.813235966879027 6.0248172735659917 #
straight-curve $-1 -16.773505955892826 17.813235966879031 0.55683150102693979 -1 0 0 I I #
point $-1 -28.807361843942903 17.813235966879027 0.55683150102694157 #
point $-1 -35.578290512289691 12.740268455180829 1.6221461604600702 #
point $-1 -31.515733311281622 12.740268455180829 1.6221461604600702 #
straight-curve $-1 -8.081631688603693 17.813235966879027 44.450716525655665 0 0 -1 I I #
point $-1 -8.081631688603693 17.813235966879027 6.0248172735659917 #
straight-curve $-1 -6.4106408782232212 17.813235966879031 0.55683150102693979 -1 0 0 I I #
point $-1 -8.081631688603693 17.813235966879027 0.55683150102694157 #
point $-1 -14.852560356950477 12.740268455180829 1.6221461604600702 #
point $-1 -10.790003155942408 12.740268455180829 1.6221461604600702 #
straight-curve $-1 12.644098466735517 17.813235966879027 44.450716525655665 0 0 -1 I I #
point $-1 12.644098466735517 17.813235966879027 6.0248172735659917 #
straight-curve $-1 3.952224199446384 17.813235966879031 0.55683150102693979 -1 0 0 I I #
point $-1 12.644098466735517 17.813235966879027 0.55683150102694157 #
point $-1 5.8731697983887372 12.740268455180829 1.6221461604600702 #
point $-1 9.935726999396806 12.740268455180829 1.6221461604600702 #
straight-curve $-1 33.369828622074735 17.813235966879027 44.450716525655665 0 0 -1 I I #
point $-1 33.369828622074735 17.813235966879027 6.0248172735659917 #
straight-curve $-1 14.315089277115995 17.813235966879031 0.55683150102693979 -1 0 0 I I #
point $-1 33.369828622074735 17.813235966879027 0.55683150102694157 #
point $-1 26.598899953727951 12.740268455180829 1.6221461604600702 #
point $-1 30.661457154736027 12.740268455180829 1.6221461604600702 #
edge $-1 $661 -6.0248172735659917 $655 -0.47171899374135295 $652 $699 forward 7 unknown #
straight-curve $-1 -15.797210095602662 -17.813235966879027 0.47171899374135207 1 0 0 I I #
point $-1 -41.451460310678428 -17.813235966879027 0.47171899374135295 #
straight-curve $-1 -41.451460310678428 0 6.0248172735659917 0 -1 0 I I #
point $-1 -41.451460310678428 -17.813235966879027 6.0248172735659917 #
point $-1 -31.594420191205323 -12.390874364707177 1.1674014604873035 #
straight-curve $-1 -41.451460310678428 -17.813235966879027 0 0 0 -1 I I #
End-of-ACIS-data 