500 0 15 0           
7 Unknown 11 ACIS 5.0 NT 24 Thu Mar 25 19:16:08 1999 
-1 9.9999999999999995e-007 1e-010 
body $-1 $15 $-1 $16 #
body $-1 $17 $-1 $18 #
body $-1 $19 $-1 $20 #
body $-1 $21 $-1 $22 #
body $-1 $23 $-1 $24 #
body $-1 $25 $-1 $26 #
body $-1 $27 $-1 $28 #
body $-1 $29 $-1 $30 #
body $-1 $31 $-1 $32 #
body $-1 $33 $-1 $34 #
body $-1 $35 $-1 $36 #
body $-1 $37 $-1 $38 #
body $-1 $39 $-1 $40 #
body $-1 $41 $-1 $42 #
body $-1 $43 $-1 $44 #
lump $-1 $-1 $45 $0 #
transform $-1 1 0 0 0 1 0 0 0 1 40.793481246375926 27.731898317072734 8.0533967597258602 1 rotate no_reflect no_shear #
lump $-1 $-1 $46 $1 #
transform $-1 1 0 0 0 1 0 0 0 1 40.793481246375926 27.731898317072734 8.0533967597258602 1 rotate no_reflect no_shear #
lump $-1 $-1 $47 $2 #
transform $-1 1 0 0 0 1 0 0 0 1 40.793481246375926 27.731898317072734 8.0533967597258602 1 rotate no_reflect no_shear #
lump $-1 $-1 $48 $3 #
transform $-1 1 0 0 0 1 0 0 0 1 40.793481246375926 27.731898317072734 8.0533967597258602 1 rotate no_reflect no_shear #
lump $-1 $-1 $49 $4 #
transform $-1 1 0 0 0 1 0 0 0 1 40.793481246375926 27.731898317072734 8.0533967597258602 1 rotate no_reflect no_shear #
lump $-1 $-1 $50 $5 #
transform $-1 1 0 0 0 1 0 0 0 1 40.793481246375926 27.731898317072734 8.0533967597258602 1 rotate no_reflect no_shear #
lump $-1 $-1 $51 $6 #
transform $-1 1 0 0 0 1 0 0 0 1 40.793481246375926 27.731898317072734 8.0533967597258602 1 rotate no_reflect no_shear #
lump $-1 $-1 $52 $7 #
transform $-1 1 0 0 0 1 0 0 0 1 40.793481246375926 27.731898317072734 8.0533967597258602 1 rotate no_reflect no_shear #
lump $-1 $-1 $53 $8 #
transform $-1 1 0 0 0 1 0 0 0 1 40.793481246375926 27.731898317072734 8.0533967597258602 1 rotate no_reflect no_shear #
lump $-1 $-1 $54 $9 #
transform $-1 1 0 0 0 1 0 0 0 1 40.793481246375926 27.731898317072734 8.0533967597258602 1 rotate no_reflect no_shear #
lump $-1 $-1 $55 $10 #
transform $-1 1 0 0 0 1 0 0 0 1 40.793481246375926 27.731898317072734 8.0533967597258602 1 rotate no_reflect no_shear #
lump $-1 $-1 $56 $11 #
transform $-1 1 0 0 0 1 0 0 0 1 40.793481246375926 27.731898317072734 8.0533967597258602 1 rotate no_reflect no_shear #
lump $-1 $-1 $57 $12 #
transform $-1 1 0 0 0 1 0 0 0 1 40.793481246375926 27.731898317072734 8.0533967597258602 1 rotate no_reflect no_shear #
lump $-1 $-1 $58 $13 #
transform $-1 1 0 0 0 1 0 0 0 1 40.793481246375926 27.731898317072734 8.0533967597258602 1 rotate no_reflect no_shear #
lump $-1 $-1 $59 $14 #
transform $-1 1 0 0 0 1 0 0 0 1 40.793481246375926 27.731898317072734 8.0533967597258602 1 rotate no_reflect no_shear #
shell $-1 $-1 $-1 $60 $-1 $15 #
shell $-1 $-1 $-1 $61 $-1 $17 #
shell $-1 $-1 $-1 $62 $-1 $19 #
shell $-1 $-1 $-1 $63 $-1 $21 #
shell $-1 $-1 $-1 $64 $-1 $23 #
shell $-1 $-1 $-1 $65 $-1 $25 #
shell $-1 $-1 $-1 $66 $-1 $27 #
shell $-1 $-1 $-1 $67 $-1 $29 #
shell $-1 $-1 $-1 $68 $-1 $31 #
shell $-1 $-1 $-1 $69 $-1 $33 #
shell $-1 $-1 $-1 $70 $-1 $35 #
shell $-1 $-1 $-1 $71 $-1 $37 #
shell $-1 $-1 $-1 $72 $-1 $39 #
shell $-1 $-1 $-1 $73 $-1 $41 #
shell $-1 $-1 $-1 $74 $-1 $43 #
face $-1 $75 $76 $45 $-1 $77 forward single #
face $-1 $78 $79 $46 $-1 $80 forward single #
face $-1 $81 $82 $47 $-1 $83 forward single #
face $-1 $84 $85 $48 $-1 $86 reversed single #
face $-1 $87 $88 $49 $-1 $89 forward single #
face $-1 $90 $91 $50 $-1 $92 forward single #
face $-1 $93 $94 $51 $-1 $95 reversed single #
face $-1 $96 $97 $52 $-1 $98 forward single #
face $-1 $99 $100 $53 $-1 $101 forward single #
face $-1 $102 $103 $54 $-1 $104 reversed single #
face $-1 $105 $106 $55 $-1 $107 forward single #
face $-1 $108 $109 $56 $-1 $110 forward single #
face $-1 $111 $112 $57 $-1 $113 reversed single #
face $-1 $114 $115 $58 $-1 $116 forward single #
face $-1 $117 $118 $59 $-1 $119 forward single #
face $-1 $120 $121 $45 $-1 $122 reversed single #
loop $-1 $-1 $123 $60 #
plane-surface $-1 0 0 8.0533967597258602 0 0 1 1 0 0 forward_v I I I I #
face $-1 $124 $125 $46 $-1 $126 reversed single #
loop $-1 $-1 $127 $61 #
plane-surface $-1 -37.115620022463013 0 4.9669388584113001 0 0 1 1 0 0 forward_v I I I I #
face $-1 $128 $129 $47 $-1 $130 reversed single #
loop $-1 $-1 $131 $62 #
plane-surface $-1 37.115620022463013 0 4.9669388584113001 0 0 1 1 0 0 forward_v I I I I #
face $-1 $132 $133 $48 $-1 $134 reversed single #
loop $-1 $-1 $135 $63 #
plane-surface $-1 -28.722351537284055 -85.422593421469315 57.800808371423003 1 0 0 0 0.70710678939079041 -0.70710677298230451 forward_v I I I I #
face $-1 $136 $137 $49 $-1 $138 forward single #
loop $-1 $139 $140 $64 #
cone-surface $-1 -26.519301382451932 -23.220275654412308 3.5417740174334265 0 0.70710678939079041 -0.70710677298230451 0.5 0 0 1 I I 0 1 0.5 forward I I I I #
face $-1 $141 $142 $50 $-1 $143 forward single #
loop $-1 $144 $145 $65 #
cone-surface $-1 -23.214726150203749 -23.220275654412308 3.5417740174334265 0 0.70710678939079041 -0.70710677298230451 0.5 0 0 1 I I 0 1 0.5 forward I I I I #
face $-1 $146 $147 $51 $-1 $148 reversed single #
loop $-1 $-1 $149 $66 #
plane-surface $-1 -12.003472138009005 -85.422593421469315 57.800808371423003 1 0 0 0 0.70710678939079041 -0.70710677298230451 forward_v I I I I #
face $-1 $150 $151 $52 $-1 $152 forward single #
loop $-1 $153 $154 $67 #
cone-surface $-1 -9.8004219831768822 -23.220275654412308 3.5417740174334265 0 0.70710678939079041 -0.70710677298230451 0.5 0 0 1 I I 0 1 0.5 forward I I I I #
face $-1 $155 $156 $53 $-1 $157 forward single #
loop $-1 $158 $159 $68 #
cone-surface $-1 -6.495846750928699 -23.220275654412308 3.5417740174334265 0 0.70710678939079041 -0.70710677298230451 0.5 0 0 1 I I 0 1 0.5 forward I I I I #
face $-1 $160 $161 $54 $-1 $162 reversed single #
loop $-1 $-1 $163 $69 #
plane-surface $-1 4.7154072612660416 -85.422593421469315 57.800808371423003 1 0 0 0 0.70710678939079041 -0.70710677298230451 forward_v I I I I #
face $-1 $164 $165 $55 $-1 $166 forward single #
loop $-1 $167 $168 $70 #
cone-surface $-1 6.9184574160981711 -23.220275654412308 3.5417740174334265 0 0.70710678939079041 -0.70710677298230451 0.5 0 0 1 I I 0 1 0.5 forward I I I I #
face $-1 $169 $170 $56 $-1 $171 forward single #
loop $-1 $172 $173 $71 #
cone-surface $-1 10.223032648346354 -23.220275654412308 3.5417740174334265 0 0.70710678939079041 -0.70710677298230451 0.5 0 0 1 I I 0 1 0.5 forward I I I I #
face $-1 $174 $175 $57 $-1 $176 reversed single #
loop $-1 $-1 $177 $72 #
plane-surface $-1 21.434286660541094 -85.422593421469315 57.800808371423003 1 0 0 0 0.70710678939079041 -0.70710677298230451 forward_v I I I I #
face $-1 $178 $179 $58 $-1 $180 forward single #
loop $-1 $181 $182 $73 #
cone-surface $-1 23.637336815373224 -23.220275654412308 3.5417740174334265 0 0.70710678939079041 -0.70710677298230451 0.5 0 0 1 I I 0 1 0.5 forward I I I I #
face $-1 $183 $184 $59 $-1 $185 forward single #
loop $-1 $186 $187 $74 #
cone-surface $-1 26.941912047621408 -23.220275654412308 3.5417740174334265 0 0.70710678939079041 -0.70710677298230451 0.5 0 0 1 I I 0 1 0.5 forward I I I I #
face $-1 $188 $189 $45 $-1 $190 reversed single #
loop $-1 $-1 $191 $75 #
plane-surface $-1 0 0 -8.0533967597258602 0 0 1 1 0 0 forward_v I I I I #
coedge $-1 $192 $193 $194 $195 forward $76 $-1 #
face $-1 $196 $197 $46 $-1 $198 reversed single #
loop $-1 $-1 $199 $78 #
plane-surface $-1 -37.115620022463013 0 0.16508229987777412 0 0 1 1 0 0 forward_v I I I I #
coedge $-1 $200 $201 $202 $203 forward $79 $-1 #
face $-1 $204 $205 $47 $-1 $206 reversed single #
loop $-1 $-1 $207 $81 #
plane-surface $-1 37.115620022463013 0 0.16508229987777412 0 0 1 1 0 0 forward_v I I I I #
coedge $-1 $208 $209 $210 $211 reversed $82 $-1 #
face $-1 $212 $213 $48 $-1 $214 reversed single #
loop $-1 $-1 $215 $84 #
plane-surface $-1 -24.86701376632784 -27.731898317072712 0.1101146057449256 0 -0.70710678939079041 0.70710677298230451 1 0 0 forward_v I I I I #
coedge $-1 $216 $217 $218 $219 reversed $85 $-1 #
face $-1 $-1 $220 $49 $-1 $221 forward single #
loop $-1 $222 $223 $87 #
cone-surface $-1 -26.519301382451932 -22.503517279232309 2.8250156588858779 0 0.70710678939079041 -0.70710677298230451 0.25 0 0 1 I I -0.70710678118654746 0.70710678118654746 0.25 forward I I I I #
loop $-1 $-1 $224 $64 #
coedge $-1 $140 $140 $225 $226 reversed $88 $-1 #
face $-1 $-1 $227 $50 $-1 $228 forward single #
loop $-1 $229 $230 $90 #
cone-surface $-1 -23.214726150203749 -22.503517279232309 2.8250156588858779 0 0.70710678939079041 -0.70710677298230451 0.25 0 0 1 I I -0.70710678118654746 0.70710678118654746 0.25 forward I I I I #
loop $-1 $-1 $231 $65 #
coedge $-1 $145 $145 $232 $233 reversed $91 $-1 #
face $-1 $234 $235 $51 $-1 $236 reversed single #
loop $-1 $-1 $237 $93 #
plane-surface $-1 -8.1481343670527906 -27.731898317072712 0.1101146057449256 0 -0.70710678939079041 0.70710677298230451 1 0 0 forward_v I I I I #
coedge $-1 $238 $239 $240 $241 reversed $94 $-1 #
face $-1 $-1 $242 $52 $-1 $243 forward single #
loop $-1 $244 $245 $96 #
cone-surface $-1 -9.8004219831768822 -22.503517279232309 2.8250156588858779 0 0.70710678939079041 -0.70710677298230451 0.25 0 0 1 I I -0.70710678118654746 0.70710678118654746 0.25 forward I I I I #
loop $-1 $-1 $246 $67 #
coedge $-1 $154 $154 $247 $248 reversed $97 $-1 #
face $-1 $-1 $249 $53 $-1 $250 forward single #
loop $-1 $251 $252 $99 #
cone-surface $-1 -6.495846750928699 -22.503517279232309 2.8250156588858779 0 0.70710678939079041 -0.70710677298230451 0.25 0 0 1 I I -0.70710678118654746 0.70710678118654746 0.25 forward I I I I #
loop $-1 $-1 $253 $68 #
coedge $-1 $159 $159 $254 $255 reversed $100 $-1 #
face $-1 $256 $257 $54 $-1 $258 reversed single #
loop $-1 $-1 $259 $102 #
plane-surface $-1 8.5707450322222556 -27.731898317072712 0.1101146057449256 0 -0.70710678939079041 0.70710677298230451 1 0 0 forward_v I I I I #
coedge $-1 $260 $261 $262 $263 reversed $103 $-1 #
face $-1 $-1 $264 $55 $-1 $265 forward single #
loop $-1 $266 $267 $105 #
cone-surface $-1 6.9184574160981711 -22.503517279232309 2.8250156588858779 0 0.70710678939079041 -0.70710677298230451 0.25 0 0 1 I I -0.70710678118654746 0.70710678118654746 0.25 forward I I I I #
loop $-1 $-1 $268 $70 #
coedge $-1 $168 $168 $269 $270 reversed $106 $-1 #
face $-1 $-1 $271 $56 $-1 $272 forward single #
loop $-1 $273 $274 $108 #
cone-surface $-1 10.223032648346354 -22.503517279232309 2.8250156588858779 0 0.70710678939079041 -0.70710677298230451 0.25 0 0 1 I I -0.70710678118654746 0.70710678118654746 0.25 forward I I I I #
loop $-1 $-1 $275 $71 #
coedge $-1 $173 $173 $276 $277 reversed $109 $-1 #
face $-1 $278 $279 $57 $-1 $280 reversed single #
loop $-1 $-1 $281 $111 #
plane-surface $-1 25.289624431497309 -27.731898317072712 0.1101146057449256 0 -0.70710678939079041 0.70710677298230451 1 0 0 forward_v I I I I #
coedge $-1 $282 $283 $284 $285 reversed $112 $-1 #
face $-1 $-1 $286 $58 $-1 $287 forward single #
loop $-1 $288 $289 $114 #
cone-surface $-1 23.637336815373224 -22.503517279232309 2.8250156588858779 0 0.70710678939079041 -0.70710677298230451 0.25 0 0 1 I I -0.70710678118654746 0.70710678118654746 0.25 forward I I I I #
loop $-1 $-1 $290 $73 #
coedge $-1 $182 $182 $291 $292 reversed $115 $-1 #
face $-1 $-1 $293 $59 $-1 $294 forward single #
loop $-1 $295 $296 $117 #
cone-surface $-1 26.941912047621408 -22.503517279232309 2.8250156588858779 0 0.70710678939079041 -0.70710677298230451 0.25 0 0 1 I I -0.70710678118654746 0.70710678118654746 0.25 forward I I I I #
loop $-1 $-1 $297 $74 #
coedge $-1 $187 $187 $298 $299 reversed $118 $-1 #
face $-1 $300 $301 $45 $-1 $302 reversed single #
loop $-1 $-1 $303 $120 #
plane-surface $-1 0 -27.731898317072734 0 0 1 0 0 0 1 forward_v I I I I #
coedge $-1 $304 $305 $306 $307 forward $121 $-1 #
coedge $-1 $308 $123 $309 $310 forward $76 $-1 #
coedge $-1 $123 $308 $311 $312 forward $76 $-1 #
coedge $-1 $313 $314 $123 $195 reversed $315 $-1 #
edge $-1 $316 -27.731898317072734 $317 27.731898317072734 $194 $318 forward 7 unknown #
face $-1 $319 $320 $46 $-1 $321 reversed single #
loop $-1 $-1 $322 $124 #
plane-surface $-1 -33.437758798550099 0 2.5660105791445371 -1 0 0 0 0 1 forward_v I I I I #
coedge $-1 $323 $324 $325 $326 forward $125 $-1 #
coedge $-1 $327 $127 $328 $329 reversed $79 $-1 #
coedge $-1 $127 $327 $330 $331 reversed $79 $-1 #
coedge $-1 $322 $332 $127 $203 reversed $197 $-1 #
edge $-1 $333 -27.731898317072734 $334 27.731898317072734 $202 $335 forward 7 unknown #
face $-1 $336 $337 $47 $-1 $338 reversed single #
loop $-1 $-1 $339 $128 #
plane-surface $-1 33.437758798550099 0 2.5660105791445371 1 0 0 0 0 -1 forward_v I I I I #
coedge $-1 $340 $341 $342 $343 reversed $129 $-1 #
coedge $-1 $344 $131 $345 $346 reversed $82 $-1 #
coedge $-1 $131 $344 $347 $348 reversed $82 $-1 #
coedge $-1 $349 $350 $131 $211 forward $351 $-1 #
edge $-1 $352 -27.731898317072734 $353 27.731898317072734 $210 $354 forward 7 unknown #
face $-1 $355 $356 $48 $-1 $357 forward single #
loop $-1 $-1 $358 $132 #
plane-surface $-1 -21.011675995371625 -85.422593421469315 57.800808371423003 -1 0 0 0 -0.70710678939079041 0.70710677298230451 forward_v I I I I #
coedge $-1 $359 $360 $361 $362 reversed $133 $-1 #
coedge $-1 $217 $135 $363 $364 reversed $85 $-1 #
coedge $-1 $135 $216 $359 $365 reversed $85 $-1 #
coedge $-1 $361 $366 $135 $219 forward $367 $-1 #
edge $-1 $368 20.847007425985641 $369 28.790289579966597 $218 $370 forward 7 unknown #
loop $-1 $-1 $225 $136 #
plane-surface $-1 -24.86701376632784 -27.731898317072712 0.1101146057449256 0 -0.70710678939079041 0.70710677298230451 1 0 0 forward_v I I I I #
loop $-1 $-1 $371 $87 #
coedge $-1 $223 $223 $224 $372 reversed $137 $-1 #
coedge $-1 $224 $224 $223 $372 forward $139 $-1 #
coedge $-1 $225 $225 $140 $226 forward $220 $-1 #
edge $-1 $373 -3.7682213616155233e-015 $373 6.2831853071795969 $225 $374 forward 7 unknown #
loop $-1 $-1 $232 $141 #
plane-surface $-1 -24.86701376632784 -27.731898317072712 0.1101146057449256 0 -0.70710678939079041 0.70710677298230451 1 0 0 forward_v I I I I #
loop $-1 $-1 $375 $90 #
coedge $-1 $230 $230 $231 $376 reversed $142 $-1 #
coedge $-1 $231 $231 $230 $376 forward $144 $-1 #
coedge $-1 $232 $232 $145 $233 forward $227 $-1 #
edge $-1 $377 -3.7682213616155233e-015 $377 6.2831853071795969 $232 $378 forward 7 unknown #
face $-1 $379 $380 $51 $-1 $381 reversed single #
loop $-1 $-1 $382 $146 #
plane-surface $-1 -4.2927965960965766 -85.422593421469315 57.800808371423003 -1 0 0 0 -0.70710678939079041 0.70710677298230451 forward_v I I I I #
coedge $-1 $383 $384 $385 $386 reversed $147 $-1 #
coedge $-1 $239 $149 $387 $388 reversed $94 $-1 #
coedge $-1 $149 $238 $383 $389 reversed $94 $-1 #
coedge $-1 $385 $390 $149 $241 forward $380 $-1 #
edge $-1 $391 20.847007425985641 $392 28.790289579966597 $240 $393 forward 7 unknown #
loop $-1 $-1 $247 $150 #
plane-surface $-1 -8.1481343670527906 -27.731898317072712 0.1101146057449256 0 -0.70710678939079041 0.70710677298230451 1 0 0 forward_v I I I I #
loop $-1 $-1 $394 $96 #
coedge $-1 $245 $245 $246 $395 reversed $151 $-1 #
coedge $-1 $246 $246 $245 $395 forward $153 $-1 #
coedge $-1 $247 $247 $154 $248 forward $242 $-1 #
edge $-1 $396 -3.7682213616155233e-015 $396 6.2831853071795969 $247 $397 forward 7 unknown #
loop $-1 $-1 $254 $155 #
plane-surface $-1 -8.1481343670527906 -27.731898317072712 0.1101146057449256 0 -0.70710678939079041 0.70710677298230451 1 0 0 forward_v I I I I #
loop $-1 $-1 $398 $99 #
coedge $-1 $252 $252 $253 $399 reversed $156 $-1 #
coedge $-1 $253 $253 $252 $399 forward $158 $-1 #
coedge $-1 $254 $254 $159 $255 forward $249 $-1 #
edge $-1 $400 -3.7682213616155233e-015 $400 6.2831853071795969 $254 $401 forward 7 unknown #
face $-1 $402 $403 $54 $-1 $404 reversed single #
loop $-1 $-1 $405 $160 #
plane-surface $-1 12.42608280317847 -85.422593421469315 57.800808371423003 -1 0 0 0 -0.70710678939079041 0.70710677298230451 forward_v I I I I #
coedge $-1 $406 $407 $408 $409 reversed $161 $-1 #
coedge $-1 $261 $163 $410 $411 reversed $103 $-1 #
coedge $-1 $163 $260 $406 $412 reversed $103 $-1 #
coedge $-1 $408 $413 $163 $263 forward $403 $-1 #
edge $-1 $414 20.847007425985641 $415 28.790289579966597 $262 $416 forward 7 unknown #
loop $-1 $-1 $269 $164 #
plane-surface $-1 8.5707450322222556 -27.731898317072712 0.1101146057449256 0 -0.70710678939079041 0.70710677298230451 1 0 0 forward_v I I I I #
loop $-1 $-1 $417 $105 #
coedge $-1 $267 $267 $268 $418 reversed $165 $-1 #
coedge $-1 $268 $268 $267 $418 forward $167 $-1 #
coedge $-1 $269 $269 $168 $270 forward $264 $-1 #
edge $-1 $419 -3.7682213616155233e-015 $419 6.2831853071795969 $269 $420 forward 7 unknown #
loop $-1 $-1 $276 $169 #
plane-surface $-1 8.5707450322222556 -27.731898317072712 0.1101146057449256 0 -0.70710678939079041 0.70710677298230451 1 0 0 forward_v I I I I #
loop $-1 $-1 $421 $108 #
coedge $-1 $274 $274 $275 $422 reversed $170 $-1 #
coedge $-1 $275 $275 $274 $422 forward $172 $-1 #
coedge $-1 $276 $276 $173 $277 forward $271 $-1 #
edge $-1 $423 -3.7682213616155233e-015 $423 6.2831853071795969 $276 $424 forward 7 unknown #
face $-1 $425 $426 $57 $-1 $427 reversed single #
loop $-1 $-1 $428 $174 #
plane-surface $-1 29.144962202453524 -85.422593421469315 57.800808371423003 -1 0 0 0 -0.70710678939079041 0.70710677298230451 forward_v I I I I #
coedge $-1 $429 $430 $431 $432 reversed $175 $-1 #
coedge $-1 $283 $177 $433 $434 reversed $112 $-1 #
coedge $-1 $177 $282 $429 $435 reversed $112 $-1 #
coedge $-1 $431 $436 $177 $285 forward $426 $-1 #
edge $-1 $437 20.847007425985641 $438 28.790289579966597 $284 $439 forward 7 unknown #
loop $-1 $-1 $291 $178 #
plane-surface $-1 25.289624431497309 -27.731898317072712 0.1101146057449256 0 -0.70710678939079041 0.70710677298230451 1 0 0 forward_v I I I I #
loop $-1 $-1 $440 $114 #
coedge $-1 $289 $289 $290 $441 reversed $179 $-1 #
coedge $-1 $290 $290 $289 $441 forward $181 $-1 #
coedge $-1 $291 $291 $182 $292 forward $286 $-1 #
edge $-1 $442 -3.7682213616155233e-015 $442 6.2831853071795969 $291 $443 forward 7 unknown #
loop $-1 $-1 $298 $183 #
plane-surface $-1 25.289624431497309 -27.731898317072712 0.1101146057449256 0 -0.70710678939079041 0.70710677298230451 1 0 0 forward_v I I I I #
loop $-1 $-1 $444 $117 #
coedge $-1 $296 $296 $297 $445 reversed $184 $-1 #
coedge $-1 $297 $297 $296 $445 forward $186 $-1 #
coedge $-1 $298 $298 $187 $299 forward $293 $-1 #
edge $-1 $446 -3.7682213616155233e-015 $446 6.2831853071795969 $298 $447 forward 7 unknown #
face $-1 $448 $449 $45 $-1 $450 reversed single #
loop $-1 $-1 $451 $188 #
plane-surface $-1 -40.793481246375926 0 0 1 0 0 0 0 -1 forward_v I I I I #
coedge $-1 $452 $311 $453 $454 forward $189 $-1 #
coedge $-1 $455 $191 $452 $456 forward $121 $-1 #
coedge $-1 $191 $455 $457 $458 forward $121 $-1 #
coedge $-1 $314 $313 $191 $307 reversed $315 $-1 #
edge $-1 $459 -27.731898317072734 $460 27.731898317072734 $306 $461 forward 7 unknown #
coedge $-1 $193 $192 $462 $463 forward $76 $-1 #
coedge $-1 $464 $465 $192 $310 reversed $449 $-1 #
edge $-1 $317 -40.793481246375926 $466 40.793481246375926 $309 $467 forward 7 unknown #
coedge $-1 $303 $468 $193 $312 reversed $189 $-1 #
edge $-1 $469 -40.793481246375926 $316 40.793481246375926 $311 $470 forward 7 unknown #
coedge $-1 $306 $194 $468 $471 forward $315 $-1 #
coedge $-1 $194 $306 $464 $472 reversed $315 $-1 #
loop $-1 $-1 $313 $448 #
vertex $-1 $195 $473 #
vertex $-1 $195 $474 #
straight-curve $-1 40.793481246375926 0 8.0533967597258602 0 1 0 I I #
face $-1 $475 $476 $46 $-1 $477 reversed single #
loop $-1 $-1 $478 $196 #
plane-surface $-1 0 -27.731898317072734 0 0 1 0 0 0 1 forward_v I I I I #
coedge $-1 $325 $202 $479 $480 reversed $197 $-1 #
coedge $-1 $481 $199 $478 $482 reversed $125 $-1 #
coedge $-1 $199 $481 $483 $484 reversed $125 $-1 #
coedge $-1 $332 $322 $199 $326 reversed $197 $-1 #
edge $-1 $485 -27.731898317072734 $486 27.731898317072734 $325 $487 forward 7 unknown #
coedge $-1 $201 $200 $488 $489 reversed $79 $-1 #
coedge $-1 $490 $491 $200 $329 forward $492 $-1 #
edge $-1 $493 -22.235671235144419 $334 -14.879948787318593 $328 $494 forward 7 unknown #
coedge $-1 $495 $479 $201 $331 forward $320 $-1 #
edge $-1 $333 14.879948787318593 $496 22.235671235144419 $330 $497 forward 7 unknown #
coedge $-1 $202 $325 $490 $498 reversed $197 $-1 #
vertex $-1 $331 $499 #
vertex $-1 $329 $500 #
straight-curve $-1 -33.437758798550099 0 4.9669388584113001 0 1 0 I I #
face $-1 $501 $502 $47 $-1 $503 reversed single #
loop $-1 $-1 $347 $204 #
plane-surface $-1 0 -27.731898317072734 0 0 1 0 0 0 1 forward_v I I I I #
coedge $-1 $504 $505 $506 $507 reversed $205 $-1 #
coedge $-1 $508 $207 $509 $510 reversed $129 $-1 #
coedge $-1 $207 $508 $511 $512 reversed $129 $-1 #
coedge $-1 $350 $349 $207 $343 forward $351 $-1 #
edge $-1 $513 -27.731898317072734 $514 27.731898317072734 $342 $515 forward 7 unknown #
coedge $-1 $209 $208 $505 $516 forward $82 $-1 #
coedge $-1 $517 $506 $208 $346 forward $502 $-1 #
edge $-1 $518 14.879948787318593 $352 22.235671235144419 $345 $519 forward 7 unknown #
coedge $-1 $520 $521 $209 $348 forward $337 $-1 #
edge $-1 $353 -22.235671235144419 $522 -14.879948787318593 $347 $523 forward 7 unknown #
coedge $-1 $342 $210 $521 $524 forward $351 $-1 #
coedge $-1 $210 $342 $517 $525 reversed $351 $-1 #
loop $-1 $-1 $210 $501 #
vertex $-1 $525 $526 #
vertex $-1 $524 $527 #
straight-curve $-1 40.793481246375926 0 4.9669388584113001 0 -1 0 I I #
face $-1 $-1 $367 $48 $-1 $528 reversed single #
loop $-1 $-1 $529 $212 #
plane-surface $-1 0 0 8.0533967597258602 0 0 1 1 0 0 forward_v I I I I #
coedge $-1 $530 $531 $532 $533 reversed $213 $-1 #
coedge $-1 $534 $215 $217 $365 forward $133 $-1 #
coedge $-1 $215 $534 $530 $535 forward $133 $-1 #
coedge $-1 $532 $218 $215 $362 forward $367 $-1 #
edge $-1 $369 -16.288844654120133 $536 -8.5781691122077053 $361 $537 forward 7 unknown #
coedge $-1 $538 $539 $216 $364 forward $356 $-1 #
edge $-1 $540 -22.9226803633182 $368 -14.979398393661924 $363 $541 forward 7 unknown #
edge $-1 $369 -3.0145775206728491e-014 $540 11.233497221578782 $217 $542 forward 7 unknown #
coedge $-1 $218 $532 $538 $543 reversed $367 $-1 #
loop $-1 $-1 $532 $355 #
vertex $-1 $543 $544 #
vertex $-1 $219 $545 #
straight-curve $-1 -28.722351537284055 -27.731898317072734 28.900404185711501 0 0 -1 I I #
coedge $-1 $371 $371 $-1 $546 reversed $222 $-1 #
edge $-1 $547 0 $547 6.2831853071796004 $223 $548 forward 7 unknown #
vertex $-1 $226 $549 #
ellipse-curve $-1 -26.519301382451932 -23.760257332244596 4.0817556827353831 0 -0.70710678939079041 0.70710677298230451 0.5 0 0 1 I I #
coedge $-1 $375 $375 $-1 $550 reversed $229 $-1 #
edge $-1 $551 0 $551 6.2831853071796004 $230 $552 forward 7 unknown #
vertex $-1 $233 $553 #
ellipse-curve $-1 -23.214726150203749 -23.760257332244596 4.0817556827353831 0 -0.70710678939079041 0.70710677298230451 0.5 0 0 1 I I #
face $-1 $-1 $554 $51 $-1 $555 forward single #
loop $-1 $-1 $240 $234 #
plane-surface $-1 0 -27.731898317072734 0 0 1 0 0 0 1 forward_v I I I I #
coedge $-1 $556 $557 $558 $559 reversed $235 $-1 #
coedge $-1 $560 $237 $239 $389 forward $147 $-1 #
coedge $-1 $237 $560 $556 $561 forward $147 $-1 #
coedge $-1 $558 $240 $237 $386 forward $380 $-1 #
edge $-1 $392 -7.9294049544826102 $562 -0.2187294125701813 $385 $563 forward 7 unknown #
coedge $-1 $564 $565 $238 $388 forward $554 $-1 #
edge $-1 $566 -22.9226803633182 $391 -14.979398393661924 $387 $567 forward 7 unknown #
edge $-1 $392 -3.0145775206728491e-014 $566 11.233497221578782 $239 $568 forward 7 unknown #
coedge $-1 $240 $558 $564 $569 reversed $380 $-1 #
vertex $-1 $569 $570 #
vertex $-1 $241 $571 #
straight-curve $-1 -12.003472138009005 -27.731898317072734 28.900404185711501 0 0 -1 I I #
coedge $-1 $394 $394 $-1 $572 reversed $244 $-1 #
edge $-1 $573 0 $573 6.2831853071796004 $245 $574 forward 7 unknown #
vertex $-1 $248 $575 #
ellipse-curve $-1 -9.8004219831768822 -23.760257332244596 4.0817556827353831 0 -0.70710678939079041 0.70710677298230451 0.5 0 0 1 I I #
coedge $-1 $398 $398 $-1 $576 reversed $251 $-1 #
edge $-1 $577 0 $577 6.2831853071796004 $252 $578 forward 7 unknown #
vertex $-1 $255 $579 #
ellipse-curve $-1 -6.495846750928699 -23.760257332244596 4.0817556827353831 0 -0.70710678939079041 0.70710677298230451 0.5 0 0 1 I I #
face $-1 $-1 $580 $54 $-1 $581 forward single #
loop $-1 $-1 $262 $256 #
plane-surface $-1 0 -27.731898317072734 0 0 1 0 0 0 1 forward_v I I I I #
coedge $-1 $582 $583 $584 $585 reversed $257 $-1 #
coedge $-1 $586 $259 $261 $412 forward $161 $-1 #
coedge $-1 $259 $586 $582 $587 forward $161 $-1 #
coedge $-1 $584 $262 $259 $409 forward $403 $-1 #
edge $-1 $415 0.4300347451549138 $588 8.1407102870673427 $408 $589 forward 7 unknown #
coedge $-1 $590 $591 $260 $411 forward $580 $-1 #
edge $-1 $592 -22.9226803633182 $414 -14.979398393661924 $410 $593 forward 7 unknown #
edge $-1 $415 -3.0145775206728491e-014 $592 11.233497221578782 $261 $594 forward 7 unknown #
coedge $-1 $262 $584 $590 $595 reversed $403 $-1 #
vertex $-1 $595 $596 #
vertex $-1 $263 $597 #
straight-curve $-1 4.7154072612660416 -27.731898317072734 28.900404185711501 0 0 -1 I I #
coedge $-1 $417 $417 $-1 $598 reversed $266 $-1 #
edge $-1 $599 0 $599 6.2831853071796004 $267 $600 forward 7 unknown #
vertex $-1 $270 $601 #
ellipse-curve $-1 6.9184574160981711 -23.760257332244596 4.0817556827353831 0 -0.70710678939079041 0.70710677298230451 0.5 0 0 1 I I #
coedge $-1 $421 $421 $-1 $602 reversed $273 $-1 #
edge $-1 $603 0 $603 6.2831853071796004 $274 $604 forward 7 unknown #
vertex $-1 $277 $605 #
ellipse-curve $-1 10.223032648346354 -23.760257332244596 4.0817556827353831 0 -0.70710678939079041 0.70710677298230451 0.5 0 0 1 I I #
face $-1 $-1 $606 $57 $-1 $607 forward single #
loop $-1 $-1 $284 $278 #
plane-surface $-1 0 -27.731898317072734 0 0 1 0 0 0 1 forward_v I I I I #
coedge $-1 $608 $609 $610 $611 reversed $279 $-1 #
coedge $-1 $612 $281 $283 $435 forward $175 $-1 #
coedge $-1 $281 $612 $608 $613 forward $175 $-1 #
coedge $-1 $610 $284 $281 $432 forward $426 $-1 #
edge $-1 $438 8.7894744447924396 $614 16.500149986704869 $431 $615 forward 7 unknown #
coedge $-1 $616 $617 $282 $434 forward $606 $-1 #
edge $-1 $618 -22.9226803633182 $437 -14.979398393661924 $433 $619 forward 7 unknown #
edge $-1 $438 -3.0145775206728491e-014 $618 11.233497221578782 $283 $620 forward 7 unknown #
coedge $-1 $284 $610 $616 $621 reversed $426 $-1 #
vertex $-1 $621 $622 #
vertex $-1 $285 $623 #
straight-curve $-1 21.434286660541094 -27.731898317072734 28.900404185711501 0 0 -1 I I #
coedge $-1 $440 $440 $-1 $624 reversed $288 $-1 #
edge $-1 $625 0 $625 6.2831853071796004 $289 $626 forward 7 unknown #
vertex $-1 $292 $627 #
ellipse-curve $-1 23.637336815373224 -23.760257332244596 4.0817556827353831 0 -0.70710678939079041 0.70710677298230451 0.5 0 0 1 I I #
coedge $-1 $444 $444 $-1 $628 reversed $295 $-1 #
edge $-1 $629 0 $629 6.2831853071796004 $296 $630 forward 7 unknown #
vertex $-1 $299 $631 #
ellipse-curve $-1 26.941912047621408 -23.760257332244596 4.0817556827353831 0 -0.70710678939079041 0.70710677298230451 0.5 0 0 1 I I #
face $-1 $-1 $315 $45 $-1 $632 reversed single #
loop $-1 $-1 $464 $300 #
plane-surface $-1 0 27.731898317072734 0 0 -1 0 0 0 -1 forward_v I I I I #
coedge $-1 $633 $462 $465 $634 forward $301 $-1 #
coedge $-1 $468 $303 $304 $456 reversed $189 $-1 #
coedge $-1 $462 $633 $303 $454 reversed $301 $-1 #
edge $-1 $469 -8.0533967597258602 $635 8.0533967597258602 $453 $636 forward 7 unknown #
coedge $-1 $305 $304 $633 $637 forward $121 $-1 #
edge $-1 $460 -40.793481246375926 $635 40.793481246375926 $452 $638 forward 7 unknown #
coedge $-1 $465 $464 $305 $458 reversed $449 $-1 #
edge $-1 $639 -40.793481246375926 $459 40.793481246375926 $457 $640 forward 7 unknown #
vertex $-1 $307 $641 #
vertex $-1 $471 $642 #
straight-curve $-1 40.793481246375926 0 -8.0533967597258602 0 -1 0 I I #
coedge $-1 $451 $453 $308 $463 reversed $301 $-1 #
edge $-1 $466 -27.731898317072734 $469 27.731898317072734 $462 $643 forward 7 unknown #
coedge $-1 $457 $309 $314 $472 forward $449 $-1 #
coedge $-1 $309 $457 $451 $634 reversed $449 $-1 #
vertex $-1 $310 $644 #
straight-curve $-1 0 27.731898317072734 8.0533967597258602 -1 0 0 I I #
coedge $-1 $311 $452 $313 $471 reversed $189 $-1 #
vertex $-1 $463 $645 #
straight-curve $-1 0 -27.731898317072734 8.0533967597258602 1 0 0 I I #
edge $-1 $316 -8.0533967597258602 $460 8.0533967597258602 $313 $646 forward 7 unknown #
edge $-1 $317 -8.0533967597258602 $459 8.0533967597258602 $314 $647 forward 7 unknown #
point $-1 40.793481246375926 -27.731898317072734 8.0533967597258602 #
point $-1 40.793481246375926 27.731898317072734 8.0533967597258602 #
face $-1 $-1 $492 $46 $-1 $648 reversed single #
loop $-1 $-1 $649 $319 #
plane-surface $-1 -40.793481246375926 0 0 1 0 0 0 0 -1 forward_v I I I I #
coedge $-1 $479 $495 $323 $482 forward $320 $-1 #
coedge $-1 $330 $478 $322 $480 forward $320 $-1 #
edge $-1 $486 -1.1179229896944944 $333 3.6839335688390316 $479 $650 forward 7 unknown #
coedge $-1 $324 $323 $649 $651 reversed $125 $-1 #
edge $-1 $652 -22.235671235144419 $486 -14.879948787318593 $478 $653 forward 7 unknown #
coedge $-1 $491 $490 $324 $484 forward $492 $-1 #
edge $-1 $485 14.879948787318593 $654 22.235671235144419 $483 $655 forward 7 unknown #
vertex $-1 $484 $656 #
vertex $-1 $482 $657 #
straight-curve $-1 -33.437758798550099 0 0.16508229987777412 0 -1 0 I I #
coedge $-1 $658 $659 $327 $489 forward $476 $-1 #
edge $-1 $496 -27.731898317072734 $493 27.731898317072734 $488 $660 forward 7 unknown #
coedge $-1 $483 $328 $332 $498 forward $492 $-1 #
coedge $-1 $328 $483 $658 $661 reversed $492 $-1 #
loop $-1 $-1 $483 $475 #
vertex $-1 $661 $662 #
straight-curve $-1 -18.557810011231506 27.731898317072734 4.9669388584113001 1 0 0 I I #
coedge $-1 $478 $330 $659 $663 forward $320 $-1 #
vertex $-1 $663 $664 #
straight-curve $-1 -18.557810011231506 -27.731898317072734 4.9669388584113001 -1 0 0 I I #
edge $-1 $334 -3.6839335688390316 $485 1.1179229896944944 $490 $665 forward 7 unknown #
point $-1 -33.437758798550099 -27.731898317072734 4.9669388584113001 #
point $-1 -33.437758798550099 27.731898317072734 4.9669388584113001 #
face $-1 $-1 $351 $47 $-1 $666 reversed single #
loop $-1 $-1 $345 $336 #
plane-surface $-1 0 27.731898317072734 0 0 -1 0 0 0 -1 forward_v I I I I #
coedge $-1 $667 $339 $508 $668 reversed $205 $-1 #
coedge $-1 $339 $667 $344 $516 reversed $205 $-1 #
coedge $-1 $345 $511 $339 $507 forward $502 $-1 #
edge $-1 $669 -1.1179229896944944 $518 3.6839335688390316 $506 $670 forward 7 unknown #
coedge $-1 $341 $340 $504 $668 forward $129 $-1 #
coedge $-1 $521 $520 $340 $510 forward $337 $-1 #
edge $-1 $671 14.879948787318593 $513 22.235671235144419 $509 $672 forward 7 unknown #
coedge $-1 $506 $517 $341 $512 forward $502 $-1 #
edge $-1 $514 -22.235671235144419 $669 -14.879948787318593 $511 $673 forward 7 unknown #
vertex $-1 $343 $674 #
vertex $-1 $343 $675 #
straight-curve $-1 40.793481246375926 0 0.16508229987777412 0 1 0 I I #
edge $-1 $518 -27.731898317072734 $522 27.731898317072734 $505 $676 forward 7 unknown #
coedge $-1 $511 $345 $350 $525 forward $502 $-1 #
vertex $-1 $346 $677 #
straight-curve $-1 18.557810011231506 27.731898317072734 4.9669388584113001 1 0 0 I I #
coedge $-1 $509 $347 $667 $678 forward $337 $-1 #
coedge $-1 $347 $509 $349 $524 reversed $337 $-1 #
vertex $-1 $348 $679 #
straight-curve $-1 18.557810011231506 -27.731898317072734 4.9669388584113001 -1 0 0 I I #
edge $-1 $353 -4.9669388584113001 $513 -0.16508229987777412 $349 $680 forward 7 unknown #
edge $-1 $352 -4.9669388584113001 $514 -0.16508229987777412 $350 $681 forward 7 unknown #
point $-1 40.793481246375926 27.731898317072734 4.9669388584113001 #
point $-1 40.793481246375926 -27.731898317072734 4.9669388584113001 #
plane-surface $-1 0 -27.731898317072734 0 0 1 0 0 0 1 forward_v I I I I #
coedge $-1 $539 $538 $531 $682 forward $356 $-1 #
coedge $-1 $531 $358 $360 $535 reversed $213 $-1 #
coedge $-1 $358 $530 $529 $682 reversed $213 $-1 #
coedge $-1 $366 $361 $358 $533 forward $367 $-1 #
edge $-1 $536 -28.790289579966597 $683 -20.847007425985641 $532 $684 forward 7 unknown #
coedge $-1 $360 $359 $539 $685 reversed $133 $-1 #
edge $-1 $686 -11.233497221578782 $536 3.0145775206728491e-014 $530 $687 forward 7 unknown #
vertex $-1 $362 $688 #
straight-curve $-1 -12.43350688316392 -27.731898317072734 0.11011460574490251 1 0 0 I I #
coedge $-1 $529 $363 $366 $543 forward $356 $-1 #
coedge $-1 $363 $529 $534 $685 forward $356 $-1 #
vertex $-1 $364 $689 #
straight-curve $-1 -28.722351537284055 -42.711296710734658 8.0533967597258602 0 -1 0 I I #
straight-curve $-1 -28.722351537284055 -27.731898317072712 0.1101146057449256 0 0.70710677298230451 0.70710678939079041 I I #
edge $-1 $368 -28.722351537284055 $683 -21.011675995371625 $366 $690 forward 7 unknown #
point $-1 -28.722351537284055 -27.731898317072734 8.0533967597258602 #
point $-1 -28.722351537284055 -27.731898317072734 0.11011460574490428 #
edge $-1 $691 1 $691 0 $371 $-1 forward 7 unknown #
vertex $-1 $372 $692 #
ellipse-curve $-1 -26.519301382451932 -22.680293976580007 3.0017923521314542 0 -0.70710678939079041 0.70710677298230451 0.5 0 0 1 I I #
point $-1 -26.019301382451932 -23.760257332244613 4.0817556827353982 #
edge $-1 $693 1 $693 0 $375 $-1 forward 7 unknown #
vertex $-1 $376 $694 #
ellipse-curve $-1 -23.214726150203749 -22.680293976580007 3.0017923521314542 0 -0.70710678939079041 0.70710677298230451 0.5 0 0 1 I I #
point $-1 -22.714726150203749 -23.760257332244613 4.0817556827353982 #
loop $-1 $-1 $387 $379 #
plane-surface $-1 0 0 8.0533967597258602 0 0 1 1 0 0 forward_v I I I I #
coedge $-1 $557 $382 $384 $561 reversed $235 $-1 #
coedge $-1 $382 $556 $695 $696 reversed $235 $-1 #
coedge $-1 $390 $385 $382 $559 forward $380 $-1 #
edge $-1 $562 -28.790289579966597 $697 -20.847007425985641 $558 $698 forward 7 unknown #
coedge $-1 $384 $383 $565 $699 reversed $147 $-1 #
edge $-1 $700 -11.233497221578782 $562 3.0145775206728491e-014 $556 $701 forward 7 unknown #
vertex $-1 $386 $702 #
straight-curve $-1 -4.0740671835263953 -27.731898317072734 0.11011460574490251 1 0 0 I I #
coedge $-1 $695 $387 $390 $569 forward $554 $-1 #
coedge $-1 $387 $695 $560 $699 forward $554 $-1 #
vertex $-1 $388 $703 #
straight-curve $-1 -12.003472138009005 -42.711296710734658 8.0533967597258602 0 -1 0 I I #
straight-curve $-1 -12.003472138009005 -27.731898317072712 0.1101146057449256 0 0.70710677298230451 0.70710678939079041 I I #
edge $-1 $391 -12.003472138009005 $697 -4.2927965960965766 $390 $704 forward 7 unknown #
point $-1 -12.003472138009005 -27.731898317072734 8.0533967597258602 #
point $-1 -12.003472138009005 -27.731898317072734 0.11011460574490428 #
edge $-1 $705 1 $705 0 $394 $-1 forward 7 unknown #
vertex $-1 $395 $706 #
ellipse-curve $-1 -9.8004219831768822 -22.680293976580007 3.0017923521314542 0 -0.70710678939079041 0.70710677298230451 0.5 0 0 1 I I #
point $-1 -9.3004219831768822 -23.760257332244613 4.0817556827353982 #
edge $-1 $707 1 $707 0 $398 $-1 forward 7 unknown #
vertex $-1 $399 $708 #
ellipse-curve $-1 -6.495846750928699 -22.680293976580007 3.0017923521314542 0 -0.70710678939079041 0.70710677298230451 0.5 0 0 1 I I #
point $-1 -5.995846750928699 -23.760257332244613 4.0817556827353982 #
loop $-1 $-1 $410 $402 #
plane-surface $-1 0 0 8.0533967597258602 0 0 1 1 0 0 forward_v I I I I #
coedge $-1 $583 $405 $407 $587 reversed $257 $-1 #
coedge $-1 $405 $582 $709 $710 reversed $257 $-1 #
coedge $-1 $413 $408 $405 $585 forward $403 $-1 #
edge $-1 $588 -28.790289579966597 $711 -20.847007425985641 $584 $712 forward 7 unknown #
coedge $-1 $407 $406 $591 $713 reversed $161 $-1 #
edge $-1 $714 -11.233497221578782 $588 3.0145775206728491e-014 $582 $715 forward 7 unknown #
vertex $-1 $409 $716 #
straight-curve $-1 4.2853725161111278 -27.731898317072734 0.11011460574490251 1 0 0 I I #
coedge $-1 $709 $410 $413 $595 forward $580 $-1 #
coedge $-1 $410 $709 $586 $713 forward $580 $-1 #
vertex $-1 $411 $717 #
straight-curve $-1 4.7154072612660416 -42.711296710734658 8.0533967597258602 0 -1 0 I I #
straight-curve $-1 4.7154072612660416 -27.731898317072712 0.1101146057449256 0 0.70710677298230451 0.70710678939079041 I I #
edge $-1 $414 4.7154072612660416 $711 12.42608280317847 $413 $718 forward 7 unknown #
point $-1 4.7154072612660416 -27.731898317072734 8.0533967597258602 #
point $-1 4.7154072612660416 -27.731898317072734 0.11011460574490428 #
edge $-1 $719 1 $719 0 $417 $-1 forward 7 unknown #
vertex $-1 $418 $720 #
ellipse-curve $-1 6.9184574160981711 -22.680293976580007 3.0017923521314542 0 -0.70710678939079041 0.70710677298230451 0.5 0 0 1 I I #
point $-1 7.4184574160981711 -23.760257332244613 4.0817556827353982 #
edge $-1 $721 1 $721 0 $421 $-1 forward 7 unknown #
vertex $-1 $422 $722 #
ellipse-curve $-1 10.223032648346354 -22.680293976580007 3.0017923521314542 0 -0.70710678939079041 0.70710677298230451 0.5 0 0 1 I I #
point $-1 10.723032648346354 -23.760257332244613 4.0817556827353982 #
loop $-1 $-1 $433 $425 #
plane-surface $-1 0 0 8.0533967597258602 0 0 1 1 0 0 forward_v I I I I #
coedge $-1 $609 $428 $430 $613 reversed $279 $-1 #
coedge $-1 $428 $608 $723 $724 reversed $279 $-1 #
coedge $-1 $436 $431 $428 $611 forward $426 $-1 #
edge $-1 $614 -28.790289579966597 $725 -20.847007425985641 $610 $726 forward 7 unknown #
coedge $-1 $430 $429 $617 $727 reversed $175 $-1 #
edge $-1 $728 -11.233497221578782 $614 3.0145775206728491e-014 $608 $729 forward 7 unknown #
vertex $-1 $432 $730 #
straight-curve $-1 12.644812215748654 -27.731898317072734 0.11011460574490251 1 0 0 I I #
coedge $-1 $723 $433 $436 $621 forward $606 $-1 #
coedge $-1 $433 $723 $612 $727 forward $606 $-1 #
vertex $-1 $434 $731 #
straight-curve $-1 21.434286660541094 -42.711296710734658 8.0533967597258602 0 -1 0 I I #
straight-curve $-1 21.434286660541094 -27.731898317072712 0.1101146057449256 0 0.70710677298230451 0.70710678939079041 I I #
edge $-1 $437 21.434286660541094 $725 29.144962202453524 $436 $732 forward 7 unknown #
point $-1 21.434286660541094 -27.731898317072734 8.0533967597258602 #
point $-1 21.434286660541094 -27.731898317072734 0.11011460574490428 #
edge $-1 $733 1 $733 0 $440 $-1 forward 7 unknown #
vertex $-1 $441 $734 #
ellipse-curve $-1 23.637336815373224 -22.680293976580007 3.0017923521314542 0 -0.70710678939079041 0.70710677298230451 0.5 0 0 1 I I #
point $-1 24.137336815373224 -23.760257332244613 4.0817556827353982 #
edge $-1 $735 1 $735 0 $444 $-1 forward 7 unknown #
vertex $-1 $445 $736 #
ellipse-curve $-1 26.941912047621408 -22.680293976580007 3.0017923521314542 0 -0.70710678939079041 0.70710677298230451 0.5 0 0 1 I I #
point $-1 27.441912047621408 -23.760257332244613 4.0817556827353982 #
plane-surface $-1 40.793481246375926 0 0 -1 0 0 0 0 1 forward_v I I I I #
coedge $-1 $453 $451 $455 $637 reversed $301 $-1 #
edge $-1 $466 -8.0533967597258602 $639 8.0533967597258602 $465 $737 forward 7 unknown #
vertex $-1 $637 $738 #
straight-curve $-1 -40.793481246375926 -27.731898317072734 0 0 0 -1 I I #
edge $-1 $635 -27.731898317072734 $639 27.731898317072734 $633 $739 forward 7 unknown #
straight-curve $-1 0 -27.731898317072734 -8.0533967597258602 -1 0 0 I I #
vertex $-1 $458 $740 #
straight-curve $-1 0 27.731898317072734 -8.0533967597258602 1 0 0 I I #
point $-1 40.793481246375926 27.731898317072734 -8.0533967597258602 #
point $-1 40.793481246375926 -27.731898317072734 -8.0533967597258602 #
straight-curve $-1 -40.793481246375926 0 8.0533967597258602 0 -1 0 I I #
point $-1 -40.793481246375926 27.731898317072734 8.0533967597258602 #
point $-1 -40.793481246375926 -27.731898317072734 8.0533967597258602 #
straight-curve $-1 40.793481246375926 -27.731898317072734 0 0 0 -1 I I #
straight-curve $-1 40.793481246375926 27.731898317072734 0 0 0 -1 I I #
plane-surface $-1 0 27.731898317072734 0 0 -1 0 0 0 -1 forward_v I I I I #
coedge $-1 $659 $658 $481 $651 forward $476 $-1 #
straight-curve $-1 -33.437758798550099 -27.731898317072734 1.2830052895722686 0 0 1 I I #
edge $-1 $654 -27.731898317072734 $652 27.731898317072734 $649 $741 forward 7 unknown #
vertex $-1 $482 $742 #
straight-curve $-1 -18.557810011231506 -27.731898317072734 0.16508229987777412 1 0 0 I I #
vertex $-1 $484 $743 #
straight-curve $-1 -18.557810011231506 27.731898317072734 0.16508229987777412 -1 0 0 I I #
point $-1 -33.437758798550099 27.731898317072734 0.16508229987777412 #
point $-1 -33.437758798550099 -27.731898317072734 0.16508229987777412 #
coedge $-1 $649 $488 $491 $661 forward $476 $-1 #
coedge $-1 $488 $649 $495 $663 reversed $476 $-1 #
straight-curve $-1 -40.793481246375926 0 4.9669388584113001 0 1 0 I I #
edge $-1 $493 -4.9669388584113001 $654 -0.16508229987777412 $491 $744 forward 7 unknown #
point $-1 -40.793481246375926 27.731898317072734 4.9669388584113001 #
edge $-1 $496 -4.9669388584113001 $652 -0.16508229987777412 $659 $745 forward 7 unknown #
point $-1 -40.793481246375926 -27.731898317072734 4.9669388584113001 #
straight-curve $-1 -33.437758798550099 27.731898317072734 1.2830052895722686 0 0 -1 I I #
plane-surface $-1 40.793481246375926 0 0 -1 0 0 0 0 1 forward_v I I I I #
coedge $-1 $505 $504 $520 $678 reversed $205 $-1 #
edge $-1 $671 -27.731898317072734 $669 27.731898317072734 $504 $746 forward 7 unknown #
vertex $-1 $512 $747 #
straight-curve $-1 33.437758798550099 27.731898317072734 1.2830052895722686 0 0 1 I I #
vertex $-1 $510 $748 #
straight-curve $-1 18.557810011231506 -27.731898317072734 0.16508229987777412 1 0 0 I I #
straight-curve $-1 18.557810011231506 27.731898317072734 0.16508229987777412 -1 0 0 I I #
point $-1 40.793481246375926 -27.731898317072734 0.16508229987777412 #
point $-1 40.793481246375926 27.731898317072734 0.16508229987777412 #
straight-curve $-1 33.437758798550099 0 4.9669388584113001 0 -1 0 I I #
point $-1 33.437758798550099 27.731898317072734 4.9669388584113001 #
edge $-1 $522 -3.6839335688390316 $671 1.1179229896944944 $520 $749 forward 7 unknown #
point $-1 33.437758798550099 -27.731898317072734 4.9669388584113001 #
straight-curve $-1 40.793481246375926 -27.731898317072734 0 0 0 -1 I I #
straight-curve $-1 40.793481246375926 27.731898317072734 0 0 0 -1 I I #
edge $-1 $683 14.979398393661924 $686 22.9226803633182 $529 $750 forward 7 unknown #
vertex $-1 $682 $751 #
straight-curve $-1 -21.011675995371625 -27.731898317072734 28.900404185711501 0 0 1 I I #
edge $-1 $686 8.5781691122077053 $540 16.288844654120133 $539 $752 forward 7 unknown #
vertex $-1 $685 $753 #
straight-curve $-1 -21.011675995371625 -27.731898317072712 0.1101146057449256 0 -0.70710677298230451 -0.70710678939079041 I I #
point $-1 -21.011675995371625 -27.731898317072734 0.11011460574490428 #
point $-1 -28.722351537284055 -19.788616347416458 8.0533967597258602 #
straight-curve $-1 0 -27.731898317072734 8.0533967597258602 1 0 0 I I #
vertex $-1 $546 $754 #
point $-1 -26.019301382451932 -22.680293976580007 3.0017923521314542 #
vertex $-1 $550 $755 #
point $-1 -22.714726150203749 -22.680293976580007 3.0017923521314542 #
coedge $-1 $565 $564 $557 $696 forward $554 $-1 #
edge $-1 $697 14.979398393661924 $700 22.9226803633182 $695 $756 forward 7 unknown #
vertex $-1 $696 $757 #
straight-curve $-1 -4.2927965960965766 -27.731898317072734 28.900404185711501 0 0 1 I I #
edge $-1 $700 0.2187294125701813 $566 7.9294049544826102 $565 $758 forward 7 unknown #
vertex $-1 $699 $759 #
straight-curve $-1 -4.2927965960965766 -27.731898317072712 0.1101146057449256 0 -0.70710677298230451 -0.70710678939079041 I I #
point $-1 -4.2927965960965766 -27.731898317072734 0.11011460574490428 #
point $-1 -12.003472138009005 -19.788616347416458 8.0533967597258602 #
straight-curve $-1 0 -27.731898317072734 8.0533967597258602 1 0 0 I I #
vertex $-1 $572 $760 #
point $-1 -9.3004219831768822 -22.680293976580007 3.0017923521314542 #
vertex $-1 $576 $761 #
point $-1 -5.995846750928699 -22.680293976580007 3.0017923521314542 #
coedge $-1 $591 $590 $583 $710 forward $580 $-1 #
edge $-1 $711 14.979398393661924 $714 22.9226803633182 $709 $762 forward 7 unknown #
vertex $-1 $710 $763 #
straight-curve $-1 12.42608280317847 -27.731898317072734 28.900404185711501 0 0 1 I I #
edge $-1 $714 -8.1407102870673427 $592 -0.4300347451549138 $591 $764 forward 7 unknown #
vertex $-1 $713 $765 #
straight-curve $-1 12.42608280317847 -27.731898317072712 0.1101146057449256 0 -0.70710677298230451 -0.70710678939079041 I I #
point $-1 12.42608280317847 -27.731898317072734 0.11011460574490428 #
point $-1 4.7154072612660416 -19.788616347416458 8.0533967597258602 #
straight-curve $-1 0 -27.731898317072734 8.0533967597258602 1 0 0 I I #
vertex $-1 $598 $766 #
point $-1 7.4184574160981711 -22.680293976580007 3.0017923521314542 #
vertex $-1 $602 $767 #
point $-1 10.723032648346354 -22.680293976580007 3.0017923521314542 #
coedge $-1 $617 $616 $609 $724 forward $606 $-1 #
edge $-1 $725 14.979398393661924 $728 22.9226803633182 $723 $768 forward 7 unknown #
vertex $-1 $724 $769 #
straight-curve $-1 29.144962202453524 -27.731898317072734 28.900404185711501 0 0 1 I I #
edge $-1 $728 -16.500149986704869 $618 -8.7894744447924396 $617 $770 forward 7 unknown #
vertex $-1 $727 $771 #
straight-curve $-1 29.144962202453524 -27.731898317072712 0.1101146057449256 0 -0.70710677298230451 -0.70710678939079041 I I #
point $-1 29.144962202453524 -27.731898317072734 0.11011460574490428 #
point $-1 21.434286660541094 -19.788616347416458 8.0533967597258602 #
straight-curve $-1 0 -27.731898317072734 8.0533967597258602 1 0 0 I I #
vertex $-1 $624 $772 #
point $-1 24.137336815373224 -22.680293976580007 3.0017923521314542 #
vertex $-1 $628 $773 #
point $-1 27.441912047621408 -22.680293976580007 3.0017923521314542 #
straight-curve $-1 -40.793481246375926 27.731898317072734 0 0 0 -1 I I #
point $-1 -40.793481246375926 -27.731898317072734 -8.0533967597258602 #
straight-curve $-1 -40.793481246375926 0 -8.0533967597258602 0 1 0 I I #
point $-1 -40.793481246375926 27.731898317072734 -8.0533967597258602 #
straight-curve $-1 -40.793481246375926 0 0.16508229987777412 0 -1 0 I I #
point $-1 -40.793481246375926 -27.731898317072734 0.16508229987777412 #
point $-1 -40.793481246375926 27.731898317072734 0.16508229987777412 #
straight-curve $-1 -40.793481246375926 27.731898317072734 0 0 0 -1 I I #
straight-curve $-1 -40.793481246375926 -27.731898317072734 0 0 0 -1 I I #
straight-curve $-1 33.437758798550099 0 0.16508229987777412 0 1 0 I I #
point $-1 33.437758798550099 27.731898317072734 0.16508229987777412 #
point $-1 33.437758798550099 -27.731898317072734 0.16508229987777412 #
straight-curve $-1 33.437758798550099 -27.731898317072734 1.2830052895722686 0 0 -1 I I #
straight-curve $-1 -21.011675995371625 -42.711296710734658 8.0533967597258602 0 1 0 I I #
point $-1 -21.011675995371625 -27.731898317072734 8.0533967597258602 #
straight-curve $-1 -12.43350688316392 -19.788616347416461 8.0533967597258602 -1 0 0 I I #
point $-1 -21.011675995371625 -19.788616347416458 8.0533967597258602 #
point $-1 -26.519301382451932 -22.326740581884611 2.6482389656403016 #
point $-1 -23.214726150203749 -22.326740581884611 2.6482389656403016 #
straight-curve $-1 -4.2927965960965766 -42.711296710734658 8.0533967597258602 0 1 0 I I #
point $-1 -4.2927965960965766 -27.731898317072734 8.0533967597258602 #
straight-curve $-1 -4.0740671835263953 -19.788616347416461 8.0533967597258602 -1 0 0 I I #
point $-1 -4.2927965960965766 -19.788616347416458 8.0533967597258602 #
point $-1 -9.8004219831768822 -22.326740581884611 2.6482389656403016 #
point $-1 -6.495846750928699 -22.326740581884611 2.6482389656403016 #
straight-curve $-1 12.42608280317847 -42.711296710734658 8.0533967597258602 0 1 0 I I #
point $-1 12.42608280317847 -27.731898317072734 8.0533967597258602 #
straight-curve $-1 4.2853725161111278 -19.788616347416461 8.0533967597258602 -1 0 0 I I #
point $-1 12.42608280317847 -19.788616347416458 8.0533967597258602 #
point $-1 6.9184574160981711 -22.326740581884611 2.6482389656403016 #
point $-1 10.223032648346354 -22.326740581884611 2.6482389656403016 #
straight-curve $-1 29.144962202453524 -42.711296710734658 8.0533967597258602 0 1 0 I I #
point $-1 29.144962202453524 -27.731898317072734 8.0533967597258602 #
straight-curve $-1 12.644812215748654 -19.788616347416461 8.0533967597258602 -1 0 0 I I #
point $-1 29.144962202453524 -19.788616347416458 8.0533967597258602 #
point $-1 23.637336815373224 -22.326740581884611 2.6482389656403016 #
point $-1 26.941912047621408 -22.326740581884611 2.6482389656403016 #
End-of-ACIS-data 