500 0 5 0           
7 Unknown 11 ACIS 5.0 NT 24 Fri Mar 26 20:00:57 1999 
-1 9.9999999999999995e-007 1e-010 
body $-1 $5 $-1 $6 #
body $-1 $7 $-1 $8 #
body $-1 $9 $-1 $10 #
body $-1 $11 $-1 $12 #
body $-1 $13 $-1 $14 #
lump $-1 $-1 $15 $0 #
transform $-1 1 0 0 0 1 0 0 0 1 41.857966856898706 24.923674677517255 11.157503181313436 1 rotate no_reflect no_shear #
lump $-1 $-1 $16 $1 #
transform $-1 1 0 0 0 1 0 0 0 1 41.857966856898706 24.923674677517255 11.157503181313436 1 rotate no_reflect no_shear #
lump $-1 $-1 $17 $2 #
transform $-1 1 0 0 0 1 0 0 0 1 41.857966856898706 24.923674677517255 11.157503181313436 1 rotate no_reflect no_shear #
lump $-1 $-1 $18 $3 #
transform $-1 1 0 0 0 1 0 0 0 1 41.857966856898706 24.923674677517255 11.157503181313436 1 rotate no_reflect no_shear #
lump $-1 $-1 $19 $4 #
transform $-1 1 0 0 0 1 0 0 0 1 41.857966856898706 24.923674677517255 11.157503181313436 1 rotate no_reflect no_shear #
shell $-1 $-1 $-1 $20 $-1 $5 #
shell $-1 $-1 $-1 $21 $-1 $7 #
shell $-1 $-1 $-1 $22 $-1 $9 #
shell $-1 $-1 $-1 $23 $-1 $11 #
shell $-1 $-1 $-1 $24 $-1 $13 #
face $-1 $25 $26 $15 $-1 $27 forward single #
face $-1 $28 $29 $16 $-1 $30 reversed single #
face $-1 $31 $32 $17 $-1 $33 reversed single #
face $-1 $34 $35 $18 $-1 $36 forward single #
face $-1 $37 $38 $19 $-1 $39 reversed single #
face $-1 $40 $41 $15 $-1 $42 reversed single #
loop $-1 $-1 $43 $20 #
plane-surface $-1 0 0 11.157503181313436 0 0 1 1 0 0 forward_v I I I I #
face $-1 $44 $45 $16 $-1 $46 reversed single #
loop $-1 $-1 $47 $21 #
plane-surface $-1 -47.679774747211219 0 6.0771566142013977 0 0 1 1 0 0 forward_v I I I I #
face $-1 $48 $49 $17 $-1 $50 reversed single #
loop $-1 $-1 $51 $22 #
plane-surface $-1 47.679774747211219 0 6.0771566142013977 0 0 1 1 0 0 forward_v I I I I #
face $-1 $52 $53 $18 $-1 $54 forward single #
loop $-1 $-1 $55 $23 #
plane-surface $-1 -9.4061362081240674 42.225997767479384 99.814021698673855 1 0 0 0 -0.6560590369687036 -0.75470957328743171 forward_v I I I I #
face $-1 $56 $57 $19 $-1 $58 reversed single #
loop $-1 $59 $60 $24 #
cone-surface $-1 -3.3349576162086194 20.01088153697528 6.6744783463763682 0 -0.6560590369687036 -0.75470957328743171 2 0 0 1 I I 0 1 2 forward I I I I #
face $-1 $61 $62 $15 $-1 $63 reversed single #
loop $-1 $-1 $64 $25 #
plane-surface $-1 0 0 -11.157503181313436 0 0 1 1 0 0 forward_v I I I I #
coedge $-1 $65 $66 $67 $68 forward $26 $-1 #
face $-1 $69 $70 $16 $-1 $71 forward single #
loop $-1 $-1 $72 $28 #
plane-surface $-1 -53.501582637523732 0 8.6173298977574166 1 0 0 0 0 -1 forward_v I I I I #
coedge $-1 $73 $74 $75 $76 reversed $29 $-1 #
face $-1 $77 $78 $17 $-1 $79 reversed single #
loop $-1 $-1 $80 $31 #
plane-surface $-1 53.501582637523732 0 8.6173298977574166 -1 0 0 0 0 1 forward_v I I I I #
coedge $-1 $81 $82 $83 $84 forward $32 $-1 #
face $-1 $85 $86 $18 $-1 $87 forward single #
loop $-1 $-1 $88 $34 #
plane-surface $-1 -3.3349576162086194 -12.696597083730374 36.632805088174891 0 0.6560590369687036 0.75470957328743171 1 0 0 forward_v I I I I #
coedge $-1 $89 $90 $91 $92 reversed $35 $-1 #
face $-1 $93 $94 $19 $-1 $95 forward single #
loop $-1 $96 $97 $37 #
cone-surface $-1 -3.3349576162086194 18.599174313897507 5.0504949913743769 0 -0.6560590369687036 -0.75470957328743171 1 0 0 1 I I -0.70710678118654746 0.70710678118654746 1 forward I I I I #
loop $-1 $-1 $98 $24 #
coedge $-1 $60 $60 $99 $100 reversed $38 $-1 #
face $-1 $101 $102 $15 $-1 $103 reversed single #
loop $-1 $-1 $104 $40 #
plane-surface $-1 0 -24.923674677517255 0 0 1 0 0 0 1 forward_v I I I I #
coedge $-1 $105 $106 $107 $108 forward $41 $-1 #
coedge $-1 $109 $43 $110 $111 forward $26 $-1 #
coedge $-1 $43 $109 $112 $113 forward $26 $-1 #
coedge $-1 $114 $115 $43 $68 reversed $116 $-1 #
edge $-1 $117 -24.923674677517255 $118 24.923674677517255 $67 $119 forward 7 unknown #
face $-1 $120 $121 $16 $-1 $122 reversed single #
loop $-1 $-1 $123 $44 #
plane-surface $-1 0 0 11.157503181313436 0 0 1 1 0 0 forward_v I I I I #
coedge $-1 $124 $125 $126 $127 forward $45 $-1 #
coedge $-1 $128 $47 $129 $130 forward $29 $-1 #
coedge $-1 $47 $128 $131 $132 forward $29 $-1 #
coedge $-1 $133 $134 $47 $76 forward $135 $-1 #
edge $-1 $136 -24.923674677517255 $137 24.923674677517255 $75 $138 forward 7 unknown #
face $-1 $139 $140 $17 $-1 $141 reversed single #
loop $-1 $-1 $142 $48 #
plane-surface $-1 -47.679774747211219 0 6.0771566142013977 0 0 1 1 0 0 forward_v I I I I #
coedge $-1 $83 $143 $144 $145 forward $49 $-1 #
coedge $-1 $146 $51 $147 $148 forward $32 $-1 #
coedge $-1 $51 $146 $149 $150 forward $32 $-1 #
coedge $-1 $151 $80 $51 $84 reversed $49 $-1 #
edge $-1 $152 -24.923674677517255 $153 24.923674677517255 $83 $154 forward 7 unknown #
face $-1 $155 $156 $18 $-1 $157 forward single #
loop $-1 $-1 $158 $52 #
plane-surface $-1 2.7362209757068285 42.225997767479384 99.814021698673855 -1 0 0 0 0.6560590369687036 0.75470957328743171 forward_v I I I I #
coedge $-1 $159 $160 $161 $162 reversed $53 $-1 #
coedge $-1 $90 $55 $160 $163 forward $35 $-1 #
coedge $-1 $55 $89 $164 $165 reversed $35 $-1 #
coedge $-1 $166 $161 $55 $92 forward $156 $-1 #
edge $-1 $167 -4.5036141150882756 $168 3.8106757937775626 $91 $169 forward 7 unknown #
face $-1 $170 $171 $19 $-1 $172 forward single #
loop $-1 $-1 $173 $56 #
plane-surface $-1 -9.4061362081240674 42.225997767479384 99.814021698673855 1 0 0 0 -0.6560590369687036 -0.75470957328743171 forward_v I I I I #
loop $-1 $-1 $174 $37 #
coedge $-1 $97 $97 $98 $175 forward $57 $-1 #
coedge $-1 $98 $98 $97 $175 reversed $59 $-1 #
coedge $-1 $99 $99 $60 $100 forward $171 $-1 #
edge $-1 $176 6.9880766312699832e-016 $176 6.2831853071796013 $99 $177 forward 7 unknown #
face $-1 $178 $179 $15 $-1 $180 reversed single #
loop $-1 $-1 $181 $61 #
plane-surface $-1 -41.857966856898706 0 0 1 0 0 0 0 -1 forward_v I I I I #
coedge $-1 $182 $112 $183 $184 forward $62 $-1 #
coedge $-1 $185 $64 $182 $186 forward $41 $-1 #
coedge $-1 $64 $185 $187 $188 forward $41 $-1 #
coedge $-1 $115 $114 $64 $108 reversed $116 $-1 #
edge $-1 $189 -24.923674677517255 $190 24.923674677517255 $107 $191 forward 7 unknown #
coedge $-1 $66 $65 $192 $193 forward $26 $-1 #
coedge $-1 $194 $195 $65 $111 reversed $179 $-1 #
edge $-1 $118 -41.857966856898706 $196 41.857966856898706 $110 $197 forward 7 unknown #
coedge $-1 $104 $198 $66 $113 reversed $62 $-1 #
edge $-1 $199 -41.857966856898706 $117 41.857966856898706 $112 $200 forward 7 unknown #
coedge $-1 $107 $67 $198 $201 forward $116 $-1 #
coedge $-1 $67 $107 $194 $202 reversed $116 $-1 #
loop $-1 $-1 $114 $178 #
vertex $-1 $68 $203 #
vertex $-1 $68 $204 #
straight-curve $-1 41.857966856898706 0 11.157503181313436 0 1 0 I I #
face $-1 $205 $206 $16 $-1 $207 reversed single #
loop $-1 $-1 $208 $69 #
plane-surface $-1 0 0 -11.157503181313436 0 0 1 1 0 0 forward_v I I I I #
coedge $-1 $209 $210 $211 $212 forward $70 $-1 #
coedge $-1 $213 $72 $128 $214 reversed $45 $-1 #
coedge $-1 $72 $213 $215 $216 reversed $45 $-1 #
coedge $-1 $217 $131 $72 $127 reversed $218 $-1 #
edge $-1 $219 -2.5401732835560189 $220 2.5401732835560189 $126 $221 forward 7 unknown #
coedge $-1 $74 $73 $124 $214 forward $29 $-1 #
coedge $-1 $222 $223 $73 $130 reversed $206 $-1 #
edge $-1 $136 -5.8218078903125132 $224 5.8218078903125132 $129 $225 forward 7 unknown #
coedge $-1 $126 $226 $74 $132 reversed $218 $-1 #
edge $-1 $220 -5.8218078903125132 $137 5.8218078903125132 $131 $227 forward 7 unknown #
coedge $-1 $228 $75 $226 $229 forward $135 $-1 #
coedge $-1 $75 $228 $222 $230 reversed $135 $-1 #
loop $-1 $-1 $75 $205 #
vertex $-1 $230 $231 #
vertex $-1 $229 $232 #
straight-curve $-1 -41.857966856898706 0 6.0771566142013977 0 1 0 I I #
face $-1 $233 $234 $17 $-1 $235 forward single #
loop $-1 $-1 $236 $77 #
plane-surface $-1 -53.501582637523732 0 8.6173298977574166 1 0 0 0 0 -1 forward_v I I I I #
coedge $-1 $237 $238 $239 $240 reversed $78 $-1 #
coedge $-1 $80 $151 $241 $242 reversed $49 $-1 #
coedge $-1 $243 $147 $80 $145 reversed $244 $-1 #
edge $-1 $245 -2.5401732835560189 $153 2.5401732835560189 $80 $246 forward 7 unknown #
coedge $-1 $82 $81 $247 $248 reversed $32 $-1 #
coedge $-1 $144 $249 $81 $148 reversed $244 $-1 #
edge $-1 $153 -5.8218078903125132 $250 5.8218078903125132 $147 $251 forward 7 unknown #
coedge $-1 $252 $253 $82 $150 reversed $254 $-1 #
edge $-1 $255 -5.8218078903125132 $152 5.8218078903125132 $149 $256 forward 7 unknown #
coedge $-1 $143 $83 $253 $257 reversed $49 $-1 #
vertex $-1 $84 $258 #
vertex $-1 $145 $259 #
straight-curve $-1 53.501582637523732 0 6.0771566142013977 0 -1 0 I I #
face $-1 $260 $261 $18 $-1 $262 reversed single #
loop $-1 $-1 $263 $85 #
plane-surface $-1 0 0 11.157503181313436 0 0 1 1 0 0 forward_v I I I I #
coedge $-1 $264 $265 $263 $266 reversed $86 $-1 #
coedge $-1 $267 $88 $265 $268 reversed $53 $-1 #
coedge $-1 $88 $267 $89 $163 reversed $53 $-1 #
coedge $-1 $91 $263 $88 $162 forward $156 $-1 #
edge $-1 $269 -4.4036997838111382 $167 7.7386574000197577 $161 $270 forward 7 unknown #
edge $-1 $167 38.830807094082786 $271 49.84734935503451 $89 $272 forward 7 unknown #
coedge $-1 $273 $274 $90 $165 forward $275 $-1 #
edge $-1 $168 38.74950766802349 $271 45.977009774468506 $164 $276 forward 7 unknown #
coedge $-1 $277 $91 $274 $278 forward $156 $-1 #
vertex $-1 $162 $279 #
vertex $-1 $278 $280 #
straight-curve $-1 -9.4061362081240674 21.112998883739692 11.157503181313437 0 1 0 I I #
face $-1 $281 $282 $19 $-1 $283 forward single #
loop $-1 $284 $99 $93 #
plane-surface $-1 -3.3349576162086194 -12.696597083730374 36.632805088174891 0 0.6560590369687036 0.75470957328743171 1 0 0 forward_v I I I I #
coedge $-1 $285 $286 $287 $288 reversed $94 $-1 #
coedge $-1 $174 $174 $-1 $289 forward $96 $-1 #
edge $-1 $290 0 $290 6.2831853071796004 $97 $291 forward 7 unknown #
vertex $-1 $100 $292 #
ellipse-curve $-1 -3.3349576162086194 20.766529723084343 7.5437521280909214 0 -0.6560590369687036 -0.75470957328743171 2 0 0 1 I I #
face $-1 $-1 $116 $15 $-1 $293 reversed single #
loop $-1 $-1 $194 $101 #
plane-surface $-1 0 24.923674677517255 0 0 -1 0 0 0 -1 forward_v I I I I #
coedge $-1 $294 $192 $195 $295 forward $102 $-1 #
coedge $-1 $198 $104 $105 $186 reversed $62 $-1 #
coedge $-1 $192 $294 $104 $184 reversed $102 $-1 #
edge $-1 $199 -11.157503181313436 $296 11.157503181313436 $183 $297 forward 7 unknown #
coedge $-1 $106 $105 $294 $298 forward $41 $-1 #
edge $-1 $190 -41.857966856898706 $296 41.857966856898706 $182 $299 forward 7 unknown #
coedge $-1 $195 $194 $106 $188 reversed $179 $-1 #
edge $-1 $300 -41.857966856898706 $189 41.857966856898706 $187 $301 forward 7 unknown #
vertex $-1 $108 $302 #
vertex $-1 $201 $303 #
straight-curve $-1 41.857966856898706 0 -11.157503181313436 0 -1 0 I I #
coedge $-1 $181 $183 $109 $193 reversed $102 $-1 #
edge $-1 $196 -24.923674677517255 $199 24.923674677517255 $192 $304 forward 7 unknown #
coedge $-1 $187 $110 $115 $202 forward $179 $-1 #
coedge $-1 $110 $187 $181 $295 reversed $179 $-1 #
vertex $-1 $111 $305 #
straight-curve $-1 0 24.923674677517255 11.157503181313436 -1 0 0 I I #
coedge $-1 $112 $182 $114 $201 reversed $62 $-1 #
vertex $-1 $193 $306 #
straight-curve $-1 0 -24.923674677517255 11.157503181313436 1 0 0 I I #
edge $-1 $117 -11.157503181313436 $190 11.157503181313436 $114 $307 forward 7 unknown #
edge $-1 $118 -11.157503181313436 $189 11.157503181313436 $115 $308 forward 7 unknown #
point $-1 41.857966856898706 -24.923674677517255 11.157503181313436 #
point $-1 41.857966856898706 24.923674677517255 11.157503181313436 #
face $-1 $309 $135 $16 $-1 $310 reversed single #
loop $-1 $-1 $222 $120 #
plane-surface $-1 0 -24.923674677517255 0 0 1 0 0 0 1 forward_v I I I I #
coedge $-1 $311 $312 $313 $314 forward $121 $-1 #
coedge $-1 $215 $123 $217 $315 forward $70 $-1 #
coedge $-1 $123 $215 $316 $317 forward $70 $-1 #
coedge $-1 $318 $319 $123 $212 reversed $320 $-1 #
edge $-1 $321 -24.923674677517255 $322 24.923674677517255 $211 $323 forward 7 unknown #
coedge $-1 $125 $124 $223 $324 reversed $45 $-1 #
edge $-1 $224 -24.923674677517255 $220 24.923674677517255 $124 $325 forward 7 unknown #
coedge $-1 $210 $209 $125 $216 forward $70 $-1 #
edge $-1 $219 -24.923674677517255 $326 24.923674677517255 $125 $327 forward 7 unknown #
coedge $-1 $328 $126 $209 $315 reversed $218 $-1 #
loop $-1 $-1 $328 $309 #
vertex $-1 $315 $329 #
vertex $-1 $132 $330 #
straight-curve $-1 -53.501582637523732 24.923674677517255 8.6173298977574166 0 0 -1 I I #
coedge $-1 $331 $129 $134 $230 forward $206 $-1 #
coedge $-1 $129 $316 $213 $324 forward $206 $-1 #
vertex $-1 $214 $332 #
straight-curve $-1 -47.679774747211219 -24.923674677517255 6.0771566142013977 -1 0 0 I I #
coedge $-1 $131 $333 $133 $229 reversed $218 $-1 #
straight-curve $-1 -47.679774747211219 24.923674677517255 6.0771566142013977 1 0 0 I I #
coedge $-1 $134 $133 $334 $335 reversed $135 $-1 #
edge $-1 $137 -6.0771566142013977 $336 11.157503181313436 $226 $337 forward 7 unknown #
edge $-1 $136 -6.0771566142013977 $338 11.157503181313436 $134 $339 forward 7 unknown #
point $-1 -41.857966856898706 -24.923674677517255 6.0771566142013977 #
point $-1 -41.857966856898706 24.923674677517255 6.0771566142013977 #
face $-1 $340 $341 $17 $-1 $342 reversed single #
loop $-1 $-1 $343 $139 #
plane-surface $-1 0 0 11.157503181313436 0 0 1 1 0 0 forward_v I I I I #
coedge $-1 $344 $345 $346 $347 forward $140 $-1 #
coedge $-1 $348 $142 $349 $350 forward $78 $-1 #
coedge $-1 $142 $348 $351 $352 forward $78 $-1 #
coedge $-1 $353 $354 $142 $240 forward $355 $-1 #
edge $-1 $356 -24.923674677517255 $357 24.923674677517255 $239 $358 forward 7 unknown #
coedge $-1 $343 $359 $143 $242 forward $234 $-1 #
edge $-1 $245 -24.923674677517255 $360 24.923674677517255 $143 $361 forward 7 unknown #
coedge $-1 $362 $144 $359 $363 reversed $244 $-1 #
loop $-1 $-1 $364 $340 #
vertex $-1 $242 $365 #
straight-curve $-1 53.501582637523732 -24.923674677517255 8.6173298977574166 0 0 -1 I I #
coedge $-1 $366 $367 $146 $248 forward $368 $-1 #
edge $-1 $255 -24.923674677517255 $250 24.923674677517255 $247 $369 forward 7 unknown #
coedge $-1 $147 $370 $366 $371 reversed $244 $-1 #
vertex $-1 $371 $372 #
straight-curve $-1 47.679774747211219 -24.923674677517255 6.0771566142013977 -1 0 0 I I #
coedge $-1 $373 $149 $367 $374 forward $254 $-1 #
coedge $-1 $149 $375 $151 $257 forward $254 $-1 #
loop $-1 $-1 $252 $376 #
vertex $-1 $374 $377 #
straight-curve $-1 47.679774747211219 24.923674677517255 6.0771566142013977 1 0 0 I I #
edge $-1 $360 -2.5401732835560189 $152 2.5401732835560189 $151 $378 forward 7 unknown #
point $-1 53.501582637523732 24.923674677517255 6.0771566142013977 #
point $-1 53.501582637523732 -24.923674677517255 6.0771566142013977 #
face $-1 $379 $380 $18 $-1 $381 reversed single #
loop $-1 $-1 $382 $155 #
plane-surface $-1 47.679774747211219 0 6.0771566142013977 0 0 1 1 0 0 forward_v I I I I #
coedge $-1 $161 $383 $158 $266 forward $156 $-1 #
coedge $-1 $265 $158 $384 $385 reversed $86 $-1 #
coedge $-1 $158 $264 $159 $268 forward $86 $-1 #
edge $-1 $386 -3.8106757937775626 $269 4.5036141150882756 $263 $387 forward 7 unknown #
coedge $-1 $160 $159 $273 $388 reversed $53 $-1 #
edge $-1 $389 -49.84734935503451 $269 -38.830807094082786 $265 $390 forward 7 unknown #
vertex $-1 $162 $391 #
straight-curve $-1 -1.6674788081043097 16.609384768651413 11.157503181313441 -1 0 0 I I #
vertex $-1 $388 $392 #
straight-curve $-1 -9.4061362081240674 -12.696597083730374 36.632805088174891 0 0.75470957328743171 -0.6560590369687036 I I #
coedge $-1 $384 $164 $267 $388 forward $275 $-1 #
coedge $-1 $164 $393 $166 $278 reversed $275 $-1 #
loop $-1 $-1 $384 $394 #
straight-curve $-1 -9.4061362081240674 24.923674677517255 49.907010849336928 0 0 -1 I I #
coedge $-1 $395 $166 $396 $397 forward $156 $-1 #
edge $-1 $168 9.4061362081240674 $398 53.501582637523732 $274 $399 forward 7 unknown #
point $-1 -9.4061362081240674 16.609384768651417 11.157503181313437 #
point $-1 -9.4061362081240674 24.923674677517255 11.157503181313436 #
face $-1 $400 $401 $19 $-1 $402 forward single #
loop $-1 $-1 $403 $170 #
plane-surface $-1 2.7362209757068285 42.225997767479384 99.814021698673855 -1 0 0 0 0.6560590369687036 0.75470957328743171 forward_v I I I I #
loop $-1 $-1 $404 $93 #
coedge $-1 $286 $173 $405 $406 forward $94 $-1 #
coedge $-1 $173 $285 $407 $408 reversed $94 $-1 #
coedge $-1 $409 $410 $173 $288 forward $401 $-1 #
edge $-1 $411 -4.5036141150882756 $412 3.8106757937775626 $287 $413 forward 7 unknown #
edge $-1 $414 1 $414 0 $174 $-1 forward 7 unknown #
vertex $-1 $175 $415 #
ellipse-curve $-1 -3.3349576162086194 19.255233350866209 5.8052045646618087 0 0.6560590369687036 0.75470957328743171 2 0 0 1 I I #
point $-1 -1.3349576162086194 20.766529723084346 7.5437521280909277 #
plane-surface $-1 41.857966856898706 0 0 -1 0 0 0 0 1 forward_v I I I I #
coedge $-1 $183 $181 $185 $298 reversed $102 $-1 #
edge $-1 $196 -11.157503181313436 $300 11.157503181313436 $195 $416 forward 7 unknown #
vertex $-1 $298 $417 #
straight-curve $-1 -41.857966856898706 -24.923674677517255 0 0 0 -1 I I #
edge $-1 $296 -24.923674677517255 $300 24.923674677517255 $294 $418 forward 7 unknown #
straight-curve $-1 0 -24.923674677517255 -11.157503181313436 -1 0 0 I I #
vertex $-1 $188 $419 #
straight-curve $-1 0 24.923674677517255 -11.157503181313436 1 0 0 I I #
point $-1 41.857966856898706 24.923674677517255 -11.157503181313436 #
point $-1 41.857966856898706 -24.923674677517255 -11.157503181313436 #
straight-curve $-1 -41.857966856898706 0 11.157503181313436 0 -1 0 I I #
point $-1 -41.857966856898706 24.923674677517255 11.157503181313436 #
point $-1 -41.857966856898706 -24.923674677517255 11.157503181313436 #
straight-curve $-1 41.857966856898706 -24.923674677517255 0 0 0 -1 I I #
straight-curve $-1 41.857966856898706 24.923674677517255 0 0 0 -1 I I #
face $-1 $420 $218 $16 $-1 $421 reversed single #
plane-surface $-1 -41.857966856898706 0 0 1 0 0 0 0 -1 forward_v I I I I #
coedge $-1 $334 $208 $331 $422 forward $121 $-1 #
coedge $-1 $208 $334 $333 $423 forward $121 $-1 #
coedge $-1 $319 $318 $208 $314 reversed $320 $-1 #
edge $-1 $424 -24.923674677517255 $425 24.923674677517255 $313 $426 forward 7 unknown #
edge $-1 $322 -41.857966856898706 $219 53.501582637523732 $217 $427 forward 7 unknown #
coedge $-1 $223 $428 $210 $317 reversed $206 $-1 #
edge $-1 $326 -53.501582637523732 $321 41.857966856898706 $316 $429 forward 7 unknown #
coedge $-1 $313 $211 $428 $430 forward $320 $-1 #
coedge $-1 $211 $313 $328 $431 reversed $320 $-1 #
loop $-1 $-1 $318 $420 #
vertex $-1 $212 $432 #
vertex $-1 $212 $433 #
straight-curve $-1 41.857966856898706 0 11.157503181313436 0 1 0 I I #
edge $-1 $326 -2.5401732835560189 $224 2.5401732835560189 $213 $434 forward 7 unknown #
straight-curve $-1 -53.501582637523732 0 6.0771566142013977 0 1 0 I I #
vertex $-1 $216 $435 #
straight-curve $-1 -53.501582637523732 0 11.157503181313436 0 -1 0 I I #
coedge $-1 $333 $217 $319 $431 forward $218 $-1 #
point $-1 -53.501582637523732 24.923674677517255 11.157503181313436 #
point $-1 -53.501582637523732 24.923674677517255 6.0771566142013977 #
coedge $-1 $428 $222 $311 $422 reversed $206 $-1 #
point $-1 -53.501582637523732 -24.923674677517255 6.0771566142013977 #
coedge $-1 $226 $328 $312 $423 reversed $218 $-1 #
coedge $-1 $312 $311 $228 $335 forward $121 $-1 #
edge $-1 $338 -24.923674677517255 $336 24.923674677517255 $228 $436 forward 7 unknown #
vertex $-1 $423 $437 #
straight-curve $-1 -41.857966856898706 24.923674677517255 0 0 0 -1 I I #
vertex $-1 $335 $438 #
straight-curve $-1 -41.857966856898706 -24.923674677517255 0 0 0 -1 I I #
face $-1 $439 $244 $17 $-1 $440 reversed single #
loop $-1 $-1 $441 $233 #
plane-surface $-1 0 0 -11.157503181313436 0 0 1 1 0 0 forward_v I I I I #
coedge $-1 $442 $241 $375 $443 forward $234 $-1 #
coedge $-1 $444 $236 $348 $445 reversed $140 $-1 #
coedge $-1 $236 $444 $442 $446 reversed $140 $-1 #
coedge $-1 $375 $351 $236 $347 reversed $254 $-1 #
edge $-1 $447 -2.5401732835560189 $448 2.5401732835560189 $346 $449 forward 7 unknown #
coedge $-1 $238 $237 $344 $445 forward $78 $-1 #
coedge $-1 $364 $362 $237 $350 reversed $244 $-1 #
edge $-1 $356 -5.8218078903125132 $450 5.8218078903125132 $349 $451 forward 7 unknown #
coedge $-1 $346 $452 $238 $352 reversed $254 $-1 #
edge $-1 $448 -5.8218078903125132 $357 5.8218078903125132 $351 $453 forward 7 unknown #
coedge $-1 $454 $239 $452 $455 forward $355 $-1 #
coedge $-1 $239 $454 $364 $456 reversed $355 $-1 #
loop $-1 $-1 $239 $439 #
vertex $-1 $456 $457 #
vertex $-1 $455 $458 #
straight-curve $-1 -41.857966856898706 0 6.0771566142013977 0 1 0 I I #
coedge $-1 $241 $442 $243 $363 forward $234 $-1 #
vertex $-1 $242 $459 #
straight-curve $-1 53.501582637523732 0 11.157503181313436 0 1 0 I I #
coedge $-1 $349 $243 $444 $460 forward $244 $-1 #
edge $-1 $461 -101.18135738473495 $245 5.8218078903125132 $243 $462 forward 7 unknown #
coedge $-1 $370 $349 $354 $456 forward $244 $-1 #
point $-1 53.501582637523732 -24.923674677517255 11.157503181313436 #
coedge $-1 $463 $247 $249 $371 forward $368 $-1 #
coedge $-1 $247 $463 $252 $374 reversed $368 $-1 #
loop $-1 $-1 $247 $464 #
straight-curve $-1 41.857966856898706 0 6.0771566142013977 0 -1 0 I I #
coedge $-1 $249 $364 $465 $466 reversed $244 $-1 #
edge $-1 $250 -6.0771566142013977 $467 11.157503181313436 $366 $468 forward 7 unknown #
point $-1 41.857966856898706 -24.923674677517255 6.0771566142013977 #
coedge $-1 $452 $252 $469 $470 reversed $254 $-1 #
edge $-1 $255 -6.0771566142013977 $471 11.157503181313436 $367 $472 forward 7 unknown #
coedge $-1 $253 $346 $343 $443 reversed $254 $-1 #
face $-1 $464 $254 $17 $-1 $473 reversed single #
point $-1 41.857966856898706 24.923674677517255 6.0771566142013977 #
straight-curve $-1 53.501582637523732 24.923674677517255 8.6173298977574166 0 0 -1 I I #
face $-1 $474 $475 $18 $-1 $476 reversed single #
loop $-1 $-1 $477 $260 #
plane-surface $-1 53.501582637523732 0 8.6173298977574166 -1 0 0 0 0 1 forward_v I I I I #
coedge $-1 $478 $479 $480 $481 forward $261 $-1 #
coedge $-1 $263 $482 $483 $484 forward $156 $-1 #
coedge $-1 $483 $273 $264 $385 forward $275 $-1 #
edge $-1 $389 -45.977009774468506 $386 -38.74950766802349 $384 $485 forward 7 unknown #
vertex $-1 $385 $486 #
straight-curve $-1 2.7362209757068285 21.112998883739692 11.157503181313437 0 -1 0 I I #
edge $-1 $271 -7.7386574000197577 $389 4.4036997838111382 $273 $487 forward 7 unknown #
vertex $-1 $388 $488 #
straight-curve $-1 2.7362209757068285 -12.696597083730374 36.632805088174891 0 -0.75470957328743171 0.6560590369687036 I I #
point $-1 2.7362209757068285 16.609384768651417 11.157503181313437 #
point $-1 -9.4061362081240674 24.923674677517255 3.9300010748684215 #
coedge $-1 $274 $489 $490 $491 reversed $275 $-1 #
face $-1 $492 $275 $18 $-1 $493 reversed single #
coedge $-1 $482 $277 $494 $495 forward $156 $-1 #
coedge $-1 $490 $496 $277 $397 reversed $497 $-1 #
edge $-1 $398 -24.923674677517255 $498 24.923674677517255 $396 $499 forward 7 unknown #
vertex $-1 $278 $500 #
straight-curve $-1 0 24.923674677517255 11.157503181313436 -1 0 0 I I #
face $-1 $501 $502 $19 $-1 $503 reversed single #
loop $-1 $-1 $504 $281 #
plane-surface $-1 0 0 11.157503181313436 0 0 1 1 0 0 forward_v I I I I #
coedge $-1 $505 $506 $504 $507 reversed $282 $-1 #
coedge $-1 $508 $405 $410 $509 reversed $284 $-1 #
coedge $-1 $404 $510 $285 $406 reversed $284 $-1 #
edge $-1 $411 38.830807094082786 $511 49.84734935503451 $285 $512 forward 7 unknown #
coedge $-1 $513 $514 $286 $408 forward $515 $-1 #
edge $-1 $412 38.74950766802349 $511 45.977009774468506 $407 $516 forward 7 unknown #
coedge $-1 $517 $287 $514 $518 forward $401 $-1 #
coedge $-1 $287 $504 $404 $509 forward $401 $-1 #
vertex $-1 $509 $519 #
vertex $-1 $518 $520 #
straight-curve $-1 -9.4061362081240674 21.112998883739692 11.157503181313437 0 1 0 I I #
vertex $-1 $289 $521 #
point $-1 -1.3349576162086194 19.255233350866209 5.8052045646618087 #
straight-curve $-1 -41.857966856898706 24.923674677517255 0 0 0 -1 I I #
point $-1 -41.857966856898706 -24.923674677517255 -11.157503181313436 #
straight-curve $-1 -41.857966856898706 0 -11.157503181313436 0 1 0 I I #
point $-1 -41.857966856898706 24.923674677517255 -11.157503181313436 #
face $-1 $-1 $320 $16 $-1 $522 reversed single #
plane-surface $-1 0 24.923674677517255 0 0 -1 0 0 0 -1 forward_v I I I I #
edge $-1 $425 -41.857966856898706 $338 41.857966856898706 $331 $523 forward 7 unknown #
edge $-1 $336 -41.857966856898706 $424 41.857966856898706 $333 $524 forward 7 unknown #
vertex $-1 $314 $525 #
vertex $-1 $430 $526 #
straight-curve $-1 41.857966856898706 0 -11.157503181313436 0 -1 0 I I #
straight-curve $-1 0 24.923674677517255 11.157503181313436 -1 0 0 I I #
coedge $-1 $316 $331 $318 $430 reversed $206 $-1 #
straight-curve $-1 0 -24.923674677517255 11.157503181313436 1 0 0 I I #
edge $-1 $321 -11.157503181313436 $425 11.157503181313436 $318 $527 forward 7 unknown #
edge $-1 $322 -11.157503181313436 $424 11.157503181313436 $319 $528 forward 7 unknown #
point $-1 41.857966856898706 -24.923674677517255 11.157503181313436 #
point $-1 41.857966856898706 24.923674677517255 11.157503181313436 #
straight-curve $-1 -53.501582637523732 -24.923674677517255 8.6173298977574166 0 0 -1 I I #
point $-1 -53.501582637523732 -24.923674677517255 11.157503181313436 #
straight-curve $-1 -41.857966856898706 0 -11.157503181313436 0 1 0 I I #
point $-1 -41.857966856898706 24.923674677517255 -11.157503181313436 #
point $-1 -41.857966856898706 -24.923674677517255 -11.157503181313436 #
face $-1 $376 $355 $17 $-1 $529 reversed single #
plane-surface $-1 0 -24.923674677517255 0 0 1 0 0 0 1 forward_v I I I I #
coedge $-1 $465 $469 $463 $530 forward $341 $-1 #
coedge $-1 $359 $343 $345 $446 forward $234 $-1 #
edge $-1 $360 -53.501582637523732 $447 53.501582637523732 $375 $531 forward 7 unknown #
coedge $-1 $345 $344 $362 $460 reversed $140 $-1 #
edge $-1 $450 -24.923674677517255 $448 24.923674677517255 $344 $532 forward 7 unknown #
edge $-1 $447 -24.923674677517255 $461 24.923674677517255 $345 $533 forward 7 unknown #
vertex $-1 $443 $534 #
vertex $-1 $352 $535 #
straight-curve $-1 -53.501582637523732 24.923674677517255 8.6173298977574166 0 0 -1 I I #
vertex $-1 $445 $536 #
straight-curve $-1 -47.679774747211219 -24.923674677517255 6.0771566142013977 -1 0 0 I I #
coedge $-1 $351 $373 $353 $455 reversed $254 $-1 #
straight-curve $-1 -47.679774747211219 24.923674677517255 6.0771566142013977 1 0 0 I I #
coedge $-1 $354 $353 $537 $538 reversed $355 $-1 #
edge $-1 $357 -6.0771566142013977 $539 11.157503181313436 $452 $540 forward 7 unknown #
edge $-1 $356 -6.0771566142013977 $541 11.157503181313436 $354 $542 forward 7 unknown #
point $-1 -41.857966856898706 -24.923674677517255 6.0771566142013977 #
point $-1 -41.857966856898706 24.923674677517255 6.0771566142013977 #
point $-1 53.501582637523732 24.923674677517255 11.157503181313436 #
edge $-1 $461 -2.5401732835560189 $450 2.5401732835560189 $444 $543 forward 7 unknown #
vertex $-1 $446 $544 #
straight-curve $-1 47.679774747211219 -24.923674677517255 11.157503181313436 1 0 0 I I #
coedge $-1 $367 $366 $441 $530 reversed $368 $-1 #
face $-1 $-1 $368 $17 $-1 $545 reversed single #
coedge $-1 $537 $441 $370 $466 forward $341 $-1 #
edge $-1 $467 -41.857966856898706 $541 41.857966856898706 $370 $546 forward 7 unknown #
vertex $-1 $371 $547 #
straight-curve $-1 41.857966856898706 -24.923674677517255 0 0 0 -1 I I #
coedge $-1 $441 $537 $373 $470 forward $341 $-1 #
edge $-1 $539 -41.857966856898706 $471 41.857966856898706 $373 $548 forward 7 unknown #
vertex $-1 $530 $549 #
straight-curve $-1 41.857966856898706 24.923674677517255 0 0 0 -1 I I #
plane-surface $-1 0 24.923674677517255 0 0 -1 0 0 0 -1 forward_v I I I I #
face $-1 $550 $497 $18 $-1 $551 reversed single #
loop $-1 $-1 $552 $379 #
plane-surface $-1 -47.679774747211219 0 6.0771566142013977 0 0 1 1 0 0 forward_v I I I I #
coedge $-1 $480 $553 $554 $555 forward $380 $-1 #
coedge $-1 $556 $382 $557 $558 forward $261 $-1 #
coedge $-1 $382 $556 $559 $560 forward $261 $-1 #
coedge $-1 $561 $477 $382 $481 reversed $380 $-1 #
edge $-1 $562 -24.923674677517255 $563 24.923674677517255 $480 $564 forward 7 unknown #
coedge $-1 $383 $395 $553 $565 forward $156 $-1 #
coedge $-1 $566 $384 $383 $484 reversed $275 $-1 #
edge $-1 $567 -53.501582637523732 $386 -2.7362209757068285 $483 $399 forward 7 unknown #
straight-curve $-1 2.7362209757068285 24.923674677517255 49.907010849336928 0 0 1 I I #
point $-1 2.7362209757068285 24.923674677517255 11.157503181313436 #
straight-curve $-1 -1.6674788081043097 24.923674677517255 3.9300010748684251 1 0 0 I I #
point $-1 2.7362209757068285 24.923674677517255 3.9300010748684215 #
coedge $-1 $393 $568 $569 $570 reversed $275 $-1 #
coedge $-1 $571 $396 $393 $491 forward $497 $-1 #
edge $-1 $398 -2.5401732835560189 $572 2.5401732835560189 $393 $573 forward 7 unknown #
face $-1 $-1 $574 $18 $-1 $575 reversed single #
plane-surface $-1 0 24.923674677517255 0 0 -1 0 0 0 -1 forward_v I I I I #
coedge $-1 $576 $554 $395 $495 reversed $577 $-1 #
edge $-1 $498 -101.18135738473495 $578 5.8218078903125132 $494 $579 forward 7 unknown #
coedge $-1 $396 $571 $576 $580 reversed $497 $-1 #
loop $-1 $-1 $490 $474 #
vertex $-1 $397 $581 #
straight-curve $-1 -53.501582637523732 0 11.157503181313436 0 -1 0 I I #
point $-1 -53.501582637523732 24.923674677517255 11.157503181313436 #
face $-1 $582 $583 $19 $-1 $584 reversed single #
loop $-1 $-1 $585 $400 #
plane-surface $-1 47.679774747211219 0 6.0771566142013977 0 0 1 1 0 0 forward_v I I I I #
coedge $-1 $410 $586 $403 $507 forward $401 $-1 #
coedge $-1 $506 $403 $587 $588 reversed $282 $-1 #
coedge $-1 $403 $505 $508 $589 forward $282 $-1 #
edge $-1 $590 -3.8106757937775626 $591 4.5036141150882756 $504 $592 forward 7 unknown #
coedge $-1 $510 $404 $506 $589 reversed $284 $-1 #
edge $-1 $591 -4.4036997838111382 $411 7.7386574000197577 $410 $593 forward 7 unknown #
coedge $-1 $405 $508 $513 $594 reversed $284 $-1 #
vertex $-1 $594 $595 #
straight-curve $-1 -9.4061362081240674 -12.696597083730374 36.632805088174891 0 0.75470957328743171 -0.6560590369687036 I I #
coedge $-1 $587 $407 $510 $594 forward $515 $-1 #
coedge $-1 $407 $596 $409 $518 reversed $515 $-1 #
loop $-1 $-1 $587 $597 #
straight-curve $-1 -9.4061362081240674 24.923674677517255 49.907010849336928 0 0 -1 I I #
coedge $-1 $598 $409 $599 $600 forward $401 $-1 #
edge $-1 $412 9.4061362081240674 $601 53.501582637523732 $514 $602 forward 7 unknown #
point $-1 -9.4061362081240674 16.609384768651417 11.157503181313437 #
point $-1 -9.4061362081240674 24.923674677517255 11.157503181313436 #
point $-1 -3.3349576162086194 17.943115276928804 4.295785418086945 #
plane-surface $-1 41.857966856898706 0 0 -1 0 0 0 0 1 forward_v I I I I #
straight-curve $-1 0 -24.923674677517255 -11.157503181313436 -1 0 0 I I #
straight-curve $-1 0 24.923674677517255 -11.157503181313436 1 0 0 I I #
point $-1 41.857966856898706 24.923674677517255 -11.157503181313436 #
point $-1 41.857966856898706 -24.923674677517255 -11.157503181313436 #
straight-curve $-1 41.857966856898706 -24.923674677517255 0 0 0 -1 I I #
straight-curve $-1 41.857966856898706 24.923674677517255 0 0 0 -1 I I #
plane-surface $-1 -41.857966856898706 0 0 1 0 0 0 0 -1 forward_v I I I I #
edge $-1 $471 -24.923674677517255 $467 24.923674677517255 $463 $603 forward 7 unknown #
straight-curve $-1 0 24.923674677517255 11.157503181313436 -1 0 0 I I #
straight-curve $-1 -53.501582637523732 0 6.0771566142013977 0 1 0 I I #
straight-curve $-1 -53.501582637523732 0 11.157503181313436 0 -1 0 I I #
point $-1 -53.501582637523732 24.923674677517255 11.157503181313436 #
point $-1 -53.501582637523732 24.923674677517255 6.0771566142013977 #
point $-1 -53.501582637523732 -24.923674677517255 6.0771566142013977 #
coedge $-1 $469 $465 $454 $538 forward $341 $-1 #
edge $-1 $541 -24.923674677517255 $539 24.923674677517255 $454 $604 forward 7 unknown #
vertex $-1 $470 $605 #
straight-curve $-1 -41.857966856898706 24.923674677517255 0 0 0 -1 I I #
vertex $-1 $538 $606 #
straight-curve $-1 -41.857966856898706 -24.923674677517255 0 0 0 -1 I I #
straight-curve $-1 -53.501582637523732 -24.923674677517255 8.6173298977574166 0 0 -1 I I #
point $-1 -53.501582637523732 -24.923674677517255 11.157503181313436 #
plane-surface $-1 41.857966856898706 0 0 -1 0 0 0 0 1 forward_v I I I I #
straight-curve $-1 0 -24.923674677517255 -11.157503181313436 -1 0 0 I I #
point $-1 41.857966856898706 -24.923674677517255 -11.157503181313436 #
straight-curve $-1 0 24.923674677517255 -11.157503181313436 1 0 0 I I #
point $-1 41.857966856898706 24.923674677517255 -11.157503181313436 #
face $-1 $607 $608 $18 $-1 $609 reversed single #
plane-surface $-1 -53.501582637523732 0 8.6173298977574166 1 0 0 0 0 -1 forward_v I I I I #
coedge $-1 $610 $569 $611 $612 reversed $475 $-1 #
coedge $-1 $477 $561 $482 $565 reversed $380 $-1 #
coedge $-1 $494 $557 $477 $555 reversed $577 $-1 #
edge $-1 $578 -2.5401732835560189 $563 2.5401732835560189 $477 $613 forward 7 unknown #
coedge $-1 $479 $478 $614 $615 reversed $261 $-1 #
coedge $-1 $554 $616 $478 $558 reversed $577 $-1 #
edge $-1 $563 -5.8218078903125132 $617 5.8218078903125132 $557 $618 forward 7 unknown #
coedge $-1 $619 $566 $479 $560 reversed $275 $-1 #
edge $-1 $620 -5.8218078903125132 $562 5.8218078903125132 $559 $621 forward 7 unknown #
coedge $-1 $553 $480 $566 $622 reversed $380 $-1 #
vertex $-1 $481 $623 #
vertex $-1 $555 $624 #
straight-curve $-1 53.501582637523732 0 6.0771566142013977 0 -1 0 I I #
edge $-1 $578 -24.923674677517255 $567 24.923674677517255 $553 $625 forward 7 unknown #
coedge $-1 $559 $483 $561 $622 forward $275 $-1 #
vertex $-1 $565 $626 #
coedge $-1 $489 $627 $628 $629 reversed $275 $-1 #
coedge $-1 $552 $630 $489 $570 forward $475 $-1 #
edge $-1 $572 -5.8218078903125132 $631 5.8218078903125132 $489 $632 forward 7 unknown #
coedge $-1 $496 $490 $630 $633 reversed $497 $-1 #
vertex $-1 $570 $634 #
straight-curve $-1 -53.501582637523732 24.923674677517255 8.6173298977574166 0 0 -1 I I #
loop $-1 $-1 $614 $492 #
plane-surface $-1 41.857966856898706 0 0 -1 0 0 0 0 1 forward_v I I I I #
coedge $-1 $635 $494 $496 $580 forward $577 $-1 #
loop $-1 $-1 $636 $607 #
vertex $-1 $565 $637 #
straight-curve $-1 47.679774747211219 -24.923674677517255 11.157503181313436 1 0 0 I I #
edge $-1 $498 -2.5401732835560189 $638 2.5401732835560189 $496 $639 forward 7 unknown #
point $-1 -53.501582637523732 -24.923674677517255 11.157503181313436 #
face $-1 $640 $641 $19 $-1 $642 reversed single #
loop $-1 $-1 $643 $501 #
plane-surface $-1 53.501582637523732 0 8.6173298977574166 -1 0 0 0 0 1 forward_v I I I I #
coedge $-1 $644 $645 $646 $647 forward $502 $-1 #
coedge $-1 $504 $648 $649 $650 forward $401 $-1 #
coedge $-1 $649 $513 $505 $588 forward $515 $-1 #
edge $-1 $651 -45.977009774468506 $590 -38.74950766802349 $587 $652 forward 7 unknown #
edge $-1 $651 -49.84734935503451 $591 -38.830807094082786 $506 $653 forward 7 unknown #
vertex $-1 $588 $654 #
vertex $-1 $509 $655 #
straight-curve $-1 2.7362209757068285 21.112998883739692 11.157503181313437 0 -1 0 I I #
straight-curve $-1 -1.6674788081043097 16.609384768651413 11.157503181313441 -1 0 0 I I #
edge $-1 $511 -7.7386574000197577 $651 4.4036997838111382 $513 $656 forward 7 unknown #
point $-1 -9.4061362081240674 24.923674677517255 3.9300010748684215 #
coedge $-1 $514 $657 $658 $659 reversed $515 $-1 #
face $-1 $660 $515 $19 $-1 $661 reversed single #
coedge $-1 $648 $517 $662 $663 forward $401 $-1 #
coedge $-1 $658 $664 $517 $600 reversed $665 $-1 #
edge $-1 $601 -24.923674677517255 $666 24.923674677517255 $599 $667 forward 7 unknown #
vertex $-1 $518 $668 #
straight-curve $-1 0 24.923674677517255 11.157503181313436 -1 0 0 I I #
straight-curve $-1 41.857966856898706 0 -11.157503181313436 0 -1 0 I I #
straight-curve $-1 -41.857966856898706 0 -11.157503181313436 0 1 0 I I #
point $-1 -41.857966856898706 24.923674677517255 -11.157503181313436 #
point $-1 -41.857966856898706 -24.923674677517255 -11.157503181313436 #
face $-1 $669 $577 $18 $-1 $670 reversed single #
loop $-1 $-1 $671 $550 #
plane-surface $-1 0 0 -11.157503181313436 0 0 1 1 0 0 forward_v I I I I #
coedge $-1 $630 $552 $635 $672 forward $475 $-1 #
coedge $-1 $628 $673 $552 $612 forward $674 $-1 #
edge $-1 $675 -24.923674677517255 $631 24.923674677517255 $611 $676 forward 7 unknown #
straight-curve $-1 53.501582637523732 -24.923674677517255 8.6173298977574166 0 0 -1 I I #
coedge $-1 $677 $678 $556 $615 forward $574 $-1 #
edge $-1 $620 -24.923674677517255 $617 24.923674677517255 $614 $679 forward 7 unknown #
coedge $-1 $557 $680 $677 $681 reversed $577 $-1 #
vertex $-1 $681 $682 #
straight-curve $-1 47.679774747211219 -24.923674677517255 6.0771566142013977 -1 0 0 I I #
coedge $-1 $627 $559 $678 $683 forward $275 $-1 #
vertex $-1 $683 $684 #
straight-curve $-1 47.679774747211219 24.923674677517255 6.0771566142013977 1 0 0 I I #
edge $-1 $567 -2.5401732835560189 $562 2.5401732835560189 $561 $685 forward 7 unknown #
point $-1 53.501582637523732 24.923674677517255 6.0771566142013977 #
point $-1 53.501582637523732 -24.923674677517255 6.0771566142013977 #
straight-curve $-1 53.501582637523732 0 11.157503181313436 0 1 0 I I #
point $-1 53.501582637523732 24.923674677517255 11.157503181313436 #
coedge $-1 $568 $619 $686 $687 reversed $275 $-1 #
coedge $-1 $688 $611 $568 $629 forward $674 $-1 #
edge $-1 $631 -6.0771566142013977 $689 11.157503181313436 $568 $690 forward 7 unknown #
coedge $-1 $569 $610 $571 $633 forward $475 $-1 #
vertex $-1 $629 $691 #
straight-curve $-1 -47.679774747211219 24.923674677517255 6.0771566142013977 1 0 0 I I #
edge $-1 $638 -24.923674677517255 $572 24.923674677517255 $571 $692 forward 7 unknown #
point $-1 -53.501582637523732 24.923674677517255 6.0771566142013977 #
coedge $-1 $636 $576 $610 $672 reversed $577 $-1 #
coedge $-1 $680 $635 $673 $693 forward $577 $-1 #
point $-1 53.501582637523732 -24.923674677517255 11.157503181313436 #
vertex $-1 $633 $694 #
straight-curve $-1 -53.501582637523732 -24.923674677517255 8.6173298977574166 0 0 -1 I I #
face $-1 $695 $665 $19 $-1 $696 reversed single #
loop $-1 $-1 $697 $582 #
plane-surface $-1 -47.679774747211219 0 6.0771566142013977 0 0 1 1 0 0 forward_v I I I I #
coedge $-1 $646 $698 $699 $700 forward $583 $-1 #
coedge $-1 $701 $585 $702 $703 forward $502 $-1 #
coedge $-1 $585 $701 $704 $705 forward $502 $-1 #
coedge $-1 $706 $643 $585 $647 reversed $583 $-1 #
edge $-1 $707 -24.923674677517255 $708 24.923674677517255 $646 $709 forward 7 unknown #
coedge $-1 $586 $598 $698 $710 forward $401 $-1 #
coedge $-1 $711 $587 $586 $650 reversed $515 $-1 #
edge $-1 $712 -53.501582637523732 $590 -2.7362209757068285 $649 $602 forward 7 unknown #
vertex $-1 $594 $713 #
straight-curve $-1 2.7362209757068285 24.923674677517255 49.907010849336928 0 0 1 I I #
straight-curve $-1 2.7362209757068285 -12.696597083730374 36.632805088174891 0 -0.75470957328743171 0.6560590369687036 I I #
point $-1 2.7362209757068285 24.923674677517255 11.157503181313436 #
point $-1 2.7362209757068285 16.609384768651417 11.157503181313437 #
straight-curve $-1 -1.6674788081043097 24.923674677517255 3.9300010748684251 1 0 0 I I #
coedge $-1 $596 $714 $715 $716 reversed $515 $-1 #
coedge $-1 $717 $599 $596 $659 forward $665 $-1 #
edge $-1 $601 -2.5401732835560189 $718 2.5401732835560189 $596 $719 forward 7 unknown #
face $-1 $-1 $720 $19 $-1 $721 reversed single #
plane-surface $-1 0 24.923674677517255 0 0 -1 0 0 0 -1 forward_v I I I I #
coedge $-1 $722 $699 $598 $663 reversed $723 $-1 #
edge $-1 $666 -101.18135738473495 $724 5.8218078903125132 $662 $725 forward 7 unknown #
coedge $-1 $599 $717 $722 $726 reversed $665 $-1 #
loop $-1 $-1 $658 $640 #
vertex $-1 $600 $727 #
straight-curve $-1 -53.501582637523732 0 11.157503181313436 0 -1 0 I I #
point $-1 -53.501582637523732 24.923674677517255 11.157503181313436 #
face $-1 $394 $674 $18 $-1 $728 reversed single #
plane-surface $-1 0 -24.923674677517255 0 0 1 0 0 0 1 forward_v I I I I #
coedge $-1 $729 $686 $730 $731 forward $608 $-1 #
edge $-1 $675 -5.8218078903125132 $638 5.8218078903125132 $635 $732 forward 7 unknown #
coedge $-1 $611 $688 $636 $693 reversed $674 $-1 #
loop $-1 $-1 $611 $669 #
vertex $-1 $693 $733 #
straight-curve $-1 -41.857966856898706 0 6.0771566142013977 0 1 0 I I #
coedge $-1 $730 $614 $616 $681 forward $574 $-1 #
coedge $-1 $614 $730 $619 $683 reversed $574 $-1 #
straight-curve $-1 41.857966856898706 0 6.0771566142013977 0 -1 0 I I #
coedge $-1 $616 $636 $729 $734 reversed $577 $-1 #
edge $-1 $617 -6.0771566142013977 $735 11.157503181313436 $677 $736 forward 7 unknown #
point $-1 41.857966856898706 -24.923674677517255 6.0771566142013977 #
edge $-1 $620 -6.0771566142013977 $737 11.157503181313436 $678 $738 forward 7 unknown #
point $-1 41.857966856898706 24.923674677517255 6.0771566142013977 #
straight-curve $-1 53.501582637523732 24.923674677517255 8.6173298977574166 0 0 -1 I I #
coedge $-1 $671 $739 $627 $687 forward $608 $-1 #
edge $-1 $689 -41.857966856898706 $737 41.857966856898706 $627 $740 forward 7 unknown #
coedge $-1 $673 $628 $739 $741 reversed $674 $-1 #
vertex $-1 $687 $742 #
straight-curve $-1 -41.857966856898706 24.923674677517255 0 0 0 -1 I I #
point $-1 -41.857966856898706 24.923674677517255 6.0771566142013977 #
straight-curve $-1 -53.501582637523732 0 6.0771566142013977 0 1 0 I I #
edge $-1 $675 -6.0771566142013977 $743 11.157503181313436 $673 $744 forward 7 unknown #
point $-1 -53.501582637523732 -24.923674677517255 6.0771566142013977 #
face $-1 $745 $746 $19 $-1 $747 reversed single #
plane-surface $-1 -53.501582637523732 0 8.6173298977574166 1 0 0 0 0 -1 forward_v I I I I #
coedge $-1 $748 $715 $749 $750 reversed $641 $-1 #
coedge $-1 $643 $706 $648 $710 reversed $583 $-1 #
coedge $-1 $662 $702 $643 $700 reversed $723 $-1 #
edge $-1 $724 -2.5401732835560189 $708 2.5401732835560189 $643 $751 forward 7 unknown #
coedge $-1 $645 $644 $752 $753 reversed $502 $-1 #
coedge $-1 $699 $754 $644 $703 reversed $723 $-1 #
edge $-1 $708 -5.8218078903125132 $755 5.8218078903125132 $702 $756 forward 7 unknown #
coedge $-1 $757 $711 $645 $705 reversed $515 $-1 #
edge $-1 $758 -5.8218078903125132 $707 5.8218078903125132 $704 $759 forward 7 unknown #
coedge $-1 $698 $646 $711 $760 reversed $583 $-1 #
vertex $-1 $647 $761 #
vertex $-1 $700 $762 #
straight-curve $-1 53.501582637523732 0 6.0771566142013977 0 -1 0 I I #
edge $-1 $724 -24.923674677517255 $712 24.923674677517255 $698 $763 forward 7 unknown #
coedge $-1 $704 $649 $706 $760 forward $515 $-1 #
vertex $-1 $710 $764 #
point $-1 2.7362209757068285 24.923674677517255 3.9300010748684215 #
coedge $-1 $657 $765 $766 $767 reversed $515 $-1 #
coedge $-1 $697 $768 $657 $716 forward $641 $-1 #
edge $-1 $718 -5.8218078903125132 $769 5.8218078903125132 $657 $770 forward 7 unknown #
coedge $-1 $664 $658 $768 $771 reversed $665 $-1 #
vertex $-1 $716 $772 #
straight-curve $-1 -53.501582637523732 24.923674677517255 8.6173298977574166 0 0 -1 I I #
loop $-1 $-1 $752 $660 #
plane-surface $-1 41.857966856898706 0 0 -1 0 0 0 0 1 forward_v I I I I #
coedge $-1 $773 $662 $664 $726 forward $723 $-1 #
loop $-1 $-1 $774 $745 #
vertex $-1 $710 $775 #
straight-curve $-1 47.679774747211219 -24.923674677517255 11.157503181313436 1 0 0 I I #
edge $-1 $666 -2.5401732835560189 $776 2.5401732835560189 $664 $777 forward 7 unknown #
point $-1 -53.501582637523732 -24.923674677517255 11.157503181313436 #
plane-surface $-1 -41.857966856898706 0 0 1 0 0 0 0 -1 forward_v I I I I #
coedge $-1 $739 $671 $680 $734 forward $608 $-1 #
coedge $-1 $678 $677 $671 $731 reversed $574 $-1 #
edge $-1 $737 -24.923674677517255 $735 24.923674677517255 $730 $778 forward 7 unknown #
straight-curve $-1 -47.679774747211219 -24.923674677517255 6.0771566142013977 -1 0 0 I I #
point $-1 -41.857966856898706 -24.923674677517255 6.0771566142013977 #
edge $-1 $735 -41.857966856898706 $743 41.857966856898706 $680 $779 forward 7 unknown #
vertex $-1 $681 $780 #
straight-curve $-1 41.857966856898706 -24.923674677517255 0 0 0 -1 I I #
vertex $-1 $731 $781 #
straight-curve $-1 41.857966856898706 24.923674677517255 0 0 0 -1 I I #
coedge $-1 $686 $729 $688 $741 forward $608 $-1 #
straight-curve $-1 0 24.923674677517255 -11.157503181313436 1 0 0 I I #
edge $-1 $743 -24.923674677517255 $689 24.923674677517255 $688 $782 forward 7 unknown #
point $-1 -41.857966856898706 24.923674677517255 -11.157503181313436 #
vertex $-1 $741 $783 #
straight-curve $-1 -41.857966856898706 -24.923674677517255 0 0 0 -1 I I #
face $-1 $784 $723 $19 $-1 $785 reversed single #
loop $-1 $-1 $786 $695 #
plane-surface $-1 0 0 -11.157503181313436 0 0 1 1 0 0 forward_v I I I I #
coedge $-1 $768 $697 $773 $787 forward $641 $-1 #
coedge $-1 $766 $788 $697 $750 forward $789 $-1 #
edge $-1 $790 -24.923674677517255 $769 24.923674677517255 $749 $791 forward 7 unknown #
straight-curve $-1 53.501582637523732 -24.923674677517255 8.6173298977574166 0 0 -1 I I #
coedge $-1 $792 $793 $701 $753 forward $720 $-1 #
edge $-1 $758 -24.923674677517255 $755 24.923674677517255 $752 $794 forward 7 unknown #
coedge $-1 $702 $795 $792 $796 reversed $723 $-1 #
vertex $-1 $796 $797 #
straight-curve $-1 47.679774747211219 -24.923674677517255 6.0771566142013977 -1 0 0 I I #
coedge $-1 $765 $704 $793 $798 forward $515 $-1 #
vertex $-1 $798 $799 #
straight-curve $-1 47.679774747211219 24.923674677517255 6.0771566142013977 1 0 0 I I #
edge $-1 $712 -2.5401732835560189 $707 2.5401732835560189 $706 $800 forward 7 unknown #
point $-1 53.501582637523732 24.923674677517255 6.0771566142013977 #
point $-1 53.501582637523732 -24.923674677517255 6.0771566142013977 #
straight-curve $-1 53.501582637523732 0 11.157503181313436 0 1 0 I I #
point $-1 53.501582637523732 24.923674677517255 11.157503181313436 #
coedge $-1 $714 $757 $801 $802 reversed $515 $-1 #
coedge $-1 $803 $749 $714 $767 forward $789 $-1 #
edge $-1 $769 -6.0771566142013977 $804 11.157503181313436 $714 $805 forward 7 unknown #
coedge $-1 $715 $748 $717 $771 forward $641 $-1 #
vertex $-1 $767 $806 #
straight-curve $-1 -47.679774747211219 24.923674677517255 6.0771566142013977 1 0 0 I I #
edge $-1 $776 -24.923674677517255 $718 24.923674677517255 $717 $807 forward 7 unknown #
point $-1 -53.501582637523732 24.923674677517255 6.0771566142013977 #
coedge $-1 $774 $722 $748 $787 reversed $723 $-1 #
coedge $-1 $795 $773 $788 $808 forward $723 $-1 #
point $-1 53.501582637523732 -24.923674677517255 11.157503181313436 #
vertex $-1 $771 $809 #
straight-curve $-1 -53.501582637523732 -24.923674677517255 8.6173298977574166 0 0 -1 I I #
straight-curve $-1 41.857966856898706 0 -11.157503181313436 0 -1 0 I I #
straight-curve $-1 0 -24.923674677517255 -11.157503181313436 -1 0 0 I I #
point $-1 41.857966856898706 -24.923674677517255 -11.157503181313436 #
point $-1 41.857966856898706 24.923674677517255 -11.157503181313436 #
straight-curve $-1 -41.857966856898706 0 -11.157503181313436 0 1 0 I I #
point $-1 -41.857966856898706 -24.923674677517255 -11.157503181313436 #
face $-1 $597 $789 $19 $-1 $810 reversed single #
plane-surface $-1 0 -24.923674677517255 0 0 1 0 0 0 1 forward_v I I I I #
coedge $-1 $811 $801 $812 $813 forward $746 $-1 #
edge $-1 $790 -5.8218078903125132 $776 5.8218078903125132 $773 $814 forward 7 unknown #
coedge $-1 $749 $803 $774 $808 reversed $789 $-1 #
loop $-1 $-1 $749 $784 #
vertex $-1 $808 $815 #
straight-curve $-1 -41.857966856898706 0 6.0771566142013977 0 1 0 I I #
coedge $-1 $812 $752 $754 $796 forward $720 $-1 #
coedge $-1 $752 $812 $757 $798 reversed $720 $-1 #
straight-curve $-1 41.857966856898706 0 6.0771566142013977 0 -1 0 I I #
coedge $-1 $754 $774 $811 $816 reversed $723 $-1 #
edge $-1 $755 -6.0771566142013977 $817 11.157503181313436 $792 $818 forward 7 unknown #
point $-1 41.857966856898706 -24.923674677517255 6.0771566142013977 #
edge $-1 $758 -6.0771566142013977 $819 11.157503181313436 $793 $820 forward 7 unknown #
point $-1 41.857966856898706 24.923674677517255 6.0771566142013977 #
straight-curve $-1 53.501582637523732 24.923674677517255 8.6173298977574166 0 0 -1 I I #
coedge $-1 $786 $821 $765 $802 forward $746 $-1 #
edge $-1 $804 -41.857966856898706 $819 41.857966856898706 $765 $822 forward 7 unknown #
coedge $-1 $788 $766 $821 $823 reversed $789 $-1 #
vertex $-1 $802 $824 #
straight-curve $-1 -41.857966856898706 24.923674677517255 0 0 0 -1 I I #
point $-1 -41.857966856898706 24.923674677517255 6.0771566142013977 #
straight-curve $-1 -53.501582637523732 0 6.0771566142013977 0 1 0 I I #
edge $-1 $790 -6.0771566142013977 $825 11.157503181313436 $788 $826 forward 7 unknown #
point $-1 -53.501582637523732 -24.923674677517255 6.0771566142013977 #
plane-surface $-1 -41.857966856898706 0 0 1 0 0 0 0 -1 forward_v I I I I #
coedge $-1 $821 $786 $795 $816 forward $746 $-1 #
coedge $-1 $793 $792 $786 $813 reversed $720 $-1 #
edge $-1 $819 -24.923674677517255 $817 24.923674677517255 $812 $827 forward 7 unknown #
straight-curve $-1 -47.679774747211219 -24.923674677517255 6.0771566142013977 -1 0 0 I I #
point $-1 -41.857966856898706 -24.923674677517255 6.0771566142013977 #
edge $-1 $817 -41.857966856898706 $825 41.857966856898706 $795 $828 forward 7 unknown #
vertex $-1 $796 $829 #
straight-curve $-1 41.857966856898706 -24.923674677517255 0 0 0 -1 I I #
vertex $-1 $813 $830 #
straight-curve $-1 41.857966856898706 24.923674677517255 0 0 0 -1 I I #
coedge $-1 $801 $811 $803 $823 forward $746 $-1 #
straight-curve $-1 0 24.923674677517255 -11.157503181313436 1 0 0 I I #
edge $-1 $825 -24.923674677517255 $804 24.923674677517255 $803 $831 forward 7 unknown #
point $-1 -41.857966856898706 24.923674677517255 -11.157503181313436 #
vertex $-1 $823 $832 #
straight-curve $-1 -41.857966856898706 -24.923674677517255 0 0 0 -1 I I #
straight-curve $-1 41.857966856898706 0 -11.157503181313436 0 -1 0 I I #
straight-curve $-1 0 -24.923674677517255 -11.157503181313436 -1 0 0 I I #
point $-1 41.857966856898706 -24.923674677517255 -11.157503181313436 #
point $-1 41.857966856898706 24.923674677517255 -11.157503181313436 #
straight-curve $-1 -41.857966856898706 0 -11.157503181313436 0 1 0 I I #
point $-1 -41.857966856898706 -24.923674677517255 -11.157503181313436 #
End-of-ACIS-data 