500 0 9 0           
7 Unknown 11 ACIS 5.0 NT 24 Fri Mar 26 02:12:40 1999 
-1 9.9999999999999995e-007 1e-010 
body $-1 $9 $-1 $10 #
body $-1 $11 $-1 $12 #
body $-1 $13 $-1 $14 #
body $-1 $15 $-1 $16 #
body $-1 $17 $-1 $18 #
body $-1 $19 $-1 $20 #
body $-1 $21 $-1 $22 #
body $-1 $23 $-1 $24 #
body $-1 $25 $-1 $26 #
lump $-1 $-1 $27 $0 #
transform $-1 1 0 0 0 1 0 0 0 1 44.294564653462324 26.863591620211327 8.7562666798811932 1 rotate no_reflect no_shear #
lump $-1 $-1 $28 $1 #
transform $-1 1 0 0 0 1 0 0 0 1 44.294564653462324 26.863591620211327 8.7562666798811932 1 rotate no_reflect no_shear #
lump $-1 $-1 $29 $2 #
transform $-1 1 0 0 0 1 0 0 0 1 44.294564653462324 26.863591620211327 8.7562666798811932 1 rotate no_reflect no_shear #
lump $-1 $-1 $30 $3 #
transform $-1 1 0 0 0 1 0 0 0 1 44.294564653462324 26.863591620211327 8.7562666798811932 1 rotate no_reflect no_shear #
lump $-1 $-1 $31 $4 #
transform $-1 1 0 0 0 1 0 0 0 1 44.294564653462324 26.863591620211327 8.7562666798811932 1 rotate no_reflect no_shear #
lump $-1 $-1 $32 $5 #
transform $-1 1 0 0 0 1 0 0 0 1 44.294564653462324 26.863591620211327 8.7562666798811932 1 rotate no_reflect no_shear #
lump $-1 $-1 $33 $6 #
transform $-1 1 0 0 0 1 0 0 0 1 44.294564653462324 26.863591620211327 8.7562666798811932 1 rotate no_reflect no_shear #
lump $-1 $-1 $34 $7 #
transform $-1 1 0 0 0 1 0 0 0 1 44.294564653462324 26.863591620211327 8.7562666798811932 1 rotate no_reflect no_shear #
lump $-1 $-1 $35 $8 #
transform $-1 1 0 0 0 1 0 0 0 1 44.294564653462324 26.863591620211327 8.7562666798811932 1 rotate no_reflect no_shear #
shell $-1 $-1 $-1 $36 $-1 $9 #
shell $-1 $-1 $-1 $37 $-1 $11 #
shell $-1 $-1 $-1 $38 $-1 $13 #
shell $-1 $-1 $-1 $39 $-1 $15 #
shell $-1 $-1 $-1 $40 $-1 $17 #
shell $-1 $-1 $-1 $41 $-1 $19 #
shell $-1 $-1 $-1 $42 $-1 $21 #
shell $-1 $-1 $-1 $43 $-1 $23 #
shell $-1 $-1 $-1 $44 $-1 $25 #
face $-1 $45 $46 $27 $-1 $47 forward single #
face $-1 $48 $49 $28 $-1 $50 forward single #
face $-1 $51 $52 $29 $-1 $53 forward single #
face $-1 $54 $55 $30 $-1 $56 reversed single #
face $-1 $57 $58 $31 $-1 $59 forward single #
face $-1 $60 $61 $32 $-1 $62 forward single #
face $-1 $63 $64 $33 $-1 $65 reversed single #
face $-1 $66 $67 $34 $-1 $68 forward single #
face $-1 $69 $70 $35 $-1 $71 forward single #
face $-1 $72 $73 $27 $-1 $74 reversed single #
loop $-1 $-1 $75 $36 #
plane-surface $-1 0 0 8.7562666798811932 0 0 1 1 0 0 forward_v I I I I #
face $-1 $76 $77 $28 $-1 $78 reversed single #
loop $-1 $-1 $79 $37 #
plane-surface $-1 0 -26.863591620211327 0 0 1 0 0 0 1 forward_v I I I I #
face $-1 $80 $81 $29 $-1 $82 reversed single #
loop $-1 $-1 $83 $38 #
plane-surface $-1 0 26.863591620211327 0 0 -1 0 0 0 -1 forward_v I I I I #
face $-1 $84 $85 $30 $-1 $86 reversed single #
loop $-1 $-1 $87 $39 #
plane-surface $-1 -104.71220627846856 -16.383296814148697 70.317527823536906 0 1 0 -0.68199836817093118 0 0.7313536940579346 forward_v I I I I #
face $-1 $88 $89 $31 $-1 $90 forward single #
loop $-1 $91 $92 $40 #
cone-surface $-1 -42.222373232077665 -14.080610889362944 6.7762269186823998 0.68199836817093118 0 -0.7313536940579346 0.18283842351448365 0 0.17049959204273279 1 I I 0 1 0.25 forward I I I I #
face $-1 $93 $94 $32 $-1 $95 forward single #
loop $-1 $96 $97 $41 #
cone-surface $-1 -42.222373232077665 -10.626582002184318 6.7762269186823998 0.68199836817093118 0 -0.7313536940579346 0.18283842351448365 0 0.17049959204273279 1 I I 0 1 0.25 forward I I I I #
face $-1 $98 $99 $33 $-1 $100 reversed single #
loop $-1 $-1 $101 $42 #
plane-surface $-1 18.246568205067035 12.030680633997697 124.52110576955424 0 -1 0 -0.54463904215088732 0 -0.83867056331134215 forward_v I I I I #
face $-1 $102 $103 $34 $-1 $104 forward single #
loop $-1 $105 $106 $43 #
cone-surface $-1 37.986195945076403 6.5895559230166576 3.6914733101101014 -0.54463904215088732 0 -0.83867056331134215 0.83867056331134215 0 -0.54463904215088732 1 I I 0 1 1 forward I I I I #
face $-1 $107 $108 $35 $-1 $109 forward single #
loop $-1 $110 $111 $44 #
cone-surface $-1 37.986195945076403 9.8542307496052821 3.6914733101101014 -0.54463904215088732 0 -0.83867056331134215 0.83867056331134215 0 -0.54463904215088732 1 I I 0 1 1 forward I I I I #
face $-1 $112 $113 $27 $-1 $114 reversed single #
loop $-1 $-1 $115 $45 #
plane-surface $-1 0 0 -8.7562666798811932 0 0 1 1 0 0 forward_v I I I I #
coedge $-1 $116 $117 $118 $119 forward $46 $-1 #
face $-1 $120 $121 $28 $-1 $122 reversed single #
loop $-1 $-1 $123 $48 #
plane-surface $-1 0 0 -8.7562666798811932 0 0 1 1 0 0 forward_v I I I I #
coedge $-1 $124 $125 $126 $127 forward $49 $-1 #
face $-1 $128 $129 $29 $-1 $130 reversed single #
loop $-1 $-1 $131 $51 #
plane-surface $-1 0 0 -8.7562666798811932 0 0 1 1 0 0 forward_v I I I I #
coedge $-1 $132 $133 $134 $135 forward $52 $-1 #
face $-1 $136 $137 $30 $-1 $138 reversed single #
loop $-1 $-1 $139 $54 #
plane-surface $-1 -44.294564653462331 -12.353596445773631 5.5275408515415307 -0.68199836817093118 0 0.7313536940579346 0.7313536940579346 0 0.68199836817093118 forward_v I I I I #
coedge $-1 $140 $141 $142 $143 reversed $55 $-1 #
face $-1 $-1 $144 $31 $-1 $145 forward single #
loop $-1 $146 $147 $57 #
cone-surface $-1 -41.796124251970831 -14.080610889362944 6.3191308598961911 0.68199836817093118 0 -0.7313536940579346 0.091419211757241825 0 0.085249796021366397 1 I I -0.70710678118654746 0.70710678118654746 0.125 forward I I I I #
loop $-1 $-1 $148 $40 #
coedge $-1 $92 $92 $149 $150 reversed $58 $-1 #
face $-1 $-1 $151 $32 $-1 $152 forward single #
loop $-1 $153 $154 $60 #
cone-surface $-1 -41.796124251970831 -10.626582002184318 6.3191308598961911 0.68199836817093118 0 -0.7313536940579346 0.091419211757241825 0 0.085249796021366397 1 I I -0.70710678118654746 0.70710678118654746 0.125 forward I I I I #
loop $-1 $-1 $155 $41 #
coedge $-1 $97 $97 $156 $157 reversed $61 $-1 #
face $-1 $158 $159 $33 $-1 $160 reversed single #
loop $-1 $-1 $161 $63 #
plane-surface $-1 -30.002530325637508 8.2218933363109663 50.224010790454415 0.54463904215088732 0 0.83867056331134215 0.83867056331134215 0 -0.54463904215088732 forward_v I I I I #
coedge $-1 $162 $163 $164 $165 reversed $64 $-1 #
face $-1 $-1 $166 $34 $-1 $167 forward single #
loop $-1 $168 $169 $66 #
cone-surface $-1 36.626692657742062 6.5895559230166576 1.5980218687489867 -0.54463904215088732 0 -0.83867056331134215 0.41933528165567108 0 -0.27231952107544366 1 I I -0.70710678118654746 0.70710678118654746 0.5 forward I I I I #
loop $-1 $-1 $170 $43 #
coedge $-1 $106 $106 $171 $172 reversed $67 $-1 #
face $-1 $-1 $173 $35 $-1 $174 forward single #
loop $-1 $175 $176 $69 #
cone-surface $-1 36.626692657742062 9.8542307496052821 1.5980218687489867 -0.54463904215088732 0 -0.83867056331134215 0.41933528165567108 0 -0.27231952107544366 1 I I -0.70710678118654746 0.70710678118654746 0.5 forward I I I I #
loop $-1 $-1 $177 $44 #
coedge $-1 $111 $111 $178 $179 reversed $70 $-1 #
face $-1 $180 $181 $27 $-1 $182 reversed single #
loop $-1 $-1 $183 $72 #
plane-surface $-1 0 -26.863591620211327 0 0 1 0 0 0 1 forward_v I I I I #
coedge $-1 $184 $185 $186 $187 forward $73 $-1 #
coedge $-1 $188 $75 $189 $190 forward $46 $-1 #
coedge $-1 $75 $188 $191 $192 forward $46 $-1 #
coedge $-1 $193 $194 $75 $119 reversed $195 $-1 #
edge $-1 $196 -26.863591620211327 $197 26.863591620211327 $118 $198 forward 7 unknown #
face $-1 $199 $200 $28 $-1 $201 reversed single #
loop $-1 $-1 $202 $76 #
plane-surface $-1 -36.109019969135318 -37.343886426273954 0 0 1 0 0 0 1 forward_v I I I I #
coedge $-1 $203 $204 $125 $205 forward $77 $-1 #
coedge $-1 $206 $79 $207 $208 reversed $49 $-1 #
coedge $-1 $79 $206 $123 $205 reversed $49 $-1 #
coedge $-1 $209 $210 $79 $127 reversed $200 $-1 #
edge $-1 $211 -8.7562666798811932 $212 8.7562666798811932 $126 $213 forward 7 unknown #
face $-1 $214 $215 $29 $-1 $216 reversed single #
loop $-1 $-1 $217 $80 #
plane-surface $-1 -38.121381986800813 32.103739023242639 0 1 0 0 0 0 -1 forward_v I I I I #
coedge $-1 $218 $219 $133 $220 forward $81 $-1 #
coedge $-1 $221 $83 $222 $223 reversed $52 $-1 #
coedge $-1 $83 $221 $131 $220 reversed $52 $-1 #
coedge $-1 $224 $225 $83 $135 reversed $226 $-1 #
edge $-1 $227 -8.7562666798811932 $228 8.7562666798811932 $134 $229 forward 7 unknown #
face $-1 $230 $231 $30 $-1 $232 reversed single #
loop $-1 $-1 $233 $84 #
plane-surface $-1 -104.71220627846856 -8.3238960773985653 70.317527823536906 0 -1 0 0.68199836817093118 0 -0.7313536940579346 forward_v I I I I #
coedge $-1 $234 $235 $236 $237 reversed $85 $-1 #
coedge $-1 $141 $87 $238 $239 reversed $55 $-1 #
coedge $-1 $87 $140 $234 $240 reversed $55 $-1 #
coedge $-1 $236 $241 $87 $143 forward $242 $-1 #
edge $-1 $243 8.0615384857719548 $244 11.523922960370349 $142 $245 forward 7 unknown #
loop $-1 $-1 $149 $88 #
plane-surface $-1 -44.294564653462331 -12.353596445773631 5.5275408515415307 -0.68199836817093118 0 0.7313536940579346 0.7313536940579346 0 0.68199836817093118 forward_v I I I I #
loop $-1 $-1 $246 $57 #
coedge $-1 $147 $147 $148 $247 reversed $89 $-1 #
coedge $-1 $148 $148 $147 $247 forward $91 $-1 #
coedge $-1 $149 $149 $92 $150 forward $144 $-1 #
edge $-1 $248 0 $248 6.2831853071796004 $149 $249 forward 7 unknown #
loop $-1 $-1 $156 $93 #
plane-surface $-1 -44.294564653462331 -12.353596445773631 5.5275408515415307 -0.68199836817093118 0 0.7313536940579346 0.7313536940579346 0 0.68199836817093118 forward_v I I I I #
loop $-1 $-1 $250 $60 #
coedge $-1 $154 $154 $155 $251 reversed $94 $-1 #
coedge $-1 $155 $155 $154 $251 forward $96 $-1 #
coedge $-1 $156 $156 $97 $157 forward $151 $-1 #
edge $-1 $252 0 $252 6.2831853071796004 $156 $253 forward 7 unknown #
face $-1 $254 $255 $33 $-1 $256 forward single #
loop $-1 $-1 $257 $98 #
plane-surface $-1 18.246568205067035 4.4131060386242353 124.52110576955424 0 1 0 0.54463904215088732 0 0.83867056331134215 forward_v I I I I #
coedge $-1 $258 $259 $260 $261 reversed $99 $-1 #
coedge $-1 $163 $101 $262 $263 reversed $64 $-1 #
coedge $-1 $101 $162 $258 $264 reversed $64 $-1 #
coedge $-1 $260 $265 $101 $165 forward $255 $-1 #
edge $-1 $266 -35.171280550928806 $267 -24.728910666674764 $164 $268 forward 7 unknown #
loop $-1 $-1 $171 $102 #
plane-surface $-1 -30.002530325637508 8.2218933363109663 50.224010790454415 0.54463904215088732 0 0.83867056331134215 0.83867056331134215 0 -0.54463904215088732 forward_v I I I I #
loop $-1 $-1 $269 $66 #
coedge $-1 $169 $169 $170 $270 reversed $103 $-1 #
coedge $-1 $170 $170 $169 $270 forward $105 $-1 #
coedge $-1 $171 $171 $106 $172 forward $166 $-1 #
edge $-1 $271 0 $271 6.2831853071796004 $171 $272 forward 7 unknown #
loop $-1 $-1 $178 $107 #
plane-surface $-1 -30.002530325637508 8.2218933363109663 50.224010790454415 0.54463904215088732 0 0.83867056331134215 0.83867056331134215 0 -0.54463904215088732 forward_v I I I I #
loop $-1 $-1 $273 $69 #
coedge $-1 $176 $176 $177 $274 reversed $108 $-1 #
coedge $-1 $177 $177 $176 $274 forward $110 $-1 #
coedge $-1 $178 $178 $111 $179 forward $173 $-1 #
edge $-1 $275 0 $275 6.2831853071796004 $178 $276 forward 7 unknown #
face $-1 $277 $278 $27 $-1 $279 reversed single #
loop $-1 $-1 $280 $112 #
plane-surface $-1 -44.294564653462324 0 0 1 0 0 0 0 -1 forward_v I I I I #
coedge $-1 $281 $191 $282 $283 forward $113 $-1 #
coedge $-1 $284 $115 $281 $285 forward $73 $-1 #
coedge $-1 $115 $284 $286 $287 forward $73 $-1 #
coedge $-1 $194 $193 $115 $187 reversed $195 $-1 #
edge $-1 $288 -26.863591620211327 $289 26.863591620211327 $186 $290 forward 7 unknown #
coedge $-1 $117 $116 $291 $292 forward $46 $-1 #
coedge $-1 $293 $294 $116 $190 reversed $278 $-1 #
edge $-1 $197 -44.294564653462324 $295 44.294564653462324 $189 $296 forward 7 unknown #
coedge $-1 $183 $297 $117 $192 reversed $113 $-1 #
edge $-1 $298 -44.294564653462324 $196 44.294564653462324 $191 $299 forward 7 unknown #
coedge $-1 $186 $118 $297 $300 forward $195 $-1 #
coedge $-1 $118 $186 $293 $301 reversed $195 $-1 #
loop $-1 $-1 $193 $277 #
vertex $-1 $119 $302 #
vertex $-1 $119 $303 #
straight-curve $-1 44.294564653462324 0 8.7562666798811932 0 1 0 I I #
face $-1 $304 $305 $28 $-1 $306 reversed single #
loop $-1 $-1 $126 $120 #
plane-surface $-1 -38.121381986800813 -32.103739023242639 0 1 0 0 0 0 -1 forward_v I I I I #
coedge $-1 $307 $308 $309 $310 forward $121 $-1 #
coedge $-1 $311 $123 $312 $313 forward $77 $-1 #
coedge $-1 $123 $311 $209 $314 forward $77 $-1 #
edge $-1 $211 -38.121381986800813 $315 -34.096657951469822 $123 $316 forward 7 unknown #
coedge $-1 $125 $124 $317 $318 forward $49 $-1 #
coedge $-1 $319 $320 $124 $208 forward $321 $-1 #
edge $-1 $322 34.096657951469822 $212 38.121381986800813 $207 $323 forward 7 unknown #
coedge $-1 $309 $126 $204 $314 reversed $200 $-1 #
coedge $-1 $126 $309 $319 $324 reversed $200 $-1 #
vertex $-1 $205 $325 #
vertex $-1 $324 $326 #
straight-curve $-1 -38.121381986800813 -26.863591620211327 0 0 0 1 I I #
face $-1 $327 $226 $29 $-1 $328 reversed single #
loop $-1 $-1 $329 $128 #
plane-surface $-1 -36.109019969135318 37.343886426273954 0 0 -1 0 0 0 -1 forward_v I I I I #
coedge $-1 $330 $331 $332 $333 forward $129 $-1 #
coedge $-1 $334 $131 $330 $335 forward $81 $-1 #
coedge $-1 $131 $334 $224 $336 forward $81 $-1 #
edge $-1 $227 34.096657951469822 $337 38.121381986800813 $131 $338 forward 7 unknown #
coedge $-1 $133 $132 $339 $340 forward $52 $-1 #
coedge $-1 $341 $342 $132 $223 forward $343 $-1 #
edge $-1 $344 -38.121381986800813 $228 -34.096657951469822 $222 $345 forward 7 unknown #
coedge $-1 $346 $134 $219 $336 reversed $226 $-1 #
coedge $-1 $134 $346 $341 $347 reversed $226 $-1 #
loop $-1 $-1 $134 $214 #
vertex $-1 $220 $348 #
vertex $-1 $347 $349 #
straight-curve $-1 -34.096657951469822 26.863591620211327 0 0 0 1 I I #
face $-1 $-1 $242 $30 $-1 $350 forward single #
loop $-1 $-1 $351 $136 #
plane-surface $-1 -44.294564653462324 0 0 1 0 0 0 0 -1 forward_v I I I I #
coedge $-1 $352 $353 $354 $355 reversed $137 $-1 #
coedge $-1 $356 $139 $141 $240 forward $85 $-1 #
coedge $-1 $139 $356 $352 $357 forward $85 $-1 #
coedge $-1 $354 $142 $139 $237 forward $242 $-1 #
edge $-1 $244 -10.20649859126188 $358 -2.1470978545117498 $236 $359 forward 7 unknown #
coedge $-1 $360 $361 $140 $239 forward $231 $-1 #
edge $-1 $362 -29.631223060226915 $243 -26.40249723188726 $238 $363 forward 7 unknown #
edge $-1 $244 -4.7342134219453698 $362 -9.4367341760026555e-015 $141 $364 forward 7 unknown #
coedge $-1 $142 $354 $360 $365 forward $242 $-1 #
loop $-1 $-1 $354 $230 #
vertex $-1 $239 $366 #
vertex $-1 $143 $367 #
straight-curve $-1 -52.356103139234278 -16.383296814148697 8.7562666798811932 1 0 0 I I #
coedge $-1 $246 $246 $-1 $368 reversed $146 $-1 #
edge $-1 $369 0 $369 6.2831853071796004 $147 $370 forward 7 unknown #
vertex $-1 $150 $371 #
ellipse-curve $-1 -42.563372416163126 -14.080610889362944 7.1419037657113638 -0.68199836817093118 0 0.7313536940579346 0.18283842351448365 0 0.17049959204273279 1 I I #
coedge $-1 $250 $250 $-1 $372 reversed $153 $-1 #
edge $-1 $373 0 $373 6.2831853071796004 $154 $374 forward 7 unknown #
vertex $-1 $157 $375 #
ellipse-curve $-1 -42.563372416163126 -10.626582002184318 7.1419037657113638 -0.68199836817093118 0 0.7313536940579346 0.18283842351448365 0 0.17049959204273279 1 I I #
face $-1 $-1 $376 $33 $-1 $377 reversed single #
loop $-1 $-1 $164 $158 #
plane-surface $-1 0 0 8.7562666798811932 0 0 1 1 0 0 forward_v I I I I #
coedge $-1 $378 $379 $380 $381 reversed $159 $-1 #
coedge $-1 $382 $161 $163 $264 forward $99 $-1 #
coedge $-1 $161 $382 $378 $383 forward $99 $-1 #
coedge $-1 $380 $164 $161 $261 forward $255 $-1 #
edge $-1 $267 -7.9197339658422141 $384 -0.30215937046875219 $260 $385 forward 7 unknown #
coedge $-1 $386 $387 $162 $263 forward $376 $-1 #
edge $-1 $388 -60.285640625027249 $266 -53.504286204895926 $262 $389 forward 7 unknown #
edge $-1 $267 76.138030697925913 $388 88.589129306924647 $163 $390 forward 7 unknown #
coedge $-1 $164 $380 $386 $391 forward $255 $-1 #
vertex $-1 $165 $392 #
vertex $-1 $165 $393 #
straight-curve $-1 9.1232841025335176 12.030680633997697 8.7562666798811932 -1 0 0 I I #
coedge $-1 $269 $269 $-1 $394 reversed $168 $-1 #
edge $-1 $395 0 $395 6.2831853071796004 $169 $396 forward 7 unknown #
vertex $-1 $172 $397 #
ellipse-curve $-1 39.073379711335292 6.5895559230166576 5.3655894698155331 0.54463904215088732 0 0.83867056331134215 0.83867056331134215 0 -0.54463904215088732 1 I I #
coedge $-1 $273 $273 $-1 $398 reversed $175 $-1 #
edge $-1 $399 0 $399 6.2831853071796004 $176 $400 forward 7 unknown #
vertex $-1 $179 $401 #
ellipse-curve $-1 39.073379711335292 9.8542307496052821 5.3655894698155331 0.54463904215088732 0 0.83867056331134215 0.83867056331134215 0 -0.54463904215088732 1 I I #
face $-1 $-1 $195 $27 $-1 $402 reversed single #
loop $-1 $-1 $293 $180 #
plane-surface $-1 0 26.863591620211327 0 0 -1 0 0 0 -1 forward_v I I I I #
coedge $-1 $403 $291 $294 $404 forward $181 $-1 #
coedge $-1 $297 $183 $184 $285 reversed $113 $-1 #
coedge $-1 $291 $403 $183 $283 reversed $181 $-1 #
edge $-1 $298 -8.7562666798811932 $405 8.7562666798811932 $282 $406 forward 7 unknown #
coedge $-1 $185 $184 $403 $407 forward $73 $-1 #
edge $-1 $289 -44.294564653462324 $405 44.294564653462324 $281 $408 forward 7 unknown #
coedge $-1 $294 $293 $185 $287 reversed $278 $-1 #
edge $-1 $409 -44.294564653462324 $288 44.294564653462324 $286 $410 forward 7 unknown #
vertex $-1 $187 $411 #
vertex $-1 $300 $412 #
straight-curve $-1 44.294564653462324 0 -8.7562666798811932 0 -1 0 I I #
coedge $-1 $280 $282 $188 $292 reversed $181 $-1 #
edge $-1 $295 -26.863591620211327 $298 26.863591620211327 $291 $413 forward 7 unknown #
coedge $-1 $286 $189 $194 $301 forward $278 $-1 #
coedge $-1 $189 $286 $280 $404 reversed $278 $-1 #
vertex $-1 $190 $414 #
straight-curve $-1 0 26.863591620211327 8.7562666798811932 -1 0 0 I I #
coedge $-1 $191 $281 $193 $300 reversed $113 $-1 #
vertex $-1 $292 $415 #
straight-curve $-1 0 -26.863591620211327 8.7562666798811932 1 0 0 I I #
edge $-1 $196 -8.7562666798811932 $289 8.7562666798811932 $193 $416 forward 7 unknown #
edge $-1 $197 -8.7562666798811932 $288 8.7562666798811932 $194 $417 forward 7 unknown #
point $-1 44.294564653462324 -26.863591620211327 8.7562666798811932 #
point $-1 44.294564653462324 26.863591620211327 8.7562666798811932 #
face $-1 $-1 $321 $28 $-1 $418 forward single #
loop $-1 $-1 $419 $199 #
plane-surface $-1 -34.096657951469822 -32.103739023242639 0 -1 0 0 0 0 1 forward_v I I I I #
coedge $-1 $420 $202 $311 $421 reversed $121 $-1 #
coedge $-1 $202 $420 $422 $423 reversed $121 $-1 #
coedge $-1 $210 $209 $202 $310 reversed $200 $-1 #
edge $-1 $424 -8.7562666798811932 $425 8.7562666798811932 $309 $426 forward 7 unknown #
coedge $-1 $204 $203 $307 $421 forward $77 $-1 #
coedge $-1 $317 $419 $203 $313 reversed $305 $-1 #
edge $-1 $315 -5.2401474030313153 $427 5.2401474030313153 $312 $428 forward 7 unknown #
edge $-1 $425 -5.2401474030313153 $211 5.2401474030313153 $209 $429 forward 7 unknown #
vertex $-1 $313 $430 #
straight-curve $-1 0 -26.863591620211327 -8.7562666798811932 1 0 0 I I #
coedge $-1 $431 $312 $206 $318 reversed $305 $-1 #
edge $-1 $322 -8.7562666798811932 $315 8.7562666798811932 $317 $432 forward 7 unknown #
coedge $-1 $422 $207 $210 $324 forward $321 $-1 #
coedge $-1 $207 $422 $431 $433 forward $321 $-1 #
loop $-1 $-1 $207 $304 #
vertex $-1 $208 $434 #
straight-curve $-1 0 -26.863591620211327 8.7562666798811932 -1 0 0 I I #
edge $-1 $212 -5.2401474030313153 $424 5.2401474030313153 $210 $435 forward 7 unknown #
point $-1 -38.121381986800813 -26.863591620211324 -8.7562666798811932 #
point $-1 -38.121381986800813 -26.863591620211324 8.7562666798811932 #
face $-1 $-1 $343 $29 $-1 $436 forward single #
plane-surface $-1 -34.096657951469822 32.103739023242639 0 -1 0 0 0 0 1 forward_v I I I I #
coedge $-1 $437 $438 $346 $439 forward $215 $-1 #
coedge $-1 $339 $217 $218 $335 reversed $129 $-1 #
coedge $-1 $217 $339 $342 $440 reversed $129 $-1 #
coedge $-1 $438 $437 $217 $333 reversed $215 $-1 #
edge $-1 $441 -8.7562666798811932 $442 8.7562666798811932 $332 $443 forward 7 unknown #
coedge $-1 $219 $218 $437 $444 forward $81 $-1 #
edge $-1 $337 -5.2401474030313118 $442 5.2401474030313153 $330 $445 forward 7 unknown #
edge $-1 $446 -5.2401474030313153 $227 5.2401474030313118 $224 $447 forward 7 unknown #
vertex $-1 $335 $448 #
straight-curve $-1 0 26.863591620211327 -8.7562666798811932 -1 0 0 I I #
coedge $-1 $331 $330 $221 $340 reversed $129 $-1 #
edge $-1 $344 -8.7562666798811932 $337 8.7562666798811932 $339 $449 forward 7 unknown #
coedge $-1 $450 $222 $225 $347 forward $343 $-1 #
coedge $-1 $222 $450 $331 $440 forward $343 $-1 #
loop $-1 $-1 $222 $327 #
vertex $-1 $223 $451 #
straight-curve $-1 0 26.863591620211327 8.7562666798811932 1 0 0 I I #
coedge $-1 $225 $224 $329 $439 reversed $226 $-1 #
edge $-1 $228 -5.2401474030313118 $452 5.2401474030313153 $225 $453 forward 7 unknown #
point $-1 -34.096657951469822 26.863591620211327 -8.7562666798811932 #
point $-1 -34.096657951469822 26.863591620211327 8.7562666798811932 #
plane-surface $-1 0 0 8.7562666798811932 0 0 1 1 0 0 forward_v I I I I #
coedge $-1 $361 $360 $353 $454 forward $231 $-1 #
coedge $-1 $353 $233 $235 $357 reversed $137 $-1 #
coedge $-1 $233 $352 $351 $454 reversed $137 $-1 #
coedge $-1 $241 $236 $233 $355 forward $242 $-1 #
edge $-1 $358 -11.523922960370349 $455 -8.0615384857719548 $354 $456 forward 7 unknown #
coedge $-1 $235 $234 $361 $457 reversed $85 $-1 #
edge $-1 $458 9.4367341760026555e-015 $358 4.7342134219453698 $352 $459 forward 7 unknown #
vertex $-1 $237 $460 #
straight-curve $-1 -40.832180178863929 -6.1767982228868155 8.7562666798811932 0 1 0 I I #
coedge $-1 $351 $238 $241 $365 reversed $231 $-1 #
coedge $-1 $238 $351 $356 $457 forward $231 $-1 #
vertex $-1 $239 $461 #
straight-curve $-1 -44.294564653462324 -16.383296814148697 35.158763911768453 0 0 1 I I #
straight-curve $-1 -44.294564653462331 -16.383296814148697 5.5275408515415307 -0.7313536940579346 0 -0.68199836817093118 I I #
edge $-1 $455 8.3238960773985653 $243 16.383296814148697 $360 $462 forward 7 unknown #
point $-1 -44.294564653462324 -16.383296814148697 8.7562666798811932 #
point $-1 -40.832180178863929 -16.383296814148697 8.7562666798811932 #
edge $-1 $463 1 $463 0 $246 $-1 forward 7 unknown #
vertex $-1 $247 $464 #
ellipse-curve $-1 -41.881374047992196 -14.080610889362944 6.4105500716534332 -0.68199836817093118 0 0.7313536940579346 0.18283842351448365 0 0.17049959204273279 1 I I #
point $-1 -42.380533992648644 -14.080610889362944 7.3124033577540999 #
edge $-1 $465 1 $465 0 $250 $-1 forward 7 unknown #
vertex $-1 $251 $466 #
ellipse-curve $-1 -41.881374047992196 -10.626582002184318 6.4105500716534332 -0.68199836817093118 0 0.7313536940579346 0.18283842351448365 0 0.17049959204273279 1 I I #
point $-1 -42.380533992648644 -10.626582002184318 7.3124033577540999 #
loop $-1 $-1 $262 $254 #
plane-surface $-1 44.294564653462324 0 0 -1 0 0 0 0 1 forward_v I I I I #
coedge $-1 $379 $257 $259 $383 reversed $159 $-1 #
coedge $-1 $257 $378 $467 $468 reversed $159 $-1 #
coedge $-1 $265 $260 $257 $381 forward $255 $-1 #
edge $-1 $384 24.728910666674764 $469 35.171280550928806 $380 $470 forward 7 unknown #
coedge $-1 $259 $258 $387 $471 reversed $99 $-1 #
edge $-1 $472 -88.589129306924647 $384 -76.138030697925913 $378 $473 forward 7 unknown #
vertex $-1 $261 $474 #
straight-curve $-1 33.852194769208282 4.1109466681554832 8.7562666798811861 0 -1 0 I I #
coedge $-1 $467 $262 $265 $391 reversed $376 $-1 #
coedge $-1 $262 $467 $382 $471 forward $376 $-1 #
vertex $-1 $263 $475 #
straight-curve $-1 44.294564653462324 12.030680633997697 62.26055288477712 0 0 1 I I #
straight-curve $-1 -30.002530325637508 12.030680633997697 50.224010790454415 0.83867056331134215 0 -0.54463904215088732 I I #
edge $-1 $469 4.4131060386242353 $266 12.030680633997697 $386 $476 forward 7 unknown #
point $-1 44.294564653462324 12.030680633997697 8.7562666798811932 #
point $-1 33.852194769208282 12.030680633997697 8.7562666798811932 #
edge $-1 $477 1 $477 0 $269 $-1 forward 7 unknown #
vertex $-1 $270 $478 #
ellipse-curve $-1 36.899012178817507 6.5895559230166576 2.0173571504046577 0.54463904215088732 0 0.83867056331134215 0.83867056331134215 0 -0.54463904215088732 1 I I #
point $-1 39.912050274646639 6.5895559230166576 4.8209504276646573 #
edge $-1 $479 1 $479 0 $273 $-1 forward 7 unknown #
vertex $-1 $274 $480 #
ellipse-curve $-1 36.899012178817507 9.8542307496052821 2.0173571504046577 0.54463904215088732 0 0.83867056331134215 0.83867056331134215 0 -0.54463904215088732 1 I I #
point $-1 39.912050274646639 9.8542307496052821 4.8209504276646573 #
plane-surface $-1 44.294564653462324 0 0 -1 0 0 0 0 1 forward_v I I I I #
coedge $-1 $282 $280 $284 $407 reversed $181 $-1 #
edge $-1 $295 -8.7562666798811932 $409 8.7562666798811932 $294 $481 forward 7 unknown #
vertex $-1 $407 $482 #
straight-curve $-1 -44.294564653462324 -26.863591620211327 0 0 0 -1 I I #
edge $-1 $405 -26.863591620211327 $409 26.863591620211327 $403 $483 forward 7 unknown #
straight-curve $-1 0 -26.863591620211327 -8.7562666798811932 -1 0 0 I I #
vertex $-1 $287 $484 #
straight-curve $-1 0 26.863591620211327 -8.7562666798811932 1 0 0 I I #
point $-1 44.294564653462324 26.863591620211327 -8.7562666798811932 #
point $-1 44.294564653462324 -26.863591620211327 -8.7562666798811932 #
straight-curve $-1 -44.294564653462324 0 8.7562666798811932 0 -1 0 I I #
point $-1 -44.294564653462324 26.863591620211327 8.7562666798811932 #
point $-1 -44.294564653462324 -26.863591620211327 8.7562666798811932 #
straight-curve $-1 44.294564653462324 -26.863591620211327 0 0 0 -1 I I #
straight-curve $-1 44.294564653462324 26.863591620211327 0 0 0 -1 I I #
plane-surface $-1 0 0 8.7562666798811932 0 0 1 1 0 0 forward_v I I I I #
coedge $-1 $312 $431 $420 $485 forward $305 $-1 #
coedge $-1 $308 $307 $419 $485 reversed $121 $-1 #
edge $-1 $427 -2.0123620176654953 $425 2.0123620176654953 $307 $486 forward 7 unknown #
coedge $-1 $320 $319 $308 $423 forward $321 $-1 #
edge $-1 $424 -2.0123620176654953 $487 2.0123620176654953 $308 $488 forward 7 unknown #
vertex $-1 $324 $489 #
vertex $-1 $314 $490 #
straight-curve $-1 -38.121381986800813 -37.343886426273954 0 0 0 -1 I I #
vertex $-1 $485 $491 #
straight-curve $-1 -34.096657951469822 -32.103739023242639 -8.7562666798811932 0 -1 0 I I #
straight-curve $-1 -38.121381986800813 -32.103739023242639 -8.7562666798811932 0 1 0 I I #
point $-1 -34.096657951469822 -26.863591620211324 -8.7562666798811932 #
coedge $-1 $419 $317 $320 $433 reversed $305 $-1 #
straight-curve $-1 -34.096657951469822 -26.863591620211327 0 0 0 -1 I I #
edge $-1 $487 -5.2401474030313153 $322 5.2401474030313153 $431 $492 forward 7 unknown #
point $-1 -34.096657951469822 -26.863591620211324 8.7562666798811932 #
straight-curve $-1 -38.121381986800813 -32.103739023242639 8.7562666798811932 0 -1 0 I I #
plane-surface $-1 0 0 8.7562666798811932 0 0 1 1 0 0 forward_v I I I I #
coedge $-1 $332 $329 $334 $444 reversed $215 $-1 #
coedge $-1 $329 $332 $450 $493 reversed $215 $-1 #
edge $-1 $452 -8.7562666798811932 $446 8.7562666798811932 $346 $494 forward 7 unknown #
edge $-1 $441 -5.2401474030313153 $344 5.2401474030313118 $331 $495 forward 7 unknown #
vertex $-1 $493 $496 #
vertex $-1 $444 $497 #
straight-curve $-1 -38.121381986800813 37.343886426273954 0 0 0 -1 I I #
edge $-1 $442 -2.0123620176654953 $446 2.0123620176654953 $437 $498 forward 7 unknown #
straight-curve $-1 -38.121381986800813 32.103739023242639 -8.7562666798811932 0 1 0 I I #
vertex $-1 $336 $499 #
straight-curve $-1 -34.096657951469822 32.103739023242639 -8.7562666798811932 0 -1 0 I I #
point $-1 -38.121381986800813 26.863591620211327 -8.7562666798811932 #
straight-curve $-1 -38.121381986800813 26.863591620211327 0 0 0 -1 I I #
coedge $-1 $342 $341 $438 $493 forward $343 $-1 #
point $-1 -38.121381986800813 26.863591620211327 8.7562666798811932 #
vertex $-1 $347 $500 #
straight-curve $-1 -34.096657951469822 32.103739023242639 8.7562666798811932 0 1 0 I I #
edge $-1 $455 26.40249723188726 $458 29.631223060226915 $351 $501 forward 7 unknown #
vertex $-1 $365 $502 #
straight-curve $-1 -52.356103139234278 -8.3238960773985653 8.7562666798811932 -1 0 0 I I #
edge $-1 $458 2.1470978545117498 $362 10.20649859126188 $361 $503 forward 7 unknown #
vertex $-1 $457 $504 #
straight-curve $-1 -44.294564653462331 -8.3238960773985653 5.5275408515415307 0.7313536940579346 0 0.68199836817093118 I I #
point $-1 -40.832180178863929 -8.3238960773985653 8.7562666798811932 #
point $-1 -44.294564653462324 -16.383296814148697 5.527540851541537 #
straight-curve $-1 -44.294564653462324 0 8.7562666798811932 0 -1 0 I I #
vertex $-1 $368 $505 #
point $-1 -41.698535624477714 -14.080610889362944 6.5810496636961657 #
vertex $-1 $372 $506 #
point $-1 -41.698535624477714 -10.626582002184318 6.5810496636961657 #
coedge $-1 $387 $386 $379 $468 forward $376 $-1 #
edge $-1 $469 53.504286204895926 $472 60.285640625027249 $467 $507 forward 7 unknown #
vertex $-1 $391 $508 #
straight-curve $-1 9.1232841025335176 4.4131060386242353 8.7562666798811932 1 0 0 I I #
edge $-1 $472 0.30215937046875219 $388 7.9197339658422141 $387 $509 forward 7 unknown #
vertex $-1 $471 $510 #
straight-curve $-1 -30.002530325637508 4.4131060386242353 50.224010790454415 -0.83867056331134215 0 0.54463904215088732 I I #
point $-1 33.852194769208282 4.4131060386242353 8.7562666798811932 #
point $-1 44.294564653462317 12.030680633997697 1.9749122597498712 #
straight-curve $-1 44.294564653462324 0 8.7562666798811932 0 1 0 I I #
vertex $-1 $394 $511 #
point $-1 37.737682742128847 6.5895559230166576 1.4727181082537704 #
vertex $-1 $398 $512 #
point $-1 37.737682742128847 9.8542307496052821 1.4727181082537704 #
straight-curve $-1 -44.294564653462324 26.863591620211327 0 0 0 -1 I I #
point $-1 -44.294564653462324 -26.863591620211327 -8.7562666798811932 #
straight-curve $-1 -44.294564653462324 0 -8.7562666798811932 0 1 0 I I #
point $-1 -44.294564653462324 26.863591620211327 -8.7562666798811932 #
edge $-1 $487 -8.7562666798811932 $427 8.7562666798811932 $419 $513 forward 7 unknown #
straight-curve $-1 -36.109019969135318 -37.343886426273954 -8.7562666798811932 -1 0 0 I I #
vertex $-1 $433 $514 #
straight-curve $-1 -36.109019969135318 -37.343886426273954 8.7562666798811932 1 0 0 I I #
point $-1 -38.121381986800813 -37.343886426273954 8.7562666798811932 #
point $-1 -38.121381986800813 -37.343886426273954 -8.7562666798811932 #
point $-1 -34.096657951469822 -37.343886426273954 -8.7562666798811932 #
straight-curve $-1 -34.096657951469822 -32.103739023242639 8.7562666798811932 0 1 0 I I #
edge $-1 $452 -2.0123620176654953 $441 2.0123620176654953 $438 $515 forward 7 unknown #
straight-curve $-1 -34.096657951469822 37.343886426273954 0 0 0 -1 I I #
straight-curve $-1 -38.121381986800813 32.103739023242639 8.7562666798811932 0 -1 0 I I #
point $-1 -38.121381986800813 37.343886426273954 8.7562666798811932 #
point $-1 -38.121381986800813 37.343886426273954 -8.7562666798811932 #
straight-curve $-1 -36.109019969135318 37.343886426273954 -8.7562666798811932 1 0 0 I I #
point $-1 -34.096657951469822 37.343886426273954 -8.7562666798811932 #
point $-1 -34.096657951469822 37.343886426273954 8.7562666798811932 #
straight-curve $-1 -44.294564653462324 -8.3238960773985653 35.158763911768453 0 0 -1 I I #
point $-1 -44.294564653462324 -8.3238960773985653 8.7562666798811932 #
straight-curve $-1 -44.294564653462324 -6.1767982228868155 5.5275408515415432 0 -1 0 I I #
point $-1 -44.294564653462324 -8.3238960773985653 5.527540851541537 #
point $-1 -41.710874455949465 -14.080610889362944 6.227711648138949 #
point $-1 -41.710874455949465 -10.626582002184318 6.227711648138949 #
straight-curve $-1 44.294564653462324 4.4131060386242353 62.26055288477712 0 0 -1 I I #
point $-1 44.294564653462324 4.4131060386242353 8.7562666798811932 #
straight-curve $-1 44.294564653462324 4.1109466681554832 1.9749122597498747 0 1 0 I I #
point $-1 44.294564653462317 4.4131060386242353 1.9749122597498712 #
point $-1 36.354373136666617 6.5895559230166576 1.1786865870933156 #
point $-1 36.354373136666617 9.8542307496052821 1.1786865870933156 #
straight-curve $-1 -34.096657951469822 -37.343886426273954 0 0 0 -1 I I #
point $-1 -34.096657951469822 -37.343886426273954 8.7562666798811932 #
straight-curve $-1 -36.109019969135318 37.343886426273954 8.7562666798811932 -1 0 0 I I #
End-of-ACIS-data 