500 0 5 0           
7 Unknown 11 ACIS 5.0 NT 24 Thu Mar 25 16:08:04 1999 
-1 9.9999999999999995e-007 1e-010 
body $-1 $5 $-1 $6 #
body $-1 $7 $-1 $8 #
body $-1 $9 $-1 $10 #
body $-1 $11 $-1 $12 #
body $-1 $13 $-1 $14 #
lump $-1 $-1 $15 $0 #
transform $-1 1 0 0 0 1 0 0 0 1 73.460493789483323 30.265266092692862 9.8888826675679056 1 rotate no_reflect no_shear #
lump $-1 $-1 $16 $1 #
transform $-1 1 0 0 0 1 0 0 0 1 73.460493789483323 30.265266092692862 9.8888826675679056 1 rotate no_reflect no_shear #
lump $-1 $-1 $17 $2 #
transform $-1 1 0 0 0 1 0 0 0 1 73.460493789483323 30.265266092692862 9.8888826675679056 1 rotate no_reflect no_shear #
lump $-1 $-1 $18 $3 #
transform $-1 1 0 0 0 1 0 0 0 1 73.460493789483323 30.265266092692862 9.8888826675679056 1 rotate no_reflect no_shear #
lump $-1 $-1 $19 $4 #
transform $-1 1 0 0 0 1 0 0 0 1 73.460493789483323 30.265266092692862 9.8888826675679056 1 rotate no_reflect no_shear #
shell $-1 $-1 $-1 $20 $-1 $5 #
shell $-1 $-1 $-1 $21 $-1 $7 #
shell $-1 $-1 $-1 $22 $-1 $9 #
shell $-1 $-1 $-1 $23 $-1 $11 #
shell $-1 $-1 $-1 $24 $-1 $13 #
face $-1 $25 $26 $15 $-1 $27 reversed single #
face $-1 $28 $29 $16 $-1 $30 forward single #
face $-1 $31 $32 $17 $-1 $33 forward single #
face $-1 $34 $35 $18 $-1 $36 reversed single #
face $-1 $37 $38 $19 $-1 $39 forward single #
face $-1 $40 $41 $15 $-1 $42 reversed single #
loop $-1 $-1 $43 $20 #
plane-surface $-1 73.460493789483323 0 0 -1 0 0 0 0 1 forward_v I I I I #
face $-1 $44 $45 $16 $-1 $46 reversed single #
loop $-1 $-1 $47 $21 #
plane-surface $-1 -73.460493789483323 0 0 1 0 0 0 0 -1 forward_v I I I I #
face $-1 $48 $49 $17 $-1 $50 reversed single #
loop $-1 $-1 $51 $22 #
plane-surface $-1 73.460493789483323 0 0 -1 0 0 0 0 1 forward_v I I I I #
face $-1 $52 $53 $18 $-1 $54 reversed single #
loop $-1 $-1 $55 $23 #
plane-surface $-1 -60.690209151053942 101.43634257942665 142.53076258131492 1 0 0 0 -0.75470958851134928 -0.65605901945558964 forward_v I I I I #
face $-1 $56 $57 $19 $-1 $58 forward single #
loop $-1 $59 $60 $24 #
cone-surface $-1 -44.202705418642161 23.93828989668129 3.2368686393244288 0 -0.75470958851134928 -0.65605901945558964 1.5 0 0 1 I I 0 1 1.5 forward I I I I #
face $-1 $61 $62 $15 $-1 $63 forward single #
loop $-1 $-1 $64 $25 #
plane-surface $-1 -73.460493789483323 0 0 1 0 0 0 0 -1 forward_v I I I I #
coedge $-1 $65 $66 $67 $68 reversed $26 $-1 #
face $-1 $69 $70 $16 $-1 $71 reversed single #
loop $-1 $-1 $72 $28 #
plane-surface $-1 0 0 -9.8888826675679056 0 0 1 1 0 0 forward_v I I I I #
coedge $-1 $73 $74 $75 $76 forward $29 $-1 #
face $-1 $77 $78 $17 $-1 $79 reversed single #
loop $-1 $-1 $80 $31 #
plane-surface $-1 0 0 -9.8888826675679056 0 0 1 1 0 0 forward_v I I I I #
coedge $-1 $81 $82 $83 $84 forward $32 $-1 #
face $-1 $85 $86 $18 $-1 $87 reversed single #
loop $-1 $-1 $88 $34 #
plane-surface $-1 -44.202705418642161 -9.4463354999763283 46.141923532811191 0 0.75470958851134928 0.65605901945558964 1 0 0 forward_v I I I I #
coedge $-1 $89 $90 $91 $92 reversed $35 $-1 #
face $-1 $-1 $93 $19 $-1 $94 forward single #
loop $-1 $95 $96 $37 #
cone-surface $-1 -44.202705418642161 21.143938892848787 0.80777643287033385 0 -0.75470958851134928 -0.65605901945558964 0.75 0 0 1 I I -0.70710678118654757 0.70710678118654757 0.75 forward I I I I #
loop $-1 $-1 $97 $24 #
coedge $-1 $60 $60 $98 $99 reversed $38 $-1 #
face $-1 $100 $101 $15 $-1 $102 reversed single #
loop $-1 $-1 $103 $40 #
plane-surface $-1 0 0 9.8888826675679056 0 0 1 1 0 0 forward_v I I I I #
coedge $-1 $104 $105 $106 $107 reversed $41 $-1 #
coedge $-1 $108 $43 $109 $110 reversed $26 $-1 #
coedge $-1 $43 $108 $111 $112 forward $26 $-1 #
coedge $-1 $113 $114 $43 $68 forward $101 $-1 #
edge $-1 $115 -30.265266092692862 $116 30.265266092692862 $43 $117 forward 7 unknown #
face $-1 $118 $119 $16 $-1 $120 reversed single #
loop $-1 $-1 $121 $44 #
plane-surface $-1 -79.845636108698017 -14.914395630370754 0 0 1 0 0 0 1 forward_v I I I I #
coedge $-1 $122 $123 $74 $124 forward $45 $-1 #
coedge $-1 $125 $47 $126 $127 reversed $29 $-1 #
coedge $-1 $47 $125 $72 $124 reversed $29 $-1 #
coedge $-1 $128 $129 $47 $76 reversed $130 $-1 #
edge $-1 $131 -9.8888826675679056 $132 9.8888826675679056 $75 $133 forward 7 unknown #
face $-1 $134 $135 $17 $-1 $136 reversed single #
loop $-1 $-1 $83 $48 #
plane-surface $-1 79.845636108698002 -14.914395630370754 0 0 1 0 0 0 1 forward_v I I I I #
coedge $-1 $137 $138 $82 $139 forward $49 $-1 #
coedge $-1 $140 $51 $141 $142 reversed $32 $-1 #
coedge $-1 $51 $140 $80 $139 reversed $32 $-1 #
coedge $-1 $143 $144 $51 $84 reversed $78 $-1 #
edge $-1 $145 -9.8888826675679056 $146 9.8888826675679056 $83 $147 forward 7 unknown #
face $-1 $148 $149 $18 $-1 $150 reversed single #
loop $-1 $-1 $151 $52 #
plane-surface $-1 -27.71520168623038 101.43634257942665 142.53076258131492 -1 0 0 0 0.75470958851134928 0.65605901945558964 forward_v I I I I #
coedge $-1 $152 $153 $154 $155 reversed $53 $-1 #
coedge $-1 $90 $55 $156 $157 reversed $35 $-1 #
coedge $-1 $55 $89 $152 $158 reversed $35 $-1 #
coedge $-1 $154 $159 $55 $92 forward $160 $-1 #
edge $-1 $161 20.452905197020463 $162 28.650219964145677 $91 $163 forward 7 unknown #
loop $-1 $-1 $98 $56 #
plane-surface $-1 -44.202705418642161 -9.4463354999763283 46.141923532811191 0 0.75470958851134928 0.65605901945558964 1 0 0 forward_v I I I I #
loop $-1 $-1 $164 $37 #
coedge $-1 $96 $96 $97 $165 reversed $57 $-1 #
coedge $-1 $97 $97 $96 $165 forward $59 $-1 #
coedge $-1 $98 $98 $60 $99 forward $93 $-1 #
edge $-1 $166 -2.9492684918088669e-016 $166 6.2831853071796004 $98 $167 forward 7 unknown #
face $-1 $168 $169 $15 $-1 $170 reversed single #
loop $-1 $-1 $67 $61 #
plane-surface $-1 0 0 -9.8888826675679056 0 0 1 1 0 0 forward_v I I I I #
coedge $-1 $171 $172 $108 $173 forward $62 $-1 #
coedge $-1 $174 $64 $175 $176 reversed $41 $-1 #
coedge $-1 $64 $174 $177 $178 forward $41 $-1 #
coedge $-1 $114 $113 $64 $107 forward $101 $-1 #
edge $-1 $179 -30.265266092692862 $180 30.265266092692862 $64 $181 forward 7 unknown #
coedge $-1 $66 $65 $103 $173 reversed $26 $-1 #
coedge $-1 $182 $183 $65 $110 forward $184 $-1 #
edge $-1 $185 -9.8888826675679056 $115 9.8888826675679056 $65 $186 forward 7 unknown #
coedge $-1 $187 $188 $66 $112 reversed $169 $-1 #
edge $-1 $189 -9.8888826675679056 $116 9.8888826675679056 $66 $190 forward 7 unknown #
coedge $-1 $106 $67 $188 $191 forward $101 $-1 #
coedge $-1 $67 $106 $182 $192 forward $101 $-1 #
vertex $-1 $68 $193 #
vertex $-1 $112 $194 #
straight-curve $-1 73.460493789483323 0 -9.8888826675679056 0 -1 0 I I #
face $-1 $195 $130 $16 $-1 $196 reversed single #
loop $-1 $-1 $197 $69 #
plane-surface $-1 -86.230778427912711 -12.700948193963903 0 1 0 0 0 0 -1 forward_v I I I I #
coedge $-1 $198 $199 $200 $201 forward $70 $-1 #
coedge $-1 $202 $72 $198 $203 forward $45 $-1 #
coedge $-1 $72 $202 $128 $204 forward $45 $-1 #
edge $-1 $131 10.487500757557052 $205 14.914395630370754 $72 $206 forward 7 unknown #
coedge $-1 $74 $73 $207 $208 forward $29 $-1 #
coedge $-1 $209 $210 $73 $127 forward $211 $-1 #
edge $-1 $212 -14.914395630370754 $132 -10.487500757557052 $126 $213 forward 7 unknown #
coedge $-1 $214 $75 $123 $204 reversed $130 $-1 #
coedge $-1 $75 $214 $209 $215 reversed $130 $-1 #
loop $-1 $-1 $75 $118 #
vertex $-1 $124 $216 #
vertex $-1 $215 $217 #
straight-curve $-1 -73.460493789483323 -10.487500757557052 0 0 0 1 I I #
face $-1 $218 $219 $17 $-1 $220 reversed single #
loop $-1 $-1 $221 $77 #
plane-surface $-1 79.845636108698002 -10.487500757557052 0 0 -1 0 0 0 -1 forward_v I I I I #
coedge $-1 $222 $80 $223 $224 forward $49 $-1 #
coedge $-1 $80 $222 $143 $225 forward $49 $-1 #
edge $-1 $145 -14.914395630370754 $226 -10.487500757557052 $80 $227 forward 7 unknown #
coedge $-1 $82 $81 $228 $229 forward $32 $-1 #
coedge $-1 $230 $231 $81 $142 forward $232 $-1 #
edge $-1 $233 10.487500757557052 $146 14.914395630370754 $141 $234 forward 7 unknown #
coedge $-1 $235 $83 $138 $225 reversed $78 $-1 #
coedge $-1 $83 $235 $230 $236 reversed $78 $-1 #
vertex $-1 $139 $237 #
vertex $-1 $236 $238 #
straight-curve $-1 73.460493789483323 -14.914395630370754 0 0 0 1 I I #
face $-1 $-1 $160 $18 $-1 $239 forward single #
loop $-1 $-1 $240 $85 #
plane-surface $-1 0 30.265266092692862 0 0 -1 0 0 0 -1 forward_v I I I I #
coedge $-1 $241 $242 $243 $244 reversed $86 $-1 #
coedge $-1 $245 $88 $90 $158 forward $53 $-1 #
coedge $-1 $88 $245 $241 $246 forward $53 $-1 #
coedge $-1 $243 $91 $88 $155 forward $160 $-1 #
edge $-1 $162 -38.588856441732858 $247 -5.6138489769092992 $154 $248 forward 7 unknown #
coedge $-1 $249 $250 $89 $157 forward $149 $-1 #
edge $-1 $251 -70.806430795851725 $161 -61.376498623089553 $156 $252 forward 7 unknown #
edge $-1 $162 48.035749667301495 $251 60.530532185385766 $90 $253 forward 7 unknown #
coedge $-1 $91 $243 $249 $254 forward $160 $-1 #
loop $-1 $-1 $243 $148 #
vertex $-1 $157 $255 #
vertex $-1 $92 $256 #
straight-curve $-1 -60.690209151053942 50.718171289713325 9.8888826675679127 0 -1 0 I I #
coedge $-1 $164 $164 $-1 $257 reversed $95 $-1 #
edge $-1 $258 0 $258 6.2831853071796004 $96 $259 forward 7 unknown #
vertex $-1 $99 $260 #
ellipse-curve $-1 -44.202705418642161 26.166608709130259 5.1739165811868091 0 0.75470958851134928 0.65605901945558964 1.5 0 0 1 I I #
face $-1 $-1 $184 $15 $-1 $261 reversed single #
loop $-1 $-1 $175 $100 #
plane-surface $-1 0 -30.265266092692862 0 0 1 0 0 0 1 forward_v I I I I #
coedge $-1 $262 $103 $183 $263 forward $62 $-1 #
coedge $-1 $103 $262 $187 $264 forward $62 $-1 #
edge $-1 $189 -30.265266092692862 $185 30.265266092692862 $108 $265 forward 7 unknown #
coedge $-1 $105 $104 $262 $266 reversed $41 $-1 #
coedge $-1 $188 $187 $104 $176 forward $169 $-1 #
edge $-1 $267 -9.8888826675679056 $179 9.8888826675679056 $104 $268 forward 7 unknown #
coedge $-1 $183 $182 $105 $178 reversed $184 $-1 #
edge $-1 $269 -9.8888826675679056 $180 9.8888826675679056 $177 $270 forward 7 unknown #
vertex $-1 $107 $271 #
vertex $-1 $192 $272 #
straight-curve $-1 -73.460493789483323 0 -9.8888826675679056 0 1 0 I I #
coedge $-1 $177 $109 $114 $192 reversed $184 $-1 #
coedge $-1 $109 $177 $171 $263 reversed $184 $-1 #
loop $-1 $-1 $109 $168 #
vertex $-1 $173 $273 #
straight-curve $-1 73.460493789483323 30.265266092692862 0 0 0 -1 I I #
coedge $-1 $175 $111 $172 $264 reversed $169 $-1 #
coedge $-1 $111 $175 $113 $191 reversed $169 $-1 #
vertex $-1 $173 $274 #
straight-curve $-1 73.460493789483323 -30.265266092692862 0 0 0 -1 I I #
edge $-1 $116 -73.460493789483323 $179 73.460493789483323 $188 $275 forward 7 unknown #
edge $-1 $180 -73.460493789483323 $115 73.460493789483323 $182 $276 forward 7 unknown #
point $-1 73.460493789483323 30.265266092692862 -9.8888826675679056 #
point $-1 73.460493789483323 -30.265266092692862 -9.8888826675679056 #
face $-1 $-1 $211 $16 $-1 $277 forward single #
plane-surface $-1 -79.845636108698017 -10.487500757557052 0 0 -1 0 0 0 -1 forward_v I I I I #
coedge $-1 $278 $279 $214 $280 forward $119 $-1 #
coedge $-1 $207 $121 $122 $203 reversed $70 $-1 #
coedge $-1 $121 $207 $210 $281 reversed $70 $-1 #
coedge $-1 $279 $278 $121 $201 reversed $119 $-1 #
edge $-1 $282 -9.8888826675679056 $283 9.8888826675679056 $200 $284 forward 7 unknown #
coedge $-1 $123 $122 $278 $285 forward $45 $-1 #
edge $-1 $205 -6.3851423192146939 $283 6.3851423192146939 $198 $286 forward 7 unknown #
edge $-1 $287 -6.3851423192146939 $131 6.3851423192146939 $128 $288 forward 7 unknown #
vertex $-1 $203 $289 #
straight-curve $-1 -73.460493789483323 0 -9.8888826675679056 0 -1 0 I I #
coedge $-1 $199 $198 $125 $208 reversed $70 $-1 #
edge $-1 $212 -9.8888826675679056 $205 9.8888826675679056 $207 $290 forward 7 unknown #
coedge $-1 $291 $126 $129 $215 forward $211 $-1 #
coedge $-1 $126 $291 $199 $281 forward $211 $-1 #
loop $-1 $-1 $126 $195 #
vertex $-1 $127 $292 #
straight-curve $-1 -73.460493789483323 0 9.8888826675679056 0 1 0 I I #
coedge $-1 $129 $128 $197 $280 reversed $130 $-1 #
edge $-1 $132 -6.3851423192146939 $293 6.3851423192146939 $129 $294 forward 7 unknown #
point $-1 -73.460493789483323 -10.487500757557052 -9.8888826675679056 #
point $-1 -73.460493789483323 -10.487500757557052 9.8888826675679056 #
face $-1 $-1 $232 $17 $-1 $295 forward single #
loop $-1 $-1 $296 $134 #
plane-surface $-1 86.230778427912696 -12.700948193963903 0 -1 0 0 0 0 1 forward_v I I I I #
coedge $-1 $223 $297 $298 $299 forward $135 $-1 #
coedge $-1 $138 $137 $300 $301 forward $49 $-1 #
coedge $-1 $228 $221 $137 $224 reversed $135 $-1 #
edge $-1 $226 -6.3851423192146939 $302 6.3851423192146939 $223 $303 forward 7 unknown #
edge $-1 $304 -6.3851423192146939 $145 6.3851423192146939 $143 $305 forward 7 unknown #
vertex $-1 $224 $306 #
straight-curve $-1 73.460493789483323 0 -9.8888826675679056 0 1 0 I I #
coedge $-1 $297 $223 $140 $229 reversed $135 $-1 #
edge $-1 $233 -9.8888826675679056 $226 9.8888826675679056 $228 $307 forward 7 unknown #
coedge $-1 $308 $141 $144 $236 forward $232 $-1 #
coedge $-1 $141 $308 $297 $309 forward $232 $-1 #
loop $-1 $-1 $141 $218 #
vertex $-1 $142 $310 #
straight-curve $-1 73.460493789483323 0 9.8888826675679056 0 -1 0 I I #
coedge $-1 $144 $143 $296 $311 reversed $78 $-1 #
edge $-1 $146 -6.3851423192146939 $312 6.3851423192146939 $144 $313 forward 7 unknown #
point $-1 73.460493789483309 -14.914395630370754 -9.8888826675679056 #
point $-1 73.460493789483309 -14.914395630370754 9.8888826675679056 #
plane-surface $-1 0 0 9.8888826675679056 0 0 1 1 0 0 forward_v I I I I #
coedge $-1 $250 $249 $242 $314 forward $149 $-1 #
coedge $-1 $242 $151 $153 $246 reversed $86 $-1 #
coedge $-1 $151 $241 $240 $314 reversed $86 $-1 #
coedge $-1 $159 $154 $151 $244 forward $160 $-1 #
edge $-1 $247 -28.650219964145677 $315 -20.452905197020463 $243 $316 forward 7 unknown #
coedge $-1 $153 $152 $250 $317 reversed $53 $-1 #
edge $-1 $318 -60.530532185385766 $247 -48.035749667301495 $241 $319 forward 7 unknown #
vertex $-1 $155 $320 #
straight-curve $-1 -22.10135270932108 22.067951325567648 9.8888826675679056 1 0 0 I I #
coedge $-1 $240 $156 $159 $254 reversed $149 $-1 #
coedge $-1 $156 $240 $245 $317 forward $149 $-1 #
vertex $-1 $157 $321 #
straight-curve $-1 -60.690209151053942 30.265266092692862 71.265381290657459 0 0 1 I I #
straight-curve $-1 -60.690209151053942 -9.4463354999763283 46.141923532811191 0 0.65605901945558964 -0.75470958851134928 I I #
edge $-1 $315 27.71520168623038 $161 60.690209151053942 $249 $322 forward 7 unknown #
point $-1 -60.690209151053942 30.265266092692862 9.8888826675679056 #
point $-1 -60.690209151053942 22.067951325567648 9.8888826675679056 #
edge $-1 $323 1 $323 0 $164 $-1 forward 7 unknown #
vertex $-1 $165 $324 #
ellipse-curve $-1 -44.202705418642161 21.709971084232301 1.2998206974620261 0 0.75470958851134928 0.65605901945558964 1.5 0 0 1 I I #
point $-1 -42.702705418642161 26.166608709130283 5.1739165811868313 #
plane-surface $-1 0 30.265266092692862 0 0 -1 0 0 0 -1 forward_v I I I I #
coedge $-1 $172 $171 $174 $266 forward $62 $-1 #
edge $-1 $185 -73.460493789483323 $269 73.460493789483323 $183 $325 forward 7 unknown #
edge $-1 $267 -73.460493789483323 $189 73.460493789483323 $187 $326 forward 7 unknown #
straight-curve $-1 73.460493789483323 0 9.8888826675679056 0 1 0 I I #
edge $-1 $269 -30.265266092692862 $267 30.265266092692862 $174 $327 forward 7 unknown #
vertex $-1 $266 $328 #
straight-curve $-1 -73.460493789483323 -30.265266092692862 0 0 0 -1 I I #
vertex $-1 $263 $329 #
straight-curve $-1 -73.460493789483323 30.265266092692862 0 0 0 -1 I I #
point $-1 -73.460493789483323 -30.265266092692862 -9.8888826675679056 #
point $-1 -73.460493789483323 30.265266092692862 -9.8888826675679056 #
point $-1 73.460493789483323 30.265266092692862 9.8888826675679056 #
point $-1 73.460493789483323 -30.265266092692862 9.8888826675679056 #
straight-curve $-1 0 -30.265266092692862 -9.8888826675679056 -1 0 0 I I #
straight-curve $-1 0 30.265266092692862 -9.8888826675679056 1 0 0 I I #
plane-surface $-1 0 0 9.8888826675679056 0 0 1 1 0 0 forward_v I I I I #
coedge $-1 $200 $197 $202 $285 reversed $119 $-1 #
coedge $-1 $197 $200 $291 $330 reversed $119 $-1 #
edge $-1 $293 -9.8888826675679056 $287 9.8888826675679056 $214 $331 forward 7 unknown #
edge $-1 $282 -6.3851423192146939 $212 6.3851423192146939 $199 $332 forward 7 unknown #
vertex $-1 $330 $333 #
vertex $-1 $285 $334 #
straight-curve $-1 -86.230778427912711 -14.914395630370754 0 0 0 -1 I I #
edge $-1 $283 -2.2134474364068506 $287 2.2134474364068506 $278 $335 forward 7 unknown #
straight-curve $-1 -79.845636108698017 -14.914395630370754 -9.8888826675679056 -1 0 0 I I #
vertex $-1 $204 $336 #
straight-curve $-1 -79.845636108698017 -10.487500757557052 -9.8888826675679056 1 0 0 I I #
point $-1 -73.460493789483323 -14.914395630370754 -9.8888826675679056 #
straight-curve $-1 -73.460493789483323 -14.914395630370754 0 0 0 -1 I I #
coedge $-1 $210 $209 $279 $330 forward $211 $-1 #
point $-1 -73.460493789483323 -14.914395630370754 9.8888826675679056 #
vertex $-1 $215 $337 #
straight-curve $-1 -79.845636108698017 -10.487500757557052 9.8888826675679056 -1 0 0 I I #
plane-surface $-1 0 0 9.8888826675679056 0 0 1 1 0 0 forward_v I I I I #
coedge $-1 $300 $338 $235 $311 forward $219 $-1 #
coedge $-1 $221 $228 $231 $309 reversed $135 $-1 #
coedge $-1 $338 $300 $221 $299 reversed $219 $-1 #
edge $-1 $339 -9.8888826675679056 $302 9.8888826675679056 $298 $340 forward 7 unknown #
coedge $-1 $298 $296 $222 $301 reversed $219 $-1 #
edge $-1 $302 -2.2134474364068506 $304 2.2134474364068506 $300 $341 forward 7 unknown #
vertex $-1 $301 $342 #
straight-curve $-1 79.845636108698002 -10.487500757557052 -9.8888826675679056 1 0 0 I I #
vertex $-1 $311 $343 #
straight-curve $-1 79.845636108698002 -14.914395630370754 -9.8888826675679056 -1 0 0 I I #
point $-1 73.460493789483309 -10.487500757557052 -9.8888826675679056 #
straight-curve $-1 73.460493789483323 -10.487500757557052 0 0 0 -1 I I #
coedge $-1 $231 $230 $338 $344 forward $232 $-1 #
edge $-1 $339 -6.3851423192146939 $233 6.3851423192146939 $297 $345 forward 7 unknown #
point $-1 73.460493789483309 -10.487500757557052 9.8888826675679056 #
edge $-1 $312 -9.8888826675679056 $304 9.8888826675679056 $296 $346 forward 7 unknown #
vertex $-1 $344 $347 #
straight-curve $-1 79.845636108698002 -14.914395630370754 9.8888826675679056 1 0 0 I I #
edge $-1 $315 61.376498623089553 $318 70.806430795851725 $240 $348 forward 7 unknown #
vertex $-1 $254 $349 #
straight-curve $-1 -27.71520168623038 50.718171289713325 9.8888826675679127 0 1 0 I I #
edge $-1 $318 5.6138489769092992 $251 38.588856441732858 $250 $350 forward 7 unknown #
vertex $-1 $317 $351 #
straight-curve $-1 -27.71520168623038 -9.4463354999763283 46.141923532811191 0 -0.65605901945558964 0.75470958851134928 I I #
point $-1 -27.71520168623038 22.067951325567648 9.8888826675679056 #
point $-1 -60.690209151053942 30.265266092692862 0.45895049480572681 #
straight-curve $-1 0 30.265266092692862 9.8888826675679056 -1 0 0 I I #
vertex $-1 $257 $352 #
point $-1 -42.702705418642161 21.709971084232301 1.2998206974620261 #
straight-curve $-1 0 30.265266092692862 9.8888826675679056 -1 0 0 I I #
straight-curve $-1 0 -30.265266092692862 9.8888826675679056 1 0 0 I I #
straight-curve $-1 -73.460493789483323 0 9.8888826675679056 0 -1 0 I I #
point $-1 -73.460493789483323 -30.265266092692862 9.8888826675679056 #
point $-1 -73.460493789483323 30.265266092692862 9.8888826675679056 #
edge $-1 $293 -2.2134474364068506 $282 2.2134474364068506 $279 $353 forward 7 unknown #
straight-curve $-1 -86.230778427912711 -10.487500757557052 0 0 0 -1 I I #
straight-curve $-1 -79.845636108698017 -14.914395630370754 9.8888826675679056 1 0 0 I I #
point $-1 -86.230778427912711 -14.914395630370754 9.8888826675679056 #
point $-1 -86.230778427912711 -14.914395630370754 -9.8888826675679056 #
straight-curve $-1 -86.230778427912711 -12.700948193963903 -9.8888826675679056 0 1 0 I I #
point $-1 -86.230778427912711 -10.487500757557052 -9.8888826675679056 #
point $-1 -86.230778427912711 -10.487500757557052 9.8888826675679056 #
coedge $-1 $296 $298 $308 $344 reversed $219 $-1 #
vertex $-1 $344 $354 #
straight-curve $-1 86.230778427912696 -10.487500757557052 0 0 0 -1 I I #
straight-curve $-1 86.230778427912696 -12.700948193963903 -9.8888826675679056 0 -1 0 I I #
point $-1 86.230778427912696 -10.487500757557052 -9.8888826675679056 #
point $-1 86.230778427912696 -14.914395630370754 -9.8888826675679056 #
edge $-1 $312 -2.2134474364068506 $339 2.2134474364068506 $338 $355 forward 7 unknown #
straight-curve $-1 79.845636108698002 -10.487500757557052 9.8888826675679056 -1 0 0 I I #
straight-curve $-1 86.230778427912696 -14.914395630370754 0 0 0 -1 I I #
point $-1 86.230778427912696 -14.914395630370754 9.8888826675679056 #
straight-curve $-1 -27.71520168623038 30.265266092692862 71.265381290657459 0 0 -1 I I #
point $-1 -27.71520168623038 30.265266092692862 9.8888826675679056 #
straight-curve $-1 -22.10135270932108 30.265266092692862 0.45895049480572681 -1 0 0 I I #
point $-1 -27.71520168623038 30.265266092692862 0.45895049480572681 #
point $-1 -44.202705418642161 20.577906701465274 0.31573216827864159 #
straight-curve $-1 -86.230778427912711 -12.700948193963903 9.8888826675679056 0 -1 0 I I #
point $-1 86.230778427912696 -10.487500757557052 9.8888826675679056 #
straight-curve $-1 86.230778427912696 -12.700948193963903 9.8888826675679056 0 1 0 I I #
End-of-ACIS-data 