500 0 5 0           
7 Unknown 11 ACIS 5.0 NT 24 Fri Mar 26 18:12:52 1999 
-1 9.9999999999999995e-007 1e-010 
body $-1 $5 $-1 $6 #
body $-1 $7 $-1 $8 #
body $-1 $9 $-1 $10 #
body $-1 $11 $-1 $12 #
body $-1 $13 $-1 $14 #
lump $-1 $-1 $15 $0 #
transform $-1 1 0 0 0 1 0 0 0 1 45.052644428846094 22.200324045714304 9.9869275967725795 1 rotate no_reflect no_shear #
lump $-1 $-1 $16 $1 #
transform $-1 1 0 0 0 1 0 0 0 1 45.052644428846094 22.200324045714304 9.9869275967725795 1 rotate no_reflect no_shear #
lump $-1 $-1 $17 $2 #
transform $-1 1 0 0 0 1 0 0 0 1 45.052644428846094 22.200324045714304 9.9869275967725795 1 rotate no_reflect no_shear #
lump $-1 $-1 $18 $3 #
transform $-1 1 0 0 0 1 0 0 0 1 45.052644428846094 22.200324045714304 9.9869275967725795 1 rotate no_reflect no_shear #
lump $-1 $-1 $19 $4 #
transform $-1 1 0 0 0 1 0 0 0 1 45.052644428846094 22.200324045714304 9.9869275967725795 1 rotate no_reflect no_shear #
shell $-1 $-1 $-1 $20 $-1 $5 #
shell $-1 $-1 $-1 $21 $-1 $7 #
shell $-1 $-1 $-1 $22 $-1 $9 #
shell $-1 $-1 $-1 $23 $-1 $11 #
shell $-1 $-1 $-1 $24 $-1 $13 #
face $-1 $25 $26 $15 $-1 $27 forward single #
face $-1 $28 $29 $16 $-1 $30 forward single #
face $-1 $31 $32 $17 $-1 $33 forward single #
face $-1 $34 $35 $18 $-1 $36 forward single #
face $-1 $37 $38 $19 $-1 $39 reversed single #
face $-1 $40 $41 $15 $-1 $42 reversed single #
loop $-1 $-1 $43 $20 #
plane-surface $-1 0 0 9.9869275967725795 0 0 1 1 0 0 forward_v I I I I #
face $-1 $44 $45 $16 $-1 $46 forward single #
loop $-1 $-1 $47 $21 #
plane-surface $-1 0 -15.968523285816154 5.6395189888791286 0 0 1 1 0 0 forward_v I I I I #
face $-1 $48 $49 $17 $-1 $50 forward single #
loop $-1 $-1 $51 $22 #
plane-surface $-1 0 15.968523285816154 5.6395189888791286 0 0 1 1 0 0 forward_v I I I I #
face $-1 $52 $53 $18 $-1 $54 forward single #
loop $-1 $-1 $55 $23 #
plane-surface $-1 71.546442468641047 5.247675937592609 130.71354691267379 0 -1 0 -0.83867057594974714 0 -0.54463902268945019 forward_v I I I I #
face $-1 $56 $57 $19 $-1 $58 reversed single #
loop $-1 $59 $60 $24 #
cone-surface $-1 43.083620533882112 2.2565946056498305 7.5757184842016763 -0.83867057594974714 0 -0.54463902268945019 0.2723195113447251 0 -0.41933528797487357 1 I I 0 1 0.5 forward I I I I #
face $-1 $61 $62 $15 $-1 $63 reversed single #
loop $-1 $-1 $64 $25 #
plane-surface $-1 0 0 -9.9869275967725795 0 0 1 1 0 0 forward_v I I I I #
coedge $-1 $65 $66 $67 $68 forward $26 $-1 #
face $-1 $69 $70 $16 $-1 $71 forward single #
loop $-1 $-1 $72 $28 #
plane-surface $-1 0 -9.7367225259180046 7.8132232928258549 0 -1 0 0 0 -1 forward_v I I I I #
coedge $-1 $73 $74 $75 $76 reversed $29 $-1 #
face $-1 $77 $78 $17 $-1 $79 forward single #
loop $-1 $-1 $80 $31 #
plane-surface $-1 0 9.7367225259180046 7.8132232928258549 0 1 0 0 0 1 forward_v I I I I #
coedge $-1 $81 $82 $83 $84 reversed $32 $-1 #
face $-1 $85 $86 $18 $-1 $87 forward single #
loop $-1 $-1 $88 $34 #
plane-surface $-1 -4.0222120337579952 2.2565946056498305 81.638690450069703 0.83867057594974714 0 0.54463902268945019 0.54463902268945019 0 -0.83867057594974714 forward_v I I I I #
coedge $-1 $89 $90 $91 $92 reversed $35 $-1 #
face $-1 $93 $94 $19 $-1 $95 forward single #
loop $-1 $96 $97 $37 #
cone-surface $-1 42.176758543339204 2.2565946056498305 6.9867954405093773 -0.83867057594974714 0 -0.54463902268945019 0.13615975567236255 0 -0.20966764398743679 1 I I -0.70710678118654746 0.70710678118654746 0.25 forward I I I I #
loop $-1 $-1 $98 $24 #
coedge $-1 $60 $60 $99 $100 reversed $38 $-1 #
face $-1 $101 $102 $15 $-1 $103 reversed single #
loop $-1 $-1 $104 $40 #
plane-surface $-1 0 -22.200324045714304 0 0 1 0 0 0 1 forward_v I I I I #
coedge $-1 $105 $106 $107 $108 forward $41 $-1 #
coedge $-1 $109 $43 $110 $111 forward $26 $-1 #
coedge $-1 $43 $109 $112 $113 forward $26 $-1 #
coedge $-1 $114 $115 $43 $68 reversed $116 $-1 #
edge $-1 $117 -22.200324045714304 $118 22.200324045714304 $67 $119 forward 7 unknown #
face $-1 $120 $121 $16 $-1 $122 reversed single #
loop $-1 $-1 $123 $44 #
plane-surface $-1 0 0 9.9869275967725795 0 0 1 1 0 0 forward_v I I I I #
coedge $-1 $124 $125 $126 $127 reversed $45 $-1 #
coedge $-1 $128 $47 $125 $129 reversed $29 $-1 #
coedge $-1 $47 $128 $130 $131 reversed $29 $-1 #
coedge $-1 $132 $126 $47 $76 forward $121 $-1 #
edge $-1 $133 1.7524608830099275 $134 14.216062402806227 $75 $135 forward 7 unknown #
face $-1 $136 $137 $17 $-1 $138 reversed single #
loop $-1 $-1 $139 $48 #
plane-surface $-1 0 0 9.9869275967725795 0 0 1 1 0 0 forward_v I I I I #
coedge $-1 $140 $141 $142 $143 reversed $49 $-1 #
coedge $-1 $144 $51 $145 $146 reversed $32 $-1 #
coedge $-1 $51 $144 $141 $147 reversed $32 $-1 #
coedge $-1 $148 $149 $51 $84 forward $150 $-1 #
edge $-1 $151 -14.216062402806227 $152 -1.7524608830099275 $83 $153 forward 7 unknown #
face $-1 $154 $155 $18 $-1 $156 forward single #
loop $-1 $-1 $157 $52 #
plane-surface $-1 71.546442468641047 -0.73448672629294798 130.71354691267379 0 1 0 0.83867057594974714 0 0.54463902268945019 forward_v I I I I #
coedge $-1 $158 $159 $160 $161 reversed $53 $-1 #
coedge $-1 $90 $55 $159 $162 forward $35 $-1 #
coedge $-1 $55 $89 $163 $164 reversed $35 $-1 #
coedge $-1 $165 $160 $55 $92 forward $155 $-1 #
edge $-1 $166 6.7357640977085538 $167 9.2794231945255703 $91 $168 forward 7 unknown #
face $-1 $169 $170 $19 $-1 $171 forward single #
loop $-1 $-1 $172 $56 #
plane-surface $-1 71.546442468641047 5.247675937592609 130.71354691267379 0 -1 0 -0.83867057594974714 0 -0.54463902268945019 forward_v I I I I #
loop $-1 $-1 $173 $37 #
coedge $-1 $97 $97 $98 $174 forward $57 $-1 #
coedge $-1 $98 $98 $97 $174 reversed $59 $-1 #
coedge $-1 $99 $99 $60 $100 forward $170 $-1 #
edge $-1 $175 0 $175 6.2831853071796004 $99 $176 forward 7 unknown #
face $-1 $177 $178 $15 $-1 $179 reversed single #
loop $-1 $-1 $180 $61 #
plane-surface $-1 -45.052644428846094 0 0 1 0 0 0 0 -1 forward_v I I I I #
coedge $-1 $181 $112 $182 $183 forward $62 $-1 #
coedge $-1 $184 $64 $181 $185 forward $41 $-1 #
coedge $-1 $64 $184 $186 $187 forward $41 $-1 #
coedge $-1 $115 $114 $64 $108 reversed $116 $-1 #
edge $-1 $188 -22.200324045714304 $189 22.200324045714304 $107 $190 forward 7 unknown #
coedge $-1 $66 $65 $191 $192 forward $26 $-1 #
coedge $-1 $193 $194 $65 $111 reversed $178 $-1 #
edge $-1 $118 -45.052644428846094 $195 45.052644428846094 $110 $196 forward 7 unknown #
coedge $-1 $104 $197 $66 $113 reversed $62 $-1 #
edge $-1 $198 -45.052644428846094 $117 45.052644428846094 $112 $199 forward 7 unknown #
coedge $-1 $107 $67 $197 $200 forward $116 $-1 #
coedge $-1 $67 $107 $193 $201 reversed $116 $-1 #
loop $-1 $-1 $114 $177 #
vertex $-1 $68 $202 #
vertex $-1 $68 $203 #
straight-curve $-1 45.052644428846094 0 9.9869275967725795 0 1 0 I I #
face $-1 $204 $205 $16 $-1 $206 reversed single #
loop $-1 $-1 $126 $69 #
plane-surface $-1 45.052644428846094 0 0 -1 0 0 0 0 1 forward_v I I I I #
coedge $-1 $207 $208 $124 $209 forward $70 $-1 #
coedge $-1 $210 $72 $123 $209 reversed $45 $-1 #
coedge $-1 $72 $210 $73 $129 forward $45 $-1 #
coedge $-1 $75 $211 $72 $127 forward $121 $-1 #
edge $-1 $212 -6.0803159503596538 $133 -1.7329073424662012 $126 $213 forward 7 unknown #
coedge $-1 $74 $73 $214 $215 reversed $29 $-1 #
edge $-1 $216 -45.052644428846094 $133 45.052644428846094 $125 $217 forward 7 unknown #
coedge $-1 $218 $219 $74 $131 forward $220 $-1 #
edge $-1 $134 -45.052644428846094 $221 45.052644428846094 $130 $222 forward 7 unknown #
coedge $-1 $223 $75 $219 $224 forward $121 $-1 #
vertex $-1 $76 $225 #
vertex $-1 $224 $226 #
straight-curve $-1 45.052644428846094 -7.9842616429080771 5.6395189888791286 0 -1 0 I I #
face $-1 $227 $228 $17 $-1 $229 forward single #
loop $-1 $-1 $142 $77 #
plane-surface $-1 -45.052644428846094 0 0 1 0 0 0 0 -1 forward_v I I I I #
coedge $-1 $230 $231 $140 $232 forward $78 $-1 #
coedge $-1 $233 $80 $139 $232 reversed $49 $-1 #
coedge $-1 $80 $233 $82 $147 forward $49 $-1 #
coedge $-1 $234 $235 $80 $143 forward $137 $-1 #
edge $-1 $236 -6.0803159503596538 $237 -1.7329073424662012 $142 $238 forward 7 unknown #
coedge $-1 $82 $81 $234 $239 reversed $32 $-1 #
coedge $-1 $240 $241 $81 $146 forward $242 $-1 #
edge $-1 $243 -45.052644428846094 $151 45.052644428846094 $145 $244 forward 7 unknown #
edge $-1 $152 -45.052644428846094 $237 45.052644428846094 $141 $245 forward 7 unknown #
coedge $-1 $246 $83 $233 $247 forward $150 $-1 #
coedge $-1 $83 $248 $240 $249 reversed $150 $-1 #
loop $-1 $-1 $148 $250 #
vertex $-1 $249 $251 #
vertex $-1 $84 $252 #
straight-curve $-1 45.052644428846094 7.9842616429080771 5.6395189888791286 0 -1 0 I I #
face $-1 $253 $254 $18 $-1 $255 forward single #
loop $-1 $-1 $256 $85 #
plane-surface $-1 0 0 9.9869275967725795 0 0 1 1 0 0 forward_v I I I I #
coedge $-1 $257 $258 $256 $259 reversed $86 $-1 #
coedge $-1 $260 $88 $258 $261 reversed $53 $-1 #
coedge $-1 $88 $260 $89 $162 reversed $53 $-1 #
coedge $-1 $91 $256 $88 $161 forward $155 $-1 #
edge $-1 $262 -1.8627840291178632 $166 4.1193786347676937 $160 $263 forward 7 unknown #
edge $-1 $166 85.434931077861592 $264 90.105288857692216 $89 $265 forward 7 unknown #
coedge $-1 $266 $267 $90 $164 forward $268 $-1 #
edge $-1 $167 55.369845859564315 $264 59.286737508666249 $163 $269 forward 7 unknown #
coedge $-1 $270 $91 $267 $271 forward $155 $-1 #
vertex $-1 $161 $272 #
vertex $-1 $271 $273 #
straight-curve $-1 35.773221234320523 5.247675937592609 9.9869275967725812 1 0 0 I I #
face $-1 $274 $275 $19 $-1 $276 forward single #
loop $-1 $277 $99 $93 #
plane-surface $-1 -4.0222120337579952 2.2565946056498305 81.638690450069703 0.83867057594974714 0 0.54463902268945019 0.54463902268945019 0 -0.83867057594974714 forward_v I I I I #
coedge $-1 $278 $279 $280 $281 reversed $94 $-1 #
coedge $-1 $173 $173 $-1 $282 forward $96 $-1 #
edge $-1 $283 0 $283 6.2831853071796004 $97 $284 forward 7 unknown #
vertex $-1 $100 $285 #
ellipse-curve $-1 43.780814880437589 2.2565946056498305 8.0284817722216157 -0.83867057594974714 0 -0.54463902268945019 0.2723195113447251 0 -0.41933528797487357 1 I I #
face $-1 $-1 $116 $15 $-1 $286 reversed single #
loop $-1 $-1 $193 $101 #
plane-surface $-1 0 22.200324045714304 0 0 -1 0 0 0 -1 forward_v I I I I #
coedge $-1 $287 $191 $194 $288 forward $102 $-1 #
coedge $-1 $197 $104 $105 $185 reversed $62 $-1 #
coedge $-1 $191 $287 $104 $183 reversed $102 $-1 #
edge $-1 $198 -9.9869275967725795 $289 9.9869275967725795 $182 $290 forward 7 unknown #
coedge $-1 $106 $105 $287 $291 forward $41 $-1 #
edge $-1 $189 -45.052644428846094 $289 45.052644428846094 $181 $292 forward 7 unknown #
coedge $-1 $194 $193 $106 $187 reversed $178 $-1 #
edge $-1 $293 -45.052644428846094 $188 45.052644428846094 $186 $294 forward 7 unknown #
vertex $-1 $108 $295 #
vertex $-1 $200 $296 #
straight-curve $-1 45.052644428846094 0 -9.9869275967725795 0 -1 0 I I #
coedge $-1 $180 $182 $109 $192 reversed $102 $-1 #
edge $-1 $195 -22.200324045714304 $198 22.200324045714304 $191 $297 forward 7 unknown #
coedge $-1 $186 $110 $115 $201 forward $178 $-1 #
coedge $-1 $110 $186 $180 $288 reversed $178 $-1 #
vertex $-1 $111 $298 #
straight-curve $-1 0 22.200324045714304 9.9869275967725795 -1 0 0 I I #
coedge $-1 $112 $181 $114 $200 reversed $62 $-1 #
vertex $-1 $192 $299 #
straight-curve $-1 0 -22.200324045714304 9.9869275967725795 1 0 0 I I #
edge $-1 $117 -9.9869275967725795 $189 9.9869275967725795 $114 $300 forward 7 unknown #
edge $-1 $118 -9.9869275967725795 $188 9.9869275967725795 $115 $301 forward 7 unknown #
point $-1 45.052644428846094 -22.200324045714304 9.9869275967725795 #
point $-1 45.052644428846094 22.200324045714304 9.9869275967725795 #
face $-1 $302 $220 $16 $-1 $303 reversed single #
loop $-1 $-1 $304 $120 #
plane-surface $-1 0 0 -9.9869275967725795 0 0 1 1 0 0 forward_v I I I I #
coedge $-1 $305 $123 $211 $306 forward $70 $-1 #
coedge $-1 $123 $305 $307 $308 forward $70 $-1 #
edge $-1 $309 -45.052644428846094 $212 45.052644428846094 $123 $310 forward 7 unknown #
coedge $-1 $125 $124 $311 $312 reversed $45 $-1 #
coedge $-1 $126 $313 $207 $306 reversed $121 $-1 #
vertex $-1 $306 $314 #
straight-curve $-1 45.052644428846094 -9.7367225259180046 3.9066116464129275 0 0 -1 I I #
coedge $-1 $311 $315 $128 $215 forward $316 $-1 #
edge $-1 $221 -14.216062402806227 $216 -1.7524608830099275 $214 $317 forward 7 unknown #
vertex $-1 $215 $318 #
straight-curve $-1 0 -9.7367225259180046 5.6395189888791286 1 0 0 I I #
coedge $-1 $319 $130 $315 $320 forward $220 $-1 #
coedge $-1 $130 $319 $132 $224 reversed $220 $-1 #
loop $-1 $-1 $130 $204 #
vertex $-1 $320 $321 #
straight-curve $-1 0 -22.200324045714304 5.6395189888791286 -1 0 0 I I #
coedge $-1 $313 $132 $304 $322 reversed $121 $-1 #
edge $-1 $134 -5.6395189888791286 $323 9.9869275967725795 $132 $324 forward 7 unknown #
point $-1 45.052644428846094 -9.7367225259180046 5.6395189888791286 #
point $-1 45.052644428846094 -22.200324045714304 5.6395189888791286 #
face $-1 $250 $325 $17 $-1 $326 forward single #
loop $-1 $-1 $327 $136 #
plane-surface $-1 0 -15.968523285816154 5.6395189888791286 0 0 1 1 0 0 forward_v I I I I #
coedge $-1 $328 $139 $235 $329 forward $78 $-1 #
coedge $-1 $139 $328 $246 $330 forward $78 $-1 #
edge $-1 $331 -45.052644428846094 $236 45.052644428846094 $139 $332 forward 7 unknown #
coedge $-1 $141 $140 $148 $247 reversed $49 $-1 #
coedge $-1 $333 $142 $144 $239 forward $137 $-1 #
coedge $-1 $142 $334 $230 $329 reversed $137 $-1 #
vertex $-1 $329 $335 #
vertex $-1 $239 $336 #
straight-curve $-1 -45.052644428846094 9.7367225259180046 3.9066116464129275 0 0 -1 I I #
edge $-1 $237 1.7524608830099275 $243 14.216062402806227 $234 $337 forward 7 unknown #
coedge $-1 $338 $145 $149 $249 forward $242 $-1 #
coedge $-1 $145 $338 $333 $339 reversed $242 $-1 #
loop $-1 $-1 $145 $340 #
vertex $-1 $339 $341 #
straight-curve $-1 0 22.200324045714304 5.6395189888791286 1 0 0 I I #
straight-curve $-1 0 9.7367225259180046 5.6395189888791286 -1 0 0 I I #
coedge $-1 $342 $148 $231 $330 reversed $150 $-1 #
edge $-1 $152 1.7329073424662012 $331 6.0803159503596538 $148 $343 forward 7 unknown #
coedge $-1 $149 $344 $345 $346 reversed $150 $-1 #
edge $-1 $151 -5.6395189888791286 $347 9.9869275967725795 $149 $348 forward 7 unknown #
face $-1 $349 $150 $17 $-1 $350 reversed single #
point $-1 45.052644428846094 22.200324045714304 5.6395189888791286 #
point $-1 45.052644428846094 9.7367225259180046 5.6395189888791286 #
face $-1 $351 $352 $18 $-1 $353 forward single #
loop $-1 $-1 $354 $154 #
plane-surface $-1 0 15.968523285816154 5.6395189888791286 0 0 1 1 0 0 forward_v I I I I #
coedge $-1 $160 $355 $157 $259 forward $155 $-1 #
coedge $-1 $258 $157 $356 $357 reversed $86 $-1 #
coedge $-1 $157 $257 $158 $261 forward $86 $-1 #
edge $-1 $358 -9.2794231945255703 $262 -6.7357640977085538 $256 $359 forward 7 unknown #
coedge $-1 $159 $158 $266 $360 reversed $53 $-1 #
edge $-1 $361 -90.105288857692216 $262 -85.434931077861592 $258 $362 forward 7 unknown #
vertex $-1 $161 $363 #
straight-curve $-1 42.508985332029084 1.1282973028249152 9.9869275967725741 0 1 0 I I #
vertex $-1 $360 $364 #
straight-curve $-1 -4.0222120337579952 5.247675937592609 81.638690450069703 0.54463902268945019 0 -0.83867057594974714 I I #
coedge $-1 $356 $163 $260 $360 forward $268 $-1 #
coedge $-1 $163 $365 $165 $271 reversed $268 $-1 #
loop $-1 $-1 $356 $366 #
straight-curve $-1 45.052644428846094 5.247675937592609 65.356773456336896 0 0 -1 I I #
coedge $-1 $367 $165 $368 $369 forward $155 $-1 #
edge $-1 $167 5.247675937592609 $370 9.7367225259180046 $267 $371 forward 7 unknown #
point $-1 42.508985332029077 5.247675937592609 9.9869275967725741 #
point $-1 45.052644428846094 5.247675937592609 9.9869275967725795 #
face $-1 $372 $373 $19 $-1 $374 forward single #
loop $-1 $-1 $375 $169 #
plane-surface $-1 71.546442468641047 -0.73448672629294798 130.71354691267379 0 1 0 0.83867057594974714 0 0.54463902268945019 forward_v I I I I #
loop $-1 $-1 $376 $93 #
coedge $-1 $279 $172 $377 $378 forward $94 $-1 #
coedge $-1 $172 $278 $379 $380 reversed $94 $-1 #
coedge $-1 $381 $382 $172 $281 forward $373 $-1 #
edge $-1 $383 6.7357640977085538 $384 9.2794231945255703 $280 $385 forward 7 unknown #
edge $-1 $386 1 $386 0 $173 $-1 forward 7 unknown #
vertex $-1 $174 $387 #
ellipse-curve $-1 42.386426187326641 2.2565946056498305 7.1229551961817394 0.83867057594974714 0 0.54463902268945019 0.2723195113447251 0 -0.41933528797487357 1 I I #
point $-1 44.053134391782308 2.2565946056498305 7.6091464842467396 #
plane-surface $-1 45.052644428846094 0 0 -1 0 0 0 0 1 forward_v I I I I #
coedge $-1 $182 $180 $184 $291 reversed $102 $-1 #
edge $-1 $195 -9.9869275967725795 $293 9.9869275967725795 $194 $388 forward 7 unknown #
vertex $-1 $291 $389 #
straight-curve $-1 -45.052644428846094 -22.200324045714304 0 0 0 -1 I I #
edge $-1 $289 -22.200324045714304 $293 22.200324045714304 $287 $390 forward 7 unknown #
straight-curve $-1 0 -22.200324045714304 -9.9869275967725795 -1 0 0 I I #
vertex $-1 $187 $391 #
straight-curve $-1 0 22.200324045714304 -9.9869275967725795 1 0 0 I I #
point $-1 45.052644428846094 22.200324045714304 -9.9869275967725795 #
point $-1 45.052644428846094 -22.200324045714304 -9.9869275967725795 #
straight-curve $-1 -45.052644428846094 0 9.9869275967725795 0 -1 0 I I #
point $-1 -45.052644428846094 22.200324045714304 9.9869275967725795 #
point $-1 -45.052644428846094 -22.200324045714304 9.9869275967725795 #
straight-curve $-1 45.052644428846094 -22.200324045714304 0 0 0 -1 I I #
straight-curve $-1 45.052644428846094 22.200324045714304 0 0 0 -1 I I #
face $-1 $392 $316 $16 $-1 $393 reversed single #
plane-surface $-1 0 -22.200324045714304 0 0 1 0 0 0 1 forward_v I I I I #
coedge $-1 $394 $395 $223 $322 forward $205 $-1 #
coedge $-1 $208 $207 $396 $397 forward $70 $-1 #
edge $-1 $212 -9.7367225259180046 $398 22.200324045714304 $211 $399 forward 7 unknown #
coedge $-1 $400 $311 $208 $308 reversed $316 $-1 #
edge $-1 $401 -22.200324045714304 $309 9.7367225259180046 $307 $402 forward 7 unknown #
vertex $-1 $312 $403 #
straight-curve $-1 0 -9.7367225259180046 9.9869275967725795 1 0 0 I I #
coedge $-1 $307 $214 $210 $312 forward $316 $-1 #
edge $-1 $216 1.7329073424662012 $309 6.0803159503596538 $311 $404 forward 7 unknown #
coedge $-1 $211 $223 $405 $406 reversed $121 $-1 #
point $-1 45.052644428846094 -9.7367225259180046 9.9869275967725812 #
coedge $-1 $214 $407 $218 $320 reversed $316 $-1 #
loop $-1 $-1 $311 $302 #
straight-curve $-1 -45.052644428846094 -7.9842616429080771 5.6395189888791286 0 1 0 I I #
point $-1 -45.052644428846094 -9.7367225259180046 5.6395189888791286 #
coedge $-1 $219 $218 $394 $408 reversed $220 $-1 #
edge $-1 $221 -5.6395189888791286 $409 9.9869275967725795 $315 $410 forward 7 unknown #
point $-1 -45.052644428846094 -22.200324045714304 5.6395189888791286 #
edge $-1 $411 -22.200324045714304 $323 22.200324045714304 $223 $412 forward 7 unknown #
vertex $-1 $224 $413 #
straight-curve $-1 45.052644428846094 -22.200324045714304 0 0 0 -1 I I #
loop $-1 $-1 $414 $227 #
plane-surface $-1 0 -9.7367225259180046 7.8132232928258549 0 -1 0 0 0 -1 forward_v I I I I #
coedge $-1 $415 $416 $417 $418 reversed $228 $-1 #
coedge $-1 $231 $230 $419 $420 forward $78 $-1 #
edge $-1 $236 -9.7367225259180046 $421 9.7367225259180046 $235 $422 forward 7 unknown #
edge $-1 $423 -9.7367225259180046 $331 9.7367225259180046 $246 $424 forward 7 unknown #
vertex $-1 $232 $425 #
straight-curve $-1 0 9.7367225259180046 9.9869275967725795 -1 0 0 I I #
coedge $-1 $426 $234 $241 $339 forward $137 $-1 #
coedge $-1 $235 $427 $428 $429 forward $137 $-1 #
point $-1 -45.052644428846094 9.7367225259180046 9.9869275967725812 #
point $-1 -45.052644428846094 9.7367225259180046 5.6395189888791286 #
straight-curve $-1 -45.052644428846094 7.9842616429080771 5.6395189888791286 0 1 0 I I #
coedge $-1 $241 $240 $430 $431 reversed $242 $-1 #
edge $-1 $243 -5.6395189888791286 $432 9.9869275967725795 $241 $433 forward 7 unknown #
face $-1 $-1 $242 $17 $-1 $434 reversed single #
point $-1 -45.052644428846094 22.200324045714304 5.6395189888791286 #
coedge $-1 $417 $246 $414 $435 forward $150 $-1 #
straight-curve $-1 45.052644428846094 9.7367225259180046 3.9066116464129275 0 0 1 I I #
coedge $-1 $248 $417 $436 $437 forward $150 $-1 #
coedge $-1 $438 $430 $248 $346 forward $439 $-1 #
edge $-1 $347 -22.200324045714304 $440 22.200324045714304 $248 $441 forward 7 unknown #
vertex $-1 $346 $442 #
straight-curve $-1 45.052644428846094 22.200324045714304 0 0 0 -1 I I #
face $-1 $443 $439 $17 $-1 $444 reversed single #
plane-surface $-1 45.052644428846094 0 0 -1 0 0 0 0 1 forward_v I I I I #
face $-1 $445 $446 $18 $-1 $447 reversed single #
loop $-1 $-1 $448 $253 #
plane-surface $-1 0 9.7367225259180046 7.8132232928258549 0 1 0 0 0 1 forward_v I I I I #
coedge $-1 $449 $450 $451 $452 reversed $254 $-1 #
coedge $-1 $256 $453 $454 $455 forward $155 $-1 #
coedge $-1 $454 $266 $257 $357 forward $268 $-1 #
edge $-1 $361 -59.286737508666249 $358 -55.369845859564315 $356 $456 forward 7 unknown #
vertex $-1 $357 $457 #
straight-curve $-1 35.773221234320523 -0.73448672629294798 9.9869275967725812 -1 0 0 I I #
edge $-1 $264 -4.1193786347676937 $361 1.8627840291178632 $266 $458 forward 7 unknown #
vertex $-1 $360 $459 #
straight-curve $-1 -4.0222120337579952 -0.73448672629294798 81.638690450069703 -0.54463902268945019 0 0.83867057594974714 I I #
point $-1 42.508985332029077 -0.73448672629294798 9.9869275967725741 #
point $-1 45.052644428846094 5.247675937592609 6.0700359476706467 #
coedge $-1 $267 $451 $460 $461 forward $268 $-1 #
face $-1 $462 $268 $18 $-1 $463 reversed single #
coedge $-1 $453 $270 $464 $465 forward $155 $-1 #
coedge $-1 $460 $448 $270 $369 reversed $352 $-1 #
edge $-1 $370 -45.052644428846094 $466 45.052644428846094 $270 $467 forward 7 unknown #
vertex $-1 $369 $468 #
straight-curve $-1 45.052644428846094 0 9.9869275967725795 0 1 0 I I #
face $-1 $469 $470 $19 $-1 $471 forward single #
loop $-1 $-1 $472 $274 #
plane-surface $-1 0 0 9.9869275967725795 0 0 1 1 0 0 forward_v I I I I #
coedge $-1 $473 $474 $472 $475 reversed $275 $-1 #
coedge $-1 $476 $377 $382 $477 reversed $277 $-1 #
coedge $-1 $376 $478 $278 $378 reversed $277 $-1 #
edge $-1 $383 85.434931077861592 $479 90.105288857692216 $278 $480 forward 7 unknown #
coedge $-1 $481 $482 $279 $380 forward $483 $-1 #
edge $-1 $384 55.369845859564315 $479 59.286737508666249 $379 $484 forward 7 unknown #
coedge $-1 $485 $280 $482 $486 forward $373 $-1 #
coedge $-1 $280 $472 $376 $477 forward $373 $-1 #
vertex $-1 $477 $487 #
vertex $-1 $486 $488 #
straight-curve $-1 35.773221234320523 5.247675937592609 9.9869275967725812 1 0 0 I I #
vertex $-1 $282 $489 #
point $-1 42.658745698671368 2.2565946056498305 6.7036199082068659 #
straight-curve $-1 -45.052644428846094 22.200324045714304 0 0 0 -1 I I #
point $-1 -45.052644428846094 -22.200324045714304 -9.9869275967725795 #
straight-curve $-1 -45.052644428846094 0 -9.9869275967725795 0 1 0 I I #
point $-1 -45.052644428846094 22.200324045714304 -9.9869275967725795 #
face $-1 $-1 $490 $16 $-1 $491 reversed single #
plane-surface $-1 -45.052644428846094 0 0 1 0 0 0 0 -1 forward_v I I I I #
coedge $-1 $492 $304 $319 $408 forward $205 $-1 #
coedge $-1 $304 $492 $493 $494 forward $205 $-1 #
coedge $-1 $405 $495 $305 $397 reversed $490 $-1 #
edge $-1 $398 -45.052644428846094 $401 45.052644428846094 $396 $496 forward 7 unknown #
vertex $-1 $306 $497 #
straight-curve $-1 45.052644428846094 0 9.9869275967725795 0 1 0 I I #
coedge $-1 $407 $307 $495 $498 forward $316 $-1 #
vertex $-1 $397 $499 #
straight-curve $-1 -45.052644428846094 0 9.9869275967725795 0 -1 0 I I #
point $-1 -45.052644428846094 -9.7367225259180046 9.9869275967725812 #
straight-curve $-1 -45.052644428846094 -9.7367225259180046 3.9066116464129275 0 0 1 I I #
coedge $-1 $493 $396 $313 $406 forward $490 $-1 #
edge $-1 $398 -9.9869275967725795 $411 9.9869275967725795 $313 $500 forward 7 unknown #
coedge $-1 $315 $400 $492 $501 reversed $316 $-1 #
edge $-1 $323 -45.052644428846094 $409 45.052644428846094 $319 $502 forward 7 unknown #
vertex $-1 $501 $503 #
straight-curve $-1 -45.052644428846094 -22.200324045714304 0 0 0 -1 I I #
vertex $-1 $322 $504 #
straight-curve $-1 45.052644428846094 0 -9.9869275967725795 0 -1 0 I I #
point $-1 45.052644428846094 -22.200324045714304 -9.9869275967725795 #
coedge $-1 $419 $505 $342 $435 reversed $325 $-1 #
coedge $-1 $506 $327 $505 $507 reversed $228 $-1 #
coedge $-1 $327 $506 $508 $509 reversed $228 $-1 #
coedge $-1 $344 $342 $327 $418 forward $150 $-1 #
edge $-1 $510 1.7524608830099275 $511 14.216062402806227 $417 $512 forward 7 unknown #
coedge $-1 $428 $414 $328 $420 reversed $325 $-1 #
edge $-1 $421 -45.052644428846094 $423 45.052644428846094 $328 $513 forward 7 unknown #
vertex $-1 $429 $514 #
straight-curve $-1 -45.052644428846094 0 9.9869275967725795 0 -1 0 I I #
vertex $-1 $330 $515 #
straight-curve $-1 45.052644428846094 0 9.9869275967725795 0 1 0 I I #
point $-1 45.052644428846094 9.7367225259180046 9.9869275967725812 #
coedge $-1 $516 $333 $517 $518 reversed $137 $-1 #
coedge $-1 $334 $516 $506 $519 forward $137 $-1 #
coedge $-1 $505 $419 $334 $429 reversed $325 $-1 #
edge $-1 $520 1.7329073424662012 $421 6.0803159503596538 $334 $521 forward 7 unknown #
coedge $-1 $345 $517 $338 $431 forward $439 $-1 #
edge $-1 $432 -45.052644428846094 $347 45.052644428846094 $338 $522 forward 7 unknown #
vertex $-1 $431 $523 #
straight-curve $-1 -45.052644428846094 22.200324045714304 0 0 0 -1 I I #
plane-surface $-1 0 22.200324045714304 0 0 -1 0 0 0 -1 forward_v I I I I #
edge $-1 $423 -6.0803159503596538 $510 -1.7329073424662012 $342 $524 forward 7 unknown #
coedge $-1 $508 $525 $344 $437 reversed $526 $-1 #
edge $-1 $511 -5.6395189888791286 $440 9.9869275967725795 $344 $527 forward 7 unknown #
coedge $-1 $517 $345 $525 $528 forward $439 $-1 #
loop $-1 $-1 $345 $349 #
vertex $-1 $437 $529 #
straight-curve $-1 45.052644428846094 0 -9.9869275967725795 0 -1 0 I I #
point $-1 45.052644428846094 22.200324045714304 -9.9869275967725795 #
face $-1 $340 $526 $17 $-1 $530 reversed single #
plane-surface $-1 0 0 -9.9869275967725795 0 0 1 1 0 0 forward_v I I I I #
face $-1 $531 $532 $18 $-1 $533 forward single #
loop $-1 $-1 $534 $351 #
plane-surface $-1 -45.052644428846094 0 0 1 0 0 0 0 -1 forward_v I I I I #
coedge $-1 $368 $535 $534 $536 reversed $352 $-1 #
coedge $-1 $537 $354 $538 $539 reversed $254 $-1 #
coedge $-1 $354 $537 $535 $540 reversed $254 $-1 #
coedge $-1 $365 $541 $354 $452 forward $268 $-1 #
edge $-1 $542 -14.216062402806227 $543 -1.7524608830099275 $451 $544 forward 7 unknown #
coedge $-1 $355 $367 $545 $546 forward $155 $-1 #
coedge $-1 $547 $356 $355 $455 reversed $268 $-1 #
edge $-1 $548 -9.7367225259180046 $358 -0.73448672629294798 $454 $371 forward 7 unknown #
straight-curve $-1 45.052644428846094 -0.73448672629294798 65.356773456336896 0 0 1 I I #
point $-1 45.052644428846094 -0.73448672629294798 9.9869275967725795 #
straight-curve $-1 45.052644428846094 1.1282973028249152 6.0700359476706538 0 -1 0 I I #
point $-1 45.052644428846094 -0.73448672629294798 6.0700359476706467 #
coedge $-1 $535 $368 $365 $461 reversed $352 $-1 #
edge $-1 $543 1.7329073424662012 $370 6.0803159503596538 $365 $549 forward 7 unknown #
face $-1 $550 $551 $18 $-1 $552 reversed single #
plane-surface $-1 45.052644428846094 0 0 -1 0 0 0 0 1 forward_v I I I I #
coedge $-1 $534 $553 $367 $465 reversed $446 $-1 #
edge $-1 $466 -9.7367225259180046 $554 9.7367225259180046 $464 $555 forward 7 unknown #
vertex $-1 $465 $556 #
straight-curve $-1 0 9.7367225259180046 9.9869275967725795 -1 0 0 I I #
point $-1 45.052644428846094 9.7367225259180046 9.9869275967725812 #
face $-1 $557 $558 $19 $-1 $559 forward single #
loop $-1 $-1 $560 $372 #
plane-surface $-1 0 15.968523285816154 5.6395189888791286 0 0 1 1 0 0 forward_v I I I I #
coedge $-1 $382 $561 $375 $475 forward $373 $-1 #
coedge $-1 $474 $375 $562 $563 reversed $275 $-1 #
coedge $-1 $375 $473 $476 $564 forward $275 $-1 #
edge $-1 $565 -9.2794231945255703 $566 -6.7357640977085538 $472 $567 forward 7 unknown #
coedge $-1 $478 $376 $474 $564 reversed $277 $-1 #
edge $-1 $566 -1.8627840291178632 $383 4.1193786347676937 $382 $568 forward 7 unknown #
coedge $-1 $377 $476 $481 $569 reversed $277 $-1 #
vertex $-1 $569 $570 #
straight-curve $-1 -4.0222120337579952 5.247675937592609 81.638690450069703 0.54463902268945019 0 -0.83867057594974714 I I #
coedge $-1 $562 $379 $478 $569 forward $483 $-1 #
coedge $-1 $379 $571 $381 $486 reversed $483 $-1 #
loop $-1 $-1 $562 $572 #
straight-curve $-1 45.052644428846094 5.247675937592609 65.356773456336896 0 0 -1 I I #
coedge $-1 $573 $381 $574 $575 forward $373 $-1 #
edge $-1 $384 5.247675937592609 $576 9.7367225259180046 $482 $577 forward 7 unknown #
point $-1 42.508985332029077 5.247675937592609 9.9869275967725741 #
point $-1 45.052644428846094 5.247675937592609 9.9869275967725795 #
point $-1 41.967090899351767 2.2565946056498305 6.8506356848370151 #
loop $-1 $-1 $405 $392 #
plane-surface $-1 0 22.200324045714304 0 0 -1 0 0 0 -1 forward_v I I I I #
coedge $-1 $395 $394 $407 $501 forward $205 $-1 #
coedge $-1 $495 $405 $395 $494 reversed $490 $-1 #
edge $-1 $578 -45.052644428846094 $411 45.052644428846094 $493 $579 forward 7 unknown #
coedge $-1 $396 $493 $400 $498 reversed $490 $-1 #
straight-curve $-1 0 22.200324045714304 9.9869275967725795 -1 0 0 I I #
point $-1 45.052644428846094 22.200324045714304 9.9869275967725795 #
edge $-1 $401 -9.9869275967725795 $578 9.9869275967725795 $495 $580 forward 7 unknown #
point $-1 -45.052644428846094 22.200324045714304 9.9869275967725795 #
straight-curve $-1 45.052644428846094 22.200324045714304 0 0 0 -1 I I #
edge $-1 $409 -22.200324045714304 $578 22.200324045714304 $407 $581 forward 7 unknown #
straight-curve $-1 0 -22.200324045714304 -9.9869275967725795 -1 0 0 I I #
point $-1 -45.052644428846094 -22.200324045714304 -9.9869275967725795 #
point $-1 45.052644428846094 22.200324045714304 -9.9869275967725795 #
coedge $-1 $414 $428 $415 $507 forward $325 $-1 #
coedge $-1 $416 $415 $427 $519 reversed $228 $-1 #
edge $-1 $520 -45.052644428846094 $510 45.052644428846094 $505 $582 forward 7 unknown #
coedge $-1 $583 $436 $416 $509 forward $526 $-1 #
edge $-1 $511 -45.052644428846094 $584 45.052644428846094 $508 $585 forward 7 unknown #
vertex $-1 $418 $586 #
vertex $-1 $437 $587 #
straight-curve $-1 45.052644428846094 -7.9842616429080771 5.6395189888791286 0 -1 0 I I #
straight-curve $-1 0 -9.7367225259180046 9.9869275967725795 1 0 0 I I #
point $-1 -45.052644428846094 -9.7367225259180046 9.9869275967725812 #
point $-1 45.052644428846094 -9.7367225259180046 9.9869275967725812 #
coedge $-1 $427 $426 $583 $588 reversed $137 $-1 #
coedge $-1 $430 $438 $426 $518 forward $439 $-1 #
edge $-1 $589 -22.200324045714304 $432 22.200324045714304 $426 $590 forward 7 unknown #
edge $-1 $584 -14.216062402806227 $520 -1.7524608830099275 $427 $591 forward 7 unknown #
vertex $-1 $519 $592 #
straight-curve $-1 -45.052644428846094 -9.7367225259180046 3.9066116464129275 0 0 1 I I #
straight-curve $-1 0 22.200324045714304 -9.9869275967725795 1 0 0 I I #
point $-1 -45.052644428846094 22.200324045714304 -9.9869275967725795 #
straight-curve $-1 45.052644428846094 -9.7367225259180046 3.9066116464129275 0 0 -1 I I #
coedge $-1 $436 $583 $438 $528 reversed $526 $-1 #
loop $-1 $-1 $508 $443 #
straight-curve $-1 45.052644428846094 -22.200324045714304 0 0 0 -1 I I #
edge $-1 $440 -45.052644428846094 $589 45.052644428846094 $525 $593 forward 7 unknown #
point $-1 45.052644428846094 -22.200324045714304 -9.9869275967725795 #
plane-surface $-1 0 -22.200324045714304 0 0 1 0 0 0 1 forward_v I I I I #
face $-1 $366 $594 $18 $-1 $595 forward single #
loop $-1 $-1 $596 $445 #
plane-surface $-1 0 -15.968523285816154 5.6395189888791286 0 0 1 1 0 0 forward_v I I I I #
coedge $-1 $597 $464 $448 $536 forward $446 $-1 #
coedge $-1 $448 $460 $450 $540 forward $352 $-1 #
edge $-1 $466 -6.0803159503596538 $598 -1.7329073424662012 $534 $599 forward 7 unknown #
coedge $-1 $450 $449 $597 $600 reversed $254 $-1 #
coedge $-1 $601 $602 $449 $539 forward $603 $-1 #
edge $-1 $604 -45.052644428846094 $542 45.052644428846094 $538 $605 forward 7 unknown #
edge $-1 $543 -45.052644428846094 $598 45.052644428846094 $535 $606 forward 7 unknown #
coedge $-1 $451 $607 $601 $608 reversed $268 $-1 #
vertex $-1 $608 $609 #
vertex $-1 $452 $610 #
straight-curve $-1 45.052644428846094 7.9842616429080771 5.6395189888791286 0 -1 0 I I #
coedge $-1 $611 $612 $453 $546 reversed $594 $-1 #
edge $-1 $554 -45.052644428846094 $548 45.052644428846094 $453 $613 forward 7 unknown #
coedge $-1 $614 $454 $612 $615 forward $268 $-1 #
vertex $-1 $455 $616 #
straight-curve $-1 45.052644428846094 9.7367225259180046 3.9066116464129275 0 0 1 I I #
face $-1 $617 $618 $18 $-1 $619 reversed single #
loop $-1 $-1 $620 $462 #
plane-surface $-1 0 0 -9.9869275967725795 0 0 1 1 0 0 forward_v I I I I #
coedge $-1 $464 $621 $611 $622 forward $446 $-1 #
vertex $-1 $622 $623 #
straight-curve $-1 -45.052644428846094 0 9.9869275967725795 0 -1 0 I I #
point $-1 -45.052644428846094 9.7367225259180046 9.9869275967725812 #
face $-1 $624 $625 $19 $-1 $626 reversed single #
loop $-1 $-1 $627 $469 #
plane-surface $-1 0 9.7367225259180046 7.8132232928258549 0 1 0 0 0 1 forward_v I I I I #
coedge $-1 $628 $629 $630 $631 reversed $470 $-1 #
coedge $-1 $472 $632 $633 $634 forward $373 $-1 #
coedge $-1 $633 $481 $473 $563 forward $483 $-1 #
edge $-1 $635 -59.286737508666249 $565 -55.369845859564315 $562 $636 forward 7 unknown #
edge $-1 $635 -90.105288857692216 $566 -85.434931077861592 $474 $637 forward 7 unknown #
vertex $-1 $563 $638 #
vertex $-1 $477 $639 #
straight-curve $-1 35.773221234320523 -0.73448672629294798 9.9869275967725812 -1 0 0 I I #
straight-curve $-1 42.508985332029084 1.1282973028249152 9.9869275967725741 0 1 0 I I #
edge $-1 $479 -4.1193786347676937 $635 1.8627840291178632 $481 $640 forward 7 unknown #
point $-1 45.052644428846094 5.247675937592609 6.0700359476706467 #
coedge $-1 $482 $630 $641 $642 forward $483 $-1 #
face $-1 $643 $483 $19 $-1 $644 reversed single #
coedge $-1 $632 $485 $645 $646 forward $373 $-1 #
coedge $-1 $641 $627 $485 $575 reversed $558 $-1 #
edge $-1 $576 -45.052644428846094 $647 45.052644428846094 $485 $648 forward 7 unknown #
vertex $-1 $575 $649 #
straight-curve $-1 45.052644428846094 0 9.9869275967725795 0 1 0 I I #
vertex $-1 $494 $650 #
straight-curve $-1 0 22.200324045714304 -9.9869275967725795 1 0 0 I I #
straight-curve $-1 -45.052644428846094 22.200324045714304 0 0 0 -1 I I #
straight-curve $-1 -45.052644428846094 0 -9.9869275967725795 0 1 0 I I #
straight-curve $-1 0 -9.7367225259180046 5.6395189888791286 1 0 0 I I #
coedge $-1 $525 $508 $516 $588 forward $526 $-1 #
vertex $-1 $588 $651 #
straight-curve $-1 0 -22.200324045714304 5.6395189888791286 -1 0 0 I I #
point $-1 45.052644428846094 -9.7367225259180046 5.6395189888791286 #
point $-1 45.052644428846094 -22.200324045714304 5.6395189888791286 #
edge $-1 $584 -5.6395189888791286 $589 9.9869275967725795 $516 $652 forward 7 unknown #
vertex $-1 $518 $653 #
straight-curve $-1 -45.052644428846094 0 -9.9869275967725795 0 1 0 I I #
straight-curve $-1 -45.052644428846094 -7.9842616429080771 5.6395189888791286 0 1 0 I I #
point $-1 -45.052644428846094 -9.7367225259180046 5.6395189888791286 #
straight-curve $-1 0 -22.200324045714304 -9.9869275967725795 -1 0 0 I I #
loop $-1 $-1 $612 $531 #
plane-surface $-1 0 -9.7367225259180046 7.8132232928258549 0 -1 0 0 0 -1 forward_v I I I I #
coedge $-1 $654 $655 $614 $656 reversed $532 $-1 #
coedge $-1 $657 $534 $537 $600 forward $446 $-1 #
vertex $-1 $600 $658 #
straight-curve $-1 -45.052644428846094 9.7367225259180046 3.9066116464129275 0 0 -1 I I #
edge $-1 $598 1.7524608830099275 $604 14.216062402806227 $597 $659 forward 7 unknown #
coedge $-1 $660 $538 $541 $608 forward $603 $-1 #
coedge $-1 $538 $660 $657 $661 reversed $603 $-1 #
loop $-1 $-1 $538 $617 #
vertex $-1 $661 $662 #
straight-curve $-1 0 22.200324045714304 5.6395189888791286 1 0 0 I I #
straight-curve $-1 0 9.7367225259180046 5.6395189888791286 -1 0 0 I I #
coedge $-1 $541 $663 $620 $664 reversed $268 $-1 #
edge $-1 $542 -5.6395189888791286 $665 9.9869275967725795 $541 $666 forward 7 unknown #
point $-1 45.052644428846094 22.200324045714304 5.6395189888791286 #
point $-1 45.052644428846094 9.7367225259180046 5.6395189888791286 #
coedge $-1 $667 $545 $553 $622 reversed $594 $-1 #
coedge $-1 $545 $667 $547 $615 reversed $594 $-1 #
straight-curve $-1 0 -9.7367225259180046 9.9869275967725795 1 0 0 I I #
coedge $-1 $663 $547 $596 $656 forward $268 $-1 #
edge $-1 $548 -6.0803159503596538 $668 -1.7329073424662012 $547 $669 forward 7 unknown #
point $-1 45.052644428846094 -9.7367225259180046 9.9869275967725812 #
face $-1 $-1 $603 $18 $-1 $670 reversed single #
loop $-1 $-1 $671 $550 #
plane-surface $-1 0 -22.200324045714304 0 0 1 0 0 0 1 forward_v I I I I #
coedge $-1 $672 $673 $607 $664 forward $551 $-1 #
coedge $-1 $553 $674 $675 $676 forward $446 $-1 #
edge $-1 $677 1.7329073424662012 $554 6.0803159503596538 $553 $678 forward 7 unknown #
point $-1 -45.052644428846094 -9.7367225259180046 9.9869275967725812 #
face $-1 $679 $680 $19 $-1 $681 forward single #
loop $-1 $-1 $682 $557 #
plane-surface $-1 -45.052644428846094 0 0 1 0 0 0 0 -1 forward_v I I I I #
coedge $-1 $574 $683 $682 $684 reversed $558 $-1 #
coedge $-1 $685 $560 $686 $687 reversed $470 $-1 #
coedge $-1 $560 $685 $683 $688 reversed $470 $-1 #
coedge $-1 $571 $689 $560 $631 forward $483 $-1 #
edge $-1 $690 -14.216062402806227 $691 -1.7524608830099275 $630 $692 forward 7 unknown #
coedge $-1 $561 $573 $693 $694 forward $373 $-1 #
coedge $-1 $695 $562 $561 $634 reversed $483 $-1 #
edge $-1 $696 -9.7367225259180046 $565 -0.73448672629294798 $633 $577 forward 7 unknown #
vertex $-1 $569 $697 #
straight-curve $-1 45.052644428846094 -0.73448672629294798 65.356773456336896 0 0 1 I I #
straight-curve $-1 -4.0222120337579952 -0.73448672629294798 81.638690450069703 -0.54463902268945019 0 0.83867057594974714 I I #
point $-1 45.052644428846094 -0.73448672629294798 9.9869275967725795 #
point $-1 42.508985332029077 -0.73448672629294798 9.9869275967725741 #
straight-curve $-1 45.052644428846094 1.1282973028249152 6.0700359476706538 0 -1 0 I I #
coedge $-1 $683 $574 $571 $642 reversed $558 $-1 #
edge $-1 $691 1.7329073424662012 $576 6.0803159503596538 $571 $698 forward 7 unknown #
face $-1 $699 $700 $19 $-1 $701 reversed single #
plane-surface $-1 45.052644428846094 0 0 -1 0 0 0 0 1 forward_v I I I I #
coedge $-1 $682 $702 $573 $646 reversed $625 $-1 #
edge $-1 $647 -9.7367225259180046 $703 9.7367225259180046 $645 $704 forward 7 unknown #
vertex $-1 $646 $705 #
straight-curve $-1 0 9.7367225259180046 9.9869275967725795 -1 0 0 I I #
point $-1 45.052644428846094 9.7367225259180046 9.9869275967725812 #
point $-1 -45.052644428846094 22.200324045714304 -9.9869275967725795 #
point $-1 -45.052644428846094 -22.200324045714304 5.6395189888791286 #
straight-curve $-1 -45.052644428846094 -22.200324045714304 0 0 0 -1 I I #
point $-1 -45.052644428846094 -22.200324045714304 -9.9869275967725795 #
coedge $-1 $675 $596 $667 $706 reversed $532 $-1 #
coedge $-1 $596 $675 $671 $707 reversed $532 $-1 #
edge $-1 $668 1.7524608830099275 $708 14.216062402806227 $614 $709 forward 7 unknown #
coedge $-1 $710 $597 $602 $661 forward $446 $-1 #
point $-1 -45.052644428846094 9.7367225259180046 5.6395189888791286 #
straight-curve $-1 -45.052644428846094 7.9842616429080771 5.6395189888791286 0 1 0 I I #
coedge $-1 $602 $601 $673 $711 reversed $603 $-1 #
edge $-1 $604 -5.6395189888791286 $712 9.9869275967725795 $602 $713 forward 7 unknown #
point $-1 -45.052644428846094 22.200324045714304 5.6395189888791286 #
coedge $-1 $607 $614 $714 $715 forward $268 $-1 #
edge $-1 $665 -22.200324045714304 $716 22.200324045714304 $607 $717 forward 7 unknown #
vertex $-1 $664 $718 #
straight-curve $-1 45.052644428846094 22.200324045714304 0 0 0 -1 I I #
coedge $-1 $612 $611 $654 $706 forward $594 $-1 #
vertex $-1 $656 $719 #
straight-curve $-1 45.052644428846094 -9.7367225259180046 3.9066116464129275 0 0 -1 I I #
plane-surface $-1 0 22.200324045714304 0 0 -1 0 0 0 -1 forward_v I I I I #
coedge $-1 $720 $714 $655 $707 forward $618 $-1 #
coedge $-1 $721 $620 $722 $723 forward $551 $-1 #
coedge $-1 $620 $721 $660 $711 forward $551 $-1 #
coedge $-1 $621 $710 $720 $724 reversed $446 $-1 #
coedge $-1 $655 $654 $621 $676 reversed $532 $-1 #
edge $-1 $725 -14.216062402806227 $677 -1.7524608830099275 $621 $726 forward 7 unknown #
vertex $-1 $676 $727 #
straight-curve $-1 -45.052644428846094 -9.7367225259180046 3.9066116464129275 0 0 1 I I #
face $-1 $572 $728 $19 $-1 $729 forward single #
loop $-1 $-1 $730 $624 #
plane-surface $-1 0 -15.968523285816154 5.6395189888791286 0 0 1 1 0 0 forward_v I I I I #
coedge $-1 $731 $645 $627 $684 forward $625 $-1 #
coedge $-1 $627 $641 $629 $688 forward $558 $-1 #
edge $-1 $647 -6.0803159503596538 $732 -1.7329073424662012 $682 $733 forward 7 unknown #
coedge $-1 $629 $628 $731 $734 reversed $470 $-1 #
coedge $-1 $735 $736 $628 $687 forward $737 $-1 #
edge $-1 $738 -45.052644428846094 $690 45.052644428846094 $686 $739 forward 7 unknown #
edge $-1 $691 -45.052644428846094 $732 45.052644428846094 $683 $740 forward 7 unknown #
coedge $-1 $630 $741 $735 $742 reversed $483 $-1 #
vertex $-1 $742 $743 #
vertex $-1 $631 $744 #
straight-curve $-1 45.052644428846094 7.9842616429080771 5.6395189888791286 0 -1 0 I I #
coedge $-1 $745 $746 $632 $694 reversed $728 $-1 #
edge $-1 $703 -45.052644428846094 $696 45.052644428846094 $632 $747 forward 7 unknown #
coedge $-1 $748 $633 $746 $749 forward $483 $-1 #
vertex $-1 $634 $750 #
point $-1 45.052644428846094 -0.73448672629294798 6.0700359476706467 #
straight-curve $-1 45.052644428846094 9.7367225259180046 3.9066116464129275 0 0 1 I I #
face $-1 $751 $752 $19 $-1 $753 reversed single #
loop $-1 $-1 $754 $643 #
plane-surface $-1 0 0 -9.9869275967725795 0 0 1 1 0 0 forward_v I I I I #
coedge $-1 $645 $755 $745 $756 forward $625 $-1 #
vertex $-1 $756 $757 #
straight-curve $-1 -45.052644428846094 0 9.9869275967725795 0 -1 0 I I #
point $-1 -45.052644428846094 9.7367225259180046 9.9869275967725812 #
edge $-1 $677 -45.052644428846094 $668 45.052644428846094 $667 $758 forward 7 unknown #
edge $-1 $708 -45.052644428846094 $725 45.052644428846094 $671 $759 forward 7 unknown #
vertex $-1 $715 $760 #
straight-curve $-1 45.052644428846094 -7.9842616429080771 5.6395189888791286 0 -1 0 I I #
coedge $-1 $674 $657 $721 $761 reversed $446 $-1 #
edge $-1 $712 -45.052644428846094 $665 45.052644428846094 $660 $762 forward 7 unknown #
vertex $-1 $711 $763 #
straight-curve $-1 -45.052644428846094 22.200324045714304 0 0 0 -1 I I #
coedge $-1 $671 $722 $663 $715 reversed $618 $-1 #
edge $-1 $708 -5.6395189888791286 $716 9.9869275967725795 $663 $764 forward 7 unknown #
vertex $-1 $715 $765 #
straight-curve $-1 45.052644428846094 0 -9.9869275967725795 0 -1 0 I I #
point $-1 45.052644428846094 22.200324045714304 -9.9869275967725795 #
point $-1 45.052644428846094 -9.7367225259180046 5.6395189888791286 #
coedge $-1 $722 $671 $674 $724 forward $618 $-1 #
coedge $-1 $673 $672 $710 $761 forward $551 $-1 #
coedge $-1 $714 $720 $672 $723 reversed $618 $-1 #
edge $-1 $716 -45.052644428846094 $766 45.052644428846094 $722 $767 forward 7 unknown #
edge $-1 $725 -5.6395189888791286 $766 9.9869275967725795 $674 $768 forward 7 unknown #
vertex $-1 $724 $769 #
straight-curve $-1 -45.052644428846094 -7.9842616429080771 5.6395189888791286 0 1 0 I I #
point $-1 -45.052644428846094 -9.7367225259180046 5.6395189888791286 #
loop $-1 $-1 $746 $679 #
plane-surface $-1 0 -9.7367225259180046 7.8132232928258549 0 -1 0 0 0 -1 forward_v I I I I #
coedge $-1 $770 $771 $748 $772 reversed $680 $-1 #
coedge $-1 $773 $682 $685 $734 forward $625 $-1 #
vertex $-1 $734 $774 #
straight-curve $-1 -45.052644428846094 9.7367225259180046 3.9066116464129275 0 0 -1 I I #
edge $-1 $732 1.7524608830099275 $738 14.216062402806227 $731 $775 forward 7 unknown #
coedge $-1 $776 $686 $689 $742 forward $737 $-1 #
coedge $-1 $686 $776 $773 $777 reversed $737 $-1 #
loop $-1 $-1 $686 $751 #
vertex $-1 $777 $778 #
straight-curve $-1 0 22.200324045714304 5.6395189888791286 1 0 0 I I #
straight-curve $-1 0 9.7367225259180046 5.6395189888791286 -1 0 0 I I #
coedge $-1 $689 $779 $754 $780 reversed $483 $-1 #
edge $-1 $690 -5.6395189888791286 $781 9.9869275967725795 $689 $782 forward 7 unknown #
point $-1 45.052644428846094 22.200324045714304 5.6395189888791286 #
point $-1 45.052644428846094 9.7367225259180046 5.6395189888791286 #
coedge $-1 $783 $693 $702 $756 reversed $728 $-1 #
coedge $-1 $693 $783 $695 $749 reversed $728 $-1 #
straight-curve $-1 0 -9.7367225259180046 9.9869275967725795 1 0 0 I I #
coedge $-1 $779 $695 $730 $772 forward $483 $-1 #
edge $-1 $696 -6.0803159503596538 $784 -1.7329073424662012 $695 $785 forward 7 unknown #
point $-1 45.052644428846094 -9.7367225259180046 9.9869275967725812 #
face $-1 $-1 $737 $19 $-1 $786 reversed single #
loop $-1 $-1 $787 $699 #
plane-surface $-1 0 -22.200324045714304 0 0 1 0 0 0 1 forward_v I I I I #
coedge $-1 $788 $789 $741 $780 forward $700 $-1 #
coedge $-1 $702 $790 $791 $792 forward $625 $-1 #
edge $-1 $793 1.7329073424662012 $703 6.0803159503596538 $702 $794 forward 7 unknown #
point $-1 -45.052644428846094 -9.7367225259180046 9.9869275967725812 #
straight-curve $-1 0 -9.7367225259180046 5.6395189888791286 1 0 0 I I #
straight-curve $-1 0 -22.200324045714304 5.6395189888791286 -1 0 0 I I #
point $-1 45.052644428846094 -22.200324045714304 5.6395189888791286 #
edge $-1 $766 -22.200324045714304 $712 22.200324045714304 $710 $795 forward 7 unknown #
straight-curve $-1 0 22.200324045714304 -9.9869275967725795 1 0 0 I I #
point $-1 -45.052644428846094 22.200324045714304 -9.9869275967725795 #
straight-curve $-1 45.052644428846094 -22.200324045714304 0 0 0 -1 I I #
point $-1 45.052644428846094 -22.200324045714304 -9.9869275967725795 #
vertex $-1 $761 $796 #
straight-curve $-1 0 -22.200324045714304 -9.9869275967725795 -1 0 0 I I #
straight-curve $-1 -45.052644428846094 -22.200324045714304 0 0 0 -1 I I #
point $-1 -45.052644428846094 -22.200324045714304 5.6395189888791286 #
coedge $-1 $791 $730 $783 $797 reversed $680 $-1 #
coedge $-1 $730 $791 $787 $798 reversed $680 $-1 #
edge $-1 $784 1.7524608830099275 $799 14.216062402806227 $748 $800 forward 7 unknown #
coedge $-1 $801 $731 $736 $777 forward $625 $-1 #
point $-1 -45.052644428846094 9.7367225259180046 5.6395189888791286 #
straight-curve $-1 -45.052644428846094 7.9842616429080771 5.6395189888791286 0 1 0 I I #
coedge $-1 $736 $735 $789 $802 reversed $737 $-1 #
edge $-1 $738 -5.6395189888791286 $803 9.9869275967725795 $736 $804 forward 7 unknown #
point $-1 -45.052644428846094 22.200324045714304 5.6395189888791286 #
coedge $-1 $741 $748 $805 $806 forward $483 $-1 #
edge $-1 $781 -22.200324045714304 $807 22.200324045714304 $741 $808 forward 7 unknown #
vertex $-1 $780 $809 #
straight-curve $-1 45.052644428846094 22.200324045714304 0 0 0 -1 I I #
coedge $-1 $746 $745 $770 $797 forward $728 $-1 #
vertex $-1 $772 $810 #
straight-curve $-1 45.052644428846094 -9.7367225259180046 3.9066116464129275 0 0 -1 I I #
plane-surface $-1 0 22.200324045714304 0 0 -1 0 0 0 -1 forward_v I I I I #
coedge $-1 $811 $805 $771 $798 forward $752 $-1 #
coedge $-1 $812 $754 $813 $814 forward $700 $-1 #
coedge $-1 $754 $812 $776 $802 forward $700 $-1 #
coedge $-1 $755 $801 $811 $815 reversed $625 $-1 #
coedge $-1 $771 $770 $755 $792 reversed $680 $-1 #
edge $-1 $816 -14.216062402806227 $793 -1.7524608830099275 $755 $817 forward 7 unknown #
vertex $-1 $792 $818 #
straight-curve $-1 -45.052644428846094 -9.7367225259180046 3.9066116464129275 0 0 1 I I #
straight-curve $-1 -45.052644428846094 0 -9.9869275967725795 0 1 0 I I #
point $-1 -45.052644428846094 -22.200324045714304 -9.9869275967725795 #
edge $-1 $793 -45.052644428846094 $784 45.052644428846094 $783 $819 forward 7 unknown #
edge $-1 $799 -45.052644428846094 $816 45.052644428846094 $787 $820 forward 7 unknown #
vertex $-1 $806 $821 #
straight-curve $-1 45.052644428846094 -7.9842616429080771 5.6395189888791286 0 -1 0 I I #
coedge $-1 $790 $773 $812 $822 reversed $625 $-1 #
edge $-1 $803 -45.052644428846094 $781 45.052644428846094 $776 $823 forward 7 unknown #
vertex $-1 $802 $824 #
straight-curve $-1 -45.052644428846094 22.200324045714304 0 0 0 -1 I I #
coedge $-1 $787 $813 $779 $806 reversed $752 $-1 #
edge $-1 $799 -5.6395189888791286 $807 9.9869275967725795 $779 $825 forward 7 unknown #
vertex $-1 $806 $826 #
straight-curve $-1 45.052644428846094 0 -9.9869275967725795 0 -1 0 I I #
point $-1 45.052644428846094 22.200324045714304 -9.9869275967725795 #
point $-1 45.052644428846094 -9.7367225259180046 5.6395189888791286 #
coedge $-1 $813 $787 $790 $815 forward $752 $-1 #
coedge $-1 $789 $788 $801 $822 forward $700 $-1 #
coedge $-1 $805 $811 $788 $814 reversed $752 $-1 #
edge $-1 $807 -45.052644428846094 $827 45.052644428846094 $813 $828 forward 7 unknown #
edge $-1 $816 -5.6395189888791286 $827 9.9869275967725795 $790 $829 forward 7 unknown #
vertex $-1 $815 $830 #
straight-curve $-1 -45.052644428846094 -7.9842616429080771 5.6395189888791286 0 1 0 I I #
point $-1 -45.052644428846094 -9.7367225259180046 5.6395189888791286 #
straight-curve $-1 0 -9.7367225259180046 5.6395189888791286 1 0 0 I I #
straight-curve $-1 0 -22.200324045714304 5.6395189888791286 -1 0 0 I I #
point $-1 45.052644428846094 -22.200324045714304 5.6395189888791286 #
edge $-1 $827 -22.200324045714304 $803 22.200324045714304 $801 $831 forward 7 unknown #
straight-curve $-1 0 22.200324045714304 -9.9869275967725795 1 0 0 I I #
point $-1 -45.052644428846094 22.200324045714304 -9.9869275967725795 #
straight-curve $-1 45.052644428846094 -22.200324045714304 0 0 0 -1 I I #
point $-1 45.052644428846094 -22.200324045714304 -9.9869275967725795 #
vertex $-1 $822 $832 #
straight-curve $-1 0 -22.200324045714304 -9.9869275967725795 -1 0 0 I I #
straight-curve $-1 -45.052644428846094 -22.200324045714304 0 0 0 -1 I I #
point $-1 -45.052644428846094 -22.200324045714304 5.6395189888791286 #
straight-curve $-1 -45.052644428846094 0 -9.9869275967725795 0 1 0 I I #
point $-1 -45.052644428846094 -22.200324045714304 -9.9869275967725795 #
End-of-ACIS-data 