500 0 8 0           
7 Unknown 11 ACIS 5.0 NT 24 Fri Mar 26 15:15:59 1999 
-1 9.9999999999999995e-007 1e-010 
body $-1 $8 $-1 $9 #
body $-1 $10 $-1 $11 #
body $-1 $12 $-1 $13 #
body $-1 $14 $-1 $15 #
body $-1 $16 $-1 $17 #
body $-1 $18 $-1 $19 #
body $-1 $20 $-1 $21 #
body $-1 $22 $-1 $23 #
lump $-1 $-1 $24 $0 #
transform $-1 1 0 0 0 1 0 0 0 1 41.544236579485457 21.35774660103349 8.4418730766712002 1 rotate no_reflect no_shear #
lump $-1 $-1 $25 $1 #
transform $-1 1 0 0 0 1 0 0 0 1 41.544236579485457 21.35774660103349 8.4418730766712002 1 rotate no_reflect no_shear #
lump $-1 $-1 $26 $2 #
transform $-1 1 0 0 0 1 0 0 0 1 41.544236579485457 21.35774660103349 8.4418730766712002 1 rotate no_reflect no_shear #
lump $-1 $-1 $27 $3 #
transform $-1 1 0 0 0 1 0 0 0 1 41.544236579485457 21.35774660103349 8.4418730766712002 1 rotate no_reflect no_shear #
lump $-1 $-1 $28 $4 #
transform $-1 1 0 0 0 1 0 0 0 1 41.544236579485457 21.35774660103349 8.4418730766712002 1 rotate no_reflect no_shear #
lump $-1 $-1 $29 $5 #
transform $-1 1 0 0 0 1 0 0 0 1 41.544236579485457 21.35774660103349 8.4418730766712002 1 rotate no_reflect no_shear #
lump $-1 $-1 $30 $6 #
transform $-1 1 0 0 0 1 0 0 0 1 41.544236579485457 21.35774660103349 8.4418730766712002 1 rotate no_reflect no_shear #
lump $-1 $-1 $31 $7 #
transform $-1 1 0 0 0 1 0 0 0 1 41.544236579485457 21.35774660103349 8.4418730766712002 1 rotate no_reflect no_shear #
shell $-1 $-1 $-1 $32 $-1 $8 #
shell $-1 $-1 $-1 $33 $-1 $10 #
shell $-1 $-1 $-1 $34 $-1 $12 #
shell $-1 $-1 $-1 $35 $-1 $14 #
shell $-1 $-1 $-1 $36 $-1 $16 #
shell $-1 $-1 $-1 $37 $-1 $18 #
shell $-1 $-1 $-1 $38 $-1 $20 #
shell $-1 $-1 $-1 $39 $-1 $22 #
face $-1 $40 $41 $24 $-1 $42 forward single #
face $-1 $43 $44 $25 $-1 $45 forward single #
face $-1 $46 $47 $26 $-1 $48 reversed single #
face $-1 $49 $50 $27 $-1 $51 forward single #
face $-1 $52 $53 $28 $-1 $54 forward single #
face $-1 $55 $56 $29 $-1 $57 reversed single #
face $-1 $58 $59 $30 $-1 $60 forward single #
face $-1 $61 $62 $31 $-1 $63 forward single #
face $-1 $64 $65 $24 $-1 $66 reversed single #
loop $-1 $-1 $67 $32 #
plane-surface $-1 0 0 8.4418730766712002 0 0 1 1 0 0 forward_v I I I I #
face $-1 $68 $69 $25 $-1 $70 reversed single #
loop $-1 $-1 $71 $33 #
plane-surface $-1 -41.544236579485457 0 0 1 0 0 0 0 -1 forward_v I I I I #
face $-1 $72 $73 $26 $-1 $74 reversed single #
loop $-1 $-1 $75 $34 #
plane-surface $-1 25.970940411305428 35.638366692783748 95.030938962922207 1 0 0 0 -0.5877852598018023 -0.80901698891910034 forward_v I I I I #
face $-1 $76 $77 $27 $-1 $78 forward single #
loop $-1 $79 $80 $35 #
cone-surface $-1 29.358036324186628 16.346714543538322 4.1110953961795271 0 -0.5877852598018023 -0.80901698891910034 1.5 0 0 1 I I 0 1 1.5 forward I I I I #
face $-1 $81 $82 $28 $-1 $83 forward single #
loop $-1 $84 $85 $36 #
cone-surface $-1 34.438680193508418 16.346714543538322 4.1110953961795271 0 -0.5877852598018023 -0.80901698891910034 1.5 0 0 1 I I 0 1 1.5 forward I I I I #
face $-1 $86 $87 $29 $-1 $88 reversed single #
loop $-1 $-1 $89 $37 #
plane-surface $-1 37.825776106389618 -70.195926383314287 69.923401693583145 -1 0 0 0 -0.5877852598018023 0.80901698891910034 forward_v I I I I #
face $-1 $90 $91 $30 $-1 $92 forward single #
loop $-1 $93 $94 $38 #
cone-surface $-1 29.358036324186628 -16.346714543538326 4.1110953961795236 0 0.5877852598018023 -0.80901698891910034 1.5 0 0 1 I I 0 1 1.5 forward I I I I #
face $-1 $95 $96 $31 $-1 $97 forward single #
loop $-1 $98 $99 $39 #
cone-surface $-1 34.438680193508418 -16.346714543538326 4.1110953961795236 0 0.5877852598018023 -0.80901698891910034 1.5 0 0 1 I I 0 1 1.5 forward I I I I #
face $-1 $100 $101 $24 $-1 $102 reversed single #
loop $-1 $-1 $103 $40 #
plane-surface $-1 0 0 -8.4418730766712002 0 0 1 1 0 0 forward_v I I I I #
coedge $-1 $104 $105 $106 $107 forward $41 $-1 #
face $-1 $108 $109 $25 $-1 $110 reversed single #
loop $-1 $-1 $111 $43 #
plane-surface $-1 0 21.35774660103349 0 0 -1 0 0 0 -1 forward_v I I I I #
coedge $-1 $112 $113 $114 $115 forward $44 $-1 #
face $-1 $116 $117 $26 $-1 $118 reversed single #
loop $-1 $-1 $119 $46 #
plane-surface $-1 31.898358258847523 -13.199813089497049 27.810952593966064 0 0.5877852598018023 0.80901698891910034 1 0 0 forward_v I I I I #
coedge $-1 $120 $121 $122 $123 reversed $47 $-1 #
face $-1 $-1 $124 $27 $-1 $125 forward single #
loop $-1 $126 $127 $49 #
cone-surface $-1 29.358036324186628 14.843998214757178 2.0427838500206121 0 -0.5877852598018023 -0.80901698891910034 0.75 0 0 1 I I -0.70710678118654757 0.70710678118654757 0.75 forward I I I I #
loop $-1 $-1 $128 $35 #
coedge $-1 $80 $80 $129 $130 reversed $50 $-1 #
face $-1 $-1 $131 $28 $-1 $132 forward single #
loop $-1 $133 $134 $52 #
cone-surface $-1 34.438680193508418 14.843998214757178 2.0427838500206121 0 -0.5877852598018023 -0.80901698891910034 0.75 0 0 1 I I -0.70710678118654757 0.70710678118654757 0.75 forward I I I I #
loop $-1 $-1 $135 $36 #
coedge $-1 $85 $85 $136 $137 reversed $53 $-1 #
face $-1 $138 $139 $29 $-1 $140 reversed single #
loop $-1 $-1 $141 $55 #
plane-surface $-1 31.898358258847523 -21.35774660103349 2.7034153246270023 0 -0.5877852598018023 0.80901698891910034 1 0 0 forward_v I I I I #
coedge $-1 $142 $143 $144 $145 reversed $56 $-1 #
face $-1 $-1 $146 $30 $-1 $147 forward single #
loop $-1 $148 $149 $58 #
cone-surface $-1 29.358036324186628 -14.843998214757184 2.0427838500206086 0 0.5877852598018023 -0.80901698891910034 0.75 0 0 1 I I -0.70710678118654757 0.70710678118654757 0.75 forward I I I I #
loop $-1 $-1 $150 $38 #
coedge $-1 $94 $94 $151 $152 reversed $59 $-1 #
face $-1 $-1 $153 $31 $-1 $154 forward single #
loop $-1 $155 $156 $61 #
cone-surface $-1 34.438680193508418 -14.843998214757184 2.0427838500206086 0 0.5877852598018023 -0.80901698891910034 0.75 0 0 1 I I -0.70710678118654757 0.70710678118654757 0.75 forward I I I I #
loop $-1 $-1 $157 $39 #
coedge $-1 $99 $99 $158 $159 reversed $62 $-1 #
face $-1 $160 $161 $24 $-1 $162 reversed single #
loop $-1 $-1 $163 $64 #
plane-surface $-1 0 -21.35774660103349 0 0 1 0 0 0 1 forward_v I I I I #
coedge $-1 $164 $165 $166 $167 forward $65 $-1 #
coedge $-1 $168 $67 $169 $170 forward $41 $-1 #
coedge $-1 $67 $168 $171 $172 forward $41 $-1 #
coedge $-1 $173 $174 $67 $107 reversed $175 $-1 #
edge $-1 $176 -21.35774660103349 $177 21.35774660103349 $106 $178 forward 7 unknown #
face $-1 $179 $180 $25 $-1 $181 reversed single #
loop $-1 $-1 $114 $68 #
plane-surface $-1 -45.049400593818476 0 3.8733633406752368 0 0 1 1 0 0 forward_v I I I I #
coedge $-1 $182 $183 $112 $184 forward $69 $-1 #
coedge $-1 $185 $71 $111 $184 reversed $44 $-1 #
coedge $-1 $71 $185 $186 $187 reversed $44 $-1 #
coedge $-1 $188 $189 $71 $115 reversed $109 $-1 #
edge $-1 $190 -21.35774660103349 $191 21.35774660103349 $114 $192 forward 7 unknown #
face $-1 $193 $194 $26 $-1 $195 forward single #
loop $-1 $-1 $196 $72 #
plane-surface $-1 37.825776106389618 35.638366692783748 95.030938962922207 -1 0 0 0 0.5877852598018023 0.80901698891910034 forward_v I I I I #
coedge $-1 $197 $198 $199 $200 reversed $73 $-1 #
coedge $-1 $121 $75 $201 $202 reversed $47 $-1 #
coedge $-1 $75 $120 $197 $203 reversed $47 $-1 #
coedge $-1 $199 $204 $75 $123 forward $194 $-1 #
edge $-1 $205 -3.5385632546416161 $206 4.3597460924891642 $122 $207 forward 7 unknown #
loop $-1 $-1 $129 $76 #
plane-surface $-1 31.898358258847523 -13.199813089497049 27.810952593966064 0 0.5877852598018023 0.80901698891910034 1 0 0 forward_v I I I I #
loop $-1 $-1 $208 $49 #
coedge $-1 $127 $127 $128 $209 reversed $77 $-1 #
coedge $-1 $128 $128 $127 $209 forward $79 $-1 #
coedge $-1 $129 $129 $80 $130 forward $124 $-1 #
edge $-1 $210 -1.0364211251235222e-015 $210 6.2831853071795996 $129 $211 forward 7 unknown #
loop $-1 $-1 $136 $81 #
plane-surface $-1 31.898358258847523 -13.199813089497049 27.810952593966064 0 0.5877852598018023 0.80901698891910034 1 0 0 forward_v I I I I #
loop $-1 $-1 $212 $52 #
coedge $-1 $134 $134 $135 $213 reversed $82 $-1 #
coedge $-1 $135 $135 $134 $213 forward $84 $-1 #
coedge $-1 $136 $136 $85 $137 forward $131 $-1 #
edge $-1 $214 -1.0364211251235222e-015 $214 6.2831853071795996 $136 $215 forward 7 unknown #
face $-1 $216 $217 $29 $-1 $218 reversed single #
loop $-1 $-1 $219 $86 #
plane-surface $-1 25.970940411305428 -70.195926383314287 69.923401693583145 1 0 0 0 0.5877852598018023 -0.80901698891910034 forward_v I I I I #
coedge $-1 $220 $221 $222 $223 reversed $87 $-1 #
coedge $-1 $143 $89 $224 $225 reversed $56 $-1 #
coedge $-1 $89 $142 $220 $226 reversed $56 $-1 #
coedge $-1 $222 $227 $89 $145 forward $228 $-1 #
edge $-1 $229 13.740216590623653 $230 21.63852593775443 $144 $231 forward 7 unknown #
loop $-1 $-1 $151 $90 #
plane-surface $-1 31.898358258847523 -21.35774660103349 2.7034153246270023 0 -0.5877852598018023 0.80901698891910034 1 0 0 forward_v I I I I #
loop $-1 $-1 $232 $58 #
coedge $-1 $149 $149 $150 $233 reversed $91 $-1 #
coedge $-1 $150 $150 $149 $233 forward $93 $-1 #
coedge $-1 $151 $151 $94 $152 forward $146 $-1 #
edge $-1 $234 -1.3998503963541752e-015 $234 6.2831853071795987 $151 $235 forward 7 unknown #
loop $-1 $-1 $158 $95 #
plane-surface $-1 31.898358258847523 -21.35774660103349 2.7034153246270023 0 -0.5877852598018023 0.80901698891910034 1 0 0 forward_v I I I I #
loop $-1 $-1 $236 $61 #
coedge $-1 $156 $156 $157 $237 reversed $96 $-1 #
coedge $-1 $157 $157 $156 $237 forward $98 $-1 #
coedge $-1 $158 $158 $99 $159 forward $153 $-1 #
edge $-1 $238 -1.3998503963541752e-015 $238 6.2831853071795987 $158 $239 forward 7 unknown #
face $-1 $240 $241 $24 $-1 $242 reversed single #
loop $-1 $-1 $243 $100 #
plane-surface $-1 -41.544236579485457 0 0 1 0 0 0 0 -1 forward_v I I I I #
coedge $-1 $244 $171 $245 $246 forward $101 $-1 #
coedge $-1 $247 $103 $244 $248 forward $65 $-1 #
coedge $-1 $103 $247 $249 $250 forward $65 $-1 #
coedge $-1 $174 $173 $103 $167 reversed $175 $-1 #
edge $-1 $251 -21.35774660103349 $252 21.35774660103349 $166 $253 forward 7 unknown #
coedge $-1 $105 $104 $254 $255 forward $41 $-1 #
coedge $-1 $256 $257 $104 $170 reversed $241 $-1 #
edge $-1 $177 -41.544236579485457 $258 41.544236579485457 $169 $259 forward 7 unknown #
coedge $-1 $163 $260 $105 $172 reversed $101 $-1 #
edge $-1 $261 -41.544236579485457 $176 41.544236579485457 $171 $262 forward 7 unknown #
coedge $-1 $166 $106 $260 $263 forward $175 $-1 #
coedge $-1 $106 $166 $256 $264 reversed $175 $-1 #
loop $-1 $-1 $173 $240 #
vertex $-1 $107 $265 #
vertex $-1 $107 $266 #
straight-curve $-1 41.544236579485457 0 8.4418730766712002 0 1 0 I I #
face $-1 $267 $268 $25 $-1 $269 forward single #
loop $-1 $-1 $270 $108 #
plane-surface $-1 -48.554564608151495 0 6.1576182086732185 1 0 0 0 0 -1 forward_v I I I I #
coedge $-1 $271 $111 $189 $272 reversed $69 $-1 #
coedge $-1 $111 $271 $273 $274 reversed $69 $-1 #
edge $-1 $275 -8.4418730766712002 $191 -3.8733633406752368 $111 $276 forward 7 unknown #
coedge $-1 $113 $112 $277 $278 reversed $44 $-1 #
coedge $-1 $279 $280 $113 $187 forward $281 $-1 #
edge $-1 $190 3.8733633406752368 $282 8.4418730766712002 $186 $283 forward 7 unknown #
coedge $-1 $284 $114 $280 $285 forward $109 $-1 #
coedge $-1 $114 $284 $182 $272 forward $109 $-1 #
vertex $-1 $187 $286 #
vertex $-1 $184 $287 #
straight-curve $-1 -41.544236579485457 0 3.8733633406752368 0 1 0 I I #
face $-1 $-1 $288 $26 $-1 $289 reversed single #
loop $-1 $-1 $122 $116 #
plane-surface $-1 0 0 8.4418730766712002 0 0 1 1 0 0 forward_v I I I I #
coedge $-1 $290 $291 $292 $293 reversed $117 $-1 #
coedge $-1 $294 $119 $121 $203 forward $73 $-1 #
coedge $-1 $119 $294 $290 $295 forward $73 $-1 #
coedge $-1 $292 $122 $119 $200 forward $194 $-1 #
edge $-1 $206 10.021761281881666 $296 21.876596976965857 $199 $297 forward 7 unknown #
coedge $-1 $298 $299 $120 $202 forward $288 $-1 #
edge $-1 $300 -44.812054156834108 $205 -39.073596404789903 $201 $301 forward 7 unknown #
edge $-1 $206 32.952645875852696 $300 42.715493202066995 $121 $302 forward 7 unknown #
coedge $-1 $122 $292 $298 $303 forward $194 $-1 #
vertex $-1 $202 $304 #
vertex $-1 $123 $305 #
straight-curve $-1 25.970940411305428 17.819183346391874 8.4418730766712002 0 -1 0 I I #
coedge $-1 $208 $208 $-1 $306 reversed $126 $-1 #
edge $-1 $307 0 $307 6.2831853071796004 $127 $308 forward 7 unknown #
vertex $-1 $130 $309 #
ellipse-curve $-1 29.358036324186628 17.408591927468098 5.5726442006490959 0 0.5877852598018023 0.80901698891910034 1.5 0 0 1 I I #
coedge $-1 $212 $212 $-1 $310 reversed $133 $-1 #
edge $-1 $311 0 $311 6.2831853071796004 $134 $312 forward 7 unknown #
vertex $-1 $137 $313 #
ellipse-curve $-1 34.438680193508418 17.408591927468098 5.5726442006490959 0 0.5877852598018023 0.80901698891910034 1.5 0 0 1 I I #
face $-1 $-1 $228 $29 $-1 $314 forward single #
loop $-1 $-1 $315 $138 #
plane-surface $-1 0 -21.35774660103349 0 0 1 0 0 0 1 forward_v I I I I #
coedge $-1 $316 $317 $318 $319 reversed $139 $-1 #
coedge $-1 $320 $141 $143 $226 forward $87 $-1 #
coedge $-1 $141 $320 $316 $321 forward $87 $-1 #
coedge $-1 $318 $144 $141 $223 forward $228 $-1 #
edge $-1 $230 -21.876596976965857 $322 -10.021761281881666 $222 $323 forward 7 unknown #
coedge $-1 $324 $325 $142 $225 forward $217 $-1 #
edge $-1 $326 -32.25828552216457 $229 -26.519827770120372 $224 $327 forward 7 unknown #
edge $-1 $230 -9.7628473262142919 $326 0 $143 $328 forward 7 unknown #
coedge $-1 $144 $318 $324 $329 forward $228 $-1 #
loop $-1 $-1 $318 $216 #
vertex $-1 $225 $330 #
vertex $-1 $145 $331 #
straight-curve $-1 37.825776106389618 -35.097963191657144 8.4418730766712002 0 1 0 I I #
coedge $-1 $232 $232 $-1 $332 reversed $148 $-1 #
edge $-1 $333 0 $333 6.2831853071796004 $149 $334 forward 7 unknown #
vertex $-1 $152 $335 #
ellipse-curve $-1 29.358036324186628 -17.408591927468105 5.5726442006490986 0 -0.5877852598018023 0.80901698891910034 1.5 0 0 1 I I #
coedge $-1 $236 $236 $-1 $336 reversed $155 $-1 #
edge $-1 $337 0 $337 6.2831853071796004 $156 $338 forward 7 unknown #
vertex $-1 $159 $339 #
ellipse-curve $-1 34.438680193508418 -17.408591927468105 5.5726442006490986 0 -0.5877852598018023 0.80901698891910034 1.5 0 0 1 I I #
face $-1 $-1 $175 $24 $-1 $340 reversed single #
loop $-1 $-1 $256 $160 #
plane-surface $-1 0 21.35774660103349 0 0 -1 0 0 0 -1 forward_v I I I I #
coedge $-1 $341 $254 $257 $342 forward $161 $-1 #
coedge $-1 $260 $163 $164 $248 reversed $101 $-1 #
coedge $-1 $254 $341 $163 $246 reversed $161 $-1 #
edge $-1 $261 -8.4418730766712002 $343 8.4418730766712002 $245 $344 forward 7 unknown #
coedge $-1 $165 $164 $341 $345 forward $65 $-1 #
edge $-1 $252 -41.544236579485457 $343 41.544236579485457 $244 $346 forward 7 unknown #
coedge $-1 $257 $256 $165 $250 reversed $241 $-1 #
edge $-1 $347 -41.544236579485457 $251 41.544236579485457 $249 $348 forward 7 unknown #
vertex $-1 $167 $349 #
vertex $-1 $263 $350 #
straight-curve $-1 41.544236579485457 0 -8.4418730766712002 0 -1 0 I I #
coedge $-1 $243 $245 $168 $255 reversed $161 $-1 #
edge $-1 $258 -21.35774660103349 $261 21.35774660103349 $254 $351 forward 7 unknown #
coedge $-1 $249 $169 $174 $264 forward $241 $-1 #
coedge $-1 $169 $249 $243 $342 reversed $241 $-1 #
vertex $-1 $170 $352 #
straight-curve $-1 0 21.35774660103349 8.4418730766712002 -1 0 0 I I #
coedge $-1 $171 $244 $173 $263 reversed $101 $-1 #
vertex $-1 $255 $353 #
straight-curve $-1 0 -21.35774660103349 8.4418730766712002 1 0 0 I I #
edge $-1 $176 -8.4418730766712002 $252 8.4418730766712002 $173 $354 forward 7 unknown #
edge $-1 $177 -8.4418730766712002 $251 8.4418730766712002 $174 $355 forward 7 unknown #
point $-1 41.544236579485457 -21.35774660103349 8.4418730766712002 #
point $-1 41.544236579485457 21.35774660103349 8.4418730766712002 #
face $-1 $-1 $281 $25 $-1 $356 reversed single #
loop $-1 $-1 $277 $179 #
plane-surface $-1 0 0 8.4418730766712002 0 0 1 1 0 0 forward_v I I I I #
coedge $-1 $357 $358 $271 $359 forward $180 $-1 #
coedge $-1 $183 $182 $270 $359 reversed $69 $-1 #
edge $-1 $360 -3.5051640143330189 $191 3.5051640143330189 $182 $361 forward 7 unknown #
coedge $-1 $362 $277 $183 $274 forward $268 $-1 #
edge $-1 $275 41.544236579485457 $363 48.554564608151495 $183 $364 forward 7 unknown #
vertex $-1 $274 $365 #
straight-curve $-1 -41.544236579485457 21.35774660103349 0 0 0 -1 I I #
coedge $-1 $273 $366 $185 $278 forward $268 $-1 #
edge $-1 $282 -21.35774660103349 $275 21.35774660103349 $277 $367 forward 7 unknown #
coedge $-1 $368 $186 $366 $369 reversed $281 $-1 #
coedge $-1 $186 $368 $188 $285 reversed $281 $-1 #
loop $-1 $-1 $186 $267 #
vertex $-1 $187 $370 #
straight-curve $-1 -41.544236579485457 -21.35774660103349 0 0 0 1 I I #
coedge $-1 $189 $188 $357 $371 forward $109 $-1 #
edge $-1 $190 -3.5051640143330189 $372 3.5051640143330189 $280 $373 forward 7 unknown #
point $-1 -41.544236579485457 -21.35774660103349 3.8733633406752368 #
point $-1 -41.544236579485457 21.35774660103349 3.8733633406752368 #
loop $-1 $-1 $201 $193 #
plane-surface $-1 0 21.35774660103349 0 0 -1 0 0 0 -1 forward_v I I I I #
coedge $-1 $291 $196 $198 $295 reversed $117 $-1 #
coedge $-1 $196 $290 $374 $375 reversed $117 $-1 #
coedge $-1 $204 $199 $196 $293 forward $194 $-1 #
edge $-1 $296 -4.3597460924891642 $376 3.5385632546416161 $292 $377 forward 7 unknown #
coedge $-1 $198 $197 $299 $378 reversed $73 $-1 #
edge $-1 $379 -42.715493202066995 $296 -32.952645875852696 $290 $380 forward 7 unknown #
vertex $-1 $200 $381 #
straight-curve $-1 15.949179129423761 13.459437253902706 8.4418730766711985 1 0 0 I I #
coedge $-1 $374 $201 $204 $303 reversed $288 $-1 #
coedge $-1 $201 $374 $294 $378 forward $288 $-1 #
vertex $-1 $202 $382 #
straight-curve $-1 25.970940411305428 21.35774660103349 47.515469481461103 0 0 1 I I #
straight-curve $-1 25.970940411305428 -13.199813089497049 27.810952593966064 0 0.80901698891910034 -0.5877852598018023 I I #
edge $-1 $376 -37.825776106389618 $205 -25.970940411305428 $298 $383 forward 7 unknown #
point $-1 25.970940411305428 21.35774660103349 8.4418730766712002 #
point $-1 25.970940411305428 13.45943725390271 8.4418730766712002 #
edge $-1 $384 1 $384 0 $208 $-1 forward 7 unknown #
vertex $-1 $209 $385 #
ellipse-curve $-1 29.358036324186628 15.28483715960853 2.6495465917099374 0 0.5877852598018023 0.80901698891910034 1.5 0 0 1 I I #
point $-1 30.858036324186628 17.408591927468112 5.5726442006491181 #
edge $-1 $386 1 $386 0 $212 $-1 forward 7 unknown #
vertex $-1 $213 $387 #
ellipse-curve $-1 34.438680193508418 15.28483715960853 2.6495465917099374 0 0.5877852598018023 0.80901698891910034 1.5 0 0 1 I I #
point $-1 35.938680193508418 17.408591927468112 5.5726442006491181 #
plane-surface $-1 0 0 8.4418730766712002 0 0 1 1 0 0 forward_v I I I I #
coedge $-1 $325 $324 $317 $388 forward $217 $-1 #
coedge $-1 $317 $219 $221 $321 reversed $139 $-1 #
coedge $-1 $219 $316 $315 $388 reversed $139 $-1 #
coedge $-1 $227 $222 $219 $319 forward $228 $-1 #
edge $-1 $322 -21.63852593775443 $389 -13.740216590623653 $318 $390 forward 7 unknown #
coedge $-1 $221 $220 $325 $391 reversed $87 $-1 #
edge $-1 $392 0 $322 9.7628473262142919 $316 $393 forward 7 unknown #
vertex $-1 $223 $394 #
straight-curve $-1 15.949179129423761 -13.459437253902713 8.4418730766712002 -1 0 0 I I #
coedge $-1 $315 $224 $227 $329 reversed $217 $-1 #
coedge $-1 $224 $315 $320 $391 forward $217 $-1 #
vertex $-1 $225 $395 #
straight-curve $-1 37.825776106389618 -21.35774660103349 34.961700846791572 0 0 1 I I #
straight-curve $-1 37.825776106389618 -21.35774660103349 2.7034153246270023 0 -0.80901698891910034 -0.5877852598018023 I I #
edge $-1 $389 25.970940411305428 $229 37.825776106389618 $324 $396 forward 7 unknown #
point $-1 37.825776106389618 -21.35774660103349 8.4418730766712002 #
point $-1 37.825776106389618 -13.459437253902713 8.4418730766712002 #
edge $-1 $397 1 $397 0 $232 $-1 forward 7 unknown #
vertex $-1 $233 $398 #
ellipse-curve $-1 29.358036324186628 -15.284837159608536 2.6495465917099339 0 -0.5877852598018023 0.80901698891910034 1.5 0 0 1 I I #
point $-1 30.858036324186628 -17.40859192746812 5.5726442006491146 #
edge $-1 $399 1 $399 0 $236 $-1 forward 7 unknown #
vertex $-1 $237 $400 #
ellipse-curve $-1 34.438680193508418 -15.284837159608536 2.6495465917099339 0 -0.5877852598018023 0.80901698891910034 1.5 0 0 1 I I #
point $-1 35.938680193508418 -17.40859192746812 5.5726442006491146 #
plane-surface $-1 41.544236579485457 0 0 -1 0 0 0 0 1 forward_v I I I I #
coedge $-1 $245 $243 $247 $345 reversed $161 $-1 #
edge $-1 $258 -8.4418730766712002 $347 8.4418730766712002 $257 $401 forward 7 unknown #
vertex $-1 $345 $402 #
straight-curve $-1 -41.544236579485457 -21.35774660103349 0 0 0 -1 I I #
edge $-1 $343 -21.35774660103349 $347 21.35774660103349 $341 $403 forward 7 unknown #
straight-curve $-1 0 -21.35774660103349 -8.4418730766712002 -1 0 0 I I #
vertex $-1 $250 $404 #
straight-curve $-1 0 21.35774660103349 -8.4418730766712002 1 0 0 I I #
point $-1 41.544236579485457 21.35774660103349 -8.4418730766712002 #
point $-1 41.544236579485457 -21.35774660103349 -8.4418730766712002 #
straight-curve $-1 -41.544236579485457 0 8.4418730766712002 0 -1 0 I I #
point $-1 -41.544236579485457 21.35774660103349 8.4418730766712002 #
point $-1 -41.544236579485457 -21.35774660103349 8.4418730766712002 #
straight-curve $-1 41.544236579485457 -21.35774660103349 0 0 0 -1 I I #
straight-curve $-1 41.544236579485457 21.35774660103349 0 0 0 -1 I I #
plane-surface $-1 0 -21.35774660103349 0 0 1 0 0 0 1 forward_v I I I I #
coedge $-1 $405 $270 $284 $371 reversed $180 $-1 #
coedge $-1 $270 $405 $362 $406 reversed $180 $-1 #
edge $-1 $363 -2.2842548679979817 $360 2.2842548679979817 $271 $407 forward 7 unknown #
vertex $-1 $272 $408 #
straight-curve $-1 -45.049400593818476 21.35774660103349 3.8733633406752368 1 0 0 I I #
coedge $-1 $366 $273 $358 $406 forward $268 $-1 #
vertex $-1 $274 $409 #
straight-curve $-1 0 21.35774660103349 8.4418730766712002 -1 0 0 I I #
point $-1 -41.544236579485457 21.35774660103349 8.4418730766712002 #
coedge $-1 $277 $362 $279 $369 forward $268 $-1 #
straight-curve $-1 -41.544236579485457 0 8.4418730766712002 0 1 0 I I #
coedge $-1 $280 $279 $405 $410 forward $281 $-1 #
edge $-1 $411 -48.554564608151495 $282 -41.544236579485457 $279 $412 forward 7 unknown #
point $-1 -41.544236579485457 -21.35774660103349 8.4418730766712002 #
edge $-1 $372 -21.35774660103349 $360 21.35774660103349 $357 $413 forward 7 unknown #
vertex $-1 $371 $414 #
straight-curve $-1 -45.049400593818476 -21.35774660103349 3.8733633406752368 -1 0 0 I I #
coedge $-1 $299 $298 $291 $375 forward $288 $-1 #
edge $-1 $376 39.073596404789903 $379 44.812054156834108 $374 $415 forward 7 unknown #
vertex $-1 $303 $416 #
straight-curve $-1 37.825776106389618 17.819183346391874 8.4418730766712002 0 1 0 I I #
edge $-1 $379 -21.876596976965857 $300 -10.021761281881666 $299 $417 forward 7 unknown #
vertex $-1 $378 $418 #
straight-curve $-1 37.825776106389618 -13.199813089497049 27.810952593966064 0 -0.80901698891910034 0.5877852598018023 I I #
point $-1 37.825776106389618 13.45943725390271 8.4418730766712002 #
point $-1 25.970940411305428 21.35774660103349 2.7034153246269952 #
straight-curve $-1 0 21.35774660103349 8.4418730766712002 -1 0 0 I I #
vertex $-1 $306 $419 #
point $-1 30.858036324186628 15.28483715960853 2.6495465917099374 #
vertex $-1 $310 $420 #
point $-1 35.938680193508418 15.28483715960853 2.6495465917099374 #
edge $-1 $389 26.519827770120372 $392 32.25828552216457 $315 $421 forward 7 unknown #
vertex $-1 $329 $422 #
straight-curve $-1 25.970940411305428 -35.097963191657144 8.4418730766712002 0 -1 0 I I #
edge $-1 $392 10.021761281881666 $326 21.876596976965857 $325 $423 forward 7 unknown #
vertex $-1 $391 $424 #
straight-curve $-1 25.970940411305428 -21.35774660103349 2.7034153246270023 0 0.80901698891910034 0.5877852598018023 I I #
point $-1 25.970940411305428 -13.459437253902713 8.4418730766712002 #
point $-1 37.825776106389618 -21.35774660103349 2.7034153246270023 #
straight-curve $-1 0 -21.35774660103349 8.4418730766712002 1 0 0 I I #
vertex $-1 $332 $425 #
point $-1 30.858036324186628 -15.284837159608536 2.6495465917099339 #
vertex $-1 $336 $426 #
point $-1 35.938680193508418 -15.284837159608536 2.6495465917099339 #
straight-curve $-1 -41.544236579485457 21.35774660103349 0 0 0 -1 I I #
point $-1 -41.544236579485457 -21.35774660103349 -8.4418730766712002 #
straight-curve $-1 -41.544236579485457 0 -8.4418730766712002 0 1 0 I I #
point $-1 -41.544236579485457 21.35774660103349 -8.4418730766712002 #
coedge $-1 $358 $357 $368 $410 reversed $180 $-1 #
edge $-1 $363 -21.35774660103349 $411 21.35774660103349 $358 $427 forward 7 unknown #
straight-curve $-1 -48.554564608151495 21.35774660103349 6.1576182086732185 0 0 -1 I I #
point $-1 -48.554564608151495 21.35774660103349 3.8733633406752368 #
point $-1 -48.554564608151495 21.35774660103349 8.4418730766712002 #
edge $-1 $411 -2.2842548679979817 $372 2.2842548679979817 $405 $428 forward 7 unknown #
vertex $-1 $406 $429 #
straight-curve $-1 0 -21.35774660103349 8.4418730766712002 1 0 0 I I #
straight-curve $-1 -48.554564608151495 0 3.8733633406752368 0 1 0 I I #
point $-1 -48.554564608151495 -21.35774660103349 3.8733633406752368 #
straight-curve $-1 37.825776106389618 21.35774660103349 47.515469481461103 0 0 -1 I I #
point $-1 37.825776106389618 21.35774660103349 8.4418730766712002 #
straight-curve $-1 15.949179129423761 21.35774660103349 2.7034153246269952 -1 0 0 I I #
point $-1 37.825776106389618 21.35774660103349 2.7034153246269952 #
point $-1 29.358036324186628 14.403159269905826 1.4360211083312868 #
point $-1 34.438680193508418 14.403159269905826 1.4360211083312868 #
straight-curve $-1 25.970940411305428 -21.35774660103349 34.961700846791572 0 0 -1 I I #
point $-1 25.970940411305428 -21.35774660103349 8.4418730766712002 #
straight-curve $-1 15.949179129423761 -21.35774660103349 2.7034153246270027 1 0 0 I I #
point $-1 25.970940411305428 -21.35774660103349 2.7034153246270023 #
point $-1 29.358036324186628 -14.403159269905832 1.4360211083312833 #
point $-1 34.438680193508418 -14.403159269905832 1.4360211083312833 #
straight-curve $-1 -48.554564608151495 0 8.4418730766712002 0 -1 0 I I #
straight-curve $-1 -48.554564608151495 -21.35774660103349 6.1576182086732185 0 0 -1 I I #
point $-1 -48.554564608151495 -21.35774660103349 8.4418730766712002 #
End-of-ACIS-data 