500 0 8 0           
7 Unknown 11 ACIS 5.0 NT 24 Thu Mar 25 15:17:06 1999 
-1 9.9999999999999995e-007 1e-010 
body $-1 $8 $-1 $9 #
body $-1 $10 $-1 $11 #
body $-1 $12 $-1 $13 #
body $-1 $14 $-1 $15 #
body $-1 $16 $-1 $17 #
body $-1 $18 $-1 $19 #
body $-1 $20 $-1 $21 #
body $-1 $22 $-1 $23 #
lump $-1 $-1 $24 $0 #
transform $-1 1 0 0 0 1 0 0 0 1 43.11532944730979 22.492288537443894 8.3200943298028491 1 rotate no_reflect no_shear #
lump $-1 $-1 $25 $1 #
transform $-1 1 0 0 0 1 0 0 0 1 43.11532944730979 22.492288537443894 8.3200943298028491 1 rotate no_reflect no_shear #
lump $-1 $-1 $26 $2 #
transform $-1 1 0 0 0 1 0 0 0 1 43.11532944730979 22.492288537443894 8.3200943298028491 1 rotate no_reflect no_shear #
lump $-1 $-1 $27 $3 #
transform $-1 1 0 0 0 1 0 0 0 1 43.11532944730979 22.492288537443894 8.3200943298028491 1 rotate no_reflect no_shear #
lump $-1 $-1 $28 $4 #
transform $-1 1 0 0 0 1 0 0 0 1 43.11532944730979 22.492288537443894 8.3200943298028491 1 rotate no_reflect no_shear #
lump $-1 $-1 $29 $5 #
transform $-1 1 0 0 0 1 0 0 0 1 43.11532944730979 22.492288537443894 8.3200943298028491 1 rotate no_reflect no_shear #
lump $-1 $-1 $30 $6 #
transform $-1 1 0 0 0 1 0 0 0 1 43.11532944730979 22.492288537443894 8.3200943298028491 1 rotate no_reflect no_shear #
lump $-1 $-1 $31 $7 #
transform $-1 1 0 0 0 1 0 0 0 1 43.11532944730979 22.492288537443894 8.3200943298028491 1 rotate no_reflect no_shear #
shell $-1 $-1 $-1 $32 $-1 $8 #
shell $-1 $-1 $-1 $33 $-1 $10 #
shell $-1 $-1 $-1 $34 $-1 $12 #
shell $-1 $-1 $-1 $35 $-1 $14 #
shell $-1 $-1 $-1 $36 $-1 $16 #
shell $-1 $-1 $-1 $37 $-1 $18 #
shell $-1 $-1 $-1 $38 $-1 $20 #
shell $-1 $-1 $-1 $39 $-1 $22 #
face $-1 $40 $41 $24 $-1 $42 forward single #
face $-1 $43 $44 $25 $-1 $45 reversed single #
face $-1 $46 $47 $26 $-1 $48 reversed single #
face $-1 $49 $50 $27 $-1 $51 forward single #
face $-1 $52 $53 $28 $-1 $54 forward single #
face $-1 $55 $56 $29 $-1 $57 reversed single #
face $-1 $58 $59 $30 $-1 $60 forward single #
face $-1 $61 $62 $31 $-1 $63 forward single #
face $-1 $64 $65 $24 $-1 $66 reversed single #
loop $-1 $-1 $67 $32 #
plane-surface $-1 0 0 8.3200943298028491 0 0 1 1 0 0 forward_v I I I I #
face $-1 $68 $69 $25 $-1 $70 reversed single #
loop $-1 $-1 $71 $33 #
plane-surface $-1 -33.185657679135751 -19.342777223026374 0 1 0 0 0 0 -1 forward_v I I I I #
face $-1 $72 $73 $26 $-1 $74 reversed single #
loop $-1 $-1 $75 $34 #
plane-surface $-1 38.859387176114808 17.979344539874113 123.51104433752394 0 -1 0 -0.68199836817093118 0 -0.7313536940579346 forward_v I I I I #
face $-1 $76 $77 $27 $-1 $78 forward single #
loop $-1 $79 $80 $35 #
cone-surface $-1 38.207027995889348 10.212466223324245 3.5577503873169523 -0.68199836817093118 0 -0.7313536940579346 1.0970305410869019 0 -1.0229975522563968 1 I I 0 1 1.5 forward I I I I #
face $-1 $81 $82 $28 $-1 $83 forward single #
loop $-1 $84 $85 $36 #
cone-surface $-1 38.207027995889348 14.872593213254166 3.5577503873169523 -0.68199836817093118 0 -0.7313536940579346 1.0970305410869019 0 -1.0229975522563968 1 I I 0 1 1.5 forward I I I I #
face $-1 $86 $87 $29 $-1 $88 reversed single #
loop $-1 $-1 $89 $37 #
plane-surface $-1 -105.14447511008296 -11.716350174120322 63.571026554709242 0 1 0 -0.71933980857756763 0 0.69465836192734942 forward_v I I I I #
face $-1 $90 $91 $30 $-1 $92 forward single #
loop $-1 $93 $94 $38 #
cone-surface $-1 -40.2103243906041 -9.325285504892884 5.3579562838655894 0.71933980857756763 0 -0.69465836192734942 0.34732918096367471 0 0.35966990428878381 1 I I 0 1 0.5 forward I I I I #
face $-1 $95 $96 $31 $-1 $97 forward single #
loop $-1 $98 $99 $39 #
cone-surface $-1 -40.2103243906041 -5.7386885010517297 5.3579562838655894 0.71933980857756763 0 -0.69465836192734942 0.34732918096367471 0 0.35966990428878381 1 I I 0 1 0.5 forward I I I I #
face $-1 $100 $101 $24 $-1 $102 reversed single #
loop $-1 $-1 $103 $40 #
plane-surface $-1 0 0 -8.3200943298028491 0 0 1 1 0 0 forward_v I I I I #
coedge $-1 $104 $105 $106 $107 forward $41 $-1 #
face $-1 $108 $109 $25 $-1 $110 reversed single #
loop $-1 $-1 $111 $43 #
plane-surface $-1 -30.889512746277262 -16.193265908608854 0 0 -1 0 0 0 -1 forward_v I I I I #
coedge $-1 $112 $113 $114 $115 forward $44 $-1 #
face $-1 $116 $117 $26 $-1 $118 reversed single #
loop $-1 $-1 $119 $46 #
plane-surface $-1 -19.949781476319941 12.542529718289206 60.445933413894217 0.68199836817093118 0 0.7313536940579346 0.7313536940579346 0 -0.68199836817093118 forward_v I I I I #
coedge $-1 $120 $121 $122 $123 reversed $47 $-1 #
face $-1 $-1 $124 $27 $-1 $125 forward single #
loop $-1 $126 $127 $49 #
cone-surface $-1 36.370724442624152 10.212466223324245 1.5885559584592954 -0.68199836817093118 0 -0.7313536940579346 0.54851527054345095 0 -0.51149877612819838 1 I I -0.70710678118654757 0.70710678118654757 0.75 forward I I I I #
loop $-1 $-1 $128 $35 #
coedge $-1 $80 $80 $129 $130 reversed $50 $-1 #
face $-1 $-1 $131 $28 $-1 $132 forward single #
loop $-1 $133 $134 $52 #
cone-surface $-1 36.370724442624152 14.872593213254166 1.5885559584592954 -0.68199836817093118 0 -0.7313536940579346 0.54851527054345095 0 -0.51149877612819838 1 I I -0.70710678118654757 0.70710678118654757 0.75 forward I I I I #
loop $-1 $-1 $135 $36 #
coedge $-1 $85 $85 $136 $137 reversed $53 $-1 #
face $-1 $138 $139 $29 $-1 $140 reversed single #
loop $-1 $-1 $141 $55 #
plane-surface $-1 -43.115329447309783 -7.5319870029723077 3.6701782990567793 -0.71933980857756763 0 0.69465836192734942 0.69465836192734942 0 0.71933980857756763 forward_v I I I I #
coedge $-1 $142 $143 $144 $145 reversed $56 $-1 #
face $-1 $-1 $146 $30 $-1 $147 forward single #
loop $-1 $148 $149 $58 #
cone-surface $-1 -39.370670185807491 -9.325285504892884 4.5471116628195265 0.71933980857756763 0 -0.69465836192734942 0.17366459048183736 0 0.17983495214439191 1 I I -0.70710678118654624 0.70710678118654879 0.25 forward I I I I #
loop $-1 $-1 $150 $38 #
coedge $-1 $94 $94 $151 $152 reversed $59 $-1 #
face $-1 $-1 $153 $31 $-1 $154 forward single #
loop $-1 $155 $156 $61 #
cone-surface $-1 -39.370670185807491 -5.7386885010517297 4.5471116628195265 0.71933980857756763 0 -0.69465836192734942 0.17366459048183736 0 0.17983495214439191 1 I I -0.70710678118654624 0.70710678118654879 0.25 forward I I I I #
loop $-1 $-1 $157 $39 #
coedge $-1 $99 $99 $158 $159 reversed $62 $-1 #
face $-1 $160 $161 $24 $-1 $162 reversed single #
loop $-1 $-1 $163 $64 #
plane-surface $-1 0 -22.492288537443894 0 0 1 0 0 0 1 forward_v I I I I #
coedge $-1 $164 $165 $166 $167 forward $65 $-1 #
coedge $-1 $168 $67 $169 $170 forward $41 $-1 #
coedge $-1 $67 $168 $171 $172 forward $41 $-1 #
coedge $-1 $173 $174 $67 $107 reversed $175 $-1 #
edge $-1 $176 -22.492288537443894 $177 22.492288537443894 $106 $178 forward 7 unknown #
face $-1 $179 $180 $25 $-1 $181 forward single #
loop $-1 $-1 $182 $68 #
plane-surface $-1 -28.593367813418769 -19.342777223026374 0 -1 0 0 0 0 1 forward_v I I I I #
coedge $-1 $183 $184 $185 $186 forward $69 $-1 #
coedge $-1 $187 $71 $188 $189 reversed $44 $-1 #
coedge $-1 $71 $187 $190 $191 reversed $44 $-1 #
coedge $-1 $184 $183 $71 $115 reversed $69 $-1 #
edge $-1 $192 -8.3200943298028491 $193 8.3200943298028491 $114 $194 forward 7 unknown #
face $-1 $195 $196 $26 $-1 $197 reversed single #
loop $-1 $-1 $198 $72 #
plane-surface $-1 38.859387176114808 7.1057148967042991 123.51104433752394 0 1 0 0.68199836817093118 0 0.7313536940579346 forward_v I I I I #
coedge $-1 $199 $200 $201 $202 reversed $73 $-1 #
coedge $-1 $121 $75 $203 $204 reversed $47 $-1 #
coedge $-1 $75 $120 $199 $205 reversed $47 $-1 #
coedge $-1 $201 $206 $75 $123 forward $207 $-1 #
edge $-1 $208 -23.685635859252386 $209 -16.518642510685474 $122 $210 forward 7 unknown #
loop $-1 $-1 $129 $76 #
plane-surface $-1 -19.949781476319941 12.542529718289206 60.445933413894217 0.68199836817093118 0 0.7313536940579346 0.7313536940579346 0 -0.68199836817093118 forward_v I I I I #
loop $-1 $-1 $211 $49 #
coedge $-1 $127 $127 $128 $212 reversed $77 $-1 #
coedge $-1 $128 $128 $127 $212 forward $79 $-1 #
coedge $-1 $129 $129 $80 $130 forward $124 $-1 #
edge $-1 $213 0 $213 6.2831853071796004 $129 $214 forward 7 unknown #
loop $-1 $-1 $136 $81 #
plane-surface $-1 -19.949781476319941 12.542529718289206 60.445933413894217 0.68199836817093118 0 0.7313536940579346 0.7313536940579346 0 -0.68199836817093118 forward_v I I I I #
loop $-1 $-1 $215 $52 #
coedge $-1 $134 $134 $135 $216 reversed $82 $-1 #
coedge $-1 $135 $135 $134 $216 forward $84 $-1 #
coedge $-1 $136 $136 $85 $137 forward $131 $-1 #
edge $-1 $217 0 $217 6.2831853071796004 $136 $218 forward 7 unknown #
face $-1 $219 $220 $29 $-1 $221 reversed single #
loop $-1 $-1 $222 $86 #
plane-surface $-1 -105.14447511008296 -3.3476238318242943 63.571026554709242 0 -1 0 0.71933980857756763 0 -0.69465836192734942 forward_v I I I I #
coedge $-1 $223 $224 $225 $226 reversed $87 $-1 #
coedge $-1 $143 $89 $227 $228 reversed $56 $-1 #
coedge $-1 $89 $142 $223 $229 reversed $56 $-1 #
coedge $-1 $225 $230 $89 $145 forward $231 $-1 #
edge $-1 $232 9.4569081077316923 $233 13.947279715838633 $144 $234 forward 7 unknown #
loop $-1 $-1 $151 $90 #
plane-surface $-1 -43.115329447309783 -7.5319870029723077 3.6701782990567793 -0.71933980857756763 0 0.69465836192734942 0.69465836192734942 0 0.71933980857756763 forward_v I I I I #
loop $-1 $-1 $235 $58 #
coedge $-1 $149 $149 $150 $236 reversed $91 $-1 #
coedge $-1 $150 $150 $149 $236 forward $93 $-1 #
coedge $-1 $151 $151 $94 $152 forward $146 $-1 #
edge $-1 $237 0 $237 6.2831853071796004 $151 $238 forward 7 unknown #
loop $-1 $-1 $158 $95 #
plane-surface $-1 -43.115329447309783 -7.5319870029723077 3.6701782990567793 -0.71933980857756763 0 0.69465836192734942 0.69465836192734942 0 0.71933980857756763 forward_v I I I I #
loop $-1 $-1 $239 $61 #
coedge $-1 $156 $156 $157 $240 reversed $96 $-1 #
coedge $-1 $157 $157 $156 $240 forward $98 $-1 #
coedge $-1 $158 $158 $99 $159 forward $153 $-1 #
edge $-1 $241 0 $241 6.2831853071796004 $158 $242 forward 7 unknown #
face $-1 $243 $244 $24 $-1 $245 reversed single #
loop $-1 $-1 $246 $100 #
plane-surface $-1 -43.11532944730979 0 0 1 0 0 0 0 -1 forward_v I I I I #
coedge $-1 $247 $171 $248 $249 forward $101 $-1 #
coedge $-1 $250 $103 $247 $251 forward $65 $-1 #
coedge $-1 $103 $250 $252 $253 forward $65 $-1 #
coedge $-1 $174 $173 $103 $167 reversed $175 $-1 #
edge $-1 $254 -22.492288537443894 $255 22.492288537443894 $166 $256 forward 7 unknown #
coedge $-1 $105 $104 $257 $258 forward $41 $-1 #
coedge $-1 $259 $260 $104 $170 reversed $244 $-1 #
edge $-1 $177 -43.11532944730979 $261 43.11532944730979 $169 $262 forward 7 unknown #
coedge $-1 $163 $263 $105 $172 reversed $101 $-1 #
edge $-1 $264 -43.11532944730979 $176 43.11532944730979 $171 $265 forward 7 unknown #
coedge $-1 $166 $106 $263 $266 forward $175 $-1 #
coedge $-1 $106 $166 $259 $267 reversed $175 $-1 #
loop $-1 $-1 $173 $243 #
vertex $-1 $107 $268 #
vertex $-1 $107 $269 #
straight-curve $-1 43.11532944730979 0 8.3200943298028491 0 1 0 I I #
face $-1 $270 $271 $25 $-1 $272 reversed single #
loop $-1 $-1 $273 $108 #
plane-surface $-1 0 0 8.3200943298028491 0 0 1 1 0 0 forward_v I I I I #
coedge $-1 $274 $275 $276 $277 reversed $109 $-1 #
coedge $-1 $114 $111 $278 $279 reversed $69 $-1 #
coedge $-1 $111 $114 $280 $281 reversed $69 $-1 #
coedge $-1 $275 $274 $111 $186 reversed $109 $-1 #
edge $-1 $282 -8.3200943298028491 $283 8.3200943298028491 $185 $284 forward 7 unknown #
coedge $-1 $113 $112 $285 $286 reversed $44 $-1 #
coedge $-1 $278 $287 $112 $189 forward $271 $-1 #
edge $-1 $288 -12.820899925930707 $193 -6.5218772970956671 $188 $289 forward 7 unknown #
coedge $-1 $290 $280 $113 $191 forward $180 $-1 #
edge $-1 $192 6.5218772970956671 $291 12.820899925930707 $190 $292 forward 7 unknown #
vertex $-1 $191 $293 #
vertex $-1 $189 $294 #
straight-curve $-1 -33.185657679135751 -16.193265908608854 0 0 0 -1 I I #
face $-1 $-1 $207 $26 $-1 $295 forward single #
loop $-1 $-1 $296 $116 #
plane-surface $-1 43.11532944730979 0 0 -1 0 0 0 0 1 forward_v I I I I #
coedge $-1 $297 $298 $299 $300 reversed $117 $-1 #
coedge $-1 $301 $119 $121 $205 forward $73 $-1 #
coedge $-1 $119 $301 $297 $302 forward $73 $-1 #
coedge $-1 $299 $122 $119 $202 forward $207 $-1 #
edge $-1 $209 -11.70807968072951 $303 -0.83445003755969616 $201 $304 forward 7 unknown #
coedge $-1 $305 $306 $120 $204 forward $196 $-1 #
edge $-1 $307 -60.11875740730251 $208 -53.435427838959122 $203 $308 forward 7 unknown #
edge $-1 $209 76.431031974297809 $307 86.230658894619609 $121 $309 forward 7 unknown #
coedge $-1 $122 $299 $305 $310 forward $207 $-1 #
loop $-1 $-1 $299 $195 #
vertex $-1 $204 $311 #
vertex $-1 $123 $312 #
straight-curve $-1 19.429693588057404 17.979344539874113 8.3200943298028491 -1 0 0 I I #
coedge $-1 $211 $211 $-1 $313 reversed $126 $-1 #
edge $-1 $314 0 $314 6.2831853071796004 $127 $315 forward 7 unknown #
vertex $-1 $130 $316 #
ellipse-curve $-1 39.531832773026338 10.212466223324245 4.9784295456311547 0.68199836817093118 0 0.7313536940579346 1.0970305410869019 0 -1.0229975522563968 1 I I #
coedge $-1 $215 $215 $-1 $317 reversed $133 $-1 #
edge $-1 $318 0 $318 6.2831853071796004 $134 $319 forward 7 unknown #
vertex $-1 $137 $320 #
ellipse-curve $-1 39.531832773026338 14.872593213254166 4.9784295456311547 0.68199836817093118 0 0.7313536940579346 1.0970305410869019 0 -1.0229975522563968 1 I I #
face $-1 $-1 $231 $29 $-1 $321 forward single #
loop $-1 $-1 $322 $138 #
plane-surface $-1 -43.11532944730979 0 0 1 0 0 0 0 -1 forward_v I I I I #
coedge $-1 $323 $324 $325 $326 reversed $139 $-1 #
coedge $-1 $327 $141 $143 $229 forward $87 $-1 #
coedge $-1 $141 $327 $323 $328 forward $87 $-1 #
coedge $-1 $325 $144 $141 $226 forward $231 $-1 #
edge $-1 $233 -7.9503566726341681 $329 0.41836966966185951 $225 $330 forward 7 unknown #
coedge $-1 $331 $332 $142 $228 forward $220 $-1 #
edge $-1 $333 -28.115334978297849 $232 -23.465418947551772 $227 $334 forward 7 unknown #
edge $-1 $233 -6.4641438931912809 $333 1.0366512331508311e-014 $143 $335 forward 7 unknown #
coedge $-1 $144 $325 $331 $336 forward $231 $-1 #
loop $-1 $-1 $325 $219 #
vertex $-1 $228 $337 #
vertex $-1 $145 $338 #
straight-curve $-1 -52.572237555041482 -11.716350174120322 8.3200943298028491 1 0 0 I I #
coedge $-1 $235 $235 $-1 $339 reversed $148 $-1 #
edge $-1 $340 0 $340 6.2831853071796004 $149 $341 forward 7 unknown #
vertex $-1 $152 $342 #
ellipse-curve $-1 -40.87014364325632 -9.325285504892884 5.9951363144298124 -0.71933980857756763 0 0.69465836192734942 0.34732918096367471 0 0.35966990428878381 1 I I #
coedge $-1 $239 $239 $-1 $343 reversed $155 $-1 #
edge $-1 $344 0 $344 6.2831853071796004 $156 $345 forward 7 unknown #
vertex $-1 $159 $346 #
ellipse-curve $-1 -40.87014364325632 -5.7386885010517297 5.9951363144298124 -0.71933980857756763 0 0.69465836192734942 0.34732918096367471 0 0.35966990428878381 1 I I #
face $-1 $-1 $175 $24 $-1 $347 reversed single #
loop $-1 $-1 $259 $160 #
plane-surface $-1 0 22.492288537443894 0 0 -1 0 0 0 -1 forward_v I I I I #
coedge $-1 $348 $257 $260 $349 forward $161 $-1 #
coedge $-1 $263 $163 $164 $251 reversed $101 $-1 #
coedge $-1 $257 $348 $163 $249 reversed $161 $-1 #
edge $-1 $264 -8.3200943298028491 $350 8.3200943298028491 $248 $351 forward 7 unknown #
coedge $-1 $165 $164 $348 $352 forward $65 $-1 #
edge $-1 $255 -43.11532944730979 $350 43.11532944730979 $247 $353 forward 7 unknown #
coedge $-1 $260 $259 $165 $253 reversed $244 $-1 #
edge $-1 $354 -43.11532944730979 $254 43.11532944730979 $252 $355 forward 7 unknown #
vertex $-1 $167 $356 #
vertex $-1 $266 $357 #
straight-curve $-1 43.11532944730979 0 -8.3200943298028491 0 -1 0 I I #
coedge $-1 $246 $248 $168 $258 reversed $161 $-1 #
edge $-1 $261 -22.492288537443894 $264 22.492288537443894 $257 $358 forward 7 unknown #
coedge $-1 $252 $169 $174 $267 forward $244 $-1 #
coedge $-1 $169 $252 $246 $349 reversed $244 $-1 #
vertex $-1 $170 $359 #
straight-curve $-1 0 22.492288537443894 8.3200943298028491 -1 0 0 I I #
coedge $-1 $171 $247 $173 $266 reversed $101 $-1 #
vertex $-1 $258 $360 #
straight-curve $-1 0 -22.492288537443894 8.3200943298028491 1 0 0 I I #
edge $-1 $176 -8.3200943298028491 $255 8.3200943298028491 $173 $361 forward 7 unknown #
edge $-1 $177 -8.3200943298028491 $254 8.3200943298028491 $174 $362 forward 7 unknown #
point $-1 43.11532944730979 -22.492288537443894 8.3200943298028491 #
point $-1 43.11532944730979 22.492288537443894 8.3200943298028491 #
face $-1 $-1 $363 $25 $-1 $364 reversed single #
loop $-1 $-1 $365 $179 #
plane-surface $-1 0 0 -8.3200943298028491 0 0 1 1 0 0 forward_v I I I I #
coedge $-1 $280 $290 $275 $366 forward $180 $-1 #
coedge $-1 $185 $182 $365 $367 reversed $109 $-1 #
coedge $-1 $182 $185 $273 $366 reversed $109 $-1 #
coedge $-1 $368 $369 $182 $277 forward $363 $-1 #
edge $-1 $370 -8.3200943298028491 $371 8.3200943298028491 $276 $372 forward 7 unknown #
coedge $-1 $365 $188 $183 $279 forward $271 $-1 #
edge $-1 $193 -17.74090130599712 $283 -13.148611440280138 $278 $373 forward 7 unknown #
coedge $-1 $190 $273 $184 $281 forward $180 $-1 #
edge $-1 $282 13.148611440280138 $192 17.74090130599712 $280 $374 forward 7 unknown #
vertex $-1 $281 $375 #
vertex $-1 $279 $376 #
straight-curve $-1 -28.593367813418769 -16.193265908608854 0 0 0 -1 I I #
coedge $-1 $369 $368 $187 $286 forward $363 $-1 #
edge $-1 $291 -8.3200943298028491 $288 8.3200943298028491 $285 $377 forward 7 unknown #
coedge $-1 $188 $365 $369 $378 forward $271 $-1 #
vertex $-1 $189 $379 #
straight-curve $-1 -33.185657679135751 -9.6713886115131871 -8.3200943298028491 0 1 0 I I #
coedge $-1 $273 $190 $368 $380 forward $180 $-1 #
vertex $-1 $380 $381 #
straight-curve $-1 -33.185657679135751 -9.6713886115131871 8.3200943298028491 0 -1 0 I I #
point $-1 -33.185657679135751 -16.193265908608854 8.3200943298028491 #
point $-1 -33.185657679135751 -16.193265908608854 -8.3200943298028491 #
plane-surface $-1 0 0 8.3200943298028491 0 0 1 1 0 0 forward_v I I I I #
coedge $-1 $306 $305 $298 $382 forward $196 $-1 #
coedge $-1 $298 $198 $200 $302 reversed $117 $-1 #
coedge $-1 $198 $297 $296 $382 reversed $117 $-1 #
coedge $-1 $206 $201 $198 $300 forward $207 $-1 #
edge $-1 $303 16.518642510685474 $383 23.685635859252386 $299 $384 forward 7 unknown #
coedge $-1 $200 $199 $306 $385 reversed $73 $-1 #
edge $-1 $386 -86.230658894619609 $303 -76.431031974297809 $297 $387 forward 7 unknown #
vertex $-1 $202 $388 #
straight-curve $-1 35.948336098742871 6.271264859144603 8.3200943298028491 0 -1 0 I I #
coedge $-1 $296 $203 $206 $310 reversed $196 $-1 #
coedge $-1 $203 $296 $301 $385 forward $196 $-1 #
vertex $-1 $204 $389 #
straight-curve $-1 43.11532944730979 17.979344539874113 61.755522168761971 0 0 1 I I #
straight-curve $-1 -19.949781476319941 17.979344539874113 60.445933413894217 0.7313536940579346 0 -0.68199836817093118 I I #
edge $-1 $383 7.1057148967042991 $208 17.979344539874113 $305 $390 forward 7 unknown #
point $-1 43.11532944730979 17.979344539874113 8.3200943298028491 #
point $-1 35.948336098742878 17.979344539874113 8.3200943298028491 #
edge $-1 $391 1 $391 0 $211 $-1 forward 7 unknown #
vertex $-1 $212 $392 #
ellipse-curve $-1 36.882223218752351 10.212466223324245 2.1370712290027463 0.68199836817093118 0 0.7313536940579346 1.0970305410869019 0 -1.0229975522563968 1 I I #
point $-1 40.628863314113246 10.212466223324245 3.9554319933747619 #
edge $-1 $393 1 $393 0 $215 $-1 forward 7 unknown #
vertex $-1 $216 $394 #
ellipse-curve $-1 36.882223218752351 14.872593213254166 2.1370712290027463 0.68199836817093118 0 0.7313536940579346 1.0970305410869019 0 -1.0229975522563968 1 I I #
point $-1 40.628863314113246 14.872593213254166 3.9554319933747619 #
plane-surface $-1 0 0 8.3200943298028491 0 0 1 1 0 0 forward_v I I I I #
coedge $-1 $332 $331 $324 $395 forward $220 $-1 #
coedge $-1 $324 $222 $224 $328 reversed $139 $-1 #
coedge $-1 $222 $323 $322 $395 reversed $139 $-1 #
coedge $-1 $230 $225 $222 $326 forward $231 $-1 #
edge $-1 $329 -13.947279715838633 $396 -9.4569081077316923 $325 $397 forward 7 unknown #
coedge $-1 $224 $223 $332 $398 reversed $87 $-1 #
edge $-1 $399 -1.0366512331508311e-014 $329 6.4641438931912809 $323 $400 forward 7 unknown #
vertex $-1 $226 $401 #
straight-curve $-1 -38.62495783920285 -3.7659935014861539 8.3200943298028491 0 1 0 I I #
coedge $-1 $322 $227 $230 $336 reversed $220 $-1 #
coedge $-1 $227 $322 $327 $398 forward $220 $-1 #
vertex $-1 $228 $402 #
straight-curve $-1 -43.11532944730979 -11.716350174120322 31.785513277354621 0 0 1 I I #
straight-curve $-1 -43.115329447309783 -11.716350174120322 3.6701782990567793 -0.69465836192734942 0 -0.71933980857756763 I I #
edge $-1 $396 3.3476238318242943 $232 11.716350174120322 $331 $403 forward 7 unknown #
point $-1 -43.11532944730979 -11.716350174120322 8.3200943298028491 #
point $-1 -38.62495783920285 -11.716350174120322 8.3200943298028491 #
edge $-1 $404 1 $404 0 $235 $-1 forward 7 unknown #
vertex $-1 $236 $405 #
ellipse-curve $-1 -39.55050513795188 -9.325285504892884 4.7207762533013646 -0.71933980857756763 0 0.69465836192734942 0.34732918096367471 0 0.35966990428878381 1 I I #
point $-1 -40.522814462292644 -9.325285504892884 6.354806218718597 #
edge $-1 $406 1 $406 0 $239 $-1 forward 7 unknown #
vertex $-1 $240 $407 #
ellipse-curve $-1 -39.55050513795188 -5.7386885010517297 4.7207762533013646 -0.71933980857756763 0 0.69465836192734942 0.34732918096367471 0 0.35966990428878381 1 I I #
point $-1 -40.522814462292644 -5.7386885010517297 6.354806218718597 #
plane-surface $-1 43.11532944730979 0 0 -1 0 0 0 0 1 forward_v I I I I #
coedge $-1 $248 $246 $250 $352 reversed $161 $-1 #
edge $-1 $261 -8.3200943298028491 $354 8.3200943298028491 $260 $408 forward 7 unknown #
vertex $-1 $352 $409 #
straight-curve $-1 -43.11532944730979 -22.492288537443894 0 0 0 -1 I I #
edge $-1 $350 -22.492288537443894 $354 22.492288537443894 $348 $410 forward 7 unknown #
straight-curve $-1 0 -22.492288537443894 -8.3200943298028491 -1 0 0 I I #
vertex $-1 $253 $411 #
straight-curve $-1 0 22.492288537443894 -8.3200943298028491 1 0 0 I I #
point $-1 43.11532944730979 22.492288537443894 -8.3200943298028491 #
point $-1 43.11532944730979 -22.492288537443894 -8.3200943298028491 #
straight-curve $-1 -43.11532944730979 0 8.3200943298028491 0 -1 0 I I #
point $-1 -43.11532944730979 22.492288537443894 8.3200943298028491 #
point $-1 -43.11532944730979 -22.492288537443894 8.3200943298028491 #
straight-curve $-1 43.11532944730979 -22.492288537443894 0 0 0 -1 I I #
straight-curve $-1 43.11532944730979 22.492288537443894 0 0 0 -1 I I #
loop $-1 $-1 $276 $270 #
plane-surface $-1 0 -22.492288537443894 0 0 1 0 0 0 1 forward_v I I I I #
coedge $-1 $287 $278 $274 $367 forward $271 $-1 #
edge $-1 $371 -12.820899925930707 $282 -6.5218772970956671 $273 $412 forward 7 unknown #
edge $-1 $283 6.5218772970956671 $370 12.820899925930707 $365 $413 forward 7 unknown #
coedge $-1 $285 $276 $290 $380 reversed $363 $-1 #
coedge $-1 $276 $285 $287 $378 reversed $363 $-1 #
vertex $-1 $378 $414 #
vertex $-1 $277 $415 #
straight-curve $-1 -28.593367813418769 -22.492288537443894 0 0 0 1 I I #
straight-curve $-1 -15.444756373138631 -16.193265908608854 -8.3200943298028491 1 0 0 I I #
straight-curve $-1 -15.444756373138631 -16.193265908608854 8.3200943298028491 -1 0 0 I I #
point $-1 -28.593367813418769 -16.193265908608854 8.3200943298028491 #
point $-1 -28.593367813418769 -16.193265908608854 -8.3200943298028491 #
straight-curve $-1 -33.185657679135751 -22.492288537443894 0 0 0 -1 I I #
edge $-1 $370 28.593367813418769 $288 33.185657679135751 $369 $416 forward 7 unknown #
point $-1 -33.185657679135751 -22.492288537443894 -8.3200943298028491 #
edge $-1 $291 -33.185657679135751 $371 -28.593367813418769 $368 $417 forward 7 unknown #
point $-1 -33.185657679135751 -22.492288537443894 8.3200943298028491 #
edge $-1 $383 53.435427838959122 $386 60.11875740730251 $296 $418 forward 7 unknown #
vertex $-1 $310 $419 #
straight-curve $-1 19.429693588057404 7.1057148967042991 8.3200943298028491 1 0 0 I I #
edge $-1 $386 0.83445003755969616 $307 11.70807968072951 $306 $420 forward 7 unknown #
vertex $-1 $385 $421 #
straight-curve $-1 -19.949781476319941 7.1057148967042991 60.445933413894217 -0.7313536940579346 0 0.68199836817093118 I I #
point $-1 35.948336098742878 7.1057148967042991 8.3200943298028491 #
point $-1 43.115329447309797 17.979344539874113 1.6367647614594603 #
straight-curve $-1 43.11532944730979 0 8.3200943298028491 0 1 0 I I #
vertex $-1 $313 $422 #
point $-1 37.979253759839253 10.212466223324245 1.1140736767463495 #
vertex $-1 $317 $423 #
point $-1 37.979253759839253 14.872593213254166 1.1140736767463495 #
edge $-1 $396 23.465418947551772 $399 28.115334978297849 $322 $424 forward 7 unknown #
vertex $-1 $336 $425 #
straight-curve $-1 -52.572237555041482 -3.3476238318242943 8.3200943298028491 -1 0 0 I I #
edge $-1 $399 -0.41836966966185951 $333 7.9503566726341681 $332 $426 forward 7 unknown #
vertex $-1 $398 $427 #
straight-curve $-1 -43.115329447309783 -3.3476238318242943 3.6701782990567793 0.69465836192734942 0 0.71933980857756763 I I #
point $-1 -38.62495783920285 -3.3476238318242943 8.3200943298028491 #
point $-1 -43.11532944730979 -11.716350174120322 3.6701782990567717 #
straight-curve $-1 -43.11532944730979 0 8.3200943298028491 0 -1 0 I I #
vertex $-1 $339 $428 #
point $-1 -39.203175956988211 -9.325285504892884 5.0804461575901483 #
vertex $-1 $343 $429 #
point $-1 -39.203175956988211 -5.7386885010517297 5.0804461575901483 #
straight-curve $-1 -43.11532944730979 22.492288537443894 0 0 0 -1 I I #
point $-1 -43.11532944730979 -22.492288537443894 -8.3200943298028491 #
straight-curve $-1 -43.11532944730979 0 -8.3200943298028491 0 1 0 I I #
point $-1 -43.11532944730979 22.492288537443894 -8.3200943298028491 #
straight-curve $-1 -28.593367813418769 -9.6713886115131871 8.3200943298028491 0 1 0 I I #
straight-curve $-1 -28.593367813418769 -9.6713886115131871 -8.3200943298028491 0 -1 0 I I #
point $-1 -28.593367813418769 -22.492288537443894 -8.3200943298028491 #
point $-1 -28.593367813418769 -22.492288537443894 8.3200943298028491 #
straight-curve $-1 0 -22.492288537443894 -8.3200943298028491 -1 0 0 I I #
straight-curve $-1 0 -22.492288537443894 8.3200943298028491 1 0 0 I I #
straight-curve $-1 43.11532944730979 7.1057148967042991 61.755522168761971 0 0 -1 I I #
point $-1 43.11532944730979 7.1057148967042991 8.3200943298028491 #
straight-curve $-1 43.11532944730979 6.271264859144603 1.6367647614594674 0 1 0 I I #
point $-1 43.115329447309797 7.1057148967042991 1.6367647614594603 #
point $-1 35.859225666495952 10.212466223324245 1.0400406879158446 #
point $-1 35.859225666495952 14.872593213254166 1.0400406879158446 #
straight-curve $-1 -43.11532944730979 -3.3476238318242943 31.785513277354621 0 0 -1 I I #
point $-1 -43.11532944730979 -3.3476238318242943 8.3200943298028491 #
straight-curve $-1 -43.11532944730979 -3.7659935014861539 3.6701782990567748 0 -1 0 I I #
point $-1 -43.11532944730979 -3.3476238318242943 3.6701782990567717 #
point $-1 -39.190835233663101 -9.325285504892884 4.3734470723376884 #
point $-1 -39.190835233663101 -5.7386885010517297 4.3734470723376884 #
End-of-ACIS-data 