500 0 13 0           
7 Unknown 11 ACIS 5.0 NT 24 Fri Mar 26 15:55:12 1999 
-1 9.9999999999999995e-007 1e-010 
body $-1 $13 $-1 $14 #
body $-1 $15 $-1 $16 #
body $-1 $17 $-1 $18 #
body $-1 $19 $-1 $20 #
body $-1 $21 $-1 $22 #
body $-1 $23 $-1 $24 #
body $-1 $25 $-1 $26 #
body $-1 $27 $-1 $28 #
body $-1 $29 $-1 $30 #
body $-1 $31 $-1 $32 #
body $-1 $33 $-1 $34 #
body $-1 $35 $-1 $36 #
body $-1 $37 $-1 $38 #
lump $-1 $-1 $39 $0 #
transform $-1 1 0 0 0 1 0 0 0 1 44.934232612079228 19.057726092710613 4.6213255474975039 1 rotate no_reflect no_shear #
lump $-1 $-1 $40 $1 #
transform $-1 1 0 0 0 1 0 0 0 1 44.934232612079228 19.057726092710613 4.6213255474975039 1 rotate no_reflect no_shear #
lump $-1 $-1 $41 $2 #
transform $-1 1 0 0 0 1 0 0 0 1 44.934232612079228 19.057726092710613 4.6213255474975039 1 rotate no_reflect no_shear #
lump $-1 $-1 $42 $3 #
transform $-1 1 0 0 0 1 0 0 0 1 44.934232612079228 19.057726092710613 4.6213255474975039 1 rotate no_reflect no_shear #
lump $-1 $-1 $43 $4 #
transform $-1 1 0 0 0 1 0 0 0 1 44.934232612079228 19.057726092710613 4.6213255474975039 1 rotate no_reflect no_shear #
lump $-1 $-1 $44 $5 #
transform $-1 1 0 0 0 1 0 0 0 1 44.934232612079228 19.057726092710613 4.6213255474975039 1 rotate no_reflect no_shear #
lump $-1 $-1 $45 $6 #
transform $-1 1 0 0 0 1 0 0 0 1 44.934232612079228 19.057726092710613 4.6213255474975039 1 rotate no_reflect no_shear #
lump $-1 $-1 $46 $7 #
transform $-1 1 0 0 0 1 0 0 0 1 44.934232612079228 19.057726092710613 4.6213255474975039 1 rotate no_reflect no_shear #
lump $-1 $-1 $47 $8 #
transform $-1 1 0 0 0 1 0 0 0 1 44.934232612079228 19.057726092710613 4.6213255474975039 1 rotate no_reflect no_shear #
lump $-1 $-1 $48 $9 #
transform $-1 1 0 0 0 1 0 0 0 1 44.934232612079228 19.057726092710613 4.6213255474975039 1 rotate no_reflect no_shear #
lump $-1 $-1 $49 $10 #
transform $-1 1 0 0 0 1 0 0 0 1 44.934232612079228 19.057726092710613 4.6213255474975039 1 rotate no_reflect no_shear #
lump $-1 $-1 $50 $11 #
transform $-1 1 0 0 0 1 0 0 0 1 44.934232612079228 19.057726092710613 4.6213255474975039 1 rotate no_reflect no_shear #
lump $-1 $-1 $51 $12 #
transform $-1 1 0 0 0 1 0 0 0 1 44.934232612079228 19.057726092710613 4.6213255474975039 1 rotate no_reflect no_shear #
shell $-1 $-1 $-1 $52 $-1 $13 #
shell $-1 $-1 $-1 $53 $-1 $15 #
shell $-1 $-1 $-1 $54 $-1 $17 #
shell $-1 $-1 $-1 $55 $-1 $19 #
shell $-1 $-1 $-1 $56 $-1 $21 #
shell $-1 $-1 $-1 $57 $-1 $23 #
shell $-1 $-1 $-1 $58 $-1 $25 #
shell $-1 $-1 $-1 $59 $-1 $27 #
shell $-1 $-1 $-1 $60 $-1 $29 #
shell $-1 $-1 $-1 $61 $-1 $31 #
shell $-1 $-1 $-1 $62 $-1 $33 #
shell $-1 $-1 $-1 $63 $-1 $35 #
shell $-1 $-1 $-1 $64 $-1 $37 #
face $-1 $65 $66 $39 $-1 $67 forward single #
face $-1 $68 $69 $40 $-1 $70 forward single #
face $-1 $71 $72 $41 $-1 $73 forward single #
face $-1 $74 $75 $42 $-1 $76 reversed single #
face $-1 $77 $78 $43 $-1 $79 forward single #
face $-1 $80 $81 $44 $-1 $82 forward single #
face $-1 $83 $84 $45 $-1 $85 reversed single #
face $-1 $86 $87 $46 $-1 $88 forward single #
face $-1 $89 $90 $47 $-1 $91 forward single #
face $-1 $92 $93 $48 $-1 $94 reversed single #
face $-1 $95 $96 $49 $-1 $97 forward single #
face $-1 $98 $99 $50 $-1 $100 forward single #
face $-1 $101 $102 $51 $-1 $103 forward single #
face $-1 $104 $105 $39 $-1 $106 reversed single #
loop $-1 $-1 $107 $52 #
plane-surface $-1 0 0 4.6213255474975039 0 0 1 1 0 0 forward_v I I I I #
face $-1 $108 $109 $40 $-1 $110 reversed single #
loop $-1 $-1 $111 $53 #
plane-surface $-1 0 -16.526639615695515 -1.6213255474975039 0 0 1 1 0 0 forward_v I I I I #
face $-1 $112 $113 $41 $-1 $114 reversed single #
loop $-1 $-1 $115 $54 #
plane-surface $-1 0 16.526639615695512 -1.6213255474975039 0 0 1 1 0 0 forward_v I I I I #
face $-1 $116 $117 $42 $-1 $118 reversed single #
loop $-1 $-1 $119 $55 #
plane-surface $-1 18.510071077864481 -7.1588300766872441 125.23515877004745 0 -1 0 -0.54463904215088732 0 -0.83867056331134215 forward_v I I I I #
face $-1 $120 $121 $43 $-1 $122 forward single #
loop $-1 $123 $124 $56 #
cone-surface $-1 41.564375375143946 -12.042203692396653 1.9703156121046721 -0.54463904215088732 0 -0.83867056331134215 0.41933528165567108 0 -0.27231952107544366 1 I I 0 1 0.5 forward I I I I #
face $-1 $125 $126 $44 $-1 $127 forward single #
loop $-1 $128 $129 $57 #
cone-surface $-1 41.564375375143946 -9.1121795229710081 1.9703156121046721 -0.54463904215088732 0 -0.83867056331134215 0.41933528165567108 0 -0.27231952107544366 1 I I 0 1 0.5 forward I I I I #
face $-1 $130 $131 $45 $-1 $132 reversed single #
loop $-1 $-1 $133 $58 #
plane-surface $-1 18.510071077864481 13.995553138680418 125.23515877004745 0 -1 0 -0.54463904215088732 0 -0.83867056331134215 forward_v I I I I #
face $-1 $134 $135 $46 $-1 $136 forward single #
loop $-1 $137 $138 $59 #
cone-surface $-1 41.564375375143946 9.1121795229710081 1.9703156121046721 -0.54463904215088732 0 -0.83867056331134215 0.41933528165567108 0 -0.27231952107544366 1 I I 0 1 0.5 forward I I I I #
face $-1 $139 $140 $47 $-1 $141 forward single #
loop $-1 $142 $143 $60 #
cone-surface $-1 41.564375375143946 12.042203692396654 1.9703156121046721 -0.54463904215088732 0 -0.83867056331134215 0.41933528165567108 0 -0.27231952107544366 1 I I 0 1 0.5 forward I I I I #
face $-1 $144 $145 $48 $-1 $146 reversed single #
loop $-1 $-1 $147 $61 #
plane-surface $-1 -95.188041264368962 -6.059104801830749 74.988895758099105 0 1 0 -0.55919291073839883 0 0.82903756765294845 forward_v I I I I #
face $-1 $148 $149 $49 $-1 $150 forward single #
loop $-1 $151 $152 $62 #
cone-surface $-1 -41.443531852599961 -4.6759046603605672 1.9240433390603189 0.55919291073839883 0 -0.82903756765294845 0.41451878382647422 0 0.27959645536919941 1 I I 0 1 0.5 forward I I I I #
face $-1 $153 $154 $50 $-1 $155 forward single #
loop $-1 $156 $157 $63 #
cone-surface $-1 -41.443531852599961 -2.6011044481552936 1.9240433390603189 0.55919291073839883 0 -0.82903756765294845 0.41451878382647422 0 0.27959645536919941 1 I I 0 1 0.5 forward I I I I #
face $-1 $158 $159 $51 $-1 $160 forward single #
loop $-1 $161 $162 $64 #
cone-surface $-1 -41.443531852599961 -0.5263042359500183 1.9240433390603189 0.55919291073839883 0 -0.82903756765294845 0.41451878382647422 0 0.27959645536919941 1 I I 0 1 0.5 forward I I I I #
face $-1 $163 $164 $39 $-1 $165 reversed single #
loop $-1 $-1 $166 $65 #
plane-surface $-1 0 0 -4.6213255474975039 0 0 1 1 0 0 forward_v I I I I #
coedge $-1 $167 $168 $169 $170 forward $66 $-1 #
face $-1 $171 $172 $40 $-1 $173 reversed single #
loop $-1 $-1 $174 $68 #
plane-surface $-1 0 -13.995553138680418 -3.1213255474975039 0 -1 0 0 0 -1 forward_v I I I I #
coedge $-1 $175 $176 $177 $178 reversed $69 $-1 #
face $-1 $179 $180 $41 $-1 $181 reversed single #
loop $-1 $-1 $182 $71 #
plane-surface $-1 0 13.995553138680414 -3.1213255474975039 0 1 0 0 0 1 forward_v I I I I #
coedge $-1 $183 $184 $185 $186 reversed $72 $-1 #
face $-1 $187 $188 $42 $-1 $189 reversed single #
loop $-1 $-1 $190 $74 #
plane-surface $-1 -30.43580374139151 -10.577191607683829 49.86512241657671 0.54463904215088732 0 0.83867056331134215 0.83867056331134215 0 -0.54463904215088732 forward_v I I I I #
coedge $-1 $191 $192 $193 $194 reversed $75 $-1 #
face $-1 $-1 $195 $43 $-1 $196 forward single #
loop $-1 $197 $198 $77 #
cone-surface $-1 40.908708388969885 -12.042203692396653 0.96067701097238434 -0.54463904215088732 0 -0.83867056331134215 0.20966764082783554 0 -0.13615976053772183 1 I I -0.70710678118654746 0.70710678118654746 0.25 forward I I I I #
loop $-1 $-1 $199 $56 #
coedge $-1 $124 $124 $200 $201 reversed $78 $-1 #
face $-1 $-1 $202 $44 $-1 $203 forward single #
loop $-1 $204 $205 $80 #
cone-surface $-1 40.908708388969885 -9.1121795229710081 0.96067701097238434 -0.54463904215088732 0 -0.83867056331134215 0.20966764082783554 0 -0.13615976053772183 1 I I -0.70710678118654746 0.70710678118654746 0.25 forward I I I I #
loop $-1 $-1 $206 $57 #
coedge $-1 $129 $129 $207 $208 reversed $81 $-1 #
face $-1 $209 $210 $45 $-1 $211 reversed single #
loop $-1 $-1 $212 $83 #
plane-surface $-1 -30.43580374139151 10.577191607683833 49.86512241657671 0.54463904215088732 0 0.83867056331134215 0.83867056331134215 0 -0.54463904215088732 forward_v I I I I #
coedge $-1 $213 $214 $215 $216 reversed $84 $-1 #
face $-1 $-1 $217 $46 $-1 $218 forward single #
loop $-1 $219 $220 $86 #
cone-surface $-1 40.908708388969885 9.1121795229710081 0.96067701097238434 -0.54463904215088732 0 -0.83867056331134215 0.20966764082783554 0 -0.13615976053772183 1 I I -0.70710678118654746 0.70710678118654746 0.25 forward I I I I #
loop $-1 $-1 $221 $59 #
coedge $-1 $138 $138 $222 $223 reversed $87 $-1 #
face $-1 $-1 $224 $47 $-1 $225 forward single #
loop $-1 $226 $227 $89 #
cone-surface $-1 40.908708388969885 12.042203692396654 0.96067701097238434 -0.54463904215088732 0 -0.83867056331134215 0.20966764082783554 0 -0.13615976053772183 1 I I -0.70710678118654746 0.70710678118654746 0.25 forward I I I I #
loop $-1 $-1 $228 $60 #
coedge $-1 $143 $143 $229 $230 reversed $90 $-1 #
face $-1 $231 $232 $48 $-1 $233 reversed single #
loop $-1 $-1 $234 $92 #
plane-surface $-1 -44.934232612079221 -2.6011044481552936 0.4845619399591925 -0.55919291073839883 0 0.82903756765294845 0.82903756765294845 0 0.55919291073839883 forward_v I I I I #
coedge $-1 $235 $236 $237 $238 reversed $93 $-1 #
face $-1 $-1 $239 $49 $-1 $240 forward single #
loop $-1 $241 $242 $95 #
cone-surface $-1 -40.879534937699667 -4.6759046603605672 1.0878835424790489 0.55919291073839883 0 -0.82903756765294845 0.20725939191323711 0 0.13979822768459971 1 I I -0.70710678118654746 0.70710678118654746 0.25 forward I I I I #
loop $-1 $-1 $243 $62 #
coedge $-1 $152 $152 $244 $245 reversed $96 $-1 #
face $-1 $-1 $246 $50 $-1 $247 forward single #
loop $-1 $248 $249 $98 #
cone-surface $-1 -40.879534937699667 -2.6011044481552936 1.0878835424790489 0.55919291073839883 0 -0.82903756765294845 0.20725939191323711 0 0.13979822768459971 1 I I -0.70710678118654746 0.70710678118654746 0.25 forward I I I I #
loop $-1 $-1 $250 $63 #
coedge $-1 $157 $157 $251 $252 reversed $99 $-1 #
face $-1 $-1 $253 $51 $-1 $254 forward single #
loop $-1 $255 $256 $101 #
cone-surface $-1 -40.879534937699667 -0.5263042359500183 1.0878835424790489 0.55919291073839883 0 -0.82903756765294845 0.20725939191323711 0 0.13979822768459971 1 I I -0.70710678118654746 0.70710678118654746 0.25 forward I I I I #
loop $-1 $-1 $257 $64 #
coedge $-1 $162 $162 $258 $259 reversed $102 $-1 #
face $-1 $260 $261 $39 $-1 $262 reversed single #
loop $-1 $-1 $263 $104 #
plane-surface $-1 0 -19.057726092710613 0 0 1 0 0 0 1 forward_v I I I I #
coedge $-1 $264 $265 $266 $267 forward $105 $-1 #
coedge $-1 $268 $107 $269 $270 forward $66 $-1 #
coedge $-1 $107 $268 $271 $272 forward $66 $-1 #
coedge $-1 $273 $274 $107 $170 reversed $275 $-1 #
edge $-1 $276 -19.057726092710613 $277 19.057726092710613 $169 $278 forward 7 unknown #
face $-1 $279 $280 $40 $-1 $281 reversed single #
loop $-1 $-1 $282 $108 #
plane-surface $-1 0 0 -4.6213255474975039 0 0 1 1 0 0 forward_v I I I I #
coedge $-1 $283 $284 $285 $286 reversed $109 $-1 #
coedge $-1 $287 $111 $284 $288 forward $69 $-1 #
coedge $-1 $111 $287 $289 $290 reversed $69 $-1 #
coedge $-1 $291 $285 $111 $178 forward $280 $-1 #
edge $-1 $292 5.7322333308326598 $293 10.794406284862855 $177 $294 forward 7 unknown #
face $-1 $295 $296 $41 $-1 $297 reversed single #
loop $-1 $-1 $185 $112 #
plane-surface $-1 44.934232612079228 0 0 -1 0 0 0 0 1 forward_v I I I I #
coedge $-1 $298 $299 $300 $301 reversed $113 $-1 #
coedge $-1 $302 $115 $303 $304 reversed $72 $-1 #
coedge $-1 $115 $302 $299 $305 forward $72 $-1 #
coedge $-1 $306 $307 $115 $186 forward $180 $-1 #
edge $-1 $308 -10.794406284862854 $309 -5.7322333308326581 $185 $310 forward 7 unknown #
face $-1 $311 $312 $42 $-1 $313 forward single #
loop $-1 $-1 $314 $116 #
plane-surface $-1 18.510071077864481 -13.995553138680414 125.23515877004745 0 1 0 0.54463904215088732 0 0.83867056331134215 forward_v I I I I #
coedge $-1 $315 $316 $317 $318 reversed $117 $-1 #
coedge $-1 $192 $119 $319 $320 reversed $75 $-1 #
coedge $-1 $119 $191 $315 $321 reversed $75 $-1 #
coedge $-1 $317 $322 $119 $194 forward $312 $-1 #
edge $-1 $323 -35.679197073146987 $324 -29.978497050549088 $193 $325 forward 7 unknown #
loop $-1 $-1 $200 $120 #
plane-surface $-1 -30.43580374139151 -10.577191607683829 49.86512241657671 0.54463904215088732 0 0.83867056331134215 0.83867056331134215 0 -0.54463904215088732 forward_v I I I I #
loop $-1 $-1 $326 $77 #
coedge $-1 $198 $198 $199 $327 reversed $121 $-1 #
coedge $-1 $199 $199 $198 $327 forward $123 $-1 #
coedge $-1 $200 $200 $124 $201 forward $195 $-1 #
edge $-1 $328 0 $328 6.2831853071796004 $200 $329 forward 7 unknown #
loop $-1 $-1 $207 $125 #
plane-surface $-1 -30.43580374139151 -10.577191607683829 49.86512241657671 0.54463904215088732 0 0.83867056331134215 0.83867056331134215 0 -0.54463904215088732 forward_v I I I I #
loop $-1 $-1 $330 $80 #
coedge $-1 $205 $205 $206 $331 reversed $126 $-1 #
coedge $-1 $206 $206 $205 $331 forward $128 $-1 #
coedge $-1 $207 $207 $129 $208 forward $202 $-1 #
edge $-1 $332 0 $332 6.2831853071796004 $207 $333 forward 7 unknown #
face $-1 $334 $335 $45 $-1 $336 reversed single #
loop $-1 $-1 $337 $130 #
plane-surface $-1 18.510071077864481 7.1588300766872477 125.23515877004745 0 1 0 0.54463904215088732 0 0.83867056331134215 forward_v I I I I #
coedge $-1 $338 $339 $340 $341 reversed $131 $-1 #
coedge $-1 $214 $133 $342 $343 reversed $84 $-1 #
coedge $-1 $133 $213 $338 $344 reversed $84 $-1 #
coedge $-1 $340 $345 $133 $216 forward $346 $-1 #
edge $-1 $347 -35.679197073146987 $348 -29.978497050549088 $215 $349 forward 7 unknown #
loop $-1 $-1 $222 $134 #
plane-surface $-1 -30.43580374139151 10.577191607683833 49.86512241657671 0.54463904215088732 0 0.83867056331134215 0.83867056331134215 0 -0.54463904215088732 forward_v I I I I #
loop $-1 $-1 $350 $86 #
coedge $-1 $220 $220 $221 $351 reversed $135 $-1 #
coedge $-1 $221 $221 $220 $351 forward $137 $-1 #
coedge $-1 $222 $222 $138 $223 forward $217 $-1 #
edge $-1 $352 0 $352 6.2831853071796004 $222 $353 forward 7 unknown #
loop $-1 $-1 $229 $139 #
plane-surface $-1 -30.43580374139151 10.577191607683833 49.86512241657671 0.54463904215088732 0 0.83867056331134215 0.83867056331134215 0 -0.54463904215088732 forward_v I I I I #
loop $-1 $-1 $354 $89 #
coedge $-1 $227 $227 $228 $355 reversed $140 $-1 #
coedge $-1 $228 $228 $227 $355 forward $142 $-1 #
coedge $-1 $229 $229 $143 $230 forward $224 $-1 #
edge $-1 $356 0 $356 6.2831853071796004 $229 $357 forward 7 unknown #
face $-1 $358 $359 $48 $-1 $360 reversed single #
loop $-1 $-1 $361 $144 #
plane-surface $-1 -95.188041264368962 0.8568959055201617 74.988895758099105 0 -1 0 0.55919291073839883 0 -0.82903756765294845 forward_v I I I I #
coedge $-1 $362 $363 $364 $365 reversed $145 $-1 #
coedge $-1 $236 $147 $366 $367 reversed $93 $-1 #
coedge $-1 $147 $235 $362 $368 reversed $93 $-1 #
coedge $-1 $364 $369 $147 $238 forward $370 $-1 #
edge $-1 $371 2.6597880201052533 $372 8.7927921646324023 $237 $373 forward 7 unknown #
loop $-1 $-1 $244 $148 #
plane-surface $-1 -44.934232612079221 -2.6011044481552936 0.4845619399591925 -0.55919291073839883 0 0.82903756765294845 0.82903756765294845 0 0.55919291073839883 forward_v I I I I #
loop $-1 $-1 $374 $95 #
coedge $-1 $242 $242 $243 $375 reversed $149 $-1 #
coedge $-1 $243 $243 $242 $375 forward $151 $-1 #
coedge $-1 $244 $244 $152 $245 forward $239 $-1 #
edge $-1 $376 0 $376 6.2831853071796004 $244 $377 forward 7 unknown #
loop $-1 $-1 $251 $153 #
plane-surface $-1 -44.934232612079221 -2.6011044481552936 0.4845619399591925 -0.55919291073839883 0 0.82903756765294845 0.82903756765294845 0 0.55919291073839883 forward_v I I I I #
loop $-1 $-1 $378 $98 #
coedge $-1 $249 $249 $250 $379 reversed $154 $-1 #
coedge $-1 $250 $250 $249 $379 forward $156 $-1 #
coedge $-1 $251 $251 $157 $252 forward $246 $-1 #
edge $-1 $380 0 $380 6.2831853071796004 $251 $381 forward 7 unknown #
loop $-1 $-1 $258 $158 #
plane-surface $-1 -44.934232612079221 -2.6011044481552936 0.4845619399591925 -0.55919291073839883 0 0.82903756765294845 0.82903756765294845 0 0.55919291073839883 forward_v I I I I #
loop $-1 $-1 $382 $101 #
coedge $-1 $256 $256 $257 $383 reversed $159 $-1 #
coedge $-1 $257 $257 $256 $383 forward $161 $-1 #
coedge $-1 $258 $258 $162 $259 forward $253 $-1 #
edge $-1 $384 0 $384 6.2831853071796004 $258 $385 forward 7 unknown #
face $-1 $386 $387 $39 $-1 $388 reversed single #
loop $-1 $-1 $389 $163 #
plane-surface $-1 -44.934232612079228 0 0 1 0 0 0 0 -1 forward_v I I I I #
coedge $-1 $390 $271 $391 $392 forward $164 $-1 #
coedge $-1 $393 $166 $390 $394 forward $105 $-1 #
coedge $-1 $166 $393 $395 $396 forward $105 $-1 #
coedge $-1 $274 $273 $166 $267 reversed $275 $-1 #
edge $-1 $397 -19.057726092710613 $398 19.057726092710613 $266 $399 forward 7 unknown #
coedge $-1 $168 $167 $400 $401 forward $66 $-1 #
coedge $-1 $402 $403 $167 $270 reversed $387 $-1 #
edge $-1 $277 -44.934232612079228 $404 44.934232612079228 $269 $405 forward 7 unknown #
coedge $-1 $263 $406 $168 $272 reversed $164 $-1 #
edge $-1 $407 -44.934232612079228 $276 44.934232612079228 $271 $408 forward 7 unknown #
coedge $-1 $266 $169 $406 $409 forward $275 $-1 #
coedge $-1 $169 $266 $402 $410 reversed $275 $-1 #
loop $-1 $-1 $273 $386 #
vertex $-1 $170 $411 #
vertex $-1 $170 $412 #
straight-curve $-1 44.934232612079228 0 4.6213255474975039 0 1 0 I I #
face $-1 $413 $414 $40 $-1 $415 reversed single #
loop $-1 $-1 $285 $171 #
plane-surface $-1 44.934232612079228 0 0 -1 0 0 0 0 1 forward_v I I I I #
coedge $-1 $416 $417 $283 $418 forward $172 $-1 #
coedge $-1 $419 $174 $282 $418 reversed $109 $-1 #
coedge $-1 $174 $419 $175 $288 reversed $109 $-1 #
coedge $-1 $177 $420 $174 $286 forward $280 $-1 #
edge $-1 $421 -3.060662773748752 $292 -0.060662773748751952 $285 $422 forward 7 unknown #
coedge $-1 $176 $175 $423 $424 reversed $69 $-1 #
edge $-1 $292 -44.934232612079228 $425 44.934232612079228 $284 $426 forward 7 unknown #
coedge $-1 $427 $428 $176 $290 forward $414 $-1 #
edge $-1 $293 -44.934232612079228 $429 44.934232612079228 $289 $430 forward 7 unknown #
coedge $-1 $420 $177 $428 $431 forward $280 $-1 #
vertex $-1 $178 $432 #
vertex $-1 $431 $433 #
straight-curve $-1 44.934232612079228 -8.2633198078477577 -1.6213255474975039 0 -1 0 I I #
face $-1 $434 $435 $41 $-1 $436 reversed single #
loop $-1 $-1 $437 $179 #
plane-surface $-1 0 0 -4.6213255474975039 0 0 1 1 0 0 forward_v I I I I #
coedge $-1 $438 $182 $437 $439 reversed $113 $-1 #
coedge $-1 $182 $438 $184 $305 reversed $113 $-1 #
coedge $-1 $440 $441 $182 $301 forward $435 $-1 #
edge $-1 $442 -3.060662773748752 $443 -0.060662773748751952 $300 $444 forward 7 unknown #
coedge $-1 $184 $183 $440 $445 reversed $72 $-1 #
coedge $-1 $446 $447 $183 $304 forward $448 $-1 #
edge $-1 $449 -44.934232612079228 $308 44.934232612079228 $303 $450 forward 7 unknown #
edge $-1 $443 -44.934232612079228 $309 44.934232612079228 $299 $451 forward 7 unknown #
coedge $-1 $452 $185 $438 $453 forward $180 $-1 #
coedge $-1 $185 $452 $446 $454 reversed $180 $-1 #
vertex $-1 $454 $455 #
vertex $-1 $186 $456 #
straight-curve $-1 44.934232612079228 8.2633198078477559 -1.6213255474975039 0 -1 0 I I #
face $-1 $-1 $457 $42 $-1 $458 reversed single #
loop $-1 $-1 $193 $187 #
plane-surface $-1 0 0 4.6213255474975039 0 0 1 1 0 0 forward_v I I I I #
coedge $-1 $459 $460 $461 $462 reversed $188 $-1 #
coedge $-1 $463 $190 $192 $321 forward $117 $-1 #
coedge $-1 $190 $463 $459 $464 forward $117 $-1 #
coedge $-1 $461 $193 $190 $318 forward $312 $-1 #
edge $-1 $324 1.8702342728453294 $465 8.7069573348384992 $317 $466 forward 7 unknown #
coedge $-1 $467 $468 $191 $320 forward $457 $-1 #
edge $-1 $469 -61.698331787703005 $323 -57.996253837526218 $319 $470 forward 7 unknown #
edge $-1 $324 83.071159736185095 $469 89.868465224158456 $192 $471 forward 7 unknown #
coedge $-1 $193 $461 $467 $472 forward $312 $-1 #
vertex $-1 $320 $473 #
vertex $-1 $194 $474 #
straight-curve $-1 9.2550355389322405 -7.1588300766872441 4.6213255474975057 -1 0 0 I I #
coedge $-1 $326 $326 $-1 $475 reversed $197 $-1 #
edge $-1 $476 0 $476 6.2831853071796004 $198 $477 forward 7 unknown #
vertex $-1 $201 $478 #
ellipse-curve $-1 42.083882600780278 -12.042203692396653 2.7702865724091081 0.54463904215088732 0 0.83867056331134215 0.41933528165567108 0 -0.27231952107544366 1 I I #
coedge $-1 $330 $330 $-1 $479 reversed $204 $-1 #
edge $-1 $480 0 $480 6.2831853071796004 $205 $481 forward 7 unknown #
vertex $-1 $208 $482 #
ellipse-curve $-1 42.083882600780278 -9.1121795229710081 2.7702865724091081 0.54463904215088732 0 0.83867056331134215 0.41933528165567108 0 -0.27231952107544366 1 I I #
face $-1 $-1 $346 $45 $-1 $483 forward single #
loop $-1 $-1 $484 $209 #
plane-surface $-1 44.934232612079228 0 0 -1 0 0 0 0 1 forward_v I I I I #
coedge $-1 $485 $486 $487 $488 reversed $210 $-1 #
coedge $-1 $489 $212 $214 $344 forward $131 $-1 #
coedge $-1 $212 $489 $485 $490 forward $131 $-1 #
coedge $-1 $487 $215 $212 $341 forward $346 $-1 #
edge $-1 $348 -8.706957334838501 $491 -1.8702342728453312 $340 $492 forward 7 unknown #
coedge $-1 $493 $494 $213 $343 forward $335 $-1 #
edge $-1 $495 -61.698331787703005 $347 -57.996253837526218 $342 $496 forward 7 unknown #
edge $-1 $348 83.071159736185095 $495 89.868465224158456 $214 $497 forward 7 unknown #
coedge $-1 $215 $487 $493 $498 forward $346 $-1 #
loop $-1 $-1 $487 $334 #
vertex $-1 $343 $499 #
vertex $-1 $216 $500 #
straight-curve $-1 9.2550355389322405 13.995553138680418 4.6213255474975057 -1 0 0 I I #
coedge $-1 $350 $350 $-1 $501 reversed $219 $-1 #
edge $-1 $502 0 $502 6.2831853071796004 $220 $503 forward 7 unknown #
vertex $-1 $223 $504 #
ellipse-curve $-1 42.083882600780278 9.1121795229710081 2.7702865724091081 0.54463904215088732 0 0.83867056331134215 0.41933528165567108 0 -0.27231952107544366 1 I I #
coedge $-1 $354 $354 $-1 $505 reversed $226 $-1 #
edge $-1 $506 0 $506 6.2831853071796004 $227 $507 forward 7 unknown #
vertex $-1 $230 $508 #
ellipse-curve $-1 42.083882600780278 12.042203692396654 2.7702865724091081 0.54463904215088732 0 0.83867056331134215 0.41933528165567108 0 -0.27231952107544366 1 I I #
face $-1 $-1 $370 $48 $-1 $509 forward single #
loop $-1 $-1 $510 $231 #
plane-surface $-1 -44.934232612079228 0 0 1 0 0 0 0 -1 forward_v I I I I #
coedge $-1 $511 $512 $513 $514 reversed $232 $-1 #
coedge $-1 $515 $234 $236 $368 forward $145 $-1 #
coedge $-1 $234 $515 $511 $516 forward $145 $-1 #
coedge $-1 $513 $237 $234 $365 forward $370 $-1 #
edge $-1 $372 -4.7585525777531021 $517 2.1574481295978085 $364 $518 forward 7 unknown #
coedge $-1 $519 $520 $235 $367 forward $359 $-1 #
edge $-1 $521 -37.009885939090367 $371 -32.873122331552047 $366 $522 forward 7 unknown #
edge $-1 $372 -7.3977397211202618 $521 8.5602302459286524e-015 $236 $523 forward 7 unknown #
coedge $-1 $237 $513 $519 $524 forward $370 $-1 #
loop $-1 $-1 $513 $358 #
vertex $-1 $367 $525 #
vertex $-1 $238 $526 #
straight-curve $-1 -47.594020632184481 -6.059104801830749 4.6213255474975057 1 0 0 I I #
coedge $-1 $374 $374 $-1 $527 reversed $241 $-1 #
edge $-1 $528 0 $528 6.2831853071796004 $242 $529 forward 7 unknown #
vertex $-1 $245 $530 #
ellipse-curve $-1 -41.867730539815653 -4.6759046603605672 2.5529437437283455 -0.55919291073839883 0 0.82903756765294845 0.41451878382647422 0 0.27959645536919941 1 I I #
coedge $-1 $378 $378 $-1 $531 reversed $248 $-1 #
edge $-1 $532 0 $532 6.2831853071796004 $249 $533 forward 7 unknown #
vertex $-1 $252 $534 #
ellipse-curve $-1 -41.867730539815653 -2.6011044481552936 2.5529437437283455 -0.55919291073839883 0 0.82903756765294845 0.41451878382647422 0 0.27959645536919941 1 I I #
coedge $-1 $382 $382 $-1 $535 reversed $255 $-1 #
edge $-1 $536 0 $536 6.2831853071796004 $256 $537 forward 7 unknown #
vertex $-1 $259 $538 #
ellipse-curve $-1 -41.867730539815653 -0.5263042359500183 2.5529437437283455 -0.55919291073839883 0 0.82903756765294845 0.41451878382647422 0 0.27959645536919941 1 I I #
face $-1 $-1 $275 $39 $-1 $539 reversed single #
loop $-1 $-1 $402 $260 #
plane-surface $-1 0 19.057726092710613 0 0 -1 0 0 0 -1 forward_v I I I I #
coedge $-1 $540 $400 $403 $541 forward $261 $-1 #
coedge $-1 $406 $263 $264 $394 reversed $164 $-1 #
coedge $-1 $400 $540 $263 $392 reversed $261 $-1 #
edge $-1 $407 -4.6213255474975039 $542 4.6213255474975039 $391 $543 forward 7 unknown #
coedge $-1 $265 $264 $540 $544 forward $105 $-1 #
edge $-1 $398 -44.934232612079228 $542 44.934232612079228 $390 $545 forward 7 unknown #
coedge $-1 $403 $402 $265 $396 reversed $387 $-1 #
edge $-1 $546 -44.934232612079228 $397 44.934232612079228 $395 $547 forward 7 unknown #
vertex $-1 $267 $548 #
vertex $-1 $409 $549 #
straight-curve $-1 44.934232612079228 0 -4.6213255474975039 0 -1 0 I I #
coedge $-1 $389 $391 $268 $401 reversed $261 $-1 #
edge $-1 $404 -19.057726092710613 $407 19.057726092710613 $400 $550 forward 7 unknown #
coedge $-1 $395 $269 $274 $410 forward $387 $-1 #
coedge $-1 $269 $395 $389 $541 reversed $387 $-1 #
vertex $-1 $270 $551 #
straight-curve $-1 0 19.057726092710613 4.6213255474975039 -1 0 0 I I #
coedge $-1 $271 $390 $273 $409 reversed $164 $-1 #
vertex $-1 $401 $552 #
straight-curve $-1 0 -19.057726092710613 4.6213255474975039 1 0 0 I I #
edge $-1 $276 -4.6213255474975039 $398 4.6213255474975039 $273 $553 forward 7 unknown #
edge $-1 $277 -4.6213255474975039 $397 4.6213255474975039 $274 $554 forward 7 unknown #
point $-1 44.934232612079228 -19.057726092710613 4.6213255474975039 #
point $-1 44.934232612079228 19.057726092710613 4.6213255474975039 #
face $-1 $-1 $555 $40 $-1 $556 reversed single #
loop $-1 $-1 $289 $279 #
plane-surface $-1 0 -19.057726092710613 0 0 1 0 0 0 1 forward_v I I I I #
coedge $-1 $557 $282 $420 $558 forward $172 $-1 #
coedge $-1 $282 $557 $559 $560 forward $172 $-1 #
edge $-1 $561 -44.934232612079228 $421 44.934232612079228 $282 $562 forward 7 unknown #
coedge $-1 $284 $283 $563 $564 reversed $109 $-1 #
coedge $-1 $285 $291 $416 $558 reversed $280 $-1 #
vertex $-1 $558 $565 #
straight-curve $-1 44.934232612079228 -13.995553138680418 -1.560662773748752 0 0 1 I I #
coedge $-1 $563 $566 $287 $424 forward $555 $-1 #
edge $-1 $429 -10.794406284862855 $425 -5.7322333308326598 $423 $567 forward 7 unknown #
vertex $-1 $424 $568 #
straight-curve $-1 0 -13.995553138680418 -1.6213255474975039 -1 0 0 I I #
coedge $-1 $569 $289 $566 $570 forward $414 $-1 #
coedge $-1 $289 $569 $291 $431 reversed $414 $-1 #
vertex $-1 $570 $571 #
straight-curve $-1 0 -19.057726092710613 -1.6213255474975039 -1 0 0 I I #
edge $-1 $293 1.6213255474975039 $572 4.6213255474975039 $291 $573 forward 7 unknown #
point $-1 44.934232612079228 -13.995553138680418 -1.6213255474975039 #
point $-1 44.934232612079228 -19.057726092710613 -1.6213255474975039 #
face $-1 $-1 $448 $41 $-1 $574 reversed single #
loop $-1 $-1 $440 $295 #
plane-surface $-1 -44.934232612079228 0 0 1 0 0 0 0 -1 forward_v I I I I #
coedge $-1 $575 $576 $298 $439 forward $296 $-1 #
coedge $-1 $299 $298 $306 $453 reversed $113 $-1 #
edge $-1 $577 -44.934232612079228 $442 44.934232612079228 $437 $578 forward 7 unknown #
coedge $-1 $579 $300 $302 $445 forward $435 $-1 #
coedge $-1 $300 $579 $575 $580 reversed $435 $-1 #
vertex $-1 $580 $581 #
vertex $-1 $445 $582 #
straight-curve $-1 -44.934232612079228 13.995553138680414 -1.560662773748752 0 0 1 I I #
edge $-1 $443 5.7322333308326581 $449 10.794406284862854 $440 $583 forward 7 unknown #
coedge $-1 $584 $303 $307 $454 forward $448 $-1 #
coedge $-1 $303 $584 $579 $585 reversed $448 $-1 #
loop $-1 $-1 $303 $434 #
vertex $-1 $585 $586 #
straight-curve $-1 0 19.057726092710613 -1.6213255474975039 1 0 0 I I #
straight-curve $-1 0 13.995553138680414 -1.6213255474975039 1 0 0 I I #
coedge $-1 $307 $306 $576 $587 reversed $180 $-1 #
edge $-1 $309 0.060662773748751952 $577 3.060662773748752 $306 $588 forward 7 unknown #
edge $-1 $308 1.6213255474975039 $589 4.6213255474975039 $307 $590 forward 7 unknown #
point $-1 44.934232612079228 19.05772609271061 -1.6213255474975039 #
point $-1 44.934232612079228 13.995553138680414 -1.6213255474975039 #
loop $-1 $-1 $319 $311 #
plane-surface $-1 44.934232612079228 0 0 -1 0 0 0 0 1 forward_v I I I I #
coedge $-1 $460 $314 $316 $464 reversed $188 $-1 #
coedge $-1 $314 $459 $591 $592 reversed $188 $-1 #
coedge $-1 $322 $317 $314 $462 forward $312 $-1 #
edge $-1 $465 29.978497050549088 $593 35.679197073146987 $461 $594 forward 7 unknown #
coedge $-1 $316 $315 $468 $595 reversed $117 $-1 #
edge $-1 $596 -89.868465224158456 $465 -83.071159736185095 $459 $597 forward 7 unknown #
vertex $-1 $318 $598 #
straight-curve $-1 39.233532589481328 -5.2885958038419147 4.6213255474975021 0 -1 0 I I #
coedge $-1 $591 $319 $322 $472 reversed $457 $-1 #
coedge $-1 $319 $591 $463 $595 forward $457 $-1 #
vertex $-1 $320 $599 #
straight-curve $-1 44.934232612079228 -7.1588300766872441 62.617579385023724 0 0 1 I I #
straight-curve $-1 -30.43580374139151 -7.1588300766872441 49.86512241657671 0.83867056331134215 0 -0.54463904215088732 I I #
edge $-1 $593 -13.995553138680414 $323 -7.1588300766872441 $467 $600 forward 7 unknown #
point $-1 44.934232612079228 -7.1588300766872441 4.6213255474975039 #
point $-1 39.233532589481328 -7.1588300766872441 4.6213255474975057 #
edge $-1 $601 1 $601 0 $326 $-1 forward 7 unknown #
vertex $-1 $327 $602 #
ellipse-curve $-1 41.044868149507607 -12.042203692396653 1.1703446518002198 0.54463904215088732 0 0.83867056331134215 0.41933528165567108 0 -0.27231952107544366 1 I I #
point $-1 42.503217882435962 -12.042203692396653 2.4979670513336814 #
edge $-1 $603 1 $603 0 $330 $-1 forward 7 unknown #
vertex $-1 $331 $604 #
ellipse-curve $-1 41.044868149507607 -9.1121795229710081 1.1703446518002198 0.54463904215088732 0 0.83867056331134215 0.41933528165567108 0 -0.27231952107544366 1 I I #
point $-1 42.503217882435962 -9.1121795229710081 2.4979670513336814 #
plane-surface $-1 0 0 4.6213255474975039 0 0 1 1 0 0 forward_v I I I I #
coedge $-1 $494 $493 $486 $605 forward $335 $-1 #
coedge $-1 $486 $337 $339 $490 reversed $210 $-1 #
coedge $-1 $337 $485 $484 $605 reversed $210 $-1 #
coedge $-1 $345 $340 $337 $488 forward $346 $-1 #
edge $-1 $491 29.978497050549088 $606 35.679197073146987 $487 $607 forward 7 unknown #
coedge $-1 $339 $338 $494 $608 reversed $131 $-1 #
edge $-1 $609 -89.868465224158456 $491 -83.071159736185095 $485 $610 forward 7 unknown #
vertex $-1 $341 $611 #
straight-curve $-1 39.233532589481328 5.2885958038419165 4.6213255474975021 0 -1 0 I I #
coedge $-1 $484 $342 $345 $498 reversed $335 $-1 #
coedge $-1 $342 $484 $489 $608 forward $335 $-1 #
vertex $-1 $343 $612 #
straight-curve $-1 44.934232612079228 13.995553138680418 62.617579385023724 0 0 1 I I #
straight-curve $-1 -30.43580374139151 13.995553138680418 49.86512241657671 0.83867056331134215 0 -0.54463904215088732 I I #
edge $-1 $606 7.1588300766872477 $347 13.995553138680418 $493 $613 forward 7 unknown #
point $-1 44.934232612079228 13.995553138680418 4.6213255474975039 #
point $-1 39.233532589481328 13.995553138680418 4.6213255474975057 #
edge $-1 $614 1 $614 0 $350 $-1 forward 7 unknown #
vertex $-1 $351 $615 #
ellipse-curve $-1 41.044868149507607 9.1121795229710081 1.1703446518002198 0.54463904215088732 0 0.83867056331134215 0.41933528165567108 0 -0.27231952107544366 1 I I #
point $-1 42.503217882435962 9.1121795229710081 2.4979670513336814 #
edge $-1 $616 1 $616 0 $354 $-1 forward 7 unknown #
vertex $-1 $355 $617 #
ellipse-curve $-1 41.044868149507607 12.042203692396654 1.1703446518002198 0.54463904215088732 0 0.83867056331134215 0.41933528165567108 0 -0.27231952107544366 1 I I #
point $-1 42.503217882435962 12.042203692396654 2.4979670513336814 #
plane-surface $-1 0 0 4.6213255474975039 0 0 1 1 0 0 forward_v I I I I #
coedge $-1 $520 $519 $512 $618 forward $359 $-1 #
coedge $-1 $512 $361 $363 $516 reversed $232 $-1 #
coedge $-1 $361 $511 $510 $618 reversed $232 $-1 #
coedge $-1 $369 $364 $361 $514 forward $370 $-1 #
edge $-1 $517 -8.7927921646324023 $619 -2.6597880201052533 $513 $620 forward 7 unknown #
coedge $-1 $363 $362 $520 $621 reversed $145 $-1 #
edge $-1 $622 -8.5602302459286524e-015 $517 7.3977397211202618 $511 $623 forward 7 unknown #
vertex $-1 $365 $624 #
straight-curve $-1 -38.801228467552079 -1.3005522240776468 4.6213255474975039 0 1 0 I I #
coedge $-1 $510 $366 $369 $524 reversed $359 $-1 #
coedge $-1 $366 $510 $515 $621 forward $359 $-1 #
vertex $-1 $367 $625 #
straight-curve $-1 -44.934232612079228 -6.059104801830749 37.494447879049552 0 0 1 I I #
straight-curve $-1 -44.934232612079221 -6.059104801830749 0.4845619399591925 -0.82903756765294845 0 -0.55919291073839883 I I #
edge $-1 $619 -0.8568959055201617 $371 6.059104801830749 $519 $626 forward 7 unknown #
point $-1 -44.934232612079228 -6.059104801830749 4.6213255474975039 #
point $-1 -38.801228467552079 -6.059104801830749 4.6213255474975039 #
edge $-1 $627 1 $627 0 $374 $-1 forward 7 unknown #
vertex $-1 $375 $628 #
ellipse-curve $-1 -41.019333165384268 -4.6759046603605672 1.295142934392286 -0.55919291073839883 0 0.82903756765294845 0.41451878382647422 0 0.27959645536919941 1 I I #
point $-1 -41.45321175598918 -4.6759046603605672 2.8325401990975507 #
edge $-1 $629 1 $629 0 $378 $-1 forward 7 unknown #
vertex $-1 $379 $630 #
ellipse-curve $-1 -41.019333165384268 -2.6011044481552936 1.295142934392286 -0.55919291073839883 0 0.82903756765294845 0.41451878382647422 0 0.27959645536919941 1 I I #
point $-1 -41.45321175598918 -2.6011044481552936 2.8325401990975507 #
edge $-1 $631 1 $631 0 $382 $-1 forward 7 unknown #
vertex $-1 $383 $632 #
ellipse-curve $-1 -41.019333165384268 -0.5263042359500183 1.295142934392286 -0.55919291073839883 0 0.82903756765294845 0.41451878382647422 0 0.27959645536919941 1 I I #
point $-1 -41.45321175598918 -0.5263042359500183 2.8325401990975507 #
plane-surface $-1 44.934232612079228 0 0 -1 0 0 0 0 1 forward_v I I I I #
coedge $-1 $391 $389 $393 $544 reversed $261 $-1 #
edge $-1 $404 -4.6213255474975039 $546 4.6213255474975039 $403 $633 forward 7 unknown #
vertex $-1 $544 $634 #
straight-curve $-1 -44.934232612079228 -19.057726092710613 0 0 0 -1 I I #
edge $-1 $542 -19.057726092710613 $546 19.057726092710613 $540 $635 forward 7 unknown #
straight-curve $-1 0 -19.057726092710613 -4.6213255474975039 -1 0 0 I I #
vertex $-1 $396 $636 #
straight-curve $-1 0 19.057726092710613 -4.6213255474975039 1 0 0 I I #
point $-1 44.934232612079228 19.057726092710613 -4.6213255474975039 #
point $-1 44.934232612079228 -19.057726092710613 -4.6213255474975039 #
straight-curve $-1 -44.934232612079228 0 4.6213255474975039 0 -1 0 I I #
point $-1 -44.934232612079228 19.057726092710613 4.6213255474975039 #
point $-1 -44.934232612079228 -19.057726092710613 4.6213255474975039 #
straight-curve $-1 44.934232612079228 -19.057726092710613 0 0 0 -1 I I #
straight-curve $-1 44.934232612079228 19.057726092710613 0 0 0 -1 I I #
loop $-1 $-1 $563 $413 #
plane-surface $-1 -44.934232612079228 0 0 1 0 0 0 0 -1 forward_v I I I I #
coedge $-1 $417 $416 $569 $637 forward $172 $-1 #
edge $-1 $421 13.995553138680418 $572 19.057726092710613 $420 $638 forward 7 unknown #
coedge $-1 $566 $563 $417 $560 reversed $555 $-1 #
edge $-1 $639 -19.057726092710613 $561 -13.995553138680418 $559 $640 forward 7 unknown #
vertex $-1 $564 $641 #
straight-curve $-1 0 -13.995553138680418 -4.6213255474975039 1 0 0 I I #
coedge $-1 $559 $423 $419 $564 forward $555 $-1 #
edge $-1 $425 0.060662773748751952 $561 3.060662773748752 $563 $642 forward 7 unknown #
point $-1 44.934232612079228 -13.995553138680418 -4.6213255474975039 #
coedge $-1 $423 $559 $427 $570 reversed $555 $-1 #
straight-curve $-1 -44.934232612079228 -8.2633198078477577 -1.6213255474975039 0 1 0 I I #
point $-1 -44.934232612079228 -13.995553138680418 -1.6213255474975039 #
coedge $-1 $428 $427 $557 $637 reversed $414 $-1 #
edge $-1 $429 1.6213255474975039 $639 4.6213255474975039 $566 $643 forward 7 unknown #
point $-1 -44.934232612079228 -19.057726092710613 -1.6213255474975039 #
vertex $-1 $431 $644 #
straight-curve $-1 44.934232612079228 -19.057726092710613 0 0 0 -1 I I #
plane-surface $-1 0 19.057726092710613 0 0 -1 0 0 0 -1 forward_v I I I I #
coedge $-1 $645 $437 $441 $580 forward $296 $-1 #
coedge $-1 $437 $645 $452 $587 forward $296 $-1 #
vertex $-1 $439 $646 #
straight-curve $-1 0 13.995553138680414 -4.6213255474975039 -1 0 0 I I #
coedge $-1 $441 $440 $447 $585 forward $435 $-1 #
edge $-1 $442 13.995553138680414 $647 19.057726092710613 $441 $648 forward 7 unknown #
point $-1 -44.934232612079228 13.995553138680414 -4.6213255474975039 #
point $-1 -44.934232612079228 13.995553138680414 -1.6213255474975039 #
straight-curve $-1 -44.934232612079228 8.2633198078477559 -1.6213255474975039 0 1 0 I I #
coedge $-1 $447 $446 $645 $649 reversed $448 $-1 #
edge $-1 $449 1.6213255474975039 $647 4.6213255474975039 $447 $650 forward 7 unknown #
point $-1 -44.934232612079228 19.05772609271061 -1.6213255474975039 #
edge $-1 $589 -19.057726092710613 $577 -13.995553138680414 $452 $651 forward 7 unknown #
straight-curve $-1 44.934232612079228 13.995553138680414 -1.560662773748752 0 0 -1 I I #
vertex $-1 $587 $652 #
straight-curve $-1 44.934232612079228 19.057726092710613 0 0 0 -1 I I #
coedge $-1 $468 $467 $460 $592 forward $457 $-1 #
edge $-1 $593 57.996253837526218 $596 61.698331787703005 $591 $653 forward 7 unknown #
vertex $-1 $472 $654 #
straight-curve $-1 9.2550355389322405 -13.995553138680414 4.6213255474975057 1 0 0 I I #
edge $-1 $596 -8.7069573348384992 $469 -1.8702342728453294 $468 $655 forward 7 unknown #
vertex $-1 $595 $656 #
straight-curve $-1 -30.43580374139151 -13.995553138680414 49.86512241657671 -0.83867056331134215 0 0.54463904215088732 I I #
point $-1 39.233532589481328 -13.995553138680414 4.6213255474975057 #
point $-1 44.934232612079228 -7.1588300766872441 0.91924759732071948 #
straight-curve $-1 44.934232612079228 0 4.6213255474975039 0 1 0 I I #
vertex $-1 $475 $657 #
point $-1 41.464203431163277 -12.042203692396653 0.89802513072477619 #
vertex $-1 $479 $658 #
point $-1 41.464203431163277 -9.1121795229710081 0.89802513072477619 #
edge $-1 $606 57.996253837526218 $609 61.698331787703005 $484 $659 forward 7 unknown #
vertex $-1 $498 $660 #
straight-curve $-1 9.2550355389322405 7.1588300766872477 4.6213255474975057 1 0 0 I I #
edge $-1 $609 1.8702342728453312 $495 8.706957334838501 $494 $661 forward 7 unknown #
vertex $-1 $608 $662 #
straight-curve $-1 -30.43580374139151 7.1588300766872477 49.86512241657671 -0.83867056331134215 0 0.54463904215088732 I I #
point $-1 39.233532589481328 7.1588300766872477 4.6213255474975057 #
point $-1 44.934232612079228 13.995553138680418 0.91924759732071948 #
straight-curve $-1 44.934232612079228 0 4.6213255474975039 0 1 0 I I #
vertex $-1 $501 $663 #
point $-1 41.464203431163277 9.1121795229710081 0.89802513072477619 #
vertex $-1 $505 $664 #
point $-1 41.464203431163277 12.042203692396654 0.89802513072477619 #
edge $-1 $619 32.873122331552047 $622 37.009885939090367 $510 $665 forward 7 unknown #
vertex $-1 $524 $666 #
straight-curve $-1 -47.594020632184481 0.8568959055201617 4.6213255474975057 -1 0 0 I I #
edge $-1 $622 -2.1574481295978085 $521 4.7585525777531021 $520 $667 forward 7 unknown #
vertex $-1 $621 $668 #
straight-curve $-1 -44.934232612079221 0.8568959055201617 0.4845619399591925 0.82903756765294845 0 0.55919291073839883 I I #
point $-1 -38.801228467552079 0.8568959055201617 4.6213255474975039 #
point $-1 -44.934232612079228 -6.059104801830749 0.48456193995918773 #
straight-curve $-1 -44.934232612079228 0 4.6213255474975039 0 -1 0 I I #
vertex $-1 $527 $669 #
point $-1 -40.604814381557794 -4.6759046603605672 1.5747393897614854 #
vertex $-1 $531 $670 #
point $-1 -40.604814381557794 -2.6011044481552936 1.5747393897614854 #
vertex $-1 $535 $671 #
point $-1 -40.604814381557794 -0.5263042359500183 1.5747393897614854 #
straight-curve $-1 -44.934232612079228 19.057726092710613 0 0 0 -1 I I #
point $-1 -44.934232612079228 -19.057726092710613 -4.6213255474975039 #
straight-curve $-1 -44.934232612079228 0 -4.6213255474975039 0 1 0 I I #
point $-1 -44.934232612079228 19.057726092710613 -4.6213255474975039 #
edge $-1 $572 -44.934232612079228 $639 44.934232612079228 $569 $672 forward 7 unknown #
straight-curve $-1 44.934232612079228 0 -4.6213255474975039 0 -1 0 I I #
vertex $-1 $560 $673 #
straight-curve $-1 -44.934232612079228 0 -4.6213255474975039 0 1 0 I I #
point $-1 -44.934232612079228 -13.995553138680418 -4.6213255474975039 #
straight-curve $-1 -44.934232612079228 -13.995553138680418 -1.560662773748752 0 0 -1 I I #
straight-curve $-1 -44.934232612079228 -19.057726092710613 0 0 0 -1 I I #
point $-1 44.934232612079228 -19.057726092710613 -4.6213255474975039 #
coedge $-1 $576 $575 $584 $649 forward $296 $-1 #
point $-1 44.934232612079228 13.995553138680414 -4.6213255474975039 #
vertex $-1 $649 $674 #
straight-curve $-1 -44.934232612079228 0 -4.6213255474975039 0 1 0 I I #
edge $-1 $647 -44.934232612079228 $589 44.934232612079228 $584 $675 forward 7 unknown #
straight-curve $-1 -44.934232612079228 19.057726092710613 0 0 0 -1 I I #
straight-curve $-1 44.934232612079228 0 -4.6213255474975039 0 -1 0 I I #
point $-1 44.934232612079228 19.057726092710613 -4.6213255474975039 #
straight-curve $-1 44.934232612079228 -13.995553138680414 62.617579385023724 0 0 -1 I I #
point $-1 44.934232612079228 -13.995553138680414 4.6213255474975039 #
straight-curve $-1 44.934232612079228 -5.2885958038419147 0.91924759732071593 0 1 0 I I #
point $-1 44.934232612079228 -13.995553138680414 0.91924759732071948 #
point $-1 40.772548628432162 -12.042203692396653 0.75100937014454883 #
point $-1 40.772548628432162 -9.1121795229710081 0.75100937014454883 #
straight-curve $-1 44.934232612079228 7.1588300766872477 62.617579385023724 0 0 -1 I I #
point $-1 44.934232612079228 7.1588300766872477 4.6213255474975039 #
straight-curve $-1 44.934232612079228 5.2885958038419165 0.91924759732071593 0 1 0 I I #
point $-1 44.934232612079228 7.1588300766872477 0.91924759732071948 #
point $-1 40.772548628432162 9.1121795229710081 0.75100937014454883 #
point $-1 40.772548628432162 12.042203692396654 0.75100937014454883 #
straight-curve $-1 -44.934232612079228 0.8568959055201617 37.494447879049552 0 0 -1 I I #
point $-1 -44.934232612079228 0.8568959055201617 4.6213255474975039 #
straight-curve $-1 -44.934232612079228 -1.3005522240776468 0.48456193995918873 0 -1 0 I I #
point $-1 -44.934232612079228 0.8568959055201617 0.48456193995918773 #
point $-1 -40.739736710015066 -4.6759046603605672 0.88062415056581189 #
point $-1 -40.739736710015066 -2.6011044481552936 0.88062415056581189 #
point $-1 -40.739736710015066 -0.5263042359500183 0.88062415056581189 #
straight-curve $-1 0 -19.057726092710613 -4.6213255474975039 -1 0 0 I I #
point $-1 -44.934232612079228 -19.057726092710613 -4.6213255474975039 #
point $-1 -44.934232612079228 19.057726092710613 -4.6213255474975039 #
straight-curve $-1 0 19.057726092710613 -4.6213255474975039 1 0 0 I I #
End-of-ACIS-data 