500 0 10 0           
7 Unknown 11 ACIS 5.0 NT 24 Fri Mar 26 20:39:45 1999 
-1 9.9999999999999995e-007 1e-010 
body $-1 $10 $-1 $11 #
body $-1 $12 $-1 $13 #
body $-1 $14 $-1 $15 #
body $-1 $16 $-1 $17 #
body $-1 $18 $-1 $19 #
body $-1 $20 $-1 $21 #
body $-1 $22 $-1 $23 #
body $-1 $24 $-1 $25 #
body $-1 $26 $-1 $27 #
body $-1 $28 $-1 $29 #
lump $-1 $-1 $30 $0 #
transform $-1 1 0 0 0 1 0 0 0 1 45.968199713126012 30.784679027218413 10.207413013917048 1 rotate no_reflect no_shear #
lump $-1 $-1 $31 $1 #
transform $-1 1 0 0 0 1 0 0 0 1 45.968199713126012 30.784679027218413 10.207413013917048 1 rotate no_reflect no_shear #
lump $-1 $-1 $32 $2 #
transform $-1 1 0 0 0 1 0 0 0 1 45.968199713126012 30.784679027218413 10.207413013917048 1 rotate no_reflect no_shear #
lump $-1 $-1 $33 $3 #
transform $-1 1 0 0 0 1 0 0 0 1 45.968199713126012 30.784679027218413 10.207413013917048 1 rotate no_reflect no_shear #
lump $-1 $-1 $34 $4 #
transform $-1 1 0 0 0 1 0 0 0 1 45.968199713126012 30.784679027218413 10.207413013917048 1 rotate no_reflect no_shear #
lump $-1 $-1 $35 $5 #
transform $-1 1 0 0 0 1 0 0 0 1 45.968199713126012 30.784679027218413 10.207413013917048 1 rotate no_reflect no_shear #
lump $-1 $-1 $36 $6 #
transform $-1 1 0 0 0 1 0 0 0 1 45.968199713126012 30.784679027218413 10.207413013917048 1 rotate no_reflect no_shear #
lump $-1 $-1 $37 $7 #
transform $-1 1 0 0 0 1 0 0 0 1 45.968199713126012 30.784679027218413 10.207413013917048 1 rotate no_reflect no_shear #
lump $-1 $-1 $38 $8 #
transform $-1 1 0 0 0 1 0 0 0 1 45.968199713126012 30.784679027218413 10.207413013917048 1 rotate no_reflect no_shear #
lump $-1 $-1 $39 $9 #
transform $-1 1 0 0 0 1 0 0 0 1 45.968199713126012 30.784679027218413 10.207413013917048 1 rotate no_reflect no_shear #
shell $-1 $-1 $-1 $40 $-1 $10 #
shell $-1 $-1 $-1 $41 $-1 $12 #
shell $-1 $-1 $-1 $42 $-1 $14 #
shell $-1 $-1 $-1 $43 $-1 $16 #
shell $-1 $-1 $-1 $44 $-1 $18 #
shell $-1 $-1 $-1 $45 $-1 $20 #
shell $-1 $-1 $-1 $46 $-1 $22 #
shell $-1 $-1 $-1 $47 $-1 $24 #
shell $-1 $-1 $-1 $48 $-1 $26 #
shell $-1 $-1 $-1 $49 $-1 $28 #
face $-1 $50 $51 $30 $-1 $52 forward single #
face $-1 $53 $54 $31 $-1 $55 forward single #
face $-1 $56 $57 $32 $-1 $58 reversed single #
face $-1 $59 $60 $33 $-1 $61 forward single #
face $-1 $62 $63 $34 $-1 $64 forward single #
face $-1 $65 $66 $35 $-1 $67 reversed single #
face $-1 $68 $69 $36 $-1 $70 forward single #
face $-1 $71 $72 $37 $-1 $73 forward single #
face $-1 $74 $75 $38 $-1 $76 reversed single #
face $-1 $77 $78 $39 $-1 $79 forward single #
face $-1 $80 $81 $30 $-1 $82 reversed single #
loop $-1 $-1 $83 $40 #
plane-surface $-1 0 0 10.207413013917048 0 0 1 1 0 0 forward_v I I I I #
face $-1 $84 $85 $31 $-1 $86 reversed single #
loop $-1 $-1 $87 $41 #
plane-surface $-1 0 -30.784679027218413 0 0 1 0 0 0 1 forward_v I I I I #
face $-1 $88 $89 $32 $-1 $90 reversed single #
loop $-1 $-1 $91 $42 #
plane-surface $-1 -113.20622650687217 -8.187850751638134 65.7092988567682 0 1 0 -0.73135370988377701 0 0.68199835119979291 forward_v I I I I #
face $-1 $92 $93 $33 $-1 $94 forward single #
loop $-1 $95 $96 $43 #
cone-surface $-1 -41.916586402291792 -4.48489677960713 5.9598183470877544 0.73135370988377701 0 -0.68199835119979291 0.68199835119979291 0 0.73135370988377701 1 I I 0 1 1 forward I I I I #
face $-1 $97 $98 $34 $-1 $99 forward single #
loop $-1 $100 $101 $44 #
cone-surface $-1 -41.916586402291792 1.0695341784393726 5.9598183470877544 0.73135370988377701 0 -0.68199835119979291 0.68199835119979291 0 0.73135370988377701 1 I I 0 1 1 forward I I I I #
face $-1 $102 $103 $35 $-1 $104 reversed single #
loop $-1 $-1 $105 $45 #
plane-surface $-1 -45.968199713125998 -1.7076813005838787 3.0088260328187317 -0.73135370988377701 0 0.68199835119979291 0.68199835119979291 0 0.73135370988377701 forward_v I I I I #
face $-1 $106 $107 $36 $-1 $108 forward single #
loop $-1 $109 $110 $46 #
cone-surface $-1 -41.916586402291792 8.4754421225013807 5.9598183470877544 0.73135370988377701 0 -0.68199835119979291 0.68199835119979291 0 0.73135370988377701 1 I I 0 1 1 forward I I I I #
face $-1 $111 $112 $37 $-1 $113 forward single #
loop $-1 $114 $115 $47 #
cone-surface $-1 -41.916586402291792 14.029873080547876 5.9598183470877544 0.73135370988377701 0 -0.68199835119979291 0.68199835119979291 0 0.73135370988377701 1 I I 0 1 1 forward I I I I #
face $-1 $116 $117 $38 $-1 $118 reversed single #
loop $-1 $-1 $119 $48 #
plane-surface $-1 30.123028888632362 22.596140170898995 133.11518213759189 0 -1 0 -0.61566148304635926 0 -0.78801074757464917 forward_v I I I I #
face $-1 $120 $121 $39 $-1 $122 forward single #
loop $-1 $123 $124 $49 #
cone-surface $-1 41.265170787829895 17.068894846112538 6.1474955532838731 -0.61566148304635926 0 -0.78801074757464917 1.5760214951492983 0 -1.2313229660927185 1 I I 0 1 2 forward I I I I #
face $-1 $125 $126 $30 $-1 $127 reversed single #
loop $-1 $-1 $128 $50 #
plane-surface $-1 0 0 -10.207413013917048 0 0 1 1 0 0 forward_v I I I I #
coedge $-1 $129 $130 $131 $132 forward $51 $-1 #
face $-1 $133 $134 $31 $-1 $135 forward single #
loop $-1 $-1 $136 $53 #
plane-surface $-1 -45.968199713126012 0 0 1 0 0 0 0 -1 forward_v I I I I #
coedge $-1 $137 $138 $139 $140 forward $54 $-1 #
face $-1 $141 $142 $32 $-1 $143 reversed single #
loop $-1 $-1 $144 $56 #
plane-surface $-1 -45.968199713125998 -1.7076813005838787 3.0088260328187317 -0.73135370988377701 0 0.68199835119979291 0.68199835119979291 0 0.73135370988377701 forward_v I I I I #
coedge $-1 $145 $146 $147 $148 reversed $57 $-1 #
face $-1 $-1 $149 $33 $-1 $150 forward single #
loop $-1 $151 $152 $59 #
cone-surface $-1 -40.85569163434414 -4.48489677960713 4.9705179952077234 0.73135370988377701 0 -0.68199835119979291 0.34099917559989645 0 0.36567685494188851 1 I I -0.70710678118654746 0.70710678118654746 0.5 forward I I I I #
loop $-1 $-1 $153 $43 #
coedge $-1 $96 $96 $154 $155 reversed $60 $-1 #
face $-1 $-1 $156 $34 $-1 $157 forward single #
loop $-1 $158 $159 $62 #
cone-surface $-1 -40.85569163434414 1.0695341784393726 4.9705179952077234 0.73135370988377701 0 -0.68199835119979291 0.34099917559989645 0 0.36567685494188851 1 I I -0.70710678118654746 0.70710678118654746 0.5 forward I I I I #
loop $-1 $-1 $160 $44 #
coedge $-1 $101 $101 $161 $162 reversed $63 $-1 #
face $-1 $163 $164 $35 $-1 $165 forward single #
loop $-1 $-1 $166 $65 #
plane-surface $-1 -113.20622650687217 17.732827052578884 65.7092988567682 0 -1 0 0.73135370988377701 0 -0.68199835119979291 forward_v I I I I #
coedge $-1 $167 $168 $169 $170 reversed $66 $-1 #
face $-1 $-1 $171 $36 $-1 $172 forward single #
loop $-1 $173 $174 $68 #
cone-surface $-1 -40.85569163434414 8.4754421225013807 4.9705179952077234 0.73135370988377701 0 -0.68199835119979291 0.34099917559989645 0 0.36567685494188851 1 I I -0.70710678118654746 0.70710678118654746 0.5 forward I I I I #
loop $-1 $-1 $175 $46 #
coedge $-1 $110 $110 $176 $177 reversed $69 $-1 #
face $-1 $-1 $178 $37 $-1 $179 forward single #
loop $-1 $180 $181 $71 #
cone-surface $-1 -40.85569163434414 14.029873080547876 4.9705179952077234 0.73135370988377701 0 -0.68199835119979291 0.34099917559989645 0 0.36567685494188851 1 I I -0.70710678118654746 0.70710678118654746 0.5 forward I I I I #
loop $-1 $-1 $182 $47 #
coedge $-1 $115 $115 $183 $184 reversed $72 $-1 #
face $-1 $185 $186 $38 $-1 $187 reversed single #
loop $-1 $-1 $188 $74 #
plane-surface $-1 -26.478671128076414 17.068894846112538 60.668311296389476 0.61566148304635926 0 0.78801074757464917 0.78801074757464917 0 -0.61566148304635926 forward_v I I I I #
coedge $-1 $189 $190 $191 $192 reversed $75 $-1 #
face $-1 $-1 $193 $39 $-1 $194 forward single #
loop $-1 $195 $196 $77 #
cone-surface $-1 39.876414197467469 17.068894846112538 4.3699682121942089 -0.61566148304635926 0 -0.78801074757464917 0.78801074757464917 0 -0.61566148304635926 1 I I -0.70710678118654746 0.70710678118654746 1 forward I I I I #
loop $-1 $-1 $197 $49 #
coedge $-1 $124 $124 $198 $199 reversed $78 $-1 #
face $-1 $200 $201 $30 $-1 $202 reversed single #
loop $-1 $-1 $203 $80 #
plane-surface $-1 0 -30.784679027218413 0 0 1 0 0 0 1 forward_v I I I I #
coedge $-1 $204 $205 $206 $207 forward $81 $-1 #
coedge $-1 $208 $83 $209 $210 forward $51 $-1 #
coedge $-1 $83 $208 $211 $212 forward $51 $-1 #
coedge $-1 $213 $214 $83 $132 reversed $215 $-1 #
edge $-1 $216 -30.784679027218413 $217 30.784679027218413 $131 $218 forward 7 unknown #
face $-1 $219 $220 $31 $-1 $221 reversed single #
loop $-1 $-1 $222 $84 #
plane-surface $-1 0 -35.557167177688783 -4.0111035716961769 0 0 1 1 0 0 forward_v I I I I #
coedge $-1 $223 $224 $138 $225 forward $85 $-1 #
coedge $-1 $226 $87 $227 $228 reversed $54 $-1 #
coedge $-1 $87 $226 $136 $225 reversed $54 $-1 #
coedge $-1 $229 $222 $87 $140 reversed $134 $-1 #
edge $-1 $230 -45.968199713126012 $231 45.968199713126012 $139 $232 forward 7 unknown #
face $-1 $233 $234 $32 $-1 $235 forward single #
loop $-1 $-1 $236 $88 #
plane-surface $-1 -113.20622650687217 4.7724881504703767 65.7092988567682 0 -1 0 0.73135370988377701 0 -0.68199835119979291 forward_v I I I I #
coedge $-1 $237 $238 $239 $240 reversed $89 $-1 #
coedge $-1 $146 $91 $241 $242 reversed $57 $-1 #
coedge $-1 $91 $145 $237 $243 reversed $57 $-1 #
coedge $-1 $239 $244 $91 $148 forward $234 $-1 #
edge $-1 $245 10.634913540310073 $246 17.347704335966988 $147 $247 forward 7 unknown #
loop $-1 $-1 $154 $92 #
plane-surface $-1 -45.968199713125998 -1.7076813005838787 3.0088260328187317 -0.73135370988377701 0 0.68199835119979291 0.68199835119979291 0 0.73135370988377701 forward_v I I I I #
loop $-1 $-1 $248 $59 #
coedge $-1 $152 $152 $153 $249 reversed $93 $-1 #
coedge $-1 $153 $153 $152 $249 forward $95 $-1 #
coedge $-1 $154 $154 $96 $155 forward $149 $-1 #
edge $-1 $250 0 $250 6.2831853071796004 $154 $251 forward 7 unknown #
loop $-1 $-1 $161 $97 #
plane-surface $-1 -45.968199713125998 -1.7076813005838787 3.0088260328187317 -0.73135370988377701 0 0.68199835119979291 0.68199835119979291 0 0.73135370988377701 forward_v I I I I #
loop $-1 $-1 $252 $62 #
coedge $-1 $159 $159 $160 $253 reversed $98 $-1 #
coedge $-1 $160 $160 $159 $253 forward $100 $-1 #
coedge $-1 $161 $161 $101 $162 forward $156 $-1 #
edge $-1 $254 0 $254 6.2831853071796004 $161 $255 forward 7 unknown #
face $-1 $256 $257 $35 $-1 $258 forward single #
loop $-1 $-1 $259 $102 #
plane-surface $-1 0 0 10.207413013917048 0 0 1 1 0 0 forward_v I I I I #
coedge $-1 $260 $261 $262 $263 reversed $103 $-1 #
coedge $-1 $264 $105 $265 $266 reversed $66 $-1 #
coedge $-1 $105 $264 $259 $267 reversed $66 $-1 #
coedge $-1 $268 $269 $105 $170 forward $257 $-1 #
edge $-1 $270 -2.0734513383776317e-014 $271 9.8428255491344636 $169 $272 forward 7 unknown #
loop $-1 $-1 $176 $106 #
plane-surface $-1 -45.968199713125998 -1.7076813005838787 3.0088260328187317 -0.73135370988377701 0 0.68199835119979291 0.68199835119979291 0 0.73135370988377701 forward_v I I I I #
loop $-1 $-1 $273 $68 #
coedge $-1 $174 $174 $175 $274 reversed $107 $-1 #
coedge $-1 $175 $175 $174 $274 forward $109 $-1 #
coedge $-1 $176 $176 $110 $177 forward $171 $-1 #
edge $-1 $275 0 $275 6.2831853071796004 $176 $276 forward 7 unknown #
loop $-1 $-1 $183 $111 #
plane-surface $-1 -45.968199713125998 -1.7076813005838787 3.0088260328187317 -0.73135370988377701 0 0.68199835119979291 0.68199835119979291 0 0.73135370988377701 forward_v I I I I #
loop $-1 $-1 $277 $71 #
coedge $-1 $181 $181 $182 $278 reversed $112 $-1 #
coedge $-1 $182 $182 $181 $278 forward $114 $-1 #
coedge $-1 $183 $183 $115 $184 forward $178 $-1 #
edge $-1 $279 0 $279 6.2831853071796004 $183 $280 forward 7 unknown #
face $-1 $281 $282 $38 $-1 $283 reversed single #
loop $-1 $-1 $284 $116 #
plane-surface $-1 30.123028888632362 11.541649521326082 133.11518213759189 0 1 0 0.61566148304635926 0 0.78801074757464917 forward_v I I I I #
coedge $-1 $285 $286 $287 $288 reversed $117 $-1 #
coedge $-1 $190 $119 $289 $290 reversed $75 $-1 #
coedge $-1 $119 $189 $285 $291 reversed $75 $-1 #
coedge $-1 $287 $292 $119 $192 forward $293 $-1 #
edge $-1 $294 -30.906685268809831 $295 -23.046817632849702 $191 $296 forward 7 unknown #
loop $-1 $-1 $198 $120 #
plane-surface $-1 -26.478671128076414 17.068894846112538 60.668311296389476 0.61566148304635926 0 0.78801074757464917 0.78801074757464917 0 -0.61566148304635926 forward_v I I I I #
loop $-1 $-1 $297 $77 #
coedge $-1 $196 $196 $197 $298 reversed $121 $-1 #
coedge $-1 $197 $197 $196 $298 forward $123 $-1 #
coedge $-1 $198 $198 $124 $199 forward $193 $-1 #
edge $-1 $299 0 $299 6.2831853071796004 $198 $300 forward 7 unknown #
face $-1 $301 $302 $30 $-1 $303 reversed single #
loop $-1 $-1 $304 $125 #
plane-surface $-1 -45.968199713126012 0 0 1 0 0 0 0 -1 forward_v I I I I #
coedge $-1 $305 $211 $306 $307 forward $126 $-1 #
coedge $-1 $308 $128 $305 $309 forward $81 $-1 #
coedge $-1 $128 $308 $310 $311 forward $81 $-1 #
coedge $-1 $214 $213 $128 $207 reversed $215 $-1 #
edge $-1 $312 -30.784679027218413 $313 30.784679027218413 $206 $314 forward 7 unknown #
coedge $-1 $130 $129 $315 $316 forward $51 $-1 #
coedge $-1 $317 $318 $129 $210 reversed $302 $-1 #
edge $-1 $217 -45.968199713126012 $319 45.968199713126012 $209 $320 forward 7 unknown #
coedge $-1 $203 $321 $130 $212 reversed $126 $-1 #
edge $-1 $322 -45.968199713126012 $216 45.968199713126012 $211 $323 forward 7 unknown #
coedge $-1 $206 $131 $321 $324 forward $215 $-1 #
coedge $-1 $131 $206 $317 $325 reversed $215 $-1 #
loop $-1 $-1 $213 $301 #
vertex $-1 $132 $326 #
vertex $-1 $132 $327 #
straight-curve $-1 45.968199713126012 0 10.207413013917048 0 1 0 I I #
face $-1 $328 $329 $31 $-1 $330 reversed single #
loop $-1 $-1 $331 $133 #
plane-surface $-1 0 -35.557167177688783 -7.0241392525094479 0 0 1 1 0 0 forward_v I I I I #
coedge $-1 $139 $332 $333 $334 forward $134 $-1 #
coedge $-1 $335 $136 $336 $337 reversed $85 $-1 #
coedge $-1 $136 $335 $229 $338 reversed $85 $-1 #
edge $-1 $230 4.0111035716961769 $339 7.0241392525094479 $136 $340 forward 7 unknown #
coedge $-1 $138 $137 $341 $342 forward $54 $-1 #
coedge $-1 $333 $343 $137 $228 forward $344 $-1 #
edge $-1 $345 -7.0241392525094479 $231 -4.0111035716961769 $227 $346 forward 7 unknown #
coedge $-1 $332 $139 $224 $338 forward $134 $-1 #
vertex $-1 $225 $347 #
vertex $-1 $334 $348 #
straight-curve $-1 0 -30.784679027218413 -4.0111035716961769 1 0 0 I I #
face $-1 $-1 $349 $32 $-1 $350 reversed single #
loop $-1 $-1 $147 $141 #
plane-surface $-1 0 0 10.207413013917048 0 0 1 1 0 0 forward_v I I I I #
coedge $-1 $351 $352 $353 $354 reversed $142 $-1 #
coedge $-1 $355 $144 $146 $243 forward $89 $-1 #
coedge $-1 $144 $355 $351 $356 forward $89 $-1 #
coedge $-1 $353 $147 $144 $240 forward $234 $-1 #
edge $-1 $246 -7.3340101013461947 $357 5.626328800762316 $239 $358 forward 7 unknown #
coedge $-1 $359 $360 $145 $242 forward $349 $-1 #
edge $-1 $361 -29.845823395565382 $245 -22.647236414467052 $241 $362 forward 7 unknown #
edge $-1 $246 -9.8428255491344636 $361 2.0734513383776317e-014 $146 $363 forward 7 unknown #
coedge $-1 $147 $353 $359 $364 forward $234 $-1 #
vertex $-1 $242 $365 #
vertex $-1 $148 $366 #
straight-curve $-1 -56.603113253436085 -8.187850751638134 10.207413013917048 1 0 0 I I #
coedge $-1 $248 $248 $-1 $367 reversed $151 $-1 #
edge $-1 $368 0 $368 6.2831853071796004 $152 $369 forward 7 unknown #
vertex $-1 $155 $370 #
ellipse-curve $-1 -42.611804315297555 -4.48489677960713 6.6081195233678844 -0.73135370988377701 0 0.68199835119979291 0.68199835119979291 0 0.73135370988377701 1 I I #
coedge $-1 $252 $252 $-1 $371 reversed $158 $-1 #
edge $-1 $372 0 $372 6.2831853071796004 $159 $373 forward 7 unknown #
vertex $-1 $162 $374 #
ellipse-curve $-1 -42.611804315297555 1.0695341784393726 6.6081195233678844 -0.73135370988377701 0 0.68199835119979291 0.68199835119979291 0 0.73135370988377701 1 I I #
face $-1 $-1 $375 $35 $-1 $376 reversed single #
loop $-1 $-1 $268 $163 #
plane-surface $-1 -113.20622650687217 4.7724881504703767 65.7092988567682 0 -1 0 0.73135370988377701 0 -0.68199835119979291 forward_v I I I I #
coedge $-1 $262 $377 $168 $267 forward $164 $-1 #
coedge $-1 $261 $166 $264 $378 reversed $103 $-1 #
coedge $-1 $166 $260 $379 $380 reversed $103 $-1 #
coedge $-1 $381 $259 $166 $263 forward $164 $-1 #
edge $-1 $382 -17.347704335966988 $383 -10.634913540310073 $262 $384 forward 7 unknown #
coedge $-1 $168 $167 $260 $378 forward $66 $-1 #
coedge $-1 $385 $379 $167 $266 forward $375 $-1 #
edge $-1 $386 -18.586667702870823 $270 -5.626328800762316 $265 $387 forward 7 unknown #
edge $-1 $271 5.626328800762316 $382 18.586667702870823 $259 $388 forward 7 unknown #
coedge $-1 $269 $169 $377 $389 reversed $257 $-1 #
coedge $-1 $169 $268 $385 $390 reversed $257 $-1 #
vertex $-1 $266 $391 #
vertex $-1 $267 $392 #
straight-curve $-1 -45.968199713125998 4.7724881504703767 3.0088260328187317 0.68199835119979291 0 0.73135370988377701 I I #
coedge $-1 $273 $273 $-1 $393 reversed $173 $-1 #
edge $-1 $394 0 $394 6.2831853071796004 $174 $395 forward 7 unknown #
vertex $-1 $177 $396 #
ellipse-curve $-1 -42.611804315297555 8.4754421225013807 6.6081195233678844 -0.73135370988377701 0 0.68199835119979291 0.68199835119979291 0 0.73135370988377701 1 I I #
coedge $-1 $277 $277 $-1 $397 reversed $180 $-1 #
edge $-1 $398 0 $398 6.2831853071796004 $181 $399 forward 7 unknown #
vertex $-1 $184 $400 #
ellipse-curve $-1 -42.611804315297555 14.029873080547876 6.6081195233678844 -0.73135370988377701 0 0.68199835119979291 0.68199835119979291 0 0.73135370988377701 1 I I #
face $-1 $-1 $293 $38 $-1 $401 forward single #
loop $-1 $-1 $402 $185 #
plane-surface $-1 45.968199713126012 0 0 -1 0 0 0 0 1 forward_v I I I I #
coedge $-1 $403 $404 $405 $406 reversed $186 $-1 #
coedge $-1 $407 $188 $190 $291 forward $117 $-1 #
coedge $-1 $188 $407 $403 $408 forward $117 $-1 #
coedge $-1 $405 $191 $188 $288 forward $293 $-1 #
edge $-1 $295 -14.061692747842725 $409 -3.0072020982698131 $287 $410 forward 7 unknown #
coedge $-1 $411 $412 $189 $290 forward $282 $-1 #
edge $-1 $413 -62.490979789115258 $294 -56.350178054878896 $289 $414 forward 7 unknown #
edge $-1 $295 81.962084151807701 $413 91.936399426252052 $190 $415 forward 7 unknown #
coedge $-1 $191 $405 $411 $416 forward $293 $-1 #
loop $-1 $-1 $405 $281 #
vertex $-1 $290 $417 #
vertex $-1 $192 $418 #
straight-curve $-1 15.061514444316181 22.596140170898995 10.207413013917048 -1 0 0 I I #
coedge $-1 $297 $297 $-1 $419 reversed $195 $-1 #
edge $-1 $420 0 $420 6.2831853071796004 $196 $421 forward 7 unknown #
vertex $-1 $199 $422 #
ellipse-curve $-1 42.038265895145948 17.068894846112538 7.1370121467988721 0.61566148304635926 0 0.78801074757464917 1.5760214951492983 0 -1.2313229660927185 1 I I #
face $-1 $-1 $215 $30 $-1 $423 reversed single #
loop $-1 $-1 $317 $200 #
plane-surface $-1 0 30.784679027218413 0 0 -1 0 0 0 -1 forward_v I I I I #
coedge $-1 $424 $315 $318 $425 forward $201 $-1 #
coedge $-1 $321 $203 $204 $309 reversed $126 $-1 #
coedge $-1 $315 $424 $203 $307 reversed $201 $-1 #
edge $-1 $322 -10.207413013917048 $426 10.207413013917048 $306 $427 forward 7 unknown #
coedge $-1 $205 $204 $424 $428 forward $81 $-1 #
edge $-1 $313 -45.968199713126012 $426 45.968199713126012 $305 $429 forward 7 unknown #
coedge $-1 $318 $317 $205 $311 reversed $302 $-1 #
edge $-1 $430 -45.968199713126012 $312 45.968199713126012 $310 $431 forward 7 unknown #
vertex $-1 $207 $432 #
vertex $-1 $324 $433 #
straight-curve $-1 45.968199713126012 0 -10.207413013917048 0 -1 0 I I #
coedge $-1 $304 $306 $208 $316 reversed $201 $-1 #
edge $-1 $319 -30.784679027218413 $322 30.784679027218413 $315 $434 forward 7 unknown #
coedge $-1 $310 $209 $214 $325 forward $302 $-1 #
coedge $-1 $209 $310 $304 $425 reversed $302 $-1 #
vertex $-1 $210 $435 #
straight-curve $-1 0 30.784679027218413 10.207413013917048 -1 0 0 I I #
coedge $-1 $211 $305 $213 $324 reversed $126 $-1 #
vertex $-1 $316 $436 #
straight-curve $-1 0 -30.784679027218413 10.207413013917048 1 0 0 I I #
edge $-1 $216 -10.207413013917048 $313 10.207413013917048 $213 $437 forward 7 unknown #
edge $-1 $217 -10.207413013917048 $312 10.207413013917048 $214 $438 forward 7 unknown #
point $-1 45.968199713126012 -30.784679027218413 10.207413013917048 #
point $-1 45.968199713126012 30.784679027218413 10.207413013917048 #
face $-1 $-1 $344 $31 $-1 $439 reversed single #
loop $-1 $-1 $440 $219 #
plane-surface $-1 0 -40.329655328159156 -5.5176214121028124 0 1 0 0 0 1 forward_v I I I I #
coedge $-1 $441 $341 $343 $442 forward $220 $-1 #
coedge $-1 $222 $229 $443 $444 forward $134 $-1 #
coedge $-1 $445 $227 $222 $334 reversed $344 $-1 #
edge $-1 $446 -4.7724881504703731 $231 4.7724881504703731 $333 $447 forward 7 unknown #
coedge $-1 $224 $223 $440 $448 reversed $85 $-1 #
coedge $-1 $341 $441 $223 $337 forward $220 $-1 #
edge $-1 $449 -4.7724881504703731 $339 4.7724881504703731 $223 $450 forward 7 unknown #
edge $-1 $230 -4.7724881504703731 $451 4.7724881504703731 $224 $452 forward 7 unknown #
vertex $-1 $225 $453 #
straight-curve $-1 -45.968199713126012 -30.784679027218413 0 0 0 -1 I I #
coedge $-1 $331 $336 $226 $342 reversed $220 $-1 #
edge $-1 $345 -45.968199713126012 $339 45.968199713126012 $341 $454 forward 7 unknown #
coedge $-1 $227 $445 $331 $442 reversed $344 $-1 #
loop $-1 $-1 $227 $328 #
vertex $-1 $228 $455 #
straight-curve $-1 45.968199713126012 -30.784679027218413 0 0 0 1 I I #
point $-1 -45.968199713126012 -30.784679027218409 -4.0111035716961769 #
point $-1 45.968199713126012 -30.784679027218409 -4.0111035716961769 #
loop $-1 $-1 $241 $233 #
plane-surface $-1 -45.968199713126012 0 0 1 0 0 0 0 -1 forward_v I I I I #
coedge $-1 $352 $236 $238 $356 reversed $142 $-1 #
coedge $-1 $236 $351 $456 $457 reversed $142 $-1 #
coedge $-1 $244 $239 $236 $354 forward $234 $-1 #
edge $-1 $357 -17.347704335966988 $458 -10.634913540310073 $353 $459 forward 7 unknown #
coedge $-1 $238 $237 $360 $460 reversed $89 $-1 #
edge $-1 $461 -2.0734513383776317e-014 $357 9.8428255491344636 $351 $462 forward 7 unknown #
vertex $-1 $240 $463 #
straight-curve $-1 -39.255408917469097 -0.85384065029193934 10.207413013917048 0 1 0 I I #
coedge $-1 $456 $241 $244 $364 reversed $349 $-1 #
coedge $-1 $241 $456 $355 $460 forward $349 $-1 #
vertex $-1 $242 $464 #
straight-curve $-1 -45.968199713126012 -8.187850751638134 32.8546494283841 0 0 1 I I #
straight-curve $-1 -45.968199713125998 -8.187850751638134 3.0088260328187317 -0.68199835119979291 0 -0.73135370988377701 I I #
edge $-1 $458 -4.7724881504703767 $245 8.187850751638134 $359 $465 forward 7 unknown #
point $-1 -45.968199713126012 -8.187850751638134 10.207413013917048 #
point $-1 -39.255408917469097 -8.187850751638134 10.207413013917048 #
edge $-1 $466 1 $466 0 $248 $-1 forward 7 unknown #
vertex $-1 $249 $467 #
ellipse-curve $-1 -41.221368489286029 -4.48489677960713 5.3115171708076199 -0.73135370988377701 0 0.68199835119979291 0.68199835119979291 0 0.73135370988377701 1 I I #
point $-1 -41.929805964097767 -4.48489677960713 7.3394732332516659 #
edge $-1 $468 1 $468 0 $252 $-1 forward 7 unknown #
vertex $-1 $253 $469 #
ellipse-curve $-1 -41.221368489286029 1.0695341784393726 5.3115171708076199 -0.73135370988377701 0 0.68199835119979291 0.68199835119979291 0 0.73135370988377701 1 I I #
point $-1 -41.929805964097767 1.0695341784393726 7.3394732332516659 #
loop $-1 $-1 $265 $256 #
plane-surface $-1 -45.968199713126012 0 0 1 0 0 0 0 -1 forward_v I I I I #
coedge $-1 $259 $381 $268 $389 forward $164 $-1 #
edge $-1 $386 -2.0734513383776317e-014 $382 9.8428255491344636 $260 $470 forward 7 unknown #
coedge $-1 $265 $471 $261 $380 forward $375 $-1 #
edge $-1 $383 22.647236414467052 $386 29.845823395565382 $379 $472 forward 7 unknown #
coedge $-1 $377 $262 $471 $473 forward $164 $-1 #
vertex $-1 $263 $474 #
vertex $-1 $473 $475 #
straight-curve $-1 -56.603113253436085 17.732827052578884 10.207413013917048 -1 0 0 I I #
coedge $-1 $471 $265 $269 $390 forward $375 $-1 #
vertex $-1 $380 $476 #
straight-curve $-1 -45.968199713126012 -0.85384065029193934 3.0088260328187135 0 -1 0 I I #
straight-curve $-1 -39.255408917469097 -0.85384065029193934 10.207413013917048 0 1 0 I I #
edge $-1 $477 10.634913540310073 $271 17.347704335966988 $377 $478 forward 7 unknown #
edge $-1 $270 -29.845823395565382 $477 -22.647236414467052 $385 $479 forward 7 unknown #
point $-1 -45.968199713126012 4.7724881504703767 3.0088260328187166 #
point $-1 -39.255408917469097 4.7724881504703767 10.207413013917048 #
edge $-1 $480 1 $480 0 $273 $-1 forward 7 unknown #
vertex $-1 $274 $481 #
ellipse-curve $-1 -41.221368489286029 8.4754421225013807 5.3115171708076199 -0.73135370988377701 0 0.68199835119979291 0.68199835119979291 0 0.73135370988377701 1 I I #
point $-1 -41.929805964097767 8.4754421225013807 7.3394732332516659 #
edge $-1 $482 1 $482 0 $277 $-1 forward 7 unknown #
vertex $-1 $278 $483 #
ellipse-curve $-1 -41.221368489286029 14.029873080547876 5.3115171708076199 -0.73135370988377701 0 0.68199835119979291 0.68199835119979291 0 0.73135370988377701 1 I I #
point $-1 -41.929805964097767 14.029873080547876 7.3394732332516659 #
plane-surface $-1 0 0 10.207413013917048 0 0 1 1 0 0 forward_v I I I I #
coedge $-1 $412 $411 $404 $484 forward $282 $-1 #
coedge $-1 $404 $284 $286 $408 reversed $186 $-1 #
coedge $-1 $284 $403 $402 $484 reversed $186 $-1 #
coedge $-1 $292 $287 $284 $406 forward $293 $-1 #
edge $-1 $409 23.046817632849702 $485 30.906685268809831 $405 $486 forward 7 unknown #
coedge $-1 $286 $285 $412 $487 reversed $117 $-1 #
edge $-1 $488 -91.936399426252052 $409 -81.962084151807701 $403 $489 forward 7 unknown #
vertex $-1 $288 $490 #
straight-curve $-1 38.108332077165876 8.5344474230562692 10.207413013917041 0 -1 0 I I #
coedge $-1 $402 $289 $292 $416 reversed $282 $-1 #
coedge $-1 $289 $402 $407 $487 forward $282 $-1 #
vertex $-1 $290 $491 #
straight-curve $-1 45.968199713126012 22.596140170898995 66.557591068795944 0 0 1 I I #
straight-curve $-1 -26.478671128076414 22.596140170898995 60.668311296389476 0.78801074757464917 0 -0.61566148304635926 I I #
edge $-1 $485 11.541649521326082 $294 22.596140170898995 $411 $492 forward 7 unknown #
point $-1 45.968199713126012 22.596140170898995 10.207413013917048 #
point $-1 38.108332077165883 22.596140170898995 10.207413013917048 #
edge $-1 $493 1 $493 0 $297 $-1 forward 7 unknown #
vertex $-1 $298 $494 #
ellipse-curve $-1 40.492075680513828 17.068894846112538 5.1579789597688581 0.61566148304635926 0 0.78801074757464917 1.5760214951492983 0 -1.2313229660927185 1 I I #
point $-1 43.614287390295253 17.068894846112538 5.9056891807061707 #
plane-surface $-1 45.968199713126012 0 0 -1 0 0 0 0 1 forward_v I I I I #
coedge $-1 $306 $304 $308 $428 reversed $201 $-1 #
edge $-1 $319 -10.207413013917048 $430 10.207413013917048 $318 $495 forward 7 unknown #
vertex $-1 $428 $496 #
straight-curve $-1 -45.968199713126012 -30.784679027218413 0 0 0 -1 I I #
edge $-1 $426 -30.784679027218413 $430 30.784679027218413 $424 $497 forward 7 unknown #
straight-curve $-1 0 -30.784679027218413 -10.207413013917048 -1 0 0 I I #
vertex $-1 $311 $498 #
straight-curve $-1 0 30.784679027218413 -10.207413013917048 1 0 0 I I #
point $-1 45.968199713126012 30.784679027218413 -10.207413013917048 #
point $-1 45.968199713126012 -30.784679027218413 -10.207413013917048 #
straight-curve $-1 -45.968199713126012 0 10.207413013917048 0 -1 0 I I #
point $-1 -45.968199713126012 30.784679027218413 10.207413013917048 #
point $-1 -45.968199713126012 -30.784679027218413 10.207413013917048 #
straight-curve $-1 45.968199713126012 -30.784679027218413 0 0 0 -1 I I #
straight-curve $-1 45.968199713126012 30.784679027218413 0 0 0 -1 I I #
plane-surface $-1 45.968199713126012 0 0 -1 0 0 0 0 1 forward_v I I I I #
coedge $-1 $499 $443 $335 $448 forward $329 $-1 #
coedge $-1 $336 $331 $499 $500 forward $220 $-1 #
edge $-1 $345 -4.7724881504703731 $501 4.7724881504703731 $343 $502 forward 7 unknown #
coedge $-1 $440 $503 $332 $444 reversed $329 $-1 #
edge $-1 $451 -45.968199713126012 $446 45.968199713126012 $443 $504 forward 7 unknown #
coedge $-1 $343 $333 $503 $505 forward $344 $-1 #
vertex $-1 $334 $506 #
straight-curve $-1 45.968199713126012 -35.557167177688783 -4.0111035716961769 0 1 0 I I #
edge $-1 $451 -1.5065178404066355 $449 1.5065178404066355 $335 $507 forward 7 unknown #
vertex $-1 $337 $508 #
straight-curve $-1 -45.968199713126012 -35.557167177688783 -7.0241392525094479 0 1 0 I I #
vertex $-1 $338 $509 #
straight-curve $-1 -45.968199713126012 -35.557167177688783 -4.0111035716961769 0 -1 0 I I #
point $-1 -45.968199713126012 -30.784679027218409 -7.0241392525094479 #
straight-curve $-1 0 -30.784679027218413 -7.0241392525094479 -1 0 0 I I #
point $-1 45.968199713126012 -30.784679027218409 -7.0241392525094479 #
coedge $-1 $360 $359 $352 $457 forward $349 $-1 #
edge $-1 $458 22.647236414467052 $461 29.845823395565382 $456 $510 forward 7 unknown #
vertex $-1 $364 $511 #
straight-curve $-1 -56.603113253436085 4.7724881504703767 10.207413013917048 -1 0 0 I I #
edge $-1 $461 -5.626328800762316 $361 7.3340101013461947 $360 $512 forward 7 unknown #
vertex $-1 $460 $513 #
straight-curve $-1 -45.968199713125998 4.7724881504703767 3.0088260328187317 0.68199835119979291 0 0.73135370988377701 I I #
point $-1 -39.255408917469097 4.7724881504703767 10.207413013917048 #
point $-1 -45.968199713126012 -8.187850751638134 3.0088260328187166 #
straight-curve $-1 -45.968199713126012 0 10.207413013917048 0 -1 0 I I #
vertex $-1 $367 $514 #
point $-1 -40.539370138086234 -4.48489677960713 6.0428708806913969 #
vertex $-1 $371 $515 #
point $-1 -40.539370138086234 1.0695341784393726 6.0428708806913969 #
straight-curve $-1 -45.968199713125998 17.732827052578884 3.0088260328187317 0.68199835119979291 0 0.73135370988377701 I I #
coedge $-1 $379 $385 $381 $473 reversed $375 $-1 #
straight-curve $-1 -45.968199713126012 17.732827052578884 32.8546494283841 0 0 -1 I I #
edge $-1 $383 -17.732827052578884 $477 -4.7724881504703767 $471 $516 forward 7 unknown #
point $-1 -39.255408917469097 17.732827052578884 10.207413013917048 #
point $-1 -45.968199713126012 17.732827052578884 10.207413013917048 #
point $-1 -45.968199713126012 17.732827052578884 3.0088260328187166 #
vertex $-1 $390 $517 #
straight-curve $-1 -56.603113253436085 4.7724881504703767 10.207413013917048 1 0 0 I I #
straight-curve $-1 -45.968199713126012 4.7724881504703767 32.8546494283841 0 0 1 I I #
vertex $-1 $393 $518 #
point $-1 -40.539370138086234 8.4754421225013807 6.0428708806913969 #
vertex $-1 $397 $519 #
point $-1 -40.539370138086234 14.029873080547876 6.0428708806913969 #
edge $-1 $485 56.350178054878896 $488 62.490979789115258 $402 $520 forward 7 unknown #
vertex $-1 $416 $521 #
straight-curve $-1 15.061514444316181 11.541649521326082 10.207413013917048 1 0 0 I I #
edge $-1 $488 3.0072020982698131 $413 14.061692747842725 $412 $522 forward 7 unknown #
vertex $-1 $487 $523 #
straight-curve $-1 -26.478671128076414 11.541649521326082 60.668311296389476 -0.78801074757464917 0 0.61566148304635926 I I #
point $-1 38.108332077165883 11.541649521326082 10.207413013917048 #
point $-1 45.968199713126012 22.596140170898995 4.0666112796806857 #
straight-curve $-1 45.968199713126012 0 10.207413013917048 0 1 0 I I #
vertex $-1 $419 $524 #
point $-1 42.068097175663127 17.068894846112538 3.9266559936761398 #
straight-curve $-1 -45.968199713126012 30.784679027218413 0 0 0 -1 I I #
point $-1 -45.968199713126012 -30.784679027218413 -10.207413013917048 #
straight-curve $-1 -45.968199713126012 0 -10.207413013917048 0 1 0 I I #
point $-1 -45.968199713126012 30.784679027218413 -10.207413013917048 #
coedge $-1 $503 $440 $441 $500 reversed $329 $-1 #
edge $-1 $501 -45.968199713126012 $449 45.968199713126012 $499 $525 forward 7 unknown #
vertex $-1 $505 $526 #
straight-curve $-1 45.968199713126012 -35.557167177688783 -7.0241392525094479 0 -1 0 I I #
coedge $-1 $443 $499 $445 $505 reversed $329 $-1 #
straight-curve $-1 0 -40.329655328159156 -4.0111035716961769 1 0 0 I I #
edge $-1 $446 -1.5065178404066355 $501 1.5065178404066355 $445 $527 forward 7 unknown #
point $-1 45.968199713126012 -40.329655328159156 -4.0111035716961769 #
straight-curve $-1 -45.968199713126012 -40.329655328159156 -5.5176214121028124 0 0 -1 I I #
point $-1 -45.968199713126012 -40.329655328159156 -7.0241392525094479 #
point $-1 -45.968199713126012 -40.329655328159156 -4.0111035716961769 #
straight-curve $-1 -45.968199713126012 4.7724881504703767 32.8546494283841 0 0 -1 I I #
point $-1 -45.968199713126012 4.7724881504703767 10.207413013917048 #
straight-curve $-1 -45.968199713126012 -0.85384065029193934 3.0088260328187135 0 -1 0 I I #
point $-1 -45.968199713126012 4.7724881504703767 3.0088260328187166 #
point $-1 -40.490014779402252 -4.48489677960713 4.629518819607827 #
point $-1 -40.490014779402252 1.0695341784393726 4.629518819607827 #
straight-curve $-1 -45.968199713126012 0 10.207413013917048 0 -1 0 I I #
point $-1 -45.968199713126012 4.7724881504703767 10.207413013917048 #
point $-1 -40.490014779402252 8.4754421225013807 4.629518819607827 #
point $-1 -40.490014779402252 14.029873080547876 4.629518819607827 #
straight-curve $-1 45.968199713126012 11.541649521326082 66.557591068795944 0 0 -1 I I #
point $-1 45.968199713126012 11.541649521326082 10.207413013917048 #
straight-curve $-1 45.968199713126019 8.5344474230562692 4.0666112796806786 0 1 0 I I #
point $-1 45.968199713126012 11.541649521326082 4.0666112796806857 #
point $-1 39.260752714421109 17.068894846112538 3.5819574646195598 #
straight-curve $-1 0 -40.329655328159156 -7.0241392525094479 -1 0 0 I I #
point $-1 45.968199713126012 -40.329655328159156 -7.0241392525094479 #
straight-curve $-1 45.968199713126012 -40.329655328159156 -5.5176214121028124 0 0 -1 I I #
End-of-ACIS-data 