500 0 21 0           
7 Unknown 11 ACIS 5.0 NT 24 Fri Mar 26 15:10:57 1999 
-1 9.9999999999999995e-007 1e-010 
body $-1 $21 $-1 $22 #
body $-1 $23 $-1 $24 #
body $-1 $25 $-1 $26 #
body $-1 $27 $-1 $28 #
body $-1 $29 $-1 $30 #
body $-1 $31 $-1 $32 #
body $-1 $33 $-1 $34 #
body $-1 $35 $-1 $36 #
body $-1 $37 $-1 $38 #
body $-1 $39 $-1 $40 #
body $-1 $41 $-1 $42 #
body $-1 $43 $-1 $44 #
body $-1 $45 $-1 $46 #
body $-1 $47 $-1 $48 #
body $-1 $49 $-1 $50 #
body $-1 $51 $-1 $52 #
body $-1 $53 $-1 $54 #
body $-1 $55 $-1 $56 #
body $-1 $57 $-1 $58 #
body $-1 $59 $-1 $60 #
body $-1 $61 $-1 $62 #
lump $-1 $-1 $63 $0 #
transform $-1 1 0 0 0 1 0 0 0 1 79.039277321695607 43.947401271147932 14.475268340071361 1 rotate no_reflect no_shear #
lump $-1 $-1 $64 $1 #
transform $-1 1 0 0 0 1 0 0 0 1 79.039277321695607 43.947401271147932 14.475268340071361 1 rotate no_reflect no_shear #
lump $-1 $-1 $65 $2 #
transform $-1 1 0 0 0 1 0 0 0 1 79.039277321695607 43.947401271147932 14.475268340071361 1 rotate no_reflect no_shear #
lump $-1 $-1 $66 $3 #
transform $-1 1 0 0 0 1 0 0 0 1 79.039277321695607 43.947401271147932 14.475268340071361 1 rotate no_reflect no_shear #
lump $-1 $-1 $67 $4 #
transform $-1 1 0 0 0 1 0 0 0 1 79.039277321695607 43.947401271147932 14.475268340071361 1 rotate no_reflect no_shear #
lump $-1 $-1 $68 $5 #
transform $-1 1 0 0 0 1 0 0 0 1 79.039277321695607 43.947401271147932 14.475268340071361 1 rotate no_reflect no_shear #
lump $-1 $-1 $69 $6 #
transform $-1 1 0 0 0 1 0 0 0 1 79.039277321695607 43.947401271147932 14.475268340071361 1 rotate no_reflect no_shear #
lump $-1 $-1 $70 $7 #
transform $-1 1 0 0 0 1 0 0 0 1 79.039277321695607 43.947401271147932 14.475268340071361 1 rotate no_reflect no_shear #
lump $-1 $-1 $71 $8 #
transform $-1 1 0 0 0 1 0 0 0 1 79.039277321695607 43.947401271147932 14.475268340071361 1 rotate no_reflect no_shear #
lump $-1 $-1 $72 $9 #
transform $-1 1 0 0 0 1 0 0 0 1 79.039277321695607 43.947401271147932 14.475268340071361 1 rotate no_reflect no_shear #
lump $-1 $-1 $73 $10 #
transform $-1 1 0 0 0 1 0 0 0 1 79.039277321695607 43.947401271147932 14.475268340071361 1 rotate no_reflect no_shear #
lump $-1 $-1 $74 $11 #
transform $-1 1 0 0 0 1 0 0 0 1 79.039277321695607 43.947401271147932 14.475268340071361 1 rotate no_reflect no_shear #
lump $-1 $-1 $75 $12 #
transform $-1 1 0 0 0 1 0 0 0 1 79.039277321695607 43.947401271147932 14.475268340071361 1 rotate no_reflect no_shear #
lump $-1 $-1 $76 $13 #
transform $-1 1 0 0 0 1 0 0 0 1 79.039277321695607 43.947401271147932 14.475268340071361 1 rotate no_reflect no_shear #
lump $-1 $-1 $77 $14 #
transform $-1 1 0 0 0 1 0 0 0 1 79.039277321695607 43.947401271147932 14.475268340071361 1 rotate no_reflect no_shear #
lump $-1 $-1 $78 $15 #
transform $-1 1 0 0 0 1 0 0 0 1 79.039277321695607 43.947401271147932 14.475268340071361 1 rotate no_reflect no_shear #
lump $-1 $-1 $79 $16 #
transform $-1 1 0 0 0 1 0 0 0 1 79.039277321695607 43.947401271147932 14.475268340071361 1 rotate no_reflect no_shear #
lump $-1 $-1 $80 $17 #
transform $-1 1 0 0 0 1 0 0 0 1 79.039277321695607 43.947401271147932 14.475268340071361 1 rotate no_reflect no_shear #
lump $-1 $-1 $81 $18 #
transform $-1 1 0 0 0 1 0 0 0 1 79.039277321695607 43.947401271147932 14.475268340071361 1 rotate no_reflect no_shear #
lump $-1 $-1 $82 $19 #
transform $-1 1 0 0 0 1 0 0 0 1 79.039277321695607 43.947401271147932 14.475268340071361 1 rotate no_reflect no_shear #
lump $-1 $-1 $83 $20 #
transform $-1 1 0 0 0 1 0 0 0 1 79.039277321695607 43.947401271147932 14.475268340071361 1 rotate no_reflect no_shear #
shell $-1 $-1 $-1 $84 $-1 $21 #
shell $-1 $-1 $-1 $85 $-1 $23 #
shell $-1 $-1 $-1 $86 $-1 $25 #
shell $-1 $-1 $-1 $87 $-1 $27 #
shell $-1 $-1 $-1 $88 $-1 $29 #
shell $-1 $-1 $-1 $89 $-1 $31 #
shell $-1 $-1 $-1 $90 $-1 $33 #
shell $-1 $-1 $-1 $91 $-1 $35 #
shell $-1 $-1 $-1 $92 $-1 $37 #
shell $-1 $-1 $-1 $93 $-1 $39 #
shell $-1 $-1 $-1 $94 $-1 $41 #
shell $-1 $-1 $-1 $95 $-1 $43 #
shell $-1 $-1 $-1 $96 $-1 $45 #
shell $-1 $-1 $-1 $97 $-1 $47 #
shell $-1 $-1 $-1 $98 $-1 $49 #
shell $-1 $-1 $-1 $99 $-1 $51 #
shell $-1 $-1 $-1 $100 $-1 $53 #
shell $-1 $-1 $-1 $101 $-1 $55 #
shell $-1 $-1 $-1 $102 $-1 $57 #
shell $-1 $-1 $-1 $103 $-1 $59 #
shell $-1 $-1 $-1 $104 $-1 $61 #
face $-1 $105 $106 $63 $-1 $107 forward single #
face $-1 $108 $109 $64 $-1 $110 forward single #
face $-1 $111 $112 $65 $-1 $113 reversed single #
face $-1 $114 $115 $66 $-1 $116 forward single #
face $-1 $117 $118 $67 $-1 $119 forward single #
face $-1 $120 $121 $68 $-1 $122 reversed single #
face $-1 $123 $124 $69 $-1 $125 forward single #
face $-1 $126 $127 $70 $-1 $128 forward single #
face $-1 $129 $130 $71 $-1 $131 forward single #
face $-1 $132 $133 $72 $-1 $134 reversed single #
face $-1 $135 $136 $73 $-1 $137 forward single #
face $-1 $138 $139 $74 $-1 $140 forward single #
face $-1 $141 $142 $75 $-1 $143 forward single #
face $-1 $144 $145 $76 $-1 $146 reversed single #
face $-1 $147 $148 $77 $-1 $149 forward single #
face $-1 $150 $151 $78 $-1 $152 forward single #
face $-1 $153 $154 $79 $-1 $155 forward single #
face $-1 $156 $157 $80 $-1 $158 reversed single #
face $-1 $159 $160 $81 $-1 $161 forward single #
face $-1 $162 $163 $82 $-1 $164 forward single #
face $-1 $165 $166 $83 $-1 $167 forward single #
face $-1 $168 $169 $63 $-1 $170 reversed single #
loop $-1 $-1 $171 $84 #
plane-surface $-1 0 0 14.475268340071361 0 0 1 1 0 0 forward_v I I I I #
face $-1 $172 $173 $64 $-1 $174 reversed single #
loop $-1 $-1 $175 $85 #
plane-surface $-1 -79.039277321695607 0 0 1 0 0 0 0 -1 forward_v I I I I #
face $-1 $176 $177 $65 $-1 $178 reversed single #
loop $-1 $-1 $179 $86 #
plane-surface $-1 -18.209838545924935 -127.71627374489688 134.68719033903 -1 0 0 0 -0.52991927123019833 0.84804809178421925 forward_v I I I I #
face $-1 $180 $181 $66 $-1 $182 forward single #
loop $-1 $183 $184 $87 #
cone-surface $-1 -34.301490214428384 -30.764092221710829 4.1850851548870329 0 0.52991927123019833 -0.84804809178421925 2 0 0 1 I I 0 1 2 forward I I I I #
face $-1 $185 $186 $67 $-1 $187 forward single #
loop $-1 $188 $189 $88 #
cone-surface $-1 -24.646499213326315 -30.764092221710829 4.1850851548870329 0 0.52991927123019833 -0.84804809178421925 2 0 0 1 I I 0 1 2 forward I I I I #
face $-1 $190 $191 $68 $-1 $192 reversed single #
loop $-1 $-1 $193 $89 #
plane-surface $-1 -46.333780009843693 56.328370296434763 184.71755914049339 1 0 0 0 -0.54463904215088732 -0.83867056331134215 forward_v I I I I #
face $-1 $194 $195 $69 $-1 $196 forward single #
loop $-1 $197 $198 $90 #
cone-surface $-1 -42.826294533794886 35.055141248649917 7.7784993885522802 0 -0.54463904215088732 -0.83867056331134215 1 0 0 1 I I 0 1 1 forward I I I I #
face $-1 $199 $200 $70 $-1 $201 forward single #
loop $-1 $202 $203 $91 #
cone-surface $-1 -37.56506631972168 35.055141248649917 7.7784993885522802 0 -0.54463904215088732 -0.83867056331134215 1 0 0 1 I I 0 1 1 forward I I I I #
face $-1 $204 $205 $71 $-1 $206 forward single #
loop $-1 $207 $208 $92 #
cone-surface $-1 -32.303838105648474 35.055141248649917 7.7784993885522802 0 -0.54463904215088732 -0.83867056331134215 1 0 0 1 I I 0 1 1 forward I I I I #
face $-1 $209 $210 $72 $-1 $211 reversed single #
loop $-1 $-1 $212 $93 #
plane-surface $-1 -16.524497560585626 56.328370296434763 184.71755914049339 1 0 0 0 -0.54463904215088732 -0.83867056331134215 forward_v I I I I #
face $-1 $213 $214 $73 $-1 $215 forward single #
loop $-1 $216 $217 $94 #
cone-surface $-1 -13.017012084536816 35.055141248649917 7.7784993885522802 0 -0.54463904215088732 -0.83867056331134215 1 0 0 1 I I 0 1 1 forward I I I I #
face $-1 $218 $219 $74 $-1 $220 forward single #
loop $-1 $221 $222 $95 #
cone-surface $-1 -7.7557838704636168 35.055141248649917 7.7784993885522802 0 -0.54463904215088732 -0.83867056331134215 1 0 0 1 I I 0 1 1 forward I I I I #
face $-1 $223 $224 $75 $-1 $225 forward single #
loop $-1 $226 $227 $96 #
cone-surface $-1 -2.4945556563904177 35.055141248649917 7.7784993885522802 0 -0.54463904215088732 -0.83867056331134215 1 0 0 1 I I 0 1 1 forward I I I I #
face $-1 $228 $229 $76 $-1 $230 reversed single #
loop $-1 $-1 $231 $97 #
plane-surface $-1 13.284784888672437 56.328370296434763 184.71755914049339 1 0 0 0 -0.54463904215088732 -0.83867056331134215 forward_v I I I I #
face $-1 $232 $233 $77 $-1 $234 forward single #
loop $-1 $235 $236 $98 #
cone-surface $-1 16.792270364721247 35.055141248649917 7.7784993885522802 0 -0.54463904215088732 -0.83867056331134215 1 0 0 1 I I 0 1 1 forward I I I I #
face $-1 $237 $238 $78 $-1 $239 forward single #
loop $-1 $240 $241 $99 #
cone-surface $-1 22.053498578794446 35.055141248649917 7.7784993885522802 0 -0.54463904215088732 -0.83867056331134215 1 0 0 1 I I 0 1 1 forward I I I I #
face $-1 $242 $243 $79 $-1 $244 forward single #
loop $-1 $245 $246 $100 #
cone-surface $-1 27.314726792867646 35.055141248649917 7.7784993885522802 0 -0.54463904215088732 -0.83867056331134215 1 0 0 1 I I 0 1 1 forward I I I I #
face $-1 $247 $248 $80 $-1 $249 reversed single #
loop $-1 $-1 $250 $101 #
plane-surface $-1 43.094067337930511 56.328370296434763 184.71755914049339 1 0 0 0 -0.54463904215088732 -0.83867056331134215 forward_v I I I I #
face $-1 $251 $252 $81 $-1 $253 forward single #
loop $-1 $254 $255 $102 #
cone-surface $-1 46.60155281397931 35.055141248649917 7.7784993885522802 0 -0.54463904215088732 -0.83867056331134215 1 0 0 1 I I 0 1 1 forward I I I I #
face $-1 $256 $257 $82 $-1 $258 forward single #
loop $-1 $259 $260 $103 #
cone-surface $-1 51.862781028052524 35.055141248649917 7.7784993885522802 0 -0.54463904215088732 -0.83867056331134215 1 0 0 1 I I 0 1 1 forward I I I I #
face $-1 $261 $262 $83 $-1 $263 forward single #
loop $-1 $264 $265 $104 #
cone-surface $-1 57.124009242125709 35.055141248649917 7.7784993885522802 0 -0.54463904215088732 -0.83867056331134215 1 0 0 1 I I 0 1 1 forward I I I I #
face $-1 $266 $267 $63 $-1 $268 reversed single #
loop $-1 $-1 $269 $105 #
plane-surface $-1 0 0 -14.475268340071361 0 0 1 1 0 0 forward_v I I I I #
coedge $-1 $270 $271 $272 $273 forward $106 $-1 #
face $-1 $274 $275 $64 $-1 $276 forward single #
loop $-1 $-1 $277 $108 #
plane-surface $-1 0 43.947401271147932 0 0 -1 0 0 0 -1 forward_v I I I I #
coedge $-1 $278 $279 $280 $281 forward $109 $-1 #
face $-1 $282 $283 $65 $-1 $284 reversed single #
loop $-1 $-1 $285 $111 #
plane-surface $-1 -29.473994713877346 -43.947401271147925 0.62897372169464916 0 -0.52991927123019833 0.84804809178421925 1 0 0 forward_v I I I I #
coedge $-1 $286 $287 $288 $289 reversed $112 $-1 #
face $-1 $-1 $290 $66 $-1 $291 forward single #
loop $-1 $292 $293 $114 #
cone-surface $-1 -34.301490214428384 -28.130215386163975 -0.029998812893150983 0 0.52991927123019833 -0.84804809178421925 1 0 0 1 I I -0.70710678118654746 0.70710678118654746 1 forward I I I I #
loop $-1 $-1 $294 $87 #
coedge $-1 $184 $184 $295 $296 reversed $115 $-1 #
face $-1 $-1 $297 $67 $-1 $298 forward single #
loop $-1 $299 $300 $117 #
cone-surface $-1 -24.646499213326315 -28.130215386163975 -0.029998812893150983 0 0.52991927123019833 -0.84804809178421925 1 0 0 1 I I -0.70710678118654746 0.70710678118654746 1 forward I I I I #
loop $-1 $-1 $301 $88 #
coedge $-1 $189 $189 $302 $303 reversed $118 $-1 #
face $-1 $304 $305 $68 $-1 $306 reversed single #
loop $-1 $-1 $307 $120 #
plane-surface $-1 -37.56506631972168 -29.767382289138531 52.141728670277701 0 0.54463904215088732 0.83867056331134215 1 0 0 forward_v I I I I #
coedge $-1 $308 $309 $310 $311 reversed $121 $-1 #
face $-1 $-1 $312 $69 $-1 $313 forward single #
loop $-1 $314 $315 $123 #
cone-surface $-1 -42.826294533794886 33.747322738730908 5.7646355236130713 0 -0.54463904215088732 -0.83867056331134215 0.5 0 0 1 I I -0.70710678118654746 0.70710678118654746 0.5 forward I I I I #
loop $-1 $-1 $316 $90 #
coedge $-1 $198 $198 $317 $318 reversed $124 $-1 #
face $-1 $-1 $319 $70 $-1 $320 forward single #
loop $-1 $321 $322 $126 #
cone-surface $-1 -37.56506631972168 33.747322738730908 5.7646355236130713 0 -0.54463904215088732 -0.83867056331134215 0.5 0 0 1 I I -0.70710678118654746 0.70710678118654746 0.5 forward I I I I #
loop $-1 $-1 $323 $91 #
coedge $-1 $203 $203 $324 $325 reversed $127 $-1 #
face $-1 $-1 $326 $71 $-1 $327 forward single #
loop $-1 $328 $329 $129 #
cone-surface $-1 -32.303838105648474 33.747322738730908 5.7646355236130713 0 -0.54463904215088732 -0.83867056331134215 0.5 0 0 1 I I -0.70710678118654746 0.70710678118654746 0.5 forward I I I I #
loop $-1 $-1 $330 $92 #
coedge $-1 $208 $208 $331 $332 reversed $130 $-1 #
face $-1 $333 $334 $72 $-1 $335 reversed single #
loop $-1 $-1 $336 $132 #
plane-surface $-1 -7.7557838704636168 -29.767382289138531 52.141728670277701 0 0.54463904215088732 0.83867056331134215 1 0 0 forward_v I I I I #
coedge $-1 $337 $338 $339 $340 reversed $133 $-1 #
face $-1 $-1 $341 $73 $-1 $342 forward single #
loop $-1 $343 $344 $135 #
cone-surface $-1 -13.017012084536816 33.747322738730908 5.7646355236130713 0 -0.54463904215088732 -0.83867056331134215 0.5 0 0 1 I I -0.70710678118654746 0.70710678118654746 0.5 forward I I I I #
loop $-1 $-1 $345 $94 #
coedge $-1 $217 $217 $346 $347 reversed $136 $-1 #
face $-1 $-1 $348 $74 $-1 $349 forward single #
loop $-1 $350 $351 $138 #
cone-surface $-1 -7.7557838704636168 33.747322738730908 5.7646355236130713 0 -0.54463904215088732 -0.83867056331134215 0.5 0 0 1 I I -0.70710678118654746 0.70710678118654746 0.5 forward I I I I #
loop $-1 $-1 $352 $95 #
coedge $-1 $222 $222 $353 $354 reversed $139 $-1 #
face $-1 $-1 $355 $75 $-1 $356 forward single #
loop $-1 $357 $358 $141 #
cone-surface $-1 -2.4945556563904177 33.747322738730908 5.7646355236130713 0 -0.54463904215088732 -0.83867056331134215 0.5 0 0 1 I I -0.70710678118654746 0.70710678118654746 0.5 forward I I I I #
loop $-1 $-1 $359 $96 #
coedge $-1 $227 $227 $360 $361 reversed $142 $-1 #
face $-1 $362 $363 $76 $-1 $364 reversed single #
loop $-1 $-1 $365 $144 #
plane-surface $-1 22.053498578794446 -29.767382289138531 52.141728670277701 0 0.54463904215088732 0.83867056331134215 1 0 0 forward_v I I I I #
coedge $-1 $366 $367 $368 $369 reversed $145 $-1 #
face $-1 $-1 $370 $77 $-1 $371 forward single #
loop $-1 $372 $373 $147 #
cone-surface $-1 16.792270364721247 33.747322738730908 5.7646355236130713 0 -0.54463904215088732 -0.83867056331134215 0.5 0 0 1 I I -0.70710678118654746 0.70710678118654746 0.5 forward I I I I #
loop $-1 $-1 $374 $98 #
coedge $-1 $236 $236 $375 $376 reversed $148 $-1 #
face $-1 $-1 $377 $78 $-1 $378 forward single #
loop $-1 $379 $380 $150 #
cone-surface $-1 22.053498578794446 33.747322738730908 5.7646355236130713 0 -0.54463904215088732 -0.83867056331134215 0.5 0 0 1 I I -0.70710678118654746 0.70710678118654746 0.5 forward I I I I #
loop $-1 $-1 $381 $99 #
coedge $-1 $241 $241 $382 $383 reversed $151 $-1 #
face $-1 $-1 $384 $79 $-1 $385 forward single #
loop $-1 $386 $387 $153 #
cone-surface $-1 27.314726792867646 33.747322738730908 5.7646355236130713 0 -0.54463904215088732 -0.83867056331134215 0.5 0 0 1 I I -0.70710678118654746 0.70710678118654746 0.5 forward I I I I #
loop $-1 $-1 $388 $100 #
coedge $-1 $246 $246 $389 $390 reversed $154 $-1 #
face $-1 $391 $392 $80 $-1 $393 reversed single #
loop $-1 $-1 $394 $156 #
plane-surface $-1 51.862781028052524 -29.767382289138531 52.141728670277701 0 0.54463904215088732 0.83867056331134215 1 0 0 forward_v I I I I #
coedge $-1 $395 $396 $397 $398 reversed $157 $-1 #
face $-1 $-1 $399 $81 $-1 $400 forward single #
loop $-1 $401 $402 $159 #
cone-surface $-1 46.60155281397931 33.747322738730908 5.7646355236130713 0 -0.54463904215088732 -0.83867056331134215 0.5 0 0 1 I I -0.70710678118654746 0.70710678118654746 0.5 forward I I I I #
loop $-1 $-1 $403 $102 #
coedge $-1 $255 $255 $404 $405 reversed $160 $-1 #
face $-1 $-1 $406 $82 $-1 $407 forward single #
loop $-1 $408 $409 $162 #
cone-surface $-1 51.862781028052524 33.747322738730908 5.7646355236130713 0 -0.54463904215088732 -0.83867056331134215 0.5 0 0 1 I I -0.70710678118654746 0.70710678118654746 0.5 forward I I I I #
loop $-1 $-1 $410 $103 #
coedge $-1 $260 $260 $411 $412 reversed $163 $-1 #
face $-1 $-1 $413 $83 $-1 $414 forward single #
loop $-1 $415 $416 $165 #
cone-surface $-1 57.124009242125709 33.747322738730908 5.7646355236130713 0 -0.54463904215088732 -0.83867056331134215 0.5 0 0 1 I I -0.70710678118654746 0.70710678118654746 0.5 forward I I I I #
loop $-1 $-1 $417 $104 #
coedge $-1 $265 $265 $418 $419 reversed $166 $-1 #
face $-1 $420 $421 $63 $-1 $422 reversed single #
loop $-1 $-1 $423 $168 #
plane-surface $-1 0 -43.947401271147932 0 0 1 0 0 0 1 forward_v I I I I #
coedge $-1 $424 $425 $426 $427 forward $169 $-1 #
coedge $-1 $428 $171 $429 $430 forward $106 $-1 #
coedge $-1 $171 $428 $431 $432 forward $106 $-1 #
coedge $-1 $433 $434 $171 $273 reversed $435 $-1 #
edge $-1 $436 -43.947401271147932 $437 43.947401271147932 $272 $438 forward 7 unknown #
face $-1 $439 $440 $64 $-1 $441 reversed single #
loop $-1 $-1 $280 $172 #
plane-surface $-1 -86.188134675861036 0 -8.7764293666960587 0 0 1 1 0 0 forward_v I I I I #
coedge $-1 $442 $443 $279 $444 forward $173 $-1 #
coedge $-1 $445 $175 $446 $447 reversed $109 $-1 #
coedge $-1 $175 $445 $277 $444 reversed $109 $-1 #
coedge $-1 $448 $449 $175 $281 reversed $275 $-1 #
edge $-1 $450 -43.947401271147932 $451 43.947401271147932 $280 $452 forward 7 unknown #
face $-1 $453 $454 $65 $-1 $455 reversed single #
loop $-1 $-1 $456 $176 #
plane-surface $-1 -40.738150881829753 -127.71627374489688 134.68719033903 1 0 0 0 0.52991927123019833 -0.84804809178421925 forward_v I I I I #
coedge $-1 $457 $458 $459 $460 reversed $177 $-1 #
coedge $-1 $287 $179 $461 $462 reversed $112 $-1 #
coedge $-1 $179 $286 $457 $463 reversed $112 $-1 #
coedge $-1 $459 $464 $179 $289 forward $465 $-1 #
edge $-1 $466 19.910735601300509 $467 42.069438571541383 $288 $468 forward 7 unknown #
loop $-1 $-1 $295 $180 #
plane-surface $-1 -29.473994713877346 -43.947401271147925 0.62897372169464916 0 -0.52991927123019833 0.84804809178421925 1 0 0 forward_v I I I I #
loop $-1 $-1 $469 $114 #
coedge $-1 $293 $293 $294 $470 reversed $181 $-1 #
coedge $-1 $294 $294 $293 $470 forward $183 $-1 #
coedge $-1 $295 $295 $184 $296 forward $290 $-1 #
edge $-1 $471 1.1302206124029399e-015 $471 6.2831853071796013 $295 $472 forward 7 unknown #
loop $-1 $-1 $302 $185 #
plane-surface $-1 -29.473994713877346 -43.947401271147925 0.62897372169464916 0 -0.52991927123019833 0.84804809178421925 1 0 0 forward_v I I I I #
loop $-1 $-1 $473 $117 #
coedge $-1 $300 $300 $301 $474 reversed $186 $-1 #
coedge $-1 $301 $301 $300 $474 forward $188 $-1 #
coedge $-1 $302 $302 $189 $303 forward $297 $-1 #
edge $-1 $475 1.1302206124029399e-015 $475 6.2831853071796013 $302 $476 forward 7 unknown #
face $-1 $477 $478 $68 $-1 $479 forward single #
loop $-1 $-1 $480 $190 #
plane-surface $-1 -28.796352629599671 56.328370296434763 184.71755914049339 -1 0 0 0 0.54463904215088732 0.83867056331134215 forward_v I I I I #
coedge $-1 $481 $482 $483 $484 reversed $191 $-1 #
coedge $-1 $309 $193 $485 $486 reversed $121 $-1 #
coedge $-1 $193 $308 $481 $487 reversed $121 $-1 #
coedge $-1 $483 $488 $193 $311 forward $478 $-1 #
edge $-1 $489 -15.783216122930551 $490 -0.069694055621706497 $310 $491 forward 7 unknown #
loop $-1 $-1 $317 $194 #
plane-surface $-1 -37.56506631972168 -29.767382289138531 52.141728670277701 0 0.54463904215088732 0.83867056331134215 1 0 0 forward_v I I I I #
loop $-1 $-1 $492 $123 #
coedge $-1 $315 $315 $316 $493 reversed $195 $-1 #
coedge $-1 $316 $316 $315 $493 forward $197 $-1 #
coedge $-1 $317 $317 $198 $318 forward $312 $-1 #
edge $-1 $494 1.6264004962737118e-015 $494 6.2831853071796022 $317 $495 forward 7 unknown #
loop $-1 $-1 $324 $199 #
plane-surface $-1 -37.56506631972168 -29.767382289138531 52.141728670277701 0 0.54463904215088732 0.83867056331134215 1 0 0 forward_v I I I I #
loop $-1 $-1 $496 $126 #
coedge $-1 $322 $322 $323 $497 reversed $200 $-1 #
coedge $-1 $323 $323 $322 $497 forward $202 $-1 #
coedge $-1 $324 $324 $203 $325 forward $319 $-1 #
edge $-1 $498 1.6264004962737118e-015 $498 6.2831853071796022 $324 $499 forward 7 unknown #
loop $-1 $-1 $331 $204 #
plane-surface $-1 -37.56506631972168 -29.767382289138531 52.141728670277701 0 0.54463904215088732 0.83867056331134215 1 0 0 forward_v I I I I #
loop $-1 $-1 $500 $129 #
coedge $-1 $329 $329 $330 $501 reversed $205 $-1 #
coedge $-1 $330 $330 $329 $501 forward $207 $-1 #
coedge $-1 $331 $331 $208 $332 forward $326 $-1 #
edge $-1 $502 1.6264004962737118e-015 $502 6.2831853071796022 $331 $503 forward 7 unknown #
face $-1 $504 $505 $72 $-1 $506 forward single #
loop $-1 $-1 $507 $209 #
plane-surface $-1 1.0129298196583925 56.328370296434763 184.71755914049339 -1 0 0 0 0.54463904215088732 0.83867056331134215 forward_v I I I I #
coedge $-1 $508 $509 $510 $511 reversed $210 $-1 #
coedge $-1 $338 $212 $512 $513 reversed $133 $-1 #
coedge $-1 $212 $337 $508 $514 reversed $133 $-1 #
coedge $-1 $510 $515 $212 $340 forward $505 $-1 #
edge $-1 $516 -15.783216122930551 $517 -0.069694055621706497 $339 $518 forward 7 unknown #
loop $-1 $-1 $346 $213 #
plane-surface $-1 -7.7557838704636168 -29.767382289138531 52.141728670277701 0 0.54463904215088732 0.83867056331134215 1 0 0 forward_v I I I I #
loop $-1 $-1 $519 $135 #
coedge $-1 $344 $344 $345 $520 reversed $214 $-1 #
coedge $-1 $345 $345 $344 $520 forward $216 $-1 #
coedge $-1 $346 $346 $217 $347 forward $341 $-1 #
edge $-1 $521 1.6264004962737118e-015 $521 6.2831853071796022 $346 $522 forward 7 unknown #
loop $-1 $-1 $353 $218 #
plane-surface $-1 -7.7557838704636168 -29.767382289138531 52.141728670277701 0 0.54463904215088732 0.83867056331134215 1 0 0 forward_v I I I I #
loop $-1 $-1 $523 $138 #
coedge $-1 $351 $351 $352 $524 reversed $219 $-1 #
coedge $-1 $352 $352 $351 $524 forward $221 $-1 #
coedge $-1 $353 $353 $222 $354 forward $348 $-1 #
edge $-1 $525 1.6264004962737118e-015 $525 6.2831853071796022 $353 $526 forward 7 unknown #
loop $-1 $-1 $360 $223 #
plane-surface $-1 -7.7557838704636168 -29.767382289138531 52.141728670277701 0 0.54463904215088732 0.83867056331134215 1 0 0 forward_v I I I I #
loop $-1 $-1 $527 $141 #
coedge $-1 $358 $358 $359 $528 reversed $224 $-1 #
coedge $-1 $359 $359 $358 $528 forward $226 $-1 #
coedge $-1 $360 $360 $227 $361 forward $355 $-1 #
edge $-1 $529 1.6264004962737118e-015 $529 6.2831853071796022 $360 $530 forward 7 unknown #
face $-1 $531 $532 $76 $-1 $533 forward single #
loop $-1 $-1 $534 $228 #
plane-surface $-1 30.822212268916456 56.328370296434763 184.71755914049339 -1 0 0 0 0.54463904215088732 0.83867056331134215 forward_v I I I I #
coedge $-1 $535 $536 $537 $538 reversed $229 $-1 #
coedge $-1 $367 $231 $539 $540 reversed $145 $-1 #
coedge $-1 $231 $366 $535 $541 reversed $145 $-1 #
coedge $-1 $537 $542 $231 $369 forward $532 $-1 #
edge $-1 $543 -15.783216122930551 $544 -0.069694055621706497 $368 $545 forward 7 unknown #
loop $-1 $-1 $375 $232 #
plane-surface $-1 22.053498578794446 -29.767382289138531 52.141728670277701 0 0.54463904215088732 0.83867056331134215 1 0 0 forward_v I I I I #
loop $-1 $-1 $546 $147 #
coedge $-1 $373 $373 $374 $547 reversed $233 $-1 #
coedge $-1 $374 $374 $373 $547 forward $235 $-1 #
coedge $-1 $375 $375 $236 $376 forward $370 $-1 #
edge $-1 $548 1.6264004962737118e-015 $548 6.2831853071796022 $375 $549 forward 7 unknown #
loop $-1 $-1 $382 $237 #
plane-surface $-1 22.053498578794446 -29.767382289138531 52.141728670277701 0 0.54463904215088732 0.83867056331134215 1 0 0 forward_v I I I I #
loop $-1 $-1 $550 $150 #
coedge $-1 $380 $380 $381 $551 reversed $238 $-1 #
coedge $-1 $381 $381 $380 $551 forward $240 $-1 #
coedge $-1 $382 $382 $241 $383 forward $377 $-1 #
edge $-1 $552 1.6264004962737118e-015 $552 6.2831853071796022 $382 $553 forward 7 unknown #
loop $-1 $-1 $389 $242 #
plane-surface $-1 22.053498578794446 -29.767382289138531 52.141728670277701 0 0.54463904215088732 0.83867056331134215 1 0 0 forward_v I I I I #
loop $-1 $-1 $554 $153 #
coedge $-1 $387 $387 $388 $555 reversed $243 $-1 #
coedge $-1 $388 $388 $387 $555 forward $245 $-1 #
coedge $-1 $389 $389 $246 $390 forward $384 $-1 #
edge $-1 $556 1.6264004962737118e-015 $556 6.2831853071796022 $389 $557 forward 7 unknown #
face $-1 $558 $559 $80 $-1 $560 forward single #
loop $-1 $-1 $561 $247 #
plane-surface $-1 60.631494718174537 56.328370296434763 184.71755914049339 -1 0 0 0 0.54463904215088732 0.83867056331134215 forward_v I I I I #
coedge $-1 $562 $563 $564 $565 reversed $248 $-1 #
coedge $-1 $396 $250 $566 $567 reversed $157 $-1 #
coedge $-1 $250 $395 $562 $568 reversed $157 $-1 #
coedge $-1 $564 $569 $250 $398 forward $559 $-1 #
edge $-1 $570 -15.783216122930551 $571 -0.069694055621706497 $397 $572 forward 7 unknown #
loop $-1 $-1 $404 $251 #
plane-surface $-1 51.862781028052524 -29.767382289138531 52.141728670277701 0 0.54463904215088732 0.83867056331134215 1 0 0 forward_v I I I I #
loop $-1 $-1 $573 $159 #
coedge $-1 $402 $402 $403 $574 reversed $252 $-1 #
coedge $-1 $403 $403 $402 $574 forward $254 $-1 #
coedge $-1 $404 $404 $255 $405 forward $399 $-1 #
edge $-1 $575 1.6264004962737118e-015 $575 6.2831853071796022 $404 $576 forward 7 unknown #
loop $-1 $-1 $411 $256 #
plane-surface $-1 51.862781028052524 -29.767382289138531 52.141728670277701 0 0.54463904215088732 0.83867056331134215 1 0 0 forward_v I I I I #
loop $-1 $-1 $577 $162 #
coedge $-1 $409 $409 $410 $578 reversed $257 $-1 #
coedge $-1 $410 $410 $409 $578 forward $259 $-1 #
coedge $-1 $411 $411 $260 $412 forward $406 $-1 #
edge $-1 $579 1.6264004962737118e-015 $579 6.2831853071796022 $411 $580 forward 7 unknown #
loop $-1 $-1 $418 $261 #
plane-surface $-1 51.862781028052524 -29.767382289138531 52.141728670277701 0 0.54463904215088732 0.83867056331134215 1 0 0 forward_v I I I I #
loop $-1 $-1 $581 $165 #
coedge $-1 $416 $416 $417 $582 reversed $262 $-1 #
coedge $-1 $417 $417 $416 $582 forward $264 $-1 #
coedge $-1 $418 $418 $265 $419 forward $413 $-1 #
edge $-1 $583 1.6264004962737118e-015 $583 6.2831853071796022 $418 $584 forward 7 unknown #
face $-1 $585 $586 $63 $-1 $587 reversed single #
loop $-1 $-1 $588 $266 #
plane-surface $-1 -79.039277321695607 0 0 1 0 0 0 0 -1 forward_v I I I I #
coedge $-1 $589 $431 $590 $591 forward $267 $-1 #
coedge $-1 $592 $269 $589 $593 forward $169 $-1 #
coedge $-1 $269 $592 $594 $595 forward $169 $-1 #
coedge $-1 $434 $433 $269 $427 reversed $435 $-1 #
edge $-1 $596 -43.947401271147932 $597 43.947401271147932 $426 $598 forward 7 unknown #
coedge $-1 $271 $270 $599 $600 forward $106 $-1 #
coedge $-1 $601 $602 $270 $430 reversed $586 $-1 #
edge $-1 $437 -79.039277321695607 $603 79.039277321695607 $429 $604 forward 7 unknown #
coedge $-1 $423 $605 $271 $432 reversed $267 $-1 #
edge $-1 $606 -79.039277321695607 $436 79.039277321695607 $431 $607 forward 7 unknown #
coedge $-1 $426 $272 $605 $608 forward $435 $-1 #
coedge $-1 $272 $426 $601 $609 reversed $435 $-1 #
loop $-1 $-1 $433 $585 #
vertex $-1 $273 $610 #
vertex $-1 $273 $611 #
straight-curve $-1 79.039277321695607 0 14.475268340071361 0 1 0 I I #
face $-1 $612 $613 $64 $-1 $614 reversed single #
loop $-1 $-1 $615 $274 #
plane-surface $-1 -93.336992030026465 0 -11.62584885338371 1 0 0 0 0 -1 forward_v I I I I #
coedge $-1 $616 $277 $617 $618 reversed $173 $-1 #
coedge $-1 $277 $616 $448 $619 reversed $173 $-1 #
edge $-1 $450 8.7764293666960587 $620 14.475268340071361 $277 $621 forward 7 unknown #
coedge $-1 $279 $278 $622 $623 reversed $109 $-1 #
coedge $-1 $624 $625 $278 $447 forward $626 $-1 #
edge $-1 $627 -14.475268340071361 $451 -8.7764293666960587 $446 $628 forward 7 unknown #
coedge $-1 $629 $280 $443 $619 forward $275 $-1 #
coedge $-1 $280 $629 $624 $630 forward $275 $-1 #
vertex $-1 $444 $631 #
vertex $-1 $630 $632 #
straight-curve $-1 -79.039277321695607 0 -8.7764293666960587 0 -1 0 I I #
face $-1 $-1 $465 $65 $-1 $633 forward single #
loop $-1 $-1 $634 $282 #
plane-surface $-1 0 -43.947401271147932 0 0 1 0 0 0 1 forward_v I I I I #
coedge $-1 $635 $636 $637 $638 reversed $283 $-1 #
coedge $-1 $639 $285 $287 $463 forward $177 $-1 #
coedge $-1 $285 $639 $635 $640 forward $177 $-1 #
coedge $-1 $637 $288 $285 $460 forward $465 $-1 #
edge $-1 $467 3.472841188986262 $641 26.00115352489108 $459 $642 forward 7 unknown #
coedge $-1 $643 $644 $286 $462 forward $454 $-1 #
edge $-1 $645 -66.714621447820349 $466 -52.868326829443639 $461 $646 forward 7 unknown #
edge $-1 $467 -26.129064123734885 $645 8.3790584163743152e-015 $287 $647 forward 7 unknown #
coedge $-1 $288 $637 $643 $648 forward $465 $-1 #
loop $-1 $-1 $637 $453 #
vertex $-1 $462 $649 #
vertex $-1 $289 $650 #
straight-curve $-1 -18.209838545924935 -63.858136872448441 14.475268340071359 0 1 0 I I #
coedge $-1 $469 $469 $-1 $651 reversed $292 $-1 #
edge $-1 $652 0 $652 6.2831853071796004 $293 $653 forward 7 unknown #
vertex $-1 $296 $654 #
ellipse-curve $-1 -34.301490214428384 -32.868049786027491 7.5521210308830042 0 -0.52991927123019833 0.84804809178421925 2 0 0 1 I I #
coedge $-1 $473 $473 $-1 $655 reversed $299 $-1 #
edge $-1 $656 0 $656 6.2831853071796004 $300 $657 forward 7 unknown #
vertex $-1 $303 $658 #
ellipse-curve $-1 -24.646499213326315 -32.868049786027491 7.5521210308830042 0 -0.52991927123019833 0.84804809178421925 2 0 0 1 I I #
face $-1 $-1 $659 $68 $-1 $660 reversed single #
loop $-1 $-1 $310 $304 #
plane-surface $-1 0 0 14.475268340071361 0 0 1 1 0 0 forward_v I I I I #
coedge $-1 $661 $662 $663 $664 reversed $305 $-1 #
coedge $-1 $665 $307 $309 $487 forward $191 $-1 #
coedge $-1 $307 $665 $661 $666 forward $191 $-1 #
coedge $-1 $663 $310 $307 $484 forward $478 $-1 #
edge $-1 $490 -27.551246849982853 $667 -10.013819469738831 $483 $668 forward 7 unknown #
coedge $-1 $669 $670 $308 $486 forward $659 $-1 #
edge $-1 $671 -88.087991966646399 $489 -77.88351123017533 $485 $672 forward 7 unknown #
edge $-1 $490 69.158575524541973 $671 87.894802542295864 $309 $673 forward 7 unknown #
coedge $-1 $310 $663 $669 $674 forward $478 $-1 #
vertex $-1 $486 $675 #
vertex $-1 $311 $676 #
straight-curve $-1 -46.333780009843693 28.164185148217381 14.475268340071366 0 -1 0 I I #
coedge $-1 $492 $492 $-1 $677 reversed $314 $-1 #
edge $-1 $678 0 $678 6.2831853071796004 $315 $679 forward 7 unknown #
vertex $-1 $318 $680 #
ellipse-curve $-1 -42.826294533794886 36.090640237493496 9.3730279718358425 0 0.54463904215088732 0.83867056331134215 1 0 0 1 I I #
coedge $-1 $496 $496 $-1 $681 reversed $321 $-1 #
edge $-1 $682 0 $682 6.2831853071796004 $322 $683 forward 7 unknown #
vertex $-1 $325 $684 #
ellipse-curve $-1 -37.56506631972168 36.090640237493496 9.3730279718358425 0 0.54463904215088732 0.83867056331134215 1 0 0 1 I I #
coedge $-1 $500 $500 $-1 $685 reversed $328 $-1 #
edge $-1 $686 0 $686 6.2831853071796004 $329 $687 forward 7 unknown #
vertex $-1 $332 $688 #
ellipse-curve $-1 -32.303838105648474 36.090640237493496 9.3730279718358425 0 0.54463904215088732 0.83867056331134215 1 0 0 1 I I #
face $-1 $-1 $689 $72 $-1 $690 reversed single #
loop $-1 $-1 $339 $333 #
plane-surface $-1 0 0 14.475268340071361 0 0 1 1 0 0 forward_v I I I I #
coedge $-1 $691 $692 $693 $694 reversed $334 $-1 #
coedge $-1 $695 $336 $338 $514 forward $210 $-1 #
coedge $-1 $336 $695 $691 $696 forward $210 $-1 #
coedge $-1 $693 $339 $336 $511 forward $505 $-1 #
edge $-1 $517 -12.646605625353818 $697 4.8908217548902009 $510 $698 forward 7 unknown #
coedge $-1 $699 $700 $337 $513 forward $689 $-1 #
edge $-1 $701 -88.087991966646399 $516 -77.88351123017533 $512 $702 forward 7 unknown #
edge $-1 $517 69.158575524541973 $701 87.894802542295864 $338 $703 forward 7 unknown #
coedge $-1 $339 $693 $699 $704 forward $505 $-1 #
vertex $-1 $340 $705 #
vertex $-1 $340 $706 #
straight-curve $-1 -16.524497560585626 28.164185148217381 14.475268340071366 0 -1 0 I I #
coedge $-1 $519 $519 $-1 $707 reversed $343 $-1 #
edge $-1 $708 0 $708 6.2831853071796004 $344 $709 forward 7 unknown #
vertex $-1 $347 $710 #
ellipse-curve $-1 -13.017012084536816 36.090640237493496 9.3730279718358425 0 0.54463904215088732 0.83867056331134215 1 0 0 1 I I #
coedge $-1 $523 $523 $-1 $711 reversed $350 $-1 #
edge $-1 $712 0 $712 6.2831853071796004 $351 $713 forward 7 unknown #
vertex $-1 $354 $714 #
ellipse-curve $-1 -7.7557838704636168 36.090640237493496 9.3730279718358425 0 0.54463904215088732 0.83867056331134215 1 0 0 1 I I #
coedge $-1 $527 $527 $-1 $715 reversed $357 $-1 #
edge $-1 $716 0 $716 6.2831853071796004 $358 $717 forward 7 unknown #
vertex $-1 $361 $718 #
ellipse-curve $-1 -2.4945556563904177 36.090640237493496 9.3730279718358425 0 0.54463904215088732 0.83867056331134215 1 0 0 1 I I #
face $-1 $-1 $719 $76 $-1 $720 reversed single #
loop $-1 $-1 $368 $362 #
plane-surface $-1 0 0 14.475268340071361 0 0 1 1 0 0 forward_v I I I I #
coedge $-1 $721 $722 $723 $724 reversed $363 $-1 #
coedge $-1 $725 $365 $367 $541 forward $229 $-1 #
coedge $-1 $365 $725 $721 $726 forward $229 $-1 #
coedge $-1 $723 $368 $365 $538 forward $532 $-1 #
edge $-1 $544 2.2580355992752139 $727 19.795462979519233 $537 $728 forward 7 unknown #
coedge $-1 $729 $730 $366 $540 forward $719 $-1 #
edge $-1 $731 -88.087991966646399 $543 -77.88351123017533 $539 $732 forward 7 unknown #
edge $-1 $544 69.158575524541973 $731 87.894802542295864 $367 $733 forward 7 unknown #
coedge $-1 $368 $723 $729 $734 forward $532 $-1 #
vertex $-1 $369 $735 #
vertex $-1 $369 $736 #
straight-curve $-1 13.284784888672437 28.164185148217381 14.475268340071366 0 -1 0 I I #
coedge $-1 $546 $546 $-1 $737 reversed $372 $-1 #
edge $-1 $738 0 $738 6.2831853071796004 $373 $739 forward 7 unknown #
vertex $-1 $376 $740 #
ellipse-curve $-1 16.792270364721247 36.090640237493496 9.3730279718358425 0 0.54463904215088732 0.83867056331134215 1 0 0 1 I I #
coedge $-1 $550 $550 $-1 $741 reversed $379 $-1 #
edge $-1 $742 0 $742 6.2831853071796004 $380 $743 forward 7 unknown #
vertex $-1 $383 $744 #
ellipse-curve $-1 22.053498578794446 36.090640237493496 9.3730279718358425 0 0.54463904215088732 0.83867056331134215 1 0 0 1 I I #
coedge $-1 $554 $554 $-1 $745 reversed $386 $-1 #
edge $-1 $746 0 $746 6.2831853071796004 $387 $747 forward 7 unknown #
vertex $-1 $390 $748 #
ellipse-curve $-1 27.314726792867646 36.090640237493496 9.3730279718358425 0 0.54463904215088732 0.83867056331134215 1 0 0 1 I I #
face $-1 $-1 $749 $80 $-1 $750 reversed single #
loop $-1 $-1 $397 $391 #
plane-surface $-1 0 0 14.475268340071361 0 0 1 1 0 0 forward_v I I I I #
coedge $-1 $751 $752 $753 $754 reversed $392 $-1 #
coedge $-1 $755 $394 $396 $568 forward $248 $-1 #
coedge $-1 $394 $755 $751 $756 forward $248 $-1 #
coedge $-1 $753 $397 $394 $565 forward $559 $-1 #
edge $-1 $571 17.162676823904249 $757 34.700104204148275 $564 $758 forward 7 unknown #
coedge $-1 $759 $760 $395 $567 forward $749 $-1 #
edge $-1 $761 -88.087991966646399 $570 -77.88351123017533 $566 $762 forward 7 unknown #
edge $-1 $571 69.158575524541973 $761 87.894802542295864 $396 $763 forward 7 unknown #
coedge $-1 $397 $753 $759 $764 forward $559 $-1 #
vertex $-1 $398 $765 #
vertex $-1 $398 $766 #
straight-curve $-1 43.094067337930511 28.164185148217381 14.475268340071366 0 -1 0 I I #
coedge $-1 $573 $573 $-1 $767 reversed $401 $-1 #
edge $-1 $768 0 $768 6.2831853071796004 $402 $769 forward 7 unknown #
vertex $-1 $405 $770 #
ellipse-curve $-1 46.60155281397931 36.090640237493496 9.3730279718358425 0 0.54463904215088732 0.83867056331134215 1 0 0 1 I I #
coedge $-1 $577 $577 $-1 $771 reversed $408 $-1 #
edge $-1 $772 0 $772 6.2831853071796004 $409 $773 forward 7 unknown #
vertex $-1 $412 $774 #
ellipse-curve $-1 51.862781028052524 36.090640237493496 9.3730279718358425 0 0.54463904215088732 0.83867056331134215 1 0 0 1 I I #
coedge $-1 $581 $581 $-1 $775 reversed $415 $-1 #
edge $-1 $776 0 $776 6.2831853071796004 $416 $777 forward 7 unknown #
vertex $-1 $419 $778 #
ellipse-curve $-1 57.124009242125709 36.090640237493496 9.3730279718358425 0 0.54463904215088732 0.83867056331134215 1 0 0 1 I I #
face $-1 $-1 $435 $63 $-1 $779 reversed single #
loop $-1 $-1 $601 $420 #
plane-surface $-1 0 43.947401271147932 0 0 -1 0 0 0 -1 forward_v I I I I #
coedge $-1 $780 $599 $602 $781 forward $421 $-1 #
coedge $-1 $605 $423 $424 $593 reversed $267 $-1 #
coedge $-1 $599 $780 $423 $591 reversed $421 $-1 #
edge $-1 $606 -14.475268340071361 $782 14.475268340071361 $590 $783 forward 7 unknown #
coedge $-1 $425 $424 $780 $784 forward $169 $-1 #
edge $-1 $597 -79.039277321695607 $782 79.039277321695607 $589 $785 forward 7 unknown #
coedge $-1 $602 $601 $425 $595 reversed $586 $-1 #
edge $-1 $786 -79.039277321695607 $596 79.039277321695607 $594 $787 forward 7 unknown #
vertex $-1 $427 $788 #
vertex $-1 $608 $789 #
straight-curve $-1 79.039277321695607 0 -14.475268340071361 0 -1 0 I I #
coedge $-1 $588 $590 $428 $600 reversed $421 $-1 #
edge $-1 $603 -43.947401271147932 $606 43.947401271147932 $599 $790 forward 7 unknown #
coedge $-1 $594 $429 $434 $609 forward $586 $-1 #
coedge $-1 $429 $594 $588 $781 reversed $586 $-1 #
vertex $-1 $430 $791 #
straight-curve $-1 0 43.947401271147932 14.475268340071361 -1 0 0 I I #
coedge $-1 $431 $589 $433 $608 reversed $267 $-1 #
vertex $-1 $600 $792 #
straight-curve $-1 0 -43.947401271147932 14.475268340071361 1 0 0 I I #
edge $-1 $436 -14.475268340071361 $597 14.475268340071361 $433 $793 forward 7 unknown #
edge $-1 $437 -14.475268340071361 $596 14.475268340071361 $434 $794 forward 7 unknown #
point $-1 79.039277321695607 -43.947401271147932 14.475268340071361 #
point $-1 79.039277321695607 43.947401271147932 14.475268340071361 #
face $-1 $-1 $626 $64 $-1 $795 reversed single #
loop $-1 $-1 $622 $439 #
plane-surface $-1 0 0 -14.475268340071361 0 0 1 1 0 0 forward_v I I I I #
coedge $-1 $796 $797 $616 $798 forward $440 $-1 #
coedge $-1 $443 $442 $615 $798 reversed $173 $-1 #
coedge $-1 $622 $799 $442 $618 forward $613 $-1 #
edge $-1 $800 -93.336992030026465 $620 -79.039277321695607 $442 $801 forward 7 unknown #
edge $-1 $450 -7.148857354165429 $802 7.148857354165429 $443 $803 forward 7 unknown #
vertex $-1 $444 $804 #
straight-curve $-1 -79.039277321695607 43.947401271147932 0 0 0 -1 I I #
coedge $-1 $805 $617 $445 $623 forward $613 $-1 #
edge $-1 $620 -43.947401271147932 $627 43.947401271147932 $622 $806 forward 7 unknown #
coedge $-1 $807 $446 $449 $630 reversed $626 $-1 #
coedge $-1 $446 $807 $805 $808 reversed $626 $-1 #
loop $-1 $-1 $446 $612 #
vertex $-1 $808 $809 #
straight-curve $-1 -79.039277321695607 -43.947401271147932 0 0 0 1 I I #
coedge $-1 $449 $448 $797 $810 forward $275 $-1 #
edge $-1 $811 -7.148857354165429 $451 7.148857354165429 $624 $812 forward 7 unknown #
point $-1 -79.039277321695607 43.947401271147932 -8.7764293666960587 #
point $-1 -79.039277321695607 -43.947401271147932 -8.7764293666960587 #
plane-surface $-1 0 0 14.475268340071361 0 0 1 1 0 0 forward_v I I I I #
coedge $-1 $644 $643 $636 $813 forward $454 $-1 #
coedge $-1 $636 $456 $458 $640 reversed $283 $-1 #
coedge $-1 $456 $635 $634 $813 reversed $283 $-1 #
coedge $-1 $464 $459 $456 $638 forward $465 $-1 #
edge $-1 $641 -42.069438571541383 $814 -19.910735601300509 $637 $815 forward 7 unknown #
coedge $-1 $458 $457 $644 $816 reversed $177 $-1 #
edge $-1 $817 -8.3790584163743152e-015 $641 26.129064123734885 $635 $818 forward 7 unknown #
vertex $-1 $460 $819 #
straight-curve $-1 -14.736997356938673 -21.788698300907054 14.475268340071361 -1 0 0 I I #
coedge $-1 $634 $461 $464 $648 reversed $454 $-1 #
coedge $-1 $461 $634 $639 $816 forward $454 $-1 #
vertex $-1 $462 $820 #
straight-curve $-1 -18.209838545924935 -43.947401271147932 67.343595169514998 0 0 1 I I #
straight-curve $-1 -18.209838545924935 -43.947401271147925 0.62897372169464916 0 -0.84804809178421925 -0.52991927123019833 I I #
edge $-1 $814 -40.738150881829753 $466 -18.209838545924935 $643 $821 forward 7 unknown #
point $-1 -18.209838545924935 -43.947401271147932 14.475268340071361 #
point $-1 -18.209838545924935 -21.788698300907054 14.475268340071359 #
edge $-1 $822 1 $822 0 $469 $-1 forward 7 unknown #
vertex $-1 $470 $823 #
ellipse-curve $-1 -34.301490214428384 -28.660134657394174 0.81804927889106827 0 -0.52991927123019833 0.84804809178421925 2 0 0 1 I I #
point $-1 -32.301490214428384 -32.868049786027484 7.5521210308829971 #
edge $-1 $824 1 $824 0 $473 $-1 forward 7 unknown #
vertex $-1 $474 $825 #
ellipse-curve $-1 -24.646499213326315 -28.660134657394174 0.81804927889106827 0 -0.52991927123019833 0.84804809178421925 2 0 0 1 I I #
point $-1 -22.646499213326315 -32.868049786027484 7.5521210308829971 #
loop $-1 $-1 $485 $477 #
plane-surface $-1 0 43.947401271147932 0 0 -1 0 0 0 -1 forward_v I I I I #
coedge $-1 $662 $480 $482 $666 reversed $305 $-1 #
coedge $-1 $480 $661 $826 $827 reversed $305 $-1 #
coedge $-1 $488 $483 $480 $664 forward $478 $-1 #
edge $-1 $667 0.069694055621706497 $828 15.783216122930551 $663 $829 forward 7 unknown #
coedge $-1 $482 $481 $670 $830 reversed $191 $-1 #
edge $-1 $831 -87.894802542295864 $667 -69.158575524541973 $661 $832 forward 7 unknown #
vertex $-1 $484 $833 #
straight-curve $-1 -18.78253315986084 28.233879203839088 14.475268340071359 1 0 0 I I #
coedge $-1 $826 $485 $488 $674 reversed $659 $-1 #
coedge $-1 $485 $826 $665 $830 forward $659 $-1 #
vertex $-1 $486 $834 #
straight-curve $-1 -46.333780009843693 43.947401271147932 92.358779570246696 0 0 1 I I #
straight-curve $-1 -46.333780009843693 -29.767382289138531 52.141728670277701 0 0.83867056331134215 -0.54463904215088732 I I #
edge $-1 $828 28.796352629599671 $489 46.333780009843693 $669 $835 forward 7 unknown #
point $-1 -46.333780009843693 43.947401271147932 14.475268340071361 #
point $-1 -46.333780009843693 28.233879203839088 14.475268340071359 #
edge $-1 $836 1 $836 0 $492 $-1 forward 7 unknown #
vertex $-1 $493 $837 #
ellipse-curve $-1 -42.826294533794886 34.019642259806353 6.1839708052687428 0 0.54463904215088732 0.83867056331134215 1 0 0 1 I I #
point $-1 -41.826294533794886 36.090640237493481 9.3730279718358176 #
edge $-1 $838 1 $838 0 $496 $-1 forward 7 unknown #
vertex $-1 $497 $839 #
ellipse-curve $-1 -37.56506631972168 34.019642259806353 6.1839708052687428 0 0.54463904215088732 0.83867056331134215 1 0 0 1 I I #
point $-1 -36.56506631972168 36.090640237493481 9.3730279718358176 #
edge $-1 $840 1 $840 0 $500 $-1 forward 7 unknown #
vertex $-1 $501 $841 #
ellipse-curve $-1 -32.303838105648474 34.019642259806353 6.1839708052687428 0 0.54463904215088732 0.83867056331134215 1 0 0 1 I I #
point $-1 -31.303838105648474 36.090640237493481 9.3730279718358176 #
loop $-1 $-1 $512 $504 #
plane-surface $-1 0 43.947401271147932 0 0 -1 0 0 0 -1 forward_v I I I I #
coedge $-1 $692 $507 $509 $696 reversed $334 $-1 #
coedge $-1 $507 $691 $842 $843 reversed $334 $-1 #
coedge $-1 $515 $510 $507 $694 forward $505 $-1 #
edge $-1 $697 0.069694055621706497 $844 15.783216122930551 $693 $845 forward 7 unknown #
coedge $-1 $509 $508 $700 $846 reversed $210 $-1 #
edge $-1 $847 -87.894802542295864 $697 -69.158575524541973 $691 $848 forward 7 unknown #
vertex $-1 $511 $849 #
straight-curve $-1 -3.8778919352318084 28.233879203839088 14.475268340071359 1 0 0 I I #
coedge $-1 $842 $512 $515 $704 reversed $689 $-1 #
coedge $-1 $512 $842 $695 $846 forward $689 $-1 #
vertex $-1 $513 $850 #
straight-curve $-1 -16.524497560585626 43.947401271147932 92.358779570246696 0 0 1 I I #
straight-curve $-1 -16.524497560585626 -29.767382289138531 52.141728670277701 0 0.83867056331134215 -0.54463904215088732 I I #
edge $-1 $844 -1.0129298196583925 $516 16.524497560585626 $699 $851 forward 7 unknown #
point $-1 -16.524497560585626 43.947401271147932 14.475268340071361 #
point $-1 -16.524497560585626 28.233879203839088 14.475268340071359 #
edge $-1 $852 1 $852 0 $519 $-1 forward 7 unknown #
vertex $-1 $520 $853 #
ellipse-curve $-1 -13.017012084536816 34.019642259806353 6.1839708052687428 0 0.54463904215088732 0.83867056331134215 1 0 0 1 I I #
point $-1 -12.017012084536816 36.090640237493481 9.3730279718358176 #
edge $-1 $854 1 $854 0 $523 $-1 forward 7 unknown #
vertex $-1 $524 $855 #
ellipse-curve $-1 -7.7557838704636168 34.019642259806353 6.1839708052687428 0 0.54463904215088732 0.83867056331134215 1 0 0 1 I I #
point $-1 -6.7557838704636168 36.090640237493481 9.3730279718358176 #
edge $-1 $856 1 $856 0 $527 $-1 forward 7 unknown #
vertex $-1 $528 $857 #
ellipse-curve $-1 -2.4945556563904177 34.019642259806353 6.1839708052687428 0 0.54463904215088732 0.83867056331134215 1 0 0 1 I I #
point $-1 -1.4945556563904177 36.090640237493481 9.3730279718358176 #
loop $-1 $-1 $539 $531 #
plane-surface $-1 0 43.947401271147932 0 0 -1 0 0 0 -1 forward_v I I I I #
coedge $-1 $722 $534 $536 $726 reversed $363 $-1 #
coedge $-1 $534 $721 $858 $859 reversed $363 $-1 #
coedge $-1 $542 $537 $534 $724 forward $532 $-1 #
edge $-1 $727 0.069694055621706497 $860 15.783216122930551 $723 $861 forward 7 unknown #
coedge $-1 $536 $535 $730 $862 reversed $229 $-1 #
edge $-1 $863 -87.894802542295864 $727 -69.158575524541973 $721 $864 forward 7 unknown #
vertex $-1 $538 $865 #
straight-curve $-1 11.026749289397223 28.233879203839088 14.475268340071359 1 0 0 I I #
coedge $-1 $858 $539 $542 $734 reversed $719 $-1 #
coedge $-1 $539 $858 $725 $862 forward $719 $-1 #
vertex $-1 $540 $866 #
straight-curve $-1 13.284784888672437 43.947401271147932 92.358779570246696 0 0 1 I I #
straight-curve $-1 13.284784888672437 -29.767382289138531 52.141728670277701 0 0.83867056331134215 -0.54463904215088732 I I #
edge $-1 $860 -30.822212268916456 $543 -13.284784888672437 $729 $867 forward 7 unknown #
point $-1 13.284784888672437 43.947401271147932 14.475268340071361 #
point $-1 13.284784888672437 28.233879203839088 14.475268340071359 #
edge $-1 $868 1 $868 0 $546 $-1 forward 7 unknown #
vertex $-1 $547 $869 #
ellipse-curve $-1 16.792270364721247 34.019642259806353 6.1839708052687428 0 0.54463904215088732 0.83867056331134215 1 0 0 1 I I #
point $-1 17.792270364721247 36.090640237493481 9.3730279718358176 #
edge $-1 $870 1 $870 0 $550 $-1 forward 7 unknown #
vertex $-1 $551 $871 #
ellipse-curve $-1 22.053498578794446 34.019642259806353 6.1839708052687428 0 0.54463904215088732 0.83867056331134215 1 0 0 1 I I #
point $-1 23.053498578794446 36.090640237493481 9.3730279718358176 #
edge $-1 $872 1 $872 0 $554 $-1 forward 7 unknown #
vertex $-1 $555 $873 #
ellipse-curve $-1 27.314726792867646 34.019642259806353 6.1839708052687428 0 0.54463904215088732 0.83867056331134215 1 0 0 1 I I #
point $-1 28.314726792867646 36.090640237493481 9.3730279718358176 #
loop $-1 $-1 $566 $558 #
plane-surface $-1 0 43.947401271147932 0 0 -1 0 0 0 -1 forward_v I I I I #
coedge $-1 $752 $561 $563 $756 reversed $392 $-1 #
coedge $-1 $561 $751 $874 $875 reversed $392 $-1 #
coedge $-1 $569 $564 $561 $754 forward $559 $-1 #
edge $-1 $757 0.069694055621706497 $876 15.783216122930551 $753 $877 forward 7 unknown #
coedge $-1 $563 $562 $760 $878 reversed $248 $-1 #
edge $-1 $879 -87.894802542295864 $757 -69.158575524541973 $751 $880 forward 7 unknown #
vertex $-1 $565 $881 #
straight-curve $-1 25.931390514026262 28.233879203839088 14.475268340071359 1 0 0 I I #
coedge $-1 $874 $566 $569 $764 reversed $749 $-1 #
coedge $-1 $566 $874 $755 $878 forward $749 $-1 #
vertex $-1 $567 $882 #
straight-curve $-1 43.094067337930511 43.947401271147932 92.358779570246696 0 0 1 I I #
straight-curve $-1 43.094067337930511 -29.767382289138531 52.141728670277701 0 0.83867056331134215 -0.54463904215088732 I I #
edge $-1 $876 -60.631494718174537 $570 -43.094067337930511 $759 $883 forward 7 unknown #
point $-1 43.094067337930511 43.947401271147932 14.475268340071361 #
point $-1 43.094067337930511 28.233879203839088 14.475268340071359 #
edge $-1 $884 1 $884 0 $573 $-1 forward 7 unknown #
vertex $-1 $574 $885 #
ellipse-curve $-1 46.60155281397931 34.019642259806353 6.1839708052687428 0 0.54463904215088732 0.83867056331134215 1 0 0 1 I I #
point $-1 47.60155281397931 36.090640237493481 9.3730279718358176 #
edge $-1 $886 1 $886 0 $577 $-1 forward 7 unknown #
vertex $-1 $578 $887 #
ellipse-curve $-1 51.862781028052524 34.019642259806353 6.1839708052687428 0 0.54463904215088732 0.83867056331134215 1 0 0 1 I I #
point $-1 52.862781028052524 36.090640237493481 9.3730279718358176 #
edge $-1 $888 1 $888 0 $581 $-1 forward 7 unknown #
vertex $-1 $582 $889 #
ellipse-curve $-1 57.124009242125709 34.019642259806353 6.1839708052687428 0 0.54463904215088732 0.83867056331134215 1 0 0 1 I I #
point $-1 58.124009242125709 36.090640237493481 9.3730279718358176 #
plane-surface $-1 79.039277321695607 0 0 -1 0 0 0 0 1 forward_v I I I I #
coedge $-1 $590 $588 $592 $784 reversed $421 $-1 #
edge $-1 $603 -14.475268340071361 $786 14.475268340071361 $602 $890 forward 7 unknown #
vertex $-1 $784 $891 #
straight-curve $-1 -79.039277321695607 -43.947401271147932 0 0 0 -1 I I #
edge $-1 $782 -43.947401271147932 $786 43.947401271147932 $780 $892 forward 7 unknown #
straight-curve $-1 0 -43.947401271147932 -14.475268340071361 -1 0 0 I I #
vertex $-1 $595 $893 #
straight-curve $-1 0 43.947401271147932 -14.475268340071361 1 0 0 I I #
point $-1 79.039277321695607 43.947401271147932 -14.475268340071361 #
point $-1 79.039277321695607 -43.947401271147932 -14.475268340071361 #
straight-curve $-1 -79.039277321695607 0 14.475268340071361 0 -1 0 I I #
point $-1 -79.039277321695607 43.947401271147932 14.475268340071361 #
point $-1 -79.039277321695607 -43.947401271147932 14.475268340071361 #
straight-curve $-1 79.039277321695607 -43.947401271147932 0 0 0 -1 I I #
straight-curve $-1 79.039277321695607 43.947401271147932 0 0 0 -1 I I #
plane-surface $-1 0 -43.947401271147932 0 0 1 0 0 0 1 forward_v I I I I #
coedge $-1 $894 $615 $799 $895 reversed $440 $-1 #
coedge $-1 $615 $894 $629 $810 reversed $440 $-1 #
edge $-1 $802 -2.8494194866876512 $800 2.8494194866876512 $616 $896 forward 7 unknown #
coedge $-1 $617 $805 $796 $895 forward $613 $-1 #
vertex $-1 $618 $897 #
straight-curve $-1 0 43.947401271147932 -14.475268340071361 1 0 0 I I #
vertex $-1 $619 $898 #
straight-curve $-1 -86.188134675861036 43.947401271147932 -8.7764293666960587 -1 0 0 I I #
point $-1 -79.039277321695607 43.947401271147932 -14.475268340071361 #
coedge $-1 $799 $622 $625 $808 forward $613 $-1 #
straight-curve $-1 -79.039277321695607 0 -14.475268340071361 0 -1 0 I I #
coedge $-1 $625 $624 $894 $899 forward $626 $-1 #
edge $-1 $627 -7.148857354165429 $900 7.148857354165429 $625 $901 forward 7 unknown #
point $-1 -79.039277321695607 -43.947401271147932 -14.475268340071361 #
edge $-1 $802 -43.947401271147932 $811 43.947401271147932 $797 $902 forward 7 unknown #
vertex $-1 $810 $903 #
straight-curve $-1 -86.188134675861036 -43.947401271147932 -8.7764293666960587 1 0 0 I I #
edge $-1 $814 52.868326829443639 $817 66.714621447820349 $634 $904 forward 7 unknown #
vertex $-1 $648 $905 #
straight-curve $-1 -40.738150881829753 -63.858136872448441 14.475268340071359 0 -1 0 I I #
edge $-1 $817 -26.00115352489108 $645 -3.472841188986262 $644 $906 forward 7 unknown #
vertex $-1 $816 $907 #
straight-curve $-1 -40.738150881829753 -43.947401271147925 0.62897372169464916 0 0.84804809178421925 0.52991927123019833 I I #
point $-1 -40.738150881829753 -21.788698300907054 14.475268340071359 #
point $-1 -18.209838545924935 -43.947401271147932 0.62897372169464472 #
straight-curve $-1 0 -43.947401271147932 14.475268340071361 1 0 0 I I #
vertex $-1 $651 $908 #
point $-1 -32.301490214428384 -28.660134657394174 0.81804927889106827 #
vertex $-1 $655 $909 #
point $-1 -22.646499213326315 -28.660134657394174 0.81804927889106827 #
coedge $-1 $670 $669 $662 $827 forward $659 $-1 #
edge $-1 $828 77.88351123017533 $831 88.087991966646399 $826 $910 forward 7 unknown #
vertex $-1 $674 $911 #
straight-curve $-1 -28.796352629599671 28.164185148217381 14.475268340071366 0 1 0 I I #
edge $-1 $831 10.013819469738831 $671 27.551246849982853 $670 $912 forward 7 unknown #
vertex $-1 $830 $913 #
straight-curve $-1 -28.796352629599671 -29.767382289138531 52.141728670277701 0 -0.83867056331134215 0.54463904215088732 I I #
point $-1 -28.796352629599671 28.233879203839088 14.475268340071359 #
point $-1 -46.333780009843693 43.947401271147932 4.2707876036003043 #
straight-curve $-1 0 43.947401271147932 14.475268340071361 -1 0 0 I I #
vertex $-1 $677 $914 #
point $-1 -41.826294533794886 34.019642259806353 6.1839708052687428 #
vertex $-1 $681 $915 #
point $-1 -36.56506631972168 34.019642259806353 6.1839708052687428 #
vertex $-1 $685 $916 #
point $-1 -31.303838105648474 34.019642259806353 6.1839708052687428 #
coedge $-1 $700 $699 $692 $843 forward $689 $-1 #
edge $-1 $844 77.88351123017533 $847 88.087991966646399 $842 $917 forward 7 unknown #
vertex $-1 $704 $918 #
straight-curve $-1 1.0129298196583925 28.164185148217381 14.475268340071366 0 1 0 I I #
edge $-1 $847 -4.8908217548902009 $701 12.646605625353818 $700 $919 forward 7 unknown #
vertex $-1 $846 $920 #
straight-curve $-1 1.0129298196583925 -29.767382289138531 52.141728670277701 0 -0.83867056331134215 0.54463904215088732 I I #
point $-1 1.0129298196583925 28.233879203839088 14.475268340071359 #
point $-1 -16.524497560585626 43.947401271147932 4.2707876036003043 #
straight-curve $-1 0 43.947401271147932 14.475268340071361 -1 0 0 I I #
vertex $-1 $707 $921 #
point $-1 -12.017012084536816 34.019642259806353 6.1839708052687428 #
vertex $-1 $711 $922 #
point $-1 -6.7557838704636168 34.019642259806353 6.1839708052687428 #
vertex $-1 $715 $923 #
point $-1 -1.4945556563904177 34.019642259806353 6.1839708052687428 #
coedge $-1 $730 $729 $722 $859 forward $719 $-1 #
edge $-1 $860 77.88351123017533 $863 88.087991966646399 $858 $924 forward 7 unknown #
vertex $-1 $734 $925 #
straight-curve $-1 30.822212268916456 28.164185148217381 14.475268340071366 0 1 0 I I #
edge $-1 $863 -19.795462979519233 $731 -2.2580355992752139 $730 $926 forward 7 unknown #
vertex $-1 $862 $927 #
straight-curve $-1 30.822212268916456 -29.767382289138531 52.141728670277701 0 -0.83867056331134215 0.54463904215088732 I I #
point $-1 30.822212268916456 28.233879203839088 14.475268340071359 #
point $-1 13.284784888672437 43.947401271147932 4.2707876036003043 #
straight-curve $-1 0 43.947401271147932 14.475268340071361 -1 0 0 I I #
vertex $-1 $737 $928 #
point $-1 17.792270364721247 34.019642259806353 6.1839708052687428 #
vertex $-1 $741 $929 #
point $-1 23.053498578794446 34.019642259806353 6.1839708052687428 #
vertex $-1 $745 $930 #
point $-1 28.314726792867646 34.019642259806353 6.1839708052687428 #
coedge $-1 $760 $759 $752 $875 forward $749 $-1 #
edge $-1 $876 77.88351123017533 $879 88.087991966646399 $874 $931 forward 7 unknown #
vertex $-1 $764 $932 #
straight-curve $-1 60.631494718174537 28.164185148217381 14.475268340071366 0 1 0 I I #
edge $-1 $879 -34.700104204148275 $761 -17.162676823904249 $760 $933 forward 7 unknown #
vertex $-1 $878 $934 #
straight-curve $-1 60.631494718174537 -29.767382289138531 52.141728670277701 0 -0.83867056331134215 0.54463904215088732 I I #
point $-1 60.631494718174537 28.233879203839088 14.475268340071359 #
point $-1 43.094067337930511 43.947401271147932 4.2707876036003043 #
straight-curve $-1 0 43.947401271147932 14.475268340071361 -1 0 0 I I #
vertex $-1 $767 $935 #
point $-1 47.60155281397931 34.019642259806353 6.1839708052687428 #
vertex $-1 $771 $936 #
point $-1 52.862781028052524 34.019642259806353 6.1839708052687428 #
vertex $-1 $775 $937 #
point $-1 58.124009242125709 34.019642259806353 6.1839708052687428 #
straight-curve $-1 -79.039277321695607 43.947401271147932 0 0 0 -1 I I #
point $-1 -79.039277321695607 -43.947401271147932 -14.475268340071361 #
straight-curve $-1 -79.039277321695607 0 -14.475268340071361 0 1 0 I I #
point $-1 -79.039277321695607 43.947401271147932 -14.475268340071361 #
coedge $-1 $797 $796 $807 $899 reversed $440 $-1 #
edge $-1 $900 -43.947401271147932 $800 43.947401271147932 $796 $938 forward 7 unknown #
straight-curve $-1 -93.336992030026465 43.947401271147932 -11.62584885338371 0 0 -1 I I #
point $-1 -93.336992030026465 43.947401271147932 -14.475268340071361 #
point $-1 -93.336992030026465 43.947401271147932 -8.7764293666960587 #
edge $-1 $811 -2.8494194866876512 $900 2.8494194866876512 $894 $939 forward 7 unknown #
vertex $-1 $895 $940 #
straight-curve $-1 -86.188134675861036 -43.947401271147932 -14.475268340071361 -1 0 0 I I #
straight-curve $-1 -93.336992030026465 0 -8.7764293666960587 0 -1 0 I I #
point $-1 -93.336992030026465 -43.947401271147932 -8.7764293666960587 #
straight-curve $-1 -40.738150881829753 -43.947401271147932 67.343595169514998 0 0 -1 I I #
point $-1 -40.738150881829753 -43.947401271147932 14.475268340071361 #
straight-curve $-1 -14.736997356938673 -43.947401271147932 0.62897372169464361 1 0 0 I I #
point $-1 -40.738150881829753 -43.947401271147932 0.62897372169464472 #
point $-1 -34.301490214428384 -27.600296114933776 -0.87804690467737023 #
point $-1 -24.646499213326315 -27.600296114933776 -0.87804690467737023 #
straight-curve $-1 -28.796352629599671 43.947401271147932 92.358779570246696 0 0 -1 I I #
point $-1 -28.796352629599671 43.947401271147932 14.475268340071361 #
straight-curve $-1 -18.78253315986084 43.947401271147932 4.2707876036003078 -1 0 0 I I #
point $-1 -28.796352629599671 43.947401271147932 4.2707876036003043 #
point $-1 -42.826294533794886 33.475003217655463 5.3453002419573998 #
point $-1 -37.56506631972168 33.475003217655463 5.3453002419573998 #
point $-1 -32.303838105648474 33.475003217655463 5.3453002419573998 #
straight-curve $-1 1.0129298196583925 43.947401271147932 92.358779570246696 0 0 -1 I I #
point $-1 1.0129298196583925 43.947401271147932 14.475268340071361 #
straight-curve $-1 -3.8778919352318084 43.947401271147932 4.2707876036003078 -1 0 0 I I #
point $-1 1.0129298196583925 43.947401271147932 4.2707876036003043 #
point $-1 -13.017012084536816 33.475003217655463 5.3453002419573998 #
point $-1 -7.7557838704636168 33.475003217655463 5.3453002419573998 #
point $-1 -2.4945556563904177 33.475003217655463 5.3453002419573998 #
straight-curve $-1 30.822212268916456 43.947401271147932 92.358779570246696 0 0 -1 I I #
point $-1 30.822212268916456 43.947401271147932 14.475268340071361 #
straight-curve $-1 11.026749289397223 43.947401271147932 4.2707876036003078 -1 0 0 I I #
point $-1 30.822212268916456 43.947401271147932 4.2707876036003043 #
point $-1 16.792270364721247 33.475003217655463 5.3453002419573998 #
point $-1 22.053498578794446 33.475003217655463 5.3453002419573998 #
point $-1 27.314726792867646 33.475003217655463 5.3453002419573998 #
straight-curve $-1 60.631494718174537 43.947401271147932 92.358779570246696 0 0 -1 I I #
point $-1 60.631494718174537 43.947401271147932 14.475268340071361 #
straight-curve $-1 25.931390514026262 43.947401271147932 4.2707876036003078 -1 0 0 I I #
point $-1 60.631494718174537 43.947401271147932 4.2707876036003043 #
point $-1 46.60155281397931 33.475003217655463 5.3453002419573998 #
point $-1 51.862781028052524 33.475003217655463 5.3453002419573998 #
point $-1 57.124009242125709 33.475003217655463 5.3453002419573998 #
straight-curve $-1 -93.336992030026465 0 -14.475268340071361 0 1 0 I I #
straight-curve $-1 -93.336992030026465 -43.947401271147932 -11.62584885338371 0 0 -1 I I #
point $-1 -93.336992030026465 -43.947401271147932 -14.475268340071361 #
End-of-ACIS-data 