500 0 6 0           
7 Unknown 11 ACIS 5.0 NT 24 Fri Mar 26 19:41:14 1999 
-1 9.9999999999999995e-007 1e-010 
body $-1 $6 $-1 $7 #
body $-1 $8 $-1 $9 #
body $-1 $10 $-1 $11 #
body $-1 $12 $-1 $13 #
body $-1 $14 $-1 $15 #
body $-1 $16 $-1 $17 #
lump $-1 $-1 $18 $0 #
transform $-1 1 0 0 0 1 0 0 0 1 75.219580675679794 49.562924789521908 19.692818589197135 1 rotate no_reflect no_shear #
lump $-1 $-1 $19 $1 #
transform $-1 1 0 0 0 1 0 0 0 1 75.219580675679794 49.562924789521908 19.692818589197135 1 rotate no_reflect no_shear #
lump $-1 $-1 $20 $2 #
transform $-1 1 0 0 0 1 0 0 0 1 75.219580675679794 49.562924789521908 19.692818589197135 1 rotate no_reflect no_shear #
lump $-1 $-1 $21 $3 #
transform $-1 1 0 0 0 1 0 0 0 1 75.219580675679794 49.562924789521908 19.692818589197135 1 rotate no_reflect no_shear #
lump $-1 $-1 $22 $4 #
transform $-1 1 0 0 0 1 0 0 0 1 75.219580675679794 49.562924789521908 19.692818589197135 1 rotate no_reflect no_shear #
lump $-1 $-1 $23 $5 #
transform $-1 1 0 0 0 1 0 0 0 1 75.219580675679794 49.562924789521908 19.692818589197135 1 rotate no_reflect no_shear #
shell $-1 $-1 $-1 $24 $-1 $6 #
shell $-1 $-1 $-1 $25 $-1 $8 #
shell $-1 $-1 $-1 $26 $-1 $10 #
shell $-1 $-1 $-1 $27 $-1 $12 #
shell $-1 $-1 $-1 $28 $-1 $14 #
shell $-1 $-1 $-1 $29 $-1 $16 #
face $-1 $30 $31 $18 $-1 $32 forward single #
face $-1 $33 $34 $19 $-1 $35 forward single #
face $-1 $36 $37 $20 $-1 $38 reversed single #
face $-1 $39 $40 $21 $-1 $41 forward single #
face $-1 $42 $43 $22 $-1 $44 forward single #
face $-1 $45 $46 $23 $-1 $47 forward single #
face $-1 $48 $49 $18 $-1 $50 reversed single #
loop $-1 $-1 $51 $24 #
plane-surface $-1 0 0 19.692818589197135 0 0 1 1 0 0 forward_v I I I I #
face $-1 $52 $53 $19 $-1 $54 reversed single #
loop $-1 $-1 $55 $25 #
plane-surface $-1 -64.182797682083304 0 -14.34840626624128 0 0 1 1 0 0 forward_v I I I I #
face $-1 $56 $57 $20 $-1 $58 reversed single #
loop $-1 $-1 $59 $26 #
plane-surface $-1 37.320252716710201 -131.49796552990918 138.44537992406794 1 0 0 0 0.54463904215088732 -0.83867056331134215 forward_v I I I I #
face $-1 $60 $61 $21 $-1 $62 forward single #
loop $-1 $63 $64 $27 #
cone-surface $-1 44.900118308504119 -42.346268525524707 13.664722576946549 0 0.54463904215088732 -0.83867056331134215 2 0 0 1 I I 0 1 2 forward I I I I #
face $-1 $65 $66 $22 $-1 $67 forward single #
loop $-1 $68 $69 $28 #
cone-surface $-1 56.269916696194997 -42.346268525524707 13.664722576946549 0 0.54463904215088732 -0.83867056331134215 2 0 0 1 I I 0 1 2 forward I I I I #
face $-1 $70 $71 $23 $-1 $72 forward single #
loop $-1 $73 $74 $29 #
cone-surface $-1 67.639715083885875 -42.346268525524707 13.664722576946549 0 0.54463904215088732 -0.83867056331134215 2 0 0 1 I I 0 1 2 forward I I I I #
face $-1 $75 $76 $18 $-1 $77 reversed single #
loop $-1 $-1 $78 $30 #
plane-surface $-1 0 0 -19.692818589197135 0 0 1 1 0 0 forward_v I I I I #
coedge $-1 $79 $80 $81 $82 forward $31 $-1 #
face $-1 $83 $84 $19 $-1 $85 reversed single #
loop $-1 $-1 $86 $33 #
plane-surface $-1 -53.146014688486808 0 -17.020612427719207 -1 0 0 0 0 1 forward_v I I I I #
coedge $-1 $87 $88 $89 $90 forward $34 $-1 #
face $-1 $91 $92 $20 $-1 $93 forward single #
loop $-1 $-1 $94 $36 #
plane-surface $-1 56.269916696194997 -49.562924789521901 12.276483729437302 0 -0.54463904215088732 0.83867056331134215 1 0 0 forward_v I I I I #
coedge $-1 $95 $96 $97 $98 reversed $37 $-1 #
face $-1 $-1 $99 $21 $-1 $100 forward single #
loop $-1 $101 $102 $39 #
cone-surface $-1 44.900118308504119 -40.295050218242544 10.506123431264527 0 0.54463904215088732 -0.83867056331134215 1 0 0 1 I I -0.70710678118654746 0.70710678118654746 1 forward I I I I #
loop $-1 $-1 $103 $27 #
coedge $-1 $64 $64 $104 $105 reversed $40 $-1 #
face $-1 $-1 $106 $22 $-1 $107 forward single #
loop $-1 $108 $109 $42 #
cone-surface $-1 56.269916696194997 -40.295050218242544 10.506123431264527 0 0.54463904215088732 -0.83867056331134215 1 0 0 1 I I -0.70710678118654746 0.70710678118654746 1 forward I I I I #
loop $-1 $-1 $110 $28 #
coedge $-1 $69 $69 $111 $112 reversed $43 $-1 #
face $-1 $-1 $113 $23 $-1 $114 forward single #
loop $-1 $115 $116 $45 #
cone-surface $-1 67.639715083885875 -40.295050218242544 10.506123431264527 0 0.54463904215088732 -0.83867056331134215 1 0 0 1 I I -0.70710678118654746 0.70710678118654746 1 forward I I I I #
loop $-1 $-1 $117 $29 #
coedge $-1 $74 $74 $118 $119 reversed $46 $-1 #
face $-1 $120 $121 $18 $-1 $122 reversed single #
loop $-1 $-1 $123 $48 #
plane-surface $-1 0 -49.562924789521908 0 0 1 0 0 0 1 forward_v I I I I #
coedge $-1 $124 $125 $126 $127 forward $49 $-1 #
coedge $-1 $128 $51 $129 $130 forward $31 $-1 #
coedge $-1 $51 $128 $131 $132 forward $31 $-1 #
coedge $-1 $133 $134 $51 $82 reversed $135 $-1 #
edge $-1 $136 -49.562924789521908 $137 49.562924789521908 $81 $138 forward 7 unknown #
face $-1 $139 $140 $19 $-1 $141 reversed single #
loop $-1 $-1 $142 $52 #
plane-surface $-1 0 0 -19.692818589197135 0 0 1 1 0 0 forward_v I I I I #
coedge $-1 $143 $89 $144 $145 reversed $53 $-1 #
coedge $-1 $146 $55 $147 $148 reversed $34 $-1 #
coedge $-1 $55 $146 $149 $150 reversed $34 $-1 #
coedge $-1 $86 $151 $55 $90 reversed $53 $-1 #
edge $-1 $152 -49.562924789521908 $153 49.562924789521908 $89 $154 forward 7 unknown #
face $-1 $155 $156 $20 $-1 $157 reversed single #
loop $-1 $-1 $158 $56 #
plane-surface $-1 0 0 19.692818589197135 0 0 1 1 0 0 forward_v I I I I #
coedge $-1 $159 $160 $161 $162 reversed $57 $-1 #
coedge $-1 $96 $59 $163 $164 reversed $37 $-1 #
coedge $-1 $59 $95 $159 $165 reversed $37 $-1 #
coedge $-1 $161 $166 $59 $98 forward $156 $-1 #
edge $-1 $167 49.529871372836837 $168 56.946206232596673 $97 $169 forward 7 unknown #
loop $-1 $-1 $104 $60 #
plane-surface $-1 56.269916696194997 -49.562924789521901 12.276483729437302 0 -0.54463904215088732 0.83867056331134215 1 0 0 forward_v I I I I #
loop $-1 $-1 $170 $39 #
coedge $-1 $102 $102 $103 $171 reversed $61 $-1 #
coedge $-1 $103 $103 $102 $171 forward $63 $-1 #
coedge $-1 $104 $104 $64 $105 forward $99 $-1 #
edge $-1 $172 1.374073411597558e-015 $172 6.2831853071796022 $104 $173 forward 7 unknown #
loop $-1 $-1 $111 $65 #
plane-surface $-1 56.269916696194997 -49.562924789521901 12.276483729437302 0 -0.54463904215088732 0.83867056331134215 1 0 0 forward_v I I I I #
loop $-1 $-1 $174 $42 #
coedge $-1 $109 $109 $110 $175 reversed $66 $-1 #
coedge $-1 $110 $110 $109 $175 forward $68 $-1 #
coedge $-1 $111 $111 $69 $112 forward $106 $-1 #
edge $-1 $176 1.374073411597558e-015 $176 6.2831853071796022 $111 $177 forward 7 unknown #
loop $-1 $-1 $118 $70 #
plane-surface $-1 56.269916696194997 -49.562924789521901 12.276483729437302 0 -0.54463904215088732 0.83867056331134215 1 0 0 forward_v I I I I #
loop $-1 $-1 $178 $45 #
coedge $-1 $116 $116 $117 $179 reversed $71 $-1 #
coedge $-1 $117 $117 $116 $179 forward $73 $-1 #
coedge $-1 $118 $118 $74 $119 forward $113 $-1 #
edge $-1 $180 1.374073411597558e-015 $180 6.2831853071796022 $118 $181 forward 7 unknown #
face $-1 $182 $183 $18 $-1 $184 reversed single #
loop $-1 $-1 $185 $75 #
plane-surface $-1 -75.219580675679794 0 0 1 0 0 0 0 -1 forward_v I I I I #
coedge $-1 $186 $131 $187 $188 forward $76 $-1 #
coedge $-1 $189 $78 $186 $190 forward $49 $-1 #
coedge $-1 $78 $189 $191 $192 forward $49 $-1 #
coedge $-1 $134 $133 $78 $127 reversed $135 $-1 #
edge $-1 $193 -49.562924789521908 $194 49.562924789521908 $126 $195 forward 7 unknown #
coedge $-1 $80 $79 $196 $197 forward $31 $-1 #
coedge $-1 $198 $199 $79 $130 reversed $183 $-1 #
edge $-1 $137 -75.219580675679794 $200 75.219580675679794 $129 $201 forward 7 unknown #
coedge $-1 $123 $202 $80 $132 reversed $76 $-1 #
edge $-1 $203 -75.219580675679794 $136 75.219580675679794 $131 $204 forward 7 unknown #
coedge $-1 $126 $81 $202 $205 forward $135 $-1 #
coedge $-1 $81 $126 $198 $206 reversed $135 $-1 #
loop $-1 $-1 $133 $182 #
vertex $-1 $82 $207 #
vertex $-1 $82 $208 #
straight-curve $-1 75.219580675679794 0 19.692818589197135 0 1 0 I I #
face $-1 $209 $210 $19 $-1 $211 reversed single #
loop $-1 $-1 $144 $83 #
plane-surface $-1 0 -49.562924789521908 0 0 1 0 0 0 1 forward_v I I I I #
coedge $-1 $212 $213 $143 $214 forward $84 $-1 #
coedge $-1 $151 $86 $142 $214 reversed $53 $-1 #
coedge $-1 $149 $215 $86 $145 forward $140 $-1 #
edge $-1 $216 -11.182512375337531 $152 -5.8381000523816766 $144 $217 forward 7 unknown #
coedge $-1 $88 $87 $218 $219 reversed $34 $-1 #
coedge $-1 $220 $221 $87 $148 forward $222 $-1 #
edge $-1 $223 -43.128181834638141 $153 -21.054615847445156 $147 $224 forward 7 unknown #
coedge $-1 $225 $144 $88 $150 forward $140 $-1 #
edge $-1 $152 21.054615847445156 $226 43.128181834638141 $149 $227 forward 7 unknown #
coedge $-1 $89 $143 $220 $228 reversed $53 $-1 #
vertex $-1 $150 $229 #
vertex $-1 $148 $230 #
straight-curve $-1 -53.146014688486808 0 -14.34840626624128 0 1 0 I I #
face $-1 $-1 $231 $20 $-1 $232 reversed single #
loop $-1 $-1 $161 $91 #
plane-surface $-1 0 -49.562924789521908 0 0 1 0 0 0 1 forward_v I I I I #
coedge $-1 $163 $233 $234 $235 forward $92 $-1 #
coedge $-1 $234 $94 $96 $165 forward $57 $-1 #
coedge $-1 $94 $234 $236 $237 reversed $57 $-1 #
coedge $-1 $238 $97 $94 $162 forward $156 $-1 #
edge $-1 $168 9.185294368612702 $239 47.084622327582295 $161 $240 forward 7 unknown #
coedge $-1 $241 $158 $95 $164 forward $92 $-1 #
edge $-1 $242 -27.606211973164577 $167 -16.186057975432682 $163 $243 forward 7 unknown #
edge $-1 $168 -8.8615326271544428e-015 $242 13.616972500669908 $96 $244 forward 7 unknown #
coedge $-1 $97 $238 $241 $245 reversed $156 $-1 #
vertex $-1 $245 $246 #
vertex $-1 $98 $247 #
straight-curve $-1 37.320252716710201 -49.562924789521908 69.222689962033968 0 0 -1 I I #
coedge $-1 $170 $170 $-1 $248 reversed $101 $-1 #
edge $-1 $249 0 $249 6.2831853071796004 $102 $250 forward 7 unknown #
vertex $-1 $105 $251 #
ellipse-curve $-1 44.900118308504119 -43.852847790655971 15.984651159317211 0 -0.54463904215088732 0.83867056331134215 2 0 0 1 I I #
coedge $-1 $174 $174 $-1 $252 reversed $108 $-1 #
edge $-1 $253 0 $253 6.2831853071796004 $109 $254 forward 7 unknown #
vertex $-1 $112 $255 #
ellipse-curve $-1 56.269916696194997 -43.852847790655971 15.984651159317211 0 -0.54463904215088732 0.83867056331134215 2 0 0 1 I I #
coedge $-1 $178 $178 $-1 $256 reversed $115 $-1 #
edge $-1 $257 0 $257 6.2831853071796004 $116 $258 forward 7 unknown #
vertex $-1 $119 $259 #
ellipse-curve $-1 67.639715083885875 -43.852847790655971 15.984651159317211 0 -0.54463904215088732 0.83867056331134215 2 0 0 1 I I #
face $-1 $-1 $135 $18 $-1 $260 reversed single #
loop $-1 $-1 $198 $120 #
plane-surface $-1 0 49.562924789521908 0 0 -1 0 0 0 -1 forward_v I I I I #
coedge $-1 $261 $196 $199 $262 forward $121 $-1 #
coedge $-1 $202 $123 $124 $190 reversed $76 $-1 #
coedge $-1 $196 $261 $123 $188 reversed $121 $-1 #
edge $-1 $203 -19.692818589197135 $263 19.692818589197135 $187 $264 forward 7 unknown #
coedge $-1 $125 $124 $261 $265 forward $49 $-1 #
edge $-1 $194 -75.219580675679794 $263 75.219580675679794 $186 $266 forward 7 unknown #
coedge $-1 $199 $198 $125 $192 reversed $183 $-1 #
edge $-1 $267 -75.219580675679794 $193 75.219580675679794 $191 $268 forward 7 unknown #
vertex $-1 $127 $269 #
vertex $-1 $205 $270 #
straight-curve $-1 75.219580675679794 0 -19.692818589197135 0 -1 0 I I #
coedge $-1 $185 $187 $128 $197 reversed $121 $-1 #
edge $-1 $200 -49.562924789521908 $203 49.562924789521908 $196 $271 forward 7 unknown #
coedge $-1 $191 $129 $134 $206 forward $183 $-1 #
coedge $-1 $129 $191 $185 $262 reversed $183 $-1 #
vertex $-1 $130 $272 #
straight-curve $-1 0 49.562924789521908 19.692818589197135 -1 0 0 I I #
coedge $-1 $131 $186 $133 $205 reversed $76 $-1 #
vertex $-1 $197 $273 #
straight-curve $-1 0 -49.562924789521908 19.692818589197135 1 0 0 I I #
edge $-1 $136 -19.692818589197135 $194 19.692818589197135 $133 $274 forward 7 unknown #
edge $-1 $137 -19.692818589197135 $193 19.692818589197135 $134 $275 forward 7 unknown #
point $-1 75.219580675679794 -49.562924789521908 19.692818589197135 #
point $-1 75.219580675679794 49.562924789521908 19.692818589197135 #
face $-1 $-1 $222 $19 $-1 $276 reversed single #
loop $-1 $-1 $218 $139 #
plane-surface $-1 -75.219580675679794 0 0 1 0 0 0 0 -1 forward_v I I I I #
coedge $-1 $277 $142 $215 $278 forward $84 $-1 #
coedge $-1 $142 $277 $279 $280 forward $84 $-1 #
edge $-1 $281 -49.562924789521908 $216 49.562924789521908 $142 $282 forward 7 unknown #
coedge $-1 $144 $225 $212 $278 reversed $140 $-1 #
vertex $-1 $278 $283 #
straight-curve $-1 -53.146014688486808 -49.562924789521908 -8.5103062138596037 0 0 1 I I #
coedge $-1 $284 $285 $146 $219 forward $210 $-1 #
edge $-1 $226 -49.562924789521908 $223 49.562924789521908 $218 $286 forward 7 unknown #
coedge $-1 $279 $147 $151 $228 forward $222 $-1 #
coedge $-1 $147 $279 $284 $287 reversed $222 $-1 #
loop $-1 $-1 $220 $209 #
vertex $-1 $287 $288 #
straight-curve $-1 -32.091398841041652 49.562924789521908 -14.34840626624128 1 0 0 I I #
coedge $-1 $215 $149 $285 $289 forward $140 $-1 #
vertex $-1 $289 $290 #
straight-curve $-1 -32.091398841041652 -49.562924789521908 -14.34840626624128 -1 0 0 I I #
edge $-1 $153 5.8381000523816766 $281 11.182512375337531 $220 $291 forward 7 unknown #
point $-1 -53.146014688486808 -49.562924789521908 -14.34840626624128 #
point $-1 -53.146014688486808 49.562924789521908 -14.34840626624128 #
loop $-1 $-1 $236 $155 #
plane-surface $-1 75.219580675679794 0 0 -1 0 0 0 0 1 forward_v I I I I #
coedge $-1 $158 $241 $292 $293 forward $92 $-1 #
coedge $-1 $160 $159 $158 $235 reversed $57 $-1 #
edge $-1 $294 -47.084622327582295 $242 -9.185294368612702 $158 $295 forward 7 unknown #
coedge $-1 $292 $296 $160 $237 forward $231 $-1 #
edge $-1 $239 -17.440356856602179 $294 -3.8233843559322604 $236 $297 forward 7 unknown #
coedge $-1 $166 $161 $296 $298 reversed $156 $-1 #
vertex $-1 $162 $299 #
straight-curve $-1 28.134958348097499 -49.562924789521908 12.276483729437295 1 0 0 I I #
coedge $-1 $233 $163 $166 $245 forward $92 $-1 #
vertex $-1 $164 $300 #
straight-curve $-1 37.320252716710201 -65.74898276495459 19.692818589197131 0 -1 0 I I #
straight-curve $-1 37.320252716710201 -49.562924789521901 12.276483729437302 0 0.83867056331134215 0.54463904215088732 I I #
edge $-1 $167 37.320252716710201 $301 75.219580675679794 $166 $302 forward 7 unknown #
point $-1 37.320252716710201 -49.562924789521908 19.692818589197135 #
point $-1 37.320252716710201 -49.562924789521908 12.276483729437297 #
edge $-1 $303 1 $303 0 $170 $-1 forward 7 unknown #
vertex $-1 $171 $304 #
ellipse-curve $-1 44.900118308504119 -40.839689260393428 11.34479399457587 0 -0.54463904215088732 0.83867056331134215 2 0 0 1 I I #
point $-1 46.900118308504119 -43.852847790655979 15.984651159317227 #
edge $-1 $305 1 $305 0 $174 $-1 forward 7 unknown #
vertex $-1 $175 $306 #
ellipse-curve $-1 56.269916696194997 -40.839689260393428 11.34479399457587 0 -0.54463904215088732 0.83867056331134215 2 0 0 1 I I #
point $-1 58.269916696194997 -43.852847790655979 15.984651159317227 #
edge $-1 $307 1 $307 0 $178 $-1 forward 7 unknown #
vertex $-1 $179 $308 #
ellipse-curve $-1 67.639715083885875 -40.839689260393428 11.34479399457587 0 -0.54463904215088732 0.83867056331134215 2 0 0 1 I I #
point $-1 69.639715083885875 -43.852847790655979 15.984651159317227 #
plane-surface $-1 75.219580675679794 0 0 -1 0 0 0 0 1 forward_v I I I I #
coedge $-1 $187 $185 $189 $265 reversed $121 $-1 #
edge $-1 $200 -19.692818589197135 $267 19.692818589197135 $199 $309 forward 7 unknown #
vertex $-1 $265 $310 #
straight-curve $-1 -75.219580675679794 -49.562924789521908 0 0 0 -1 I I #
edge $-1 $263 -49.562924789521908 $267 49.562924789521908 $261 $311 forward 7 unknown #
straight-curve $-1 0 -49.562924789521908 -19.692818589197135 -1 0 0 I I #
vertex $-1 $192 $312 #
straight-curve $-1 0 49.562924789521908 -19.692818589197135 1 0 0 I I #
point $-1 75.219580675679794 49.562924789521908 -19.692818589197135 #
point $-1 75.219580675679794 -49.562924789521908 -19.692818589197135 #
straight-curve $-1 -75.219580675679794 0 19.692818589197135 0 -1 0 I I #
point $-1 -75.219580675679794 49.562924789521908 19.692818589197135 #
point $-1 -75.219580675679794 -49.562924789521908 19.692818589197135 #
straight-curve $-1 75.219580675679794 -49.562924789521908 0 0 0 -1 I I #
straight-curve $-1 75.219580675679794 49.562924789521908 0 0 0 -1 I I #
plane-surface $-1 0 49.562924789521908 0 0 -1 0 0 0 -1 forward_v I I I I #
coedge $-1 $213 $212 $313 $314 forward $84 $-1 #
edge $-1 $216 53.146014688486808 $315 75.219580675679794 $215 $316 forward 7 unknown #
coedge $-1 $221 $220 $213 $280 reversed $222 $-1 #
edge $-1 $317 -75.219580675679794 $281 -53.146014688486808 $279 $318 forward 7 unknown #
vertex $-1 $228 $319 #
straight-curve $-1 -53.146014688486808 0 -19.692818589197135 0 -1 0 I I #
point $-1 -53.146014688486808 -49.562924789521908 -19.692818589197135 #
coedge $-1 $313 $218 $221 $287 forward $210 $-1 #
coedge $-1 $218 $313 $225 $289 reversed $210 $-1 #
straight-curve $-1 -75.219580675679794 0 -14.34840626624128 0 1 0 I I #
edge $-1 $223 14.34840626624128 $317 19.692818589197135 $221 $320 forward 7 unknown #
point $-1 -75.219580675679794 49.562924789521908 -14.34840626624128 #
edge $-1 $226 14.34840626624128 $315 19.692818589197135 $285 $321 forward 7 unknown #
point $-1 -75.219580675679794 -49.562924789521908 -14.34840626624128 #
straight-curve $-1 -53.146014688486808 49.562924789521908 -8.5103062138596037 0 0 -1 I I #
coedge $-1 $296 $236 $233 $293 reversed $231 $-1 #
edge $-1 $301 -49.562924789521908 $294 -38.142770791790014 $292 $322 forward 7 unknown #
vertex $-1 $235 $323 #
straight-curve $-1 28.134958348097499 -38.142770791790014 19.692818589197135 -1 0 0 I I #
coedge $-1 $236 $292 $238 $298 forward $231 $-1 #
straight-curve $-1 75.219580675679794 -34.936210880244531 21.775182982586767 0 0.83867056331134215 0.54463904215088732 I I #
edge $-1 $301 -19.692818589197135 $239 -12.276483729437297 $296 $324 forward 7 unknown #
point $-1 75.219580675679794 -49.562924789521908 12.276483729437297 #
point $-1 37.320252716710201 -38.142770791790014 19.692818589197135 #
vertex $-1 $293 $325 #
straight-curve $-1 0 -49.562924789521908 19.692818589197135 1 0 0 I I #
vertex $-1 $248 $326 #
point $-1 46.900118308504119 -40.839689260393428 11.34479399457587 #
vertex $-1 $252 $327 #
point $-1 58.269916696194997 -40.839689260393428 11.34479399457587 #
vertex $-1 $256 $328 #
point $-1 69.639715083885875 -40.839689260393428 11.34479399457587 #
straight-curve $-1 -75.219580675679794 49.562924789521908 0 0 0 -1 I I #
point $-1 -75.219580675679794 -49.562924789521908 -19.692818589197135 #
straight-curve $-1 -75.219580675679794 0 -19.692818589197135 0 1 0 I I #
point $-1 -75.219580675679794 49.562924789521908 -19.692818589197135 #
coedge $-1 $285 $284 $277 $314 reversed $210 $-1 #
edge $-1 $315 -49.562924789521908 $317 49.562924789521908 $313 $329 forward 7 unknown #
vertex $-1 $314 $330 #
straight-curve $-1 0 -49.562924789521908 -19.692818589197135 -1 0 0 I I #
vertex $-1 $280 $331 #
straight-curve $-1 0 49.562924789521908 -19.692818589197135 1 0 0 I I #
point $-1 -53.146014688486808 49.562924789521908 -19.692818589197135 #
straight-curve $-1 -75.219580675679794 49.562924789521908 0 0 0 -1 I I #
straight-curve $-1 -75.219580675679794 -49.562924789521908 0 0 0 -1 I I #
straight-curve $-1 75.219580675679794 0 19.692818589197135 0 1 0 I I #
point $-1 75.219580675679794 -38.142770791790014 19.692818589197135 #
straight-curve $-1 75.219580675679794 -49.562924789521908 0 0 0 -1 I I #
point $-1 75.219580675679794 -49.562924789521908 19.692818589197135 #
point $-1 44.900118308504119 -39.75041117609166 9.6674528679531839 #
point $-1 56.269916696194997 -39.75041117609166 9.6674528679531839 #
point $-1 67.639715083885875 -39.75041117609166 9.6674528679531839 #
straight-curve $-1 -75.219580675679794 0 -19.692818589197135 0 1 0 I I #
point $-1 -75.219580675679794 -49.562924789521908 -19.692818589197135 #
point $-1 -75.219580675679794 49.562924789521908 -19.692818589197135 #
End-of-ACIS-data 