500 0 12 0           
7 Unknown 11 ACIS 5.0 NT 24 Fri Mar 26 02:41:53 1999 
-1 9.9999999999999995e-007 1e-010 
body $-1 $12 $-1 $13 #
body $-1 $14 $-1 $15 #
body $-1 $16 $-1 $17 #
body $-1 $18 $-1 $19 #
body $-1 $20 $-1 $21 #
body $-1 $22 $-1 $23 #
body $-1 $24 $-1 $25 #
body $-1 $26 $-1 $27 #
body $-1 $28 $-1 $29 #
body $-1 $30 $-1 $31 #
body $-1 $32 $-1 $33 #
body $-1 $34 $-1 $35 #
lump $-1 $-1 $36 $0 #
transform $-1 1 0 0 0 1 0 0 0 1 41.229285561693167 20.501273884423092 8.4019747532316291 1 rotate no_reflect no_shear #
lump $-1 $-1 $37 $1 #
transform $-1 1 0 0 0 1 0 0 0 1 41.229285561693167 20.501273884423092 8.4019747532316291 1 rotate no_reflect no_shear #
lump $-1 $-1 $38 $2 #
transform $-1 1 0 0 0 1 0 0 0 1 41.229285561693167 20.501273884423092 8.4019747532316291 1 rotate no_reflect no_shear #
lump $-1 $-1 $39 $3 #
transform $-1 1 0 0 0 1 0 0 0 1 41.229285561693167 20.501273884423092 8.4019747532316291 1 rotate no_reflect no_shear #
lump $-1 $-1 $40 $4 #
transform $-1 1 0 0 0 1 0 0 0 1 41.229285561693167 20.501273884423092 8.4019747532316291 1 rotate no_reflect no_shear #
lump $-1 $-1 $41 $5 #
transform $-1 1 0 0 0 1 0 0 0 1 41.229285561693167 20.501273884423092 8.4019747532316291 1 rotate no_reflect no_shear #
lump $-1 $-1 $42 $6 #
transform $-1 1 0 0 0 1 0 0 0 1 41.229285561693167 20.501273884423092 8.4019747532316291 1 rotate no_reflect no_shear #
lump $-1 $-1 $43 $7 #
transform $-1 1 0 0 0 1 0 0 0 1 41.229285561693167 20.501273884423092 8.4019747532316291 1 rotate no_reflect no_shear #
lump $-1 $-1 $44 $8 #
transform $-1 1 0 0 0 1 0 0 0 1 41.229285561693167 20.501273884423092 8.4019747532316291 1 rotate no_reflect no_shear #
lump $-1 $-1 $45 $9 #
transform $-1 1 0 0 0 1 0 0 0 1 41.229285561693167 20.501273884423092 8.4019747532316291 1 rotate no_reflect no_shear #
lump $-1 $-1 $46 $10 #
transform $-1 1 0 0 0 1 0 0 0 1 41.229285561693167 20.501273884423092 8.4019747532316291 1 rotate no_reflect no_shear #
lump $-1 $-1 $47 $11 #
transform $-1 1 0 0 0 1 0 0 0 1 41.229285561693167 20.501273884423092 8.4019747532316291 1 rotate no_reflect no_shear #
shell $-1 $-1 $-1 $48 $-1 $12 #
shell $-1 $-1 $-1 $49 $-1 $14 #
shell $-1 $-1 $-1 $50 $-1 $16 #
shell $-1 $-1 $-1 $51 $-1 $18 #
shell $-1 $-1 $-1 $52 $-1 $20 #
shell $-1 $-1 $-1 $53 $-1 $22 #
shell $-1 $-1 $-1 $54 $-1 $24 #
shell $-1 $-1 $-1 $55 $-1 $26 #
shell $-1 $-1 $-1 $56 $-1 $28 #
shell $-1 $-1 $-1 $57 $-1 $30 #
shell $-1 $-1 $-1 $58 $-1 $32 #
shell $-1 $-1 $-1 $59 $-1 $34 #
face $-1 $60 $61 $36 $-1 $62 forward single #
face $-1 $63 $64 $37 $-1 $65 reversed single #
face $-1 $66 $67 $38 $-1 $68 forward single #
face $-1 $69 $70 $39 $-1 $71 reversed single #
face $-1 $72 $73 $40 $-1 $74 forward single #
face $-1 $75 $76 $41 $-1 $77 reversed single #
face $-1 $78 $79 $42 $-1 $80 forward single #
face $-1 $81 $82 $43 $-1 $83 reversed single #
face $-1 $84 $85 $44 $-1 $86 forward single #
face $-1 $87 $88 $45 $-1 $89 reversed single #
face $-1 $90 $91 $46 $-1 $92 forward single #
face $-1 $93 $94 $47 $-1 $95 forward single #
face $-1 $96 $97 $36 $-1 $98 reversed single #
loop $-1 $-1 $99 $48 #
plane-surface $-1 0 0 8.4019747532316291 0 0 1 1 0 0 forward_v I I I I #
face $-1 $100 $101 $37 $-1 $102 reversed single #
loop $-1 $-1 $103 $49 #
plane-surface $-1 -107.08362924672406 -18.344335413175944 54.884671235368998 0 1 0 -0.79863551827123203 0 0.60181501223851219 forward_v I I I I #
face $-1 $104 $105 $38 $-1 $106 forward single #
loop $-1 $107 $108 $50 #
cone-surface $-1 -39.329820873002667 -15.323143676111302 6.2916842345935953 0.79863551827123203 0 -0.60181501223851219 0.3009075061192561 0 0.39931775913561601 1 I I 0 1 0.5 forward I I I I #
face $-1 $109 $110 $39 $-1 $111 reversed single #
loop $-1 $-1 $112 $51 #
plane-surface $-1 -107.08362924672406 -8.1289062957684077 54.884671235368998 0 1 0 -0.79863551827123203 0 0.60181501223851219 forward_v I I I I #
face $-1 $113 $114 $40 $-1 $115 forward single #
loop $-1 $116 $117 $52 #
cone-surface $-1 -39.329820873002667 -5.1077145587037656 6.2916842345935953 0.79863551827123203 0 -0.60181501223851219 0.3009075061192561 0 0.39931775913561601 1 I I 0 1 0.5 forward I I I I #
face $-1 $118 $119 $41 $-1 $120 reversed single #
loop $-1 $-1 $121 $53 #
plane-surface $-1 -107.08362924672406 2.0865228216391274 54.884671235368998 0 1 0 -0.79863551827123203 0 0.60181501223851219 forward_v I I I I #
face $-1 $122 $123 $42 $-1 $124 forward single #
loop $-1 $125 $126 $54 #
cone-surface $-1 -39.329820873002667 5.1077145587037691 6.2916842345935953 0.79863551827123203 0 -0.60181501223851219 0.3009075061192561 0 0.39931775913561601 1 I I 0 1 0.5 forward I I I I #
face $-1 $127 $128 $43 $-1 $129 reversed single #
loop $-1 $-1 $130 $55 #
plane-surface $-1 -107.08362924672406 12.301951939046665 54.884671235368998 0 1 0 -0.79863551827123203 0 0.60181501223851219 forward_v I I I I #
face $-1 $131 $132 $44 $-1 $133 forward single #
loop $-1 $134 $135 $56 #
cone-surface $-1 -39.329820873002667 15.323143676111307 6.2916842345935953 0.79863551827123203 0 -0.60181501223851219 0.3009075061192561 0 0.39931775913561601 1 I I 0 1 0.5 forward I I I I #
face $-1 $136 $137 $45 $-1 $138 reversed single #
loop $-1 $-1 $139 $57 #
plane-surface $-1 -7.2386455409304702 -15.126589320642161 71.206618762728851 0.80901700255871778 0 0.5877852410284794 0.5877852410284794 0 -0.80901700255871778 forward_v I I I I #
face $-1 $140 $141 $46 $-1 $142 forward single #
loop $-1 $143 $144 $58 #
cone-surface $-1 39.146157493694616 -17.430025562262561 5.9664729814185637 -0.80901700255871778 0 -0.5877852410284794 0.2938926205142397 0 -0.40450850127935889 1 I I 0 1 0.5 forward I I I I #
face $-1 $145 $146 $47 $-1 $147 forward single #
loop $-1 $148 $149 $59 #
cone-surface $-1 39.146157493694616 -12.823153079021761 5.9664729814185637 -0.80901700255871778 0 -0.5877852410284794 0.2938926205142397 0 -0.40450850127935889 1 I I 0 1 0.5 forward I I I I #
face $-1 $150 $151 $36 $-1 $152 reversed single #
loop $-1 $-1 $153 $60 #
plane-surface $-1 0 0 -8.4019747532316291 0 0 1 1 0 0 forward_v I I I I #
coedge $-1 $154 $155 $156 $157 forward $61 $-1 #
face $-1 $158 $159 $37 $-1 $160 reversed single #
loop $-1 $-1 $161 $63 #
plane-surface $-1 -41.22928556169316 -15.323143676111302 5.2598652455780197 -0.79863551827123203 0 0.60181501223851219 0.60181501223851219 0 0.79863551827123203 forward_v I I I I #
coedge $-1 $162 $163 $164 $165 reversed $64 $-1 #
face $-1 $-1 $166 $38 $-1 $167 forward single #
loop $-1 $168 $169 $66 #
cone-surface $-1 -38.414571943764038 -15.323143676111302 5.601994716722734 0.79863551827123203 0 -0.60181501223851219 0.15045375305962805 0 0.19965887956780801 1 I I -0.70710678118654746 0.70710678118654746 0.25 forward I I I I #
loop $-1 $-1 $170 $50 #
coedge $-1 $108 $108 $171 $172 reversed $67 $-1 #
face $-1 $173 $174 $39 $-1 $175 reversed single #
loop $-1 $-1 $176 $69 #
plane-surface $-1 -41.22928556169316 -5.1077145587037656 5.2598652455780197 -0.79863551827123203 0 0.60181501223851219 0.60181501223851219 0 0.79863551827123203 forward_v I I I I #
coedge $-1 $177 $178 $179 $180 reversed $70 $-1 #
face $-1 $-1 $181 $40 $-1 $182 forward single #
loop $-1 $183 $184 $72 #
cone-surface $-1 -38.414571943764038 -5.1077145587037656 5.601994716722734 0.79863551827123203 0 -0.60181501223851219 0.15045375305962805 0 0.19965887956780801 1 I I -0.70710678118654746 0.70710678118654746 0.25 forward I I I I #
loop $-1 $-1 $185 $52 #
coedge $-1 $117 $117 $186 $187 reversed $73 $-1 #
face $-1 $188 $189 $41 $-1 $190 reversed single #
loop $-1 $-1 $191 $75 #
plane-surface $-1 -41.22928556169316 5.1077145587037691 5.2598652455780197 -0.79863551827123203 0 0.60181501223851219 0.60181501223851219 0 0.79863551827123203 forward_v I I I I #
coedge $-1 $192 $193 $194 $195 reversed $76 $-1 #
face $-1 $-1 $196 $42 $-1 $197 forward single #
loop $-1 $198 $199 $78 #
cone-surface $-1 -38.414571943764038 5.1077145587037691 5.601994716722734 0.79863551827123203 0 -0.60181501223851219 0.15045375305962805 0 0.19965887956780801 1 I I -0.70710678118654746 0.70710678118654746 0.25 forward I I I I #
loop $-1 $-1 $200 $54 #
coedge $-1 $126 $126 $201 $202 reversed $79 $-1 #
face $-1 $203 $204 $43 $-1 $205 reversed single #
loop $-1 $-1 $206 $81 #
plane-surface $-1 -41.22928556169316 15.323143676111307 5.2598652455780197 -0.79863551827123203 0 0.60181501223851219 0.60181501223851219 0 0.79863551827123203 forward_v I I I I #
coedge $-1 $207 $208 $209 $210 reversed $82 $-1 #
face $-1 $-1 $211 $44 $-1 $212 forward single #
loop $-1 $213 $214 $84 #
cone-surface $-1 -38.414571943764038 15.323143676111307 5.601994716722734 0.79863551827123203 0 -0.60181501223851219 0.15045375305962805 0 0.19965887956780801 1 I I -0.70710678118654746 0.70710678118654746 0.25 forward I I I I #
loop $-1 $-1 $215 $56 #
coedge $-1 $135 $135 $216 $217 reversed $85 $-1 #
face $-1 $218 $219 $45 $-1 $220 forward single #
loop $-1 $-1 $221 $87 #
plane-surface $-1 59.471740504586386 -9.7519047568612294 119.6745498653525 0 -1 0 -0.80901700255871778 0 -0.5877852410284794 forward_v I I I I #
coedge $-1 $222 $223 $224 $225 reversed $88 $-1 #
face $-1 $-1 $226 $46 $-1 $227 forward single #
loop $-1 $228 $229 $90 #
cone-surface $-1 38.27961897980709 -17.430025562262561 5.3368959173581896 -0.80901700255871778 0 -0.5877852410284794 0.14694631025711985 0 -0.20225425063967944 1 I I -0.70710678118654746 0.70710678118654746 0.25 forward I I I I #
loop $-1 $-1 $230 $58 #
coedge $-1 $144 $144 $231 $232 reversed $91 $-1 #
face $-1 $-1 $233 $47 $-1 $234 forward single #
loop $-1 $235 $236 $93 #
cone-surface $-1 38.27961897980709 -12.823153079021761 5.3368959173581896 -0.80901700255871778 0 -0.5877852410284794 0.14694631025711985 0 -0.20225425063967944 1 I I -0.70710678118654746 0.70710678118654746 0.25 forward I I I I #
loop $-1 $-1 $237 $59 #
coedge $-1 $149 $149 $238 $239 reversed $94 $-1 #
face $-1 $240 $241 $36 $-1 $242 reversed single #
loop $-1 $-1 $243 $96 #
plane-surface $-1 0 -20.501273884423092 0 0 1 0 0 0 1 forward_v I I I I #
coedge $-1 $244 $245 $246 $247 forward $97 $-1 #
coedge $-1 $248 $99 $249 $250 forward $61 $-1 #
coedge $-1 $99 $248 $251 $252 forward $61 $-1 #
coedge $-1 $253 $254 $99 $157 reversed $255 $-1 #
edge $-1 $256 -20.501273884423092 $257 20.501273884423092 $156 $258 forward 7 unknown #
face $-1 $259 $260 $37 $-1 $261 reversed single #
loop $-1 $-1 $262 $100 #
plane-surface $-1 -107.08362924672406 -12.30195193904666 54.884671235368998 0 -1 0 0.79863551827123203 0 -0.60181501223851219 forward_v I I I I #
coedge $-1 $263 $264 $265 $266 reversed $101 $-1 #
coedge $-1 $163 $103 $267 $268 reversed $64 $-1 #
coedge $-1 $103 $162 $263 $269 reversed $64 $-1 #
coedge $-1 $265 $270 $103 $165 forward $271 $-1 #
edge $-1 $272 12.312529061668862 $273 14.680278339708231 $164 $274 forward 7 unknown #
loop $-1 $-1 $171 $104 #
plane-surface $-1 -41.22928556169316 -15.323143676111302 5.2598652455780197 -0.79863551827123203 0 0.60181501223851219 0.60181501223851219 0 0.79863551827123203 forward_v I I I I #
loop $-1 $-1 $275 $66 #
coedge $-1 $169 $169 $170 $276 reversed $105 $-1 #
coedge $-1 $170 $170 $169 $276 forward $107 $-1 #
coedge $-1 $171 $171 $108 $172 forward $166 $-1 #
edge $-1 $277 0 $277 6.2831853071796004 $171 $278 forward 7 unknown #
face $-1 $279 $280 $39 $-1 $281 forward single #
loop $-1 $-1 $282 $109 #
plane-surface $-1 -107.08362924672406 -2.0865228216391238 54.884671235368998 0 -1 0 0.79863551827123203 0 -0.60181501223851219 forward_v I I I I #
coedge $-1 $283 $284 $285 $286 reversed $110 $-1 #
coedge $-1 $178 $112 $287 $288 reversed $70 $-1 #
coedge $-1 $112 $177 $283 $289 reversed $70 $-1 #
coedge $-1 $285 $290 $112 $180 forward $280 $-1 #
edge $-1 $291 12.312529061668862 $292 14.680278339708231 $179 $293 forward 7 unknown #
loop $-1 $-1 $186 $113 #
plane-surface $-1 -41.22928556169316 -5.1077145587037656 5.2598652455780197 -0.79863551827123203 0 0.60181501223851219 0.60181501223851219 0 0.79863551827123203 forward_v I I I I #
loop $-1 $-1 $294 $72 #
coedge $-1 $184 $184 $185 $295 reversed $114 $-1 #
coedge $-1 $185 $185 $184 $295 forward $116 $-1 #
coedge $-1 $186 $186 $117 $187 forward $181 $-1 #
edge $-1 $296 0 $296 6.2831853071796004 $186 $297 forward 7 unknown #
face $-1 $298 $299 $41 $-1 $300 forward single #
loop $-1 $-1 $301 $118 #
plane-surface $-1 -107.08362924672406 8.1289062957684113 54.884671235368998 0 -1 0 0.79863551827123203 0 -0.60181501223851219 forward_v I I I I #
coedge $-1 $302 $303 $304 $305 reversed $119 $-1 #
coedge $-1 $193 $121 $306 $307 reversed $76 $-1 #
coedge $-1 $121 $192 $302 $308 reversed $76 $-1 #
coedge $-1 $304 $309 $121 $195 forward $299 $-1 #
edge $-1 $310 12.312529061668862 $311 14.680278339708231 $194 $312 forward 7 unknown #
loop $-1 $-1 $201 $122 #
plane-surface $-1 -41.22928556169316 5.1077145587037691 5.2598652455780197 -0.79863551827123203 0 0.60181501223851219 0.60181501223851219 0 0.79863551827123203 forward_v I I I I #
loop $-1 $-1 $313 $78 #
coedge $-1 $199 $199 $200 $314 reversed $123 $-1 #
coedge $-1 $200 $200 $199 $314 forward $125 $-1 #
coedge $-1 $201 $201 $126 $202 forward $196 $-1 #
edge $-1 $315 0 $315 6.2831853071796004 $201 $316 forward 7 unknown #
face $-1 $317 $318 $43 $-1 $319 forward single #
loop $-1 $-1 $320 $127 #
plane-surface $-1 -107.08362924672406 18.344335413175948 54.884671235368998 0 -1 0 0.79863551827123203 0 -0.60181501223851219 forward_v I I I I #
coedge $-1 $321 $322 $323 $324 reversed $128 $-1 #
coedge $-1 $208 $130 $325 $326 reversed $82 $-1 #
coedge $-1 $130 $207 $321 $327 reversed $82 $-1 #
coedge $-1 $323 $328 $130 $210 forward $318 $-1 #
edge $-1 $329 12.312529061668862 $330 14.680278339708231 $209 $331 forward 7 unknown #
loop $-1 $-1 $216 $131 #
plane-surface $-1 -41.22928556169316 15.323143676111307 5.2598652455780197 -0.79863551827123203 0 0.60181501223851219 0.60181501223851219 0 0.79863551827123203 forward_v I I I I #
loop $-1 $-1 $332 $84 #
coedge $-1 $214 $214 $215 $333 reversed $132 $-1 #
coedge $-1 $215 $215 $214 $333 forward $134 $-1 #
coedge $-1 $216 $216 $135 $217 forward $211 $-1 #
edge $-1 $334 0 $334 6.2831853071796004 $216 $335 forward 7 unknown #
face $-1 $336 $337 $45 $-1 $338 reversed single #
loop $-1 $-1 $339 $136 #
plane-surface $-1 0 0 8.4019747532316291 0 0 1 1 0 0 forward_v I I I I #
coedge $-1 $340 $341 $342 $343 reversed $137 $-1 #
coedge $-1 $344 $139 $345 $346 reversed $88 $-1 #
coedge $-1 $139 $344 $340 $347 forward $88 $-1 #
coedge $-1 $342 $348 $139 $225 forward $349 $-1 #
edge $-1 $350 -12.937979224102012 $351 -2.1886100965401489 $224 $352 forward 7 unknown #
loop $-1 $-1 $231 $140 #
plane-surface $-1 -7.2386455409304702 -15.126589320642161 71.206618762728851 0.80901700255871778 0 0.5877852410284794 0.5877852410284794 0 -0.80901700255871778 forward_v I I I I #
loop $-1 $-1 $353 $90 #
coedge $-1 $229 $229 $230 $354 reversed $141 $-1 #
coedge $-1 $230 $230 $229 $354 forward $143 $-1 #
coedge $-1 $231 $231 $144 $232 forward $226 $-1 #
edge $-1 $355 0 $355 6.2831853071796004 $231 $356 forward 7 unknown #
loop $-1 $-1 $238 $145 #
plane-surface $-1 -7.2386455409304702 -15.126589320642161 71.206618762728851 0.80901700255871778 0 0.5877852410284794 0.5877852410284794 0 -0.80901700255871778 forward_v I I I I #
loop $-1 $-1 $357 $93 #
coedge $-1 $236 $236 $237 $358 reversed $146 $-1 #
coedge $-1 $237 $237 $236 $358 forward $148 $-1 #
coedge $-1 $238 $238 $149 $239 forward $233 $-1 #
edge $-1 $359 0 $359 6.2831853071796004 $238 $360 forward 7 unknown #
face $-1 $361 $362 $36 $-1 $363 reversed single #
loop $-1 $-1 $364 $150 #
plane-surface $-1 -41.229285561693167 0 0 1 0 0 0 0 -1 forward_v I I I I #
coedge $-1 $365 $251 $366 $367 forward $151 $-1 #
coedge $-1 $368 $153 $365 $369 forward $97 $-1 #
coedge $-1 $153 $368 $370 $371 forward $97 $-1 #
coedge $-1 $254 $253 $153 $247 reversed $255 $-1 #
edge $-1 $372 -20.501273884423092 $373 20.501273884423092 $246 $374 forward 7 unknown #
coedge $-1 $155 $154 $375 $376 forward $61 $-1 #
coedge $-1 $377 $378 $154 $250 reversed $362 $-1 #
edge $-1 $257 -41.229285561693167 $379 41.229285561693167 $249 $380 forward 7 unknown #
coedge $-1 $243 $381 $155 $252 reversed $151 $-1 #
edge $-1 $382 -41.229285561693167 $256 41.229285561693167 $251 $383 forward 7 unknown #
coedge $-1 $246 $156 $381 $384 forward $255 $-1 #
coedge $-1 $156 $246 $377 $385 reversed $255 $-1 #
loop $-1 $-1 $253 $361 #
vertex $-1 $157 $386 #
vertex $-1 $157 $387 #
straight-curve $-1 41.229285561693167 0 8.4019747532316291 0 1 0 I I #
face $-1 $-1 $271 $37 $-1 $388 forward single #
loop $-1 $-1 $389 $158 #
plane-surface $-1 -41.229285561693167 0 0 1 0 0 0 0 -1 forward_v I I I I #
coedge $-1 $390 $391 $392 $393 reversed $159 $-1 #
coedge $-1 $394 $161 $163 $269 forward $101 $-1 #
coedge $-1 $161 $394 $390 $395 forward $101 $-1 #
coedge $-1 $392 $164 $161 $266 forward $271 $-1 #
edge $-1 $273 -10.682763575120294 $396 -4.6403801009910088 $265 $397 forward 7 unknown #
coedge $-1 $398 $399 $162 $268 forward $260 $-1 #
edge $-1 $400 -22.18247037210649 $272 -19.040360864452872 $267 $401 forward 7 unknown #
edge $-1 $273 -3.9343473158508928 $400 1.2078792010054373e-014 $163 $402 forward 7 unknown #
coedge $-1 $164 $392 $398 $403 forward $271 $-1 #
loop $-1 $-1 $392 $259 #
vertex $-1 $268 $404 #
vertex $-1 $165 $405 #
straight-curve $-1 -53.541814623362029 -18.344335413175944 8.4019747532316273 1 0 0 I I #
coedge $-1 $275 $275 $-1 $406 reversed $168 $-1 #
edge $-1 $407 0 $407 6.2831853071796004 $169 $408 forward 7 unknown #
vertex $-1 $172 $409 #
ellipse-curve $-1 -40.045410922673483 -15.323143676111302 6.8309199994048218 -0.79863551827123203 0 0.60181501223851219 0.3009075061192561 0 0.39931775913561601 1 I I #
face $-1 $-1 $410 $39 $-1 $411 reversed single #
loop $-1 $-1 $179 $173 #
plane-surface $-1 0 0 8.4019747532316291 0 0 1 1 0 0 forward_v I I I I #
coedge $-1 $412 $413 $414 $415 reversed $174 $-1 #
coedge $-1 $416 $176 $178 $289 forward $110 $-1 #
coedge $-1 $176 $416 $412 $417 forward $110 $-1 #
coedge $-1 $414 $179 $176 $286 forward $280 $-1 #
edge $-1 $292 -5.5750490164165249 $418 0.46733445771275894 $285 $419 forward 7 unknown #
coedge $-1 $420 $421 $177 $288 forward $410 $-1 #
edge $-1 $422 -22.18247037210649 $291 -19.040360864452872 $287 $423 forward 7 unknown #
edge $-1 $292 -3.9343473158508928 $422 1.2078792010054373e-014 $178 $424 forward 7 unknown #
coedge $-1 $179 $414 $420 $425 forward $280 $-1 #
vertex $-1 $180 $426 #
vertex $-1 $180 $427 #
straight-curve $-1 -53.541814623362029 -8.1289062957684077 8.4019747532316273 1 0 0 I I #
coedge $-1 $294 $294 $-1 $428 reversed $183 $-1 #
edge $-1 $429 0 $429 6.2831853071796004 $184 $430 forward 7 unknown #
vertex $-1 $187 $431 #
ellipse-curve $-1 -40.045410922673483 -5.1077145587037656 6.8309199994048218 -0.79863551827123203 0 0.60181501223851219 0.3009075061192561 0 0.39931775913561601 1 I I #
face $-1 $-1 $432 $41 $-1 $433 reversed single #
loop $-1 $-1 $194 $188 #
plane-surface $-1 0 0 8.4019747532316291 0 0 1 1 0 0 forward_v I I I I #
coedge $-1 $434 $435 $436 $437 reversed $189 $-1 #
coedge $-1 $438 $191 $193 $308 forward $119 $-1 #
coedge $-1 $191 $438 $434 $439 forward $119 $-1 #
coedge $-1 $436 $194 $191 $305 forward $299 $-1 #
edge $-1 $311 -0.46733445771275717 $440 5.5750490164165267 $304 $441 forward 7 unknown #
coedge $-1 $442 $443 $192 $307 forward $432 $-1 #
edge $-1 $444 -22.18247037210649 $310 -19.040360864452872 $306 $445 forward 7 unknown #
edge $-1 $311 -3.9343473158508928 $444 1.2078792010054373e-014 $193 $446 forward 7 unknown #
coedge $-1 $194 $436 $442 $447 forward $299 $-1 #
vertex $-1 $195 $448 #
vertex $-1 $195 $449 #
straight-curve $-1 -53.541814623362029 2.0865228216391274 8.4019747532316273 1 0 0 I I #
coedge $-1 $313 $313 $-1 $450 reversed $198 $-1 #
edge $-1 $451 0 $451 6.2831853071796004 $199 $452 forward 7 unknown #
vertex $-1 $202 $453 #
ellipse-curve $-1 -40.045410922673483 5.1077145587037691 6.8309199994048218 -0.79863551827123203 0 0.60181501223851219 0.3009075061192561 0 0.39931775913561601 1 I I #
face $-1 $-1 $454 $43 $-1 $455 reversed single #
loop $-1 $-1 $209 $203 #
plane-surface $-1 0 0 8.4019747532316291 0 0 1 1 0 0 forward_v I I I I #
coedge $-1 $456 $457 $458 $459 reversed $204 $-1 #
coedge $-1 $460 $206 $208 $327 forward $128 $-1 #
coedge $-1 $206 $460 $456 $461 forward $128 $-1 #
coedge $-1 $458 $209 $206 $324 forward $318 $-1 #
edge $-1 $330 4.6403801009910115 $462 10.682763575120294 $323 $463 forward 7 unknown #
coedge $-1 $464 $465 $207 $326 forward $454 $-1 #
edge $-1 $466 -22.18247037210649 $329 -19.040360864452872 $325 $467 forward 7 unknown #
edge $-1 $330 -3.9343473158508928 $466 1.2078792010054373e-014 $208 $468 forward 7 unknown #
coedge $-1 $209 $458 $464 $469 forward $318 $-1 #
vertex $-1 $210 $470 #
vertex $-1 $210 $471 #
straight-curve $-1 -53.541814623362029 12.301951939046665 8.4019747532316273 1 0 0 I I #
coedge $-1 $332 $332 $-1 $472 reversed $213 $-1 #
edge $-1 $473 0 $473 6.2831853071796004 $214 $474 forward 7 unknown #
vertex $-1 $217 $475 #
ellipse-curve $-1 -40.045410922673483 15.323143676111307 6.8309199994048218 -0.79863551827123203 0 0.60181501223851219 0.3009075061192561 0 0.39931775913561601 1 I I #
face $-1 $-1 $349 $45 $-1 $476 reversed single #
loop $-1 $-1 $345 $218 #
plane-surface $-1 0 -20.501273884423092 0 0 1 0 0 0 1 forward_v I I I I #
coedge $-1 $477 $478 $341 $479 forward $219 $-1 #
coedge $-1 $341 $221 $223 $347 reversed $137 $-1 #
coedge $-1 $221 $340 $339 $479 reversed $137 $-1 #
coedge $-1 $480 $224 $221 $343 forward $349 $-1 #
edge $-1 $351 -55.341042215464242 $481 -51.435300179444624 $342 $482 forward 7 unknown #
coedge $-1 $223 $222 $477 $483 reversed $88 $-1 #
coedge $-1 $484 $485 $222 $346 forward $337 $-1 #
edge $-1 $486 46.699741369243924 $350 51.52750397950642 $345 $487 forward 7 unknown #
edge $-1 $488 77.63080851312381 $351 82.458571123386321 $340 $489 forward 7 unknown #
coedge $-1 $224 $480 $484 $490 forward $349 $-1 #
loop $-1 $-1 $342 $336 #
vertex $-1 $346 $491 #
vertex $-1 $225 $492 #
straight-curve $-1 41.229285561693167 -7.5632946603210804 4.4962327172120169 0 1 0 I I #
coedge $-1 $353 $353 $-1 $493 reversed $228 $-1 #
edge $-1 $494 0 $494 6.2831853071796004 $229 $495 forward 7 unknown #
vertex $-1 $232 $496 #
ellipse-curve $-1 39.81044175694246 -17.430025562262561 6.4491037352218132 0.80901700255871778 0 0.5877852410284794 0.2938926205142397 0 -0.40450850127935889 1 I I #
coedge $-1 $357 $357 $-1 $497 reversed $235 $-1 #
edge $-1 $498 0 $498 6.2831853071796004 $236 $499 forward 7 unknown #
vertex $-1 $239 $500 #
ellipse-curve $-1 39.81044175694246 -12.823153079021761 6.4491037352218132 0.80901700255871778 0 0.5877852410284794 0.2938926205142397 0 -0.40450850127935889 1 I I #
face $-1 $-1 $255 $36 $-1 $501 reversed single #
loop $-1 $-1 $377 $240 #
plane-surface $-1 0 20.501273884423092 0 0 -1 0 0 0 -1 forward_v I I I I #
coedge $-1 $502 $375 $378 $503 forward $241 $-1 #
coedge $-1 $381 $243 $244 $369 reversed $151 $-1 #
coedge $-1 $375 $502 $243 $367 reversed $241 $-1 #
edge $-1 $382 -8.4019747532316291 $504 8.4019747532316291 $366 $505 forward 7 unknown #
coedge $-1 $245 $244 $502 $506 forward $97 $-1 #
edge $-1 $373 -41.229285561693167 $504 41.229285561693167 $365 $507 forward 7 unknown #
coedge $-1 $378 $377 $245 $371 reversed $362 $-1 #
edge $-1 $508 -41.229285561693167 $372 41.229285561693167 $370 $509 forward 7 unknown #
vertex $-1 $247 $510 #
vertex $-1 $384 $511 #
straight-curve $-1 41.229285561693167 0 -8.4019747532316291 0 -1 0 I I #
coedge $-1 $364 $366 $248 $376 reversed $241 $-1 #
edge $-1 $379 -20.501273884423092 $382 20.501273884423092 $375 $512 forward 7 unknown #
coedge $-1 $370 $249 $254 $385 forward $362 $-1 #
coedge $-1 $249 $370 $364 $503 reversed $362 $-1 #
vertex $-1 $250 $513 #
straight-curve $-1 0 20.501273884423092 8.4019747532316291 -1 0 0 I I #
coedge $-1 $251 $365 $253 $384 reversed $151 $-1 #
vertex $-1 $376 $514 #
straight-curve $-1 0 -20.501273884423092 8.4019747532316291 1 0 0 I I #
edge $-1 $256 -8.4019747532316291 $373 8.4019747532316291 $253 $515 forward 7 unknown #
edge $-1 $257 -8.4019747532316291 $372 8.4019747532316291 $254 $516 forward 7 unknown #
point $-1 41.229285561693167 -20.501273884423092 8.4019747532316291 #
point $-1 41.229285561693167 20.501273884423092 8.4019747532316291 #
plane-surface $-1 0 0 8.4019747532316291 0 0 1 1 0 0 forward_v I I I I #
coedge $-1 $399 $398 $391 $517 forward $260 $-1 #
coedge $-1 $391 $262 $264 $395 reversed $159 $-1 #
coedge $-1 $262 $390 $389 $517 reversed $159 $-1 #
coedge $-1 $270 $265 $262 $393 forward $271 $-1 #
edge $-1 $396 -14.680278339708231 $518 -12.312529061668862 $392 $519 forward 7 unknown #
coedge $-1 $264 $263 $399 $520 reversed $101 $-1 #
edge $-1 $521 -1.2078792010054373e-014 $396 3.9343473158508928 $390 $522 forward 7 unknown #
vertex $-1 $266 $523 #
straight-curve $-1 -38.861536283653798 -7.661571838055651 8.4019747532316309 0 1 0 I I #
coedge $-1 $389 $267 $270 $403 reversed $260 $-1 #
coedge $-1 $267 $389 $394 $520 forward $260 $-1 #
vertex $-1 $268 $524 #
straight-curve $-1 -41.229285561693167 -18.344335413175944 27.442335617684499 0 0 1 I I #
straight-curve $-1 -41.22928556169316 -18.344335413175944 5.2598652455780197 -0.60181501223851219 0 -0.79863551827123203 I I #
edge $-1 $518 12.30195193904666 $272 18.344335413175944 $398 $525 forward 7 unknown #
point $-1 -41.229285561693167 -18.344335413175944 8.4019747532316291 #
point $-1 -38.861536283653798 -18.344335413175944 8.4019747532316291 #
edge $-1 $526 1 $526 0 $275 $-1 forward 7 unknown #
vertex $-1 $276 $527 #
ellipse-curve $-1 -38.614230823331845 -15.323143676111302 5.7524484697823617 -0.79863551827123203 0 0.60181501223851219 0.3009075061192561 0 0.39931775913561601 1 I I #
point $-1 -39.744503416554231 -15.323143676111302 7.2302377585404445 #
loop $-1 $-1 $287 $279 #
plane-surface $-1 -41.229285561693167 0 0 1 0 0 0 0 -1 forward_v I I I I #
coedge $-1 $413 $282 $284 $417 reversed $174 $-1 #
coedge $-1 $282 $412 $528 $529 reversed $174 $-1 #
coedge $-1 $290 $285 $282 $415 forward $280 $-1 #
edge $-1 $418 -14.680278339708231 $530 -12.312529061668862 $414 $531 forward 7 unknown #
coedge $-1 $284 $283 $421 $532 reversed $110 $-1 #
edge $-1 $533 -1.2078792010054373e-014 $418 3.9343473158508928 $412 $534 forward 7 unknown #
vertex $-1 $286 $535 #
straight-curve $-1 -38.861536283653798 -2.5538572793518828 8.4019747532316309 0 1 0 I I #
coedge $-1 $528 $287 $290 $425 reversed $410 $-1 #
coedge $-1 $287 $528 $416 $532 forward $410 $-1 #
vertex $-1 $288 $536 #
straight-curve $-1 -41.229285561693167 -8.1289062957684077 27.442335617684499 0 0 1 I I #
straight-curve $-1 -41.22928556169316 -8.1289062957684077 5.2598652455780197 -0.60181501223851219 0 -0.79863551827123203 I I #
edge $-1 $530 2.0865228216391238 $291 8.1289062957684077 $420 $537 forward 7 unknown #
point $-1 -41.229285561693167 -8.1289062957684077 8.4019747532316291 #
point $-1 -38.861536283653798 -8.1289062957684077 8.4019747532316291 #
edge $-1 $538 1 $538 0 $294 $-1 forward 7 unknown #
vertex $-1 $295 $539 #
ellipse-curve $-1 -38.614230823331845 -5.1077145587037656 5.7524484697823617 -0.79863551827123203 0 0.60181501223851219 0.3009075061192561 0 0.39931775913561601 1 I I #
point $-1 -39.744503416554231 -5.1077145587037656 7.2302377585404445 #
loop $-1 $-1 $306 $298 #
plane-surface $-1 -41.229285561693167 0 0 1 0 0 0 0 -1 forward_v I I I I #
coedge $-1 $435 $301 $303 $439 reversed $189 $-1 #
coedge $-1 $301 $434 $540 $541 reversed $189 $-1 #
coedge $-1 $309 $304 $301 $437 forward $299 $-1 #
edge $-1 $440 -14.680278339708231 $542 -12.312529061668862 $436 $543 forward 7 unknown #
coedge $-1 $303 $302 $443 $544 reversed $119 $-1 #
edge $-1 $545 -1.2078792010054373e-014 $440 3.9343473158508928 $434 $546 forward 7 unknown #
vertex $-1 $305 $547 #
straight-curve $-1 -38.861536283653798 2.5538572793518846 8.4019747532316309 0 1 0 I I #
coedge $-1 $540 $306 $309 $447 reversed $432 $-1 #
coedge $-1 $306 $540 $438 $544 forward $432 $-1 #
vertex $-1 $307 $548 #
straight-curve $-1 -41.229285561693167 2.0865228216391274 27.442335617684499 0 0 1 I I #
straight-curve $-1 -41.22928556169316 2.0865228216391274 5.2598652455780197 -0.60181501223851219 0 -0.79863551827123203 I I #
edge $-1 $542 -8.1289062957684113 $310 -2.0865228216391274 $442 $549 forward 7 unknown #
point $-1 -41.229285561693167 2.0865228216391274 8.4019747532316291 #
point $-1 -38.861536283653798 2.0865228216391274 8.4019747532316291 #
edge $-1 $550 1 $550 0 $313 $-1 forward 7 unknown #
vertex $-1 $314 $551 #
ellipse-curve $-1 -38.614230823331845 5.1077145587037691 5.7524484697823617 -0.79863551827123203 0 0.60181501223851219 0.3009075061192561 0 0.39931775913561601 1 I I #
point $-1 -39.744503416554231 5.1077145587037691 7.2302377585404445 #
loop $-1 $-1 $325 $317 #
plane-surface $-1 -41.229285561693167 0 0 1 0 0 0 0 -1 forward_v I I I I #
coedge $-1 $457 $320 $322 $461 reversed $204 $-1 #
coedge $-1 $320 $456 $552 $553 reversed $204 $-1 #
coedge $-1 $328 $323 $320 $459 forward $318 $-1 #
edge $-1 $462 -14.680278339708231 $554 -12.312529061668862 $458 $555 forward 7 unknown #
coedge $-1 $322 $321 $465 $556 reversed $128 $-1 #
edge $-1 $557 -1.2078792010054373e-014 $462 3.9343473158508928 $456 $558 forward 7 unknown #
vertex $-1 $324 $559 #
straight-curve $-1 -38.861536283653798 7.6615718380556537 8.4019747532316309 0 1 0 I I #
coedge $-1 $552 $325 $328 $469 reversed $454 $-1 #
coedge $-1 $325 $552 $460 $556 forward $454 $-1 #
vertex $-1 $326 $560 #
straight-curve $-1 -41.229285561693167 12.301951939046665 27.442335617684499 0 0 1 I I #
straight-curve $-1 -41.22928556169316 12.301951939046665 5.2598652455780197 -0.60181501223851219 0 -0.79863551827123203 I I #
edge $-1 $554 -18.344335413175948 $329 -12.301951939046665 $464 $561 forward 7 unknown #
point $-1 -41.229285561693167 12.301951939046665 8.4019747532316291 #
point $-1 -38.861536283653798 12.301951939046665 8.4019747532316291 #
edge $-1 $562 1 $562 0 $332 $-1 forward 7 unknown #
vertex $-1 $333 $563 #
ellipse-curve $-1 -38.614230823331845 15.323143676111307 5.7524484697823617 -0.79863551827123203 0 0.60181501223851219 0.3009075061192561 0 0.39931775913561601 1 I I #
point $-1 -39.744503416554231 15.323143676111307 7.2302377585404445 #
plane-surface $-1 41.229285561693167 0 0 -1 0 0 0 0 1 forward_v I I I I #
coedge $-1 $564 $339 $344 $483 forward $219 $-1 #
coedge $-1 $339 $564 $480 $565 forward $219 $-1 #
edge $-1 $481 -11.493415309399975 $488 -8.6557276998985522 $339 $566 forward 7 unknown #
coedge $-1 $348 $342 $478 $565 reversed $349 $-1 #
vertex $-1 $479 $567 #
straight-curve $-1 41.229285561693167 -9.7519047568612294 59.837274932676252 0 0 1 I I #
edge $-1 $488 2.1886100965401489 $486 12.937979224102012 $477 $568 forward 7 unknown #
coedge $-1 $485 $345 $348 $490 reversed $337 $-1 #
coedge $-1 $345 $484 $564 $569 reversed $337 $-1 #
vertex $-1 $569 $570 #
straight-curve $-1 10.942179215503055 -20.501273884423092 46.182859536044703 0.5877852410284794 0 -0.80901700255871778 I I #
vertex $-1 $483 $571 #
straight-curve $-1 -7.2386455409304702 -9.7519047568612294 71.206618762728851 0.5877852410284794 0 -0.80901700255871778 I I #
edge $-1 $572 -8.4019747532316291 $350 -4.4962327172120133 $348 $573 forward 7 unknown #
point $-1 41.229285561693167 -20.501273884423092 4.4962327172120133 #
point $-1 41.229285561693167 -9.7519047568612294 4.4962327172120098 #
edge $-1 $574 1 $574 0 $353 $-1 forward 7 unknown #
vertex $-1 $354 $575 #
ellipse-curve $-1 38.481873230446766 -17.430025562262561 5.4838422276153098 0.80901700255871778 0 0.5877852410284794 0.2938926205142397 0 -0.40450850127935889 1 I I #
point $-1 40.104334377456709 -17.430025562262561 6.0445952339424593 #
edge $-1 $576 1 $576 0 $357 $-1 forward 7 unknown #
vertex $-1 $358 $577 #
ellipse-curve $-1 38.481873230446766 -12.823153079021761 5.4838422276153098 0.80901700255871778 0 0.5877852410284794 0.2938926205142397 0 -0.40450850127935889 1 I I #
point $-1 40.104334377456709 -12.823153079021761 6.0445952339424593 #
plane-surface $-1 41.229285561693167 0 0 -1 0 0 0 0 1 forward_v I I I I #
coedge $-1 $366 $364 $368 $506 reversed $241 $-1 #
edge $-1 $379 -8.4019747532316291 $508 8.4019747532316291 $378 $578 forward 7 unknown #
vertex $-1 $506 $579 #
straight-curve $-1 -41.229285561693167 -20.501273884423092 0 0 0 -1 I I #
edge $-1 $504 -20.501273884423092 $508 20.501273884423092 $502 $580 forward 7 unknown #
straight-curve $-1 0 -20.501273884423092 -8.4019747532316291 -1 0 0 I I #
vertex $-1 $371 $581 #
straight-curve $-1 0 20.501273884423092 -8.4019747532316291 1 0 0 I I #
point $-1 41.229285561693167 20.501273884423092 -8.4019747532316291 #
point $-1 41.229285561693167 -20.501273884423092 -8.4019747532316291 #
straight-curve $-1 -41.229285561693167 0 8.4019747532316291 0 -1 0 I I #
point $-1 -41.229285561693167 20.501273884423092 8.4019747532316291 #
point $-1 -41.229285561693167 -20.501273884423092 8.4019747532316291 #
straight-curve $-1 41.229285561693167 -20.501273884423092 0 0 0 -1 I I #
straight-curve $-1 41.229285561693167 20.501273884423092 0 0 0 -1 I I #
edge $-1 $518 19.040360864452872 $521 22.18247037210649 $389 $582 forward 7 unknown #
vertex $-1 $403 $583 #
straight-curve $-1 -53.541814623362029 -12.30195193904666 8.4019747532316273 -1 0 0 I I #
edge $-1 $521 4.6403801009910088 $400 10.682763575120294 $399 $584 forward 7 unknown #
vertex $-1 $520 $585 #
straight-curve $-1 -41.22928556169316 -12.30195193904666 5.2598652455780197 0.60181501223851219 0 0.79863551827123203 I I #
point $-1 -38.861536283653798 -12.30195193904666 8.4019747532316291 #
point $-1 -41.229285561693167 -18.344335413175944 5.2598652455780099 #
straight-curve $-1 -41.229285561693167 0 8.4019747532316291 0 -1 0 I I #
vertex $-1 $406 $586 #
point $-1 -38.313323317212593 -15.323143676111302 6.1517662289179782 #
coedge $-1 $421 $420 $413 $529 forward $410 $-1 #
edge $-1 $530 19.040360864452872 $533 22.18247037210649 $528 $587 forward 7 unknown #
vertex $-1 $425 $588 #
straight-curve $-1 -53.541814623362029 -2.0865228216391238 8.4019747532316273 -1 0 0 I I #
edge $-1 $533 -0.46733445771275894 $422 5.5750490164165249 $421 $589 forward 7 unknown #
vertex $-1 $532 $590 #
straight-curve $-1 -41.22928556169316 -2.0865228216391238 5.2598652455780197 0.60181501223851219 0 0.79863551827123203 I I #
point $-1 -38.861536283653798 -2.0865228216391238 8.4019747532316291 #
point $-1 -41.229285561693167 -8.1289062957684077 5.2598652455780099 #
straight-curve $-1 -41.229285561693167 0 8.4019747532316291 0 -1 0 I I #
vertex $-1 $428 $591 #
point $-1 -38.313323317212593 -5.1077145587037656 6.1517662289179782 #
coedge $-1 $443 $442 $435 $541 forward $432 $-1 #
edge $-1 $542 19.040360864452872 $545 22.18247037210649 $540 $592 forward 7 unknown #
vertex $-1 $447 $593 #
straight-curve $-1 -53.541814623362029 8.1289062957684113 8.4019747532316273 -1 0 0 I I #
edge $-1 $545 -5.5750490164165267 $444 0.46733445771275717 $443 $594 forward 7 unknown #
vertex $-1 $544 $595 #
straight-curve $-1 -41.22928556169316 8.1289062957684113 5.2598652455780197 0.60181501223851219 0 0.79863551827123203 I I #
point $-1 -38.861536283653798 8.1289062957684113 8.4019747532316291 #
point $-1 -41.229285561693167 2.0865228216391274 5.2598652455780099 #
straight-curve $-1 -41.229285561693167 0 8.4019747532316291 0 -1 0 I I #
vertex $-1 $450 $596 #
point $-1 -38.313323317212593 5.1077145587037691 6.1517662289179782 #
coedge $-1 $465 $464 $457 $553 forward $454 $-1 #
edge $-1 $554 19.040360864452872 $557 22.18247037210649 $552 $597 forward 7 unknown #
vertex $-1 $469 $598 #
straight-curve $-1 -53.541814623362029 18.344335413175948 8.4019747532316273 -1 0 0 I I #
edge $-1 $557 -10.682763575120294 $466 -4.6403801009910115 $465 $599 forward 7 unknown #
vertex $-1 $556 $600 #
straight-curve $-1 -41.22928556169316 18.344335413175948 5.2598652455780197 0.60181501223851219 0 0.79863551827123203 I I #
point $-1 -38.861536283653798 18.344335413175948 8.4019747532316291 #
point $-1 -41.229285561693167 12.301951939046665 5.2598652455780099 #
straight-curve $-1 -41.229285561693167 0 8.4019747532316291 0 -1 0 I I #
vertex $-1 $472 $601 #
point $-1 -38.313323317212593 15.323143676111307 6.1517662289179782 #
coedge $-1 $478 $477 $485 $569 forward $219 $-1 #
edge $-1 $572 -20.501273884423092 $481 -9.7519047568612294 $480 $602 forward 7 unknown #
straight-curve $-1 29.735870252293193 -9.7519047568612294 8.4019747532316273 -1 0 0 I I #
point $-1 41.229285561693167 -9.7519047568612294 8.4019747532316291 #
straight-curve $-1 38.391597952191745 -7.5632946603210804 8.4019747532316345 0 -1 0 I I #
edge $-1 $486 38.391597952191745 $572 41.229285561693167 $485 $603 forward 7 unknown #
point $-1 38.391597952191745 -20.501273884423092 8.4019747532316273 #
point $-1 38.391597952191745 -9.7519047568612294 8.4019747532316273 #
vertex $-1 $565 $604 #
straight-curve $-1 41.229285561693167 -20.501273884423092 0 0 0 -1 I I #
vertex $-1 $493 $605 #
point $-1 38.775765850961008 -17.430025562262561 5.0793337263359506 #
vertex $-1 $497 $606 #
point $-1 38.775765850961008 -12.823153079021761 5.0793337263359506 #
straight-curve $-1 -41.229285561693167 20.501273884423092 0 0 0 -1 I I #
point $-1 -41.229285561693167 -20.501273884423092 -8.4019747532316291 #
straight-curve $-1 -41.229285561693167 0 -8.4019747532316291 0 1 0 I I #
point $-1 -41.229285561693167 20.501273884423092 -8.4019747532316291 #
straight-curve $-1 -41.229285561693167 -12.30195193904666 27.442335617684499 0 0 -1 I I #
point $-1 -41.229285561693167 -12.30195193904666 8.4019747532316291 #
straight-curve $-1 -41.229285561693167 -7.661571838055651 5.2598652455780091 0 -1 0 I I #
point $-1 -41.229285561693167 -12.30195193904666 5.2598652455780099 #
point $-1 -38.214913064196232 -15.323143676111302 5.4515409636631063 #
straight-curve $-1 -41.229285561693167 -2.0865228216391238 27.442335617684499 0 0 -1 I I #
point $-1 -41.229285561693167 -2.0865228216391238 8.4019747532316291 #
straight-curve $-1 -41.229285561693167 -2.5538572793518828 5.2598652455780091 0 -1 0 I I #
point $-1 -41.229285561693167 -2.0865228216391238 5.2598652455780099 #
point $-1 -38.214913064196232 -5.1077145587037656 5.4515409636631063 #
straight-curve $-1 -41.229285561693167 8.1289062957684113 27.442335617684499 0 0 -1 I I #
point $-1 -41.229285561693167 8.1289062957684113 8.4019747532316291 #
straight-curve $-1 -41.229285561693167 2.5538572793518846 5.2598652455780091 0 -1 0 I I #
point $-1 -41.229285561693167 8.1289062957684113 5.2598652455780099 #
point $-1 -38.214913064196232 5.1077145587037691 5.4515409636631063 #
straight-curve $-1 -41.229285561693167 18.344335413175948 27.442335617684499 0 0 -1 I I #
point $-1 -41.229285561693167 18.344335413175948 8.4019747532316291 #
straight-curve $-1 -41.229285561693167 7.6615718380556537 5.2598652455780091 0 -1 0 I I #
point $-1 -41.229285561693167 18.344335413175948 5.2598652455780099 #
point $-1 -38.214913064196232 15.323143676111307 5.4515409636631063 #
straight-curve $-1 41.229285561693167 0 8.4019747532316291 0 1 0 I I #
straight-curve $-1 0 -20.501273884423092 8.4019747532316291 1 0 0 I I #
point $-1 41.229285561693167 -20.501273884423092 8.4019747532316291 #
point $-1 38.077364729167414 -17.430025562262561 5.1899496071010693 #
point $-1 38.077364729167414 -12.823153079021761 5.1899496071010693 #
End-of-ACIS-data 