500 0 5 0           
7 Unknown 11 ACIS 5.0 NT 24 Fri Mar 26 02:47:12 1999 
-1 9.9999999999999995e-007 1e-010 
body $-1 $5 $-1 $6 #
body $-1 $7 $-1 $8 #
body $-1 $9 $-1 $10 #
body $-1 $11 $-1 $12 #
body $-1 $13 $-1 $14 #
lump $-1 $-1 $15 $0 #
transform $-1 1 0 0 0 1 0 0 0 1 63.11227759636219 26.197749068481105 12.562559031596518 1 rotate no_reflect no_shear #
lump $-1 $-1 $16 $1 #
transform $-1 1 0 0 0 1 0 0 0 1 63.11227759636219 26.197749068481105 12.562559031596518 1 rotate no_reflect no_shear #
lump $-1 $-1 $17 $2 #
transform $-1 1 0 0 0 1 0 0 0 1 63.11227759636219 26.197749068481105 12.562559031596518 1 rotate no_reflect no_shear #
lump $-1 $-1 $18 $3 #
transform $-1 1 0 0 0 1 0 0 0 1 63.11227759636219 26.197749068481105 12.562559031596518 1 rotate no_reflect no_shear #
lump $-1 $-1 $19 $4 #
transform $-1 1 0 0 0 1 0 0 0 1 63.11227759636219 26.197749068481105 12.562559031596518 1 rotate no_reflect no_shear #
shell $-1 $-1 $-1 $20 $-1 $5 #
shell $-1 $-1 $-1 $21 $-1 $7 #
shell $-1 $-1 $-1 $22 $-1 $9 #
shell $-1 $-1 $-1 $23 $-1 $11 #
shell $-1 $-1 $-1 $24 $-1 $13 #
face $-1 $25 $26 $15 $-1 $27 forward single #
face $-1 $28 $29 $16 $-1 $30 forward single #
face $-1 $31 $32 $17 $-1 $33 forward single #
face $-1 $34 $35 $18 $-1 $36 reversed single #
face $-1 $37 $38 $19 $-1 $39 forward single #
face $-1 $40 $41 $15 $-1 $42 reversed single #
loop $-1 $-1 $43 $20 #
plane-surface $-1 0 0 12.562559031596518 0 0 1 1 0 0 forward_v I I I I #
face $-1 $44 $45 $16 $-1 $46 reversed single #
loop $-1 $-1 $47 $21 #
plane-surface $-1 -63.11227759636219 0 0 1 0 0 0 0 -1 forward_v I I I I #
face $-1 $48 $49 $17 $-1 $50 reversed single #
loop $-1 $-1 $51 $22 #
plane-surface $-1 63.11227759636219 0 0 -1 0 0 0 0 1 forward_v I I I I #
face $-1 $52 $53 $18 $-1 $54 reversed single #
loop $-1 $-1 $55 $23 #
plane-surface $-1 6.7753753669433223 48.652671154431147 136.06155787865981 1 0 0 0 -0.52991927123019833 -0.84804809178421925 forward_v I I I I #
face $-1 $56 $57 $19 $-1 $58 forward single #
loop $-1 $59 $60 $24 #
cone-surface $-1 21.235404101204168 12.217904228161526 -0.98132952049168232 0 -0.52991927123019833 -0.84804809178421925 5 0 0 1 I I 0 1 5 forward I I I I #
face $-1 $61 $62 $15 $-1 $63 reversed single #
loop $-1 $-1 $64 $25 #
plane-surface $-1 0 0 -12.562559031596518 0 0 1 1 0 0 forward_v I I I I #
coedge $-1 $65 $66 $67 $68 forward $26 $-1 #
face $-1 $69 $70 $16 $-1 $71 forward single #
loop $-1 $-1 $72 $28 #
plane-surface $-1 0 26.197749068481105 0 0 -1 0 0 0 -1 forward_v I I I I #
coedge $-1 $73 $74 $75 $76 forward $29 $-1 #
face $-1 $77 $78 $17 $-1 $79 forward single #
loop $-1 $-1 $80 $31 #
plane-surface $-1 0 -26.197749068481105 0 0 1 0 0 0 1 forward_v I I I I #
coedge $-1 $81 $82 $83 $84 forward $32 $-1 #
face $-1 $85 $86 $18 $-1 $87 reversed single #
loop $-1 $-1 $88 $34 #
plane-surface $-1 21.235404101204168 -18.236153144653315 29.017064711158028 0 0.52991927123019833 0.84804809178421925 1 0 0 forward_v I I I I #
coedge $-1 $89 $90 $91 $92 reversed $35 $-1 #
face $-1 $93 $94 $19 $-1 $95 forward single #
loop $-1 $96 $97 $37 #
cone-surface $-1 21.235404101204168 5.9638557594091814 -10.98989904758006 0 -0.52991927123019833 -0.84804809178421925 2.5 0 0 1 I I -0.70710678118654746 0.70710678118654746 2.5 forward I I I I #
loop $-1 $-1 $98 $24 #
coedge $-1 $60 $60 $99 $100 reversed $38 $-1 #
face $-1 $101 $102 $15 $-1 $103 reversed single #
loop $-1 $-1 $104 $40 #
plane-surface $-1 0 -26.197749068481105 0 0 1 0 0 0 1 forward_v I I I I #
coedge $-1 $105 $106 $107 $108 forward $41 $-1 #
coedge $-1 $109 $43 $110 $111 forward $26 $-1 #
coedge $-1 $43 $109 $112 $113 forward $26 $-1 #
coedge $-1 $114 $115 $43 $68 reversed $116 $-1 #
edge $-1 $117 -26.197749068481105 $118 26.197749068481105 $67 $119 forward 7 unknown #
face $-1 $120 $121 $16 $-1 $122 reversed single #
loop $-1 $-1 $75 $44 #
plane-surface $-1 -68.986170119106944 0 5.3060315840351429 0 0 1 1 0 0 forward_v I I I I #
coedge $-1 $123 $124 $74 $125 forward $45 $-1 #
coedge $-1 $126 $47 $127 $128 reversed $29 $-1 #
coedge $-1 $47 $126 $72 $125 reversed $29 $-1 #
coedge $-1 $129 $130 $47 $76 reversed $70 $-1 #
edge $-1 $131 -26.197749068481105 $132 26.197749068481105 $75 $133 forward 7 unknown #
face $-1 $134 $135 $17 $-1 $136 reversed single #
loop $-1 $-1 $137 $48 #
plane-surface $-1 68.986170119106959 0 5.3060315840351429 0 0 1 1 0 0 forward_v I I I I #
coedge $-1 $138 $139 $82 $140 forward $49 $-1 #
coedge $-1 $141 $51 $142 $143 reversed $32 $-1 #
coedge $-1 $51 $141 $80 $140 reversed $32 $-1 #
coedge $-1 $144 $145 $51 $84 reversed $78 $-1 #
edge $-1 $146 -26.197749068481105 $147 26.197749068481105 $83 $148 forward 7 unknown #
face $-1 $149 $150 $18 $-1 $151 reversed single #
loop $-1 $-1 $152 $52 #
plane-surface $-1 35.695432835465013 48.652671154431147 136.06155787865981 -1 0 0 0 0.52991927123019833 0.84804809178421925 forward_v I I I I #
coedge $-1 $153 $154 $155 $156 reversed $53 $-1 #
coedge $-1 $90 $55 $157 $158 reversed $35 $-1 #
coedge $-1 $55 $89 $153 $159 reversed $35 $-1 #
coedge $-1 $155 $160 $55 $92 forward $161 $-1 #
edge $-1 $162 -1.8714134912655318 $163 16.22977560801991 $91 $164 forward 7 unknown #
face $-1 $-1 $165 $19 $-1 $166 reversed single #
loop $-1 $-1 $99 $56 #
plane-surface $-1 21.235404101204168 -18.236153144653315 29.017064711158028 0 0.52991927123019833 0.84804809178421925 1 0 0 forward_v I I I I #
loop $-1 $-1 $167 $37 #
coedge $-1 $97 $97 $168 $169 reversed $57 $-1 #
coedge $-1 $98 $98 $167 $170 forward $59 $-1 #
coedge $-1 $99 $99 $60 $100 forward $94 $-1 #
edge $-1 $171 1.1270718810667952e-016 $171 6.2831853071796004 $99 $172 forward 7 unknown #
face $-1 $173 $174 $15 $-1 $175 reversed single #
loop $-1 $-1 $176 $61 #
plane-surface $-1 -63.11227759636219 0 0 1 0 0 0 0 -1 forward_v I I I I #
coedge $-1 $177 $112 $178 $179 forward $62 $-1 #
coedge $-1 $180 $64 $177 $181 forward $41 $-1 #
coedge $-1 $64 $180 $182 $183 forward $41 $-1 #
coedge $-1 $115 $114 $64 $108 reversed $116 $-1 #
edge $-1 $184 -26.197749068481105 $185 26.197749068481105 $107 $186 forward 7 unknown #
coedge $-1 $66 $65 $187 $188 forward $26 $-1 #
coedge $-1 $189 $190 $65 $111 reversed $174 $-1 #
edge $-1 $118 -63.11227759636219 $191 63.11227759636219 $110 $192 forward 7 unknown #
coedge $-1 $104 $193 $66 $113 reversed $62 $-1 #
edge $-1 $194 -63.11227759636219 $117 63.11227759636219 $112 $195 forward 7 unknown #
coedge $-1 $107 $67 $193 $196 forward $116 $-1 #
coedge $-1 $67 $107 $189 $197 reversed $116 $-1 #
loop $-1 $-1 $114 $173 #
vertex $-1 $68 $198 #
vertex $-1 $68 $199 #
straight-curve $-1 63.11227759636219 0 12.562559031596518 0 1 0 I I #
face $-1 $200 $201 $16 $-1 $202 reversed single #
loop $-1 $-1 $203 $69 #
plane-surface $-1 -68.986170119106944 0 -0.76357799428502915 0 0 1 1 0 0 forward_v I I I I #
coedge $-1 $204 $72 $205 $206 reversed $45 $-1 #
coedge $-1 $72 $204 $129 $207 reversed $45 $-1 #
edge $-1 $131 -5.3060315840351429 $208 0.76357799428502915 $72 $209 forward 7 unknown #
coedge $-1 $74 $73 $203 $210 forward $29 $-1 #
coedge $-1 $211 $212 $73 $128 forward $213 $-1 #
edge $-1 $214 -0.76357799428502915 $132 5.3060315840351429 $127 $215 forward 7 unknown #
coedge $-1 $216 $75 $124 $207 forward $70 $-1 #
coedge $-1 $75 $216 $211 $217 forward $70 $-1 #
vertex $-1 $125 $218 #
vertex $-1 $217 $219 #
straight-curve $-1 -63.11227759636219 0 5.3060315840351429 0 -1 0 I I #
face $-1 $220 $221 $17 $-1 $222 reversed single #
loop $-1 $-1 $223 $77 #
plane-surface $-1 68.986170119106959 0 -0.76357799428502915 0 0 1 1 0 0 forward_v I I I I #
coedge $-1 $145 $144 $224 $225 forward $78 $-1 #
coedge $-1 $226 $80 $227 $228 reversed $49 $-1 #
coedge $-1 $80 $226 $144 $229 reversed $49 $-1 #
edge $-1 $146 -5.3060315840351429 $230 0.76357799428502915 $80 $231 forward 7 unknown #
coedge $-1 $82 $81 $232 $233 forward $32 $-1 #
coedge $-1 $234 $235 $81 $143 forward $236 $-1 #
edge $-1 $237 -0.76357799428502915 $147 5.3060315840351429 $142 $238 forward 7 unknown #
coedge $-1 $137 $83 $139 $229 forward $78 $-1 #
coedge $-1 $83 $137 $234 $239 forward $78 $-1 #
vertex $-1 $140 $240 #
vertex $-1 $239 $241 #
straight-curve $-1 63.11227759636219 0 5.3060315840351429 0 1 0 I I #
face $-1 $-1 $161 $18 $-1 $242 forward single #
loop $-1 $-1 $243 $85 #
plane-surface $-1 0 26.197749068481105 0 0 -1 0 0 0 -1 forward_v I I I I #
coedge $-1 $244 $245 $246 $247 reversed $86 $-1 #
coedge $-1 $248 $88 $90 $159 forward $53 $-1 #
coedge $-1 $88 $248 $244 $249 forward $53 $-1 #
coedge $-1 $246 $91 $88 $156 forward $161 $-1 #
edge $-1 $163 -3.8423266836587615 $250 25.077730784862929 $155 $251 forward 7 unknown #
coedge $-1 $252 $253 $89 $158 forward $150 $-1 #
edge $-1 $254 -66.779098416654108 $162 -55.468219907733385 $157 $255 forward 7 unknown #
edge $-1 $163 31.050966765867308 $254 52.395498136962217 $90 $256 forward 7 unknown #
coedge $-1 $91 $246 $252 $257 forward $161 $-1 #
loop $-1 $-1 $246 $149 #
vertex $-1 $158 $258 #
vertex $-1 $92 $259 #
straight-curve $-1 6.7753753669433223 24.326335577215573 12.562559031596521 0 -1 0 I I #
loop $-1 $-1 $168 $93 #
plane-surface $-1 0 0 -12.562559031596518 0 0 1 1 0 0 forward_v I I I I #
coedge $-1 $167 $167 $98 $170 reversed $96 $-1 #
coedge $-1 $168 $168 $97 $169 forward $165 $-1 #
edge $-1 $260 -3.1415926535897838 $260 3.1415926535898167 $168 $261 forward 7 unknown #
edge $-1 $262 0 $262 6.2831853071796004 $167 $263 forward 7 unknown #
vertex $-1 $100 $264 #
ellipse-curve $-1 21.235404101204168 17.147154518838384 6.9071197771361614 0 0.52991927123019833 0.84804809178421925 5 0 0 1 I I #
face $-1 $-1 $116 $15 $-1 $265 reversed single #
loop $-1 $-1 $189 $101 #
plane-surface $-1 0 26.197749068481105 0 0 -1 0 0 0 -1 forward_v I I I I #
coedge $-1 $266 $187 $190 $267 forward $102 $-1 #
coedge $-1 $193 $104 $105 $181 reversed $62 $-1 #
coedge $-1 $187 $266 $104 $179 reversed $102 $-1 #
edge $-1 $194 -12.562559031596518 $268 12.562559031596518 $178 $269 forward 7 unknown #
coedge $-1 $106 $105 $266 $270 forward $41 $-1 #
edge $-1 $185 -63.11227759636219 $268 63.11227759636219 $177 $271 forward 7 unknown #
coedge $-1 $190 $189 $106 $183 reversed $174 $-1 #
edge $-1 $272 -63.11227759636219 $184 63.11227759636219 $182 $273 forward 7 unknown #
vertex $-1 $108 $274 #
vertex $-1 $196 $275 #
straight-curve $-1 63.11227759636219 0 -12.562559031596518 0 -1 0 I I #
coedge $-1 $176 $178 $109 $188 reversed $102 $-1 #
edge $-1 $191 -26.197749068481105 $194 26.197749068481105 $187 $276 forward 7 unknown #
coedge $-1 $182 $110 $115 $197 forward $174 $-1 #
coedge $-1 $110 $182 $176 $267 reversed $174 $-1 #
vertex $-1 $111 $277 #
straight-curve $-1 0 26.197749068481105 12.562559031596518 -1 0 0 I I #
coedge $-1 $112 $177 $114 $196 reversed $62 $-1 #
vertex $-1 $188 $278 #
straight-curve $-1 0 -26.197749068481105 12.562559031596518 1 0 0 I I #
edge $-1 $117 -12.562559031596518 $185 12.562559031596518 $114 $279 forward 7 unknown #
edge $-1 $118 -12.562559031596518 $184 12.562559031596518 $115 $280 forward 7 unknown #
point $-1 63.11227759636219 -26.197749068481105 12.562559031596518 #
point $-1 63.11227759636219 26.197749068481105 12.562559031596518 #
face $-1 $-1 $213 $16 $-1 $281 reversed single #
loop $-1 $-1 $282 $120 #
plane-surface $-1 -74.860062641851698 0 2.2712267948750569 1 0 0 0 0 -1 forward_v I I I I #
coedge $-1 $283 $205 $126 $210 reversed $121 $-1 #
coedge $-1 $124 $123 $282 $284 reversed $45 $-1 #
coedge $-1 $203 $285 $123 $206 forward $121 $-1 #
edge $-1 $286 -5.8738925227447538 $208 5.8738925227447538 $123 $287 forward 7 unknown #
edge $-1 $131 -5.8738925227447538 $288 5.8738925227447538 $124 $289 forward 7 unknown #
vertex $-1 $125 $290 #
straight-curve $-1 -63.11227759636219 26.197749068481105 0 0 0 -1 I I #
edge $-1 $214 -26.197749068481105 $208 26.197749068481105 $203 $291 forward 7 unknown #
coedge $-1 $292 $127 $130 $217 reversed $213 $-1 #
coedge $-1 $127 $292 $283 $293 reversed $213 $-1 #
loop $-1 $-1 $127 $200 #
vertex $-1 $128 $294 #
straight-curve $-1 -63.11227759636219 -26.197749068481105 0 0 0 1 I I #
coedge $-1 $130 $129 $295 $296 forward $70 $-1 #
edge $-1 $297 -5.8738925227447538 $132 5.8738925227447538 $211 $298 forward 7 unknown #
point $-1 -63.11227759636219 26.197749068481105 5.3060315840351429 #
point $-1 -63.11227759636219 -26.197749068481105 5.3060315840351429 #
face $-1 $-1 $236 $17 $-1 $299 reversed single #
loop $-1 $-1 $300 $134 #
plane-surface $-1 74.860062641851712 0 2.2712267948750569 -1 0 0 0 0 1 forward_v I I I I #
coedge $-1 $227 $301 $302 $303 forward $135 $-1 #
coedge $-1 $300 $304 $137 $225 reversed $221 $-1 #
edge $-1 $305 -26.197749068481105 $306 26.197749068481105 $224 $307 forward 7 unknown #
coedge $-1 $139 $138 $300 $308 reversed $49 $-1 #
coedge $-1 $232 $223 $138 $228 forward $135 $-1 #
edge $-1 $309 -5.8738925227447538 $230 5.8738925227447538 $138 $310 forward 7 unknown #
edge $-1 $146 -5.8738925227447538 $305 5.8738925227447538 $139 $311 forward 7 unknown #
vertex $-1 $140 $312 #
straight-curve $-1 63.11227759636219 -26.197749068481105 0 0 0 -1 I I #
coedge $-1 $301 $227 $141 $233 reversed $135 $-1 #
edge $-1 $237 -26.197749068481105 $230 26.197749068481105 $232 $313 forward 7 unknown #
coedge $-1 $314 $142 $145 $239 reversed $236 $-1 #
coedge $-1 $142 $314 $301 $315 reversed $236 $-1 #
loop $-1 $-1 $142 $220 #
vertex $-1 $143 $316 #
straight-curve $-1 63.11227759636219 26.197749068481105 0 0 0 1 I I #
edge $-1 $306 -5.8738925227447538 $147 5.8738925227447538 $234 $317 forward 7 unknown #
point $-1 63.112277596362205 -26.197749068481105 5.3060315840351429 #
point $-1 63.112277596362205 26.197749068481105 5.3060315840351429 #
plane-surface $-1 0 0 12.562559031596518 0 0 1 1 0 0 forward_v I I I I #
coedge $-1 $253 $252 $245 $318 forward $150 $-1 #
coedge $-1 $245 $152 $154 $249 reversed $86 $-1 #
coedge $-1 $152 $244 $243 $318 reversed $86 $-1 #
coedge $-1 $160 $155 $152 $247 forward $161 $-1 #
edge $-1 $250 -16.22977560801991 $319 1.8714134912655318 $246 $320 forward 7 unknown #
coedge $-1 $154 $153 $253 $321 reversed $53 $-1 #
edge $-1 $322 -52.395498136962217 $250 -31.050966765867308 $244 $323 forward 7 unknown #
vertex $-1 $156 $324 #
straight-curve $-1 10.617702050602084 8.0965599691956669 12.562559031596516 1 0 0 I I #
coedge $-1 $243 $157 $160 $257 reversed $150 $-1 #
coedge $-1 $157 $243 $248 $321 forward $150 $-1 #
vertex $-1 $158 $325 #
straight-curve $-1 6.7753753669433223 26.197749068481105 68.030778939329906 0 0 1 I I #
straight-curve $-1 6.7753753669433223 -18.236153144653315 29.017064711158028 0 0.84804809178421925 -0.52991927123019833 I I #
edge $-1 $319 -35.695432835465013 $162 -6.7753753669433223 $252 $326 forward 7 unknown #
point $-1 6.7753753669433223 26.197749068481105 12.562559031596518 #
point $-1 6.7753753669433223 8.0965599691956633 12.562559031596518 #
vertex $-1 $169 $327 #
ellipse-curve $-1 21.235404101204161 5.761517472689583 -12.562559031596518 0 0 -1 -1.4984241777023444e-014 1.2488510431770463 0 0.66209601415332087 I I #
vertex $-1 $170 $328 #
ellipse-curve $-1 21.235404101204168 7.2886539374846775 -8.8697788181195119 0 0.52991927123019833 0.84804809178421925 5 0 0 1 I I #
point $-1 26.235404101204168 17.147154518838377 6.907119777136149 #
plane-surface $-1 63.11227759636219 0 0 -1 0 0 0 0 1 forward_v I I I I #
coedge $-1 $178 $176 $180 $270 reversed $102 $-1 #
edge $-1 $191 -12.562559031596518 $272 12.562559031596518 $190 $329 forward 7 unknown #
vertex $-1 $270 $330 #
straight-curve $-1 -63.11227759636219 -26.197749068481105 0 0 0 -1 I I #
edge $-1 $268 -26.197749068481105 $272 26.197749068481105 $266 $331 forward 7 unknown #
straight-curve $-1 0 -26.197749068481105 -12.562559031596518 -1 0 0 I I #
vertex $-1 $183 $332 #
straight-curve $-1 0 26.197749068481105 -12.562559031596518 1 0 0 I I #
point $-1 63.11227759636219 26.197749068481105 -12.562559031596518 #
point $-1 63.11227759636219 -26.197749068481105 -12.562559031596518 #
straight-curve $-1 -63.11227759636219 0 12.562559031596518 0 -1 0 I I #
point $-1 -63.11227759636219 26.197749068481105 12.562559031596518 #
point $-1 -63.11227759636219 -26.197749068481105 12.562559031596518 #
straight-curve $-1 63.11227759636219 -26.197749068481105 0 0 0 -1 I I #
straight-curve $-1 63.11227759636219 26.197749068481105 0 0 0 -1 I I #
plane-surface $-1 0 -26.197749068481105 0 0 1 0 0 0 1 forward_v I I I I #
coedge $-1 $333 $295 $204 $284 forward $201 $-1 #
coedge $-1 $285 $203 $212 $293 forward $121 $-1 #
edge $-1 $288 -3.034804789160086 $286 3.034804789160086 $204 $334 forward 7 unknown #
coedge $-1 $205 $283 $333 $335 forward $121 $-1 #
vertex $-1 $206 $336 #
straight-curve $-1 -68.986170119106944 26.197749068481105 -0.76357799428502915 1 0 0 I I #
vertex $-1 $207 $337 #
straight-curve $-1 -68.986170119106944 26.197749068481105 5.3060315840351429 -1 0 0 I I #
point $-1 -63.11227759636219 26.197749068481105 -0.76357799428502915 #
straight-curve $-1 -63.11227759636219 0 -0.76357799428502915 0 1 0 I I #
coedge $-1 $212 $211 $338 $339 forward $213 $-1 #
edge $-1 $214 -5.8738925227447538 $340 5.8738925227447538 $212 $341 forward 7 unknown #
point $-1 -63.11227759636219 -26.197749068481105 -0.76357799428502915 #
coedge $-1 $282 $338 $216 $296 reversed $201 $-1 #
edge $-1 $288 -26.197749068481105 $297 26.197749068481105 $295 $342 forward 7 unknown #
vertex $-1 $296 $343 #
straight-curve $-1 -68.986170119106944 -26.197749068481105 5.3060315840351429 1 0 0 I I #
plane-surface $-1 0 26.197749068481105 0 0 -1 0 0 0 -1 forward_v I I I I #
coedge $-1 $302 $224 $226 $308 forward $221 $-1 #
coedge $-1 $223 $232 $235 $315 forward $135 $-1 #
coedge $-1 $304 $300 $223 $303 reversed $221 $-1 #
edge $-1 $344 -26.197749068481105 $309 26.197749068481105 $302 $345 forward 7 unknown #
coedge $-1 $224 $302 $314 $346 reversed $221 $-1 #
vertex $-1 $225 $347 #
vertex $-1 $225 $348 #
straight-curve $-1 74.860062641851712 0 5.3060315840351429 0 1 0 I I #
edge $-1 $305 -3.034804789160086 $309 3.034804789160086 $300 $349 forward 7 unknown #
vertex $-1 $308 $350 #
straight-curve $-1 68.986170119106959 -26.197749068481105 -0.76357799428502915 -1 0 0 I I #
straight-curve $-1 68.986170119106959 -26.197749068481105 5.3060315840351429 1 0 0 I I #
point $-1 63.112277596362205 -26.197749068481105 -0.76357799428502915 #
straight-curve $-1 63.11227759636219 0 -0.76357799428502915 0 -1 0 I I #
coedge $-1 $235 $234 $304 $346 forward $236 $-1 #
edge $-1 $237 -5.8738925227447538 $344 5.8738925227447538 $235 $351 forward 7 unknown #
point $-1 63.112277596362205 26.197749068481105 -0.76357799428502915 #
straight-curve $-1 68.986170119106959 26.197749068481105 5.3060315840351429 -1 0 0 I I #
edge $-1 $319 55.468219907733385 $322 66.779098416654108 $243 $352 forward 7 unknown #
vertex $-1 $257 $353 #
straight-curve $-1 35.695432835465013 24.326335577215573 12.562559031596521 0 1 0 I I #
edge $-1 $322 -25.077730784862929 $254 3.8423266836587615 $253 $354 forward 7 unknown #
vertex $-1 $321 $355 #
straight-curve $-1 35.695432835465013 -18.236153144653315 29.017064711158028 0 -0.84804809178421925 0.52991927123019833 I I #
point $-1 35.695432835465013 8.0965599691956633 12.562559031596518 #
point $-1 6.7753753669433223 26.197749068481102 1.2516805226757981 #
straight-curve $-1 0 26.197749068481105 12.562559031596518 -1 0 0 I I #
point $-1 21.235404101204168 4.5126664295125369 -12.562559031596518 #
point $-1 26.235404101204168 7.2886539374846775 -8.8697788181195119 #
straight-curve $-1 -63.11227759636219 26.197749068481105 0 0 0 -1 I I #
point $-1 -63.11227759636219 -26.197749068481105 -12.562559031596518 #
straight-curve $-1 -63.11227759636219 0 -12.562559031596518 0 1 0 I I #
point $-1 -63.11227759636219 26.197749068481105 -12.562559031596518 #
coedge $-1 $338 $282 $285 $335 reversed $201 $-1 #
straight-curve $-1 -74.860062641851698 26.197749068481105 2.2712267948750569 0 0 -1 I I #
edge $-1 $340 -26.197749068481105 $286 26.197749068481105 $333 $356 forward 7 unknown #
point $-1 -74.860062641851698 26.197749068481105 -0.76357799428502915 #
point $-1 -74.860062641851698 26.197749068481105 5.3060315840351429 #
coedge $-1 $295 $333 $292 $339 reversed $201 $-1 #
edge $-1 $297 -3.034804789160086 $340 3.034804789160086 $338 $357 forward 7 unknown #
vertex $-1 $335 $358 #
straight-curve $-1 -68.986170119106944 -26.197749068481105 -0.76357799428502915 -1 0 0 I I #
straight-curve $-1 -74.860062641851698 0 5.3060315840351429 0 -1 0 I I #
point $-1 -74.860062641851698 -26.197749068481105 5.3060315840351429 #
vertex $-1 $303 $359 #
straight-curve $-1 74.860062641851712 0 -0.76357799428502915 0 -1 0 I I #
edge $-1 $306 -3.034804789160086 $344 3.034804789160086 $304 $360 forward 7 unknown #
point $-1 74.860062641851712 -26.197749068481105 5.3060315840351429 #
point $-1 74.860062641851712 26.197749068481105 5.3060315840351429 #
straight-curve $-1 74.860062641851712 -26.197749068481105 2.2712267948750569 0 0 -1 I I #
point $-1 74.860062641851712 -26.197749068481105 -0.76357799428502915 #
straight-curve $-1 68.986170119106959 26.197749068481105 -0.76357799428502915 1 0 0 I I #
straight-curve $-1 35.695432835465013 26.197749068481105 68.030778939329906 0 0 -1 I I #
point $-1 35.695432835465013 26.197749068481105 12.562559031596518 #
straight-curve $-1 10.617702050602084 26.197749068481109 1.2516805226757963 -1 0 0 I I #
point $-1 35.695432835465013 26.197749068481102 1.2516805226757981 #
straight-curve $-1 -74.860062641851698 0 -0.76357799428502915 0 1 0 I I #
straight-curve $-1 -74.860062641851698 -26.197749068481105 2.2712267948750569 0 0 -1 I I #
point $-1 -74.860062641851698 -26.197749068481105 -0.76357799428502915 #
point $-1 74.860062641851712 26.197749068481105 -0.76357799428502915 #
straight-curve $-1 74.860062641851712 26.197749068481105 2.2712267948750569 0 0 -1 I I #
End-of-ACIS-data 