500 0 11 0           
7 Unknown 11 ACIS 5.0 NT 24 Thu Mar 25 23:36:45 1999 
-1 9.9999999999999995e-007 1e-010 
body $-1 $11 $-1 $12 #
body $-1 $13 $-1 $14 #
body $-1 $15 $-1 $16 #
body $-1 $17 $-1 $18 #
body $-1 $19 $-1 $20 #
body $-1 $21 $-1 $22 #
body $-1 $23 $-1 $24 #
body $-1 $25 $-1 $26 #
body $-1 $27 $-1 $28 #
body $-1 $29 $-1 $30 #
body $-1 $31 $-1 $32 #
lump $-1 $-1 $33 $0 #
transform $-1 1 0 0 0 1 0 0 0 1 54.7758415478988 36.020628172780668 13.019290921924293 1 rotate no_reflect no_shear #
lump $-1 $-1 $34 $1 #
transform $-1 1 0 0 0 1 0 0 0 1 54.7758415478988 36.020628172780668 13.019290921924293 1 rotate no_reflect no_shear #
lump $-1 $-1 $35 $2 #
transform $-1 1 0 0 0 1 0 0 0 1 54.7758415478988 36.020628172780668 13.019290921924293 1 rotate no_reflect no_shear #
lump $-1 $-1 $36 $3 #
transform $-1 1 0 0 0 1 0 0 0 1 54.7758415478988 36.020628172780668 13.019290921924293 1 rotate no_reflect no_shear #
lump $-1 $-1 $37 $4 #
transform $-1 1 0 0 0 1 0 0 0 1 54.7758415478988 36.020628172780668 13.019290921924293 1 rotate no_reflect no_shear #
lump $-1 $-1 $38 $5 #
transform $-1 1 0 0 0 1 0 0 0 1 54.7758415478988 36.020628172780668 13.019290921924293 1 rotate no_reflect no_shear #
lump $-1 $-1 $39 $6 #
transform $-1 1 0 0 0 1 0 0 0 1 54.7758415478988 36.020628172780668 13.019290921924293 1 rotate no_reflect no_shear #
lump $-1 $-1 $40 $7 #
transform $-1 1 0 0 0 1 0 0 0 1 54.7758415478988 36.020628172780668 13.019290921924293 1 rotate no_reflect no_shear #
lump $-1 $-1 $41 $8 #
transform $-1 1 0 0 0 1 0 0 0 1 54.7758415478988 36.020628172780668 13.019290921924293 1 rotate no_reflect no_shear #
lump $-1 $-1 $42 $9 #
transform $-1 1 0 0 0 1 0 0 0 1 54.7758415478988 36.020628172780668 13.019290921924293 1 rotate no_reflect no_shear #
lump $-1 $-1 $43 $10 #
transform $-1 1 0 0 0 1 0 0 0 1 54.7758415478988 36.020628172780668 13.019290921924293 1 rotate no_reflect no_shear #
shell $-1 $-1 $-1 $44 $-1 $11 #
shell $-1 $-1 $-1 $45 $-1 $13 #
shell $-1 $-1 $-1 $46 $-1 $15 #
shell $-1 $-1 $-1 $47 $-1 $17 #
shell $-1 $-1 $-1 $48 $-1 $19 #
shell $-1 $-1 $-1 $49 $-1 $21 #
shell $-1 $-1 $-1 $50 $-1 $23 #
shell $-1 $-1 $-1 $51 $-1 $25 #
shell $-1 $-1 $-1 $52 $-1 $27 #
shell $-1 $-1 $-1 $53 $-1 $29 #
shell $-1 $-1 $-1 $54 $-1 $31 #
face $-1 $55 $56 $33 $-1 $57 forward single #
face $-1 $58 $59 $34 $-1 $60 forward single #
face $-1 $61 $62 $35 $-1 $63 reversed single #
face $-1 $64 $65 $36 $-1 $66 forward single #
face $-1 $67 $68 $37 $-1 $69 forward single #
face $-1 $70 $71 $38 $-1 $72 reversed single #
face $-1 $73 $74 $39 $-1 $75 forward single #
face $-1 $76 $77 $40 $-1 $78 forward single #
face $-1 $79 $80 $41 $-1 $81 reversed single #
face $-1 $82 $83 $42 $-1 $84 forward single #
face $-1 $85 $86 $43 $-1 $87 forward single #
face $-1 $88 $89 $33 $-1 $90 reversed single #
loop $-1 $-1 $91 $44 #
plane-surface $-1 0 0 13.019290921924293 0 0 1 1 0 0 forward_v I I I I #
face $-1 $92 $93 $34 $-1 $94 forward single #
loop $-1 $-1 $95 $45 #
plane-surface $-1 0 -36.020628172780668 0 0 1 0 0 0 1 forward_v I I I I #
face $-1 $96 $97 $35 $-1 $98 reversed single #
loop $-1 $-1 $99 $46 #
plane-surface $-1 -130.87683610228518 -7.7453586633355975 88.149027297998984 0 1 0 -0.69465837861970381 0 0.71933979245794832 forward_v I I I I #
face $-1 $100 $101 $36 $-1 $102 forward single #
loop $-1 $103 $104 $47 #
cone-surface $-1 -52.196519465192466 -4.005016196130498 10.481223630275718 0.69465837861970381 0 -0.71933979245794832 0.71933979245794832 0 0.69465837861970381 1 I I 0 1 1 forward I I I I #
face $-1 $105 $106 $37 $-1 $107 forward single #
loop $-1 $108 $109 $48 #
cone-surface $-1 -52.196519465192466 1.6054975046771531 10.481223630275718 0.69465837861970381 0 -0.71933979245794832 0.71933979245794832 0 0.69465837861970381 1 I I 0 1 1 forward I I I I #
face $-1 $110 $111 $38 $-1 $112 reversed single #
loop $-1 $-1 $113 $49 #
plane-surface $-1 -130.87683610228518 22.929429537562822 88.149027297998984 0 1 0 -0.69465837861970381 0 0.71933979245794832 forward_v I I I I #
face $-1 $114 $115 $39 $-1 $116 forward single #
loop $-1 $117 $118 $50 #
cone-surface $-1 -52.196519465192466 26.669772004767914 10.481223630275718 0.69465837861970381 0 -0.71933979245794832 0.71933979245794832 0 0.69465837861970381 1 I I 0 1 1 forward I I I I #
face $-1 $119 $120 $40 $-1 $121 forward single #
loop $-1 $122 $123 $51 #
cone-surface $-1 -52.196519465192466 32.280285705575572 10.481223630275718 0.69465837861970381 0 -0.71933979245794832 0.71933979245794832 0 0.69465837861970381 1 I I 0 1 1 forward I I I I #
face $-1 $124 $125 $41 $-1 $126 reversed single #
loop $-1 $-1 $127 $52 #
plane-surface $-1 60.182804161526043 19.336022313552423 156.66331879795692 0 1 0 0.73135370988377701 0 0.68199835119979291 forward_v I I I I #
face $-1 $128 $129 $42 $-1 $130 forward single #
loop $-1 $131 $132 $53 #
cone-surface $-1 47.527754580879247 24.103052559046205 5.5305953246256578 -0.73135370988377701 0 -0.68199835119979291 1.3639967023995858 0 -1.462707419767554 1 I I 0 1 2 forward I I I I #
face $-1 $133 $134 $43 $-1 $135 forward single #
loop $-1 $136 $137 $54 #
cone-surface $-1 47.527754580879247 31.253597927286883 5.5305953246256578 -0.73135370988377701 0 -0.68199835119979291 1.3639967023995858 0 -1.462707419767554 1 I I 0 1 2 forward I I I I #
face $-1 $138 $139 $33 $-1 $140 reversed single #
loop $-1 $-1 $141 $55 #
plane-surface $-1 0 0 -13.019290921924293 0 0 1 1 0 0 forward_v I I I I #
coedge $-1 $142 $143 $144 $145 forward $56 $-1 #
face $-1 $146 $147 $34 $-1 $148 reversed single #
loop $-1 $-1 $149 $58 #
plane-surface $-1 0 0 13.019290921924293 0 0 1 1 0 0 forward_v I I I I #
coedge $-1 $150 $151 $152 $153 forward $59 $-1 #
face $-1 $154 $155 $35 $-1 $156 reversed single #
loop $-1 $-1 $157 $61 #
plane-surface $-1 -54.775841547898807 -1.1997593457266689 9.3441423164490089 -0.69465837861970381 0 0.71933979245794832 0.71933979245794832 0 0.69465837861970381 forward_v I I I I #
coedge $-1 $158 $159 $160 $161 reversed $62 $-1 #
face $-1 $-1 $162 $36 $-1 $163 forward single #
loop $-1 $164 $165 $64 #
cone-surface $-1 -51.172732044302464 -4.005016196130498 9.4210607451358133 0.69465837861970381 0 -0.71933979245794832 0.35966989622897416 0 0.3473291893098519 1 I I -0.70710678118654746 0.70710678118654746 0.5 forward I I I I #
loop $-1 $-1 $166 $47 #
coedge $-1 $104 $104 $167 $168 reversed $65 $-1 #
face $-1 $-1 $169 $37 $-1 $170 forward single #
loop $-1 $171 $172 $67 #
cone-surface $-1 -51.172732044302464 1.6054975046771531 9.4210607451358133 0.69465837861970381 0 -0.71933979245794832 0.35966989622897416 0 0.3473291893098519 1 I I -0.70710678118654746 0.70710678118654746 0.5 forward I I I I #
loop $-1 $-1 $173 $48 #
coedge $-1 $109 $109 $174 $175 reversed $68 $-1 #
face $-1 $176 $177 $38 $-1 $178 forward single #
loop $-1 $-1 $179 $70 #
plane-surface $-1 -54.775841547898807 29.47502885517175 9.3441423164490089 -0.69465837861970381 0 0.71933979245794832 0.71933979245794832 0 0.69465837861970381 forward_v I I I I #
coedge $-1 $180 $181 $182 $183 reversed $71 $-1 #
face $-1 $-1 $184 $39 $-1 $185 forward single #
loop $-1 $186 $187 $73 #
cone-surface $-1 -51.172732044302464 26.669772004767914 9.4210607451358133 0.69465837861970381 0 -0.71933979245794832 0.35966989622897416 0 0.3473291893098519 1 I I -0.70710678118654746 0.70710678118654746 0.5 forward I I I I #
loop $-1 $-1 $188 $50 #
coedge $-1 $118 $118 $189 $190 reversed $74 $-1 #
face $-1 $-1 $191 $40 $-1 $192 forward single #
loop $-1 $193 $194 $76 #
cone-surface $-1 -51.172732044302464 32.280285705575572 9.4210607451358133 0.69465837861970381 0 -0.71933979245794832 0.35966989622897416 0 0.3473291893098519 1 I I -0.70710678118654746 0.70710678118654746 0.5 forward I I I I #
loop $-1 $-1 $195 $51 #
coedge $-1 $123 $123 $196 $197 reversed $77 $-1 #
face $-1 $198 $199 $41 $-1 $200 reversed single #
loop $-1 $-1 $201 $79 #
plane-surface $-1 -19.938225694597399 27.678325243166547 81.949251555460734 0.73135370988377701 0 0.68199835119979291 0.68199835119979291 0 -0.73135370988377701 forward_v I I I I #
coedge $-1 $202 $203 $204 $205 reversed $80 $-1 #
face $-1 $-1 $206 $42 $-1 $207 forward single #
loop $-1 $208 $209 $82 #
cone-surface $-1 44.766234217239905 24.103052559046205 2.9554359874207154 -0.73135370988377701 0 -0.68199835119979291 0.68199835119979291 0 -0.73135370988377701 1 I I -0.70710678118654746 0.70710678118654746 1 forward I I I I #
loop $-1 $-1 $210 $53 #
coedge $-1 $132 $132 $211 $212 reversed $83 $-1 #
face $-1 $-1 $213 $43 $-1 $214 forward single #
loop $-1 $215 $216 $85 #
cone-surface $-1 44.766234217239905 31.253597927286883 2.9554359874207154 -0.73135370988377701 0 -0.68199835119979291 0.68199835119979291 0 -0.73135370988377701 1 I I -0.70710678118654746 0.70710678118654746 1 forward I I I I #
loop $-1 $-1 $217 $54 #
coedge $-1 $137 $137 $218 $219 reversed $86 $-1 #
face $-1 $220 $221 $33 $-1 $222 reversed single #
loop $-1 $-1 $223 $88 #
plane-surface $-1 0 -36.020628172780668 0 0 1 0 0 0 1 forward_v I I I I #
coedge $-1 $224 $225 $226 $227 forward $89 $-1 #
coedge $-1 $228 $91 $229 $230 forward $56 $-1 #
coedge $-1 $91 $228 $231 $232 forward $56 $-1 #
coedge $-1 $233 $234 $91 $145 reversed $235 $-1 #
edge $-1 $236 -36.020628172780668 $237 36.020628172780668 $144 $238 forward 7 unknown #
face $-1 $239 $240 $34 $-1 $241 reversed single #
loop $-1 $-1 $242 $92 #
plane-surface $-1 -54.7758415478988 0 0 1 0 0 0 0 -1 forward_v I I I I #
coedge $-1 $243 $244 $245 $246 forward $93 $-1 #
coedge $-1 $245 $95 $242 $247 reversed $59 $-1 #
coedge $-1 $95 $245 $248 $249 reversed $59 $-1 #
coedge $-1 $250 $251 $95 $153 reversed $240 $-1 #
edge $-1 $252 -54.7758415478988 $253 54.7758415478988 $152 $254 forward 7 unknown #
face $-1 $255 $256 $35 $-1 $257 forward single #
loop $-1 $-1 $258 $96 #
plane-surface $-1 -130.87683610228518 5.3458399718822598 88.149027297998984 0 -1 0 0.69465837861970381 0 -0.71933979245794832 forward_v I I I I #
coedge $-1 $259 $260 $261 $262 reversed $97 $-1 #
coedge $-1 $159 $99 $263 $264 reversed $62 $-1 #
coedge $-1 $99 $158 $259 $265 reversed $62 $-1 #
coedge $-1 $261 $266 $99 $161 forward $256 $-1 #
edge $-1 $267 10.662576503243791 $268 14.468304205496139 $160 $269 forward 7 unknown #
loop $-1 $-1 $167 $100 #
plane-surface $-1 -54.775841547898807 -1.1997593457266689 9.3441423164490089 -0.69465837861970381 0 0.71933979245794832 0.71933979245794832 0 0.69465837861970381 forward_v I I I I #
loop $-1 $-1 $270 $64 #
coedge $-1 $165 $165 $166 $271 reversed $101 $-1 #
coedge $-1 $166 $166 $165 $271 forward $103 $-1 #
coedge $-1 $167 $167 $104 $168 forward $162 $-1 #
edge $-1 $272 0 $272 6.2831853071796004 $167 $273 forward 7 unknown #
loop $-1 $-1 $174 $105 #
plane-surface $-1 -54.775841547898807 -1.1997593457266689 9.3441423164490089 -0.69465837861970381 0 0.71933979245794832 0.71933979245794832 0 0.69465837861970381 forward_v I I I I #
loop $-1 $-1 $274 $67 #
coedge $-1 $172 $172 $173 $275 reversed $106 $-1 #
coedge $-1 $173 $173 $172 $275 forward $108 $-1 #
coedge $-1 $174 $174 $109 $175 forward $169 $-1 #
edge $-1 $276 0 $276 6.2831853071796004 $174 $277 forward 7 unknown #
face $-1 $278 $279 $38 $-1 $280 reversed single #
loop $-1 $-1 $182 $110 #
plane-surface $-1 0 0 13.019290921924293 0 0 1 1 0 0 forward_v I I I I #
coedge $-1 $281 $282 $283 $284 reversed $111 $-1 #
coedge $-1 $181 $113 $285 $286 reversed $71 $-1 #
coedge $-1 $113 $180 $281 $287 reversed $71 $-1 #
coedge $-1 $283 $288 $113 $183 forward $177 $-1 #
edge $-1 $289 10.662576503243791 $290 14.468304205496139 $182 $291 forward 7 unknown #
loop $-1 $-1 $189 $114 #
plane-surface $-1 -54.775841547898807 29.47502885517175 9.3441423164490089 -0.69465837861970381 0 0.71933979245794832 0.71933979245794832 0 0.69465837861970381 forward_v I I I I #
loop $-1 $-1 $292 $73 #
coedge $-1 $187 $187 $188 $293 reversed $115 $-1 #
coedge $-1 $188 $188 $187 $293 forward $117 $-1 #
coedge $-1 $189 $189 $118 $190 forward $184 $-1 #
edge $-1 $294 0 $294 6.2831853071796004 $189 $295 forward 7 unknown #
loop $-1 $-1 $196 $119 #
plane-surface $-1 -54.775841547898807 29.47502885517175 9.3441423164490089 -0.69465837861970381 0 0.71933979245794832 0.71933979245794832 0 0.69465837861970381 forward_v I I I I #
loop $-1 $-1 $296 $76 #
coedge $-1 $194 $194 $195 $297 reversed $120 $-1 #
coedge $-1 $195 $195 $194 $297 forward $122 $-1 #
coedge $-1 $196 $196 $123 $197 forward $191 $-1 #
edge $-1 $298 0 $298 6.2831853071796004 $196 $299 forward 7 unknown #
face $-1 $300 $301 $41 $-1 $302 forward single #
loop $-1 $-1 $204 $124 #
plane-surface $-1 54.7758415478988 0 0 -1 0 0 0 0 1 forward_v I I I I #
coedge $-1 $303 $304 $305 $306 reversed $125 $-1 #
coedge $-1 $203 $127 $307 $308 reversed $80 $-1 #
coedge $-1 $127 $202 $303 $309 reversed $80 $-1 #
coedge $-1 $305 $310 $127 $205 forward $199 $-1 #
edge $-1 $311 65.312368477054164 $312 76.503437699641168 $204 $313 forward 7 unknown #
loop $-1 $-1 $211 $128 #
plane-surface $-1 -19.938225694597399 27.678325243166547 81.949251555460734 0.73135370988377701 0 0.68199835119979291 0.68199835119979291 0 -0.73135370988377701 forward_v I I I I #
loop $-1 $-1 $314 $82 #
coedge $-1 $209 $209 $210 $315 reversed $129 $-1 #
coedge $-1 $210 $210 $209 $315 forward $131 $-1 #
coedge $-1 $211 $211 $132 $212 forward $206 $-1 #
edge $-1 $316 0 $316 6.2831853071796004 $211 $317 forward 7 unknown #
loop $-1 $-1 $218 $133 #
plane-surface $-1 -19.938225694597399 27.678325243166547 81.949251555460734 0.73135370988377701 0 0.68199835119979291 0.68199835119979291 0 -0.73135370988377701 forward_v I I I I #
loop $-1 $-1 $318 $85 #
coedge $-1 $216 $216 $217 $319 reversed $134 $-1 #
coedge $-1 $217 $217 $216 $319 forward $136 $-1 #
coedge $-1 $218 $218 $137 $219 forward $213 $-1 #
edge $-1 $320 0 $320 6.2831853071796004 $218 $321 forward 7 unknown #
face $-1 $322 $323 $33 $-1 $324 reversed single #
loop $-1 $-1 $325 $138 #
plane-surface $-1 -54.7758415478988 0 0 1 0 0 0 0 -1 forward_v I I I I #
coedge $-1 $326 $231 $327 $328 forward $139 $-1 #
coedge $-1 $329 $141 $326 $330 forward $89 $-1 #
coedge $-1 $141 $329 $331 $332 forward $89 $-1 #
coedge $-1 $234 $233 $141 $227 reversed $235 $-1 #
edge $-1 $333 -36.020628172780668 $334 36.020628172780668 $226 $335 forward 7 unknown #
coedge $-1 $143 $142 $336 $337 forward $56 $-1 #
coedge $-1 $338 $339 $142 $230 reversed $323 $-1 #
edge $-1 $237 -54.7758415478988 $340 54.7758415478988 $229 $341 forward 7 unknown #
coedge $-1 $223 $342 $143 $232 reversed $139 $-1 #
edge $-1 $343 -54.7758415478988 $236 54.7758415478988 $231 $344 forward 7 unknown #
coedge $-1 $226 $144 $342 $345 forward $235 $-1 #
coedge $-1 $144 $226 $338 $346 reversed $235 $-1 #
loop $-1 $-1 $233 $322 #
vertex $-1 $145 $347 #
vertex $-1 $145 $348 #
straight-curve $-1 54.7758415478988 0 13.019290921924293 0 1 0 I I #
face $-1 $349 $350 $34 $-1 $351 reversed single #
loop $-1 $-1 $250 $146 #
plane-surface $-1 0 -41.366468144662925 10.019290921924293 0 0 1 1 0 0 forward_v I I I I #
coedge $-1 $352 $353 $150 $247 forward $147 $-1 #
coedge $-1 $354 $149 $353 $355 forward $93 $-1 #
coedge $-1 $149 $354 $356 $357 forward $93 $-1 #
coedge $-1 $151 $150 $149 $246 reversed $59 $-1 #
edge $-1 $358 -54.7758415478988 $359 54.7758415478988 $149 $360 forward 7 unknown #
edge $-1 $359 -13.019290921924293 $253 -10.019290921924293 $242 $361 forward 7 unknown #
coedge $-1 $356 $362 $151 $249 forward $363 $-1 #
edge $-1 $252 10.019290921924293 $358 13.019290921924293 $248 $364 forward 7 unknown #
coedge $-1 $365 $152 $362 $366 forward $240 $-1 #
coedge $-1 $152 $365 $352 $367 forward $240 $-1 #
vertex $-1 $249 $368 #
vertex $-1 $247 $369 #
straight-curve $-1 0 -36.020628172780668 10.019290921924293 -1 0 0 I I #
face $-1 $-1 $370 $35 $-1 $371 reversed single #
loop $-1 $-1 $160 $154 #
plane-surface $-1 0 0 13.019290921924293 0 0 1 1 0 0 forward_v I I I I #
coedge $-1 $372 $373 $374 $375 reversed $155 $-1 #
coedge $-1 $376 $157 $159 $265 forward $97 $-1 #
coedge $-1 $157 $376 $372 $377 forward $97 $-1 #
coedge $-1 $374 $160 $157 $262 forward $256 $-1 #
edge $-1 $268 -7.1454789904722631 $378 5.9457196447455942 $261 $379 forward 7 unknown #
coedge $-1 $380 $381 $158 $264 forward $370 $-1 #
edge $-1 $382 -34.730371332550476 $267 -31.055222727075197 $263 $383 forward 7 unknown #
edge $-1 $268 -5.2905841469556005 $382 -1.0047061288372931e-014 $159 $384 forward 7 unknown #
coedge $-1 $160 $374 $380 $385 forward $256 $-1 #
vertex $-1 $264 $386 #
vertex $-1 $161 $387 #
straight-curve $-1 -65.438418051142591 -7.7453586633355975 13.019290921924295 1 0 0 I I #
coedge $-1 $270 $270 $-1 $388 reversed $164 $-1 #
edge $-1 $389 0 $389 6.2831853071796004 $165 $390 forward 7 unknown #
vertex $-1 $168 $391 #
ellipse-curve $-1 -52.872977696772622 -4.005016196130498 11.181716619186655 -0.69465837861970381 0 0.71933979245794832 0.71933979245794832 0 0.69465837861970381 1 I I #
coedge $-1 $274 $274 $-1 $392 reversed $171 $-1 #
edge $-1 $393 0 $393 6.2831853071796004 $172 $394 forward 7 unknown #
vertex $-1 $175 $395 #
ellipse-curve $-1 -52.872977696772622 1.6054975046771531 11.181716619186655 -0.69465837861970381 0 0.71933979245794832 0.71933979245794832 0 0.69465837861970381 1 I I #
face $-1 $-1 $396 $38 $-1 $397 reversed single #
loop $-1 $-1 $398 $176 #
plane-surface $-1 0 36.020628172780668 0 0 -1 0 0 0 -1 forward_v I I I I #
coedge $-1 $399 $179 $181 $287 forward $111 $-1 #
coedge $-1 $179 $399 $398 $400 reversed $111 $-1 #
coedge $-1 $401 $182 $179 $284 forward $177 $-1 #
edge $-1 $290 8.1919151099769465 $402 21.2831137451948 $283 $403 forward 7 unknown #
coedge $-1 $404 $405 $180 $286 forward $396 $-1 #
edge $-1 $406 -34.730371332550476 $289 -31.055222727075197 $285 $407 forward 7 unknown #
edge $-1 $290 -5.2905841469556005 $406 -1.0047061288372931e-014 $181 $408 forward 7 unknown #
coedge $-1 $182 $401 $404 $409 forward $177 $-1 #
vertex $-1 $286 $410 #
vertex $-1 $183 $411 #
straight-curve $-1 -65.438418051142591 22.929429537562822 13.019290921924295 1 0 0 I I #
coedge $-1 $292 $292 $-1 $412 reversed $186 $-1 #
edge $-1 $413 0 $413 6.2831853071796004 $187 $414 forward 7 unknown #
vertex $-1 $190 $415 #
ellipse-curve $-1 -52.872977696772622 26.669772004767914 11.181716619186655 -0.69465837861970381 0 0.71933979245794832 0.71933979245794832 0 0.69465837861970381 1 I I #
coedge $-1 $296 $296 $-1 $416 reversed $193 $-1 #
edge $-1 $417 0 $417 6.2831853071796004 $194 $418 forward 7 unknown #
vertex $-1 $197 $419 #
ellipse-curve $-1 -52.872977696772622 32.280285705575572 11.181716619186655 -0.69465837861970381 0 0.71933979245794832 0.71933979245794832 0 0.69465837861970381 1 I I #
face $-1 $-1 $420 $41 $-1 $421 reversed single #
loop $-1 $-1 $307 $198 #
plane-surface $-1 0 0 13.019290921924293 0 0 1 1 0 0 forward_v I I I I #
coedge $-1 $422 $201 $203 $309 forward $125 $-1 #
coedge $-1 $201 $422 $423 $424 reversed $125 $-1 #
coedge $-1 $425 $204 $201 $306 forward $199 $-1 #
edge $-1 $312 5.4968596919691493 $426 22.181465551197395 $305 $427 forward 7 unknown #
coedge $-1 $428 $429 $202 $308 forward $301 $-1 #
edge $-1 $430 14.248598840607773 $311 24.684439467135778 $307 $431 forward 7 unknown #
edge $-1 $312 -109.55168309579761 $430 -94.249827001616524 $203 $432 forward 7 unknown #
coedge $-1 $204 $425 $428 $433 reversed $199 $-1 #
vertex $-1 $433 $434 #
vertex $-1 $205 $435 #
straight-curve $-1 54.7758415478988 19.336022313552423 78.331659398978459 0 0 -1 I I #
coedge $-1 $314 $314 $-1 $436 reversed $208 $-1 #
edge $-1 $437 0 $437 6.2831853071796004 $209 $438 forward 7 unknown #
vertex $-1 $212 $439 #
ellipse-curve $-1 49.55792123463479 24.103052559046205 7.4237563106307887 0.73135370988377701 0 0.68199835119979291 1.3639967023995858 0 -1.462707419767554 1 I I #
coedge $-1 $318 $318 $-1 $440 reversed $215 $-1 #
edge $-1 $441 0 $441 6.2831853071796004 $216 $442 forward 7 unknown #
vertex $-1 $219 $443 #
ellipse-curve $-1 49.55792123463479 31.253597927286883 7.4237563106307887 0.73135370988377701 0 0.68199835119979291 1.3639967023995858 0 -1.462707419767554 1 I I #
face $-1 $-1 $235 $33 $-1 $444 reversed single #
loop $-1 $-1 $338 $220 #
plane-surface $-1 0 36.020628172780668 0 0 -1 0 0 0 -1 forward_v I I I I #
coedge $-1 $445 $336 $339 $446 forward $221 $-1 #
coedge $-1 $342 $223 $224 $330 reversed $139 $-1 #
coedge $-1 $336 $445 $223 $328 reversed $221 $-1 #
edge $-1 $343 -13.019290921924293 $447 13.019290921924293 $327 $448 forward 7 unknown #
coedge $-1 $225 $224 $445 $449 forward $89 $-1 #
edge $-1 $334 -54.7758415478988 $447 54.7758415478988 $326 $450 forward 7 unknown #
coedge $-1 $339 $338 $225 $332 reversed $323 $-1 #
edge $-1 $451 -54.7758415478988 $333 54.7758415478988 $331 $452 forward 7 unknown #
vertex $-1 $227 $453 #
vertex $-1 $345 $454 #
straight-curve $-1 54.7758415478988 0 -13.019290921924293 0 -1 0 I I #
coedge $-1 $325 $327 $228 $337 reversed $221 $-1 #
edge $-1 $340 -36.020628172780668 $343 36.020628172780668 $336 $455 forward 7 unknown #
coedge $-1 $331 $229 $234 $346 forward $323 $-1 #
coedge $-1 $229 $331 $325 $446 reversed $323 $-1 #
vertex $-1 $230 $456 #
straight-curve $-1 0 36.020628172780668 13.019290921924293 -1 0 0 I I #
coedge $-1 $231 $326 $233 $345 reversed $139 $-1 #
vertex $-1 $337 $457 #
straight-curve $-1 0 -36.020628172780668 13.019290921924293 1 0 0 I I #
edge $-1 $236 -13.019290921924293 $334 13.019290921924293 $233 $458 forward 7 unknown #
edge $-1 $237 -13.019290921924293 $333 13.019290921924293 $234 $459 forward 7 unknown #
point $-1 54.7758415478988 -36.020628172780668 13.019290921924293 #
point $-1 54.7758415478988 36.020628172780668 13.019290921924293 #
face $-1 $-1 $363 $34 $-1 $460 reversed single #
loop $-1 $-1 $461 $239 #
plane-surface $-1 0 -46.712308116545181 11.519290921924293 0 1 0 0 0 1 forward_v I I I I #
coedge $-1 $462 $242 $251 $367 reversed $147 $-1 #
coedge $-1 $242 $462 $243 $355 reversed $147 $-1 #
coedge $-1 $244 $243 $463 $464 forward $93 $-1 #
edge $-1 $359 36.020628172780668 $465 46.712308116545181 $353 $466 forward 7 unknown #
coedge $-1 $467 $248 $244 $357 reversed $363 $-1 #
edge $-1 $468 -46.712308116545181 $358 -36.020628172780668 $356 $469 forward 7 unknown #
vertex $-1 $249 $470 #
vertex $-1 $355 $471 #
straight-curve $-1 0 -36.020628172780668 13.019290921924293 -1 0 0 I I #
straight-curve $-1 -54.7758415478988 -36.020628172780668 0 0 0 -1 I I #
coedge $-1 $248 $467 $250 $366 reversed $363 $-1 #
loop $-1 $-1 $248 $349 #
straight-curve $-1 54.7758415478988 -36.020628172780668 0 0 0 1 I I #
coedge $-1 $251 $250 $472 $473 forward $240 $-1 #
edge $-1 $252 -5.3458399718822562 $474 5.3458399718822562 $362 $475 forward 7 unknown #
edge $-1 $476 -5.3458399718822562 $253 5.3458399718822562 $352 $477 forward 7 unknown #
point $-1 54.7758415478988 -36.020628172780668 10.019290921924293 #
point $-1 -54.7758415478988 -36.020628172780668 10.019290921924293 #
loop $-1 $-1 $263 $255 #
plane-surface $-1 -54.7758415478988 0 0 1 0 0 0 0 -1 forward_v I I I I #
coedge $-1 $373 $258 $260 $377 reversed $155 $-1 #
coedge $-1 $258 $372 $478 $479 reversed $155 $-1 #
coedge $-1 $266 $261 $258 $375 forward $256 $-1 #
edge $-1 $378 -14.468304205496139 $480 -10.662576503243791 $374 $481 forward 7 unknown #
coedge $-1 $260 $259 $381 $482 reversed $97 $-1 #
edge $-1 $483 1.0047061288372931e-014 $378 5.2905841469556005 $372 $484 forward 7 unknown #
vertex $-1 $262 $485 #
straight-curve $-1 -50.970113845646452 -0.59987967286333443 13.019290921924293 0 1 0 I I #
coedge $-1 $478 $263 $266 $385 reversed $370 $-1 #
coedge $-1 $263 $478 $376 $482 forward $370 $-1 #
vertex $-1 $264 $486 #
straight-curve $-1 -54.7758415478988 -7.7453586633355975 44.074513648999492 0 0 1 I I #
straight-curve $-1 -54.775841547898807 -7.7453586633355975 9.3441423164490089 -0.71933979245794832 0 -0.69465837861970381 I I #
edge $-1 $480 -5.3458399718822598 $267 7.7453586633355975 $380 $487 forward 7 unknown #
point $-1 -54.7758415478988 -7.7453586633355975 13.019290921924293 #
point $-1 -50.970113845646452 -7.7453586633355975 13.019290921924293 #
edge $-1 $488 1 $488 0 $270 $-1 forward 7 unknown #
vertex $-1 $271 $489 #
ellipse-curve $-1 -51.520061233612317 -4.005016196130498 9.7807306413647872 -0.69465837861970381 0 0.71933979245794832 0.71933979245794832 0 0.69465837861970381 1 I I #
point $-1 -52.153637904314671 -4.005016196130498 11.876374997806352 #
edge $-1 $490 1 $490 0 $274 $-1 forward 7 unknown #
vertex $-1 $275 $491 #
ellipse-curve $-1 -51.520061233612317 1.6054975046771531 9.7807306413647872 -0.69465837861970381 0 0.71933979245794832 0.71933979245794832 0 0.69465837861970381 1 I I #
point $-1 -52.153637904314671 1.6054975046771531 11.876374997806352 #
loop $-1 $-1 $285 $278 #
plane-surface $-1 -54.7758415478988 0 0 1 0 0 0 0 -1 forward_v I I I I #
coedge $-1 $492 $493 $282 $400 forward $279 $-1 #
coedge $-1 $282 $281 $405 $494 reversed $111 $-1 #
edge $-1 $402 11.165143722863782 $495 16.45572786981937 $398 $496 forward 7 unknown #
coedge $-1 $288 $283 $493 $497 forward $177 $-1 #
vertex $-1 $497 $498 #
straight-curve $-1 -50.970113845646452 14.737514427585875 13.019290921924293 0 1 0 I I #
coedge $-1 $499 $285 $288 $409 reversed $396 $-1 #
coedge $-1 $285 $499 $399 $494 forward $396 $-1 #
vertex $-1 $286 $500 #
straight-curve $-1 -54.7758415478988 22.929429537562822 44.074513648999492 0 0 1 I I #
straight-curve $-1 -54.775841547898807 22.929429537562822 9.3441423164490089 -0.71933979245794832 0 -0.69465837861970381 I I #
edge $-1 $501 -36.020628172780668 $289 -22.929429537562822 $404 $502 forward 7 unknown #
point $-1 -54.7758415478988 22.929429537562822 13.019290921924293 #
point $-1 -50.970113845646452 22.929429537562822 13.019290921924293 #
edge $-1 $503 1 $503 0 $292 $-1 forward 7 unknown #
vertex $-1 $293 $504 #
ellipse-curve $-1 -51.520061233612317 26.669772004767914 9.7807306413647872 -0.69465837861970381 0 0.71933979245794832 0.71933979245794832 0 0.69465837861970381 1 I I #
point $-1 -52.153637904314671 26.669772004767914 11.876374997806352 #
edge $-1 $505 1 $505 0 $296 $-1 forward 7 unknown #
vertex $-1 $297 $506 #
ellipse-curve $-1 -51.520061233612317 32.280285705575572 9.7807306413647872 -0.69465837861970381 0 0.71933979245794832 0.71933979245794832 0 0.69465837861970381 1 I I #
point $-1 -52.153637904314671 32.280285705575572 11.876374997806352 #
loop $-1 $-1 $423 $300 #
plane-surface $-1 0 36.020628172780668 0 0 -1 0 0 0 -1 forward_v I I I I #
coedge $-1 $304 $303 $429 $507 reversed $125 $-1 #
coedge $-1 $508 $509 $304 $424 forward $420 $-1 #
edge $-1 $426 -72.785819997372684 $510 -57.483963903191608 $423 $511 forward 7 unknown #
coedge $-1 $310 $305 $509 $512 reversed $199 $-1 #
vertex $-1 $306 $513 #
straight-curve $-1 54.775841547898807 13.839162621583274 1.8282216993372771 0 1 0 I I #
coedge $-1 $514 $307 $310 $433 forward $301 $-1 #
coedge $-1 $307 $514 $422 $507 forward $301 $-1 #
vertex $-1 $308 $515 #
straight-curve $-1 30.091402080763022 19.336022313552423 13.019290921924295 1 0 0 I I #
straight-curve $-1 -19.938225694597399 19.336022313552423 81.949251555460734 -0.68199835119979291 0 0.73135370988377701 I I #
edge $-1 $311 19.336022313552423 $516 36.020628172780668 $310 $517 forward 7 unknown #
point $-1 54.7758415478988 19.336022313552423 13.019290921924293 #
point $-1 54.7758415478988 19.336022313552423 1.8282216993372913 #
edge $-1 $518 1 $518 0 $314 $-1 forward 7 unknown #
vertex $-1 $315 $519 #
ellipse-curve $-1 45.497587927123682 24.103052559046205 3.6374343386205084 0.73135370988377701 0 0.68199835119979291 1.3639967023995858 0 -1.462707419767554 1 I I #
point $-1 50.921917937034394 24.103052559046205 5.9610488908632551 #
edge $-1 $520 1 $520 0 $318 $-1 forward 7 unknown #
vertex $-1 $319 $521 #
ellipse-curve $-1 45.497587927123682 31.253597927286883 3.6374343386205084 0.73135370988377701 0 0.68199835119979291 1.3639967023995858 0 -1.462707419767554 1 I I #
point $-1 50.921917937034394 31.253597927286883 5.9610488908632551 #
plane-surface $-1 54.7758415478988 0 0 -1 0 0 0 0 1 forward_v I I I I #
coedge $-1 $327 $325 $329 $449 reversed $221 $-1 #
edge $-1 $340 -13.019290921924293 $451 13.019290921924293 $339 $522 forward 7 unknown #
vertex $-1 $449 $523 #
straight-curve $-1 -54.7758415478988 -36.020628172780668 0 0 0 -1 I I #
edge $-1 $447 -36.020628172780668 $451 36.020628172780668 $445 $524 forward 7 unknown #
straight-curve $-1 0 -36.020628172780668 -13.019290921924293 -1 0 0 I I #
vertex $-1 $332 $525 #
straight-curve $-1 0 36.020628172780668 -13.019290921924293 1 0 0 I I #
point $-1 54.7758415478988 36.020628172780668 -13.019290921924293 #
point $-1 54.7758415478988 -36.020628172780668 -13.019290921924293 #
straight-curve $-1 -54.7758415478988 0 13.019290921924293 0 -1 0 I I #
point $-1 -54.7758415478988 36.020628172780668 13.019290921924293 #
point $-1 -54.7758415478988 -36.020628172780668 13.019290921924293 #
straight-curve $-1 54.7758415478988 -36.020628172780668 0 0 0 -1 I I #
straight-curve $-1 54.7758415478988 36.020628172780668 0 0 0 -1 I I #
plane-surface $-1 54.7758415478988 0 0 -1 0 0 0 0 1 forward_v I I I I #
coedge $-1 $472 $463 $462 $526 forward $350 $-1 #
coedge $-1 $353 $352 $461 $526 reversed $147 $-1 #
coedge $-1 $461 $527 $354 $464 reversed $350 $-1 #
edge $-1 $465 -54.7758415478988 $468 54.7758415478988 $463 $528 forward 7 unknown #
vertex $-1 $355 $529 #
straight-curve $-1 -54.7758415478988 0 13.019290921924293 0 -1 0 I I #
coedge $-1 $362 $356 $527 $530 forward $363 $-1 #
vertex $-1 $357 $531 #
straight-curve $-1 54.7758415478988 0 13.019290921924293 0 1 0 I I #
point $-1 54.7758415478988 -36.020628172780668 13.019290921924293 #
point $-1 -54.7758415478988 -36.020628172780668 13.019290921924293 #
coedge $-1 $527 $461 $365 $473 reversed $350 $-1 #
edge $-1 $474 -54.7758415478988 $476 54.7758415478988 $472 $532 forward 7 unknown #
vertex $-1 $530 $533 #
straight-curve $-1 54.7758415478988 -41.366468144662925 10.019290921924293 0 -1 0 I I #
vertex $-1 $367 $534 #
straight-curve $-1 -54.7758415478988 -41.366468144662925 10.019290921924293 0 1 0 I I #
coedge $-1 $381 $380 $373 $479 forward $370 $-1 #
edge $-1 $480 31.055222727075197 $483 34.730371332550476 $478 $535 forward 7 unknown #
vertex $-1 $385 $536 #
straight-curve $-1 -65.438418051142591 5.3458399718822598 13.019290921924295 -1 0 0 I I #
edge $-1 $483 -5.9457196447455942 $382 7.1454789904722631 $381 $537 forward 7 unknown #
vertex $-1 $482 $538 #
straight-curve $-1 -54.775841547898807 5.3458399718822598 9.3441423164490089 0.71933979245794832 0 0.69465837861970381 I I #
point $-1 -50.970113845646452 5.3458399718822598 13.019290921924293 #
point $-1 -54.7758415478988 -7.7453586633355975 9.3441423164490161 #
straight-curve $-1 -54.7758415478988 0 13.019290921924293 0 -1 0 I I #
vertex $-1 $388 $539 #
point $-1 -50.800721441154366 -4.005016196130498 10.47538901998449 #
vertex $-1 $392 $540 #
point $-1 -50.800721441154366 1.6054975046771531 10.47538901998449 #
coedge $-1 $493 $398 $499 $541 reversed $279 $-1 #
coedge $-1 $398 $492 $401 $497 reversed $279 $-1 #
edge $-1 $495 -21.2831137451948 $406 -8.1919151099769465 $405 $542 forward 7 unknown #
vertex $-1 $400 $543 #
straight-curve $-1 -42.938581677278457 36.020628172780668 20.775251557504813 -0.71933979245794832 0 -0.69465837861970381 I I #
edge $-1 $402 50.970113845646452 $501 54.7758415478988 $493 $544 forward 7 unknown #
point $-1 -50.970113845646452 36.020628172780675 13.019290921924293 #
coedge $-1 $405 $404 $492 $541 forward $396 $-1 #
point $-1 -54.7758415478988 22.929429537562822 9.3441423164490161 #
vertex $-1 $497 $545 #
straight-curve $-1 -54.7758415478988 0 13.019290921924293 0 -1 0 I I #
vertex $-1 $412 $546 #
point $-1 -50.800721441154366 26.669772004767914 10.47538901998449 #
vertex $-1 $416 $547 #
point $-1 -50.800721441154366 32.280285705575572 10.47538901998449 #
edge $-1 $510 -22.181465551197402 $430 -5.4968596919691493 $429 $548 forward 7 unknown #
coedge $-1 $509 $423 $514 $549 reversed $420 $-1 #
coedge $-1 $423 $508 $425 $512 forward $420 $-1 #
vertex $-1 $424 $550 #
straight-curve $-1 5.1360323189657144 36.020628172780668 55.060401181348603 -0.68199835119979291 0 0.73135370988377701 I I #
edge $-1 $516 -13.019290921924293 $426 -1.8282216993372777 $425 $551 forward 7 unknown #
point $-1 54.7758415478988 36.020628172780668 1.8282216993372777 #
coedge $-1 $429 $428 $508 $549 forward $301 $-1 #
point $-1 44.340000921370795 19.336022313552423 13.019290921924295 #
vertex $-1 $433 $552 #
straight-curve $-1 54.7758415478988 0 13.019290921924293 0 1 0 I I #
vertex $-1 $436 $553 #
point $-1 46.861584629523264 24.103052559046205 2.1747269188529543 #
vertex $-1 $440 $554 #
point $-1 46.861584629523264 31.253597927286883 2.1747269188529543 #
straight-curve $-1 -54.7758415478988 36.020628172780668 0 0 0 -1 I I #
point $-1 -54.7758415478988 -36.020628172780668 -13.019290921924293 #
straight-curve $-1 -54.7758415478988 0 -13.019290921924293 0 1 0 I I #
point $-1 -54.7758415478988 36.020628172780668 -13.019290921924293 #
edge $-1 $465 -1.5 $476 1.5 $462 $555 forward 7 unknown #
coedge $-1 $463 $472 $467 $530 reversed $350 $-1 #
straight-curve $-1 0 -46.712308116545181 13.019290921924293 1 0 0 I I #
point $-1 -54.7758415478988 -46.712308116545181 13.019290921924293 #
edge $-1 $468 -1.5 $474 1.5 $467 $556 forward 7 unknown #
point $-1 54.7758415478988 -46.712308116545181 13.019290921924293 #
straight-curve $-1 0 -46.712308116545181 10.019290921924293 -1 0 0 I I #
point $-1 54.7758415478988 -46.712308116545181 10.019290921924293 #
point $-1 -54.7758415478988 -46.712308116545181 10.019290921924293 #
straight-curve $-1 -54.7758415478988 5.3458399718822598 44.074513648999492 0 0 -1 I I #
point $-1 -54.7758415478988 5.3458399718822598 13.019290921924293 #
straight-curve $-1 -54.7758415478988 -0.59987967286333443 9.3441423164490214 0 -1 0 I I #
point $-1 -54.7758415478988 5.3458399718822598 9.3441423164490161 #
point $-1 -50.82540285499261 -4.005016196130498 9.0613908489068393 #
point $-1 -50.82540285499261 1.6054975046771531 9.0613908489068393 #
edge $-1 $501 -13.019290921924293 $495 -9.3441423164490161 $492 $557 forward 7 unknown #
straight-curve $-1 -54.7758415478988 14.737514427585875 9.3441423164490214 0 -1 0 I I #
point $-1 -54.7758415478988 36.020628172780675 9.3441423164490161 #
straight-curve $-1 0 36.020628172780668 13.019290921924293 -1 0 0 I I #
point $-1 -54.7758415478988 36.020628172780668 13.019290921924293 #
point $-1 -50.82540285499261 26.669772004767914 9.0613908489068393 #
point $-1 -50.82540285499261 32.280285705575572 9.0613908489068393 #
straight-curve $-1 44.340000921370802 13.839162621583274 13.019290921924295 0 -1 0 I I #
edge $-1 $516 -54.7758415478988 $510 -44.340000921370795 $508 $558 forward 7 unknown #
point $-1 44.340000921370795 36.020628172780675 13.019290921924295 #
straight-curve $-1 54.7758415478988 36.020628172780668 0 0 0 -1 I I #
point $-1 54.7758415478988 36.020628172780668 13.019290921924293 #
point $-1 44.034880507356128 24.103052559046205 2.2734376362209225 #
point $-1 44.034880507356128 31.253597927286883 2.2734376362209225 #
straight-curve $-1 -54.7758415478988 -46.712308116545181 11.519290921924293 0 0 -1 I I #
straight-curve $-1 54.7758415478988 -46.712308116545181 11.519290921924293 0 0 -1 I I #
straight-curve $-1 -54.7758415478988 36.020628172780668 0 0 0 -1 I I #
straight-curve $-1 0 36.020628172780668 13.019290921924293 -1 0 0 I I #
End-of-ACIS-data 