500 0 5 0           
7 Unknown 11 ACIS 5.0 NT 24 Fri Mar 26 18:41:27 1999 
-1 9.9999999999999995e-007 1e-010 
body $-1 $5 $-1 $6 #
body $-1 $7 $-1 $8 #
body $-1 $9 $-1 $10 #
body $-1 $11 $-1 $12 #
body $-1 $13 $-1 $14 #
lump $-1 $-1 $15 $0 #
transform $-1 1 0 0 0 1 0 0 0 1 54.171575060274051 33.951840827137794 10.237671074814669 1 rotate no_reflect no_shear #
lump $-1 $-1 $16 $1 #
transform $-1 1 0 0 0 1 0 0 0 1 54.171575060274051 33.951840827137794 10.237671074814669 1 rotate no_reflect no_shear #
lump $-1 $-1 $17 $2 #
transform $-1 1 0 0 0 1 0 0 0 1 54.171575060274051 33.951840827137794 10.237671074814669 1 rotate no_reflect no_shear #
lump $-1 $-1 $18 $3 #
transform $-1 1 0 0 0 1 0 0 0 1 54.171575060274051 33.951840827137794 10.237671074814669 1 rotate no_reflect no_shear #
lump $-1 $-1 $19 $4 #
transform $-1 1 0 0 0 1 0 0 0 1 54.171575060274051 33.951840827137794 10.237671074814669 1 rotate no_reflect no_shear #
shell $-1 $-1 $-1 $20 $-1 $5 #
shell $-1 $-1 $-1 $21 $-1 $7 #
shell $-1 $-1 $-1 $22 $-1 $9 #
shell $-1 $-1 $-1 $23 $-1 $11 #
shell $-1 $-1 $-1 $24 $-1 $13 #
face $-1 $25 $26 $15 $-1 $27 reversed single #
face $-1 $28 $29 $16 $-1 $30 forward single #
face $-1 $31 $32 $17 $-1 $33 forward single #
face $-1 $34 $35 $18 $-1 $36 reversed single #
face $-1 $37 $38 $19 $-1 $39 forward single #
face $-1 $40 $41 $15 $-1 $42 forward single #
loop $-1 $-1 $43 $20 #
plane-surface $-1 54.171575060274051 0 0 -1 0 0 0 0 1 forward_v I I I I #
face $-1 $44 $45 $16 $-1 $46 reversed single #
loop $-1 $-1 $47 $21 #
plane-surface $-1 -54.171575060274051 0 0 1 0 0 0 0 -1 forward_v I I I I #
face $-1 $48 $49 $17 $-1 $50 reversed single #
loop $-1 $-1 $51 $22 #
plane-surface $-1 54.171575060274051 0 0 -1 0 0 0 0 1 forward_v I I I I #
face $-1 $52 $53 $18 $-1 $54 reversed single #
loop $-1 $-1 $55 $23 #
plane-surface $-1 -22.958835734125731 -89.752689037199289 94.077539152097913 -1 0 0 0 -0.51503808176128008 0.85716729658548041 forward_v I I I I #
face $-1 $56 $57 $19 $-1 $58 forward single #
loop $-1 $59 $60 $24 #
cone-surface $-1 -34.613202538890519 -23.619960456666796 1.0318280936985973 0 0.51503808176128008 -0.85716729658548041 3 0 0 1 I I 0 1 3 forward I I I I #
face $-1 $61 $62 $15 $-1 $63 reversed single #
loop $-1 $-1 $64 $25 #
plane-surface $-1 0 0 10.237671074814669 0 0 1 1 0 0 forward_v I I I I #
coedge $-1 $65 $66 $67 $68 reversed $26 $-1 #
face $-1 $69 $70 $16 $-1 $71 forward single #
loop $-1 $-1 $72 $28 #
plane-surface $-1 0 33.951840827137794 0 0 -1 0 0 0 -1 forward_v I I I I #
coedge $-1 $73 $74 $75 $76 forward $29 $-1 #
face $-1 $77 $78 $17 $-1 $79 forward single #
loop $-1 $-1 $80 $31 #
plane-surface $-1 0 -33.951840827137794 0 0 1 0 0 0 1 forward_v I I I I #
coedge $-1 $81 $82 $83 $84 forward $32 $-1 #
face $-1 $85 $86 $18 $-1 $87 reversed single #
loop $-1 $-1 $88 $34 #
plane-surface $-1 -34.613202538890519 -33.951840827137794 1.2093340597128304 0 -0.51503808176128008 0.85716729658548041 1 0 0 forward_v I I I I #
coedge $-1 $89 $90 $91 $92 reversed $35 $-1 #
face $-1 $-1 $93 $19 $-1 $94 forward single #
loop $-1 $95 $96 $37 #
cone-surface $-1 -34.613202538890519 -20.028360854524042 -4.9455973247447753 0 0.51503808176128008 -0.85716729658548041 1.5 0 0 1 I I -0.70710678118654757 0.70710678118654757 1.5 forward I I I I #
loop $-1 $-1 $97 $24 #
coedge $-1 $60 $60 $98 $99 reversed $38 $-1 #
face $-1 $100 $101 $15 $-1 $102 reversed single #
loop $-1 $-1 $103 $40 #
plane-surface $-1 0 0 -10.237671074814669 0 0 1 1 0 0 forward_v I I I I #
coedge $-1 $104 $105 $65 $106 forward $41 $-1 #
coedge $-1 $107 $43 $64 $106 reversed $26 $-1 #
coedge $-1 $43 $107 $103 $108 reversed $26 $-1 #
coedge $-1 $109 $110 $43 $68 forward $111 $-1 #
edge $-1 $112 -10.237671074814669 $113 10.237671074814669 $43 $114 forward 7 unknown #
face $-1 $115 $116 $16 $-1 $117 reversed single #
loop $-1 $-1 $75 $44 #
plane-surface $-1 -58.123577918583422 0 -6.1259449451524279 0 0 1 1 0 0 forward_v I I I I #
coedge $-1 $118 $119 $74 $120 forward $45 $-1 #
coedge $-1 $121 $47 $122 $123 reversed $29 $-1 #
coedge $-1 $47 $121 $72 $120 reversed $29 $-1 #
coedge $-1 $124 $125 $47 $76 reversed $70 $-1 #
edge $-1 $126 -33.951840827137794 $127 33.951840827137794 $75 $128 forward 7 unknown #
face $-1 $129 $130 $17 $-1 $131 reversed single #
loop $-1 $-1 $132 $48 #
plane-surface $-1 58.123577918583422 0 -6.1259449451524279 0 0 1 1 0 0 forward_v I I I I #
coedge $-1 $133 $134 $82 $135 forward $49 $-1 #
coedge $-1 $136 $51 $137 $138 reversed $32 $-1 #
coedge $-1 $51 $136 $80 $135 reversed $32 $-1 #
coedge $-1 $139 $140 $51 $84 reversed $78 $-1 #
edge $-1 $141 -33.951840827137794 $142 33.951840827137794 $83 $143 forward 7 unknown #
face $-1 $144 $145 $18 $-1 $146 forward single #
loop $-1 $-1 $147 $52 #
plane-surface $-1 -46.26756934365531 -89.752689037199289 94.077539152097913 1 0 0 0 0.51503808176128008 -0.85716729658548041 forward_v I I I I #
coedge $-1 $148 $149 $150 $151 reversed $53 $-1 #
coedge $-1 $90 $55 $152 $153 reversed $35 $-1 #
coedge $-1 $55 $89 $148 $154 reversed $35 $-1 #
coedge $-1 $150 $155 $55 $92 forward $145 $-1 #
edge $-1 $156 10.924503691461851 $157 25.95017947340218 $91 $158 forward 7 unknown #
loop $-1 $-1 $98 $56 #
plane-surface $-1 -34.613202538890519 -33.951840827137794 1.2093340597128304 0 -0.51503808176128008 0.85716729658548041 1 0 0 forward_v I I I I #
loop $-1 $-1 $159 $37 #
coedge $-1 $96 $96 $97 $160 reversed $57 $-1 #
coedge $-1 $97 $97 $96 $160 forward $59 $-1 #
coedge $-1 $98 $98 $60 $99 forward $93 $-1 #
edge $-1 $161 0 $161 6.2831853071796004 $98 $162 forward 7 unknown #
face $-1 $163 $164 $15 $-1 $165 reversed single #
loop $-1 $-1 $166 $61 #
plane-surface $-1 0 -33.951840827137794 0 0 1 0 0 0 1 forward_v I I I I #
coedge $-1 $167 $168 $66 $108 forward $62 $-1 #
coedge $-1 $169 $64 $110 $170 forward $41 $-1 #
coedge $-1 $64 $169 $171 $172 forward $41 $-1 #
edge $-1 $173 -33.951840827137794 $112 33.951840827137794 $65 $174 forward 7 unknown #
coedge $-1 $66 $65 $175 $176 forward $26 $-1 #
edge $-1 $113 -33.951840827137794 $177 33.951840827137794 $66 $178 forward 7 unknown #
coedge $-1 $179 $67 $168 $180 reversed $111 $-1 #
coedge $-1 $67 $179 $104 $170 reversed $111 $-1 #
loop $-1 $-1 $67 $163 #
vertex $-1 $106 $181 #
vertex $-1 $108 $182 #
straight-curve $-1 54.171575060274051 33.951840827137794 0 0 0 -1 I I #
face $-1 $183 $184 $16 $-1 $185 reversed single #
loop $-1 $-1 $186 $69 #
plane-surface $-1 -58.123577918583422 0 -9.7376710748146689 0 0 1 1 0 0 forward_v I I I I #
coedge $-1 $187 $72 $188 $189 reversed $45 $-1 #
coedge $-1 $72 $187 $124 $190 reversed $45 $-1 #
edge $-1 $126 6.1259449451524279 $191 9.7376710748146689 $72 $192 forward 7 unknown #
coedge $-1 $74 $73 $186 $193 forward $29 $-1 #
coedge $-1 $194 $195 $73 $123 forward $196 $-1 #
edge $-1 $197 -9.7376710748146689 $127 -6.1259449451524279 $122 $198 forward 7 unknown #
coedge $-1 $199 $75 $119 $190 forward $70 $-1 #
coedge $-1 $75 $199 $194 $200 forward $70 $-1 #
vertex $-1 $120 $201 #
vertex $-1 $200 $202 #
straight-curve $-1 -54.171575060274051 0 -6.1259449451524279 0 -1 0 I I #
face $-1 $203 $204 $17 $-1 $205 reversed single #
loop $-1 $-1 $206 $77 #
plane-surface $-1 58.123577918583422 0 -9.7376710748146689 0 0 1 1 0 0 forward_v I I I I #
coedge $-1 $140 $139 $207 $208 forward $78 $-1 #
coedge $-1 $209 $80 $210 $211 reversed $49 $-1 #
coedge $-1 $80 $209 $139 $212 reversed $49 $-1 #
edge $-1 $141 6.1259449451524279 $213 9.7376710748146689 $80 $214 forward 7 unknown #
coedge $-1 $82 $81 $215 $216 forward $32 $-1 #
coedge $-1 $217 $218 $81 $138 forward $219 $-1 #
edge $-1 $220 -9.7376710748146689 $142 -6.1259449451524279 $137 $221 forward 7 unknown #
coedge $-1 $132 $83 $134 $212 forward $78 $-1 #
coedge $-1 $83 $132 $217 $222 forward $78 $-1 #
vertex $-1 $135 $223 #
vertex $-1 $222 $224 #
straight-curve $-1 54.171575060274051 0 -6.1259449451524279 0 1 0 I I #
face $-1 $-1 $225 $18 $-1 $226 reversed single #
loop $-1 $-1 $91 $85 #
plane-surface $-1 0 0 10.237671074814669 0 0 1 1 0 0 forward_v I I I I #
coedge $-1 $227 $228 $229 $230 reversed $86 $-1 #
coedge $-1 $231 $88 $90 $154 forward $53 $-1 #
coedge $-1 $88 $231 $227 $232 forward $53 $-1 #
coedge $-1 $229 $91 $88 $151 forward $145 $-1 #
edge $-1 $157 5.6522344646804719 $233 28.960968074210051 $150 $234 forward 7 unknown #
coedge $-1 $235 $236 $89 $153 forward $225 $-1 #
edge $-1 $237 -45.829435516336126 $156 -36.801098501234286 $152 $238 forward 7 unknown #
edge $-1 $157 -17.529455267128128 $237 0 $90 $239 forward 7 unknown #
coedge $-1 $91 $229 $235 $240 forward $145 $-1 #
vertex $-1 $153 $241 #
vertex $-1 $92 $242 #
straight-curve $-1 -22.958835734125731 -44.876344518599645 10.237671074814671 0 1 0 I I #
coedge $-1 $159 $159 $-1 $243 reversed $95 $-1 #
edge $-1 $244 0 $244 6.2831853071796004 $96 $245 forward 7 unknown #
vertex $-1 $99 $246 #
ellipse-curve $-1 -34.613202538890519 -26.439002936167629 5.7235025672637496 0 -0.51503808176128008 0.85716729658548041 3 0 0 1 I I #
face $-1 $-1 $111 $15 $-1 $247 reversed single #
loop $-1 $-1 $248 $100 #
plane-surface $-1 -54.171575060274051 0 0 1 0 0 0 0 -1 forward_v I I I I #
coedge $-1 $249 $171 $248 $250 forward $101 $-1 #
coedge $-1 $251 $103 $249 $252 forward $62 $-1 #
coedge $-1 $103 $251 $109 $180 forward $62 $-1 #
coedge $-1 $105 $104 $253 $254 forward $41 $-1 #
edge $-1 $112 -54.171575060274051 $255 54.171575060274051 $110 $256 forward 7 unknown #
coedge $-1 $166 $175 $105 $172 reversed $101 $-1 #
edge $-1 $257 -54.171575060274051 $173 54.171575060274051 $171 $258 forward 7 unknown #
vertex $-1 $106 $259 #
straight-curve $-1 54.171575060274051 0 10.237671074814669 0 1 0 I I #
coedge $-1 $171 $249 $107 $176 reversed $101 $-1 #
edge $-1 $173 -10.237671074814669 $177 10.237671074814669 $107 $260 forward 7 unknown #
vertex $-1 $176 $261 #
straight-curve $-1 54.171575060274051 0 -10.237671074814669 0 -1 0 I I #
coedge $-1 $110 $109 $262 $263 reversed $111 $-1 #
edge $-1 $264 -54.171575060274051 $113 54.171575060274051 $109 $265 forward 7 unknown #
point $-1 54.171575060274051 33.951840827137794 10.237671074814669 #
point $-1 54.171575060274051 33.951840827137794 -10.237671074814669 #
face $-1 $-1 $196 $16 $-1 $266 reversed single #
loop $-1 $-1 $267 $115 #
plane-surface $-1 -62.075580776892792 0 -7.9318080099835484 1 0 0 0 0 -1 forward_v I I I I #
coedge $-1 $268 $188 $121 $193 reversed $116 $-1 #
coedge $-1 $119 $118 $267 $269 reversed $45 $-1 #
coedge $-1 $186 $270 $118 $189 forward $116 $-1 #
edge $-1 $271 -3.9520028583093705 $191 3.9520028583093705 $118 $272 forward 7 unknown #
edge $-1 $126 -3.9520028583093705 $273 3.9520028583093705 $119 $274 forward 7 unknown #
vertex $-1 $120 $275 #
straight-curve $-1 -54.171575060274051 33.951840827137794 0 0 0 -1 I I #
edge $-1 $197 -33.951840827137794 $191 33.951840827137794 $186 $276 forward 7 unknown #
coedge $-1 $277 $122 $125 $200 reversed $196 $-1 #
coedge $-1 $122 $277 $268 $278 reversed $196 $-1 #
loop $-1 $-1 $122 $183 #
vertex $-1 $123 $279 #
straight-curve $-1 -54.171575060274051 -33.951840827137794 0 0 0 1 I I #
coedge $-1 $125 $124 $280 $281 forward $70 $-1 #
edge $-1 $282 -3.9520028583093705 $127 3.9520028583093705 $194 $283 forward 7 unknown #
point $-1 -54.171575060274051 33.951840827137794 -6.1259449451524279 #
point $-1 -54.171575060274051 -33.951840827137794 -6.1259449451524279 #
face $-1 $-1 $219 $17 $-1 $284 reversed single #
loop $-1 $-1 $285 $129 #
plane-surface $-1 62.075580776892792 0 -7.9318080099835484 -1 0 0 0 0 1 forward_v I I I I #
coedge $-1 $210 $286 $287 $288 forward $130 $-1 #
coedge $-1 $285 $289 $132 $208 reversed $204 $-1 #
edge $-1 $290 -33.951840827137794 $291 33.951840827137794 $207 $292 forward 7 unknown #
coedge $-1 $134 $133 $285 $293 reversed $49 $-1 #
coedge $-1 $215 $206 $133 $211 forward $130 $-1 #
edge $-1 $294 -3.9520028583093705 $213 3.9520028583093705 $133 $295 forward 7 unknown #
edge $-1 $141 -3.9520028583093705 $290 3.9520028583093705 $134 $296 forward 7 unknown #
vertex $-1 $135 $297 #
straight-curve $-1 54.171575060274051 -33.951840827137794 0 0 0 -1 I I #
coedge $-1 $286 $210 $136 $216 reversed $130 $-1 #
edge $-1 $220 -33.951840827137794 $213 33.951840827137794 $215 $298 forward 7 unknown #
coedge $-1 $299 $137 $140 $222 reversed $219 $-1 #
coedge $-1 $137 $299 $286 $300 reversed $219 $-1 #
loop $-1 $-1 $137 $203 #
vertex $-1 $138 $301 #
straight-curve $-1 54.171575060274051 33.951840827137794 0 0 0 1 I I #
edge $-1 $291 -3.9520028583093705 $142 3.9520028583093705 $217 $302 forward 7 unknown #
point $-1 54.171575060274051 -33.951840827137794 -6.1259449451524279 #
point $-1 54.171575060274051 33.951840827137794 -6.1259449451524279 #
loop $-1 $-1 $152 $144 #
plane-surface $-1 0 -33.951840827137794 0 0 1 0 0 0 1 forward_v I I I I #
coedge $-1 $228 $147 $149 $232 reversed $86 $-1 #
coedge $-1 $147 $227 $303 $304 reversed $86 $-1 #
coedge $-1 $155 $150 $147 $230 forward $145 $-1 #
edge $-1 $233 -25.95017947340218 $305 -10.924503691461851 $229 $306 forward 7 unknown #
coedge $-1 $149 $148 $236 $307 reversed $53 $-1 #
edge $-1 $308 0 $233 17.529455267128128 $227 $309 forward 7 unknown #
vertex $-1 $151 $310 #
straight-curve $-1 -17.30660126944526 -18.926165045197465 10.237671074814669 -1 0 0 I I #
coedge $-1 $303 $152 $155 $240 reversed $225 $-1 #
coedge $-1 $152 $303 $231 $307 forward $225 $-1 #
vertex $-1 $153 $311 #
straight-curve $-1 -22.958835734125731 -33.951840827137794 47.038769576048956 0 0 1 I I #
straight-curve $-1 -22.958835734125731 -33.951840827137794 1.2093340597128304 0 -0.85716729658548041 -0.51503808176128008 I I #
edge $-1 $305 -46.26756934365531 $156 -22.958835734125731 $235 $312 forward 7 unknown #
point $-1 -22.958835734125731 -33.951840827137794 10.237671074814669 #
point $-1 -22.958835734125731 -18.926165045197465 10.237671074814669 #
edge $-1 $313 1 $313 0 $159 $-1 forward 7 unknown #
vertex $-1 $160 $314 #
ellipse-curve $-1 -34.613202538890519 -20.800917977165962 -3.6598463798665546 0 -0.51503808176128008 0.85716729658548041 3 0 0 1 I I #
point $-1 -31.613202538890519 -26.439002936167629 5.7235025672637496 #
plane-surface $-1 0 33.951840827137794 0 0 -1 0 0 0 -1 forward_v I I I I #
coedge $-1 $253 $315 $166 $250 reversed $164 $-1 #
coedge $-1 $175 $166 $167 $252 reversed $101 $-1 #
edge $-1 $257 -10.237671074814669 $316 10.237671074814669 $248 $317 forward 7 unknown #
coedge $-1 $168 $167 $315 $318 forward $62 $-1 #
edge $-1 $177 -54.171575060274051 $316 54.171575060274051 $249 $319 forward 7 unknown #
coedge $-1 $262 $248 $169 $254 reversed $164 $-1 #
edge $-1 $255 -33.951840827137794 $257 33.951840827137794 $253 $320 forward 7 unknown #
vertex $-1 $170 $321 #
straight-curve $-1 0 33.951840827137794 10.237671074814669 -1 0 0 I I #
vertex $-1 $254 $322 #
straight-curve $-1 0 -33.951840827137794 10.237671074814669 1 0 0 I I #
point $-1 54.171575060274051 -33.951840827137794 10.237671074814669 #
straight-curve $-1 54.171575060274051 -33.951840827137794 0 0 0 -1 I I #
point $-1 54.171575060274051 -33.951840827137794 -10.237671074814669 #
coedge $-1 $315 $253 $179 $263 forward $164 $-1 #
edge $-1 $255 -10.237671074814669 $264 10.237671074814669 $179 $323 forward 7 unknown #
vertex $-1 $180 $324 #
straight-curve $-1 0 33.951840827137794 -10.237671074814669 1 0 0 I I #
plane-surface $-1 0 -33.951840827137794 0 0 1 0 0 0 1 forward_v I I I I #
coedge $-1 $325 $280 $187 $269 forward $184 $-1 #
coedge $-1 $270 $186 $195 $278 forward $116 $-1 #
edge $-1 $273 -1.8058630648311205 $271 1.8058630648311205 $187 $326 forward 7 unknown #
coedge $-1 $188 $268 $325 $327 forward $116 $-1 #
vertex $-1 $189 $328 #
straight-curve $-1 -58.123577918583422 33.951840827137794 -9.7376710748146689 1 0 0 I I #
vertex $-1 $190 $329 #
straight-curve $-1 -58.123577918583422 33.951840827137794 -6.1259449451524279 -1 0 0 I I #
point $-1 -54.171575060274051 33.951840827137794 -9.7376710748146689 #
straight-curve $-1 -54.171575060274051 0 -9.7376710748146689 0 1 0 I I #
coedge $-1 $195 $194 $330 $331 forward $196 $-1 #
edge $-1 $197 -3.9520028583093705 $332 3.9520028583093705 $195 $333 forward 7 unknown #
point $-1 -54.171575060274051 -33.951840827137794 -9.7376710748146689 #
coedge $-1 $267 $330 $199 $281 reversed $184 $-1 #
edge $-1 $273 -33.951840827137794 $282 33.951840827137794 $280 $334 forward 7 unknown #
vertex $-1 $281 $335 #
straight-curve $-1 -58.123577918583422 -33.951840827137794 -6.1259449451524279 1 0 0 I I #
plane-surface $-1 0 33.951840827137794 0 0 -1 0 0 0 -1 forward_v I I I I #
coedge $-1 $287 $207 $209 $293 forward $204 $-1 #
coedge $-1 $206 $215 $218 $300 forward $130 $-1 #
coedge $-1 $289 $285 $206 $288 reversed $204 $-1 #
edge $-1 $336 -33.951840827137794 $294 33.951840827137794 $287 $337 forward 7 unknown #
coedge $-1 $207 $287 $299 $338 reversed $204 $-1 #
vertex $-1 $208 $339 #
vertex $-1 $208 $340 #
straight-curve $-1 62.075580776892792 0 -6.1259449451524279 0 1 0 I I #
edge $-1 $290 -1.8058630648311205 $294 1.8058630648311205 $285 $341 forward 7 unknown #
vertex $-1 $293 $342 #
straight-curve $-1 58.123577918583422 -33.951840827137794 -9.7376710748146689 -1 0 0 I I #
straight-curve $-1 58.123577918583422 -33.951840827137794 -6.1259449451524279 1 0 0 I I #
point $-1 54.171575060274051 -33.951840827137794 -9.7376710748146689 #
straight-curve $-1 54.171575060274051 0 -9.7376710748146689 0 -1 0 I I #
coedge $-1 $218 $217 $289 $338 forward $219 $-1 #
edge $-1 $220 -3.9520028583093705 $336 3.9520028583093705 $218 $343 forward 7 unknown #
point $-1 54.171575060274051 33.951840827137794 -9.7376710748146689 #
straight-curve $-1 58.123577918583422 33.951840827137794 -6.1259449451524279 -1 0 0 I I #
coedge $-1 $236 $235 $228 $304 forward $225 $-1 #
edge $-1 $305 36.801098501234286 $308 45.829435516336126 $303 $344 forward 7 unknown #
vertex $-1 $240 $345 #
straight-curve $-1 -46.26756934365531 -44.876344518599645 10.237671074814671 0 -1 0 I I #
edge $-1 $308 -28.960968074210051 $237 -5.6522344646804719 $236 $346 forward 7 unknown #
vertex $-1 $307 $347 #
straight-curve $-1 -46.26756934365531 -33.951840827137794 1.2093340597128304 0 0.85716729658548041 0.51503808176128008 I I #
point $-1 -46.26756934365531 -18.926165045197465 10.237671074814669 #
point $-1 -22.958835734125731 -33.951840827137794 1.2093340597128304 #
straight-curve $-1 0 -33.951840827137794 10.237671074814669 1 0 0 I I #
vertex $-1 $243 $348 #
point $-1 -31.613202538890519 -20.800917977165962 -3.6598463798665546 #
coedge $-1 $248 $262 $251 $318 reversed $164 $-1 #
vertex $-1 $318 $349 #
straight-curve $-1 -54.171575060274051 -33.951840827137794 0 0 0 -1 I I #
edge $-1 $316 -33.951840827137794 $264 33.951840827137794 $315 $350 forward 7 unknown #
straight-curve $-1 0 -33.951840827137794 -10.237671074814669 -1 0 0 I I #
straight-curve $-1 -54.171575060274051 0 10.237671074814669 0 -1 0 I I #
point $-1 -54.171575060274051 33.951840827137794 10.237671074814669 #
point $-1 -54.171575060274051 -33.951840827137794 10.237671074814669 #
straight-curve $-1 -54.171575060274051 33.951840827137794 0 0 0 -1 I I #
point $-1 -54.171575060274051 33.951840827137794 -10.237671074814669 #
coedge $-1 $330 $267 $270 $327 reversed $184 $-1 #
straight-curve $-1 -62.075580776892792 33.951840827137794 -7.9318080099835484 0 0 -1 I I #
edge $-1 $332 -33.951840827137794 $271 33.951840827137794 $325 $351 forward 7 unknown #
point $-1 -62.075580776892792 33.951840827137794 -9.7376710748146689 #
point $-1 -62.075580776892792 33.951840827137794 -6.1259449451524279 #
coedge $-1 $280 $325 $277 $331 reversed $184 $-1 #
edge $-1 $282 -1.8058630648311205 $332 1.8058630648311205 $330 $352 forward 7 unknown #
vertex $-1 $327 $353 #
straight-curve $-1 -58.123577918583422 -33.951840827137794 -9.7376710748146689 -1 0 0 I I #
straight-curve $-1 -62.075580776892792 0 -6.1259449451524279 0 -1 0 I I #
point $-1 -62.075580776892792 -33.951840827137794 -6.1259449451524279 #
vertex $-1 $288 $354 #
straight-curve $-1 62.075580776892792 0 -9.7376710748146689 0 -1 0 I I #
edge $-1 $291 -1.8058630648311205 $336 1.8058630648311205 $289 $355 forward 7 unknown #
point $-1 62.075580776892792 -33.951840827137794 -6.1259449451524279 #
point $-1 62.075580776892792 33.951840827137794 -6.1259449451524279 #
straight-curve $-1 62.075580776892792 -33.951840827137794 -7.9318080099835484 0 0 -1 I I #
point $-1 62.075580776892792 -33.951840827137794 -9.7376710748146689 #
straight-curve $-1 58.123577918583422 33.951840827137794 -9.7376710748146689 1 0 0 I I #
straight-curve $-1 -46.26756934365531 -33.951840827137794 47.038769576048956 0 0 -1 I I #
point $-1 -46.26756934365531 -33.951840827137794 10.237671074814669 #
straight-curve $-1 -17.30660126944526 -33.951840827137794 1.2093340597128319 1 0 0 I I #
point $-1 -46.26756934365531 -33.951840827137794 1.2093340597128304 #
point $-1 -34.613202538890519 -19.255803731882121 -6.2313482696229965 #
point $-1 -54.171575060274051 -33.951840827137794 -10.237671074814669 #
straight-curve $-1 -54.171575060274051 0 -10.237671074814669 0 1 0 I I #
straight-curve $-1 -62.075580776892792 0 -9.7376710748146689 0 1 0 I I #
straight-curve $-1 -62.075580776892792 -33.951840827137794 -7.9318080099835484 0 0 -1 I I #
point $-1 -62.075580776892792 -33.951840827137794 -9.7376710748146689 #
point $-1 62.075580776892792 33.951840827137794 -9.7376710748146689 #
straight-curve $-1 62.075580776892792 33.951840827137794 -7.9318080099835484 0 0 -1 I I #
End-of-ACIS-data 