500 0 5 0           
7 Unknown 11 ACIS 5.0 NT 24 Thu Mar 25 16:20:49 1999 
-1 9.9999999999999995e-007 1e-010 
body $-1 $5 $-1 $6 #
body $-1 $7 $-1 $8 #
body $-1 $9 $-1 $10 #
body $-1 $11 $-1 $12 #
body $-1 $13 $-1 $14 #
lump $-1 $-1 $15 $0 #
transform $-1 1 0 0 0 1 0 0 0 1 75.031586657307656 34.426324756064346 16.151280410474744 1 rotate no_reflect no_shear #
lump $-1 $-1 $16 $1 #
transform $-1 1 0 0 0 1 0 0 0 1 75.031586657307656 34.426324756064346 16.151280410474744 1 rotate no_reflect no_shear #
lump $-1 $-1 $17 $2 #
transform $-1 1 0 0 0 1 0 0 0 1 75.031586657307656 34.426324756064346 16.151280410474744 1 rotate no_reflect no_shear #
lump $-1 $-1 $18 $3 #
transform $-1 1 0 0 0 1 0 0 0 1 75.031586657307656 34.426324756064346 16.151280410474744 1 rotate no_reflect no_shear #
lump $-1 $-1 $19 $4 #
transform $-1 1 0 0 0 1 0 0 0 1 75.031586657307656 34.426324756064346 16.151280410474744 1 rotate no_reflect no_shear #
shell $-1 $-1 $-1 $20 $-1 $5 #
shell $-1 $-1 $-1 $21 $-1 $7 #
shell $-1 $-1 $-1 $22 $-1 $9 #
shell $-1 $-1 $-1 $23 $-1 $11 #
shell $-1 $-1 $-1 $24 $-1 $13 #
face $-1 $25 $26 $15 $-1 $27 forward single #
face $-1 $28 $29 $16 $-1 $30 reversed single #
face $-1 $31 $32 $17 $-1 $33 reversed single #
face $-1 $34 $35 $18 $-1 $36 forward single #
face $-1 $37 $38 $19 $-1 $39 forward single #
face $-1 $40 $41 $15 $-1 $42 reversed single #
loop $-1 $-1 $43 $20 #
plane-surface $-1 0 0 16.151280410474744 0 0 1 1 0 0 forward_v I I I I #
face $-1 $44 $45 $16 $-1 $46 reversed single #
loop $-1 $-1 $47 $21 #
plane-surface $-1 -65.671242643426197 0 11.534952960410342 0 0 1 1 0 0 forward_v I I I I #
face $-1 $48 $49 $17 $-1 $50 reversed single #
loop $-1 $-1 $51 $22 #
plane-surface $-1 72.380390088690277 -113.94769219743624 137.23010611864993 -1 0 0 0 -0.52991927123019833 0.84804809178421925 forward_v I I I I #
face $-1 $52 $53 $18 $-1 $54 forward single #
loop $-1 $55 $56 $23 #
cone-surface $-1 50.075776929759343 -28.566808392945234 11.599333565165464 0 0.52991927123019833 -0.84804809178421925 2 0 0 1 I I 0 1 2 forward I I I I #
face $-1 $57 $58 $19 $-1 $59 forward single #
loop $-1 $60 $61 $24 #
cone-surface $-1 63.458544825117912 -28.566808392945234 11.599333565165464 0 0.52991927123019833 -0.84804809178421925 2 0 0 1 I I 0 1 2 forward I I I I #
face $-1 $62 $63 $15 $-1 $64 reversed single #
loop $-1 $-1 $65 $25 #
plane-surface $-1 0 0 -16.151280410474744 0 0 1 1 0 0 forward_v I I I I #
coedge $-1 $66 $67 $68 $69 forward $26 $-1 #
face $-1 $70 $71 $16 $-1 $72 reversed single #
loop $-1 $-1 $73 $28 #
plane-surface $-1 -56.310898629544738 0 13.843116685442542 -1 0 0 0 0 1 forward_v I I I I #
coedge $-1 $74 $75 $76 $77 forward $29 $-1 #
face $-1 $78 $79 $17 $-1 $80 reversed single #
loop $-1 $-1 $81 $31 #
plane-surface $-1 56.767160877438613 -34.426324756064346 9.9693183421058365 0 -0.52991927123019833 0.84804809178421925 1 0 0 forward_v I I I I #
coedge $-1 $82 $83 $84 $85 reversed $32 $-1 #
face $-1 $-1 $86 $18 $-1 $87 forward single #
loop $-1 $88 $89 $34 #
cone-surface $-1 50.075776929759343 -27.123976345395157 9.2903196622564117 0 0.52991927123019833 -0.84804809178421925 1 0 0 1 I I -0.70710678118654746 0.70710678118654746 1 forward I I I I #
loop $-1 $-1 $90 $23 #
coedge $-1 $56 $56 $91 $92 reversed $35 $-1 #
face $-1 $-1 $93 $19 $-1 $94 forward single #
loop $-1 $95 $96 $37 #
cone-surface $-1 63.458544825117912 -27.123976345395157 9.2903196622564117 0 0.52991927123019833 -0.84804809178421925 1 0 0 1 I I -0.70710678118654746 0.70710678118654746 1 forward I I I I #
loop $-1 $-1 $97 $24 #
coedge $-1 $61 $61 $98 $99 reversed $38 $-1 #
face $-1 $100 $101 $15 $-1 $102 reversed single #
loop $-1 $-1 $103 $40 #
plane-surface $-1 0 -34.426324756064346 0 0 1 0 0 0 1 forward_v I I I I #
coedge $-1 $104 $105 $106 $107 forward $41 $-1 #
coedge $-1 $108 $43 $109 $110 forward $26 $-1 #
coedge $-1 $43 $108 $111 $112 forward $26 $-1 #
coedge $-1 $113 $114 $43 $69 reversed $115 $-1 #
edge $-1 $116 -34.426324756064346 $117 34.426324756064346 $68 $118 forward 7 unknown #
face $-1 $119 $120 $16 $-1 $121 reversed single #
loop $-1 $-1 $122 $44 #
plane-surface $-1 0 34.426324756064346 0 0 -1 0 0 0 -1 forward_v I I I I #
coedge $-1 $76 $123 $124 $125 reversed $45 $-1 #
coedge $-1 $126 $47 $127 $128 reversed $29 $-1 #
coedge $-1 $47 $126 $129 $130 reversed $29 $-1 #
coedge $-1 $131 $73 $47 $77 reversed $45 $-1 #
edge $-1 $132 -34.426324756064346 $133 34.426324756064346 $76 $134 forward 7 unknown #
face $-1 $135 $136 $17 $-1 $137 reversed single #
loop $-1 $-1 $138 $48 #
plane-surface $-1 41.153931666186949 -113.94769219743624 137.23010611864993 1 0 0 0 0.52991927123019833 -0.84804809178421925 forward_v I I I I #
coedge $-1 $139 $140 $141 $142 reversed $49 $-1 #
coedge $-1 $83 $51 $143 $144 reversed $32 $-1 #
coedge $-1 $51 $82 $139 $145 reversed $32 $-1 #
coedge $-1 $141 $146 $51 $85 forward $147 $-1 #
edge $-1 $148 22.547521342653774 $149 32.440728516252257 $84 $150 forward 7 unknown #
loop $-1 $-1 $91 $52 #
plane-surface $-1 56.767160877438613 -34.426324756064346 9.9693183421058365 0 -0.52991927123019833 0.84804809178421925 1 0 0 forward_v I I I I #
loop $-1 $-1 $151 $34 #
coedge $-1 $89 $89 $90 $152 reversed $53 $-1 #
coedge $-1 $90 $90 $89 $152 forward $55 $-1 #
coedge $-1 $91 $91 $56 $92 forward $86 $-1 #
edge $-1 $153 -9.4447445311590422e-017 $153 6.2831853071796004 $91 $154 forward 7 unknown #
loop $-1 $-1 $98 $57 #
plane-surface $-1 56.767160877438613 -34.426324756064346 9.9693183421058365 0 -0.52991927123019833 0.84804809178421925 1 0 0 forward_v I I I I #
loop $-1 $-1 $155 $37 #
coedge $-1 $96 $96 $97 $156 reversed $58 $-1 #
coedge $-1 $97 $97 $96 $156 forward $60 $-1 #
coedge $-1 $98 $98 $61 $99 forward $93 $-1 #
edge $-1 $157 -9.4447445311590422e-017 $157 6.2831853071796004 $98 $158 forward 7 unknown #
face $-1 $159 $160 $15 $-1 $161 reversed single #
loop $-1 $-1 $162 $62 #
plane-surface $-1 -75.031586657307656 0 0 1 0 0 0 0 -1 forward_v I I I I #
coedge $-1 $163 $111 $164 $165 forward $63 $-1 #
coedge $-1 $166 $65 $163 $167 forward $41 $-1 #
coedge $-1 $65 $166 $168 $169 forward $41 $-1 #
coedge $-1 $114 $113 $65 $107 reversed $115 $-1 #
edge $-1 $170 -34.426324756064346 $171 34.426324756064346 $106 $172 forward 7 unknown #
coedge $-1 $67 $66 $173 $174 forward $26 $-1 #
coedge $-1 $175 $176 $66 $110 reversed $160 $-1 #
edge $-1 $117 -75.031586657307656 $177 75.031586657307656 $109 $178 forward 7 unknown #
coedge $-1 $103 $179 $67 $112 reversed $63 $-1 #
edge $-1 $180 -75.031586657307656 $116 75.031586657307656 $111 $181 forward 7 unknown #
coedge $-1 $106 $68 $179 $182 forward $115 $-1 #
coedge $-1 $68 $106 $175 $183 reversed $115 $-1 #
loop $-1 $-1 $113 $159 #
vertex $-1 $69 $184 #
vertex $-1 $69 $185 #
straight-curve $-1 75.031586657307656 0 16.151280410474744 0 1 0 I I #
face $-1 $186 $187 $16 $-1 $188 forward single #
loop $-1 $-1 $189 $70 #
plane-surface $-1 -75.031586657307656 0 0 1 0 0 0 0 -1 forward_v I I I I #
coedge $-1 $129 $190 $131 $191 forward $71 $-1 #
coedge $-1 $73 $131 $192 $193 reversed $45 $-1 #
coedge $-1 $194 $127 $73 $125 forward $195 $-1 #
edge $-1 $133 4.613394617689071 $196 9.2297220677534693 $124 $197 forward 7 unknown #
coedge $-1 $75 $74 $189 $198 reversed $29 $-1 #
coedge $-1 $124 $199 $74 $128 forward $195 $-1 #
edge $-1 $200 -42.195965335594558 $133 -23.475277307831639 $127 $201 forward 7 unknown #
coedge $-1 $202 $122 $75 $130 forward $71 $-1 #
edge $-1 $132 23.475277307831639 $203 42.195965335594558 $129 $204 forward 7 unknown #
coedge $-1 $123 $76 $122 $191 reversed $45 $-1 #
vertex $-1 $130 $205 #
vertex $-1 $128 $206 #
straight-curve $-1 -56.310898629544738 0 11.534952960410342 0 -1 0 I I #
face $-1 $-1 $147 $17 $-1 $207 forward single #
loop $-1 $-1 $208 $78 #
plane-surface $-1 0 -34.426324756064346 0 0 1 0 0 0 1 forward_v I I I I #
coedge $-1 $209 $210 $211 $212 reversed $79 $-1 #
coedge $-1 $213 $81 $83 $145 forward $49 $-1 #
coedge $-1 $81 $213 $209 $214 forward $49 $-1 #
coedge $-1 $211 $84 $81 $142 forward $147 $-1 #
edge $-1 $149 -43.99680964997097 $215 -12.770351227467643 $141 $216 forward 7 unknown #
coedge $-1 $217 $218 $82 $144 forward $136 $-1 #
edge $-1 $219 -58.645734717219128 $148 -52.463772648850224 $143 $220 forward 7 unknown #
edge $-1 $149 -11.665856299238925 $219 0 $83 $221 forward 7 unknown #
coedge $-1 $84 $211 $217 $222 forward $147 $-1 #
loop $-1 $-1 $211 $135 #
vertex $-1 $144 $223 #
vertex $-1 $85 $224 #
straight-curve $-1 72.380390088690277 -56.97384609871812 16.15128041047474 0 1 0 I I #
coedge $-1 $151 $151 $-1 $225 reversed $88 $-1 #
edge $-1 $226 0 $226 6.2831853071796004 $89 $227 forward 7 unknown #
vertex $-1 $92 $228 #
ellipse-curve $-1 50.075776929759343 -29.479721169265108 13.06029937629029 0 -0.52991927123019833 0.84804809178421925 2 0 0 1 I I #
coedge $-1 $155 $155 $-1 $229 reversed $95 $-1 #
edge $-1 $230 0 $230 6.2831853071796004 $96 $231 forward 7 unknown #
vertex $-1 $99 $232 #
ellipse-curve $-1 63.458544825117912 -29.479721169265108 13.06029937629029 0 -0.52991927123019833 0.84804809178421925 2 0 0 1 I I #
face $-1 $-1 $115 $15 $-1 $233 reversed single #
loop $-1 $-1 $175 $100 #
plane-surface $-1 0 34.426324756064346 0 0 -1 0 0 0 -1 forward_v I I I I #
coedge $-1 $234 $173 $176 $235 forward $101 $-1 #
coedge $-1 $179 $103 $104 $167 reversed $63 $-1 #
coedge $-1 $173 $234 $103 $165 reversed $101 $-1 #
edge $-1 $180 -16.151280410474744 $236 16.151280410474744 $164 $237 forward 7 unknown #
coedge $-1 $105 $104 $234 $238 forward $41 $-1 #
edge $-1 $171 -75.031586657307656 $236 75.031586657307656 $163 $239 forward 7 unknown #
coedge $-1 $176 $175 $105 $169 reversed $160 $-1 #
edge $-1 $240 -75.031586657307656 $170 75.031586657307656 $168 $241 forward 7 unknown #
vertex $-1 $107 $242 #
vertex $-1 $182 $243 #
straight-curve $-1 75.031586657307656 0 -16.151280410474744 0 -1 0 I I #
coedge $-1 $162 $164 $108 $174 reversed $101 $-1 #
edge $-1 $177 -34.426324756064346 $180 34.426324756064346 $173 $244 forward 7 unknown #
coedge $-1 $168 $109 $114 $183 forward $160 $-1 #
coedge $-1 $109 $168 $162 $235 reversed $160 $-1 #
vertex $-1 $110 $245 #
straight-curve $-1 0 34.426324756064346 16.151280410474744 -1 0 0 I I #
coedge $-1 $111 $163 $113 $182 reversed $63 $-1 #
vertex $-1 $174 $246 #
straight-curve $-1 0 -34.426324756064346 16.151280410474744 1 0 0 I I #
edge $-1 $116 -16.151280410474744 $171 16.151280410474744 $113 $247 forward 7 unknown #
edge $-1 $117 -16.151280410474744 $170 16.151280410474744 $114 $248 forward 7 unknown #
point $-1 75.031586657307656 -34.426324756064346 16.151280410474744 #
point $-1 75.031586657307656 34.426324756064346 16.151280410474744 #
face $-1 $-1 $195 $16 $-1 $249 reversed single #
loop $-1 $-1 $192 $119 #
plane-surface $-1 0 0 16.151280410474744 0 0 1 1 0 0 forward_v I I I I #
coedge $-1 $250 $251 $126 $198 forward $120 $-1 #
coedge $-1 $122 $202 $252 $253 reversed $71 $-1 #
edge $-1 $254 -9.2297220677534693 $132 -4.613394617689071 $122 $255 forward 7 unknown #
coedge $-1 $252 $256 $123 $193 forward $187 $-1 #
edge $-1 $196 -34.426324756064346 $254 34.426324756064346 $192 $257 forward 7 unknown #
coedge $-1 $199 $124 $256 $258 reversed $195 $-1 #
loop $-1 $-1 $124 $186 #
vertex $-1 $125 $259 #
straight-curve $-1 -56.310898629544738 -34.426324756064346 6.921558342721271 0 0 1 I I #
edge $-1 $203 -34.426324756064346 $200 34.426324756064346 $189 $260 forward 7 unknown #
coedge $-1 $127 $194 $250 $261 forward $195 $-1 #
vertex $-1 $198 $262 #
straight-curve $-1 -32.835621321713099 -34.426324756064346 11.534952960410342 1 0 0 I I #
coedge $-1 $190 $129 $251 $263 reversed $71 $-1 #
vertex $-1 $198 $264 #
straight-curve $-1 -32.835621321713099 34.426324756064346 11.534952960410342 -1 0 0 I I #
point $-1 -56.310898629544738 34.426324756064346 11.534952960410342 #
point $-1 -56.310898629544738 -34.426324756064346 11.534952960410342 #
plane-surface $-1 0 0 16.151280410474744 0 0 1 1 0 0 forward_v I I I I #
coedge $-1 $218 $217 $210 $265 forward $136 $-1 #
coedge $-1 $210 $138 $140 $214 reversed $79 $-1 #
coedge $-1 $138 $209 $208 $265 reversed $79 $-1 #
coedge $-1 $146 $141 $138 $212 forward $147 $-1 #
edge $-1 $215 -32.440728516252257 $266 -22.547521342653774 $211 $267 forward 7 unknown #
coedge $-1 $140 $139 $218 $268 reversed $49 $-1 #
edge $-1 $269 0 $215 11.665856299238925 $209 $270 forward 7 unknown #
vertex $-1 $142 $271 #
straight-curve $-1 28.383580438719306 -24.53311758246587 16.151280410474744 -1 0 0 I I #
coedge $-1 $208 $143 $146 $222 reversed $136 $-1 #
coedge $-1 $143 $208 $213 $268 forward $136 $-1 #
vertex $-1 $144 $272 #
straight-curve $-1 72.380390088690277 -34.426324756064346 68.615053059324964 0 0 1 I I #
straight-curve $-1 72.380390088690277 -34.426324756064346 9.9693183421058365 0 -0.84804809178421925 -0.52991927123019833 I I #
edge $-1 $266 41.153931666186949 $148 72.380390088690277 $217 $273 forward 7 unknown #
point $-1 72.380390088690277 -34.426324756064346 16.151280410474744 #
point $-1 72.380390088690277 -24.533117582465863 16.151280410474744 #
edge $-1 $274 1 $274 0 $151 $-1 forward 7 unknown #
vertex $-1 $152 $275 #
ellipse-curve $-1 50.075776929759343 -27.653895616625356 10.138367754040631 0 -0.52991927123019833 0.84804809178421925 2 0 0 1 I I #
point $-1 52.075776929759343 -29.479721169265112 13.060299376290295 #
edge $-1 $276 1 $276 0 $155 $-1 forward 7 unknown #
vertex $-1 $156 $277 #
ellipse-curve $-1 63.458544825117912 -27.653895616625356 10.138367754040631 0 -0.52991927123019833 0.84804809178421925 2 0 0 1 I I #
point $-1 65.458544825117912 -29.479721169265112 13.060299376290295 #
plane-surface $-1 75.031586657307656 0 0 -1 0 0 0 0 1 forward_v I I I I #
coedge $-1 $164 $162 $166 $238 reversed $101 $-1 #
edge $-1 $177 -16.151280410474744 $240 16.151280410474744 $176 $278 forward 7 unknown #
vertex $-1 $238 $279 #
straight-curve $-1 -75.031586657307656 -34.426324756064346 0 0 0 -1 I I #
edge $-1 $236 -34.426324756064346 $240 34.426324756064346 $234 $280 forward 7 unknown #
straight-curve $-1 0 -34.426324756064346 -16.151280410474744 -1 0 0 I I #
vertex $-1 $169 $281 #
straight-curve $-1 0 34.426324756064346 -16.151280410474744 1 0 0 I I #
point $-1 75.031586657307656 34.426324756064346 -16.151280410474744 #
point $-1 75.031586657307656 -34.426324756064346 -16.151280410474744 #
straight-curve $-1 -75.031586657307656 0 16.151280410474744 0 -1 0 I I #
point $-1 -75.031586657307656 34.426324756064346 16.151280410474744 #
point $-1 -75.031586657307656 -34.426324756064346 16.151280410474744 #
straight-curve $-1 75.031586657307656 -34.426324756064346 0 0 0 -1 I I #
straight-curve $-1 75.031586657307656 34.426324756064346 0 0 0 -1 I I #
plane-surface $-1 0 -34.426324756064346 0 0 1 0 0 0 1 forward_v I I I I #
coedge $-1 $282 $189 $199 $261 reversed $120 $-1 #
coedge $-1 $189 $282 $202 $263 forward $120 $-1 #
coedge $-1 $283 $192 $190 $253 forward $187 $-1 #
edge $-1 $254 56.310898629544738 $284 75.031586657307656 $190 $285 forward 7 unknown #
vertex $-1 $253 $286 #
straight-curve $-1 -56.310898629544738 34.426324756064346 6.921558342721271 0 0 -1 I I #
coedge $-1 $192 $283 $194 $258 forward $187 $-1 #
straight-curve $-1 -56.310898629544738 0 16.151280410474744 0 1 0 I I #
edge $-1 $287 -75.031586657307656 $196 -56.310898629544738 $194 $288 forward 7 unknown #
point $-1 -56.310898629544738 -34.426324756064346 16.15128041047474 #
straight-curve $-1 -75.031586657307656 0 11.534952960410342 0 -1 0 I I #
edge $-1 $287 -16.151280410474744 $200 -11.534952960410342 $250 $289 forward 7 unknown #
point $-1 -75.031586657307656 -34.426324756064346 11.534952960410342 #
edge $-1 $284 -16.151280410474744 $203 -11.534952960410342 $202 $290 forward 7 unknown #
point $-1 -75.031586657307656 34.426324756064346 11.534952960410342 #
edge $-1 $266 52.463772648850224 $269 58.645734717219128 $208 $291 forward 7 unknown #
vertex $-1 $222 $292 #
straight-curve $-1 41.153931666186949 -56.97384609871812 16.15128041047474 0 -1 0 I I #
edge $-1 $269 12.770351227467643 $219 43.99680964997097 $218 $293 forward 7 unknown #
vertex $-1 $268 $294 #
straight-curve $-1 41.153931666186949 -34.426324756064346 9.9693183421058365 0 0.84804809178421925 0.52991927123019833 I I #
point $-1 41.153931666186949 -24.533117582465863 16.151280410474744 #
point $-1 72.380390088690277 -34.426324756064346 9.9693183421058365 #
straight-curve $-1 0 -34.426324756064346 16.151280410474744 1 0 0 I I #
vertex $-1 $225 $295 #
point $-1 52.075776929759343 -27.653895616625356 10.138367754040631 #
vertex $-1 $229 $296 #
point $-1 65.458544825117912 -27.653895616625356 10.138367754040631 #
straight-curve $-1 -75.031586657307656 34.426324756064346 0 0 0 -1 I I #
point $-1 -75.031586657307656 -34.426324756064346 -16.151280410474744 #
straight-curve $-1 -75.031586657307656 0 -16.151280410474744 0 1 0 I I #
point $-1 -75.031586657307656 34.426324756064346 -16.151280410474744 #
coedge $-1 $251 $250 $283 $297 reversed $120 $-1 #
coedge $-1 $256 $252 $282 $297 forward $187 $-1 #
vertex $-1 $253 $298 #
straight-curve $-1 0 34.426324756064346 16.151280410474744 -1 0 0 I I #
point $-1 -56.310898629544738 34.426324756064346 16.15128041047474 #
vertex $-1 $297 $299 #
straight-curve $-1 0 -34.426324756064346 16.151280410474744 1 0 0 I I #
straight-curve $-1 -75.031586657307656 -34.426324756064346 0 0 0 -1 I I #
straight-curve $-1 -75.031586657307656 34.426324756064346 0 0 0 -1 I I #
straight-curve $-1 41.153931666186949 -34.426324756064346 68.615053059324964 0 0 -1 I I #
point $-1 41.153931666186949 -34.426324756064346 16.151280410474744 #
straight-curve $-1 28.383580438719306 -34.426324756064346 9.9693183421058329 1 0 0 I I #
point $-1 41.153931666186949 -34.426324756064346 9.9693183421058365 #
point $-1 50.075776929759343 -26.594057074164958 8.442271570472192 #
point $-1 63.458544825117912 -26.594057074164958 8.442271570472192 #
edge $-1 $284 -34.426324756064346 $287 34.426324756064346 $282 $300 forward 7 unknown #
point $-1 -75.031586657307656 34.426324756064346 16.151280410474744 #
point $-1 -75.031586657307656 -34.426324756064346 16.151280410474744 #
straight-curve $-1 -75.031586657307656 0 16.151280410474744 0 -1 0 I I #
End-of-ACIS-data 