500 0 10 0           
7 Unknown 11 ACIS 5.0 NT 24 Thu Mar 25 18:25:46 1999 
-1 9.9999999999999995e-007 1e-010 
body $-1 $10 $-1 $11 #
body $-1 $12 $-1 $13 #
body $-1 $14 $-1 $15 #
body $-1 $16 $-1 $17 #
body $-1 $18 $-1 $19 #
body $-1 $20 $-1 $21 #
body $-1 $22 $-1 $23 #
body $-1 $24 $-1 $25 #
body $-1 $26 $-1 $27 #
body $-1 $28 $-1 $29 #
lump $-1 $-1 $30 $0 #
transform $-1 1 0 0 0 1 0 0 0 1 73.290810876796769 39.347370816344814 13.751946327886667 1 rotate no_reflect no_shear #
lump $-1 $-1 $31 $1 #
transform $-1 1 0 0 0 1 0 0 0 1 73.290810876796769 39.347370816344814 13.751946327886667 1 rotate no_reflect no_shear #
lump $-1 $-1 $32 $2 #
transform $-1 1 0 0 0 1 0 0 0 1 73.290810876796769 39.347370816344814 13.751946327886667 1 rotate no_reflect no_shear #
lump $-1 $-1 $33 $3 #
transform $-1 1 0 0 0 1 0 0 0 1 73.290810876796769 39.347370816344814 13.751946327886667 1 rotate no_reflect no_shear #
lump $-1 $-1 $34 $4 #
transform $-1 1 0 0 0 1 0 0 0 1 73.290810876796769 39.347370816344814 13.751946327886667 1 rotate no_reflect no_shear #
lump $-1 $-1 $35 $5 #
transform $-1 1 0 0 0 1 0 0 0 1 73.290810876796769 39.347370816344814 13.751946327886667 1 rotate no_reflect no_shear #
lump $-1 $-1 $36 $6 #
transform $-1 1 0 0 0 1 0 0 0 1 73.290810876796769 39.347370816344814 13.751946327886667 1 rotate no_reflect no_shear #
lump $-1 $-1 $37 $7 #
transform $-1 1 0 0 0 1 0 0 0 1 73.290810876796769 39.347370816344814 13.751946327886667 1 rotate no_reflect no_shear #
lump $-1 $-1 $38 $8 #
transform $-1 1 0 0 0 1 0 0 0 1 73.290810876796769 39.347370816344814 13.751946327886667 1 rotate no_reflect no_shear #
lump $-1 $-1 $39 $9 #
transform $-1 1 0 0 0 1 0 0 0 1 73.290810876796769 39.347370816344814 13.751946327886667 1 rotate no_reflect no_shear #
shell $-1 $-1 $-1 $40 $-1 $10 #
shell $-1 $-1 $-1 $41 $-1 $12 #
shell $-1 $-1 $-1 $42 $-1 $14 #
shell $-1 $-1 $-1 $43 $-1 $16 #
shell $-1 $-1 $-1 $44 $-1 $18 #
shell $-1 $-1 $-1 $45 $-1 $20 #
shell $-1 $-1 $-1 $46 $-1 $22 #
shell $-1 $-1 $-1 $47 $-1 $24 #
shell $-1 $-1 $-1 $48 $-1 $26 #
shell $-1 $-1 $-1 $49 $-1 $28 #
face $-1 $50 $51 $30 $-1 $52 forward single #
face $-1 $53 $54 $31 $-1 $55 forward single #
face $-1 $56 $57 $32 $-1 $58 reversed single #
face $-1 $59 $60 $33 $-1 $61 forward single #
face $-1 $62 $63 $34 $-1 $64 reversed single #
face $-1 $65 $66 $35 $-1 $67 forward single #
face $-1 $68 $69 $36 $-1 $70 forward single #
face $-1 $71 $72 $37 $-1 $73 reversed single #
face $-1 $74 $75 $38 $-1 $76 forward single #
face $-1 $77 $78 $39 $-1 $79 forward single #
face $-1 $80 $81 $30 $-1 $82 reversed single #
loop $-1 $-1 $83 $40 #
plane-surface $-1 0 0 13.751946327886667 0 0 1 1 0 0 forward_v I I I I #
face $-1 $84 $85 $31 $-1 $86 reversed single #
loop $-1 $-1 $87 $41 #
plane-surface $-1 -73.290810876796769 0 0 1 0 0 0 0 -1 forward_v I I I I #
face $-1 $88 $89 $32 $-1 $90 reversed single #
loop $-1 $-1 $91 $42 #
plane-surface $-1 -26.105473507186773 -159.42000712326643 90.814637677960533 -1 0 0 0 -0.81915205242281985 0.57357642473473569 forward_v I I I I #
face $-1 $92 $93 $33 $-1 $94 forward single #
loop $-1 $95 $96 $43 #
cone-surface $-1 -42.657906987786234 -35.108243206572418 8.9963630403725823 0 0.81915205242281985 -0.57357642473473569 1.5 0 0 1 I I 0 1 1.5 forward I I I I #
face $-1 $97 $98 $34 $-1 $99 reversed single #
loop $-1 $-1 $100 $44 #
plane-surface $-1 -16.351245628658035 90.123406234704049 166.07004209541171 1 0 0 0 -0.71933980857756763 -0.69465836192734942 forward_v I I I I #
face $-1 $101 $102 $35 $-1 $103 forward single #
loop $-1 $104 $105 $45 #
cone-surface $-1 -10.630050076109875 34.233576816839275 8.6074223167561179 0 -0.71933980857756763 -0.69465836192734942 2 0 0 1 I I 0 1 2 forward I I I I #
face $-1 $106 $107 $36 $-1 $108 forward single #
loop $-1 $109 $110 $46 #
cone-surface $-1 -2.0482567472876383 34.233576816839275 8.6074223167561179 0 -0.71933980857756763 -0.69465836192734942 2 0 0 1 I I 0 1 2 forward I I I I #
face $-1 $111 $112 $37 $-1 $113 reversed single #
loop $-1 $-1 $114 $47 #
plane-surface $-1 10.407531603150574 90.123406234704049 166.07004209541171 1 0 0 0 -0.71933980857756763 -0.69465836192734942 forward_v I I I I #
face $-1 $115 $116 $38 $-1 $117 forward single #
loop $-1 $118 $119 $48 #
cone-surface $-1 16.128727155698726 34.233576816839275 8.6074223167561179 0 -0.71933980857756763 -0.69465836192734942 2 0 0 1 I I 0 1 2 forward I I I I #
face $-1 $120 $121 $39 $-1 $122 forward single #
loop $-1 $123 $124 $49 #
cone-surface $-1 24.71052048452097 34.233576816839275 8.6074223167561179 0 -0.71933980857756763 -0.69465836192734942 2 0 0 1 I I 0 1 2 forward I I I I #
face $-1 $125 $126 $30 $-1 $127 reversed single #
loop $-1 $-1 $128 $50 #
plane-surface $-1 0 0 -13.751946327886667 0 0 1 1 0 0 forward_v I I I I #
coedge $-1 $129 $130 $131 $132 forward $51 $-1 #
face $-1 $133 $134 $31 $-1 $135 forward single #
loop $-1 $-1 $136 $53 #
plane-surface $-1 0 39.347370816344814 0 0 -1 0 0 0 -1 forward_v I I I I #
coedge $-1 $137 $138 $139 $140 forward $54 $-1 #
face $-1 $141 $142 $32 $-1 $143 reversed single #
loop $-1 $-1 $144 $56 #
plane-surface $-1 -42.657906987786234 -39.347370816344821 6.7388751407149954 0 -0.81915205242281985 0.57357642473473569 1 0 0 forward_v I I I I #
coedge $-1 $145 $146 $147 $148 reversed $57 $-1 #
face $-1 $-1 $149 $33 $-1 $150 forward single #
loop $-1 $151 $152 $59 #
cone-surface $-1 -42.657906987786234 -32.710054139006445 7.3171330278932771 0 0.81915205242281985 -0.57357642473473569 0.75 0 0 1 I I -0.70710678118654757 0.70710678118654757 0.75 forward I I I I #
loop $-1 $-1 $153 $43 #
coedge $-1 $96 $96 $154 $155 reversed $60 $-1 #
face $-1 $156 $157 $34 $-1 $158 reversed single #
loop $-1 $-1 $159 $62 #
plane-surface $-1 -6.33915341169876 -15.318589498515351 64.245892839406096 0 0.71933980857756763 0.69465836192734942 1 0 0 forward_v I I I I #
coedge $-1 $160 $161 $162 $163 reversed $63 $-1 #
face $-1 $-1 $164 $35 $-1 $165 forward single #
loop $-1 $166 $167 $65 #
cone-surface $-1 -10.630050076109875 31.352705073926678 5.82539687899855 0 -0.71933980857756763 -0.69465836192734942 1 0 0 1 I I -0.70710678118654746 0.70710678118654746 1 forward I I I I #
loop $-1 $-1 $168 $45 #
coedge $-1 $105 $105 $169 $170 reversed $66 $-1 #
face $-1 $-1 $171 $36 $-1 $172 forward single #
loop $-1 $173 $174 $68 #
cone-surface $-1 -2.0482567472876383 31.352705073926678 5.82539687899855 0 -0.71933980857756763 -0.69465836192734942 1 0 0 1 I I -0.70710678118654746 0.70710678118654746 1 forward I I I I #
loop $-1 $-1 $175 $46 #
coedge $-1 $110 $110 $176 $177 reversed $69 $-1 #
face $-1 $178 $179 $37 $-1 $180 reversed single #
loop $-1 $-1 $181 $71 #
plane-surface $-1 20.419623820109848 -15.318589498515351 64.245892839406096 0 0.71933980857756763 0.69465836192734942 1 0 0 forward_v I I I I #
coedge $-1 $182 $183 $184 $185 reversed $72 $-1 #
face $-1 $-1 $186 $38 $-1 $187 forward single #
loop $-1 $188 $189 $74 #
cone-surface $-1 16.128727155698726 31.352705073926678 5.82539687899855 0 -0.71933980857756763 -0.69465836192734942 1 0 0 1 I I -0.70710678118654746 0.70710678118654746 1 forward I I I I #
loop $-1 $-1 $190 $48 #
coedge $-1 $119 $119 $191 $192 reversed $75 $-1 #
face $-1 $-1 $193 $39 $-1 $194 forward single #
loop $-1 $195 $196 $77 #
cone-surface $-1 24.71052048452097 31.352705073926678 5.82539687899855 0 -0.71933980857756763 -0.69465836192734942 1 0 0 1 I I -0.70710678118654746 0.70710678118654746 1 forward I I I I #
loop $-1 $-1 $197 $49 #
coedge $-1 $124 $124 $198 $199 reversed $78 $-1 #
face $-1 $200 $201 $30 $-1 $202 reversed single #
loop $-1 $-1 $203 $80 #
plane-surface $-1 0 -39.347370816344814 0 0 1 0 0 0 1 forward_v I I I I #
coedge $-1 $204 $205 $206 $207 forward $81 $-1 #
coedge $-1 $208 $83 $209 $210 forward $51 $-1 #
coedge $-1 $83 $208 $211 $212 forward $51 $-1 #
coedge $-1 $213 $214 $83 $132 reversed $215 $-1 #
edge $-1 $216 -39.347370816344814 $217 39.347370816344814 $131 $218 forward 7 unknown #
face $-1 $219 $220 $31 $-1 $221 reversed single #
loop $-1 $-1 $139 $84 #
plane-surface $-1 -80.331046081002299 0 -9.9002933773709927 0 0 1 1 0 0 forward_v I I I I #
coedge $-1 $222 $223 $138 $224 forward $85 $-1 #
coedge $-1 $225 $87 $226 $227 reversed $54 $-1 #
coedge $-1 $87 $225 $136 $224 reversed $54 $-1 #
coedge $-1 $228 $229 $87 $140 reversed $134 $-1 #
edge $-1 $230 -39.347370816344814 $231 39.347370816344814 $139 $232 forward 7 unknown #
face $-1 $233 $234 $32 $-1 $235 reversed single #
loop $-1 $-1 $236 $88 #
plane-surface $-1 -59.210340468385695 -159.42000712326643 90.814637677960533 1 0 0 0 0.81915205242281985 -0.57357642473473569 forward_v I I I I #
coedge $-1 $237 $238 $239 $240 reversed $89 $-1 #
coedge $-1 $146 $91 $241 $242 reversed $57 $-1 #
coedge $-1 $91 $145 $237 $243 reversed $57 $-1 #
coedge $-1 $239 $244 $91 $148 forward $245 $-1 #
edge $-1 $246 40.362632745288401 $247 45.273237908335481 $147 $248 forward 7 unknown #
loop $-1 $-1 $154 $92 #
plane-surface $-1 -42.657906987786234 -39.347370816344821 6.7388751407149954 0 -0.81915205242281985 0.57357642473473569 1 0 0 forward_v I I I I #
loop $-1 $-1 $249 $59 #
coedge $-1 $152 $152 $153 $250 reversed $93 $-1 #
coedge $-1 $153 $153 $152 $250 forward $95 $-1 #
coedge $-1 $154 $154 $96 $155 forward $149 $-1 #
edge $-1 $251 9.7007090055335263e-016 $251 6.2831853071796013 $154 $252 forward 7 unknown #
face $-1 $253 $254 $34 $-1 $255 forward single #
loop $-1 $-1 $256 $97 #
plane-surface $-1 3.6729388052605145 90.123406234704049 166.07004209541171 -1 0 0 0 0.71933980857756763 0.69465836192734942 forward_v I I I I #
coedge $-1 $257 $258 $259 $260 reversed $98 $-1 #
coedge $-1 $161 $100 $261 $262 reversed $63 $-1 #
coedge $-1 $100 $160 $257 $263 reversed $63 $-1 #
coedge $-1 $259 $264 $100 $163 forward $254 $-1 #
edge $-1 $265 5.7143323010072109 $266 11.618856431348227 $162 $267 forward 7 unknown #
loop $-1 $-1 $169 $101 #
plane-surface $-1 -6.33915341169876 -15.318589498515351 64.245892839406096 0 0.71933980857756763 0.69465836192734942 1 0 0 forward_v I I I I #
loop $-1 $-1 $268 $65 #
coedge $-1 $167 $167 $168 $269 reversed $102 $-1 #
coedge $-1 $168 $168 $167 $269 forward $104 $-1 #
coedge $-1 $169 $169 $105 $170 forward $164 $-1 #
edge $-1 $270 1.9167062832294437e-015 $270 6.2831853071796022 $169 $271 forward 7 unknown #
loop $-1 $-1 $176 $106 #
plane-surface $-1 -6.33915341169876 -15.318589498515351 64.245892839406096 0 0.71933980857756763 0.69465836192734942 1 0 0 forward_v I I I I #
loop $-1 $-1 $272 $68 #
coedge $-1 $174 $174 $175 $273 reversed $107 $-1 #
coedge $-1 $175 $175 $174 $273 forward $109 $-1 #
coedge $-1 $176 $176 $110 $177 forward $171 $-1 #
edge $-1 $274 1.9167062832294437e-015 $274 6.2831853071796022 $176 $275 forward 7 unknown #
face $-1 $276 $277 $37 $-1 $278 forward single #
loop $-1 $-1 $279 $111 #
plane-surface $-1 30.431716037069123 90.123406234704049 166.07004209541171 -1 0 0 0 0.71933980857756763 0.69465836192734942 forward_v I I I I #
coedge $-1 $280 $281 $282 $283 reversed $112 $-1 #
coedge $-1 $183 $114 $284 $285 reversed $72 $-1 #
coedge $-1 $114 $182 $280 $286 reversed $72 $-1 #
coedge $-1 $282 $287 $114 $185 forward $277 $-1 #
edge $-1 $288 5.7143323010072109 $289 11.618856431348227 $184 $290 forward 7 unknown #
loop $-1 $-1 $191 $115 #
plane-surface $-1 20.419623820109848 -15.318589498515351 64.245892839406096 0 0.71933980857756763 0.69465836192734942 1 0 0 forward_v I I I I #
loop $-1 $-1 $291 $74 #
coedge $-1 $189 $189 $190 $292 reversed $116 $-1 #
coedge $-1 $190 $190 $189 $292 forward $118 $-1 #
coedge $-1 $191 $191 $119 $192 forward $186 $-1 #
edge $-1 $293 1.9167062832294437e-015 $293 6.2831853071796022 $191 $294 forward 7 unknown #
loop $-1 $-1 $198 $120 #
plane-surface $-1 20.419623820109848 -15.318589498515351 64.245892839406096 0 0.71933980857756763 0.69465836192734942 1 0 0 forward_v I I I I #
loop $-1 $-1 $295 $77 #
coedge $-1 $196 $196 $197 $296 reversed $121 $-1 #
coedge $-1 $197 $197 $196 $296 forward $123 $-1 #
coedge $-1 $198 $198 $124 $199 forward $193 $-1 #
edge $-1 $297 1.9167062832294437e-015 $297 6.2831853071796022 $198 $298 forward 7 unknown #
face $-1 $299 $300 $30 $-1 $301 reversed single #
loop $-1 $-1 $302 $125 #
plane-surface $-1 -73.290810876796769 0 0 1 0 0 0 0 -1 forward_v I I I I #
coedge $-1 $303 $211 $304 $305 forward $126 $-1 #
coedge $-1 $306 $128 $303 $307 forward $81 $-1 #
coedge $-1 $128 $306 $308 $309 forward $81 $-1 #
coedge $-1 $214 $213 $128 $207 reversed $215 $-1 #
edge $-1 $310 -39.347370816344814 $311 39.347370816344814 $206 $312 forward 7 unknown #
coedge $-1 $130 $129 $313 $314 forward $51 $-1 #
coedge $-1 $315 $316 $129 $210 reversed $300 $-1 #
edge $-1 $217 -73.290810876796769 $317 73.290810876796769 $209 $318 forward 7 unknown #
coedge $-1 $203 $319 $130 $212 reversed $126 $-1 #
edge $-1 $320 -73.290810876796769 $216 73.290810876796769 $211 $321 forward 7 unknown #
coedge $-1 $206 $131 $319 $322 forward $215 $-1 #
coedge $-1 $131 $206 $315 $323 reversed $215 $-1 #
loop $-1 $-1 $213 $299 #
vertex $-1 $132 $324 #
vertex $-1 $132 $325 #
straight-curve $-1 73.290810876796769 0 13.751946327886667 0 1 0 I I #
face $-1 $326 $327 $31 $-1 $328 reversed single #
loop $-1 $-1 $329 $133 #
plane-surface $-1 -87.371281285207829 0 -11.82611985262883 1 0 0 0 0 -1 forward_v I I I I #
coedge $-1 $330 $136 $331 $332 reversed $85 $-1 #
coedge $-1 $136 $330 $228 $333 reversed $85 $-1 #
edge $-1 $230 9.9002933773709927 $334 13.751946327886667 $136 $335 forward 7 unknown #
coedge $-1 $138 $137 $336 $337 reversed $54 $-1 #
coedge $-1 $338 $339 $137 $227 forward $340 $-1 #
edge $-1 $341 -13.751946327886667 $231 -9.9002933773709927 $226 $342 forward 7 unknown #
coedge $-1 $343 $139 $223 $333 forward $134 $-1 #
coedge $-1 $139 $343 $338 $344 forward $134 $-1 #
vertex $-1 $224 $345 #
vertex $-1 $344 $346 #
straight-curve $-1 -73.290810876796769 0 -9.9002933773709927 0 -1 0 I I #
face $-1 $-1 $245 $32 $-1 $347 forward single #
loop $-1 $-1 $348 $141 #
plane-surface $-1 0 -39.347370816344814 0 0 1 0 0 0 1 forward_v I I I I #
coedge $-1 $349 $350 $351 $352 reversed $142 $-1 #
coedge $-1 $353 $144 $146 $243 forward $89 $-1 #
coedge $-1 $144 $353 $349 $354 forward $89 $-1 #
coedge $-1 $351 $147 $144 $240 forward $245 $-1 #
edge $-1 $247 4.7765200132936556 $355 37.881386974492578 $239 $356 forward 7 unknown #
coedge $-1 $357 $358 $145 $242 forward $234 $-1 #
edge $-1 $359 -38.668443698265264 $246 -31.655372511093599 $241 $360 forward 7 unknown #
edge $-1 $247 -8.5613790094634989 $359 -1.207859054955032e-014 $146 $361 forward 7 unknown #
coedge $-1 $147 $351 $357 $362 forward $245 $-1 #
loop $-1 $-1 $351 $233 #
vertex $-1 $242 $363 #
vertex $-1 $148 $364 #
straight-curve $-1 -26.105473507186773 -79.710003561633215 13.751946327886671 0 1 0 I I #
coedge $-1 $249 $249 $-1 $365 reversed $151 $-1 #
edge $-1 $366 0 $366 6.2831853071796004 $152 $367 forward 7 unknown #
vertex $-1 $155 $368 #
ellipse-curve $-1 -42.657906987786234 -36.892068234821274 10.245410734300835 0 -0.81915205242281985 0.57357642473473569 1.5 0 0 1 I I #
face $-1 $-1 $369 $34 $-1 $370 reversed single #
loop $-1 $-1 $162 $156 #
plane-surface $-1 0 0 13.751946327886667 0 0 1 1 0 0 forward_v I I I I #
coedge $-1 $371 $372 $373 $374 reversed $157 $-1 #
coedge $-1 $375 $159 $161 $263 forward $98 $-1 #
coedge $-1 $159 $375 $371 $376 forward $98 $-1 #
coedge $-1 $373 $162 $159 $260 forward $254 $-1 #
edge $-1 $266 -13.181668922808655 $377 6.8425155111098945 $259 $378 forward 7 unknown #
coedge $-1 $379 $380 $160 $262 forward $369 $-1 #
edge $-1 $381 -75.397388590419865 $265 -69.283074719819183 $261 $382 forward 7 unknown #
edge $-1 $266 70.194845203085379 $381 78.694741632689627 $161 $383 forward 7 unknown #
coedge $-1 $162 $373 $379 $384 forward $254 $-1 #
vertex $-1 $262 $385 #
vertex $-1 $163 $386 #
straight-curve $-1 -16.351245628658035 45.061703117352025 13.751946327886671 0 -1 0 I I #
coedge $-1 $268 $268 $-1 $387 reversed $166 $-1 #
edge $-1 $388 0 $388 6.2831853071796004 $167 $389 forward 7 unknown #
vertex $-1 $170 $390 #
ellipse-curve $-1 -10.630050076109875 36.395108751174305 10.69478939258634 0 0.71933980857756763 0.69465836192734942 2 0 0 1 I I #
coedge $-1 $272 $272 $-1 $391 reversed $173 $-1 #
edge $-1 $392 0 $392 6.2831853071796004 $174 $393 forward 7 unknown #
vertex $-1 $177 $394 #
ellipse-curve $-1 -2.0482567472876383 36.395108751174305 10.69478939258634 0 0.71933980857756763 0.69465836192734942 2 0 0 1 I I #
face $-1 $-1 $395 $37 $-1 $396 reversed single #
loop $-1 $-1 $184 $178 #
plane-surface $-1 0 0 13.751946327886667 0 0 1 1 0 0 forward_v I I I I #
coedge $-1 $397 $398 $399 $400 reversed $179 $-1 #
coedge $-1 $401 $181 $183 $286 forward $112 $-1 #
coedge $-1 $181 $401 $397 $402 forward $112 $-1 #
coedge $-1 $399 $184 $181 $283 forward $277 $-1 #
edge $-1 $289 0.19771969309564952 $403 20.221904127014199 $282 $404 forward 7 unknown #
coedge $-1 $405 $406 $182 $285 forward $395 $-1 #
edge $-1 $407 -75.397388590419865 $288 -69.283074719819183 $284 $408 forward 7 unknown #
edge $-1 $289 70.194845203085379 $407 78.694741632689627 $183 $409 forward 7 unknown #
coedge $-1 $184 $399 $405 $410 forward $277 $-1 #
vertex $-1 $185 $411 #
vertex $-1 $185 $412 #
straight-curve $-1 10.407531603150574 45.061703117352025 13.751946327886671 0 -1 0 I I #
coedge $-1 $291 $291 $-1 $413 reversed $188 $-1 #
edge $-1 $414 0 $414 6.2831853071796004 $189 $415 forward 7 unknown #
vertex $-1 $192 $416 #
ellipse-curve $-1 16.128727155698726 36.395108751174305 10.69478939258634 0 0.71933980857756763 0.69465836192734942 2 0 0 1 I I #
coedge $-1 $295 $295 $-1 $417 reversed $195 $-1 #
edge $-1 $418 0 $418 6.2831853071796004 $196 $419 forward 7 unknown #
vertex $-1 $199 $420 #
ellipse-curve $-1 24.71052048452097 36.395108751174305 10.69478939258634 0 0.71933980857756763 0.69465836192734942 2 0 0 1 I I #
face $-1 $-1 $215 $30 $-1 $421 reversed single #
loop $-1 $-1 $315 $200 #
plane-surface $-1 0 39.347370816344814 0 0 -1 0 0 0 -1 forward_v I I I I #
coedge $-1 $422 $313 $316 $423 forward $201 $-1 #
coedge $-1 $319 $203 $204 $307 reversed $126 $-1 #
coedge $-1 $313 $422 $203 $305 reversed $201 $-1 #
edge $-1 $320 -13.751946327886667 $424 13.751946327886667 $304 $425 forward 7 unknown #
coedge $-1 $205 $204 $422 $426 forward $81 $-1 #
edge $-1 $311 -73.290810876796769 $424 73.290810876796769 $303 $427 forward 7 unknown #
coedge $-1 $316 $315 $205 $309 reversed $300 $-1 #
edge $-1 $428 -73.290810876796769 $310 73.290810876796769 $308 $429 forward 7 unknown #
vertex $-1 $207 $430 #
vertex $-1 $322 $431 #
straight-curve $-1 73.290810876796769 0 -13.751946327886667 0 -1 0 I I #
coedge $-1 $302 $304 $208 $314 reversed $201 $-1 #
edge $-1 $317 -39.347370816344814 $320 39.347370816344814 $313 $432 forward 7 unknown #
coedge $-1 $308 $209 $214 $323 forward $300 $-1 #
coedge $-1 $209 $308 $302 $423 reversed $300 $-1 #
vertex $-1 $210 $433 #
straight-curve $-1 0 39.347370816344814 13.751946327886667 -1 0 0 I I #
coedge $-1 $211 $303 $213 $322 reversed $126 $-1 #
vertex $-1 $314 $434 #
straight-curve $-1 0 -39.347370816344814 13.751946327886667 1 0 0 I I #
edge $-1 $216 -13.751946327886667 $311 13.751946327886667 $213 $435 forward 7 unknown #
edge $-1 $217 -13.751946327886667 $310 13.751946327886667 $214 $436 forward 7 unknown #
point $-1 73.290810876796769 -39.347370816344814 13.751946327886667 #
point $-1 73.290810876796769 39.347370816344814 13.751946327886667 #
face $-1 $-1 $340 $31 $-1 $437 reversed single #
loop $-1 $-1 $336 $219 #
plane-surface $-1 0 0 -13.751946327886667 0 0 1 1 0 0 forward_v I I I I #
coedge $-1 $438 $439 $330 $440 forward $220 $-1 #
coedge $-1 $223 $222 $329 $440 reversed $85 $-1 #
coedge $-1 $336 $441 $222 $332 forward $327 $-1 #
edge $-1 $442 -87.371281285207829 $334 -73.290810876796769 $222 $443 forward 7 unknown #
edge $-1 $230 -7.0402352042055298 $444 7.0402352042055298 $223 $445 forward 7 unknown #
vertex $-1 $224 $446 #
straight-curve $-1 -73.290810876796769 39.347370816344814 0 0 0 -1 I I #
coedge $-1 $447 $331 $225 $337 forward $327 $-1 #
edge $-1 $334 -39.347370816344814 $341 39.347370816344814 $336 $448 forward 7 unknown #
coedge $-1 $449 $226 $229 $344 reversed $340 $-1 #
coedge $-1 $226 $449 $447 $450 reversed $340 $-1 #
loop $-1 $-1 $226 $326 #
vertex $-1 $450 $451 #
straight-curve $-1 -73.290810876796769 -39.347370816344814 0 0 0 1 I I #
coedge $-1 $229 $228 $439 $452 forward $134 $-1 #
edge $-1 $453 -7.0402352042055298 $231 7.0402352042055298 $338 $454 forward 7 unknown #
point $-1 -73.290810876796769 39.347370816344814 -9.9002933773709927 #
point $-1 -73.290810876796769 -39.347370816344814 -9.9002933773709927 #
plane-surface $-1 0 0 13.751946327886667 0 0 1 1 0 0 forward_v I I I I #
coedge $-1 $358 $357 $350 $455 forward $234 $-1 #
coedge $-1 $350 $236 $238 $354 reversed $142 $-1 #
coedge $-1 $236 $349 $348 $455 reversed $142 $-1 #
coedge $-1 $244 $239 $236 $352 forward $245 $-1 #
edge $-1 $355 -45.273237908335481 $456 -40.362632745288401 $351 $457 forward 7 unknown #
coedge $-1 $238 $237 $358 $458 reversed $89 $-1 #
edge $-1 $459 1.207859054955032e-014 $355 8.5613790094634989 $349 $460 forward 7 unknown #
vertex $-1 $240 $461 #
straight-curve $-1 -21.328953493893117 -34.436765653297734 13.751946327886667 -1 0 0 I I #
coedge $-1 $348 $241 $244 $362 reversed $234 $-1 #
coedge $-1 $241 $348 $353 $458 forward $234 $-1 #
vertex $-1 $242 $462 #
straight-curve $-1 -26.105473507186773 -39.347370816344814 45.407318838980267 0 0 1 I I #
straight-curve $-1 -26.105473507186773 -39.347370816344821 6.7388751407149954 0 -0.57357642473473569 -0.81915205242281985 I I #
edge $-1 $456 -59.210340468385695 $246 -26.105473507186773 $357 $463 forward 7 unknown #
point $-1 -26.105473507186773 -39.347370816344814 13.751946327886667 #
point $-1 -26.105473507186773 -34.436765653297734 13.751946327886667 #
edge $-1 $464 1 $464 0 $249 $-1 forward 7 unknown #
vertex $-1 $250 $465 #
ellipse-curve $-1 -42.657906987786234 -33.324418178323562 7.7473153464443287 0 -0.81915205242281985 0.57357642473473569 1.5 0 0 1 I I #
point $-1 -41.157906987786234 -36.892068234821274 10.245410734300837 #
loop $-1 $-1 $261 $253 #
plane-surface $-1 0 39.347370816344814 0 0 -1 0 0 0 -1 forward_v I I I I #
coedge $-1 $372 $256 $258 $376 reversed $157 $-1 #
coedge $-1 $256 $371 $466 $467 reversed $157 $-1 #
coedge $-1 $264 $259 $256 $374 forward $254 $-1 #
edge $-1 $377 -11.618856431348227 $468 -5.7143323010072109 $373 $469 forward 7 unknown #
coedge $-1 $258 $257 $380 $470 reversed $98 $-1 #
edge $-1 $471 -78.694741632689627 $377 -70.194845203085379 $371 $472 forward 7 unknown #
vertex $-1 $260 $473 #
straight-curve $-1 -3.16957670584938 33.44284668600379 13.751946327886678 1 0 0 I I #
coedge $-1 $466 $261 $264 $384 reversed $369 $-1 #
coedge $-1 $261 $466 $375 $470 forward $369 $-1 #
vertex $-1 $262 $474 #
straight-curve $-1 -16.351245628658035 39.347370816344814 83.035021047705854 0 0 1 I I #
straight-curve $-1 -16.351245628658035 -15.318589498515351 64.245892839406096 0 0.69465836192734942 -0.71933980857756763 I I #
edge $-1 $468 -3.6729388052605145 $265 16.351245628658035 $379 $475 forward 7 unknown #
point $-1 -16.351245628658035 39.347370816344814 13.751946327886667 #
point $-1 -16.351245628658035 33.442846686003797 13.751946327886671 #
edge $-1 $476 1 $476 0 $268 $-1 forward 7 unknown #
vertex $-1 $269 $477 #
ellipse-curve $-1 -10.630050076109875 32.072044882504244 6.5200552409258989 0 0.71933980857756763 0.69465836192734942 2 0 0 1 I I #
point $-1 -8.6300500761098746 36.395108751174305 10.694789392586335 #
edge $-1 $478 1 $478 0 $272 $-1 forward 7 unknown #
vertex $-1 $273 $479 #
ellipse-curve $-1 -2.0482567472876383 32.072044882504244 6.5200552409258989 0 0.71933980857756763 0.69465836192734942 2 0 0 1 I I #
point $-1 -0.048256747287638291 36.395108751174305 10.694789392586335 #
loop $-1 $-1 $284 $276 #
plane-surface $-1 0 39.347370816344814 0 0 -1 0 0 0 -1 forward_v I I I I #
coedge $-1 $398 $279 $281 $402 reversed $179 $-1 #
coedge $-1 $279 $397 $480 $481 reversed $179 $-1 #
coedge $-1 $287 $282 $279 $400 forward $277 $-1 #
edge $-1 $403 -11.618856431348227 $482 -5.7143323010072109 $399 $483 forward 7 unknown #
coedge $-1 $281 $280 $406 $484 reversed $112 $-1 #
edge $-1 $485 -78.694741632689627 $403 -70.194845203085379 $397 $486 forward 7 unknown #
vertex $-1 $283 $487 #
straight-curve $-1 10.209811910054924 33.44284668600379 13.751946327886678 1 0 0 I I #
coedge $-1 $480 $284 $287 $410 reversed $395 $-1 #
coedge $-1 $284 $480 $401 $484 forward $395 $-1 #
vertex $-1 $285 $488 #
straight-curve $-1 10.407531603150574 39.347370816344814 83.035021047705854 0 0 1 I I #
straight-curve $-1 10.407531603150574 -15.318589498515351 64.245892839406096 0 0.69465836192734942 -0.71933980857756763 I I #
edge $-1 $482 -30.431716037069123 $288 -10.407531603150574 $405 $489 forward 7 unknown #
point $-1 10.407531603150574 39.347370816344814 13.751946327886667 #
point $-1 10.407531603150574 33.442846686003797 13.751946327886671 #
edge $-1 $490 1 $490 0 $291 $-1 forward 7 unknown #
vertex $-1 $292 $491 #
ellipse-curve $-1 16.128727155698726 32.072044882504244 6.5200552409258989 0 0.71933980857756763 0.69465836192734942 2 0 0 1 I I #
point $-1 18.128727155698726 36.395108751174305 10.694789392586335 #
edge $-1 $492 1 $492 0 $295 $-1 forward 7 unknown #
vertex $-1 $296 $493 #
ellipse-curve $-1 24.71052048452097 32.072044882504244 6.5200552409258989 0 0.71933980857756763 0.69465836192734942 2 0 0 1 I I #
point $-1 26.71052048452097 36.395108751174305 10.694789392586335 #
plane-surface $-1 73.290810876796769 0 0 -1 0 0 0 0 1 forward_v I I I I #
coedge $-1 $304 $302 $306 $426 reversed $201 $-1 #
edge $-1 $317 -13.751946327886667 $428 13.751946327886667 $316 $494 forward 7 unknown #
vertex $-1 $426 $495 #
straight-curve $-1 -73.290810876796769 -39.347370816344814 0 0 0 -1 I I #
edge $-1 $424 -39.347370816344814 $428 39.347370816344814 $422 $496 forward 7 unknown #
straight-curve $-1 0 -39.347370816344814 -13.751946327886667 -1 0 0 I I #
vertex $-1 $309 $497 #
straight-curve $-1 0 39.347370816344814 -13.751946327886667 1 0 0 I I #
point $-1 73.290810876796769 39.347370816344814 -13.751946327886667 #
point $-1 73.290810876796769 -39.347370816344814 -13.751946327886667 #
straight-curve $-1 -73.290810876796769 0 13.751946327886667 0 -1 0 I I #
point $-1 -73.290810876796769 39.347370816344814 13.751946327886667 #
point $-1 -73.290810876796769 -39.347370816344814 13.751946327886667 #
straight-curve $-1 73.290810876796769 -39.347370816344814 0 0 0 -1 I I #
straight-curve $-1 73.290810876796769 39.347370816344814 0 0 0 -1 I I #
plane-surface $-1 0 -39.347370816344814 0 0 1 0 0 0 1 forward_v I I I I #
coedge $-1 $498 $329 $441 $499 reversed $220 $-1 #
coedge $-1 $329 $498 $343 $452 reversed $220 $-1 #
edge $-1 $444 -1.9258264752578373 $442 1.9258264752578373 $330 $500 forward 7 unknown #
coedge $-1 $331 $447 $438 $499 forward $327 $-1 #
vertex $-1 $332 $501 #
straight-curve $-1 0 39.347370816344814 -13.751946327886667 1 0 0 I I #
vertex $-1 $333 $502 #
straight-curve $-1 -80.331046081002299 39.347370816344814 -9.9002933773709927 -1 0 0 I I #
point $-1 -73.290810876796769 39.347370816344814 -13.751946327886667 #
coedge $-1 $441 $336 $339 $450 forward $327 $-1 #
straight-curve $-1 -73.290810876796769 0 -13.751946327886667 0 -1 0 I I #
coedge $-1 $339 $338 $498 $503 forward $340 $-1 #
edge $-1 $341 -7.0402352042055298 $504 7.0402352042055298 $339 $505 forward 7 unknown #
point $-1 -73.290810876796769 -39.347370816344814 -13.751946327886667 #
edge $-1 $444 -39.347370816344814 $453 39.347370816344814 $439 $506 forward 7 unknown #
vertex $-1 $452 $507 #
straight-curve $-1 -80.331046081002299 -39.347370816344814 -9.9002933773709927 1 0 0 I I #
edge $-1 $456 31.655372511093599 $459 38.668443698265264 $348 $508 forward 7 unknown #
vertex $-1 $362 $509 #
straight-curve $-1 -59.210340468385695 -79.710003561633215 13.751946327886671 0 -1 0 I I #
edge $-1 $459 -37.881386974492578 $359 -4.7765200132936556 $358 $510 forward 7 unknown #
vertex $-1 $458 $511 #
straight-curve $-1 -59.210340468385695 -39.347370816344821 6.7388751407149954 0 0.57357642473473569 0.81915205242281985 I I #
point $-1 -59.210340468385695 -34.436765653297734 13.751946327886667 #
point $-1 -26.105473507186773 -39.347370816344814 6.7388751407150052 #
straight-curve $-1 0 -39.347370816344814 13.751946327886667 1 0 0 I I #
vertex $-1 $365 $512 #
point $-1 -41.157906987786234 -33.324418178323562 7.7473153464443287 #
coedge $-1 $380 $379 $372 $467 forward $369 $-1 #
edge $-1 $468 69.283074719819183 $471 75.397388590419865 $466 $513 forward 7 unknown #
vertex $-1 $384 $514 #
straight-curve $-1 3.6729388052605145 45.061703117352025 13.751946327886671 0 1 0 I I #
edge $-1 $471 -6.8425155111098945 $381 13.181668922808655 $380 $515 forward 7 unknown #
vertex $-1 $470 $516 #
straight-curve $-1 3.6729388052605145 -15.318589498515351 64.245892839406096 0 -0.69465836192734942 0.71933980857756763 I I #
point $-1 3.6729388052605145 33.442846686003797 13.751946327886671 #
point $-1 -16.351245628658035 39.347370816344814 7.6376324572859957 #
straight-curve $-1 0 39.347370816344814 13.751946327886667 -1 0 0 I I #
vertex $-1 $387 $517 #
point $-1 -8.6300500761098746 32.072044882504244 6.5200552409258989 #
vertex $-1 $391 $518 #
point $-1 -0.048256747287638291 32.072044882504244 6.5200552409258989 #
coedge $-1 $406 $405 $398 $481 forward $395 $-1 #
edge $-1 $482 69.283074719819183 $485 75.397388590419865 $480 $519 forward 7 unknown #
vertex $-1 $410 $520 #
straight-curve $-1 30.431716037069123 45.061703117352025 13.751946327886671 0 1 0 I I #
edge $-1 $485 -20.221904127014199 $407 -0.19771969309564952 $406 $521 forward 7 unknown #
vertex $-1 $484 $522 #
straight-curve $-1 30.431716037069123 -15.318589498515351 64.245892839406096 0 -0.69465836192734942 0.71933980857756763 I I #
point $-1 30.431716037069123 33.442846686003797 13.751946327886671 #
point $-1 10.407531603150574 39.347370816344814 7.6376324572859957 #
straight-curve $-1 0 39.347370816344814 13.751946327886667 -1 0 0 I I #
vertex $-1 $413 $523 #
point $-1 18.128727155698726 32.072044882504244 6.5200552409258989 #
vertex $-1 $417 $524 #
point $-1 26.71052048452097 32.072044882504244 6.5200552409258989 #
straight-curve $-1 -73.290810876796769 39.347370816344814 0 0 0 -1 I I #
point $-1 -73.290810876796769 -39.347370816344814 -13.751946327886667 #
straight-curve $-1 -73.290810876796769 0 -13.751946327886667 0 1 0 I I #
point $-1 -73.290810876796769 39.347370816344814 -13.751946327886667 #
coedge $-1 $439 $438 $449 $503 reversed $220 $-1 #
edge $-1 $504 -39.347370816344814 $442 39.347370816344814 $438 $525 forward 7 unknown #
straight-curve $-1 -87.371281285207829 39.347370816344814 -11.82611985262883 0 0 -1 I I #
point $-1 -87.371281285207829 39.347370816344814 -13.751946327886667 #
point $-1 -87.371281285207829 39.347370816344814 -9.9002933773709927 #
edge $-1 $453 -1.9258264752578373 $504 1.9258264752578373 $498 $526 forward 7 unknown #
vertex $-1 $499 $527 #
straight-curve $-1 -80.331046081002299 -39.347370816344814 -13.751946327886667 -1 0 0 I I #
straight-curve $-1 -87.371281285207829 0 -9.9002933773709927 0 -1 0 I I #
point $-1 -87.371281285207829 -39.347370816344814 -9.9002933773709927 #
straight-curve $-1 -59.210340468385695 -39.347370816344814 45.407318838980267 0 0 -1 I I #
point $-1 -59.210340468385695 -39.347370816344814 13.751946327886667 #
straight-curve $-1 -21.328953493893117 -39.347370816344814 6.7388751407150167 1 0 0 I I #
point $-1 -59.210340468385695 -39.347370816344814 6.7388751407150052 #
point $-1 -42.657906987786234 -32.095690099689328 6.8869507093422255 #
straight-curve $-1 3.6729388052605145 39.347370816344814 83.035021047705854 0 0 -1 I I #
point $-1 3.6729388052605145 39.347370816344814 13.751946327886667 #
straight-curve $-1 -3.16957670584938 39.347370816344814 7.6376324572859957 -1 0 0 I I #
point $-1 3.6729388052605145 39.347370816344814 7.6376324572859957 #
point $-1 -10.630050076109875 30.633365265349109 5.130738517071201 #
point $-1 -2.0482567472876383 30.633365265349109 5.130738517071201 #
straight-curve $-1 30.431716037069123 39.347370816344814 83.035021047705854 0 0 -1 I I #
point $-1 30.431716037069123 39.347370816344814 13.751946327886667 #
straight-curve $-1 10.209811910054924 39.347370816344814 7.6376324572859957 -1 0 0 I I #
point $-1 30.431716037069123 39.347370816344814 7.6376324572859957 #
point $-1 16.128727155698726 30.633365265349109 5.130738517071201 #
point $-1 24.71052048452097 30.633365265349109 5.130738517071201 #
straight-curve $-1 -87.371281285207829 0 -13.751946327886667 0 1 0 I I #
straight-curve $-1 -87.371281285207829 -39.347370816344814 -11.82611985262883 0 0 -1 I I #
point $-1 -87.371281285207829 -39.347370816344814 -13.751946327886667 #
End-of-ACIS-data 