500 0 5 0           
7 Unknown 11 ACIS 5.0 NT 24 Fri Mar 26 15:18:34 1999 
-1 9.9999999999999995e-007 1e-010 
body $-1 $5 $-1 $6 #
body $-1 $7 $-1 $8 #
body $-1 $9 $-1 $10 #
body $-1 $11 $-1 $12 #
body $-1 $13 $-1 $14 #
lump $-1 $-1 $15 $0 #
transform $-1 1 0 0 0 1 0 0 0 1 62.988982818079165 40.677653426320568 17.804092597560402 1 rotate no_reflect no_shear #
lump $-1 $-1 $16 $1 #
transform $-1 1 0 0 0 1 0 0 0 1 62.988982818079165 40.677653426320568 17.804092597560402 1 rotate no_reflect no_shear #
lump $-1 $-1 $17 $2 #
transform $-1 1 0 0 0 1 0 0 0 1 62.988982818079165 40.677653426320568 17.804092597560402 1 rotate no_reflect no_shear #
lump $-1 $-1 $18 $3 #
transform $-1 1 0 0 0 1 0 0 0 1 62.988982818079165 40.677653426320568 17.804092597560402 1 rotate no_reflect no_shear #
lump $-1 $-1 $19 $4 #
transform $-1 1 0 0 0 1 0 0 0 1 62.988982818079165 40.677653426320568 17.804092597560402 1 rotate no_reflect no_shear #
shell $-1 $-1 $-1 $20 $-1 $5 #
shell $-1 $-1 $-1 $21 $-1 $7 #
shell $-1 $-1 $-1 $22 $-1 $9 #
shell $-1 $-1 $-1 $23 $-1 $11 #
shell $-1 $-1 $-1 $24 $-1 $13 #
face $-1 $25 $26 $15 $-1 $27 forward single #
face $-1 $28 $29 $16 $-1 $30 forward single #
face $-1 $31 $32 $17 $-1 $33 reversed single #
face $-1 $34 $35 $18 $-1 $36 forward single #
face $-1 $37 $38 $19 $-1 $39 forward single #
face $-1 $40 $41 $15 $-1 $42 reversed single #
loop $-1 $-1 $43 $20 #
plane-surface $-1 0 0 17.804092597560402 0 0 1 1 0 0 forward_v I I I I #
face $-1 $44 $45 $16 $-1 $46 forward single #
loop $-1 $-1 $47 $21 #
plane-surface $-1 0 -40.677653426320568 0 0 1 0 0 0 1 forward_v I I I I #
face $-1 $48 $49 $17 $-1 $50 reversed single #
loop $-1 $-1 $51 $22 #
plane-surface $-1 87.784029763560426 -18.065316567156465 190.1258050397536 0 -1 0 -0.79863551827123203 0 -0.60181501223851219 forward_v I I I I #
face $-1 $52 $53 $18 $-1 $54 forward single #
loop $-1 $55 $56 $23 #
cone-surface $-1 60.898814080220795 -23.989061647523844 15.342210313561919 -0.79863551827123203 0 -0.60181501223851219 0.60181501223851219 0 -0.79863551827123203 1 I I 0 1 1 forward I I I I #
face $-1 $57 $58 $19 $-1 $59 forward single #
loop $-1 $60 $61 $24 #
cone-surface $-1 60.898814080220795 -20.434814599303415 15.342210313561919 -0.79863551827123203 0 -0.60181501223851219 0.60181501223851219 0 -0.79863551827123203 1 I I 0 1 1 forward I I I I #
face $-1 $62 $63 $15 $-1 $64 reversed single #
loop $-1 $-1 $65 $25 #
plane-surface $-1 0 0 -17.804092597560402 0 0 1 1 0 0 forward_v I I I I #
coedge $-1 $66 $67 $68 $69 forward $26 $-1 #
face $-1 $70 $71 $16 $-1 $72 reversed single #
loop $-1 $-1 $73 $28 #
plane-surface $-1 0 0 17.804092597560402 0 0 1 1 0 0 forward_v I I I I #
coedge $-1 $74 $75 $76 $77 forward $29 $-1 #
face $-1 $78 $79 $17 $-1 $80 reversed single #
loop $-1 $-1 $81 $31 #
plane-surface $-1 -12.826448113028334 -22.211938123413631 114.31037410864612 0.79863551827123203 0 0.60181501223851219 0.60181501223851219 0 -0.79863551827123203 forward_v I I I I #
coedge $-1 $82 $83 $84 $85 reversed $32 $-1 #
face $-1 $-1 $86 $18 $-1 $87 forward single #
loop $-1 $88 $89 $34 #
cone-surface $-1 59.955694436081714 -23.989061647523844 14.631518706195688 -0.79863551827123203 0 -0.60181501223851219 0.3009075061192561 0 -0.39931775913561601 1 I I -0.70710678118654746 0.70710678118654746 0.5 forward I I I I #
loop $-1 $-1 $90 $23 #
coedge $-1 $56 $56 $91 $92 reversed $35 $-1 #
face $-1 $-1 $93 $19 $-1 $94 forward single #
loop $-1 $95 $96 $37 #
cone-surface $-1 59.955694436081714 -20.434814599303415 14.631518706195688 -0.79863551827123203 0 -0.60181501223851219 0.3009075061192561 0 -0.39931775913561601 1 I I -0.70710678118654746 0.70710678118654746 0.5 forward I I I I #
loop $-1 $-1 $97 $24 #
coedge $-1 $61 $61 $98 $99 reversed $38 $-1 #
face $-1 $100 $101 $15 $-1 $102 reversed single #
loop $-1 $-1 $103 $40 #
plane-surface $-1 0 -40.677653426320568 0 0 1 0 0 0 1 forward_v I I I I #
coedge $-1 $104 $105 $106 $107 forward $41 $-1 #
coedge $-1 $108 $43 $109 $110 forward $26 $-1 #
coedge $-1 $43 $108 $111 $112 forward $26 $-1 #
coedge $-1 $113 $114 $43 $69 reversed $115 $-1 #
edge $-1 $116 -40.677653426320568 $117 40.677653426320568 $68 $118 forward 7 unknown #
face $-1 $119 $120 $16 $-1 $121 reversed single #
loop $-1 $-1 $122 $44 #
plane-surface $-1 -62.988982818079165 0 0 1 0 0 0 0 -1 forward_v I I I I #
coedge $-1 $123 $124 $125 $126 forward $45 $-1 #
coedge $-1 $125 $47 $122 $127 reversed $29 $-1 #
coedge $-1 $47 $125 $128 $129 reversed $29 $-1 #
coedge $-1 $130 $131 $47 $77 reversed $120 $-1 #
edge $-1 $132 -62.988982818079165 $133 62.988982818079165 $76 $134 forward 7 unknown #
face $-1 $135 $136 $17 $-1 $137 reversed single #
loop $-1 $-1 $138 $48 #
plane-surface $-1 87.784029763560426 -26.358559679670797 190.1258050397536 0 1 0 0.79863551827123203 0 0.60181501223851219 forward_v I I I I #
coedge $-1 $139 $140 $141 $142 reversed $49 $-1 #
coedge $-1 $83 $51 $143 $144 reversed $32 $-1 #
coedge $-1 $51 $82 $139 $145 reversed $32 $-1 #
coedge $-1 $141 $146 $51 $85 forward $147 $-1 #
edge $-1 $148 -19.096967936298952 $149 -16.00423423058912 $84 $150 forward 7 unknown #
loop $-1 $-1 $91 $52 #
plane-surface $-1 -12.826448113028334 -22.211938123413631 114.31037410864612 0.79863551827123203 0 0.60181501223851219 0.60181501223851219 0 -0.79863551827123203 forward_v I I I I #
loop $-1 $-1 $151 $34 #
coedge $-1 $89 $89 $90 $152 reversed $53 $-1 #
coedge $-1 $90 $90 $89 $152 forward $55 $-1 #
coedge $-1 $91 $91 $56 $92 forward $86 $-1 #
edge $-1 $153 0 $153 6.2831853071796004 $91 $154 forward 7 unknown #
loop $-1 $-1 $98 $57 #
plane-surface $-1 -12.826448113028334 -22.211938123413631 114.31037410864612 0.79863551827123203 0 0.60181501223851219 0.60181501223851219 0 -0.79863551827123203 forward_v I I I I #
loop $-1 $-1 $155 $37 #
coedge $-1 $96 $96 $97 $156 reversed $58 $-1 #
coedge $-1 $97 $97 $96 $156 forward $60 $-1 #
coedge $-1 $98 $98 $61 $99 forward $93 $-1 #
edge $-1 $157 0 $157 6.2831853071796004 $98 $158 forward 7 unknown #
face $-1 $159 $160 $15 $-1 $161 reversed single #
loop $-1 $-1 $162 $62 #
plane-surface $-1 -62.988982818079165 0 0 1 0 0 0 0 -1 forward_v I I I I #
coedge $-1 $163 $111 $164 $165 forward $63 $-1 #
coedge $-1 $166 $65 $163 $167 forward $41 $-1 #
coedge $-1 $65 $166 $168 $169 forward $41 $-1 #
coedge $-1 $114 $113 $65 $107 reversed $115 $-1 #
edge $-1 $170 -40.677653426320568 $171 40.677653426320568 $106 $172 forward 7 unknown #
coedge $-1 $67 $66 $173 $174 forward $26 $-1 #
coedge $-1 $175 $176 $66 $110 reversed $160 $-1 #
edge $-1 $117 -62.988982818079165 $177 62.988982818079165 $109 $178 forward 7 unknown #
coedge $-1 $103 $179 $67 $112 reversed $63 $-1 #
edge $-1 $180 -62.988982818079165 $116 62.988982818079165 $111 $181 forward 7 unknown #
coedge $-1 $106 $68 $179 $182 forward $115 $-1 #
coedge $-1 $68 $106 $175 $183 reversed $115 $-1 #
loop $-1 $-1 $113 $159 #
vertex $-1 $69 $184 #
vertex $-1 $69 $185 #
straight-curve $-1 62.988982818079165 0 17.804092597560402 0 1 0 I I #
face $-1 $186 $187 $16 $-1 $188 reversed single #
loop $-1 $-1 $130 $70 #
plane-surface $-1 0 -47.837200299645453 11.465646545508609 0 0 1 1 0 0 forward_v I I I I #
coedge $-1 $189 $190 $74 $127 forward $71 $-1 #
coedge $-1 $191 $73 $190 $192 forward $45 $-1 #
coedge $-1 $73 $191 $193 $194 forward $45 $-1 #
coedge $-1 $75 $74 $73 $126 reversed $29 $-1 #
edge $-1 $195 -62.988982818079165 $196 62.988982818079165 $73 $197 forward 7 unknown #
edge $-1 $196 -17.804092597560402 $133 -11.465646545508609 $122 $198 forward 7 unknown #
coedge $-1 $193 $199 $75 $129 forward $200 $-1 #
edge $-1 $132 11.465646545508609 $195 17.804092597560402 $128 $201 forward 7 unknown #
coedge $-1 $202 $76 $199 $203 forward $120 $-1 #
coedge $-1 $76 $202 $189 $204 forward $120 $-1 #
vertex $-1 $129 $205 #
vertex $-1 $127 $206 #
straight-curve $-1 0 -40.677653426320568 11.465646545508609 -1 0 0 I I #
face $-1 $-1 $147 $17 $-1 $207 forward single #
loop $-1 $-1 $208 $78 #
plane-surface $-1 62.988982818079165 0 0 -1 0 0 0 0 1 forward_v I I I I #
coedge $-1 $209 $210 $211 $212 reversed $79 $-1 #
coedge $-1 $213 $81 $83 $145 forward $49 $-1 #
coedge $-1 $81 $213 $209 $214 forward $49 $-1 #
coedge $-1 $211 $84 $81 $142 forward $147 $-1 #
edge $-1 $149 6.9593475054496494 $215 15.252590617963982 $141 $216 forward 7 unknown #
coedge $-1 $217 $218 $82 $144 forward $136 $-1 #
edge $-1 $219 -81.363006287819459 $148 -77.258809922316402 $143 $220 forward 7 unknown #
edge $-1 $149 120.83895507175566 $219 125.97796563615833 $83 $221 forward 7 unknown #
coedge $-1 $84 $211 $217 $222 forward $147 $-1 #
loop $-1 $-1 $211 $135 #
vertex $-1 $144 $223 #
vertex $-1 $85 $224 #
straight-curve $-1 43.892014881780213 -18.065316567156465 17.804092597560398 -1 0 0 I I #
coedge $-1 $151 $151 $-1 $225 reversed $88 $-1 #
edge $-1 $226 0 $226 6.2831853071796004 $89 $227 forward 7 unknown #
vertex $-1 $92 $228 #
ellipse-curve $-1 61.442615965224235 -23.989061647523844 15.751994414808872 0.79863551827123203 0 0.60181501223851219 0.60181501223851219 0 -0.79863551827123203 1 I I #
coedge $-1 $155 $155 $-1 $229 reversed $95 $-1 #
edge $-1 $230 0 $230 6.2831853071796004 $96 $231 forward 7 unknown #
vertex $-1 $99 $232 #
ellipse-curve $-1 61.442615965224235 -20.434814599303415 15.751994414808872 0.79863551827123203 0 0.60181501223851219 0.60181501223851219 0 -0.79863551827123203 1 I I #
face $-1 $-1 $115 $15 $-1 $233 reversed single #
loop $-1 $-1 $175 $100 #
plane-surface $-1 0 40.677653426320568 0 0 -1 0 0 0 -1 forward_v I I I I #
coedge $-1 $234 $173 $176 $235 forward $101 $-1 #
coedge $-1 $179 $103 $104 $167 reversed $63 $-1 #
coedge $-1 $173 $234 $103 $165 reversed $101 $-1 #
edge $-1 $180 -17.804092597560402 $236 17.804092597560402 $164 $237 forward 7 unknown #
coedge $-1 $105 $104 $234 $238 forward $41 $-1 #
edge $-1 $171 -62.988982818079165 $236 62.988982818079165 $163 $239 forward 7 unknown #
coedge $-1 $176 $175 $105 $169 reversed $160 $-1 #
edge $-1 $240 -62.988982818079165 $170 62.988982818079165 $168 $241 forward 7 unknown #
vertex $-1 $107 $242 #
vertex $-1 $182 $243 #
straight-curve $-1 62.988982818079165 0 -17.804092597560402 0 -1 0 I I #
coedge $-1 $162 $164 $108 $174 reversed $101 $-1 #
edge $-1 $177 -40.677653426320568 $180 40.677653426320568 $173 $244 forward 7 unknown #
coedge $-1 $168 $109 $114 $183 forward $160 $-1 #
coedge $-1 $109 $168 $162 $235 reversed $160 $-1 #
vertex $-1 $110 $245 #
straight-curve $-1 0 40.677653426320568 17.804092597560402 -1 0 0 I I #
coedge $-1 $111 $163 $113 $182 reversed $63 $-1 #
vertex $-1 $174 $246 #
straight-curve $-1 0 -40.677653426320568 17.804092597560402 1 0 0 I I #
edge $-1 $116 -17.804092597560402 $171 17.804092597560402 $113 $247 forward 7 unknown #
edge $-1 $117 -17.804092597560402 $170 17.804092597560402 $114 $248 forward 7 unknown #
point $-1 62.988982818079165 -40.677653426320568 17.804092597560402 #
point $-1 62.988982818079165 40.677653426320568 17.804092597560402 #
face $-1 $-1 $200 $16 $-1 $249 reversed single #
loop $-1 $-1 $250 $119 #
plane-surface $-1 0 -54.996747172970338 14.634869571534505 0 1 0 0 0 1 forward_v I I I I #
coedge $-1 $251 $122 $131 $204 reversed $71 $-1 #
coedge $-1 $122 $251 $123 $192 reversed $71 $-1 #
coedge $-1 $124 $123 $252 $253 forward $45 $-1 #
edge $-1 $196 40.677653426320568 $254 54.996747172970338 $190 $255 forward 7 unknown #
coedge $-1 $256 $128 $124 $194 reversed $200 $-1 #
edge $-1 $257 -54.996747172970338 $195 -40.677653426320568 $193 $258 forward 7 unknown #
vertex $-1 $129 $259 #
vertex $-1 $192 $260 #
straight-curve $-1 0 -40.677653426320568 17.804092597560402 -1 0 0 I I #
straight-curve $-1 -62.988982818079165 -40.677653426320568 0 0 0 -1 I I #
coedge $-1 $128 $256 $130 $203 reversed $200 $-1 #
loop $-1 $-1 $128 $186 #
straight-curve $-1 62.988982818079165 -40.677653426320568 0 0 0 1 I I #
coedge $-1 $131 $130 $261 $262 forward $120 $-1 #
edge $-1 $132 -7.159546873324885 $263 7.159546873324885 $199 $264 forward 7 unknown #
edge $-1 $265 -7.159546873324885 $133 7.159546873324885 $189 $266 forward 7 unknown #
point $-1 62.988982818079165 -40.677653426320568 11.465646545508609 #
point $-1 -62.988982818079165 -40.677653426320568 11.465646545508609 #
plane-surface $-1 0 0 17.804092597560402 0 0 1 1 0 0 forward_v I I I I #
coedge $-1 $218 $217 $210 $267 forward $136 $-1 #
coedge $-1 $210 $138 $140 $214 reversed $79 $-1 #
coedge $-1 $138 $209 $208 $267 reversed $79 $-1 #
coedge $-1 $146 $141 $138 $212 forward $147 $-1 #
edge $-1 $215 16.00423423058912 $268 19.096967936298952 $211 $269 forward 7 unknown #
coedge $-1 $140 $139 $218 $270 reversed $49 $-1 #
edge $-1 $271 -125.97796563615833 $215 -120.83895507175566 $209 $272 forward 7 unknown #
vertex $-1 $142 $273 #
straight-curve $-1 59.896249112369333 -11.105969061706816 17.804092597560398 0 -1 0 I I #
coedge $-1 $208 $143 $146 $222 reversed $136 $-1 #
coedge $-1 $143 $208 $213 $270 forward $136 $-1 #
vertex $-1 $144 $274 #
straight-curve $-1 62.988982818079165 -18.065316567156465 95.062902519876801 0 0 1 I I #
straight-curve $-1 -12.826448113028334 -18.065316567156465 114.31037410864612 0.60181501223851219 0 -0.79863551827123203 I I #
edge $-1 $268 -26.358559679670797 $148 -18.065316567156465 $217 $275 forward 7 unknown #
point $-1 62.988982818079165 -18.065316567156465 17.804092597560402 #
point $-1 59.896249112369333 -18.065316567156465 17.804092597560398 #
edge $-1 $276 1 $276 0 $151 $-1 forward 7 unknown #
vertex $-1 $152 $277 #
ellipse-curve $-1 60.355012195217327 -23.989061647523844 14.932426212314944 0.79863551827123203 0 0.60181501223851219 0.60181501223851219 0 -0.79863551827123203 1 I I #
point $-1 62.044430977462781 -23.989061647523844 14.95335889653766 #
edge $-1 $278 1 $278 0 $155 $-1 forward 7 unknown #
vertex $-1 $156 $279 #
ellipse-curve $-1 60.355012195217327 -20.434814599303415 14.932426212314944 0.79863551827123203 0 0.60181501223851219 0.60181501223851219 0 -0.79863551827123203 1 I I #
point $-1 62.044430977462781 -20.434814599303415 14.95335889653766 #
plane-surface $-1 62.988982818079165 0 0 -1 0 0 0 0 1 forward_v I I I I #
coedge $-1 $164 $162 $166 $238 reversed $101 $-1 #
edge $-1 $177 -17.804092597560402 $240 17.804092597560402 $176 $280 forward 7 unknown #
vertex $-1 $238 $281 #
straight-curve $-1 -62.988982818079165 -40.677653426320568 0 0 0 -1 I I #
edge $-1 $236 -40.677653426320568 $240 40.677653426320568 $234 $282 forward 7 unknown #
straight-curve $-1 0 -40.677653426320568 -17.804092597560402 -1 0 0 I I #
vertex $-1 $169 $283 #
straight-curve $-1 0 40.677653426320568 -17.804092597560402 1 0 0 I I #
point $-1 62.988982818079165 40.677653426320568 -17.804092597560402 #
point $-1 62.988982818079165 -40.677653426320568 -17.804092597560402 #
straight-curve $-1 -62.988982818079165 0 17.804092597560402 0 -1 0 I I #
point $-1 -62.988982818079165 40.677653426320568 17.804092597560402 #
point $-1 -62.988982818079165 -40.677653426320568 17.804092597560402 #
straight-curve $-1 62.988982818079165 -40.677653426320568 0 0 0 -1 I I #
straight-curve $-1 62.988982818079165 40.677653426320568 0 0 0 -1 I I #
plane-surface $-1 62.988982818079165 0 0 -1 0 0 0 0 1 forward_v I I I I #
coedge $-1 $261 $252 $251 $284 forward $187 $-1 #
coedge $-1 $190 $189 $250 $284 reversed $71 $-1 #
coedge $-1 $250 $285 $191 $253 reversed $187 $-1 #
edge $-1 $254 -62.988982818079165 $257 62.988982818079165 $252 $286 forward 7 unknown #
vertex $-1 $192 $287 #
straight-curve $-1 -62.988982818079165 0 17.804092597560402 0 -1 0 I I #
coedge $-1 $199 $193 $285 $288 forward $200 $-1 #
vertex $-1 $194 $289 #
straight-curve $-1 62.988982818079165 0 17.804092597560402 0 1 0 I I #
point $-1 62.988982818079165 -40.677653426320568 17.804092597560402 #
point $-1 -62.988982818079165 -40.677653426320568 17.804092597560402 #
coedge $-1 $285 $250 $202 $262 reversed $187 $-1 #
edge $-1 $263 -62.988982818079165 $265 62.988982818079165 $261 $290 forward 7 unknown #
vertex $-1 $288 $291 #
straight-curve $-1 62.988982818079165 -47.837200299645453 11.465646545508609 0 -1 0 I I #
vertex $-1 $204 $292 #
straight-curve $-1 -62.988982818079165 -47.837200299645453 11.465646545508609 0 1 0 I I #
edge $-1 $268 77.258809922316402 $271 81.363006287819459 $208 $293 forward 7 unknown #
vertex $-1 $222 $294 #
straight-curve $-1 43.892014881780213 -26.358559679670797 17.804092597560398 1 0 0 I I #
edge $-1 $271 -15.252590617963982 $219 -6.9593475054496494 $218 $295 forward 7 unknown #
vertex $-1 $270 $296 #
straight-curve $-1 -12.826448113028334 -26.358559679670797 114.31037410864612 -0.60181501223851219 0 0.79863551827123203 I I #
point $-1 59.896249112369333 -26.358559679670797 17.804092597560398 #
point $-1 62.988982818079165 -18.065316567156465 13.699896232057341 #
straight-curve $-1 62.988982818079165 0 17.804092597560402 0 1 0 I I #
vertex $-1 $225 $297 #
point $-1 60.956827207455845 -23.989061647523844 14.133790694043713 #
vertex $-1 $229 $298 #
point $-1 60.956827207455845 -20.434814599303415 14.133790694043713 #
straight-curve $-1 -62.988982818079165 40.677653426320568 0 0 0 -1 I I #
point $-1 -62.988982818079165 -40.677653426320568 -17.804092597560402 #
straight-curve $-1 -62.988982818079165 0 -17.804092597560402 0 1 0 I I #
point $-1 -62.988982818079165 40.677653426320568 -17.804092597560402 #
edge $-1 $254 -3.1692230260258967 $265 3.1692230260258967 $251 $299 forward 7 unknown #
coedge $-1 $252 $261 $256 $288 reversed $187 $-1 #
straight-curve $-1 0 -54.996747172970338 17.804092597560402 1 0 0 I I #
point $-1 -62.988982818079165 -54.996747172970338 17.804092597560402 #
edge $-1 $257 -3.1692230260258967 $263 3.1692230260258967 $256 $300 forward 7 unknown #
point $-1 62.988982818079165 -54.996747172970338 17.804092597560402 #
straight-curve $-1 0 -54.996747172970338 11.465646545508609 -1 0 0 I I #
point $-1 62.988982818079165 -54.996747172970338 11.465646545508609 #
point $-1 -62.988982818079165 -54.996747172970338 11.465646545508609 #
straight-curve $-1 62.988982818079165 -26.358559679670797 95.062902519876801 0 0 -1 I I #
point $-1 62.988982818079165 -26.358559679670797 17.804092597560402 #
straight-curve $-1 62.988982818079165 -11.105969061706816 13.699896232057341 0 1 0 I I #
point $-1 62.988982818079165 -26.358559679670797 13.699896232057341 #
point $-1 59.556376676946101 -23.989061647523844 14.330611200076433 #
point $-1 59.556376676946101 -20.434814599303415 14.330611200076433 #
straight-curve $-1 -62.988982818079165 -54.996747172970338 14.634869571534505 0 0 -1 I I #
straight-curve $-1 62.988982818079165 -54.996747172970338 14.634869571534505 0 0 -1 I I #
End-of-ACIS-data 