500 0 14 0           
7 Unknown 11 ACIS 5.0 NT 24 Thu Mar 25 23:30:17 1999 
-1 9.9999999999999995e-007 1e-010 
body $-1 $14 $-1 $15 #
body $-1 $16 $-1 $17 #
body $-1 $18 $-1 $19 #
body $-1 $20 $-1 $21 #
body $-1 $22 $-1 $23 #
body $-1 $24 $-1 $25 #
body $-1 $26 $-1 $27 #
body $-1 $28 $-1 $29 #
body $-1 $30 $-1 $31 #
body $-1 $32 $-1 $33 #
body $-1 $34 $-1 $35 #
body $-1 $36 $-1 $37 #
body $-1 $38 $-1 $39 #
body $-1 $40 $-1 $41 #
lump $-1 $-1 $42 $0 #
transform $-1 1 0 0 0 1 0 0 0 1 54.922330393383589 23.73391564391714 11.051659032054303 1 rotate no_reflect no_shear #
lump $-1 $-1 $43 $1 #
transform $-1 1 0 0 0 1 0 0 0 1 54.922330393383589 23.73391564391714 11.051659032054303 1 rotate no_reflect no_shear #
lump $-1 $-1 $44 $2 #
transform $-1 1 0 0 0 1 0 0 0 1 54.922330393383589 23.73391564391714 11.051659032054303 1 rotate no_reflect no_shear #
lump $-1 $-1 $45 $3 #
transform $-1 1 0 0 0 1 0 0 0 1 54.922330393383589 23.73391564391714 11.051659032054303 1 rotate no_reflect no_shear #
lump $-1 $-1 $46 $4 #
transform $-1 1 0 0 0 1 0 0 0 1 54.922330393383589 23.73391564391714 11.051659032054303 1 rotate no_reflect no_shear #
lump $-1 $-1 $47 $5 #
transform $-1 1 0 0 0 1 0 0 0 1 54.922330393383589 23.73391564391714 11.051659032054303 1 rotate no_reflect no_shear #
lump $-1 $-1 $48 $6 #
transform $-1 1 0 0 0 1 0 0 0 1 54.922330393383589 23.73391564391714 11.051659032054303 1 rotate no_reflect no_shear #
lump $-1 $-1 $49 $7 #
transform $-1 1 0 0 0 1 0 0 0 1 54.922330393383589 23.73391564391714 11.051659032054303 1 rotate no_reflect no_shear #
lump $-1 $-1 $50 $8 #
transform $-1 1 0 0 0 1 0 0 0 1 54.922330393383589 23.73391564391714 11.051659032054303 1 rotate no_reflect no_shear #
lump $-1 $-1 $51 $9 #
transform $-1 1 0 0 0 1 0 0 0 1 54.922330393383589 23.73391564391714 11.051659032054303 1 rotate no_reflect no_shear #
lump $-1 $-1 $52 $10 #
transform $-1 1 0 0 0 1 0 0 0 1 54.922330393383589 23.73391564391714 11.051659032054303 1 rotate no_reflect no_shear #
lump $-1 $-1 $53 $11 #
transform $-1 1 0 0 0 1 0 0 0 1 54.922330393383589 23.73391564391714 11.051659032054303 1 rotate no_reflect no_shear #
lump $-1 $-1 $54 $12 #
transform $-1 1 0 0 0 1 0 0 0 1 54.922330393383589 23.73391564391714 11.051659032054303 1 rotate no_reflect no_shear #
lump $-1 $-1 $55 $13 #
transform $-1 1 0 0 0 1 0 0 0 1 54.922330393383589 23.73391564391714 11.051659032054303 1 rotate no_reflect no_shear #
shell $-1 $-1 $-1 $56 $-1 $14 #
shell $-1 $-1 $-1 $57 $-1 $16 #
shell $-1 $-1 $-1 $58 $-1 $18 #
shell $-1 $-1 $-1 $59 $-1 $20 #
shell $-1 $-1 $-1 $60 $-1 $22 #
shell $-1 $-1 $-1 $61 $-1 $24 #
shell $-1 $-1 $-1 $62 $-1 $26 #
shell $-1 $-1 $-1 $63 $-1 $28 #
shell $-1 $-1 $-1 $64 $-1 $30 #
shell $-1 $-1 $-1 $65 $-1 $32 #
shell $-1 $-1 $-1 $66 $-1 $34 #
shell $-1 $-1 $-1 $67 $-1 $36 #
shell $-1 $-1 $-1 $68 $-1 $38 #
shell $-1 $-1 $-1 $69 $-1 $40 #
face $-1 $70 $71 $42 $-1 $72 forward single #
face $-1 $73 $74 $43 $-1 $75 forward single #
face $-1 $76 $77 $44 $-1 $78 reversed single #
face $-1 $79 $80 $45 $-1 $81 forward single #
face $-1 $82 $83 $46 $-1 $84 forward single #
face $-1 $85 $86 $47 $-1 $87 reversed single #
face $-1 $88 $89 $48 $-1 $90 forward single #
face $-1 $91 $92 $49 $-1 $93 forward single #
face $-1 $94 $95 $50 $-1 $96 reversed single #
face $-1 $97 $98 $51 $-1 $99 forward single #
face $-1 $100 $101 $52 $-1 $102 forward single #
face $-1 $103 $104 $53 $-1 $105 reversed single #
face $-1 $106 $107 $54 $-1 $108 forward single #
face $-1 $109 $110 $55 $-1 $111 forward single #
face $-1 $112 $113 $42 $-1 $114 reversed single #
loop $-1 $-1 $115 $56 #
plane-surface $-1 0 0 11.051659032054303 0 0 1 1 0 0 forward_v I I I I #
face $-1 $116 $117 $43 $-1 $118 reversed single #
loop $-1 $-1 $119 $57 #
plane-surface $-1 -54.922330393383589 0 0 1 0 0 0 0 -1 forward_v I I I I #
face $-1 $120 $121 $44 $-1 $122 reversed single #
loop $-1 $-1 $123 $58 #
plane-surface $-1 -26.318744969925383 39.620226407483628 125.38327148646538 1 0 0 0 -0.51503808176128008 -0.85716729658548041 forward_v I I I I #
face $-1 $124 $125 $45 $-1 $126 forward single #
loop $-1 $127 $128 $59 #
cone-surface $-1 -19.594187028030596 19.777833175853544 8.2474314970560609 0 -0.51503808176128008 -0.85716729658548041 1.5 0 0 1 I I 0 1 1.5 forward I I I I #
face $-1 $129 $130 $46 $-1 $131 forward single #
loop $-1 $132 $133 $60 #
cone-surface $-1 -9.5073501151884159 19.777833175853544 8.2474314970560609 0 -0.51503808176128008 -0.85716729658548041 1.5 0 0 1 I I 0 1 1.5 forward I I I I #
face $-1 $134 $135 $47 $-1 $136 reversed single #
loop $-1 $-1 $137 $61 #
plane-surface $-1 24.789472960784053 39.620226407483628 125.38327148646538 1 0 0 0 -0.51503808176128008 -0.85716729658548041 forward_v I I I I #
face $-1 $138 $139 $48 $-1 $140 forward single #
loop $-1 $141 $142 $62 #
cone-surface $-1 31.514030902678826 19.777833175853544 8.2474314970560609 0 -0.51503808176128008 -0.85716729658548041 1.5 0 0 1 I I 0 1 1.5 forward I I I I #
face $-1 $143 $144 $49 $-1 $145 forward single #
loop $-1 $146 $147 $63 #
cone-surface $-1 41.600867815521013 19.777833175853544 8.2474314970560609 0 -0.51503808176128008 -0.85716729658548041 1.5 0 0 1 I I 0 1 1.5 forward I I I I #
face $-1 $148 $149 $50 $-1 $150 reversed single #
loop $-1 $-1 $151 $64 #
plane-surface $-1 -2.7827921732936218 -80.308099027252211 100.93553071461113 -1 0 0 0 -0.51503808176128008 0.85716729658548041 forward_v I I I I #
face $-1 $152 $153 $51 $-1 $154 forward single #
loop $-1 $155 $156 $65 #
cone-surface $-1 -19.594187028030596 -19.777833175853544 8.247431497056068 0 0.51503808176128008 -0.85716729658548041 1.5 0 0 1 I I 0 1 1.5 forward I I I I #
face $-1 $157 $158 $52 $-1 $159 forward single #
loop $-1 $160 $161 $66 #
cone-surface $-1 -9.5073501151884159 -19.777833175853544 8.247431497056068 0 0.51503808176128008 -0.85716729658548041 1.5 0 0 1 I I 0 1 1.5 forward I I I I #
face $-1 $162 $163 $53 $-1 $164 reversed single #
loop $-1 $-1 $165 $67 #
plane-surface $-1 48.325425757415815 -80.308099027252211 100.93553071461113 -1 0 0 0 -0.51503808176128008 0.85716729658548041 forward_v I I I I #
face $-1 $166 $167 $54 $-1 $168 forward single #
loop $-1 $169 $170 $68 #
cone-surface $-1 31.514030902678826 -19.777833175853544 8.247431497056068 0 0.51503808176128008 -0.85716729658548041 1.5 0 0 1 I I 0 1 1.5 forward I I I I #
face $-1 $171 $172 $55 $-1 $173 forward single #
loop $-1 $174 $175 $69 #
cone-surface $-1 41.600867815521013 -19.777833175853544 8.247431497056068 0 0.51503808176128008 -0.85716729658548041 1.5 0 0 1 I I 0 1 1.5 forward I I I I #
face $-1 $176 $177 $42 $-1 $178 reversed single #
loop $-1 $-1 $179 $70 #
plane-surface $-1 0 0 -11.051659032054303 0 0 1 1 0 0 forward_v I I I I #
coedge $-1 $180 $181 $182 $183 forward $71 $-1 #
face $-1 $184 $185 $43 $-1 $186 forward single #
loop $-1 $-1 $187 $73 #
plane-surface $-1 0 23.73391564391714 0 0 -1 0 0 0 -1 forward_v I I I I #
coedge $-1 $188 $189 $190 $191 forward $74 $-1 #
face $-1 $192 $193 $44 $-1 $194 reversed single #
loop $-1 $-1 $195 $76 #
plane-surface $-1 -14.550768571609503 -16.95395697585144 31.228020555523017 0 0.51503808176128008 0.85716729658548041 1 0 0 forward_v I I I I #
coedge $-1 $196 $197 $198 $199 reversed $77 $-1 #
face $-1 $-1 $200 $45 $-1 $201 forward single #
loop $-1 $202 $203 $79 #
cone-surface $-1 -19.594187028030596 18.989856504329889 6.9360181138114854 0 -0.51503808176128008 -0.85716729658548041 0.75 0 0 1 I I -0.70710678118654791 0.70710678118654702 0.75 forward I I I I #
loop $-1 $-1 $204 $59 #
coedge $-1 $128 $128 $205 $206 reversed $80 $-1 #
face $-1 $-1 $207 $46 $-1 $208 forward single #
loop $-1 $209 $210 $82 #
cone-surface $-1 -9.5073501151884159 18.989856504329889 6.9360181138114854 0 -0.51503808176128008 -0.85716729658548041 0.75 0 0 1 I I -0.70710678118654791 0.70710678118654702 0.75 forward I I I I #
loop $-1 $-1 $211 $60 #
coedge $-1 $133 $133 $212 $213 reversed $83 $-1 #
face $-1 $214 $215 $47 $-1 $216 reversed single #
loop $-1 $-1 $217 $85 #
plane-surface $-1 36.557449359099934 -16.95395697585144 31.228020555523017 0 0.51503808176128008 0.85716729658548041 1 0 0 forward_v I I I I #
coedge $-1 $218 $219 $220 $221 reversed $86 $-1 #
face $-1 $-1 $222 $48 $-1 $223 forward single #
loop $-1 $224 $225 $88 #
cone-surface $-1 31.514030902678826 18.989856504329889 6.9360181138114854 0 -0.51503808176128008 -0.85716729658548041 0.75 0 0 1 I I -0.70710678118654791 0.70710678118654702 0.75 forward I I I I #
loop $-1 $-1 $226 $62 #
coedge $-1 $142 $142 $227 $228 reversed $89 $-1 #
face $-1 $-1 $229 $49 $-1 $230 forward single #
loop $-1 $231 $232 $91 #
cone-surface $-1 41.600867815521013 18.989856504329889 6.9360181138114854 0 -0.51503808176128008 -0.85716729658548041 0.75 0 0 1 I I -0.70710678118654791 0.70710678118654702 0.75 forward I I I I #
loop $-1 $-1 $233 $63 #
coedge $-1 $147 $147 $234 $235 reversed $92 $-1 #
face $-1 $236 $237 $50 $-1 $238 reversed single #
loop $-1 $-1 $239 $94 #
plane-surface $-1 -14.550768571609503 -23.733915643917143 6.7802797836687745 0 -0.51503808176128008 0.85716729658548041 1 0 0 forward_v I I I I #
coedge $-1 $240 $241 $242 $243 reversed $95 $-1 #
face $-1 $-1 $244 $51 $-1 $245 forward single #
loop $-1 $246 $247 $97 #
cone-surface $-1 -19.594187028030596 -18.989856504329889 6.9360181138114925 0 0.51503808176128008 -0.85716729658548041 0.75 0 0 1 I I -0.70710678118654791 0.70710678118654702 0.75 forward I I I I #
loop $-1 $-1 $248 $65 #
coedge $-1 $156 $156 $249 $250 reversed $98 $-1 #
face $-1 $-1 $251 $52 $-1 $252 forward single #
loop $-1 $253 $254 $100 #
cone-surface $-1 -9.5073501151884159 -18.989856504329889 6.9360181138114925 0 0.51503808176128008 -0.85716729658548041 0.75 0 0 1 I I -0.70710678118654791 0.70710678118654702 0.75 forward I I I I #
loop $-1 $-1 $255 $66 #
coedge $-1 $161 $161 $256 $257 reversed $101 $-1 #
face $-1 $258 $259 $53 $-1 $260 reversed single #
loop $-1 $-1 $261 $103 #
plane-surface $-1 36.557449359099934 -23.733915643917143 6.7802797836687745 0 -0.51503808176128008 0.85716729658548041 1 0 0 forward_v I I I I #
coedge $-1 $262 $263 $264 $265 reversed $104 $-1 #
face $-1 $-1 $266 $54 $-1 $267 forward single #
loop $-1 $268 $269 $106 #
cone-surface $-1 31.514030902678826 -18.989856504329889 6.9360181138114925 0 0.51503808176128008 -0.85716729658548041 0.75 0 0 1 I I -0.70710678118654791 0.70710678118654702 0.75 forward I I I I #
loop $-1 $-1 $270 $68 #
coedge $-1 $170 $170 $271 $272 reversed $107 $-1 #
face $-1 $-1 $273 $55 $-1 $274 forward single #
loop $-1 $275 $276 $109 #
cone-surface $-1 41.600867815521013 -18.989856504329889 6.9360181138114925 0 0.51503808176128008 -0.85716729658548041 0.75 0 0 1 I I -0.70710678118654791 0.70710678118654702 0.75 forward I I I I #
loop $-1 $-1 $277 $69 #
coedge $-1 $175 $175 $278 $279 reversed $110 $-1 #
face $-1 $280 $281 $42 $-1 $282 reversed single #
loop $-1 $-1 $283 $112 #
plane-surface $-1 0 -23.73391564391714 0 0 1 0 0 0 1 forward_v I I I I #
coedge $-1 $284 $285 $286 $287 forward $113 $-1 #
coedge $-1 $288 $115 $289 $290 forward $71 $-1 #
coedge $-1 $115 $288 $291 $292 forward $71 $-1 #
coedge $-1 $293 $294 $115 $183 reversed $295 $-1 #
edge $-1 $296 -23.73391564391714 $297 23.73391564391714 $182 $298 forward 7 unknown #
face $-1 $299 $300 $43 $-1 $301 reversed single #
loop $-1 $-1 $190 $116 #
plane-surface $-1 -58.736442856057749 0 -7.2009314351133575 0 0 1 1 0 0 forward_v I I I I #
coedge $-1 $302 $303 $189 $304 forward $117 $-1 #
coedge $-1 $305 $119 $306 $307 reversed $74 $-1 #
coedge $-1 $119 $305 $187 $304 reversed $74 $-1 #
coedge $-1 $308 $309 $119 $191 reversed $185 $-1 #
edge $-1 $310 -23.73391564391714 $311 23.73391564391714 $190 $312 forward 7 unknown #
face $-1 $313 $314 $44 $-1 $315 forward single #
loop $-1 $-1 $316 $120 #
plane-surface $-1 -2.7827921732936218 39.620226407483628 125.38327148646538 -1 0 0 0 0.51503808176128008 0.85716729658548041 forward_v I I I I #
coedge $-1 $317 $318 $319 $320 reversed $121 $-1 #
coedge $-1 $197 $123 $321 $322 reversed $77 $-1 #
coedge $-1 $123 $196 $317 $323 reversed $77 $-1 #
coedge $-1 $319 $324 $123 $199 forward $314 $-1 #
edge $-1 $325 -3.9238024401753258 $326 3.1849662755464365 $198 $327 forward 7 unknown #
loop $-1 $-1 $205 $124 #
plane-surface $-1 -14.550768571609503 -16.95395697585144 31.228020555523017 0 0.51503808176128008 0.85716729658548041 1 0 0 forward_v I I I I #
loop $-1 $-1 $328 $79 #
coedge $-1 $203 $203 $204 $329 reversed $125 $-1 #
coedge $-1 $204 $204 $203 $329 forward $127 $-1 #
coedge $-1 $205 $205 $128 $206 forward $200 $-1 #
edge $-1 $330 -8.0158859289326997e-016 $330 6.2831853071795996 $205 $331 forward 7 unknown #
loop $-1 $-1 $212 $129 #
plane-surface $-1 -14.550768571609503 -16.95395697585144 31.228020555523017 0 0.51503808176128008 0.85716729658548041 1 0 0 forward_v I I I I #
loop $-1 $-1 $332 $82 #
coedge $-1 $210 $210 $211 $333 reversed $130 $-1 #
coedge $-1 $211 $211 $210 $333 forward $132 $-1 #
coedge $-1 $212 $212 $133 $213 forward $207 $-1 #
edge $-1 $334 -8.0158859289326997e-016 $334 6.2831853071795996 $212 $335 forward 7 unknown #
face $-1 $336 $337 $47 $-1 $338 forward single #
loop $-1 $-1 $339 $134 #
plane-surface $-1 48.325425757415815 39.620226407483628 125.38327148646538 -1 0 0 0 0.51503808176128008 0.85716729658548041 forward_v I I I I #
coedge $-1 $340 $341 $342 $343 reversed $135 $-1 #
coedge $-1 $219 $137 $344 $345 reversed $86 $-1 #
coedge $-1 $137 $218 $340 $346 reversed $86 $-1 #
coedge $-1 $342 $347 $137 $221 forward $337 $-1 #
edge $-1 $348 -3.9238024401753258 $349 3.1849662755464365 $220 $350 forward 7 unknown #
loop $-1 $-1 $227 $138 #
plane-surface $-1 36.557449359099934 -16.95395697585144 31.228020555523017 0 0.51503808176128008 0.85716729658548041 1 0 0 forward_v I I I I #
loop $-1 $-1 $351 $88 #
coedge $-1 $225 $225 $226 $352 reversed $139 $-1 #
coedge $-1 $226 $226 $225 $352 forward $141 $-1 #
coedge $-1 $227 $227 $142 $228 forward $222 $-1 #
edge $-1 $353 -8.0158859289326997e-016 $353 6.2831853071795996 $227 $354 forward 7 unknown #
loop $-1 $-1 $234 $143 #
plane-surface $-1 36.557449359099934 -16.95395697585144 31.228020555523017 0 0.51503808176128008 0.85716729658548041 1 0 0 forward_v I I I I #
loop $-1 $-1 $355 $91 #
coedge $-1 $232 $232 $233 $356 reversed $144 $-1 #
coedge $-1 $233 $233 $232 $356 forward $146 $-1 #
coedge $-1 $234 $234 $147 $235 forward $229 $-1 #
edge $-1 $357 -8.0158859289326997e-016 $357 6.2831853071795996 $234 $358 forward 7 unknown #
face $-1 $359 $360 $50 $-1 $361 reversed single #
loop $-1 $-1 $362 $148 #
plane-surface $-1 -26.318744969925383 -80.308099027252211 100.93553071461113 1 0 0 0 0.51503808176128008 -0.85716729658548041 forward_v I I I I #
coedge $-1 $363 $364 $365 $366 reversed $149 $-1 #
coedge $-1 $241 $151 $367 $368 reversed $95 $-1 #
coedge $-1 $151 $240 $363 $369 reversed $95 $-1 #
coedge $-1 $365 $370 $151 $243 forward $371 $-1 #
edge $-1 $372 16.420133869708966 $373 23.528902585430743 $242 $374 forward 7 unknown #
loop $-1 $-1 $249 $152 #
plane-surface $-1 -14.550768571609503 -23.733915643917143 6.7802797836687745 0 -0.51503808176128008 0.85716729658548041 1 0 0 forward_v I I I I #
loop $-1 $-1 $375 $97 #
coedge $-1 $247 $247 $248 $376 reversed $153 $-1 #
coedge $-1 $248 $248 $247 $376 forward $155 $-1 #
coedge $-1 $249 $249 $156 $250 forward $244 $-1 #
edge $-1 $377 1.0107219091721256e-015 $377 6.2831853071796013 $249 $378 forward 7 unknown #
loop $-1 $-1 $256 $157 #
plane-surface $-1 -14.550768571609503 -23.733915643917143 6.7802797836687745 0 -0.51503808176128008 0.85716729658548041 1 0 0 forward_v I I I I #
loop $-1 $-1 $379 $100 #
coedge $-1 $254 $254 $255 $380 reversed $158 $-1 #
coedge $-1 $255 $255 $254 $380 forward $160 $-1 #
coedge $-1 $256 $256 $161 $257 forward $251 $-1 #
edge $-1 $381 1.0107219091721256e-015 $381 6.2831853071796013 $256 $382 forward 7 unknown #
face $-1 $383 $384 $53 $-1 $385 reversed single #
loop $-1 $-1 $386 $162 #
plane-surface $-1 24.789472960784053 -80.308099027252211 100.93553071461113 1 0 0 0 0.51503808176128008 -0.85716729658548041 forward_v I I I I #
coedge $-1 $387 $388 $389 $390 reversed $163 $-1 #
coedge $-1 $263 $165 $391 $392 reversed $104 $-1 #
coedge $-1 $165 $262 $387 $393 reversed $104 $-1 #
coedge $-1 $389 $394 $165 $265 forward $395 $-1 #
edge $-1 $396 16.420133869708966 $397 23.528902585430743 $264 $398 forward 7 unknown #
loop $-1 $-1 $271 $166 #
plane-surface $-1 36.557449359099934 -23.733915643917143 6.7802797836687745 0 -0.51503808176128008 0.85716729658548041 1 0 0 forward_v I I I I #
loop $-1 $-1 $399 $106 #
coedge $-1 $269 $269 $270 $400 reversed $167 $-1 #
coedge $-1 $270 $270 $269 $400 forward $169 $-1 #
coedge $-1 $271 $271 $170 $272 forward $266 $-1 #
edge $-1 $401 1.0107219091721256e-015 $401 6.2831853071796013 $271 $402 forward 7 unknown #
loop $-1 $-1 $278 $171 #
plane-surface $-1 36.557449359099934 -23.733915643917143 6.7802797836687745 0 -0.51503808176128008 0.85716729658548041 1 0 0 forward_v I I I I #
loop $-1 $-1 $403 $109 #
coedge $-1 $276 $276 $277 $404 reversed $172 $-1 #
coedge $-1 $277 $277 $276 $404 forward $174 $-1 #
coedge $-1 $278 $278 $175 $279 forward $273 $-1 #
edge $-1 $405 1.0107219091721256e-015 $405 6.2831853071796013 $278 $406 forward 7 unknown #
face $-1 $407 $408 $42 $-1 $409 reversed single #
loop $-1 $-1 $410 $176 #
plane-surface $-1 -54.922330393383589 0 0 1 0 0 0 0 -1 forward_v I I I I #
coedge $-1 $411 $291 $412 $413 forward $177 $-1 #
coedge $-1 $414 $179 $411 $415 forward $113 $-1 #
coedge $-1 $179 $414 $416 $417 forward $113 $-1 #
coedge $-1 $294 $293 $179 $287 reversed $295 $-1 #
edge $-1 $418 -23.73391564391714 $419 23.73391564391714 $286 $420 forward 7 unknown #
coedge $-1 $181 $180 $421 $422 forward $71 $-1 #
coedge $-1 $423 $424 $180 $290 reversed $408 $-1 #
edge $-1 $297 -54.922330393383589 $425 54.922330393383589 $289 $426 forward 7 unknown #
coedge $-1 $283 $427 $181 $292 reversed $177 $-1 #
edge $-1 $428 -54.922330393383589 $296 54.922330393383589 $291 $429 forward 7 unknown #
coedge $-1 $286 $182 $427 $430 forward $295 $-1 #
coedge $-1 $182 $286 $423 $431 reversed $295 $-1 #
loop $-1 $-1 $293 $407 #
vertex $-1 $183 $432 #
vertex $-1 $183 $433 #
straight-curve $-1 54.922330393383589 0 11.051659032054303 0 1 0 I I #
face $-1 $434 $435 $43 $-1 $436 reversed single #
loop $-1 $-1 $437 $184 #
plane-surface $-1 -62.550555318731909 0 -9.1262952335838303 1 0 0 0 0 -1 forward_v I I I I #
coedge $-1 $438 $187 $439 $440 reversed $117 $-1 #
coedge $-1 $187 $438 $308 $441 reversed $117 $-1 #
edge $-1 $310 7.2009314351133575 $442 11.051659032054303 $187 $443 forward 7 unknown #
coedge $-1 $189 $188 $444 $445 reversed $74 $-1 #
coedge $-1 $446 $447 $188 $307 forward $448 $-1 #
edge $-1 $449 -11.051659032054303 $311 -7.2009314351133575 $306 $450 forward 7 unknown #
coedge $-1 $451 $190 $303 $441 forward $185 $-1 #
coedge $-1 $190 $451 $446 $452 forward $185 $-1 #
vertex $-1 $304 $453 #
vertex $-1 $452 $454 #
straight-curve $-1 -54.922330393383589 0 -7.2009314351133575 0 -1 0 I I #
face $-1 $-1 $455 $44 $-1 $456 reversed single #
loop $-1 $-1 $198 $192 #
plane-surface $-1 0 0 11.051659032054303 0 0 1 1 0 0 forward_v I I I I #
coedge $-1 $457 $458 $459 $460 reversed $193 $-1 #
coedge $-1 $461 $195 $197 $323 forward $121 $-1 #
coedge $-1 $195 $461 $457 $462 forward $121 $-1 #
coedge $-1 $459 $198 $195 $320 forward $314 $-1 #
edge $-1 $326 -19.043360684120632 $463 4.4925921125111294 $319 $464 forward 7 unknown #
coedge $-1 $465 $466 $196 $322 forward $455 $-1 #
edge $-1 $467 -55.911355959563906 $325 -51.639976711178385 $321 $468 forward 7 unknown #
edge $-1 $326 39.174504251164187 $467 47.467831287834272 $197 $469 forward 7 unknown #
coedge $-1 $198 $459 $465 $470 forward $314 $-1 #
vertex $-1 $322 $471 #
vertex $-1 $199 $472 #
straight-curve $-1 -26.318744969925383 19.810113203741814 11.051659032054303 0 -1 0 I I #
coedge $-1 $328 $328 $-1 $473 reversed $202 $-1 #
edge $-1 $474 0 $474 6.2831853071796004 $203 $475 forward 7 unknown #
vertex $-1 $206 $476 #
ellipse-curve $-1 -19.594187028030596 20.179531286056253 8.9159694078615477 0 0.51503808176128008 0.85716729658548041 1.5 0 0 1 I I #
coedge $-1 $332 $332 $-1 $477 reversed $209 $-1 #
edge $-1 $478 0 $478 6.2831853071796004 $210 $479 forward 7 unknown #
vertex $-1 $213 $480 #
ellipse-curve $-1 -9.5073501151884159 20.179531286056253 8.9159694078615477 0 0.51503808176128008 0.85716729658548041 1.5 0 0 1 I I #
face $-1 $-1 $481 $47 $-1 $482 reversed single #
loop $-1 $-1 $220 $214 #
plane-surface $-1 0 0 11.051659032054303 0 0 1 1 0 0 forward_v I I I I #
coedge $-1 $483 $484 $485 $486 reversed $215 $-1 #
coedge $-1 $487 $217 $219 $346 forward $135 $-1 #
coedge $-1 $217 $487 $483 $488 forward $135 $-1 #
coedge $-1 $485 $220 $217 $343 forward $337 $-1 #
edge $-1 $349 6.5107482812340862 $489 30.046701077865848 $342 $490 forward 7 unknown #
coedge $-1 $491 $492 $218 $345 forward $481 $-1 #
edge $-1 $493 -55.911355959563906 $348 -51.639976711178385 $344 $494 forward 7 unknown #
edge $-1 $349 39.174504251164187 $493 47.467831287834272 $219 $495 forward 7 unknown #
coedge $-1 $220 $485 $491 $496 forward $337 $-1 #
vertex $-1 $221 $497 #
vertex $-1 $221 $498 #
straight-curve $-1 24.789472960784053 19.810113203741814 11.051659032054303 0 -1 0 I I #
coedge $-1 $351 $351 $-1 $499 reversed $224 $-1 #
edge $-1 $500 0 $500 6.2831853071796004 $225 $501 forward 7 unknown #
vertex $-1 $228 $502 #
ellipse-curve $-1 31.514030902678826 20.179531286056253 8.9159694078615477 0 0.51503808176128008 0.85716729658548041 1.5 0 0 1 I I #
coedge $-1 $355 $355 $-1 $503 reversed $231 $-1 #
edge $-1 $504 0 $504 6.2831853071796004 $232 $505 forward 7 unknown #
vertex $-1 $235 $506 #
ellipse-curve $-1 41.600867815521013 20.179531286056253 8.9159694078615477 0 0.51503808176128008 0.85716729658548041 1.5 0 0 1 I I #
face $-1 $-1 $371 $50 $-1 $507 forward single #
loop $-1 $-1 $508 $236 #
plane-surface $-1 0 -23.73391564391714 0 0 1 0 0 0 1 forward_v I I I I #
coedge $-1 $509 $510 $511 $512 reversed $237 $-1 #
coedge $-1 $513 $239 $241 $369 forward $149 $-1 #
coedge $-1 $239 $513 $509 $514 forward $149 $-1 #
coedge $-1 $511 $242 $239 $366 forward $371 $-1 #
edge $-1 $373 -4.4925921125111294 $515 19.043360684120632 $365 $516 forward 7 unknown #
coedge $-1 $517 $518 $240 $368 forward $360 $-1 #
edge $-1 $519 -43.687485573636792 $372 -39.416106325251263 $367 $520 forward 7 unknown #
edge $-1 $373 -8.293327036670096 $519 -3.9601613986879174e-015 $241 $521 forward 7 unknown #
coedge $-1 $242 $511 $517 $522 forward $371 $-1 #
loop $-1 $-1 $511 $359 #
vertex $-1 $368 $523 #
vertex $-1 $243 $524 #
straight-curve $-1 -2.7827921732936218 -40.154049513626106 11.051659032054303 0 1 0 I I #
coedge $-1 $375 $375 $-1 $525 reversed $246 $-1 #
edge $-1 $526 0 $526 6.2831853071796004 $247 $527 forward 7 unknown #
vertex $-1 $250 $528 #
ellipse-curve $-1 -19.594187028030596 -20.179531286056246 8.9159694078615424 0 -0.51503808176128008 0.85716729658548041 1.5 0 0 1 I I #
coedge $-1 $379 $379 $-1 $529 reversed $253 $-1 #
edge $-1 $530 0 $530 6.2831853071796004 $254 $531 forward 7 unknown #
vertex $-1 $257 $532 #
ellipse-curve $-1 -9.5073501151884159 -20.179531286056246 8.9159694078615424 0 -0.51503808176128008 0.85716729658548041 1.5 0 0 1 I I #
face $-1 $-1 $395 $53 $-1 $533 forward single #
loop $-1 $-1 $534 $258 #
plane-surface $-1 0 -23.73391564391714 0 0 1 0 0 0 1 forward_v I I I I #
coedge $-1 $535 $536 $537 $538 reversed $259 $-1 #
coedge $-1 $539 $261 $263 $393 forward $163 $-1 #
coedge $-1 $261 $539 $535 $540 forward $163 $-1 #
coedge $-1 $537 $264 $261 $390 forward $395 $-1 #
edge $-1 $397 -30.046701077865848 $541 -6.5107482812340862 $389 $542 forward 7 unknown #
coedge $-1 $543 $544 $262 $392 forward $384 $-1 #
edge $-1 $545 -43.687485573636792 $396 -39.416106325251263 $391 $546 forward 7 unknown #
edge $-1 $397 -8.293327036670096 $545 -3.9601613986879174e-015 $263 $547 forward 7 unknown #
coedge $-1 $264 $537 $543 $548 forward $395 $-1 #
loop $-1 $-1 $537 $383 #
vertex $-1 $392 $549 #
vertex $-1 $265 $550 #
straight-curve $-1 48.325425757415815 -40.154049513626106 11.051659032054303 0 1 0 I I #
coedge $-1 $399 $399 $-1 $551 reversed $268 $-1 #
edge $-1 $552 0 $552 6.2831853071796004 $269 $553 forward 7 unknown #
vertex $-1 $272 $554 #
ellipse-curve $-1 31.514030902678826 -20.179531286056246 8.9159694078615424 0 -0.51503808176128008 0.85716729658548041 1.5 0 0 1 I I #
coedge $-1 $403 $403 $-1 $555 reversed $275 $-1 #
edge $-1 $556 0 $556 6.2831853071796004 $276 $557 forward 7 unknown #
vertex $-1 $279 $558 #
ellipse-curve $-1 41.600867815521013 -20.179531286056246 8.9159694078615424 0 -0.51503808176128008 0.85716729658548041 1.5 0 0 1 I I #
face $-1 $-1 $295 $42 $-1 $559 reversed single #
loop $-1 $-1 $423 $280 #
plane-surface $-1 0 23.73391564391714 0 0 -1 0 0 0 -1 forward_v I I I I #
coedge $-1 $560 $421 $424 $561 forward $281 $-1 #
coedge $-1 $427 $283 $284 $415 reversed $177 $-1 #
coedge $-1 $421 $560 $283 $413 reversed $281 $-1 #
edge $-1 $428 -11.051659032054303 $562 11.051659032054303 $412 $563 forward 7 unknown #
coedge $-1 $285 $284 $560 $564 forward $113 $-1 #
edge $-1 $419 -54.922330393383589 $562 54.922330393383589 $411 $565 forward 7 unknown #
coedge $-1 $424 $423 $285 $417 reversed $408 $-1 #
edge $-1 $566 -54.922330393383589 $418 54.922330393383589 $416 $567 forward 7 unknown #
vertex $-1 $287 $568 #
vertex $-1 $430 $569 #
straight-curve $-1 54.922330393383589 0 -11.051659032054303 0 -1 0 I I #
coedge $-1 $410 $412 $288 $422 reversed $281 $-1 #
edge $-1 $425 -23.73391564391714 $428 23.73391564391714 $421 $570 forward 7 unknown #
coedge $-1 $416 $289 $294 $431 forward $408 $-1 #
coedge $-1 $289 $416 $410 $561 reversed $408 $-1 #
vertex $-1 $290 $571 #
straight-curve $-1 0 23.73391564391714 11.051659032054303 -1 0 0 I I #
coedge $-1 $291 $411 $293 $430 reversed $177 $-1 #
vertex $-1 $422 $572 #
straight-curve $-1 0 -23.73391564391714 11.051659032054303 1 0 0 I I #
edge $-1 $296 -11.051659032054303 $419 11.051659032054303 $293 $573 forward 7 unknown #
edge $-1 $297 -11.051659032054303 $418 11.051659032054303 $294 $574 forward 7 unknown #
point $-1 54.922330393383589 -23.73391564391714 11.051659032054303 #
point $-1 54.922330393383589 23.73391564391714 11.051659032054303 #
face $-1 $-1 $448 $43 $-1 $575 reversed single #
loop $-1 $-1 $444 $299 #
plane-surface $-1 0 0 -11.051659032054303 0 0 1 1 0 0 forward_v I I I I #
coedge $-1 $576 $577 $438 $578 forward $300 $-1 #
coedge $-1 $303 $302 $437 $578 reversed $117 $-1 #
coedge $-1 $444 $579 $302 $440 forward $435 $-1 #
edge $-1 $580 -62.550555318731909 $442 -54.922330393383589 $302 $581 forward 7 unknown #
edge $-1 $310 -3.81411246267416 $582 3.81411246267416 $303 $583 forward 7 unknown #
vertex $-1 $304 $584 #
straight-curve $-1 -54.922330393383589 23.73391564391714 0 0 0 -1 I I #
coedge $-1 $585 $439 $305 $445 forward $435 $-1 #
edge $-1 $442 -23.73391564391714 $449 23.73391564391714 $444 $586 forward 7 unknown #
coedge $-1 $587 $306 $309 $452 reversed $448 $-1 #
coedge $-1 $306 $587 $585 $588 reversed $448 $-1 #
loop $-1 $-1 $306 $434 #
vertex $-1 $588 $589 #
straight-curve $-1 -54.922330393383589 -23.73391564391714 0 0 0 1 I I #
coedge $-1 $309 $308 $577 $590 forward $185 $-1 #
edge $-1 $591 -3.81411246267416 $311 3.81411246267416 $446 $592 forward 7 unknown #
point $-1 -54.922330393383589 23.73391564391714 -7.2009314351133575 #
point $-1 -54.922330393383589 -23.73391564391714 -7.2009314351133575 #
loop $-1 $-1 $321 $313 #
plane-surface $-1 0 23.73391564391714 0 0 -1 0 0 0 -1 forward_v I I I I #
coedge $-1 $458 $316 $318 $462 reversed $193 $-1 #
coedge $-1 $316 $457 $593 $594 reversed $193 $-1 #
coedge $-1 $324 $319 $316 $460 forward $314 $-1 #
edge $-1 $463 -3.1849662755464365 $595 3.9238024401753258 $459 $596 forward 7 unknown #
coedge $-1 $318 $317 $466 $597 reversed $121 $-1 #
edge $-1 $598 -47.467831287834272 $463 -39.174504251164187 $457 $599 forward 7 unknown #
vertex $-1 $320 $600 #
straight-curve $-1 -7.2753842858047513 16.625146928195377 11.051659032054301 1 0 0 I I #
coedge $-1 $593 $321 $324 $470 reversed $455 $-1 #
coedge $-1 $321 $593 $461 $597 forward $455 $-1 #
vertex $-1 $322 $601 #
straight-curve $-1 -26.318744969925383 23.73391564391714 62.691635743232688 0 0 1 I I #
straight-curve $-1 -26.318744969925383 -16.95395697585144 31.228020555523017 0 0.85716729658548041 -0.51503808176128008 I I #
edge $-1 $595 2.7827921732936218 $325 26.318744969925383 $465 $602 forward 7 unknown #
point $-1 -26.318744969925383 23.73391564391714 11.051659032054303 #
point $-1 -26.318744969925383 16.625146928195377 11.051659032054303 #
edge $-1 $603 1 $603 0 $328 $-1 forward 7 unknown #
vertex $-1 $329 $604 #
ellipse-curve $-1 -19.594187028030596 19.37613506565085 7.5788935862505946 0 0.51503808176128008 0.85716729658548041 1.5 0 0 1 I I #
point $-1 -18.094187028030596 20.179531286056239 8.9159694078615264 #
edge $-1 $605 1 $605 0 $332 $-1 forward 7 unknown #
vertex $-1 $333 $606 #
ellipse-curve $-1 -9.5073501151884159 19.37613506565085 7.5788935862505946 0 0.51503808176128008 0.85716729658548041 1.5 0 0 1 I I #
point $-1 -8.0073501151884159 20.179531286056239 8.9159694078615264 #
loop $-1 $-1 $344 $336 #
plane-surface $-1 0 23.73391564391714 0 0 -1 0 0 0 -1 forward_v I I I I #
coedge $-1 $484 $339 $341 $488 reversed $215 $-1 #
coedge $-1 $339 $483 $607 $608 reversed $215 $-1 #
coedge $-1 $347 $342 $339 $486 forward $337 $-1 #
edge $-1 $489 -3.1849662755464365 $609 3.9238024401753258 $485 $610 forward 7 unknown #
coedge $-1 $341 $340 $492 $611 reversed $135 $-1 #
edge $-1 $612 -47.467831287834272 $489 -39.174504251164187 $483 $613 forward 7 unknown #
vertex $-1 $343 $614 #
straight-curve $-1 18.278724679549967 16.625146928195377 11.051659032054301 1 0 0 I I #
coedge $-1 $607 $344 $347 $496 reversed $481 $-1 #
coedge $-1 $344 $607 $487 $611 forward $481 $-1 #
vertex $-1 $345 $615 #
straight-curve $-1 24.789472960784053 23.73391564391714 62.691635743232688 0 0 1 I I #
straight-curve $-1 24.789472960784053 -16.95395697585144 31.228020555523017 0 0.85716729658548041 -0.51503808176128008 I I #
edge $-1 $609 -48.325425757415815 $348 -24.789472960784053 $491 $616 forward 7 unknown #
point $-1 24.789472960784053 23.73391564391714 11.051659032054303 #
point $-1 24.789472960784053 16.625146928195377 11.051659032054303 #
edge $-1 $617 1 $617 0 $351 $-1 forward 7 unknown #
vertex $-1 $352 $618 #
ellipse-curve $-1 31.514030902678826 19.37613506565085 7.5788935862505946 0 0.51503808176128008 0.85716729658548041 1.5 0 0 1 I I #
point $-1 33.014030902678826 20.179531286056239 8.9159694078615264 #
edge $-1 $619 1 $619 0 $355 $-1 forward 7 unknown #
vertex $-1 $356 $620 #
ellipse-curve $-1 41.600867815521013 19.37613506565085 7.5788935862505946 0 0.51503808176128008 0.85716729658548041 1.5 0 0 1 I I #
point $-1 43.100867815521013 20.179531286056239 8.9159694078615264 #
plane-surface $-1 0 0 11.051659032054303 0 0 1 1 0 0 forward_v I I I I #
coedge $-1 $518 $517 $510 $621 forward $360 $-1 #
coedge $-1 $510 $362 $364 $514 reversed $237 $-1 #
coedge $-1 $362 $509 $508 $621 reversed $237 $-1 #
coedge $-1 $370 $365 $362 $512 forward $371 $-1 #
edge $-1 $515 -23.528902585430743 $622 -16.420133869708966 $511 $623 forward 7 unknown #
coedge $-1 $364 $363 $518 $624 reversed $149 $-1 #
edge $-1 $625 3.9601613986879174e-015 $515 8.293327036670096 $509 $626 forward 7 unknown #
vertex $-1 $366 $627 #
straight-curve $-1 -7.2753842858047513 -16.62514692819536 11.051659032054303 -1 0 0 I I #
coedge $-1 $508 $367 $370 $522 reversed $360 $-1 #
coedge $-1 $367 $508 $513 $624 forward $360 $-1 #
vertex $-1 $368 $628 #
straight-curve $-1 -2.7827921732936218 -23.73391564391714 50.467765357305566 0 0 1 I I #
straight-curve $-1 -2.7827921732936218 -23.733915643917143 6.7802797836687745 0 -0.85716729658548041 -0.51503808176128008 I I #
edge $-1 $622 -26.318744969925383 $372 -2.7827921732936218 $517 $629 forward 7 unknown #
point $-1 -2.7827921732936218 -23.73391564391714 11.051659032054303 #
point $-1 -2.7827921732936218 -16.625146928195363 11.051659032054303 #
edge $-1 $630 1 $630 0 $375 $-1 forward 7 unknown #
vertex $-1 $376 $631 #
ellipse-curve $-1 -19.594187028030596 -19.37613506565085 7.5788935862506017 0 -0.51503808176128008 0.85716729658548041 1.5 0 0 1 I I #
point $-1 -18.094187028030596 -20.179531286056239 8.9159694078615335 #
edge $-1 $632 1 $632 0 $379 $-1 forward 7 unknown #
vertex $-1 $380 $633 #
ellipse-curve $-1 -9.5073501151884159 -19.37613506565085 7.5788935862506017 0 -0.51503808176128008 0.85716729658548041 1.5 0 0 1 I I #
point $-1 -8.0073501151884159 -20.179531286056239 8.9159694078615335 #
plane-surface $-1 0 0 11.051659032054303 0 0 1 1 0 0 forward_v I I I I #
coedge $-1 $544 $543 $536 $634 forward $384 $-1 #
coedge $-1 $536 $386 $388 $540 reversed $259 $-1 #
coedge $-1 $386 $535 $534 $634 reversed $259 $-1 #
coedge $-1 $394 $389 $386 $538 forward $395 $-1 #
edge $-1 $541 -23.528902585430743 $635 -16.420133869708966 $537 $636 forward 7 unknown #
coedge $-1 $388 $387 $544 $637 reversed $163 $-1 #
edge $-1 $638 3.9601613986879174e-015 $541 8.293327036670096 $535 $639 forward 7 unknown #
vertex $-1 $390 $640 #
straight-curve $-1 18.278724679549967 -16.62514692819536 11.051659032054303 -1 0 0 I I #
coedge $-1 $534 $391 $394 $548 reversed $384 $-1 #
coedge $-1 $391 $534 $539 $637 forward $384 $-1 #
vertex $-1 $392 $641 #
straight-curve $-1 48.325425757415815 -23.73391564391714 50.467765357305566 0 0 1 I I #
straight-curve $-1 48.325425757415815 -23.733915643917143 6.7802797836687745 0 -0.85716729658548041 -0.51503808176128008 I I #
edge $-1 $635 24.789472960784053 $396 48.325425757415815 $543 $642 forward 7 unknown #
point $-1 48.325425757415815 -23.73391564391714 11.051659032054303 #
point $-1 48.325425757415815 -16.625146928195363 11.051659032054303 #
edge $-1 $643 1 $643 0 $399 $-1 forward 7 unknown #
vertex $-1 $400 $644 #
ellipse-curve $-1 31.514030902678826 -19.37613506565085 7.5788935862506017 0 -0.51503808176128008 0.85716729658548041 1.5 0 0 1 I I #
point $-1 33.014030902678826 -20.179531286056239 8.9159694078615335 #
edge $-1 $645 1 $645 0 $403 $-1 forward 7 unknown #
vertex $-1 $404 $646 #
ellipse-curve $-1 41.600867815521013 -19.37613506565085 7.5788935862506017 0 -0.51503808176128008 0.85716729658548041 1.5 0 0 1 I I #
point $-1 43.100867815521013 -20.179531286056239 8.9159694078615335 #
plane-surface $-1 54.922330393383589 0 0 -1 0 0 0 0 1 forward_v I I I I #
coedge $-1 $412 $410 $414 $564 reversed $281 $-1 #
edge $-1 $425 -11.051659032054303 $566 11.051659032054303 $424 $647 forward 7 unknown #
vertex $-1 $564 $648 #
straight-curve $-1 -54.922330393383589 -23.73391564391714 0 0 0 -1 I I #
edge $-1 $562 -23.73391564391714 $566 23.73391564391714 $560 $649 forward 7 unknown #
straight-curve $-1 0 -23.73391564391714 -11.051659032054303 -1 0 0 I I #
vertex $-1 $417 $650 #
straight-curve $-1 0 23.73391564391714 -11.051659032054303 1 0 0 I I #
point $-1 54.922330393383589 23.73391564391714 -11.051659032054303 #
point $-1 54.922330393383589 -23.73391564391714 -11.051659032054303 #
straight-curve $-1 -54.922330393383589 0 11.051659032054303 0 -1 0 I I #
point $-1 -54.922330393383589 23.73391564391714 11.051659032054303 #
point $-1 -54.922330393383589 -23.73391564391714 11.051659032054303 #
straight-curve $-1 54.922330393383589 -23.73391564391714 0 0 0 -1 I I #
straight-curve $-1 54.922330393383589 23.73391564391714 0 0 0 -1 I I #
plane-surface $-1 0 -23.73391564391714 0 0 1 0 0 0 1 forward_v I I I I #
coedge $-1 $651 $437 $579 $652 reversed $300 $-1 #
coedge $-1 $437 $651 $451 $590 reversed $300 $-1 #
edge $-1 $582 -1.9253637984704728 $580 1.9253637984704728 $438 $653 forward 7 unknown #
coedge $-1 $439 $585 $576 $652 forward $435 $-1 #
vertex $-1 $440 $654 #
straight-curve $-1 0 23.73391564391714 -11.051659032054303 1 0 0 I I #
vertex $-1 $441 $655 #
straight-curve $-1 -58.736442856057749 23.73391564391714 -7.2009314351133575 -1 0 0 I I #
point $-1 -54.922330393383589 23.73391564391714 -11.051659032054303 #
coedge $-1 $579 $444 $447 $588 forward $435 $-1 #
straight-curve $-1 -54.922330393383589 0 -11.051659032054303 0 -1 0 I I #
coedge $-1 $447 $446 $651 $656 forward $448 $-1 #
edge $-1 $449 -3.81411246267416 $657 3.81411246267416 $447 $658 forward 7 unknown #
point $-1 -54.922330393383589 -23.73391564391714 -11.051659032054303 #
edge $-1 $582 -23.73391564391714 $591 23.73391564391714 $577 $659 forward 7 unknown #
vertex $-1 $590 $660 #
straight-curve $-1 -58.736442856057749 -23.73391564391714 -7.2009314351133575 1 0 0 I I #
coedge $-1 $466 $465 $458 $594 forward $455 $-1 #
edge $-1 $595 51.639976711178385 $598 55.911355959563906 $593 $661 forward 7 unknown #
vertex $-1 $470 $662 #
straight-curve $-1 -2.7827921732936218 19.810113203741814 11.051659032054303 0 1 0 I I #
edge $-1 $598 -4.4925921125111294 $467 19.043360684120632 $466 $663 forward 7 unknown #
vertex $-1 $597 $664 #
straight-curve $-1 -2.7827921732936218 -16.95395697585144 31.228020555523017 0 -0.85716729658548041 0.51503808176128008 I I #
point $-1 -2.7827921732936218 16.625146928195377 11.051659032054303 #
point $-1 -26.318744969925383 23.733915643917143 6.7802797836687816 #
straight-curve $-1 0 23.73391564391714 11.051659032054303 -1 0 0 I I #
vertex $-1 $473 $665 #
point $-1 -18.094187028030596 19.37613506565085 7.5788935862505946 #
vertex $-1 $477 $666 #
point $-1 -8.0073501151884159 19.37613506565085 7.5788935862505946 #
coedge $-1 $492 $491 $484 $608 forward $481 $-1 #
edge $-1 $609 51.639976711178385 $612 55.911355959563906 $607 $667 forward 7 unknown #
vertex $-1 $496 $668 #
straight-curve $-1 48.325425757415815 19.810113203741814 11.051659032054303 0 1 0 I I #
edge $-1 $612 -30.046701077865848 $493 -6.5107482812340862 $492 $669 forward 7 unknown #
vertex $-1 $611 $670 #
straight-curve $-1 48.325425757415815 -16.95395697585144 31.228020555523017 0 -0.85716729658548041 0.51503808176128008 I I #
point $-1 48.325425757415815 16.625146928195377 11.051659032054303 #
point $-1 24.789472960784053 23.733915643917143 6.7802797836687816 #
straight-curve $-1 0 23.73391564391714 11.051659032054303 -1 0 0 I I #
vertex $-1 $499 $671 #
point $-1 33.014030902678826 19.37613506565085 7.5788935862505946 #
vertex $-1 $503 $672 #
point $-1 43.100867815521013 19.37613506565085 7.5788935862505946 #
edge $-1 $622 39.416106325251263 $625 43.687485573636792 $508 $673 forward 7 unknown #
vertex $-1 $522 $674 #
straight-curve $-1 -26.318744969925383 -40.154049513626106 11.051659032054303 0 -1 0 I I #
edge $-1 $625 -19.043360684120632 $519 4.4925921125111294 $518 $675 forward 7 unknown #
vertex $-1 $624 $676 #
straight-curve $-1 -26.318744969925383 -23.733915643917143 6.7802797836687745 0 0.85716729658548041 0.51503808176128008 I I #
point $-1 -26.318744969925383 -16.625146928195363 11.051659032054303 #
point $-1 -2.7827921732936218 -23.73391564391714 6.7802797836687763 #
straight-curve $-1 0 -23.73391564391714 11.051659032054303 1 0 0 I I #
vertex $-1 $525 $677 #
point $-1 -18.094187028030596 -19.37613506565085 7.5788935862506017 #
vertex $-1 $529 $678 #
point $-1 -8.0073501151884159 -19.37613506565085 7.5788935862506017 #
edge $-1 $635 39.416106325251263 $638 43.687485573636792 $534 $679 forward 7 unknown #
vertex $-1 $548 $680 #
straight-curve $-1 24.789472960784053 -40.154049513626106 11.051659032054303 0 -1 0 I I #
edge $-1 $638 6.5107482812340862 $545 30.046701077865848 $544 $681 forward 7 unknown #
vertex $-1 $637 $682 #
straight-curve $-1 24.789472960784053 -23.733915643917143 6.7802797836687745 0 0.85716729658548041 0.51503808176128008 I I #
point $-1 24.789472960784053 -16.625146928195363 11.051659032054303 #
point $-1 48.325425757415815 -23.73391564391714 6.7802797836687763 #
straight-curve $-1 0 -23.73391564391714 11.051659032054303 1 0 0 I I #
vertex $-1 $551 $683 #
point $-1 33.014030902678826 -19.37613506565085 7.5788935862506017 #
vertex $-1 $555 $684 #
point $-1 43.100867815521013 -19.37613506565085 7.5788935862506017 #
straight-curve $-1 -54.922330393383589 23.73391564391714 0 0 0 -1 I I #
point $-1 -54.922330393383589 -23.73391564391714 -11.051659032054303 #
straight-curve $-1 -54.922330393383589 0 -11.051659032054303 0 1 0 I I #
point $-1 -54.922330393383589 23.73391564391714 -11.051659032054303 #
coedge $-1 $577 $576 $587 $656 reversed $300 $-1 #
edge $-1 $657 -23.73391564391714 $580 23.73391564391714 $576 $685 forward 7 unknown #
straight-curve $-1 -62.550555318731909 23.73391564391714 -9.1262952335838303 0 0 -1 I I #
point $-1 -62.550555318731909 23.73391564391714 -11.051659032054303 #
point $-1 -62.550555318731909 23.73391564391714 -7.2009314351133575 #
edge $-1 $591 -1.9253637984704728 $657 1.9253637984704728 $651 $686 forward 7 unknown #
vertex $-1 $652 $687 #
straight-curve $-1 -58.736442856057749 -23.73391564391714 -11.051659032054303 -1 0 0 I I #
straight-curve $-1 -62.550555318731909 0 -7.2009314351133575 0 -1 0 I I #
point $-1 -62.550555318731909 -23.73391564391714 -7.2009314351133575 #
straight-curve $-1 -2.7827921732936218 23.73391564391714 62.691635743232688 0 0 -1 I I #
point $-1 -2.7827921732936218 23.73391564391714 11.051659032054303 #
straight-curve $-1 -7.2753842858047513 23.73391564391714 6.7802797836687834 -1 0 0 I I #
point $-1 -2.7827921732936218 23.733915643917143 6.7802797836687816 #
point $-1 -19.594187028030596 18.603577943008929 6.2931426413723761 #
point $-1 -9.5073501151884159 18.603577943008929 6.2931426413723761 #
straight-curve $-1 48.325425757415815 23.73391564391714 62.691635743232688 0 0 -1 I I #
point $-1 48.325425757415815 23.73391564391714 11.051659032054303 #
straight-curve $-1 18.278724679549967 23.73391564391714 6.7802797836687834 -1 0 0 I I #
point $-1 48.325425757415815 23.733915643917143 6.7802797836687816 #
point $-1 31.514030902678826 18.603577943008929 6.2931426413723761 #
point $-1 41.600867815521013 18.603577943008929 6.2931426413723761 #
straight-curve $-1 -26.318744969925383 -23.73391564391714 50.467765357305566 0 0 -1 I I #
point $-1 -26.318744969925383 -23.73391564391714 11.051659032054303 #
straight-curve $-1 -7.2753842858047513 -23.73391564391714 6.780279783668778 1 0 0 I I #
point $-1 -26.318744969925383 -23.73391564391714 6.7802797836687763 #
point $-1 -19.594187028030596 -18.603577943008929 6.2931426413723832 #
point $-1 -9.5073501151884159 -18.603577943008929 6.2931426413723832 #
straight-curve $-1 24.789472960784053 -23.73391564391714 50.467765357305566 0 0 -1 I I #
point $-1 24.789472960784053 -23.73391564391714 11.051659032054303 #
straight-curve $-1 18.278724679549967 -23.73391564391714 6.780279783668778 1 0 0 I I #
point $-1 24.789472960784053 -23.73391564391714 6.7802797836687763 #
point $-1 31.514030902678826 -18.603577943008929 6.2931426413723832 #
point $-1 41.600867815521013 -18.603577943008929 6.2931426413723832 #
straight-curve $-1 -62.550555318731909 0 -11.051659032054303 0 1 0 I I #
straight-curve $-1 -62.550555318731909 -23.73391564391714 -9.1262952335838303 0 0 -1 I I #
point $-1 -62.550555318731909 -23.73391564391714 -11.051659032054303 #
End-of-ACIS-data 