500 0 16 0           
7 Unknown 11 ACIS 5.0 NT 24 Fri Mar 26 00:04:05 1999 
-1 9.9999999999999995e-007 1e-010 
body $-1 $16 $-1 $17 #
body $-1 $18 $-1 $19 #
body $-1 $20 $-1 $21 #
body $-1 $22 $-1 $23 #
body $-1 $24 $-1 $25 #
body $-1 $26 $-1 $27 #
body $-1 $28 $-1 $29 #
body $-1 $30 $-1 $31 #
body $-1 $32 $-1 $33 #
body $-1 $34 $-1 $35 #
body $-1 $36 $-1 $37 #
body $-1 $38 $-1 $39 #
body $-1 $40 $-1 $41 #
body $-1 $42 $-1 $43 #
body $-1 $44 $-1 $45 #
body $-1 $46 $-1 $47 #
lump $-1 $-1 $48 $0 #
transform $-1 1 0 0 0 1 0 0 0 1 64.01928769798883 35.069643494753571 16.937930357349501 1 rotate no_reflect no_shear #
lump $-1 $-1 $49 $1 #
transform $-1 1 0 0 0 1 0 0 0 1 64.01928769798883 35.069643494753571 16.937930357349501 1 rotate no_reflect no_shear #
lump $-1 $-1 $50 $2 #
transform $-1 1 0 0 0 1 0 0 0 1 64.01928769798883 35.069643494753571 16.937930357349501 1 rotate no_reflect no_shear #
lump $-1 $-1 $51 $3 #
transform $-1 1 0 0 0 1 0 0 0 1 64.01928769798883 35.069643494753571 16.937930357349501 1 rotate no_reflect no_shear #
lump $-1 $-1 $52 $4 #
transform $-1 1 0 0 0 1 0 0 0 1 64.01928769798883 35.069643494753571 16.937930357349501 1 rotate no_reflect no_shear #
lump $-1 $-1 $53 $5 #
transform $-1 1 0 0 0 1 0 0 0 1 64.01928769798883 35.069643494753571 16.937930357349501 1 rotate no_reflect no_shear #
lump $-1 $-1 $54 $6 #
transform $-1 1 0 0 0 1 0 0 0 1 64.01928769798883 35.069643494753571 16.937930357349501 1 rotate no_reflect no_shear #
lump $-1 $-1 $55 $7 #
transform $-1 1 0 0 0 1 0 0 0 1 64.01928769798883 35.069643494753571 16.937930357349501 1 rotate no_reflect no_shear #
lump $-1 $-1 $56 $8 #
transform $-1 1 0 0 0 1 0 0 0 1 64.01928769798883 35.069643494753571 16.937930357349501 1 rotate no_reflect no_shear #
lump $-1 $-1 $57 $9 #
transform $-1 1 0 0 0 1 0 0 0 1 64.01928769798883 35.069643494753571 16.937930357349501 1 rotate no_reflect no_shear #
lump $-1 $-1 $58 $10 #
transform $-1 1 0 0 0 1 0 0 0 1 64.01928769798883 35.069643494753571 16.937930357349501 1 rotate no_reflect no_shear #
lump $-1 $-1 $59 $11 #
transform $-1 1 0 0 0 1 0 0 0 1 64.01928769798883 35.069643494753571 16.937930357349501 1 rotate no_reflect no_shear #
lump $-1 $-1 $60 $12 #
transform $-1 1 0 0 0 1 0 0 0 1 64.01928769798883 35.069643494753571 16.937930357349501 1 rotate no_reflect no_shear #
lump $-1 $-1 $61 $13 #
transform $-1 1 0 0 0 1 0 0 0 1 64.01928769798883 35.069643494753571 16.937930357349501 1 rotate no_reflect no_shear #
lump $-1 $-1 $62 $14 #
transform $-1 1 0 0 0 1 0 0 0 1 64.01928769798883 35.069643494753571 16.937930357349501 1 rotate no_reflect no_shear #
lump $-1 $-1 $63 $15 #
transform $-1 1 0 0 0 1 0 0 0 1 64.01928769798883 35.069643494753571 16.937930357349501 1 rotate no_reflect no_shear #
shell $-1 $-1 $-1 $64 $-1 $16 #
shell $-1 $-1 $-1 $65 $-1 $18 #
shell $-1 $-1 $-1 $66 $-1 $20 #
shell $-1 $-1 $-1 $67 $-1 $22 #
shell $-1 $-1 $-1 $68 $-1 $24 #
shell $-1 $-1 $-1 $69 $-1 $26 #
shell $-1 $-1 $-1 $70 $-1 $28 #
shell $-1 $-1 $-1 $71 $-1 $30 #
shell $-1 $-1 $-1 $72 $-1 $32 #
shell $-1 $-1 $-1 $73 $-1 $34 #
shell $-1 $-1 $-1 $74 $-1 $36 #
shell $-1 $-1 $-1 $75 $-1 $38 #
shell $-1 $-1 $-1 $76 $-1 $40 #
shell $-1 $-1 $-1 $77 $-1 $42 #
shell $-1 $-1 $-1 $78 $-1 $44 #
shell $-1 $-1 $-1 $79 $-1 $46 #
face $-1 $80 $81 $48 $-1 $82 forward single #
face $-1 $83 $84 $49 $-1 $85 reversed single #
face $-1 $86 $87 $50 $-1 $88 reversed single #
face $-1 $89 $90 $51 $-1 $91 reversed single #
face $-1 $92 $93 $52 $-1 $94 forward single #
face $-1 $95 $96 $53 $-1 $97 forward single #
face $-1 $98 $99 $54 $-1 $100 forward single #
face $-1 $101 $102 $55 $-1 $103 reversed single #
face $-1 $104 $105 $56 $-1 $106 forward single #
face $-1 $107 $108 $57 $-1 $109 forward single #
face $-1 $110 $111 $58 $-1 $112 reversed single #
face $-1 $113 $114 $59 $-1 $115 forward single #
face $-1 $116 $117 $60 $-1 $118 forward single #
face $-1 $119 $120 $61 $-1 $121 reversed single #
face $-1 $122 $123 $62 $-1 $124 forward single #
face $-1 $125 $126 $63 $-1 $127 forward single #
face $-1 $128 $129 $48 $-1 $130 reversed single #
loop $-1 $-1 $131 $64 #
plane-surface $-1 0 0 16.937930357349501 0 0 1 1 0 0 forward_v I I I I #
face $-1 $132 $133 $49 $-1 $134 reversed single #
loop $-1 $-1 $135 $65 #
plane-surface $-1 0 -23.910908922544159 13.403538895655064 0 0 1 1 0 0 forward_v I I I I #
face $-1 $136 $137 $50 $-1 $138 reversed single #
loop $-1 $-1 $139 $66 #
plane-surface $-1 0 23.910908922544159 13.403538895655064 0 0 1 1 0 0 forward_v I I I I #
face $-1 $140 $141 $51 $-1 $142 reversed single #
loop $-1 $-1 $143 $67 #
plane-surface $-1 -135.61755136046352 -1.2665049663326116 115.65441763144554 0 1 0 -0.55919291073839883 0 0.82903756765294845 forward_v I I I I #
face $-1 $144 $145 $52 $-1 $146 forward single #
loop $-1 $147 $148 $68 #
cone-surface $-1 -57.982685636691592 0.22344975046329552 12.44020020434343 0.55919291073839883 0 -0.82903756765294845 0.41451878382647422 0 0.27959645536919941 1 I I 0 1 0.5 forward I I I I #
face $-1 $149 $150 $53 $-1 $151 forward single #
loop $-1 $152 $153 $69 #
cone-surface $-1 -57.982685636691592 2.4583818256571632 12.44020020434343 0.55919291073839883 0 -0.82903756765294845 0.41451878382647422 0 0.27959645536919941 1 I I 0 1 0.5 forward I I I I #
face $-1 $154 $155 $54 $-1 $156 forward single #
loop $-1 $157 $158 $70 #
cone-surface $-1 -57.982685636691592 4.693313900851031 12.44020020434343 0.55919291073839883 0 -0.82903756765294845 0.41451878382647422 0 0.27959645536919941 1 I I 0 1 0.5 forward I I I I #
face $-1 $159 $160 $55 $-1 $161 reversed single #
loop $-1 $-1 $162 $71 #
plane-surface $-1 86.086646169254038 -5.0671294938193103 181.3299445648496 0 -1 0 -0.78801076186113728 0 -0.61566146476048833 forward_v I I I I #
face $-1 $163 $164 $56 $-1 $165 forward single #
loop $-1 $166 $167 $72 #
cone-surface $-1 57.635877330657813 -9.1485455873482735 8.9640106189528765 -0.78801076186113728 0 -0.61566146476048833 0.30783073238024417 0 -0.39400538093056864 1 I I 0 1 0.5 forward I I I I #
face $-1 $168 $169 $57 $-1 $170 forward single #
loop $-1 $171 $172 $73 #
cone-surface $-1 57.635877330657813 -6.6996959312308952 8.9640106189528765 -0.78801076186113728 0 -0.61566146476048833 0.30783073238024417 0 -0.39400538093056864 1 I I 0 1 0.5 forward I I I I #
face $-1 $173 $174 $58 $-1 $175 reversed single #
loop $-1 $-1 $176 $74 #
plane-surface $-1 86.086646169254038 3.4343200730705217 181.3299445648496 0 -1 0 -0.78801076186113728 0 -0.61566146476048833 forward_v I I I I #
face $-1 $177 $178 $59 $-1 $179 forward single #
loop $-1 $180 $181 $75 #
cone-surface $-1 57.635877330657813 -0.6470960204584415 8.9640106189528765 -0.78801076186113728 0 -0.61566146476048833 0.30783073238024417 0 -0.39400538093056864 1 I I 0 1 0.5 forward I I I I #
face $-1 $182 $183 $60 $-1 $184 forward single #
loop $-1 $185 $186 $76 #
cone-surface $-1 57.635877330657813 1.8017536356589332 8.9640106189528765 -0.78801076186113728 0 -0.61566146476048833 0.30783073238024417 0 -0.39400538093056864 1 I I 0 1 0.5 forward I I I I #
face $-1 $187 $188 $61 $-1 $189 reversed single #
loop $-1 $-1 $190 $77 #
plane-surface $-1 86.086646169254038 11.935769639960354 181.3299445648496 0 -1 0 -0.78801076186113728 0 -0.61566146476048833 forward_v I I I I #
face $-1 $191 $192 $62 $-1 $193 forward single #
loop $-1 $194 $195 $78 #
cone-surface $-1 57.635877330657813 7.8543535464313905 8.9640106189528765 -0.78801076186113728 0 -0.61566146476048833 0.30783073238024417 0 -0.39400538093056864 1 I I 0 1 0.5 forward I I I I #
face $-1 $196 $197 $63 $-1 $198 forward single #
loop $-1 $199 $200 $79 #
cone-surface $-1 57.635877330657813 10.303203202548765 8.9640106189528765 -0.78801076186113728 0 -0.61566146476048833 0.30783073238024417 0 -0.39400538093056864 1 I I 0 1 0.5 forward I I I I #
face $-1 $201 $202 $48 $-1 $203 reversed single #
loop $-1 $-1 $204 $80 #
plane-surface $-1 0 0 -16.937930357349501 0 0 1 1 0 0 forward_v I I I I #
coedge $-1 $205 $206 $207 $208 forward $81 $-1 #
face $-1 $209 $210 $49 $-1 $211 reversed single #
loop $-1 $-1 $212 $83 #
plane-surface $-1 0 -12.752174350334748 15.170734626502281 0 -1 0 0 0 -1 forward_v I I I I #
coedge $-1 $213 $214 $215 $216 reversed $84 $-1 #
face $-1 $217 $218 $50 $-1 $219 forward single #
loop $-1 $-1 $220 $86 #
plane-surface $-1 0 12.752174350334748 15.170734626502281 0 1 0 0 0 1 forward_v I I I I #
coedge $-1 $221 $222 $223 $224 reversed $87 $-1 #
face $-1 $225 $226 $51 $-1 $227 reversed single #
loop $-1 $-1 $228 $89 #
plane-surface $-1 -64.019287697988844 2.4583818256571632 9.5056285194155663 -0.55919291073839883 0 0.82903756765294845 0.82903756765294845 0 0.55919291073839883 forward_v I I I I #
coedge $-1 $229 $230 $231 $232 reversed $90 $-1 #
face $-1 $-1 $233 $52 $-1 $234 forward single #
loop $-1 $235 $236 $92 #
cone-surface $-1 -57.315705549091604 0.22344975046329552 11.451361578391094 0.55919291073839883 0 -0.82903756765294845 0.20725939191323711 0 0.13979822768459971 1 I I -0.70710678118654746 0.70710678118654746 0.25 forward I I I I #
loop $-1 $-1 $237 $68 #
coedge $-1 $148 $148 $238 $239 reversed $93 $-1 #
face $-1 $-1 $240 $53 $-1 $241 forward single #
loop $-1 $242 $243 $95 #
cone-surface $-1 -57.315705549091604 2.4583818256571632 11.451361578391094 0.55919291073839883 0 -0.82903756765294845 0.20725939191323711 0 0.13979822768459971 1 I I -0.70710678118654746 0.70710678118654746 0.25 forward I I I I #
loop $-1 $-1 $244 $69 #
coedge $-1 $153 $153 $245 $246 reversed $96 $-1 #
face $-1 $-1 $247 $54 $-1 $248 forward single #
loop $-1 $249 $250 $98 #
cone-surface $-1 -57.315705549091604 4.693313900851031 11.451361578391094 0.55919291073839883 0 -0.82903756765294845 0.20725939191323711 0 0.13979822768459971 1 I I -0.70710678118654746 0.70710678118654746 0.25 forward I I I I #
loop $-1 $-1 $251 $70 #
coedge $-1 $158 $158 $252 $253 reversed $99 $-1 #
face $-1 $254 $255 $55 $-1 $256 reversed single #
loop $-1 $-1 $257 $101 #
plane-surface $-1 -14.809129176144978 -7.9241207592895861 102.50152769071578 0.78801076186113728 0 0.61566146476048833 0.61566146476048833 0 -0.78801076186113728 forward_v I I I I #
coedge $-1 $258 $259 $260 $261 reversed $102 $-1 #
face $-1 $-1 $262 $56 $-1 $263 forward single #
loop $-1 $264 $265 $104 #
cone-surface $-1 57.044869259261958 -9.1485455873482735 8.5022645203825107 -0.78801076186113728 0 -0.61566146476048833 0.15391536619012208 0 -0.19700269046528432 1 I I -0.70710678118654746 0.70710678118654746 0.25 forward I I I I #
loop $-1 $-1 $266 $72 #
coedge $-1 $167 $167 $267 $268 reversed $105 $-1 #
face $-1 $-1 $269 $57 $-1 $270 forward single #
loop $-1 $271 $272 $107 #
cone-surface $-1 57.044869259261958 -6.6996959312308952 8.5022645203825107 -0.78801076186113728 0 -0.61566146476048833 0.15391536619012208 0 -0.19700269046528432 1 I I -0.70710678118654746 0.70710678118654746 0.25 forward I I I I #
loop $-1 $-1 $273 $73 #
coedge $-1 $172 $172 $274 $275 reversed $108 $-1 #
face $-1 $276 $277 $58 $-1 $278 reversed single #
loop $-1 $-1 $279 $110 #
plane-surface $-1 -14.809129176144978 0.57732880760024585 102.50152769071578 0.78801076186113728 0 0.61566146476048833 0.61566146476048833 0 -0.78801076186113728 forward_v I I I I #
coedge $-1 $280 $281 $282 $283 reversed $111 $-1 #
face $-1 $-1 $284 $59 $-1 $285 forward single #
loop $-1 $286 $287 $113 #
cone-surface $-1 57.044869259261958 -0.6470960204584415 8.5022645203825107 -0.78801076186113728 0 -0.61566146476048833 0.15391536619012208 0 -0.19700269046528432 1 I I -0.70710678118654746 0.70710678118654746 0.25 forward I I I I #
loop $-1 $-1 $288 $75 #
coedge $-1 $181 $181 $289 $290 reversed $114 $-1 #
face $-1 $-1 $291 $60 $-1 $292 forward single #
loop $-1 $293 $294 $116 #
cone-surface $-1 57.044869259261958 1.8017536356589332 8.5022645203825107 -0.78801076186113728 0 -0.61566146476048833 0.15391536619012208 0 -0.19700269046528432 1 I I -0.70710678118654746 0.70710678118654746 0.25 forward I I I I #
loop $-1 $-1 $295 $76 #
coedge $-1 $186 $186 $296 $297 reversed $117 $-1 #
face $-1 $298 $299 $61 $-1 $300 reversed single #
loop $-1 $-1 $301 $119 #
plane-surface $-1 -14.809129176144978 9.0787783744900779 102.50152769071578 0.78801076186113728 0 0.61566146476048833 0.61566146476048833 0 -0.78801076186113728 forward_v I I I I #
coedge $-1 $302 $303 $304 $305 reversed $120 $-1 #
face $-1 $-1 $306 $62 $-1 $307 forward single #
loop $-1 $308 $309 $122 #
cone-surface $-1 57.044869259261958 7.8543535464313905 8.5022645203825107 -0.78801076186113728 0 -0.61566146476048833 0.15391536619012208 0 -0.19700269046528432 1 I I -0.70710678118654746 0.70710678118654746 0.25 forward I I I I #
loop $-1 $-1 $310 $78 #
coedge $-1 $195 $195 $311 $312 reversed $123 $-1 #
face $-1 $-1 $313 $63 $-1 $314 forward single #
loop $-1 $315 $316 $125 #
cone-surface $-1 57.044869259261958 10.303203202548765 8.5022645203825107 -0.78801076186113728 0 -0.61566146476048833 0.15391536619012208 0 -0.19700269046528432 1 I I -0.70710678118654746 0.70710678118654746 0.25 forward I I I I #
loop $-1 $-1 $317 $79 #
coedge $-1 $200 $200 $318 $319 reversed $126 $-1 #
face $-1 $320 $321 $48 $-1 $322 reversed single #
loop $-1 $-1 $323 $128 #
plane-surface $-1 0 -35.069643494753571 0 0 1 0 0 0 1 forward_v I I I I #
coedge $-1 $324 $325 $326 $327 forward $129 $-1 #
coedge $-1 $328 $131 $329 $330 forward $81 $-1 #
coedge $-1 $131 $328 $331 $332 forward $81 $-1 #
coedge $-1 $333 $334 $131 $208 reversed $335 $-1 #
edge $-1 $336 -35.069643494753571 $337 35.069643494753571 $207 $338 forward 7 unknown #
face $-1 $339 $340 $49 $-1 $341 reversed single #
loop $-1 $-1 $342 $132 #
plane-surface $-1 -64.01928769798883 0 0 1 0 0 0 0 -1 forward_v I I I I #
coedge $-1 $343 $344 $345 $346 reversed $133 $-1 #
coedge $-1 $347 $135 $348 $349 reversed $84 $-1 #
coedge $-1 $135 $347 $343 $350 forward $84 $-1 #
coedge $-1 $345 $351 $135 $216 forward $352 $-1 #
edge $-1 $353 -23.114189033481491 $354 -0.79671988906266833 $215 $355 forward 7 unknown #
face $-1 $356 $357 $50 $-1 $358 reversed single #
loop $-1 $-1 $359 $136 #
plane-surface $-1 0 0 16.937930357349501 0 0 1 1 0 0 forward_v I I I I #
coedge $-1 $360 $361 $362 $363 reversed $137 $-1 #
coedge $-1 $364 $139 $360 $365 forward $87 $-1 #
coedge $-1 $139 $364 $366 $367 reversed $87 $-1 #
coedge $-1 $368 $369 $139 $224 forward $357 $-1 #
edge $-1 $370 0.79671988906266833 $371 23.114189033481491 $223 $372 forward 7 unknown #
face $-1 $373 $374 $51 $-1 $375 reversed single #
loop $-1 $-1 $376 $140 #
plane-surface $-1 -135.61755136046352 6.183268617646938 115.65441763144554 0 -1 0 0.55919291073839883 0 -0.82903756765294845 forward_v I I I I #
coedge $-1 $377 $378 $379 $380 reversed $141 $-1 #
coedge $-1 $230 $143 $381 $382 reversed $90 $-1 #
coedge $-1 $143 $229 $377 $383 reversed $90 $-1 #
coedge $-1 $379 $384 $143 $232 forward $385 $-1 #
edge $-1 $386 3.7894879822429317 $387 14.80832838500659 $231 $388 forward 7 unknown #
loop $-1 $-1 $238 $144 #
plane-surface $-1 -64.019287697988844 2.4583818256571632 9.5056285194155663 -0.55919291073839883 0 0.82903756765294845 0.82903756765294845 0 0.55919291073839883 forward_v I I I I #
loop $-1 $-1 $389 $92 #
coedge $-1 $236 $236 $237 $390 reversed $145 $-1 #
coedge $-1 $237 $237 $236 $390 forward $147 $-1 #
coedge $-1 $238 $238 $148 $239 forward $233 $-1 #
edge $-1 $391 0 $391 6.2831853071796004 $238 $392 forward 7 unknown #
loop $-1 $-1 $245 $149 #
plane-surface $-1 -64.019287697988844 2.4583818256571632 9.5056285194155663 -0.55919291073839883 0 0.82903756765294845 0.82903756765294845 0 0.55919291073839883 forward_v I I I I #
loop $-1 $-1 $393 $95 #
coedge $-1 $243 $243 $244 $394 reversed $150 $-1 #
coedge $-1 $244 $244 $243 $394 forward $152 $-1 #
coedge $-1 $245 $245 $153 $246 forward $240 $-1 #
edge $-1 $395 0 $395 6.2831853071796004 $245 $396 forward 7 unknown #
loop $-1 $-1 $252 $154 #
plane-surface $-1 -64.019287697988844 2.4583818256571632 9.5056285194155663 -0.55919291073839883 0 0.82903756765294845 0.82903756765294845 0 0.55919291073839883 forward_v I I I I #
loop $-1 $-1 $397 $98 #
coedge $-1 $250 $250 $251 $398 reversed $155 $-1 #
coedge $-1 $251 $251 $250 $398 forward $157 $-1 #
coedge $-1 $252 $252 $158 $253 forward $247 $-1 #
edge $-1 $399 0 $399 6.2831853071796004 $252 $400 forward 7 unknown #
face $-1 $401 $402 $55 $-1 $403 forward single #
loop $-1 $-1 $404 $159 #
plane-surface $-1 86.086646169254038 -10.781112024759862 181.3299445648496 0 1 0 0.78801076186113728 0 0.61566146476048833 forward_v I I I I #
coedge $-1 $405 $406 $407 $408 reversed $160 $-1 #
coedge $-1 $259 $162 $409 $410 reversed $102 $-1 #
coedge $-1 $162 $258 $405 $411 reversed $102 $-1 #
coedge $-1 $407 $412 $162 $261 forward $402 $-1 #
edge $-1 $413 -20.975964613361811 $414 -8.9971546405609217 $260 $415 forward 7 unknown #
loop $-1 $-1 $267 $163 #
plane-surface $-1 -14.809129176144978 -7.9241207592895861 102.50152769071578 0.78801076186113728 0 0.61566146476048833 0.61566146476048833 0 -0.78801076186113728 forward_v I I I I #
loop $-1 $-1 $416 $104 #
coedge $-1 $265 $265 $266 $417 reversed $164 $-1 #
coedge $-1 $266 $266 $265 $417 forward $166 $-1 #
coedge $-1 $267 $267 $167 $268 forward $262 $-1 #
edge $-1 $418 0 $418 6.2831853071796004 $267 $419 forward 7 unknown #
loop $-1 $-1 $274 $168 #
plane-surface $-1 -14.809129176144978 -7.9241207592895861 102.50152769071578 0.78801076186113728 0 0.61566146476048833 0.61566146476048833 0 -0.78801076186113728 forward_v I I I I #
loop $-1 $-1 $420 $107 #
coedge $-1 $272 $272 $273 $421 reversed $169 $-1 #
coedge $-1 $273 $273 $272 $421 forward $171 $-1 #
coedge $-1 $274 $274 $172 $275 forward $269 $-1 #
edge $-1 $422 0 $422 6.2831853071796004 $274 $423 forward 7 unknown #
face $-1 $424 $425 $58 $-1 $426 reversed single #
loop $-1 $-1 $427 $173 #
plane-surface $-1 86.086646169254038 -2.27966245787003 181.3299445648496 0 1 0 0.78801076186113728 0 0.61566146476048833 forward_v I I I I #
coedge $-1 $428 $429 $430 $431 reversed $174 $-1 #
coedge $-1 $281 $176 $432 $433 reversed $111 $-1 #
coedge $-1 $176 $280 $428 $434 reversed $111 $-1 #
coedge $-1 $430 $435 $176 $283 forward $436 $-1 #
edge $-1 $437 -20.975964613361811 $438 -8.9971546405609217 $282 $439 forward 7 unknown #
loop $-1 $-1 $289 $177 #
plane-surface $-1 -14.809129176144978 0.57732880760024585 102.50152769071578 0.78801076186113728 0 0.61566146476048833 0.61566146476048833 0 -0.78801076186113728 forward_v I I I I #
loop $-1 $-1 $440 $113 #
coedge $-1 $287 $287 $288 $441 reversed $178 $-1 #
coedge $-1 $288 $288 $287 $441 forward $180 $-1 #
coedge $-1 $289 $289 $181 $290 forward $284 $-1 #
edge $-1 $442 0 $442 6.2831853071796004 $289 $443 forward 7 unknown #
loop $-1 $-1 $296 $182 #
plane-surface $-1 -14.809129176144978 0.57732880760024585 102.50152769071578 0.78801076186113728 0 0.61566146476048833 0.61566146476048833 0 -0.78801076186113728 forward_v I I I I #
loop $-1 $-1 $444 $116 #
coedge $-1 $294 $294 $295 $445 reversed $183 $-1 #
coedge $-1 $295 $295 $294 $445 forward $185 $-1 #
coedge $-1 $296 $296 $186 $297 forward $291 $-1 #
edge $-1 $446 0 $446 6.2831853071796004 $296 $447 forward 7 unknown #
face $-1 $448 $449 $61 $-1 $450 reversed single #
loop $-1 $-1 $451 $187 #
plane-surface $-1 86.086646169254038 6.221787109019802 181.3299445648496 0 1 0 0.78801076186113728 0 0.61566146476048833 forward_v I I I I #
coedge $-1 $452 $453 $454 $455 reversed $188 $-1 #
coedge $-1 $303 $190 $456 $457 reversed $120 $-1 #
coedge $-1 $190 $302 $452 $458 reversed $120 $-1 #
coedge $-1 $454 $459 $190 $305 forward $460 $-1 #
edge $-1 $461 -20.975964613361811 $462 -8.9971546405609217 $304 $463 forward 7 unknown #
loop $-1 $-1 $311 $191 #
plane-surface $-1 -14.809129176144978 9.0787783744900779 102.50152769071578 0.78801076186113728 0 0.61566146476048833 0.61566146476048833 0 -0.78801076186113728 forward_v I I I I #
loop $-1 $-1 $464 $122 #
coedge $-1 $309 $309 $310 $465 reversed $192 $-1 #
coedge $-1 $310 $310 $309 $465 forward $194 $-1 #
coedge $-1 $311 $311 $195 $312 forward $306 $-1 #
edge $-1 $466 0 $466 6.2831853071796004 $311 $467 forward 7 unknown #
loop $-1 $-1 $318 $196 #
plane-surface $-1 -14.809129176144978 9.0787783744900779 102.50152769071578 0.78801076186113728 0 0.61566146476048833 0.61566146476048833 0 -0.78801076186113728 forward_v I I I I #
loop $-1 $-1 $468 $125 #
coedge $-1 $316 $316 $317 $469 reversed $197 $-1 #
coedge $-1 $317 $317 $316 $469 forward $199 $-1 #
coedge $-1 $318 $318 $200 $319 forward $313 $-1 #
edge $-1 $470 0 $470 6.2831853071796004 $318 $471 forward 7 unknown #
face $-1 $472 $473 $48 $-1 $474 reversed single #
loop $-1 $-1 $475 $201 #
plane-surface $-1 -64.01928769798883 0 0 1 0 0 0 0 -1 forward_v I I I I #
coedge $-1 $476 $331 $477 $478 forward $202 $-1 #
coedge $-1 $479 $204 $476 $480 forward $129 $-1 #
coedge $-1 $204 $479 $481 $482 forward $129 $-1 #
coedge $-1 $334 $333 $204 $327 reversed $335 $-1 #
edge $-1 $483 -35.069643494753571 $484 35.069643494753571 $326 $485 forward 7 unknown #
coedge $-1 $206 $205 $486 $487 forward $81 $-1 #
coedge $-1 $488 $489 $205 $330 reversed $473 $-1 #
edge $-1 $337 -64.01928769798883 $490 64.01928769798883 $329 $491 forward 7 unknown #
coedge $-1 $323 $492 $206 $332 reversed $202 $-1 #
edge $-1 $493 -64.01928769798883 $336 64.01928769798883 $331 $494 forward 7 unknown #
coedge $-1 $326 $207 $492 $495 forward $335 $-1 #
coedge $-1 $207 $326 $488 $496 reversed $335 $-1 #
loop $-1 $-1 $333 $472 #
vertex $-1 $208 $497 #
vertex $-1 $208 $498 #
straight-curve $-1 64.01928769798883 0 16.937930357349501 0 1 0 I I #
face $-1 $499 $500 $49 $-1 $501 forward single #
loop $-1 $-1 $348 $209 #
plane-surface $-1 0 -35.069643494753571 0 0 1 0 0 0 1 forward_v I I I I #
coedge $-1 $502 $503 $504 $505 forward $210 $-1 #
coedge $-1 $504 $212 $214 $350 reversed $133 $-1 #
coedge $-1 $212 $504 $506 $507 reversed $133 $-1 #
coedge $-1 $508 $215 $212 $346 forward $352 $-1 #
edge $-1 $354 5.8181715824039237 $509 9.3525630440983569 $345 $510 forward 7 unknown #
coedge $-1 $214 $213 $502 $511 reversed $84 $-1 #
coedge $-1 $512 $513 $213 $349 forward $340 $-1 #
edge $-1 $514 -64.01928769798883 $353 64.01928769798883 $348 $515 forward 7 unknown #
edge $-1 $516 -64.01928769798883 $354 64.01928769798883 $343 $517 forward 7 unknown #
coedge $-1 $215 $508 $512 $518 forward $352 $-1 #
loop $-1 $-1 $345 $499 #
vertex $-1 $349 $519 #
vertex $-1 $216 $520 #
straight-curve $-1 64.01928769798883 -11.95545446127208 13.403538895655064 0 1 0 I I #
face $-1 $521 $522 $50 $-1 $523 reversed single #
loop $-1 $-1 $369 $217 #
plane-surface $-1 64.01928769798883 0 0 -1 0 0 0 0 1 forward_v I I I I #
coedge $-1 $524 $525 $361 $526 forward $218 $-1 #
coedge $-1 $527 $220 $221 $365 reversed $137 $-1 #
coedge $-1 $220 $527 $359 $526 reversed $137 $-1 #
coedge $-1 $528 $529 $220 $363 forward $522 $-1 #
edge $-1 $530 5.8181715824039237 $531 9.3525630440983569 $362 $532 forward 7 unknown #
coedge $-1 $222 $221 $529 $533 reversed $87 $-1 #
edge $-1 $370 -64.01928769798883 $530 64.01928769798883 $360 $534 forward 7 unknown #
coedge $-1 $535 $536 $222 $367 forward $537 $-1 #
edge $-1 $371 -64.01928769798883 $538 64.01928769798883 $366 $539 forward 7 unknown #
coedge $-1 $540 $223 $536 $541 reversed $357 $-1 #
coedge $-1 $223 $540 $527 $542 forward $357 $-1 #
vertex $-1 $224 $543 #
vertex $-1 $367 $544 #
straight-curve $-1 64.01928769798883 11.95545446127208 13.403538895655064 0 1 0 I I #
face $-1 $-1 $385 $51 $-1 $545 forward single #
loop $-1 $-1 $546 $225 #
plane-surface $-1 -64.01928769798883 0 0 1 0 0 0 0 -1 forward_v I I I I #
coedge $-1 $547 $548 $549 $550 reversed $226 $-1 #
coedge $-1 $551 $228 $230 $383 forward $141 $-1 #
coedge $-1 $228 $551 $547 $552 forward $141 $-1 #
coedge $-1 $549 $231 $228 $380 forward $385 $-1 #
edge $-1 $387 -2.4956958791611932 $553 4.9540777048183564 $379 $554 forward 7 unknown #
coedge $-1 $555 $556 $229 $382 forward $374 $-1 #
edge $-1 $557 -48.321580296307197 $386 -40.889278458373269 $381 $558 forward 7 unknown #
edge $-1 $387 -13.291123144103858 $557 -1.6747963185031944e-014 $230 $559 forward 7 unknown #
coedge $-1 $231 $549 $555 $560 forward $385 $-1 #
loop $-1 $-1 $549 $373 #
vertex $-1 $382 $561 #
vertex $-1 $232 $562 #
straight-curve $-1 -67.808775680231761 -1.2665049663326116 16.937930357349501 1 0 0 I I #
coedge $-1 $389 $389 $-1 $563 reversed $235 $-1 #
edge $-1 $564 0 $564 6.2831853071796004 $236 $565 forward 7 unknown #
vertex $-1 $239 $566 #
ellipse-curve $-1 -58.509867496606994 0.22344975046329552 13.221779438382544 -0.55919291073839883 0 0.82903756765294845 0.41451878382647422 0 0.27959645536919941 1 I I #
coedge $-1 $393 $393 $-1 $567 reversed $242 $-1 #
edge $-1 $568 0 $568 6.2831853071796004 $243 $569 forward 7 unknown #
vertex $-1 $246 $570 #
ellipse-curve $-1 -58.509867496606994 2.4583818256571632 13.221779438382544 -0.55919291073839883 0 0.82903756765294845 0.41451878382647422 0 0.27959645536919941 1 I I #
coedge $-1 $397 $397 $-1 $571 reversed $249 $-1 #
edge $-1 $572 0 $572 6.2831853071796004 $250 $573 forward 7 unknown #
vertex $-1 $253 $574 #
ellipse-curve $-1 -58.509867496606994 4.693313900851031 13.221779438382544 -0.55919291073839883 0 0.82903756765294845 0.41451878382647422 0 0.27959645536919941 1 I I #
face $-1 $-1 $575 $55 $-1 $576 reversed single #
loop $-1 $-1 $260 $254 #
plane-surface $-1 0 0 16.937930357349501 0 0 1 1 0 0 forward_v I I I I #
coedge $-1 $577 $578 $579 $580 reversed $255 $-1 #
coedge $-1 $581 $257 $259 $411 forward $160 $-1 #
coedge $-1 $257 $581 $577 $582 forward $160 $-1 #
coedge $-1 $579 $260 $257 $408 forward $402 $-1 #
edge $-1 $414 1.1050691141745173 $583 6.8190516451150689 $407 $584 forward 7 unknown #
coedge $-1 $585 $586 $258 $410 forward $575 $-1 #
edge $-1 $587 -89.059219937108026 $413 -73.727041925075298 $409 $588 forward 7 unknown #
edge $-1 $414 108.58176242578301 $587 128.03857539597763 $259 $589 forward 7 unknown #
coedge $-1 $260 $579 $585 $590 forward $402 $-1 #
vertex $-1 $410 $591 #
vertex $-1 $261 $592 #
straight-curve $-1 43.043323084627019 -5.0671294938193103 16.937930357349501 -1 0 0 I I #
coedge $-1 $416 $416 $-1 $593 reversed $264 $-1 #
edge $-1 $594 0 $594 6.2831853071796004 $265 $595 forward 7 unknown #
vertex $-1 $268 $596 #
ellipse-curve $-1 58.029882711588385 -9.1485455873482735 9.2718413513331246 0.78801076186113728 0 0.61566146476048833 0.30783073238024417 0 -0.39400538093056864 1 I I #
coedge $-1 $420 $420 $-1 $597 reversed $271 $-1 #
edge $-1 $598 0 $598 6.2831853071796004 $272 $599 forward 7 unknown #
vertex $-1 $275 $600 #
ellipse-curve $-1 58.029882711588385 -6.6996959312308952 9.2718413513331246 0.78801076186113728 0 0.61566146476048833 0.30783073238024417 0 -0.39400538093056864 1 I I #
face $-1 $-1 $436 $58 $-1 $601 forward single #
loop $-1 $-1 $602 $276 #
plane-surface $-1 64.01928769798883 0 0 -1 0 0 0 0 1 forward_v I I I I #
coedge $-1 $603 $604 $605 $606 reversed $277 $-1 #
coedge $-1 $607 $279 $281 $434 forward $174 $-1 #
coedge $-1 $279 $607 $603 $608 forward $174 $-1 #
coedge $-1 $605 $282 $279 $431 forward $436 $-1 #
edge $-1 $438 -3.1456556692703987 $609 2.5683268616701529 $430 $610 forward 7 unknown #
coedge $-1 $611 $612 $280 $433 forward $425 $-1 #
edge $-1 $613 -89.059219937108026 $437 -73.727041925075298 $432 $614 forward 7 unknown #
edge $-1 $438 108.58176242578301 $613 128.03857539597763 $281 $615 forward 7 unknown #
coedge $-1 $282 $605 $611 $616 forward $436 $-1 #
loop $-1 $-1 $605 $424 #
vertex $-1 $433 $617 #
vertex $-1 $283 $618 #
straight-curve $-1 43.043323084627019 3.4343200730705217 16.937930357349501 -1 0 0 I I #
coedge $-1 $440 $440 $-1 $619 reversed $286 $-1 #
edge $-1 $620 0 $620 6.2831853071796004 $287 $621 forward 7 unknown #
vertex $-1 $290 $622 #
ellipse-curve $-1 58.029882711588385 -0.6470960204584415 9.2718413513331246 0.78801076186113728 0 0.61566146476048833 0.30783073238024417 0 -0.39400538093056864 1 I I #
coedge $-1 $444 $444 $-1 $623 reversed $293 $-1 #
edge $-1 $624 0 $624 6.2831853071796004 $294 $625 forward 7 unknown #
vertex $-1 $297 $626 #
ellipse-curve $-1 58.029882711588385 1.8017536356589332 9.2718413513331246 0.78801076186113728 0 0.61566146476048833 0.30783073238024417 0 -0.39400538093056864 1 I I #
face $-1 $-1 $460 $61 $-1 $627 forward single #
loop $-1 $-1 $628 $298 #
plane-surface $-1 64.01928769798883 0 0 -1 0 0 0 0 1 forward_v I I I I #
coedge $-1 $629 $630 $631 $632 reversed $299 $-1 #
coedge $-1 $633 $301 $303 $458 forward $188 $-1 #
coedge $-1 $301 $633 $629 $634 forward $188 $-1 #
coedge $-1 $631 $304 $301 $455 forward $460 $-1 #
edge $-1 $462 -7.3963804527153147 $635 -1.6823979217747631 $454 $636 forward 7 unknown #
coedge $-1 $637 $638 $302 $457 forward $449 $-1 #
edge $-1 $639 -89.059219937108026 $461 -73.727041925075298 $456 $640 forward 7 unknown #
edge $-1 $462 108.58176242578301 $639 128.03857539597763 $303 $641 forward 7 unknown #
coedge $-1 $304 $631 $637 $642 forward $460 $-1 #
loop $-1 $-1 $631 $448 #
vertex $-1 $457 $643 #
vertex $-1 $305 $644 #
straight-curve $-1 43.043323084627019 11.935769639960354 16.937930357349501 -1 0 0 I I #
coedge $-1 $464 $464 $-1 $645 reversed $308 $-1 #
edge $-1 $646 0 $646 6.2831853071796004 $309 $647 forward 7 unknown #
vertex $-1 $312 $648 #
ellipse-curve $-1 58.029882711588385 7.8543535464313905 9.2718413513331246 0.78801076186113728 0 0.61566146476048833 0.30783073238024417 0 -0.39400538093056864 1 I I #
coedge $-1 $468 $468 $-1 $649 reversed $315 $-1 #
edge $-1 $650 0 $650 6.2831853071796004 $316 $651 forward 7 unknown #
vertex $-1 $319 $652 #
ellipse-curve $-1 58.029882711588385 10.303203202548765 9.2718413513331246 0.78801076186113728 0 0.61566146476048833 0.30783073238024417 0 -0.39400538093056864 1 I I #
face $-1 $-1 $335 $48 $-1 $653 reversed single #
loop $-1 $-1 $488 $320 #
plane-surface $-1 0 35.069643494753571 0 0 -1 0 0 0 -1 forward_v I I I I #
coedge $-1 $654 $486 $489 $655 forward $321 $-1 #
coedge $-1 $492 $323 $324 $480 reversed $202 $-1 #
coedge $-1 $486 $654 $323 $478 reversed $321 $-1 #
edge $-1 $493 -16.937930357349501 $656 16.937930357349501 $477 $657 forward 7 unknown #
coedge $-1 $325 $324 $654 $658 forward $129 $-1 #
edge $-1 $484 -64.01928769798883 $656 64.01928769798883 $476 $659 forward 7 unknown #
coedge $-1 $489 $488 $325 $482 reversed $473 $-1 #
edge $-1 $660 -64.01928769798883 $483 64.01928769798883 $481 $661 forward 7 unknown #
vertex $-1 $327 $662 #
vertex $-1 $495 $663 #
straight-curve $-1 64.01928769798883 0 -16.937930357349501 0 -1 0 I I #
coedge $-1 $475 $477 $328 $487 reversed $321 $-1 #
edge $-1 $490 -35.069643494753571 $493 35.069643494753571 $486 $664 forward 7 unknown #
coedge $-1 $481 $329 $334 $496 forward $473 $-1 #
coedge $-1 $329 $481 $475 $655 reversed $473 $-1 #
vertex $-1 $330 $665 #
straight-curve $-1 0 35.069643494753571 16.937930357349501 -1 0 0 I I #
coedge $-1 $331 $476 $333 $495 reversed $202 $-1 #
vertex $-1 $487 $666 #
straight-curve $-1 0 -35.069643494753571 16.937930357349501 1 0 0 I I #
edge $-1 $336 -16.937930357349501 $484 16.937930357349501 $333 $667 forward 7 unknown #
edge $-1 $337 -16.937930357349501 $483 16.937930357349501 $334 $668 forward 7 unknown #
point $-1 64.01928769798883 -35.069643494753571 16.937930357349501 #
point $-1 64.01928769798883 35.069643494753571 16.937930357349501 #
face $-1 $-1 $352 $49 $-1 $669 reversed single #
loop $-1 $-1 $506 $339 #
plane-surface $-1 0 0 16.937930357349501 0 0 1 1 0 0 forward_v I I I I #
coedge $-1 $670 $342 $347 $511 forward $210 $-1 #
coedge $-1 $342 $670 $671 $672 reversed $210 $-1 #
coedge $-1 $344 $343 $342 $505 reversed $133 $-1 #
edge $-1 $673 -9.3525630440983569 $516 -5.8181715824039237 $342 $674 forward 7 unknown #
coedge $-1 $671 $675 $344 $507 forward $500 $-1 #
edge $-1 $509 -64.01928769798883 $673 64.01928769798883 $506 $676 forward 7 unknown #
coedge $-1 $351 $345 $675 $677 reversed $352 $-1 #
vertex $-1 $346 $678 #
straight-curve $-1 64.01928769798883 -12.752174350334748 7.5853673132511403 0 0 1 I I #
edge $-1 $516 0.79671988906266833 $514 23.114189033481491 $502 $679 forward 7 unknown #
coedge $-1 $680 $348 $351 $518 reversed $340 $-1 #
coedge $-1 $348 $680 $670 $681 forward $340 $-1 #
vertex $-1 $349 $682 #
straight-curve $-1 0 -35.069643494753571 13.403538895655064 1 0 0 I I #
vertex $-1 $511 $683 #
straight-curve $-1 0 -12.752174350334748 13.403538895655064 1 0 0 I I #
edge $-1 $684 -16.937930357349501 $353 -13.403538895655064 $351 $685 forward 7 unknown #
point $-1 64.01928769798883 -35.069643494753571 13.403538895655064 #
point $-1 64.01928769798883 -12.752174350334748 13.403538895655064 #
face $-1 $-1 $537 $50 $-1 $686 reversed single #
loop $-1 $-1 $362 $356 #
plane-surface $-1 -64.01928769798883 0 0 1 0 0 0 0 -1 forward_v I I I I #
coedge $-1 $687 $359 $540 $688 forward $218 $-1 #
coedge $-1 $359 $687 $528 $689 forward $218 $-1 #
edge $-1 $531 -64.01928769798883 $690 64.01928769798883 $359 $691 forward 7 unknown #
coedge $-1 $361 $360 $369 $542 reversed $137 $-1 #
coedge $-1 $692 $362 $525 $689 reversed $522 $-1 #
coedge $-1 $362 $692 $364 $533 forward $522 $-1 #
vertex $-1 $533 $693 #
vertex $-1 $363 $694 #
straight-curve $-1 -64.01928769798883 12.752174350334748 7.5853673132511403 0 0 1 I I #
edge $-1 $538 -23.114189033481491 $530 -0.79671988906266833 $529 $695 forward 7 unknown #
straight-curve $-1 0 12.752174350334748 13.403538895655064 -1 0 0 I I #
coedge $-1 $696 $366 $692 $697 reversed $537 $-1 #
coedge $-1 $366 $696 $368 $541 forward $537 $-1 #
loop $-1 $-1 $366 $521 #
vertex $-1 $367 $698 #
straight-curve $-1 0 35.069643494753571 13.403538895655064 -1 0 0 I I #
coedge $-1 $369 $368 $524 $688 reversed $357 $-1 #
edge $-1 $699 -16.937930357349501 $371 -13.403538895655064 $368 $700 forward 7 unknown #
edge $-1 $690 -9.3525630440983569 $370 -5.8181715824039237 $369 $701 forward 7 unknown #
point $-1 64.01928769798883 12.752174350334748 13.403538895655064 #
point $-1 64.01928769798883 35.069643494753571 13.403538895655064 #
plane-surface $-1 0 0 16.937930357349501 0 0 1 1 0 0 forward_v I I I I #
coedge $-1 $556 $555 $548 $702 forward $374 $-1 #
coedge $-1 $548 $376 $378 $552 reversed $226 $-1 #
coedge $-1 $376 $547 $546 $702 reversed $226 $-1 #
coedge $-1 $384 $379 $376 $550 forward $385 $-1 #
edge $-1 $553 -14.80832838500659 $703 -3.7894879822429317 $549 $704 forward 7 unknown #
coedge $-1 $378 $377 $556 $705 reversed $141 $-1 #
edge $-1 $706 1.6747963185031944e-014 $553 13.291123144103858 $547 $707 forward 7 unknown #
vertex $-1 $380 $708 #
straight-curve $-1 -53.000447295225172 1.2291909128285816 16.937930357349501 0 1 0 I I #
coedge $-1 $546 $381 $384 $560 reversed $374 $-1 #
coedge $-1 $381 $546 $551 $705 forward $374 $-1 #
vertex $-1 $382 $709 #
straight-curve $-1 -64.01928769798883 -1.2665049663326116 57.82720881572277 0 0 1 I I #
straight-curve $-1 -64.019287697988844 -1.2665049663326116 9.5056285194155663 -0.82903756765294845 0 -0.55919291073839883 I I #
edge $-1 $703 -6.183268617646938 $386 1.2665049663326116 $555 $710 forward 7 unknown #
point $-1 -64.01928769798883 -1.2665049663326116 16.937930357349501 #
point $-1 -53.000447295225172 -1.2665049663326116 16.937930357349501 #
edge $-1 $711 1 $711 0 $389 $-1 forward 7 unknown #
vertex $-1 $390 $712 #
ellipse-curve $-1 -57.455503776776204 0.22344975046329552 11.65862097030433 -0.55919291073839883 0 0.82903756765294845 0.41451878382647422 0 0.27959645536919941 1 I I #
point $-1 -58.095348712780506 0.22344975046329552 13.501375893751728 #
edge $-1 $713 1 $713 0 $393 $-1 forward 7 unknown #
vertex $-1 $394 $714 #
ellipse-curve $-1 -57.455503776776204 2.4583818256571632 11.65862097030433 -0.55919291073839883 0 0.82903756765294845 0.41451878382647422 0 0.27959645536919941 1 I I #
point $-1 -58.095348712780506 2.4583818256571632 13.501375893751728 #
edge $-1 $715 1 $715 0 $397 $-1 forward 7 unknown #
vertex $-1 $398 $716 #
ellipse-curve $-1 -57.455503776776204 4.693313900851031 11.65862097030433 -0.55919291073839883 0 0.82903756765294845 0.41451878382647422 0 0.27959645536919941 1 I I #
point $-1 -58.095348712780506 4.693313900851031 13.501375893751728 #
loop $-1 $-1 $409 $401 #
plane-surface $-1 64.01928769798883 0 0 -1 0 0 0 0 1 forward_v I I I I #
coedge $-1 $578 $404 $406 $582 reversed $255 $-1 #
coedge $-1 $404 $577 $717 $718 reversed $255 $-1 #
coedge $-1 $412 $407 $404 $580 forward $402 $-1 #
edge $-1 $583 8.9971546405609217 $719 20.975964613361811 $579 $720 forward 7 unknown #
coedge $-1 $406 $405 $586 $721 reversed $160 $-1 #
edge $-1 $722 -128.03857539597763 $583 -108.58176242578301 $577 $723 forward 7 unknown #
vertex $-1 $408 $724 #
straight-curve $-1 52.040477725187941 -3.9620603796447931 16.937930357349501 0 -1 0 I I #
coedge $-1 $717 $409 $412 $590 reversed $575 $-1 #
coedge $-1 $409 $717 $581 $721 forward $575 $-1 #
vertex $-1 $410 $725 #
straight-curve $-1 64.01928769798883 -5.0671294938193103 90.664972282424799 0 0 1 I I #
straight-curve $-1 -14.809129176144978 -5.0671294938193103 102.50152769071578 0.61566146476048833 0 -0.78801076186113728 I I #
edge $-1 $719 -10.781112024759862 $413 -5.0671294938193103 $585 $726 forward 7 unknown #
point $-1 64.01928769798883 -5.0671294938193103 16.937930357349501 #
point $-1 52.040477725187941 -5.0671294938193103 16.937930357349501 #
edge $-1 $727 1 $727 0 $416 $-1 forward 7 unknown #
vertex $-1 $417 $728 #
ellipse-curve $-1 57.241871949727241 -9.1485455873482735 8.656179886572632 0.78801076186113728 0 0.61566146476048833 0.30783073238024417 0 -0.39400538093056864 1 I I #
point $-1 58.337713443968624 -9.1485455873482735 8.8778359704025522 #
edge $-1 $729 1 $729 0 $420 $-1 forward 7 unknown #
vertex $-1 $421 $730 #
ellipse-curve $-1 57.241871949727241 -6.6996959312308952 8.656179886572632 0.78801076186113728 0 0.61566146476048833 0.30783073238024417 0 -0.39400538093056864 1 I I #
point $-1 58.337713443968624 -6.6996959312308952 8.8778359704025522 #
plane-surface $-1 0 0 16.937930357349501 0 0 1 1 0 0 forward_v I I I I #
coedge $-1 $612 $611 $604 $731 forward $425 $-1 #
coedge $-1 $604 $427 $429 $608 reversed $277 $-1 #
coedge $-1 $427 $603 $602 $731 reversed $277 $-1 #
coedge $-1 $435 $430 $427 $606 forward $436 $-1 #
edge $-1 $609 8.9971546405609217 $732 20.975964613361811 $605 $733 forward 7 unknown #
coedge $-1 $429 $428 $612 $734 reversed $174 $-1 #
edge $-1 $735 -128.03857539597763 $609 -108.58176242578301 $603 $736 forward 7 unknown #
vertex $-1 $431 $737 #
straight-curve $-1 52.040477725187941 0.28866440380012293 16.937930357349501 0 -1 0 I I #
coedge $-1 $602 $432 $435 $616 reversed $425 $-1 #
coedge $-1 $432 $602 $607 $734 forward $425 $-1 #
vertex $-1 $433 $738 #
straight-curve $-1 64.01928769798883 3.4343200730705217 90.664972282424799 0 0 1 I I #
straight-curve $-1 -14.809129176144978 3.4343200730705217 102.50152769071578 0.61566146476048833 0 -0.78801076186113728 I I #
edge $-1 $732 -2.27966245787003 $437 3.4343200730705217 $611 $739 forward 7 unknown #
point $-1 64.01928769798883 3.4343200730705217 16.937930357349501 #
point $-1 52.040477725187941 3.4343200730705217 16.937930357349501 #
edge $-1 $740 1 $740 0 $440 $-1 forward 7 unknown #
vertex $-1 $441 $741 #
ellipse-curve $-1 57.241871949727241 -0.6470960204584415 8.656179886572632 0.78801076186113728 0 0.61566146476048833 0.30783073238024417 0 -0.39400538093056864 1 I I #
point $-1 58.337713443968624 -0.6470960204584415 8.8778359704025522 #
edge $-1 $742 1 $742 0 $444 $-1 forward 7 unknown #
vertex $-1 $445 $743 #
ellipse-curve $-1 57.241871949727241 1.8017536356589332 8.656179886572632 0.78801076186113728 0 0.61566146476048833 0.30783073238024417 0 -0.39400538093056864 1 I I #
point $-1 58.337713443968624 1.8017536356589332 8.8778359704025522 #
plane-surface $-1 0 0 16.937930357349501 0 0 1 1 0 0 forward_v I I I I #
coedge $-1 $638 $637 $630 $744 forward $449 $-1 #
coedge $-1 $630 $451 $453 $634 reversed $299 $-1 #
coedge $-1 $451 $629 $628 $744 reversed $299 $-1 #
coedge $-1 $459 $454 $451 $632 forward $460 $-1 #
edge $-1 $635 8.9971546405609217 $745 20.975964613361811 $631 $746 forward 7 unknown #
coedge $-1 $453 $452 $638 $747 reversed $188 $-1 #
edge $-1 $748 -128.03857539597763 $635 -108.58176242578301 $629 $749 forward 7 unknown #
vertex $-1 $455 $750 #
straight-curve $-1 52.040477725187941 4.5393891872450389 16.937930357349501 0 -1 0 I I #
coedge $-1 $628 $456 $459 $642 reversed $449 $-1 #
coedge $-1 $456 $628 $633 $747 forward $449 $-1 #
vertex $-1 $457 $751 #
straight-curve $-1 64.01928769798883 11.935769639960354 90.664972282424799 0 0 1 I I #
straight-curve $-1 -14.809129176144978 11.935769639960354 102.50152769071578 0.61566146476048833 0 -0.78801076186113728 I I #
edge $-1 $745 6.221787109019802 $461 11.935769639960354 $637 $752 forward 7 unknown #
point $-1 64.01928769798883 11.935769639960354 16.937930357349501 #
point $-1 52.040477725187941 11.935769639960354 16.937930357349501 #
edge $-1 $753 1 $753 0 $464 $-1 forward 7 unknown #
vertex $-1 $465 $754 #
ellipse-curve $-1 57.241871949727241 7.8543535464313905 8.656179886572632 0.78801076186113728 0 0.61566146476048833 0.30783073238024417 0 -0.39400538093056864 1 I I #
point $-1 58.337713443968624 7.8543535464313905 8.8778359704025522 #
edge $-1 $755 1 $755 0 $468 $-1 forward 7 unknown #
vertex $-1 $469 $756 #
ellipse-curve $-1 57.241871949727241 10.303203202548765 8.656179886572632 0.78801076186113728 0 0.61566146476048833 0.30783073238024417 0 -0.39400538093056864 1 I I #
point $-1 58.337713443968624 10.303203202548765 8.8778359704025522 #
plane-surface $-1 64.01928769798883 0 0 -1 0 0 0 0 1 forward_v I I I I #
coedge $-1 $477 $475 $479 $658 reversed $321 $-1 #
edge $-1 $490 -16.937930357349501 $660 16.937930357349501 $489 $757 forward 7 unknown #
vertex $-1 $658 $758 #
straight-curve $-1 -64.01928769798883 -35.069643494753571 0 0 0 -1 I I #
edge $-1 $656 -35.069643494753571 $660 35.069643494753571 $654 $759 forward 7 unknown #
straight-curve $-1 0 -35.069643494753571 -16.937930357349501 -1 0 0 I I #
vertex $-1 $482 $760 #
straight-curve $-1 0 35.069643494753571 -16.937930357349501 1 0 0 I I #
point $-1 64.01928769798883 35.069643494753571 -16.937930357349501 #
point $-1 64.01928769798883 -35.069643494753571 -16.937930357349501 #
straight-curve $-1 -64.01928769798883 0 16.937930357349501 0 -1 0 I I #
point $-1 -64.01928769798883 35.069643494753571 16.937930357349501 #
point $-1 -64.01928769798883 -35.069643494753571 16.937930357349501 #
straight-curve $-1 64.01928769798883 -35.069643494753571 0 0 0 -1 I I #
straight-curve $-1 64.01928769798883 35.069643494753571 0 0 0 -1 I I #
plane-surface $-1 64.01928769798883 0 0 -1 0 0 0 0 1 forward_v I I I I #
coedge $-1 $503 $502 $513 $681 reversed $210 $-1 #
coedge $-1 $761 $506 $503 $672 forward $500 $-1 #
edge $-1 $673 12.752174350334748 $762 35.069643494753571 $503 $763 forward 7 unknown #
vertex $-1 $672 $764 #
straight-curve $-1 -64.01928769798883 -12.752174350334748 7.5853673132511403 0 0 -1 I I #
coedge $-1 $506 $761 $508 $677 forward $500 $-1 #
straight-curve $-1 0 -12.752174350334748 16.937930357349501 -1 0 0 I I #
edge $-1 $684 -35.069643494753571 $509 -12.752174350334748 $508 $765 forward 7 unknown #
point $-1 64.01928769798883 -12.752174350334748 16.937930357349497 #
straight-curve $-1 -64.01928769798883 -11.95545446127208 13.403538895655064 0 -1 0 I I #
coedge $-1 $513 $512 $761 $766 reversed $340 $-1 #
edge $-1 $762 -16.937930357349501 $514 -13.403538895655064 $670 $767 forward 7 unknown #
point $-1 -64.01928769798883 -35.069643494753571 13.403538895655064 #
point $-1 -64.01928769798883 -12.752174350334748 13.403538895655064 #
vertex $-1 $677 $768 #
straight-curve $-1 64.01928769798883 -35.069643494753571 0 0 0 -1 I I #
plane-surface $-1 0 35.069643494753571 0 0 -1 0 0 0 -1 forward_v I I I I #
coedge $-1 $525 $524 $696 $769 forward $218 $-1 #
edge $-1 $690 12.752174350334748 $699 35.069643494753571 $540 $770 forward 7 unknown #
edge $-1 $771 -35.069643494753571 $531 -12.752174350334748 $528 $772 forward 7 unknown #
vertex $-1 $688 $773 #
straight-curve $-1 0 12.752174350334748 16.937930357349501 1 0 0 I I #
coedge $-1 $529 $528 $535 $697 forward $522 $-1 #
point $-1 -64.01928769798883 12.752174350334748 13.403538895655064 #
point $-1 -64.01928769798883 12.752174350334748 16.937930357349497 #
straight-curve $-1 -64.01928769798883 11.95545446127208 13.403538895655064 0 -1 0 I I #
coedge $-1 $536 $535 $687 $769 reversed $537 $-1 #
edge $-1 $771 -16.937930357349501 $538 -13.403538895655064 $535 $774 forward 7 unknown #
point $-1 -64.01928769798883 35.069643494753571 13.403538895655064 #
vertex $-1 $688 $775 #
straight-curve $-1 64.01928769798883 35.069643494753571 0 0 0 -1 I I #
straight-curve $-1 64.01928769798883 12.752174350334748 7.5853673132511403 0 0 -1 I I #
edge $-1 $703 40.889278458373269 $706 48.321580296307197 $546 $776 forward 7 unknown #
vertex $-1 $560 $777 #
straight-curve $-1 -67.808775680231761 6.183268617646938 16.937930357349501 -1 0 0 I I #
edge $-1 $706 -4.9540777048183564 $557 2.4956958791611932 $556 $778 forward 7 unknown #
vertex $-1 $705 $779 #
straight-curve $-1 -64.019287697988844 6.183268617646938 9.5056285194155663 0.82903756765294845 0 0.55919291073839883 I I #
point $-1 -53.000447295225172 6.183268617646938 16.937930357349501 #
point $-1 -64.01928769798883 -1.2665049663326116 9.5056285194155752 #
straight-curve $-1 -64.01928769798883 0 16.937930357349501 0 -1 0 I I #
vertex $-1 $563 $780 #
point $-1 -57.040984992949731 0.22344975046329552 11.93821742567353 #
vertex $-1 $567 $781 #
point $-1 -57.040984992949731 2.4583818256571632 11.93821742567353 #
vertex $-1 $571 $782 #
point $-1 -57.040984992949731 4.693313900851031 11.93821742567353 #
coedge $-1 $586 $585 $578 $718 forward $575 $-1 #
edge $-1 $719 73.727041925075298 $722 89.059219937108026 $717 $783 forward 7 unknown #
vertex $-1 $590 $784 #
straight-curve $-1 43.043323084627019 -10.781112024759862 16.937930357349501 1 0 0 I I #
edge $-1 $722 -6.8190516451150689 $587 -1.1050691141745173 $586 $785 forward 7 unknown #
vertex $-1 $721 $786 #
straight-curve $-1 -14.809129176144978 -10.781112024759862 102.50152769071578 -0.61566146476048833 0 0.78801076186113728 I I #
point $-1 52.040477725187941 -10.781112024759862 16.937930357349501 #
point $-1 64.01928769798883 -5.0671294938193103 1.6057523453167732 #
straight-curve $-1 64.01928769798883 0 16.937930357349501 0 1 0 I I #
vertex $-1 $593 $787 #
point $-1 57.549702682107487 -9.1485455873482735 8.262174505642065 #
vertex $-1 $597 $788 #
point $-1 57.549702682107487 -6.6996959312308952 8.262174505642065 #
edge $-1 $732 73.727041925075298 $735 89.059219937108026 $602 $789 forward 7 unknown #
vertex $-1 $616 $790 #
straight-curve $-1 43.043323084627019 -2.27966245787003 16.937930357349501 1 0 0 I I #
edge $-1 $735 -2.5683268616701529 $613 3.1456556692703987 $612 $791 forward 7 unknown #
vertex $-1 $734 $792 #
straight-curve $-1 -14.809129176144978 -2.27966245787003 102.50152769071578 -0.61566146476048833 0 0.78801076186113728 I I #
point $-1 52.040477725187941 -2.27966245787003 16.937930357349501 #
point $-1 64.01928769798883 3.4343200730705217 1.6057523453167732 #
straight-curve $-1 64.01928769798883 0 16.937930357349501 0 1 0 I I #
vertex $-1 $619 $793 #
point $-1 57.549702682107487 -0.6470960204584415 8.262174505642065 #
vertex $-1 $623 $794 #
point $-1 57.549702682107487 1.8017536356589332 8.262174505642065 #
edge $-1 $745 73.727041925075298 $748 89.059219937108026 $628 $795 forward 7 unknown #
vertex $-1 $642 $796 #
straight-curve $-1 43.043323084627019 6.221787109019802 16.937930357349501 1 0 0 I I #
edge $-1 $748 1.6823979217747631 $639 7.3963804527153147 $638 $797 forward 7 unknown #
vertex $-1 $747 $798 #
straight-curve $-1 -14.809129176144978 6.221787109019802 102.50152769071578 -0.61566146476048833 0 0.78801076186113728 I I #
point $-1 52.040477725187941 6.221787109019802 16.937930357349501 #
point $-1 64.01928769798883 11.935769639960354 1.6057523453167732 #
straight-curve $-1 64.01928769798883 0 16.937930357349501 0 1 0 I I #
vertex $-1 $645 $799 #
point $-1 57.549702682107487 7.8543535464313905 8.262174505642065 #
vertex $-1 $649 $800 #
point $-1 57.549702682107487 10.303203202548765 8.262174505642065 #
straight-curve $-1 -64.01928769798883 35.069643494753571 0 0 0 -1 I I #
point $-1 -64.01928769798883 -35.069643494753571 -16.937930357349501 #
straight-curve $-1 -64.01928769798883 0 -16.937930357349501 0 1 0 I I #
point $-1 -64.01928769798883 35.069643494753571 -16.937930357349501 #
coedge $-1 $675 $671 $680 $766 forward $500 $-1 #
vertex $-1 $672 $801 #
straight-curve $-1 -64.01928769798883 0 16.937930357349501 0 -1 0 I I #
point $-1 -64.01928769798883 -12.752174350334748 16.937930357349497 #
straight-curve $-1 64.01928769798883 0 16.937930357349501 0 1 0 I I #
edge $-1 $762 -64.01928769798883 $684 64.01928769798883 $680 $802 forward 7 unknown #
straight-curve $-1 -64.01928769798883 -35.069643494753571 0 0 0 -1 I I #
point $-1 64.01928769798883 -35.069643494753571 16.937930357349501 #
edge $-1 $699 -64.01928769798883 $771 64.01928769798883 $696 $803 forward 7 unknown #
straight-curve $-1 64.01928769798883 0 16.937930357349501 0 1 0 I I #
vertex $-1 $769 $804 #
straight-curve $-1 -64.01928769798883 0 16.937930357349501 0 -1 0 I I #
point $-1 64.01928769798883 12.752174350334748 16.937930357349497 #
straight-curve $-1 -64.01928769798883 35.069643494753571 0 0 0 -1 I I #
point $-1 64.01928769798883 35.069643494753571 16.937930357349501 #
straight-curve $-1 -64.01928769798883 6.183268617646938 57.82720881572277 0 0 -1 I I #
point $-1 -64.01928769798883 6.183268617646938 16.937930357349501 #
straight-curve $-1 -64.01928769798883 1.2291909128285816 9.5056285194155699 0 -1 0 I I #
point $-1 -64.01928769798883 6.183268617646938 9.5056285194155752 #
point $-1 -57.175907321407003 0.22344975046329552 11.244102186477857 #
point $-1 -57.175907321407003 2.4583818256571632 11.244102186477857 #
point $-1 -57.175907321407003 4.693313900851031 11.244102186477857 #
straight-curve $-1 64.01928769798883 -10.781112024759862 90.664972282424799 0 0 -1 I I #
point $-1 64.01928769798883 -10.781112024759862 16.937930357349501 #
straight-curve $-1 64.01928769798883 -3.9620603796447931 1.6057523453167661 0 1 0 I I #
point $-1 64.01928769798883 -10.781112024759862 1.6057523453167732 #
point $-1 56.847866568796675 -9.1485455873482735 8.3483491541923893 #
point $-1 56.847866568796675 -6.6996959312308952 8.3483491541923893 #
straight-curve $-1 64.01928769798883 -2.27966245787003 90.664972282424799 0 0 -1 I I #
point $-1 64.01928769798883 -2.27966245787003 16.937930357349501 #
straight-curve $-1 64.01928769798883 0.28866440380012293 1.6057523453167661 0 1 0 I I #
point $-1 64.01928769798883 -2.27966245787003 1.6057523453167732 #
point $-1 56.847866568796675 -0.6470960204584415 8.3483491541923893 #
point $-1 56.847866568796675 1.8017536356589332 8.3483491541923893 #
straight-curve $-1 64.01928769798883 6.221787109019802 90.664972282424799 0 0 -1 I I #
point $-1 64.01928769798883 6.221787109019802 16.937930357349501 #
straight-curve $-1 64.01928769798883 4.5393891872450389 1.6057523453167661 0 1 0 I I #
point $-1 64.01928769798883 6.221787109019802 1.6057523453167732 #
point $-1 56.847866568796675 7.8543535464313905 8.3483491541923893 #
point $-1 56.847866568796675 10.303203202548765 8.3483491541923893 #
point $-1 -64.01928769798883 -35.069643494753571 16.937930357349501 #
straight-curve $-1 0 -35.069643494753571 16.937930357349501 1 0 0 I I #
straight-curve $-1 0 35.069643494753571 16.937930357349501 -1 0 0 I I #
point $-1 -64.01928769798883 35.069643494753571 16.937930357349501 #
End-of-ACIS-data 