500 0 18 0           
7 Unknown 11 ACIS 5.0 NT 24 Thu Mar 25 23:28:43 1999 
-1 9.9999999999999995e-007 1e-010 
body $-1 $18 $-1 $19 #
body $-1 $20 $-1 $21 #
body $-1 $22 $-1 $23 #
body $-1 $24 $-1 $25 #
body $-1 $26 $-1 $27 #
body $-1 $28 $-1 $29 #
body $-1 $30 $-1 $31 #
body $-1 $32 $-1 $33 #
body $-1 $34 $-1 $35 #
body $-1 $36 $-1 $37 #
body $-1 $38 $-1 $39 #
body $-1 $40 $-1 $41 #
body $-1 $42 $-1 $43 #
body $-1 $44 $-1 $45 #
body $-1 $46 $-1 $47 #
body $-1 $48 $-1 $49 #
body $-1 $50 $-1 $51 #
body $-1 $52 $-1 $53 #
lump $-1 $-1 $54 $0 #
transform $-1 1 0 0 0 1 0 0 0 1 69.886165959654534 32.781468269902348 14.279902508538411 1 rotate no_reflect no_shear #
lump $-1 $-1 $55 $1 #
transform $-1 1 0 0 0 1 0 0 0 1 69.886165959654534 32.781468269902348 14.279902508538411 1 rotate no_reflect no_shear #
lump $-1 $-1 $56 $2 #
transform $-1 1 0 0 0 1 0 0 0 1 69.886165959654534 32.781468269902348 14.279902508538411 1 rotate no_reflect no_shear #
lump $-1 $-1 $57 $3 #
transform $-1 1 0 0 0 1 0 0 0 1 69.886165959654534 32.781468269902348 14.279902508538411 1 rotate no_reflect no_shear #
lump $-1 $-1 $58 $4 #
transform $-1 1 0 0 0 1 0 0 0 1 69.886165959654534 32.781468269902348 14.279902508538411 1 rotate no_reflect no_shear #
lump $-1 $-1 $59 $5 #
transform $-1 1 0 0 0 1 0 0 0 1 69.886165959654534 32.781468269902348 14.279902508538411 1 rotate no_reflect no_shear #
lump $-1 $-1 $60 $6 #
transform $-1 1 0 0 0 1 0 0 0 1 69.886165959654534 32.781468269902348 14.279902508538411 1 rotate no_reflect no_shear #
lump $-1 $-1 $61 $7 #
transform $-1 1 0 0 0 1 0 0 0 1 69.886165959654534 32.781468269902348 14.279902508538411 1 rotate no_reflect no_shear #
lump $-1 $-1 $62 $8 #
transform $-1 1 0 0 0 1 0 0 0 1 69.886165959654534 32.781468269902348 14.279902508538411 1 rotate no_reflect no_shear #
lump $-1 $-1 $63 $9 #
transform $-1 1 0 0 0 1 0 0 0 1 69.886165959654534 32.781468269902348 14.279902508538411 1 rotate no_reflect no_shear #
lump $-1 $-1 $64 $10 #
transform $-1 1 0 0 0 1 0 0 0 1 69.886165959654534 32.781468269902348 14.279902508538411 1 rotate no_reflect no_shear #
lump $-1 $-1 $65 $11 #
transform $-1 1 0 0 0 1 0 0 0 1 69.886165959654534 32.781468269902348 14.279902508538411 1 rotate no_reflect no_shear #
lump $-1 $-1 $66 $12 #
transform $-1 1 0 0 0 1 0 0 0 1 69.886165959654534 32.781468269902348 14.279902508538411 1 rotate no_reflect no_shear #
lump $-1 $-1 $67 $13 #
transform $-1 1 0 0 0 1 0 0 0 1 69.886165959654534 32.781468269902348 14.279902508538411 1 rotate no_reflect no_shear #
lump $-1 $-1 $68 $14 #
transform $-1 1 0 0 0 1 0 0 0 1 69.886165959654534 32.781468269902348 14.279902508538411 1 rotate no_reflect no_shear #
lump $-1 $-1 $69 $15 #
transform $-1 1 0 0 0 1 0 0 0 1 69.886165959654534 32.781468269902348 14.279902508538411 1 rotate no_reflect no_shear #
lump $-1 $-1 $70 $16 #
transform $-1 1 0 0 0 1 0 0 0 1 69.886165959654534 32.781468269902348 14.279902508538411 1 rotate no_reflect no_shear #
lump $-1 $-1 $71 $17 #
transform $-1 1 0 0 0 1 0 0 0 1 69.886165959654534 32.781468269902348 14.279902508538411 1 rotate no_reflect no_shear #
shell $-1 $-1 $-1 $72 $-1 $18 #
shell $-1 $-1 $-1 $73 $-1 $20 #
shell $-1 $-1 $-1 $74 $-1 $22 #
shell $-1 $-1 $-1 $75 $-1 $24 #
shell $-1 $-1 $-1 $76 $-1 $26 #
shell $-1 $-1 $-1 $77 $-1 $28 #
shell $-1 $-1 $-1 $78 $-1 $30 #
shell $-1 $-1 $-1 $79 $-1 $32 #
shell $-1 $-1 $-1 $80 $-1 $34 #
shell $-1 $-1 $-1 $81 $-1 $36 #
shell $-1 $-1 $-1 $82 $-1 $38 #
shell $-1 $-1 $-1 $83 $-1 $40 #
shell $-1 $-1 $-1 $84 $-1 $42 #
shell $-1 $-1 $-1 $85 $-1 $44 #
shell $-1 $-1 $-1 $86 $-1 $46 #
shell $-1 $-1 $-1 $87 $-1 $48 #
shell $-1 $-1 $-1 $88 $-1 $50 #
shell $-1 $-1 $-1 $89 $-1 $52 #
face $-1 $90 $91 $54 $-1 $92 forward single #
face $-1 $93 $94 $55 $-1 $95 forward single #
face $-1 $96 $97 $56 $-1 $98 reversed single #
face $-1 $99 $100 $57 $-1 $101 forward single #
face $-1 $102 $103 $58 $-1 $104 forward single #
face $-1 $105 $106 $59 $-1 $107 forward single #
face $-1 $108 $109 $60 $-1 $110 reversed single #
face $-1 $111 $112 $61 $-1 $113 forward single #
face $-1 $114 $115 $62 $-1 $116 forward single #
face $-1 $117 $118 $63 $-1 $119 forward single #
face $-1 $120 $121 $64 $-1 $122 reversed single #
face $-1 $123 $124 $65 $-1 $125 forward single #
face $-1 $126 $127 $66 $-1 $128 forward single #
face $-1 $129 $130 $67 $-1 $131 forward single #
face $-1 $132 $133 $68 $-1 $134 reversed single #
face $-1 $135 $136 $69 $-1 $137 forward single #
face $-1 $138 $139 $70 $-1 $140 forward single #
face $-1 $141 $142 $71 $-1 $143 forward single #
face $-1 $144 $145 $54 $-1 $146 reversed single #
loop $-1 $-1 $147 $72 #
plane-surface $-1 0 0 14.279902508538411 0 0 1 1 0 0 forward_v I I I I #
face $-1 $148 $149 $55 $-1 $150 forward single #
loop $-1 $-1 $151 $73 #
plane-surface $-1 -69.886165959654534 0 0 1 0 0 0 0 -1 forward_v I I I I #
face $-1 $152 $153 $56 $-1 $154 reversed single #
loop $-1 $-1 $155 $74 #
plane-surface $-1 -9.2738516749191611 -129.87548973686467 111.34107011488126 -1 0 0 0 -0.69465837861970381 0.71933979245794832 forward_v I I I I #
face $-1 $156 $157 $57 $-1 $158 forward single #
loop $-1 $159 $160 $75 #
cone-surface $-1 -34.387513528762497 -30.584938826457083 12.131266924940579 0 0.69465837861970381 -0.71933979245794832 1 0 0 1 I I 0 1 1 forward I I I I #
face $-1 $161 $162 $58 $-1 $163 forward single #
loop $-1 $164 $165 $76 #
cone-surface $-1 -24.969890333571243 -30.584938826457083 12.131266924940579 0 0.69465837861970381 -0.71933979245794832 1 0 0 1 I I 0 1 1 forward I I I I #
face $-1 $166 $167 $59 $-1 $168 forward single #
loop $-1 $169 $170 $77 #
cone-surface $-1 -15.552267138379989 -30.584938826457083 12.131266924940579 0 0.69465837861970381 -0.71933979245794832 1 0 0 1 I I 0 1 1 forward I I I I #
face $-1 $171 $172 $60 $-1 $173 reversed single #
loop $-1 $-1 $174 $78 #
plane-surface $-1 55.159733522874987 -129.87548973686467 111.34107011488126 -1 0 0 0 -0.69465837861970381 0.71933979245794832 forward_v I I I I #
face $-1 $175 $176 $61 $-1 $177 forward single #
loop $-1 $178 $179 $79 #
cone-surface $-1 30.046071669031647 -30.584938826457083 12.131266924940579 0 0.69465837861970381 -0.71933979245794832 1 0 0 1 I I 0 1 1 forward I I I I #
face $-1 $180 $181 $62 $-1 $182 forward single #
loop $-1 $183 $184 $80 #
cone-surface $-1 39.463694864222902 -30.584938826457083 12.131266924940579 0 0.69465837861970381 -0.71933979245794832 1 0 0 1 I I 0 1 1 forward I I I I #
face $-1 $185 $186 $63 $-1 $187 forward single #
loop $-1 $188 $189 $81 #
cone-surface $-1 48.881318059414156 -30.584938826457083 12.131266924940579 0 0.69465837861970381 -0.71933979245794832 1 0 0 1 I I 0 1 1 forward I I I I #
face $-1 $190 $191 $64 $-1 $192 reversed single #
loop $-1 $-1 $193 $82 #
plane-surface $-1 -40.665928992223328 82.713460573387934 156.88491330916852 1 0 0 0 -0.69465837861970381 -0.71933979245794832 forward_v I I I I #
face $-1 $194 $195 $65 $-1 $196 forward single #
loop $-1 $197 $198 $83 #
cone-surface $-1 -34.387513528762497 30.584938826457083 12.131266924940572 0 -0.69465837861970381 -0.71933979245794832 1 0 0 1 I I 0 1 1 forward I I I I #
face $-1 $199 $200 $66 $-1 $201 forward single #
loop $-1 $202 $203 $84 #
cone-surface $-1 -24.969890333571243 30.584938826457083 12.131266924940572 0 -0.69465837861970381 -0.71933979245794832 1 0 0 1 I I 0 1 1 forward I I I I #
face $-1 $204 $205 $67 $-1 $206 forward single #
loop $-1 $207 $208 $85 #
cone-surface $-1 -15.552267138379989 30.584938826457083 12.131266924940572 0 -0.69465837861970381 -0.71933979245794832 1 0 0 1 I I 0 1 1 forward I I I I #
face $-1 $209 $210 $68 $-1 $211 reversed single #
loop $-1 $-1 $212 $86 #
plane-surface $-1 23.76765620557082 82.713460573387934 156.88491330916852 1 0 0 0 -0.69465837861970381 -0.71933979245794832 forward_v I I I I #
face $-1 $213 $214 $69 $-1 $215 forward single #
loop $-1 $216 $217 $87 #
cone-surface $-1 30.046071669031647 30.584938826457083 12.131266924940572 0 -0.69465837861970381 -0.71933979245794832 1 0 0 1 I I 0 1 1 forward I I I I #
face $-1 $218 $219 $70 $-1 $220 forward single #
loop $-1 $221 $222 $88 #
cone-surface $-1 39.463694864222902 30.584938826457083 12.131266924940572 0 -0.69465837861970381 -0.71933979245794832 1 0 0 1 I I 0 1 1 forward I I I I #
face $-1 $223 $224 $71 $-1 $225 forward single #
loop $-1 $226 $227 $89 #
cone-surface $-1 48.881318059414156 30.584938826457083 12.131266924940572 0 -0.69465837861970381 -0.71933979245794832 1 0 0 1 I I 0 1 1 forward I I I I #
face $-1 $228 $229 $54 $-1 $230 reversed single #
loop $-1 $-1 $231 $90 #
plane-surface $-1 0 0 -14.279902508538411 0 0 1 1 0 0 forward_v I I I I #
coedge $-1 $232 $233 $234 $235 forward $91 $-1 #
face $-1 $236 $237 $55 $-1 $238 reversed single #
loop $-1 $-1 $239 $93 #
plane-surface $-1 0 0 14.279902508538411 0 0 1 1 0 0 forward_v I I I I #
coedge $-1 $240 $241 $242 $243 forward $94 $-1 #
face $-1 $244 $245 $56 $-1 $246 reversed single #
loop $-1 $-1 $247 $96 #
plane-surface $-1 -24.969890333571243 -32.781468269902362 10.797269880682009 0 -0.69465837861970381 0.71933979245794832 1 0 0 forward_v I I I I #
coedge $-1 $248 $249 $250 $251 reversed $97 $-1 #
face $-1 $-1 $252 $57 $-1 $253 forward single #
loop $-1 $254 $255 $99 #
cone-surface $-1 -34.387513528762497 -29.844265981734466 11.364277759041974 0 0.69465837861970381 -0.71933979245794832 0.5 0 0 1 I I -0.70710678118654746 0.70710678118654746 0.5 forward I I I I #
loop $-1 $-1 $256 $75 #
coedge $-1 $160 $160 $257 $258 reversed $100 $-1 #
face $-1 $-1 $259 $58 $-1 $260 forward single #
loop $-1 $261 $262 $102 #
cone-surface $-1 -24.969890333571243 -29.844265981734466 11.364277759041974 0 0.69465837861970381 -0.71933979245794832 0.5 0 0 1 I I -0.70710678118654746 0.70710678118654746 0.5 forward I I I I #
loop $-1 $-1 $263 $76 #
coedge $-1 $165 $165 $264 $265 reversed $103 $-1 #
face $-1 $-1 $266 $59 $-1 $267 forward single #
loop $-1 $268 $269 $105 #
cone-surface $-1 -15.552267138379989 -29.844265981734466 11.364277759041974 0 0.69465837861970381 -0.71933979245794832 0.5 0 0 1 I I -0.70710678118654746 0.70710678118654746 0.5 forward I I I I #
loop $-1 $-1 $270 $77 #
coedge $-1 $170 $170 $271 $272 reversed $106 $-1 #
face $-1 $273 $274 $60 $-1 $275 reversed single #
loop $-1 $-1 $276 $108 #
plane-surface $-1 39.463694864222902 -32.781468269902362 10.797269880682009 0 -0.69465837861970381 0.71933979245794832 1 0 0 forward_v I I I I #
coedge $-1 $277 $278 $279 $280 reversed $109 $-1 #
face $-1 $-1 $281 $61 $-1 $282 forward single #
loop $-1 $283 $284 $111 #
cone-surface $-1 30.046071669031647 -29.844265981734466 11.364277759041974 0 0.69465837861970381 -0.71933979245794832 0.5 0 0 1 I I -0.70710678118654746 0.70710678118654746 0.5 forward I I I I #
loop $-1 $-1 $285 $79 #
coedge $-1 $179 $179 $286 $287 reversed $112 $-1 #
face $-1 $-1 $288 $62 $-1 $289 forward single #
loop $-1 $290 $291 $114 #
cone-surface $-1 39.463694864222902 -29.844265981734466 11.364277759041974 0 0.69465837861970381 -0.71933979245794832 0.5 0 0 1 I I -0.70710678118654746 0.70710678118654746 0.5 forward I I I I #
loop $-1 $-1 $292 $80 #
coedge $-1 $184 $184 $293 $294 reversed $115 $-1 #
face $-1 $-1 $295 $63 $-1 $296 forward single #
loop $-1 $297 $298 $117 #
cone-surface $-1 48.881318059414156 -29.844265981734466 11.364277759041974 0 0.69465837861970381 -0.71933979245794832 0.5 0 0 1 I I -0.70710678118654746 0.70710678118654746 0.5 forward I I I I #
loop $-1 $-1 $299 $81 #
coedge $-1 $189 $189 $300 $301 reversed $118 $-1 #
face $-1 $302 $303 $64 $-1 $304 reversed single #
loop $-1 $-1 $305 $120 #
plane-surface $-1 -24.969890333571243 -14.380560893574369 56.341113074969272 0 0.69465837861970381 0.71933979245794832 1 0 0 forward_v I I I I #
coedge $-1 $306 $307 $308 $309 reversed $121 $-1 #
face $-1 $-1 $310 $65 $-1 $311 forward single #
loop $-1 $312 $313 $123 #
cone-surface $-1 -34.387513528762497 29.844265981734466 11.364277759041967 0 -0.69465837861970381 -0.71933979245794832 0.5 0 0 1 I I -0.70710678118654746 0.70710678118654746 0.5 forward I I I I #
loop $-1 $-1 $314 $83 #
coedge $-1 $198 $198 $315 $316 reversed $124 $-1 #
face $-1 $-1 $317 $66 $-1 $318 forward single #
loop $-1 $319 $320 $126 #
cone-surface $-1 -24.969890333571243 29.844265981734466 11.364277759041967 0 -0.69465837861970381 -0.71933979245794832 0.5 0 0 1 I I -0.70710678118654746 0.70710678118654746 0.5 forward I I I I #
loop $-1 $-1 $321 $84 #
coedge $-1 $203 $203 $322 $323 reversed $127 $-1 #
face $-1 $-1 $324 $67 $-1 $325 forward single #
loop $-1 $326 $327 $129 #
cone-surface $-1 -15.552267138379989 29.844265981734466 11.364277759041967 0 -0.69465837861970381 -0.71933979245794832 0.5 0 0 1 I I -0.70710678118654746 0.70710678118654746 0.5 forward I I I I #
loop $-1 $-1 $328 $85 #
coedge $-1 $208 $208 $329 $330 reversed $130 $-1 #
face $-1 $331 $332 $68 $-1 $333 reversed single #
loop $-1 $-1 $334 $132 #
plane-surface $-1 39.463694864222902 -14.380560893574369 56.341113074969272 0 0.69465837861970381 0.71933979245794832 1 0 0 forward_v I I I I #
coedge $-1 $335 $336 $337 $338 reversed $133 $-1 #
face $-1 $-1 $339 $69 $-1 $340 forward single #
loop $-1 $341 $342 $135 #
cone-surface $-1 30.046071669031647 29.844265981734466 11.364277759041967 0 -0.69465837861970381 -0.71933979245794832 0.5 0 0 1 I I -0.70710678118654746 0.70710678118654746 0.5 forward I I I I #
loop $-1 $-1 $343 $87 #
coedge $-1 $217 $217 $344 $345 reversed $136 $-1 #
face $-1 $-1 $346 $70 $-1 $347 forward single #
loop $-1 $348 $349 $138 #
cone-surface $-1 39.463694864222902 29.844265981734466 11.364277759041967 0 -0.69465837861970381 -0.71933979245794832 0.5 0 0 1 I I -0.70710678118654746 0.70710678118654746 0.5 forward I I I I #
loop $-1 $-1 $350 $88 #
coedge $-1 $222 $222 $351 $352 reversed $139 $-1 #
face $-1 $-1 $353 $71 $-1 $354 forward single #
loop $-1 $355 $356 $141 #
cone-surface $-1 48.881318059414156 29.844265981734466 11.364277759041967 0 -0.69465837861970381 -0.71933979245794832 0.5 0 0 1 I I -0.70710678118654746 0.70710678118654746 0.5 forward I I I I #
loop $-1 $-1 $357 $89 #
coedge $-1 $227 $227 $358 $359 reversed $142 $-1 #
face $-1 $360 $361 $54 $-1 $362 reversed single #
loop $-1 $-1 $363 $144 #
plane-surface $-1 0 -32.781468269902348 0 0 1 0 0 0 1 forward_v I I I I #
coedge $-1 $364 $365 $366 $367 forward $145 $-1 #
coedge $-1 $368 $147 $369 $370 forward $91 $-1 #
coedge $-1 $147 $368 $371 $372 forward $91 $-1 #
coedge $-1 $373 $374 $147 $235 reversed $375 $-1 #
edge $-1 $376 -32.781468269902348 $377 32.781468269902348 $234 $378 forward 7 unknown #
face $-1 $379 $380 $55 $-1 $381 reversed single #
loop $-1 $-1 $382 $148 #
plane-surface $-1 -80.791327483375312 -30.460608233609086 0 1 0 0 0 0 -1 forward_v I I I I #
coedge $-1 $383 $384 $240 $385 forward $149 $-1 #
coedge $-1 $386 $151 $239 $385 reversed $94 $-1 #
coedge $-1 $151 $386 $387 $388 reversed $94 $-1 #
coedge $-1 $389 $390 $151 $243 reversed $380 $-1 #
edge $-1 $391 -14.279902508538411 $392 14.279902508538411 $242 $393 forward 7 unknown #
face $-1 $394 $395 $56 $-1 $396 forward single #
loop $-1 $-1 $397 $152 #
plane-surface $-1 -40.665928992223328 -129.87548973686467 111.34107011488126 1 0 0 0 0.69465837861970381 -0.71933979245794832 forward_v I I I I #
coedge $-1 $398 $399 $400 $401 reversed $153 $-1 #
coedge $-1 $249 $155 $402 $403 reversed $97 $-1 #
coedge $-1 $155 $248 $398 $404 reversed $97 $-1 #
coedge $-1 $400 $405 $155 $251 forward $395 $-1 #
edge $-1 $406 32.156276598529985 $407 35.762648174594979 $250 $408 forward 7 unknown #
loop $-1 $-1 $257 $156 #
plane-surface $-1 -24.969890333571243 -32.781468269902362 10.797269880682009 0 -0.69465837861970381 0.71933979245794832 1 0 0 forward_v I I I I #
loop $-1 $-1 $409 $99 #
coedge $-1 $255 $255 $256 $410 reversed $157 $-1 #
coedge $-1 $256 $256 $255 $410 forward $159 $-1 #
coedge $-1 $257 $257 $160 $258 forward $252 $-1 #
edge $-1 $411 1.7537199311053519e-016 $411 6.2831853071796004 $257 $412 forward 7 unknown #
loop $-1 $-1 $264 $161 #
plane-surface $-1 -24.969890333571243 -32.781468269902362 10.797269880682009 0 -0.69465837861970381 0.71933979245794832 1 0 0 forward_v I I I I #
loop $-1 $-1 $413 $102 #
coedge $-1 $262 $262 $263 $414 reversed $162 $-1 #
coedge $-1 $263 $263 $262 $414 forward $164 $-1 #
coedge $-1 $264 $264 $165 $265 forward $259 $-1 #
edge $-1 $415 1.7537199311053519e-016 $415 6.2831853071796004 $264 $416 forward 7 unknown #
loop $-1 $-1 $271 $166 #
plane-surface $-1 -24.969890333571243 -32.781468269902362 10.797269880682009 0 -0.69465837861970381 0.71933979245794832 1 0 0 forward_v I I I I #
loop $-1 $-1 $417 $105 #
coedge $-1 $269 $269 $270 $418 reversed $167 $-1 #
coedge $-1 $270 $270 $269 $418 forward $169 $-1 #
coedge $-1 $271 $271 $170 $272 forward $266 $-1 #
edge $-1 $419 1.7537199311053519e-016 $419 6.2831853071796004 $271 $420 forward 7 unknown #
face $-1 $421 $422 $60 $-1 $423 reversed single #
loop $-1 $-1 $424 $171 #
plane-surface $-1 23.76765620557082 -129.87548973686467 111.34107011488126 1 0 0 0 0.69465837861970381 -0.71933979245794832 forward_v I I I I #
coedge $-1 $425 $426 $427 $428 reversed $172 $-1 #
coedge $-1 $278 $174 $429 $430 reversed $109 $-1 #
coedge $-1 $174 $277 $425 $431 reversed $109 $-1 #
coedge $-1 $427 $432 $174 $280 forward $433 $-1 #
edge $-1 $434 32.156276598529985 $435 35.762648174594979 $279 $436 forward 7 unknown #
loop $-1 $-1 $286 $175 #
plane-surface $-1 39.463694864222902 -32.781468269902362 10.797269880682009 0 -0.69465837861970381 0.71933979245794832 1 0 0 forward_v I I I I #
loop $-1 $-1 $437 $111 #
coedge $-1 $284 $284 $285 $438 reversed $176 $-1 #
coedge $-1 $285 $285 $284 $438 forward $178 $-1 #
coedge $-1 $286 $286 $179 $287 forward $281 $-1 #
edge $-1 $439 1.7537199311053519e-016 $439 6.2831853071796004 $286 $440 forward 7 unknown #
loop $-1 $-1 $293 $180 #
plane-surface $-1 39.463694864222902 -32.781468269902362 10.797269880682009 0 -0.69465837861970381 0.71933979245794832 1 0 0 forward_v I I I I #
loop $-1 $-1 $441 $114 #
coedge $-1 $291 $291 $292 $442 reversed $181 $-1 #
coedge $-1 $292 $292 $291 $442 forward $183 $-1 #
coedge $-1 $293 $293 $184 $294 forward $288 $-1 #
edge $-1 $443 1.7537199311053519e-016 $443 6.2831853071796004 $293 $444 forward 7 unknown #
loop $-1 $-1 $300 $185 #
plane-surface $-1 39.463694864222902 -32.781468269902362 10.797269880682009 0 -0.69465837861970381 0.71933979245794832 1 0 0 forward_v I I I I #
loop $-1 $-1 $445 $117 #
coedge $-1 $298 $298 $299 $446 reversed $186 $-1 #
coedge $-1 $299 $299 $298 $446 forward $188 $-1 #
coedge $-1 $300 $300 $189 $301 forward $295 $-1 #
edge $-1 $447 1.7537199311053519e-016 $447 6.2831853071796004 $300 $448 forward 7 unknown #
face $-1 $449 $450 $64 $-1 $451 reversed single #
loop $-1 $-1 $452 $190 #
plane-surface $-1 -9.2738516749191611 82.713460573387934 156.88491330916852 -1 0 0 0 0.69465837861970381 0.71933979245794832 forward_v I I I I #
coedge $-1 $453 $454 $455 $456 reversed $191 $-1 #
coedge $-1 $307 $193 $457 $458 reversed $121 $-1 #
coedge $-1 $193 $306 $453 $459 reversed $121 $-1 #
coedge $-1 $455 $460 $193 $309 forward $461 $-1 #
edge $-1 $462 8.5752620167916191 $463 12.181633592856599 $308 $464 forward 7 unknown #
loop $-1 $-1 $315 $194 #
plane-surface $-1 -24.969890333571243 -14.380560893574369 56.341113074969272 0 0.69465837861970381 0.71933979245794832 1 0 0 forward_v I I I I #
loop $-1 $-1 $465 $123 #
coedge $-1 $313 $313 $314 $466 reversed $195 $-1 #
coedge $-1 $314 $314 $313 $466 forward $197 $-1 #
coedge $-1 $315 $315 $198 $316 forward $310 $-1 #
edge $-1 $467 -1.6723911446841345e-015 $467 6.2831853071795987 $315 $468 forward 7 unknown #
loop $-1 $-1 $322 $199 #
plane-surface $-1 -24.969890333571243 -14.380560893574369 56.341113074969272 0 0.69465837861970381 0.71933979245794832 1 0 0 forward_v I I I I #
loop $-1 $-1 $469 $126 #
coedge $-1 $320 $320 $321 $470 reversed $200 $-1 #
coedge $-1 $321 $321 $320 $470 forward $202 $-1 #
coedge $-1 $322 $322 $203 $323 forward $317 $-1 #
edge $-1 $471 -1.6723911446841345e-015 $471 6.2831853071795987 $322 $472 forward 7 unknown #
loop $-1 $-1 $329 $204 #
plane-surface $-1 -24.969890333571243 -14.380560893574369 56.341113074969272 0 0.69465837861970381 0.71933979245794832 1 0 0 forward_v I I I I #
loop $-1 $-1 $473 $129 #
coedge $-1 $327 $327 $328 $474 reversed $205 $-1 #
coedge $-1 $328 $328 $327 $474 forward $207 $-1 #
coedge $-1 $329 $329 $208 $330 forward $324 $-1 #
edge $-1 $475 -1.6723911446841345e-015 $475 6.2831853071795987 $329 $476 forward 7 unknown #
face $-1 $477 $478 $68 $-1 $479 forward single #
loop $-1 $-1 $480 $209 #
plane-surface $-1 55.159733522874987 82.713460573387934 156.88491330916852 -1 0 0 0 0.69465837861970381 0.71933979245794832 forward_v I I I I #
coedge $-1 $481 $482 $483 $484 reversed $210 $-1 #
coedge $-1 $336 $212 $485 $486 reversed $133 $-1 #
coedge $-1 $212 $335 $481 $487 reversed $133 $-1 #
coedge $-1 $483 $488 $212 $338 forward $478 $-1 #
edge $-1 $489 8.5752620167916191 $490 12.181633592856599 $337 $491 forward 7 unknown #
loop $-1 $-1 $344 $213 #
plane-surface $-1 39.463694864222902 -14.380560893574369 56.341113074969272 0 0.69465837861970381 0.71933979245794832 1 0 0 forward_v I I I I #
loop $-1 $-1 $492 $135 #
coedge $-1 $342 $342 $343 $493 reversed $214 $-1 #
coedge $-1 $343 $343 $342 $493 forward $216 $-1 #
coedge $-1 $344 $344 $217 $345 forward $339 $-1 #
edge $-1 $494 -1.6723911446841345e-015 $494 6.2831853071795987 $344 $495 forward 7 unknown #
loop $-1 $-1 $351 $218 #
plane-surface $-1 39.463694864222902 -14.380560893574369 56.341113074969272 0 0.69465837861970381 0.71933979245794832 1 0 0 forward_v I I I I #
loop $-1 $-1 $496 $138 #
coedge $-1 $349 $349 $350 $497 reversed $219 $-1 #
coedge $-1 $350 $350 $349 $497 forward $221 $-1 #
coedge $-1 $351 $351 $222 $352 forward $346 $-1 #
edge $-1 $498 -1.6723911446841345e-015 $498 6.2831853071795987 $351 $499 forward 7 unknown #
loop $-1 $-1 $358 $223 #
plane-surface $-1 39.463694864222902 -14.380560893574369 56.341113074969272 0 0.69465837861970381 0.71933979245794832 1 0 0 forward_v I I I I #
loop $-1 $-1 $500 $141 #
coedge $-1 $356 $356 $357 $501 reversed $224 $-1 #
coedge $-1 $357 $357 $356 $501 forward $226 $-1 #
coedge $-1 $358 $358 $227 $359 forward $353 $-1 #
edge $-1 $502 -1.6723911446841345e-015 $502 6.2831853071795987 $358 $503 forward 7 unknown #
face $-1 $504 $505 $54 $-1 $506 reversed single #
loop $-1 $-1 $507 $228 #
plane-surface $-1 -69.886165959654534 0 0 1 0 0 0 0 -1 forward_v I I I I #
coedge $-1 $508 $371 $509 $510 forward $229 $-1 #
coedge $-1 $511 $231 $508 $512 forward $145 $-1 #
coedge $-1 $231 $511 $513 $514 forward $145 $-1 #
coedge $-1 $374 $373 $231 $367 reversed $375 $-1 #
edge $-1 $515 -32.781468269902348 $516 32.781468269902348 $366 $517 forward 7 unknown #
coedge $-1 $233 $232 $507 $518 forward $91 $-1 #
coedge $-1 $519 $520 $232 $370 reversed $505 $-1 #
edge $-1 $377 -69.886165959654534 $521 69.886165959654534 $369 $522 forward 7 unknown #
coedge $-1 $363 $523 $233 $372 reversed $229 $-1 #
edge $-1 $524 -69.886165959654534 $376 69.886165959654534 $371 $525 forward 7 unknown #
coedge $-1 $366 $234 $523 $526 forward $375 $-1 #
coedge $-1 $234 $366 $519 $527 reversed $375 $-1 #
loop $-1 $-1 $373 $504 #
vertex $-1 $235 $528 #
vertex $-1 $235 $529 #
straight-curve $-1 69.886165959654534 0 14.279902508538411 0 1 0 I I #
face $-1 $530 $531 $55 $-1 $532 reversed single #
loop $-1 $-1 $242 $236 #
plane-surface $-1 -75.338746721514923 -28.139748197315825 0 0 -1 0 0 0 -1 forward_v I I I I #
coedge $-1 $533 $534 $535 $536 forward $237 $-1 #
coedge $-1 $537 $239 $390 $538 forward $149 $-1 #
coedge $-1 $239 $537 $539 $540 forward $149 $-1 #
edge $-1 $541 -32.781468269902348 $392 -28.139748197315825 $239 $542 forward 7 unknown #
coedge $-1 $241 $240 $543 $544 reversed $94 $-1 #
coedge $-1 $545 $546 $241 $388 forward $531 $-1 #
edge $-1 $391 28.139748197315825 $547 32.781468269902348 $387 $548 forward 7 unknown #
coedge $-1 $535 $242 $546 $549 reversed $380 $-1 #
coedge $-1 $242 $535 $383 $538 reversed $380 $-1 #
vertex $-1 $388 $550 #
vertex $-1 $538 $551 #
straight-curve $-1 -69.886165959654534 -28.139748197315825 0 0 0 1 I I #
face $-1 $-1 $552 $56 $-1 $553 reversed single #
loop $-1 $-1 $250 $244 #
plane-surface $-1 0 0 14.279902508538411 0 0 1 1 0 0 forward_v I I I I #
coedge $-1 $554 $555 $556 $557 reversed $245 $-1 #
coedge $-1 $558 $247 $249 $404 forward $153 $-1 #
coedge $-1 $247 $558 $554 $559 forward $153 $-1 #
coedge $-1 $556 $250 $247 $401 forward $395 $-1 #
edge $-1 $407 -3.2110934918664604 $560 28.180983825437707 $400 $561 forward 7 unknown #
coedge $-1 $562 $563 $248 $403 forward $552 $-1 #
edge $-1 $564 -44.873265176758608 $406 -41.390632548902218 $402 $565 forward 7 unknown #
edge $-1 $407 -5.0134465156476535 $564 -2.0094122576745862e-014 $249 $566 forward 7 unknown #
coedge $-1 $250 $556 $562 $567 forward $395 $-1 #
vertex $-1 $251 $568 #
vertex $-1 $251 $569 #
straight-curve $-1 -9.2738516749191611 -64.937744868432333 14.279902508538413 0 1 0 I I #
coedge $-1 $409 $409 $-1 $570 reversed $254 $-1 #
edge $-1 $571 0 $571 6.2831853071796004 $255 $572 forward 7 unknown #
vertex $-1 $258 $573 #
ellipse-curve $-1 -34.387513528762497 -30.978282481869851 12.538586194610216 0 -0.69465837861970381 0.71933979245794832 1 0 0 1 I I #
coedge $-1 $413 $413 $-1 $574 reversed $261 $-1 #
edge $-1 $575 0 $575 6.2831853071796004 $262 $576 forward 7 unknown #
vertex $-1 $265 $577 #
ellipse-curve $-1 -24.969890333571243 -30.978282481869851 12.538586194610216 0 -0.69465837861970381 0.71933979245794832 1 0 0 1 I I #
coedge $-1 $417 $417 $-1 $578 reversed $268 $-1 #
edge $-1 $579 0 $579 6.2831853071796004 $269 $580 forward 7 unknown #
vertex $-1 $272 $581 #
ellipse-curve $-1 -15.552267138379989 -30.978282481869851 12.538586194610216 0 -0.69465837861970381 0.71933979245794832 1 0 0 1 I I #
face $-1 $-1 $433 $60 $-1 $582 forward single #
loop $-1 $-1 $583 $273 #
plane-surface $-1 0 -32.781468269902348 0 0 1 0 0 0 1 forward_v I I I I #
coedge $-1 $584 $585 $586 $587 reversed $274 $-1 #
coedge $-1 $588 $276 $278 $431 forward $172 $-1 #
coedge $-1 $276 $588 $584 $589 forward $172 $-1 #
coedge $-1 $586 $279 $276 $428 forward $433 $-1 #
edge $-1 $435 -35.427886090763536 $590 -4.0358087734593688 $427 $591 forward 7 unknown #
coedge $-1 $592 $593 $277 $430 forward $422 $-1 #
edge $-1 $594 -44.873265176758608 $434 -41.390632548902218 $429 $595 forward 7 unknown #
edge $-1 $435 -5.0134465156476535 $594 -2.0094122576745862e-014 $278 $596 forward 7 unknown #
coedge $-1 $279 $586 $592 $597 forward $433 $-1 #
loop $-1 $-1 $586 $421 #
vertex $-1 $430 $598 #
vertex $-1 $280 $599 #
straight-curve $-1 55.159733522874987 -64.937744868432333 14.279902508538413 0 1 0 I I #
coedge $-1 $437 $437 $-1 $600 reversed $283 $-1 #
edge $-1 $601 0 $601 6.2831853071796004 $284 $602 forward 7 unknown #
vertex $-1 $287 $603 #
ellipse-curve $-1 30.046071669031647 -30.978282481869851 12.538586194610216 0 -0.69465837861970381 0.71933979245794832 1 0 0 1 I I #
coedge $-1 $441 $441 $-1 $604 reversed $290 $-1 #
edge $-1 $605 0 $605 6.2831853071796004 $291 $606 forward 7 unknown #
vertex $-1 $294 $607 #
ellipse-curve $-1 39.463694864222902 -30.978282481869851 12.538586194610216 0 -0.69465837861970381 0.71933979245794832 1 0 0 1 I I #
coedge $-1 $445 $445 $-1 $608 reversed $297 $-1 #
edge $-1 $609 0 $609 6.2831853071796004 $298 $610 forward 7 unknown #
vertex $-1 $301 $611 #
ellipse-curve $-1 48.881318059414156 -30.978282481869851 12.538586194610216 0 -0.69465837861970381 0.71933979245794832 1 0 0 1 I I #
face $-1 $-1 $461 $64 $-1 $612 forward single #
loop $-1 $-1 $613 $302 #
plane-surface $-1 0 32.781468269902348 0 0 -1 0 0 0 -1 forward_v I I I I #
coedge $-1 $614 $615 $616 $617 reversed $303 $-1 #
coedge $-1 $618 $305 $307 $459 forward $191 $-1 #
coedge $-1 $305 $618 $614 $619 forward $191 $-1 #
coedge $-1 $616 $308 $305 $456 forward $461 $-1 #
edge $-1 $463 -28.180983825437707 $620 3.2110934918664604 $455 $621 forward 7 unknown #
coedge $-1 $622 $623 $306 $458 forward $450 $-1 #
edge $-1 $624 -67.645186773902225 $462 -64.162554146045849 $457 $625 forward 7 unknown #
edge $-1 $463 60.549490024157038 $624 65.562936539804653 $307 $626 forward 7 unknown #
coedge $-1 $308 $616 $622 $627 forward $461 $-1 #
loop $-1 $-1 $616 $449 #
vertex $-1 $458 $628 #
vertex $-1 $309 $629 #
straight-curve $-1 -40.665928992223328 41.356730286693967 14.279902508538413 0 -1 0 I I #
coedge $-1 $465 $465 $-1 $630 reversed $312 $-1 #
edge $-1 $631 0 $631 6.2831853071796004 $313 $632 forward 7 unknown #
vertex $-1 $316 $633 #
ellipse-curve $-1 -34.387513528762497 30.978282481869861 12.538586194610218 0 0.69465837861970381 0.71933979245794832 1 0 0 1 I I #
coedge $-1 $469 $469 $-1 $634 reversed $319 $-1 #
edge $-1 $635 0 $635 6.2831853071796004 $320 $636 forward 7 unknown #
vertex $-1 $323 $637 #
ellipse-curve $-1 -24.969890333571243 30.978282481869861 12.538586194610218 0 0.69465837861970381 0.71933979245794832 1 0 0 1 I I #
coedge $-1 $473 $473 $-1 $638 reversed $326 $-1 #
edge $-1 $639 0 $639 6.2831853071796004 $327 $640 forward 7 unknown #
vertex $-1 $330 $641 #
ellipse-curve $-1 -15.552267138379989 30.978282481869861 12.538586194610218 0 0.69465837861970381 0.71933979245794832 1 0 0 1 I I #
face $-1 $-1 $642 $68 $-1 $643 reversed single #
loop $-1 $-1 $337 $331 #
plane-surface $-1 0 0 14.279902508538411 0 0 1 1 0 0 forward_v I I I I #
coedge $-1 $644 $645 $646 $647 reversed $332 $-1 #
coedge $-1 $648 $334 $336 $487 forward $210 $-1 #
coedge $-1 $334 $648 $644 $649 forward $210 $-1 #
coedge $-1 $646 $337 $334 $484 forward $478 $-1 #
edge $-1 $490 4.0358087734593688 $650 35.427886090763536 $483 $651 forward 7 unknown #
coedge $-1 $652 $653 $335 $486 forward $642 $-1 #
edge $-1 $654 -67.645186773902225 $489 -64.162554146045849 $485 $655 forward 7 unknown #
edge $-1 $490 60.549490024157038 $654 65.562936539804653 $336 $656 forward 7 unknown #
coedge $-1 $337 $646 $652 $657 forward $478 $-1 #
vertex $-1 $486 $658 #
vertex $-1 $338 $659 #
straight-curve $-1 23.76765620557082 41.356730286693967 14.279902508538413 0 -1 0 I I #
coedge $-1 $492 $492 $-1 $660 reversed $341 $-1 #
edge $-1 $661 0 $661 6.2831853071796004 $342 $662 forward 7 unknown #
vertex $-1 $345 $663 #
ellipse-curve $-1 30.046071669031647 30.978282481869861 12.538586194610218 0 0.69465837861970381 0.71933979245794832 1 0 0 1 I I #
coedge $-1 $496 $496 $-1 $664 reversed $348 $-1 #
edge $-1 $665 0 $665 6.2831853071796004 $349 $666 forward 7 unknown #
vertex $-1 $352 $667 #
ellipse-curve $-1 39.463694864222902 30.978282481869861 12.538586194610218 0 0.69465837861970381 0.71933979245794832 1 0 0 1 I I #
coedge $-1 $500 $500 $-1 $668 reversed $355 $-1 #
edge $-1 $669 0 $669 6.2831853071796004 $356 $670 forward 7 unknown #
vertex $-1 $359 $671 #
ellipse-curve $-1 48.881318059414156 30.978282481869861 12.538586194610218 0 0.69465837861970381 0.71933979245794832 1 0 0 1 I I #
face $-1 $-1 $375 $54 $-1 $672 reversed single #
loop $-1 $-1 $519 $360 #
plane-surface $-1 0 32.781468269902348 0 0 -1 0 0 0 -1 forward_v I I I I #
coedge $-1 $673 $509 $368 $518 reversed $361 $-1 #
coedge $-1 $523 $363 $364 $512 reversed $229 $-1 #
coedge $-1 $507 $674 $363 $510 reversed $361 $-1 #
edge $-1 $524 -14.279902508538411 $675 14.279902508538411 $509 $676 forward 7 unknown #
coedge $-1 $365 $364 $674 $677 forward $145 $-1 #
edge $-1 $516 -69.886165959654534 $675 69.886165959654534 $508 $678 forward 7 unknown #
coedge $-1 $520 $519 $365 $514 reversed $505 $-1 #
edge $-1 $679 -69.886165959654534 $515 69.886165959654534 $513 $680 forward 7 unknown #
vertex $-1 $367 $681 #
vertex $-1 $526 $682 #
straight-curve $-1 69.886165959654534 0 -14.279902508538411 0 -1 0 I I #
edge $-1 $521 -32.781468269902348 $524 32.781468269902348 $507 $683 forward 7 unknown #
coedge $-1 $513 $369 $374 $527 forward $505 $-1 #
coedge $-1 $369 $513 $673 $684 reversed $505 $-1 #
vertex $-1 $370 $685 #
straight-curve $-1 0 32.781468269902348 14.279902508538411 -1 0 0 I I #
coedge $-1 $371 $508 $373 $526 reversed $229 $-1 #
vertex $-1 $518 $686 #
straight-curve $-1 0 -32.781468269902348 14.279902508538411 1 0 0 I I #
edge $-1 $376 -14.279902508538411 $516 14.279902508538411 $373 $687 forward 7 unknown #
edge $-1 $377 -14.279902508538411 $515 14.279902508538411 $374 $688 forward 7 unknown #
point $-1 69.886165959654534 -32.781468269902348 14.279902508538411 #
point $-1 69.886165959654534 32.781468269902348 14.279902508538411 #
face $-1 $-1 $689 $55 $-1 $690 reversed single #
loop $-1 $-1 $387 $379 #
plane-surface $-1 0 0 -14.279902508538411 0 0 1 1 0 0 forward_v I I I I #
coedge $-1 $691 $382 $692 $693 reversed $237 $-1 #
coedge $-1 $382 $691 $537 $694 reversed $237 $-1 #
coedge $-1 $390 $389 $382 $536 reversed $380 $-1 #
edge $-1 $695 -14.279902508538411 $696 14.279902508538411 $535 $697 forward 7 unknown #
coedge $-1 $384 $383 $534 $694 forward $149 $-1 #
edge $-1 $392 -5.4525807618603892 $695 5.4525807618603892 $390 $698 forward 7 unknown #
coedge $-1 $699 $543 $384 $540 reversed $689 $-1 #
edge $-1 $700 -80.791327483375312 $541 -69.886165959654534 $539 $701 forward 7 unknown #
vertex $-1 $544 $702 #
straight-curve $-1 -69.886165959654534 0 14.279902508538411 0 1 0 I I #
coedge $-1 $539 $703 $386 $544 forward $689 $-1 #
edge $-1 $547 -14.279902508538411 $541 14.279902508538411 $543 $704 forward 7 unknown #
coedge $-1 $692 $387 $703 $705 forward $531 $-1 #
coedge $-1 $387 $692 $389 $549 forward $531 $-1 #
vertex $-1 $705 $706 #
straight-curve $-1 -69.886165959654534 0 -14.279902508538411 0 -1 0 I I #
edge $-1 $696 -5.4525807618603892 $391 5.4525807618603892 $389 $707 forward 7 unknown #
point $-1 -69.886165959654534 -28.139748197315825 -14.279902508538411 #
point $-1 -69.886165959654534 -28.139748197315825 14.279902508538411 #
loop $-1 $-1 $402 $394 #
plane-surface $-1 0 -32.781468269902348 0 0 1 0 0 0 1 forward_v I I I I #
coedge $-1 $555 $397 $399 $559 reversed $245 $-1 #
coedge $-1 $397 $554 $708 $709 reversed $245 $-1 #
coedge $-1 $405 $400 $397 $557 forward $395 $-1 #
edge $-1 $560 -35.762648174594979 $710 -32.156276598529985 $556 $711 forward 7 unknown #
coedge $-1 $399 $398 $563 $712 reversed $153 $-1 #
edge $-1 $713 2.0094122576745862e-014 $560 5.0134465156476535 $554 $714 forward 7 unknown #
vertex $-1 $401 $715 #
straight-curve $-1 -12.484945166785621 -29.175096693837354 14.279902508538411 -1 0 0 I I #
coedge $-1 $708 $402 $405 $567 reversed $552 $-1 #
coedge $-1 $402 $708 $558 $712 forward $552 $-1 #
vertex $-1 $403 $716 #
straight-curve $-1 -9.2738516749191611 -32.781468269902348 55.670535057440631 0 0 1 I I #
straight-curve $-1 -9.2738516749191611 -32.781468269902362 10.797269880682009 0 -0.71933979245794832 -0.69465837861970381 I I #
edge $-1 $710 -40.665928992223328 $406 -9.2738516749191611 $562 $717 forward 7 unknown #
point $-1 -9.2738516749191611 -32.781468269902348 14.279902508538411 #
point $-1 -9.2738516749191611 -29.175096693837354 14.279902508538411 #
edge $-1 $718 1 $718 0 $409 $-1 forward 7 unknown #
vertex $-1 $410 $719 #
ellipse-curve $-1 -34.387513528762497 -30.19159517104432 11.723947655270948 0 -0.69465837861970381 0.71933979245794832 1 0 0 1 I I #
point $-1 -33.387513528762497 -30.978282481869844 12.538586194610209 #
edge $-1 $720 1 $720 0 $413 $-1 forward 7 unknown #
vertex $-1 $414 $721 #
ellipse-curve $-1 -24.969890333571243 -30.19159517104432 11.723947655270948 0 -0.69465837861970381 0.71933979245794832 1 0 0 1 I I #
point $-1 -23.969890333571243 -30.978282481869844 12.538586194610209 #
edge $-1 $722 1 $722 0 $417 $-1 forward 7 unknown #
vertex $-1 $418 $723 #
ellipse-curve $-1 -15.552267138379989 -30.19159517104432 11.723947655270948 0 -0.69465837861970381 0.71933979245794832 1 0 0 1 I I #
point $-1 -14.552267138379989 -30.978282481869844 12.538586194610209 #
plane-surface $-1 0 0 14.279902508538411 0 0 1 1 0 0 forward_v I I I I #
coedge $-1 $593 $592 $585 $724 forward $422 $-1 #
coedge $-1 $585 $424 $426 $589 reversed $274 $-1 #
coedge $-1 $424 $584 $583 $724 reversed $274 $-1 #
coedge $-1 $432 $427 $424 $587 forward $433 $-1 #
edge $-1 $590 -35.762648174594979 $725 -32.156276598529985 $586 $726 forward 7 unknown #
coedge $-1 $426 $425 $593 $727 reversed $172 $-1 #
edge $-1 $728 2.0094122576745862e-014 $590 5.0134465156476535 $584 $729 forward 7 unknown #
vertex $-1 $428 $730 #
straight-curve $-1 19.731847432111451 -29.175096693837354 14.279902508538411 -1 0 0 I I #
coedge $-1 $583 $429 $432 $597 reversed $422 $-1 #
coedge $-1 $429 $583 $588 $727 forward $422 $-1 #
vertex $-1 $430 $731 #
straight-curve $-1 55.159733522874987 -32.781468269902348 55.670535057440631 0 0 1 I I #
straight-curve $-1 55.159733522874987 -32.781468269902362 10.797269880682009 0 -0.71933979245794832 -0.69465837861970381 I I #
edge $-1 $725 23.76765620557082 $434 55.159733522874987 $592 $732 forward 7 unknown #
point $-1 55.159733522874987 -32.781468269902348 14.279902508538411 #
point $-1 55.159733522874987 -29.175096693837354 14.279902508538411 #
edge $-1 $733 1 $733 0 $437 $-1 forward 7 unknown #
vertex $-1 $438 $734 #
ellipse-curve $-1 30.046071669031647 -30.19159517104432 11.723947655270948 0 -0.69465837861970381 0.71933979245794832 1 0 0 1 I I #
point $-1 31.046071669031647 -30.978282481869844 12.538586194610209 #
edge $-1 $735 1 $735 0 $441 $-1 forward 7 unknown #
vertex $-1 $442 $736 #
ellipse-curve $-1 39.463694864222902 -30.19159517104432 11.723947655270948 0 -0.69465837861970381 0.71933979245794832 1 0 0 1 I I #
point $-1 40.463694864222902 -30.978282481869844 12.538586194610209 #
edge $-1 $737 1 $737 0 $445 $-1 forward 7 unknown #
vertex $-1 $446 $738 #
ellipse-curve $-1 48.881318059414156 -30.19159517104432 11.723947655270948 0 -0.69465837861970381 0.71933979245794832 1 0 0 1 I I #
point $-1 49.881318059414156 -30.978282481869844 12.538586194610209 #
plane-surface $-1 0 0 14.279902508538411 0 0 1 1 0 0 forward_v I I I I #
coedge $-1 $623 $622 $615 $739 forward $450 $-1 #
coedge $-1 $615 $452 $454 $619 reversed $303 $-1 #
coedge $-1 $452 $614 $613 $739 reversed $303 $-1 #
coedge $-1 $460 $455 $452 $617 forward $461 $-1 #
edge $-1 $620 -12.181633592856599 $740 -8.5752620167916191 $616 $741 forward 7 unknown #
coedge $-1 $454 $453 $623 $742 reversed $191 $-1 #
edge $-1 $743 -65.562936539804653 $620 -60.549490024157038 $614 $744 forward 7 unknown #
vertex $-1 $456 $745 #
straight-curve $-1 -12.484945166785621 29.175096693837368 14.279902508538413 1 0 0 I I #
coedge $-1 $613 $457 $460 $627 reversed $450 $-1 #
coedge $-1 $457 $613 $618 $742 forward $450 $-1 #
vertex $-1 $458 $746 #
straight-curve $-1 -40.665928992223328 32.781468269902348 78.442456654584262 0 0 1 I I #
straight-curve $-1 -40.665928992223328 -14.380560893574369 56.341113074969272 0 0.71933979245794832 -0.69465837861970381 I I #
edge $-1 $740 9.2738516749191611 $462 40.665928992223328 $622 $747 forward 7 unknown #
point $-1 -40.665928992223328 32.781468269902348 14.279902508538411 #
point $-1 -40.665928992223328 29.175096693837368 14.279902508538413 #
edge $-1 $748 1 $748 0 $465 $-1 forward 7 unknown #
vertex $-1 $466 $749 #
ellipse-curve $-1 -34.387513528762497 30.19159517104432 11.723947655270941 0 0.69465837861970381 0.71933979245794832 1 0 0 1 I I #
point $-1 -33.387513528762497 30.978282481869844 12.538586194610202 #
edge $-1 $750 1 $750 0 $469 $-1 forward 7 unknown #
vertex $-1 $470 $751 #
ellipse-curve $-1 -24.969890333571243 30.19159517104432 11.723947655270941 0 0.69465837861970381 0.71933979245794832 1 0 0 1 I I #
point $-1 -23.969890333571243 30.978282481869844 12.538586194610202 #
edge $-1 $752 1 $752 0 $473 $-1 forward 7 unknown #
vertex $-1 $474 $753 #
ellipse-curve $-1 -15.552267138379989 30.19159517104432 11.723947655270941 0 0.69465837861970381 0.71933979245794832 1 0 0 1 I I #
point $-1 -14.552267138379989 30.978282481869844 12.538586194610202 #
loop $-1 $-1 $485 $477 #
plane-surface $-1 0 32.781468269902348 0 0 -1 0 0 0 -1 forward_v I I I I #
coedge $-1 $645 $480 $482 $649 reversed $332 $-1 #
coedge $-1 $480 $644 $754 $755 reversed $332 $-1 #
coedge $-1 $488 $483 $480 $647 forward $478 $-1 #
edge $-1 $650 -12.181633592856599 $756 -8.5752620167916191 $646 $757 forward 7 unknown #
coedge $-1 $482 $481 $653 $758 reversed $210 $-1 #
edge $-1 $759 -65.562936539804653 $650 -60.549490024157038 $644 $760 forward 7 unknown #
vertex $-1 $484 $761 #
straight-curve $-1 19.731847432111451 29.175096693837368 14.279902508538413 1 0 0 I I #
coedge $-1 $754 $485 $488 $657 reversed $642 $-1 #
coedge $-1 $485 $754 $648 $758 forward $642 $-1 #
vertex $-1 $486 $762 #
straight-curve $-1 23.76765620557082 32.781468269902348 78.442456654584262 0 0 1 I I #
straight-curve $-1 23.76765620557082 -14.380560893574369 56.341113074969272 0 0.71933979245794832 -0.69465837861970381 I I #
edge $-1 $756 -55.159733522874987 $489 -23.76765620557082 $652 $763 forward 7 unknown #
point $-1 23.76765620557082 32.781468269902348 14.279902508538411 #
point $-1 23.76765620557082 29.175096693837368 14.279902508538413 #
edge $-1 $764 1 $764 0 $492 $-1 forward 7 unknown #
vertex $-1 $493 $765 #
ellipse-curve $-1 30.046071669031647 30.19159517104432 11.723947655270941 0 0.69465837861970381 0.71933979245794832 1 0 0 1 I I #
point $-1 31.046071669031647 30.978282481869844 12.538586194610202 #
edge $-1 $766 1 $766 0 $496 $-1 forward 7 unknown #
vertex $-1 $497 $767 #
ellipse-curve $-1 39.463694864222902 30.19159517104432 11.723947655270941 0 0.69465837861970381 0.71933979245794832 1 0 0 1 I I #
point $-1 40.463694864222902 30.978282481869844 12.538586194610202 #
edge $-1 $768 1 $768 0 $500 $-1 forward 7 unknown #
vertex $-1 $501 $769 #
ellipse-curve $-1 48.881318059414156 30.19159517104432 11.723947655270941 0 0.69465837861970381 0.71933979245794832 1 0 0 1 I I #
point $-1 49.881318059414156 30.978282481869844 12.538586194610202 #
plane-surface $-1 69.886165959654534 0 0 -1 0 0 0 0 1 forward_v I I I I #
coedge $-1 $674 $507 $520 $684 forward $361 $-1 #
coedge $-1 $509 $673 $511 $677 reversed $361 $-1 #
vertex $-1 $677 $770 #
straight-curve $-1 -69.886165959654534 -32.781468269902348 0 0 0 -1 I I #
edge $-1 $675 -32.781468269902348 $679 32.781468269902348 $674 $771 forward 7 unknown #
straight-curve $-1 0 -32.781468269902348 -14.279902508538411 -1 0 0 I I #
vertex $-1 $514 $772 #
straight-curve $-1 0 32.781468269902348 -14.279902508538411 1 0 0 I I #
point $-1 69.886165959654534 32.781468269902348 -14.279902508538411 #
point $-1 69.886165959654534 -32.781468269902348 -14.279902508538411 #
straight-curve $-1 -69.886165959654534 0 14.279902508538411 0 -1 0 I I #
edge $-1 $521 -14.279902508538411 $679 14.279902508538411 $520 $773 forward 7 unknown #
point $-1 -69.886165959654534 32.781468269902348 14.279902508538411 #
point $-1 -69.886165959654534 -32.781468269902348 14.279902508538411 #
straight-curve $-1 69.886165959654534 -32.781468269902348 0 0 0 -1 I I #
straight-curve $-1 69.886165959654534 32.781468269902348 0 0 0 -1 I I #
loop $-1 $-1 $543 $530 #
plane-surface $-1 0 -32.781468269902348 0 0 1 0 0 0 1 forward_v I I I I #
coedge $-1 $534 $533 $699 $774 reversed $237 $-1 #
coedge $-1 $546 $545 $533 $693 forward $531 $-1 #
edge $-1 $775 -2.3208600362932614 $696 2.3208600362932614 $533 $776 forward 7 unknown #
edge $-1 $695 -2.3208600362932614 $700 2.3208600362932614 $534 $777 forward 7 unknown #
vertex $-1 $538 $778 #
vertex $-1 $549 $779 #
straight-curve $-1 -80.791327483375312 -28.139748197315825 0 0 0 -1 I I #
straight-curve $-1 -75.338746721514923 -28.139748197315825 14.279902508538411 -1 0 0 I I #
coedge $-1 $703 $539 $691 $774 forward $689 $-1 #
vertex $-1 $694 $780 #
straight-curve $-1 0 -32.781468269902348 14.279902508538411 1 0 0 I I #
point $-1 -69.886165959654534 -32.781468269902348 14.279902508538411 #
coedge $-1 $543 $699 $545 $705 reversed $689 $-1 #
straight-curve $-1 -69.886165959654534 -32.781468269902348 0 0 0 1 I I #
edge $-1 $547 -5.4525807618603892 $775 5.4525807618603892 $703 $781 forward 7 unknown #
point $-1 -69.886165959654534 -32.781468269902348 -14.279902508538411 #
straight-curve $-1 -75.338746721514923 -28.139748197315825 -14.279902508538411 1 0 0 I I #
coedge $-1 $563 $562 $555 $709 forward $552 $-1 #
edge $-1 $710 41.390632548902218 $713 44.873265176758608 $708 $782 forward 7 unknown #
vertex $-1 $567 $783 #
straight-curve $-1 -40.665928992223328 -64.937744868432333 14.279902508538413 0 -1 0 I I #
edge $-1 $713 -28.180983825437707 $564 3.2110934918664604 $563 $784 forward 7 unknown #
vertex $-1 $712 $785 #
straight-curve $-1 -40.665928992223328 -32.781468269902362 10.797269880682009 0 0.71933979245794832 0.69465837861970381 I I #
point $-1 -40.665928992223328 -29.175096693837354 14.279902508538411 #
point $-1 -9.2738516749191611 -32.781468269902348 10.797269880682023 #
straight-curve $-1 0 -32.781468269902348 14.279902508538411 1 0 0 I I #
vertex $-1 $570 $786 #
point $-1 -33.387513528762497 -30.19159517104432 11.723947655270948 #
vertex $-1 $574 $787 #
point $-1 -23.969890333571243 -30.19159517104432 11.723947655270948 #
vertex $-1 $578 $788 #
point $-1 -14.552267138379989 -30.19159517104432 11.723947655270948 #
edge $-1 $725 41.390632548902218 $728 44.873265176758608 $583 $789 forward 7 unknown #
vertex $-1 $597 $790 #
straight-curve $-1 23.76765620557082 -64.937744868432333 14.279902508538413 0 -1 0 I I #
edge $-1 $728 4.0358087734593688 $594 35.427886090763536 $593 $791 forward 7 unknown #
vertex $-1 $727 $792 #
straight-curve $-1 23.76765620557082 -32.781468269902362 10.797269880682009 0 0.71933979245794832 0.69465837861970381 I I #
point $-1 23.76765620557082 -29.175096693837354 14.279902508538411 #
point $-1 55.159733522874987 -32.781468269902348 10.797269880682023 #
straight-curve $-1 0 -32.781468269902348 14.279902508538411 1 0 0 I I #
vertex $-1 $600 $793 #
point $-1 31.046071669031647 -30.19159517104432 11.723947655270948 #
vertex $-1 $604 $794 #
point $-1 40.463694864222902 -30.19159517104432 11.723947655270948 #
vertex $-1 $608 $795 #
point $-1 49.881318059414156 -30.19159517104432 11.723947655270948 #
edge $-1 $740 64.162554146045849 $743 67.645186773902225 $613 $796 forward 7 unknown #
vertex $-1 $627 $797 #
straight-curve $-1 -9.2738516749191611 41.356730286693967 14.279902508538413 0 1 0 I I #
edge $-1 $743 -3.2110934918664604 $624 28.180983825437707 $623 $798 forward 7 unknown #
vertex $-1 $742 $799 #
straight-curve $-1 -9.2738516749191611 -14.380560893574369 56.341113074969272 0 -0.71933979245794832 0.69465837861970381 I I #
point $-1 -9.2738516749191611 29.175096693837368 14.279902508538413 #
point $-1 -40.665928992223328 32.781468269902348 10.797269880682038 #
straight-curve $-1 0 32.781468269902348 14.279902508538411 -1 0 0 I I #
vertex $-1 $630 $800 #
point $-1 -33.387513528762497 30.19159517104432 11.723947655270941 #
vertex $-1 $634 $801 #
point $-1 -23.969890333571243 30.19159517104432 11.723947655270941 #
vertex $-1 $638 $802 #
point $-1 -14.552267138379989 30.19159517104432 11.723947655270941 #
coedge $-1 $653 $652 $645 $755 forward $642 $-1 #
edge $-1 $756 64.162554146045849 $759 67.645186773902225 $754 $803 forward 7 unknown #
vertex $-1 $657 $804 #
straight-curve $-1 55.159733522874987 41.356730286693967 14.279902508538413 0 1 0 I I #
edge $-1 $759 -35.427886090763536 $654 -4.0358087734593688 $653 $805 forward 7 unknown #
vertex $-1 $758 $806 #
straight-curve $-1 55.159733522874987 -14.380560893574369 56.341113074969272 0 -0.71933979245794832 0.69465837861970381 I I #
point $-1 55.159733522874987 29.175096693837368 14.279902508538413 #
point $-1 23.76765620557082 32.781468269902348 10.797269880682038 #
straight-curve $-1 0 32.781468269902348 14.279902508538411 -1 0 0 I I #
vertex $-1 $660 $807 #
point $-1 31.046071669031647 30.19159517104432 11.723947655270941 #
vertex $-1 $664 $808 #
point $-1 40.463694864222902 30.19159517104432 11.723947655270941 #
vertex $-1 $668 $809 #
point $-1 49.881318059414156 30.19159517104432 11.723947655270941 #
point $-1 -69.886165959654534 -32.781468269902348 -14.279902508538411 #
straight-curve $-1 -69.886165959654534 0 -14.279902508538411 0 1 0 I I #
point $-1 -69.886165959654534 32.781468269902348 -14.279902508538411 #
straight-curve $-1 -69.886165959654534 32.781468269902348 0 0 0 -1 I I #
edge $-1 $700 -14.279902508538411 $775 14.279902508538411 $691 $810 forward 7 unknown #
vertex $-1 $693 $811 #
straight-curve $-1 -80.791327483375312 -30.460608233609086 -14.279902508538411 0 1 0 I I #
straight-curve $-1 -80.791327483375312 -30.460608233609086 14.279902508538411 0 -1 0 I I #
point $-1 -80.791327483375312 -28.139748197315825 14.279902508538411 #
point $-1 -80.791327483375312 -28.139748197315825 -14.279902508538411 #
point $-1 -80.791327483375312 -32.781468269902348 14.279902508538411 #
straight-curve $-1 -75.338746721514923 -32.781468269902348 -14.279902508538411 -1 0 0 I I #
straight-curve $-1 -40.665928992223328 -32.781468269902348 55.670535057440631 0 0 -1 I I #
point $-1 -40.665928992223328 -32.781468269902348 14.279902508538411 #
straight-curve $-1 -12.484945166785621 -32.781468269902348 10.797269880682023 1 0 0 I I #
point $-1 -40.665928992223328 -32.781468269902348 10.797269880682023 #
point $-1 -34.387513528762497 -29.496936792424613 11.004607862813 #
point $-1 -24.969890333571243 -29.496936792424613 11.004607862813 #
point $-1 -15.552267138379989 -29.496936792424613 11.004607862813 #
straight-curve $-1 23.76765620557082 -32.781468269902348 55.670535057440631 0 0 -1 I I #
point $-1 23.76765620557082 -32.781468269902348 14.279902508538411 #
straight-curve $-1 19.731847432111451 -32.781468269902348 10.797269880682023 1 0 0 I I #
point $-1 23.76765620557082 -32.781468269902348 10.797269880682023 #
point $-1 30.046071669031647 -29.496936792424613 11.004607862813 #
point $-1 39.463694864222902 -29.496936792424613 11.004607862813 #
point $-1 48.881318059414156 -29.496936792424613 11.004607862813 #
straight-curve $-1 -9.2738516749191611 32.781468269902348 78.442456654584262 0 0 -1 I I #
point $-1 -9.2738516749191611 32.781468269902348 14.279902508538411 #
straight-curve $-1 -12.484945166785621 32.781468269902348 10.797269880682038 -1 0 0 I I #
point $-1 -9.2738516749191611 32.781468269902348 10.797269880682038 #
point $-1 -34.387513528762497 29.496936792424613 11.004607862812993 #
point $-1 -24.969890333571243 29.496936792424613 11.004607862812993 #
point $-1 -15.552267138379989 29.496936792424613 11.004607862812993 #
straight-curve $-1 55.159733522874987 32.781468269902348 78.442456654584262 0 0 -1 I I #
point $-1 55.159733522874987 32.781468269902348 14.279902508538411 #
straight-curve $-1 19.731847432111451 32.781468269902348 10.797269880682038 -1 0 0 I I #
point $-1 55.159733522874987 32.781468269902348 10.797269880682038 #
point $-1 30.046071669031647 29.496936792424613 11.004607862812993 #
point $-1 39.463694864222902 29.496936792424613 11.004607862812993 #
point $-1 48.881318059414156 29.496936792424613 11.004607862812993 #
straight-curve $-1 -80.791327483375312 -32.781468269902348 0 0 0 -1 I I #
point $-1 -80.791327483375312 -32.781468269902348 -14.279902508538411 #
End-of-ACIS-data 