500 0 5 0           
7 Unknown 11 ACIS 5.0 NT 24 Thu Mar 25 21:50:48 1999 
-1 9.9999999999999995e-007 1e-010 
body $-1 $5 $-1 $6 #
body $-1 $7 $-1 $8 #
body $-1 $9 $-1 $10 #
body $-1 $11 $-1 $12 #
body $-1 $13 $-1 $14 #
lump $-1 $-1 $15 $0 #
transform $-1 1 0 0 0 1 0 0 0 1 68.111209448530531 32.26817136128448 11.42724795248906 1 rotate no_reflect no_shear #
lump $-1 $-1 $16 $1 #
transform $-1 1 0 0 0 1 0 0 0 1 68.111209448530531 32.26817136128448 11.42724795248906 1 rotate no_reflect no_shear #
lump $-1 $-1 $17 $2 #
transform $-1 1 0 0 0 1 0 0 0 1 68.111209448530531 32.26817136128448 11.42724795248906 1 rotate no_reflect no_shear #
lump $-1 $-1 $18 $3 #
transform $-1 1 0 0 0 1 0 0 0 1 68.111209448530531 32.26817136128448 11.42724795248906 1 rotate no_reflect no_shear #
lump $-1 $-1 $19 $4 #
transform $-1 1 0 0 0 1 0 0 0 1 68.111209448530531 32.26817136128448 11.42724795248906 1 rotate no_reflect no_shear #
shell $-1 $-1 $-1 $20 $-1 $5 #
shell $-1 $-1 $-1 $21 $-1 $7 #
shell $-1 $-1 $-1 $22 $-1 $9 #
shell $-1 $-1 $-1 $23 $-1 $11 #
shell $-1 $-1 $-1 $24 $-1 $13 #
face $-1 $25 $26 $15 $-1 $27 forward single #
face $-1 $28 $29 $16 $-1 $30 forward single #
face $-1 $31 $32 $17 $-1 $33 forward single #
face $-1 $34 $35 $18 $-1 $36 forward single #
face $-1 $37 $38 $19 $-1 $39 reversed single #
face $-1 $40 $41 $15 $-1 $42 reversed single #
loop $-1 $-1 $43 $20 #
plane-surface $-1 0 0 11.42724795248906 0 0 1 1 0 0 forward_v I I I I #
face $-1 $44 $45 $16 $-1 $46 reversed single #
loop $-1 $-1 $47 $21 #
plane-surface $-1 -75.464338530575475 0 -6.246677002013735 0 0 1 1 0 0 forward_v I I I I #
face $-1 $48 $49 $17 $-1 $50 reversed single #
loop $-1 $-1 $51 $22 #
plane-surface $-1 75.464338530575475 0 -6.246677002013735 0 0 1 1 0 0 forward_v I I I I #
face $-1 $52 $53 $18 $-1 $54 forward single #
loop $-1 $-1 $55 $23 #
plane-surface $-1 -25.209053697521902 -117.99571835586499 108.9118539705818 -1 0 0 0 -0.62932039886446345 0.77714595512881146 forward_v I I I I #
face $-1 $56 $57 $19 $-1 $58 reversed single #
loop $-1 $59 $60 $24 #
cone-surface $-1 -39.307002490981276 -25.169901710837607 4.8612684515888152 0 0.62932039886446345 -0.77714595512881146 2 0 0 1 I I 0 1 2 forward I I I I #
face $-1 $61 $62 $15 $-1 $63 reversed single #
loop $-1 $-1 $64 $25 #
plane-surface $-1 0 0 -11.42724795248906 0 0 1 1 0 0 forward_v I I I I #
coedge $-1 $65 $66 $67 $68 forward $26 $-1 #
face $-1 $69 $70 $16 $-1 $71 forward single #
loop $-1 $-1 $72 $28 #
plane-surface $-1 -82.817467612620419 0 -8.8369624772513973 1 0 0 0 0 -1 forward_v I I I I #
coedge $-1 $73 $74 $75 $76 reversed $29 $-1 #
face $-1 $77 $78 $17 $-1 $79 forward single #
loop $-1 $-1 $80 $31 #
plane-surface $-1 82.817467612620419 0 -8.8369624772513973 -1 0 0 0 0 1 forward_v I I I I #
coedge $-1 $81 $82 $83 $84 forward $32 $-1 #
face $-1 $85 $86 $18 $-1 $87 forward single #
loop $-1 $-1 $88 $34 #
plane-surface $-1 -39.307002490981276 -32.268171361284502 3.0471521268682267 0 -0.62932039886446345 0.77714595512881146 1 0 0 forward_v I I I I #
coedge $-1 $89 $90 $91 $92 reversed $35 $-1 #
face $-1 $93 $94 $19 $-1 $95 forward single #
loop $-1 $96 $97 $37 #
cone-surface $-1 -39.307002490981276 -22.616589808416354 1.7081909083701898 0 0.62932039886446345 -0.77714595512881146 1 0 0 1 I I -0.70710678118654746 0.70710678118654746 1 forward I I I I #
loop $-1 $-1 $98 $24 #
coedge $-1 $60 $60 $99 $100 reversed $38 $-1 #
face $-1 $101 $102 $15 $-1 $103 reversed single #
loop $-1 $-1 $104 $40 #
plane-surface $-1 0 -32.26817136128448 0 0 1 0 0 0 1 forward_v I I I I #
coedge $-1 $105 $106 $107 $108 forward $41 $-1 #
coedge $-1 $109 $43 $110 $111 forward $26 $-1 #
coedge $-1 $43 $109 $112 $113 forward $26 $-1 #
coedge $-1 $114 $115 $43 $68 reversed $116 $-1 #
edge $-1 $117 -32.26817136128448 $118 32.26817136128448 $67 $119 forward 7 unknown #
face $-1 $120 $121 $16 $-1 $122 reversed single #
loop $-1 $-1 $123 $44 #
plane-surface $-1 0 0 11.42724795248906 0 0 1 1 0 0 forward_v I I I I #
coedge $-1 $124 $125 $126 $127 forward $45 $-1 #
coedge $-1 $128 $47 $129 $130 forward $29 $-1 #
coedge $-1 $47 $128 $131 $132 forward $29 $-1 #
coedge $-1 $133 $134 $47 $76 forward $135 $-1 #
edge $-1 $136 -32.26817136128448 $137 32.26817136128448 $75 $138 forward 7 unknown #
face $-1 $139 $140 $17 $-1 $141 reversed single #
loop $-1 $-1 $142 $48 #
plane-surface $-1 -75.464338530575475 0 -6.246677002013735 0 0 1 1 0 0 forward_v I I I I #
coedge $-1 $143 $83 $144 $145 forward $49 $-1 #
coedge $-1 $146 $51 $147 $148 forward $32 $-1 #
coedge $-1 $51 $146 $149 $150 forward $32 $-1 #
coedge $-1 $80 $151 $51 $84 reversed $49 $-1 #
edge $-1 $152 -32.26817136128448 $153 32.26817136128448 $83 $154 forward 7 unknown #
face $-1 $155 $156 $18 $-1 $157 forward single #
loop $-1 $-1 $158 $52 #
plane-surface $-1 -53.404951284440649 -117.99571835586499 108.9118539705818 1 0 0 0 0.62932039886446345 -0.77714595512881146 forward_v I I I I #
coedge $-1 $159 $160 $161 $162 reversed $53 $-1 #
coedge $-1 $90 $55 $160 $163 forward $35 $-1 #
coedge $-1 $55 $89 $164 $165 reversed $35 $-1 #
coedge $-1 $166 $161 $55 $92 forward $156 $-1 #
edge $-1 $167 -37.07824411042813 $168 -26.729687816648017 $91 $169 forward 7 unknown #
face $-1 $170 $171 $19 $-1 $172 forward single #
loop $-1 $-1 $173 $56 #
plane-surface $-1 -25.209053697521902 -117.99571835586499 108.9118539705818 -1 0 0 0 -0.62932039886446345 0.77714595512881146 forward_v I I I I #
loop $-1 $-1 $174 $37 #
coedge $-1 $97 $97 $98 $175 forward $57 $-1 #
coedge $-1 $98 $98 $97 $175 reversed $59 $-1 #
coedge $-1 $99 $99 $60 $100 forward $171 $-1 #
edge $-1 $176 1.0130076459554845e-016 $176 6.2831853071796004 $99 $177 forward 7 unknown #
face $-1 $178 $179 $15 $-1 $180 reversed single #
loop $-1 $-1 $181 $61 #
plane-surface $-1 -68.111209448530531 0 0 1 0 0 0 0 -1 forward_v I I I I #
coedge $-1 $182 $112 $183 $184 forward $62 $-1 #
coedge $-1 $185 $64 $182 $186 forward $41 $-1 #
coedge $-1 $64 $185 $187 $188 forward $41 $-1 #
coedge $-1 $115 $114 $64 $108 reversed $116 $-1 #
edge $-1 $189 -32.26817136128448 $190 32.26817136128448 $107 $191 forward 7 unknown #
coedge $-1 $66 $65 $192 $193 forward $26 $-1 #
coedge $-1 $194 $195 $65 $111 reversed $179 $-1 #
edge $-1 $118 -68.111209448530531 $196 68.111209448530531 $110 $197 forward 7 unknown #
coedge $-1 $104 $198 $66 $113 reversed $62 $-1 #
edge $-1 $199 -68.111209448530531 $117 68.111209448530531 $112 $200 forward 7 unknown #
coedge $-1 $107 $67 $198 $201 forward $116 $-1 #
coedge $-1 $67 $107 $194 $202 reversed $116 $-1 #
loop $-1 $-1 $114 $178 #
vertex $-1 $68 $203 #
vertex $-1 $68 $204 #
straight-curve $-1 68.111209448530531 0 11.42724795248906 0 1 0 I I #
face $-1 $205 $206 $16 $-1 $207 reversed single #
loop $-1 $-1 $208 $69 #
plane-surface $-1 0 0 -11.42724795248906 0 0 1 1 0 0 forward_v I I I I #
coedge $-1 $209 $210 $211 $212 forward $70 $-1 #
coedge $-1 $213 $72 $214 $215 reversed $45 $-1 #
coedge $-1 $72 $213 $128 $216 reversed $45 $-1 #
coedge $-1 $129 $217 $72 $127 reversed $218 $-1 #
edge $-1 $219 -2.5902854752376623 $220 2.5902854752376623 $126 $221 forward 7 unknown #
coedge $-1 $74 $73 $125 $216 forward $29 $-1 #
coedge $-1 $222 $126 $73 $130 reversed $218 $-1 #
edge $-1 $136 -7.3531290820449442 $219 7.3531290820449442 $129 $223 forward 7 unknown #
coedge $-1 $224 $225 $74 $132 reversed $206 $-1 #
edge $-1 $226 -7.3531290820449442 $137 7.3531290820449442 $131 $227 forward 7 unknown #
coedge $-1 $228 $75 $225 $229 reversed $135 $-1 #
coedge $-1 $75 $228 $222 $230 forward $135 $-1 #
loop $-1 $-1 $75 $205 #
vertex $-1 $230 $231 #
vertex $-1 $132 $232 #
straight-curve $-1 -68.111209448530531 0 -6.246677002013735 0 -1 0 I I #
face $-1 $233 $234 $17 $-1 $235 forward single #
loop $-1 $-1 $236 $77 #
plane-surface $-1 -82.817467612620419 0 -8.8369624772513973 1 0 0 0 0 -1 forward_v I I I I #
coedge $-1 $237 $238 $239 $240 reversed $78 $-1 #
coedge $-1 $151 $80 $241 $242 reversed $49 $-1 #
coedge $-1 $149 $243 $80 $145 reversed $244 $-1 #
edge $-1 $152 -2.5902854752376623 $245 2.5902854752376623 $80 $246 forward 7 unknown #
coedge $-1 $82 $81 $247 $248 reversed $32 $-1 #
coedge $-1 $249 $250 $81 $148 reversed $251 $-1 #
edge $-1 $153 -7.3531290820449442 $252 7.3531290820449442 $147 $253 forward 7 unknown #
coedge $-1 $254 $144 $82 $150 reversed $244 $-1 #
edge $-1 $255 -7.3531290820449442 $152 7.3531290820449442 $149 $256 forward 7 unknown #
coedge $-1 $83 $143 $249 $257 reversed $49 $-1 #
vertex $-1 $84 $258 #
vertex $-1 $84 $259 #
straight-curve $-1 82.817467612620419 0 -6.246677002013735 0 1 0 I I #
face $-1 $260 $261 $18 $-1 $262 forward single #
loop $-1 $-1 $263 $85 #
plane-surface $-1 0 0 11.42724795248906 0 0 1 1 0 0 forward_v I I I I #
coedge $-1 $264 $265 $263 $266 reversed $86 $-1 #
coedge $-1 $267 $88 $265 $268 reversed $53 $-1 #
coedge $-1 $88 $267 $89 $163 reversed $53 $-1 #
coedge $-1 $91 $263 $88 $162 forward $156 $-1 #
edge $-1 $269 -33.751450038950011 $167 -5.5555524520312645 $161 $270 forward 7 unknown #
edge $-1 $167 -13.316103912636162 $271 -2.7465363939559239e-014 $89 $272 forward 7 unknown #
coedge $-1 $273 $274 $90 $165 forward $275 $-1 #
edge $-1 $168 43.02867903280184 $271 51.40877485842266 $164 $276 forward 7 unknown #
coedge $-1 $277 $91 $274 $278 forward $156 $-1 #
vertex $-1 $162 $279 #
vertex $-1 $278 $280 #
straight-curve $-1 -25.209053697521902 -58.997859177932497 11.427247952489061 0 -1 0 I I #
face $-1 $281 $282 $19 $-1 $283 forward single #
loop $-1 $284 $99 $93 #
plane-surface $-1 -39.307002490981276 -32.268171361284502 3.0471521268682267 0 -0.62932039886446345 0.77714595512881146 1 0 0 forward_v I I I I #
coedge $-1 $285 $286 $287 $288 reversed $94 $-1 #
coedge $-1 $174 $174 $-1 $289 forward $96 $-1 #
edge $-1 $290 0 $290 6.2831853071796004 $97 $291 forward 7 unknown #
vertex $-1 $100 $292 #
ellipse-curve $-1 -39.307002490981276 -27.09389321439442 7.2372000396786564 0 0.62932039886446345 -0.77714595512881146 2 0 0 1 I I #
face $-1 $-1 $116 $15 $-1 $293 reversed single #
loop $-1 $-1 $194 $101 #
plane-surface $-1 0 32.26817136128448 0 0 -1 0 0 0 -1 forward_v I I I I #
coedge $-1 $294 $192 $195 $295 forward $102 $-1 #
coedge $-1 $198 $104 $105 $186 reversed $62 $-1 #
coedge $-1 $192 $294 $104 $184 reversed $102 $-1 #
edge $-1 $199 -11.42724795248906 $296 11.42724795248906 $183 $297 forward 7 unknown #
coedge $-1 $106 $105 $294 $298 forward $41 $-1 #
edge $-1 $190 -68.111209448530531 $296 68.111209448530531 $182 $299 forward 7 unknown #
coedge $-1 $195 $194 $106 $188 reversed $179 $-1 #
edge $-1 $300 -68.111209448530531 $189 68.111209448530531 $187 $301 forward 7 unknown #
vertex $-1 $108 $302 #
vertex $-1 $201 $303 #
straight-curve $-1 68.111209448530531 0 -11.42724795248906 0 -1 0 I I #
coedge $-1 $181 $183 $109 $193 reversed $102 $-1 #
edge $-1 $196 -32.26817136128448 $199 32.26817136128448 $192 $304 forward 7 unknown #
coedge $-1 $187 $110 $115 $202 forward $179 $-1 #
coedge $-1 $110 $187 $181 $295 reversed $179 $-1 #
vertex $-1 $111 $305 #
straight-curve $-1 0 32.26817136128448 11.42724795248906 -1 0 0 I I #
coedge $-1 $112 $182 $114 $201 reversed $62 $-1 #
vertex $-1 $193 $306 #
straight-curve $-1 0 -32.26817136128448 11.42724795248906 1 0 0 I I #
edge $-1 $117 -11.42724795248906 $190 11.42724795248906 $114 $307 forward 7 unknown #
edge $-1 $118 -11.42724795248906 $189 11.42724795248906 $115 $308 forward 7 unknown #
point $-1 68.111209448530531 -32.26817136128448 11.42724795248906 #
point $-1 68.111209448530531 32.26817136128448 11.42724795248906 #
face $-1 $309 $135 $16 $-1 $310 reversed single #
loop $-1 $-1 $225 $120 #
plane-surface $-1 0 -32.26817136128448 0 0 1 0 0 0 1 forward_v I I I I #
coedge $-1 $311 $312 $313 $314 forward $121 $-1 #
coedge $-1 $315 $123 $316 $317 forward $70 $-1 #
coedge $-1 $123 $315 $318 $319 forward $70 $-1 #
coedge $-1 $320 $321 $123 $212 reversed $322 $-1 #
edge $-1 $323 -32.26817136128448 $324 32.26817136128448 $211 $325 forward 7 unknown #
coedge $-1 $125 $124 $224 $326 reversed $45 $-1 #
coedge $-1 $312 $311 $124 $215 forward $121 $-1 #
edge $-1 $327 -32.26817136128448 $220 32.26817136128448 $124 $328 forward 7 unknown #
edge $-1 $219 -32.26817136128448 $226 32.26817136128448 $125 $329 forward 7 unknown #
coedge $-1 $126 $330 $312 $331 reversed $218 $-1 #
loop $-1 $-1 $330 $309 #
vertex $-1 $130 $332 #
vertex $-1 $331 $333 #
straight-curve $-1 -82.817467612620419 32.26817136128448 -8.8369624772513973 0 0 -1 I I #
coedge $-1 $316 $129 $134 $230 reversed $218 $-1 #
straight-curve $-1 -75.464338530575475 32.26817136128448 -6.246677002013735 -1 0 0 I I #
coedge $-1 $334 $131 $213 $326 forward $206 $-1 #
coedge $-1 $131 $318 $133 $229 forward $206 $-1 #
vertex $-1 $216 $335 #
straight-curve $-1 -75.464338530575475 -32.26817136128448 -6.246677002013735 1 0 0 I I #
coedge $-1 $134 $133 $315 $336 reversed $135 $-1 #
edge $-1 $337 -11.42724795248906 $137 6.246677002013735 $133 $338 forward 7 unknown #
edge $-1 $339 -11.42724795248906 $136 6.246677002013735 $222 $340 forward 7 unknown #
point $-1 -68.111209448530531 32.26817136128448 -6.246677002013735 #
point $-1 -68.111209448530531 -32.26817136128448 -6.246677002013735 #
face $-1 $341 $342 $17 $-1 $343 reversed single #
loop $-1 $-1 $344 $139 #
plane-surface $-1 0 0 11.42724795248906 0 0 1 1 0 0 forward_v I I I I #
coedge $-1 $345 $346 $347 $348 forward $140 $-1 #
coedge $-1 $349 $142 $350 $351 forward $78 $-1 #
coedge $-1 $142 $349 $352 $353 forward $78 $-1 #
coedge $-1 $354 $355 $142 $240 forward $356 $-1 #
edge $-1 $357 -32.26817136128448 $358 32.26817136128448 $239 $359 forward 7 unknown #
coedge $-1 $360 $361 $143 $242 forward $342 $-1 #
edge $-1 $362 -32.26817136128448 $245 32.26817136128448 $143 $363 forward 7 unknown #
coedge $-1 $144 $364 $360 $365 reversed $244 $-1 #
loop $-1 $-1 $366 $341 #
vertex $-1 $145 $367 #
straight-curve $-1 82.817467612620419 -32.26817136128448 -8.8369624772513973 0 0 -1 I I #
coedge $-1 $368 $369 $146 $248 forward $370 $-1 #
edge $-1 $255 -32.26817136128448 $252 32.26817136128448 $247 $371 forward 7 unknown #
coedge $-1 $372 $147 $151 $257 forward $251 $-1 #
coedge $-1 $147 $373 $368 $374 forward $251 $-1 #
loop $-1 $-1 $250 $375 #
vertex $-1 $148 $376 #
straight-curve $-1 75.464338530575475 32.26817136128448 -6.246677002013735 -1 0 0 I I #
coedge $-1 $377 $149 $369 $378 reversed $244 $-1 #
vertex $-1 $378 $379 #
straight-curve $-1 75.464338530575475 -32.26817136128448 -6.246677002013735 1 0 0 I I #
edge $-1 $153 -2.5902854752376623 $362 2.5902854752376623 $151 $380 forward 7 unknown #
point $-1 82.817467612620419 -32.26817136128448 -6.246677002013735 #
point $-1 82.817467612620419 32.26817136128448 -6.246677002013735 #
face $-1 $381 $382 $18 $-1 $383 reversed single #
loop $-1 $-1 $384 $155 #
plane-surface $-1 75.464338530575475 0 -6.246677002013735 0 0 1 1 0 0 forward_v I I I I #
coedge $-1 $161 $385 $158 $266 forward $156 $-1 #
coedge $-1 $265 $158 $386 $387 reversed $86 $-1 #
coedge $-1 $158 $264 $159 $268 forward $86 $-1 #
edge $-1 $388 26.729687816648017 $269 37.07824411042813 $263 $389 forward 7 unknown #
coedge $-1 $160 $159 $273 $390 reversed $53 $-1 #
edge $-1 $391 2.7465363939559239e-014 $269 13.316103912636162 $265 $392 forward 7 unknown #
vertex $-1 $162 $393 #
straight-curve $-1 -19.653501245490638 -21.919615067504363 11.42724795248906 1 0 0 I I #
vertex $-1 $390 $394 #
straight-curve $-1 -25.209053697521902 -32.268171361284502 3.0471521268682267 0 -0.77714595512881146 -0.62932039886446345 I I #
coedge $-1 $386 $164 $267 $390 forward $275 $-1 #
coedge $-1 $164 $395 $166 $278 reversed $275 $-1 #
loop $-1 $-1 $386 $396 #
straight-curve $-1 -25.209053697521902 -32.26817136128448 54.455926985290901 0 0 -1 I I #
coedge $-1 $397 $166 $398 $399 forward $156 $-1 #
edge $-1 $168 -25.209053697521902 $400 68.111209448530531 $274 $401 forward 7 unknown #
point $-1 -25.209053697521902 -21.919615067504367 11.42724795248906 #
point $-1 -25.209053697521902 -32.26817136128448 11.42724795248906 #
face $-1 $402 $403 $19 $-1 $404 forward single #
loop $-1 $-1 $405 $170 #
plane-surface $-1 -53.404951284440649 -117.99571835586499 108.9118539705818 1 0 0 0 0.62932039886446345 -0.77714595512881146 forward_v I I I I #
loop $-1 $-1 $406 $93 #
coedge $-1 $286 $173 $407 $408 forward $94 $-1 #
coedge $-1 $173 $285 $409 $410 reversed $94 $-1 #
coedge $-1 $411 $412 $173 $288 forward $403 $-1 #
edge $-1 $413 -37.07824411042813 $414 -26.729687816648017 $287 $415 forward 7 unknown #
edge $-1 $416 1 $416 0 $174 $-1 forward 7 unknown #
vertex $-1 $175 $417 #
ellipse-curve $-1 -39.307002490981276 -23.245910207280819 2.4853368634990014 0 -0.62932039886446345 0.77714595512881146 2 0 0 1 I I #
point $-1 -37.307002490981276 -27.093893214394399 7.2372000396786298 #
plane-surface $-1 68.111209448530531 0 0 -1 0 0 0 0 1 forward_v I I I I #
coedge $-1 $183 $181 $185 $298 reversed $102 $-1 #
edge $-1 $196 -11.42724795248906 $300 11.42724795248906 $195 $418 forward 7 unknown #
vertex $-1 $298 $419 #
straight-curve $-1 -68.111209448530531 -32.26817136128448 0 0 0 -1 I I #
edge $-1 $296 -32.26817136128448 $300 32.26817136128448 $294 $420 forward 7 unknown #
straight-curve $-1 0 -32.26817136128448 -11.42724795248906 -1 0 0 I I #
vertex $-1 $188 $421 #
straight-curve $-1 0 32.26817136128448 -11.42724795248906 1 0 0 I I #
point $-1 68.111209448530531 32.26817136128448 -11.42724795248906 #
point $-1 68.111209448530531 -32.26817136128448 -11.42724795248906 #
straight-curve $-1 -68.111209448530531 0 11.42724795248906 0 -1 0 I I #
point $-1 -68.111209448530531 32.26817136128448 11.42724795248906 #
point $-1 -68.111209448530531 -32.26817136128448 11.42724795248906 #
straight-curve $-1 68.111209448530531 -32.26817136128448 0 0 0 -1 I I #
straight-curve $-1 68.111209448530531 32.26817136128448 0 0 0 -1 I I #
face $-1 $422 $218 $16 $-1 $423 reversed single #
plane-surface $-1 -68.111209448530531 0 0 1 0 0 0 0 -1 forward_v I I I I #
coedge $-1 $214 $208 $334 $424 forward $121 $-1 #
coedge $-1 $208 $214 $217 $331 forward $121 $-1 #
coedge $-1 $321 $320 $208 $314 reversed $322 $-1 #
edge $-1 $425 -32.26817136128448 $426 32.26817136128448 $313 $427 forward 7 unknown #
coedge $-1 $210 $209 $228 $336 forward $70 $-1 #
coedge $-1 $330 $222 $209 $317 reversed $218 $-1 #
edge $-1 $324 -68.111209448530531 $339 68.111209448530531 $316 $428 forward 7 unknown #
coedge $-1 $225 $429 $210 $319 reversed $206 $-1 #
edge $-1 $337 -68.111209448530531 $323 68.111209448530531 $318 $430 forward 7 unknown #
coedge $-1 $313 $211 $429 $431 forward $322 $-1 #
coedge $-1 $211 $313 $330 $432 reversed $322 $-1 #
loop $-1 $-1 $320 $422 #
vertex $-1 $212 $433 #
vertex $-1 $212 $434 #
straight-curve $-1 68.111209448530531 0 11.42724795248906 0 1 0 I I #
edge $-1 $226 -2.5902854752376623 $327 2.5902854752376623 $213 $435 forward 7 unknown #
vertex $-1 $215 $436 #
straight-curve $-1 -82.817467612620419 0 -11.42724795248906 0 1 0 I I #
straight-curve $-1 -82.817467612620419 0 -6.246677002013735 0 -1 0 I I #
coedge $-1 $217 $316 $321 $432 forward $218 $-1 #
edge $-1 $220 -82.817467612620419 $425 68.111209448530531 $217 $437 forward 7 unknown #
point $-1 -82.817467612620419 32.26817136128448 -6.246677002013735 #
point $-1 -82.817467612620419 32.26817136128448 -11.42724795248906 #
coedge $-1 $429 $224 $311 $424 reversed $206 $-1 #
point $-1 -82.817467612620419 -32.26817136128448 -6.246677002013735 #
edge $-1 $339 -32.26817136128448 $337 32.26817136128448 $228 $438 forward 7 unknown #
vertex $-1 $336 $439 #
straight-curve $-1 -68.111209448530531 -32.26817136128448 0 0 0 -1 I I #
vertex $-1 $317 $440 #
straight-curve $-1 -68.111209448530531 32.26817136128448 0 0 0 -1 I I #
face $-1 $441 $244 $17 $-1 $442 reversed single #
loop $-1 $-1 $360 $233 #
plane-surface $-1 0 0 -11.42724795248906 0 0 1 1 0 0 forward_v I I I I #
coedge $-1 $443 $444 $445 $446 forward $234 $-1 #
coedge $-1 $447 $236 $448 $449 reversed $140 $-1 #
coedge $-1 $236 $447 $349 $450 reversed $140 $-1 #
coedge $-1 $350 $372 $236 $348 reversed $251 $-1 #
edge $-1 $451 -2.5902854752376623 $452 2.5902854752376623 $347 $453 forward 7 unknown #
coedge $-1 $238 $237 $346 $450 forward $78 $-1 #
coedge $-1 $454 $347 $237 $351 reversed $251 $-1 #
edge $-1 $357 -7.3531290820449442 $451 7.3531290820449442 $350 $455 forward 7 unknown #
coedge $-1 $364 $366 $238 $353 reversed $244 $-1 #
edge $-1 $456 -7.3531290820449442 $358 7.3531290820449442 $352 $457 forward 7 unknown #
coedge $-1 $458 $239 $366 $459 reversed $356 $-1 #
coedge $-1 $239 $458 $454 $460 forward $356 $-1 #
loop $-1 $-1 $239 $441 #
vertex $-1 $460 $461 #
vertex $-1 $353 $462 #
straight-curve $-1 -68.111209448530531 0 -6.246677002013735 0 -1 0 I I #
coedge $-1 $448 $241 $243 $365 forward $342 $-1 #
coedge $-1 $241 $448 $372 $463 forward $342 $-1 #
vertex $-1 $242 $464 #
straight-curve $-1 82.817467612620419 0 -11.42724795248906 0 -1 0 I I #
coedge $-1 $243 $352 $447 $465 forward $244 $-1 #
edge $-1 $245 -7.3531290820449442 $466 158.28180614319589 $243 $467 forward 7 unknown #
coedge $-1 $352 $377 $354 $459 forward $244 $-1 #
point $-1 82.817467612620419 -32.26817136128448 -11.42724795248906 #
coedge $-1 $445 $247 $250 $374 reversed $370 $-1 #
coedge $-1 $247 $445 $254 $378 forward $370 $-1 #
loop $-1 $-1 $247 $468 #
straight-curve $-1 68.111209448530531 0 -6.246677002013735 0 1 0 I I #
coedge $-1 $347 $249 $361 $463 reversed $251 $-1 #
coedge $-1 $250 $454 $443 $469 reversed $251 $-1 #
edge $-1 $470 -11.42724795248906 $252 6.246677002013735 $368 $471 forward 7 unknown #
face $-1 $468 $251 $17 $-1 $472 reversed single #
point $-1 68.111209448530531 32.26817136128448 -6.246677002013735 #
coedge $-1 $366 $254 $444 $473 reversed $244 $-1 #
edge $-1 $474 -11.42724795248906 $255 6.246677002013735 $369 $475 forward 7 unknown #
point $-1 68.111209448530531 -32.26817136128448 -6.246677002013735 #
straight-curve $-1 82.817467612620419 32.26817136128448 -8.8369624772513973 0 0 -1 I I #
face $-1 $476 $477 $18 $-1 $478 forward single #
loop $-1 $-1 $479 $260 #
plane-surface $-1 82.817467612620419 0 -8.8369624772513973 -1 0 0 0 0 1 forward_v I I I I #
coedge $-1 $480 $481 $482 $483 forward $261 $-1 #
coedge $-1 $263 $484 $485 $486 forward $156 $-1 #
coedge $-1 $485 $273 $264 $387 forward $275 $-1 #
edge $-1 $391 -51.40877485842266 $388 -43.02867903280184 $386 $487 forward 7 unknown #
vertex $-1 $387 $488 #
straight-curve $-1 -53.404951284440649 -58.997859177932497 11.427247952489061 0 1 0 I I #
edge $-1 $271 5.5555524520312645 $391 33.751450038950011 $273 $489 forward 7 unknown #
vertex $-1 $390 $490 #
straight-curve $-1 -53.404951284440649 -32.268171361284502 3.0471521268682267 0 0.77714595512881146 0.62932039886446345 I I #
point $-1 -53.404951284440649 -21.919615067504367 11.42724795248906 #
point $-1 -25.209053697521902 -32.26817136128448 3.047152126868244 #
coedge $-1 $274 $491 $492 $493 reversed $275 $-1 #
face $-1 $494 $275 $18 $-1 $495 reversed single #
coedge $-1 $484 $277 $496 $497 forward $156 $-1 #
coedge $-1 $492 $498 $277 $399 reversed $499 $-1 #
edge $-1 $400 -32.26817136128448 $500 32.26817136128448 $398 $501 forward 7 unknown #
vertex $-1 $399 $502 #
straight-curve $-1 0 -32.26817136128448 11.42724795248906 1 0 0 I I #
face $-1 $503 $504 $19 $-1 $505 forward single #
loop $-1 $-1 $506 $281 #
plane-surface $-1 0 0 11.42724795248906 0 0 1 1 0 0 forward_v I I I I #
coedge $-1 $507 $508 $506 $509 reversed $282 $-1 #
coedge $-1 $510 $407 $412 $511 reversed $284 $-1 #
coedge $-1 $406 $512 $285 $408 reversed $284 $-1 #
edge $-1 $413 -13.316103912636162 $513 -2.7465363939559239e-014 $285 $514 forward 7 unknown #
coedge $-1 $515 $516 $286 $410 forward $517 $-1 #
edge $-1 $414 43.02867903280184 $513 51.40877485842266 $409 $518 forward 7 unknown #
coedge $-1 $519 $287 $516 $520 forward $403 $-1 #
coedge $-1 $287 $506 $406 $511 forward $403 $-1 #
vertex $-1 $511 $521 #
vertex $-1 $520 $522 #
straight-curve $-1 -25.209053697521902 -58.997859177932497 11.427247952489061 0 -1 0 I I #
vertex $-1 $289 $523 #
point $-1 -37.307002490981276 -23.245910207280819 2.4853368634990014 #
straight-curve $-1 -68.111209448530531 32.26817136128448 0 0 0 -1 I I #
point $-1 -68.111209448530531 -32.26817136128448 -11.42724795248906 #
straight-curve $-1 -68.111209448530531 0 -11.42724795248906 0 1 0 I I #
point $-1 -68.111209448530531 32.26817136128448 -11.42724795248906 #
face $-1 $-1 $322 $16 $-1 $524 reversed single #
plane-surface $-1 0 32.26817136128448 0 0 -1 0 0 0 -1 forward_v I I I I #
edge $-1 $426 -143.57554797910601 $327 7.3531290820449442 $334 $525 forward 7 unknown #
vertex $-1 $314 $526 #
vertex $-1 $431 $527 #
straight-curve $-1 68.111209448530531 0 -11.42724795248906 0 -1 0 I I #
straight-curve $-1 0 32.26817136128448 11.42724795248906 -1 0 0 I I #
coedge $-1 $318 $334 $320 $431 reversed $206 $-1 #
straight-curve $-1 0 -32.26817136128448 11.42724795248906 1 0 0 I I #
edge $-1 $323 -11.42724795248906 $426 11.42724795248906 $320 $528 forward 7 unknown #
edge $-1 $324 -11.42724795248906 $425 11.42724795248906 $321 $529 forward 7 unknown #
point $-1 68.111209448530531 -32.26817136128448 11.42724795248906 #
point $-1 68.111209448530531 32.26817136128448 11.42724795248906 #
straight-curve $-1 -82.817467612620419 -32.26817136128448 -8.8369624772513973 0 0 -1 I I #
point $-1 -82.817467612620419 -32.26817136128448 -11.42724795248906 #
straight-curve $-1 0 32.26817136128448 -11.42724795248906 1 0 0 I I #
straight-curve $-1 -68.111209448530531 0 11.42724795248906 0 -1 0 I I #
point $-1 -68.111209448530531 -32.26817136128448 11.42724795248906 #
point $-1 -68.111209448530531 32.26817136128448 11.42724795248906 #
face $-1 $375 $356 $17 $-1 $530 reversed single #
plane-surface $-1 0 -32.26817136128448 0 0 1 0 0 0 1 forward_v I I I I #
coedge $-1 $531 $344 $373 $469 forward $234 $-1 #
coedge $-1 $344 $531 $377 $473 forward $234 $-1 #
coedge $-1 $369 $368 $344 $446 reversed $370 $-1 #
edge $-1 $474 -32.26817136128448 $470 32.26817136128448 $445 $532 forward 7 unknown #
coedge $-1 $346 $345 $364 $465 reversed $140 $-1 #
coedge $-1 $361 $360 $345 $449 forward $342 $-1 #
edge $-1 $466 -32.26817136128448 $452 32.26817136128448 $345 $533 forward 7 unknown #
edge $-1 $451 -32.26817136128448 $456 32.26817136128448 $346 $534 forward 7 unknown #
vertex $-1 $351 $535 #
vertex $-1 $463 $536 #
straight-curve $-1 -82.817467612620419 32.26817136128448 -8.8369624772513973 0 0 -1 I I #
coedge $-1 $373 $350 $355 $460 reversed $251 $-1 #
straight-curve $-1 -75.464338530575475 32.26817136128448 -6.246677002013735 -1 0 0 I I #
vertex $-1 $450 $537 #
straight-curve $-1 -75.464338530575475 -32.26817136128448 -6.246677002013735 1 0 0 I I #
coedge $-1 $355 $354 $531 $538 reversed $356 $-1 #
edge $-1 $539 -11.42724795248906 $358 6.246677002013735 $354 $540 forward 7 unknown #
edge $-1 $541 -11.42724795248906 $357 6.246677002013735 $454 $542 forward 7 unknown #
point $-1 -68.111209448530531 32.26817136128448 -6.246677002013735 #
point $-1 -68.111209448530531 -32.26817136128448 -6.246677002013735 #
edge $-1 $452 -158.28180614319589 $362 7.3531290820449442 $372 $543 forward 7 unknown #
point $-1 82.817467612620419 32.26817136128448 -11.42724795248906 #
edge $-1 $456 -2.5902854752376623 $466 2.5902854752376623 $447 $544 forward 7 unknown #
vertex $-1 $449 $545 #
straight-curve $-1 75.464338530575475 -32.26817136128448 -11.42724795248906 -1 0 0 I I #
face $-1 $-1 $370 $17 $-1 $546 reversed single #
edge $-1 $470 -68.111209448530531 $541 68.111209448530531 $373 $547 forward 7 unknown #
vertex $-1 $446 $548 #
straight-curve $-1 68.111209448530531 32.26817136128448 0 0 0 -1 I I #
plane-surface $-1 0 32.26817136128448 0 0 -1 0 0 0 -1 forward_v I I I I #
edge $-1 $539 -68.111209448530531 $474 68.111209448530531 $377 $549 forward 7 unknown #
vertex $-1 $446 $550 #
straight-curve $-1 68.111209448530531 -32.26817136128448 0 0 0 -1 I I #
face $-1 $551 $552 $18 $-1 $553 reversed single #
loop $-1 $-1 $554 $381 #
plane-surface $-1 -75.464338530575475 0 -6.246677002013735 0 0 1 1 0 0 forward_v I I I I #
coedge $-1 $555 $482 $556 $557 forward $382 $-1 #
coedge $-1 $558 $384 $559 $560 forward $261 $-1 #
coedge $-1 $384 $558 $491 $561 forward $261 $-1 #
coedge $-1 $479 $562 $384 $483 reversed $382 $-1 #
edge $-1 $563 -32.26817136128448 $564 32.26817136128448 $482 $565 forward 7 unknown #
coedge $-1 $385 $397 $566 $567 forward $156 $-1 #
coedge $-1 $568 $386 $385 $486 reversed $275 $-1 #
edge $-1 $569 -68.111209448530531 $388 -53.404951284440649 $485 $401 forward 7 unknown #
straight-curve $-1 -53.404951284440649 -32.26817136128448 54.455926985290901 0 0 1 I I #
point $-1 -53.404951284440649 -32.26817136128448 11.42724795248906 #
straight-curve $-1 -19.653501245490638 -32.26817136128448 3.0471521268682387 -1 0 0 I I #
point $-1 -53.404951284440649 -32.26817136128448 3.047152126868244 #
coedge $-1 $395 $556 $481 $561 reversed $275 $-1 #
coedge $-1 $570 $398 $395 $493 forward $499 $-1 #
edge $-1 $400 -11.42724795248906 $571 6.246677002013735 $492 $572 forward 7 unknown #
face $-1 $573 $574 $18 $-1 $575 reversed single #
plane-surface $-1 0 -32.26817136128448 0 0 1 0 0 0 1 forward_v I I I I #
coedge $-1 $576 $577 $397 $497 reversed $578 $-1 #
edge $-1 $500 -68.111209448530531 $579 68.111209448530531 $496 $580 forward 7 unknown #
coedge $-1 $398 $570 $576 $581 reversed $499 $-1 #
loop $-1 $-1 $570 $582 #
vertex $-1 $399 $583 #
straight-curve $-1 68.111209448530531 0 11.42724795248906 0 1 0 I I #
point $-1 68.111209448530531 -32.26817136128448 11.42724795248906 #
face $-1 $584 $585 $19 $-1 $586 reversed single #
loop $-1 $-1 $587 $402 #
plane-surface $-1 75.464338530575475 0 -6.246677002013735 0 0 1 1 0 0 forward_v I I I I #
coedge $-1 $412 $588 $405 $509 forward $403 $-1 #
coedge $-1 $508 $405 $589 $590 reversed $282 $-1 #
coedge $-1 $405 $507 $510 $591 forward $282 $-1 #
edge $-1 $592 26.729687816648017 $593 37.07824411042813 $506 $594 forward 7 unknown #
coedge $-1 $512 $406 $508 $591 reversed $284 $-1 #
edge $-1 $593 -33.751450038950011 $413 -5.5555524520312645 $412 $595 forward 7 unknown #
coedge $-1 $407 $510 $515 $596 reversed $284 $-1 #
vertex $-1 $596 $597 #
straight-curve $-1 -25.209053697521902 -32.268171361284502 3.0471521268682267 0 -0.77714595512881146 -0.62932039886446345 I I #
coedge $-1 $589 $409 $512 $596 forward $517 $-1 #
coedge $-1 $409 $598 $411 $520 reversed $517 $-1 #
loop $-1 $-1 $589 $599 #
straight-curve $-1 -25.209053697521902 -32.26817136128448 54.455926985290901 0 0 -1 I I #
coedge $-1 $600 $411 $601 $602 forward $403 $-1 #
edge $-1 $414 -25.209053697521902 $603 68.111209448530531 $516 $604 forward 7 unknown #
point $-1 -25.209053697521902 -21.919615067504367 11.42724795248906 #
point $-1 -25.209053697521902 -32.26817136128448 11.42724795248906 #
point $-1 -39.307002490981276 -21.987269409551889 0.93104495324137837 #
plane-surface $-1 68.111209448530531 0 0 -1 0 0 0 0 1 forward_v I I I I #
straight-curve $-1 -75.464338530575475 -32.26817136128448 -11.42724795248906 -1 0 0 I I #
point $-1 68.111209448530531 32.26817136128448 -11.42724795248906 #
point $-1 68.111209448530531 -32.26817136128448 -11.42724795248906 #
straight-curve $-1 68.111209448530531 -32.26817136128448 0 0 0 -1 I I #
straight-curve $-1 68.111209448530531 32.26817136128448 0 0 0 -1 I I #
plane-surface $-1 -68.111209448530531 0 0 1 0 0 0 0 -1 forward_v I I I I #
coedge $-1 $444 $443 $458 $538 forward $234 $-1 #
straight-curve $-1 68.111209448530531 0 11.42724795248906 0 1 0 I I #
straight-curve $-1 -82.817467612620419 0 -11.42724795248906 0 1 0 I I #
straight-curve $-1 -82.817467612620419 0 -6.246677002013735 0 -1 0 I I #
point $-1 -82.817467612620419 32.26817136128448 -6.246677002013735 #
point $-1 -82.817467612620419 32.26817136128448 -11.42724795248906 #
point $-1 -82.817467612620419 -32.26817136128448 -6.246677002013735 #
edge $-1 $541 -32.26817136128448 $539 32.26817136128448 $458 $605 forward 7 unknown #
vertex $-1 $538 $606 #
straight-curve $-1 -68.111209448530531 -32.26817136128448 0 0 0 -1 I I #
vertex $-1 $469 $607 #
straight-curve $-1 -68.111209448530531 32.26817136128448 0 0 0 -1 I I #
straight-curve $-1 75.464338530575475 32.26817136128448 -11.42724795248906 1 0 0 I I #
straight-curve $-1 -82.817467612620419 -32.26817136128448 -8.8369624772513973 0 0 -1 I I #
point $-1 -82.817467612620419 -32.26817136128448 -11.42724795248906 #
plane-surface $-1 68.111209448530531 0 0 -1 0 0 0 0 1 forward_v I I I I #
straight-curve $-1 0 32.26817136128448 11.42724795248906 -1 0 0 I I #
point $-1 68.111209448530531 32.26817136128448 11.42724795248906 #
straight-curve $-1 0 -32.26817136128448 11.42724795248906 1 0 0 I I #
point $-1 68.111209448530531 -32.26817136128448 11.42724795248906 #
face $-1 $396 $608 $18 $-1 $609 reversed single #
loop $-1 $-1 $610 $476 #
plane-surface $-1 -82.817467612620419 0 -8.8369624772513973 1 0 0 0 0 -1 forward_v I I I I #
coedge $-1 $611 $612 $613 $614 reversed $477 $-1 #
coedge $-1 $562 $479 $615 $616 reversed $382 $-1 #
coedge $-1 $491 $617 $479 $557 reversed $275 $-1 #
edge $-1 $563 -2.5902854752376623 $618 2.5902854752376623 $479 $619 forward 7 unknown #
coedge $-1 $481 $480 $570 $620 reversed $261 $-1 #
coedge $-1 $621 $576 $480 $560 reversed $578 $-1 #
edge $-1 $564 -7.3531290820449442 $622 7.3531290820449442 $559 $623 forward 7 unknown #
edge $-1 $571 -7.3531290820449442 $563 7.3531290820449442 $491 $624 forward 7 unknown #
coedge $-1 $482 $555 $621 $625 reversed $382 $-1 #
vertex $-1 $483 $626 #
vertex $-1 $483 $627 #
straight-curve $-1 82.817467612620419 0 -6.246677002013735 0 1 0 I I #
coedge $-1 $628 $629 $484 $567 reversed $574 $-1 #
edge $-1 $579 -32.26817136128448 $569 32.26817136128448 $566 $630 forward 7 unknown #
coedge $-1 $631 $485 $629 $632 forward $275 $-1 #
vertex $-1 $567 $633 #
coedge $-1 $498 $492 $558 $620 forward $499 $-1 #
vertex $-1 $493 $634 #
straight-curve $-1 68.111209448530531 -32.26817136128448 0 0 0 -1 I I #
face $-1 $582 $578 $18 $-1 $635 reversed single #
loop $-1 $-1 $613 $494 #
plane-surface $-1 -68.111209448530531 0 0 1 0 0 0 0 -1 forward_v I I I I #
coedge $-1 $559 $496 $498 $581 forward $578 $-1 #
coedge $-1 $496 $636 $628 $637 reversed $578 $-1 #
loop $-1 $-1 $576 $573 #
vertex $-1 $497 $638 #
straight-curve $-1 0 32.26817136128448 11.42724795248906 -1 0 0 I I #
edge $-1 $500 -11.42724795248906 $622 6.246677002013735 $498 $639 forward 7 unknown #
face $-1 $-1 $499 $18 $-1 $640 reversed single #
point $-1 68.111209448530531 32.26817136128448 11.42724795248906 #
face $-1 $641 $642 $19 $-1 $643 forward single #
loop $-1 $-1 $644 $503 #
plane-surface $-1 82.817467612620419 0 -8.8369624772513973 -1 0 0 0 0 1 forward_v I I I I #
coedge $-1 $645 $646 $647 $648 forward $504 $-1 #
coedge $-1 $506 $649 $650 $651 forward $403 $-1 #
coedge $-1 $650 $515 $507 $590 forward $517 $-1 #
edge $-1 $652 -51.40877485842266 $592 -43.02867903280184 $589 $653 forward 7 unknown #
edge $-1 $652 2.7465363939559239e-014 $593 13.316103912636162 $508 $654 forward 7 unknown #
vertex $-1 $590 $655 #
vertex $-1 $511 $656 #
straight-curve $-1 -53.404951284440649 -58.997859177932497 11.427247952489061 0 1 0 I I #
straight-curve $-1 -19.653501245490638 -21.919615067504363 11.42724795248906 1 0 0 I I #
edge $-1 $513 5.5555524520312645 $652 33.751450038950011 $515 $657 forward 7 unknown #
point $-1 -25.209053697521902 -32.26817136128448 3.047152126868244 #
coedge $-1 $516 $658 $659 $660 reversed $517 $-1 #
face $-1 $661 $517 $19 $-1 $662 reversed single #
coedge $-1 $649 $519 $663 $664 forward $403 $-1 #
coedge $-1 $659 $665 $519 $602 reversed $666 $-1 #
edge $-1 $603 -32.26817136128448 $667 32.26817136128448 $601 $668 forward 7 unknown #
vertex $-1 $602 $669 #
straight-curve $-1 0 -32.26817136128448 11.42724795248906 1 0 0 I I #
straight-curve $-1 -68.111209448530531 0 11.42724795248906 0 -1 0 I I #
point $-1 -68.111209448530531 -32.26817136128448 11.42724795248906 #
point $-1 -68.111209448530531 32.26817136128448 11.42724795248906 #
loop $-1 $-1 $670 $551 #
plane-surface $-1 0 0 -11.42724795248906 0 0 1 1 0 0 forward_v I I I I #
coedge $-1 $671 $672 $673 $674 forward $552 $-1 #
coedge $-1 $675 $554 $636 $676 forward $477 $-1 #
coedge $-1 $554 $675 $631 $677 forward $477 $-1 #
coedge $-1 $629 $628 $554 $614 forward $574 $-1 #
edge $-1 $678 -32.26817136128448 $679 32.26817136128448 $613 $680 forward 7 unknown #
coedge $-1 $670 $681 $555 $616 forward $608 $-1 #
edge $-1 $682 -32.26817136128448 $618 32.26817136128448 $555 $683 forward 7 unknown #
coedge $-1 $556 $684 $670 $685 reversed $275 $-1 #
vertex $-1 $557 $686 #
straight-curve $-1 82.817467612620419 -32.26817136128448 -8.8369624772513973 0 0 -1 I I #
edge $-1 $571 -32.26817136128448 $622 32.26817136128448 $570 $687 forward 7 unknown #
coedge $-1 $688 $559 $562 $625 forward $578 $-1 #
vertex $-1 $560 $689 #
straight-curve $-1 75.464338530575475 32.26817136128448 -6.246677002013735 -1 0 0 I I #
straight-curve $-1 75.464338530575475 -32.26817136128448 -6.246677002013735 1 0 0 I I #
edge $-1 $564 -2.5902854752376623 $682 2.5902854752376623 $562 $690 forward 7 unknown #
point $-1 82.817467612620419 -32.26817136128448 -6.246677002013735 #
point $-1 82.817467612620419 32.26817136128448 -6.246677002013735 #
coedge $-1 $613 $566 $577 $637 forward $574 $-1 #
coedge $-1 $566 $613 $568 $632 reversed $574 $-1 #
straight-curve $-1 -68.111209448530531 0 11.42724795248906 0 -1 0 I I #
coedge $-1 $684 $568 $612 $677 reversed $275 $-1 #
edge $-1 $569 -11.42724795248906 $679 6.246677002013735 $629 $691 forward 7 unknown #
point $-1 -68.111209448530531 -32.26817136128448 11.42724795248906 #
point $-1 68.111209448530531 -32.26817136128448 -6.246677002013735 #
plane-surface $-1 0 32.26817136128448 0 0 -1 0 0 0 -1 forward_v I I I I #
coedge $-1 $577 $673 $611 $676 reversed $578 $-1 #
edge $-1 $579 -11.42724795248906 $678 6.246677002013735 $577 $692 forward 7 unknown #
point $-1 -68.111209448530531 32.26817136128448 11.42724795248906 #
straight-curve $-1 68.111209448530531 32.26817136128448 0 0 0 -1 I I #
plane-surface $-1 68.111209448530531 0 0 -1 0 0 0 0 1 forward_v I I I I #
face $-1 $693 $694 $19 $-1 $695 reversed single #
loop $-1 $-1 $696 $584 #
plane-surface $-1 -75.464338530575475 0 -6.246677002013735 0 0 1 1 0 0 forward_v I I I I #
coedge $-1 $697 $647 $698 $699 forward $585 $-1 #
coedge $-1 $700 $587 $701 $702 forward $504 $-1 #
coedge $-1 $587 $700 $658 $703 forward $504 $-1 #
coedge $-1 $644 $704 $587 $648 reversed $585 $-1 #
edge $-1 $705 -32.26817136128448 $706 32.26817136128448 $647 $707 forward 7 unknown #
coedge $-1 $588 $600 $708 $709 forward $403 $-1 #
coedge $-1 $710 $589 $588 $651 reversed $517 $-1 #
edge $-1 $711 -68.111209448530531 $592 -53.404951284440649 $650 $604 forward 7 unknown #
vertex $-1 $596 $712 #
straight-curve $-1 -53.404951284440649 -32.26817136128448 54.455926985290901 0 0 1 I I #
straight-curve $-1 -53.404951284440649 -32.268171361284502 3.0471521268682267 0 0.77714595512881146 0.62932039886446345 I I #
point $-1 -53.404951284440649 -32.26817136128448 11.42724795248906 #
point $-1 -53.404951284440649 -21.919615067504367 11.42724795248906 #
straight-curve $-1 -19.653501245490638 -32.26817136128448 3.0471521268682387 -1 0 0 I I #
coedge $-1 $598 $698 $646 $703 reversed $517 $-1 #
coedge $-1 $713 $601 $598 $660 forward $666 $-1 #
edge $-1 $603 -11.42724795248906 $714 6.246677002013735 $659 $715 forward 7 unknown #
face $-1 $716 $717 $19 $-1 $718 reversed single #
plane-surface $-1 0 -32.26817136128448 0 0 1 0 0 0 1 forward_v I I I I #
coedge $-1 $719 $720 $600 $664 reversed $721 $-1 #
edge $-1 $667 -68.111209448530531 $722 68.111209448530531 $663 $723 forward 7 unknown #
coedge $-1 $601 $713 $719 $724 reversed $666 $-1 #
loop $-1 $-1 $713 $725 #
vertex $-1 $602 $726 #
straight-curve $-1 68.111209448530531 0 11.42724795248906 0 1 0 I I #
point $-1 68.111209448530531 -32.26817136128448 11.42724795248906 #
coedge $-1 $727 $615 $617 $685 forward $608 $-1 #
coedge $-1 $728 $610 $727 $729 reversed $552 $-1 #
coedge $-1 $610 $728 $675 $730 reversed $552 $-1 #
coedge $-1 $636 $688 $610 $674 reversed $578 $-1 #
edge $-1 $731 -2.5902854752376623 $732 2.5902854752376623 $673 $733 forward 7 unknown #
coedge $-1 $612 $611 $672 $730 forward $477 $-1 #
edge $-1 $678 -7.3531290820449442 $731 7.3531290820449442 $636 $734 forward 7 unknown #
edge $-1 $735 -7.3531290820449442 $679 7.3531290820449442 $631 $736 forward 7 unknown #
vertex $-1 $637 $737 #
vertex $-1 $677 $738 #
straight-curve $-1 -68.111209448530531 0 -6.246677002013735 0 -1 0 I I #
coedge $-1 $615 $727 $688 $739 forward $608 $-1 #
vertex $-1 $616 $740 #
straight-curve $-1 82.817467612620419 0 -11.42724795248906 0 -1 0 I I #
coedge $-1 $617 $631 $728 $741 forward $275 $-1 #
edge $-1 $618 -7.3531290820449442 $742 158.28180614319589 $617 $743 forward 7 unknown #
point $-1 82.817467612620419 -32.26817136128448 -11.42724795248906 #
straight-curve $-1 68.111209448530531 0 -6.246677002013735 0 1 0 I I #
coedge $-1 $673 $621 $681 $739 reversed $578 $-1 #
point $-1 68.111209448530531 32.26817136128448 -6.246677002013735 #
straight-curve $-1 82.817467612620419 32.26817136128448 -8.8369624772513973 0 0 -1 I I #
straight-curve $-1 -68.111209448530531 -32.26817136128448 0 0 0 -1 I I #
straight-curve $-1 -68.111209448530531 32.26817136128448 0 0 0 -1 I I #
face $-1 $599 $744 $19 $-1 $745 reversed single #
loop $-1 $-1 $746 $641 #
plane-surface $-1 -82.817467612620419 0 -8.8369624772513973 1 0 0 0 0 -1 forward_v I I I I #
coedge $-1 $747 $748 $749 $750 reversed $642 $-1 #
coedge $-1 $704 $644 $751 $752 reversed $585 $-1 #
coedge $-1 $658 $753 $644 $699 reversed $517 $-1 #
edge $-1 $705 -2.5902854752376623 $754 2.5902854752376623 $644 $755 forward 7 unknown #
coedge $-1 $646 $645 $713 $756 reversed $504 $-1 #
coedge $-1 $757 $719 $645 $702 reversed $721 $-1 #
edge $-1 $706 -7.3531290820449442 $758 7.3531290820449442 $701 $759 forward 7 unknown #
edge $-1 $714 -7.3531290820449442 $705 7.3531290820449442 $658 $760 forward 7 unknown #
coedge $-1 $647 $697 $757 $761 reversed $585 $-1 #
vertex $-1 $648 $762 #
vertex $-1 $648 $763 #
straight-curve $-1 82.817467612620419 0 -6.246677002013735 0 1 0 I I #
coedge $-1 $764 $765 $649 $709 reversed $717 $-1 #
edge $-1 $722 -32.26817136128448 $711 32.26817136128448 $708 $766 forward 7 unknown #
coedge $-1 $767 $650 $765 $768 forward $517 $-1 #
vertex $-1 $709 $769 #
point $-1 -53.404951284440649 -32.26817136128448 3.047152126868244 #
coedge $-1 $665 $659 $700 $756 forward $666 $-1 #
vertex $-1 $660 $770 #
straight-curve $-1 68.111209448530531 -32.26817136128448 0 0 0 -1 I I #
face $-1 $725 $721 $19 $-1 $771 reversed single #
loop $-1 $-1 $749 $661 #
plane-surface $-1 -68.111209448530531 0 0 1 0 0 0 0 -1 forward_v I I I I #
coedge $-1 $701 $663 $665 $724 forward $721 $-1 #
coedge $-1 $663 $772 $764 $773 reversed $721 $-1 #
loop $-1 $-1 $719 $716 #
vertex $-1 $664 $774 #
straight-curve $-1 0 32.26817136128448 11.42724795248906 -1 0 0 I I #
edge $-1 $667 -11.42724795248906 $758 6.246677002013735 $665 $775 forward 7 unknown #
face $-1 $-1 $666 $19 $-1 $776 reversed single #
point $-1 68.111209448530531 32.26817136128448 11.42724795248906 #
coedge $-1 $681 $670 $671 $729 forward $608 $-1 #
coedge $-1 $672 $671 $684 $741 reversed $552 $-1 #
edge $-1 $742 -32.26817136128448 $732 32.26817136128448 $671 $777 forward 7 unknown #
edge $-1 $731 -32.26817136128448 $735 32.26817136128448 $672 $778 forward 7 unknown #
vertex $-1 $676 $779 #
vertex $-1 $739 $780 #
straight-curve $-1 -82.817467612620419 32.26817136128448 -8.8369624772513973 0 0 -1 I I #
straight-curve $-1 -75.464338530575475 32.26817136128448 -6.246677002013735 -1 0 0 I I #
vertex $-1 $730 $781 #
straight-curve $-1 -75.464338530575475 -32.26817136128448 -6.246677002013735 1 0 0 I I #
point $-1 -68.111209448530531 32.26817136128448 -6.246677002013735 #
point $-1 -68.111209448530531 -32.26817136128448 -6.246677002013735 #
edge $-1 $732 -158.28180614319589 $682 7.3531290820449442 $688 $782 forward 7 unknown #
point $-1 82.817467612620419 32.26817136128448 -11.42724795248906 #
edge $-1 $735 -2.5902854752376623 $742 2.5902854752376623 $728 $783 forward 7 unknown #
vertex $-1 $729 $784 #
straight-curve $-1 75.464338530575475 -32.26817136128448 -11.42724795248906 -1 0 0 I I #
loop $-1 $-1 $785 $693 #
plane-surface $-1 0 0 -11.42724795248906 0 0 1 1 0 0 forward_v I I I I #
coedge $-1 $786 $787 $788 $789 forward $694 $-1 #
coedge $-1 $790 $696 $772 $791 forward $642 $-1 #
coedge $-1 $696 $790 $767 $792 forward $642 $-1 #
coedge $-1 $765 $764 $696 $750 forward $717 $-1 #
edge $-1 $793 -32.26817136128448 $794 32.26817136128448 $749 $795 forward 7 unknown #
coedge $-1 $785 $796 $697 $752 forward $744 $-1 #
edge $-1 $797 -32.26817136128448 $754 32.26817136128448 $697 $798 forward 7 unknown #
coedge $-1 $698 $799 $785 $800 reversed $517 $-1 #
vertex $-1 $699 $801 #
straight-curve $-1 82.817467612620419 -32.26817136128448 -8.8369624772513973 0 0 -1 I I #
edge $-1 $714 -32.26817136128448 $758 32.26817136128448 $713 $802 forward 7 unknown #
coedge $-1 $803 $701 $704 $761 forward $721 $-1 #
vertex $-1 $702 $804 #
straight-curve $-1 75.464338530575475 32.26817136128448 -6.246677002013735 -1 0 0 I I #
straight-curve $-1 75.464338530575475 -32.26817136128448 -6.246677002013735 1 0 0 I I #
edge $-1 $706 -2.5902854752376623 $797 2.5902854752376623 $704 $805 forward 7 unknown #
point $-1 82.817467612620419 -32.26817136128448 -6.246677002013735 #
point $-1 82.817467612620419 32.26817136128448 -6.246677002013735 #
coedge $-1 $749 $708 $720 $773 forward $717 $-1 #
coedge $-1 $708 $749 $710 $768 reversed $717 $-1 #
straight-curve $-1 -68.111209448530531 0 11.42724795248906 0 -1 0 I I #
coedge $-1 $799 $710 $748 $792 reversed $517 $-1 #
edge $-1 $711 -11.42724795248906 $794 6.246677002013735 $765 $806 forward 7 unknown #
point $-1 -68.111209448530531 -32.26817136128448 11.42724795248906 #
point $-1 68.111209448530531 -32.26817136128448 -6.246677002013735 #
plane-surface $-1 0 32.26817136128448 0 0 -1 0 0 0 -1 forward_v I I I I #
coedge $-1 $720 $788 $747 $791 reversed $721 $-1 #
edge $-1 $722 -11.42724795248906 $793 6.246677002013735 $720 $807 forward 7 unknown #
point $-1 -68.111209448530531 32.26817136128448 11.42724795248906 #
straight-curve $-1 68.111209448530531 32.26817136128448 0 0 0 -1 I I #
plane-surface $-1 68.111209448530531 0 0 -1 0 0 0 0 1 forward_v I I I I #
straight-curve $-1 -82.817467612620419 0 -11.42724795248906 0 1 0 I I #
straight-curve $-1 -82.817467612620419 0 -6.246677002013735 0 -1 0 I I #
point $-1 -82.817467612620419 32.26817136128448 -6.246677002013735 #
point $-1 -82.817467612620419 32.26817136128448 -11.42724795248906 #
point $-1 -82.817467612620419 -32.26817136128448 -6.246677002013735 #
straight-curve $-1 75.464338530575475 32.26817136128448 -11.42724795248906 1 0 0 I I #
straight-curve $-1 -82.817467612620419 -32.26817136128448 -8.8369624772513973 0 0 -1 I I #
point $-1 -82.817467612620419 -32.26817136128448 -11.42724795248906 #
coedge $-1 $808 $751 $753 $800 forward $744 $-1 #
coedge $-1 $809 $746 $808 $810 reversed $694 $-1 #
coedge $-1 $746 $809 $790 $811 reversed $694 $-1 #
coedge $-1 $772 $803 $746 $789 reversed $721 $-1 #
edge $-1 $812 -2.5902854752376623 $813 2.5902854752376623 $788 $814 forward 7 unknown #
coedge $-1 $748 $747 $787 $811 forward $642 $-1 #
edge $-1 $793 -7.3531290820449442 $812 7.3531290820449442 $772 $815 forward 7 unknown #
edge $-1 $816 -7.3531290820449442 $794 7.3531290820449442 $767 $817 forward 7 unknown #
vertex $-1 $773 $818 #
vertex $-1 $792 $819 #
straight-curve $-1 -68.111209448530531 0 -6.246677002013735 0 -1 0 I I #
coedge $-1 $751 $808 $803 $820 forward $744 $-1 #
vertex $-1 $752 $821 #
straight-curve $-1 82.817467612620419 0 -11.42724795248906 0 -1 0 I I #
coedge $-1 $753 $767 $809 $822 forward $517 $-1 #
edge $-1 $754 -7.3531290820449442 $823 158.28180614319589 $753 $824 forward 7 unknown #
point $-1 82.817467612620419 -32.26817136128448 -11.42724795248906 #
straight-curve $-1 68.111209448530531 0 -6.246677002013735 0 1 0 I I #
coedge $-1 $788 $757 $796 $820 reversed $721 $-1 #
point $-1 68.111209448530531 32.26817136128448 -6.246677002013735 #
straight-curve $-1 82.817467612620419 32.26817136128448 -8.8369624772513973 0 0 -1 I I #
straight-curve $-1 -68.111209448530531 -32.26817136128448 0 0 0 -1 I I #
straight-curve $-1 -68.111209448530531 32.26817136128448 0 0 0 -1 I I #
coedge $-1 $796 $785 $786 $810 forward $744 $-1 #
coedge $-1 $787 $786 $799 $822 reversed $694 $-1 #
edge $-1 $823 -32.26817136128448 $813 32.26817136128448 $786 $825 forward 7 unknown #
edge $-1 $812 -32.26817136128448 $816 32.26817136128448 $787 $826 forward 7 unknown #
vertex $-1 $791 $827 #
vertex $-1 $820 $828 #
straight-curve $-1 -82.817467612620419 32.26817136128448 -8.8369624772513973 0 0 -1 I I #
straight-curve $-1 -75.464338530575475 32.26817136128448 -6.246677002013735 -1 0 0 I I #
vertex $-1 $811 $829 #
straight-curve $-1 -75.464338530575475 -32.26817136128448 -6.246677002013735 1 0 0 I I #
point $-1 -68.111209448530531 32.26817136128448 -6.246677002013735 #
point $-1 -68.111209448530531 -32.26817136128448 -6.246677002013735 #
edge $-1 $813 -158.28180614319589 $797 7.3531290820449442 $803 $830 forward 7 unknown #
point $-1 82.817467612620419 32.26817136128448 -11.42724795248906 #
edge $-1 $816 -2.5902854752376623 $823 2.5902854752376623 $809 $831 forward 7 unknown #
vertex $-1 $810 $832 #
straight-curve $-1 75.464338530575475 -32.26817136128448 -11.42724795248906 -1 0 0 I I #
straight-curve $-1 -82.817467612620419 0 -11.42724795248906 0 1 0 I I #
straight-curve $-1 -82.817467612620419 0 -6.246677002013735 0 -1 0 I I #
point $-1 -82.817467612620419 32.26817136128448 -6.246677002013735 #
point $-1 -82.817467612620419 32.26817136128448 -11.42724795248906 #
point $-1 -82.817467612620419 -32.26817136128448 -6.246677002013735 #
straight-curve $-1 75.464338530575475 32.26817136128448 -11.42724795248906 1 0 0 I I #
straight-curve $-1 -82.817467612620419 -32.26817136128448 -8.8369624772513973 0 0 -1 I I #
point $-1 -82.817467612620419 -32.26817136128448 -11.42724795248906 #
End-of-ACIS-data 