500 0 4 0           
7 Unknown 11 ACIS 5.0 NT 24 Thu Mar 25 16:51:05 1999 
-1 9.9999999999999995e-007 1e-010 
body $-1 $4 $-1 $5 #
body $-1 $6 $-1 $7 #
body $-1 $8 $-1 $9 #
body $-1 $10 $-1 $11 #
lump $-1 $-1 $12 $0 #
transform $-1 1 0 0 0 1 0 0 0 1 58.64803003021332 40.665402456326383 10.149534420860268 1 rotate no_reflect no_shear #
lump $-1 $-1 $13 $1 #
transform $-1 1 0 0 0 1 0 0 0 1 58.64803003021332 40.665402456326383 10.149534420860268 1 rotate no_reflect no_shear #
lump $-1 $-1 $14 $2 #
transform $-1 1 0 0 0 1 0 0 0 1 58.64803003021332 40.665402456326383 10.149534420860268 1 rotate no_reflect no_shear #
lump $-1 $-1 $15 $3 #
transform $-1 1 0 0 0 1 0 0 0 1 58.64803003021332 40.665402456326383 10.149534420860268 1 rotate no_reflect no_shear #
shell $-1 $-1 $-1 $16 $-1 $4 #
shell $-1 $-1 $-1 $17 $-1 $6 #
shell $-1 $-1 $-1 $18 $-1 $8 #
shell $-1 $-1 $-1 $19 $-1 $10 #
face $-1 $20 $21 $12 $-1 $22 forward single #
face $-1 $23 $24 $13 $-1 $25 reversed single #
face $-1 $26 $27 $14 $-1 $28 reversed single #
face $-1 $29 $30 $15 $-1 $31 forward single #
face $-1 $32 $33 $12 $-1 $34 reversed single #
loop $-1 $-1 $35 $16 #
plane-surface $-1 0 0 10.149534420860268 0 0 1 1 0 0 forward_v I I I I #
face $-1 $36 $37 $13 $-1 $38 reversed single #
loop $-1 $-1 $39 $17 #
plane-surface $-1 -56.888007155590373 -29.84490906789501 0 0 -1 0 0 0 -1 forward_v I I I I #
face $-1 $40 $41 $14 $-1 $42 reversed single #
loop $-1 $-1 $43 $18 #
plane-surface $-1 -140.12872093026868 -16.051209678222122 89.994851279183052 0 -1 0 0.69465837861970381 0 -0.71933979245794832 forward_v I I I I #
face $-1 $44 $45 $15 $-1 $46 forward single #
loop $-1 $47 $48 $19 #
cone-surface $-1 -54.249516251342982 -22.948059373058566 5.7585664298236487 0.69465837861970381 0 -0.71933979245794832 1.0790096886869225 0 1.0419875679295556 1 I I 0 1 1.5 forward I I I I #
face $-1 $49 $50 $12 $-1 $51 reversed single #
loop $-1 $-1 $52 $20 #
plane-surface $-1 0 0 -10.149534420860268 0 0 1 1 0 0 forward_v I I I I #
coedge $-1 $53 $54 $55 $56 forward $21 $-1 #
face $-1 $57 $58 $13 $-1 $59 forward single #
loop $-1 $-1 $60 $23 #
plane-surface $-1 -55.127984280967425 -35.255155762110697 0 -1 0 0 0 0 1 forward_v I I I I #
coedge $-1 $61 $62 $63 $64 forward $24 $-1 #
face $-1 $65 $66 $14 $-1 $67 forward single #
loop $-1 $-1 $68 $26 #
plane-surface $-1 -58.64803003021332 -22.948059373058566 5.6191277791807153 -0.69465837861970381 0 0.71933979245794832 0.71933979245794832 0 0.69465837861970381 forward_v I I I I #
coedge $-1 $69 $70 $71 $72 reversed $27 $-1 #
face $-1 $-1 $73 $15 $-1 $74 forward single #
loop $-1 $75 $76 $29 #
cone-surface $-1 -51.675695340881774 -22.948059373058566 3.0932969152833447 0.69465837861970381 0 -0.71933979245794832 0.53950484434346124 0 0.5209937839647778 1 I I -0.70710678118654757 0.70710678118654757 0.75 forward I I I I #
loop $-1 $-1 $77 $19 #
coedge $-1 $48 $48 $78 $79 reversed $30 $-1 #
face $-1 $80 $81 $12 $-1 $82 reversed single #
loop $-1 $-1 $83 $32 #
plane-surface $-1 0 -40.665402456326383 0 0 1 0 0 0 1 forward_v I I I I #
coedge $-1 $84 $85 $86 $87 forward $33 $-1 #
coedge $-1 $88 $35 $89 $90 forward $21 $-1 #
coedge $-1 $35 $88 $91 $92 forward $21 $-1 #
coedge $-1 $93 $94 $35 $56 reversed $95 $-1 #
edge $-1 $96 -40.665402456326383 $97 40.665402456326383 $55 $98 forward 7 unknown #
face $-1 $99 $100 $13 $-1 $101 reversed single #
loop $-1 $-1 $102 $36 #
plane-surface $-1 0 0 10.149534420860268 0 0 1 1 0 0 forward_v I I I I #
coedge $-1 $103 $104 $105 $106 reversed $37 $-1 #
coedge $-1 $107 $39 $108 $109 reversed $24 $-1 #
coedge $-1 $39 $107 $110 $111 reversed $24 $-1 #
coedge $-1 $104 $103 $39 $64 reversed $37 $-1 #
edge $-1 $112 -10.149534420860268 $113 10.149534420860268 $63 $114 forward 7 unknown #
face $-1 $115 $116 $14 $-1 $117 forward single #
loop $-1 $-1 $118 $40 #
plane-surface $-1 0 0 10.149534420860268 0 0 1 1 0 0 forward_v I I I I #
coedge $-1 $119 $120 $121 $122 reversed $41 $-1 #
coedge $-1 $70 $43 $123 $124 reversed $27 $-1 #
coedge $-1 $43 $69 $119 $125 reversed $27 $-1 #
coedge $-1 $121 $126 $43 $72 forward $127 $-1 #
edge $-1 $128 34.847891218731256 $129 39.378297860410811 $71 $130 forward 7 unknown #
loop $-1 $-1 $78 $44 #
plane-surface $-1 -58.64803003021332 -22.948059373058566 5.6191277791807153 -0.69465837861970381 0 0.71933979245794832 0.71933979245794832 0 0.69465837861970381 forward_v I I I I #
loop $-1 $-1 $131 $29 #
coedge $-1 $76 $76 $77 $132 reversed $45 $-1 #
coedge $-1 $77 $77 $76 $132 forward $47 $-1 #
coedge $-1 $78 $78 $48 $79 forward $73 $-1 #
edge $-1 $133 0 $133 6.2831853071796004 $78 $134 forward 7 unknown #
face $-1 $135 $136 $12 $-1 $137 reversed single #
loop $-1 $-1 $138 $49 #
plane-surface $-1 -58.64803003021332 0 0 1 0 0 0 0 -1 forward_v I I I I #
coedge $-1 $139 $91 $140 $141 forward $50 $-1 #
coedge $-1 $142 $52 $139 $143 forward $33 $-1 #
coedge $-1 $52 $142 $144 $145 forward $33 $-1 #
coedge $-1 $94 $93 $52 $87 reversed $95 $-1 #
edge $-1 $146 -40.665402456326383 $147 40.665402456326383 $86 $148 forward 7 unknown #
coedge $-1 $54 $53 $149 $150 forward $21 $-1 #
coedge $-1 $151 $152 $53 $90 reversed $136 $-1 #
edge $-1 $97 -58.64803003021332 $153 58.64803003021332 $89 $154 forward 7 unknown #
coedge $-1 $83 $155 $54 $92 reversed $50 $-1 #
edge $-1 $156 -58.64803003021332 $96 58.64803003021332 $91 $157 forward 7 unknown #
coedge $-1 $86 $55 $155 $158 forward $95 $-1 #
coedge $-1 $55 $86 $151 $159 reversed $95 $-1 #
loop $-1 $-1 $93 $135 #
vertex $-1 $56 $160 #
vertex $-1 $56 $161 #
straight-curve $-1 58.64803003021332 0 10.149534420860268 0 1 0 I I #
face $-1 $162 $163 $13 $-1 $164 reversed single #
loop $-1 $-1 $165 $57 #
plane-surface $-1 -58.64803003021332 0 0 1 0 0 0 0 -1 forward_v I I I I #
coedge $-1 $110 $166 $104 $167 forward $58 $-1 #
coedge $-1 $63 $60 $168 $169 reversed $37 $-1 #
coedge $-1 $60 $63 $102 $167 reversed $37 $-1 #
coedge $-1 $170 $171 $60 $106 forward $172 $-1 #
edge $-1 $173 -10.149534420860268 $174 10.149534420860268 $105 $175 forward 7 unknown #
coedge $-1 $62 $61 $165 $176 reversed $24 $-1 #
coedge $-1 $168 $177 $61 $109 forward $163 $-1 #
edge $-1 $178 -30.204026452418134 $113 -26.683980703172239 $108 $179 forward 7 unknown #
coedge $-1 $180 $102 $62 $111 forward $58 $-1 #
edge $-1 $112 26.683980703172239 $181 30.204026452418134 $110 $182 forward 7 unknown #
vertex $-1 $111 $183 #
vertex $-1 $109 $184 #
straight-curve $-1 -55.127984280967425 -29.84490906789501 0 0 0 -1 I I #
face $-1 $-1 $127 $14 $-1 $185 reversed single #
loop $-1 $-1 $186 $65 #
plane-surface $-1 -56.888007155590373 -29.84490906789501 0 0 -1 0 0 0 -1 forward_v I I I I #
coedge $-1 $187 $188 $189 $190 forward $66 $-1 #
coedge $-1 $191 $68 $70 $125 forward $41 $-1 #
coedge $-1 $68 $191 $186 $192 reversed $41 $-1 #
coedge $-1 $193 $71 $68 $122 forward $127 $-1 #
edge $-1 $129 4.5771799916928391 $194 18.370879381365725 $121 $195 forward 7 unknown #
coedge $-1 $188 $187 $69 $124 forward $66 $-1 #
edge $-1 $196 -16.107703739668835 $128 -11.416330434921022 $123 $197 forward 7 unknown #
edge $-1 $129 0 $196 6.5217764315771074 $70 $198 forward 7 unknown #
coedge $-1 $71 $193 $188 $199 reversed $127 $-1 #
loop $-1 $-1 $121 $115 #
vertex $-1 $199 $200 #
vertex $-1 $72 $201 #
straight-curve $-1 -58.64803003021332 -16.051209678222122 44.997425639591526 0 0 -1 I I #
coedge $-1 $131 $131 $-1 $202 reversed $75 $-1 #
edge $-1 $203 0 $203 6.2831853071796004 $76 $204 forward 7 unknown #
vertex $-1 $79 $205 #
ellipse-curve $-1 -56.302343377839414 -22.948059373058566 7.884331100020491 -0.69465837861970381 0 0.71933979245794832 1.0790096886869225 0 1.0419875679295556 1 I I #
face $-1 $-1 $95 $12 $-1 $206 reversed single #
loop $-1 $-1 $151 $80 #
plane-surface $-1 0 40.665402456326383 0 0 -1 0 0 0 -1 forward_v I I I I #
coedge $-1 $207 $149 $152 $208 forward $81 $-1 #
coedge $-1 $155 $83 $84 $143 reversed $50 $-1 #
coedge $-1 $149 $207 $83 $141 reversed $81 $-1 #
edge $-1 $156 -10.149534420860268 $209 10.149534420860268 $140 $210 forward 7 unknown #
coedge $-1 $85 $84 $207 $211 forward $33 $-1 #
edge $-1 $147 -58.64803003021332 $209 58.64803003021332 $139 $212 forward 7 unknown #
coedge $-1 $152 $151 $85 $145 reversed $136 $-1 #
edge $-1 $213 -58.64803003021332 $146 58.64803003021332 $144 $214 forward 7 unknown #
vertex $-1 $87 $215 #
vertex $-1 $158 $216 #
straight-curve $-1 58.64803003021332 0 -10.149534420860268 0 -1 0 I I #
coedge $-1 $138 $140 $88 $150 reversed $81 $-1 #
edge $-1 $153 -40.665402456326383 $156 40.665402456326383 $149 $217 forward 7 unknown #
coedge $-1 $144 $89 $94 $159 forward $136 $-1 #
coedge $-1 $89 $144 $138 $208 reversed $136 $-1 #
vertex $-1 $90 $218 #
straight-curve $-1 0 40.665402456326383 10.149534420860268 -1 0 0 I I #
coedge $-1 $91 $139 $93 $158 reversed $50 $-1 #
vertex $-1 $150 $219 #
straight-curve $-1 0 -40.665402456326383 10.149534420860268 1 0 0 I I #
edge $-1 $96 -10.149534420860268 $147 10.149534420860268 $93 $220 forward 7 unknown #
edge $-1 $97 -10.149534420860268 $146 10.149534420860268 $94 $221 forward 7 unknown #
point $-1 58.64803003021332 -40.665402456326383 10.149534420860268 #
point $-1 58.64803003021332 40.665402456326383 10.149534420860268 #
face $-1 $-1 $172 $13 $-1 $222 reversed single #
loop $-1 $-1 $168 $99 #
plane-surface $-1 0 0 -10.149534420860268 0 0 1 1 0 0 forward_v I I I I #
coedge $-1 $223 $224 $107 $176 forward $100 $-1 #
coedge $-1 $102 $180 $170 $225 forward $58 $-1 #
edge $-1 $174 -23.037824575271035 $112 -12.217331186839662 $102 $226 forward 7 unknown #
coedge $-1 $227 $108 $103 $169 forward $163 $-1 #
edge $-1 $113 12.217331186839662 $173 23.037824575271035 $168 $228 forward 7 unknown #
coedge $-1 $229 $105 $166 $225 reversed $172 $-1 #
coedge $-1 $105 $229 $227 $230 reversed $172 $-1 #
loop $-1 $-1 $105 $162 #
vertex $-1 $230 $231 #
vertex $-1 $106 $232 #
straight-curve $-1 -55.127984280967425 -40.665402456326383 0 0 0 1 I I #
edge $-1 $181 -10.149534420860268 $178 10.149534420860268 $165 $233 forward 7 unknown #
coedge $-1 $108 $227 $223 $234 forward $163 $-1 #
vertex $-1 $109 $235 #
straight-curve $-1 -28.444003577795186 -29.84490906789501 -10.149534420860268 1 0 0 I I #
coedge $-1 $166 $110 $224 $236 forward $58 $-1 #
vertex $-1 $236 $237 #
straight-curve $-1 -28.444003577795186 -29.84490906789501 10.149534420860268 -1 0 0 I I #
point $-1 -55.127984280967425 -29.84490906789501 10.149534420860268 #
point $-1 -55.127984280967425 -29.84490906789501 -10.149534420860268 #
plane-surface $-1 -58.64803003021332 0 0 1 0 0 0 0 -1 forward_v I I I I #
coedge $-1 $189 $238 $120 $192 forward $116 $-1 #
coedge $-1 $123 $118 $191 $239 forward $66 $-1 #
coedge $-1 $118 $123 $126 $199 forward $66 $-1 #
coedge $-1 $238 $186 $118 $190 reversed $116 $-1 #
edge $-1 $240 -30.204026452418134 $241 -25.512653147670321 $118 $242 forward 7 unknown #
coedge $-1 $120 $119 $187 $239 reversed $41 $-1 #
edge $-1 $194 1.3186598514950532 $241 7.8404362830721599 $186 $243 forward 7 unknown #
coedge $-1 $126 $121 $238 $244 forward $127 $-1 #
vertex $-1 $244 $245 #
straight-curve $-1 -58.64803003021332 -11.474029686529283 5.6191277791807188 0 -1 0 I I #
vertex $-1 $124 $246 #
straight-curve $-1 -70.064360465134342 -16.051209678222122 10.14953442086027 -1 0 0 I I #
straight-curve $-1 -58.64803003021332 -16.051209678222122 5.6191277791807153 0.71933979245794832 0 0.69465837861970381 I I #
edge $-1 $128 16.051209678222122 $240 29.84490906789501 $126 $247 forward 7 unknown #
point $-1 -58.64803003021332 -16.051209678222122 10.149534420860268 #
point $-1 -58.64803003021332 -16.051209678222122 5.6191277791807153 #
edge $-1 $248 1 $248 0 $131 $-1 forward 7 unknown #
vertex $-1 $132 $249 #
ellipse-curve $-1 -52.19668912484655 -22.948059373058566 3.6328017596268061 -0.69465837861970381 0 0.71933979245794832 1.0790096886869225 0 1.0419875679295556 1 I I #
point $-1 -55.22333368915249 -22.948059373058566 8.9263186679500475 #
plane-surface $-1 58.64803003021332 0 0 -1 0 0 0 0 1 forward_v I I I I #
coedge $-1 $140 $138 $142 $211 reversed $81 $-1 #
edge $-1 $153 -10.149534420860268 $213 10.149534420860268 $152 $250 forward 7 unknown #
vertex $-1 $211 $251 #
straight-curve $-1 -58.64803003021332 -40.665402456326383 0 0 0 -1 I I #
edge $-1 $209 -40.665402456326383 $213 40.665402456326383 $207 $252 forward 7 unknown #
straight-curve $-1 0 -40.665402456326383 -10.149534420860268 -1 0 0 I I #
vertex $-1 $145 $253 #
straight-curve $-1 0 40.665402456326383 -10.149534420860268 1 0 0 I I #
point $-1 58.64803003021332 40.665402456326383 -10.149534420860268 #
point $-1 58.64803003021332 -40.665402456326383 -10.149534420860268 #
straight-curve $-1 -58.64803003021332 0 10.149534420860268 0 -1 0 I I #
point $-1 -58.64803003021332 40.665402456326383 10.149534420860268 #
point $-1 -58.64803003021332 -40.665402456326383 10.149534420860268 #
straight-curve $-1 58.64803003021332 -40.665402456326383 0 0 0 -1 I I #
straight-curve $-1 58.64803003021332 40.665402456326383 0 0 0 -1 I I #
plane-surface $-1 0 -40.665402456326383 0 0 1 0 0 0 1 forward_v I I I I #
coedge $-1 $254 $165 $177 $234 reversed $100 $-1 #
coedge $-1 $165 $254 $180 $236 reversed $100 $-1 #
edge $-1 $255 -58.64803003021332 $174 -55.127984280967425 $170 $256 forward 7 unknown #
straight-curve $-1 -55.127984280967425 -17.627577881055348 10.149534420860268 0 1 0 I I #
coedge $-1 $177 $168 $171 $230 forward $163 $-1 #
straight-curve $-1 -55.127984280967425 -17.627577881055348 -10.149534420860268 0 -1 0 I I #
coedge $-1 $171 $170 $254 $257 forward $172 $-1 #
edge $-1 $173 55.127984280967425 $258 58.64803003021332 $171 $259 forward 7 unknown #
point $-1 -55.127984280967425 -40.665402456326383 -10.149534420860268 #
point $-1 -55.127984280967425 -40.665402456326383 10.149534420860268 #
straight-curve $-1 -58.64803003021332 -29.84490906789501 0 0 0 -1 I I #
edge $-1 $258 -40.665402456326383 $178 -29.84490906789501 $223 $260 forward 7 unknown #
point $-1 -58.64803003021332 -29.84490906789501 -10.149534420860268 #
edge $-1 $181 29.84490906789501 $255 40.665402456326383 $224 $261 forward 7 unknown #
point $-1 -58.64803003021332 -29.84490906789501 10.149534420860268 #
coedge $-1 $186 $189 $193 $244 reversed $116 $-1 #
edge $-1 $241 -18.370879381365725 $196 -4.5771799916928391 $187 $262 forward 7 unknown #
vertex $-1 $244 $263 #
vertex $-1 $190 $264 #
straight-curve $-1 -28.444003577795186 -29.84490906789501 10.149534420860268 1 0 0 I I #
straight-curve $-1 -59.596594534110402 -29.84490906789501 4.7031096647902642 0.71933979245794832 0 0.69465837861970381 I I #
edge $-1 $194 5.6191277791807162 $240 10.149534420860268 $193 $265 forward 7 unknown #
point $-1 -58.64803003021332 -29.84490906789501 5.6191277791807162 #
point $-1 -53.956656725465507 -16.051209678222122 10.149534420860268 #
straight-curve $-1 -58.64803003021332 0 10.149534420860268 0 -1 0 I I #
vertex $-1 $202 $266 #
point $-1 -51.117679436159627 -22.948059373058566 4.6747893275563612 #
straight-curve $-1 -58.64803003021332 40.665402456326383 0 0 0 -1 I I #
point $-1 -58.64803003021332 -40.665402456326383 -10.149534420860268 #
straight-curve $-1 -58.64803003021332 0 -10.149534420860268 0 1 0 I I #
point $-1 -58.64803003021332 40.665402456326383 -10.149534420860268 #
coedge $-1 $224 $223 $229 $257 reversed $100 $-1 #
vertex $-1 $236 $267 #
straight-curve $-1 0 -40.665402456326383 10.149534420860268 1 0 0 I I #
edge $-1 $255 -10.149534420860268 $258 10.149534420860268 $254 $268 forward 7 unknown #
vertex $-1 $234 $269 #
straight-curve $-1 0 -40.665402456326383 -10.149534420860268 -1 0 0 I I #
straight-curve $-1 -58.64803003021332 0 -10.149534420860268 0 1 0 I I #
straight-curve $-1 -58.64803003021332 0 10.149534420860268 0 -1 0 I I #
straight-curve $-1 -53.9566567254655 -11.474029686529283 10.149534420860268 0 1 0 I I #
point $-1 -58.64803003021332 -29.84490906789501 10.149534420860268 #
point $-1 -53.956656725465507 -29.84490906789501 10.149534420860268 #
straight-curve $-1 -58.64803003021332 -29.84490906789501 0 0 0 1 I I #
point $-1 -51.154701556916997 -22.948059373058566 2.5537920709398834 #
point $-1 -58.64803003021332 -40.665402456326383 10.149534420860268 #
straight-curve $-1 -58.64803003021332 -40.665402456326383 0 0 0 -1 I I #
point $-1 -58.64803003021332 -40.665402456326383 -10.149534420860268 #
End-of-ACIS-data 