500 0 9 0           
7 Unknown 11 ACIS 5.0 NT 24 Fri Mar 26 19:09:47 1999 
-1 9.9999999999999995e-007 1e-010 
body $-1 $9 $-1 $10 #
body $-1 $11 $-1 $12 #
body $-1 $13 $-1 $14 #
body $-1 $15 $-1 $16 #
body $-1 $17 $-1 $18 #
body $-1 $19 $-1 $20 #
body $-1 $21 $-1 $22 #
body $-1 $23 $-1 $24 #
body $-1 $25 $-1 $26 #
lump $-1 $-1 $27 $0 #
transform $-1 1 0 0 0 1 0 0 0 1 68.863185522019108 42.538101306622032 20.46715285439441 1 rotate no_reflect no_shear #
lump $-1 $-1 $28 $1 #
transform $-1 1 0 0 0 1 0 0 0 1 68.863185522019108 42.538101306622032 20.46715285439441 1 rotate no_reflect no_shear #
lump $-1 $-1 $29 $2 #
transform $-1 1 0 0 0 1 0 0 0 1 68.863185522019108 42.538101306622032 20.46715285439441 1 rotate no_reflect no_shear #
lump $-1 $-1 $30 $3 #
transform $-1 1 0 0 0 1 0 0 0 1 68.863185522019108 42.538101306622032 20.46715285439441 1 rotate no_reflect no_shear #
lump $-1 $-1 $31 $4 #
transform $-1 1 0 0 0 1 0 0 0 1 68.863185522019108 42.538101306622032 20.46715285439441 1 rotate no_reflect no_shear #
lump $-1 $-1 $32 $5 #
transform $-1 1 0 0 0 1 0 0 0 1 68.863185522019108 42.538101306622032 20.46715285439441 1 rotate no_reflect no_shear #
lump $-1 $-1 $33 $6 #
transform $-1 1 0 0 0 1 0 0 0 1 68.863185522019108 42.538101306622032 20.46715285439441 1 rotate no_reflect no_shear #
lump $-1 $-1 $34 $7 #
transform $-1 1 0 0 0 1 0 0 0 1 68.863185522019108 42.538101306622032 20.46715285439441 1 rotate no_reflect no_shear #
lump $-1 $-1 $35 $8 #
transform $-1 1 0 0 0 1 0 0 0 1 68.863185522019108 42.538101306622032 20.46715285439441 1 rotate no_reflect no_shear #
shell $-1 $-1 $-1 $36 $-1 $9 #
shell $-1 $-1 $-1 $37 $-1 $11 #
shell $-1 $-1 $-1 $38 $-1 $13 #
shell $-1 $-1 $-1 $39 $-1 $15 #
shell $-1 $-1 $-1 $40 $-1 $17 #
shell $-1 $-1 $-1 $41 $-1 $19 #
shell $-1 $-1 $-1 $42 $-1 $21 #
shell $-1 $-1 $-1 $43 $-1 $23 #
shell $-1 $-1 $-1 $44 $-1 $25 #
face $-1 $45 $46 $27 $-1 $47 forward single #
face $-1 $48 $49 $28 $-1 $50 forward single #
face $-1 $51 $52 $29 $-1 $53 forward single #
face $-1 $54 $55 $30 $-1 $56 reversed single #
face $-1 $57 $58 $31 $-1 $59 forward single #
face $-1 $60 $61 $32 $-1 $62 reversed single #
face $-1 $63 $64 $33 $-1 $65 forward single #
face $-1 $66 $67 $34 $-1 $68 reversed single #
face $-1 $69 $70 $35 $-1 $71 forward single #
face $-1 $72 $73 $27 $-1 $74 reversed single #
loop $-1 $-1 $75 $36 #
plane-surface $-1 0 0 20.46715285439441 0 0 1 1 0 0 forward_v I I I I #
face $-1 $76 $77 $28 $-1 $78 reversed single #
loop $-1 $-1 $79 $37 #
plane-surface $-1 -60.027967802261131 0 3.3937769658653609 0 0 1 1 0 0 forward_v I I I I #
face $-1 $80 $81 $29 $-1 $82 reversed single #
loop $-1 $-1 $83 $38 #
plane-surface $-1 60.218429066592989 0 8.591201994377391 0 0 1 1 0 0 forward_v I I I I #
face $-1 $84 $85 $30 $-1 $86 reversed single #
loop $-1 $-1 $87 $39 #
plane-surface $-1 -10.10819659166485 74.246466555142916 168.79478650650262 -1 0 0 0 0.68199836817093118 0.7313536940579346 forward_v I I I I #
face $-1 $88 $89 $31 $-1 $90 forward single #
loop $-1 $91 $92 $40 #
cone-surface $-1 -15.975702371762281 33.773886658973304 11.850117752287954 0 -0.68199836817093118 -0.7313536940579346 2.5 0 0 1 I I 0 1 2.5 forward I I I I #
face $-1 $93 $94 $32 $-1 $95 reversed single #
loop $-1 $-1 $96 $41 #
plane-surface $-1 -51.192750082503153 -127.33092315818774 118.41460487361425 1 0 0 0 0.61566148304635926 -0.78801074757464917 forward_v I I I I #
face $-1 $97 $98 $33 $-1 $99 forward single #
loop $-1 $100 $101 $42 #
cone-surface $-1 -40.15062074935377 -34.417026858909701 13.44976564958878 0 0.61566148304635926 -0.78801074757464917 1.5 0 0 1 I I 0 1 1.5 forward I I I I #
face $-1 $102 $103 $34 $-1 $104 reversed single #
loop $-1 $-1 $105 $43 #
plane-surface $-1 29.489413944868087 -127.33092315818774 118.41460487361425 1 0 0 0 0.61566148304635926 -0.78801074757464917 forward_v I I I I #
face $-1 $106 $107 $35 $-1 $108 forward single #
loop $-1 $109 $110 $44 #
cone-surface $-1 40.531543278017466 -34.417026858909701 13.44976564958878 0 0.61566148304635926 -0.78801074757464917 1.5 0 0 1 I I 0 1 1.5 forward I I I I #
face $-1 $111 $112 $27 $-1 $113 reversed single #
loop $-1 $-1 $114 $45 #
plane-surface $-1 0 0 -20.46715285439441 0 0 1 1 0 0 forward_v I I I I #
coedge $-1 $115 $116 $117 $118 forward $46 $-1 #
face $-1 $119 $120 $28 $-1 $121 reversed single #
loop $-1 $-1 $122 $48 #
plane-surface $-1 -60.027967802261131 0 -7.0681006292227453 0 0 1 1 0 0 forward_v I I I I #
coedge $-1 $123 $124 $125 $126 forward $49 $-1 #
face $-1 $127 $128 $29 $-1 $129 reversed single #
loop $-1 $-1 $130 $51 #
plane-surface $-1 60.218429066592989 0 -1.5006465668979398 0 0 1 1 0 0 forward_v I I I I #
coedge $-1 $131 $132 $133 $134 reversed $52 $-1 #
face $-1 $135 $136 $30 $-1 $137 reversed single #
loop $-1 $-1 $138 $54 #
plane-surface $-1 -15.975702371762281 -19.682693750995341 68.068096274251502 0 0.68199836817093118 0.7313536940579346 1 0 0 forward_v I I I I #
coedge $-1 $139 $140 $141 $142 reversed $55 $-1 #
face $-1 $-1 $143 $31 $-1 $144 forward single #
loop $-1 $145 $146 $57 #
cone-surface $-1 -15.975702371762281 29.744691001684878 7.5293344988865023 0 -0.68199836817093118 -0.7313536940579346 1.25 0 0 1 I I -0.70710678118654746 0.70710678118654746 1.25 forward I I I I #
loop $-1 $-1 $147 $40 #
coedge $-1 $92 $92 $148 $149 reversed $58 $-1 #
face $-1 $150 $151 $32 $-1 $152 reversed single #
loop $-1 $-1 $153 $60 #
plane-surface $-1 -40.150620749353763 -42.538101306622025 9.8847442664581848 0 -0.61566148304635926 0.78801074757464917 1 0 0 forward_v I I I I #
coedge $-1 $154 $155 $156 $157 reversed $61 $-1 #
face $-1 $-1 $158 $33 $-1 $159 forward single #
loop $-1 $160 $161 $63 #
cone-surface $-1 -40.15062074935377 -32.606638822429808 11.132574678070267 0 0.61566148304635926 -0.78801074757464917 0.75 0 0 1 I I -0.70710678118654757 0.70710678118654757 0.75 forward I I I I #
loop $-1 $-1 $162 $42 #
coedge $-1 $101 $101 $163 $164 reversed $64 $-1 #
face $-1 $165 $166 $34 $-1 $167 reversed single #
loop $-1 $-1 $168 $66 #
plane-surface $-1 40.53154327801748 -42.538101306622025 9.8847442664581848 0 -0.61566148304635926 0.78801074757464917 1 0 0 forward_v I I I I #
coedge $-1 $169 $170 $171 $172 reversed $67 $-1 #
face $-1 $-1 $173 $35 $-1 $174 forward single #
loop $-1 $175 $176 $69 #
cone-surface $-1 40.531543278017466 -32.606638822429808 11.132574678070267 0 0.61566148304635926 -0.78801074757464917 0.75 0 0 1 I I -0.70710678118654757 0.70710678118654757 0.75 forward I I I I #
loop $-1 $-1 $177 $44 #
coedge $-1 $110 $110 $178 $179 reversed $70 $-1 #
face $-1 $180 $181 $27 $-1 $182 reversed single #
loop $-1 $-1 $183 $72 #
plane-surface $-1 0 -42.538101306622032 0 0 1 0 0 0 1 forward_v I I I I #
coedge $-1 $184 $185 $186 $187 forward $73 $-1 #
coedge $-1 $188 $75 $189 $190 forward $46 $-1 #
coedge $-1 $75 $188 $191 $192 forward $46 $-1 #
coedge $-1 $193 $194 $75 $118 reversed $195 $-1 #
edge $-1 $196 -42.538101306622032 $197 42.538101306622032 $117 $198 forward 7 unknown #
face $-1 $199 $200 $28 $-1 $201 reversed single #
loop $-1 $-1 $202 $76 #
plane-surface $-1 -51.192750082503153 0 -1.8371618316786922 -1 0 0 0 0 1 forward_v I I I I #
coedge $-1 $203 $204 $205 $206 forward $77 $-1 #
coedge $-1 $207 $79 $208 $209 reversed $49 $-1 #
coedge $-1 $79 $207 $210 $211 reversed $49 $-1 #
coedge $-1 $202 $212 $79 $126 reversed $120 $-1 #
edge $-1 $213 -42.538101306622032 $214 42.538101306622032 $125 $215 forward 7 unknown #
face $-1 $216 $217 $29 $-1 $218 reversed single #
loop $-1 $-1 $219 $80 #
plane-surface $-1 51.57367261116687 0 3.5452777137397256 1 0 0 0 0 -1 forward_v I I I I #
coedge $-1 $220 $221 $222 $223 reversed $81 $-1 #
coedge $-1 $224 $83 $225 $226 reversed $52 $-1 #
coedge $-1 $83 $224 $227 $228 reversed $52 $-1 #
coedge $-1 $229 $230 $83 $134 forward $231 $-1 #
edge $-1 $232 -42.538101306622032 $233 42.538101306622032 $133 $234 forward 7 unknown #
face $-1 $235 $236 $30 $-1 $237 reversed single #
loop $-1 $-1 $238 $84 #
plane-surface $-1 -21.843208151859713 74.246466555142916 168.79478650650262 1 0 0 0 -0.68199836817093118 -0.7313536940579346 forward_v I I I I #
coedge $-1 $239 $240 $241 $242 reversed $85 $-1 #
coedge $-1 $140 $87 $243 $244 reversed $55 $-1 #
coedge $-1 $87 $139 $239 $245 reversed $55 $-1 #
coedge $-1 $241 $246 $87 $142 forward $236 $-1 #
edge $-1 $247 63.930240398856895 $248 74.351128331411786 $141 $249 forward 7 unknown #
loop $-1 $-1 $148 $88 #
plane-surface $-1 -15.975702371762281 -19.682693750995341 68.068096274251502 0 0.68199836817093118 0.7313536940579346 1 0 0 forward_v I I I I #
loop $-1 $-1 $250 $57 #
coedge $-1 $146 $146 $147 $251 reversed $89 $-1 #
coedge $-1 $147 $147 $146 $251 forward $91 $-1 #
coedge $-1 $148 $148 $92 $149 forward $143 $-1 #
edge $-1 $252 7.6516106177225407e-017 $252 6.2831853071796004 $148 $253 forward 7 unknown #
face $-1 $254 $255 $32 $-1 $256 forward single #
loop $-1 $-1 $257 $93 #
plane-surface $-1 -29.10849141620437 -127.33092315818774 118.41460487361425 -1 0 0 0 -0.61566148304635926 0.78801074757464917 forward_v I I I I #
coedge $-1 $258 $259 $260 $261 reversed $94 $-1 #
coedge $-1 $155 $96 $262 $263 reversed $61 $-1 #
coedge $-1 $96 $154 $258 $264 reversed $61 $-1 #
coedge $-1 $260 $265 $96 $157 forward $266 $-1 #
edge $-1 $267 38.740149582412712 $268 49.322558170348948 $156 $269 forward 7 unknown #
loop $-1 $-1 $163 $97 #
plane-surface $-1 -40.150620749353763 -42.538101306622025 9.8847442664581848 0 -0.61566148304635926 0.78801074757464917 1 0 0 forward_v I I I I #
loop $-1 $-1 $270 $63 #
coedge $-1 $161 $161 $162 $271 reversed $98 $-1 #
coedge $-1 $162 $162 $161 $271 forward $100 $-1 #
coedge $-1 $163 $163 $101 $164 forward $158 $-1 #
edge $-1 $272 -8.7320462051347708e-017 $272 6.2831853071796004 $163 $273 forward 7 unknown #
face $-1 $274 $275 $34 $-1 $276 reversed single #
loop $-1 $-1 $277 $102 #
plane-surface $-1 51.57367261116687 -127.33092315818774 118.41460487361425 -1 0 0 0 -0.61566148304635926 0.78801074757464917 forward_v I I I I #
coedge $-1 $278 $279 $280 $281 reversed $103 $-1 #
coedge $-1 $170 $105 $282 $283 reversed $67 $-1 #
coedge $-1 $105 $169 $278 $284 reversed $67 $-1 #
coedge $-1 $280 $285 $105 $172 forward $275 $-1 #
edge $-1 $286 38.740149582412712 $287 49.322558170348948 $171 $288 forward 7 unknown #
loop $-1 $-1 $178 $106 #
plane-surface $-1 40.53154327801748 -42.538101306622025 9.8847442664581848 0 -0.61566148304635926 0.78801074757464917 1 0 0 forward_v I I I I #
loop $-1 $-1 $289 $69 #
coedge $-1 $176 $176 $177 $290 reversed $107 $-1 #
coedge $-1 $177 $177 $176 $290 forward $109 $-1 #
coedge $-1 $178 $178 $110 $179 forward $173 $-1 #
edge $-1 $291 -8.7320462051347708e-017 $291 6.2831853071796004 $178 $292 forward 7 unknown #
face $-1 $293 $294 $27 $-1 $295 reversed single #
loop $-1 $-1 $296 $111 #
plane-surface $-1 -68.863185522019108 0 0 1 0 0 0 0 -1 forward_v I I I I #
coedge $-1 $297 $191 $298 $299 forward $112 $-1 #
coedge $-1 $300 $114 $297 $301 forward $73 $-1 #
coedge $-1 $114 $300 $302 $303 forward $73 $-1 #
coedge $-1 $194 $193 $114 $187 reversed $195 $-1 #
edge $-1 $304 -42.538101306622032 $305 42.538101306622032 $186 $306 forward 7 unknown #
coedge $-1 $116 $115 $307 $308 forward $46 $-1 #
coedge $-1 $309 $310 $115 $190 reversed $294 $-1 #
edge $-1 $197 -68.863185522019108 $311 68.863185522019108 $189 $312 forward 7 unknown #
coedge $-1 $183 $313 $116 $192 reversed $112 $-1 #
edge $-1 $314 -68.863185522019108 $196 68.863185522019108 $191 $315 forward 7 unknown #
coedge $-1 $186 $117 $313 $316 forward $195 $-1 #
coedge $-1 $117 $186 $309 $317 reversed $195 $-1 #
loop $-1 $-1 $193 $293 #
vertex $-1 $118 $318 #
vertex $-1 $118 $319 #
straight-curve $-1 68.863185522019108 0 20.46715285439441 0 1 0 I I #
face $-1 $320 $321 $28 $-1 $322 reversed single #
loop $-1 $-1 $323 $119 #
plane-surface $-1 0 -42.538101306622032 0 0 1 0 0 0 1 forward_v I I I I #
coedge $-1 $205 $125 $324 $325 reversed $120 $-1 #
coedge $-1 $326 $122 $323 $327 reversed $77 $-1 #
coedge $-1 $122 $326 $328 $329 reversed $77 $-1 #
coedge $-1 $212 $202 $122 $206 reversed $120 $-1 #
edge $-1 $330 -42.538101306622032 $331 42.538101306622032 $205 $332 forward 7 unknown #
coedge $-1 $124 $123 $333 $334 reversed $49 $-1 #
coedge $-1 $335 $336 $123 $209 forward $337 $-1 #
edge $-1 $338 -38.849201620888543 $214 -21.178766181372588 $208 $339 forward 7 unknown #
coedge $-1 $340 $324 $124 $211 forward $200 $-1 #
edge $-1 $213 21.178766181372588 $341 38.849201620888543 $210 $342 forward 7 unknown #
coedge $-1 $125 $205 $335 $343 reversed $120 $-1 #
vertex $-1 $211 $344 #
vertex $-1 $209 $345 #
straight-curve $-1 -51.192750082503153 0 3.3937769658653609 0 1 0 I I #
face $-1 $346 $347 $29 $-1 $348 reversed single #
loop $-1 $-1 $227 $127 #
plane-surface $-1 0 -42.538101306622032 0 0 1 0 0 0 1 forward_v I I I I #
coedge $-1 $349 $350 $351 $352 reversed $128 $-1 #
coedge $-1 $353 $130 $354 $355 reversed $81 $-1 #
coedge $-1 $130 $353 $356 $357 reversed $81 $-1 #
coedge $-1 $230 $229 $130 $223 forward $231 $-1 #
edge $-1 $358 -42.538101306622032 $359 42.538101306622032 $222 $360 forward 7 unknown #
coedge $-1 $132 $131 $350 $361 forward $52 $-1 #
coedge $-1 $362 $351 $131 $226 forward $347 $-1 #
edge $-1 $363 21.464458077870376 $232 38.753970988722614 $225 $364 forward 7 unknown #
coedge $-1 $365 $366 $132 $228 forward $217 $-1 #
edge $-1 $233 -38.753970988722614 $367 -21.464458077870376 $227 $368 forward 7 unknown #
coedge $-1 $222 $133 $366 $369 forward $231 $-1 #
coedge $-1 $133 $222 $362 $370 reversed $231 $-1 #
loop $-1 $-1 $133 $346 #
vertex $-1 $370 $371 #
vertex $-1 $369 $372 #
straight-curve $-1 68.863185522019108 0 8.591201994377391 0 -1 0 I I #
face $-1 $-1 $373 $30 $-1 $374 forward single #
loop $-1 $-1 $141 $135 #
plane-surface $-1 0 42.538101306622032 0 0 -1 0 0 0 -1 forward_v I I I I #
coedge $-1 $375 $376 $377 $378 reversed $136 $-1 #
coedge $-1 $379 $138 $140 $245 forward $85 $-1 #
coedge $-1 $138 $379 $375 $380 forward $85 $-1 #
coedge $-1 $377 $141 $138 $242 forward $236 $-1 #
edge $-1 $248 2.1203454057837092 $381 13.855356965978572 $241 $382 forward 7 unknown #
coedge $-1 $383 $384 $139 $244 forward $373 $-1 #
edge $-1 $385 -5.7601658720974243 $247 5.4148680290505737 $243 $386 forward 7 unknown #
edge $-1 $248 -85.076202613244078 $385 -69.796271723522267 $140 $387 forward 7 unknown #
coedge $-1 $141 $377 $383 $388 reversed $236 $-1 #
vertex $-1 $388 $389 #
vertex $-1 $142 $390 #
straight-curve $-1 -10.10819659166485 42.538101306622032 84.397393253251309 0 0 -1 I I #
coedge $-1 $250 $250 $-1 $391 reversed $145 $-1 #
edge $-1 $392 0 $392 6.2831853071796004 $146 $393 forward 7 unknown #
vertex $-1 $149 $394 #
ellipse-curve $-1 -15.975702371762281 36.950584356048033 15.256708888116954 0 0.68199836817093118 0.7313536940579346 2.5 0 0 1 I I #
face $-1 $-1 $266 $32 $-1 $395 reversed single #
loop $-1 $-1 $396 $150 #
plane-surface $-1 0 0 20.46715285439441 0 0 1 1 0 0 forward_v I I I I #
coedge $-1 $397 $398 $399 $400 reversed $151 $-1 #
coedge $-1 $401 $153 $155 $264 forward $94 $-1 #
coedge $-1 $153 $401 $397 $402 forward $94 $-1 #
coedge $-1 $399 $156 $153 $261 forward $266 $-1 #
edge $-1 $268 -31.117439707826271 $403 -9.033181041527488 $260 $404 forward 7 unknown #
coedge $-1 $405 $406 $154 $263 forward $255 $-1 #
edge $-1 $407 -34.672225319506282 $267 -21.12736027247184 $262 $408 forward 7 unknown #
edge $-1 $268 -8.8800565823946346e-015 $407 17.188680596962683 $155 $409 forward 7 unknown #
coedge $-1 $156 $399 $405 $410 reversed $266 $-1 #
loop $-1 $-1 $399 $254 #
vertex $-1 $410 $411 #
vertex $-1 $157 $412 #
straight-curve $-1 -51.192750082503153 -42.538101306622032 59.207302436807126 0 0 -1 I I #
coedge $-1 $270 $270 $-1 $413 reversed $160 $-1 #
edge $-1 $414 0 $414 6.2831853071796004 $161 $415 forward 7 unknown #
vertex $-1 $164 $416 #
ellipse-curve $-1 -40.15062074935377 -35.765668783104815 15.175948560426294 0 -0.61566148304635926 0.78801074757464917 1.5 0 0 1 I I #
face $-1 $-1 $417 $34 $-1 $418 forward single #
loop $-1 $-1 $171 $165 #
plane-surface $-1 0 -42.538101306622032 0 0 1 0 0 0 1 forward_v I I I I #
coedge $-1 $419 $420 $421 $422 reversed $166 $-1 #
coedge $-1 $423 $168 $170 $284 forward $103 $-1 #
coedge $-1 $168 $423 $419 $424 forward $103 $-1 #
coedge $-1 $421 $171 $168 $281 forward $275 $-1 #
edge $-1 $287 9.2236423058593466 $425 31.30790097215813 $280 $426 forward 7 unknown #
coedge $-1 $427 $428 $169 $283 forward $417 $-1 #
edge $-1 $429 -34.672225319506282 $286 -21.12736027247184 $282 $430 forward 7 unknown #
edge $-1 $287 -8.8800565823946346e-015 $429 17.188680596962683 $170 $431 forward 7 unknown #
coedge $-1 $171 $421 $427 $432 reversed $275 $-1 #
vertex $-1 $432 $433 #
vertex $-1 $172 $434 #
straight-curve $-1 29.489413944868087 -42.538101306622032 59.207302436807126 0 0 -1 I I #
coedge $-1 $289 $289 $-1 $435 reversed $175 $-1 #
edge $-1 $436 0 $436 6.2831853071796004 $176 $437 forward 7 unknown #
vertex $-1 $179 $438 #
ellipse-curve $-1 40.531543278017466 -35.765668783104815 15.175948560426294 0 -0.61566148304635926 0.78801074757464917 1.5 0 0 1 I I #
face $-1 $-1 $195 $27 $-1 $439 reversed single #
loop $-1 $-1 $309 $180 #
plane-surface $-1 0 42.538101306622032 0 0 -1 0 0 0 -1 forward_v I I I I #
coedge $-1 $440 $307 $310 $441 forward $181 $-1 #
coedge $-1 $313 $183 $184 $301 reversed $112 $-1 #
coedge $-1 $307 $440 $183 $299 reversed $181 $-1 #
edge $-1 $314 -20.46715285439441 $442 20.46715285439441 $298 $443 forward 7 unknown #
coedge $-1 $185 $184 $440 $444 forward $73 $-1 #
edge $-1 $305 -68.863185522019108 $442 68.863185522019108 $297 $445 forward 7 unknown #
coedge $-1 $310 $309 $185 $303 reversed $294 $-1 #
edge $-1 $446 -68.863185522019108 $304 68.863185522019108 $302 $447 forward 7 unknown #
vertex $-1 $187 $448 #
vertex $-1 $316 $449 #
straight-curve $-1 68.863185522019108 0 -20.46715285439441 0 -1 0 I I #
coedge $-1 $296 $298 $188 $308 reversed $181 $-1 #
edge $-1 $311 -42.538101306622032 $314 42.538101306622032 $307 $450 forward 7 unknown #
coedge $-1 $302 $189 $194 $317 forward $294 $-1 #
coedge $-1 $189 $302 $296 $441 reversed $294 $-1 #
vertex $-1 $190 $451 #
straight-curve $-1 0 42.538101306622032 20.46715285439441 -1 0 0 I I #
coedge $-1 $191 $297 $193 $316 reversed $112 $-1 #
vertex $-1 $308 $452 #
straight-curve $-1 0 -42.538101306622032 20.46715285439441 1 0 0 I I #
edge $-1 $196 -20.46715285439441 $305 20.46715285439441 $193 $453 forward 7 unknown #
edge $-1 $197 -20.46715285439441 $304 20.46715285439441 $194 $454 forward 7 unknown #
point $-1 68.863185522019108 -42.538101306622032 20.46715285439441 #
point $-1 68.863185522019108 42.538101306622032 20.46715285439441 #
face $-1 $-1 $337 $28 $-1 $455 reversed single #
loop $-1 $-1 $456 $199 #
plane-surface $-1 -68.863185522019108 0 0 1 0 0 0 0 -1 forward_v I I I I #
coedge $-1 $324 $340 $203 $327 forward $200 $-1 #
coedge $-1 $210 $323 $202 $325 forward $200 $-1 #
edge $-1 $331 -6.1495197133833992 $213 4.312357881704707 $324 $457 forward 7 unknown #
coedge $-1 $204 $203 $456 $458 reversed $77 $-1 #
edge $-1 $459 -38.849201620888543 $331 -21.178766181372588 $323 $460 forward 7 unknown #
coedge $-1 $336 $335 $204 $329 forward $337 $-1 #
edge $-1 $330 21.178766181372588 $461 38.849201620888543 $328 $462 forward 7 unknown #
vertex $-1 $329 $463 #
vertex $-1 $327 $464 #
straight-curve $-1 -51.192750082503153 0 -7.0681006292227453 0 -1 0 I I #
coedge $-1 $465 $466 $207 $334 forward $321 $-1 #
edge $-1 $341 -42.538101306622032 $338 42.538101306622032 $333 $467 forward 7 unknown #
coedge $-1 $328 $208 $212 $343 forward $337 $-1 #
coedge $-1 $208 $328 $465 $468 reversed $337 $-1 #
loop $-1 $-1 $328 $320 #
vertex $-1 $468 $469 #
straight-curve $-1 -30.013983901130565 42.538101306622032 3.3937769658653609 1 0 0 I I #
coedge $-1 $323 $210 $466 $470 forward $200 $-1 #
vertex $-1 $470 $471 #
straight-curve $-1 -30.013983901130565 -42.538101306622032 3.3937769658653609 -1 0 0 I I #
edge $-1 $214 -4.312357881704707 $330 6.1495197133833992 $335 $472 forward 7 unknown #
point $-1 -51.192750082503153 -42.538101306622032 3.3937769658653609 #
point $-1 -51.192750082503153 42.538101306622032 3.3937769658653609 #
face $-1 $-1 $231 $29 $-1 $473 reversed single #
loop $-1 $-1 $225 $216 #
plane-surface $-1 0 42.538101306622032 0 0 -1 0 0 0 -1 forward_v I I I I #
coedge $-1 $474 $219 $353 $475 reversed $128 $-1 #
coedge $-1 $219 $474 $224 $361 reversed $128 $-1 #
coedge $-1 $225 $356 $219 $352 forward $347 $-1 #
edge $-1 $476 -3.2732854237678026 $363 6.8185631375075282 $351 $477 forward 7 unknown #
coedge $-1 $221 $220 $349 $475 forward $81 $-1 #
coedge $-1 $366 $365 $220 $355 forward $217 $-1 #
edge $-1 $478 21.464458077870376 $358 38.753970988722614 $354 $479 forward 7 unknown #
coedge $-1 $351 $362 $221 $357 forward $347 $-1 #
edge $-1 $359 -38.753970988722614 $476 -21.464458077870376 $356 $480 forward 7 unknown #
vertex $-1 $223 $481 #
vertex $-1 $223 $482 #
straight-curve $-1 68.863185522019108 0 -1.5006465668979398 0 1 0 I I #
edge $-1 $363 -42.538101306622032 $367 42.538101306622032 $350 $483 forward 7 unknown #
coedge $-1 $356 $225 $230 $370 forward $347 $-1 #
vertex $-1 $226 $484 #
straight-curve $-1 30.109214533296495 42.538101306622032 8.591201994377391 1 0 0 I I #
coedge $-1 $354 $227 $474 $485 forward $217 $-1 #
coedge $-1 $227 $354 $229 $369 reversed $217 $-1 #
vertex $-1 $228 $486 #
straight-curve $-1 30.109214533296495 -42.538101306622032 8.591201994377391 -1 0 0 I I #
edge $-1 $233 -8.591201994377391 $358 1.5006465668979398 $229 $487 forward 7 unknown #
edge $-1 $232 -8.591201994377391 $359 1.5006465668979398 $230 $488 forward 7 unknown #
point $-1 68.863185522019108 42.538101306622032 8.591201994377391 #
point $-1 68.863185522019108 -42.538101306622032 8.591201994377391 #
loop $-1 $-1 $243 $235 #
plane-surface $-1 0 0 20.46715285439441 0 0 1 1 0 0 forward_v I I I I #
coedge $-1 $376 $238 $240 $380 reversed $136 $-1 #
coedge $-1 $238 $375 $489 $490 reversed $136 $-1 #
coedge $-1 $246 $241 $238 $378 forward $236 $-1 #
edge $-1 $381 -74.351128331411786 $491 -63.930240398856895 $377 $492 forward 7 unknown #
coedge $-1 $240 $239 $384 $493 reversed $85 $-1 #
edge $-1 $494 69.796271723522267 $381 85.076202613244078 $375 $495 forward 7 unknown #
vertex $-1 $242 $496 #
straight-curve $-1 -7.9878511858811407 42.538101306622025 10.046264921839523 -1 0 0 I I #
coedge $-1 $489 $243 $246 $388 forward $373 $-1 #
coedge $-1 $243 $489 $379 $493 forward $373 $-1 #
vertex $-1 $244 $497 #
straight-curve $-1 -10.10819659166485 37.123233277571458 20.467152854394413 0 1 0 I I #
straight-curve $-1 -10.10819659166485 -19.682693750995341 68.068096274251502 0 -0.7313536940579346 0.68199836817093118 I I #
edge $-1 $247 10.10819659166485 $491 21.843208151859713 $246 $498 forward 7 unknown #
point $-1 -10.10819659166485 42.538101306622032 20.46715285439441 #
point $-1 -10.10819659166485 42.538101306622032 10.046264921839523 #
edge $-1 $499 1 $499 0 $250 $-1 forward 7 unknown #
vertex $-1 $251 $500 #
ellipse-curve $-1 -15.975702371762281 30.597188961898542 8.4435266164589198 0 0.68199836817093118 0.7313536940579346 2.5 0 0 1 I I #
point $-1 -13.475702371762281 36.950584356048061 15.256708888116984 #
plane-surface $-1 0 -42.538101306622032 0 0 1 0 0 0 1 forward_v I I I I #
coedge $-1 $406 $405 $398 $501 forward $255 $-1 #
coedge $-1 $398 $257 $259 $402 reversed $151 $-1 #
coedge $-1 $257 $397 $396 $501 reversed $151 $-1 #
coedge $-1 $265 $260 $257 $400 forward $266 $-1 #
edge $-1 $403 -49.322558170348948 $502 -38.740149582412712 $399 $503 forward 7 unknown #
coedge $-1 $259 $258 $406 $504 reversed $94 $-1 #
edge $-1 $505 -17.188680596962683 $403 8.8800565823946346e-015 $397 $506 forward 7 unknown #
vertex $-1 $261 $507 #
straight-curve $-1 -20.075310374676882 -42.538101306622032 9.8847442664581795 1 0 0 I I #
coedge $-1 $396 $262 $265 $410 forward $255 $-1 #
coedge $-1 $262 $396 $401 $504 forward $255 $-1 #
vertex $-1 $263 $508 #
straight-curve $-1 -51.192750082503153 -63.665461579093872 20.467152854394413 0 -1 0 I I #
straight-curve $-1 -51.192750082503153 -42.538101306622025 9.8847442664581848 0 0.78801074757464917 0.61566148304635926 I I #
edge $-1 $267 -51.192750082503153 $502 -29.10849141620437 $265 $509 forward 7 unknown #
point $-1 -51.192750082503153 -42.538101306622032 20.46715285439441 #
point $-1 -51.192750082503153 -42.538101306622032 9.8847442664581795 #
edge $-1 $510 1 $510 0 $270 $-1 forward 7 unknown #
vertex $-1 $271 $511 #
ellipse-curve $-1 -40.15062074935377 -33.06838493471458 11.723582738751254 0 -0.61566148304635926 0.78801074757464917 1.5 0 0 1 I I #
point $-1 -38.65062074935377 -35.765668783104822 15.175948560426303 #
loop $-1 $-1 $282 $274 #
plane-surface $-1 0 0 20.46715285439441 0 0 1 1 0 0 forward_v I I I I #
coedge $-1 $420 $277 $279 $424 reversed $166 $-1 #
coedge $-1 $277 $419 $512 $513 reversed $166 $-1 #
coedge $-1 $285 $280 $277 $422 forward $275 $-1 #
edge $-1 $425 -49.322558170348948 $514 -38.740149582412712 $421 $515 forward 7 unknown #
coedge $-1 $279 $278 $428 $516 reversed $103 $-1 #
edge $-1 $517 -17.188680596962683 $425 8.8800565823946346e-015 $419 $518 forward 7 unknown #
vertex $-1 $281 $519 #
straight-curve $-1 20.26577163900874 -42.538101306622032 9.8847442664581795 1 0 0 I I #
coedge $-1 $512 $282 $285 $432 forward $417 $-1 #
coedge $-1 $282 $512 $423 $516 forward $417 $-1 #
vertex $-1 $283 $520 #
straight-curve $-1 29.489413944868087 -63.665461579093872 20.467152854394413 0 -1 0 I I #
straight-curve $-1 29.489413944868087 -42.538101306622025 9.8847442664581848 0 0.78801074757464917 0.61566148304635926 I I #
edge $-1 $286 29.489413944868087 $514 51.57367261116687 $285 $521 forward 7 unknown #
point $-1 29.489413944868087 -42.538101306622032 20.46715285439441 #
point $-1 29.489413944868087 -42.538101306622032 9.8847442664581795 #
edge $-1 $522 1 $522 0 $289 $-1 forward 7 unknown #
vertex $-1 $290 $523 #
ellipse-curve $-1 40.531543278017466 -33.06838493471458 11.723582738751254 0 -0.61566148304635926 0.78801074757464917 1.5 0 0 1 I I #
point $-1 42.031543278017466 -35.765668783104822 15.175948560426303 #
plane-surface $-1 68.863185522019108 0 0 -1 0 0 0 0 1 forward_v I I I I #
coedge $-1 $298 $296 $300 $444 reversed $181 $-1 #
edge $-1 $311 -20.46715285439441 $446 20.46715285439441 $310 $524 forward 7 unknown #
vertex $-1 $444 $525 #
straight-curve $-1 -68.863185522019108 -42.538101306622032 0 0 0 -1 I I #
edge $-1 $442 -42.538101306622032 $446 42.538101306622032 $440 $526 forward 7 unknown #
straight-curve $-1 0 -42.538101306622032 -20.46715285439441 -1 0 0 I I #
vertex $-1 $303 $527 #
straight-curve $-1 0 42.538101306622032 -20.46715285439441 1 0 0 I I #
point $-1 68.863185522019108 42.538101306622032 -20.46715285439441 #
point $-1 68.863185522019108 -42.538101306622032 -20.46715285439441 #
straight-curve $-1 -68.863185522019108 0 20.46715285439441 0 -1 0 I I #
point $-1 -68.863185522019108 42.538101306622032 20.46715285439441 #
point $-1 -68.863185522019108 -42.538101306622032 20.46715285439441 #
straight-curve $-1 68.863185522019108 -42.538101306622032 0 0 0 -1 I I #
straight-curve $-1 68.863185522019108 42.538101306622032 0 0 0 -1 I I #
plane-surface $-1 0 42.538101306622032 0 0 -1 0 0 0 -1 forward_v I I I I #
coedge $-1 $466 $465 $326 $458 forward $321 $-1 #
straight-curve $-1 -51.192750082503153 -42.538101306622032 -0.91858091583934609 0 0 1 I I #
edge $-1 $461 -42.538101306622032 $459 42.538101306622032 $456 $528 forward 7 unknown #
vertex $-1 $327 $529 #
straight-curve $-1 -30.013983901130565 -42.538101306622032 -7.0681006292227453 1 0 0 I I #
vertex $-1 $329 $530 #
straight-curve $-1 -30.013983901130565 42.538101306622032 -7.0681006292227453 -1 0 0 I I #
point $-1 -51.192750082503153 42.538101306622032 -7.0681006292227453 #
point $-1 -51.192750082503153 -42.538101306622032 -7.0681006292227453 #
coedge $-1 $456 $333 $336 $468 forward $321 $-1 #
coedge $-1 $333 $456 $340 $470 reversed $321 $-1 #
straight-curve $-1 -68.863185522019108 0 3.3937769658653609 0 1 0 I I #
edge $-1 $338 -3.3937769658653609 $461 7.0681006292227453 $336 $531 forward 7 unknown #
point $-1 -68.863185522019108 42.538101306622032 3.3937769658653609 #
edge $-1 $341 -3.3937769658653609 $459 7.0681006292227453 $466 $532 forward 7 unknown #
point $-1 -68.863185522019108 -42.538101306622032 3.3937769658653609 #
straight-curve $-1 -51.192750082503153 42.538101306622032 -0.91858091583934609 0 0 -1 I I #
plane-surface $-1 68.863185522019108 0 0 -1 0 0 0 0 1 forward_v I I I I #
coedge $-1 $350 $349 $365 $485 reversed $128 $-1 #
edge $-1 $478 -42.538101306622032 $476 42.538101306622032 $349 $533 forward 7 unknown #
vertex $-1 $357 $534 #
straight-curve $-1 51.57367261116687 42.538101306622032 1.7726388568698628 0 0 1 I I #
vertex $-1 $355 $535 #
straight-curve $-1 30.109214533296495 -42.538101306622032 -1.5006465668979398 1 0 0 I I #
straight-curve $-1 30.109214533296495 42.538101306622032 -1.5006465668979398 -1 0 0 I I #
point $-1 68.863185522019108 -42.538101306622032 -1.5006465668979398 #
point $-1 68.863185522019108 42.538101306622032 -1.5006465668979398 #
straight-curve $-1 51.57367261116687 0 8.591201994377391 0 -1 0 I I #
point $-1 51.57367261116687 42.538101306622032 8.591201994377391 #
edge $-1 $367 -6.8185631375075282 $478 3.2732854237678026 $365 $536 forward 7 unknown #
point $-1 51.57367261116687 -42.538101306622032 8.591201994377391 #
straight-curve $-1 68.863185522019108 -42.538101306622032 0 0 0 -1 I I #
straight-curve $-1 68.863185522019108 42.538101306622032 0 0 0 -1 I I #
coedge $-1 $384 $383 $376 $490 forward $373 $-1 #
edge $-1 $491 -5.4148680290505737 $494 5.7601658720974243 $489 $537 forward 7 unknown #
vertex $-1 $490 $538 #
straight-curve $-1 -21.843208151859713 42.538101306622032 84.397393253251309 0 0 1 I I #
edge $-1 $494 -13.855356965978572 $385 -2.1203454057837092 $384 $539 forward 7 unknown #
vertex $-1 $493 $540 #
straight-curve $-1 -21.843208151859713 -19.682693750995341 68.068096274251502 0 0.7313536940579346 -0.68199836817093118 I I #
point $-1 -21.843208151859713 42.538101306622032 10.046264921839523 #
point $-1 -10.10819659166485 31.363067405474034 20.467152854394406 #
straight-curve $-1 0 42.538101306622032 20.46715285439441 -1 0 0 I I #
vertex $-1 $391 $541 #
point $-1 -13.475702371762281 30.597188961898542 8.4435266164589198 #
edge $-1 $502 21.12736027247184 $505 34.672225319506282 $396 $542 forward 7 unknown #
vertex $-1 $400 $543 #
straight-curve $-1 -29.10849141620437 -42.538101306622032 59.207302436807126 0 0 1 I I #
edge $-1 $505 9.033181041527488 $407 31.117439707826271 $406 $544 forward 7 unknown #
vertex $-1 $504 $545 #
straight-curve $-1 -29.10849141620437 -42.538101306622025 9.8847442664581848 0 -0.78801074757464917 -0.61566148304635926 I I #
point $-1 -29.10849141620437 -42.538101306622032 9.8847442664581795 #
point $-1 -51.192750082503153 -28.993236259587594 20.46715285439441 #
straight-curve $-1 0 -42.538101306622032 20.46715285439441 1 0 0 I I #
vertex $-1 $413 $546 #
point $-1 -38.65062074935377 -33.06838493471458 11.723582738751254 #
coedge $-1 $428 $427 $420 $513 forward $417 $-1 #
edge $-1 $514 21.12736027247184 $517 34.672225319506282 $512 $547 forward 7 unknown #
vertex $-1 $513 $548 #
straight-curve $-1 51.57367261116687 -42.538101306622032 59.207302436807126 0 0 1 I I #
edge $-1 $517 -31.30790097215813 $429 -9.2236423058593466 $428 $549 forward 7 unknown #
vertex $-1 $516 $550 #
straight-curve $-1 51.57367261116687 -42.538101306622025 9.8847442664581848 0 -0.78801074757464917 -0.61566148304635926 I I #
point $-1 51.57367261116687 -42.538101306622032 9.8847442664581795 #
point $-1 29.489413944868087 -28.993236259587594 20.46715285439441 #
straight-curve $-1 0 -42.538101306622032 20.46715285439441 1 0 0 I I #
vertex $-1 $435 $551 #
point $-1 42.031543278017466 -33.06838493471458 11.723582738751254 #
straight-curve $-1 -68.863185522019108 42.538101306622032 0 0 0 -1 I I #
point $-1 -68.863185522019108 -42.538101306622032 -20.46715285439441 #
straight-curve $-1 -68.863185522019108 0 -20.46715285439441 0 1 0 I I #
point $-1 -68.863185522019108 42.538101306622032 -20.46715285439441 #
straight-curve $-1 -68.863185522019108 0 -7.0681006292227453 0 -1 0 I I #
point $-1 -68.863185522019108 -42.538101306622032 -7.0681006292227453 #
point $-1 -68.863185522019108 42.538101306622032 -7.0681006292227453 #
straight-curve $-1 -68.863185522019108 42.538101306622032 0 0 0 -1 I I #
straight-curve $-1 -68.863185522019108 -42.538101306622032 0 0 0 -1 I I #
straight-curve $-1 51.57367261116687 0 -1.5006465668979398 0 1 0 I I #
point $-1 51.57367261116687 42.538101306622032 -1.5006465668979398 #
point $-1 51.57367261116687 -42.538101306622032 -1.5006465668979398 #
straight-curve $-1 51.57367261116687 -42.538101306622032 1.7726388568698628 0 0 -1 I I #
straight-curve $-1 -21.843208151859713 37.123233277571458 20.467152854394413 0 -1 0 I I #
point $-1 -21.843208151859713 42.538101306622032 20.46715285439441 #
straight-curve $-1 -7.9878511858811407 31.363067405474037 20.46715285439441 1 0 0 I I #
point $-1 -21.843208151859713 31.363067405474034 20.467152854394406 #
point $-1 -15.975702371762281 28.892193041471213 6.6151423813140839 #
straight-curve $-1 -29.10849141620437 -63.665461579093872 20.467152854394413 0 1 0 I I #
point $-1 -29.10849141620437 -42.538101306622032 20.46715285439441 #
straight-curve $-1 -20.075310374676882 -28.993236259587594 20.46715285439441 -1 0 0 I I #
point $-1 -29.10849141620437 -28.993236259587594 20.46715285439441 #
point $-1 -40.15062074935377 -32.144892710145037 10.541566617389279 #
straight-curve $-1 51.57367261116687 -63.665461579093872 20.467152854394413 0 1 0 I I #
point $-1 51.57367261116687 -42.538101306622032 20.46715285439441 #
straight-curve $-1 20.26577163900874 -28.993236259587594 20.46715285439441 -1 0 0 I I #
point $-1 51.57367261116687 -28.993236259587594 20.46715285439441 #
point $-1 40.531543278017466 -32.144892710145037 10.541566617389279 #
End-of-ACIS-data 