500 0 14 0           
7 Unknown 11 ACIS 5.0 NT 24 Fri Mar 26 15:26:12 1999 
-1 9.9999999999999995e-007 1e-010 
body $-1 $14 $-1 $15 #
body $-1 $16 $-1 $17 #
body $-1 $18 $-1 $19 #
body $-1 $20 $-1 $21 #
body $-1 $22 $-1 $23 #
body $-1 $24 $-1 $25 #
body $-1 $26 $-1 $27 #
body $-1 $28 $-1 $29 #
body $-1 $30 $-1 $31 #
body $-1 $32 $-1 $33 #
body $-1 $34 $-1 $35 #
body $-1 $36 $-1 $37 #
body $-1 $38 $-1 $39 #
body $-1 $40 $-1 $41 #
lump $-1 $-1 $42 $0 #
transform $-1 1 0 0 0 1 0 0 0 1 56.716818750572223 29.31681577630518 12.088903105048525 1 rotate no_reflect no_shear #
lump $-1 $-1 $43 $1 #
transform $-1 1 0 0 0 1 0 0 0 1 56.716818750572223 29.31681577630518 12.088903105048525 1 rotate no_reflect no_shear #
lump $-1 $-1 $44 $2 #
transform $-1 1 0 0 0 1 0 0 0 1 56.716818750572223 29.31681577630518 12.088903105048525 1 rotate no_reflect no_shear #
lump $-1 $-1 $45 $3 #
transform $-1 1 0 0 0 1 0 0 0 1 56.716818750572223 29.31681577630518 12.088903105048525 1 rotate no_reflect no_shear #
lump $-1 $-1 $46 $4 #
transform $-1 1 0 0 0 1 0 0 0 1 56.716818750572223 29.31681577630518 12.088903105048525 1 rotate no_reflect no_shear #
lump $-1 $-1 $47 $5 #
transform $-1 1 0 0 0 1 0 0 0 1 56.716818750572223 29.31681577630518 12.088903105048525 1 rotate no_reflect no_shear #
lump $-1 $-1 $48 $6 #
transform $-1 1 0 0 0 1 0 0 0 1 56.716818750572223 29.31681577630518 12.088903105048525 1 rotate no_reflect no_shear #
lump $-1 $-1 $49 $7 #
transform $-1 1 0 0 0 1 0 0 0 1 56.716818750572223 29.31681577630518 12.088903105048525 1 rotate no_reflect no_shear #
lump $-1 $-1 $50 $8 #
transform $-1 1 0 0 0 1 0 0 0 1 56.716818750572223 29.31681577630518 12.088903105048525 1 rotate no_reflect no_shear #
lump $-1 $-1 $51 $9 #
transform $-1 1 0 0 0 1 0 0 0 1 56.716818750572223 29.31681577630518 12.088903105048525 1 rotate no_reflect no_shear #
lump $-1 $-1 $52 $10 #
transform $-1 1 0 0 0 1 0 0 0 1 56.716818750572223 29.31681577630518 12.088903105048525 1 rotate no_reflect no_shear #
lump $-1 $-1 $53 $11 #
transform $-1 1 0 0 0 1 0 0 0 1 56.716818750572223 29.31681577630518 12.088903105048525 1 rotate no_reflect no_shear #
lump $-1 $-1 $54 $12 #
transform $-1 1 0 0 0 1 0 0 0 1 56.716818750572223 29.31681577630518 12.088903105048525 1 rotate no_reflect no_shear #
lump $-1 $-1 $55 $13 #
transform $-1 1 0 0 0 1 0 0 0 1 56.716818750572223 29.31681577630518 12.088903105048525 1 rotate no_reflect no_shear #
shell $-1 $-1 $-1 $56 $-1 $14 #
shell $-1 $-1 $-1 $57 $-1 $16 #
shell $-1 $-1 $-1 $58 $-1 $18 #
shell $-1 $-1 $-1 $59 $-1 $20 #
shell $-1 $-1 $-1 $60 $-1 $22 #
shell $-1 $-1 $-1 $61 $-1 $24 #
shell $-1 $-1 $-1 $62 $-1 $26 #
shell $-1 $-1 $-1 $63 $-1 $28 #
shell $-1 $-1 $-1 $64 $-1 $30 #
shell $-1 $-1 $-1 $65 $-1 $32 #
shell $-1 $-1 $-1 $66 $-1 $34 #
shell $-1 $-1 $-1 $67 $-1 $36 #
shell $-1 $-1 $-1 $68 $-1 $38 #
shell $-1 $-1 $-1 $69 $-1 $40 #
face $-1 $70 $71 $42 $-1 $72 forward single #
face $-1 $73 $74 $43 $-1 $75 forward single #
face $-1 $76 $77 $44 $-1 $78 reversed single #
face $-1 $79 $80 $45 $-1 $81 forward single #
face $-1 $82 $83 $46 $-1 $84 forward single #
face $-1 $85 $86 $47 $-1 $87 reversed single #
face $-1 $88 $89 $48 $-1 $90 forward single #
face $-1 $91 $92 $49 $-1 $93 forward single #
face $-1 $94 $95 $50 $-1 $96 reversed single #
face $-1 $97 $98 $51 $-1 $99 forward single #
face $-1 $100 $101 $52 $-1 $102 forward single #
face $-1 $103 $104 $53 $-1 $105 reversed single #
face $-1 $106 $107 $54 $-1 $108 forward single #
face $-1 $109 $110 $55 $-1 $111 forward single #
face $-1 $112 $113 $42 $-1 $114 reversed single #
loop $-1 $-1 $115 $56 #
plane-surface $-1 0 0 12.088903105048525 0 0 1 1 0 0 forward_v I I I I #
face $-1 $116 $117 $43 $-1 $118 reversed single #
loop $-1 $-1 $119 $57 #
plane-surface $-1 0 -24.401822763341926 7.2244911222589874 0 0 1 1 0 0 forward_v I I I I #
face $-1 $120 $121 $44 $-1 $122 reversed single #
loop $-1 $-1 $123 $58 #
plane-surface $-1 59.516525022896907 -15.414153395663011 162.93214870718086 0 1 0 0.71933980857756763 0 0.69465836192734942 forward_v I I I I #
face $-1 $124 $125 $45 $-1 $126 forward single #
loop $-1 $127 $128 $59 #
cone-surface $-1 50.67504057269106 -13.091800530818642 5.9323172069013275 -0.71933980857756763 0 -0.69465836192734942 0.69465836192734942 0 -0.71933980857756763 1 I I 0 1 1 forward I I I I #
face $-1 $129 $130 $46 $-1 $131 forward single #
loop $-1 $132 $133 $60 #
cone-surface $-1 50.67504057269106 -9.6082712335520846 5.9323172069013275 -0.71933980857756763 0 -0.69465836192734942 0.69465836192734942 0 -0.71933980857756763 1 I I 0 1 1 forward I I I I #
face $-1 $134 $135 $47 $-1 $136 reversed single #
loop $-1 $-1 $137 $61 #
plane-surface $-1 59.516525022896907 -3.2132420139920486 162.93214870718086 0 1 0 0.71933980857756763 0 0.69465836192734942 forward_v I I I I #
face $-1 $138 $139 $48 $-1 $140 forward single #
loop $-1 $141 $142 $62 #
cone-surface $-1 50.67504057269106 -0.89088914914767869 5.9323172069013275 -0.71933980857756763 0 -0.69465836192734942 0.69465836192734942 0 -0.71933980857756763 1 I I 0 1 1 forward I I I I #
face $-1 $143 $144 $49 $-1 $145 forward single #
loop $-1 $146 $147 $63 #
cone-surface $-1 50.67504057269106 2.5926401481188783 5.9323172069013275 -0.71933980857756763 0 -0.69465836192734942 0.69465836192734942 0 -0.71933980857756763 1 I I 0 1 1 forward I I I I #
face $-1 $148 $149 $50 $-1 $150 reversed single #
loop $-1 $-1 $151 $64 #
plane-surface $-1 59.516525022896907 8.9876693676789188 162.93214870718086 0 1 0 0.71933980857756763 0 0.69465836192734942 forward_v I I I I #
face $-1 $152 $153 $51 $-1 $154 forward single #
loop $-1 $155 $156 $65 #
cone-surface $-1 50.67504057269106 11.310022232523284 5.9323172069013275 -0.71933980857756763 0 -0.69465836192734942 0.69465836192734942 0 -0.71933980857756763 1 I I 0 1 1 forward I I I I #
face $-1 $157 $158 $52 $-1 $159 forward single #
loop $-1 $160 $161 $66 #
cone-surface $-1 50.67504057269106 14.793551529789841 5.9323172069013275 -0.71933980857756763 0 -0.69465836192734942 0.69465836192734942 0 -0.71933980857756763 1 I I 0 1 1 forward I I I I #
face $-1 $162 $163 $53 $-1 $164 reversed single #
loop $-1 $-1 $165 $67 #
plane-surface $-1 59.516525022896907 21.188580749349882 162.93214870718086 0 1 0 0.71933980857756763 0 0.69465836192734942 forward_v I I I I #
face $-1 $166 $167 $54 $-1 $168 forward single #
loop $-1 $169 $170 $68 #
cone-surface $-1 50.67504057269106 23.510933614194247 5.9323172069013275 -0.71933980857756763 0 -0.69465836192734942 0.69465836192734942 0 -0.71933980857756763 1 I I 0 1 1 forward I I I I #
face $-1 $171 $172 $55 $-1 $173 forward single #
loop $-1 $174 $175 $69 #
cone-surface $-1 50.67504057269106 26.994462911460804 5.9323172069013275 -0.71933980857756763 0 -0.69465836192734942 0.69465836192734942 0 -0.71933980857756763 1 I I 0 1 1 forward I I I I #
face $-1 $176 $177 $42 $-1 $178 reversed single #
loop $-1 $-1 $179 $70 #
plane-surface $-1 0 0 -12.088903105048525 0 0 1 1 0 0 forward_v I I I I #
coedge $-1 $180 $181 $182 $183 forward $71 $-1 #
face $-1 $184 $185 $43 $-1 $186 reversed single #
loop $-1 $-1 $187 $73 #
plane-surface $-1 0 -24.401822763341926 0.59509264529689254 0 0 1 1 0 0 forward_v I I I I #
coedge $-1 $188 $189 $190 $191 reversed $74 $-1 #
face $-1 $192 $193 $44 $-1 $194 reversed single #
loop $-1 $-1 $195 $76 #
plane-surface $-1 -22.080806063433535 -11.35003588218536 84.1345238931751 0.71933980857756763 0 0.69465836192734942 0.69465836192734942 0 -0.71933980857756763 forward_v I I I I #
coedge $-1 $196 $197 $198 $199 reversed $77 $-1 #
face $-1 $-1 $200 $45 $-1 $201 forward single #
loop $-1 $202 $203 $79 #
cone-surface $-1 48.885582088646778 -13.091800530818642 4.2042572768923829 -0.71933980857756763 0 -0.69465836192734942 0.34732918096367471 0 -0.35966990428878381 1 I I -0.70710678118654746 0.70710678118654746 0.5 forward I I I I #
loop $-1 $-1 $204 $59 #
coedge $-1 $128 $128 $205 $206 reversed $80 $-1 #
face $-1 $-1 $207 $46 $-1 $208 forward single #
loop $-1 $209 $210 $82 #
cone-surface $-1 48.885582088646778 -9.6082712335520846 4.2042572768923829 -0.71933980857756763 0 -0.69465836192734942 0.34732918096367471 0 -0.35966990428878381 1 I I -0.70710678118654746 0.70710678118654746 0.5 forward I I I I #
loop $-1 $-1 $211 $60 #
coedge $-1 $133 $133 $212 $213 reversed $83 $-1 #
face $-1 $214 $215 $47 $-1 $216 reversed single #
loop $-1 $-1 $217 $85 #
plane-surface $-1 -22.080806063433535 0.85087549948560337 84.1345238931751 0.71933980857756763 0 0.69465836192734942 0.69465836192734942 0 -0.71933980857756763 forward_v I I I I #
coedge $-1 $218 $219 $220 $221 reversed $86 $-1 #
face $-1 $-1 $222 $48 $-1 $223 forward single #
loop $-1 $224 $225 $88 #
cone-surface $-1 48.885582088646778 -0.89088914914767869 4.2042572768923829 -0.71933980857756763 0 -0.69465836192734942 0.34732918096367471 0 -0.35966990428878381 1 I I -0.70710678118654746 0.70710678118654746 0.5 forward I I I I #
loop $-1 $-1 $226 $62 #
coedge $-1 $142 $142 $227 $228 reversed $89 $-1 #
face $-1 $-1 $229 $49 $-1 $230 forward single #
loop $-1 $231 $232 $91 #
cone-surface $-1 48.885582088646778 2.5926401481188783 4.2042572768923829 -0.71933980857756763 0 -0.69465836192734942 0.34732918096367471 0 -0.35966990428878381 1 I I -0.70710678118654746 0.70710678118654746 0.5 forward I I I I #
loop $-1 $-1 $233 $63 #
coedge $-1 $147 $147 $234 $235 reversed $92 $-1 #
face $-1 $236 $237 $50 $-1 $238 reversed single #
loop $-1 $-1 $239 $94 #
plane-surface $-1 -22.080806063433535 13.05178688115657 84.1345238931751 0.71933980857756763 0 0.69465836192734942 0.69465836192734942 0 -0.71933980857756763 forward_v I I I I #
coedge $-1 $240 $241 $242 $243 reversed $95 $-1 #
face $-1 $-1 $244 $51 $-1 $245 forward single #
loop $-1 $246 $247 $97 #
cone-surface $-1 48.885582088646778 11.310022232523284 4.2042572768923829 -0.71933980857756763 0 -0.69465836192734942 0.34732918096367471 0 -0.35966990428878381 1 I I -0.70710678118654746 0.70710678118654746 0.5 forward I I I I #
loop $-1 $-1 $248 $65 #
coedge $-1 $156 $156 $249 $250 reversed $98 $-1 #
face $-1 $-1 $251 $52 $-1 $252 forward single #
loop $-1 $253 $254 $100 #
cone-surface $-1 48.885582088646778 14.793551529789841 4.2042572768923829 -0.71933980857756763 0 -0.69465836192734942 0.34732918096367471 0 -0.35966990428878381 1 I I -0.70710678118654746 0.70710678118654746 0.5 forward I I I I #
loop $-1 $-1 $255 $66 #
coedge $-1 $161 $161 $256 $257 reversed $101 $-1 #
face $-1 $258 $259 $53 $-1 $260 reversed single #
loop $-1 $-1 $261 $103 #
plane-surface $-1 -22.080806063433535 25.252698262827533 84.1345238931751 0.71933980857756763 0 0.69465836192734942 0.69465836192734942 0 -0.71933980857756763 forward_v I I I I #
coedge $-1 $262 $263 $264 $265 reversed $104 $-1 #
face $-1 $-1 $266 $54 $-1 $267 forward single #
loop $-1 $268 $269 $106 #
cone-surface $-1 48.885582088646778 23.510933614194247 4.2042572768923829 -0.71933980857756763 0 -0.69465836192734942 0.34732918096367471 0 -0.35966990428878381 1 I I -0.70710678118654746 0.70710678118654746 0.5 forward I I I I #
loop $-1 $-1 $270 $68 #
coedge $-1 $170 $170 $271 $272 reversed $107 $-1 #
face $-1 $-1 $273 $55 $-1 $274 forward single #
loop $-1 $275 $276 $109 #
cone-surface $-1 48.885582088646778 26.994462911460804 4.2042572768923829 -0.71933980857756763 0 -0.69465836192734942 0.34732918096367471 0 -0.35966990428878381 1 I I -0.70710678118654746 0.70710678118654746 0.5 forward I I I I #
loop $-1 $-1 $277 $69 #
coedge $-1 $175 $175 $278 $279 reversed $110 $-1 #
face $-1 $280 $281 $42 $-1 $282 reversed single #
loop $-1 $-1 $283 $112 #
plane-surface $-1 0 -29.31681577630518 0 0 1 0 0 0 1 forward_v I I I I #
coedge $-1 $284 $285 $286 $287 forward $113 $-1 #
coedge $-1 $288 $115 $289 $290 forward $71 $-1 #
coedge $-1 $115 $288 $291 $292 forward $71 $-1 #
coedge $-1 $293 $294 $115 $183 reversed $295 $-1 #
edge $-1 $296 -29.31681577630518 $297 29.31681577630518 $182 $298 forward 7 unknown #
face $-1 $299 $300 $43 $-1 $301 reversed single #
loop $-1 $-1 $302 $116 #
plane-surface $-1 0 -19.486829750378671 3.90979188377794 0 -1 0 0 0 -1 forward_v I I I I #
coedge $-1 $303 $304 $305 $306 reversed $117 $-1 #
coedge $-1 $307 $119 $308 $309 forward $74 $-1 #
coedge $-1 $119 $307 $310 $311 reversed $74 $-1 #
coedge $-1 $312 $313 $119 $191 forward $314 $-1 #
edge $-1 $315 7.2859183687077085 $316 17.115904394634217 $190 $317 forward 7 unknown #
face $-1 $318 $319 $44 $-1 $320 forward single #
loop $-1 $-1 $321 $120 #
plane-surface $-1 59.516525022896907 -7.2859183687077076 162.93214870718086 0 -1 0 -0.71933980857756763 0 -0.69465836192734942 forward_v I I I I #
coedge $-1 $322 $323 $324 $325 reversed $121 $-1 #
coedge $-1 $197 $123 $326 $327 reversed $77 $-1 #
coedge $-1 $123 $196 $322 $328 reversed $77 $-1 #
coedge $-1 $324 $329 $123 $199 forward $330 $-1 #
edge $-1 $331 69.377171248541899 $332 78.928881546745771 $198 $333 forward 7 unknown #
loop $-1 $-1 $205 $124 #
plane-surface $-1 -22.080806063433535 -11.35003588218536 84.1345238931751 0.71933980857756763 0 0.69465836192734942 0.69465836192734942 0 -0.71933980857756763 forward_v I I I I #
loop $-1 $-1 $334 $79 #
coedge $-1 $203 $203 $204 $335 reversed $125 $-1 #
coedge $-1 $204 $204 $203 $335 forward $127 $-1 #
coedge $-1 $205 $205 $128 $206 forward $200 $-1 #
edge $-1 $336 0 $336 6.2831853071796004 $205 $337 forward 7 unknown #
loop $-1 $-1 $212 $129 #
plane-surface $-1 -22.080806063433535 -11.35003588218536 84.1345238931751 0.71933980857756763 0 0.69465836192734942 0.69465836192734942 0 -0.71933980857756763 forward_v I I I I #
loop $-1 $-1 $338 $82 #
coedge $-1 $210 $210 $211 $339 reversed $130 $-1 #
coedge $-1 $211 $211 $210 $339 forward $132 $-1 #
coedge $-1 $212 $212 $133 $213 forward $207 $-1 #
edge $-1 $340 0 $340 6.2831853071796004 $212 $341 forward 7 unknown #
face $-1 $342 $343 $47 $-1 $344 reversed single #
loop $-1 $-1 $345 $134 #
plane-surface $-1 59.516525022896907 4.9149930129632553 162.93214870718086 0 -1 0 -0.71933980857756763 0 -0.69465836192734942 forward_v I I I I #
coedge $-1 $346 $347 $348 $349 reversed $135 $-1 #
coedge $-1 $219 $137 $350 $351 reversed $86 $-1 #
coedge $-1 $137 $218 $346 $352 reversed $86 $-1 #
coedge $-1 $348 $353 $137 $221 forward $343 $-1 #
edge $-1 $354 69.377171248541899 $355 78.928881546745771 $220 $356 forward 7 unknown #
loop $-1 $-1 $227 $138 #
plane-surface $-1 -22.080806063433535 0.85087549948560337 84.1345238931751 0.71933980857756763 0 0.69465836192734942 0.69465836192734942 0 -0.71933980857756763 forward_v I I I I #
loop $-1 $-1 $357 $88 #
coedge $-1 $225 $225 $226 $358 reversed $139 $-1 #
coedge $-1 $226 $226 $225 $358 forward $141 $-1 #
coedge $-1 $227 $227 $142 $228 forward $222 $-1 #
edge $-1 $359 0 $359 6.2831853071796004 $227 $360 forward 7 unknown #
loop $-1 $-1 $234 $143 #
plane-surface $-1 -22.080806063433535 0.85087549948560337 84.1345238931751 0.71933980857756763 0 0.69465836192734942 0.69465836192734942 0 -0.71933980857756763 forward_v I I I I #
loop $-1 $-1 $361 $91 #
coedge $-1 $232 $232 $233 $362 reversed $144 $-1 #
coedge $-1 $233 $233 $232 $362 forward $146 $-1 #
coedge $-1 $234 $234 $147 $235 forward $229 $-1 #
edge $-1 $363 0 $363 6.2831853071796004 $234 $364 forward 7 unknown #
face $-1 $365 $366 $50 $-1 $367 reversed single #
loop $-1 $-1 $368 $148 #
plane-surface $-1 59.516525022896907 17.115904394634221 162.93214870718086 0 -1 0 -0.71933980857756763 0 -0.69465836192734942 forward_v I I I I #
coedge $-1 $369 $370 $371 $372 reversed $149 $-1 #
coedge $-1 $241 $151 $373 $374 reversed $95 $-1 #
coedge $-1 $151 $240 $369 $375 reversed $95 $-1 #
coedge $-1 $371 $376 $151 $243 forward $366 $-1 #
edge $-1 $377 69.377171248541899 $378 78.928881546745771 $242 $379 forward 7 unknown #
loop $-1 $-1 $249 $152 #
plane-surface $-1 -22.080806063433535 13.05178688115657 84.1345238931751 0.71933980857756763 0 0.69465836192734942 0.69465836192734942 0 -0.71933980857756763 forward_v I I I I #
loop $-1 $-1 $380 $97 #
coedge $-1 $247 $247 $248 $381 reversed $153 $-1 #
coedge $-1 $248 $248 $247 $381 forward $155 $-1 #
coedge $-1 $249 $249 $156 $250 forward $244 $-1 #
edge $-1 $382 0 $382 6.2831853071796004 $249 $383 forward 7 unknown #
loop $-1 $-1 $256 $157 #
plane-surface $-1 -22.080806063433535 13.05178688115657 84.1345238931751 0.71933980857756763 0 0.69465836192734942 0.69465836192734942 0 -0.71933980857756763 forward_v I I I I #
loop $-1 $-1 $384 $100 #
coedge $-1 $254 $254 $255 $385 reversed $158 $-1 #
coedge $-1 $255 $255 $254 $385 forward $160 $-1 #
coedge $-1 $256 $256 $161 $257 forward $251 $-1 #
edge $-1 $386 0 $386 6.2831853071796004 $256 $387 forward 7 unknown #
face $-1 $388 $389 $53 $-1 $390 forward single #
loop $-1 $-1 $264 $162 #
plane-surface $-1 56.716818750572223 0 0 -1 0 0 0 0 1 forward_v I I I I #
coedge $-1 $391 $392 $393 $394 reversed $163 $-1 #
coedge $-1 $263 $165 $395 $396 reversed $104 $-1 #
coedge $-1 $165 $262 $391 $397 reversed $104 $-1 #
coedge $-1 $393 $398 $165 $265 forward $259 $-1 #
edge $-1 $399 69.377171248541899 $400 78.928881546745771 $264 $401 forward 7 unknown #
loop $-1 $-1 $271 $166 #
plane-surface $-1 -22.080806063433535 25.252698262827533 84.1345238931751 0.71933980857756763 0 0.69465836192734942 0.69465836192734942 0 -0.71933980857756763 forward_v I I I I #
loop $-1 $-1 $402 $106 #
coedge $-1 $269 $269 $270 $403 reversed $167 $-1 #
coedge $-1 $270 $270 $269 $403 forward $169 $-1 #
coedge $-1 $271 $271 $170 $272 forward $266 $-1 #
edge $-1 $404 0 $404 6.2831853071796004 $271 $405 forward 7 unknown #
loop $-1 $-1 $278 $171 #
plane-surface $-1 -22.080806063433535 25.252698262827533 84.1345238931751 0.71933980857756763 0 0.69465836192734942 0.69465836192734942 0 -0.71933980857756763 forward_v I I I I #
loop $-1 $-1 $406 $109 #
coedge $-1 $276 $276 $277 $407 reversed $172 $-1 #
coedge $-1 $277 $277 $276 $407 forward $174 $-1 #
coedge $-1 $278 $278 $175 $279 forward $273 $-1 #
edge $-1 $408 0 $408 6.2831853071796004 $278 $409 forward 7 unknown #
face $-1 $410 $411 $42 $-1 $412 reversed single #
loop $-1 $-1 $413 $176 #
plane-surface $-1 -56.716818750572223 0 0 1 0 0 0 0 -1 forward_v I I I I #
coedge $-1 $414 $291 $415 $416 forward $177 $-1 #
coedge $-1 $417 $179 $414 $418 forward $113 $-1 #
coedge $-1 $179 $417 $419 $420 forward $113 $-1 #
coedge $-1 $294 $293 $179 $287 reversed $295 $-1 #
edge $-1 $421 -29.31681577630518 $422 29.31681577630518 $286 $423 forward 7 unknown #
coedge $-1 $181 $180 $424 $425 forward $71 $-1 #
coedge $-1 $426 $427 $180 $290 reversed $411 $-1 #
edge $-1 $297 -56.716818750572223 $428 56.716818750572223 $289 $429 forward 7 unknown #
coedge $-1 $283 $430 $181 $292 reversed $177 $-1 #
edge $-1 $431 -56.716818750572223 $296 56.716818750572223 $291 $432 forward 7 unknown #
coedge $-1 $286 $182 $430 $433 forward $295 $-1 #
coedge $-1 $182 $286 $426 $434 reversed $295 $-1 #
loop $-1 $-1 $293 $410 #
vertex $-1 $183 $435 #
vertex $-1 $183 $436 #
straight-curve $-1 56.716818750572223 0 12.088903105048525 0 1 0 I I #
face $-1 $437 $438 $43 $-1 $439 reversed single #
loop $-1 $-1 $440 $184 #
plane-surface $-1 -56.716818750572223 0 0 1 0 0 0 0 -1 forward_v I I I I #
coedge $-1 $441 $308 $313 $442 reversed $185 $-1 #
coedge $-1 $443 $187 $444 $445 reversed $117 $-1 #
coedge $-1 $187 $443 $441 $446 forward $117 $-1 #
coedge $-1 $313 $312 $187 $306 forward $314 $-1 #
edge $-1 $447 -17.115904394634217 $448 -7.2859183687077085 $305 $449 forward 7 unknown #
coedge $-1 $189 $188 $440 $450 reversed $74 $-1 #
coedge $-1 $302 $451 $188 $309 reversed $185 $-1 #
edge $-1 $315 -56.716818750572223 $452 56.716818750572223 $308 $453 forward 7 unknown #
coedge $-1 $454 $455 $189 $311 forward $438 $-1 #
edge $-1 $316 -56.716818750572223 $456 56.716818750572223 $310 $457 forward 7 unknown #
coedge $-1 $305 $190 $455 $458 forward $314 $-1 #
coedge $-1 $190 $305 $302 $442 forward $314 $-1 #
loop $-1 $-1 $190 $437 #
vertex $-1 $191 $459 #
vertex $-1 $458 $460 #
straight-curve $-1 56.716818750572223 -12.200911381670963 7.2244911222589874 0 -1 0 I I #
face $-1 $-1 $330 $44 $-1 $461 reversed single #
loop $-1 $-1 $462 $192 #
plane-surface $-1 0 0 12.088903105048525 0 0 1 1 0 0 forward_v I I I I #
coedge $-1 $463 $464 $465 $466 reversed $193 $-1 #
coedge $-1 $467 $195 $197 $328 forward $121 $-1 #
coedge $-1 $195 $467 $463 $468 forward $121 $-1 #
coedge $-1 $465 $198 $195 $325 forward $330 $-1 #
edge $-1 $332 -9.7391354545703308 $469 -1.6109004276150278 $324 $470 forward 7 unknown #
coedge $-1 $471 $472 $196 $327 forward $319 $-1 #
edge $-1 $473 17.734577042872434 $331 26.958556239123769 $326 $474 forward 7 unknown #
edge $-1 $332 -113.43363750114446 $473 -100.15519776472618 $197 $475 forward 7 unknown #
coedge $-1 $198 $465 $471 $476 reversed $330 $-1 #
loop $-1 $-1 $465 $318 #
vertex $-1 $476 $477 #
vertex $-1 $199 $478 #
straight-curve $-1 56.716818750572223 -15.414153395663011 81.466074353590429 0 0 -1 I I #
coedge $-1 $334 $334 $-1 $479 reversed $202 $-1 #
edge $-1 $480 0 $480 6.2831853071796004 $203 $481 forward 7 unknown #
vertex $-1 $206 $482 #
ellipse-curve $-1 52.104829152446548 -13.091800530818642 7.3130479559465869 0.71933980857756763 0 0.69465836192734942 0.69465836192734942 0 -0.71933980857756763 1 I I #
coedge $-1 $338 $338 $-1 $483 reversed $209 $-1 #
edge $-1 $484 0 $484 6.2831853071796004 $210 $485 forward 7 unknown #
vertex $-1 $213 $486 #
ellipse-curve $-1 52.104829152446548 -9.6082712335520846 7.3130479559465869 0.71933980857756763 0 0.69465836192734942 0.69465836192734942 0 -0.71933980857756763 1 I I #
face $-1 $-1 $487 $47 $-1 $488 forward single #
loop $-1 $-1 $220 $214 #
plane-surface $-1 56.716818750572223 0 0 -1 0 0 0 0 1 forward_v I I I I #
coedge $-1 $489 $490 $491 $492 reversed $215 $-1 #
coedge $-1 $493 $217 $219 $352 forward $135 $-1 #
coedge $-1 $217 $493 $489 $494 forward $135 $-1 #
coedge $-1 $491 $220 $217 $349 forward $343 $-1 #
edge $-1 $355 -3.6386797637348502 $495 4.4895552632204536 $348 $496 forward 7 unknown #
coedge $-1 $497 $498 $218 $351 forward $487 $-1 #
edge $-1 $499 17.734577042872434 $354 26.958556239123769 $350 $500 forward 7 unknown #
edge $-1 $355 -113.43363750114446 $499 -100.15519776472618 $219 $501 forward 7 unknown #
coedge $-1 $220 $491 $497 $502 reversed $343 $-1 #
vertex $-1 $502 $503 #
vertex $-1 $221 $504 #
straight-curve $-1 56.716818750572223 -3.2132420139920486 81.466074353590429 0 0 -1 I I #
coedge $-1 $357 $357 $-1 $505 reversed $224 $-1 #
edge $-1 $506 0 $506 6.2831853071796004 $225 $507 forward 7 unknown #
vertex $-1 $228 $508 #
ellipse-curve $-1 52.104829152446548 -0.89088914914767869 7.3130479559465869 0.71933980857756763 0 0.69465836192734942 0.69465836192734942 0 -0.71933980857756763 1 I I #
coedge $-1 $361 $361 $-1 $509 reversed $231 $-1 #
edge $-1 $510 0 $510 6.2831853071796004 $232 $511 forward 7 unknown #
vertex $-1 $235 $512 #
ellipse-curve $-1 52.104829152446548 2.5926401481188783 7.3130479559465869 0.71933980857756763 0 0.69465836192734942 0.69465836192734942 0 -0.71933980857756763 1 I I #
face $-1 $-1 $513 $50 $-1 $514 forward single #
loop $-1 $-1 $242 $236 #
plane-surface $-1 56.716818750572223 0 0 -1 0 0 0 0 1 forward_v I I I I #
coedge $-1 $515 $516 $517 $518 reversed $237 $-1 #
coedge $-1 $519 $239 $241 $375 forward $149 $-1 #
coedge $-1 $239 $519 $515 $520 forward $149 $-1 #
coedge $-1 $517 $242 $239 $372 forward $366 $-1 #
edge $-1 $378 2.4617759271006339 $521 10.590010954055936 $371 $522 forward 7 unknown #
coedge $-1 $523 $524 $240 $374 forward $513 $-1 #
edge $-1 $525 17.734577042872434 $377 26.958556239123769 $373 $526 forward 7 unknown #
edge $-1 $378 -113.43363750114446 $525 -100.15519776472618 $241 $527 forward 7 unknown #
coedge $-1 $242 $517 $523 $528 reversed $366 $-1 #
vertex $-1 $528 $529 #
vertex $-1 $243 $530 #
straight-curve $-1 56.716818750572223 8.9876693676789188 81.466074353590429 0 0 -1 I I #
coedge $-1 $380 $380 $-1 $531 reversed $246 $-1 #
edge $-1 $532 0 $532 6.2831853071796004 $247 $533 forward 7 unknown #
vertex $-1 $250 $534 #
ellipse-curve $-1 52.104829152446548 11.310022232523284 7.3130479559465869 0.71933980857756763 0 0.69465836192734942 0.69465836192734942 0 -0.71933980857756763 1 I I #
coedge $-1 $384 $384 $-1 $535 reversed $253 $-1 #
edge $-1 $536 0 $536 6.2831853071796004 $254 $537 forward 7 unknown #
vertex $-1 $257 $538 #
ellipse-curve $-1 52.104829152446548 14.793551529789841 7.3130479559465869 0.71933980857756763 0 0.69465836192734942 0.69465836192734942 0 -0.71933980857756763 1 I I #
face $-1 $-1 $539 $53 $-1 $540 reversed single #
loop $-1 $-1 $395 $258 #
plane-surface $-1 0 0 12.088903105048525 0 0 1 1 0 0 forward_v I I I I #
coedge $-1 $541 $261 $263 $397 forward $163 $-1 #
coedge $-1 $261 $541 $542 $543 reversed $163 $-1 #
coedge $-1 $544 $264 $261 $394 forward $259 $-1 #
edge $-1 $400 8.5622316179361153 $545 16.690466644891416 $393 $546 forward 7 unknown #
coedge $-1 $547 $548 $262 $396 forward $389 $-1 #
edge $-1 $549 17.734577042872434 $399 26.958556239123769 $395 $550 forward 7 unknown #
edge $-1 $400 -113.43363750114446 $549 -100.15519776472618 $263 $551 forward 7 unknown #
coedge $-1 $264 $544 $547 $552 reversed $259 $-1 #
vertex $-1 $552 $553 #
vertex $-1 $265 $554 #
straight-curve $-1 56.716818750572223 21.188580749349882 81.466074353590429 0 0 -1 I I #
coedge $-1 $402 $402 $-1 $555 reversed $268 $-1 #
edge $-1 $556 0 $556 6.2831853071796004 $269 $557 forward 7 unknown #
vertex $-1 $272 $558 #
ellipse-curve $-1 52.104829152446548 23.510933614194247 7.3130479559465869 0.71933980857756763 0 0.69465836192734942 0.69465836192734942 0 -0.71933980857756763 1 I I #
coedge $-1 $406 $406 $-1 $559 reversed $275 $-1 #
edge $-1 $560 0 $560 6.2831853071796004 $276 $561 forward 7 unknown #
vertex $-1 $279 $562 #
ellipse-curve $-1 52.104829152446548 26.994462911460804 7.3130479559465869 0.71933980857756763 0 0.69465836192734942 0.69465836192734942 0 -0.71933980857756763 1 I I #
face $-1 $-1 $295 $42 $-1 $563 reversed single #
loop $-1 $-1 $426 $280 #
plane-surface $-1 0 29.31681577630518 0 0 -1 0 0 0 -1 forward_v I I I I #
coedge $-1 $564 $424 $427 $565 forward $281 $-1 #
coedge $-1 $430 $283 $284 $418 reversed $177 $-1 #
coedge $-1 $424 $564 $283 $416 reversed $281 $-1 #
edge $-1 $431 -12.088903105048525 $566 12.088903105048525 $415 $567 forward 7 unknown #
coedge $-1 $285 $284 $564 $568 forward $113 $-1 #
edge $-1 $422 -56.716818750572223 $566 56.716818750572223 $414 $569 forward 7 unknown #
coedge $-1 $427 $426 $285 $420 reversed $411 $-1 #
edge $-1 $570 -56.716818750572223 $421 56.716818750572223 $419 $571 forward 7 unknown #
vertex $-1 $287 $572 #
vertex $-1 $433 $573 #
straight-curve $-1 56.716818750572223 0 -12.088903105048525 0 -1 0 I I #
coedge $-1 $413 $415 $288 $425 reversed $281 $-1 #
edge $-1 $428 -29.31681577630518 $431 29.31681577630518 $424 $574 forward 7 unknown #
coedge $-1 $419 $289 $294 $434 forward $411 $-1 #
coedge $-1 $289 $419 $413 $565 reversed $411 $-1 #
vertex $-1 $290 $575 #
straight-curve $-1 0 29.31681577630518 12.088903105048525 -1 0 0 I I #
coedge $-1 $291 $414 $293 $433 reversed $177 $-1 #
vertex $-1 $425 $576 #
straight-curve $-1 0 -29.31681577630518 12.088903105048525 1 0 0 I I #
edge $-1 $296 -12.088903105048525 $422 12.088903105048525 $293 $577 forward 7 unknown #
edge $-1 $297 -12.088903105048525 $421 12.088903105048525 $294 $578 forward 7 unknown #
point $-1 56.716818750572223 -29.31681577630518 12.088903105048525 #
point $-1 56.716818750572223 29.31681577630518 12.088903105048525 #
face $-1 $-1 $314 $43 $-1 $579 reversed single #
loop $-1 $-1 $310 $299 #
plane-surface $-1 0 -29.31681577630518 0 0 1 0 0 0 1 forward_v I I I I #
coedge $-1 $580 $581 $307 $450 forward $300 $-1 #
coedge $-1 $451 $302 $304 $446 reversed $185 $-1 #
edge $-1 $448 -1.3598032965920774 $315 5.2695951803700174 $313 $582 forward 7 unknown #
coedge $-1 $304 $303 $583 $584 reversed $117 $-1 #
coedge $-1 $455 $454 $303 $445 forward $438 $-1 #
edge $-1 $585 -56.716818750572223 $447 56.716818750572223 $444 $586 forward 7 unknown #
edge $-1 $587 -56.716818750572223 $448 56.716818750572223 $441 $588 forward 7 unknown #
vertex $-1 $445 $589 #
vertex $-1 $306 $590 #
straight-curve $-1 56.716818750572223 -12.200911381670963 0.59509264529689254 0 1 0 I I #
edge $-1 $456 -17.115904394634217 $452 -7.2859183687077085 $440 $591 forward 7 unknown #
coedge $-1 $308 $441 $580 $592 reversed $185 $-1 #
vertex $-1 $450 $593 #
straight-curve $-1 0 -19.486829750378671 7.2244911222589874 -1 0 0 I I #
coedge $-1 $444 $310 $581 $594 forward $438 $-1 #
coedge $-1 $310 $444 $312 $458 reversed $438 $-1 #
vertex $-1 $594 $595 #
straight-curve $-1 0 -29.31681577630518 7.2244911222589874 -1 0 0 I I #
edge $-1 $316 -7.2244911222589874 $447 -0.59509264529689254 $312 $596 forward 7 unknown #
point $-1 56.716818750572223 -19.486829750378671 7.2244911222589874 #
point $-1 56.716818750572223 -29.31681577630518 7.2244911222589874 #
plane-surface $-1 56.716818750572223 0 0 -1 0 0 0 0 1 forward_v I I I I #
coedge $-1 $472 $471 $464 $597 forward $319 $-1 #
coedge $-1 $464 $321 $323 $468 reversed $193 $-1 #
coedge $-1 $321 $463 $462 $597 reversed $193 $-1 #
coedge $-1 $329 $324 $321 $466 forward $330 $-1 #
edge $-1 $469 -78.928881546745771 $598 -69.377171248541899 $465 $599 forward 7 unknown #
coedge $-1 $323 $322 $472 $600 reversed $121 $-1 #
edge $-1 $601 100.15519776472618 $469 113.43363750114446 $463 $602 forward 7 unknown #
vertex $-1 $325 $603 #
straight-curve $-1 56.716818750572216 -5.6750179410926798 2.5371928068446508 0 1 0 I I #
coedge $-1 $462 $326 $329 $476 forward $319 $-1 #
coedge $-1 $326 $462 $467 $600 forward $319 $-1 #
vertex $-1 $327 $604 #
straight-curve $-1 29.758262511448454 -15.414153395663011 12.08890310504853 1 0 0 I I #
straight-curve $-1 -22.080806063433535 -15.414153395663011 84.1345238931751 -0.69465836192734942 0 0.71933980857756763 I I #
edge $-1 $331 -15.414153395663011 $598 -7.2859183687077076 $329 $605 forward 7 unknown #
point $-1 56.716818750572223 -15.414153395663011 12.088903105048525 #
point $-1 56.716818750572223 -15.414153395663011 2.5371928068446579 #
edge $-1 $606 1 $606 0 $334 $-1 forward 7 unknown #
vertex $-1 $335 $607 #
ellipse-curve $-1 49.245251992935565 -13.091800530818642 4.5515864578560574 0.71933980857756763 0 0.69465836192734942 0.69465836192734942 0 -0.71933980857756763 1 I I #
point $-1 52.799487514373908 -13.091800530818642 6.5937081473690284 #
edge $-1 $608 1 $608 0 $338 $-1 forward 7 unknown #
vertex $-1 $339 $609 #
ellipse-curve $-1 49.245251992935565 -9.6082712335520846 4.5515864578560574 0.71933980857756763 0 0.69465836192734942 0.69465836192734942 0 -0.71933980857756763 1 I I #
point $-1 52.799487514373908 -9.6082712335520846 6.5937081473690284 #
loop $-1 $-1 $350 $342 #
plane-surface $-1 0 0 12.088903105048525 0 0 1 1 0 0 forward_v I I I I #
coedge $-1 $490 $345 $347 $494 reversed $215 $-1 #
coedge $-1 $345 $489 $610 $611 reversed $215 $-1 #
coedge $-1 $353 $348 $345 $492 forward $343 $-1 #
edge $-1 $495 -78.928881546745771 $612 -69.377171248541899 $491 $613 forward 7 unknown #
coedge $-1 $347 $346 $498 $614 reversed $135 $-1 #
edge $-1 $615 100.15519776472618 $495 113.43363750114446 $489 $616 forward 7 unknown #
vertex $-1 $349 $617 #
straight-curve $-1 56.716818750572216 0.42543774974280169 2.5371928068446508 0 1 0 I I #
coedge $-1 $610 $350 $353 $502 forward $487 $-1 #
coedge $-1 $350 $610 $493 $614 forward $487 $-1 #
vertex $-1 $351 $618 #
straight-curve $-1 29.758262511448454 -3.2132420139920486 12.08890310504853 1 0 0 I I #
straight-curve $-1 -22.080806063433535 -3.2132420139920486 84.1345238931751 -0.69465836192734942 0 0.71933980857756763 I I #
edge $-1 $354 -3.2132420139920486 $612 4.9149930129632553 $353 $619 forward 7 unknown #
point $-1 56.716818750572223 -3.2132420139920486 12.088903105048525 #
point $-1 56.716818750572223 -3.2132420139920486 2.5371928068446579 #
edge $-1 $620 1 $620 0 $357 $-1 forward 7 unknown #
vertex $-1 $358 $621 #
ellipse-curve $-1 49.245251992935565 -0.89088914914767869 4.5515864578560574 0.71933980857756763 0 0.69465836192734942 0.69465836192734942 0 -0.71933980857756763 1 I I #
point $-1 52.799487514373908 -0.89088914914767869 6.5937081473690284 #
edge $-1 $622 1 $622 0 $361 $-1 forward 7 unknown #
vertex $-1 $362 $623 #
ellipse-curve $-1 49.245251992935565 2.5926401481188783 4.5515864578560574 0.71933980857756763 0 0.69465836192734942 0.69465836192734942 0 -0.71933980857756763 1 I I #
point $-1 52.799487514373908 2.5926401481188783 6.5937081473690284 #
loop $-1 $-1 $373 $365 #
plane-surface $-1 0 0 12.088903105048525 0 0 1 1 0 0 forward_v I I I I #
coedge $-1 $516 $368 $370 $520 reversed $237 $-1 #
coedge $-1 $368 $515 $624 $625 reversed $237 $-1 #
coedge $-1 $376 $371 $368 $518 forward $366 $-1 #
edge $-1 $521 -78.928881546745771 $626 -69.377171248541899 $517 $627 forward 7 unknown #
coedge $-1 $370 $369 $524 $628 reversed $149 $-1 #
edge $-1 $629 100.15519776472618 $521 113.43363750114446 $515 $630 forward 7 unknown #
vertex $-1 $372 $631 #
straight-curve $-1 56.716818750572216 6.5258934405782849 2.5371928068446508 0 1 0 I I #
coedge $-1 $624 $373 $376 $528 forward $513 $-1 #
coedge $-1 $373 $624 $519 $628 forward $513 $-1 #
vertex $-1 $374 $632 #
straight-curve $-1 29.758262511448454 8.9876693676789188 12.08890310504853 1 0 0 I I #
straight-curve $-1 -22.080806063433535 8.9876693676789188 84.1345238931751 -0.69465836192734942 0 0.71933980857756763 I I #
edge $-1 $377 8.9876693676789188 $626 17.115904394634221 $376 $633 forward 7 unknown #
point $-1 56.716818750572223 8.9876693676789188 12.088903105048525 #
point $-1 56.716818750572223 8.9876693676789188 2.5371928068446579 #
edge $-1 $634 1 $634 0 $380 $-1 forward 7 unknown #
vertex $-1 $381 $635 #
ellipse-curve $-1 49.245251992935565 11.310022232523284 4.5515864578560574 0.71933980857756763 0 0.69465836192734942 0.69465836192734942 0 -0.71933980857756763 1 I I #
point $-1 52.799487514373908 11.310022232523284 6.5937081473690284 #
edge $-1 $636 1 $636 0 $384 $-1 forward 7 unknown #
vertex $-1 $385 $637 #
ellipse-curve $-1 49.245251992935565 14.793551529789841 4.5515864578560574 0.71933980857756763 0 0.69465836192734942 0.69465836192734942 0 -0.71933980857756763 1 I I #
point $-1 52.799487514373908 14.793551529789841 6.5937081473690284 #
loop $-1 $-1 $542 $388 #
plane-surface $-1 0 29.31681577630518 0 0 -1 0 0 0 -1 forward_v I I I I #
coedge $-1 $392 $391 $548 $638 reversed $163 $-1 #
coedge $-1 $639 $640 $392 $543 forward $539 $-1 #
edge $-1 $545 -75.503673060073652 $641 -62.225233323655402 $542 $642 forward 7 unknown #
coedge $-1 $398 $393 $640 $643 reversed $259 $-1 #
vertex $-1 $543 $644 #
straight-curve $-1 56.716818750572216 12.626349131413766 2.5371928068446508 0 1 0 I I #
coedge $-1 $645 $395 $398 $552 forward $389 $-1 #
coedge $-1 $395 $645 $541 $638 forward $389 $-1 #
vertex $-1 $396 $646 #
straight-curve $-1 29.758262511448454 21.188580749349882 12.08890310504853 1 0 0 I I #
straight-curve $-1 -22.080806063433535 21.188580749349882 84.1345238931751 -0.69465836192734942 0 0.71933980857756763 I I #
edge $-1 $399 21.188580749349882 $647 29.31681577630518 $398 $648 forward 7 unknown #
point $-1 56.716818750572223 21.188580749349882 12.088903105048525 #
point $-1 56.716818750572223 21.188580749349882 2.5371928068446579 #
edge $-1 $649 1 $649 0 $402 $-1 forward 7 unknown #
vertex $-1 $403 $650 #
ellipse-curve $-1 49.245251992935565 23.510933614194247 4.5515864578560574 0.71933980857756763 0 0.69465836192734942 0.69465836192734942 0 -0.71933980857756763 1 I I #
point $-1 52.799487514373908 23.510933614194247 6.5937081473690284 #
edge $-1 $651 1 $651 0 $406 $-1 forward 7 unknown #
vertex $-1 $407 $652 #
ellipse-curve $-1 49.245251992935565 26.994462911460804 4.5515864578560574 0.71933980857756763 0 0.69465836192734942 0.69465836192734942 0 -0.71933980857756763 1 I I #
point $-1 52.799487514373908 26.994462911460804 6.5937081473690284 #
plane-surface $-1 56.716818750572223 0 0 -1 0 0 0 0 1 forward_v I I I I #
coedge $-1 $415 $413 $417 $568 reversed $281 $-1 #
edge $-1 $428 -12.088903105048525 $570 12.088903105048525 $427 $653 forward 7 unknown #
vertex $-1 $568 $654 #
straight-curve $-1 -56.716818750572223 -29.31681577630518 0 0 0 -1 I I #
edge $-1 $566 -29.31681577630518 $570 29.31681577630518 $564 $655 forward 7 unknown #
straight-curve $-1 0 -29.31681577630518 -12.088903105048525 -1 0 0 I I #
vertex $-1 $420 $656 #
straight-curve $-1 0 29.31681577630518 -12.088903105048525 1 0 0 I I #
point $-1 56.716818750572223 29.31681577630518 -12.088903105048525 #
point $-1 56.716818750572223 -29.31681577630518 -12.088903105048525 #
straight-curve $-1 -56.716818750572223 0 12.088903105048525 0 -1 0 I I #
point $-1 -56.716818750572223 29.31681577630518 12.088903105048525 #
point $-1 -56.716818750572223 -29.31681577630518 12.088903105048525 #
straight-curve $-1 56.716818750572223 -29.31681577630518 0 0 0 -1 I I #
straight-curve $-1 56.716818750572223 29.31681577630518 0 0 0 -1 I I #
plane-surface $-1 56.716818750572223 0 0 -1 0 0 0 0 1 forward_v I I I I #
coedge $-1 $583 $440 $451 $592 forward $300 $-1 #
coedge $-1 $440 $583 $454 $594 reversed $300 $-1 #
straight-curve $-1 56.716818750572223 -19.486829750378671 1.95489594188897 0 0 1 I I #
coedge $-1 $581 $580 $443 $584 forward $300 $-1 #
edge $-1 $587 7.2859183687077085 $585 17.115904394634217 $583 $657 forward 7 unknown #
vertex $-1 $445 $658 #
straight-curve $-1 0 -29.31681577630518 0.59509264529689254 1 0 0 I I #
vertex $-1 $584 $659 #
straight-curve $-1 0 -19.486829750378671 0.59509264529689254 1 0 0 I I #
point $-1 56.716818750572223 -29.31681577630518 0.59509264529689254 #
point $-1 56.716818750572223 -19.486829750378671 0.59509264529689254 #
straight-curve $-1 -56.716818750572223 -12.200911381670963 7.2244911222589874 0 1 0 I I #
edge $-1 $452 -5.2695951803700174 $587 1.3598032965920774 $580 $660 forward 7 unknown #
point $-1 -56.716818750572223 -19.486829750378671 7.2244911222589874 #
edge $-1 $456 -7.2244911222589874 $585 -0.59509264529689254 $581 $661 forward 7 unknown #
point $-1 -56.716818750572223 -29.31681577630518 7.2244911222589874 #
straight-curve $-1 56.716818750572223 -29.31681577630518 0 0 0 -1 I I #
edge $-1 $598 -26.958556239123769 $601 -17.734577042872434 $462 $662 forward 7 unknown #
vertex $-1 $597 $663 #
straight-curve $-1 56.716818750572223 -7.2859183687077076 81.466074353590429 0 0 1 I I #
edge $-1 $601 1.6109004276150278 $473 9.7391354545703308 $472 $664 forward 7 unknown #
vertex $-1 $600 $665 #
straight-curve $-1 -22.080806063433535 -7.2859183687077076 84.1345238931751 0.69465836192734942 0 -0.71933980857756763 I I #
point $-1 56.716818750572223 -7.2859183687077076 2.5371928068446579 #
point $-1 47.492839554320888 -15.414153395663011 12.08890310504853 #
straight-curve $-1 56.716818750572223 0 12.088903105048525 0 1 0 I I #
vertex $-1 $479 $666 #
point $-1 49.93991035486291 -13.091800530818642 3.8322466492784901 #
vertex $-1 $483 $667 #
point $-1 49.93991035486291 -9.6082712335520846 3.8322466492784901 #
coedge $-1 $498 $497 $490 $611 forward $487 $-1 #
edge $-1 $612 -26.958556239123769 $615 -17.734577042872434 $610 $668 forward 7 unknown #
vertex $-1 $611 $669 #
straight-curve $-1 56.716818750572223 4.9149930129632553 81.466074353590429 0 0 1 I I #
edge $-1 $615 -4.4895552632204536 $499 3.6386797637348502 $498 $670 forward 7 unknown #
vertex $-1 $614 $671 #
straight-curve $-1 -22.080806063433535 4.9149930129632553 84.1345238931751 0.69465836192734942 0 -0.71933980857756763 I I #
point $-1 56.716818750572223 4.9149930129632553 2.5371928068446579 #
point $-1 47.492839554320888 -3.2132420139920486 12.08890310504853 #
straight-curve $-1 56.716818750572223 0 12.088903105048525 0 1 0 I I #
vertex $-1 $505 $672 #
point $-1 49.93991035486291 -0.89088914914767869 3.8322466492784901 #
vertex $-1 $509 $673 #
point $-1 49.93991035486291 2.5926401481188783 3.8322466492784901 #
coedge $-1 $524 $523 $516 $625 forward $513 $-1 #
edge $-1 $626 -26.958556239123769 $629 -17.734577042872434 $624 $674 forward 7 unknown #
vertex $-1 $625 $675 #
straight-curve $-1 56.716818750572223 17.115904394634221 81.466074353590429 0 0 1 I I #
edge $-1 $629 -10.590010954055936 $525 -2.4617759271006339 $524 $676 forward 7 unknown #
vertex $-1 $628 $677 #
straight-curve $-1 -22.080806063433535 17.115904394634221 84.1345238931751 0.69465836192734942 0 -0.71933980857756763 I I #
point $-1 56.716818750572223 17.115904394634221 2.5371928068446579 #
point $-1 47.492839554320888 8.9876693676789188 12.08890310504853 #
straight-curve $-1 56.716818750572223 0 12.088903105048525 0 1 0 I I #
vertex $-1 $531 $678 #
point $-1 49.93991035486291 11.310022232523284 3.8322466492784901 #
vertex $-1 $535 $679 #
point $-1 49.93991035486291 14.793551529789841 3.8322466492784901 #
edge $-1 $641 -16.690466644891416 $549 -8.5622316179361153 $548 $680 forward 7 unknown #
coedge $-1 $640 $542 $645 $681 reversed $539 $-1 #
coedge $-1 $542 $639 $544 $643 forward $539 $-1 #
vertex $-1 $543 $682 #
straight-curve $-1 4.2675609031633144 29.31681577630518 56.849990532781291 -0.69465836192734942 0 0.71933980857756763 I I #
edge $-1 $647 -12.088903105048525 $545 -2.5371928068446579 $544 $683 forward 7 unknown #
point $-1 56.716818750572223 29.316815776305184 2.5371928068446579 #
coedge $-1 $548 $547 $639 $681 forward $389 $-1 #
point $-1 47.492839554320888 21.188580749349882 12.08890310504853 #
vertex $-1 $552 $684 #
straight-curve $-1 56.716818750572223 0 12.088903105048525 0 1 0 I I #
vertex $-1 $555 $685 #
point $-1 49.93991035486291 23.510933614194247 3.8322466492784901 #
vertex $-1 $559 $686 #
point $-1 49.93991035486291 26.994462911460804 3.8322466492784901 #
straight-curve $-1 -56.716818750572223 29.31681577630518 0 0 0 -1 I I #
point $-1 -56.716818750572223 -29.31681577630518 -12.088903105048525 #
straight-curve $-1 -56.716818750572223 0 -12.088903105048525 0 1 0 I I #
point $-1 -56.716818750572223 29.31681577630518 -12.088903105048525 #
straight-curve $-1 -56.716818750572223 -12.200911381670963 0.59509264529689254 0 -1 0 I I #
point $-1 -56.716818750572223 -29.31681577630518 0.59509264529689254 #
point $-1 -56.716818750572223 -19.486829750378671 0.59509264529689254 #
straight-curve $-1 -56.716818750572223 -19.486829750378671 1.95489594188897 0 0 -1 I I #
straight-curve $-1 -56.716818750572223 -29.31681577630518 0 0 0 -1 I I #
straight-curve $-1 29.758262511448454 -7.2859183687077076 12.08890310504853 -1 0 0 I I #
point $-1 56.716818750572223 -7.2859183687077076 12.088903105048525 #
straight-curve $-1 47.492839554320902 -5.6750179410926798 12.088903105048523 0 -1 0 I I #
point $-1 47.492839554320888 -7.2859183687077076 12.08890310504853 #
point $-1 48.525912184357992 -13.091800530818642 3.8569280959287084 #
point $-1 48.525912184357992 -9.6082712335520846 3.8569280959287084 #
straight-curve $-1 29.758262511448454 4.9149930129632553 12.08890310504853 -1 0 0 I I #
point $-1 56.716818750572223 4.9149930129632553 12.088903105048525 #
straight-curve $-1 47.492839554320902 0.42543774974280169 12.088903105048523 0 -1 0 I I #
point $-1 47.492839554320888 4.9149930129632553 12.08890310504853 #
point $-1 48.525912184357992 -0.89088914914767869 3.8569280959287084 #
point $-1 48.525912184357992 2.5926401481188783 3.8569280959287084 #
straight-curve $-1 29.758262511448454 17.115904394634221 12.08890310504853 -1 0 0 I I #
point $-1 56.716818750572223 17.115904394634221 12.088903105048525 #
straight-curve $-1 47.492839554320902 6.5258934405782849 12.088903105048523 0 -1 0 I I #
point $-1 47.492839554320888 17.115904394634221 12.08890310504853 #
point $-1 48.525912184357992 11.310022232523284 3.8569280959287084 #
point $-1 48.525912184357992 14.793551529789841 3.8569280959287084 #
straight-curve $-1 47.492839554320902 12.626349131413766 12.088903105048523 0 -1 0 I I #
edge $-1 $647 -56.716818750572223 $641 -47.492839554320888 $639 $687 forward 7 unknown #
point $-1 47.492839554320888 29.316815776305184 12.08890310504853 #
straight-curve $-1 56.716818750572223 29.31681577630518 0 0 0 -1 I I #
point $-1 56.716818750572223 29.31681577630518 12.088903105048525 #
point $-1 48.525912184357992 23.510933614194247 3.8569280959287084 #
point $-1 48.525912184357992 26.994462911460804 3.8569280959287084 #
straight-curve $-1 0 29.31681577630518 12.088903105048525 -1 0 0 I I #
End-of-ACIS-data 