500 0 8 0           
7 Unknown 11 ACIS 5.0 NT 24 Fri Mar 26 00:57:04 1999 
-1 9.9999999999999995e-007 1e-010 
body $-1 $8 $-1 $9 #
body $-1 $10 $-1 $11 #
body $-1 $12 $-1 $13 #
body $-1 $14 $-1 $15 #
body $-1 $16 $-1 $17 #
body $-1 $18 $-1 $19 #
body $-1 $20 $-1 $21 #
body $-1 $22 $-1 $23 #
lump $-1 $-1 $24 $0 #
transform $-1 1 0 0 0 1 0 0 0 1 48.681905575731683 25.912376828133532 5.4441534408984547 1 rotate no_reflect no_shear #
lump $-1 $-1 $25 $1 #
transform $-1 1 0 0 0 1 0 0 0 1 48.681905575731683 25.912376828133532 5.4441534408984547 1 rotate no_reflect no_shear #
lump $-1 $-1 $26 $2 #
transform $-1 1 0 0 0 1 0 0 0 1 48.681905575731683 25.912376828133532 5.4441534408984547 1 rotate no_reflect no_shear #
lump $-1 $-1 $27 $3 #
transform $-1 1 0 0 0 1 0 0 0 1 48.681905575731683 25.912376828133532 5.4441534408984547 1 rotate no_reflect no_shear #
lump $-1 $-1 $28 $4 #
transform $-1 1 0 0 0 1 0 0 0 1 48.681905575731683 25.912376828133532 5.4441534408984547 1 rotate no_reflect no_shear #
lump $-1 $-1 $29 $5 #
transform $-1 1 0 0 0 1 0 0 0 1 48.681905575731683 25.912376828133532 5.4441534408984547 1 rotate no_reflect no_shear #
lump $-1 $-1 $30 $6 #
transform $-1 1 0 0 0 1 0 0 0 1 48.681905575731683 25.912376828133532 5.4441534408984547 1 rotate no_reflect no_shear #
lump $-1 $-1 $31 $7 #
transform $-1 1 0 0 0 1 0 0 0 1 48.681905575731683 25.912376828133532 5.4441534408984547 1 rotate no_reflect no_shear #
shell $-1 $-1 $-1 $32 $-1 $8 #
shell $-1 $-1 $-1 $33 $-1 $10 #
shell $-1 $-1 $-1 $34 $-1 $12 #
shell $-1 $-1 $-1 $35 $-1 $14 #
shell $-1 $-1 $-1 $36 $-1 $16 #
shell $-1 $-1 $-1 $37 $-1 $18 #
shell $-1 $-1 $-1 $38 $-1 $20 #
shell $-1 $-1 $-1 $39 $-1 $22 #
face $-1 $40 $41 $24 $-1 $42 forward single #
face $-1 $43 $44 $25 $-1 $45 forward single #
face $-1 $46 $47 $26 $-1 $48 reversed single #
face $-1 $49 $50 $27 $-1 $51 forward single #
face $-1 $52 $53 $28 $-1 $54 reversed single #
face $-1 $55 $56 $29 $-1 $57 forward single #
face $-1 $58 $59 $30 $-1 $60 forward single #
face $-1 $61 $62 $31 $-1 $63 forward single #
face $-1 $64 $65 $24 $-1 $66 reversed single #
loop $-1 $-1 $67 $32 #
plane-surface $-1 0 0 5.4441534408984547 0 0 1 1 0 0 forward_v I I I I #
face $-1 $68 $69 $25 $-1 $70 reversed single #
loop $-1 $-1 $71 $33 #
plane-surface $-1 -48.681905575731683 0 0 1 0 0 0 0 -1 forward_v I I I I #
face $-1 $72 $73 $26 $-1 $74 reversed single #
loop $-1 $-1 $75 $34 #
plane-surface $-1 -31.506265395946876 46.910011617421716 110.50743220007281 1 0 0 0 -0.62932039886446345 -0.77714595512881146 forward_v I I I I #
face $-1 $76 $77 $27 $-1 $78 forward single #
loop $-1 $79 $80 $35 #
cone-surface $-1 -23.440426297028878 22.786132867013244 2.4279762967726688 0 -0.62932039886446345 -0.77714595512881146 1 0 0 1 I I 0 1 1 forward I I I I #
face $-1 $81 $82 $28 $-1 $83 reversed single #
loop $-1 $-1 $84 $36 #
plane-surface $-1 -24.753981526629204 -80.357529786504102 80.743469243372232 -1 0 0 0 -0.55919291073839883 0.82903756765294845 forward_v I I I I #
face $-1 $85 $86 $29 $-1 $87 forward single #
loop $-1 $88 $89 $37 #
cone-surface $-1 -40.426587838262897 -20.920754678359799 1.2896799141786759 0 0.55919291073839883 -0.82903756765294845 1.5 0 0 1 I I 0 1 1.5 forward I I I I #
face $-1 $90 $91 $30 $-1 $92 forward single #
loop $-1 $93 $94 $38 #
cone-surface $-1 -34.549360471400263 -20.920754678359799 1.2896799141786759 0 0.55919291073839883 -0.82903756765294845 1.5 0 0 1 I I 0 1 1.5 forward I I I I #
face $-1 $95 $96 $31 $-1 $97 forward single #
loop $-1 $98 $99 $39 #
cone-surface $-1 -28.672133104537625 -20.920754678359799 1.2896799141786759 0 0.55919291073839883 -0.82903756765294845 1.5 0 0 1 I I 0 1 1.5 forward I I I I #
face $-1 $100 $101 $24 $-1 $102 reversed single #
loop $-1 $-1 $103 $40 #
plane-surface $-1 0 0 -5.4441534408984547 0 0 1 1 0 0 forward_v I I I I #
coedge $-1 $104 $105 $106 $107 forward $41 $-1 #
face $-1 $108 $109 $25 $-1 $110 forward single #
loop $-1 $-1 $111 $43 #
plane-surface $-1 0 25.912376828133532 0 0 -1 0 0 0 -1 forward_v I I I I #
coedge $-1 $112 $113 $114 $115 forward $44 $-1 #
face $-1 $116 $117 $26 $-1 $118 reversed single #
loop $-1 $-1 $119 $46 #
plane-surface $-1 -23.440426297028878 -14.363020851381506 34.841540187787587 0 0.62932039886446345 0.77714595512881146 1 0 0 forward_v I I I I #
coedge $-1 $120 $121 $122 $123 reversed $47 $-1 #
face $-1 $-1 $124 $27 $-1 $125 forward single #
loop $-1 $126 $127 $49 #
cone-surface $-1 -23.440426297028878 21.331553267770133 0.63172012264517274 0 -0.62932039886446345 -0.77714595512881146 0.5 0 0 1 I I -0.70710678118654746 0.70710678118654746 0.5 forward I I I I #
loop $-1 $-1 $128 $35 #
coedge $-1 $80 $80 $129 $130 reversed $50 $-1 #
face $-1 $131 $132 $28 $-1 $133 reversed single #
loop $-1 $-1 $134 $52 #
plane-surface $-1 -34.549360471400263 -25.912376828133524 0.025212068942025212 0 -0.55919291073839883 0.82903756765294845 1 0 0 forward_v I I I I #
coedge $-1 $135 $136 $137 $138 reversed $53 $-1 #
face $-1 $-1 $139 $29 $-1 $140 forward single #
loop $-1 $141 $142 $55 #
cone-surface $-1 -40.426587838262897 -19.526693253933679 -0.77710110230260554 0 0.55919291073839883 -0.82903756765294845 0.75 0 0 1 I I -0.70710678118654757 0.70710678118654757 0.75 forward I I I I #
loop $-1 $-1 $143 $37 #
coedge $-1 $89 $89 $144 $145 reversed $56 $-1 #
face $-1 $-1 $146 $30 $-1 $147 forward single #
loop $-1 $148 $149 $58 #
cone-surface $-1 -34.549360471400263 -19.526693253933679 -0.77710110230260554 0 0.55919291073839883 -0.82903756765294845 0.75 0 0 1 I I -0.70710678118654757 0.70710678118654757 0.75 forward I I I I #
loop $-1 $-1 $150 $38 #
coedge $-1 $94 $94 $151 $152 reversed $59 $-1 #
face $-1 $-1 $153 $31 $-1 $154 forward single #
loop $-1 $155 $156 $61 #
cone-surface $-1 -28.672133104537625 -19.526693253933679 -0.77710110230260554 0 0.55919291073839883 -0.82903756765294845 0.75 0 0 1 I I -0.70710678118654757 0.70710678118654757 0.75 forward I I I I #
loop $-1 $-1 $157 $39 #
coedge $-1 $99 $99 $158 $159 reversed $62 $-1 #
face $-1 $160 $161 $24 $-1 $162 reversed single #
loop $-1 $-1 $163 $64 #
plane-surface $-1 0 -25.912376828133532 0 0 1 0 0 0 1 forward_v I I I I #
coedge $-1 $164 $165 $166 $167 forward $65 $-1 #
coedge $-1 $168 $67 $169 $170 forward $41 $-1 #
coedge $-1 $67 $168 $171 $172 forward $41 $-1 #
coedge $-1 $173 $174 $67 $107 reversed $175 $-1 #
edge $-1 $176 -25.912376828133532 $177 25.912376828133532 $106 $178 forward 7 unknown #
face $-1 $179 $180 $25 $-1 $181 reversed single #
loop $-1 $-1 $114 $68 #
plane-surface $-1 -50.850488655511867 0 -2.4441534408984547 0 0 1 1 0 0 forward_v I I I I #
coedge $-1 $182 $183 $113 $184 forward $69 $-1 #
coedge $-1 $185 $71 $186 $187 reversed $44 $-1 #
coedge $-1 $71 $185 $111 $184 reversed $44 $-1 #
coedge $-1 $188 $189 $71 $115 reversed $109 $-1 #
edge $-1 $190 -25.912376828133532 $191 25.912376828133532 $114 $192 forward 7 unknown #
face $-1 $193 $194 $26 $-1 $195 forward single #
loop $-1 $-1 $196 $72 #
plane-surface $-1 -15.374587198110881 46.910011617421716 110.50743220007281 -1 0 0 0 0.62932039886446345 0.77714595512881146 forward_v I I I I #
coedge $-1 $197 $198 $199 $200 reversed $73 $-1 #
coedge $-1 $121 $75 $201 $202 reversed $47 $-1 #
coedge $-1 $75 $120 $197 $203 reversed $47 $-1 #
coedge $-1 $199 $204 $75 $123 forward $194 $-1 #
edge $-1 $205 -2.4573710194226734 $206 1.5152781031962022 $122 $207 forward 7 unknown #
loop $-1 $-1 $129 $76 #
plane-surface $-1 -23.440426297028878 -14.363020851381506 34.841540187787587 0 0.62932039886446345 0.77714595512881146 1 0 0 forward_v I I I I #
loop $-1 $-1 $208 $49 #
coedge $-1 $127 $127 $128 $209 reversed $77 $-1 #
coedge $-1 $128 $128 $127 $209 forward $79 $-1 #
coedge $-1 $129 $129 $80 $130 forward $124 $-1 #
edge $-1 $210 -1.0072578036819835e-015 $210 6.2831853071795996 $129 $211 forward 7 unknown #
face $-1 $212 $213 $28 $-1 $214 reversed single #
loop $-1 $-1 $215 $81 #
plane-surface $-1 -44.344739416171322 -80.357529786504102 80.743469243372232 1 0 0 0 0.55919291073839883 -0.82903756765294845 forward_v I I I I #
coedge $-1 $216 $217 $218 $219 reversed $82 $-1 #
coedge $-1 $136 $84 $220 $221 reversed $53 $-1 #
coedge $-1 $84 $135 $216 $222 reversed $53 $-1 #
coedge $-1 $218 $223 $84 $138 forward $224 $-1 #
edge $-1 $225 14.26638806511852 $226 22.300298881921371 $137 $227 forward 7 unknown #
loop $-1 $-1 $144 $85 #
plane-surface $-1 -34.549360471400263 -25.912376828133524 0.025212068942025212 0 -0.55919291073839883 0.82903756765294845 1 0 0 forward_v I I I I #
loop $-1 $-1 $228 $55 #
coedge $-1 $142 $142 $143 $229 reversed $86 $-1 #
coedge $-1 $143 $143 $142 $229 forward $88 $-1 #
coedge $-1 $144 $144 $89 $145 forward $139 $-1 #
edge $-1 $230 3.7730251419508309e-016 $230 6.2831853071796004 $144 $231 forward 7 unknown #
loop $-1 $-1 $151 $90 #
plane-surface $-1 -34.549360471400263 -25.912376828133524 0.025212068942025212 0 -0.55919291073839883 0.82903756765294845 1 0 0 forward_v I I I I #
loop $-1 $-1 $232 $58 #
coedge $-1 $149 $149 $150 $233 reversed $91 $-1 #
coedge $-1 $150 $150 $149 $233 forward $93 $-1 #
coedge $-1 $151 $151 $94 $152 forward $146 $-1 #
edge $-1 $234 3.7730251419508309e-016 $234 6.2831853071796004 $151 $235 forward 7 unknown #
loop $-1 $-1 $158 $95 #
plane-surface $-1 -34.549360471400263 -25.912376828133524 0.025212068942025212 0 -0.55919291073839883 0.82903756765294845 1 0 0 forward_v I I I I #
loop $-1 $-1 $236 $61 #
coedge $-1 $156 $156 $157 $237 reversed $96 $-1 #
coedge $-1 $157 $157 $156 $237 forward $98 $-1 #
coedge $-1 $158 $158 $99 $159 forward $153 $-1 #
edge $-1 $238 3.7730251419508309e-016 $238 6.2831853071796004 $158 $239 forward 7 unknown #
face $-1 $240 $241 $24 $-1 $242 reversed single #
loop $-1 $-1 $243 $100 #
plane-surface $-1 -48.681905575731683 0 0 1 0 0 0 0 -1 forward_v I I I I #
coedge $-1 $244 $171 $243 $245 forward $101 $-1 #
coedge $-1 $246 $103 $244 $247 forward $65 $-1 #
coedge $-1 $103 $246 $248 $249 forward $65 $-1 #
coedge $-1 $174 $173 $103 $167 reversed $175 $-1 #
edge $-1 $250 -25.912376828133532 $251 25.912376828133532 $166 $252 forward 7 unknown #
coedge $-1 $105 $104 $253 $254 forward $41 $-1 #
coedge $-1 $255 $256 $104 $170 reversed $241 $-1 #
edge $-1 $177 -48.681905575731683 $257 48.681905575731683 $169 $258 forward 7 unknown #
coedge $-1 $163 $259 $105 $172 reversed $101 $-1 #
edge $-1 $260 -48.681905575731683 $176 48.681905575731683 $171 $261 forward 7 unknown #
coedge $-1 $166 $106 $259 $262 forward $175 $-1 #
coedge $-1 $106 $166 $255 $263 reversed $175 $-1 #
loop $-1 $-1 $173 $240 #
vertex $-1 $107 $264 #
vertex $-1 $107 $265 #
straight-curve $-1 48.681905575731683 0 5.4441534408984547 0 1 0 I I #
face $-1 $266 $267 $25 $-1 $268 reversed single #
loop $-1 $-1 $269 $108 #
plane-surface $-1 -53.019071735292044 0 -3.9441534408984547 1 0 0 0 0 -1 forward_v I I I I #
coedge $-1 $270 $111 $271 $272 reversed $69 $-1 #
coedge $-1 $111 $270 $188 $273 reversed $69 $-1 #
edge $-1 $190 2.4441534408984547 $274 5.4441534408984547 $111 $275 forward 7 unknown #
coedge $-1 $113 $112 $276 $277 reversed $44 $-1 #
coedge $-1 $278 $279 $112 $187 forward $280 $-1 #
edge $-1 $281 -5.4441534408984547 $191 -2.4441534408984547 $186 $282 forward 7 unknown #
coedge $-1 $283 $114 $183 $273 forward $109 $-1 #
coedge $-1 $114 $283 $278 $284 forward $109 $-1 #
vertex $-1 $184 $285 #
vertex $-1 $284 $286 #
straight-curve $-1 -48.681905575731683 0 -2.4441534408984547 0 -1 0 I I #
face $-1 $-1 $287 $26 $-1 $288 reversed single #
loop $-1 $-1 $122 $116 #
plane-surface $-1 0 0 5.4441534408984547 0 0 1 1 0 0 forward_v I I I I #
coedge $-1 $289 $290 $291 $292 reversed $117 $-1 #
coedge $-1 $293 $119 $121 $203 forward $73 $-1 #
coedge $-1 $119 $293 $289 $294 forward $73 $-1 #
coedge $-1 $291 $122 $119 $200 forward $194 $-1 #
edge $-1 $206 -19.786052247432437 $295 -3.6543740495964414 $199 $296 forward 7 unknown #
coedge $-1 $297 $298 $120 $202 forward $287 $-1 #
edge $-1 $299 -53.026550554263373 $205 -49.809562659137953 $201 $300 forward 7 unknown #
edge $-1 $206 46.712909354175309 $299 51.82475365626707 $121 $301 forward 7 unknown #
coedge $-1 $122 $291 $297 $302 forward $194 $-1 #
vertex $-1 $202 $303 #
vertex $-1 $123 $304 #
straight-curve $-1 -31.506265395946876 23.455005808710858 5.4441534408984538 0 -1 0 I I #
coedge $-1 $208 $208 $-1 $305 reversed $126 $-1 #
edge $-1 $306 0 $306 6.2831853071796004 $127 $307 forward 7 unknown #
vertex $-1 $130 $308 #
ellipse-curve $-1 -23.440426297028878 23.926052266824104 3.8356594933357355 0 0.62932039886446345 0.77714595512881146 1 0 0 1 I I #
face $-1 $-1 $224 $28 $-1 $309 forward single #
loop $-1 $-1 $310 $131 #
plane-surface $-1 0 -25.912376828133532 0 0 1 0 0 0 1 forward_v I I I I #
coedge $-1 $311 $312 $313 $314 reversed $132 $-1 #
coedge $-1 $315 $134 $136 $222 forward $82 $-1 #
coedge $-1 $134 $315 $311 $316 forward $82 $-1 #
coedge $-1 $313 $137 $134 $219 forward $224 $-1 #
edge $-1 $226 7.4793012909290724 $317 27.070059180471191 $218 $318 forward 7 unknown #
coedge $-1 $319 $320 $135 $221 forward $213 $-1 #
edge $-1 $321 -40.346522552744098 $225 -34.927581180787662 $220 $322 forward 7 unknown #
edge $-1 $226 -9.690647481207991 $321 8.5699306966272282e-015 $136 $323 forward 7 unknown #
coedge $-1 $137 $313 $319 $324 forward $224 $-1 #
loop $-1 $-1 $313 $212 #
vertex $-1 $221 $325 #
vertex $-1 $138 $326 #
straight-curve $-1 -24.753981526629204 -40.178764893252051 5.4441534408984538 0 1 0 I I #
coedge $-1 $228 $228 $-1 $327 reversed $141 $-1 #
edge $-1 $328 0 $328 6.2831853071796004 $142 $329 forward 7 unknown #
vertex $-1 $145 $330 #
ellipse-curve $-1 -40.426587838262897 -21.895421419732109 2.7346827549202342 0 -0.55919291073839883 0.82903756765294845 1.5 0 0 1 I I #
coedge $-1 $232 $232 $-1 $331 reversed $148 $-1 #
edge $-1 $332 0 $332 6.2831853071796004 $149 $333 forward 7 unknown #
vertex $-1 $152 $334 #
ellipse-curve $-1 -34.549360471400263 -21.895421419732109 2.7346827549202342 0 -0.55919291073839883 0.82903756765294845 1.5 0 0 1 I I #
coedge $-1 $236 $236 $-1 $335 reversed $155 $-1 #
edge $-1 $336 0 $336 6.2831853071796004 $156 $337 forward 7 unknown #
vertex $-1 $159 $338 #
ellipse-curve $-1 -28.672133104537625 -21.895421419732109 2.7346827549202342 0 -0.55919291073839883 0.82903756765294845 1.5 0 0 1 I I #
face $-1 $-1 $175 $24 $-1 $339 reversed single #
loop $-1 $-1 $255 $160 #
plane-surface $-1 0 25.912376828133532 0 0 -1 0 0 0 -1 forward_v I I I I #
coedge $-1 $253 $340 $163 $245 reversed $161 $-1 #
coedge $-1 $259 $163 $164 $247 reversed $101 $-1 #
edge $-1 $260 -5.4441534408984547 $341 5.4441534408984547 $243 $342 forward 7 unknown #
coedge $-1 $165 $164 $340 $343 forward $65 $-1 #
edge $-1 $251 -48.681905575731683 $341 48.681905575731683 $244 $344 forward 7 unknown #
coedge $-1 $256 $255 $165 $249 reversed $241 $-1 #
edge $-1 $345 -48.681905575731683 $250 48.681905575731683 $248 $346 forward 7 unknown #
vertex $-1 $167 $347 #
vertex $-1 $262 $348 #
straight-curve $-1 48.681905575731683 0 -5.4441534408984547 0 -1 0 I I #
coedge $-1 $349 $243 $168 $254 reversed $161 $-1 #
edge $-1 $257 -25.912376828133532 $260 25.912376828133532 $253 $350 forward 7 unknown #
coedge $-1 $248 $169 $174 $263 forward $241 $-1 #
coedge $-1 $169 $248 $349 $351 reversed $241 $-1 #
vertex $-1 $170 $352 #
straight-curve $-1 0 25.912376828133532 5.4441534408984547 -1 0 0 I I #
coedge $-1 $171 $244 $173 $262 reversed $101 $-1 #
vertex $-1 $254 $353 #
straight-curve $-1 0 -25.912376828133532 5.4441534408984547 1 0 0 I I #
edge $-1 $176 -5.4441534408984547 $251 5.4441534408984547 $173 $354 forward 7 unknown #
edge $-1 $177 -5.4441534408984547 $250 5.4441534408984547 $174 $355 forward 7 unknown #
point $-1 48.681905575731683 -25.912376828133532 5.4441534408984547 #
point $-1 48.681905575731683 25.912376828133532 5.4441534408984547 #
face $-1 $-1 $280 $25 $-1 $356 reversed single #
loop $-1 $-1 $276 $179 #
plane-surface $-1 0 0 -5.4441534408984547 0 0 1 1 0 0 forward_v I I I I #
coedge $-1 $357 $358 $270 $359 forward $180 $-1 #
coedge $-1 $183 $182 $269 $359 reversed $69 $-1 #
coedge $-1 $276 $360 $182 $272 forward $267 $-1 #
edge $-1 $361 -53.019071735292044 $274 -48.681905575731683 $182 $362 forward 7 unknown #
edge $-1 $190 -2.1685830797801771 $363 2.1685830797801771 $183 $364 forward 7 unknown #
vertex $-1 $184 $365 #
straight-curve $-1 -48.681905575731683 25.912376828133532 0 0 0 -1 I I #
coedge $-1 $366 $271 $185 $277 forward $267 $-1 #
edge $-1 $274 -25.912376828133532 $281 25.912376828133532 $276 $367 forward 7 unknown #
coedge $-1 $368 $186 $189 $284 reversed $280 $-1 #
coedge $-1 $186 $368 $366 $369 reversed $280 $-1 #
loop $-1 $-1 $186 $266 #
vertex $-1 $369 $370 #
straight-curve $-1 -48.681905575731683 -25.912376828133532 0 0 0 1 I I #
coedge $-1 $189 $188 $358 $371 forward $109 $-1 #
edge $-1 $372 -2.1685830797801771 $191 2.1685830797801771 $278 $373 forward 7 unknown #
point $-1 -48.68190557573169 25.912376828133532 -2.4441534408984547 #
point $-1 -48.68190557573169 -25.912376828133532 -2.4441534408984547 #
loop $-1 $-1 $201 $193 #
plane-surface $-1 0 25.912376828133532 0 0 -1 0 0 0 -1 forward_v I I I I #
coedge $-1 $290 $196 $198 $294 reversed $117 $-1 #
coedge $-1 $196 $289 $374 $375 reversed $117 $-1 #
coedge $-1 $204 $199 $196 $292 forward $194 $-1 #
edge $-1 $295 -1.5152781031962022 $376 2.4573710194226734 $291 $377 forward 7 unknown #
coedge $-1 $198 $197 $298 $378 reversed $73 $-1 #
edge $-1 $379 -51.82475365626707 $295 -46.712909354175309 $289 $380 forward 7 unknown #
vertex $-1 $200 $381 #
straight-curve $-1 -11.720213148514439 21.939727705514656 5.4441534408984538 1 0 0 I I #
coedge $-1 $374 $201 $204 $302 reversed $287 $-1 #
coedge $-1 $201 $374 $293 $378 forward $287 $-1 #
vertex $-1 $202 $382 #
straight-curve $-1 -31.506265395946876 25.912376828133532 55.253716100036407 0 0 1 I I #
straight-curve $-1 -31.506265395946876 -14.363020851381506 34.841540187787587 0 0.77714595512881146 -0.62932039886446345 I I #
edge $-1 $376 15.374587198110881 $205 31.506265395946876 $297 $383 forward 7 unknown #
point $-1 -31.506265395946876 25.912376828133532 5.4441534408984547 #
point $-1 -31.506265395946876 21.939727705514656 5.4441534408984538 #
edge $-1 $384 1 $384 0 $208 $-1 forward 7 unknown #
vertex $-1 $209 $385 #
ellipse-curve $-1 -23.440426297028878 21.646213467202365 1.0202931002095785 0 0.62932039886446345 0.77714595512881146 1 0 0 1 I I #
point $-1 -22.440426297028878 23.926052266824122 3.8356594933357591 #
plane-surface $-1 0 0 5.4441534408984547 0 0 1 1 0 0 forward_v I I I I #
coedge $-1 $320 $319 $312 $386 forward $213 $-1 #
coedge $-1 $312 $215 $217 $316 reversed $132 $-1 #
coedge $-1 $215 $311 $310 $386 reversed $132 $-1 #
coedge $-1 $223 $218 $215 $314 forward $224 $-1 #
edge $-1 $317 -22.300298881921371 $387 -14.26638806511852 $313 $388 forward 7 unknown #
coedge $-1 $217 $216 $320 $389 reversed $82 $-1 #
edge $-1 $390 -8.5699306966272282e-015 $317 9.690647481207991 $311 $391 forward 7 unknown #
vertex $-1 $219 $392 #
straight-curve $-1 -17.274680235700131 -17.878466011330683 5.4441534408984547 -1 0 0 I I #
coedge $-1 $310 $220 $223 $324 reversed $213 $-1 #
coedge $-1 $220 $310 $315 $389 forward $213 $-1 #
vertex $-1 $221 $393 #
straight-curve $-1 -24.753981526629204 -25.912376828133532 40.371734621686116 0 0 1 I I #
straight-curve $-1 -24.753981526629204 -25.912376828133524 0.025212068942025212 0 -0.82903756765294845 -0.55919291073839883 I I #
edge $-1 $387 -44.344739416171322 $225 -24.753981526629204 $319 $394 forward 7 unknown #
point $-1 -24.753981526629204 -25.912376828133532 5.4441534408984547 #
point $-1 -24.753981526629204 -17.87846601133068 5.4441534408984547 #
edge $-1 $395 1 $395 0 $228 $-1 forward 7 unknown #
vertex $-1 $229 $396 #
ellipse-curve $-1 -40.426587838262897 -19.946087936987478 -0.15532292656289415 0 -0.55919291073839883 0.82903756765294845 1.5 0 0 1 I I #
point $-1 -38.926587838262897 -21.895421419732116 2.7346827549202457 #
edge $-1 $397 1 $397 0 $232 $-1 forward 7 unknown #
vertex $-1 $233 $398 #
ellipse-curve $-1 -34.549360471400263 -19.946087936987478 -0.15532292656289415 0 -0.55919291073839883 0.82903756765294845 1.5 0 0 1 I I #
point $-1 -33.049360471400263 -21.895421419732116 2.7346827549202457 #
edge $-1 $399 1 $399 0 $236 $-1 forward 7 unknown #
vertex $-1 $237 $400 #
ellipse-curve $-1 -28.672133104537625 -19.946087936987478 -0.15532292656289415 0 -0.55919291073839883 0.82903756765294845 1.5 0 0 1 I I #
point $-1 -27.172133104537625 -21.895421419732116 2.7346827549202457 #
plane-surface $-1 48.681905575731683 0 0 -1 0 0 0 0 1 forward_v I I I I #
coedge $-1 $243 $349 $246 $343 reversed $161 $-1 #
vertex $-1 $343 $401 #
straight-curve $-1 -48.681905575731683 -25.912376828133532 0 0 0 -1 I I #
edge $-1 $341 -25.912376828133532 $345 25.912376828133532 $340 $402 forward 7 unknown #
straight-curve $-1 0 -25.912376828133532 -5.4441534408984547 -1 0 0 I I #
vertex $-1 $249 $403 #
straight-curve $-1 0 25.912376828133532 -5.4441534408984547 1 0 0 I I #
point $-1 48.681905575731683 25.912376828133532 -5.4441534408984547 #
point $-1 48.681905575731683 -25.912376828133532 -5.4441534408984547 #
coedge $-1 $340 $253 $256 $351 forward $161 $-1 #
straight-curve $-1 -48.681905575731683 0 5.4441534408984547 0 -1 0 I I #
edge $-1 $257 -5.4441534408984547 $345 5.4441534408984547 $256 $404 forward 7 unknown #
point $-1 -48.681905575731683 25.912376828133532 5.4441534408984547 #
point $-1 -48.681905575731683 -25.912376828133532 5.4441534408984547 #
straight-curve $-1 48.681905575731683 -25.912376828133532 0 0 0 -1 I I #
straight-curve $-1 48.681905575731683 25.912376828133532 0 0 0 -1 I I #
plane-surface $-1 0 -25.912376828133532 0 0 1 0 0 0 1 forward_v I I I I #
coedge $-1 $405 $269 $360 $406 reversed $180 $-1 #
coedge $-1 $269 $405 $283 $371 reversed $180 $-1 #
edge $-1 $363 -1.5 $361 1.5 $270 $407 forward 7 unknown #
coedge $-1 $271 $366 $357 $406 forward $267 $-1 #
vertex $-1 $272 $408 #
straight-curve $-1 0 25.912376828133532 -5.4441534408984547 1 0 0 I I #
vertex $-1 $273 $409 #
straight-curve $-1 -50.850488655511867 25.912376828133532 -2.4441534408984547 -1 0 0 I I #
point $-1 -48.681905575731683 25.912376828133532 -5.4441534408984547 #
coedge $-1 $360 $276 $279 $369 forward $267 $-1 #
straight-curve $-1 -48.681905575731683 0 -5.4441534408984547 0 -1 0 I I #
coedge $-1 $279 $278 $405 $410 forward $280 $-1 #
edge $-1 $281 -2.1685830797801842 $411 2.1685830797801771 $279 $412 forward 7 unknown #
point $-1 -48.681905575731683 -25.912376828133532 -5.4441534408984547 #
edge $-1 $363 -25.912376828133532 $372 25.912376828133532 $358 $413 forward 7 unknown #
vertex $-1 $371 $414 #
straight-curve $-1 -50.850488655511867 -25.912376828133532 -2.4441534408984547 1 0 0 I I #
coedge $-1 $298 $297 $290 $375 forward $287 $-1 #
edge $-1 $376 49.809562659137953 $379 53.026550554263373 $374 $415 forward 7 unknown #
vertex $-1 $302 $416 #
straight-curve $-1 -15.374587198110881 23.455005808710858 5.4441534408984538 0 1 0 I I #
edge $-1 $379 3.6543740495964414 $299 19.786052247432437 $298 $417 forward 7 unknown #
vertex $-1 $378 $418 #
straight-curve $-1 -15.374587198110881 -14.363020851381506 34.841540187787587 0 -0.77714595512881146 0.62932039886446345 I I #
point $-1 -15.374587198110881 21.939727705514656 5.4441534408984538 #
point $-1 -31.506265395946876 25.912376828133532 2.2271655457730333 #
straight-curve $-1 0 25.912376828133532 5.4441534408984547 -1 0 0 I I #
vertex $-1 $305 $419 #
point $-1 -22.440426297028878 21.646213467202365 1.0202931002095785 #
edge $-1 $387 34.927581180787662 $390 40.346522552744098 $310 $420 forward 7 unknown #
vertex $-1 $324 $421 #
straight-curve $-1 -44.344739416171322 -40.178764893252051 5.4441534408984538 0 -1 0 I I #
edge $-1 $390 -27.070059180471191 $321 -7.4793012909290724 $320 $422 forward 7 unknown #
vertex $-1 $389 $423 #
straight-curve $-1 -44.344739416171322 -25.912376828133524 0.025212068942025212 0 0.82903756765294845 0.55919291073839883 I I #
point $-1 -44.344739416171322 -17.87846601133068 5.4441534408984547 #
point $-1 -24.753981526629204 -25.912376828133532 0.025212068942020421 #
straight-curve $-1 0 -25.912376828133532 5.4441534408984547 1 0 0 I I #
vertex $-1 $327 $424 #
point $-1 -38.926587838262897 -19.946087936987478 -0.15532292656289415 #
vertex $-1 $331 $425 #
point $-1 -33.049360471400263 -19.946087936987478 -0.15532292656289415 #
vertex $-1 $335 $426 #
point $-1 -27.172133104537625 -19.946087936987478 -0.15532292656289415 #
point $-1 -48.681905575731683 -25.912376828133532 -5.4441534408984547 #
straight-curve $-1 -48.681905575731683 0 -5.4441534408984547 0 1 0 I I #
point $-1 -48.681905575731683 25.912376828133532 -5.4441534408984547 #
straight-curve $-1 -48.681905575731683 25.912376828133532 0 0 0 -1 I I #
coedge $-1 $358 $357 $368 $410 reversed $180 $-1 #
edge $-1 $411 -25.912376828133532 $361 25.912376828133532 $357 $427 forward 7 unknown #
straight-curve $-1 -53.019071735292044 25.912376828133532 -3.9441534408984547 0 0 -1 I I #
point $-1 -53.019071735292044 25.912376828133532 -5.4441534408984547 #
point $-1 -53.019071735292044 25.912376828133532 -2.4441534408984547 #
edge $-1 $372 -1.5 $411 1.5 $405 $428 forward 7 unknown #
vertex $-1 $406 $429 #
straight-curve $-1 -50.850488655511867 -25.912376828133532 -5.4441534408984547 -1 0 0 I I #
straight-curve $-1 -53.019071735292044 0 -2.4441534408984547 0 -1 0 I I #
point $-1 -53.019071735292044 -25.912376828133532 -2.4441534408984547 #
straight-curve $-1 -15.374587198110881 25.912376828133532 55.253716100036407 0 0 -1 I I #
point $-1 -15.374587198110881 25.912376828133532 5.4441534408984547 #
straight-curve $-1 -11.720213148514439 25.912376828133532 2.2271655457730333 -1 0 0 I I #
point $-1 -15.374587198110881 25.912376828133532 2.2271655457730333 #
point $-1 -23.440426297028878 21.0168930683379 0.24314714508076701 #
straight-curve $-1 -44.344739416171322 -25.912376828133532 40.371734621686116 0 0 -1 I I #
point $-1 -44.344739416171322 -25.912376828133532 5.4441534408984547 #
straight-curve $-1 -17.274680235700131 -25.912376828133532 0.025212068942020226 1 0 0 I I #
point $-1 -44.344739416171322 -25.912376828133532 0.025212068942020421 #
point $-1 -40.426587838262897 -19.10729857087988 -1.3988792780423169 #
point $-1 -34.549360471400263 -19.10729857087988 -1.3988792780423169 #
point $-1 -28.672133104537625 -19.10729857087988 -1.3988792780423169 #
straight-curve $-1 -53.019071735292044 0 -5.4441534408984547 0 1 0 I I #
straight-curve $-1 -53.019071735292044 -25.912376828133532 -3.9441534408984547 0 0 -1 I I #
point $-1 -53.019071735292044 -25.912376828133532 -5.4441534408984547 #
End-of-ACIS-data 