500 0 8 0           
7 Unknown 11 ACIS 5.0 NT 24 Fri Mar 26 03:27:22 1999 
-1 9.9999999999999995e-007 1e-010 
body $-1 $8 $-1 $9 #
body $-1 $10 $-1 $11 #
body $-1 $12 $-1 $13 #
body $-1 $14 $-1 $15 #
body $-1 $16 $-1 $17 #
body $-1 $18 $-1 $19 #
body $-1 $20 $-1 $21 #
body $-1 $22 $-1 $23 #
lump $-1 $-1 $24 $0 #
transform $-1 1 0 0 0 1 0 0 0 1 71.061738944669941 31.585356558060305 10.568327088094904 1 rotate no_reflect no_shear #
lump $-1 $-1 $25 $1 #
transform $-1 1 0 0 0 1 0 0 0 1 71.061738944669941 31.585356558060305 10.568327088094904 1 rotate no_reflect no_shear #
lump $-1 $-1 $26 $2 #
transform $-1 1 0 0 0 1 0 0 0 1 71.061738944669941 31.585356558060305 10.568327088094904 1 rotate no_reflect no_shear #
lump $-1 $-1 $27 $3 #
transform $-1 1 0 0 0 1 0 0 0 1 71.061738944669941 31.585356558060305 10.568327088094904 1 rotate no_reflect no_shear #
lump $-1 $-1 $28 $4 #
transform $-1 1 0 0 0 1 0 0 0 1 71.061738944669941 31.585356558060305 10.568327088094904 1 rotate no_reflect no_shear #
lump $-1 $-1 $29 $5 #
transform $-1 1 0 0 0 1 0 0 0 1 71.061738944669941 31.585356558060305 10.568327088094904 1 rotate no_reflect no_shear #
lump $-1 $-1 $30 $6 #
transform $-1 1 0 0 0 1 0 0 0 1 71.061738944669941 31.585356558060305 10.568327088094904 1 rotate no_reflect no_shear #
lump $-1 $-1 $31 $7 #
transform $-1 1 0 0 0 1 0 0 0 1 71.061738944669941 31.585356558060305 10.568327088094904 1 rotate no_reflect no_shear #
shell $-1 $-1 $-1 $32 $-1 $8 #
shell $-1 $-1 $-1 $33 $-1 $10 #
shell $-1 $-1 $-1 $34 $-1 $12 #
shell $-1 $-1 $-1 $35 $-1 $14 #
shell $-1 $-1 $-1 $36 $-1 $16 #
shell $-1 $-1 $-1 $37 $-1 $18 #
shell $-1 $-1 $-1 $38 $-1 $20 #
shell $-1 $-1 $-1 $39 $-1 $22 #
face $-1 $40 $41 $24 $-1 $42 forward single #
face $-1 $43 $44 $25 $-1 $45 forward single #
face $-1 $46 $47 $26 $-1 $48 forward single #
face $-1 $49 $50 $27 $-1 $51 reversed single #
face $-1 $52 $53 $28 $-1 $54 forward single #
face $-1 $55 $56 $29 $-1 $57 reversed single #
face $-1 $58 $59 $30 $-1 $60 forward single #
face $-1 $61 $62 $31 $-1 $63 forward single #
face $-1 $64 $65 $24 $-1 $66 reversed single #
loop $-1 $-1 $67 $32 #
plane-surface $-1 0 0 10.568327088094904 0 0 1 1 0 0 forward_v I I I I #
face $-1 $68 $69 $25 $-1 $70 reversed single #
loop $-1 $-1 $71 $33 #
plane-surface $-1 0 -28.07801175273125 -4.747427423702776 0 0 1 1 0 0 forward_v I I I I #
face $-1 $72 $73 $26 $-1 $74 reversed single #
loop $-1 $-1 $75 $34 #
plane-surface $-1 0 28.07801175273125 -4.747427423702776 0 0 1 1 0 0 forward_v I I I I #
face $-1 $76 $77 $27 $-1 $78 reversed single #
loop $-1 $-1 $79 $35 #
plane-surface $-1 -175.00427176062362 24.570666947402195 99.687886653615948 0 -1 0 0.73135370988377701 0 -0.68199835119979291 forward_v I I I I #
face $-1 $80 $81 $28 $-1 $82 forward single #
loop $-1 $83 $84 $36 #
cone-surface $-1 -65.021484531143258 17.52857085829163 4.4265288794199371 0.73135370988377701 0 -0.68199835119979291 1.7049958779994823 0 1.8283842747094425 1 I I 0 1 2.5 forward I I I I #
face $-1 $85 $86 $29 $-1 $87 reversed single #
loop $-1 $-1 $88 $37 #
plane-surface $-1 43.088928726031853 -9.5894174490837774 201.65845626032251 0 1 0 0.6018150307709319 0 0.79863550430605224 forward_v I I I I #
face $-1 $89 $90 $30 $-1 $91 forward single #
loop $-1 $92 $93 $38 #
cone-surface $-1 65.190350647831124 -6.0052859079278527 5.8006686379105705 -0.6018150307709319 0 -0.79863550430605224 0.79863550430605224 0 -0.6018150307709319 1 I I 0 1 1 forward I I I I #
face $-1 $94 $95 $31 $-1 $96 forward single #
loop $-1 $97 $98 $39 #
cone-surface $-1 65.190350647831124 -0.6290885961939594 5.8006686379105705 -0.6018150307709319 0 -0.79863550430605224 0.79863550430605224 0 -0.6018150307709319 1 I I 0 1 1 forward I I I I #
face $-1 $99 $100 $24 $-1 $101 reversed single #
loop $-1 $-1 $102 $40 #
plane-surface $-1 0 0 -10.568327088094904 0 0 1 1 0 0 forward_v I I I I #
coedge $-1 $103 $104 $105 $106 forward $41 $-1 #
face $-1 $107 $108 $25 $-1 $109 reversed single #
loop $-1 $-1 $110 $43 #
plane-surface $-1 0 -28.07801175273125 -10.068327088094904 0 0 1 1 0 0 forward_v I I I I #
coedge $-1 $111 $112 $113 $114 reversed $44 $-1 #
face $-1 $115 $116 $26 $-1 $117 reversed single #
loop $-1 $-1 $118 $46 #
plane-surface $-1 0 28.07801175273125 -10.068327088094904 0 0 1 1 0 0 forward_v I I I I #
coedge $-1 $119 $120 $121 $122 reversed $47 $-1 #
face $-1 $123 $124 $27 $-1 $125 reversed single #
loop $-1 $-1 $126 $49 #
plane-surface $-1 -71.061738944669941 17.52857085829163 2.7599090663059229 -0.73135370988377701 0 0.68199835119979291 0.68199835119979291 0 0.73135370988377701 forward_v I I I I #
coedge $-1 $127 $128 $129 $130 reversed $50 $-1 #
face $-1 $-1 $131 $28 $-1 $132 forward single #
loop $-1 $133 $134 $52 #
cone-surface $-1 -61.707771693901677 17.52857085829163 1.3364417426397246 0.73135370988377701 0 -0.68199835119979291 0.85249793899974113 0 0.91419213735472127 1 I I -0.70710678118654746 0.70710678118654746 1.25 forward I I I I #
loop $-1 $-1 $135 $36 #
coedge $-1 $84 $84 $136 $137 reversed $53 $-1 #
face $-1 $138 $139 $29 $-1 $140 reversed single #
loop $-1 $-1 $141 $55 #
plane-surface $-1 -42.443116493213083 -3.3171872520609043 88.153600822439486 0.6018150307709319 0 0.79863550430605224 0.79863550430605224 0 -0.6018150307709319 forward_v I I I I #
coedge $-1 $142 $143 $144 $145 reversed $56 $-1 #
face $-1 $-1 $146 $30 $-1 $147 forward single #
loop $-1 $148 $149 $58 #
cone-surface $-1 64.290915704766491 -6.0052859079278527 4.6070781780233716 -0.6018150307709319 0 -0.79863550430605224 0.39931775215302612 0 -0.30090751538546595 1 I I -0.70710678118654746 0.70710678118654746 0.5 forward I I I I #
loop $-1 $-1 $150 $38 #
coedge $-1 $93 $93 $151 $152 reversed $59 $-1 #
face $-1 $-1 $153 $31 $-1 $154 forward single #
loop $-1 $155 $156 $61 #
cone-surface $-1 64.290915704766491 -0.6290885961939594 4.6070781780233716 -0.6018150307709319 0 -0.79863550430605224 0.39931775215302612 0 -0.30090751538546595 1 I I -0.70710678118654746 0.70710678118654746 0.5 forward I I I I #
loop $-1 $-1 $157 $39 #
coedge $-1 $98 $98 $158 $159 reversed $62 $-1 #
face $-1 $160 $161 $24 $-1 $162 reversed single #
loop $-1 $-1 $163 $64 #
plane-surface $-1 0 -31.585356558060305 0 0 1 0 0 0 1 forward_v I I I I #
coedge $-1 $164 $165 $166 $167 forward $65 $-1 #
coedge $-1 $168 $67 $169 $170 forward $41 $-1 #
coedge $-1 $67 $168 $171 $172 forward $41 $-1 #
coedge $-1 $173 $174 $67 $106 reversed $175 $-1 #
edge $-1 $176 -31.585356558060305 $177 31.585356558060305 $105 $178 forward 7 unknown #
face $-1 $179 $180 $25 $-1 $181 reversed single #
loop $-1 $-1 $182 $68 #
plane-surface $-1 0 -24.570666947402195 -7.4078772558988399 0 -1 0 0 0 -1 forward_v I I I I #
coedge $-1 $183 $184 $185 $186 reversed $69 $-1 #
coedge $-1 $187 $71 $188 $189 forward $44 $-1 #
coedge $-1 $71 $187 $190 $191 reversed $44 $-1 #
coedge $-1 $192 $193 $71 $114 forward $194 $-1 #
edge $-1 $195 10.53166107103657 $196 17.54635068169468 $113 $197 forward 7 unknown #
face $-1 $198 $199 $26 $-1 $200 reversed single #
loop $-1 $-1 $201 $72 #
plane-surface $-1 0 24.570666947402195 -7.4078772558988399 0 1 0 0 0 1 forward_v I I I I #
coedge $-1 $202 $203 $204 $205 reversed $73 $-1 #
coedge $-1 $206 $75 $207 $208 reversed $47 $-1 #
coedge $-1 $75 $206 $209 $210 forward $47 $-1 #
coedge $-1 $211 $212 $75 $122 forward $199 $-1 #
edge $-1 $213 -17.54635068169468 $214 -10.53166107103657 $121 $215 forward 7 unknown #
face $-1 $216 $217 $27 $-1 $218 reversed single #
loop $-1 $-1 $219 $76 #
plane-surface $-1 -175.00427176062362 10.486474769181065 99.687886653615948 0 1 0 -0.73135370988377701 0 0.68199835119979291 forward_v I I I I #
coedge $-1 $220 $221 $222 $223 reversed $77 $-1 #
coedge $-1 $128 $79 $224 $225 reversed $50 $-1 #
coedge $-1 $79 $127 $220 $226 reversed $50 $-1 #
coedge $-1 $222 $227 $79 $130 forward $217 $-1 #
edge $-1 $228 39.27561623871307 $229 47.084034260502051 $129 $230 forward 7 unknown #
loop $-1 $-1 $136 $80 #
plane-surface $-1 -71.061738944669941 17.52857085829163 2.7599090663059229 -0.73135370988377701 0 0.68199835119979291 0.68199835119979291 0 0.73135370988377701 forward_v I I I I #
loop $-1 $-1 $231 $52 #
coedge $-1 $134 $134 $135 $232 reversed $81 $-1 #
coedge $-1 $135 $135 $134 $232 forward $83 $-1 #
coedge $-1 $136 $136 $84 $137 forward $131 $-1 #
edge $-1 $233 0 $233 6.2831853071796004 $136 $234 forward 7 unknown #
face $-1 $235 $236 $29 $-1 $237 forward single #
loop $-1 $-1 $238 $85 #
plane-surface $-1 43.088928726031853 2.9550429449619688 201.65845626032251 0 -1 0 -0.6018150307709319 0 -0.79863550430605224 forward_v I I I I #
coedge $-1 $239 $240 $241 $242 reversed $86 $-1 #
coedge $-1 $143 $88 $243 $244 reversed $56 $-1 #
coedge $-1 $88 $142 $239 $245 reversed $56 $-1 #
coedge $-1 $241 $246 $88 $145 forward $247 $-1 #
edge $-1 $248 90.260901042066351 $249 98.207672526966704 $144 $250 forward 7 unknown #
loop $-1 $-1 $151 $89 #
plane-surface $-1 -42.443116493213083 -3.3171872520609043 88.153600822439486 0.6018150307709319 0 0.79863550430605224 0.79863550430605224 0 -0.6018150307709319 forward_v I I I I #
loop $-1 $-1 $251 $58 #
coedge $-1 $149 $149 $150 $252 reversed $90 $-1 #
coedge $-1 $150 $150 $149 $252 forward $92 $-1 #
coedge $-1 $151 $151 $93 $152 forward $146 $-1 #
edge $-1 $253 0 $253 6.2831853071796004 $151 $254 forward 7 unknown #
loop $-1 $-1 $158 $94 #
plane-surface $-1 -42.443116493213083 -3.3171872520609043 88.153600822439486 0.6018150307709319 0 0.79863550430605224 0.79863550430605224 0 -0.6018150307709319 forward_v I I I I #
loop $-1 $-1 $255 $61 #
coedge $-1 $156 $156 $157 $256 reversed $95 $-1 #
coedge $-1 $157 $157 $156 $256 forward $97 $-1 #
coedge $-1 $158 $158 $98 $159 forward $153 $-1 #
edge $-1 $257 0 $257 6.2831853071796004 $158 $258 forward 7 unknown #
face $-1 $259 $260 $24 $-1 $261 reversed single #
loop $-1 $-1 $262 $99 #
plane-surface $-1 -71.061738944669941 0 0 1 0 0 0 0 -1 forward_v I I I I #
coedge $-1 $263 $171 $264 $265 forward $100 $-1 #
coedge $-1 $266 $102 $263 $267 forward $65 $-1 #
coedge $-1 $102 $266 $268 $269 forward $65 $-1 #
coedge $-1 $174 $173 $102 $167 reversed $175 $-1 #
edge $-1 $270 -31.585356558060305 $271 31.585356558060305 $166 $272 forward 7 unknown #
coedge $-1 $104 $103 $273 $274 forward $41 $-1 #
coedge $-1 $275 $276 $103 $170 reversed $260 $-1 #
edge $-1 $177 -71.061738944669941 $277 71.061738944669941 $169 $278 forward 7 unknown #
coedge $-1 $163 $279 $104 $172 reversed $100 $-1 #
edge $-1 $280 -71.061738944669941 $176 71.061738944669941 $171 $281 forward 7 unknown #
coedge $-1 $166 $105 $279 $282 forward $175 $-1 #
coedge $-1 $105 $166 $275 $283 reversed $175 $-1 #
loop $-1 $-1 $173 $259 #
vertex $-1 $106 $284 #
vertex $-1 $106 $285 #
straight-curve $-1 71.061738944669941 0 10.568327088094904 0 1 0 I I #
face $-1 $286 $287 $25 $-1 $288 reversed single #
loop $-1 $-1 $289 $107 #
plane-surface $-1 -71.061738944669941 0 0 1 0 0 0 0 -1 forward_v I I I I #
coedge $-1 $290 $188 $193 $291 reversed $108 $-1 #
coedge $-1 $292 $110 $293 $294 reversed $69 $-1 #
coedge $-1 $110 $292 $290 $295 forward $69 $-1 #
coedge $-1 $193 $192 $110 $186 forward $194 $-1 #
edge $-1 $296 -17.54635068169468 $297 -10.53166107103657 $185 $298 forward 7 unknown #
coedge $-1 $112 $111 $289 $299 reversed $44 $-1 #
coedge $-1 $182 $300 $111 $189 reversed $108 $-1 #
edge $-1 $195 -71.061738944669941 $301 71.061738944669941 $188 $302 forward 7 unknown #
coedge $-1 $303 $304 $112 $191 forward $287 $-1 #
edge $-1 $196 -71.061738944669941 $305 71.061738944669941 $190 $306 forward 7 unknown #
coedge $-1 $185 $113 $304 $307 forward $194 $-1 #
coedge $-1 $113 $185 $182 $291 forward $194 $-1 #
loop $-1 $-1 $113 $286 #
vertex $-1 $114 $308 #
vertex $-1 $307 $309 #
straight-curve $-1 71.061738944669941 -14.039005876365625 -4.747427423702776 0 -1 0 I I #
face $-1 $310 $311 $26 $-1 $312 reversed single #
loop $-1 $-1 $121 $115 #
plane-surface $-1 71.061738944669941 0 0 -1 0 0 0 0 1 forward_v I I I I #
coedge $-1 $313 $209 $314 $315 reversed $116 $-1 #
coedge $-1 $316 $118 $313 $317 forward $73 $-1 #
coedge $-1 $118 $316 $318 $319 reversed $73 $-1 #
coedge $-1 $212 $211 $118 $205 forward $199 $-1 #
edge $-1 $320 10.53166107103657 $321 17.54635068169468 $204 $322 forward 7 unknown #
coedge $-1 $120 $119 $323 $324 reversed $47 $-1 #
coedge $-1 $325 $326 $119 $208 forward $327 $-1 #
edge $-1 $328 -71.061738944669941 $213 71.061738944669941 $207 $329 forward 7 unknown #
coedge $-1 $201 $330 $120 $210 reversed $116 $-1 #
edge $-1 $331 -71.061738944669941 $214 71.061738944669941 $209 $332 forward 7 unknown #
coedge $-1 $204 $121 $330 $333 forward $199 $-1 #
coedge $-1 $121 $204 $325 $334 reversed $199 $-1 #
vertex $-1 $334 $335 #
vertex $-1 $122 $336 #
straight-curve $-1 71.061738944669941 14.039005876365625 -4.747427423702776 0 -1 0 I I #
face $-1 $-1 $337 $27 $-1 $338 forward single #
loop $-1 $-1 $129 $123 #
plane-surface $-1 -71.061738944669941 0 0 1 0 0 0 0 -1 forward_v I I I I #
coedge $-1 $339 $340 $341 $342 reversed $124 $-1 #
coedge $-1 $343 $126 $128 $226 forward $77 $-1 #
coedge $-1 $126 $343 $339 $344 forward $77 $-1 #
coedge $-1 $341 $129 $126 $223 forward $217 $-1 #
edge $-1 $229 -15.80638151825638 $345 -1.7221893400352499 $222 $346 forward 7 unknown #
coedge $-1 $347 $348 $127 $225 forward $337 $-1 #
edge $-1 $349 -23.721864362921494 $228 -16.440396935641871 $224 $350 forward 7 unknown #
edge $-1 $229 0 $349 10.676664268278415 $128 $351 forward 7 unknown #
coedge $-1 $129 $341 $347 $352 reversed $217 $-1 #
vertex $-1 $352 $353 #
vertex $-1 $130 $354 #
straight-curve $-1 -71.061738944669941 24.570666947402195 49.843943326807974 0 0 -1 I I #
coedge $-1 $231 $231 $-1 $355 reversed $133 $-1 #
edge $-1 $356 0 $356 6.2831853071796004 $134 $357 forward 7 unknown #
vertex $-1 $137 $358 #
ellipse-curve $-1 -67.421005231030122 17.52857085829163 6.6641180772004152 -0.73135370988377701 0 0.68199835119979291 1.7049958779994823 0 1.8283842747094425 1 I I #
face $-1 $-1 $247 $29 $-1 $359 reversed single #
loop $-1 $-1 $360 $138 #
plane-surface $-1 0 0 10.568327088094904 0 0 1 1 0 0 forward_v I I I I #
coedge $-1 $361 $362 $363 $364 reversed $139 $-1 #
coedge $-1 $365 $141 $143 $245 forward $86 $-1 #
coedge $-1 $141 $365 $361 $366 forward $86 $-1 #
coedge $-1 $363 $144 $141 $242 forward $247 $-1 #
edge $-1 $249 -7.9308238230533252 $367 4.613636570992421 $241 $368 forward 7 unknown #
coedge $-1 $369 $370 $142 $244 forward $236 $-1 #
edge $-1 $371 38.971552843334642 $248 49.517274581654014 $243 $372 forward 7 unknown #
edge $-1 $249 -142.12347788933988 $371 -128.91880356487104 $143 $373 forward 7 unknown #
coedge $-1 $144 $363 $369 $374 reversed $247 $-1 #
loop $-1 $-1 $363 $235 #
vertex $-1 $374 $375 #
vertex $-1 $145 $376 #
straight-curve $-1 71.061738944669941 -9.5894174490837774 100.82922813016125 0 0 -1 I I #
coedge $-1 $251 $251 $-1 $377 reversed $148 $-1 #
edge $-1 $378 0 $378 6.2831853071796004 $149 $379 forward 7 unknown #
vertex $-1 $152 $380 #
ellipse-curve $-1 65.788878075510269 -6.0052859079278527 6.5949413456447203 0.6018150307709319 0 0.79863550430605224 0.79863550430605224 0 -0.6018150307709319 1 I I #
coedge $-1 $255 $255 $-1 $381 reversed $155 $-1 #
edge $-1 $382 0 $382 6.2831853071796004 $156 $383 forward 7 unknown #
vertex $-1 $159 $384 #
ellipse-curve $-1 65.788878075510269 -0.6290885961939594 6.5949413456447203 0.6018150307709319 0 0.79863550430605224 0.79863550430605224 0 -0.6018150307709319 1 I I #
face $-1 $-1 $175 $24 $-1 $385 reversed single #
loop $-1 $-1 $275 $160 #
plane-surface $-1 0 31.585356558060305 0 0 -1 0 0 0 -1 forward_v I I I I #
coedge $-1 $386 $273 $276 $387 forward $161 $-1 #
coedge $-1 $279 $163 $164 $267 reversed $100 $-1 #
coedge $-1 $273 $386 $163 $265 reversed $161 $-1 #
edge $-1 $280 -10.568327088094904 $388 10.568327088094904 $264 $389 forward 7 unknown #
coedge $-1 $165 $164 $386 $390 forward $65 $-1 #
edge $-1 $271 -71.061738944669941 $388 71.061738944669941 $263 $391 forward 7 unknown #
coedge $-1 $276 $275 $165 $269 reversed $260 $-1 #
edge $-1 $392 -71.061738944669941 $270 71.061738944669941 $268 $393 forward 7 unknown #
vertex $-1 $167 $394 #
vertex $-1 $282 $395 #
straight-curve $-1 71.061738944669941 0 -10.568327088094904 0 -1 0 I I #
coedge $-1 $262 $264 $168 $274 reversed $161 $-1 #
edge $-1 $277 -31.585356558060305 $280 31.585356558060305 $273 $396 forward 7 unknown #
coedge $-1 $268 $169 $174 $283 forward $260 $-1 #
coedge $-1 $169 $268 $262 $387 reversed $260 $-1 #
vertex $-1 $170 $397 #
straight-curve $-1 0 31.585356558060305 10.568327088094904 -1 0 0 I I #
coedge $-1 $171 $263 $173 $282 reversed $100 $-1 #
vertex $-1 $274 $398 #
straight-curve $-1 0 -31.585356558060305 10.568327088094904 1 0 0 I I #
edge $-1 $176 -10.568327088094904 $271 10.568327088094904 $173 $399 forward 7 unknown #
edge $-1 $177 -10.568327088094904 $270 10.568327088094904 $174 $400 forward 7 unknown #
point $-1 71.061738944669941 -31.585356558060305 10.568327088094904 #
point $-1 71.061738944669941 31.585356558060305 10.568327088094904 #
face $-1 $-1 $194 $25 $-1 $401 reversed single #
loop $-1 $-1 $190 $179 #
plane-surface $-1 0 -31.585356558060305 0 0 1 0 0 0 1 forward_v I I I I #
coedge $-1 $402 $403 $187 $299 forward $180 $-1 #
coedge $-1 $300 $182 $184 $295 reversed $108 $-1 #
edge $-1 $297 -6.3643884601454843 $195 -1.0434887957533561 $193 $404 forward 7 unknown #
coedge $-1 $184 $183 $405 $406 reversed $69 $-1 #
coedge $-1 $304 $303 $183 $294 forward $287 $-1 #
edge $-1 $407 -71.061738944669941 $296 71.061738944669941 $293 $408 forward 7 unknown #
edge $-1 $409 -71.061738944669941 $297 71.061738944669941 $290 $410 forward 7 unknown #
vertex $-1 $294 $411 #
vertex $-1 $186 $412 #
straight-curve $-1 71.061738944669941 -14.039005876365625 -10.068327088094904 0 1 0 I I #
edge $-1 $305 -17.54635068169468 $301 -10.53166107103657 $289 $413 forward 7 unknown #
coedge $-1 $188 $290 $402 $414 reversed $108 $-1 #
vertex $-1 $299 $415 #
straight-curve $-1 0 -24.570666947402195 -4.747427423702776 -1 0 0 I I #
coedge $-1 $293 $190 $403 $416 forward $287 $-1 #
coedge $-1 $190 $293 $192 $307 reversed $287 $-1 #
vertex $-1 $416 $417 #
straight-curve $-1 0 -31.585356558060305 -4.747427423702776 -1 0 0 I I #
edge $-1 $196 4.747427423702776 $296 10.068327088094904 $192 $418 forward 7 unknown #
point $-1 71.061738944669941 -24.570666947402195 -4.747427423702776 #
point $-1 71.061738944669941 -31.585356558060305 -4.747427423702776 #
face $-1 $-1 $327 $26 $-1 $419 reversed single #
loop $-1 $-1 $323 $198 #
plane-surface $-1 -71.061738944669941 0 0 1 0 0 0 0 -1 forward_v I I I I #
coedge $-1 $330 $201 $202 $317 reversed $116 $-1 #
coedge $-1 $323 $420 $201 $315 forward $311 $-1 #
edge $-1 $421 -6.3643884601454843 $331 -1.0434887957533561 $314 $422 forward 7 unknown #
coedge $-1 $203 $202 $420 $423 reversed $73 $-1 #
edge $-1 $320 -71.061738944669941 $421 71.061738944669941 $313 $424 forward 7 unknown #
coedge $-1 $326 $325 $203 $319 forward $327 $-1 #
edge $-1 $321 -71.061738944669941 $425 71.061738944669941 $318 $426 forward 7 unknown #
vertex $-1 $205 $427 #
vertex $-1 $319 $428 #
straight-curve $-1 71.061738944669941 14.039005876365625 -10.068327088094904 0 1 0 I I #
coedge $-1 $429 $314 $206 $324 forward $311 $-1 #
edge $-1 $331 10.53166107103657 $328 17.54635068169468 $323 $430 forward 7 unknown #
coedge $-1 $318 $207 $212 $334 forward $327 $-1 #
coedge $-1 $207 $318 $429 $431 reversed $327 $-1 #
loop $-1 $-1 $207 $310 #
vertex $-1 $431 $432 #
straight-curve $-1 0 31.585356558060305 -4.747427423702776 1 0 0 I I #
coedge $-1 $209 $313 $211 $333 reversed $116 $-1 #
vertex $-1 $324 $433 #
straight-curve $-1 0 24.570666947402195 -4.747427423702776 1 0 0 I I #
edge $-1 $214 1.0434887957533561 $320 6.3643884601454843 $211 $434 forward 7 unknown #
edge $-1 $213 4.747427423702776 $321 10.068327088094904 $212 $435 forward 7 unknown #
point $-1 71.061738944669941 31.585356558060305 -4.747427423702776 #
point $-1 71.061738944669941 24.570666947402195 -4.747427423702776 #
loop $-1 $-1 $224 $216 #
plane-surface $-1 0 0 10.568327088094904 0 0 1 1 0 0 forward_v I I I I #
coedge $-1 $340 $219 $221 $344 reversed $124 $-1 #
coedge $-1 $219 $339 $436 $437 reversed $124 $-1 #
coedge $-1 $227 $222 $219 $342 forward $217 $-1 #
edge $-1 $345 -47.084034260502051 $438 -39.27561623871307 $341 $439 forward 7 unknown #
coedge $-1 $221 $220 $348 $440 reversed $77 $-1 #
edge $-1 $441 -10.676664268278415 $345 0 $339 $442 forward 7 unknown #
vertex $-1 $223 $443 #
straight-curve $-1 -71.061738944669941 8.764285429145815 2.7599090663059274 0 -1 0 I I #
coedge $-1 $436 $224 $227 $352 forward $337 $-1 #
coedge $-1 $224 $436 $343 $440 forward $337 $-1 #
vertex $-1 $225 $444 #
straight-curve $-1 -87.502135880311812 24.570666947402195 10.568327088094904 -1 0 0 I I #
straight-curve $-1 -71.061738944669941 24.570666947402195 2.7599090663059229 0.68199835119979291 0 0.73135370988377701 I I #
edge $-1 $228 -24.570666947402195 $438 -10.486474769181065 $227 $445 forward 7 unknown #
point $-1 -71.061738944669941 24.570666947402195 10.568327088094904 #
point $-1 -71.061738944669941 24.570666947402195 2.7599090663059229 #
edge $-1 $446 1 $446 0 $231 $-1 forward 7 unknown #
vertex $-1 $232 $447 #
ellipse-curve $-1 -62.621963831256394 17.52857085829163 2.1889396816394657 -0.73135370988377701 0 0.68199835119979291 1.7049958779994823 0 1.8283842747094425 1 I I #
point $-1 -65.716009353030643 17.52857085829163 8.4925023519098524 #
plane-surface $-1 71.061738944669941 0 0 -1 0 0 0 0 1 forward_v I I I I #
coedge $-1 $370 $369 $362 $448 forward $236 $-1 #
coedge $-1 $362 $238 $240 $366 reversed $139 $-1 #
coedge $-1 $238 $361 $360 $448 reversed $139 $-1 #
coedge $-1 $246 $241 $238 $364 forward $247 $-1 #
edge $-1 $367 -98.207672526966704 $449 -90.260901042066351 $363 $450 forward 7 unknown #
coedge $-1 $240 $239 $370 $451 reversed $86 $-1 #
edge $-1 $452 128.91880356487104 $367 142.12347788933988 $361 $453 forward 7 unknown #
vertex $-1 $242 $454 #
straight-curve $-1 71.061738944669941 -1.6585936260304521 2.6215556031945582 0 1 0 I I #
coedge $-1 $360 $243 $246 $374 forward $236 $-1 #
coedge $-1 $243 $360 $365 $451 forward $236 $-1 #
vertex $-1 $244 $455 #
straight-curve $-1 21.544464363015926 -9.5894174490837774 10.568327088094904 1 0 0 I I #
straight-curve $-1 -42.443116493213083 -9.5894174490837774 88.153600822439486 -0.79863550430605224 0 0.6018150307709319 I I #
edge $-1 $248 -9.5894174490837774 $449 2.9550429449619688 $246 $456 forward 7 unknown #
point $-1 71.061738944669941 -9.5894174490837774 10.568327088094904 #
point $-1 71.061738944669941 -9.5894174490837774 2.6215556031945511 #
edge $-1 $457 1 $457 0 $251 $-1 forward 7 unknown #
vertex $-1 $252 $458 #
ellipse-curve $-1 64.591823220151952 -6.0052859079278527 5.0063959301763976 0.6018150307709319 0 0.79863550430605224 0.79863550430605224 0 -0.6018150307709319 1 I I #
point $-1 66.587513579816331 -6.0052859079278527 5.9931263148738108 #
edge $-1 $459 1 $459 0 $255 $-1 forward 7 unknown #
vertex $-1 $256 $460 #
ellipse-curve $-1 64.591823220151952 -0.6290885961939594 5.0063959301763976 0.6018150307709319 0 0.79863550430605224 0.79863550430605224 0 -0.6018150307709319 1 I I #
point $-1 66.587513579816331 -0.6290885961939594 5.9931263148738108 #
plane-surface $-1 71.061738944669941 0 0 -1 0 0 0 0 1 forward_v I I I I #
coedge $-1 $264 $262 $266 $390 reversed $161 $-1 #
edge $-1 $277 -10.568327088094904 $392 10.568327088094904 $276 $461 forward 7 unknown #
vertex $-1 $390 $462 #
straight-curve $-1 -71.061738944669941 -31.585356558060305 0 0 0 -1 I I #
edge $-1 $388 -31.585356558060305 $392 31.585356558060305 $386 $463 forward 7 unknown #
straight-curve $-1 0 -31.585356558060305 -10.568327088094904 -1 0 0 I I #
vertex $-1 $269 $464 #
straight-curve $-1 0 31.585356558060305 -10.568327088094904 1 0 0 I I #
point $-1 71.061738944669941 31.585356558060305 -10.568327088094904 #
point $-1 71.061738944669941 -31.585356558060305 -10.568327088094904 #
straight-curve $-1 -71.061738944669941 0 10.568327088094904 0 -1 0 I I #
point $-1 -71.061738944669941 31.585356558060305 10.568327088094904 #
point $-1 -71.061738944669941 -31.585356558060305 10.568327088094904 #
straight-curve $-1 71.061738944669941 -31.585356558060305 0 0 0 -1 I I #
straight-curve $-1 71.061738944669941 31.585356558060305 0 0 0 -1 I I #
plane-surface $-1 71.061738944669941 0 0 -1 0 0 0 0 1 forward_v I I I I #
coedge $-1 $405 $289 $300 $414 forward $180 $-1 #
coedge $-1 $289 $405 $303 $416 reversed $180 $-1 #
straight-curve $-1 71.061738944669941 -24.570666947402195 -3.70393862794942 0 0 1 I I #
coedge $-1 $403 $402 $292 $406 forward $180 $-1 #
edge $-1 $409 10.53166107103657 $407 17.54635068169468 $405 $465 forward 7 unknown #
vertex $-1 $294 $466 #
straight-curve $-1 0 -31.585356558060305 -10.068327088094904 1 0 0 I I #
vertex $-1 $406 $467 #
straight-curve $-1 0 -24.570666947402195 -10.068327088094904 1 0 0 I I #
point $-1 71.061738944669941 -31.585356558060305 -10.068327088094904 #
point $-1 71.061738944669941 -24.570666947402195 -10.068327088094904 #
straight-curve $-1 -71.061738944669941 -14.039005876365625 -4.747427423702776 0 1 0 I I #
edge $-1 $301 1.0434887957533561 $409 6.3643884601454843 $402 $468 forward 7 unknown #
point $-1 -71.061738944669941 -24.570666947402195 -4.747427423702776 #
edge $-1 $305 4.747427423702776 $407 10.068327088094904 $403 $469 forward 7 unknown #
point $-1 -71.061738944669941 -31.585356558060305 -4.747427423702776 #
straight-curve $-1 71.061738944669941 -31.585356558060305 0 0 0 -1 I I #
plane-surface $-1 0 31.585356558060305 0 0 -1 0 0 0 -1 forward_v I I I I #
coedge $-1 $314 $429 $316 $423 forward $311 $-1 #
vertex $-1 $423 $470 #
straight-curve $-1 -71.061738944669941 24.570666947402195 -3.70393862794942 0 0 1 I I #
edge $-1 $425 -17.54635068169468 $421 -10.53166107103657 $420 $471 forward 7 unknown #
straight-curve $-1 0 24.570666947402195 -10.068327088094904 -1 0 0 I I #
vertex $-1 $319 $472 #
straight-curve $-1 0 31.585356558060305 -10.068327088094904 -1 0 0 I I #
point $-1 71.061738944669941 24.570666947402195 -10.068327088094904 #
point $-1 71.061738944669941 31.585356558060305 -10.068327088094904 #
coedge $-1 $420 $323 $326 $431 forward $311 $-1 #
straight-curve $-1 -71.061738944669941 14.039005876365625 -4.747427423702776 0 1 0 I I #
edge $-1 $328 4.747427423702776 $425 10.068327088094904 $326 $473 forward 7 unknown #
point $-1 -71.061738944669941 31.585356558060305 -4.747427423702776 #
point $-1 -71.061738944669941 24.570666947402195 -4.747427423702776 #
straight-curve $-1 71.061738944669941 24.570666947402195 -3.70393862794942 0 0 -1 I I #
straight-curve $-1 71.061738944669941 31.585356558060305 0 0 0 -1 I I #
coedge $-1 $348 $347 $340 $437 forward $337 $-1 #
edge $-1 $438 16.440396935641871 $441 23.721864362921494 $436 $474 forward 7 unknown #
vertex $-1 $437 $475 #
straight-curve $-1 -71.061738944669941 10.486474769181065 49.843943326807974 0 0 1 I I #
edge $-1 $441 1.7221893400352499 $349 15.80638151825638 $348 $476 forward 7 unknown #
vertex $-1 $440 $477 #
straight-curve $-1 -71.061738944669941 10.486474769181065 2.7599090663059229 -0.68199835119979291 0 -0.73135370988377701 I I #
point $-1 -71.061738944669941 10.486474769181065 2.7599090663059229 #
point $-1 -63.780271517390318 24.570666947402195 10.568327088094904 #
straight-curve $-1 -71.061738944669941 0 10.568327088094904 0 -1 0 I I #
vertex $-1 $355 $478 #
point $-1 -60.916967953256915 17.52857085829163 4.0173239563489087 #
edge $-1 $449 -49.517274581654014 $452 -38.971552843334642 $360 $479 forward 7 unknown #
vertex $-1 $364 $480 #
straight-curve $-1 71.061738944669941 2.9550429449619688 100.82922813016125 0 0 1 I I #
edge $-1 $452 -4.613636570992421 $371 7.9308238230533252 $370 $481 forward 7 unknown #
vertex $-1 $451 $482 #
straight-curve $-1 -42.443116493213083 2.9550429449619688 88.153600822439486 0.79863550430605224 0 -0.6018150307709319 I I #
point $-1 71.061738944669941 2.9550429449619688 2.6215556031945511 #
point $-1 60.516017206350568 -9.5894174490837774 10.568327088094918 #
straight-curve $-1 71.061738944669941 0 10.568327088094904 0 1 0 I I #
vertex $-1 $377 $483 #
point $-1 65.390458724458014 -6.0052859079278527 4.4045808994054658 #
vertex $-1 $381 $484 #
point $-1 65.390458724458014 -0.6290885961939594 4.4045808994054658 #
straight-curve $-1 -71.061738944669941 31.585356558060305 0 0 0 -1 I I #
point $-1 -71.061738944669941 -31.585356558060305 -10.568327088094904 #
straight-curve $-1 -71.061738944669941 0 -10.568327088094904 0 1 0 I I #
point $-1 -71.061738944669941 31.585356558060305 -10.568327088094904 #
straight-curve $-1 -71.061738944669941 -14.039005876365625 -10.068327088094904 0 -1 0 I I #
point $-1 -71.061738944669941 -31.585356558060305 -10.068327088094904 #
point $-1 -71.061738944669941 -24.570666947402195 -10.068327088094904 #
straight-curve $-1 -71.061738944669941 -24.570666947402195 -3.70393862794942 0 0 -1 I I #
straight-curve $-1 -71.061738944669941 -31.585356558060305 0 0 0 -1 I I #
point $-1 -71.061738944669941 24.570666947402195 -10.068327088094904 #
straight-curve $-1 -71.061738944669941 14.039005876365625 -10.068327088094904 0 -1 0 I I #
point $-1 -71.061738944669941 31.585356558060305 -10.068327088094904 #
straight-curve $-1 -71.061738944669941 31.585356558060305 0 0 0 -1 I I #
straight-curve $-1 -87.502135880311812 10.486474769181065 10.568327088094904 1 0 0 I I #
point $-1 -71.061738944669941 10.486474769181065 10.568327088094904 #
straight-curve $-1 -63.780271517390325 8.764285429145815 10.568327088094904 0 1 0 I I #
point $-1 -63.780271517390318 10.486474769181065 10.568327088094904 #
point $-1 -60.793579556546959 17.52857085829163 0.48394380363998346 #
straight-curve $-1 21.544464363015926 2.9550429449619688 10.568327088094904 -1 0 0 I I #
point $-1 71.061738944669941 2.9550429449619688 10.568327088094904 #
straight-curve $-1 60.516017206350575 -1.6585936260304521 10.568327088094897 0 -1 0 I I #
point $-1 60.516017206350568 2.9550429449619688 10.568327088094918 #
point $-1 63.990008189381022 -6.0052859079278527 4.2077604258703456 #
point $-1 63.990008189381022 -0.6290885961939594 4.2077604258703456 #
End-of-ACIS-data 