500 0 7 0           
7 Unknown 11 ACIS 5.0 NT 24 Thu Mar 25 16:35:17 1999 
-1 9.9999999999999995e-007 1e-010 
body $-1 $7 $-1 $8 #
body $-1 $9 $-1 $10 #
body $-1 $11 $-1 $12 #
body $-1 $13 $-1 $14 #
body $-1 $15 $-1 $16 #
body $-1 $17 $-1 $18 #
body $-1 $19 $-1 $20 #
lump $-1 $-1 $21 $0 #
transform $-1 1 0 0 0 1 0 0 0 1 56.423841059602651 29.113200427582505 8.1706565279730068 1 rotate no_reflect no_shear #
lump $-1 $-1 $22 $1 #
transform $-1 1 0 0 0 1 0 0 0 1 56.423841059602651 29.113200427582505 8.1706565279730068 1 rotate no_reflect no_shear #
lump $-1 $-1 $23 $2 #
transform $-1 1 0 0 0 1 0 0 0 1 56.423841059602651 29.113200427582505 8.1706565279730068 1 rotate no_reflect no_shear #
lump $-1 $-1 $24 $3 #
transform $-1 1 0 0 0 1 0 0 0 1 56.423841059602651 29.113200427582505 8.1706565279730068 1 rotate no_reflect no_shear #
lump $-1 $-1 $25 $4 #
transform $-1 1 0 0 0 1 0 0 0 1 56.423841059602651 29.113200427582505 8.1706565279730068 1 rotate no_reflect no_shear #
lump $-1 $-1 $26 $5 #
transform $-1 1 0 0 0 1 0 0 0 1 56.423841059602651 29.113200427582505 8.1706565279730068 1 rotate no_reflect no_shear #
lump $-1 $-1 $27 $6 #
transform $-1 1 0 0 0 1 0 0 0 1 56.423841059602651 29.113200427582505 8.1706565279730068 1 rotate no_reflect no_shear #
shell $-1 $-1 $-1 $28 $-1 $7 #
shell $-1 $-1 $-1 $29 $-1 $9 #
shell $-1 $-1 $-1 $30 $-1 $11 #
shell $-1 $-1 $-1 $31 $-1 $13 #
shell $-1 $-1 $-1 $32 $-1 $15 #
shell $-1 $-1 $-1 $33 $-1 $17 #
shell $-1 $-1 $-1 $34 $-1 $19 #
face $-1 $35 $36 $21 $-1 $37 forward single #
face $-1 $38 $39 $22 $-1 $40 forward single #
face $-1 $41 $42 $23 $-1 $43 reversed single #
face $-1 $44 $45 $24 $-1 $46 forward single #
face $-1 $47 $48 $25 $-1 $49 forward single #
face $-1 $50 $51 $26 $-1 $52 reversed single #
face $-1 $53 $54 $27 $-1 $55 forward single #
face $-1 $56 $57 $21 $-1 $58 reversed single #
loop $-1 $-1 $59 $28 #
plane-surface $-1 0 0 8.1706565279730068 0 0 1 1 0 0 forward_v I I I I #
face $-1 $60 $61 $22 $-1 $62 reversed single #
loop $-1 $-1 $63 $29 #
plane-surface $-1 -52.324850566203395 0 -4.3032905696935018 0 0 1 1 0 0 forward_v I I I I #
face $-1 $64 $65 $23 $-1 $66 reversed single #
loop $-1 $-1 $67 $30 #
plane-surface $-1 28.436665059560106 82.190637150378649 117.79118242192915 1 0 0 0 -0.78801076186113728 -0.61566146476048833 forward_v I I I I #
face $-1 $68 $69 $24 $-1 $70 forward single #
loop $-1 $71 $72 $31 #
cone-surface $-1 36.433001059572263 25.289473159926555 4.0653993945452962 0 -0.78801076186113728 -0.61566146476048833 1.5 0 0 1 I I 0 1 1.5 forward I I I I #
face $-1 $73 $74 $25 $-1 $75 forward single #
loop $-1 $76 $77 $32 #
cone-surface $-1 48.427505059590501 25.289473159926555 4.0653993945452962 0 -0.78801076186113728 -0.61566146476048833 1.5 0 0 1 I I 0 1 1.5 forward I I I I #
face $-1 $78 $79 $26 $-1 $80 reversed single #
loop $-1 $-1 $81 $33 #
plane-surface $-1 28.443141454729975 -122.66816979128768 66.030351807241146 -1 0 0 0 -0.82903758062907751 0.55919289150049634 forward_v I I I I #
face $-1 $82 $83 $27 $-1 $84 forward single #
loop $-1 $85 $86 $34 #
cone-surface $-1 18.097138636852989 -25.195015858323199 4.0987374156208007 0 0.82903758062907751 -0.55919289150049634 1.5 0 0 1 I I 0 1 1.5 forward I I I I #
face $-1 $87 $88 $21 $-1 $89 reversed single #
loop $-1 $-1 $90 $35 #
plane-surface $-1 0 0 -8.1706565279730068 0 0 1 1 0 0 forward_v I I I I #
coedge $-1 $91 $92 $93 $94 forward $36 $-1 #
face $-1 $95 $96 $22 $-1 $97 reversed single #
loop $-1 $-1 $98 $38 #
plane-surface $-1 -48.225860072804139 0 -6.2369735488332543 -1 0 0 0 0 1 forward_v I I I I #
coedge $-1 $99 $100 $101 $102 forward $39 $-1 #
face $-1 $103 $104 $23 $-1 $105 reversed single #
loop $-1 $-1 $106 $41 #
plane-surface $-1 42.430253059581375 -6.7345508106397602 48.315213153593248 0 0.78801076186113728 0.61566146476048833 1 0 0 forward_v I I I I #
coedge $-1 $107 $108 $109 $110 reversed $42 $-1 #
face $-1 $-1 $111 $24 $-1 $112 forward single #
loop $-1 $113 $114 $44 #
cone-surface $-1 36.433001059572263 23.116431336332667 2.3676330988923784 0 -0.78801076186113728 -0.61566146476048833 0.75 0 0 1 I I -0.70710678118654757 0.70710678118654757 0.75 forward I I I I #
loop $-1 $-1 $115 $31 #
coedge $-1 $72 $72 $116 $117 reversed $45 $-1 #
face $-1 $-1 $118 $25 $-1 $119 forward single #
loop $-1 $120 $121 $47 #
cone-surface $-1 48.427505059590501 23.116431336332667 2.3676330988923784 0 -0.78801076186113728 -0.61566146476048833 0.75 0 0 1 I I -0.70710678118654757 0.70710678118654757 0.75 forward I I I I #
loop $-1 $-1 $122 $32 #
coedge $-1 $77 $77 $123 $124 reversed $48 $-1 #
face $-1 $125 $126 $26 $-1 $127 reversed single #
loop $-1 $-1 $128 $50 #
plane-surface $-1 18.097138636852989 -29.113200427582512 2.9267301438738755 0 -0.82903758062907751 0.55919289150049634 1 0 0 forward_v I I I I #
coedge $-1 $129 $130 $131 $132 reversed $51 $-1 #
face $-1 $-1 $133 $27 $-1 $134 forward single #
loop $-1 $135 $136 $53 #
cone-surface $-1 18.097138636852989 -22.423589552395192 2.229386826692787 0 0.82903758062907751 -0.55919289150049634 0.75 0 0 1 I I -0.70710678118654757 0.70710678118654757 0.75 forward I I I I #
loop $-1 $-1 $137 $34 #
coedge $-1 $86 $86 $138 $139 reversed $54 $-1 #
face $-1 $140 $141 $21 $-1 $142 reversed single #
loop $-1 $-1 $143 $56 #
plane-surface $-1 0 -29.113200427582505 0 0 1 0 0 0 1 forward_v I I I I #
coedge $-1 $144 $145 $146 $147 forward $57 $-1 #
coedge $-1 $148 $59 $149 $150 forward $36 $-1 #
coedge $-1 $59 $148 $151 $152 forward $36 $-1 #
coedge $-1 $153 $154 $59 $94 reversed $155 $-1 #
edge $-1 $156 -29.113200427582505 $157 29.113200427582505 $93 $158 forward 7 unknown #
face $-1 $159 $160 $22 $-1 $161 reversed single #
loop $-1 $-1 $162 $60 #
plane-surface $-1 0 0 -8.1706565279730068 0 0 1 1 0 0 forward_v I I I I #
coedge $-1 $163 $101 $164 $165 reversed $61 $-1 #
coedge $-1 $166 $63 $167 $168 reversed $39 $-1 #
coedge $-1 $63 $166 $169 $170 reversed $39 $-1 #
coedge $-1 $98 $171 $63 $102 reversed $61 $-1 #
edge $-1 $172 -29.113200427582505 $173 29.113200427582505 $101 $174 forward 7 unknown #
face $-1 $175 $176 $23 $-1 $177 reversed single #
loop $-1 $-1 $178 $64 #
plane-surface $-1 56.423841059602651 0 0 -1 0 0 0 0 1 forward_v I I I I #
coedge $-1 $179 $180 $181 $182 reversed $65 $-1 #
coedge $-1 $108 $67 $183 $184 reversed $42 $-1 #
coedge $-1 $67 $107 $179 $185 reversed $42 $-1 #
coedge $-1 $181 $186 $67 $110 forward $187 $-1 #
edge $-1 $188 11.982118147606819 $189 16.465505178522658 $109 $190 forward 7 unknown #
loop $-1 $-1 $116 $68 #
plane-surface $-1 42.430253059581375 -6.7345508106397602 48.315213153593248 0 0.78801076186113728 0.61566146476048833 1 0 0 forward_v I I I I #
loop $-1 $-1 $191 $44 #
coedge $-1 $114 $114 $115 $192 reversed $69 $-1 #
coedge $-1 $115 $115 $114 $192 forward $71 $-1 #
coedge $-1 $116 $116 $72 $117 forward $111 $-1 #
edge $-1 $193 1.7517289567077922e-016 $193 6.2831853071796004 $116 $194 forward 7 unknown #
loop $-1 $-1 $123 $73 #
plane-surface $-1 42.430253059581375 -6.7345508106397602 48.315213153593248 0 0.78801076186113728 0.61566146476048833 1 0 0 forward_v I I I I #
loop $-1 $-1 $195 $47 #
coedge $-1 $121 $121 $122 $196 reversed $74 $-1 #
coedge $-1 $122 $122 $121 $196 forward $76 $-1 #
coedge $-1 $123 $123 $77 $124 forward $118 $-1 #
edge $-1 $197 1.7517289567077922e-016 $197 6.2831853071796004 $123 $198 forward 7 unknown #
face $-1 $199 $200 $26 $-1 $201 forward single #
loop $-1 $-1 $202 $78 #
plane-surface $-1 7.7511358189760031 -122.66816979128768 66.030351807241146 1 0 0 0 0.82903758062907751 -0.55919289150049634 forward_v I I I I #
coedge $-1 $203 $204 $205 $206 reversed $79 $-1 #
coedge $-1 $130 $81 $207 $208 reversed $51 $-1 #
coedge $-1 $81 $129 $203 $209 reversed $51 $-1 #
coedge $-1 $205 $210 $81 $132 forward $200 $-1 #
edge $-1 $211 32.220884468061335 $212 35.757957365667536 $131 $213 forward 7 unknown #
loop $-1 $-1 $138 $82 #
plane-surface $-1 18.097138636852989 -29.113200427582512 2.9267301438738755 0 -0.82903758062907751 0.55919289150049634 1 0 0 forward_v I I I I #
loop $-1 $-1 $214 $53 #
coedge $-1 $136 $136 $137 $215 reversed $83 $-1 #
coedge $-1 $137 $137 $136 $215 forward $85 $-1 #
coedge $-1 $138 $138 $86 $139 forward $133 $-1 #
edge $-1 $216 -1.4726665764702982e-015 $216 6.2831853071795987 $138 $217 forward 7 unknown #
face $-1 $218 $219 $21 $-1 $220 reversed single #
loop $-1 $-1 $221 $87 #
plane-surface $-1 -56.423841059602651 0 0 1 0 0 0 0 -1 forward_v I I I I #
coedge $-1 $222 $151 $223 $224 forward $88 $-1 #
coedge $-1 $225 $90 $222 $226 forward $57 $-1 #
coedge $-1 $90 $225 $227 $228 forward $57 $-1 #
coedge $-1 $154 $153 $90 $147 reversed $155 $-1 #
edge $-1 $229 -29.113200427582505 $230 29.113200427582505 $146 $231 forward 7 unknown #
coedge $-1 $92 $91 $232 $233 forward $36 $-1 #
coedge $-1 $234 $235 $91 $150 reversed $219 $-1 #
edge $-1 $157 -56.423841059602651 $236 56.423841059602651 $149 $237 forward 7 unknown #
coedge $-1 $143 $238 $92 $152 reversed $88 $-1 #
edge $-1 $239 -56.423841059602651 $156 56.423841059602651 $151 $240 forward 7 unknown #
coedge $-1 $146 $93 $238 $241 forward $155 $-1 #
coedge $-1 $93 $146 $234 $242 reversed $155 $-1 #
loop $-1 $-1 $153 $218 #
vertex $-1 $94 $243 #
vertex $-1 $94 $244 #
straight-curve $-1 56.423841059602651 0 8.1706565279730068 0 1 0 I I #
face $-1 $245 $246 $22 $-1 $247 reversed single #
loop $-1 $-1 $164 $95 #
plane-surface $-1 0 -29.113200427582505 0 0 1 0 0 0 1 forward_v I I I I #
coedge $-1 $248 $249 $163 $250 forward $96 $-1 #
coedge $-1 $171 $98 $162 $250 reversed $61 $-1 #
coedge $-1 $169 $251 $98 $165 forward $160 $-1 #
edge $-1 $252 -5.0521697535563792 $172 -1.1848037952768746 $164 $253 forward 7 unknown #
coedge $-1 $100 $99 $254 $255 reversed $39 $-1 #
coedge $-1 $256 $257 $99 $168 forward $258 $-1 #
edge $-1 $259 -30.261415776500954 $173 -22.063434789702441 $167 $260 forward 7 unknown #
coedge $-1 $261 $164 $100 $170 forward $160 $-1 #
edge $-1 $172 22.063434789702441 $262 30.261415776500954 $169 $263 forward 7 unknown #
coedge $-1 $101 $163 $256 $264 reversed $61 $-1 #
vertex $-1 $170 $265 #
vertex $-1 $168 $266 #
straight-curve $-1 -48.225860072804139 0 -4.3032905696935018 0 1 0 I I #
face $-1 $-1 $187 $23 $-1 $267 forward single #
loop $-1 $-1 $268 $103 #
plane-surface $-1 0 29.113200427582505 0 0 -1 0 0 0 -1 forward_v I I I I #
coedge $-1 $269 $270 $180 $271 forward $104 $-1 #
coedge $-1 $272 $106 $108 $185 forward $65 $-1 #
coedge $-1 $106 $272 $178 $271 reversed $65 $-1 #
coedge $-1 $273 $109 $106 $182 forward $187 $-1 #
edge $-1 $189 7.2215385297694183 $274 35.208714529811957 $181 $275 forward 7 unknown #
coedge $-1 $276 $268 $107 $184 forward $176 $-1 #
edge $-1 $277 -56.463408555681916 $188 -50.724934682991567 $183 $278 forward 7 unknown #
edge $-1 $189 50.944173060284278 $277 58.226400855165053 $108 $279 forward 7 unknown #
coedge $-1 $109 $273 $276 $280 forward $187 $-1 #
loop $-1 $-1 $181 $175 #
vertex $-1 $184 $281 #
vertex $-1 $110 $282 #
straight-curve $-1 28.436665059560106 41.095318575189324 8.1706565279730086 0 -1 0 I I #
coedge $-1 $191 $191 $-1 $283 reversed $113 $-1 #
edge $-1 $284 0 $284 6.2831853071796004 $114 $285 forward 7 unknown #
vertex $-1 $117 $286 #
ellipse-curve $-1 36.433001059572263 26.87150691212458 5.3014195916278393 0 0.78801076186113728 0.61566146476048833 1.5 0 0 1 I I #
coedge $-1 $195 $195 $-1 $287 reversed $120 $-1 #
edge $-1 $288 0 $288 6.2831853071796004 $121 $289 forward 7 unknown #
vertex $-1 $124 $290 #
ellipse-curve $-1 48.427505059590501 26.87150691212458 5.3014195916278393 0 0.78801076186113728 0.61566146476048833 1.5 0 0 1 I I #
face $-1 $-1 $291 $26 $-1 $292 reversed single #
loop $-1 $-1 $131 $125 #
plane-surface $-1 0 0 8.1706565279730068 0 0 1 1 0 0 forward_v I I I I #
coedge $-1 $293 $294 $295 $296 reversed $126 $-1 #
coedge $-1 $297 $128 $130 $209 forward $79 $-1 #
coedge $-1 $128 $297 $293 $298 forward $79 $-1 #
coedge $-1 $295 $131 $128 $206 forward $200 $-1 #
edge $-1 $212 -19.394572136303481 $299 1.2974334994504915 $205 $300 forward 7 unknown #
coedge $-1 $301 $302 $129 $208 forward $291 $-1 #
edge $-1 $303 -30.088445759746687 $211 -24.844519375647565 $207 $304 forward 7 unknown #
edge $-1 $212 -6.3253180635309869 $303 -1.2809303928265426e-014 $130 $305 forward 7 unknown #
coedge $-1 $131 $295 $301 $306 forward $200 $-1 #
vertex $-1 $208 $307 #
vertex $-1 $132 $308 #
straight-curve $-1 28.443141454729975 -61.334084895643841 8.1706565279730086 0 1 0 I I #
coedge $-1 $214 $214 $-1 $309 reversed $135 $-1 #
edge $-1 $310 0 $310 6.2831853071796004 $136 $311 forward 7 unknown #
vertex $-1 $139 $312 #
ellipse-curve $-1 18.097138636852989 -27.344663978779401 5.5486933359234456 0 -0.82903758062907751 0.55919289150049634 1.5 0 0 1 I I #
face $-1 $-1 $155 $21 $-1 $313 reversed single #
loop $-1 $-1 $234 $140 #
plane-surface $-1 0 29.113200427582505 0 0 -1 0 0 0 -1 forward_v I I I I #
coedge $-1 $314 $232 $235 $315 forward $141 $-1 #
coedge $-1 $238 $143 $144 $226 reversed $88 $-1 #
coedge $-1 $232 $314 $143 $224 reversed $141 $-1 #
edge $-1 $239 -8.1706565279730068 $316 8.1706565279730068 $223 $317 forward 7 unknown #
coedge $-1 $145 $144 $314 $318 forward $57 $-1 #
edge $-1 $230 -56.423841059602651 $316 56.423841059602651 $222 $319 forward 7 unknown #
coedge $-1 $235 $234 $145 $228 reversed $219 $-1 #
edge $-1 $320 -56.423841059602651 $229 56.423841059602651 $227 $321 forward 7 unknown #
vertex $-1 $147 $322 #
vertex $-1 $241 $323 #
straight-curve $-1 56.423841059602651 0 -8.1706565279730068 0 -1 0 I I #
coedge $-1 $221 $223 $148 $233 reversed $141 $-1 #
edge $-1 $236 -29.113200427582505 $239 29.113200427582505 $232 $324 forward 7 unknown #
coedge $-1 $227 $149 $154 $242 forward $219 $-1 #
coedge $-1 $149 $227 $221 $315 reversed $219 $-1 #
vertex $-1 $150 $325 #
straight-curve $-1 0 29.113200427582505 8.1706565279730068 -1 0 0 I I #
coedge $-1 $151 $222 $153 $241 reversed $88 $-1 #
vertex $-1 $233 $326 #
straight-curve $-1 0 -29.113200427582505 8.1706565279730068 1 0 0 I I #
edge $-1 $156 -8.1706565279730068 $230 8.1706565279730068 $153 $327 forward 7 unknown #
edge $-1 $157 -8.1706565279730068 $229 8.1706565279730068 $154 $328 forward 7 unknown #
point $-1 56.423841059602651 -29.113200427582505 8.1706565279730068 #
point $-1 56.423841059602651 29.113200427582505 8.1706565279730068 #
face $-1 $-1 $258 $22 $-1 $329 reversed single #
loop $-1 $-1 $254 $159 #
plane-surface $-1 -56.423841059602651 0 0 1 0 0 0 0 -1 forward_v I I I I #
coedge $-1 $330 $162 $251 $331 forward $96 $-1 #
coedge $-1 $162 $330 $332 $333 forward $96 $-1 #
edge $-1 $334 -29.113200427582505 $252 29.113200427582505 $162 $335 forward 7 unknown #
coedge $-1 $164 $261 $248 $331 reversed $160 $-1 #
vertex $-1 $331 $336 #
straight-curve $-1 -48.225860072804139 -29.113200427582505 -3.1184867744166271 0 0 1 I I #
coedge $-1 $337 $338 $166 $255 forward $246 $-1 #
edge $-1 $262 -29.113200427582505 $259 29.113200427582505 $254 $339 forward 7 unknown #
coedge $-1 $332 $167 $171 $264 forward $258 $-1 #
coedge $-1 $167 $332 $337 $340 reversed $258 $-1 #
loop $-1 $-1 $256 $245 #
vertex $-1 $340 $341 #
straight-curve $-1 -26.162425283101697 29.113200427582505 -4.3032905696935018 1 0 0 I I #
coedge $-1 $251 $169 $338 $342 forward $160 $-1 #
vertex $-1 $342 $343 #
straight-curve $-1 -26.162425283101697 -29.113200427582505 -4.3032905696935018 -1 0 0 I I #
edge $-1 $173 1.1848037952768746 $334 5.0521697535563792 $256 $344 forward 7 unknown #
point $-1 -48.225860072804139 -29.113200427582505 -4.3032905696935018 #
point $-1 -48.225860072804139 29.113200427582505 -4.3032905696935018 #
plane-surface $-1 0 0 8.1706565279730068 0 0 1 1 0 0 forward_v I I I I #
coedge $-1 $183 $345 $272 $346 forward $176 $-1 #
coedge $-1 $270 $178 $345 $347 reversed $104 $-1 #
coedge $-1 $178 $269 $273 $348 reversed $104 $-1 #
edge $-1 $274 29.834617388669948 $349 37.116845183550723 $178 $350 forward 7 unknown #
coedge $-1 $180 $179 $268 $346 reversed $65 $-1 #
coedge $-1 $186 $181 $270 $348 forward $187 $-1 #
vertex $-1 $348 $351 #
straight-curve $-1 21.215126529790687 24.629813396666666 8.1706565279730086 1 0 0 I I #
coedge $-1 $345 $183 $186 $280 reversed $176 $-1 #
vertex $-1 $184 $352 #
straight-curve $-1 28.436665059560106 29.113200427582505 58.895591210964575 0 0 1 I I #
straight-curve $-1 28.436665059560106 -6.7345508106397602 48.315213153593248 0 0.61566146476048833 -0.78801076186113728 I I #
edge $-1 $353 -56.423841059602651 $188 -28.436665059560106 $276 $354 forward 7 unknown #
point $-1 28.436665059560106 29.113200427582505 8.1706565279730068 #
point $-1 28.436665059560106 24.629813396666666 8.1706565279730086 #
edge $-1 $355 1 $355 0 $191 $-1 forward 7 unknown #
vertex $-1 $192 $356 #
ellipse-curve $-1 36.433001059572263 23.707439407728518 2.8293791974627447 0 0.78801076186113728 0.61566146476048833 1.5 0 0 1 I I #
point $-1 37.933001059572263 26.871506912124591 5.3014195916278473 #
edge $-1 $357 1 $357 0 $195 $-1 forward 7 unknown #
vertex $-1 $196 $358 #
ellipse-curve $-1 48.427505059590501 23.707439407728518 2.8293791974627447 0 0.78801076186113728 0.61566146476048833 1.5 0 0 1 I I #
point $-1 49.927505059590501 26.871506912124591 5.3014195916278473 #
loop $-1 $-1 $207 $199 #
plane-surface $-1 0 -29.113200427582505 0 0 1 0 0 0 1 forward_v I I I I #
coedge $-1 $294 $202 $204 $298 reversed $126 $-1 #
coedge $-1 $202 $293 $359 $360 reversed $126 $-1 #
coedge $-1 $210 $205 $202 $296 forward $200 $-1 #
edge $-1 $299 -35.757957365667536 $361 -32.220884468061335 $295 $362 forward 7 unknown #
coedge $-1 $204 $203 $302 $363 reversed $79 $-1 #
edge $-1 $364 1.2809303928265426e-014 $299 6.3253180635309869 $293 $365 forward 7 unknown #
vertex $-1 $206 $366 #
straight-curve $-1 9.0485693184264946 -25.576127529976301 8.1706565279730068 -1 0 0 I I #
coedge $-1 $359 $207 $210 $306 reversed $291 $-1 #
coedge $-1 $207 $359 $297 $363 forward $291 $-1 #
vertex $-1 $208 $367 #
straight-curve $-1 28.443141454729975 -29.113200427582505 33.015175903620573 0 0 1 I I #
straight-curve $-1 28.443141454729975 -29.113200427582512 2.9267301438738755 0 -0.55919289150049634 -0.82903758062907751 I I #
edge $-1 $361 7.7511358189760031 $211 28.443141454729975 $301 $368 forward 7 unknown #
point $-1 28.443141454729975 -29.113200427582505 8.1706565279730068 #
point $-1 28.443141454729975 -25.576127529976301 8.1706565279730068 #
edge $-1 $369 1 $369 0 $214 $-1 forward 7 unknown #
vertex $-1 $215 $370 #
ellipse-curve $-1 18.097138636852989 -23.045367737867 2.6487814953181594 0 -0.82903758062907751 0.55919289150049634 1.5 0 0 1 I I #
point $-1 19.597138636852989 -27.344663978779401 5.5486933359234429 #
plane-surface $-1 56.423841059602651 0 0 -1 0 0 0 0 1 forward_v I I I I #
coedge $-1 $223 $221 $225 $318 reversed $141 $-1 #
edge $-1 $236 -8.1706565279730068 $320 8.1706565279730068 $235 $371 forward 7 unknown #
vertex $-1 $318 $372 #
straight-curve $-1 -56.423841059602651 -29.113200427582505 0 0 0 -1 I I #
edge $-1 $316 -29.113200427582505 $320 29.113200427582505 $314 $373 forward 7 unknown #
straight-curve $-1 0 -29.113200427582505 -8.1706565279730068 -1 0 0 I I #
vertex $-1 $228 $374 #
straight-curve $-1 0 29.113200427582505 -8.1706565279730068 1 0 0 I I #
point $-1 56.423841059602651 29.113200427582505 -8.1706565279730068 #
point $-1 56.423841059602651 -29.113200427582505 -8.1706565279730068 #
straight-curve $-1 -56.423841059602651 0 8.1706565279730068 0 -1 0 I I #
point $-1 -56.423841059602651 29.113200427582505 8.1706565279730068 #
point $-1 -56.423841059602651 -29.113200427582505 8.1706565279730068 #
straight-curve $-1 56.423841059602651 -29.113200427582505 0 0 0 -1 I I #
straight-curve $-1 56.423841059602651 29.113200427582505 0 0 0 -1 I I #
plane-surface $-1 0 29.113200427582505 0 0 -1 0 0 0 -1 forward_v I I I I #
coedge $-1 $249 $248 $375 $376 forward $96 $-1 #
edge $-1 $252 48.225860072804139 $377 56.423841059602651 $251 $378 forward 7 unknown #
coedge $-1 $257 $256 $249 $333 reversed $258 $-1 #
edge $-1 $379 -56.423841059602651 $334 -48.225860072804139 $332 $380 forward 7 unknown #
vertex $-1 $264 $381 #
straight-curve $-1 -48.225860072804139 0 -8.1706565279730068 0 -1 0 I I #
point $-1 -48.225860072804139 -29.113200427582505 -8.1706565279730068 #
coedge $-1 $375 $254 $257 $340 forward $246 $-1 #
coedge $-1 $254 $375 $261 $342 reversed $246 $-1 #
straight-curve $-1 -56.423841059602651 0 -4.3032905696935018 0 1 0 I I #
edge $-1 $259 4.3032905696935018 $379 8.1706565279730068 $257 $382 forward 7 unknown #
point $-1 -56.423841059602651 29.113200427582505 -4.3032905696935018 #
edge $-1 $262 4.3032905696935018 $377 8.1706565279730068 $338 $383 forward 7 unknown #
point $-1 -56.423841059602651 -29.113200427582505 -4.3032905696935018 #
straight-curve $-1 -48.225860072804139 29.113200427582505 -3.1184867744166271 0 0 -1 I I #
coedge $-1 $268 $276 $269 $347 forward $176 $-1 #
edge $-1 $349 -35.208714529811957 $277 -7.2215385297694183 $268 $384 forward 7 unknown #
edge $-1 $353 -8.1706565279730068 $349 -2.4321826552826593 $269 $385 forward 7 unknown #
edge $-1 $274 24.629813396666666 $353 29.113200427582505 $270 $386 forward 7 unknown #
vertex $-1 $271 $387 #
straight-curve $-1 56.423841059602651 6.261789154589394 31.680656106254347 0 0.61566146476048833 -0.78801076186113728 I I #
point $-1 56.423841059602644 24.629813396666666 8.1706565279730086 #
point $-1 28.436665059560106 29.113200427582505 2.4321826552826593 #
vertex $-1 $348 $388 #
straight-curve $-1 0 29.113200427582505 8.1706565279730068 -1 0 0 I I #
vertex $-1 $283 $389 #
point $-1 37.933001059572263 23.707439407728518 2.8293791974627447 #
vertex $-1 $287 $390 #
point $-1 49.927505059590501 23.707439407728518 2.8293791974627447 #
coedge $-1 $302 $301 $294 $360 forward $291 $-1 #
edge $-1 $361 24.844519375647565 $364 30.088445759746687 $359 $391 forward 7 unknown #
vertex $-1 $306 $392 #
straight-curve $-1 7.7511358189760031 -61.334084895643841 8.1706565279730086 0 -1 0 I I #
edge $-1 $364 -1.2974334994504915 $303 19.394572136303481 $302 $393 forward 7 unknown #
vertex $-1 $363 $394 #
straight-curve $-1 7.7511358189760031 -29.113200427582512 2.9267301438738755 0 0.55919289150049634 0.82903758062907751 I I #
point $-1 7.7511358189760031 -25.576127529976301 8.1706565279730068 #
point $-1 28.443141454729975 -29.113200427582505 2.9267301438738862 #
straight-curve $-1 0 -29.113200427582505 8.1706565279730068 1 0 0 I I #
vertex $-1 $309 $395 #
point $-1 19.597138636852989 -23.045367737867 2.6487814953181594 #
straight-curve $-1 -56.423841059602651 29.113200427582505 0 0 0 -1 I I #
point $-1 -56.423841059602651 -29.113200427582505 -8.1706565279730068 #
straight-curve $-1 -56.423841059602651 0 -8.1706565279730068 0 1 0 I I #
point $-1 -56.423841059602651 29.113200427582505 -8.1706565279730068 #
coedge $-1 $338 $337 $330 $376 reversed $246 $-1 #
edge $-1 $377 -29.113200427582505 $379 29.113200427582505 $375 $396 forward 7 unknown #
vertex $-1 $376 $397 #
straight-curve $-1 0 -29.113200427582505 -8.1706565279730068 -1 0 0 I I #
vertex $-1 $333 $398 #
straight-curve $-1 0 29.113200427582505 -8.1706565279730068 1 0 0 I I #
point $-1 -48.225860072804139 29.113200427582505 -8.1706565279730068 #
straight-curve $-1 -56.423841059602651 29.113200427582505 0 0 0 -1 I I #
straight-curve $-1 -56.423841059602651 -29.113200427582505 0 0 0 -1 I I #
straight-curve $-1 21.215126529790687 29.113200427582505 2.4321826552826629 -1 0 0 I I #
straight-curve $-1 56.423841059602651 29.113200427582505 0 0 0 -1 I I #
straight-curve $-1 56.423841059602651 0 8.1706565279730068 0 1 0 I I #
point $-1 56.423841059602644 29.113200427582505 2.4321826552826593 #
point $-1 56.423841059602651 29.113200427582505 8.1706565279730068 #
point $-1 36.433001059572263 22.525423264936816 1.9058870003220121 #
point $-1 48.427505059590501 22.525423264936816 1.9058870003220121 #
straight-curve $-1 7.7511358189760031 -29.113200427582505 33.015175903620573 0 0 -1 I I #
point $-1 7.7511358189760031 -29.113200427582505 8.1706565279730068 #
straight-curve $-1 9.0485693184264946 -29.113200427582505 2.9267301438738857 1 0 0 I I #
point $-1 7.7511358189760031 -29.113200427582505 2.9267301438738862 #
point $-1 18.097138636852989 -21.801811366923385 1.8099921580674148 #
straight-curve $-1 -56.423841059602651 0 -8.1706565279730068 0 1 0 I I #
point $-1 -56.423841059602651 -29.113200427582505 -8.1706565279730068 #
point $-1 -56.423841059602651 29.113200427582505 -8.1706565279730068 #
End-of-ACIS-data 