500 0 5 0           
7 Unknown 11 ACIS 5.0 NT 24 Thu Mar 25 18:31:54 1999 
-1 9.9999999999999995e-007 1e-010 
body $-1 $5 $-1 $6 #
body $-1 $7 $-1 $8 #
body $-1 $9 $-1 $10 #
body $-1 $11 $-1 $12 #
body $-1 $13 $-1 $14 #
lump $-1 $-1 $15 $0 #
transform $-1 1 0 0 0 1 0 0 0 1 73.835261085848572 39.999301219550361 15.370683959653563 1 rotate no_reflect no_shear #
lump $-1 $-1 $16 $1 #
transform $-1 1 0 0 0 1 0 0 0 1 73.835261085848572 39.999301219550361 15.370683959653563 1 rotate no_reflect no_shear #
lump $-1 $-1 $17 $2 #
transform $-1 1 0 0 0 1 0 0 0 1 73.835261085848572 39.999301219550361 15.370683959653563 1 rotate no_reflect no_shear #
lump $-1 $-1 $18 $3 #
transform $-1 1 0 0 0 1 0 0 0 1 73.835261085848572 39.999301219550361 15.370683959653563 1 rotate no_reflect no_shear #
lump $-1 $-1 $19 $4 #
transform $-1 1 0 0 0 1 0 0 0 1 73.835261085848572 39.999301219550361 15.370683959653563 1 rotate no_reflect no_shear #
shell $-1 $-1 $-1 $20 $-1 $5 #
shell $-1 $-1 $-1 $21 $-1 $7 #
shell $-1 $-1 $-1 $22 $-1 $9 #
shell $-1 $-1 $-1 $23 $-1 $11 #
shell $-1 $-1 $-1 $24 $-1 $13 #
face $-1 $25 $26 $15 $-1 $27 forward single #
face $-1 $28 $29 $16 $-1 $30 forward single #
face $-1 $31 $32 $17 $-1 $33 reversed single #
face $-1 $34 $35 $18 $-1 $36 forward single #
face $-1 $37 $38 $19 $-1 $39 forward single #
face $-1 $40 $41 $15 $-1 $42 reversed single #
loop $-1 $-1 $43 $20 #
plane-surface $-1 0 0 15.370683959653563 0 0 1 1 0 0 forward_v I I I I #
face $-1 $44 $45 $16 $-1 $46 reversed single #
loop $-1 $-1 $47 $21 #
plane-surface $-1 -73.835261085848572 0 0 1 0 0 0 0 -1 forward_v I I I I #
face $-1 $48 $49 $17 $-1 $50 reversed single #
loop $-1 $-1 $51 $22 #
plane-surface $-1 37.570984684983131 -24.83230364494441 206.71939710272787 0 -1 0 -0.57357644374324357 0 -0.81915203911291934 forward_v I I I I #
face $-1 $52 $53 $18 $-1 $54 forward single #
loop $-1 $55 $56 $23 #
cone-surface $-1 62.934632298369287 -32.157838683810397 7.2445965101531531 -0.57357644374324357 0 -0.81915203911291934 0.81915203911291934 0 -0.57357644374324357 1 I I 0 1 1 forward I I I I #
face $-1 $57 $58 $19 $-1 $59 forward single #
loop $-1 $60 $61 $24 #
cone-surface $-1 62.934632298369287 -27.762517660490804 7.2445965101531531 -0.57357644374324357 0 -0.81915203911291934 0.81915203911291934 0 -0.57357644374324357 1 I I 0 1 1 forward I I I I #
face $-1 $62 $63 $15 $-1 $64 reversed single #
loop $-1 $-1 $65 $25 #
plane-surface $-1 0 0 -15.370683959653563 0 0 1 1 0 0 forward_v I I I I #
coedge $-1 $66 $67 $68 $69 forward $26 $-1 #
face $-1 $70 $71 $16 $-1 $72 reversed single #
loop $-1 $-1 $73 $28 #
plane-surface $-1 0 39.999301219550361 0 0 -1 0 0 0 -1 forward_v I I I I #
coedge $-1 $74 $75 $76 $77 forward $29 $-1 #
face $-1 $78 $79 $17 $-1 $80 reversed single #
loop $-1 $-1 $81 $31 #
plane-surface $-1 -47.129348267966719 -29.960178172150599 85.754787748912591 0.57357644374324357 0 0.81915203911291934 0.81915203911291934 0 -0.57357644374324357 forward_v I I I I #
coedge $-1 $82 $83 $84 $85 reversed $32 $-1 #
face $-1 $-1 $86 $18 $-1 $87 forward single #
loop $-1 $88 $89 $34 #
cone-surface $-1 61.970062164765181 -32.157838683810397 5.8670476229416675 -0.57357644374324357 0 -0.81915203911291934 0.40957601955645967 0 -0.28678822187162178 1 I I -0.70710678118654746 0.70710678118654746 0.5 forward I I I I #
loop $-1 $-1 $90 $23 #
coedge $-1 $56 $56 $91 $92 reversed $35 $-1 #
face $-1 $-1 $93 $19 $-1 $94 forward single #
loop $-1 $95 $96 $37 #
cone-surface $-1 61.970062164765181 -27.762517660490804 5.8670476229416675 -0.57357644374324357 0 -0.81915203911291934 0.40957601955645967 0 -0.28678822187162178 1 I I -0.70710678118654746 0.70710678118654746 0.5 forward I I I I #
loop $-1 $-1 $97 $24 #
coedge $-1 $61 $61 $98 $99 reversed $38 $-1 #
face $-1 $100 $101 $15 $-1 $102 reversed single #
loop $-1 $-1 $103 $40 #
plane-surface $-1 0 -39.999301219550361 0 0 1 0 0 0 1 forward_v I I I I #
coedge $-1 $104 $105 $106 $107 forward $41 $-1 #
coedge $-1 $108 $43 $109 $110 forward $26 $-1 #
coedge $-1 $43 $108 $111 $112 forward $26 $-1 #
coedge $-1 $113 $114 $43 $69 reversed $115 $-1 #
edge $-1 $116 -39.999301219550361 $117 39.999301219550361 $68 $118 forward 7 unknown #
face $-1 $119 $120 $16 $-1 $121 reversed single #
loop $-1 $-1 $76 $44 #
plane-surface $-1 -83.109163510905248 0 7.3722241618065532 0 0 1 1 0 0 forward_v I I I I #
coedge $-1 $122 $123 $74 $124 forward $45 $-1 #
coedge $-1 $125 $47 $73 $124 reversed $29 $-1 #
coedge $-1 $47 $125 $126 $127 reversed $29 $-1 #
coedge $-1 $128 $129 $47 $77 reversed $71 $-1 #
edge $-1 $130 -39.999301219550361 $131 39.999301219550361 $76 $132 forward 7 unknown #
face $-1 $133 $134 $17 $-1 $135 forward single #
loop $-1 $-1 $136 $48 #
plane-surface $-1 37.570984684983131 -35.088052699356787 206.71939710272787 0 1 0 0.57357644374324357 0 0.81915203911291934 forward_v I I I I #
coedge $-1 $137 $138 $139 $140 reversed $49 $-1 #
coedge $-1 $83 $51 $141 $142 reversed $32 $-1 #
coedge $-1 $51 $82 $137 $143 reversed $32 $-1 #
coedge $-1 $139 $144 $51 $85 forward $134 $-1 #
edge $-1 $145 -55.049768743357006 $146 -34.604074991863357 $84 $147 forward 7 unknown #
loop $-1 $-1 $91 $52 #
plane-surface $-1 -47.129348267966719 -29.960178172150599 85.754787748912591 0.57357644374324357 0 0.81915203911291934 0.81915203911291934 0 -0.57357644374324357 forward_v I I I I #
loop $-1 $-1 $148 $34 #
coedge $-1 $89 $89 $90 $149 reversed $53 $-1 #
coedge $-1 $90 $90 $89 $149 forward $55 $-1 #
coedge $-1 $91 $91 $56 $92 forward $86 $-1 #
edge $-1 $150 0 $150 6.2831853071796004 $91 $151 forward 7 unknown #
loop $-1 $-1 $98 $57 #
plane-surface $-1 -47.129348267966719 -29.960178172150599 85.754787748912591 0.57357644374324357 0 0.81915203911291934 0.81915203911291934 0 -0.57357644374324357 forward_v I I I I #
loop $-1 $-1 $152 $37 #
coedge $-1 $96 $96 $97 $153 reversed $58 $-1 #
coedge $-1 $97 $97 $96 $153 forward $60 $-1 #
coedge $-1 $98 $98 $61 $99 forward $93 $-1 #
edge $-1 $154 0 $154 6.2831853071796004 $98 $155 forward 7 unknown #
face $-1 $156 $157 $15 $-1 $158 reversed single #
loop $-1 $-1 $159 $62 #
plane-surface $-1 -73.835261085848572 0 0 1 0 0 0 0 -1 forward_v I I I I #
coedge $-1 $160 $111 $161 $162 forward $63 $-1 #
coedge $-1 $163 $65 $160 $164 forward $41 $-1 #
coedge $-1 $65 $163 $165 $166 forward $41 $-1 #
coedge $-1 $114 $113 $65 $107 reversed $115 $-1 #
edge $-1 $167 -39.999301219550361 $168 39.999301219550361 $106 $169 forward 7 unknown #
coedge $-1 $67 $66 $170 $171 forward $26 $-1 #
coedge $-1 $172 $173 $66 $110 reversed $157 $-1 #
edge $-1 $117 -73.835261085848572 $174 73.835261085848572 $109 $175 forward 7 unknown #
coedge $-1 $103 $176 $67 $112 reversed $63 $-1 #
edge $-1 $177 -73.835261085848572 $116 73.835261085848572 $111 $178 forward 7 unknown #
coedge $-1 $106 $68 $176 $179 forward $115 $-1 #
coedge $-1 $68 $106 $172 $180 reversed $115 $-1 #
loop $-1 $-1 $113 $156 #
vertex $-1 $69 $181 #
vertex $-1 $69 $182 #
straight-curve $-1 73.835261085848572 0 15.370683959653563 0 1 0 I I #
face $-1 $183 $184 $16 $-1 $185 forward single #
loop $-1 $-1 $186 $70 #
plane-surface $-1 -92.383065935961923 0 11.371454060730057 1 0 0 0 0 -1 forward_v I I I I #
coedge $-1 $187 $73 $129 $188 reversed $45 $-1 #
coedge $-1 $73 $187 $189 $190 reversed $45 $-1 #
edge $-1 $191 -15.370683959653563 $131 -7.3722241618065532 $73 $192 forward 7 unknown #
coedge $-1 $75 $74 $193 $194 reversed $29 $-1 #
coedge $-1 $195 $196 $75 $127 forward $197 $-1 #
edge $-1 $130 7.3722241618065532 $198 15.370683959653563 $126 $199 forward 7 unknown #
coedge $-1 $200 $76 $196 $201 forward $71 $-1 #
coedge $-1 $76 $200 $122 $188 forward $71 $-1 #
vertex $-1 $127 $202 #
vertex $-1 $124 $203 #
straight-curve $-1 -73.835261085848572 0 7.3722241618065532 0 1 0 I I #
face $-1 $-1 $204 $17 $-1 $205 reversed single #
loop $-1 $-1 $84 $78 #
plane-surface $-1 0 0 15.370683959653563 0 0 1 1 0 0 forward_v I I I I #
coedge $-1 $206 $207 $208 $209 reversed $79 $-1 #
coedge $-1 $210 $81 $83 $143 forward $49 $-1 #
coedge $-1 $81 $210 $206 $211 forward $49 $-1 #
coedge $-1 $208 $84 $81 $140 forward $134 $-1 #
edge $-1 $146 9.852214558869111 $212 20.107963613281488 $139 $213 forward 7 unknown #
coedge $-1 $214 $215 $82 $142 forward $204 $-1 #
edge $-1 $216 -102.30524375540119 $145 -87.989014591710372 $141 $217 forward 7 unknown #
edge $-1 $146 122.71093863255976 $216 147.67052217169714 $83 $218 forward 7 unknown #
coedge $-1 $84 $208 $214 $219 forward $134 $-1 #
vertex $-1 $142 $220 #
vertex $-1 $85 $221 #
straight-curve $-1 18.785492342491565 -24.83230364494441 15.370683959653562 -1 0 0 I I #
coedge $-1 $148 $148 $-1 $222 reversed $88 $-1 #
edge $-1 $223 0 $223 6.2831853071796004 $89 $224 forward 7 unknown #
vertex $-1 $92 $225 #
ellipse-curve $-1 63.612414210101754 -32.157838683810397 8.2125693778081512 0.57357644374324357 0 0.81915203911291934 0.81915203911291934 0 -0.57357644374324357 1 I I #
coedge $-1 $152 $152 $-1 $226 reversed $95 $-1 #
edge $-1 $227 0 $227 6.2831853071796004 $96 $228 forward 7 unknown #
vertex $-1 $99 $229 #
ellipse-curve $-1 63.612414210101754 -27.762517660490804 8.2125693778081512 0.57357644374324357 0 0.81915203911291934 0.81915203911291934 0 -0.57357644374324357 1 I I #
face $-1 $-1 $115 $15 $-1 $230 reversed single #
loop $-1 $-1 $172 $100 #
plane-surface $-1 0 39.999301219550361 0 0 -1 0 0 0 -1 forward_v I I I I #
coedge $-1 $231 $170 $173 $232 forward $101 $-1 #
coedge $-1 $176 $103 $104 $164 reversed $63 $-1 #
coedge $-1 $170 $231 $103 $162 reversed $101 $-1 #
edge $-1 $177 -15.370683959653563 $233 15.370683959653563 $161 $234 forward 7 unknown #
coedge $-1 $105 $104 $231 $235 forward $41 $-1 #
edge $-1 $168 -73.835261085848572 $233 73.835261085848572 $160 $236 forward 7 unknown #
coedge $-1 $173 $172 $105 $166 reversed $157 $-1 #
edge $-1 $237 -73.835261085848572 $167 73.835261085848572 $165 $238 forward 7 unknown #
vertex $-1 $107 $239 #
vertex $-1 $179 $240 #
straight-curve $-1 73.835261085848572 0 -15.370683959653563 0 -1 0 I I #
coedge $-1 $159 $161 $108 $171 reversed $101 $-1 #
edge $-1 $174 -39.999301219550361 $177 39.999301219550361 $170 $241 forward 7 unknown #
coedge $-1 $165 $109 $114 $180 forward $157 $-1 #
coedge $-1 $109 $165 $159 $232 reversed $157 $-1 #
vertex $-1 $110 $242 #
straight-curve $-1 0 39.999301219550361 15.370683959653563 -1 0 0 I I #
coedge $-1 $111 $160 $113 $179 reversed $63 $-1 #
vertex $-1 $171 $243 #
straight-curve $-1 0 -39.999301219550361 15.370683959653563 1 0 0 I I #
edge $-1 $116 -15.370683959653563 $168 15.370683959653563 $113 $244 forward 7 unknown #
edge $-1 $117 -15.370683959653563 $167 15.370683959653563 $114 $245 forward 7 unknown #
point $-1 73.835261085848572 -39.999301219550361 15.370683959653563 #
point $-1 73.835261085848572 39.999301219550361 15.370683959653563 #
face $-1 $-1 $197 $16 $-1 $246 reversed single #
loop $-1 $-1 $193 $119 #
plane-surface $-1 0 0 15.370683959653563 0 0 1 1 0 0 forward_v I I I I #
coedge $-1 $247 $248 $187 $249 forward $120 $-1 #
coedge $-1 $123 $122 $186 $249 reversed $45 $-1 #
edge $-1 $250 -9.2739024250566757 $131 9.2739024250566757 $122 $251 forward 7 unknown #
coedge $-1 $252 $193 $123 $190 forward $184 $-1 #
edge $-1 $191 73.835261085848572 $253 92.383065935961923 $123 $254 forward 7 unknown #
vertex $-1 $190 $255 #
straight-curve $-1 -73.835261085848572 39.999301219550361 0 0 0 -1 I I #
coedge $-1 $189 $256 $125 $194 forward $184 $-1 #
edge $-1 $198 -39.999301219550361 $191 39.999301219550361 $193 $257 forward 7 unknown #
coedge $-1 $258 $126 $256 $259 reversed $197 $-1 #
coedge $-1 $126 $258 $128 $201 reversed $197 $-1 #
loop $-1 $-1 $126 $183 #
vertex $-1 $127 $260 #
straight-curve $-1 -73.835261085848572 -39.999301219550361 0 0 0 1 I I #
coedge $-1 $129 $128 $247 $261 forward $71 $-1 #
edge $-1 $130 -9.2739024250566757 $262 9.2739024250566757 $196 $263 forward 7 unknown #
point $-1 -73.835261085848572 -39.999301219550361 7.3722241618065532 #
point $-1 -73.835261085848572 39.999301219550361 7.3722241618065532 #
loop $-1 $-1 $141 $133 #
plane-surface $-1 73.835261085848572 0 0 -1 0 0 0 0 1 forward_v I I I I #
coedge $-1 $207 $136 $138 $211 reversed $79 $-1 #
coedge $-1 $136 $206 $264 $265 reversed $79 $-1 #
coedge $-1 $144 $139 $136 $209 forward $134 $-1 #
edge $-1 $212 34.604074991863357 $266 55.049768743357006 $208 $267 forward 7 unknown #
coedge $-1 $138 $137 $215 $268 reversed $49 $-1 #
edge $-1 $269 -147.67052217169714 $212 -122.71093863255976 $206 $270 forward 7 unknown #
vertex $-1 $140 $271 #
straight-curve $-1 53.389567334354901 -14.980089086075299 15.370683959653569 0 -1 0 I I #
coedge $-1 $264 $141 $144 $219 reversed $204 $-1 #
coedge $-1 $141 $264 $210 $268 forward $204 $-1 #
vertex $-1 $142 $272 #
straight-curve $-1 73.835261085848572 -24.83230364494441 103.35969855136393 0 0 1 I I #
straight-curve $-1 -47.129348267966719 -24.83230364494441 85.754787748912591 0.81915203911291934 0 -0.57357644374324357 I I #
edge $-1 $266 -35.088052699356787 $145 -24.83230364494441 $214 $273 forward 7 unknown #
point $-1 73.835261085848572 -24.83230364494441 15.370683959653563 #
point $-1 53.389567334354922 -24.83230364494441 15.370683959653562 #
edge $-1 $274 1 $274 0 $148 $-1 forward 7 unknown #
vertex $-1 $149 $275 #
ellipse-curve $-1 62.256850386636806 -32.157838683810397 6.2766236424981274 0.57357644374324357 0 0.81915203911291934 0.81915203911291934 0 -0.57357644374324357 1 I I #
point $-1 64.431566249214697 -32.157838683810397 7.6389929340649356 #
edge $-1 $276 1 $276 0 $152 $-1 forward 7 unknown #
vertex $-1 $153 $277 #
ellipse-curve $-1 62.256850386636806 -27.762517660490804 6.2766236424981274 0.57357644374324357 0 0.81915203911291934 0.81915203911291934 0 -0.57357644374324357 1 I I #
point $-1 64.431566249214697 -27.762517660490804 7.6389929340649356 #
plane-surface $-1 73.835261085848572 0 0 -1 0 0 0 0 1 forward_v I I I I #
coedge $-1 $161 $159 $163 $235 reversed $101 $-1 #
edge $-1 $174 -15.370683959653563 $237 15.370683959653563 $173 $278 forward 7 unknown #
vertex $-1 $235 $279 #
straight-curve $-1 -73.835261085848572 -39.999301219550361 0 0 0 -1 I I #
edge $-1 $233 -39.999301219550361 $237 39.999301219550361 $231 $280 forward 7 unknown #
straight-curve $-1 0 -39.999301219550361 -15.370683959653563 -1 0 0 I I #
vertex $-1 $166 $281 #
straight-curve $-1 0 39.999301219550361 -15.370683959653563 1 0 0 I I #
point $-1 73.835261085848572 39.999301219550361 -15.370683959653563 #
point $-1 73.835261085848572 -39.999301219550361 -15.370683959653563 #
straight-curve $-1 -73.835261085848572 0 15.370683959653563 0 -1 0 I I #
point $-1 -73.835261085848572 39.999301219550361 15.370683959653563 #
point $-1 -73.835261085848572 -39.999301219550361 15.370683959653563 #
straight-curve $-1 73.835261085848572 -39.999301219550361 0 0 0 -1 I I #
straight-curve $-1 73.835261085848572 39.999301219550361 0 0 0 -1 I I #
plane-surface $-1 0 -39.999301219550361 0 0 1 0 0 0 1 forward_v I I I I #
coedge $-1 $282 $186 $200 $261 reversed $120 $-1 #
coedge $-1 $186 $282 $252 $283 reversed $120 $-1 #
edge $-1 $253 -3.9992298989235042 $250 3.9992298989235042 $187 $284 forward 7 unknown #
vertex $-1 $188 $285 #
straight-curve $-1 -83.109163510905248 39.999301219550361 7.3722241618065532 1 0 0 I I #
coedge $-1 $256 $189 $248 $283 forward $184 $-1 #
vertex $-1 $190 $286 #
straight-curve $-1 0 39.999301219550361 15.370683959653563 -1 0 0 I I #
point $-1 -73.835261085848572 39.999301219550361 15.370683959653563 #
coedge $-1 $193 $252 $195 $259 forward $184 $-1 #
straight-curve $-1 -73.835261085848572 0 15.370683959653563 0 1 0 I I #
coedge $-1 $196 $195 $282 $287 forward $197 $-1 #
edge $-1 $288 -92.383065935961923 $198 -73.835261085848572 $195 $289 forward 7 unknown #
point $-1 -73.835261085848572 -39.999301219550361 15.370683959653563 #
edge $-1 $262 -39.999301219550361 $250 39.999301219550361 $247 $290 forward 7 unknown #
vertex $-1 $261 $291 #
straight-curve $-1 -83.109163510905248 -39.999301219550361 7.3722241618065532 -1 0 0 I I #
coedge $-1 $215 $214 $207 $265 forward $204 $-1 #
edge $-1 $266 87.989014591710372 $269 102.30524375540119 $264 $292 forward 7 unknown #
vertex $-1 $219 $293 #
straight-curve $-1 18.785492342491565 -35.088052699356787 15.370683959653562 1 0 0 I I #
edge $-1 $269 -20.107963613281488 $216 -9.852214558869111 $215 $294 forward 7 unknown #
vertex $-1 $268 $295 #
straight-curve $-1 -47.129348267966719 -35.088052699356787 85.754787748912591 -0.81915203911291934 0 0.57357644374324357 I I #
point $-1 53.389567334354922 -35.088052699356787 15.370683959653562 #
point $-1 73.835261085848558 -24.83230364494441 1.0544547959627408 #
straight-curve $-1 73.835261085848572 0 15.370683959653563 0 1 0 I I #
vertex $-1 $222 $296 #
point $-1 63.076002425749721 -32.157838683810397 5.7030471987548834 #
vertex $-1 $226 $297 #
point $-1 63.076002425749721 -27.762517660490804 5.7030471987548834 #
straight-curve $-1 -73.835261085848572 39.999301219550361 0 0 0 -1 I I #
point $-1 -73.835261085848572 -39.999301219550361 -15.370683959653563 #
straight-curve $-1 -73.835261085848572 0 -15.370683959653563 0 1 0 I I #
point $-1 -73.835261085848572 39.999301219550361 -15.370683959653563 #
coedge $-1 $248 $247 $258 $287 reversed $120 $-1 #
edge $-1 $253 -39.999301219550361 $288 39.999301219550361 $248 $298 forward 7 unknown #
straight-curve $-1 -92.383065935961923 39.999301219550361 11.371454060730057 0 0 -1 I I #
point $-1 -92.383065935961923 39.999301219550361 7.3722241618065532 #
point $-1 -92.383065935961923 39.999301219550361 15.370683959653562 #
edge $-1 $288 -3.9992298989235042 $262 3.9992298989235042 $282 $299 forward 7 unknown #
vertex $-1 $283 $300 #
straight-curve $-1 0 -39.999301219550361 15.370683959653563 1 0 0 I I #
straight-curve $-1 -92.383065935961923 0 7.3722241618065532 0 1 0 I I #
point $-1 -92.383065935961923 -39.999301219550361 7.3722241618065532 #
straight-curve $-1 73.835261085848572 -35.088052699356787 103.35969855136393 0 0 -1 I I #
point $-1 73.835261085848572 -35.088052699356787 15.370683959653563 #
straight-curve $-1 73.835261085848572 -14.980089086075299 1.0544547959627408 0 1 0 I I #
point $-1 73.835261085848558 -35.088052699356787 1.0544547959627408 #
point $-1 61.683273942893557 -32.157838683810397 5.4574716033852075 #
point $-1 61.683273942893557 -27.762517660490804 5.4574716033852075 #
straight-curve $-1 -92.383065935961923 0 15.370683959653562 0 -1 0 I I #
straight-curve $-1 -92.383065935961923 -39.999301219550361 11.371454060730057 0 0 -1 I I #
point $-1 -92.383065935961923 -39.999301219550361 15.370683959653562 #
End-of-ACIS-data 