500 0 9 0           
7 Unknown 11 ACIS 5.0 NT 24 Fri Mar 26 03:34:11 1999 
-1 9.9999999999999995e-007 1e-010 
body $-1 $9 $-1 $10 #
body $-1 $11 $-1 $12 #
body $-1 $13 $-1 $14 #
body $-1 $15 $-1 $16 #
body $-1 $17 $-1 $18 #
body $-1 $19 $-1 $20 #
body $-1 $21 $-1 $22 #
body $-1 $23 $-1 $24 #
body $-1 $25 $-1 $26 #
lump $-1 $-1 $27 $0 #
transform $-1 1 0 0 0 1 0 0 0 1 66.795251319925541 29.665759251948984 13.83825689230369 1 rotate no_reflect no_shear #
lump $-1 $-1 $28 $1 #
transform $-1 1 0 0 0 1 0 0 0 1 66.795251319925541 29.665759251948984 13.83825689230369 1 rotate no_reflect no_shear #
lump $-1 $-1 $29 $2 #
transform $-1 1 0 0 0 1 0 0 0 1 66.795251319925541 29.665759251948984 13.83825689230369 1 rotate no_reflect no_shear #
lump $-1 $-1 $30 $3 #
transform $-1 1 0 0 0 1 0 0 0 1 66.795251319925541 29.665759251948984 13.83825689230369 1 rotate no_reflect no_shear #
lump $-1 $-1 $31 $4 #
transform $-1 1 0 0 0 1 0 0 0 1 66.795251319925541 29.665759251948984 13.83825689230369 1 rotate no_reflect no_shear #
lump $-1 $-1 $32 $5 #
transform $-1 1 0 0 0 1 0 0 0 1 66.795251319925541 29.665759251948984 13.83825689230369 1 rotate no_reflect no_shear #
lump $-1 $-1 $33 $6 #
transform $-1 1 0 0 0 1 0 0 0 1 66.795251319925541 29.665759251948984 13.83825689230369 1 rotate no_reflect no_shear #
lump $-1 $-1 $34 $7 #
transform $-1 1 0 0 0 1 0 0 0 1 66.795251319925541 29.665759251948984 13.83825689230369 1 rotate no_reflect no_shear #
lump $-1 $-1 $35 $8 #
transform $-1 1 0 0 0 1 0 0 0 1 66.795251319925541 29.665759251948984 13.83825689230369 1 rotate no_reflect no_shear #
shell $-1 $-1 $-1 $36 $-1 $9 #
shell $-1 $-1 $-1 $37 $-1 $11 #
shell $-1 $-1 $-1 $38 $-1 $13 #
shell $-1 $-1 $-1 $39 $-1 $15 #
shell $-1 $-1 $-1 $40 $-1 $17 #
shell $-1 $-1 $-1 $41 $-1 $19 #
shell $-1 $-1 $-1 $42 $-1 $21 #
shell $-1 $-1 $-1 $43 $-1 $23 #
shell $-1 $-1 $-1 $44 $-1 $25 #
face $-1 $45 $46 $27 $-1 $47 reversed single #
face $-1 $48 $49 $28 $-1 $50 forward single #
face $-1 $51 $52 $29 $-1 $53 forward single #
face $-1 $54 $55 $30 $-1 $56 reversed single #
face $-1 $57 $58 $31 $-1 $59 forward single #
face $-1 $60 $61 $32 $-1 $62 forward single #
face $-1 $63 $64 $33 $-1 $65 reversed single #
face $-1 $66 $67 $34 $-1 $68 forward single #
face $-1 $69 $70 $35 $-1 $71 forward single #
face $-1 $72 $73 $27 $-1 $74 forward single #
loop $-1 $-1 $75 $36 #
plane-surface $-1 66.795251319925541 0 0 -1 0 0 0 0 1 forward_v I I I I #
face $-1 $76 $77 $28 $-1 $78 forward single #
loop $-1 $-1 $79 $37 #
plane-surface $-1 -66.795251319925541 0 0 1 0 0 0 0 -1 forward_v I I I I #
face $-1 $80 $81 $29 $-1 $82 reversed single #
loop $-1 $-1 $83 $38 #
plane-surface $-1 66.795251319925541 0 0 -1 0 0 0 0 1 forward_v I I I I #
face $-1 $84 $85 $30 $-1 $86 reversed single #
loop $-1 $-1 $87 $39 #
plane-surface $-1 25.252863615484962 77.381938823569399 138.74971093908258 1 0 0 0 -0.68199836817093118 -0.7313536940579346 forward_v I I I I #
face $-1 $88 $89 $31 $-1 $90 forward single #
loop $-1 $91 $92 $40 #
cone-surface $-1 33.078176879847405 21.197617639880644 5.7512025862195548 0 -0.68199836817093118 -0.7313536940579346 2.5 0 0 1 I I 0 1 2.5 forward I I I I #
face $-1 $93 $94 $32 $-1 $95 forward single #
loop $-1 $96 $97 $41 #
cone-surface $-1 44.816146776391051 21.197617639880644 5.7512025862195548 0 -0.68199836817093118 -0.7313536940579346 2.5 0 0 1 I I 0 1 2.5 forward I I I I #
face $-1 $98 $99 $33 $-1 $100 reversed single #
loop $-1 $-1 $101 $42 #
plane-surface $-1 52.641460040753479 -120.77426405546187 98.285712138320747 -1 0 0 0 -0.68199836817093118 0.7313536940579346 forward_v I I I I #
face $-1 $102 $103 $34 $-1 $104 forward single #
loop $-1 $105 $106 $43 #
cone-surface $-1 33.078176879847405 -21.197617639880644 5.7512025862195584 0 0.68199836817093118 -0.7313536940579346 2.5 0 0 1 I I 0 1 2.5 forward I I I I #
face $-1 $107 $108 $35 $-1 $109 forward single #
loop $-1 $110 $111 $44 #
cone-surface $-1 44.816146776391051 -21.197617639880644 5.7512025862195584 0 0.68199836817093118 -0.7313536940579346 2.5 0 0 1 I I 0 1 2.5 forward I I I I #
face $-1 $112 $113 $27 $-1 $114 reversed single #
loop $-1 $-1 $115 $45 #
plane-surface $-1 0 0 13.83825689230369 0 0 1 1 0 0 forward_v I I I I #
coedge $-1 $116 $117 $118 $119 reversed $46 $-1 #
face $-1 $120 $121 $28 $-1 $122 reversed single #
loop $-1 $-1 $123 $48 #
plane-surface $-1 0 0 13.83825689230369 0 0 1 1 0 0 forward_v I I I I #
coedge $-1 $124 $125 $126 $127 forward $49 $-1 #
face $-1 $128 $129 $29 $-1 $130 reversed single #
loop $-1 $-1 $131 $51 #
plane-surface $-1 0 -29.665759251948984 0 0 1 0 0 0 1 forward_v I I I I #
coedge $-1 $132 $133 $134 $135 forward $52 $-1 #
face $-1 $136 $137 $30 $-1 $138 reversed single #
loop $-1 $-1 $139 $54 #
plane-surface $-1 38.947161828119221 -13.726565979943516 41.047803342371225 0 0.68199836817093118 0.7313536940579346 1 0 0 forward_v I I I I #
coedge $-1 $140 $141 $142 $143 reversed $55 $-1 #
face $-1 $-1 $144 $31 $-1 $145 forward single #
loop $-1 $146 $147 $57 #
cone-surface $-1 33.078176879847405 18.98380789432747 3.3771823379101384 0 -0.68199836817093118 -0.7313536940579346 1.25 0 0 1 I I -0.70710678118654746 0.70710678118654746 1.25 forward I I I I #
loop $-1 $-1 $148 $40 #
coedge $-1 $92 $92 $149 $150 reversed $58 $-1 #
face $-1 $-1 $151 $32 $-1 $152 forward single #
loop $-1 $153 $154 $60 #
cone-surface $-1 44.816146776391051 18.98380789432747 3.3771823379101384 0 -0.68199836817093118 -0.7313536940579346 1.25 0 0 1 I I -0.70710678118654746 0.70710678118654746 1.25 forward I I I I #
loop $-1 $-1 $155 $41 #
coedge $-1 $97 $97 $156 $157 reversed $61 $-1 #
face $-1 $158 $159 $33 $-1 $160 reversed single #
loop $-1 $-1 $161 $63 #
plane-surface $-1 38.947161828119221 -29.665759251948955 0.58380454160939621 0 -0.68199836817093118 0.7313536940579346 1 0 0 forward_v I I I I #
coedge $-1 $162 $163 $164 $165 reversed $64 $-1 #
face $-1 $-1 $166 $34 $-1 $167 forward single #
loop $-1 $168 $169 $66 #
cone-surface $-1 33.078176879847405 -18.98380789432747 3.377182337910142 0 0.68199836817093118 -0.7313536940579346 1.25 0 0 1 I I -0.70710678118654746 0.70710678118654746 1.25 forward I I I I #
loop $-1 $-1 $170 $43 #
coedge $-1 $106 $106 $171 $172 reversed $67 $-1 #
face $-1 $-1 $173 $35 $-1 $174 forward single #
loop $-1 $175 $176 $69 #
cone-surface $-1 44.816146776391051 -18.98380789432747 3.377182337910142 0 0.68199836817093118 -0.7313536940579346 1.25 0 0 1 I I -0.70710678118654746 0.70710678118654746 1.25 forward I I I I #
loop $-1 $-1 $177 $44 #
coedge $-1 $111 $111 $178 $179 reversed $70 $-1 #
face $-1 $180 $181 $27 $-1 $182 reversed single #
loop $-1 $-1 $118 $72 #
plane-surface $-1 0 0 -13.83825689230369 0 0 1 1 0 0 forward_v I I I I #
coedge $-1 $183 $184 $185 $186 forward $73 $-1 #
coedge $-1 $185 $75 $187 $188 reversed $46 $-1 #
coedge $-1 $75 $185 $189 $190 forward $46 $-1 #
coedge $-1 $191 $192 $75 $119 forward $113 $-1 #
edge $-1 $193 -29.665759251948984 $194 29.665759251948984 $75 $195 forward 7 unknown #
face $-1 $196 $197 $28 $-1 $198 reversed single #
loop $-1 $-1 $199 $76 #
plane-surface $-1 -80.949042599097595 -27.15095263808135 0 1 0 0 0 0 -1 forward_v I I I I #
coedge $-1 $200 $201 $124 $202 forward $77 $-1 #
coedge $-1 $203 $79 $123 $202 reversed $49 $-1 #
coedge $-1 $79 $203 $204 $205 reversed $49 $-1 #
coedge $-1 $206 $207 $79 $127 reversed $197 $-1 #
edge $-1 $208 -13.83825689230369 $209 13.83825689230369 $126 $210 forward 7 unknown #
face $-1 $211 $212 $29 $-1 $213 reversed single #
loop $-1 $-1 $214 $80 #
plane-surface $-1 0 0 -13.83825689230369 0 0 1 1 0 0 forward_v I I I I #
coedge $-1 $215 $216 $217 $218 forward $81 $-1 #
coedge $-1 $217 $83 $214 $219 reversed $52 $-1 #
coedge $-1 $83 $217 $220 $221 reversed $52 $-1 #
coedge $-1 $222 $223 $83 $135 reversed $212 $-1 #
edge $-1 $224 -13.83825689230369 $225 13.83825689230369 $134 $226 forward 7 unknown #
face $-1 $227 $228 $30 $-1 $229 reversed single #
loop $-1 $-1 $230 $84 #
plane-surface $-1 52.641460040753479 77.381938823569399 138.74971093908258 -1 0 0 0 0.68199836817093118 0.7313536940579346 forward_v I I I I #
coedge $-1 $231 $232 $233 $234 reversed $85 $-1 #
coedge $-1 $141 $87 $235 $236 reversed $55 $-1 #
coedge $-1 $87 $140 $231 $237 reversed $55 $-1 #
coedge $-1 $233 $238 $87 $143 forward $239 $-1 #
edge $-1 $240 9.0252101598357157 $241 23.238869813293416 $142 $242 forward 7 unknown #
loop $-1 $-1 $149 $88 #
plane-surface $-1 38.947161828119221 -13.726565979943516 41.047803342371225 0 0.68199836817093118 0.7313536940579346 1 0 0 forward_v I I I I #
loop $-1 $-1 $243 $57 #
coedge $-1 $147 $147 $148 $244 reversed $89 $-1 #
coedge $-1 $148 $148 $147 $244 forward $91 $-1 #
coedge $-1 $149 $149 $92 $150 forward $144 $-1 #
edge $-1 $245 6.6312331251304087e-016 $245 6.2831853071796013 $149 $246 forward 7 unknown #
loop $-1 $-1 $156 $93 #
plane-surface $-1 38.947161828119221 -13.726565979943516 41.047803342371225 0 0.68199836817093118 0.7313536940579346 1 0 0 forward_v I I I I #
loop $-1 $-1 $247 $60 #
coedge $-1 $154 $154 $155 $248 reversed $94 $-1 #
coedge $-1 $155 $155 $154 $248 forward $96 $-1 #
coedge $-1 $156 $156 $97 $157 forward $151 $-1 #
edge $-1 $249 6.6312331251304087e-016 $249 6.2831853071796013 $156 $250 forward 7 unknown #
face $-1 $251 $252 $33 $-1 $253 forward single #
loop $-1 $-1 $254 $98 #
plane-surface $-1 25.252863615484962 -120.77426405546187 98.285712138320747 1 0 0 0 0.68199836817093118 -0.7313536940579346 forward_v I I I I #
coedge $-1 $255 $256 $257 $258 reversed $99 $-1 #
coedge $-1 $163 $101 $259 $260 reversed $64 $-1 #
coedge $-1 $101 $162 $255 $261 reversed $64 $-1 #
coedge $-1 $257 $262 $101 $165 forward $252 $-1 #
edge $-1 $263 30.721372775781951 $264 44.935032429239669 $164 $265 forward 7 unknown #
loop $-1 $-1 $171 $102 #
plane-surface $-1 38.947161828119221 -29.665759251948955 0.58380454160939621 0 -0.68199836817093118 0.7313536940579346 1 0 0 forward_v I I I I #
loop $-1 $-1 $266 $66 #
coedge $-1 $169 $169 $170 $267 reversed $103 $-1 #
coedge $-1 $170 $170 $169 $267 forward $105 $-1 #
coedge $-1 $171 $171 $106 $172 forward $166 $-1 #
edge $-1 $268 -3.1881059932927416e-016 $268 6.2831853071796004 $171 $269 forward 7 unknown #
loop $-1 $-1 $178 $107 #
plane-surface $-1 38.947161828119221 -29.665759251948955 0.58380454160939621 0 -0.68199836817093118 0.7313536940579346 1 0 0 forward_v I I I I #
loop $-1 $-1 $270 $69 #
coedge $-1 $176 $176 $177 $271 reversed $108 $-1 #
coedge $-1 $177 $177 $176 $271 forward $110 $-1 #
coedge $-1 $178 $178 $111 $179 forward $173 $-1 #
edge $-1 $272 -3.1881059932927416e-016 $272 6.2831853071796004 $178 $273 forward 7 unknown #
face $-1 $274 $275 $27 $-1 $276 reversed single #
loop $-1 $-1 $277 $112 #
plane-surface $-1 0 -29.665759251948984 0 0 1 0 0 0 1 forward_v I I I I #
coedge $-1 $278 $115 $279 $280 forward $73 $-1 #
coedge $-1 $115 $278 $281 $282 forward $73 $-1 #
coedge $-1 $117 $116 $115 $186 reversed $46 $-1 #
edge $-1 $283 -29.665759251948984 $284 29.665759251948984 $185 $285 forward 7 unknown #
coedge $-1 $286 $279 $116 $188 forward $287 $-1 #
edge $-1 $284 -13.83825689230369 $193 13.83825689230369 $116 $288 forward 7 unknown #
coedge $-1 $281 $289 $117 $190 reversed $181 $-1 #
edge $-1 $283 -13.83825689230369 $194 13.83825689230369 $117 $290 forward 7 unknown #
coedge $-1 $291 $118 $289 $292 forward $113 $-1 #
coedge $-1 $118 $291 $286 $293 forward $113 $-1 #
vertex $-1 $119 $294 #
vertex $-1 $190 $295 #
straight-curve $-1 66.795251319925541 0 -13.83825689230369 0 -1 0 I I #
face $-1 $296 $297 $28 $-1 $298 reversed single #
loop $-1 $-1 $126 $120 #
plane-surface $-1 -73.872146959511568 -24.636146024213716 0 0 -1 0 0 0 -1 forward_v I I I I #
coedge $-1 $299 $300 $301 $302 forward $121 $-1 #
coedge $-1 $303 $123 $207 $304 forward $77 $-1 #
coedge $-1 $123 $303 $305 $306 forward $77 $-1 #
edge $-1 $307 -29.665759251948984 $209 -24.636146024213716 $123 $308 forward 7 unknown #
coedge $-1 $125 $124 $309 $310 reversed $49 $-1 #
coedge $-1 $311 $312 $125 $205 forward $297 $-1 #
edge $-1 $208 24.636146024213716 $313 29.665759251948984 $204 $314 forward 7 unknown #
coedge $-1 $301 $126 $312 $315 reversed $197 $-1 #
coedge $-1 $126 $301 $200 $304 reversed $197 $-1 #
vertex $-1 $205 $316 #
vertex $-1 $304 $317 #
straight-curve $-1 -66.795251319925541 -24.636146024213716 0 0 0 1 I I #
face $-1 $318 $319 $29 $-1 $320 reversed single #
loop $-1 $-1 $321 $128 #
plane-surface $-1 73.872146959511582 -24.636146024213716 0 0 -1 0 0 0 -1 forward_v I I I I #
coedge $-1 $322 $323 $132 $219 forward $129 $-1 #
coedge $-1 $324 $131 $323 $325 reversed $81 $-1 #
coedge $-1 $131 $324 $326 $327 reversed $81 $-1 #
coedge $-1 $133 $132 $131 $218 reversed $52 $-1 #
edge $-1 $328 -13.83825689230369 $329 13.83825689230369 $131 $330 forward 7 unknown #
edge $-1 $329 -29.665759251948984 $225 -24.636146024213716 $214 $331 forward 7 unknown #
coedge $-1 $326 $332 $133 $221 forward $333 $-1 #
edge $-1 $224 24.636146024213716 $328 29.665759251948984 $220 $334 forward 7 unknown #
coedge $-1 $321 $134 $332 $335 reversed $212 $-1 #
coedge $-1 $134 $321 $322 $336 reversed $212 $-1 #
vertex $-1 $221 $337 #
vertex $-1 $336 $338 #
straight-curve $-1 66.795251319925541 -24.636146024213716 0 0 0 -1 I I #
face $-1 $-1 $239 $30 $-1 $339 forward single #
loop $-1 $-1 $340 $136 #
plane-surface $-1 0 29.665759251948984 0 0 -1 0 0 0 -1 forward_v I I I I #
coedge $-1 $341 $342 $343 $344 reversed $137 $-1 #
coedge $-1 $345 $139 $141 $237 forward $85 $-1 #
coedge $-1 $139 $345 $341 $346 forward $85 $-1 #
coedge $-1 $343 $142 $139 $234 forward $239 $-1 #
edge $-1 $241 5.7792827014253518 $347 33.167879126693869 $233 $348 forward 7 unknown #
coedge $-1 $349 $350 $140 $236 forward $228 $-1 #
edge $-1 $351 -68.791050927931906 $240 -55.536598577237598 $235 $352 forward 7 unknown #
edge $-1 $241 39.896791136086605 $351 59.331518503897996 $141 $353 forward 7 unknown #
coedge $-1 $142 $343 $349 $354 forward $239 $-1 #
loop $-1 $-1 $343 $227 #
vertex $-1 $236 $355 #
vertex $-1 $143 $356 #
straight-curve $-1 25.252863615484962 38.6909694117847 13.83825689230369 0 -1 0 I I #
coedge $-1 $243 $243 $-1 $357 reversed $146 $-1 #
edge $-1 $358 0 $358 6.2831853071796004 $147 $359 forward 7 unknown #
vertex $-1 $150 $360 #
ellipse-curve $-1 33.078176879847405 22.558929425220136 7.2110307169565324 0 0.68199836817093118 0.7313536940579346 2.5 0 0 1 I I #
coedge $-1 $247 $247 $-1 $361 reversed $153 $-1 #
edge $-1 $362 0 $362 6.2831853071796004 $154 $363 forward 7 unknown #
vertex $-1 $157 $364 #
ellipse-curve $-1 44.816146776391051 22.558929425220136 7.2110307169565324 0 0.68199836817093118 0.7313536940579346 2.5 0 0 1 I I #
face $-1 $-1 $365 $33 $-1 $366 reversed single #
loop $-1 $-1 $164 $158 #
plane-surface $-1 0 0 13.83825689230369 0 0 1 1 0 0 forward_v I I I I #
coedge $-1 $367 $368 $369 $370 reversed $159 $-1 #
coedge $-1 $371 $161 $163 $261 forward $99 $-1 #
coedge $-1 $161 $371 $367 $372 forward $99 $-1 #
coedge $-1 $369 $164 $161 $258 forward $252 $-1 #
edge $-1 $264 -33.167879126693869 $373 -5.7792827014253518 $257 $374 forward 7 unknown #
coedge $-1 $375 $376 $162 $260 forward $365 $-1 #
edge $-1 $377 -48.559051527551006 $263 -35.304599176856684 $259 $378 forward 7 unknown #
edge $-1 $264 -19.434727367811377 $377 3.8882692140660843e-014 $163 $379 forward 7 unknown #
coedge $-1 $164 $369 $375 $380 forward $252 $-1 #
vertex $-1 $165 $381 #
vertex $-1 $165 $382 #
straight-curve $-1 52.641460040753479 -60.387132027730935 13.83825689230369 0 1 0 I I #
coedge $-1 $266 $266 $-1 $383 reversed $168 $-1 #
edge $-1 $384 0 $384 6.2831853071796004 $169 $385 forward 7 unknown #
vertex $-1 $172 $386 #
ellipse-curve $-1 33.078176879847405 -22.558929425220128 7.2110307169565271 0 -0.68199836817093118 0.7313536940579346 2.5 0 0 1 I I #
coedge $-1 $270 $270 $-1 $387 reversed $175 $-1 #
edge $-1 $388 0 $388 6.2831853071796004 $176 $389 forward 7 unknown #
vertex $-1 $179 $390 #
ellipse-curve $-1 44.816146776391051 -22.558929425220128 7.2110307169565271 0 -0.68199836817093118 0.7313536940579346 2.5 0 0 1 I I #
face $-1 $-1 $287 $27 $-1 $391 reversed single #
loop $-1 $-1 $392 $180 #
plane-surface $-1 -66.795251319925541 0 0 1 0 0 0 0 -1 forward_v I I I I #
coedge $-1 $289 $281 $393 $394 forward $181 $-1 #
coedge $-1 $184 $183 $392 $395 forward $73 $-1 #
coedge $-1 $187 $396 $183 $280 reversed $287 $-1 #
edge $-1 $284 -66.795251319925541 $397 66.795251319925541 $279 $398 forward 7 unknown #
coedge $-1 $277 $189 $184 $282 reversed $181 $-1 #
edge $-1 $399 -66.795251319925541 $283 66.795251319925541 $281 $400 forward 7 unknown #
vertex $-1 $186 $401 #
vertex $-1 $186 $402 #
straight-curve $-1 66.795251319925541 0 13.83825689230369 0 1 0 I I #
coedge $-1 $396 $187 $192 $293 reversed $287 $-1 #
loop $-1 $-1 $187 $274 #
straight-curve $-1 66.795251319925541 29.665759251948984 0 0 0 -1 I I #
coedge $-1 $189 $277 $191 $292 reversed $181 $-1 #
straight-curve $-1 66.795251319925541 -29.665759251948984 0 0 0 -1 I I #
coedge $-1 $192 $191 $403 $404 forward $113 $-1 #
edge $-1 $194 -66.795251319925541 $405 66.795251319925541 $289 $406 forward 7 unknown #
edge $-1 $407 -66.795251319925541 $193 66.795251319925541 $286 $408 forward 7 unknown #
point $-1 66.795251319925541 29.665759251948984 -13.83825689230369 #
point $-1 66.795251319925541 -29.665759251948984 -13.83825689230369 #
face $-1 $-1 $409 $28 $-1 $410 reversed single #
loop $-1 $-1 $204 $196 #
plane-surface $-1 0 0 -13.83825689230369 0 0 1 1 0 0 forward_v I I I I #
coedge $-1 $411 $199 $412 $413 reversed $121 $-1 #
coedge $-1 $199 $411 $303 $414 reversed $121 $-1 #
coedge $-1 $207 $206 $199 $302 reversed $197 $-1 #
edge $-1 $415 -13.83825689230369 $416 13.83825689230369 $301 $417 forward 7 unknown #
coedge $-1 $201 $200 $300 $414 forward $77 $-1 #
edge $-1 $209 -7.0768956395860272 $415 7.0768956395860272 $207 $418 forward 7 unknown #
coedge $-1 $419 $309 $201 $306 reversed $409 $-1 #
edge $-1 $420 -80.949042599097595 $307 -66.795251319925541 $305 $421 forward 7 unknown #
vertex $-1 $310 $422 #
straight-curve $-1 -66.795251319925541 0 13.83825689230369 0 1 0 I I #
coedge $-1 $305 $423 $203 $310 forward $409 $-1 #
edge $-1 $313 -13.83825689230369 $307 13.83825689230369 $309 $424 forward 7 unknown #
coedge $-1 $412 $204 $423 $425 forward $297 $-1 #
coedge $-1 $204 $412 $206 $315 forward $297 $-1 #
vertex $-1 $425 $426 #
straight-curve $-1 -66.795251319925541 0 -13.83825689230369 0 -1 0 I I #
edge $-1 $416 -7.0768956395860272 $208 7.0768956395860272 $206 $427 forward 7 unknown #
point $-1 -66.795251319925541 -24.636146024213716 -13.83825689230369 #
point $-1 -66.795251319925541 -24.636146024213716 13.83825689230369 #
face $-1 $-1 $333 $29 $-1 $428 forward single #
loop $-1 $-1 $429 $211 #
plane-surface $-1 80.949042599097609 -27.15095263808135 0 -1 0 0 0 0 1 forward_v I I I I #
coedge $-1 $223 $222 $430 $431 forward $212 $-1 #
coedge $-1 $432 $214 $223 $336 forward $129 $-1 #
coedge $-1 $214 $432 $215 $325 forward $129 $-1 #
coedge $-1 $216 $215 $429 $433 reversed $81 $-1 #
edge $-1 $434 -7.0768956395860272 $329 7.0768956395860414 $215 $435 forward 7 unknown #
coedge $-1 $436 $220 $216 $327 forward $333 $-1 #
edge $-1 $328 -7.0768956395860414 $437 7.0768956395860272 $216 $438 forward 7 unknown #
vertex $-1 $327 $439 #
vertex $-1 $219 $440 #
straight-curve $-1 66.795251319925541 -29.665759251948984 0 0 0 -1 I I #
straight-curve $-1 66.795251319925541 0 -13.83825689230369 0 1 0 I I #
coedge $-1 $220 $436 $222 $335 forward $333 $-1 #
loop $-1 $-1 $220 $318 #
straight-curve $-1 66.795251319925541 0 13.83825689230369 0 -1 0 I I #
edge $-1 $441 -7.0768956395860272 $224 7.0768956395860272 $222 $442 forward 7 unknown #
edge $-1 $225 -7.0768956395860272 $443 7.0768956395860272 $223 $444 forward 7 unknown #
point $-1 66.795251319925555 -24.636146024213716 13.83825689230369 #
point $-1 66.795251319925555 -24.636146024213716 -13.83825689230369 #
plane-surface $-1 0 0 13.83825689230369 0 0 1 1 0 0 forward_v I I I I #
coedge $-1 $350 $349 $342 $445 forward $228 $-1 #
coedge $-1 $342 $230 $232 $346 reversed $137 $-1 #
coedge $-1 $230 $341 $340 $445 reversed $137 $-1 #
coedge $-1 $238 $233 $230 $344 forward $239 $-1 #
edge $-1 $347 -23.238869813293416 $446 -9.0252101598357157 $343 $447 forward 7 unknown #
coedge $-1 $232 $231 $350 $448 reversed $85 $-1 #
edge $-1 $449 -59.331518503897996 $347 -39.896791136086605 $341 $450 forward 7 unknown #
vertex $-1 $234 $451 #
straight-curve $-1 19.47358091405961 15.452099598491278 13.83825689230369 1 0 0 I I #
coedge $-1 $340 $235 $238 $354 reversed $228 $-1 #
coedge $-1 $235 $340 $345 $448 forward $228 $-1 #
vertex $-1 $236 $452 #
straight-curve $-1 25.252863615484962 29.665759251948984 69.374855469541288 0 0 1 I I #
straight-curve $-1 25.252863615484962 -13.726565979943516 41.047803342371225 0 0.7313536940579346 -0.68199836817093118 I I #
edge $-1 $446 -52.641460040753479 $240 -25.252863615484962 $349 $453 forward 7 unknown #
point $-1 25.252863615484962 29.665759251948984 13.83825689230369 #
point $-1 25.252863615484962 15.452099598491284 13.83825689230369 #
edge $-1 $454 1 $454 0 $243 $-1 forward 7 unknown #
vertex $-1 $244 $455 #
ellipse-curve $-1 33.078176879847405 19.836305854541134 4.2913744554825568 0 0.68199836817093118 0.7313536940579346 2.5 0 0 1 I I #
point $-1 35.578176879847405 22.558929425220157 7.2110307169565528 #
edge $-1 $456 1 $456 0 $247 $-1 forward 7 unknown #
vertex $-1 $248 $457 #
ellipse-curve $-1 44.816146776391051 19.836305854541134 4.2913744554825568 0 0.68199836817093118 0.7313536940579346 2.5 0 0 1 I I #
point $-1 47.316146776391051 22.558929425220157 7.2110307169565528 #
loop $-1 $-1 $259 $251 #
plane-surface $-1 0 -29.665759251948984 0 0 1 0 0 0 1 forward_v I I I I #
coedge $-1 $368 $254 $256 $372 reversed $159 $-1 #
coedge $-1 $254 $367 $458 $459 reversed $159 $-1 #
coedge $-1 $262 $257 $254 $370 forward $252 $-1 #
edge $-1 $373 -44.935032429239669 $460 -30.721372775781951 $369 $461 forward 7 unknown #
coedge $-1 $256 $255 $376 $462 reversed $99 $-1 #
edge $-1 $463 -3.8882692140660843e-014 $373 19.434727367811377 $367 $464 forward 7 unknown #
vertex $-1 $258 $465 #
straight-curve $-1 19.47358091405961 -15.452099598491269 13.83825689230369 -1 0 0 I I #
coedge $-1 $458 $259 $262 $380 reversed $365 $-1 #
coedge $-1 $259 $458 $371 $462 forward $365 $-1 #
vertex $-1 $260 $466 #
straight-curve $-1 52.641460040753479 -29.665759251948984 49.142856069160374 0 0 1 I I #
straight-curve $-1 52.641460040753479 -29.665759251948955 0.58380454160939621 0 -0.7313536940579346 -0.68199836817093118 I I #
edge $-1 $460 -48.61928334402662 $263 -21.230686918758103 $375 $467 forward 7 unknown #
point $-1 52.641460040753479 -29.665759251948984 13.83825689230369 #
point $-1 52.641460040753479 -15.452099598491268 13.83825689230369 #
edge $-1 $468 1 $468 0 $266 $-1 forward 7 unknown #
vertex $-1 $267 $469 #
ellipse-curve $-1 33.078176879847405 -19.836305854541134 4.2913744554825604 0 -0.68199836817093118 0.7313536940579346 2.5 0 0 1 I I #
point $-1 35.578176879847405 -22.558929425220157 7.2110307169565564 #
edge $-1 $470 1 $470 0 $270 $-1 forward 7 unknown #
vertex $-1 $271 $471 #
ellipse-curve $-1 44.816146776391051 -19.836305854541134 4.2913744554825604 0 -0.68199836817093118 0.7313536940579346 2.5 0 0 1 I I #
point $-1 47.316146776391051 -22.558929425220157 7.2110307169565564 #
plane-surface $-1 0 29.665759251948984 0 0 -1 0 0 0 -1 forward_v I I I I #
coedge $-1 $472 $393 $278 $395 reversed $275 $-1 #
coedge $-1 $392 $403 $277 $394 reversed $275 $-1 #
edge $-1 $399 -13.83825689230369 $405 13.83825689230369 $393 $473 forward 7 unknown #
edge $-1 $397 -29.665759251948984 $399 29.665759251948984 $392 $474 forward 7 unknown #
coedge $-1 $279 $286 $472 $475 reversed $287 $-1 #
vertex $-1 $280 $476 #
straight-curve $-1 0 29.665759251948984 13.83825689230369 -1 0 0 I I #
vertex $-1 $395 $477 #
straight-curve $-1 0 -29.665759251948984 13.83825689230369 1 0 0 I I #
point $-1 66.795251319925541 -29.665759251948984 13.83825689230369 #
point $-1 66.795251319925541 29.665759251948984 13.83825689230369 #
coedge $-1 $393 $472 $291 $404 reversed $275 $-1 #
edge $-1 $405 -29.665759251948984 $407 29.665759251948984 $403 $478 forward 7 unknown #
vertex $-1 $404 $479 #
straight-curve $-1 0 -29.665759251948984 -13.83825689230369 -1 0 0 I I #
vertex $-1 $293 $480 #
straight-curve $-1 0 29.665759251948984 -13.83825689230369 1 0 0 I I #
loop $-1 $-1 $309 $296 #
plane-surface $-1 0 -29.665759251948984 0 0 1 0 0 0 1 forward_v I I I I #
coedge $-1 $300 $299 $419 $481 reversed $121 $-1 #
coedge $-1 $312 $311 $299 $413 forward $297 $-1 #
edge $-1 $482 -2.5148066138676342 $416 2.5148066138676342 $299 $483 forward 7 unknown #
edge $-1 $415 -2.5148066138676342 $420 2.5148066138676342 $300 $484 forward 7 unknown #
vertex $-1 $304 $485 #
vertex $-1 $315 $486 #
straight-curve $-1 -80.949042599097595 -24.636146024213716 0 0 0 -1 I I #
straight-curve $-1 -73.872146959511568 -24.636146024213716 13.83825689230369 -1 0 0 I I #
coedge $-1 $423 $305 $411 $481 forward $409 $-1 #
vertex $-1 $414 $487 #
straight-curve $-1 0 -29.665759251948984 13.83825689230369 1 0 0 I I #
point $-1 -66.795251319925541 -29.665759251948984 13.83825689230369 #
coedge $-1 $309 $419 $311 $425 reversed $409 $-1 #
straight-curve $-1 -66.795251319925541 -29.665759251948984 0 0 0 1 I I #
edge $-1 $313 -7.0768956395860272 $482 7.0768956395860272 $423 $488 forward 7 unknown #
point $-1 -66.795251319925541 -29.665759251948984 -13.83825689230369 #
straight-curve $-1 -73.872146959511568 -24.636146024213716 -13.83825689230369 1 0 0 I I #
plane-surface $-1 0 0 13.83825689230369 0 0 1 1 0 0 forward_v I I I I #
coedge $-1 $489 $490 $324 $433 forward $319 $-1 #
coedge $-1 $490 $489 $321 $431 reversed $319 $-1 #
edge $-1 $441 -13.83825689230369 $443 13.83825689230369 $430 $491 forward 7 unknown #
coedge $-1 $323 $322 $489 $492 forward $129 $-1 #
edge $-1 $437 -13.83825689230369 $434 13.83825689230369 $429 $493 forward 7 unknown #
vertex $-1 $433 $494 #
straight-curve $-1 73.872146959511582 -29.665759251948984 -13.83825689230369 -1 0 0 I I #
coedge $-1 $332 $326 $490 $495 forward $333 $-1 #
vertex $-1 $495 $496 #
straight-curve $-1 73.872146959511582 -29.665759251948984 13.83825689230369 1 0 0 I I #
point $-1 66.795251319925541 -29.665759251948984 13.83825689230369 #
point $-1 66.795251319925541 -29.665759251948984 -13.83825689230369 #
vertex $-1 $495 $497 #
straight-curve $-1 73.872146959511582 -24.636146024213716 13.83825689230369 -1 0 0 I I #
vertex $-1 $492 $498 #
straight-curve $-1 73.872146959511582 -24.636146024213716 -13.83825689230369 1 0 0 I I #
edge $-1 $446 55.536598577237598 $449 68.791050927931906 $340 $499 forward 7 unknown #
vertex $-1 $354 $500 #
straight-curve $-1 52.641460040753479 38.6909694117847 13.83825689230369 0 1 0 I I #
edge $-1 $449 -33.167879126693869 $351 -5.7792827014253518 $350 $501 forward 7 unknown #
vertex $-1 $448 $502 #
straight-curve $-1 52.641460040753479 -13.726565979943516 41.047803342371225 0 -0.7313536940579346 0.68199836817093118 I I #
point $-1 52.641460040753479 15.452099598491284 13.83825689230369 #
point $-1 25.252863615484962 29.665759251948984 0.583804541609382 #
straight-curve $-1 0 29.665759251948984 13.83825689230369 -1 0 0 I I #
vertex $-1 $357 $503 #
point $-1 35.578176879847405 19.836305854541134 4.2913744554825568 #
vertex $-1 $361 $504 #
point $-1 47.316146776391051 19.836305854541134 4.2913744554825568 #
coedge $-1 $376 $375 $368 $459 forward $365 $-1 #
edge $-1 $460 35.304599176856684 $463 48.559051527551006 $458 $505 forward 7 unknown #
vertex $-1 $380 $506 #
straight-curve $-1 25.252863615484962 -60.387132027730935 13.83825689230369 0 -1 0 I I #
edge $-1 $463 5.7792827014253518 $377 33.167879126693869 $376 $507 forward 7 unknown #
vertex $-1 $462 $508 #
straight-curve $-1 25.252863615484962 -29.665759251948955 0.58380454160939621 0 0.7313536940579346 0.68199836817093118 I I #
point $-1 25.252863615484962 -15.452099598491268 13.83825689230369 #
point $-1 52.641460040753479 -29.665759251948984 0.58380454160936968 #
straight-curve $-1 73.872146959511582 -29.665759251948984 13.83825689230369 1 0 0 I I #
vertex $-1 $383 $509 #
point $-1 35.578176879847405 -19.836305854541134 4.2913744554825604 #
vertex $-1 $387 $510 #
point $-1 47.316146776391051 -19.836305854541134 4.2913744554825604 #
coedge $-1 $403 $392 $396 $475 forward $275 $-1 #
straight-curve $-1 -66.795251319925541 -29.665759251948984 0 0 0 -1 I I #
straight-curve $-1 -66.795251319925541 0 13.83825689230369 0 -1 0 I I #
edge $-1 $397 -13.83825689230369 $407 13.83825689230369 $396 $511 forward 7 unknown #
point $-1 -66.795251319925541 29.665759251948984 13.83825689230369 #
point $-1 -66.795251319925541 -29.665759251948984 13.83825689230369 #
straight-curve $-1 -66.795251319925541 0 -13.83825689230369 0 1 0 I I #
point $-1 -66.795251319925541 -29.665759251948984 -13.83825689230369 #
point $-1 -66.795251319925541 29.665759251948984 -13.83825689230369 #
edge $-1 $420 -13.83825689230369 $482 13.83825689230369 $411 $512 forward 7 unknown #
vertex $-1 $413 $513 #
straight-curve $-1 -80.949042599097595 -27.15095263808135 -13.83825689230369 0 1 0 I I #
straight-curve $-1 -80.949042599097595 -27.15095263808135 13.83825689230369 0 -1 0 I I #
point $-1 -80.949042599097595 -24.636146024213716 13.83825689230369 #
point $-1 -80.949042599097595 -24.636146024213716 -13.83825689230369 #
point $-1 -80.949042599097595 -29.665759251948984 13.83825689230369 #
straight-curve $-1 -73.872146959511568 -29.665759251948984 -13.83825689230369 -1 0 0 I I #
coedge $-1 $430 $429 $432 $492 reversed $319 $-1 #
coedge $-1 $429 $430 $436 $495 reversed $319 $-1 #
straight-curve $-1 80.949042599097609 -24.636146024213716 0 0 0 -1 I I #
edge $-1 $443 -2.5148066138676342 $434 2.5148066138676342 $489 $514 forward 7 unknown #
straight-curve $-1 80.949042599097609 -29.665759251948984 0 0 0 -1 I I #
point $-1 80.949042599097609 -29.665759251948984 -13.83825689230369 #
edge $-1 $437 -2.5148066138676342 $441 2.5148066138676342 $490 $515 forward 7 unknown #
point $-1 80.949042599097609 -29.665759251948984 13.83825689230369 #
point $-1 80.949042599097609 -24.636146024213716 13.83825689230369 #
point $-1 80.949042599097609 -24.636146024213716 -13.83825689230369 #
straight-curve $-1 52.641460040753479 29.665759251948984 69.374855469541288 0 0 -1 I I #
point $-1 52.641460040753479 29.665759251948984 13.83825689230369 #
straight-curve $-1 19.47358091405961 29.66575925194898 0.58380454160938555 -1 0 0 I I #
point $-1 52.641460040753479 29.665759251948984 0.583804541609382 #
point $-1 33.078176879847405 18.131309934113805 2.4629902203377201 #
point $-1 44.816146776391051 18.131309934113805 2.4629902203377201 #
straight-curve $-1 25.252863615484962 -29.665759251948984 49.142856069160374 0 0 -1 I I #
point $-1 25.252863615484962 -29.665759251948984 13.83825689230369 #
straight-curve $-1 19.47358091405961 -29.665759251948984 0.5838045416093709 1 0 0 I I #
point $-1 25.252863615484962 -29.665759251948984 0.58380454160936968 #
point $-1 33.078176879847405 -18.131309934113805 2.4629902203377236 #
point $-1 44.816146776391051 -18.131309934113805 2.4629902203377236 #
straight-curve $-1 -66.795251319925541 29.665759251948984 0 0 0 -1 I I #
straight-curve $-1 -80.949042599097595 -29.665759251948984 0 0 0 -1 I I #
point $-1 -80.949042599097595 -29.665759251948984 -13.83825689230369 #
straight-curve $-1 80.949042599097609 -27.15095263808135 -13.83825689230369 0 -1 0 I I #
straight-curve $-1 80.949042599097609 -27.15095263808135 13.83825689230369 0 1 0 I I #
End-of-ACIS-data 