500 0 17 0           
7 Unknown 11 ACIS 5.0 NT 24 Fri Mar 26 17:20:19 1999 
-1 9.9999999999999995e-007 1e-010 
body $-1 $17 $-1 $18 #
body $-1 $19 $-1 $20 #
body $-1 $21 $-1 $22 #
body $-1 $23 $-1 $24 #
body $-1 $25 $-1 $26 #
body $-1 $27 $-1 $28 #
body $-1 $29 $-1 $30 #
body $-1 $31 $-1 $32 #
body $-1 $33 $-1 $34 #
body $-1 $35 $-1 $36 #
body $-1 $37 $-1 $38 #
body $-1 $39 $-1 $40 #
body $-1 $41 $-1 $42 #
body $-1 $43 $-1 $44 #
body $-1 $45 $-1 $46 #
body $-1 $47 $-1 $48 #
body $-1 $49 $-1 $50 #
lump $-1 $-1 $51 $0 #
transform $-1 1 0 0 0 1 0 0 0 1 65.067903683584092 43.809184762577907 9.9583102165931905 1 rotate no_reflect no_shear #
lump $-1 $-1 $52 $1 #
transform $-1 1 0 0 0 1 0 0 0 1 65.067903683584092 43.809184762577907 9.9583102165931905 1 rotate no_reflect no_shear #
lump $-1 $-1 $53 $2 #
transform $-1 1 0 0 0 1 0 0 0 1 65.067903683584092 43.809184762577907 9.9583102165931905 1 rotate no_reflect no_shear #
lump $-1 $-1 $54 $3 #
transform $-1 1 0 0 0 1 0 0 0 1 65.067903683584092 43.809184762577907 9.9583102165931905 1 rotate no_reflect no_shear #
lump $-1 $-1 $55 $4 #
transform $-1 1 0 0 0 1 0 0 0 1 65.067903683584092 43.809184762577907 9.9583102165931905 1 rotate no_reflect no_shear #
lump $-1 $-1 $56 $5 #
transform $-1 1 0 0 0 1 0 0 0 1 65.067903683584092 43.809184762577907 9.9583102165931905 1 rotate no_reflect no_shear #
lump $-1 $-1 $57 $6 #
transform $-1 1 0 0 0 1 0 0 0 1 65.067903683584092 43.809184762577907 9.9583102165931905 1 rotate no_reflect no_shear #
lump $-1 $-1 $58 $7 #
transform $-1 1 0 0 0 1 0 0 0 1 65.067903683584092 43.809184762577907 9.9583102165931905 1 rotate no_reflect no_shear #
lump $-1 $-1 $59 $8 #
transform $-1 1 0 0 0 1 0 0 0 1 65.067903683584092 43.809184762577907 9.9583102165931905 1 rotate no_reflect no_shear #
lump $-1 $-1 $60 $9 #
transform $-1 1 0 0 0 1 0 0 0 1 65.067903683584092 43.809184762577907 9.9583102165931905 1 rotate no_reflect no_shear #
lump $-1 $-1 $61 $10 #
transform $-1 1 0 0 0 1 0 0 0 1 65.067903683584092 43.809184762577907 9.9583102165931905 1 rotate no_reflect no_shear #
lump $-1 $-1 $62 $11 #
transform $-1 1 0 0 0 1 0 0 0 1 65.067903683584092 43.809184762577907 9.9583102165931905 1 rotate no_reflect no_shear #
lump $-1 $-1 $63 $12 #
transform $-1 1 0 0 0 1 0 0 0 1 65.067903683584092 43.809184762577907 9.9583102165931905 1 rotate no_reflect no_shear #
lump $-1 $-1 $64 $13 #
transform $-1 1 0 0 0 1 0 0 0 1 65.067903683584092 43.809184762577907 9.9583102165931905 1 rotate no_reflect no_shear #
lump $-1 $-1 $65 $14 #
transform $-1 1 0 0 0 1 0 0 0 1 65.067903683584092 43.809184762577907 9.9583102165931905 1 rotate no_reflect no_shear #
lump $-1 $-1 $66 $15 #
transform $-1 1 0 0 0 1 0 0 0 1 65.067903683584092 43.809184762577907 9.9583102165931905 1 rotate no_reflect no_shear #
lump $-1 $-1 $67 $16 #
transform $-1 1 0 0 0 1 0 0 0 1 65.067903683584092 43.809184762577907 9.9583102165931905 1 rotate no_reflect no_shear #
shell $-1 $-1 $-1 $68 $-1 $17 #
shell $-1 $-1 $-1 $69 $-1 $19 #
shell $-1 $-1 $-1 $70 $-1 $21 #
shell $-1 $-1 $-1 $71 $-1 $23 #
shell $-1 $-1 $-1 $72 $-1 $25 #
shell $-1 $-1 $-1 $73 $-1 $27 #
shell $-1 $-1 $-1 $74 $-1 $29 #
shell $-1 $-1 $-1 $75 $-1 $31 #
shell $-1 $-1 $-1 $76 $-1 $33 #
shell $-1 $-1 $-1 $77 $-1 $35 #
shell $-1 $-1 $-1 $78 $-1 $37 #
shell $-1 $-1 $-1 $79 $-1 $39 #
shell $-1 $-1 $-1 $80 $-1 $41 #
shell $-1 $-1 $-1 $81 $-1 $43 #
shell $-1 $-1 $-1 $82 $-1 $45 #
shell $-1 $-1 $-1 $83 $-1 $47 #
shell $-1 $-1 $-1 $84 $-1 $49 #
face $-1 $85 $86 $51 $-1 $87 reversed single #
face $-1 $88 $89 $52 $-1 $90 forward single #
face $-1 $91 $92 $53 $-1 $93 reversed single #
face $-1 $94 $95 $54 $-1 $96 forward single #
face $-1 $97 $98 $55 $-1 $99 forward single #
face $-1 $100 $101 $56 $-1 $102 reversed single #
face $-1 $103 $104 $57 $-1 $105 forward single #
face $-1 $106 $107 $58 $-1 $108 forward single #
face $-1 $109 $110 $59 $-1 $111 reversed single #
face $-1 $112 $113 $60 $-1 $114 forward single #
face $-1 $115 $116 $61 $-1 $117 forward single #
face $-1 $118 $119 $62 $-1 $120 reversed single #
face $-1 $121 $122 $63 $-1 $123 forward single #
face $-1 $124 $125 $64 $-1 $126 forward single #
face $-1 $127 $128 $65 $-1 $129 reversed single #
face $-1 $130 $131 $66 $-1 $132 forward single #
face $-1 $133 $134 $67 $-1 $135 forward single #
face $-1 $136 $137 $51 $-1 $138 forward single #
loop $-1 $-1 $139 $68 #
plane-surface $-1 0 -43.809184762577907 0 0 1 0 0 0 1 forward_v I I I I #
face $-1 $140 $141 $52 $-1 $142 reversed single #
loop $-1 $-1 $143 $69 #
plane-surface $-1 0 -43.809184762577907 0 0 1 0 0 0 1 forward_v I I I I #
face $-1 $144 $145 $53 $-1 $146 reversed single #
loop $-1 $-1 $147 $70 #
plane-surface $-1 -145.18750784469017 -29.520539538494688 102.96187442761382 0 1 0 -0.61566148304635926 0 0.78801074757464917 forward_v I I I I #
face $-1 $148 $149 $54 $-1 $150 forward single #
loop $-1 $151 $152 $71 #
cone-surface $-1 -57.866113740521747 -25.581649916974108 3.7864425492696281 0.61566148304635926 0 -0.78801074757464917 0.78801074757464917 0 0.61566148304635926 1 I I 0 1 1 forward I I I I #
face $-1 $153 $154 $55 $-1 $155 forward single #
loop $-1 $156 $157 $72 #
cone-surface $-1 -57.866113740521747 -19.673315484693234 3.7864425492696281 0.61566148304635926 0 -0.78801074757464917 0.78801074757464917 0 0.61566148304635926 1 I I 0 1 1 forward I I I I #
face $-1 $158 $159 $56 $-1 $160 reversed single #
loop $-1 $-1 $161 $73 #
plane-surface $-1 -145.18750784469017 -11.693254840998328 102.96187442761382 0 1 0 -0.61566148304635926 0 0.78801074757464917 forward_v I I I I #
face $-1 $162 $163 $57 $-1 $164 forward single #
loop $-1 $165 $166 $74 #
cone-surface $-1 -57.866113740521747 -7.7543652194777408 3.7864425492696281 0.61566148304635926 0 -0.78801074757464917 0.78801074757464917 0 0.61566148304635926 1 I I 0 1 1 forward I I I I #
face $-1 $167 $168 $58 $-1 $169 forward single #
loop $-1 $170 $171 $75 #
cone-surface $-1 -57.866113740521747 -1.8460307871968737 3.7864425492696281 0.61566148304635926 0 -0.78801074757464917 0.78801074757464917 0 0.61566148304635926 1 I I 0 1 1 forward I I I I #
face $-1 $172 $173 $59 $-1 $174 reversed single #
loop $-1 $-1 $175 $76 #
plane-surface $-1 -145.18750784469017 6.1340298564980378 102.96187442761382 0 1 0 -0.61566148304635926 0 0.78801074757464917 forward_v I I I I #
face $-1 $176 $177 $60 $-1 $178 forward single #
loop $-1 $179 $180 $77 #
cone-surface $-1 -57.866113740521747 10.072919478018626 3.7864425492696281 0.61566148304635926 0 -0.78801074757464917 0.78801074757464917 0 0.61566148304635926 1 I I 0 1 1 forward I I I I #
face $-1 $181 $182 $61 $-1 $183 forward single #
loop $-1 $184 $185 $78 #
cone-surface $-1 -57.866113740521747 15.981253910299493 3.7864425492696281 0.61566148304635926 0 -0.78801074757464917 0.78801074757464917 0 0.61566148304635926 1 I I 0 1 1 forward I I I I #
face $-1 $186 $187 $62 $-1 $188 reversed single #
loop $-1 $-1 $189 $79 #
plane-surface $-1 -145.18750784469017 23.961314553994406 102.96187442761382 0 1 0 -0.61566148304635926 0 0.78801074757464917 forward_v I I I I #
face $-1 $190 $191 $63 $-1 $192 forward single #
loop $-1 $193 $194 $80 #
cone-surface $-1 -57.866113740521747 27.900204175514993 3.7864425492696281 0.61566148304635926 0 -0.78801074757464917 0.78801074757464917 0 0.61566148304635926 1 I I 0 1 1 forward I I I I #
face $-1 $195 $196 $64 $-1 $197 forward single #
loop $-1 $198 $199 $81 #
cone-surface $-1 -57.866113740521747 33.80853860779586 3.7864425492696281 0.61566148304635926 0 -0.78801074757464917 0.78801074757464917 0 0.61566148304635926 1 I I 0 1 1 forward I I I I #
face $-1 $200 $201 $65 $-1 $202 reversed single #
loop $-1 $-1 $203 $82 #
plane-surface $-1 58.645008501409194 34.214063635451723 190.86245027335144 0 -1 0 -0.68199836817093118 0 -0.7313536940579346 forward_v I I I I #
face $-1 $204 $205 $66 $-1 $206 forward single #
loop $-1 $207 $208 $83 #
cone-surface $-1 62.099355617510803 23.499091793362943 7.0016617005552773 -0.68199836817093118 0 -0.7313536940579346 0.7313536940579346 0 -0.68199836817093118 1 I I 0 1 1 forward I I I I #
face $-1 $209 $210 $67 $-1 $211 forward single #
loop $-1 $212 $213 $84 #
cone-surface $-1 62.099355617510803 29.92807489861621 7.0016617005552773 -0.68199836817093118 0 -0.7313536940579346 0.7313536940579346 0 -0.68199836817093118 1 I I 0 1 1 forward I I I I #
face $-1 $214 $215 $51 $-1 $216 reversed single #
loop $-1 $-1 $217 $85 #
plane-surface $-1 0 0 9.9583102165931905 0 0 1 1 0 0 forward_v I I I I #
coedge $-1 $218 $219 $220 $221 reversed $86 $-1 #
face $-1 $222 $223 $52 $-1 $224 reversed single #
loop $-1 $-1 $225 $88 #
plane-surface $-1 0 0 -9.9583102165931905 0 0 1 1 0 0 forward_v I I I I #
coedge $-1 $226 $227 $228 $229 forward $89 $-1 #
face $-1 $230 $231 $53 $-1 $232 reversed single #
loop $-1 $-1 $233 $91 #
plane-surface $-1 -65.067903683584092 -22.627482700833667 0.41345957798108657 -0.61566148304635926 0 0.78801074757464917 0.78801074757464917 0 0.61566148304635926 forward_v I I I I #
coedge $-1 $234 $235 $236 $237 reversed $92 $-1 #
face $-1 $-1 $238 $54 $-1 $239 forward single #
loop $-1 $240 $241 $94 #
cone-surface $-1 -56.464918785286841 -25.581649916974108 1.9929948274647789 0.61566148304635926 0 -0.78801074757464917 0.39400537378732459 0 0.30783074152317963 1 I I -0.70710678118654746 0.70710678118654746 0.5 forward I I I I #
loop $-1 $-1 $242 $71 #
coedge $-1 $152 $152 $243 $244 reversed $95 $-1 #
face $-1 $-1 $245 $55 $-1 $246 forward single #
loop $-1 $247 $248 $97 #
cone-surface $-1 -56.464918785286841 -19.673315484693234 1.9929948274647789 0.61566148304635926 0 -0.78801074757464917 0.39400537378732459 0 0.30783074152317963 1 I I -0.70710678118654746 0.70710678118654746 0.5 forward I I I I #
loop $-1 $-1 $249 $72 #
coedge $-1 $157 $157 $250 $251 reversed $98 $-1 #
face $-1 $252 $253 $56 $-1 $254 reversed single #
loop $-1 $-1 $255 $100 #
plane-surface $-1 -65.067903683584092 -4.8001980033373073 0.41345957798108657 -0.61566148304635926 0 0.78801074757464917 0.78801074757464917 0 0.61566148304635926 forward_v I I I I #
coedge $-1 $256 $257 $258 $259 reversed $101 $-1 #
face $-1 $-1 $260 $57 $-1 $261 forward single #
loop $-1 $262 $263 $103 #
cone-surface $-1 -56.464918785286841 -7.7543652194777408 1.9929948274647789 0.61566148304635926 0 -0.78801074757464917 0.39400537378732459 0 0.30783074152317963 1 I I -0.70710678118654746 0.70710678118654746 0.5 forward I I I I #
loop $-1 $-1 $264 $74 #
coedge $-1 $166 $166 $265 $266 reversed $104 $-1 #
face $-1 $-1 $267 $58 $-1 $268 forward single #
loop $-1 $269 $270 $106 #
cone-surface $-1 -56.464918785286841 -1.8460307871968737 1.9929948274647789 0.61566148304635926 0 -0.78801074757464917 0.39400537378732459 0 0.30783074152317963 1 I I -0.70710678118654746 0.70710678118654746 0.5 forward I I I I #
loop $-1 $-1 $271 $75 #
coedge $-1 $171 $171 $272 $273 reversed $107 $-1 #
face $-1 $274 $275 $59 $-1 $276 reversed single #
loop $-1 $-1 $277 $109 #
plane-surface $-1 -65.067903683584092 13.02708669415906 0.41345957798108657 -0.61566148304635926 0 0.78801074757464917 0.78801074757464917 0 0.61566148304635926 forward_v I I I I #
coedge $-1 $278 $279 $280 $281 reversed $110 $-1 #
face $-1 $-1 $282 $60 $-1 $283 forward single #
loop $-1 $284 $285 $112 #
cone-surface $-1 -56.464918785286841 10.072919478018626 1.9929948274647789 0.61566148304635926 0 -0.78801074757464917 0.39400537378732459 0 0.30783074152317963 1 I I -0.70710678118654746 0.70710678118654746 0.5 forward I I I I #
loop $-1 $-1 $286 $77 #
coedge $-1 $180 $180 $287 $288 reversed $113 $-1 #
face $-1 $-1 $289 $61 $-1 $290 forward single #
loop $-1 $291 $292 $115 #
cone-surface $-1 -56.464918785286841 15.981253910299493 1.9929948274647789 0.61566148304635926 0 -0.78801074757464917 0.39400537378732459 0 0.30783074152317963 1 I I -0.70710678118654746 0.70710678118654746 0.5 forward I I I I #
loop $-1 $-1 $293 $78 #
coedge $-1 $185 $185 $294 $295 reversed $116 $-1 #
face $-1 $296 $297 $62 $-1 $298 reversed single #
loop $-1 $-1 $299 $118 #
plane-surface $-1 -65.067903683584092 30.854371391655427 0.41345957798108657 -0.61566148304635926 0 0.78801074757464917 0.78801074757464917 0 0.61566148304635926 forward_v I I I I #
coedge $-1 $300 $301 $302 $303 reversed $119 $-1 #
face $-1 $-1 $304 $63 $-1 $305 forward single #
loop $-1 $306 $307 $121 #
cone-surface $-1 -56.464918785286841 27.900204175514993 1.9929948274647789 0.61566148304635926 0 -0.78801074757464917 0.39400537378732459 0 0.30783074152317963 1 I I -0.70710678118654746 0.70710678118654746 0.5 forward I I I I #
loop $-1 $-1 $308 $80 #
coedge $-1 $194 $194 $309 $310 reversed $122 $-1 #
face $-1 $-1 $311 $64 $-1 $312 forward single #
loop $-1 $313 $314 $124 #
cone-surface $-1 -56.464918785286841 33.80853860779586 1.9929948274647789 0.61566148304635926 0 -0.78801074757464917 0.39400537378732459 0 0.30783074152317963 1 I I -0.70710678118654746 0.70710678118654746 0.5 forward I I I I #
loop $-1 $-1 $315 $81 #
coedge $-1 $199 $199 $316 $317 reversed $125 $-1 #
face $-1 $318 $319 $65 $-1 $320 reversed single #
loop $-1 $-1 $321 $127 #
plane-surface $-1 -30.107399763606153 26.713583345989569 95.687146826161211 0.68199836817093118 0 0.7313536940579346 0.7313536940579346 0 -0.68199836817093118 forward_v I I I I #
coedge $-1 $322 $323 $324 $325 reversed $128 $-1 #
face $-1 $-1 $326 $66 $-1 $327 forward single #
loop $-1 $328 $329 $130 #
cone-surface $-1 60.411000149225956 23.499091793362943 5.1911221652120503 -0.68199836817093118 0 -0.7313536940579346 0.3656768470289673 0 -0.34099918408546559 1 I I -0.70710678118654746 0.70710678118654746 0.5 forward I I I I #
loop $-1 $-1 $330 $83 #
coedge $-1 $208 $208 $331 $332 reversed $131 $-1 #
face $-1 $-1 $333 $67 $-1 $334 forward single #
loop $-1 $335 $336 $133 #
cone-surface $-1 60.411000149225956 29.92807489861621 5.1911221652120503 -0.68199836817093118 0 -0.7313536940579346 0.3656768470289673 0 -0.34099918408546559 1 I I -0.70710678118654746 0.70710678118654746 0.5 forward I I I I #
loop $-1 $-1 $337 $84 #
coedge $-1 $213 $213 $338 $339 reversed $134 $-1 #
face $-1 $340 $341 $51 $-1 $342 reversed single #
loop $-1 $-1 $343 $136 #
plane-surface $-1 0 0 -9.9583102165931905 0 0 1 1 0 0 forward_v I I I I #
coedge $-1 $344 $345 $346 $347 forward $137 $-1 #
coedge $-1 $348 $139 $349 $350 reversed $86 $-1 #
coedge $-1 $139 $348 $351 $352 forward $86 $-1 #
coedge $-1 $353 $343 $139 $221 forward $215 $-1 #
edge $-1 $354 -65.067903683584092 $355 65.067903683584092 $139 $356 forward 7 unknown #
face $-1 $357 $358 $52 $-1 $359 reversed single #
loop $-1 $-1 $360 $140 #
plane-surface $-1 -62.590859845210005 -52.036073453399645 0 0 1 0 0 0 1 forward_v I I I I #
coedge $-1 $361 $362 $227 $363 forward $141 $-1 #
coedge $-1 $364 $143 $365 $366 reversed $89 $-1 #
coedge $-1 $143 $364 $225 $363 reversed $89 $-1 #
coedge $-1 $367 $368 $143 $229 reversed $358 $-1 #
edge $-1 $369 -9.9583102165931905 $370 9.9583102165931905 $228 $371 forward 7 unknown #
face $-1 $372 $373 $53 $-1 $374 reversed single #
loop $-1 $-1 $375 $144 #
plane-surface $-1 -145.18750784469017 -15.734425863172646 102.96187442761382 0 -1 0 0.61566148304635926 0 -0.78801074757464917 forward_v I I I I #
coedge $-1 $376 $377 $378 $379 reversed $145 $-1 #
coedge $-1 $235 $147 $380 $381 reversed $92 $-1 #
coedge $-1 $147 $234 $376 $382 reversed $92 $-1 #
coedge $-1 $378 $383 $147 $237 forward $384 $-1 #
edge $-1 $385 7.5258502387609951 $386 19.742701697462252 $236 $387 forward 7 unknown #
loop $-1 $-1 $243 $148 #
plane-surface $-1 -65.067903683584092 -22.627482700833667 0.41345957798108657 -0.61566148304635926 0 0.78801074757464917 0.78801074757464917 0 0.61566148304635926 forward_v I I I I #
loop $-1 $-1 $388 $94 #
coedge $-1 $241 $241 $242 $389 reversed $149 $-1 #
coedge $-1 $242 $242 $241 $389 forward $151 $-1 #
coedge $-1 $243 $243 $152 $244 forward $238 $-1 #
edge $-1 $390 0 $390 6.2831853071796004 $243 $391 forward 7 unknown #
loop $-1 $-1 $250 $153 #
plane-surface $-1 -65.067903683584092 -22.627482700833667 0.41345957798108657 -0.61566148304635926 0 0.78801074757464917 0.78801074757464917 0 0.61566148304635926 forward_v I I I I #
loop $-1 $-1 $392 $97 #
coedge $-1 $248 $248 $249 $393 reversed $154 $-1 #
coedge $-1 $249 $249 $248 $393 forward $156 $-1 #
coedge $-1 $250 $250 $157 $251 forward $245 $-1 #
edge $-1 $394 0 $394 6.2831853071796004 $250 $395 forward 7 unknown #
face $-1 $396 $397 $56 $-1 $398 forward single #
loop $-1 $-1 $399 $158 #
plane-surface $-1 -145.18750784469017 2.0928588343237147 102.96187442761382 0 -1 0 0.61566148304635926 0 -0.78801074757464917 forward_v I I I I #
coedge $-1 $400 $401 $402 $403 reversed $159 $-1 #
coedge $-1 $257 $161 $404 $405 reversed $101 $-1 #
coedge $-1 $161 $256 $400 $406 reversed $101 $-1 #
coedge $-1 $402 $407 $161 $259 forward $397 $-1 #
edge $-1 $408 7.5258502387609951 $409 19.742701697462252 $258 $410 forward 7 unknown #
loop $-1 $-1 $265 $162 #
plane-surface $-1 -65.067903683584092 -4.8001980033373073 0.41345957798108657 -0.61566148304635926 0 0.78801074757464917 0.78801074757464917 0 0.61566148304635926 forward_v I I I I #
loop $-1 $-1 $411 $103 #
coedge $-1 $263 $263 $264 $412 reversed $163 $-1 #
coedge $-1 $264 $264 $263 $412 forward $165 $-1 #
coedge $-1 $265 $265 $166 $266 forward $260 $-1 #
edge $-1 $413 0 $413 6.2831853071796004 $265 $414 forward 7 unknown #
loop $-1 $-1 $272 $167 #
plane-surface $-1 -65.067903683584092 -4.8001980033373073 0.41345957798108657 -0.61566148304635926 0 0.78801074757464917 0.78801074757464917 0 0.61566148304635926 forward_v I I I I #
loop $-1 $-1 $415 $106 #
coedge $-1 $270 $270 $271 $416 reversed $168 $-1 #
coedge $-1 $271 $271 $270 $416 forward $170 $-1 #
coedge $-1 $272 $272 $171 $273 forward $267 $-1 #
edge $-1 $417 0 $417 6.2831853071796004 $272 $418 forward 7 unknown #
face $-1 $419 $420 $59 $-1 $421 forward single #
loop $-1 $-1 $422 $172 #
plane-surface $-1 -145.18750784469017 19.920143531820081 102.96187442761382 0 -1 0 0.61566148304635926 0 -0.78801074757464917 forward_v I I I I #
coedge $-1 $423 $424 $425 $426 reversed $173 $-1 #
coedge $-1 $279 $175 $427 $428 reversed $110 $-1 #
coedge $-1 $175 $278 $423 $429 reversed $110 $-1 #
coedge $-1 $425 $430 $175 $281 forward $420 $-1 #
edge $-1 $431 7.5258502387609951 $432 19.742701697462252 $280 $433 forward 7 unknown #
loop $-1 $-1 $287 $176 #
plane-surface $-1 -65.067903683584092 13.02708669415906 0.41345957798108657 -0.61566148304635926 0 0.78801074757464917 0.78801074757464917 0 0.61566148304635926 forward_v I I I I #
loop $-1 $-1 $434 $112 #
coedge $-1 $285 $285 $286 $435 reversed $177 $-1 #
coedge $-1 $286 $286 $285 $435 forward $179 $-1 #
coedge $-1 $287 $287 $180 $288 forward $282 $-1 #
edge $-1 $436 0 $436 6.2831853071796004 $287 $437 forward 7 unknown #
loop $-1 $-1 $294 $181 #
plane-surface $-1 -65.067903683584092 13.02708669415906 0.41345957798108657 -0.61566148304635926 0 0.78801074757464917 0.78801074757464917 0 0.61566148304635926 forward_v I I I I #
loop $-1 $-1 $438 $115 #
coedge $-1 $292 $292 $293 $439 reversed $182 $-1 #
coedge $-1 $293 $293 $292 $439 forward $184 $-1 #
coedge $-1 $294 $294 $185 $295 forward $289 $-1 #
edge $-1 $440 0 $440 6.2831853071796004 $294 $441 forward 7 unknown #
face $-1 $442 $443 $62 $-1 $444 forward single #
loop $-1 $-1 $445 $186 #
plane-surface $-1 -145.18750784469017 37.747428229316448 102.96187442761382 0 -1 0 0.61566148304635926 0 -0.78801074757464917 forward_v I I I I #
coedge $-1 $446 $447 $448 $449 reversed $187 $-1 #
coedge $-1 $301 $189 $450 $451 reversed $119 $-1 #
coedge $-1 $189 $300 $446 $452 reversed $119 $-1 #
coedge $-1 $448 $453 $189 $303 forward $443 $-1 #
edge $-1 $454 7.5258502387609951 $455 19.742701697462252 $302 $456 forward 7 unknown #
loop $-1 $-1 $309 $190 #
plane-surface $-1 -65.067903683584092 30.854371391655427 0.41345957798108657 -0.61566148304635926 0 0.78801074757464917 0.78801074757464917 0 0.61566148304635926 forward_v I I I I #
loop $-1 $-1 $457 $121 #
coedge $-1 $307 $307 $308 $458 reversed $191 $-1 #
coedge $-1 $308 $308 $307 $458 forward $193 $-1 #
coedge $-1 $309 $309 $194 $310 forward $304 $-1 #
edge $-1 $459 0 $459 6.2831853071796004 $309 $460 forward 7 unknown #
loop $-1 $-1 $316 $195 #
plane-surface $-1 -65.067903683584092 30.854371391655427 0.41345957798108657 -0.61566148304635926 0 0.78801074757464917 0.78801074757464917 0 0.61566148304635926 forward_v I I I I #
loop $-1 $-1 $461 $124 #
coedge $-1 $314 $314 $315 $462 reversed $196 $-1 #
coedge $-1 $315 $315 $314 $462 forward $198 $-1 #
coedge $-1 $316 $316 $199 $317 forward $311 $-1 #
edge $-1 $463 0 $463 6.2831853071796004 $316 $464 forward 7 unknown #
face $-1 $465 $466 $65 $-1 $467 forward single #
loop $-1 $-1 $468 $200 #
plane-surface $-1 58.645008501409194 19.213103056527416 190.86245027335144 0 1 0 0.68199836817093118 0 0.7313536940579346 forward_v I I I I #
coedge $-1 $469 $470 $471 $472 reversed $201 $-1 #
coedge $-1 $323 $203 $473 $474 reversed $128 $-1 #
coedge $-1 $203 $322 $469 $475 reversed $128 $-1 #
coedge $-1 $471 $476 $203 $325 forward $466 $-1 #
edge $-1 $477 -35.745399432879495 $478 -32.503015869131659 $324 $479 forward 7 unknown #
loop $-1 $-1 $331 $204 #
plane-surface $-1 -30.107399763606153 26.713583345989569 95.687146826161211 0.68199836817093118 0 0.7313536940579346 0.7313536940579346 0 -0.68199836817093118 forward_v I I I I #
loop $-1 $-1 $480 $130 #
coedge $-1 $329 $329 $330 $481 reversed $205 $-1 #
coedge $-1 $330 $330 $329 $481 forward $207 $-1 #
coedge $-1 $331 $331 $208 $332 forward $326 $-1 #
edge $-1 $482 0 $482 6.2831853071796004 $331 $483 forward 7 unknown #
loop $-1 $-1 $338 $209 #
plane-surface $-1 -30.107399763606153 26.713583345989569 95.687146826161211 0.68199836817093118 0 0.7313536940579346 0.7313536940579346 0 -0.68199836817093118 forward_v I I I I #
loop $-1 $-1 $484 $133 #
coedge $-1 $336 $336 $337 $485 reversed $210 $-1 #
coedge $-1 $337 $337 $336 $485 forward $212 $-1 #
coedge $-1 $338 $338 $213 $339 forward $333 $-1 #
edge $-1 $486 0 $486 6.2831853071796004 $338 $487 forward 7 unknown #
face $-1 $488 $489 $51 $-1 $490 reversed single #
loop $-1 $-1 $491 $214 #
plane-surface $-1 -65.067903683584092 0 0 1 0 0 0 0 -1 forward_v I I I I #
coedge $-1 $220 $492 $493 $494 forward $215 $-1 #
coedge $-1 $495 $217 $496 $497 forward $137 $-1 #
coedge $-1 $217 $495 $348 $498 forward $137 $-1 #
coedge $-1 $349 $499 $217 $347 reversed $500 $-1 #
edge $-1 $501 -43.809184762577907 $502 43.809184762577907 $346 $503 forward 7 unknown #
coedge $-1 $219 $218 $345 $498 reversed $86 $-1 #
coedge $-1 $493 $346 $218 $350 forward $500 $-1 #
edge $-1 $501 -9.9583102165931905 $354 9.9583102165931905 $349 $504 forward 7 unknown #
coedge $-1 $505 $506 $219 $352 reversed $341 $-1 #
edge $-1 $507 -9.9583102165931905 $355 9.9583102165931905 $351 $508 forward 7 unknown #
coedge $-1 $492 $220 $506 $509 forward $215 $-1 #
vertex $-1 $350 $510 #
vertex $-1 $509 $511 #
straight-curve $-1 0 -43.809184762577907 -9.9583102165931905 -1 0 0 I I #
face $-1 $512 $513 $52 $-1 $514 reversed single #
loop $-1 $-1 $228 $222 #
plane-surface $-1 -64.567903683584092 -47.922629107988776 0 1 0 0 0 0 -1 forward_v I I I I #
coedge $-1 $515 $516 $517 $518 forward $223 $-1 #
coedge $-1 $519 $225 $520 $521 forward $141 $-1 #
coedge $-1 $225 $519 $367 $522 forward $141 $-1 #
edge $-1 $369 -64.567903683584092 $523 -60.613816006835918 $225 $524 forward 7 unknown #
coedge $-1 $227 $226 $525 $526 forward $89 $-1 #
coedge $-1 $527 $528 $226 $366 forward $529 $-1 #
edge $-1 $530 60.613816006835918 $370 64.567903683584092 $365 $531 forward 7 unknown #
coedge $-1 $517 $228 $362 $522 reversed $358 $-1 #
coedge $-1 $228 $517 $527 $532 reversed $358 $-1 #
vertex $-1 $363 $533 #
vertex $-1 $532 $534 #
straight-curve $-1 -64.567903683584092 -43.809184762577907 0 0 0 1 I I #
face $-1 $-1 $384 $53 $-1 $535 forward single #
loop $-1 $-1 $536 $230 #
plane-surface $-1 -65.067903683584092 0 0 1 0 0 0 0 -1 forward_v I I I I #
coedge $-1 $537 $538 $539 $540 reversed $231 $-1 #
coedge $-1 $541 $233 $235 $382 forward $145 $-1 #
coedge $-1 $233 $541 $537 $542 forward $145 $-1 #
coedge $-1 $539 $236 $233 $379 forward $384 $-1 #
edge $-1 $386 -18.206798188077855 $543 -4.4206845127558125 $378 $544 forward 7 unknown #
coedge $-1 $545 $546 $234 $381 forward $373 $-1 #
edge $-1 $547 -51.067477635825824 $385 -41.52262699721372 $380 $548 forward 7 unknown #
edge $-1 $386 -15.50340715060354 $547 0 $235 $549 forward 7 unknown #
coedge $-1 $236 $539 $545 $550 forward $384 $-1 #
loop $-1 $-1 $539 $372 #
vertex $-1 $381 $551 #
vertex $-1 $237 $552 #
straight-curve $-1 -72.593753922345087 -29.520539538494688 9.9583102165931905 1 0 0 I I #
coedge $-1 $388 $388 $-1 $553 reversed $240 $-1 #
edge $-1 $554 0 $554 6.2831853071796004 $241 $555 forward 7 unknown #
vertex $-1 $244 $556 #
ellipse-curve $-1 -58.959477954233463 -25.581649916974108 5.1858848972871385 -0.61566148304635926 0 0.78801074757464917 0.78801074757464917 0 0.61566148304635926 1 I I #
coedge $-1 $392 $392 $-1 $557 reversed $247 $-1 #
edge $-1 $558 0 $558 6.2831853071796004 $248 $559 forward 7 unknown #
vertex $-1 $251 $560 #
ellipse-curve $-1 -58.959477954233463 -19.673315484693234 5.1858848972871385 -0.61566148304635926 0 0.78801074757464917 0.78801074757464917 0 0.61566148304635926 1 I I #
face $-1 $-1 $561 $56 $-1 $562 reversed single #
loop $-1 $-1 $258 $252 #
plane-surface $-1 0 0 9.9583102165931905 0 0 1 1 0 0 forward_v I I I I #
coedge $-1 $563 $564 $565 $566 reversed $253 $-1 #
coedge $-1 $567 $255 $257 $406 forward $159 $-1 #
coedge $-1 $255 $567 $563 $568 forward $159 $-1 #
coedge $-1 $565 $258 $255 $403 forward $397 $-1 #
edge $-1 $409 -9.2931558393296747 $569 4.4929578359923683 $402 $570 forward 7 unknown #
coedge $-1 $571 $572 $256 $405 forward $561 $-1 #
edge $-1 $573 -51.067477635825824 $408 -41.52262699721372 $404 $574 forward 7 unknown #
edge $-1 $409 -15.50340715060354 $573 0 $257 $575 forward 7 unknown #
coedge $-1 $258 $565 $571 $576 forward $397 $-1 #
vertex $-1 $259 $577 #
vertex $-1 $259 $578 #
straight-curve $-1 -72.593753922345087 -11.693254840998328 9.9583102165931905 1 0 0 I I #
coedge $-1 $411 $411 $-1 $579 reversed $262 $-1 #
edge $-1 $580 0 $580 6.2831853071796004 $263 $581 forward 7 unknown #
vertex $-1 $266 $582 #
ellipse-curve $-1 -58.959477954233463 -7.7543652194777408 5.1858848972871385 -0.61566148304635926 0 0.78801074757464917 0.78801074757464917 0 0.61566148304635926 1 I I #
coedge $-1 $415 $415 $-1 $583 reversed $269 $-1 #
edge $-1 $584 0 $584 6.2831853071796004 $270 $585 forward 7 unknown #
vertex $-1 $273 $586 #
ellipse-curve $-1 -58.959477954233463 -1.8460307871968737 5.1858848972871385 -0.61566148304635926 0 0.78801074757464917 0.78801074757464917 0 0.61566148304635926 1 I I #
face $-1 $-1 $587 $59 $-1 $588 reversed single #
loop $-1 $-1 $280 $274 #
plane-surface $-1 0 0 9.9583102165931905 0 0 1 1 0 0 forward_v I I I I #
coedge $-1 $589 $590 $591 $592 reversed $275 $-1 #
coedge $-1 $593 $277 $279 $429 forward $173 $-1 #
coedge $-1 $277 $593 $589 $594 forward $173 $-1 #
coedge $-1 $591 $280 $277 $426 forward $420 $-1 #
edge $-1 $432 -0.37951349058149209 $595 13.406600184740551 $425 $596 forward 7 unknown #
coedge $-1 $597 $598 $278 $428 forward $587 $-1 #
edge $-1 $599 -51.067477635825824 $431 -41.52262699721372 $427 $600 forward 7 unknown #
edge $-1 $432 -15.50340715060354 $599 0 $279 $601 forward 7 unknown #
coedge $-1 $280 $591 $597 $602 forward $420 $-1 #
vertex $-1 $281 $603 #
vertex $-1 $281 $604 #
straight-curve $-1 -72.593753922345087 6.1340298564980378 9.9583102165931905 1 0 0 I I #
coedge $-1 $434 $434 $-1 $605 reversed $284 $-1 #
edge $-1 $606 0 $606 6.2831853071796004 $285 $607 forward 7 unknown #
vertex $-1 $288 $608 #
ellipse-curve $-1 -58.959477954233463 10.072919478018626 5.1858848972871385 -0.61566148304635926 0 0.78801074757464917 0.78801074757464917 0 0.61566148304635926 1 I I #
coedge $-1 $438 $438 $-1 $609 reversed $291 $-1 #
edge $-1 $610 0 $610 6.2831853071796004 $292 $611 forward 7 unknown #
vertex $-1 $295 $612 #
ellipse-curve $-1 -58.959477954233463 15.981253910299493 5.1858848972871385 -0.61566148304635926 0 0.78801074757464917 0.78801074757464917 0 0.61566148304635926 1 I I #
face $-1 $-1 $613 $62 $-1 $614 reversed single #
loop $-1 $-1 $302 $296 #
plane-surface $-1 0 0 9.9583102165931905 0 0 1 1 0 0 forward_v I I I I #
coedge $-1 $615 $616 $617 $618 reversed $297 $-1 #
coedge $-1 $619 $299 $301 $452 forward $187 $-1 #
coedge $-1 $299 $619 $615 $620 forward $187 $-1 #
coedge $-1 $617 $302 $299 $449 forward $443 $-1 #
edge $-1 $455 8.5341288581666923 $621 22.320242533488734 $448 $622 forward 7 unknown #
coedge $-1 $623 $624 $300 $451 forward $613 $-1 #
edge $-1 $625 -51.067477635825824 $454 -41.52262699721372 $450 $626 forward 7 unknown #
edge $-1 $455 -15.50340715060354 $625 0 $301 $627 forward 7 unknown #
coedge $-1 $302 $617 $623 $628 forward $443 $-1 #
vertex $-1 $303 $629 #
vertex $-1 $303 $630 #
straight-curve $-1 -72.593753922345087 23.961314553994406 9.9583102165931905 1 0 0 I I #
coedge $-1 $457 $457 $-1 $631 reversed $306 $-1 #
edge $-1 $632 0 $632 6.2831853071796004 $307 $633 forward 7 unknown #
vertex $-1 $310 $634 #
ellipse-curve $-1 -58.959477954233463 27.900204175514993 5.1858848972871385 -0.61566148304635926 0 0.78801074757464917 0.78801074757464917 0 0.61566148304635926 1 I I #
coedge $-1 $461 $461 $-1 $635 reversed $313 $-1 #
edge $-1 $636 0 $636 6.2831853071796004 $314 $637 forward 7 unknown #
vertex $-1 $317 $638 #
ellipse-curve $-1 -58.959477954233463 33.80853860779586 5.1858848972871385 -0.61566148304635926 0 0.78801074757464917 0.78801074757464917 0 0.61566148304635926 1 I I #
face $-1 $-1 $639 $65 $-1 $640 reversed single #
loop $-1 $-1 $324 $318 #
plane-surface $-1 0 0 9.9583102165931905 0 0 1 1 0 0 forward_v I I I I #
coedge $-1 $641 $642 $643 $644 reversed $319 $-1 #
coedge $-1 $645 $321 $323 $475 forward $201 $-1 #
coedge $-1 $321 $645 $641 $646 forward $201 $-1 #
coedge $-1 $643 $324 $321 $472 forward $466 $-1 #
edge $-1 $478 -20.857271962456938 $647 -5.8563113835326313 $471 $648 forward 7 unknown #
coedge $-1 $649 $650 $322 $474 forward $639 $-1 #
edge $-1 $651 -88.496486575529872 $477 -85.47291492008253 $473 $652 forward 7 unknown #
edge $-1 $478 125.70240723520553 $651 130.13580736716818 $323 $653 forward 7 unknown #
coedge $-1 $324 $643 $649 $654 forward $466 $-1 #
vertex $-1 $325 $655 #
vertex $-1 $325 $656 #
straight-curve $-1 29.322504250704597 34.214063635451723 9.9583102165931905 -1 0 0 I I #
coedge $-1 $480 $480 $-1 $657 reversed $328 $-1 #
edge $-1 $658 0 $658 6.2831853071796004 $329 $659 forward 7 unknown #
vertex $-1 $332 $660 #
ellipse-curve $-1 63.446711901710174 23.499091793362943 8.4465243888695269 0.68199836817093118 0 0.7313536940579346 0.7313536940579346 0 -0.68199836817093118 1 I I #
coedge $-1 $484 $484 $-1 $661 reversed $335 $-1 #
edge $-1 $662 0 $662 6.2831853071796004 $336 $663 forward 7 unknown #
vertex $-1 $339 $664 #
ellipse-curve $-1 63.446711901710174 29.92807489861621 8.4465243888695269 0.68199836817093118 0 0.7313536940579346 0.7313536940579346 0 -0.68199836817093118 1 I I #
face $-1 $-1 $500 $51 $-1 $665 reversed single #
loop $-1 $-1 $666 $340 #
plane-surface $-1 0 43.809184762577907 0 0 -1 0 0 0 -1 forward_v I I I I #
coedge $-1 $506 $505 $667 $668 forward $341 $-1 #
coedge $-1 $343 $353 $669 $670 forward $215 $-1 #
coedge $-1 $499 $349 $343 $494 reversed $500 $-1 #
edge $-1 $671 -43.809184762577907 $354 43.809184762577907 $493 $672 forward 7 unknown #
coedge $-1 $345 $344 $505 $673 forward $137 $-1 #
coedge $-1 $666 $667 $344 $497 reversed $489 $-1 #
edge $-1 $502 -65.067903683584092 $674 65.067903683584092 $496 $675 forward 7 unknown #
edge $-1 $507 -65.067903683584092 $501 65.067903683584092 $348 $676 forward 7 unknown #
coedge $-1 $346 $493 $666 $677 reversed $500 $-1 #
loop $-1 $-1 $349 $488 #
vertex $-1 $347 $678 #
vertex $-1 $347 $679 #
straight-curve $-1 65.067903683584092 0 9.9583102165931905 0 1 0 I I #
straight-curve $-1 65.067903683584092 -43.809184762577907 0 0 0 -1 I I #
coedge $-1 $491 $351 $495 $673 reversed $341 $-1 #
coedge $-1 $351 $491 $353 $509 reversed $341 $-1 #
vertex $-1 $673 $680 #
straight-curve $-1 -65.067903683584092 -43.809184762577907 0 0 0 -1 I I #
edge $-1 $355 -43.809184762577907 $681 43.809184762577907 $506 $682 forward 7 unknown #
point $-1 65.067903683584092 -43.809184762577907 -9.9583102165931905 #
point $-1 -65.067903683584092 -43.809184762577907 -9.9583102165931905 #
face $-1 $-1 $529 $52 $-1 $683 forward single #
loop $-1 $-1 $684 $357 #
plane-surface $-1 -60.613816006835918 -47.922629107988776 0 -1 0 0 0 0 1 forward_v I I I I #
coedge $-1 $685 $360 $519 $686 reversed $223 $-1 #
coedge $-1 $360 $685 $687 $688 reversed $223 $-1 #
coedge $-1 $368 $367 $360 $518 reversed $358 $-1 #
edge $-1 $689 -9.9583102165931905 $690 9.9583102165931905 $517 $691 forward 7 unknown #
coedge $-1 $362 $361 $515 $686 forward $141 $-1 #
coedge $-1 $525 $684 $361 $521 reversed $513 $-1 #
edge $-1 $523 -4.1134443454108691 $692 4.1134443454108691 $520 $693 forward 7 unknown #
edge $-1 $690 -4.1134443454108691 $369 4.1134443454108691 $367 $694 forward 7 unknown #
vertex $-1 $521 $695 #
straight-curve $-1 0 -43.809184762577907 -9.9583102165931905 1 0 0 I I #
coedge $-1 $696 $520 $364 $526 reversed $513 $-1 #
edge $-1 $530 -9.9583102165931905 $523 9.9583102165931905 $525 $697 forward 7 unknown #
coedge $-1 $687 $365 $368 $532 forward $529 $-1 #
coedge $-1 $365 $687 $696 $698 forward $529 $-1 #
loop $-1 $-1 $365 $512 #
vertex $-1 $366 $699 #
straight-curve $-1 0 -43.809184762577907 9.9583102165931905 -1 0 0 I I #
edge $-1 $370 -4.1134443454108691 $689 4.1134443454108691 $368 $700 forward 7 unknown #
point $-1 -64.567903683584092 -43.809184762577907 -9.9583102165931905 #
point $-1 -64.567903683584092 -43.809184762577907 9.9583102165931905 #
plane-surface $-1 0 0 9.9583102165931905 0 0 1 1 0 0 forward_v I I I I #
coedge $-1 $546 $545 $538 $701 forward $373 $-1 #
coedge $-1 $538 $375 $377 $542 reversed $231 $-1 #
coedge $-1 $375 $537 $536 $701 reversed $231 $-1 #
coedge $-1 $383 $378 $375 $540 forward $384 $-1 #
edge $-1 $543 -19.742701697462252 $702 -7.5258502387609951 $539 $703 forward 7 unknown #
coedge $-1 $377 $376 $546 $704 reversed $145 $-1 #
edge $-1 $705 0 $543 15.50340715060354 $537 $706 forward 7 unknown #
vertex $-1 $379 $707 #
straight-curve $-1 -52.851052224882835 -11.313741350416834 9.9583102165931887 0 1 0 I I #
coedge $-1 $536 $380 $383 $550 reversed $373 $-1 #
coedge $-1 $380 $536 $541 $704 forward $373 $-1 #
vertex $-1 $381 $708 #
straight-curve $-1 -65.067903683584092 -29.520539538494688 51.480937213806911 0 0 1 I I #
straight-curve $-1 -65.067903683584092 -29.520539538494688 0.41345957798108657 -0.78801074757464917 0 -0.61566148304635926 I I #
edge $-1 $702 15.734425863172646 $385 29.520539538494688 $545 $709 forward 7 unknown #
point $-1 -65.067903683584092 -29.520539538494688 9.9583102165931905 #
point $-1 -52.851052224882835 -29.520539538494688 9.9583102165931905 #
edge $-1 $710 1 $710 0 $388 $-1 forward 7 unknown #
vertex $-1 $389 $711 #
ellipse-curve $-1 -56.772749526810017 -25.581649916974108 2.3870002012521034 -0.61566148304635926 0 0.78801074757464917 0.78801074757464917 0 0.61566148304635926 1 I I #
point $-1 -58.171467206658832 -25.581649916974108 5.8015463803335106 #
edge $-1 $712 1 $712 0 $392 $-1 forward 7 unknown #
vertex $-1 $393 $713 #
ellipse-curve $-1 -56.772749526810017 -19.673315484693234 2.3870002012521034 -0.61566148304635926 0 0.78801074757464917 0.78801074757464917 0 0.61566148304635926 1 I I #
point $-1 -58.171467206658832 -19.673315484693234 5.8015463803335106 #
loop $-1 $-1 $404 $396 #
plane-surface $-1 -65.067903683584092 0 0 1 0 0 0 0 -1 forward_v I I I I #
coedge $-1 $564 $399 $401 $568 reversed $253 $-1 #
coedge $-1 $399 $563 $714 $715 reversed $253 $-1 #
coedge $-1 $407 $402 $399 $566 forward $397 $-1 #
edge $-1 $569 -19.742701697462252 $716 -7.5258502387609951 $565 $717 forward 7 unknown #
coedge $-1 $401 $400 $572 $718 reversed $159 $-1 #
edge $-1 $719 0 $569 15.50340715060354 $563 $720 forward 7 unknown #
vertex $-1 $403 $721 #
straight-curve $-1 -52.851052224882835 -2.4000990016686536 9.9583102165931887 0 1 0 I I #
coedge $-1 $714 $404 $407 $576 reversed $561 $-1 #
coedge $-1 $404 $714 $567 $718 forward $561 $-1 #
vertex $-1 $405 $722 #
straight-curve $-1 -65.067903683584092 -11.693254840998328 51.480937213806911 0 0 1 I I #
straight-curve $-1 -65.067903683584092 -11.693254840998328 0.41345957798108657 -0.78801074757464917 0 -0.61566148304635926 I I #
edge $-1 $716 -2.0928588343237147 $408 11.693254840998328 $571 $723 forward 7 unknown #
point $-1 -65.067903683584092 -11.693254840998328 9.9583102165931905 #
point $-1 -52.851052224882835 -11.693254840998328 9.9583102165931905 #
edge $-1 $724 1 $724 0 $411 $-1 forward 7 unknown #
vertex $-1 $412 $725 #
ellipse-curve $-1 -56.772749526810017 -7.7543652194777408 2.3870002012521034 -0.61566148304635926 0 0.78801074757464917 0.78801074757464917 0 0.61566148304635926 1 I I #
point $-1 -58.171467206658832 -7.7543652194777408 5.8015463803335106 #
edge $-1 $726 1 $726 0 $415 $-1 forward 7 unknown #
vertex $-1 $416 $727 #
ellipse-curve $-1 -56.772749526810017 -1.8460307871968737 2.3870002012521034 -0.61566148304635926 0 0.78801074757464917 0.78801074757464917 0 0.61566148304635926 1 I I #
point $-1 -58.171467206658832 -1.8460307871968737 5.8015463803335106 #
loop $-1 $-1 $427 $419 #
plane-surface $-1 -65.067903683584092 0 0 1 0 0 0 0 -1 forward_v I I I I #
coedge $-1 $590 $422 $424 $594 reversed $275 $-1 #
coedge $-1 $422 $589 $728 $729 reversed $275 $-1 #
coedge $-1 $430 $425 $422 $592 forward $420 $-1 #
edge $-1 $595 -19.742701697462252 $730 -7.5258502387609951 $591 $731 forward 7 unknown #
coedge $-1 $424 $423 $598 $732 reversed $173 $-1 #
edge $-1 $733 0 $595 15.50340715060354 $589 $734 forward 7 unknown #
vertex $-1 $426 $735 #
straight-curve $-1 -52.851052224882835 6.5135433470795299 9.9583102165931887 0 1 0 I I #
coedge $-1 $728 $427 $430 $602 reversed $587 $-1 #
coedge $-1 $427 $728 $593 $732 forward $587 $-1 #
vertex $-1 $428 $736 #
straight-curve $-1 -65.067903683584092 6.1340298564980378 51.480937213806911 0 0 1 I I #
straight-curve $-1 -65.067903683584092 6.1340298564980378 0.41345957798108657 -0.78801074757464917 0 -0.61566148304635926 I I #
edge $-1 $730 -19.920143531820081 $431 -6.1340298564980378 $597 $737 forward 7 unknown #
point $-1 -65.067903683584092 6.1340298564980378 9.9583102165931905 #
point $-1 -52.851052224882835 6.1340298564980378 9.9583102165931905 #
edge $-1 $738 1 $738 0 $434 $-1 forward 7 unknown #
vertex $-1 $435 $739 #
ellipse-curve $-1 -56.772749526810017 10.072919478018626 2.3870002012521034 -0.61566148304635926 0 0.78801074757464917 0.78801074757464917 0 0.61566148304635926 1 I I #
point $-1 -58.171467206658832 10.072919478018626 5.8015463803335106 #
edge $-1 $740 1 $740 0 $438 $-1 forward 7 unknown #
vertex $-1 $439 $741 #
ellipse-curve $-1 -56.772749526810017 15.981253910299493 2.3870002012521034 -0.61566148304635926 0 0.78801074757464917 0.78801074757464917 0 0.61566148304635926 1 I I #
point $-1 -58.171467206658832 15.981253910299493 5.8015463803335106 #
loop $-1 $-1 $450 $442 #
plane-surface $-1 -65.067903683584092 0 0 1 0 0 0 0 -1 forward_v I I I I #
coedge $-1 $616 $445 $447 $620 reversed $297 $-1 #
coedge $-1 $445 $615 $742 $743 reversed $297 $-1 #
coedge $-1 $453 $448 $445 $618 forward $443 $-1 #
edge $-1 $621 -19.742701697462252 $744 -7.5258502387609951 $617 $745 forward 7 unknown #
coedge $-1 $447 $446 $624 $746 reversed $187 $-1 #
edge $-1 $747 0 $621 15.50340715060354 $615 $748 forward 7 unknown #
vertex $-1 $449 $749 #
straight-curve $-1 -52.851052224882835 15.427185695827713 9.9583102165931887 0 1 0 I I #
coedge $-1 $742 $450 $453 $628 reversed $613 $-1 #
coedge $-1 $450 $742 $619 $746 forward $613 $-1 #
vertex $-1 $451 $750 #
straight-curve $-1 -65.067903683584092 23.961314553994406 51.480937213806911 0 0 1 I I #
straight-curve $-1 -65.067903683584092 23.961314553994406 0.41345957798108657 -0.78801074757464917 0 -0.61566148304635926 I I #
edge $-1 $744 -37.747428229316448 $454 -23.961314553994406 $623 $751 forward 7 unknown #
point $-1 -65.067903683584092 23.961314553994406 9.9583102165931905 #
point $-1 -52.851052224882835 23.961314553994406 9.9583102165931905 #
edge $-1 $752 1 $752 0 $457 $-1 forward 7 unknown #
vertex $-1 $458 $753 #
ellipse-curve $-1 -56.772749526810017 27.900204175514993 2.3870002012521034 -0.61566148304635926 0 0.78801074757464917 0.78801074757464917 0 0.61566148304635926 1 I I #
point $-1 -58.171467206658832 27.900204175514993 5.8015463803335106 #
edge $-1 $754 1 $754 0 $461 $-1 forward 7 unknown #
vertex $-1 $462 $755 #
ellipse-curve $-1 -56.772749526810017 33.80853860779586 2.3870002012521034 -0.61566148304635926 0 0.78801074757464917 0.78801074757464917 0 0.61566148304635926 1 I I #
point $-1 -58.171467206658832 33.80853860779586 5.8015463803335106 #
loop $-1 $-1 $473 $465 #
plane-surface $-1 65.067903683584092 0 0 -1 0 0 0 0 1 forward_v I I I I #
coedge $-1 $642 $468 $470 $646 reversed $319 $-1 #
coedge $-1 $468 $641 $756 $757 reversed $319 $-1 #
coedge $-1 $476 $471 $468 $644 forward $466 $-1 #
edge $-1 $647 32.503015869131659 $758 35.745399432879495 $643 $759 forward 7 unknown #
coedge $-1 $470 $469 $650 $760 reversed $201 $-1 #
edge $-1 $761 -130.13580736716818 $647 -125.70240723520553 $641 $762 forward 7 unknown #
vertex $-1 $472 $763 #
straight-curve $-1 61.825520119836241 13.356791672994785 9.9583102165931834 0 -1 0 I I #
coedge $-1 $756 $473 $476 $654 reversed $639 $-1 #
coedge $-1 $473 $756 $645 $760 forward $639 $-1 #
vertex $-1 $474 $764 #
straight-curve $-1 65.067903683584092 34.214063635451723 95.431225136675721 0 0 1 I I #
straight-curve $-1 -30.107399763606153 34.214063635451723 95.687146826161211 0.7313536940579346 0 -0.68199836817093118 I I #
edge $-1 $758 19.213103056527416 $477 34.214063635451723 $649 $765 forward 7 unknown #
point $-1 65.067903683584092 34.214063635451723 9.9583102165931905 #
point $-1 61.825520119836256 34.214063635451723 9.9583102165931905 #
edge $-1 $766 1 $766 0 $480 $-1 forward 7 unknown #
vertex $-1 $481 $767 #
ellipse-curve $-1 60.751999333311424 23.499091793362943 5.5567990122410178 0.68199836817093118 0 0.7313536940579346 0.7313536940579346 0 -0.68199836817093118 1 I I #
point $-1 64.178065595768118 23.499091793362943 7.7645260206986055 #
edge $-1 $768 1 $768 0 $484 $-1 forward 7 unknown #
vertex $-1 $485 $769 #
ellipse-curve $-1 60.751999333311424 29.92807489861621 5.5567990122410178 0.68199836817093118 0 0.7313536940579346 0.7313536940579346 0 -0.68199836817093118 1 I I #
point $-1 64.178065595768118 29.92807489861621 7.7645260206986055 #
plane-surface $-1 65.067903683584092 0 0 -1 0 0 0 0 1 forward_v I I I I #
coedge $-1 $669 $496 $499 $677 forward $489 $-1 #
coedge $-1 $496 $669 $491 $668 reversed $489 $-1 #
edge $-1 $674 -9.9583102165931905 $681 9.9583102165931905 $667 $770 forward 7 unknown #
coedge $-1 $667 $666 $492 $670 reversed $489 $-1 #
edge $-1 $681 -65.067903683584092 $671 65.067903683584092 $669 $771 forward 7 unknown #
vertex $-1 $494 $772 #
straight-curve $-1 65.067903683584092 0 -9.9583102165931905 0 -1 0 I I #
edge $-1 $674 -43.809184762577907 $507 43.809184762577907 $505 $773 forward 7 unknown #
vertex $-1 $497 $774 #
straight-curve $-1 0 43.809184762577907 9.9583102165931905 -1 0 0 I I #
straight-curve $-1 0 -43.809184762577907 9.9583102165931905 1 0 0 I I #
edge $-1 $502 -9.9583102165931905 $671 9.9583102165931905 $499 $775 forward 7 unknown #
point $-1 65.067903683584092 -43.809184762577907 9.9583102165931905 #
point $-1 65.067903683584092 43.809184762577907 9.9583102165931905 #
point $-1 -65.067903683584092 -43.809184762577907 9.9583102165931905 #
vertex $-1 $670 $776 #
straight-curve $-1 -65.067903683584092 0 -9.9583102165931905 0 1 0 I I #
plane-surface $-1 0 0 9.9583102165931905 0 0 1 1 0 0 forward_v I I I I #
coedge $-1 $520 $696 $685 $777 forward $513 $-1 #
coedge $-1 $516 $515 $684 $777 reversed $223 $-1 #
edge $-1 $692 -1.9770438383740867 $690 1.9770438383740867 $515 $778 forward 7 unknown #
coedge $-1 $528 $527 $516 $688 forward $529 $-1 #
edge $-1 $689 -1.9770438383740867 $779 1.9770438383740867 $516 $780 forward 7 unknown #
vertex $-1 $532 $781 #
vertex $-1 $522 $782 #
straight-curve $-1 -64.567903683584092 -52.036073453399645 0 0 0 -1 I I #
vertex $-1 $777 $783 #
straight-curve $-1 -60.613816006835918 -47.922629107988776 -9.9583102165931905 0 -1 0 I I #
straight-curve $-1 -64.567903683584092 -47.922629107988776 -9.9583102165931905 0 1 0 I I #
point $-1 -60.613816006835918 -43.809184762577907 -9.9583102165931905 #
coedge $-1 $684 $525 $528 $698 reversed $513 $-1 #
straight-curve $-1 -60.613816006835918 -43.809184762577907 0 0 0 -1 I I #
edge $-1 $779 -4.1134443454108691 $530 4.1134443454108691 $696 $784 forward 7 unknown #
point $-1 -60.613816006835918 -43.809184762577907 9.9583102165931905 #
straight-curve $-1 -64.567903683584092 -47.922629107988776 9.9583102165931905 0 -1 0 I I #
edge $-1 $702 41.52262699721372 $705 51.067477635825824 $536 $785 forward 7 unknown #
vertex $-1 $550 $786 #
straight-curve $-1 -72.593753922345087 -15.734425863172646 9.9583102165931905 -1 0 0 I I #
edge $-1 $705 4.4206845127558125 $547 18.206798188077855 $546 $787 forward 7 unknown #
vertex $-1 $704 $788 #
straight-curve $-1 -65.067903683584092 -15.734425863172646 0.41345957798108657 0.78801074757464917 0 0.61566148304635926 I I #
point $-1 -52.851052224882835 -15.734425863172646 9.9583102165931905 #
point $-1 -65.067903683584092 -29.520539538494688 0.41345957798108657 #
straight-curve $-1 -65.067903683584092 0 9.9583102165931905 0 -1 0 I I #
vertex $-1 $553 $789 #
point $-1 -55.984738779235371 -25.581649916974108 3.0026616842984626 #
vertex $-1 $557 $790 #
point $-1 -55.984738779235371 -19.673315484693234 3.0026616842984626 #
coedge $-1 $572 $571 $564 $715 forward $561 $-1 #
edge $-1 $716 41.52262699721372 $719 51.067477635825824 $714 $791 forward 7 unknown #
vertex $-1 $576 $792 #
straight-curve $-1 -72.593753922345087 2.0928588343237147 9.9583102165931905 -1 0 0 I I #
edge $-1 $719 -4.4929578359923683 $573 9.2931558393296747 $572 $793 forward 7 unknown #
vertex $-1 $718 $794 #
straight-curve $-1 -65.067903683584092 2.0928588343237147 0.41345957798108657 0.78801074757464917 0 0.61566148304635926 I I #
point $-1 -52.851052224882835 2.0928588343237147 9.9583102165931905 #
point $-1 -65.067903683584092 -11.693254840998328 0.41345957798108657 #
straight-curve $-1 -65.067903683584092 0 9.9583102165931905 0 -1 0 I I #
vertex $-1 $579 $795 #
point $-1 -55.984738779235371 -7.7543652194777408 3.0026616842984626 #
vertex $-1 $583 $796 #
point $-1 -55.984738779235371 -1.8460307871968737 3.0026616842984626 #
coedge $-1 $598 $597 $590 $729 forward $587 $-1 #
edge $-1 $730 41.52262699721372 $733 51.067477635825824 $728 $797 forward 7 unknown #
vertex $-1 $602 $798 #
straight-curve $-1 -72.593753922345087 19.920143531820081 9.9583102165931905 -1 0 0 I I #
edge $-1 $733 -13.406600184740551 $599 0.37951349058149209 $598 $799 forward 7 unknown #
vertex $-1 $732 $800 #
straight-curve $-1 -65.067903683584092 19.920143531820081 0.41345957798108657 0.78801074757464917 0 0.61566148304635926 I I #
point $-1 -52.851052224882835 19.920143531820081 9.9583102165931905 #
point $-1 -65.067903683584092 6.1340298564980378 0.41345957798108657 #
straight-curve $-1 -65.067903683584092 0 9.9583102165931905 0 -1 0 I I #
vertex $-1 $605 $801 #
point $-1 -55.984738779235371 10.072919478018626 3.0026616842984626 #
vertex $-1 $609 $802 #
point $-1 -55.984738779235371 15.981253910299493 3.0026616842984626 #
coedge $-1 $624 $623 $616 $743 forward $613 $-1 #
edge $-1 $744 41.52262699721372 $747 51.067477635825824 $742 $803 forward 7 unknown #
vertex $-1 $628 $804 #
straight-curve $-1 -72.593753922345087 37.747428229316448 9.9583102165931905 -1 0 0 I I #
edge $-1 $747 -22.320242533488734 $625 -8.5341288581666923 $624 $805 forward 7 unknown #
vertex $-1 $746 $806 #
straight-curve $-1 -65.067903683584092 37.747428229316448 0.41345957798108657 0.78801074757464917 0 0.61566148304635926 I I #
point $-1 -52.851052224882835 37.747428229316448 9.9583102165931905 #
point $-1 -65.067903683584092 23.961314553994406 0.41345957798108657 #
straight-curve $-1 -65.067903683584092 0 9.9583102165931905 0 -1 0 I I #
vertex $-1 $631 $807 #
point $-1 -55.984738779235371 27.900204175514993 3.0026616842984626 #
vertex $-1 $635 $808 #
point $-1 -55.984738779235371 33.80853860779586 3.0026616842984626 #
coedge $-1 $650 $649 $642 $757 forward $639 $-1 #
edge $-1 $758 85.47291492008253 $761 88.496486575529872 $756 $809 forward 7 unknown #
vertex $-1 $654 $810 #
straight-curve $-1 29.322504250704597 19.213103056527416 9.9583102165931905 1 0 0 I I #
edge $-1 $761 5.8563113835326313 $651 20.857271962456938 $650 $811 forward 7 unknown #
vertex $-1 $760 $812 #
straight-curve $-1 -30.107399763606153 19.213103056527416 95.687146826161211 -0.7313536940579346 0 0.68199836817093118 I I #
point $-1 61.825520119836256 19.213103056527416 9.9583102165931905 #
point $-1 65.067903683584092 34.214063635451723 6.9347385611458492 #
straight-curve $-1 65.067903683584092 0 9.9583102165931905 0 1 0 I I #
vertex $-1 $657 $813 #
point $-1 61.483353027369354 23.499091793362943 4.8748006440700866 #
vertex $-1 $661 $814 #
point $-1 61.483353027369354 29.92807489861621 4.8748006440700866 #
straight-curve $-1 -65.067903683584092 43.809184762577907 0 0 0 -1 I I #
straight-curve $-1 0 43.809184762577907 -9.9583102165931905 1 0 0 I I #
point $-1 65.067903683584092 43.809184762577907 -9.9583102165931905 #
straight-curve $-1 -65.067903683584092 0 9.9583102165931905 0 -1 0 I I #
point $-1 -65.067903683584092 43.809184762577907 9.9583102165931905 #
straight-curve $-1 65.067903683584092 43.809184762577907 0 0 0 -1 I I #
point $-1 -65.067903683584092 43.809184762577907 -9.9583102165931905 #
edge $-1 $779 -9.9583102165931905 $692 9.9583102165931905 $684 $815 forward 7 unknown #
straight-curve $-1 -62.590859845210005 -52.036073453399645 -9.9583102165931905 -1 0 0 I I #
vertex $-1 $698 $816 #
straight-curve $-1 -62.590859845210005 -52.036073453399645 9.9583102165931905 1 0 0 I I #
point $-1 -64.567903683584092 -52.036073453399645 9.9583102165931905 #
point $-1 -64.567903683584092 -52.036073453399645 -9.9583102165931905 #
point $-1 -60.613816006835918 -52.036073453399645 -9.9583102165931905 #
straight-curve $-1 -60.613816006835918 -47.922629107988776 9.9583102165931905 0 1 0 I I #
straight-curve $-1 -65.067903683584092 -15.734425863172646 51.480937213806911 0 0 -1 I I #
point $-1 -65.067903683584092 -15.734425863172646 9.9583102165931905 #
straight-curve $-1 -65.067903683584092 -11.313741350416834 0.41345957798108823 0 -1 0 I I #
point $-1 -65.067903683584092 -15.734425863172646 0.41345957798108657 #
point $-1 -56.157088043763665 -25.581649916974108 1.5989894536774543 #
point $-1 -56.157088043763665 -19.673315484693234 1.5989894536774543 #
straight-curve $-1 -65.067903683584092 2.0928588343237147 51.480937213806911 0 0 -1 I I #
point $-1 -65.067903683584092 2.0928588343237147 9.9583102165931905 #
straight-curve $-1 -65.067903683584092 -2.4000990016686536 0.41345957798108823 0 -1 0 I I #
point $-1 -65.067903683584092 2.0928588343237147 0.41345957798108657 #
point $-1 -56.157088043763665 -7.7543652194777408 1.5989894536774543 #
point $-1 -56.157088043763665 -1.8460307871968737 1.5989894536774543 #
straight-curve $-1 -65.067903683584092 19.920143531820081 51.480937213806911 0 0 -1 I I #
point $-1 -65.067903683584092 19.920143531820081 9.9583102165931905 #
straight-curve $-1 -65.067903683584092 6.5135433470795299 0.41345957798108823 0 -1 0 I I #
point $-1 -65.067903683584092 19.920143531820081 0.41345957798108657 #
point $-1 -56.157088043763665 10.072919478018626 1.5989894536774543 #
point $-1 -56.157088043763665 15.981253910299493 1.5989894536774543 #
straight-curve $-1 -65.067903683584092 37.747428229316448 51.480937213806911 0 0 -1 I I #
point $-1 -65.067903683584092 37.747428229316448 9.9583102165931905 #
straight-curve $-1 -65.067903683584092 15.427185695827713 0.41345957798108823 0 -1 0 I I #
point $-1 -65.067903683584092 37.747428229316448 0.41345957798108657 #
point $-1 -56.157088043763665 27.900204175514993 1.5989894536774543 #
point $-1 -56.157088043763665 33.80853860779586 1.5989894536774543 #
straight-curve $-1 65.067903683584092 19.213103056527416 95.431225136675721 0 0 -1 I I #
point $-1 65.067903683584092 19.213103056527416 9.9583102165931905 #
straight-curve $-1 65.067903683584092 13.356791672994785 6.9347385611458563 0 1 0 I I #
point $-1 65.067903683584092 19.213103056527416 6.9347385611458492 #
point $-1 60.070000965140487 23.499091793362943 4.8254453181830828 #
point $-1 60.070000965140487 29.92807489861621 4.8254453181830828 #
straight-curve $-1 -60.613816006835918 -52.036073453399645 0 0 0 -1 I I #
point $-1 -60.613816006835918 -52.036073453399645 9.9583102165931905 #
End-of-ACIS-data 