500 0 10 0           
7 Unknown 11 ACIS 5.0 NT 24 Fri Mar 26 20:23:00 1999 
-1 9.9999999999999995e-007 1e-010 
body $-1 $10 $-1 $11 #
body $-1 $12 $-1 $13 #
body $-1 $14 $-1 $15 #
body $-1 $16 $-1 $17 #
body $-1 $18 $-1 $19 #
body $-1 $20 $-1 $21 #
body $-1 $22 $-1 $23 #
body $-1 $24 $-1 $25 #
body $-1 $26 $-1 $27 #
body $-1 $28 $-1 $29 #
lump $-1 $-1 $30 $0 #
transform $-1 1 0 0 0 1 0 0 0 1 65.177770317697679 40.413718462958435 19.011727141553173 1 rotate no_reflect no_shear #
lump $-1 $-1 $31 $1 #
transform $-1 1 0 0 0 1 0 0 0 1 65.177770317697679 40.413718462958435 19.011727141553173 1 rotate no_reflect no_shear #
lump $-1 $-1 $32 $2 #
transform $-1 1 0 0 0 1 0 0 0 1 65.177770317697679 40.413718462958435 19.011727141553173 1 rotate no_reflect no_shear #
lump $-1 $-1 $33 $3 #
transform $-1 1 0 0 0 1 0 0 0 1 65.177770317697679 40.413718462958435 19.011727141553173 1 rotate no_reflect no_shear #
lump $-1 $-1 $34 $4 #
transform $-1 1 0 0 0 1 0 0 0 1 65.177770317697679 40.413718462958435 19.011727141553173 1 rotate no_reflect no_shear #
lump $-1 $-1 $35 $5 #
transform $-1 1 0 0 0 1 0 0 0 1 65.177770317697679 40.413718462958435 19.011727141553173 1 rotate no_reflect no_shear #
lump $-1 $-1 $36 $6 #
transform $-1 1 0 0 0 1 0 0 0 1 65.177770317697679 40.413718462958435 19.011727141553173 1 rotate no_reflect no_shear #
lump $-1 $-1 $37 $7 #
transform $-1 1 0 0 0 1 0 0 0 1 65.177770317697679 40.413718462958435 19.011727141553173 1 rotate no_reflect no_shear #
lump $-1 $-1 $38 $8 #
transform $-1 1 0 0 0 1 0 0 0 1 65.177770317697679 40.413718462958435 19.011727141553173 1 rotate no_reflect no_shear #
lump $-1 $-1 $39 $9 #
transform $-1 1 0 0 0 1 0 0 0 1 65.177770317697679 40.413718462958435 19.011727141553173 1 rotate no_reflect no_shear #
shell $-1 $-1 $-1 $40 $-1 $10 #
shell $-1 $-1 $-1 $41 $-1 $12 #
shell $-1 $-1 $-1 $42 $-1 $14 #
shell $-1 $-1 $-1 $43 $-1 $16 #
shell $-1 $-1 $-1 $44 $-1 $18 #
shell $-1 $-1 $-1 $45 $-1 $20 #
shell $-1 $-1 $-1 $46 $-1 $22 #
shell $-1 $-1 $-1 $47 $-1 $24 #
shell $-1 $-1 $-1 $48 $-1 $26 #
shell $-1 $-1 $-1 $49 $-1 $28 #
face $-1 $50 $51 $30 $-1 $52 reversed single #
face $-1 $53 $54 $31 $-1 $55 forward single #
face $-1 $56 $57 $32 $-1 $58 reversed single #
face $-1 $59 $60 $33 $-1 $61 forward single #
face $-1 $62 $63 $34 $-1 $64 reversed single #
face $-1 $65 $66 $35 $-1 $67 forward single #
face $-1 $68 $69 $36 $-1 $70 reversed single #
face $-1 $71 $72 $37 $-1 $73 forward single #
face $-1 $74 $75 $38 $-1 $76 forward single #
face $-1 $77 $78 $39 $-1 $79 forward single #
face $-1 $80 $81 $30 $-1 $82 forward single #
loop $-1 $-1 $83 $40 #
plane-surface $-1 0 -40.413718462958435 0 0 1 0 0 0 1 forward_v I I I I #
face $-1 $84 $85 $31 $-1 $86 reversed single #
loop $-1 $-1 $87 $41 #
plane-surface $-1 0 -40.413718462958435 0 0 1 0 0 0 1 forward_v I I I I #
face $-1 $88 $89 $32 $-1 $90 reversed single #
loop $-1 $-1 $91 $42 #
plane-surface $-1 81.244983844343182 8.3032364948133406 186.79062056572948 0 -1 0 -0.7660444514056185 0 -0.64278759981090561 forward_v I I I I #
face $-1 $92 $93 $33 $-1 $94 forward single #
loop $-1 $95 $96 $43 #
cone-surface $-1 57.528672861457508 2.2191437093312487 10.245286765159246 -0.7660444514056185 0 -0.64278759981090561 0.96418139971635841 0 -1.1490666771084277 1 I I 0 1 1.5 forward I I I I #
face $-1 $97 $98 $34 $-1 $99 reversed single #
loop $-1 $-1 $100 $44 #
plane-surface $-1 81.244983844343182 36.271076637320434 186.79062056572948 0 -1 0 -0.7660444514056185 0 -0.64278759981090561 forward_v I I I I #
face $-1 $101 $102 $35 $-1 $103 forward single #
loop $-1 $104 $105 $45 #
cone-surface $-1 57.528672861457508 30.186983851838342 10.245286765159246 -0.7660444514056185 0 -0.64278759981090561 0.96418139971635841 0 -1.1490666771084277 1 I I 0 1 1.5 forward I I I I #
face $-1 $106 $107 $36 $-1 $108 reversed single #
loop $-1 $-1 $109 $46 #
plane-surface $-1 -170.63761906946638 8.8607495390149964 91.122849009652384 0 1 0 -0.80901700255871778 0 0.5877852410284794 forward_v I I I I #
face $-1 $110 $111 $37 $-1 $112 forward single #
loop $-1 $113 $114 $47 #
cone-surface $-1 -62.074914423410171 11.554459568867877 15.692717721003065 0.80901700255871778 0 -0.5877852410284794 0.5877852410284794 0 0.80901700255871778 1 I I 0 1 1 forward I I I I #
face $-1 $115 $116 $38 $-1 $117 forward single #
loop $-1 $118 $119 $48 #
cone-surface $-1 -62.074914423410171 15.595024613647197 15.692717721003065 0.80901700255871778 0 -0.5877852410284794 0.5877852410284794 0 0.80901700255871778 1 I I 0 1 1 forward I I I I #
face $-1 $120 $121 $39 $-1 $122 forward single #
loop $-1 $123 $124 $49 #
cone-surface $-1 -62.074914423410171 19.635589658426518 15.692717721003065 0.80901700255871778 0 -0.5877852410284794 0.5877852410284794 0 0.80901700255871778 1 I I 0 1 1 forward I I I I #
face $-1 $125 $126 $30 $-1 $127 reversed single #
loop $-1 $-1 $128 $50 #
plane-surface $-1 0 0 19.011727141553173 0 0 1 1 0 0 forward_v I I I I #
coedge $-1 $129 $130 $131 $132 reversed $51 $-1 #
face $-1 $133 $134 $31 $-1 $135 reversed single #
loop $-1 $-1 $136 $53 #
plane-surface $-1 0 0 -19.011727141553173 0 0 1 1 0 0 forward_v I I I I #
coedge $-1 $137 $138 $139 $140 forward $54 $-1 #
face $-1 $141 $142 $32 $-1 $143 reversed single #
loop $-1 $-1 $144 $56 #
plane-surface $-1 -18.613154769381069 2.2191437093312487 102.99969547865072 0.7660444514056185 0 0.64278759981090561 0.64278759981090561 0 -0.7660444514056185 forward_v I I I I #
coedge $-1 $145 $146 $147 $148 reversed $57 $-1 #
face $-1 $-1 $149 $33 $-1 $150 forward single #
loop $-1 $151 $152 $59 #
cone-surface $-1 55.963368905259188 2.2191437093312487 8.9318408272204906 -0.7660444514056185 0 -0.64278759981090561 0.48209069985817921 0 -0.57453333855421385 1 I I -0.70710678118654757 0.70710678118654757 0.75 forward I I I I #
loop $-1 $-1 $153 $43 #
coedge $-1 $96 $96 $154 $155 reversed $60 $-1 #
face $-1 $156 $157 $34 $-1 $158 reversed single #
loop $-1 $-1 $159 $62 #
plane-surface $-1 -18.613154769381069 30.186983851838342 102.99969547865072 0.7660444514056185 0 0.64278759981090561 0.64278759981090561 0 -0.7660444514056185 forward_v I I I I #
coedge $-1 $160 $161 $162 $163 reversed $63 $-1 #
face $-1 $-1 $164 $35 $-1 $165 forward single #
loop $-1 $166 $167 $65 #
cone-surface $-1 55.963368905259188 30.186983851838342 8.9318408272204906 -0.7660444514056185 0 -0.64278759981090561 0.48209069985817921 0 -0.57453333855421385 1 I I -0.70710678118654757 0.70710678118654757 0.75 forward I I I I #
loop $-1 $-1 $168 $45 #
coedge $-1 $105 $105 $169 $170 reversed $66 $-1 #
face $-1 $171 $172 $36 $-1 $173 reversed single #
loop $-1 $-1 $174 $68 #
plane-surface $-1 -65.177770317697693 15.595024613647197 14.501786137878781 -0.80901700255871778 0 0.5877852410284794 0.5877852410284794 0 0.80901700255871778 forward_v I I I I #
coedge $-1 $175 $176 $177 $178 reversed $69 $-1 #
face $-1 $-1 $179 $37 $-1 $180 forward single #
loop $-1 $181 $182 $71 #
cone-surface $-1 -60.205881948856657 11.554459568867877 14.334786181775918 0.80901700255871778 0 -0.5877852410284794 0.2938926205142397 0 0.40450850127935889 1 I I -0.70710678118654746 0.70710678118654746 0.5 forward I I I I #
loop $-1 $-1 $183 $47 #
coedge $-1 $114 $114 $184 $185 reversed $72 $-1 #
face $-1 $-1 $186 $38 $-1 $187 forward single #
loop $-1 $188 $189 $74 #
cone-surface $-1 -60.205881948856657 15.595024613647197 14.334786181775918 0.80901700255871778 0 -0.5877852410284794 0.2938926205142397 0 0.40450850127935889 1 I I -0.70710678118654746 0.70710678118654746 0.5 forward I I I I #
loop $-1 $-1 $190 $48 #
coedge $-1 $119 $119 $191 $192 reversed $75 $-1 #
face $-1 $-1 $193 $39 $-1 $194 forward single #
loop $-1 $195 $196 $77 #
cone-surface $-1 -60.205881948856657 19.635589658426518 14.334786181775918 0.80901700255871778 0 -0.5877852410284794 0.2938926205142397 0 0.40450850127935889 1 I I -0.70710678118654746 0.70710678118654746 0.5 forward I I I I #
loop $-1 $-1 $197 $49 #
coedge $-1 $124 $124 $198 $199 reversed $78 $-1 #
face $-1 $200 $201 $30 $-1 $202 reversed single #
loop $-1 $-1 $203 $80 #
plane-surface $-1 0 0 -19.011727141553173 0 0 1 1 0 0 forward_v I I I I #
coedge $-1 $204 $205 $206 $207 forward $81 $-1 #
coedge $-1 $208 $83 $209 $210 reversed $51 $-1 #
coedge $-1 $83 $208 $211 $212 forward $51 $-1 #
coedge $-1 $213 $203 $83 $132 forward $126 $-1 #
edge $-1 $214 -65.177770317697679 $215 65.177770317697679 $83 $216 forward 7 unknown #
face $-1 $217 $218 $31 $-1 $219 reversed single #
loop $-1 $-1 $220 $84 #
plane-surface $-1 -40.06797870153089 -65.305475103861113 0 0 1 0 0 0 1 forward_v I I I I #
coedge $-1 $221 $222 $138 $223 forward $85 $-1 #
coedge $-1 $224 $87 $225 $226 reversed $54 $-1 #
coedge $-1 $87 $224 $136 $223 reversed $54 $-1 #
coedge $-1 $227 $228 $87 $140 reversed $218 $-1 #
edge $-1 $229 -19.011727141553173 $230 19.011727141553173 $139 $231 forward 7 unknown #
face $-1 $232 $233 $32 $-1 $234 forward single #
loop $-1 $-1 $235 $88 #
plane-surface $-1 81.244983844343182 -3.8649490761508432 186.79062056572948 0 1 0 0.7660444514056185 0 0.64278759981090561 forward_v I I I I #
coedge $-1 $236 $237 $238 $239 reversed $89 $-1 #
coedge $-1 $146 $91 $240 $241 reversed $57 $-1 #
coedge $-1 $91 $145 $236 $242 reversed $57 $-1 #
coedge $-1 $238 $243 $91 $148 forward $233 $-1 #
edge $-1 $244 -24.555278395526088 $245 -11.23862471833398 $147 $246 forward 7 unknown #
loop $-1 $-1 $154 $92 #
plane-surface $-1 -18.613154769381069 2.2191437093312487 102.99969547865072 0.7660444514056185 0 0.64278759981090561 0.64278759981090561 0 -0.7660444514056185 forward_v I I I I #
loop $-1 $-1 $247 $59 #
coedge $-1 $152 $152 $153 $248 reversed $93 $-1 #
coedge $-1 $153 $153 $152 $248 forward $95 $-1 #
coedge $-1 $154 $154 $96 $155 forward $149 $-1 #
edge $-1 $249 0 $249 6.2831853071796004 $154 $250 forward 7 unknown #
face $-1 $251 $252 $34 $-1 $253 reversed single #
loop $-1 $-1 $254 $97 #
plane-surface $-1 81.244983844343182 24.10289106635625 186.79062056572948 0 1 0 0.7660444514056185 0 0.64278759981090561 forward_v I I I I #
coedge $-1 $255 $256 $257 $258 reversed $98 $-1 #
coedge $-1 $161 $100 $259 $260 reversed $63 $-1 #
coedge $-1 $100 $160 $255 $261 reversed $63 $-1 #
coedge $-1 $257 $262 $100 $163 forward $263 $-1 #
edge $-1 $264 -24.555278395526088 $265 -11.23862471833398 $162 $266 forward 7 unknown #
loop $-1 $-1 $169 $101 #
plane-surface $-1 -18.613154769381069 30.186983851838342 102.99969547865072 0.7660444514056185 0 0.64278759981090561 0.64278759981090561 0 -0.7660444514056185 forward_v I I I I #
loop $-1 $-1 $267 $65 #
coedge $-1 $167 $167 $168 $268 reversed $102 $-1 #
coedge $-1 $168 $168 $167 $268 forward $104 $-1 #
coedge $-1 $169 $169 $105 $170 forward $164 $-1 #
edge $-1 $269 0 $269 6.2831853071796004 $169 $270 forward 7 unknown #
face $-1 $271 $272 $36 $-1 $273 reversed single #
loop $-1 $-1 $274 $106 #
plane-surface $-1 -170.63761906946638 22.329299688279399 91.122849009652384 0 -1 0 0.80901700255871778 0 -0.5877852410284794 forward_v I I I I #
coedge $-1 $275 $276 $277 $278 reversed $107 $-1 #
coedge $-1 $176 $109 $279 $280 reversed $69 $-1 #
coedge $-1 $109 $175 $275 $281 reversed $69 $-1 #
coedge $-1 $277 $282 $109 $178 forward $283 $-1 #
edge $-1 $284 20.141039217035512 $285 23.417703059062198 $177 $286 forward 7 unknown #
loop $-1 $-1 $184 $110 #
plane-surface $-1 -65.177770317697693 15.595024613647197 14.501786137878781 -0.80901700255871778 0 0.5877852410284794 0.5877852410284794 0 0.80901700255871778 forward_v I I I I #
loop $-1 $-1 $287 $71 #
coedge $-1 $182 $182 $183 $288 reversed $111 $-1 #
coedge $-1 $183 $183 $182 $288 forward $113 $-1 #
coedge $-1 $184 $184 $114 $185 forward $179 $-1 #
edge $-1 $289 0 $289 6.2831853071796004 $184 $290 forward 7 unknown #
loop $-1 $-1 $191 $115 #
plane-surface $-1 -65.177770317697693 15.595024613647197 14.501786137878781 -0.80901700255871778 0 0.5877852410284794 0.5877852410284794 0 0.80901700255871778 forward_v I I I I #
loop $-1 $-1 $291 $74 #
coedge $-1 $189 $189 $190 $292 reversed $116 $-1 #
coedge $-1 $190 $190 $189 $292 forward $118 $-1 #
coedge $-1 $191 $191 $119 $192 forward $186 $-1 #
edge $-1 $293 0 $293 6.2831853071796004 $191 $294 forward 7 unknown #
loop $-1 $-1 $198 $120 #
plane-surface $-1 -65.177770317697693 15.595024613647197 14.501786137878781 -0.80901700255871778 0 0.5877852410284794 0.5877852410284794 0 0.80901700255871778 forward_v I I I I #
loop $-1 $-1 $295 $77 #
coedge $-1 $196 $196 $197 $296 reversed $121 $-1 #
coedge $-1 $197 $197 $196 $296 forward $123 $-1 #
coedge $-1 $198 $198 $124 $199 forward $193 $-1 #
edge $-1 $297 0 $297 6.2831853071796004 $198 $298 forward 7 unknown #
face $-1 $299 $300 $30 $-1 $301 reversed single #
loop $-1 $-1 $302 $125 #
plane-surface $-1 -65.177770317697679 0 0 1 0 0 0 0 -1 forward_v I I I I #
coedge $-1 $131 $303 $304 $305 forward $126 $-1 #
coedge $-1 $306 $128 $307 $308 forward $81 $-1 #
coedge $-1 $128 $306 $208 $309 forward $81 $-1 #
coedge $-1 $209 $310 $128 $207 reversed $311 $-1 #
edge $-1 $312 -40.413718462958435 $313 40.413718462958435 $206 $314 forward 7 unknown #
coedge $-1 $130 $129 $205 $309 reversed $51 $-1 #
coedge $-1 $304 $206 $129 $210 forward $311 $-1 #
edge $-1 $312 -19.011727141553173 $214 19.011727141553173 $209 $315 forward 7 unknown #
coedge $-1 $316 $317 $130 $212 reversed $201 $-1 #
edge $-1 $318 -19.011727141553173 $215 19.011727141553173 $211 $319 forward 7 unknown #
coedge $-1 $303 $131 $317 $320 forward $126 $-1 #
vertex $-1 $210 $321 #
vertex $-1 $320 $322 #
straight-curve $-1 0 -40.413718462958435 -19.011727141553173 -1 0 0 I I #
face $-1 $323 $324 $31 $-1 $325 reversed single #
loop $-1 $-1 $139 $133 #
plane-surface $-1 -42.74825683289491 -52.859596783409771 0 1 0 0 0 0 -1 forward_v I I I I #
coedge $-1 $326 $327 $328 $329 forward $134 $-1 #
coedge $-1 $330 $136 $331 $332 forward $85 $-1 #
coedge $-1 $136 $330 $227 $333 forward $85 $-1 #
edge $-1 $229 -42.74825683289491 $334 -37.387700570166871 $136 $335 forward 7 unknown #
coedge $-1 $138 $137 $336 $337 forward $54 $-1 #
coedge $-1 $338 $339 $137 $226 forward $340 $-1 #
edge $-1 $341 37.387700570166871 $230 42.74825683289491 $225 $342 forward 7 unknown #
coedge $-1 $328 $139 $222 $333 reversed $218 $-1 #
coedge $-1 $139 $328 $338 $343 reversed $218 $-1 #
vertex $-1 $223 $344 #
vertex $-1 $343 $345 #
straight-curve $-1 -42.74825683289491 -40.413718462958435 0 0 0 1 I I #
face $-1 $-1 $346 $32 $-1 $347 reversed single #
loop $-1 $-1 $147 $141 #
plane-surface $-1 0 0 19.011727141553173 0 0 1 1 0 0 forward_v I I I I #
coedge $-1 $348 $349 $350 $351 reversed $142 $-1 #
coedge $-1 $352 $144 $146 $242 forward $89 $-1 #
coedge $-1 $144 $352 $348 $353 forward $89 $-1 #
coedge $-1 $350 $147 $144 $239 forward $233 $-1 #
edge $-1 $245 -7.1936646401477162 $354 4.9745209308164675 $238 $355 forward 7 unknown #
coedge $-1 $356 $357 $145 $241 forward $346 $-1 #
edge $-1 $358 -90.253753417938256 $244 -74.383583141311561 $240 $359 forward 7 unknown #
edge $-1 $245 109.63850489744775 $358 130.35554063539539 $146 $360 forward 7 unknown #
coedge $-1 $147 $350 $356 $361 forward $233 $-1 #
vertex $-1 $148 $362 #
vertex $-1 $148 $363 #
straight-curve $-1 40.622491922171591 8.3032364948133406 19.011727141553166 -1 0 0 I I #
coedge $-1 $247 $247 $-1 $364 reversed $151 $-1 #
edge $-1 $365 0 $365 6.2831853071796004 $152 $366 forward 7 unknown #
vertex $-1 $155 $367 #
ellipse-curve $-1 58.519443479101618 2.2191437093312487 11.076642003239828 0.7660444514056185 0 0.64278759981090561 0.96418139971635841 0 -1.1490666771084277 1 I I #
face $-1 $-1 $263 $34 $-1 $368 forward single #
loop $-1 $-1 $369 $156 #
plane-surface $-1 65.177770317697679 0 0 -1 0 0 0 0 1 forward_v I I I I #
coedge $-1 $370 $371 $372 $373 reversed $157 $-1 #
coedge $-1 $374 $159 $161 $261 forward $98 $-1 #
coedge $-1 $159 $374 $370 $375 forward $98 $-1 #
coedge $-1 $372 $162 $159 $258 forward $263 $-1 #
edge $-1 $265 -21.177584711401263 $376 -9.009399140437079 $257 $377 forward 7 unknown #
coedge $-1 $378 $379 $160 $260 forward $252 $-1 #
edge $-1 $380 -90.253753417938256 $264 -74.383583141311561 $259 $381 forward 7 unknown #
edge $-1 $265 109.63850489744775 $380 130.35554063539539 $161 $382 forward 7 unknown #
coedge $-1 $162 $372 $378 $383 forward $263 $-1 #
loop $-1 $-1 $372 $251 #
vertex $-1 $260 $384 #
vertex $-1 $163 $385 #
straight-curve $-1 40.622491922171591 36.271076637320434 19.011727141553166 -1 0 0 I I #
coedge $-1 $267 $267 $-1 $386 reversed $166 $-1 #
edge $-1 $387 0 $387 6.2831853071796004 $167 $388 forward 7 unknown #
vertex $-1 $170 $389 #
ellipse-curve $-1 58.519443479101618 30.186983851838342 11.076642003239828 0.7660444514056185 0 0.64278759981090561 0.96418139971635841 0 -1.1490666771084277 1 I I #
face $-1 $-1 $283 $36 $-1 $390 forward single #
loop $-1 $-1 $391 $171 #
plane-surface $-1 -65.177770317697679 0 0 1 0 0 0 0 -1 forward_v I I I I #
coedge $-1 $392 $393 $394 $395 reversed $172 $-1 #
coedge $-1 $396 $174 $176 $281 forward $107 $-1 #
coedge $-1 $174 $396 $392 $397 forward $107 $-1 #
coedge $-1 $394 $177 $174 $278 forward $283 $-1 #
edge $-1 $285 1.0632372321913977 $398 14.5317873814558 $277 $399 forward 7 unknown #
coedge $-1 $400 $401 $175 $280 forward $272 $-1 #
edge $-1 $402 -31.059638366947389 $284 -26.549697363273019 $279 $403 forward 7 unknown #
edge $-1 $285 -5.5745935986642792 $402 -2.4161062406544664e-014 $176 $404 forward 7 unknown #
coedge $-1 $177 $394 $400 $405 forward $283 $-1 #
loop $-1 $-1 $394 $271 #
vertex $-1 $280 $406 #
vertex $-1 $178 $407 #
straight-curve $-1 -85.318809534733191 8.8607495390149964 19.011727141553173 1 0 0 I I #
coedge $-1 $287 $287 $-1 $408 reversed $181 $-1 #
edge $-1 $409 0 $409 6.2831853071796004 $182 $410 forward 7 unknown #
vertex $-1 $185 $411 #
ellipse-curve $-1 -63.539438396684339 11.554459568867877 16.756756639715981 -0.80901700255871778 0 0.5877852410284794 0.5877852410284794 0 0.80901700255871778 1 I I #
coedge $-1 $291 $291 $-1 $412 reversed $188 $-1 #
edge $-1 $413 0 $413 6.2831853071796004 $189 $414 forward 7 unknown #
vertex $-1 $192 $415 #
ellipse-curve $-1 -63.539438396684339 15.595024613647197 16.756756639715981 -0.80901700255871778 0 0.5877852410284794 0.5877852410284794 0 0.80901700255871778 1 I I #
coedge $-1 $295 $295 $-1 $416 reversed $195 $-1 #
edge $-1 $417 0 $417 6.2831853071796004 $196 $418 forward 7 unknown #
vertex $-1 $199 $419 #
ellipse-curve $-1 -63.539438396684339 19.635589658426518 16.756756639715981 -0.80901700255871778 0 0.5877852410284794 0.5877852410284794 0 0.80901700255871778 1 I I #
face $-1 $-1 $311 $30 $-1 $420 reversed single #
loop $-1 $-1 $421 $200 #
plane-surface $-1 0 40.413718462958435 0 0 -1 0 0 0 -1 forward_v I I I I #
coedge $-1 $317 $316 $422 $423 forward $201 $-1 #
coedge $-1 $203 $213 $424 $425 forward $126 $-1 #
coedge $-1 $310 $209 $203 $305 reversed $311 $-1 #
edge $-1 $426 -40.413718462958435 $214 40.413718462958435 $304 $427 forward 7 unknown #
coedge $-1 $205 $204 $316 $428 forward $81 $-1 #
coedge $-1 $421 $422 $204 $308 reversed $300 $-1 #
edge $-1 $313 -65.177770317697679 $429 65.177770317697679 $307 $430 forward 7 unknown #
edge $-1 $318 -65.177770317697679 $312 65.177770317697679 $208 $431 forward 7 unknown #
coedge $-1 $206 $304 $421 $432 reversed $311 $-1 #
loop $-1 $-1 $209 $299 #
vertex $-1 $207 $433 #
vertex $-1 $207 $434 #
straight-curve $-1 65.177770317697679 0 19.011727141553173 0 1 0 I I #
straight-curve $-1 65.177770317697679 -40.413718462958435 0 0 0 -1 I I #
coedge $-1 $302 $211 $306 $428 reversed $201 $-1 #
coedge $-1 $211 $302 $213 $320 reversed $201 $-1 #
vertex $-1 $428 $435 #
straight-curve $-1 -65.177770317697679 -40.413718462958435 0 0 0 -1 I I #
edge $-1 $215 -40.413718462958435 $436 40.413718462958435 $317 $437 forward 7 unknown #
point $-1 65.177770317697679 -40.413718462958435 -19.011727141553173 #
point $-1 -65.177770317697679 -40.413718462958435 -19.011727141553173 #
face $-1 $-1 $340 $31 $-1 $438 forward single #
loop $-1 $-1 $439 $217 #
plane-surface $-1 -37.387700570166871 -52.859596783409771 0 -1 0 0 0 0 1 forward_v I I I I #
coedge $-1 $440 $220 $330 $441 reversed $134 $-1 #
coedge $-1 $220 $440 $442 $443 reversed $134 $-1 #
coedge $-1 $228 $227 $220 $329 reversed $218 $-1 #
edge $-1 $444 -19.011727141553173 $445 19.011727141553173 $328 $446 forward 7 unknown #
coedge $-1 $222 $221 $326 $441 forward $85 $-1 #
coedge $-1 $336 $439 $221 $332 reversed $324 $-1 #
edge $-1 $334 -12.445878320451342 $447 12.445878320451342 $331 $448 forward 7 unknown #
edge $-1 $445 -12.445878320451342 $229 12.445878320451342 $227 $449 forward 7 unknown #
vertex $-1 $332 $450 #
straight-curve $-1 0 -40.413718462958435 -19.011727141553173 1 0 0 I I #
coedge $-1 $451 $331 $224 $337 reversed $324 $-1 #
edge $-1 $341 -19.011727141553173 $334 19.011727141553173 $336 $452 forward 7 unknown #
coedge $-1 $442 $225 $228 $343 forward $340 $-1 #
coedge $-1 $225 $442 $451 $453 forward $340 $-1 #
loop $-1 $-1 $225 $323 #
vertex $-1 $226 $454 #
straight-curve $-1 0 -40.413718462958435 19.011727141553173 -1 0 0 I I #
edge $-1 $230 -12.445878320451342 $444 12.445878320451342 $228 $455 forward 7 unknown #
point $-1 -42.74825683289491 -40.413718462958428 -19.011727141553173 #
point $-1 -42.74825683289491 -40.413718462958428 19.011727141553173 #
loop $-1 $-1 $240 $232 #
plane-surface $-1 65.177770317697679 0 0 -1 0 0 0 0 1 forward_v I I I I #
coedge $-1 $349 $235 $237 $353 reversed $142 $-1 #
coedge $-1 $235 $348 $456 $457 reversed $142 $-1 #
coedge $-1 $243 $238 $235 $351 forward $233 $-1 #
edge $-1 $354 11.23862471833398 $458 24.555278395526088 $350 $459 forward 7 unknown #
coedge $-1 $237 $236 $357 $460 reversed $89 $-1 #
edge $-1 $461 -130.35554063539539 $354 -109.63850489744775 $348 $462 forward 7 unknown #
vertex $-1 $239 $463 #
straight-curve $-1 51.861116640505564 1.1095718546656244 19.011727141553166 0 -1 0 I I #
coedge $-1 $456 $240 $243 $361 reversed $346 $-1 #
coedge $-1 $240 $456 $352 $460 forward $346 $-1 #
vertex $-1 $241 $464 #
straight-curve $-1 65.177770317697679 8.3032364948133406 93.395310282864742 0 0 1 I I #
straight-curve $-1 -18.613154769381069 8.3032364948133406 102.99969547865072 0.64278759981090561 0 -0.7660444514056185 I I #
edge $-1 $458 -3.8649490761508432 $244 8.3032364948133406 $356 $465 forward 7 unknown #
point $-1 65.177770317697679 8.3032364948133406 19.011727141553173 #
point $-1 51.861116640505571 8.3032364948133406 19.011727141553166 #
edge $-1 $466 1 $466 0 $247 $-1 forward 7 unknown #
vertex $-1 $248 $467 #
ellipse-curve $-1 56.537902243813399 2.2191437093312487 9.4139315270786703 0.7660444514056185 0 0.64278759981090561 0.96418139971635841 0 -1.1490666771084277 1 I I #
point $-1 59.48362487881797 2.2191437093312487 9.9275753261313966 #
plane-surface $-1 0 0 19.011727141553173 0 0 1 1 0 0 forward_v I I I I #
coedge $-1 $379 $378 $371 $468 forward $252 $-1 #
coedge $-1 $371 $254 $256 $375 reversed $157 $-1 #
coedge $-1 $254 $370 $369 $468 reversed $157 $-1 #
coedge $-1 $262 $257 $254 $373 forward $263 $-1 #
edge $-1 $376 11.23862471833398 $469 24.555278395526088 $372 $470 forward 7 unknown #
coedge $-1 $256 $255 $379 $471 reversed $98 $-1 #
edge $-1 $472 -130.35554063539539 $376 -109.63850489744775 $370 $473 forward 7 unknown #
vertex $-1 $258 $474 #
straight-curve $-1 51.861116640505564 15.093491925919171 19.011727141553166 0 -1 0 I I #
coedge $-1 $369 $259 $262 $383 reversed $252 $-1 #
coedge $-1 $259 $369 $374 $471 forward $252 $-1 #
vertex $-1 $260 $475 #
straight-curve $-1 65.177770317697679 36.271076637320434 93.395310282864742 0 0 1 I I #
straight-curve $-1 -18.613154769381069 36.271076637320434 102.99969547865072 0.64278759981090561 0 -0.7660444514056185 I I #
edge $-1 $469 24.10289106635625 $264 36.271076637320434 $378 $476 forward 7 unknown #
point $-1 65.177770317697679 36.271076637320434 19.011727141553173 #
point $-1 51.861116640505571 36.271076637320434 19.011727141553166 #
edge $-1 $477 1 $477 0 $267 $-1 forward 7 unknown #
vertex $-1 $268 $478 #
ellipse-curve $-1 56.537902243813399 30.186983851838342 9.4139315270786703 0.7660444514056185 0 0.64278759981090561 0.96418139971635841 0 -1.1490666771084277 1 I I #
point $-1 59.48362487881797 30.186983851838342 9.9275753261313966 #
plane-surface $-1 0 0 19.011727141553173 0 0 1 1 0 0 forward_v I I I I #
coedge $-1 $401 $400 $393 $479 forward $272 $-1 #
coedge $-1 $393 $274 $276 $397 reversed $172 $-1 #
coedge $-1 $274 $392 $391 $479 reversed $172 $-1 #
coedge $-1 $282 $277 $274 $395 forward $283 $-1 #
edge $-1 $398 -23.417703059062198 $480 -20.141039217035512 $394 $481 forward 7 unknown #
coedge $-1 $276 $275 $401 $482 reversed $107 $-1 #
edge $-1 $483 2.4161062406544664e-014 $398 5.5745935986642792 $392 $484 forward 7 unknown #
vertex $-1 $278 $485 #
straight-curve $-1 -61.901106475670986 7.7975123068235987 19.011727141553173 0 1 0 I I #
coedge $-1 $391 $279 $282 $405 reversed $272 $-1 #
coedge $-1 $279 $391 $396 $482 forward $272 $-1 #
vertex $-1 $280 $486 #
straight-curve $-1 -65.177770317697679 8.8607495390149964 45.561424504826192 0 0 1 I I #
straight-curve $-1 -65.177770317697693 8.8607495390149964 14.501786137878781 -0.5877852410284794 0 -0.80901700255871778 I I #
edge $-1 $480 -22.329299688279399 $284 -8.8607495390149964 $400 $487 forward 7 unknown #
point $-1 -65.177770317697679 8.8607495390149964 19.011727141553173 #
point $-1 -61.901106475670993 8.8607495390149964 19.011727141553173 #
edge $-1 $488 1 $488 0 $287 $-1 forward 7 unknown #
vertex $-1 $288 $489 #
ellipse-curve $-1 -60.610390450136016 11.554459568867877 14.628678802290159 -0.80901700255871778 0 0.5877852410284794 0.5877852410284794 0 0.80901700255871778 1 I I #
point $-1 -62.951653155655848 11.554459568867877 17.565773642274689 #
edge $-1 $490 1 $490 0 $291 $-1 forward 7 unknown #
vertex $-1 $292 $491 #
ellipse-curve $-1 -60.610390450136016 15.595024613647197 14.628678802290159 -0.80901700255871778 0 0.5877852410284794 0.5877852410284794 0 0.80901700255871778 1 I I #
point $-1 -62.951653155655848 15.595024613647197 17.565773642274689 #
edge $-1 $492 1 $492 0 $295 $-1 forward 7 unknown #
vertex $-1 $296 $493 #
ellipse-curve $-1 -60.610390450136016 19.635589658426518 14.628678802290159 -0.80901700255871778 0 0.5877852410284794 0.5877852410284794 0 0.80901700255871778 1 I I #
point $-1 -62.951653155655848 19.635589658426518 17.565773642274689 #
plane-surface $-1 65.177770317697679 0 0 -1 0 0 0 0 1 forward_v I I I I #
coedge $-1 $424 $307 $310 $432 forward $300 $-1 #
coedge $-1 $307 $424 $302 $423 reversed $300 $-1 #
edge $-1 $429 -19.011727141553173 $436 19.011727141553173 $422 $494 forward 7 unknown #
coedge $-1 $422 $421 $303 $425 reversed $300 $-1 #
edge $-1 $436 -65.177770317697679 $426 65.177770317697679 $424 $495 forward 7 unknown #
vertex $-1 $305 $496 #
straight-curve $-1 65.177770317697679 0 -19.011727141553173 0 -1 0 I I #
edge $-1 $429 -40.413718462958435 $318 40.413718462958435 $316 $497 forward 7 unknown #
vertex $-1 $308 $498 #
straight-curve $-1 0 40.413718462958435 19.011727141553173 -1 0 0 I I #
straight-curve $-1 0 -40.413718462958435 19.011727141553173 1 0 0 I I #
edge $-1 $313 -19.011727141553173 $426 19.011727141553173 $310 $499 forward 7 unknown #
point $-1 65.177770317697679 -40.413718462958435 19.011727141553173 #
point $-1 65.177770317697679 40.413718462958435 19.011727141553173 #
point $-1 -65.177770317697679 -40.413718462958435 19.011727141553173 #
vertex $-1 $425 $500 #
straight-curve $-1 -65.177770317697679 0 -19.011727141553173 0 1 0 I I #
plane-surface $-1 0 0 19.011727141553173 0 0 1 1 0 0 forward_v I I I I #
coedge $-1 $331 $451 $440 $501 forward $324 $-1 #
coedge $-1 $327 $326 $439 $501 reversed $134 $-1 #
edge $-1 $447 -2.6802781313640196 $445 2.6802781313640196 $326 $502 forward 7 unknown #
coedge $-1 $339 $338 $327 $443 forward $340 $-1 #
edge $-1 $444 -2.6802781313640196 $503 2.6802781313640196 $327 $504 forward 7 unknown #
vertex $-1 $343 $505 #
vertex $-1 $333 $506 #
straight-curve $-1 -42.74825683289491 -65.305475103861113 0 0 0 -1 I I #
vertex $-1 $501 $507 #
straight-curve $-1 -37.387700570166871 -52.859596783409771 -19.011727141553173 0 -1 0 I I #
straight-curve $-1 -42.74825683289491 -52.859596783409771 -19.011727141553173 0 1 0 I I #
point $-1 -37.387700570166871 -40.413718462958428 -19.011727141553173 #
coedge $-1 $439 $336 $339 $453 reversed $324 $-1 #
straight-curve $-1 -37.387700570166871 -40.413718462958435 0 0 0 -1 I I #
edge $-1 $503 -12.445878320451342 $341 12.445878320451342 $451 $508 forward 7 unknown #
point $-1 -37.387700570166871 -40.413718462958428 19.011727141553173 #
straight-curve $-1 -42.74825683289491 -52.859596783409771 19.011727141553173 0 -1 0 I I #
coedge $-1 $357 $356 $349 $457 forward $346 $-1 #
edge $-1 $458 74.383583141311561 $461 90.253753417938256 $456 $509 forward 7 unknown #
vertex $-1 $361 $510 #
straight-curve $-1 40.622491922171591 -3.8649490761508432 19.011727141553166 1 0 0 I I #
edge $-1 $461 -4.9745209308164675 $358 7.1936646401477162 $357 $511 forward 7 unknown #
vertex $-1 $460 $512 #
straight-curve $-1 -18.613154769381069 -3.8649490761508432 102.99969547865072 -0.64278759981090561 0 0.7660444514056185 I I #
point $-1 51.861116640505571 -3.8649490761508432 19.011727141553166 #
point $-1 65.177770317697679 8.3032364948133406 3.1415568649264856 #
straight-curve $-1 65.177770317697679 0 19.011727141553173 0 1 0 I I #
vertex $-1 $364 $513 #
point $-1 57.502083643529758 2.2191437093312487 8.2648648499702428 #
edge $-1 $469 74.383583141311561 $472 90.253753417938256 $369 $514 forward 7 unknown #
vertex $-1 $383 $515 #
straight-curve $-1 40.622491922171591 24.10289106635625 19.011727141553166 1 0 0 I I #
edge $-1 $472 9.009399140437079 $380 21.177584711401263 $379 $516 forward 7 unknown #
vertex $-1 $471 $517 #
straight-curve $-1 -18.613154769381069 24.10289106635625 102.99969547865072 -0.64278759981090561 0 0.7660444514056185 I I #
point $-1 51.861116640505571 24.10289106635625 19.011727141553166 #
point $-1 65.177770317697679 36.271076637320434 3.1415568649264856 #
straight-curve $-1 65.177770317697679 0 19.011727141553173 0 1 0 I I #
vertex $-1 $386 $518 #
point $-1 57.502083643529758 30.186983851838342 8.2648648499702428 #
edge $-1 $480 26.549697363273019 $483 31.059638366947389 $391 $519 forward 7 unknown #
vertex $-1 $405 $520 #
straight-curve $-1 -85.318809534733191 22.329299688279399 19.011727141553173 -1 0 0 I I #
edge $-1 $483 -14.5317873814558 $402 -1.0632372321913977 $401 $521 forward 7 unknown #
vertex $-1 $482 $522 #
straight-curve $-1 -65.177770317697693 22.329299688279399 14.501786137878781 0.5877852410284794 0 0.80901700255871778 I I #
point $-1 -61.901106475670993 22.329299688279399 19.011727141553173 #
point $-1 -65.177770317697679 8.8607495390149964 14.501786137878801 #
straight-curve $-1 -65.177770317697679 0 19.011727141553173 0 -1 0 I I #
vertex $-1 $408 $523 #
point $-1 -60.022605209107539 11.554459568867877 15.437695804848875 #
vertex $-1 $412 $524 #
point $-1 -60.022605209107539 15.595024613647197 15.437695804848875 #
vertex $-1 $416 $525 #
point $-1 -60.022605209107539 19.635589658426518 15.437695804848875 #
straight-curve $-1 -65.177770317697679 40.413718462958435 0 0 0 -1 I I #
straight-curve $-1 0 40.413718462958435 -19.011727141553173 1 0 0 I I #
point $-1 65.177770317697679 40.413718462958435 -19.011727141553173 #
straight-curve $-1 -65.177770317697679 0 19.011727141553173 0 -1 0 I I #
point $-1 -65.177770317697679 40.413718462958435 19.011727141553173 #
straight-curve $-1 65.177770317697679 40.413718462958435 0 0 0 -1 I I #
point $-1 -65.177770317697679 40.413718462958435 -19.011727141553173 #
edge $-1 $503 -19.011727141553173 $447 19.011727141553173 $439 $526 forward 7 unknown #
straight-curve $-1 -40.06797870153089 -65.305475103861113 -19.011727141553173 -1 0 0 I I #
vertex $-1 $453 $527 #
straight-curve $-1 -40.06797870153089 -65.305475103861113 19.011727141553173 1 0 0 I I #
point $-1 -42.74825683289491 -65.305475103861113 19.011727141553173 #
point $-1 -42.74825683289491 -65.305475103861113 -19.011727141553173 #
point $-1 -37.387700570166871 -65.305475103861113 -19.011727141553173 #
straight-curve $-1 -37.387700570166871 -52.859596783409771 19.011727141553173 0 1 0 I I #
straight-curve $-1 65.177770317697679 -3.8649490761508432 93.395310282864742 0 0 -1 I I #
point $-1 65.177770317697679 -3.8649490761508432 19.011727141553173 #
straight-curve $-1 65.177770317697679 1.1095718546656244 3.1415568649264927 0 1 0 I I #
point $-1 65.177770317697679 -3.8649490761508432 3.1415568649264856 #
point $-1 55.388835566704977 2.2191437093312487 8.4497501273623108 #
straight-curve $-1 65.177770317697679 24.10289106635625 93.395310282864742 0 0 -1 I I #
point $-1 65.177770317697679 24.10289106635625 19.011727141553173 #
straight-curve $-1 65.177770317697679 15.093491925919171 3.1415568649264927 0 1 0 I I #
point $-1 65.177770317697679 24.10289106635625 3.1415568649264856 #
point $-1 55.388835566704977 30.186983851838342 8.4497501273623108 #
straight-curve $-1 -65.177770317697679 22.329299688279399 45.561424504826192 0 0 -1 I I #
point $-1 -65.177770317697679 22.329299688279399 19.011727141553173 #
straight-curve $-1 -65.177770317697679 7.7975123068235987 14.501786137878788 0 -1 0 I I #
point $-1 -65.177770317697679 22.329299688279399 14.501786137878801 #
point $-1 -59.801373447577298 11.554459568867877 14.040893561261678 #
point $-1 -59.801373447577298 15.595024613647197 14.040893561261678 #
point $-1 -59.801373447577298 19.635589658426518 14.040893561261678 #
straight-curve $-1 -37.387700570166871 -65.305475103861113 0 0 0 -1 I I #
point $-1 -37.387700570166871 -65.305475103861113 19.011727141553173 #
End-of-ACIS-data 