500 0 4 0           
7 Unknown 11 ACIS 5.0 NT 24 Thu Mar 25 16:51:05 1999 
-1 9.9999999999999995e-007 1e-010 
body $-1 $4 $-1 $5 #
body $-1 $6 $-1 $7 #
body $-1 $8 $-1 $9 #
body $-1 $10 $-1 $11 #
lump $-1 $-1 $12 $0 #
transform $-1 1 0 0 0 1 0 0 0 1 58.64803003021332 40.665402456326383 10.149534420860268 1 rotate no_reflect no_shear #
lump $-1 $-1 $13 $1 #
transform $-1 1 0 0 0 1 0 0 0 1 58.64803003021332 40.665402456326383 10.149534420860268 1 rotate no_reflect no_shear #
lump $-1 $-1 $14 $2 #
transform $-1 1 0 0 0 1 0 0 0 1 58.64803003021332 40.665402456326383 10.149534420860268 1 rotate no_reflect no_shear #
lump $-1 $-1 $15 $3 #
transform $-1 1 0 0 0 1 0 0 0 1 58.64803003021332 40.665402456326383 10.149534420860268 1 rotate no_reflect no_shear #
shell $-1 $-1 $-1 $16 $-1 $4 #
shell $-1 $-1 $-1 $17 $-1 $6 #
shell $-1 $-1 $-1 $18 $-1 $8 #
shell $-1 $-1 $-1 $19 $-1 $10 #
face $-1 $20 $21 $12 $-1 $22 forward single #
face $-1 $23 $24 $13 $-1 $25 forward single #
face $-1 $26 $27 $14 $-1 $28 forward single #
face $-1 $29 $30 $15 $-1 $31 reversed single #
face $-1 $32 $33 $12 $-1 $34 reversed single #
loop $-1 $-1 $35 $16 #
plane-surface $-1 0 0 10.149534420860268 0 0 1 1 0 0 forward_v I I I I #
face $-1 $36 $37 $13 $-1 $38 forward single #
loop $-1 $-1 $39 $17 #
plane-surface $-1 -56.888007155590373 -29.84490906789501 0 0 -1 0 0 0 -1 forward_v I I I I #
face $-1 $40 $41 $14 $-1 $42 forward single #
loop $-1 $-1 $43 $18 #
plane-surface $-1 -140.12872093026868 -29.84490906789501 89.994851279183052 0 1 0 -0.69465837861970381 0 0.71933979245794832 forward_v I I I I #
face $-1 $44 $45 $15 $-1 $46 reversed single #
loop $-1 $47 $48 $19 #
cone-surface $-1 -54.249516251342982 -22.948059373058566 5.7585664298236487 0.69465837861970381 0 -0.71933979245794832 1.0790096886869225 0 1.0419875679295556 1 I I 0 1 1.5 forward I I I I #
face $-1 $49 $50 $12 $-1 $51 reversed single #
loop $-1 $-1 $52 $20 #
plane-surface $-1 0 0 -10.149534420860268 0 0 1 1 0 0 forward_v I I I I #
coedge $-1 $53 $54 $55 $56 forward $21 $-1 #
face $-1 $57 $58 $13 $-1 $59 forward single #
loop $-1 $-1 $60 $23 #
plane-surface $-1 -55.127984280967425 -35.255155762110697 0 -1 0 0 0 0 1 forward_v I I I I #
coedge $-1 $61 $62 $63 $64 reversed $24 $-1 #
face $-1 $65 $66 $14 $-1 $67 forward single #
loop $-1 $-1 $68 $26 #
plane-surface $-1 -140.12872093026868 -16.051209678222122 89.994851279183052 0 -1 0 0.69465837861970381 0 -0.71933979245794832 forward_v I I I I #
coedge $-1 $69 $70 $71 $72 reversed $27 $-1 #
face $-1 $73 $74 $15 $-1 $75 forward single #
loop $-1 $76 $77 $29 #
cone-surface $-1 -51.675695340881774 -22.948059373058566 3.0932969152833447 0.69465837861970381 0 -0.71933979245794832 0.53950484434346124 0 0.5209937839647778 1 I I -0.70710678118654757 0.70710678118654757 0.75 forward I I I I #
loop $-1 $-1 $78 $19 #
coedge $-1 $48 $48 $79 $80 reversed $30 $-1 #
face $-1 $81 $82 $12 $-1 $83 reversed single #
loop $-1 $-1 $84 $32 #
plane-surface $-1 0 -40.665402456326383 0 0 1 0 0 0 1 forward_v I I I I #
coedge $-1 $85 $86 $87 $88 forward $33 $-1 #
coedge $-1 $89 $35 $90 $91 forward $21 $-1 #
coedge $-1 $35 $89 $92 $93 forward $21 $-1 #
coedge $-1 $94 $95 $35 $56 reversed $96 $-1 #
edge $-1 $97 -40.665402456326383 $98 40.665402456326383 $55 $99 forward 7 unknown #
face $-1 $100 $101 $13 $-1 $102 reversed single #
loop $-1 $-1 $103 $36 #
plane-surface $-1 0 0 10.149534420860268 0 0 1 1 0 0 forward_v I I I I #
coedge $-1 $104 $105 $106 $107 reversed $37 $-1 #
coedge $-1 $108 $39 $103 $109 reversed $24 $-1 #
coedge $-1 $39 $108 $110 $111 reversed $24 $-1 #
coedge $-1 $105 $104 $39 $64 forward $37 $-1 #
edge $-1 $112 -10.149534420860268 $113 10.149534420860268 $63 $114 forward 7 unknown #
face $-1 $115 $116 $14 $-1 $117 reversed single #
loop $-1 $-1 $118 $40 #
plane-surface $-1 -58.64803003021332 -22.948059373058566 5.6191277791807153 -0.69465837861970381 0 0.71933979245794832 0.71933979245794832 0 0.69465837861970381 forward_v I I I I #
coedge $-1 $119 $120 $121 $122 reversed $41 $-1 #
coedge $-1 $70 $43 $123 $124 reversed $27 $-1 #
coedge $-1 $43 $69 $125 $126 forward $27 $-1 #
coedge $-1 $127 $128 $43 $72 forward $129 $-1 #
edge $-1 $130 -10.149534420860268 $131 -9.0183965232093293 $71 $132 forward 7 unknown #
face $-1 $133 $134 $15 $-1 $135 forward single #
loop $-1 $-1 $136 $44 #
plane-surface $-1 -140.12872093026868 -29.84490906789501 89.994851279183052 0 1 0 -0.69465837861970381 0 0.71933979245794832 forward_v I I I I #
loop $-1 $-1 $137 $29 #
coedge $-1 $77 $77 $78 $138 forward $45 $-1 #
coedge $-1 $78 $78 $77 $138 reversed $47 $-1 #
coedge $-1 $79 $79 $48 $80 forward $139 $-1 #
edge $-1 $140 0 $140 6.2831853071796004 $79 $141 forward 7 unknown #
face $-1 $142 $143 $12 $-1 $144 reversed single #
loop $-1 $-1 $145 $49 #
plane-surface $-1 -58.64803003021332 0 0 1 0 0 0 0 -1 forward_v I I I I #
coedge $-1 $146 $92 $147 $148 forward $50 $-1 #
coedge $-1 $149 $52 $146 $150 forward $33 $-1 #
coedge $-1 $52 $149 $151 $152 forward $33 $-1 #
coedge $-1 $95 $94 $52 $88 reversed $96 $-1 #
edge $-1 $153 -40.665402456326383 $154 40.665402456326383 $87 $155 forward 7 unknown #
coedge $-1 $54 $53 $156 $157 forward $21 $-1 #
coedge $-1 $158 $159 $53 $91 reversed $143 $-1 #
edge $-1 $98 -58.64803003021332 $160 58.64803003021332 $90 $161 forward 7 unknown #
coedge $-1 $84 $162 $54 $93 reversed $50 $-1 #
edge $-1 $163 -58.64803003021332 $97 58.64803003021332 $92 $164 forward 7 unknown #
coedge $-1 $87 $55 $162 $165 forward $96 $-1 #
coedge $-1 $55 $87 $158 $166 reversed $96 $-1 #
loop $-1 $-1 $94 $142 #
vertex $-1 $56 $167 #
vertex $-1 $56 $168 #
straight-curve $-1 58.64803003021332 0 10.149534420860268 0 1 0 I I #
face $-1 $169 $170 $13 $-1 $171 reversed single #
loop $-1 $-1 $106 $57 #
plane-surface $-1 0 -40.665402456326383 0 0 1 0 0 0 1 forward_v I I I I #
coedge $-1 $172 $173 $61 $109 forward $58 $-1 #
coedge $-1 $63 $60 $172 $174 reversed $37 $-1 #
coedge $-1 $60 $63 $175 $176 reversed $37 $-1 #
coedge $-1 $177 $178 $60 $107 forward $101 $-1 #
edge $-1 $179 -10.149534420860268 $180 10.149534420860268 $106 $181 forward 7 unknown #
coedge $-1 $62 $61 $182 $183 reversed $24 $-1 #
edge $-1 $184 -30.204026452418134 $112 -26.683980703172239 $103 $185 forward 7 unknown #
coedge $-1 $186 $175 $62 $111 forward $170 $-1 #
edge $-1 $113 26.683980703172239 $187 30.204026452418134 $110 $188 forward 7 unknown #
vertex $-1 $109 $189 #
vertex $-1 $111 $190 #
straight-curve $-1 -55.127984280967425 -29.84490906789501 0 0 0 -1 I I #
face $-1 $191 $192 $14 $-1 $193 forward single #
loop $-1 $-1 $194 $65 #
plane-surface $-1 -58.64803003021332 0 0 1 0 0 0 0 -1 forward_v I I I I #
coedge $-1 $195 $196 $194 $197 reversed $66 $-1 #
coedge $-1 $120 $68 $196 $198 forward $41 $-1 #
coedge $-1 $68 $119 $199 $200 reversed $41 $-1 #
coedge $-1 $201 $194 $68 $122 forward $116 $-1 #
edge $-1 $202 -39.378297860410811 $203 -34.847891218731256 $121 $204 forward 7 unknown #
coedge $-1 $205 $206 $69 $124 forward $207 $-1 #
edge $-1 $208 -16.107703739668835 $130 -14.936376184166917 $123 $209 forward 7 unknown #
coedge $-1 $210 $195 $70 $126 reversed $66 $-1 #
edge $-1 $208 -6.5217764315771074 $131 -4.8934394929245801 $70 $211 forward 7 unknown #
coedge $-1 $212 $71 $213 $214 forward $129 $-1 #
coedge $-1 $71 $215 $205 $216 reversed $129 $-1 #
loop $-1 $-1 $215 $191 #
vertex $-1 $124 $217 #
vertex $-1 $214 $218 #
straight-curve $-1 -55.127984280967425 -29.84490906789501 0 0 0 -1 I I #
face $-1 $219 $139 $15 $-1 $220 forward single #
loop $-1 $-1 $221 $73 #
plane-surface $-1 -140.12872093026868 -16.051209678222122 89.994851279183052 0 -1 0 0.69465837861970381 0 -0.71933979245794832 forward_v I I I I #
coedge $-1 $222 $223 $224 $225 reversed $74 $-1 #
coedge $-1 $137 $137 $-1 $226 forward $76 $-1 #
edge $-1 $227 0 $227 6.2831853071796004 $77 $228 forward 7 unknown #
loop $-1 $229 $79 $133 #
vertex $-1 $80 $230 #
ellipse-curve $-1 -56.302343377839414 -22.948059373058566 7.884331100020491 0.69465837861970381 0 -0.71933979245794832 1.0790096886869225 0 1.0419875679295556 1 I I #
face $-1 $-1 $96 $12 $-1 $231 reversed single #
loop $-1 $-1 $158 $81 #
plane-surface $-1 0 40.665402456326383 0 0 -1 0 0 0 -1 forward_v I I I I #
coedge $-1 $232 $156 $159 $233 forward $82 $-1 #
coedge $-1 $162 $84 $85 $150 reversed $50 $-1 #
coedge $-1 $156 $232 $84 $148 reversed $82 $-1 #
edge $-1 $163 -10.149534420860268 $234 10.149534420860268 $147 $235 forward 7 unknown #
coedge $-1 $86 $85 $232 $236 forward $33 $-1 #
edge $-1 $154 -58.64803003021332 $234 58.64803003021332 $146 $237 forward 7 unknown #
coedge $-1 $159 $158 $86 $152 reversed $143 $-1 #
edge $-1 $238 -58.64803003021332 $153 58.64803003021332 $151 $239 forward 7 unknown #
vertex $-1 $88 $240 #
vertex $-1 $165 $241 #
straight-curve $-1 58.64803003021332 0 -10.149534420860268 0 -1 0 I I #
coedge $-1 $145 $147 $89 $157 reversed $82 $-1 #
edge $-1 $160 -40.665402456326383 $163 40.665402456326383 $156 $242 forward 7 unknown #
coedge $-1 $151 $90 $95 $166 forward $143 $-1 #
coedge $-1 $90 $151 $145 $233 reversed $143 $-1 #
vertex $-1 $91 $243 #
straight-curve $-1 0 40.665402456326383 10.149534420860268 -1 0 0 I I #
coedge $-1 $92 $146 $94 $165 reversed $50 $-1 #
vertex $-1 $157 $244 #
straight-curve $-1 0 -40.665402456326383 10.149534420860268 1 0 0 I I #
edge $-1 $97 -10.149534420860268 $154 10.149534420860268 $94 $245 forward 7 unknown #
edge $-1 $98 -10.149534420860268 $153 10.149534420860268 $95 $246 forward 7 unknown #
point $-1 58.64803003021332 -40.665402456326383 10.149534420860268 #
point $-1 58.64803003021332 40.665402456326383 10.149534420860268 #
face $-1 $247 $248 $13 $-1 $249 reversed single #
loop $-1 $-1 $110 $100 #
plane-surface $-1 0 0 -10.149534420860268 0 0 1 1 0 0 forward_v I I I I #
coedge $-1 $250 $103 $104 $174 forward $58 $-1 #
coedge $-1 $103 $251 $252 $253 forward $58 $-1 #
edge $-1 $112 12.217331186839662 $179 23.037824575271035 $172 $254 forward 7 unknown #
coedge $-1 $110 $255 $105 $176 forward $170 $-1 #
edge $-1 $180 -23.037824575271035 $113 -12.217331186839662 $175 $256 forward 7 unknown #
coedge $-1 $257 $106 $255 $258 reversed $101 $-1 #
coedge $-1 $106 $257 $250 $259 reversed $101 $-1 #
vertex $-1 $259 $260 #
vertex $-1 $107 $261 #
straight-curve $-1 -55.127984280967425 -40.665402456326383 0 0 0 -1 I I #
coedge $-1 $252 $262 $108 $183 forward $248 $-1 #
edge $-1 $187 -10.149534420860268 $184 10.149534420860268 $182 $263 forward 7 unknown #
vertex $-1 $183 $264 #
straight-curve $-1 -28.444003577795186 -29.84490906789501 10.149534420860268 1 0 0 I I #
coedge $-1 $265 $110 $262 $266 forward $170 $-1 #
vertex $-1 $266 $267 #
straight-curve $-1 -28.444003577795186 -29.84490906789501 -10.149534420860268 -1 0 0 I I #
point $-1 -55.127984280967425 -29.84490906789501 10.149534420860268 #
point $-1 -55.127984280967425 -29.84490906789501 -10.149534420860268 #
face $-1 $268 $129 $14 $-1 $269 forward single #
loop $-1 $-1 $270 $115 #
plane-surface $-1 -56.888007155590373 -29.84490906789501 0 0 -1 0 0 0 -1 forward_v I I I I #
coedge $-1 $121 $271 $118 $197 forward $116 $-1 #
coedge $-1 $125 $118 $270 $272 reversed $66 $-1 #
coedge $-1 $118 $210 $119 $198 reversed $66 $-1 #
edge $-1 $273 -18.370879381365725 $202 -4.5771799916928391 $194 $274 forward 7 unknown #
edge $-1 $202 0 $275 6.5217764315771074 $119 $276 forward 7 unknown #
coedge $-1 $206 $277 $120 $200 forward $207 $-1 #
edge $-1 $203 11.416330434921022 $275 16.107703739668835 $199 $278 forward 7 unknown #
coedge $-1 $279 $121 $277 $280 reversed $116 $-1 #
vertex $-1 $197 $281 #
vertex $-1 $200 $282 #
straight-curve $-1 -58.64803003021332 -16.051209678222122 44.997425639591526 0 0 1 I I #
coedge $-1 $283 $123 $128 $216 forward $207 $-1 #
coedge $-1 $123 $199 $210 $284 forward $207 $-1 #
loop $-1 $-1 $123 $268 #
vertex $-1 $284 $285 #
straight-curve $-1 -70.064360465134342 -29.84490906789501 10.14953442086027 -1 0 0 I I #
coedge $-1 $196 $125 $206 $284 reversed $66 $-1 #
straight-curve $-1 -58.64803003021332 -29.84490906789501 5.6191277791807153 -0.71933979245794832 0 -0.69465837861970381 I I #
coedge $-1 $215 $127 $286 $287 reversed $129 $-1 #
coedge $-1 $270 $288 $127 $214 reversed $192 $-1 #
edge $-1 $131 -9.0183965232093293 $289 10.149534420860268 $127 $132 forward 7 unknown #
coedge $-1 $128 $212 $290 $291 reversed $129 $-1 #
edge $-1 $130 12.217331186839662 $292 23.037824575271035 $205 $293 forward 7 unknown #
point $-1 -55.127984280967425 -29.84490906789501 10.149534420860268 #
point $-1 -55.127984280967425 -29.84490906789501 9.0183965232093293 #
face $-1 $294 $295 $15 $-1 $296 reversed single #
plane-surface $-1 -58.64803003021332 -22.948059373058566 5.6191277791807153 -0.69465837861970381 0 0.71933979245794832 0.71933979245794832 0 0.69465837861970381 forward_v I I I I #
coedge $-1 $297 $298 $299 $300 reversed $134 $-1 #
coedge $-1 $223 $136 $301 $302 reversed $74 $-1 #
coedge $-1 $136 $222 $303 $304 forward $74 $-1 #
coedge $-1 $305 $306 $136 $225 forward $307 $-1 #
edge $-1 $308 -10.149534420860268 $309 -9.0183965232093293 $224 $310 forward 7 unknown #
edge $-1 $311 1 $311 0 $137 $-1 forward 7 unknown #
vertex $-1 $138 $312 #
ellipse-curve $-1 -52.19668912484655 -22.948059373058566 3.6328017596268061 -0.69465837861970381 0 0.71933979245794832 1.0790096886869225 0 1.0419875679295556 1 I I #
loop $-1 $-1 $313 $133 #
point $-1 -55.22333368915249 -22.948059373058566 8.9263186679500475 #
plane-surface $-1 58.64803003021332 0 0 -1 0 0 0 0 1 forward_v I I I I #
coedge $-1 $147 $145 $149 $236 reversed $82 $-1 #
edge $-1 $160 -10.149534420860268 $238 10.149534420860268 $159 $314 forward 7 unknown #
vertex $-1 $236 $315 #
straight-curve $-1 -58.64803003021332 -40.665402456326383 0 0 0 -1 I I #
edge $-1 $234 -40.665402456326383 $238 40.665402456326383 $232 $316 forward 7 unknown #
straight-curve $-1 0 -40.665402456326383 -10.149534420860268 -1 0 0 I I #
vertex $-1 $152 $317 #
straight-curve $-1 0 40.665402456326383 -10.149534420860268 1 0 0 I I #
point $-1 58.64803003021332 40.665402456326383 -10.149534420860268 #
point $-1 58.64803003021332 -40.665402456326383 -10.149534420860268 #
straight-curve $-1 -58.64803003021332 0 10.149534420860268 0 -1 0 I I #
point $-1 -58.64803003021332 40.665402456326383 10.149534420860268 #
point $-1 -58.64803003021332 -40.665402456326383 10.149534420860268 #
straight-curve $-1 58.64803003021332 -40.665402456326383 0 0 0 -1 I I #
straight-curve $-1 58.64803003021332 40.665402456326383 0 0 0 -1 I I #
face $-1 $318 $319 $13 $-1 $320 reversed single #
loop $-1 $-1 $182 $169 #
plane-surface $-1 -58.64803003021332 0 0 1 0 0 0 0 -1 forward_v I I I I #
coedge $-1 $321 $172 $178 $259 forward $58 $-1 #
coedge $-1 $173 $321 $322 $323 forward $58 $-1 #
coedge $-1 $324 $182 $173 $253 reversed $248 $-1 #
edge $-1 $325 -40.665402456326383 $184 29.84490906789501 $252 $326 forward 7 unknown #
straight-curve $-1 -55.127984280967425 -17.627577881055348 10.149534420860268 0 -1 0 I I #
coedge $-1 $175 $327 $177 $258 forward $170 $-1 #
straight-curve $-1 -55.127984280967425 -17.627577881055348 -10.149534420860268 0 1 0 I I #
coedge $-1 $178 $177 $328 $329 reversed $101 $-1 #
edge $-1 $330 -58.64803003021332 $180 55.127984280967425 $177 $331 forward 7 unknown #
edge $-1 $179 -55.127984280967425 $332 58.64803003021332 $178 $333 forward 7 unknown #
point $-1 -55.127984280967425 -40.665402456326383 10.149534420860268 #
point $-1 -55.127984280967425 -40.665402456326383 -10.149534420860268 #
coedge $-1 $182 $324 $186 $266 reversed $248 $-1 #
straight-curve $-1 -58.64803003021332 -29.84490906789501 0 0 0 1 I I #
point $-1 -58.64803003021332 -29.84490906789501 10.149534420860268 #
coedge $-1 $327 $186 $334 $335 forward $170 $-1 #
edge $-1 $187 -29.84490906789501 $336 40.665402456326383 $262 $337 forward 7 unknown #
point $-1 -58.64803003021332 -29.84490906789501 -10.149534420860268 #
face $-1 $338 $207 $14 $-1 $339 forward single #
plane-surface $-1 -55.127984280967425 -35.255155762110697 0 -1 0 0 0 0 1 forward_v I I I I #
coedge $-1 $340 $213 $195 $272 forward $192 $-1 #
coedge $-1 $194 $341 $340 $342 forward $116 $-1 #
edge $-1 $131 -6.2120993444196326 $273 -1.3186598514950532 $270 $343 forward 7 unknown #
vertex $-1 $197 $344 #
straight-curve $-1 -58.64803003021332 -11.474029686529283 5.6191277791807188 0 1 0 I I #
vertex $-1 $284 $345 #
straight-curve $-1 -58.64803003021332 -16.051209678222122 5.6191277791807153 0.71933979245794832 0 0.69465837861970381 I I #
coedge $-1 $199 $346 $201 $280 forward $207 $-1 #
straight-curve $-1 -70.064360465134342 -16.051209678222122 10.14953442086027 1 0 0 I I #
coedge $-1 $341 $201 $347 $348 forward $116 $-1 #
edge $-1 $349 -40.665402456326383 $203 16.051209678222122 $201 $350 forward 7 unknown #
point $-1 -58.64803003021332 -16.051209678222122 5.6191277791807153 #
point $-1 -58.64803003021332 -16.051209678222122 10.149534420860268 #
coedge $-1 $351 $205 $352 $353 forward $207 $-1 #
edge $-1 $275 4.5771799916928391 $208 18.370879381365725 $206 $354 forward 7 unknown #
point $-1 -53.956656725465507 -29.84490906789501 10.149534420860268 #
coedge $-1 $355 $356 $212 $287 forward $357 $-1 #
edge $-1 $358 -23.037824575271035 $289 -12.217331186839662 $286 $359 forward 7 unknown #
coedge $-1 $213 $340 $355 $360 reversed $192 $-1 #
vertex $-1 $360 $361 #
coedge $-1 $362 $352 $215 $291 forward $363 $-1 #
edge $-1 $292 -10.149534420860268 $358 10.149534420860268 $290 $364 forward 7 unknown #
vertex $-1 $353 $365 #
straight-curve $-1 -55.127984280967425 -17.627577881055348 10.149534420860268 0 -1 0 I I #
face $-1 $366 $367 $15 $-1 $368 forward single #
loop $-1 $-1 $369 $219 #
plane-surface $-1 -58.64803003021332 0 0 1 0 0 0 0 -1 forward_v I I I I #
coedge $-1 $298 $221 $370 $371 forward $134 $-1 #
coedge $-1 $221 $297 $372 $373 reversed $134 $-1 #
coedge $-1 $374 $369 $221 $300 forward $295 $-1 #
edge $-1 $375 -39.378297860410811 $376 -34.847891218731256 $299 $377 forward 7 unknown #
coedge $-1 $378 $379 $222 $302 forward $380 $-1 #
edge $-1 $381 -16.107703739668835 $308 -14.936376184166917 $301 $382 forward 7 unknown #
coedge $-1 $383 $384 $223 $304 reversed $229 $-1 #
edge $-1 $381 -6.5217764315771074 $309 -4.8934394929245801 $223 $385 forward 7 unknown #
coedge $-1 $386 $224 $387 $388 forward $307 $-1 #
coedge $-1 $224 $389 $378 $390 reversed $307 $-1 #
loop $-1 $-1 $389 $366 #
vertex $-1 $302 $391 #
vertex $-1 $388 $392 #
straight-curve $-1 -55.127984280967425 -29.84490906789501 0 0 0 -1 I I #
vertex $-1 $226 $393 #
point $-1 -51.117679436159627 -22.948059373058566 4.6747893275563612 #
coedge $-1 $384 $370 $369 $394 reversed $229 $-1 #
straight-curve $-1 -58.64803003021332 40.665402456326383 0 0 0 -1 I I #
point $-1 -58.64803003021332 -40.665402456326383 -10.149534420860268 #
straight-curve $-1 -58.64803003021332 0 -10.149534420860268 0 1 0 I I #
point $-1 -58.64803003021332 40.665402456326383 -10.149534420860268 #
face $-1 $-1 $395 $13 $-1 $396 reversed single #
loop $-1 $-1 $397 $247 #
plane-surface $-1 0 40.665402456326383 0 0 -1 0 0 0 -1 forward_v I I I I #
coedge $-1 $251 $250 $398 $399 forward $58 $-1 #
coedge $-1 $397 $400 $251 $323 reversed $319 $-1 #
edge $-1 $401 -58.64803003021332 $325 58.64803003021332 $322 $402 forward 7 unknown #
coedge $-1 $262 $252 $400 $403 forward $248 $-1 #
vertex $-1 $323 $404 #
straight-curve $-1 -58.64803003021332 0 10.149534420860268 0 -1 0 I I #
coedge $-1 $255 $265 $405 $406 forward $170 $-1 #
coedge $-1 $405 $398 $257 $329 forward $395 $-1 #
edge $-1 $332 -10.149534420860268 $330 10.149534420860268 $328 $407 forward 7 unknown #
vertex $-1 $329 $408 #
straight-curve $-1 0 -40.665402456326383 -10.149534420860268 -1 0 0 I I #
vertex $-1 $399 $409 #
straight-curve $-1 0 -40.665402456326383 10.149534420860268 1 0 0 I I #
coedge $-1 $400 $397 $265 $335 reversed $319 $-1 #
edge $-1 $336 -58.64803003021332 $410 58.64803003021332 $334 $411 forward 7 unknown #
vertex $-1 $335 $412 #
straight-curve $-1 -58.64803003021332 0 -10.149534420860268 0 1 0 I I #
face $-1 $413 $363 $14 $-1 $414 reversed single #
plane-surface $-1 0 0 10.149534420860268 0 0 1 1 0 0 forward_v I I I I #
coedge $-1 $288 $270 $271 $342 reversed $192 $-1 #
coedge $-1 $271 $279 $415 $416 reversed $116 $-1 #
edge $-1 $417 -10.149534420860268 $273 5.6191277791807162 $271 $418 forward 7 unknown #
straight-curve $-1 -59.596594534110402 -29.84490906789501 4.7031096647902642 -0.71933979245794832 0 -0.69465837861970381 I I #
point $-1 -58.64803003021332 -29.84490906789501 5.6191277791807162 #
point $-1 -53.956656725465507 -16.051209678222122 10.149534420860268 #
coedge $-1 $277 $351 $419 $420 forward $207 $-1 #
coedge $-1 $419 $421 $279 $348 reversed $422 $-1 #
edge $-1 $349 -10.149534420860268 $423 10.149534420860268 $347 $424 forward 7 unknown #
vertex $-1 $420 $425 #
straight-curve $-1 -58.64803003021332 0 10.149534420860268 0 -1 0 I I #
coedge $-1 $346 $283 $426 $427 forward $207 $-1 #
coedge $-1 $290 $428 $283 $353 reversed $363 $-1 #
edge $-1 $292 -55.127984280967425 $429 58.64803003021332 $352 $430 forward 7 unknown #
straight-curve $-1 -53.9566567254655 -11.474029686529283 10.149534420860268 0 -1 0 I I #
coedge $-1 $415 $286 $288 $360 forward $357 $-1 #
coedge $-1 $286 $431 $362 $432 forward $357 $-1 #
loop $-1 $-1 $355 $413 #
vertex $-1 $291 $433 #
straight-curve $-1 -55.127984280967425 -17.627577881055348 -10.149534420860268 0 1 0 I I #
edge $-1 $289 26.683980703172239 $417 30.204026452418134 $355 $434 forward 7 unknown #
point $-1 -55.127984280967425 -29.84490906789501 -10.149534420860268 #
coedge $-1 $428 $290 $356 $432 reversed $363 $-1 #
loop $-1 $-1 $290 $338 #
straight-curve $-1 -55.127984280967425 -40.665402456326383 0 0 0 -1 I I #
point $-1 -55.127984280967425 -40.665402456326383 10.149534420860268 #
face $-1 $435 $307 $15 $-1 $436 forward single #
loop $-1 $-1 $437 $294 #
plane-surface $-1 -56.888007155590373 -29.84490906789501 0 0 -1 0 0 0 -1 forward_v I I I I #
coedge $-1 $299 $438 $313 $394 forward $295 $-1 #
coedge $-1 $313 $383 $297 $371 reversed $229 $-1 #
edge $-1 $375 0 $439 6.5217764315771074 $297 $440 forward 7 unknown #
coedge $-1 $379 $441 $298 $373 forward $380 $-1 #
edge $-1 $376 11.416330434921022 $439 16.107703739668835 $372 $442 forward 7 unknown #
coedge $-1 $443 $299 $441 $444 reversed $295 $-1 #
vertex $-1 $394 $445 #
vertex $-1 $373 $446 #
straight-curve $-1 -58.64803003021332 -16.051209678222122 44.997425639591526 0 0 1 I I #
coedge $-1 $447 $301 $306 $390 forward $380 $-1 #
coedge $-1 $301 $372 $383 $448 forward $380 $-1 #
loop $-1 $-1 $301 $435 #
vertex $-1 $448 $449 #
straight-curve $-1 -70.064360465134342 -29.84490906789501 10.14953442086027 -1 0 0 I I #
coedge $-1 $370 $303 $379 $448 reversed $229 $-1 #
coedge $-1 $303 $313 $437 $450 reversed $229 $-1 #
straight-curve $-1 -58.64803003021332 -29.84490906789501 5.6191277791807153 -0.71933979245794832 0 -0.69465837861970381 I I #
coedge $-1 $389 $305 $451 $452 reversed $307 $-1 #
coedge $-1 $437 $453 $305 $388 reversed $367 $-1 #
edge $-1 $309 -9.0183965232093293 $454 10.149534420860268 $305 $310 forward 7 unknown #
coedge $-1 $306 $386 $455 $456 reversed $307 $-1 #
edge $-1 $308 12.217331186839662 $457 23.037824575271035 $378 $458 forward 7 unknown #
point $-1 -55.127984280967425 -29.84490906789501 10.149534420860268 #
point $-1 -55.127984280967425 -29.84490906789501 9.0183965232093293 #
point $-1 -51.154701556916997 -22.948059373058566 2.5537920709398834 #
edge $-1 $459 -18.370879381365725 $375 -4.5771799916928391 $369 $460 forward 7 unknown #
loop $-1 $-1 $328 $318 #
plane-surface $-1 58.64803003021332 0 0 -1 0 0 0 0 1 forward_v I I I I #
coedge $-1 $334 $322 $461 $462 forward $319 $-1 #
coedge $-1 $328 $461 $321 $399 reversed $395 $-1 #
edge $-1 $332 -40.665402456326383 $401 40.665402456326383 $398 $463 forward 7 unknown #
coedge $-1 $322 $334 $324 $403 reversed $319 $-1 #
vertex $-1 $399 $464 #
straight-curve $-1 0 40.665402456326383 10.149534420860268 -1 0 0 I I #
edge $-1 $325 -10.149534420860268 $336 10.149534420860268 $400 $465 forward 7 unknown #
point $-1 -58.64803003021332 40.665402456326383 10.149534420860268 #
coedge $-1 $461 $328 $327 $406 reversed $395 $-1 #
edge $-1 $410 -40.665402456326383 $330 40.665402456326383 $405 $466 forward 7 unknown #
straight-curve $-1 58.64803003021332 -40.665402456326383 0 0 0 -1 I I #
point $-1 58.64803003021332 -40.665402456326383 -10.149534420860268 #
point $-1 58.64803003021332 -40.665402456326383 10.149534420860268 #
vertex $-1 $406 $467 #
straight-curve $-1 0 40.665402456326383 -10.149534420860268 1 0 0 I I #
point $-1 -58.64803003021332 40.665402456326383 -10.149534420860268 #
face $-1 $468 $357 $14 $-1 $469 reversed single #
plane-surface $-1 0 -40.665402456326383 0 0 1 0 0 0 1 forward_v I I I I #
coedge $-1 $470 $355 $341 $416 forward $357 $-1 #
edge $-1 $417 -29.84490906789501 $423 40.665402456326383 $341 $471 forward 7 unknown #
vertex $-1 $416 $472 #
straight-curve $-1 -58.64803003021332 -29.84490906789501 0 0 0 1 I I #
coedge $-1 $473 $347 $346 $420 reversed $422 $-1 #
edge $-1 $474 -58.64803003021332 $349 58.64803003021332 $419 $475 forward 7 unknown #
coedge $-1 $347 $473 $470 $476 reversed $422 $-1 #
loop $-1 $-1 $473 $468 #
vertex $-1 $476 $477 #
straight-curve $-1 -58.64803003021332 40.665402456326383 0 0 0 -1 I I #
point $-1 -58.64803003021332 40.665402456326383 10.149534420860268 #
coedge $-1 $478 $479 $351 $427 reversed $480 $-1 #
edge $-1 $429 -40.665402456326383 $474 40.665402456326383 $426 $481 forward 7 unknown #
coedge $-1 $352 $362 $478 $482 reversed $363 $-1 #
vertex $-1 $427 $483 #
straight-curve $-1 0 -40.665402456326383 10.149534420860268 1 0 0 I I #
coedge $-1 $356 $470 $484 $485 forward $357 $-1 #
edge $-1 $486 -58.64803003021332 $358 55.127984280967425 $362 $487 forward 7 unknown #
point $-1 -55.127984280967425 -40.665402456326383 -10.149534420860268 #
straight-curve $-1 -28.444003577795186 -29.84490906789501 -10.149534420860268 -1 0 0 I I #
face $-1 $488 $380 $15 $-1 $489 forward single #
plane-surface $-1 -55.127984280967425 -35.255155762110697 0 -1 0 0 0 0 1 forward_v I I I I #
coedge $-1 $490 $387 $384 $450 forward $367 $-1 #
coedge $-1 $369 $491 $490 $492 forward $295 $-1 #
vertex $-1 $448 $493 #
straight-curve $-1 -58.64803003021332 -16.051209678222122 5.6191277791807153 0.71933979245794832 0 0.69465837861970381 I I #
coedge $-1 $372 $494 $374 $444 forward $380 $-1 #
straight-curve $-1 -70.064360465134342 -16.051209678222122 10.14953442086027 1 0 0 I I #
coedge $-1 $491 $374 $495 $496 forward $295 $-1 #
edge $-1 $497 -40.665402456326383 $376 16.051209678222122 $374 $498 forward 7 unknown #
point $-1 -58.64803003021332 -16.051209678222122 5.6191277791807153 #
point $-1 -58.64803003021332 -16.051209678222122 10.149534420860268 #
coedge $-1 $499 $378 $500 $501 forward $380 $-1 #
edge $-1 $439 4.5771799916928391 $381 18.370879381365725 $379 $502 forward 7 unknown #
point $-1 -53.956656725465507 -29.84490906789501 10.149534420860268 #
edge $-1 $309 -6.2120993444196326 $459 -1.3186598514950532 $437 $503 forward 7 unknown #
coedge $-1 $504 $505 $386 $452 forward $506 $-1 #
edge $-1 $507 -23.037824575271035 $454 -12.217331186839662 $451 $508 forward 7 unknown #
coedge $-1 $387 $490 $504 $509 reversed $367 $-1 #
vertex $-1 $509 $510 #
coedge $-1 $511 $500 $389 $456 forward $512 $-1 #
edge $-1 $457 -10.149534420860268 $507 10.149534420860268 $455 $513 forward 7 unknown #
vertex $-1 $501 $514 #
straight-curve $-1 -55.127984280967425 -17.627577881055348 10.149534420860268 0 -1 0 I I #
vertex $-1 $394 $515 #
straight-curve $-1 -58.64803003021332 -11.474029686529283 5.6191277791807188 0 1 0 I I #
coedge $-1 $398 $405 $397 $462 reversed $395 $-1 #
edge $-1 $401 -10.149534420860268 $410 10.149534420860268 $461 $516 forward 7 unknown #
straight-curve $-1 58.64803003021332 0 10.149534420860268 0 1 0 I I #
point $-1 58.64803003021332 40.665402456326383 10.149534420860268 #
straight-curve $-1 -58.64803003021332 40.665402456326383 0 0 0 -1 I I #
straight-curve $-1 58.64803003021332 0 -10.149534420860268 0 -1 0 I I #
point $-1 58.64803003021332 40.665402456326383 -10.149534420860268 #
face $-1 $517 $422 $14 $-1 $518 reversed single #
plane-surface $-1 0 0 -10.149534420860268 0 0 1 1 0 0 forward_v I I I I #
coedge $-1 $431 $415 $421 $476 forward $357 $-1 #
straight-curve $-1 -58.64803003021332 0 -10.149534420860268 0 1 0 I I #
point $-1 -58.64803003021332 -29.84490906789501 -10.149534420860268 #
coedge $-1 $421 $419 $479 $519 forward $422 $-1 #
vertex $-1 $427 $520 #
straight-curve $-1 0 40.665402456326383 10.149534420860268 -1 0 0 I I #
edge $-1 $423 -58.64803003021332 $521 58.64803003021332 $421 $522 forward 7 unknown #
point $-1 -58.64803003021332 40.665402456326383 -10.149534420860268 #
coedge $-1 $484 $426 $428 $482 forward $480 $-1 #
coedge $-1 $426 $484 $473 $519 reversed $480 $-1 #
loop $-1 $-1 $478 $517 #
straight-curve $-1 58.64803003021332 0 10.149534420860268 0 1 0 I I #
edge $-1 $429 -10.149534420860268 $486 10.149534420860268 $478 $523 forward 7 unknown #
point $-1 58.64803003021332 -40.665402456326383 10.149534420860268 #
coedge $-1 $479 $478 $431 $485 reversed $480 $-1 #
edge $-1 $521 -40.665402456326383 $486 40.665402456326383 $484 $524 forward 7 unknown #
vertex $-1 $482 $525 #
straight-curve $-1 0 -40.665402456326383 -10.149534420860268 -1 0 0 I I #
face $-1 $526 $512 $15 $-1 $527 reversed single #
plane-surface $-1 0 0 10.149534420860268 0 0 1 1 0 0 forward_v I I I I #
coedge $-1 $453 $437 $438 $492 reversed $367 $-1 #
coedge $-1 $438 $443 $528 $529 reversed $295 $-1 #
edge $-1 $530 -10.149534420860268 $459 5.6191277791807162 $438 $531 forward 7 unknown #
point $-1 -53.956656725465507 -16.051209678222122 10.149534420860268 #
coedge $-1 $441 $499 $532 $533 forward $380 $-1 #
coedge $-1 $532 $534 $443 $496 reversed $535 $-1 #
edge $-1 $497 -10.149534420860268 $536 10.149534420860268 $495 $537 forward 7 unknown #
vertex $-1 $533 $538 #
straight-curve $-1 -58.64803003021332 0 10.149534420860268 0 -1 0 I I #
coedge $-1 $494 $447 $539 $540 forward $380 $-1 #
coedge $-1 $455 $541 $447 $501 reversed $512 $-1 #
edge $-1 $457 -55.127984280967425 $542 58.64803003021332 $500 $543 forward 7 unknown #
straight-curve $-1 -53.9566567254655 -11.474029686529283 10.149534420860268 0 -1 0 I I #
straight-curve $-1 -59.596594534110402 -29.84490906789501 4.7031096647902642 -0.71933979245794832 0 -0.69465837861970381 I I #
coedge $-1 $528 $451 $453 $509 forward $506 $-1 #
coedge $-1 $451 $544 $511 $545 forward $506 $-1 #
loop $-1 $-1 $504 $526 #
vertex $-1 $456 $546 #
straight-curve $-1 -55.127984280967425 -17.627577881055348 -10.149534420860268 0 1 0 I I #
edge $-1 $454 26.683980703172239 $530 30.204026452418134 $504 $547 forward 7 unknown #
point $-1 -55.127984280967425 -29.84490906789501 -10.149534420860268 #
coedge $-1 $541 $455 $505 $545 reversed $512 $-1 #
loop $-1 $-1 $455 $488 #
straight-curve $-1 -55.127984280967425 -40.665402456326383 0 0 0 -1 I I #
point $-1 -55.127984280967425 -40.665402456326383 10.149534420860268 #
point $-1 -58.64803003021332 -29.84490906789501 5.6191277791807162 #
straight-curve $-1 58.64803003021332 40.665402456326383 0 0 0 -1 I I #
face $-1 $-1 $480 $14 $-1 $548 reversed single #
plane-surface $-1 0 40.665402456326383 0 0 -1 0 0 0 -1 forward_v I I I I #
edge $-1 $474 -10.149534420860268 $521 10.149534420860268 $479 $549 forward 7 unknown #
point $-1 58.64803003021332 40.665402456326383 10.149534420860268 #
vertex $-1 $485 $550 #
straight-curve $-1 0 40.665402456326383 -10.149534420860268 1 0 0 I I #
straight-curve $-1 58.64803003021332 -40.665402456326383 0 0 0 -1 I I #
straight-curve $-1 58.64803003021332 0 -10.149534420860268 0 -1 0 I I #
point $-1 58.64803003021332 -40.665402456326383 -10.149534420860268 #
face $-1 $551 $506 $15 $-1 $552 reversed single #
plane-surface $-1 0 -40.665402456326383 0 0 1 0 0 0 1 forward_v I I I I #
coedge $-1 $553 $504 $491 $529 forward $506 $-1 #
edge $-1 $530 -29.84490906789501 $536 40.665402456326383 $491 $554 forward 7 unknown #
vertex $-1 $529 $555 #
straight-curve $-1 -58.64803003021332 -29.84490906789501 0 0 0 1 I I #
coedge $-1 $556 $495 $494 $533 reversed $535 $-1 #
edge $-1 $557 -58.64803003021332 $497 58.64803003021332 $532 $558 forward 7 unknown #
coedge $-1 $495 $556 $553 $559 reversed $535 $-1 #
loop $-1 $-1 $556 $551 #
vertex $-1 $559 $560 #
straight-curve $-1 -58.64803003021332 40.665402456326383 0 0 0 -1 I I #
point $-1 -58.64803003021332 40.665402456326383 10.149534420860268 #
coedge $-1 $561 $562 $499 $540 reversed $563 $-1 #
edge $-1 $542 -40.665402456326383 $557 40.665402456326383 $539 $564 forward 7 unknown #
coedge $-1 $500 $511 $561 $565 reversed $512 $-1 #
vertex $-1 $540 $566 #
straight-curve $-1 0 -40.665402456326383 10.149534420860268 1 0 0 I I #
coedge $-1 $505 $553 $567 $568 forward $506 $-1 #
edge $-1 $569 -58.64803003021332 $507 55.127984280967425 $511 $570 forward 7 unknown #
point $-1 -55.127984280967425 -40.665402456326383 -10.149534420860268 #
straight-curve $-1 -28.444003577795186 -29.84490906789501 -10.149534420860268 -1 0 0 I I #
plane-surface $-1 58.64803003021332 0 0 -1 0 0 0 0 1 forward_v I I I I #
straight-curve $-1 58.64803003021332 40.665402456326383 0 0 0 -1 I I #
point $-1 58.64803003021332 40.665402456326383 -10.149534420860268 #
face $-1 $571 $535 $15 $-1 $572 reversed single #
plane-surface $-1 0 0 -10.149534420860268 0 0 1 1 0 0 forward_v I I I I #
coedge $-1 $544 $528 $534 $559 forward $506 $-1 #
straight-curve $-1 -58.64803003021332 0 -10.149534420860268 0 1 0 I I #
point $-1 -58.64803003021332 -29.84490906789501 -10.149534420860268 #
coedge $-1 $534 $532 $562 $573 forward $535 $-1 #
vertex $-1 $540 $574 #
straight-curve $-1 0 40.665402456326383 10.149534420860268 -1 0 0 I I #
edge $-1 $536 -58.64803003021332 $575 58.64803003021332 $534 $576 forward 7 unknown #
point $-1 -58.64803003021332 40.665402456326383 -10.149534420860268 #
coedge $-1 $567 $539 $541 $565 forward $563 $-1 #
coedge $-1 $539 $567 $556 $573 reversed $563 $-1 #
loop $-1 $-1 $561 $571 #
straight-curve $-1 58.64803003021332 0 10.149534420860268 0 1 0 I I #
edge $-1 $542 -10.149534420860268 $569 10.149534420860268 $561 $577 forward 7 unknown #
point $-1 58.64803003021332 -40.665402456326383 10.149534420860268 #
coedge $-1 $562 $561 $544 $568 reversed $563 $-1 #
edge $-1 $575 -40.665402456326383 $569 40.665402456326383 $567 $578 forward 7 unknown #
vertex $-1 $565 $579 #
straight-curve $-1 0 -40.665402456326383 -10.149534420860268 -1 0 0 I I #
face $-1 $-1 $563 $15 $-1 $580 reversed single #
plane-surface $-1 0 40.665402456326383 0 0 -1 0 0 0 -1 forward_v I I I I #
edge $-1 $557 -10.149534420860268 $575 10.149534420860268 $562 $581 forward 7 unknown #
point $-1 58.64803003021332 40.665402456326383 10.149534420860268 #
vertex $-1 $568 $582 #
straight-curve $-1 0 40.665402456326383 -10.149534420860268 1 0 0 I I #
straight-curve $-1 58.64803003021332 -40.665402456326383 0 0 0 -1 I I #
straight-curve $-1 58.64803003021332 0 -10.149534420860268 0 -1 0 I I #
point $-1 58.64803003021332 -40.665402456326383 -10.149534420860268 #
plane-surface $-1 58.64803003021332 0 0 -1 0 0 0 0 1 forward_v I I I I #
straight-curve $-1 58.64803003021332 40.665402456326383 0 0 0 -1 I I #
point $-1 58.64803003021332 40.665402456326383 -10.149534420860268 #
End-of-ACIS-data 