500 0 11 0           
7 Unknown 11 ACIS 5.0 NT 24 Fri Mar 26 18:11:08 1999 
-1 9.9999999999999995e-007 1e-010 
body $-1 $11 $-1 $12 #
body $-1 $13 $-1 $14 #
body $-1 $15 $-1 $16 #
body $-1 $17 $-1 $18 #
body $-1 $19 $-1 $20 #
body $-1 $21 $-1 $22 #
body $-1 $23 $-1 $24 #
body $-1 $25 $-1 $26 #
body $-1 $27 $-1 $28 #
body $-1 $29 $-1 $30 #
body $-1 $31 $-1 $32 #
lump $-1 $-1 $33 $0 #
transform $-1 1 0 0 0 1 0 0 0 1 54.294869838557084 36.46887997914984 10.20431916528322 1 rotate no_reflect no_shear #
lump $-1 $-1 $34 $1 #
transform $-1 1 0 0 0 1 0 0 0 1 54.294869838557084 36.46887997914984 10.20431916528322 1 rotate no_reflect no_shear #
lump $-1 $-1 $35 $2 #
transform $-1 1 0 0 0 1 0 0 0 1 54.294869838557084 36.46887997914984 10.20431916528322 1 rotate no_reflect no_shear #
lump $-1 $-1 $36 $3 #
transform $-1 1 0 0 0 1 0 0 0 1 54.294869838557084 36.46887997914984 10.20431916528322 1 rotate no_reflect no_shear #
lump $-1 $-1 $37 $4 #
transform $-1 1 0 0 0 1 0 0 0 1 54.294869838557084 36.46887997914984 10.20431916528322 1 rotate no_reflect no_shear #
lump $-1 $-1 $38 $5 #
transform $-1 1 0 0 0 1 0 0 0 1 54.294869838557084 36.46887997914984 10.20431916528322 1 rotate no_reflect no_shear #
lump $-1 $-1 $39 $6 #
transform $-1 1 0 0 0 1 0 0 0 1 54.294869838557084 36.46887997914984 10.20431916528322 1 rotate no_reflect no_shear #
lump $-1 $-1 $40 $7 #
transform $-1 1 0 0 0 1 0 0 0 1 54.294869838557084 36.46887997914984 10.20431916528322 1 rotate no_reflect no_shear #
lump $-1 $-1 $41 $8 #
transform $-1 1 0 0 0 1 0 0 0 1 54.294869838557084 36.46887997914984 10.20431916528322 1 rotate no_reflect no_shear #
lump $-1 $-1 $42 $9 #
transform $-1 1 0 0 0 1 0 0 0 1 54.294869838557084 36.46887997914984 10.20431916528322 1 rotate no_reflect no_shear #
lump $-1 $-1 $43 $10 #
transform $-1 1 0 0 0 1 0 0 0 1 54.294869838557084 36.46887997914984 10.20431916528322 1 rotate no_reflect no_shear #
shell $-1 $-1 $-1 $44 $-1 $11 #
shell $-1 $-1 $-1 $45 $-1 $13 #
shell $-1 $-1 $-1 $46 $-1 $15 #
shell $-1 $-1 $-1 $47 $-1 $17 #
shell $-1 $-1 $-1 $48 $-1 $19 #
shell $-1 $-1 $-1 $49 $-1 $21 #
shell $-1 $-1 $-1 $50 $-1 $23 #
shell $-1 $-1 $-1 $51 $-1 $25 #
shell $-1 $-1 $-1 $52 $-1 $27 #
shell $-1 $-1 $-1 $53 $-1 $29 #
shell $-1 $-1 $-1 $54 $-1 $31 #
face $-1 $55 $56 $33 $-1 $57 forward single #
face $-1 $58 $59 $34 $-1 $60 forward single #
face $-1 $61 $62 $35 $-1 $63 reversed single #
face $-1 $64 $65 $36 $-1 $66 forward single #
face $-1 $67 $68 $37 $-1 $69 forward single #
face $-1 $70 $71 $38 $-1 $72 reversed single #
face $-1 $73 $74 $39 $-1 $75 forward single #
face $-1 $76 $77 $40 $-1 $78 forward single #
face $-1 $79 $80 $41 $-1 $81 reversed single #
face $-1 $82 $83 $42 $-1 $84 forward single #
face $-1 $85 $86 $43 $-1 $87 forward single #
face $-1 $88 $89 $33 $-1 $90 reversed single #
loop $-1 $-1 $91 $44 #
plane-surface $-1 0 0 10.20431916528322 0 0 1 1 0 0 forward_v I I I I #
face $-1 $92 $93 $34 $-1 $94 reversed single #
loop $-1 $-1 $95 $45 #
plane-surface $-1 -54.294869838557084 0 0 1 0 0 0 0 -1 forward_v I I I I #
face $-1 $96 $97 $35 $-1 $98 reversed single #
loop $-1 $-1 $99 $46 #
plane-surface $-1 22.54695063329045 43.569132797089345 134.71584757953372 1 0 0 0 -0.6018150307709319 -0.79863550430605224 forward_v I I I I #
face $-1 $100 $101 $36 $-1 $102 forward single #
loop $-1 $103 $104 $47 #
cone-surface $-1 28.607730463092516 31.85950791682998 6.4113864310111905 0 -0.6018150307709319 -0.79863550430605224 1.5 0 0 1 I I 0 1 1.5 forward I I I I #
face $-1 $105 $106 $37 $-1 $107 forward single #
loop $-1 $108 $109 $48 #
cone-surface $-1 37.698900207795624 31.85950791682998 6.4113864310111905 0 -0.6018150307709319 -0.79863550430605224 1.5 0 0 1 I I 0 1 1.5 forward I I I I #
face $-1 $110 $111 $38 $-1 $112 reversed single #
loop $-1 $-1 $113 $49 #
plane-surface $-1 -32.320637711725126 -94.012675691923121 94.061731177547315 -1 0 0 0 -0.52991927123019833 0.84804809178421925 forward_v I I I I #
face $-1 $114 $115 $39 $-1 $116 forward single #
loop $-1 $117 $118 $50 #
cone-surface $-1 -40.948666873284886 -28.82609118328913 4.398596172116755 0 0.52991927123019833 -0.84804809178421925 1 0 0 1 I I 0 1 1 forward I I I I #
face $-1 $119 $120 $40 $-1 $121 forward single #
loop $-1 $122 $123 $51 #
cone-surface $-1 -35.771849376349032 -28.82609118328913 4.398596172116755 0 0.52991927123019833 -0.84804809178421925 1 0 0 1 I I 0 1 1 forward I I I I #
face $-1 $124 $125 $41 $-1 $126 reversed single #
loop $-1 $-1 $127 $52 #
plane-surface $-1 48.255249425465244 -36.468879979149833 1.9724096570255227 0 -0.52991927123019833 0.84804809178421925 1 0 0 forward_v I I I I #
face $-1 $128 $129 $42 $-1 $130 forward single #
loop $-1 $131 $132 $53 #
cone-surface $-1 45.666840676997317 -28.82609118328913 4.398596172116755 0 0.52991927123019833 -0.84804809178421925 1 0 0 1 I I 0 1 1 forward I I I I #
face $-1 $133 $134 $43 $-1 $135 forward single #
loop $-1 $136 $137 $54 #
cone-surface $-1 50.843658173933171 -28.82609118328913 4.398596172116755 0 0.52991927123019833 -0.84804809178421925 1 0 0 1 I I 0 1 1 forward I I I I #
face $-1 $138 $139 $33 $-1 $140 reversed single #
loop $-1 $-1 $141 $55 #
plane-surface $-1 0 0 -10.20431916528322 0 0 1 1 0 0 forward_v I I I I #
coedge $-1 $142 $143 $144 $145 forward $56 $-1 #
face $-1 $146 $147 $34 $-1 $148 forward single #
loop $-1 $-1 $149 $58 #
plane-surface $-1 0 36.46887997914984 0 0 -1 0 0 0 -1 forward_v I I I I #
coedge $-1 $150 $151 $152 $153 forward $59 $-1 #
face $-1 $154 $155 $35 $-1 $156 reversed single #
loop $-1 $-1 $157 $61 #
plane-surface $-1 33.153315335444084 -21.781804728100603 47.992226070038711 0 0.6018150307709319 0.79863550430605224 1 0 0 forward_v I I I I #
coedge $-1 $158 $159 $160 $161 reversed $62 $-1 #
face $-1 $-1 $162 $36 $-1 $163 forward single #
loop $-1 $164 $165 $64 #
cone-surface $-1 28.607730463092516 30.850994343809951 5.0730437429653676 0 -0.6018150307709319 -0.79863550430605224 0.75 0 0 1 I I -0.70710678118654757 0.70710678118654757 0.75 forward I I I I #
loop $-1 $-1 $166 $47 #
coedge $-1 $104 $104 $167 $168 reversed $65 $-1 #
face $-1 $-1 $169 $37 $-1 $170 forward single #
loop $-1 $171 $172 $67 #
cone-surface $-1 37.698900207795624 30.850994343809951 5.0730437429653676 0 -0.6018150307709319 -0.79863550430605224 0.75 0 0 1 I I -0.70710678118654757 0.70710678118654757 0.75 forward I I I I #
loop $-1 $-1 $173 $48 #
coedge $-1 $109 $109 $174 $175 reversed $68 $-1 #
face $-1 $176 $177 $38 $-1 $178 reversed single #
loop $-1 $-1 $179 $70 #
plane-surface $-1 -38.360258124816959 -36.468879979149833 1.9724096570255227 0 -0.52991927123019833 0.84804809178421925 1 0 0 forward_v I I I I #
coedge $-1 $180 $181 $182 $183 reversed $71 $-1 #
face $-1 $-1 $184 $39 $-1 $185 forward single #
loop $-1 $186 $187 $73 #
cone-surface $-1 -40.948666873284886 -27.50524714388412 2.2848038871870227 0 0.52991927123019833 -0.84804809178421925 0.5 0 0 1 I I -0.70710678118654746 0.70710678118654746 0.5 forward I I I I #
loop $-1 $-1 $188 $50 #
coedge $-1 $118 $118 $189 $190 reversed $74 $-1 #
face $-1 $-1 $191 $40 $-1 $192 forward single #
loop $-1 $193 $194 $76 #
cone-surface $-1 -35.771849376349032 -27.50524714388412 2.2848038871870227 0 0.52991927123019833 -0.84804809178421925 0.5 0 0 1 I I -0.70710678118654746 0.70710678118654746 0.5 forward I I I I #
loop $-1 $-1 $195 $51 #
coedge $-1 $123 $123 $196 $197 reversed $77 $-1 #
face $-1 $198 $199 $41 $-1 $200 reversed single #
loop $-1 $-1 $201 $79 #
plane-surface $-1 42.215629012373412 -94.012675691923121 94.061731177547315 1 0 0 0 0.52991927123019833 -0.84804809178421925 forward_v I I I I #
coedge $-1 $202 $203 $204 $205 reversed $80 $-1 #
face $-1 $-1 $206 $42 $-1 $207 forward single #
loop $-1 $208 $209 $82 #
cone-surface $-1 45.666840676997317 -27.50524714388412 2.2848038871870227 0 0.52991927123019833 -0.84804809178421925 0.5 0 0 1 I I -0.70710678118654746 0.70710678118654746 0.5 forward I I I I #
loop $-1 $-1 $210 $53 #
coedge $-1 $132 $132 $211 $212 reversed $83 $-1 #
face $-1 $-1 $213 $43 $-1 $214 forward single #
loop $-1 $215 $216 $85 #
cone-surface $-1 50.843658173933171 -27.50524714388412 2.2848038871870227 0 0.52991927123019833 -0.84804809178421925 0.5 0 0 1 I I -0.70710678118654746 0.70710678118654746 0.5 forward I I I I #
loop $-1 $-1 $217 $54 #
coedge $-1 $137 $137 $218 $219 reversed $86 $-1 #
face $-1 $220 $221 $33 $-1 $222 reversed single #
loop $-1 $-1 $223 $88 #
plane-surface $-1 0 -36.46887997914984 0 0 1 0 0 0 1 forward_v I I I I #
coedge $-1 $224 $225 $226 $227 forward $89 $-1 #
coedge $-1 $228 $91 $229 $230 forward $56 $-1 #
coedge $-1 $91 $228 $231 $232 forward $56 $-1 #
coedge $-1 $233 $234 $91 $145 reversed $235 $-1 #
edge $-1 $236 -36.46887997914984 $237 36.46887997914984 $144 $238 forward 7 unknown #
face $-1 $239 $240 $34 $-1 $241 reversed single #
loop $-1 $-1 $152 $92 #
plane-surface $-1 -59.242365488881234 0 -7.2043191652832199 0 0 1 1 0 0 forward_v I I I I #
coedge $-1 $242 $243 $151 $244 forward $93 $-1 #
coedge $-1 $245 $95 $246 $247 reversed $59 $-1 #
coedge $-1 $95 $245 $149 $244 reversed $59 $-1 #
coedge $-1 $248 $249 $95 $153 reversed $147 $-1 #
edge $-1 $250 -36.46887997914984 $251 36.46887997914984 $152 $252 forward 7 unknown #
face $-1 $253 $254 $35 $-1 $255 forward single #
loop $-1 $-1 $256 $96 #
plane-surface $-1 43.759680037597718 43.569132797089345 134.71584757953372 -1 0 0 0 0.6018150307709319 0.79863550430605224 forward_v I I I I #
coedge $-1 $257 $258 $259 $260 reversed $97 $-1 #
coedge $-1 $159 $99 $261 $262 reversed $62 $-1 #
coedge $-1 $99 $158 $257 $263 reversed $62 $-1 #
coedge $-1 $259 $264 $99 $161 forward $254 $-1 #
edge $-1 $265 -14.684313580605167 $266 -6.5798740558491069 $160 $267 forward 7 unknown #
loop $-1 $-1 $167 $100 #
plane-surface $-1 33.153315335444084 -21.781804728100603 47.992226070038711 0 0.6018150307709319 0.79863550430605224 1 0 0 forward_v I I I I #
loop $-1 $-1 $268 $64 #
coedge $-1 $165 $165 $166 $269 reversed $101 $-1 #
coedge $-1 $166 $166 $165 $269 forward $103 $-1 #
coedge $-1 $167 $167 $104 $168 forward $162 $-1 #
edge $-1 $270 -1.2886751334495574e-015 $270 6.2831853071795996 $167 $271 forward 7 unknown #
loop $-1 $-1 $174 $105 #
plane-surface $-1 33.153315335444084 -21.781804728100603 47.992226070038711 0 0.6018150307709319 0.79863550430605224 1 0 0 forward_v I I I I #
loop $-1 $-1 $272 $67 #
coedge $-1 $172 $172 $173 $273 reversed $106 $-1 #
coedge $-1 $173 $173 $172 $273 forward $108 $-1 #
coedge $-1 $174 $174 $109 $175 forward $169 $-1 #
edge $-1 $274 -1.2886751334495574e-015 $274 6.2831853071795996 $174 $275 forward 7 unknown #
face $-1 $276 $277 $38 $-1 $278 reversed single #
loop $-1 $-1 $279 $110 #
plane-surface $-1 -44.399878537908791 -94.012675691923121 94.061731177547315 1 0 0 0 0.52991927123019833 -0.84804809178421925 forward_v I I I I #
coedge $-1 $280 $281 $282 $283 reversed $111 $-1 #
coedge $-1 $181 $113 $284 $285 reversed $71 $-1 #
coedge $-1 $113 $180 $280 $286 reversed $71 $-1 #
coedge $-1 $282 $287 $113 $183 forward $288 $-1 #
edge $-1 $289 10.537457866811721 $290 23.711266650953345 $182 $291 forward 7 unknown #
loop $-1 $-1 $189 $114 #
plane-surface $-1 -38.360258124816959 -36.468879979149833 1.9724096570255227 0 -0.52991927123019833 0.84804809178421925 1 0 0 forward_v I I I I #
loop $-1 $-1 $292 $73 #
coedge $-1 $187 $187 $188 $293 reversed $115 $-1 #
coedge $-1 $188 $188 $187 $293 forward $117 $-1 #
coedge $-1 $189 $189 $118 $190 forward $184 $-1 #
edge $-1 $294 5.6353594053339759e-016 $294 6.2831853071796013 $189 $295 forward 7 unknown #
loop $-1 $-1 $196 $119 #
plane-surface $-1 -38.360258124816959 -36.468879979149833 1.9724096570255227 0 -0.52991927123019833 0.84804809178421925 1 0 0 forward_v I I I I #
loop $-1 $-1 $296 $76 #
coedge $-1 $194 $194 $195 $297 reversed $120 $-1 #
coedge $-1 $195 $195 $194 $297 forward $122 $-1 #
coedge $-1 $196 $196 $123 $197 forward $191 $-1 #
edge $-1 $298 5.6353594053339759e-016 $298 6.2831853071796013 $196 $299 forward 7 unknown #
face $-1 $300 $301 $41 $-1 $302 forward single #
loop $-1 $-1 $303 $124 #
plane-surface $-1 0 -36.46887997914984 0 0 1 0 0 0 1 forward_v I I I I #
coedge $-1 $304 $305 $306 $307 reversed $125 $-1 #
coedge $-1 $308 $127 $309 $310 reversed $80 $-1 #
coedge $-1 $127 $308 $304 $311 forward $80 $-1 #
coedge $-1 $306 $312 $127 $205 forward $301 $-1 #
edge $-1 $313 -30.167245125824454 $314 -18.08800429964079 $204 $315 forward 7 unknown #
loop $-1 $-1 $211 $128 #
plane-surface $-1 48.255249425465244 -36.468879979149833 1.9724096570255227 0 -0.52991927123019833 0.84804809178421925 1 0 0 forward_v I I I I #
loop $-1 $-1 $316 $82 #
coedge $-1 $209 $209 $210 $317 reversed $129 $-1 #
coedge $-1 $210 $210 $209 $317 forward $131 $-1 #
coedge $-1 $211 $211 $132 $212 forward $206 $-1 #
edge $-1 $318 5.6353594053339759e-016 $318 6.2831853071796013 $211 $319 forward 7 unknown #
loop $-1 $-1 $218 $133 #
plane-surface $-1 48.255249425465244 -36.468879979149833 1.9724096570255227 0 -0.52991927123019833 0.84804809178421925 1 0 0 forward_v I I I I #
loop $-1 $-1 $320 $85 #
coedge $-1 $216 $216 $217 $321 reversed $134 $-1 #
coedge $-1 $217 $217 $216 $321 forward $136 $-1 #
coedge $-1 $218 $218 $137 $219 forward $213 $-1 #
edge $-1 $322 5.6353594053339759e-016 $322 6.2831853071796013 $218 $323 forward 7 unknown #
face $-1 $324 $325 $33 $-1 $326 reversed single #
loop $-1 $-1 $327 $138 #
plane-surface $-1 -54.294869838557084 0 0 1 0 0 0 0 -1 forward_v I I I I #
coedge $-1 $328 $231 $327 $329 forward $139 $-1 #
coedge $-1 $330 $141 $328 $331 forward $89 $-1 #
coedge $-1 $141 $330 $332 $333 forward $89 $-1 #
coedge $-1 $234 $233 $141 $227 reversed $235 $-1 #
edge $-1 $334 -36.46887997914984 $335 36.46887997914984 $226 $336 forward 7 unknown #
coedge $-1 $143 $142 $337 $338 forward $56 $-1 #
coedge $-1 $339 $340 $142 $230 reversed $325 $-1 #
edge $-1 $237 -54.294869838557084 $341 54.294869838557084 $229 $342 forward 7 unknown #
coedge $-1 $223 $343 $143 $232 reversed $139 $-1 #
edge $-1 $344 -54.294869838557084 $236 54.294869838557084 $231 $345 forward 7 unknown #
coedge $-1 $226 $144 $343 $346 forward $235 $-1 #
coedge $-1 $144 $226 $339 $347 reversed $235 $-1 #
loop $-1 $-1 $233 $324 #
vertex $-1 $145 $348 #
vertex $-1 $145 $349 #
straight-curve $-1 54.294869838557084 0 10.20431916528322 0 1 0 I I #
face $-1 $350 $351 $34 $-1 $352 reversed single #
loop $-1 $-1 $353 $146 #
plane-surface $-1 -64.189861139205377 0 -8.7043191652832199 1 0 0 0 0 -1 forward_v I I I I #
coedge $-1 $354 $149 $355 $356 reversed $93 $-1 #
coedge $-1 $149 $354 $248 $357 reversed $93 $-1 #
edge $-1 $250 7.2043191652832199 $358 10.20431916528322 $149 $359 forward 7 unknown #
coedge $-1 $151 $150 $360 $361 reversed $59 $-1 #
coedge $-1 $362 $363 $150 $247 forward $364 $-1 #
edge $-1 $365 -10.20431916528322 $251 -7.2043191652832199 $246 $366 forward 7 unknown #
coedge $-1 $367 $152 $243 $357 forward $147 $-1 #
coedge $-1 $152 $367 $362 $368 forward $147 $-1 #
vertex $-1 $244 $369 #
vertex $-1 $368 $370 #
straight-curve $-1 -54.294869838557084 0 -7.2043191652832199 0 -1 0 I I #
face $-1 $-1 $371 $35 $-1 $372 reversed single #
loop $-1 $-1 $160 $154 #
plane-surface $-1 0 0 10.20431916528322 0 0 1 1 0 0 forward_v I I I I #
coedge $-1 $373 $374 $375 $376 reversed $155 $-1 #
coedge $-1 $377 $157 $159 $263 forward $97 $-1 #
coedge $-1 $157 $377 $373 $378 forward $97 $-1 #
coedge $-1 $375 $160 $157 $260 forward $254 $-1 #
edge $-1 $266 5.9702929655684081 $379 27.183022369875676 $259 $380 forward 7 unknown #
coedge $-1 $381 $382 $158 $262 forward $371 $-1 #
edge $-1 $383 -63.260737973395109 $265 -57.153604624483634 $261 $384 forward 7 unknown #
edge $-1 $266 62.789902167030874 $383 72.937759958299694 $159 $385 forward 7 unknown #
coedge $-1 $160 $375 $381 $386 forward $254 $-1 #
vertex $-1 $262 $387 #
vertex $-1 $161 $388 #
straight-curve $-1 22.54695063329045 21.784566398544673 10.204319165283223 0 -1 0 I I #
coedge $-1 $268 $268 $-1 $389 reversed $164 $-1 #
edge $-1 $390 0 $390 6.2831853071796004 $165 $391 forward 7 unknown #
vertex $-1 $168 $392 #
ellipse-curve $-1 28.607730463092516 32.416660216771817 7.1507524908274815 0 0.6018150307709319 0.79863550430605224 1.5 0 0 1 I I #
coedge $-1 $272 $272 $-1 $393 reversed $171 $-1 #
edge $-1 $394 0 $394 6.2831853071796004 $172 $395 forward 7 unknown #
vertex $-1 $175 $396 #
ellipse-curve $-1 37.698900207795624 32.416660216771817 7.1507524908274815 0 0.6018150307709319 0.79863550430605224 1.5 0 0 1 I I #
face $-1 $-1 $288 $38 $-1 $397 forward single #
loop $-1 $-1 $398 $176 #
plane-surface $-1 0 -36.46887997914984 0 0 1 0 0 0 1 forward_v I I I I #
coedge $-1 $399 $400 $401 $402 reversed $177 $-1 #
coedge $-1 $403 $179 $181 $286 forward $111 $-1 #
coedge $-1 $179 $403 $399 $404 forward $111 $-1 #
coedge $-1 $401 $182 $179 $283 forward $288 $-1 #
edge $-1 $290 13.140508649316647 $405 25.219749475500311 $282 $406 forward 7 unknown #
coedge $-1 $407 $408 $180 $285 forward $277 $-1 #
edge $-1 $409 -45.058455931748142 $289 -36.826546423490441 $284 $410 forward 7 unknown #
edge $-1 $290 -15.534270888370344 $409 8.3790584163743152e-015 $181 $411 forward 7 unknown #
coedge $-1 $182 $401 $407 $412 forward $288 $-1 #
loop $-1 $-1 $401 $276 #
vertex $-1 $285 $413 #
vertex $-1 $183 $414 #
straight-curve $-1 -32.320637711725126 -47.006337845961561 10.204319165283223 0 1 0 I I #
coedge $-1 $292 $292 $-1 $415 reversed $186 $-1 #
edge $-1 $416 0 $416 6.2831853071796004 $187 $417 forward 7 unknown #
vertex $-1 $190 $418 #
ellipse-curve $-1 -40.948666873284886 -29.881975587079033 6.088364411154366 0 -0.52991927123019833 0.84804809178421925 1 0 0 1 I I #
coedge $-1 $296 $296 $-1 $419 reversed $193 $-1 #
edge $-1 $420 0 $420 6.2831853071796004 $194 $421 forward 7 unknown #
vertex $-1 $197 $422 #
ellipse-curve $-1 -35.771849376349032 -29.881975587079033 6.088364411154366 0 -0.52991927123019833 0.84804809178421925 1 0 0 1 I I #
face $-1 $-1 $423 $41 $-1 $424 reversed single #
loop $-1 $-1 $306 $198 #
plane-surface $-1 0 0 10.20431916528322 0 0 1 1 0 0 forward_v I I I I #
coedge $-1 $425 $426 $305 $427 forward $199 $-1 #
coedge $-1 $305 $201 $203 $311 reversed $125 $-1 #
coedge $-1 $201 $304 $303 $427 reversed $125 $-1 #
coedge $-1 $428 $204 $201 $307 forward $301 $-1 #
edge $-1 $314 -23.711266650953345 $429 -10.537457866811721 $306 $430 forward 7 unknown #
coedge $-1 $203 $202 $425 $431 reversed $80 $-1 #
coedge $-1 $432 $433 $202 $310 forward $423 $-1 #
edge $-1 $434 -14.94107309390369 $313 0.59319779446666043 $309 $435 forward 7 unknown #
edge $-1 $436 -8.3790584163743152e-015 $314 15.534270888370344 $304 $437 forward 7 unknown #
coedge $-1 $204 $428 $432 $438 forward $301 $-1 #
vertex $-1 $310 $439 #
vertex $-1 $205 $440 #
straight-curve $-1 24.127624712732622 -23.295071195008216 10.20431916528322 -1 0 0 I I #
coedge $-1 $316 $316 $-1 $441 reversed $208 $-1 #
edge $-1 $442 0 $442 6.2831853071796004 $209 $443 forward 7 unknown #
vertex $-1 $212 $444 #
ellipse-curve $-1 45.666840676997317 -29.881975587079033 6.088364411154366 0 -0.52991927123019833 0.84804809178421925 1 0 0 1 I I #
coedge $-1 $320 $320 $-1 $445 reversed $215 $-1 #
edge $-1 $446 0 $446 6.2831853071796004 $216 $447 forward 7 unknown #
vertex $-1 $219 $448 #
ellipse-curve $-1 50.843658173933171 -29.881975587079033 6.088364411154366 0 -0.52991927123019833 0.84804809178421925 1 0 0 1 I I #
face $-1 $-1 $235 $33 $-1 $449 reversed single #
loop $-1 $-1 $339 $220 #
plane-surface $-1 0 36.46887997914984 0 0 -1 0 0 0 -1 forward_v I I I I #
coedge $-1 $337 $450 $223 $329 reversed $221 $-1 #
coedge $-1 $343 $223 $224 $331 reversed $139 $-1 #
edge $-1 $344 -10.20431916528322 $451 10.20431916528322 $327 $452 forward 7 unknown #
coedge $-1 $225 $224 $450 $453 forward $89 $-1 #
edge $-1 $335 -54.294869838557084 $451 54.294869838557084 $328 $454 forward 7 unknown #
coedge $-1 $340 $339 $225 $333 reversed $325 $-1 #
edge $-1 $455 -54.294869838557084 $334 54.294869838557084 $332 $456 forward 7 unknown #
vertex $-1 $227 $457 #
vertex $-1 $346 $458 #
straight-curve $-1 54.294869838557084 0 -10.20431916528322 0 -1 0 I I #
coedge $-1 $459 $327 $228 $338 reversed $221 $-1 #
edge $-1 $341 -36.46887997914984 $344 36.46887997914984 $337 $460 forward 7 unknown #
coedge $-1 $332 $229 $234 $347 forward $325 $-1 #
coedge $-1 $229 $332 $459 $461 reversed $325 $-1 #
vertex $-1 $230 $462 #
straight-curve $-1 0 36.46887997914984 10.20431916528322 -1 0 0 I I #
coedge $-1 $231 $328 $233 $346 reversed $139 $-1 #
vertex $-1 $338 $463 #
straight-curve $-1 0 -36.46887997914984 10.20431916528322 1 0 0 I I #
edge $-1 $236 -10.20431916528322 $335 10.20431916528322 $233 $464 forward 7 unknown #
edge $-1 $237 -10.20431916528322 $334 10.20431916528322 $234 $465 forward 7 unknown #
point $-1 54.294869838557084 -36.46887997914984 10.20431916528322 #
point $-1 54.294869838557084 36.46887997914984 10.20431916528322 #
face $-1 $-1 $364 $34 $-1 $466 reversed single #
loop $-1 $-1 $360 $239 #
plane-surface $-1 0 0 -10.20431916528322 0 0 1 1 0 0 forward_v I I I I #
coedge $-1 $467 $468 $354 $469 forward $240 $-1 #
coedge $-1 $243 $242 $353 $469 reversed $93 $-1 #
coedge $-1 $360 $470 $242 $356 forward $351 $-1 #
edge $-1 $471 -64.189861139205377 $358 -54.294869838557084 $242 $472 forward 7 unknown #
edge $-1 $250 -4.9474956503241501 $473 4.947495650324143 $243 $474 forward 7 unknown #
vertex $-1 $244 $475 #
straight-curve $-1 -54.294869838557084 36.46887997914984 0 0 0 -1 I I #
coedge $-1 $476 $355 $245 $361 forward $351 $-1 #
edge $-1 $358 -36.46887997914984 $365 36.46887997914984 $360 $477 forward 7 unknown #
coedge $-1 $478 $246 $249 $368 reversed $364 $-1 #
coedge $-1 $246 $478 $476 $479 reversed $364 $-1 #
loop $-1 $-1 $246 $350 #
vertex $-1 $479 $480 #
straight-curve $-1 -54.294869838557084 -36.46887997914984 0 0 0 1 I I #
coedge $-1 $249 $248 $468 $481 forward $147 $-1 #
edge $-1 $482 -4.947495650324143 $251 4.9474956503241501 $362 $483 forward 7 unknown #
point $-1 -54.294869838557084 36.46887997914984 -7.2043191652832199 #
point $-1 -54.294869838557084 -36.46887997914984 -7.2043191652832199 #
loop $-1 $-1 $261 $253 #
plane-surface $-1 0 36.46887997914984 0 0 -1 0 0 0 -1 forward_v I I I I #
coedge $-1 $374 $256 $258 $378 reversed $155 $-1 #
coedge $-1 $256 $373 $484 $485 reversed $155 $-1 #
coedge $-1 $264 $259 $256 $376 forward $254 $-1 #
edge $-1 $379 6.5798740558491069 $486 14.684313580605167 $375 $487 forward 7 unknown #
coedge $-1 $258 $257 $382 $488 reversed $97 $-1 #
edge $-1 $489 -72.937759958299694 $379 -62.789902167030874 $373 $490 forward 7 unknown #
vertex $-1 $260 $491 #
straight-curve $-1 16.576657667722042 28.364440454393783 10.20431916528322 1 0 0 I I #
coedge $-1 $484 $261 $264 $386 reversed $371 $-1 #
coedge $-1 $261 $484 $377 $488 forward $371 $-1 #
vertex $-1 $262 $492 #
straight-curve $-1 22.54695063329045 36.46887997914984 67.357923789766858 0 0 1 I I #
straight-curve $-1 22.54695063329045 -21.781804728100603 47.992226070038711 0 0.79863550430605224 -0.6018150307709319 I I #
edge $-1 $486 -43.759680037597718 $265 -22.54695063329045 $381 $493 forward 7 unknown #
point $-1 22.54695063329045 36.46887997914984 10.20431916528322 #
point $-1 22.54695063329045 28.36444045439378 10.204319165283223 #
edge $-1 $494 1 $494 0 $268 $-1 forward 7 unknown #
vertex $-1 $269 $495 #
ellipse-curve $-1 28.607730463092516 31.30235561688815 5.6720203711949067 0 0.6018150307709319 0.79863550430605224 1.5 0 0 1 I I #
point $-1 30.107730463092516 32.41666021677181 7.1507524908274753 #
edge $-1 $496 1 $496 0 $272 $-1 forward 7 unknown #
vertex $-1 $273 $497 #
ellipse-curve $-1 37.698900207795624 31.30235561688815 5.6720203711949067 0 0.6018150307709319 0.79863550430605224 1.5 0 0 1 I I #
point $-1 39.198900207795624 32.41666021677181 7.1507524908274753 #
plane-surface $-1 0 0 10.20431916528322 0 0 1 1 0 0 forward_v I I I I #
coedge $-1 $408 $407 $400 $498 forward $277 $-1 #
coedge $-1 $400 $279 $281 $404 reversed $177 $-1 #
coedge $-1 $279 $399 $398 $498 reversed $177 $-1 #
coedge $-1 $287 $282 $279 $402 forward $288 $-1 #
edge $-1 $405 -23.711266650953345 $499 -10.537457866811721 $401 $500 forward 7 unknown #
coedge $-1 $281 $280 $408 $501 reversed $111 $-1 #
edge $-1 $502 -8.3790584163743152e-015 $405 15.534270888370344 $399 $503 forward 7 unknown #
vertex $-1 $283 $504 #
straight-curve $-1 -19.180129062408479 -23.295071195008216 10.20431916528322 -1 0 0 I I #
coedge $-1 $398 $284 $287 $412 reversed $277 $-1 #
coedge $-1 $284 $398 $403 $501 forward $277 $-1 #
vertex $-1 $285 $505 #
straight-curve $-1 -32.320637711725126 -36.46887997914984 47.030865588773658 0 0 1 I I #
straight-curve $-1 -32.320637711725126 -36.468879979149833 1.9724096570255227 0 -0.84804809178421925 -0.52991927123019833 I I #
edge $-1 $499 -44.399878537908791 $289 -32.320637711725126 $407 $506 forward 7 unknown #
point $-1 -32.320637711725126 -36.46887997914984 10.20431916528322 #
point $-1 -32.320637711725126 -23.295071195008216 10.20431916528322 #
edge $-1 $507 1 $507 0 $292 $-1 forward 7 unknown #
vertex $-1 $293 $508 #
ellipse-curve $-1 -40.948666873284886 -27.770206779499219 2.7088279330791325 0 -0.52991927123019833 0.84804809178421925 1 0 0 1 I I #
point $-1 -39.948666873284886 -29.88197558707904 6.0883644111543784 #
edge $-1 $509 1 $509 0 $296 $-1 forward 7 unknown #
vertex $-1 $297 $510 #
ellipse-curve $-1 -35.771849376349032 -27.770206779499219 2.7088279330791325 0 -0.52991927123019833 0.84804809178421925 1 0 0 1 I I #
point $-1 -34.771849376349032 -29.88197558707904 6.0883644111543784 #
loop $-1 $-1 $309 $300 #
plane-surface $-1 54.294869838557084 0 0 -1 0 0 0 0 1 forward_v I I I I #
coedge $-1 $511 $303 $308 $431 forward $199 $-1 #
coedge $-1 $303 $511 $428 $512 reversed $199 $-1 #
edge $-1 $429 36.826546423490441 $436 45.058455931748142 $303 $513 forward 7 unknown #
coedge $-1 $312 $306 $426 $512 forward $301 $-1 #
vertex $-1 $512 $514 #
straight-curve $-1 42.215629012373412 -47.006337845961561 10.204319165283223 0 -1 0 I I #
edge $-1 $436 18.08800429964079 $434 30.167245125824454 $425 $515 forward 7 unknown #
coedge $-1 $433 $309 $312 $438 reversed $423 $-1 #
coedge $-1 $309 $432 $511 $516 forward $423 $-1 #
vertex $-1 $431 $517 #
straight-curve $-1 54.294869838557084 -23.798131452656275 9.8899722223440865 0 0.84804809178421925 0.52991927123019833 I I #
vertex $-1 $431 $518 #
straight-curve $-1 42.215629012373412 -36.468879979149833 1.9724096570255227 0 0.84804809178421925 0.52991927123019833 I I #
edge $-1 $519 -36.46887997914984 $313 -23.295071195008216 $432 $520 forward 7 unknown #
point $-1 54.294869838557076 -23.295071195008216 10.20431916528322 #
point $-1 42.215629012373412 -23.295071195008216 10.20431916528322 #
edge $-1 $521 1 $521 0 $316 $-1 forward 7 unknown #
vertex $-1 $317 $522 #
ellipse-curve $-1 45.666840676997317 -27.770206779499219 2.7088279330791325 0 -0.52991927123019833 0.84804809178421925 1 0 0 1 I I #
point $-1 46.666840676997317 -29.88197558707904 6.0883644111543784 #
edge $-1 $523 1 $523 0 $320 $-1 forward 7 unknown #
vertex $-1 $321 $524 #
ellipse-curve $-1 50.843658173933171 -27.770206779499219 2.7088279330791325 0 -0.52991927123019833 0.84804809178421925 1 0 0 1 I I #
point $-1 51.843658173933171 -29.88197558707904 6.0883644111543784 #
plane-surface $-1 54.294869838557084 0 0 -1 0 0 0 0 1 forward_v I I I I #
coedge $-1 $327 $459 $330 $453 reversed $221 $-1 #
vertex $-1 $453 $525 #
straight-curve $-1 -54.294869838557084 -36.46887997914984 0 0 0 -1 I I #
edge $-1 $451 -36.46887997914984 $455 36.46887997914984 $450 $526 forward 7 unknown #
straight-curve $-1 0 -36.46887997914984 -10.20431916528322 -1 0 0 I I #
vertex $-1 $333 $527 #
straight-curve $-1 0 36.46887997914984 -10.20431916528322 1 0 0 I I #
point $-1 54.294869838557084 36.46887997914984 -10.20431916528322 #
point $-1 54.294869838557084 -36.46887997914984 -10.20431916528322 #
coedge $-1 $450 $337 $340 $461 forward $221 $-1 #
straight-curve $-1 -54.294869838557084 0 10.20431916528322 0 -1 0 I I #
edge $-1 $341 -10.20431916528322 $455 10.20431916528322 $340 $528 forward 7 unknown #
point $-1 -54.294869838557084 36.46887997914984 10.20431916528322 #
point $-1 -54.294869838557084 -36.46887997914984 10.20431916528322 #
straight-curve $-1 54.294869838557084 -36.46887997914984 0 0 0 -1 I I #
straight-curve $-1 54.294869838557084 36.46887997914984 0 0 0 -1 I I #
plane-surface $-1 0 -36.46887997914984 0 0 1 0 0 0 1 forward_v I I I I #
coedge $-1 $529 $353 $470 $530 reversed $240 $-1 #
coedge $-1 $353 $529 $367 $481 reversed $240 $-1 #
edge $-1 $473 -1.5 $471 1.5 $354 $531 forward 7 unknown #
coedge $-1 $355 $476 $467 $530 forward $351 $-1 #
vertex $-1 $356 $532 #
straight-curve $-1 0 36.46887997914984 -10.20431916528322 1 0 0 I I #
vertex $-1 $357 $533 #
straight-curve $-1 -59.242365488881234 36.46887997914984 -7.2043191652832199 -1 0 0 I I #
point $-1 -54.294869838557084 36.46887997914984 -10.20431916528322 #
coedge $-1 $470 $360 $363 $479 forward $351 $-1 #
straight-curve $-1 -54.294869838557084 0 -10.20431916528322 0 -1 0 I I #
coedge $-1 $363 $362 $529 $534 forward $364 $-1 #
edge $-1 $365 -4.9474956503241501 $535 4.947495650324143 $363 $536 forward 7 unknown #
point $-1 -54.294869838557084 -36.46887997914984 -10.20431916528322 #
edge $-1 $473 -36.46887997914984 $482 36.46887997914984 $468 $537 forward 7 unknown #
vertex $-1 $481 $538 #
straight-curve $-1 -59.242365488881234 -36.46887997914984 -7.2043191652832199 1 0 0 I I #
coedge $-1 $382 $381 $374 $485 forward $371 $-1 #
edge $-1 $486 57.153604624483634 $489 63.260737973395109 $484 $539 forward 7 unknown #
vertex $-1 $386 $540 #
straight-curve $-1 43.759680037597718 21.784566398544673 10.204319165283223 0 1 0 I I #
edge $-1 $489 -27.183022369875676 $383 -5.9702929655684081 $382 $541 forward 7 unknown #
vertex $-1 $488 $542 #
straight-curve $-1 43.759680037597718 -21.781804728100603 47.992226070038711 0 -0.79863550430605224 0.6018150307709319 I I #
point $-1 43.759680037597718 28.36444045439378 10.204319165283223 #
point $-1 22.54695063329045 36.468879979149847 4.0971858163717485 #
straight-curve $-1 0 36.46887997914984 10.20431916528322 -1 0 0 I I #
vertex $-1 $389 $543 #
point $-1 30.107730463092516 31.30235561688815 5.6720203711949067 #
vertex $-1 $393 $544 #
point $-1 39.198900207795624 31.30235561688815 5.6720203711949067 #
edge $-1 $499 36.826546423490441 $502 45.058455931748142 $398 $545 forward 7 unknown #
vertex $-1 $412 $546 #
straight-curve $-1 -44.399878537908791 -47.006337845961561 10.204319165283223 0 -1 0 I I #
edge $-1 $502 -25.219749475500311 $409 -13.140508649316647 $408 $547 forward 7 unknown #
vertex $-1 $501 $548 #
straight-curve $-1 -44.399878537908791 -36.468879979149833 1.9724096570255227 0 0.84804809178421925 0.52991927123019833 I I #
point $-1 -44.399878537908791 -23.295071195008216 10.20431916528322 #
point $-1 -32.320637711725126 -36.46887997914984 1.9724096570255183 #
straight-curve $-1 0 -36.46887997914984 10.20431916528322 1 0 0 I I #
vertex $-1 $415 $549 #
point $-1 -39.948666873284886 -27.770206779499219 2.7088279330791325 #
vertex $-1 $419 $550 #
point $-1 -34.771849376349032 -27.770206779499219 2.7088279330791325 #
coedge $-1 $426 $425 $433 $516 reversed $199 $-1 #
edge $-1 $429 42.215629012373412 $519 54.294869838557084 $426 $551 forward 7 unknown #
straight-curve $-1 42.215629012373412 -36.46887997914984 47.030865588773658 0 0 -1 I I #
point $-1 42.215629012373412 -36.46887997914984 10.20431916528322 #
straight-curve $-1 24.127624712732622 -36.46887997914984 1.9724096570255174 1 0 0 I I #
edge $-1 $519 -10.20431916528322 $434 -1.9724096570255183 $433 $552 forward 7 unknown #
point $-1 54.294869838557076 -36.46887997914984 1.9724096570255183 #
point $-1 42.215629012373412 -36.46887997914984 1.9724096570255183 #
vertex $-1 $438 $553 #
straight-curve $-1 54.294869838557084 0 10.20431916528322 0 1 0 I I #
vertex $-1 $441 $554 #
point $-1 46.666840676997317 -27.770206779499219 2.7088279330791325 #
vertex $-1 $445 $555 #
point $-1 51.843658173933171 -27.770206779499219 2.7088279330791325 #
point $-1 -54.294869838557084 -36.46887997914984 -10.20431916528322 #
straight-curve $-1 -54.294869838557084 0 -10.20431916528322 0 1 0 I I #
point $-1 -54.294869838557084 36.46887997914984 -10.20431916528322 #
straight-curve $-1 -54.294869838557084 36.46887997914984 0 0 0 -1 I I #
coedge $-1 $468 $467 $478 $534 reversed $240 $-1 #
edge $-1 $535 -36.46887997914984 $471 36.46887997914984 $467 $556 forward 7 unknown #
straight-curve $-1 -64.189861139205377 36.46887997914984 -8.7043191652832199 0 0 -1 I I #
point $-1 -64.189861139205377 36.46887997914984 -10.20431916528322 #
point $-1 -64.189861139205377 36.46887997914984 -7.2043191652832199 #
edge $-1 $482 -1.5 $535 1.5 $529 $557 forward 7 unknown #
vertex $-1 $530 $558 #
straight-curve $-1 -59.242365488881234 -36.46887997914984 -10.20431916528322 -1 0 0 I I #
straight-curve $-1 -64.189861139205377 0 -7.2043191652832199 0 -1 0 I I #
point $-1 -64.189861139205377 -36.46887997914984 -7.2043191652832199 #
straight-curve $-1 43.759680037597718 36.46887997914984 67.357923789766858 0 0 -1 I I #
point $-1 43.759680037597718 36.46887997914984 10.20431916528322 #
straight-curve $-1 16.576657667722042 36.468879979149833 4.0971858163717485 -1 0 0 I I #
point $-1 43.759680037597718 36.468879979149847 4.0971858163717485 #
point $-1 28.607730463092516 30.399633070731753 4.4740671147358286 #
point $-1 37.698900207795624 30.399633070731753 4.4740671147358286 #
straight-curve $-1 -44.399878537908791 -36.46887997914984 47.030865588773658 0 0 -1 I I #
point $-1 -44.399878537908791 -36.46887997914984 10.20431916528322 #
straight-curve $-1 -19.180129062408479 -36.46887997914984 1.9724096570255174 1 0 0 I I #
point $-1 -44.399878537908791 -36.46887997914984 1.9724096570255183 #
point $-1 -40.948666873284886 -27.24028750826902 1.860779841294913 #
point $-1 -35.771849376349032 -27.24028750826902 1.860779841294913 #
straight-curve $-1 0 -36.46887997914984 10.20431916528322 1 0 0 I I #
straight-curve $-1 54.294869838557084 -36.46887997914984 0 0 0 -1 I I #
point $-1 54.294869838557084 -36.46887997914984 10.20431916528322 #
point $-1 45.666840676997317 -27.24028750826902 1.860779841294913 #
point $-1 50.843658173933171 -27.24028750826902 1.860779841294913 #
straight-curve $-1 -64.189861139205377 0 -10.20431916528322 0 1 0 I I #
straight-curve $-1 -64.189861139205377 -36.46887997914984 -8.7043191652832199 0 0 -1 I I #
point $-1 -64.189861139205377 -36.46887997914984 -10.20431916528322 #
End-of-ACIS-data 