500 0 8 0           
7 Unknown 11 ACIS 5.0 NT 24 Thu Mar 25 18:22:17 1999 
-1 9.9999999999999995e-007 1e-010 
body $-1 $8 $-1 $9 #
body $-1 $10 $-1 $11 #
body $-1 $12 $-1 $13 #
body $-1 $14 $-1 $15 #
body $-1 $16 $-1 $17 #
body $-1 $18 $-1 $19 #
body $-1 $20 $-1 $21 #
body $-1 $22 $-1 $23 #
lump $-1 $-1 $24 $0 #
transform $-1 1 0 0 0 1 0 0 0 1 59.873653370769375 36.764180988633157 14.259457765515233 1 rotate no_reflect no_shear #
lump $-1 $-1 $25 $1 #
transform $-1 1 0 0 0 1 0 0 0 1 59.873653370769375 36.764180988633157 14.259457765515233 1 rotate no_reflect no_shear #
lump $-1 $-1 $26 $2 #
transform $-1 1 0 0 0 1 0 0 0 1 59.873653370769375 36.764180988633157 14.259457765515233 1 rotate no_reflect no_shear #
lump $-1 $-1 $27 $3 #
transform $-1 1 0 0 0 1 0 0 0 1 59.873653370769375 36.764180988633157 14.259457765515233 1 rotate no_reflect no_shear #
lump $-1 $-1 $28 $4 #
transform $-1 1 0 0 0 1 0 0 0 1 59.873653370769375 36.764180988633157 14.259457765515233 1 rotate no_reflect no_shear #
lump $-1 $-1 $29 $5 #
transform $-1 1 0 0 0 1 0 0 0 1 59.873653370769375 36.764180988633157 14.259457765515233 1 rotate no_reflect no_shear #
lump $-1 $-1 $30 $6 #
transform $-1 1 0 0 0 1 0 0 0 1 59.873653370769375 36.764180988633157 14.259457765515233 1 rotate no_reflect no_shear #
lump $-1 $-1 $31 $7 #
transform $-1 1 0 0 0 1 0 0 0 1 59.873653370769375 36.764180988633157 14.259457765515233 1 rotate no_reflect no_shear #
shell $-1 $-1 $-1 $32 $-1 $8 #
shell $-1 $-1 $-1 $33 $-1 $10 #
shell $-1 $-1 $-1 $34 $-1 $12 #
shell $-1 $-1 $-1 $35 $-1 $14 #
shell $-1 $-1 $-1 $36 $-1 $16 #
shell $-1 $-1 $-1 $37 $-1 $18 #
shell $-1 $-1 $-1 $38 $-1 $20 #
shell $-1 $-1 $-1 $39 $-1 $22 #
face $-1 $40 $41 $24 $-1 $42 forward single #
face $-1 $43 $44 $25 $-1 $45 forward single #
face $-1 $46 $47 $26 $-1 $48 reversed single #
face $-1 $49 $50 $27 $-1 $51 forward single #
face $-1 $52 $53 $28 $-1 $54 forward single #
face $-1 $55 $56 $29 $-1 $57 reversed single #
face $-1 $58 $59 $30 $-1 $60 forward single #
face $-1 $61 $62 $31 $-1 $63 forward single #
face $-1 $64 $65 $24 $-1 $66 reversed single #
loop $-1 $-1 $67 $32 #
plane-surface $-1 0 0 14.259457765515233 0 0 1 1 0 0 forward_v I I I I #
face $-1 $68 $69 $25 $-1 $70 reversed single #
loop $-1 $-1 $71 $33 #
plane-surface $-1 -59.873653370769375 0 0 1 0 0 0 0 -1 forward_v I I I I #
face $-1 $72 $73 $26 $-1 $74 reversed single #
loop $-1 $-1 $75 $34 #
plane-surface $-1 55.195645546471873 -113.73626700149211 98.698347876178673 -1 0 0 0 -0.64278761758704617 0.76604443648966558 forward_v I I I I #
face $-1 $76 $77 $27 $-1 $78 forward single #
loop $-1 $79 $80 $35 #
cone-surface $-1 45.032584225619274 -30.730366782179445 8.6011489187772412 0 0.64278761758704617 -0.76604443648966558 1.5 0 0 1 I I 0 1 1.5 forward I I I I #
face $-1 $81 $82 $28 $-1 $83 forward single #
loop $-1 $84 $85 $36 #
cone-surface $-1 51.130421018130846 -30.730366782179445 8.6011489187772412 0 0.64278761758704617 -0.76604443648966558 1.5 0 0 1 I I 0 1 1.5 forward I I I I #
face $-1 $86 $87 $29 $-1 $88 reversed single #
loop $-1 $-1 $89 $37 #
plane-surface $-1 44.314304919982952 85.857768368489232 140.71697369192393 1 0 0 0 -0.78801076186113728 -0.61566146476048833 forward_v I I I I #
face $-1 $90 $91 $30 $-1 $92 forward single #
loop $-1 $93 $94 $38 #
cone-surface $-1 48.759833048779072 34.020476160515173 11.101452659787892 0 -0.78801076186113728 -0.61566146476048833 0.5 0 0 1 I I 0 1 0.5 forward I I I I #
face $-1 $95 $96 $31 $-1 $97 forward single #
loop $-1 $98 $99 $39 #
cone-surface $-1 55.428125241973248 34.020476160515173 11.101452659787892 0 -0.78801076186113728 -0.61566146476048833 0.5 0 0 1 I I 0 1 0.5 forward I I I I #
face $-1 $100 $101 $24 $-1 $102 reversed single #
loop $-1 $-1 $103 $40 #
plane-surface $-1 0 0 -14.259457765515233 0 0 1 1 0 0 forward_v I I I I #
coedge $-1 $104 $105 $106 $107 forward $41 $-1 #
face $-1 $108 $109 $25 $-1 $110 reversed single #
loop $-1 $-1 $111 $43 #
plane-surface $-1 0 0 -14.259457765515233 0 0 1 1 0 0 forward_v I I I I #
coedge $-1 $112 $113 $114 $115 forward $44 $-1 #
face $-1 $116 $117 $26 $-1 $118 reversed single #
loop $-1 $-1 $119 $46 #
plane-surface $-1 48.081502621875046 -36.764180988633171 6.9665897622014796 0 -0.64278761758704617 0.76604443648966558 1 0 0 forward_v I I I I #
coedge $-1 $120 $121 $122 $123 reversed $47 $-1 #
face $-1 $-1 $124 $27 $-1 $125 forward single #
loop $-1 $126 $127 $49 #
cone-surface $-1 45.032584225619274 -28.560112593148233 6.0147407463288758 0 0.64278761758704617 -0.76604443648966558 0.75 0 0 1 I I -0.70710678118654757 0.70710678118654757 0.75 forward I I I I #
loop $-1 $-1 $128 $35 #
coedge $-1 $80 $80 $129 $130 reversed $50 $-1 #
face $-1 $-1 $131 $28 $-1 $132 forward single #
loop $-1 $133 $134 $52 #
cone-surface $-1 51.130421018130846 -28.560112593148233 6.0147407463288758 0 0.64278761758704617 -0.76604443648966558 0.75 0 0 1 I I -0.70710678118654757 0.70710678118654757 0.75 forward I I I I #
loop $-1 $-1 $135 $36 #
coedge $-1 $85 $85 $136 $137 reversed $53 $-1 #
face $-1 $138 $139 $29 $-1 $140 reversed single #
loop $-1 $-1 $141 $55 #
plane-surface $-1 52.093979145376153 -8.5043980477300209 66.993171422304684 0 0.78801076186113728 0.61566146476048833 1 0 0 forward_v I I I I #
coedge $-1 $142 $143 $144 $145 reversed $56 $-1 #
face $-1 $-1 $146 $30 $-1 $147 forward single #
loop $-1 $148 $149 $58 #
cone-surface $-1 48.759833048779072 33.114012473224577 10.393245629529257 0 -0.78801076186113728 -0.61566146476048833 0.25 0 0 1 I I -0.70710678118654746 0.70710678118654746 0.25 forward I I I I #
loop $-1 $-1 $150 $38 #
coedge $-1 $94 $94 $151 $152 reversed $59 $-1 #
face $-1 $-1 $153 $31 $-1 $154 forward single #
loop $-1 $155 $156 $61 #
cone-surface $-1 55.428125241973248 33.114012473224577 10.393245629529257 0 -0.78801076186113728 -0.61566146476048833 0.25 0 0 1 I I -0.70710678118654746 0.70710678118654746 0.25 forward I I I I #
loop $-1 $-1 $157 $39 #
coedge $-1 $99 $99 $158 $159 reversed $62 $-1 #
face $-1 $160 $161 $24 $-1 $162 reversed single #
loop $-1 $-1 $163 $64 #
plane-surface $-1 0 -36.764180988633157 0 0 1 0 0 0 1 forward_v I I I I #
coedge $-1 $164 $165 $166 $167 forward $65 $-1 #
coedge $-1 $168 $67 $169 $170 forward $41 $-1 #
coedge $-1 $67 $168 $171 $172 forward $41 $-1 #
coedge $-1 $173 $174 $67 $107 reversed $175 $-1 #
edge $-1 $176 -36.764180988633157 $177 36.764180988633157 $106 $178 forward 7 unknown #
face $-1 $179 $180 $25 $-1 $181 reversed single #
loop $-1 $-1 $182 $68 #
plane-surface $-1 -68.241723054257918 -34.617850232226601 0 0 1 0 0 0 1 forward_v I I I I #
coedge $-1 $183 $184 $113 $185 forward $69 $-1 #
coedge $-1 $186 $71 $187 $188 reversed $44 $-1 #
coedge $-1 $71 $186 $111 $185 reversed $44 $-1 #
coedge $-1 $189 $190 $71 $115 reversed $191 $-1 #
edge $-1 $192 -14.259457765515233 $193 14.259457765515233 $114 $194 forward 7 unknown #
face $-1 $195 $196 $26 $-1 $197 forward single #
loop $-1 $-1 $198 $72 #
plane-surface $-1 40.967359697278219 -113.73626700149211 98.698347876178673 1 0 0 0 0.64278761758704617 -0.76604443648966558 forward_v I I I I #
coedge $-1 $199 $200 $201 $202 reversed $73 $-1 #
coedge $-1 $121 $75 $203 $204 reversed $47 $-1 #
coedge $-1 $75 $120 $199 $205 reversed $47 $-1 #
coedge $-1 $201 $206 $75 $123 forward $196 $-1 #
edge $-1 $207 20.103952512112897 $208 28.795253973338454 $122 $209 forward 7 unknown #
loop $-1 $-1 $129 $76 #
plane-surface $-1 48.081502621875046 -36.764180988633171 6.9665897622014796 0 -0.64278761758704617 0.76604443648966558 1 0 0 forward_v I I I I #
loop $-1 $-1 $210 $49 #
coedge $-1 $127 $127 $128 $211 reversed $77 $-1 #
coedge $-1 $128 $128 $127 $211 forward $79 $-1 #
coedge $-1 $129 $129 $80 $130 forward $124 $-1 #
edge $-1 $212 -1.7735187182733256e-016 $212 6.2831853071796004 $129 $213 forward 7 unknown #
loop $-1 $-1 $136 $81 #
plane-surface $-1 48.081502621875046 -36.764180988633171 6.9665897622014796 0 -0.64278761758704617 0.76604443648966558 1 0 0 forward_v I I I I #
loop $-1 $-1 $214 $52 #
coedge $-1 $134 $134 $135 $215 reversed $82 $-1 #
coedge $-1 $135 $135 $134 $215 forward $84 $-1 #
coedge $-1 $136 $136 $85 $137 forward $131 $-1 #
edge $-1 $216 -1.7735187182733256e-016 $216 6.2831853071796004 $136 $217 forward 7 unknown #
face $-1 $218 $219 $29 $-1 $220 forward single #
loop $-1 $-1 $221 $86 #
plane-surface $-1 0 36.764180988633157 0 0 -1 0 0 0 -1 forward_v I I I I #
coedge $-1 $222 $223 $224 $225 reversed $87 $-1 #
coedge $-1 $143 $89 $226 $227 reversed $56 $-1 #
coedge $-1 $89 $142 $222 $228 reversed $56 $-1 #
coedge $-1 $224 $229 $89 $145 forward $219 $-1 #
edge $-1 $230 6.1647031956114589 $231 10.233190858196785 $144 $232 forward 7 unknown #
loop $-1 $-1 $151 $90 #
plane-surface $-1 52.093979145376153 -8.5043980477300209 66.993171422304684 0 0.78801076186113728 0.61566146476048833 1 0 0 forward_v I I I I #
loop $-1 $-1 $233 $58 #
coedge $-1 $149 $149 $150 $234 reversed $91 $-1 #
coedge $-1 $150 $150 $149 $234 forward $93 $-1 #
coedge $-1 $151 $151 $94 $152 forward $146 $-1 #
edge $-1 $235 -6.2998448080952497e-015 $235 6.2831853071795942 $151 $236 forward 7 unknown #
loop $-1 $-1 $158 $95 #
plane-surface $-1 52.093979145376153 -8.5043980477300209 66.993171422304684 0 0.78801076186113728 0.61566146476048833 1 0 0 forward_v I I I I #
loop $-1 $-1 $237 $61 #
coedge $-1 $156 $156 $157 $238 reversed $96 $-1 #
coedge $-1 $157 $157 $156 $238 forward $98 $-1 #
coedge $-1 $158 $158 $99 $159 forward $153 $-1 #
edge $-1 $239 -6.2998448080952497e-015 $239 6.2831853071795942 $158 $240 forward 7 unknown #
face $-1 $241 $242 $24 $-1 $243 reversed single #
loop $-1 $-1 $244 $100 #
plane-surface $-1 -59.873653370769375 0 0 1 0 0 0 0 -1 forward_v I I I I #
coedge $-1 $245 $171 $246 $247 forward $101 $-1 #
coedge $-1 $248 $103 $245 $249 forward $65 $-1 #
coedge $-1 $103 $248 $250 $251 forward $65 $-1 #
coedge $-1 $174 $173 $103 $167 reversed $175 $-1 #
edge $-1 $252 -36.764180988633157 $253 36.764180988633157 $166 $254 forward 7 unknown #
coedge $-1 $105 $104 $255 $256 forward $41 $-1 #
coedge $-1 $257 $258 $104 $170 reversed $242 $-1 #
edge $-1 $177 -59.873653370769375 $259 59.873653370769375 $169 $260 forward 7 unknown #
coedge $-1 $163 $261 $105 $172 reversed $101 $-1 #
edge $-1 $262 -59.873653370769375 $176 59.873653370769375 $171 $263 forward 7 unknown #
coedge $-1 $166 $106 $261 $264 forward $175 $-1 #
coedge $-1 $106 $166 $257 $265 reversed $175 $-1 #
loop $-1 $-1 $173 $241 #
vertex $-1 $107 $266 #
vertex $-1 $107 $267 #
straight-curve $-1 59.873653370769375 0 14.259457765515233 0 1 0 I I #
face $-1 $268 $191 $25 $-1 $269 reversed single #
loop $-1 $-1 $270 $108 #
plane-surface $-1 -76.60979273774646 -31.426824933688636 0 1 0 0 0 0 -1 forward_v I I I I #
coedge $-1 $271 $272 $273 $274 forward $109 $-1 #
coedge $-1 $275 $111 $271 $276 forward $69 $-1 #
coedge $-1 $111 $275 $189 $277 forward $69 $-1 #
edge $-1 $192 28.23579963515067 $278 34.617850232226601 $111 $279 forward 7 unknown #
coedge $-1 $113 $112 $280 $281 forward $44 $-1 #
coedge $-1 $282 $283 $112 $188 forward $284 $-1 #
edge $-1 $285 -34.617850232226601 $193 -28.23579963515067 $187 $286 forward 7 unknown #
coedge $-1 $287 $114 $184 $277 reversed $191 $-1 #
coedge $-1 $114 $287 $282 $288 reversed $191 $-1 #
loop $-1 $-1 $114 $179 #
vertex $-1 $185 $289 #
vertex $-1 $288 $290 #
straight-curve $-1 -59.873653370769375 -28.23579963515067 0 0 0 1 I I #
face $-1 $-1 $291 $26 $-1 $292 reversed single #
loop $-1 $-1 $122 $116 #
plane-surface $-1 0 0 14.259457765515233 0 0 1 1 0 0 forward_v I I I I #
coedge $-1 $293 $294 $295 $296 reversed $117 $-1 #
coedge $-1 $297 $119 $121 $205 forward $73 $-1 #
coedge $-1 $119 $297 $293 $298 forward $73 $-1 #
coedge $-1 $295 $122 $119 $202 forward $196 $-1 #
edge $-1 $208 -31.15489423553435 $299 -16.926608386340696 $201 $300 forward 7 unknown #
coedge $-1 $301 $302 $120 $204 forward $291 $-1 #
edge $-1 $303 -42.382584175887843 $207 -35.0897161725741 $203 $304 forward 7 unknown #
edge $-1 $208 -11.345688379453195 $303 -1.8307977367429951e-014 $121 $305 forward 7 unknown #
coedge $-1 $122 $295 $301 $306 forward $196 $-1 #
vertex $-1 $123 $307 #
vertex $-1 $123 $308 #
straight-curve $-1 55.195645546471873 -56.868133500746055 14.259457765515236 0 1 0 I I #
coedge $-1 $210 $210 $-1 $309 reversed $126 $-1 #
edge $-1 $310 0 $310 6.2831853071796004 $127 $311 forward 7 unknown #
vertex $-1 $130 $312 #
ellipse-curve $-1 45.032584225619274 -32.418530258020375 10.613023763858363 0 -0.64278761758704617 0.76604443648966558 1.5 0 0 1 I I #
coedge $-1 $214 $214 $-1 $313 reversed $133 $-1 #
edge $-1 $314 0 $314 6.2831853071796004 $134 $315 forward 7 unknown #
vertex $-1 $137 $316 #
ellipse-curve $-1 51.130421018130846 -32.418530258020375 10.613023763858363 0 -0.64278761758704617 0.76604443648966558 1.5 0 0 1 I I #
face $-1 $-1 $317 $29 $-1 $318 reversed single #
loop $-1 $-1 $224 $138 #
plane-surface $-1 0 0 14.259457765515233 0 0 1 1 0 0 forward_v I I I I #
coedge $-1 $226 $319 $320 $321 forward $139 $-1 #
coedge $-1 $320 $141 $143 $228 forward $87 $-1 #
coedge $-1 $141 $320 $322 $323 reversed $87 $-1 #
coedge $-1 $324 $144 $141 $225 forward $219 $-1 #
edge $-1 $231 18.267315347294875 $325 33.826663798081277 $224 $326 forward 7 unknown #
coedge $-1 $327 $221 $142 $227 forward $139 $-1 #
edge $-1 $328 -61.306455963764385 $230 -56.099029080446726 $226 $329 forward 7 unknown #
edge $-1 $231 66.920042477899742 $328 73.528361977266314 $143 $330 forward 7 unknown #
coedge $-1 $144 $324 $327 $331 forward $219 $-1 #
vertex $-1 $227 $332 #
vertex $-1 $145 $333 #
straight-curve $-1 44.314304919982952 42.928884184244616 14.259457765515236 0 -1 0 I I #
coedge $-1 $233 $233 $-1 $334 reversed $148 $-1 #
edge $-1 $335 0 $335 6.2831853071796004 $149 $336 forward 7 unknown #
vertex $-1 $152 $337 #
ellipse-curve $-1 48.759833048779072 34.729937157340494 11.655744323856412 0 0.78801076186113728 0.61566146476048833 0.5 0 0 1 I I #
coedge $-1 $237 $237 $-1 $338 reversed $155 $-1 #
edge $-1 $339 0 $339 6.2831853071796004 $156 $340 forward 7 unknown #
vertex $-1 $159 $341 #
ellipse-curve $-1 55.428125241973248 34.729937157340494 11.655744323856412 0 0.78801076186113728 0.61566146476048833 0.5 0 0 1 I I #
face $-1 $-1 $175 $24 $-1 $342 reversed single #
loop $-1 $-1 $257 $160 #
plane-surface $-1 0 36.764180988633157 0 0 -1 0 0 0 -1 forward_v I I I I #
coedge $-1 $343 $255 $258 $344 forward $161 $-1 #
coedge $-1 $261 $163 $164 $249 reversed $101 $-1 #
coedge $-1 $255 $343 $163 $247 reversed $161 $-1 #
edge $-1 $262 -14.259457765515233 $345 14.259457765515233 $246 $346 forward 7 unknown #
coedge $-1 $165 $164 $343 $347 forward $65 $-1 #
edge $-1 $253 -59.873653370769375 $345 59.873653370769375 $245 $348 forward 7 unknown #
coedge $-1 $258 $257 $165 $251 reversed $242 $-1 #
edge $-1 $349 -59.873653370769375 $252 59.873653370769375 $250 $350 forward 7 unknown #
vertex $-1 $167 $351 #
vertex $-1 $264 $352 #
straight-curve $-1 59.873653370769375 0 -14.259457765515233 0 -1 0 I I #
coedge $-1 $244 $246 $168 $256 reversed $161 $-1 #
edge $-1 $259 -36.764180988633157 $262 36.764180988633157 $255 $353 forward 7 unknown #
coedge $-1 $250 $169 $174 $265 forward $242 $-1 #
coedge $-1 $169 $250 $244 $344 reversed $242 $-1 #
vertex $-1 $170 $354 #
straight-curve $-1 0 36.764180988633157 14.259457765515233 -1 0 0 I I #
coedge $-1 $171 $245 $173 $264 reversed $101 $-1 #
vertex $-1 $256 $355 #
straight-curve $-1 0 -36.764180988633157 14.259457765515233 1 0 0 I I #
edge $-1 $176 -14.259457765515233 $253 14.259457765515233 $173 $356 forward 7 unknown #
edge $-1 $177 -14.259457765515233 $252 14.259457765515233 $174 $357 forward 7 unknown #
point $-1 59.873653370769375 -36.764180988633157 14.259457765515233 #
point $-1 59.873653370769375 36.764180988633157 14.259457765515233 #
face $-1 $-1 $284 $25 $-1 $358 forward single #
plane-surface $-1 -68.241723054257918 -28.23579963515067 0 0 -1 0 0 0 -1 forward_v I I I I #
coedge $-1 $359 $360 $287 $361 forward $180 $-1 #
coedge $-1 $280 $182 $183 $276 reversed $109 $-1 #
coedge $-1 $182 $280 $283 $362 reversed $109 $-1 #
coedge $-1 $360 $359 $182 $274 reversed $180 $-1 #
edge $-1 $363 -14.259457765515233 $364 14.259457765515233 $273 $365 forward 7 unknown #
coedge $-1 $184 $183 $359 $366 forward $69 $-1 #
edge $-1 $278 -8.3680696834885424 $364 8.3680696834885424 $271 $367 forward 7 unknown #
edge $-1 $368 -8.3680696834885424 $192 8.3680696834885424 $189 $369 forward 7 unknown #
vertex $-1 $276 $370 #
straight-curve $-1 -59.873653370769375 0 -14.259457765515233 0 -1 0 I I #
coedge $-1 $272 $271 $186 $281 reversed $109 $-1 #
edge $-1 $285 -14.259457765515233 $278 14.259457765515233 $280 $371 forward 7 unknown #
coedge $-1 $372 $187 $190 $288 forward $284 $-1 #
coedge $-1 $187 $372 $272 $362 forward $284 $-1 #
loop $-1 $-1 $187 $268 #
vertex $-1 $188 $373 #
straight-curve $-1 -59.873653370769375 0 14.259457765515233 0 1 0 I I #
coedge $-1 $190 $189 $270 $361 reversed $191 $-1 #
edge $-1 $193 -8.3680696834885424 $374 8.3680696834885424 $190 $375 forward 7 unknown #
point $-1 -59.873653370769375 -28.23579963515067 -14.259457765515233 #
point $-1 -59.873653370769375 -28.23579963515067 14.259457765515233 #
loop $-1 $-1 $203 $195 #
plane-surface $-1 0 -36.764180988633157 0 0 1 0 0 0 1 forward_v I I I I #
coedge $-1 $294 $198 $200 $298 reversed $117 $-1 #
coedge $-1 $198 $293 $376 $377 reversed $117 $-1 #
coedge $-1 $206 $201 $198 $296 forward $196 $-1 #
edge $-1 $299 -28.795253973338454 $378 -20.103952512112897 $295 $379 forward 7 unknown #
coedge $-1 $200 $199 $302 $380 reversed $73 $-1 #
edge $-1 $381 1.8307977367429951e-014 $299 11.345688379453195 $293 $382 forward 7 unknown #
vertex $-1 $202 $383 #
straight-curve $-1 24.040751310937523 -28.072879527407601 14.259457765515233 -1 0 0 I I #
coedge $-1 $376 $203 $206 $306 reversed $291 $-1 #
coedge $-1 $203 $376 $297 $380 forward $291 $-1 #
vertex $-1 $204 $384 #
straight-curve $-1 55.195645546471873 -36.764180988633157 49.349173938089336 0 0 1 I I #
straight-curve $-1 55.195645546471873 -36.764180988633171 6.9665897622014796 0 -0.76604443648966558 -0.64278761758704617 I I #
edge $-1 $378 40.967359697278219 $207 55.195645546471873 $301 $385 forward 7 unknown #
point $-1 55.195645546471873 -36.764180988633157 14.259457765515233 #
point $-1 55.195645546471873 -28.072879527407601 14.259457765515233 #
edge $-1 $386 1 $386 0 $210 $-1 forward 7 unknown #
vertex $-1 $211 $387 #
ellipse-curve $-1 45.032584225619274 -29.042203306338518 6.5892740736961253 0 -0.64278761758704617 0.76604443648966558 1.5 0 0 1 I I #
point $-1 46.532584225619274 -32.418530258020368 10.613023763858354 #
edge $-1 $388 1 $388 0 $214 $-1 forward 7 unknown #
vertex $-1 $215 $389 #
ellipse-curve $-1 51.130421018130846 -29.042203306338518 6.5892740736961253 0 -0.64278761758704617 0.76604443648966558 1.5 0 0 1 I I #
point $-1 52.630421018130846 -32.418530258020368 10.613023763858354 #
loop $-1 $-1 $322 $218 #
plane-surface $-1 59.873653370769375 0 0 -1 0 0 0 0 1 forward_v I I I I #
coedge $-1 $221 $327 $390 $391 forward $139 $-1 #
coedge $-1 $223 $222 $221 $321 reversed $87 $-1 #
edge $-1 $392 -33.826663798081277 $328 -18.267315347294875 $221 $393 forward 7 unknown #
coedge $-1 $390 $394 $223 $323 forward $317 $-1 #
edge $-1 $325 37.906457372421855 $392 44.514776871788428 $322 $395 forward 7 unknown #
coedge $-1 $229 $224 $394 $396 forward $219 $-1 #
vertex $-1 $396 $397 #
straight-curve $-1 26.046989572688076 32.695693326047831 14.259457765515236 1 0 0 I I #
coedge $-1 $319 $226 $229 $331 reversed $139 $-1 #
vertex $-1 $227 $398 #
straight-curve $-1 44.314304919982952 36.764180988633157 70.358486845961963 0 0 1 I I #
straight-curve $-1 44.314304919982952 -8.5043980477300209 66.993171422304684 0 0.61566146476048833 -0.78801076186113728 I I #
edge $-1 $399 -59.873653370769375 $230 -44.314304919982952 $327 $400 forward 7 unknown #
point $-1 44.314304919982952 36.764180988633157 14.259457765515233 #
point $-1 44.314304919982952 32.695693326047831 14.259457765515236 #
edge $-1 $401 1 $401 0 $233 $-1 forward 7 unknown #
vertex $-1 $234 $402 #
ellipse-curve $-1 48.759833048779072 33.311015163689859 10.547160995719379 0 0.78801076186113728 0.61566146476048833 0.5 0 0 1 I I #
point $-1 49.259833048779072 34.72993715734048 11.655744323856405 #
edge $-1 $403 1 $403 0 $237 $-1 forward 7 unknown #
vertex $-1 $238 $404 #
ellipse-curve $-1 55.428125241973248 33.311015163689859 10.547160995719379 0 0.78801076186113728 0.61566146476048833 0.5 0 0 1 I I #
point $-1 55.928125241973248 34.72993715734048 11.655744323856405 #
plane-surface $-1 59.873653370769375 0 0 -1 0 0 0 0 1 forward_v I I I I #
coedge $-1 $246 $244 $248 $347 reversed $161 $-1 #
edge $-1 $259 -14.259457765515233 $349 14.259457765515233 $258 $405 forward 7 unknown #
vertex $-1 $347 $406 #
straight-curve $-1 -59.873653370769375 -36.764180988633157 0 0 0 -1 I I #
edge $-1 $345 -36.764180988633157 $349 36.764180988633157 $343 $407 forward 7 unknown #
straight-curve $-1 0 -36.764180988633157 -14.259457765515233 -1 0 0 I I #
vertex $-1 $251 $408 #
straight-curve $-1 0 36.764180988633157 -14.259457765515233 1 0 0 I I #
point $-1 59.873653370769375 36.764180988633157 -14.259457765515233 #
point $-1 59.873653370769375 -36.764180988633157 -14.259457765515233 #
straight-curve $-1 -59.873653370769375 0 14.259457765515233 0 -1 0 I I #
point $-1 -59.873653370769375 36.764180988633157 14.259457765515233 #
point $-1 -59.873653370769375 -36.764180988633157 14.259457765515233 #
straight-curve $-1 59.873653370769375 -36.764180988633157 0 0 0 -1 I I #
straight-curve $-1 59.873653370769375 36.764180988633157 0 0 0 -1 I I #
plane-surface $-1 0 0 14.259457765515233 0 0 1 1 0 0 forward_v I I I I #
coedge $-1 $273 $270 $275 $366 reversed $180 $-1 #
coedge $-1 $270 $273 $372 $409 reversed $180 $-1 #
edge $-1 $374 -14.259457765515233 $368 14.259457765515233 $287 $410 forward 7 unknown #
edge $-1 $363 -8.3680696834885424 $285 8.3680696834885424 $272 $411 forward 7 unknown #
vertex $-1 $409 $412 #
vertex $-1 $366 $413 #
straight-curve $-1 -76.60979273774646 -34.617850232226601 0 0 0 -1 I I #
edge $-1 $364 -3.1910252985379657 $368 3.1910252985379657 $359 $414 forward 7 unknown #
straight-curve $-1 -68.241723054257918 -34.617850232226601 -14.259457765515233 -1 0 0 I I #
vertex $-1 $277 $415 #
straight-curve $-1 -68.241723054257918 -28.23579963515067 -14.259457765515233 1 0 0 I I #
point $-1 -59.873653370769375 -34.617850232226601 -14.259457765515233 #
straight-curve $-1 -59.873653370769375 -34.617850232226601 0 0 0 -1 I I #
coedge $-1 $283 $282 $360 $409 forward $284 $-1 #
point $-1 -59.873653370769375 -34.617850232226601 14.259457765515233 #
vertex $-1 $288 $416 #
straight-curve $-1 -68.241723054257918 -28.23579963515067 14.259457765515233 -1 0 0 I I #
coedge $-1 $302 $301 $294 $377 forward $291 $-1 #
edge $-1 $378 35.0897161725741 $381 42.382584175887843 $376 $417 forward 7 unknown #
vertex $-1 $306 $418 #
straight-curve $-1 40.967359697278219 -56.868133500746055 14.259457765515236 0 -1 0 I I #
edge $-1 $381 16.926608386340696 $303 31.15489423553435 $302 $419 forward 7 unknown #
vertex $-1 $380 $420 #
straight-curve $-1 40.967359697278219 -36.764180988633171 6.9665897622014796 0 0.76604443648966558 0.64278761758704617 I I #
point $-1 40.967359697278219 -28.072879527407601 14.259457765515233 #
point $-1 55.195645546471873 -36.764180988633157 6.9665897622014912 #
straight-curve $-1 0 -36.764180988633157 14.259457765515233 1 0 0 I I #
vertex $-1 $309 $421 #
point $-1 46.532584225619274 -29.042203306338518 6.5892740736961253 #
vertex $-1 $313 $422 #
point $-1 52.630421018130846 -29.042203306338518 6.5892740736961253 #
coedge $-1 $394 $322 $319 $391 reversed $317 $-1 #
edge $-1 $399 -14.259457765515233 $392 -9.0520308821975775 $390 $423 forward 7 unknown #
vertex $-1 $323 $424 #
straight-curve $-1 26.046989572688076 36.764180988633157 9.0520308821975703 -1 0 0 I I #
coedge $-1 $322 $390 $324 $396 reversed $317 $-1 #
straight-curve $-1 59.873653370769375 9.3581482562615861 44.130154119014108 0 0.61566146476048833 -0.78801076186113728 I I #
edge $-1 $325 32.695693326047831 $399 36.764180988633157 $394 $425 forward 7 unknown #
point $-1 59.873653370769354 32.695693326047831 14.259457765515236 #
point $-1 44.314304919982952 36.764180988633157 9.0520308821975775 #
vertex $-1 $396 $426 #
straight-curve $-1 0 36.764180988633157 14.259457765515233 -1 0 0 I I #
vertex $-1 $334 $427 #
point $-1 49.259833048779072 33.311015163689859 10.547160995719379 #
vertex $-1 $338 $428 #
point $-1 55.928125241973248 33.311015163689859 10.547160995719379 #
straight-curve $-1 -59.873653370769375 36.764180988633157 0 0 0 -1 I I #
point $-1 -59.873653370769375 -36.764180988633157 -14.259457765515233 #
straight-curve $-1 -59.873653370769375 0 -14.259457765515233 0 1 0 I I #
point $-1 -59.873653370769375 36.764180988633157 -14.259457765515233 #
edge $-1 $374 -3.1910252985379657 $363 3.1910252985379657 $360 $429 forward 7 unknown #
straight-curve $-1 -76.60979273774646 -28.23579963515067 0 0 0 -1 I I #
straight-curve $-1 -68.241723054257918 -34.617850232226601 14.259457765515233 1 0 0 I I #
point $-1 -76.60979273774646 -34.617850232226601 14.259457765515233 #
point $-1 -76.60979273774646 -34.617850232226601 -14.259457765515233 #
straight-curve $-1 -76.60979273774646 -31.426824933688636 -14.259457765515233 0 1 0 I I #
point $-1 -76.60979273774646 -28.23579963515067 -14.259457765515233 #
point $-1 -76.60979273774646 -28.23579963515067 14.259457765515233 #
straight-curve $-1 40.967359697278219 -36.764180988633157 49.349173938089336 0 0 -1 I I #
point $-1 40.967359697278219 -36.764180988633157 14.259457765515233 #
straight-curve $-1 24.040751310937523 -36.764180988633157 6.9665897622014912 1 0 0 I I #
point $-1 40.967359697278219 -36.764180988633157 6.9665897622014912 #
point $-1 45.032584225619274 -28.078021879957948 5.4402074189616263 #
point $-1 51.130421018130846 -28.078021879957948 5.4402074189616263 #
straight-curve $-1 59.873653370769375 36.764180988633157 0 0 0 -1 I I #
point $-1 59.873653370769354 36.764180988633157 9.0520308821975775 #
straight-curve $-1 59.873653370769375 0 14.259457765515233 0 1 0 I I #
point $-1 59.873653370769375 36.764180988633157 14.259457765515233 #
point $-1 48.759833048779072 32.917009782759294 10.239330263339136 #
point $-1 55.428125241973248 32.917009782759294 10.239330263339136 #
straight-curve $-1 -76.60979273774646 -31.426824933688636 14.259457765515233 0 -1 0 I I #
End-of-ACIS-data 