500 0 3 0           
7 Unknown 11 ACIS 5.0 NT 24 Fri Mar 26 20:06:10 1999 
-1 9.9999999999999995e-007 1e-010 
body $-1 $3 $-1 $4 #
body $-1 $5 $-1 $6 #
body $-1 $7 $-1 $8 #
lump $-1 $-1 $9 $0 #
transform $-1 1 0 0 0 1 0 0 0 1 77.188634907071133 46.046282163915791 17.091522166161866 1 rotate no_reflect no_shear #
lump $-1 $-1 $10 $1 #
transform $-1 1 0 0 0 1 0 0 0 1 77.188634907071133 46.046282163915791 17.091522166161866 1 rotate no_reflect no_shear #
lump $-1 $-1 $11 $2 #
transform $-1 1 0 0 0 1 0 0 0 1 77.188634907071133 46.046282163915791 17.091522166161866 1 rotate no_reflect no_shear #
shell $-1 $-1 $-1 $12 $-1 $3 #
shell $-1 $-1 $-1 $13 $-1 $5 #
shell $-1 $-1 $-1 $14 $-1 $7 #
face $-1 $15 $16 $9 $-1 $17 reversed single #
face $-1 $18 $19 $10 $-1 $20 reversed single #
face $-1 $21 $22 $11 $-1 $23 forward single #
face $-1 $24 $25 $9 $-1 $26 forward single #
loop $-1 $-1 $27 $12 #
plane-surface $-1 0 46.046282163915791 0 0 -1 0 0 0 -1 forward_v I I I I #
face $-1 $28 $29 $10 $-1 $30 reversed single #
loop $-1 $-1 $31 $13 #
plane-surface $-1 -60.941159553755284 -37.710343026895231 0 1 0 0 0 0 -1 forward_v I I I I #
face $-1 $32 $33 $11 $-1 $34 reversed single #
loop $-1 $-1 $35 $14 #
plane-surface $-1 0 46.046282163915791 0 0 -1 0 0 0 -1 forward_v I I I I #
face $-1 $36 $37 $9 $-1 $38 reversed single #
loop $-1 $-1 $39 $15 #
plane-surface $-1 0 0 17.091522166161866 0 0 1 1 0 0 forward_v I I I I #
coedge $-1 $40 $41 $42 $43 reversed $16 $-1 #
face $-1 $44 $45 $10 $-1 $46 reversed single #
loop $-1 $-1 $47 $18 #
plane-surface $-1 -56.676859460215347 -29.374403889874671 0 0 -1 0 0 0 -1 forward_v I I I I #
coedge $-1 $48 $49 $50 $51 forward $19 $-1 #
face $-1 $52 $53 $11 $-1 $54 reversed single #
loop $-1 $-1 $55 $21 #
plane-surface $-1 0 0 -17.091522166161866 0 0 1 1 0 0 forward_v I I I I #
coedge $-1 $56 $57 $58 $59 forward $22 $-1 #
face $-1 $60 $61 $9 $-1 $62 reversed single #
loop $-1 $-1 $63 $24 #
plane-surface $-1 0 0 -17.091522166161866 0 0 1 1 0 0 forward_v I I I I #
coedge $-1 $64 $65 $66 $67 forward $25 $-1 #
coedge $-1 $68 $27 $69 $70 reversed $16 $-1 #
coedge $-1 $27 $68 $71 $72 forward $16 $-1 #
coedge $-1 $63 $73 $27 $43 forward $37 $-1 #
edge $-1 $74 -77.188634907071133 $75 77.188634907071133 $27 $76 forward 7 unknown #
face $-1 $77 $78 $10 $-1 $79 forward single #
loop $-1 $-1 $80 $28 #
plane-surface $-1 -52.41255936667541 -37.710343026895231 0 -1 0 0 0 0 1 forward_v I I I I #
coedge $-1 $81 $82 $83 $84 forward $29 $-1 #
coedge $-1 $85 $31 $86 $87 reversed $19 $-1 #
coedge $-1 $31 $85 $88 $89 reversed $19 $-1 #
coedge $-1 $82 $81 $31 $51 reversed $29 $-1 #
edge $-1 $90 -17.091522166161866 $91 17.091522166161866 $50 $92 forward 7 unknown #
face $-1 $93 $94 $11 $-1 $95 reversed single #
loop $-1 $-1 $96 $32 #
plane-surface $-1 -58.247209695642312 53.279552883662177 0 1 0 0 0 0 -1 forward_v I I I I #
coedge $-1 $97 $98 $57 $99 forward $33 $-1 #
coedge $-1 $100 $35 $101 $102 reversed $22 $-1 #
coedge $-1 $35 $100 $55 $99 reversed $22 $-1 #
coedge $-1 $103 $104 $35 $59 reversed $105 $-1 #
edge $-1 $106 -17.091522166161866 $107 17.091522166161866 $58 $108 forward 7 unknown #
face $-1 $109 $110 $9 $-1 $111 reversed single #
loop $-1 $-1 $112 $36 #
plane-surface $-1 0 -46.046282163915791 0 0 1 0 0 0 1 forward_v I I I I #
coedge $-1 $113 $42 $114 $115 forward $37 $-1 #
coedge $-1 $116 $39 $68 $117 forward $25 $-1 #
coedge $-1 $39 $116 $118 $119 forward $25 $-1 #
coedge $-1 $120 $71 $39 $67 reversed $121 $-1 #
edge $-1 $122 -46.046282163915791 $123 46.046282163915791 $66 $124 forward 7 unknown #
coedge $-1 $41 $40 $64 $117 reversed $16 $-1 #
coedge $-1 $125 $126 $40 $70 forward $110 $-1 #
edge $-1 $127 -17.091522166161866 $74 17.091522166161866 $40 $128 forward 7 unknown #
coedge $-1 $66 $114 $41 $72 reversed $121 $-1 #
edge $-1 $123 -17.091522166161866 $75 17.091522166161866 $71 $129 forward 7 unknown #
coedge $-1 $42 $113 $125 $130 forward $37 $-1 #
vertex $-1 $43 $131 #
vertex $-1 $115 $132 #
straight-curve $-1 0 46.046282163915791 -17.091522166161866 1 0 0 I I #
face $-1 $133 $134 $10 $-1 $135 reversed single #
loop $-1 $-1 $136 $44 #
plane-surface $-1 0 0 17.091522166161866 0 0 1 1 0 0 forward_v I I I I #
coedge $-1 $137 $138 $139 $140 reversed $45 $-1 #
coedge $-1 $50 $47 $141 $142 reversed $29 $-1 #
coedge $-1 $47 $50 $143 $144 reversed $29 $-1 #
coedge $-1 $138 $137 $47 $84 reversed $45 $-1 #
edge $-1 $145 -17.091522166161866 $146 17.091522166161866 $83 $147 forward 7 unknown #
coedge $-1 $49 $48 $148 $149 reversed $19 $-1 #
coedge $-1 $141 $150 $48 $87 forward $134 $-1 #
edge $-1 $151 -27.191110650468175 $91 -10.519232376427055 $86 $152 forward 7 unknown #
coedge $-1 $153 $143 $49 $89 forward $78 $-1 #
edge $-1 $90 10.519232376427055 $154 27.191110650468175 $88 $155 forward 7 unknown #
vertex $-1 $89 $156 #
vertex $-1 $87 $157 #
straight-curve $-1 -60.941159553755284 -29.374403889874671 0 0 0 -1 I I #
face $-1 $158 $105 $11 $-1 $159 reversed single #
loop $-1 $-1 $160 $52 #
plane-surface $-1 -54.218780640755242 60.512823603408563 0 0 -1 0 0 0 -1 forward_v I I I I #
coedge $-1 $161 $162 $163 $164 forward $53 $-1 #
coedge $-1 $165 $55 $161 $166 forward $33 $-1 #
coedge $-1 $55 $165 $103 $167 forward $33 $-1 #
edge $-1 $106 50.190351585868171 $168 58.247209695642312 $55 $169 forward 7 unknown #
coedge $-1 $57 $56 $170 $171 forward $22 $-1 #
coedge $-1 $172 $173 $56 $102 forward $174 $-1 #
edge $-1 $175 -58.247209695642312 $107 -50.190351585868171 $101 $176 forward 7 unknown #
coedge $-1 $177 $58 $98 $167 reversed $105 $-1 #
coedge $-1 $58 $177 $172 $178 reversed $105 $-1 #
loop $-1 $-1 $58 $93 #
vertex $-1 $99 $179 #
vertex $-1 $178 $180 #
straight-curve $-1 -50.190351585868171 46.046282163915791 0 0 0 1 I I #
face $-1 $-1 $121 $9 $-1 $181 reversed single #
loop $-1 $-1 $69 $60 #
plane-surface $-1 -77.188634907071133 0 0 1 0 0 0 0 -1 forward_v I I I I #
coedge $-1 $182 $118 $183 $184 forward $61 $-1 #
coedge $-1 $73 $63 $182 $185 forward $37 $-1 #
coedge $-1 $71 $120 $63 $115 reversed $121 $-1 #
edge $-1 $75 -46.046282163915791 $186 46.046282163915791 $114 $187 forward 7 unknown #
coedge $-1 $65 $64 $126 $188 forward $25 $-1 #
edge $-1 $123 -77.188634907071133 $127 77.188634907071133 $68 $189 forward 7 unknown #
coedge $-1 $112 $190 $65 $119 reversed $61 $-1 #
edge $-1 $191 -77.188634907071133 $122 77.188634907071133 $118 $192 forward 7 unknown #
coedge $-1 $114 $66 $190 $193 forward $121 $-1 #
loop $-1 $-1 $120 $109 #
vertex $-1 $67 $194 #
vertex $-1 $67 $195 #
straight-curve $-1 77.188634907071133 0 17.091522166161866 0 1 0 I I #
coedge $-1 $183 $69 $73 $130 reversed $110 $-1 #
coedge $-1 $69 $183 $116 $188 reversed $110 $-1 #
vertex $-1 $117 $196 #
straight-curve $-1 -77.188634907071133 46.046282163915791 0 0 0 -1 I I #
straight-curve $-1 77.188634907071133 46.046282163915791 0 0 0 -1 I I #
edge $-1 $197 -46.046282163915791 $74 46.046282163915791 $125 $198 forward 7 unknown #
point $-1 -77.188634907071133 46.046282163915791 -17.091522166161866 #
point $-1 77.188634907071133 46.046282163915791 -17.091522166161866 #
face $-1 $-1 $199 $10 $-1 $200 reversed single #
loop $-1 $-1 $201 $77 #
plane-surface $-1 0 0 -17.091522166161866 0 0 1 1 0 0 forward_v I I I I #
coedge $-1 $143 $153 $138 $202 forward $78 $-1 #
coedge $-1 $83 $80 $201 $203 reversed $45 $-1 #
coedge $-1 $80 $83 $136 $202 reversed $45 $-1 #
coedge $-1 $204 $205 $80 $140 forward $199 $-1 #
edge $-1 $206 -17.091522166161866 $207 17.091522166161866 $139 $208 forward 7 unknown #
coedge $-1 $201 $86 $81 $142 forward $134 $-1 #
edge $-1 $91 -32.602729823647607 $146 -24.074129636567736 $141 $209 forward 7 unknown #
coedge $-1 $88 $136 $82 $144 forward $78 $-1 #
edge $-1 $145 24.074129636567736 $90 32.602729823647607 $143 $210 forward 7 unknown #
vertex $-1 $144 $211 #
vertex $-1 $142 $212 #
straight-curve $-1 -52.41255936667541 -29.374403889874671 0 0 0 -1 I I #
coedge $-1 $205 $204 $85 $149 forward $199 $-1 #
edge $-1 $154 -17.091522166161866 $151 17.091522166161866 $148 $213 forward 7 unknown #
coedge $-1 $86 $201 $205 $214 forward $134 $-1 #
vertex $-1 $87 $215 #
straight-curve $-1 -60.941159553755284 -18.855171513447615 -17.091522166161866 0 1 0 I I #
coedge $-1 $136 $88 $204 $216 forward $78 $-1 #
vertex $-1 $216 $217 #
straight-curve $-1 -60.941159553755284 -18.855171513447615 17.091522166161866 0 -1 0 I I #
point $-1 -60.941159553755284 -29.374403889874671 17.091522166161866 #
point $-1 -60.941159553755284 -29.374403889874671 -17.091522166161866 #
face $-1 $-1 $174 $11 $-1 $218 forward single #
plane-surface $-1 -50.190351585868171 53.279552883662177 0 -1 0 0 0 0 1 forward_v I I I I #
coedge $-1 $219 $220 $177 $221 forward $94 $-1 #
coedge $-1 $170 $96 $97 $166 reversed $53 $-1 #
coedge $-1 $96 $170 $173 $222 reversed $53 $-1 #
coedge $-1 $220 $219 $96 $164 reversed $94 $-1 #
edge $-1 $223 -17.091522166161866 $224 17.091522166161866 $163 $225 forward 7 unknown #
coedge $-1 $98 $97 $219 $226 forward $33 $-1 #
edge $-1 $168 -7.2332707197463861 $224 7.2332707197463861 $161 $227 forward 7 unknown #
edge $-1 $228 -7.2332707197463861 $106 7.2332707197463861 $103 $229 forward 7 unknown #
vertex $-1 $166 $230 #
straight-curve $-1 0 46.046282163915791 -17.091522166161866 -1 0 0 I I #
coedge $-1 $162 $161 $100 $171 reversed $53 $-1 #
edge $-1 $175 -17.091522166161866 $168 17.091522166161866 $170 $231 forward 7 unknown #
coedge $-1 $232 $101 $104 $178 forward $174 $-1 #
coedge $-1 $101 $232 $162 $222 forward $174 $-1 #
loop $-1 $-1 $101 $158 #
vertex $-1 $102 $233 #
straight-curve $-1 0 46.046282163915791 17.091522166161866 1 0 0 I I #
coedge $-1 $104 $103 $160 $221 reversed $105 $-1 #
edge $-1 $107 -7.2332707197463861 $234 7.2332707197463861 $104 $235 forward 7 unknown #
point $-1 -50.190351585868171 46.046282163915791 -17.091522166161866 #
point $-1 -50.190351585868171 46.046282163915791 17.091522166161866 #
plane-surface $-1 77.188634907071133 0 0 -1 0 0 0 0 1 forward_v I I I I #
coedge $-1 $190 $112 $113 $185 reversed $61 $-1 #
coedge $-1 $126 $125 $112 $184 reversed $110 $-1 #
edge $-1 $191 -17.091522166161866 $197 17.091522166161866 $183 $236 forward 7 unknown #
edge $-1 $186 -77.188634907071133 $197 77.188634907071133 $182 $237 forward 7 unknown #
vertex $-1 $193 $238 #
straight-curve $-1 77.188634907071133 0 -17.091522166161866 0 -1 0 I I #
edge $-1 $127 -46.046282163915791 $191 46.046282163915791 $126 $239 forward 7 unknown #
straight-curve $-1 0 46.046282163915791 17.091522166161866 -1 0 0 I I #
coedge $-1 $118 $182 $120 $193 reversed $61 $-1 #
vertex $-1 $188 $240 #
straight-curve $-1 0 -46.046282163915791 17.091522166161866 1 0 0 I I #
edge $-1 $122 -17.091522166161866 $186 17.091522166161866 $120 $241 forward 7 unknown #
point $-1 77.188634907071133 -46.046282163915791 17.091522166161866 #
point $-1 77.188634907071133 46.046282163915791 17.091522166161866 #
point $-1 -77.188634907071133 46.046282163915791 17.091522166161866 #
vertex $-1 $130 $242 #
straight-curve $-1 -77.188634907071133 0 -17.091522166161866 0 1 0 I I #
loop $-1 $-1 $139 $133 #
plane-surface $-1 0 -46.046282163915791 0 0 1 0 0 0 1 forward_v I I I I #
coedge $-1 $150 $141 $137 $203 forward $134 $-1 #
edge $-1 $207 -27.191110650468175 $145 -10.519232376427055 $136 $243 forward 7 unknown #
edge $-1 $146 10.519232376427055 $206 27.191110650468175 $201 $244 forward 7 unknown #
coedge $-1 $148 $139 $153 $216 reversed $199 $-1 #
coedge $-1 $139 $148 $150 $214 reversed $199 $-1 #
vertex $-1 $214 $245 #
vertex $-1 $140 $246 #
straight-curve $-1 -52.41255936667541 -46.046282163915791 0 0 0 1 I I #
straight-curve $-1 -28.338429730107674 -29.374403889874671 -17.091522166161866 1 0 0 I I #
straight-curve $-1 -28.338429730107674 -29.374403889874671 17.091522166161866 -1 0 0 I I #
point $-1 -52.41255936667541 -29.374403889874671 17.091522166161866 #
point $-1 -52.41255936667541 -29.374403889874671 -17.091522166161866 #
straight-curve $-1 -60.941159553755284 -46.046282163915791 0 0 0 -1 I I #
edge $-1 $206 52.41255936667541 $151 60.941159553755284 $205 $247 forward 7 unknown #
point $-1 -60.941159553755284 -46.046282163915791 -17.091522166161866 #
edge $-1 $154 -60.941159553755284 $207 -52.41255936667541 $204 $248 forward 7 unknown #
point $-1 -60.941159553755284 -46.046282163915791 17.091522166161866 #
plane-surface $-1 0 0 17.091522166161866 0 0 1 1 0 0 forward_v I I I I #
coedge $-1 $163 $160 $165 $226 reversed $94 $-1 #
coedge $-1 $160 $163 $232 $249 reversed $94 $-1 #
edge $-1 $234 -17.091522166161866 $228 17.091522166161866 $177 $250 forward 7 unknown #
edge $-1 $223 -7.2332707197463861 $175 7.2332707197463861 $162 $251 forward 7 unknown #
vertex $-1 $249 $252 #
vertex $-1 $226 $253 #
straight-curve $-1 -58.247209695642312 60.512823603408563 0 0 0 -1 I I #
edge $-1 $224 -4.02842905488707 $228 4.02842905488707 $219 $254 forward 7 unknown #
straight-curve $-1 -58.247209695642312 53.279552883662177 -17.091522166161866 0 1 0 I I #
vertex $-1 $167 $255 #
straight-curve $-1 -50.190351585868171 53.279552883662177 -17.091522166161866 0 -1 0 I I #
point $-1 -58.247209695642312 46.046282163915791 -17.091522166161866 #
straight-curve $-1 -58.247209695642312 46.046282163915791 0 0 0 -1 I I #
coedge $-1 $173 $172 $220 $249 forward $174 $-1 #
point $-1 -58.247209695642312 46.046282163915791 17.091522166161866 #
vertex $-1 $178 $256 #
straight-curve $-1 -50.190351585868171 53.279552883662177 17.091522166161866 0 1 0 I I #
straight-curve $-1 -77.188634907071133 -46.046282163915791 0 0 0 -1 I I #
straight-curve $-1 0 -46.046282163915791 -17.091522166161866 -1 0 0 I I #
point $-1 77.188634907071133 -46.046282163915791 -17.091522166161866 #
straight-curve $-1 -77.188634907071133 0 17.091522166161866 0 -1 0 I I #
point $-1 -77.188634907071133 -46.046282163915791 17.091522166161866 #
straight-curve $-1 77.188634907071133 -46.046282163915791 0 0 0 -1 I I #
point $-1 -77.188634907071133 -46.046282163915791 -17.091522166161866 #
straight-curve $-1 -52.41255936667541 -18.855171513447615 17.091522166161866 0 1 0 I I #
straight-curve $-1 -52.41255936667541 -18.855171513447615 -17.091522166161866 0 -1 0 I I #
point $-1 -52.41255936667541 -46.046282163915791 -17.091522166161866 #
point $-1 -52.41255936667541 -46.046282163915791 17.091522166161866 #
straight-curve $-1 0 -46.046282163915791 -17.091522166161866 -1 0 0 I I #
straight-curve $-1 0 -46.046282163915791 17.091522166161866 1 0 0 I I #
edge $-1 $234 -4.02842905488707 $223 4.02842905488707 $220 $257 forward 7 unknown #
straight-curve $-1 -50.190351585868171 60.512823603408563 0 0 0 -1 I I #
straight-curve $-1 -58.247209695642312 53.279552883662177 17.091522166161866 0 -1 0 I I #
point $-1 -58.247209695642312 60.512823603408563 17.091522166161866 #
point $-1 -58.247209695642312 60.512823603408563 -17.091522166161866 #
straight-curve $-1 -54.218780640755242 60.512823603408563 -17.091522166161866 1 0 0 I I #
point $-1 -50.190351585868171 60.512823603408563 -17.091522166161866 #
point $-1 -50.190351585868171 60.512823603408563 17.091522166161866 #
straight-curve $-1 -54.218780640755242 60.512823603408563 17.091522166161866 -1 0 0 I I #
End-of-ACIS-data 