500 0 14 0           
7 Unknown 11 ACIS 5.0 NT 24 Fri Mar 26 19:38:02 1999 
-1 9.9999999999999995e-007 1e-010 
body $-1 $14 $-1 $15 #
body $-1 $16 $-1 $17 #
body $-1 $18 $-1 $19 #
body $-1 $20 $-1 $21 #
body $-1 $22 $-1 $23 #
body $-1 $24 $-1 $25 #
body $-1 $26 $-1 $27 #
body $-1 $28 $-1 $29 #
body $-1 $30 $-1 $31 #
body $-1 $32 $-1 $33 #
body $-1 $34 $-1 $35 #
body $-1 $36 $-1 $37 #
body $-1 $38 $-1 $39 #
body $-1 $40 $-1 $41 #
lump $-1 $-1 $42 $0 #
transform $-1 1 0 0 0 1 0 0 0 1 56.038087099826043 27.55198823246063 10.517381023909445 1 rotate no_reflect no_shear #
lump $-1 $-1 $43 $1 #
transform $-1 1 0 0 0 1 0 0 0 1 56.038087099826043 27.55198823246063 10.517381023909445 1 rotate no_reflect no_shear #
lump $-1 $-1 $44 $2 #
transform $-1 1 0 0 0 1 0 0 0 1 56.038087099826043 27.55198823246063 10.517381023909445 1 rotate no_reflect no_shear #
lump $-1 $-1 $45 $3 #
transform $-1 1 0 0 0 1 0 0 0 1 56.038087099826043 27.55198823246063 10.517381023909445 1 rotate no_reflect no_shear #
lump $-1 $-1 $46 $4 #
transform $-1 1 0 0 0 1 0 0 0 1 56.038087099826043 27.55198823246063 10.517381023909445 1 rotate no_reflect no_shear #
lump $-1 $-1 $47 $5 #
transform $-1 1 0 0 0 1 0 0 0 1 56.038087099826043 27.55198823246063 10.517381023909445 1 rotate no_reflect no_shear #
lump $-1 $-1 $48 $6 #
transform $-1 1 0 0 0 1 0 0 0 1 56.038087099826043 27.55198823246063 10.517381023909445 1 rotate no_reflect no_shear #
lump $-1 $-1 $49 $7 #
transform $-1 1 0 0 0 1 0 0 0 1 56.038087099826043 27.55198823246063 10.517381023909445 1 rotate no_reflect no_shear #
lump $-1 $-1 $50 $8 #
transform $-1 1 0 0 0 1 0 0 0 1 56.038087099826043 27.55198823246063 10.517381023909445 1 rotate no_reflect no_shear #
lump $-1 $-1 $51 $9 #
transform $-1 1 0 0 0 1 0 0 0 1 56.038087099826043 27.55198823246063 10.517381023909445 1 rotate no_reflect no_shear #
lump $-1 $-1 $52 $10 #
transform $-1 1 0 0 0 1 0 0 0 1 56.038087099826043 27.55198823246063 10.517381023909445 1 rotate no_reflect no_shear #
lump $-1 $-1 $53 $11 #
transform $-1 1 0 0 0 1 0 0 0 1 56.038087099826043 27.55198823246063 10.517381023909445 1 rotate no_reflect no_shear #
lump $-1 $-1 $54 $12 #
transform $-1 1 0 0 0 1 0 0 0 1 56.038087099826043 27.55198823246063 10.517381023909445 1 rotate no_reflect no_shear #
lump $-1 $-1 $55 $13 #
transform $-1 1 0 0 0 1 0 0 0 1 56.038087099826043 27.55198823246063 10.517381023909445 1 rotate no_reflect no_shear #
shell $-1 $-1 $-1 $56 $-1 $14 #
shell $-1 $-1 $-1 $57 $-1 $16 #
shell $-1 $-1 $-1 $58 $-1 $18 #
shell $-1 $-1 $-1 $59 $-1 $20 #
shell $-1 $-1 $-1 $60 $-1 $22 #
shell $-1 $-1 $-1 $61 $-1 $24 #
shell $-1 $-1 $-1 $62 $-1 $26 #
shell $-1 $-1 $-1 $63 $-1 $28 #
shell $-1 $-1 $-1 $64 $-1 $30 #
shell $-1 $-1 $-1 $65 $-1 $32 #
shell $-1 $-1 $-1 $66 $-1 $34 #
shell $-1 $-1 $-1 $67 $-1 $36 #
shell $-1 $-1 $-1 $68 $-1 $38 #
shell $-1 $-1 $-1 $69 $-1 $40 #
face $-1 $70 $71 $42 $-1 $72 forward single #
face $-1 $73 $74 $43 $-1 $75 reversed single #
face $-1 $76 $77 $44 $-1 $78 reversed single #
face $-1 $79 $80 $45 $-1 $81 forward single #
face $-1 $82 $83 $46 $-1 $84 forward single #
face $-1 $85 $86 $47 $-1 $87 forward single #
face $-1 $88 $89 $48 $-1 $90 reversed single #
face $-1 $91 $92 $49 $-1 $93 forward single #
face $-1 $94 $95 $50 $-1 $96 forward single #
face $-1 $97 $98 $51 $-1 $99 forward single #
face $-1 $100 $101 $52 $-1 $102 reversed single #
face $-1 $103 $104 $53 $-1 $105 forward single #
face $-1 $106 $107 $54 $-1 $108 forward single #
face $-1 $109 $110 $55 $-1 $111 forward single #
face $-1 $112 $113 $42 $-1 $114 reversed single #
loop $-1 $-1 $115 $56 #
plane-surface $-1 0 0 10.517381023909445 0 0 1 1 0 0 forward_v I I I I #
face $-1 $116 $117 $43 $-1 $118 reversed single #
loop $-1 $-1 $119 $57 #
plane-surface $-1 0 -21.716127268234612 5.8901442211236148 0 0 1 1 0 0 forward_v I I I I #
face $-1 $120 $121 $44 $-1 $122 reversed single #
loop $-1 $-1 $123 $58 #
plane-surface $-1 -115.42941165397444 -13.755755446002214 95.145094786544263 0 1 0 -0.52991927123019833 0 0.84804809178421925 forward_v I I I I #
face $-1 $124 $125 $45 $-1 $126 forward single #
loop $-1 $127 $128 $59 #
cone-surface $-1 -47.184774031554618 -11.913522737664181 4.4809472042139751 0.52991927123019833 0 -0.84804809178421925 0.42402404589210962 0 0.26495963561509916 1 I I 0 1 0.5 forward I I I I #
face $-1 $129 $130 $46 $-1 $131 forward single #
loop $-1 $132 $133 $60 #
cone-surface $-1 -47.184774031554618 -9.1501736751571343 4.4809472042139751 0.52991927123019833 0 -0.84804809178421925 0.42402404589210962 0 0.26495963561509916 1 I I 0 1 0.5 forward I I I I #
face $-1 $134 $135 $47 $-1 $136 forward single #
loop $-1 $137 $138 $61 #
cone-surface $-1 -47.184774031554618 -6.3868246126500878 4.4809472042139751 0.52991927123019833 0 -0.84804809178421925 0.42402404589210962 0 0.26495963561509916 1 I I 0 1 0.5 forward I I I I #
face $-1 $139 $140 $48 $-1 $141 reversed single #
loop $-1 $-1 $142 $62 #
plane-surface $-1 17.693553620398788 5.8358609642260149 158.01421999471177 0 -1 0 -0.51503808176128008 0 -0.85716729658548041 forward_v I I I I #
face $-1 $143 $144 $49 $-1 $145 forward single #
loop $-1 $146 $147 $63 #
cone-surface $-1 50.474796351691666 -2.2434320648843773 6.8287639009608707 -0.51503808176128008 0 -0.85716729658548041 0.4285836482927402 0 -0.25751904088064004 1 I I 0 1 0.5 forward I I I I #
face $-1 $148 $149 $50 $-1 $150 forward single #
loop $-1 $151 $152 $64 #
cone-surface $-1 50.474796351691666 0.7863028210320202 6.8287639009608707 -0.51503808176128008 0 -0.85716729658548041 0.4285836482927402 0 -0.25751904088064004 1 I I 0 1 0.5 forward I I I I #
face $-1 $153 $154 $51 $-1 $155 forward single #
loop $-1 $156 $157 $65 #
cone-surface $-1 50.474796351691666 3.8160377069484177 6.8287639009608707 -0.51503808176128008 0 -0.85716729658548041 0.4285836482927402 0 -0.25751904088064004 1 I I 0 1 0.5 forward I I I I #
face $-1 $158 $159 $52 $-1 $160 reversed single #
loop $-1 $-1 $161 $66 #
plane-surface $-1 17.693553620398788 15.934977250614008 158.01421999471177 0 -1 0 -0.51503808176128008 0 -0.85716729658548041 forward_v I I I I #
face $-1 $162 $163 $53 $-1 $164 forward single #
loop $-1 $165 $166 $67 #
cone-surface $-1 50.474796351691666 7.8556842215036156 6.8287639009608707 -0.51503808176128008 0 -0.85716729658548041 0.4285836482927402 0 -0.25751904088064004 1 I I 0 1 0.5 forward I I I I #
face $-1 $167 $168 $54 $-1 $169 forward single #
loop $-1 $170 $171 $68 #
cone-surface $-1 50.474796351691666 10.885419107420013 6.8287639009608707 -0.51503808176128008 0 -0.85716729658548041 0.4285836482927402 0 -0.25751904088064004 1 I I 0 1 0.5 forward I I I I #
face $-1 $172 $173 $55 $-1 $174 forward single #
loop $-1 $175 $176 $69 #
cone-surface $-1 50.474796351691666 13.915153993336411 6.8287639009608707 -0.51503808176128008 0 -0.85716729658548041 0.4285836482927402 0 -0.25751904088064004 1 I I 0 1 0.5 forward I I I I #
face $-1 $177 $178 $42 $-1 $179 reversed single #
loop $-1 $-1 $180 $70 #
plane-surface $-1 0 0 -10.517381023909445 0 0 1 1 0 0 forward_v I I I I #
coedge $-1 $181 $182 $183 $184 forward $71 $-1 #
face $-1 $185 $186 $43 $-1 $187 reversed single #
loop $-1 $-1 $188 $73 #
plane-surface $-1 0 -15.880266304008593 8.2037626225165301 0 -1 0 0 0 -1 forward_v I I I I #
coedge $-1 $189 $190 $191 $192 reversed $74 $-1 #
face $-1 $193 $194 $44 $-1 $195 reversed single #
loop $-1 $-1 $196 $76 #
plane-surface $-1 -56.038087099826051 -9.1501736751571343 0.09910912205356226 -0.52991927123019833 0 0.84804809178421925 0.84804809178421925 0 0.52991927123019833 forward_v I I I I #
coedge $-1 $197 $198 $199 $200 reversed $77 $-1 #
face $-1 $-1 $201 $45 $-1 $202 forward single #
loop $-1 $203 $204 $79 #
cone-surface $-1 -46.535341121163341 -11.913522737664181 3.4416373125003954 0.52991927123019833 0 -0.84804809178421925 0.21201202294605481 0 0.13247981780754958 1 I I -0.70710678118654746 0.70710678118654746 0.25 forward I I I I #
loop $-1 $-1 $205 $59 #
coedge $-1 $128 $128 $206 $207 reversed $80 $-1 #
face $-1 $-1 $208 $46 $-1 $209 forward single #
loop $-1 $210 $211 $82 #
cone-surface $-1 -46.535341121163341 -9.1501736751571343 3.4416373125003954 0.52991927123019833 0 -0.84804809178421925 0.21201202294605481 0 0.13247981780754958 1 I I -0.70710678118654746 0.70710678118654746 0.25 forward I I I I #
loop $-1 $-1 $212 $60 #
coedge $-1 $133 $133 $213 $214 reversed $83 $-1 #
face $-1 $-1 $215 $47 $-1 $216 forward single #
loop $-1 $217 $218 $85 #
cone-surface $-1 -46.535341121163341 -6.3868246126500878 3.4416373125003954 0.52991927123019833 0 -0.84804809178421925 0.21201202294605481 0 0.13247981780754958 1 I I -0.70710678118654746 0.70710678118654746 0.25 forward I I I I #
loop $-1 $-1 $219 $61 #
coedge $-1 $138 $138 $220 $221 reversed $86 $-1 #
face $-1 $222 $223 $48 $-1 $224 reversed single #
loop $-1 $-1 $225 $88 #
plane-surface $-1 -40.02994415053309 0.7863028210320202 61.946188744352625 0.51503808176128008 0 0.85716729658548041 0.85716729658548041 0 -0.51503808176128008 forward_v I I I I #
coedge $-1 $226 $227 $228 $229 reversed $89 $-1 #
face $-1 $-1 $230 $49 $-1 $231 forward single #
loop $-1 $232 $233 $91 #
cone-surface $-1 50.020807737674176 -2.2434320648843773 6.0731999791102762 -0.51503808176128008 0 -0.85716729658548041 0.2142918241463701 0 -0.12875952044032002 1 I I -0.70710678118654746 0.70710678118654746 0.25 forward I I I I #
loop $-1 $-1 $234 $63 #
coedge $-1 $147 $147 $235 $236 reversed $92 $-1 #
face $-1 $-1 $237 $50 $-1 $238 forward single #
loop $-1 $239 $240 $94 #
cone-surface $-1 50.020807737674176 0.7863028210320202 6.0731999791102762 -0.51503808176128008 0 -0.85716729658548041 0.2142918241463701 0 -0.12875952044032002 1 I I -0.70710678118654746 0.70710678118654746 0.25 forward I I I I #
loop $-1 $-1 $241 $64 #
coedge $-1 $152 $152 $242 $243 reversed $95 $-1 #
face $-1 $-1 $244 $51 $-1 $245 forward single #
loop $-1 $246 $247 $97 #
cone-surface $-1 50.020807737674176 3.8160377069484177 6.0731999791102762 -0.51503808176128008 0 -0.85716729658548041 0.2142918241463701 0 -0.12875952044032002 1 I I -0.70710678118654746 0.70710678118654746 0.25 forward I I I I #
loop $-1 $-1 $248 $65 #
coedge $-1 $157 $157 $249 $250 reversed $98 $-1 #
face $-1 $251 $252 $52 $-1 $253 reversed single #
loop $-1 $-1 $254 $100 #
plane-surface $-1 -40.02994415053309 0.7863028210320202 61.946188744352625 0.51503808176128008 0 0.85716729658548041 0.85716729658548041 0 -0.51503808176128008 forward_v I I I I #
coedge $-1 $255 $256 $257 $258 reversed $101 $-1 #
face $-1 $-1 $259 $53 $-1 $260 forward single #
loop $-1 $261 $262 $103 #
cone-surface $-1 50.020807737674176 7.8556842215036156 6.0731999791102762 -0.51503808176128008 0 -0.85716729658548041 0.2142918241463701 0 -0.12875952044032002 1 I I -0.70710678118654746 0.70710678118654746 0.25 forward I I I I #
loop $-1 $-1 $263 $67 #
coedge $-1 $166 $166 $264 $265 reversed $104 $-1 #
face $-1 $-1 $266 $54 $-1 $267 forward single #
loop $-1 $268 $269 $106 #
cone-surface $-1 50.020807737674176 10.885419107420013 6.0731999791102762 -0.51503808176128008 0 -0.85716729658548041 0.2142918241463701 0 -0.12875952044032002 1 I I -0.70710678118654746 0.70710678118654746 0.25 forward I I I I #
loop $-1 $-1 $270 $68 #
coedge $-1 $171 $171 $271 $272 reversed $107 $-1 #
face $-1 $-1 $273 $55 $-1 $274 forward single #
loop $-1 $275 $276 $109 #
cone-surface $-1 50.020807737674176 13.915153993336411 6.0731999791102762 -0.51503808176128008 0 -0.85716729658548041 0.2142918241463701 0 -0.12875952044032002 1 I I -0.70710678118654746 0.70710678118654746 0.25 forward I I I I #
loop $-1 $-1 $277 $69 #
coedge $-1 $176 $176 $278 $279 reversed $110 $-1 #
face $-1 $280 $281 $42 $-1 $282 reversed single #
loop $-1 $-1 $283 $112 #
plane-surface $-1 0 -27.55198823246063 0 0 1 0 0 0 1 forward_v I I I I #
coedge $-1 $284 $285 $286 $287 forward $113 $-1 #
coedge $-1 $288 $115 $289 $290 forward $71 $-1 #
coedge $-1 $115 $288 $291 $292 forward $71 $-1 #
coedge $-1 $293 $294 $115 $184 reversed $295 $-1 #
edge $-1 $296 -27.55198823246063 $297 27.55198823246063 $183 $298 forward 7 unknown #
face $-1 $299 $300 $43 $-1 $301 reversed single #
loop $-1 $-1 $302 $116 #
plane-surface $-1 -56.038087099826043 0 0 1 0 0 0 0 -1 forward_v I I I I #
coedge $-1 $303 $304 $305 $306 reversed $117 $-1 #
coedge $-1 $307 $119 $308 $309 reversed $74 $-1 #
coedge $-1 $119 $307 $303 $310 forward $74 $-1 #
coedge $-1 $305 $311 $119 $192 forward $312 $-1 #
edge $-1 $313 -16.693924598343322 $314 -5.0222026698912874 $191 $315 forward 7 unknown #
face $-1 $316 $317 $44 $-1 $318 forward single #
loop $-1 $-1 $319 $120 #
plane-surface $-1 -115.42941165397444 -4.5445919043120551 95.145094786544263 0 -1 0 0.52991927123019833 0 -0.84804809178421925 forward_v I I I I #
coedge $-1 $320 $321 $322 $323 reversed $121 $-1 #
coedge $-1 $198 $123 $324 $325 reversed $77 $-1 #
coedge $-1 $123 $197 $320 $326 reversed $77 $-1 #
coedge $-1 $322 $327 $123 $200 forward $317 $-1 #
edge $-1 $328 1.676618727161177 $329 18.349338678536547 $199 $330 forward 7 unknown #
loop $-1 $-1 $206 $124 #
plane-surface $-1 -56.038087099826051 -9.1501736751571343 0.09910912205356226 -0.52991927123019833 0 0.84804809178421925 0.84804809178421925 0 0.52991927123019833 forward_v I I I I #
loop $-1 $-1 $331 $79 #
coedge $-1 $204 $204 $205 $332 reversed $125 $-1 #
coedge $-1 $205 $205 $204 $332 forward $127 $-1 #
coedge $-1 $206 $206 $128 $207 forward $201 $-1 #
edge $-1 $333 0 $333 6.2831853071796004 $206 $334 forward 7 unknown #
loop $-1 $-1 $213 $129 #
plane-surface $-1 -56.038087099826051 -9.1501736751571343 0.09910912205356226 -0.52991927123019833 0 0.84804809178421925 0.84804809178421925 0 0.52991927123019833 forward_v I I I I #
loop $-1 $-1 $335 $82 #
coedge $-1 $211 $211 $212 $336 reversed $130 $-1 #
coedge $-1 $212 $212 $211 $336 forward $132 $-1 #
coedge $-1 $213 $213 $133 $214 forward $208 $-1 #
edge $-1 $337 0 $337 6.2831853071796004 $213 $338 forward 7 unknown #
loop $-1 $-1 $220 $134 #
plane-surface $-1 -56.038087099826051 -9.1501736751571343 0.09910912205356226 -0.52991927123019833 0 0.84804809178421925 0.84804809178421925 0 0.52991927123019833 forward_v I I I I #
loop $-1 $-1 $339 $85 #
coedge $-1 $218 $218 $219 $340 reversed $135 $-1 #
coedge $-1 $219 $219 $218 $340 forward $137 $-1 #
coedge $-1 $220 $220 $138 $221 forward $215 $-1 #
edge $-1 $341 0 $341 6.2831853071796004 $220 $342 forward 7 unknown #
face $-1 $343 $344 $48 $-1 $345 reversed single #
loop $-1 $-1 $346 $139 #
plane-surface $-1 17.693553620398788 -4.2632553221619744 158.01421999471177 0 1 0 0.51503808176128008 0 0.85716729658548041 forward_v I I I I #
coedge $-1 $347 $348 $349 $350 reversed $140 $-1 #
coedge $-1 $227 $142 $351 $352 reversed $89 $-1 #
coedge $-1 $142 $226 $347 $353 reversed $89 $-1 #
coedge $-1 $349 $354 $142 $229 forward $355 $-1 #
edge $-1 $356 -47.191310289626649 $357 -36.715186980512257 $228 $358 forward 7 unknown #
loop $-1 $-1 $235 $143 #
plane-surface $-1 -40.02994415053309 0.7863028210320202 61.946188744352625 0.51503808176128008 0 0.85716729658548041 0.85716729658548041 0 -0.51503808176128008 forward_v I I I I #
loop $-1 $-1 $359 $91 #
coedge $-1 $233 $233 $234 $360 reversed $144 $-1 #
coedge $-1 $234 $234 $233 $360 forward $146 $-1 #
coedge $-1 $235 $235 $147 $236 forward $230 $-1 #
edge $-1 $361 0 $361 6.2831853071796004 $235 $362 forward 7 unknown #
loop $-1 $-1 $242 $148 #
plane-surface $-1 -40.02994415053309 0.7863028210320202 61.946188744352625 0.51503808176128008 0 0.85716729658548041 0.85716729658548041 0 -0.51503808176128008 forward_v I I I I #
loop $-1 $-1 $363 $94 #
coedge $-1 $240 $240 $241 $364 reversed $149 $-1 #
coedge $-1 $241 $241 $240 $364 forward $151 $-1 #
coedge $-1 $242 $242 $152 $243 forward $237 $-1 #
edge $-1 $365 0 $365 6.2831853071796004 $242 $366 forward 7 unknown #
loop $-1 $-1 $249 $153 #
plane-surface $-1 -40.02994415053309 0.7863028210320202 61.946188744352625 0.51503808176128008 0 0.85716729658548041 0.85716729658548041 0 -0.51503808176128008 forward_v I I I I #
loop $-1 $-1 $367 $97 #
coedge $-1 $247 $247 $248 $368 reversed $154 $-1 #
coedge $-1 $248 $248 $247 $368 forward $156 $-1 #
coedge $-1 $249 $249 $157 $250 forward $244 $-1 #
edge $-1 $369 0 $369 6.2831853071796004 $249 $370 forward 7 unknown #
face $-1 $371 $372 $52 $-1 $373 forward single #
loop $-1 $-1 $374 $158 #
plane-surface $-1 56.038087099826043 0 0 -1 0 0 0 0 1 forward_v I I I I #
coedge $-1 $375 $376 $377 $378 reversed $159 $-1 #
coedge $-1 $256 $161 $379 $380 reversed $101 $-1 #
coedge $-1 $161 $255 $381 $382 reversed $101 $-1 #
coedge $-1 $383 $374 $161 $258 forward $252 $-1 #
edge $-1 $384 -74.784419023935129 $385 -68.489728973446432 $257 $386 forward 7 unknown #
loop $-1 $-1 $264 $162 #
plane-surface $-1 -40.02994415053309 0.7863028210320202 61.946188744352625 0.51503808176128008 0 0.85716729658548041 0.85716729658548041 0 -0.51503808176128008 forward_v I I I I #
loop $-1 $-1 $387 $103 #
coedge $-1 $262 $262 $263 $388 reversed $163 $-1 #
coedge $-1 $263 $263 $262 $388 forward $165 $-1 #
coedge $-1 $264 $264 $166 $265 forward $259 $-1 #
edge $-1 $389 0 $389 6.2831853071796004 $264 $390 forward 7 unknown #
loop $-1 $-1 $271 $167 #
plane-surface $-1 -40.02994415053309 0.7863028210320202 61.946188744352625 0.51503808176128008 0 0.85716729658548041 0.85716729658548041 0 -0.51503808176128008 forward_v I I I I #
loop $-1 $-1 $391 $106 #
coedge $-1 $269 $269 $270 $392 reversed $168 $-1 #
coedge $-1 $270 $270 $269 $392 forward $170 $-1 #
coedge $-1 $271 $271 $171 $272 forward $266 $-1 #
edge $-1 $393 0 $393 6.2831853071796004 $271 $394 forward 7 unknown #
loop $-1 $-1 $278 $172 #
plane-surface $-1 -40.02994415053309 0.7863028210320202 61.946188744352625 0.51503808176128008 0 0.85716729658548041 0.85716729658548041 0 -0.51503808176128008 forward_v I I I I #
loop $-1 $-1 $395 $109 #
coedge $-1 $276 $276 $277 $396 reversed $173 $-1 #
coedge $-1 $277 $277 $276 $396 forward $175 $-1 #
coedge $-1 $278 $278 $176 $279 forward $273 $-1 #
edge $-1 $397 0 $397 6.2831853071796004 $278 $398 forward 7 unknown #
face $-1 $399 $400 $42 $-1 $401 reversed single #
loop $-1 $-1 $402 $177 #
plane-surface $-1 -56.038087099826043 0 0 1 0 0 0 0 -1 forward_v I I I I #
coedge $-1 $403 $291 $404 $405 forward $178 $-1 #
coedge $-1 $406 $180 $403 $407 forward $113 $-1 #
coedge $-1 $180 $406 $408 $409 forward $113 $-1 #
coedge $-1 $294 $293 $180 $287 reversed $295 $-1 #
edge $-1 $410 -27.55198823246063 $411 27.55198823246063 $286 $412 forward 7 unknown #
coedge $-1 $182 $181 $413 $414 forward $71 $-1 #
coedge $-1 $415 $416 $181 $290 reversed $400 $-1 #
edge $-1 $297 -56.038087099826043 $417 56.038087099826043 $289 $418 forward 7 unknown #
coedge $-1 $283 $419 $182 $292 reversed $178 $-1 #
edge $-1 $420 -56.038087099826043 $296 56.038087099826043 $291 $421 forward 7 unknown #
coedge $-1 $286 $183 $419 $422 forward $295 $-1 #
coedge $-1 $183 $286 $415 $423 reversed $295 $-1 #
loop $-1 $-1 $293 $399 #
vertex $-1 $184 $424 #
vertex $-1 $184 $425 #
straight-curve $-1 56.038087099826043 0 10.517381023909445 0 1 0 I I #
face $-1 $426 $427 $43 $-1 $428 forward single #
loop $-1 $-1 $308 $185 #
plane-surface $-1 0 -27.55198823246063 0 0 1 0 0 0 1 forward_v I I I I #
coedge $-1 $429 $430 $431 $432 forward $186 $-1 #
coedge $-1 $431 $188 $190 $310 reversed $117 $-1 #
coedge $-1 $188 $431 $433 $434 reversed $117 $-1 #
coedge $-1 $435 $191 $188 $306 forward $312 $-1 #
edge $-1 $314 1.7882629098653497 $436 6.4154997126511804 $305 $437 forward 7 unknown #
coedge $-1 $190 $189 $429 $438 reversed $74 $-1 #
coedge $-1 $439 $440 $189 $309 forward $300 $-1 #
edge $-1 $441 -56.038087099826043 $313 56.038087099826043 $308 $442 forward 7 unknown #
edge $-1 $443 -56.038087099826043 $314 56.038087099826043 $303 $444 forward 7 unknown #
coedge $-1 $191 $435 $439 $445 forward $312 $-1 #
loop $-1 $-1 $305 $426 #
vertex $-1 $309 $446 #
vertex $-1 $192 $447 #
straight-curve $-1 56.038087099826043 -10.858063634117306 5.8901442211236148 0 1 0 I I #
face $-1 $-1 $448 $44 $-1 $449 reversed single #
loop $-1 $-1 $199 $193 #
plane-surface $-1 0 0 10.517381023909445 0 0 1 1 0 0 forward_v I I I I #
coedge $-1 $450 $451 $452 $453 reversed $194 $-1 #
coedge $-1 $454 $196 $198 $326 forward $121 $-1 #
coedge $-1 $196 $454 $450 $455 forward $121 $-1 #
coedge $-1 $452 $199 $196 $323 forward $317 $-1 #
edge $-1 $329 -9.1806686084236464 $456 0.030494933266512092 $322 $457 forward 7 unknown #
coedge $-1 $458 $459 $197 $325 forward $448 $-1 #
edge $-1 $460 -47.473438271218562 $328 -37.055166369362688 $324 $461 forward 7 unknown #
edge $-1 $329 -19.66011139332609 $460 -8.3790584163743152e-015 $198 $462 forward 7 unknown #
coedge $-1 $199 $452 $458 $463 forward $317 $-1 #
vertex $-1 $325 $464 #
vertex $-1 $200 $465 #
straight-curve $-1 -57.71470582698722 -13.755755446002214 10.517381023909444 1 0 0 I I #
coedge $-1 $331 $331 $-1 $466 reversed $203 $-1 #
edge $-1 $467 0 $467 6.2831853071796004 $204 $468 forward 7 unknown #
vertex $-1 $207 $469 #
ellipse-curve $-1 -47.701727124138351 -11.913522737664181 5.3082450729815083 -0.52991927123019833 0 0.84804809178421925 0.42402404589210962 0 0.26495963561509916 1 I I #
coedge $-1 $335 $335 $-1 $470 reversed $210 $-1 #
edge $-1 $471 0 $471 6.2831853071796004 $211 $472 forward 7 unknown #
vertex $-1 $214 $473 #
ellipse-curve $-1 -47.701727124138351 -9.1501736751571343 5.3082450729815083 -0.52991927123019833 0 0.84804809178421925 0.42402404589210962 0 0.26495963561509916 1 I I #
coedge $-1 $339 $339 $-1 $474 reversed $217 $-1 #
edge $-1 $475 0 $475 6.2831853071796004 $218 $476 forward 7 unknown #
vertex $-1 $221 $477 #
ellipse-curve $-1 -47.701727124138351 -6.3868246126500878 5.3082450729815083 -0.52991927123019833 0 0.84804809178421925 0.42402404589210962 0 0.26495963561509916 1 I I #
face $-1 $-1 $355 $48 $-1 $478 forward single #
loop $-1 $-1 $479 $222 #
plane-surface $-1 56.038087099826043 0 0 -1 0 0 0 0 1 forward_v I I I I #
coedge $-1 $480 $481 $482 $483 reversed $223 $-1 #
coedge $-1 $484 $225 $227 $353 forward $140 $-1 #
coedge $-1 $225 $484 $480 $485 forward $140 $-1 #
coedge $-1 $482 $228 $225 $350 forward $355 $-1 #
edge $-1 $357 -5.4427095537100048 $486 4.6564067326779846 $349 $487 forward 7 unknown #
coedge $-1 $488 $489 $226 $352 forward $344 $-1 #
edge $-1 $490 -74.784419023935129 $356 -68.489728973446432 $351 $491 forward 7 unknown #
edge $-1 $357 99.854378815196824 $490 112.07617419965206 $227 $492 forward 7 unknown #
coedge $-1 $228 $482 $488 $493 forward $355 $-1 #
loop $-1 $-1 $482 $343 #
vertex $-1 $352 $494 #
vertex $-1 $229 $495 #
straight-curve $-1 8.846776810199394 5.8358609642260149 10.517381023909451 -1 0 0 I I #
coedge $-1 $359 $359 $-1 $496 reversed $232 $-1 #
edge $-1 $497 0 $497 6.2831853071796004 $233 $498 forward 7 unknown #
vertex $-1 $236 $499 #
ellipse-curve $-1 50.800025445268837 -2.2434320648843773 7.3700359986650978 0.51503808176128008 0 0.85716729658548041 0.4285836482927402 0 -0.25751904088064004 1 I I #
coedge $-1 $363 $363 $-1 $500 reversed $239 $-1 #
edge $-1 $501 0 $501 6.2831853071796004 $240 $502 forward 7 unknown #
vertex $-1 $243 $503 #
ellipse-curve $-1 50.800025445268837 0.7863028210320202 7.3700359986650978 0.51503808176128008 0 0.85716729658548041 0.4285836482927402 0 -0.25751904088064004 1 I I #
coedge $-1 $367 $367 $-1 $504 reversed $246 $-1 #
edge $-1 $505 0 $505 6.2831853071796004 $247 $506 forward 7 unknown #
vertex $-1 $250 $507 #
ellipse-curve $-1 50.800025445268837 3.8160377069484177 7.3700359986650978 0.51503808176128008 0 0.85716729658548041 0.4285836482927402 0 -0.25751904088064004 1 I I #
face $-1 $-1 $508 $52 $-1 $509 forward single #
loop $-1 $-1 $510 $251 #
plane-surface $-1 17.693553620398788 5.8358609642260149 158.01421999471177 0 -1 0 -0.51503808176128008 0 -0.85716729658548041 forward_v I I I I #
coedge $-1 $257 $511 $376 $512 forward $252 $-1 #
coedge $-1 $379 $254 $513 $514 reversed $159 $-1 #
coedge $-1 $254 $379 $374 $512 reversed $159 $-1 #
coedge $-1 $515 $510 $254 $378 forward $372 $-1 #
edge $-1 $516 99.854378815196824 $517 112.07617419965206 $377 $518 forward 7 unknown #
coedge $-1 $376 $375 $255 $380 forward $159 $-1 #
edge $-1 $519 99.854378815196824 $384 112.07617419965206 $255 $520 forward 7 unknown #
coedge $-1 $513 $521 $256 $382 forward $508 $-1 #
edge $-1 $385 -47.191310289626649 $519 -36.715186980512257 $381 $522 forward 7 unknown #
coedge $-1 $511 $257 $521 $523 reversed $252 $-1 #
vertex $-1 $258 $524 #
vertex $-1 $258 $525 #
straight-curve $-1 56.038087099826043 15.934977250614008 79.007109997355883 0 0 1 I I #
coedge $-1 $387 $387 $-1 $526 reversed $261 $-1 #
edge $-1 $527 0 $527 6.2831853071796004 $262 $528 forward 7 unknown #
vertex $-1 $265 $529 #
ellipse-curve $-1 50.800025445268837 7.8556842215036156 7.3700359986650978 0.51503808176128008 0 0.85716729658548041 0.4285836482927402 0 -0.25751904088064004 1 I I #
coedge $-1 $391 $391 $-1 $530 reversed $268 $-1 #
edge $-1 $531 0 $531 6.2831853071796004 $269 $532 forward 7 unknown #
vertex $-1 $272 $533 #
ellipse-curve $-1 50.800025445268837 10.885419107420013 7.3700359986650978 0.51503808176128008 0 0.85716729658548041 0.4285836482927402 0 -0.25751904088064004 1 I I #
coedge $-1 $395 $395 $-1 $534 reversed $275 $-1 #
edge $-1 $535 0 $535 6.2831853071796004 $276 $536 forward 7 unknown #
vertex $-1 $279 $537 #
ellipse-curve $-1 50.800025445268837 13.915153993336411 7.3700359986650978 0.51503808176128008 0 0.85716729658548041 0.4285836482927402 0 -0.25751904088064004 1 I I #
face $-1 $-1 $295 $42 $-1 $538 reversed single #
loop $-1 $-1 $415 $280 #
plane-surface $-1 0 27.55198823246063 0 0 -1 0 0 0 -1 forward_v I I I I #
coedge $-1 $539 $413 $416 $540 forward $281 $-1 #
coedge $-1 $419 $283 $284 $407 reversed $178 $-1 #
coedge $-1 $413 $539 $283 $405 reversed $281 $-1 #
edge $-1 $420 -10.517381023909445 $541 10.517381023909445 $404 $542 forward 7 unknown #
coedge $-1 $285 $284 $539 $543 forward $113 $-1 #
edge $-1 $411 -56.038087099826043 $541 56.038087099826043 $403 $544 forward 7 unknown #
coedge $-1 $416 $415 $285 $409 reversed $400 $-1 #
edge $-1 $545 -56.038087099826043 $410 56.038087099826043 $408 $546 forward 7 unknown #
vertex $-1 $287 $547 #
vertex $-1 $422 $548 #
straight-curve $-1 56.038087099826043 0 -10.517381023909445 0 -1 0 I I #
coedge $-1 $402 $404 $288 $414 reversed $281 $-1 #
edge $-1 $417 -27.55198823246063 $420 27.55198823246063 $413 $549 forward 7 unknown #
coedge $-1 $408 $289 $294 $423 forward $400 $-1 #
coedge $-1 $289 $408 $402 $540 reversed $400 $-1 #
vertex $-1 $290 $550 #
straight-curve $-1 0 27.55198823246063 10.517381023909445 -1 0 0 I I #
coedge $-1 $291 $403 $293 $422 reversed $178 $-1 #
vertex $-1 $414 $551 #
straight-curve $-1 0 -27.55198823246063 10.517381023909445 1 0 0 I I #
edge $-1 $296 -10.517381023909445 $411 10.517381023909445 $293 $552 forward 7 unknown #
edge $-1 $297 -10.517381023909445 $410 10.517381023909445 $294 $553 forward 7 unknown #
point $-1 56.038087099826043 -27.55198823246063 10.517381023909445 #
point $-1 56.038087099826043 27.55198823246063 10.517381023909445 #
face $-1 $-1 $312 $43 $-1 $554 reversed single #
loop $-1 $-1 $433 $299 #
plane-surface $-1 0 0 10.517381023909445 0 0 1 1 0 0 forward_v I I I I #
coedge $-1 $555 $302 $307 $438 forward $186 $-1 #
coedge $-1 $302 $555 $556 $557 reversed $186 $-1 #
coedge $-1 $304 $303 $302 $432 reversed $117 $-1 #
edge $-1 $558 -6.4154997126511804 $443 -1.7882629098653497 $302 $559 forward 7 unknown #
coedge $-1 $556 $560 $304 $434 forward $427 $-1 #
edge $-1 $436 -56.038087099826043 $558 56.038087099826043 $433 $561 forward 7 unknown #
coedge $-1 $311 $305 $560 $562 reversed $312 $-1 #
vertex $-1 $306 $563 #
straight-curve $-1 56.038087099826043 -15.880266304008593 4.1018813112582651 0 0 1 I I #
edge $-1 $443 5.0222026698912874 $441 16.693924598343322 $429 $564 forward 7 unknown #
coedge $-1 $565 $308 $311 $445 reversed $300 $-1 #
coedge $-1 $308 $565 $555 $566 forward $300 $-1 #
vertex $-1 $309 $567 #
straight-curve $-1 0 -27.55198823246063 5.8901442211236148 1 0 0 I I #
vertex $-1 $438 $568 #
straight-curve $-1 0 -15.880266304008593 5.8901442211236148 1 0 0 I I #
edge $-1 $569 -10.517381023909445 $313 -5.8901442211236148 $311 $570 forward 7 unknown #
point $-1 56.038087099826043 -27.55198823246063 5.8901442211236148 #
point $-1 56.038087099826043 -15.880266304008593 5.8901442211236148 #
loop $-1 $-1 $324 $316 #
plane-surface $-1 -56.038087099826043 0 0 1 0 0 0 0 -1 forward_v I I I I #
coedge $-1 $451 $319 $321 $455 reversed $194 $-1 #
coedge $-1 $319 $450 $571 $572 reversed $194 $-1 #
coedge $-1 $327 $322 $319 $453 forward $317 $-1 #
edge $-1 $456 -18.349338678536547 $573 -1.676618727161177 $452 $574 forward 7 unknown #
coedge $-1 $321 $320 $459 $575 reversed $121 $-1 #
edge $-1 $576 8.3790584163743152e-015 $456 19.66011139332609 $450 $577 forward 7 unknown #
vertex $-1 $323 $578 #
straight-curve $-1 -39.365367148450666 -4.5750868375785672 10.517381023909445 0 1 0 I I #
coedge $-1 $571 $324 $327 $463 reversed $448 $-1 #
coedge $-1 $324 $571 $454 $575 forward $448 $-1 #
vertex $-1 $325 $579 #
straight-curve $-1 -56.038087099826043 -13.755755446002214 47.572547393272131 0 0 1 I I #
straight-curve $-1 -56.038087099826051 -13.755755446002214 0.09910912205356226 -0.84804809178421925 0 -0.52991927123019833 I I #
edge $-1 $573 4.5445919043120551 $328 13.755755446002214 $458 $580 forward 7 unknown #
point $-1 -56.038087099826043 -13.755755446002214 10.517381023909445 #
point $-1 -39.365367148450673 -13.755755446002214 10.517381023909445 #
edge $-1 $581 1 $581 0 $331 $-1 forward 7 unknown #
vertex $-1 $332 $582 #
ellipse-curve $-1 -46.667820938970891 -11.913522737664181 3.6536493354464503 -0.52991927123019833 0 0.84804809178421925 0.42402404589210962 0 0.26495963561509916 1 I I #
point $-1 -47.27770307824624 -11.913522737664181 5.5732047085965997 #
edge $-1 $583 1 $583 0 $335 $-1 forward 7 unknown #
vertex $-1 $336 $584 #
ellipse-curve $-1 -46.667820938970891 -9.1501736751571343 3.6536493354464503 -0.52991927123019833 0 0.84804809178421925 0.42402404589210962 0 0.26495963561509916 1 I I #
point $-1 -47.27770307824624 -9.1501736751571343 5.5732047085965997 #
edge $-1 $585 1 $585 0 $339 $-1 forward 7 unknown #
vertex $-1 $340 $586 #
ellipse-curve $-1 -46.667820938970891 -6.3868246126500878 3.6536493354464503 -0.52991927123019833 0 0.84804809178421925 0.42402404589210962 0 0.26495963561509916 1 I I #
point $-1 -47.27770307824624 -6.3868246126500878 5.5732047085965997 #
plane-surface $-1 0 0 10.517381023909445 0 0 1 1 0 0 forward_v I I I I #
coedge $-1 $489 $488 $481 $587 forward $344 $-1 #
coedge $-1 $481 $346 $348 $485 reversed $223 $-1 #
coedge $-1 $346 $480 $479 $587 reversed $223 $-1 #
coedge $-1 $354 $349 $346 $483 forward $355 $-1 #
edge $-1 $486 36.715186980512257 $588 47.191310289626649 $482 $589 forward 7 unknown #
coedge $-1 $348 $347 $489 $590 reversed $140 $-1 #
edge $-1 $591 -112.07617419965206 $486 -99.854378815196824 $480 $592 forward 7 unknown #
vertex $-1 $350 $593 #
straight-curve $-1 45.561963790711651 0.3931514105160101 10.517381023909444 0 -1 0 I I #
coedge $-1 $479 $351 $354 $493 reversed $344 $-1 #
coedge $-1 $351 $479 $484 $590 forward $344 $-1 #
vertex $-1 $352 $594 #
straight-curve $-1 56.038087099826043 5.8358609642260149 79.007109997355883 0 0 1 I I #
straight-curve $-1 -40.02994415053309 5.8358609642260149 61.946188744352625 0.85716729658548041 0 -0.51503808176128008 I I #
edge $-1 $588 -4.2632553221619744 $356 5.8358609642260149 $488 $595 forward 7 unknown #
point $-1 56.038087099826043 5.8358609642260149 10.517381023909445 #
point $-1 45.561963790711651 5.8358609642260149 10.517381023909444 #
edge $-1 $596 1 $596 0 $359 $-1 forward 7 unknown #
vertex $-1 $360 $597 #
ellipse-curve $-1 50.149567258114494 -2.2434320648843773 6.2874918032566463 0.51503808176128008 0 0.85716729658548041 0.4285836482927402 0 -0.25751904088064004 1 I I #
point $-1 51.228609093561573 -2.2434320648843773 7.1125169577844547 #
edge $-1 $598 1 $598 0 $363 $-1 forward 7 unknown #
vertex $-1 $364 $599 #
ellipse-curve $-1 50.149567258114494 0.7863028210320202 6.2874918032566463 0.51503808176128008 0 0.85716729658548041 0.4285836482927402 0 -0.25751904088064004 1 I I #
point $-1 51.228609093561573 0.7863028210320202 7.1125169577844547 #
edge $-1 $600 1 $600 0 $367 $-1 forward 7 unknown #
vertex $-1 $368 $601 #
ellipse-curve $-1 50.149567258114494 3.8160377069484177 6.2874918032566463 0.51503808176128008 0 0.85716729658548041 0.4285836482927402 0 -0.25751904088064004 1 I I #
point $-1 51.228609093561573 3.8160377069484177 7.1125169577844547 #
loop $-1 $-1 $513 $371 #
plane-surface $-1 0 0 10.517381023909445 0 0 1 1 0 0 forward_v I I I I #
coedge $-1 $377 $515 $602 $603 reversed $372 $-1 #
coedge $-1 $374 $383 $515 $604 forward $252 $-1 #
edge $-1 $517 5.4427095537100048 $384 15.541825840097998 $374 $605 forward 7 unknown #
coedge $-1 $602 $381 $375 $514 forward $508 $-1 #
edge $-1 $519 -15.541825840097998 $516 -5.4427095537100048 $513 $606 forward 7 unknown #
coedge $-1 $510 $377 $511 $604 reversed $372 $-1 #
vertex $-1 $514 $607 #
vertex $-1 $512 $608 #
straight-curve $-1 -40.02994415053309 5.8358609642260149 61.946188744352625 0.85716729658548041 0 -0.51503808176128008 I I #
vertex $-1 $382 $609 #
straight-curve $-1 -40.02994415053309 15.934977250614008 61.946188744352625 0.85716729658548041 0 -0.51503808176128008 I I #
coedge $-1 $381 $602 $383 $523 forward $508 $-1 #
straight-curve $-1 8.846776810199394 15.934977250614008 10.517381023909451 -1 0 0 I I #
edge $-1 $610 5.8358609642260149 $385 15.934977250614008 $383 $611 forward 7 unknown #
point $-1 56.038087099826036 15.934977250614008 4.2226909734207609 #
point $-1 56.038087099826043 15.934977250614008 10.517381023909445 #
edge $-1 $612 1 $612 0 $387 $-1 forward 7 unknown #
vertex $-1 $388 $613 #
ellipse-curve $-1 50.149567258114494 7.8556842215036156 6.2874918032566463 0.51503808176128008 0 0.85716729658548041 0.4285836482927402 0 -0.25751904088064004 1 I I #
point $-1 51.228609093561573 7.8556842215036156 7.1125169577844547 #
edge $-1 $614 1 $614 0 $391 $-1 forward 7 unknown #
vertex $-1 $392 $615 #
ellipse-curve $-1 50.149567258114494 10.885419107420013 6.2874918032566463 0.51503808176128008 0 0.85716729658548041 0.4285836482927402 0 -0.25751904088064004 1 I I #
point $-1 51.228609093561573 10.885419107420013 7.1125169577844547 #
edge $-1 $616 1 $616 0 $395 $-1 forward 7 unknown #
vertex $-1 $396 $617 #
ellipse-curve $-1 50.149567258114494 13.915153993336411 6.2874918032566463 0.51503808176128008 0 0.85716729658548041 0.4285836482927402 0 -0.25751904088064004 1 I I #
point $-1 51.228609093561573 13.915153993336411 7.1125169577844547 #
plane-surface $-1 56.038087099826043 0 0 -1 0 0 0 0 1 forward_v I I I I #
coedge $-1 $404 $402 $406 $543 reversed $281 $-1 #
edge $-1 $417 -10.517381023909445 $545 10.517381023909445 $416 $618 forward 7 unknown #
vertex $-1 $543 $619 #
straight-curve $-1 -56.038087099826043 -27.55198823246063 0 0 0 -1 I I #
edge $-1 $541 -27.55198823246063 $545 27.55198823246063 $539 $620 forward 7 unknown #
straight-curve $-1 0 -27.55198823246063 -10.517381023909445 -1 0 0 I I #
vertex $-1 $409 $621 #
straight-curve $-1 0 27.55198823246063 -10.517381023909445 1 0 0 I I #
point $-1 56.038087099826043 27.55198823246063 -10.517381023909445 #
point $-1 56.038087099826043 -27.55198823246063 -10.517381023909445 #
straight-curve $-1 -56.038087099826043 0 10.517381023909445 0 -1 0 I I #
point $-1 -56.038087099826043 27.55198823246063 10.517381023909445 #
point $-1 -56.038087099826043 -27.55198823246063 10.517381023909445 #
straight-curve $-1 56.038087099826043 -27.55198823246063 0 0 0 -1 I I #
straight-curve $-1 56.038087099826043 27.55198823246063 0 0 0 -1 I I #
plane-surface $-1 56.038087099826043 0 0 -1 0 0 0 0 1 forward_v I I I I #
coedge $-1 $430 $429 $440 $566 reversed $186 $-1 #
coedge $-1 $622 $433 $430 $557 forward $427 $-1 #
edge $-1 $558 15.880266304008593 $623 27.55198823246063 $430 $624 forward 7 unknown #
vertex $-1 $557 $625 #
straight-curve $-1 -56.038087099826043 -15.880266304008593 4.1018813112582651 0 0 -1 I I #
coedge $-1 $433 $622 $435 $562 forward $427 $-1 #
straight-curve $-1 0 -15.880266304008593 10.517381023909445 -1 0 0 I I #
edge $-1 $569 -27.55198823246063 $436 -15.880266304008593 $435 $626 forward 7 unknown #
point $-1 56.038087099826043 -15.880266304008593 10.517381023909445 #
straight-curve $-1 -56.038087099826043 -10.858063634117306 5.8901442211236148 0 -1 0 I I #
coedge $-1 $440 $439 $622 $627 reversed $300 $-1 #
edge $-1 $623 -10.517381023909445 $441 -5.8901442211236148 $555 $628 forward 7 unknown #
point $-1 -56.038087099826043 -27.55198823246063 5.8901442211236148 #
point $-1 -56.038087099826043 -15.880266304008593 5.8901442211236148 #
vertex $-1 $562 $629 #
straight-curve $-1 56.038087099826043 -27.55198823246063 0 0 0 -1 I I #
coedge $-1 $459 $458 $451 $572 forward $448 $-1 #
edge $-1 $573 37.055166369362688 $576 47.473438271218562 $571 $630 forward 7 unknown #
vertex $-1 $463 $631 #
straight-curve $-1 -57.71470582698722 -4.5445919043120551 10.517381023909444 -1 0 0 I I #
edge $-1 $576 -0.030494933266512092 $460 9.1806686084236464 $459 $632 forward 7 unknown #
vertex $-1 $575 $633 #
straight-curve $-1 -56.038087099826051 -4.5445919043120551 0.09910912205356226 0.84804809178421925 0 0.52991927123019833 I I #
point $-1 -39.365367148450673 -4.5445919043120551 10.517381023909445 #
point $-1 -56.038087099826043 -13.755755446002214 0.099109122053566701 #
straight-curve $-1 -56.038087099826043 0 10.517381023909445 0 -1 0 I I #
vertex $-1 $466 $634 #
point $-1 -46.24379689307878 -11.913522737664181 3.9186089710615493 #
vertex $-1 $470 $635 #
point $-1 -46.24379689307878 -9.1501736751571343 3.9186089710615493 #
vertex $-1 $474 $636 #
point $-1 -46.24379689307878 -6.3868246126500878 3.9186089710615493 #
edge $-1 $588 68.489728973446432 $591 74.784419023935129 $479 $637 forward 7 unknown #
vertex $-1 $493 $638 #
straight-curve $-1 8.846776810199394 -4.2632553221619744 10.517381023909451 1 0 0 I I #
edge $-1 $591 -4.6564067326779846 $490 5.4427095537100048 $489 $639 forward 7 unknown #
vertex $-1 $590 $640 #
straight-curve $-1 -40.02994415053309 -4.2632553221619744 61.946188744352625 -0.85716729658548041 0 0.51503808176128008 I I #
point $-1 45.561963790711651 -4.2632553221619744 10.517381023909444 #
point $-1 56.038087099826036 5.8358609642260149 4.2226909734207609 #
straight-curve $-1 56.038087099826043 0 10.517381023909445 0 1 0 I I #
vertex $-1 $496 $641 #
point $-1 50.578150906407238 -2.2434320648843773 6.0299727623760067 #
vertex $-1 $500 $642 #
point $-1 50.578150906407238 0.7863028210320202 6.0299727623760067 #
vertex $-1 $504 $643 #
point $-1 50.578150906407238 3.8160377069484177 6.0299727623760067 #
coedge $-1 $521 $513 $510 $603 forward $508 $-1 #
edge $-1 $516 36.715186980512257 $610 47.191310289626649 $602 $644 forward 7 unknown #
edge $-1 $610 68.489728973446432 $517 74.784419023935129 $511 $645 forward 7 unknown #
straight-curve $-1 56.038087099826043 0.3931514105160101 4.2226909734207574 0 1 0 I I #
straight-curve $-1 45.561963790711651 0.3931514105160101 10.517381023909444 0 -1 0 I I #
point $-1 45.561963790711651 5.8358609642260149 10.517381023909444 #
point $-1 56.038087099826036 5.8358609642260149 4.2226909734207609 #
point $-1 45.561963790711651 15.934977250614008 10.517381023909444 #
vertex $-1 $523 $646 #
straight-curve $-1 56.038087099826043 0 10.517381023909445 0 1 0 I I #
vertex $-1 $526 $647 #
point $-1 50.578150906407238 7.8556842215036156 6.0299727623760067 #
vertex $-1 $530 $648 #
point $-1 50.578150906407238 10.885419107420013 6.0299727623760067 #
vertex $-1 $534 $649 #
point $-1 50.578150906407238 13.915153993336411 6.0299727623760067 #
straight-curve $-1 -56.038087099826043 27.55198823246063 0 0 0 -1 I I #
point $-1 -56.038087099826043 -27.55198823246063 -10.517381023909445 #
straight-curve $-1 -56.038087099826043 0 -10.517381023909445 0 1 0 I I #
point $-1 -56.038087099826043 27.55198823246063 -10.517381023909445 #
coedge $-1 $560 $556 $565 $627 forward $427 $-1 #
vertex $-1 $557 $650 #
straight-curve $-1 -56.038087099826043 0 10.517381023909445 0 -1 0 I I #
point $-1 -56.038087099826043 -15.880266304008593 10.517381023909445 #
straight-curve $-1 56.038087099826043 0 10.517381023909445 0 1 0 I I #
edge $-1 $623 -56.038087099826043 $569 56.038087099826043 $565 $651 forward 7 unknown #
straight-curve $-1 -56.038087099826043 -27.55198823246063 0 0 0 -1 I I #
point $-1 56.038087099826043 -27.55198823246063 10.517381023909445 #
straight-curve $-1 -56.038087099826043 -4.5445919043120551 47.572547393272131 0 0 -1 I I #
point $-1 -56.038087099826043 -4.5445919043120551 10.517381023909445 #
straight-curve $-1 -56.038087099826043 -4.5750868375785672 0.099109122053565882 0 -1 0 I I #
point $-1 -56.038087099826043 -4.5445919043120551 0.099109122053566701 #
point $-1 -46.402861303355792 -11.913522737664181 3.2296252895543405 #
point $-1 -46.402861303355792 -9.1501736751571343 3.2296252895543405 #
point $-1 -46.402861303355792 -6.3868246126500878 3.2296252895543405 #
straight-curve $-1 56.038087099826043 -4.2632553221619744 79.007109997355883 0 0 -1 I I #
point $-1 56.038087099826043 -4.2632553221619744 10.517381023909445 #
straight-curve $-1 56.038087099826043 0.3931514105160101 4.2226909734207574 0 1 0 I I #
point $-1 56.038087099826036 -4.2632553221619744 4.2226909734207609 #
point $-1 49.892048217233857 -2.2434320648843773 5.8589081549639062 #
point $-1 49.892048217233857 0.7863028210320202 5.8589081549639062 #
point $-1 49.892048217233857 3.8160377069484177 5.8589081549639062 #
straight-curve $-1 8.846776810199394 5.8358609642260149 10.517381023909451 1 0 0 I I #
straight-curve $-1 56.038087099826043 5.8358609642260149 79.007109997355883 0 0 -1 I I #
point $-1 56.038087099826043 5.8358609642260149 10.517381023909445 #
point $-1 49.892048217233857 7.8556842215036156 5.8589081549639062 #
point $-1 49.892048217233857 10.885419107420013 5.8589081549639062 #
point $-1 49.892048217233857 13.915153993336411 5.8589081549639062 #
point $-1 -56.038087099826043 -27.55198823246063 10.517381023909445 #
straight-curve $-1 0 -27.55198823246063 10.517381023909445 1 0 0 I I #
End-of-ACIS-data 