500 0 13 0           
7 Unknown 11 ACIS 5.0 NT 24 Fri Mar 26 19:00:58 1999 
-1 9.9999999999999995e-007 1e-010 
body $-1 $13 $-1 $14 #
body $-1 $15 $-1 $16 #
body $-1 $17 $-1 $18 #
body $-1 $19 $-1 $20 #
body $-1 $21 $-1 $22 #
body $-1 $23 $-1 $24 #
body $-1 $25 $-1 $26 #
body $-1 $27 $-1 $28 #
body $-1 $29 $-1 $30 #
body $-1 $31 $-1 $32 #
body $-1 $33 $-1 $34 #
body $-1 $35 $-1 $36 #
body $-1 $37 $-1 $38 #
lump $-1 $-1 $39 $0 #
transform $-1 1 0 0 0 1 0 0 0 1 41.995910519730216 20.993213145270452 6.6457899702716272 1 rotate no_reflect no_shear #
lump $-1 $-1 $40 $1 #
transform $-1 1 0 0 0 1 0 0 0 1 41.995910519730216 20.993213145270452 6.6457899702716272 1 rotate no_reflect no_shear #
lump $-1 $-1 $41 $2 #
transform $-1 1 0 0 0 1 0 0 0 1 41.995910519730216 20.993213145270452 6.6457899702716272 1 rotate no_reflect no_shear #
lump $-1 $-1 $42 $3 #
transform $-1 1 0 0 0 1 0 0 0 1 41.995910519730216 20.993213145270452 6.6457899702716272 1 rotate no_reflect no_shear #
lump $-1 $-1 $43 $4 #
transform $-1 1 0 0 0 1 0 0 0 1 41.995910519730216 20.993213145270452 6.6457899702716272 1 rotate no_reflect no_shear #
lump $-1 $-1 $44 $5 #
transform $-1 1 0 0 0 1 0 0 0 1 41.995910519730216 20.993213145270452 6.6457899702716272 1 rotate no_reflect no_shear #
lump $-1 $-1 $45 $6 #
transform $-1 1 0 0 0 1 0 0 0 1 41.995910519730216 20.993213145270452 6.6457899702716272 1 rotate no_reflect no_shear #
lump $-1 $-1 $46 $7 #
transform $-1 1 0 0 0 1 0 0 0 1 41.995910519730216 20.993213145270452 6.6457899702716272 1 rotate no_reflect no_shear #
lump $-1 $-1 $47 $8 #
transform $-1 1 0 0 0 1 0 0 0 1 41.995910519730216 20.993213145270452 6.6457899702716272 1 rotate no_reflect no_shear #
lump $-1 $-1 $48 $9 #
transform $-1 1 0 0 0 1 0 0 0 1 41.995910519730216 20.993213145270452 6.6457899702716272 1 rotate no_reflect no_shear #
lump $-1 $-1 $49 $10 #
transform $-1 1 0 0 0 1 0 0 0 1 41.995910519730216 20.993213145270452 6.6457899702716272 1 rotate no_reflect no_shear #
lump $-1 $-1 $50 $11 #
transform $-1 1 0 0 0 1 0 0 0 1 41.995910519730216 20.993213145270452 6.6457899702716272 1 rotate no_reflect no_shear #
lump $-1 $-1 $51 $12 #
transform $-1 1 0 0 0 1 0 0 0 1 41.995910519730216 20.993213145270452 6.6457899702716272 1 rotate no_reflect no_shear #
shell $-1 $-1 $-1 $52 $-1 $13 #
shell $-1 $-1 $-1 $53 $-1 $15 #
shell $-1 $-1 $-1 $54 $-1 $17 #
shell $-1 $-1 $-1 $55 $-1 $19 #
shell $-1 $-1 $-1 $56 $-1 $21 #
shell $-1 $-1 $-1 $57 $-1 $23 #
shell $-1 $-1 $-1 $58 $-1 $25 #
shell $-1 $-1 $-1 $59 $-1 $27 #
shell $-1 $-1 $-1 $60 $-1 $29 #
shell $-1 $-1 $-1 $61 $-1 $31 #
shell $-1 $-1 $-1 $62 $-1 $33 #
shell $-1 $-1 $-1 $63 $-1 $35 #
shell $-1 $-1 $-1 $64 $-1 $37 #
face $-1 $65 $66 $39 $-1 $67 forward single #
face $-1 $68 $69 $40 $-1 $70 reversed single #
face $-1 $71 $72 $41 $-1 $73 forward single #
face $-1 $74 $75 $42 $-1 $76 reversed single #
face $-1 $77 $78 $43 $-1 $79 forward single #
face $-1 $80 $81 $44 $-1 $82 reversed single #
face $-1 $83 $84 $45 $-1 $85 forward single #
face $-1 $86 $87 $46 $-1 $88 forward single #
face $-1 $89 $90 $47 $-1 $91 forward single #
face $-1 $92 $93 $48 $-1 $94 reversed single #
face $-1 $95 $96 $49 $-1 $97 forward single #
face $-1 $98 $99 $50 $-1 $100 forward single #
face $-1 $101 $102 $51 $-1 $103 forward single #
face $-1 $104 $105 $39 $-1 $106 reversed single #
loop $-1 $-1 $107 $52 #
plane-surface $-1 0 0 6.6457899702716272 0 0 1 1 0 0 forward_v I I I I #
face $-1 $108 $109 $40 $-1 $110 reversed single #
loop $-1 $-1 $111 $53 #
plane-surface $-1 -20.050090823184561 72.739051942480671 80.87167834894224 1 0 0 0 -0.86602541151947299 -0.49999998660252726 forward_v I I I I #
face $-1 $112 $113 $41 $-1 $114 forward single #
loop $-1 $115 $116 $54 #
cone-surface $-1 -12.755116510866486 19.367587336988777 4.3301234158307711 0 -0.86602541151947299 -0.49999998660252726 0.5 0 0 1 I I 0 1 0.5 forward I I I I #
face $-1 $117 $118 $42 $-1 $119 reversed single #
loop $-1 $-1 $120 $55 #
plane-surface $-1 5.4601421985484091 72.739051942480671 80.87167834894224 1 0 0 0 -0.86602541151947299 -0.49999998660252726 forward_v I I I I #
face $-1 $121 $122 $43 $-1 $123 forward single #
loop $-1 $124 $125 $56 #
cone-surface $-1 12.755116510866486 19.367587336988777 4.3301234158307711 0 -0.86602541151947299 -0.49999998660252726 0.5 0 0 1 I I 0 1 0.5 forward I I I I #
face $-1 $126 $127 $44 $-1 $128 reversed single #
loop $-1 $-1 $129 $57 #
plane-surface $-1 -21.559461055897319 -89.795285736474654 50.298201927880228 -1 0 0 0 -0.81915205242281985 0.57357642473473569 forward_v I I I I #
face $-1 $130 $131 $45 $-1 $132 forward single #
loop $-1 $133 $134 $58 #
cone-surface $-1 -30.724507483405787 -18.431672946156212 3.6993917331411161 0 0.81915205242281985 -0.57357642473473569 1 0 0 1 I I 0 1 1 forward I I I I #
face $-1 $135 $136 $46 $-1 $137 forward single #
loop $-1 $138 $139 $59 #
cone-surface $-1 -27.287615073090112 -18.431672946156212 3.6993917331411161 0 0.81915205242281985 -0.57357642473473569 1 0 0 1 I I 0 1 1 forward I I I I #
face $-1 $140 $141 $47 $-1 $142 forward single #
loop $-1 $143 $144 $60 #
cone-surface $-1 -23.850722662774437 -18.431672946156212 3.6993917331411161 0 0.81915205242281985 -0.57357642473473569 1 0 0 1 I I 0 1 1 forward I I I I #
face $-1 $145 $146 $48 $-1 $147 reversed single #
loop $-1 $-1 $148 $61 #
plane-surface $-1 33.015769090282902 -89.795285736474654 50.298201927880228 -1 0 0 0 -0.81915205242281985 0.57357642473473569 forward_v I I I I #
face $-1 $149 $150 $49 $-1 $151 forward single #
loop $-1 $152 $153 $62 #
cone-surface $-1 23.850722662774444 -18.431672946156212 3.6993917331411161 0 0.81915205242281985 -0.57357642473473569 1 0 0 1 I I 0 1 1 forward I I I I #
face $-1 $154 $155 $50 $-1 $156 forward single #
loop $-1 $157 $158 $63 #
cone-surface $-1 27.287615073090109 -18.431672946156212 3.6993917331411161 0 0.81915205242281985 -0.57357642473473569 1 0 0 1 I I 0 1 1 forward I I I I #
face $-1 $159 $160 $51 $-1 $161 forward single #
loop $-1 $162 $163 $64 #
cone-surface $-1 30.724507483405787 -18.431672946156212 3.6993917331411161 0 0.81915205242281985 -0.57357642473473569 1 0 0 1 I I 0 1 1 forward I I I I #
face $-1 $164 $165 $39 $-1 $166 reversed single #
loop $-1 $-1 $167 $65 #
plane-surface $-1 0 0 -6.6457899702716272 0 0 1 1 0 0 forward_v I I I I #
coedge $-1 $168 $169 $170 $171 forward $66 $-1 #
face $-1 $172 $173 $40 $-1 $174 reversed single #
loop $-1 $-1 $175 $68 #
plane-surface $-1 -12.755116510866486 5.6251201385748573e-007 38.875768954490155 0 0.86602541151947299 0.49999998660252726 1 0 0 forward_v I I I I #
coedge $-1 $176 $177 $178 $179 reversed $69 $-1 #
face $-1 $-1 $180 $41 $-1 $181 forward single #
loop $-1 $182 $183 $71 #
cone-surface $-1 -12.755116510866486 18.718068278349172 3.9551234258788757 0 -0.86602541151947299 -0.49999998660252726 0.25 0 0 1 I I -0.70710678118654746 0.70710678118654746 0.25 forward I I I I #
loop $-1 $-1 $184 $54 #
coedge $-1 $116 $116 $185 $186 reversed $72 $-1 #
face $-1 $187 $188 $42 $-1 $189 reversed single #
loop $-1 $-1 $190 $74 #
plane-surface $-1 12.755116510866486 5.6251201385748573e-007 38.875768954490155 0 0.86602541151947299 0.49999998660252726 1 0 0 forward_v I I I I #
coedge $-1 $191 $192 $193 $194 reversed $75 $-1 #
face $-1 $-1 $195 $43 $-1 $196 forward single #
loop $-1 $197 $198 $77 #
cone-surface $-1 12.755116510866486 18.718068278349172 3.9551234258788757 0 -0.86602541151947299 -0.49999998660252726 0.25 0 0 1 I I -0.70710678118654746 0.70710678118654746 0.25 forward I I I I #
loop $-1 $-1 $199 $56 #
coedge $-1 $125 $125 $200 $201 reversed $78 $-1 #
face $-1 $202 $203 $44 $-1 $204 reversed single #
loop $-1 $-1 $205 $80 #
plane-surface $-1 -27.287615073090112 -20.99321314527046 2.1224735091067615 0 -0.81915205242281985 0.57357642473473569 1 0 0 forward_v I I I I #
coedge $-1 $206 $207 $208 $209 reversed $81 $-1 #
face $-1 $-1 $210 $45 $-1 $211 forward single #
loop $-1 $212 $213 $83 #
cone-surface $-1 -30.724507483405787 -17.044186814941302 2.7278635142256658 0 0.81915205242281985 -0.57357642473473569 0.5 0 0 1 I I -0.70710678118654746 0.70710678118654746 0.5 forward I I I I #
loop $-1 $-1 $214 $58 #
coedge $-1 $134 $134 $215 $216 reversed $84 $-1 #
face $-1 $-1 $217 $46 $-1 $218 forward single #
loop $-1 $219 $220 $86 #
cone-surface $-1 -27.287615073090112 -17.044186814941302 2.7278635142256658 0 0.81915205242281985 -0.57357642473473569 0.5 0 0 1 I I -0.70710678118654746 0.70710678118654746 0.5 forward I I I I #
loop $-1 $-1 $221 $59 #
coedge $-1 $139 $139 $222 $223 reversed $87 $-1 #
face $-1 $-1 $224 $47 $-1 $225 forward single #
loop $-1 $226 $227 $89 #
cone-surface $-1 -23.850722662774437 -17.044186814941302 2.7278635142256658 0 0.81915205242281985 -0.57357642473473569 0.5 0 0 1 I I -0.70710678118654746 0.70710678118654746 0.5 forward I I I I #
loop $-1 $-1 $228 $60 #
coedge $-1 $144 $144 $229 $230 reversed $90 $-1 #
face $-1 $231 $232 $48 $-1 $233 reversed single #
loop $-1 $-1 $234 $92 #
plane-surface $-1 27.287615073090109 -20.99321314527046 2.1224735091067615 0 -0.81915205242281985 0.57357642473473569 1 0 0 forward_v I I I I #
coedge $-1 $235 $236 $237 $238 reversed $93 $-1 #
face $-1 $-1 $239 $49 $-1 $240 forward single #
loop $-1 $241 $242 $95 #
cone-surface $-1 23.850722662774444 -17.044186814941302 2.7278635142256658 0 0.81915205242281985 -0.57357642473473569 0.5 0 0 1 I I -0.70710678118654746 0.70710678118654746 0.5 forward I I I I #
loop $-1 $-1 $243 $62 #
coedge $-1 $153 $153 $244 $245 reversed $96 $-1 #
face $-1 $-1 $246 $50 $-1 $247 forward single #
loop $-1 $248 $249 $98 #
cone-surface $-1 27.287615073090109 -17.044186814941302 2.7278635142256658 0 0.81915205242281985 -0.57357642473473569 0.5 0 0 1 I I -0.70710678118654746 0.70710678118654746 0.5 forward I I I I #
loop $-1 $-1 $250 $63 #
coedge $-1 $158 $158 $251 $252 reversed $99 $-1 #
face $-1 $-1 $253 $51 $-1 $254 forward single #
loop $-1 $255 $256 $101 #
cone-surface $-1 30.724507483405787 -17.044186814941302 2.7278635142256658 0 0.81915205242281985 -0.57357642473473569 0.5 0 0 1 I I -0.70710678118654746 0.70710678118654746 0.5 forward I I I I #
loop $-1 $-1 $257 $64 #
coedge $-1 $163 $163 $258 $259 reversed $102 $-1 #
face $-1 $260 $261 $39 $-1 $262 reversed single #
loop $-1 $-1 $263 $104 #
plane-surface $-1 0 -20.993213145270452 0 0 1 0 0 0 1 forward_v I I I I #
coedge $-1 $264 $265 $266 $267 forward $105 $-1 #
coedge $-1 $268 $107 $269 $270 forward $66 $-1 #
coedge $-1 $107 $268 $271 $272 forward $66 $-1 #
coedge $-1 $273 $274 $107 $171 reversed $275 $-1 #
edge $-1 $276 -20.993213145270452 $277 20.993213145270452 $170 $278 forward 7 unknown #
face $-1 $279 $280 $40 $-1 $281 reversed single #
loop $-1 $-1 $282 $108 #
plane-surface $-1 -5.4601421985484091 72.739051942480671 80.87167834894224 -1 0 0 0 0.86602541151947299 0.49999998660252726 forward_v I I I I #
coedge $-1 $283 $284 $285 $286 reversed $109 $-1 #
coedge $-1 $177 $111 $287 $288 reversed $69 $-1 #
coedge $-1 $111 $176 $283 $289 reversed $69 $-1 #
coedge $-1 $285 $290 $111 $179 forward $291 $-1 #
edge $-1 $292 15.376312825969883 $293 17.761539031013765 $178 $294 forward 7 unknown #
loop $-1 $-1 $185 $112 #
plane-surface $-1 -12.755116510866486 5.6251201385748573e-007 38.875768954490155 0 0.86602541151947299 0.49999998660252726 1 0 0 forward_v I I I I #
loop $-1 $-1 $295 $71 #
coedge $-1 $183 $183 $184 $296 reversed $113 $-1 #
coedge $-1 $184 $184 $183 $296 forward $115 $-1 #
coedge $-1 $185 $185 $116 $186 forward $180 $-1 #
edge $-1 $297 -9.5194651582333438e-016 $297 6.2831853071795996 $185 $298 forward 7 unknown #
face $-1 $299 $300 $42 $-1 $301 forward single #
loop $-1 $-1 $302 $117 #
plane-surface $-1 20.050090823184561 72.739051942480671 80.87167834894224 -1 0 0 0 0.86602541151947299 0.49999998660252726 forward_v I I I I #
coedge $-1 $303 $304 $305 $306 reversed $118 $-1 #
coedge $-1 $192 $120 $307 $308 reversed $75 $-1 #
coedge $-1 $120 $191 $303 $309 reversed $75 $-1 #
coedge $-1 $305 $310 $120 $194 forward $300 $-1 #
edge $-1 $311 15.376312825969883 $312 17.761539031013765 $193 $313 forward 7 unknown #
loop $-1 $-1 $200 $121 #
plane-surface $-1 12.755116510866486 5.6251201385748573e-007 38.875768954490155 0 0.86602541151947299 0.49999998660252726 1 0 0 forward_v I I I I #
loop $-1 $-1 $314 $77 #
coedge $-1 $198 $198 $199 $315 reversed $122 $-1 #
coedge $-1 $199 $199 $198 $315 forward $124 $-1 #
coedge $-1 $200 $200 $125 $201 forward $195 $-1 #
edge $-1 $316 -9.5194651582333438e-016 $316 6.2831853071795996 $200 $317 forward 7 unknown #
face $-1 $318 $319 $44 $-1 $320 reversed single #
loop $-1 $-1 $321 $126 #
plane-surface $-1 -33.015769090282902 -89.795285736474654 50.298201927880228 1 0 0 0 0.81915205242281985 -0.57357642473473569 forward_v I I I I #
coedge $-1 $322 $323 $324 $325 reversed $127 $-1 #
coedge $-1 $207 $129 $326 $327 reversed $81 $-1 #
coedge $-1 $129 $206 $322 $328 reversed $81 $-1 #
coedge $-1 $324 $329 $129 $209 forward $330 $-1 #
edge $-1 $331 23.904429722966874 $332 27.071689911188358 $208 $333 forward 7 unknown #
loop $-1 $-1 $215 $130 #
plane-surface $-1 -27.287615073090112 -20.99321314527046 2.1224735091067615 0 -0.81915205242281985 0.57357642473473569 1 0 0 forward_v I I I I #
loop $-1 $-1 $334 $83 #
coedge $-1 $213 $213 $214 $335 reversed $131 $-1 #
coedge $-1 $214 $214 $213 $335 forward $133 $-1 #
coedge $-1 $215 $215 $134 $216 forward $210 $-1 #
edge $-1 $336 0 $336 6.2831853071796004 $215 $337 forward 7 unknown #
loop $-1 $-1 $222 $135 #
plane-surface $-1 -27.287615073090112 -20.99321314527046 2.1224735091067615 0 -0.81915205242281985 0.57357642473473569 1 0 0 forward_v I I I I #
loop $-1 $-1 $338 $86 #
coedge $-1 $220 $220 $221 $339 reversed $136 $-1 #
coedge $-1 $221 $221 $220 $339 forward $138 $-1 #
coedge $-1 $222 $222 $139 $223 forward $217 $-1 #
edge $-1 $340 0 $340 6.2831853071796004 $222 $341 forward 7 unknown #
loop $-1 $-1 $229 $140 #
plane-surface $-1 -27.287615073090112 -20.99321314527046 2.1224735091067615 0 -0.81915205242281985 0.57357642473473569 1 0 0 forward_v I I I I #
loop $-1 $-1 $342 $89 #
coedge $-1 $227 $227 $228 $343 reversed $141 $-1 #
coedge $-1 $228 $228 $227 $343 forward $143 $-1 #
coedge $-1 $229 $229 $144 $230 forward $224 $-1 #
edge $-1 $344 0 $344 6.2831853071796004 $229 $345 forward 7 unknown #
face $-1 $346 $347 $48 $-1 $348 reversed single #
loop $-1 $-1 $349 $145 #
plane-surface $-1 21.559461055897316 -89.795285736474654 50.298201927880228 1 0 0 0 0.81915205242281985 -0.57357642473473569 forward_v I I I I #
coedge $-1 $350 $351 $352 $353 reversed $146 $-1 #
coedge $-1 $236 $148 $354 $355 reversed $93 $-1 #
coedge $-1 $148 $235 $350 $356 reversed $93 $-1 #
coedge $-1 $352 $357 $148 $238 forward $358 $-1 #
edge $-1 $359 23.904429722966874 $360 27.071689911188358 $237 $361 forward 7 unknown #
loop $-1 $-1 $244 $149 #
plane-surface $-1 27.287615073090109 -20.99321314527046 2.1224735091067615 0 -0.81915205242281985 0.57357642473473569 1 0 0 forward_v I I I I #
loop $-1 $-1 $362 $95 #
coedge $-1 $242 $242 $243 $363 reversed $150 $-1 #
coedge $-1 $243 $243 $242 $363 forward $152 $-1 #
coedge $-1 $244 $244 $153 $245 forward $239 $-1 #
edge $-1 $364 0 $364 6.2831853071796004 $244 $365 forward 7 unknown #
loop $-1 $-1 $251 $154 #
plane-surface $-1 27.287615073090109 -20.99321314527046 2.1224735091067615 0 -0.81915205242281985 0.57357642473473569 1 0 0 forward_v I I I I #
loop $-1 $-1 $366 $98 #
coedge $-1 $249 $249 $250 $367 reversed $155 $-1 #
coedge $-1 $250 $250 $249 $367 forward $157 $-1 #
coedge $-1 $251 $251 $158 $252 forward $246 $-1 #
edge $-1 $368 0 $368 6.2831853071796004 $251 $369 forward 7 unknown #
loop $-1 $-1 $258 $159 #
plane-surface $-1 27.287615073090109 -20.99321314527046 2.1224735091067615 0 -0.81915205242281985 0.57357642473473569 1 0 0 forward_v I I I I #
loop $-1 $-1 $370 $101 #
coedge $-1 $256 $256 $257 $371 reversed $160 $-1 #
coedge $-1 $257 $257 $256 $371 forward $162 $-1 #
coedge $-1 $258 $258 $163 $259 forward $253 $-1 #
edge $-1 $372 0 $372 6.2831853071796004 $258 $373 forward 7 unknown #
face $-1 $374 $375 $39 $-1 $376 reversed single #
loop $-1 $-1 $377 $164 #
plane-surface $-1 -41.995910519730216 0 0 1 0 0 0 0 -1 forward_v I I I I #
coedge $-1 $378 $271 $379 $380 forward $165 $-1 #
coedge $-1 $381 $167 $378 $382 forward $105 $-1 #
coedge $-1 $167 $381 $383 $384 forward $105 $-1 #
coedge $-1 $274 $273 $167 $267 reversed $275 $-1 #
edge $-1 $385 -20.993213145270452 $386 20.993213145270452 $266 $387 forward 7 unknown #
coedge $-1 $169 $168 $388 $389 forward $66 $-1 #
coedge $-1 $390 $391 $168 $270 reversed $375 $-1 #
edge $-1 $277 -41.995910519730216 $392 41.995910519730216 $269 $393 forward 7 unknown #
coedge $-1 $263 $394 $169 $272 reversed $165 $-1 #
edge $-1 $395 -41.995910519730216 $276 41.995910519730216 $271 $396 forward 7 unknown #
coedge $-1 $266 $170 $394 $397 forward $275 $-1 #
coedge $-1 $170 $266 $390 $398 reversed $275 $-1 #
loop $-1 $-1 $273 $374 #
vertex $-1 $171 $399 #
vertex $-1 $171 $400 #
straight-curve $-1 41.995910519730216 0 6.6457899702716272 0 1 0 I I #
face $-1 $-1 $291 $40 $-1 $401 forward single #
loop $-1 $-1 $402 $172 #
plane-surface $-1 0 20.993213145270452 0 0 -1 0 0 0 -1 forward_v I I I I #
coedge $-1 $403 $404 $405 $406 reversed $173 $-1 #
coedge $-1 $407 $175 $177 $289 forward $109 $-1 #
coedge $-1 $175 $407 $403 $408 forward $109 $-1 #
coedge $-1 $405 $178 $175 $286 forward $291 $-1 #
edge $-1 $293 -13.672532567751318 $409 0.91741605688483396 $285 $410 forward 7 unknown #
coedge $-1 $411 $412 $176 $288 forward $280 $-1 #
edge $-1 $413 -37.92138232647865 $292 -33.790049204199491 $287 $414 forward 7 unknown #
edge $-1 $293 37.215973752629104 $413 41.986426290540876 $177 $415 forward 7 unknown #
coedge $-1 $178 $405 $411 $416 forward $291 $-1 #
loop $-1 $-1 $405 $279 #
vertex $-1 $288 $417 #
vertex $-1 $179 $418 #
straight-curve $-1 -20.050090823184561 36.369525971240336 6.645789970271629 0 -1 0 I I #
coedge $-1 $295 $295 $-1 $419 reversed $182 $-1 #
edge $-1 $420 0 $420 6.2831853071796004 $183 $421 forward 7 unknown #
vertex $-1 $186 $422 #
ellipse-curve $-1 -12.755116510866486 19.80060004274852 4.580123409132038 0 0.86602541151947299 0.49999998660252726 0.5 0 0 1 I I #
face $-1 $-1 $423 $42 $-1 $424 reversed single #
loop $-1 $-1 $193 $187 #
plane-surface $-1 0 0 6.6457899702716272 0 0 1 1 0 0 forward_v I I I I #
coedge $-1 $425 $426 $427 $428 reversed $188 $-1 #
coedge $-1 $429 $190 $192 $309 forward $118 $-1 #
coedge $-1 $190 $429 $425 $430 forward $118 $-1 #
coedge $-1 $427 $193 $190 $306 forward $300 $-1 #
edge $-1 $312 -0.91741605688483396 $431 13.672532567751318 $305 $432 forward 7 unknown #
coedge $-1 $433 $434 $191 $308 forward $423 $-1 #
edge $-1 $435 -37.92138232647865 $311 -33.790049204199491 $307 $436 forward 7 unknown #
edge $-1 $312 37.215973752629104 $435 41.986426290540876 $192 $437 forward 7 unknown #
coedge $-1 $193 $427 $433 $438 forward $300 $-1 #
vertex $-1 $194 $439 #
vertex $-1 $194 $440 #
straight-curve $-1 5.4601421985484091 36.369525971240336 6.645789970271629 0 -1 0 I I #
coedge $-1 $314 $314 $-1 $441 reversed $197 $-1 #
edge $-1 $442 0 $442 6.2831853071796004 $198 $443 forward 7 unknown #
vertex $-1 $201 $444 #
ellipse-curve $-1 12.755116510866486 19.80060004274852 4.580123409132038 0 0.86602541151947299 0.49999998660252726 0.5 0 0 1 I I #
face $-1 $-1 $330 $44 $-1 $445 forward single #
loop $-1 $-1 $446 $202 #
plane-surface $-1 0 -20.993213145270452 0 0 1 0 0 0 1 forward_v I I I I #
coedge $-1 $447 $448 $449 $450 reversed $203 $-1 #
coedge $-1 $451 $205 $207 $328 forward $127 $-1 #
coedge $-1 $205 $451 $447 $452 forward $127 $-1 #
coedge $-1 $449 $208 $205 $325 forward $330 $-1 #
edge $-1 $332 7.9156535193522632 $453 19.371961553737847 $324 $454 forward 7 unknown #
coedge $-1 $455 $456 $206 $327 forward $319 $-1 #
edge $-1 $457 -23.026627454833342 $331 -18.503310993668485 $326 $458 forward 7 unknown #
edge $-1 $332 -5.5219497378858744 $457 -1.2442367137257826e-014 $207 $459 forward 7 unknown #
coedge $-1 $208 $449 $455 $460 forward $330 $-1 #
loop $-1 $-1 $449 $318 #
vertex $-1 $327 $461 #
vertex $-1 $209 $462 #
straight-curve $-1 -21.559461055897319 -44.897642868237327 6.6457899702716254 0 1 0 I I #
coedge $-1 $334 $334 $-1 $463 reversed $212 $-1 #
edge $-1 $464 0 $464 6.2831853071796004 $213 $465 forward 7 unknown #
vertex $-1 $216 $466 #
ellipse-curve $-1 -30.724507483405787 -19.409583051159711 4.3841317396891988 0 -0.81915205242281985 0.57357642473473569 1 0 0 1 I I #
coedge $-1 $338 $338 $-1 $467 reversed $219 $-1 #
edge $-1 $468 0 $468 6.2831853071796004 $220 $469 forward 7 unknown #
vertex $-1 $223 $470 #
ellipse-curve $-1 -27.287615073090112 -19.409583051159711 4.3841317396891988 0 -0.81915205242281985 0.57357642473473569 1 0 0 1 I I #
coedge $-1 $342 $342 $-1 $471 reversed $226 $-1 #
edge $-1 $472 0 $472 6.2831853071796004 $227 $473 forward 7 unknown #
vertex $-1 $230 $474 #
ellipse-curve $-1 -23.850722662774437 -19.409583051159711 4.3841317396891988 0 -0.81915205242281985 0.57357642473473569 1 0 0 1 I I #
face $-1 $-1 $358 $48 $-1 $475 forward single #
loop $-1 $-1 $476 $231 #
plane-surface $-1 0 -20.993213145270452 0 0 1 0 0 0 1 forward_v I I I I #
coedge $-1 $477 $478 $479 $480 reversed $232 $-1 #
coedge $-1 $481 $234 $236 $356 forward $146 $-1 #
coedge $-1 $234 $481 $477 $482 forward $146 $-1 #
coedge $-1 $479 $237 $234 $353 forward $358 $-1 #
edge $-1 $360 -19.371961553737847 $483 -7.9156535193522615 $352 $484 forward 7 unknown #
coedge $-1 $485 $486 $235 $355 forward $347 $-1 #
edge $-1 $487 -23.026627454833342 $359 -18.503310993668485 $354 $488 forward 7 unknown #
edge $-1 $360 -5.5219497378858744 $487 -1.2442367137257826e-014 $236 $489 forward 7 unknown #
coedge $-1 $237 $479 $485 $490 forward $358 $-1 #
loop $-1 $-1 $479 $346 #
vertex $-1 $355 $491 #
vertex $-1 $238 $492 #
straight-curve $-1 33.015769090282902 -44.897642868237327 6.6457899702716254 0 1 0 I I #
coedge $-1 $362 $362 $-1 $493 reversed $241 $-1 #
edge $-1 $494 0 $494 6.2831853071796004 $242 $495 forward 7 unknown #
vertex $-1 $245 $496 #
ellipse-curve $-1 23.850722662774444 -19.409583051159711 4.3841317396891988 0 -0.81915205242281985 0.57357642473473569 1 0 0 1 I I #
coedge $-1 $366 $366 $-1 $497 reversed $248 $-1 #
edge $-1 $498 0 $498 6.2831853071796004 $249 $499 forward 7 unknown #
vertex $-1 $252 $500 #
ellipse-curve $-1 27.287615073090109 -19.409583051159711 4.3841317396891988 0 -0.81915205242281985 0.57357642473473569 1 0 0 1 I I #
coedge $-1 $370 $370 $-1 $501 reversed $255 $-1 #
edge $-1 $502 0 $502 6.2831853071796004 $256 $503 forward 7 unknown #
vertex $-1 $259 $504 #
ellipse-curve $-1 30.724507483405787 -19.409583051159711 4.3841317396891988 0 -0.81915205242281985 0.57357642473473569 1 0 0 1 I I #
face $-1 $-1 $275 $39 $-1 $505 reversed single #
loop $-1 $-1 $390 $260 #
plane-surface $-1 0 20.993213145270452 0 0 -1 0 0 0 -1 forward_v I I I I #
coedge $-1 $506 $388 $391 $507 forward $261 $-1 #
coedge $-1 $394 $263 $264 $382 reversed $165 $-1 #
coedge $-1 $388 $506 $263 $380 reversed $261 $-1 #
edge $-1 $395 -6.6457899702716272 $508 6.6457899702716272 $379 $509 forward 7 unknown #
coedge $-1 $265 $264 $506 $510 forward $105 $-1 #
edge $-1 $386 -41.995910519730216 $508 41.995910519730216 $378 $511 forward 7 unknown #
coedge $-1 $391 $390 $265 $384 reversed $375 $-1 #
edge $-1 $512 -41.995910519730216 $385 41.995910519730216 $383 $513 forward 7 unknown #
vertex $-1 $267 $514 #
vertex $-1 $397 $515 #
straight-curve $-1 41.995910519730216 0 -6.6457899702716272 0 -1 0 I I #
coedge $-1 $377 $379 $268 $389 reversed $261 $-1 #
edge $-1 $392 -20.993213145270452 $395 20.993213145270452 $388 $516 forward 7 unknown #
coedge $-1 $383 $269 $274 $398 forward $375 $-1 #
coedge $-1 $269 $383 $377 $507 reversed $375 $-1 #
vertex $-1 $270 $517 #
straight-curve $-1 0 20.993213145270452 6.6457899702716272 -1 0 0 I I #
coedge $-1 $271 $378 $273 $397 reversed $165 $-1 #
vertex $-1 $389 $518 #
straight-curve $-1 0 -20.993213145270452 6.6457899702716272 1 0 0 I I #
edge $-1 $276 -6.6457899702716272 $386 6.6457899702716272 $273 $519 forward 7 unknown #
edge $-1 $277 -6.6457899702716272 $385 6.6457899702716272 $274 $520 forward 7 unknown #
point $-1 41.995910519730216 -20.993213145270452 6.6457899702716272 #
point $-1 41.995910519730216 20.993213145270452 6.6457899702716272 #
plane-surface $-1 0 0 6.6457899702716272 0 0 1 1 0 0 forward_v I I I I #
coedge $-1 $412 $411 $404 $521 forward $280 $-1 #
coedge $-1 $404 $282 $284 $408 reversed $173 $-1 #
coedge $-1 $282 $403 $402 $521 reversed $173 $-1 #
coedge $-1 $290 $285 $282 $406 forward $291 $-1 #
edge $-1 $409 -17.761539031013765 $522 -15.376312825969883 $405 $523 forward 7 unknown #
coedge $-1 $284 $283 $412 $524 reversed $109 $-1 #
edge $-1 $525 -41.986426290540876 $409 -37.215973752629104 $403 $526 forward 7 unknown #
vertex $-1 $286 $527 #
straight-curve $-1 -6.3775582554332431 18.607986940226574 6.6457899702716254 1 0 0 I I #
coedge $-1 $402 $287 $290 $416 reversed $280 $-1 #
coedge $-1 $287 $402 $407 $524 forward $280 $-1 #
vertex $-1 $288 $528 #
straight-curve $-1 -20.050090823184561 20.993213145270452 40.43583917447112 0 0 1 I I #
straight-curve $-1 -20.050090823184561 5.6251201385748573e-007 38.875768954490155 0 0.49999998660252726 -0.86602541151947299 I I #
edge $-1 $522 5.4601421985484091 $292 20.050090823184561 $411 $529 forward 7 unknown #
point $-1 -20.050090823184561 20.993213145270452 6.6457899702716272 #
point $-1 -20.050090823184561 18.607986940226571 6.645789970271629 #
edge $-1 $530 1 $530 0 $295 $-1 forward 7 unknown #
vertex $-1 $296 $531 #
ellipse-curve $-1 -12.755116510866486 18.93457463122904 4.0801234225295078 0 0.86602541151947299 0.49999998660252726 0.5 0 0 1 I I #
point $-1 -12.255116510866486 19.800600042748513 4.5801234091320344 #
loop $-1 $-1 $307 $299 #
plane-surface $-1 0 20.993213145270452 0 0 -1 0 0 0 -1 forward_v I I I I #
coedge $-1 $426 $302 $304 $430 reversed $188 $-1 #
coedge $-1 $302 $425 $532 $533 reversed $188 $-1 #
coedge $-1 $310 $305 $302 $428 forward $300 $-1 #
edge $-1 $431 -17.761539031013765 $534 -15.376312825969883 $427 $535 forward 7 unknown #
coedge $-1 $304 $303 $434 $536 reversed $118 $-1 #
edge $-1 $537 -41.986426290540876 $431 -37.215973752629104 $425 $538 forward 7 unknown #
vertex $-1 $306 $539 #
straight-curve $-1 6.3775582554332431 18.607986940226574 6.6457899702716254 1 0 0 I I #
coedge $-1 $532 $307 $310 $438 reversed $423 $-1 #
coedge $-1 $307 $532 $429 $536 forward $423 $-1 #
vertex $-1 $308 $540 #
straight-curve $-1 5.4601421985484091 20.993213145270452 40.43583917447112 0 0 1 I I #
straight-curve $-1 5.4601421985484091 5.6251201385748573e-007 38.875768954490155 0 0.49999998660252726 -0.86602541151947299 I I #
edge $-1 $534 -20.050090823184561 $311 -5.4601421985484091 $433 $541 forward 7 unknown #
point $-1 5.4601421985484091 20.993213145270452 6.6457899702716272 #
point $-1 5.4601421985484091 18.607986940226571 6.645789970271629 #
edge $-1 $542 1 $542 0 $314 $-1 forward 7 unknown #
vertex $-1 $315 $543 #
ellipse-curve $-1 12.755116510866486 18.93457463122904 4.0801234225295078 0 0.86602541151947299 0.49999998660252726 0.5 0 0 1 I I #
point $-1 13.255116510866486 19.800600042748513 4.5801234091320344 #
plane-surface $-1 0 0 6.6457899702716272 0 0 1 1 0 0 forward_v I I I I #
coedge $-1 $456 $455 $448 $544 forward $319 $-1 #
coedge $-1 $448 $321 $323 $452 reversed $203 $-1 #
coedge $-1 $321 $447 $446 $544 reversed $203 $-1 #
coedge $-1 $329 $324 $321 $450 forward $330 $-1 #
edge $-1 $453 -27.071689911188358 $545 -23.904429722966874 $449 $546 forward 7 unknown #
coedge $-1 $323 $322 $456 $547 reversed $127 $-1 #
edge $-1 $548 1.2442367137257826e-014 $453 5.5219497378858744 $447 $549 forward 7 unknown #
vertex $-1 $325 $550 #
straight-curve $-1 -13.643807536545056 -17.825952957048973 6.6457899702716272 -1 0 0 I I #
coedge $-1 $446 $326 $329 $460 reversed $319 $-1 #
coedge $-1 $326 $446 $451 $547 forward $319 $-1 #
vertex $-1 $327 $551 #
straight-curve $-1 -21.559461055897319 -20.993213145270452 25.149100963940114 0 0 1 I I #
straight-curve $-1 -21.559461055897319 -20.99321314527046 2.1224735091067615 0 -0.57357642473473569 -0.81915205242281985 I I #
edge $-1 $545 -33.015769090282902 $331 -21.559461055897319 $455 $552 forward 7 unknown #
point $-1 -21.559461055897319 -20.993213145270452 6.6457899702716272 #
point $-1 -21.559461055897319 -17.825952957048969 6.6457899702716272 #
edge $-1 $553 1 $553 0 $334 $-1 forward 7 unknown #
vertex $-1 $335 $554 #
ellipse-curve $-1 -30.724507483405787 -17.453762841152713 3.0146517265930335 0 -0.81915205242281985 0.57357642473473569 1 0 0 1 I I #
point $-1 -29.724507483405787 -19.409583051159711 4.3841317396891988 #
edge $-1 $555 1 $555 0 $338 $-1 forward 7 unknown #
vertex $-1 $339 $556 #
ellipse-curve $-1 -27.287615073090112 -17.453762841152713 3.0146517265930335 0 -0.81915205242281985 0.57357642473473569 1 0 0 1 I I #
point $-1 -26.287615073090112 -19.409583051159711 4.3841317396891988 #
edge $-1 $557 1 $557 0 $342 $-1 forward 7 unknown #
vertex $-1 $343 $558 #
ellipse-curve $-1 -23.850722662774437 -17.453762841152713 3.0146517265930335 0 -0.81915205242281985 0.57357642473473569 1 0 0 1 I I #
point $-1 -22.850722662774437 -19.409583051159711 4.3841317396891988 #
plane-surface $-1 0 0 6.6457899702716272 0 0 1 1 0 0 forward_v I I I I #
coedge $-1 $486 $485 $478 $559 forward $347 $-1 #
coedge $-1 $478 $349 $351 $482 reversed $232 $-1 #
coedge $-1 $349 $477 $476 $559 reversed $232 $-1 #
coedge $-1 $357 $352 $349 $480 forward $358 $-1 #
edge $-1 $483 -27.071689911188358 $560 -23.904429722966874 $479 $561 forward 7 unknown #
coedge $-1 $351 $350 $486 $562 reversed $146 $-1 #
edge $-1 $563 1.2442367137257826e-014 $483 5.5219497378858744 $477 $564 forward 7 unknown #
vertex $-1 $353 $565 #
straight-curve $-1 13.643807536545054 -17.825952957048973 6.6457899702716272 -1 0 0 I I #
coedge $-1 $476 $354 $357 $490 reversed $347 $-1 #
coedge $-1 $354 $476 $481 $562 forward $347 $-1 #
vertex $-1 $355 $566 #
straight-curve $-1 33.015769090282902 -20.993213145270452 25.149100963940114 0 0 1 I I #
straight-curve $-1 33.015769090282902 -20.99321314527046 2.1224735091067615 0 -0.57357642473473569 -0.81915205242281985 I I #
edge $-1 $560 21.559461055897316 $359 33.015769090282902 $485 $567 forward 7 unknown #
point $-1 33.015769090282902 -20.993213145270452 6.6457899702716272 #
point $-1 33.015769090282902 -17.825952957048969 6.6457899702716272 #
edge $-1 $568 1 $568 0 $362 $-1 forward 7 unknown #
vertex $-1 $363 $569 #
ellipse-curve $-1 23.850722662774444 -17.453762841152713 3.0146517265930335 0 -0.81915205242281985 0.57357642473473569 1 0 0 1 I I #
point $-1 24.850722662774444 -19.409583051159711 4.3841317396891988 #
edge $-1 $570 1 $570 0 $366 $-1 forward 7 unknown #
vertex $-1 $367 $571 #
ellipse-curve $-1 27.287615073090109 -17.453762841152713 3.0146517265930335 0 -0.81915205242281985 0.57357642473473569 1 0 0 1 I I #
point $-1 28.287615073090109 -19.409583051159711 4.3841317396891988 #
edge $-1 $572 1 $572 0 $370 $-1 forward 7 unknown #
vertex $-1 $371 $573 #
ellipse-curve $-1 30.724507483405787 -17.453762841152713 3.0146517265930335 0 -0.81915205242281985 0.57357642473473569 1 0 0 1 I I #
point $-1 31.724507483405787 -19.409583051159711 4.3841317396891988 #
plane-surface $-1 41.995910519730216 0 0 -1 0 0 0 0 1 forward_v I I I I #
coedge $-1 $379 $377 $381 $510 reversed $261 $-1 #
edge $-1 $392 -6.6457899702716272 $512 6.6457899702716272 $391 $574 forward 7 unknown #
vertex $-1 $510 $575 #
straight-curve $-1 -41.995910519730216 -20.993213145270452 0 0 0 -1 I I #
edge $-1 $508 -20.993213145270452 $512 20.993213145270452 $506 $576 forward 7 unknown #
straight-curve $-1 0 -20.993213145270452 -6.6457899702716272 -1 0 0 I I #
vertex $-1 $384 $577 #
straight-curve $-1 0 20.993213145270452 -6.6457899702716272 1 0 0 I I #
point $-1 41.995910519730216 20.993213145270452 -6.6457899702716272 #
point $-1 41.995910519730216 -20.993213145270452 -6.6457899702716272 #
straight-curve $-1 -41.995910519730216 0 6.6457899702716272 0 -1 0 I I #
point $-1 -41.995910519730216 20.993213145270452 6.6457899702716272 #
point $-1 -41.995910519730216 -20.993213145270452 6.6457899702716272 #
straight-curve $-1 41.995910519730216 -20.993213145270452 0 0 0 -1 I I #
straight-curve $-1 41.995910519730216 20.993213145270452 0 0 0 -1 I I #
edge $-1 $522 33.790049204199491 $525 37.92138232647865 $402 $578 forward 7 unknown #
vertex $-1 $416 $579 #
straight-curve $-1 -5.4601421985484091 36.369525971240336 6.645789970271629 0 1 0 I I #
edge $-1 $525 -0.91741605688483396 $413 13.672532567751318 $412 $580 forward 7 unknown #
vertex $-1 $524 $581 #
straight-curve $-1 -5.4601421985484091 5.6251201385748573e-007 38.875768954490155 0 -0.49999998660252726 0.86602541151947299 I I #
point $-1 -5.4601421985484091 18.607986940226571 6.645789970271629 #
point $-1 -20.050090823184561 20.993213145270452 2.51445684799247 #
straight-curve $-1 0 20.993213145270452 6.6457899702716272 -1 0 0 I I #
vertex $-1 $419 $582 #
point $-1 -12.255116510866486 18.93457463122904 4.0801234225295078 #
coedge $-1 $434 $433 $426 $533 forward $423 $-1 #
edge $-1 $534 33.790049204199491 $537 37.92138232647865 $532 $583 forward 7 unknown #
vertex $-1 $438 $584 #
straight-curve $-1 20.050090823184561 36.369525971240336 6.645789970271629 0 1 0 I I #
edge $-1 $537 -13.672532567751318 $435 0.91741605688483396 $434 $585 forward 7 unknown #
vertex $-1 $536 $586 #
straight-curve $-1 20.050090823184561 5.6251201385748573e-007 38.875768954490155 0 -0.49999998660252726 0.86602541151947299 I I #
point $-1 20.050090823184561 18.607986940226571 6.645789970271629 #
point $-1 5.4601421985484091 20.993213145270452 2.51445684799247 #
straight-curve $-1 0 20.993213145270452 6.6457899702716272 -1 0 0 I I #
vertex $-1 $441 $587 #
point $-1 13.255116510866486 18.93457463122904 4.0801234225295078 #
edge $-1 $545 18.503310993668485 $548 23.026627454833342 $446 $588 forward 7 unknown #
vertex $-1 $460 $589 #
straight-curve $-1 -33.015769090282902 -44.897642868237327 6.6457899702716254 0 -1 0 I I #
edge $-1 $548 -19.371961553737847 $457 -7.9156535193522632 $456 $590 forward 7 unknown #
vertex $-1 $547 $591 #
straight-curve $-1 -33.015769090282902 -20.99321314527046 2.1224735091067615 0 0.57357642473473569 0.81915205242281985 I I #
point $-1 -33.015769090282902 -17.825952957048969 6.6457899702716272 #
point $-1 -21.559461055897319 -20.993213145270452 2.1224735091067717 #
straight-curve $-1 0 -20.993213145270452 6.6457899702716272 1 0 0 I I #
vertex $-1 $463 $592 #
point $-1 -29.724507483405787 -17.453762841152713 3.0146517265930335 #
vertex $-1 $467 $593 #
point $-1 -26.287615073090112 -17.453762841152713 3.0146517265930335 #
vertex $-1 $471 $594 #
point $-1 -22.850722662774437 -17.453762841152713 3.0146517265930335 #
edge $-1 $560 18.503310993668485 $563 23.026627454833342 $476 $595 forward 7 unknown #
vertex $-1 $490 $596 #
straight-curve $-1 21.559461055897316 -44.897642868237327 6.6457899702716254 0 -1 0 I I #
edge $-1 $563 7.9156535193522615 $487 19.371961553737847 $486 $597 forward 7 unknown #
vertex $-1 $562 $598 #
straight-curve $-1 21.559461055897316 -20.99321314527046 2.1224735091067615 0 0.57357642473473569 0.81915205242281985 I I #
point $-1 21.559461055897316 -17.825952957048969 6.6457899702716272 #
point $-1 33.015769090282902 -20.993213145270452 2.1224735091067717 #
straight-curve $-1 0 -20.993213145270452 6.6457899702716272 1 0 0 I I #
vertex $-1 $493 $599 #
point $-1 24.850722662774444 -17.453762841152713 3.0146517265930335 #
vertex $-1 $497 $600 #
point $-1 28.287615073090109 -17.453762841152713 3.0146517265930335 #
vertex $-1 $501 $601 #
point $-1 31.724507483405787 -17.453762841152713 3.0146517265930335 #
straight-curve $-1 -41.995910519730216 20.993213145270452 0 0 0 -1 I I #
point $-1 -41.995910519730216 -20.993213145270452 -6.6457899702716272 #
straight-curve $-1 -41.995910519730216 0 -6.6457899702716272 0 1 0 I I #
point $-1 -41.995910519730216 20.993213145270452 -6.6457899702716272 #
straight-curve $-1 -5.4601421985484091 20.993213145270452 40.43583917447112 0 0 -1 I I #
point $-1 -5.4601421985484091 20.993213145270452 6.6457899702716272 #
straight-curve $-1 -6.3775582554332431 20.993213145270452 2.51445684799247 -1 0 0 I I #
point $-1 -5.4601421985484091 20.993213145270452 2.51445684799247 #
point $-1 -12.755116510866486 18.501561925469304 3.830123429228244 #
straight-curve $-1 20.050090823184561 20.993213145270452 40.43583917447112 0 0 -1 I I #
point $-1 20.050090823184561 20.993213145270452 6.6457899702716272 #
straight-curve $-1 6.3775582554332431 20.993213145270452 2.51445684799247 -1 0 0 I I #
point $-1 20.050090823184561 20.993213145270452 2.51445684799247 #
point $-1 12.755116510866486 18.501561925469304 3.830123429228244 #
straight-curve $-1 -33.015769090282902 -20.993213145270452 25.149100963940114 0 0 -1 I I #
point $-1 -33.015769090282902 -20.993213145270452 6.6457899702716272 #
straight-curve $-1 -13.643807536545056 -20.993213145270452 2.1224735091067695 1 0 0 I I #
point $-1 -33.015769090282902 -20.993213145270452 2.1224735091067717 #
point $-1 -30.724507483405787 -16.634610788729891 2.441075301858298 #
point $-1 -27.287615073090112 -16.634610788729891 2.441075301858298 #
point $-1 -23.850722662774437 -16.634610788729891 2.441075301858298 #
straight-curve $-1 21.559461055897316 -20.993213145270452 25.149100963940114 0 0 -1 I I #
point $-1 21.559461055897316 -20.993213145270452 6.6457899702716272 #
straight-curve $-1 13.643807536545054 -20.993213145270452 2.1224735091067695 1 0 0 I I #
point $-1 21.559461055897316 -20.993213145270452 2.1224735091067717 #
point $-1 23.850722662774444 -16.634610788729891 2.441075301858298 #
point $-1 27.287615073090109 -16.634610788729891 2.441075301858298 #
point $-1 30.724507483405787 -16.634610788729891 2.441075301858298 #
End-of-ACIS-data 