500 0 18 0           
7 Unknown 11 ACIS 5.0 NT 24 Thu Mar 25 16:10:49 1999 
-1 9.9999999999999995e-007 1e-010 
body $-1 $18 $-1 $19 #
body $-1 $20 $-1 $21 #
body $-1 $22 $-1 $23 #
body $-1 $24 $-1 $25 #
body $-1 $26 $-1 $27 #
body $-1 $28 $-1 $29 #
body $-1 $30 $-1 $31 #
body $-1 $32 $-1 $33 #
body $-1 $34 $-1 $35 #
body $-1 $36 $-1 $37 #
body $-1 $38 $-1 $39 #
body $-1 $40 $-1 $41 #
body $-1 $42 $-1 $43 #
body $-1 $44 $-1 $45 #
body $-1 $46 $-1 $47 #
body $-1 $48 $-1 $49 #
body $-1 $50 $-1 $51 #
body $-1 $52 $-1 $53 #
lump $-1 $-1 $54 $0 #
transform $-1 1 0 0 0 1 0 0 0 1 68.028199102755821 41.503492093975076 20.618370464313031 1 rotate no_reflect no_shear #
lump $-1 $-1 $55 $1 #
transform $-1 1 0 0 0 1 0 0 0 1 68.028199102755821 41.503492093975076 20.618370464313031 1 rotate no_reflect no_shear #
lump $-1 $-1 $56 $2 #
transform $-1 1 0 0 0 1 0 0 0 1 68.028199102755821 41.503492093975076 20.618370464313031 1 rotate no_reflect no_shear #
lump $-1 $-1 $57 $3 #
transform $-1 1 0 0 0 1 0 0 0 1 68.028199102755821 41.503492093975076 20.618370464313031 1 rotate no_reflect no_shear #
lump $-1 $-1 $58 $4 #
transform $-1 1 0 0 0 1 0 0 0 1 68.028199102755821 41.503492093975076 20.618370464313031 1 rotate no_reflect no_shear #
lump $-1 $-1 $59 $5 #
transform $-1 1 0 0 0 1 0 0 0 1 68.028199102755821 41.503492093975076 20.618370464313031 1 rotate no_reflect no_shear #
lump $-1 $-1 $60 $6 #
transform $-1 1 0 0 0 1 0 0 0 1 68.028199102755821 41.503492093975076 20.618370464313031 1 rotate no_reflect no_shear #
lump $-1 $-1 $61 $7 #
transform $-1 1 0 0 0 1 0 0 0 1 68.028199102755821 41.503492093975076 20.618370464313031 1 rotate no_reflect no_shear #
lump $-1 $-1 $62 $8 #
transform $-1 1 0 0 0 1 0 0 0 1 68.028199102755821 41.503492093975076 20.618370464313031 1 rotate no_reflect no_shear #
lump $-1 $-1 $63 $9 #
transform $-1 1 0 0 0 1 0 0 0 1 68.028199102755821 41.503492093975076 20.618370464313031 1 rotate no_reflect no_shear #
lump $-1 $-1 $64 $10 #
transform $-1 1 0 0 0 1 0 0 0 1 68.028199102755821 41.503492093975076 20.618370464313031 1 rotate no_reflect no_shear #
lump $-1 $-1 $65 $11 #
transform $-1 1 0 0 0 1 0 0 0 1 68.028199102755821 41.503492093975076 20.618370464313031 1 rotate no_reflect no_shear #
lump $-1 $-1 $66 $12 #
transform $-1 1 0 0 0 1 0 0 0 1 68.028199102755821 41.503492093975076 20.618370464313031 1 rotate no_reflect no_shear #
lump $-1 $-1 $67 $13 #
transform $-1 1 0 0 0 1 0 0 0 1 68.028199102755821 41.503492093975076 20.618370464313031 1 rotate no_reflect no_shear #
lump $-1 $-1 $68 $14 #
transform $-1 1 0 0 0 1 0 0 0 1 68.028199102755821 41.503492093975076 20.618370464313031 1 rotate no_reflect no_shear #
lump $-1 $-1 $69 $15 #
transform $-1 1 0 0 0 1 0 0 0 1 68.028199102755821 41.503492093975076 20.618370464313031 1 rotate no_reflect no_shear #
lump $-1 $-1 $70 $16 #
transform $-1 1 0 0 0 1 0 0 0 1 68.028199102755821 41.503492093975076 20.618370464313031 1 rotate no_reflect no_shear #
lump $-1 $-1 $71 $17 #
transform $-1 1 0 0 0 1 0 0 0 1 68.028199102755821 41.503492093975076 20.618370464313031 1 rotate no_reflect no_shear #
shell $-1 $-1 $-1 $72 $-1 $18 #
shell $-1 $-1 $-1 $73 $-1 $20 #
shell $-1 $-1 $-1 $74 $-1 $22 #
shell $-1 $-1 $-1 $75 $-1 $24 #
shell $-1 $-1 $-1 $76 $-1 $26 #
shell $-1 $-1 $-1 $77 $-1 $28 #
shell $-1 $-1 $-1 $78 $-1 $30 #
shell $-1 $-1 $-1 $79 $-1 $32 #
shell $-1 $-1 $-1 $80 $-1 $34 #
shell $-1 $-1 $-1 $81 $-1 $36 #
shell $-1 $-1 $-1 $82 $-1 $38 #
shell $-1 $-1 $-1 $83 $-1 $40 #
shell $-1 $-1 $-1 $84 $-1 $42 #
shell $-1 $-1 $-1 $85 $-1 $44 #
shell $-1 $-1 $-1 $86 $-1 $46 #
shell $-1 $-1 $-1 $87 $-1 $48 #
shell $-1 $-1 $-1 $88 $-1 $50 #
shell $-1 $-1 $-1 $89 $-1 $52 #
face $-1 $90 $91 $54 $-1 $92 forward single #
face $-1 $93 $94 $55 $-1 $95 reversed single #
face $-1 $96 $97 $56 $-1 $98 reversed single #
face $-1 $99 $100 $57 $-1 $101 reversed single #
face $-1 $102 $103 $58 $-1 $104 forward single #
face $-1 $105 $106 $59 $-1 $107 forward single #
face $-1 $108 $109 $60 $-1 $110 forward single #
face $-1 $111 $112 $61 $-1 $113 reversed single #
face $-1 $114 $115 $62 $-1 $116 forward single #
face $-1 $117 $118 $63 $-1 $119 forward single #
face $-1 $120 $121 $64 $-1 $122 forward single #
face $-1 $123 $124 $65 $-1 $125 reversed single #
face $-1 $126 $127 $66 $-1 $128 forward single #
face $-1 $129 $130 $67 $-1 $131 forward single #
face $-1 $132 $133 $68 $-1 $134 forward single #
face $-1 $135 $136 $69 $-1 $137 reversed single #
face $-1 $138 $139 $70 $-1 $140 forward single #
face $-1 $141 $142 $71 $-1 $143 forward single #
face $-1 $144 $145 $54 $-1 $146 reversed single #
loop $-1 $-1 $147 $72 #
plane-surface $-1 0 0 20.618370464313031 0 0 1 1 0 0 forward_v I I I I #
face $-1 $148 $149 $55 $-1 $150 reversed single #
loop $-1 $-1 $151 $73 #
plane-surface $-1 0 -14.776881399911808 17.844609093307497 0 -1 0 0 0 -1 forward_v I I I I #
face $-1 $152 $153 $56 $-1 $154 reversed single #
loop $-1 $-1 $155 $74 #
plane-surface $-1 0 28.140186746943435 15.070847722301966 0 0 1 1 0 0 forward_v I I I I #
face $-1 $156 $157 $57 $-1 $158 reversed single #
loop $-1 $-1 $159 $75 #
plane-surface $-1 -68.028199102755835 -11.847674872376491 9.1503472567424211 -0.54463904215088732 0 0.83867056331134215 0.83867056331134215 0 0.54463904215088732 forward_v I I I I #
face $-1 $160 $161 $58 $-1 $162 forward single #
loop $-1 $163 $164 $76 #
cone-surface $-1 -58.8571304368201 -13.605198788897681 14.358548480652042 0.54463904215088732 0 -0.83867056331134215 0.41933528165567108 0 0.27231952107544366 1 I I 0 1 0.5 forward I I I I #
face $-1 $165 $166 $59 $-1 $167 forward single #
loop $-1 $168 $169 $77 #
cone-surface $-1 -58.8571304368201 -11.847674872376491 14.358548480652042 0.54463904215088732 0 -0.83867056331134215 0.41933528165567108 0 0.27231952107544366 1 I I 0 1 0.5 forward I I I I #
face $-1 $170 $171 $60 $-1 $172 forward single #
loop $-1 $173 $174 $78 #
cone-surface $-1 -58.8571304368201 -10.0901509558553 14.358548480652042 0.54463904215088732 0 -0.83867056331134215 0.41933528165567108 0 0.27231952107544366 1 I I 0 1 0.5 forward I I I I #
face $-1 $175 $176 $61 $-1 $177 reversed single #
loop $-1 $-1 $178 $79 #
plane-surface $-1 -142.12982549990539 -4.9256271333039372 123.25684338187115 0 1 0 -0.54463904215088732 0 0.83867056331134215 forward_v I I I I #
face $-1 $179 $180 $62 $-1 $181 forward single #
loop $-1 $182 $183 $80 #
cone-surface $-1 -58.8571304368201 -3.7539445222898067 14.358548480652042 0.54463904215088732 0 -0.83867056331134215 0.41933528165567108 0 0.27231952107544366 1 I I 0 1 0.5 forward I I I I #
face $-1 $184 $185 $63 $-1 $186 forward single #
loop $-1 $187 $188 $81 #
cone-surface $-1 -58.8571304368201 -1.9964206057686198 14.358548480652042 0.54463904215088732 0 -0.83867056331134215 0.41933528165567108 0 0.27231952107544366 1 I I 0 1 0.5 forward I I I I #
face $-1 $189 $190 $64 $-1 $191 forward single #
loop $-1 $192 $193 $82 #
cone-surface $-1 -58.8571304368201 -0.2388966892474258 14.358548480652042 0.54463904215088732 0 -0.83867056331134215 0.41933528165567108 0 0.27231952107544366 1 I I 0 1 0.5 forward I I I I #
face $-1 $194 $195 $65 $-1 $196 reversed single #
loop $-1 $-1 $197 $83 #
plane-surface $-1 -142.12982549990539 4.9256271333039372 123.25684338187115 0 1 0 -0.54463904215088732 0 0.83867056331134215 forward_v I I I I #
face $-1 $198 $199 $66 $-1 $200 forward single #
loop $-1 $201 $202 $84 #
cone-surface $-1 -58.8571304368201 6.0973097443180677 14.358548480652042 0.54463904215088732 0 -0.83867056331134215 0.41933528165567108 0 0.27231952107544366 1 I I 0 1 0.5 forward I I I I #
face $-1 $203 $204 $67 $-1 $205 forward single #
loop $-1 $206 $207 $85 #
cone-surface $-1 -58.8571304368201 7.8548336608392546 14.358548480652042 0.54463904215088732 0 -0.83867056331134215 0.41933528165567108 0 0.27231952107544366 1 I I 0 1 0.5 forward I I I I #
face $-1 $208 $209 $68 $-1 $210 forward single #
loop $-1 $211 $212 $86 #
cone-surface $-1 -58.8571304368201 9.6123575773604486 14.358548480652042 0.54463904215088732 0 -0.83867056331134215 0.41933528165567108 0 0.27231952107544366 1 I I 0 1 0.5 forward I I I I #
face $-1 $213 $214 $69 $-1 $215 reversed single #
loop $-1 $-1 $216 $87 #
plane-surface $-1 -49.800097564428299 10.703318598401431 70.444562722576407 0.50000000669873634 0 0.8660253999169214 0.8660253999169214 0 -0.50000000669873634 forward_v I I I I #
face $-1 $217 $218 $70 $-1 $219 forward single #
loop $-1 $220 $221 $88 #
cone-surface $-1 52.014798264503391 8.9575059691826979 11.084353886405369 -0.50000000669873634 0 -0.8660253999169214 0.21650634997923035 0 -0.12500000167468409 1 I I 0 1 0.25 forward I I I I #
face $-1 $222 $223 $71 $-1 $224 forward single #
loop $-1 $225 $226 $89 #
cone-surface $-1 52.014798264503391 12.449131227620164 11.084353886405369 -0.50000000669873634 0 -0.8660253999169214 0.21650634997923035 0 -0.12500000167468409 1 I I 0 1 0.25 forward I I I I #
face $-1 $227 $228 $54 $-1 $229 reversed single #
loop $-1 $-1 $230 $90 #
plane-surface $-1 0 0 -20.618370464313031 0 0 1 1 0 0 forward_v I I I I #
coedge $-1 $231 $232 $233 $234 forward $91 $-1 #
face $-1 $235 $236 $55 $-1 $237 reversed single #
loop $-1 $-1 $238 $93 #
plane-surface $-1 0 -28.140186746943442 15.070847722301966 0 0 1 1 0 0 forward_v I I I I #
coedge $-1 $239 $240 $241 $242 reversed $94 $-1 #
face $-1 $243 $244 $56 $-1 $245 forward single #
loop $-1 $-1 $246 $96 #
plane-surface $-1 0 14.776881399911801 17.844609093307497 0 1 0 0 0 1 forward_v I I I I #
coedge $-1 $247 $248 $249 $250 reversed $97 $-1 #
face $-1 $251 $252 $57 $-1 $253 reversed single #
loop $-1 $-1 $254 $99 #
plane-surface $-1 -142.12982549990539 -8.9184683448411732 123.25684338187115 0 -1 0 0.54463904215088732 0 -0.83867056331134215 forward_v I I I I #
coedge $-1 $255 $256 $257 $258 reversed $100 $-1 #
face $-1 $-1 $259 $58 $-1 $260 forward single #
loop $-1 $261 $262 $102 #
cone-surface $-1 -58.379505416648392 -13.605198788897681 13.623070459948522 0.54463904215088732 0 -0.83867056331134215 0.20966764082783554 0 0.13615976053772183 1 I I -0.70710678118654746 0.70710678118654746 0.25 forward I I I I #
loop $-1 $-1 $263 $76 #
coedge $-1 $164 $164 $264 $265 reversed $103 $-1 #
face $-1 $-1 $266 $59 $-1 $267 forward single #
loop $-1 $268 $269 $105 #
cone-surface $-1 -58.379505416648392 -11.847674872376491 13.623070459948522 0.54463904215088732 0 -0.83867056331134215 0.20966764082783554 0 0.13615976053772183 1 I I -0.70710678118654746 0.70710678118654746 0.25 forward I I I I #
loop $-1 $-1 $270 $77 #
coedge $-1 $169 $169 $271 $272 reversed $106 $-1 #
face $-1 $-1 $273 $60 $-1 $274 forward single #
loop $-1 $275 $276 $108 #
cone-surface $-1 -58.379505416648392 -10.0901509558553 13.623070459948522 0.54463904215088732 0 -0.83867056331134215 0.20966764082783554 0 0.13615976053772183 1 I I -0.70710678118654746 0.70710678118654746 0.25 forward I I I I #
loop $-1 $-1 $277 $78 #
coedge $-1 $174 $174 $278 $279 reversed $109 $-1 #
face $-1 $280 $281 $61 $-1 $282 reversed single #
loop $-1 $-1 $283 $111 #
plane-surface $-1 -68.028199102755835 -1.9964206057686198 9.1503472567424211 -0.54463904215088732 0 0.83867056331134215 0.83867056331134215 0 0.54463904215088732 forward_v I I I I #
coedge $-1 $284 $285 $286 $287 reversed $112 $-1 #
face $-1 $-1 $288 $62 $-1 $289 forward single #
loop $-1 $290 $291 $114 #
cone-surface $-1 -58.379505416648392 -3.7539445222898067 13.623070459948522 0.54463904215088732 0 -0.83867056331134215 0.20966764082783554 0 0.13615976053772183 1 I I -0.70710678118654746 0.70710678118654746 0.25 forward I I I I #
loop $-1 $-1 $292 $80 #
coedge $-1 $183 $183 $293 $294 reversed $115 $-1 #
face $-1 $-1 $295 $63 $-1 $296 forward single #
loop $-1 $297 $298 $117 #
cone-surface $-1 -58.379505416648392 -1.9964206057686198 13.623070459948522 0.54463904215088732 0 -0.83867056331134215 0.20966764082783554 0 0.13615976053772183 1 I I -0.70710678118654746 0.70710678118654746 0.25 forward I I I I #
loop $-1 $-1 $299 $81 #
coedge $-1 $188 $188 $300 $301 reversed $118 $-1 #
face $-1 $-1 $302 $64 $-1 $303 forward single #
loop $-1 $304 $305 $120 #
cone-surface $-1 -58.379505416648392 -0.2388966892474258 13.623070459948522 0.54463904215088732 0 -0.83867056331134215 0.20966764082783554 0 0.13615976053772183 1 I I -0.70710678118654746 0.70710678118654746 0.25 forward I I I I #
loop $-1 $-1 $306 $82 #
coedge $-1 $193 $193 $307 $308 reversed $121 $-1 #
face $-1 $309 $310 $65 $-1 $311 reversed single #
loop $-1 $-1 $312 $123 #
plane-surface $-1 -68.028199102755835 7.8548336608392546 9.1503472567424211 -0.54463904215088732 0 0.83867056331134215 0.83867056331134215 0 0.54463904215088732 forward_v I I I I #
coedge $-1 $313 $314 $315 $316 reversed $124 $-1 #
face $-1 $-1 $317 $66 $-1 $318 forward single #
loop $-1 $319 $320 $126 #
cone-surface $-1 -58.379505416648392 6.0973097443180677 13.623070459948522 0.54463904215088732 0 -0.83867056331134215 0.20966764082783554 0 0.13615976053772183 1 I I -0.70710678118654746 0.70710678118654746 0.25 forward I I I I #
loop $-1 $-1 $321 $84 #
coedge $-1 $202 $202 $322 $323 reversed $127 $-1 #
face $-1 $-1 $324 $67 $-1 $325 forward single #
loop $-1 $326 $327 $129 #
cone-surface $-1 -58.379505416648392 7.8548336608392546 13.623070459948522 0.54463904215088732 0 -0.83867056331134215 0.20966764082783554 0 0.13615976053772183 1 I I -0.70710678118654746 0.70710678118654746 0.25 forward I I I I #
loop $-1 $-1 $328 $85 #
coedge $-1 $207 $207 $329 $330 reversed $130 $-1 #
face $-1 $-1 $331 $68 $-1 $332 forward single #
loop $-1 $333 $334 $132 #
cone-surface $-1 -58.379505416648392 9.6123575773604486 13.623070459948522 0.54463904215088732 0 -0.83867056331134215 0.20966764082783554 0 0.13615976053772183 1 I I -0.70710678118654746 0.70710678118654746 0.25 forward I I I I #
loop $-1 $-1 $335 $86 #
coedge $-1 $212 $212 $336 $337 reversed $133 $-1 #
face $-1 $338 $339 $69 $-1 $340 forward single #
loop $-1 $-1 $341 $135 #
plane-surface $-1 18.228102449733456 6.6297557968910539 188.27285938976053 0 1 0 0.50000000669873634 0 0.8660253999169214 forward_v I I I I #
coedge $-1 $342 $343 $344 $345 reversed $136 $-1 #
face $-1 $-1 $346 $70 $-1 $347 forward single #
loop $-1 $348 $349 $138 #
cone-surface $-1 51.702298260316681 8.9575059691826979 10.543088011457293 -0.50000000669873634 0 -0.8660253999169214 0.10825317498961518 0 -0.062500000837342043 1 I I -0.70710678118654746 0.70710678118654746 0.125 forward I I I I #
loop $-1 $-1 $350 $88 #
coedge $-1 $221 $221 $351 $352 reversed $139 $-1 #
face $-1 $-1 $353 $71 $-1 $354 forward single #
loop $-1 $355 $356 $141 #
cone-surface $-1 51.702298260316681 12.449131227620164 10.543088011457293 -0.50000000669873634 0 -0.8660253999169214 0.10825317498961518 0 -0.062500000837342043 1 I I -0.70710678118654746 0.70710678118654746 0.125 forward I I I I #
loop $-1 $-1 $357 $89 #
coedge $-1 $226 $226 $358 $359 reversed $142 $-1 #
face $-1 $360 $361 $54 $-1 $362 reversed single #
loop $-1 $-1 $363 $144 #
plane-surface $-1 0 -41.503492093975076 0 0 1 0 0 0 1 forward_v I I I I #
coedge $-1 $364 $365 $366 $367 forward $145 $-1 #
coedge $-1 $368 $147 $369 $370 forward $91 $-1 #
coedge $-1 $147 $368 $371 $372 forward $91 $-1 #
coedge $-1 $373 $374 $147 $234 reversed $375 $-1 #
edge $-1 $376 -41.503492093975076 $377 41.503492093975076 $233 $378 forward 7 unknown #
face $-1 $379 $380 $55 $-1 $381 reversed single #
loop $-1 $-1 $382 $148 #
plane-surface $-1 -68.028199102755821 0 0 1 0 0 0 0 -1 forward_v I I I I #
coedge $-1 $383 $384 $385 $386 reversed $149 $-1 #
coedge $-1 $387 $151 $388 $389 reversed $94 $-1 #
coedge $-1 $151 $387 $382 $390 reversed $94 $-1 #
coedge $-1 $391 $392 $151 $242 forward $393 $-1 #
edge $-1 $394 -68.028199102755821 $395 68.028199102755821 $241 $396 forward 7 unknown #
face $-1 $397 $398 $56 $-1 $399 reversed single #
loop $-1 $-1 $400 $152 #
plane-surface $-1 0 0 20.618370464313031 0 0 1 1 0 0 forward_v I I I I #
coedge $-1 $401 $402 $400 $403 reversed $153 $-1 #
coedge $-1 $404 $155 $405 $406 forward $97 $-1 #
coedge $-1 $155 $404 $407 $408 reversed $97 $-1 #
coedge $-1 $409 $410 $155 $250 forward $398 $-1 #
edge $-1 $411 0.70678802644008343 $412 27.433398720503352 $249 $413 forward 7 unknown #
face $-1 $414 $415 $57 $-1 $416 forward single #
loop $-1 $-1 $417 $156 #
plane-surface $-1 -68.028199102755821 0 0 1 0 0 0 0 -1 forward_v I I I I #
coedge $-1 $418 $419 $420 $421 reversed $157 $-1 #
coedge $-1 $422 $159 $423 $424 reversed $100 $-1 #
coedge $-1 $159 $422 $418 $425 forward $100 $-1 #
coedge $-1 $420 $426 $159 $258 forward $415 $-1 #
edge $-1 $427 -8.8530439637235627 $428 -2.9946309086529279 $257 $429 forward 7 unknown #
loop $-1 $-1 $264 $160 #
plane-surface $-1 -68.028199102755835 -11.847674872376491 9.1503472567424211 -0.54463904215088732 0 0.83867056331134215 0.83867056331134215 0 0.54463904215088732 forward_v I I I I #
loop $-1 $-1 $430 $102 #
coedge $-1 $262 $262 $263 $431 reversed $161 $-1 #
coedge $-1 $263 $263 $262 $431 forward $163 $-1 #
coedge $-1 $264 $264 $164 $265 forward $259 $-1 #
edge $-1 $432 0 $432 6.2831853071796004 $264 $433 forward 7 unknown #
loop $-1 $-1 $271 $165 #
plane-surface $-1 -68.028199102755835 -11.847674872376491 9.1503472567424211 -0.54463904215088732 0 0.83867056331134215 0.83867056331134215 0 0.54463904215088732 forward_v I I I I #
loop $-1 $-1 $434 $105 #
coedge $-1 $269 $269 $270 $435 reversed $166 $-1 #
coedge $-1 $270 $270 $269 $435 forward $168 $-1 #
coedge $-1 $271 $271 $169 $272 forward $266 $-1 #
edge $-1 $436 0 $436 6.2831853071796004 $271 $437 forward 7 unknown #
loop $-1 $-1 $278 $170 #
plane-surface $-1 -68.028199102755835 -11.847674872376491 9.1503472567424211 -0.54463904215088732 0 0.83867056331134215 0.83867056331134215 0 0.54463904215088732 forward_v I I I I #
loop $-1 $-1 $438 $108 #
coedge $-1 $276 $276 $277 $439 reversed $171 $-1 #
coedge $-1 $277 $277 $276 $439 forward $173 $-1 #
coedge $-1 $278 $278 $174 $279 forward $273 $-1 #
edge $-1 $440 0 $440 6.2831853071796004 $278 $441 forward 7 unknown #
face $-1 $442 $443 $61 $-1 $444 forward single #
loop $-1 $-1 $445 $175 #
plane-surface $-1 -142.12982549990539 0.93278592176669761 123.25684338187115 0 -1 0 0.54463904215088732 0 -0.83867056331134215 forward_v I I I I #
coedge $-1 $446 $447 $448 $449 reversed $176 $-1 #
coedge $-1 $285 $178 $450 $451 reversed $112 $-1 #
coedge $-1 $178 $284 $446 $452 reversed $112 $-1 #
coedge $-1 $448 $453 $178 $287 forward $443 $-1 #
edge $-1 $454 3.0367136471968763 $455 20.695920459800348 $286 $456 forward 7 unknown #
loop $-1 $-1 $293 $179 #
plane-surface $-1 -68.028199102755835 -1.9964206057686198 9.1503472567424211 -0.54463904215088732 0 0.83867056331134215 0.83867056331134215 0 0.54463904215088732 forward_v I I I I #
loop $-1 $-1 $457 $114 #
coedge $-1 $291 $291 $292 $458 reversed $180 $-1 #
coedge $-1 $292 $292 $291 $458 forward $182 $-1 #
coedge $-1 $293 $293 $183 $294 forward $288 $-1 #
edge $-1 $459 0 $459 6.2831853071796004 $293 $460 forward 7 unknown #
loop $-1 $-1 $300 $184 #
plane-surface $-1 -68.028199102755835 -1.9964206057686198 9.1503472567424211 -0.54463904215088732 0 0.83867056331134215 0.83867056331134215 0 0.54463904215088732 forward_v I I I I #
loop $-1 $-1 $461 $117 #
coedge $-1 $298 $298 $299 $462 reversed $185 $-1 #
coedge $-1 $299 $299 $298 $462 forward $187 $-1 #
coedge $-1 $300 $300 $188 $301 forward $295 $-1 #
edge $-1 $463 0 $463 6.2831853071796004 $300 $464 forward 7 unknown #
loop $-1 $-1 $307 $189 #
plane-surface $-1 -68.028199102755835 -1.9964206057686198 9.1503472567424211 -0.54463904215088732 0 0.83867056331134215 0.83867056331134215 0 0.54463904215088732 forward_v I I I I #
loop $-1 $-1 $465 $120 #
coedge $-1 $305 $305 $306 $466 reversed $190 $-1 #
coedge $-1 $306 $306 $305 $466 forward $192 $-1 #
coedge $-1 $307 $307 $193 $308 forward $302 $-1 #
edge $-1 $467 0 $467 6.2831853071796004 $307 $468 forward 7 unknown #
face $-1 $469 $470 $65 $-1 $471 forward single #
loop $-1 $-1 $472 $194 #
plane-surface $-1 -142.12982549990539 10.784040188374572 123.25684338187115 0 -1 0 0.54463904215088732 0 -0.83867056331134215 forward_v I I I I #
coedge $-1 $473 $474 $475 $476 reversed $195 $-1 #
coedge $-1 $314 $197 $477 $478 reversed $124 $-1 #
coedge $-1 $197 $313 $473 $479 reversed $124 $-1 #
coedge $-1 $475 $480 $197 $316 forward $470 $-1 #
edge $-1 $481 3.0367136471968763 $482 20.695920459800348 $315 $483 forward 7 unknown #
loop $-1 $-1 $322 $198 #
plane-surface $-1 -68.028199102755835 7.8548336608392546 9.1503472567424211 -0.54463904215088732 0 0.83867056331134215 0.83867056331134215 0 0.54463904215088732 forward_v I I I I #
loop $-1 $-1 $484 $126 #
coedge $-1 $320 $320 $321 $485 reversed $199 $-1 #
coedge $-1 $321 $321 $320 $485 forward $201 $-1 #
coedge $-1 $322 $322 $202 $323 forward $317 $-1 #
edge $-1 $486 0 $486 6.2831853071796004 $322 $487 forward 7 unknown #
loop $-1 $-1 $329 $203 #
plane-surface $-1 -68.028199102755835 7.8548336608392546 9.1503472567424211 -0.54463904215088732 0 0.83867056331134215 0.83867056331134215 0 0.54463904215088732 forward_v I I I I #
loop $-1 $-1 $488 $129 #
coedge $-1 $327 $327 $328 $489 reversed $204 $-1 #
coedge $-1 $328 $328 $327 $489 forward $206 $-1 #
coedge $-1 $329 $329 $207 $330 forward $324 $-1 #
edge $-1 $490 0 $490 6.2831853071796004 $329 $491 forward 7 unknown #
loop $-1 $-1 $336 $208 #
plane-surface $-1 -68.028199102755835 7.8548336608392546 9.1503472567424211 -0.54463904215088732 0 0.83867056331134215 0.83867056331134215 0 0.54463904215088732 forward_v I I I I #
loop $-1 $-1 $492 $132 #
coedge $-1 $334 $334 $335 $493 reversed $209 $-1 #
coedge $-1 $335 $335 $334 $493 forward $211 $-1 #
coedge $-1 $336 $336 $212 $337 forward $331 $-1 #
edge $-1 $494 0 $494 6.2831853071796004 $336 $495 forward 7 unknown #
face $-1 $496 $497 $69 $-1 $498 reversed single #
loop $-1 $-1 $344 $213 #
plane-surface $-1 0 0 20.618370464313031 0 0 1 1 0 0 forward_v I I I I #
coedge $-1 $499 $500 $501 $502 reversed $214 $-1 #
coedge $-1 $503 $216 $504 $505 reversed $136 $-1 #
coedge $-1 $216 $503 $499 $506 forward $136 $-1 #
coedge $-1 $501 $507 $216 $345 forward $339 $-1 #
edge $-1 $508 -9.4252221007110926 $509 -1.2780964976903384 $344 $510 forward 7 unknown #
loop $-1 $-1 $351 $217 #
plane-surface $-1 -49.800097564428299 10.703318598401431 70.444562722576407 0.50000000669873634 0 0.8660253999169214 0.8660253999169214 0 -0.50000000669873634 forward_v I I I I #
loop $-1 $-1 $511 $138 #
coedge $-1 $349 $349 $350 $512 reversed $218 $-1 #
coedge $-1 $350 $350 $349 $512 forward $220 $-1 #
coedge $-1 $351 $351 $221 $352 forward $346 $-1 #
edge $-1 $513 0 $513 6.2831853071796004 $351 $514 forward 7 unknown #
loop $-1 $-1 $358 $222 #
plane-surface $-1 -49.800097564428299 10.703318598401431 70.444562722576407 0.50000000669873634 0 0.8660253999169214 0.8660253999169214 0 -0.50000000669873634 forward_v I I I I #
loop $-1 $-1 $515 $141 #
coedge $-1 $356 $356 $357 $516 reversed $223 $-1 #
coedge $-1 $357 $357 $356 $516 forward $225 $-1 #
coedge $-1 $358 $358 $226 $359 forward $353 $-1 #
edge $-1 $517 0 $517 6.2831853071796004 $358 $518 forward 7 unknown #
face $-1 $519 $520 $54 $-1 $521 reversed single #
loop $-1 $-1 $522 $227 #
plane-surface $-1 -68.028199102755821 0 0 1 0 0 0 0 -1 forward_v I I I I #
coedge $-1 $523 $371 $524 $525 forward $228 $-1 #
coedge $-1 $526 $230 $523 $527 forward $145 $-1 #
coedge $-1 $230 $526 $528 $529 forward $145 $-1 #
coedge $-1 $374 $373 $230 $367 reversed $375 $-1 #
edge $-1 $530 -41.503492093975076 $531 41.503492093975076 $366 $532 forward 7 unknown #
coedge $-1 $232 $231 $533 $534 forward $91 $-1 #
coedge $-1 $535 $536 $231 $370 reversed $520 $-1 #
edge $-1 $377 -68.028199102755821 $537 68.028199102755821 $369 $538 forward 7 unknown #
coedge $-1 $363 $539 $232 $372 reversed $228 $-1 #
edge $-1 $540 -68.028199102755821 $376 68.028199102755821 $371 $541 forward 7 unknown #
coedge $-1 $366 $233 $539 $542 forward $375 $-1 #
coedge $-1 $233 $366 $535 $543 reversed $375 $-1 #
loop $-1 $-1 $373 $519 #
vertex $-1 $234 $544 #
vertex $-1 $234 $545 #
straight-curve $-1 68.028199102755821 0 20.618370464313031 0 1 0 I I #
face $-1 $546 $393 $55 $-1 $547 forward single #
loop $-1 $-1 $548 $235 #
plane-surface $-1 0 -41.503492093975076 0 0 1 0 0 0 1 forward_v I I I I #
coedge $-1 $549 $550 $240 $390 forward $236 $-1 #
coedge $-1 $551 $238 $548 $552 reversed $149 $-1 #
coedge $-1 $238 $551 $387 $553 forward $149 $-1 #
coedge $-1 $388 $554 $238 $386 forward $555 $-1 #
edge $-1 $556 -27.433398720503355 $557 -0.70678802644008698 $385 $558 forward 7 unknown #
coedge $-1 $240 $239 $384 $553 reversed $94 $-1 #
coedge $-1 $559 $385 $239 $389 forward $555 $-1 #
edge $-1 $557 6.1485431756482178 $394 11.696065917659279 $388 $560 forward 7 unknown #
edge $-1 $395 -11.696065917659279 $561 -6.1485431756482178 $382 $562 forward 7 unknown #
coedge $-1 $563 $241 $550 $564 forward $393 $-1 #
coedge $-1 $241 $563 $559 $565 forward $393 $-1 #
loop $-1 $-1 $241 $379 #
vertex $-1 $389 $566 #
vertex $-1 $564 $567 #
straight-curve $-1 0 -14.776881399911808 20.618370464313031 -1 0 0 I I #
face $-1 $568 $569 $56 $-1 $570 reversed single #
loop $-1 $-1 $410 $243 #
plane-surface $-1 68.028199102755821 0 0 -1 0 0 0 0 1 forward_v I I I I #
coedge $-1 $571 $572 $246 $403 forward $244 $-1 #
coedge $-1 $405 $246 $573 $574 reversed $153 $-1 #
coedge $-1 $246 $405 $410 $575 reversed $153 $-1 #
edge $-1 $576 -68.028199102755821 $577 68.028199102755821 $400 $578 forward 7 unknown #
coedge $-1 $248 $247 $579 $580 reversed $97 $-1 #
coedge $-1 $402 $401 $247 $406 reversed $153 $-1 #
edge $-1 $411 -68.028199102755821 $581 68.028199102755821 $405 $582 forward 7 unknown #
coedge $-1 $583 $584 $248 $408 forward $585 $-1 #
edge $-1 $412 -68.028199102755821 $586 68.028199102755821 $407 $587 forward 7 unknown #
coedge $-1 $588 $249 $584 $589 reversed $398 $-1 #
coedge $-1 $249 $588 $402 $575 forward $398 $-1 #
vertex $-1 $250 $590 #
vertex $-1 $408 $591 #
straight-curve $-1 68.028199102755821 14.070093373471718 15.070847722301966 0 1 0 I I #
face $-1 $-1 $592 $57 $-1 $593 forward single #
loop $-1 $-1 $420 $251 #
plane-surface $-1 0 0 20.618370464313031 0 0 1 1 0 0 forward_v I I I I #
coedge $-1 $594 $595 $419 $596 forward $252 $-1 #
coedge $-1 $419 $254 $256 $425 reversed $157 $-1 #
coedge $-1 $254 $418 $417 $596 reversed $157 $-1 #
coedge $-1 $597 $257 $254 $421 forward $415 $-1 #
edge $-1 $428 -20.695920459800348 $598 -3.0367136471968763 $420 $599 forward 7 unknown #
coedge $-1 $256 $255 $594 $600 reversed $100 $-1 #
coedge $-1 $601 $602 $255 $424 forward $592 $-1 #
edge $-1 $603 -30.894241250720082 $427 -9.8380511504270398 $423 $604 forward 7 unknown #
edge $-1 $605 1.6755591966779756e-014 $428 21.056190100293058 $418 $606 forward 7 unknown #
coedge $-1 $257 $597 $601 $607 forward $415 $-1 #
vertex $-1 $424 $608 #
vertex $-1 $258 $609 #
straight-curve $-1 -50.368992290152342 -5.9238374361882453 20.618370464313031 0 1 0 I I #
coedge $-1 $430 $430 $-1 $610 reversed $261 $-1 #
edge $-1 $611 0 $611 6.2831853071796004 $262 $612 forward 7 unknown #
vertex $-1 $265 $613 #
ellipse-curve $-1 -59.198595696454085 -13.605198788897681 14.884358860527728 -0.54463904215088732 0 0.83867056331134215 0.41933528165567108 0 0.27231952107544366 1 I I #
coedge $-1 $434 $434 $-1 $614 reversed $268 $-1 #
edge $-1 $615 0 $615 6.2831853071796004 $269 $616 forward 7 unknown #
vertex $-1 $272 $617 #
ellipse-curve $-1 -59.198595696454085 -11.847674872376491 14.884358860527728 -0.54463904215088732 0 0.83867056331134215 0.41933528165567108 0 0.27231952107544366 1 I I #
coedge $-1 $438 $438 $-1 $618 reversed $275 $-1 #
edge $-1 $619 0 $619 6.2831853071796004 $276 $620 forward 7 unknown #
vertex $-1 $279 $621 #
ellipse-curve $-1 -59.198595696454085 -10.0901509558553 14.884358860527728 -0.54463904215088732 0 0.83867056331134215 0.41933528165567108 0 0.27231952107544366 1 I I #
face $-1 $-1 $622 $61 $-1 $623 reversed single #
loop $-1 $-1 $286 $280 #
plane-surface $-1 0 0 20.618370464313031 0 0 1 1 0 0 forward_v I I I I #
coedge $-1 $624 $625 $626 $627 reversed $281 $-1 #
coedge $-1 $628 $283 $285 $452 forward $176 $-1 #
coedge $-1 $283 $628 $624 $629 forward $176 $-1 #
coedge $-1 $626 $286 $283 $449 forward $443 $-1 #
edge $-1 $455 -3.9274168304196273 $630 1.9309962246510075 $448 $631 forward 7 unknown #
coedge $-1 $632 $633 $284 $451 forward $622 $-1 #
edge $-1 $634 -52.478074434193147 $454 -41.010051226622544 $450 $635 forward 7 unknown #
edge $-1 $455 -21.056190100293058 $634 -1.6755591966779756e-014 $285 $636 forward 7 unknown #
coedge $-1 $286 $626 $632 $637 forward $443 $-1 #
vertex $-1 $451 $638 #
vertex $-1 $287 $639 #
straight-curve $-1 -71.064912749952697 -4.9256271333039372 20.618370464313031 1 0 0 I I #
coedge $-1 $457 $457 $-1 $640 reversed $290 $-1 #
edge $-1 $641 0 $641 6.2831853071796004 $291 $642 forward 7 unknown #
vertex $-1 $294 $643 #
ellipse-curve $-1 -59.198595696454085 -3.7539445222898067 14.884358860527728 -0.54463904215088732 0 0.83867056331134215 0.41933528165567108 0 0.27231952107544366 1 I I #
coedge $-1 $461 $461 $-1 $644 reversed $297 $-1 #
edge $-1 $645 0 $645 6.2831853071796004 $298 $646 forward 7 unknown #
vertex $-1 $301 $647 #
ellipse-curve $-1 -59.198595696454085 -1.9964206057686198 14.884358860527728 -0.54463904215088732 0 0.83867056331134215 0.41933528165567108 0 0.27231952107544366 1 I I #
coedge $-1 $465 $465 $-1 $648 reversed $304 $-1 #
edge $-1 $649 0 $649 6.2831853071796004 $305 $650 forward 7 unknown #
vertex $-1 $308 $651 #
ellipse-curve $-1 -59.198595696454085 -0.2388966892474258 14.884358860527728 -0.54463904215088732 0 0.83867056331134215 0.41933528165567108 0 0.27231952107544366 1 I I #
face $-1 $-1 $652 $65 $-1 $653 reversed single #
loop $-1 $-1 $315 $309 #
plane-surface $-1 0 0 20.618370464313031 0 0 1 1 0 0 forward_v I I I I #
coedge $-1 $654 $655 $656 $657 reversed $310 $-1 #
coedge $-1 $658 $312 $314 $479 forward $195 $-1 #
coedge $-1 $312 $658 $654 $659 forward $195 $-1 #
coedge $-1 $656 $315 $312 $476 forward $470 $-1 #
edge $-1 $482 0.9982103028843099 $660 6.8566233579549447 $475 $661 forward 7 unknown #
coedge $-1 $662 $663 $313 $478 forward $652 $-1 #
edge $-1 $664 -52.478074434193147 $481 -41.010051226622544 $477 $665 forward 7 unknown #
edge $-1 $482 -21.056190100293058 $664 -1.6755591966779756e-014 $314 $666 forward 7 unknown #
coedge $-1 $315 $656 $662 $667 forward $470 $-1 #
vertex $-1 $316 $668 #
vertex $-1 $316 $669 #
straight-curve $-1 -71.064912749952697 4.9256271333039372 20.618370464313031 1 0 0 I I #
coedge $-1 $484 $484 $-1 $670 reversed $319 $-1 #
edge $-1 $671 0 $671 6.2831853071796004 $320 $672 forward 7 unknown #
vertex $-1 $323 $673 #
ellipse-curve $-1 -59.198595696454085 6.0973097443180677 14.884358860527728 -0.54463904215088732 0 0.83867056331134215 0.41933528165567108 0 0.27231952107544366 1 I I #
coedge $-1 $488 $488 $-1 $674 reversed $326 $-1 #
edge $-1 $675 0 $675 6.2831853071796004 $327 $676 forward 7 unknown #
vertex $-1 $330 $677 #
ellipse-curve $-1 -59.198595696454085 7.8548336608392546 14.884358860527728 -0.54463904215088732 0 0.83867056331134215 0.41933528165567108 0 0.27231952107544366 1 I I #
coedge $-1 $492 $492 $-1 $678 reversed $333 $-1 #
edge $-1 $679 0 $679 6.2831853071796004 $334 $680 forward 7 unknown #
vertex $-1 $337 $681 #
ellipse-curve $-1 -59.198595696454085 9.6123575773604486 14.884358860527728 -0.54463904215088732 0 0.83867056331134215 0.41933528165567108 0 0.27231952107544366 1 I I #
face $-1 $-1 $682 $69 $-1 $683 forward single #
loop $-1 $-1 $684 $338 #
plane-surface $-1 68.028199102755821 0 0 -1 0 0 0 0 1 forward_v I I I I #
coedge $-1 $500 $341 $343 $506 reversed $214 $-1 #
coedge $-1 $341 $499 $684 $685 reversed $214 $-1 #
coedge $-1 $686 $344 $341 $502 forward $339 $-1 #
edge $-1 $509 27.38734620808296 $687 58.914147877889093 $501 $688 forward 7 unknown #
coedge $-1 $343 $342 $689 $690 reversed $136 $-1 #
coedge $-1 $691 $692 $342 $505 forward $682 $-1 #
edge $-1 $693 -101.34233491744993 $508 -64.938319893374967 $504 $694 forward 7 unknown #
edge $-1 $695 -136.05639820551164 $509 -99.652383181436676 $499 $696 forward 7 unknown #
coedge $-1 $344 $686 $691 $697 forward $339 $-1 #
vertex $-1 $505 $698 #
vertex $-1 $345 $699 #
straight-curve $-1 36.501397432949688 5.3516592992007155 20.618370464313031 0 -1 0 I I #
coedge $-1 $511 $511 $-1 $700 reversed $348 $-1 #
edge $-1 $701 0 $701 6.2831853071796004 $349 $702 forward 7 unknown #
vertex $-1 $352 $703 #
ellipse-curve $-1 52.264798267852761 8.9575059691826979 11.517366586363835 0.50000000669873634 0 0.8660253999169214 0.21650634997923035 0 -0.12500000167468409 1 I I #
coedge $-1 $515 $515 $-1 $704 reversed $355 $-1 #
edge $-1 $705 0 $705 6.2831853071796004 $356 $706 forward 7 unknown #
vertex $-1 $359 $707 #
ellipse-curve $-1 52.264798267852761 12.449131227620164 11.517366586363835 0.50000000669873634 0 0.8660253999169214 0.21650634997923035 0 -0.12500000167468409 1 I I #
face $-1 $-1 $375 $54 $-1 $708 reversed single #
loop $-1 $-1 $535 $360 #
plane-surface $-1 0 41.503492093975076 0 0 -1 0 0 0 -1 forward_v I I I I #
coedge $-1 $709 $533 $536 $710 forward $361 $-1 #
coedge $-1 $539 $363 $364 $527 reversed $228 $-1 #
coedge $-1 $533 $709 $363 $525 reversed $361 $-1 #
edge $-1 $540 -20.618370464313031 $711 20.618370464313031 $524 $712 forward 7 unknown #
coedge $-1 $365 $364 $709 $713 forward $145 $-1 #
edge $-1 $531 -68.028199102755821 $711 68.028199102755821 $523 $714 forward 7 unknown #
coedge $-1 $536 $535 $365 $529 reversed $520 $-1 #
edge $-1 $715 -68.028199102755821 $530 68.028199102755821 $528 $716 forward 7 unknown #
vertex $-1 $367 $717 #
vertex $-1 $542 $718 #
straight-curve $-1 68.028199102755821 0 -20.618370464313031 0 -1 0 I I #
coedge $-1 $522 $524 $368 $534 reversed $361 $-1 #
edge $-1 $537 -41.503492093975076 $540 41.503492093975076 $533 $719 forward 7 unknown #
coedge $-1 $528 $369 $374 $543 forward $520 $-1 #
coedge $-1 $369 $528 $522 $710 reversed $520 $-1 #
vertex $-1 $370 $720 #
straight-curve $-1 0 41.503492093975076 20.618370464313031 -1 0 0 I I #
coedge $-1 $371 $523 $373 $542 reversed $228 $-1 #
vertex $-1 $534 $721 #
straight-curve $-1 0 -41.503492093975076 20.618370464313031 1 0 0 I I #
edge $-1 $376 -20.618370464313031 $531 20.618370464313031 $373 $722 forward 7 unknown #
edge $-1 $377 -20.618370464313031 $530 20.618370464313031 $374 $723 forward 7 unknown #
point $-1 68.028199102755821 -41.503492093975076 20.618370464313031 #
point $-1 68.028199102755821 41.503492093975076 20.618370464313031 #
face $-1 $-1 $555 $55 $-1 $724 reversed single #
plane-surface $-1 0 0 20.618370464313031 0 0 1 1 0 0 forward_v I I I I #
coedge $-1 $725 $726 $383 $552 forward $380 $-1 #
coedge $-1 $727 $382 $551 $728 forward $236 $-1 #
coedge $-1 $382 $727 $391 $564 reversed $236 $-1 #
coedge $-1 $384 $383 $549 $728 reversed $149 $-1 #
edge $-1 $729 -68.028199102755821 $556 68.028199102755821 $548 $730 forward 7 unknown #
edge $-1 $561 -68.028199102755821 $557 68.028199102755821 $387 $731 forward 7 unknown #
coedge $-1 $385 $559 $725 $732 forward $555 $-1 #
loop $-1 $-1 $388 $546 #
vertex $-1 $552 $733 #
vertex $-1 $386 $734 #
straight-curve $-1 68.028199102755821 -14.070093373471721 15.070847722301966 0 1 0 I I #
coedge $-1 $554 $388 $392 $565 reversed $555 $-1 #
straight-curve $-1 68.028199102755821 -14.776881399911808 8.9223045466537485 0 0 1 I I #
vertex $-1 $728 $735 #
straight-curve $-1 -68.028199102755821 -14.776881399911808 8.9223045466537485 0 0 -1 I I #
coedge $-1 $392 $391 $736 $737 forward $393 $-1 #
edge $-1 $395 14.776881399911808 $738 41.503492093975076 $550 $739 forward 7 unknown #
edge $-1 $740 -41.503492093975076 $394 -14.776881399911808 $559 $741 forward 7 unknown #
point $-1 68.028199102755821 -14.776881399911808 20.618370464313028 #
point $-1 -68.028199102755821 -14.776881399911808 20.618370464313028 #
face $-1 $-1 $585 $56 $-1 $742 reversed single #
loop $-1 $-1 $573 $397 #
plane-surface $-1 -68.028199102755821 0 0 1 0 0 0 0 -1 forward_v I I I I #
coedge $-1 $743 $400 $588 $744 forward $244 $-1 #
coedge $-1 $400 $743 $745 $746 forward $244 $-1 #
coedge $-1 $745 $579 $401 $574 forward $569 $-1 #
edge $-1 $581 6.1485431756482178 $576 11.696065917659279 $573 $747 forward 7 unknown #
edge $-1 $577 -11.696065917659279 $411 -6.1485431756482178 $410 $748 forward 7 unknown #
vertex $-1 $574 $749 #
vertex $-1 $744 $750 #
straight-curve $-1 0 14.776881399911801 20.618370464313031 1 0 0 I I #
coedge $-1 $573 $751 $404 $580 forward $569 $-1 #
edge $-1 $586 -27.433398720503352 $581 -0.70678802644008343 $579 $752 forward 7 unknown #
vertex $-1 $580 $753 #
straight-curve $-1 0 14.776881399911801 15.070847722301966 -1 0 0 I I #
coedge $-1 $754 $407 $751 $755 reversed $585 $-1 #
coedge $-1 $407 $754 $409 $589 forward $585 $-1 #
loop $-1 $-1 $407 $568 #
vertex $-1 $408 $756 #
straight-curve $-1 0 41.503492093975076 15.070847722301966 -1 0 0 I I #
coedge $-1 $410 $409 $571 $744 reversed $398 $-1 #
edge $-1 $757 -20.618370464313031 $412 -15.070847722301966 $409 $758 forward 7 unknown #
point $-1 68.028199102755821 14.776881399911801 15.070847722301966 #
point $-1 68.028199102755821 41.503492093975069 15.070847722301966 #
loop $-1 $-1 $423 $414 #
plane-surface $-1 0 -14.776881399911808 17.844609093307497 0 -1 0 0 0 -1 forward_v I I I I #
coedge $-1 $759 $417 $422 $600 forward $252 $-1 #
coedge $-1 $417 $759 $597 $760 reversed $252 $-1 #
edge $-1 $598 41.010051226622544 $605 52.478074434193147 $417 $761 forward 7 unknown #
coedge $-1 $426 $420 $595 $760 forward $415 $-1 #
vertex $-1 $760 $762 #
straight-curve $-1 -71.064912749952697 -8.9184683448411732 20.618370464313031 -1 0 0 I I #
edge $-1 $605 2.9946309086529279 $603 8.8530439637235627 $594 $763 forward 7 unknown #
coedge $-1 $602 $423 $426 $607 reversed $592 $-1 #
coedge $-1 $423 $601 $759 $764 reversed $592 $-1 #
vertex $-1 $764 $765 #
straight-curve $-1 -42.118108389937902 -14.776881399911808 25.976557219513044 0.83867056331134215 0 0.54463904215088732 I I #
vertex $-1 $600 $766 #
straight-curve $-1 -68.028199102755835 -8.9184683448411732 9.1503472567424211 0.83867056331134215 0 0.54463904215088732 I I #
edge $-1 $767 -68.028199102755821 $427 -50.368992290152349 $426 $768 forward 7 unknown #
point $-1 -50.368992290152349 -14.776881399911808 20.618370464313031 #
point $-1 -50.368992290152349 -8.9184683448411732 20.618370464313031 #
edge $-1 $769 1 $769 0 $430 $-1 forward 7 unknown #
vertex $-1 $431 $770 #
ellipse-curve $-1 -58.515665177186115 -13.605198788897681 13.832738100776357 -0.54463904215088732 0 0.83867056331134215 0.41933528165567108 0 0.27231952107544366 1 I I #
point $-1 -58.779260414798408 -13.605198788897681 15.15667838160317 #
edge $-1 $771 1 $771 0 $434 $-1 forward 7 unknown #
vertex $-1 $435 $772 #
ellipse-curve $-1 -58.515665177186115 -11.847674872376491 13.832738100776357 -0.54463904215088732 0 0.83867056331134215 0.41933528165567108 0 0.27231952107544366 1 I I #
point $-1 -58.779260414798408 -11.847674872376491 15.15667838160317 #
edge $-1 $773 1 $773 0 $438 $-1 forward 7 unknown #
vertex $-1 $439 $774 #
ellipse-curve $-1 -58.515665177186115 -10.0901509558553 13.832738100776357 -0.54463904215088732 0 0.83867056331134215 0.41933528165567108 0 0.27231952107544366 1 I I #
point $-1 -58.779260414798408 -10.0901509558553 15.15667838160317 #
loop $-1 $-1 $450 $442 #
plane-surface $-1 -68.028199102755821 0 0 1 0 0 0 0 -1 forward_v I I I I #
coedge $-1 $625 $445 $447 $629 reversed $281 $-1 #
coedge $-1 $445 $624 $775 $776 reversed $281 $-1 #
coedge $-1 $453 $448 $445 $627 forward $443 $-1 #
edge $-1 $630 -20.695920459800348 $777 -3.0367136471968763 $626 $778 forward 7 unknown #
coedge $-1 $447 $446 $633 $779 reversed $176 $-1 #
edge $-1 $780 1.6755591966779756e-014 $630 21.056190100293058 $624 $781 forward 7 unknown #
vertex $-1 $449 $782 #
straight-curve $-1 -50.368992290152342 -0.9982103028843099 20.618370464313031 0 1 0 I I #
coedge $-1 $775 $450 $453 $637 reversed $622 $-1 #
coedge $-1 $450 $775 $628 $779 forward $622 $-1 #
vertex $-1 $451 $783 #
straight-curve $-1 -68.028199102755821 -4.9256271333039372 61.628421690935575 0 0 1 I I #
straight-curve $-1 -68.028199102755835 -4.9256271333039372 9.1503472567424211 -0.83867056331134215 0 -0.54463904215088732 I I #
edge $-1 $777 -0.93278592176669761 $454 4.9256271333039372 $632 $784 forward 7 unknown #
point $-1 -68.028199102755821 -4.9256271333039372 20.618370464313031 #
point $-1 -50.368992290152349 -4.9256271333039372 20.618370464313031 #
edge $-1 $785 1 $785 0 $457 $-1 forward 7 unknown #
vertex $-1 $458 $786 #
ellipse-curve $-1 -58.515665177186115 -3.7539445222898067 13.832738100776357 -0.54463904215088732 0 0.83867056331134215 0.41933528165567108 0 0.27231952107544366 1 I I #
point $-1 -58.779260414798408 -3.7539445222898067 15.15667838160317 #
edge $-1 $787 1 $787 0 $461 $-1 forward 7 unknown #
vertex $-1 $462 $788 #
ellipse-curve $-1 -58.515665177186115 -1.9964206057686198 13.832738100776357 -0.54463904215088732 0 0.83867056331134215 0.41933528165567108 0 0.27231952107544366 1 I I #
point $-1 -58.779260414798408 -1.9964206057686198 15.15667838160317 #
edge $-1 $789 1 $789 0 $465 $-1 forward 7 unknown #
vertex $-1 $466 $790 #
ellipse-curve $-1 -58.515665177186115 -0.2388966892474258 13.832738100776357 -0.54463904215088732 0 0.83867056331134215 0.41933528165567108 0 0.27231952107544366 1 I I #
point $-1 -58.779260414798408 -0.2388966892474258 15.15667838160317 #
loop $-1 $-1 $477 $469 #
plane-surface $-1 -68.028199102755821 0 0 1 0 0 0 0 -1 forward_v I I I I #
coedge $-1 $655 $472 $474 $659 reversed $310 $-1 #
coedge $-1 $472 $654 $791 $792 reversed $310 $-1 #
coedge $-1 $480 $475 $472 $657 forward $470 $-1 #
edge $-1 $660 -20.695920459800348 $793 -3.0367136471968763 $656 $794 forward 7 unknown #
coedge $-1 $474 $473 $663 $795 reversed $195 $-1 #
edge $-1 $796 1.6755591966779756e-014 $660 21.056190100293058 $654 $797 forward 7 unknown #
vertex $-1 $476 $798 #
straight-curve $-1 -50.368992290152342 3.9274168304196273 20.618370464313031 0 1 0 I I #
coedge $-1 $791 $477 $480 $667 reversed $652 $-1 #
coedge $-1 $477 $791 $658 $795 forward $652 $-1 #
vertex $-1 $478 $799 #
straight-curve $-1 -68.028199102755821 4.9256271333039372 61.628421690935575 0 0 1 I I #
straight-curve $-1 -68.028199102755835 4.9256271333039372 9.1503472567424211 -0.83867056331134215 0 -0.54463904215088732 I I #
edge $-1 $793 -10.784040188374572 $481 -4.9256271333039372 $662 $800 forward 7 unknown #
point $-1 -68.028199102755821 4.9256271333039372 20.618370464313031 #
point $-1 -50.368992290152349 4.9256271333039372 20.618370464313031 #
edge $-1 $801 1 $801 0 $484 $-1 forward 7 unknown #
vertex $-1 $485 $802 #
ellipse-curve $-1 -58.515665177186115 6.0973097443180677 13.832738100776357 -0.54463904215088732 0 0.83867056331134215 0.41933528165567108 0 0.27231952107544366 1 I I #
point $-1 -58.779260414798408 6.0973097443180677 15.15667838160317 #
edge $-1 $803 1 $803 0 $488 $-1 forward 7 unknown #
vertex $-1 $489 $804 #
ellipse-curve $-1 -58.515665177186115 7.8548336608392546 13.832738100776357 -0.54463904215088732 0 0.83867056331134215 0.41933528165567108 0 0.27231952107544366 1 I I #
point $-1 -58.779260414798408 7.8548336608392546 15.15667838160317 #
edge $-1 $805 1 $805 0 $492 $-1 forward 7 unknown #
vertex $-1 $493 $806 #
ellipse-curve $-1 -58.515665177186115 9.6123575773604486 13.832738100776357 -0.54463904215088732 0 0.83867056331134215 0.41933528165567108 0 0.27231952107544366 1 I I #
point $-1 -58.779260414798408 9.6123575773604486 15.15667838160317 #
loop $-1 $-1 $504 $496 #
plane-surface $-1 0 14.776881399911801 17.844609093307497 0 1 0 0 0 1 forward_v I I I I #
coedge $-1 $689 $807 $500 $685 forward $497 $-1 #
edge $-1 $687 73.518059230567232 $695 91.720066986465611 $684 $808 forward 7 unknown #
coedge $-1 $507 $501 $807 $809 forward $339 $-1 #
vertex $-1 $809 $810 #
straight-curve $-1 9.1140512248667278 6.6297557968910539 20.618370464313031 1 0 0 I I #
coedge $-1 $811 $684 $503 $690 forward $497 $-1 #
edge $-1 $695 1.2780964976903384 $693 9.4252221007110926 $689 $812 forward 7 unknown #
coedge $-1 $692 $504 $507 $697 reversed $682 $-1 #
coedge $-1 $504 $691 $811 $813 reversed $682 $-1 #
vertex $-1 $813 $814 #
straight-curve $-1 -19.736837022643346 14.776881399911801 53.087530846005201 -0.8660253999169214 0 0.50000000669873634 I I #
vertex $-1 $690 $815 #
straight-curve $-1 -49.800097564428299 6.6297557968910539 70.444562722576407 -0.8660253999169214 0 0.50000000669873634 I I #
edge $-1 $816 -68.028199102755821 $508 -36.501397432949688 $507 $817 forward 7 unknown #
point $-1 36.501397432949688 14.776881399911808 20.618370464313031 #
point $-1 36.501397432949688 6.6297557968910539 20.618370464313031 #
edge $-1 $818 1 $818 0 $511 $-1 forward 7 unknown #
vertex $-1 $512 $819 #
ellipse-curve $-1 51.76479826115402 8.9575059691826979 10.651341186446908 0.50000000669873634 0 0.8660253999169214 0.21650634997923035 0 -0.12500000167468409 1 I I #
point $-1 52.481304617831988 8.9575059691826979 11.392366584689146 #
edge $-1 $820 1 $820 0 $515 $-1 forward 7 unknown #
vertex $-1 $516 $821 #
ellipse-curve $-1 51.76479826115402 12.449131227620164 10.651341186446908 0.50000000669873634 0 0.8660253999169214 0.21650634997923035 0 -0.12500000167468409 1 I I #
point $-1 52.481304617831988 12.449131227620164 11.392366584689146 #
plane-surface $-1 68.028199102755821 0 0 -1 0 0 0 0 1 forward_v I I I I #
coedge $-1 $524 $522 $526 $713 reversed $361 $-1 #
edge $-1 $537 -20.618370464313031 $715 20.618370464313031 $536 $822 forward 7 unknown #
vertex $-1 $713 $823 #
straight-curve $-1 -68.028199102755821 -41.503492093975076 0 0 0 -1 I I #
edge $-1 $711 -41.503492093975076 $715 41.503492093975076 $709 $824 forward 7 unknown #
straight-curve $-1 0 -41.503492093975076 -20.618370464313031 -1 0 0 I I #
vertex $-1 $529 $825 #
straight-curve $-1 0 41.503492093975076 -20.618370464313031 1 0 0 I I #
point $-1 68.028199102755821 41.503492093975076 -20.618370464313031 #
point $-1 68.028199102755821 -41.503492093975076 -20.618370464313031 #
straight-curve $-1 -68.028199102755821 0 20.618370464313031 0 -1 0 I I #
point $-1 -68.028199102755821 41.503492093975076 20.618370464313031 #
point $-1 -68.028199102755821 -41.503492093975076 20.618370464313031 #
straight-curve $-1 68.028199102755821 -41.503492093975076 0 0 0 -1 I I #
straight-curve $-1 68.028199102755821 41.503492093975076 0 0 0 -1 I I #
plane-surface $-1 68.028199102755821 0 0 -1 0 0 0 0 1 forward_v I I I I #
coedge $-1 $736 $548 $554 $732 reversed $380 $-1 #
coedge $-1 $548 $736 $727 $826 forward $380 $-1 #
coedge $-1 $550 $549 $726 $826 reversed $236 $-1 #
edge $-1 $561 0.70678802644008698 $729 27.433398720503355 $549 $827 forward 7 unknown #
vertex $-1 $552 $828 #
straight-curve $-1 0 -41.503492093975076 15.070847722301966 1 0 0 I I #
straight-curve $-1 0 -14.776881399911808 15.070847722301966 1 0 0 I I #
edge $-1 $740 -20.618370464313031 $556 -15.070847722301966 $554 $829 forward 7 unknown #
point $-1 68.028199102755821 -41.503492093975076 15.070847722301966 #
point $-1 68.028199102755821 -14.776881399911808 15.070847722301966 #
point $-1 -68.028199102755821 -14.776881399911808 15.070847722301966 #
coedge $-1 $726 $725 $563 $737 reversed $380 $-1 #
edge $-1 $738 -68.028199102755821 $740 68.028199102755821 $736 $830 forward 7 unknown #
vertex $-1 $564 $831 #
straight-curve $-1 -68.028199102755821 0 20.618370464313031 0 -1 0 I I #
vertex $-1 $565 $832 #
straight-curve $-1 68.028199102755821 0 20.618370464313031 0 1 0 I I #
plane-surface $-1 0 41.503492093975076 0 0 -1 0 0 0 -1 forward_v I I I I #
coedge $-1 $572 $571 $754 $833 forward $244 $-1 #
edge $-1 $577 14.776881399911801 $757 41.503492093975076 $588 $834 forward 7 unknown #
coedge $-1 $751 $573 $572 $746 reversed $569 $-1 #
edge $-1 $835 -41.503492093975076 $576 -14.776881399911801 $745 $836 forward 7 unknown #
straight-curve $-1 -68.028199102755821 14.776881399911801 8.9223045466537485 0 0 1 I I #
straight-curve $-1 68.028199102755821 14.776881399911801 8.9223045466537485 0 0 -1 I I #
point $-1 -68.028199102755821 14.776881399911801 20.618370464313028 #
point $-1 68.028199102755821 14.776881399911801 20.618370464313028 #
coedge $-1 $579 $745 $583 $755 forward $569 $-1 #
straight-curve $-1 -68.028199102755821 14.070093373471718 15.070847722301966 0 -1 0 I I #
point $-1 -68.028199102755821 14.776881399911801 15.070847722301966 #
coedge $-1 $584 $583 $743 $833 reversed $585 $-1 #
edge $-1 $835 -20.618370464313031 $586 -15.070847722301966 $583 $837 forward 7 unknown #
point $-1 -68.028199102755821 41.503492093975069 15.070847722301966 #
vertex $-1 $744 $838 #
straight-curve $-1 68.028199102755821 41.503492093975076 0 0 0 -1 I I #
coedge $-1 $595 $594 $602 $764 forward $252 $-1 #
edge $-1 $598 8.9184683448411732 $767 14.776881399911808 $595 $839 forward 7 unknown #
straight-curve $-1 -68.028199102755821 -8.9184683448411732 61.628421690935575 0 0 -1 I I #
point $-1 -68.028199102755821 -8.9184683448411732 20.618370464313031 #
straight-curve $-1 -68.028199102755821 -5.9238374361882453 9.1503472567424211 0 -1 0 I I #
edge $-1 $603 -52.478074434193147 $767 -41.010051226622551 $759 $840 forward 7 unknown #
point $-1 -68.028199102755821 -14.776881399911808 9.15034725674243 #
point $-1 -68.028199102755821 -8.9184683448411732 9.15034725674243 #
vertex $-1 $764 $841 #
straight-curve $-1 0 -14.776881399911808 20.618370464313031 1 0 0 I I #
vertex $-1 $610 $842 #
point $-1 -58.096329895530445 -13.605198788897681 14.105057621851801 #
vertex $-1 $614 $843 #
point $-1 -58.096329895530445 -11.847674872376491 14.105057621851801 #
vertex $-1 $618 $844 #
point $-1 -58.096329895530445 -10.0901509558553 14.105057621851801 #
coedge $-1 $633 $632 $625 $776 forward $622 $-1 #
edge $-1 $777 41.010051226622544 $780 52.478074434193147 $775 $845 forward 7 unknown #
vertex $-1 $637 $846 #
straight-curve $-1 -71.064912749952697 0.93278592176669761 20.618370464313031 -1 0 0 I I #
edge $-1 $780 -1.9309962246510075 $634 3.9274168304196273 $633 $847 forward 7 unknown #
vertex $-1 $779 $848 #
straight-curve $-1 -68.028199102755835 0.93278592176669761 9.1503472567424211 0.83867056331134215 0 0.54463904215088732 I I #
point $-1 -50.368992290152349 0.93278592176669761 20.618370464313031 #
point $-1 -68.028199102755821 -4.9256271333039372 9.15034725674243 #
straight-curve $-1 -68.028199102755821 0 20.618370464313031 0 -1 0 I I #
vertex $-1 $640 $849 #
point $-1 -58.096329895530445 -3.7539445222898067 14.105057621851801 #
vertex $-1 $644 $850 #
point $-1 -58.096329895530445 -1.9964206057686198 14.105057621851801 #
vertex $-1 $648 $851 #
point $-1 -58.096329895530445 -0.2388966892474258 14.105057621851801 #
coedge $-1 $663 $662 $655 $792 forward $652 $-1 #
edge $-1 $793 41.010051226622544 $796 52.478074434193147 $791 $852 forward 7 unknown #
vertex $-1 $667 $853 #
straight-curve $-1 -71.064912749952697 10.784040188374572 20.618370464313031 -1 0 0 I I #
edge $-1 $796 -6.8566233579549447 $664 -0.9982103028843099 $663 $854 forward 7 unknown #
vertex $-1 $795 $855 #
straight-curve $-1 -68.028199102755835 10.784040188374572 9.1503472567424211 0.83867056331134215 0 0.54463904215088732 I I #
point $-1 -50.368992290152349 10.784040188374572 20.618370464313031 #
point $-1 -68.028199102755821 4.9256271333039372 9.15034725674243 #
straight-curve $-1 -68.028199102755821 0 20.618370464313031 0 -1 0 I I #
vertex $-1 $670 $856 #
point $-1 -58.096329895530445 6.0973097443180677 14.105057621851801 #
vertex $-1 $674 $857 #
point $-1 -58.096329895530445 7.8548336608392546 14.105057621851801 #
vertex $-1 $678 $858 #
point $-1 -58.096329895530445 9.6123575773604486 14.105057621851801 #
coedge $-1 $684 $811 $686 $809 reversed $497 $-1 #
straight-curve $-1 68.028199102755821 6.6297557968910539 94.136429694880263 0 0 -1 I I #
edge $-1 $687 6.6297557968910539 $816 14.776881399911801 $807 $859 forward 7 unknown #
point $-1 68.028199102755821 6.6297557968910539 20.618370464313031 #
coedge $-1 $807 $689 $692 $813 forward $497 $-1 #
straight-curve $-1 68.028199102755806 5.3516592992007155 2.4163627084146597 0 1 0 I I #
edge $-1 $693 -91.720066986465611 $816 -73.518059230567232 $811 $860 forward 7 unknown #
point $-1 68.028199102755821 14.776881399911808 2.4163627084146526 #
point $-1 68.028199102755821 6.6297557968910539 2.4163627084146526 #
vertex $-1 $697 $861 #
straight-curve $-1 0 14.776881399911801 20.618370464313031 -1 0 0 I I #
vertex $-1 $700 $862 #
point $-1 51.981304611133254 8.9575059691826979 10.526341184772225 #
vertex $-1 $704 $863 #
point $-1 51.981304611133254 12.449131227620164 10.526341184772225 #
straight-curve $-1 -68.028199102755821 41.503492093975076 0 0 0 -1 I I #
point $-1 -68.028199102755821 -41.503492093975076 -20.618370464313031 #
straight-curve $-1 -68.028199102755821 0 -20.618370464313031 0 1 0 I I #
point $-1 -68.028199102755821 41.503492093975076 -20.618370464313031 #
edge $-1 $738 -20.618370464313031 $729 -15.070847722301966 $727 $864 forward 7 unknown #
straight-curve $-1 -68.028199102755821 -14.070093373471721 15.070847722301966 0 -1 0 I I #
point $-1 -68.028199102755821 -41.503492093975076 15.070847722301966 #
straight-curve $-1 68.028199102755821 -41.503492093975076 0 0 0 -1 I I #
straight-curve $-1 0 -41.503492093975076 20.618370464313031 1 0 0 I I #
point $-1 -68.028199102755821 -41.503492093975076 20.618370464313031 #
point $-1 68.028199102755821 -41.503492093975076 20.618370464313031 #
edge $-1 $757 -68.028199102755821 $835 68.028199102755821 $754 $865 forward 7 unknown #
straight-curve $-1 68.028199102755821 0 20.618370464313031 0 1 0 I I #
vertex $-1 $833 $866 #
straight-curve $-1 -68.028199102755821 0 20.618370464313031 0 -1 0 I I #
straight-curve $-1 -68.028199102755821 41.503492093975076 0 0 0 -1 I I #
point $-1 68.028199102755821 41.503492093975076 20.618370464313031 #
straight-curve $-1 -68.028199102755821 0 20.618370464313031 0 -1 0 I I #
straight-curve $-1 -68.028199102755821 -14.776881399911808 61.628421690935575 0 0 1 I I #
point $-1 -68.028199102755821 -14.776881399911808 20.618370464313028 #
point $-1 -58.243345656110669 -13.605198788897681 13.413402819120687 #
point $-1 -58.243345656110669 -11.847674872376491 13.413402819120687 #
point $-1 -58.243345656110669 -10.0901509558553 13.413402819120687 #
straight-curve $-1 -68.028199102755821 0.93278592176669761 61.628421690935575 0 0 -1 I I #
point $-1 -68.028199102755821 0.93278592176669761 20.618370464313031 #
straight-curve $-1 -68.028199102755821 -0.9982103028843099 9.1503472567424211 0 -1 0 I I #
point $-1 -68.028199102755821 0.93278592176669761 9.15034725674243 #
point $-1 -58.243345656110669 -3.7539445222898067 13.413402819120687 #
point $-1 -58.243345656110669 -1.9964206057686198 13.413402819120687 #
point $-1 -58.243345656110669 -0.2388966892474258 13.413402819120687 #
straight-curve $-1 -68.028199102755821 10.784040188374572 61.628421690935575 0 0 -1 I I #
point $-1 -68.028199102755821 10.784040188374572 20.618370464313031 #
straight-curve $-1 -68.028199102755821 3.9274168304196273 9.1503472567424211 0 -1 0 I I #
point $-1 -68.028199102755821 10.784040188374572 9.15034725674243 #
point $-1 -58.243345656110669 6.0973097443180677 13.413402819120687 #
point $-1 -58.243345656110669 7.8548336608392546 13.413402819120687 #
point $-1 -58.243345656110669 9.6123575773604486 13.413402819120687 #
straight-curve $-1 68.028199102755821 0 20.618370464313031 0 1 0 I I #
straight-curve $-1 68.028199102755821 14.776881399911808 94.136429694880263 0 0 1 I I #
point $-1 68.028199102755821 14.776881399911801 20.618370464313028 #
point $-1 51.639798259479342 8.9575059691826979 10.434834836467678 #
point $-1 51.639798259479342 12.449131227620164 10.434834836467678 #
straight-curve $-1 -68.028199102755821 -41.503492093975076 0 0 0 -1 I I #
straight-curve $-1 0 41.503492093975076 20.618370464313031 -1 0 0 I I #
point $-1 -68.028199102755821 41.503492093975076 20.618370464313031 #
End-of-ACIS-data 