500 0 9 0           
7 Unknown 11 ACIS 5.0 NT 24 Thu Mar 25 15:14:06 1999 
-1 9.9999999999999995e-007 1e-010 
body $-1 $9 $-1 $10 #
body $-1 $11 $-1 $12 #
body $-1 $13 $-1 $14 #
body $-1 $15 $-1 $16 #
body $-1 $17 $-1 $18 #
body $-1 $19 $-1 $20 #
body $-1 $21 $-1 $22 #
body $-1 $23 $-1 $24 #
body $-1 $25 $-1 $26 #
lump $-1 $-1 $27 $0 #
transform $-1 1 0 0 0 1 0 0 0 1 47.790765099032562 32.972229606534597 8.9475926523131513 1 rotate no_reflect no_shear #
lump $-1 $-1 $28 $1 #
transform $-1 1 0 0 0 1 0 0 0 1 47.790765099032562 32.972229606534597 8.9475926523131513 1 rotate no_reflect no_shear #
lump $-1 $-1 $29 $2 #
transform $-1 1 0 0 0 1 0 0 0 1 47.790765099032562 32.972229606534597 8.9475926523131513 1 rotate no_reflect no_shear #
lump $-1 $-1 $30 $3 #
transform $-1 1 0 0 0 1 0 0 0 1 47.790765099032562 32.972229606534597 8.9475926523131513 1 rotate no_reflect no_shear #
lump $-1 $-1 $31 $4 #
transform $-1 1 0 0 0 1 0 0 0 1 47.790765099032562 32.972229606534597 8.9475926523131513 1 rotate no_reflect no_shear #
lump $-1 $-1 $32 $5 #
transform $-1 1 0 0 0 1 0 0 0 1 47.790765099032562 32.972229606534597 8.9475926523131513 1 rotate no_reflect no_shear #
lump $-1 $-1 $33 $6 #
transform $-1 1 0 0 0 1 0 0 0 1 47.790765099032562 32.972229606534597 8.9475926523131513 1 rotate no_reflect no_shear #
lump $-1 $-1 $34 $7 #
transform $-1 1 0 0 0 1 0 0 0 1 47.790765099032562 32.972229606534597 8.9475926523131513 1 rotate no_reflect no_shear #
lump $-1 $-1 $35 $8 #
transform $-1 1 0 0 0 1 0 0 0 1 47.790765099032562 32.972229606534597 8.9475926523131513 1 rotate no_reflect no_shear #
shell $-1 $-1 $-1 $36 $-1 $9 #
shell $-1 $-1 $-1 $37 $-1 $11 #
shell $-1 $-1 $-1 $38 $-1 $13 #
shell $-1 $-1 $-1 $39 $-1 $15 #
shell $-1 $-1 $-1 $40 $-1 $17 #
shell $-1 $-1 $-1 $41 $-1 $19 #
shell $-1 $-1 $-1 $42 $-1 $21 #
shell $-1 $-1 $-1 $43 $-1 $23 #
shell $-1 $-1 $-1 $44 $-1 $25 #
face $-1 $45 $46 $27 $-1 $47 forward single #
face $-1 $48 $49 $28 $-1 $50 reversed single #
face $-1 $51 $52 $29 $-1 $53 reversed single #
face $-1 $54 $55 $30 $-1 $56 reversed single #
face $-1 $57 $58 $31 $-1 $59 forward single #
face $-1 $60 $61 $32 $-1 $62 forward single #
face $-1 $63 $64 $33 $-1 $65 reversed single #
face $-1 $66 $67 $34 $-1 $68 forward single #
face $-1 $69 $70 $35 $-1 $71 forward single #
face $-1 $72 $73 $27 $-1 $74 reversed single #
loop $-1 $-1 $75 $36 #
plane-surface $-1 0 0 8.9475926523131513 0 0 1 1 0 0 forward_v I I I I #
face $-1 $76 $77 $28 $-1 $78 reversed single #
loop $-1 $-1 $79 $37 #
plane-surface $-1 0 -29.446951283530442 3.9958468214920124 0 0 1 1 0 0 forward_v I I I I #
face $-1 $80 $81 $29 $-1 $82 reversed single #
loop $-1 $-1 $83 $38 #
plane-surface $-1 0 29.446951283530439 3.9958468214920124 0 0 1 1 0 0 forward_v I I I I #
face $-1 $84 $85 $30 $-1 $86 reversed single #
loop $-1 $-1 $87 $39 #
plane-surface $-1 -95.581530838340598 -7.7742730228477228 87.827139464594708 0 1 0 -0.50000000669873634 0 0.8660253999169214 forward_v I I I I #
face $-1 $88 $89 $31 $-1 $90 forward single #
loop $-1 $91 $92 $40 #
cone-surface $-1 -43.666164236369973 -5.7396227211617017 5.7000604182116721 0.50000000669873634 0 -0.8660253999169214 0.8660253999169214 0 0.50000000669873634 1 I I 0 1 1 forward I I I I #
face $-1 $93 $94 $32 $-1 $95 forward single #
loop $-1 $96 $97 $41 #
cone-surface $-1 -43.666164236369973 -2.68764726863267 5.7000604182116721 0.50000000669873634 0 -0.8660253999169214 0.8660253999169214 0 0.50000000669873634 1 I I 0 1 1 forward I I I I #
face $-1 $98 $99 $33 $-1 $100 reversed single #
loop $-1 $-1 $101 $42 #
plane-surface $-1 12.805497923889945 -0.65299696694665244 135.61790520390275 0 -1 0 -0.50000000669873634 0 -0.8660253999169214 forward_v I I I I #
face $-1 $102 $103 $34 $-1 $104 forward single #
loop $-1 $105 $106 $43 #
cone-surface $-1 43.666164236369966 -5.7396227211617017 5.7000604182116827 -0.50000000669873634 0 -0.8660253999169214 0.8660253999169214 0 -0.50000000669873634 1 I I 0 1 1 forward I I I I #
face $-1 $107 $108 $35 $-1 $109 forward single #
loop $-1 $110 $111 $44 #
cone-surface $-1 43.666164236369966 -2.68764726863267 5.7000604182116827 -0.50000000669873634 0 -0.8660253999169214 0.8660253999169214 0 -0.50000000669873634 1 I I 0 1 1 forward I I I I #
face $-1 $112 $113 $27 $-1 $114 reversed single #
loop $-1 $-1 $115 $45 #
plane-surface $-1 0 0 -8.9475926523131513 0 0 1 1 0 0 forward_v I I I I #
coedge $-1 $116 $117 $118 $119 forward $46 $-1 #
face $-1 $120 $121 $28 $-1 $122 reversed single #
loop $-1 $-1 $123 $48 #
plane-surface $-1 0 -25.921672960526287 6.4717197369025818 0 -1 0 0 0 -1 forward_v I I I I #
coedge $-1 $124 $125 $126 $127 reversed $49 $-1 #
face $-1 $128 $129 $29 $-1 $130 forward single #
loop $-1 $-1 $131 $51 #
plane-surface $-1 0 25.921672960526283 6.4717197369025818 0 1 0 0 0 1 forward_v I I I I #
coedge $-1 $132 $133 $134 $135 reversed $52 $-1 #
face $-1 $136 $137 $30 $-1 $138 reversed single #
loop $-1 $-1 $139 $54 #
plane-surface $-1 -47.790765099032562 -4.2136349948971876 5.0511065501440555 -0.50000000669873634 0 0.8660253999169214 0.8660253999169214 0 0.50000000669873634 forward_v I I I I #
coedge $-1 $140 $141 $142 $143 reversed $55 $-1 #
face $-1 $-1 $144 $31 $-1 $145 forward single #
loop $-1 $146 $147 $57 #
cone-surface $-1 -42.666019260050547 -5.7396227211617017 3.9677585352362783 0.50000000669873634 0 -0.8660253999169214 0.4330126999584607 0 0.25000000334936817 1 I I -0.70710678118654746 0.70710678118654746 0.5 forward I I I I #
loop $-1 $-1 $148 $40 #
coedge $-1 $92 $92 $149 $150 reversed $58 $-1 #
face $-1 $-1 $151 $32 $-1 $152 forward single #
loop $-1 $153 $154 $60 #
cone-surface $-1 -42.666019260050547 -2.68764726863267 3.9677585352362783 0.50000000669873634 0 -0.8660253999169214 0.4330126999584607 0 0.25000000334936817 1 I I -0.70710678118654746 0.70710678118654746 0.5 forward I I I I #
loop $-1 $-1 $155 $41 #
coedge $-1 $97 $97 $156 $157 reversed $61 $-1 #
face $-1 $158 $159 $33 $-1 $160 reversed single #
loop $-1 $-1 $161 $63 #
plane-surface $-1 -34.985267815418091 -4.2136349948971876 52.841872289452098 0.50000000669873634 0 0.8660253999169214 0.8660253999169214 0 -0.50000000669873634 forward_v I I I I #
coedge $-1 $162 $163 $164 $165 reversed $64 $-1 #
face $-1 $-1 $166 $34 $-1 $167 forward single #
loop $-1 $168 $169 $66 #
cone-surface $-1 42.66601926005054 -5.7396227211617017 3.967758535236289 -0.50000000669873634 0 -0.8660253999169214 0.4330126999584607 0 -0.25000000334936817 1 I I -0.70710678118654746 0.70710678118654746 0.5 forward I I I I #
loop $-1 $-1 $170 $43 #
coedge $-1 $106 $106 $171 $172 reversed $67 $-1 #
face $-1 $-1 $173 $35 $-1 $174 forward single #
loop $-1 $175 $176 $69 #
cone-surface $-1 42.66601926005054 -2.68764726863267 3.967758535236289 -0.50000000669873634 0 -0.8660253999169214 0.4330126999584607 0 -0.25000000334936817 1 I I -0.70710678118654746 0.70710678118654746 0.5 forward I I I I #
loop $-1 $-1 $177 $44 #
coedge $-1 $111 $111 $178 $179 reversed $70 $-1 #
face $-1 $180 $181 $27 $-1 $182 reversed single #
loop $-1 $-1 $183 $72 #
plane-surface $-1 0 -32.972229606534597 0 0 1 0 0 0 1 forward_v I I I I #
coedge $-1 $184 $185 $186 $187 forward $73 $-1 #
coedge $-1 $188 $75 $189 $190 forward $46 $-1 #
coedge $-1 $75 $188 $191 $192 forward $46 $-1 #
coedge $-1 $193 $194 $75 $119 reversed $195 $-1 #
edge $-1 $196 -32.972229606534597 $197 32.972229606534597 $118 $198 forward 7 unknown #
face $-1 $199 $200 $28 $-1 $201 reversed single #
loop $-1 $-1 $202 $76 #
plane-surface $-1 -47.790765099032562 0 0 1 0 0 0 0 -1 forward_v I I I I #
coedge $-1 $203 $204 $205 $206 reversed $77 $-1 #
coedge $-1 $207 $79 $208 $209 reversed $49 $-1 #
coedge $-1 $79 $207 $203 $210 forward $49 $-1 #
coedge $-1 $205 $211 $79 $127 forward $212 $-1 #
edge $-1 $213 -18.248753964769378 $214 -11.198197318761066 $126 $215 forward 7 unknown #
face $-1 $216 $217 $29 $-1 $218 reversed single #
loop $-1 $-1 $219 $80 #
plane-surface $-1 0 0 8.9475926523131513 0 0 1 1 0 0 forward_v I I I I #
coedge $-1 $220 $221 $222 $223 reversed $81 $-1 #
coedge $-1 $224 $83 $220 $225 forward $52 $-1 #
coedge $-1 $83 $224 $226 $227 reversed $52 $-1 #
coedge $-1 $228 $229 $83 $135 forward $217 $-1 #
edge $-1 $230 11.198197318761064 $231 18.248753964769378 $134 $232 forward 7 unknown #
face $-1 $233 $234 $30 $-1 $235 reversed single #
loop $-1 $-1 $236 $84 #
plane-surface $-1 -95.581530838340598 -0.65299696694665244 87.827139464594708 0 -1 0 0.50000000669873634 0 -0.8660253999169214 forward_v I I I I #
coedge $-1 $237 $238 $239 $240 reversed $85 $-1 #
coedge $-1 $141 $87 $241 $242 reversed $55 $-1 #
coedge $-1 $87 $140 $237 $243 reversed $55 $-1 #
coedge $-1 $239 $244 $87 $143 forward $245 $-1 #
edge $-1 $246 3.2013773676453638e-007 $247 6.748912099522812 $142 $248 forward 7 unknown #
loop $-1 $-1 $149 $88 #
plane-surface $-1 -47.790765099032562 -4.2136349948971876 5.0511065501440555 -0.50000000669873634 0 0.8660253999169214 0.8660253999169214 0 0.50000000669873634 forward_v I I I I #
loop $-1 $-1 $249 $57 #
coedge $-1 $147 $147 $148 $250 reversed $89 $-1 #
coedge $-1 $148 $148 $147 $250 forward $91 $-1 #
coedge $-1 $149 $149 $92 $150 forward $144 $-1 #
edge $-1 $251 0 $251 6.2831853071796004 $149 $252 forward 7 unknown #
loop $-1 $-1 $156 $93 #
plane-surface $-1 -47.790765099032562 -4.2136349948971876 5.0511065501440555 -0.50000000669873634 0 0.8660253999169214 0.8660253999169214 0 0.50000000669873634 forward_v I I I I #
loop $-1 $-1 $253 $60 #
coedge $-1 $154 $154 $155 $254 reversed $94 $-1 #
coedge $-1 $155 $155 $154 $254 forward $96 $-1 #
coedge $-1 $156 $156 $97 $157 forward $151 $-1 #
edge $-1 $255 0 $255 6.2831853071796004 $156 $256 forward 7 unknown #
face $-1 $257 $258 $33 $-1 $259 forward single #
loop $-1 $-1 $260 $98 #
plane-surface $-1 12.805497923889945 -7.7742730228477228 135.61790520390275 0 1 0 0.50000000669873634 0 0.8660253999169214 forward_v I I I I #
coedge $-1 $261 $262 $263 $264 reversed $99 $-1 #
coedge $-1 $163 $101 $265 $266 reversed $64 $-1 #
coedge $-1 $101 $162 $261 $267 reversed $64 $-1 #
coedge $-1 $263 $268 $101 $165 forward $258 $-1 #
edge $-1 $269 -41.38801613708759 $270 -34.639104357702536 $164 $271 forward 7 unknown #
loop $-1 $-1 $171 $102 #
plane-surface $-1 -34.985267815418091 -4.2136349948971876 52.841872289452098 0.50000000669873634 0 0.8660253999169214 0.8660253999169214 0 -0.50000000669873634 forward_v I I I I #
loop $-1 $-1 $272 $66 #
coedge $-1 $169 $169 $170 $273 reversed $103 $-1 #
coedge $-1 $170 $170 $169 $273 forward $105 $-1 #
coedge $-1 $171 $171 $106 $172 forward $166 $-1 #
edge $-1 $274 0 $274 6.2831853071796004 $171 $275 forward 7 unknown #
loop $-1 $-1 $178 $107 #
plane-surface $-1 -34.985267815418091 -4.2136349948971876 52.841872289452098 0.50000000669873634 0 0.8660253999169214 0.8660253999169214 0 -0.50000000669873634 forward_v I I I I #
loop $-1 $-1 $276 $69 #
coedge $-1 $176 $176 $177 $277 reversed $108 $-1 #
coedge $-1 $177 $177 $176 $277 forward $110 $-1 #
coedge $-1 $178 $178 $111 $179 forward $173 $-1 #
edge $-1 $278 0 $278 6.2831853071796004 $178 $279 forward 7 unknown #
face $-1 $280 $281 $27 $-1 $282 reversed single #
loop $-1 $-1 $283 $112 #
plane-surface $-1 -47.790765099032562 0 0 1 0 0 0 0 -1 forward_v I I I I #
coedge $-1 $284 $191 $285 $286 forward $113 $-1 #
coedge $-1 $287 $115 $284 $288 forward $73 $-1 #
coedge $-1 $115 $287 $289 $290 forward $73 $-1 #
coedge $-1 $194 $193 $115 $187 reversed $195 $-1 #
edge $-1 $291 -32.972229606534597 $292 32.972229606534597 $186 $293 forward 7 unknown #
coedge $-1 $117 $116 $294 $295 forward $46 $-1 #
coedge $-1 $296 $297 $116 $190 reversed $281 $-1 #
edge $-1 $197 -47.790765099032562 $298 47.790765099032562 $189 $299 forward 7 unknown #
coedge $-1 $183 $300 $117 $192 reversed $113 $-1 #
edge $-1 $301 -47.790765099032562 $196 47.790765099032562 $191 $302 forward 7 unknown #
coedge $-1 $186 $118 $300 $303 forward $195 $-1 #
coedge $-1 $118 $186 $296 $304 reversed $195 $-1 #
loop $-1 $-1 $193 $280 #
vertex $-1 $119 $305 #
vertex $-1 $119 $306 #
straight-curve $-1 47.790765099032562 0 8.9475926523131513 0 1 0 I I #
face $-1 $307 $308 $28 $-1 $309 forward single #
loop $-1 $-1 $208 $120 #
plane-surface $-1 0 -32.972229606534597 0 0 1 0 0 0 1 forward_v I I I I #
coedge $-1 $310 $311 $312 $313 forward $121 $-1 #
coedge $-1 $312 $123 $125 $210 reversed $77 $-1 #
coedge $-1 $123 $312 $314 $315 reversed $77 $-1 #
coedge $-1 $316 $126 $123 $206 forward $212 $-1 #
edge $-1 $214 0.7599869530407215 $317 5.7117327838618603 $205 $318 forward 7 unknown #
coedge $-1 $125 $124 $310 $319 reversed $49 $-1 #
coedge $-1 $320 $321 $124 $209 forward $200 $-1 #
edge $-1 $322 -47.790765099032562 $213 47.790765099032562 $208 $323 forward 7 unknown #
edge $-1 $324 -47.790765099032562 $214 47.790765099032562 $203 $325 forward 7 unknown #
coedge $-1 $126 $316 $320 $326 forward $212 $-1 #
loop $-1 $-1 $205 $307 #
vertex $-1 $209 $327 #
vertex $-1 $127 $328 #
straight-curve $-1 47.790765099032562 -14.723475641765221 3.9958468214920124 0 1 0 I I #
face $-1 $329 $330 $29 $-1 $331 reversed single #
loop $-1 $-1 $229 $128 #
plane-surface $-1 47.790765099032562 0 0 -1 0 0 0 0 1 forward_v I I I I #
coedge $-1 $332 $333 $221 $334 forward $129 $-1 #
coedge $-1 $335 $131 $132 $225 reversed $81 $-1 #
coedge $-1 $131 $335 $219 $334 reversed $81 $-1 #
coedge $-1 $336 $337 $131 $223 forward $330 $-1 #
edge $-1 $338 0.7599869530407215 $339 5.7117327838618603 $222 $340 forward 7 unknown #
coedge $-1 $133 $132 $337 $341 reversed $52 $-1 #
edge $-1 $230 -47.790765099032562 $338 47.790765099032562 $220 $342 forward 7 unknown #
coedge $-1 $343 $344 $133 $227 forward $345 $-1 #
edge $-1 $231 -47.790765099032562 $346 47.790765099032562 $226 $347 forward 7 unknown #
coedge $-1 $348 $134 $344 $349 reversed $217 $-1 #
coedge $-1 $134 $348 $335 $350 forward $217 $-1 #
vertex $-1 $135 $351 #
vertex $-1 $227 $352 #
straight-curve $-1 47.790765099032562 14.723475641765219 3.9958468214920124 0 1 0 I I #
face $-1 $-1 $245 $30 $-1 $353 forward single #
loop $-1 $-1 $354 $136 #
plane-surface $-1 -47.790765099032562 0 0 1 0 0 0 0 -1 forward_v I I I I #
coedge $-1 $355 $356 $357 $358 reversed $137 $-1 #
coedge $-1 $359 $139 $141 $243 forward $85 $-1 #
coedge $-1 $139 $359 $355 $360 forward $85 $-1 #
coedge $-1 $357 $142 $139 $240 forward $245 $-1 #
edge $-1 $247 -5.667455525399129 $361 1.4538205305019414 $239 $362 forward 7 unknown #
coedge $-1 $363 $364 $140 $242 forward $234 $-1 #
edge $-1 $365 -38.862463182153299 $246 -34.965977079984199 $241 $366 forward 7 unknown #
edge $-1 $247 -7.7929720999320624 $365 0 $141 $367 forward 7 unknown #
coedge $-1 $142 $357 $363 $368 forward $245 $-1 #
loop $-1 $-1 $357 $233 #
vertex $-1 $242 $369 #
vertex $-1 $143 $370 #
straight-curve $-1 -47.790765419170299 -7.7742730228477228 8.9475926523131548 1 0 0 I I #
coedge $-1 $249 $249 $-1 $371 reversed $146 $-1 #
edge $-1 $372 0 $372 6.2831853071796004 $147 $373 forward 7 unknown #
vertex $-1 $150 $374 #
ellipse-curve $-1 -44.416309209340028 -5.7396227211617017 6.9993496012286016 -0.50000000669873634 0 0.8660253999169214 0.8660253999169214 0 0.50000000669873634 1 I I #
coedge $-1 $253 $253 $-1 $375 reversed $153 $-1 #
edge $-1 $376 0 $376 6.2831853071796004 $154 $377 forward 7 unknown #
vertex $-1 $157 $378 #
ellipse-curve $-1 -44.416309209340028 -2.68764726863267 6.9993496012286016 -0.50000000669873634 0 0.8660253999169214 0.8660253999169214 0 0.50000000669873634 1 I I #
face $-1 $-1 $379 $33 $-1 $380 reversed single #
loop $-1 $-1 $164 $158 #
plane-surface $-1 0 0 8.9475926523131513 0 0 1 1 0 0 forward_v I I I I #
coedge $-1 $381 $382 $383 $384 reversed $159 $-1 #
coedge $-1 $385 $161 $163 $267 forward $99 $-1 #
coedge $-1 $161 $385 $381 $386 forward $99 $-1 #
coedge $-1 $383 $164 $161 $264 forward $258 $-1 #
edge $-1 $270 -1.4538205305019414 $387 5.667455525399129 $263 $388 forward 7 unknown #
coedge $-1 $389 $390 $162 $266 forward $379 $-1 #
edge $-1 $391 -62.757846051807313 $269 -58.861359949638228 $265 $392 forward 7 unknown #
edge $-1 $270 87.788558098133095 $391 95.581530198065138 $163 $393 forward 7 unknown #
coedge $-1 $164 $383 $389 $394 forward $258 $-1 #
vertex $-1 $266 $395 #
vertex $-1 $165 $396 #
straight-curve $-1 6.4027489619449725 -0.65299696694665244 8.9475926523131477 -1 0 0 I I #
coedge $-1 $272 $272 $-1 $397 reversed $168 $-1 #
edge $-1 $398 0 $398 6.2831853071796004 $169 $399 forward 7 unknown #
vertex $-1 $172 $400 #
ellipse-curve $-1 44.416309209340021 -5.7396227211617017 6.9993496012286158 0.50000000669873634 0 0.8660253999169214 0.8660253999169214 0 -0.50000000669873634 1 I I #
coedge $-1 $276 $276 $-1 $401 reversed $175 $-1 #
edge $-1 $402 0 $402 6.2831853071796004 $176 $403 forward 7 unknown #
vertex $-1 $179 $404 #
ellipse-curve $-1 44.416309209340021 -2.68764726863267 6.9993496012286158 0.50000000669873634 0 0.8660253999169214 0.8660253999169214 0 -0.50000000669873634 1 I I #
face $-1 $-1 $195 $27 $-1 $405 reversed single #
loop $-1 $-1 $296 $180 #
plane-surface $-1 0 32.972229606534597 0 0 -1 0 0 0 -1 forward_v I I I I #
coedge $-1 $406 $294 $297 $407 forward $181 $-1 #
coedge $-1 $300 $183 $184 $288 reversed $113 $-1 #
coedge $-1 $294 $406 $183 $286 reversed $181 $-1 #
edge $-1 $301 -8.9475926523131513 $408 8.9475926523131513 $285 $409 forward 7 unknown #
coedge $-1 $185 $184 $406 $410 forward $73 $-1 #
edge $-1 $292 -47.790765099032562 $408 47.790765099032562 $284 $411 forward 7 unknown #
coedge $-1 $297 $296 $185 $290 reversed $281 $-1 #
edge $-1 $412 -47.790765099032562 $291 47.790765099032562 $289 $413 forward 7 unknown #
vertex $-1 $187 $414 #
vertex $-1 $303 $415 #
straight-curve $-1 47.790765099032562 0 -8.9475926523131513 0 -1 0 I I #
coedge $-1 $283 $285 $188 $295 reversed $181 $-1 #
edge $-1 $298 -32.972229606534597 $301 32.972229606534597 $294 $416 forward 7 unknown #
coedge $-1 $289 $189 $194 $304 forward $281 $-1 #
coedge $-1 $189 $289 $283 $407 reversed $281 $-1 #
vertex $-1 $190 $417 #
straight-curve $-1 0 32.972229606534597 8.9475926523131513 -1 0 0 I I #
coedge $-1 $191 $284 $193 $303 reversed $113 $-1 #
vertex $-1 $295 $418 #
straight-curve $-1 0 -32.972229606534597 8.9475926523131513 1 0 0 I I #
edge $-1 $196 -8.9475926523131513 $292 8.9475926523131513 $193 $419 forward 7 unknown #
edge $-1 $197 -8.9475926523131513 $291 8.9475926523131513 $194 $420 forward 7 unknown #
point $-1 47.790765099032562 -32.972229606534597 8.9475926523131513 #
point $-1 47.790765099032562 32.972229606534597 8.9475926523131513 #
face $-1 $-1 $212 $28 $-1 $421 reversed single #
loop $-1 $-1 $314 $199 #
plane-surface $-1 0 0 8.9475926523131513 0 0 1 1 0 0 forward_v I I I I #
coedge $-1 $422 $202 $207 $319 forward $121 $-1 #
coedge $-1 $202 $422 $423 $424 reversed $121 $-1 #
coedge $-1 $204 $203 $202 $313 reversed $77 $-1 #
edge $-1 $425 -5.7117327838618603 $324 -0.7599869530407215 $202 $426 forward 7 unknown #
coedge $-1 $423 $427 $204 $315 forward $308 $-1 #
edge $-1 $317 -47.790765099032562 $425 47.790765099032562 $314 $428 forward 7 unknown #
coedge $-1 $211 $205 $427 $429 reversed $212 $-1 #
vertex $-1 $206 $430 #
straight-curve $-1 47.790765099032562 -25.921672960526287 3.2358598684512909 0 0 1 I I #
edge $-1 $324 11.198197318761066 $322 18.248753964769378 $310 $431 forward 7 unknown #
coedge $-1 $432 $208 $211 $326 reversed $200 $-1 #
coedge $-1 $208 $432 $422 $433 forward $200 $-1 #
vertex $-1 $209 $434 #
straight-curve $-1 0 -32.972229606534597 3.9958468214920124 1 0 0 I I #
vertex $-1 $319 $435 #
straight-curve $-1 0 -25.921672960526287 3.9958468214920124 1 0 0 I I #
edge $-1 $436 -8.9475926523131513 $213 -3.9958468214920124 $211 $437 forward 7 unknown #
point $-1 47.790765099032562 -32.972229606534597 3.9958468214920124 #
point $-1 47.790765099032562 -25.921672960526287 3.9958468214920124 #
face $-1 $-1 $345 $29 $-1 $438 reversed single #
loop $-1 $-1 $222 $216 #
plane-surface $-1 -47.790765099032562 0 0 1 0 0 0 0 -1 forward_v I I I I #
coedge $-1 $439 $219 $348 $440 forward $129 $-1 #
coedge $-1 $219 $439 $336 $441 forward $129 $-1 #
edge $-1 $339 -47.790765099032562 $442 47.790765099032562 $219 $443 forward 7 unknown #
coedge $-1 $221 $220 $229 $350 reversed $81 $-1 #
coedge $-1 $444 $222 $333 $441 reversed $330 $-1 #
coedge $-1 $222 $444 $224 $341 forward $330 $-1 #
vertex $-1 $341 $445 #
vertex $-1 $223 $446 #
straight-curve $-1 -47.790765099032562 25.921672960526283 3.2358598684512909 0 0 1 I I #
edge $-1 $346 -18.248753964769378 $338 -11.198197318761064 $337 $447 forward 7 unknown #
straight-curve $-1 0 25.921672960526283 3.9958468214920124 -1 0 0 I I #
coedge $-1 $448 $226 $444 $449 reversed $345 $-1 #
coedge $-1 $226 $448 $228 $349 forward $345 $-1 #
loop $-1 $-1 $226 $329 #
vertex $-1 $227 $450 #
straight-curve $-1 0 32.972229606534597 3.9958468214920124 -1 0 0 I I #
coedge $-1 $229 $228 $332 $440 reversed $217 $-1 #
edge $-1 $451 -8.9475926523131513 $231 -3.9958468214920124 $228 $452 forward 7 unknown #
edge $-1 $442 -5.7117327838618603 $230 -0.7599869530407215 $229 $453 forward 7 unknown #
point $-1 47.790765099032562 25.921672960526283 3.9958468214920124 #
point $-1 47.790765099032562 32.972229606534597 3.9958468214920124 #
plane-surface $-1 0 0 8.9475926523131513 0 0 1 1 0 0 forward_v I I I I #
coedge $-1 $364 $363 $356 $454 forward $234 $-1 #
coedge $-1 $356 $236 $238 $360 reversed $137 $-1 #
coedge $-1 $236 $355 $354 $454 reversed $137 $-1 #
coedge $-1 $244 $239 $236 $358 forward $245 $-1 #
edge $-1 $361 -6.748912099522812 $455 -3.2013773676453638e-007 $357 $456 forward 7 unknown #
coedge $-1 $238 $237 $364 $457 reversed $85 $-1 #
edge $-1 $458 0 $361 7.7929720999320624 $355 $459 forward 7 unknown #
vertex $-1 $240 $460 #
straight-curve $-1 -41.041853319647487 -2.1068174974485938 8.9475926523131513 0 1 0 I I #
coedge $-1 $354 $241 $244 $368 reversed $234 $-1 #
coedge $-1 $241 $354 $359 $457 forward $234 $-1 #
vertex $-1 $242 $461 #
straight-curve $-1 -47.790765099032562 -7.7742730228477228 43.913569732297354 0 0 1 I I #
straight-curve $-1 -47.790765099032562 -7.7742730228477228 5.0511065501440555 -0.8660253999169214 0 -0.50000000669873634 I I #
edge $-1 $455 0.65299696694665244 $246 7.7742730228477228 $363 $462 forward 7 unknown #
point $-1 -47.790765099032562 -7.7742730228477228 8.9475926523131513 #
point $-1 -41.041853319647487 -7.7742730228477228 8.9475926523131513 #
edge $-1 $463 1 $463 0 $249 $-1 forward 7 unknown #
vertex $-1 $250 $464 #
ellipse-curve $-1 -42.916019263399917 -5.7396227211617017 4.400771235194739 -0.50000000669873634 0 0.8660253999169214 0.8660253999169214 0 0.50000000669873634 1 I I #
point $-1 -43.550283809423107 -5.7396227211617017 7.4993496079273418 #
edge $-1 $465 1 $465 0 $253 $-1 forward 7 unknown #
vertex $-1 $254 $466 #
ellipse-curve $-1 -42.916019263399917 -2.68764726863267 4.400771235194739 -0.50000000669873634 0 0.8660253999169214 0.8660253999169214 0 0.50000000669873634 1 I I #
point $-1 -43.550283809423107 -2.68764726863267 7.4993496079273418 #
loop $-1 $-1 $265 $257 #
plane-surface $-1 47.790765099032562 0 0 -1 0 0 0 0 1 forward_v I I I I #
coedge $-1 $382 $260 $262 $386 reversed $159 $-1 #
coedge $-1 $260 $381 $467 $468 reversed $159 $-1 #
coedge $-1 $268 $263 $260 $384 forward $258 $-1 #
edge $-1 $387 34.639104357702536 $469 41.38801613708759 $383 $470 forward 7 unknown #
coedge $-1 $262 $261 $390 $471 reversed $99 $-1 #
edge $-1 $472 -95.581530198065138 $387 -87.788558098133095 $381 $473 forward 7 unknown #
vertex $-1 $264 $474 #
straight-curve $-1 41.041853319647501 -2.1068174974485938 8.9475926523131548 0 -1 0 I I #
coedge $-1 $467 $265 $268 $394 reversed $379 $-1 #
coedge $-1 $265 $467 $385 $471 forward $379 $-1 #
vertex $-1 $266 $475 #
straight-curve $-1 47.790765099032562 -0.65299696694665244 67.808952601951376 0 0 1 I I #
straight-curve $-1 -34.985267815418091 -0.65299696694665244 52.841872289452098 0.8660253999169214 0 -0.50000000669873634 I I #
edge $-1 $469 -7.7742730228477228 $269 -0.65299696694665244 $389 $476 forward 7 unknown #
point $-1 47.790765099032562 -0.65299696694665244 8.9475926523131513 #
point $-1 41.041853319647508 -0.65299696694665244 8.9475926523131477 #
edge $-1 $477 1 $477 0 $272 $-1 forward 7 unknown #
vertex $-1 $273 $478 #
ellipse-curve $-1 42.91601926339991 -5.7396227211617017 4.4007712351947497 0.50000000669873634 0 0.8660253999169214 0.8660253999169214 0 -0.50000000669873634 1 I I #
point $-1 45.282334609256942 -5.7396227211617017 6.49934959452988 #
edge $-1 $479 1 $479 0 $276 $-1 forward 7 unknown #
vertex $-1 $277 $480 #
ellipse-curve $-1 42.91601926339991 -2.68764726863267 4.4007712351947497 0.50000000669873634 0 0.8660253999169214 0.8660253999169214 0 -0.50000000669873634 1 I I #
point $-1 45.282334609256942 -2.68764726863267 6.49934959452988 #
plane-surface $-1 47.790765099032562 0 0 -1 0 0 0 0 1 forward_v I I I I #
coedge $-1 $285 $283 $287 $410 reversed $181 $-1 #
edge $-1 $298 -8.9475926523131513 $412 8.9475926523131513 $297 $481 forward 7 unknown #
vertex $-1 $410 $482 #
straight-curve $-1 -47.790765099032562 -32.972229606534597 0 0 0 -1 I I #
edge $-1 $408 -32.972229606534597 $412 32.972229606534597 $406 $483 forward 7 unknown #
straight-curve $-1 0 -32.972229606534597 -8.9475926523131513 -1 0 0 I I #
vertex $-1 $290 $484 #
straight-curve $-1 0 32.972229606534597 -8.9475926523131513 1 0 0 I I #
point $-1 47.790765099032562 32.972229606534597 -8.9475926523131513 #
point $-1 47.790765099032562 -32.972229606534597 -8.9475926523131513 #
straight-curve $-1 -47.790765099032562 0 8.9475926523131513 0 -1 0 I I #
point $-1 -47.790765099032562 32.972229606534597 8.9475926523131513 #
point $-1 -47.790765099032562 -32.972229606534597 8.9475926523131513 #
straight-curve $-1 47.790765099032562 -32.972229606534597 0 0 0 -1 I I #
straight-curve $-1 47.790765099032562 32.972229606534597 0 0 0 -1 I I #
plane-surface $-1 47.790765099032562 0 0 -1 0 0 0 0 1 forward_v I I I I #
coedge $-1 $311 $310 $321 $433 reversed $121 $-1 #
coedge $-1 $485 $314 $311 $424 forward $308 $-1 #
edge $-1 $425 25.921672960526287 $486 32.972229606534597 $311 $487 forward 7 unknown #
vertex $-1 $424 $488 #
straight-curve $-1 -47.790765099032562 -25.921672960526287 3.2358598684512909 0 0 -1 I I #
coedge $-1 $314 $485 $316 $429 forward $308 $-1 #
straight-curve $-1 0 -25.921672960526287 8.9475926523131513 -1 0 0 I I #
edge $-1 $436 -32.972229606534597 $317 -25.921672960526287 $316 $489 forward 7 unknown #
point $-1 47.790765099032562 -25.921672960526287 8.9475926523131513 #
straight-curve $-1 -47.790765099032562 -14.723475641765221 3.9958468214920124 0 -1 0 I I #
coedge $-1 $321 $320 $485 $490 reversed $200 $-1 #
edge $-1 $486 -8.9475926523131513 $322 -3.9958468214920124 $422 $491 forward 7 unknown #
point $-1 -47.790765099032562 -32.972229606534597 3.9958468214920124 #
point $-1 -47.790765099032562 -25.921672960526287 3.9958468214920124 #
vertex $-1 $429 $492 #
straight-curve $-1 47.790765099032562 -32.972229606534597 0 0 0 -1 I I #
plane-surface $-1 0 32.972229606534597 0 0 -1 0 0 0 -1 forward_v I I I I #
coedge $-1 $333 $332 $448 $493 forward $129 $-1 #
edge $-1 $442 25.921672960526283 $451 32.972229606534597 $348 $494 forward 7 unknown #
edge $-1 $495 -32.972229606534597 $339 -25.921672960526283 $336 $496 forward 7 unknown #
vertex $-1 $440 $497 #
straight-curve $-1 0 25.921672960526283 8.9475926523131513 1 0 0 I I #
coedge $-1 $337 $336 $343 $449 forward $330 $-1 #
point $-1 -47.790765099032562 25.921672960526283 3.9958468214920124 #
point $-1 -47.790765099032562 25.921672960526283 8.9475926523131513 #
straight-curve $-1 -47.790765099032562 14.723475641765219 3.9958468214920124 0 -1 0 I I #
coedge $-1 $344 $343 $439 $493 reversed $345 $-1 #
edge $-1 $495 -8.9475926523131513 $346 -3.9958468214920124 $343 $498 forward 7 unknown #
point $-1 -47.790765099032562 32.972229606534597 3.9958468214920124 #
vertex $-1 $440 $499 #
straight-curve $-1 47.790765099032562 32.972229606534597 0 0 0 -1 I I #
straight-curve $-1 47.790765099032562 25.921672960526283 3.2358598684512909 0 0 -1 I I #
edge $-1 $455 34.965977079984199 $458 38.862463182153299 $354 $500 forward 7 unknown #
vertex $-1 $368 $501 #
straight-curve $-1 -47.790765419170299 -0.65299696694665244 8.9475926523131548 -1 0 0 I I #
edge $-1 $458 -1.4538205305019414 $365 5.667455525399129 $364 $502 forward 7 unknown #
vertex $-1 $457 $503 #
straight-curve $-1 -47.790765099032562 -0.65299696694665244 5.0511065501440555 0.8660253999169214 0 0.50000000669873634 I I #
point $-1 -41.041853319647487 -0.65299696694665244 8.9475926523131513 #
point $-1 -47.790765099032562 -7.7742730228477228 5.0511065501440555 #
straight-curve $-1 -47.790765099032562 0 8.9475926523131513 0 -1 0 I I #
vertex $-1 $371 $504 #
point $-1 -42.049993863482996 -5.7396227211617017 4.9007712418934757 #
vertex $-1 $375 $505 #
point $-1 -42.049993863482996 -2.68764726863267 4.9007712418934757 #
coedge $-1 $390 $389 $382 $468 forward $379 $-1 #
edge $-1 $469 58.861359949638228 $472 62.757846051807313 $467 $506 forward 7 unknown #
vertex $-1 $394 $507 #
straight-curve $-1 6.4027489619449725 -7.7742730228477228 8.9475926523131477 1 0 0 I I #
edge $-1 $472 -5.667455525399129 $391 1.4538205305019414 $390 $508 forward 7 unknown #
vertex $-1 $471 $509 #
straight-curve $-1 -34.985267815418091 -7.7742730228477228 52.841872289452098 -0.8660253999169214 0 0.50000000669873634 I I #
point $-1 41.041853319647508 -7.7742730228477228 8.9475926523131477 #
point $-1 47.790765099032562 -0.65299696694665244 5.0511065501440626 #
straight-curve $-1 47.790765099032562 0 8.9475926523131513 0 1 0 I I #
vertex $-1 $397 $510 #
point $-1 43.782044663316832 -5.7396227211617017 3.9007712284960134 #
vertex $-1 $401 $511 #
point $-1 43.782044663316832 -2.68764726863267 3.9007712284960134 #
straight-curve $-1 -47.790765099032562 32.972229606534597 0 0 0 -1 I I #
point $-1 -47.790765099032562 -32.972229606534597 -8.9475926523131513 #
straight-curve $-1 -47.790765099032562 0 -8.9475926523131513 0 1 0 I I #
point $-1 -47.790765099032562 32.972229606534597 -8.9475926523131513 #
coedge $-1 $427 $423 $432 $490 forward $308 $-1 #
vertex $-1 $424 $512 #
straight-curve $-1 -47.790765099032562 0 8.9475926523131513 0 -1 0 I I #
point $-1 -47.790765099032562 -25.921672960526287 8.9475926523131513 #
straight-curve $-1 47.790765099032562 0 8.9475926523131513 0 1 0 I I #
edge $-1 $486 -47.790765099032562 $436 47.790765099032562 $432 $513 forward 7 unknown #
straight-curve $-1 -47.790765099032562 -32.972229606534597 0 0 0 -1 I I #
point $-1 47.790765099032562 -32.972229606534597 8.9475926523131513 #
edge $-1 $451 -47.790765099032562 $495 47.790765099032562 $448 $514 forward 7 unknown #
straight-curve $-1 47.790765099032562 0 8.9475926523131513 0 1 0 I I #
vertex $-1 $493 $515 #
straight-curve $-1 -47.790765099032562 0 8.9475926523131513 0 -1 0 I I #
point $-1 47.790765099032562 25.921672960526283 8.9475926523131513 #
straight-curve $-1 -47.790765099032562 32.972229606534597 0 0 0 -1 I I #
point $-1 47.790765099032562 32.972229606534597 8.9475926523131513 #
straight-curve $-1 -47.790765099032562 -0.65299696694665244 43.913569732297354 0 0 -1 I I #
point $-1 -47.790765099032562 -0.65299696694665244 8.9475926523131513 #
straight-curve $-1 -47.790765099032562 -2.1068174974485938 5.0511065501440564 0 -1 0 I I #
point $-1 -47.790765099032562 -0.65299696694665244 5.0511065501440555 #
point $-1 -42.416019256701176 -5.7396227211617017 3.5347458352778176 #
point $-1 -42.416019256701176 -2.68764726863267 3.5347458352778176 #
straight-curve $-1 47.790765099032562 -7.7742730228477228 67.808952601951376 0 0 -1 I I #
point $-1 47.790765099032562 -7.7742730228477228 8.9475926523131513 #
straight-curve $-1 47.790765099032562 -2.1068174974485938 5.0511065501440662 0 1 0 I I #
point $-1 47.790765099032562 -7.7742730228477228 5.0511065501440626 #
point $-1 42.416019256701169 -5.7396227211617017 3.5347458352778283 #
point $-1 42.416019256701169 -2.68764726863267 3.5347458352778283 #
point $-1 -47.790765099032562 -32.972229606534597 8.9475926523131513 #
straight-curve $-1 0 -32.972229606534597 8.9475926523131513 1 0 0 I I #
straight-curve $-1 0 32.972229606534597 8.9475926523131513 -1 0 0 I I #
point $-1 -47.790765099032562 32.972229606534597 8.9475926523131513 #
End-of-ACIS-data 