500 0 11 0           
7 Unknown 11 ACIS 5.0 NT 24 Fri Mar 26 00:33:32 1999 
-1 9.9999999999999995e-007 1e-010 
body $-1 $11 $-1 $12 #
body $-1 $13 $-1 $14 #
body $-1 $15 $-1 $16 #
body $-1 $17 $-1 $18 #
body $-1 $19 $-1 $20 #
body $-1 $21 $-1 $22 #
body $-1 $23 $-1 $24 #
body $-1 $25 $-1 $26 #
body $-1 $27 $-1 $28 #
body $-1 $29 $-1 $30 #
body $-1 $31 $-1 $32 #
lump $-1 $-1 $33 $0 #
transform $-1 1 0 0 0 1 0 0 0 1 61.195715201269572 26.666742120818132 6.9464393253042145 1 rotate no_reflect no_shear #
lump $-1 $-1 $34 $1 #
transform $-1 1 0 0 0 1 0 0 0 1 61.195715201269572 26.666742120818132 6.9464393253042145 1 rotate no_reflect no_shear #
lump $-1 $-1 $35 $2 #
transform $-1 1 0 0 0 1 0 0 0 1 61.195715201269572 26.666742120818132 6.9464393253042145 1 rotate no_reflect no_shear #
lump $-1 $-1 $36 $3 #
transform $-1 1 0 0 0 1 0 0 0 1 61.195715201269572 26.666742120818132 6.9464393253042145 1 rotate no_reflect no_shear #
lump $-1 $-1 $37 $4 #
transform $-1 1 0 0 0 1 0 0 0 1 61.195715201269572 26.666742120818132 6.9464393253042145 1 rotate no_reflect no_shear #
lump $-1 $-1 $38 $5 #
transform $-1 1 0 0 0 1 0 0 0 1 61.195715201269572 26.666742120818132 6.9464393253042145 1 rotate no_reflect no_shear #
lump $-1 $-1 $39 $6 #
transform $-1 1 0 0 0 1 0 0 0 1 61.195715201269572 26.666742120818132 6.9464393253042145 1 rotate no_reflect no_shear #
lump $-1 $-1 $40 $7 #
transform $-1 1 0 0 0 1 0 0 0 1 61.195715201269572 26.666742120818132 6.9464393253042145 1 rotate no_reflect no_shear #
lump $-1 $-1 $41 $8 #
transform $-1 1 0 0 0 1 0 0 0 1 61.195715201269572 26.666742120818132 6.9464393253042145 1 rotate no_reflect no_shear #
lump $-1 $-1 $42 $9 #
transform $-1 1 0 0 0 1 0 0 0 1 61.195715201269572 26.666742120818132 6.9464393253042145 1 rotate no_reflect no_shear #
lump $-1 $-1 $43 $10 #
transform $-1 1 0 0 0 1 0 0 0 1 61.195715201269572 26.666742120818132 6.9464393253042145 1 rotate no_reflect no_shear #
shell $-1 $-1 $-1 $44 $-1 $11 #
shell $-1 $-1 $-1 $45 $-1 $13 #
shell $-1 $-1 $-1 $46 $-1 $15 #
shell $-1 $-1 $-1 $47 $-1 $17 #
shell $-1 $-1 $-1 $48 $-1 $19 #
shell $-1 $-1 $-1 $49 $-1 $21 #
shell $-1 $-1 $-1 $50 $-1 $23 #
shell $-1 $-1 $-1 $51 $-1 $25 #
shell $-1 $-1 $-1 $52 $-1 $27 #
shell $-1 $-1 $-1 $53 $-1 $29 #
shell $-1 $-1 $-1 $54 $-1 $31 #
face $-1 $55 $56 $33 $-1 $57 forward single #
face $-1 $58 $59 $34 $-1 $60 forward single #
face $-1 $61 $62 $35 $-1 $63 forward single #
face $-1 $64 $65 $36 $-1 $66 reversed single #
face $-1 $67 $68 $37 $-1 $69 forward single #
face $-1 $70 $71 $38 $-1 $72 forward single #
face $-1 $73 $74 $39 $-1 $75 forward single #
face $-1 $76 $77 $40 $-1 $78 reversed single #
face $-1 $79 $80 $41 $-1 $81 forward single #
face $-1 $82 $83 $42 $-1 $84 reversed single #
face $-1 $85 $86 $43 $-1 $87 forward single #
face $-1 $88 $89 $33 $-1 $90 reversed single #
loop $-1 $-1 $91 $44 #
plane-surface $-1 0 0 6.9464393253042145 0 0 1 1 0 0 forward_v I I I I #
face $-1 $92 $93 $34 $-1 $94 reversed single #
loop $-1 $-1 $95 $45 #
plane-surface $-1 0 -23.259980762682446 2.667858155776913 0 0 1 1 0 0 forward_v I I I I #
face $-1 $96 $97 $35 $-1 $98 reversed single #
loop $-1 $-1 $99 $46 #
plane-surface $-1 0 23.259980762682442 2.667858155776913 0 0 1 1 0 0 forward_v I I I I #
face $-1 $100 $101 $36 $-1 $102 reversed single #
loop $-1 $-1 $103 $47 #
plane-surface $-1 22.25947380139025 -11.797652309674103 172.45993276704579 0 1 0 0.52991927123019833 0 0.84804809178421925 forward_v I I I I #
face $-1 $104 $105 $37 $-1 $106 forward single #
loop $-1 $107 $108 $48 #
cone-surface $-1 58.402773618492169 -9.953288386555144 4.9260426036413012 -0.52991927123019833 0 -0.84804809178421925 0.42402404589210962 0 -0.26495963561509916 1 I I 0 1 0.5 forward I I I I #
face $-1 $109 $110 $38 $-1 $111 forward single #
loop $-1 $112 $113 $49 #
cone-surface $-1 58.402773618492169 -7.1867425018767044 4.9260426036413012 -0.52991927123019833 0 -0.84804809178421925 0.42402404589210962 0 -0.26495963561509916 1 I I 0 1 0.5 forward I I I I #
face $-1 $114 $115 $39 $-1 $116 forward single #
loop $-1 $117 $118 $50 #
cone-surface $-1 58.402773618492169 -4.4201966171982612 4.9260426036413012 -0.52991927123019833 0 -0.84804809178421925 0.42402404589210962 0 -0.26495963561509916 1 I I 0 1 0.5 forward I I I I #
face $-1 $119 $120 $40 $-1 $121 reversed single #
loop $-1 $-1 $122 $51 #
plane-surface $-1 -129.63613541750161 -10.264269931083916 102.91549853942972 0 -1 0 0.55919291073839883 0 -0.82903756765294845 forward_v I I I I #
face $-1 $123 $124 $41 $-1 $125 forward single #
loop $-1 $126 $127 $52 #
cone-surface $-1 -56.134472491708621 -13.626349194227291 2.7361253722656427 0.55919291073839883 0 -0.82903756765294845 0.82903756765294845 0 0.55919291073839883 1 I I 0 1 1 forward I I I I #
face $-1 $128 $129 $42 $-1 $130 reversed single #
loop $-1 $-1 $131 $53 #
plane-surface $-1 -129.63613541750161 9.5889494734628471 102.91549853942972 0 -1 0 0.55919291073839883 0 -0.82903756765294845 forward_v I I I I #
face $-1 $132 $133 $43 $-1 $134 forward single #
loop $-1 $135 $136 $54 #
cone-surface $-1 -56.134472491708621 6.226870210319472 2.7361253722656427 0.55919291073839883 0 -0.82903756765294845 0.82903756765294845 0 0.55919291073839883 1 I I 0 1 1 forward I I I I #
face $-1 $137 $138 $33 $-1 $139 reversed single #
loop $-1 $-1 $140 $55 #
plane-surface $-1 0 0 -6.9464393253042145 0 0 1 1 0 0 forward_v I I I I #
coedge $-1 $141 $142 $143 $144 forward $56 $-1 #
face $-1 $145 $146 $34 $-1 $147 reversed single #
loop $-1 $-1 $148 $58 #
plane-surface $-1 0 -23.259980762682446 -1.3073444066947646 0 0 1 1 0 0 forward_v I I I I #
coedge $-1 $149 $150 $151 $152 reversed $59 $-1 #
face $-1 $153 $154 $35 $-1 $155 reversed single #
loop $-1 $-1 $156 $61 #
plane-surface $-1 0 23.259980762682442 -1.3073444066947646 0 0 1 1 0 0 forward_v I I I I #
coedge $-1 $157 $158 $159 $160 reversed $62 $-1 #
face $-1 $161 $162 $36 $-1 $163 reversed single #
loop $-1 $-1 $164 $64 #
plane-surface $-1 -42.598103802344831 -7.1867425018767008 68.666113763431383 0.52991927123019833 0 0.84804809178421925 0.84804809178421925 0 -0.52991927123019833 forward_v I I I I #
coedge $-1 $165 $166 $167 $168 reversed $65 $-1 #
face $-1 $-1 $169 $37 $-1 $170 forward single #
loop $-1 $171 $172 $67 #
cone-surface $-1 57.988199564164084 -9.953288386555144 4.2625854418362694 -0.52991927123019833 0 -0.84804809178421925 0.21201202294605481 0 -0.13247981780754958 1 I I -0.70710678118654746 0.70710678118654746 0.25 forward I I I I #
loop $-1 $-1 $173 $48 #
coedge $-1 $108 $108 $174 $175 reversed $68 $-1 #
face $-1 $-1 $176 $38 $-1 $177 forward single #
loop $-1 $178 $179 $70 #
cone-surface $-1 57.988199564164084 -7.1867425018767044 4.2625854418362694 -0.52991927123019833 0 -0.84804809178421925 0.21201202294605481 0 -0.13247981780754958 1 I I -0.70710678118654746 0.70710678118654746 0.25 forward I I I I #
loop $-1 $-1 $180 $49 #
coedge $-1 $113 $113 $181 $182 reversed $71 $-1 #
face $-1 $-1 $183 $39 $-1 $184 forward single #
loop $-1 $185 $186 $73 #
cone-surface $-1 57.988199564164084 -4.4201966171982612 4.2625854418362694 -0.52991927123019833 0 -0.84804809178421925 0.21201202294605481 0 -0.13247981780754958 1 I I -0.70710678118654746 0.70710678118654746 0.25 forward I I I I #
loop $-1 $-1 $187 $50 #
coedge $-1 $118 $118 $188 $189 reversed $74 $-1 #
face $-1 $190 $191 $40 $-1 $192 reversed single #
loop $-1 $-1 $193 $76 #
plane-surface $-1 -61.195715201269579 -13.626349194227291 1.4484047769435477 -0.55919291073839883 0 0.82903756765294845 0.82903756765294845 0 0.55919291073839883 forward_v I I I I #
coedge $-1 $194 $195 $196 $197 reversed $77 $-1 #
face $-1 $-1 $198 $41 $-1 $199 forward single #
loop $-1 $200 $201 $79 #
cone-surface $-1 -54.869218962177541 -13.626349194227291 0.86030990958094211 0.55919291073839883 0 -0.82903756765294845 0.41451878382647422 0 0.27959645536919941 1 I I -0.70710678118654746 0.70710678118654746 0.5 forward I I I I #
loop $-1 $-1 $202 $52 #
coedge $-1 $127 $127 $203 $204 reversed $80 $-1 #
face $-1 $205 $206 $42 $-1 $207 reversed single #
loop $-1 $-1 $208 $82 #
plane-surface $-1 -61.195715201269579 6.226870210319472 1.4484047769435477 -0.55919291073839883 0 0.82903756765294845 0.82903756765294845 0 0.55919291073839883 forward_v I I I I #
coedge $-1 $209 $210 $211 $212 reversed $83 $-1 #
face $-1 $-1 $213 $43 $-1 $214 forward single #
loop $-1 $215 $216 $85 #
cone-surface $-1 -54.869218962177541 6.226870210319472 0.86030990958094211 0.55919291073839883 0 -0.82903756765294845 0.41451878382647422 0 0.27959645536919941 1 I I -0.70710678118654746 0.70710678118654746 0.5 forward I I I I #
loop $-1 $-1 $217 $54 #
coedge $-1 $136 $136 $218 $219 reversed $86 $-1 #
face $-1 $220 $221 $33 $-1 $222 reversed single #
loop $-1 $-1 $223 $88 #
plane-surface $-1 0 -26.666742120818132 0 0 1 0 0 0 1 forward_v I I I I #
coedge $-1 $224 $225 $226 $227 forward $89 $-1 #
coedge $-1 $228 $91 $229 $230 forward $56 $-1 #
coedge $-1 $91 $228 $231 $232 forward $56 $-1 #
coedge $-1 $233 $234 $91 $144 reversed $235 $-1 #
edge $-1 $236 -26.666742120818132 $237 26.666742120818132 $143 $238 forward 7 unknown #
face $-1 $239 $240 $34 $-1 $241 reversed single #
loop $-1 $-1 $242 $92 #
plane-surface $-1 0 -19.85321940454676 0.6802568745410742 0 -1 0 0 0 -1 forward_v I I I I #
coedge $-1 $243 $244 $245 $246 reversed $93 $-1 #
coedge $-1 $247 $95 $248 $249 forward $59 $-1 #
coedge $-1 $95 $247 $250 $251 reversed $59 $-1 #
coedge $-1 $252 $253 $95 $152 forward $254 $-1 #
edge $-1 $255 8.2232290232055369 $256 15.036751739476909 $151 $257 forward 7 unknown #
face $-1 $258 $259 $35 $-1 $260 reversed single #
loop $-1 $-1 $261 $96 #
plane-surface $-1 0 19.853219404546756 0.6802568745410742 0 1 0 0 0 1 forward_v I I I I #
coedge $-1 $262 $263 $264 $265 reversed $97 $-1 #
coedge $-1 $266 $99 $267 $268 reversed $62 $-1 #
coedge $-1 $99 $266 $269 $270 forward $62 $-1 #
coedge $-1 $271 $272 $99 $160 forward $259 $-1 #
edge $-1 $273 -15.036751739476907 $274 -8.2232290232055352 $159 $275 forward 7 unknown #
face $-1 $276 $277 $36 $-1 $278 forward single #
loop $-1 $-1 $279 $100 #
plane-surface $-1 22.25947380139025 -2.5758326940792982 172.45993276704579 0 -1 0 -0.52991927123019833 0 -0.84804809178421925 forward_v I I I I #
coedge $-1 $280 $281 $282 $283 reversed $101 $-1 #
coedge $-1 $166 $103 $284 $285 reversed $65 $-1 #
coedge $-1 $103 $165 $280 $286 reversed $65 $-1 #
coedge $-1 $282 $287 $103 $168 forward $288 $-1 #
edge $-1 $289 79.283527058218681 $290 82.42143022382659 $167 $291 forward 7 unknown #
loop $-1 $-1 $174 $104 #
plane-surface $-1 -42.598103802344831 -7.1867425018767008 68.666113763431383 0.52991927123019833 0 0.84804809178421925 0.84804809178421925 0 -0.52991927123019833 forward_v I I I I #
loop $-1 $-1 $292 $67 #
coedge $-1 $172 $172 $173 $293 reversed $105 $-1 #
coedge $-1 $173 $173 $172 $293 forward $107 $-1 #
coedge $-1 $174 $174 $108 $175 forward $169 $-1 #
edge $-1 $294 0 $294 6.2831853071796004 $174 $295 forward 7 unknown #
loop $-1 $-1 $181 $109 #
plane-surface $-1 -42.598103802344831 -7.1867425018767008 68.666113763431383 0.52991927123019833 0 0.84804809178421925 0.84804809178421925 0 -0.52991927123019833 forward_v I I I I #
loop $-1 $-1 $296 $70 #
coedge $-1 $179 $179 $180 $297 reversed $110 $-1 #
coedge $-1 $180 $180 $179 $297 forward $112 $-1 #
coedge $-1 $181 $181 $113 $182 forward $176 $-1 #
edge $-1 $298 0 $298 6.2831853071796004 $181 $299 forward 7 unknown #
loop $-1 $-1 $188 $114 #
plane-surface $-1 -42.598103802344831 -7.1867425018767008 68.666113763431383 0.52991927123019833 0 0.84804809178421925 0.84804809178421925 0 -0.52991927123019833 forward_v I I I I #
loop $-1 $-1 $300 $73 #
coedge $-1 $186 $186 $187 $301 reversed $115 $-1 #
coedge $-1 $187 $187 $186 $301 forward $117 $-1 #
coedge $-1 $188 $188 $118 $189 forward $183 $-1 #
edge $-1 $302 0 $302 6.2831853071796004 $188 $303 forward 7 unknown #
face $-1 $304 $305 $40 $-1 $306 reversed single #
loop $-1 $-1 $307 $119 #
plane-surface $-1 -129.63613541750161 -16.988428457370667 102.91549853942972 0 1 0 -0.55919291073839883 0 0.82903756765294845 forward_v I I I I #
coedge $-1 $308 $309 $310 $311 reversed $120 $-1 #
coedge $-1 $195 $122 $312 $313 reversed $77 $-1 #
coedge $-1 $122 $194 $308 $314 reversed $77 $-1 #
coedge $-1 $310 $315 $122 $197 forward $305 $-1 #
edge $-1 $316 44.511309944410648 $317 50.009344492771305 $196 $318 forward 7 unknown #
loop $-1 $-1 $203 $123 #
plane-surface $-1 -61.195715201269579 -13.626349194227291 1.4484047769435477 -0.55919291073839883 0 0.82903756765294845 0.82903756765294845 0 0.55919291073839883 forward_v I I I I #
loop $-1 $-1 $319 $79 #
coedge $-1 $201 $201 $202 $320 reversed $124 $-1 #
coedge $-1 $202 $202 $201 $320 forward $126 $-1 #
coedge $-1 $203 $203 $127 $204 forward $198 $-1 #
edge $-1 $321 0 $321 6.2831853071796004 $203 $322 forward 7 unknown #
face $-1 $323 $324 $42 $-1 $325 reversed single #
loop $-1 $-1 $326 $128 #
plane-surface $-1 -129.63613541750161 2.8647909471760959 102.91549853942972 0 1 0 -0.55919291073839883 0 0.82903756765294845 forward_v I I I I #
coedge $-1 $327 $328 $329 $330 reversed $129 $-1 #
coedge $-1 $210 $131 $331 $332 reversed $83 $-1 #
coedge $-1 $131 $209 $327 $333 reversed $83 $-1 #
coedge $-1 $329 $334 $131 $212 forward $324 $-1 #
edge $-1 $335 44.511309944410648 $336 50.009344492771305 $211 $337 forward 7 unknown #
loop $-1 $-1 $218 $132 #
plane-surface $-1 -61.195715201269579 6.226870210319472 1.4484047769435477 -0.55919291073839883 0 0.82903756765294845 0.82903756765294845 0 0.55919291073839883 forward_v I I I I #
loop $-1 $-1 $338 $85 #
coedge $-1 $216 $216 $217 $339 reversed $133 $-1 #
coedge $-1 $217 $217 $216 $339 forward $135 $-1 #
coedge $-1 $218 $218 $136 $219 forward $213 $-1 #
edge $-1 $340 0 $340 6.2831853071796004 $218 $341 forward 7 unknown #
face $-1 $342 $343 $33 $-1 $344 reversed single #
loop $-1 $-1 $345 $137 #
plane-surface $-1 -61.195715201269572 0 0 1 0 0 0 0 -1 forward_v I I I I #
coedge $-1 $346 $231 $347 $348 forward $138 $-1 #
coedge $-1 $349 $140 $346 $350 forward $89 $-1 #
coedge $-1 $140 $349 $351 $352 forward $89 $-1 #
coedge $-1 $234 $233 $140 $227 reversed $235 $-1 #
edge $-1 $353 -26.666742120818132 $354 26.666742120818132 $226 $355 forward 7 unknown #
coedge $-1 $142 $141 $356 $357 forward $56 $-1 #
coedge $-1 $358 $359 $141 $230 reversed $343 $-1 #
edge $-1 $237 -61.195715201269572 $360 61.195715201269572 $229 $361 forward 7 unknown #
coedge $-1 $223 $362 $142 $232 reversed $138 $-1 #
edge $-1 $363 -61.195715201269572 $236 61.195715201269572 $231 $364 forward 7 unknown #
coedge $-1 $226 $143 $362 $365 forward $235 $-1 #
coedge $-1 $143 $226 $358 $366 reversed $235 $-1 #
loop $-1 $-1 $233 $342 #
vertex $-1 $144 $367 #
vertex $-1 $144 $368 #
straight-curve $-1 61.195715201269572 0 6.9464393253042145 0 1 0 I I #
face $-1 $369 $370 $34 $-1 $371 reversed single #
loop $-1 $-1 $372 $145 #
plane-surface $-1 -61.195715201269572 0 0 1 0 0 0 0 -1 forward_v I I I I #
coedge $-1 $373 $248 $253 $374 reversed $146 $-1 #
coedge $-1 $375 $148 $376 $377 reversed $93 $-1 #
coedge $-1 $148 $375 $373 $378 forward $93 $-1 #
coedge $-1 $253 $252 $148 $246 forward $254 $-1 #
edge $-1 $379 -15.036751739476909 $380 -8.2232290232055369 $245 $381 forward 7 unknown #
coedge $-1 $150 $149 $372 $382 reversed $59 $-1 #
coedge $-1 $242 $383 $149 $249 reversed $146 $-1 #
edge $-1 $255 -61.195715201269572 $384 61.195715201269572 $248 $385 forward 7 unknown #
coedge $-1 $386 $387 $150 $251 forward $370 $-1 #
edge $-1 $256 -61.195715201269572 $388 61.195715201269572 $250 $389 forward 7 unknown #
coedge $-1 $245 $151 $387 $390 forward $254 $-1 #
coedge $-1 $151 $245 $242 $374 forward $254 $-1 #
loop $-1 $-1 $151 $369 #
vertex $-1 $152 $391 #
vertex $-1 $390 $392 #
straight-curve $-1 61.195715201269572 -11.629990381341223 2.667858155776913 0 -1 0 I I #
face $-1 $393 $394 $35 $-1 $395 reversed single #
loop $-1 $-1 $159 $153 #
plane-surface $-1 61.195715201269572 0 0 -1 0 0 0 0 1 forward_v I I I I #
coedge $-1 $396 $269 $397 $398 reversed $154 $-1 #
coedge $-1 $399 $156 $396 $400 forward $97 $-1 #
coedge $-1 $156 $399 $401 $402 reversed $97 $-1 #
coedge $-1 $272 $271 $156 $265 forward $259 $-1 #
edge $-1 $403 8.2232290232055352 $404 15.036751739476907 $264 $405 forward 7 unknown #
coedge $-1 $158 $157 $406 $407 reversed $62 $-1 #
coedge $-1 $408 $409 $157 $268 forward $410 $-1 #
edge $-1 $411 -61.195715201269572 $273 61.195715201269572 $267 $412 forward 7 unknown #
coedge $-1 $261 $413 $158 $270 reversed $154 $-1 #
edge $-1 $414 -61.195715201269572 $274 61.195715201269572 $269 $415 forward 7 unknown #
coedge $-1 $264 $159 $413 $416 forward $259 $-1 #
coedge $-1 $159 $264 $408 $417 reversed $259 $-1 #
vertex $-1 $417 $418 #
vertex $-1 $160 $419 #
straight-curve $-1 61.195715201269572 11.629990381341221 2.667858155776913 0 -1 0 I I #
face $-1 $-1 $288 $36 $-1 $420 reversed single #
loop $-1 $-1 $421 $161 #
plane-surface $-1 0 0 6.9464393253042145 0 0 1 1 0 0 forward_v I I I I #
coedge $-1 $422 $423 $424 $425 reversed $162 $-1 #
coedge $-1 $426 $164 $166 $286 forward $101 $-1 #
coedge $-1 $164 $426 $422 $427 forward $101 $-1 #
coedge $-1 $424 $167 $164 $283 forward $288 $-1 #
edge $-1 $290 -8.2042810587357522 $428 1.0175385568590523 $282 $429 forward 7 unknown #
coedge $-1 $430 $431 $165 $285 forward $277 $-1 #
edge $-1 $432 45.044283608060667 $289 50.065978300574443 $284 $433 forward 7 unknown #
edge $-1 $290 -122.39143040253916 $432 -116.46995644232003 $166 $434 forward 7 unknown #
coedge $-1 $167 $424 $430 $435 reversed $288 $-1 #
loop $-1 $-1 $424 $276 #
vertex $-1 $435 $436 #
vertex $-1 $168 $437 #
straight-curve $-1 61.195715201269572 -11.797652309674103 86.229966383522893 0 0 -1 I I #
coedge $-1 $292 $292 $-1 $438 reversed $171 $-1 #
edge $-1 $439 0 $439 6.2831853071796004 $172 $440 forward 7 unknown #
vertex $-1 $175 $441 #
ellipse-curve $-1 58.684867855012691 -9.953288386555144 5.3774877425002545 0.52991927123019833 0 0.84804809178421925 0.42402404589210962 0 -0.26495963561509916 1 I I #
coedge $-1 $296 $296 $-1 $442 reversed $178 $-1 #
edge $-1 $443 0 $443 6.2831853071796004 $179 $444 forward 7 unknown #
vertex $-1 $182 $445 #
ellipse-curve $-1 58.684867855012691 -7.1867425018767044 5.3774877425002545 0.52991927123019833 0 0.84804809178421925 0.42402404589210962 0 -0.26495963561509916 1 I I #
coedge $-1 $300 $300 $-1 $446 reversed $185 $-1 #
edge $-1 $447 0 $447 6.2831853071796004 $186 $448 forward 7 unknown #
vertex $-1 $189 $449 #
ellipse-curve $-1 58.684867855012691 -4.4201966171982612 5.3774877425002545 0.52991927123019833 0 0.84804809178421925 0.42402404589210962 0 -0.26495963561509916 1 I I #
face $-1 $-1 $450 $40 $-1 $451 forward single #
loop $-1 $-1 $196 $190 #
plane-surface $-1 -61.195715201269572 0 0 1 0 0 0 0 -1 forward_v I I I I #
coedge $-1 $452 $453 $454 $455 reversed $191 $-1 #
coedge $-1 $456 $193 $195 $314 forward $120 $-1 #
coedge $-1 $193 $456 $452 $457 forward $120 $-1 #
coedge $-1 $454 $196 $193 $311 forward $305 $-1 #
edge $-1 $317 3.4510953339702706 $458 10.175253860257021 $310 $459 forward 7 unknown #
coedge $-1 $460 $461 $194 $313 forward $450 $-1 #
edge $-1 $462 -11.773523778279326 $316 -3.6223525074812315 $312 $463 forward 7 unknown #
edge $-1 $317 8.6223131303995443e-015 $462 9.8320891463031295 $195 $464 forward 7 unknown #
coedge $-1 $196 $454 $460 $465 reversed $305 $-1 #
vertex $-1 $465 $466 #
vertex $-1 $197 $467 #
straight-curve $-1 -61.195715201269572 -10.264269931083916 51.45774926971486 0 0 -1 I I #
coedge $-1 $319 $319 $-1 $468 reversed $200 $-1 #
edge $-1 $469 0 $469 6.2831853071796004 $201 $470 forward 7 unknown #
vertex $-1 $204 $471 #
ellipse-curve $-1 -57.120129565870513 -13.626349194227291 4.1974220511238896 -0.55919291073839883 0 0.82903756765294845 0.82903756765294845 0 0.55919291073839883 1 I I #
face $-1 $-1 $472 $42 $-1 $473 forward single #
loop $-1 $-1 $211 $205 #
plane-surface $-1 -61.195715201269572 0 0 1 0 0 0 0 -1 forward_v I I I I #
coedge $-1 $474 $475 $476 $477 reversed $206 $-1 #
coedge $-1 $478 $208 $210 $333 forward $129 $-1 #
coedge $-1 $208 $478 $474 $479 forward $129 $-1 #
coedge $-1 $476 $211 $208 $330 forward $324 $-1 #
edge $-1 $336 -6.4755143683031111 $480 0.24864415798364004 $329 $481 forward 7 unknown #
coedge $-1 $482 $483 $209 $332 forward $472 $-1 #
edge $-1 $484 -11.773523778279326 $335 -3.6223525074812315 $331 $485 forward 7 unknown #
edge $-1 $336 8.6223131303995443e-015 $484 9.8320891463031295 $210 $486 forward 7 unknown #
coedge $-1 $211 $476 $482 $487 reversed $324 $-1 #
vertex $-1 $487 $488 #
vertex $-1 $212 $489 #
straight-curve $-1 -61.195715201269572 9.5889494734628471 51.45774926971486 0 0 -1 I I #
coedge $-1 $338 $338 $-1 $490 reversed $215 $-1 #
edge $-1 $491 0 $491 6.2831853071796004 $216 $492 forward 7 unknown #
vertex $-1 $219 $493 #
ellipse-curve $-1 -57.120129565870513 6.226870210319472 4.1974220511238896 -0.55919291073839883 0 0.82903756765294845 0.82903756765294845 0 0.55919291073839883 1 I I #
face $-1 $-1 $235 $33 $-1 $494 reversed single #
loop $-1 $-1 $358 $220 #
plane-surface $-1 0 26.666742120818132 0 0 -1 0 0 0 -1 forward_v I I I I #
coedge $-1 $495 $356 $359 $496 forward $221 $-1 #
coedge $-1 $362 $223 $224 $350 reversed $138 $-1 #
coedge $-1 $356 $495 $223 $348 reversed $221 $-1 #
edge $-1 $363 -6.9464393253042145 $497 6.9464393253042145 $347 $498 forward 7 unknown #
coedge $-1 $225 $224 $495 $499 forward $89 $-1 #
edge $-1 $354 -61.195715201269572 $497 61.195715201269572 $346 $500 forward 7 unknown #
coedge $-1 $359 $358 $225 $352 reversed $343 $-1 #
edge $-1 $501 -61.195715201269572 $353 61.195715201269572 $351 $502 forward 7 unknown #
vertex $-1 $227 $503 #
vertex $-1 $365 $504 #
straight-curve $-1 61.195715201269572 0 -6.9464393253042145 0 -1 0 I I #
coedge $-1 $345 $347 $228 $357 reversed $221 $-1 #
edge $-1 $360 -26.666742120818132 $363 26.666742120818132 $356 $505 forward 7 unknown #
coedge $-1 $351 $229 $234 $366 forward $343 $-1 #
coedge $-1 $229 $351 $345 $496 reversed $343 $-1 #
vertex $-1 $230 $506 #
straight-curve $-1 0 26.666742120818132 6.9464393253042145 -1 0 0 I I #
coedge $-1 $231 $346 $233 $365 reversed $138 $-1 #
vertex $-1 $357 $507 #
straight-curve $-1 0 -26.666742120818132 6.9464393253042145 1 0 0 I I #
edge $-1 $236 -6.9464393253042145 $354 6.9464393253042145 $233 $508 forward 7 unknown #
edge $-1 $237 -6.9464393253042145 $353 6.9464393253042145 $234 $509 forward 7 unknown #
point $-1 61.195715201269572 -26.666742120818132 6.9464393253042145 #
point $-1 61.195715201269572 26.666742120818132 6.9464393253042145 #
face $-1 $-1 $254 $34 $-1 $510 reversed single #
loop $-1 $-1 $250 $239 #
plane-surface $-1 0 -26.666742120818132 0 0 1 0 0 0 1 forward_v I I I I #
coedge $-1 $511 $512 $247 $382 forward $240 $-1 #
coedge $-1 $383 $242 $244 $378 reversed $146 $-1 #
edge $-1 $380 -1.6474728439653017 $255 2.3277297185063759 $253 $513 forward 7 unknown #
coedge $-1 $244 $243 $514 $515 reversed $93 $-1 #
coedge $-1 $387 $386 $243 $377 forward $370 $-1 #
edge $-1 $516 -61.195715201269572 $379 61.195715201269572 $376 $517 forward 7 unknown #
edge $-1 $518 -61.195715201269572 $380 61.195715201269572 $373 $519 forward 7 unknown #
vertex $-1 $377 $520 #
vertex $-1 $246 $521 #
straight-curve $-1 61.195715201269572 -11.629990381341223 -1.3073444066947646 0 1 0 I I #
edge $-1 $388 -15.036751739476909 $384 -8.2232290232055369 $372 $522 forward 7 unknown #
coedge $-1 $248 $373 $511 $523 reversed $146 $-1 #
vertex $-1 $382 $524 #
straight-curve $-1 0 -19.85321940454676 2.667858155776913 -1 0 0 I I #
coedge $-1 $376 $250 $512 $525 forward $370 $-1 #
coedge $-1 $250 $376 $252 $390 reversed $370 $-1 #
vertex $-1 $525 $526 #
straight-curve $-1 0 -26.666742120818132 2.667858155776913 -1 0 0 I I #
edge $-1 $256 -2.667858155776913 $379 1.3073444066947646 $252 $527 forward 7 unknown #
point $-1 61.195715201269572 -19.85321940454676 2.667858155776913 #
point $-1 61.195715201269572 -26.666742120818132 2.667858155776913 #
face $-1 $-1 $410 $35 $-1 $528 reversed single #
loop $-1 $-1 $406 $258 #
plane-surface $-1 -61.195715201269572 0 0 1 0 0 0 0 -1 forward_v I I I I #
coedge $-1 $413 $261 $262 $400 reversed $154 $-1 #
coedge $-1 $406 $529 $261 $398 forward $394 $-1 #
edge $-1 $530 -1.6474728439653017 $414 2.3277297185063759 $397 $531 forward 7 unknown #
coedge $-1 $263 $262 $529 $532 reversed $97 $-1 #
edge $-1 $403 -61.195715201269572 $530 61.195715201269572 $396 $533 forward 7 unknown #
coedge $-1 $409 $408 $263 $402 forward $410 $-1 #
edge $-1 $404 -61.195715201269572 $534 61.195715201269572 $401 $535 forward 7 unknown #
vertex $-1 $265 $536 #
vertex $-1 $402 $537 #
straight-curve $-1 61.195715201269572 11.629990381341221 -1.3073444066947646 0 1 0 I I #
coedge $-1 $538 $397 $266 $407 forward $394 $-1 #
edge $-1 $414 8.2232290232055352 $411 15.036751739476907 $406 $539 forward 7 unknown #
coedge $-1 $401 $267 $272 $417 forward $410 $-1 #
coedge $-1 $267 $401 $538 $540 reversed $410 $-1 #
loop $-1 $-1 $267 $393 #
vertex $-1 $540 $541 #
straight-curve $-1 0 26.666742120818132 2.667858155776913 1 0 0 I I #
coedge $-1 $269 $396 $271 $416 reversed $154 $-1 #
vertex $-1 $407 $542 #
straight-curve $-1 0 19.853219404546756 2.667858155776913 1 0 0 I I #
edge $-1 $274 -2.3277297185063759 $403 1.6474728439653017 $271 $543 forward 7 unknown #
edge $-1 $273 -2.667858155776913 $404 1.3073444066947646 $272 $544 forward 7 unknown #
point $-1 61.195715201269572 26.666742120818128 2.667858155776913 #
point $-1 61.195715201269572 19.853219404546756 2.667858155776913 #
plane-surface $-1 61.195715201269572 0 0 -1 0 0 0 0 1 forward_v I I I I #
coedge $-1 $431 $430 $423 $545 forward $277 $-1 #
coedge $-1 $423 $279 $281 $427 reversed $162 $-1 #
coedge $-1 $279 $422 $421 $545 reversed $162 $-1 #
coedge $-1 $287 $282 $279 $425 forward $288 $-1 #
edge $-1 $428 -82.42143022382659 $546 -79.283527058218681 $424 $547 forward 7 unknown #
coedge $-1 $281 $280 $431 $548 reversed $101 $-1 #
edge $-1 $549 116.46995644232003 $428 122.39143040253916 $422 $550 forward 7 unknown #
vertex $-1 $283 $551 #
straight-curve $-1 61.195715201269579 -3.5933712509383504 3.808536159696299 0 1 0 I I #
coedge $-1 $421 $284 $287 $435 forward $277 $-1 #
coedge $-1 $284 $421 $426 $548 forward $277 $-1 #
vertex $-1 $285 $552 #
straight-curve $-1 11.129736900695125 -11.797652309674103 6.9464393253042118 1 0 0 I I #
straight-curve $-1 -42.598103802344831 -11.797652309674103 68.666113763431383 -0.84804809178421925 0 0.52991927123019833 I I #
edge $-1 $289 -11.797652309674103 $546 -2.5758326940792982 $287 $553 forward 7 unknown #
point $-1 61.195715201269572 -11.797652309674103 6.9464393253042145 #
point $-1 61.195715201269572 -11.797652309674103 3.8085361596963025 #
edge $-1 $554 1 $554 0 $292 $-1 forward 7 unknown #
vertex $-1 $293 $555 #
ellipse-curve $-1 58.120679381971634 -9.953288386555144 4.4745974647823239 0.52991927123019833 0 0.84804809178421925 0.42402404589210962 0 -0.26495963561509916 1 I I #
point $-1 59.108891900904808 -9.953288386555144 5.1125281068851809 #
edge $-1 $556 1 $556 0 $296 $-1 forward 7 unknown #
vertex $-1 $297 $557 #
ellipse-curve $-1 58.120679381971634 -7.1867425018767044 4.4745974647823239 0.52991927123019833 0 0.84804809178421925 0.42402404589210962 0 -0.26495963561509916 1 I I #
point $-1 59.108891900904808 -7.1867425018767044 5.1125281068851809 #
edge $-1 $558 1 $558 0 $300 $-1 forward 7 unknown #
vertex $-1 $301 $559 #
ellipse-curve $-1 58.120679381971634 -4.4201966171982612 4.4745974647823239 0.52991927123019833 0 0.84804809178421925 0.42402404589210962 0 -0.26495963561509916 1 I I #
point $-1 59.108891900904808 -4.4201966171982612 5.1125281068851809 #
loop $-1 $-1 $312 $304 #
plane-surface $-1 0 0 6.9464393253042145 0 0 1 1 0 0 forward_v I I I I #
coedge $-1 $453 $307 $309 $457 reversed $191 $-1 #
coedge $-1 $307 $452 $560 $561 reversed $191 $-1 #
coedge $-1 $315 $310 $307 $455 forward $305 $-1 #
edge $-1 $458 -50.009344492771305 $562 -44.511309944410648 $454 $563 forward 7 unknown #
coedge $-1 $309 $308 $461 $564 reversed $120 $-1 #
edge $-1 $565 -9.8320891463031295 $458 -8.6223131303995443e-015 $452 $566 forward 7 unknown #
vertex $-1 $311 $567 #
straight-curve $-1 -61.195715201269572 -6.8131745971136457 1.4484047769435529 0 -1 0 I I #
coedge $-1 $560 $312 $315 $465 forward $450 $-1 #
coedge $-1 $312 $560 $456 $564 forward $450 $-1 #
vertex $-1 $313 $568 #
straight-curve $-1 -64.818067708750803 -10.264269931083916 6.9464393253042118 -1 0 0 I I #
straight-curve $-1 -61.195715201269579 -10.264269931083916 1.4484047769435477 0.82903756765294845 0 0.55919291073839883 I I #
edge $-1 $316 10.264269931083916 $562 16.988428457370667 $315 $569 forward 7 unknown #
point $-1 -61.195715201269572 -10.264269931083916 6.9464393253042145 #
point $-1 -61.195715201269572 -10.264269931083916 1.4484047769435526 #
edge $-1 $570 1 $570 0 $319 $-1 forward 7 unknown #
vertex $-1 $320 $571 #
ellipse-curve $-1 -55.148815417546743 -13.626349194227291 1.2748286934074162 -0.55919291073839883 0 0.82903756765294845 0.82903756765294845 0 0.55919291073839883 1 I I #
point $-1 -56.291091998217553 -13.626349194227291 4.756614961862268 #
loop $-1 $-1 $331 $323 #
plane-surface $-1 0 0 6.9464393253042145 0 0 1 1 0 0 forward_v I I I I #
coedge $-1 $475 $326 $328 $479 reversed $206 $-1 #
coedge $-1 $326 $474 $572 $573 reversed $206 $-1 #
coedge $-1 $334 $329 $326 $477 forward $324 $-1 #
edge $-1 $480 -50.009344492771305 $574 -44.511309944410648 $476 $575 forward 7 unknown #
coedge $-1 $328 $327 $483 $576 reversed $129 $-1 #
edge $-1 $577 -9.8320891463031295 $480 -8.6223131303995443e-015 $474 $578 forward 7 unknown #
vertex $-1 $330 $579 #
straight-curve $-1 -61.195715201269572 3.113435105159736 1.4484047769435529 0 -1 0 I I #
coedge $-1 $572 $331 $334 $487 forward $472 $-1 #
coedge $-1 $331 $572 $478 $576 forward $472 $-1 #
vertex $-1 $332 $580 #
straight-curve $-1 -64.818067708750803 9.5889494734628471 6.9464393253042118 -1 0 0 I I #
straight-curve $-1 -61.195715201269579 9.5889494734628471 1.4484047769435477 0.82903756765294845 0 0.55919291073839883 I I #
edge $-1 $335 -9.5889494734628471 $574 -2.8647909471760959 $334 $581 forward 7 unknown #
point $-1 -61.195715201269572 9.5889494734628471 6.9464393253042145 #
point $-1 -61.195715201269572 9.5889494734628471 1.4484047769435526 #
edge $-1 $582 1 $582 0 $338 $-1 forward 7 unknown #
vertex $-1 $339 $583 #
ellipse-curve $-1 -55.148815417546743 6.226870210319472 1.2748286934074162 -0.55919291073839883 0 0.82903756765294845 0.82903756765294845 0 0.55919291073839883 1 I I #
point $-1 -56.291091998217553 6.226870210319472 4.756614961862268 #
plane-surface $-1 61.195715201269572 0 0 -1 0 0 0 0 1 forward_v I I I I #
coedge $-1 $347 $345 $349 $499 reversed $221 $-1 #
edge $-1 $360 -6.9464393253042145 $501 6.9464393253042145 $359 $584 forward 7 unknown #
vertex $-1 $499 $585 #
straight-curve $-1 -61.195715201269572 -26.666742120818132 0 0 0 -1 I I #
edge $-1 $497 -26.666742120818132 $501 26.666742120818132 $495 $586 forward 7 unknown #
straight-curve $-1 0 -26.666742120818132 -6.9464393253042145 -1 0 0 I I #
vertex $-1 $352 $587 #
straight-curve $-1 0 26.666742120818132 -6.9464393253042145 1 0 0 I I #
point $-1 61.195715201269572 26.666742120818132 -6.9464393253042145 #
point $-1 61.195715201269572 -26.666742120818132 -6.9464393253042145 #
straight-curve $-1 -61.195715201269572 0 6.9464393253042145 0 -1 0 I I #
point $-1 -61.195715201269572 26.666742120818132 6.9464393253042145 #
point $-1 -61.195715201269572 -26.666742120818132 6.9464393253042145 #
straight-curve $-1 61.195715201269572 -26.666742120818132 0 0 0 -1 I I #
straight-curve $-1 61.195715201269572 26.666742120818132 0 0 0 -1 I I #
plane-surface $-1 61.195715201269572 0 0 -1 0 0 0 0 1 forward_v I I I I #
coedge $-1 $514 $372 $383 $523 forward $240 $-1 #
coedge $-1 $372 $514 $386 $525 reversed $240 $-1 #
straight-curve $-1 61.195715201269572 -19.85321940454676 0.3401284372705371 0 0 1 I I #
coedge $-1 $512 $511 $375 $515 forward $240 $-1 #
edge $-1 $518 8.2232290232055369 $516 15.036751739476909 $514 $588 forward 7 unknown #
vertex $-1 $377 $589 #
straight-curve $-1 0 -26.666742120818132 -1.3073444066947646 1 0 0 I I #
vertex $-1 $515 $590 #
straight-curve $-1 0 -19.85321940454676 -1.3073444066947646 1 0 0 I I #
point $-1 61.195715201269572 -26.666742120818132 -1.3073444066947646 #
point $-1 61.195715201269572 -19.85321940454676 -1.3073444066947646 #
straight-curve $-1 -61.195715201269572 -11.629990381341223 2.667858155776913 0 1 0 I I #
edge $-1 $384 -2.3277297185063759 $518 1.6474728439653017 $511 $591 forward 7 unknown #
point $-1 -61.195715201269572 -19.85321940454676 2.667858155776913 #
edge $-1 $388 -2.667858155776913 $516 1.3073444066947646 $512 $592 forward 7 unknown #
point $-1 -61.195715201269572 -26.666742120818132 2.667858155776913 #
straight-curve $-1 61.195715201269572 -26.666742120818132 0 0 0 -1 I I #
plane-surface $-1 0 26.666742120818132 0 0 -1 0 0 0 -1 forward_v I I I I #
coedge $-1 $397 $538 $399 $532 forward $394 $-1 #
vertex $-1 $532 $593 #
straight-curve $-1 -61.195715201269572 19.853219404546756 0.3401284372705371 0 0 1 I I #
edge $-1 $534 -15.036751739476907 $530 -8.2232290232055352 $529 $594 forward 7 unknown #
straight-curve $-1 0 19.853219404546756 -1.3073444066947646 -1 0 0 I I #
vertex $-1 $402 $595 #
straight-curve $-1 0 26.666742120818132 -1.3073444066947646 -1 0 0 I I #
point $-1 61.195715201269572 19.853219404546756 -1.3073444066947646 #
point $-1 61.195715201269572 26.666742120818128 -1.3073444066947646 #
coedge $-1 $529 $406 $409 $540 forward $394 $-1 #
straight-curve $-1 -61.195715201269572 11.629990381341221 2.667858155776913 0 1 0 I I #
edge $-1 $411 -2.667858155776913 $534 1.3073444066947646 $409 $596 forward 7 unknown #
point $-1 -61.195715201269572 26.666742120818128 2.667858155776913 #
point $-1 -61.195715201269572 19.853219404546756 2.667858155776913 #
straight-curve $-1 61.195715201269572 19.853219404546756 0.3401284372705371 0 0 -1 I I #
straight-curve $-1 61.195715201269572 26.666742120818132 0 0 0 -1 I I #
edge $-1 $546 -50.065978300574443 $549 -45.044283608060667 $421 $597 forward 7 unknown #
vertex $-1 $545 $598 #
straight-curve $-1 61.195715201269572 -2.5758326940792982 86.229966383522893 0 0 1 I I #
edge $-1 $549 -1.0175385568590523 $432 8.2042810587357522 $431 $599 forward 7 unknown #
vertex $-1 $548 $600 #
straight-curve $-1 -42.598103802344831 -2.5758326940792982 68.666113763431383 0.84804809178421925 0 -0.52991927123019833 I I #
point $-1 61.195715201269572 -2.5758326940792982 3.8085361596963025 #
point $-1 56.174020508755795 -11.797652309674103 6.9464393253042118 #
straight-curve $-1 61.195715201269572 0 6.9464393253042145 0 1 0 I I #
vertex $-1 $438 $601 #
point $-1 58.544703427863745 -9.953288386555144 4.2096378291672254 #
vertex $-1 $442 $602 #
point $-1 58.544703427863745 -7.1867425018767044 4.2096378291672254 #
vertex $-1 $446 $603 #
point $-1 58.544703427863745 -4.4201966171982612 4.2096378291672254 #
coedge $-1 $461 $460 $453 $561 forward $450 $-1 #
edge $-1 $562 3.6223525074812315 $565 11.773523778279326 $560 $604 forward 7 unknown #
vertex $-1 $561 $605 #
straight-curve $-1 -61.195715201269572 -16.988428457370667 51.45774926971486 0 0 1 I I #
edge $-1 $565 -10.175253860257021 $462 -3.4510953339702706 $461 $606 forward 7 unknown #
vertex $-1 $564 $607 #
straight-curve $-1 -61.195715201269579 -16.988428457370667 1.4484047769435477 -0.82903756765294845 0 -0.55919291073839883 I I #
point $-1 -61.195715201269572 -16.988428457370667 1.4484047769435526 #
point $-1 -53.044543930471477 -10.264269931083916 6.9464393253042145 #
straight-curve $-1 -61.195715201269572 0 6.9464393253042145 0 -1 0 I I #
vertex $-1 $468 $608 #
point $-1 -54.319777849893789 -13.626349194227291 1.8340216041458151 #
coedge $-1 $483 $482 $475 $573 forward $472 $-1 #
edge $-1 $574 3.6223525074812315 $577 11.773523778279326 $572 $609 forward 7 unknown #
vertex $-1 $573 $610 #
straight-curve $-1 -61.195715201269572 2.8647909471760959 51.45774926971486 0 0 1 I I #
edge $-1 $577 -0.24864415798364004 $484 6.4755143683031111 $483 $611 forward 7 unknown #
vertex $-1 $576 $612 #
straight-curve $-1 -61.195715201269579 2.8647909471760959 1.4484047769435477 -0.82903756765294845 0 -0.55919291073839883 I I #
point $-1 -61.195715201269572 2.8647909471760959 1.4484047769435526 #
point $-1 -53.044543930471477 9.5889494734628471 6.9464393253042145 #
straight-curve $-1 -61.195715201269572 0 6.9464393253042145 0 -1 0 I I #
vertex $-1 $490 $613 #
point $-1 -54.319777849893789 6.226870210319472 1.8340216041458151 #
straight-curve $-1 -61.195715201269572 26.666742120818132 0 0 0 -1 I I #
point $-1 -61.195715201269572 -26.666742120818132 -6.9464393253042145 #
straight-curve $-1 -61.195715201269572 0 -6.9464393253042145 0 1 0 I I #
point $-1 -61.195715201269572 26.666742120818132 -6.9464393253042145 #
straight-curve $-1 -61.195715201269572 -11.629990381341223 -1.3073444066947646 0 -1 0 I I #
point $-1 -61.195715201269572 -26.666742120818132 -1.3073444066947646 #
point $-1 -61.195715201269572 -19.85321940454676 -1.3073444066947646 #
straight-curve $-1 -61.195715201269572 -19.85321940454676 0.3401284372705371 0 0 -1 I I #
straight-curve $-1 -61.195715201269572 -26.666742120818132 0 0 0 -1 I I #
point $-1 -61.195715201269572 19.853219404546756 -1.3073444066947646 #
straight-curve $-1 -61.195715201269572 11.629990381341221 -1.3073444066947646 0 -1 0 I I #
point $-1 -61.195715201269572 26.666742120818128 -1.3073444066947646 #
straight-curve $-1 -61.195715201269572 26.666742120818132 0 0 0 -1 I I #
straight-curve $-1 11.129736900695125 -2.5758326940792982 6.9464393253042118 -1 0 0 I I #
point $-1 61.195715201269572 -2.5758326940792982 6.9464393253042145 #
straight-curve $-1 56.174020508755817 -3.5933712509383504 6.9464393253042047 0 -1 0 I I #
point $-1 56.174020508755795 -2.5758326940792982 6.9464393253042118 #
point $-1 57.855719746356534 -9.953288386555144 4.0505734188902149 #
point $-1 57.855719746356534 -7.1867425018767044 4.0505734188902149 #
point $-1 57.855719746356534 -4.4201966171982612 4.0505734188902149 #
straight-curve $-1 -64.818067708750803 -16.988428457370667 6.9464393253042118 1 0 0 I I #
point $-1 -61.195715201269572 -16.988428457370667 6.9464393253042145 #
straight-curve $-1 -53.044543930471477 -6.8131745971136457 6.9464393253042154 0 1 0 I I #
point $-1 -53.044543930471477 -16.988428457370667 6.9464393253042145 #
point $-1 -54.58962250680834 -13.626349194227291 0.44579112575446789 #
straight-curve $-1 -64.818067708750803 2.8647909471760959 6.9464393253042118 1 0 0 I I #
point $-1 -61.195715201269572 2.8647909471760959 6.9464393253042145 #
straight-curve $-1 -53.044543930471477 3.113435105159736 6.9464393253042154 0 1 0 I I #
point $-1 -53.044543930471477 2.8647909471760959 6.9464393253042145 #
point $-1 -54.58962250680834 6.226870210319472 0.44579112575446789 #
End-of-ACIS-data 