500 0 5 0           
7 Unknown 11 ACIS 5.0 NT 24 Fri Mar 26 20:21:30 1999 
-1 9.9999999999999995e-007 1e-010 
body $-1 $5 $-1 $6 #
body $-1 $7 $-1 $8 #
body $-1 $9 $-1 $10 #
body $-1 $11 $-1 $12 #
body $-1 $13 $-1 $14 #
lump $-1 $-1 $15 $0 #
transform $-1 1 0 0 0 1 0 0 0 1 70.807824945829651 38.393585797068866 11.938018399409044 1 rotate no_reflect no_shear #
lump $-1 $-1 $16 $1 #
transform $-1 1 0 0 0 1 0 0 0 1 70.807824945829651 38.393585797068866 11.938018399409044 1 rotate no_reflect no_shear #
lump $-1 $-1 $17 $2 #
transform $-1 1 0 0 0 1 0 0 0 1 70.807824945829651 38.393585797068866 11.938018399409044 1 rotate no_reflect no_shear #
lump $-1 $-1 $18 $3 #
transform $-1 1 0 0 0 1 0 0 0 1 70.807824945829651 38.393585797068866 11.938018399409044 1 rotate no_reflect no_shear #
lump $-1 $-1 $19 $4 #
transform $-1 1 0 0 0 1 0 0 0 1 70.807824945829651 38.393585797068866 11.938018399409044 1 rotate no_reflect no_shear #
shell $-1 $-1 $-1 $20 $-1 $5 #
shell $-1 $-1 $-1 $21 $-1 $7 #
shell $-1 $-1 $-1 $22 $-1 $9 #
shell $-1 $-1 $-1 $23 $-1 $11 #
shell $-1 $-1 $-1 $24 $-1 $13 #
face $-1 $25 $26 $15 $-1 $27 forward single #
face $-1 $28 $29 $16 $-1 $30 forward single #
face $-1 $31 $32 $17 $-1 $33 reversed single #
face $-1 $34 $35 $18 $-1 $36 forward single #
face $-1 $37 $38 $19 $-1 $39 forward single #
face $-1 $40 $41 $15 $-1 $42 reversed single #
loop $-1 $-1 $43 $20 #
plane-surface $-1 0 0 11.938018399409044 0 0 1 1 0 0 forward_v I I I I #
face $-1 $44 $45 $16 $-1 $46 reversed single #
loop $-1 $-1 $47 $21 #
plane-surface $-1 -66.028719249420206 0 -7.9791300198912811 0 0 1 1 0 0 forward_v I I I I #
face $-1 $48 $49 $17 $-1 $50 reversed single #
loop $-1 $-1 $51 $22 #
plane-surface $-1 63.818338394727022 7.9015642413512559 201.92989993816954 0 -1 0 -0.68199836817093118 0 -0.7313536940579346 forward_v I I I I #
face $-1 $52 $53 $18 $-1 $54 forward single #
loop $-1 $55 $56 $23 #
cone-surface $-1 64.065808175214428 1.1151582799067583 5.4700283810278556 -0.68199836817093118 0 -0.7313536940579346 0.7313536940579346 0 -0.68199836817093118 1 I I 0 1 1 forward I I I I #
face $-1 $57 $58 $19 $-1 $59 forward single #
loop $-1 $60 $61 $24 #
cone-surface $-1 64.065808175214428 5.1870018567734562 5.4700283810278556 -0.68199836817093118 0 -0.7313536940579346 0.7313536940579346 0 -0.68199836817093118 1 I I 0 1 1 forward I I I I #
face $-1 $62 $63 $15 $-1 $64 reversed single #
loop $-1 $-1 $65 $25 #
plane-surface $-1 0 0 -11.938018399409044 0 0 1 1 0 0 forward_v I I I I #
coedge $-1 $66 $67 $68 $69 forward $26 $-1 #
face $-1 $70 $71 $16 $-1 $72 reversed single #
loop $-1 $-1 $73 $28 #
plane-surface $-1 -61.249613553010768 0 -9.9585742096501626 -1 0 0 0 0 1 forward_v I I I I #
coedge $-1 $74 $75 $76 $77 forward $29 $-1 #
face $-1 $78 $79 $17 $-1 $80 reversed single #
loop $-1 $-1 $81 $31 #
plane-surface $-1 -32.763303738850524 3.1510800683401072 98.358771253489365 0.68199836817093118 0 0.7313536940579346 0.7313536940579346 0 -0.68199836817093118 forward_v I I I I #
coedge $-1 $82 $83 $84 $85 reversed $32 $-1 #
face $-1 $-1 $86 $18 $-1 $87 forward single #
loop $-1 $88 $89 $34 #
cone-surface $-1 62.430901964092669 1.1151582799067583 3.7168061553663438 -0.68199836817093118 0 -0.7313536940579346 0.3656768470289673 0 -0.34099918408546559 1 I I -0.70710678118654746 0.70710678118654746 0.5 forward I I I I #
loop $-1 $-1 $90 $23 #
coedge $-1 $56 $56 $91 $92 reversed $35 $-1 #
face $-1 $-1 $93 $19 $-1 $94 forward single #
loop $-1 $95 $96 $37 #
cone-surface $-1 62.430901964092669 5.1870018567734562 3.7168061553663438 -0.68199836817093118 0 -0.7313536940579346 0.3656768470289673 0 -0.34099918408546559 1 I I -0.70710678118654746 0.70710678118654746 0.5 forward I I I I #
loop $-1 $-1 $97 $24 #
coedge $-1 $61 $61 $98 $99 reversed $38 $-1 #
face $-1 $100 $101 $15 $-1 $102 reversed single #
loop $-1 $-1 $103 $40 #
plane-surface $-1 0 -38.393585797068866 0 0 1 0 0 0 1 forward_v I I I I #
coedge $-1 $104 $105 $106 $107 forward $41 $-1 #
coedge $-1 $108 $43 $109 $110 forward $26 $-1 #
coedge $-1 $43 $108 $111 $112 forward $26 $-1 #
coedge $-1 $113 $114 $43 $69 reversed $115 $-1 #
edge $-1 $116 -38.393585797068866 $117 38.393585797068866 $68 $118 forward 7 unknown #
face $-1 $119 $120 $16 $-1 $121 reversed single #
loop $-1 $-1 $122 $44 #
plane-surface $-1 0 0 -11.938018399409044 0 0 1 1 0 0 forward_v I I I I #
coedge $-1 $123 $76 $124 $125 reversed $45 $-1 #
coedge $-1 $126 $47 $127 $128 reversed $29 $-1 #
coedge $-1 $47 $126 $129 $130 reversed $29 $-1 #
coedge $-1 $73 $131 $47 $77 reversed $45 $-1 #
edge $-1 $132 -38.393585797068866 $133 38.393585797068866 $76 $134 forward 7 unknown #
face $-1 $135 $136 $17 $-1 $137 forward single #
loop $-1 $-1 $138 $48 #
plane-surface $-1 63.818338394727022 -1.5994041046710414 201.92989993816954 0 1 0 0.68199836817093118 0 0.7313536940579346 forward_v I I I I #
coedge $-1 $139 $140 $141 $142 reversed $49 $-1 #
coedge $-1 $83 $51 $143 $144 reversed $32 $-1 #
coedge $-1 $51 $82 $139 $145 reversed $32 $-1 #
coedge $-1 $141 $146 $51 $85 forward $136 $-1 #
edge $-1 $147 -38.89865574846614 $148 -28.002436261308276 $84 $149 forward 7 unknown #
loop $-1 $-1 $91 $52 #
plane-surface $-1 -32.763303738850524 3.1510800683401072 98.358771253489365 0.68199836817093118 0 0.7313536940579346 0.7313536940579346 0 -0.68199836817093118 forward_v I I I I #
loop $-1 $-1 $150 $34 #
coedge $-1 $89 $89 $90 $151 reversed $53 $-1 #
coedge $-1 $90 $90 $89 $151 forward $55 $-1 #
coedge $-1 $91 $91 $56 $92 forward $86 $-1 #
edge $-1 $152 0 $152 6.2831853071796004 $91 $153 forward 7 unknown #
loop $-1 $-1 $98 $57 #
plane-surface $-1 -32.763303738850524 3.1510800683401072 98.358771253489365 0.68199836817093118 0 0.7313536940579346 0.7313536940579346 0 -0.68199836817093118 forward_v I I I I #
loop $-1 $-1 $154 $37 #
coedge $-1 $96 $96 $97 $155 reversed $58 $-1 #
coedge $-1 $97 $97 $96 $155 forward $60 $-1 #
coedge $-1 $98 $98 $61 $99 forward $93 $-1 #
edge $-1 $156 0 $156 6.2831853071796004 $98 $157 forward 7 unknown #
face $-1 $158 $159 $15 $-1 $160 reversed single #
loop $-1 $-1 $161 $62 #
plane-surface $-1 -70.807824945829651 0 0 1 0 0 0 0 -1 forward_v I I I I #
coedge $-1 $162 $111 $163 $164 forward $63 $-1 #
coedge $-1 $165 $65 $162 $166 forward $41 $-1 #
coedge $-1 $65 $165 $167 $168 forward $41 $-1 #
coedge $-1 $114 $113 $65 $107 reversed $115 $-1 #
edge $-1 $169 -38.393585797068866 $170 38.393585797068866 $106 $171 forward 7 unknown #
coedge $-1 $67 $66 $172 $173 forward $26 $-1 #
coedge $-1 $174 $175 $66 $110 reversed $159 $-1 #
edge $-1 $117 -70.807824945829651 $176 70.807824945829651 $109 $177 forward 7 unknown #
coedge $-1 $103 $178 $67 $112 reversed $63 $-1 #
edge $-1 $179 -70.807824945829651 $116 70.807824945829651 $111 $180 forward 7 unknown #
coedge $-1 $106 $68 $178 $181 forward $115 $-1 #
coedge $-1 $68 $106 $174 $182 reversed $115 $-1 #
loop $-1 $-1 $113 $158 #
vertex $-1 $69 $183 #
vertex $-1 $69 $184 #
straight-curve $-1 70.807824945829651 0 11.938018399409044 0 1 0 I I #
face $-1 $185 $186 $16 $-1 $187 reversed single #
loop $-1 $-1 $124 $70 #
plane-surface $-1 0 -38.393585797068866 0 0 1 0 0 0 1 forward_v I I I I #
coedge $-1 $188 $189 $123 $190 forward $71 $-1 #
coedge $-1 $131 $73 $122 $190 reversed $45 $-1 #
coedge $-1 $129 $191 $73 $125 forward $120 $-1 #
edge $-1 $192 -6.9587312945839628 $132 -2.9998429150661998 $124 $193 forward 7 unknown #
coedge $-1 $75 $74 $194 $195 reversed $29 $-1 #
coedge $-1 $196 $197 $74 $128 forward $198 $-1 #
edge $-1 $199 -37.793465321119548 $133 -28.235253928300665 $127 $200 forward 7 unknown #
coedge $-1 $201 $124 $75 $130 forward $120 $-1 #
edge $-1 $132 28.235253928300665 $202 37.793465321119548 $129 $203 forward 7 unknown #
coedge $-1 $76 $123 $196 $204 reversed $45 $-1 #
vertex $-1 $130 $205 #
vertex $-1 $128 $206 #
straight-curve $-1 -61.249613553010768 0 -7.9791300198912811 0 1 0 I I #
face $-1 $-1 $207 $17 $-1 $208 reversed single #
loop $-1 $-1 $84 $78 #
plane-surface $-1 0 0 11.938018399409044 0 0 1 1 0 0 forward_v I I I I #
coedge $-1 $209 $210 $211 $212 reversed $79 $-1 #
coedge $-1 $213 $81 $83 $145 forward $49 $-1 #
coedge $-1 $81 $213 $209 $214 forward $49 $-1 #
coedge $-1 $211 $84 $81 $142 forward $136 $-1 #
edge $-1 $148 -6.3260242071812023 $215 3.1749441388410951 $141 $216 forward 7 unknown #
coedge $-1 $217 $218 $82 $144 forward $207 $-1 #
edge $-1 $219 -99.187820849172951 $147 -89.026931569675725 $143 $220 forward 7 unknown #
edge $-1 $148 126.71694961067773 $219 141.6156498916593 $83 $221 forward 7 unknown #
coedge $-1 $84 $211 $217 $222 forward $136 $-1 #
vertex $-1 $144 $223 #
vertex $-1 $85 $224 #
straight-curve $-1 31.909169197363511 7.9015642413512559 11.938018399409046 -1 0 0 I I #
coedge $-1 $150 $150 $-1 $225 reversed $88 $-1 #
edge $-1 $226 0 $226 6.2831853071796004 $89 $227 forward 7 unknown #
vertex $-1 $92 $228 #
ellipse-curve $-1 65.359715202250726 1.1151582799067583 6.8575737596604132 0.68199836817093118 0 0.7313536940579346 0.7313536940579346 0 -0.68199836817093118 1 I I #
coedge $-1 $154 $154 $-1 $229 reversed $95 $-1 #
edge $-1 $230 0 $230 6.2831853071796004 $96 $231 forward 7 unknown #
vertex $-1 $99 $232 #
ellipse-curve $-1 65.359715202250726 5.1870018567734562 6.8575737596604132 0.68199836817093118 0 0.7313536940579346 0.7313536940579346 0 -0.68199836817093118 1 I I #
face $-1 $-1 $115 $15 $-1 $233 reversed single #
loop $-1 $-1 $174 $100 #
plane-surface $-1 0 38.393585797068866 0 0 -1 0 0 0 -1 forward_v I I I I #
coedge $-1 $234 $172 $175 $235 forward $101 $-1 #
coedge $-1 $178 $103 $104 $166 reversed $63 $-1 #
coedge $-1 $172 $234 $103 $164 reversed $101 $-1 #
edge $-1 $179 -11.938018399409044 $236 11.938018399409044 $163 $237 forward 7 unknown #
coedge $-1 $105 $104 $234 $238 forward $41 $-1 #
edge $-1 $170 -70.807824945829651 $236 70.807824945829651 $162 $239 forward 7 unknown #
coedge $-1 $175 $174 $105 $168 reversed $159 $-1 #
edge $-1 $240 -70.807824945829651 $169 70.807824945829651 $167 $241 forward 7 unknown #
vertex $-1 $107 $242 #
vertex $-1 $181 $243 #
straight-curve $-1 70.807824945829651 0 -11.938018399409044 0 -1 0 I I #
coedge $-1 $161 $163 $108 $173 reversed $101 $-1 #
edge $-1 $176 -38.393585797068866 $179 38.393585797068866 $172 $244 forward 7 unknown #
coedge $-1 $167 $109 $114 $182 forward $159 $-1 #
coedge $-1 $109 $167 $161 $235 reversed $159 $-1 #
vertex $-1 $110 $245 #
straight-curve $-1 0 38.393585797068866 11.938018399409044 -1 0 0 I I #
coedge $-1 $111 $162 $113 $181 reversed $63 $-1 #
vertex $-1 $173 $246 #
straight-curve $-1 0 -38.393585797068866 11.938018399409044 1 0 0 I I #
edge $-1 $116 -11.938018399409044 $170 11.938018399409044 $113 $247 forward 7 unknown #
edge $-1 $117 -11.938018399409044 $169 11.938018399409044 $114 $248 forward 7 unknown #
point $-1 70.807824945829651 -38.393585797068866 11.938018399409044 #
point $-1 70.807824945829651 38.393585797068866 11.938018399409044 #
face $-1 $-1 $198 $16 $-1 $249 reversed single #
loop $-1 $-1 $194 $119 #
plane-surface $-1 -70.807824945829651 0 0 1 0 0 0 0 -1 forward_v I I I I #
coedge $-1 $250 $122 $191 $251 forward $71 $-1 #
coedge $-1 $122 $250 $252 $253 forward $71 $-1 #
edge $-1 $254 -38.393585797068866 $192 38.393585797068866 $122 $255 forward 7 unknown #
coedge $-1 $124 $201 $188 $251 reversed $120 $-1 #
vertex $-1 $251 $256 #
straight-curve $-1 -61.249613553010768 -38.393585797068866 -4.9792871048250813 0 0 1 I I #
coedge $-1 $257 $258 $126 $195 forward $186 $-1 #
edge $-1 $202 -38.393585797068866 $199 38.393585797068866 $194 $259 forward 7 unknown #
coedge $-1 $252 $127 $131 $204 forward $198 $-1 #
coedge $-1 $127 $252 $257 $260 reversed $198 $-1 #
loop $-1 $-1 $196 $185 #
vertex $-1 $260 $261 #
straight-curve $-1 -33.014359624710103 38.393585797068866 -7.9791300198912811 1 0 0 I I #
coedge $-1 $191 $129 $258 $262 forward $120 $-1 #
vertex $-1 $262 $263 #
straight-curve $-1 -33.014359624710103 -38.393585797068866 -7.9791300198912811 -1 0 0 I I #
edge $-1 $133 2.9998429150661998 $254 6.9587312945839628 $196 $264 forward 7 unknown #
point $-1 -61.249613553010768 -38.393585797068866 -7.9791300198912811 #
point $-1 -61.249613553010768 38.393585797068866 -7.9791300198912811 #
loop $-1 $-1 $143 $135 #
plane-surface $-1 70.807824945829651 0 0 -1 0 0 0 0 1 forward_v I I I I #
coedge $-1 $210 $138 $140 $214 reversed $79 $-1 #
coedge $-1 $138 $209 $265 $266 reversed $79 $-1 #
coedge $-1 $146 $141 $138 $212 forward $136 $-1 #
edge $-1 $215 28.002436261308276 $267 38.89865574846614 $211 $268 forward 7 unknown #
coedge $-1 $140 $139 $218 $269 reversed $49 $-1 #
edge $-1 $270 -141.6156498916593 $215 -126.71694961067773 $209 $271 forward 7 unknown #
vertex $-1 $142 $272 #
straight-curve $-1 59.911605458671787 1.5755400341700536 11.938018399409046 0 -1 0 I I #
coedge $-1 $265 $143 $146 $222 reversed $207 $-1 #
coedge $-1 $143 $265 $213 $269 forward $207 $-1 #
vertex $-1 $144 $273 #
straight-curve $-1 70.807824945829651 7.9015642413512559 100.96494996908477 0 0 1 I I #
straight-curve $-1 -32.763303738850524 7.9015642413512559 98.358771253489365 0.7313536940579346 0 -0.68199836817093118 I I #
edge $-1 $267 -1.5994041046710414 $147 7.9015642413512559 $217 $274 forward 7 unknown #
point $-1 70.807824945829651 7.9015642413512559 11.938018399409044 #
point $-1 59.911605458671787 7.9015642413512559 11.938018399409046 #
edge $-1 $275 1 $275 0 $150 $-1 forward 7 unknown #
vertex $-1 $151 $276 #
ellipse-curve $-1 62.771901148178138 1.1151582799067583 4.0824830023953114 0.68199836817093118 0 0.7313536940579346 0.7313536940579346 0 -0.68199836817093118 1 I I #
point $-1 66.091068896308656 1.1151582799067583 6.1755753914894687 #
edge $-1 $277 1 $277 0 $154 $-1 forward 7 unknown #
vertex $-1 $155 $278 #
ellipse-curve $-1 62.771901148178138 5.1870018567734562 4.0824830023953114 0.68199836817093118 0 0.7313536940579346 0.7313536940579346 0 -0.68199836817093118 1 I I #
point $-1 66.091068896308656 5.1870018567734562 6.1755753914894687 #
plane-surface $-1 70.807824945829651 0 0 -1 0 0 0 0 1 forward_v I I I I #
coedge $-1 $163 $161 $165 $238 reversed $101 $-1 #
edge $-1 $176 -11.938018399409044 $240 11.938018399409044 $175 $279 forward 7 unknown #
vertex $-1 $238 $280 #
straight-curve $-1 -70.807824945829651 -38.393585797068866 0 0 0 -1 I I #
edge $-1 $236 -38.393585797068866 $240 38.393585797068866 $234 $281 forward 7 unknown #
straight-curve $-1 0 -38.393585797068866 -11.938018399409044 -1 0 0 I I #
vertex $-1 $168 $282 #
straight-curve $-1 0 38.393585797068866 -11.938018399409044 1 0 0 I I #
point $-1 70.807824945829651 38.393585797068866 -11.938018399409044 #
point $-1 70.807824945829651 -38.393585797068866 -11.938018399409044 #
straight-curve $-1 -70.807824945829651 0 11.938018399409044 0 -1 0 I I #
point $-1 -70.807824945829651 38.393585797068866 11.938018399409044 #
point $-1 -70.807824945829651 -38.393585797068866 11.938018399409044 #
straight-curve $-1 70.807824945829651 -38.393585797068866 0 0 0 -1 I I #
straight-curve $-1 70.807824945829651 38.393585797068866 0 0 0 -1 I I #
plane-surface $-1 0 38.393585797068866 0 0 -1 0 0 0 -1 forward_v I I I I #
coedge $-1 $189 $188 $283 $284 forward $71 $-1 #
edge $-1 $192 61.249613553010768 $285 70.807824945829651 $191 $286 forward 7 unknown #
coedge $-1 $197 $196 $189 $253 reversed $198 $-1 #
edge $-1 $287 -70.807824945829651 $254 -61.249613553010768 $252 $288 forward 7 unknown #
vertex $-1 $204 $289 #
straight-curve $-1 -61.249613553010768 0 -11.938018399409044 0 -1 0 I I #
point $-1 -61.249613553010768 -38.393585797068866 -11.938018399409044 #
coedge $-1 $283 $194 $197 $260 forward $186 $-1 #
coedge $-1 $194 $283 $201 $262 reversed $186 $-1 #
straight-curve $-1 -70.807824945829651 0 -7.9791300198912811 0 1 0 I I #
edge $-1 $199 7.9791300198912811 $287 11.938018399409044 $197 $290 forward 7 unknown #
point $-1 -70.807824945829651 38.393585797068866 -7.9791300198912811 #
edge $-1 $202 7.9791300198912811 $285 11.938018399409044 $258 $291 forward 7 unknown #
point $-1 -70.807824945829651 -38.393585797068866 -7.9791300198912811 #
straight-curve $-1 -61.249613553010768 38.393585797068866 -4.9792871048250813 0 0 -1 I I #
coedge $-1 $218 $217 $210 $266 forward $207 $-1 #
edge $-1 $267 89.026931569675725 $270 99.187820849172951 $265 $292 forward 7 unknown #
vertex $-1 $222 $293 #
straight-curve $-1 31.909169197363511 -1.5994041046710414 11.938018399409046 1 0 0 I I #
edge $-1 $270 -3.1749441388410951 $219 6.3260242071812023 $218 $294 forward 7 unknown #
vertex $-1 $269 $295 #
straight-curve $-1 -32.763303738850524 -1.5994041046710414 98.358771253489365 -0.7313536940579346 0 0.68199836817093118 I I #
point $-1 59.911605458671787 -1.5994041046710414 11.938018399409046 #
point $-1 70.807824945829651 7.9015642413512559 1.7771291199118195 #
straight-curve $-1 70.807824945829651 0 11.938018399409044 0 1 0 I I #
vertex $-1 $225 $296 #
point $-1 63.503254842236068 1.1151582799067583 3.4004846342243802 #
vertex $-1 $229 $297 #
point $-1 63.503254842236068 5.1870018567734562 3.4004846342243802 #
straight-curve $-1 -70.807824945829651 38.393585797068866 0 0 0 -1 I I #
point $-1 -70.807824945829651 -38.393585797068866 -11.938018399409044 #
straight-curve $-1 -70.807824945829651 0 -11.938018399409044 0 1 0 I I #
point $-1 -70.807824945829651 38.393585797068866 -11.938018399409044 #
coedge $-1 $258 $257 $250 $284 reversed $186 $-1 #
edge $-1 $285 -38.393585797068866 $287 38.393585797068866 $283 $298 forward 7 unknown #
vertex $-1 $284 $299 #
straight-curve $-1 0 -38.393585797068866 -11.938018399409044 -1 0 0 I I #
vertex $-1 $253 $300 #
straight-curve $-1 0 38.393585797068866 -11.938018399409044 1 0 0 I I #
point $-1 -61.249613553010768 38.393585797068866 -11.938018399409044 #
straight-curve $-1 -70.807824945829651 38.393585797068866 0 0 0 -1 I I #
straight-curve $-1 -70.807824945829651 -38.393585797068866 0 0 0 -1 I I #
straight-curve $-1 70.807824945829651 -1.5994041046710414 100.96494996908477 0 0 -1 I I #
point $-1 70.807824945829651 -1.5994041046710414 11.938018399409044 #
straight-curve $-1 70.807824945829651 1.5755400341700536 1.7771291199118124 0 1 0 I I #
point $-1 70.807824945829651 -1.5994041046710414 1.7771291199118195 #
point $-1 62.089902780007201 1.1151582799067583 3.3511293083373763 #
point $-1 62.089902780007201 5.1870018567734562 3.3511293083373763 #
straight-curve $-1 -70.807824945829651 0 -11.938018399409044 0 1 0 I I #
point $-1 -70.807824945829651 -38.393585797068866 -11.938018399409044 #
point $-1 -70.807824945829651 38.393585797068866 -11.938018399409044 #
End-of-ACIS-data 