500 0 12 0           
7 Unknown 11 ACIS 5.0 NT 24 Fri Mar 26 17:21:08 1999 
-1 9.9999999999999995e-007 1e-010 
body $-1 $12 $-1 $13 #
body $-1 $14 $-1 $15 #
body $-1 $16 $-1 $17 #
body $-1 $18 $-1 $19 #
body $-1 $20 $-1 $21 #
body $-1 $22 $-1 $23 #
body $-1 $24 $-1 $25 #
body $-1 $26 $-1 $27 #
body $-1 $28 $-1 $29 #
body $-1 $30 $-1 $31 #
body $-1 $32 $-1 $33 #
body $-1 $34 $-1 $35 #
lump $-1 $-1 $36 $0 #
transform $-1 1 0 0 0 1 0 0 0 1 59.888302255317853 40.457822501098377 17.581193895547042 1 rotate no_reflect no_shear #
lump $-1 $-1 $37 $1 #
transform $-1 1 0 0 0 1 0 0 0 1 59.888302255317853 40.457822501098377 17.581193895547042 1 rotate no_reflect no_shear #
lump $-1 $-1 $38 $2 #
transform $-1 1 0 0 0 1 0 0 0 1 59.888302255317853 40.457822501098377 17.581193895547042 1 rotate no_reflect no_shear #
lump $-1 $-1 $39 $3 #
transform $-1 1 0 0 0 1 0 0 0 1 59.888302255317853 40.457822501098377 17.581193895547042 1 rotate no_reflect no_shear #
lump $-1 $-1 $40 $4 #
transform $-1 1 0 0 0 1 0 0 0 1 59.888302255317853 40.457822501098377 17.581193895547042 1 rotate no_reflect no_shear #
lump $-1 $-1 $41 $5 #
transform $-1 1 0 0 0 1 0 0 0 1 59.888302255317853 40.457822501098377 17.581193895547042 1 rotate no_reflect no_shear #
lump $-1 $-1 $42 $6 #
transform $-1 1 0 0 0 1 0 0 0 1 59.888302255317853 40.457822501098377 17.581193895547042 1 rotate no_reflect no_shear #
lump $-1 $-1 $43 $7 #
transform $-1 1 0 0 0 1 0 0 0 1 59.888302255317853 40.457822501098377 17.581193895547042 1 rotate no_reflect no_shear #
lump $-1 $-1 $44 $8 #
transform $-1 1 0 0 0 1 0 0 0 1 59.888302255317853 40.457822501098377 17.581193895547042 1 rotate no_reflect no_shear #
lump $-1 $-1 $45 $9 #
transform $-1 1 0 0 0 1 0 0 0 1 59.888302255317853 40.457822501098377 17.581193895547042 1 rotate no_reflect no_shear #
lump $-1 $-1 $46 $10 #
transform $-1 1 0 0 0 1 0 0 0 1 59.888302255317853 40.457822501098377 17.581193895547042 1 rotate no_reflect no_shear #
lump $-1 $-1 $47 $11 #
transform $-1 1 0 0 0 1 0 0 0 1 59.888302255317853 40.457822501098377 17.581193895547042 1 rotate no_reflect no_shear #
shell $-1 $-1 $-1 $48 $-1 $12 #
shell $-1 $-1 $-1 $49 $-1 $14 #
shell $-1 $-1 $-1 $50 $-1 $16 #
shell $-1 $-1 $-1 $51 $-1 $18 #
shell $-1 $-1 $-1 $52 $-1 $20 #
shell $-1 $-1 $-1 $53 $-1 $22 #
shell $-1 $-1 $-1 $54 $-1 $24 #
shell $-1 $-1 $-1 $55 $-1 $26 #
shell $-1 $-1 $-1 $56 $-1 $28 #
shell $-1 $-1 $-1 $57 $-1 $30 #
shell $-1 $-1 $-1 $58 $-1 $32 #
shell $-1 $-1 $-1 $59 $-1 $34 #
face $-1 $60 $61 $36 $-1 $62 forward single #
face $-1 $63 $64 $37 $-1 $65 forward single #
face $-1 $66 $67 $38 $-1 $68 forward single #
face $-1 $69 $70 $39 $-1 $71 reversed single #
face $-1 $72 $73 $40 $-1 $74 forward single #
face $-1 $75 $76 $41 $-1 $77 forward single #
face $-1 $78 $79 $42 $-1 $80 reversed single #
face $-1 $81 $82 $43 $-1 $83 forward single #
face $-1 $84 $85 $44 $-1 $86 forward single #
face $-1 $87 $88 $45 $-1 $89 reversed single #
face $-1 $90 $91 $46 $-1 $92 forward single #
face $-1 $93 $94 $47 $-1 $95 forward single #
face $-1 $96 $97 $36 $-1 $98 reversed single #
loop $-1 $-1 $99 $48 #
plane-surface $-1 0 0 17.581193895547042 0 0 1 1 0 0 forward_v I I I I #
face $-1 $100 $101 $37 $-1 $102 reversed single #
loop $-1 $-1 $103 $49 #
plane-surface $-1 0 -32.013730726753742 9.550288262241569 0 0 1 1 0 0 forward_v I I I I #
face $-1 $104 $105 $38 $-1 $106 reversed single #
loop $-1 $-1 $107 $50 #
plane-surface $-1 0 32.013730726753749 9.550288262241569 0 0 1 1 0 0 forward_v I I I I #
face $-1 $108 $109 $39 $-1 $110 reversed single #
loop $-1 $-1 $111 $51 #
plane-surface $-1 95.106403323824367 -11.781818227048522 169.38204103208005 0 1 0 0.83867057594974714 0 0.54463902268945019 forward_v I I I I #
face $-1 $112 $113 $40 $-1 $114 forward single #
loop $-1 $115 $116 $52 #
cone-surface $-1 54.714194903346915 -8.4155844478918027 10.205792174986472 -0.83867057594974714 0 -0.54463902268945019 0.54463902268945019 0 -0.83867057594974714 1 I I 0 1 1 forward I I I I #
face $-1 $117 $118 $41 $-1 $119 forward single #
loop $-1 $120 $121 $53 #
cone-surface $-1 54.714194903346915 -3.3662337791567154 10.205792174986472 -0.83867057594974714 0 -0.54463902268945019 0.54463902268945019 0 -0.83867057594974714 1 I I 0 1 1 forward I I I I #
face $-1 $122 $123 $42 $-1 $124 reversed single #
loop $-1 $-1 $125 $54 #
plane-surface $-1 95.106403323824367 11.787820725360586 169.38204103208005 0 1 0 0.83867057594974714 0 0.54463902268945019 forward_v I I I I #
face $-1 $126 $127 $43 $-1 $128 forward single #
loop $-1 $129 $130 $55 #
cone-surface $-1 54.714194903346915 15.154054504517305 10.205792174986472 -0.83867057594974714 0 -0.54463902268945019 0.54463902268945019 0 -0.83867057594974714 1 I I 0 1 1 forward I I I I #
face $-1 $131 $132 $44 $-1 $133 forward single #
loop $-1 $134 $135 $56 #
cone-surface $-1 54.714194903346915 20.203405173252392 10.205792174986472 -0.83867057594974714 0 -0.54463902268945019 0.54463902268945019 0 -0.83867057594974714 1 I I 0 1 1 forward I I I I #
face $-1 $136 $137 $45 $-1 $138 reversed single #
loop $-1 $-1 $139 $57 #
plane-surface $-1 -130.29122485577957 12.658777214891231 104.32251128716725 0 1 0 -0.5877852598018023 0 0.80901698891910034 forward_v I I I I #
face $-1 $140 $141 $46 $-1 $142 forward single #
loop $-1 $143 $144 $58 #
cone-surface $-1 -52.015732007156537 15.776166282753479 11.289216270444445 0.5877852598018023 0 -0.80901698891910034 0.80901698891910034 0 0.5877852598018023 1 I I 0 1 1 forward I I I I #
face $-1 $145 $146 $47 $-1 $147 forward single #
loop $-1 $148 $149 $59 #
cone-surface $-1 -52.015732007156537 20.452249884546852 11.289216270444445 0.5877852598018023 0 -0.80901698891910034 0.80901698891910034 0 0.5877852598018023 1 I I 0 1 1 forward I I I I #
face $-1 $150 $151 $36 $-1 $152 reversed single #
loop $-1 $-1 $153 $60 #
plane-surface $-1 0 0 -17.581193895547042 0 0 1 1 0 0 forward_v I I I I #
coedge $-1 $154 $155 $156 $157 forward $61 $-1 #
face $-1 $158 $159 $37 $-1 $160 reversed single #
loop $-1 $-1 $161 $63 #
plane-surface $-1 0 -32.013730726753742 4.7465397058637286 0 0 1 1 0 0 forward_v I I I I #
coedge $-1 $162 $163 $164 $165 reversed $64 $-1 #
face $-1 $166 $167 $38 $-1 $168 reversed single #
loop $-1 $-1 $169 $66 #
plane-surface $-1 0 32.013730726753749 4.7465397058637286 0 0 1 1 0 0 forward_v I I I I #
coedge $-1 $170 $171 $172 $173 reversed $67 $-1 #
face $-1 $174 $175 $39 $-1 $176 reversed single #
loop $-1 $-1 $177 $69 #
plane-surface $-1 -5.3467105664155667 -5.8909091135242591 104.14702821034663 0.83867057594974714 0 0.54463902268945019 0.54463902268945019 0 -0.83867057594974714 forward_v I I I I #
coedge $-1 $178 $179 $180 $181 reversed $70 $-1 #
face $-1 $-1 $182 $40 $-1 $183 forward single #
loop $-1 $184 $185 $72 #
cone-surface $-1 53.630004520890679 -8.4155844478918027 9.5017107308013529 -0.83867057594974714 0 -0.54463902268945019 0.2723195113447251 0 -0.41933528797487357 1 I I -0.70710678118654746 0.70710678118654746 0.5 forward I I I I #
loop $-1 $-1 $186 $52 #
coedge $-1 $116 $116 $187 $188 reversed $73 $-1 #
face $-1 $-1 $189 $41 $-1 $190 forward single #
loop $-1 $191 $192 $75 #
cone-surface $-1 53.630004520890679 -3.3662337791567154 9.5017107308013529 -0.83867057594974714 0 -0.54463902268945019 0.2723195113447251 0 -0.41933528797487357 1 I I -0.70710678118654746 0.70710678118654746 0.5 forward I I I I #
loop $-1 $-1 $193 $53 #
coedge $-1 $121 $121 $194 $195 reversed $76 $-1 #
face $-1 $196 $197 $42 $-1 $198 reversed single #
loop $-1 $-1 $199 $78 #
plane-surface $-1 -5.3467105664155667 17.678729838884848 104.14702821034663 0.83867057594974714 0 0.54463902268945019 0.54463902268945019 0 -0.83867057594974714 forward_v I I I I #
coedge $-1 $200 $201 $202 $203 reversed $79 $-1 #
face $-1 $-1 $204 $43 $-1 $205 forward single #
loop $-1 $206 $207 $81 #
cone-surface $-1 53.630004520890679 15.154054504517305 9.5017107308013529 -0.83867057594974714 0 -0.54463902268945019 0.2723195113447251 0 -0.41933528797487357 1 I I -0.70710678118654746 0.70710678118654746 0.5 forward I I I I #
loop $-1 $-1 $208 $55 #
coedge $-1 $130 $130 $209 $210 reversed $82 $-1 #
face $-1 $-1 $211 $44 $-1 $212 forward single #
loop $-1 $213 $214 $84 #
cone-surface $-1 53.630004520890679 20.203405173252392 9.5017107308013529 -0.83867057594974714 0 -0.54463902268945019 0.2723195113447251 0 -0.41933528797487357 1 I I -0.70710678118654746 0.70710678118654746 0.5 forward I I I I #
loop $-1 $-1 $215 $56 #
coedge $-1 $135 $135 $216 $217 reversed $85 $-1 #
face $-1 $218 $219 $45 $-1 $220 forward single #
loop $-1 $-1 $221 $87 #
plane-surface $-1 -59.888302255317853 18.114208083650169 7.4212033630188188 -0.5877852598018023 0 0.80901698891910034 0.80901698891910034 0 0.5877852598018023 forward_v I I I I #
coedge $-1 $222 $223 $224 $225 reversed $88 $-1 #
face $-1 $-1 $226 $46 $-1 $227 forward single #
loop $-1 $228 $229 $90 #
cone-surface $-1 -50.841282633179254 15.776166282753479 9.6727254171464061 0.5877852598018023 0 -0.80901698891910034 0.40450849445955017 0 0.29389262990090115 1 I I -0.70710678118654746 0.70710678118654746 0.5 forward I I I I #
loop $-1 $-1 $230 $58 #
coedge $-1 $144 $144 $231 $232 reversed $91 $-1 #
face $-1 $-1 $233 $47 $-1 $234 forward single #
loop $-1 $235 $236 $93 #
cone-surface $-1 -50.841282633179254 20.452249884546852 9.6727254171464061 0.5877852598018023 0 -0.80901698891910034 0.40450849445955017 0 0.29389262990090115 1 I I -0.70710678118654746 0.70710678118654746 0.5 forward I I I I #
loop $-1 $-1 $237 $59 #
coedge $-1 $149 $149 $238 $239 reversed $94 $-1 #
face $-1 $240 $241 $36 $-1 $242 reversed single #
loop $-1 $-1 $243 $96 #
plane-surface $-1 0 -40.457822501098377 0 0 1 0 0 0 1 forward_v I I I I #
coedge $-1 $244 $245 $246 $247 forward $97 $-1 #
coedge $-1 $248 $99 $249 $250 forward $61 $-1 #
coedge $-1 $99 $248 $251 $252 forward $61 $-1 #
coedge $-1 $253 $254 $99 $157 reversed $255 $-1 #
edge $-1 $256 -40.457822501098377 $257 40.457822501098377 $156 $258 forward 7 unknown #
face $-1 $259 $260 $37 $-1 $261 reversed single #
loop $-1 $-1 $262 $100 #
plane-surface $-1 0 -23.569638952409107 7.1484139840526488 0 -1 0 0 0 -1 forward_v I I I I #
coedge $-1 $263 $264 $265 $266 reversed $101 $-1 #
coedge $-1 $267 $103 $268 $269 forward $64 $-1 #
coedge $-1 $103 $267 $270 $271 reversed $64 $-1 #
coedge $-1 $272 $273 $103 $165 forward $274 $-1 #
edge $-1 $275 7.5627735890322363 $276 24.450957137721506 $164 $277 forward 7 unknown #
face $-1 $278 $279 $38 $-1 $280 reversed single #
loop $-1 $-1 $281 $104 #
plane-surface $-1 0 23.569638952409115 7.1484139840526488 0 1 0 0 0 1 forward_v I I I I #
coedge $-1 $282 $283 $284 $285 reversed $105 $-1 #
coedge $-1 $286 $107 $287 $288 reversed $67 $-1 #
coedge $-1 $107 $286 $289 $290 forward $67 $-1 #
coedge $-1 $291 $292 $107 $173 forward $279 $-1 #
edge $-1 $293 -24.45095713772151 $294 -7.5627735890322398 $172 $295 forward 7 unknown #
face $-1 $296 $297 $39 $-1 $298 forward single #
loop $-1 $-1 $299 $108 #
plane-surface $-1 95.106403323824367 3.5527136788005009e-015 169.38204103208005 0 -1 0 -0.83867057594974714 0 -0.54463902268945019 forward_v I I I I #
coedge $-1 $300 $301 $302 $303 reversed $109 $-1 #
coedge $-1 $179 $111 $304 $305 reversed $70 $-1 #
coedge $-1 $111 $178 $300 $306 reversed $70 $-1 #
coedge $-1 $302 $307 $111 $181 forward $308 $-1 #
edge $-1 $309 67.109826620492981 $310 80.997106195933327 $180 $311 forward 7 unknown #
loop $-1 $-1 $187 $112 #
plane-surface $-1 -5.3467105664155667 -5.8909091135242591 104.14702821034663 0.83867057594974714 0 0.54463902268945019 0.54463902268945019 0 -0.83867057594974714 forward_v I I I I #
loop $-1 $-1 $312 $72 #
coedge $-1 $185 $185 $186 $313 reversed $113 $-1 #
coedge $-1 $186 $186 $185 $313 forward $115 $-1 #
coedge $-1 $187 $187 $116 $188 forward $182 $-1 #
edge $-1 $314 0 $314 6.2831853071796004 $187 $315 forward 7 unknown #
loop $-1 $-1 $194 $117 #
plane-surface $-1 -5.3467105664155667 -5.8909091135242591 104.14702821034663 0.83867057594974714 0 0.54463902268945019 0.54463902268945019 0 -0.83867057594974714 forward_v I I I I #
loop $-1 $-1 $316 $75 #
coedge $-1 $192 $192 $193 $317 reversed $118 $-1 #
coedge $-1 $193 $193 $192 $317 forward $120 $-1 #
coedge $-1 $194 $194 $121 $195 forward $189 $-1 #
edge $-1 $318 0 $318 6.2831853071796004 $194 $319 forward 7 unknown #
face $-1 $320 $321 $42 $-1 $322 forward single #
loop $-1 $-1 $202 $122 #
plane-surface $-1 59.888302255317853 0 0 -1 0 0 0 0 1 forward_v I I I I #
coedge $-1 $323 $324 $325 $326 reversed $123 $-1 #
coedge $-1 $201 $125 $327 $328 reversed $79 $-1 #
coedge $-1 $125 $200 $323 $329 reversed $79 $-1 #
coedge $-1 $325 $330 $125 $203 forward $197 $-1 #
edge $-1 $331 67.109826620492981 $332 80.997106195933327 $202 $333 forward 7 unknown #
loop $-1 $-1 $209 $126 #
plane-surface $-1 -5.3467105664155667 17.678729838884848 104.14702821034663 0.83867057594974714 0 0.54463902268945019 0.54463902268945019 0 -0.83867057594974714 forward_v I I I I #
loop $-1 $-1 $334 $81 #
coedge $-1 $207 $207 $208 $335 reversed $127 $-1 #
coedge $-1 $208 $208 $207 $335 forward $129 $-1 #
coedge $-1 $209 $209 $130 $210 forward $204 $-1 #
edge $-1 $336 0 $336 6.2831853071796004 $209 $337 forward 7 unknown #
loop $-1 $-1 $216 $131 #
plane-surface $-1 -5.3467105664155667 17.678729838884848 104.14702821034663 0.83867057594974714 0 0.54463902268945019 0.54463902268945019 0 -0.83867057594974714 forward_v I I I I #
loop $-1 $-1 $338 $84 #
coedge $-1 $214 $214 $215 $339 reversed $132 $-1 #
coedge $-1 $215 $215 $214 $339 forward $134 $-1 #
coedge $-1 $216 $216 $135 $217 forward $211 $-1 #
edge $-1 $340 0 $340 6.2831853071796004 $216 $341 forward 7 unknown #
face $-1 $342 $343 $45 $-1 $344 forward single #
loop $-1 $-1 $345 $136 #
plane-surface $-1 0 23.569638952409115 7.1484139840526488 0 1 0 0 0 1 forward_v I I I I #
coedge $-1 $346 $347 $348 $349 reversed $137 $-1 #
coedge $-1 $223 $139 $350 $351 reversed $88 $-1 #
coedge $-1 $139 $222 $346 $352 reversed $88 $-1 #
coedge $-1 $348 $353 $139 $225 forward $343 $-1 #
edge $-1 $354 5.257310172571934 $355 19.241337180741809 $224 $356 forward 7 unknown #
loop $-1 $-1 $231 $140 #
plane-surface $-1 -59.888302255317853 18.114208083650169 7.4212033630188188 -0.5877852598018023 0 0.80901698891910034 0.80901698891910034 0 0.5877852598018023 forward_v I I I I #
loop $-1 $-1 $357 $90 #
coedge $-1 $229 $229 $230 $358 reversed $141 $-1 #
coedge $-1 $230 $230 $229 $358 forward $143 $-1 #
coedge $-1 $231 $231 $144 $232 forward $226 $-1 #
edge $-1 $359 0 $359 6.2831853071796004 $231 $360 forward 7 unknown #
loop $-1 $-1 $238 $145 #
plane-surface $-1 -59.888302255317853 18.114208083650169 7.4212033630188188 -0.5877852598018023 0 0.80901698891910034 0.80901698891910034 0 0.5877852598018023 forward_v I I I I #
loop $-1 $-1 $361 $93 #
coedge $-1 $236 $236 $237 $362 reversed $146 $-1 #
coedge $-1 $237 $237 $236 $362 forward $148 $-1 #
coedge $-1 $238 $238 $149 $239 forward $233 $-1 #
edge $-1 $363 0 $363 6.2831853071796004 $238 $364 forward 7 unknown #
face $-1 $365 $366 $36 $-1 $367 reversed single #
loop $-1 $-1 $368 $150 #
plane-surface $-1 -59.888302255317853 0 0 1 0 0 0 0 -1 forward_v I I I I #
coedge $-1 $369 $251 $370 $371 forward $151 $-1 #
coedge $-1 $372 $153 $369 $373 forward $97 $-1 #
coedge $-1 $153 $372 $374 $375 forward $97 $-1 #
coedge $-1 $254 $253 $153 $247 reversed $255 $-1 #
edge $-1 $376 -40.457822501098377 $377 40.457822501098377 $246 $378 forward 7 unknown #
coedge $-1 $155 $154 $379 $380 forward $61 $-1 #
coedge $-1 $381 $382 $154 $250 reversed $366 $-1 #
edge $-1 $257 -59.888302255317853 $383 59.888302255317853 $249 $384 forward 7 unknown #
coedge $-1 $243 $385 $155 $252 reversed $151 $-1 #
edge $-1 $386 -59.888302255317853 $256 59.888302255317853 $251 $387 forward 7 unknown #
coedge $-1 $246 $156 $385 $388 forward $255 $-1 #
coedge $-1 $156 $246 $381 $389 reversed $255 $-1 #
loop $-1 $-1 $253 $365 #
vertex $-1 $157 $390 #
vertex $-1 $157 $391 #
straight-curve $-1 59.888302255317853 0 17.581193895547042 0 1 0 I I #
face $-1 $392 $393 $37 $-1 $394 reversed single #
loop $-1 $-1 $395 $158 #
plane-surface $-1 -59.888302255317853 0 0 1 0 0 0 0 -1 forward_v I I I I #
coedge $-1 $396 $268 $273 $397 reversed $159 $-1 #
coedge $-1 $398 $161 $399 $400 reversed $101 $-1 #
coedge $-1 $161 $398 $396 $401 forward $101 $-1 #
coedge $-1 $273 $272 $161 $266 forward $274 $-1 #
edge $-1 $402 -24.450957137721506 $403 -7.5627735890322363 $265 $404 forward 7 unknown #
coedge $-1 $163 $162 $395 $405 reversed $64 $-1 #
coedge $-1 $262 $406 $162 $269 reversed $159 $-1 #
edge $-1 $275 -59.888302255317853 $407 59.888302255317853 $268 $408 forward 7 unknown #
coedge $-1 $409 $410 $163 $271 forward $393 $-1 #
edge $-1 $276 -59.888302255317853 $411 59.888302255317853 $270 $412 forward 7 unknown #
coedge $-1 $265 $164 $410 $413 forward $274 $-1 #
coedge $-1 $164 $265 $262 $397 forward $274 $-1 #
loop $-1 $-1 $164 $392 #
vertex $-1 $165 $414 #
vertex $-1 $413 $415 #
straight-curve $-1 59.888302255317853 -16.006865363376871 9.550288262241569 0 -1 0 I I #
face $-1 $416 $417 $38 $-1 $418 reversed single #
loop $-1 $-1 $172 $166 #
plane-surface $-1 59.888302255317853 0 0 -1 0 0 0 0 1 forward_v I I I I #
coedge $-1 $419 $289 $420 $421 reversed $167 $-1 #
coedge $-1 $422 $169 $419 $423 forward $105 $-1 #
coedge $-1 $169 $422 $424 $425 reversed $105 $-1 #
coedge $-1 $292 $291 $169 $285 forward $279 $-1 #
edge $-1 $426 7.5627735890322398 $427 24.45095713772151 $284 $428 forward 7 unknown #
coedge $-1 $171 $170 $429 $430 reversed $67 $-1 #
coedge $-1 $431 $432 $170 $288 forward $433 $-1 #
edge $-1 $434 -59.888302255317853 $293 59.888302255317853 $287 $435 forward 7 unknown #
coedge $-1 $281 $436 $171 $290 reversed $167 $-1 #
edge $-1 $437 -59.888302255317853 $294 59.888302255317853 $289 $438 forward 7 unknown #
coedge $-1 $284 $172 $436 $439 forward $279 $-1 #
coedge $-1 $172 $284 $431 $440 reversed $279 $-1 #
vertex $-1 $440 $441 #
vertex $-1 $173 $442 #
straight-curve $-1 59.888302255317853 16.006865363376875 9.550288262241569 0 -1 0 I I #
face $-1 $-1 $308 $39 $-1 $443 reversed single #
loop $-1 $-1 $444 $174 #
plane-surface $-1 0 0 17.581193895547042 0 0 1 1 0 0 forward_v I I I I #
coedge $-1 $445 $446 $447 $448 reversed $175 $-1 #
coedge $-1 $449 $177 $179 $306 forward $109 $-1 #
coedge $-1 $177 $449 $445 $450 forward $109 $-1 #
coedge $-1 $447 $180 $177 $303 forward $308 $-1 #
edge $-1 $310 -8.8363636702863921 $451 2.9454545567621331 $302 $452 forward 7 unknown #
coedge $-1 $453 $454 $178 $305 forward $297 $-1 #
edge $-1 $455 3.3165960784264854 $309 12.33510059340567 $304 $456 forward 7 unknown #
edge $-1 $310 -119.77660451063571 $455 -103.21792226556734 $179 $457 forward 7 unknown #
coedge $-1 $180 $447 $453 $458 reversed $308 $-1 #
loop $-1 $-1 $447 $296 #
vertex $-1 $458 $459 #
vertex $-1 $181 $460 #
straight-curve $-1 59.888302255317853 -11.781818227048522 84.691020516040027 0 0 -1 I I #
coedge $-1 $312 $312 $-1 $461 reversed $184 $-1 #
edge $-1 $462 0 $462 6.2831853071796004 $185 $463 forward 7 unknown #
vertex $-1 $188 $464 #
ellipse-curve $-1 55.379049997828268 -8.4155844478918027 10.637554107826865 0.83867057594974714 0 0.54463902268945019 0.54463902268945019 0 -0.83867057594974714 1 I I #
coedge $-1 $316 $316 $-1 $465 reversed $191 $-1 #
edge $-1 $466 0 $466 6.2831853071796004 $192 $467 forward 7 unknown #
vertex $-1 $195 $468 #
ellipse-curve $-1 55.379049997828268 -3.3662337791567154 10.637554107826865 0.83867057594974714 0 0.54463902268945019 0.54463902268945019 0 -0.83867057594974714 1 I I #
face $-1 $-1 $469 $42 $-1 $470 forward single #
loop $-1 $-1 $471 $196 #
plane-surface $-1 0 23.569638952409115 7.1484139840526488 0 1 0 0 0 1 forward_v I I I I #
coedge $-1 $472 $199 $201 $329 forward $123 $-1 #
coedge $-1 $199 $472 $471 $473 forward $123 $-1 #
coedge $-1 $474 $202 $199 $326 forward $197 $-1 #
edge $-1 $332 2.9484558059181616 $475 14.730274032966687 $325 $476 forward 7 unknown #
coedge $-1 $477 $478 $200 $328 forward $469 $-1 #
edge $-1 $479 3.3165960784264854 $331 12.33510059340567 $327 $480 forward 7 unknown #
edge $-1 $332 -119.77660451063571 $479 -103.21792226556734 $201 $481 forward 7 unknown #
coedge $-1 $202 $474 $477 $482 reversed $197 $-1 #
vertex $-1 $482 $483 #
vertex $-1 $203 $484 #
straight-curve $-1 59.888302255317853 11.787820725360586 84.691020516040027 0 0 -1 I I #
coedge $-1 $334 $334 $-1 $485 reversed $206 $-1 #
edge $-1 $486 0 $486 6.2831853071796004 $207 $487 forward 7 unknown #
vertex $-1 $210 $488 #
ellipse-curve $-1 55.379049997828268 15.154054504517305 10.637554107826865 0.83867057594974714 0 0.54463902268945019 0.54463902268945019 0 -0.83867057594974714 1 I I #
coedge $-1 $338 $338 $-1 $489 reversed $213 $-1 #
edge $-1 $490 0 $490 6.2831853071796004 $214 $491 forward 7 unknown #
vertex $-1 $217 $492 #
ellipse-curve $-1 55.379049997828268 20.203405173252392 10.637554107826865 0.83867057594974714 0 0.54463902268945019 0.54463902268945019 0 -0.83867057594974714 1 I I #
face $-1 $-1 $493 $45 $-1 $494 reversed single #
loop $-1 $-1 $495 $218 #
plane-surface $-1 0 0 17.581193895547042 0 0 1 1 0 0 forward_v I I I I #
coedge $-1 $496 $497 $347 $498 forward $219 $-1 #
coedge $-1 $499 $221 $223 $352 forward $137 $-1 #
coedge $-1 $221 $499 $345 $498 reversed $137 $-1 #
coedge $-1 $495 $224 $221 $349 forward $343 $-1 #
edge $-1 $355 3.6016731730661462 $500 14.512534910584023 $348 $501 forward 7 unknown #
coedge $-1 $502 $503 $222 $351 forward $493 $-1 #
edge $-1 $504 -44.740052280564804 $354 -34.580061748036584 $350 $505 forward 7 unknown #
edge $-1 $355 -17.28520809785892 $504 0 $223 $506 forward 7 unknown #
coedge $-1 $224 $495 $502 $507 forward $343 $-1 #
vertex $-1 $351 $508 #
vertex $-1 $225 $509 #
straight-curve $-1 -65.145612427889787 12.658777214891231 17.581193895547038 1 0 0 I I #
coedge $-1 $357 $357 $-1 $510 reversed $228 $-1 #
edge $-1 $511 0 $511 6.2831853071796004 $229 $512 forward 7 unknown #
vertex $-1 $232 $513 #
ellipse-curve $-1 -52.896288751232916 15.776166282753479 12.501198629282928 -0.5877852598018023 0 0.80901698891910034 0.80901698891910034 0 0.5877852598018023 1 I I #
coedge $-1 $361 $361 $-1 $514 reversed $235 $-1 #
edge $-1 $515 0 $515 6.2831853071796004 $236 $516 forward 7 unknown #
vertex $-1 $239 $517 #
ellipse-curve $-1 -52.896288751232916 20.452249884546852 12.501198629282928 -0.5877852598018023 0 0.80901698891910034 0.80901698891910034 0 0.5877852598018023 1 I I #
face $-1 $-1 $255 $36 $-1 $518 reversed single #
loop $-1 $-1 $381 $240 #
plane-surface $-1 0 40.457822501098377 0 0 -1 0 0 0 -1 forward_v I I I I #
coedge $-1 $519 $379 $382 $520 forward $241 $-1 #
coedge $-1 $385 $243 $244 $373 reversed $151 $-1 #
coedge $-1 $379 $519 $243 $371 reversed $241 $-1 #
edge $-1 $386 -17.581193895547042 $521 17.581193895547042 $370 $522 forward 7 unknown #
coedge $-1 $245 $244 $519 $523 forward $97 $-1 #
edge $-1 $377 -59.888302255317853 $521 59.888302255317853 $369 $524 forward 7 unknown #
coedge $-1 $382 $381 $245 $375 reversed $366 $-1 #
edge $-1 $525 -59.888302255317853 $376 59.888302255317853 $374 $526 forward 7 unknown #
vertex $-1 $247 $527 #
vertex $-1 $388 $528 #
straight-curve $-1 59.888302255317853 0 -17.581193895547042 0 -1 0 I I #
coedge $-1 $368 $370 $248 $380 reversed $241 $-1 #
edge $-1 $383 -40.457822501098377 $386 40.457822501098377 $379 $529 forward 7 unknown #
coedge $-1 $374 $249 $254 $389 forward $366 $-1 #
coedge $-1 $249 $374 $368 $520 reversed $366 $-1 #
vertex $-1 $250 $530 #
straight-curve $-1 0 40.457822501098377 17.581193895547042 -1 0 0 I I #
coedge $-1 $251 $369 $253 $388 reversed $151 $-1 #
vertex $-1 $380 $531 #
straight-curve $-1 0 -40.457822501098377 17.581193895547042 1 0 0 I I #
edge $-1 $256 -17.581193895547042 $377 17.581193895547042 $253 $532 forward 7 unknown #
edge $-1 $257 -17.581193895547042 $376 17.581193895547042 $254 $533 forward 7 unknown #
point $-1 59.888302255317853 -40.457822501098377 17.581193895547042 #
point $-1 59.888302255317853 40.457822501098377 17.581193895547042 #
face $-1 $-1 $274 $37 $-1 $534 reversed single #
loop $-1 $-1 $270 $259 #
plane-surface $-1 0 -40.457822501098377 0 0 1 0 0 0 1 forward_v I I I I #
coedge $-1 $535 $536 $267 $405 forward $260 $-1 #
coedge $-1 $406 $262 $264 $401 reversed $159 $-1 #
edge $-1 $403 1.1723327138374042 $275 5.9760812702152446 $273 $537 forward 7 unknown #
coedge $-1 $264 $263 $538 $539 reversed $101 $-1 #
coedge $-1 $410 $409 $263 $400 forward $393 $-1 #
edge $-1 $540 -59.888302255317853 $402 59.888302255317853 $399 $541 forward 7 unknown #
edge $-1 $542 -59.888302255317853 $403 59.888302255317853 $396 $543 forward 7 unknown #
vertex $-1 $400 $544 #
vertex $-1 $266 $545 #
straight-curve $-1 59.888302255317853 -16.006865363376871 4.7465397058637286 0 1 0 I I #
edge $-1 $411 -24.450957137721506 $407 -7.5627735890322363 $395 $546 forward 7 unknown #
coedge $-1 $268 $396 $535 $547 reversed $159 $-1 #
vertex $-1 $405 $548 #
straight-curve $-1 0 -23.569638952409107 9.550288262241569 -1 0 0 I I #
coedge $-1 $399 $270 $536 $549 forward $393 $-1 #
coedge $-1 $270 $399 $272 $413 reversed $393 $-1 #
vertex $-1 $549 $550 #
straight-curve $-1 0 -40.457822501098377 9.550288262241569 -1 0 0 I I #
edge $-1 $276 -9.550288262241569 $402 -4.7465397058637286 $272 $551 forward 7 unknown #
point $-1 59.888302255317853 -23.569638952409107 9.550288262241569 #
point $-1 59.888302255317853 -40.457822501098377 9.550288262241569 #
face $-1 $-1 $433 $38 $-1 $552 reversed single #
loop $-1 $-1 $429 $278 #
plane-surface $-1 -59.888302255317853 0 0 1 0 0 0 0 -1 forward_v I I I I #
coedge $-1 $436 $281 $282 $423 reversed $167 $-1 #
coedge $-1 $429 $553 $281 $421 forward $417 $-1 #
edge $-1 $554 1.1723327138374042 $437 5.9760812702152446 $420 $555 forward 7 unknown #
coedge $-1 $283 $282 $553 $556 reversed $105 $-1 #
edge $-1 $426 -59.888302255317853 $554 59.888302255317853 $419 $557 forward 7 unknown #
coedge $-1 $432 $431 $283 $425 forward $433 $-1 #
edge $-1 $427 -59.888302255317853 $558 59.888302255317853 $424 $559 forward 7 unknown #
vertex $-1 $285 $560 #
vertex $-1 $425 $561 #
straight-curve $-1 59.888302255317853 16.006865363376875 4.7465397058637286 0 1 0 I I #
coedge $-1 $562 $420 $286 $430 forward $417 $-1 #
edge $-1 $437 7.5627735890322398 $434 24.45095713772151 $429 $563 forward 7 unknown #
coedge $-1 $424 $287 $292 $440 forward $433 $-1 #
coedge $-1 $287 $424 $562 $564 reversed $433 $-1 #
loop $-1 $-1 $287 $416 #
vertex $-1 $564 $565 #
straight-curve $-1 0 40.457822501098377 9.550288262241569 1 0 0 I I #
coedge $-1 $289 $419 $291 $439 reversed $167 $-1 #
vertex $-1 $430 $566 #
straight-curve $-1 0 23.569638952409115 9.550288262241569 1 0 0 I I #
edge $-1 $294 -5.9760812702152446 $426 -1.1723327138374042 $291 $567 forward 7 unknown #
edge $-1 $293 -9.550288262241569 $427 -4.7465397058637286 $292 $568 forward 7 unknown #
point $-1 59.888302255317853 40.457822501098384 9.550288262241569 #
point $-1 59.888302255317853 23.569638952409115 9.550288262241569 #
plane-surface $-1 59.888302255317853 0 0 -1 0 0 0 0 1 forward_v I I I I #
coedge $-1 $454 $453 $446 $569 forward $297 $-1 #
coedge $-1 $446 $299 $301 $450 reversed $175 $-1 #
coedge $-1 $299 $445 $444 $569 reversed $175 $-1 #
coedge $-1 $307 $302 $299 $448 forward $308 $-1 #
edge $-1 $451 -80.997106195933327 $570 -67.109826620492981 $447 $571 forward 7 unknown #
coedge $-1 $301 $300 $454 $572 reversed $109 $-1 #
edge $-1 $573 103.21792226556734 $451 119.77660451063571 $445 $574 forward 7 unknown #
vertex $-1 $303 $575 #
straight-curve $-1 59.888302255317853 -2.9454545567621295 3.6939143201067068 0 1 0 I I #
coedge $-1 $444 $304 $307 $458 forward $297 $-1 #
coedge $-1 $304 $444 $449 $572 forward $297 $-1 #
vertex $-1 $305 $576 #
straight-curve $-1 47.553201661912183 -11.781818227048522 17.581193895547045 1 0 0 I I #
straight-curve $-1 -5.3467105664155667 -11.781818227048522 104.14702821034663 -0.54463902268945019 0 0.83867057594974714 I I #
edge $-1 $309 -11.781818227048522 $570 3.5527136788005009e-015 $307 $577 forward 7 unknown #
point $-1 59.888302255317853 -11.781818227048522 17.581193895547042 #
point $-1 59.888302255317853 -11.781818227048522 3.6939143201066997 #
edge $-1 $578 1 $578 0 $312 $-1 forward 7 unknown #
vertex $-1 $313 $579 #
ellipse-curve $-1 54.049339808865554 -8.4155844478918027 9.7740302421460772 0.83867057594974714 0 0.54463902268945019 0.54463902268945019 0 -0.83867057594974714 1 I I #
point $-1 55.92368902051772 -8.4155844478918027 9.7988835318771184 #
edge $-1 $580 1 $580 0 $316 $-1 forward 7 unknown #
vertex $-1 $317 $581 #
ellipse-curve $-1 54.049339808865554 -3.3662337791567154 9.7740302421460772 0.83867057594974714 0 0.54463902268945019 0.54463902268945019 0 -0.83867057594974714 1 I I #
point $-1 55.92368902051772 -3.3662337791567154 9.7988835318771184 #
loop $-1 $-1 $327 $320 #
plane-surface $-1 0 0 17.581193895547042 0 0 1 1 0 0 forward_v I I I I #
coedge $-1 $582 $583 $324 $473 reversed $321 $-1 #
coedge $-1 $324 $323 $478 $584 reversed $123 $-1 #
edge $-1 $585 103.21792226556734 $475 119.77660451063571 $471 $586 forward 7 unknown #
coedge $-1 $330 $325 $583 $587 forward $197 $-1 #
vertex $-1 $326 $588 #
straight-curve $-1 59.888302255317853 8.8393649194424242 3.6939143201067068 0 1 0 I I #
coedge $-1 $589 $327 $330 $482 forward $469 $-1 #
coedge $-1 $327 $589 $472 $584 forward $469 $-1 #
vertex $-1 $328 $590 #
straight-curve $-1 47.553201661912183 11.787820725360586 17.581193895547045 1 0 0 I I #
straight-curve $-1 -5.3467105664155667 11.787820725360586 104.14702821034663 -0.54463902268945019 0 0.83867057594974714 I I #
edge $-1 $331 11.787820725360586 $591 23.569638952409111 $330 $592 forward 7 unknown #
point $-1 59.888302255317853 11.787820725360586 17.581193895547042 #
point $-1 59.888302255317853 11.787820725360586 3.6939143201066997 #
edge $-1 $593 1 $593 0 $334 $-1 forward 7 unknown #
vertex $-1 $335 $594 #
ellipse-curve $-1 54.049339808865554 15.154054504517305 9.7740302421460772 0.83867057594974714 0 0.54463902268945019 0.54463902268945019 0 -0.83867057594974714 1 I I #
point $-1 55.92368902051772 15.154054504517305 9.7988835318771184 #
edge $-1 $595 1 $595 0 $338 $-1 forward 7 unknown #
vertex $-1 $339 $596 #
ellipse-curve $-1 54.049339808865554 20.203405173252392 9.7740302421460772 0.83867057594974714 0 0.54463902268945019 0.54463902268945019 0 -0.83867057594974714 1 I I #
point $-1 55.92368902051772 20.203405173252392 9.7988835318771184 #
loop $-1 $-1 $597 $342 #
plane-surface $-1 -59.888302255317853 0 0 1 0 0 0 0 -1 forward_v I I I I #
coedge $-1 $353 $348 $497 $598 forward $343 $-1 #
coedge $-1 $497 $345 $597 $599 reversed $219 $-1 #
coedge $-1 $345 $496 $495 $598 reversed $219 $-1 #
edge $-1 $500 6.85994809518479 $600 24.145156193043711 $345 $601 forward 7 unknown #
coedge $-1 $347 $346 $503 $602 reversed $137 $-1 #
vertex $-1 $349 $603 #
straight-curve $-1 -45.904275247147979 9.0571040418250846 17.581193895547042 0 1 0 I I #
coedge $-1 $597 $350 $353 $507 reversed $493 $-1 #
coedge $-1 $350 $597 $499 $602 forward $493 $-1 #
vertex $-1 $351 $604 #
straight-curve $-1 -59.888302255317853 12.658777214891231 52.161255643583623 0 0 1 I I #
straight-curve $-1 -59.888302255317853 12.658777214891231 7.4212033630188188 -0.80901698891910034 0 -0.5877852598018023 I I #
edge $-1 $605 -23.569638952409107 $354 -12.658777214891231 $502 $606 forward 7 unknown #
point $-1 -59.888302255317853 12.658777214891231 17.581193895547042 #
point $-1 -45.904275247147979 12.658777214891231 17.581193895547042 #
edge $-1 $607 1 $607 0 $357 $-1 forward 7 unknown #
vertex $-1 $358 $608 #
ellipse-curve $-1 -51.135175263080157 15.776166282753479 10.077233911605957 -0.5877852598018023 0 0.80901698891910034 0.80901698891910034 0 0.5877852598018023 1 I I #
point $-1 -52.087271762313826 15.776166282753479 13.088983889084737 #
edge $-1 $609 1 $609 0 $361 $-1 forward 7 unknown #
vertex $-1 $362 $610 #
ellipse-curve $-1 -51.135175263080157 20.452249884546852 10.077233911605957 -0.5877852598018023 0 0.80901698891910034 0.80901698891910034 0 0.5877852598018023 1 I I #
point $-1 -52.087271762313826 20.452249884546852 13.088983889084737 #
plane-surface $-1 59.888302255317853 0 0 -1 0 0 0 0 1 forward_v I I I I #
coedge $-1 $370 $368 $372 $523 reversed $241 $-1 #
edge $-1 $383 -17.581193895547042 $525 17.581193895547042 $382 $611 forward 7 unknown #
vertex $-1 $523 $612 #
straight-curve $-1 -59.888302255317853 -40.457822501098377 0 0 0 -1 I I #
edge $-1 $521 -40.457822501098377 $525 40.457822501098377 $519 $613 forward 7 unknown #
straight-curve $-1 0 -40.457822501098377 -17.581193895547042 -1 0 0 I I #
vertex $-1 $375 $614 #
straight-curve $-1 0 40.457822501098377 -17.581193895547042 1 0 0 I I #
point $-1 59.888302255317853 40.457822501098377 -17.581193895547042 #
point $-1 59.888302255317853 -40.457822501098377 -17.581193895547042 #
straight-curve $-1 -59.888302255317853 0 17.581193895547042 0 -1 0 I I #
point $-1 -59.888302255317853 40.457822501098377 17.581193895547042 #
point $-1 -59.888302255317853 -40.457822501098377 17.581193895547042 #
straight-curve $-1 59.888302255317853 -40.457822501098377 0 0 0 -1 I I #
straight-curve $-1 59.888302255317853 40.457822501098377 0 0 0 -1 I I #
plane-surface $-1 59.888302255317853 0 0 -1 0 0 0 0 1 forward_v I I I I #
coedge $-1 $538 $395 $406 $547 forward $260 $-1 #
coedge $-1 $395 $538 $409 $549 reversed $260 $-1 #
straight-curve $-1 59.888302255317853 -23.569638952409107 3.5742069920263244 0 0 1 I I #
coedge $-1 $536 $535 $398 $539 forward $260 $-1 #
edge $-1 $542 7.5627735890322363 $540 24.450957137721506 $538 $615 forward 7 unknown #
vertex $-1 $400 $616 #
straight-curve $-1 0 -40.457822501098377 4.7465397058637286 1 0 0 I I #
vertex $-1 $539 $617 #
straight-curve $-1 0 -23.569638952409107 4.7465397058637286 1 0 0 I I #
point $-1 59.888302255317853 -40.457822501098377 4.7465397058637286 #
point $-1 59.888302255317853 -23.569638952409107 4.7465397058637286 #
straight-curve $-1 -59.888302255317853 -16.006865363376871 9.550288262241569 0 1 0 I I #
edge $-1 $407 -5.9760812702152446 $542 -1.1723327138374042 $535 $618 forward 7 unknown #
point $-1 -59.888302255317853 -23.569638952409107 9.550288262241569 #
edge $-1 $411 -9.550288262241569 $540 -4.7465397058637286 $536 $619 forward 7 unknown #
point $-1 -59.888302255317853 -40.457822501098377 9.550288262241569 #
straight-curve $-1 59.888302255317853 -40.457822501098377 0 0 0 -1 I I #
plane-surface $-1 0 40.457822501098377 0 0 -1 0 0 0 -1 forward_v I I I I #
coedge $-1 $420 $562 $422 $556 forward $417 $-1 #
vertex $-1 $556 $620 #
straight-curve $-1 -59.888302255317853 23.569638952409115 3.5742069920263244 0 0 1 I I #
edge $-1 $558 -24.45095713772151 $554 -7.5627735890322398 $553 $621 forward 7 unknown #
straight-curve $-1 0 23.569638952409115 4.7465397058637286 -1 0 0 I I #
vertex $-1 $425 $622 #
straight-curve $-1 0 40.457822501098377 4.7465397058637286 -1 0 0 I I #
point $-1 59.888302255317853 23.569638952409115 4.7465397058637286 #
point $-1 59.888302255317853 40.457822501098384 4.7465397058637286 #
coedge $-1 $553 $429 $432 $564 forward $417 $-1 #
straight-curve $-1 -59.888302255317853 16.006865363376875 9.550288262241569 0 1 0 I I #
edge $-1 $434 -9.550288262241569 $558 -4.7465397058637286 $432 $623 forward 7 unknown #
point $-1 -59.888302255317853 40.457822501098384 9.550288262241569 #
point $-1 -59.888302255317853 23.569638952409115 9.550288262241569 #
straight-curve $-1 59.888302255317853 23.569638952409115 3.5742069920263244 0 0 -1 I I #
straight-curve $-1 59.888302255317853 40.457822501098377 0 0 0 -1 I I #
edge $-1 $570 -12.33510059340567 $573 -3.3165960784264854 $444 $624 forward 7 unknown #
vertex $-1 $569 $625 #
straight-curve $-1 59.888302255317853 3.5527136788005009e-015 84.691020516040027 0 0 1 I I #
edge $-1 $573 -2.9454545567621331 $455 8.8363636702863921 $454 $626 forward 7 unknown #
vertex $-1 $572 $627 #
straight-curve $-1 -5.3467105664155667 3.5527136788005009e-015 104.14702821034663 0.54463902268945019 0 -0.83867057594974714 I I #
point $-1 59.888302255317853 3.5527136788005009e-015 3.6939143201066997 #
point $-1 50.869797740338669 -11.781818227048522 17.581193895547045 #
straight-curve $-1 59.888302255317853 0 17.581193895547042 0 1 0 I I #
vertex $-1 $461 $628 #
point $-1 54.593978831555006 -8.4155844478918027 8.9353596661963302 #
vertex $-1 $465 $629 #
point $-1 54.593978831555006 -3.3662337791567154 8.9353596661963302 #
coedge $-1 $583 $471 $589 $630 reversed $321 $-1 #
coedge $-1 $471 $582 $474 $587 reversed $321 $-1 #
edge $-1 $585 -14.730274032966687 $479 -2.9484558059181616 $478 $631 forward 7 unknown #
vertex $-1 $630 $632 #
straight-curve $-1 -5.3467105664155667 23.569638952409111 104.14702821034663 0.54463902268945019 0 -0.83867057594974714 I I #
edge $-1 $475 -80.997106195933327 $591 -67.109826620492981 $474 $633 forward 7 unknown #
point $-1 59.888302255317853 23.569638952409111 3.6939143201066997 #
coedge $-1 $478 $477 $582 $630 forward $469 $-1 #
point $-1 50.869797740338669 11.787820725360586 17.581193895547045 #
vertex $-1 $630 $634 #
straight-curve $-1 59.888302255317853 0 17.581193895547042 0 1 0 I I #
vertex $-1 $485 $635 #
point $-1 54.593978831555006 15.154054504517305 8.9353596661963302 #
vertex $-1 $489 $636 #
point $-1 54.593978831555006 20.203405173252392 8.9353596661963302 #
coedge $-1 $503 $502 $496 $599 forward $493 $-1 #
edge $-1 $500 -19.241337180741809 $605 -5.257310172571934 $495 $637 forward 7 unknown #
edge $-1 $605 34.580061748036584 $600 44.740052280564804 $597 $638 forward 7 unknown #
vertex $-1 $602 $639 #
straight-curve $-1 -40.35446069504026 23.569638952409115 21.613370268902109 -0.80901698891910034 0 -0.5877852598018023 I I #
edge $-1 $600 -14.51253491058403 $504 -3.6016731730661462 $503 $640 forward 7 unknown #
point $-1 -45.904275247147979 23.569638952409107 17.581193895547042 #
point $-1 -59.888302255317853 12.658777214891231 7.4212033630188188 #
vertex $-1 $507 $641 #
straight-curve $-1 -59.888302255317853 0 17.581193895547042 0 -1 0 I I #
vertex $-1 $510 $642 #
point $-1 -50.326158274161052 15.776166282753479 10.665019171407758 #
vertex $-1 $514 $643 #
point $-1 -50.326158274161052 20.452249884546852 10.665019171407758 #
straight-curve $-1 -59.888302255317853 40.457822501098377 0 0 0 -1 I I #
point $-1 -59.888302255317853 -40.457822501098377 -17.581193895547042 #
straight-curve $-1 -59.888302255317853 0 -17.581193895547042 0 1 0 I I #
point $-1 -59.888302255317853 40.457822501098377 -17.581193895547042 #
straight-curve $-1 -59.888302255317853 -16.006865363376871 4.7465397058637286 0 -1 0 I I #
point $-1 -59.888302255317853 -40.457822501098377 4.7465397058637286 #
point $-1 -59.888302255317853 -23.569638952409107 4.7465397058637286 #
straight-curve $-1 -59.888302255317853 -23.569638952409107 3.5742069920263244 0 0 -1 I I #
straight-curve $-1 -59.888302255317853 -40.457822501098377 0 0 0 -1 I I #
point $-1 -59.888302255317853 23.569638952409115 4.7465397058637286 #
straight-curve $-1 -59.888302255317853 16.006865363376875 4.7465397058637286 0 -1 0 I I #
point $-1 -59.888302255317853 40.457822501098384 4.7465397058637286 #
straight-curve $-1 -59.888302255317853 40.457822501098377 0 0 0 -1 I I #
straight-curve $-1 47.553201661912183 3.5527136788005009e-015 17.581193895547045 -1 0 0 I I #
point $-1 59.888302255317853 3.5527136788005009e-015 17.581193895547042 #
straight-curve $-1 50.869797740338669 -2.9454545567621295 17.581193895547045 0 -1 0 I I #
point $-1 50.869797740338669 3.5527136788005009e-015 17.581193895547045 #
point $-1 53.210669232915805 -8.4155844478918027 9.2293912194566285 #
point $-1 53.210669232915805 -3.3662337791567154 9.2293912194566285 #
edge $-1 $591 -12.33510059340567 $585 -3.3165960784264854 $589 $644 forward 7 unknown #
straight-curve $-1 50.869797740338669 8.8393649194424242 17.581193895547045 0 -1 0 I I #
point $-1 50.869797740338669 23.569638952409111 17.581193895547045 #
straight-curve $-1 59.888302255317853 23.569638952409111 84.691020516040027 0 0 1 I I #
point $-1 59.888302255317853 23.569638952409111 17.581193895547042 #
point $-1 53.210669232915805 15.154054504517305 9.2293912194566285 #
point $-1 53.210669232915805 20.203405173252392 9.2293912194566285 #
straight-curve $-1 -65.145612427889787 23.569638952409107 17.581193895547038 -1 0 0 I I #
straight-curve $-1 -59.888302255317853 23.569638952409107 52.161255643583623 0 0 -1 I I #
point $-1 -59.888302255317853 23.569638952409115 7.4212033630188188 #
straight-curve $-1 -59.888302255317853 9.0571040418250846 7.4212033630188188 0 -1 0 I I #
point $-1 -59.888302255317853 23.569638952409107 17.581193895547042 #
point $-1 -50.547390003278352 15.776166282753479 9.2682169226868556 #
point $-1 -50.547390003278352 20.452249884546852 9.2682169226868556 #
straight-curve $-1 47.553201661912183 23.569638952409111 17.581193895547045 -1 0 0 I I #
End-of-ACIS-data 