500 0 18 0           
7 Unknown 11 ACIS 5.0 NT 24 Fri Mar 26 19:00:26 1999 
-1 9.9999999999999995e-007 1e-010 
body $-1 $18 $-1 $19 #
body $-1 $20 $-1 $21 #
body $-1 $22 $-1 $23 #
body $-1 $24 $-1 $25 #
body $-1 $26 $-1 $27 #
body $-1 $28 $-1 $29 #
body $-1 $30 $-1 $31 #
body $-1 $32 $-1 $33 #
body $-1 $34 $-1 $35 #
body $-1 $36 $-1 $37 #
body $-1 $38 $-1 $39 #
body $-1 $40 $-1 $41 #
body $-1 $42 $-1 $43 #
body $-1 $44 $-1 $45 #
body $-1 $46 $-1 $47 #
body $-1 $48 $-1 $49 #
body $-1 $50 $-1 $51 #
body $-1 $52 $-1 $53 #
lump $-1 $-1 $54 $0 #
transform $-1 1 0 0 0 1 0 0 0 1 55.320291756950589 35.901547416960788 10.74307268221205 1 rotate no_reflect no_shear #
lump $-1 $-1 $55 $1 #
transform $-1 1 0 0 0 1 0 0 0 1 55.320291756950589 35.901547416960788 10.74307268221205 1 rotate no_reflect no_shear #
lump $-1 $-1 $56 $2 #
transform $-1 1 0 0 0 1 0 0 0 1 55.320291756950589 35.901547416960788 10.74307268221205 1 rotate no_reflect no_shear #
lump $-1 $-1 $57 $3 #
transform $-1 1 0 0 0 1 0 0 0 1 55.320291756950589 35.901547416960788 10.74307268221205 1 rotate no_reflect no_shear #
lump $-1 $-1 $58 $4 #
transform $-1 1 0 0 0 1 0 0 0 1 55.320291756950589 35.901547416960788 10.74307268221205 1 rotate no_reflect no_shear #
lump $-1 $-1 $59 $5 #
transform $-1 1 0 0 0 1 0 0 0 1 55.320291756950589 35.901547416960788 10.74307268221205 1 rotate no_reflect no_shear #
lump $-1 $-1 $60 $6 #
transform $-1 1 0 0 0 1 0 0 0 1 55.320291756950589 35.901547416960788 10.74307268221205 1 rotate no_reflect no_shear #
lump $-1 $-1 $61 $7 #
transform $-1 1 0 0 0 1 0 0 0 1 55.320291756950589 35.901547416960788 10.74307268221205 1 rotate no_reflect no_shear #
lump $-1 $-1 $62 $8 #
transform $-1 1 0 0 0 1 0 0 0 1 55.320291756950589 35.901547416960788 10.74307268221205 1 rotate no_reflect no_shear #
lump $-1 $-1 $63 $9 #
transform $-1 1 0 0 0 1 0 0 0 1 55.320291756950589 35.901547416960788 10.74307268221205 1 rotate no_reflect no_shear #
lump $-1 $-1 $64 $10 #
transform $-1 1 0 0 0 1 0 0 0 1 55.320291756950589 35.901547416960788 10.74307268221205 1 rotate no_reflect no_shear #
lump $-1 $-1 $65 $11 #
transform $-1 1 0 0 0 1 0 0 0 1 55.320291756950589 35.901547416960788 10.74307268221205 1 rotate no_reflect no_shear #
lump $-1 $-1 $66 $12 #
transform $-1 1 0 0 0 1 0 0 0 1 55.320291756950589 35.901547416960788 10.74307268221205 1 rotate no_reflect no_shear #
lump $-1 $-1 $67 $13 #
transform $-1 1 0 0 0 1 0 0 0 1 55.320291756950589 35.901547416960788 10.74307268221205 1 rotate no_reflect no_shear #
lump $-1 $-1 $68 $14 #
transform $-1 1 0 0 0 1 0 0 0 1 55.320291756950589 35.901547416960788 10.74307268221205 1 rotate no_reflect no_shear #
lump $-1 $-1 $69 $15 #
transform $-1 1 0 0 0 1 0 0 0 1 55.320291756950589 35.901547416960788 10.74307268221205 1 rotate no_reflect no_shear #
lump $-1 $-1 $70 $16 #
transform $-1 1 0 0 0 1 0 0 0 1 55.320291756950589 35.901547416960788 10.74307268221205 1 rotate no_reflect no_shear #
lump $-1 $-1 $71 $17 #
transform $-1 1 0 0 0 1 0 0 0 1 55.320291756950589 35.901547416960788 10.74307268221205 1 rotate no_reflect no_shear #
shell $-1 $-1 $-1 $72 $-1 $18 #
shell $-1 $-1 $-1 $73 $-1 $20 #
shell $-1 $-1 $-1 $74 $-1 $22 #
shell $-1 $-1 $-1 $75 $-1 $24 #
shell $-1 $-1 $-1 $76 $-1 $26 #
shell $-1 $-1 $-1 $77 $-1 $28 #
shell $-1 $-1 $-1 $78 $-1 $30 #
shell $-1 $-1 $-1 $79 $-1 $32 #
shell $-1 $-1 $-1 $80 $-1 $34 #
shell $-1 $-1 $-1 $81 $-1 $36 #
shell $-1 $-1 $-1 $82 $-1 $38 #
shell $-1 $-1 $-1 $83 $-1 $40 #
shell $-1 $-1 $-1 $84 $-1 $42 #
shell $-1 $-1 $-1 $85 $-1 $44 #
shell $-1 $-1 $-1 $86 $-1 $46 #
shell $-1 $-1 $-1 $87 $-1 $48 #
shell $-1 $-1 $-1 $88 $-1 $50 #
shell $-1 $-1 $-1 $89 $-1 $52 #
face $-1 $90 $91 $54 $-1 $92 forward single #
face $-1 $93 $94 $55 $-1 $95 forward single #
face $-1 $96 $97 $56 $-1 $98 reversed single #
face $-1 $99 $100 $57 $-1 $101 forward single #
face $-1 $102 $103 $58 $-1 $104 forward single #
face $-1 $105 $106 $59 $-1 $107 forward single #
face $-1 $108 $109 $60 $-1 $110 reversed single #
face $-1 $111 $112 $61 $-1 $113 forward single #
face $-1 $114 $115 $62 $-1 $116 forward single #
face $-1 $117 $118 $63 $-1 $119 forward single #
face $-1 $120 $121 $64 $-1 $122 reversed single #
face $-1 $123 $124 $65 $-1 $125 forward single #
face $-1 $126 $127 $66 $-1 $128 forward single #
face $-1 $129 $130 $67 $-1 $131 forward single #
face $-1 $132 $133 $68 $-1 $134 reversed single #
face $-1 $135 $136 $69 $-1 $137 forward single #
face $-1 $138 $139 $70 $-1 $140 forward single #
face $-1 $141 $142 $71 $-1 $143 forward single #
face $-1 $144 $145 $54 $-1 $146 reversed single #
loop $-1 $-1 $147 $72 #
plane-surface $-1 0 0 10.74307268221205 0 0 1 1 0 0 forward_v I I I I #
face $-1 $148 $149 $55 $-1 $150 forward single #
loop $-1 $-1 $151 $73 #
plane-surface $-1 0 -35.901547416960788 0 0 1 0 0 0 1 forward_v I I I I #
face $-1 $152 $153 $56 $-1 $154 reversed single #
loop $-1 $-1 $155 $74 #
plane-surface $-1 -52.399948503373381 49.728438848613429 133.77537408656337 1 0 0 0 -0.62932039886446345 -0.77714595512881146 forward_v I I I I #
face $-1 $156 $157 $57 $-1 $158 forward single #
loop $-1 $159 $160 $75 #
cone-surface $-1 -49.327626944077025 30.552563510360798 6.2739268497176894 0 -0.62932039886446345 -0.77714595512881146 1 0 0 1 I I 0 1 1 forward I I I I #
face $-1 $161 $162 $58 $-1 $163 forward single #
loop $-1 $164 $165 $76 #
cone-surface $-1 -44.719144605132499 30.552563510360798 6.2739268497176894 0 -0.62932039886446345 -0.77714595512881146 1 0 0 1 I I 0 1 1 forward I I I I #
face $-1 $166 $167 $59 $-1 $168 forward single #
loop $-1 $169 $170 $77 #
cone-surface $-1 -40.110662266187973 30.552563510360798 6.2739268497176894 0 -0.62932039886446345 -0.77714595512881146 1 0 0 1 I I 0 1 1 forward I I I I #
face $-1 $171 $172 $60 $-1 $173 reversed single #
loop $-1 $-1 $174 $78 #
plane-surface $-1 -22.587185433285047 49.728438848613429 133.77537408656337 1 0 0 0 -0.62932039886446345 -0.77714595512881146 forward_v I I I I #
face $-1 $175 $176 $61 $-1 $177 forward single #
loop $-1 $178 $179 $79 #
cone-surface $-1 -19.514863873988695 30.552563510360798 6.2739268497176894 0 -0.62932039886446345 -0.77714595512881146 1 0 0 1 I I 0 1 1 forward I I I I #
face $-1 $180 $181 $62 $-1 $182 forward single #
loop $-1 $183 $184 $80 #
cone-surface $-1 -14.906381535044169 30.552563510360798 6.2739268497176894 0 -0.62932039886446345 -0.77714595512881146 1 0 0 1 I I 0 1 1 forward I I I I #
face $-1 $185 $186 $63 $-1 $187 forward single #
loop $-1 $188 $189 $81 #
cone-surface $-1 -10.297899196099642 30.552563510360798 6.2739268497176894 0 -0.62932039886446345 -0.77714595512881146 1 0 0 1 I I 0 1 1 forward I I I I #
face $-1 $190 $191 $64 $-1 $192 reversed single #
loop $-1 $-1 $193 $82 #
plane-surface $-1 7.2255776368032905 49.728438848613429 133.77537408656337 1 0 0 0 -0.62932039886446345 -0.77714595512881146 forward_v I I I I #
face $-1 $194 $195 $65 $-1 $196 forward single #
loop $-1 $197 $198 $83 #
cone-surface $-1 10.297899196099642 30.552563510360798 6.2739268497176894 0 -0.62932039886446345 -0.77714595512881146 1 0 0 1 I I 0 1 1 forward I I I I #
face $-1 $199 $200 $66 $-1 $201 forward single #
loop $-1 $202 $203 $84 #
cone-surface $-1 14.906381535044169 30.552563510360798 6.2739268497176894 0 -0.62932039886446345 -0.77714595512881146 1 0 0 1 I I 0 1 1 forward I I I I #
face $-1 $204 $205 $67 $-1 $206 forward single #
loop $-1 $207 $208 $85 #
cone-surface $-1 19.514863873988695 30.552563510360798 6.2739268497176894 0 -0.62932039886446345 -0.77714595512881146 1 0 0 1 I I 0 1 1 forward I I I I #
face $-1 $209 $210 $68 $-1 $211 reversed single #
loop $-1 $-1 $212 $86 #
plane-surface $-1 37.038340706891617 49.728438848613429 133.77537408656337 1 0 0 0 -0.62932039886446345 -0.77714595512881146 forward_v I I I I #
face $-1 $213 $214 $69 $-1 $215 forward single #
loop $-1 $216 $217 $87 #
cone-surface $-1 40.110662266187965 30.552563510360798 6.2739268497176894 0 -0.62932039886446345 -0.77714595512881146 1 0 0 1 I I 0 1 1 forward I I I I #
face $-1 $218 $219 $70 $-1 $220 forward single #
loop $-1 $221 $222 $88 #
cone-surface $-1 44.719144605132492 30.552563510360798 6.2739268497176894 0 -0.62932039886446345 -0.77714595512881146 1 0 0 1 I I 0 1 1 forward I I I I #
face $-1 $223 $224 $71 $-1 $225 forward single #
loop $-1 $226 $227 $89 #
cone-surface $-1 49.327626944077018 30.552563510360798 6.2739268497176894 0 -0.62932039886446345 -0.77714595512881146 1 0 0 1 I I 0 1 1 forward I I I I #
face $-1 $228 $229 $54 $-1 $230 reversed single #
loop $-1 $-1 $231 $90 #
plane-surface $-1 0 0 -10.74307268221205 0 0 1 1 0 0 forward_v I I I I #
coedge $-1 $232 $233 $234 $235 forward $91 $-1 #
face $-1 $236 $237 $55 $-1 $238 reversed single #
loop $-1 $-1 $239 $93 #
plane-surface $-1 0 0 10.74307268221205 0 0 1 1 0 0 forward_v I I I I #
coedge $-1 $240 $241 $242 $243 forward $94 $-1 #
face $-1 $244 $245 $56 $-1 $246 reversed single #
loop $-1 $-1 $247 $96 #
plane-surface $-1 -44.719144605132499 -19.899937298951833 47.791492135643608 0 0.62932039886446345 0.77714595512881146 1 0 0 forward_v I I I I #
coedge $-1 $248 $249 $250 $251 reversed $97 $-1 #
face $-1 $-1 $252 $57 $-1 $253 forward single #
loop $-1 $254 $255 $99 #
cone-surface $-1 -49.327626944077025 29.914168314033539 5.4855744532363477 0 -0.62932039886446345 -0.77714595512881146 0.5 0 0 1 I I -0.70710678118654746 0.70710678118654746 0.5 forward I I I I #
loop $-1 $-1 $256 $75 #
coedge $-1 $160 $160 $257 $258 reversed $100 $-1 #
face $-1 $-1 $259 $58 $-1 $260 forward single #
loop $-1 $261 $262 $102 #
cone-surface $-1 -44.719144605132499 29.914168314033539 5.4855744532363477 0 -0.62932039886446345 -0.77714595512881146 0.5 0 0 1 I I -0.70710678118654746 0.70710678118654746 0.5 forward I I I I #
loop $-1 $-1 $263 $76 #
coedge $-1 $165 $165 $264 $265 reversed $103 $-1 #
face $-1 $-1 $266 $59 $-1 $267 forward single #
loop $-1 $268 $269 $105 #
cone-surface $-1 -40.110662266187973 29.914168314033539 5.4855744532363477 0 -0.62932039886446345 -0.77714595512881146 0.5 0 0 1 I I -0.70710678118654746 0.70710678118654746 0.5 forward I I I I #
loop $-1 $-1 $270 $77 #
coedge $-1 $170 $170 $271 $272 reversed $106 $-1 #
face $-1 $273 $274 $60 $-1 $275 reversed single #
loop $-1 $-1 $276 $108 #
plane-surface $-1 -14.906381535044169 -19.899937298951833 47.791492135643608 0 0.62932039886446345 0.77714595512881146 1 0 0 forward_v I I I I #
coedge $-1 $277 $278 $279 $280 reversed $109 $-1 #
face $-1 $-1 $281 $61 $-1 $282 forward single #
loop $-1 $283 $284 $111 #
cone-surface $-1 -19.514863873988695 29.914168314033539 5.4855744532363477 0 -0.62932039886446345 -0.77714595512881146 0.5 0 0 1 I I -0.70710678118654746 0.70710678118654746 0.5 forward I I I I #
loop $-1 $-1 $285 $79 #
coedge $-1 $179 $179 $286 $287 reversed $112 $-1 #
face $-1 $-1 $288 $62 $-1 $289 forward single #
loop $-1 $290 $291 $114 #
cone-surface $-1 -14.906381535044169 29.914168314033539 5.4855744532363477 0 -0.62932039886446345 -0.77714595512881146 0.5 0 0 1 I I -0.70710678118654746 0.70710678118654746 0.5 forward I I I I #
loop $-1 $-1 $292 $80 #
coedge $-1 $184 $184 $293 $294 reversed $115 $-1 #
face $-1 $-1 $295 $63 $-1 $296 forward single #
loop $-1 $297 $298 $117 #
cone-surface $-1 -10.297899196099642 29.914168314033539 5.4855744532363477 0 -0.62932039886446345 -0.77714595512881146 0.5 0 0 1 I I -0.70710678118654746 0.70710678118654746 0.5 forward I I I I #
loop $-1 $-1 $299 $81 #
coedge $-1 $189 $189 $300 $301 reversed $118 $-1 #
face $-1 $302 $303 $64 $-1 $304 reversed single #
loop $-1 $-1 $305 $120 #
plane-surface $-1 14.906381535044169 -19.899937298951833 47.791492135643608 0 0.62932039886446345 0.77714595512881146 1 0 0 forward_v I I I I #
coedge $-1 $306 $307 $308 $309 reversed $121 $-1 #
face $-1 $-1 $310 $65 $-1 $311 forward single #
loop $-1 $312 $313 $123 #
cone-surface $-1 10.297899196099642 29.914168314033539 5.4855744532363477 0 -0.62932039886446345 -0.77714595512881146 0.5 0 0 1 I I -0.70710678118654746 0.70710678118654746 0.5 forward I I I I #
loop $-1 $-1 $314 $83 #
coedge $-1 $198 $198 $315 $316 reversed $124 $-1 #
face $-1 $-1 $317 $66 $-1 $318 forward single #
loop $-1 $319 $320 $126 #
cone-surface $-1 14.906381535044169 29.914168314033539 5.4855744532363477 0 -0.62932039886446345 -0.77714595512881146 0.5 0 0 1 I I -0.70710678118654746 0.70710678118654746 0.5 forward I I I I #
loop $-1 $-1 $321 $84 #
coedge $-1 $203 $203 $322 $323 reversed $127 $-1 #
face $-1 $-1 $324 $67 $-1 $325 forward single #
loop $-1 $326 $327 $129 #
cone-surface $-1 19.514863873988695 29.914168314033539 5.4855744532363477 0 -0.62932039886446345 -0.77714595512881146 0.5 0 0 1 I I -0.70710678118654746 0.70710678118654746 0.5 forward I I I I #
loop $-1 $-1 $328 $85 #
coedge $-1 $208 $208 $329 $330 reversed $130 $-1 #
face $-1 $331 $332 $68 $-1 $333 reversed single #
loop $-1 $-1 $334 $132 #
plane-surface $-1 44.719144605132492 -19.899937298951833 47.791492135643608 0 0.62932039886446345 0.77714595512881146 1 0 0 forward_v I I I I #
coedge $-1 $335 $336 $337 $338 reversed $133 $-1 #
face $-1 $-1 $339 $69 $-1 $340 forward single #
loop $-1 $341 $342 $135 #
cone-surface $-1 40.110662266187965 29.914168314033539 5.4855744532363477 0 -0.62932039886446345 -0.77714595512881146 0.5 0 0 1 I I -0.70710678118654746 0.70710678118654746 0.5 forward I I I I #
loop $-1 $-1 $343 $87 #
coedge $-1 $217 $217 $344 $345 reversed $136 $-1 #
face $-1 $-1 $346 $70 $-1 $347 forward single #
loop $-1 $348 $349 $138 #
cone-surface $-1 44.719144605132492 29.914168314033539 5.4855744532363477 0 -0.62932039886446345 -0.77714595512881146 0.5 0 0 1 I I -0.70710678118654746 0.70710678118654746 0.5 forward I I I I #
loop $-1 $-1 $350 $88 #
coedge $-1 $222 $222 $351 $352 reversed $139 $-1 #
face $-1 $-1 $353 $71 $-1 $354 forward single #
loop $-1 $355 $356 $141 #
cone-surface $-1 49.327626944077018 29.914168314033539 5.4855744532363477 0 -0.62932039886446345 -0.77714595512881146 0.5 0 0 1 I I -0.70710678118654746 0.70710678118654746 0.5 forward I I I I #
loop $-1 $-1 $357 $89 #
coedge $-1 $227 $227 $358 $359 reversed $142 $-1 #
face $-1 $360 $361 $54 $-1 $362 reversed single #
loop $-1 $-1 $363 $144 #
plane-surface $-1 0 -35.901547416960788 0 0 1 0 0 0 1 forward_v I I I I #
coedge $-1 $364 $365 $366 $367 forward $145 $-1 #
coedge $-1 $368 $147 $369 $370 forward $91 $-1 #
coedge $-1 $147 $368 $371 $372 forward $91 $-1 #
coedge $-1 $373 $374 $147 $235 reversed $375 $-1 #
edge $-1 $376 -35.901547416960788 $377 35.901547416960788 $234 $378 forward 7 unknown #
face $-1 $379 $380 $55 $-1 $381 reversed single #
loop $-1 $-1 $382 $148 #
plane-surface $-1 -55.320291756950589 0 0 1 0 0 0 0 -1 forward_v I I I I #
coedge $-1 $383 $384 $385 $386 forward $149 $-1 #
coedge $-1 $385 $151 $382 $387 reversed $94 $-1 #
coedge $-1 $151 $385 $388 $389 reversed $94 $-1 #
coedge $-1 $390 $391 $151 $243 reversed $380 $-1 #
edge $-1 $392 -55.320291756950589 $393 55.320291756950589 $242 $394 forward 7 unknown #
face $-1 $395 $396 $56 $-1 $397 reversed single #
loop $-1 $-1 $398 $152 #
plane-surface $-1 -37.038340706891617 49.728438848613429 133.77537408656337 -1 0 0 0 0.62932039886446345 0.77714595512881146 forward_v I I I I #
coedge $-1 $399 $400 $401 $402 reversed $153 $-1 #
coedge $-1 $249 $155 $403 $404 reversed $97 $-1 #
coedge $-1 $155 $248 $399 $405 reversed $97 $-1 #
coedge $-1 $401 $406 $155 $251 forward $407 $-1 #
edge $-1 $408 -11.037327992654074 $409 -0.98683017324413314 $250 $410 forward 7 unknown #
loop $-1 $-1 $257 $156 #
plane-surface $-1 -44.719144605132499 -19.899937298951833 47.791492135643608 0 0.62932039886446345 0.77714595512881146 1 0 0 forward_v I I I I #
loop $-1 $-1 $411 $99 #
coedge $-1 $255 $255 $256 $412 reversed $157 $-1 #
coedge $-1 $256 $256 $255 $412 forward $159 $-1 #
coedge $-1 $257 $257 $160 $258 forward $252 $-1 #
edge $-1 $413 -1.0130076459554845e-016 $413 6.2831853071796004 $257 $414 forward 7 unknown #
loop $-1 $-1 $264 $161 #
plane-surface $-1 -44.719144605132499 -19.899937298951833 47.791492135643608 0 0.62932039886446345 0.77714595512881146 1 0 0 forward_v I I I I #
loop $-1 $-1 $415 $102 #
coedge $-1 $262 $262 $263 $416 reversed $162 $-1 #
coedge $-1 $263 $263 $262 $416 forward $164 $-1 #
coedge $-1 $264 $264 $165 $265 forward $259 $-1 #
edge $-1 $417 -1.0130076459554845e-016 $417 6.2831853071796004 $264 $418 forward 7 unknown #
loop $-1 $-1 $271 $166 #
plane-surface $-1 -44.719144605132499 -19.899937298951833 47.791492135643608 0 0.62932039886446345 0.77714595512881146 1 0 0 forward_v I I I I #
loop $-1 $-1 $419 $105 #
coedge $-1 $269 $269 $270 $420 reversed $167 $-1 #
coedge $-1 $270 $270 $269 $420 forward $169 $-1 #
coedge $-1 $271 $271 $170 $272 forward $266 $-1 #
edge $-1 $421 -1.0130076459554845e-016 $421 6.2831853071796004 $271 $422 forward 7 unknown #
face $-1 $423 $424 $60 $-1 $425 forward single #
loop $-1 $-1 $426 $171 #
plane-surface $-1 -7.2255776368032905 49.728438848613429 133.77537408656337 -1 0 0 0 0.62932039886446345 0.77714595512881146 forward_v I I I I #
coedge $-1 $427 $428 $429 $430 reversed $172 $-1 #
coedge $-1 $278 $174 $431 $432 reversed $109 $-1 #
coedge $-1 $174 $277 $427 $433 reversed $109 $-1 #
coedge $-1 $429 $434 $174 $280 forward $424 $-1 #
edge $-1 $435 -11.037327992654074 $436 -0.98683017324413314 $279 $437 forward 7 unknown #
loop $-1 $-1 $286 $175 #
plane-surface $-1 -14.906381535044169 -19.899937298951833 47.791492135643608 0 0.62932039886446345 0.77714595512881146 1 0 0 forward_v I I I I #
loop $-1 $-1 $438 $111 #
coedge $-1 $284 $284 $285 $439 reversed $176 $-1 #
coedge $-1 $285 $285 $284 $439 forward $178 $-1 #
coedge $-1 $286 $286 $179 $287 forward $281 $-1 #
edge $-1 $440 -1.0130076459554845e-016 $440 6.2831853071796004 $286 $441 forward 7 unknown #
loop $-1 $-1 $293 $180 #
plane-surface $-1 -14.906381535044169 -19.899937298951833 47.791492135643608 0 0.62932039886446345 0.77714595512881146 1 0 0 forward_v I I I I #
loop $-1 $-1 $442 $114 #
coedge $-1 $291 $291 $292 $443 reversed $181 $-1 #
coedge $-1 $292 $292 $291 $443 forward $183 $-1 #
coedge $-1 $293 $293 $184 $294 forward $288 $-1 #
edge $-1 $444 -1.0130076459554845e-016 $444 6.2831853071796004 $293 $445 forward 7 unknown #
loop $-1 $-1 $300 $185 #
plane-surface $-1 -14.906381535044169 -19.899937298951833 47.791492135643608 0 0.62932039886446345 0.77714595512881146 1 0 0 forward_v I I I I #
loop $-1 $-1 $446 $117 #
coedge $-1 $298 $298 $299 $447 reversed $186 $-1 #
coedge $-1 $299 $299 $298 $447 forward $188 $-1 #
coedge $-1 $300 $300 $189 $301 forward $295 $-1 #
edge $-1 $448 -1.0130076459554845e-016 $448 6.2831853071796004 $300 $449 forward 7 unknown #
face $-1 $450 $451 $64 $-1 $452 forward single #
loop $-1 $-1 $453 $190 #
plane-surface $-1 22.587185433285047 49.728438848613429 133.77537408656337 -1 0 0 0 0.62932039886446345 0.77714595512881146 forward_v I I I I #
coedge $-1 $454 $455 $456 $457 reversed $191 $-1 #
coedge $-1 $307 $193 $458 $459 reversed $121 $-1 #
coedge $-1 $193 $306 $454 $460 reversed $121 $-1 #
coedge $-1 $456 $461 $193 $309 forward $451 $-1 #
edge $-1 $462 -11.037327992654074 $463 -0.98683017324413314 $308 $464 forward 7 unknown #
loop $-1 $-1 $315 $194 #
plane-surface $-1 14.906381535044169 -19.899937298951833 47.791492135643608 0 0.62932039886446345 0.77714595512881146 1 0 0 forward_v I I I I #
loop $-1 $-1 $465 $123 #
coedge $-1 $313 $313 $314 $466 reversed $195 $-1 #
coedge $-1 $314 $314 $313 $466 forward $197 $-1 #
coedge $-1 $315 $315 $198 $316 forward $310 $-1 #
edge $-1 $467 -1.0130076459554845e-016 $467 6.2831853071796004 $315 $468 forward 7 unknown #
loop $-1 $-1 $322 $199 #
plane-surface $-1 14.906381535044169 -19.899937298951833 47.791492135643608 0 0.62932039886446345 0.77714595512881146 1 0 0 forward_v I I I I #
loop $-1 $-1 $469 $126 #
coedge $-1 $320 $320 $321 $470 reversed $200 $-1 #
coedge $-1 $321 $321 $320 $470 forward $202 $-1 #
coedge $-1 $322 $322 $203 $323 forward $317 $-1 #
edge $-1 $471 -1.0130076459554845e-016 $471 6.2831853071796004 $322 $472 forward 7 unknown #
loop $-1 $-1 $329 $204 #
plane-surface $-1 14.906381535044169 -19.899937298951833 47.791492135643608 0 0.62932039886446345 0.77714595512881146 1 0 0 forward_v I I I I #
loop $-1 $-1 $473 $129 #
coedge $-1 $327 $327 $328 $474 reversed $205 $-1 #
coedge $-1 $328 $328 $327 $474 forward $207 $-1 #
coedge $-1 $329 $329 $208 $330 forward $324 $-1 #
edge $-1 $475 -1.0130076459554845e-016 $475 6.2831853071796004 $329 $476 forward 7 unknown #
face $-1 $477 $478 $68 $-1 $479 forward single #
loop $-1 $-1 $480 $209 #
plane-surface $-1 52.399948503373366 49.728438848613429 133.77537408656337 -1 0 0 0 0.62932039886446345 0.77714595512881146 forward_v I I I I #
coedge $-1 $481 $482 $483 $484 reversed $210 $-1 #
coedge $-1 $336 $212 $485 $486 reversed $133 $-1 #
coedge $-1 $212 $335 $481 $487 reversed $133 $-1 #
coedge $-1 $483 $488 $212 $338 forward $478 $-1 #
edge $-1 $489 -11.037327992654074 $490 -0.98683017324413314 $337 $491 forward 7 unknown #
loop $-1 $-1 $344 $213 #
plane-surface $-1 44.719144605132492 -19.899937298951833 47.791492135643608 0 0.62932039886446345 0.77714595512881146 1 0 0 forward_v I I I I #
loop $-1 $-1 $492 $135 #
coedge $-1 $342 $342 $343 $493 reversed $214 $-1 #
coedge $-1 $343 $343 $342 $493 forward $216 $-1 #
coedge $-1 $344 $344 $217 $345 forward $339 $-1 #
edge $-1 $494 -1.0130076459554845e-016 $494 6.2831853071796004 $344 $495 forward 7 unknown #
loop $-1 $-1 $351 $218 #
plane-surface $-1 44.719144605132492 -19.899937298951833 47.791492135643608 0 0.62932039886446345 0.77714595512881146 1 0 0 forward_v I I I I #
loop $-1 $-1 $496 $138 #
coedge $-1 $349 $349 $350 $497 reversed $219 $-1 #
coedge $-1 $350 $350 $349 $497 forward $221 $-1 #
coedge $-1 $351 $351 $222 $352 forward $346 $-1 #
edge $-1 $498 -1.0130076459554845e-016 $498 6.2831853071796004 $351 $499 forward 7 unknown #
loop $-1 $-1 $358 $223 #
plane-surface $-1 44.719144605132492 -19.899937298951833 47.791492135643608 0 0.62932039886446345 0.77714595512881146 1 0 0 forward_v I I I I #
loop $-1 $-1 $500 $141 #
coedge $-1 $356 $356 $357 $501 reversed $224 $-1 #
coedge $-1 $357 $357 $356 $501 forward $226 $-1 #
coedge $-1 $358 $358 $227 $359 forward $353 $-1 #
edge $-1 $502 -1.0130076459554845e-016 $502 6.2831853071796004 $358 $503 forward 7 unknown #
face $-1 $504 $505 $54 $-1 $506 reversed single #
loop $-1 $-1 $507 $228 #
plane-surface $-1 -55.320291756950589 0 0 1 0 0 0 0 -1 forward_v I I I I #
coedge $-1 $508 $371 $509 $510 forward $229 $-1 #
coedge $-1 $511 $231 $508 $512 forward $145 $-1 #
coedge $-1 $231 $511 $513 $514 forward $145 $-1 #
coedge $-1 $374 $373 $231 $367 reversed $375 $-1 #
edge $-1 $515 -35.901547416960788 $516 35.901547416960788 $366 $517 forward 7 unknown #
coedge $-1 $233 $232 $518 $519 forward $91 $-1 #
coedge $-1 $520 $521 $232 $370 reversed $505 $-1 #
edge $-1 $377 -55.320291756950589 $522 55.320291756950589 $369 $523 forward 7 unknown #
coedge $-1 $363 $524 $233 $372 reversed $229 $-1 #
edge $-1 $525 -55.320291756950589 $376 55.320291756950589 $371 $526 forward 7 unknown #
coedge $-1 $366 $234 $524 $527 forward $375 $-1 #
coedge $-1 $234 $366 $520 $528 reversed $375 $-1 #
loop $-1 $-1 $373 $504 #
vertex $-1 $235 $529 #
vertex $-1 $235 $530 #
straight-curve $-1 55.320291756950589 0 10.74307268221205 0 1 0 I I #
face $-1 $531 $532 $55 $-1 $533 reversed single #
loop $-1 $-1 $390 $236 #
plane-surface $-1 0 -42.394632743344204 7.7430726822120501 0 0 1 1 0 0 forward_v I I I I #
coedge $-1 $534 $535 $240 $387 forward $237 $-1 #
coedge $-1 $536 $239 $535 $537 forward $149 $-1 #
coedge $-1 $239 $536 $538 $539 forward $149 $-1 #
coedge $-1 $241 $240 $239 $386 reversed $94 $-1 #
edge $-1 $540 -55.320291756950589 $541 55.320291756950589 $239 $542 forward 7 unknown #
edge $-1 $541 -10.74307268221205 $393 -7.7430726822120501 $382 $543 forward 7 unknown #
coedge $-1 $538 $544 $241 $389 forward $545 $-1 #
edge $-1 $392 7.7430726822120501 $540 10.74307268221205 $388 $546 forward 7 unknown #
coedge $-1 $547 $242 $544 $548 forward $380 $-1 #
coedge $-1 $242 $547 $534 $549 forward $380 $-1 #
vertex $-1 $389 $550 #
vertex $-1 $387 $551 #
straight-curve $-1 0 -35.901547416960788 7.7430726822120501 -1 0 0 I I #
face $-1 $-1 $407 $56 $-1 $552 forward single #
loop $-1 $-1 $553 $244 #
plane-surface $-1 0 35.901547416960788 0 0 -1 0 0 0 -1 forward_v I I I I #
coedge $-1 $554 $555 $556 $557 reversed $245 $-1 #
coedge $-1 $558 $247 $249 $405 forward $153 $-1 #
coedge $-1 $247 $558 $554 $559 forward $153 $-1 #
coedge $-1 $556 $250 $247 $402 forward $407 $-1 #
edge $-1 $409 -30.040376200807131 $560 -14.678768404325368 $401 $561 forward 7 unknown #
coedge $-1 $562 $563 $248 $404 forward $396 $-1 #
edge $-1 $564 -64.283347188224511 $408 -56.144614361069635 $403 $565 forward 7 unknown #
edge $-1 $409 58.870520517499806 $564 71.803094833921591 $249 $566 forward 7 unknown #
coedge $-1 $250 $556 $562 $567 forward $407 $-1 #
loop $-1 $-1 $556 $395 #
vertex $-1 $404 $568 #
vertex $-1 $251 $569 #
straight-curve $-1 -52.399948503373381 24.864219424306715 10.743072682212052 0 -1 0 I I #
coedge $-1 $411 $411 $-1 $570 reversed $254 $-1 #
edge $-1 $571 0 $571 6.2831853071796004 $255 $572 forward 7 unknown #
vertex $-1 $258 $573 #
ellipse-curve $-1 -49.327626944077025 30.876298507255814 6.6737062686346116 0 0.62932039886446345 0.77714595512881146 1 0 0 1 I I #
coedge $-1 $415 $415 $-1 $574 reversed $261 $-1 #
edge $-1 $575 0 $575 6.2831853071796004 $262 $576 forward 7 unknown #
vertex $-1 $265 $577 #
ellipse-curve $-1 -44.719144605132499 30.876298507255814 6.6737062686346116 0 0.62932039886446345 0.77714595512881146 1 0 0 1 I I #
coedge $-1 $419 $419 $-1 $578 reversed $268 $-1 #
edge $-1 $579 0 $579 6.2831853071796004 $269 $580 forward 7 unknown #
vertex $-1 $272 $581 #
ellipse-curve $-1 -40.110662266187973 30.876298507255814 6.6737062686346116 0 0.62932039886446345 0.77714595512881146 1 0 0 1 I I #
face $-1 $-1 $582 $60 $-1 $583 reversed single #
loop $-1 $-1 $279 $273 #
plane-surface $-1 0 0 10.74307268221205 0 0 1 1 0 0 forward_v I I I I #
coedge $-1 $584 $585 $586 $587 reversed $274 $-1 #
coedge $-1 $588 $276 $278 $433 forward $172 $-1 #
coedge $-1 $276 $588 $584 $589 forward $172 $-1 #
coedge $-1 $586 $279 $276 $430 forward $424 $-1 #
edge $-1 $436 -15.133994665762962 $590 0.22761313071879385 $429 $591 forward 7 unknown #
coedge $-1 $592 $593 $277 $432 forward $582 $-1 #
edge $-1 $594 -64.283347188224511 $435 -56.144614361069635 $431 $595 forward 7 unknown #
edge $-1 $436 58.870520517499806 $594 71.803094833921591 $278 $596 forward 7 unknown #
coedge $-1 $279 $586 $592 $597 forward $424 $-1 #
vertex $-1 $280 $598 #
vertex $-1 $280 $599 #
straight-curve $-1 -22.587185433285047 24.864219424306715 10.743072682212052 0 -1 0 I I #
coedge $-1 $438 $438 $-1 $600 reversed $283 $-1 #
edge $-1 $601 0 $601 6.2831853071796004 $284 $602 forward 7 unknown #
vertex $-1 $287 $603 #
ellipse-curve $-1 -19.514863873988695 30.876298507255814 6.6737062686346116 0 0.62932039886446345 0.77714595512881146 1 0 0 1 I I #
coedge $-1 $442 $442 $-1 $604 reversed $290 $-1 #
edge $-1 $605 0 $605 6.2831853071796004 $291 $606 forward 7 unknown #
vertex $-1 $294 $607 #
ellipse-curve $-1 -14.906381535044169 30.876298507255814 6.6737062686346116 0 0.62932039886446345 0.77714595512881146 1 0 0 1 I I #
coedge $-1 $446 $446 $-1 $608 reversed $297 $-1 #
edge $-1 $609 0 $609 6.2831853071796004 $298 $610 forward 7 unknown #
vertex $-1 $301 $611 #
ellipse-curve $-1 -10.297899196099642 30.876298507255814 6.6737062686346116 0 0.62932039886446345 0.77714595512881146 1 0 0 1 I I #
face $-1 $-1 $612 $64 $-1 $613 reversed single #
loop $-1 $-1 $308 $302 #
plane-surface $-1 0 0 10.74307268221205 0 0 1 1 0 0 forward_v I I I I #
coedge $-1 $614 $615 $616 $617 reversed $303 $-1 #
coedge $-1 $618 $305 $307 $460 forward $191 $-1 #
coedge $-1 $305 $618 $614 $619 forward $191 $-1 #
coedge $-1 $616 $308 $305 $457 forward $451 $-1 #
edge $-1 $463 -0.22761313071879385 $620 15.133994665762962 $456 $621 forward 7 unknown #
coedge $-1 $622 $623 $306 $459 forward $612 $-1 #
edge $-1 $624 -64.283347188224511 $462 -56.144614361069635 $458 $625 forward 7 unknown #
edge $-1 $463 58.870520517499806 $624 71.803094833921591 $307 $626 forward 7 unknown #
coedge $-1 $308 $616 $622 $627 forward $451 $-1 #
vertex $-1 $309 $628 #
vertex $-1 $309 $629 #
straight-curve $-1 7.2255776368032905 24.864219424306715 10.743072682212052 0 -1 0 I I #
coedge $-1 $465 $465 $-1 $630 reversed $312 $-1 #
edge $-1 $631 0 $631 6.2831853071796004 $313 $632 forward 7 unknown #
vertex $-1 $316 $633 #
ellipse-curve $-1 10.297899196099642 30.876298507255814 6.6737062686346116 0 0.62932039886446345 0.77714595512881146 1 0 0 1 I I #
coedge $-1 $469 $469 $-1 $634 reversed $319 $-1 #
edge $-1 $635 0 $635 6.2831853071796004 $320 $636 forward 7 unknown #
vertex $-1 $323 $637 #
ellipse-curve $-1 14.906381535044169 30.876298507255814 6.6737062686346116 0 0.62932039886446345 0.77714595512881146 1 0 0 1 I I #
coedge $-1 $473 $473 $-1 $638 reversed $326 $-1 #
edge $-1 $639 0 $639 6.2831853071796004 $327 $640 forward 7 unknown #
vertex $-1 $330 $641 #
ellipse-curve $-1 19.514863873988695 30.876298507255814 6.6737062686346116 0 0.62932039886446345 0.77714595512881146 1 0 0 1 I I #
face $-1 $-1 $642 $68 $-1 $643 reversed single #
loop $-1 $-1 $337 $331 #
plane-surface $-1 0 0 10.74307268221205 0 0 1 1 0 0 forward_v I I I I #
coedge $-1 $644 $645 $646 $647 reversed $332 $-1 #
coedge $-1 $648 $334 $336 $487 forward $210 $-1 #
coedge $-1 $334 $648 $644 $649 forward $210 $-1 #
coedge $-1 $646 $337 $334 $484 forward $478 $-1 #
edge $-1 $490 14.678768404325371 $650 30.04037620080712 $483 $651 forward 7 unknown #
coedge $-1 $652 $653 $335 $486 forward $642 $-1 #
edge $-1 $654 -64.283347188224511 $489 -56.144614361069635 $485 $655 forward 7 unknown #
edge $-1 $490 58.870520517499806 $654 71.803094833921591 $336 $656 forward 7 unknown #
coedge $-1 $337 $646 $652 $657 forward $478 $-1 #
vertex $-1 $338 $658 #
vertex $-1 $338 $659 #
straight-curve $-1 37.038340706891617 24.864219424306715 10.743072682212052 0 -1 0 I I #
coedge $-1 $492 $492 $-1 $660 reversed $341 $-1 #
edge $-1 $661 0 $661 6.2831853071796004 $342 $662 forward 7 unknown #
vertex $-1 $345 $663 #
ellipse-curve $-1 40.110662266187965 30.876298507255814 6.6737062686346116 0 0.62932039886446345 0.77714595512881146 1 0 0 1 I I #
coedge $-1 $496 $496 $-1 $664 reversed $348 $-1 #
edge $-1 $665 0 $665 6.2831853071796004 $349 $666 forward 7 unknown #
vertex $-1 $352 $667 #
ellipse-curve $-1 44.719144605132492 30.876298507255814 6.6737062686346116 0 0.62932039886446345 0.77714595512881146 1 0 0 1 I I #
coedge $-1 $500 $500 $-1 $668 reversed $355 $-1 #
edge $-1 $669 0 $669 6.2831853071796004 $356 $670 forward 7 unknown #
vertex $-1 $359 $671 #
ellipse-curve $-1 49.327626944077018 30.876298507255814 6.6737062686346116 0 0.62932039886446345 0.77714595512881146 1 0 0 1 I I #
face $-1 $-1 $375 $54 $-1 $672 reversed single #
loop $-1 $-1 $520 $360 #
plane-surface $-1 0 35.901547416960788 0 0 -1 0 0 0 -1 forward_v I I I I #
coedge $-1 $673 $518 $521 $674 forward $361 $-1 #
coedge $-1 $524 $363 $364 $512 reversed $229 $-1 #
coedge $-1 $518 $673 $363 $510 reversed $361 $-1 #
edge $-1 $525 -10.74307268221205 $675 10.74307268221205 $509 $676 forward 7 unknown #
coedge $-1 $365 $364 $673 $677 forward $145 $-1 #
edge $-1 $516 -55.320291756950589 $675 55.320291756950589 $508 $678 forward 7 unknown #
coedge $-1 $521 $520 $365 $514 reversed $505 $-1 #
edge $-1 $679 -55.320291756950589 $515 55.320291756950589 $513 $680 forward 7 unknown #
vertex $-1 $367 $681 #
vertex $-1 $527 $682 #
straight-curve $-1 55.320291756950589 0 -10.74307268221205 0 -1 0 I I #
coedge $-1 $507 $509 $368 $519 reversed $361 $-1 #
edge $-1 $522 -35.901547416960788 $525 35.901547416960788 $518 $683 forward 7 unknown #
coedge $-1 $513 $369 $374 $528 forward $505 $-1 #
coedge $-1 $369 $513 $507 $674 reversed $505 $-1 #
vertex $-1 $370 $684 #
straight-curve $-1 0 35.901547416960788 10.74307268221205 -1 0 0 I I #
coedge $-1 $371 $508 $373 $527 reversed $229 $-1 #
vertex $-1 $519 $685 #
straight-curve $-1 0 -35.901547416960788 10.74307268221205 1 0 0 I I #
edge $-1 $376 -10.74307268221205 $516 10.74307268221205 $373 $686 forward 7 unknown #
edge $-1 $377 -10.74307268221205 $515 10.74307268221205 $374 $687 forward 7 unknown #
point $-1 55.320291756950589 -35.901547416960788 10.74307268221205 #
point $-1 55.320291756950589 35.901547416960788 10.74307268221205 #
face $-1 $-1 $545 $55 $-1 $688 reversed single #
loop $-1 $-1 $689 $379 #
plane-surface $-1 0 -48.887718069727619 9.2430726822120501 0 1 0 0 0 1 forward_v I I I I #
coedge $-1 $690 $382 $391 $549 reversed $237 $-1 #
coedge $-1 $382 $690 $383 $537 reversed $237 $-1 #
coedge $-1 $384 $383 $691 $692 forward $149 $-1 #
edge $-1 $541 35.901547416960788 $693 48.887718069727619 $535 $694 forward 7 unknown #
coedge $-1 $695 $388 $384 $539 reversed $545 $-1 #
edge $-1 $696 -48.887718069727619 $540 -35.901547416960788 $538 $697 forward 7 unknown #
vertex $-1 $389 $698 #
vertex $-1 $537 $699 #
straight-curve $-1 0 -35.901547416960788 10.74307268221205 -1 0 0 I I #
straight-curve $-1 -55.320291756950589 -35.901547416960788 0 0 0 -1 I I #
coedge $-1 $388 $695 $390 $548 reversed $545 $-1 #
loop $-1 $-1 $388 $531 #
straight-curve $-1 55.320291756950589 -35.901547416960788 0 0 0 1 I I #
coedge $-1 $391 $390 $700 $701 forward $380 $-1 #
edge $-1 $392 -6.4930853263834152 $702 6.4930853263834152 $544 $703 forward 7 unknown #
edge $-1 $704 -6.4930853263834152 $393 6.4930853263834152 $534 $705 forward 7 unknown #
point $-1 55.320291756950589 -35.901547416960788 7.7430726822120501 #
point $-1 -55.320291756950589 -35.901547416960788 7.7430726822120501 #
plane-surface $-1 0 0 10.74307268221205 0 0 1 1 0 0 forward_v I I I I #
coedge $-1 $563 $562 $555 $706 forward $396 $-1 #
coedge $-1 $555 $398 $400 $559 reversed $245 $-1 #
coedge $-1 $398 $554 $553 $706 reversed $245 $-1 #
coedge $-1 $406 $401 $398 $557 forward $407 $-1 #
edge $-1 $560 0.98683017324413314 $707 11.037327992654074 $556 $708 forward 7 unknown #
coedge $-1 $400 $399 $563 $709 reversed $153 $-1 #
edge $-1 $710 -71.803094833921591 $560 -58.870520517499806 $554 $711 forward 7 unknown #
vertex $-1 $402 $712 #
straight-curve $-1 -22.359572302566249 25.851049597550848 10.743072682212048 1 0 0 I I #
coedge $-1 $553 $403 $406 $567 reversed $396 $-1 #
coedge $-1 $403 $553 $558 $709 forward $396 $-1 #
vertex $-1 $404 $713 #
straight-curve $-1 -52.399948503373381 35.901547416960788 66.887687043281687 0 0 1 I I #
straight-curve $-1 -52.399948503373381 -19.899937298951833 47.791492135643608 0 0.77714595512881146 -0.62932039886446345 I I #
edge $-1 $707 37.038340706891617 $408 52.399948503373381 $562 $714 forward 7 unknown #
point $-1 -52.399948503373381 35.901547416960788 10.74307268221205 #
point $-1 -52.399948503373381 25.851049597550848 10.743072682212052 #
edge $-1 $715 1 $715 0 $411 $-1 forward 7 unknown #
vertex $-1 $412 $716 #
ellipse-curve $-1 -49.327626944077025 30.228828513465771 5.8741474308007531 0 0.62932039886446345 0.77714595512881146 1 0 0 1 I I #
point $-1 -48.327626944077025 30.876298507255825 6.6737062686346249 #
edge $-1 $717 1 $717 0 $415 $-1 forward 7 unknown #
vertex $-1 $416 $718 #
ellipse-curve $-1 -44.719144605132499 30.228828513465771 5.8741474308007531 0 0.62932039886446345 0.77714595512881146 1 0 0 1 I I #
point $-1 -43.719144605132499 30.876298507255825 6.6737062686346249 #
edge $-1 $719 1 $719 0 $419 $-1 forward 7 unknown #
vertex $-1 $420 $720 #
ellipse-curve $-1 -40.110662266187973 30.228828513465771 5.8741474308007531 0 0.62932039886446345 0.77714595512881146 1 0 0 1 I I #
point $-1 -39.110662266187973 30.876298507255825 6.6737062686346249 #
loop $-1 $-1 $431 $423 #
plane-surface $-1 0 35.901547416960788 0 0 -1 0 0 0 -1 forward_v I I I I #
coedge $-1 $585 $426 $428 $589 reversed $274 $-1 #
coedge $-1 $426 $584 $721 $722 reversed $274 $-1 #
coedge $-1 $434 $429 $426 $587 forward $424 $-1 #
edge $-1 $590 0.98683017324413314 $723 11.037327992654074 $586 $724 forward 7 unknown #
coedge $-1 $428 $427 $593 $725 reversed $172 $-1 #
edge $-1 $726 -71.803094833921591 $590 -58.870520517499806 $584 $727 forward 7 unknown #
vertex $-1 $430 $728 #
straight-curve $-1 -7.4531907675220843 25.851049597550848 10.743072682212048 1 0 0 I I #
coedge $-1 $721 $431 $434 $597 reversed $582 $-1 #
coedge $-1 $431 $721 $588 $725 forward $582 $-1 #
vertex $-1 $432 $729 #
straight-curve $-1 -22.587185433285047 35.901547416960788 66.887687043281687 0 0 1 I I #
straight-curve $-1 -22.587185433285047 -19.899937298951833 47.791492135643608 0 0.77714595512881146 -0.62932039886446345 I I #
edge $-1 $723 7.2255776368032905 $435 22.587185433285047 $592 $730 forward 7 unknown #
point $-1 -22.587185433285047 35.901547416960788 10.74307268221205 #
point $-1 -22.587185433285047 25.851049597550848 10.743072682212052 #
edge $-1 $731 1 $731 0 $438 $-1 forward 7 unknown #
vertex $-1 $439 $732 #
ellipse-curve $-1 -19.514863873988695 30.228828513465771 5.8741474308007531 0 0.62932039886446345 0.77714595512881146 1 0 0 1 I I #
point $-1 -18.514863873988695 30.876298507255825 6.6737062686346249 #
edge $-1 $733 1 $733 0 $442 $-1 forward 7 unknown #
vertex $-1 $443 $734 #
ellipse-curve $-1 -14.906381535044169 30.228828513465771 5.8741474308007531 0 0.62932039886446345 0.77714595512881146 1 0 0 1 I I #
point $-1 -13.906381535044169 30.876298507255825 6.6737062686346249 #
edge $-1 $735 1 $735 0 $446 $-1 forward 7 unknown #
vertex $-1 $447 $736 #
ellipse-curve $-1 -10.297899196099642 30.228828513465771 5.8741474308007531 0 0.62932039886446345 0.77714595512881146 1 0 0 1 I I #
point $-1 -9.2978991960996424 30.876298507255825 6.6737062686346249 #
loop $-1 $-1 $458 $450 #
plane-surface $-1 0 35.901547416960788 0 0 -1 0 0 0 -1 forward_v I I I I #
coedge $-1 $615 $453 $455 $619 reversed $303 $-1 #
coedge $-1 $453 $614 $737 $738 reversed $303 $-1 #
coedge $-1 $461 $456 $453 $617 forward $451 $-1 #
edge $-1 $620 0.98683017324413314 $739 11.037327992654074 $616 $740 forward 7 unknown #
coedge $-1 $455 $454 $623 $741 reversed $191 $-1 #
edge $-1 $742 -71.803094833921591 $620 -58.870520517499806 $614 $743 forward 7 unknown #
vertex $-1 $457 $744 #
straight-curve $-1 7.4531907675220843 25.851049597550848 10.743072682212048 1 0 0 I I #
coedge $-1 $737 $458 $461 $627 reversed $612 $-1 #
coedge $-1 $458 $737 $618 $741 forward $612 $-1 #
vertex $-1 $459 $745 #
straight-curve $-1 7.2255776368032905 35.901547416960788 66.887687043281687 0 0 1 I I #
straight-curve $-1 7.2255776368032905 -19.899937298951833 47.791492135643608 0 0.77714595512881146 -0.62932039886446345 I I #
edge $-1 $739 -22.587185433285047 $462 -7.2255776368032905 $622 $746 forward 7 unknown #
point $-1 7.2255776368032905 35.901547416960788 10.74307268221205 #
point $-1 7.2255776368032905 25.851049597550848 10.743072682212052 #
edge $-1 $747 1 $747 0 $465 $-1 forward 7 unknown #
vertex $-1 $466 $748 #
ellipse-curve $-1 10.297899196099642 30.228828513465771 5.8741474308007531 0 0.62932039886446345 0.77714595512881146 1 0 0 1 I I #
point $-1 11.297899196099642 30.876298507255825 6.6737062686346249 #
edge $-1 $749 1 $749 0 $469 $-1 forward 7 unknown #
vertex $-1 $470 $750 #
ellipse-curve $-1 14.906381535044169 30.228828513465771 5.8741474308007531 0 0.62932039886446345 0.77714595512881146 1 0 0 1 I I #
point $-1 15.906381535044169 30.876298507255825 6.6737062686346249 #
edge $-1 $751 1 $751 0 $473 $-1 forward 7 unknown #
vertex $-1 $474 $752 #
ellipse-curve $-1 19.514863873988695 30.228828513465771 5.8741474308007531 0 0.62932039886446345 0.77714595512881146 1 0 0 1 I I #
point $-1 20.514863873988695 30.876298507255825 6.6737062686346249 #
loop $-1 $-1 $485 $477 #
plane-surface $-1 0 35.901547416960788 0 0 -1 0 0 0 -1 forward_v I I I I #
coedge $-1 $645 $480 $482 $649 reversed $332 $-1 #
coedge $-1 $480 $644 $753 $754 reversed $332 $-1 #
coedge $-1 $488 $483 $480 $647 forward $478 $-1 #
edge $-1 $650 0.98683017324413314 $755 11.037327992654074 $646 $756 forward 7 unknown #
coedge $-1 $482 $481 $653 $757 reversed $210 $-1 #
edge $-1 $758 -71.803094833921591 $650 -58.870520517499806 $644 $759 forward 7 unknown #
vertex $-1 $484 $760 #
straight-curve $-1 22.359572302566246 25.851049597550848 10.743072682212048 1 0 0 I I #
coedge $-1 $753 $485 $488 $657 reversed $642 $-1 #
coedge $-1 $485 $753 $648 $757 forward $642 $-1 #
vertex $-1 $486 $761 #
straight-curve $-1 37.038340706891617 35.901547416960788 66.887687043281687 0 0 1 I I #
straight-curve $-1 37.038340706891617 -19.899937298951833 47.791492135643608 0 0.77714595512881146 -0.62932039886446345 I I #
edge $-1 $755 -52.399948503373366 $489 -37.038340706891617 $652 $762 forward 7 unknown #
point $-1 37.038340706891617 35.901547416960788 10.74307268221205 #
point $-1 37.038340706891617 25.851049597550848 10.743072682212052 #
edge $-1 $763 1 $763 0 $492 $-1 forward 7 unknown #
vertex $-1 $493 $764 #
ellipse-curve $-1 40.110662266187965 30.228828513465771 5.8741474308007531 0 0.62932039886446345 0.77714595512881146 1 0 0 1 I I #
point $-1 41.110662266187965 30.876298507255825 6.6737062686346249 #
edge $-1 $765 1 $765 0 $496 $-1 forward 7 unknown #
vertex $-1 $497 $766 #
ellipse-curve $-1 44.719144605132492 30.228828513465771 5.8741474308007531 0 0.62932039886446345 0.77714595512881146 1 0 0 1 I I #
point $-1 45.719144605132492 30.876298507255825 6.6737062686346249 #
edge $-1 $767 1 $767 0 $500 $-1 forward 7 unknown #
vertex $-1 $501 $768 #
ellipse-curve $-1 49.327626944077018 30.228828513465771 5.8741474308007531 0 0.62932039886446345 0.77714595512881146 1 0 0 1 I I #
point $-1 50.327626944077018 30.876298507255825 6.6737062686346249 #
plane-surface $-1 55.320291756950589 0 0 -1 0 0 0 0 1 forward_v I I I I #
coedge $-1 $509 $507 $511 $677 reversed $361 $-1 #
edge $-1 $522 -10.74307268221205 $679 10.74307268221205 $521 $769 forward 7 unknown #
vertex $-1 $677 $770 #
straight-curve $-1 -55.320291756950589 -35.901547416960788 0 0 0 -1 I I #
edge $-1 $675 -35.901547416960788 $679 35.901547416960788 $673 $771 forward 7 unknown #
straight-curve $-1 0 -35.901547416960788 -10.74307268221205 -1 0 0 I I #
vertex $-1 $514 $772 #
straight-curve $-1 0 35.901547416960788 -10.74307268221205 1 0 0 I I #
point $-1 55.320291756950589 35.901547416960788 -10.74307268221205 #
point $-1 55.320291756950589 -35.901547416960788 -10.74307268221205 #
straight-curve $-1 -55.320291756950589 0 10.74307268221205 0 -1 0 I I #
point $-1 -55.320291756950589 35.901547416960788 10.74307268221205 #
point $-1 -55.320291756950589 -35.901547416960788 10.74307268221205 #
straight-curve $-1 55.320291756950589 -35.901547416960788 0 0 0 -1 I I #
straight-curve $-1 55.320291756950589 35.901547416960788 0 0 0 -1 I I #
plane-surface $-1 55.320291756950589 0 0 -1 0 0 0 0 1 forward_v I I I I #
coedge $-1 $700 $691 $690 $773 forward $532 $-1 #
coedge $-1 $535 $534 $689 $773 reversed $237 $-1 #
coedge $-1 $689 $774 $536 $692 reversed $532 $-1 #
edge $-1 $693 -55.320291756950589 $696 55.320291756950589 $691 $775 forward 7 unknown #
vertex $-1 $537 $776 #
straight-curve $-1 -55.320291756950589 0 10.74307268221205 0 -1 0 I I #
coedge $-1 $544 $538 $774 $777 forward $545 $-1 #
vertex $-1 $539 $778 #
straight-curve $-1 55.320291756950589 0 10.74307268221205 0 1 0 I I #
point $-1 55.320291756950589 -35.901547416960788 10.74307268221205 #
point $-1 -55.320291756950589 -35.901547416960788 10.74307268221205 #
coedge $-1 $774 $689 $547 $701 reversed $532 $-1 #
edge $-1 $702 -55.320291756950589 $704 55.320291756950589 $700 $779 forward 7 unknown #
vertex $-1 $777 $780 #
straight-curve $-1 55.320291756950589 -42.394632743344204 7.7430726822120501 0 -1 0 I I #
vertex $-1 $549 $781 #
straight-curve $-1 -55.320291756950589 -42.394632743344204 7.7430726822120501 0 1 0 I I #
edge $-1 $707 56.144614361069635 $710 64.283347188224511 $553 $782 forward 7 unknown #
vertex $-1 $567 $783 #
straight-curve $-1 -37.038340706891617 24.864219424306715 10.743072682212052 0 1 0 I I #
edge $-1 $710 14.678768404325368 $564 30.040376200807131 $563 $784 forward 7 unknown #
vertex $-1 $709 $785 #
straight-curve $-1 -37.038340706891617 -19.899937298951833 47.791492135643608 0 -0.77714595512881146 0.62932039886446345 I I #
point $-1 -37.038340706891617 25.851049597550848 10.743072682212052 #
point $-1 -52.399948503373381 35.901547416960788 2.6043398550571766 #
straight-curve $-1 0 35.901547416960788 10.74307268221205 -1 0 0 I I #
vertex $-1 $570 $786 #
point $-1 -48.327626944077025 30.228828513465771 5.8741474308007531 #
vertex $-1 $574 $787 #
point $-1 -43.719144605132499 30.228828513465771 5.8741474308007531 #
vertex $-1 $578 $788 #
point $-1 -39.110662266187973 30.228828513465771 5.8741474308007531 #
coedge $-1 $593 $592 $585 $722 forward $582 $-1 #
edge $-1 $723 56.144614361069635 $726 64.283347188224511 $721 $789 forward 7 unknown #
vertex $-1 $597 $790 #
straight-curve $-1 -7.2255776368032905 24.864219424306715 10.743072682212052 0 1 0 I I #
edge $-1 $726 -0.22761313071879385 $594 15.133994665762962 $593 $791 forward 7 unknown #
vertex $-1 $725 $792 #
straight-curve $-1 -7.2255776368032905 -19.899937298951833 47.791492135643608 0 -0.77714595512881146 0.62932039886446345 I I #
point $-1 -7.2255776368032905 25.851049597550848 10.743072682212052 #
point $-1 -22.587185433285047 35.901547416960788 2.6043398550571766 #
straight-curve $-1 0 35.901547416960788 10.74307268221205 -1 0 0 I I #
vertex $-1 $600 $793 #
point $-1 -18.514863873988695 30.228828513465771 5.8741474308007531 #
vertex $-1 $604 $794 #
point $-1 -13.906381535044169 30.228828513465771 5.8741474308007531 #
vertex $-1 $608 $795 #
point $-1 -9.2978991960996424 30.228828513465771 5.8741474308007531 #
coedge $-1 $623 $622 $615 $738 forward $612 $-1 #
edge $-1 $739 56.144614361069635 $742 64.283347188224511 $737 $796 forward 7 unknown #
vertex $-1 $627 $797 #
straight-curve $-1 22.587185433285047 24.864219424306715 10.743072682212052 0 1 0 I I #
edge $-1 $742 -15.133994665762962 $624 0.22761313071879385 $623 $798 forward 7 unknown #
vertex $-1 $741 $799 #
straight-curve $-1 22.587185433285047 -19.899937298951833 47.791492135643608 0 -0.77714595512881146 0.62932039886446345 I I #
point $-1 22.587185433285047 25.851049597550848 10.743072682212052 #
point $-1 7.2255776368032905 35.901547416960788 2.6043398550571766 #
straight-curve $-1 0 35.901547416960788 10.74307268221205 -1 0 0 I I #
vertex $-1 $630 $800 #
point $-1 11.297899196099642 30.228828513465771 5.8741474308007531 #
vertex $-1 $634 $801 #
point $-1 15.906381535044169 30.228828513465771 5.8741474308007531 #
vertex $-1 $638 $802 #
point $-1 20.514863873988695 30.228828513465771 5.8741474308007531 #
coedge $-1 $653 $652 $645 $754 forward $642 $-1 #
edge $-1 $755 56.144614361069635 $758 64.283347188224511 $753 $803 forward 7 unknown #
vertex $-1 $657 $804 #
straight-curve $-1 52.399948503373366 24.864219424306715 10.743072682212052 0 1 0 I I #
edge $-1 $758 -30.04037620080712 $654 -14.678768404325371 $653 $805 forward 7 unknown #
vertex $-1 $757 $806 #
straight-curve $-1 52.399948503373366 -19.899937298951833 47.791492135643608 0 -0.77714595512881146 0.62932039886446345 I I #
point $-1 52.399948503373366 25.851049597550848 10.743072682212052 #
point $-1 37.038340706891617 35.901547416960788 2.6043398550571766 #
straight-curve $-1 0 35.901547416960788 10.74307268221205 -1 0 0 I I #
vertex $-1 $660 $807 #
point $-1 41.110662266187965 30.228828513465771 5.8741474308007531 #
vertex $-1 $664 $808 #
point $-1 45.719144605132492 30.228828513465771 5.8741474308007531 #
vertex $-1 $668 $809 #
point $-1 50.327626944077018 30.228828513465771 5.8741474308007531 #
straight-curve $-1 -55.320291756950589 35.901547416960788 0 0 0 -1 I I #
point $-1 -55.320291756950589 -35.901547416960788 -10.74307268221205 #
straight-curve $-1 -55.320291756950589 0 -10.74307268221205 0 1 0 I I #
point $-1 -55.320291756950589 35.901547416960788 -10.74307268221205 #
edge $-1 $693 -1.5 $704 1.5 $690 $810 forward 7 unknown #
coedge $-1 $691 $700 $695 $777 reversed $532 $-1 #
straight-curve $-1 0 -48.887718069727619 10.74307268221205 1 0 0 I I #
point $-1 -55.320291756950589 -48.887718069727619 10.74307268221205 #
edge $-1 $696 -1.5 $702 1.5 $695 $811 forward 7 unknown #
point $-1 55.320291756950589 -48.887718069727619 10.74307268221205 #
straight-curve $-1 0 -48.887718069727619 7.7430726822120501 -1 0 0 I I #
point $-1 55.320291756950589 -48.887718069727619 7.7430726822120501 #
point $-1 -55.320291756950589 -48.887718069727619 7.7430726822120501 #
straight-curve $-1 -37.038340706891617 35.901547416960788 66.887687043281687 0 0 -1 I I #
point $-1 -37.038340706891617 35.901547416960788 10.74307268221205 #
straight-curve $-1 -22.359572302566249 35.901547416960796 2.6043398550571766 -1 0 0 I I #
point $-1 -37.038340706891617 35.901547416960788 2.6043398550571766 #
point $-1 -49.327626944077025 29.599508114601306 5.0970014756719424 #
point $-1 -44.719144605132499 29.599508114601306 5.0970014756719424 #
point $-1 -40.110662266187973 29.599508114601306 5.0970014756719424 #
straight-curve $-1 -7.2255776368032905 35.901547416960788 66.887687043281687 0 0 -1 I I #
point $-1 -7.2255776368032905 35.901547416960788 10.74307268221205 #
straight-curve $-1 -7.4531907675220843 35.901547416960796 2.6043398550571766 -1 0 0 I I #
point $-1 -7.2255776368032905 35.901547416960788 2.6043398550571766 #
point $-1 -19.514863873988695 29.599508114601306 5.0970014756719424 #
point $-1 -14.906381535044169 29.599508114601306 5.0970014756719424 #
point $-1 -10.297899196099642 29.599508114601306 5.0970014756719424 #
straight-curve $-1 22.587185433285047 35.901547416960788 66.887687043281687 0 0 -1 I I #
point $-1 22.587185433285047 35.901547416960788 10.74307268221205 #
straight-curve $-1 7.4531907675220843 35.901547416960796 2.6043398550571766 -1 0 0 I I #
point $-1 22.587185433285047 35.901547416960788 2.6043398550571766 #
point $-1 10.297899196099642 29.599508114601306 5.0970014756719424 #
point $-1 14.906381535044169 29.599508114601306 5.0970014756719424 #
point $-1 19.514863873988695 29.599508114601306 5.0970014756719424 #
straight-curve $-1 52.399948503373366 35.901547416960788 66.887687043281687 0 0 -1 I I #
point $-1 52.399948503373366 35.901547416960788 10.74307268221205 #
straight-curve $-1 22.359572302566246 35.901547416960796 2.6043398550571766 -1 0 0 I I #
point $-1 52.399948503373366 35.901547416960788 2.6043398550571766 #
point $-1 40.110662266187965 29.599508114601306 5.0970014756719424 #
point $-1 44.719144605132492 29.599508114601306 5.0970014756719424 #
point $-1 49.327626944077018 29.599508114601306 5.0970014756719424 #
straight-curve $-1 -55.320291756950589 -48.887718069727619 9.2430726822120501 0 0 -1 I I #
straight-curve $-1 55.320291756950589 -48.887718069727619 9.2430726822120501 0 0 -1 I I #
End-of-ACIS-data 