500 0 7 0           
7 Unknown 11 ACIS 5.0 NT 24 Fri Mar 26 18:44:41 1999 
-1 9.9999999999999995e-007 1e-010 
body $-1 $7 $-1 $8 #
body $-1 $9 $-1 $10 #
body $-1 $11 $-1 $12 #
body $-1 $13 $-1 $14 #
body $-1 $15 $-1 $16 #
body $-1 $17 $-1 $18 #
body $-1 $19 $-1 $20 #
lump $-1 $-1 $21 $0 #
transform $-1 1 0 0 0 1 0 0 0 1 73.0344553971984 47.341447973431031 20.901060735118868 1 rotate no_reflect no_shear #
lump $-1 $-1 $22 $1 #
transform $-1 1 0 0 0 1 0 0 0 1 73.0344553971984 47.341447973431031 20.901060735118868 1 rotate no_reflect no_shear #
lump $-1 $-1 $23 $2 #
transform $-1 1 0 0 0 1 0 0 0 1 73.0344553971984 47.341447973431031 20.901060735118868 1 rotate no_reflect no_shear #
lump $-1 $-1 $24 $3 #
transform $-1 1 0 0 0 1 0 0 0 1 73.0344553971984 47.341447973431031 20.901060735118868 1 rotate no_reflect no_shear #
lump $-1 $-1 $25 $4 #
transform $-1 1 0 0 0 1 0 0 0 1 73.0344553971984 47.341447973431031 20.901060735118868 1 rotate no_reflect no_shear #
lump $-1 $-1 $26 $5 #
transform $-1 1 0 0 0 1 0 0 0 1 73.0344553971984 47.341447973431031 20.901060735118868 1 rotate no_reflect no_shear #
lump $-1 $-1 $27 $6 #
transform $-1 1 0 0 0 1 0 0 0 1 73.0344553971984 47.341447973431031 20.901060735118868 1 rotate no_reflect no_shear #
shell $-1 $-1 $-1 $28 $-1 $7 #
shell $-1 $-1 $-1 $29 $-1 $9 #
shell $-1 $-1 $-1 $30 $-1 $11 #
shell $-1 $-1 $-1 $31 $-1 $13 #
shell $-1 $-1 $-1 $32 $-1 $15 #
shell $-1 $-1 $-1 $33 $-1 $17 #
shell $-1 $-1 $-1 $34 $-1 $19 #
face $-1 $35 $36 $21 $-1 $37 forward single #
face $-1 $38 $39 $22 $-1 $40 reversed single #
face $-1 $41 $42 $23 $-1 $43 forward single #
face $-1 $44 $45 $24 $-1 $46 forward single #
face $-1 $47 $48 $25 $-1 $49 reversed single #
face $-1 $50 $51 $26 $-1 $52 forward single #
face $-1 $53 $54 $27 $-1 $55 forward single #
face $-1 $56 $57 $21 $-1 $58 reversed single #
loop $-1 $-1 $59 $28 #
plane-surface $-1 0 0 20.901060735118868 0 0 1 1 0 0 forward_v I I I I #
face $-1 $60 $61 $22 $-1 $62 reversed single #
loop $-1 $-1 $63 $29 #
plane-surface $-1 83.845634320191436 3.5527136788005009e-015 211.76632869525119 0 -1 0 -0.74314483375859142 0 -0.66913059716165679 forward_v I I I I #
face $-1 $64 $65 $23 $-1 $66 forward single #
loop $-1 $67 $68 $30 #
cone-surface $-1 65.435187084787842 -16.738309912417705 12.598953541326807 -0.74314483375859142 0 -0.66913059716165679 1.0036958957424851 0 -1.1147172506378871 1 I I 0 1 1.5 forward I I I I #
face $-1 $69 $70 $24 $-1 $71 forward single #
loop $-1 $72 $73 $31 #
cone-surface $-1 65.435187084787842 -6.6953239649670806 12.598953541326807 -0.74314483375859142 0 -0.66913059716165679 1.0036958957424851 0 -1.1147172506378871 1 I I 0 1 1.5 forward I I I I #
face $-1 $74 $75 $25 $-1 $76 reversed single #
loop $-1 $-1 $77 $32 #
plane-surface $-1 83.845634320191436 23.433633877384796 211.76632869525119 0 -1 0 -0.74314483375859142 0 -0.66913059716165679 forward_v I I I I #
face $-1 $78 $79 $26 $-1 $80 forward single #
loop $-1 $81 $82 $33 #
cone-surface $-1 65.435187084787842 6.6953239649670877 12.598953541326807 -0.74314483375859142 0 -0.66913059716165679 1.0036958957424851 0 -1.1147172506378871 1 I I 0 1 1.5 forward I I I I #
face $-1 $83 $84 $27 $-1 $85 forward single #
loop $-1 $86 $87 $34 #
cone-surface $-1 65.435187084787842 16.738309912417719 12.598953541326807 -0.74314483375859142 0 -0.66913059716165679 1.0036958957424851 0 -1.1147172506378871 1 I I 0 1 1.5 forward I I I I #
face $-1 $88 $89 $21 $-1 $90 reversed single #
loop $-1 $-1 $91 $35 #
plane-surface $-1 0 0 -20.901060735118868 0 0 1 1 0 0 forward_v I I I I #
coedge $-1 $92 $93 $94 $95 forward $36 $-1 #
face $-1 $96 $97 $22 $-1 $98 reversed single #
loop $-1 $-1 $99 $38 #
plane-surface $-1 -24.70472210940909 -11.716816938692389 114.02715118864369 0.74314483375859142 0 0.66913059716165679 0.66913059716165679 0 -0.74314483375859142 forward_v I I I I #
coedge $-1 $100 $101 $102 $103 reversed $39 $-1 #
face $-1 $-1 $104 $23 $-1 $105 forward single #
loop $-1 $106 $107 $41 #
cone-surface $-1 64.222595706824137 -16.738309912417705 11.507131387701357 -0.74314483375859142 0 -0.66913059716165679 0.50184794787124254 0 -0.55735862531894353 1 I I -0.70710678118654757 0.70710678118654757 0.75 forward I I I I #
loop $-1 $-1 $108 $30 #
coedge $-1 $68 $68 $109 $110 reversed $42 $-1 #
face $-1 $-1 $111 $24 $-1 $112 forward single #
loop $-1 $113 $114 $44 #
cone-surface $-1 64.222595706824137 -6.6953239649670806 11.507131387701357 -0.74314483375859142 0 -0.66913059716165679 0.50184794787124254 0 -0.55735862531894353 1 I I -0.70710678118654757 0.70710678118654757 0.75 forward I I I I #
loop $-1 $-1 $115 $31 #
coedge $-1 $73 $73 $116 $117 reversed $45 $-1 #
face $-1 $118 $119 $25 $-1 $120 reversed single #
loop $-1 $-1 $121 $47 #
plane-surface $-1 -24.70472210940909 -11.716816938692389 114.02715118864369 0.74314483375859142 0 0.66913059716165679 0.66913059716165679 0 -0.74314483375859142 forward_v I I I I #
coedge $-1 $122 $123 $124 $125 reversed $48 $-1 #
face $-1 $-1 $126 $26 $-1 $127 forward single #
loop $-1 $128 $129 $50 #
cone-surface $-1 64.222595706824137 6.6953239649670877 11.507131387701357 -0.74314483375859142 0 -0.66913059716165679 0.50184794787124254 0 -0.55735862531894353 1 I I -0.70710678118654757 0.70710678118654757 0.75 forward I I I I #
loop $-1 $-1 $130 $33 #
coedge $-1 $82 $82 $131 $132 reversed $51 $-1 #
face $-1 $-1 $133 $27 $-1 $134 forward single #
loop $-1 $135 $136 $53 #
cone-surface $-1 64.222595706824137 16.738309912417719 11.507131387701357 -0.74314483375859142 0 -0.66913059716165679 0.50184794787124254 0 -0.55735862531894353 1 I I -0.70710678118654757 0.70710678118654757 0.75 forward I I I I #
loop $-1 $-1 $137 $34 #
coedge $-1 $87 $87 $138 $139 reversed $54 $-1 #
face $-1 $140 $141 $21 $-1 $142 reversed single #
loop $-1 $-1 $143 $56 #
plane-surface $-1 0 -47.341447973431031 0 0 1 0 0 0 1 forward_v I I I I #
coedge $-1 $144 $145 $146 $147 forward $57 $-1 #
coedge $-1 $148 $59 $149 $150 forward $36 $-1 #
coedge $-1 $59 $148 $151 $152 forward $36 $-1 #
coedge $-1 $153 $154 $59 $95 reversed $155 $-1 #
edge $-1 $156 -47.341447973431031 $157 47.341447973431031 $94 $158 forward 7 unknown #
face $-1 $159 $160 $22 $-1 $161 forward single #
loop $-1 $-1 $162 $60 #
plane-surface $-1 83.845634320191436 -23.433633877384782 211.76632869525119 0 1 0 0.74314483375859142 0 0.66913059716165679 forward_v I I I I #
coedge $-1 $163 $164 $165 $166 reversed $61 $-1 #
coedge $-1 $101 $63 $167 $168 reversed $39 $-1 #
coedge $-1 $63 $100 $163 $169 reversed $39 $-1 #
coedge $-1 $165 $170 $63 $103 forward $160 $-1 #
edge $-1 $171 -31.111638237102682 $172 -17.223567117571164 $102 $173 forward 7 unknown #
loop $-1 $-1 $109 $64 #
plane-surface $-1 -24.70472210940909 -11.716816938692389 114.02715118864369 0.74314483375859142 0 0.66913059716165679 0.66913059716165679 0 -0.74314483375859142 forward_v I I I I #
loop $-1 $-1 $174 $41 #
coedge $-1 $107 $107 $108 $175 reversed $65 $-1 #
coedge $-1 $108 $108 $107 $175 forward $67 $-1 #
coedge $-1 $109 $109 $68 $110 forward $104 $-1 #
edge $-1 $176 0 $176 6.2831853071796004 $109 $177 forward 7 unknown #
loop $-1 $-1 $116 $69 #
plane-surface $-1 -24.70472210940909 -11.716816938692389 114.02715118864369 0.74314483375859142 0 0.66913059716165679 0.66913059716165679 0 -0.74314483375859142 forward_v I I I I #
loop $-1 $-1 $178 $44 #
coedge $-1 $114 $114 $115 $179 reversed $70 $-1 #
coedge $-1 $115 $115 $114 $179 forward $72 $-1 #
coedge $-1 $116 $116 $73 $117 forward $111 $-1 #
edge $-1 $180 0 $180 6.2831853071796004 $116 $181 forward 7 unknown #
face $-1 $182 $183 $25 $-1 $184 forward single #
loop $-1 $-1 $185 $74 #
plane-surface $-1 73.0344553971984 0 0 -1 0 0 0 0 1 forward_v I I I I #
coedge $-1 $186 $187 $188 $189 reversed $75 $-1 #
coedge $-1 $123 $77 $190 $191 reversed $48 $-1 #
coedge $-1 $77 $122 $192 $193 reversed $48 $-1 #
coedge $-1 $194 $185 $77 $125 forward $119 $-1 #
edge $-1 $195 -100.40636958858242 $196 -84.982103612506734 $124 $197 forward 7 unknown #
loop $-1 $-1 $131 $78 #
plane-surface $-1 -24.70472210940909 -11.716816938692389 114.02715118864369 0.74314483375859142 0 0.66913059716165679 0.66913059716165679 0 -0.74314483375859142 forward_v I I I I #
loop $-1 $-1 $198 $50 #
coedge $-1 $129 $129 $130 $199 reversed $79 $-1 #
coedge $-1 $130 $130 $129 $199 forward $81 $-1 #
coedge $-1 $131 $131 $82 $132 forward $126 $-1 #
edge $-1 $200 0 $200 6.2831853071796004 $131 $201 forward 7 unknown #
loop $-1 $-1 $138 $83 #
plane-surface $-1 -24.70472210940909 -11.716816938692389 114.02715118864369 0.74314483375859142 0 0.66913059716165679 0.66913059716165679 0 -0.74314483375859142 forward_v I I I I #
loop $-1 $-1 $202 $53 #
coedge $-1 $136 $136 $137 $203 reversed $84 $-1 #
coedge $-1 $137 $137 $136 $203 forward $86 $-1 #
coedge $-1 $138 $138 $87 $139 forward $133 $-1 #
edge $-1 $204 0 $204 6.2831853071796004 $138 $205 forward 7 unknown #
face $-1 $206 $207 $21 $-1 $208 reversed single #
loop $-1 $-1 $209 $88 #
plane-surface $-1 -73.0344553971984 0 0 1 0 0 0 0 -1 forward_v I I I I #
coedge $-1 $210 $151 $211 $212 forward $89 $-1 #
coedge $-1 $213 $91 $210 $214 forward $57 $-1 #
coedge $-1 $91 $213 $215 $216 forward $57 $-1 #
coedge $-1 $154 $153 $91 $147 reversed $155 $-1 #
edge $-1 $217 -47.341447973431031 $218 47.341447973431031 $146 $219 forward 7 unknown #
coedge $-1 $93 $92 $220 $221 forward $36 $-1 #
coedge $-1 $222 $223 $92 $150 reversed $207 $-1 #
edge $-1 $157 -73.0344553971984 $224 73.0344553971984 $149 $225 forward 7 unknown #
coedge $-1 $143 $226 $93 $152 reversed $89 $-1 #
edge $-1 $227 -73.0344553971984 $156 73.0344553971984 $151 $228 forward 7 unknown #
coedge $-1 $146 $94 $226 $229 forward $155 $-1 #
coedge $-1 $94 $146 $222 $230 reversed $155 $-1 #
loop $-1 $-1 $153 $206 #
vertex $-1 $95 $231 #
vertex $-1 $95 $232 #
straight-curve $-1 73.0344553971984 0 20.901060735118868 0 1 0 I I #
face $-1 $-1 $233 $22 $-1 $234 reversed single #
loop $-1 $-1 $102 $96 #
plane-surface $-1 0 0 20.901060735118868 0 0 1 1 0 0 forward_v I I I I #
coedge $-1 $235 $236 $237 $238 reversed $97 $-1 #
coedge $-1 $239 $99 $101 $169 forward $61 $-1 #
coedge $-1 $99 $239 $235 $240 forward $61 $-1 #
coedge $-1 $237 $102 $99 $166 forward $160 $-1 #
edge $-1 $172 -5.8584084693461982 $241 17.575225408038587 $165 $242 forward 7 unknown #
coedge $-1 $243 $244 $100 $168 forward $233 $-1 #
edge $-1 $245 -100.40636958858242 $171 -84.982103612506734 $167 $246 forward 7 unknown #
edge $-1 $172 125.31351389812201 $245 146.06891079439674 $101 $247 forward 7 unknown #
coedge $-1 $102 $237 $243 $248 forward $160 $-1 #
vertex $-1 $168 $249 #
vertex $-1 $103 $250 #
straight-curve $-1 41.922817160095718 3.5527136788005009e-015 20.901060735118875 -1 0 0 I I #
coedge $-1 $174 $174 $-1 $251 reversed $106 $-1 #
edge $-1 $252 0 $252 6.2831853071796004 $107 $253 forward 7 unknown #
vertex $-1 $110 $254 #
ellipse-curve $-1 66.09041983743262 -16.738309912417705 13.188927747081031 0.74314483375859142 0 0.66913059716165679 1.0036958957424851 0 -1.1147172506378871 1 I I #
coedge $-1 $178 $178 $-1 $255 reversed $113 $-1 #
edge $-1 $256 0 $256 6.2831853071796004 $114 $257 forward 7 unknown #
vertex $-1 $117 $258 #
ellipse-curve $-1 66.09041983743262 -6.6953239649670806 13.188927747081031 0.74314483375859142 0 0.66913059716165679 1.0036958957424851 0 -1.1147172506378871 1 I I #
face $-1 $-1 $259 $25 $-1 $260 forward single #
loop $-1 $-1 $261 $118 #
plane-surface $-1 83.845634320191436 3.5527136788005009e-015 211.76632869525119 0 -1 0 -0.74314483375859142 0 -0.66913059716165679 forward_v I I I I #
coedge $-1 $124 $262 $187 $263 forward $119 $-1 #
coedge $-1 $190 $121 $264 $265 reversed $75 $-1 #
coedge $-1 $121 $190 $185 $263 reversed $75 $-1 #
coedge $-1 $266 $261 $121 $189 forward $183 $-1 #
edge $-1 $267 125.31351389812201 $268 146.06891079439674 $188 $269 forward 7 unknown #
coedge $-1 $187 $186 $122 $191 forward $75 $-1 #
edge $-1 $270 125.31351389812201 $195 146.06891079439674 $122 $271 forward 7 unknown #
coedge $-1 $264 $272 $123 $193 forward $259 $-1 #
edge $-1 $196 -31.111638237102682 $270 -17.223567117571164 $192 $273 forward 7 unknown #
coedge $-1 $262 $124 $272 $274 reversed $119 $-1 #
vertex $-1 $125 $275 #
vertex $-1 $125 $276 #
straight-curve $-1 73.0344553971984 23.433633877384796 105.88316434762559 0 0 1 I I #
coedge $-1 $198 $198 $-1 $277 reversed $128 $-1 #
edge $-1 $278 0 $278 6.2831853071796004 $129 $279 forward 7 unknown #
vertex $-1 $132 $280 #
ellipse-curve $-1 66.09041983743262 6.6953239649670877 13.188927747081031 0.74314483375859142 0 0.66913059716165679 1.0036958957424851 0 -1.1147172506378871 1 I I #
coedge $-1 $202 $202 $-1 $281 reversed $135 $-1 #
edge $-1 $282 0 $282 6.2831853071796004 $136 $283 forward 7 unknown #
vertex $-1 $139 $284 #
ellipse-curve $-1 66.09041983743262 16.738309912417719 13.188927747081031 0.74314483375859142 0 0.66913059716165679 1.0036958957424851 0 -1.1147172506378871 1 I I #
face $-1 $-1 $155 $21 $-1 $285 reversed single #
loop $-1 $-1 $222 $140 #
plane-surface $-1 0 47.341447973431031 0 0 -1 0 0 0 -1 forward_v I I I I #
coedge $-1 $286 $220 $223 $287 forward $141 $-1 #
coedge $-1 $226 $143 $144 $214 reversed $89 $-1 #
coedge $-1 $220 $286 $143 $212 reversed $141 $-1 #
edge $-1 $227 -20.901060735118868 $288 20.901060735118868 $211 $289 forward 7 unknown #
coedge $-1 $145 $144 $286 $290 forward $57 $-1 #
edge $-1 $218 -73.0344553971984 $288 73.0344553971984 $210 $291 forward 7 unknown #
coedge $-1 $223 $222 $145 $216 reversed $207 $-1 #
edge $-1 $292 -73.0344553971984 $217 73.0344553971984 $215 $293 forward 7 unknown #
vertex $-1 $147 $294 #
vertex $-1 $229 $295 #
straight-curve $-1 73.0344553971984 0 -20.901060735118868 0 -1 0 I I #
coedge $-1 $209 $211 $148 $221 reversed $141 $-1 #
edge $-1 $224 -47.341447973431031 $227 47.341447973431031 $220 $296 forward 7 unknown #
coedge $-1 $215 $149 $154 $230 forward $207 $-1 #
coedge $-1 $149 $215 $209 $287 reversed $207 $-1 #
vertex $-1 $150 $297 #
straight-curve $-1 0 47.341447973431031 20.901060735118868 -1 0 0 I I #
coedge $-1 $151 $210 $153 $229 reversed $89 $-1 #
vertex $-1 $221 $298 #
straight-curve $-1 0 -47.341447973431031 20.901060735118868 1 0 0 I I #
edge $-1 $156 -20.901060735118868 $218 20.901060735118868 $153 $299 forward 7 unknown #
edge $-1 $157 -20.901060735118868 $217 20.901060735118868 $154 $300 forward 7 unknown #
point $-1 73.0344553971984 -47.341447973431031 20.901060735118868 #
point $-1 73.0344553971984 47.341447973431031 20.901060735118868 #
loop $-1 $-1 $167 $159 #
plane-surface $-1 73.0344553971984 0 0 -1 0 0 0 0 1 forward_v I I I I #
coedge $-1 $236 $162 $164 $240 reversed $97 $-1 #
coedge $-1 $162 $235 $301 $302 reversed $97 $-1 #
coedge $-1 $170 $165 $162 $238 forward $160 $-1 #
edge $-1 $241 17.223567117571164 $303 31.111638237102682 $237 $304 forward 7 unknown #
coedge $-1 $164 $163 $244 $305 reversed $61 $-1 #
edge $-1 $306 -146.06891079439674 $241 -125.31351389812201 $235 $307 forward 7 unknown #
vertex $-1 $166 $308 #
straight-curve $-1 59.146384277666861 -5.8584084693461946 20.901060735118868 0 -1 0 I I #
coedge $-1 $301 $167 $170 $248 reversed $233 $-1 #
coedge $-1 $167 $301 $239 $305 forward $233 $-1 #
vertex $-1 $168 $309 #
straight-curve $-1 73.0344553971984 3.5527136788005009e-015 105.88316434762559 0 0 1 I I #
straight-curve $-1 -24.70472210940909 3.5527136788005009e-015 114.02715118864369 0.66913059716165679 0 -0.74314483375859142 I I #
edge $-1 $303 -23.433633877384782 $171 3.5527136788005009e-015 $243 $310 forward 7 unknown #
point $-1 73.0344553971984 3.5527136788005009e-015 20.901060735118868 #
point $-1 59.146384277666883 3.5527136788005009e-015 20.901060735118861 #
edge $-1 $311 1 $311 0 $174 $-1 forward 7 unknown #
vertex $-1 $175 $312 #
ellipse-curve $-1 64.779954332143078 -16.738309912417705 12.008979335572599 0.74314483375859142 0 0.66913059716165679 1.0036958957424851 0 -1.1147172506378871 1 I I #
point $-1 67.094115733175101 -16.738309912417705 12.074210496443127 #
edge $-1 $313 1 $313 0 $178 $-1 forward 7 unknown #
vertex $-1 $179 $314 #
ellipse-curve $-1 64.779954332143078 -6.6953239649670806 12.008979335572599 0.74314483375859142 0 0.66913059716165679 1.0036958957424851 0 -1.1147172506378871 1 I I #
point $-1 67.094115733175101 -6.6953239649670806 12.074210496443127 #
loop $-1 $-1 $264 $182 #
plane-surface $-1 0 0 20.901060735118868 0 0 1 1 0 0 forward_v I I I I #
coedge $-1 $188 $266 $315 $316 reversed $183 $-1 #
coedge $-1 $185 $194 $266 $317 forward $119 $-1 #
edge $-1 $268 5.8584084693461982 $195 29.292042346730991 $185 $318 forward 7 unknown #
coedge $-1 $315 $192 $186 $265 forward $259 $-1 #
edge $-1 $270 -29.292042346730991 $267 -5.8584084693461982 $264 $319 forward 7 unknown #
coedge $-1 $261 $188 $262 $317 reversed $183 $-1 #
vertex $-1 $265 $320 #
vertex $-1 $263 $321 #
straight-curve $-1 -24.70472210940909 3.5527136788005009e-015 114.02715118864369 0.66913059716165679 0 -0.74314483375859142 I I #
vertex $-1 $193 $322 #
straight-curve $-1 -24.70472210940909 23.433633877384796 114.02715118864369 0.66913059716165679 0 -0.74314483375859142 I I #
coedge $-1 $192 $315 $194 $274 forward $259 $-1 #
straight-curve $-1 41.922817160095718 23.433633877384796 20.901060735118875 -1 0 0 I I #
edge $-1 $323 3.5527136788005009e-015 $196 23.433633877384796 $194 $324 forward 7 unknown #
point $-1 73.0344553971984 23.433633877384796 5.4767947590431731 #
point $-1 73.0344553971984 23.433633877384796 20.901060735118868 #
edge $-1 $325 1 $325 0 $198 $-1 forward 7 unknown #
vertex $-1 $199 $326 #
ellipse-curve $-1 64.779954332143078 6.6953239649670877 12.008979335572599 0.74314483375859142 0 0.66913059716165679 1.0036958957424851 0 -1.1147172506378871 1 I I #
point $-1 67.094115733175101 6.6953239649670877 12.074210496443127 #
edge $-1 $327 1 $327 0 $202 $-1 forward 7 unknown #
vertex $-1 $203 $328 #
ellipse-curve $-1 64.779954332143078 16.738309912417719 12.008979335572599 0.74314483375859142 0 0.66913059716165679 1.0036958957424851 0 -1.1147172506378871 1 I I #
point $-1 67.094115733175101 16.738309912417719 12.074210496443127 #
plane-surface $-1 73.0344553971984 0 0 -1 0 0 0 0 1 forward_v I I I I #
coedge $-1 $211 $209 $213 $290 reversed $141 $-1 #
edge $-1 $224 -20.901060735118868 $292 20.901060735118868 $223 $329 forward 7 unknown #
vertex $-1 $290 $330 #
straight-curve $-1 -73.0344553971984 -47.341447973431031 0 0 0 -1 I I #
edge $-1 $288 -47.341447973431031 $292 47.341447973431031 $286 $331 forward 7 unknown #
straight-curve $-1 0 -47.341447973431031 -20.901060735118868 -1 0 0 I I #
vertex $-1 $216 $332 #
straight-curve $-1 0 47.341447973431031 -20.901060735118868 1 0 0 I I #
point $-1 73.0344553971984 47.341447973431031 -20.901060735118868 #
point $-1 73.0344553971984 -47.341447973431031 -20.901060735118868 #
straight-curve $-1 -73.0344553971984 0 20.901060735118868 0 -1 0 I I #
point $-1 -73.0344553971984 47.341447973431031 20.901060735118868 #
point $-1 -73.0344553971984 -47.341447973431031 20.901060735118868 #
straight-curve $-1 73.0344553971984 -47.341447973431031 0 0 0 -1 I I #
straight-curve $-1 73.0344553971984 47.341447973431031 0 0 0 -1 I I #
coedge $-1 $244 $243 $236 $302 forward $233 $-1 #
edge $-1 $303 84.982103612506734 $306 100.40636958858242 $301 $333 forward 7 unknown #
vertex $-1 $248 $334 #
straight-curve $-1 41.922817160095718 -23.433633877384782 20.901060735118875 1 0 0 I I #
edge $-1 $306 -17.575225408038587 $245 5.8584084693461982 $244 $335 forward 7 unknown #
vertex $-1 $305 $336 #
straight-curve $-1 -24.70472210940909 -23.433633877384782 114.02715118864369 -0.66913059716165679 0 0.74314483375859142 I I #
point $-1 59.146384277666883 -23.433633877384782 20.901060735118861 #
point $-1 73.0344553971984 3.5527136788005009e-015 5.4767947590431731 #
straight-curve $-1 73.0344553971984 0 20.901060735118868 0 1 0 I I #
vertex $-1 $251 $337 #
point $-1 65.783650227885559 -16.738309912417705 10.894262084934713 #
vertex $-1 $255 $338 #
point $-1 65.783650227885559 -6.6953239649670806 10.894262084934713 #
coedge $-1 $272 $264 $261 $316 forward $259 $-1 #
edge $-1 $267 17.223567117571164 $323 31.111638237102682 $315 $339 forward 7 unknown #
edge $-1 $323 84.982103612506734 $268 100.40636958858242 $262 $340 forward 7 unknown #
straight-curve $-1 73.034455397198414 -5.8584084693461946 5.4767947590431589 0 1 0 I I #
straight-curve $-1 59.146384277666861 -5.8584084693461946 20.901060735118868 0 -1 0 I I #
point $-1 59.146384277666883 3.5527136788005009e-015 20.901060735118861 #
point $-1 73.0344553971984 3.5527136788005009e-015 5.4767947590431731 #
point $-1 59.146384277666883 23.433633877384796 20.901060735118861 #
vertex $-1 $274 $341 #
straight-curve $-1 73.0344553971984 0 20.901060735118868 0 1 0 I I #
vertex $-1 $277 $342 #
point $-1 65.783650227885559 6.6953239649670877 10.894262084934713 #
vertex $-1 $281 $343 #
point $-1 65.783650227885559 16.738309912417719 10.894262084934713 #
straight-curve $-1 -73.0344553971984 47.341447973431031 0 0 0 -1 I I #
point $-1 -73.0344553971984 -47.341447973431031 -20.901060735118868 #
straight-curve $-1 -73.0344553971984 0 -20.901060735118868 0 1 0 I I #
point $-1 -73.0344553971984 47.341447973431031 -20.901060735118868 #
straight-curve $-1 73.0344553971984 -23.433633877384782 105.88316434762559 0 0 -1 I I #
point $-1 73.0344553971984 -23.433633877384782 20.901060735118868 #
straight-curve $-1 73.034455397198414 -5.8584084693461946 5.4767947590431589 0 1 0 I I #
point $-1 73.0344553971984 -23.433633877384782 5.4767947590431731 #
point $-1 63.665237081505197 -16.738309912417705 11.005283439830114 #
point $-1 63.665237081505197 -6.6953239649670806 11.005283439830114 #
straight-curve $-1 41.922817160095718 3.5527136788005009e-015 20.901060735118875 1 0 0 I I #
straight-curve $-1 73.0344553971984 3.5527136788005009e-015 105.88316434762559 0 0 -1 I I #
point $-1 73.0344553971984 3.5527136788005009e-015 20.901060735118868 #
point $-1 63.665237081505197 6.6953239649670877 11.005283439830114 #
point $-1 63.665237081505197 16.738309912417719 11.005283439830114 #
End-of-ACIS-data 