500 0 9 0           
7 Unknown 11 ACIS 5.0 NT 24 Fri Mar 26 16:12:58 1999 
-1 9.9999999999999995e-007 1e-010 
body $-1 $9 $-1 $10 #
body $-1 $11 $-1 $12 #
body $-1 $13 $-1 $14 #
body $-1 $15 $-1 $16 #
body $-1 $17 $-1 $18 #
body $-1 $19 $-1 $20 #
body $-1 $21 $-1 $22 #
body $-1 $23 $-1 $24 #
body $-1 $25 $-1 $26 #
lump $-1 $-1 $27 $0 #
transform $-1 1 0 0 0 1 0 0 0 1 59.049653614917446 38.436428177469047 17.381260857559361 1 rotate no_reflect no_shear #
lump $-1 $-1 $28 $1 #
transform $-1 1 0 0 0 1 0 0 0 1 59.049653614917446 38.436428177469047 17.381260857559361 1 rotate no_reflect no_shear #
lump $-1 $-1 $29 $2 #
transform $-1 1 0 0 0 1 0 0 0 1 59.049653614917446 38.436428177469047 17.381260857559361 1 rotate no_reflect no_shear #
lump $-1 $-1 $30 $3 #
transform $-1 1 0 0 0 1 0 0 0 1 59.049653614917446 38.436428177469047 17.381260857559361 1 rotate no_reflect no_shear #
lump $-1 $-1 $31 $4 #
transform $-1 1 0 0 0 1 0 0 0 1 59.049653614917446 38.436428177469047 17.381260857559361 1 rotate no_reflect no_shear #
lump $-1 $-1 $32 $5 #
transform $-1 1 0 0 0 1 0 0 0 1 59.049653614917446 38.436428177469047 17.381260857559361 1 rotate no_reflect no_shear #
lump $-1 $-1 $33 $6 #
transform $-1 1 0 0 0 1 0 0 0 1 59.049653614917446 38.436428177469047 17.381260857559361 1 rotate no_reflect no_shear #
lump $-1 $-1 $34 $7 #
transform $-1 1 0 0 0 1 0 0 0 1 59.049653614917446 38.436428177469047 17.381260857559361 1 rotate no_reflect no_shear #
lump $-1 $-1 $35 $8 #
transform $-1 1 0 0 0 1 0 0 0 1 59.049653614917446 38.436428177469047 17.381260857559361 1 rotate no_reflect no_shear #
shell $-1 $-1 $-1 $36 $-1 $9 #
shell $-1 $-1 $-1 $37 $-1 $11 #
shell $-1 $-1 $-1 $38 $-1 $13 #
shell $-1 $-1 $-1 $39 $-1 $15 #
shell $-1 $-1 $-1 $40 $-1 $17 #
shell $-1 $-1 $-1 $41 $-1 $19 #
shell $-1 $-1 $-1 $42 $-1 $21 #
shell $-1 $-1 $-1 $43 $-1 $23 #
shell $-1 $-1 $-1 $44 $-1 $25 #
face $-1 $45 $46 $27 $-1 $47 forward single #
face $-1 $48 $49 $28 $-1 $50 reversed single #
face $-1 $51 $52 $29 $-1 $53 reversed single #
face $-1 $54 $55 $30 $-1 $56 forward single #
face $-1 $57 $58 $31 $-1 $59 forward single #
face $-1 $60 $61 $32 $-1 $62 forward single #
face $-1 $63 $64 $33 $-1 $65 reversed single #
face $-1 $66 $67 $34 $-1 $68 forward single #
face $-1 $69 $70 $35 $-1 $71 forward single #
face $-1 $72 $73 $27 $-1 $74 reversed single #
loop $-1 $-1 $75 $36 #
plane-surface $-1 0 0 17.381260857559361 0 0 1 1 0 0 forward_v I I I I #
face $-1 $76 $77 $28 $-1 $78 reversed single #
loop $-1 $-1 $79 $37 #
plane-surface $-1 -49.446489751485238 0 11.962924508316963 0 0 1 1 0 0 forward_v I I I I #
face $-1 $80 $81 $29 $-1 $82 reversed single #
loop $-1 $-1 $83 $38 #
plane-surface $-1 -11.811317613016033 97.853915262807845 129.94179944915243 1 0 0 0 -0.84804810408105047 -0.52991925155115449 forward_v I I I I #
face $-1 $84 $85 $30 $-1 $86 forward single #
loop $-1 $87 $88 $39 #
cone-surface $-1 -6.2339913926754704 32.751518409182886 9.1920436140423334 0 -0.84804810408105047 -0.52991925155115449 1.5 0 0 1 I I 0 1 1.5 forward I I I I #
face $-1 $89 $90 $31 $-1 $91 forward single #
loop $-1 $92 $93 $40 #
cone-surface $-1 2.1319979378353793 32.751518409182886 9.1920436140423334 0 -0.84804810408105047 -0.52991925155115449 1.5 0 0 1 I I 0 1 1.5 forward I I I I #
face $-1 $94 $95 $32 $-1 $96 forward single #
loop $-1 $97 $98 $41 #
cone-surface $-1 10.497987268346236 32.751518409182886 9.1920436140423334 0 -0.84804810408105047 -0.52991925155115449 1.5 0 0 1 I I 0 1 1.5 forward I I I I #
face $-1 $99 $100 $33 $-1 $101 reversed single #
loop $-1 $-1 $102 $42 #
plane-surface $-1 50.285339889899859 -38.43642817746904 8.8323158512382491 0 -0.79863551827123203 0.60181501223851219 1 0 0 forward_v I I I I #
face $-1 $103 $104 $34 $-1 $105 forward single #
loop $-1 $106 $107 $43 #
cone-surface $-1 46.529205436320908 -32.72015499747468 11.226499841781557 0 0.79863551827123203 -0.60181501223851219 2 0 0 1 I I 0 1 2 forward I I I I #
face $-1 $108 $109 $35 $-1 $110 forward single #
loop $-1 $111 $112 $44 #
cone-surface $-1 54.041474343478839 -32.72015499747468 11.226499841781557 0 0.79863551827123203 -0.60181501223851219 2 0 0 1 I I 0 1 2 forward I I I I #
face $-1 $113 $114 $27 $-1 $115 reversed single #
loop $-1 $-1 $116 $45 #
plane-surface $-1 0 0 -17.381260857559361 0 0 1 1 0 0 forward_v I I I I #
coedge $-1 $117 $118 $119 $120 forward $46 $-1 #
face $-1 $121 $122 $28 $-1 $123 reversed single #
loop $-1 $-1 $124 $48 #
plane-surface $-1 -39.84332588805303 0 14.672092682938164 -1 0 0 0 0 1 forward_v I I I I #
coedge $-1 $125 $126 $127 $128 forward $49 $-1 #
face $-1 $129 $130 $29 $-1 $131 reversed single #
loop $-1 $-1 $132 $51 #
plane-surface $-1 2.1319979378353793 -2.2999783267391365 67.358702953208478 0 0.84804810408105047 0.52991925155115449 1 0 0 forward_v I I I I #
coedge $-1 $133 $134 $135 $136 reversed $52 $-1 #
face $-1 $-1 $137 $30 $-1 $138 forward single #
loop $-1 $139 $140 $54 #
cone-surface $-1 -6.2339913926754704 31.184090408346414 8.212605927587461 0 -0.84804810408105047 -0.52991925155115449 0.75 0 0 1 I I -0.70710678118654791 0.70710678118654702 0.75 forward I I I I #
loop $-1 $-1 $141 $39 #
coedge $-1 $88 $88 $142 $143 reversed $55 $-1 #
face $-1 $-1 $144 $31 $-1 $145 forward single #
loop $-1 $146 $147 $57 #
cone-surface $-1 2.1319979378353793 31.184090408346414 8.212605927587461 0 -0.84804810408105047 -0.52991925155115449 0.75 0 0 1 I I -0.70710678118654791 0.70710678118654702 0.75 forward I I I I #
loop $-1 $-1 $148 $40 #
coedge $-1 $93 $93 $149 $150 reversed $58 $-1 #
face $-1 $-1 $151 $32 $-1 $152 forward single #
loop $-1 $153 $154 $60 #
cone-surface $-1 10.497987268346236 31.184090408346414 8.212605927587461 0 -0.84804810408105047 -0.52991925155115449 0.75 0 0 1 I I -0.70710678118654791 0.70710678118654702 0.75 forward I I I I #
loop $-1 $-1 $155 $41 #
coedge $-1 $98 $98 $156 $157 reversed $61 $-1 #
face $-1 $158 $159 $33 $-1 $160 reversed single #
loop $-1 $-1 $161 $63 #
plane-surface $-1 41.521026164882279 -132.75472961444169 79.90625187712115 1 0 0 0 0.79863551827123203 -0.60181501223851219 forward_v I I I I #
coedge $-1 $162 $163 $164 $165 reversed $64 $-1 #
face $-1 $-1 $166 $34 $-1 $167 forward single #
loop $-1 $168 $169 $66 #
cone-surface $-1 46.529205436320908 -29.426292274438424 8.7443963169257799 0 0.79863551827123203 -0.60181501223851219 1 0 0 1 I I -0.70710678118654746 0.70710678118654746 1 forward I I I I #
loop $-1 $-1 $170 $43 #
coedge $-1 $107 $107 $171 $172 reversed $67 $-1 #
face $-1 $-1 $173 $35 $-1 $174 forward single #
loop $-1 $175 $176 $69 #
cone-surface $-1 54.041474343478839 -29.426292274438424 8.7443963169257799 0 0.79863551827123203 -0.60181501223851219 1 0 0 1 I I -0.70710678118654746 0.70710678118654746 1 forward I I I I #
loop $-1 $-1 $177 $44 #
coedge $-1 $112 $112 $178 $179 reversed $70 $-1 #
face $-1 $180 $181 $27 $-1 $182 reversed single #
loop $-1 $-1 $183 $72 #
plane-surface $-1 0 -38.436428177469047 0 0 1 0 0 0 1 forward_v I I I I #
coedge $-1 $184 $185 $186 $187 forward $73 $-1 #
coedge $-1 $188 $75 $189 $190 forward $46 $-1 #
coedge $-1 $75 $188 $191 $192 forward $46 $-1 #
coedge $-1 $193 $194 $75 $120 reversed $195 $-1 #
edge $-1 $196 -38.436428177469047 $197 38.436428177469047 $119 $198 forward 7 unknown #
face $-1 $199 $200 $28 $-1 $201 reversed single #
loop $-1 $-1 $202 $76 #
plane-surface $-1 0 38.436428177469047 0 0 -1 0 0 0 -1 forward_v I I I I #
coedge $-1 $127 $203 $204 $205 reversed $77 $-1 #
coedge $-1 $206 $79 $207 $208 reversed $49 $-1 #
coedge $-1 $79 $206 $209 $210 reversed $49 $-1 #
coedge $-1 $211 $124 $79 $128 reversed $77 $-1 #
edge $-1 $212 -38.436428177469047 $213 38.436428177469047 $127 $214 forward 7 unknown #
face $-1 $215 $216 $29 $-1 $217 forward single #
loop $-1 $-1 $218 $80 #
plane-surface $-1 16.075313488686792 97.853915262807845 129.94179944915243 -1 0 0 0 0.84804810408105047 0.52991925155115449 forward_v I I I I #
coedge $-1 $219 $220 $221 $222 reversed $81 $-1 #
coedge $-1 $134 $83 $223 $224 reversed $52 $-1 #
coedge $-1 $83 $133 $219 $225 reversed $52 $-1 #
coedge $-1 $221 $226 $83 $136 forward $216 $-1 #
edge $-1 $227 10.490529453934876 $228 19.997565144955807 $135 $229 forward 7 unknown #
loop $-1 $-1 $142 $84 #
plane-surface $-1 2.1319979378353793 -2.2999783267391365 67.358702953208478 0 0.84804810408105047 0.52991925155115449 1 0 0 forward_v I I I I #
loop $-1 $-1 $230 $54 #
coedge $-1 $140 $140 $141 $231 reversed $85 $-1 #
coedge $-1 $141 $141 $140 $231 forward $87 $-1 #
coedge $-1 $142 $142 $88 $143 forward $137 $-1 #
edge $-1 $232 -1.0032408635219219e-015 $232 6.2831853071795996 $142 $233 forward 7 unknown #
loop $-1 $-1 $149 $89 #
plane-surface $-1 2.1319979378353793 -2.2999783267391365 67.358702953208478 0 0.84804810408105047 0.52991925155115449 1 0 0 forward_v I I I I #
loop $-1 $-1 $234 $57 #
coedge $-1 $147 $147 $148 $235 reversed $90 $-1 #
coedge $-1 $148 $148 $147 $235 forward $92 $-1 #
coedge $-1 $149 $149 $93 $150 forward $144 $-1 #
edge $-1 $236 -1.0032408635219219e-015 $236 6.2831853071795996 $149 $237 forward 7 unknown #
loop $-1 $-1 $156 $94 #
plane-surface $-1 2.1319979378353793 -2.2999783267391365 67.358702953208478 0 0.84804810408105047 0.52991925155115449 1 0 0 forward_v I I I I #
loop $-1 $-1 $238 $60 #
coedge $-1 $154 $154 $155 $239 reversed $95 $-1 #
coedge $-1 $155 $155 $154 $239 forward $97 $-1 #
coedge $-1 $156 $156 $98 $157 forward $151 $-1 #
edge $-1 $240 -1.0032408635219219e-015 $240 6.2831853071795996 $156 $241 forward 7 unknown #
face $-1 $242 $243 $33 $-1 $244 forward single #
loop $-1 $-1 $245 $99 #
plane-surface $-1 59.049653614917446 0 0 -1 0 0 0 0 1 forward_v I I I I #
coedge $-1 $246 $247 $248 $249 reversed $100 $-1 #
coedge $-1 $250 $102 $245 $251 reversed $64 $-1 #
coedge $-1 $102 $250 $246 $252 forward $64 $-1 #
coedge $-1 $248 $253 $102 $165 forward $243 $-1 #
edge $-1 $254 -33.906983669967509 $255 -16.37835621993235 $164 $256 forward 7 unknown #
loop $-1 $-1 $171 $103 #
plane-surface $-1 50.285339889899859 -38.43642817746904 8.8323158512382491 0 -0.79863551827123203 0.60181501223851219 1 0 0 forward_v I I I I #
loop $-1 $-1 $257 $66 #
coedge $-1 $169 $169 $170 $258 reversed $104 $-1 #
coedge $-1 $170 $170 $169 $258 forward $106 $-1 #
coedge $-1 $171 $171 $107 $172 forward $166 $-1 #
edge $-1 $259 -7.3958261798549163e-016 $259 6.2831853071795996 $171 $260 forward 7 unknown #
loop $-1 $-1 $178 $108 #
plane-surface $-1 50.285339889899859 -38.43642817746904 8.8323158512382491 0 -0.79863551827123203 0.60181501223851219 1 0 0 forward_v I I I I #
loop $-1 $-1 $261 $69 #
coedge $-1 $176 $176 $177 $262 reversed $109 $-1 #
coedge $-1 $177 $177 $176 $262 forward $111 $-1 #
coedge $-1 $178 $178 $112 $179 forward $173 $-1 #
edge $-1 $263 -7.3958261798549163e-016 $263 6.2831853071795996 $178 $264 forward 7 unknown #
face $-1 $265 $266 $27 $-1 $267 reversed single #
loop $-1 $-1 $268 $113 #
plane-surface $-1 -59.049653614917446 0 0 1 0 0 0 0 -1 forward_v I I I I #
coedge $-1 $269 $191 $270 $271 forward $114 $-1 #
coedge $-1 $272 $116 $269 $273 forward $73 $-1 #
coedge $-1 $116 $272 $274 $275 forward $73 $-1 #
coedge $-1 $194 $193 $116 $187 reversed $195 $-1 #
edge $-1 $276 -38.436428177469047 $277 38.436428177469047 $186 $278 forward 7 unknown #
coedge $-1 $118 $117 $279 $280 forward $46 $-1 #
coedge $-1 $281 $282 $117 $190 reversed $266 $-1 #
edge $-1 $197 -59.049653614917446 $283 59.049653614917446 $189 $284 forward 7 unknown #
coedge $-1 $183 $285 $118 $192 reversed $114 $-1 #
edge $-1 $286 -59.049653614917446 $196 59.049653614917446 $191 $287 forward 7 unknown #
coedge $-1 $186 $119 $285 $288 forward $195 $-1 #
coedge $-1 $119 $186 $281 $289 reversed $195 $-1 #
loop $-1 $-1 $193 $265 #
vertex $-1 $120 $290 #
vertex $-1 $120 $291 #
straight-curve $-1 59.049653614917446 0 17.381260857559361 0 1 0 I I #
face $-1 $292 $293 $28 $-1 $294 forward single #
loop $-1 $-1 $295 $121 #
plane-surface $-1 -59.049653614917446 0 0 1 0 0 0 0 -1 forward_v I I I I #
coedge $-1 $209 $296 $211 $297 forward $122 $-1 #
coedge $-1 $124 $211 $298 $299 reversed $77 $-1 #
coedge $-1 $300 $207 $124 $205 forward $301 $-1 #
edge $-1 $213 4.6268781668478809 $302 10.045214516090283 $204 $303 forward 7 unknown #
coedge $-1 $126 $125 $295 $304 reversed $49 $-1 #
coedge $-1 $204 $305 $125 $208 forward $301 $-1 #
edge $-1 $306 -34.326408739174823 $213 -15.120081012310411 $207 $307 forward 7 unknown #
coedge $-1 $308 $202 $126 $210 forward $122 $-1 #
edge $-1 $212 15.120081012310411 $309 34.326408739174823 $209 $310 forward 7 unknown #
coedge $-1 $203 $127 $202 $297 reversed $77 $-1 #
vertex $-1 $210 $311 #
vertex $-1 $208 $312 #
straight-curve $-1 -39.84332588805303 0 11.962924508316963 0 -1 0 I I #
face $-1 $-1 $313 $29 $-1 $314 reversed single #
loop $-1 $-1 $135 $129 #
plane-surface $-1 0 0 17.381260857559361 0 0 1 1 0 0 forward_v I I I I #
coedge $-1 $315 $316 $317 $318 reversed $130 $-1 #
coedge $-1 $319 $132 $134 $225 forward $81 $-1 #
coedge $-1 $132 $319 $315 $320 forward $81 $-1 #
coedge $-1 $317 $135 $132 $222 forward $216 $-1 #
edge $-1 $228 -12.877316581933723 $321 15.009314519769102 $221 $322 forward 7 unknown #
coedge $-1 $323 $324 $133 $224 forward $313 $-1 #
edge $-1 $325 -62.80407685846788 $227 -47.589638867016852 $223 $326 forward 7 unknown #
edge $-1 $228 58.932319823773376 $325 76.872856354938051 $134 $327 forward 7 unknown #
coedge $-1 $135 $317 $323 $328 forward $216 $-1 #
vertex $-1 $224 $329 #
vertex $-1 $136 $330 #
straight-curve $-1 -11.811317613016033 48.926957631403923 17.381260857559361 0 -1 0 I I #
coedge $-1 $230 $230 $-1 $331 reversed $139 $-1 #
edge $-1 $332 0 $332 6.2831853071796004 $140 $333 forward 7 unknown #
vertex $-1 $143 $334 #
ellipse-curve $-1 -6.2339913926754704 33.682910331958581 9.7740418618338474 0 0.84804810408105047 0.52991925155115449 1.5 0 0 1 I I #
coedge $-1 $234 $234 $-1 $335 reversed $146 $-1 #
edge $-1 $336 0 $336 6.2831853071796004 $147 $337 forward 7 unknown #
vertex $-1 $150 $338 #
ellipse-curve $-1 2.1319979378353793 33.682910331958581 9.7740418618338474 0 0.84804810408105047 0.52991925155115449 1.5 0 0 1 I I #
coedge $-1 $238 $238 $-1 $339 reversed $153 $-1 #
edge $-1 $340 0 $340 6.2831853071796004 $154 $341 forward 7 unknown #
vertex $-1 $157 $342 #
ellipse-curve $-1 10.497987268346236 33.682910331958581 9.7740418618338474 0 0.84804810408105047 0.52991925155115449 1.5 0 0 1 I I #
face $-1 $-1 $343 $33 $-1 $344 reversed single #
loop $-1 $-1 $164 $158 #
plane-surface $-1 0 0 17.381260857559361 0 0 1 1 0 0 forward_v I I I I #
coedge $-1 $345 $346 $162 $251 forward $159 $-1 #
coedge $-1 $247 $161 $163 $252 reversed $100 $-1 #
coedge $-1 $161 $246 $347 $348 reversed $100 $-1 #
coedge $-1 $349 $164 $161 $249 forward $243 $-1 #
edge $-1 $255 -34.383028580210492 $350 -27.940936629751796 $248 $351 forward 7 unknown #
coedge $-1 $163 $162 $352 $353 reversed $64 $-1 #
edge $-1 $354 -8.038909173319686 $254 2.6655295984827645 $245 $355 forward 7 unknown #
edge $-1 $356 -1.1369461177519839e-014 $255 10.70443877180244 $246 $357 forward 7 unknown #
coedge $-1 $164 $349 $345 $358 forward $243 $-1 #
vertex $-1 $165 $359 #
vertex $-1 $165 $360 #
straight-curve $-1 25.14266994494993 -31.994336227010351 17.381260857559361 -1 0 0 I I #
coedge $-1 $257 $257 $-1 $361 reversed $168 $-1 #
edge $-1 $362 0 $362 6.2831853071796004 $169 $363 forward 7 unknown #
vertex $-1 $172 $364 #
ellipse-curve $-1 46.529205436320908 -35.215382202239688 13.106788354398809 0 -0.79863551827123203 0.60181501223851219 2 0 0 1 I I #
coedge $-1 $261 $261 $-1 $365 reversed $175 $-1 #
edge $-1 $366 0 $366 6.2831853071796004 $176 $367 forward 7 unknown #
vertex $-1 $179 $368 #
ellipse-curve $-1 54.041474343478839 -35.215382202239688 13.106788354398809 0 -0.79863551827123203 0.60181501223851219 2 0 0 1 I I #
face $-1 $-1 $195 $27 $-1 $369 reversed single #
loop $-1 $-1 $281 $180 #
plane-surface $-1 0 38.436428177469047 0 0 -1 0 0 0 -1 forward_v I I I I #
coedge $-1 $370 $279 $282 $371 forward $181 $-1 #
coedge $-1 $285 $183 $184 $273 reversed $114 $-1 #
coedge $-1 $279 $370 $183 $271 reversed $181 $-1 #
edge $-1 $286 -17.381260857559361 $372 17.381260857559361 $270 $373 forward 7 unknown #
coedge $-1 $185 $184 $370 $374 forward $73 $-1 #
edge $-1 $277 -59.049653614917446 $372 59.049653614917446 $269 $375 forward 7 unknown #
coedge $-1 $282 $281 $185 $275 reversed $266 $-1 #
edge $-1 $376 -59.049653614917446 $276 59.049653614917446 $274 $377 forward 7 unknown #
vertex $-1 $187 $378 #
vertex $-1 $288 $379 #
straight-curve $-1 59.049653614917446 0 -17.381260857559361 0 -1 0 I I #
coedge $-1 $268 $270 $188 $280 reversed $181 $-1 #
edge $-1 $283 -38.436428177469047 $286 38.436428177469047 $279 $380 forward 7 unknown #
coedge $-1 $274 $189 $194 $289 forward $266 $-1 #
coedge $-1 $189 $274 $268 $371 reversed $266 $-1 #
vertex $-1 $190 $381 #
straight-curve $-1 0 38.436428177469047 17.381260857559361 -1 0 0 I I #
coedge $-1 $191 $269 $193 $288 reversed $114 $-1 #
vertex $-1 $280 $382 #
straight-curve $-1 0 -38.436428177469047 17.381260857559361 1 0 0 I I #
edge $-1 $196 -17.381260857559361 $277 17.381260857559361 $193 $383 forward 7 unknown #
edge $-1 $197 -17.381260857559361 $276 17.381260857559361 $194 $384 forward 7 unknown #
point $-1 59.049653614917446 -38.436428177469047 17.381260857559361 #
point $-1 59.049653614917446 38.436428177469047 17.381260857559361 #
face $-1 $-1 $301 $28 $-1 $385 reversed single #
loop $-1 $-1 $298 $199 #
plane-surface $-1 0 0 17.381260857559361 0 0 1 1 0 0 forward_v I I I I #
coedge $-1 $386 $387 $206 $304 forward $200 $-1 #
coedge $-1 $202 $308 $388 $389 reversed $122 $-1 #
edge $-1 $390 -10.045214516090283 $212 -4.6268781668478809 $202 $391 forward 7 unknown #
coedge $-1 $388 $392 $203 $299 forward $293 $-1 #
edge $-1 $302 -38.436428177469047 $390 38.436428177469047 $298 $393 forward 7 unknown #
coedge $-1 $305 $204 $392 $394 reversed $301 $-1 #
loop $-1 $-1 $204 $292 #
vertex $-1 $205 $395 #
straight-curve $-1 -39.84332588805303 -38.436428177469047 7.336046341469082 0 0 1 I I #
edge $-1 $309 -38.436428177469047 $306 38.436428177469047 $295 $396 forward 7 unknown #
coedge $-1 $207 $300 $386 $397 forward $301 $-1 #
vertex $-1 $304 $398 #
straight-curve $-1 -24.723244875742619 -38.436428177469047 11.962924508316963 1 0 0 I I #
coedge $-1 $296 $209 $387 $399 reversed $122 $-1 #
vertex $-1 $304 $400 #
straight-curve $-1 -24.723244875742619 38.436428177469047 11.962924508316963 -1 0 0 I I #
point $-1 -39.84332588805303 38.436428177469047 11.962924508316963 #
point $-1 -39.84332588805303 -38.436428177469047 11.962924508316963 #
loop $-1 $-1 $223 $215 #
plane-surface $-1 0 38.436428177469047 0 0 -1 0 0 0 -1 forward_v I I I I #
coedge $-1 $316 $218 $220 $320 reversed $130 $-1 #
coedge $-1 $218 $315 $401 $402 reversed $130 $-1 #
coedge $-1 $226 $221 $218 $318 forward $216 $-1 #
edge $-1 $321 -19.997565144955807 $403 -10.490529453934876 $317 $404 forward 7 unknown #
coedge $-1 $220 $219 $324 $405 reversed $81 $-1 #
edge $-1 $406 -76.872856354938051 $321 -58.932319823773376 $315 $407 forward 7 unknown #
vertex $-1 $222 $408 #
straight-curve $-1 1.0659989689176896 28.929392486448116 17.381260857559361 1 0 0 I I #
coedge $-1 $401 $223 $226 $328 reversed $313 $-1 #
coedge $-1 $223 $401 $319 $405 forward $313 $-1 #
vertex $-1 $224 $409 #
straight-curve $-1 -11.811317613016033 38.436428177469047 64.970899724576213 0 0 1 I I #
straight-curve $-1 -11.811317613016033 -2.2999783267391365 67.358702953208478 0 0.52991925155115449 -0.84804810408105047 I I #
edge $-1 $403 -16.075313488686792 $227 11.811317613016033 $323 $410 forward 7 unknown #
point $-1 -11.811317613016033 38.436428177469047 17.381260857559361 #
point $-1 -11.811317613016033 28.929392486448116 17.381260857559361 #
edge $-1 $411 1 $411 0 $230 $-1 forward 7 unknown #
vertex $-1 $231 $412 #
ellipse-curve $-1 -6.2339913926754704 31.820126486407201 8.6100453662508265 0 0.84804810408105047 0.52991925155115449 1.5 0 0 1 I I #
point $-1 -4.7339913926754704 33.682910331958567 9.7740418618338403 #
edge $-1 $413 1 $413 0 $234 $-1 forward 7 unknown #
vertex $-1 $235 $414 #
ellipse-curve $-1 2.1319979378353793 31.820126486407201 8.6100453662508265 0 0.84804810408105047 0.52991925155115449 1.5 0 0 1 I I #
point $-1 3.6319979378353793 33.682910331958567 9.7740418618338403 #
edge $-1 $415 1 $415 0 $238 $-1 forward 7 unknown #
vertex $-1 $239 $416 #
ellipse-curve $-1 10.497987268346236 31.820126486407201 8.6100453662508265 0 0.84804810408105047 0.52991925155115449 1.5 0 0 1 I I #
point $-1 11.997987268346236 33.682910331958567 9.7740418618338403 #
loop $-1 $-1 $352 $242 #
plane-surface $-1 0 -38.436428177469047 0 0 1 0 0 0 1 forward_v I I I I #
coedge $-1 $346 $245 $253 $358 reversed $159 $-1 #
coedge $-1 $245 $345 $417 $418 forward $159 $-1 #
coedge $-1 $352 $419 $247 $348 forward $343 $-1 #
edge $-1 $350 22.571865081001214 $356 31.120810087322333 $347 $420 forward 7 unknown #
coedge $-1 $253 $248 $419 $421 forward $243 $-1 #
vertex $-1 $421 $422 #
straight-curve $-1 41.521026164882279 -66.377364807220843 17.381260857559361 0 -1 0 I I #
coedge $-1 $417 $347 $250 $353 forward $343 $-1 #
edge $-1 $356 16.37835621993235 $354 33.906983669967509 $352 $423 forward 7 unknown #
vertex $-1 $353 $424 #
straight-curve $-1 59.049653614917446 -33.59849195494337 15.252474245207768 0 0.60181501223851219 0.79863551827123203 I I #
vertex $-1 $353 $425 #
straight-curve $-1 41.521026164882279 -38.43642817746904 8.8323158512382491 0 0.60181501223851219 0.79863551827123203 I I #
edge $-1 $426 -38.436428177469047 $254 -31.994336227010351 $345 $427 forward 7 unknown #
point $-1 59.049653614917439 -31.994336227010351 17.381260857559361 #
point $-1 41.521026164882279 -31.994336227010351 17.381260857559361 #
edge $-1 $428 1 $428 0 $257 $-1 forward 7 unknown #
vertex $-1 $258 $429 #
ellipse-curve $-1 46.529205436320908 -30.224927792709657 9.3462113291642925 0 -0.79863551827123203 0.60181501223851219 2 0 0 1 I I #
point $-1 48.529205436320908 -35.215382202239709 13.106788354398823 #
edge $-1 $430 1 $430 0 $261 $-1 forward 7 unknown #
vertex $-1 $262 $431 #
ellipse-curve $-1 54.041474343478839 -30.224927792709657 9.3462113291642925 0 -0.79863551827123203 0.60181501223851219 2 0 0 1 I I #
point $-1 56.041474343478839 -35.215382202239709 13.106788354398823 #
plane-surface $-1 59.049653614917446 0 0 -1 0 0 0 0 1 forward_v I I I I #
coedge $-1 $270 $268 $272 $374 reversed $181 $-1 #
edge $-1 $283 -17.381260857559361 $376 17.381260857559361 $282 $432 forward 7 unknown #
vertex $-1 $374 $433 #
straight-curve $-1 -59.049653614917446 -38.436428177469047 0 0 0 -1 I I #
edge $-1 $372 -38.436428177469047 $376 38.436428177469047 $370 $434 forward 7 unknown #
straight-curve $-1 0 -38.436428177469047 -17.381260857559361 -1 0 0 I I #
vertex $-1 $275 $435 #
straight-curve $-1 0 38.436428177469047 -17.381260857559361 1 0 0 I I #
point $-1 59.049653614917446 38.436428177469047 -17.381260857559361 #
point $-1 59.049653614917446 -38.436428177469047 -17.381260857559361 #
straight-curve $-1 -59.049653614917446 0 17.381260857559361 0 -1 0 I I #
point $-1 -59.049653614917446 38.436428177469047 17.381260857559361 #
point $-1 -59.049653614917446 -38.436428177469047 17.381260857559361 #
straight-curve $-1 59.049653614917446 -38.436428177469047 0 0 0 -1 I I #
straight-curve $-1 59.049653614917446 38.436428177469047 0 0 0 -1 I I #
plane-surface $-1 0 -38.436428177469047 0 0 1 0 0 0 1 forward_v I I I I #
coedge $-1 $436 $295 $305 $397 reversed $200 $-1 #
coedge $-1 $295 $436 $308 $399 forward $200 $-1 #
coedge $-1 $437 $298 $296 $389 forward $293 $-1 #
edge $-1 $390 39.84332588805303 $438 59.049653614917446 $296 $439 forward 7 unknown #
vertex $-1 $389 $440 #
straight-curve $-1 -39.84332588805303 38.436428177469047 7.336046341469082 0 0 -1 I I #
coedge $-1 $298 $437 $300 $394 forward $293 $-1 #
straight-curve $-1 -39.84332588805303 0 17.381260857559361 0 1 0 I I #
edge $-1 $441 -59.049653614917446 $302 -39.84332588805303 $300 $442 forward 7 unknown #
point $-1 -39.84332588805303 -38.436428177469047 17.381260857559365 #
straight-curve $-1 -59.049653614917446 0 11.962924508316963 0 -1 0 I I #
edge $-1 $441 -17.381260857559361 $306 -11.962924508316963 $386 $443 forward 7 unknown #
point $-1 -59.049653614917446 -38.436428177469047 11.962924508316963 #
edge $-1 $438 -17.381260857559361 $309 -11.962924508316963 $308 $444 forward 7 unknown #
point $-1 -59.049653614917446 38.436428177469047 11.962924508316963 #
coedge $-1 $324 $323 $316 $402 forward $313 $-1 #
edge $-1 $403 47.589638867016852 $406 62.80407685846788 $401 $445 forward 7 unknown #
vertex $-1 $328 $446 #
straight-curve $-1 16.075313488686792 48.926957631403923 17.381260857559361 0 1 0 I I #
edge $-1 $406 -15.009314519769102 $325 12.877316581933723 $324 $447 forward 7 unknown #
vertex $-1 $405 $448 #
straight-curve $-1 16.075313488686792 -2.2999783267391365 67.358702953208478 0 -0.52991925155115449 0.84804810408105047 I I #
point $-1 16.075313488686792 28.929392486448116 17.381260857559361 #
point $-1 -11.811317613016033 38.436428177469047 2.1668228661083333 #
straight-curve $-1 0 38.436428177469047 17.381260857559361 -1 0 0 I I #
vertex $-1 $331 $449 #
point $-1 -4.7339913926754704 31.820126486407201 8.6100453662508265 #
vertex $-1 $335 $450 #
point $-1 3.6319979378353793 31.820126486407201 8.6100453662508265 #
vertex $-1 $339 $451 #
point $-1 11.997987268346236 31.820126486407201 8.6100453662508265 #
coedge $-1 $419 $352 $346 $418 reversed $343 $-1 #
edge $-1 $426 -17.381260857559361 $354 -8.8323158512382403 $346 $452 forward 7 unknown #
coedge $-1 $347 $417 $349 $421 reversed $343 $-1 #
straight-curve $-1 41.521026164882279 -38.436428177469047 39.953125938560575 0 0 -1 I I #
edge $-1 $350 41.521026164882279 $426 59.049653614917446 $419 $453 forward 7 unknown #
point $-1 41.521026164882279 -38.436428177469047 17.381260857559361 #
straight-curve $-1 25.14266994494993 -38.436428177469047 8.8323158512382367 1 0 0 I I #
point $-1 59.049653614917439 -38.436428177469047 8.8323158512382403 #
point $-1 41.521026164882279 -38.436428177469047 8.8323158512382403 #
vertex $-1 $358 $454 #
straight-curve $-1 59.049653614917446 0 17.381260857559361 0 1 0 I I #
vertex $-1 $361 $455 #
point $-1 48.529205436320908 -30.224927792709657 9.3462113291642925 #
vertex $-1 $365 $456 #
point $-1 56.041474343478839 -30.224927792709657 9.3462113291642925 #
straight-curve $-1 -59.049653614917446 38.436428177469047 0 0 0 -1 I I #
point $-1 -59.049653614917446 -38.436428177469047 -17.381260857559361 #
straight-curve $-1 -59.049653614917446 0 -17.381260857559361 0 1 0 I I #
point $-1 -59.049653614917446 38.436428177469047 -17.381260857559361 #
coedge $-1 $387 $386 $437 $457 reversed $200 $-1 #
coedge $-1 $392 $388 $436 $457 forward $293 $-1 #
vertex $-1 $389 $458 #
straight-curve $-1 0 38.436428177469047 17.381260857559361 -1 0 0 I I #
point $-1 -39.84332588805303 38.436428177469047 17.381260857559365 #
vertex $-1 $457 $459 #
straight-curve $-1 0 -38.436428177469047 17.381260857559361 1 0 0 I I #
straight-curve $-1 -59.049653614917446 -38.436428177469047 0 0 0 -1 I I #
straight-curve $-1 -59.049653614917446 38.436428177469047 0 0 0 -1 I I #
straight-curve $-1 16.075313488686792 38.436428177469047 64.970899724576213 0 0 -1 I I #
point $-1 16.075313488686792 38.436428177469047 17.381260857559361 #
straight-curve $-1 1.0659989689176896 38.43642817746904 2.1668228661083226 -1 0 0 I I #
point $-1 16.075313488686792 38.436428177469047 2.1668228661083333 #
point $-1 -6.2339913926754704 30.548054330285627 7.8151664889240955 #
point $-1 2.1319979378353793 30.548054330285627 7.8151664889240955 #
point $-1 10.497987268346236 30.548054330285627 7.8151664889240955 #
straight-curve $-1 59.049653614917446 -38.436428177469047 0 0 0 -1 I I #
straight-curve $-1 0 -38.436428177469047 17.381260857559361 1 0 0 I I #
point $-1 59.049653614917446 -38.436428177469047 17.381260857559361 #
point $-1 46.529205436320908 -28.627656756167191 8.1425813046872673 #
point $-1 54.041474343478839 -28.627656756167191 8.1425813046872673 #
edge $-1 $438 -38.436428177469047 $441 38.436428177469047 $436 $460 forward 7 unknown #
point $-1 -59.049653614917446 38.436428177469047 17.381260857559361 #
point $-1 -59.049653614917446 -38.436428177469047 17.381260857559361 #
straight-curve $-1 -59.049653614917446 0 17.381260857559361 0 -1 0 I I #
End-of-ACIS-data 