500 0 8 0           
7 Unknown 11 ACIS 5.0 NT 24 Fri Mar 26 02:52:56 1999 
-1 9.9999999999999995e-007 1e-010 
body $-1 $8 $-1 $9 #
body $-1 $10 $-1 $11 #
body $-1 $12 $-1 $13 #
body $-1 $14 $-1 $15 #
body $-1 $16 $-1 $17 #
body $-1 $18 $-1 $19 #
body $-1 $20 $-1 $21 #
body $-1 $22 $-1 $23 #
lump $-1 $-1 $24 $0 #
transform $-1 1 0 0 0 1 0 0 0 1 50.075991088595231 23.794462906314585 8.4532176824191048 1 rotate no_reflect no_shear #
lump $-1 $-1 $25 $1 #
transform $-1 1 0 0 0 1 0 0 0 1 50.075991088595231 23.794462906314585 8.4532176824191048 1 rotate no_reflect no_shear #
lump $-1 $-1 $26 $2 #
transform $-1 1 0 0 0 1 0 0 0 1 50.075991088595231 23.794462906314585 8.4532176824191048 1 rotate no_reflect no_shear #
lump $-1 $-1 $27 $3 #
transform $-1 1 0 0 0 1 0 0 0 1 50.075991088595231 23.794462906314585 8.4532176824191048 1 rotate no_reflect no_shear #
lump $-1 $-1 $28 $4 #
transform $-1 1 0 0 0 1 0 0 0 1 50.075991088595231 23.794462906314585 8.4532176824191048 1 rotate no_reflect no_shear #
lump $-1 $-1 $29 $5 #
transform $-1 1 0 0 0 1 0 0 0 1 50.075991088595231 23.794462906314585 8.4532176824191048 1 rotate no_reflect no_shear #
lump $-1 $-1 $30 $6 #
transform $-1 1 0 0 0 1 0 0 0 1 50.075991088595231 23.794462906314585 8.4532176824191048 1 rotate no_reflect no_shear #
lump $-1 $-1 $31 $7 #
transform $-1 1 0 0 0 1 0 0 0 1 50.075991088595231 23.794462906314585 8.4532176824191048 1 rotate no_reflect no_shear #
shell $-1 $-1 $-1 $32 $-1 $8 #
shell $-1 $-1 $-1 $33 $-1 $10 #
shell $-1 $-1 $-1 $34 $-1 $12 #
shell $-1 $-1 $-1 $35 $-1 $14 #
shell $-1 $-1 $-1 $36 $-1 $16 #
shell $-1 $-1 $-1 $37 $-1 $18 #
shell $-1 $-1 $-1 $38 $-1 $20 #
shell $-1 $-1 $-1 $39 $-1 $22 #
face $-1 $40 $41 $24 $-1 $42 forward single #
face $-1 $43 $44 $25 $-1 $45 reversed single #
face $-1 $46 $47 $26 $-1 $48 reversed single #
face $-1 $49 $50 $27 $-1 $51 forward single #
face $-1 $52 $53 $28 $-1 $54 forward single #
face $-1 $55 $56 $29 $-1 $57 reversed single #
face $-1 $58 $59 $30 $-1 $60 forward single #
face $-1 $61 $62 $31 $-1 $63 forward single #
face $-1 $64 $65 $24 $-1 $66 reversed single #
loop $-1 $-1 $67 $32 #
plane-surface $-1 0 0 8.4532176824191048 0 0 1 1 0 0 forward_v I I I I #
face $-1 $68 $69 $25 $-1 $70 reversed single #
loop $-1 $-1 $71 $33 #
plane-surface $-1 -48.575991088595231 -17.397208517931716 0 0 -1 0 0 0 -1 forward_v I I I I #
face $-1 $72 $73 $26 $-1 $74 reversed single #
loop $-1 $-1 $75 $34 #
plane-surface $-1 -113.10367645941136 -3.152069170681786 79.61311260700208 0 1 0 -0.62932039886446345 0 0.77714595512881146 forward_v I I I I #
face $-1 $76 $77 $27 $-1 $78 forward single #
loop $-1 $79 $80 $35 #
cone-surface $-1 -44.723966164915964 -0.10130815319340769 3.5955338428693788 0.62932039886446345 0 -0.77714595512881146 0.77714595512881146 0 0.62932039886446345 1 I I 0 1 1 forward I I I I #
face $-1 $81 $82 $28 $-1 $83 forward single #
loop $-1 $84 $85 $36 #
cone-surface $-1 -44.723966164915964 4.4748333730391643 3.5955338428693788 0.62932039886446345 0 -0.77714595512881146 0.77714595512881146 0 0.62932039886446345 1 I I 0 1 1 forward I I I I #
face $-1 $86 $87 $29 $-1 $88 reversed single #
loop $-1 $-1 $89 $37 #
plane-surface $-1 18.2147591224183 19.559709627730221 141.73788982665599 0 -1 0 -0.52991927123019833 0 -0.84804809178421925 forward_v I I I I #
face $-1 $90 $91 $30 $-1 $92 forward single #
loop $-1 $93 $94 $38 #
cone-surface $-1 45.565223727158632 11.634429784266914 4.919770954299155 -0.52991927123019833 0 -0.84804809178421925 0.84804809178421925 0 -0.52991927123019833 1 I I 0 1 1 forward I I I I #
face $-1 $95 $96 $31 $-1 $97 forward single #
loop $-1 $98 $99 $39 #
cone-surface $-1 45.565223727158632 16.389597690344893 4.919770954299155 -0.52991927123019833 0 -0.84804809178421925 0.84804809178421925 0 -0.52991927123019833 1 I I 0 1 1 forward I I I I #
face $-1 $100 $101 $24 $-1 $102 reversed single #
loop $-1 $-1 $103 $40 #
plane-surface $-1 0 0 -8.4532176824191048 0 0 1 1 0 0 forward_v I I I I #
coedge $-1 $104 $105 $106 $107 forward $41 $-1 #
face $-1 $108 $109 $25 $-1 $110 forward single #
loop $-1 $-1 $111 $43 #
plane-surface $-1 -47.075991088595231 -20.595835712123151 0 -1 0 0 0 0 1 forward_v I I I I #
coedge $-1 $112 $113 $114 $115 forward $44 $-1 #
face $-1 $116 $117 $26 $-1 $118 reversed single #
loop $-1 $-1 $119 $46 #
plane-surface $-1 -50.075991088595224 2.1867626099228801 1.7804047598656894 -0.62932039886446345 0 0.77714595512881146 0.77714595512881146 0 0.62932039886446345 forward_v I I I I #
coedge $-1 $120 $121 $122 $123 reversed $47 $-1 #
face $-1 $-1 $124 $27 $-1 $125 forward single #
loop $-1 $126 $127 $49 #
cone-surface $-1 -43.17739980916901 -0.10130815319340769 1.6856834870319481 0.62932039886446345 0 -0.77714595512881146 0.38857297756440573 0 0.31466019943223172 1 I I -0.70710678118654746 0.70710678118654746 0.5 forward I I I I #
loop $-1 $-1 $128 $35 #
coedge $-1 $80 $80 $129 $130 reversed $50 $-1 #
face $-1 $-1 $131 $28 $-1 $132 forward single #
loop $-1 $133 $134 $52 #
cone-surface $-1 -43.17739980916901 4.4748333730391643 1.6856834870319481 0.62932039886446345 0 -0.77714595512881146 0.38857297756440573 0 0.31466019943223172 1 I I -0.70710678118654746 0.70710678118654746 0.5 forward I I I I #
loop $-1 $-1 $135 $36 #
coedge $-1 $85 $85 $136 $137 reversed $53 $-1 #
face $-1 $138 $139 $29 $-1 $140 reversed single #
loop $-1 $-1 $141 $55 #
plane-surface $-1 -34.857706285178281 14.012013737305907 56.804192452882475 0.52991927123019833 0 0.84804809178421925 0.84804809178421925 0 -0.52991927123019833 forward_v I I I I #
coedge $-1 $142 $143 $144 $145 reversed $56 $-1 #
face $-1 $-1 $146 $30 $-1 $147 forward single #
loop $-1 $148 $149 $58 #
cone-surface $-1 44.567478908319202 11.634429784266914 3.3230454988536913 -0.52991927123019833 0 -0.84804809178421925 0.42402404589210962 0 -0.26495963561509916 1 I I -0.70710678118654746 0.70710678118654746 0.5 forward I I I I #
loop $-1 $-1 $150 $38 #
coedge $-1 $94 $94 $151 $152 reversed $59 $-1 #
face $-1 $-1 $153 $31 $-1 $154 forward single #
loop $-1 $155 $156 $61 #
cone-surface $-1 44.567478908319202 16.389597690344893 3.3230454988536913 -0.52991927123019833 0 -0.84804809178421925 0.42402404589210962 0 -0.26495963561509916 1 I I -0.70710678118654746 0.70710678118654746 0.5 forward I I I I #
loop $-1 $-1 $157 $39 #
coedge $-1 $99 $99 $158 $159 reversed $62 $-1 #
face $-1 $160 $161 $24 $-1 $162 reversed single #
loop $-1 $-1 $163 $64 #
plane-surface $-1 0 -23.794462906314585 0 0 1 0 0 0 1 forward_v I I I I #
coedge $-1 $164 $165 $166 $167 forward $65 $-1 #
coedge $-1 $168 $67 $169 $170 forward $41 $-1 #
coedge $-1 $67 $168 $171 $172 forward $41 $-1 #
coedge $-1 $173 $174 $67 $107 reversed $175 $-1 #
edge $-1 $176 -23.794462906314585 $177 23.794462906314585 $106 $178 forward 7 unknown #
face $-1 $179 $180 $25 $-1 $181 reversed single #
loop $-1 $-1 $182 $68 #
plane-surface $-1 0 0 8.4532176824191048 0 0 1 1 0 0 forward_v I I I I #
coedge $-1 $183 $184 $185 $186 reversed $69 $-1 #
coedge $-1 $187 $71 $188 $189 reversed $44 $-1 #
coedge $-1 $71 $187 $190 $191 reversed $44 $-1 #
coedge $-1 $184 $183 $71 $115 reversed $69 $-1 #
edge $-1 $192 -8.4532176824191048 $193 8.4532176824191048 $114 $194 forward 7 unknown #
face $-1 $195 $196 $26 $-1 $197 reversed single #
loop $-1 $-1 $198 $72 #
plane-surface $-1 -113.10367645941136 7.5255943905275462 79.61311260700208 0 -1 0 0.62932039886446345 0 -0.77714595512881146 forward_v I I I I #
coedge $-1 $199 $200 $201 $202 reversed $73 $-1 #
coedge $-1 $121 $75 $203 $204 reversed $47 $-1 #
coedge $-1 $75 $120 $199 $205 reversed $47 $-1 #
coedge $-1 $201 $206 $75 $123 forward $207 $-1 #
edge $-1 $208 6.4758471411104495 $209 14.716084675839568 $122 $210 forward 7 unknown #
loop $-1 $-1 $129 $76 #
plane-surface $-1 -50.075991088595224 2.1867626099228801 1.7804047598656894 -0.62932039886446345 0 0.77714595512881146 0.77714595512881146 0 0.62932039886446345 forward_v I I I I #
loop $-1 $-1 $211 $49 #
coedge $-1 $127 $127 $128 $212 reversed $77 $-1 #
coedge $-1 $128 $128 $127 $212 forward $79 $-1 #
coedge $-1 $129 $129 $80 $130 forward $124 $-1 #
edge $-1 $213 0 $213 6.2831853071796004 $129 $214 forward 7 unknown #
loop $-1 $-1 $136 $81 #
plane-surface $-1 -50.075991088595224 2.1867626099228801 1.7804047598656894 -0.62932039886446345 0 0.77714595512881146 0.77714595512881146 0 0.62932039886446345 forward_v I I I I #
loop $-1 $-1 $215 $52 #
coedge $-1 $134 $134 $135 $216 reversed $82 $-1 #
coedge $-1 $135 $135 $134 $216 forward $84 $-1 #
coedge $-1 $136 $136 $85 $137 forward $131 $-1 #
edge $-1 $217 0 $217 6.2831853071796004 $136 $218 forward 7 unknown #
face $-1 $219 $220 $29 $-1 $221 forward single #
loop $-1 $-1 $222 $86 #
plane-surface $-1 18.2147591224183 8.4643178468815918 141.73788982665599 0 1 0 0.52991927123019833 0 0.84804809178421925 forward_v I I I I #
coedge $-1 $223 $224 $225 $226 reversed $87 $-1 #
coedge $-1 $143 $89 $227 $228 reversed $56 $-1 #
coedge $-1 $89 $142 $223 $229 reversed $56 $-1 #
coedge $-1 $225 $230 $89 $145 forward $220 $-1 #
edge $-1 $231 -40.968611527386081 $232 -33.412647170961471 $144 $233 forward 7 unknown #
loop $-1 $-1 $151 $90 #
plane-surface $-1 -34.857706285178281 14.012013737305907 56.804192452882475 0.52991927123019833 0 0.84804809178421925 0.84804809178421925 0 -0.52991927123019833 forward_v I I I I #
loop $-1 $-1 $234 $58 #
coedge $-1 $149 $149 $150 $235 reversed $91 $-1 #
coedge $-1 $150 $150 $149 $235 forward $93 $-1 #
coedge $-1 $151 $151 $94 $152 forward $146 $-1 #
edge $-1 $236 0 $236 6.2831853071796004 $151 $237 forward 7 unknown #
loop $-1 $-1 $158 $95 #
plane-surface $-1 -34.857706285178281 14.012013737305907 56.804192452882475 0.52991927123019833 0 0.84804809178421925 0.84804809178421925 0 -0.52991927123019833 forward_v I I I I #
loop $-1 $-1 $238 $61 #
coedge $-1 $156 $156 $157 $239 reversed $96 $-1 #
coedge $-1 $157 $157 $156 $239 forward $98 $-1 #
coedge $-1 $158 $158 $99 $159 forward $153 $-1 #
edge $-1 $240 0 $240 6.2831853071796004 $158 $241 forward 7 unknown #
face $-1 $242 $243 $24 $-1 $244 reversed single #
loop $-1 $-1 $245 $100 #
plane-surface $-1 -50.075991088595231 0 0 1 0 0 0 0 -1 forward_v I I I I #
coedge $-1 $246 $171 $247 $248 forward $101 $-1 #
coedge $-1 $249 $103 $246 $250 forward $65 $-1 #
coedge $-1 $103 $249 $251 $252 forward $65 $-1 #
coedge $-1 $174 $173 $103 $167 reversed $175 $-1 #
edge $-1 $253 -23.794462906314585 $254 23.794462906314585 $166 $255 forward 7 unknown #
coedge $-1 $105 $104 $256 $257 forward $41 $-1 #
coedge $-1 $258 $259 $104 $170 reversed $243 $-1 #
edge $-1 $177 -50.075991088595231 $260 50.075991088595231 $169 $261 forward 7 unknown #
coedge $-1 $163 $262 $105 $172 reversed $101 $-1 #
edge $-1 $263 -50.075991088595231 $176 50.075991088595231 $171 $264 forward 7 unknown #
coedge $-1 $166 $106 $262 $265 forward $175 $-1 #
coedge $-1 $106 $166 $258 $266 reversed $175 $-1 #
loop $-1 $-1 $173 $242 #
vertex $-1 $107 $267 #
vertex $-1 $107 $268 #
straight-curve $-1 50.075991088595231 0 8.4532176824191048 0 1 0 I I #
face $-1 $269 $270 $25 $-1 $271 reversed single #
loop $-1 $-1 $272 $108 #
plane-surface $-1 -50.075991088595231 0 0 1 0 0 0 0 -1 forward_v I I I I #
coedge $-1 $190 $273 $184 $274 forward $109 $-1 #
coedge $-1 $114 $111 $275 $276 reversed $69 $-1 #
coedge $-1 $111 $114 $182 $274 reversed $69 $-1 #
coedge $-1 $277 $278 $111 $186 forward $279 $-1 #
edge $-1 $280 -8.4532176824191048 $281 8.4532176824191048 $185 $282 forward 7 unknown #
coedge $-1 $113 $112 $272 $283 reversed $44 $-1 #
coedge $-1 $275 $284 $112 $189 forward $270 $-1 #
edge $-1 $285 -25.787995544297615 $193 -22.787995544297615 $188 $286 forward 7 unknown #
coedge $-1 $287 $182 $113 $191 forward $109 $-1 #
edge $-1 $192 22.787995544297615 $288 25.787995544297615 $190 $289 forward 7 unknown #
vertex $-1 $191 $290 #
vertex $-1 $189 $291 #
straight-curve $-1 -47.075991088595231 -17.397208517931716 0 0 0 -1 I I #
face $-1 $-1 $207 $26 $-1 $292 forward single #
loop $-1 $-1 $293 $116 #
plane-surface $-1 -50.075991088595231 0 0 1 0 0 0 0 -1 forward_v I I I I #
coedge $-1 $294 $295 $296 $297 reversed $117 $-1 #
coedge $-1 $298 $119 $121 $205 forward $73 $-1 #
coedge $-1 $119 $298 $294 $299 forward $73 $-1 #
coedge $-1 $296 $122 $119 $202 forward $207 $-1 #
edge $-1 $209 -4.2454504756432261 $300 6.4322130855661062 $201 $301 forward 7 unknown #
coedge $-1 $302 $303 $120 $204 forward $196 $-1 #
edge $-1 $304 -38.026151543635358 $208 -31.353338621081935 $203 $305 forward 7 unknown #
edge $-1 $209 -10.603204559384601 $304 9.1551213131864128e-015 $121 $306 forward 7 unknown #
coedge $-1 $122 $296 $302 $307 forward $207 $-1 #
loop $-1 $-1 $296 $195 #
vertex $-1 $204 $308 #
vertex $-1 $123 $309 #
straight-curve $-1 -56.55183822970568 -3.152069170681786 8.4532176824191083 1 0 0 I I #
coedge $-1 $211 $211 $-1 $310 reversed $126 $-1 #
edge $-1 $311 0 $311 6.2831853071796004 $127 $312 forward 7 unknown #
vertex $-1 $130 $313 #
ellipse-curve $-1 -45.955872321230672 -0.10130815319340769 5.1168112211423917 -0.62932039886446345 0 0.77714595512881146 0.77714595512881146 0 0.62932039886446345 1 I I #
coedge $-1 $215 $215 $-1 $314 reversed $133 $-1 #
edge $-1 $315 0 $315 6.2831853071796004 $134 $316 forward 7 unknown #
vertex $-1 $137 $317 #
ellipse-curve $-1 -45.955872321230672 4.4748333730391643 5.1168112211423917 -0.62932039886446345 0 0.77714595512881146 0.77714595512881146 0 0.62932039886446345 1 I I #
face $-1 $-1 $318 $29 $-1 $319 reversed single #
loop $-1 $-1 $144 $138 #
plane-surface $-1 0 0 8.4532176824191048 0 0 1 1 0 0 forward_v I I I I #
coedge $-1 $320 $321 $322 $323 reversed $139 $-1 #
coedge $-1 $324 $141 $143 $229 forward $87 $-1 #
coedge $-1 $141 $324 $320 $325 forward $87 $-1 #
coedge $-1 $322 $144 $141 $226 forward $220 $-1 #
edge $-1 $232 -12.553702759077268 $326 -1.4583109782286385 $225 $327 forward 7 unknown #
coedge $-1 $328 $329 $142 $228 forward $318 $-1 #
edge $-1 $330 -67.1372178680421 $231 -62.415727230908885 $227 $331 forward 7 unknown #
edge $-1 $232 91.24215214558518 $330 100.15198217719048 $143 $332 forward 7 unknown #
coedge $-1 $144 $322 $328 $333 forward $220 $-1 #
vertex $-1 $145 $334 #
vertex $-1 $145 $335 #
straight-curve $-1 9.1073795612091502 19.559709627730221 8.4532176824191083 -1 0 0 I I #
coedge $-1 $234 $234 $-1 $336 reversed $148 $-1 #
edge $-1 $337 0 $337 6.2831853071796004 $149 $338 forward 7 unknown #
vertex $-1 $152 $339 #
ellipse-curve $-1 46.298008910382947 11.634429784266914 6.0924723638524938 0.52991927123019833 0 0.84804809178421925 0.84804809178421925 0 -0.52991927123019833 1 I I #
coedge $-1 $238 $238 $-1 $340 reversed $155 $-1 #
edge $-1 $341 0 $341 6.2831853071796004 $156 $342 forward 7 unknown #
vertex $-1 $159 $343 #
ellipse-curve $-1 46.298008910382947 16.389597690344893 6.0924723638524938 0.52991927123019833 0 0.84804809178421925 0.84804809178421925 0 -0.52991927123019833 1 I I #
face $-1 $-1 $175 $24 $-1 $344 reversed single #
loop $-1 $-1 $258 $160 #
plane-surface $-1 0 23.794462906314585 0 0 -1 0 0 0 -1 forward_v I I I I #
coedge $-1 $345 $256 $259 $346 forward $161 $-1 #
coedge $-1 $262 $163 $164 $250 reversed $101 $-1 #
coedge $-1 $256 $345 $163 $248 reversed $161 $-1 #
edge $-1 $263 -8.4532176824191048 $347 8.4532176824191048 $247 $348 forward 7 unknown #
coedge $-1 $165 $164 $345 $349 forward $65 $-1 #
edge $-1 $254 -50.075991088595231 $347 50.075991088595231 $246 $350 forward 7 unknown #
coedge $-1 $259 $258 $165 $252 reversed $243 $-1 #
edge $-1 $351 -50.075991088595231 $253 50.075991088595231 $251 $352 forward 7 unknown #
vertex $-1 $167 $353 #
vertex $-1 $265 $354 #
straight-curve $-1 50.075991088595231 0 -8.4532176824191048 0 -1 0 I I #
coedge $-1 $245 $247 $168 $257 reversed $161 $-1 #
edge $-1 $260 -23.794462906314585 $263 23.794462906314585 $256 $355 forward 7 unknown #
coedge $-1 $251 $169 $174 $266 forward $243 $-1 #
coedge $-1 $169 $251 $245 $346 reversed $243 $-1 #
vertex $-1 $170 $356 #
straight-curve $-1 0 23.794462906314585 8.4532176824191048 -1 0 0 I I #
coedge $-1 $171 $246 $173 $265 reversed $101 $-1 #
vertex $-1 $257 $357 #
straight-curve $-1 0 -23.794462906314585 8.4532176824191048 1 0 0 I I #
edge $-1 $176 -8.4532176824191048 $254 8.4532176824191048 $173 $358 forward 7 unknown #
edge $-1 $177 -8.4532176824191048 $253 8.4532176824191048 $174 $359 forward 7 unknown #
point $-1 50.075991088595231 -23.794462906314585 8.4532176824191048 #
point $-1 50.075991088595231 23.794462906314585 8.4532176824191048 #
face $-1 $-1 $279 $25 $-1 $360 reversed single #
loop $-1 $-1 $275 $179 #
plane-surface $-1 0 0 -8.4532176824191048 0 0 1 1 0 0 forward_v I I I I #
coedge $-1 $361 $362 $187 $283 forward $180 $-1 #
coedge $-1 $182 $287 $277 $363 forward $109 $-1 #
edge $-1 $281 -13.49654505025301 $192 -7.0992906618701408 $182 $364 forward 7 unknown #
coedge $-1 $365 $188 $183 $276 forward $270 $-1 #
edge $-1 $193 7.0992906618701408 $280 13.49654505025301 $275 $366 forward 7 unknown #
coedge $-1 $367 $185 $273 $363 reversed $279 $-1 #
coedge $-1 $185 $367 $365 $368 reversed $279 $-1 #
loop $-1 $-1 $185 $269 #
vertex $-1 $368 $369 #
vertex $-1 $186 $370 #
straight-curve $-1 -47.075991088595231 -23.794462906314585 0 0 0 1 I I #
edge $-1 $288 -8.4532176824191048 $285 8.4532176824191048 $272 $371 forward 7 unknown #
coedge $-1 $188 $365 $361 $372 forward $270 $-1 #
vertex $-1 $189 $373 #
straight-curve $-1 -24.287995544297615 -17.397208517931716 -8.4532176824191048 1 0 0 I I #
coedge $-1 $273 $190 $362 $374 forward $109 $-1 #
vertex $-1 $374 $375 #
straight-curve $-1 -24.287995544297615 -17.397208517931716 8.4532176824191048 -1 0 0 I I #
point $-1 -47.075991088595231 -17.397208517931716 8.4532176824191048 #
point $-1 -47.075991088595231 -17.397208517931716 -8.4532176824191048 #
plane-surface $-1 0 0 8.4532176824191048 0 0 1 1 0 0 forward_v I I I I #
coedge $-1 $303 $302 $295 $376 forward $196 $-1 #
coedge $-1 $295 $198 $200 $299 reversed $117 $-1 #
coedge $-1 $198 $294 $293 $376 reversed $117 $-1 #
coedge $-1 $206 $201 $198 $297 forward $207 $-1 #
edge $-1 $300 -14.716084675839568 $377 -6.4758471411104495 $296 $378 forward 7 unknown #
coedge $-1 $200 $199 $303 $379 reversed $73 $-1 #
edge $-1 $380 -9.1551213131864128e-015 $300 10.603204559384601 $294 $381 forward 7 unknown #
vertex $-1 $202 $382 #
straight-curve $-1 -41.835753553866112 1.09338130496144 8.4532176824191048 0 1 0 I I #
coedge $-1 $293 $203 $206 $307 reversed $196 $-1 #
coedge $-1 $203 $293 $298 $379 forward $196 $-1 #
vertex $-1 $204 $383 #
straight-curve $-1 -50.075991088595231 -3.152069170681786 39.80655630350104 0 0 1 I I #
straight-curve $-1 -50.075991088595224 -3.152069170681786 1.7804047598656894 -0.77714595512881146 0 -0.62932039886446345 I I #
edge $-1 $377 -7.5255943905275462 $208 3.152069170681786 $302 $384 forward 7 unknown #
point $-1 -50.075991088595231 -3.152069170681786 8.4532176824191048 #
point $-1 -41.835753553866112 -3.152069170681786 8.4532176824191048 #
edge $-1 $385 1 $385 0 $211 $-1 forward 7 unknown #
vertex $-1 $212 $386 #
ellipse-curve $-1 -43.492060008601243 -0.10130815319340769 2.0742564645963539 -0.62932039886446345 0 0.77714595512881146 0.77714595512881146 0 0.62932039886446345 1 I I #
point $-1 -45.17872636610187 -0.10130815319340769 5.7461316200068682 #
edge $-1 $387 1 $387 0 $215 $-1 forward 7 unknown #
vertex $-1 $216 $388 #
ellipse-curve $-1 -43.492060008601243 4.4748333730391643 2.0742564645963539 -0.62932039886446345 0 0.77714595512881146 0.77714595512881146 0 0.62932039886446345 1 I I #
point $-1 -45.17872636610187 4.4748333730391643 5.7461316200068682 #
loop $-1 $-1 $227 $219 #
plane-surface $-1 50.075991088595231 0 0 -1 0 0 0 0 1 forward_v I I I I #
coedge $-1 $321 $222 $224 $325 reversed $139 $-1 #
coedge $-1 $222 $320 $389 $390 reversed $139 $-1 #
coedge $-1 $230 $225 $222 $323 forward $220 $-1 #
edge $-1 $326 33.412647170961471 $391 40.968611527386081 $322 $392 forward 7 unknown #
coedge $-1 $224 $223 $329 $393 reversed $87 $-1 #
edge $-1 $394 -100.15198217719048 $326 -91.24215214558518 $320 $395 forward 7 unknown #
vertex $-1 $226 $396 #
straight-curve $-1 42.520026732170635 7.0060068686529533 8.4532176824191012 0 -1 0 I I #
coedge $-1 $389 $227 $230 $333 reversed $318 $-1 #
coedge $-1 $227 $389 $324 $393 forward $318 $-1 #
vertex $-1 $228 $397 #
straight-curve $-1 50.075991088595231 19.559709627730221 70.868944913327994 0 0 1 I I #
straight-curve $-1 -34.857706285178281 19.559709627730221 56.804192452882475 0.84804809178421925 0 -0.52991927123019833 I I #
edge $-1 $391 8.4643178468815918 $231 19.559709627730221 $328 $398 forward 7 unknown #
point $-1 50.075991088595231 19.559709627730221 8.4532176824191048 #
point $-1 42.520026732170621 19.559709627730221 8.4532176824191083 #
edge $-1 $399 1 $399 0 $234 $-1 forward 7 unknown #
vertex $-1 $235 $400 #
ellipse-curve $-1 44.832438543934302 11.634429784266914 3.7470695447458011 0.52991927123019833 0 0.84804809178421925 0.84804809178421925 0 -0.52991927123019833 1 I I #
point $-1 47.146057002167176 11.634429784266914 5.562553092622311 #
edge $-1 $401 1 $401 0 $238 $-1 forward 7 unknown #
vertex $-1 $239 $402 #
ellipse-curve $-1 44.832438543934302 16.389597690344893 3.7470695447458011 0.52991927123019833 0 0.84804809178421925 0.84804809178421925 0 -0.52991927123019833 1 I I #
point $-1 47.146057002167176 16.389597690344893 5.562553092622311 #
plane-surface $-1 50.075991088595231 0 0 -1 0 0 0 0 1 forward_v I I I I #
coedge $-1 $247 $245 $249 $349 reversed $161 $-1 #
edge $-1 $260 -8.4532176824191048 $351 8.4532176824191048 $259 $403 forward 7 unknown #
vertex $-1 $349 $404 #
straight-curve $-1 -50.075991088595231 -23.794462906314585 0 0 0 -1 I I #
edge $-1 $347 -23.794462906314585 $351 23.794462906314585 $345 $405 forward 7 unknown #
straight-curve $-1 0 -23.794462906314585 -8.4532176824191048 -1 0 0 I I #
vertex $-1 $252 $406 #
straight-curve $-1 0 23.794462906314585 -8.4532176824191048 1 0 0 I I #
point $-1 50.075991088595231 23.794462906314585 -8.4532176824191048 #
point $-1 50.075991088595231 -23.794462906314585 -8.4532176824191048 #
straight-curve $-1 -50.075991088595231 0 8.4532176824191048 0 -1 0 I I #
point $-1 -50.075991088595231 23.794462906314585 8.4532176824191048 #
point $-1 -50.075991088595231 -23.794462906314585 8.4532176824191048 #
straight-curve $-1 50.075991088595231 -23.794462906314585 0 0 0 -1 I I #
straight-curve $-1 50.075991088595231 23.794462906314585 0 0 0 -1 I I #
plane-surface $-1 0 -23.794462906314585 0 0 1 0 0 0 1 forward_v I I I I #
coedge $-1 $407 $272 $284 $372 reversed $180 $-1 #
coedge $-1 $272 $407 $287 $374 reversed $180 $-1 #
edge $-1 $408 -50.075991088595231 $281 -47.075991088595231 $277 $409 forward 7 unknown #
straight-curve $-1 -47.075991088595231 -10.297917856061575 8.4532176824191048 0 1 0 I I #
coedge $-1 $284 $275 $278 $368 forward $270 $-1 #
straight-curve $-1 -47.075991088595231 -10.297917856061575 -8.4532176824191048 0 -1 0 I I #
coedge $-1 $278 $277 $407 $410 forward $279 $-1 #
edge $-1 $280 47.075991088595231 $411 50.075991088595231 $278 $412 forward 7 unknown #
point $-1 -47.075991088595231 -23.794462906314585 -8.4532176824191048 #
point $-1 -47.075991088595231 -23.794462906314585 8.4532176824191048 #
straight-curve $-1 -50.075991088595231 -17.397208517931716 0 0 0 -1 I I #
edge $-1 $411 -23.794462906314585 $285 -17.397208517931716 $361 $413 forward 7 unknown #
point $-1 -50.075991088595231 -17.397208517931716 -8.4532176824191048 #
edge $-1 $288 17.397208517931716 $408 23.794462906314585 $362 $414 forward 7 unknown #
point $-1 -50.075991088595231 -17.397208517931716 8.4532176824191048 #
edge $-1 $377 31.353338621081935 $380 38.026151543635358 $293 $415 forward 7 unknown #
vertex $-1 $307 $416 #
straight-curve $-1 -56.55183822970568 7.5255943905275462 8.4532176824191083 -1 0 0 I I #
edge $-1 $380 -6.4322130855661062 $304 4.2454504756432261 $303 $417 forward 7 unknown #
vertex $-1 $379 $418 #
straight-curve $-1 -50.075991088595224 7.5255943905275462 1.7804047598656894 0.77714595512881146 0 0.62932039886446345 I I #
point $-1 -41.835753553866112 7.5255943905275462 8.4532176824191048 #
point $-1 -50.075991088595231 -3.152069170681786 1.7804047598656836 #
straight-curve $-1 -50.075991088595231 0 8.4532176824191048 0 -1 0 I I #
vertex $-1 $310 $419 #
point $-1 -42.714914053472434 -0.10130815319340769 2.7035768634608175 #
vertex $-1 $314 $420 #
point $-1 -42.714914053472434 4.4748333730391643 2.7035768634608175 #
coedge $-1 $329 $328 $321 $390 forward $318 $-1 #
edge $-1 $391 62.415727230908885 $394 67.1372178680421 $389 $421 forward 7 unknown #
vertex $-1 $333 $422 #
straight-curve $-1 9.1073795612091502 8.4643178468815918 8.4532176824191083 1 0 0 I I #
edge $-1 $394 1.4583109782286385 $330 12.553702759077268 $329 $423 forward 7 unknown #
vertex $-1 $393 $424 #
straight-curve $-1 -34.857706285178281 8.4643178468815918 56.804192452882475 -0.84804809178421925 0 0.52991927123019833 I I #
point $-1 42.520026732170621 8.4643178468815918 8.4532176824191083 #
point $-1 50.075991088595231 19.559709627730221 3.7317270452858935 #
straight-curve $-1 50.075991088595231 0 8.4532176824191048 0 1 0 I I #
vertex $-1 $336 $425 #
point $-1 45.680486635718523 11.634429784266914 3.2171502735156023 #
vertex $-1 $340 $426 #
point $-1 45.680486635718523 16.389597690344893 3.2171502735156023 #
straight-curve $-1 -50.075991088595231 23.794462906314585 0 0 0 -1 I I #
point $-1 -50.075991088595231 -23.794462906314585 -8.4532176824191048 #
straight-curve $-1 -50.075991088595231 0 -8.4532176824191048 0 1 0 I I #
point $-1 -50.075991088595231 23.794462906314585 -8.4532176824191048 #
coedge $-1 $362 $361 $367 $410 reversed $180 $-1 #
vertex $-1 $374 $427 #
straight-curve $-1 0 -23.794462906314585 8.4532176824191048 1 0 0 I I #
edge $-1 $408 -8.4532176824191048 $411 8.4532176824191048 $407 $428 forward 7 unknown #
vertex $-1 $372 $429 #
straight-curve $-1 0 -23.794462906314585 -8.4532176824191048 -1 0 0 I I #
straight-curve $-1 -50.075991088595231 0 -8.4532176824191048 0 1 0 I I #
straight-curve $-1 -50.075991088595231 0 8.4532176824191048 0 -1 0 I I #
straight-curve $-1 -50.075991088595231 7.5255943905275462 39.80655630350104 0 0 -1 I I #
point $-1 -50.075991088595231 7.5255943905275462 8.4532176824191048 #
straight-curve $-1 -50.075991088595231 1.09338130496144 1.7804047598656876 0 -1 0 I I #
point $-1 -50.075991088595231 7.5255943905275462 1.7804047598656836 #
point $-1 -42.862739609736778 -0.10130815319340769 1.2971105094675424 #
point $-1 -42.862739609736778 4.4748333730391643 1.2971105094675424 #
straight-curve $-1 50.075991088595231 8.4643178468815918 70.868944913327994 0 0 -1 I I #
point $-1 50.075991088595231 8.4643178468815918 8.4532176824191048 #
straight-curve $-1 50.075991088595238 7.0060068686529533 3.7317270452858899 0 1 0 I I #
point $-1 50.075991088595231 8.4643178468815918 3.7317270452858935 #
point $-1 44.302519272704103 11.634429784266914 2.8990214529615814 #
point $-1 44.302519272704103 16.389597690344893 2.8990214529615814 #
point $-1 -50.075991088595231 -23.794462906314585 8.4532176824191048 #
straight-curve $-1 -50.075991088595231 -23.794462906314585 0 0 0 -1 I I #
point $-1 -50.075991088595231 -23.794462906314585 -8.4532176824191048 #
End-of-ACIS-data 