500 0 5 0           
7 Unknown 11 ACIS 5.0 NT 24 Fri Mar 26 20:38:09 1999 
-1 9.9999999999999995e-007 1e-010 
body $-1 $5 $-1 $6 #
body $-1 $7 $-1 $8 #
body $-1 $9 $-1 $10 #
body $-1 $11 $-1 $12 #
body $-1 $13 $-1 $14 #
lump $-1 $-1 $15 $0 #
transform $-1 1 0 0 0 1 0 0 0 1 40.402844325083166 22.877230520641593 9.0137698572860252 1 rotate no_reflect no_shear #
lump $-1 $-1 $16 $1 #
transform $-1 1 0 0 0 1 0 0 0 1 40.402844325083166 22.877230520641593 9.0137698572860252 1 rotate no_reflect no_shear #
lump $-1 $-1 $17 $2 #
transform $-1 1 0 0 0 1 0 0 0 1 40.402844325083166 22.877230520641593 9.0137698572860252 1 rotate no_reflect no_shear #
lump $-1 $-1 $18 $3 #
transform $-1 1 0 0 0 1 0 0 0 1 40.402844325083166 22.877230520641593 9.0137698572860252 1 rotate no_reflect no_shear #
lump $-1 $-1 $19 $4 #
transform $-1 1 0 0 0 1 0 0 0 1 40.402844325083166 22.877230520641593 9.0137698572860252 1 rotate no_reflect no_shear #
shell $-1 $-1 $-1 $20 $-1 $5 #
shell $-1 $-1 $-1 $21 $-1 $7 #
shell $-1 $-1 $-1 $22 $-1 $9 #
shell $-1 $-1 $-1 $23 $-1 $11 #
shell $-1 $-1 $-1 $24 $-1 $13 #
face $-1 $25 $26 $15 $-1 $27 forward single #
face $-1 $28 $29 $16 $-1 $30 reversed single #
face $-1 $31 $32 $17 $-1 $33 reversed single #
face $-1 $34 $35 $18 $-1 $36 reversed single #
face $-1 $37 $38 $19 $-1 $39 forward single #
face $-1 $40 $41 $15 $-1 $42 reversed single #
loop $-1 $-1 $43 $20 #
plane-surface $-1 0 0 9.0137698572860252 0 0 1 1 0 0 forward_v I I I I #
face $-1 $44 $45 $16 $-1 $46 reversed single #
loop $-1 $-1 $47 $21 #
plane-surface $-1 -26.196095499386765 -17.017650164586033 0 1 0 0 0 0 -1 forward_v I I I I #
face $-1 $48 $49 $17 $-1 $50 reversed single #
loop $-1 $-1 $51 $22 #
plane-surface $-1 -24.28570005494894 11.158069808530474 0 0 1 0 0 0 1 forward_v I I I I #
face $-1 $52 $53 $18 $-1 $54 reversed single #
loop $-1 $-1 $55 $23 #
plane-surface $-1 -94.472404419101991 -0.47962753667124502 61.365330513861053 0 1 0 -0.66913061440640931 0 0.74314481823134659 forward_v I I I I #
face $-1 $56 $57 $19 $-1 $58 forward single #
loop $-1 $59 $60 $24 #
cone-surface $-1 -35.033571182886604 2.7248680753511607 3.9492656475045873 0.66913061440640931 0 -0.74314481823134659 0.74314481823134659 0 0.66913061440640931 1 I I 0 1 1 forward I I I I #
face $-1 $61 $62 $15 $-1 $63 reversed single #
loop $-1 $-1 $64 $25 #
plane-surface $-1 0 0 -9.0137698572860252 0 0 1 1 0 0 forward_v I I I I #
coedge $-1 $65 $66 $67 $68 forward $26 $-1 #
face $-1 $69 $70 $16 $-1 $71 reversed single #
loop $-1 $-1 $72 $28 #
plane-surface $-1 -24.28570005494894 -11.158069808530474 0 0 -1 0 0 0 -1 forward_v I I I I #
coedge $-1 $73 $74 $75 $76 forward $29 $-1 #
face $-1 $77 $78 $17 $-1 $79 reversed single #
loop $-1 $-1 $80 $31 #
plane-surface $-1 -26.196095499386765 17.017650164586033 0 1 0 0 0 0 -1 forward_v I I I I #
coedge $-1 $81 $82 $83 $84 forward $32 $-1 #
face $-1 $85 $86 $18 $-1 $87 reversed single #
loop $-1 $-1 $88 $34 #
plane-surface $-1 -40.40284432508318 2.7248680753511607 1.3150017098744087 -0.66913061440640931 0 0.74314481823134659 0.74314481823134659 0 0.66913061440640931 forward_v I I I I #
coedge $-1 $89 $90 $91 $92 reversed $35 $-1 #
face $-1 $-1 $93 $19 $-1 $94 forward single #
loop $-1 $95 $96 $37 #
cone-surface $-1 -33.604906767026534 2.7248680753511607 2.3625731023132897 0.66913061440640931 0 -0.74314481823134659 0.3715724091156733 0 0.33456530720320465 1 I I -0.70710678118654746 0.70710678118654746 0.5 forward I I I I #
loop $-1 $-1 $97 $24 #
coedge $-1 $60 $60 $98 $99 reversed $38 $-1 #
face $-1 $100 $101 $15 $-1 $102 reversed single #
loop $-1 $-1 $103 $40 #
plane-surface $-1 0 -22.877230520641593 0 0 1 0 0 0 1 forward_v I I I I #
coedge $-1 $104 $105 $106 $107 forward $41 $-1 #
coedge $-1 $108 $43 $109 $110 forward $26 $-1 #
coedge $-1 $43 $108 $111 $112 forward $26 $-1 #
coedge $-1 $113 $114 $43 $68 reversed $115 $-1 #
edge $-1 $116 -22.877230520641593 $117 22.877230520641593 $67 $118 forward 7 unknown #
face $-1 $119 $120 $16 $-1 $121 forward single #
loop $-1 $-1 $122 $44 #
plane-surface $-1 -22.375304610511115 -17.017650164586033 0 -1 0 0 0 0 1 forward_v I I I I #
coedge $-1 $123 $124 $125 $126 forward $45 $-1 #
coedge $-1 $127 $47 $128 $129 reversed $29 $-1 #
coedge $-1 $47 $127 $130 $131 reversed $29 $-1 #
coedge $-1 $124 $123 $47 $76 reversed $45 $-1 #
edge $-1 $132 -9.0137698572860252 $133 9.0137698572860252 $75 $134 forward 7 unknown #
face $-1 $135 $136 $17 $-1 $137 reversed single #
loop $-1 $-1 $138 $48 #
plane-surface $-1 -22.375304610511115 17.017650164586033 0 -1 0 0 0 0 1 forward_v I I I I #
coedge $-1 $139 $140 $141 $142 reversed $49 $-1 #
coedge $-1 $143 $51 $144 $145 reversed $32 $-1 #
coedge $-1 $51 $143 $146 $147 reversed $32 $-1 #
coedge $-1 $140 $139 $51 $84 reversed $49 $-1 #
edge $-1 $148 -9.0137698572860252 $149 9.0137698572860252 $83 $150 forward 7 unknown #
face $-1 $151 $152 $18 $-1 $153 reversed single #
loop $-1 $-1 $154 $52 #
plane-surface $-1 -94.472404419101991 5.9293636873735664 61.365330513861053 0 -1 0 0.66913061440640931 0 -0.74314481823134659 forward_v I I I I #
coedge $-1 $155 $156 $157 $158 reversed $53 $-1 #
coedge $-1 $90 $55 $159 $160 reversed $35 $-1 #
coedge $-1 $55 $89 $155 $161 reversed $35 $-1 #
coedge $-1 $157 $162 $55 $92 forward $163 $-1 #
edge $-1 $164 6.83335788446783 $165 15.383705951547206 $91 $166 forward 7 unknown #
loop $-1 $-1 $98 $56 #
plane-surface $-1 -40.40284432508318 2.7248680753511607 1.3150017098744087 -0.66913061440640931 0 0.74314481823134659 0.74314481823134659 0 0.66913061440640931 forward_v I I I I #
loop $-1 $-1 $167 $37 #
coedge $-1 $96 $96 $97 $168 reversed $57 $-1 #
coedge $-1 $97 $97 $96 $168 forward $59 $-1 #
coedge $-1 $98 $98 $60 $99 forward $93 $-1 #
edge $-1 $169 0 $169 6.2831853071796004 $98 $170 forward 7 unknown #
face $-1 $171 $172 $15 $-1 $173 reversed single #
loop $-1 $-1 $174 $61 #
plane-surface $-1 -40.402844325083166 0 0 1 0 0 0 0 -1 forward_v I I I I #
coedge $-1 $175 $111 $176 $177 forward $62 $-1 #
coedge $-1 $178 $64 $175 $179 forward $41 $-1 #
coedge $-1 $64 $178 $180 $181 forward $41 $-1 #
coedge $-1 $114 $113 $64 $107 reversed $115 $-1 #
edge $-1 $182 -22.877230520641593 $183 22.877230520641593 $106 $184 forward 7 unknown #
coedge $-1 $66 $65 $185 $186 forward $26 $-1 #
coedge $-1 $187 $188 $65 $110 reversed $172 $-1 #
edge $-1 $117 -40.402844325083166 $189 40.402844325083166 $109 $190 forward 7 unknown #
coedge $-1 $103 $191 $66 $112 reversed $62 $-1 #
edge $-1 $192 -40.402844325083166 $116 40.402844325083166 $111 $193 forward 7 unknown #
coedge $-1 $106 $67 $191 $194 forward $115 $-1 #
coedge $-1 $67 $106 $187 $195 reversed $115 $-1 #
loop $-1 $-1 $113 $171 #
vertex $-1 $68 $196 #
vertex $-1 $68 $197 #
straight-curve $-1 40.402844325083166 0 9.0137698572860252 0 1 0 I I #
face $-1 $198 $199 $16 $-1 $200 reversed single #
loop $-1 $-1 $201 $69 #
plane-surface $-1 0 0 9.0137698572860252 0 0 1 1 0 0 forward_v I I I I #
coedge $-1 $202 $203 $204 $205 reversed $70 $-1 #
coedge $-1 $75 $72 $206 $207 reversed $45 $-1 #
coedge $-1 $72 $75 $208 $209 reversed $45 $-1 #
coedge $-1 $203 $202 $72 $126 reversed $70 $-1 #
edge $-1 $210 -9.0137698572860252 $211 9.0137698572860252 $125 $212 forward 7 unknown #
coedge $-1 $74 $73 $213 $214 reversed $29 $-1 #
coedge $-1 $206 $215 $73 $129 forward $199 $-1 #
edge $-1 $216 -14.368405438348576 $133 -2.6492447262374572 $128 $217 forward 7 unknown #
coedge $-1 $218 $208 $74 $131 forward $120 $-1 #
edge $-1 $132 2.6492447262374572 $219 14.368405438348576 $130 $220 forward 7 unknown #
vertex $-1 $131 $221 #
vertex $-1 $129 $222 #
straight-curve $-1 -26.196095499386765 -11.158069808530474 0 0 0 -1 I I #
face $-1 $223 $224 $17 $-1 $225 forward single #
loop $-1 $-1 $226 $77 #
plane-surface $-1 0 0 -9.0137698572860252 0 0 1 1 0 0 forward_v I I I I #
coedge $-1 $227 $228 $143 $229 forward $78 $-1 #
coedge $-1 $83 $80 $230 $231 reversed $49 $-1 #
coedge $-1 $80 $83 $232 $233 reversed $49 $-1 #
coedge $-1 $234 $235 $80 $142 forward $236 $-1 #
edge $-1 $237 -9.0137698572860252 $238 9.0137698572860252 $141 $239 forward 7 unknown #
coedge $-1 $82 $81 $138 $229 reversed $32 $-1 #
coedge $-1 $230 $226 $81 $145 forward $136 $-1 #
edge $-1 $240 10.232454583036645 $149 14.053245471912295 $144 $241 forward 7 unknown #
coedge $-1 $242 $232 $82 $147 forward $224 $-1 #
edge $-1 $148 -14.053245471912295 $243 -10.232454583036645 $146 $244 forward 7 unknown #
vertex $-1 $147 $245 #
vertex $-1 $145 $246 #
straight-curve $-1 -26.196095499386765 11.158069808530474 0 0 0 -1 I I #
face $-1 $-1 $163 $18 $-1 $247 forward single #
loop $-1 $-1 $248 $85 #
plane-surface $-1 -40.402844325083166 0 0 1 0 0 0 0 -1 forward_v I I I I #
coedge $-1 $249 $250 $251 $252 reversed $86 $-1 #
coedge $-1 $253 $88 $90 $161 forward $53 $-1 #
coedge $-1 $88 $253 $249 $254 forward $53 $-1 #
coedge $-1 $251 $91 $88 $158 forward $163 $-1 #
edge $-1 $165 -1.8420615743468254 $255 4.5669296496979861 $157 $256 forward 7 unknown #
coedge $-1 $257 $258 $89 $160 forward $152 $-1 #
edge $-1 $259 -29.367663547056104 $164 -21.668895399644502 $159 $260 forward 7 unknown #
edge $-1 $165 -11.505628320774488 $259 -1.9178179933549516e-014 $90 $261 forward 7 unknown #
coedge $-1 $91 $251 $257 $262 forward $163 $-1 #
loop $-1 $-1 $251 $151 #
vertex $-1 $160 $263 #
vertex $-1 $92 $264 #
straight-curve $-1 -47.236202209550996 -0.47962753667124502 9.0137698572860252 1 0 0 I I #
coedge $-1 $167 $167 $-1 $265 reversed $95 $-1 #
edge $-1 $266 0 $266 6.2831853071796004 $96 $267 forward 7 unknown #
vertex $-1 $99 $268 #
ellipse-curve $-1 -36.127670291543474 2.7248680753511607 5.164385783580224 -0.66913061440640931 0 0.74314481823134659 0.74314481823134659 0 0.66913061440640931 1 I I #
face $-1 $-1 $115 $15 $-1 $269 reversed single #
loop $-1 $-1 $187 $100 #
plane-surface $-1 0 22.877230520641593 0 0 -1 0 0 0 -1 forward_v I I I I #
coedge $-1 $270 $185 $188 $271 forward $101 $-1 #
coedge $-1 $191 $103 $104 $179 reversed $62 $-1 #
coedge $-1 $185 $270 $103 $177 reversed $101 $-1 #
edge $-1 $192 -9.0137698572860252 $272 9.0137698572860252 $176 $273 forward 7 unknown #
coedge $-1 $105 $104 $270 $274 forward $41 $-1 #
edge $-1 $183 -40.402844325083166 $272 40.402844325083166 $175 $275 forward 7 unknown #
coedge $-1 $188 $187 $105 $181 reversed $172 $-1 #
edge $-1 $276 -40.402844325083166 $182 40.402844325083166 $180 $277 forward 7 unknown #
vertex $-1 $107 $278 #
vertex $-1 $194 $279 #
straight-curve $-1 40.402844325083166 0 -9.0137698572860252 0 -1 0 I I #
coedge $-1 $174 $176 $108 $186 reversed $101 $-1 #
edge $-1 $189 -22.877230520641593 $192 22.877230520641593 $185 $280 forward 7 unknown #
coedge $-1 $180 $109 $114 $195 forward $172 $-1 #
coedge $-1 $109 $180 $174 $271 reversed $172 $-1 #
vertex $-1 $110 $281 #
straight-curve $-1 0 22.877230520641593 9.0137698572860252 -1 0 0 I I #
coedge $-1 $111 $175 $113 $194 reversed $62 $-1 #
vertex $-1 $186 $282 #
straight-curve $-1 0 -22.877230520641593 9.0137698572860252 1 0 0 I I #
edge $-1 $116 -9.0137698572860252 $183 9.0137698572860252 $113 $283 forward 7 unknown #
edge $-1 $117 -9.0137698572860252 $182 9.0137698572860252 $114 $284 forward 7 unknown #
point $-1 40.402844325083166 -22.877230520641593 9.0137698572860252 #
point $-1 40.402844325083166 22.877230520641593 9.0137698572860252 #
face $-1 $-1 $285 $16 $-1 $286 reversed single #
loop $-1 $-1 $287 $119 #
plane-surface $-1 0 0 -9.0137698572860252 0 0 1 1 0 0 forward_v I I I I #
coedge $-1 $208 $218 $203 $288 forward $120 $-1 #
coedge $-1 $125 $122 $287 $289 reversed $70 $-1 #
coedge $-1 $122 $125 $201 $288 reversed $70 $-1 #
coedge $-1 $290 $291 $122 $205 forward $285 $-1 #
edge $-1 $292 -9.0137698572860252 $293 9.0137698572860252 $204 $294 forward 7 unknown #
coedge $-1 $287 $128 $123 $207 forward $199 $-1 #
edge $-1 $133 -14.053245471912295 $211 -10.232454583036645 $206 $295 forward 7 unknown #
coedge $-1 $130 $201 $124 $209 forward $120 $-1 #
edge $-1 $210 10.232454583036645 $132 14.053245471912295 $208 $296 forward 7 unknown #
vertex $-1 $209 $297 #
vertex $-1 $207 $298 #
straight-curve $-1 -22.375304610511115 -11.158069808530474 0 0 0 -1 I I #
coedge $-1 $291 $290 $127 $214 forward $285 $-1 #
edge $-1 $219 -9.0137698572860252 $216 9.0137698572860252 $213 $299 forward 7 unknown #
coedge $-1 $128 $287 $291 $300 forward $199 $-1 #
vertex $-1 $129 $301 #
straight-curve $-1 -26.196095499386765 -8.5088250822930167 -9.0137698572860252 0 1 0 I I #
coedge $-1 $201 $130 $290 $302 forward $120 $-1 #
vertex $-1 $302 $303 #
straight-curve $-1 -26.196095499386765 -8.5088250822930167 9.0137698572860252 0 -1 0 I I #
point $-1 -26.196095499386765 -11.158069808530474 9.0137698572860252 #
point $-1 -26.196095499386765 -11.158069808530474 -9.0137698572860252 #
face $-1 $-1 $236 $17 $-1 $304 reversed single #
loop $-1 $-1 $242 $135 #
plane-surface $-1 0 0 9.0137698572860252 0 0 1 1 0 0 forward_v I I I I #
coedge $-1 $144 $305 $227 $306 forward $136 $-1 #
coedge $-1 $307 $138 $226 $306 reversed $78 $-1 #
coedge $-1 $138 $307 $242 $308 reversed $78 $-1 #
edge $-1 $243 -9.0137698572860252 $240 9.0137698572860252 $138 $309 forward 7 unknown #
coedge $-1 $305 $144 $139 $231 forward $136 $-1 #
edge $-1 $149 2.6492447262374572 $237 14.368405438348576 $230 $310 forward 7 unknown #
coedge $-1 $146 $311 $140 $233 forward $224 $-1 #
edge $-1 $238 -14.368405438348576 $148 -2.6492447262374572 $232 $312 forward 7 unknown #
coedge $-1 $313 $141 $311 $314 reversed $236 $-1 #
coedge $-1 $141 $313 $305 $315 reversed $236 $-1 #
loop $-1 $-1 $313 $223 #
vertex $-1 $315 $316 #
vertex $-1 $142 $317 #
straight-curve $-1 -26.196095499386765 22.877230520641593 0 0 0 1 I I #
vertex $-1 $145 $318 #
straight-curve $-1 -12.14285002747447 11.158069808530474 -9.0137698572860252 -1 0 0 I I #
coedge $-1 $311 $146 $228 $308 forward $224 $-1 #
vertex $-1 $147 $319 #
straight-curve $-1 -12.14285002747447 11.158069808530474 9.0137698572860252 1 0 0 I I #
point $-1 -26.196095499386765 11.158069808530474 9.0137698572860252 #
point $-1 -26.196095499386765 11.158069808530474 -9.0137698572860252 #
plane-surface $-1 0 0 9.0137698572860252 0 0 1 1 0 0 forward_v I I I I #
coedge $-1 $258 $257 $250 $320 forward $152 $-1 #
coedge $-1 $250 $154 $156 $254 reversed $86 $-1 #
coedge $-1 $154 $249 $248 $320 reversed $86 $-1 #
coedge $-1 $162 $157 $154 $252 forward $163 $-1 #
edge $-1 $255 -15.383705951547206 $321 -6.83335788446783 $251 $322 forward 7 unknown #
coedge $-1 $156 $155 $258 $323 reversed $53 $-1 #
edge $-1 $324 1.9178179933549516e-014 $255 11.505628320774488 $249 $325 forward 7 unknown #
vertex $-1 $158 $326 #
straight-curve $-1 -31.852496258003789 1.3624340376755804 9.0137698572860252 0 1 0 I I #
coedge $-1 $248 $159 $162 $262 reversed $152 $-1 #
coedge $-1 $159 $248 $253 $323 forward $152 $-1 #
vertex $-1 $160 $327 #
straight-curve $-1 -40.402844325083166 -0.47962753667124502 30.682665256930527 0 0 1 I I #
straight-curve $-1 -40.40284432508318 -0.47962753667124502 1.3150017098744087 -0.74314481823134659 0 -0.66913061440640931 I I #
edge $-1 $321 -5.9293636873735664 $164 0.47962753667124502 $257 $328 forward 7 unknown #
point $-1 -40.402844325083166 -0.47962753667124502 9.0137698572860252 #
point $-1 -31.852496258003789 -0.47962753667124502 9.0137698572860252 #
edge $-1 $329 1 $329 0 $167 $-1 forward 7 unknown #
vertex $-1 $168 $330 #
ellipse-curve $-1 -33.939472074229741 2.7248680753511607 2.734145511428963 -0.66913061440640931 0 0.74314481823134659 0.74314481823134659 0 0.66913061440640931 1 I I #
point $-1 -35.384525473312117 2.7248680753511607 5.8335163979866209 #
plane-surface $-1 40.402844325083166 0 0 -1 0 0 0 0 1 forward_v I I I I #
coedge $-1 $176 $174 $178 $274 reversed $101 $-1 #
edge $-1 $189 -9.0137698572860252 $276 9.0137698572860252 $188 $331 forward 7 unknown #
vertex $-1 $274 $332 #
straight-curve $-1 -40.402844325083166 -22.877230520641593 0 0 0 -1 I I #
edge $-1 $272 -22.877230520641593 $276 22.877230520641593 $270 $333 forward 7 unknown #
straight-curve $-1 0 -22.877230520641593 -9.0137698572860252 -1 0 0 I I #
vertex $-1 $181 $334 #
straight-curve $-1 0 22.877230520641593 -9.0137698572860252 1 0 0 I I #
point $-1 40.402844325083166 22.877230520641593 -9.0137698572860252 #
point $-1 40.402844325083166 -22.877230520641593 -9.0137698572860252 #
straight-curve $-1 -40.402844325083166 0 9.0137698572860252 0 -1 0 I I #
point $-1 -40.402844325083166 22.877230520641593 9.0137698572860252 #
point $-1 -40.402844325083166 -22.877230520641593 9.0137698572860252 #
straight-curve $-1 40.402844325083166 -22.877230520641593 0 0 0 -1 I I #
straight-curve $-1 40.402844325083166 22.877230520641593 0 0 0 -1 I I #
loop $-1 $-1 $204 $198 #
plane-surface $-1 0 -22.877230520641593 0 0 1 0 0 0 1 forward_v I I I I #
coedge $-1 $215 $206 $202 $289 forward $199 $-1 #
edge $-1 $293 -14.368405438348576 $210 -2.6492447262374572 $201 $335 forward 7 unknown #
edge $-1 $211 2.6492447262374572 $292 14.368405438348576 $287 $336 forward 7 unknown #
coedge $-1 $213 $204 $218 $302 reversed $285 $-1 #
coedge $-1 $204 $213 $215 $300 reversed $285 $-1 #
vertex $-1 $300 $337 #
vertex $-1 $205 $338 #
straight-curve $-1 -22.375304610511115 -22.877230520641593 0 0 0 1 I I #
straight-curve $-1 -12.14285002747447 -11.158069808530474 -9.0137698572860252 1 0 0 I I #
straight-curve $-1 -12.14285002747447 -11.158069808530474 9.0137698572860252 -1 0 0 I I #
point $-1 -22.375304610511115 -11.158069808530474 9.0137698572860252 #
point $-1 -22.375304610511115 -11.158069808530474 -9.0137698572860252 #
straight-curve $-1 -26.196095499386765 -22.877230520641593 0 0 0 -1 I I #
edge $-1 $292 22.375304610511115 $216 26.196095499386765 $291 $339 forward 7 unknown #
point $-1 -26.196095499386765 -22.877230520641593 -9.0137698572860252 #
edge $-1 $219 -26.196095499386765 $293 -22.375304610511115 $290 $340 forward 7 unknown #
point $-1 -26.196095499386765 -22.877230520641593 9.0137698572860252 #
plane-surface $-1 0 22.877230520641593 0 0 -1 0 0 0 -1 forward_v I I I I #
coedge $-1 $226 $230 $235 $315 forward $136 $-1 #
edge $-1 $341 -14.368405438348576 $240 -2.6492447262374572 $226 $342 forward 7 unknown #
coedge $-1 $228 $227 $313 $343 reversed $78 $-1 #
edge $-1 $243 2.6492447262374572 $344 14.368405438348576 $242 $345 forward 7 unknown #
straight-curve $-1 -22.375304610511115 11.158069808530474 0 0 0 -1 I I #
straight-curve $-1 -26.196095499386765 8.5088250822930167 -9.0137698572860252 0 1 0 I I #
coedge $-1 $232 $242 $234 $314 forward $224 $-1 #
straight-curve $-1 -26.196095499386765 8.5088250822930167 9.0137698572860252 0 -1 0 I I #
coedge $-1 $235 $234 $307 $343 forward $236 $-1 #
edge $-1 $344 22.375304610511115 $238 26.196095499386765 $234 $346 forward 7 unknown #
edge $-1 $237 -26.196095499386765 $341 -22.375304610511115 $235 $347 forward 7 unknown #
point $-1 -26.196095499386765 22.877230520641593 -9.0137698572860252 #
point $-1 -26.196095499386765 22.877230520641593 9.0137698572860252 #
point $-1 -22.375304610511115 11.158069808530474 -9.0137698572860252 #
point $-1 -22.375304610511115 11.158069808530474 9.0137698572860252 #
edge $-1 $321 21.668895399644502 $324 29.367663547056104 $248 $348 forward 7 unknown #
vertex $-1 $262 $349 #
straight-curve $-1 -47.236202209550996 5.9293636873735664 9.0137698572860252 -1 0 0 I I #
edge $-1 $324 -4.5669296496979861 $259 1.8420615743468254 $258 $350 forward 7 unknown #
vertex $-1 $323 $351 #
straight-curve $-1 -40.40284432508318 5.9293636873735664 1.3150017098744087 0.74314481823134659 0 0.66913061440640931 I I #
point $-1 -31.852496258003789 5.9293636873735664 9.0137698572860252 #
point $-1 -40.402844325083166 -0.47962753667124502 1.3150017098744216 #
straight-curve $-1 -40.402844325083166 0 9.0137698572860252 0 -1 0 I I #
vertex $-1 $265 $352 #
point $-1 -33.196327255998391 2.7248680753511607 3.4032761258353723 #
straight-curve $-1 -40.402844325083166 22.877230520641593 0 0 0 -1 I I #
point $-1 -40.402844325083166 -22.877230520641593 -9.0137698572860252 #
straight-curve $-1 -40.402844325083166 0 -9.0137698572860252 0 1 0 I I #
point $-1 -40.402844325083166 22.877230520641593 -9.0137698572860252 #
straight-curve $-1 -22.375304610511115 -8.5088250822930167 9.0137698572860252 0 1 0 I I #
straight-curve $-1 -22.375304610511115 -8.5088250822930167 -9.0137698572860252 0 -1 0 I I #
point $-1 -22.375304610511115 -22.877230520641593 -9.0137698572860252 #
point $-1 -22.375304610511115 -22.877230520641593 9.0137698572860252 #
straight-curve $-1 0 -22.877230520641593 -9.0137698572860252 -1 0 0 I I #
straight-curve $-1 0 -22.877230520641593 9.0137698572860252 1 0 0 I I #
vertex $-1 $343 $353 #
straight-curve $-1 -22.375304610511115 8.5088250822930167 -9.0137698572860252 0 -1 0 I I #
edge $-1 $344 -9.0137698572860252 $341 9.0137698572860252 $313 $354 forward 7 unknown #
vertex $-1 $314 $355 #
straight-curve $-1 -22.375304610511115 8.5088250822930167 9.0137698572860252 0 1 0 I I #
straight-curve $-1 0 22.877230520641593 9.0137698572860252 -1 0 0 I I #
straight-curve $-1 0 22.877230520641593 -9.0137698572860252 1 0 0 I I #
straight-curve $-1 -40.402844325083166 5.9293636873735664 30.682665256930527 0 0 -1 I I #
point $-1 -40.402844325083166 5.9293636873735664 9.0137698572860252 #
straight-curve $-1 -40.402844325083166 1.3624340376755804 1.3150017098744224 0 -1 0 I I #
point $-1 -40.402844325083166 5.9293636873735664 1.3150017098744216 #
point $-1 -33.270341459823328 2.7248680753511607 1.9910006931976163 #
point $-1 -22.375304610511115 22.877230520641593 -9.0137698572860252 #
straight-curve $-1 -22.375304610511115 22.877230520641593 0 0 0 -1 I I #
point $-1 -22.375304610511115 22.877230520641593 9.0137698572860252 #
End-of-ACIS-data 