500 0 9 0           
7 Unknown 11 ACIS 5.0 NT 24 Fri Mar 26 17:38:58 1999 
-1 9.9999999999999995e-007 1e-010 
body $-1 $9 $-1 $10 #
body $-1 $11 $-1 $12 #
body $-1 $13 $-1 $14 #
body $-1 $15 $-1 $16 #
body $-1 $17 $-1 $18 #
body $-1 $19 $-1 $20 #
body $-1 $21 $-1 $22 #
body $-1 $23 $-1 $24 #
body $-1 $25 $-1 $26 #
lump $-1 $-1 $27 $0 #
transform $-1 1 0 0 0 1 0 0 0 1 46.572466200750753 23.809706085443782 5.3043028804139079 1 rotate no_reflect no_shear #
lump $-1 $-1 $28 $1 #
transform $-1 1 0 0 0 1 0 0 0 1 46.572466200750753 23.809706085443782 5.3043028804139079 1 rotate no_reflect no_shear #
lump $-1 $-1 $29 $2 #
transform $-1 1 0 0 0 1 0 0 0 1 46.572466200750753 23.809706085443782 5.3043028804139079 1 rotate no_reflect no_shear #
lump $-1 $-1 $30 $3 #
transform $-1 1 0 0 0 1 0 0 0 1 46.572466200750753 23.809706085443782 5.3043028804139079 1 rotate no_reflect no_shear #
lump $-1 $-1 $31 $4 #
transform $-1 1 0 0 0 1 0 0 0 1 46.572466200750753 23.809706085443782 5.3043028804139079 1 rotate no_reflect no_shear #
lump $-1 $-1 $32 $5 #
transform $-1 1 0 0 0 1 0 0 0 1 46.572466200750753 23.809706085443782 5.3043028804139079 1 rotate no_reflect no_shear #
lump $-1 $-1 $33 $6 #
transform $-1 1 0 0 0 1 0 0 0 1 46.572466200750753 23.809706085443782 5.3043028804139079 1 rotate no_reflect no_shear #
lump $-1 $-1 $34 $7 #
transform $-1 1 0 0 0 1 0 0 0 1 46.572466200750753 23.809706085443782 5.3043028804139079 1 rotate no_reflect no_shear #
lump $-1 $-1 $35 $8 #
transform $-1 1 0 0 0 1 0 0 0 1 46.572466200750753 23.809706085443782 5.3043028804139079 1 rotate no_reflect no_shear #
shell $-1 $-1 $-1 $36 $-1 $9 #
shell $-1 $-1 $-1 $37 $-1 $11 #
shell $-1 $-1 $-1 $38 $-1 $13 #
shell $-1 $-1 $-1 $39 $-1 $15 #
shell $-1 $-1 $-1 $40 $-1 $17 #
shell $-1 $-1 $-1 $41 $-1 $19 #
shell $-1 $-1 $-1 $42 $-1 $21 #
shell $-1 $-1 $-1 $43 $-1 $23 #
shell $-1 $-1 $-1 $44 $-1 $25 #
face $-1 $45 $46 $27 $-1 $47 forward single #
face $-1 $48 $49 $28 $-1 $50 forward single #
face $-1 $51 $52 $29 $-1 $53 reversed single #
face $-1 $54 $55 $30 $-1 $56 forward single #
face $-1 $57 $58 $31 $-1 $59 forward single #
face $-1 $60 $61 $32 $-1 $62 reversed single #
face $-1 $63 $64 $33 $-1 $65 forward single #
face $-1 $66 $67 $34 $-1 $68 forward single #
face $-1 $69 $70 $35 $-1 $71 forward single #
face $-1 $72 $73 $27 $-1 $74 reversed single #
loop $-1 $-1 $75 $36 #
plane-surface $-1 0 0 5.3043028804139079 0 0 1 1 0 0 forward_v I I I I #
face $-1 $76 $77 $28 $-1 $78 reversed single #
loop $-1 $-1 $79 $37 #
plane-surface $-1 0 -20.435365236553306 2.1198667280657322 0 0 1 1 0 0 forward_v I I I I #
face $-1 $80 $81 $29 $-1 $82 reversed single #
loop $-1 $-1 $83 $38 #
plane-surface $-1 -107.68104085059483 -5.2303154153152711 71.314536921335829 0 -1 0 0.6560590369687036 0 -0.75470957328743171 forward_v I I I I #
face $-1 $84 $85 $30 $-1 $86 forward single #
loop $-1 $87 $88 $39 #
cone-surface $-1 -42.811903163497604 -13.680821824134956 1.6713875817046446 0.6560590369687036 0 -0.75470957328743171 0.75470957328743171 0 0.6560590369687036 1 I I 0 1 1 forward I I I I #
face $-1 $89 $90 $31 $-1 $91 forward single #
loop $-1 $92 $93 $40 #
cone-surface $-1 -42.811903163497604 -8.610517978843145 1.6713875817046446 0.6560590369687036 0 -0.75470957328743171 0.75470957328743171 0 0.6560590369687036 1 I I 0 1 1 forward I I I I #
face $-1 $94 $95 $32 $-1 $96 reversed single #
loop $-1 $-1 $97 $41 #
plane-surface $-1 64.905298930397763 -4.1964281892241324 132.70458753058017 0 1 0 0.79863551827123203 0 0.60181501223851219 forward_v I I I I #
face $-1 $98 $99 $33 $-1 $100 forward single #
loop $-1 $101 $102 $42 #
cone-surface $-1 45.02601866512051 -2.2966819659581965 3.4811027013892559 -0.79863551827123203 0 -0.60181501223851219 0.3009075061192561 0 -0.39931775913561601 1 I I 0 1 0.5 forward I I I I #
face $-1 $103 $104 $34 $-1 $105 forward single #
loop $-1 $106 $107 $43 #
cone-surface $-1 45.02601866512051 0.55293736894070733 3.4811027013892559 -0.79863551827123203 0 -0.60181501223851219 0.3009075061192561 0 -0.39931775913561601 1 I I 0 1 0.5 forward I I I I #
face $-1 $108 $109 $35 $-1 $110 forward single #
loop $-1 $111 $112 $44 #
cone-surface $-1 45.02601866512051 3.4025567038396112 3.4811027013892559 -0.79863551827123203 0 -0.60181501223851219 0.3009075061192561 0 -0.39931775913561601 1 I I 0 1 0.5 forward I I I I #
face $-1 $113 $114 $27 $-1 $115 reversed single #
loop $-1 $-1 $116 $45 #
plane-surface $-1 0 0 -5.3043028804139079 0 0 1 1 0 0 forward_v I I I I #
coedge $-1 $117 $118 $119 $120 forward $46 $-1 #
face $-1 $121 $122 $28 $-1 $123 reversed single #
loop $-1 $-1 $124 $48 #
plane-surface $-1 0 -20.435365236553306 -0.88013327193426782 0 0 1 1 0 0 forward_v I I I I #
coedge $-1 $125 $126 $127 $128 reversed $49 $-1 #
face $-1 $129 $130 $29 $-1 $131 forward single #
loop $-1 $-1 $132 $51 #
plane-surface $-1 -46.572466200750753 -11.14566990148905 1.0171647347119546 -0.6560590369687036 0 0.75470957328743171 0.75470957328743171 0 0.6560590369687036 forward_v I I I I #
coedge $-1 $133 $134 $135 $136 reversed $52 $-1 #
face $-1 $-1 $137 $30 $-1 $138 forward single #
loop $-1 $139 $140 $54 #
cone-surface $-1 -41.189204695216539 -13.680821824134956 -0.19531343079736008 0.6560590369687036 0 -0.75470957328743171 0.37735478664371586 0 0.3280295184843518 1 I I -0.70710678118654746 0.70710678118654746 0.5 forward I I I I #
loop $-1 $-1 $141 $39 #
coedge $-1 $88 $88 $142 $143 reversed $55 $-1 #
face $-1 $-1 $144 $31 $-1 $145 forward single #
loop $-1 $146 $147 $57 #
cone-surface $-1 -41.189204695216539 -8.610517978843145 -0.19531343079736008 0.6560590369687036 0 -0.75470957328743171 0.37735478664371586 0 0.3280295184843518 1 I I -0.70710678118654746 0.70710678118654746 0.5 forward I I I I #
loop $-1 $-1 $148 $40 #
coedge $-1 $93 $93 $149 $150 reversed $58 $-1 #
face $-1 $151 $152 $32 $-1 $153 reversed single #
loop $-1 $-1 $154 $60 #
plane-surface $-1 -9.483552432414271 0.55293736894070733 76.648568897415146 0.79863551827123203 0 0.60181501223851219 0.60181501223851219 0 -0.79863551827123203 forward_v I I I I #
coedge $-1 $155 $156 $157 $158 reversed $61 $-1 #
face $-1 $-1 $159 $33 $-1 $160 forward single #
loop $-1 $161 $162 $63 #
cone-surface $-1 44.427042026417084 -2.2966819659581965 3.0297414422103719 -0.79863551827123203 0 -0.60181501223851219 0.15045375305962805 0 -0.19965887956780801 1 I I -0.70710678118654746 0.70710678118654746 0.25 forward I I I I #
loop $-1 $-1 $163 $42 #
coedge $-1 $102 $102 $164 $165 reversed $64 $-1 #
face $-1 $-1 $166 $34 $-1 $167 forward single #
loop $-1 $168 $169 $66 #
cone-surface $-1 44.427042026417084 0.55293736894070733 3.0297414422103719 -0.79863551827123203 0 -0.60181501223851219 0.15045375305962805 0 -0.19965887956780801 1 I I -0.70710678118654746 0.70710678118654746 0.25 forward I I I I #
loop $-1 $-1 $170 $43 #
coedge $-1 $107 $107 $171 $172 reversed $67 $-1 #
face $-1 $-1 $173 $35 $-1 $174 forward single #
loop $-1 $175 $176 $69 #
cone-surface $-1 44.427042026417084 3.4025567038396112 3.0297414422103719 -0.79863551827123203 0 -0.60181501223851219 0.15045375305962805 0 -0.19965887956780801 1 I I -0.70710678118654746 0.70710678118654746 0.25 forward I I I I #
loop $-1 $-1 $177 $44 #
coedge $-1 $112 $112 $178 $179 reversed $70 $-1 #
face $-1 $180 $181 $27 $-1 $182 reversed single #
loop $-1 $-1 $183 $72 #
plane-surface $-1 0 -23.809706085443782 0 0 1 0 0 0 1 forward_v I I I I #
coedge $-1 $184 $185 $186 $187 forward $73 $-1 #
coedge $-1 $188 $75 $189 $190 forward $46 $-1 #
coedge $-1 $75 $188 $191 $192 forward $46 $-1 #
coedge $-1 $193 $194 $75 $120 reversed $195 $-1 #
edge $-1 $196 -23.809706085443782 $197 23.809706085443782 $119 $198 forward 7 unknown #
face $-1 $199 $200 $28 $-1 $201 reversed single #
loop $-1 $-1 $202 $76 #
plane-surface $-1 0 -17.06102438766283 0.61986672806573218 0 -1 0 0 0 -1 forward_v I I I I #
coedge $-1 $203 $204 $205 $206 reversed $77 $-1 #
coedge $-1 $207 $79 $202 $208 forward $49 $-1 #
coedge $-1 $79 $207 $209 $210 reversed $49 $-1 #
coedge $-1 $211 $212 $79 $128 forward $213 $-1 #
edge $-1 $214 6.8433417693861767 $215 13.592023467167129 $127 $216 forward 7 unknown #
face $-1 $217 $218 $29 $-1 $219 forward single #
loop $-1 $-1 $220 $80 #
plane-surface $-1 0 -17.06102438766283 0.61986672806573218 0 -1 0 0 0 -1 forward_v I I I I #
coedge $-1 $221 $222 $223 $224 reversed $81 $-1 #
coedge $-1 $134 $83 $225 $226 reversed $52 $-1 #
coedge $-1 $83 $133 $221 $227 reversed $52 $-1 #
coedge $-1 $223 $228 $83 $136 forward $229 $-1 #
edge $-1 $230 30.352965580254008 $231 34.64010372595596 $135 $232 forward 7 unknown #
loop $-1 $-1 $142 $84 #
plane-surface $-1 -46.572466200750753 -11.14566990148905 1.0171647347119546 -0.6560590369687036 0 0.75470957328743171 0.75470957328743171 0 0.6560590369687036 forward_v I I I I #
loop $-1 $-1 $233 $54 #
coedge $-1 $140 $140 $141 $234 reversed $85 $-1 #
coedge $-1 $141 $141 $140 $234 forward $87 $-1 #
coedge $-1 $142 $142 $88 $143 forward $137 $-1 #
edge $-1 $235 0 $235 6.2831853071796004 $142 $236 forward 7 unknown #
loop $-1 $-1 $149 $89 #
plane-surface $-1 -46.572466200750753 -11.14566990148905 1.0171647347119546 -0.6560590369687036 0 0.75470957328743171 0.75470957328743171 0 0.6560590369687036 forward_v I I I I #
loop $-1 $-1 $237 $57 #
coedge $-1 $147 $147 $148 $238 reversed $90 $-1 #
coedge $-1 $148 $148 $147 $238 forward $92 $-1 #
coedge $-1 $149 $149 $93 $150 forward $144 $-1 #
edge $-1 $239 0 $239 6.2831853071796004 $149 $240 forward 7 unknown #
face $-1 $241 $242 $32 $-1 $243 forward single #
loop $-1 $-1 $244 $94 #
plane-surface $-1 64.905298930397763 5.3023029271055471 132.70458753058017 0 -1 0 -0.79863551827123203 0 -0.60181501223851219 forward_v I I I I #
coedge $-1 $245 $246 $247 $248 reversed $95 $-1 #
coedge $-1 $156 $97 $249 $250 reversed $61 $-1 #
coedge $-1 $97 $155 $245 $251 reversed $61 $-1 #
coedge $-1 $247 $252 $97 $158 forward $253 $-1 #
edge $-1 $254 61.047990884876178 $255 64.092576230686973 $157 $256 forward 7 unknown #
loop $-1 $-1 $164 $98 #
plane-surface $-1 -9.483552432414271 0.55293736894070733 76.648568897415146 0.79863551827123203 0 0.60181501223851219 0.60181501223851219 0 -0.79863551827123203 forward_v I I I I #
loop $-1 $-1 $257 $63 #
coedge $-1 $162 $162 $163 $258 reversed $99 $-1 #
coedge $-1 $163 $163 $162 $258 forward $101 $-1 #
coedge $-1 $164 $164 $102 $165 forward $159 $-1 #
edge $-1 $259 0 $259 6.2831853071796004 $164 $260 forward 7 unknown #
loop $-1 $-1 $171 $103 #
plane-surface $-1 -9.483552432414271 0.55293736894070733 76.648568897415146 0.79863551827123203 0 0.60181501223851219 0.60181501223851219 0 -0.79863551827123203 forward_v I I I I #
loop $-1 $-1 $261 $66 #
coedge $-1 $169 $169 $170 $262 reversed $104 $-1 #
coedge $-1 $170 $170 $169 $262 forward $106 $-1 #
coedge $-1 $171 $171 $107 $172 forward $166 $-1 #
edge $-1 $263 0 $263 6.2831853071796004 $171 $264 forward 7 unknown #
loop $-1 $-1 $178 $108 #
plane-surface $-1 -9.483552432414271 0.55293736894070733 76.648568897415146 0.79863551827123203 0 0.60181501223851219 0.60181501223851219 0 -0.79863551827123203 forward_v I I I I #
loop $-1 $-1 $265 $69 #
coedge $-1 $176 $176 $177 $266 reversed $109 $-1 #
coedge $-1 $177 $177 $176 $266 forward $111 $-1 #
coedge $-1 $178 $178 $112 $179 forward $173 $-1 #
edge $-1 $267 0 $267 6.2831853071796004 $178 $268 forward 7 unknown #
face $-1 $269 $270 $27 $-1 $271 reversed single #
loop $-1 $-1 $272 $113 #
plane-surface $-1 -46.572466200750753 0 0 1 0 0 0 0 -1 forward_v I I I I #
coedge $-1 $273 $191 $274 $275 forward $114 $-1 #
coedge $-1 $276 $116 $273 $277 forward $73 $-1 #
coedge $-1 $116 $276 $278 $279 forward $73 $-1 #
coedge $-1 $194 $193 $116 $187 reversed $195 $-1 #
edge $-1 $280 -23.809706085443782 $281 23.809706085443782 $186 $282 forward 7 unknown #
coedge $-1 $118 $117 $283 $284 forward $46 $-1 #
coedge $-1 $285 $286 $117 $190 reversed $270 $-1 #
edge $-1 $197 -46.572466200750753 $287 46.572466200750753 $189 $288 forward 7 unknown #
coedge $-1 $183 $289 $118 $192 reversed $114 $-1 #
edge $-1 $290 -46.572466200750753 $196 46.572466200750753 $191 $291 forward 7 unknown #
coedge $-1 $186 $119 $289 $292 forward $195 $-1 #
coedge $-1 $119 $186 $285 $293 reversed $195 $-1 #
loop $-1 $-1 $193 $269 #
vertex $-1 $120 $294 #
vertex $-1 $120 $295 #
straight-curve $-1 46.572466200750753 0 5.3043028804139079 0 1 0 I I #
face $-1 $296 $297 $28 $-1 $298 reversed single #
loop $-1 $-1 $299 $121 #
plane-surface $-1 -46.572466200750753 0 0 1 0 0 0 0 -1 forward_v I I I I #
coedge $-1 $300 $301 $125 $208 reversed $122 $-1 #
coedge $-1 $302 $124 $303 $304 reversed $77 $-1 #
coedge $-1 $124 $302 $305 $306 forward $77 $-1 #
coedge $-1 $212 $211 $124 $206 forward $213 $-1 #
edge $-1 $307 -13.592023467167129 $308 -6.8433417693861767 $205 $309 forward 7 unknown #
coedge $-1 $126 $125 $299 $310 reversed $49 $-1 #
edge $-1 $214 -46.572466200750753 $311 46.572466200750753 $202 $312 forward 7 unknown #
coedge $-1 $313 $314 $126 $210 forward $297 $-1 #
edge $-1 $215 -46.572466200750753 $315 46.572466200750753 $209 $316 forward 7 unknown #
coedge $-1 $205 $127 $314 $317 forward $213 $-1 #
coedge $-1 $127 $205 $300 $318 forward $213 $-1 #
loop $-1 $-1 $127 $296 #
vertex $-1 $128 $319 #
vertex $-1 $317 $320 #
straight-curve $-1 46.572466200750753 -10.217682618276653 2.1198667280657322 0 -1 0 I I #
face $-1 $-1 $229 $29 $-1 $321 reversed single #
loop $-1 $-1 $225 $129 #
plane-surface $-1 0 0 5.3043028804139079 0 0 1 1 0 0 forward_v I I I I #
coedge $-1 $322 $323 $222 $324 reversed $130 $-1 #
coedge $-1 $325 $132 $134 $227 forward $81 $-1 #
coedge $-1 $132 $325 $220 $324 forward $81 $-1 #
coedge $-1 $326 $135 $132 $224 forward $229 $-1 #
edge $-1 $231 -0.34251953542925406 $327 11.488189436918304 $223 $328 forward 7 unknown #
coedge $-1 $329 $330 $133 $226 forward $218 $-1 #
edge $-1 $331 -12.199842399459556 $230 -7.2680542245466597 $225 $332 forward 7 unknown #
edge $-1 $231 0 $331 6.5346834722535307 $134 $333 forward 7 unknown #
coedge $-1 $135 $326 $329 $334 reversed $229 $-1 #
loop $-1 $-1 $223 $217 #
vertex $-1 $334 $335 #
vertex $-1 $136 $336 #
straight-curve $-1 -46.572466200750753 -5.2303154153152711 35.657268460667915 0 0 -1 I I #
coedge $-1 $233 $233 $-1 $337 reversed $139 $-1 #
edge $-1 $338 0 $338 6.2831853071796004 $140 $339 forward 7 unknown #
vertex $-1 $143 $340 #
ellipse-curve $-1 -44.106572113294312 -13.680821824134956 3.160733807562929 -0.6560590369687036 0 0.75470957328743171 0.75470957328743171 0 0.6560590369687036 1 I I #
coedge $-1 $237 $237 $-1 $341 reversed $146 $-1 #
edge $-1 $342 0 $342 6.2831853071796004 $147 $343 forward 7 unknown #
vertex $-1 $150 $344 #
ellipse-curve $-1 -44.106572113294312 -8.610517978843145 3.160733807562929 -0.6560590369687036 0 0.75470957328743171 0.75470957328743171 0 0.6560590369687036 1 I I #
face $-1 $-1 $253 $32 $-1 $345 reversed single #
loop $-1 $-1 $346 $151 #
plane-surface $-1 0 0 5.3043028804139079 0 0 1 1 0 0 forward_v I I I I #
coedge $-1 $347 $348 $349 $350 reversed $152 $-1 #
coedge $-1 $351 $154 $156 $251 forward $95 $-1 #
coedge $-1 $154 $351 $347 $352 forward $95 $-1 #
coedge $-1 $349 $157 $154 $248 forward $253 $-1 #
edge $-1 $255 -4.4728968736944861 $353 5.0258342426351934 $247 $354 forward 7 unknown #
coedge $-1 $355 $356 $155 $250 forward $242 $-1 #
edge $-1 $357 11.825557182562591 $254 14.119816735551872 $249 $358 forward 7 unknown #
edge $-1 $255 -93.144932401501507 $357 -89.332698564968325 $156 $359 forward 7 unknown #
coedge $-1 $157 $349 $355 $360 reversed $253 $-1 #
loop $-1 $-1 $349 $241 #
vertex $-1 $360 $361 #
vertex $-1 $158 $362 #
straight-curve $-1 46.572466200750753 -4.1964281892241324 66.352293765290085 0 0 -1 I I #
coedge $-1 $257 $257 $-1 $363 reversed $161 $-1 #
edge $-1 $364 0 $364 6.2831853071796004 $162 $365 forward 7 unknown #
vertex $-1 $165 $366 #
ellipse-curve $-1 45.425336424256116 -2.2966819659581965 3.7820102075085034 0.79863551827123203 0 0.60181501223851219 0.3009075061192561 0 -0.39931775913561601 1 I I #
coedge $-1 $261 $261 $-1 $367 reversed $168 $-1 #
edge $-1 $368 0 $368 6.2831853071796004 $169 $369 forward 7 unknown #
vertex $-1 $172 $370 #
ellipse-curve $-1 45.425336424256116 0.55293736894070733 3.7820102075085034 0.79863551827123203 0 0.60181501223851219 0.3009075061192561 0 -0.39931775913561601 1 I I #
coedge $-1 $265 $265 $-1 $371 reversed $175 $-1 #
edge $-1 $372 0 $372 6.2831853071796004 $176 $373 forward 7 unknown #
vertex $-1 $179 $374 #
ellipse-curve $-1 45.425336424256116 3.4025567038396112 3.7820102075085034 0.79863551827123203 0 0.60181501223851219 0.3009075061192561 0 -0.39931775913561601 1 I I #
face $-1 $-1 $195 $27 $-1 $375 reversed single #
loop $-1 $-1 $285 $180 #
plane-surface $-1 0 23.809706085443782 0 0 -1 0 0 0 -1 forward_v I I I I #
coedge $-1 $376 $283 $286 $377 forward $181 $-1 #
coedge $-1 $289 $183 $184 $277 reversed $114 $-1 #
coedge $-1 $283 $376 $183 $275 reversed $181 $-1 #
edge $-1 $290 -5.3043028804139079 $378 5.3043028804139079 $274 $379 forward 7 unknown #
coedge $-1 $185 $184 $376 $380 forward $73 $-1 #
edge $-1 $281 -46.572466200750753 $378 46.572466200750753 $273 $381 forward 7 unknown #
coedge $-1 $286 $285 $185 $279 reversed $270 $-1 #
edge $-1 $382 -46.572466200750753 $280 46.572466200750753 $278 $383 forward 7 unknown #
vertex $-1 $187 $384 #
vertex $-1 $292 $385 #
straight-curve $-1 46.572466200750753 0 -5.3043028804139079 0 -1 0 I I #
coedge $-1 $272 $274 $188 $284 reversed $181 $-1 #
edge $-1 $287 -23.809706085443782 $290 23.809706085443782 $283 $386 forward 7 unknown #
coedge $-1 $278 $189 $194 $293 forward $270 $-1 #
coedge $-1 $189 $278 $272 $377 reversed $270 $-1 #
vertex $-1 $190 $387 #
straight-curve $-1 0 23.809706085443782 5.3043028804139079 -1 0 0 I I #
coedge $-1 $191 $273 $193 $292 reversed $114 $-1 #
vertex $-1 $284 $388 #
straight-curve $-1 0 -23.809706085443782 5.3043028804139079 1 0 0 I I #
edge $-1 $196 -5.3043028804139079 $281 5.3043028804139079 $193 $389 forward 7 unknown #
edge $-1 $197 -5.3043028804139079 $280 5.3043028804139079 $194 $390 forward 7 unknown #
point $-1 46.572466200750753 -23.809706085443782 5.3043028804139079 #
point $-1 46.572466200750753 23.809706085443782 5.3043028804139079 #
face $-1 $-1 $213 $28 $-1 $391 reversed single #
loop $-1 $-1 $209 $199 #
plane-surface $-1 0 -23.809706085443782 0 0 1 0 0 0 1 forward_v I I I I #
coedge $-1 $392 $393 $207 $310 forward $200 $-1 #
coedge $-1 $305 $202 $212 $318 reversed $122 $-1 #
coedge $-1 $202 $305 $392 $394 reversed $122 $-1 #
coedge $-1 $204 $203 $395 $396 reversed $77 $-1 #
coedge $-1 $314 $313 $203 $304 forward $297 $-1 #
edge $-1 $397 -46.572466200750753 $307 46.572466200750753 $303 $398 forward 7 unknown #
coedge $-1 $301 $300 $204 $306 reversed $122 $-1 #
edge $-1 $399 -46.572466200750753 $308 46.572466200750753 $305 $400 forward 7 unknown #
vertex $-1 $304 $401 #
vertex $-1 $206 $402 #
straight-curve $-1 46.572466200750753 -10.217682618276653 -0.88013327193426782 0 1 0 I I #
edge $-1 $315 -13.592023467167129 $311 -6.8433417693861767 $299 $403 forward 7 unknown #
vertex $-1 $310 $404 #
straight-curve $-1 0 -17.06102438766283 2.1198667280657322 -1 0 0 I I #
coedge $-1 $303 $209 $393 $405 forward $297 $-1 #
coedge $-1 $209 $303 $211 $317 reversed $297 $-1 #
vertex $-1 $405 $406 #
straight-curve $-1 0 -23.809706085443782 2.1198667280657322 -1 0 0 I I #
edge $-1 $215 -2.1198667280657322 $307 0.88013327193426782 $211 $407 forward 7 unknown #
edge $-1 $308 -1.1900666359671339 $214 1.8099333640328661 $212 $408 forward 7 unknown #
point $-1 46.572466200750753 -17.06102438766283 2.1198667280657322 #
point $-1 46.572466200750753 -23.809706085443782 2.1198667280657322 #
plane-surface $-1 -46.572466200750753 0 0 1 0 0 0 0 -1 forward_v I I I I #
coedge $-1 $323 $220 $409 $410 reversed $130 $-1 #
coedge $-1 $220 $322 $326 $411 reversed $130 $-1 #
edge $-1 $412 -6.5346834722535307 $327 0 $220 $413 forward 7 unknown #
coedge $-1 $222 $221 $330 $414 reversed $81 $-1 #
coedge $-1 $228 $223 $323 $411 forward $229 $-1 #
vertex $-1 $411 $415 #
straight-curve $-1 -46.572466200750753 -5.5728349507445252 1.0171647347119535 0 -1 0 I I #
coedge $-1 $409 $225 $228 $334 forward $218 $-1 #
coedge $-1 $225 $409 $325 $414 forward $218 $-1 #
vertex $-1 $226 $416 #
straight-curve $-1 -53.840520425297413 -5.2303154153152711 5.304302880413907 -1 0 0 I I #
straight-curve $-1 -46.572466200750753 -5.2303154153152711 1.0171647347119546 0.75470957328743171 0 0.6560590369687036 I I #
edge $-1 $230 5.2303154153152711 $417 17.06102438766283 $228 $418 forward 7 unknown #
point $-1 -46.572466200750753 -5.2303154153152711 5.3043028804139079 #
point $-1 -46.572466200750753 -5.2303154153152711 1.0171647347119546 #
edge $-1 $419 1 $419 0 $233 $-1 forward 7 unknown #
vertex $-1 $234 $420 #
ellipse-curve $-1 -41.517234213700888 -13.680821824134956 0.18204135584635578 -0.6560590369687036 0 0.75470957328743171 0.75470957328743171 0 0.6560590369687036 1 I I #
point $-1 -43.351862540006877 -13.680821824134956 3.816792844531637 #
edge $-1 $421 1 $421 0 $237 $-1 forward 7 unknown #
vertex $-1 $238 $422 #
ellipse-curve $-1 -41.517234213700888 -8.610517978843145 0.18204135584635578 -0.6560590369687036 0 0.75470957328743171 0.75470957328743171 0 0.6560590369687036 1 I I #
point $-1 -43.351862540006877 -8.610517978843145 3.816792844531637 #
plane-surface $-1 46.572466200750753 0 0 -1 0 0 0 0 1 forward_v I I I I #
coedge $-1 $356 $355 $348 $423 forward $242 $-1 #
coedge $-1 $348 $244 $246 $352 reversed $152 $-1 #
coedge $-1 $244 $347 $346 $423 reversed $152 $-1 #
coedge $-1 $252 $247 $244 $350 forward $253 $-1 #
edge $-1 $353 -64.092576230686973 $424 -61.047990884876178 $349 $425 forward 7 unknown #
coedge $-1 $246 $245 $356 $426 reversed $95 $-1 #
edge $-1 $427 89.332698564968325 $353 93.144932401501507 $347 $428 forward 7 unknown #
vertex $-1 $248 $429 #
straight-curve $-1 46.572466200750753 0.27646868447035367 2.2597175346031122 0 1 0 I I #
coedge $-1 $346 $249 $252 $360 forward $242 $-1 #
coedge $-1 $249 $346 $351 $426 forward $242 $-1 #
vertex $-1 $250 $430 #
straight-curve $-1 32.452649465198881 -4.1964281892241324 5.304302880413907 1 0 0 I I #
straight-curve $-1 -9.483552432414271 -4.1964281892241324 76.648568897415146 -0.60181501223851219 0 0.79863551827123203 I I #
edge $-1 $254 -4.1964281892241324 $424 5.3023029271055471 $252 $431 forward 7 unknown #
point $-1 46.572466200750753 -4.1964281892241324 5.3043028804139079 #
point $-1 46.57246620075076 -4.1964281892241324 2.2597175346031122 #
edge $-1 $432 1 $432 0 $257 $-1 forward 7 unknown #
vertex $-1 $258 $433 #
ellipse-curve $-1 44.62670090598489 -2.2966819659581965 3.1801951952700001 0.79863551827123203 0 0.60181501223851219 0.3009075061192561 0 -0.39931775913561601 1 I I #
point $-1 45.726243930375382 -2.2966819659581965 3.3826924483728962 #
edge $-1 $434 1 $434 0 $261 $-1 forward 7 unknown #
vertex $-1 $262 $435 #
ellipse-curve $-1 44.62670090598489 0.55293736894070733 3.1801951952700001 0.79863551827123203 0 0.60181501223851219 0.3009075061192561 0 -0.39931775913561601 1 I I #
point $-1 45.726243930375382 0.55293736894070733 3.3826924483728962 #
edge $-1 $436 1 $436 0 $265 $-1 forward 7 unknown #
vertex $-1 $266 $437 #
ellipse-curve $-1 44.62670090598489 3.4025567038396112 3.1801951952700001 0.79863551827123203 0 0.60181501223851219 0.3009075061192561 0 -0.39931775913561601 1 I I #
point $-1 45.726243930375382 3.4025567038396112 3.3826924483728962 #
plane-surface $-1 46.572466200750753 0 0 -1 0 0 0 0 1 forward_v I I I I #
coedge $-1 $274 $272 $276 $380 reversed $181 $-1 #
edge $-1 $287 -5.3043028804139079 $382 5.3043028804139079 $286 $438 forward 7 unknown #
vertex $-1 $380 $439 #
straight-curve $-1 -46.572466200750753 -23.809706085443782 0 0 0 -1 I I #
edge $-1 $378 -23.809706085443782 $382 23.809706085443782 $376 $440 forward 7 unknown #
straight-curve $-1 0 -23.809706085443782 -5.3043028804139079 -1 0 0 I I #
vertex $-1 $279 $441 #
straight-curve $-1 0 23.809706085443782 -5.3043028804139079 1 0 0 I I #
point $-1 46.572466200750753 23.809706085443782 -5.3043028804139079 #
point $-1 46.572466200750753 -23.809706085443782 -5.3043028804139079 #
straight-curve $-1 -46.572466200750753 0 5.3043028804139079 0 -1 0 I I #
point $-1 -46.572466200750753 23.809706085443782 5.3043028804139079 #
point $-1 -46.572466200750753 -23.809706085443782 5.3043028804139079 #
straight-curve $-1 46.572466200750753 -23.809706085443782 0 0 0 -1 I I #
straight-curve $-1 46.572466200750753 23.809706085443782 0 0 0 -1 I I #
plane-surface $-1 46.572466200750753 0 0 -1 0 0 0 0 1 forward_v I I I I #
coedge $-1 $395 $299 $301 $394 forward $200 $-1 #
coedge $-1 $299 $395 $313 $405 reversed $200 $-1 #
edge $-1 $311 -1.8099333640328661 $399 1.1900666359671339 $392 $442 forward 7 unknown #
coedge $-1 $393 $392 $302 $396 forward $200 $-1 #
edge $-1 $399 6.8433417693861767 $397 13.592023467167129 $395 $443 forward 7 unknown #
vertex $-1 $304 $444 #
straight-curve $-1 0 -23.809706085443782 -0.88013327193426782 1 0 0 I I #
vertex $-1 $396 $445 #
straight-curve $-1 0 -17.06102438766283 -0.88013327193426782 1 0 0 I I #
point $-1 46.572466200750753 -23.809706085443782 -0.88013327193426782 #
point $-1 46.572466200750753 -17.06102438766283 -0.88013327193426782 #
straight-curve $-1 -46.572466200750753 -10.217682618276653 2.1198667280657322 0 1 0 I I #
point $-1 -46.572466200750753 -17.06102438766283 2.1198667280657322 #
edge $-1 $315 -2.1198667280657322 $397 0.88013327193426782 $393 $446 forward 7 unknown #
point $-1 -46.572466200750753 -23.809706085443782 2.1198667280657322 #
straight-curve $-1 46.572466200750753 -23.809706085443782 0 0 0 -1 I I #
straight-curve $-1 46.572466200750753 -17.06102438766283 0.30993336403286609 0 0 1 I I #
coedge $-1 $330 $329 $322 $410 forward $218 $-1 #
edge $-1 $417 7.2680542245466597 $412 12.199842399459556 $409 $447 forward 7 unknown #
edge $-1 $327 -34.64010372595596 $417 -30.352965580254008 $326 $448 forward 7 unknown #
vertex $-1 $414 $449 #
straight-curve $-1 -46.572466200750753 -17.06102438766283 1.0171647347119546 -0.75470957328743171 0 -0.6560590369687036 I I #
edge $-1 $412 -11.488189436918304 $331 0.34251953542925406 $330 $450 forward 7 unknown #
point $-1 -46.572466200750753 -17.06102438766283 1.0171647347119546 #
point $-1 -41.640678025837857 -5.2303154153152711 5.3043028804139079 #
vertex $-1 $411 $451 #
straight-curve $-1 -46.572466200750753 0 5.3043028804139079 0 -1 0 I I #
vertex $-1 $337 $452 #
point $-1 -40.76252464041346 -13.680821824134956 0.83810039281505944 #
vertex $-1 $341 $453 #
point $-1 -40.76252464041346 -8.610517978843145 0.83810039281505944 #
edge $-1 $424 -14.119816735551872 $427 -11.825557182562591 $346 $454 forward 7 unknown #
vertex $-1 $350 $455 #
straight-curve $-1 46.572466200750753 5.3023029271055471 66.352293765290085 0 0 1 I I #
edge $-1 $427 -5.0258342426351934 $357 4.4728968736944861 $356 $456 forward 7 unknown #
vertex $-1 $426 $457 #
straight-curve $-1 -9.483552432414271 5.3023029271055471 76.648568897415146 0.60181501223851219 0 -0.79863551827123203 I I #
point $-1 46.57246620075076 5.3023029271055471 2.2597175346031122 #
point $-1 44.278206647761472 -4.1964281892241324 5.3043028804139141 #
straight-curve $-1 46.572466200750753 0 5.3043028804139079 0 1 0 I I #
vertex $-1 $363 $458 #
point $-1 44.927608412104149 -2.2966819659581965 2.780877436134384 #
vertex $-1 $367 $459 #
point $-1 44.927608412104149 0.55293736894070733 2.780877436134384 #
vertex $-1 $371 $460 #
point $-1 44.927608412104149 3.4025567038396112 2.780877436134384 #
straight-curve $-1 -46.572466200750753 23.809706085443782 0 0 0 -1 I I #
point $-1 -46.572466200750753 -23.809706085443782 -5.3043028804139079 #
straight-curve $-1 -46.572466200750753 0 -5.3043028804139079 0 1 0 I I #
point $-1 -46.572466200750753 23.809706085443782 -5.3043028804139079 #
straight-curve $-1 -46.572466200750753 -17.06102438766283 0.30993336403286609 0 0 -1 I I #
straight-curve $-1 -46.572466200750753 -10.217682618276653 -0.88013327193426782 0 -1 0 I I #
point $-1 -46.572466200750753 -23.809706085443782 -0.88013327193426782 #
point $-1 -46.572466200750753 -17.06102438766283 -0.88013327193426782 #
straight-curve $-1 -46.572466200750753 -23.809706085443782 0 0 0 -1 I I #
straight-curve $-1 -53.840520425297413 -17.06102438766283 5.304302880413907 1 0 0 I I #
straight-curve $-1 -46.572466200750753 -17.06102438766283 35.657268460667915 0 0 1 I I #
point $-1 -41.640678025837857 -17.06102438766283 5.3043028804139079 #
straight-curve $-1 -41.640678025837865 -5.5728349507445252 5.304302880413907 0 1 0 I I #
point $-1 -46.572466200750753 -17.06102438766283 5.3043028804139079 #
point $-1 -40.861175176732189 -13.680821824134956 -0.57266821744107599 #
point $-1 -40.861175176732189 -8.610517978843145 -0.57266821744107599 #
straight-curve $-1 32.452649465198881 5.3023029271055471 5.304302880413907 -1 0 0 I I #
point $-1 46.572466200750753 5.3023029271055471 5.3043028804139079 #
straight-curve $-1 44.278206647761472 0.27646868447035367 5.3043028804139141 0 -1 0 I I #
point $-1 44.278206647761472 5.3023029271055471 5.3043028804139141 #
point $-1 44.227383146849277 -2.2966819659581965 2.8792876891507437 #
point $-1 44.227383146849277 0.55293736894070733 2.8792876891507437 #
point $-1 44.227383146849277 3.4025567038396112 2.8792876891507437 #
End-of-ACIS-data 