500 0 11 0           
7 Unknown 11 ACIS 5.0 NT 24 Thu Mar 25 22:01:34 1999 
-1 9.9999999999999995e-007 1e-010 
body $-1 $11 $-1 $12 #
body $-1 $13 $-1 $14 #
body $-1 $15 $-1 $16 #
body $-1 $17 $-1 $18 #
body $-1 $19 $-1 $20 #
body $-1 $21 $-1 $22 #
body $-1 $23 $-1 $24 #
body $-1 $25 $-1 $26 #
body $-1 $27 $-1 $28 #
body $-1 $29 $-1 $30 #
body $-1 $31 $-1 $32 #
lump $-1 $-1 $33 $0 #
transform $-1 1 0 0 0 1 0 0 0 1 56.74123355815302 35.769644543207384 17.556348928207864 1 rotate no_reflect no_shear #
lump $-1 $-1 $34 $1 #
transform $-1 1 0 0 0 1 0 0 0 1 56.74123355815302 35.769644543207384 17.556348928207864 1 rotate no_reflect no_shear #
lump $-1 $-1 $35 $2 #
transform $-1 1 0 0 0 1 0 0 0 1 56.74123355815302 35.769644543207384 17.556348928207864 1 rotate no_reflect no_shear #
lump $-1 $-1 $36 $3 #
transform $-1 1 0 0 0 1 0 0 0 1 56.74123355815302 35.769644543207384 17.556348928207864 1 rotate no_reflect no_shear #
lump $-1 $-1 $37 $4 #
transform $-1 1 0 0 0 1 0 0 0 1 56.74123355815302 35.769644543207384 17.556348928207864 1 rotate no_reflect no_shear #
lump $-1 $-1 $38 $5 #
transform $-1 1 0 0 0 1 0 0 0 1 56.74123355815302 35.769644543207384 17.556348928207864 1 rotate no_reflect no_shear #
lump $-1 $-1 $39 $6 #
transform $-1 1 0 0 0 1 0 0 0 1 56.74123355815302 35.769644543207384 17.556348928207864 1 rotate no_reflect no_shear #
lump $-1 $-1 $40 $7 #
transform $-1 1 0 0 0 1 0 0 0 1 56.74123355815302 35.769644543207384 17.556348928207864 1 rotate no_reflect no_shear #
lump $-1 $-1 $41 $8 #
transform $-1 1 0 0 0 1 0 0 0 1 56.74123355815302 35.769644543207384 17.556348928207864 1 rotate no_reflect no_shear #
lump $-1 $-1 $42 $9 #
transform $-1 1 0 0 0 1 0 0 0 1 56.74123355815302 35.769644543207384 17.556348928207864 1 rotate no_reflect no_shear #
lump $-1 $-1 $43 $10 #
transform $-1 1 0 0 0 1 0 0 0 1 56.74123355815302 35.769644543207384 17.556348928207864 1 rotate no_reflect no_shear #
shell $-1 $-1 $-1 $44 $-1 $11 #
shell $-1 $-1 $-1 $45 $-1 $13 #
shell $-1 $-1 $-1 $46 $-1 $15 #
shell $-1 $-1 $-1 $47 $-1 $17 #
shell $-1 $-1 $-1 $48 $-1 $19 #
shell $-1 $-1 $-1 $49 $-1 $21 #
shell $-1 $-1 $-1 $50 $-1 $23 #
shell $-1 $-1 $-1 $51 $-1 $25 #
shell $-1 $-1 $-1 $52 $-1 $27 #
shell $-1 $-1 $-1 $53 $-1 $29 #
shell $-1 $-1 $-1 $54 $-1 $31 #
face $-1 $55 $56 $33 $-1 $57 forward single #
face $-1 $58 $59 $34 $-1 $60 forward single #
face $-1 $61 $62 $35 $-1 $63 reversed single #
face $-1 $64 $65 $36 $-1 $66 forward single #
face $-1 $67 $68 $37 $-1 $69 forward single #
face $-1 $70 $71 $38 $-1 $72 reversed single #
face $-1 $73 $74 $39 $-1 $75 forward single #
face $-1 $76 $77 $40 $-1 $78 forward single #
face $-1 $79 $80 $41 $-1 $81 reversed single #
face $-1 $82 $83 $42 $-1 $84 forward single #
face $-1 $85 $86 $43 $-1 $87 forward single #
face $-1 $88 $89 $33 $-1 $90 reversed single #
loop $-1 $-1 $91 $44 #
plane-surface $-1 0 0 17.556348928207864 0 0 1 1 0 0 forward_v I I I I #
face $-1 $92 $93 $34 $-1 $94 reversed single #
loop $-1 $-1 $95 $45 #
plane-surface $-1 0 -35.769644543207384 0 0 1 0 0 0 1 forward_v I I I I #
face $-1 $96 $97 $35 $-1 $98 reversed single #
loop $-1 $-1 $99 $46 #
plane-surface $-1 23.373811126904251 -0.74089918871759863 157.74680901280232 0 -1 0 -0.54463904215088732 0 -0.83867056331134215 forward_v I I I I #
face $-1 $100 $101 $36 $-1 $102 forward single #
loop $-1 $103 $104 $47 #
cone-surface $-1 43.541034387952955 -5.7328293869468752 8.7415502820805546 -0.54463904215088732 0 -0.83867056331134215 0.41933528165567108 0 -0.27231952107544366 1 I I 0 1 0.5 forward I I I I #
face $-1 $105 $106 $37 $-1 $107 forward single #
loop $-1 $108 $109 $48 #
cone-surface $-1 43.541034387952955 -2.7376712680093078 8.7415502820805546 -0.54463904215088732 0 -0.83867056331134215 0.41933528165567108 0 -0.27231952107544366 1 I I 0 1 0.5 forward I I I I #
face $-1 $110 $111 $38 $-1 $112 reversed single #
loop $-1 $-1 $113 $49 #
plane-surface $-1 23.373811126904251 20.922950952833467 157.74680901280232 0 -1 0 -0.54463904215088732 0 -0.83867056331134215 forward_v I I I I #
face $-1 $114 $115 $39 $-1 $116 forward single #
loop $-1 $117 $118 $50 #
cone-surface $-1 43.541034387952955 15.931020754604198 8.7415502820805546 -0.54463904215088732 0 -0.83867056331134215 0.41933528165567108 0 -0.27231952107544366 1 I I 0 1 0.5 forward I I I I #
face $-1 $119 $120 $40 $-1 $121 forward single #
loop $-1 $122 $123 $51 #
cone-surface $-1 43.541034387952955 18.926178873541765 8.7415502820805546 -0.54463904215088732 0 -0.83867056331134215 0.41933528165567108 0 -0.27231952107544366 1 I I 0 1 0.5 forward I I I I #
face $-1 $124 $125 $41 $-1 $126 reversed single #
loop $-1 $-1 $127 $52 #
plane-surface $-1 -132.67582650404202 23.238535368957844 97.079097703396116 0 1 0 -0.66913061440640931 0 0.74314481823134659 forward_v I I I I #
face $-1 $128 $129 $42 $-1 $130 forward single #
loop $-1 $131 $132 $53 #
cone-surface $-1 -53.00928497830121 26.818852275886279 13.973207018055865 0.66913061440640931 0 -0.74314481823134659 0.74314481823134659 0 0.66913061440640931 1 I I 0 1 1 forward I I I I #
face $-1 $133 $134 $43 $-1 $135 forward single #
loop $-1 $136 $137 $54 #
cone-surface $-1 -53.00928497830121 32.189327636278939 13.973207018055865 0.66913061440640931 0 -0.74314481823134659 0.74314481823134659 0 0.66913061440640931 1 I I 0 1 1 forward I I I I #
face $-1 $138 $139 $33 $-1 $140 reversed single #
loop $-1 $-1 $141 $55 #
plane-surface $-1 0 0 -17.556348928207864 0 0 1 1 0 0 forward_v I I I I #
coedge $-1 $142 $143 $144 $145 forward $56 $-1 #
face $-1 $146 $147 $34 $-1 $148 forward single #
loop $-1 $-1 $149 $58 #
plane-surface $-1 -56.74123355815302 0 0 1 0 0 0 0 -1 forward_v I I I I #
coedge $-1 $150 $151 $152 $153 forward $59 $-1 #
face $-1 $154 $155 $35 $-1 $156 reversed single #
loop $-1 $-1 $157 $61 #
plane-surface $-1 -38.433171064240241 -4.2352503274780915 62.572404390409062 0.54463904215088732 0 0.83867056331134215 0.83867056331134215 0 -0.54463904215088732 forward_v I I I I #
coedge $-1 $158 $159 $160 $161 reversed $62 $-1 #
face $-1 $-1 $162 $36 $-1 $163 forward single #
loop $-1 $164 $165 $64 #
cone-surface $-1 43.132555106339787 -5.7328293869468752 8.1125473595970483 -0.54463904215088732 0 -0.83867056331134215 0.20966764082783554 0 -0.13615976053772183 1 I I -0.70710678118654746 0.70710678118654746 0.25 forward I I I I #
loop $-1 $-1 $166 $47 #
coedge $-1 $104 $104 $167 $168 reversed $65 $-1 #
face $-1 $-1 $169 $37 $-1 $170 forward single #
loop $-1 $171 $172 $67 #
cone-surface $-1 43.132555106339787 -2.7376712680093078 8.1125473595970483 -0.54463904215088732 0 -0.83867056331134215 0.20966764082783554 0 -0.13615976053772183 1 I I -0.70710678118654746 0.70710678118654746 0.25 forward I I I I #
loop $-1 $-1 $173 $48 #
coedge $-1 $109 $109 $174 $175 reversed $68 $-1 #
face $-1 $176 $177 $38 $-1 $178 reversed single #
loop $-1 $-1 $179 $70 #
plane-surface $-1 -38.433171064240241 17.428599814072975 62.572404390409062 0.54463904215088732 0 0.83867056331134215 0.83867056331134215 0 -0.54463904215088732 forward_v I I I I #
coedge $-1 $180 $181 $182 $183 reversed $71 $-1 #
face $-1 $-1 $184 $39 $-1 $185 forward single #
loop $-1 $186 $187 $73 #
cone-surface $-1 43.132555106339787 15.931020754604198 8.1125473595970483 -0.54463904215088732 0 -0.83867056331134215 0.20966764082783554 0 -0.13615976053772183 1 I I -0.70710678118654746 0.70710678118654746 0.25 forward I I I I #
loop $-1 $-1 $188 $50 #
coedge $-1 $118 $118 $189 $190 reversed $74 $-1 #
face $-1 $-1 $191 $40 $-1 $192 forward single #
loop $-1 $193 $194 $76 #
cone-surface $-1 43.132555106339787 18.926178873541765 8.1125473595970483 -0.54463904215088732 0 -0.83867056331134215 0.20966764082783554 0 -0.13615976053772183 1 I I -0.70710678118654746 0.70710678118654746 0.25 forward I I I I #
loop $-1 $-1 $195 $51 #
coedge $-1 $123 $123 $196 $197 reversed $77 $-1 #
face $-1 $198 $199 $41 $-1 $200 forward single #
loop $-1 $-1 $201 $79 #
plane-surface $-1 -56.741233558153027 29.504089956082616 12.745190305804101 -0.66913061440640931 0 0.74314481823134659 0.74314481823134659 0 0.66913061440640931 forward_v I I I I #
coedge $-1 $202 $203 $204 $205 reversed $80 $-1 #
face $-1 $-1 $206 $42 $-1 $207 forward single #
loop $-1 $208 $209 $82 #
cone-surface $-1 -51.614437521499248 26.818852275886279 12.424072009990059 0.66913061440640931 0 -0.74314481823134659 0.3715724091156733 0 0.33456530720320465 1 I I -0.70710678118654624 0.70710678118654879 0.5 forward I I I I #
loop $-1 $-1 $210 $53 #
coedge $-1 $132 $132 $211 $212 reversed $83 $-1 #
face $-1 $-1 $213 $43 $-1 $214 forward single #
loop $-1 $215 $216 $85 #
cone-surface $-1 -51.614437521499248 32.189327636278939 12.424072009990059 0.66913061440640931 0 -0.74314481823134659 0.3715724091156733 0 0.33456530720320465 1 I I -0.70710678118654624 0.70710678118654879 0.5 forward I I I I #
loop $-1 $-1 $217 $54 #
coedge $-1 $137 $137 $218 $219 reversed $86 $-1 #
face $-1 $220 $221 $33 $-1 $222 reversed single #
loop $-1 $-1 $223 $88 #
plane-surface $-1 0 -35.769644543207384 0 0 1 0 0 0 1 forward_v I I I I #
coedge $-1 $224 $225 $226 $227 forward $89 $-1 #
coedge $-1 $228 $91 $229 $230 forward $56 $-1 #
coedge $-1 $91 $228 $231 $232 forward $56 $-1 #
coedge $-1 $233 $234 $91 $145 reversed $235 $-1 #
edge $-1 $236 -35.769644543207384 $237 35.769644543207384 $144 $238 forward 7 unknown #
face $-1 $239 $240 $34 $-1 $241 reversed single #
loop $-1 $-1 $242 $92 #
plane-surface $-1 0 -42.366319286504833 5.7869077258019352 0 0 1 1 0 0 forward_v I I I I #
coedge $-1 $243 $244 $151 $245 forward $93 $-1 #
coedge $-1 $246 $95 $247 $248 reversed $59 $-1 #
coedge $-1 $95 $246 $149 $245 reversed $59 $-1 #
coedge $-1 $249 $242 $95 $153 reversed $147 $-1 #
edge $-1 $250 -56.74123355815302 $251 56.74123355815302 $152 $252 forward 7 unknown #
face $-1 $253 $254 $35 $-1 $255 reversed single #
loop $-1 $-1 $256 $96 #
plane-surface $-1 23.373811126904251 -7.7296014662385844 157.74680901280232 0 1 0 0.54463904215088732 0 0.83867056331134215 forward_v I I I I #
coedge $-1 $257 $258 $259 $260 reversed $97 $-1 #
coedge $-1 $159 $99 $261 $262 reversed $62 $-1 #
coedge $-1 $99 $158 $257 $263 reversed $62 $-1 #
coedge $-1 $259 $264 $99 $161 forward $265 $-1 #
edge $-1 $266 -45.054327994700898 $267 -19.198568696451677 $160 $268 forward 7 unknown #
loop $-1 $-1 $167 $100 #
plane-surface $-1 -38.433171064240241 -4.2352503274780915 62.572404390409062 0.54463904215088732 0 0.83867056331134215 0.83867056331134215 0 -0.54463904215088732 forward_v I I I I #
loop $-1 $-1 $269 $64 #
coedge $-1 $165 $165 $166 $270 reversed $101 $-1 #
coedge $-1 $166 $166 $165 $270 forward $103 $-1 #
coedge $-1 $167 $167 $104 $168 forward $162 $-1 #
edge $-1 $271 0 $271 6.2831853071796004 $167 $272 forward 7 unknown #
loop $-1 $-1 $174 $105 #
plane-surface $-1 -38.433171064240241 -4.2352503274780915 62.572404390409062 0.54463904215088732 0 0.83867056331134215 0.83867056331134215 0 -0.54463904215088732 forward_v I I I I #
loop $-1 $-1 $273 $67 #
coedge $-1 $172 $172 $173 $274 reversed $106 $-1 #
coedge $-1 $173 $173 $172 $274 forward $108 $-1 #
coedge $-1 $174 $174 $109 $175 forward $169 $-1 #
edge $-1 $275 0 $275 6.2831853071796004 $174 $276 forward 7 unknown #
face $-1 $277 $278 $38 $-1 $279 reversed single #
loop $-1 $-1 $280 $110 #
plane-surface $-1 23.373811126904251 13.934248675312482 157.74680901280232 0 1 0 0.54463904215088732 0 0.83867056331134215 forward_v I I I I #
coedge $-1 $281 $282 $283 $284 reversed $111 $-1 #
coedge $-1 $181 $113 $285 $286 reversed $71 $-1 #
coedge $-1 $113 $180 $281 $287 reversed $71 $-1 #
coedge $-1 $283 $288 $113 $183 forward $289 $-1 #
edge $-1 $290 -45.054327994700898 $291 -19.198568696451677 $182 $292 forward 7 unknown #
loop $-1 $-1 $189 $114 #
plane-surface $-1 -38.433171064240241 17.428599814072975 62.572404390409062 0.54463904215088732 0 0.83867056331134215 0.83867056331134215 0 -0.54463904215088732 forward_v I I I I #
loop $-1 $-1 $293 $73 #
coedge $-1 $187 $187 $188 $294 reversed $115 $-1 #
coedge $-1 $188 $188 $187 $294 forward $117 $-1 #
coedge $-1 $189 $189 $118 $190 forward $184 $-1 #
edge $-1 $295 0 $295 6.2831853071796004 $189 $296 forward 7 unknown #
loop $-1 $-1 $196 $119 #
plane-surface $-1 -38.433171064240241 17.428599814072975 62.572404390409062 0.54463904215088732 0 0.83867056331134215 0.83867056331134215 0 -0.54463904215088732 forward_v I I I I #
loop $-1 $-1 $297 $76 #
coedge $-1 $194 $194 $195 $298 reversed $120 $-1 #
coedge $-1 $195 $195 $194 $298 forward $122 $-1 #
coedge $-1 $196 $196 $123 $197 forward $191 $-1 #
edge $-1 $299 0 $299 6.2831853071796004 $196 $300 forward 7 unknown #
face $-1 $301 $302 $41 $-1 $303 reversed single #
loop $-1 $-1 $204 $124 #
plane-surface $-1 0 0 17.556348928207864 0 0 1 1 0 0 forward_v I I I I #
coedge $-1 $304 $305 $306 $307 reversed $125 $-1 #
coedge $-1 $203 $127 $308 $309 reversed $80 $-1 #
coedge $-1 $127 $202 $304 $310 reversed $80 $-1 #
coedge $-1 $306 $311 $127 $205 forward $199 $-1 #
edge $-1 $312 9.5966796938679906 $313 14.940012554374107 $204 $314 forward 7 unknown #
loop $-1 $-1 $211 $128 #
plane-surface $-1 -56.741233558153027 29.504089956082616 12.745190305804101 -0.66913061440640931 0 0.74314481823134659 0.74314481823134659 0 0.66913061440640931 forward_v I I I I #
loop $-1 $-1 $315 $82 #
coedge $-1 $209 $209 $210 $316 reversed $129 $-1 #
coedge $-1 $210 $210 $209 $316 forward $131 $-1 #
coedge $-1 $211 $211 $132 $212 forward $206 $-1 #
edge $-1 $317 0 $317 6.2831853071796004 $211 $318 forward 7 unknown #
loop $-1 $-1 $218 $133 #
plane-surface $-1 -56.741233558153027 29.504089956082616 12.745190305804101 -0.66913061440640931 0 0.74314481823134659 0.74314481823134659 0 0.66913061440640931 forward_v I I I I #
loop $-1 $-1 $319 $85 #
coedge $-1 $216 $216 $217 $320 reversed $134 $-1 #
coedge $-1 $217 $217 $216 $320 forward $136 $-1 #
coedge $-1 $218 $218 $137 $219 forward $213 $-1 #
edge $-1 $321 0 $321 6.2831853071796004 $218 $322 forward 7 unknown #
face $-1 $323 $324 $33 $-1 $325 reversed single #
loop $-1 $-1 $326 $138 #
plane-surface $-1 -56.74123355815302 0 0 1 0 0 0 0 -1 forward_v I I I I #
coedge $-1 $327 $231 $328 $329 forward $139 $-1 #
coedge $-1 $330 $141 $327 $331 forward $89 $-1 #
coedge $-1 $141 $330 $332 $333 forward $89 $-1 #
coedge $-1 $234 $233 $141 $227 reversed $235 $-1 #
edge $-1 $334 -35.769644543207384 $335 35.769644543207384 $226 $336 forward 7 unknown #
coedge $-1 $143 $142 $337 $338 forward $56 $-1 #
coedge $-1 $339 $340 $142 $230 reversed $324 $-1 #
edge $-1 $237 -56.74123355815302 $341 56.74123355815302 $229 $342 forward 7 unknown #
coedge $-1 $223 $343 $143 $232 reversed $139 $-1 #
edge $-1 $344 -56.74123355815302 $236 56.74123355815302 $231 $345 forward 7 unknown #
coedge $-1 $226 $144 $343 $346 forward $235 $-1 #
coedge $-1 $144 $226 $339 $347 reversed $235 $-1 #
loop $-1 $-1 $233 $323 #
vertex $-1 $145 $348 #
vertex $-1 $145 $349 #
straight-curve $-1 56.74123355815302 0 17.556348928207864 0 1 0 I I #
face $-1 $350 $351 $34 $-1 $352 reversed single #
loop $-1 $-1 $353 $146 #
plane-surface $-1 0 -42.366319286504833 -1.4931342501840099 0 0 1 1 0 0 forward_v I I I I #
coedge $-1 $152 $354 $355 $356 forward $147 $-1 #
coedge $-1 $357 $149 $358 $359 reversed $93 $-1 #
coedge $-1 $149 $357 $249 $360 reversed $93 $-1 #
edge $-1 $250 -5.7869077258019352 $361 1.4931342501840099 $149 $362 forward 7 unknown #
coedge $-1 $151 $150 $363 $364 forward $59 $-1 #
coedge $-1 $355 $365 $150 $248 forward $366 $-1 #
edge $-1 $367 -1.4931342501840099 $251 5.7869077258019352 $247 $368 forward 7 unknown #
coedge $-1 $354 $152 $244 $360 forward $147 $-1 #
vertex $-1 $245 $369 #
vertex $-1 $356 $370 #
straight-curve $-1 0 -35.769644543207384 5.7869077258019352 1 0 0 I I #
face $-1 $-1 $265 $35 $-1 $371 forward single #
loop $-1 $-1 $372 $154 #
plane-surface $-1 56.74123355815302 0 0 -1 0 0 0 0 1 forward_v I I I I #
coedge $-1 $373 $374 $375 $376 reversed $155 $-1 #
coedge $-1 $377 $157 $159 $263 forward $97 $-1 #
coedge $-1 $157 $377 $373 $378 forward $97 $-1 #
coedge $-1 $375 $160 $157 $260 forward $265 $-1 #
edge $-1 $267 -1.3767259750214471 $379 5.6119763024995386 $259 $380 forward 7 unknown #
coedge $-1 $381 $382 $158 $262 forward $254 $-1 #
edge $-1 $383 -78.107982307136609 $266 -61.31705557819329 $261 $384 forward 7 unknown #
edge $-1 $267 82.6530086503235 $383 113.48246711630605 $159 $385 forward 7 unknown #
coedge $-1 $160 $375 $381 $386 forward $265 $-1 #
loop $-1 $-1 $375 $253 #
vertex $-1 $262 $387 #
vertex $-1 $161 $388 #
straight-curve $-1 11.686905563452125 -0.74089918871759863 17.556348928207868 -1 0 0 I I #
coedge $-1 $269 $269 $-1 $389 reversed $164 $-1 #
edge $-1 $390 0 $390 6.2831853071796004 $165 $391 forward 7 unknown #
vertex $-1 $168 $392 #
ellipse-curve $-1 43.8133539090284 -5.7328293869468752 9.1608855637362314 0.54463904215088732 0 0.83867056331134215 0.41933528165567108 0 -0.27231952107544366 1 I I #
coedge $-1 $273 $273 $-1 $393 reversed $171 $-1 #
edge $-1 $394 0 $394 6.2831853071796004 $172 $395 forward 7 unknown #
vertex $-1 $175 $396 #
ellipse-curve $-1 43.8133539090284 -2.7376712680093078 9.1608855637362314 0.54463904215088732 0 0.83867056331134215 0.41933528165567108 0 -0.27231952107544366 1 I I #
face $-1 $-1 $289 $38 $-1 $397 forward single #
loop $-1 $-1 $398 $176 #
plane-surface $-1 56.74123355815302 0 0 -1 0 0 0 0 1 forward_v I I I I #
coedge $-1 $399 $400 $401 $402 reversed $177 $-1 #
coedge $-1 $403 $179 $181 $287 forward $111 $-1 #
coedge $-1 $179 $403 $399 $404 forward $111 $-1 #
coedge $-1 $401 $182 $179 $284 forward $289 $-1 #
edge $-1 $291 -12.20865104579698 $405 -5.2199487682759944 $283 $406 forward 7 unknown #
coedge $-1 $407 $408 $180 $286 forward $278 $-1 #
edge $-1 $409 -78.107982307136609 $290 -61.31705557819329 $285 $410 forward 7 unknown #
edge $-1 $291 82.6530086503235 $409 113.48246711630605 $181 $411 forward 7 unknown #
coedge $-1 $182 $401 $407 $412 forward $289 $-1 #
loop $-1 $-1 $401 $277 #
vertex $-1 $286 $413 #
vertex $-1 $183 $414 #
straight-curve $-1 11.686905563452125 20.922950952833467 17.556348928207868 -1 0 0 I I #
coedge $-1 $293 $293 $-1 $415 reversed $186 $-1 #
edge $-1 $416 0 $416 6.2831853071796004 $187 $417 forward 7 unknown #
vertex $-1 $190 $418 #
ellipse-curve $-1 43.8133539090284 15.931020754604198 9.1608855637362314 0.54463904215088732 0 0.83867056331134215 0.41933528165567108 0 -0.27231952107544366 1 I I #
coedge $-1 $297 $297 $-1 $419 reversed $193 $-1 #
edge $-1 $420 0 $420 6.2831853071796004 $194 $421 forward 7 unknown #
vertex $-1 $197 $422 #
ellipse-curve $-1 43.8133539090284 18.926178873541765 9.1608855637362314 0.54463904215088732 0 0.83867056331134215 0.41933528165567108 0 -0.27231952107544366 1 I I #
face $-1 $-1 $423 $41 $-1 $424 reversed single #
loop $-1 $-1 $425 $198 #
plane-surface $-1 0 35.769644543207384 0 0 -1 0 0 0 -1 forward_v I I I I #
coedge $-1 $426 $201 $203 $310 forward $125 $-1 #
coedge $-1 $201 $426 $425 $427 reversed $125 $-1 #
coedge $-1 $428 $204 $201 $307 forward $199 $-1 #
edge $-1 $313 8.4864903909165363 $429 21.017599565166083 $306 $430 forward 7 unknown #
coedge $-1 $431 $432 $202 $309 forward $423 $-1 #
edge $-1 $433 -35.794358545893949 $312 -30.983199923490194 $308 $434 forward 7 unknown #
edge $-1 $313 -7.1901636523861274 $433 -1.0034820495532102e-014 $203 $435 forward 7 unknown #
coedge $-1 $204 $428 $431 $436 forward $199 $-1 #
vertex $-1 $309 $437 #
vertex $-1 $205 $438 #
straight-curve $-1 -66.337913252021011 23.238535368957844 17.556348928207861 1 0 0 I I #
coedge $-1 $315 $315 $-1 $439 reversed $208 $-1 #
edge $-1 $440 0 $440 6.2831853071796004 $209 $441 forward 7 unknown #
vertex $-1 $212 $442 #
ellipse-curve $-1 -54.069567127899958 26.818852275886279 15.150769617005988 -0.66913061440640931 0 0.74314481823134659 0.74314481823134659 0 0.66913061440640931 1 I I #
coedge $-1 $319 $319 $-1 $443 reversed $215 $-1 #
edge $-1 $444 0 $444 6.2831853071796004 $216 $445 forward 7 unknown #
vertex $-1 $219 $446 #
ellipse-curve $-1 -54.069567127899958 32.189327636278939 15.150769617005988 -0.66913061440640931 0 0.74314481823134659 0.74314481823134659 0 0.66913061440640931 1 I I #
face $-1 $-1 $235 $33 $-1 $447 reversed single #
loop $-1 $-1 $339 $220 #
plane-surface $-1 0 35.769644543207384 0 0 -1 0 0 0 -1 forward_v I I I I #
coedge $-1 $448 $337 $340 $449 forward $221 $-1 #
coedge $-1 $343 $223 $224 $331 reversed $139 $-1 #
coedge $-1 $337 $448 $223 $329 reversed $221 $-1 #
edge $-1 $344 -17.556348928207864 $450 17.556348928207864 $328 $451 forward 7 unknown #
coedge $-1 $225 $224 $448 $452 forward $89 $-1 #
edge $-1 $335 -56.74123355815302 $450 56.74123355815302 $327 $453 forward 7 unknown #
coedge $-1 $340 $339 $225 $333 reversed $324 $-1 #
edge $-1 $454 -56.74123355815302 $334 56.74123355815302 $332 $455 forward 7 unknown #
vertex $-1 $227 $456 #
vertex $-1 $346 $457 #
straight-curve $-1 56.74123355815302 0 -17.556348928207864 0 -1 0 I I #
coedge $-1 $326 $328 $228 $338 reversed $221 $-1 #
edge $-1 $341 -35.769644543207384 $344 35.769644543207384 $337 $458 forward 7 unknown #
coedge $-1 $332 $229 $234 $347 forward $324 $-1 #
coedge $-1 $229 $332 $326 $449 reversed $324 $-1 #
vertex $-1 $230 $459 #
straight-curve $-1 0 35.769644543207384 17.556348928207864 -1 0 0 I I #
coedge $-1 $231 $327 $233 $346 reversed $139 $-1 #
vertex $-1 $338 $460 #
straight-curve $-1 0 -35.769644543207384 17.556348928207864 1 0 0 I I #
edge $-1 $236 -17.556348928207864 $335 17.556348928207864 $233 $461 forward 7 unknown #
edge $-1 $237 -17.556348928207864 $334 17.556348928207864 $234 $462 forward 7 unknown #
point $-1 56.74123355815302 -35.769644543207384 17.556348928207864 #
point $-1 56.74123355815302 35.769644543207384 17.556348928207864 #
face $-1 $-1 $366 $34 $-1 $463 reversed single #
loop $-1 $-1 $464 $239 #
plane-surface $-1 0 -48.962994029802275 2.1468867378089627 0 1 0 0 0 1 forward_v I I I I #
coedge $-1 $465 $363 $365 $466 forward $240 $-1 #
coedge $-1 $242 $249 $467 $468 forward $147 $-1 #
coedge $-1 $469 $247 $242 $356 reversed $366 $-1 #
edge $-1 $470 -6.5966747432974415 $251 6.5966747432974415 $355 $471 forward 7 unknown #
coedge $-1 $244 $243 $464 $472 reversed $93 $-1 #
coedge $-1 $363 $465 $243 $359 forward $240 $-1 #
edge $-1 $473 -6.5966747432974415 $361 6.5966747432974415 $243 $474 forward 7 unknown #
edge $-1 $250 -6.5966747432974415 $475 6.5966747432974415 $244 $476 forward 7 unknown #
vertex $-1 $245 $477 #
straight-curve $-1 -56.74123355815302 -35.769644543207384 0 0 0 -1 I I #
coedge $-1 $353 $358 $246 $364 reversed $240 $-1 #
edge $-1 $367 -56.74123355815302 $361 56.74123355815302 $363 $478 forward 7 unknown #
coedge $-1 $247 $469 $353 $466 reversed $366 $-1 #
loop $-1 $-1 $247 $350 #
vertex $-1 $248 $479 #
straight-curve $-1 56.74123355815302 -35.769644543207384 0 0 0 1 I I #
point $-1 -56.74123355815302 -35.769644543207392 5.7869077258019352 #
point $-1 56.74123355815302 -35.769644543207392 5.7869077258019352 #
plane-surface $-1 0 0 17.556348928207864 0 0 1 1 0 0 forward_v I I I I #
coedge $-1 $382 $381 $374 $480 forward $254 $-1 #
coedge $-1 $374 $256 $258 $378 reversed $155 $-1 #
coedge $-1 $256 $373 $372 $480 reversed $155 $-1 #
coedge $-1 $264 $259 $256 $376 forward $265 $-1 #
edge $-1 $379 19.198568696451677 $481 45.054327994700898 $375 $482 forward 7 unknown #
coedge $-1 $258 $257 $382 $483 reversed $97 $-1 #
edge $-1 $484 -113.48246711630605 $379 -82.6530086503235 $373 $485 forward 7 unknown #
vertex $-1 $260 $486 #
straight-curve $-1 30.885474259903809 -2.1176251637390457 17.556348928207857 0 -1 0 I I #
coedge $-1 $372 $261 $264 $386 reversed $254 $-1 #
coedge $-1 $261 $372 $377 $483 forward $254 $-1 #
vertex $-1 $262 $487 #
straight-curve $-1 56.74123355815302 -0.74089918871759863 78.873404506401158 0 0 1 I I #
straight-curve $-1 -38.433171064240241 -0.74089918871759863 62.572404390409062 0.83867056331134215 0 -0.54463904215088732 I I #
edge $-1 $481 -7.7296014662385844 $266 -0.74089918871759863 $381 $488 forward 7 unknown #
point $-1 56.74123355815302 -0.74089918871759863 17.556348928207864 #
point $-1 30.885474259903802 -0.74089918871759863 17.556348928207868 #
edge $-1 $489 1 $489 0 $269 $-1 forward 7 unknown #
vertex $-1 $270 $490 #
ellipse-curve $-1 43.268714866877509 -5.7328293869468752 8.3222150004248832 0.54463904215088732 0 0.83867056331134215 0.41933528165567108 0 -0.27231952107544366 1 I I #
point $-1 44.23268919068407 -5.7328293869468752 8.8885660426607824 #
edge $-1 $491 1 $491 0 $273 $-1 forward 7 unknown #
vertex $-1 $274 $492 #
ellipse-curve $-1 43.268714866877509 -2.7376712680093078 8.3222150004248832 0.54463904215088732 0 0.83867056331134215 0.41933528165567108 0 -0.27231952107544366 1 I I #
point $-1 44.23268919068407 -2.7376712680093078 8.8885660426607824 #
plane-surface $-1 0 0 17.556348928207864 0 0 1 1 0 0 forward_v I I I I #
coedge $-1 $408 $407 $400 $493 forward $278 $-1 #
coedge $-1 $400 $280 $282 $404 reversed $177 $-1 #
coedge $-1 $280 $399 $398 $493 reversed $177 $-1 #
coedge $-1 $288 $283 $280 $402 forward $289 $-1 #
edge $-1 $405 19.198568696451677 $494 45.054327994700898 $401 $495 forward 7 unknown #
coedge $-1 $282 $281 $408 $496 reversed $111 $-1 #
edge $-1 $497 -113.48246711630605 $405 -82.6530086503235 $399 $498 forward 7 unknown #
vertex $-1 $284 $499 #
straight-curve $-1 30.885474259903809 8.7142999070364873 17.556348928207857 0 -1 0 I I #
coedge $-1 $398 $285 $288 $412 reversed $278 $-1 #
coedge $-1 $285 $398 $403 $496 forward $278 $-1 #
vertex $-1 $286 $500 #
straight-curve $-1 56.74123355815302 20.922950952833467 78.873404506401158 0 0 1 I I #
straight-curve $-1 -38.433171064240241 20.922950952833467 62.572404390409062 0.83867056331134215 0 -0.54463904215088732 I I #
edge $-1 $494 13.934248675312482 $290 20.922950952833467 $407 $501 forward 7 unknown #
point $-1 56.74123355815302 20.922950952833467 17.556348928207864 #
point $-1 30.885474259903802 20.922950952833467 17.556348928207868 #
edge $-1 $502 1 $502 0 $293 $-1 forward 7 unknown #
vertex $-1 $294 $503 #
ellipse-curve $-1 43.268714866877509 15.931020754604198 8.3222150004248832 0.54463904215088732 0 0.83867056331134215 0.41933528165567108 0 -0.27231952107544366 1 I I #
point $-1 44.23268919068407 15.931020754604198 8.8885660426607824 #
edge $-1 $504 1 $504 0 $297 $-1 forward 7 unknown #
vertex $-1 $298 $505 #
ellipse-curve $-1 43.268714866877509 18.926178873541765 8.3222150004248832 0.54463904215088732 0 0.83867056331134215 0.41933528165567108 0 -0.27231952107544366 1 I I #
point $-1 44.23268919068407 18.926178873541765 8.8885660426607824 #
loop $-1 $-1 $308 $301 #
plane-surface $-1 -56.74123355815302 0 0 1 0 0 0 0 -1 forward_v I I I I #
coedge $-1 $506 $507 $305 $427 forward $302 $-1 #
coedge $-1 $305 $304 $432 $508 reversed $125 $-1 #
edge $-1 $429 9.6292146869872255 $509 16.81937833937334 $425 $510 forward 7 unknown #
coedge $-1 $311 $306 $507 $511 forward $199 $-1 #
vertex $-1 $511 $512 #
straight-curve $-1 -51.397900697646904 14.752044978041308 17.556348928207864 0 1 0 I I #
coedge $-1 $513 $308 $311 $436 reversed $423 $-1 #
coedge $-1 $308 $513 $426 $508 forward $423 $-1 #
vertex $-1 $309 $514 #
straight-curve $-1 -56.74123355815302 23.238535368957844 48.539548851698058 0 0 1 I I #
straight-curve $-1 -56.741233558153027 23.238535368957844 12.745190305804101 -0.74314481823134659 0 -0.66913061440640931 I I #
edge $-1 $515 -35.769644543207384 $312 -23.238535368957844 $431 $516 forward 7 unknown #
point $-1 -56.74123355815302 23.238535368957844 17.556348928207864 #
point $-1 -51.397900697646904 23.238535368957844 17.556348928207864 #
edge $-1 $517 1 $517 0 $315 $-1 forward 7 unknown #
vertex $-1 $316 $518 #
ellipse-curve $-1 -51.949002828702454 26.818852275886279 12.795644419105734 -0.66913061440640931 0 0.74314481823134659 0.74314481823134659 0 0.66913061440640931 1 I I #
point $-1 -53.326422309668615 26.818852275886279 15.819900231412401 #
edge $-1 $519 1 $519 0 $319 $-1 forward 7 unknown #
vertex $-1 $320 $520 #
ellipse-curve $-1 -51.949002828702454 32.189327636278939 12.795644419105734 -0.66913061440640931 0 0.74314481823134659 0.74314481823134659 0 0.66913061440640931 1 I I #
point $-1 -53.326422309668615 32.189327636278939 15.819900231412401 #
plane-surface $-1 56.74123355815302 0 0 -1 0 0 0 0 1 forward_v I I I I #
coedge $-1 $328 $326 $330 $452 reversed $221 $-1 #
edge $-1 $341 -17.556348928207864 $454 17.556348928207864 $340 $521 forward 7 unknown #
vertex $-1 $452 $522 #
straight-curve $-1 -56.74123355815302 -35.769644543207384 0 0 0 -1 I I #
edge $-1 $450 -35.769644543207384 $454 35.769644543207384 $448 $523 forward 7 unknown #
straight-curve $-1 0 -35.769644543207384 -17.556348928207864 -1 0 0 I I #
vertex $-1 $333 $524 #
straight-curve $-1 0 35.769644543207384 -17.556348928207864 1 0 0 I I #
point $-1 56.74123355815302 35.769644543207384 -17.556348928207864 #
point $-1 56.74123355815302 -35.769644543207384 -17.556348928207864 #
straight-curve $-1 -56.74123355815302 0 17.556348928207864 0 -1 0 I I #
point $-1 -56.74123355815302 35.769644543207384 17.556348928207864 #
point $-1 -56.74123355815302 -35.769644543207384 17.556348928207864 #
straight-curve $-1 56.74123355815302 -35.769644543207384 0 0 0 -1 I I #
straight-curve $-1 56.74123355815302 35.769644543207384 0 0 0 -1 I I #
plane-surface $-1 56.74123355815302 0 0 -1 0 0 0 0 1 forward_v I I I I #
coedge $-1 $525 $467 $357 $472 forward $351 $-1 #
coedge $-1 $358 $353 $525 $526 forward $240 $-1 #
edge $-1 $367 -6.5966747432974415 $527 6.5966747432974415 $365 $528 forward 7 unknown #
coedge $-1 $464 $529 $354 $468 reversed $351 $-1 #
edge $-1 $475 -56.74123355815302 $470 56.74123355815302 $467 $530 forward 7 unknown #
coedge $-1 $365 $355 $529 $531 forward $366 $-1 #
vertex $-1 $356 $532 #
straight-curve $-1 56.74123355815302 -42.366319286504833 5.7869077258019352 0 1 0 I I #
edge $-1 $475 -3.6400209879929726 $473 3.6400209879929726 $357 $533 forward 7 unknown #
vertex $-1 $359 $534 #
straight-curve $-1 -56.74123355815302 -42.366319286504833 -1.4931342501840099 0 1 0 I I #
vertex $-1 $360 $535 #
straight-curve $-1 -56.74123355815302 -42.366319286504833 5.7869077258019352 0 -1 0 I I #
point $-1 -56.74123355815302 -35.769644543207392 -1.4931342501840099 #
straight-curve $-1 0 -35.769644543207384 -1.4931342501840099 -1 0 0 I I #
point $-1 56.74123355815302 -35.769644543207392 -1.4931342501840099 #
edge $-1 $481 61.31705557819329 $484 78.107982307136609 $372 $536 forward 7 unknown #
vertex $-1 $386 $537 #
straight-curve $-1 11.686905563452125 -7.7296014662385844 17.556348928207868 1 0 0 I I #
edge $-1 $484 -5.6119763024995386 $383 1.3767259750214471 $382 $538 forward 7 unknown #
vertex $-1 $483 $539 #
straight-curve $-1 -38.433171064240241 -7.7296014662385844 62.572404390409062 -0.83867056331134215 0 0.54463904215088732 I I #
point $-1 30.885474259903802 -7.7296014662385844 17.556348928207868 #
point $-1 56.741233558153027 -0.74089918871759863 0.76542219926455601 #
straight-curve $-1 56.74123355815302 0 17.556348928207864 0 1 0 I I #
vertex $-1 $389 $540 #
point $-1 43.688050148533179 -5.7328293869468752 8.0498954793494395 #
vertex $-1 $393 $541 #
point $-1 43.688050148533179 -2.7376712680093078 8.0498954793494395 #
edge $-1 $494 61.31705557819329 $497 78.107982307136609 $398 $542 forward 7 unknown #
vertex $-1 $412 $543 #
straight-curve $-1 11.686905563452125 13.934248675312482 17.556348928207868 1 0 0 I I #
edge $-1 $497 5.2199487682759944 $409 12.20865104579698 $408 $544 forward 7 unknown #
vertex $-1 $496 $545 #
straight-curve $-1 -38.433171064240241 13.934248675312482 62.572404390409062 -0.83867056331134215 0 0.54463904215088732 I I #
point $-1 30.885474259903802 13.934248675312482 17.556348928207868 #
point $-1 56.741233558153027 20.922950952833467 0.76542219926455601 #
straight-curve $-1 56.74123355815302 0 17.556348928207864 0 1 0 I I #
vertex $-1 $415 $546 #
point $-1 43.688050148533179 15.931020754604198 8.0498954793494395 #
vertex $-1 $419 $547 #
point $-1 43.688050148533179 18.926178873541765 8.0498954793494395 #
coedge $-1 $507 $425 $513 $548 reversed $302 $-1 #
coedge $-1 $425 $506 $428 $511 reversed $302 $-1 #
edge $-1 $509 -21.017599565166083 $433 -8.4864903909165363 $432 $549 forward 7 unknown #
vertex $-1 $427 $550 #
straight-curve $-1 -44.241999699375171 35.769644543207384 23.999551267962847 -0.74314481823134659 0 -0.66913061440640931 I I #
edge $-1 $429 51.397900697646904 $515 56.74123355815302 $507 $551 forward 7 unknown #
point $-1 -51.397900697646904 35.769644543207392 17.556348928207864 #
coedge $-1 $432 $431 $506 $548 forward $423 $-1 #
point $-1 -56.74123355815302 23.238535368957844 12.745190305804108 #
vertex $-1 $511 $552 #
straight-curve $-1 -56.74123355815302 0 17.556348928207864 0 -1 0 I I #
vertex $-1 $439 $553 #
point $-1 -51.205858010471104 26.818852275886279 13.464775033512144 #
vertex $-1 $443 $554 #
point $-1 -51.205858010471104 32.189327636278939 13.464775033512144 #
straight-curve $-1 -56.74123355815302 35.769644543207384 0 0 0 -1 I I #
point $-1 -56.74123355815302 -35.769644543207384 -17.556348928207864 #
straight-curve $-1 -56.74123355815302 0 -17.556348928207864 0 1 0 I I #
point $-1 -56.74123355815302 35.769644543207384 -17.556348928207864 #
coedge $-1 $529 $464 $465 $526 reversed $351 $-1 #
edge $-1 $527 -56.74123355815302 $473 56.74123355815302 $525 $555 forward 7 unknown #
vertex $-1 $531 $556 #
straight-curve $-1 56.74123355815302 -42.366319286504833 -1.4931342501840099 0 -1 0 I I #
coedge $-1 $467 $525 $469 $531 reversed $351 $-1 #
straight-curve $-1 0 -48.962994029802275 5.7869077258019352 1 0 0 I I #
edge $-1 $470 -3.6400209879929726 $527 3.6400209879929726 $469 $557 forward 7 unknown #
point $-1 56.74123355815302 -48.962994029802275 5.7869077258019352 #
straight-curve $-1 -56.74123355815302 -48.962994029802275 2.1468867378089627 0 0 -1 I I #
point $-1 -56.74123355815302 -48.962994029802275 -1.4931342501840099 #
point $-1 -56.74123355815302 -48.962994029802275 5.7869077258019352 #
straight-curve $-1 56.74123355815302 -7.7296014662385844 78.873404506401158 0 0 -1 I I #
point $-1 56.74123355815302 -7.7296014662385844 17.556348928207864 #
straight-curve $-1 56.74123355815302 -2.1176251637390457 0.76542219926455957 0 1 0 I I #
point $-1 56.741233558153027 -7.7296014662385844 0.76542219926455601 #
point $-1 42.996395345802064 -5.7328293869468752 7.9028797187692126 #
point $-1 42.996395345802064 -2.7376712680093078 7.9028797187692126 #
straight-curve $-1 56.74123355815302 13.934248675312482 78.873404506401158 0 0 -1 I I #
point $-1 56.74123355815302 13.934248675312482 17.556348928207864 #
straight-curve $-1 56.74123355815302 8.7142999070364873 0.76542219926455957 0 1 0 I I #
point $-1 56.741233558153027 13.934248675312482 0.76542219926455601 #
point $-1 42.996395345802064 15.931020754604198 7.9028797187692126 #
point $-1 42.996395345802064 18.926178873541765 7.9028797187692126 #
edge $-1 $515 -17.556348928207864 $509 -12.745190305804108 $506 $558 forward 7 unknown #
straight-curve $-1 -56.74123355815302 14.752044978041308 12.745190305804112 0 -1 0 I I #
point $-1 -56.74123355815302 35.769644543207392 12.745190305804108 #
straight-curve $-1 0 35.769644543207384 17.556348928207864 -1 0 0 I I #
point $-1 -56.74123355815302 35.769644543207384 17.556348928207864 #
point $-1 -51.279872214296041 26.818852275886279 12.052499600874384 #
point $-1 -51.279872214296041 32.189327636278939 12.052499600874384 #
straight-curve $-1 0 -48.962994029802275 -1.4931342501840099 -1 0 0 I I #
point $-1 56.74123355815302 -48.962994029802275 -1.4931342501840099 #
straight-curve $-1 56.74123355815302 -48.962994029802275 2.1468867378089627 0 0 -1 I I #
straight-curve $-1 -56.74123355815302 35.769644543207384 0 0 0 -1 I I #
End-of-ACIS-data 