500 0 4 0           
7 Unknown 11 ACIS 5.0 NT 24 Thu Mar 25 16:07:58 1999 
-1 9.9999999999999995e-007 1e-010 
body $-1 $4 $-1 $5 #
body $-1 $6 $-1 $7 #
body $-1 $8 $-1 $9 #
body $-1 $10 $-1 $11 #
lump $-1 $-1 $12 $0 #
transform $-1 1 0 0 0 1 0 0 0 1 67.095553453169344 45.069324338967498 15.382879618963548 1 rotate no_reflect no_shear #
lump $-1 $-1 $13 $1 #
transform $-1 1 0 0 0 1 0 0 0 1 67.095553453169344 45.069324338967498 15.382879618963548 1 rotate no_reflect no_shear #
lump $-1 $-1 $14 $2 #
transform $-1 1 0 0 0 1 0 0 0 1 67.095553453169344 45.069324338967498 15.382879618963548 1 rotate no_reflect no_shear #
lump $-1 $-1 $15 $3 #
transform $-1 1 0 0 0 1 0 0 0 1 67.095553453169344 45.069324338967498 15.382879618963548 1 rotate no_reflect no_shear #
shell $-1 $-1 $-1 $16 $-1 $4 #
shell $-1 $-1 $-1 $17 $-1 $6 #
shell $-1 $-1 $-1 $18 $-1 $8 #
shell $-1 $-1 $-1 $19 $-1 $10 #
face $-1 $20 $21 $12 $-1 $22 forward single #
face $-1 $23 $24 $13 $-1 $25 reversed single #
face $-1 $26 $27 $14 $-1 $28 forward single #
face $-1 $29 $30 $15 $-1 $31 reversed single #
face $-1 $32 $33 $12 $-1 $34 reversed single #
loop $-1 $-1 $35 $16 #
plane-surface $-1 0 0 15.382879618963548 0 0 1 1 0 0 forward_v I I I I #
face $-1 $36 $37 $13 $-1 $38 reversed single #
loop $-1 $-1 $39 $17 #
plane-surface $-1 -76.249312793505851 -22.426487947046404 0 0 1 0 0 0 1 forward_v I I I I #
face $-1 $40 $41 $14 $-1 $42 forward single #
loop $-1 $-1 $43 $18 #
plane-surface $-1 -48.788034772496317 53.839624326622449 173.61881602439848 1 0 0 0 -0.6018150307709319 -0.79863550430605224 forward_v I I I I #
face $-1 $44 $45 $15 $-1 $46 reversed single #
loop $-1 $47 $48 $19 #
cone-surface $-1 -34.207540270181099 42.35296044267244 12.988452559139789 0 -0.6018150307709319 -0.79863550430605224 1 0 0 1 I I 0 1 1 forward I I I I #
face $-1 $49 $50 $12 $-1 $51 reversed single #
loop $-1 $-1 $52 $20 #
plane-surface $-1 0 0 -15.382879618963548 0 0 1 1 0 0 forward_v I I I I #
coedge $-1 $53 $54 $55 $56 forward $21 $-1 #
face $-1 $57 $58 $13 $-1 $59 reversed single #
loop $-1 $-1 $60 $23 #
plane-surface $-1 -85.403072133842358 -18.365026524043401 0 1 0 0 0 0 -1 forward_v I I I I #
coedge $-1 $61 $62 $63 $64 forward $24 $-1 #
face $-1 $65 $66 $14 $-1 $67 forward single #
loop $-1 $-1 $68 $26 #
plane-surface $-1 -34.207540270181092 -26.918600805401177 66.44903368686731 0 0.6018150307709319 0.79863550430605224 1 0 0 forward_v I I I I #
coedge $-1 $69 $70 $71 $72 reversed $27 $-1 #
face $-1 $73 $74 $15 $-1 $75 forward single #
loop $-1 $76 $77 $29 #
cone-surface $-1 -34.207540270181099 41.446114617778044 11.785027527091957 0 -0.6018150307709319 -0.79863550430605224 0.5 0 0 1 I I -0.70710678118654746 0.70710678118654746 0.5 forward I I I I #
loop $-1 $-1 $78 $19 #
coedge $-1 $48 $48 $79 $80 reversed $30 $-1 #
face $-1 $81 $82 $12 $-1 $83 reversed single #
loop $-1 $-1 $84 $32 #
plane-surface $-1 0 -45.069324338967498 0 0 1 0 0 0 1 forward_v I I I I #
coedge $-1 $85 $86 $87 $88 forward $33 $-1 #
coedge $-1 $89 $35 $90 $91 forward $21 $-1 #
coedge $-1 $35 $89 $92 $93 forward $21 $-1 #
coedge $-1 $94 $95 $35 $56 reversed $96 $-1 #
edge $-1 $97 -45.069324338967498 $98 45.069324338967498 $55 $99 forward 7 unknown #
face $-1 $100 $101 $13 $-1 $102 reversed single #
loop $-1 $-1 $103 $36 #
plane-surface $-1 -76.249312793505851 -14.3035651010404 0 0 -1 0 0 0 -1 forward_v I I I I #
coedge $-1 $104 $105 $106 $107 forward $37 $-1 #
coedge $-1 $108 $39 $109 $110 reversed $24 $-1 #
coedge $-1 $39 $108 $111 $112 reversed $24 $-1 #
coedge $-1 $105 $104 $39 $64 reversed $37 $-1 #
edge $-1 $113 -15.382879618963548 $114 15.382879618963548 $63 $115 forward 7 unknown #
face $-1 $116 $117 $14 $-1 $118 forward single #
loop $-1 $-1 $119 $40 #
plane-surface $-1 -19.627045767865866 53.839624326622449 173.61881602439848 -1 0 0 0 0.6018150307709319 0.79863550430605224 forward_v I I I I #
coedge $-1 $120 $121 $122 $123 reversed $41 $-1 #
coedge $-1 $70 $43 $121 $124 forward $27 $-1 #
coedge $-1 $43 $69 $125 $126 reversed $27 $-1 #
coedge $-1 $127 $122 $43 $72 forward $117 $-1 #
edge $-1 $128 13.928661002084045 $129 18.149512175656273 $71 $130 forward 7 unknown #
face $-1 $131 $132 $15 $-1 $133 forward single #
loop $-1 $-1 $134 $44 #
plane-surface $-1 -48.788034772496317 53.839624326622449 173.61881602439848 1 0 0 0 -0.6018150307709319 -0.79863550430605224 forward_v I I I I #
loop $-1 $-1 $135 $29 #
coedge $-1 $77 $77 $78 $136 forward $45 $-1 #
coedge $-1 $78 $78 $77 $136 reversed $47 $-1 #
coedge $-1 $79 $79 $48 $80 forward $132 $-1 #
edge $-1 $137 0 $137 6.2831853071796004 $79 $138 forward 7 unknown #
face $-1 $139 $140 $12 $-1 $141 reversed single #
loop $-1 $-1 $142 $49 #
plane-surface $-1 -67.095553453169344 0 0 1 0 0 0 0 -1 forward_v I I I I #
coedge $-1 $143 $92 $144 $145 forward $50 $-1 #
coedge $-1 $146 $52 $143 $147 forward $33 $-1 #
coedge $-1 $52 $146 $148 $149 forward $33 $-1 #
coedge $-1 $95 $94 $52 $88 reversed $96 $-1 #
edge $-1 $150 -45.069324338967498 $151 45.069324338967498 $87 $152 forward 7 unknown #
coedge $-1 $54 $53 $153 $154 forward $21 $-1 #
coedge $-1 $155 $156 $53 $91 reversed $140 $-1 #
edge $-1 $98 -67.095553453169344 $157 67.095553453169344 $90 $158 forward 7 unknown #
coedge $-1 $84 $159 $54 $93 reversed $50 $-1 #
edge $-1 $160 -67.095553453169344 $97 67.095553453169344 $92 $161 forward 7 unknown #
coedge $-1 $87 $55 $159 $162 forward $96 $-1 #
coedge $-1 $55 $87 $155 $163 reversed $96 $-1 #
loop $-1 $-1 $94 $139 #
vertex $-1 $56 $164 #
vertex $-1 $56 $165 #
straight-curve $-1 67.095553453169344 0 15.382879618963548 0 1 0 I I #
face $-1 $166 $167 $13 $-1 $102 reversed single #
loop $-1 $-1 $168 $57 #
plane-surface $-1 -67.095553453169344 0 0 1 0 0 0 0 -1 forward_v I I I I #
coedge $-1 $169 $170 $168 $171 reversed $58 $-1 #
coedge $-1 $63 $60 $172 $173 reversed $37 $-1 #
coedge $-1 $60 $63 $174 $175 reversed $37 $-1 #
coedge $-1 $170 $169 $60 $107 reversed $58 $-1 #
edge $-1 $176 -15.382879618963548 $177 15.382879618963548 $106 $178 forward 7 unknown #
coedge $-1 $62 $61 $179 $180 reversed $24 $-1 #
coedge $-1 $172 $181 $61 $110 forward $182 $-1 #
edge $-1 $183 -9.1537593403365065 $114 9.1537593403365065 $61 $184 forward 7 unknown #
coedge $-1 $185 $174 $62 $112 forward $186 $-1 #
edge $-1 $113 -9.1537593403365065 $187 9.1537593403365065 $62 $188 forward 7 unknown #
vertex $-1 $175 $189 #
vertex $-1 $173 $190 #
straight-curve $-1 -85.403072133842358 -22.426487947046404 0 0 0 -1 I I #
face $-1 $191 $192 $14 $-1 $193 reversed single #
loop $-1 $-1 $194 $65 #
plane-surface $-1 0 0 15.382879618963548 0 0 1 1 0 0 forward_v I I I I #
coedge $-1 $195 $196 $194 $197 reversed $66 $-1 #
coedge $-1 $198 $68 $196 $199 reversed $41 $-1 #
coedge $-1 $68 $198 $69 $124 reversed $41 $-1 #
coedge $-1 $71 $194 $68 $123 forward $117 $-1 #
edge $-1 $200 2.5232756327753201 $128 31.684264637405771 $122 $201 forward 7 unknown #
edge $-1 $128 84.853570377741221 $202 90.138648677934995 $69 $203 forward 7 unknown #
coedge $-1 $204 $205 $70 $126 forward $206 $-1 #
edge $-1 $129 71.426528393235699 $202 74.607167953093594 $125 $207 forward 7 unknown #
coedge $-1 $208 $71 $205 $209 forward $117 $-1 #
vertex $-1 $123 $210 #
vertex $-1 $209 $211 #
straight-curve $-1 -48.788034772496317 26.919812163311224 15.382879618963543 0 1 0 I I #
face $-1 $212 $213 $15 $-1 $214 forward single #
loop $-1 $215 $79 $73 #
plane-surface $-1 -34.207540270181092 -26.918600805401177 66.44903368686731 0 0.6018150307709319 0.79863550430605224 1 0 0 forward_v I I I I #
coedge $-1 $216 $217 $218 $219 reversed $74 $-1 #
coedge $-1 $135 $135 $-1 $220 forward $76 $-1 #
edge $-1 $221 0 $221 6.2831853071796004 $77 $222 forward 7 unknown #
vertex $-1 $80 $223 #
ellipse-curve $-1 -34.207540270181099 42.958898752181376 13.792559839034595 0 -0.6018150307709319 -0.79863550430605224 1 0 0 1 I I #
face $-1 $-1 $96 $12 $-1 $224 reversed single #
loop $-1 $-1 $155 $81 #
plane-surface $-1 0 45.069324338967498 0 0 -1 0 0 0 -1 forward_v I I I I #
coedge $-1 $225 $153 $156 $226 forward $82 $-1 #
coedge $-1 $159 $84 $85 $147 reversed $50 $-1 #
coedge $-1 $153 $225 $84 $145 reversed $82 $-1 #
edge $-1 $160 -15.382879618963548 $227 15.382879618963548 $144 $228 forward 7 unknown #
coedge $-1 $86 $85 $225 $229 forward $33 $-1 #
edge $-1 $151 -67.095553453169344 $227 67.095553453169344 $143 $230 forward 7 unknown #
coedge $-1 $156 $155 $86 $149 reversed $140 $-1 #
edge $-1 $231 -67.095553453169344 $150 67.095553453169344 $148 $232 forward 7 unknown #
vertex $-1 $88 $233 #
vertex $-1 $162 $234 #
straight-curve $-1 67.095553453169344 0 -15.382879618963548 0 -1 0 I I #
coedge $-1 $142 $144 $89 $154 reversed $82 $-1 #
edge $-1 $157 -45.069324338967498 $160 45.069324338967498 $153 $235 forward 7 unknown #
coedge $-1 $148 $90 $95 $163 forward $140 $-1 #
coedge $-1 $90 $148 $142 $226 reversed $140 $-1 #
vertex $-1 $91 $236 #
straight-curve $-1 0 45.069324338967498 15.382879618963548 -1 0 0 I I #
coedge $-1 $92 $143 $94 $162 reversed $50 $-1 #
vertex $-1 $154 $237 #
straight-curve $-1 0 -45.069324338967498 15.382879618963548 1 0 0 I I #
edge $-1 $97 -15.382879618963548 $151 15.382879618963548 $94 $238 forward 7 unknown #
edge $-1 $98 -15.382879618963548 $150 15.382879618963548 $95 $239 forward 7 unknown #
point $-1 67.095553453169344 -45.069324338967498 15.382879618963548 #
point $-1 67.095553453169344 45.069324338967498 15.382879618963548 #
face $-1 $240 $186 $13 $-1 $241 forward single #
loop $-1 $-1 $179 $100 #
coedge $-1 $242 $243 $103 $171 forward $101 $-1 #
coedge $-1 $106 $103 $244 $245 reversed $58 $-1 #
coedge $-1 $103 $106 $246 $247 reversed $58 $-1 #
edge $-1 $248 -15.382879618963548 $249 15.382879618963548 $168 $250 forward 7 unknown #
coedge $-1 $244 $109 $104 $173 forward $182 $-1 #
edge $-1 $114 -4.0614614230030028 $177 4.0614614230030011 $104 $251 forward 7 unknown #
coedge $-1 $111 $246 $105 $175 forward $186 $-1 #
edge $-1 $176 -4.0614614230030011 $113 4.0614614230030028 $105 $252 forward 7 unknown #
vertex $-1 $247 $253 #
vertex $-1 $245 $254 #
straight-curve $-1 -85.403072133842358 -14.3035651010404 0 0 0 -1 I I #
coedge $-1 $255 $256 $108 $180 forward $167 $-1 #
edge $-1 $187 -15.382879618963548 $183 15.382879618963548 $179 $257 forward 7 unknown #
coedge $-1 $109 $258 $255 $259 forward $182 $-1 #
loop $-1 $-1 $260 $240 #
vertex $-1 $110 $261 #
straight-curve $-1 -76.249312793505851 -22.426487947046404 -15.382879618963548 -1 0 0 I I #
coedge $-1 $262 $111 $256 $263 forward $186 $-1 #
loop $-1 $-1 $264 $166 #
vertex $-1 $263 $265 #
straight-curve $-1 -76.249312793505851 -22.426487947046404 15.382879618963548 1 0 0 I I #
point $-1 -85.403072133842358 -22.426487947046404 15.382879618963548 #
point $-1 -85.403072133842358 -22.426487947046404 -15.382879618963548 #
face $-1 $266 $267 $14 $-1 $268 reversed single #
loop $-1 $-1 $269 $116 #
plane-surface $-1 -76.249312793505851 -22.426487947046404 0 0 1 0 0 0 1 forward_v I I I I #
coedge $-1 $122 $270 $119 $197 forward $117 $-1 #
coedge $-1 $196 $119 $271 $272 reversed $66 $-1 #
coedge $-1 $119 $195 $120 $199 forward $66 $-1 #
edge $-1 $273 -18.149512175656273 $200 -13.928661002084045 $194 $274 forward 7 unknown #
coedge $-1 $121 $120 $204 $275 reversed $41 $-1 #
edge $-1 $276 -90.138648677934995 $200 -84.853570377741221 $196 $277 forward 7 unknown #
vertex $-1 $123 $278 #
straight-curve $-1 -17.103770135090546 40.848473165395269 15.38287961896355 -1 0 0 I I #
vertex $-1 $275 $279 #
straight-curve $-1 -48.788034772496317 -26.918600805401177 66.44903368686731 0 0.79863550430605224 -0.6018150307709319 I I #
coedge $-1 $271 $125 $198 $275 forward $206 $-1 #
coedge $-1 $125 $280 $127 $209 reversed $206 $-1 #
loop $-1 $-1 $271 $281 #
straight-curve $-1 -48.788034772496317 45.069324338967498 86.809408012199242 0 0 -1 I I #
coedge $-1 $282 $127 $283 $284 forward $117 $-1 #
edge $-1 $129 48.788034772496317 $285 67.095553453169344 $205 $286 forward 7 unknown #
point $-1 -48.788034772496317 40.848473165395269 15.38287961896355 #
point $-1 -48.788034772496317 45.069324338967498 15.382879618963548 #
face $-1 $287 $288 $15 $-1 $289 forward single #
loop $-1 $-1 $290 $131 #
plane-surface $-1 -19.627045767865866 53.839624326622449 173.61881602439848 -1 0 0 0 0.6018150307709319 0.79863550430605224 forward_v I I I I #
loop $-1 $-1 $291 $73 #
coedge $-1 $217 $134 $292 $293 forward $74 $-1 #
coedge $-1 $134 $216 $294 $295 reversed $74 $-1 #
coedge $-1 $296 $297 $134 $219 forward $288 $-1 #
edge $-1 $298 13.928661002084045 $299 18.149512175656273 $218 $300 forward 7 unknown #
edge $-1 $301 1 $301 0 $135 $-1 forward 7 unknown #
vertex $-1 $136 $302 #
ellipse-curve $-1 -34.207540270181099 41.747022133163512 12.184345279244983 0 0.6018150307709319 0.79863550430605224 1 0 0 1 I I #
point $-1 -33.207540270181099 42.958898752181376 13.792559839034595 #
plane-surface $-1 67.095553453169344 0 0 -1 0 0 0 0 1 forward_v I I I I #
coedge $-1 $144 $142 $146 $229 reversed $82 $-1 #
edge $-1 $157 -15.382879618963548 $231 15.382879618963548 $156 $303 forward 7 unknown #
vertex $-1 $229 $304 #
straight-curve $-1 -67.095553453169344 -45.069324338967498 0 0 0 -1 I I #
edge $-1 $227 -45.069324338967498 $231 45.069324338967498 $225 $305 forward 7 unknown #
straight-curve $-1 0 -45.069324338967498 -15.382879618963548 -1 0 0 I I #
vertex $-1 $149 $306 #
straight-curve $-1 0 45.069324338967498 -15.382879618963548 1 0 0 I I #
point $-1 67.095553453169344 45.069324338967498 -15.382879618963548 #
point $-1 67.095553453169344 -45.069324338967498 -15.382879618963548 #
straight-curve $-1 -67.095553453169344 0 15.382879618963548 0 -1 0 I I #
point $-1 -67.095553453169344 45.069324338967498 15.382879618963548 #
point $-1 -67.095553453169344 -45.069324338967498 15.382879618963548 #
straight-curve $-1 67.095553453169344 -45.069324338967498 0 0 0 -1 I I #
straight-curve $-1 67.095553453169344 45.069324338967498 0 0 0 -1 I I #
face $-1 $307 $182 $13 $-1 $308 reversed single #
plane-surface $-1 0 0 15.382879618963548 0 0 1 1 0 0 forward_v I I I I #
coedge $-1 $309 $168 $310 $311 reversed $101 $-1 #
coedge $-1 $168 $309 $312 $313 reversed $101 $-1 #
coedge $-1 $312 $172 $169 $245 forward $182 $-1 #
edge $-1 $177 -9.1537593403365065 $248 9.1537593403365065 $169 $314 forward 7 unknown #
coedge $-1 $174 $310 $170 $247 forward $186 $-1 #
edge $-1 $249 -9.1537593403365065 $176 9.1537593403365065 $170 $315 forward 7 unknown #
vertex $-1 $313 $316 #
vertex $-1 $247 $317 #
straight-curve $-1 -67.095553453169344 -14.3035651010404 0 0 0 1 I I #
straight-curve $-1 -85.403072133842358 -18.365026524043401 -15.382879618963548 0 1 0 I I #
straight-curve $-1 -85.403072133842358 -18.365026524043401 15.382879618963548 0 -1 0 I I #
point $-1 -85.403072133842358 -14.3035651010404 15.382879618963548 #
point $-1 -85.403072133842358 -14.3035651010404 -15.382879618963548 #
coedge $-1 $318 $179 $181 $259 reversed $167 $-1 #
coedge $-1 $179 $318 $185 $263 reversed $167 $-1 #
straight-curve $-1 -67.095553453169344 -22.426487947046404 0 0 0 -1 I I #
coedge $-1 $181 $260 $319 $320 forward $182 $-1 #
edge $-1 $321 -45.069324338967498 $183 -22.426487947046404 $255 $322 forward 7 unknown #
coedge $-1 $258 $323 $324 $325 forward $182 $-1 #
point $-1 -67.095553453169344 -22.426487947046404 -15.382879618963548 #
coedge $-1 $264 $185 $326 $327 forward $186 $-1 #
edge $-1 $187 22.426487947046404 $328 45.069324338967498 $256 $329 forward 7 unknown #
coedge $-1 $330 $262 $331 $332 forward $186 $-1 #
point $-1 -67.095553453169344 -22.426487947046404 15.382879618963548 #
face $-1 $333 $334 $14 $-1 $335 reversed single #
loop $-1 $-1 $336 $191 #
plane-surface $-1 -85.403072133842358 -18.365026524043401 0 1 0 0 0 0 -1 forward_v I I I I #
coedge $-1 $337 $338 $339 $340 forward $192 $-1 #
coedge $-1 $194 $341 $342 $343 forward $117 $-1 #
coedge $-1 $342 $204 $195 $272 forward $206 $-1 #
edge $-1 $276 -74.607167953093594 $273 -71.426528393235699 $271 $344 forward 7 unknown #
vertex $-1 $272 $345 #
straight-curve $-1 -19.627045767865866 26.919812163311224 15.382879618963543 0 -1 0 I I #
edge $-1 $202 -31.684264637405771 $276 -2.5232756327753201 $204 $346 forward 7 unknown #
vertex $-1 $275 $347 #
straight-curve $-1 -19.627045767865866 -26.918600805401177 66.44903368686731 0 -0.79863550430605224 0.6018150307709319 I I #
point $-1 -19.627045767865866 40.848473165395269 15.38287961896355 #
point $-1 -48.788034772496317 45.069324338967498 12.202240059105648 #
coedge $-1 $205 $348 $349 $350 reversed $206 $-1 #
face $-1 $351 $206 $14 $-1 $352 reversed single #
coedge $-1 $353 $208 $354 $355 forward $117 $-1 #
coedge $-1 $349 $356 $208 $284 reversed $357 $-1 #
edge $-1 $285 -45.069324338967498 $358 14.3035651010404 $283 $359 forward 7 unknown #
vertex $-1 $209 $360 #
straight-curve $-1 0 45.069324338967498 15.382879618963548 -1 0 0 I I #
face $-1 $361 $362 $15 $-1 $363 reversed single #
loop $-1 $-1 $364 $212 #
plane-surface $-1 0 0 15.382879618963548 0 0 1 1 0 0 forward_v I I I I #
coedge $-1 $365 $366 $364 $367 reversed $213 $-1 #
coedge $-1 $368 $292 $297 $369 reversed $215 $-1 #
coedge $-1 $291 $370 $216 $293 reversed $215 $-1 #
edge $-1 $298 84.853570377741221 $371 90.138648677934995 $216 $372 forward 7 unknown #
coedge $-1 $373 $374 $217 $295 forward $375 $-1 #
edge $-1 $299 71.426528393235699 $371 74.607167953093594 $294 $376 forward 7 unknown #
coedge $-1 $377 $218 $374 $378 forward $288 $-1 #
coedge $-1 $218 $364 $291 $369 forward $288 $-1 #
vertex $-1 $369 $379 #
vertex $-1 $378 $380 #
straight-curve $-1 -48.788034772496317 26.919812163311224 15.382879618963543 0 1 0 I I #
vertex $-1 $220 $381 #
point $-1 -33.207540270181099 41.747022133163512 12.184345279244983 #
straight-curve $-1 -67.095553453169344 45.069324338967498 0 0 0 -1 I I #
point $-1 -67.095553453169344 -45.069324338967498 -15.382879618963548 #
straight-curve $-1 -67.095553453169344 0 -15.382879618963548 0 1 0 I I #
point $-1 -67.095553453169344 45.069324338967498 -15.382879618963548 #
face $-1 $382 $383 $13 $-1 $384 reversed single #
plane-surface $-1 0 0 -15.382879618963548 0 0 1 1 0 0 forward_v I I I I #
coedge $-1 $243 $242 $385 $386 forward $101 $-1 #
coedge $-1 $246 $330 $242 $311 forward $186 $-1 #
edge $-1 $387 -45.069324338967498 $249 14.3035651010404 $242 $329 forward 7 unknown #
coedge $-1 $323 $244 $243 $313 forward $182 $-1 #
edge $-1 $248 -14.3035651010404 $388 45.069324338967498 $243 $322 forward 7 unknown #
straight-curve $-1 -76.249312793505851 -14.3035651010404 -15.382879618963548 1 0 0 I I #
straight-curve $-1 -76.249312793505851 -14.3035651010404 15.382879618963548 -1 0 0 I I #
point $-1 -67.095553453169344 -14.3035651010404 -15.382879618963548 #
point $-1 -67.095553453169344 -14.3035651010404 15.382879618963548 #
coedge $-1 $256 $255 $389 $390 reversed $167 $-1 #
coedge $-1 $391 $389 $258 $320 reversed $383 $-1 #
edge $-1 $392 -67.095553453169344 $321 67.095553453169344 $319 $393 forward 7 unknown #
vertex $-1 $259 $394 #
straight-curve $-1 -67.095553453169344 0 -15.382879618963548 0 1 0 I I #
coedge $-1 $260 $312 $395 $396 forward $182 $-1 #
coedge $-1 $397 $398 $260 $325 reversed $399 $-1 #
edge $-1 $400 -45.069324338967498 $392 45.069324338967498 $324 $401 forward 7 unknown #
coedge $-1 $389 $391 $262 $327 reversed $383 $-1 #
edge $-1 $328 -67.095553453169344 $402 67.095553453169344 $326 $403 forward 7 unknown #
vertex $-1 $263 $404 #
straight-curve $-1 -67.095553453169344 0 15.382879618963548 0 -1 0 I I #
coedge $-1 $310 $264 $405 $406 forward $186 $-1 #
coedge $-1 $398 $397 $264 $332 reversed $399 $-1 #
edge $-1 $402 -45.069324338967498 $407 45.069324338967498 $331 $408 forward 7 unknown #
face $-1 $409 $357 $14 $-1 $410 reversed single #
loop $-1 $-1 $411 $266 #
plane-surface $-1 -76.249312793505851 -14.3035651010404 0 0 -1 0 0 0 -1 forward_v I I I I #
coedge $-1 $412 $413 $414 $415 forward $267 $-1 #
coedge $-1 $416 $269 $417 $418 reversed $192 $-1 #
coedge $-1 $269 $416 $419 $420 reversed $192 $-1 #
coedge $-1 $413 $412 $269 $340 reversed $267 $-1 #
edge $-1 $421 -15.382879618963548 $422 15.382879618963548 $339 $423 forward 7 unknown #
coedge $-1 $270 $424 $425 $426 forward $117 $-1 #
coedge $-1 $427 $271 $270 $343 reversed $206 $-1 #
edge $-1 $428 -67.095553453169344 $273 19.627045767865866 $342 $286 forward 7 unknown #
straight-curve $-1 -19.627045767865866 45.069324338967498 86.809408012199242 0 0 1 I I #
point $-1 -19.627045767865866 45.069324338967498 15.382879618963548 #
straight-curve $-1 -17.103770135090546 45.069324338967498 12.202240059105648 1 0 0 I I #
point $-1 -19.627045767865866 45.069324338967498 12.202240059105648 #
coedge $-1 $280 $427 $429 $430 reversed $206 $-1 #
coedge $-1 $431 $283 $280 $350 forward $357 $-1 #
edge $-1 $285 -15.382879618963548 $432 15.382879618963548 $280 $433 forward 7 unknown #
face $-1 $-1 $434 $14 $-1 $435 reversed single #
plane-surface $-1 0 45.069324338967498 0 0 -1 0 0 0 -1 forward_v I I I I #
coedge $-1 $419 $282 $413 $436 forward $117 $-1 #
coedge $-1 $411 $414 $282 $355 reversed $334 $-1 #
edge $-1 $358 -9.1537593403365065 $437 9.1537593403365065 $354 $438 forward 7 unknown #
coedge $-1 $283 $431 $411 $439 forward $357 $-1 #
loop $-1 $-1 $356 $333 #
vertex $-1 $355 $440 #
straight-curve $-1 -67.095553453169344 0 15.382879618963548 0 -1 0 I I #
point $-1 -67.095553453169344 45.069324338967498 15.382879618963548 #
face $-1 $441 $442 $15 $-1 $443 reversed single #
loop $-1 $-1 $444 $287 #
plane-surface $-1 -76.249312793505851 -22.426487947046404 0 0 1 0 0 0 1 forward_v I I I I #
coedge $-1 $297 $445 $290 $367 forward $288 $-1 #
coedge $-1 $366 $290 $446 $447 reversed $213 $-1 #
coedge $-1 $290 $365 $368 $448 forward $213 $-1 #
edge $-1 $449 -18.149512175656273 $450 -13.928661002084045 $364 $451 forward 7 unknown #
coedge $-1 $370 $291 $366 $448 reversed $215 $-1 #
edge $-1 $450 2.5232756327753201 $298 31.684264637405771 $297 $452 forward 7 unknown #
coedge $-1 $292 $368 $373 $453 reversed $215 $-1 #
vertex $-1 $453 $454 #
straight-curve $-1 -48.788034772496317 -26.918600805401177 66.44903368686731 0 0.79863550430605224 -0.6018150307709319 I I #
coedge $-1 $446 $294 $370 $453 forward $375 $-1 #
coedge $-1 $294 $455 $296 $378 reversed $375 $-1 #
loop $-1 $-1 $446 $456 #
straight-curve $-1 -48.788034772496317 45.069324338967498 86.809408012199242 0 0 -1 I I #
coedge $-1 $457 $296 $458 $459 forward $288 $-1 #
edge $-1 $299 48.788034772496317 $460 67.095553453169344 $374 $461 forward 7 unknown #
point $-1 -48.788034772496317 40.848473165395269 15.38287961896355 #
point $-1 -48.788034772496317 45.069324338967498 15.382879618963548 #
point $-1 -34.207540270181099 41.145207102392575 11.385709774938931 #
face $-1 $462 $463 $13 $-1 $464 reversed single #
loop $-1 $-1 $389 $307 #
plane-surface $-1 0 -45.069324338967498 0 0 1 0 0 0 1 forward_v I I I I #
coedge $-1 $405 $395 $309 $386 reversed $463 $-1 #
edge $-1 $387 -15.382879618963548 $388 15.382879618963548 $385 $465 forward 7 unknown #
vertex $-1 $406 $466 #
vertex $-1 $396 $467 #
coedge $-1 $319 $326 $318 $390 forward $383 $-1 #
edge $-1 $328 -15.382879618963548 $321 15.382879618963548 $318 $468 forward 7 unknown #
coedge $-1 $326 $319 $398 $469 reversed $383 $-1 #
vertex $-1 $469 $470 #
straight-curve $-1 0 -45.069324338967498 -15.382879618963548 -1 0 0 I I #
point $-1 -67.095553453169344 -45.069324338967498 -15.382879618963548 #
coedge $-1 $385 $471 $323 $396 reversed $463 $-1 #
edge $-1 $388 -67.095553453169344 $400 67.095553453169344 $395 $472 forward 7 unknown #
coedge $-1 $331 $324 $471 $473 reversed $399 $-1 #
coedge $-1 $324 $331 $391 $469 forward $399 $-1 #
loop $-1 $-1 $398 $462 #
vertex $-1 $325 $474 #
straight-curve $-1 67.095553453169344 0 -15.382879618963548 0 -1 0 I I #
vertex $-1 $332 $475 #
straight-curve $-1 0 -45.069324338967498 15.382879618963548 1 0 0 I I #
point $-1 -67.095553453169344 -45.069324338967498 15.382879618963548 #
coedge $-1 $471 $385 $330 $406 reversed $463 $-1 #
edge $-1 $407 -67.095553453169344 $387 67.095553453169344 $405 $476 forward 7 unknown #
vertex $-1 $332 $477 #
straight-curve $-1 67.095553453169344 0 15.382879618963548 0 1 0 I I #
face $-1 $478 $479 $14 $-1 $410 reversed single #
plane-surface $-1 -67.095553453169344 0 0 1 0 0 0 0 -1 forward_v I I I I #
coedge $-1 $480 $354 $356 $439 reversed $334 $-1 #
coedge $-1 $339 $336 $481 $482 reversed $267 $-1 #
coedge $-1 $336 $339 $353 $436 reversed $267 $-1 #
coedge $-1 $354 $480 $336 $415 reversed $334 $-1 #
edge $-1 $437 -15.382879618963548 $483 15.382879618963548 $414 $484 forward 7 unknown #
coedge $-1 $338 $337 $485 $486 reversed $192 $-1 #
coedge $-1 $481 $487 $337 $418 forward $488 $-1 #
edge $-1 $489 -9.1537593403365065 $422 9.1537593403365065 $337 $490 forward 7 unknown #
coedge $-1 $491 $353 $338 $420 forward $117 $-1 #
edge $-1 $421 -9.1537593403365065 $492 9.1537593403365065 $338 $493 forward 7 unknown #
vertex $-1 $436 $494 #
vertex $-1 $482 $495 #
straight-curve $-1 -85.403072133842358 -22.426487947046404 0 0 0 -1 I I #
coedge $-1 $341 $491 $496 $497 forward $117 $-1 #
coedge $-1 $498 $499 $341 $426 reversed $434 $-1 #
edge $-1 $500 -45.069324338967498 $428 45.069324338967498 $425 $501 forward 7 unknown #
coedge $-1 $348 $342 $499 $502 forward $206 $-1 #
vertex $-1 $426 $503 #
coedge $-1 $504 $505 $348 $430 forward $488 $-1 #
edge $-1 $432 -67.095553453169344 $506 67.095553453169344 $348 $507 forward 7 unknown #
coedge $-1 $356 $349 $505 $508 reversed $357 $-1 #
vertex $-1 $430 $509 #
straight-curve $-1 -67.095553453169344 45.069324338967498 0 0 0 -1 I I #
loop $-1 $-1 $498 $351 #
plane-surface $-1 67.095553453169344 0 0 -1 0 0 0 0 1 forward_v I I I I #
edge $-1 $437 -4.0614614230030011 $421 4.0614614230030028 $413 $510 forward 7 unknown #
vertex $-1 $355 $511 #
straight-curve $-1 -76.249312793505851 -14.3035651010404 15.382879618963548 -1 0 0 I I #
edge $-1 $512 -15.382879618963548 $358 15.382879618963548 $356 $513 forward 7 unknown #
point $-1 -67.095553453169344 -14.3035651010404 15.382879618963548 #
face $-1 $514 $515 $15 $-1 $516 reversed single #
loop $-1 $-1 $517 $361 #
plane-surface $-1 -85.403072133842358 -18.365026524043401 0 1 0 0 0 0 -1 forward_v I I I I #
coedge $-1 $518 $519 $520 $521 forward $362 $-1 #
coedge $-1 $364 $522 $523 $524 forward $288 $-1 #
coedge $-1 $523 $373 $365 $447 forward $375 $-1 #
edge $-1 $525 -74.607167953093594 $449 -71.426528393235699 $446 $526 forward 7 unknown #
edge $-1 $525 -90.138648677934995 $450 -84.853570377741221 $366 $527 forward 7 unknown #
vertex $-1 $447 $528 #
vertex $-1 $369 $529 #
straight-curve $-1 -19.627045767865866 26.919812163311224 15.382879618963543 0 -1 0 I I #
straight-curve $-1 -17.103770135090546 40.848473165395269 15.38287961896355 -1 0 0 I I #
edge $-1 $371 -31.684264637405771 $525 -2.5232756327753201 $373 $530 forward 7 unknown #
point $-1 -48.788034772496317 45.069324338967498 12.202240059105648 #
coedge $-1 $374 $531 $532 $533 reversed $375 $-1 #
face $-1 $534 $375 $15 $-1 $535 reversed single #
coedge $-1 $536 $377 $537 $538 forward $288 $-1 #
coedge $-1 $532 $539 $377 $459 reversed $540 $-1 #
edge $-1 $460 -45.069324338967498 $541 14.3035651010404 $458 $542 forward 7 unknown #
vertex $-1 $378 $543 #
straight-curve $-1 0 45.069324338967498 15.382879618963548 -1 0 0 I I #
face $-1 $-1 $399 $13 $-1 $544 reversed single #
loop $-1 $-1 $471 $382 #
plane-surface $-1 0 45.069324338967498 0 0 -1 0 0 0 -1 forward_v I I I I #
straight-curve $-1 -67.095553453169344 45.069324338967498 0 0 0 -1 I I #
point $-1 -67.095553453169344 45.069324338967498 15.382879618963548 #
point $-1 -67.095553453169344 45.069324338967498 -15.382879618963548 #
straight-curve $-1 -67.095553453169344 -45.069324338967498 0 0 0 -1 I I #
edge $-1 $402 -15.382879618963548 $392 15.382879618963548 $398 $545 forward 7 unknown #
point $-1 67.095553453169344 -45.069324338967498 -15.382879618963548 #
coedge $-1 $395 $405 $397 $473 forward $463 $-1 #
straight-curve $-1 0 45.069324338967498 -15.382879618963548 1 0 0 I I #
edge $-1 $407 -15.382879618963548 $400 15.382879618963548 $397 $546 forward 7 unknown #
point $-1 67.095553453169344 45.069324338967498 -15.382879618963548 #
point $-1 67.095553453169344 -45.069324338967498 15.382879618963548 #
straight-curve $-1 0 45.069324338967498 15.382879618963548 -1 0 0 I I #
point $-1 67.095553453169344 45.069324338967498 15.382879618963548 #
face $-1 $547 $488 $14 $-1 $548 reversed single #
loop $-1 $-1 $485 $409 #
coedge $-1 $414 $411 $549 $550 reversed $334 $-1 #
coedge $-1 $549 $417 $412 $482 forward $488 $-1 #
edge $-1 $422 -4.0614614230030028 $483 4.0614614230030011 $412 $551 forward 7 unknown #
vertex $-1 $550 $552 #
straight-curve $-1 -85.403072133842358 -14.3035651010404 0 0 0 -1 I I #
coedge $-1 $553 $554 $416 $486 forward $479 $-1 #
edge $-1 $492 -15.382879618963548 $489 15.382879618963548 $485 $555 forward 7 unknown #
coedge $-1 $417 $556 $553 $557 forward $488 $-1 #
loop $-1 $-1 $504 $478 #
vertex $-1 $418 $558 #
straight-curve $-1 -76.249312793505851 -22.426487947046404 -15.382879618963548 -1 0 0 I I #
coedge $-1 $424 $419 $554 $559 forward $117 $-1 #
vertex $-1 $559 $560 #
straight-curve $-1 -76.249312793505851 -22.426487947046404 15.382879618963548 1 0 0 I I #
point $-1 -85.403072133842358 -22.426487947046404 15.382879618963548 #
point $-1 -85.403072133842358 -22.426487947046404 -15.382879618963548 #
coedge $-1 $561 $562 $424 $497 reversed $563 $-1 #
edge $-1 $564 -67.095553453169344 $500 67.095553453169344 $496 $565 forward 7 unknown #
coedge $-1 $566 $425 $562 $567 forward $434 $-1 #
coedge $-1 $425 $566 $427 $502 reversed $434 $-1 #
vertex $-1 $426 $568 #
straight-curve $-1 67.095553453169344 0 15.382879618963548 0 1 0 I I #
edge $-1 $428 -15.382879618963548 $506 15.382879618963548 $499 $569 forward 7 unknown #
point $-1 67.095553453169344 45.069324338967498 15.382879618963548 #
coedge $-1 $556 $429 $566 $570 forward $488 $-1 #
coedge $-1 $429 $549 $431 $508 forward $488 $-1 #
vertex $-1 $570 $571 #
straight-curve $-1 0 45.069324338967498 -15.382879618963548 1 0 0 I I #
edge $-1 $512 -14.3035651010404 $432 45.069324338967498 $431 $572 forward 7 unknown #
point $-1 -67.095553453169344 45.069324338967498 -15.382879618963548 #
straight-curve $-1 -85.403072133842358 -18.365026524043401 15.382879618963548 0 -1 0 I I #
point $-1 -85.403072133842358 -14.3035651010404 15.382879618963548 #
vertex $-1 $508 $573 #
straight-curve $-1 -67.095553453169344 -14.3035651010404 0 0 0 1 I I #
face $-1 $574 $540 $15 $-1 $575 reversed single #
loop $-1 $-1 $576 $441 #
plane-surface $-1 -76.249312793505851 -14.3035651010404 0 0 -1 0 0 0 -1 forward_v I I I I #
coedge $-1 $577 $578 $579 $580 forward $442 $-1 #
coedge $-1 $581 $444 $582 $583 reversed $362 $-1 #
coedge $-1 $444 $581 $584 $585 reversed $362 $-1 #
coedge $-1 $578 $577 $444 $521 reversed $442 $-1 #
edge $-1 $586 -15.382879618963548 $587 15.382879618963548 $520 $588 forward 7 unknown #
coedge $-1 $445 $589 $590 $591 forward $288 $-1 #
coedge $-1 $592 $446 $445 $524 reversed $375 $-1 #
edge $-1 $593 -67.095553453169344 $449 19.627045767865866 $523 $461 forward 7 unknown #
vertex $-1 $453 $594 #
straight-curve $-1 -19.627045767865866 45.069324338967498 86.809408012199242 0 0 1 I I #
straight-curve $-1 -19.627045767865866 -26.918600805401177 66.44903368686731 0 -0.79863550430605224 0.6018150307709319 I I #
point $-1 -19.627045767865866 45.069324338967498 15.382879618963548 #
point $-1 -19.627045767865866 40.848473165395269 15.38287961896355 #
straight-curve $-1 -17.103770135090546 45.069324338967498 12.202240059105648 1 0 0 I I #
coedge $-1 $455 $592 $595 $596 reversed $375 $-1 #
coedge $-1 $597 $458 $455 $533 forward $540 $-1 #
edge $-1 $460 -15.382879618963548 $598 15.382879618963548 $455 $599 forward 7 unknown #
face $-1 $-1 $600 $15 $-1 $601 reversed single #
plane-surface $-1 0 45.069324338967498 0 0 -1 0 0 0 -1 forward_v I I I I #
coedge $-1 $584 $457 $578 $602 forward $288 $-1 #
coedge $-1 $576 $579 $457 $538 reversed $515 $-1 #
edge $-1 $541 -9.1537593403365065 $603 9.1537593403365065 $537 $604 forward 7 unknown #
coedge $-1 $458 $597 $576 $605 forward $540 $-1 #
loop $-1 $-1 $539 $514 #
vertex $-1 $538 $606 #
straight-curve $-1 -67.095553453169344 0 15.382879618963548 0 -1 0 I I #
point $-1 -67.095553453169344 45.069324338967498 15.382879618963548 #
plane-surface $-1 67.095553453169344 0 0 -1 0 0 0 0 1 forward_v I I I I #
straight-curve $-1 67.095553453169344 -45.069324338967498 0 0 0 -1 I I #
straight-curve $-1 67.095553453169344 45.069324338967498 0 0 0 -1 I I #
face $-1 $281 $563 $14 $-1 $607 reversed single #
plane-surface $-1 0 0 -15.382879618963548 0 0 1 1 0 0 forward_v I I I I #
coedge $-1 $505 $481 $480 $550 forward $488 $-1 #
edge $-1 $483 -9.1537593403365065 $512 9.1537593403365065 $480 $608 forward 7 unknown #
straight-curve $-1 -85.403072133842358 -18.365026524043401 -15.382879618963548 0 1 0 I I #
point $-1 -85.403072133842358 -14.3035651010404 -15.382879618963548 #
coedge $-1 $609 $485 $487 $557 reversed $479 $-1 #
coedge $-1 $485 $609 $491 $559 reversed $479 $-1 #
straight-curve $-1 -67.095553453169344 -22.426487947046404 0 0 0 -1 I I #
coedge $-1 $487 $504 $610 $611 forward $488 $-1 #
edge $-1 $612 -45.069324338967498 $489 -22.426487947046404 $553 $572 forward 7 unknown #
point $-1 -67.095553453169344 -22.426487947046404 -15.382879618963548 #
edge $-1 $492 22.426487947046404 $564 45.069324338967498 $554 $359 forward 7 unknown #
point $-1 -67.095553453169344 -22.426487947046404 15.382879618963548 #
coedge $-1 $610 $496 $609 $613 forward $563 $-1 #
coedge $-1 $496 $610 $498 $567 reversed $563 $-1 #
loop $-1 $-1 $561 $547 #
vertex $-1 $559 $614 #
straight-curve $-1 0 -45.069324338967498 15.382879618963548 1 0 0 I I #
coedge $-1 $499 $498 $504 $570 reversed $434 $-1 #
edge $-1 $500 -15.382879618963548 $615 15.382879618963548 $498 $616 forward 7 unknown #
point $-1 67.095553453169344 -45.069324338967498 15.382879618963548 #
straight-curve $-1 67.095553453169344 45.069324338967498 0 0 0 -1 I I #
edge $-1 $506 -45.069324338967498 $615 45.069324338967498 $566 $617 forward 7 unknown #
point $-1 67.095553453169344 45.069324338967498 -15.382879618963548 #
straight-curve $-1 -67.095553453169344 0 -15.382879618963548 0 1 0 I I #
point $-1 -67.095553453169344 -14.3035651010404 -15.382879618963548 #
face $-1 $618 $619 $15 $-1 $575 reversed single #
plane-surface $-1 -67.095553453169344 0 0 1 0 0 0 0 -1 forward_v I I I I #
coedge $-1 $620 $537 $539 $605 reversed $515 $-1 #
coedge $-1 $520 $517 $621 $622 reversed $442 $-1 #
coedge $-1 $517 $520 $536 $602 reversed $442 $-1 #
coedge $-1 $537 $620 $517 $580 reversed $515 $-1 #
edge $-1 $603 -15.382879618963548 $623 15.382879618963548 $579 $624 forward 7 unknown #
coedge $-1 $519 $518 $625 $626 reversed $362 $-1 #
coedge $-1 $621 $627 $518 $583 forward $628 $-1 #
edge $-1 $629 -9.1537593403365065 $587 9.1537593403365065 $518 $630 forward 7 unknown #
coedge $-1 $631 $536 $519 $585 forward $288 $-1 #
edge $-1 $586 -9.1537593403365065 $632 9.1537593403365065 $519 $633 forward 7 unknown #
vertex $-1 $602 $634 #
vertex $-1 $622 $635 #
straight-curve $-1 -85.403072133842358 -22.426487947046404 0 0 0 -1 I I #
coedge $-1 $522 $631 $636 $637 forward $288 $-1 #
coedge $-1 $638 $639 $522 $591 reversed $600 $-1 #
edge $-1 $640 -45.069324338967498 $593 45.069324338967498 $590 $641 forward 7 unknown #
coedge $-1 $531 $523 $639 $642 forward $375 $-1 #
vertex $-1 $591 $643 #
point $-1 -19.627045767865866 45.069324338967498 12.202240059105648 #
coedge $-1 $644 $645 $531 $596 forward $628 $-1 #
edge $-1 $598 -67.095553453169344 $646 67.095553453169344 $531 $647 forward 7 unknown #
coedge $-1 $539 $532 $645 $648 reversed $540 $-1 #
vertex $-1 $596 $649 #
straight-curve $-1 -67.095553453169344 45.069324338967498 0 0 0 -1 I I #
loop $-1 $-1 $638 $534 #
plane-surface $-1 67.095553453169344 0 0 -1 0 0 0 0 1 forward_v I I I I #
edge $-1 $603 -4.0614614230030011 $586 4.0614614230030028 $578 $650 forward 7 unknown #
vertex $-1 $538 $651 #
straight-curve $-1 -76.249312793505851 -14.3035651010404 15.382879618963548 -1 0 0 I I #
edge $-1 $652 -15.382879618963548 $541 15.382879618963548 $539 $653 forward 7 unknown #
point $-1 -67.095553453169344 -14.3035651010404 15.382879618963548 #
plane-surface $-1 0 -45.069324338967498 0 0 1 0 0 0 1 forward_v I I I I #
straight-curve $-1 -76.249312793505851 -14.3035651010404 -15.382879618963548 1 0 0 I I #
coedge $-1 $554 $553 $561 $613 reversed $479 $-1 #
coedge $-1 $562 $561 $556 $611 reversed $563 $-1 #
edge $-1 $615 -67.095553453169344 $612 67.095553453169344 $610 $654 forward 7 unknown #
vertex $-1 $557 $655 #
edge $-1 $564 -15.382879618963548 $612 15.382879618963548 $609 $656 forward 7 unknown #
point $-1 -67.095553453169344 -45.069324338967498 15.382879618963548 #
vertex $-1 $567 $657 #
straight-curve $-1 67.095553453169344 -45.069324338967498 0 0 0 -1 I I #
straight-curve $-1 67.095553453169344 0 -15.382879618963548 0 -1 0 I I #
face $-1 $658 $628 $15 $-1 $659 reversed single #
loop $-1 $-1 $625 $574 #
coedge $-1 $579 $576 $660 $661 reversed $515 $-1 #
coedge $-1 $660 $582 $577 $622 forward $628 $-1 #
edge $-1 $587 -4.0614614230030028 $623 4.0614614230030011 $577 $662 forward 7 unknown #
vertex $-1 $661 $663 #
straight-curve $-1 -85.403072133842358 -14.3035651010404 0 0 0 -1 I I #
coedge $-1 $664 $665 $581 $626 forward $619 $-1 #
edge $-1 $632 -15.382879618963548 $629 15.382879618963548 $625 $666 forward 7 unknown #
coedge $-1 $582 $667 $664 $668 forward $628 $-1 #
loop $-1 $-1 $644 $618 #
vertex $-1 $583 $669 #
straight-curve $-1 -76.249312793505851 -22.426487947046404 -15.382879618963548 -1 0 0 I I #
coedge $-1 $589 $584 $665 $670 forward $288 $-1 #
vertex $-1 $670 $671 #
straight-curve $-1 -76.249312793505851 -22.426487947046404 15.382879618963548 1 0 0 I I #
point $-1 -85.403072133842358 -22.426487947046404 15.382879618963548 #
point $-1 -85.403072133842358 -22.426487947046404 -15.382879618963548 #
coedge $-1 $672 $673 $589 $637 reversed $674 $-1 #
edge $-1 $675 -67.095553453169344 $640 67.095553453169344 $636 $676 forward 7 unknown #
coedge $-1 $677 $590 $673 $678 forward $600 $-1 #
coedge $-1 $590 $677 $592 $642 reversed $600 $-1 #
vertex $-1 $591 $679 #
straight-curve $-1 67.095553453169344 0 15.382879618963548 0 1 0 I I #
edge $-1 $593 -15.382879618963548 $646 15.382879618963548 $639 $680 forward 7 unknown #
point $-1 67.095553453169344 45.069324338967498 15.382879618963548 #
coedge $-1 $667 $595 $677 $681 forward $628 $-1 #
coedge $-1 $595 $660 $597 $648 forward $628 $-1 #
vertex $-1 $681 $682 #
straight-curve $-1 0 45.069324338967498 -15.382879618963548 1 0 0 I I #
edge $-1 $652 -14.3035651010404 $598 45.069324338967498 $597 $683 forward 7 unknown #
point $-1 -67.095553453169344 45.069324338967498 -15.382879618963548 #
straight-curve $-1 -85.403072133842358 -18.365026524043401 15.382879618963548 0 -1 0 I I #
point $-1 -85.403072133842358 -14.3035651010404 15.382879618963548 #
vertex $-1 $648 $684 #
straight-curve $-1 -67.095553453169344 -14.3035651010404 0 0 0 1 I I #
straight-curve $-1 0 -45.069324338967498 -15.382879618963548 -1 0 0 I I #
point $-1 -67.095553453169344 -45.069324338967498 -15.382879618963548 #
straight-curve $-1 -67.095553453169344 -45.069324338967498 0 0 0 -1 I I #
point $-1 67.095553453169344 -45.069324338967498 -15.382879618963548 #
face $-1 $456 $674 $15 $-1 $685 reversed single #
plane-surface $-1 0 0 -15.382879618963548 0 0 1 1 0 0 forward_v I I I I #
coedge $-1 $645 $621 $620 $661 forward $628 $-1 #
edge $-1 $623 -9.1537593403365065 $652 9.1537593403365065 $620 $686 forward 7 unknown #
straight-curve $-1 -85.403072133842358 -18.365026524043401 -15.382879618963548 0 1 0 I I #
point $-1 -85.403072133842358 -14.3035651010404 -15.382879618963548 #
coedge $-1 $687 $625 $627 $668 reversed $619 $-1 #
coedge $-1 $625 $687 $631 $670 reversed $619 $-1 #
straight-curve $-1 -67.095553453169344 -22.426487947046404 0 0 0 -1 I I #
coedge $-1 $627 $644 $688 $689 forward $628 $-1 #
edge $-1 $690 -45.069324338967498 $629 -22.426487947046404 $664 $683 forward 7 unknown #
point $-1 -67.095553453169344 -22.426487947046404 -15.382879618963548 #
edge $-1 $632 22.426487947046404 $675 45.069324338967498 $665 $542 forward 7 unknown #
point $-1 -67.095553453169344 -22.426487947046404 15.382879618963548 #
coedge $-1 $688 $636 $687 $691 forward $674 $-1 #
coedge $-1 $636 $688 $638 $678 reversed $674 $-1 #
loop $-1 $-1 $672 $658 #
vertex $-1 $670 $692 #
straight-curve $-1 0 -45.069324338967498 15.382879618963548 1 0 0 I I #
coedge $-1 $639 $638 $644 $681 reversed $600 $-1 #
edge $-1 $640 -15.382879618963548 $693 15.382879618963548 $638 $694 forward 7 unknown #
point $-1 67.095553453169344 -45.069324338967498 15.382879618963548 #
straight-curve $-1 67.095553453169344 45.069324338967498 0 0 0 -1 I I #
edge $-1 $646 -45.069324338967498 $693 45.069324338967498 $677 $695 forward 7 unknown #
point $-1 67.095553453169344 45.069324338967498 -15.382879618963548 #
straight-curve $-1 -67.095553453169344 0 -15.382879618963548 0 1 0 I I #
point $-1 -67.095553453169344 -14.3035651010404 -15.382879618963548 #
plane-surface $-1 0 -45.069324338967498 0 0 1 0 0 0 1 forward_v I I I I #
straight-curve $-1 -76.249312793505851 -14.3035651010404 -15.382879618963548 1 0 0 I I #
coedge $-1 $665 $664 $672 $691 reversed $619 $-1 #
coedge $-1 $673 $672 $667 $689 reversed $674 $-1 #
edge $-1 $693 -67.095553453169344 $690 67.095553453169344 $688 $696 forward 7 unknown #
vertex $-1 $668 $697 #
edge $-1 $675 -15.382879618963548 $690 15.382879618963548 $687 $698 forward 7 unknown #
point $-1 -67.095553453169344 -45.069324338967498 15.382879618963548 #
vertex $-1 $678 $699 #
straight-curve $-1 67.095553453169344 -45.069324338967498 0 0 0 -1 I I #
straight-curve $-1 67.095553453169344 0 -15.382879618963548 0 -1 0 I I #
straight-curve $-1 0 -45.069324338967498 -15.382879618963548 -1 0 0 I I #
point $-1 -67.095553453169344 -45.069324338967498 -15.382879618963548 #
straight-curve $-1 -67.095553453169344 -45.069324338967498 0 0 0 -1 I I #
point $-1 67.095553453169344 -45.069324338967498 -15.382879618963548 #
End-of-ACIS-data 