500 0 6 0           
7 Unknown 11 ACIS 5.0 NT 24 Fri Mar 26 18:46:12 1999 
-1 9.9999999999999995e-007 1e-010 
body $-1 $6 $-1 $7 #
body $-1 $8 $-1 $9 #
body $-1 $10 $-1 $11 #
body $-1 $12 $-1 $13 #
body $-1 $14 $-1 $15 #
body $-1 $16 $-1 $17 #
lump $-1 $-1 $18 $0 #
transform $-1 1 0 0 0 1 0 0 0 1 74.848475600451678 32.094593241035987 12.880248743520841 1 rotate no_reflect no_shear #
lump $-1 $-1 $19 $1 #
transform $-1 1 0 0 0 1 0 0 0 1 74.848475600451678 32.094593241035987 12.880248743520841 1 rotate no_reflect no_shear #
lump $-1 $-1 $20 $2 #
transform $-1 1 0 0 0 1 0 0 0 1 74.848475600451678 32.094593241035987 12.880248743520841 1 rotate no_reflect no_shear #
lump $-1 $-1 $21 $3 #
transform $-1 1 0 0 0 1 0 0 0 1 74.848475600451678 32.094593241035987 12.880248743520841 1 rotate no_reflect no_shear #
lump $-1 $-1 $22 $4 #
transform $-1 1 0 0 0 1 0 0 0 1 74.848475600451678 32.094593241035987 12.880248743520841 1 rotate no_reflect no_shear #
lump $-1 $-1 $23 $5 #
transform $-1 1 0 0 0 1 0 0 0 1 74.848475600451678 32.094593241035987 12.880248743520841 1 rotate no_reflect no_shear #
shell $-1 $-1 $-1 $24 $-1 $6 #
shell $-1 $-1 $-1 $25 $-1 $8 #
shell $-1 $-1 $-1 $26 $-1 $10 #
shell $-1 $-1 $-1 $27 $-1 $12 #
shell $-1 $-1 $-1 $28 $-1 $14 #
shell $-1 $-1 $-1 $29 $-1 $16 #
face $-1 $30 $31 $18 $-1 $32 forward single #
face $-1 $33 $34 $19 $-1 $35 forward single #
face $-1 $36 $37 $20 $-1 $38 reversed single #
face $-1 $39 $40 $21 $-1 $41 forward single #
face $-1 $42 $43 $22 $-1 $44 reversed single #
face $-1 $45 $46 $23 $-1 $47 forward single #
face $-1 $48 $49 $18 $-1 $50 reversed single #
loop $-1 $-1 $51 $24 #
plane-surface $-1 0 0 12.880248743520841 0 0 1 1 0 0 forward_v I I I I #
face $-1 $52 $53 $19 $-1 $54 reversed single #
loop $-1 $-1 $55 $25 #
plane-surface $-1 -74.848475600451678 0 0 1 0 0 0 0 -1 forward_v I I I I #
face $-1 $56 $57 $20 $-1 $58 reversed single #
loop $-1 $-1 $59 $26 #
plane-surface $-1 -21.486386502806592 100.39016047332947 148.04657564195202 1 0 0 0 -0.74314483375859142 -0.66913059716165679 forward_v I I I I #
face $-1 $60 $61 $21 $-1 $62 forward single #
loop $-1 $63 $64 $27 #
cone-surface $-1 -1.0924132680768395 25.423289302640619 5.6712768579497554 0 -0.74314483375859142 -0.66913059716165679 1.5 0 0 1 I I 0 1 1.5 forward I I I I #
face $-1 $65 $66 $22 $-1 $67 reversed single #
loop $-1 $-1 $68 $28 #
plane-surface $-1 19.301559966652913 -143.34110915539927 100.34471332463342 -1 0 0 0 -0.74314483375859142 0.66913059716165679 forward_v I I I I #
face $-1 $69 $70 $23 $-1 $71 forward single #
loop $-1 $72 $73 $29 #
cone-surface $-1 -1.0924132680768395 -25.423289302640626 5.6712768579497626 0 0.74314483375859142 -0.66913059716165679 1.5 0 0 1 I I 0 1 1.5 forward I I I I #
face $-1 $74 $75 $18 $-1 $76 reversed single #
loop $-1 $-1 $77 $30 #
plane-surface $-1 0 0 -12.880248743520841 0 0 1 1 0 0 forward_v I I I I #
coedge $-1 $78 $79 $80 $81 forward $31 $-1 #
face $-1 $82 $83 $19 $-1 $84 forward single #
loop $-1 $-1 $85 $33 #
plane-surface $-1 0 32.094593241035987 0 0 -1 0 0 0 -1 forward_v I I I I #
coedge $-1 $86 $87 $88 $89 forward $34 $-1 #
face $-1 $90 $91 $20 $-1 $92 reversed single #
loop $-1 $-1 $93 $36 #
plane-surface $-1 -1.0924132680768395 -10.856355441033827 47.879765291612159 0 0.74314483375859142 0.66913059716165679 1 0 0 forward_v I I I I #
coedge $-1 $94 $95 $96 $97 reversed $37 $-1 #
face $-1 $-1 $98 $21 $-1 $99 forward single #
loop $-1 $100 $101 $39 #
cone-surface $-1 -1.0924132680768395 23.913248347939572 4.3116299091210699 0 -0.74314483375859142 -0.66913059716165679 0.75 0 0 1 I I -0.70710678118654757 0.70710678118654757 0.75 forward I I I I #
loop $-1 $-1 $102 $27 #
coedge $-1 $64 $64 $103 $104 reversed $40 $-1 #
face $-1 $105 $106 $22 $-1 $107 reversed single #
loop $-1 $-1 $108 $42 #
plane-surface $-1 -1.0924132680768395 -32.094593241035966 0.17790297429355917 0 -0.74314483375859142 0.66913059716165679 1 0 0 forward_v I I I I #
coedge $-1 $109 $110 $111 $112 reversed $43 $-1 #
face $-1 $-1 $113 $23 $-1 $114 forward single #
loop $-1 $115 $116 $45 #
cone-surface $-1 -1.0924132680768395 -23.913248347939579 4.311629909121077 0 0.74314483375859142 -0.66913059716165679 0.75 0 0 1 I I -0.70710678118654757 0.70710678118654757 0.75 forward I I I I #
loop $-1 $-1 $117 $29 #
coedge $-1 $73 $73 $118 $119 reversed $46 $-1 #
face $-1 $120 $121 $18 $-1 $122 reversed single #
loop $-1 $-1 $123 $48 #
plane-surface $-1 0 -32.094593241035987 0 0 1 0 0 0 1 forward_v I I I I #
coedge $-1 $124 $125 $126 $127 forward $49 $-1 #
coedge $-1 $128 $51 $129 $130 forward $31 $-1 #
coedge $-1 $51 $128 $131 $132 forward $31 $-1 #
coedge $-1 $133 $134 $51 $81 reversed $135 $-1 #
edge $-1 $136 -32.094593241035987 $137 32.094593241035987 $80 $138 forward 7 unknown #
face $-1 $139 $140 $19 $-1 $141 reversed single #
loop $-1 $-1 $88 $52 #
plane-surface $-1 -80.606544672601359 0 -9.8802487435208413 0 0 1 1 0 0 forward_v I I I I #
coedge $-1 $142 $143 $87 $144 forward $53 $-1 #
coedge $-1 $145 $55 $146 $147 reversed $34 $-1 #
coedge $-1 $55 $145 $85 $144 reversed $34 $-1 #
coedge $-1 $148 $149 $55 $89 reversed $83 $-1 #
edge $-1 $150 -32.094593241035987 $151 32.094593241035987 $88 $152 forward 7 unknown #
face $-1 $153 $154 $20 $-1 $155 forward single #
loop $-1 $-1 $156 $56 #
plane-surface $-1 19.301559966652913 100.39016047332947 148.04657564195202 -1 0 0 0 0.74314483375859142 0.66913059716165679 forward_v I I I I #
coedge $-1 $157 $158 $159 $160 reversed $57 $-1 #
coedge $-1 $95 $59 $161 $162 reversed $37 $-1 #
coedge $-1 $59 $94 $157 $163 reversed $37 $-1 #
coedge $-1 $159 $164 $59 $97 forward $154 $-1 #
edge $-1 $165 18.100486995628749 $166 29.537730213655315 $96 $167 forward 7 unknown #
loop $-1 $-1 $103 $60 #
plane-surface $-1 -1.0924132680768395 -10.856355441033827 47.879765291612159 0 0.74314483375859142 0.66913059716165679 1 0 0 forward_v I I I I #
loop $-1 $-1 $168 $39 #
coedge $-1 $101 $101 $102 $169 reversed $61 $-1 #
coedge $-1 $102 $102 $101 $169 forward $63 $-1 #
coedge $-1 $103 $103 $64 $104 forward $98 $-1 #
edge $-1 $170 -1.7174529106093404e-016 $170 6.2831853071796004 $103 $171 forward 7 unknown #
face $-1 $172 $173 $22 $-1 $174 reversed single #
loop $-1 $-1 $175 $65 #
plane-surface $-1 -21.486386502806592 -143.34110915539927 100.34471332463342 1 0 0 0 0.74314483375859142 -0.66913059716165679 forward_v I I I I #
coedge $-1 $176 $177 $178 $179 reversed $66 $-1 #
coedge $-1 $110 $68 $180 $181 reversed $43 $-1 #
coedge $-1 $68 $109 $176 $182 reversed $43 $-1 #
coedge $-1 $178 $183 $68 $112 forward $184 $-1 #
edge $-1 $185 39.575961336663646 $186 51.013204554690191 $111 $187 forward 7 unknown #
loop $-1 $-1 $118 $69 #
plane-surface $-1 -1.0924132680768395 -32.094593241035966 0.17790297429355917 0 -0.74314483375859142 0.66913059716165679 1 0 0 forward_v I I I I #
loop $-1 $-1 $188 $45 #
coedge $-1 $116 $116 $117 $189 reversed $70 $-1 #
coedge $-1 $117 $117 $116 $189 forward $72 $-1 #
coedge $-1 $118 $118 $73 $119 forward $113 $-1 #
edge $-1 $190 1.1412338447944289e-015 $190 6.2831853071796013 $118 $191 forward 7 unknown #
face $-1 $192 $193 $18 $-1 $194 reversed single #
loop $-1 $-1 $195 $74 #
plane-surface $-1 -74.848475600451678 0 0 1 0 0 0 0 -1 forward_v I I I I #
coedge $-1 $196 $131 $195 $197 forward $75 $-1 #
coedge $-1 $198 $77 $196 $199 forward $49 $-1 #
coedge $-1 $77 $198 $200 $201 forward $49 $-1 #
coedge $-1 $134 $133 $77 $127 reversed $135 $-1 #
edge $-1 $202 -32.094593241035987 $203 32.094593241035987 $126 $204 forward 7 unknown #
coedge $-1 $79 $78 $205 $206 forward $31 $-1 #
coedge $-1 $207 $208 $78 $130 reversed $193 $-1 #
edge $-1 $137 -74.848475600451678 $209 74.848475600451678 $129 $210 forward 7 unknown #
coedge $-1 $123 $211 $79 $132 reversed $75 $-1 #
edge $-1 $212 -74.848475600451678 $136 74.848475600451678 $131 $213 forward 7 unknown #
coedge $-1 $126 $80 $211 $214 forward $135 $-1 #
coedge $-1 $80 $126 $207 $215 reversed $135 $-1 #
loop $-1 $-1 $133 $192 #
vertex $-1 $81 $216 #
vertex $-1 $81 $217 #
straight-curve $-1 74.848475600451678 0 12.880248743520841 0 1 0 I I #
face $-1 $218 $219 $19 $-1 $220 reversed single #
loop $-1 $-1 $221 $82 #
plane-surface $-1 -86.36461374475104 0 -11.380248743520841 1 0 0 0 0 -1 forward_v I I I I #
coedge $-1 $222 $85 $223 $224 reversed $53 $-1 #
coedge $-1 $85 $222 $148 $225 reversed $53 $-1 #
edge $-1 $150 9.8802487435208413 $226 12.880248743520841 $85 $227 forward 7 unknown #
coedge $-1 $87 $86 $228 $229 reversed $34 $-1 #
coedge $-1 $230 $231 $86 $147 forward $232 $-1 #
edge $-1 $233 -12.880248743520841 $151 -9.8802487435208413 $146 $234 forward 7 unknown #
coedge $-1 $235 $88 $143 $225 forward $83 $-1 #
coedge $-1 $88 $235 $230 $236 forward $83 $-1 #
vertex $-1 $144 $237 #
vertex $-1 $236 $238 #
straight-curve $-1 -74.848475600451678 0 -9.8802487435208413 0 -1 0 I I #
face $-1 $-1 $239 $20 $-1 $240 reversed single #
loop $-1 $-1 $96 $90 #
plane-surface $-1 0 0 12.880248743520841 0 0 1 1 0 0 forward_v I I I I #
coedge $-1 $241 $242 $243 $244 reversed $91 $-1 #
coedge $-1 $245 $93 $95 $163 forward $57 $-1 #
coedge $-1 $93 $245 $241 $246 forward $57 $-1 #
coedge $-1 $243 $96 $93 $160 forward $154 $-1 #
edge $-1 $166 -20.940179868768173 $247 19.847766600691333 $159 $248 forward 7 unknown #
coedge $-1 $249 $250 $94 $162 forward $239 $-1 #
edge $-1 $251 -73.845384846682506 $165 -61.143039077455171 $161 $252 forward 7 unknown #
edge $-1 $166 47.096494462694224 $251 64.189186482072046 $95 $253 forward 7 unknown #
coedge $-1 $96 $243 $249 $254 forward $154 $-1 #
vertex $-1 $162 $255 #
vertex $-1 $97 $256 #
straight-curve $-1 -21.486386502806592 50.195080236664737 12.880248743520838 0 -1 0 I I #
coedge $-1 $168 $168 $-1 $257 reversed $100 $-1 #
edge $-1 $258 0 $258 6.2831853071796004 $101 $259 forward 7 unknown #
vertex $-1 $104 $260 #
ellipse-curve $-1 -1.0924132680768395 26.375971632022701 6.5290758589071798 0 0.74314483375859142 0.66913059716165679 1.5 0 0 1 I I #
face $-1 $-1 $184 $22 $-1 $261 forward single #
loop $-1 $-1 $262 $105 #
plane-surface $-1 0 -32.094593241035987 0 0 1 0 0 0 1 forward_v I I I I #
coedge $-1 $263 $264 $265 $266 reversed $106 $-1 #
coedge $-1 $267 $108 $110 $182 forward $66 $-1 #
coedge $-1 $108 $267 $263 $268 forward $66 $-1 #
coedge $-1 $265 $111 $108 $179 forward $184 $-1 #
edge $-1 $186 -19.847766600691333 $269 20.940179868768173 $178 $270 forward 7 unknown #
coedge $-1 $271 $272 $109 $181 forward $173 $-1 #
edge $-1 $273 -49.994453688023171 $185 -37.292107918795864 $180 $274 forward 7 unknown #
edge $-1 $186 -17.092692019377754 $273 3.1857706523259225e-014 $110 $275 forward 7 unknown #
coedge $-1 $111 $265 $271 $276 forward $184 $-1 #
loop $-1 $-1 $265 $172 #
vertex $-1 $181 $277 #
vertex $-1 $112 $278 #
straight-curve $-1 19.301559966652913 -71.670554577699633 12.880248743520845 0 1 0 I I #
coedge $-1 $188 $188 $-1 $279 reversed $115 $-1 #
edge $-1 $280 0 $280 6.2831853071796004 $116 $281 forward 7 unknown #
vertex $-1 $119 $282 #
ellipse-curve $-1 -1.0924132680768395 -26.375971632022715 6.5290758589071913 0 -0.74314483375859142 0.66913059716165679 1.5 0 0 1 I I #
face $-1 $-1 $135 $18 $-1 $283 reversed single #
loop $-1 $-1 $207 $120 #
plane-surface $-1 0 32.094593241035987 0 0 -1 0 0 0 -1 forward_v I I I I #
coedge $-1 $205 $284 $123 $197 reversed $121 $-1 #
coedge $-1 $211 $123 $124 $199 reversed $75 $-1 #
edge $-1 $212 -12.880248743520841 $285 12.880248743520841 $195 $286 forward 7 unknown #
coedge $-1 $125 $124 $284 $287 forward $49 $-1 #
edge $-1 $203 -74.848475600451678 $285 74.848475600451678 $196 $288 forward 7 unknown #
coedge $-1 $208 $207 $125 $201 reversed $193 $-1 #
edge $-1 $289 -74.848475600451678 $202 74.848475600451678 $200 $290 forward 7 unknown #
vertex $-1 $127 $291 #
vertex $-1 $214 $292 #
straight-curve $-1 74.848475600451678 0 -12.880248743520841 0 -1 0 I I #
coedge $-1 $293 $195 $128 $206 reversed $121 $-1 #
edge $-1 $209 -32.094593241035987 $212 32.094593241035987 $205 $294 forward 7 unknown #
coedge $-1 $200 $129 $134 $215 forward $193 $-1 #
coedge $-1 $129 $200 $293 $295 reversed $193 $-1 #
vertex $-1 $130 $296 #
straight-curve $-1 0 32.094593241035987 12.880248743520841 -1 0 0 I I #
coedge $-1 $131 $196 $133 $214 reversed $75 $-1 #
vertex $-1 $206 $297 #
straight-curve $-1 0 -32.094593241035987 12.880248743520841 1 0 0 I I #
edge $-1 $136 -12.880248743520841 $203 12.880248743520841 $133 $298 forward 7 unknown #
edge $-1 $137 -12.880248743520841 $202 12.880248743520841 $134 $299 forward 7 unknown #
point $-1 74.848475600451678 -32.094593241035987 12.880248743520841 #
point $-1 74.848475600451678 32.094593241035987 12.880248743520841 #
face $-1 $-1 $232 $19 $-1 $300 reversed single #
loop $-1 $-1 $228 $139 #
plane-surface $-1 0 0 -12.880248743520841 0 0 1 1 0 0 forward_v I I I I #
coedge $-1 $301 $302 $222 $303 forward $140 $-1 #
coedge $-1 $143 $142 $221 $303 reversed $53 $-1 #
coedge $-1 $228 $304 $142 $224 forward $219 $-1 #
edge $-1 $305 -86.36461374475104 $226 -74.848475600451678 $142 $306 forward 7 unknown #
edge $-1 $150 -5.7580690721496808 $307 5.7580690721496808 $143 $308 forward 7 unknown #
vertex $-1 $144 $309 #
straight-curve $-1 -74.848475600451678 32.094593241035987 0 0 0 -1 I I #
coedge $-1 $310 $223 $145 $229 forward $219 $-1 #
edge $-1 $226 -32.094593241035987 $233 32.094593241035987 $228 $311 forward 7 unknown #
coedge $-1 $312 $146 $149 $236 reversed $232 $-1 #
coedge $-1 $146 $312 $310 $313 reversed $232 $-1 #
loop $-1 $-1 $146 $218 #
vertex $-1 $313 $314 #
straight-curve $-1 -74.848475600451678 -32.094593241035987 0 0 0 1 I I #
coedge $-1 $149 $148 $302 $315 forward $83 $-1 #
edge $-1 $316 -5.7580690721496808 $151 5.7580690721496808 $230 $317 forward 7 unknown #
point $-1 -74.848475600451678 32.094593241035987 -9.8802487435208413 #
point $-1 -74.848475600451678 -32.094593241035987 -9.8802487435208413 #
loop $-1 $-1 $161 $153 #
plane-surface $-1 0 32.094593241035987 0 0 -1 0 0 0 -1 forward_v I I I I #
coedge $-1 $242 $156 $158 $246 reversed $91 $-1 #
coedge $-1 $156 $241 $318 $319 reversed $91 $-1 #
coedge $-1 $164 $159 $156 $244 forward $154 $-1 #
edge $-1 $247 -29.537730213655315 $320 -18.100486995628749 $243 $321 forward 7 unknown #
coedge $-1 $158 $157 $250 $322 reversed $57 $-1 #
edge $-1 $323 -64.189186482072046 $247 -47.096494462694224 $241 $324 forward 7 unknown #
vertex $-1 $160 $325 #
straight-curve $-1 -0.54620663403841974 20.657350023009414 12.880248743520841 1 0 0 I I #
coedge $-1 $318 $161 $164 $254 reversed $239 $-1 #
coedge $-1 $161 $318 $245 $322 forward $239 $-1 #
vertex $-1 $162 $326 #
straight-curve $-1 -21.486386502806592 32.094593241035987 74.023287820976009 0 0 1 I I #
straight-curve $-1 -21.486386502806592 -10.856355441033827 47.879765291612159 0 0.66913059716165679 -0.74314483375859142 I I #
edge $-1 $320 -19.301559966652913 $165 21.486386502806592 $249 $327 forward 7 unknown #
point $-1 -21.486386502806592 32.094593241035987 12.880248743520841 #
point $-1 -21.486386502806592 20.657350023009421 12.880248743520838 #
edge $-1 $328 1 $328 0 $168 $-1 forward 7 unknown #
vertex $-1 $169 $329 #
ellipse-curve $-1 -1.0924132680768395 24.470606973258516 4.8134778569923125 0 0.74314483375859142 0.66913059716165679 1.5 0 0 1 I I #
point $-1 0.40758673192316053 26.375971632022722 6.5290758589071993 #
plane-surface $-1 0 0 12.880248743520841 0 0 1 1 0 0 forward_v I I I I #
coedge $-1 $272 $271 $264 $330 forward $173 $-1 #
coedge $-1 $264 $175 $177 $268 reversed $106 $-1 #
coedge $-1 $175 $263 $262 $330 reversed $106 $-1 #
coedge $-1 $183 $178 $175 $266 forward $184 $-1 #
edge $-1 $269 -51.013204554690191 $331 -39.575961336663646 $265 $332 forward 7 unknown #
coedge $-1 $177 $176 $272 $333 reversed $66 $-1 #
edge $-1 $334 -3.1857706523259225e-014 $269 17.092692019377754 $263 $335 forward 7 unknown #
vertex $-1 $179 $336 #
straight-curve $-1 -0.54620663403841974 -20.657350023009446 12.880248743520841 -1 0 0 I I #
coedge $-1 $262 $180 $183 $276 reversed $173 $-1 #
coedge $-1 $180 $262 $267 $333 forward $173 $-1 #
vertex $-1 $181 $337 #
straight-curve $-1 19.301559966652913 -32.094593241035987 50.172356662316709 0 0 1 I I #
straight-curve $-1 19.301559966652913 -32.094593241035966 0.17790297429355917 0 -0.66913059716165679 -0.74314483375859142 I I #
edge $-1 $331 -21.486386502806592 $185 19.301559966652913 $271 $338 forward 7 unknown #
point $-1 19.301559966652913 -32.094593241035987 12.880248743520841 #
point $-1 19.301559966652913 -20.657350023009442 12.880248743520843 #
edge $-1 $339 1 $339 0 $188 $-1 forward 7 unknown #
vertex $-1 $189 $340 #
ellipse-curve $-1 -1.0924132680768395 -24.470606973258523 4.8134778569923196 0 -0.74314483375859142 0.66913059716165679 1.5 0 0 1 I I #
point $-1 0.40758673192316053 -26.375971632022729 6.5290758589072064 #
plane-surface $-1 74.848475600451678 0 0 -1 0 0 0 0 1 forward_v I I I I #
coedge $-1 $195 $293 $198 $287 reversed $121 $-1 #
vertex $-1 $287 $341 #
straight-curve $-1 -74.848475600451678 -32.094593241035987 0 0 0 -1 I I #
edge $-1 $285 -32.094593241035987 $289 32.094593241035987 $284 $342 forward 7 unknown #
straight-curve $-1 0 -32.094593241035987 -12.880248743520841 -1 0 0 I I #
vertex $-1 $201 $343 #
straight-curve $-1 0 32.094593241035987 -12.880248743520841 1 0 0 I I #
point $-1 74.848475600451678 32.094593241035987 -12.880248743520841 #
point $-1 74.848475600451678 -32.094593241035987 -12.880248743520841 #
coedge $-1 $284 $205 $208 $295 forward $121 $-1 #
straight-curve $-1 -74.848475600451678 0 12.880248743520841 0 -1 0 I I #
edge $-1 $209 -12.880248743520841 $289 12.880248743520841 $208 $344 forward 7 unknown #
point $-1 -74.848475600451678 32.094593241035987 12.880248743520841 #
point $-1 -74.848475600451678 -32.094593241035987 12.880248743520841 #
straight-curve $-1 74.848475600451678 -32.094593241035987 0 0 0 -1 I I #
straight-curve $-1 74.848475600451678 32.094593241035987 0 0 0 -1 I I #
plane-surface $-1 0 -32.094593241035987 0 0 1 0 0 0 1 forward_v I I I I #
coedge $-1 $345 $221 $304 $346 reversed $140 $-1 #
coedge $-1 $221 $345 $235 $315 reversed $140 $-1 #
edge $-1 $307 -1.5 $305 1.5 $222 $347 forward 7 unknown #
coedge $-1 $223 $310 $301 $346 forward $219 $-1 #
vertex $-1 $224 $348 #
straight-curve $-1 0 32.094593241035987 -12.880248743520841 1 0 0 I I #
vertex $-1 $225 $349 #
straight-curve $-1 -80.606544672601359 32.094593241035987 -9.8802487435208413 -1 0 0 I I #
point $-1 -74.848475600451678 32.094593241035987 -12.880248743520841 #
coedge $-1 $304 $228 $231 $313 forward $219 $-1 #
straight-curve $-1 -74.848475600451678 0 -12.880248743520841 0 -1 0 I I #
coedge $-1 $231 $230 $345 $350 forward $232 $-1 #
edge $-1 $233 -5.7580690721496808 $351 5.7580690721496808 $231 $352 forward 7 unknown #
point $-1 -74.848475600451678 -32.094593241035987 -12.880248743520841 #
edge $-1 $307 -32.094593241035987 $316 32.094593241035987 $302 $353 forward 7 unknown #
vertex $-1 $315 $354 #
straight-curve $-1 -80.606544672601359 -32.094593241035987 -9.8802487435208413 1 0 0 I I #
coedge $-1 $250 $249 $242 $319 forward $239 $-1 #
edge $-1 $320 61.143039077455171 $323 73.845384846682506 $318 $355 forward 7 unknown #
vertex $-1 $254 $356 #
straight-curve $-1 19.301559966652913 50.195080236664737 12.880248743520838 0 1 0 I I #
edge $-1 $323 -19.847766600691333 $251 20.940179868768173 $250 $357 forward 7 unknown #
vertex $-1 $322 $358 #
straight-curve $-1 19.301559966652913 -10.856355441033827 47.879765291612159 0 -0.66913059716165679 0.74314483375859142 I I #
point $-1 19.301559966652913 20.657350023009421 12.880248743520838 #
point $-1 -21.486386502806592 32.094593241035987 0.17790297429350233 #
straight-curve $-1 0 32.094593241035987 12.880248743520841 -1 0 0 I I #
vertex $-1 $257 $359 #
point $-1 0.40758673192316053 24.470606973258516 4.8134778569923125 #
edge $-1 $331 37.292107918795864 $334 49.994453688023171 $262 $360 forward 7 unknown #
vertex $-1 $276 $361 #
straight-curve $-1 -21.486386502806592 -71.670554577699633 12.880248743520845 0 -1 0 I I #
edge $-1 $334 -20.940179868768173 $273 19.847766600691333 $272 $362 forward 7 unknown #
vertex $-1 $333 $363 #
straight-curve $-1 -21.486386502806592 -32.094593241035966 0.17790297429355917 0 0.66913059716165679 0.74314483375859142 I I #
point $-1 -21.486386502806592 -20.657350023009442 12.880248743520843 #
point $-1 19.301559966652913 -32.094593241035987 0.17790297429353549 #
straight-curve $-1 0 -32.094593241035987 12.880248743520841 1 0 0 I I #
vertex $-1 $279 $364 #
point $-1 0.40758673192316053 -24.470606973258523 4.8134778569923196 #
point $-1 -74.848475600451678 -32.094593241035987 -12.880248743520841 #
straight-curve $-1 -74.848475600451678 0 -12.880248743520841 0 1 0 I I #
point $-1 -74.848475600451678 32.094593241035987 -12.880248743520841 #
straight-curve $-1 -74.848475600451678 32.094593241035987 0 0 0 -1 I I #
coedge $-1 $302 $301 $312 $350 reversed $140 $-1 #
edge $-1 $351 -32.094593241035987 $305 32.094593241035987 $301 $365 forward 7 unknown #
straight-curve $-1 -86.36461374475104 32.094593241035987 -11.380248743520841 0 0 -1 I I #
point $-1 -86.36461374475104 32.094593241035987 -12.880248743520841 #
point $-1 -86.36461374475104 32.094593241035987 -9.8802487435208413 #
edge $-1 $316 -1.5 $351 1.5 $345 $366 forward 7 unknown #
vertex $-1 $346 $367 #
straight-curve $-1 -80.606544672601359 -32.094593241035987 -12.880248743520841 -1 0 0 I I #
straight-curve $-1 -86.36461374475104 0 -9.8802487435208413 0 -1 0 I I #
point $-1 -86.36461374475104 -32.094593241035987 -9.8802487435208413 #
straight-curve $-1 19.301559966652913 32.094593241035987 74.023287820976009 0 0 -1 I I #
point $-1 19.301559966652913 32.094593241035987 12.880248743520841 #
straight-curve $-1 -0.54620663403841974 32.094593241035987 0.17790297429350943 -1 0 0 I I #
point $-1 19.301559966652913 32.094593241035987 0.17790297429350233 #
point $-1 -1.0924132680768395 23.355889722620628 3.8097819612498274 #
straight-curve $-1 -21.486386502806592 -32.094593241035987 50.172356662316709 0 0 -1 I I #
point $-1 -21.486386502806592 -32.094593241035987 12.880248743520841 #
straight-curve $-1 -0.54620663403841974 -32.094593241035987 0.17790297429353732 1 0 0 I I #
point $-1 -21.486386502806592 -32.094593241035987 0.17790297429353549 #
point $-1 -1.0924132680768395 -23.355889722620635 3.8097819612498345 #
straight-curve $-1 -86.36461374475104 0 -12.880248743520841 0 1 0 I I #
straight-curve $-1 -86.36461374475104 -32.094593241035987 -11.380248743520841 0 0 -1 I I #
point $-1 -86.36461374475104 -32.094593241035987 -12.880248743520841 #
End-of-ACIS-data 