500 0 9 0           
7 Unknown 11 ACIS 5.0 NT 24 Fri Mar 26 00:43:49 1999 
-1 9.9999999999999995e-007 1e-010 
body $-1 $9 $-1 $10 #
body $-1 $11 $-1 $12 #
body $-1 $13 $-1 $14 #
body $-1 $15 $-1 $16 #
body $-1 $17 $-1 $18 #
body $-1 $19 $-1 $20 #
body $-1 $21 $-1 $22 #
body $-1 $23 $-1 $24 #
body $-1 $25 $-1 $26 #
lump $-1 $-1 $27 $0 #
transform $-1 1 0 0 0 1 0 0 0 1 65.412152470473345 29.416803380669609 7.354694611513402 1 rotate no_reflect no_shear #
lump $-1 $-1 $28 $1 #
transform $-1 1 0 0 0 1 0 0 0 1 65.412152470473345 29.416803380669609 7.354694611513402 1 rotate no_reflect no_shear #
lump $-1 $-1 $29 $2 #
transform $-1 1 0 0 0 1 0 0 0 1 65.412152470473345 29.416803380669609 7.354694611513402 1 rotate no_reflect no_shear #
lump $-1 $-1 $30 $3 #
transform $-1 1 0 0 0 1 0 0 0 1 65.412152470473345 29.416803380669609 7.354694611513402 1 rotate no_reflect no_shear #
lump $-1 $-1 $31 $4 #
transform $-1 1 0 0 0 1 0 0 0 1 65.412152470473345 29.416803380669609 7.354694611513402 1 rotate no_reflect no_shear #
lump $-1 $-1 $32 $5 #
transform $-1 1 0 0 0 1 0 0 0 1 65.412152470473345 29.416803380669609 7.354694611513402 1 rotate no_reflect no_shear #
lump $-1 $-1 $33 $6 #
transform $-1 1 0 0 0 1 0 0 0 1 65.412152470473345 29.416803380669609 7.354694611513402 1 rotate no_reflect no_shear #
lump $-1 $-1 $34 $7 #
transform $-1 1 0 0 0 1 0 0 0 1 65.412152470473345 29.416803380669609 7.354694611513402 1 rotate no_reflect no_shear #
lump $-1 $-1 $35 $8 #
transform $-1 1 0 0 0 1 0 0 0 1 65.412152470473345 29.416803380669609 7.354694611513402 1 rotate no_reflect no_shear #
shell $-1 $-1 $-1 $36 $-1 $9 #
shell $-1 $-1 $-1 $37 $-1 $11 #
shell $-1 $-1 $-1 $38 $-1 $13 #
shell $-1 $-1 $-1 $39 $-1 $15 #
shell $-1 $-1 $-1 $40 $-1 $17 #
shell $-1 $-1 $-1 $41 $-1 $19 #
shell $-1 $-1 $-1 $42 $-1 $21 #
shell $-1 $-1 $-1 $43 $-1 $23 #
shell $-1 $-1 $-1 $44 $-1 $25 #
face $-1 $45 $46 $27 $-1 $47 forward single #
face $-1 $48 $49 $28 $-1 $50 reversed single #
face $-1 $51 $52 $29 $-1 $53 reversed single #
face $-1 $54 $55 $30 $-1 $56 reversed single #
face $-1 $57 $58 $31 $-1 $59 forward single #
face $-1 $60 $61 $32 $-1 $62 forward single #
face $-1 $63 $64 $33 $-1 $65 reversed single #
face $-1 $66 $67 $34 $-1 $68 forward single #
face $-1 $69 $70 $35 $-1 $71 forward single #
face $-1 $72 $73 $27 $-1 $74 reversed single #
loop $-1 $-1 $75 $36 #
plane-surface $-1 0 0 7.354694611513402 0 0 1 1 0 0 forward_v I I I I #
face $-1 $76 $77 $28 $-1 $78 reversed single #
loop $-1 $-1 $79 $37 #
plane-surface $-1 -64.638820389585902 -26.211427390393723 0 1 0 0 0 0 -1 forward_v I I I I #
face $-1 $80 $81 $29 $-1 $82 reversed single #
loop $-1 $-1 $83 $38 #
plane-surface $-1 -62.689367308456191 23.006051400117833 0 0 1 0 0 0 1 forward_v I I I I #
face $-1 $84 $85 $30 $-1 $86 reversed single #
loop $-1 $-1 $87 $39 #
plane-surface $-1 -65.412152470473359 -17.45338508463891 3.190501221918467 -0.86602541151947299 0 0.49999998660252726 0.49999998660252726 0 0.86602541151947299 forward_v I I I I #
face $-1 $88 $89 $31 $-1 $90 forward single #
loop $-1 $91 $92 $40 #
cone-surface $-1 -63.413696979943396 -19.833099219844165 4.8128213245249851 0.86602541151947299 0 -0.49999998660252726 0.49999998660252726 0 0.86602541151947299 1 I I 0 1 1 forward I I I I #
face $-1 $93 $94 $32 $-1 $95 forward single #
loop $-1 $96 $97 $41 #
cone-surface $-1 -63.413696979943396 -15.073670949433662 4.8128213245249851 0.86602541151947299 0 -0.49999998660252726 0.49999998660252726 0 0.86602541151947299 1 I I 0 1 1 forward I I I I #
face $-1 $98 $99 $33 $-1 $100 reversed single #
loop $-1 $-1 $101 $42 #
plane-surface $-1 113.29717427594746 -11.900718769159988 181.89982446290912 0 -1 0 -0.86602541151947299 0 -0.49999998660252726 forward_v I I I I #
face $-1 $102 $103 $34 $-1 $104 forward single #
loop $-1 $105 $106 $43 #
cone-surface $-1 63.41369697994341 -19.833099219844165 4.8128213245249709 -0.86602541151947299 0 -0.49999998660252726 0.49999998660252726 0 -0.86602541151947299 1 I I 0 1 1 forward I I I I #
face $-1 $107 $108 $35 $-1 $109 forward single #
loop $-1 $110 $111 $44 #
cone-surface $-1 63.41369697994341 -15.073670949433662 4.8128213245249709 -0.86602541151947299 0 -0.49999998660252726 0.49999998660252726 0 -0.86602541151947299 1 I I 0 1 1 forward I I I I #
face $-1 $112 $113 $27 $-1 $114 reversed single #
loop $-1 $-1 $115 $45 #
plane-surface $-1 0 0 -7.354694611513402 0 0 1 1 0 0 forward_v I I I I #
coedge $-1 $116 $117 $118 $119 forward $46 $-1 #
face $-1 $120 $121 $28 $-1 $122 reversed single #
loop $-1 $-1 $123 $48 #
plane-surface $-1 -62.689367308456191 -23.006051400117833 0 0 -1 0 0 0 -1 forward_v I I I I #
coedge $-1 $124 $125 $126 $127 forward $49 $-1 #
face $-1 $128 $129 $29 $-1 $130 reversed single #
loop $-1 $-1 $131 $51 #
plane-surface $-1 -64.638820389585902 26.21142739039372 0 1 0 0 0 0 -1 forward_v I I I I #
coedge $-1 $132 $133 $134 $135 forward $52 $-1 #
face $-1 $136 $137 $30 $-1 $138 forward single #
loop $-1 $-1 $139 $54 #
plane-surface $-1 -178.70932499370574 -11.900718769159988 68.602651939676747 0 -1 0 0.86602541151947299 0 -0.49999998660252726 forward_v I I I I #
coedge $-1 $140 $141 $142 $143 reversed $55 $-1 #
face $-1 $-1 $144 $31 $-1 $145 forward single #
loop $-1 $146 $147 $57 #
cone-surface $-1 -62.184327827926964 -19.833099219844165 4.1030447390327751 0.86602541151947299 0 -0.49999998660252726 0.24999999330126363 0 0.43301270575973649 1 I I -0.70710678118654724 0.70710678118654791 0.5 forward I I I I #
loop $-1 $-1 $148 $40 #
coedge $-1 $92 $92 $149 $150 reversed $58 $-1 #
face $-1 $-1 $151 $32 $-1 $152 forward single #
loop $-1 $153 $154 $60 #
cone-surface $-1 -62.184327827926964 -15.073670949433662 4.1030447390327751 0.86602541151947299 0 -0.49999998660252726 0.24999999330126363 0 0.43301270575973649 1 I I -0.70710678118654724 0.70710678118654791 0.5 forward I I I I #
loop $-1 $-1 $155 $41 #
coedge $-1 $97 $97 $156 $157 reversed $61 $-1 #
face $-1 $158 $159 $33 $-1 $160 reversed single #
loop $-1 $-1 $161 $63 #
plane-surface $-1 1.7527150788509971e-006 -17.45338508463891 116.48767374515084 0.86602541151947299 0 0.49999998660252726 0.49999998660252726 0 -0.86602541151947299 forward_v I I I I #
coedge $-1 $162 $163 $164 $165 reversed $64 $-1 #
face $-1 $-1 $166 $34 $-1 $167 forward single #
loop $-1 $168 $169 $66 #
cone-surface $-1 62.184327827926978 -19.833099219844165 4.1030447390327609 -0.86602541151947299 0 -0.49999998660252726 0.24999999330126363 0 -0.43301270575973649 1 I I -0.70710678118654724 0.70710678118654791 0.5 forward I I I I #
loop $-1 $-1 $170 $43 #
coedge $-1 $106 $106 $171 $172 reversed $67 $-1 #
face $-1 $-1 $173 $35 $-1 $174 forward single #
loop $-1 $175 $176 $69 #
cone-surface $-1 62.184327827926978 -15.073670949433662 4.1030447390327609 -0.86602541151947299 0 -0.49999998660252726 0.24999999330126363 0 -0.43301270575973649 1 I I -0.70710678118654724 0.70710678118654791 0.5 forward I I I I #
loop $-1 $-1 $177 $44 #
coedge $-1 $111 $111 $178 $179 reversed $70 $-1 #
face $-1 $180 $181 $27 $-1 $182 reversed single #
loop $-1 $-1 $183 $72 #
plane-surface $-1 0 -29.416803380669609 0 0 1 0 0 0 1 forward_v I I I I #
coedge $-1 $184 $185 $186 $187 forward $73 $-1 #
coedge $-1 $188 $75 $189 $190 forward $46 $-1 #
coedge $-1 $75 $188 $191 $192 forward $46 $-1 #
coedge $-1 $193 $194 $75 $119 reversed $195 $-1 #
edge $-1 $196 -29.416803380669609 $197 29.416803380669609 $118 $198 forward 7 unknown #
face $-1 $199 $200 $28 $-1 $201 forward single #
loop $-1 $-1 $202 $76 #
plane-surface $-1 -60.73991422732648 -26.211427390393723 0 -1 0 0 0 0 1 forward_v I I I I #
coedge $-1 $203 $126 $204 $205 reversed $77 $-1 #
coedge $-1 $206 $79 $207 $208 reversed $49 $-1 #
coedge $-1 $79 $206 $209 $210 reversed $49 $-1 #
coedge $-1 $123 $211 $79 $127 reversed $77 $-1 #
edge $-1 $212 -7.354694611513402 $213 7.354694611513402 $126 $214 forward 7 unknown #
face $-1 $215 $216 $29 $-1 $217 reversed single #
loop $-1 $-1 $218 $80 #
plane-surface $-1 -60.73991422732648 26.21142739039372 0 -1 0 0 0 0 1 forward_v I I I I #
coedge $-1 $219 $220 $221 $222 reversed $81 $-1 #
coedge $-1 $223 $83 $224 $225 reversed $52 $-1 #
coedge $-1 $83 $223 $226 $227 reversed $52 $-1 #
coedge $-1 $220 $219 $83 $135 reversed $81 $-1 #
edge $-1 $228 -7.354694611513402 $229 7.354694611513402 $134 $230 forward 7 unknown #
face $-1 $231 $232 $30 $-1 $233 forward single #
loop $-1 $-1 $234 $84 #
plane-surface $-1 -62.689367308456191 -23.006051400117833 0 0 -1 0 0 0 -1 forward_v I I I I #
coedge $-1 $235 $236 $237 $238 reversed $85 $-1 #
coedge $-1 $239 $87 $234 $240 reversed $55 $-1 #
coedge $-1 $87 $239 $235 $241 forward $55 $-1 #
coedge $-1 $237 $242 $87 $143 forward $232 $-1 #
edge $-1 $243 -14.279358857798378 $244 -3.1740262268405335 $142 $245 forward 7 unknown #
loop $-1 $-1 $149 $88 #
plane-surface $-1 -65.412152470473359 -17.45338508463891 3.190501221918467 -0.86602541151947299 0 0.49999998660252726 0.49999998660252726 0 0.86602541151947299 forward_v I I I I #
loop $-1 $-1 $246 $57 #
coedge $-1 $147 $147 $148 $247 reversed $89 $-1 #
coedge $-1 $148 $148 $147 $247 forward $91 $-1 #
coedge $-1 $149 $149 $92 $150 forward $144 $-1 #
edge $-1 $248 0 $248 6.2831853071796004 $149 $249 forward 7 unknown #
loop $-1 $-1 $156 $93 #
plane-surface $-1 -65.412152470473359 -17.45338508463891 3.190501221918467 -0.86602541151947299 0 0.49999998660252726 0.49999998660252726 0 0.86602541151947299 forward_v I I I I #
loop $-1 $-1 $250 $60 #
coedge $-1 $154 $154 $155 $251 reversed $94 $-1 #
coedge $-1 $155 $155 $154 $251 forward $96 $-1 #
coedge $-1 $156 $156 $97 $157 forward $151 $-1 #
edge $-1 $252 0 $252 6.2831853071796004 $156 $253 forward 7 unknown #
face $-1 $254 $255 $33 $-1 $256 forward single #
loop $-1 $-1 $257 $98 #
plane-surface $-1 113.29717427594746 -23.006051400117833 181.89982446290912 0 1 0 0.86602541151947299 0 0.49999998660252726 forward_v I I I I #
coedge $-1 $258 $259 $260 $261 reversed $99 $-1 #
coedge $-1 $163 $101 $262 $263 reversed $64 $-1 #
coedge $-1 $101 $162 $258 $264 reversed $64 $-1 #
coedge $-1 $260 $265 $101 $165 forward $255 $-1 #
edge $-1 $266 -8.763565332499617 $267 -6.3593672439531446 $164 $268 forward 7 unknown #
loop $-1 $-1 $171 $102 #
plane-surface $-1 1.7527150788509971e-006 -17.45338508463891 116.48767374515084 0.86602541151947299 0 0.49999998660252726 0.49999998660252726 0 -0.86602541151947299 forward_v I I I I #
loop $-1 $-1 $269 $66 #
coedge $-1 $169 $169 $170 $270 reversed $103 $-1 #
coedge $-1 $170 $170 $169 $270 forward $105 $-1 #
coedge $-1 $171 $171 $106 $172 forward $166 $-1 #
edge $-1 $271 0 $271 6.2831853071796004 $171 $272 forward 7 unknown #
loop $-1 $-1 $178 $107 #
plane-surface $-1 1.7527150788509971e-006 -17.45338508463891 116.48767374515084 0.86602541151947299 0 0.49999998660252726 0.49999998660252726 0 -0.86602541151947299 forward_v I I I I #
loop $-1 $-1 $273 $69 #
coedge $-1 $176 $176 $177 $274 reversed $108 $-1 #
coedge $-1 $177 $177 $176 $274 forward $110 $-1 #
coedge $-1 $178 $178 $111 $179 forward $173 $-1 #
edge $-1 $275 0 $275 6.2831853071796004 $178 $276 forward 7 unknown #
face $-1 $277 $278 $27 $-1 $279 reversed single #
loop $-1 $-1 $280 $112 #
plane-surface $-1 -65.412152470473345 0 0 1 0 0 0 0 -1 forward_v I I I I #
coedge $-1 $281 $191 $282 $283 forward $113 $-1 #
coedge $-1 $284 $115 $281 $285 forward $73 $-1 #
coedge $-1 $115 $284 $286 $287 forward $73 $-1 #
coedge $-1 $194 $193 $115 $187 reversed $195 $-1 #
edge $-1 $288 -29.416803380669609 $289 29.416803380669609 $186 $290 forward 7 unknown #
coedge $-1 $117 $116 $291 $292 forward $46 $-1 #
coedge $-1 $293 $294 $116 $190 reversed $278 $-1 #
edge $-1 $197 -65.412152470473345 $295 65.412152470473345 $189 $296 forward 7 unknown #
coedge $-1 $183 $297 $117 $192 reversed $113 $-1 #
edge $-1 $298 -65.412152470473345 $196 65.412152470473345 $191 $299 forward 7 unknown #
coedge $-1 $186 $118 $297 $300 forward $195 $-1 #
coedge $-1 $118 $186 $293 $301 reversed $195 $-1 #
loop $-1 $-1 $193 $277 #
vertex $-1 $119 $302 #
vertex $-1 $119 $303 #
straight-curve $-1 65.412152470473345 0 7.354694611513402 0 1 0 I I #
face $-1 $304 $305 $28 $-1 $306 reversed single #
loop $-1 $-1 $307 $120 #
plane-surface $-1 0 0 7.354694611513402 0 0 1 1 0 0 forward_v I I I I #
coedge $-1 $308 $309 $310 $311 reversed $121 $-1 #
coedge $-1 $211 $123 $312 $313 forward $77 $-1 #
coedge $-1 $209 $307 $123 $205 forward $200 $-1 #
edge $-1 $314 29.395230573098384 $212 33.29413673535781 $204 $315 forward 7 unknown #
coedge $-1 $125 $124 $316 $317 reversed $49 $-1 #
coedge $-1 $318 $319 $124 $208 forward $305 $-1 #
edge $-1 $320 -16.311089685472751 $213 -9.9003377049209718 $207 $321 forward 7 unknown #
coedge $-1 $322 $204 $125 $210 forward $200 $-1 #
edge $-1 $212 9.9003377049209718 $323 16.311089685472751 $209 $324 forward 7 unknown #
coedge $-1 $126 $203 $318 $325 reversed $77 $-1 #
vertex $-1 $210 $326 #
vertex $-1 $208 $327 #
straight-curve $-1 -64.638820389585902 -23.006051400117833 0 0 0 -1 I I #
face $-1 $328 $329 $29 $-1 $330 forward single #
loop $-1 $-1 $331 $128 #
plane-surface $-1 0 0 -7.354694611513402 0 0 1 1 0 0 forward_v I I I I #
coedge $-1 $332 $333 $223 $334 forward $129 $-1 #
coedge $-1 $134 $131 $335 $336 reversed $81 $-1 #
coedge $-1 $131 $134 $337 $338 reversed $81 $-1 #
coedge $-1 $339 $340 $131 $222 forward $341 $-1 #
edge $-1 $342 -7.354694611513402 $343 7.354694611513402 $221 $344 forward 7 unknown #
coedge $-1 $133 $132 $218 $334 reversed $52 $-1 #
coedge $-1 $335 $331 $132 $225 forward $216 $-1 #
edge $-1 $345 29.395230573098384 $229 33.29413673535781 $224 $346 forward 7 unknown #
coedge $-1 $347 $337 $133 $227 forward $329 $-1 #
edge $-1 $228 -33.29413673535781 $348 -29.395230573098384 $226 $349 forward 7 unknown #
vertex $-1 $227 $350 #
vertex $-1 $225 $351 #
straight-curve $-1 -64.638820389585902 23.006051400117833 0 0 0 -1 I I #
face $-1 $-1 $352 $30 $-1 $353 reversed single #
loop $-1 $-1 $242 $136 #
plane-surface $-1 0 0 7.354694611513402 0 0 1 1 0 0 forward_v I I I I #
coedge $-1 $354 $355 $140 $240 forward $137 $-1 #
coedge $-1 $236 $139 $141 $241 reversed $85 $-1 #
coedge $-1 $139 $235 $356 $357 reversed $85 $-1 #
coedge $-1 $358 $142 $139 $238 forward $232 $-1 #
edge $-1 $244 -26.346708114925995 $359 -23.942510026379523 $237 $360 forward 7 unknown #
coedge $-1 $141 $140 $361 $362 reversed $55 $-1 #
edge $-1 $363 0.70083129456761828 $243 5.5092276005012772 $234 $364 forward 7 unknown #
edge $-1 $365 2.8258016906358157e-014 $244 4.8083963059336874 $235 $366 forward 7 unknown #
coedge $-1 $142 $358 $354 $367 forward $232 $-1 #
vertex $-1 $143 $368 #
vertex $-1 $143 $369 #
straight-curve $-1 -63.007954381926872 -8.726692542319455 7.354694611513402 0 1 0 I I #
coedge $-1 $246 $246 $-1 $370 reversed $146 $-1 #
edge $-1 $371 0 $371 6.2831853071796004 $147 $372 forward 7 unknown #
vertex $-1 $150 $373 #
ellipse-curve $-1 -64.210053426200119 -19.833099219844165 5.2725979167159416 -0.86602541151947299 0 0.49999998660252726 0.49999998660252726 0 0.86602541151947299 1 I I #
coedge $-1 $250 $250 $-1 $374 reversed $153 $-1 #
edge $-1 $375 0 $375 6.2831853071796004 $154 $376 forward 7 unknown #
vertex $-1 $157 $377 #
ellipse-curve $-1 -64.210053426200119 -15.073670949433662 5.2725979167159416 -0.86602541151947299 0 0.49999998660252726 0.49999998660252726 0 0.86602541151947299 1 I I #
face $-1 $-1 $378 $33 $-1 $379 reversed single #
loop $-1 $-1 $164 $158 #
plane-surface $-1 0 0 7.354694611513402 0 0 1 1 0 0 forward_v I I I I #
coedge $-1 $380 $381 $382 $383 reversed $159 $-1 #
coedge $-1 $384 $161 $163 $264 forward $99 $-1 #
coedge $-1 $161 $384 $380 $385 forward $99 $-1 #
coedge $-1 $382 $164 $161 $261 forward $255 $-1 #
edge $-1 $267 3.1740262268405335 $386 14.279358857798378 $260 $387 forward 7 unknown #
coedge $-1 $388 $389 $162 $263 forward $378 $-1 #
edge $-1 $390 -87.75941100953608 $266 -83.595217619941167 $262 $391 forward 7 unknown #
edge $-1 $267 126.01590863501299 $390 130.82430494094666 $163 $392 forward 7 unknown #
coedge $-1 $164 $382 $388 $393 forward $255 $-1 #
vertex $-1 $165 $394 #
vertex $-1 $165 $395 #
straight-curve $-1 56.648587137973728 -11.900718769159988 7.3546946115134091 -1 0 0 I I #
coedge $-1 $269 $269 $-1 $396 reversed $168 $-1 #
edge $-1 $397 0 $397 6.2831853071796004 $169 $398 forward 7 unknown #
vertex $-1 $172 $399 #
ellipse-curve $-1 64.210053426200119 -19.833099219844165 5.2725979167159256 0.86602541151947299 0 0.49999998660252726 0.49999998660252726 0 -0.86602541151947299 1 I I #
coedge $-1 $273 $273 $-1 $400 reversed $175 $-1 #
edge $-1 $401 0 $401 6.2831853071796004 $176 $402 forward 7 unknown #
vertex $-1 $179 $403 #
ellipse-curve $-1 64.210053426200119 -15.073670949433662 5.2725979167159256 0.86602541151947299 0 0.49999998660252726 0.49999998660252726 0 -0.86602541151947299 1 I I #
face $-1 $-1 $195 $27 $-1 $404 reversed single #
loop $-1 $-1 $293 $180 #
plane-surface $-1 0 29.416803380669609 0 0 -1 0 0 0 -1 forward_v I I I I #
coedge $-1 $405 $291 $294 $406 forward $181 $-1 #
coedge $-1 $297 $183 $184 $285 reversed $113 $-1 #
coedge $-1 $291 $405 $183 $283 reversed $181 $-1 #
edge $-1 $298 -7.354694611513402 $407 7.354694611513402 $282 $408 forward 7 unknown #
coedge $-1 $185 $184 $405 $409 forward $73 $-1 #
edge $-1 $289 -65.412152470473345 $407 65.412152470473345 $281 $410 forward 7 unknown #
coedge $-1 $294 $293 $185 $287 reversed $278 $-1 #
edge $-1 $411 -65.412152470473345 $288 65.412152470473345 $286 $412 forward 7 unknown #
vertex $-1 $187 $413 #
vertex $-1 $300 $414 #
straight-curve $-1 65.412152470473345 0 -7.354694611513402 0 -1 0 I I #
coedge $-1 $280 $282 $188 $292 reversed $181 $-1 #
edge $-1 $295 -29.416803380669609 $298 29.416803380669609 $291 $415 forward 7 unknown #
coedge $-1 $286 $189 $194 $301 forward $278 $-1 #
coedge $-1 $189 $286 $280 $406 reversed $278 $-1 #
vertex $-1 $190 $416 #
straight-curve $-1 0 29.416803380669609 7.354694611513402 -1 0 0 I I #
coedge $-1 $191 $281 $193 $300 reversed $113 $-1 #
vertex $-1 $292 $417 #
straight-curve $-1 0 -29.416803380669609 7.354694611513402 1 0 0 I I #
edge $-1 $196 -7.354694611513402 $289 7.354694611513402 $193 $418 forward 7 unknown #
edge $-1 $197 -7.354694611513402 $288 7.354694611513402 $194 $419 forward 7 unknown #
point $-1 65.412152470473345 -29.416803380669609 7.354694611513402 #
point $-1 65.412152470473345 29.416803380669609 7.354694611513402 #
face $-1 $-1 $420 $28 $-1 $421 reversed single #
loop $-1 $-1 $422 $199 #
plane-surface $-1 0 0 -7.354694611513402 0 0 1 1 0 0 forward_v I I I I #
coedge $-1 $204 $322 $309 $423 forward $200 $-1 #
coedge $-1 $312 $202 $422 $424 reversed $121 $-1 #
coedge $-1 $202 $312 $307 $423 reversed $121 $-1 #
coedge $-1 $425 $426 $202 $311 forward $420 $-1 #
edge $-1 $427 -7.354694611513402 $428 7.354694611513402 $310 $429 forward 7 unknown #
coedge $-1 $309 $308 $203 $313 reversed $121 $-1 #
edge $-1 $314 -7.354694611513402 $430 7.354694611513402 $312 $431 forward 7 unknown #
vertex $-1 $205 $432 #
straight-curve $-1 -31.344683654228096 -23.006051400117833 7.354694611513402 -1 0 0 I I #
coedge $-1 $426 $425 $206 $317 forward $420 $-1 #
edge $-1 $323 -7.354694611513402 $320 7.354694611513402 $316 $433 forward 7 unknown #
coedge $-1 $422 $207 $211 $325 forward $305 $-1 #
coedge $-1 $207 $422 $426 $434 forward $305 $-1 #
vertex $-1 $208 $435 #
straight-curve $-1 -64.638820389585902 -13.105713695196862 -7.354694611513402 0 1 0 I I #
coedge $-1 $307 $209 $425 $436 forward $200 $-1 #
vertex $-1 $436 $437 #
straight-curve $-1 -64.638820389585902 -13.105713695196862 7.354694611513402 0 -1 0 I I #
edge $-1 $213 -33.29413673535781 $430 -29.395230573098384 $318 $438 forward 7 unknown #
point $-1 -64.638820389585902 -23.006051400117833 7.354694611513402 #
point $-1 -64.638820389585902 -23.006051400117833 -7.354694611513402 #
face $-1 $-1 $341 $29 $-1 $439 reversed single #
loop $-1 $-1 $347 $215 #
plane-surface $-1 0 0 7.354694611513402 0 0 1 1 0 0 forward_v I I I I #
coedge $-1 $224 $440 $332 $441 forward $216 $-1 #
coedge $-1 $442 $218 $331 $441 reversed $129 $-1 #
coedge $-1 $218 $442 $347 $443 reversed $129 $-1 #
edge $-1 $348 -7.354694611513402 $345 7.354694611513402 $218 $444 forward 7 unknown #
coedge $-1 $440 $224 $219 $336 forward $216 $-1 #
edge $-1 $229 9.9003377049209735 $342 16.311089685472744 $335 $445 forward 7 unknown #
coedge $-1 $226 $446 $220 $338 forward $329 $-1 #
edge $-1 $343 -16.311089685472744 $228 -9.9003377049209735 $337 $447 forward 7 unknown #
coedge $-1 $448 $221 $446 $449 reversed $341 $-1 #
coedge $-1 $221 $448 $440 $450 reversed $341 $-1 #
loop $-1 $-1 $448 $328 #
vertex $-1 $450 $451 #
vertex $-1 $222 $452 #
straight-curve $-1 -64.638820389585902 29.416803380669609 0 0 0 1 I I #
vertex $-1 $225 $453 #
straight-curve $-1 -31.344683654228096 23.006051400117833 -7.354694611513402 -1 0 0 I I #
coedge $-1 $446 $226 $333 $443 forward $329 $-1 #
vertex $-1 $227 $454 #
straight-curve $-1 -31.344683654228096 23.006051400117833 7.354694611513402 1 0 0 I I #
point $-1 -64.638820389585902 23.006051400117833 7.354694611513402 #
point $-1 -64.638820389585902 23.006051400117833 -7.354694611513402 #
loop $-1 $-1 $455 $231 #
plane-surface $-1 -65.412152470473345 0 0 1 0 0 0 0 -1 forward_v I I I I #
coedge $-1 $355 $234 $242 $367 reversed $137 $-1 #
coedge $-1 $234 $354 $455 $456 reversed $137 $-1 #
coedge $-1 $361 $457 $236 $357 forward $352 $-1 #
edge $-1 $359 26.946631358324971 $365 31.110824747919882 $356 $458 forward 7 unknown #
coedge $-1 $242 $237 $457 $459 forward $232 $-1 #
vertex $-1 $459 $460 #
straight-curve $-1 -89.354662496852868 -11.900718769159988 7.354694611513402 -1 0 0 I I #
coedge $-1 $455 $356 $239 $362 forward $352 $-1 #
edge $-1 $365 3.1740262268405335 $363 14.279358857798378 $361 $461 forward 7 unknown #
vertex $-1 $456 $462 #
straight-curve $-1 -65.762568108367788 -23.006051400117833 2.5835635116348459 0.49999998660252726 0 0.86602541151947299 I I #
vertex $-1 $362 $463 #
straight-curve $-1 -65.412152470473359 -11.900718769159988 3.190501221918467 0.49999998660252726 0 0.86602541151947299 I I #
edge $-1 $464 23.942510026379523 $243 26.346708114925995 $242 $465 forward 7 unknown #
point $-1 -63.007954381926872 -23.006051400117833 7.354694611513402 #
point $-1 -63.007954381926872 -11.900718769159988 7.354694611513402 #
edge $-1 $466 1 $466 0 $246 $-1 forward 7 unknown #
vertex $-1 $247 $467 #
ellipse-curve $-1 -62.617340533686701 -19.833099219844165 4.3530447323340393 -0.86602541151947299 0 0.49999998660252726 0.49999998660252726 0 0.86602541151947299 1 I I #
point $-1 -63.710053439597566 -19.833099219844165 6.1386233282354041 #
edge $-1 $468 1 $468 0 $250 $-1 forward 7 unknown #
vertex $-1 $251 $469 #
ellipse-curve $-1 -62.617340533686701 -15.073670949433662 4.3530447323340393 -0.86602541151947299 0 0.49999998660252726 0.49999998660252726 0 0.86602541151947299 1 I I #
point $-1 -63.710053439597566 -15.073670949433662 6.1386233282354041 #
loop $-1 $-1 $262 $254 #
plane-surface $-1 65.412152470473345 0 0 -1 0 0 0 0 1 forward_v I I I I #
coedge $-1 $381 $257 $259 $385 reversed $159 $-1 #
coedge $-1 $257 $380 $470 $471 reversed $159 $-1 #
coedge $-1 $265 $260 $257 $383 forward $255 $-1 #
edge $-1 $386 6.3593672439531446 $472 8.763565332499617 $382 $473 forward 7 unknown #
coedge $-1 $259 $258 $389 $474 reversed $99 $-1 #
edge $-1 $475 -130.82430494094666 $386 -126.01590863501299 $380 $476 forward 7 unknown #
vertex $-1 $261 $477 #
straight-curve $-1 63.007954381926879 -8.726692542319455 7.3546946115133949 0 -1 0 I I #
coedge $-1 $470 $262 $265 $393 reversed $378 $-1 #
coedge $-1 $262 $470 $384 $474 forward $378 $-1 #
vertex $-1 $263 $478 #
straight-curve $-1 65.412152470473345 -11.900718769159988 90.949912231454562 0 0 1 I I #
straight-curve $-1 1.7527150788509971e-006 -11.900718769159988 116.48767374515084 0.49999998660252726 0 -0.86602541151947299 I I #
edge $-1 $472 -23.006051400117833 $266 -11.900718769159988 $388 $479 forward 7 unknown #
point $-1 65.412152470473345 -11.900718769159988 7.354694611513402 #
point $-1 63.007954381926872 -11.900718769159988 7.3546946115134091 #
edge $-1 $480 1 $480 0 $269 $-1 forward 7 unknown #
vertex $-1 $270 $481 #
ellipse-curve $-1 62.617340533686715 -19.833099219844165 4.3530447323340251 0.86602541151947299 0 0.49999998660252726 0.49999998660252726 0 -0.86602541151947299 1 I I #
point $-1 64.710053412802637 -19.833099219844165 4.4065725051964435 #
edge $-1 $482 1 $482 0 $273 $-1 forward 7 unknown #
vertex $-1 $274 $483 #
ellipse-curve $-1 62.617340533686715 -15.073670949433662 4.3530447323340251 0.86602541151947299 0 0.49999998660252726 0.49999998660252726 0 -0.86602541151947299 1 I I #
point $-1 64.710053412802637 -15.073670949433662 4.4065725051964435 #
plane-surface $-1 65.412152470473345 0 0 -1 0 0 0 0 1 forward_v I I I I #
coedge $-1 $282 $280 $284 $409 reversed $181 $-1 #
edge $-1 $295 -7.354694611513402 $411 7.354694611513402 $294 $484 forward 7 unknown #
vertex $-1 $409 $485 #
straight-curve $-1 -65.412152470473345 -29.416803380669609 0 0 0 -1 I I #
edge $-1 $407 -29.416803380669609 $411 29.416803380669609 $405 $486 forward 7 unknown #
straight-curve $-1 0 -29.416803380669609 -7.354694611513402 -1 0 0 I I #
vertex $-1 $287 $487 #
straight-curve $-1 0 29.416803380669609 -7.354694611513402 1 0 0 I I #
point $-1 65.412152470473345 29.416803380669609 -7.354694611513402 #
point $-1 65.412152470473345 -29.416803380669609 -7.354694611513402 #
straight-curve $-1 -65.412152470473345 0 7.354694611513402 0 -1 0 I I #
point $-1 -65.412152470473345 29.416803380669609 7.354694611513402 #
point $-1 -65.412152470473345 -29.416803380669609 7.354694611513402 #
straight-curve $-1 65.412152470473345 -29.416803380669609 0 0 0 -1 I I #
straight-curve $-1 65.412152470473345 29.416803380669609 0 0 0 -1 I I #
loop $-1 $-1 $310 $304 #
plane-surface $-1 0 -29.416803380669609 0 0 1 0 0 0 1 forward_v I I I I #
coedge $-1 $319 $318 $308 $424 forward $305 $-1 #
edge $-1 $428 -16.311089685472751 $314 -9.9003377049209718 $307 $488 forward 7 unknown #
edge $-1 $430 9.9003377049209718 $427 16.311089685472751 $422 $489 forward 7 unknown #
coedge $-1 $316 $310 $322 $436 reversed $420 $-1 #
coedge $-1 $310 $316 $319 $434 reversed $420 $-1 #
vertex $-1 $434 $490 #
vertex $-1 $311 $491 #
straight-curve $-1 -60.73991422732648 -29.416803380669609 0 0 0 1 I I #
vertex $-1 $325 $492 #
straight-curve $-1 -60.73991422732648 -23.006051400117833 0 0 0 -1 I I #
point $-1 -60.73991422732648 -23.006051400117833 7.354694611513402 #
straight-curve $-1 -64.638820389585902 -29.416803380669609 0 0 0 -1 I I #
edge $-1 $427 60.73991422732648 $320 64.638820389585902 $426 $493 forward 7 unknown #
point $-1 -64.638820389585902 -29.416803380669613 -7.354694611513402 #
edge $-1 $323 -64.638820389585902 $428 -60.73991422732648 $425 $494 forward 7 unknown #
point $-1 -64.638820389585902 -29.416803380669613 7.354694611513402 #
straight-curve $-1 -31.344683654228096 -23.006051400117833 -7.354694611513402 1 0 0 I I #
plane-surface $-1 0 29.416803380669609 0 0 -1 0 0 0 -1 forward_v I I I I #
coedge $-1 $331 $335 $340 $450 forward $216 $-1 #
edge $-1 $495 -16.311089685472744 $345 -9.9003377049209735 $331 $496 forward 7 unknown #
coedge $-1 $333 $332 $448 $497 reversed $129 $-1 #
edge $-1 $348 9.9003377049209735 $498 16.311089685472744 $347 $499 forward 7 unknown #
straight-curve $-1 -60.73991422732648 23.006051400117833 0 0 0 -1 I I #
straight-curve $-1 -64.638820389585902 13.10571369519686 -7.354694611513402 0 1 0 I I #
coedge $-1 $337 $347 $339 $449 forward $329 $-1 #
straight-curve $-1 -64.638820389585902 13.10571369519686 7.354694611513402 0 -1 0 I I #
coedge $-1 $340 $339 $442 $497 forward $341 $-1 #
edge $-1 $498 60.73991422732648 $343 64.638820389585902 $339 $500 forward 7 unknown #
edge $-1 $342 -64.638820389585902 $495 -60.73991422732648 $340 $501 forward 7 unknown #
point $-1 -64.638820389585902 29.416803380669606 -7.354694611513402 #
point $-1 -64.638820389585902 29.416803380669606 7.354694611513402 #
point $-1 -60.73991422732648 23.006051400117833 -7.354694611513402 #
point $-1 -60.73991422732648 23.006051400117833 7.354694611513402 #
coedge $-1 $457 $361 $355 $456 forward $352 $-1 #
edge $-1 $363 -31.110824747919882 $464 -26.946631358324971 $455 $502 forward 7 unknown #
coedge $-1 $356 $455 $358 $459 reversed $352 $-1 #
straight-curve $-1 -65.412152470473345 -11.900718769159988 34.301325969838373 0 0 -1 I I #
edge $-1 $359 11.900718769159988 $464 23.006051400117833 $457 $503 forward 7 unknown #
point $-1 -65.412152470473345 -11.900718769159988 7.354694611513402 #
straight-curve $-1 -65.412152470473345 -8.726692542319455 3.190501221918506 0 -1 0 I I #
point $-1 -65.412152470473345 -23.006051400117833 3.1905012219184914 #
point $-1 -65.412152470473345 -11.900718769159988 3.1905012219184914 #
vertex $-1 $456 $504 #
straight-curve $-1 -89.354662496852868 -23.006051400117833 7.354694611513402 1 0 0 I I #
vertex $-1 $370 $505 #
point $-1 -62.117340547084176 -19.833099219844165 5.2190701438535116 #
vertex $-1 $374 $506 #
point $-1 -62.117340547084176 -15.073670949433662 5.2190701438535116 #
coedge $-1 $389 $388 $381 $471 forward $378 $-1 #
edge $-1 $472 83.595217619941167 $475 87.75941100953608 $470 $507 forward 7 unknown #
vertex $-1 $393 $508 #
straight-curve $-1 56.648587137973728 -23.006051400117833 7.3546946115134091 1 0 0 I I #
edge $-1 $475 -14.279358857798378 $390 -3.1740262268405335 $389 $509 forward 7 unknown #
vertex $-1 $474 $510 #
straight-curve $-1 1.7527150788509971e-006 -23.006051400117833 116.48767374515084 -0.49999998660252726 0 0.86602541151947299 I I #
point $-1 63.007954381926872 -23.006051400117833 7.3546946115134091 #
point $-1 65.412152470473345 -11.900718769159988 3.1905012219184812 #
straight-curve $-1 65.412152470473345 0 7.354694611513402 0 1 0 I I #
vertex $-1 $396 $511 #
point $-1 63.11734052028924 -19.833099219844165 3.4870193208145519 #
vertex $-1 $400 $512 #
point $-1 63.11734052028924 -15.073670949433662 3.4870193208145519 #
straight-curve $-1 -65.412152470473345 29.416803380669609 0 0 0 -1 I I #
point $-1 -65.412152470473345 -29.416803380669609 -7.354694611513402 #
straight-curve $-1 -65.412152470473345 0 -7.354694611513402 0 1 0 I I #
point $-1 -65.412152470473345 29.416803380669609 -7.354694611513402 #
straight-curve $-1 -60.73991422732648 -13.105713695196862 7.354694611513402 0 1 0 I I #
straight-curve $-1 -60.73991422732648 -13.105713695196862 -7.354694611513402 0 -1 0 I I #
point $-1 -60.73991422732648 -29.416803380669613 -7.354694611513402 #
point $-1 -60.73991422732648 -29.416803380669613 7.354694611513402 #
point $-1 -60.73991422732648 -23.006051400117833 -7.354694611513402 #
straight-curve $-1 0 -29.416803380669609 -7.354694611513402 -1 0 0 I I #
straight-curve $-1 0 -29.416803380669609 7.354694611513402 1 0 0 I I #
vertex $-1 $497 $513 #
straight-curve $-1 -60.73991422732648 13.10571369519686 -7.354694611513402 0 -1 0 I I #
edge $-1 $498 -7.354694611513402 $495 7.354694611513402 $448 $514 forward 7 unknown #
vertex $-1 $449 $515 #
straight-curve $-1 -60.73991422732648 13.10571369519686 7.354694611513402 0 1 0 I I #
straight-curve $-1 0 29.416803380669609 7.354694611513402 -1 0 0 I I #
straight-curve $-1 0 29.416803380669609 -7.354694611513402 1 0 0 I I #
straight-curve $-1 -65.412152470473345 -23.006051400117833 34.301325969838373 0 0 1 I I #
straight-curve $-1 -65.412152470473345 0 7.354694611513402 0 -1 0 I I #
point $-1 -65.412152470473345 -23.006051400117833 7.354694611513402 #
point $-1 -61.751315122167227 -19.833099219844165 3.8530447457315113 #
point $-1 -61.751315122167227 -15.073670949433662 3.8530447457315113 #
straight-curve $-1 65.412152470473345 -23.006051400117833 90.949912231454562 0 0 -1 I I #
point $-1 65.412152470473345 -23.006051400117833 7.354694611513402 #
straight-curve $-1 65.412152470473359 -8.726692542319455 3.1905012219184883 0 1 0 I I #
point $-1 65.412152470473345 -23.006051400117833 3.1905012219184812 #
point $-1 61.751315122167242 -19.833099219844165 3.8530447457314971 #
point $-1 61.751315122167242 -15.073670949433662 3.8530447457314971 #
point $-1 -60.73991422732648 29.416803380669606 -7.354694611513402 #
straight-curve $-1 -60.73991422732648 29.416803380669609 0 0 0 -1 I I #
point $-1 -60.73991422732648 29.416803380669606 7.354694611513402 #
End-of-ACIS-data 