500 0 17 0           
7 Unknown 11 ACIS 5.0 NT 24 Thu Mar 25 18:01:53 1999 
-1 9.9999999999999995e-007 1e-010 
body $-1 $17 $-1 $18 #
body $-1 $19 $-1 $20 #
body $-1 $21 $-1 $22 #
body $-1 $23 $-1 $24 #
body $-1 $25 $-1 $26 #
body $-1 $27 $-1 $28 #
body $-1 $29 $-1 $30 #
body $-1 $31 $-1 $32 #
body $-1 $33 $-1 $34 #
body $-1 $35 $-1 $36 #
body $-1 $37 $-1 $38 #
body $-1 $39 $-1 $40 #
body $-1 $41 $-1 $42 #
body $-1 $43 $-1 $44 #
body $-1 $45 $-1 $46 #
body $-1 $47 $-1 $48 #
body $-1 $49 $-1 $50 #
lump $-1 $-1 $51 $0 #
transform $-1 1 0 0 0 1 0 0 0 1 51.688589129306926 25.435259524484106 8.2913962549157549 1 rotate no_reflect no_shear #
lump $-1 $-1 $52 $1 #
transform $-1 1 0 0 0 1 0 0 0 1 51.688589129306926 25.435259524484106 8.2913962549157549 1 rotate no_reflect no_shear #
lump $-1 $-1 $53 $2 #
transform $-1 1 0 0 0 1 0 0 0 1 51.688589129306926 25.435259524484106 8.2913962549157549 1 rotate no_reflect no_shear #
lump $-1 $-1 $54 $3 #
transform $-1 1 0 0 0 1 0 0 0 1 51.688589129306926 25.435259524484106 8.2913962549157549 1 rotate no_reflect no_shear #
lump $-1 $-1 $55 $4 #
transform $-1 1 0 0 0 1 0 0 0 1 51.688589129306926 25.435259524484106 8.2913962549157549 1 rotate no_reflect no_shear #
lump $-1 $-1 $56 $5 #
transform $-1 1 0 0 0 1 0 0 0 1 51.688589129306926 25.435259524484106 8.2913962549157549 1 rotate no_reflect no_shear #
lump $-1 $-1 $57 $6 #
transform $-1 1 0 0 0 1 0 0 0 1 51.688589129306926 25.435259524484106 8.2913962549157549 1 rotate no_reflect no_shear #
lump $-1 $-1 $58 $7 #
transform $-1 1 0 0 0 1 0 0 0 1 51.688589129306926 25.435259524484106 8.2913962549157549 1 rotate no_reflect no_shear #
lump $-1 $-1 $59 $8 #
transform $-1 1 0 0 0 1 0 0 0 1 51.688589129306926 25.435259524484106 8.2913962549157549 1 rotate no_reflect no_shear #
lump $-1 $-1 $60 $9 #
transform $-1 1 0 0 0 1 0 0 0 1 51.688589129306926 25.435259524484106 8.2913962549157549 1 rotate no_reflect no_shear #
lump $-1 $-1 $61 $10 #
transform $-1 1 0 0 0 1 0 0 0 1 51.688589129306926 25.435259524484106 8.2913962549157549 1 rotate no_reflect no_shear #
lump $-1 $-1 $62 $11 #
transform $-1 1 0 0 0 1 0 0 0 1 51.688589129306926 25.435259524484106 8.2913962549157549 1 rotate no_reflect no_shear #
lump $-1 $-1 $63 $12 #
transform $-1 1 0 0 0 1 0 0 0 1 51.688589129306926 25.435259524484106 8.2913962549157549 1 rotate no_reflect no_shear #
lump $-1 $-1 $64 $13 #
transform $-1 1 0 0 0 1 0 0 0 1 51.688589129306926 25.435259524484106 8.2913962549157549 1 rotate no_reflect no_shear #
lump $-1 $-1 $65 $14 #
transform $-1 1 0 0 0 1 0 0 0 1 51.688589129306926 25.435259524484106 8.2913962549157549 1 rotate no_reflect no_shear #
lump $-1 $-1 $66 $15 #
transform $-1 1 0 0 0 1 0 0 0 1 51.688589129306926 25.435259524484106 8.2913962549157549 1 rotate no_reflect no_shear #
lump $-1 $-1 $67 $16 #
transform $-1 1 0 0 0 1 0 0 0 1 51.688589129306926 25.435259524484106 8.2913962549157549 1 rotate no_reflect no_shear #
shell $-1 $-1 $-1 $68 $-1 $17 #
shell $-1 $-1 $-1 $69 $-1 $19 #
shell $-1 $-1 $-1 $70 $-1 $21 #
shell $-1 $-1 $-1 $71 $-1 $23 #
shell $-1 $-1 $-1 $72 $-1 $25 #
shell $-1 $-1 $-1 $73 $-1 $27 #
shell $-1 $-1 $-1 $74 $-1 $29 #
shell $-1 $-1 $-1 $75 $-1 $31 #
shell $-1 $-1 $-1 $76 $-1 $33 #
shell $-1 $-1 $-1 $77 $-1 $35 #
shell $-1 $-1 $-1 $78 $-1 $37 #
shell $-1 $-1 $-1 $79 $-1 $39 #
shell $-1 $-1 $-1 $80 $-1 $41 #
shell $-1 $-1 $-1 $81 $-1 $43 #
shell $-1 $-1 $-1 $82 $-1 $45 #
shell $-1 $-1 $-1 $83 $-1 $47 #
shell $-1 $-1 $-1 $84 $-1 $49 #
face $-1 $85 $86 $51 $-1 $87 forward single #
face $-1 $88 $89 $52 $-1 $90 reversed single #
face $-1 $91 $92 $53 $-1 $93 reversed single #
face $-1 $94 $95 $54 $-1 $96 forward single #
face $-1 $97 $98 $55 $-1 $99 forward single #
face $-1 $100 $101 $56 $-1 $102 reversed single #
face $-1 $103 $104 $57 $-1 $105 forward single #
face $-1 $106 $107 $58 $-1 $108 forward single #
face $-1 $109 $110 $59 $-1 $111 reversed single #
face $-1 $112 $113 $60 $-1 $114 forward single #
face $-1 $115 $116 $61 $-1 $117 forward single #
face $-1 $118 $119 $62 $-1 $120 reversed single #
face $-1 $121 $122 $63 $-1 $123 forward single #
face $-1 $124 $125 $64 $-1 $126 forward single #
face $-1 $127 $128 $65 $-1 $129 reversed single #
face $-1 $130 $131 $66 $-1 $132 forward single #
face $-1 $133 $134 $67 $-1 $135 forward single #
face $-1 $136 $137 $51 $-1 $138 reversed single #
loop $-1 $-1 $139 $68 #
plane-surface $-1 0 0 8.2913962549157549 0 0 1 1 0 0 forward_v I I I I #
face $-1 $140 $141 $52 $-1 $142 reversed single #
loop $-1 $-1 $143 $69 #
plane-surface $-1 -50.050021776521902 -19.451729274112079 0 0 -1 0 0 0 -1 forward_v I I I I #
face $-1 $144 $145 $53 $-1 $146 reversed single #
loop $-1 $-1 $147 $70 #
plane-surface $-1 -127.29387196606069 4.0088175151118168 75.173226557582154 0 1 0 -0.73135370988377701 0 0.68199835119979291 forward_v I I I I #
face $-1 $148 $149 $54 $-1 $150 forward single #
loop $-1 $151 $152 $71 #
cone-surface $-1 -49.634484264687373 6.3141568712648812 6.1397796686181927 0.73135370988377701 0 -0.68199835119979291 0.34099917559989645 0 0.36567685494188851 1 I I 0 1 0.5 forward I I I I #
face $-1 $153 $154 $55 $-1 $155 forward single #
loop $-1 $156 $157 $72 #
cone-surface $-1 -49.634484264687373 9.7721659054944787 6.1397796686181927 0.73135370988377701 0 -0.68199835119979291 0.34099917559989645 0 0.36567685494188851 1 I I 0 1 0.5 forward I I I I #
face $-1 $158 $159 $56 $-1 $160 reversed single #
loop $-1 $-1 $161 $73 #
plane-surface $-1 36.406800248188667 -10.321246184283769 148.56002446047728 0 -1 0 -0.62932039886446345 0 -0.77714595512881146 forward_v I I I I #
face $-1 $162 $163 $57 $-1 $164 forward single #
loop $-1 $165 $166 $74 #
cone-surface $-1 48.054790507458065 -14.643287593112365 5.1500265949200834 -0.62932039886446345 0 -0.77714595512881146 0.38857297756440573 0 -0.31466019943223172 1 I I 0 1 0.5 forward I I I I #
face $-1 $167 $168 $58 $-1 $169 forward single #
loop $-1 $170 $171 $75 #
cone-surface $-1 48.054790507458065 -12.050062747815208 5.1500265949200834 -0.62932039886446345 0 -0.77714595512881146 0.38857297756440573 0 -0.31466019943223172 1 I I 0 1 0.5 forward I I I I #
face $-1 $172 $173 $59 $-1 $174 reversed single #
loop $-1 $-1 $175 $76 #
plane-surface $-1 36.406800248188667 0.57104734614943098 148.56002446047728 0 -1 0 -0.62932039886446345 0 -0.77714595512881146 forward_v I I I I #
face $-1 $176 $177 $60 $-1 $178 forward single #
loop $-1 $179 $180 $77 #
cone-surface $-1 48.054790507458065 -3.7509940626791654 5.1500265949200834 -0.62932039886446345 0 -0.77714595512881146 0.38857297756440573 0 -0.31466019943223172 1 I I 0 1 0.5 forward I I I I #
face $-1 $181 $182 $61 $-1 $183 forward single #
loop $-1 $184 $185 $78 #
cone-surface $-1 48.054790507458065 -1.1577692173820076 5.1500265949200834 -0.62932039886446345 0 -0.77714595512881146 0.38857297756440573 0 -0.31466019943223172 1 I I 0 1 0.5 forward I I I I #
face $-1 $186 $187 $62 $-1 $188 reversed single #
loop $-1 $-1 $189 $79 #
plane-surface $-1 36.406800248188667 11.463340876582631 148.56002446047728 0 -1 0 -0.62932039886446345 0 -0.77714595512881146 forward_v I I I I #
face $-1 $190 $191 $63 $-1 $192 forward single #
loop $-1 $193 $194 $80 #
cone-surface $-1 48.054790507458065 7.1412994677540347 5.1500265949200834 -0.62932039886446345 0 -0.77714595512881146 0.38857297756440573 0 -0.31466019943223172 1 I I 0 1 0.5 forward I I I I #
face $-1 $195 $196 $64 $-1 $197 forward single #
loop $-1 $198 $199 $81 #
cone-surface $-1 48.054790507458065 9.7345243130511925 5.1500265949200834 -0.62932039886446345 0 -0.77714595512881146 0.38857297756440573 0 -0.31466019943223172 1 I I 0 1 0.5 forward I I I I #
face $-1 $200 $201 $65 $-1 $202 reversed single #
loop $-1 $-1 $203 $82 #
plane-surface $-1 36.406800248188667 22.355634407015831 148.56002446047728 0 -1 0 -0.62932039886446345 0 -0.77714595512881146 forward_v I I I I #
face $-1 $204 $205 $66 $-1 $206 forward single #
loop $-1 $207 $208 $83 #
cone-surface $-1 48.054790507458065 18.033592998187235 5.1500265949200834 -0.62932039886446345 0 -0.77714595512881146 0.38857297756440573 0 -0.31466019943223172 1 I I 0 1 0.5 forward I I I I #
face $-1 $209 $210 $67 $-1 $211 forward single #
loop $-1 $212 $213 $84 #
cone-surface $-1 48.054790507458065 20.626817843484393 5.1500265949200834 -0.62932039886446345 0 -0.77714595512881146 0.38857297756440573 0 -0.31466019943223172 1 I I 0 1 0.5 forward I I I I #
face $-1 $214 $215 $51 $-1 $216 reversed single #
loop $-1 $-1 $217 $85 #
plane-surface $-1 0 0 -8.2913962549157549 0 0 1 1 0 0 forward_v I I I I #
coedge $-1 $218 $219 $220 $221 forward $86 $-1 #
face $-1 $222 $223 $52 $-1 $224 forward single #
loop $-1 $-1 $225 $88 #
plane-surface $-1 -48.411454423736878 -22.443494399298093 0 -1 0 0 0 0 1 forward_v I I I I #
coedge $-1 $226 $227 $228 $229 forward $89 $-1 #
face $-1 $230 $231 $53 $-1 $232 reversed single #
loop $-1 $-1 $233 $91 #
plane-surface $-1 -51.688589129306919 8.0431613883796835 4.670161433520434 -0.73135370988377701 0 0.68199835119979291 0.68199835119979291 0 0.73135370988377701 forward_v I I I I #
coedge $-1 $234 $235 $236 $237 reversed $92 $-1 #
face $-1 $-1 $238 $54 $-1 $239 forward single #
loop $-1 $240 $241 $94 #
cone-surface $-1 -49.085968982274537 6.3141568712648812 5.6282809052183485 0.73135370988377701 0 -0.68199835119979291 0.17049958779994823 0 0.18283842747094425 1 I I -0.70710678118654746 0.70710678118654746 0.25 forward I I I I #
loop $-1 $-1 $242 $71 #
coedge $-1 $152 $152 $243 $244 reversed $95 $-1 #
face $-1 $-1 $245 $55 $-1 $246 forward single #
loop $-1 $247 $248 $97 #
cone-surface $-1 -49.085968982274537 9.7721659054944787 5.6282809052183485 0.73135370988377701 0 -0.68199835119979291 0.17049958779994823 0 0.18283842747094425 1 I I -0.70710678118654746 0.70710678118654746 0.25 forward I I I I #
loop $-1 $-1 $249 $72 #
coedge $-1 $157 $157 $250 $251 reversed $98 $-1 #
face $-1 $252 $253 $56 $-1 $254 reversed single #
loop $-1 $-1 $255 $100 #
plane-surface $-1 -28.650566807004942 -13.346675170463786 68.220868524165411 0.62932039886446345 0 0.77714595512881146 0.77714595512881146 0 -0.62932039886446345 forward_v I I I I #
coedge $-1 $256 $257 $258 $259 reversed $101 $-1 #
face $-1 $-1 $260 $57 $-1 $261 forward single #
loop $-1 $262 $263 $103 #
cone-surface $-1 47.429873065881104 -14.643287593112365 4.3783178391141657 -0.62932039886446345 0 -0.77714595512881146 0.19428648878220287 0 -0.15733009971611586 1 I I -0.70710678118654746 0.70710678118654746 0.25 forward I I I I #
loop $-1 $-1 $264 $74 #
coedge $-1 $166 $166 $265 $266 reversed $104 $-1 #
face $-1 $-1 $267 $58 $-1 $268 forward single #
loop $-1 $269 $270 $106 #
cone-surface $-1 47.429873065881104 -12.050062747815208 4.3783178391141657 -0.62932039886446345 0 -0.77714595512881146 0.19428648878220287 0 -0.15733009971611586 1 I I -0.70710678118654746 0.70710678118654746 0.25 forward I I I I #
loop $-1 $-1 $271 $75 #
coedge $-1 $171 $171 $272 $273 reversed $107 $-1 #
face $-1 $274 $275 $59 $-1 $276 reversed single #
loop $-1 $-1 $277 $109 #
plane-surface $-1 -28.650566807004942 -2.4543816400305865 68.220868524165411 0.62932039886446345 0 0.77714595512881146 0.77714595512881146 0 -0.62932039886446345 forward_v I I I I #
coedge $-1 $278 $279 $280 $281 reversed $110 $-1 #
face $-1 $-1 $282 $60 $-1 $283 forward single #
loop $-1 $284 $285 $112 #
cone-surface $-1 47.429873065881104 -3.7509940626791654 4.3783178391141657 -0.62932039886446345 0 -0.77714595512881146 0.19428648878220287 0 -0.15733009971611586 1 I I -0.70710678118654746 0.70710678118654746 0.25 forward I I I I #
loop $-1 $-1 $286 $77 #
coedge $-1 $180 $180 $287 $288 reversed $113 $-1 #
face $-1 $-1 $289 $61 $-1 $290 forward single #
loop $-1 $291 $292 $115 #
cone-surface $-1 47.429873065881104 -1.1577692173820076 4.3783178391141657 -0.62932039886446345 0 -0.77714595512881146 0.19428648878220287 0 -0.15733009971611586 1 I I -0.70710678118654746 0.70710678118654746 0.25 forward I I I I #
loop $-1 $-1 $293 $78 #
coedge $-1 $185 $185 $294 $295 reversed $116 $-1 #
face $-1 $296 $297 $62 $-1 $298 reversed single #
loop $-1 $-1 $299 $118 #
plane-surface $-1 -28.650566807004942 8.4379118904026136 68.220868524165411 0.62932039886446345 0 0.77714595512881146 0.77714595512881146 0 -0.62932039886446345 forward_v I I I I #
coedge $-1 $300 $301 $302 $303 reversed $119 $-1 #
face $-1 $-1 $304 $63 $-1 $305 forward single #
loop $-1 $306 $307 $121 #
cone-surface $-1 47.429873065881104 7.1412994677540347 4.3783178391141657 -0.62932039886446345 0 -0.77714595512881146 0.19428648878220287 0 -0.15733009971611586 1 I I -0.70710678118654746 0.70710678118654746 0.25 forward I I I I #
loop $-1 $-1 $308 $80 #
coedge $-1 $194 $194 $309 $310 reversed $122 $-1 #
face $-1 $-1 $311 $64 $-1 $312 forward single #
loop $-1 $313 $314 $124 #
cone-surface $-1 47.429873065881104 9.7345243130511925 4.3783178391141657 -0.62932039886446345 0 -0.77714595512881146 0.19428648878220287 0 -0.15733009971611586 1 I I -0.70710678118654746 0.70710678118654746 0.25 forward I I I I #
loop $-1 $-1 $315 $81 #
coedge $-1 $199 $199 $316 $317 reversed $125 $-1 #
face $-1 $318 $319 $65 $-1 $320 reversed single #
loop $-1 $-1 $321 $127 #
plane-surface $-1 -28.650566807004942 19.330205420835814 68.220868524165411 0.62932039886446345 0 0.77714595512881146 0.77714595512881146 0 -0.62932039886446345 forward_v I I I I #
coedge $-1 $322 $323 $324 $325 reversed $128 $-1 #
face $-1 $-1 $326 $66 $-1 $327 forward single #
loop $-1 $328 $329 $130 #
cone-surface $-1 47.429873065881104 18.033592998187235 4.3783178391141657 -0.62932039886446345 0 -0.77714595512881146 0.19428648878220287 0 -0.15733009971611586 1 I I -0.70710678118654746 0.70710678118654746 0.25 forward I I I I #
loop $-1 $-1 $330 $83 #
coedge $-1 $208 $208 $331 $332 reversed $131 $-1 #
face $-1 $-1 $333 $67 $-1 $334 forward single #
loop $-1 $335 $336 $133 #
cone-surface $-1 47.429873065881104 20.626817843484393 4.3783178391141657 -0.62932039886446345 0 -0.77714595512881146 0.19428648878220287 0 -0.15733009971611586 1 I I -0.70710678118654746 0.70710678118654746 0.25 forward I I I I #
loop $-1 $-1 $337 $84 #
coedge $-1 $213 $213 $338 $339 reversed $134 $-1 #
face $-1 $340 $341 $51 $-1 $342 reversed single #
loop $-1 $-1 $343 $136 #
plane-surface $-1 0 -25.435259524484106 0 0 1 0 0 0 1 forward_v I I I I #
coedge $-1 $344 $345 $346 $347 forward $137 $-1 #
coedge $-1 $348 $139 $349 $350 forward $86 $-1 #
coedge $-1 $139 $348 $351 $352 forward $86 $-1 #
coedge $-1 $353 $354 $139 $221 reversed $355 $-1 #
edge $-1 $356 -25.435259524484106 $357 25.435259524484106 $220 $358 forward 7 unknown #
face $-1 $359 $360 $52 $-1 $361 reversed single #
loop $-1 $-1 $362 $140 #
plane-surface $-1 0 0 8.2913962549157549 0 0 1 1 0 0 forward_v I I I I #
coedge $-1 $363 $364 $365 $366 reversed $141 $-1 #
coedge $-1 $367 $143 $368 $369 reversed $89 $-1 #
coedge $-1 $143 $367 $370 $371 reversed $89 $-1 #
coedge $-1 $364 $363 $143 $229 reversed $141 $-1 #
edge $-1 $372 -8.2913962549157549 $373 8.2913962549157549 $228 $374 forward 7 unknown #
face $-1 $375 $376 $53 $-1 $377 reversed single #
loop $-1 $-1 $378 $144 #
plane-surface $-1 -127.29387196606069 12.07750526164755 75.173226557582154 0 -1 0 0.73135370988377701 0 -0.68199835119979291 forward_v I I I I #
coedge $-1 $379 $380 $381 $382 reversed $145 $-1 #
coedge $-1 $235 $147 $383 $384 reversed $92 $-1 #
coedge $-1 $147 $234 $379 $385 reversed $92 $-1 #
coedge $-1 $381 $386 $147 $237 forward $387 $-1 #
edge $-1 $388 11.95834685372342 $389 15.335202873078757 $236 $390 forward 7 unknown #
loop $-1 $-1 $243 $148 #
plane-surface $-1 -51.688589129306919 8.0431613883796835 4.670161433520434 -0.73135370988377701 0 0.68199835119979291 0.68199835119979291 0 0.73135370988377701 forward_v I I I I #
loop $-1 $-1 $391 $94 #
coedge $-1 $241 $241 $242 $392 reversed $149 $-1 #
coedge $-1 $242 $242 $241 $392 forward $151 $-1 #
coedge $-1 $243 $243 $152 $244 forward $238 $-1 #
edge $-1 $393 0 $393 6.2831853071796004 $243 $394 forward 7 unknown #
loop $-1 $-1 $250 $153 #
plane-surface $-1 -51.688589129306919 8.0431613883796835 4.670161433520434 -0.73135370988377701 0 0.68199835119979291 0.68199835119979291 0 0.73135370988377701 forward_v I I I I #
loop $-1 $-1 $395 $97 #
coedge $-1 $248 $248 $249 $396 reversed $154 $-1 #
coedge $-1 $249 $249 $248 $396 forward $156 $-1 #
coedge $-1 $250 $250 $157 $251 forward $245 $-1 #
edge $-1 $397 0 $397 6.2831853071796004 $250 $398 forward 7 unknown #
face $-1 $399 $400 $56 $-1 $401 forward single #
loop $-1 $-1 $402 $158 #
plane-surface $-1 36.406800248188667 -16.372104156643804 148.56002446047728 0 1 0 0.62932039886446345 0 0.77714595512881146 forward_v I I I I #
coedge $-1 $403 $404 $405 $406 reversed $159 $-1 #
coedge $-1 $257 $161 $407 $408 reversed $101 $-1 #
coedge $-1 $161 $256 $403 $409 reversed $101 $-1 #
coedge $-1 $405 $410 $161 $259 forward $400 $-1 #
edge $-1 $411 -33.48518900521259 $412 -27.152766445236526 $258 $413 forward 7 unknown #
loop $-1 $-1 $265 $162 #
plane-surface $-1 -28.650566807004942 -13.346675170463786 68.220868524165411 0.62932039886446345 0 0.77714595512881146 0.77714595512881146 0 -0.62932039886446345 forward_v I I I I #
loop $-1 $-1 $414 $103 #
coedge $-1 $263 $263 $264 $415 reversed $163 $-1 #
coedge $-1 $264 $264 $263 $415 forward $165 $-1 #
coedge $-1 $265 $265 $166 $266 forward $260 $-1 #
edge $-1 $416 0 $416 6.2831853071796004 $265 $417 forward 7 unknown #
loop $-1 $-1 $272 $167 #
plane-surface $-1 -28.650566807004942 -13.346675170463786 68.220868524165411 0.62932039886446345 0 0.77714595512881146 0.77714595512881146 0 -0.62932039886446345 forward_v I I I I #
loop $-1 $-1 $418 $106 #
coedge $-1 $270 $270 $271 $419 reversed $168 $-1 #
coedge $-1 $271 $271 $270 $419 forward $170 $-1 #
coedge $-1 $272 $272 $171 $273 forward $267 $-1 #
edge $-1 $420 0 $420 6.2831853071796004 $272 $421 forward 7 unknown #
face $-1 $422 $423 $59 $-1 $424 reversed single #
loop $-1 $-1 $425 $172 #
plane-surface $-1 36.406800248188667 -5.4798106262106039 148.56002446047728 0 1 0 0.62932039886446345 0 0.77714595512881146 forward_v I I I I #
coedge $-1 $426 $427 $428 $429 reversed $173 $-1 #
coedge $-1 $279 $175 $430 $431 reversed $110 $-1 #
coedge $-1 $175 $278 $426 $432 reversed $110 $-1 #
coedge $-1 $428 $433 $175 $281 forward $434 $-1 #
edge $-1 $435 -33.48518900521259 $436 -27.152766445236526 $280 $437 forward 7 unknown #
loop $-1 $-1 $287 $176 #
plane-surface $-1 -28.650566807004942 -2.4543816400305865 68.220868524165411 0.62932039886446345 0 0.77714595512881146 0.77714595512881146 0 -0.62932039886446345 forward_v I I I I #
loop $-1 $-1 $438 $112 #
coedge $-1 $285 $285 $286 $439 reversed $177 $-1 #
coedge $-1 $286 $286 $285 $439 forward $179 $-1 #
coedge $-1 $287 $287 $180 $288 forward $282 $-1 #
edge $-1 $440 0 $440 6.2831853071796004 $287 $441 forward 7 unknown #
loop $-1 $-1 $294 $181 #
plane-surface $-1 -28.650566807004942 -2.4543816400305865 68.220868524165411 0.62932039886446345 0 0.77714595512881146 0.77714595512881146 0 -0.62932039886446345 forward_v I I I I #
loop $-1 $-1 $442 $115 #
coedge $-1 $292 $292 $293 $443 reversed $182 $-1 #
coedge $-1 $293 $293 $292 $443 forward $184 $-1 #
coedge $-1 $294 $294 $185 $295 forward $289 $-1 #
edge $-1 $444 0 $444 6.2831853071796004 $294 $445 forward 7 unknown #
face $-1 $446 $447 $62 $-1 $448 reversed single #
loop $-1 $-1 $449 $186 #
plane-surface $-1 36.406800248188667 5.4124829042225961 148.56002446047728 0 1 0 0.62932039886446345 0 0.77714595512881146 forward_v I I I I #
coedge $-1 $450 $451 $452 $453 reversed $187 $-1 #
coedge $-1 $301 $189 $454 $455 reversed $119 $-1 #
coedge $-1 $189 $300 $450 $456 reversed $119 $-1 #
coedge $-1 $452 $457 $189 $303 forward $458 $-1 #
edge $-1 $459 -33.48518900521259 $460 -27.152766445236526 $302 $461 forward 7 unknown #
loop $-1 $-1 $309 $190 #
plane-surface $-1 -28.650566807004942 8.4379118904026136 68.220868524165411 0.62932039886446345 0 0.77714595512881146 0.77714595512881146 0 -0.62932039886446345 forward_v I I I I #
loop $-1 $-1 $462 $121 #
coedge $-1 $307 $307 $308 $463 reversed $191 $-1 #
coedge $-1 $308 $308 $307 $463 forward $193 $-1 #
coedge $-1 $309 $309 $194 $310 forward $304 $-1 #
edge $-1 $464 0 $464 6.2831853071796004 $309 $465 forward 7 unknown #
loop $-1 $-1 $316 $195 #
plane-surface $-1 -28.650566807004942 8.4379118904026136 68.220868524165411 0.62932039886446345 0 0.77714595512881146 0.77714595512881146 0 -0.62932039886446345 forward_v I I I I #
loop $-1 $-1 $466 $124 #
coedge $-1 $314 $314 $315 $467 reversed $196 $-1 #
coedge $-1 $315 $315 $314 $467 forward $198 $-1 #
coedge $-1 $316 $316 $199 $317 forward $311 $-1 #
edge $-1 $468 0 $468 6.2831853071796004 $316 $469 forward 7 unknown #
face $-1 $470 $471 $65 $-1 $472 reversed single #
loop $-1 $-1 $473 $200 #
plane-surface $-1 36.406800248188667 16.304776434655796 148.56002446047728 0 1 0 0.62932039886446345 0 0.77714595512881146 forward_v I I I I #
coedge $-1 $474 $475 $476 $477 reversed $201 $-1 #
coedge $-1 $323 $203 $478 $479 reversed $128 $-1 #
coedge $-1 $203 $322 $474 $480 reversed $128 $-1 #
coedge $-1 $476 $481 $203 $325 forward $482 $-1 #
edge $-1 $483 -33.48518900521259 $484 -27.152766445236526 $324 $485 forward 7 unknown #
loop $-1 $-1 $331 $204 #
plane-surface $-1 -28.650566807004942 19.330205420835814 68.220868524165411 0.62932039886446345 0 0.77714595512881146 0.77714595512881146 0 -0.62932039886446345 forward_v I I I I #
loop $-1 $-1 $486 $130 #
coedge $-1 $329 $329 $330 $487 reversed $205 $-1 #
coedge $-1 $330 $330 $329 $487 forward $207 $-1 #
coedge $-1 $331 $331 $208 $332 forward $326 $-1 #
edge $-1 $488 0 $488 6.2831853071796004 $331 $489 forward 7 unknown #
loop $-1 $-1 $338 $209 #
plane-surface $-1 -28.650566807004942 19.330205420835814 68.220868524165411 0.62932039886446345 0 0.77714595512881146 0.77714595512881146 0 -0.62932039886446345 forward_v I I I I #
loop $-1 $-1 $490 $133 #
coedge $-1 $336 $336 $337 $491 reversed $210 $-1 #
coedge $-1 $337 $337 $336 $491 forward $212 $-1 #
coedge $-1 $338 $338 $213 $339 forward $333 $-1 #
edge $-1 $492 0 $492 6.2831853071796004 $338 $493 forward 7 unknown #
face $-1 $494 $495 $51 $-1 $496 reversed single #
loop $-1 $-1 $497 $214 #
plane-surface $-1 -51.688589129306926 0 0 1 0 0 0 0 -1 forward_v I I I I #
coedge $-1 $498 $351 $499 $500 forward $215 $-1 #
coedge $-1 $501 $217 $498 $502 forward $137 $-1 #
coedge $-1 $217 $501 $503 $504 forward $137 $-1 #
coedge $-1 $354 $353 $217 $347 reversed $355 $-1 #
edge $-1 $505 -25.435259524484106 $506 25.435259524484106 $346 $507 forward 7 unknown #
coedge $-1 $219 $218 $508 $509 forward $86 $-1 #
coedge $-1 $510 $511 $218 $350 reversed $495 $-1 #
edge $-1 $357 -51.688589129306926 $512 51.688589129306926 $349 $513 forward 7 unknown #
coedge $-1 $343 $514 $219 $352 reversed $215 $-1 #
edge $-1 $515 -51.688589129306926 $356 51.688589129306926 $351 $516 forward 7 unknown #
coedge $-1 $346 $220 $514 $517 forward $355 $-1 #
coedge $-1 $220 $346 $510 $518 reversed $355 $-1 #
loop $-1 $-1 $353 $494 #
vertex $-1 $221 $519 #
vertex $-1 $221 $520 #
straight-curve $-1 51.688589129306926 0 8.2913962549157549 0 1 0 I I #
face $-1 $521 $522 $52 $-1 $523 reversed single #
loop $-1 $-1 $524 $222 #
plane-surface $-1 -51.688589129306926 0 0 1 0 0 0 0 -1 forward_v I I I I #
coedge $-1 $370 $525 $364 $526 forward $223 $-1 #
coedge $-1 $228 $225 $527 $528 reversed $141 $-1 #
coedge $-1 $225 $228 $362 $526 reversed $141 $-1 #
coedge $-1 $529 $530 $225 $366 forward $531 $-1 #
edge $-1 $532 -8.2913962549157549 $533 8.2913962549157549 $365 $534 forward 7 unknown #
coedge $-1 $227 $226 $524 $535 reversed $89 $-1 #
coedge $-1 $527 $536 $226 $369 forward $522 $-1 #
edge $-1 $537 -26.663578241045975 $373 -23.386443535475927 $368 $538 forward 7 unknown #
coedge $-1 $539 $362 $227 $371 forward $223 $-1 #
edge $-1 $372 23.386443535475927 $540 26.663578241045975 $370 $541 forward 7 unknown #
vertex $-1 $371 $542 #
vertex $-1 $369 $543 #
straight-curve $-1 -48.411454423736878 -19.451729274112079 0 0 0 -1 I I #
face $-1 $-1 $387 $53 $-1 $544 forward single #
loop $-1 $-1 $545 $230 #
plane-surface $-1 -51.688589129306926 0 0 1 0 0 0 0 -1 forward_v I I I I #
coedge $-1 $546 $547 $548 $549 reversed $231 $-1 #
coedge $-1 $550 $233 $235 $385 forward $145 $-1 #
coedge $-1 $233 $550 $546 $551 forward $145 $-1 #
coedge $-1 $548 $236 $233 $382 forward $387 $-1 #
edge $-1 $389 -0.012763179078024933 $552 8.0559245674577085 $381 $553 forward 7 unknown #
coedge $-1 $554 $555 $234 $384 forward $376 $-1 #
edge $-1 $556 -32.91645184527065 $388 -29.295217023875324 $383 $557 forward 7 unknown #
edge $-1 $389 -4.9514137584272149 $556 1.0692042983031357e-014 $235 $558 forward 7 unknown #
coedge $-1 $236 $548 $554 $559 forward $387 $-1 #
loop $-1 $-1 $548 $375 #
vertex $-1 $384 $560 #
vertex $-1 $237 $561 #
straight-curve $-1 -63.646935983030346 4.0088175151118168 8.2913962549157532 1 0 0 I I #
coedge $-1 $391 $391 $-1 $562 reversed $240 $-1 #
edge $-1 $563 0 $563 6.2831853071796004 $241 $564 forward 7 unknown #
vertex $-1 $244 $565 #
ellipse-curve $-1 -50.000161119629261 6.3141568712648812 6.4807788442180874 -0.73135370988377701 0 0.68199835119979291 0.34099917559989645 0 0.36567685494188851 1 I I #
coedge $-1 $395 $395 $-1 $566 reversed $247 $-1 #
edge $-1 $567 0 $567 6.2831853071796004 $248 $568 forward 7 unknown #
vertex $-1 $251 $569 #
ellipse-curve $-1 -50.000161119629261 9.7721659054944787 6.4807788442180874 -0.73135370988377701 0 0.68199835119979291 0.34099917559989645 0 0.36567685494188851 1 I I #
face $-1 $-1 $570 $56 $-1 $571 reversed single #
loop $-1 $-1 $258 $252 #
plane-surface $-1 0 0 8.2913962549157549 0 0 1 1 0 0 forward_v I I I I #
coedge $-1 $572 $573 $574 $575 reversed $253 $-1 #
coedge $-1 $576 $255 $257 $409 forward $159 $-1 #
coedge $-1 $255 $576 $572 $577 forward $159 $-1 #
coedge $-1 $574 $258 $255 $406 forward $400 $-1 #
edge $-1 $412 3.6479085990518758 $578 9.6987665714119107 $405 $579 forward 7 unknown #
coedge $-1 $580 $581 $256 $408 forward $570 $-1 #
edge $-1 $582 -71.116510761266838 $411 -65.988615975322887 $407 $583 forward 7 unknown #
edge $-1 $412 95.228872887936774 $582 103.37717825861385 $257 $584 forward 7 unknown #
coedge $-1 $258 $574 $580 $585 forward $400 $-1 #
vertex $-1 $259 $586 #
vertex $-1 $259 $587 #
straight-curve $-1 18.203400124094333 -10.321246184283769 8.2913962549157532 -1 0 0 I I #
coedge $-1 $414 $414 $-1 $588 reversed $262 $-1 #
edge $-1 $589 0 $589 6.2831853071796004 $263 $590 forward 7 unknown #
vertex $-1 $266 $591 #
ellipse-curve $-1 48.522377849318893 -14.643287593112365 5.7274488619437758 0.62932039886446345 0 0.77714595512881146 0.38857297756440573 0 -0.31466019943223172 1 I I #
coedge $-1 $418 $418 $-1 $592 reversed $269 $-1 #
edge $-1 $593 0 $593 6.2831853071796004 $270 $594 forward 7 unknown #
vertex $-1 $273 $595 #
ellipse-curve $-1 48.522377849318893 -12.050062747815208 5.7274488619437758 0.62932039886446345 0 0.77714595512881146 0.38857297756440573 0 -0.31466019943223172 1 I I #
face $-1 $-1 $434 $59 $-1 $596 forward single #
loop $-1 $-1 $597 $274 #
plane-surface $-1 51.688589129306926 0 0 -1 0 0 0 0 1 forward_v I I I I #
coedge $-1 $598 $599 $600 $601 reversed $275 $-1 #
coedge $-1 $602 $277 $279 $432 forward $173 $-1 #
coedge $-1 $277 $602 $598 $603 forward $173 $-1 #
coedge $-1 $600 $280 $277 $429 forward $434 $-1 #
edge $-1 $436 -1.7982381661647242 $604 4.2526198061953107 $428 $605 forward 7 unknown #
coedge $-1 $606 $607 $278 $431 forward $423 $-1 #
edge $-1 $608 -71.116510761266838 $435 -65.988615975322887 $430 $609 forward 7 unknown #
edge $-1 $436 95.228872887936774 $608 103.37717825861385 $279 $610 forward 7 unknown #
coedge $-1 $280 $600 $606 $611 forward $434 $-1 #
loop $-1 $-1 $600 $422 #
vertex $-1 $431 $612 #
vertex $-1 $281 $613 #
straight-curve $-1 18.203400124094333 0.57104734614943098 8.2913962549157532 -1 0 0 I I #
coedge $-1 $438 $438 $-1 $614 reversed $284 $-1 #
edge $-1 $615 0 $615 6.2831853071796004 $285 $616 forward 7 unknown #
vertex $-1 $288 $617 #
ellipse-curve $-1 48.522377849318893 -3.7509940626791654 5.7274488619437758 0.62932039886446345 0 0.77714595512881146 0.38857297756440573 0 -0.31466019943223172 1 I I #
coedge $-1 $442 $442 $-1 $618 reversed $291 $-1 #
edge $-1 $619 0 $619 6.2831853071796004 $292 $620 forward 7 unknown #
vertex $-1 $295 $621 #
ellipse-curve $-1 48.522377849318893 -1.1577692173820076 5.7274488619437758 0.62932039886446345 0 0.77714595512881146 0.38857297756440573 0 -0.31466019943223172 1 I I #
face $-1 $-1 $458 $62 $-1 $622 forward single #
loop $-1 $-1 $623 $296 #
plane-surface $-1 51.688589129306926 0 0 -1 0 0 0 0 1 forward_v I I I I #
coedge $-1 $624 $625 $626 $627 reversed $297 $-1 #
coedge $-1 $628 $299 $301 $456 forward $187 $-1 #
coedge $-1 $299 $628 $624 $629 forward $187 $-1 #
coedge $-1 $626 $302 $299 $453 forward $458 $-1 #
edge $-1 $460 -7.2443849313813242 $630 -1.1935269590212894 $452 $631 forward 7 unknown #
coedge $-1 $632 $633 $300 $455 forward $447 $-1 #
edge $-1 $634 -71.116510761266838 $459 -65.988615975322887 $454 $635 forward 7 unknown #
edge $-1 $460 95.228872887936774 $634 103.37717825861385 $301 $636 forward 7 unknown #
coedge $-1 $302 $626 $632 $637 forward $458 $-1 #
loop $-1 $-1 $626 $446 #
vertex $-1 $455 $638 #
vertex $-1 $303 $639 #
straight-curve $-1 18.203400124094333 11.463340876582631 8.2913962549157532 -1 0 0 I I #
coedge $-1 $462 $462 $-1 $640 reversed $306 $-1 #
edge $-1 $641 0 $641 6.2831853071796004 $307 $642 forward 7 unknown #
vertex $-1 $310 $643 #
ellipse-curve $-1 48.522377849318893 7.1412994677540347 5.7274488619437758 0.62932039886446345 0 0.77714595512881146 0.38857297756440573 0 -0.31466019943223172 1 I I #
coedge $-1 $466 $466 $-1 $644 reversed $313 $-1 #
edge $-1 $645 0 $645 6.2831853071796004 $314 $646 forward 7 unknown #
vertex $-1 $317 $647 #
ellipse-curve $-1 48.522377849318893 9.7345243130511925 5.7274488619437758 0.62932039886446345 0 0.77714595512881146 0.38857297756440573 0 -0.31466019943223172 1 I I #
face $-1 $-1 $482 $65 $-1 $648 forward single #
loop $-1 $-1 $649 $318 #
plane-surface $-1 51.688589129306926 0 0 -1 0 0 0 0 1 forward_v I I I I #
coedge $-1 $650 $651 $652 $653 reversed $319 $-1 #
coedge $-1 $654 $321 $323 $480 forward $201 $-1 #
coedge $-1 $321 $654 $650 $655 forward $201 $-1 #
coedge $-1 $652 $324 $321 $477 forward $482 $-1 #
edge $-1 $484 -12.690531696597924 $656 -6.6396737242378894 $476 $657 forward 7 unknown #
coedge $-1 $658 $659 $322 $479 forward $471 $-1 #
edge $-1 $660 -71.116510761266838 $483 -65.988615975322887 $478 $661 forward 7 unknown #
edge $-1 $484 95.228872887936774 $660 103.37717825861385 $323 $662 forward 7 unknown #
coedge $-1 $324 $652 $658 $663 forward $482 $-1 #
loop $-1 $-1 $652 $470 #
vertex $-1 $479 $664 #
vertex $-1 $325 $665 #
straight-curve $-1 18.203400124094333 22.355634407015831 8.2913962549157532 -1 0 0 I I #
coedge $-1 $486 $486 $-1 $666 reversed $328 $-1 #
edge $-1 $667 0 $667 6.2831853071796004 $329 $668 forward 7 unknown #
vertex $-1 $332 $669 #
ellipse-curve $-1 48.522377849318893 18.033592998187235 5.7274488619437758 0.62932039886446345 0 0.77714595512881146 0.38857297756440573 0 -0.31466019943223172 1 I I #
coedge $-1 $490 $490 $-1 $670 reversed $335 $-1 #
edge $-1 $671 0 $671 6.2831853071796004 $336 $672 forward 7 unknown #
vertex $-1 $339 $673 #
ellipse-curve $-1 48.522377849318893 20.626817843484393 5.7274488619437758 0.62932039886446345 0 0.77714595512881146 0.38857297756440573 0 -0.31466019943223172 1 I I #
face $-1 $-1 $355 $51 $-1 $674 reversed single #
loop $-1 $-1 $510 $340 #
plane-surface $-1 0 25.435259524484106 0 0 -1 0 0 0 -1 forward_v I I I I #
coedge $-1 $675 $508 $511 $676 forward $341 $-1 #
coedge $-1 $514 $343 $344 $502 reversed $215 $-1 #
coedge $-1 $508 $675 $343 $500 reversed $341 $-1 #
edge $-1 $515 -8.2913962549157549 $677 8.2913962549157549 $499 $678 forward 7 unknown #
coedge $-1 $345 $344 $675 $679 forward $137 $-1 #
edge $-1 $506 -51.688589129306926 $677 51.688589129306926 $498 $680 forward 7 unknown #
coedge $-1 $511 $510 $345 $504 reversed $495 $-1 #
edge $-1 $681 -51.688589129306926 $505 51.688589129306926 $503 $682 forward 7 unknown #
vertex $-1 $347 $683 #
vertex $-1 $517 $684 #
straight-curve $-1 51.688589129306926 0 -8.2913962549157549 0 -1 0 I I #
coedge $-1 $497 $499 $348 $509 reversed $341 $-1 #
edge $-1 $512 -25.435259524484106 $515 25.435259524484106 $508 $685 forward 7 unknown #
coedge $-1 $503 $349 $354 $518 forward $495 $-1 #
coedge $-1 $349 $503 $497 $676 reversed $495 $-1 #
vertex $-1 $350 $686 #
straight-curve $-1 0 25.435259524484106 8.2913962549157549 -1 0 0 I I #
coedge $-1 $351 $498 $353 $517 reversed $215 $-1 #
vertex $-1 $509 $687 #
straight-curve $-1 0 -25.435259524484106 8.2913962549157549 1 0 0 I I #
edge $-1 $356 -8.2913962549157549 $506 8.2913962549157549 $353 $688 forward 7 unknown #
edge $-1 $357 -8.2913962549157549 $505 8.2913962549157549 $354 $689 forward 7 unknown #
point $-1 51.688589129306926 -25.435259524484106 8.2913962549157549 #
point $-1 51.688589129306926 25.435259524484106 8.2913962549157549 #
face $-1 $-1 $531 $52 $-1 $690 reversed single #
loop $-1 $-1 $527 $359 #
plane-surface $-1 0 0 -8.2913962549157549 0 0 1 1 0 0 forward_v I I I I #
coedge $-1 $691 $692 $367 $535 forward $360 $-1 #
coedge $-1 $362 $539 $529 $693 forward $223 $-1 #
edge $-1 $533 -14.21351232483506 $372 -8.2299820744630328 $362 $694 forward 7 unknown #
coedge $-1 $695 $368 $363 $528 forward $522 $-1 #
edge $-1 $373 8.2299820744630328 $532 14.21351232483506 $527 $696 forward 7 unknown #
coedge $-1 $697 $365 $525 $693 reversed $531 $-1 #
coedge $-1 $365 $697 $695 $698 reversed $531 $-1 #
loop $-1 $-1 $365 $521 #
vertex $-1 $698 $699 #
vertex $-1 $366 $700 #
straight-curve $-1 -48.411454423736878 -25.435259524484106 0 0 0 1 I I #
edge $-1 $540 -8.2913962549157549 $537 8.2913962549157549 $524 $701 forward 7 unknown #
coedge $-1 $368 $695 $691 $702 forward $522 $-1 #
vertex $-1 $369 $703 #
straight-curve $-1 -25.025010888260951 -19.451729274112079 -8.2913962549157549 1 0 0 I I #
coedge $-1 $525 $370 $692 $704 forward $223 $-1 #
vertex $-1 $704 $705 #
straight-curve $-1 -25.025010888260951 -19.451729274112079 8.2913962549157549 -1 0 0 I I #
point $-1 -48.411454423736878 -19.451729274112079 8.2913962549157549 #
point $-1 -48.411454423736878 -19.451729274112079 -8.2913962549157549 #
plane-surface $-1 0 0 8.2913962549157549 0 0 1 1 0 0 forward_v I I I I #
coedge $-1 $555 $554 $547 $706 forward $376 $-1 #
coedge $-1 $547 $378 $380 $551 reversed $231 $-1 #
coedge $-1 $378 $546 $545 $706 reversed $231 $-1 #
coedge $-1 $386 $381 $378 $549 forward $387 $-1 #
edge $-1 $552 -15.335202873078757 $707 -11.95834685372342 $548 $708 forward 7 unknown #
coedge $-1 $380 $379 $555 $709 reversed $145 $-1 #
edge $-1 $710 -1.0692042983031357e-014 $552 4.9514137584272149 $546 $711 forward 7 unknown #
vertex $-1 $382 $712 #
straight-curve $-1 -48.311733109951597 4.0215806941898418 8.2913962549157549 0 1 0 I I #
coedge $-1 $545 $383 $386 $559 reversed $376 $-1 #
coedge $-1 $383 $545 $550 $709 forward $376 $-1 #
vertex $-1 $384 $713 #
straight-curve $-1 -51.688589129306926 4.0088175151118168 37.586613278791077 0 0 1 I I #
straight-curve $-1 -51.688589129306919 4.0088175151118168 4.670161433520434 -0.68199835119979291 0 -0.73135370988377701 I I #
edge $-1 $707 -12.07750526164755 $388 -4.0088175151118168 $554 $714 forward 7 unknown #
point $-1 -51.688589129306926 4.0088175151118168 8.2913962549157549 #
point $-1 -48.311733109951589 4.0088175151118168 8.2913962549157549 #
edge $-1 $715 1 $715 0 $391 $-1 forward 7 unknown #
vertex $-1 $392 $716 #
ellipse-curve $-1 -49.268807409745477 6.3141568712648812 5.7987804930182971 -0.73135370988377701 0 0.68199835119979291 0.34099917559989645 0 0.36567685494188851 1 I I #
point $-1 -49.659161944029364 6.3141568712648812 6.8464556991599785 #
edge $-1 $717 1 $717 0 $395 $-1 forward 7 unknown #
vertex $-1 $396 $718 #
ellipse-curve $-1 -49.268807409745477 9.7721659054944787 5.7987804930182971 -0.73135370988377701 0 0.68199835119979291 0.34099917559989645 0 0.36567685494188851 1 I I #
point $-1 -49.659161944029364 9.7721659054944787 6.8464556991599785 #
loop $-1 $-1 $407 $399 #
plane-surface $-1 51.688589129306926 0 0 -1 0 0 0 0 1 forward_v I I I I #
coedge $-1 $573 $402 $404 $577 reversed $253 $-1 #
coedge $-1 $402 $572 $719 $720 reversed $253 $-1 #
coedge $-1 $410 $405 $402 $575 forward $400 $-1 #
edge $-1 $578 27.152766445236526 $721 33.48518900521259 $574 $722 forward 7 unknown #
coedge $-1 $404 $403 $581 $723 reversed $159 $-1 #
edge $-1 $724 -103.37717825861385 $578 -95.228872887936774 $572 $725 forward 7 unknown #
vertex $-1 $406 $726 #
straight-curve $-1 45.356166569330867 -6.6733375852318932 8.2913962549157532 0 -1 0 I I #
coedge $-1 $719 $407 $410 $585 reversed $570 $-1 #
coedge $-1 $407 $719 $576 $723 forward $570 $-1 #
vertex $-1 $408 $727 #
straight-curve $-1 51.688589129306926 -10.321246184283769 74.28001223023864 0 0 1 I I #
straight-curve $-1 -28.650566807004942 -10.321246184283769 68.220868524165411 0.77714595512881146 0 -0.62932039886446345 I I #
edge $-1 $721 -16.372104156643804 $411 -10.321246184283769 $580 $728 forward 7 unknown #
point $-1 51.688589129306926 -10.321246184283769 8.2913962549157549 #
point $-1 45.35616656933086 -10.321246184283769 8.2913962549157532 #
edge $-1 $729 1 $729 0 $414 $-1 forward 7 unknown #
vertex $-1 $415 $730 #
ellipse-curve $-1 47.587203165597217 -14.643287593112365 4.5726043278963688 0.62932039886446345 0 0.77714595512881146 0.38857297756440573 0 -0.31466019943223172 1 I I #
point $-1 48.910950826883308 -14.643287593112365 5.4127886625115655 #
edge $-1 $731 1 $731 0 $418 $-1 forward 7 unknown #
vertex $-1 $419 $732 #
ellipse-curve $-1 47.587203165597217 -12.050062747815208 4.5726043278963688 0.62932039886446345 0 0.77714595512881146 0.38857297756440573 0 -0.31466019943223172 1 I I #
point $-1 48.910950826883308 -12.050062747815208 5.4127886625115655 #
plane-surface $-1 0 0 8.2913962549157549 0 0 1 1 0 0 forward_v I I I I #
coedge $-1 $607 $606 $599 $733 forward $423 $-1 #
coedge $-1 $599 $425 $427 $603 reversed $275 $-1 #
coedge $-1 $425 $598 $597 $733 reversed $275 $-1 #
coedge $-1 $433 $428 $425 $601 forward $434 $-1 #
edge $-1 $604 27.152766445236526 $734 33.48518900521259 $600 $735 forward 7 unknown #
coedge $-1 $427 $426 $607 $736 reversed $173 $-1 #
edge $-1 $737 -103.37717825861385 $604 -95.228872887936774 $598 $738 forward 7 unknown #
vertex $-1 $429 $739 #
straight-curve $-1 45.356166569330867 -1.2271908200152932 8.2913962549157532 0 -1 0 I I #
coedge $-1 $597 $430 $433 $611 reversed $423 $-1 #
coedge $-1 $430 $597 $602 $736 forward $423 $-1 #
vertex $-1 $431 $740 #
straight-curve $-1 51.688589129306926 0.57104734614943098 74.28001223023864 0 0 1 I I #
straight-curve $-1 -28.650566807004942 0.57104734614943098 68.220868524165411 0.77714595512881146 0 -0.62932039886446345 I I #
edge $-1 $734 -5.4798106262106039 $435 0.57104734614943098 $606 $741 forward 7 unknown #
point $-1 51.688589129306926 0.57104734614943098 8.2913962549157549 #
point $-1 45.35616656933086 0.57104734614943098 8.2913962549157532 #
edge $-1 $742 1 $742 0 $438 $-1 forward 7 unknown #
vertex $-1 $439 $743 #
ellipse-curve $-1 47.587203165597217 -3.7509940626791654 4.5726043278963688 0.62932039886446345 0 0.77714595512881146 0.38857297756440573 0 -0.31466019943223172 1 I I #
point $-1 48.910950826883308 -3.7509940626791654 5.4127886625115655 #
edge $-1 $744 1 $744 0 $442 $-1 forward 7 unknown #
vertex $-1 $443 $745 #
ellipse-curve $-1 47.587203165597217 -1.1577692173820076 4.5726043278963688 0.62932039886446345 0 0.77714595512881146 0.38857297756440573 0 -0.31466019943223172 1 I I #
point $-1 48.910950826883308 -1.1577692173820076 5.4127886625115655 #
plane-surface $-1 0 0 8.2913962549157549 0 0 1 1 0 0 forward_v I I I I #
coedge $-1 $633 $632 $625 $746 forward $447 $-1 #
coedge $-1 $625 $449 $451 $629 reversed $297 $-1 #
coedge $-1 $449 $624 $623 $746 reversed $297 $-1 #
coedge $-1 $457 $452 $449 $627 forward $458 $-1 #
edge $-1 $630 27.152766445236526 $747 33.48518900521259 $626 $748 forward 7 unknown #
coedge $-1 $451 $450 $633 $749 reversed $187 $-1 #
edge $-1 $750 -103.37717825861385 $630 -95.228872887936774 $624 $751 forward 7 unknown #
vertex $-1 $453 $752 #
straight-curve $-1 45.356166569330867 4.2189559452013068 8.2913962549157532 0 -1 0 I I #
coedge $-1 $623 $454 $457 $637 reversed $447 $-1 #
coedge $-1 $454 $623 $628 $749 forward $447 $-1 #
vertex $-1 $455 $753 #
straight-curve $-1 51.688589129306926 11.463340876582631 74.28001223023864 0 0 1 I I #
straight-curve $-1 -28.650566807004942 11.463340876582631 68.220868524165411 0.77714595512881146 0 -0.62932039886446345 I I #
edge $-1 $747 5.4124829042225961 $459 11.463340876582631 $632 $754 forward 7 unknown #
point $-1 51.688589129306926 11.463340876582631 8.2913962549157549 #
point $-1 45.35616656933086 11.463340876582631 8.2913962549157532 #
edge $-1 $755 1 $755 0 $462 $-1 forward 7 unknown #
vertex $-1 $463 $756 #
ellipse-curve $-1 47.587203165597217 7.1412994677540347 4.5726043278963688 0.62932039886446345 0 0.77714595512881146 0.38857297756440573 0 -0.31466019943223172 1 I I #
point $-1 48.910950826883308 7.1412994677540347 5.4127886625115655 #
edge $-1 $757 1 $757 0 $466 $-1 forward 7 unknown #
vertex $-1 $467 $758 #
ellipse-curve $-1 47.587203165597217 9.7345243130511925 4.5726043278963688 0.62932039886446345 0 0.77714595512881146 0.38857297756440573 0 -0.31466019943223172 1 I I #
point $-1 48.910950826883308 9.7345243130511925 5.4127886625115655 #
plane-surface $-1 0 0 8.2913962549157549 0 0 1 1 0 0 forward_v I I I I #
coedge $-1 $659 $658 $651 $759 forward $471 $-1 #
coedge $-1 $651 $473 $475 $655 reversed $319 $-1 #
coedge $-1 $473 $650 $649 $759 reversed $319 $-1 #
coedge $-1 $481 $476 $473 $653 forward $482 $-1 #
edge $-1 $656 27.152766445236526 $760 33.48518900521259 $652 $761 forward 7 unknown #
coedge $-1 $475 $474 $659 $762 reversed $201 $-1 #
edge $-1 $763 -103.37717825861385 $656 -95.228872887936774 $650 $764 forward 7 unknown #
vertex $-1 $477 $765 #
straight-curve $-1 45.356166569330867 9.6651027104179068 8.2913962549157532 0 -1 0 I I #
coedge $-1 $649 $478 $481 $663 reversed $471 $-1 #
coedge $-1 $478 $649 $654 $762 forward $471 $-1 #
vertex $-1 $479 $766 #
straight-curve $-1 51.688589129306926 22.355634407015831 74.28001223023864 0 0 1 I I #
straight-curve $-1 -28.650566807004942 22.355634407015831 68.220868524165411 0.77714595512881146 0 -0.62932039886446345 I I #
edge $-1 $760 16.304776434655796 $483 22.355634407015831 $658 $767 forward 7 unknown #
point $-1 51.688589129306926 22.355634407015831 8.2913962549157549 #
point $-1 45.35616656933086 22.355634407015831 8.2913962549157532 #
edge $-1 $768 1 $768 0 $486 $-1 forward 7 unknown #
vertex $-1 $487 $769 #
ellipse-curve $-1 47.587203165597217 18.033592998187235 4.5726043278963688 0.62932039886446345 0 0.77714595512881146 0.38857297756440573 0 -0.31466019943223172 1 I I #
point $-1 48.910950826883308 18.033592998187235 5.4127886625115655 #
edge $-1 $770 1 $770 0 $490 $-1 forward 7 unknown #
vertex $-1 $491 $771 #
ellipse-curve $-1 47.587203165597217 20.626817843484393 4.5726043278963688 0.62932039886446345 0 0.77714595512881146 0.38857297756440573 0 -0.31466019943223172 1 I I #
point $-1 48.910950826883308 20.626817843484393 5.4127886625115655 #
plane-surface $-1 51.688589129306926 0 0 -1 0 0 0 0 1 forward_v I I I I #
coedge $-1 $499 $497 $501 $679 reversed $341 $-1 #
edge $-1 $512 -8.2913962549157549 $681 8.2913962549157549 $511 $772 forward 7 unknown #
vertex $-1 $679 $773 #
straight-curve $-1 -51.688589129306926 -25.435259524484106 0 0 0 -1 I I #
edge $-1 $677 -25.435259524484106 $681 25.435259524484106 $675 $774 forward 7 unknown #
straight-curve $-1 0 -25.435259524484106 -8.2913962549157549 -1 0 0 I I #
vertex $-1 $504 $775 #
straight-curve $-1 0 25.435259524484106 -8.2913962549157549 1 0 0 I I #
point $-1 51.688589129306926 25.435259524484106 -8.2913962549157549 #
point $-1 51.688589129306926 -25.435259524484106 -8.2913962549157549 #
straight-curve $-1 -51.688589129306926 0 8.2913962549157549 0 -1 0 I I #
point $-1 -51.688589129306926 25.435259524484106 8.2913962549157549 #
point $-1 -51.688589129306926 -25.435259524484106 8.2913962549157549 #
straight-curve $-1 51.688589129306926 -25.435259524484106 0 0 0 -1 I I #
straight-curve $-1 51.688589129306926 25.435259524484106 0 0 0 -1 I I #
plane-surface $-1 0 -25.435259524484106 0 0 1 0 0 0 1 forward_v I I I I #
coedge $-1 $776 $524 $536 $702 reversed $360 $-1 #
coedge $-1 $524 $776 $539 $704 reversed $360 $-1 #
edge $-1 $777 -51.688589129306926 $533 -48.411454423736878 $529 $778 forward 7 unknown #
straight-curve $-1 -48.411454423736878 -11.221747199649046 8.2913962549157549 0 1 0 I I #
coedge $-1 $536 $527 $530 $698 forward $522 $-1 #
straight-curve $-1 -48.411454423736878 -11.221747199649046 -8.2913962549157549 0 -1 0 I I #
coedge $-1 $530 $529 $776 $779 forward $531 $-1 #
edge $-1 $532 48.411454423736878 $780 51.688589129306926 $530 $781 forward 7 unknown #
point $-1 -48.411454423736878 -25.435259524484106 -8.2913962549157549 #
point $-1 -48.411454423736878 -25.435259524484106 8.2913962549157549 #
straight-curve $-1 -51.688589129306926 -19.451729274112079 0 0 0 -1 I I #
edge $-1 $780 -25.435259524484106 $537 -19.451729274112079 $691 $782 forward 7 unknown #
point $-1 -51.688589129306926 -19.451729274112079 -8.2913962549157549 #
edge $-1 $540 19.451729274112079 $777 25.435259524484106 $692 $783 forward 7 unknown #
point $-1 -51.688589129306926 -19.451729274112079 8.2913962549157549 #
edge $-1 $707 29.295217023875324 $710 32.91645184527065 $545 $784 forward 7 unknown #
vertex $-1 $559 $785 #
straight-curve $-1 -63.646935983030346 12.07750526164755 8.2913962549157532 -1 0 0 I I #
edge $-1 $710 -8.0559245674577085 $556 0.012763179078024933 $555 $786 forward 7 unknown #
vertex $-1 $709 $787 #
straight-curve $-1 -51.688589129306919 12.07750526164755 4.670161433520434 0.68199835119979291 0 0.73135370988377701 I I #
point $-1 -48.311733109951589 12.07750526164755 8.2913962549157549 #
point $-1 -51.688589129306926 4.0088175151118168 4.670161433520426 #
straight-curve $-1 -51.688589129306926 0 8.2913962549157549 0 -1 0 I I #
vertex $-1 $562 $788 #
point $-1 -48.927808234145587 6.3141568712648812 6.1644573479601856 #
vertex $-1 $566 $789 #
point $-1 -48.927808234145587 9.7721659054944787 6.1644573479601856 #
coedge $-1 $581 $580 $573 $720 forward $570 $-1 #
edge $-1 $721 65.988615975322887 $724 71.116510761266838 $719 $790 forward 7 unknown #
vertex $-1 $585 $791 #
straight-curve $-1 18.203400124094333 -16.372104156643804 8.2913962549157532 1 0 0 I I #
edge $-1 $724 -9.6987665714119107 $582 -3.6479085990518758 $581 $792 forward 7 unknown #
vertex $-1 $723 $793 #
straight-curve $-1 -28.650566807004942 -16.372104156643804 68.220868524165411 -0.77714595512881146 0 0.62932039886446345 I I #
point $-1 45.35616656933086 -16.372104156643804 8.2913962549157532 #
point $-1 51.688589129306926 -10.321246184283769 3.163501468971802 #
straight-curve $-1 51.688589129306926 0 8.2913962549157549 0 1 0 I I #
vertex $-1 $588 $794 #
point $-1 47.975776143161625 -14.643287593112365 4.2579441284641373 #
vertex $-1 $592 $795 #
point $-1 47.975776143161625 -12.050062747815208 4.2579441284641373 #
edge $-1 $734 65.988615975322887 $737 71.116510761266838 $597 $796 forward 7 unknown #
vertex $-1 $611 $797 #
straight-curve $-1 18.203400124094333 -5.4798106262106039 8.2913962549157532 1 0 0 I I #
edge $-1 $737 -4.2526198061953107 $608 1.7982381661647242 $607 $798 forward 7 unknown #
vertex $-1 $736 $799 #
straight-curve $-1 -28.650566807004942 -5.4798106262106039 68.220868524165411 -0.77714595512881146 0 0.62932039886446345 I I #
point $-1 45.35616656933086 -5.4798106262106039 8.2913962549157532 #
point $-1 51.688589129306926 0.57104734614943098 3.163501468971802 #
straight-curve $-1 51.688589129306926 0 8.2913962549157549 0 1 0 I I #
vertex $-1 $614 $800 #
point $-1 47.975776143161625 -3.7509940626791654 4.2579441284641373 #
vertex $-1 $618 $801 #
point $-1 47.975776143161625 -1.1577692173820076 4.2579441284641373 #
edge $-1 $747 65.988615975322887 $750 71.116510761266838 $623 $802 forward 7 unknown #
vertex $-1 $637 $803 #
straight-curve $-1 18.203400124094333 5.4124829042225961 8.2913962549157532 1 0 0 I I #
edge $-1 $750 1.1935269590212894 $634 7.2443849313813242 $633 $804 forward 7 unknown #
vertex $-1 $749 $805 #
straight-curve $-1 -28.650566807004942 5.4124829042225961 68.220868524165411 -0.77714595512881146 0 0.62932039886446345 I I #
point $-1 45.35616656933086 5.4124829042225961 8.2913962549157532 #
point $-1 51.688589129306926 11.463340876582631 3.163501468971802 #
straight-curve $-1 51.688589129306926 0 8.2913962549157549 0 1 0 I I #
vertex $-1 $640 $806 #
point $-1 47.975776143161625 7.1412994677540347 4.2579441284641373 #
vertex $-1 $644 $807 #
point $-1 47.975776143161625 9.7345243130511925 4.2579441284641373 #
edge $-1 $760 65.988615975322887 $763 71.116510761266838 $649 $808 forward 7 unknown #
vertex $-1 $663 $809 #
straight-curve $-1 18.203400124094333 16.304776434655796 8.2913962549157532 1 0 0 I I #
edge $-1 $763 6.6396737242378894 $660 12.690531696597924 $659 $810 forward 7 unknown #
vertex $-1 $762 $811 #
straight-curve $-1 -28.650566807004942 16.304776434655796 68.220868524165411 -0.77714595512881146 0 0.62932039886446345 I I #
point $-1 45.35616656933086 16.304776434655796 8.2913962549157532 #
point $-1 51.688589129306926 22.355634407015831 3.163501468971802 #
straight-curve $-1 51.688589129306926 0 8.2913962549157549 0 1 0 I I #
vertex $-1 $666 $812 #
point $-1 47.975776143161625 18.033592998187235 4.2579441284641373 #
vertex $-1 $670 $813 #
point $-1 47.975776143161625 20.626817843484393 4.2579441284641373 #
straight-curve $-1 -51.688589129306926 25.435259524484106 0 0 0 -1 I I #
point $-1 -51.688589129306926 -25.435259524484106 -8.2913962549157549 #
straight-curve $-1 -51.688589129306926 0 -8.2913962549157549 0 1 0 I I #
point $-1 -51.688589129306926 25.435259524484106 -8.2913962549157549 #
coedge $-1 $692 $691 $697 $779 reversed $360 $-1 #
vertex $-1 $704 $814 #
straight-curve $-1 0 -25.435259524484106 8.2913962549157549 1 0 0 I I #
edge $-1 $777 -8.2913962549157549 $780 8.2913962549157549 $776 $815 forward 7 unknown #
vertex $-1 $702 $816 #
straight-curve $-1 0 -25.435259524484106 -8.2913962549157549 -1 0 0 I I #
straight-curve $-1 -51.688589129306926 0 -8.2913962549157549 0 1 0 I I #
straight-curve $-1 -51.688589129306926 0 8.2913962549157549 0 -1 0 I I #
straight-curve $-1 -51.688589129306926 12.07750526164755 37.586613278791077 0 0 -1 I I #
point $-1 -51.688589129306926 12.07750526164755 8.2913962549157549 #
straight-curve $-1 -51.688589129306926 4.0215806941898418 4.6701614335204198 0 -1 0 I I #
point $-1 -51.688589129306926 12.07750526164755 4.670161433520426 #
point $-1 -48.903130554803596 6.3141568712648812 5.4577813174183998 #
point $-1 -48.903130554803596 9.7721659054944787 5.4577813174183998 #
straight-curve $-1 51.688589129306926 -16.372104156643804 74.28001223023864 0 0 -1 I I #
point $-1 51.688589129306926 -16.372104156643804 8.2913962549157549 #
straight-curve $-1 51.688589129306919 -6.6733375852318932 3.1635014689718091 0 1 0 I I #
point $-1 51.688589129306926 -16.372104156643804 3.163501468971802 #
point $-1 47.272542966164991 -14.643287593112365 4.1840313503319626 #
point $-1 47.272542966164991 -12.050062747815208 4.1840313503319626 #
straight-curve $-1 51.688589129306926 -5.4798106262106039 74.28001223023864 0 0 -1 I I #
point $-1 51.688589129306926 -5.4798106262106039 8.2913962549157549 #
straight-curve $-1 51.688589129306919 -1.2271908200152932 3.1635014689718091 0 1 0 I I #
point $-1 51.688589129306926 -5.4798106262106039 3.163501468971802 #
point $-1 47.272542966164991 -3.7509940626791654 4.1840313503319626 #
point $-1 47.272542966164991 -1.1577692173820076 4.1840313503319626 #
straight-curve $-1 51.688589129306926 5.4124829042225961 74.28001223023864 0 0 -1 I I #
point $-1 51.688589129306926 5.4124829042225961 8.2913962549157549 #
straight-curve $-1 51.688589129306919 4.2189559452013068 3.1635014689718091 0 1 0 I I #
point $-1 51.688589129306926 5.4124829042225961 3.163501468971802 #
point $-1 47.272542966164991 7.1412994677540347 4.1840313503319626 #
point $-1 47.272542966164991 9.7345243130511925 4.1840313503319626 #
straight-curve $-1 51.688589129306926 16.304776434655796 74.28001223023864 0 0 -1 I I #
point $-1 51.688589129306926 16.304776434655796 8.2913962549157549 #
straight-curve $-1 51.688589129306919 9.6651027104179068 3.1635014689718091 0 1 0 I I #
point $-1 51.688589129306926 16.304776434655796 3.163501468971802 #
point $-1 47.272542966164991 18.033592998187235 4.1840313503319626 #
point $-1 47.272542966164991 20.626817843484393 4.1840313503319626 #
point $-1 -51.688589129306926 -25.435259524484106 8.2913962549157549 #
straight-curve $-1 -51.688589129306926 -25.435259524484106 0 0 0 -1 I I #
point $-1 -51.688589129306926 -25.435259524484106 -8.2913962549157549 #
End-of-ACIS-data 