500 0 6 0           
7 Unknown 11 ACIS 5.0 NT 24 Fri Mar 26 02:16:25 1999 
-1 9.9999999999999995e-007 1e-010 
body $-1 $6 $-1 $7 #
body $-1 $8 $-1 $9 #
body $-1 $10 $-1 $11 #
body $-1 $12 $-1 $13 #
body $-1 $14 $-1 $15 #
body $-1 $16 $-1 $17 #
lump $-1 $-1 $18 $0 #
transform $-1 1 0 0 0 1 0 0 0 1 55.249488814966277 31.502848117753302 14.371305693660585 1 rotate no_reflect no_shear #
lump $-1 $-1 $19 $1 #
transform $-1 1 0 0 0 1 0 0 0 1 55.249488814966277 31.502848117753302 14.371305693660585 1 rotate no_reflect no_shear #
lump $-1 $-1 $20 $2 #
transform $-1 1 0 0 0 1 0 0 0 1 55.249488814966277 31.502848117753302 14.371305693660585 1 rotate no_reflect no_shear #
lump $-1 $-1 $21 $3 #
transform $-1 1 0 0 0 1 0 0 0 1 55.249488814966277 31.502848117753302 14.371305693660585 1 rotate no_reflect no_shear #
lump $-1 $-1 $22 $4 #
transform $-1 1 0 0 0 1 0 0 0 1 55.249488814966277 31.502848117753302 14.371305693660585 1 rotate no_reflect no_shear #
lump $-1 $-1 $23 $5 #
transform $-1 1 0 0 0 1 0 0 0 1 55.249488814966277 31.502848117753302 14.371305693660585 1 rotate no_reflect no_shear #
shell $-1 $-1 $-1 $24 $-1 $6 #
shell $-1 $-1 $-1 $25 $-1 $8 #
shell $-1 $-1 $-1 $26 $-1 $10 #
shell $-1 $-1 $-1 $27 $-1 $12 #
shell $-1 $-1 $-1 $28 $-1 $14 #
shell $-1 $-1 $-1 $29 $-1 $16 #
face $-1 $30 $31 $18 $-1 $32 forward single #
face $-1 $33 $34 $19 $-1 $35 forward single #
face $-1 $36 $37 $20 $-1 $38 reversed single #
face $-1 $39 $40 $21 $-1 $41 forward single #
face $-1 $42 $43 $22 $-1 $44 forward single #
face $-1 $45 $46 $23 $-1 $47 forward single #
face $-1 $48 $49 $18 $-1 $50 reversed single #
loop $-1 $-1 $51 $24 #
plane-surface $-1 0 0 14.371305693660585 0 0 1 1 0 0 forward_v I I I I #
face $-1 $52 $53 $19 $-1 $54 reversed single #
loop $-1 $-1 $55 $25 #
plane-surface $-1 0 -25.044049922274034 -7.6134104823485629 0 0 1 1 0 0 forward_v I I I I #
face $-1 $56 $57 $20 $-1 $58 reversed single #
loop $-1 $-1 $59 $26 #
plane-surface $-1 21.25014652631419 83.864581437769715 117.35837978592903 1 0 0 0 -0.80901700255871778 -0.5877852410284794 forward_v I I I I #
face $-1 $60 $61 $21 $-1 $62 forward single #
loop $-1 $63 $64 $27 #
cone-surface $-1 24.611012369557194 26.174511824132203 7.4464388043976282 0 -0.80901700255871778 -0.5877852410284794 0.5 0 0 1 I I 0 1 0.5 forward I I I I #
face $-1 $65 $66 $22 $-1 $67 forward single #
loop $-1 $68 $69 $28 #
cone-surface $-1 29.652311134421687 26.174511824132203 7.4464388043976282 0 -0.80901700255871778 -0.5877852410284794 0.5 0 0 1 I I 0 1 0.5 forward I I I I #
face $-1 $70 $71 $23 $-1 $72 forward single #
loop $-1 $73 $74 $29 #
cone-surface $-1 34.693609899286194 26.174511824132203 7.4464388043976282 0 -0.80901700255871778 -0.5877852410284794 0.5 0 0 1 I I 0 1 0.5 forward I I I I #
face $-1 $75 $76 $18 $-1 $77 reversed single #
loop $-1 $-1 $78 $30 #
plane-surface $-1 0 0 -14.371305693660585 0 0 1 1 0 0 forward_v I I I I #
coedge $-1 $79 $80 $81 $82 forward $31 $-1 #
face $-1 $83 $84 $19 $-1 $85 reversed single #
loop $-1 $-1 $86 $33 #
plane-surface $-1 0 -18.585251726794766 -10.992358088004574 0 -1 0 0 0 -1 forward_v I I I I #
coedge $-1 $87 $88 $89 $90 reversed $34 $-1 #
face $-1 $91 $92 $20 $-1 $93 reversed single #
loop $-1 $-1 $94 $36 #
plane-surface $-1 29.652311134421687 -5.5309702302011345 52.408711586318574 0 0.80901700255871778 0.5877852410284794 1 0 0 forward_v I I I I #
coedge $-1 $95 $96 $97 $98 reversed $37 $-1 #
face $-1 $-1 $99 $21 $-1 $100 forward single #
loop $-1 $101 $102 $39 #
cone-surface $-1 24.611012369557194 25.342934340415979 6.8422624148358757 0 -0.80901700255871778 -0.5877852410284794 0.25 0 0 1 I I -0.70710678118654746 0.70710678118654746 0.25 forward I I I I #
loop $-1 $-1 $103 $27 #
coedge $-1 $64 $64 $104 $105 reversed $40 $-1 #
face $-1 $-1 $106 $22 $-1 $107 forward single #
loop $-1 $108 $109 $42 #
cone-surface $-1 29.652311134421687 25.342934340415979 6.8422624148358757 0 -0.80901700255871778 -0.5877852410284794 0.25 0 0 1 I I -0.70710678118654746 0.70710678118654746 0.25 forward I I I I #
loop $-1 $-1 $110 $28 #
coedge $-1 $69 $69 $111 $112 reversed $43 $-1 #
face $-1 $-1 $113 $23 $-1 $114 forward single #
loop $-1 $115 $116 $45 #
cone-surface $-1 34.693609899286194 25.342934340415979 6.8422624148358757 0 -0.80901700255871778 -0.5877852410284794 0.25 0 0 1 I I -0.70710678118654746 0.70710678118654746 0.25 forward I I I I #
loop $-1 $-1 $117 $29 #
coedge $-1 $74 $74 $118 $119 reversed $46 $-1 #
face $-1 $120 $121 $18 $-1 $122 reversed single #
loop $-1 $-1 $123 $48 #
plane-surface $-1 0 -31.502848117753302 0 0 1 0 0 0 1 forward_v I I I I #
coedge $-1 $124 $125 $126 $127 forward $49 $-1 #
coedge $-1 $128 $51 $129 $130 forward $31 $-1 #
coedge $-1 $51 $128 $131 $132 forward $31 $-1 #
coedge $-1 $133 $134 $51 $82 reversed $135 $-1 #
edge $-1 $136 -31.502848117753302 $137 31.502848117753302 $81 $138 forward 7 unknown #
face $-1 $139 $140 $19 $-1 $141 reversed single #
loop $-1 $-1 $142 $52 #
plane-surface $-1 0 0 -14.371305693660585 0 0 1 1 0 0 forward_v I I I I #
coedge $-1 $143 $144 $145 $146 reversed $53 $-1 #
coedge $-1 $147 $55 $144 $148 forward $34 $-1 #
coedge $-1 $55 $147 $149 $150 reversed $34 $-1 #
coedge $-1 $151 $145 $55 $90 forward $140 $-1 #
edge $-1 $152 6.063226765657749 $153 18.980823156616285 $89 $154 forward 7 unknown #
face $-1 $155 $156 $20 $-1 $157 reversed single #
loop $-1 $-1 $158 $56 #
plane-surface $-1 38.054475742529185 83.864581437769715 117.35837978592903 -1 0 0 0 0.80901700255871778 0.5877852410284794 forward_v I I I I #
coedge $-1 $159 $160 $161 $162 reversed $57 $-1 #
coedge $-1 $96 $59 $163 $164 reversed $37 $-1 #
coedge $-1 $59 $95 $159 $165 reversed $37 $-1 #
coedge $-1 $161 $166 $59 $98 forward $167 $-1 #
edge $-1 $168 10.429442601131555 $169 19.827468722220694 $97 $170 forward 7 unknown #
loop $-1 $-1 $104 $60 #
plane-surface $-1 29.652311134421687 -5.5309702302011345 52.408711586318574 0 0.80901700255871778 0.5877852410284794 1 0 0 forward_v I I I I #
loop $-1 $-1 $171 $39 #
coedge $-1 $102 $102 $103 $172 reversed $61 $-1 #
coedge $-1 $103 $103 $102 $172 forward $63 $-1 #
coedge $-1 $104 $104 $64 $105 forward $99 $-1 #
edge $-1 $173 6.2804293532057701e-016 $173 6.2831853071796013 $104 $174 forward 7 unknown #
loop $-1 $-1 $111 $65 #
plane-surface $-1 29.652311134421687 -5.5309702302011345 52.408711586318574 0 0.80901700255871778 0.5877852410284794 1 0 0 forward_v I I I I #
loop $-1 $-1 $175 $42 #
coedge $-1 $109 $109 $110 $176 reversed $66 $-1 #
coedge $-1 $110 $110 $109 $176 forward $68 $-1 #
coedge $-1 $111 $111 $69 $112 forward $106 $-1 #
edge $-1 $177 6.2804293532057701e-016 $177 6.2831853071796013 $111 $178 forward 7 unknown #
loop $-1 $-1 $118 $70 #
plane-surface $-1 29.652311134421687 -5.5309702302011345 52.408711586318574 0 0.80901700255871778 0.5877852410284794 1 0 0 forward_v I I I I #
loop $-1 $-1 $179 $45 #
coedge $-1 $116 $116 $117 $180 reversed $71 $-1 #
coedge $-1 $117 $117 $116 $180 forward $73 $-1 #
coedge $-1 $118 $118 $74 $119 forward $113 $-1 #
edge $-1 $181 6.2804293532057701e-016 $181 6.2831853071796013 $118 $182 forward 7 unknown #
face $-1 $183 $184 $18 $-1 $185 reversed single #
loop $-1 $-1 $186 $75 #
plane-surface $-1 -55.249488814966277 0 0 1 0 0 0 0 -1 forward_v I I I I #
coedge $-1 $187 $131 $188 $189 forward $76 $-1 #
coedge $-1 $190 $78 $187 $191 forward $49 $-1 #
coedge $-1 $78 $190 $192 $193 forward $49 $-1 #
coedge $-1 $134 $133 $78 $127 reversed $135 $-1 #
edge $-1 $194 -31.502848117753302 $195 31.502848117753302 $126 $196 forward 7 unknown #
coedge $-1 $80 $79 $197 $198 forward $31 $-1 #
coedge $-1 $199 $200 $79 $130 reversed $184 $-1 #
edge $-1 $137 -55.249488814966277 $201 55.249488814966277 $129 $202 forward 7 unknown #
coedge $-1 $123 $203 $80 $132 reversed $76 $-1 #
edge $-1 $204 -55.249488814966277 $136 55.249488814966277 $131 $205 forward 7 unknown #
coedge $-1 $126 $81 $203 $206 forward $135 $-1 #
coedge $-1 $81 $126 $199 $207 reversed $135 $-1 #
loop $-1 $-1 $133 $183 #
vertex $-1 $82 $208 #
vertex $-1 $82 $209 #
straight-curve $-1 55.249488814966277 0 14.371305693660585 0 1 0 I I #
face $-1 $210 $211 $19 $-1 $212 reversed single #
loop $-1 $-1 $145 $83 #
plane-surface $-1 55.249488814966277 0 0 -1 0 0 0 0 1 forward_v I I I I #
coedge $-1 $213 $214 $143 $215 forward $84 $-1 #
coedge $-1 $216 $86 $142 $215 reversed $53 $-1 #
coedge $-1 $86 $216 $87 $148 reversed $53 $-1 #
coedge $-1 $89 $217 $86 $146 forward $140 $-1 #
edge $-1 $218 -8.8751266496582986 $152 -2.117231438346276 $145 $219 forward 7 unknown #
coedge $-1 $88 $87 $220 $221 reversed $34 $-1 #
edge $-1 $152 -55.249488814966277 $222 55.249488814966277 $144 $223 forward 7 unknown #
coedge $-1 $224 $225 $88 $150 forward $211 $-1 #
edge $-1 $153 -55.249488814966277 $226 55.249488814966277 $149 $227 forward 7 unknown #
coedge $-1 $217 $89 $225 $228 forward $140 $-1 #
vertex $-1 $90 $229 #
vertex $-1 $228 $230 #
straight-curve $-1 55.249488814966277 -12.522024961137017 -7.6134104823485629 0 -1 0 I I #
face $-1 $-1 $167 $20 $-1 $231 forward single #
loop $-1 $-1 $232 $91 #
plane-surface $-1 0 31.502848117753302 0 0 -1 0 0 0 -1 forward_v I I I I #
coedge $-1 $233 $234 $235 $236 reversed $92 $-1 #
coedge $-1 $237 $94 $96 $165 forward $57 $-1 #
coedge $-1 $94 $237 $233 $238 forward $57 $-1 #
coedge $-1 $235 $97 $94 $162 forward $167 $-1 #
edge $-1 $169 6.4239909591033459 $239 23.228320175318341 $161 $240 forward 7 unknown #
coedge $-1 $241 $242 $95 $164 forward $156 $-1 #
edge $-1 $243 -57.24315781922062 $168 -44.307884199303928 $163 $244 forward 7 unknown #
edge $-1 $169 47.016818895468468 $243 63.005696235506647 $96 $245 forward 7 unknown #
coedge $-1 $97 $235 $241 $246 forward $167 $-1 #
loop $-1 $-1 $235 $155 #
vertex $-1 $164 $247 #
vertex $-1 $98 $248 #
straight-curve $-1 21.25014652631419 41.932290718884857 14.371305693660588 0 -1 0 I I #
coedge $-1 $171 $171 $-1 $249 reversed $101 $-1 #
edge $-1 $250 0 $250 6.2831853071796004 $102 $251 forward 7 unknown #
vertex $-1 $105 $252 #
ellipse-curve $-1 24.611012369557194 26.803835057208726 7.9036688837022462 0 0.80901700255871778 0.5877852410284794 0.5 0 0 1 I I #
coedge $-1 $175 $175 $-1 $253 reversed $108 $-1 #
edge $-1 $254 0 $254 6.2831853071796004 $109 $255 forward 7 unknown #
vertex $-1 $112 $256 #
ellipse-curve $-1 29.652311134421687 26.803835057208726 7.9036688837022462 0 0.80901700255871778 0.5877852410284794 0.5 0 0 1 I I #
coedge $-1 $179 $179 $-1 $257 reversed $115 $-1 #
edge $-1 $258 0 $258 6.2831853071796004 $116 $259 forward 7 unknown #
vertex $-1 $119 $260 #
ellipse-curve $-1 34.693609899286194 26.803835057208726 7.9036688837022462 0 0.80901700255871778 0.5877852410284794 0.5 0 0 1 I I #
face $-1 $-1 $135 $18 $-1 $261 reversed single #
loop $-1 $-1 $199 $120 #
plane-surface $-1 0 31.502848117753302 0 0 -1 0 0 0 -1 forward_v I I I I #
coedge $-1 $262 $197 $200 $263 forward $121 $-1 #
coedge $-1 $203 $123 $124 $191 reversed $76 $-1 #
coedge $-1 $197 $262 $123 $189 reversed $121 $-1 #
edge $-1 $204 -14.371305693660585 $264 14.371305693660585 $188 $265 forward 7 unknown #
coedge $-1 $125 $124 $262 $266 forward $49 $-1 #
edge $-1 $195 -55.249488814966277 $264 55.249488814966277 $187 $267 forward 7 unknown #
coedge $-1 $200 $199 $125 $193 reversed $184 $-1 #
edge $-1 $268 -55.249488814966277 $194 55.249488814966277 $192 $269 forward 7 unknown #
vertex $-1 $127 $270 #
vertex $-1 $206 $271 #
straight-curve $-1 55.249488814966277 0 -14.371305693660585 0 -1 0 I I #
coedge $-1 $186 $188 $128 $198 reversed $121 $-1 #
edge $-1 $201 -31.502848117753302 $204 31.502848117753302 $197 $272 forward 7 unknown #
coedge $-1 $192 $129 $134 $207 forward $184 $-1 #
coedge $-1 $129 $192 $186 $263 reversed $184 $-1 #
vertex $-1 $130 $273 #
straight-curve $-1 0 31.502848117753302 14.371305693660585 -1 0 0 I I #
coedge $-1 $131 $187 $133 $206 reversed $76 $-1 #
vertex $-1 $198 $274 #
straight-curve $-1 0 -31.502848117753302 14.371305693660585 1 0 0 I I #
edge $-1 $136 -14.371305693660585 $195 14.371305693660585 $133 $275 forward 7 unknown #
edge $-1 $137 -14.371305693660585 $194 14.371305693660585 $134 $276 forward 7 unknown #
point $-1 55.249488814966277 -31.502848117753302 14.371305693660585 #
point $-1 55.249488814966277 31.502848117753302 14.371305693660585 #
face $-1 $-1 $277 $19 $-1 $278 reversed single #
loop $-1 $-1 $149 $139 #
plane-surface $-1 0 -31.502848117753302 0 0 1 0 0 0 1 forward_v I I I I #
coedge $-1 $279 $142 $217 $280 forward $84 $-1 #
coedge $-1 $142 $279 $281 $282 forward $84 $-1 #
edge $-1 $283 -55.249488814966277 $218 55.249488814966277 $142 $284 forward 7 unknown #
coedge $-1 $144 $143 $285 $286 reversed $53 $-1 #
coedge $-1 $145 $151 $213 $280 reversed $140 $-1 #
vertex $-1 $280 $287 #
straight-curve $-1 55.249488814966277 -18.585251726794766 -5.4961790440022869 0 0 1 I I #
coedge $-1 $285 $288 $147 $221 forward $277 $-1 #
edge $-1 $226 -18.980823156616285 $222 -6.063226765657749 $220 $289 forward 7 unknown #
vertex $-1 $221 $290 #
straight-curve $-1 0 -18.585251726794766 -7.6134104823485629 -1 0 0 I I #
coedge $-1 $291 $149 $288 $292 forward $211 $-1 #
coedge $-1 $149 $291 $151 $228 reversed $211 $-1 #
vertex $-1 $292 $293 #
straight-curve $-1 0 -31.502848117753302 -7.6134104823485629 -1 0 0 I I #
edge $-1 $153 7.6134104823485629 $294 14.371305693660585 $151 $295 forward 7 unknown #
point $-1 55.249488814966277 -18.585251726794766 -7.6134104823485629 #
point $-1 55.249488814966277 -31.502848117753302 -7.6134104823485629 #
plane-surface $-1 0 0 14.371305693660585 0 0 1 1 0 0 forward_v I I I I #
coedge $-1 $242 $241 $234 $296 forward $156 $-1 #
coedge $-1 $234 $158 $160 $238 reversed $92 $-1 #
coedge $-1 $158 $233 $232 $296 reversed $92 $-1 #
coedge $-1 $166 $161 $158 $236 forward $167 $-1 #
edge $-1 $239 -19.827468722220694 $297 -10.429442601131555 $235 $298 forward 7 unknown #
coedge $-1 $160 $159 $242 $299 reversed $57 $-1 #
edge $-1 $300 -63.005696235506647 $239 -47.016818895468468 $233 $301 forward 7 unknown #
vertex $-1 $162 $302 #
straight-curve $-1 14.826155567210844 22.104821996664164 14.371305693660588 1 0 0 I I #
coedge $-1 $232 $163 $166 $246 reversed $156 $-1 #
coedge $-1 $163 $232 $237 $299 forward $156 $-1 #
vertex $-1 $164 $303 #
straight-curve $-1 21.25014652631419 31.502848117753302 58.679189892964516 0 0 1 I I #
straight-curve $-1 21.25014652631419 -5.5309702302011345 52.408711586318574 0 0.5877852410284794 -0.80901700255871778 I I #
edge $-1 $297 -38.054475742529185 $168 -21.25014652631419 $241 $304 forward 7 unknown #
point $-1 21.25014652631419 31.502848117753302 14.371305693660585 #
point $-1 21.25014652631419 22.104821996664164 14.371305693660588 #
edge $-1 $305 1 $305 0 $171 $-1 forward 7 unknown #
vertex $-1 $172 $306 #
ellipse-curve $-1 24.611012369557194 25.545188591055659 6.989208725092996 0 0.80901700255871778 0.5877852410284794 0.5 0 0 1 I I #
point $-1 25.111012369557194 26.803835057208747 7.9036688837022613 #
edge $-1 $307 1 $307 0 $175 $-1 forward 7 unknown #
vertex $-1 $176 $308 #
ellipse-curve $-1 29.652311134421687 25.545188591055659 6.989208725092996 0 0.80901700255871778 0.5877852410284794 0.5 0 0 1 I I #
point $-1 30.152311134421687 26.803835057208747 7.9036688837022613 #
edge $-1 $309 1 $309 0 $179 $-1 forward 7 unknown #
vertex $-1 $180 $310 #
ellipse-curve $-1 34.693609899286194 25.545188591055659 6.989208725092996 0 0.80901700255871778 0.5877852410284794 0.5 0 0 1 I I #
point $-1 35.193609899286194 26.803835057208747 7.9036688837022613 #
plane-surface $-1 55.249488814966277 0 0 -1 0 0 0 0 1 forward_v I I I I #
coedge $-1 $188 $186 $190 $266 reversed $121 $-1 #
edge $-1 $201 -14.371305693660585 $268 14.371305693660585 $200 $311 forward 7 unknown #
vertex $-1 $266 $312 #
straight-curve $-1 -55.249488814966277 -31.502848117753302 0 0 0 -1 I I #
edge $-1 $264 -31.502848117753302 $268 31.502848117753302 $262 $313 forward 7 unknown #
straight-curve $-1 0 -31.502848117753302 -14.371305693660585 -1 0 0 I I #
vertex $-1 $193 $314 #
straight-curve $-1 0 31.502848117753302 -14.371305693660585 1 0 0 I I #
point $-1 55.249488814966277 31.502848117753302 -14.371305693660585 #
point $-1 55.249488814966277 -31.502848117753302 -14.371305693660585 #
straight-curve $-1 -55.249488814966277 0 14.371305693660585 0 -1 0 I I #
point $-1 -55.249488814966277 31.502848117753302 14.371305693660585 #
point $-1 -55.249488814966277 -31.502848117753302 14.371305693660585 #
straight-curve $-1 55.249488814966277 -31.502848117753302 0 0 0 -1 I I #
straight-curve $-1 55.249488814966277 31.502848117753302 0 0 0 -1 I I #
loop $-1 $-1 $285 $210 #
plane-surface $-1 -55.249488814966277 0 0 1 0 0 0 0 -1 forward_v I I I I #
coedge $-1 $214 $213 $291 $315 forward $84 $-1 #
edge $-1 $218 18.585251726794766 $294 31.502848117753302 $217 $316 forward 7 unknown #
coedge $-1 $288 $285 $214 $282 reversed $277 $-1 #
edge $-1 $317 -31.502848117753302 $283 -18.585251726794766 $281 $318 forward 7 unknown #
vertex $-1 $286 $319 #
straight-curve $-1 0 -18.585251726794766 -14.371305693660585 1 0 0 I I #
coedge $-1 $281 $220 $216 $286 forward $277 $-1 #
edge $-1 $222 2.117231438346276 $283 8.8751266496582986 $285 $320 forward 7 unknown #
point $-1 55.249488814966277 -18.585251726794766 -14.371305693660585 #
coedge $-1 $220 $281 $224 $292 reversed $277 $-1 #
straight-curve $-1 -55.249488814966277 -12.522024961137017 -7.6134104823485629 0 1 0 I I #
point $-1 -55.249488814966277 -18.585251726794766 -7.6134104823485629 #
coedge $-1 $225 $224 $279 $315 reversed $211 $-1 #
edge $-1 $226 7.6134104823485629 $317 14.371305693660585 $288 $321 forward 7 unknown #
point $-1 -55.249488814966277 -31.502848117753302 -7.6134104823485629 #
vertex $-1 $228 $322 #
straight-curve $-1 55.249488814966277 -31.502848117753302 0 0 0 -1 I I #
edge $-1 $297 44.307884199303928 $300 57.24315781922062 $232 $323 forward 7 unknown #
vertex $-1 $246 $324 #
straight-curve $-1 38.054475742529185 41.932290718884857 14.371305693660588 0 1 0 I I #
edge $-1 $300 -23.228320175318341 $243 -6.4239909591033459 $242 $325 forward 7 unknown #
vertex $-1 $299 $326 #
straight-curve $-1 38.054475742529185 -5.5309702302011345 52.408711586318574 0 -0.5877852410284794 0.80901700255871778 I I #
point $-1 38.054475742529185 22.104821996664164 14.371305693660588 #
point $-1 21.25014652631419 31.502848117753302 1.4360320737438954 #
straight-curve $-1 0 31.502848117753302 14.371305693660585 -1 0 0 I I #
vertex $-1 $249 $327 #
point $-1 25.111012369557194 25.545188591055659 6.989208725092996 #
vertex $-1 $253 $328 #
point $-1 30.152311134421687 25.545188591055659 6.989208725092996 #
vertex $-1 $257 $329 #
point $-1 35.193609899286194 25.545188591055659 6.989208725092996 #
straight-curve $-1 -55.249488814966277 31.502848117753302 0 0 0 -1 I I #
point $-1 -55.249488814966277 -31.502848117753302 -14.371305693660585 #
straight-curve $-1 -55.249488814966277 0 -14.371305693660585 0 1 0 I I #
point $-1 -55.249488814966277 31.502848117753302 -14.371305693660585 #
edge $-1 $294 -55.249488814966277 $317 55.249488814966277 $291 $330 forward 7 unknown #
straight-curve $-1 55.249488814966277 0 -14.371305693660585 0 -1 0 I I #
vertex $-1 $282 $331 #
straight-curve $-1 -55.249488814966277 0 -14.371305693660585 0 1 0 I I #
point $-1 -55.249488814966277 -18.585251726794766 -14.371305693660585 #
straight-curve $-1 -55.249488814966277 -18.585251726794766 -5.4961790440022869 0 0 -1 I I #
straight-curve $-1 -55.249488814966277 -31.502848117753302 0 0 0 -1 I I #
point $-1 55.249488814966277 -31.502848117753302 -14.371305693660585 #
straight-curve $-1 38.054475742529185 31.502848117753302 58.679189892964516 0 0 -1 I I #
point $-1 38.054475742529185 31.502848117753302 14.371305693660585 #
straight-curve $-1 14.826155567210844 31.502848117753302 1.4360320737438883 -1 0 0 I I #
point $-1 38.054475742529185 31.502848117753302 1.4360320737438954 #
point $-1 24.611012369557194 25.1406800897763 6.6953161045787555 #
point $-1 29.652311134421687 25.1406800897763 6.6953161045787555 #
point $-1 34.693609899286194 25.1406800897763 6.6953161045787555 #
straight-curve $-1 0 -31.502848117753302 -14.371305693660585 -1 0 0 I I #
point $-1 -55.249488814966277 -31.502848117753302 -14.371305693660585 #
End-of-ACIS-data 