500 0 6 0           
7 Unknown 11 ACIS 5.0 NT 24 Thu Mar 25 19:17:02 1999 
-1 9.9999999999999995e-007 1e-010 
body $-1 $6 $-1 $7 #
body $-1 $8 $-1 $9 #
body $-1 $10 $-1 $11 #
body $-1 $12 $-1 $13 #
body $-1 $14 $-1 $15 #
body $-1 $16 $-1 $17 #
lump $-1 $-1 $18 $0 #
transform $-1 1 0 0 0 1 0 0 0 1 49.281289101840265 27.646371540575206 11.437550358715704 1 rotate no_reflect no_shear #
lump $-1 $-1 $19 $1 #
transform $-1 1 0 0 0 1 0 0 0 1 49.281289101840265 27.646371540575206 11.437550358715704 1 rotate no_reflect no_shear #
lump $-1 $-1 $20 $2 #
transform $-1 1 0 0 0 1 0 0 0 1 49.281289101840265 27.646371540575206 11.437550358715704 1 rotate no_reflect no_shear #
lump $-1 $-1 $21 $3 #
transform $-1 1 0 0 0 1 0 0 0 1 49.281289101840265 27.646371540575206 11.437550358715704 1 rotate no_reflect no_shear #
lump $-1 $-1 $22 $4 #
transform $-1 1 0 0 0 1 0 0 0 1 49.281289101840265 27.646371540575206 11.437550358715704 1 rotate no_reflect no_shear #
lump $-1 $-1 $23 $5 #
transform $-1 1 0 0 0 1 0 0 0 1 49.281289101840265 27.646371540575206 11.437550358715704 1 rotate no_reflect no_shear #
shell $-1 $-1 $-1 $24 $-1 $6 #
shell $-1 $-1 $-1 $25 $-1 $8 #
shell $-1 $-1 $-1 $26 $-1 $10 #
shell $-1 $-1 $-1 $27 $-1 $12 #
shell $-1 $-1 $-1 $28 $-1 $14 #
shell $-1 $-1 $-1 $29 $-1 $16 #
face $-1 $30 $31 $18 $-1 $32 forward single #
face $-1 $33 $34 $19 $-1 $35 reversed single #
face $-1 $36 $37 $20 $-1 $38 reversed single #
face $-1 $39 $40 $21 $-1 $41 forward single #
face $-1 $42 $43 $22 $-1 $44 reversed single #
face $-1 $45 $46 $23 $-1 $47 forward single #
face $-1 $48 $49 $18 $-1 $50 reversed single #
loop $-1 $-1 $51 $24 #
plane-surface $-1 0 0 11.437550358715704 0 0 1 1 0 0 forward_v I I I I #
face $-1 $52 $53 $19 $-1 $54 reversed single #
loop $-1 $-1 $55 $25 #
plane-surface $-1 -43.015018035228607 -24.646371540575206 0 0 -1 0 0 0 -1 forward_v I I I I #
face $-1 $56 $57 $20 $-1 $58 reversed single #
loop $-1 $-1 $59 $26 #
plane-surface $-1 -1.6161532725934435 48.644478151788221 117.69812801237234 1 0 0 0 -0.64278761758704617 -0.76604443648966558 forward_v I I I I #
face $-1 $60 $61 $21 $-1 $62 forward single #
loop $-1 $63 $64 $27 #
cone-surface $-1 8.3215275657037466 23.343051052993193 7.3144021925087834 0 -0.64278761758704617 -0.76604443648966558 1.5 0 0 1 I I 0 1 1.5 forward I I I I #
face $-1 $65 $66 $22 $-1 $67 reversed single #
loop $-1 $-1 $68 $28 #
plane-surface $-1 18.259208404000937 -91.001176367355939 82.156637417387032 -1 0 0 0 -0.64278761758704617 0.76604443648966558 forward_v I I I I #
face $-1 $69 $70 $23 $-1 $71 forward single #
loop $-1 $72 $73 $29 #
cone-surface $-1 8.3215275657037466 -23.343051052993189 7.3144021925087799 0 0.64278761758704617 -0.76604443648966558 1.5 0 0 1 I I 0 1 1.5 forward I I I I #
face $-1 $74 $75 $18 $-1 $76 reversed single #
loop $-1 $-1 $77 $30 #
plane-surface $-1 0 0 -11.437550358715704 0 0 1 1 0 0 forward_v I I I I #
coedge $-1 $78 $79 $80 $81 forward $31 $-1 #
face $-1 $82 $83 $19 $-1 $84 forward single #
loop $-1 $-1 $85 $33 #
plane-surface $-1 -36.748746968616942 -26.146371540575206 0 -1 0 0 0 0 1 forward_v I I I I #
coedge $-1 $86 $87 $88 $89 forward $34 $-1 #
face $-1 $90 $91 $20 $-1 $92 reversed single #
loop $-1 $-1 $93 $36 #
plane-surface $-1 8.3215275657037466 -14.710326674992515 42.194813333365289 0 0.64278761758704617 0.76604443648966558 1 0 0 forward_v I I I I #
coedge $-1 $94 $95 $96 $97 reversed $37 $-1 #
face $-1 $-1 $98 $21 $-1 $99 forward single #
loop $-1 $100 $101 $39 #
cone-surface $-1 8.3215275657037466 21.408450019672568 5.0088345091024813 0 -0.64278761758704617 -0.76604443648966558 0.75 0 0 1 I I -0.70710678118654757 0.70710678118654757 0.75 forward I I I I #
loop $-1 $-1 $102 $27 #
coedge $-1 $64 $64 $103 $104 reversed $40 $-1 #
face $-1 $105 $106 $22 $-1 $107 reversed single #
loop $-1 $-1 $108 $42 #
plane-surface $-1 8.3215275657037466 -27.646371540575203 6.653322738379984 0 -0.64278761758704617 0.76604443648966558 1 0 0 forward_v I I I I #
coedge $-1 $109 $110 $111 $112 reversed $43 $-1 #
face $-1 $-1 $113 $23 $-1 $114 forward single #
loop $-1 $115 $116 $45 #
cone-surface $-1 8.3215275657037466 -21.408450019672564 5.0088345091024777 0 0.64278761758704617 -0.76604443648966558 0.75 0 0 1 I I -0.70710678118654757 0.70710678118654757 0.75 forward I I I I #
loop $-1 $-1 $117 $29 #
coedge $-1 $73 $73 $118 $119 reversed $46 $-1 #
face $-1 $120 $121 $18 $-1 $122 reversed single #
loop $-1 $-1 $123 $48 #
plane-surface $-1 0 -27.646371540575206 0 0 1 0 0 0 1 forward_v I I I I #
coedge $-1 $124 $125 $126 $127 forward $49 $-1 #
coedge $-1 $128 $51 $129 $130 forward $31 $-1 #
coedge $-1 $51 $128 $131 $132 forward $31 $-1 #
coedge $-1 $133 $134 $51 $81 reversed $135 $-1 #
edge $-1 $136 -27.646371540575206 $137 27.646371540575206 $80 $138 forward 7 unknown #
face $-1 $139 $140 $19 $-1 $141 reversed single #
loop $-1 $-1 $142 $52 #
plane-surface $-1 0 0 11.437550358715704 0 0 1 1 0 0 forward_v I I I I #
coedge $-1 $143 $144 $145 $146 reversed $53 $-1 #
coedge $-1 $147 $55 $148 $149 reversed $34 $-1 #
coedge $-1 $55 $147 $150 $151 reversed $34 $-1 #
coedge $-1 $144 $143 $55 $89 reversed $53 $-1 #
edge $-1 $152 -11.437550358715704 $153 11.437550358715704 $88 $154 forward 7 unknown #
face $-1 $155 $156 $20 $-1 $157 reversed single #
loop $-1 $-1 $158 $56 #
plane-surface $-1 18.259208404000937 48.644478151788221 117.69812801237234 -1 0 0 0 0.64278761758704617 0.76604443648966558 forward_v I I I I #
coedge $-1 $159 $160 $161 $162 reversed $57 $-1 #
coedge $-1 $95 $59 $163 $164 reversed $37 $-1 #
coedge $-1 $59 $94 $159 $165 reversed $37 $-1 #
coedge $-1 $161 $166 $59 $97 forward $167 $-1 #
edge $-1 $168 -3.3241324646810959 $169 2.3774878702222324 $96 $170 forward 7 unknown #
loop $-1 $-1 $103 $60 #
plane-surface $-1 8.3215275657037466 -14.710326674992515 42.194813333365289 0 0.64278761758704617 0.76604443648966558 1 0 0 forward_v I I I I #
loop $-1 $-1 $171 $39 #
coedge $-1 $101 $101 $102 $172 reversed $61 $-1 #
coedge $-1 $102 $102 $101 $172 forward $63 $-1 #
coedge $-1 $103 $103 $64 $104 forward $98 $-1 #
edge $-1 $173 9.3856532568236018e-016 $173 6.2831853071796013 $103 $174 forward 7 unknown #
face $-1 $175 $176 $22 $-1 $177 forward single #
loop $-1 $-1 $178 $65 #
plane-surface $-1 -1.6161532725934435 -91.001176367355939 82.156637417387032 1 0 0 0 0.64278761758704617 -0.76604443648966558 forward_v I I I I #
coedge $-1 $179 $180 $181 $182 reversed $66 $-1 #
coedge $-1 $110 $68 $183 $184 reversed $43 $-1 #
coedge $-1 $68 $109 $179 $185 reversed $43 $-1 #
coedge $-1 $181 $186 $68 $112 forward $176 $-1 #
edge $-1 $187 17.854216643102763 $188 23.555836978006102 $111 $189 forward 7 unknown #
loop $-1 $-1 $118 $69 #
plane-surface $-1 8.3215275657037466 -27.646371540575203 6.653322738379984 0 -0.64278761758704617 0.76604443648966558 1 0 0 forward_v I I I I #
loop $-1 $-1 $190 $45 #
coedge $-1 $116 $116 $117 $191 reversed $70 $-1 #
coedge $-1 $117 $117 $116 $191 forward $72 $-1 #
coedge $-1 $118 $118 $73 $119 forward $113 $-1 #
edge $-1 $192 -1.7735187182733256e-016 $192 6.2831853071796004 $118 $193 forward 7 unknown #
face $-1 $194 $195 $18 $-1 $196 reversed single #
loop $-1 $-1 $197 $74 #
plane-surface $-1 -49.281289101840265 0 0 1 0 0 0 0 -1 forward_v I I I I #
coedge $-1 $198 $131 $199 $200 forward $75 $-1 #
coedge $-1 $201 $77 $198 $202 forward $49 $-1 #
coedge $-1 $77 $201 $203 $204 forward $49 $-1 #
coedge $-1 $134 $133 $77 $127 reversed $135 $-1 #
edge $-1 $205 -27.646371540575206 $206 27.646371540575206 $126 $207 forward 7 unknown #
coedge $-1 $79 $78 $208 $209 forward $31 $-1 #
coedge $-1 $210 $211 $78 $130 reversed $195 $-1 #
edge $-1 $137 -49.281289101840265 $212 49.281289101840265 $129 $213 forward 7 unknown #
coedge $-1 $123 $214 $79 $132 reversed $75 $-1 #
edge $-1 $215 -49.281289101840265 $136 49.281289101840265 $131 $216 forward 7 unknown #
coedge $-1 $126 $80 $214 $217 forward $135 $-1 #
coedge $-1 $80 $126 $210 $218 reversed $135 $-1 #
loop $-1 $-1 $133 $194 #
vertex $-1 $81 $219 #
vertex $-1 $81 $220 #
straight-curve $-1 49.281289101840265 0 11.437550358715704 0 1 0 I I #
face $-1 $221 $222 $19 $-1 $223 reversed single #
loop $-1 $-1 $224 $82 #
plane-surface $-1 -49.281289101840265 0 0 1 0 0 0 0 -1 forward_v I I I I #
coedge $-1 $150 $225 $144 $226 forward $83 $-1 #
coedge $-1 $88 $85 $227 $228 reversed $53 $-1 #
coedge $-1 $85 $88 $142 $226 reversed $53 $-1 #
coedge $-1 $229 $230 $85 $146 forward $231 $-1 #
edge $-1 $232 -11.437550358715704 $233 11.437550358715704 $145 $234 forward 7 unknown #
coedge $-1 $87 $86 $224 $235 reversed $34 $-1 #
coedge $-1 $227 $236 $86 $149 forward $222 $-1 #
edge $-1 $237 -27.773780084225969 $153 -15.241237951002638 $148 $238 forward 7 unknown #
coedge $-1 $239 $142 $87 $151 forward $83 $-1 #
edge $-1 $152 15.241237951002638 $240 27.773780084225969 $150 $241 forward 7 unknown #
vertex $-1 $151 $242 #
vertex $-1 $149 $243 #
straight-curve $-1 -36.748746968616942 -24.646371540575206 0 0 0 -1 I I #
face $-1 $-1 $167 $20 $-1 $244 forward single #
loop $-1 $-1 $245 $90 #
plane-surface $-1 0 27.646371540575206 0 0 -1 0 0 0 -1 forward_v I I I I #
coedge $-1 $246 $247 $248 $249 reversed $91 $-1 #
coedge $-1 $250 $93 $95 $165 forward $57 $-1 #
coedge $-1 $93 $250 $246 $251 forward $57 $-1 #
coedge $-1 $248 $96 $93 $162 forward $167 $-1 #
edge $-1 $169 -5.7769170554453169 $252 14.098444621149063 $161 $253 forward 7 unknown #
coedge $-1 $254 $255 $94 $164 forward $156 $-1 #
edge $-1 $256 -52.195741267806177 $168 -47.411513647470464 $163 $257 forward 7 unknown #
edge $-1 $169 47.849806270551632 $256 55.292743081150405 $95 $258 forward 7 unknown #
coedge $-1 $96 $248 $254 $259 forward $167 $-1 #
loop $-1 $-1 $248 $155 #
vertex $-1 $164 $260 #
vertex $-1 $97 $261 #
straight-curve $-1 -1.6161532725934435 24.32223907589411 11.437550358715704 0 -1 0 I I #
coedge $-1 $171 $171 $-1 $262 reversed $100 $-1 #
edge $-1 $263 0 $263 6.2831853071796004 $101 $264 forward 7 unknown #
vertex $-1 $104 $265 #
ellipse-curve $-1 8.3215275657037466 24.79556137312354 9.0454365485478476 0 0.64278761758704617 0.76604443648966558 1.5 0 0 1 I I #
face $-1 $-1 $266 $22 $-1 $267 reversed single #
loop $-1 $-1 $111 $105 #
plane-surface $-1 0 0 11.437550358715704 0 0 1 1 0 0 forward_v I I I I #
coedge $-1 $268 $269 $270 $271 reversed $106 $-1 #
coedge $-1 $272 $108 $110 $185 forward $66 $-1 #
coedge $-1 $108 $272 $268 $273 forward $66 $-1 #
coedge $-1 $270 $111 $108 $182 forward $176 $-1 #
edge $-1 $188 -14.098444621149063 $274 5.7769170554453169 $181 $275 forward 7 unknown #
coedge $-1 $276 $277 $109 $184 forward $266 $-1 #
edge $-1 $278 -34.424995970313532 $187 -29.640768349977812 $183 $279 forward 7 unknown #
edge $-1 $188 -7.4429368105987841 $278 4.4342668192596698e-015 $110 $280 forward 7 unknown #
coedge $-1 $111 $270 $276 $281 forward $176 $-1 #
vertex $-1 $112 $282 #
vertex $-1 $112 $283 #
straight-curve $-1 18.259208404000937 -45.500588183677969 11.437550358715704 0 1 0 I I #
coedge $-1 $190 $190 $-1 $284 reversed $115 $-1 #
edge $-1 $285 0 $285 6.2831853071796004 $116 $286 forward 7 unknown #
vertex $-1 $119 $287 #
ellipse-curve $-1 8.3215275657037466 -24.795561373123537 9.0454365485478423 0 -0.64278761758704617 0.76604443648966558 1.5 0 0 1 I I #
face $-1 $-1 $135 $18 $-1 $288 reversed single #
loop $-1 $-1 $210 $120 #
plane-surface $-1 0 27.646371540575206 0 0 -1 0 0 0 -1 forward_v I I I I #
coedge $-1 $289 $208 $211 $290 forward $121 $-1 #
coedge $-1 $214 $123 $124 $202 reversed $75 $-1 #
coedge $-1 $208 $289 $123 $200 reversed $121 $-1 #
edge $-1 $215 -11.437550358715704 $291 11.437550358715704 $199 $292 forward 7 unknown #
coedge $-1 $125 $124 $289 $293 forward $49 $-1 #
edge $-1 $206 -49.281289101840265 $291 49.281289101840265 $198 $294 forward 7 unknown #
coedge $-1 $211 $210 $125 $204 reversed $195 $-1 #
edge $-1 $295 -49.281289101840265 $205 49.281289101840265 $203 $296 forward 7 unknown #
vertex $-1 $127 $297 #
vertex $-1 $217 $298 #
straight-curve $-1 49.281289101840265 0 -11.437550358715704 0 -1 0 I I #
coedge $-1 $197 $199 $128 $209 reversed $121 $-1 #
edge $-1 $212 -27.646371540575206 $215 27.646371540575206 $208 $299 forward 7 unknown #
coedge $-1 $203 $129 $134 $218 forward $195 $-1 #
coedge $-1 $129 $203 $197 $290 reversed $195 $-1 #
vertex $-1 $130 $300 #
straight-curve $-1 0 27.646371540575206 11.437550358715704 -1 0 0 I I #
coedge $-1 $131 $198 $133 $217 reversed $75 $-1 #
vertex $-1 $209 $301 #
straight-curve $-1 0 -27.646371540575206 11.437550358715704 1 0 0 I I #
edge $-1 $136 -11.437550358715704 $206 11.437550358715704 $133 $302 forward 7 unknown #
edge $-1 $137 -11.437550358715704 $205 11.437550358715704 $134 $303 forward 7 unknown #
point $-1 49.281289101840265 -27.646371540575206 11.437550358715704 #
point $-1 49.281289101840265 27.646371540575206 11.437550358715704 #
face $-1 $-1 $231 $19 $-1 $304 reversed single #
loop $-1 $-1 $227 $139 #
plane-surface $-1 0 0 -11.437550358715704 0 0 1 1 0 0 forward_v I I I I #
coedge $-1 $305 $306 $147 $235 forward $140 $-1 #
coedge $-1 $142 $239 $229 $307 forward $83 $-1 #
edge $-1 $233 -14.573185770287603 $152 -11.573185770287603 $142 $308 forward 7 unknown #
coedge $-1 $309 $148 $143 $228 forward $222 $-1 #
edge $-1 $153 11.573185770287603 $232 14.573185770287603 $227 $310 forward 7 unknown #
coedge $-1 $311 $145 $225 $307 reversed $231 $-1 #
coedge $-1 $145 $311 $309 $312 reversed $231 $-1 #
loop $-1 $-1 $145 $221 #
vertex $-1 $312 $313 #
vertex $-1 $146 $314 #
straight-curve $-1 -36.748746968616942 -27.646371540575206 0 0 0 1 I I #
edge $-1 $240 -11.437550358715704 $237 11.437550358715704 $224 $315 forward 7 unknown #
coedge $-1 $148 $309 $305 $316 forward $222 $-1 #
vertex $-1 $149 $317 #
straight-curve $-1 -21.507509017614304 -24.646371540575206 -11.437550358715704 1 0 0 I I #
coedge $-1 $225 $150 $306 $318 forward $83 $-1 #
vertex $-1 $318 $319 #
straight-curve $-1 -21.507509017614304 -24.646371540575206 11.437550358715704 -1 0 0 I I #
point $-1 -36.748746968616942 -24.646371540575206 11.437550358715704 #
point $-1 -36.748746968616942 -24.646371540575206 -11.437550358715704 #
plane-surface $-1 0 0 11.437550358715704 0 0 1 1 0 0 forward_v I I I I #
coedge $-1 $255 $254 $247 $320 forward $156 $-1 #
coedge $-1 $247 $158 $160 $251 reversed $91 $-1 #
coedge $-1 $158 $246 $245 $320 reversed $91 $-1 #
coedge $-1 $166 $161 $158 $249 forward $167 $-1 #
edge $-1 $252 -2.3774878702222324 $321 3.3241324646810959 $248 $322 forward 7 unknown #
coedge $-1 $160 $159 $255 $323 reversed $57 $-1 #
edge $-1 $324 -55.292743081150405 $252 -47.849806270551632 $246 $325 forward 7 unknown #
vertex $-1 $162 $326 #
straight-curve $-1 4.1607637828518733 21.944751205671871 11.437550358715704 1 0 0 I I #
coedge $-1 $245 $163 $166 $259 reversed $156 $-1 #
coedge $-1 $163 $245 $250 $323 forward $156 $-1 #
vertex $-1 $164 $327 #
straight-curve $-1 -1.6161532725934435 27.646371540575206 58.849064006186168 0 0 1 I I #
straight-curve $-1 -1.6161532725934435 -14.710326674992515 42.194813333365289 0 0.76604443648966558 -0.64278761758704617 I I #
edge $-1 $321 -18.259208404000937 $168 1.6161532725934435 $254 $328 forward 7 unknown #
point $-1 -1.6161532725934435 27.646371540575206 11.437550358715704 #
point $-1 -1.6161532725934435 21.944751205671878 11.437550358715704 #
edge $-1 $329 1 $329 0 $171 $-1 forward 7 unknown #
vertex $-1 $172 $330 #
ellipse-curve $-1 8.3215275657037466 21.890540732862853 5.5833678364697308 0 0.64278761758704617 0.76604443648966558 1.5 0 0 1 I I #
point $-1 9.8215275657037466 24.795561373123533 9.045436548547837 #
loop $-1 $-1 $183 $175 #
plane-surface $-1 0 -27.646371540575206 0 0 1 0 0 0 1 forward_v I I I I #
coedge $-1 $269 $178 $180 $273 reversed $106 $-1 #
coedge $-1 $178 $268 $331 $332 reversed $106 $-1 #
coedge $-1 $186 $181 $178 $271 forward $176 $-1 #
edge $-1 $274 -23.555836978006102 $333 -17.854216643102763 $270 $334 forward 7 unknown #
coedge $-1 $180 $179 $277 $335 reversed $66 $-1 #
edge $-1 $336 -4.4342668192596698e-015 $274 7.4429368105987841 $268 $337 forward 7 unknown #
vertex $-1 $182 $338 #
straight-curve $-1 4.1607637828518733 -21.944751205671867 11.437550358715704 -1 0 0 I I #
coedge $-1 $331 $183 $186 $281 reversed $266 $-1 #
coedge $-1 $183 $331 $272 $335 forward $266 $-1 #
vertex $-1 $184 $339 #
straight-curve $-1 18.259208404000937 -27.646371540575206 41.078318708693516 0 0 1 I I #
straight-curve $-1 18.259208404000937 -27.646371540575203 6.653322738379984 0 -0.76604443648966558 -0.64278761758704617 I I #
edge $-1 $333 -1.6161532725934435 $187 18.259208404000937 $276 $340 forward 7 unknown #
point $-1 18.259208404000937 -27.646371540575206 11.437550358715704 #
point $-1 18.259208404000937 -21.944751205671867 11.437550358715704 #
edge $-1 $341 1 $341 0 $190 $-1 forward 7 unknown #
vertex $-1 $191 $342 #
ellipse-curve $-1 8.3215275657037466 -21.890540732862849 5.5833678364697272 0 -0.64278761758704617 0.76604443648966558 1.5 0 0 1 I I #
point $-1 9.8215275657037466 -24.79556137312353 9.0454365485478334 #
plane-surface $-1 49.281289101840265 0 0 -1 0 0 0 0 1 forward_v I I I I #
coedge $-1 $199 $197 $201 $293 reversed $121 $-1 #
edge $-1 $212 -11.437550358715704 $295 11.437550358715704 $211 $343 forward 7 unknown #
vertex $-1 $293 $344 #
straight-curve $-1 -49.281289101840265 -27.646371540575206 0 0 0 -1 I I #
edge $-1 $291 -27.646371540575206 $295 27.646371540575206 $289 $345 forward 7 unknown #
straight-curve $-1 0 -27.646371540575206 -11.437550358715704 -1 0 0 I I #
vertex $-1 $204 $346 #
straight-curve $-1 0 27.646371540575206 -11.437550358715704 1 0 0 I I #
point $-1 49.281289101840265 27.646371540575206 -11.437550358715704 #
point $-1 49.281289101840265 -27.646371540575206 -11.437550358715704 #
straight-curve $-1 -49.281289101840265 0 11.437550358715704 0 -1 0 I I #
point $-1 -49.281289101840265 27.646371540575206 11.437550358715704 #
point $-1 -49.281289101840265 -27.646371540575206 11.437550358715704 #
straight-curve $-1 49.281289101840265 -27.646371540575206 0 0 0 -1 I I #
straight-curve $-1 49.281289101840265 27.646371540575206 0 0 0 -1 I I #
plane-surface $-1 0 -27.646371540575206 0 0 1 0 0 0 1 forward_v I I I I #
coedge $-1 $347 $224 $236 $316 reversed $140 $-1 #
coedge $-1 $224 $347 $239 $318 reversed $140 $-1 #
edge $-1 $348 -49.281289101840265 $233 -36.748746968616942 $229 $349 forward 7 unknown #
straight-curve $-1 -36.748746968616942 -13.073185770287603 11.437550358715704 0 1 0 I I #
coedge $-1 $236 $227 $230 $312 forward $222 $-1 #
straight-curve $-1 -36.748746968616942 -13.073185770287603 -11.437550358715704 0 -1 0 I I #
coedge $-1 $230 $229 $347 $350 forward $231 $-1 #
edge $-1 $232 36.748746968616942 $351 49.281289101840265 $230 $352 forward 7 unknown #
point $-1 -36.748746968616942 -27.646371540575206 -11.437550358715704 #
point $-1 -36.748746968616942 -27.646371540575206 11.437550358715704 #
straight-curve $-1 -49.281289101840265 -24.646371540575206 0 0 0 -1 I I #
edge $-1 $351 -27.646371540575206 $237 -24.646371540575206 $305 $353 forward 7 unknown #
point $-1 -49.281289101840272 -24.646371540575206 -11.437550358715704 #
edge $-1 $240 24.646371540575206 $348 27.646371540575206 $306 $354 forward 7 unknown #
point $-1 -49.281289101840272 -24.646371540575206 11.437550358715704 #
edge $-1 $321 47.411513647470464 $324 52.195741267806177 $245 $355 forward 7 unknown #
vertex $-1 $259 $356 #
straight-curve $-1 18.259208404000937 24.32223907589411 11.437550358715704 0 1 0 I I #
edge $-1 $324 -14.098444621149063 $256 5.7769170554453169 $255 $357 forward 7 unknown #
vertex $-1 $323 $358 #
straight-curve $-1 18.259208404000937 -14.710326674992515 42.194813333365289 0 -0.76604443648966558 0.64278761758704617 I I #
point $-1 18.259208404000937 21.944751205671878 11.437550358715704 #
point $-1 -1.6161532725934435 27.646371540575203 6.6533227383799911 #
straight-curve $-1 0 27.646371540575206 11.437550358715704 -1 0 0 I I #
vertex $-1 $262 $359 #
point $-1 9.8215275657037466 21.890540732862853 5.5833678364697308 #
coedge $-1 $277 $276 $269 $332 forward $266 $-1 #
edge $-1 $333 29.640768349977812 $336 34.424995970313532 $331 $360 forward 7 unknown #
vertex $-1 $281 $361 #
straight-curve $-1 -1.6161532725934435 -45.500588183677969 11.437550358715704 0 -1 0 I I #
edge $-1 $336 -5.7769170554453169 $278 14.098444621149063 $277 $362 forward 7 unknown #
vertex $-1 $335 $363 #
straight-curve $-1 -1.6161532725934435 -27.646371540575203 6.653322738379984 0 0.76604443648966558 0.64278761758704617 I I #
point $-1 -1.6161532725934435 -21.944751205671867 11.437550358715704 #
point $-1 18.259208404000937 -27.646371540575206 6.6533227383799813 #
straight-curve $-1 0 -27.646371540575206 11.437550358715704 1 0 0 I I #
vertex $-1 $284 $364 #
point $-1 9.8215275657037466 -21.890540732862849 5.5833678364697272 #
straight-curve $-1 -49.281289101840265 27.646371540575206 0 0 0 -1 I I #
point $-1 -49.281289101840265 -27.646371540575206 -11.437550358715704 #
straight-curve $-1 -49.281289101840265 0 -11.437550358715704 0 1 0 I I #
point $-1 -49.281289101840265 27.646371540575206 -11.437550358715704 #
coedge $-1 $306 $305 $311 $350 reversed $140 $-1 #
vertex $-1 $318 $365 #
straight-curve $-1 0 -27.646371540575206 11.437550358715704 1 0 0 I I #
edge $-1 $348 -11.437550358715704 $351 11.437550358715704 $347 $366 forward 7 unknown #
vertex $-1 $316 $367 #
straight-curve $-1 0 -27.646371540575206 -11.437550358715704 -1 0 0 I I #
straight-curve $-1 -49.281289101840265 0 -11.437550358715704 0 1 0 I I #
straight-curve $-1 -49.281289101840265 0 11.437550358715704 0 -1 0 I I #
straight-curve $-1 18.259208404000937 27.646371540575206 58.849064006186168 0 0 -1 I I #
point $-1 18.259208404000937 27.646371540575206 11.437550358715704 #
straight-curve $-1 4.1607637828518733 27.646371540575203 6.6533227383799876 -1 0 0 I I #
point $-1 18.259208404000937 27.646371540575203 6.6533227383799911 #
point $-1 8.3215275657037466 20.926359306482283 4.4343011817352318 #
straight-curve $-1 -1.6161532725934435 -27.646371540575206 41.078318708693516 0 0 -1 I I #
point $-1 -1.6161532725934435 -27.646371540575206 11.437550358715704 #
straight-curve $-1 4.1607637828518733 -27.646371540575206 6.6533227383799778 1 0 0 I I #
point $-1 -1.6161532725934435 -27.646371540575206 6.6533227383799813 #
point $-1 8.3215275657037466 -20.926359306482279 4.4343011817352282 #
point $-1 -49.281289101840265 -27.646371540575206 11.437550358715704 #
straight-curve $-1 -49.281289101840265 -27.646371540575206 0 0 0 -1 I I #
point $-1 -49.281289101840265 -27.646371540575206 -11.437550358715704 #
End-of-ACIS-data 