500 0 9 0           
7 Unknown 11 ACIS 5.0 NT 24 Fri Mar 26 03:18:32 1999 
-1 9.9999999999999995e-007 1e-010 
body $-1 $9 $-1 $10 #
body $-1 $11 $-1 $12 #
body $-1 $13 $-1 $14 #
body $-1 $15 $-1 $16 #
body $-1 $17 $-1 $18 #
body $-1 $19 $-1 $20 #
body $-1 $21 $-1 $22 #
body $-1 $23 $-1 $24 #
body $-1 $25 $-1 $26 #
lump $-1 $-1 $27 $0 #
transform $-1 1 0 0 0 1 0 0 0 1 69.978942228461563 44.863022117088036 21.10849893440259 1 rotate no_reflect no_shear #
lump $-1 $-1 $28 $1 #
transform $-1 1 0 0 0 1 0 0 0 1 69.978942228461563 44.863022117088036 21.10849893440259 1 rotate no_reflect no_shear #
lump $-1 $-1 $29 $2 #
transform $-1 1 0 0 0 1 0 0 0 1 69.978942228461563 44.863022117088036 21.10849893440259 1 rotate no_reflect no_shear #
lump $-1 $-1 $30 $3 #
transform $-1 1 0 0 0 1 0 0 0 1 69.978942228461563 44.863022117088036 21.10849893440259 1 rotate no_reflect no_shear #
lump $-1 $-1 $31 $4 #
transform $-1 1 0 0 0 1 0 0 0 1 69.978942228461563 44.863022117088036 21.10849893440259 1 rotate no_reflect no_shear #
lump $-1 $-1 $32 $5 #
transform $-1 1 0 0 0 1 0 0 0 1 69.978942228461563 44.863022117088036 21.10849893440259 1 rotate no_reflect no_shear #
lump $-1 $-1 $33 $6 #
transform $-1 1 0 0 0 1 0 0 0 1 69.978942228461563 44.863022117088036 21.10849893440259 1 rotate no_reflect no_shear #
lump $-1 $-1 $34 $7 #
transform $-1 1 0 0 0 1 0 0 0 1 69.978942228461563 44.863022117088036 21.10849893440259 1 rotate no_reflect no_shear #
lump $-1 $-1 $35 $8 #
transform $-1 1 0 0 0 1 0 0 0 1 69.978942228461563 44.863022117088036 21.10849893440259 1 rotate no_reflect no_shear #
shell $-1 $-1 $-1 $36 $-1 $9 #
shell $-1 $-1 $-1 $37 $-1 $11 #
shell $-1 $-1 $-1 $38 $-1 $13 #
shell $-1 $-1 $-1 $39 $-1 $15 #
shell $-1 $-1 $-1 $40 $-1 $17 #
shell $-1 $-1 $-1 $41 $-1 $19 #
shell $-1 $-1 $-1 $42 $-1 $21 #
shell $-1 $-1 $-1 $43 $-1 $23 #
shell $-1 $-1 $-1 $44 $-1 $25 #
face $-1 $45 $46 $27 $-1 $47 forward single #
face $-1 $48 $49 $28 $-1 $50 reversed single #
face $-1 $51 $52 $29 $-1 $53 reversed single #
face $-1 $54 $55 $30 $-1 $56 reversed single #
face $-1 $57 $58 $31 $-1 $59 forward single #
face $-1 $60 $61 $32 $-1 $62 reversed single #
face $-1 $63 $64 $33 $-1 $65 forward single #
face $-1 $66 $67 $34 $-1 $68 forward single #
face $-1 $69 $70 $35 $-1 $71 forward single #
face $-1 $72 $73 $27 $-1 $74 reversed single #
loop $-1 $-1 $75 $36 #
plane-surface $-1 0 0 21.10849893440259 0 0 1 1 0 0 forward_v I I I I #
face $-1 $76 $77 $28 $-1 $78 reversed single #
loop $-1 $-1 $79 $37 #
plane-surface $-1 0 -34.088101965662382 16.52347038996102 0 0 1 1 0 0 forward_v I I I I #
face $-1 $80 $81 $29 $-1 $82 reversed single #
loop $-1 $-1 $83 $38 #
plane-surface $-1 0 34.088101965662389 16.52347038996102 0 0 1 1 0 0 forward_v I I I I #
face $-1 $84 $85 $30 $-1 $86 reversed single #
loop $-1 $-1 $87 $39 #
plane-surface $-1 63.071275230634569 6.1570860674614103 214.40457055524826 0 -1 0 -0.68199836817093118 0 -0.7313536940579346 forward_v I I I I #
face $-1 $88 $89 $31 $-1 $90 forward single #
loop $-1 $91 $92 $40 #
cone-surface $-1 66.115344174676537 0.34680084230461716 17.30376701472715 -0.68199836817093118 0 -0.7313536940579346 1.0970305410869019 0 -1.0229975522563968 1 I I 0 1 1.5 forward I I I I #
face $-1 $93 $94 $32 $-1 $95 reversed single #
loop $-1 $-1 $96 $41 #
plane-surface $-1 -175.60649961586498 14.230595357600052 103.83070046283675 0 1 0 -0.75470958851134928 0 0.65605901945558964 forward_v I I I I #
face $-1 $97 $98 $33 $-1 $99 forward single #
loop $-1 $100 $101 $42 #
cone-surface $-1 -65.314314552843157 16.047112648927389 15.94204200099098 0.75470958851134928 0 -0.65605901945558964 0.32802950972779482 0 0.37735479425567464 1 I I 0 1 0.5 forward I I I I #
face $-1 $102 $103 $34 $-1 $104 forward single #
loop $-1 $105 $106 $43 #
cone-surface $-1 -65.314314552843157 18.77188858591839 15.94204200099098 0.75470958851134928 0 -0.65605901945558964 0.32802950972779482 0 0.37735479425567464 1 I I 0 1 0.5 forward I I I I #
face $-1 $107 $108 $35 $-1 $109 forward single #
loop $-1 $110 $111 $44 #
cone-surface $-1 -65.314314552843157 21.496664522909398 15.94204200099098 0.75470958851134928 0 -0.65605901945558964 0.32802950972779482 0 0.37735479425567464 1 I I 0 1 0.5 forward I I I I #
face $-1 $112 $113 $27 $-1 $114 reversed single #
loop $-1 $-1 $115 $45 #
plane-surface $-1 0 0 -21.10849893440259 0 0 1 1 0 0 forward_v I I I I #
coedge $-1 $116 $117 $118 $119 forward $46 $-1 #
face $-1 $120 $121 $28 $-1 $122 reversed single #
loop $-1 $-1 $123 $48 #
plane-surface $-1 0 -23.313181814236728 18.815984662181805 0 -1 0 0 0 -1 forward_v I I I I #
coedge $-1 $124 $125 $126 $127 reversed $49 $-1 #
face $-1 $128 $129 $29 $-1 $130 forward single #
loop $-1 $-1 $131 $51 #
plane-surface $-1 0 23.313181814236735 18.815984662181805 0 1 0 0 0 1 forward_v I I I I #
coedge $-1 $132 $133 $134 $135 reversed $52 $-1 #
face $-1 $136 $137 $30 $-1 $138 reversed single #
loop $-1 $-1 $139 $54 #
plane-surface $-1 -32.379773581642738 0.34680084230461716 112.04585474514394 0.68199836817093118 0 0.7313536940579346 0.7313536940579346 0 -0.68199836817093118 forward_v I I I I #
coedge $-1 $140 $141 $142 $143 reversed $55 $-1 #
face $-1 $-1 $144 $31 $-1 $145 forward single #
loop $-1 $146 $147 $57 #
cone-surface $-1 64.160418861720245 0.34680084230461716 15.207366325276226 -0.68199836817093118 0 -0.7313536940579346 0.54851527054345095 0 -0.51149877612819838 1 I I -0.70710678118654757 0.70710678118654757 0.75 forward I I I I #
loop $-1 $-1 $148 $40 #
coedge $-1 $92 $92 $149 $150 reversed $58 $-1 #
face $-1 $151 $152 $32 $-1 $153 forward single #
loop $-1 $-1 $154 $60 #
plane-surface $-1 -69.978942228461563 18.77188858591839 12.010068020949049 -0.75470958851134928 0 0.65605901945558964 0.65605901945558964 0 0.75470958851134928 forward_v I I I I #
coedge $-1 $155 $156 $157 $158 reversed $61 $-1 #
face $-1 $-1 $159 $33 $-1 $160 forward single #
loop $-1 $161 $162 $63 #
cone-surface $-1 -64.415582043192813 16.047112648927389 15.160785769442256 0.75470958851134928 0 -0.65605901945558964 0.16401475486389741 0 0.18867739712783732 1 I I -0.70710678118654746 0.70710678118654746 0.25 forward I I I I #
loop $-1 $-1 $163 $42 #
coedge $-1 $101 $101 $164 $165 reversed $64 $-1 #
face $-1 $-1 $166 $34 $-1 $167 forward single #
loop $-1 $168 $169 $66 #
cone-surface $-1 -64.415582043192813 18.77188858591839 15.160785769442256 0.75470958851134928 0 -0.65605901945558964 0.16401475486389741 0 0.18867739712783732 1 I I -0.70710678118654746 0.70710678118654746 0.25 forward I I I I #
loop $-1 $-1 $170 $43 #
coedge $-1 $106 $106 $171 $172 reversed $67 $-1 #
face $-1 $-1 $173 $35 $-1 $174 forward single #
loop $-1 $175 $176 $69 #
cone-surface $-1 -64.415582043192813 21.496664522909398 15.160785769442256 0.75470958851134928 0 -0.65605901945558964 0.16401475486389741 0 0.18867739712783732 1 I I -0.70710678118654746 0.70710678118654746 0.25 forward I I I I #
loop $-1 $-1 $177 $44 #
coedge $-1 $111 $111 $178 $179 reversed $70 $-1 #
face $-1 $180 $181 $27 $-1 $182 reversed single #
loop $-1 $-1 $183 $72 #
plane-surface $-1 0 -44.863022117088036 0 0 1 0 0 0 1 forward_v I I I I #
coedge $-1 $184 $185 $186 $187 forward $73 $-1 #
coedge $-1 $188 $75 $189 $190 forward $46 $-1 #
coedge $-1 $75 $188 $191 $192 forward $46 $-1 #
coedge $-1 $193 $194 $75 $119 reversed $195 $-1 #
edge $-1 $196 -44.863022117088036 $197 44.863022117088036 $118 $198 forward 7 unknown #
face $-1 $199 $200 $28 $-1 $201 reversed single #
loop $-1 $-1 $202 $76 #
plane-surface $-1 -69.978942228461563 0 0 1 0 0 0 0 -1 forward_v I I I I #
coedge $-1 $203 $204 $205 $206 reversed $77 $-1 #
coedge $-1 $207 $79 $208 $209 reversed $49 $-1 #
coedge $-1 $79 $207 $203 $210 forward $49 $-1 #
coedge $-1 $205 $211 $79 $127 forward $212 $-1 #
edge $-1 $213 -27.818971134256845 $214 -6.269130831405537 $126 $215 forward 7 unknown #
face $-1 $216 $217 $29 $-1 $218 reversed single #
loop $-1 $-1 $219 $80 #
plane-surface $-1 0 0 21.10849893440259 0 0 1 1 0 0 forward_v I I I I #
coedge $-1 $220 $221 $132 $222 reversed $81 $-1 #
coedge $-1 $223 $83 $131 $222 forward $52 $-1 #
coedge $-1 $83 $223 $224 $225 reversed $52 $-1 #
coedge $-1 $226 $227 $83 $135 forward $217 $-1 #
edge $-1 $228 6.2691308314055405 $229 27.818971134256849 $134 $230 forward 7 unknown #
face $-1 $231 $232 $30 $-1 $233 forward single #
loop $-1 $-1 $234 $84 #
plane-surface $-1 63.071275230634569 -5.463484382852176 214.40457055524826 0 1 0 0.68199836817093118 0 0.7313536940579346 forward_v I I I I #
coedge $-1 $235 $236 $237 $238 reversed $85 $-1 #
coedge $-1 $141 $87 $239 $240 reversed $55 $-1 #
coedge $-1 $87 $140 $235 $241 reversed $55 $-1 #
coedge $-1 $237 $242 $87 $143 forward $232 $-1 #
edge $-1 $243 -38.443304613144278 $244 -33.602961579230467 $142 $245 forward 7 unknown #
loop $-1 $-1 $149 $88 #
plane-surface $-1 -32.379773581642738 0.34680084230461716 112.04585474514394 0.68199836817093118 0 0.7313536940579346 0.7313536940579346 0 -0.68199836817093118 forward_v I I I I #
loop $-1 $-1 $246 $57 #
coedge $-1 $147 $147 $148 $247 reversed $89 $-1 #
coedge $-1 $148 $148 $147 $247 forward $91 $-1 #
coedge $-1 $149 $149 $92 $150 forward $144 $-1 #
edge $-1 $248 0 $248 6.2831853071796004 $149 $249 forward 7 unknown #
face $-1 $250 $251 $32 $-1 $252 forward single #
loop $-1 $-1 $157 $93 #
plane-surface $-1 0 0 21.10849893440259 0 0 1 1 0 0 forward_v I I I I #
coedge $-1 $253 $254 $255 $256 reversed $94 $-1 #
coedge $-1 $156 $96 $257 $258 reversed $61 $-1 #
coedge $-1 $96 $155 $253 $259 reversed $61 $-1 #
coedge $-1 $255 $260 $96 $158 forward $152 $-1 #
edge $-1 $261 17.824307579470926 $262 25.733452705662721 $157 $263 forward 7 unknown #
loop $-1 $-1 $164 $97 #
plane-surface $-1 -69.978942228461563 18.77188858591839 12.010068020949049 -0.75470958851134928 0 0.65605901945558964 0.65605901945558964 0 0.75470958851134928 forward_v I I I I #
loop $-1 $-1 $264 $63 #
coedge $-1 $162 $162 $163 $265 reversed $98 $-1 #
coedge $-1 $163 $163 $162 $265 forward $100 $-1 #
coedge $-1 $164 $164 $101 $165 forward $159 $-1 #
edge $-1 $266 0 $266 6.2831853071796004 $164 $267 forward 7 unknown #
loop $-1 $-1 $171 $102 #
plane-surface $-1 -69.978942228461563 18.77188858591839 12.010068020949049 -0.75470958851134928 0 0.65605901945558964 0.65605901945558964 0 0.75470958851134928 forward_v I I I I #
loop $-1 $-1 $268 $66 #
coedge $-1 $169 $169 $170 $269 reversed $103 $-1 #
coedge $-1 $170 $170 $169 $269 forward $105 $-1 #
coedge $-1 $171 $171 $106 $172 forward $166 $-1 #
edge $-1 $270 0 $270 6.2831853071796004 $171 $271 forward 7 unknown #
loop $-1 $-1 $178 $107 #
plane-surface $-1 -69.978942228461563 18.77188858591839 12.010068020949049 -0.75470958851134928 0 0.65605901945558964 0.65605901945558964 0 0.75470958851134928 forward_v I I I I #
loop $-1 $-1 $272 $69 #
coedge $-1 $176 $176 $177 $273 reversed $108 $-1 #
coedge $-1 $177 $177 $176 $273 forward $110 $-1 #
coedge $-1 $178 $178 $111 $179 forward $173 $-1 #
edge $-1 $274 0 $274 6.2831853071796004 $178 $275 forward 7 unknown #
face $-1 $276 $277 $27 $-1 $278 reversed single #
loop $-1 $-1 $279 $112 #
plane-surface $-1 -69.978942228461563 0 0 1 0 0 0 0 -1 forward_v I I I I #
coedge $-1 $280 $191 $281 $282 forward $113 $-1 #
coedge $-1 $283 $115 $280 $284 forward $73 $-1 #
coedge $-1 $115 $283 $285 $286 forward $73 $-1 #
coedge $-1 $194 $193 $115 $187 reversed $195 $-1 #
edge $-1 $287 -44.863022117088036 $288 44.863022117088036 $186 $289 forward 7 unknown #
coedge $-1 $117 $116 $290 $291 forward $46 $-1 #
coedge $-1 $292 $293 $116 $190 reversed $277 $-1 #
edge $-1 $197 -69.978942228461563 $294 69.978942228461563 $189 $295 forward 7 unknown #
coedge $-1 $183 $296 $117 $192 reversed $113 $-1 #
edge $-1 $297 -69.978942228461563 $196 69.978942228461563 $191 $298 forward 7 unknown #
coedge $-1 $186 $118 $296 $299 forward $195 $-1 #
coedge $-1 $118 $186 $292 $300 reversed $195 $-1 #
loop $-1 $-1 $193 $276 #
vertex $-1 $119 $301 #
vertex $-1 $119 $302 #
straight-curve $-1 69.978942228461563 0 21.10849893440259 0 1 0 I I #
face $-1 $303 $304 $28 $-1 $305 forward single #
loop $-1 $-1 $208 $120 #
plane-surface $-1 0 -44.863022117088036 0 0 1 0 0 0 1 forward_v I I I I #
coedge $-1 $306 $307 $308 $309 forward $121 $-1 #
coedge $-1 $308 $123 $125 $210 reversed $77 $-1 #
coedge $-1 $123 $308 $310 $311 reversed $77 $-1 #
coedge $-1 $312 $126 $123 $206 forward $212 $-1 #
edge $-1 $214 7.1154780588701172 $313 11.700506603311688 $205 $314 forward 7 unknown #
coedge $-1 $125 $124 $306 $315 reversed $49 $-1 #
coedge $-1 $316 $317 $124 $209 forward $200 $-1 #
edge $-1 $318 -69.978942228461563 $213 69.978942228461563 $208 $319 forward 7 unknown #
edge $-1 $320 -69.978942228461563 $214 69.978942228461563 $203 $321 forward 7 unknown #
coedge $-1 $126 $312 $316 $322 forward $212 $-1 #
loop $-1 $-1 $205 $303 #
vertex $-1 $209 $323 #
vertex $-1 $127 $324 #
straight-curve $-1 69.978942228461563 -17.044050982831191 16.52347038996102 0 1 0 I I #
face $-1 $325 $326 $29 $-1 $327 reversed single #
loop $-1 $-1 $227 $128 #
plane-surface $-1 69.978942228461563 0 0 -1 0 0 0 0 1 forward_v I I I I #
coedge $-1 $328 $329 $330 $331 forward $129 $-1 #
coedge $-1 $330 $131 $227 $332 reversed $81 $-1 #
coedge $-1 $131 $330 $333 $334 reversed $81 $-1 #
edge $-1 $228 -69.978942228461563 $335 69.978942228461563 $131 $336 forward 7 unknown #
coedge $-1 $133 $132 $337 $338 reversed $52 $-1 #
coedge $-1 $339 $340 $133 $225 forward $341 $-1 #
edge $-1 $229 -69.978942228461563 $342 69.978942228461563 $224 $343 forward 7 unknown #
coedge $-1 $344 $134 $340 $345 reversed $217 $-1 #
coedge $-1 $134 $344 $220 $332 forward $217 $-1 #
vertex $-1 $135 $346 #
vertex $-1 $225 $347 #
straight-curve $-1 69.978942228461563 17.044050982831195 16.52347038996102 0 1 0 I I #
face $-1 $-1 $348 $30 $-1 $349 reversed single #
loop $-1 $-1 $142 $136 #
plane-surface $-1 0 0 21.10849893440259 0 0 1 1 0 0 forward_v I I I I #
coedge $-1 $350 $351 $352 $353 reversed $137 $-1 #
coedge $-1 $354 $139 $141 $241 forward $85 $-1 #
coedge $-1 $139 $354 $350 $355 forward $85 $-1 #
coedge $-1 $352 $142 $139 $238 forward $232 $-1 #
edge $-1 $244 -5.9836856463091017 $356 5.6368848040044846 $237 $357 forward 7 unknown #
coedge $-1 $358 $359 $140 $240 forward $348 $-1 #
edge $-1 $360 -90.607479344757465 $243 -86.093786343221538 $239 $361 forward 7 unknown #
edge $-1 $244 133.33955043709057 $360 139.9578844569231 $141 $362 forward 7 unknown #
coedge $-1 $142 $352 $358 $363 forward $232 $-1 #
vertex $-1 $240 $364 #
vertex $-1 $143 $365 #
straight-curve $-1 31.535637615317285 6.1570860674614103 21.10849893440259 -1 0 0 I I #
coedge $-1 $246 $246 $-1 $366 reversed $146 $-1 #
edge $-1 $367 0 $367 6.2831853071796004 $147 $368 forward 7 unknown #
vertex $-1 $150 $369 #
ellipse-curve $-1 67.558770711504636 0.34680084230461716 18.851652433634641 0.68199836817093118 0 0.7313536940579346 1.0970305410869019 0 -1.0229975522563968 1 I I #
face $-1 $-1 $370 $32 $-1 $371 reversed single #
loop $-1 $-1 $372 $151 #
plane-surface $-1 0 23.313181814236735 18.815984662181805 0 1 0 0 0 1 forward_v I I I I #
coedge $-1 $373 $154 $156 $259 forward $94 $-1 #
coedge $-1 $154 $373 $372 $374 forward $94 $-1 #
coedge $-1 $375 $157 $154 $256 forward $152 $-1 #
edge $-1 $262 4.8446510646408569 $376 13.927237521277533 $255 $377 forward 7 unknown #
coedge $-1 $378 $379 $155 $258 forward $370 $-1 #
edge $-1 $380 -39.905282210469323 $261 -30.806851297015783 $257 $381 forward 7 unknown #
edge $-1 $262 -12.055539047012809 $380 0 $156 $382 forward 7 unknown #
coedge $-1 $157 $375 $378 $383 forward $152 $-1 #
vertex $-1 $258 $384 #
vertex $-1 $158 $385 #
straight-curve $-1 -87.803249807932488 14.230595357600052 21.10849893440259 1 0 0 I I #
coedge $-1 $264 $264 $-1 $386 reversed $161 $-1 #
edge $-1 $387 0 $387 6.2831853071796004 $162 $388 forward 7 unknown #
vertex $-1 $165 $389 #
ellipse-curve $-1 -66.024369665365668 16.047112648927389 16.559283477675812 -0.75470958851134928 0 0.65605901945558964 0.32802950972779482 0 0.37735479425567464 1 I I #
coedge $-1 $268 $268 $-1 $390 reversed $168 $-1 #
edge $-1 $391 0 $391 6.2831853071796004 $169 $392 forward 7 unknown #
vertex $-1 $172 $393 #
ellipse-curve $-1 -66.024369665365668 18.77188858591839 16.559283477675812 -0.75470958851134928 0 0.65605901945558964 0.32802950972779482 0 0.37735479425567464 1 I I #
coedge $-1 $272 $272 $-1 $394 reversed $175 $-1 #
edge $-1 $395 0 $395 6.2831853071796004 $176 $396 forward 7 unknown #
vertex $-1 $179 $397 #
ellipse-curve $-1 -66.024369665365668 21.496664522909398 16.559283477675812 -0.75470958851134928 0 0.65605901945558964 0.32802950972779482 0 0.37735479425567464 1 I I #
face $-1 $-1 $195 $27 $-1 $398 reversed single #
loop $-1 $-1 $292 $180 #
plane-surface $-1 0 44.863022117088036 0 0 -1 0 0 0 -1 forward_v I I I I #
coedge $-1 $399 $290 $293 $400 forward $181 $-1 #
coedge $-1 $296 $183 $184 $284 reversed $113 $-1 #
coedge $-1 $290 $399 $183 $282 reversed $181 $-1 #
edge $-1 $297 -21.10849893440259 $401 21.10849893440259 $281 $402 forward 7 unknown #
coedge $-1 $185 $184 $399 $403 forward $73 $-1 #
edge $-1 $288 -69.978942228461563 $401 69.978942228461563 $280 $404 forward 7 unknown #
coedge $-1 $293 $292 $185 $286 reversed $277 $-1 #
edge $-1 $405 -69.978942228461563 $287 69.978942228461563 $285 $406 forward 7 unknown #
vertex $-1 $187 $407 #
vertex $-1 $299 $408 #
straight-curve $-1 69.978942228461563 0 -21.10849893440259 0 -1 0 I I #
coedge $-1 $279 $281 $188 $291 reversed $181 $-1 #
edge $-1 $294 -44.863022117088036 $297 44.863022117088036 $290 $409 forward 7 unknown #
coedge $-1 $285 $189 $194 $300 forward $277 $-1 #
coedge $-1 $189 $285 $279 $400 reversed $277 $-1 #
vertex $-1 $190 $410 #
straight-curve $-1 0 44.863022117088036 21.10849893440259 -1 0 0 I I #
coedge $-1 $191 $280 $193 $299 reversed $113 $-1 #
vertex $-1 $291 $411 #
straight-curve $-1 0 -44.863022117088036 21.10849893440259 1 0 0 I I #
edge $-1 $196 -21.10849893440259 $288 21.10849893440259 $193 $412 forward 7 unknown #
edge $-1 $197 -21.10849893440259 $287 21.10849893440259 $194 $413 forward 7 unknown #
point $-1 69.978942228461563 -44.863022117088036 21.10849893440259 #
point $-1 69.978942228461563 44.863022117088036 21.10849893440259 #
face $-1 $-1 $212 $28 $-1 $414 reversed single #
loop $-1 $-1 $310 $199 #
plane-surface $-1 0 0 21.10849893440259 0 0 1 1 0 0 forward_v I I I I #
coedge $-1 $415 $202 $207 $315 forward $121 $-1 #
coedge $-1 $202 $415 $416 $417 reversed $121 $-1 #
coedge $-1 $204 $203 $202 $309 reversed $77 $-1 #
edge $-1 $418 -11.700506603311688 $320 -7.1154780588701172 $202 $419 forward 7 unknown #
coedge $-1 $416 $420 $204 $311 forward $304 $-1 #
edge $-1 $313 -69.978942228461563 $418 69.978942228461563 $310 $421 forward 7 unknown #
coedge $-1 $211 $205 $420 $422 reversed $212 $-1 #
vertex $-1 $206 $423 #
straight-curve $-1 69.978942228461563 -23.313181814236728 9.4079923310909024 0 0 1 I I #
edge $-1 $320 6.269130831405537 $318 27.818971134256845 $306 $424 forward 7 unknown #
coedge $-1 $425 $208 $211 $322 reversed $200 $-1 #
coedge $-1 $208 $425 $415 $426 forward $200 $-1 #
vertex $-1 $209 $427 #
straight-curve $-1 0 -44.863022117088036 16.52347038996102 1 0 0 I I #
vertex $-1 $315 $428 #
straight-curve $-1 0 -23.313181814236728 16.52347038996102 1 0 0 I I #
edge $-1 $429 -21.10849893440259 $213 -16.52347038996102 $211 $430 forward 7 unknown #
point $-1 69.978942228461563 -44.863022117088036 16.52347038996102 #
point $-1 69.978942228461563 -23.313181814236728 16.52347038996102 #
face $-1 $-1 $341 $29 $-1 $431 reversed single #
loop $-1 $-1 $333 $216 #
plane-surface $-1 -69.978942228461563 0 0 1 0 0 0 0 -1 forward_v I I I I #
coedge $-1 $432 $219 $344 $433 forward $129 $-1 #
coedge $-1 $219 $432 $434 $435 forward $129 $-1 #
coedge $-1 $221 $220 $219 $331 reversed $81 $-1 #
edge $-1 $436 -69.978942228461563 $437 69.978942228461563 $219 $438 forward 7 unknown #
edge $-1 $437 -11.700506603311688 $228 -7.1154780588701172 $227 $439 forward 7 unknown #
coedge $-1 $434 $337 $221 $334 forward $326 $-1 #
edge $-1 $335 7.1154780588701172 $436 11.700506603311688 $333 $440 forward 7 unknown #
vertex $-1 $338 $441 #
straight-curve $-1 0 23.313181814236735 16.52347038996102 -1 0 0 I I #
coedge $-1 $333 $442 $223 $338 forward $326 $-1 #
edge $-1 $342 -27.818971134256849 $335 -6.2691308314055405 $337 $443 forward 7 unknown #
coedge $-1 $444 $224 $442 $445 reversed $341 $-1 #
coedge $-1 $224 $444 $226 $345 forward $341 $-1 #
loop $-1 $-1 $224 $325 #
vertex $-1 $225 $446 #
straight-curve $-1 0 44.863022117088036 16.52347038996102 -1 0 0 I I #
coedge $-1 $227 $226 $328 $433 reversed $217 $-1 #
edge $-1 $447 -21.10849893440259 $229 -16.52347038996102 $226 $448 forward 7 unknown #
point $-1 69.978942228461563 23.313181814236735 16.52347038996102 #
point $-1 69.978942228461563 44.863022117088043 16.52347038996102 #
loop $-1 $-1 $239 $231 #
plane-surface $-1 69.978942228461563 0 0 -1 0 0 0 0 1 forward_v I I I I #
coedge $-1 $351 $234 $236 $355 reversed $137 $-1 #
coedge $-1 $234 $350 $449 $450 reversed $137 $-1 #
coedge $-1 $242 $237 $234 $353 forward $232 $-1 #
edge $-1 $356 33.602961579230467 $451 38.443304613144278 $352 $452 forward 7 unknown #
coedge $-1 $236 $235 $359 $453 reversed $85 $-1 #
edge $-1 $454 -139.9578844569231 $356 -133.33955043709057 $350 $455 forward 7 unknown #
vertex $-1 $238 $456 #
straight-curve $-1 65.138599194547766 0.17340042115230858 21.108498934402583 0 -1 0 I I #
coedge $-1 $449 $239 $242 $363 reversed $348 $-1 #
coedge $-1 $239 $449 $354 $453 forward $348 $-1 #
vertex $-1 $240 $457 #
straight-curve $-1 69.978942228461563 6.1570860674614103 107.20228527762413 0 0 1 I I #
straight-curve $-1 -32.379773581642738 6.1570860674614103 112.04585474514394 0.7313536940579346 0 -0.68199836817093118 I I #
edge $-1 $451 -5.463484382852176 $243 6.1570860674614103 $358 $458 forward 7 unknown #
point $-1 69.978942228461563 6.1570860674614103 21.10849893440259 #
point $-1 65.138599194547751 6.1570860674614103 21.10849893440259 #
edge $-1 $459 1 $459 0 $246 $-1 forward 7 unknown #
vertex $-1 $247 $460 #
ellipse-curve $-1 64.671917637848438 0.34680084230461716 15.755881595819677 0.68199836817093118 0 0.7313536940579346 1.0970305410869019 0 -1.0229975522563968 1 I I #
point $-1 68.65580125259153 0.34680084230461716 17.828654881378231 #
loop $-1 $-1 $257 $250 #
plane-surface $-1 -69.978942228461563 0 0 1 0 0 0 0 -1 forward_v I I I I #
coedge $-1 $461 $462 $254 $374 reversed $251 $-1 #
coedge $-1 $254 $253 $379 $463 reversed $94 $-1 #
edge $-1 $464 0 $376 12.055539047012809 $372 $465 forward 7 unknown #
coedge $-1 $260 $255 $462 $466 forward $152 $-1 #
vertex $-1 $466 $467 #
straight-curve $-1 -62.06979710226976 9.385944292959195 21.10849893440259 0 1 0 I I #
coedge $-1 $468 $257 $260 $383 reversed $370 $-1 #
coedge $-1 $257 $468 $373 $463 forward $370 $-1 #
vertex $-1 $258 $469 #
straight-curve $-1 -69.978942228461563 14.230595357600052 51.915350231418373 0 0 1 I I #
straight-curve $-1 -69.978942228461563 14.230595357600052 12.010068020949049 -0.65605901945558964 0 -0.75470958851134928 I I #
edge $-1 $470 -23.313181814236735 $261 -14.230595357600052 $378 $471 forward 7 unknown #
point $-1 -69.978942228461563 14.230595357600052 21.10849893440259 #
point $-1 -62.069797102269767 14.230595357600052 21.10849893440259 #
edge $-1 $472 1 $472 0 $264 $-1 forward 7 unknown #
vertex $-1 $265 $473 #
ellipse-curve $-1 -64.604259440320646 16.047112648927389 15.324800524306154 -0.75470958851134928 0 0.65605901945558964 0.32802950972779482 0 0.37735479425567464 1 I I #
point $-1 -65.69634015563787 16.047112648927389 16.936638271931486 #
edge $-1 $474 1 $474 0 $268 $-1 forward 7 unknown #
vertex $-1 $269 $475 #
ellipse-curve $-1 -64.604259440320646 18.77188858591839 15.324800524306154 -0.75470958851134928 0 0.65605901945558964 0.32802950972779482 0 0.37735479425567464 1 I I #
point $-1 -65.69634015563787 18.77188858591839 16.936638271931486 #
edge $-1 $476 1 $476 0 $272 $-1 forward 7 unknown #
vertex $-1 $273 $477 #
ellipse-curve $-1 -64.604259440320646 21.496664522909398 15.324800524306154 -0.75470958851134928 0 0.65605901945558964 0.32802950972779482 0 0.37735479425567464 1 I I #
point $-1 -65.69634015563787 21.496664522909398 16.936638271931486 #
plane-surface $-1 69.978942228461563 0 0 -1 0 0 0 0 1 forward_v I I I I #
coedge $-1 $281 $279 $283 $403 reversed $181 $-1 #
edge $-1 $294 -21.10849893440259 $405 21.10849893440259 $293 $478 forward 7 unknown #
vertex $-1 $403 $479 #
straight-curve $-1 -69.978942228461563 -44.863022117088036 0 0 0 -1 I I #
edge $-1 $401 -44.863022117088036 $405 44.863022117088036 $399 $480 forward 7 unknown #
straight-curve $-1 0 -44.863022117088036 -21.10849893440259 -1 0 0 I I #
vertex $-1 $286 $481 #
straight-curve $-1 0 44.863022117088036 -21.10849893440259 1 0 0 I I #
point $-1 69.978942228461563 44.863022117088036 -21.10849893440259 #
point $-1 69.978942228461563 -44.863022117088036 -21.10849893440259 #
straight-curve $-1 -69.978942228461563 0 21.10849893440259 0 -1 0 I I #
point $-1 -69.978942228461563 44.863022117088036 21.10849893440259 #
point $-1 -69.978942228461563 -44.863022117088036 21.10849893440259 #
straight-curve $-1 69.978942228461563 -44.863022117088036 0 0 0 -1 I I #
straight-curve $-1 69.978942228461563 44.863022117088036 0 0 0 -1 I I #
plane-surface $-1 69.978942228461563 0 0 -1 0 0 0 0 1 forward_v I I I I #
coedge $-1 $307 $306 $317 $426 reversed $121 $-1 #
coedge $-1 $482 $310 $307 $417 forward $304 $-1 #
edge $-1 $418 23.313181814236728 $483 44.863022117088036 $307 $484 forward 7 unknown #
vertex $-1 $417 $485 #
straight-curve $-1 -69.978942228461563 -23.313181814236728 9.4079923310909024 0 0 -1 I I #
coedge $-1 $310 $482 $312 $422 forward $304 $-1 #
straight-curve $-1 0 -23.313181814236728 21.10849893440259 -1 0 0 I I #
edge $-1 $429 -44.863022117088036 $313 -23.313181814236728 $312 $486 forward 7 unknown #
point $-1 69.978942228461563 -23.313181814236728 21.10849893440259 #
straight-curve $-1 -69.978942228461563 -17.044050982831191 16.52347038996102 0 -1 0 I I #
coedge $-1 $317 $316 $482 $487 reversed $200 $-1 #
edge $-1 $483 -21.10849893440259 $318 -16.52347038996102 $415 $488 forward 7 unknown #
point $-1 -69.978942228461563 -44.863022117088036 16.52347038996102 #
point $-1 -69.978942228461563 -23.313181814236728 16.52347038996102 #
vertex $-1 $422 $489 #
straight-curve $-1 69.978942228461563 -44.863022117088036 0 0 0 -1 I I #
plane-surface $-1 0 44.863022117088036 0 0 -1 0 0 0 -1 forward_v I I I I #
coedge $-1 $329 $328 $444 $490 forward $129 $-1 #
edge $-1 $437 23.313181814236735 $447 44.863022117088036 $344 $491 forward 7 unknown #
coedge $-1 $442 $333 $329 $435 reversed $326 $-1 #
edge $-1 $492 -44.863022117088036 $436 -23.313181814236735 $434 $493 forward 7 unknown #
vertex $-1 $334 $494 #
vertex $-1 $433 $495 #
straight-curve $-1 0 23.313181814236735 21.10849893440259 1 0 0 I I #
straight-curve $-1 69.978942228461563 23.313181814236735 9.4079923310909024 0 0 -1 I I #
straight-curve $-1 -69.978942228461563 23.313181814236735 9.4079923310909024 0 0 1 I I #
point $-1 -69.978942228461563 23.313181814236735 16.52347038996102 #
coedge $-1 $337 $434 $339 $445 forward $326 $-1 #
straight-curve $-1 -69.978942228461563 17.044050982831195 16.52347038996102 0 -1 0 I I #
coedge $-1 $340 $339 $432 $490 reversed $341 $-1 #
edge $-1 $492 -21.10849893440259 $342 -16.52347038996102 $339 $496 forward 7 unknown #
point $-1 -69.978942228461563 44.863022117088043 16.52347038996102 #
vertex $-1 $433 $497 #
straight-curve $-1 69.978942228461563 44.863022117088036 0 0 0 -1 I I #
coedge $-1 $359 $358 $351 $450 forward $348 $-1 #
edge $-1 $451 86.093786343221538 $454 90.607479344757465 $449 $498 forward 7 unknown #
vertex $-1 $363 $499 #
straight-curve $-1 31.535637615317285 -5.463484382852176 21.10849893440259 1 0 0 I I #
edge $-1 $454 -5.6368848040044846 $360 5.9836856463091017 $359 $500 forward 7 unknown #
vertex $-1 $453 $501 #
straight-curve $-1 -32.379773581642738 -5.463484382852176 112.04585474514394 -0.7313536940579346 0 0.68199836817093118 I I #
point $-1 65.138599194547751 -5.463484382852176 21.10849893440259 #
point $-1 69.978942228461563 6.1570860674614103 16.594805932866663 #
straight-curve $-1 69.978942228461563 0 21.10849893440259 0 1 0 I I #
vertex $-1 $366 $502 #
point $-1 65.768948178935347 0.34680084230461716 14.73288404356328 #
coedge $-1 $462 $372 $468 $503 reversed $251 $-1 #
coedge $-1 $372 $461 $375 $466 reversed $251 $-1 #
edge $-1 $464 -13.927237521277533 $380 -4.8446510646408569 $379 $504 forward 7 unknown #
vertex $-1 $503 $505 #
straight-curve $-1 -69.978942228461563 23.313181814236728 12.010068020949049 0.65605901945558964 0 0.75470958851134928 I I #
edge $-1 $376 62.069797102269767 $470 69.978942228461563 $375 $506 forward 7 unknown #
point $-1 -62.069797102269767 23.313181814236728 21.10849893440259 #
coedge $-1 $379 $378 $461 $503 forward $370 $-1 #
point $-1 -69.978942228461563 14.230595357600052 12.010068020949049 #
vertex $-1 $383 $507 #
straight-curve $-1 -69.978942228461563 0 21.10849893440259 0 -1 0 I I #
vertex $-1 $386 $508 #
point $-1 -64.276229930592862 16.047112648927389 15.702155318561829 #
vertex $-1 $390 $509 #
point $-1 -64.276229930592862 18.77188858591839 15.702155318561829 #
vertex $-1 $394 $510 #
point $-1 -64.276229930592862 21.496664522909398 15.702155318561829 #
straight-curve $-1 -69.978942228461563 44.863022117088036 0 0 0 -1 I I #
point $-1 -69.978942228461563 -44.863022117088036 -21.10849893440259 #
straight-curve $-1 -69.978942228461563 0 -21.10849893440259 0 1 0 I I #
point $-1 -69.978942228461563 44.863022117088036 -21.10849893440259 #
coedge $-1 $420 $416 $425 $487 forward $304 $-1 #
vertex $-1 $417 $511 #
straight-curve $-1 -69.978942228461563 0 21.10849893440259 0 -1 0 I I #
point $-1 -69.978942228461563 -23.313181814236728 21.10849893440259 #
straight-curve $-1 69.978942228461563 0 21.10849893440259 0 1 0 I I #
edge $-1 $483 -69.978942228461563 $429 69.978942228461563 $425 $512 forward 7 unknown #
straight-curve $-1 -69.978942228461563 -44.863022117088036 0 0 0 -1 I I #
point $-1 69.978942228461563 -44.863022117088036 21.10849893440259 #
edge $-1 $447 -69.978942228461563 $492 69.978942228461563 $444 $513 forward 7 unknown #
straight-curve $-1 69.978942228461563 0 21.10849893440259 0 1 0 I I #
vertex $-1 $490 $514 #
straight-curve $-1 -69.978942228461563 0 21.10849893440259 0 -1 0 I I #
point $-1 -69.978942228461563 23.313181814236735 21.10849893440259 #
point $-1 69.978942228461563 23.313181814236735 21.10849893440259 #
straight-curve $-1 -69.978942228461563 44.863022117088036 0 0 0 -1 I I #
point $-1 69.978942228461563 44.863022117088036 21.10849893440259 #
straight-curve $-1 69.978942228461563 -5.463484382852176 107.20228527762413 0 0 -1 I I #
point $-1 69.978942228461563 -5.463484382852176 21.10849893440259 #
straight-curve $-1 69.978942228461563 0.17340042115230858 16.594805932866656 0 1 0 I I #
point $-1 69.978942228461563 -5.463484382852176 16.594805932866663 #
point $-1 63.648920085592046 0.34680084230461716 14.658851054732775 #
edge $-1 $470 30.806851297015783 $464 39.905282210469323 $468 $515 forward 7 unknown #
straight-curve $-1 -69.978942228461563 9.385944292959195 12.010068020949049 0 -1 0 I I #
point $-1 -69.978942228461563 23.313181814236728 12.010068020949049 #
straight-curve $-1 0 23.313181814236735 21.10849893440259 -1 0 0 I I #
point $-1 -69.978942228461563 23.313181814236735 21.10849893440259 #
point $-1 -64.22690464606498 16.047112648927389 14.996771014578359 #
point $-1 -64.22690464606498 18.77188858591839 14.996771014578359 #
point $-1 -64.22690464606498 21.496664522909398 14.996771014578359 #
point $-1 -69.978942228461563 -44.863022117088036 21.10849893440259 #
straight-curve $-1 0 -44.863022117088036 21.10849893440259 1 0 0 I I #
straight-curve $-1 0 44.863022117088036 21.10849893440259 -1 0 0 I I #
point $-1 -69.978942228461563 44.863022117088036 21.10849893440259 #
straight-curve $-1 -69.978942228461563 23.313181814236728 51.915350231418373 0 0 -1 I I #
End-of-ACIS-data 