500 0 9 0           
7 Unknown 11 ACIS 5.0 NT 24 Thu Mar 25 20:11:48 1999 
-1 9.9999999999999995e-007 1e-010 
body $-1 $9 $-1 $10 #
body $-1 $11 $-1 $12 #
body $-1 $13 $-1 $14 #
body $-1 $15 $-1 $16 #
body $-1 $17 $-1 $18 #
body $-1 $19 $-1 $20 #
body $-1 $21 $-1 $22 #
body $-1 $23 $-1 $24 #
body $-1 $25 $-1 $26 #
lump $-1 $-1 $27 $0 #
transform $-1 1 0 0 0 1 0 0 0 1 62.875453962828452 35.299634957292042 15.948880754683852 1 rotate no_reflect no_shear #
lump $-1 $-1 $28 $1 #
transform $-1 1 0 0 0 1 0 0 0 1 62.875453962828452 35.299634957292042 15.948880754683852 1 rotate no_reflect no_shear #
lump $-1 $-1 $29 $2 #
transform $-1 1 0 0 0 1 0 0 0 1 62.875453962828452 35.299634957292042 15.948880754683852 1 rotate no_reflect no_shear #
lump $-1 $-1 $30 $3 #
transform $-1 1 0 0 0 1 0 0 0 1 62.875453962828452 35.299634957292042 15.948880754683852 1 rotate no_reflect no_shear #
lump $-1 $-1 $31 $4 #
transform $-1 1 0 0 0 1 0 0 0 1 62.875453962828452 35.299634957292042 15.948880754683852 1 rotate no_reflect no_shear #
lump $-1 $-1 $32 $5 #
transform $-1 1 0 0 0 1 0 0 0 1 62.875453962828452 35.299634957292042 15.948880754683852 1 rotate no_reflect no_shear #
lump $-1 $-1 $33 $6 #
transform $-1 1 0 0 0 1 0 0 0 1 62.875453962828452 35.299634957292042 15.948880754683852 1 rotate no_reflect no_shear #
lump $-1 $-1 $34 $7 #
transform $-1 1 0 0 0 1 0 0 0 1 62.875453962828452 35.299634957292042 15.948880754683852 1 rotate no_reflect no_shear #
lump $-1 $-1 $35 $8 #
transform $-1 1 0 0 0 1 0 0 0 1 62.875453962828452 35.299634957292042 15.948880754683852 1 rotate no_reflect no_shear #
shell $-1 $-1 $-1 $36 $-1 $9 #
shell $-1 $-1 $-1 $37 $-1 $11 #
shell $-1 $-1 $-1 $38 $-1 $13 #
shell $-1 $-1 $-1 $39 $-1 $15 #
shell $-1 $-1 $-1 $40 $-1 $17 #
shell $-1 $-1 $-1 $41 $-1 $19 #
shell $-1 $-1 $-1 $42 $-1 $21 #
shell $-1 $-1 $-1 $43 $-1 $23 #
shell $-1 $-1 $-1 $44 $-1 $25 #
face $-1 $45 $46 $27 $-1 $47 forward single #
face $-1 $48 $49 $28 $-1 $50 forward single #
face $-1 $51 $52 $29 $-1 $53 reversed single #
face $-1 $54 $55 $30 $-1 $56 forward single #
face $-1 $57 $58 $31 $-1 $59 forward single #
face $-1 $60 $61 $32 $-1 $62 reversed single #
face $-1 $63 $64 $33 $-1 $65 forward single #
face $-1 $66 $67 $34 $-1 $68 forward single #
face $-1 $69 $70 $35 $-1 $71 forward single #
face $-1 $72 $73 $27 $-1 $74 reversed single #
loop $-1 $-1 $75 $36 #
plane-surface $-1 0 0 15.948880754683852 0 0 1 1 0 0 forward_v I I I I #
face $-1 $76 $77 $28 $-1 $78 reversed single #
loop $-1 $-1 $79 $37 #
plane-surface $-1 -62.875453962828452 0 0 1 0 0 0 0 -1 forward_v I I I I #
face $-1 $80 $81 $29 $-1 $82 reversed single #
loop $-1 $-1 $83 $38 #
plane-surface $-1 28.826033331453218 108.90348273111617 125.11916294601905 1 0 0 0 -0.86602541151947299 -0.49999998660252726 forward_v I I I I #
face $-1 $84 $85 $30 $-1 $86 forward single #
loop $-1 $87 $88 $39 #
cone-surface $-1 36.023634053877807 28.434936955213193 7.0369015242427704 0 -0.86602541151947299 -0.49999998660252726 1.5 0 0 1 I I 0 1 1.5 forward I I I I #
face $-1 $89 $90 $31 $-1 $91 forward single #
loop $-1 $92 $93 $40 #
cone-surface $-1 46.820035137514672 28.434936955213193 7.0369015242427704 0 -0.86602541151947299 -0.49999998660252726 1.5 0 0 1 I I 0 1 1.5 forward I I I I #
face $-1 $94 $95 $32 $-1 $96 reversed single #
loop $-1 $-1 $97 $41 #
plane-surface $-1 55.187325051679132 -35.299634957292056 0.6860334174667031 0 -0.71933980857756763 0.69465836192734942 1 0 0 forward_v I I I I #
face $-1 $98 $99 $33 $-1 $100 forward single #
loop $-1 $101 $102 $42 #
cone-surface $-1 50.574447704989545 -26.97132671322295 7.3916240023962576 0 0.71933980857756763 -0.69465836192734942 1 0 0 1 I I 0 1 1 forward I I I I #
face $-1 $103 $104 $34 $-1 $105 forward single #
loop $-1 $106 $107 $43 #
cone-surface $-1 55.187325051679132 -26.97132671322295 7.3916240023962576 0 0.71933980857756763 -0.69465836192734942 1 0 0 1 I I 0 1 1 forward I I I I #
face $-1 $108 $109 $35 $-1 $110 forward single #
loop $-1 $111 $112 $44 #
cone-surface $-1 59.800202398368718 -26.97132671322295 7.3916240023962576 0 0.71933980857756763 -0.69465836192734942 1 0 0 1 I I 0 1 1 forward I I I I #
face $-1 $113 $114 $27 $-1 $115 reversed single #
loop $-1 $-1 $116 $45 #
plane-surface $-1 0 0 -15.948880754683852 0 0 1 1 0 0 forward_v I I I I #
coedge $-1 $117 $118 $119 $120 forward $46 $-1 #
face $-1 $121 $122 $28 $-1 $123 forward single #
loop $-1 $-1 $124 $48 #
plane-surface $-1 0 35.299634957292042 0 0 -1 0 0 0 -1 forward_v I I I I #
coedge $-1 $125 $126 $127 $128 forward $49 $-1 #
face $-1 $129 $130 $29 $-1 $131 reversed single #
loop $-1 $-1 $132 $51 #
plane-surface $-1 41.421834595696232 9.4585179510886519e-007 62.243710667934955 0 0.86602541151947299 0.49999998660252726 1 0 0 forward_v I I I I #
coedge $-1 $133 $134 $135 $136 reversed $52 $-1 #
face $-1 $-1 $137 $30 $-1 $138 forward single #
loop $-1 $139 $140 $54 #
cone-surface $-1 36.023634053877807 25.206371121419267 5.1728882376002652 0 -0.86602541151947299 -0.49999998660252726 0.75 0 0 1 I I -0.70710678118654757 0.70710678118654757 0.75 forward I I I I #
loop $-1 $-1 $141 $39 #
coedge $-1 $88 $88 $142 $143 reversed $55 $-1 #
face $-1 $-1 $144 $31 $-1 $145 forward single #
loop $-1 $146 $147 $57 #
cone-surface $-1 46.820035137514672 25.206371121419267 5.1728882376002652 0 -0.86602541151947299 -0.49999998660252726 0.75 0 0 1 I I -0.70710678118654757 0.70710678118654757 0.75 forward I I I I #
loop $-1 $-1 $148 $40 #
coedge $-1 $93 $93 $149 $150 reversed $58 $-1 #
face $-1 $151 $152 $32 $-1 $153 reversed single #
loop $-1 $-1 $154 $60 #
plane-surface $-1 47.499196140529818 -125.75726899298941 88.039953127980453 1 0 0 0 0.71933980857756763 -0.69465836192734942 forward_v I I I I #
coedge $-1 $155 $156 $157 $158 reversed $61 $-1 #
face $-1 $-1 $159 $33 $-1 $160 forward single #
loop $-1 $161 $162 $63 #
cone-surface $-1 50.574447704989545 -25.65292856251871 6.1184617377535702 0 0.71933980857756763 -0.69465836192734942 0.5 0 0 1 I I -0.70710678118654746 0.70710678118654746 0.5 forward I I I I #
loop $-1 $-1 $163 $42 #
coedge $-1 $102 $102 $164 $165 reversed $64 $-1 #
face $-1 $-1 $166 $34 $-1 $167 forward single #
loop $-1 $168 $169 $66 #
cone-surface $-1 55.187325051679132 -25.65292856251871 6.1184617377535702 0 0.71933980857756763 -0.69465836192734942 0.5 0 0 1 I I -0.70710678118654746 0.70710678118654746 0.5 forward I I I I #
loop $-1 $-1 $170 $43 #
coedge $-1 $107 $107 $171 $172 reversed $67 $-1 #
face $-1 $-1 $173 $35 $-1 $174 forward single #
loop $-1 $175 $176 $69 #
cone-surface $-1 59.800202398368718 -25.65292856251871 6.1184617377535702 0 0.71933980857756763 -0.69465836192734942 0.5 0 0 1 I I -0.70710678118654746 0.70710678118654746 0.5 forward I I I I #
loop $-1 $-1 $177 $44 #
coedge $-1 $112 $112 $178 $179 reversed $70 $-1 #
face $-1 $180 $181 $27 $-1 $182 reversed single #
loop $-1 $-1 $183 $72 #
plane-surface $-1 0 -35.299634957292042 0 0 1 0 0 0 1 forward_v I I I I #
coedge $-1 $184 $185 $186 $187 forward $73 $-1 #
coedge $-1 $188 $75 $189 $190 forward $46 $-1 #
coedge $-1 $75 $188 $191 $192 forward $46 $-1 #
coedge $-1 $193 $194 $75 $120 reversed $195 $-1 #
edge $-1 $196 -35.299634957292042 $197 35.299634957292042 $119 $198 forward 7 unknown #
face $-1 $199 $200 $28 $-1 $201 reversed single #
loop $-1 $-1 $127 $76 #
plane-surface $-1 -73.029873241432483 0 -12.40184032950965 0 0 1 1 0 0 forward_v I I I I #
coedge $-1 $202 $203 $126 $204 forward $77 $-1 #
coedge $-1 $205 $79 $206 $207 reversed $49 $-1 #
coedge $-1 $79 $205 $124 $204 reversed $49 $-1 #
coedge $-1 $208 $209 $79 $128 reversed $122 $-1 #
edge $-1 $210 -35.299634957292042 $211 35.299634957292042 $127 $212 forward 7 unknown #
face $-1 $213 $214 $29 $-1 $215 forward single #
loop $-1 $-1 $216 $80 #
plane-surface $-1 54.017635859939247 108.90348273111617 125.11916294601905 -1 0 0 0 0.86602541151947299 0.49999998660252726 forward_v I I I I #
coedge $-1 $217 $218 $219 $220 reversed $81 $-1 #
coedge $-1 $134 $83 $221 $222 reversed $52 $-1 #
coedge $-1 $83 $133 $217 $223 reversed $52 $-1 #
coedge $-1 $219 $224 $83 $136 forward $214 $-1 #
edge $-1 $225 19.152106408266043 $226 27.723408862115097 $135 $227 forward 7 unknown #
loop $-1 $-1 $142 $84 #
plane-surface $-1 41.421834595696232 9.4585179510886519e-007 62.243710667934955 0 0.86602541151947299 0.49999998660252726 1 0 0 forward_v I I I I #
loop $-1 $-1 $228 $54 #
coedge $-1 $140 $140 $141 $229 reversed $85 $-1 #
coedge $-1 $141 $141 $140 $229 forward $87 $-1 #
coedge $-1 $142 $142 $88 $143 forward $137 $-1 #
edge $-1 $230 -1.3428956138391328e-015 $230 6.2831853071795987 $142 $231 forward 7 unknown #
loop $-1 $-1 $149 $89 #
plane-surface $-1 41.421834595696232 9.4585179510886519e-007 62.243710667934955 0 0.86602541151947299 0.49999998660252726 1 0 0 forward_v I I I I #
loop $-1 $-1 $232 $57 #
coedge $-1 $147 $147 $148 $233 reversed $90 $-1 #
coedge $-1 $148 $148 $147 $233 forward $92 $-1 #
coedge $-1 $149 $149 $93 $150 forward $144 $-1 #
edge $-1 $234 -1.3428956138391328e-015 $234 6.2831853071795987 $149 $235 forward 7 unknown #
face $-1 $236 $237 $32 $-1 $238 forward single #
loop $-1 $-1 $239 $94 #
plane-surface $-1 0 -35.299634957292042 0 0 1 0 0 0 1 forward_v I I I I #
coedge $-1 $240 $241 $242 $243 reversed $95 $-1 #
coedge $-1 $244 $97 $245 $246 reversed $61 $-1 #
coedge $-1 $97 $244 $240 $247 forward $61 $-1 #
coedge $-1 $242 $248 $97 $158 forward $237 $-1 #
edge $-1 $249 -35.281791436988883 $250 -19.905533614690253 $157 $251 forward 7 unknown #
loop $-1 $-1 $164 $98 #
plane-surface $-1 55.187325051679132 -35.299634957292056 0.6860334174667031 0 -0.71933980857756763 0.69465836192734942 1 0 0 forward_v I I I I #
loop $-1 $-1 $252 $63 #
coedge $-1 $162 $162 $163 $253 reversed $99 $-1 #
coedge $-1 $163 $163 $162 $253 forward $101 $-1 #
coedge $-1 $164 $164 $102 $165 forward $159 $-1 #
edge $-1 $254 2.2048639251319987e-015 $254 6.2831853071796022 $164 $255 forward 7 unknown #
loop $-1 $-1 $171 $103 #
plane-surface $-1 55.187325051679132 -35.299634957292056 0.6860334174667031 0 -0.71933980857756763 0.69465836192734942 1 0 0 forward_v I I I I #
loop $-1 $-1 $256 $66 #
coedge $-1 $169 $169 $170 $257 reversed $104 $-1 #
coedge $-1 $170 $170 $169 $257 forward $106 $-1 #
coedge $-1 $171 $171 $107 $172 forward $166 $-1 #
edge $-1 $258 2.2048639251319987e-015 $258 6.2831853071796022 $171 $259 forward 7 unknown #
loop $-1 $-1 $178 $108 #
plane-surface $-1 55.187325051679132 -35.299634957292056 0.6860334174667031 0 -0.71933980857756763 0.69465836192734942 1 0 0 forward_v I I I I #
loop $-1 $-1 $260 $69 #
coedge $-1 $176 $176 $177 $261 reversed $109 $-1 #
coedge $-1 $177 $177 $176 $261 forward $111 $-1 #
coedge $-1 $178 $178 $112 $179 forward $173 $-1 #
edge $-1 $262 2.2048639251319987e-015 $262 6.2831853071796022 $178 $263 forward 7 unknown #
face $-1 $264 $265 $27 $-1 $266 reversed single #
loop $-1 $-1 $267 $113 #
plane-surface $-1 -62.875453962828452 0 0 1 0 0 0 0 -1 forward_v I I I I #
coedge $-1 $268 $191 $269 $270 forward $114 $-1 #
coedge $-1 $271 $116 $268 $272 forward $73 $-1 #
coedge $-1 $116 $271 $273 $274 forward $73 $-1 #
coedge $-1 $194 $193 $116 $187 reversed $195 $-1 #
edge $-1 $275 -35.299634957292042 $276 35.299634957292042 $186 $277 forward 7 unknown #
coedge $-1 $118 $117 $278 $279 forward $46 $-1 #
coedge $-1 $280 $281 $117 $190 reversed $265 $-1 #
edge $-1 $197 -62.875453962828452 $282 62.875453962828452 $189 $283 forward 7 unknown #
coedge $-1 $183 $284 $118 $192 reversed $114 $-1 #
edge $-1 $285 -62.875453962828452 $196 62.875453962828452 $191 $286 forward 7 unknown #
coedge $-1 $186 $119 $284 $287 forward $195 $-1 #
coedge $-1 $119 $186 $280 $288 reversed $195 $-1 #
loop $-1 $-1 $193 $264 #
vertex $-1 $120 $289 #
vertex $-1 $120 $290 #
straight-curve $-1 62.875453962828452 0 15.948880754683852 0 1 0 I I #
face $-1 $291 $292 $28 $-1 $293 reversed single #
loop $-1 $-1 $294 $121 #
plane-surface $-1 -83.184292520036522 0 -14.175360542096751 1 0 0 0 0 -1 forward_v I I I I #
coedge $-1 $295 $124 $296 $297 reversed $77 $-1 #
coedge $-1 $124 $295 $208 $298 reversed $77 $-1 #
edge $-1 $210 12.40184032950965 $299 15.948880754683852 $124 $300 forward 7 unknown #
coedge $-1 $126 $125 $301 $302 reversed $49 $-1 #
coedge $-1 $303 $304 $125 $207 forward $305 $-1 #
edge $-1 $306 -15.948880754683852 $211 -12.40184032950965 $206 $307 forward 7 unknown #
coedge $-1 $308 $127 $203 $298 forward $122 $-1 #
coedge $-1 $127 $308 $303 $309 forward $122 $-1 #
vertex $-1 $204 $310 #
vertex $-1 $309 $311 #
straight-curve $-1 -62.875453962828452 0 -12.40184032950965 0 -1 0 I I #
face $-1 $-1 $312 $29 $-1 $313 reversed single #
loop $-1 $-1 $135 $129 #
plane-surface $-1 0 0 15.948880754683852 0 0 1 1 0 0 forward_v I I I I #
coedge $-1 $314 $315 $316 $317 reversed $130 $-1 #
coedge $-1 $318 $132 $134 $223 forward $81 $-1 #
coedge $-1 $132 $318 $314 $319 forward $81 $-1 #
coedge $-1 $316 $135 $132 $220 forward $214 $-1 #
edge $-1 $226 8.1151160336051014 $320 33.306718562091135 $219 $321 forward 7 unknown #
coedge $-1 $322 $323 $133 $222 forward $312 $-1 #
edge $-1 $324 -61.456632585826597 $225 -46.610700718325674 $221 $325 forward 7 unknown #
edge $-1 $226 53.456664547550801 $324 70.599269914584085 $134 $326 forward 7 unknown #
coedge $-1 $135 $316 $322 $327 forward $214 $-1 #
vertex $-1 $222 $328 #
vertex $-1 $136 $329 #
straight-curve $-1 28.826033331453218 54.451741365558085 15.948880754683856 0 -1 0 I I #
coedge $-1 $228 $228 $-1 $330 reversed $139 $-1 #
edge $-1 $331 0 $331 6.2831853071796004 $140 $332 forward 7 unknown #
vertex $-1 $143 $333 #
ellipse-curve $-1 36.023634053877807 31.013983730367521 8.5259148209333819 0 0.86602541151947299 0.49999998660252726 1.5 0 0 1 I I #
coedge $-1 $232 $232 $-1 $334 reversed $146 $-1 #
edge $-1 $335 0 $335 6.2831853071796004 $147 $336 forward 7 unknown #
vertex $-1 $150 $337 #
ellipse-curve $-1 46.820035137514672 31.013983730367521 8.5259148209333819 0 0.86602541151947299 0.49999998660252726 1.5 0 0 1 I I #
face $-1 $-1 $338 $32 $-1 $339 reversed single #
loop $-1 $-1 $242 $151 #
plane-surface $-1 0 0 15.948880754683852 0 0 1 1 0 0 forward_v I I I I #
coedge $-1 $340 $341 $241 $342 forward $152 $-1 #
coedge $-1 $241 $154 $156 $247 reversed $95 $-1 #
coedge $-1 $154 $240 $239 $342 reversed $95 $-1 #
coedge $-1 $343 $157 $154 $243 forward $237 $-1 #
edge $-1 $250 -42.318159534509917 $344 -27.578999539202663 $242 $345 forward 7 unknown #
coedge $-1 $156 $155 $340 $346 reversed $61 $-1 #
coedge $-1 $347 $348 $155 $246 forward $338 $-1 #
edge $-1 $349 -12.013847724433774 $249 9.2040066959938969 $245 $350 forward 7 unknown #
edge $-1 $351 2.0493436377612941e-014 $250 21.217854420427692 $240 $352 forward 7 unknown #
coedge $-1 $157 $343 $347 $353 forward $237 $-1 #
vertex $-1 $246 $354 #
vertex $-1 $158 $355 #
straight-curve $-1 27.593662525839566 -20.560474961984792 15.948880754683852 -1 0 0 I I #
coedge $-1 $252 $252 $-1 $356 reversed $161 $-1 #
edge $-1 $357 0 $357 6.2831853071796004 $162 $358 forward 7 unknown #
vertex $-1 $165 $359 #
ellipse-curve $-1 50.574447704989545 -27.930054959638419 8.317457086075283 0 -0.71933980857756763 0.69465836192734942 1 0 0 1 I I #
coedge $-1 $256 $256 $-1 $360 reversed $168 $-1 #
edge $-1 $361 0 $361 6.2831853071796004 $169 $362 forward 7 unknown #
vertex $-1 $172 $363 #
ellipse-curve $-1 55.187325051679132 -27.930054959638419 8.317457086075283 0 -0.71933980857756763 0.69465836192734942 1 0 0 1 I I #
coedge $-1 $260 $260 $-1 $364 reversed $175 $-1 #
edge $-1 $365 0 $365 6.2831853071796004 $176 $366 forward 7 unknown #
vertex $-1 $179 $367 #
ellipse-curve $-1 59.800202398368718 -27.930054959638419 8.317457086075283 0 -0.71933980857756763 0.69465836192734942 1 0 0 1 I I #
face $-1 $-1 $195 $27 $-1 $368 reversed single #
loop $-1 $-1 $280 $180 #
plane-surface $-1 0 35.299634957292042 0 0 -1 0 0 0 -1 forward_v I I I I #
coedge $-1 $369 $278 $281 $370 forward $181 $-1 #
coedge $-1 $284 $183 $184 $272 reversed $114 $-1 #
coedge $-1 $278 $369 $183 $270 reversed $181 $-1 #
edge $-1 $285 -15.948880754683852 $371 15.948880754683852 $269 $372 forward 7 unknown #
coedge $-1 $185 $184 $369 $373 forward $73 $-1 #
edge $-1 $276 -62.875453962828452 $371 62.875453962828452 $268 $374 forward 7 unknown #
coedge $-1 $281 $280 $185 $274 reversed $265 $-1 #
edge $-1 $375 -62.875453962828452 $275 62.875453962828452 $273 $376 forward 7 unknown #
vertex $-1 $187 $377 #
vertex $-1 $287 $378 #
straight-curve $-1 62.875453962828452 0 -15.948880754683852 0 -1 0 I I #
coedge $-1 $267 $269 $188 $279 reversed $181 $-1 #
edge $-1 $282 -35.299634957292042 $285 35.299634957292042 $278 $379 forward 7 unknown #
coedge $-1 $273 $189 $194 $288 forward $265 $-1 #
coedge $-1 $189 $273 $267 $370 reversed $265 $-1 #
vertex $-1 $190 $380 #
straight-curve $-1 0 35.299634957292042 15.948880754683852 -1 0 0 I I #
coedge $-1 $191 $268 $193 $287 reversed $114 $-1 #
vertex $-1 $279 $381 #
straight-curve $-1 0 -35.299634957292042 15.948880754683852 1 0 0 I I #
edge $-1 $196 -15.948880754683852 $276 15.948880754683852 $193 $382 forward 7 unknown #
edge $-1 $197 -15.948880754683852 $275 15.948880754683852 $194 $383 forward 7 unknown #
point $-1 62.875453962828452 -35.299634957292042 15.948880754683852 #
point $-1 62.875453962828452 35.299634957292042 15.948880754683852 #
face $-1 $-1 $305 $28 $-1 $384 reversed single #
loop $-1 $-1 $301 $199 #
plane-surface $-1 0 0 -15.948880754683852 0 0 1 1 0 0 forward_v I I I I #
coedge $-1 $385 $386 $295 $387 forward $200 $-1 #
coedge $-1 $203 $202 $294 $387 reversed $77 $-1 #
coedge $-1 $301 $388 $202 $297 forward $292 $-1 #
edge $-1 $389 -83.184292520036522 $299 -62.875453962828452 $202 $390 forward 7 unknown #
edge $-1 $210 -10.154419278604031 $391 10.154419278604038 $203 $392 forward 7 unknown #
vertex $-1 $204 $393 #
straight-curve $-1 -62.875453962828452 35.299634957292042 0 0 0 -1 I I #
coedge $-1 $394 $296 $205 $302 forward $292 $-1 #
edge $-1 $299 -35.299634957292042 $306 35.299634957292042 $301 $395 forward 7 unknown #
coedge $-1 $396 $206 $209 $309 reversed $305 $-1 #
coedge $-1 $206 $396 $394 $397 reversed $305 $-1 #
loop $-1 $-1 $206 $291 #
vertex $-1 $397 $398 #
straight-curve $-1 -62.875453962828452 -35.299634957292042 0 0 0 1 I I #
coedge $-1 $209 $208 $386 $399 forward $122 $-1 #
edge $-1 $400 -10.154419278604038 $211 10.154419278604031 $303 $401 forward 7 unknown #
point $-1 -62.875453962828452 35.299634957292042 -12.40184032950965 #
point $-1 -62.875453962828452 -35.299634957292042 -12.40184032950965 #
loop $-1 $-1 $221 $213 #
plane-surface $-1 0 35.299634957292042 0 0 -1 0 0 0 -1 forward_v I I I I #
coedge $-1 $315 $216 $218 $319 reversed $130 $-1 #
coedge $-1 $216 $314 $402 $403 reversed $130 $-1 #
coedge $-1 $224 $219 $216 $317 forward $214 $-1 #
edge $-1 $320 -27.723408862115097 $404 -19.152106408266043 $316 $405 forward 7 unknown #
coedge $-1 $218 $217 $323 $406 reversed $81 $-1 #
edge $-1 $407 -70.599269914584085 $320 -53.456664547550801 $314 $408 forward 7 unknown #
vertex $-1 $220 $409 #
straight-curve $-1 20.710917297848116 26.728332503442985 15.948880754683856 1 0 0 I I #
coedge $-1 $402 $221 $224 $327 reversed $312 $-1 #
coedge $-1 $221 $402 $318 $406 forward $312 $-1 #
vertex $-1 $222 $410 #
straight-curve $-1 28.826033331453218 35.299634957292042 62.559581473009523 0 0 1 I I #
straight-curve $-1 28.826033331453218 9.4585179510886519e-007 62.243710667934955 0 0.49999998660252726 -0.86602541151947299 I I #
edge $-1 $404 -54.017635859939247 $225 -28.826033331453218 $322 $411 forward 7 unknown #
point $-1 28.826033331453218 35.299634957292042 15.948880754683852 #
point $-1 28.826033331453218 26.728332503442989 15.948880754683849 #
edge $-1 $412 1 $412 0 $228 $-1 forward 7 unknown #
vertex $-1 $229 $413 #
ellipse-curve $-1 36.023634053877807 25.855890180058871 5.5478882275521606 0 0.86602541151947299 0.49999998660252726 1.5 0 0 1 I I #
point $-1 37.523634053877807 31.013983730367514 8.5259148209333802 #
edge $-1 $414 1 $414 0 $232 $-1 forward 7 unknown #
vertex $-1 $233 $415 #
ellipse-curve $-1 46.820035137514672 25.855890180058871 5.5478882275521606 0 0.86602541151947299 0.49999998660252726 1.5 0 0 1 I I #
point $-1 48.320035137514672 31.013983730367514 8.5259148209333802 #
loop $-1 $-1 $245 $236 #
plane-surface $-1 62.875453962828452 0 0 -1 0 0 0 0 1 forward_v I I I I #
coedge $-1 $416 $239 $244 $346 forward $152 $-1 #
coedge $-1 $239 $416 $343 $417 reversed $152 $-1 #
edge $-1 $344 28.071095809306374 $351 43.333943146523509 $239 $418 forward 7 unknown #
coedge $-1 $248 $242 $341 $417 forward $237 $-1 #
vertex $-1 $417 $419 #
straight-curve $-1 47.499196140529818 -62.878634496494705 15.948880754683849 0 -1 0 I I #
edge $-1 $351 19.905533614690253 $349 35.281791436988883 $340 $420 forward 7 unknown #
coedge $-1 $348 $245 $248 $353 reversed $338 $-1 #
coedge $-1 $245 $347 $416 $421 forward $338 $-1 #
vertex $-1 $346 $422 #
straight-curve $-1 62.875453962828452 -26.954115176592264 9.328072339840956 0 0.69465836192734942 0.71933980857756763 I I #
vertex $-1 $346 $423 #
straight-curve $-1 47.499196140529818 -35.299634957292056 0.6860334174667031 0 0.69465836192734942 0.71933980857756763 I I #
edge $-1 $424 -35.299634957292042 $249 -20.560474961984788 $347 $425 forward 7 unknown #
point $-1 62.875453962828445 -20.560474961984788 15.948880754683854 #
point $-1 47.499196140529818 -20.560474961984788 15.948880754683854 #
edge $-1 $426 1 $426 0 $252 $-1 forward 7 unknown #
vertex $-1 $253 $427 #
ellipse-curve $-1 50.574447704989545 -26.012598466807493 6.4657909187172447 0 -0.71933980857756763 0.69465836192734942 1 0 0 1 I I #
point $-1 51.574447704989545 -27.930054959638404 8.3174570860752723 #
edge $-1 $428 1 $428 0 $256 $-1 forward 7 unknown #
vertex $-1 $257 $429 #
ellipse-curve $-1 55.187325051679132 -26.012598466807493 6.4657909187172447 0 -0.71933980857756763 0.69465836192734942 1 0 0 1 I I #
point $-1 56.187325051679132 -27.930054959638404 8.3174570860752723 #
edge $-1 $430 1 $430 0 $260 $-1 forward 7 unknown #
vertex $-1 $261 $431 #
ellipse-curve $-1 59.800202398368718 -26.012598466807493 6.4657909187172447 0 -0.71933980857756763 0.69465836192734942 1 0 0 1 I I #
point $-1 60.800202398368718 -27.930054959638404 8.3174570860752723 #
plane-surface $-1 62.875453962828452 0 0 -1 0 0 0 0 1 forward_v I I I I #
coedge $-1 $269 $267 $271 $373 reversed $181 $-1 #
edge $-1 $282 -15.948880754683852 $375 15.948880754683852 $281 $432 forward 7 unknown #
vertex $-1 $373 $433 #
straight-curve $-1 -62.875453962828452 -35.299634957292042 0 0 0 -1 I I #
edge $-1 $371 -35.299634957292042 $375 35.299634957292042 $369 $434 forward 7 unknown #
straight-curve $-1 0 -35.299634957292042 -15.948880754683852 -1 0 0 I I #
vertex $-1 $274 $435 #
straight-curve $-1 0 35.299634957292042 -15.948880754683852 1 0 0 I I #
point $-1 62.875453962828452 35.299634957292042 -15.948880754683852 #
point $-1 62.875453962828452 -35.299634957292042 -15.948880754683852 #
straight-curve $-1 -62.875453962828452 0 15.948880754683852 0 -1 0 I I #
point $-1 -62.875453962828452 35.299634957292042 15.948880754683852 #
point $-1 -62.875453962828452 -35.299634957292042 15.948880754683852 #
straight-curve $-1 62.875453962828452 -35.299634957292042 0 0 0 -1 I I #
straight-curve $-1 62.875453962828452 35.299634957292042 0 0 0 -1 I I #
plane-surface $-1 0 -35.299634957292042 0 0 1 0 0 0 1 forward_v I I I I #
coedge $-1 $436 $294 $388 $437 reversed $200 $-1 #
coedge $-1 $294 $436 $308 $399 reversed $200 $-1 #
edge $-1 $391 -1.7735202125871012 $389 1.7735202125871012 $295 $438 forward 7 unknown #
coedge $-1 $296 $394 $385 $437 forward $292 $-1 #
vertex $-1 $297 $439 #
straight-curve $-1 0 35.299634957292042 -15.948880754683852 1 0 0 I I #
vertex $-1 $298 $440 #
straight-curve $-1 -73.029873241432483 35.299634957292042 -12.40184032950965 -1 0 0 I I #
point $-1 -62.875453962828452 35.299634957292042 -15.948880754683852 #
coedge $-1 $388 $301 $304 $397 forward $292 $-1 #
straight-curve $-1 -62.875453962828452 0 -15.948880754683852 0 -1 0 I I #
coedge $-1 $304 $303 $436 $441 forward $305 $-1 #
edge $-1 $306 -10.154419278604031 $442 10.154419278604038 $304 $443 forward 7 unknown #
point $-1 -62.875453962828452 -35.299634957292042 -15.948880754683852 #
edge $-1 $391 -35.299634957292042 $400 35.299634957292042 $386 $444 forward 7 unknown #
vertex $-1 $399 $445 #
straight-curve $-1 -73.029873241432483 -35.299634957292042 -12.40184032950965 1 0 0 I I #
coedge $-1 $323 $322 $315 $403 forward $312 $-1 #
edge $-1 $404 46.610700718325674 $407 61.456632585826597 $402 $446 forward 7 unknown #
vertex $-1 $327 $447 #
straight-curve $-1 54.017635859939247 54.451741365558085 15.948880754683856 0 1 0 I I #
edge $-1 $407 -33.306718562091135 $324 -8.1151160336051014 $323 $448 forward 7 unknown #
vertex $-1 $406 $449 #
straight-curve $-1 54.017635859939247 9.4585179510886519e-007 62.243710667934955 0 -0.49999998660252726 0.86602541151947299 I I #
point $-1 54.017635859939247 26.728332503442989 15.948880754683849 #
point $-1 28.826033331453218 35.299634957292042 1.1029488871829258 #
straight-curve $-1 0 35.299634957292042 15.948880754683852 -1 0 0 I I #
vertex $-1 $330 $450 #
point $-1 37.523634053877807 25.855890180058871 5.5478882275521606 #
vertex $-1 $334 $451 #
point $-1 48.320035137514672 25.855890180058871 5.5478882275521606 #
coedge $-1 $341 $340 $348 $421 reversed $152 $-1 #
edge $-1 $344 47.499196140529818 $424 62.875453962828452 $341 $452 forward 7 unknown #
straight-curve $-1 47.499196140529818 -35.299634957292042 44.019976563990227 0 0 -1 I I #
point $-1 47.499196140529818 -35.299634957292042 15.948880754683852 #
straight-curve $-1 27.593662525839566 -35.299634957292042 0.68603341746671864 1 0 0 I I #
edge $-1 $424 -15.948880754683852 $349 -0.68603341746671787 $348 $453 forward 7 unknown #
point $-1 62.875453962828445 -35.299634957292042 0.68603341746671787 #
point $-1 47.499196140529818 -35.299634957292042 0.68603341746671787 #
vertex $-1 $353 $454 #
straight-curve $-1 62.875453962828452 0 15.948880754683852 0 1 0 I I #
vertex $-1 $356 $455 #
point $-1 51.574447704989545 -26.012598466807493 6.4657909187172447 #
vertex $-1 $360 $456 #
point $-1 56.187325051679132 -26.012598466807493 6.4657909187172447 #
vertex $-1 $364 $457 #
point $-1 60.800202398368718 -26.012598466807493 6.4657909187172447 #
straight-curve $-1 -62.875453962828452 35.299634957292042 0 0 0 -1 I I #
point $-1 -62.875453962828452 -35.299634957292042 -15.948880754683852 #
straight-curve $-1 -62.875453962828452 0 -15.948880754683852 0 1 0 I I #
point $-1 -62.875453962828452 35.299634957292042 -15.948880754683852 #
coedge $-1 $386 $385 $396 $441 reversed $200 $-1 #
edge $-1 $442 -35.299634957292042 $389 35.299634957292042 $385 $458 forward 7 unknown #
straight-curve $-1 -83.184292520036522 35.299634957292042 -14.175360542096751 0 0 -1 I I #
point $-1 -83.184292520036522 35.299634957292042 -15.948880754683852 #
point $-1 -83.184292520036522 35.299634957292042 -12.40184032950965 #
edge $-1 $400 -1.7735202125871012 $442 1.7735202125871012 $436 $459 forward 7 unknown #
vertex $-1 $437 $460 #
straight-curve $-1 -73.029873241432483 -35.299634957292042 -15.948880754683852 -1 0 0 I I #
straight-curve $-1 -83.184292520036522 0 -12.40184032950965 0 -1 0 I I #
point $-1 -83.184292520036522 -35.299634957292042 -12.40184032950965 #
straight-curve $-1 54.017635859939247 35.299634957292042 62.559581473009523 0 0 -1 I I #
point $-1 54.017635859939247 35.299634957292042 15.948880754683852 #
straight-curve $-1 20.710917297848116 35.299634957292042 1.1029488871829294 -1 0 0 I I #
point $-1 54.017635859939247 35.299634957292042 1.1029488871829258 #
point $-1 36.023634053877807 24.556852062779662 4.7978882476483697 #
point $-1 46.820035137514672 24.556852062779662 4.7978882476483697 #
straight-curve $-1 0 -35.299634957292042 15.948880754683852 1 0 0 I I #
straight-curve $-1 62.875453962828452 -35.299634957292042 0 0 0 -1 I I #
point $-1 62.875453962828452 -35.299634957292042 15.948880754683852 #
point $-1 50.574447704989545 -25.293258658229927 5.7711325567898957 #
point $-1 55.187325051679132 -25.293258658229927 5.7711325567898957 #
point $-1 59.800202398368718 -25.293258658229927 5.7711325567898957 #
straight-curve $-1 -83.184292520036522 0 -15.948880754683852 0 1 0 I I #
straight-curve $-1 -83.184292520036522 -35.299634957292042 -14.175360542096751 0 0 -1 I I #
point $-1 -83.184292520036522 -35.299634957292042 -15.948880754683852 #
End-of-ACIS-data 