500 0 13 0           
7 Unknown 11 ACIS 5.0 NT 24 Thu Mar 25 18:12:07 1999 
-1 9.9999999999999995e-007 1e-010 
body $-1 $13 $-1 $14 #
body $-1 $15 $-1 $16 #
body $-1 $17 $-1 $18 #
body $-1 $19 $-1 $20 #
body $-1 $21 $-1 $22 #
body $-1 $23 $-1 $24 #
body $-1 $25 $-1 $26 #
body $-1 $27 $-1 $28 #
body $-1 $29 $-1 $30 #
body $-1 $31 $-1 $32 #
body $-1 $33 $-1 $34 #
body $-1 $35 $-1 $36 #
body $-1 $37 $-1 $38 #
lump $-1 $-1 $39 $0 #
transform $-1 1 0 0 0 1 0 0 0 1 44.845118564409312 25.659449748731479 8.3329977314432639 1 rotate no_reflect no_shear #
lump $-1 $-1 $40 $1 #
transform $-1 1 0 0 0 1 0 0 0 1 44.845118564409312 25.659449748731479 8.3329977314432639 1 rotate no_reflect no_shear #
lump $-1 $-1 $41 $2 #
transform $-1 1 0 0 0 1 0 0 0 1 44.845118564409312 25.659449748731479 8.3329977314432639 1 rotate no_reflect no_shear #
lump $-1 $-1 $42 $3 #
transform $-1 1 0 0 0 1 0 0 0 1 44.845118564409312 25.659449748731479 8.3329977314432639 1 rotate no_reflect no_shear #
lump $-1 $-1 $43 $4 #
transform $-1 1 0 0 0 1 0 0 0 1 44.845118564409312 25.659449748731479 8.3329977314432639 1 rotate no_reflect no_shear #
lump $-1 $-1 $44 $5 #
transform $-1 1 0 0 0 1 0 0 0 1 44.845118564409312 25.659449748731479 8.3329977314432639 1 rotate no_reflect no_shear #
lump $-1 $-1 $45 $6 #
transform $-1 1 0 0 0 1 0 0 0 1 44.845118564409312 25.659449748731479 8.3329977314432639 1 rotate no_reflect no_shear #
lump $-1 $-1 $46 $7 #
transform $-1 1 0 0 0 1 0 0 0 1 44.845118564409312 25.659449748731479 8.3329977314432639 1 rotate no_reflect no_shear #
lump $-1 $-1 $47 $8 #
transform $-1 1 0 0 0 1 0 0 0 1 44.845118564409312 25.659449748731479 8.3329977314432639 1 rotate no_reflect no_shear #
lump $-1 $-1 $48 $9 #
transform $-1 1 0 0 0 1 0 0 0 1 44.845118564409312 25.659449748731479 8.3329977314432639 1 rotate no_reflect no_shear #
lump $-1 $-1 $49 $10 #
transform $-1 1 0 0 0 1 0 0 0 1 44.845118564409312 25.659449748731479 8.3329977314432639 1 rotate no_reflect no_shear #
lump $-1 $-1 $50 $11 #
transform $-1 1 0 0 0 1 0 0 0 1 44.845118564409312 25.659449748731479 8.3329977314432639 1 rotate no_reflect no_shear #
lump $-1 $-1 $51 $12 #
transform $-1 1 0 0 0 1 0 0 0 1 44.845118564409312 25.659449748731479 8.3329977314432639 1 rotate no_reflect no_shear #
shell $-1 $-1 $-1 $52 $-1 $13 #
shell $-1 $-1 $-1 $53 $-1 $15 #
shell $-1 $-1 $-1 $54 $-1 $17 #
shell $-1 $-1 $-1 $55 $-1 $19 #
shell $-1 $-1 $-1 $56 $-1 $21 #
shell $-1 $-1 $-1 $57 $-1 $23 #
shell $-1 $-1 $-1 $58 $-1 $25 #
shell $-1 $-1 $-1 $59 $-1 $27 #
shell $-1 $-1 $-1 $60 $-1 $29 #
shell $-1 $-1 $-1 $61 $-1 $31 #
shell $-1 $-1 $-1 $62 $-1 $33 #
shell $-1 $-1 $-1 $63 $-1 $35 #
shell $-1 $-1 $-1 $64 $-1 $37 #
face $-1 $65 $66 $39 $-1 $67 reversed single #
face $-1 $68 $69 $40 $-1 $70 forward single #
face $-1 $71 $72 $41 $-1 $73 forward single #
face $-1 $74 $75 $42 $-1 $76 reversed single #
face $-1 $77 $78 $43 $-1 $79 forward single #
face $-1 $80 $81 $44 $-1 $82 reversed single #
face $-1 $83 $84 $45 $-1 $85 forward single #
face $-1 $86 $87 $46 $-1 $88 reversed single #
face $-1 $89 $90 $47 $-1 $91 forward single #
face $-1 $92 $93 $48 $-1 $94 forward single #
face $-1 $95 $96 $49 $-1 $97 reversed single #
face $-1 $98 $99 $50 $-1 $100 forward single #
face $-1 $101 $102 $51 $-1 $103 forward single #
face $-1 $104 $105 $39 $-1 $106 forward single #
loop $-1 $-1 $107 $52 #
plane-surface $-1 44.845118564409312 0 0 -1 0 0 0 0 1 forward_v I I I I #
face $-1 $108 $109 $40 $-1 $110 forward single #
loop $-1 $-1 $111 $53 #
plane-surface $-1 -44.845118564409312 0 0 1 0 0 0 0 -1 forward_v I I I I #
face $-1 $112 $113 $41 $-1 $114 reversed single #
loop $-1 $-1 $115 $54 #
plane-surface $-1 44.845118564409312 0 0 -1 0 0 0 0 1 forward_v I I I I #
face $-1 $116 $117 $42 $-1 $118 reversed single #
loop $-1 $-1 $119 $55 #
plane-surface $-1 -25.389372678564584 52.792083947934842 102.42945686355085 1 0 0 0 -0.70710678939079041 -0.70710677298230451 forward_v I I I I #
face $-1 $120 $121 $43 $-1 $122 forward single #
loop $-1 $123 $124 $56 #
cone-surface $-1 -19.391360364433613 21.707563765308006 4.3811117094953493 0 -0.70710678939079041 -0.70710677298230451 1.5 0 0 1 I I 0 1 1.5 forward I I I I #
face $-1 $125 $126 $44 $-1 $127 reversed single #
loop $-1 $-1 $128 $57 #
plane-surface $-1 13.393348050302631 52.792083947934842 102.42945686355085 1 0 0 0 -0.70710678939079041 -0.70710677298230451 forward_v I I I I #
face $-1 $129 $130 $45 $-1 $131 forward single #
loop $-1 $132 $133 $58 #
cone-surface $-1 19.391360364433602 21.707563765308006 4.3811117094953493 0 -0.70710678939079041 -0.70710677298230451 1.5 0 0 1 I I 0 1 1.5 forward I I I I #
face $-1 $134 $135 $46 $-1 $136 reversed single #
loop $-1 $-1 $137 $59 #
plane-surface $-1 -9.2917540795867524 -96.336321840117904 58.083476016310208 -1 0 0 0 -0.78801076186113728 0.61566146476048833 forward_v I I I I #
face $-1 $138 $139 $47 $-1 $140 forward single #
loop $-1 $141 $142 $60 #
cone-surface $-1 -22.046724938264674 -22.501934987029433 4.8008630723295269 0 0.78801076186113728 -0.61566146476048833 1.5 0 0 1 I I 0 1 1.5 forward I I I I #
face $-1 $143 $144 $48 $-1 $145 forward single #
loop $-1 $146 $147 $61 #
cone-surface $-1 -14.393742423057923 -22.501934987029433 4.8008630723295269 0 0.78801076186113728 -0.61566146476048833 1.5 0 0 1 I I 0 1 1.5 forward I I I I #
face $-1 $148 $149 $49 $-1 $150 reversed single #
loop $-1 $-1 $151 $62 #
plane-surface $-1 27.148713281735834 -96.336321840117904 58.083476016310208 -1 0 0 0 -0.78801076186113728 0.61566146476048833 forward_v I I I I #
face $-1 $152 $153 $50 $-1 $154 forward single #
loop $-1 $155 $156 $63 #
cone-surface $-1 14.393742423057915 -22.501934987029433 4.8008630723295269 0 0.78801076186113728 -0.61566146476048833 1.5 0 0 1 I I 0 1 1.5 forward I I I I #
face $-1 $157 $158 $51 $-1 $159 forward single #
loop $-1 $160 $161 $64 #
cone-surface $-1 22.046724938264667 -22.501934987029433 4.8008630723295269 0 0.78801076186113728 -0.61566146476048833 1.5 0 0 1 I I 0 1 1.5 forward I I I I #
face $-1 $162 $163 $39 $-1 $164 reversed single #
loop $-1 $-1 $165 $65 #
plane-surface $-1 0 0 8.3329977314432639 0 0 1 1 0 0 forward_v I I I I #
coedge $-1 $166 $167 $168 $169 reversed $66 $-1 #
face $-1 $170 $171 $40 $-1 $172 reversed single #
loop $-1 $-1 $173 $68 #
plane-surface $-1 0 0 8.3329977314432639 0 0 1 1 0 0 forward_v I I I I #
coedge $-1 $174 $175 $176 $177 forward $69 $-1 #
face $-1 $178 $179 $41 $-1 $180 reversed single #
loop $-1 $-1 $181 $71 #
plane-surface $-1 0 -25.659449748731479 0 0 1 0 0 0 1 forward_v I I I I #
coedge $-1 $182 $183 $184 $185 forward $72 $-1 #
face $-1 $186 $187 $42 $-1 $188 reversed single #
loop $-1 $-1 $189 $74 #
plane-surface $-1 -19.391360364433613 -10.628491667922759 39.008882719374242 0 0.70710678939079041 0.70710677298230451 1 0 0 forward_v I I I I #
coedge $-1 $190 $191 $192 $193 reversed $75 $-1 #
face $-1 $-1 $194 $43 $-1 $195 forward single #
loop $-1 $196 $197 $77 #
cone-surface $-1 -19.391360364433613 20.031376260121601 2.7049242432050491 0 -0.70710678939079041 -0.70710677298230451 0.75 0 0 1 I I -0.70710678118654757 0.70710678118654757 0.75 forward I I I I #
loop $-1 $-1 $198 $56 #
coedge $-1 $124 $124 $199 $200 reversed $78 $-1 #
face $-1 $201 $202 $44 $-1 $203 reversed single #
loop $-1 $-1 $204 $80 #
plane-surface $-1 19.391360364433602 -10.628491667922759 39.008882719374242 0 0.70710678939079041 0.70710677298230451 1 0 0 forward_v I I I I #
coedge $-1 $205 $206 $207 $208 reversed $81 $-1 #
face $-1 $-1 $209 $45 $-1 $210 forward single #
loop $-1 $211 $212 $83 #
cone-surface $-1 19.391360364433602 20.031376260121601 2.7049242432050491 0 -0.70710678939079041 -0.70710677298230451 0.75 0 0 1 I I -0.70710678118654757 0.70710678118654757 0.75 forward I I I I #
loop $-1 $-1 $213 $58 #
coedge $-1 $133 $133 $214 $215 reversed $84 $-1 #
face $-1 $216 $217 $46 $-1 $218 reversed single #
loop $-1 $-1 $219 $86 #
plane-surface $-1 -18.220233680661298 -25.65944974873149 2.8646532508662048 0 -0.78801076186113728 0.61566146476048833 1 0 0 forward_v I I I I #
coedge $-1 $220 $221 $222 $223 reversed $87 $-1 #
face $-1 $-1 $224 $47 $-1 $225 forward single #
loop $-1 $226 $227 $89 #
cone-surface $-1 -22.046724938264674 -20.889581566628131 3.5411545549339536 0 0.78801076186113728 -0.61566146476048833 0.75 0 0 1 I I -0.70710678118654768 0.70710678118654735 0.75 forward I I I I #
loop $-1 $-1 $228 $60 #
coedge $-1 $142 $142 $229 $230 reversed $90 $-1 #
face $-1 $-1 $231 $48 $-1 $232 forward single #
loop $-1 $233 $234 $92 #
cone-surface $-1 -14.393742423057923 -20.889581566628131 3.5411545549339536 0 0.78801076186113728 -0.61566146476048833 0.75 0 0 1 I I -0.70710678118654768 0.70710678118654735 0.75 forward I I I I #
loop $-1 $-1 $235 $61 #
coedge $-1 $147 $147 $236 $237 reversed $93 $-1 #
face $-1 $238 $239 $49 $-1 $240 reversed single #
loop $-1 $-1 $241 $95 #
plane-surface $-1 18.220233680661288 -25.65944974873149 2.8646532508662048 0 -0.78801076186113728 0.61566146476048833 1 0 0 forward_v I I I I #
coedge $-1 $242 $243 $244 $245 reversed $96 $-1 #
face $-1 $-1 $246 $50 $-1 $247 forward single #
loop $-1 $248 $249 $98 #
cone-surface $-1 14.393742423057915 -20.889581566628131 3.5411545549339536 0 0.78801076186113728 -0.61566146476048833 0.75 0 0 1 I I -0.70710678118654768 0.70710678118654735 0.75 forward I I I I #
loop $-1 $-1 $250 $63 #
coedge $-1 $156 $156 $251 $252 reversed $99 $-1 #
face $-1 $-1 $253 $51 $-1 $254 forward single #
loop $-1 $255 $256 $101 #
cone-surface $-1 22.046724938264667 -20.889581566628131 3.5411545549339536 0 0.78801076186113728 -0.61566146476048833 0.75 0 0 1 I I -0.70710678118654768 0.70710678118654735 0.75 forward I I I I #
loop $-1 $-1 $257 $64 #
coedge $-1 $161 $161 $258 $259 reversed $102 $-1 #
face $-1 $260 $261 $39 $-1 $262 reversed single #
loop $-1 $-1 $168 $104 #
plane-surface $-1 0 0 -8.3329977314432639 0 0 1 1 0 0 forward_v I I I I #
coedge $-1 $263 $264 $265 $266 forward $105 $-1 #
coedge $-1 $265 $107 $267 $268 reversed $66 $-1 #
coedge $-1 $107 $265 $269 $270 forward $66 $-1 #
coedge $-1 $271 $272 $107 $169 forward $163 $-1 #
edge $-1 $273 -25.659449748731479 $274 25.659449748731479 $107 $275 forward 7 unknown #
face $-1 $276 $277 $40 $-1 $278 reversed single #
loop $-1 $-1 $279 $108 #
plane-surface $-1 -53.857558113507444 -24.159449748731479 0 1 0 0 0 0 -1 forward_v I I I I #
coedge $-1 $280 $281 $174 $282 forward $109 $-1 #
coedge $-1 $283 $111 $173 $282 reversed $69 $-1 #
coedge $-1 $111 $283 $284 $285 reversed $69 $-1 #
coedge $-1 $286 $287 $111 $177 reversed $277 $-1 #
edge $-1 $288 -8.3329977314432639 $289 8.3329977314432639 $176 $290 forward 7 unknown #
face $-1 $291 $292 $41 $-1 $293 reversed single #
loop $-1 $-1 $294 $112 #
plane-surface $-1 0 0 -8.3329977314432639 0 0 1 1 0 0 forward_v I I I I #
coedge $-1 $295 $296 $297 $298 forward $113 $-1 #
coedge $-1 $297 $115 $294 $299 reversed $72 $-1 #
coedge $-1 $115 $297 $300 $301 reversed $72 $-1 #
coedge $-1 $302 $303 $115 $185 reversed $292 $-1 #
edge $-1 $304 -8.3329977314432639 $305 8.3329977314432639 $184 $306 forward 7 unknown #
face $-1 $307 $308 $42 $-1 $309 reversed single #
loop $-1 $-1 $310 $116 #
plane-surface $-1 -13.393348050302642 52.792083947934842 102.42945686355085 -1 0 0 0 0.70710678939079041 0.70710677298230451 forward_v I I I I #
coedge $-1 $311 $312 $313 $314 reversed $117 $-1 #
coedge $-1 $191 $119 $315 $316 reversed $75 $-1 #
coedge $-1 $119 $190 $311 $317 reversed $75 $-1 #
coedge $-1 $313 $318 $119 $193 forward $319 $-1 #
edge $-1 $320 0.73659222523594181 $321 6.3486493657962768 $192 $322 forward 7 unknown #
loop $-1 $-1 $199 $120 #
plane-surface $-1 -19.391360364433613 -10.628491667922759 39.008882719374242 0 0.70710678939079041 0.70710677298230451 1 0 0 forward_v I I I I #
loop $-1 $-1 $323 $77 #
coedge $-1 $197 $197 $198 $324 reversed $121 $-1 #
coedge $-1 $198 $198 $197 $324 forward $123 $-1 #
coedge $-1 $199 $199 $124 $200 forward $194 $-1 #
edge $-1 $325 -4.1869140489976383e-016 $325 6.2831853071796004 $199 $326 forward 7 unknown #
face $-1 $327 $328 $44 $-1 $329 forward single #
loop $-1 $-1 $330 $125 #
plane-surface $-1 25.389372678564573 52.792083947934842 102.42945686355085 -1 0 0 0 0.70710678939079041 0.70710677298230451 forward_v I I I I #
coedge $-1 $331 $332 $333 $334 reversed $126 $-1 #
coedge $-1 $206 $128 $335 $336 reversed $81 $-1 #
coedge $-1 $128 $205 $331 $337 reversed $81 $-1 #
coedge $-1 $333 $338 $128 $208 forward $328 $-1 #
edge $-1 $339 0.73659222523594181 $340 6.3486493657962768 $207 $341 forward 7 unknown #
loop $-1 $-1 $214 $129 #
plane-surface $-1 19.391360364433602 -10.628491667922759 39.008882719374242 0 0.70710678939079041 0.70710677298230451 1 0 0 forward_v I I I I #
loop $-1 $-1 $342 $83 #
coedge $-1 $212 $212 $213 $343 reversed $130 $-1 #
coedge $-1 $213 $213 $212 $343 forward $132 $-1 #
coedge $-1 $214 $214 $133 $215 forward $209 $-1 #
edge $-1 $344 -4.1869140489976383e-016 $344 6.2831853071796004 $214 $345 forward 7 unknown #
face $-1 $346 $347 $46 $-1 $348 forward single #
loop $-1 $-1 $349 $134 #
plane-surface $-1 -27.148713281735844 -96.336321840117904 58.083476016310208 1 0 0 0 0.78801076186113728 -0.61566146476048833 forward_v I I I I #
coedge $-1 $350 $351 $352 $353 reversed $135 $-1 #
coedge $-1 $221 $137 $354 $355 reversed $87 $-1 #
coedge $-1 $137 $220 $350 $356 reversed $87 $-1 #
coedge $-1 $352 $357 $137 $223 forward $347 $-1 #
edge $-1 $358 22.508711171327473 $359 26.781049996720654 $222 $360 forward 7 unknown #
loop $-1 $-1 $229 $138 #
plane-surface $-1 -18.220233680661298 -25.65944974873149 2.8646532508662048 0 -0.78801076186113728 0.61566146476048833 1 0 0 forward_v I I I I #
loop $-1 $-1 $361 $89 #
coedge $-1 $227 $227 $228 $362 reversed $139 $-1 #
coedge $-1 $228 $228 $227 $362 forward $141 $-1 #
coedge $-1 $229 $229 $142 $230 forward $224 $-1 #
edge $-1 $363 1.1678193044718628e-016 $363 6.2831853071796004 $229 $364 forward 7 unknown #
loop $-1 $-1 $236 $143 #
plane-surface $-1 -18.220233680661298 -25.65944974873149 2.8646532508662048 0 -0.78801076186113728 0.61566146476048833 1 0 0 forward_v I I I I #
loop $-1 $-1 $365 $92 #
coedge $-1 $234 $234 $235 $366 reversed $144 $-1 #
coedge $-1 $235 $235 $234 $366 forward $146 $-1 #
coedge $-1 $236 $236 $147 $237 forward $231 $-1 #
edge $-1 $367 1.1678193044718628e-016 $367 6.2831853071796004 $236 $368 forward 7 unknown #
face $-1 $369 $370 $49 $-1 $371 reversed single #
loop $-1 $-1 $372 $148 #
plane-surface $-1 9.2917540795867417 -96.336321840117904 58.083476016310208 1 0 0 0 0.78801076186113728 -0.61566146476048833 forward_v I I I I #
coedge $-1 $373 $374 $375 $376 reversed $149 $-1 #
coedge $-1 $243 $151 $377 $378 reversed $96 $-1 #
coedge $-1 $151 $242 $373 $379 reversed $96 $-1 #
coedge $-1 $375 $380 $151 $245 forward $381 $-1 #
edge $-1 $382 22.508711171327473 $383 26.781049996720654 $244 $384 forward 7 unknown #
loop $-1 $-1 $251 $152 #
plane-surface $-1 18.220233680661288 -25.65944974873149 2.8646532508662048 0 -0.78801076186113728 0.61566146476048833 1 0 0 forward_v I I I I #
loop $-1 $-1 $385 $98 #
coedge $-1 $249 $249 $250 $386 reversed $153 $-1 #
coedge $-1 $250 $250 $249 $386 forward $155 $-1 #
coedge $-1 $251 $251 $156 $252 forward $246 $-1 #
edge $-1 $387 1.1678193044718628e-016 $387 6.2831853071796004 $251 $388 forward 7 unknown #
loop $-1 $-1 $258 $157 #
plane-surface $-1 18.220233680661288 -25.65944974873149 2.8646532508662048 0 -0.78801076186113728 0.61566146476048833 1 0 0 forward_v I I I I #
loop $-1 $-1 $389 $101 #
coedge $-1 $256 $256 $257 $390 reversed $158 $-1 #
coedge $-1 $257 $257 $256 $390 forward $160 $-1 #
coedge $-1 $258 $258 $161 $259 forward $253 $-1 #
edge $-1 $391 1.1678193044718628e-016 $391 6.2831853071796004 $258 $392 forward 7 unknown #
face $-1 $393 $394 $39 $-1 $395 reversed single #
loop $-1 $-1 $396 $162 #
plane-surface $-1 0 -25.659449748731479 0 0 1 0 0 0 1 forward_v I I I I #
coedge $-1 $397 $165 $398 $399 forward $105 $-1 #
coedge $-1 $165 $397 $400 $401 forward $105 $-1 #
coedge $-1 $167 $166 $165 $266 reversed $66 $-1 #
edge $-1 $402 -25.659449748731479 $403 25.659449748731479 $265 $404 forward 7 unknown #
coedge $-1 $405 $398 $166 $268 forward $406 $-1 #
edge $-1 $403 -8.3329977314432639 $273 8.3329977314432639 $166 $407 forward 7 unknown #
coedge $-1 $400 $408 $167 $270 reversed $261 $-1 #
edge $-1 $402 -8.3329977314432639 $274 8.3329977314432639 $167 $409 forward 7 unknown #
coedge $-1 $410 $168 $408 $411 forward $163 $-1 #
coedge $-1 $168 $410 $405 $412 forward $163 $-1 #
vertex $-1 $169 $413 #
vertex $-1 $270 $414 #
straight-curve $-1 44.845118564409312 0 -8.3329977314432639 0 -1 0 I I #
face $-1 $415 $416 $40 $-1 $417 reversed single #
loop $-1 $-1 $176 $170 #
plane-surface $-1 -49.351338338958378 -22.659449748731479 0 0 -1 0 0 0 -1 forward_v I I I I #
coedge $-1 $418 $419 $420 $421 forward $171 $-1 #
coedge $-1 $422 $173 $287 $423 forward $109 $-1 #
coedge $-1 $173 $422 $424 $425 forward $109 $-1 #
edge $-1 $426 -25.659449748731479 $289 -22.659449748731479 $173 $427 forward 7 unknown #
coedge $-1 $175 $174 $428 $429 reversed $69 $-1 #
coedge $-1 $430 $431 $175 $285 forward $416 $-1 #
edge $-1 $288 22.659449748731479 $432 25.659449748731479 $284 $433 forward 7 unknown #
coedge $-1 $420 $176 $431 $434 reversed $277 $-1 #
coedge $-1 $176 $420 $280 $423 reversed $277 $-1 #
vertex $-1 $285 $435 #
vertex $-1 $423 $436 #
straight-curve $-1 -44.845118564409312 -22.659449748731479 0 0 0 1 I I #
face $-1 $437 $438 $41 $-1 $439 reversed single #
loop $-1 $-1 $440 $178 #
plane-surface $-1 49.351338338958378 -22.659449748731479 0 0 -1 0 0 0 -1 forward_v I I I I #
coedge $-1 $441 $442 $182 $299 forward $179 $-1 #
coedge $-1 $443 $181 $442 $444 reversed $113 $-1 #
coedge $-1 $181 $443 $445 $446 reversed $113 $-1 #
coedge $-1 $183 $182 $181 $298 reversed $72 $-1 #
edge $-1 $447 -8.3329977314432639 $448 8.3329977314432639 $181 $449 forward 7 unknown #
edge $-1 $448 -25.659449748731479 $305 -22.659449748731479 $294 $450 forward 7 unknown #
coedge $-1 $445 $451 $183 $301 forward $452 $-1 #
edge $-1 $304 22.659449748731479 $447 25.659449748731479 $300 $453 forward 7 unknown #
coedge $-1 $440 $184 $451 $454 reversed $292 $-1 #
coedge $-1 $184 $440 $441 $455 reversed $292 $-1 #
vertex $-1 $301 $456 #
vertex $-1 $455 $457 #
straight-curve $-1 44.845118564409312 -22.659449748731479 0 0 0 -1 I I #
face $-1 $-1 $319 $42 $-1 $458 forward single #
loop $-1 $-1 $459 $186 #
plane-surface $-1 0 25.659449748731479 0 0 -1 0 0 0 -1 forward_v I I I I #
coedge $-1 $460 $461 $462 $463 reversed $187 $-1 #
coedge $-1 $464 $189 $191 $317 forward $117 $-1 #
coedge $-1 $189 $464 $460 $465 forward $117 $-1 #
coedge $-1 $462 $192 $189 $314 forward $319 $-1 #
edge $-1 $321 -15.693692496347778 $466 -3.6976678680858353 $313 $467 forward 7 unknown #
coedge $-1 $468 $469 $190 $316 forward $308 $-1 #
edge $-1 $470 -48.493787971120859 $320 -42.881730700332163 $315 $471 forward 7 unknown #
edge $-1 $321 43.382252084384412 $470 51.318899497462958 $191 $472 forward 7 unknown #
coedge $-1 $192 $462 $468 $473 forward $319 $-1 #
loop $-1 $-1 $462 $307 #
vertex $-1 $316 $474 #
vertex $-1 $193 $475 #
straight-curve $-1 -25.389372678564584 26.396041973967421 8.3329977314432639 0 -1 0 I I #
coedge $-1 $323 $323 $-1 $476 reversed $196 $-1 #
edge $-1 $477 0 $477 6.2831853071796004 $197 $478 forward 7 unknown #
vertex $-1 $200 $479 #
ellipse-curve $-1 -19.391360364433613 22.85342117845131 5.526969096048914 0 0.70710678939079041 0.70710677298230451 1.5 0 0 1 I I #
face $-1 $-1 $480 $44 $-1 $481 reversed single #
loop $-1 $-1 $207 $201 #
plane-surface $-1 0 0 8.3329977314432639 0 0 1 1 0 0 forward_v I I I I #
coedge $-1 $482 $483 $484 $485 reversed $202 $-1 #
coedge $-1 $486 $204 $206 $337 forward $126 $-1 #
coedge $-1 $204 $486 $482 $487 forward $126 $-1 #
coedge $-1 $484 $207 $204 $334 forward $328 $-1 #
edge $-1 $340 3.6976678680858299 $488 15.693692496347772 $333 $489 forward 7 unknown #
coedge $-1 $490 $491 $205 $336 forward $480 $-1 #
edge $-1 $492 -48.493787971120859 $339 -42.881730700332163 $335 $493 forward 7 unknown #
edge $-1 $340 43.382252084384412 $492 51.318899497462958 $206 $494 forward 7 unknown #
coedge $-1 $207 $484 $490 $495 forward $328 $-1 #
vertex $-1 $208 $496 #
vertex $-1 $208 $497 #
straight-curve $-1 13.393348050302631 26.396041973967421 8.3329977314432639 0 -1 0 I I #
coedge $-1 $342 $342 $-1 $498 reversed $211 $-1 #
edge $-1 $499 0 $499 6.2831853071796004 $212 $500 forward 7 unknown #
vertex $-1 $215 $501 #
ellipse-curve $-1 19.391360364433602 22.85342117845131 5.526969096048914 0 0.70710678939079041 0.70710677298230451 1.5 0 0 1 I I #
face $-1 $-1 $502 $46 $-1 $503 reversed single #
loop $-1 $-1 $222 $216 #
plane-surface $-1 0 0 8.3329977314432639 0 0 1 1 0 0 forward_v I I I I #
coedge $-1 $504 $505 $506 $507 reversed $217 $-1 #
coedge $-1 $508 $219 $221 $356 forward $135 $-1 #
coedge $-1 $219 $508 $504 $509 forward $135 $-1 #
coedge $-1 $506 $222 $219 $353 forward $347 $-1 #
edge $-1 $359 0.1816372392561032 $510 18.038596441405197 $352 $511 forward 7 unknown #
coedge $-1 $512 $513 $220 $355 forward $502 $-1 #
edge $-1 $514 -26.177084757288885 $358 -20.70874027671184 $354 $515 forward 7 unknown #
edge $-1 $359 -6.93942867945335 $514 -1.7410166096330825e-014 $221 $516 forward 7 unknown #
coedge $-1 $222 $506 $512 $517 forward $347 $-1 #
vertex $-1 $223 $518 #
vertex $-1 $223 $519 #
straight-curve $-1 -9.2917540795867524 -48.168160920058952 8.3329977314432639 0 1 0 I I #
coedge $-1 $361 $361 $-1 $520 reversed $226 $-1 #
edge $-1 $521 0 $521 6.2831853071796004 $227 $522 forward 7 unknown #
vertex $-1 $230 $523 #
ellipse-curve $-1 -22.046724938264674 -23.52328033603489 5.5988254911547397 0 -0.78801076186113728 0.61566146476048833 1.5 0 0 1 I I #
coedge $-1 $365 $365 $-1 $524 reversed $233 $-1 #
edge $-1 $525 0 $525 6.2831853071796004 $234 $526 forward 7 unknown #
vertex $-1 $237 $527 #
ellipse-curve $-1 -14.393742423057923 -23.52328033603489 5.5988254911547397 0 -0.78801076186113728 0.61566146476048833 1.5 0 0 1 I I #
face $-1 $-1 $381 $49 $-1 $528 forward single #
loop $-1 $-1 $529 $238 #
plane-surface $-1 0 -25.659449748731479 0 0 1 0 0 0 1 forward_v I I I I #
coedge $-1 $530 $531 $532 $533 reversed $239 $-1 #
coedge $-1 $534 $241 $243 $379 forward $149 $-1 #
coedge $-1 $241 $534 $530 $535 forward $149 $-1 #
coedge $-1 $532 $244 $241 $376 forward $381 $-1 #
edge $-1 $383 -18.03859644140519 $536 -0.18163723925609787 $375 $537 forward 7 unknown #
coedge $-1 $538 $539 $242 $378 forward $370 $-1 #
edge $-1 $540 -26.177084757288885 $382 -20.70874027671184 $377 $541 forward 7 unknown #
edge $-1 $383 -6.93942867945335 $540 -1.7410166096330825e-014 $243 $542 forward 7 unknown #
coedge $-1 $244 $532 $538 $543 forward $381 $-1 #
loop $-1 $-1 $532 $369 #
vertex $-1 $378 $544 #
vertex $-1 $245 $545 #
straight-curve $-1 27.148713281735834 -48.168160920058952 8.3329977314432639 0 1 0 I I #
coedge $-1 $385 $385 $-1 $546 reversed $248 $-1 #
edge $-1 $547 0 $547 6.2831853071796004 $249 $548 forward 7 unknown #
vertex $-1 $252 $549 #
ellipse-curve $-1 14.393742423057915 -23.52328033603489 5.5988254911547397 0 -0.78801076186113728 0.61566146476048833 1.5 0 0 1 I I #
coedge $-1 $389 $389 $-1 $550 reversed $255 $-1 #
edge $-1 $551 0 $551 6.2831853071796004 $256 $552 forward 7 unknown #
vertex $-1 $259 $553 #
ellipse-curve $-1 22.046724938264667 -23.52328033603489 5.5988254911547397 0 -0.78801076186113728 0.61566146476048833 1.5 0 0 1 I I #
face $-1 $-1 $406 $39 $-1 $554 reversed single #
loop $-1 $-1 $555 $260 #
plane-surface $-1 -44.845118564409312 0 0 1 0 0 0 0 -1 forward_v I I I I #
coedge $-1 $408 $400 $556 $557 forward $261 $-1 #
coedge $-1 $264 $263 $555 $558 forward $105 $-1 #
coedge $-1 $267 $559 $263 $399 reversed $406 $-1 #
edge $-1 $403 -44.845118564409312 $560 44.845118564409312 $398 $561 forward 7 unknown #
coedge $-1 $396 $269 $264 $401 reversed $261 $-1 #
edge $-1 $562 -44.845118564409312 $402 44.845118564409312 $400 $563 forward 7 unknown #
vertex $-1 $266 $564 #
vertex $-1 $266 $565 #
straight-curve $-1 44.845118564409312 0 8.3329977314432639 0 1 0 I I #
coedge $-1 $559 $267 $272 $412 reversed $406 $-1 #
loop $-1 $-1 $267 $393 #
straight-curve $-1 44.845118564409312 25.659449748731479 0 0 0 -1 I I #
coedge $-1 $269 $396 $271 $411 reversed $261 $-1 #
straight-curve $-1 44.845118564409312 -25.659449748731479 0 0 0 -1 I I #
coedge $-1 $272 $271 $566 $567 forward $163 $-1 #
edge $-1 $274 -44.845118564409312 $568 44.845118564409312 $408 $569 forward 7 unknown #
edge $-1 $570 -44.845118564409312 $273 44.845118564409312 $405 $571 forward 7 unknown #
point $-1 44.845118564409312 25.659449748731479 -8.3329977314432639 #
point $-1 44.845118564409312 -25.659449748731479 -8.3329977314432639 #
face $-1 $-1 $572 $40 $-1 $573 reversed single #
loop $-1 $-1 $284 $276 #
plane-surface $-1 0 0 -8.3329977314432639 0 0 1 1 0 0 forward_v I I I I #
coedge $-1 $574 $279 $575 $576 reversed $171 $-1 #
coedge $-1 $279 $574 $422 $577 reversed $171 $-1 #
coedge $-1 $287 $286 $279 $421 reversed $277 $-1 #
edge $-1 $578 -8.3329977314432639 $579 8.3329977314432639 $420 $580 forward 7 unknown #
coedge $-1 $281 $280 $419 $577 forward $109 $-1 #
edge $-1 $289 -4.5062197745490664 $578 4.5062197745490664 $287 $581 forward 7 unknown #
coedge $-1 $582 $428 $281 $425 reversed $572 $-1 #
edge $-1 $583 -53.857558113507444 $426 -44.845118564409312 $424 $584 forward 7 unknown #
vertex $-1 $429 $585 #
straight-curve $-1 -44.845118564409312 0 8.3329977314432639 0 1 0 I I #
coedge $-1 $424 $586 $283 $429 forward $572 $-1 #
edge $-1 $432 -8.3329977314432639 $426 8.3329977314432639 $428 $587 forward 7 unknown #
coedge $-1 $575 $284 $586 $588 forward $416 $-1 #
coedge $-1 $284 $575 $286 $434 forward $416 $-1 #
vertex $-1 $588 $589 #
straight-curve $-1 -44.845118564409312 0 -8.3329977314432639 0 -1 0 I I #
edge $-1 $579 -4.5062197745490664 $288 4.5062197745490664 $286 $590 forward 7 unknown #
point $-1 -44.845118564409312 -22.659449748731479 -8.3329977314432639 #
point $-1 -44.845118564409312 -22.659449748731479 8.3329977314432639 #
face $-1 $-1 $452 $41 $-1 $591 forward single #
loop $-1 $-1 $592 $291 #
plane-surface $-1 53.857558113507444 -24.159449748731479 0 -1 0 0 0 0 1 forward_v I I I I #
coedge $-1 $303 $302 $593 $594 forward $292 $-1 #
coedge $-1 $595 $294 $303 $455 forward $179 $-1 #
coedge $-1 $294 $595 $295 $444 forward $179 $-1 #
coedge $-1 $296 $295 $592 $596 reversed $113 $-1 #
edge $-1 $597 -4.5062197745490664 $448 4.5062197745490664 $295 $598 forward 7 unknown #
coedge $-1 $599 $300 $296 $446 forward $452 $-1 #
edge $-1 $447 -4.5062197745490664 $600 4.5062197745490664 $296 $601 forward 7 unknown #
vertex $-1 $446 $602 #
vertex $-1 $299 $603 #
straight-curve $-1 44.845118564409312 -25.659449748731479 0 0 0 -1 I I #
straight-curve $-1 44.845118564409312 0 -8.3329977314432639 0 1 0 I I #
coedge $-1 $300 $599 $302 $454 forward $452 $-1 #
loop $-1 $-1 $300 $437 #
straight-curve $-1 44.845118564409312 0 8.3329977314432639 0 -1 0 I I #
edge $-1 $604 -4.5062197745490664 $304 4.5062197745490664 $302 $605 forward 7 unknown #
edge $-1 $305 -4.5062197745490664 $606 4.5062197745490664 $303 $607 forward 7 unknown #
point $-1 44.845118564409312 -22.659449748731479 8.3329977314432639 #
point $-1 44.845118564409312 -22.659449748731479 -8.3329977314432639 #
plane-surface $-1 0 0 8.3329977314432639 0 0 1 1 0 0 forward_v I I I I #
coedge $-1 $469 $468 $461 $608 forward $308 $-1 #
coedge $-1 $461 $310 $312 $465 reversed $187 $-1 #
coedge $-1 $310 $460 $459 $608 reversed $187 $-1 #
coedge $-1 $318 $313 $310 $463 forward $319 $-1 #
edge $-1 $466 -6.3486493657962768 $609 -0.73659222523594181 $462 $610 forward 7 unknown #
coedge $-1 $312 $311 $469 $611 reversed $117 $-1 #
edge $-1 $612 -51.318899497462958 $466 -43.382252084384412 $460 $613 forward 7 unknown #
vertex $-1 $314 $614 #
straight-curve $-1 -9.6956801822168064 20.047392608171148 8.3329977314432639 1 0 0 I I #
coedge $-1 $459 $315 $318 $473 reversed $308 $-1 #
coedge $-1 $315 $459 $464 $611 forward $308 $-1 #
vertex $-1 $316 $615 #
straight-curve $-1 -25.389372678564584 25.659449748731479 51.214728431775427 0 0 1 I I #
straight-curve $-1 -25.389372678564584 -10.628491667922759 39.008882719374242 0 0.70710677298230451 -0.70710678939079041 I I #
edge $-1 $609 13.393348050302642 $320 25.389372678564584 $468 $616 forward 7 unknown #
point $-1 -25.389372678564584 25.659449748731479 8.3329977314432639 #
point $-1 -25.389372678564584 20.047392608171144 8.3329977314432639 #
edge $-1 $617 1 $617 0 $323 $-1 forward 7 unknown #
vertex $-1 $324 $618 #
ellipse-curve $-1 -19.391360364433613 20.561706352164695 3.2352543229417776 0 0.70710678939079041 0.70710677298230451 1.5 0 0 1 I I #
point $-1 -17.891360364433613 22.853421178451317 5.5269690960489219 #
loop $-1 $-1 $335 $327 #
plane-surface $-1 0 25.659449748731479 0 0 -1 0 0 0 -1 forward_v I I I I #
coedge $-1 $483 $330 $332 $487 reversed $202 $-1 #
coedge $-1 $330 $482 $619 $620 reversed $202 $-1 #
coedge $-1 $338 $333 $330 $485 forward $328 $-1 #
edge $-1 $488 -6.3486493657962768 $621 -0.73659222523594181 $484 $622 forward 7 unknown #
coedge $-1 $332 $331 $491 $623 reversed $126 $-1 #
edge $-1 $624 -51.318899497462958 $488 -43.382252084384412 $482 $625 forward 7 unknown #
vertex $-1 $334 $626 #
straight-curve $-1 9.6956801822168011 20.047392608171148 8.3329977314432639 1 0 0 I I #
coedge $-1 $619 $335 $338 $495 reversed $480 $-1 #
coedge $-1 $335 $619 $486 $623 forward $480 $-1 #
vertex $-1 $336 $627 #
straight-curve $-1 13.393348050302631 25.659449748731479 51.214728431775427 0 0 1 I I #
straight-curve $-1 13.393348050302631 -10.628491667922759 39.008882719374242 0 0.70710677298230451 -0.70710678939079041 I I #
edge $-1 $621 -25.389372678564573 $339 -13.393348050302631 $490 $628 forward 7 unknown #
point $-1 13.393348050302631 25.659449748731479 8.3329977314432639 #
point $-1 13.393348050302631 20.047392608171144 8.3329977314432639 #
edge $-1 $629 1 $629 0 $342 $-1 forward 7 unknown #
vertex $-1 $343 $630 #
ellipse-curve $-1 19.391360364433602 20.561706352164695 3.2352543229417776 0 0.70710678939079041 0.70710677298230451 1.5 0 0 1 I I #
point $-1 20.891360364433602 22.853421178451317 5.5269690960489219 #
loop $-1 $-1 $354 $346 #
plane-surface $-1 0 -25.659449748731479 0 0 1 0 0 0 1 forward_v I I I I #
coedge $-1 $505 $349 $351 $509 reversed $217 $-1 #
coedge $-1 $349 $504 $631 $632 reversed $217 $-1 #
coedge $-1 $357 $352 $349 $507 forward $347 $-1 #
edge $-1 $510 -26.781049996720654 $633 -22.508711171327473 $506 $634 forward 7 unknown #
coedge $-1 $351 $350 $513 $635 reversed $135 $-1 #
edge $-1 $636 1.7410166096330825e-014 $510 6.93942867945335 $504 $637 forward 7 unknown #
vertex $-1 $353 $638 #
straight-curve $-1 -9.1101168403306492 -21.387110923338302 8.3329977314432639 -1 0 0 I I #
coedge $-1 $631 $354 $357 $517 reversed $502 $-1 #
coedge $-1 $354 $631 $508 $635 forward $502 $-1 #
vertex $-1 $355 $639 #
straight-curve $-1 -9.2917540795867524 -25.659449748731475 29.041738008155104 0 0 1 I I #
straight-curve $-1 -9.2917540795867524 -25.65944974873149 2.8646532508662048 0 -0.61566146476048833 -0.78801076186113728 I I #
edge $-1 $633 -76.500051620694222 $358 -58.64309241854513 $512 $640 forward 7 unknown #
point $-1 -9.2917540795867524 -25.659449748731479 8.3329977314432639 #
point $-1 -9.2917540795867524 -21.387110923338298 8.3329977314432639 #
edge $-1 $641 1 $641 0 $361 $-1 forward 7 unknown #
vertex $-1 $362 $642 #
ellipse-curve $-1 -22.046724938264674 -21.480589638023982 4.0029006535043195 0 -0.78801076186113728 0.61566146476048833 1.5 0 0 1 I I #
point $-1 -20.546724938264674 -23.523280336034883 5.5988254911547344 #
edge $-1 $643 1 $643 0 $365 $-1 forward 7 unknown #
vertex $-1 $366 $644 #
ellipse-curve $-1 -14.393742423057923 -21.480589638023982 4.0029006535043195 0 -0.78801076186113728 0.61566146476048833 1.5 0 0 1 I I #
point $-1 -12.893742423057923 -23.523280336034883 5.5988254911547344 #
plane-surface $-1 0 0 8.3329977314432639 0 0 1 1 0 0 forward_v I I I I #
coedge $-1 $539 $538 $531 $645 forward $370 $-1 #
coedge $-1 $531 $372 $374 $535 reversed $239 $-1 #
coedge $-1 $372 $530 $529 $645 reversed $239 $-1 #
coedge $-1 $380 $375 $372 $533 forward $381 $-1 #
edge $-1 $536 -26.781049996720654 $646 -22.508711171327473 $532 $647 forward 7 unknown #
coedge $-1 $374 $373 $539 $648 reversed $149 $-1 #
edge $-1 $649 1.7410166096330825e-014 $536 6.93942867945335 $530 $650 forward 7 unknown #
vertex $-1 $376 $651 #
straight-curve $-1 9.1101168403306438 -21.387110923338302 8.3329977314432639 -1 0 0 I I #
coedge $-1 $529 $377 $380 $543 reversed $370 $-1 #
coedge $-1 $377 $529 $534 $648 forward $370 $-1 #
vertex $-1 $378 $652 #
straight-curve $-1 27.148713281735834 -25.659449748731475 29.041738008155104 0 0 1 I I #
straight-curve $-1 27.148713281735834 -25.65944974873149 2.8646532508662048 0 -0.61566146476048833 -0.78801076186113728 I I #
edge $-1 $646 -40.059584259371633 $382 -22.202625057222544 $538 $653 forward 7 unknown #
point $-1 27.148713281735834 -25.659449748731479 8.3329977314432639 #
point $-1 27.148713281735834 -21.387110923338298 8.3329977314432639 #
edge $-1 $654 1 $654 0 $385 $-1 forward 7 unknown #
vertex $-1 $386 $655 #
ellipse-curve $-1 14.393742423057915 -21.480589638023982 4.0029006535043195 0 -0.78801076186113728 0.61566146476048833 1.5 0 0 1 I I #
point $-1 15.893742423057915 -23.523280336034883 5.5988254911547344 #
edge $-1 $656 1 $656 0 $389 $-1 forward 7 unknown #
vertex $-1 $390 $657 #
ellipse-curve $-1 22.046724938264667 -21.480589638023982 4.0029006535043195 0 -0.78801076186113728 0.61566146476048833 1.5 0 0 1 I I #
point $-1 23.546724938264667 -23.523280336034883 5.5988254911547344 #
plane-surface $-1 0 25.659449748731479 0 0 -1 0 0 0 -1 forward_v I I I I #
coedge $-1 $658 $556 $397 $558 reversed $394 $-1 #
coedge $-1 $555 $566 $396 $557 reversed $394 $-1 #
edge $-1 $562 -8.3329977314432639 $568 8.3329977314432639 $556 $659 forward 7 unknown #
edge $-1 $560 -25.659449748731479 $562 25.659449748731479 $555 $660 forward 7 unknown #
coedge $-1 $398 $405 $658 $661 reversed $406 $-1 #
vertex $-1 $399 $662 #
straight-curve $-1 0 25.659449748731479 8.3329977314432639 -1 0 0 I I #
vertex $-1 $558 $663 #
straight-curve $-1 0 -25.659449748731479 8.3329977314432639 1 0 0 I I #
point $-1 44.845118564409312 -25.659449748731479 8.3329977314432639 #
point $-1 44.845118564409312 25.659449748731479 8.3329977314432639 #
coedge $-1 $556 $658 $410 $567 reversed $394 $-1 #
edge $-1 $568 -25.659449748731479 $570 25.659449748731479 $566 $664 forward 7 unknown #
vertex $-1 $567 $665 #
straight-curve $-1 0 -25.659449748731479 -8.3329977314432639 -1 0 0 I I #
vertex $-1 $412 $666 #
straight-curve $-1 0 25.659449748731479 -8.3329977314432639 1 0 0 I I #
loop $-1 $-1 $428 $415 #
plane-surface $-1 0 -25.659449748731479 0 0 1 0 0 0 1 forward_v I I I I #
coedge $-1 $419 $418 $582 $667 reversed $171 $-1 #
coedge $-1 $431 $430 $418 $576 forward $416 $-1 #
edge $-1 $668 -1.5 $579 1.5 $418 $669 forward 7 unknown #
edge $-1 $578 -1.5 $583 1.5 $419 $670 forward 7 unknown #
vertex $-1 $423 $671 #
vertex $-1 $434 $672 #
straight-curve $-1 -53.857558113507444 -22.659449748731479 0 0 0 -1 I I #
straight-curve $-1 -49.351338338958378 -22.659449748731479 8.3329977314432639 -1 0 0 I I #
coedge $-1 $586 $424 $574 $667 forward $572 $-1 #
vertex $-1 $577 $673 #
straight-curve $-1 0 -25.659449748731479 8.3329977314432639 1 0 0 I I #
point $-1 -44.845118564409312 -25.659449748731479 8.3329977314432639 #
coedge $-1 $428 $582 $430 $588 reversed $572 $-1 #
straight-curve $-1 -44.845118564409312 -25.659449748731479 0 0 0 1 I I #
edge $-1 $432 -4.5062197745490664 $668 4.5062197745490664 $586 $674 forward 7 unknown #
point $-1 -44.845118564409312 -25.659449748731479 -8.3329977314432639 #
straight-curve $-1 -49.351338338958378 -22.659449748731479 -8.3329977314432639 1 0 0 I I #
plane-surface $-1 0 0 8.3329977314432639 0 0 1 1 0 0 forward_v I I I I #
coedge $-1 $675 $676 $443 $596 forward $438 $-1 #
coedge $-1 $676 $675 $440 $594 reversed $438 $-1 #
edge $-1 $604 -8.3329977314432639 $606 8.3329977314432639 $593 $677 forward 7 unknown #
coedge $-1 $442 $441 $675 $678 forward $179 $-1 #
edge $-1 $600 -8.3329977314432639 $597 8.3329977314432639 $592 $679 forward 7 unknown #
vertex $-1 $596 $680 #
straight-curve $-1 49.351338338958378 -25.659449748731479 -8.3329977314432639 -1 0 0 I I #
coedge $-1 $451 $445 $676 $681 forward $452 $-1 #
vertex $-1 $681 $682 #
straight-curve $-1 49.351338338958378 -25.659449748731479 8.3329977314432639 1 0 0 I I #
point $-1 44.845118564409312 -25.659449748731479 8.3329977314432639 #
point $-1 44.845118564409312 -25.659449748731479 -8.3329977314432639 #
vertex $-1 $681 $683 #
straight-curve $-1 49.351338338958378 -22.659449748731479 8.3329977314432639 -1 0 0 I I #
vertex $-1 $678 $684 #
straight-curve $-1 49.351338338958378 -22.659449748731479 -8.3329977314432639 1 0 0 I I #
edge $-1 $609 42.881730700332163 $612 48.493787971120859 $459 $685 forward 7 unknown #
vertex $-1 $473 $686 #
straight-curve $-1 -13.393348050302642 26.396041973967421 8.3329977314432639 0 1 0 I I #
edge $-1 $612 3.6976678680858353 $470 15.693692496347778 $469 $687 forward 7 unknown #
vertex $-1 $611 $688 #
straight-curve $-1 -13.393348050302642 -10.628491667922759 39.008882719374242 0 -0.70710677298230451 0.70710678939079041 I I #
point $-1 -13.393348050302642 20.047392608171144 8.3329977314432639 #
point $-1 -25.389372678564584 25.659449748731475 2.7209404606545675 #
straight-curve $-1 0 25.659449748731479 8.3329977314432639 -1 0 0 I I #
vertex $-1 $476 $689 #
point $-1 -17.891360364433613 20.561706352164695 3.2352543229417776 #
coedge $-1 $491 $490 $483 $620 forward $480 $-1 #
edge $-1 $621 42.881730700332163 $624 48.493787971120859 $619 $690 forward 7 unknown #
vertex $-1 $495 $691 #
straight-curve $-1 25.389372678564573 26.396041973967421 8.3329977314432639 0 1 0 I I #
edge $-1 $624 -15.693692496347772 $492 -3.6976678680858299 $491 $692 forward 7 unknown #
vertex $-1 $623 $693 #
straight-curve $-1 25.389372678564573 -10.628491667922759 39.008882719374242 0 -0.70710677298230451 0.70710678939079041 I I #
point $-1 25.389372678564573 20.047392608171144 8.3329977314432639 #
point $-1 13.393348050302631 25.659449748731475 2.7209404606545675 #
straight-curve $-1 0 25.659449748731479 8.3329977314432639 -1 0 0 I I #
vertex $-1 $498 $694 #
point $-1 20.891360364433602 20.561706352164695 3.2352543229417776 #
coedge $-1 $513 $512 $505 $632 forward $502 $-1 #
edge $-1 $633 20.70874027671184 $636 26.177084757288885 $631 $695 forward 7 unknown #
vertex $-1 $517 $696 #
straight-curve $-1 -27.148713281735844 -48.168160920058952 8.3329977314432639 0 -1 0 I I #
edge $-1 $636 -18.038596441405197 $514 -0.1816372392561032 $513 $697 forward 7 unknown #
vertex $-1 $635 $698 #
straight-curve $-1 -27.148713281735844 -25.65944974873149 2.8646532508662048 0 0.61566146476048833 0.78801076186113728 I I #
point $-1 -27.148713281735844 -21.387110923338298 8.3329977314432639 #
point $-1 -9.2917540795867524 -25.659449748731479 2.8646532508662186 #
straight-curve $-1 49.351338338958378 -25.659449748731479 8.3329977314432639 1 0 0 I I #
vertex $-1 $520 $699 #
point $-1 -20.546724938264674 -21.480589638023982 4.0029006535043195 #
vertex $-1 $524 $700 #
point $-1 -12.893742423057923 -21.480589638023982 4.0029006535043195 #
edge $-1 $646 20.70874027671184 $649 26.177084757288885 $529 $701 forward 7 unknown #
vertex $-1 $543 $702 #
straight-curve $-1 9.2917540795867417 -48.168160920058952 8.3329977314432639 0 -1 0 I I #
edge $-1 $649 0.18163723925609787 $540 18.03859644140519 $539 $703 forward 7 unknown #
vertex $-1 $648 $704 #
straight-curve $-1 9.2917540795867417 -25.65944974873149 2.8646532508662048 0 0.61566146476048833 0.78801076186113728 I I #
point $-1 9.2917540795867417 -21.387110923338298 8.3329977314432639 #
point $-1 27.148713281735834 -25.659449748731479 2.8646532508662186 #
straight-curve $-1 49.351338338958378 -25.659449748731479 8.3329977314432639 1 0 0 I I #
vertex $-1 $546 $705 #
point $-1 15.893742423057915 -21.480589638023982 4.0029006535043195 #
vertex $-1 $550 $706 #
point $-1 23.546724938264667 -21.480589638023982 4.0029006535043195 #
coedge $-1 $566 $555 $559 $661 forward $394 $-1 #
straight-curve $-1 -44.845118564409312 -25.659449748731479 0 0 0 -1 I I #
straight-curve $-1 -44.845118564409312 0 8.3329977314432639 0 -1 0 I I #
edge $-1 $560 -8.3329977314432639 $570 8.3329977314432639 $559 $707 forward 7 unknown #
point $-1 -44.845118564409312 25.659449748731479 8.3329977314432639 #
point $-1 -44.845118564409312 -25.659449748731479 8.3329977314432639 #
straight-curve $-1 -44.845118564409312 0 -8.3329977314432639 0 1 0 I I #
point $-1 -44.845118564409312 -25.659449748731479 -8.3329977314432639 #
point $-1 -44.845118564409312 25.659449748731479 -8.3329977314432639 #
edge $-1 $583 -8.3329977314432639 $668 8.3329977314432639 $574 $708 forward 7 unknown #
vertex $-1 $576 $709 #
straight-curve $-1 -53.857558113507444 -24.159449748731479 -8.3329977314432639 0 1 0 I I #
straight-curve $-1 -53.857558113507444 -24.159449748731479 8.3329977314432639 0 -1 0 I I #
point $-1 -53.857558113507444 -22.659449748731479 8.3329977314432639 #
point $-1 -53.857558113507444 -22.659449748731479 -8.3329977314432639 #
point $-1 -53.857558113507444 -25.659449748731479 8.3329977314432639 #
straight-curve $-1 -49.351338338958378 -25.659449748731479 -8.3329977314432639 -1 0 0 I I #
coedge $-1 $593 $592 $595 $678 reversed $438 $-1 #
coedge $-1 $592 $593 $599 $681 reversed $438 $-1 #
straight-curve $-1 53.857558113507444 -22.659449748731479 0 0 0 -1 I I #
edge $-1 $606 -1.5 $597 1.5 $675 $710 forward 7 unknown #
straight-curve $-1 53.857558113507444 -25.659449748731479 0 0 0 -1 I I #
point $-1 53.857558113507444 -25.659449748731479 -8.3329977314432639 #
edge $-1 $600 -1.5 $604 1.5 $676 $711 forward 7 unknown #
point $-1 53.857558113507444 -25.659449748731479 8.3329977314432639 #
point $-1 53.857558113507444 -22.659449748731479 8.3329977314432639 #
point $-1 53.857558113507444 -22.659449748731479 -8.3329977314432639 #
straight-curve $-1 -13.393348050302642 25.659449748731479 51.214728431775427 0 0 -1 I I #
point $-1 -13.393348050302642 25.659449748731479 8.3329977314432639 #
straight-curve $-1 -9.6956801822168064 25.659449748731479 2.7209404606545675 -1 0 0 I I #
point $-1 -13.393348050302642 25.659449748731475 2.7209404606545675 #
point $-1 -19.391360364433613 19.501046168078506 2.1745941634683206 #
straight-curve $-1 25.389372678564573 25.659449748731479 51.214728431775427 0 0 -1 I I #
point $-1 25.389372678564573 25.659449748731479 8.3329977314432639 #
straight-curve $-1 9.6956801822168011 25.659449748731479 2.7209404606545675 -1 0 0 I I #
point $-1 25.389372678564573 25.659449748731475 2.7209404606545675 #
point $-1 19.391360364433602 19.501046168078506 2.1745941634683206 #
straight-curve $-1 -27.148713281735844 -25.659449748731475 29.041738008155104 0 0 -1 I I #
point $-1 -27.148713281735844 -25.659449748731479 8.3329977314432639 #
straight-curve $-1 -9.1101168403306492 -25.659449748731479 2.8646532508662155 1 0 0 I I #
point $-1 -27.148713281735844 -25.659449748731479 2.8646532508662186 #
point $-1 -22.046724938264674 -20.298573495232279 3.0794084563635877 #
point $-1 -14.393742423057923 -20.298573495232279 3.0794084563635877 #
straight-curve $-1 9.2917540795867417 -25.659449748731475 29.041738008155104 0 0 -1 I I #
point $-1 9.2917540795867453 -25.659449748731479 8.3329977314432639 #
straight-curve $-1 9.1101168403306438 -25.659449748731479 2.8646532508662155 1 0 0 I I #
point $-1 9.2917540795867417 -25.659449748731479 2.8646532508662186 #
point $-1 14.393742423057915 -20.298573495232279 3.0794084563635877 #
point $-1 22.046724938264667 -20.298573495232279 3.0794084563635877 #
straight-curve $-1 -44.845118564409312 25.659449748731479 0 0 0 -1 I I #
straight-curve $-1 -53.857558113507444 -25.659449748731479 0 0 0 -1 I I #
point $-1 -53.857558113507444 -25.659449748731479 -8.3329977314432639 #
straight-curve $-1 53.857558113507444 -24.159449748731479 -8.3329977314432639 0 -1 0 I I #
straight-curve $-1 53.857558113507444 -24.159449748731479 8.3329977314432639 0 1 0 I I #
End-of-ACIS-data 