500 0 8 0           
7 Unknown 11 ACIS 5.0 NT 24 Fri Mar 26 17:16:36 1999 
-1 9.9999999999999995e-007 1e-010 
body $-1 $8 $-1 $9 #
body $-1 $10 $-1 $11 #
body $-1 $12 $-1 $13 #
body $-1 $14 $-1 $15 #
body $-1 $16 $-1 $17 #
body $-1 $18 $-1 $19 #
body $-1 $20 $-1 $21 #
body $-1 $22 $-1 $23 #
lump $-1 $-1 $24 $0 #
transform $-1 1 0 0 0 1 0 0 0 1 76.999420148319956 53.197441732831258 25.31874823962147 1 rotate no_reflect no_shear #
lump $-1 $-1 $25 $1 #
transform $-1 1 0 0 0 1 0 0 0 1 76.999420148319956 53.197441732831258 25.31874823962147 1 rotate no_reflect no_shear #
lump $-1 $-1 $26 $2 #
transform $-1 1 0 0 0 1 0 0 0 1 76.999420148319956 53.197441732831258 25.31874823962147 1 rotate no_reflect no_shear #
lump $-1 $-1 $27 $3 #
transform $-1 1 0 0 0 1 0 0 0 1 76.999420148319956 53.197441732831258 25.31874823962147 1 rotate no_reflect no_shear #
lump $-1 $-1 $28 $4 #
transform $-1 1 0 0 0 1 0 0 0 1 76.999420148319956 53.197441732831258 25.31874823962147 1 rotate no_reflect no_shear #
lump $-1 $-1 $29 $5 #
transform $-1 1 0 0 0 1 0 0 0 1 76.999420148319956 53.197441732831258 25.31874823962147 1 rotate no_reflect no_shear #
lump $-1 $-1 $30 $6 #
transform $-1 1 0 0 0 1 0 0 0 1 76.999420148319956 53.197441732831258 25.31874823962147 1 rotate no_reflect no_shear #
lump $-1 $-1 $31 $7 #
transform $-1 1 0 0 0 1 0 0 0 1 76.999420148319956 53.197441732831258 25.31874823962147 1 rotate no_reflect no_shear #
shell $-1 $-1 $-1 $32 $-1 $8 #
shell $-1 $-1 $-1 $33 $-1 $10 #
shell $-1 $-1 $-1 $34 $-1 $12 #
shell $-1 $-1 $-1 $35 $-1 $14 #
shell $-1 $-1 $-1 $36 $-1 $16 #
shell $-1 $-1 $-1 $37 $-1 $18 #
shell $-1 $-1 $-1 $38 $-1 $20 #
shell $-1 $-1 $-1 $39 $-1 $22 #
face $-1 $40 $41 $24 $-1 $42 forward single #
face $-1 $43 $44 $25 $-1 $45 forward single #
face $-1 $46 $47 $26 $-1 $48 forward single #
face $-1 $49 $50 $27 $-1 $51 reversed single #
face $-1 $52 $53 $28 $-1 $54 forward single #
face $-1 $55 $56 $29 $-1 $57 reversed single #
face $-1 $58 $59 $30 $-1 $60 forward single #
face $-1 $61 $62 $31 $-1 $63 forward single #
face $-1 $64 $65 $24 $-1 $66 reversed single #
loop $-1 $-1 $67 $32 #
plane-surface $-1 0 0 25.31874823962147 0 0 1 1 0 0 forward_v I I I I #
face $-1 $68 $69 $25 $-1 $70 reversed single #
loop $-1 $-1 $71 $33 #
plane-surface $-1 -65.451020369124095 0 17.41637380795726 0 0 1 1 0 0 forward_v I I I I #
face $-1 $72 $73 $26 $-1 $74 reversed single #
loop $-1 $-1 $75 $34 #
plane-surface $-1 65.451020369124109 0 17.41637380795726 0 0 1 1 0 0 forward_v I I I I #
face $-1 $76 $77 $27 $-1 $78 reversed single #
loop $-1 $-1 $79 $35 #
plane-surface $-1 -13.491165104065018 -177.78512190713758 101.33943608910965 1 0 0 0 0.80901700255871778 -0.5877852410284794 forward_v I I I I #
face $-1 $80 $81 $28 $-1 $82 forward single #
loop $-1 $83 $84 $36 #
cone-surface $-1 1.0079439879351213 -46.33073735808793 16.907386301895677 0 0.80901700255871778 -0.5877852410284794 2 0 0 1 I I 0 1 2 forward I I I I #
face $-1 $85 $86 $29 $-1 $87 reversed single #
loop $-1 $-1 $88 $37 #
plane-surface $-1 -11.992652906584372 83.639953051832578 205.38391930143928 -1 0 0 0 0.69465837861970381 0.71933979245794832 forward_v I I I I #
face $-1 $89 $90 $30 $-1 $91 forward single #
loop $-1 $92 $93 $38 #
cone-surface $-1 -32.082905432480963 49.563193316110365 21.722455198067681 0 -0.69465837861970381 -0.71933979245794832 1 0 0 1 I I 0 1 1 forward I I I I #
face $-1 $94 $95 $31 $-1 $96 forward single #
loop $-1 $97 $98 $39 #
cone-surface $-1 -20.028753916943003 49.563193316110365 21.722455198067681 0 -0.69465837861970381 -0.71933979245794832 1 0 0 1 I I 0 1 1 forward I I I I #
face $-1 $99 $100 $24 $-1 $101 reversed single #
loop $-1 $-1 $102 $40 #
plane-surface $-1 0 0 -25.31874823962147 0 0 1 1 0 0 forward_v I I I I #
coedge $-1 $103 $104 $105 $106 forward $41 $-1 #
face $-1 $107 $108 $25 $-1 $109 reversed single #
loop $-1 $-1 $110 $43 #
plane-surface $-1 -65.451020369124095 0 11.733235488843032 0 0 1 1 0 0 forward_v I I I I #
coedge $-1 $111 $112 $113 $114 forward $44 $-1 #
face $-1 $115 $116 $26 $-1 $117 reversed single #
loop $-1 $-1 $118 $46 #
plane-surface $-1 65.451020369124109 0 11.733235488843032 0 0 1 1 0 0 forward_v I I I I #
coedge $-1 $119 $120 $121 $122 reversed $47 $-1 #
face $-1 $123 $124 $27 $-1 $125 reversed single #
loop $-1 $-1 $126 $49 #
plane-surface $-1 1.0079439879351213 -53.19744173283128 10.821190627242856 0 -0.80901700255871778 0.5877852410284794 1 0 0 forward_v I I I I #
coedge $-1 $127 $128 $129 $130 reversed $50 $-1 #
face $-1 $-1 $131 $28 $-1 $132 forward single #
loop $-1 $133 $134 $52 #
cone-surface $-1 1.0079439879351213 -43.921561905386369 15.157017929330721 0 0.80901700255871778 -0.5877852410284794 1 0 0 1 I I -0.70710678118654746 0.70710678118654746 1 forward I I I I #
loop $-1 $-1 $135 $36 #
coedge $-1 $84 $84 $136 $137 reversed $53 $-1 #
face $-1 $138 $139 $29 $-1 $140 reversed single #
loop $-1 $-1 $141 $55 #
plane-surface $-1 -26.055829674711987 -23.336631657946015 94.606425483689591 0 0.69465837861970381 0.71933979245794832 1 0 0 forward_v I I I I #
coedge $-1 $142 $143 $144 $145 reversed $56 $-1 #
face $-1 $-1 $146 $30 $-1 $147 forward single #
loop $-1 $148 $149 $58 #
cone-surface $-1 -32.082905432480963 47.973908140757295 20.076702259095583 0 -0.69465837861970381 -0.71933979245794832 0.5 0 0 1 I I -0.70710678118654746 0.70710678118654746 0.5 forward I I I I #
loop $-1 $-1 $150 $38 #
coedge $-1 $93 $93 $151 $152 reversed $59 $-1 #
face $-1 $-1 $153 $31 $-1 $154 forward single #
loop $-1 $155 $156 $61 #
cone-surface $-1 -20.028753916943003 47.973908140757295 20.076702259095583 0 -0.69465837861970381 -0.71933979245794832 0.5 0 0 1 I I -0.70710678118654746 0.70710678118654746 0.5 forward I I I I #
loop $-1 $-1 $157 $39 #
coedge $-1 $98 $98 $158 $159 reversed $62 $-1 #
face $-1 $160 $161 $24 $-1 $162 reversed single #
loop $-1 $-1 $163 $64 #
plane-surface $-1 0 -53.197441732831258 0 0 1 0 0 0 1 forward_v I I I I #
coedge $-1 $164 $165 $166 $167 forward $65 $-1 #
coedge $-1 $168 $67 $169 $170 forward $41 $-1 #
coedge $-1 $67 $168 $171 $172 forward $41 $-1 #
coedge $-1 $173 $174 $67 $106 reversed $175 $-1 #
edge $-1 $176 -53.197441732831258 $177 53.197441732831258 $105 $178 forward 7 unknown #
face $-1 $179 $180 $25 $-1 $181 reversed single #
loop $-1 $-1 $182 $68 #
plane-surface $-1 -53.90262058992824 0 14.574804648400146 -1 0 0 0 0 1 forward_v I I I I #
coedge $-1 $183 $184 $185 $186 forward $69 $-1 #
coedge $-1 $187 $71 $188 $189 reversed $44 $-1 #
coedge $-1 $71 $187 $190 $191 reversed $44 $-1 #
coedge $-1 $182 $192 $71 $114 reversed $108 $-1 #
edge $-1 $193 -53.197441732831258 $194 53.197441732831258 $113 $195 forward 7 unknown #
face $-1 $196 $197 $26 $-1 $198 reversed single #
loop $-1 $-1 $199 $72 #
plane-surface $-1 53.902620589928247 0 14.574804648400146 1 0 0 0 0 -1 forward_v I I I I #
coedge $-1 $200 $201 $202 $203 reversed $73 $-1 #
coedge $-1 $204 $75 $205 $206 reversed $47 $-1 #
coedge $-1 $75 $204 $207 $208 reversed $47 $-1 #
coedge $-1 $209 $210 $75 $122 forward $211 $-1 #
edge $-1 $212 -53.197441732831258 $213 53.197441732831258 $121 $214 forward 7 unknown #
face $-1 $215 $216 $27 $-1 $217 forward single #
loop $-1 $-1 $218 $76 #
plane-surface $-1 15.507053079935261 -177.78512190713758 101.33943608910965 -1 0 0 0 -0.80901700255871778 0.5877852410284794 forward_v I I I I #
coedge $-1 $219 $220 $221 $222 reversed $77 $-1 #
coedge $-1 $128 $79 $223 $224 reversed $50 $-1 #
coedge $-1 $79 $127 $219 $225 reversed $50 $-1 #
coedge $-1 $221 $226 $79 $130 forward $227 $-1 #
edge $-1 $228 25.350969804933356 $229 39.848527417311942 $129 $230 forward 7 unknown #
loop $-1 $-1 $136 $80 #
plane-surface $-1 1.0079439879351213 -53.19744173283128 10.821190627242856 0 -0.80901700255871778 0.5877852410284794 1 0 0 forward_v I I I I #
loop $-1 $-1 $231 $52 #
coedge $-1 $134 $134 $135 $232 reversed $81 $-1 #
coedge $-1 $135 $135 $134 $232 forward $83 $-1 #
coedge $-1 $136 $136 $84 $137 forward $131 $-1 #
edge $-1 $233 1.9533893409379798e-015 $233 6.2831853071796022 $136 $234 forward 7 unknown #
face $-1 $235 $236 $29 $-1 $237 reversed single #
loop $-1 $-1 $238 $85 #
plane-surface $-1 -40.119006442839606 83.639953051832578 205.38391930143928 1 0 0 0 -0.69465837861970381 -0.71933979245794832 forward_v I I I I #
coedge $-1 $239 $240 $241 $242 reversed $86 $-1 #
coedge $-1 $143 $88 $243 $244 reversed $56 $-1 #
coedge $-1 $88 $142 $239 $245 reversed $56 $-1 #
coedge $-1 $241 $246 $88 $145 forward $236 $-1 #
edge $-1 $247 77.373211411098168 $248 81.993631408719509 $144 $249 forward 7 unknown #
loop $-1 $-1 $151 $89 #
plane-surface $-1 -26.055829674711987 -23.336631657946015 94.606425483689591 0 0.69465837861970381 0.71933979245794832 1 0 0 forward_v I I I I #
loop $-1 $-1 $250 $58 #
coedge $-1 $149 $149 $150 $251 reversed $90 $-1 #
coedge $-1 $150 $150 $149 $251 forward $92 $-1 #
coedge $-1 $151 $151 $93 $152 forward $146 $-1 #
edge $-1 $252 -2.6432943169261337e-015 $252 6.2831853071795978 $151 $253 forward 7 unknown #
loop $-1 $-1 $158 $94 #
plane-surface $-1 -26.055829674711987 -23.336631657946015 94.606425483689591 0 0.69465837861970381 0.71933979245794832 1 0 0 forward_v I I I I #
loop $-1 $-1 $254 $61 #
coedge $-1 $156 $156 $157 $255 reversed $95 $-1 #
coedge $-1 $157 $157 $156 $255 forward $97 $-1 #
coedge $-1 $158 $158 $98 $159 forward $153 $-1 #
edge $-1 $256 -2.6432943169261337e-015 $256 6.2831853071795978 $158 $257 forward 7 unknown #
face $-1 $258 $259 $24 $-1 $260 reversed single #
loop $-1 $-1 $261 $99 #
plane-surface $-1 -76.999420148319956 0 0 1 0 0 0 0 -1 forward_v I I I I #
coedge $-1 $262 $171 $263 $264 forward $100 $-1 #
coedge $-1 $265 $102 $262 $266 forward $65 $-1 #
coedge $-1 $102 $265 $267 $268 forward $65 $-1 #
coedge $-1 $174 $173 $102 $167 reversed $175 $-1 #
edge $-1 $269 -53.197441732831258 $270 53.197441732831258 $166 $271 forward 7 unknown #
coedge $-1 $104 $103 $272 $273 forward $41 $-1 #
coedge $-1 $274 $275 $103 $170 reversed $259 $-1 #
edge $-1 $177 -76.999420148319956 $276 76.999420148319956 $169 $277 forward 7 unknown #
coedge $-1 $163 $278 $104 $172 reversed $100 $-1 #
edge $-1 $279 -76.999420148319956 $176 76.999420148319956 $171 $280 forward 7 unknown #
coedge $-1 $166 $105 $278 $281 forward $175 $-1 #
coedge $-1 $105 $166 $274 $282 reversed $175 $-1 #
loop $-1 $-1 $173 $258 #
vertex $-1 $106 $283 #
vertex $-1 $106 $284 #
straight-curve $-1 76.999420148319956 0 25.31874823962147 0 1 0 I I #
face $-1 $285 $286 $25 $-1 $287 reversed single #
loop $-1 $-1 $288 $107 #
plane-surface $-1 0 -53.197441732831258 0 0 1 0 0 0 1 forward_v I I I I #
coedge $-1 $185 $113 $289 $290 reversed $108 $-1 #
coedge $-1 $291 $110 $288 $292 reversed $69 $-1 #
coedge $-1 $110 $291 $293 $294 reversed $69 $-1 #
coedge $-1 $192 $182 $110 $186 reversed $108 $-1 #
edge $-1 $295 -53.197441732831258 $296 53.197441732831258 $185 $297 forward 7 unknown #
coedge $-1 $112 $111 $298 $299 reversed $44 $-1 #
coedge $-1 $300 $301 $111 $189 forward $302 $-1 #
edge $-1 $303 -44.273909963757909 $194 -21.177110405366193 $188 $304 forward 7 unknown #
coedge $-1 $305 $289 $112 $191 forward $180 $-1 #
edge $-1 $193 21.177110405366193 $306 44.273909963757909 $190 $307 forward 7 unknown #
coedge $-1 $113 $185 $300 $308 reversed $108 $-1 #
vertex $-1 $191 $309 #
vertex $-1 $189 $310 #
straight-curve $-1 -53.90262058992824 0 17.41637380795726 0 1 0 I I #
face $-1 $311 $312 $26 $-1 $313 reversed single #
loop $-1 $-1 $207 $115 #
plane-surface $-1 0 -53.197441732831258 0 0 1 0 0 0 1 forward_v I I I I #
coedge $-1 $314 $315 $316 $317 reversed $116 $-1 #
coedge $-1 $318 $118 $319 $320 reversed $73 $-1 #
coedge $-1 $118 $318 $321 $322 reversed $73 $-1 #
coedge $-1 $210 $209 $118 $203 forward $211 $-1 #
edge $-1 $323 -53.197441732831258 $324 53.197441732831258 $202 $325 forward 7 unknown #
coedge $-1 $120 $119 $315 $326 forward $47 $-1 #
coedge $-1 $327 $316 $119 $206 forward $312 $-1 #
edge $-1 $328 21.177110405366193 $212 44.273909963757916 $205 $329 forward 7 unknown #
coedge $-1 $330 $331 $120 $208 forward $197 $-1 #
edge $-1 $213 -44.273909963757916 $332 -21.177110405366193 $207 $333 forward 7 unknown #
coedge $-1 $202 $121 $331 $334 forward $211 $-1 #
coedge $-1 $121 $202 $327 $335 reversed $211 $-1 #
loop $-1 $-1 $121 $311 #
vertex $-1 $335 $336 #
vertex $-1 $334 $337 #
straight-curve $-1 76.999420148319956 0 17.41637380795726 0 -1 0 I I #
face $-1 $-1 $227 $27 $-1 $338 reversed single #
loop $-1 $-1 $339 $123 #
plane-surface $-1 0 0 25.31874823962147 0 0 1 1 0 0 forward_v I I I I #
coedge $-1 $340 $341 $342 $343 reversed $124 $-1 #
coedge $-1 $344 $126 $128 $225 forward $77 $-1 #
coedge $-1 $126 $344 $340 $345 forward $77 $-1 #
coedge $-1 $342 $129 $126 $222 forward $227 $-1 #
edge $-1 $229 -13.995137098032579 $346 15.0030810859677 $221 $347 forward 7 unknown #
coedge $-1 $348 $349 $127 $224 forward $216 $-1 #
edge $-1 $350 -46.228211069938482 $228 -35.695119220737531 $223 $351 forward 7 unknown #
edge $-1 $229 3.6960145052660132e-014 $350 17.919966535346571 $128 $352 forward 7 unknown #
coedge $-1 $129 $342 $348 $353 reversed $227 $-1 #
loop $-1 $-1 $342 $215 #
vertex $-1 $353 $354 #
vertex $-1 $130 $355 #
straight-curve $-1 -13.491165104065018 -53.197441732831258 50.669718044554827 0 0 -1 I I #
coedge $-1 $231 $231 $-1 $356 reversed $133 $-1 #
edge $-1 $357 0 $357 6.2831853071796004 $134 $358 forward 7 unknown #
vertex $-1 $137 $359 #
ellipse-curve $-1 1.0079439879351213 -47.930895808230794 18.069969433432167 0 -0.80901700255871778 0.5877852410284794 2 0 0 1 I I #
face $-1 $-1 $360 $29 $-1 $361 forward single #
loop $-1 $-1 $144 $138 #
plane-surface $-1 0 53.197441732831258 0 0 -1 0 0 0 -1 forward_v I I I I #
coedge $-1 $362 $363 $364 $365 reversed $139 $-1 #
coedge $-1 $366 $141 $143 $245 forward $86 $-1 #
coedge $-1 $141 $366 $362 $367 forward $86 $-1 #
coedge $-1 $364 $144 $141 $242 forward $236 $-1 #
edge $-1 $248 -1.0352619307716218 $368 27.091091605483612 $241 $369 forward 7 unknown #
coedge $-1 $370 $371 $142 $244 forward $360 $-1 #
edge $-1 $372 6.592880345559621 $247 11.37746520691497 $243 $373 forward 7 unknown #
edge $-1 $248 -106.39488346566252 $372 -99.743527720408025 $143 $374 forward 7 unknown #
coedge $-1 $144 $364 $370 $375 reversed $236 $-1 #
vertex $-1 $375 $376 #
vertex $-1 $145 $377 #
straight-curve $-1 -11.992652906584372 53.197441732831258 102.69195965071964 0 0 -1 I I #
coedge $-1 $250 $250 $-1 $378 reversed $148 $-1 #
edge $-1 $379 0 $379 6.2831853071796004 $149 $380 forward 7 unknown #
vertex $-1 $152 $381 #
ellipse-curve $-1 -32.082905432480963 50.805149302153588 23.008538240810811 0 0.69465837861970381 0.71933979245794832 1 0 0 1 I I #
coedge $-1 $254 $254 $-1 $382 reversed $155 $-1 #
edge $-1 $383 0 $383 6.2831853071796004 $156 $384 forward 7 unknown #
vertex $-1 $159 $385 #
ellipse-curve $-1 -20.028753916943003 50.805149302153588 23.008538240810811 0 0.69465837861970381 0.71933979245794832 1 0 0 1 I I #
face $-1 $-1 $175 $24 $-1 $386 reversed single #
loop $-1 $-1 $274 $160 #
plane-surface $-1 0 53.197441732831258 0 0 -1 0 0 0 -1 forward_v I I I I #
coedge $-1 $387 $272 $275 $388 forward $161 $-1 #
coedge $-1 $278 $163 $164 $266 reversed $100 $-1 #
coedge $-1 $272 $387 $163 $264 reversed $161 $-1 #
edge $-1 $279 -25.31874823962147 $389 25.31874823962147 $263 $390 forward 7 unknown #
coedge $-1 $165 $164 $387 $391 forward $65 $-1 #
edge $-1 $270 -76.999420148319956 $389 76.999420148319956 $262 $392 forward 7 unknown #
coedge $-1 $275 $274 $165 $268 reversed $259 $-1 #
edge $-1 $393 -76.999420148319956 $269 76.999420148319956 $267 $394 forward 7 unknown #
vertex $-1 $167 $395 #
vertex $-1 $281 $396 #
straight-curve $-1 76.999420148319956 0 -25.31874823962147 0 -1 0 I I #
coedge $-1 $261 $263 $168 $273 reversed $161 $-1 #
edge $-1 $276 -53.197441732831258 $279 53.197441732831258 $272 $397 forward 7 unknown #
coedge $-1 $267 $169 $174 $282 forward $259 $-1 #
coedge $-1 $169 $267 $261 $388 reversed $259 $-1 #
vertex $-1 $170 $398 #
straight-curve $-1 0 53.197441732831258 25.31874823962147 -1 0 0 I I #
coedge $-1 $171 $262 $173 $281 reversed $100 $-1 #
vertex $-1 $273 $399 #
straight-curve $-1 0 -53.197441732831258 25.31874823962147 1 0 0 I I #
edge $-1 $176 -25.31874823962147 $270 25.31874823962147 $173 $400 forward 7 unknown #
edge $-1 $177 -25.31874823962147 $269 25.31874823962147 $174 $401 forward 7 unknown #
point $-1 76.999420148319956 -53.197441732831258 25.31874823962147 #
point $-1 76.999420148319956 53.197441732831258 25.31874823962147 #
face $-1 $-1 $302 $25 $-1 $402 reversed single #
loop $-1 $-1 $403 $179 #
plane-surface $-1 -76.999420148319956 0 0 1 0 0 0 0 -1 forward_v I I I I #
coedge $-1 $289 $305 $183 $292 forward $180 $-1 #
coedge $-1 $190 $288 $182 $290 forward $180 $-1 #
edge $-1 $296 4.4458331646429592 $193 10.128971483757187 $289 $404 forward 7 unknown #
coedge $-1 $184 $183 $403 $405 reversed $69 $-1 #
edge $-1 $406 -44.273909963757909 $296 -21.177110405366193 $288 $407 forward 7 unknown #
coedge $-1 $301 $300 $184 $294 forward $302 $-1 #
edge $-1 $295 21.177110405366193 $408 44.273909963757909 $293 $409 forward 7 unknown #
vertex $-1 $294 $410 #
vertex $-1 $292 $411 #
straight-curve $-1 -53.90262058992824 0 11.733235488843032 0 -1 0 I I #
coedge $-1 $412 $413 $187 $299 forward $286 $-1 #
edge $-1 $306 -53.197441732831258 $303 53.197441732831258 $298 $414 forward 7 unknown #
coedge $-1 $293 $188 $192 $308 forward $302 $-1 #
coedge $-1 $188 $293 $412 $415 reversed $302 $-1 #
loop $-1 $-1 $293 $285 #
vertex $-1 $415 $416 #
straight-curve $-1 -32.725510184562047 53.197441732831258 17.41637380795726 1 0 0 I I #
coedge $-1 $288 $190 $413 $417 forward $180 $-1 #
vertex $-1 $417 $418 #
straight-curve $-1 -32.725510184562047 -53.197441732831258 17.41637380795726 -1 0 0 I I #
edge $-1 $194 -10.128971483757187 $295 -4.4458331646429592 $300 $419 forward 7 unknown #
point $-1 -53.90262058992824 -53.197441732831258 17.41637380795726 #
point $-1 -53.90262058992824 53.197441732831258 17.41637380795726 #
face $-1 $-1 $211 $26 $-1 $420 reversed single #
loop $-1 $-1 $205 $196 #
plane-surface $-1 0 53.197441732831258 0 0 -1 0 0 0 -1 forward_v I I I I #
coedge $-1 $421 $199 $318 $422 reversed $116 $-1 #
coedge $-1 $199 $421 $204 $326 reversed $116 $-1 #
coedge $-1 $205 $321 $199 $317 forward $312 $-1 #
edge $-1 $423 4.4458331646429592 $328 10.128971483757187 $316 $424 forward 7 unknown #
coedge $-1 $201 $200 $314 $422 forward $73 $-1 #
coedge $-1 $331 $330 $200 $320 forward $197 $-1 #
edge $-1 $425 21.177110405366193 $323 44.273909963757916 $319 $426 forward 7 unknown #
coedge $-1 $316 $327 $201 $322 forward $312 $-1 #
edge $-1 $324 -44.273909963757916 $423 -21.177110405366193 $321 $427 forward 7 unknown #
vertex $-1 $203 $428 #
vertex $-1 $203 $429 #
straight-curve $-1 76.999420148319956 0 11.733235488843032 0 1 0 I I #
edge $-1 $328 -53.197441732831258 $332 53.197441732831258 $315 $430 forward 7 unknown #
coedge $-1 $321 $205 $210 $335 forward $312 $-1 #
vertex $-1 $206 $431 #
straight-curve $-1 32.725510184562054 53.197441732831258 17.41637380795726 1 0 0 I I #
coedge $-1 $319 $207 $421 $432 forward $197 $-1 #
coedge $-1 $207 $319 $209 $334 reversed $197 $-1 #
vertex $-1 $208 $433 #
straight-curve $-1 32.725510184562054 -53.197441732831258 17.41637380795726 -1 0 0 I I #
edge $-1 $213 -17.41637380795726 $323 -11.733235488843032 $209 $434 forward 7 unknown #
edge $-1 $212 -17.41637380795726 $324 -11.733235488843032 $210 $435 forward 7 unknown #
point $-1 76.99942014831997 53.197441732831258 17.41637380795726 #
point $-1 76.99942014831997 -53.197441732831258 17.41637380795726 #
plane-surface $-1 0 -53.197441732831258 0 0 1 0 0 0 1 forward_v I I I I #
coedge $-1 $349 $348 $341 $436 forward $216 $-1 #
coedge $-1 $341 $218 $220 $345 reversed $124 $-1 #
coedge $-1 $218 $340 $339 $436 reversed $124 $-1 #
coedge $-1 $226 $221 $218 $343 forward $227 $-1 #
edge $-1 $346 -39.848527417311942 $437 -25.350969804933356 $342 $438 forward 7 unknown #
coedge $-1 $220 $219 $349 $439 reversed $77 $-1 #
edge $-1 $440 -17.919966535346571 $346 -3.6960145052660132e-014 $340 $441 forward 7 unknown #
vertex $-1 $222 $442 #
straight-curve $-1 0.50397199396756065 -53.197441732831258 10.821190627242878 1 0 0 I I #
coedge $-1 $339 $223 $226 $353 forward $216 $-1 #
coedge $-1 $223 $339 $344 $439 forward $216 $-1 #
vertex $-1 $224 $443 #
straight-curve $-1 -13.491165104065018 -88.89256095356879 25.31874823962147 0 -1 0 I I #
straight-curve $-1 -13.491165104065018 -53.19744173283128 10.821190627242856 0 0.5877852410284794 0.80901700255871778 I I #
edge $-1 $228 -13.491165104065018 $437 15.507053079935261 $226 $444 forward 7 unknown #
point $-1 -13.491165104065018 -53.197441732831258 25.31874823962147 #
point $-1 -13.491165104065018 -53.197441732831258 10.821190627242887 #
edge $-1 $445 1 $445 0 $231 $-1 forward 7 unknown #
vertex $-1 $232 $446 #
ellipse-curve $-1 1.0079439879351213 -44.730578907945088 15.7448031703592 0 -0.80901700255871778 0.5877852410284794 2 0 0 1 I I #
point $-1 3.0079439879351213 -47.930895808230773 18.069969433432156 #
loop $-1 $-1 $243 $235 #
plane-surface $-1 0 0 25.31874823962147 0 0 1 1 0 0 forward_v I I I I #
coedge $-1 $363 $238 $240 $367 reversed $139 $-1 #
coedge $-1 $238 $362 $447 $448 reversed $139 $-1 #
coedge $-1 $246 $241 $238 $365 forward $236 $-1 #
edge $-1 $368 -81.993631408719509 $449 -77.373211411098168 $364 $450 forward 7 unknown #
coedge $-1 $240 $239 $371 $451 reversed $86 $-1 #
edge $-1 $452 99.743527720408025 $368 106.39488346566252 $362 $453 forward 7 unknown #
vertex $-1 $242 $454 #
straight-curve $-1 -13.027914837355993 53.197441732831251 20.698328242000134 -1 0 0 I I #
coedge $-1 $447 $243 $246 $375 forward $360 $-1 #
coedge $-1 $243 $447 $366 $451 forward $360 $-1 #
vertex $-1 $244 $455 #
straight-curve $-1 -11.992652906584372 41.819976525916289 25.31874823962147 0 1 0 I I #
straight-curve $-1 -11.992652906584372 -23.336631657946015 94.606425483689591 0 -0.71933979245794832 0.69465837861970381 I I #
edge $-1 $247 11.992652906584372 $449 40.119006442839606 $246 $456 forward 7 unknown #
point $-1 -11.992652906584372 53.197441732831258 25.31874823962147 #
point $-1 -11.992652906584372 53.197441732831265 20.69832824200013 #
edge $-1 $457 1 $457 0 $250 $-1 forward 7 unknown #
vertex $-1 $251 $458 #
ellipse-curve $-1 -32.082905432480963 48.321237330067149 20.436372155324559 0 0.69465837861970381 0.71933979245794832 1 0 0 1 I I #
point $-1 -31.082905432480963 50.80514930215358 23.008538240810807 #
edge $-1 $459 1 $459 0 $254 $-1 forward 7 unknown #
vertex $-1 $255 $460 #
ellipse-curve $-1 -20.028753916943003 48.321237330067149 20.436372155324559 0 0.69465837861970381 0.71933979245794832 1 0 0 1 I I #
point $-1 -19.028753916943003 50.80514930215358 23.008538240810807 #
plane-surface $-1 76.999420148319956 0 0 -1 0 0 0 0 1 forward_v I I I I #
coedge $-1 $263 $261 $265 $391 reversed $161 $-1 #
edge $-1 $276 -25.31874823962147 $393 25.31874823962147 $275 $461 forward 7 unknown #
vertex $-1 $391 $462 #
straight-curve $-1 -76.999420148319956 -53.197441732831258 0 0 0 -1 I I #
edge $-1 $389 -53.197441732831258 $393 53.197441732831258 $387 $463 forward 7 unknown #
straight-curve $-1 0 -53.197441732831258 -25.31874823962147 -1 0 0 I I #
vertex $-1 $268 $464 #
straight-curve $-1 0 53.197441732831258 -25.31874823962147 1 0 0 I I #
point $-1 76.999420148319956 53.197441732831258 -25.31874823962147 #
point $-1 76.999420148319956 -53.197441732831258 -25.31874823962147 #
straight-curve $-1 -76.999420148319956 0 25.31874823962147 0 -1 0 I I #
point $-1 -76.999420148319956 53.197441732831258 25.31874823962147 #
point $-1 -76.999420148319956 -53.197441732831258 25.31874823962147 #
straight-curve $-1 76.999420148319956 -53.197441732831258 0 0 0 -1 I I #
straight-curve $-1 76.999420148319956 53.197441732831258 0 0 0 -1 I I #
plane-surface $-1 0 53.197441732831258 0 0 -1 0 0 0 -1 forward_v I I I I #
coedge $-1 $413 $412 $291 $405 forward $286 $-1 #
straight-curve $-1 -53.90262058992824 -53.197441732831258 7.2874023242000732 0 0 1 I I #
edge $-1 $408 -53.197441732831258 $406 53.197441732831258 $403 $465 forward 7 unknown #
vertex $-1 $292 $466 #
straight-curve $-1 -32.725510184562047 -53.197441732831258 11.733235488843032 1 0 0 I I #
vertex $-1 $294 $467 #
straight-curve $-1 -32.725510184562047 53.197441732831258 11.733235488843032 -1 0 0 I I #
point $-1 -53.90262058992824 53.197441732831258 11.733235488843032 #
point $-1 -53.90262058992824 -53.197441732831258 11.733235488843032 #
coedge $-1 $403 $298 $301 $415 forward $286 $-1 #
coedge $-1 $298 $403 $305 $417 reversed $286 $-1 #
straight-curve $-1 -76.999420148319956 0 17.41637380795726 0 1 0 I I #
edge $-1 $303 -17.41637380795726 $408 -11.733235488843032 $301 $468 forward 7 unknown #
point $-1 -76.999420148319956 53.197441732831258 17.41637380795726 #
edge $-1 $306 -17.41637380795726 $406 -11.733235488843032 $413 $469 forward 7 unknown #
point $-1 -76.999420148319956 -53.197441732831258 17.41637380795726 #
straight-curve $-1 -53.90262058992824 53.197441732831258 7.2874023242000732 0 0 -1 I I #
plane-surface $-1 76.999420148319956 0 0 -1 0 0 0 0 1 forward_v I I I I #
coedge $-1 $315 $314 $330 $432 reversed $116 $-1 #
edge $-1 $425 -53.197441732831258 $423 53.197441732831258 $314 $470 forward 7 unknown #
vertex $-1 $322 $471 #
straight-curve $-1 53.902620589928247 53.197441732831258 7.2874023242000732 0 0 1 I I #
vertex $-1 $320 $472 #
straight-curve $-1 32.725510184562054 -53.197441732831258 11.733235488843032 1 0 0 I I #
straight-curve $-1 32.725510184562054 53.197441732831258 11.733235488843032 -1 0 0 I I #
point $-1 76.99942014831997 -53.197441732831258 11.733235488843032 #
point $-1 76.99942014831997 53.197441732831258 11.733235488843032 #
straight-curve $-1 53.902620589928247 0 17.41637380795726 0 -1 0 I I #
point $-1 53.902620589928247 53.197441732831258 17.41637380795726 #
edge $-1 $332 -10.128971483757187 $425 -4.4458331646429592 $330 $473 forward 7 unknown #
point $-1 53.902620589928247 -53.197441732831258 17.41637380795726 #
straight-curve $-1 76.999420148319956 -53.197441732831258 0 0 0 -1 I I #
straight-curve $-1 76.999420148319956 53.197441732831258 0 0 0 -1 I I #
edge $-1 $437 35.695119220737531 $440 46.228211069938482 $339 $474 forward 7 unknown #
vertex $-1 $436 $475 #
straight-curve $-1 15.507053079935261 -53.197441732831258 50.669718044554827 0 0 1 I I #
edge $-1 $440 -15.0030810859677 $350 13.995137098032579 $349 $476 forward 7 unknown #
vertex $-1 $439 $477 #
straight-curve $-1 15.507053079935261 -53.19744173283128 10.821190627242856 0 -0.5877852410284794 -0.80901700255871778 I I #
point $-1 15.507053079935261 -53.197441732831258 10.821190627242887 #
point $-1 -13.491165104065018 -42.664349883630308 25.31874823962147 #
straight-curve $-1 0 -53.197441732831258 25.31874823962147 1 0 0 I I #
vertex $-1 $356 $478 #
point $-1 3.0079439879351213 -44.730578907945088 15.7448031703592 #
coedge $-1 $371 $370 $363 $448 forward $360 $-1 #
edge $-1 $449 -11.37746520691497 $452 -6.592880345559621 $447 $479 forward 7 unknown #
vertex $-1 $448 $480 #
straight-curve $-1 -40.119006442839606 53.197441732831258 102.69195965071964 0 0 1 I I #
edge $-1 $452 -27.091091605483612 $372 1.0352619307716218 $371 $481 forward 7 unknown #
vertex $-1 $451 $482 #
straight-curve $-1 -40.119006442839606 -23.336631657946015 94.606425483689591 0 0.71933979245794832 -0.69465837861970381 I I #
point $-1 -40.119006442839606 53.197441732831265 20.69832824200013 #
point $-1 -11.992652906584372 48.41285687147591 25.31874823962147 #
straight-curve $-1 0 53.197441732831258 25.31874823962147 -1 0 0 I I #
vertex $-1 $378 $483 #
point $-1 -31.082905432480963 48.321237330067149 20.436372155324559 #
vertex $-1 $382 $484 #
point $-1 -19.028753916943003 48.321237330067149 20.436372155324559 #
straight-curve $-1 -76.999420148319956 53.197441732831258 0 0 0 -1 I I #
point $-1 -76.999420148319956 -53.197441732831258 -25.31874823962147 #
straight-curve $-1 -76.999420148319956 0 -25.31874823962147 0 1 0 I I #
point $-1 -76.999420148319956 53.197441732831258 -25.31874823962147 #
straight-curve $-1 -76.999420148319956 0 11.733235488843032 0 -1 0 I I #
point $-1 -76.999420148319956 -53.197441732831258 11.733235488843032 #
point $-1 -76.999420148319956 53.197441732831258 11.733235488843032 #
straight-curve $-1 -76.999420148319956 53.197441732831258 0 0 0 -1 I I #
straight-curve $-1 -76.999420148319956 -53.197441732831258 0 0 0 -1 I I #
straight-curve $-1 53.902620589928247 0 11.733235488843032 0 1 0 I I #
point $-1 53.902620589928247 53.197441732831258 11.733235488843032 #
point $-1 53.902620589928247 -53.197441732831258 11.733235488843032 #
straight-curve $-1 53.902620589928247 -53.197441732831258 7.2874023242000732 0 0 -1 I I #
straight-curve $-1 15.507053079935261 -88.89256095356879 25.31874823962147 0 1 0 I I #
point $-1 15.507053079935261 -53.197441732831258 25.31874823962147 #
straight-curve $-1 0.50397199396756065 -42.664349883630308 25.31874823962147 -1 0 0 I I #
point $-1 15.507053079935261 -42.664349883630308 25.31874823962147 #
point $-1 1.0079439879351213 -43.112544902827651 14.569232688302241 #
straight-curve $-1 -40.119006442839606 41.819976525916289 25.31874823962147 0 -1 0 I I #
point $-1 -40.119006442839606 53.197441732831258 25.31874823962147 #
straight-curve $-1 -13.027914837355993 48.41285687147591 25.31874823962147 1 0 0 I I #
point $-1 -40.119006442839606 48.41285687147591 25.31874823962147 #
point $-1 -32.082905432480963 47.626578951447442 19.717032362866608 #
point $-1 -20.028753916943003 47.626578951447442 19.717032362866608 #
End-of-ACIS-data 