500 0 4 0           
7 Unknown 11 ACIS 5.0 NT 24 Fri Mar 26 01:35:08 1999 
-1 9.9999999999999995e-007 1e-010 
body $-1 $4 $-1 $5 #
body $-1 $6 $-1 $7 #
body $-1 $8 $-1 $9 #
body $-1 $10 $-1 $11 #
lump $-1 $-1 $12 $0 #
transform $-1 1 0 0 0 1 0 0 0 1 73.185827204199342 31.79910455859941 12.084766058119907 1 rotate no_reflect no_shear #
lump $-1 $-1 $13 $1 #
transform $-1 1 0 0 0 1 0 0 0 1 73.185827204199342 31.79910455859941 12.084766058119907 1 rotate no_reflect no_shear #
lump $-1 $-1 $14 $2 #
transform $-1 1 0 0 0 1 0 0 0 1 73.185827204199342 31.79910455859941 12.084766058119907 1 rotate no_reflect no_shear #
lump $-1 $-1 $15 $3 #
transform $-1 1 0 0 0 1 0 0 0 1 73.185827204199342 31.79910455859941 12.084766058119907 1 rotate no_reflect no_shear #
shell $-1 $-1 $-1 $16 $-1 $4 #
shell $-1 $-1 $-1 $17 $-1 $6 #
shell $-1 $-1 $-1 $18 $-1 $8 #
shell $-1 $-1 $-1 $19 $-1 $10 #
face $-1 $20 $21 $12 $-1 $22 forward single #
face $-1 $23 $24 $13 $-1 $25 forward single #
face $-1 $26 $27 $14 $-1 $28 reversed single #
face $-1 $29 $30 $15 $-1 $31 forward single #
face $-1 $32 $33 $12 $-1 $34 reversed single #
loop $-1 $-1 $35 $16 #
plane-surface $-1 0 0 12.084766058119907 0 0 1 1 0 0 forward_v I I I I #
face $-1 $36 $37 $13 $-1 $38 reversed single #
loop $-1 $-1 $39 $17 #
plane-surface $-1 -67.990886228211892 0 -5.1453287829231371 0 0 1 1 0 0 forward_v I I I I #
face $-1 $40 $41 $14 $-1 $42 reversed single #
loop $-1 $-1 $43 $18 #
plane-surface $-1 36.771994310773309 66.382173832016178 159.60205424851415 1 0 0 0 -0.5877852598018023 -0.80901698891910034 forward_v I I I I #
face $-1 $44 $45 $15 $-1 $46 forward single #
loop $-1 $47 $48 $19 #
cone-surface $-1 54.978910757486318 25.232882334860324 6.7509400480405732 0 -0.5877852598018023 -0.80901698891910034 2 0 0 1 I I 0 1 2 forward I I I I #
face $-1 $49 $50 $12 $-1 $51 reversed single #
loop $-1 $-1 $52 $20 #
plane-surface $-1 0 0 -12.084766058119907 0 0 1 1 0 0 forward_v I I I I #
coedge $-1 $53 $54 $55 $56 forward $21 $-1 #
face $-1 $57 $58 $13 $-1 $59 reversed single #
loop $-1 $-1 $60 $23 #
plane-surface $-1 -62.795945252224442 0 -8.6150474205215222 -1 0 0 0 0 1 forward_v I I I I #
coedge $-1 $61 $62 $63 $64 forward $24 $-1 #
face $-1 $65 $66 $14 $-1 $67 reversed single #
loop $-1 $-1 $68 $26 #
plane-surface $-1 54.978910757486318 -19.652927082044059 41.184899135924283 0 0.5877852598018023 0.80901698891910034 1 0 0 forward_v I I I I #
coedge $-1 $69 $70 $71 $72 reversed $27 $-1 #
face $-1 $-1 $73 $15 $-1 $74 forward single #
loop $-1 $75 $76 $29 #
cone-surface $-1 54.978910757486318 23.7784425367485 4.7490754445809742 0 -0.5877852598018023 -0.80901698891910034 1 0 0 1 I I -0.70710678118654746 0.70710678118654746 1 forward I I I I #
loop $-1 $-1 $77 $19 #
coedge $-1 $48 $48 $78 $79 reversed $30 $-1 #
face $-1 $80 $81 $12 $-1 $82 reversed single #
loop $-1 $-1 $83 $32 #
plane-surface $-1 0 -31.79910455859941 0 0 1 0 0 0 1 forward_v I I I I #
coedge $-1 $84 $85 $86 $87 forward $33 $-1 #
coedge $-1 $88 $35 $89 $90 forward $21 $-1 #
coedge $-1 $35 $88 $91 $92 forward $21 $-1 #
coedge $-1 $93 $94 $35 $56 reversed $95 $-1 #
edge $-1 $96 -31.79910455859941 $97 31.79910455859941 $55 $98 forward 7 unknown #
face $-1 $99 $100 $13 $-1 $101 reversed single #
loop $-1 $-1 $102 $36 #
plane-surface $-1 0 0 -12.084766058119907 0 0 1 1 0 0 forward_v I I I I #
coedge $-1 $103 $63 $104 $105 reversed $37 $-1 #
coedge $-1 $106 $39 $107 $108 reversed $24 $-1 #
coedge $-1 $39 $106 $109 $110 reversed $24 $-1 #
coedge $-1 $60 $111 $39 $64 reversed $37 $-1 #
edge $-1 $112 -31.79910455859941 $113 31.79910455859941 $63 $114 forward 7 unknown #
face $-1 $115 $116 $14 $-1 $117 reversed single #
loop $-1 $-1 $118 $40 #
plane-surface $-1 73.185827204199342 0 0 -1 0 0 0 0 1 forward_v I I I I #
coedge $-1 $119 $120 $121 $122 reversed $41 $-1 #
coedge $-1 $70 $43 $123 $124 reversed $27 $-1 #
coedge $-1 $43 $69 $119 $125 reversed $27 $-1 #
coedge $-1 $121 $126 $43 $72 forward $127 $-1 #
edge $-1 $128 1.3919823574086791 $129 12.791117728266819 $71 $130 forward 7 unknown #
loop $-1 $-1 $78 $44 #
plane-surface $-1 54.978910757486318 -19.652927082044059 41.184899135924283 0 0.5877852598018023 0.80901698891910034 1 0 0 forward_v I I I I #
loop $-1 $-1 $131 $29 #
coedge $-1 $76 $76 $77 $132 reversed $45 $-1 #
coedge $-1 $77 $77 $76 $132 forward $47 $-1 #
coedge $-1 $78 $78 $48 $79 forward $73 $-1 #
edge $-1 $133 -9.1215896282462475e-016 $133 6.2831853071795996 $78 $134 forward 7 unknown #
face $-1 $135 $136 $12 $-1 $137 reversed single #
loop $-1 $-1 $138 $49 #
plane-surface $-1 -73.185827204199342 0 0 1 0 0 0 0 -1 forward_v I I I I #
coedge $-1 $139 $91 $140 $141 forward $50 $-1 #
coedge $-1 $142 $52 $139 $143 forward $33 $-1 #
coedge $-1 $52 $142 $144 $145 forward $33 $-1 #
coedge $-1 $94 $93 $52 $87 reversed $95 $-1 #
edge $-1 $146 -31.79910455859941 $147 31.79910455859941 $86 $148 forward 7 unknown #
coedge $-1 $54 $53 $149 $150 forward $21 $-1 #
coedge $-1 $151 $152 $53 $90 reversed $136 $-1 #
edge $-1 $97 -73.185827204199342 $153 73.185827204199342 $89 $154 forward 7 unknown #
coedge $-1 $83 $155 $54 $92 reversed $50 $-1 #
edge $-1 $156 -73.185827204199342 $96 73.185827204199342 $91 $157 forward 7 unknown #
coedge $-1 $86 $55 $155 $158 forward $95 $-1 #
coedge $-1 $55 $86 $151 $159 reversed $95 $-1 #
loop $-1 $-1 $93 $135 #
vertex $-1 $56 $160 #
vertex $-1 $56 $161 #
straight-curve $-1 73.185827204199342 0 12.084766058119907 0 1 0 I I #
face $-1 $162 $163 $13 $-1 $164 reversed single #
loop $-1 $-1 $104 $57 #
plane-surface $-1 0 -31.79910455859941 0 0 1 0 0 0 1 forward_v I I I I #
coedge $-1 $165 $166 $103 $167 forward $58 $-1 #
coedge $-1 $111 $60 $102 $167 reversed $37 $-1 #
coedge $-1 $109 $168 $60 $105 forward $100 $-1 #
edge $-1 $169 -7.7772423478591461 $112 -0.83780507266237603 $104 $170 forward 7 unknown #
coedge $-1 $62 $61 $171 $172 reversed $24 $-1 #
coedge $-1 $173 $174 $61 $108 forward $175 $-1 #
edge $-1 $176 -39.190384090093396 $113 -28.800502138118496 $107 $177 forward 7 unknown #
coedge $-1 $178 $104 $62 $110 forward $100 $-1 #
edge $-1 $112 28.800502138118496 $179 39.190384090093396 $109 $180 forward 7 unknown #
coedge $-1 $63 $103 $173 $181 reversed $37 $-1 #
vertex $-1 $110 $182 #
vertex $-1 $108 $183 #
straight-curve $-1 -62.795945252224442 0 -5.1453287829231371 0 1 0 I I #
face $-1 $-1 $127 $14 $-1 $184 forward single #
loop $-1 $-1 $185 $65 #
plane-surface $-1 0 31.79910455859941 0 0 -1 0 0 0 -1 forward_v I I I I #
coedge $-1 $186 $187 $120 $188 forward $66 $-1 #
coedge $-1 $189 $68 $70 $125 forward $41 $-1 #
coedge $-1 $68 $189 $118 $188 reversed $41 $-1 #
coedge $-1 $190 $71 $68 $122 forward $127 $-1 #
edge $-1 $129 9.2825389320301497 $191 45.696371825456168 $121 $192 forward 7 unknown #
coedge $-1 $193 $185 $69 $124 forward $116 $-1 #
edge $-1 $194 -75.998217857214854 $128 -67.716261066137164 $123 $195 forward 7 unknown #
edge $-1 $129 49.508102819075056 $194 63.59820911719882 $70 $196 forward 7 unknown #
coedge $-1 $71 $190 $193 $197 forward $127 $-1 #
loop $-1 $-1 $121 $115 #
vertex $-1 $124 $198 #
vertex $-1 $72 $199 #
straight-curve $-1 36.771994310773309 33.191086916008089 12.084766058119911 0 -1 0 I I #
coedge $-1 $131 $131 $-1 $200 reversed $75 $-1 #
edge $-1 $201 0 $201 6.2831853071796004 $76 $202 forward 7 unknown #
vertex $-1 $79 $203 #
ellipse-curve $-1 54.978910757486318 26.09953687317034 7.9437876625810633 0 0.5877852598018023 0.80901698891910034 2 0 0 1 I I #
face $-1 $-1 $95 $12 $-1 $204 reversed single #
loop $-1 $-1 $151 $80 #
plane-surface $-1 0 31.79910455859941 0 0 -1 0 0 0 -1 forward_v I I I I #
coedge $-1 $205 $149 $152 $206 forward $81 $-1 #
coedge $-1 $155 $83 $84 $143 reversed $50 $-1 #
coedge $-1 $149 $205 $83 $141 reversed $81 $-1 #
edge $-1 $156 -12.084766058119907 $207 12.084766058119907 $140 $208 forward 7 unknown #
coedge $-1 $85 $84 $205 $209 forward $33 $-1 #
edge $-1 $147 -73.185827204199342 $207 73.185827204199342 $139 $210 forward 7 unknown #
coedge $-1 $152 $151 $85 $145 reversed $136 $-1 #
edge $-1 $211 -73.185827204199342 $146 73.185827204199342 $144 $212 forward 7 unknown #
vertex $-1 $87 $213 #
vertex $-1 $158 $214 #
straight-curve $-1 73.185827204199342 0 -12.084766058119907 0 -1 0 I I #
coedge $-1 $138 $140 $88 $150 reversed $81 $-1 #
edge $-1 $153 -31.79910455859941 $156 31.79910455859941 $149 $215 forward 7 unknown #
coedge $-1 $144 $89 $94 $159 forward $136 $-1 #
coedge $-1 $89 $144 $138 $206 reversed $136 $-1 #
vertex $-1 $90 $216 #
straight-curve $-1 0 31.79910455859941 12.084766058119907 -1 0 0 I I #
coedge $-1 $91 $139 $93 $158 reversed $50 $-1 #
vertex $-1 $150 $217 #
straight-curve $-1 0 -31.79910455859941 12.084766058119907 1 0 0 I I #
edge $-1 $96 -12.084766058119907 $147 12.084766058119907 $93 $218 forward 7 unknown #
edge $-1 $97 -12.084766058119907 $146 12.084766058119907 $94 $219 forward 7 unknown #
point $-1 73.185827204199342 -31.79910455859941 12.084766058119907 #
point $-1 73.185827204199342 31.79910455859941 12.084766058119907 #
face $-1 $-1 $175 $13 $-1 $220 reversed single #
loop $-1 $-1 $171 $99 #
plane-surface $-1 -73.185827204199342 0 0 1 0 0 0 0 -1 forward_v I I I I #
coedge $-1 $221 $102 $168 $222 forward $58 $-1 #
coedge $-1 $102 $221 $223 $224 forward $58 $-1 #
edge $-1 $225 -31.79910455859941 $169 31.79910455859941 $102 $226 forward 7 unknown #
coedge $-1 $104 $178 $165 $222 reversed $100 $-1 #
vertex $-1 $222 $227 #
straight-curve $-1 -62.795945252224442 -31.79910455859941 -4.3075237102607611 0 0 1 I I #
coedge $-1 $228 $229 $106 $172 forward $163 $-1 #
edge $-1 $179 -31.79910455859941 $176 31.79910455859941 $171 $230 forward 7 unknown #
coedge $-1 $223 $107 $111 $181 forward $175 $-1 #
coedge $-1 $107 $223 $228 $231 reversed $175 $-1 #
loop $-1 $-1 $173 $162 #
vertex $-1 $231 $232 #
straight-curve $-1 -33.995443114105946 31.79910455859941 -5.1453287829231371 1 0 0 I I #
coedge $-1 $168 $109 $229 $233 forward $100 $-1 #
vertex $-1 $233 $234 #
straight-curve $-1 -33.995443114105946 -31.79910455859941 -5.1453287829231371 -1 0 0 I I #
edge $-1 $113 0.83780507266237603 $225 7.7772423478591461 $173 $235 forward 7 unknown #
point $-1 -62.795945252224442 -31.79910455859941 -5.1453287829231371 #
point $-1 -62.795945252224442 31.79910455859941 -5.1453287829231371 #
plane-surface $-1 0 0 12.084766058119907 0 0 1 1 0 0 forward_v I I I I #
coedge $-1 $123 $236 $189 $237 forward $116 $-1 #
coedge $-1 $187 $118 $236 $238 reversed $66 $-1 #
coedge $-1 $118 $186 $190 $239 reversed $66 $-1 #
edge $-1 $191 29.454388554133956 $240 43.544494852257714 $118 $241 forward 7 unknown #
coedge $-1 $120 $119 $185 $237 reversed $41 $-1 #
coedge $-1 $126 $121 $187 $239 forward $127 $-1 #
vertex $-1 $239 $242 #
straight-curve $-1 27.489455378743159 20.399969187741274 12.084766058119907 1 0 0 I I #
coedge $-1 $236 $123 $126 $197 reversed $116 $-1 #
vertex $-1 $124 $243 #
straight-curve $-1 36.771994310773309 31.79910455859941 79.801027124257075 0 0 1 I I #
straight-curve $-1 36.771994310773309 -19.652927082044059 41.184899135924283 0 0.80901698891910034 -0.5877852598018023 I I #
edge $-1 $244 -73.185827204199342 $128 -36.771994310773309 $193 $245 forward 7 unknown #
point $-1 36.771994310773309 31.79910455859941 12.084766058119907 #
point $-1 36.771994310773309 20.39996918774127 12.084766058119907 #
edge $-1 $246 1 $246 0 $131 $-1 forward 7 unknown #
vertex $-1 $132 $247 #
ellipse-curve $-1 54.978910757486318 24.366227796550302 5.5580924335000743 0 0.5877852598018023 0.80901698891910034 2 0 0 1 I I #
point $-1 56.978910757486318 26.099536873170344 7.9437876625810713 #
plane-surface $-1 73.185827204199342 0 0 -1 0 0 0 0 1 forward_v I I I I #
coedge $-1 $140 $138 $142 $209 reversed $81 $-1 #
edge $-1 $153 -12.084766058119907 $211 12.084766058119907 $152 $248 forward 7 unknown #
vertex $-1 $209 $249 #
straight-curve $-1 -73.185827204199342 -31.79910455859941 0 0 0 -1 I I #
edge $-1 $207 -31.79910455859941 $211 31.79910455859941 $205 $250 forward 7 unknown #
straight-curve $-1 0 -31.79910455859941 -12.084766058119907 -1 0 0 I I #
vertex $-1 $145 $251 #
straight-curve $-1 0 31.79910455859941 -12.084766058119907 1 0 0 I I #
point $-1 73.185827204199342 31.79910455859941 -12.084766058119907 #
point $-1 73.185827204199342 -31.79910455859941 -12.084766058119907 #
straight-curve $-1 -73.185827204199342 0 12.084766058119907 0 -1 0 I I #
point $-1 -73.185827204199342 31.79910455859941 12.084766058119907 #
point $-1 -73.185827204199342 -31.79910455859941 12.084766058119907 #
straight-curve $-1 73.185827204199342 -31.79910455859941 0 0 0 -1 I I #
straight-curve $-1 73.185827204199342 31.79910455859941 0 0 0 -1 I I #
plane-surface $-1 0 31.79910455859941 0 0 -1 0 0 0 -1 forward_v I I I I #
coedge $-1 $166 $165 $252 $253 forward $58 $-1 #
edge $-1 $169 62.795945252224442 $254 73.185827204199342 $168 $255 forward 7 unknown #
coedge $-1 $174 $173 $166 $224 reversed $175 $-1 #
edge $-1 $256 -73.185827204199342 $225 -62.795945252224442 $223 $257 forward 7 unknown #
vertex $-1 $181 $258 #
straight-curve $-1 -62.795945252224442 0 -12.084766058119907 0 -1 0 I I #
point $-1 -62.795945252224442 -31.79910455859941 -12.084766058119907 #
coedge $-1 $252 $171 $174 $231 forward $163 $-1 #
coedge $-1 $171 $252 $178 $233 reversed $163 $-1 #
straight-curve $-1 -73.185827204199342 0 -5.1453287829231371 0 1 0 I I #
edge $-1 $176 5.1453287829231371 $256 12.084766058119907 $174 $259 forward 7 unknown #
point $-1 -73.185827204199342 31.79910455859941 -5.1453287829231371 #
edge $-1 $179 5.1453287829231371 $254 12.084766058119907 $229 $260 forward 7 unknown #
point $-1 -73.185827204199342 -31.79910455859941 -5.1453287829231371 #
straight-curve $-1 -62.795945252224442 31.79910455859941 -4.3075237102607611 0 0 -1 I I #
coedge $-1 $185 $193 $186 $238 forward $116 $-1 #
edge $-1 $240 -45.696371825456168 $194 -9.2825389320301497 $185 $261 forward 7 unknown #
edge $-1 $244 -12.084766058119907 $240 -3.8028092670422211 $186 $262 forward 7 unknown #
edge $-1 $191 20.39996918774127 $244 31.79910455859941 $187 $263 forward 7 unknown #
vertex $-1 $188 $264 #
straight-curve $-1 73.185827204199342 -3.4291315507773996 29.397621486714765 0 0.80901698891910034 -0.5877852598018023 I I #
point $-1 73.185827204199327 20.39996918774127 12.084766058119907 #
point $-1 36.771994310773309 31.79910455859941 3.8028092670422211 #
vertex $-1 $239 $265 #
straight-curve $-1 0 31.79910455859941 12.084766058119907 -1 0 0 I I #
vertex $-1 $200 $266 #
point $-1 56.978910757486318 24.366227796550302 5.5580924335000743 #
straight-curve $-1 -73.185827204199342 31.79910455859941 0 0 0 -1 I I #
point $-1 -73.185827204199342 -31.79910455859941 -12.084766058119907 #
straight-curve $-1 -73.185827204199342 0 -12.084766058119907 0 1 0 I I #
point $-1 -73.185827204199342 31.79910455859941 -12.084766058119907 #
coedge $-1 $229 $228 $221 $253 reversed $163 $-1 #
edge $-1 $254 -31.79910455859941 $256 31.79910455859941 $252 $267 forward 7 unknown #
vertex $-1 $253 $268 #
straight-curve $-1 0 -31.79910455859941 -12.084766058119907 -1 0 0 I I #
vertex $-1 $224 $269 #
straight-curve $-1 0 31.79910455859941 -12.084766058119907 1 0 0 I I #
point $-1 -62.795945252224442 31.79910455859941 -12.084766058119907 #
straight-curve $-1 -73.185827204199342 31.79910455859941 0 0 0 -1 I I #
straight-curve $-1 -73.185827204199342 -31.79910455859941 0 0 0 -1 I I #
straight-curve $-1 27.489455378743159 31.799104558599414 3.8028092670422176 -1 0 0 I I #
straight-curve $-1 73.185827204199342 31.79910455859941 0 0 0 -1 I I #
straight-curve $-1 73.185827204199342 0 12.084766058119907 0 1 0 I I #
point $-1 73.185827204199327 31.79910455859941 3.8028092670422211 #
point $-1 73.185827204199342 31.79910455859941 12.084766058119907 #
point $-1 54.978910757486318 23.190657276946698 3.9400584556618741 #
straight-curve $-1 -73.185827204199342 0 -12.084766058119907 0 1 0 I I #
point $-1 -73.185827204199342 -31.79910455859941 -12.084766058119907 #
point $-1 -73.185827204199342 31.79910455859941 -12.084766058119907 #
End-of-ACIS-data 