500 0 12 0           
7 Unknown 11 ACIS 5.0 NT 24 Thu Mar 25 21:13:13 1999 
-1 9.9999999999999995e-007 1e-010 
body $-1 $12 $-1 $13 #
body $-1 $14 $-1 $15 #
body $-1 $16 $-1 $17 #
body $-1 $18 $-1 $19 #
body $-1 $20 $-1 $21 #
body $-1 $22 $-1 $23 #
body $-1 $24 $-1 $25 #
body $-1 $26 $-1 $27 #
body $-1 $28 $-1 $29 #
body $-1 $30 $-1 $31 #
body $-1 $32 $-1 $33 #
body $-1 $34 $-1 $35 #
lump $-1 $-1 $36 $0 #
transform $-1 1 0 0 0 1 0 0 0 1 58.012024292733543 30.771849514132281 13.470701822433083 1 rotate no_reflect no_shear #
lump $-1 $-1 $37 $1 #
transform $-1 1 0 0 0 1 0 0 0 1 58.012024292733543 30.771849514132281 13.470701822433083 1 rotate no_reflect no_shear #
lump $-1 $-1 $38 $2 #
transform $-1 1 0 0 0 1 0 0 0 1 58.012024292733543 30.771849514132281 13.470701822433083 1 rotate no_reflect no_shear #
lump $-1 $-1 $39 $3 #
transform $-1 1 0 0 0 1 0 0 0 1 58.012024292733543 30.771849514132281 13.470701822433083 1 rotate no_reflect no_shear #
lump $-1 $-1 $40 $4 #
transform $-1 1 0 0 0 1 0 0 0 1 58.012024292733543 30.771849514132281 13.470701822433083 1 rotate no_reflect no_shear #
lump $-1 $-1 $41 $5 #
transform $-1 1 0 0 0 1 0 0 0 1 58.012024292733543 30.771849514132281 13.470701822433083 1 rotate no_reflect no_shear #
lump $-1 $-1 $42 $6 #
transform $-1 1 0 0 0 1 0 0 0 1 58.012024292733543 30.771849514132281 13.470701822433083 1 rotate no_reflect no_shear #
lump $-1 $-1 $43 $7 #
transform $-1 1 0 0 0 1 0 0 0 1 58.012024292733543 30.771849514132281 13.470701822433083 1 rotate no_reflect no_shear #
lump $-1 $-1 $44 $8 #
transform $-1 1 0 0 0 1 0 0 0 1 58.012024292733543 30.771849514132281 13.470701822433083 1 rotate no_reflect no_shear #
lump $-1 $-1 $45 $9 #
transform $-1 1 0 0 0 1 0 0 0 1 58.012024292733543 30.771849514132281 13.470701822433083 1 rotate no_reflect no_shear #
lump $-1 $-1 $46 $10 #
transform $-1 1 0 0 0 1 0 0 0 1 58.012024292733543 30.771849514132281 13.470701822433083 1 rotate no_reflect no_shear #
lump $-1 $-1 $47 $11 #
transform $-1 1 0 0 0 1 0 0 0 1 58.012024292733543 30.771849514132281 13.470701822433083 1 rotate no_reflect no_shear #
shell $-1 $-1 $-1 $48 $-1 $12 #
shell $-1 $-1 $-1 $49 $-1 $14 #
shell $-1 $-1 $-1 $50 $-1 $16 #
shell $-1 $-1 $-1 $51 $-1 $18 #
shell $-1 $-1 $-1 $52 $-1 $20 #
shell $-1 $-1 $-1 $53 $-1 $22 #
shell $-1 $-1 $-1 $54 $-1 $24 #
shell $-1 $-1 $-1 $55 $-1 $26 #
shell $-1 $-1 $-1 $56 $-1 $28 #
shell $-1 $-1 $-1 $57 $-1 $30 #
shell $-1 $-1 $-1 $58 $-1 $32 #
shell $-1 $-1 $-1 $59 $-1 $34 #
face $-1 $60 $61 $36 $-1 $62 forward single #
face $-1 $63 $64 $37 $-1 $65 forward single #
face $-1 $66 $67 $38 $-1 $68 reversed single #
face $-1 $69 $70 $39 $-1 $71 forward single #
face $-1 $72 $73 $40 $-1 $74 forward single #
face $-1 $75 $76 $41 $-1 $77 forward single #
face $-1 $78 $79 $42 $-1 $80 reversed single #
face $-1 $81 $82 $43 $-1 $83 forward single #
face $-1 $84 $85 $44 $-1 $86 forward single #
face $-1 $87 $88 $45 $-1 $89 reversed single #
face $-1 $90 $91 $46 $-1 $92 forward single #
face $-1 $93 $94 $47 $-1 $95 forward single #
face $-1 $96 $97 $36 $-1 $98 reversed single #
loop $-1 $-1 $99 $48 #
plane-surface $-1 0 0 13.470701822433083 0 0 1 1 0 0 forward_v I I I I #
face $-1 $100 $101 $37 $-1 $102 reversed single #
loop $-1 $-1 $103 $49 #
plane-surface $-1 0 -24.095644385904521 12.472929113054319 0 0 1 1 0 0 forward_v I I I I #
face $-1 $104 $105 $38 $-1 $106 reversed single #
loop $-1 $-1 $107 $50 #
plane-surface $-1 -131.02832482640957 -8.6967724860785189 95.640237000076283 0 1 0 -0.62932039886446345 0 0.77714595512881146 forward_v I I I I #
face $-1 $108 $109 $39 $-1 $110 forward single #
loop $-1 $111 $112 $51 #
cone-surface $-1 -52.758958057916125 -6.5611352126222258 9.0830864057580474 0.62932039886446345 0 -0.77714595512881146 0.19428648878220287 0 0.15733009971611586 1 I I 0 1 0.25 forward I I I I #
face $-1 $113 $114 $40 $-1 $115 forward single #
loop $-1 $116 $117 $52 #
cone-surface $-1 -52.758958057916125 -3.3576793024377878 9.0830864057580474 0.62932039886446345 0 -0.77714595512881146 0.19428648878220287 0 0.15733009971611586 1 I I 0 1 0.25 forward I I I I #
face $-1 $118 $119 $41 $-1 $120 forward single #
loop $-1 $121 $122 $53 #
cone-surface $-1 -52.758958057916125 -0.1542233922533498 9.0830864057580474 0.62932039886446345 0 -0.77714595512881146 0.19428648878220287 0 0.15733009971611586 1 I I 0 1 0.25 forward I I I I #
face $-1 $123 $124 $42 $-1 $125 reversed single #
loop $-1 $-1 $126 $54 #
plane-surface $-1 52.285619564068298 -5.6621979357550423 173.75147834134927 0 -1 0 -0.68199836817093118 0 -0.7313536940579346 forward_v I I I I #
face $-1 $127 $128 $43 $-1 $129 forward single #
loop $-1 $130 $131 $55 #
cone-surface $-1 55.686042886783831 -12.234081770274639 11.253999066656197 -0.68199836817093118 0 -0.7313536940579346 0.3656768470289673 0 -0.34099918408546559 1 I I 0 1 0.5 forward I I I I #
face $-1 $132 $133 $44 $-1 $134 forward single #
loop $-1 $135 $136 $56 #
cone-surface $-1 55.686042886783831 -8.2909514695628808 11.253999066656197 -0.68199836817093118 0 -0.7313536940579346 0.3656768470289673 0 -0.34099918408546559 1 I I 0 1 0.5 forward I I I I #
face $-1 $137 $138 $45 $-1 $139 reversed single #
loop $-1 $-1 $140 $57 #
plane-surface $-1 52.285619564068298 28.215245560537991 173.75147834134927 0 -1 0 -0.68199836817093118 0 -0.7313536940579346 forward_v I I I I #
face $-1 $141 $142 $46 $-1 $143 forward single #
loop $-1 $144 $145 $58 #
cone-surface $-1 55.686042886783831 21.643361726018394 11.253999066656197 -0.68199836817093118 0 -0.7313536940579346 0.3656768470289673 0 -0.34099918408546559 1 I I 0 1 0.5 forward I I I I #
face $-1 $146 $147 $47 $-1 $148 forward single #
loop $-1 $149 $150 $59 #
cone-surface $-1 55.686042886783831 25.586492026730152 11.253999066656197 -0.68199836817093118 0 -0.7313536940579346 0.3656768470289673 0 -0.34099918408546559 1 I I 0 1 0.5 forward I I I I #
face $-1 $151 $152 $36 $-1 $153 reversed single #
loop $-1 $-1 $154 $60 #
plane-surface $-1 0 0 -13.470701822433083 0 0 1 1 0 0 forward_v I I I I #
coedge $-1 $155 $156 $157 $158 forward $61 $-1 #
face $-1 $159 $160 $37 $-1 $161 reversed single #
loop $-1 $-1 $162 $63 #
plane-surface $-1 0 -24.095644385904521 5.0270641492937198 0 0 1 1 0 0 forward_v I I I I #
coedge $-1 $163 $164 $165 $166 reversed $64 $-1 #
face $-1 $167 $168 $38 $-1 $169 reversed single #
loop $-1 $-1 $170 $66 #
plane-surface $-1 -58.012024292733543 -3.3576793024377878 5.4726169442118362 -0.62932039886446345 0 0.77714595512881146 0.77714595512881146 0 0.62932039886446345 forward_v I I I I #
coedge $-1 $171 $172 $173 $174 reversed $67 $-1 #
face $-1 $-1 $175 $39 $-1 $176 forward single #
loop $-1 $177 $178 $69 #
cone-surface $-1 -52.365632808625833 -6.5611352126222258 8.5973701838025409 0.62932039886446345 0 -0.77714595512881146 0.097143244391101433 0 0.078665049858057931 1 I I -0.70710678118654746 0.70710678118654746 0.125 forward I I I I #
loop $-1 $-1 $179 $51 #
coedge $-1 $112 $112 $180 $181 reversed $70 $-1 #
face $-1 $-1 $182 $40 $-1 $183 forward single #
loop $-1 $184 $185 $72 #
cone-surface $-1 -52.365632808625833 -3.3576793024377878 8.5973701838025409 0.62932039886446345 0 -0.77714595512881146 0.097143244391101433 0 0.078665049858057931 1 I I -0.70710678118654746 0.70710678118654746 0.125 forward I I I I #
loop $-1 $-1 $186 $52 #
coedge $-1 $117 $117 $187 $188 reversed $73 $-1 #
face $-1 $-1 $189 $41 $-1 $190 forward single #
loop $-1 $191 $192 $75 #
cone-surface $-1 -52.365632808625833 -0.1542233922533498 8.5973701838025409 0.62932039886446345 0 -0.77714595512881146 0.097143244391101433 0 0.078665049858057931 1 I I -0.70710678118654746 0.70710678118654746 0.125 forward I I I I #
loop $-1 $-1 $193 $53 #
coedge $-1 $122 $122 $194 $195 reversed $76 $-1 #
face $-1 $196 $197 $42 $-1 $198 reversed single #
loop $-1 $-1 $199 $78 #
plane-surface $-1 -26.842592239805086 -10.26251661991876 88.896861808810641 0.68199836817093118 0 0.7313536940579346 0.7313536940579346 0 -0.68199836817093118 forward_v I I I I #
coedge $-1 $200 $201 $202 $203 reversed $79 $-1 #
face $-1 $-1 $204 $43 $-1 $205 forward single #
loop $-1 $206 $207 $81 #
cone-surface $-1 55.174544110655631 -12.234081770274639 10.705483796112746 -0.68199836817093118 0 -0.7313536940579346 0.18283842351448365 0 -0.17049959204273279 1 I I -0.70710678118654746 0.70710678118654746 0.25 forward I I I I #
loop $-1 $-1 $208 $55 #
coedge $-1 $131 $131 $209 $210 reversed $82 $-1 #
face $-1 $-1 $211 $44 $-1 $212 forward single #
loop $-1 $213 $214 $84 #
cone-surface $-1 55.174544110655631 -8.2909514695628808 10.705483796112746 -0.68199836817093118 0 -0.7313536940579346 0.18283842351448365 0 -0.17049959204273279 1 I I -0.70710678118654746 0.70710678118654746 0.25 forward I I I I #
loop $-1 $-1 $215 $56 #
coedge $-1 $136 $136 $216 $217 reversed $85 $-1 #
face $-1 $218 $219 $45 $-1 $220 reversed single #
loop $-1 $-1 $221 $87 #
plane-surface $-1 -26.842592239805086 23.614926876374273 88.896861808810641 0.68199836817093118 0 0.7313536940579346 0.7313536940579346 0 -0.68199836817093118 forward_v I I I I #
coedge $-1 $222 $223 $224 $225 reversed $88 $-1 #
face $-1 $-1 $226 $46 $-1 $227 forward single #
loop $-1 $228 $229 $90 #
cone-surface $-1 55.174544110655631 21.643361726018394 10.705483796112746 -0.68199836817093118 0 -0.7313536940579346 0.18283842351448365 0 -0.17049959204273279 1 I I -0.70710678118654746 0.70710678118654746 0.25 forward I I I I #
loop $-1 $-1 $230 $58 #
coedge $-1 $145 $145 $231 $232 reversed $91 $-1 #
face $-1 $-1 $233 $47 $-1 $234 forward single #
loop $-1 $235 $236 $93 #
cone-surface $-1 55.174544110655631 25.586492026730152 10.705483796112746 -0.68199836817093118 0 -0.7313536940579346 0.18283842351448365 0 -0.17049959204273279 1 I I -0.70710678118654746 0.70710678118654746 0.25 forward I I I I #
loop $-1 $-1 $237 $59 #
coedge $-1 $150 $150 $238 $239 reversed $94 $-1 #
face $-1 $240 $241 $36 $-1 $242 reversed single #
loop $-1 $-1 $243 $96 #
plane-surface $-1 0 -30.771849514132281 0 0 1 0 0 0 1 forward_v I I I I #
coedge $-1 $244 $245 $246 $247 forward $97 $-1 #
coedge $-1 $248 $99 $249 $250 forward $61 $-1 #
coedge $-1 $99 $248 $251 $252 forward $61 $-1 #
coedge $-1 $253 $254 $99 $158 reversed $255 $-1 #
edge $-1 $256 -30.771849514132281 $257 30.771849514132281 $157 $258 forward 7 unknown #
face $-1 $259 $260 $37 $-1 $261 reversed single #
loop $-1 $-1 $262 $100 #
plane-surface $-1 0 -17.419439257676764 8.7499966311740192 0 -1 0 0 0 -1 forward_v I I I I #
coedge $-1 $263 $264 $265 $266 reversed $101 $-1 #
coedge $-1 $267 $103 $268 $269 forward $64 $-1 #
coedge $-1 $103 $267 $270 $271 reversed $64 $-1 #
coedge $-1 $272 $273 $103 $166 forward $274 $-1 #
edge $-1 $275 5.3716170647245036 $276 18.724027321180017 $165 $277 forward 7 unknown #
face $-1 $278 $279 $38 $-1 $280 reversed single #
loop $-1 $-1 $281 $104 #
plane-surface $-1 -131.02832482640957 1.9814138812029434 95.640237000076283 0 -1 0 0.62932039886446345 0 -0.77714595512881146 forward_v I I I I #
coedge $-1 $282 $283 $284 $285 reversed $105 $-1 #
coedge $-1 $172 $107 $286 $287 reversed $67 $-1 #
coedge $-1 $107 $171 $282 $288 reversed $67 $-1 #
coedge $-1 $284 $289 $107 $174 forward $290 $-1 #
edge $-1 $291 7.5021381204712441 $292 17.378950191241614 $173 $293 forward 7 unknown #
loop $-1 $-1 $180 $108 #
plane-surface $-1 -58.012024292733543 -3.3576793024377878 5.4726169442118362 -0.62932039886446345 0 0.77714595512881146 0.77714595512881146 0 0.62932039886446345 forward_v I I I I #
loop $-1 $-1 $294 $69 #
coedge $-1 $178 $178 $179 $295 reversed $109 $-1 #
coedge $-1 $179 $179 $178 $295 forward $111 $-1 #
coedge $-1 $180 $180 $112 $181 forward $175 $-1 #
edge $-1 $296 0 $296 6.2831853071796004 $180 $297 forward 7 unknown #
loop $-1 $-1 $187 $113 #
plane-surface $-1 -58.012024292733543 -3.3576793024377878 5.4726169442118362 -0.62932039886446345 0 0.77714595512881146 0.77714595512881146 0 0.62932039886446345 forward_v I I I I #
loop $-1 $-1 $298 $72 #
coedge $-1 $185 $185 $186 $299 reversed $114 $-1 #
coedge $-1 $186 $186 $185 $299 forward $116 $-1 #
coedge $-1 $187 $187 $117 $188 forward $182 $-1 #
edge $-1 $300 0 $300 6.2831853071796004 $187 $301 forward 7 unknown #
loop $-1 $-1 $194 $118 #
plane-surface $-1 -58.012024292733543 -3.3576793024377878 5.4726169442118362 -0.62932039886446345 0 0.77714595512881146 0.77714595512881146 0 0.62932039886446345 forward_v I I I I #
loop $-1 $-1 $302 $75 #
coedge $-1 $192 $192 $193 $303 reversed $119 $-1 #
coedge $-1 $193 $193 $192 $303 forward $121 $-1 #
coedge $-1 $194 $194 $122 $195 forward $189 $-1 #
edge $-1 $304 0 $304 6.2831853071796004 $194 $305 forward 7 unknown #
face $-1 $306 $307 $42 $-1 $308 forward single #
loop $-1 $-1 $309 $123 #
plane-surface $-1 52.285619564068298 -14.862835304082477 173.75147834134927 0 1 0 0.68199836817093118 0 0.7313536940579346 forward_v I I I I #
coedge $-1 $310 $311 $312 $313 reversed $124 $-1 #
coedge $-1 $201 $126 $314 $315 reversed $79 $-1 #
coedge $-1 $126 $200 $310 $316 reversed $79 $-1 #
coedge $-1 $312 $317 $126 $203 forward $307 $-1 #
edge $-1 $318 -31.869214510699393 $319 -27.899250066970879 $202 $320 forward 7 unknown #
loop $-1 $-1 $209 $127 #
plane-surface $-1 -26.842592239805086 -10.26251661991876 88.896861808810641 0.68199836817093118 0 0.7313536940579346 0.7313536940579346 0 -0.68199836817093118 forward_v I I I I #
loop $-1 $-1 $321 $81 #
coedge $-1 $207 $207 $208 $322 reversed $128 $-1 #
coedge $-1 $208 $208 $207 $322 forward $130 $-1 #
coedge $-1 $209 $209 $131 $210 forward $204 $-1 #
edge $-1 $323 0 $323 6.2831853071796004 $209 $324 forward 7 unknown #
loop $-1 $-1 $216 $132 #
plane-surface $-1 -26.842592239805086 -10.26251661991876 88.896861808810641 0.68199836817093118 0 0.7313536940579346 0.7313536940579346 0 -0.68199836817093118 forward_v I I I I #
loop $-1 $-1 $325 $84 #
coedge $-1 $214 $214 $215 $326 reversed $133 $-1 #
coedge $-1 $215 $215 $214 $326 forward $135 $-1 #
coedge $-1 $216 $216 $136 $217 forward $211 $-1 #
edge $-1 $327 0 $327 6.2831853071796004 $216 $328 forward 7 unknown #
face $-1 $329 $330 $45 $-1 $331 reversed single #
loop $-1 $-1 $332 $137 #
plane-surface $-1 52.285619564068298 19.014608192210556 173.75147834134927 0 1 0 0.68199836817093118 0 0.7313536940579346 forward_v I I I I #
coedge $-1 $333 $334 $335 $336 reversed $138 $-1 #
coedge $-1 $223 $140 $337 $338 reversed $88 $-1 #
coedge $-1 $140 $222 $333 $339 reversed $88 $-1 #
coedge $-1 $335 $340 $140 $225 forward $341 $-1 #
edge $-1 $342 -31.869214510699393 $343 -27.899250066970879 $224 $344 forward 7 unknown #
loop $-1 $-1 $231 $141 #
plane-surface $-1 -26.842592239805086 23.614926876374273 88.896861808810641 0.68199836817093118 0 0.7313536940579346 0.7313536940579346 0 -0.68199836817093118 forward_v I I I I #
loop $-1 $-1 $345 $90 #
coedge $-1 $229 $229 $230 $346 reversed $142 $-1 #
coedge $-1 $230 $230 $229 $346 forward $144 $-1 #
coedge $-1 $231 $231 $145 $232 forward $226 $-1 #
edge $-1 $347 0 $347 6.2831853071796004 $231 $348 forward 7 unknown #
loop $-1 $-1 $238 $146 #
plane-surface $-1 -26.842592239805086 23.614926876374273 88.896861808810641 0.68199836817093118 0 0.7313536940579346 0.7313536940579346 0 -0.68199836817093118 forward_v I I I I #
loop $-1 $-1 $349 $93 #
coedge $-1 $236 $236 $237 $350 reversed $147 $-1 #
coedge $-1 $237 $237 $236 $350 forward $149 $-1 #
coedge $-1 $238 $238 $150 $239 forward $233 $-1 #
edge $-1 $351 0 $351 6.2831853071796004 $238 $352 forward 7 unknown #
face $-1 $353 $354 $36 $-1 $355 reversed single #
loop $-1 $-1 $356 $151 #
plane-surface $-1 -58.012024292733543 0 0 1 0 0 0 0 -1 forward_v I I I I #
coedge $-1 $357 $251 $358 $359 forward $152 $-1 #
coedge $-1 $360 $154 $357 $361 forward $97 $-1 #
coedge $-1 $154 $360 $362 $363 forward $97 $-1 #
coedge $-1 $254 $253 $154 $247 reversed $255 $-1 #
edge $-1 $364 -30.771849514132281 $365 30.771849514132281 $246 $366 forward 7 unknown #
coedge $-1 $156 $155 $367 $368 forward $61 $-1 #
coedge $-1 $369 $370 $155 $250 reversed $354 $-1 #
edge $-1 $257 -58.012024292733543 $371 58.012024292733543 $249 $372 forward 7 unknown #
coedge $-1 $243 $373 $156 $252 reversed $152 $-1 #
edge $-1 $374 -58.012024292733543 $256 58.012024292733543 $251 $375 forward 7 unknown #
coedge $-1 $246 $157 $373 $376 forward $255 $-1 #
coedge $-1 $157 $246 $369 $377 reversed $255 $-1 #
loop $-1 $-1 $253 $353 #
vertex $-1 $158 $378 #
vertex $-1 $158 $379 #
straight-curve $-1 58.012024292733543 0 13.470701822433083 0 1 0 I I #
face $-1 $380 $381 $37 $-1 $382 reversed single #
loop $-1 $-1 $383 $159 #
plane-surface $-1 -58.012024292733543 0 0 1 0 0 0 0 -1 forward_v I I I I #
coedge $-1 $384 $268 $273 $385 reversed $160 $-1 #
coedge $-1 $386 $162 $387 $388 reversed $101 $-1 #
coedge $-1 $162 $386 $384 $389 forward $101 $-1 #
coedge $-1 $273 $272 $162 $266 forward $274 $-1 #
edge $-1 $390 -18.724027321180017 $391 -5.3716170647245036 $265 $392 forward 7 unknown #
coedge $-1 $164 $163 $383 $393 reversed $64 $-1 #
coedge $-1 $262 $394 $163 $269 reversed $160 $-1 #
edge $-1 $275 -58.012024292733543 $395 58.012024292733543 $268 $396 forward 7 unknown #
coedge $-1 $397 $398 $164 $271 forward $381 $-1 #
edge $-1 $276 -58.012024292733543 $399 58.012024292733543 $270 $400 forward 7 unknown #
coedge $-1 $265 $165 $398 $401 forward $274 $-1 #
coedge $-1 $165 $265 $262 $385 forward $274 $-1 #
loop $-1 $-1 $165 $380 #
vertex $-1 $166 $402 #
vertex $-1 $401 $403 #
straight-curve $-1 58.012024292733543 -12.04782219295226 12.472929113054319 0 -1 0 I I #
face $-1 $-1 $290 $38 $-1 $404 forward single #
loop $-1 $-1 $405 $167 #
plane-surface $-1 -58.012024292733543 0 0 1 0 0 0 0 -1 forward_v I I I I #
coedge $-1 $406 $407 $408 $409 reversed $168 $-1 #
coedge $-1 $410 $170 $172 $288 forward $105 $-1 #
coedge $-1 $170 $410 $406 $411 forward $105 $-1 #
coedge $-1 $408 $173 $170 $285 forward $290 $-1 #
edge $-1 $292 -7.017932834859625 $412 3.6602535324218373 $284 $413 forward 7 unknown #
coedge $-1 $414 $415 $171 $287 forward $279 $-1 #
edge $-1 $416 -42.347501555826305 $291 -34.349416677605056 $286 $417 forward 7 unknown #
edge $-1 $292 -12.709082516080642 $416 0 $172 $418 forward 7 unknown #
coedge $-1 $173 $408 $414 $419 forward $290 $-1 #
loop $-1 $-1 $408 $278 #
vertex $-1 $287 $420 #
vertex $-1 $174 $421 #
straight-curve $-1 -65.514162413204787 -8.6967724860785189 13.470701822433085 1 0 0 I I #
coedge $-1 $294 $294 $-1 $422 reversed $177 $-1 #
edge $-1 $423 0 $423 6.2831853071796004 $178 $424 forward 7 unknown #
vertex $-1 $181 $425 #
ellipse-curve $-1 -53.073618257348357 -6.5611352126222258 9.4716593833224589 -0.62932039886446345 0 0.77714595512881146 0.19428648878220287 0 0.15733009971611586 1 I I #
coedge $-1 $298 $298 $-1 $426 reversed $184 $-1 #
edge $-1 $427 0 $427 6.2831853071796004 $185 $428 forward 7 unknown #
vertex $-1 $188 $429 #
ellipse-curve $-1 -53.073618257348357 -3.3576793024377878 9.4716593833224589 -0.62932039886446345 0 0.77714595512881146 0.19428648878220287 0 0.15733009971611586 1 I I #
coedge $-1 $302 $302 $-1 $430 reversed $191 $-1 #
edge $-1 $431 0 $431 6.2831853071796004 $192 $432 forward 7 unknown #
vertex $-1 $195 $433 #
ellipse-curve $-1 -53.073618257348357 -0.1542233922533498 9.4716593833224589 -0.62932039886446345 0 0.77714595512881146 0.19428648878220287 0 0.15733009971611586 1 I I #
face $-1 $-1 $434 $42 $-1 $435 reversed single #
loop $-1 $-1 $202 $196 #
plane-surface $-1 0 0 13.470701822433083 0 0 1 1 0 0 forward_v I I I I #
coedge $-1 $436 $437 $438 $439 reversed $197 $-1 #
coedge $-1 $440 $199 $201 $316 forward $124 $-1 #
coedge $-1 $199 $440 $436 $441 forward $124 $-1 #
coedge $-1 $438 $202 $199 $313 forward $307 $-1 #
edge $-1 $319 0.53093962579566245 $442 9.7315769941230972 $312 $443 forward 7 unknown #
coedge $-1 $444 $445 $200 $315 forward $434 $-1 #
edge $-1 $446 -77.107089165737378 $318 -73.405037348241549 $314 $447 forward 7 unknown #
edge $-1 $319 110.59580712585119 $446 116.02404858546709 $201 $448 forward 7 unknown #
coedge $-1 $202 $438 $444 $449 forward $307 $-1 #
vertex $-1 $315 $450 #
vertex $-1 $203 $451 #
straight-curve $-1 26.142809782034149 -5.6621979357550423 13.470701822433085 -1 0 0 I I #
coedge $-1 $321 $321 $-1 $452 reversed $206 $-1 #
edge $-1 $453 0 $453 6.2831853071796004 $207 $454 forward 7 unknown #
vertex $-1 $210 $455 #
ellipse-curve $-1 56.0270420708693 -12.234081770274639 11.619675913685169 0.68199836817093118 0 0.7313536940579346 0.3656768470289673 0 -0.34099918408546559 1 I I #
coedge $-1 $325 $325 $-1 $456 reversed $213 $-1 #
edge $-1 $457 0 $457 6.2831853071796004 $214 $458 forward 7 unknown #
vertex $-1 $217 $459 #
ellipse-curve $-1 56.0270420708693 -8.2909514695628808 11.619675913685169 0.68199836817093118 0 0.7313536940579346 0.3656768470289673 0 -0.34099918408546559 1 I I #
face $-1 $-1 $341 $45 $-1 $460 forward single #
loop $-1 $-1 $461 $218 #
plane-surface $-1 58.012024292733543 0 0 -1 0 0 0 0 1 forward_v I I I I #
coedge $-1 $462 $463 $464 $465 reversed $219 $-1 #
coedge $-1 $466 $221 $223 $339 forward $138 $-1 #
coedge $-1 $221 $466 $462 $467 forward $138 $-1 #
coedge $-1 $464 $224 $221 $336 forward $341 $-1 #
edge $-1 $343 -16.407782122350852 $468 -7.2071447540234193 $335 $469 forward 7 unknown #
coedge $-1 $470 $471 $222 $338 forward $330 $-1 #
edge $-1 $472 -77.107089165737378 $342 -73.405037348241549 $337 $473 forward 7 unknown #
edge $-1 $343 110.59580712585119 $472 116.02404858546709 $223 $474 forward 7 unknown #
coedge $-1 $224 $464 $470 $475 forward $341 $-1 #
loop $-1 $-1 $464 $329 #
vertex $-1 $338 $476 #
vertex $-1 $225 $477 #
straight-curve $-1 26.142809782034149 28.215245560537991 13.470701822433085 -1 0 0 I I #
coedge $-1 $345 $345 $-1 $478 reversed $228 $-1 #
edge $-1 $479 0 $479 6.2831853071796004 $229 $480 forward 7 unknown #
vertex $-1 $232 $481 #
ellipse-curve $-1 56.0270420708693 21.643361726018394 11.619675913685169 0.68199836817093118 0 0.7313536940579346 0.3656768470289673 0 -0.34099918408546559 1 I I #
coedge $-1 $349 $349 $-1 $482 reversed $235 $-1 #
edge $-1 $483 0 $483 6.2831853071796004 $236 $484 forward 7 unknown #
vertex $-1 $239 $485 #
ellipse-curve $-1 56.0270420708693 25.586492026730152 11.619675913685169 0.68199836817093118 0 0.7313536940579346 0.3656768470289673 0 -0.34099918408546559 1 I I #
face $-1 $-1 $255 $36 $-1 $486 reversed single #
loop $-1 $-1 $369 $240 #
plane-surface $-1 0 30.771849514132281 0 0 -1 0 0 0 -1 forward_v I I I I #
coedge $-1 $487 $367 $370 $488 forward $241 $-1 #
coedge $-1 $373 $243 $244 $361 reversed $152 $-1 #
coedge $-1 $367 $487 $243 $359 reversed $241 $-1 #
edge $-1 $374 -13.470701822433083 $489 13.470701822433083 $358 $490 forward 7 unknown #
coedge $-1 $245 $244 $487 $491 forward $97 $-1 #
edge $-1 $365 -58.012024292733543 $489 58.012024292733543 $357 $492 forward 7 unknown #
coedge $-1 $370 $369 $245 $363 reversed $354 $-1 #
edge $-1 $493 -58.012024292733543 $364 58.012024292733543 $362 $494 forward 7 unknown #
vertex $-1 $247 $495 #
vertex $-1 $376 $496 #
straight-curve $-1 58.012024292733543 0 -13.470701822433083 0 -1 0 I I #
coedge $-1 $356 $358 $248 $368 reversed $241 $-1 #
edge $-1 $371 -30.771849514132281 $374 30.771849514132281 $367 $497 forward 7 unknown #
coedge $-1 $362 $249 $254 $377 forward $354 $-1 #
coedge $-1 $249 $362 $356 $488 reversed $354 $-1 #
vertex $-1 $250 $498 #
straight-curve $-1 0 30.771849514132281 13.470701822433083 -1 0 0 I I #
coedge $-1 $251 $357 $253 $376 reversed $152 $-1 #
vertex $-1 $368 $499 #
straight-curve $-1 0 -30.771849514132281 13.470701822433083 1 0 0 I I #
edge $-1 $256 -13.470701822433083 $365 13.470701822433083 $253 $500 forward 7 unknown #
edge $-1 $257 -13.470701822433083 $364 13.470701822433083 $254 $501 forward 7 unknown #
point $-1 58.012024292733543 -30.771849514132281 13.470701822433083 #
point $-1 58.012024292733543 30.771849514132281 13.470701822433083 #
face $-1 $-1 $274 $37 $-1 $502 reversed single #
loop $-1 $-1 $270 $259 #
plane-surface $-1 0 -30.771849514132281 0 0 1 0 0 0 1 forward_v I I I I #
coedge $-1 $503 $504 $267 $393 forward $260 $-1 #
coedge $-1 $394 $262 $264 $389 reversed $160 $-1 #
edge $-1 $391 0.65206583370671023 $275 8.0979307974673098 $273 $505 forward 7 unknown #
coedge $-1 $264 $263 $506 $507 reversed $101 $-1 #
coedge $-1 $398 $397 $263 $388 forward $381 $-1 #
edge $-1 $508 -58.012024292733543 $390 58.012024292733543 $387 $509 forward 7 unknown #
edge $-1 $510 -58.012024292733543 $391 58.012024292733543 $384 $511 forward 7 unknown #
vertex $-1 $388 $512 #
vertex $-1 $266 $513 #
straight-curve $-1 58.012024292733543 -12.04782219295226 5.0270641492937198 0 1 0 I I #
edge $-1 $399 -18.724027321180017 $395 -5.3716170647245036 $383 $514 forward 7 unknown #
coedge $-1 $268 $384 $503 $515 reversed $160 $-1 #
vertex $-1 $393 $516 #
straight-curve $-1 0 -17.419439257676764 12.472929113054319 -1 0 0 I I #
coedge $-1 $387 $270 $504 $517 forward $381 $-1 #
coedge $-1 $270 $387 $272 $401 reversed $381 $-1 #
vertex $-1 $517 $518 #
straight-curve $-1 0 -30.771849514132281 12.472929113054319 -1 0 0 I I #
edge $-1 $276 -12.472929113054319 $390 -5.0270641492937198 $272 $519 forward 7 unknown #
point $-1 58.012024292733543 -17.419439257676764 12.472929113054319 #
point $-1 58.012024292733543 -30.771849514132278 12.472929113054319 #
plane-surface $-1 0 0 13.470701822433083 0 0 1 1 0 0 forward_v I I I I #
coedge $-1 $415 $414 $407 $520 forward $279 $-1 #
coedge $-1 $407 $281 $283 $411 reversed $168 $-1 #
coedge $-1 $281 $406 $405 $520 reversed $168 $-1 #
coedge $-1 $289 $284 $281 $409 forward $290 $-1 #
edge $-1 $412 -17.378950191241614 $521 -7.5021381204712441 $408 $522 forward 7 unknown #
coedge $-1 $283 $282 $415 $523 reversed $105 $-1 #
edge $-1 $524 0 $412 12.709082516080642 $406 $525 forward 7 unknown #
vertex $-1 $285 $526 #
straight-curve $-1 -48.13521222196318 -1.6788396512188939 13.470701822433082 0 1 0 I I #
coedge $-1 $405 $286 $289 $419 reversed $279 $-1 #
coedge $-1 $286 $405 $410 $523 forward $279 $-1 #
vertex $-1 $287 $527 #
straight-curve $-1 -58.012024292733543 -8.6967724860785189 47.820118500038141 0 0 1 I I #
straight-curve $-1 -58.012024292733543 -8.6967724860785189 5.4726169442118362 -0.77714595512881146 0 -0.62932039886446345 I I #
edge $-1 $521 -1.9814138812029434 $291 8.6967724860785189 $414 $528 forward 7 unknown #
point $-1 -58.012024292733543 -8.6967724860785189 13.470701822433083 #
point $-1 -48.135212221963172 -8.6967724860785189 13.470701822433083 #
edge $-1 $529 1 $529 0 $294 $-1 forward 7 unknown #
vertex $-1 $295 $530 #
ellipse-curve $-1 -52.444297858483893 -6.5611352126222258 8.6945134281936429 -0.62932039886446345 0 0.77714595512881146 0.19428648878220287 0 0.15733009971611586 1 I I #
point $-1 -52.879331768566153 -6.5611352126222258 9.6289894830385698 #
edge $-1 $531 1 $531 0 $298 $-1 forward 7 unknown #
vertex $-1 $299 $532 #
ellipse-curve $-1 -52.444297858483893 -3.3576793024377878 8.6945134281936429 -0.62932039886446345 0 0.77714595512881146 0.19428648878220287 0 0.15733009971611586 1 I I #
point $-1 -52.879331768566153 -3.3576793024377878 9.6289894830385698 #
edge $-1 $533 1 $533 0 $302 $-1 forward 7 unknown #
vertex $-1 $303 $534 #
ellipse-curve $-1 -52.444297858483893 -0.1542233922533498 8.6945134281936429 -0.62932039886446345 0 0.77714595512881146 0.19428648878220287 0 0.15733009971611586 1 I I #
point $-1 -52.879331768566153 -0.1542233922533498 9.6289894830385698 #
loop $-1 $-1 $314 $306 #
plane-surface $-1 58.012024292733543 0 0 -1 0 0 0 0 1 forward_v I I I I #
coedge $-1 $437 $309 $311 $441 reversed $197 $-1 #
coedge $-1 $309 $436 $535 $536 reversed $197 $-1 #
coedge $-1 $317 $312 $309 $439 forward $307 $-1 #
edge $-1 $442 27.899250066970879 $537 31.869214510699393 $438 $538 forward 7 unknown #
coedge $-1 $311 $310 $445 $539 reversed $124 $-1 #
edge $-1 $540 -116.02404858546709 $442 -110.59580712585119 $436 $541 forward 7 unknown #
vertex $-1 $313 $542 #
straight-curve $-1 54.042059849005035 -5.1312583099593798 13.470701822433085 0 -1 0 I I #
coedge $-1 $535 $314 $317 $449 reversed $434 $-1 #
coedge $-1 $314 $535 $440 $539 forward $434 $-1 #
vertex $-1 $315 $543 #
straight-curve $-1 58.012024292733543 -5.6621979357550423 86.875739170674635 0 0 1 I I #
straight-curve $-1 -26.842592239805086 -5.6621979357550423 88.896861808810641 0.7313536940579346 0 -0.68199836817093118 I I #
edge $-1 $537 -14.862835304082477 $318 -5.6621979357550423 $444 $544 forward 7 unknown #
point $-1 58.012024292733543 -5.6621979357550423 13.470701822433083 #
point $-1 54.042059849005028 -5.6621979357550423 13.470701822433085 #
edge $-1 $545 1 $545 0 $321 $-1 forward 7 unknown #
vertex $-1 $322 $546 #
ellipse-curve $-1 55.345043702698362 -12.234081770274639 10.888322219627231 0.68199836817093118 0 0.7313536940579346 0.3656768470289673 0 -0.34099918408546559 1 I I #
point $-1 56.392718917898264 -12.234081770274639 11.278676729599699 #
edge $-1 $547 1 $547 0 $325 $-1 forward 7 unknown #
vertex $-1 $326 $548 #
ellipse-curve $-1 55.345043702698362 -8.2909514695628808 10.888322219627231 0.68199836817093118 0 0.7313536940579346 0.3656768470289673 0 -0.34099918408546559 1 I I #
point $-1 56.392718917898264 -8.2909514695628808 11.278676729599699 #
plane-surface $-1 0 0 13.470701822433083 0 0 1 1 0 0 forward_v I I I I #
coedge $-1 $471 $470 $463 $549 forward $330 $-1 #
coedge $-1 $463 $332 $334 $467 reversed $219 $-1 #
coedge $-1 $332 $462 $461 $549 reversed $219 $-1 #
coedge $-1 $340 $335 $332 $465 forward $341 $-1 #
edge $-1 $468 27.899250066970879 $550 31.869214510699393 $464 $551 forward 7 unknown #
coedge $-1 $334 $333 $471 $552 reversed $138 $-1 #
edge $-1 $553 -116.02404858546709 $468 -110.59580712585119 $462 $554 forward 7 unknown #
vertex $-1 $336 $555 #
straight-curve $-1 54.042059849005035 11.807463438187137 13.470701822433085 0 -1 0 I I #
coedge $-1 $461 $337 $340 $475 reversed $330 $-1 #
coedge $-1 $337 $461 $466 $552 forward $330 $-1 #
vertex $-1 $338 $556 #
straight-curve $-1 58.012024292733543 28.215245560537991 86.875739170674635 0 0 1 I I #
straight-curve $-1 -26.842592239805086 28.215245560537991 88.896861808810641 0.7313536940579346 0 -0.68199836817093118 I I #
edge $-1 $550 19.014608192210556 $342 28.215245560537991 $470 $557 forward 7 unknown #
point $-1 58.012024292733543 28.215245560537991 13.470701822433083 #
point $-1 54.042059849005028 28.215245560537991 13.470701822433085 #
edge $-1 $558 1 $558 0 $345 $-1 forward 7 unknown #
vertex $-1 $346 $559 #
ellipse-curve $-1 55.345043702698362 21.643361726018394 10.888322219627231 0.68199836817093118 0 0.7313536940579346 0.3656768470289673 0 -0.34099918408546559 1 I I #
point $-1 56.392718917898264 21.643361726018394 11.278676729599699 #
edge $-1 $560 1 $560 0 $349 $-1 forward 7 unknown #
vertex $-1 $350 $561 #
ellipse-curve $-1 55.345043702698362 25.586492026730152 10.888322219627231 0.68199836817093118 0 0.7313536940579346 0.3656768470289673 0 -0.34099918408546559 1 I I #
point $-1 56.392718917898264 25.586492026730152 11.278676729599699 #
plane-surface $-1 58.012024292733543 0 0 -1 0 0 0 0 1 forward_v I I I I #
coedge $-1 $358 $356 $360 $491 reversed $241 $-1 #
edge $-1 $371 -13.470701822433083 $493 13.470701822433083 $370 $562 forward 7 unknown #
vertex $-1 $491 $563 #
straight-curve $-1 -58.012024292733543 -30.771849514132281 0 0 0 -1 I I #
edge $-1 $489 -30.771849514132281 $493 30.771849514132281 $487 $564 forward 7 unknown #
straight-curve $-1 0 -30.771849514132281 -13.470701822433083 -1 0 0 I I #
vertex $-1 $363 $565 #
straight-curve $-1 0 30.771849514132281 -13.470701822433083 1 0 0 I I #
point $-1 58.012024292733543 30.771849514132281 -13.470701822433083 #
point $-1 58.012024292733543 -30.771849514132281 -13.470701822433083 #
straight-curve $-1 -58.012024292733543 0 13.470701822433083 0 -1 0 I I #
point $-1 -58.012024292733543 30.771849514132281 13.470701822433083 #
point $-1 -58.012024292733543 -30.771849514132281 13.470701822433083 #
straight-curve $-1 58.012024292733543 -30.771849514132281 0 0 0 -1 I I #
straight-curve $-1 58.012024292733543 30.771849514132281 0 0 0 -1 I I #
plane-surface $-1 58.012024292733543 0 0 -1 0 0 0 0 1 forward_v I I I I #
coedge $-1 $506 $383 $394 $515 forward $260 $-1 #
coedge $-1 $383 $506 $397 $517 reversed $260 $-1 #
straight-curve $-1 58.012024292733543 -17.419439257676764 4.3749983155870096 0 0 1 I I #
coedge $-1 $504 $503 $386 $507 forward $260 $-1 #
edge $-1 $510 5.3716170647245036 $508 18.724027321180017 $506 $566 forward 7 unknown #
vertex $-1 $388 $567 #
straight-curve $-1 0 -30.771849514132281 5.0270641492937198 1 0 0 I I #
vertex $-1 $507 $568 #
straight-curve $-1 0 -17.419439257676764 5.0270641492937198 1 0 0 I I #
point $-1 58.012024292733543 -30.771849514132278 5.0270641492937198 #
point $-1 58.012024292733543 -17.419439257676764 5.0270641492937198 #
straight-curve $-1 -58.012024292733543 -12.04782219295226 12.472929113054319 0 1 0 I I #
edge $-1 $395 -8.0979307974673098 $510 -0.65206583370671023 $503 $569 forward 7 unknown #
point $-1 -58.012024292733543 -17.419439257676764 12.472929113054319 #
edge $-1 $399 -12.472929113054319 $508 -5.0270641492937198 $504 $570 forward 7 unknown #
point $-1 -58.012024292733543 -30.771849514132278 12.472929113054319 #
straight-curve $-1 58.012024292733543 -30.771849514132281 0 0 0 -1 I I #
edge $-1 $521 34.349416677605056 $524 42.347501555826305 $405 $571 forward 7 unknown #
vertex $-1 $419 $572 #
straight-curve $-1 -65.514162413204787 1.9814138812029434 13.470701822433085 -1 0 0 I I #
edge $-1 $524 -3.6602535324218373 $416 7.017932834859625 $415 $573 forward 7 unknown #
vertex $-1 $523 $574 #
straight-curve $-1 -58.012024292733543 1.9814138812029434 5.4726169442118362 0.77714595512881146 0 0.62932039886446345 I I #
point $-1 -48.135212221963172 1.9814138812029434 13.470701822433083 #
point $-1 -58.012024292733543 -8.6967724860785189 5.4726169442118362 #
straight-curve $-1 -58.012024292733543 0 13.470701822433083 0 -1 0 I I #
vertex $-1 $422 $575 #
point $-1 -52.250011369701689 -6.5611352126222258 8.8518435279097574 #
vertex $-1 $426 $576 #
point $-1 -52.250011369701689 -3.3576793024377878 8.8518435279097574 #
vertex $-1 $430 $577 #
point $-1 -52.250011369701689 -0.1542233922533498 8.8518435279097574 #
coedge $-1 $445 $444 $437 $536 forward $434 $-1 #
edge $-1 $537 73.405037348241549 $540 77.107089165737378 $535 $578 forward 7 unknown #
vertex $-1 $449 $579 #
straight-curve $-1 26.142809782034149 -14.862835304082477 13.470701822433085 1 0 0 I I #
edge $-1 $540 -9.7315769941230972 $446 -0.53093962579566245 $445 $580 forward 7 unknown #
vertex $-1 $539 $581 #
straight-curve $-1 -26.842592239805086 -14.862835304082477 88.896861808810641 -0.7313536940579346 0 0.68199836817093118 I I #
point $-1 54.042059849005028 -14.862835304082477 13.470701822433085 #
point $-1 58.012024292733543 -5.6621979357550423 9.7686500049372569 #
straight-curve $-1 58.012024292733543 0 13.470701822433083 0 1 0 I I #
vertex $-1 $452 $582 #
point $-1 55.710720549727334 -12.234081770274639 10.547323035541764 #
vertex $-1 $456 $583 #
point $-1 55.710720549727334 -8.2909514695628808 10.547323035541764 #
edge $-1 $550 73.405037348241549 $553 77.107089165737378 $461 $584 forward 7 unknown #
vertex $-1 $475 $585 #
straight-curve $-1 26.142809782034149 19.014608192210556 13.470701822433085 1 0 0 I I #
edge $-1 $553 7.2071447540234193 $472 16.407782122350852 $471 $586 forward 7 unknown #
vertex $-1 $552 $587 #
straight-curve $-1 -26.842592239805086 19.014608192210556 88.896861808810641 -0.7313536940579346 0 0.68199836817093118 I I #
point $-1 54.042059849005028 19.014608192210556 13.470701822433085 #
point $-1 58.012024292733543 28.215245560537991 9.7686500049372569 #
straight-curve $-1 58.012024292733543 0 13.470701822433083 0 1 0 I I #
vertex $-1 $478 $588 #
point $-1 55.710720549727334 21.643361726018394 10.547323035541764 #
vertex $-1 $482 $589 #
point $-1 55.710720549727334 25.586492026730152 10.547323035541764 #
straight-curve $-1 -58.012024292733543 30.771849514132281 0 0 0 -1 I I #
point $-1 -58.012024292733543 -30.771849514132281 -13.470701822433083 #
straight-curve $-1 -58.012024292733543 0 -13.470701822433083 0 1 0 I I #
point $-1 -58.012024292733543 30.771849514132281 -13.470701822433083 #
straight-curve $-1 -58.012024292733543 -12.04782219295226 5.0270641492937198 0 -1 0 I I #
point $-1 -58.012024292733543 -30.771849514132278 5.0270641492937198 #
point $-1 -58.012024292733543 -17.419439257676764 5.0270641492937198 #
straight-curve $-1 -58.012024292733543 -17.419439257676764 4.3749983155870096 0 0 -1 I I #
straight-curve $-1 -58.012024292733543 -30.771849514132281 0 0 0 -1 I I #
straight-curve $-1 -58.012024292733543 1.9814138812029434 47.820118500038141 0 0 -1 I I #
point $-1 -58.012024292733543 1.9814138812029434 13.470701822433083 #
straight-curve $-1 -58.012024292733543 -1.6788396512188939 5.4726169442118326 0 -1 0 I I #
point $-1 -58.012024292733543 1.9814138812029434 5.4726169442118362 #
point $-1 -52.286967758767773 -6.5611352126222258 8.5002269394114389 #
point $-1 -52.286967758767773 -3.3576793024377878 8.5002269394114389 #
point $-1 -52.286967758767773 -0.1542233922533498 8.5002269394114389 #
straight-curve $-1 58.012024292733543 -14.862835304082477 86.875739170674635 0 0 -1 I I #
point $-1 58.012024292733543 -14.862835304082477 13.470701822433083 #
straight-curve $-1 58.012024292733543 -5.1312583099593798 9.768650004937264 0 1 0 I I #
point $-1 58.012024292733543 -14.862835304082477 9.7686500049372569 #
point $-1 55.004044518612901 -12.234081770274639 10.522645372598262 #
point $-1 55.004044518612901 -8.2909514695628808 10.522645372598262 #
straight-curve $-1 58.012024292733543 19.014608192210556 86.875739170674635 0 0 -1 I I #
point $-1 58.012024292733543 19.014608192210556 13.470701822433083 #
straight-curve $-1 58.012024292733543 11.807463438187137 9.768650004937264 0 1 0 I I #
point $-1 58.012024292733543 19.014608192210556 9.7686500049372569 #
point $-1 55.004044518612901 21.643361726018394 10.522645372598262 #
point $-1 55.004044518612901 25.586492026730152 10.522645372598262 #
End-of-ACIS-data 