500 0 9 0           
7 Unknown 11 ACIS 5.0 NT 24 Fri Mar 26 14:48:46 1999 
-1 9.9999999999999995e-007 1e-010 
body $-1 $9 $-1 $10 #
body $-1 $11 $-1 $12 #
body $-1 $13 $-1 $14 #
body $-1 $15 $-1 $16 #
body $-1 $17 $-1 $18 #
body $-1 $19 $-1 $20 #
body $-1 $21 $-1 $22 #
body $-1 $23 $-1 $24 #
body $-1 $25 $-1 $26 #
lump $-1 $-1 $27 $0 #
transform $-1 1 0 0 0 1 0 0 0 1 44.992828150273141 19.507694028996109 7.3393032761820809 1 rotate no_reflect no_shear #
lump $-1 $-1 $28 $1 #
transform $-1 1 0 0 0 1 0 0 0 1 44.992828150273141 19.507694028996109 7.3393032761820809 1 rotate no_reflect no_shear #
lump $-1 $-1 $29 $2 #
transform $-1 1 0 0 0 1 0 0 0 1 44.992828150273141 19.507694028996109 7.3393032761820809 1 rotate no_reflect no_shear #
lump $-1 $-1 $30 $3 #
transform $-1 1 0 0 0 1 0 0 0 1 44.992828150273141 19.507694028996109 7.3393032761820809 1 rotate no_reflect no_shear #
lump $-1 $-1 $31 $4 #
transform $-1 1 0 0 0 1 0 0 0 1 44.992828150273141 19.507694028996109 7.3393032761820809 1 rotate no_reflect no_shear #
lump $-1 $-1 $32 $5 #
transform $-1 1 0 0 0 1 0 0 0 1 44.992828150273141 19.507694028996109 7.3393032761820809 1 rotate no_reflect no_shear #
lump $-1 $-1 $33 $6 #
transform $-1 1 0 0 0 1 0 0 0 1 44.992828150273141 19.507694028996109 7.3393032761820809 1 rotate no_reflect no_shear #
lump $-1 $-1 $34 $7 #
transform $-1 1 0 0 0 1 0 0 0 1 44.992828150273141 19.507694028996109 7.3393032761820809 1 rotate no_reflect no_shear #
lump $-1 $-1 $35 $8 #
transform $-1 1 0 0 0 1 0 0 0 1 44.992828150273141 19.507694028996109 7.3393032761820809 1 rotate no_reflect no_shear #
shell $-1 $-1 $-1 $36 $-1 $9 #
shell $-1 $-1 $-1 $37 $-1 $11 #
shell $-1 $-1 $-1 $38 $-1 $13 #
shell $-1 $-1 $-1 $39 $-1 $15 #
shell $-1 $-1 $-1 $40 $-1 $17 #
shell $-1 $-1 $-1 $41 $-1 $19 #
shell $-1 $-1 $-1 $42 $-1 $21 #
shell $-1 $-1 $-1 $43 $-1 $23 #
shell $-1 $-1 $-1 $44 $-1 $25 #
face $-1 $45 $46 $27 $-1 $47 forward single #
face $-1 $48 $49 $28 $-1 $50 forward single #
face $-1 $51 $52 $29 $-1 $53 reversed single #
face $-1 $54 $55 $30 $-1 $56 forward single #
face $-1 $57 $58 $31 $-1 $59 forward single #
face $-1 $60 $61 $32 $-1 $62 reversed single #
face $-1 $63 $64 $33 $-1 $65 forward single #
face $-1 $66 $67 $34 $-1 $68 reversed single #
face $-1 $69 $70 $35 $-1 $71 forward single #
face $-1 $72 $73 $27 $-1 $74 reversed single #
loop $-1 $-1 $75 $36 #
plane-surface $-1 0 0 7.3393032761820809 0 0 1 1 0 0 forward_v I I I I #
face $-1 $76 $77 $28 $-1 $78 reversed single #
loop $-1 $-1 $79 $37 #
plane-surface $-1 0 -15.600108033648599 -4.3393032761820809 0 0 1 1 0 0 forward_v I I I I #
face $-1 $80 $81 $29 $-1 $82 reversed single #
loop $-1 $-1 $83 $38 #
plane-surface $-1 -112.90586578878212 -3.0353082169598498 60.515796274218204 0 1 0 -0.75470958851134928 0 0.65605901945558964 forward_v I I I I #
face $-1 $84 $85 $30 $-1 $86 forward single #
loop $-1 $87 $88 $39 #
cone-surface $-1 -41.995016039486664 -1.2658244408502952 4.0174993277836828 0.75470958851134928 0 -0.65605901945558964 0.32802950972779482 0 0.37735479425567464 1 I I 0 1 0.5 forward I I I I #
face $-1 $89 $90 $31 $-1 $91 forward single #
loop $-1 $92 $93 $40 #
cone-surface $-1 -41.995016039486664 1.3884012233140375 4.0174993277836828 0.75470958851134928 0 -0.65605901945558964 0.32802950972779482 0 0.37735479425567464 1 I I 0 1 0.5 forward I I I I #
face $-1 $94 $95 $32 $-1 $96 reversed single #
loop $-1 $-1 $97 $41 #
plane-surface $-1 69.274979600725402 -0.038571932167104528 127.71164031326146 0 -1 0 -0.82903758062907751 0 -0.55919289150049634 forward_v I I I I #
face $-1 $98 $99 $33 $-1 $100 forward single #
loop $-1 $101 $102 $42 #
cone-surface $-1 42.521377204547044 -3.8103257959738688 4.4327371694260584 -0.82903758062907751 0 -0.55919289150049634 0.55919289150049634 0 -0.82903758062907751 1 I I 0 1 1 forward I I I I #
face $-1 $103 $104 $34 $-1 $105 reversed single #
loop $-1 $-1 $106 $43 #
plane-surface $-1 69.274979600725402 15.561536101481494 127.71164031326146 0 -1 0 -0.82903758062907751 0 -0.55919289150049634 forward_v I I I I #
face $-1 $107 $108 $35 $-1 $109 forward single #
loop $-1 $110 $111 $44 #
cone-surface $-1 42.521377204547044 11.789782237674732 4.4327371694260584 -0.82903758062907751 0 -0.55919289150049634 0.55919289150049634 0 -0.82903758062907751 1 I I 0 1 1 forward I I I I #
face $-1 $112 $113 $27 $-1 $114 reversed single #
loop $-1 $-1 $115 $45 #
plane-surface $-1 0 0 -7.3393032761820809 0 0 1 1 0 0 forward_v I I I I #
coedge $-1 $116 $117 $118 $119 forward $46 $-1 #
face $-1 $120 $121 $28 $-1 $122 reversed single #
loop $-1 $-1 $123 $48 #
plane-surface $-1 0 -11.692522038301089 -5.8393032761820809 0 -1 0 0 0 -1 forward_v I I I I #
coedge $-1 $124 $125 $126 $127 reversed $49 $-1 #
face $-1 $128 $129 $29 $-1 $130 reversed single #
loop $-1 $-1 $131 $51 #
plane-surface $-1 -44.992828150273127 0.061288391231872907 1.4798948366141076 -0.75470958851134928 0 0.65605901945558964 0.65605901945558964 0 0.75470958851134928 forward_v I I I I #
coedge $-1 $132 $133 $134 $135 reversed $52 $-1 #
face $-1 $-1 $136 $30 $-1 $137 forward single #
loop $-1 $138 $139 $54 #
cone-surface $-1 -41.355279490571604 -1.2658244408502952 3.4613848443053712 0.75470958851134928 0 -0.65605901945558964 0.16401475486389741 0 0.18867739712783732 1 I I -0.70710678118654746 0.70710678118654746 0.25 forward I I I I #
loop $-1 $-1 $140 $39 #
coedge $-1 $88 $88 $141 $142 reversed $55 $-1 #
face $-1 $-1 $143 $31 $-1 $144 forward single #
loop $-1 $145 $146 $57 #
cone-surface $-1 -41.355279490571604 1.3884012233140375 3.4613848443053712 0.75470958851134928 0 -0.65605901945558964 0.16401475486389741 0 0.18867739712783732 1 I I -0.70710678118654746 0.70710678118654746 0.25 forward I I I I #
loop $-1 $-1 $147 $40 #
coedge $-1 $93 $93 $148 $149 reversed $58 $-1 #
face $-1 $150 $151 $32 $-1 $152 reversed single #
loop $-1 $-1 $153 $60 #
plane-surface $-1 -5.326511189999195 -3.810325795973867 77.392300972989119 0.82903758062907751 0 0.55919289150049634 0.55919289150049634 0 -0.82903758062907751 forward_v I I I I #
coedge $-1 $154 $155 $156 $157 reversed $61 $-1 #
face $-1 $-1 $158 $33 $-1 $159 forward single #
loop $-1 $160 $161 $63 #
cone-surface $-1 41.169406086052675 -3.8103257959738688 3.5208211638785638 -0.82903758062907751 0 -0.55919289150049634 0.27959644575024817 0 -0.41451879031453875 1 I I -0.70710678118654746 0.70710678118654746 0.5 forward I I I I #
loop $-1 $-1 $162 $42 #
coedge $-1 $102 $102 $163 $164 reversed $64 $-1 #
face $-1 $165 $166 $34 $-1 $167 reversed single #
loop $-1 $-1 $168 $66 #
plane-surface $-1 -5.326511189999195 11.789782237674732 77.392300972989119 0.82903758062907751 0 0.55919289150049634 0.55919289150049634 0 -0.82903758062907751 forward_v I I I I #
coedge $-1 $169 $170 $171 $172 reversed $67 $-1 #
face $-1 $-1 $173 $35 $-1 $174 forward single #
loop $-1 $175 $176 $69 #
cone-surface $-1 41.169406086052675 11.789782237674732 3.5208211638785638 -0.82903758062907751 0 -0.55919289150049634 0.27959644575024817 0 -0.41451879031453875 1 I I -0.70710678118654746 0.70710678118654746 0.5 forward I I I I #
loop $-1 $-1 $177 $44 #
coedge $-1 $111 $111 $178 $179 reversed $70 $-1 #
face $-1 $180 $181 $27 $-1 $182 reversed single #
loop $-1 $-1 $183 $72 #
plane-surface $-1 0 -19.507694028996109 0 0 1 0 0 0 1 forward_v I I I I #
coedge $-1 $184 $185 $186 $187 forward $73 $-1 #
coedge $-1 $188 $75 $189 $190 forward $46 $-1 #
coedge $-1 $75 $188 $191 $192 forward $46 $-1 #
coedge $-1 $193 $194 $75 $119 reversed $195 $-1 #
edge $-1 $196 -19.507694028996109 $197 19.507694028996109 $118 $198 forward 7 unknown #
face $-1 $199 $200 $28 $-1 $201 reversed single #
loop $-1 $-1 $202 $76 #
plane-surface $-1 0 0 -7.3393032761820809 0 0 1 1 0 0 forward_v I I I I #
coedge $-1 $203 $204 $205 $206 reversed $77 $-1 #
coedge $-1 $207 $79 $204 $208 forward $49 $-1 #
coedge $-1 $79 $207 $209 $210 reversed $49 $-1 #
coedge $-1 $211 $205 $79 $127 forward $200 $-1 #
edge $-1 $212 3.8924680214767893 $213 11.70764001217181 $126 $214 forward 7 unknown #
face $-1 $215 $216 $29 $-1 $217 forward single #
loop $-1 $-1 $218 $80 #
plane-surface $-1 -112.90586578878212 3.1578849994235956 60.515796274218204 0 -1 0 0.75470958851134928 0 -0.65605901945558964 forward_v I I I I #
coedge $-1 $219 $220 $221 $222 reversed $81 $-1 #
coedge $-1 $133 $83 $223 $224 reversed $52 $-1 #
coedge $-1 $83 $132 $219 $225 reversed $52 $-1 #
coedge $-1 $221 $226 $83 $135 forward $216 $-1 #
edge $-1 $227 11.46010474411792 $228 16.553610662116434 $134 $229 forward 7 unknown #
loop $-1 $-1 $141 $84 #
plane-surface $-1 -44.992828150273127 0.061288391231872907 1.4798948366141076 -0.75470958851134928 0 0.65605901945558964 0.65605901945558964 0 0.75470958851134928 forward_v I I I I #
loop $-1 $-1 $230 $54 #
coedge $-1 $139 $139 $140 $231 reversed $85 $-1 #
coedge $-1 $140 $140 $139 $231 forward $87 $-1 #
coedge $-1 $141 $141 $88 $142 forward $136 $-1 #
edge $-1 $232 0 $232 6.2831853071796004 $141 $233 forward 7 unknown #
loop $-1 $-1 $148 $89 #
plane-surface $-1 -44.992828150273127 0.061288391231872907 1.4798948366141076 -0.75470958851134928 0 0.65605901945558964 0.65605901945558964 0 0.75470958851134928 forward_v I I I I #
loop $-1 $-1 $234 $57 #
coedge $-1 $146 $146 $147 $235 reversed $90 $-1 #
coedge $-1 $147 $147 $146 $235 forward $92 $-1 #
coedge $-1 $148 $148 $93 $149 forward $143 $-1 #
edge $-1 $236 0 $236 6.2831853071796004 $148 $237 forward 7 unknown #
face $-1 $238 $239 $32 $-1 $240 reversed single #
loop $-1 $-1 $241 $94 #
plane-surface $-1 69.274979600725402 -7.5820796597806295 127.71164031326146 0 1 0 0.82903758062907751 0 0.55919289150049634 forward_v I I I I #
coedge $-1 $242 $243 $244 $245 reversed $95 $-1 #
coedge $-1 $155 $97 $246 $247 reversed $61 $-1 #
coedge $-1 $97 $154 $242 $248 reversed $61 $-1 #
coedge $-1 $244 $249 $97 $157 forward $250 $-1 #
edge $-1 $251 -10.35533834991044 $252 -7.2873411148179201 $156 $253 forward 7 unknown #
loop $-1 $-1 $163 $98 #
plane-surface $-1 -5.326511189999195 -3.810325795973867 77.392300972989119 0.82903758062907751 0 0.55919289150049634 0.55919289150049634 0 -0.82903758062907751 forward_v I I I I #
loop $-1 $-1 $254 $63 #
coedge $-1 $161 $161 $162 $255 reversed $99 $-1 #
coedge $-1 $162 $162 $161 $255 forward $101 $-1 #
coedge $-1 $163 $163 $102 $164 forward $158 $-1 #
edge $-1 $256 0 $256 6.2831853071796004 $163 $257 forward 7 unknown #
face $-1 $258 $259 $34 $-1 $260 reversed single #
loop $-1 $-1 $261 $103 #
plane-surface $-1 69.274979600725402 8.0180283738679705 127.71164031326146 0 1 0 0.82903758062907751 0 0.55919289150049634 forward_v I I I I #
coedge $-1 $262 $263 $264 $265 reversed $104 $-1 #
coedge $-1 $170 $106 $266 $267 reversed $67 $-1 #
coedge $-1 $106 $169 $262 $268 reversed $67 $-1 #
coedge $-1 $264 $269 $106 $172 forward $270 $-1 #
edge $-1 $271 -10.35533834991044 $272 -7.2873411148179201 $171 $273 forward 7 unknown #
loop $-1 $-1 $178 $107 #
plane-surface $-1 -5.326511189999195 11.789782237674732 77.392300972989119 0.82903758062907751 0 0.55919289150049634 0.55919289150049634 0 -0.82903758062907751 forward_v I I I I #
loop $-1 $-1 $274 $69 #
coedge $-1 $176 $176 $177 $275 reversed $108 $-1 #
coedge $-1 $177 $177 $176 $275 forward $110 $-1 #
coedge $-1 $178 $178 $111 $179 forward $173 $-1 #
edge $-1 $276 0 $276 6.2831853071796004 $178 $277 forward 7 unknown #
face $-1 $278 $279 $27 $-1 $280 reversed single #
loop $-1 $-1 $281 $112 #
plane-surface $-1 -44.992828150273141 0 0 1 0 0 0 0 -1 forward_v I I I I #
coedge $-1 $282 $191 $283 $284 forward $113 $-1 #
coedge $-1 $285 $115 $282 $286 forward $73 $-1 #
coedge $-1 $115 $285 $287 $288 forward $73 $-1 #
coedge $-1 $194 $193 $115 $187 reversed $195 $-1 #
edge $-1 $289 -19.507694028996109 $290 19.507694028996109 $186 $291 forward 7 unknown #
coedge $-1 $117 $116 $292 $293 forward $46 $-1 #
coedge $-1 $294 $295 $116 $190 reversed $279 $-1 #
edge $-1 $197 -44.992828150273141 $296 44.992828150273141 $189 $297 forward 7 unknown #
coedge $-1 $183 $298 $117 $192 reversed $113 $-1 #
edge $-1 $299 -44.992828150273141 $196 44.992828150273141 $191 $300 forward 7 unknown #
coedge $-1 $186 $118 $298 $301 forward $195 $-1 #
coedge $-1 $118 $186 $294 $302 reversed $195 $-1 #
loop $-1 $-1 $193 $278 #
vertex $-1 $119 $303 #
vertex $-1 $119 $304 #
straight-curve $-1 44.992828150273141 0 7.3393032761820809 0 1 0 I I #
face $-1 $305 $306 $28 $-1 $307 reversed single #
loop $-1 $-1 $205 $120 #
plane-surface $-1 44.992828150273141 0 0 -1 0 0 0 0 1 forward_v I I I I #
coedge $-1 $308 $309 $203 $310 forward $121 $-1 #
coedge $-1 $311 $123 $202 $310 reversed $77 $-1 #
coedge $-1 $123 $311 $124 $208 reversed $77 $-1 #
coedge $-1 $126 $312 $123 $206 forward $200 $-1 #
edge $-1 $313 -4.4196516380910404 $212 -1.4196516380910404 $205 $314 forward 7 unknown #
coedge $-1 $125 $124 $315 $316 reversed $49 $-1 #
edge $-1 $212 -44.992828150273141 $317 44.992828150273141 $204 $318 forward 7 unknown #
coedge $-1 $319 $320 $125 $210 forward $306 $-1 #
edge $-1 $213 -44.992828150273141 $321 44.992828150273141 $209 $322 forward 7 unknown #
coedge $-1 $312 $126 $320 $323 forward $200 $-1 #
vertex $-1 $127 $324 #
vertex $-1 $323 $325 #
straight-curve $-1 44.992828150273141 -7.8000540168242996 -4.3393032761820809 0 -1 0 I I #
face $-1 $-1 $326 $29 $-1 $327 reversed single #
loop $-1 $-1 $134 $128 #
plane-surface $-1 0 0 7.3393032761820809 0 0 1 1 0 0 forward_v I I I I #
coedge $-1 $328 $329 $330 $331 reversed $129 $-1 #
coedge $-1 $332 $131 $133 $225 forward $81 $-1 #
coedge $-1 $131 $332 $328 $333 forward $81 $-1 #
coedge $-1 $330 $134 $131 $222 forward $216 $-1 #
edge $-1 $228 -3.0659524125757862 $334 3.1272408038076591 $221 $335 forward 7 unknown #
coedge $-1 $336 $337 $132 $224 forward $326 $-1 #
edge $-1 $338 -28.778003300495012 $227 -22.918594860927023 $223 $339 forward 7 unknown #
edge $-1 $228 -7.7637922304996128 $338 2.1724019648727301e-014 $133 $340 forward 7 unknown #
coedge $-1 $134 $330 $336 $341 forward $216 $-1 #
vertex $-1 $224 $342 #
vertex $-1 $135 $343 #
straight-curve $-1 -56.452932894391061 -3.0353082169598498 7.3393032761820791 1 0 0 I I #
coedge $-1 $230 $230 $-1 $344 reversed $138 $-1 #
edge $-1 $345 0 $345 6.2831853071796004 $139 $346 forward 7 unknown #
vertex $-1 $142 $347 #
ellipse-curve $-1 -42.446075191273877 -1.2658244408502952 4.4095990563980898 -0.75470958851134928 0 0.65605901945558964 0.32802950972779482 0 0.37735479425567464 1 I I #
coedge $-1 $234 $234 $-1 $348 reversed $145 $-1 #
edge $-1 $349 0 $349 6.2831853071796004 $146 $350 forward 7 unknown #
vertex $-1 $149 $351 #
ellipse-curve $-1 -42.446075191273877 1.3884012233140375 4.4095990563980898 -0.75470958851134928 0 0.65605901945558964 0.32802950972779482 0 0.37735479425567464 1 I I #
face $-1 $-1 $250 $32 $-1 $352 forward single #
loop $-1 $-1 $353 $150 #
plane-surface $-1 44.992828150273141 0 0 -1 0 0 0 0 1 forward_v I I I I #
coedge $-1 $354 $355 $356 $357 reversed $151 $-1 #
coedge $-1 $358 $153 $155 $248 forward $95 $-1 #
coedge $-1 $153 $358 $354 $359 forward $95 $-1 #
coedge $-1 $356 $156 $153 $245 forward $250 $-1 #
edge $-1 $252 -1.866590965819829 $360 5.676916761793696 $244 $361 forward 7 unknown #
coedge $-1 $362 $363 $154 $247 forward $239 $-1 #
edge $-1 $364 -61.06500997436622 $251 -56.516516880448648 $246 $365 forward 7 unknown #
edge $-1 $252 84.499182345449896 $364 89.98565630054631 $155 $366 forward 7 unknown #
coedge $-1 $156 $356 $362 $367 forward $250 $-1 #
loop $-1 $-1 $356 $238 #
vertex $-1 $247 $368 #
vertex $-1 $157 $369 #
straight-curve $-1 34.637489800362701 -0.038571932167104528 7.3393032761820791 -1 0 0 I I #
coedge $-1 $254 $254 $-1 $370 reversed $160 $-1 #
edge $-1 $371 0 $371 6.2831853071796004 $161 $372 forward 7 unknown #
vertex $-1 $164 $373 #
ellipse-curve $-1 43.458829532726881 -3.8103257959738688 5.0650567292233077 0.82903758062907751 0 0.55919289150049634 0.55919289150049634 0 -0.82903758062907751 1 I I #
face $-1 $-1 $270 $34 $-1 $374 forward single #
loop $-1 $-1 $375 $165 #
plane-surface $-1 44.992828150273141 0 0 -1 0 0 0 0 1 forward_v I I I I #
coedge $-1 $376 $377 $378 $379 reversed $166 $-1 #
coedge $-1 $380 $168 $170 $268 forward $104 $-1 #
coedge $-1 $168 $380 $376 $381 forward $104 $-1 #
coedge $-1 $378 $171 $168 $265 forward $270 $-1 #
edge $-1 $272 -9.6666449826441276 $382 -2.1231372550306045 $264 $383 forward 7 unknown #
coedge $-1 $384 $385 $169 $267 forward $259 $-1 #
edge $-1 $386 -61.06500997436622 $271 -56.516516880448648 $266 $387 forward 7 unknown #
edge $-1 $272 84.499182345449896 $386 89.98565630054631 $170 $388 forward 7 unknown #
coedge $-1 $171 $378 $384 $389 forward $270 $-1 #
loop $-1 $-1 $378 $258 #
vertex $-1 $267 $390 #
vertex $-1 $172 $391 #
straight-curve $-1 34.637489800362701 15.561536101481494 7.3393032761820791 -1 0 0 I I #
coedge $-1 $274 $274 $-1 $392 reversed $175 $-1 #
edge $-1 $393 0 $393 6.2831853071796004 $176 $394 forward 7 unknown #
vertex $-1 $179 $395 #
ellipse-curve $-1 43.458829532726881 11.789782237674732 5.0650567292233077 0.82903758062907751 0 0.55919289150049634 0.55919289150049634 0 -0.82903758062907751 1 I I #
face $-1 $-1 $195 $27 $-1 $396 reversed single #
loop $-1 $-1 $294 $180 #
plane-surface $-1 0 19.507694028996109 0 0 -1 0 0 0 -1 forward_v I I I I #
coedge $-1 $397 $292 $295 $398 forward $181 $-1 #
coedge $-1 $298 $183 $184 $286 reversed $113 $-1 #
coedge $-1 $292 $397 $183 $284 reversed $181 $-1 #
edge $-1 $299 -7.3393032761820809 $399 7.3393032761820809 $283 $400 forward 7 unknown #
coedge $-1 $185 $184 $397 $401 forward $73 $-1 #
edge $-1 $290 -44.992828150273141 $399 44.992828150273141 $282 $402 forward 7 unknown #
coedge $-1 $295 $294 $185 $288 reversed $279 $-1 #
edge $-1 $403 -44.992828150273141 $289 44.992828150273141 $287 $404 forward 7 unknown #
vertex $-1 $187 $405 #
vertex $-1 $301 $406 #
straight-curve $-1 44.992828150273141 0 -7.3393032761820809 0 -1 0 I I #
coedge $-1 $281 $283 $188 $293 reversed $181 $-1 #
edge $-1 $296 -19.507694028996109 $299 19.507694028996109 $292 $407 forward 7 unknown #
coedge $-1 $287 $189 $194 $302 forward $279 $-1 #
coedge $-1 $189 $287 $281 $398 reversed $279 $-1 #
vertex $-1 $190 $408 #
straight-curve $-1 0 19.507694028996109 7.3393032761820809 -1 0 0 I I #
coedge $-1 $191 $282 $193 $301 reversed $113 $-1 #
vertex $-1 $293 $409 #
straight-curve $-1 0 -19.507694028996109 7.3393032761820809 1 0 0 I I #
edge $-1 $196 -7.3393032761820809 $290 7.3393032761820809 $193 $410 forward 7 unknown #
edge $-1 $197 -7.3393032761820809 $289 7.3393032761820809 $194 $411 forward 7 unknown #
point $-1 44.992828150273141 -19.507694028996109 7.3393032761820809 #
point $-1 44.992828150273141 19.507694028996109 7.3393032761820809 #
face $-1 $-1 $412 $28 $-1 $413 reversed single #
loop $-1 $-1 $209 $199 #
plane-surface $-1 0 -19.507694028996109 0 0 1 0 0 0 1 forward_v I I I I #
coedge $-1 $414 $202 $312 $415 forward $121 $-1 #
coedge $-1 $202 $414 $416 $417 forward $121 $-1 #
edge $-1 $418 -44.992828150273141 $313 44.992828150273141 $202 $419 forward 7 unknown #
coedge $-1 $204 $203 $420 $421 reversed $77 $-1 #
coedge $-1 $205 $211 $308 $415 reversed $200 $-1 #
vertex $-1 $415 $422 #
straight-curve $-1 44.992828150273141 -11.692522038301089 -2.9196516380910404 0 0 1 I I #
coedge $-1 $420 $423 $207 $316 forward $412 $-1 #
edge $-1 $321 -11.70764001217181 $317 -3.8924680214767893 $315 $424 forward 7 unknown #
vertex $-1 $316 $425 #
straight-curve $-1 0 -11.692522038301089 -4.3393032761820809 -1 0 0 I I #
coedge $-1 $426 $209 $423 $427 forward $306 $-1 #
coedge $-1 $209 $426 $211 $323 reversed $306 $-1 #
vertex $-1 $427 $428 #
straight-curve $-1 0 -19.507694028996109 -4.3393032761820809 -1 0 0 I I #
edge $-1 $213 4.3393032761820809 $429 7.3393032761820809 $211 $430 forward 7 unknown #
point $-1 44.992828150273141 -11.692522038301089 -4.3393032761820809 #
point $-1 44.992828150273141 -19.507694028996109 -4.3393032761820809 #
loop $-1 $-1 $223 $215 #
plane-surface $-1 -44.992828150273141 0 0 1 0 0 0 0 -1 forward_v I I I I #
coedge $-1 $329 $218 $220 $333 reversed $129 $-1 #
coedge $-1 $218 $328 $431 $432 reversed $129 $-1 #
coedge $-1 $226 $221 $218 $331 forward $216 $-1 #
edge $-1 $334 -16.553610662116434 $433 -11.46010474411792 $330 $434 forward 7 unknown #
coedge $-1 $220 $219 $337 $435 reversed $81 $-1 #
edge $-1 $436 -2.1724019648727301e-014 $334 7.7637922304996128 $328 $437 forward 7 unknown #
vertex $-1 $222 $438 #
straight-curve $-1 -39.899322232274621 0.030644195615936454 7.33930327618208 0 1 0 I I #
coedge $-1 $431 $223 $226 $341 reversed $326 $-1 #
coedge $-1 $223 $431 $332 $435 forward $326 $-1 #
vertex $-1 $224 $439 #
straight-curve $-1 -44.992828150273141 -3.0353082169598498 30.257898137109102 0 0 1 I I #
straight-curve $-1 -44.992828150273127 -3.0353082169598498 1.4798948366141076 -0.65605901945558964 0 -0.75470958851134928 I I #
edge $-1 $433 -3.1578849994235956 $227 3.0353082169598498 $336 $440 forward 7 unknown #
point $-1 -44.992828150273141 -3.0353082169598498 7.3393032761820809 #
point $-1 -39.899322232274628 -3.0353082169598498 7.3393032761820809 #
edge $-1 $441 1 $441 0 $230 $-1 forward 7 unknown #
vertex $-1 $231 $442 #
ellipse-curve $-1 -41.543956887699444 -1.2658244408502952 3.6253995991692687 -0.75470958851134928 0 0.65605901945558964 0.32802950972779482 0 0.37735479425567464 1 I I #
point $-1 -42.118045681546093 -1.2658244408502952 4.7869538506537728 #
edge $-1 $443 1 $443 0 $234 $-1 forward 7 unknown #
vertex $-1 $235 $444 #
ellipse-curve $-1 -41.543956887699444 1.3884012233140375 3.6253995991692687 -0.75470958851134928 0 0.65605901945558964 0.32802950972779482 0 0.37735479425567464 1 I I #
point $-1 -42.118045681546093 1.3884012233140375 4.7869538506537728 #
plane-surface $-1 0 0 7.3393032761820809 0 0 1 1 0 0 forward_v I I I I #
coedge $-1 $363 $362 $355 $445 forward $239 $-1 #
coedge $-1 $355 $241 $243 $359 reversed $151 $-1 #
coedge $-1 $241 $354 $353 $445 reversed $151 $-1 #
coedge $-1 $249 $244 $241 $357 forward $250 $-1 #
edge $-1 $360 7.2873411148179201 $446 10.35533834991044 $356 $447 forward 7 unknown #
coedge $-1 $243 $242 $363 $448 reversed $95 $-1 #
edge $-1 $449 -89.98565630054631 $360 -84.499182345449896 $354 $450 forward 7 unknown #
vertex $-1 $245 $451 #
straight-curve $-1 41.924830915180621 -1.9051628979869335 7.3393032761820791 0 -1 0 I I #
coedge $-1 $353 $246 $249 $367 reversed $239 $-1 #
coedge $-1 $246 $353 $358 $448 forward $239 $-1 #
vertex $-1 $247 $452 #
straight-curve $-1 44.992828150273141 -0.038571932167104528 63.855820156630728 0 0 1 I I #
straight-curve $-1 -5.326511189999195 -0.038571932167104528 77.392300972989119 0.55919289150049634 0 -0.82903758062907751 I I #
edge $-1 $446 -7.5820796597806295 $251 -0.038571932167104528 $362 $453 forward 7 unknown #
point $-1 44.992828150273141 -0.038571932167104528 7.3393032761820809 #
point $-1 41.924830915180621 -0.038571932167104528 7.3393032761820791 #
edge $-1 $454 1 $454 0 $254 $-1 forward 7 unknown #
vertex $-1 $255 $455 #
ellipse-curve $-1 41.583924876367213 -3.8103257959738688 3.8004176096288118 0.82903758062907751 0 0.55919289150049634 0.55919289150049634 0 -0.82903758062907751 1 I I #
point $-1 44.018022424227375 -3.8103257959738688 4.2360191485942282 #
plane-surface $-1 0 0 7.3393032761820809 0 0 1 1 0 0 forward_v I I I I #
coedge $-1 $385 $384 $377 $456 forward $259 $-1 #
coedge $-1 $377 $261 $263 $381 reversed $166 $-1 #
coedge $-1 $261 $376 $375 $456 reversed $166 $-1 #
coedge $-1 $269 $264 $261 $379 forward $270 $-1 #
edge $-1 $382 7.2873411148179201 $457 10.35533834991044 $378 $458 forward 7 unknown #
coedge $-1 $263 $262 $385 $459 reversed $104 $-1 #
edge $-1 $460 -89.98565630054631 $382 -84.499182345449896 $376 $461 forward 7 unknown #
vertex $-1 $265 $462 #
straight-curve $-1 41.924830915180621 5.8948911188373661 7.3393032761820791 0 -1 0 I I #
coedge $-1 $375 $266 $269 $389 reversed $259 $-1 #
coedge $-1 $266 $375 $380 $459 forward $259 $-1 #
vertex $-1 $267 $463 #
straight-curve $-1 44.992828150273141 15.561536101481494 63.855820156630728 0 0 1 I I #
straight-curve $-1 -5.326511189999195 15.561536101481494 77.392300972989119 0.55919289150049634 0 -0.82903758062907751 I I #
edge $-1 $457 8.0180283738679705 $271 15.561536101481494 $384 $464 forward 7 unknown #
point $-1 44.992828150273141 15.561536101481494 7.3393032761820809 #
point $-1 41.924830915180621 15.561536101481494 7.3393032761820791 #
edge $-1 $465 1 $465 0 $274 $-1 forward 7 unknown #
vertex $-1 $275 $466 #
ellipse-curve $-1 41.583924876367213 11.789782237674732 3.8004176096288118 0.82903758062907751 0 0.55919289150049634 0.55919289150049634 0 -0.82903758062907751 1 I I #
point $-1 44.018022424227375 11.789782237674732 4.2360191485942282 #
plane-surface $-1 44.992828150273141 0 0 -1 0 0 0 0 1 forward_v I I I I #
coedge $-1 $283 $281 $285 $401 reversed $181 $-1 #
edge $-1 $296 -7.3393032761820809 $403 7.3393032761820809 $295 $467 forward 7 unknown #
vertex $-1 $401 $468 #
straight-curve $-1 -44.992828150273141 -19.507694028996109 0 0 0 -1 I I #
edge $-1 $399 -19.507694028996109 $403 19.507694028996109 $397 $469 forward 7 unknown #
straight-curve $-1 0 -19.507694028996109 -7.3393032761820809 -1 0 0 I I #
vertex $-1 $288 $470 #
straight-curve $-1 0 19.507694028996109 -7.3393032761820809 1 0 0 I I #
point $-1 44.992828150273141 19.507694028996109 -7.3393032761820809 #
point $-1 44.992828150273141 -19.507694028996109 -7.3393032761820809 #
straight-curve $-1 -44.992828150273141 0 7.3393032761820809 0 -1 0 I I #
point $-1 -44.992828150273141 19.507694028996109 7.3393032761820809 #
point $-1 -44.992828150273141 -19.507694028996109 7.3393032761820809 #
straight-curve $-1 44.992828150273141 -19.507694028996109 0 0 0 -1 I I #
straight-curve $-1 44.992828150273141 19.507694028996109 0 0 0 -1 I I #
loop $-1 $-1 $420 $305 #
plane-surface $-1 -44.992828150273141 0 0 1 0 0 0 0 -1 forward_v I I I I #
coedge $-1 $309 $308 $426 $471 forward $121 $-1 #
edge $-1 $313 11.692522038301089 $429 19.507694028996109 $312 $472 forward 7 unknown #
coedge $-1 $423 $420 $309 $417 reversed $412 $-1 #
edge $-1 $473 -19.507694028996109 $418 -11.692522038301089 $416 $474 forward 7 unknown #
vertex $-1 $421 $475 #
straight-curve $-1 0 -11.692522038301089 -7.3393032761820809 1 0 0 I I #
coedge $-1 $416 $315 $311 $421 forward $412 $-1 #
edge $-1 $317 1.4196516380910404 $418 4.4196516380910404 $420 $476 forward 7 unknown #
point $-1 44.992828150273141 -11.692522038301089 -7.3393032761820809 #
coedge $-1 $315 $416 $319 $427 reversed $412 $-1 #
straight-curve $-1 -44.992828150273141 -7.8000540168242996 -4.3393032761820809 0 1 0 I I #
point $-1 -44.992828150273141 -11.692522038301089 -4.3393032761820809 #
coedge $-1 $320 $319 $414 $471 reversed $306 $-1 #
edge $-1 $321 4.3393032761820809 $473 7.3393032761820809 $423 $477 forward 7 unknown #
point $-1 -44.992828150273141 -19.507694028996109 -4.3393032761820809 #
vertex $-1 $323 $478 #
straight-curve $-1 44.992828150273141 -19.507694028996109 0 0 0 -1 I I #
coedge $-1 $337 $336 $329 $432 forward $326 $-1 #
edge $-1 $433 22.918594860927023 $436 28.778003300495012 $431 $479 forward 7 unknown #
vertex $-1 $341 $480 #
straight-curve $-1 -56.452932894391061 3.1578849994235956 7.3393032761820791 -1 0 0 I I #
edge $-1 $436 -3.1272408038076591 $338 3.0659524125757862 $337 $481 forward 7 unknown #
vertex $-1 $435 $482 #
straight-curve $-1 -44.992828150273127 3.1578849994235956 1.4798948366141076 0.65605901945558964 0 0.75470958851134928 I I #
point $-1 -39.899322232274628 3.1578849994235956 7.3393032761820809 #
point $-1 -44.992828150273141 -3.0353082169598498 1.4798948366140912 #
straight-curve $-1 -44.992828150273141 0 7.3393032761820809 0 -1 0 I I #
vertex $-1 $344 $483 #
point $-1 -41.215927377971646 -1.2658244408502952 4.0027543934249437 #
vertex $-1 $348 $484 #
point $-1 -41.215927377971646 1.3884012233140375 4.0027543934249437 #
edge $-1 $446 56.516516880448648 $449 61.06500997436622 $353 $485 forward 7 unknown #
vertex $-1 $367 $486 #
straight-curve $-1 34.637489800362701 -7.5820796597806295 7.3393032761820791 1 0 0 I I #
edge $-1 $449 -5.676916761793696 $364 1.866590965819829 $363 $487 forward 7 unknown #
vertex $-1 $448 $488 #
straight-curve $-1 -5.326511189999195 -7.5820796597806295 77.392300972989119 -0.55919289150049634 0 0.82903758062907751 I I #
point $-1 41.924830915180621 -7.5820796597806295 7.3393032761820791 #
point $-1 44.992828150273141 -0.038571932167104528 2.7908101822645079 #
straight-curve $-1 44.992828150273141 0 7.3393032761820809 0 1 0 I I #
vertex $-1 $370 $489 #
point $-1 42.143117767867707 -3.8103257959738688 2.9713800289997345 #
edge $-1 $457 56.516516880448648 $460 61.06500997436622 $375 $490 forward 7 unknown #
vertex $-1 $389 $491 #
straight-curve $-1 34.637489800362701 8.0180283738679705 7.3393032761820791 1 0 0 I I #
edge $-1 $460 2.1231372550306045 $386 9.6666449826441276 $385 $492 forward 7 unknown #
vertex $-1 $459 $493 #
straight-curve $-1 -5.326511189999195 8.0180283738679705 77.392300972989119 -0.55919289150049634 0 0.82903758062907751 I I #
point $-1 41.924830915180621 8.0180283738679705 7.3393032761820791 #
point $-1 44.992828150273141 15.561536101481494 2.7908101822645079 #
straight-curve $-1 44.992828150273141 0 7.3393032761820809 0 1 0 I I #
vertex $-1 $392 $494 #
point $-1 42.143117767867707 11.789782237674732 2.9713800289997345 #
straight-curve $-1 -44.992828150273141 19.507694028996109 0 0 0 -1 I I #
point $-1 -44.992828150273141 -19.507694028996109 -7.3393032761820809 #
straight-curve $-1 -44.992828150273141 0 -7.3393032761820809 0 1 0 I I #
point $-1 -44.992828150273141 19.507694028996109 -7.3393032761820809 #
edge $-1 $429 -44.992828150273141 $473 44.992828150273141 $426 $495 forward 7 unknown #
straight-curve $-1 44.992828150273141 0 -7.3393032761820809 0 -1 0 I I #
vertex $-1 $417 $496 #
straight-curve $-1 -44.992828150273141 0 -7.3393032761820809 0 1 0 I I #
point $-1 -44.992828150273141 -11.692522038301089 -7.3393032761820809 #
straight-curve $-1 -44.992828150273141 -11.692522038301089 -2.9196516380910404 0 0 -1 I I #
straight-curve $-1 -44.992828150273141 -19.507694028996109 0 0 0 -1 I I #
point $-1 44.992828150273141 -19.507694028996109 -7.3393032761820809 #
straight-curve $-1 -44.992828150273141 3.1578849994235956 30.257898137109102 0 0 -1 I I #
point $-1 -44.992828150273141 3.1578849994235956 7.3393032761820809 #
straight-curve $-1 -44.992828150273141 0.030644195615936454 1.4798948366140872 0 -1 0 I I #
point $-1 -44.992828150273141 3.1578849994235956 1.4798948366140912 #
point $-1 -41.166602093443764 -1.2658244408502952 3.2973700894414737 #
point $-1 -41.166602093443764 1.3884012233140375 3.2973700894414737 #
straight-curve $-1 44.992828150273141 -7.5820796597806295 63.855820156630728 0 0 -1 I I #
point $-1 44.992828150273141 -7.5820796597806295 7.3393032761820809 #
straight-curve $-1 44.992828150273141 -1.9051628979869335 2.790810182264515 0 1 0 I I #
point $-1 44.992828150273141 -7.5820796597806295 2.7908101822645079 #
point $-1 40.754887295738136 -3.8103257959738688 3.2412247181283158 #
straight-curve $-1 44.992828150273141 8.0180283738679705 63.855820156630728 0 0 -1 I I #
point $-1 44.992828150273141 8.0180283738679705 7.3393032761820809 #
straight-curve $-1 44.992828150273141 5.8948911188373661 2.790810182264515 0 1 0 I I #
point $-1 44.992828150273141 8.0180283738679705 2.7908101822645079 #
point $-1 40.754887295738136 11.789782237674732 3.2412247181283158 #
straight-curve $-1 0 -19.507694028996109 -7.3393032761820809 -1 0 0 I I #
point $-1 -44.992828150273141 -19.507694028996109 -7.3393032761820809 #
End-of-ACIS-data 