500 0 11 0           
7 Unknown 11 ACIS 5.0 NT 24 Fri Mar 26 19:49:15 1999 
-1 9.9999999999999995e-007 1e-010 
body $-1 $11 $-1 $12 #
body $-1 $13 $-1 $14 #
body $-1 $15 $-1 $16 #
body $-1 $17 $-1 $18 #
body $-1 $19 $-1 $20 #
body $-1 $21 $-1 $22 #
body $-1 $23 $-1 $24 #
body $-1 $25 $-1 $26 #
body $-1 $27 $-1 $28 #
body $-1 $29 $-1 $30 #
body $-1 $31 $-1 $32 #
lump $-1 $-1 $33 $0 #
transform $-1 1 0 0 0 1 0 0 0 1 41.483199560533464 22.179781936117621 9.7317710768076608 1 rotate no_reflect no_shear #
lump $-1 $-1 $34 $1 #
transform $-1 1 0 0 0 1 0 0 0 1 41.483199560533464 22.179781936117621 9.7317710768076608 1 rotate no_reflect no_shear #
lump $-1 $-1 $35 $2 #
transform $-1 1 0 0 0 1 0 0 0 1 41.483199560533464 22.179781936117621 9.7317710768076608 1 rotate no_reflect no_shear #
lump $-1 $-1 $36 $3 #
transform $-1 1 0 0 0 1 0 0 0 1 41.483199560533464 22.179781936117621 9.7317710768076608 1 rotate no_reflect no_shear #
lump $-1 $-1 $37 $4 #
transform $-1 1 0 0 0 1 0 0 0 1 41.483199560533464 22.179781936117621 9.7317710768076608 1 rotate no_reflect no_shear #
lump $-1 $-1 $38 $5 #
transform $-1 1 0 0 0 1 0 0 0 1 41.483199560533464 22.179781936117621 9.7317710768076608 1 rotate no_reflect no_shear #
lump $-1 $-1 $39 $6 #
transform $-1 1 0 0 0 1 0 0 0 1 41.483199560533464 22.179781936117621 9.7317710768076608 1 rotate no_reflect no_shear #
lump $-1 $-1 $40 $7 #
transform $-1 1 0 0 0 1 0 0 0 1 41.483199560533464 22.179781936117621 9.7317710768076608 1 rotate no_reflect no_shear #
lump $-1 $-1 $41 $8 #
transform $-1 1 0 0 0 1 0 0 0 1 41.483199560533464 22.179781936117621 9.7317710768076608 1 rotate no_reflect no_shear #
lump $-1 $-1 $42 $9 #
transform $-1 1 0 0 0 1 0 0 0 1 41.483199560533464 22.179781936117621 9.7317710768076608 1 rotate no_reflect no_shear #
lump $-1 $-1 $43 $10 #
transform $-1 1 0 0 0 1 0 0 0 1 41.483199560533464 22.179781936117621 9.7317710768076608 1 rotate no_reflect no_shear #
shell $-1 $-1 $-1 $44 $-1 $11 #
shell $-1 $-1 $-1 $45 $-1 $13 #
shell $-1 $-1 $-1 $46 $-1 $15 #
shell $-1 $-1 $-1 $47 $-1 $17 #
shell $-1 $-1 $-1 $48 $-1 $19 #
shell $-1 $-1 $-1 $49 $-1 $21 #
shell $-1 $-1 $-1 $50 $-1 $23 #
shell $-1 $-1 $-1 $51 $-1 $25 #
shell $-1 $-1 $-1 $52 $-1 $27 #
shell $-1 $-1 $-1 $53 $-1 $29 #
shell $-1 $-1 $-1 $54 $-1 $31 #
face $-1 $55 $56 $33 $-1 $57 forward single #
face $-1 $58 $59 $34 $-1 $60 reversed single #
face $-1 $61 $62 $35 $-1 $63 reversed single #
face $-1 $64 $65 $36 $-1 $66 reversed single #
face $-1 $67 $68 $37 $-1 $69 forward single #
face $-1 $70 $71 $38 $-1 $72 forward single #
face $-1 $73 $74 $39 $-1 $75 forward single #
face $-1 $76 $77 $40 $-1 $78 reversed single #
face $-1 $79 $80 $41 $-1 $81 forward single #
face $-1 $82 $83 $42 $-1 $84 forward single #
face $-1 $85 $86 $43 $-1 $87 forward single #
face $-1 $88 $89 $33 $-1 $90 reversed single #
loop $-1 $-1 $91 $44 #
plane-surface $-1 0 0 9.7317710768076608 0 0 1 1 0 0 forward_v I I I I #
face $-1 $92 $93 $34 $-1 $94 reversed single #
loop $-1 $-1 $95 $45 #
plane-surface $-1 -39.983199560533464 -11.153492553647602 0 0 -1 0 0 0 -1 forward_v I I I I #
face $-1 $96 $97 $35 $-1 $98 reversed single #
loop $-1 $-1 $99 $46 #
plane-surface $-1 -39.983199560533464 11.153492553647599 0 0 1 0 0 0 1 forward_v I I I I #
face $-1 $100 $101 $36 $-1 $102 reversed single #
loop $-1 $-1 $103 $47 #
plane-surface $-1 -93.695646947751584 -8.1755023136600684 65.137297281284276 0 1 0 -0.62932039886446345 0 0.77714595512881146 forward_v I I I I #
face $-1 $104 $105 $37 $-1 $106 forward single #
loop $-1 $107 $108 $48 #
cone-surface $-1 -35.474408502357569 -7.0443813124535133 4.6926626206898137 0.62932039886446345 0 -0.77714595512881146 0.38857297756440573 0 0.31466019943223172 1 I I 0 1 0.5 forward I I I I #
face $-1 $109 $110 $38 $-1 $111 forward single #
loop $-1 $112 $113 $49 #
cone-surface $-1 -35.474408502357569 -5.3476998106436788 4.6926626206898137 0.62932039886446345 0 -0.77714595512881146 0.38857297756440573 0 0.31466019943223172 1 I I 0 1 0.5 forward I I I I #
face $-1 $114 $115 $39 $-1 $116 forward single #
loop $-1 $117 $118 $50 #
cone-surface $-1 -35.474408502357569 -3.6510183088338444 4.6926626206898137 0.62932039886446345 0 -0.77714595512881146 0.38857297756440573 0 0.31466019943223172 1 I I 0 1 0.5 forward I I I I #
face $-1 $119 $120 $40 $-1 $121 reversed single #
loop $-1 $-1 $122 $51 #
plane-surface $-1 -93.695646947751584 2.9779902399875366 65.137297281284276 0 1 0 -0.62932039886446345 0 0.77714595512881146 forward_v I I I I #
face $-1 $123 $124 $41 $-1 $125 forward single #
loop $-1 $126 $127 $52 #
cone-surface $-1 -35.474408502357569 4.1091112411940927 4.6926626206898137 0.62932039886446345 0 -0.77714595512881146 0.38857297756440573 0 0.31466019943223172 1 I I 0 1 0.5 forward I I I I #
face $-1 $128 $129 $42 $-1 $130 forward single #
loop $-1 $131 $132 $53 #
cone-surface $-1 -35.474408502357569 5.8057927430039271 4.6926626206898137 0.62932039886446345 0 -0.77714595512881146 0.38857297756440573 0 0.31466019943223172 1 I I 0 1 0.5 forward I I I I #
face $-1 $133 $134 $43 $-1 $135 forward single #
loop $-1 $136 $137 $54 #
cone-surface $-1 -35.474408502357569 7.5024742448137616 4.6926626206898137 0.62932039886446345 0 -0.77714595512881146 0.38857297756440573 0 0.31466019943223172 1 I I 0 1 0.5 forward I I I I #
face $-1 $138 $139 $33 $-1 $140 reversed single #
loop $-1 $-1 $141 $55 #
plane-surface $-1 0 0 -9.7317710768076608 0 0 1 1 0 0 forward_v I I I I #
coedge $-1 $142 $143 $144 $145 forward $56 $-1 #
face $-1 $146 $147 $34 $-1 $148 forward single #
loop $-1 $-1 $149 $58 #
plane-surface $-1 -38.483199560533464 -16.666637244882612 0 -1 0 0 0 0 1 forward_v I I I I #
coedge $-1 $150 $151 $152 $153 forward $59 $-1 #
face $-1 $154 $155 $35 $-1 $156 reversed single #
loop $-1 $-1 $157 $61 #
plane-surface $-1 -38.483199560533464 16.666637244882608 0 -1 0 0 0 0 1 forward_v I I I I #
coedge $-1 $158 $159 $160 $161 reversed $62 $-1 #
face $-1 $162 $163 $36 $-1 $164 reversed single #
loop $-1 $-1 $165 $64 #
plane-surface $-1 -41.483199560533478 -5.3476998106436788 0.66029579274453454 -0.62932039886446345 0 0.77714595512881146 0.77714595512881146 0 0.62932039886446345 forward_v I I I I #
coedge $-1 $166 $167 $168 $169 reversed $65 $-1 #
face $-1 $-1 $170 $37 $-1 $171 forward single #
loop $-1 $172 $173 $67 #
cone-surface $-1 -34.909456746237154 -7.0443813124535133 3.9950053178213309 0.62932039886446345 0 -0.77714595512881146 0.19428648878220287 0 0.15733009971611586 1 I I -0.70710678118654746 0.70710678118654746 0.25 forward I I I I #
loop $-1 $-1 $174 $48 #
coedge $-1 $108 $108 $175 $176 reversed $68 $-1 #
face $-1 $-1 $177 $38 $-1 $178 forward single #
loop $-1 $179 $180 $70 #
cone-surface $-1 -34.909456746237154 -5.3476998106436788 3.9950053178213309 0.62932039886446345 0 -0.77714595512881146 0.19428648878220287 0 0.15733009971611586 1 I I -0.70710678118654746 0.70710678118654746 0.25 forward I I I I #
loop $-1 $-1 $181 $49 #
coedge $-1 $113 $113 $182 $183 reversed $71 $-1 #
face $-1 $-1 $184 $39 $-1 $185 forward single #
loop $-1 $186 $187 $73 #
cone-surface $-1 -34.909456746237154 -3.6510183088338444 3.9950053178213309 0.62932039886446345 0 -0.77714595512881146 0.19428648878220287 0 0.15733009971611586 1 I I -0.70710678118654746 0.70710678118654746 0.25 forward I I I I #
loop $-1 $-1 $188 $50 #
coedge $-1 $118 $118 $189 $190 reversed $74 $-1 #
face $-1 $191 $192 $40 $-1 $193 reversed single #
loop $-1 $-1 $194 $76 #
plane-surface $-1 -41.483199560533478 5.8057927430039271 0.66029579274453454 -0.62932039886446345 0 0.77714595512881146 0.77714595512881146 0 0.62932039886446345 forward_v I I I I #
coedge $-1 $195 $196 $197 $198 reversed $77 $-1 #
face $-1 $-1 $199 $41 $-1 $200 forward single #
loop $-1 $201 $202 $79 #
cone-surface $-1 -34.909456746237154 4.1091112411940927 3.9950053178213309 0.62932039886446345 0 -0.77714595512881146 0.19428648878220287 0 0.15733009971611586 1 I I -0.70710678118654746 0.70710678118654746 0.25 forward I I I I #
loop $-1 $-1 $203 $52 #
coedge $-1 $127 $127 $204 $205 reversed $80 $-1 #
face $-1 $-1 $206 $42 $-1 $207 forward single #
loop $-1 $208 $209 $82 #
cone-surface $-1 -34.909456746237154 5.8057927430039271 3.9950053178213309 0.62932039886446345 0 -0.77714595512881146 0.19428648878220287 0 0.15733009971611586 1 I I -0.70710678118654746 0.70710678118654746 0.25 forward I I I I #
loop $-1 $-1 $210 $53 #
coedge $-1 $132 $132 $211 $212 reversed $83 $-1 #
face $-1 $-1 $213 $43 $-1 $214 forward single #
loop $-1 $215 $216 $85 #
cone-surface $-1 -34.909456746237154 7.5024742448137616 3.9950053178213309 0.62932039886446345 0 -0.77714595512881146 0.19428648878220287 0 0.15733009971611586 1 I I -0.70710678118654746 0.70710678118654746 0.25 forward I I I I #
loop $-1 $-1 $217 $54 #
coedge $-1 $137 $137 $218 $219 reversed $86 $-1 #
face $-1 $220 $221 $33 $-1 $222 reversed single #
loop $-1 $-1 $223 $88 #
plane-surface $-1 0 -22.179781936117621 0 0 1 0 0 0 1 forward_v I I I I #
coedge $-1 $224 $225 $226 $227 forward $89 $-1 #
coedge $-1 $228 $91 $229 $230 forward $56 $-1 #
coedge $-1 $91 $228 $231 $232 forward $56 $-1 #
coedge $-1 $233 $234 $91 $145 reversed $235 $-1 #
edge $-1 $236 -22.179781936117621 $237 22.179781936117621 $144 $238 forward 7 unknown #
face $-1 $239 $240 $34 $-1 $241 reversed single #
loop $-1 $-1 $242 $92 #
plane-surface $-1 0 0 9.7317710768076608 0 0 1 1 0 0 forward_v I I I I #
coedge $-1 $243 $244 $245 $246 reversed $93 $-1 #
coedge $-1 $247 $95 $248 $249 reversed $59 $-1 #
coedge $-1 $95 $247 $250 $251 reversed $59 $-1 #
coedge $-1 $244 $243 $95 $153 reversed $93 $-1 #
edge $-1 $252 -9.7317710768076608 $253 9.7317710768076608 $152 $254 forward 7 unknown #
face $-1 $255 $256 $35 $-1 $257 reversed single #
loop $-1 $-1 $258 $96 #
plane-surface $-1 0 0 -9.7317710768076608 0 0 1 1 0 0 forward_v I I I I #
coedge $-1 $259 $260 $261 $262 forward $97 $-1 #
coedge $-1 $261 $99 $263 $264 reversed $62 $-1 #
coedge $-1 $99 $261 $265 $266 reversed $62 $-1 #
coedge $-1 $267 $268 $99 $161 forward $256 $-1 #
edge $-1 $269 -9.7317710768076608 $270 9.7317710768076608 $160 $271 forward 7 unknown #
face $-1 $272 $273 $36 $-1 $274 forward single #
loop $-1 $-1 $275 $100 #
plane-surface $-1 -93.695646947751584 -2.5198973076272884 65.137297281284276 0 -1 0 0.62932039886446345 0 -0.77714595512881146 forward_v I I I I #
coedge $-1 $276 $277 $278 $279 reversed $101 $-1 #
coedge $-1 $167 $103 $280 $281 reversed $65 $-1 #
coedge $-1 $103 $166 $276 $282 reversed $65 $-1 #
coedge $-1 $278 $283 $103 $169 forward $273 $-1 #
edge $-1 $284 5.3646239133423279 $285 16.566962716885484 $168 $286 forward 7 unknown #
loop $-1 $-1 $175 $104 #
plane-surface $-1 -41.483199560533478 -5.3476998106436788 0.66029579274453454 -0.62932039886446345 0 0.77714595512881146 0.77714595512881146 0 0.62932039886446345 forward_v I I I I #
loop $-1 $-1 $287 $67 #
coedge $-1 $173 $173 $174 $288 reversed $105 $-1 #
coedge $-1 $174 $174 $173 $288 forward $107 $-1 #
coedge $-1 $175 $175 $108 $176 forward $170 $-1 #
edge $-1 $289 0 $289 6.2831853071796004 $175 $290 forward 7 unknown #
loop $-1 $-1 $182 $109 #
plane-surface $-1 -41.483199560533478 -5.3476998106436788 0.66029579274453454 -0.62932039886446345 0 0.77714595512881146 0.77714595512881146 0 0.62932039886446345 forward_v I I I I #
loop $-1 $-1 $291 $70 #
coedge $-1 $180 $180 $181 $292 reversed $110 $-1 #
coedge $-1 $181 $181 $180 $292 forward $112 $-1 #
coedge $-1 $182 $182 $113 $183 forward $177 $-1 #
edge $-1 $293 0 $293 6.2831853071796004 $182 $294 forward 7 unknown #
loop $-1 $-1 $189 $114 #
plane-surface $-1 -41.483199560533478 -5.3476998106436788 0.66029579274453454 -0.62932039886446345 0 0.77714595512881146 0.77714595512881146 0 0.62932039886446345 forward_v I I I I #
loop $-1 $-1 $295 $73 #
coedge $-1 $187 $187 $188 $296 reversed $115 $-1 #
coedge $-1 $188 $188 $187 $296 forward $117 $-1 #
coedge $-1 $189 $189 $118 $190 forward $184 $-1 #
edge $-1 $297 0 $297 6.2831853071796004 $189 $298 forward 7 unknown #
face $-1 $299 $300 $40 $-1 $301 forward single #
loop $-1 $-1 $302 $119 #
plane-surface $-1 -93.695646947751584 8.6335952460203167 65.137297281284276 0 -1 0 0.62932039886446345 0 -0.77714595512881146 forward_v I I I I #
coedge $-1 $303 $304 $305 $306 reversed $120 $-1 #
coedge $-1 $196 $122 $307 $308 reversed $77 $-1 #
coedge $-1 $122 $195 $303 $309 reversed $77 $-1 #
coedge $-1 $305 $310 $122 $198 forward $300 $-1 #
edge $-1 $311 5.3646239133423279 $312 16.566962716885484 $197 $313 forward 7 unknown #
loop $-1 $-1 $204 $123 #
plane-surface $-1 -41.483199560533478 5.8057927430039271 0.66029579274453454 -0.62932039886446345 0 0.77714595512881146 0.77714595512881146 0 0.62932039886446345 forward_v I I I I #
loop $-1 $-1 $314 $79 #
coedge $-1 $202 $202 $203 $315 reversed $124 $-1 #
coedge $-1 $203 $203 $202 $315 forward $126 $-1 #
coedge $-1 $204 $204 $127 $205 forward $199 $-1 #
edge $-1 $316 0 $316 6.2831853071796004 $204 $317 forward 7 unknown #
loop $-1 $-1 $211 $128 #
plane-surface $-1 -41.483199560533478 5.8057927430039271 0.66029579274453454 -0.62932039886446345 0 0.77714595512881146 0.77714595512881146 0 0.62932039886446345 forward_v I I I I #
loop $-1 $-1 $318 $82 #
coedge $-1 $209 $209 $210 $319 reversed $129 $-1 #
coedge $-1 $210 $210 $209 $319 forward $131 $-1 #
coedge $-1 $211 $211 $132 $212 forward $206 $-1 #
edge $-1 $320 0 $320 6.2831853071796004 $211 $321 forward 7 unknown #
loop $-1 $-1 $218 $133 #
plane-surface $-1 -41.483199560533478 5.8057927430039271 0.66029579274453454 -0.62932039886446345 0 0.77714595512881146 0.77714595512881146 0 0.62932039886446345 forward_v I I I I #
loop $-1 $-1 $322 $85 #
coedge $-1 $216 $216 $217 $323 reversed $134 $-1 #
coedge $-1 $217 $217 $216 $323 forward $136 $-1 #
coedge $-1 $218 $218 $137 $219 forward $213 $-1 #
edge $-1 $324 0 $324 6.2831853071796004 $218 $325 forward 7 unknown #
face $-1 $326 $327 $33 $-1 $328 reversed single #
loop $-1 $-1 $329 $138 #
plane-surface $-1 -41.483199560533464 0 0 1 0 0 0 0 -1 forward_v I I I I #
coedge $-1 $330 $231 $331 $332 forward $139 $-1 #
coedge $-1 $333 $141 $330 $334 forward $89 $-1 #
coedge $-1 $141 $333 $335 $336 forward $89 $-1 #
coedge $-1 $234 $233 $141 $227 reversed $235 $-1 #
edge $-1 $337 -22.179781936117621 $338 22.179781936117621 $226 $339 forward 7 unknown #
coedge $-1 $143 $142 $340 $341 forward $56 $-1 #
coedge $-1 $342 $343 $142 $230 reversed $327 $-1 #
edge $-1 $237 -41.483199560533464 $344 41.483199560533464 $229 $345 forward 7 unknown #
coedge $-1 $223 $346 $143 $232 reversed $139 $-1 #
edge $-1 $347 -41.483199560533464 $236 41.483199560533464 $231 $348 forward 7 unknown #
coedge $-1 $226 $144 $346 $349 forward $235 $-1 #
coedge $-1 $144 $226 $342 $350 reversed $235 $-1 #
loop $-1 $-1 $233 $326 #
vertex $-1 $145 $351 #
vertex $-1 $145 $352 #
straight-curve $-1 41.483199560533464 0 9.7317710768076608 0 1 0 I I #
face $-1 $353 $354 $34 $-1 $355 reversed single #
loop $-1 $-1 $356 $146 #
plane-surface $-1 -41.483199560533464 0 0 1 0 0 0 0 -1 forward_v I I I I #
coedge $-1 $250 $357 $244 $358 forward $147 $-1 #
coedge $-1 $152 $149 $359 $360 reversed $93 $-1 #
coedge $-1 $149 $152 $242 $358 reversed $93 $-1 #
coedge $-1 $361 $362 $149 $246 forward $363 $-1 #
edge $-1 $364 -9.7317710768076608 $365 9.7317710768076608 $245 $366 forward 7 unknown #
coedge $-1 $151 $150 $356 $367 reversed $59 $-1 #
coedge $-1 $359 $368 $150 $249 forward $354 $-1 #
edge $-1 $369 -21.491599780266732 $253 -18.491599780266732 $248 $370 forward 7 unknown #
coedge $-1 $371 $242 $151 $251 forward $147 $-1 #
edge $-1 $252 18.491599780266732 $372 21.491599780266732 $250 $373 forward 7 unknown #
vertex $-1 $251 $374 #
vertex $-1 $249 $375 #
straight-curve $-1 -38.483199560533464 -11.153492553647602 0 0 0 -1 I I #
face $-1 $376 $377 $35 $-1 $378 forward single #
loop $-1 $-1 $160 $154 #
plane-surface $-1 -41.483199560533464 0 0 1 0 0 0 0 -1 forward_v I I I I #
coedge $-1 $263 $379 $259 $380 forward $155 $-1 #
coedge $-1 $381 $157 $258 $380 reversed $97 $-1 #
coedge $-1 $157 $381 $382 $383 reversed $97 $-1 #
coedge $-1 $159 $158 $157 $262 reversed $62 $-1 #
edge $-1 $384 -9.7317710768076608 $385 9.7317710768076608 $157 $386 forward 7 unknown #
coedge $-1 $387 $258 $158 $264 forward $155 $-1 #
edge $-1 $385 18.491599780266732 $269 21.491599780266732 $263 $388 forward 7 unknown #
coedge $-1 $382 $389 $159 $266 forward $377 $-1 #
edge $-1 $270 -21.491599780266732 $384 -18.491599780266732 $265 $390 forward 7 unknown #
coedge $-1 $391 $160 $389 $392 reversed $256 $-1 #
coedge $-1 $160 $391 $387 $393 reversed $256 $-1 #
vertex $-1 $393 $394 #
vertex $-1 $161 $395 #
straight-curve $-1 -41.483199560533464 11.153492553647599 0 0 0 1 I I #
face $-1 $-1 $396 $36 $-1 $397 reversed single #
loop $-1 $-1 $168 $162 #
plane-surface $-1 0 0 9.7317710768076608 0 0 1 1 0 0 forward_v I I I I #
coedge $-1 $398 $399 $400 $401 reversed $163 $-1 #
coedge $-1 $402 $165 $167 $282 forward $101 $-1 #
coedge $-1 $165 $402 $398 $403 forward $101 $-1 #
coedge $-1 $400 $168 $165 $279 forward $273 $-1 #
edge $-1 $285 -5.501652408338229 $404 0.15395259769455105 $278 $405 forward 7 unknown #
coedge $-1 $406 $407 $166 $281 forward $396 $-1 #
edge $-1 $408 -31.908352847897593 $284 -22.836877563834477 $280 $409 forward 7 unknown #
edge $-1 $285 -14.414716733211833 $408 -1.8310242626372826e-014 $167 $410 forward 7 unknown #
coedge $-1 $168 $400 $406 $411 forward $273 $-1 #
vertex $-1 $169 $412 #
vertex $-1 $169 $413 #
straight-curve $-1 -46.847823473875792 -8.1755023136600684 9.7317710768076608 1 0 0 I I #
coedge $-1 $287 $287 $-1 $414 reversed $172 $-1 #
edge $-1 $415 0 $415 6.2831853071796004 $173 $416 forward 7 unknown #
vertex $-1 $176 $417 #
ellipse-curve $-1 -35.882030158761879 -7.0443813124535133 5.1960334347761075 -0.62932039886446345 0 0.77714595512881146 0.38857297756440573 0 0.31466019943223172 1 I I #
coedge $-1 $291 $291 $-1 $418 reversed $179 $-1 #
edge $-1 $419 0 $419 6.2831853071796004 $180 $420 forward 7 unknown #
vertex $-1 $183 $421 #
ellipse-curve $-1 -35.882030158761879 -5.3476998106436788 5.1960334347761075 -0.62932039886446345 0 0.77714595512881146 0.38857297756440573 0 0.31466019943223172 1 I I #
coedge $-1 $295 $295 $-1 $422 reversed $186 $-1 #
edge $-1 $423 0 $423 6.2831853071796004 $187 $424 forward 7 unknown #
vertex $-1 $190 $425 #
ellipse-curve $-1 -35.882030158761879 -3.6510183088338444 5.1960334347761075 -0.62932039886446345 0 0.77714595512881146 0.38857297756440573 0 0.31466019943223172 1 I I #
face $-1 $-1 $426 $40 $-1 $427 reversed single #
loop $-1 $-1 $197 $191 #
plane-surface $-1 0 0 9.7317710768076608 0 0 1 1 0 0 forward_v I I I I #
coedge $-1 $428 $429 $430 $431 reversed $192 $-1 #
coedge $-1 $432 $194 $196 $309 forward $120 $-1 #
coedge $-1 $194 $432 $428 $433 forward $120 $-1 #
coedge $-1 $430 $197 $194 $306 forward $300 $-1 #
edge $-1 $312 0.07509386848557309 $434 5.7306988745183531 $305 $435 forward 7 unknown #
coedge $-1 $436 $437 $195 $308 forward $426 $-1 #
edge $-1 $438 -31.908352847897593 $311 -22.836877563834477 $307 $439 forward 7 unknown #
edge $-1 $312 -14.414716733211833 $438 -1.8310242626372826e-014 $196 $440 forward 7 unknown #
coedge $-1 $197 $430 $436 $441 forward $300 $-1 #
vertex $-1 $198 $442 #
vertex $-1 $198 $443 #
straight-curve $-1 -46.847823473875792 2.9779902399875366 9.7317710768076608 1 0 0 I I #
coedge $-1 $314 $314 $-1 $444 reversed $201 $-1 #
edge $-1 $445 0 $445 6.2831853071796004 $202 $446 forward 7 unknown #
vertex $-1 $205 $447 #
ellipse-curve $-1 -35.882030158761879 4.1091112411940927 5.1960334347761075 -0.62932039886446345 0 0.77714595512881146 0.38857297756440573 0 0.31466019943223172 1 I I #
coedge $-1 $318 $318 $-1 $448 reversed $208 $-1 #
edge $-1 $449 0 $449 6.2831853071796004 $209 $450 forward 7 unknown #
vertex $-1 $212 $451 #
ellipse-curve $-1 -35.882030158761879 5.8057927430039271 5.1960334347761075 -0.62932039886446345 0 0.77714595512881146 0.38857297756440573 0 0.31466019943223172 1 I I #
coedge $-1 $322 $322 $-1 $452 reversed $215 $-1 #
edge $-1 $453 0 $453 6.2831853071796004 $216 $454 forward 7 unknown #
vertex $-1 $219 $455 #
ellipse-curve $-1 -35.882030158761879 7.5024742448137616 5.1960334347761075 -0.62932039886446345 0 0.77714595512881146 0.38857297756440573 0 0.31466019943223172 1 I I #
face $-1 $-1 $235 $33 $-1 $456 reversed single #
loop $-1 $-1 $342 $220 #
plane-surface $-1 0 22.179781936117621 0 0 -1 0 0 0 -1 forward_v I I I I #
coedge $-1 $457 $340 $343 $458 forward $221 $-1 #
coedge $-1 $346 $223 $224 $334 reversed $139 $-1 #
coedge $-1 $340 $457 $223 $332 reversed $221 $-1 #
edge $-1 $347 -9.7317710768076608 $459 9.7317710768076608 $331 $460 forward 7 unknown #
coedge $-1 $225 $224 $457 $461 forward $89 $-1 #
edge $-1 $338 -41.483199560533464 $459 41.483199560533464 $330 $462 forward 7 unknown #
coedge $-1 $343 $342 $225 $336 reversed $327 $-1 #
edge $-1 $463 -41.483199560533464 $337 41.483199560533464 $335 $464 forward 7 unknown #
vertex $-1 $227 $465 #
vertex $-1 $349 $466 #
straight-curve $-1 41.483199560533464 0 -9.7317710768076608 0 -1 0 I I #
coedge $-1 $329 $331 $228 $341 reversed $221 $-1 #
edge $-1 $344 -22.179781936117621 $347 22.179781936117621 $340 $467 forward 7 unknown #
coedge $-1 $335 $229 $234 $350 forward $327 $-1 #
coedge $-1 $229 $335 $329 $458 reversed $327 $-1 #
vertex $-1 $230 $468 #
straight-curve $-1 0 22.179781936117621 9.7317710768076608 -1 0 0 I I #
coedge $-1 $231 $330 $233 $349 reversed $139 $-1 #
vertex $-1 $341 $469 #
straight-curve $-1 0 -22.179781936117621 9.7317710768076608 1 0 0 I I #
edge $-1 $236 -9.7317710768076608 $338 9.7317710768076608 $233 $470 forward 7 unknown #
edge $-1 $237 -9.7317710768076608 $337 9.7317710768076608 $234 $471 forward 7 unknown #
point $-1 41.483199560533464 -22.179781936117621 9.7317710768076608 #
point $-1 41.483199560533464 22.179781936117621 9.7317710768076608 #
face $-1 $-1 $363 $34 $-1 $472 reversed single #
loop $-1 $-1 $359 $239 #
plane-surface $-1 0 0 -9.7317710768076608 0 0 1 1 0 0 forward_v I I I I #
coedge $-1 $473 $474 $247 $367 forward $240 $-1 #
coedge $-1 $242 $371 $361 $475 forward $147 $-1 #
edge $-1 $365 -13.846463313676315 $252 -2.8201739312062966 $242 $476 forward 7 unknown #
coedge $-1 $477 $248 $243 $360 forward $354 $-1 #
edge $-1 $253 2.8201739312062966 $364 13.846463313676315 $359 $478 forward 7 unknown #
coedge $-1 $479 $245 $357 $475 reversed $363 $-1 #
coedge $-1 $245 $479 $477 $480 reversed $363 $-1 #
loop $-1 $-1 $245 $353 #
vertex $-1 $480 $481 #
vertex $-1 $246 $482 #
straight-curve $-1 -38.483199560533464 -22.179781936117621 0 0 0 1 I I #
edge $-1 $372 -9.7317710768076608 $369 9.7317710768076608 $356 $483 forward 7 unknown #
coedge $-1 $248 $477 $473 $484 forward $354 $-1 #
vertex $-1 $249 $485 #
straight-curve $-1 -19.991599780266732 -11.153492553647602 -9.7317710768076608 1 0 0 I I #
coedge $-1 $357 $250 $474 $486 forward $147 $-1 #
vertex $-1 $486 $487 #
straight-curve $-1 -19.991599780266732 -11.153492553647602 9.7317710768076608 -1 0 0 I I #
point $-1 -38.483199560533464 -11.153492553647602 9.7317710768076608 #
point $-1 -38.483199560533464 -11.153492553647602 -9.7317710768076608 #
face $-1 $-1 $488 $35 $-1 $489 reversed single #
loop $-1 $-1 $382 $255 #
plane-surface $-1 0 0 9.7317710768076608 0 0 1 1 0 0 forward_v I I I I #
coedge $-1 $258 $387 $490 $491 forward $155 $-1 #
edge $-1 $492 -13.846463313676313 $385 -2.8201739312062948 $258 $493 forward 7 unknown #
coedge $-1 $260 $259 $494 $495 reversed $97 $-1 #
coedge $-1 $496 $265 $260 $383 forward $377 $-1 #
edge $-1 $384 2.8201739312062948 $497 13.846463313676313 $382 $498 forward 7 unknown #
vertex $-1 $266 $499 #
vertex $-1 $264 $500 #
straight-curve $-1 -38.483199560533464 11.153492553647599 0 0 0 -1 I I #
coedge $-1 $379 $263 $268 $393 forward $155 $-1 #
straight-curve $-1 -19.991599780266732 11.153492553647599 -9.7317710768076608 -1 0 0 I I #
coedge $-1 $265 $496 $267 $392 forward $377 $-1 #
straight-curve $-1 -19.991599780266732 11.153492553647599 9.7317710768076608 1 0 0 I I #
coedge $-1 $268 $267 $501 $502 forward $256 $-1 #
edge $-1 $503 -22.179781936117621 $270 -11.153492553647599 $267 $504 forward 7 unknown #
edge $-1 $269 11.153492553647599 $505 22.179781936117621 $268 $506 forward 7 unknown #
point $-1 -41.483199560533464 11.153492553647599 -9.7317710768076608 #
point $-1 -41.483199560533464 11.153492553647599 9.7317710768076608 #
loop $-1 $-1 $280 $272 #
plane-surface $-1 -41.483199560533464 0 0 1 0 0 0 0 -1 forward_v I I I I #
coedge $-1 $399 $275 $277 $403 reversed $163 $-1 #
coedge $-1 $275 $398 $507 $508 reversed $163 $-1 #
coedge $-1 $283 $278 $275 $401 forward $273 $-1 #
edge $-1 $404 -16.566962716885484 $509 -5.3646239133423279 $400 $510 forward 7 unknown #
coedge $-1 $277 $276 $407 $511 reversed $101 $-1 #
edge $-1 $512 1.8310242626372826e-014 $404 14.414716733211833 $398 $513 forward 7 unknown #
vertex $-1 $279 $514 #
straight-curve $-1 -30.280860756990307 -2.6738499053218394 9.7317710768076608 0 1 0 I I #
coedge $-1 $507 $280 $283 $411 reversed $396 $-1 #
coedge $-1 $280 $507 $402 $511 forward $396 $-1 #
vertex $-1 $281 $515 #
straight-curve $-1 -41.483199560533464 -8.1755023136600684 32.568648640642138 0 0 1 I I #
straight-curve $-1 -41.483199560533478 -8.1755023136600684 0.66029579274453454 -0.77714595512881146 0 -0.62932039886446345 I I #
edge $-1 $509 2.5198973076272884 $284 8.1755023136600684 $406 $516 forward 7 unknown #
point $-1 -41.483199560533464 -8.1755023136600684 9.7317710768076608 #
point $-1 -30.280860756990307 -8.1755023136600684 9.7317710768076608 #
edge $-1 $517 1 $517 0 $287 $-1 forward 7 unknown #
vertex $-1 $288 $518 #
ellipse-curve $-1 -35.066786845953267 -7.0443813124535133 4.1892918066035341 -0.62932039886446345 0 0.77714595512881146 0.38857297756440573 0 0.31466019943223172 1 I I #
point $-1 -35.493457181197464 -7.0443813124535133 5.5106936342083248 #
edge $-1 $519 1 $519 0 $291 $-1 forward 7 unknown #
vertex $-1 $292 $520 #
ellipse-curve $-1 -35.066786845953267 -5.3476998106436788 4.1892918066035341 -0.62932039886446345 0 0.77714595512881146 0.38857297756440573 0 0.31466019943223172 1 I I #
point $-1 -35.493457181197464 -5.3476998106436788 5.5106936342083248 #
edge $-1 $521 1 $521 0 $295 $-1 forward 7 unknown #
vertex $-1 $296 $522 #
ellipse-curve $-1 -35.066786845953267 -3.6510183088338444 4.1892918066035341 -0.62932039886446345 0 0.77714595512881146 0.38857297756440573 0 0.31466019943223172 1 I I #
point $-1 -35.493457181197464 -3.6510183088338444 5.5106936342083248 #
loop $-1 $-1 $307 $299 #
plane-surface $-1 -41.483199560533464 0 0 1 0 0 0 0 -1 forward_v I I I I #
coedge $-1 $429 $302 $304 $433 reversed $192 $-1 #
coedge $-1 $302 $428 $523 $524 reversed $192 $-1 #
coedge $-1 $310 $305 $302 $431 forward $300 $-1 #
edge $-1 $434 -16.566962716885484 $525 -5.3646239133423279 $430 $526 forward 7 unknown #
coedge $-1 $304 $303 $437 $527 reversed $120 $-1 #
edge $-1 $528 1.8310242626372826e-014 $434 14.414716733211833 $428 $529 forward 7 unknown #
vertex $-1 $306 $530 #
straight-curve $-1 -30.280860756990307 2.9028963715019636 9.7317710768076608 0 1 0 I I #
coedge $-1 $523 $307 $310 $441 reversed $426 $-1 #
coedge $-1 $307 $523 $432 $527 forward $426 $-1 #
vertex $-1 $308 $531 #
straight-curve $-1 -41.483199560533464 2.9779902399875366 32.568648640642138 0 0 1 I I #
straight-curve $-1 -41.483199560533478 2.9779902399875366 0.66029579274453454 -0.77714595512881146 0 -0.62932039886446345 I I #
edge $-1 $525 -8.6335952460203167 $311 -2.9779902399875366 $436 $532 forward 7 unknown #
point $-1 -41.483199560533464 2.9779902399875366 9.7317710768076608 #
point $-1 -30.280860756990307 2.9779902399875366 9.7317710768076608 #
edge $-1 $533 1 $533 0 $314 $-1 forward 7 unknown #
vertex $-1 $315 $534 #
ellipse-curve $-1 -35.066786845953267 4.1091112411940927 4.1892918066035341 -0.62932039886446345 0 0.77714595512881146 0.38857297756440573 0 0.31466019943223172 1 I I #
point $-1 -35.493457181197464 4.1091112411940927 5.5106936342083248 #
edge $-1 $535 1 $535 0 $318 $-1 forward 7 unknown #
vertex $-1 $319 $536 #
ellipse-curve $-1 -35.066786845953267 5.8057927430039271 4.1892918066035341 -0.62932039886446345 0 0.77714595512881146 0.38857297756440573 0 0.31466019943223172 1 I I #
point $-1 -35.493457181197464 5.8057927430039271 5.5106936342083248 #
edge $-1 $537 1 $537 0 $322 $-1 forward 7 unknown #
vertex $-1 $323 $538 #
ellipse-curve $-1 -35.066786845953267 7.5024742448137616 4.1892918066035341 -0.62932039886446345 0 0.77714595512881146 0.38857297756440573 0 0.31466019943223172 1 I I #
point $-1 -35.493457181197464 7.5024742448137616 5.5106936342083248 #
plane-surface $-1 41.483199560533464 0 0 -1 0 0 0 0 1 forward_v I I I I #
coedge $-1 $331 $329 $333 $461 reversed $221 $-1 #
edge $-1 $344 -9.7317710768076608 $463 9.7317710768076608 $343 $539 forward 7 unknown #
vertex $-1 $461 $540 #
straight-curve $-1 -41.483199560533464 -22.179781936117621 0 0 0 -1 I I #
edge $-1 $459 -22.179781936117621 $463 22.179781936117621 $457 $541 forward 7 unknown #
straight-curve $-1 0 -22.179781936117621 -9.7317710768076608 -1 0 0 I I #
vertex $-1 $336 $542 #
straight-curve $-1 0 22.179781936117621 -9.7317710768076608 1 0 0 I I #
point $-1 41.483199560533464 22.179781936117621 -9.7317710768076608 #
point $-1 41.483199560533464 -22.179781936117621 -9.7317710768076608 #
straight-curve $-1 -41.483199560533464 0 9.7317710768076608 0 -1 0 I I #
point $-1 -41.483199560533464 22.179781936117621 9.7317710768076608 #
point $-1 -41.483199560533464 -22.179781936117621 9.7317710768076608 #
straight-curve $-1 41.483199560533464 -22.179781936117621 0 0 0 -1 I I #
straight-curve $-1 41.483199560533464 22.179781936117621 0 0 0 -1 I I #
plane-surface $-1 0 -22.179781936117621 0 0 1 0 0 0 1 forward_v I I I I #
coedge $-1 $543 $356 $368 $484 reversed $240 $-1 #
coedge $-1 $356 $543 $371 $486 reversed $240 $-1 #
edge $-1 $544 -41.483199560533464 $365 -38.483199560533464 $361 $545 forward 7 unknown #
straight-curve $-1 -38.483199560533464 -8.3333186224413058 9.7317710768076608 0 1 0 I I #
coedge $-1 $368 $359 $362 $480 forward $354 $-1 #
straight-curve $-1 -38.483199560533464 -8.3333186224413058 -9.7317710768076608 0 -1 0 I I #
coedge $-1 $362 $361 $543 $546 forward $363 $-1 #
edge $-1 $364 38.483199560533464 $547 41.483199560533464 $362 $548 forward 7 unknown #
point $-1 -38.483199560533464 -22.179781936117621 -9.7317710768076608 #
point $-1 -38.483199560533464 -22.179781936117621 9.7317710768076608 #
straight-curve $-1 -41.483199560533464 -11.153492553647602 0 0 0 -1 I I #
edge $-1 $547 -22.179781936117621 $369 -11.153492553647602 $473 $549 forward 7 unknown #
point $-1 -41.483199560533464 -11.153492553647602 -9.7317710768076608 #
edge $-1 $372 11.153492553647602 $544 22.179781936117621 $474 $550 forward 7 unknown #
point $-1 -41.483199560533464 -11.153492553647602 9.7317710768076608 #
loop $-1 $-1 $494 $376 #
plane-surface $-1 0 22.179781936117621 0 0 -1 0 0 0 -1 forward_v I I I I #
coedge $-1 $501 $494 $379 $491 reversed $488 $-1 #
edge $-1 $505 -41.483199560533464 $492 -38.483199560533464 $490 $551 forward 7 unknown #
vertex $-1 $380 $552 #
straight-curve $-1 -38.483199560533464 8.3333186224413041 -9.7317710768076608 0 -1 0 I I #
coedge $-1 $490 $553 $381 $495 forward $488 $-1 #
edge $-1 $497 -9.7317710768076608 $492 9.7317710768076608 $494 $554 forward 7 unknown #
coedge $-1 $389 $382 $553 $555 forward $377 $-1 #
vertex $-1 $555 $556 #
straight-curve $-1 -38.483199560533464 8.3333186224413041 9.7317710768076608 0 1 0 I I #
point $-1 -38.483199560533464 11.153492553647599 9.7317710768076608 #
point $-1 -38.483199560533464 11.153492553647599 -9.7317710768076608 #
coedge $-1 $553 $490 $391 $502 reversed $488 $-1 #
edge $-1 $503 -9.7317710768076608 $505 9.7317710768076608 $501 $557 forward 7 unknown #
vertex $-1 $555 $558 #
straight-curve $-1 -41.483199560533464 0 9.7317710768076608 0 -1 0 I I #
vertex $-1 $491 $559 #
straight-curve $-1 -41.483199560533464 0 -9.7317710768076608 0 1 0 I I #
coedge $-1 $407 $406 $399 $508 forward $396 $-1 #
edge $-1 $509 22.836877563834477 $512 31.908352847897593 $507 $560 forward 7 unknown #
vertex $-1 $411 $561 #
straight-curve $-1 -46.847823473875792 -2.5198973076272884 9.7317710768076608 -1 0 0 I I #
edge $-1 $512 -0.15395259769455105 $408 5.501652408338229 $407 $562 forward 7 unknown #
vertex $-1 $511 $563 #
straight-curve $-1 -41.483199560533478 -2.5198973076272884 0.66029579274453454 0.77714595512881146 0 0.62932039886446345 I I #
point $-1 -30.280860756990307 -2.5198973076272884 9.7317710768076608 #
point $-1 -41.483199560533464 -8.1755023136600684 0.66029579274454608 #
straight-curve $-1 -41.483199560533464 0 9.7317710768076608 0 -1 0 I I #
vertex $-1 $414 $564 #
point $-1 -34.678213868388866 -7.0443813124535133 4.5039520060357656 #
vertex $-1 $418 $565 #
point $-1 -34.678213868388866 -5.3476998106436788 4.5039520060357656 #
vertex $-1 $422 $566 #
point $-1 -34.678213868388866 -3.6510183088338444 4.5039520060357656 #
coedge $-1 $437 $436 $429 $524 forward $426 $-1 #
edge $-1 $525 22.836877563834477 $528 31.908352847897593 $523 $567 forward 7 unknown #
vertex $-1 $441 $568 #
straight-curve $-1 -46.847823473875792 8.6335952460203167 9.7317710768076608 -1 0 0 I I #
edge $-1 $528 -5.7306988745183531 $438 -0.07509386848557309 $437 $569 forward 7 unknown #
vertex $-1 $527 $570 #
straight-curve $-1 -41.483199560533478 8.6335952460203167 0.66029579274453454 0.77714595512881146 0 0.62932039886446345 I I #
point $-1 -30.280860756990307 8.6335952460203167 9.7317710768076608 #
point $-1 -41.483199560533464 2.9779902399875366 0.66029579274454608 #
straight-curve $-1 -41.483199560533464 0 9.7317710768076608 0 -1 0 I I #
vertex $-1 $444 $571 #
point $-1 -34.678213868388866 4.1091112411940927 4.5039520060357656 #
vertex $-1 $448 $572 #
point $-1 -34.678213868388866 5.8057927430039271 4.5039520060357656 #
vertex $-1 $452 $573 #
point $-1 -34.678213868388866 7.5024742448137616 4.5039520060357656 #
straight-curve $-1 -41.483199560533464 22.179781936117621 0 0 0 -1 I I #
point $-1 -41.483199560533464 -22.179781936117621 -9.7317710768076608 #
straight-curve $-1 -41.483199560533464 0 -9.7317710768076608 0 1 0 I I #
point $-1 -41.483199560533464 22.179781936117621 -9.7317710768076608 #
coedge $-1 $474 $473 $479 $546 reversed $240 $-1 #
vertex $-1 $486 $574 #
straight-curve $-1 0 -22.179781936117621 9.7317710768076608 1 0 0 I I #
edge $-1 $544 -9.7317710768076608 $547 9.7317710768076608 $543 $575 forward 7 unknown #
vertex $-1 $484 $576 #
straight-curve $-1 0 -22.179781936117621 -9.7317710768076608 -1 0 0 I I #
straight-curve $-1 -41.483199560533464 0 -9.7317710768076608 0 1 0 I I #
straight-curve $-1 -41.483199560533464 0 9.7317710768076608 0 -1 0 I I #
straight-curve $-1 0 22.179781936117621 -9.7317710768076608 1 0 0 I I #
point $-1 -38.483199560533464 22.179781936117617 -9.7317710768076608 #
coedge $-1 $494 $501 $496 $555 reversed $488 $-1 #
straight-curve $-1 -38.483199560533464 22.179781936117621 0 0 0 -1 I I #
edge $-1 $497 38.483199560533464 $503 41.483199560533464 $553 $577 forward 7 unknown #
point $-1 -38.483199560533464 22.179781936117617 9.7317710768076608 #
straight-curve $-1 -41.483199560533464 22.179781936117621 0 0 0 -1 I I #
point $-1 -41.483199560533464 22.179781936117621 9.7317710768076608 #
point $-1 -41.483199560533464 22.179781936117621 -9.7317710768076608 #
straight-curve $-1 -41.483199560533464 -2.5198973076272884 32.568648640642138 0 0 -1 I I #
point $-1 -41.483199560533464 -2.5198973076272884 9.7317710768076608 #
straight-curve $-1 -41.483199560533464 -2.6738499053218394 0.66029579274454608 0 -1 0 I I #
point $-1 -41.483199560533464 -2.5198973076272884 0.66029579274454608 #
point $-1 -34.752126646521042 -7.0443813124535133 3.8007188290391283 #
point $-1 -34.752126646521042 -5.3476998106436788 3.8007188290391283 #
point $-1 -34.752126646521042 -3.6510183088338444 3.8007188290391283 #
straight-curve $-1 -41.483199560533464 8.6335952460203167 32.568648640642138 0 0 -1 I I #
point $-1 -41.483199560533464 8.6335952460203167 9.7317710768076608 #
straight-curve $-1 -41.483199560533464 2.9028963715019636 0.66029579274454608 0 -1 0 I I #
point $-1 -41.483199560533464 8.6335952460203167 0.66029579274454608 #
point $-1 -34.752126646521042 4.1091112411940927 3.8007188290391283 #
point $-1 -34.752126646521042 5.8057927430039271 3.8007188290391283 #
point $-1 -34.752126646521042 7.5024742448137616 3.8007188290391283 #
point $-1 -41.483199560533464 -22.179781936117621 9.7317710768076608 #
straight-curve $-1 -41.483199560533464 -22.179781936117621 0 0 0 -1 I I #
point $-1 -41.483199560533464 -22.179781936117621 -9.7317710768076608 #
straight-curve $-1 0 22.179781936117621 9.7317710768076608 -1 0 0 I I #
End-of-ACIS-data 