500 0 7 0           
7 Unknown 11 ACIS 5.0 NT 24 Thu Mar 25 15:50:37 1999 
-1 9.9999999999999995e-007 1e-010 
body $-1 $7 $-1 $8 #
body $-1 $9 $-1 $10 #
body $-1 $11 $-1 $12 #
body $-1 $13 $-1 $14 #
body $-1 $15 $-1 $16 #
body $-1 $17 $-1 $18 #
body $-1 $19 $-1 $20 #
lump $-1 $-1 $21 $0 #
transform $-1 1 0 0 0 1 0 0 0 1 55.320291756950589 26.148617291482349 10.866515298818507 1 rotate no_reflect no_shear #
lump $-1 $-1 $22 $1 #
transform $-1 1 0 0 0 1 0 0 0 1 55.320291756950589 26.148617291482349 10.866515298818507 1 rotate no_reflect no_shear #
lump $-1 $-1 $23 $2 #
transform $-1 1 0 0 0 1 0 0 0 1 55.320291756950589 26.148617291482349 10.866515298818507 1 rotate no_reflect no_shear #
lump $-1 $-1 $24 $3 #
transform $-1 1 0 0 0 1 0 0 0 1 55.320291756950589 26.148617291482349 10.866515298818507 1 rotate no_reflect no_shear #
lump $-1 $-1 $25 $4 #
transform $-1 1 0 0 0 1 0 0 0 1 55.320291756950589 26.148617291482349 10.866515298818507 1 rotate no_reflect no_shear #
lump $-1 $-1 $26 $5 #
transform $-1 1 0 0 0 1 0 0 0 1 55.320291756950589 26.148617291482349 10.866515298818507 1 rotate no_reflect no_shear #
lump $-1 $-1 $27 $6 #
transform $-1 1 0 0 0 1 0 0 0 1 55.320291756950589 26.148617291482349 10.866515298818507 1 rotate no_reflect no_shear #
shell $-1 $-1 $-1 $28 $-1 $7 #
shell $-1 $-1 $-1 $29 $-1 $9 #
shell $-1 $-1 $-1 $30 $-1 $11 #
shell $-1 $-1 $-1 $31 $-1 $13 #
shell $-1 $-1 $-1 $32 $-1 $15 #
shell $-1 $-1 $-1 $33 $-1 $17 #
shell $-1 $-1 $-1 $34 $-1 $19 #
face $-1 $35 $36 $21 $-1 $37 forward single #
face $-1 $38 $39 $22 $-1 $40 reversed single #
face $-1 $41 $42 $23 $-1 $43 forward single #
face $-1 $44 $45 $24 $-1 $46 forward single #
face $-1 $47 $48 $25 $-1 $49 forward single #
face $-1 $50 $51 $26 $-1 $52 reversed single #
face $-1 $53 $54 $27 $-1 $55 forward single #
face $-1 $56 $57 $21 $-1 $58 reversed single #
loop $-1 $-1 $59 $28 #
plane-surface $-1 0 0 10.866515298818507 0 0 1 1 0 0 forward_v I I I I #
face $-1 $60 $61 $22 $-1 $62 reversed single #
loop $-1 $-1 $63 $29 #
plane-surface $-1 5.9160945533132434 77.288208498254519 116.41930334263742 1 0 0 0 -0.7660444514056185 -0.64278759981090561 forward_v I I I I #
face $-1 $64 $65 $23 $-1 $66 forward single #
loop $-1 $67 $68 $30 #
cone-surface $-1 11.475913029289678 22.807992557585631 7.2307596481681209 0 -0.7660444514056185 -0.64278759981090561 1 0 0 1 I I 0 1 1 forward I I I I #
face $-1 $69 $70 $24 $-1 $71 forward single #
loop $-1 $72 $73 $31 #
cone-surface $-1 19.815640743254313 22.807992557585631 7.2307596481681209 0 -0.7660444514056185 -0.64278759981090561 1 0 0 1 I I 0 1 1 forward I I I I #
face $-1 $74 $75 $25 $-1 $76 forward single #
loop $-1 $77 $78 $32 #
cone-surface $-1 28.155368457218948 22.807992557585631 7.2307596481681209 0 -0.7660444514056185 -0.64278759981090561 1 0 0 1 I I 0 1 1 forward I I I I #
face $-1 $79 $80 $26 $-1 $81 reversed single #
loop $-1 $-1 $82 $33 #
plane-surface $-1 41.595990364652629 -26.148617291482338 7.1594964214412329 0 -0.52991927123019833 0.84804809178421925 1 0 0 forward_v I I I I #
face $-1 $83 $84 $27 $-1 $85 forward single #
loop $-1 $86 $87 $34 #
cone-surface $-1 41.595990364652629 -22.535108289143871 7.9771511037736165 0 0.52991927123019833 -0.84804809178421925 1 0 0 1 I I 0 1 1 forward I I I I #
face $-1 $88 $89 $21 $-1 $90 reversed single #
loop $-1 $-1 $91 $35 #
plane-surface $-1 0 0 -10.866515298818507 0 0 1 1 0 0 forward_v I I I I #
coedge $-1 $92 $93 $94 $95 forward $36 $-1 #
face $-1 $96 $97 $22 $-1 $98 reversed single #
loop $-1 $-1 $99 $38 #
plane-surface $-1 19.815640743254299 -7.4673966028494192 45.30090822405883 0 0.7660444514056185 0.64278759981090561 1 0 0 forward_v I I I I #
coedge $-1 $100 $101 $102 $103 reversed $39 $-1 #
face $-1 $-1 $104 $23 $-1 $105 forward single #
loop $-1 $106 $107 $41 #
cone-surface $-1 11.475913029289678 21.445409721698933 6.0874169230611859 0 -0.7660444514056185 -0.64278759981090561 0.5 0 0 1 I I -0.70710678118654746 0.70710678118654746 0.5 forward I I I I #
loop $-1 $-1 $108 $30 #
coedge $-1 $68 $68 $109 $110 reversed $42 $-1 #
face $-1 $-1 $111 $24 $-1 $112 forward single #
loop $-1 $113 $114 $44 #
cone-surface $-1 19.815640743254313 21.445409721698933 6.0874169230611859 0 -0.7660444514056185 -0.64278759981090561 0.5 0 0 1 I I -0.70710678118654746 0.70710678118654746 0.5 forward I I I I #
loop $-1 $-1 $115 $31 #
coedge $-1 $73 $73 $116 $117 reversed $45 $-1 #
face $-1 $-1 $118 $25 $-1 $119 forward single #
loop $-1 $120 $121 $47 #
cone-surface $-1 28.155368457218948 21.445409721698933 6.0874169230611859 0 -0.7660444514056185 -0.64278759981090561 0.5 0 0 1 I I -0.70710678118654746 0.70710678118654746 0.5 forward I I I I #
loop $-1 $-1 $122 $32 #
coedge $-1 $78 $78 $123 $124 reversed $48 $-1 #
face $-1 $125 $126 $26 $-1 $127 reversed single #
loop $-1 $-1 $128 $50 #
plane-surface $-1 27.871688972354676 -84.779194675652747 100.98803214429768 1 0 0 0 0.52991927123019833 -0.84804809178421925 forward_v I I I I #
coedge $-1 $129 $130 $131 $132 reversed $51 $-1 #
face $-1 $-1 $133 $27 $-1 $134 forward single #
loop $-1 $135 $136 $53 #
cone-surface $-1 41.595990364652629 -21.622874751368617 6.5172723015252441 0 0.52991927123019833 -0.84804809178421925 0.5 0 0 1 I I -0.70710678118654746 0.70710678118654746 0.5 forward I I I I #
loop $-1 $-1 $137 $34 #
coedge $-1 $87 $87 $138 $139 reversed $54 $-1 #
face $-1 $140 $141 $21 $-1 $142 reversed single #
loop $-1 $-1 $143 $56 #
plane-surface $-1 0 -26.148617291482349 0 0 1 0 0 0 1 forward_v I I I I #
coedge $-1 $144 $145 $146 $147 forward $57 $-1 #
coedge $-1 $148 $59 $149 $150 forward $36 $-1 #
coedge $-1 $59 $148 $151 $152 forward $36 $-1 #
coedge $-1 $153 $154 $59 $95 reversed $155 $-1 #
edge $-1 $156 -26.148617291482349 $157 26.148617291482349 $94 $158 forward 7 unknown #
face $-1 $159 $160 $22 $-1 $161 reversed single #
loop $-1 $-1 $162 $60 #
plane-surface $-1 33.715186933195355 77.288208498254519 116.41930334263742 -1 0 0 0 0.7660444514056185 0.64278759981090561 forward_v I I I I #
coedge $-1 $163 $164 $165 $166 reversed $61 $-1 #
coedge $-1 $101 $63 $167 $168 reversed $39 $-1 #
coedge $-1 $63 $100 $163 $169 reversed $39 $-1 #
coedge $-1 $165 $170 $63 $103 forward $171 $-1 #
edge $-1 $172 12.495486957644911 $173 17.21761520507058 $102 $174 forward 7 unknown #
loop $-1 $-1 $109 $64 #
plane-surface $-1 19.815640743254299 -7.4673966028494192 45.30090822405883 0 0.7660444514056185 0.64278759981090561 1 0 0 forward_v I I I I #
loop $-1 $-1 $175 $41 #
coedge $-1 $107 $107 $108 $176 reversed $65 $-1 #
coedge $-1 $108 $108 $107 $176 forward $67 $-1 #
coedge $-1 $109 $109 $68 $110 forward $104 $-1 #
edge $-1 $177 -1.3607683005389834e-015 $177 6.2831853071795987 $109 $178 forward 7 unknown #
loop $-1 $-1 $116 $69 #
plane-surface $-1 19.815640743254299 -7.4673966028494192 45.30090822405883 0 0.7660444514056185 0.64278759981090561 1 0 0 forward_v I I I I #
loop $-1 $-1 $179 $44 #
coedge $-1 $114 $114 $115 $180 reversed $70 $-1 #
coedge $-1 $115 $115 $114 $180 forward $72 $-1 #
coedge $-1 $116 $116 $73 $117 forward $111 $-1 #
edge $-1 $181 -1.3607683005389834e-015 $181 6.2831853071795987 $116 $182 forward 7 unknown #
loop $-1 $-1 $123 $74 #
plane-surface $-1 19.815640743254299 -7.4673966028494192 45.30090822405883 0 0.7660444514056185 0.64278759981090561 1 0 0 forward_v I I I I #
loop $-1 $-1 $183 $47 #
coedge $-1 $121 $121 $122 $184 reversed $75 $-1 #
coedge $-1 $122 $122 $121 $184 forward $77 $-1 #
coedge $-1 $123 $123 $78 $124 forward $118 $-1 #
edge $-1 $185 -1.3607683005389834e-015 $185 6.2831853071795987 $123 $186 forward 7 unknown #
face $-1 $187 $188 $26 $-1 $189 forward single #
loop $-1 $-1 $190 $79 #
plane-surface $-1 0 -26.148617291482349 0 0 1 0 0 0 1 forward_v I I I I #
coedge $-1 $191 $192 $193 $194 reversed $80 $-1 #
coedge $-1 $195 $82 $196 $197 reversed $51 $-1 #
coedge $-1 $82 $195 $191 $198 forward $51 $-1 #
coedge $-1 $193 $199 $82 $132 forward $188 $-1 #
edge $-1 $200 -34.522296574624264 $201 -7.0736937900283614 $131 $202 forward 7 unknown #
loop $-1 $-1 $138 $83 #
plane-surface $-1 41.595990364652629 -26.148617291482338 7.1594964214412329 0 -0.52991927123019833 0.84804809178421925 1 0 0 forward_v I I I I #
loop $-1 $-1 $203 $53 #
coedge $-1 $136 $136 $137 $204 reversed $84 $-1 #
coedge $-1 $137 $137 $136 $204 forward $86 $-1 #
coedge $-1 $138 $138 $87 $139 forward $133 $-1 #
edge $-1 $205 -2.6382310060522423e-015 $205 6.2831853071795978 $138 $206 forward 7 unknown #
face $-1 $207 $208 $21 $-1 $209 reversed single #
loop $-1 $-1 $210 $88 #
plane-surface $-1 -55.320291756950589 0 0 1 0 0 0 0 -1 forward_v I I I I #
coedge $-1 $211 $151 $212 $213 forward $89 $-1 #
coedge $-1 $214 $91 $211 $215 forward $57 $-1 #
coedge $-1 $91 $214 $216 $217 forward $57 $-1 #
coedge $-1 $154 $153 $91 $147 reversed $155 $-1 #
edge $-1 $218 -26.148617291482349 $219 26.148617291482349 $146 $220 forward 7 unknown #
coedge $-1 $93 $92 $221 $222 forward $36 $-1 #
coedge $-1 $223 $224 $92 $150 reversed $208 $-1 #
edge $-1 $157 -55.320291756950589 $225 55.320291756950589 $149 $226 forward 7 unknown #
coedge $-1 $143 $227 $93 $152 reversed $89 $-1 #
edge $-1 $228 -55.320291756950589 $156 55.320291756950589 $151 $229 forward 7 unknown #
coedge $-1 $146 $94 $227 $230 forward $155 $-1 #
coedge $-1 $94 $146 $223 $231 reversed $155 $-1 #
loop $-1 $-1 $153 $207 #
vertex $-1 $95 $232 #
vertex $-1 $95 $233 #
straight-curve $-1 55.320291756950589 0 10.866515298818507 0 1 0 I I #
face $-1 $-1 $171 $22 $-1 $234 forward single #
loop $-1 $-1 $235 $96 #
plane-surface $-1 0 26.148617291482349 0 0 -1 0 0 0 -1 forward_v I I I I #
coedge $-1 $236 $237 $238 $239 reversed $97 $-1 #
coedge $-1 $240 $99 $101 $169 forward $61 $-1 #
coedge $-1 $99 $240 $236 $241 forward $61 $-1 #
coedge $-1 $238 $102 $99 $166 forward $171 $-1 #
edge $-1 $173 -3.9917258183139062 $242 23.807366561568205 $165 $243 forward 7 unknown #
coedge $-1 $244 $245 $100 $168 forward $160 $-1 #
edge $-1 $246 -52.970749823398016 $172 -47.343136372500204 $167 $247 forward 7 unknown #
edge $-1 $173 44.950907042086797 $246 52.297234582964713 $101 $248 forward 7 unknown #
coedge $-1 $102 $238 $244 $249 forward $171 $-1 #
loop $-1 $-1 $238 $159 #
vertex $-1 $168 $250 #
vertex $-1 $103 $251 #
straight-curve $-1 5.9160945533132434 38.64410424912726 10.866515298818506 0 -1 0 I I #
coedge $-1 $175 $175 $-1 $252 reversed $106 $-1 #
edge $-1 $253 0 $253 6.2831853071796004 $107 $254 forward 7 unknown #
vertex $-1 $110 $255 #
ellipse-curve $-1 11.475913029289678 23.787553167769516 8.0527085733696016 0 0.7660444514056185 0.64278759981090561 1 0 0 1 I I #
coedge $-1 $179 $179 $-1 $256 reversed $113 $-1 #
edge $-1 $257 0 $257 6.2831853071796004 $114 $258 forward 7 unknown #
vertex $-1 $117 $259 #
ellipse-curve $-1 19.815640743254313 23.787553167769516 8.0527085733696016 0 0.7660444514056185 0.64278759981090561 1 0 0 1 I I #
coedge $-1 $183 $183 $-1 $260 reversed $120 $-1 #
edge $-1 $261 0 $261 6.2831853071796004 $121 $262 forward 7 unknown #
vertex $-1 $124 $263 #
ellipse-curve $-1 28.155368457218948 23.787553167769516 8.0527085733696016 0 0.7660444514056185 0.64278759981090561 1 0 0 1 I I #
face $-1 $-1 $264 $26 $-1 $265 reversed single #
loop $-1 $-1 $193 $125 #
plane-surface $-1 0 0 10.866515298818507 0 0 1 1 0 0 forward_v I I I I #
coedge $-1 $266 $267 $192 $268 forward $126 $-1 #
coedge $-1 $192 $128 $130 $198 reversed $80 $-1 #
coedge $-1 $128 $191 $190 $268 reversed $80 $-1 #
coedge $-1 $269 $131 $128 $194 forward $188 $-1 #
edge $-1 $201 -22.173450246700707 $270 -16.240980046344024 $193 $271 forward 7 unknown #
coedge $-1 $130 $129 $266 $272 reversed $51 $-1 #
coedge $-1 $273 $274 $129 $197 forward $264 $-1 #
edge $-1 $275 -9.1906649354060548 $200 -2.1952241604904685 $196 $276 forward 7 unknown #
edge $-1 $277 -1.2333256194116532e-014 $201 6.9954407749155738 $191 $278 forward 7 unknown #
coedge $-1 $131 $269 $273 $279 forward $188 $-1 #
vertex $-1 $197 $280 #
vertex $-1 $132 $281 #
straight-curve $-1 20.797995182326314 -20.216147091125666 10.866515298818507 -1 0 0 I I #
coedge $-1 $203 $203 $-1 $282 reversed $135 $-1 #
edge $-1 $283 0 $283 6.2831853071796004 $136 $284 forward 7 unknown #
vertex $-1 $139 $285 #
ellipse-curve $-1 41.595990364652629 -23.182382191304015 9.0130058601298622 0 -0.52991927123019833 0.84804809178421925 1 0 0 1 I I #
face $-1 $-1 $155 $21 $-1 $286 reversed single #
loop $-1 $-1 $223 $140 #
plane-surface $-1 0 26.148617291482349 0 0 -1 0 0 0 -1 forward_v I I I I #
coedge $-1 $287 $221 $224 $288 forward $141 $-1 #
coedge $-1 $227 $143 $144 $215 reversed $89 $-1 #
coedge $-1 $221 $287 $143 $213 reversed $141 $-1 #
edge $-1 $228 -10.866515298818507 $289 10.866515298818507 $212 $290 forward 7 unknown #
coedge $-1 $145 $144 $287 $291 forward $57 $-1 #
edge $-1 $219 -55.320291756950589 $289 55.320291756950589 $211 $292 forward 7 unknown #
coedge $-1 $224 $223 $145 $217 reversed $208 $-1 #
edge $-1 $293 -55.320291756950589 $218 55.320291756950589 $216 $294 forward 7 unknown #
vertex $-1 $147 $295 #
vertex $-1 $230 $296 #
straight-curve $-1 55.320291756950589 0 -10.866515298818507 0 -1 0 I I #
coedge $-1 $210 $212 $148 $222 reversed $141 $-1 #
edge $-1 $225 -26.148617291482349 $228 26.148617291482349 $221 $297 forward 7 unknown #
coedge $-1 $216 $149 $154 $231 forward $208 $-1 #
coedge $-1 $149 $216 $210 $288 reversed $208 $-1 #
vertex $-1 $150 $298 #
straight-curve $-1 0 26.148617291482349 10.866515298818507 -1 0 0 I I #
coedge $-1 $151 $211 $153 $230 reversed $89 $-1 #
vertex $-1 $222 $299 #
straight-curve $-1 0 -26.148617291482349 10.866515298818507 1 0 0 I I #
edge $-1 $156 -10.866515298818507 $219 10.866515298818507 $153 $300 forward 7 unknown #
edge $-1 $157 -10.866515298818507 $218 10.866515298818507 $154 $301 forward 7 unknown #
point $-1 55.320291756950589 -26.148617291482349 10.866515298818507 #
point $-1 55.320291756950589 26.148617291482349 10.866515298818507 #
plane-surface $-1 0 0 10.866515298818507 0 0 1 1 0 0 forward_v I I I I #
coedge $-1 $245 $244 $237 $302 forward $160 $-1 #
coedge $-1 $237 $162 $164 $241 reversed $97 $-1 #
coedge $-1 $162 $236 $235 $302 reversed $97 $-1 #
coedge $-1 $170 $165 $162 $239 forward $171 $-1 #
edge $-1 $242 -17.21761520507058 $303 -12.495486957644911 $238 $304 forward 7 unknown #
coedge $-1 $164 $163 $245 $305 reversed $61 $-1 #
edge $-1 $306 -52.297234582964713 $242 -44.950907042086797 $236 $307 forward 7 unknown #
vertex $-1 $166 $308 #
straight-curve $-1 9.9078203716271496 21.42648904405668 10.866515298818506 1 0 0 I I #
coedge $-1 $235 $167 $170 $249 reversed $160 $-1 #
coedge $-1 $167 $235 $240 $305 forward $160 $-1 #
vertex $-1 $168 $309 #
straight-curve $-1 5.9160945533132434 26.148617291482349 58.20965167131871 0 0 1 I I #
straight-curve $-1 5.9160945533132434 -7.4673966028494192 45.30090822405883 0 0.64278759981090561 -0.7660444514056185 I I #
edge $-1 $303 -33.715186933195355 $172 -5.9160945533132434 $244 $310 forward 7 unknown #
point $-1 5.9160945533132434 26.148617291482349 10.866515298818507 #
point $-1 5.9160945533132434 21.42648904405668 10.866515298818506 #
edge $-1 $311 1 $311 0 $175 $-1 forward 7 unknown #
vertex $-1 $176 $312 #
ellipse-curve $-1 11.475913029289678 21.828431947401743 6.4088107229666385 0 0.7660444514056185 0.64278759981090561 1 0 0 1 I I #
point $-1 12.475913029289678 23.787553167769516 8.0527085733696033 #
edge $-1 $313 1 $313 0 $179 $-1 forward 7 unknown #
vertex $-1 $180 $314 #
ellipse-curve $-1 19.815640743254313 21.828431947401743 6.4088107229666385 0 0.7660444514056185 0.64278759981090561 1 0 0 1 I I #
point $-1 20.815640743254313 23.787553167769516 8.0527085733696033 #
edge $-1 $315 1 $315 0 $183 $-1 forward 7 unknown #
vertex $-1 $184 $316 #
ellipse-curve $-1 28.155368457218948 21.828431947401743 6.4088107229666385 0 0.7660444514056185 0.64278759981090561 1 0 0 1 I I #
point $-1 29.155368457218948 23.787553167769516 8.0527085733696033 #
loop $-1 $-1 $196 $187 #
plane-surface $-1 55.320291756950589 0 0 -1 0 0 0 0 1 forward_v I I I I #
coedge $-1 $317 $190 $195 $272 forward $126 $-1 #
coedge $-1 $190 $317 $269 $318 reversed $126 $-1 #
edge $-1 $270 39.627500773330333 $277 43.334519650707612 $190 $319 forward 7 unknown #
coedge $-1 $199 $193 $267 $318 forward $188 $-1 #
vertex $-1 $318 $320 #
straight-curve $-1 27.871688972354676 -42.389597337826373 10.866515298818506 0 -1 0 I I #
edge $-1 $277 7.0736937900283614 $275 34.522296574624264 $266 $321 forward 7 unknown #
coedge $-1 $274 $196 $199 $279 reversed $264 $-1 #
coedge $-1 $196 $273 $317 $322 forward $264 $-1 #
vertex $-1 $272 $323 #
straight-curve $-1 55.320291756950589 -18.35449143078311 12.02980688613254 0 0.84804809178421925 0.52991927123019833 I I #
vertex $-1 $272 $324 #
straight-curve $-1 27.871688972354676 -26.148617291482338 7.1594964214412329 0 0.84804809178421925 0.52991927123019833 I I #
edge $-1 $325 -26.148617291482349 $200 -20.216147091125666 $273 $326 forward 7 unknown #
point $-1 55.320291756950581 -20.216147091125666 10.866515298818507 #
point $-1 27.871688972354676 -20.216147091125666 10.866515298818507 #
edge $-1 $327 1 $327 0 $203 $-1 forward 7 unknown #
vertex $-1 $204 $328 #
ellipse-curve $-1 41.595990364652629 -21.887834386983716 6.9412963474173539 0 -0.52991927123019833 0.84804809178421925 1 0 0 1 I I #
point $-1 42.595990364652629 -23.182382191304029 9.0130058601298799 #
plane-surface $-1 55.320291756950589 0 0 -1 0 0 0 0 1 forward_v I I I I #
coedge $-1 $212 $210 $214 $291 reversed $141 $-1 #
edge $-1 $225 -10.866515298818507 $293 10.866515298818507 $224 $329 forward 7 unknown #
vertex $-1 $291 $330 #
straight-curve $-1 -55.320291756950589 -26.148617291482349 0 0 0 -1 I I #
edge $-1 $289 -26.148617291482349 $293 26.148617291482349 $287 $331 forward 7 unknown #
straight-curve $-1 0 -26.148617291482349 -10.866515298818507 -1 0 0 I I #
vertex $-1 $217 $332 #
straight-curve $-1 0 26.148617291482349 -10.866515298818507 1 0 0 I I #
point $-1 55.320291756950589 26.148617291482349 -10.866515298818507 #
point $-1 55.320291756950589 -26.148617291482349 -10.866515298818507 #
straight-curve $-1 -55.320291756950589 0 10.866515298818507 0 -1 0 I I #
point $-1 -55.320291756950589 26.148617291482349 10.866515298818507 #
point $-1 -55.320291756950589 -26.148617291482349 10.866515298818507 #
straight-curve $-1 55.320291756950589 -26.148617291482349 0 0 0 -1 I I #
straight-curve $-1 55.320291756950589 26.148617291482349 0 0 0 -1 I I #
edge $-1 $303 47.343136372500204 $306 52.970749823398016 $235 $333 forward 7 unknown #
vertex $-1 $249 $334 #
straight-curve $-1 33.715186933195355 38.64410424912726 10.866515298818506 0 1 0 I I #
edge $-1 $306 -23.807366561568205 $246 3.9917258183139062 $245 $335 forward 7 unknown #
vertex $-1 $305 $336 #
straight-curve $-1 33.715186933195355 -7.4673966028494192 45.30090822405883 0 -0.64278759981090561 0.7660444514056185 I I #
point $-1 33.715186933195355 21.42648904405668 10.866515298818506 #
point $-1 5.9160945533132434 26.148617291482353 5.2389018479206939 #
straight-curve $-1 0 26.148617291482349 10.866515298818507 -1 0 0 I I #
vertex $-1 $252 $337 #
point $-1 12.475913029289678 21.828431947401743 6.4088107229666385 #
vertex $-1 $256 $338 #
point $-1 20.815640743254313 21.828431947401743 6.4088107229666385 #
vertex $-1 $260 $339 #
point $-1 29.155368457218948 21.828431947401743 6.4088107229666385 #
coedge $-1 $267 $266 $274 $322 reversed $126 $-1 #
edge $-1 $270 27.871688972354676 $325 55.320291756950589 $267 $340 forward 7 unknown #
straight-curve $-1 27.871688972354676 -26.148617291482349 50.494016072148838 0 0 -1 I I #
point $-1 27.871688972354676 -26.148617291482349 10.866515298818507 #
straight-curve $-1 20.797995182326314 -26.148617291482349 7.1594964214412293 1 0 0 I I #
edge $-1 $325 -10.866515298818507 $275 -7.1594964214412267 $274 $341 forward 7 unknown #
point $-1 55.320291756950581 -26.148617291482349 7.1594964214412267 #
point $-1 27.871688972354676 -26.148617291482349 7.1594964214412267 #
vertex $-1 $279 $342 #
straight-curve $-1 55.320291756950589 0 10.866515298818507 0 1 0 I I #
vertex $-1 $282 $343 #
point $-1 42.595990364652629 -21.887834386983716 6.9412963474173539 #
straight-curve $-1 -55.320291756950589 26.148617291482349 0 0 0 -1 I I #
point $-1 -55.320291756950589 -26.148617291482349 -10.866515298818507 #
straight-curve $-1 -55.320291756950589 0 -10.866515298818507 0 1 0 I I #
point $-1 -55.320291756950589 26.148617291482349 -10.866515298818507 #
straight-curve $-1 33.715186933195355 26.148617291482349 58.20965167131871 0 0 -1 I I #
point $-1 33.715186933195355 26.148617291482349 10.866515298818507 #
straight-curve $-1 9.9078203716271496 26.148617291482349 5.2389018479206939 -1 0 0 I I #
point $-1 33.715186933195355 26.148617291482353 5.2389018479206939 #
point $-1 11.475913029289678 21.062387495996123 5.7660231231557333 #
point $-1 19.815640743254313 21.062387495996123 5.7660231231557333 #
point $-1 28.155368457218948 21.062387495996123 5.7660231231557333 #
straight-curve $-1 0 -26.148617291482349 10.866515298818507 1 0 0 I I #
straight-curve $-1 55.320291756950589 -26.148617291482349 0 0 0 -1 I I #
point $-1 55.320291756950589 -26.148617291482349 10.866515298818507 #
point $-1 41.595990364652629 -21.357915115753517 6.0932482556331342 #
End-of-ACIS-data 