500 0 7 0           
7 Unknown 11 ACIS 5.0 NT 24 Fri Mar 26 17:53:32 1999 
-1 9.9999999999999995e-007 1e-010 
body $-1 $7 $-1 $8 #
body $-1 $9 $-1 $10 #
body $-1 $11 $-1 $12 #
body $-1 $13 $-1 $14 #
body $-1 $15 $-1 $16 #
body $-1 $17 $-1 $18 #
body $-1 $19 $-1 $20 #
lump $-1 $-1 $21 $0 #
transform $-1 1 0 0 0 1 0 0 0 1 65.255897701956229 28.115180999400835 13.186514974001033 1 rotate no_reflect no_shear #
lump $-1 $-1 $22 $1 #
transform $-1 1 0 0 0 1 0 0 0 1 65.255897701956229 28.115180999400835 13.186514974001033 1 rotate no_reflect no_shear #
lump $-1 $-1 $23 $2 #
transform $-1 1 0 0 0 1 0 0 0 1 65.255897701956229 28.115180999400835 13.186514974001033 1 rotate no_reflect no_shear #
lump $-1 $-1 $24 $3 #
transform $-1 1 0 0 0 1 0 0 0 1 65.255897701956229 28.115180999400835 13.186514974001033 1 rotate no_reflect no_shear #
lump $-1 $-1 $25 $4 #
transform $-1 1 0 0 0 1 0 0 0 1 65.255897701956229 28.115180999400835 13.186514974001033 1 rotate no_reflect no_shear #
lump $-1 $-1 $26 $5 #
transform $-1 1 0 0 0 1 0 0 0 1 65.255897701956229 28.115180999400835 13.186514974001033 1 rotate no_reflect no_shear #
lump $-1 $-1 $27 $6 #
transform $-1 1 0 0 0 1 0 0 0 1 65.255897701956229 28.115180999400835 13.186514974001033 1 rotate no_reflect no_shear #
shell $-1 $-1 $-1 $28 $-1 $7 #
shell $-1 $-1 $-1 $29 $-1 $9 #
shell $-1 $-1 $-1 $30 $-1 $11 #
shell $-1 $-1 $-1 $31 $-1 $13 #
shell $-1 $-1 $-1 $32 $-1 $15 #
shell $-1 $-1 $-1 $33 $-1 $17 #
shell $-1 $-1 $-1 $34 $-1 $19 #
face $-1 $35 $36 $21 $-1 $37 forward single #
face $-1 $38 $39 $22 $-1 $40 reversed single #
face $-1 $41 $42 $23 $-1 $43 reversed single #
face $-1 $44 $45 $24 $-1 $46 forward single #
face $-1 $47 $48 $25 $-1 $49 reversed single #
face $-1 $50 $51 $26 $-1 $52 forward single #
face $-1 $53 $54 $27 $-1 $55 forward single #
face $-1 $56 $57 $21 $-1 $58 reversed single #
loop $-1 $-1 $59 $28 #
plane-surface $-1 0 0 13.186514974001033 0 0 1 1 0 0 forward_v I I I I #
face $-1 $60 $61 $22 $-1 $62 reversed single #
loop $-1 $-1 $63 $29 #
plane-surface $-1 0 -22.332946298346677 6.9659504865861486 0 0 1 1 0 0 forward_v I I I I #
face $-1 $64 $65 $23 $-1 $66 reversed single #
loop $-1 $-1 $67 $30 #
plane-surface $-1 94.129252099637853 -6.447382621659246 191.64009747854809 0 -1 0 -0.80901700255871778 0 -0.5877852410284794 forward_v I I I I #
face $-1 $68 $69 $24 $-1 $70 forward single #
loop $-1 $71 $72 $31 #
cone-surface $-1 63.454398307219321 -11.499047109475878 10.969829288371235 -0.80901700255871778 0 -0.5877852410284794 0.2938926205142397 0 -0.40450850127935889 1 I I 0 1 0.5 forward I I I I #
face $-1 $73 $74 $25 $-1 $75 reversed single #
loop $-1 $-1 $76 $32 #
plane-surface $-1 -178.28242902477476 -0.86014760179512173 66.284588786124601 0 1 0 -0.86602541151947299 0 0.49999998660252726 forward_v I I I I #
face $-1 $77 $78 $26 $-1 $79 forward single #
loop $-1 $80 $81 $33 #
cone-surface $-1 -61.261236752664068 1.0948727678579573 6.8275889567821606 0.86602541151947299 0 -0.49999998660252726 0.24999999330126363 0 0.43301270575973649 1 I I 0 1 0.5 forward I I I I #
face $-1 $82 $83 $27 $-1 $84 forward single #
loop $-1 $85 $86 $34 #
cone-surface $-1 -61.261236752664068 4.0274033223375767 6.8275889567821606 0.86602541151947299 0 -0.49999998660252726 0.24999999330126363 0 0.43301270575973649 1 I I 0 1 0.5 forward I I I I #
face $-1 $87 $88 $21 $-1 $89 reversed single #
loop $-1 $-1 $90 $35 #
plane-surface $-1 0 0 -13.186514974001033 0 0 1 1 0 0 forward_v I I I I #
coedge $-1 $91 $92 $93 $94 forward $36 $-1 #
face $-1 $95 $96 $22 $-1 $97 reversed single #
loop $-1 $-1 $98 $38 #
plane-surface $-1 0 -16.550711597292519 10.076232730293592 0 -1 0 0 0 -1 forward_v I I I I #
coedge $-1 $99 $100 $101 $102 reversed $39 $-1 #
face $-1 $103 $104 $23 $-1 $105 forward single #
loop $-1 $-1 $106 $41 #
plane-surface $-1 -11.457009416592044 -11.499047109475882 114.92719035999981 0.80901700255871778 0 0.5877852410284794 0.5877852410284794 0 -0.80901700255871778 forward_v I I I I #
coedge $-1 $107 $108 $109 $110 reversed $42 $-1 #
face $-1 $-1 $111 $24 $-1 $112 forward single #
loop $-1 $113 $114 $44 #
cone-surface $-1 62.847635555300286 -11.499047109475878 10.528990357599875 -0.80901700255871778 0 -0.5877852410284794 0.14694631025711985 0 -0.20225425063967944 1 I I -0.70710678118654746 0.70710678118654746 0.25 forward I I I I #
loop $-1 $-1 $115 $31 #
coedge $-1 $72 $72 $116 $117 reversed $45 $-1 #
face $-1 $118 $119 $25 $-1 $120 reversed single #
loop $-1 $-1 $121 $47 #
plane-surface $-1 -65.255897701956201 2.5611380450977705 1.0286928326965921 -0.86602541151947299 0 0.49999998660252726 0.49999998660252726 0 0.86602541151947299 forward_v I I I I #
coedge $-1 $122 $123 $124 $125 reversed $48 $-1 #
face $-1 $-1 $126 $26 $-1 $127 forward single #
loop $-1 $128 $129 $50 #
cone-surface $-1 -60.55973026812466 1.0948727678579573 6.422574013564871 0.86602541151947299 0 -0.49999998660252726 0.12499999665063181 0 0.21650635287986825 1 I I -0.70710678118654746 0.70710678118654746 0.25 forward I I I I #
loop $-1 $-1 $130 $33 #
coedge $-1 $81 $81 $131 $132 reversed $51 $-1 #
face $-1 $-1 $133 $27 $-1 $134 forward single #
loop $-1 $135 $136 $53 #
cone-surface $-1 -60.55973026812466 4.0274033223375767 6.422574013564871 0.86602541151947299 0 -0.49999998660252726 0.12499999665063181 0 0.21650635287986825 1 I I -0.70710678118654746 0.70710678118654746 0.25 forward I I I I #
loop $-1 $-1 $137 $34 #
coedge $-1 $86 $86 $138 $139 reversed $54 $-1 #
face $-1 $140 $141 $21 $-1 $142 reversed single #
loop $-1 $-1 $143 $56 #
plane-surface $-1 0 -28.115180999400835 0 0 1 0 0 0 1 forward_v I I I I #
coedge $-1 $144 $145 $146 $147 forward $57 $-1 #
coedge $-1 $148 $59 $149 $150 forward $36 $-1 #
coedge $-1 $59 $148 $151 $152 forward $36 $-1 #
coedge $-1 $153 $154 $59 $94 reversed $155 $-1 #
edge $-1 $156 -28.115180999400835 $157 28.115180999400835 $93 $158 forward 7 unknown #
face $-1 $159 $160 $22 $-1 $161 reversed single #
loop $-1 $-1 $162 $60 #
plane-surface $-1 -65.255897701956229 0 0 1 0 0 0 0 -1 forward_v I I I I #
coedge $-1 $163 $164 $165 $166 reversed $61 $-1 #
coedge $-1 $167 $63 $168 $169 reversed $39 $-1 #
coedge $-1 $63 $167 $163 $170 forward $39 $-1 #
coedge $-1 $165 $171 $63 $102 forward $172 $-1 #
edge $-1 $173 -16.948707850227496 $174 -5.3842384481191807 $101 $175 forward 7 unknown #
face $-1 $176 $177 $23 $-1 $178 reversed single #
loop $-1 $-1 $179 $64 #
plane-surface $-1 0 -16.550711597292519 10.076232730293592 0 -1 0 0 0 -1 forward_v I I I I #
coedge $-1 $180 $181 $182 $183 reversed $65 $-1 #
coedge $-1 $108 $67 $184 $185 reversed $42 $-1 #
coedge $-1 $67 $107 $180 $186 reversed $42 $-1 #
coedge $-1 $182 $187 $67 $110 forward $188 $-1 #
edge $-1 $189 -18.191271652137303 $190 -15.397289865222248 $109 $191 forward 7 unknown #
loop $-1 $-1 $116 $68 #
plane-surface $-1 -11.457009416592044 -11.499047109475882 114.92719035999981 0.80901700255871778 0 0.5877852410284794 0.5877852410284794 0 -0.80901700255871778 forward_v I I I I #
loop $-1 $-1 $192 $44 #
coedge $-1 $114 $114 $115 $193 reversed $69 $-1 #
coedge $-1 $115 $115 $114 $193 forward $71 $-1 #
coedge $-1 $116 $116 $72 $117 forward $111 $-1 #
edge $-1 $194 0 $194 6.2831853071796004 $116 $195 forward 7 unknown #
face $-1 $196 $197 $25 $-1 $198 forward single #
loop $-1 $-1 $199 $73 #
plane-surface $-1 -178.28242902477476 5.9824236919906628 66.284588786124601 0 -1 0 0.86602541151947299 0 -0.49999998660252726 forward_v I I I I #
coedge $-1 $200 $201 $202 $203 reversed $74 $-1 #
coedge $-1 $123 $76 $204 $205 reversed $48 $-1 #
coedge $-1 $76 $122 $200 $206 reversed $48 $-1 #
coedge $-1 $202 $207 $76 $125 forward $197 $-1 #
edge $-1 $208 23.885316810431149 $209 30.904638445696428 $124 $210 forward 7 unknown #
loop $-1 $-1 $131 $77 #
plane-surface $-1 -65.255897701956201 2.5611380450977705 1.0286928326965921 -0.86602541151947299 0 0.49999998660252726 0.49999998660252726 0 0.86602541151947299 forward_v I I I I #
loop $-1 $-1 $211 $50 #
coedge $-1 $129 $129 $130 $212 reversed $78 $-1 #
coedge $-1 $130 $130 $129 $212 forward $80 $-1 #
coedge $-1 $131 $131 $81 $132 forward $126 $-1 #
edge $-1 $213 0 $213 6.2831853071796004 $131 $214 forward 7 unknown #
loop $-1 $-1 $138 $82 #
plane-surface $-1 -65.255897701956201 2.5611380450977705 1.0286928326965921 -0.86602541151947299 0 0.49999998660252726 0.49999998660252726 0 0.86602541151947299 forward_v I I I I #
loop $-1 $-1 $215 $53 #
coedge $-1 $136 $136 $137 $216 reversed $83 $-1 #
coedge $-1 $137 $137 $136 $216 forward $85 $-1 #
coedge $-1 $138 $138 $86 $139 forward $133 $-1 #
edge $-1 $217 0 $217 6.2831853071796004 $138 $218 forward 7 unknown #
face $-1 $219 $220 $21 $-1 $221 reversed single #
loop $-1 $-1 $222 $87 #
plane-surface $-1 -65.255897701956229 0 0 1 0 0 0 0 -1 forward_v I I I I #
coedge $-1 $223 $151 $224 $225 forward $88 $-1 #
coedge $-1 $226 $90 $223 $227 forward $57 $-1 #
coedge $-1 $90 $226 $228 $229 forward $57 $-1 #
coedge $-1 $154 $153 $90 $147 reversed $155 $-1 #
edge $-1 $230 -28.115180999400835 $231 28.115180999400835 $146 $232 forward 7 unknown #
coedge $-1 $92 $91 $233 $234 forward $36 $-1 #
coedge $-1 $235 $236 $91 $150 reversed $220 $-1 #
edge $-1 $157 -65.255897701956229 $237 65.255897701956229 $149 $238 forward 7 unknown #
coedge $-1 $143 $239 $92 $152 reversed $88 $-1 #
edge $-1 $240 -65.255897701956229 $156 65.255897701956229 $151 $241 forward 7 unknown #
coedge $-1 $146 $93 $239 $242 forward $155 $-1 #
coedge $-1 $93 $146 $235 $243 reversed $155 $-1 #
loop $-1 $-1 $153 $219 #
vertex $-1 $94 $244 #
vertex $-1 $94 $245 #
straight-curve $-1 65.255897701956229 0 13.186514974001033 0 1 0 I I #
face $-1 $246 $247 $22 $-1 $248 forward single #
loop $-1 $-1 $168 $95 #
plane-surface $-1 0 -28.115180999400835 0 0 1 0 0 0 1 forward_v I I I I #
coedge $-1 $249 $250 $251 $252 forward $96 $-1 #
coedge $-1 $251 $98 $100 $170 reversed $61 $-1 #
coedge $-1 $98 $251 $253 $254 reversed $61 $-1 #
coedge $-1 $255 $101 $98 $166 forward $172 $-1 #
edge $-1 $174 1.9278341214393526 $256 8.1483986088542402 $165 $257 forward 7 unknown #
coedge $-1 $100 $99 $249 $258 reversed $39 $-1 #
coedge $-1 $259 $260 $99 $169 forward $160 $-1 #
edge $-1 $261 -65.255897701956229 $173 65.255897701956229 $168 $262 forward 7 unknown #
edge $-1 $263 -65.255897701956229 $174 65.255897701956229 $163 $264 forward 7 unknown #
coedge $-1 $101 $255 $259 $265 forward $172 $-1 #
loop $-1 $-1 $165 $246 #
vertex $-1 $169 $266 #
vertex $-1 $102 $267 #
straight-curve $-1 65.255897701956229 -11.166473149173338 6.9659504865861486 0 1 0 I I #
face $-1 $-1 $188 $23 $-1 $268 forward single #
loop $-1 $-1 $269 $103 #
plane-surface $-1 65.255897701956229 0 0 -1 0 0 0 0 1 forward_v I I I I #
coedge $-1 $270 $271 $181 $272 forward $104 $-1 #
coedge $-1 $273 $106 $108 $186 forward $65 $-1 #
coedge $-1 $106 $273 $179 $272 reversed $65 $-1 #
coedge $-1 $274 $109 $106 $183 forward $188 $-1 #
edge $-1 $190 0.69785906692130517 $275 10.801188042554578 $182 $276 forward 7 unknown #
coedge $-1 $277 $269 $107 $185 forward $177 $-1 #
edge $-1 $278 -86.479119895504127 $189 -82.633533765273015 $184 $279 forward 7 unknown #
edge $-1 $190 125.75838958170047 $278 130.51179540391246 $108 $280 forward 7 unknown #
coedge $-1 $109 $274 $277 $281 forward $188 $-1 #
loop $-1 $-1 $182 $176 #
vertex $-1 $185 $282 #
vertex $-1 $110 $283 #
straight-curve $-1 47.064626049818926 -6.447382621659246 13.186514974001028 -1 0 0 I I #
coedge $-1 $192 $192 $-1 $284 reversed $113 $-1 #
edge $-1 $285 0 $285 6.2831853071796004 $114 $286 forward 7 unknown #
vertex $-1 $117 $287 #
ellipse-curve $-1 63.858906808498695 -11.499047109475878 11.263721908885483 0.80901700255871778 0 0.5877852410284794 0.2938926205142397 0 -0.40450850127935889 1 I I #
face $-1 $-1 $288 $25 $-1 $289 reversed single #
loop $-1 $-1 $124 $118 #
plane-surface $-1 0 0 13.186514974001033 0 0 1 1 0 0 forward_v I I I I #
coedge $-1 $290 $291 $292 $293 reversed $119 $-1 #
coedge $-1 $294 $121 $123 $206 forward $74 $-1 #
coedge $-1 $121 $294 $290 $295 forward $74 $-1 #
coedge $-1 $292 $124 $121 $203 forward $197 $-1 #
edge $-1 $209 -2.140716624344007 $296 4.7018546694417775 $202 $297 forward 7 unknown #
coedge $-1 $298 $299 $122 $205 forward $288 $-1 #
edge $-1 $300 -32.113601560365758 $208 -19.955779419061265 $204 $301 forward 7 unknown #
edge $-1 $209 -14.038643646695192 $300 5.6900626353428066e-014 $123 $302 forward 7 unknown #
coedge $-1 $124 $292 $298 $303 forward $197 $-1 #
vertex $-1 $205 $304 #
vertex $-1 $125 $305 #
straight-curve $-1 -89.141214512387378 -0.86014760179512173 13.186514974001035 1 0 0 I I #
coedge $-1 $211 $211 $-1 $306 reversed $128 $-1 #
edge $-1 $307 0 $307 6.2831853071796004 $129 $308 forward 7 unknown #
vertex $-1 $132 $309 #
ellipse-curve $-1 -61.746236884323579 1.0948727678579573 7.107603903348803 -0.86602541151947299 0 0.49999998660252726 0.24999999330126363 0 0.43301270575973649 1 I I #
coedge $-1 $215 $215 $-1 $310 reversed $135 $-1 #
edge $-1 $311 0 $311 6.2831853071796004 $136 $312 forward 7 unknown #
vertex $-1 $139 $313 #
ellipse-curve $-1 -61.746236884323579 4.0274033223375767 7.107603903348803 -0.86602541151947299 0 0.49999998660252726 0.24999999330126363 0 0.43301270575973649 1 I I #
face $-1 $-1 $155 $21 $-1 $314 reversed single #
loop $-1 $-1 $235 $140 #
plane-surface $-1 0 28.115180999400835 0 0 -1 0 0 0 -1 forward_v I I I I #
coedge $-1 $315 $233 $236 $316 forward $141 $-1 #
coedge $-1 $239 $143 $144 $227 reversed $88 $-1 #
coedge $-1 $233 $315 $143 $225 reversed $141 $-1 #
edge $-1 $240 -13.186514974001033 $317 13.186514974001033 $224 $318 forward 7 unknown #
coedge $-1 $145 $144 $315 $319 forward $57 $-1 #
edge $-1 $231 -65.255897701956229 $317 65.255897701956229 $223 $320 forward 7 unknown #
coedge $-1 $236 $235 $145 $229 reversed $220 $-1 #
edge $-1 $321 -65.255897701956229 $230 65.255897701956229 $228 $322 forward 7 unknown #
vertex $-1 $147 $323 #
vertex $-1 $242 $324 #
straight-curve $-1 65.255897701956229 0 -13.186514974001033 0 -1 0 I I #
coedge $-1 $222 $224 $148 $234 reversed $141 $-1 #
edge $-1 $237 -28.115180999400835 $240 28.115180999400835 $233 $325 forward 7 unknown #
coedge $-1 $228 $149 $154 $243 forward $220 $-1 #
coedge $-1 $149 $228 $222 $316 reversed $220 $-1 #
vertex $-1 $150 $326 #
straight-curve $-1 0 28.115180999400835 13.186514974001033 -1 0 0 I I #
coedge $-1 $151 $223 $153 $242 reversed $88 $-1 #
vertex $-1 $234 $327 #
straight-curve $-1 0 -28.115180999400835 13.186514974001033 1 0 0 I I #
edge $-1 $156 -13.186514974001033 $231 13.186514974001033 $153 $328 forward 7 unknown #
edge $-1 $157 -13.186514974001033 $230 13.186514974001033 $154 $329 forward 7 unknown #
point $-1 65.255897701956229 -28.115180999400835 13.186514974001033 #
point $-1 65.255897701956229 28.115180999400835 13.186514974001033 #
face $-1 $-1 $172 $22 $-1 $330 reversed single #
loop $-1 $-1 $253 $159 #
plane-surface $-1 0 0 13.186514974001033 0 0 1 1 0 0 forward_v I I I I #
coedge $-1 $331 $162 $167 $258 forward $96 $-1 #
coedge $-1 $162 $331 $332 $333 reversed $96 $-1 #
coedge $-1 $164 $163 $162 $252 reversed $61 $-1 #
edge $-1 $334 -8.1483986088542402 $263 -1.9278341214393526 $162 $335 forward 7 unknown #
coedge $-1 $332 $336 $164 $254 forward $247 $-1 #
edge $-1 $256 -65.255897701956229 $334 65.255897701956229 $253 $337 forward 7 unknown #
coedge $-1 $171 $165 $336 $338 reversed $172 $-1 #
vertex $-1 $166 $339 #
straight-curve $-1 65.255897701956229 -16.550711597292519 5.0381163651467959 0 0 1 I I #
edge $-1 $263 5.3842384481191807 $261 16.948707850227496 $249 $340 forward 7 unknown #
coedge $-1 $341 $168 $171 $265 reversed $160 $-1 #
coedge $-1 $168 $341 $331 $342 forward $160 $-1 #
vertex $-1 $169 $343 #
straight-curve $-1 0 -28.115180999400835 6.9659504865861486 1 0 0 I I #
vertex $-1 $258 $344 #
straight-curve $-1 0 -16.550711597292519 6.9659504865861486 1 0 0 I I #
edge $-1 $345 -13.186514974001033 $173 -6.9659504865861486 $171 $346 forward 7 unknown #
point $-1 65.255897701956229 -28.115180999400835 6.9659504865861486 #
point $-1 65.255897701956229 -16.550711597292519 6.9659504865861486 #
plane-surface $-1 0 0 13.186514974001033 0 0 1 1 0 0 forward_v I I I I #
coedge $-1 $184 $347 $273 $348 forward $177 $-1 #
coedge $-1 $271 $179 $347 $349 reversed $104 $-1 #
coedge $-1 $179 $270 $274 $350 reversed $104 $-1 #
edge $-1 $275 79.978155332503874 $351 84.731561154715877 $179 $352 forward 7 unknown #
coedge $-1 $181 $180 $269 $348 reversed $65 $-1 #
coedge $-1 $187 $182 $271 $350 forward $188 $-1 #
vertex $-1 $350 $353 #
straight-curve $-1 62.461915915041175 -5.7495235547379409 13.186514974001028 0 -1 0 I I #
coedge $-1 $347 $184 $187 $281 reversed $177 $-1 #
vertex $-1 $185 $354 #
straight-curve $-1 65.255897701956229 -6.447382621659246 95.820048739274043 0 0 1 I I #
straight-curve $-1 -11.457009416592044 -6.447382621659246 114.92719035999981 0.5877852410284794 0 -0.80901700255871778 I I #
edge $-1 $355 -16.550711597292519 $189 -6.447382621659246 $277 $356 forward 7 unknown #
point $-1 65.255897701956229 -6.447382621659246 13.186514974001033 #
point $-1 62.461915915041175 -6.447382621659246 13.186514974001028 #
edge $-1 $357 1 $357 0 $192 $-1 forward 7 unknown #
vertex $-1 $193 $358 #
ellipse-curve $-1 63.049889805939962 -11.499047109475878 10.675936667856995 0.80901700255871778 0 0.5877852410284794 0.2938926205142397 0 -0.40450850127935889 1 I I #
point $-1 64.15279942901293 -11.499047109475878 10.859213407606116 #
loop $-1 $-1 $204 $196 #
plane-surface $-1 -65.255897701956229 0 0 1 0 0 0 0 -1 forward_v I I I I #
coedge $-1 $291 $199 $201 $295 reversed $119 $-1 #
coedge $-1 $199 $290 $359 $360 reversed $119 $-1 #
coedge $-1 $207 $202 $199 $293 forward $197 $-1 #
edge $-1 $296 -30.904638445696428 $361 -23.885316810431149 $292 $362 forward 7 unknown #
coedge $-1 $201 $200 $299 $363 reversed $74 $-1 #
edge $-1 $364 -5.6900626353428066e-014 $296 14.038643646695192 $290 $365 forward 7 unknown #
vertex $-1 $203 $366 #
straight-curve $-1 -58.236576066690951 1.2805690225488853 13.186514974001033 0 1 0 I I #
coedge $-1 $359 $204 $207 $303 reversed $288 $-1 #
coedge $-1 $204 $359 $294 $363 forward $288 $-1 #
vertex $-1 $205 $367 #
straight-curve $-1 -65.255897701956229 -0.86014760179512173 33.142294393062301 0 0 1 I I #
straight-curve $-1 -65.255897701956201 -0.86014760179512173 1.0286928326965921 -0.49999998660252726 0 -0.86602541151947299 I I #
edge $-1 $361 -5.9824236919906628 $208 0.86014760179512173 $298 $368 forward 7 unknown #
point $-1 -65.255897701956229 -0.86014760179512173 13.186514974001033 #
point $-1 -58.236576066690951 -0.86014760179512173 13.186514974001033 #
edge $-1 $369 1 $369 0 $211 $-1 forward 7 unknown #
vertex $-1 $212 $370 #
ellipse-curve $-1 -60.776236621004529 1.0948727678579573 6.5475740102155031 -0.86602541151947299 0 0.49999998660252726 0.24999999330126363 0 0.43301270575973649 1 I I #
point $-1 -61.496236891022342 1.0948727678579573 7.5406166091085556 #
edge $-1 $371 1 $371 0 $215 $-1 forward 7 unknown #
vertex $-1 $216 $372 #
ellipse-curve $-1 -60.776236621004529 4.0274033223375767 6.5475740102155031 -0.86602541151947299 0 0.49999998660252726 0.24999999330126363 0 0.43301270575973649 1 I I #
point $-1 -61.496236891022342 4.0274033223375767 7.5406166091085556 #
plane-surface $-1 65.255897701956229 0 0 -1 0 0 0 0 1 forward_v I I I I #
coedge $-1 $224 $222 $226 $319 reversed $141 $-1 #
edge $-1 $237 -13.186514974001033 $321 13.186514974001033 $236 $373 forward 7 unknown #
vertex $-1 $319 $374 #
straight-curve $-1 -65.255897701956229 -28.115180999400835 0 0 0 -1 I I #
edge $-1 $317 -28.115180999400835 $321 28.115180999400835 $315 $375 forward 7 unknown #
straight-curve $-1 0 -28.115180999400835 -13.186514974001033 -1 0 0 I I #
vertex $-1 $229 $376 #
straight-curve $-1 0 28.115180999400835 -13.186514974001033 1 0 0 I I #
point $-1 65.255897701956229 28.115180999400835 -13.186514974001033 #
point $-1 65.255897701956229 -28.115180999400835 -13.186514974001033 #
straight-curve $-1 -65.255897701956229 0 13.186514974001033 0 -1 0 I I #
point $-1 -65.255897701956229 28.115180999400835 13.186514974001033 #
point $-1 -65.255897701956229 -28.115180999400835 13.186514974001033 #
straight-curve $-1 65.255897701956229 -28.115180999400835 0 0 0 -1 I I #
straight-curve $-1 65.255897701956229 28.115180999400835 0 0 0 -1 I I #
plane-surface $-1 65.255897701956229 0 0 -1 0 0 0 0 1 forward_v I I I I #
coedge $-1 $250 $249 $260 $342 reversed $96 $-1 #
coedge $-1 $377 $253 $250 $333 forward $247 $-1 #
edge $-1 $334 16.550711597292519 $378 28.115180999400835 $250 $379 forward 7 unknown #
vertex $-1 $333 $380 #
straight-curve $-1 -65.255897701956229 -16.550711597292519 5.0381163651467959 0 0 -1 I I #
coedge $-1 $253 $377 $255 $338 forward $247 $-1 #
straight-curve $-1 0 -16.550711597292519 13.186514974001033 -1 0 0 I I #
edge $-1 $345 -28.115180999400835 $256 -16.550711597292519 $255 $381 forward 7 unknown #
point $-1 65.255897701956229 -16.550711597292519 13.186514974001035 #
straight-curve $-1 -65.255897701956229 -11.166473149173338 6.9659504865861486 0 -1 0 I I #
coedge $-1 $260 $259 $377 $382 reversed $160 $-1 #
edge $-1 $378 -13.186514974001033 $261 -6.9659504865861486 $331 $383 forward 7 unknown #
point $-1 -65.255897701956229 -28.115180999400835 6.9659504865861486 #
point $-1 -65.255897701956229 -16.550711597292519 6.9659504865861486 #
vertex $-1 $338 $384 #
straight-curve $-1 65.255897701956229 -28.115180999400835 0 0 0 -1 I I #
coedge $-1 $269 $277 $270 $349 forward $177 $-1 #
edge $-1 $351 -10.801188042554578 $278 -0.69785906692130517 $269 $385 forward 7 unknown #
edge $-1 $355 -8.1483986088542402 $351 -4.3028124786231219 $347 $386 forward 7 unknown #
edge $-1 $275 62.46191591504116 $355 65.255897701956229 $274 $387 forward 7 unknown #
vertex $-1 $272 $388 #
straight-curve $-1 15.451936605912213 -16.550711597292519 77.89020247127884 0.5877852410284794 0 -0.80901700255871778 I I #
point $-1 62.46191591504116 -16.550711597292519 13.186514974001033 #
point $-1 65.255897701956229 -6.447382621659246 9.3409288437699161 #
vertex $-1 $281 $389 #
straight-curve $-1 65.255897701956229 0 13.186514974001033 0 1 0 I I #
vertex $-1 $284 $390 #
point $-1 63.343782426454204 -11.499047109475878 10.271428166577635 #
coedge $-1 $299 $298 $291 $360 forward $288 $-1 #
edge $-1 $361 19.955779419061265 $364 32.113601560365758 $359 $391 forward 7 unknown #
vertex $-1 $303 $392 #
straight-curve $-1 -89.141214512387378 5.9824236919906628 13.186514974001035 -1 0 0 I I #
edge $-1 $364 -4.7018546694417775 $300 2.140716624344007 $299 $393 forward 7 unknown #
vertex $-1 $363 $394 #
straight-curve $-1 -65.255897701956201 5.9824236919906628 1.0286928326965921 0.49999998660252726 0 0.86602541151947299 I I #
point $-1 -58.236576066690951 5.9824236919906628 13.186514974001033 #
point $-1 -65.255897701956229 -0.86014760179512173 1.0286928326965428 #
straight-curve $-1 -65.255897701956229 0 13.186514974001033 0 -1 0 I I #
vertex $-1 $306 $395 #
point $-1 -60.526236627703263 1.0948727678579573 6.9805867159752388 #
vertex $-1 $310 $396 #
point $-1 -60.526236627703263 4.0274033223375767 6.9805867159752388 #
straight-curve $-1 -65.255897701956229 28.115180999400835 0 0 0 -1 I I #
point $-1 -65.255897701956229 -28.115180999400835 -13.186514974001033 #
straight-curve $-1 -65.255897701956229 0 -13.186514974001033 0 1 0 I I #
point $-1 -65.255897701956229 28.115180999400835 -13.186514974001033 #
coedge $-1 $336 $332 $341 $382 forward $247 $-1 #
vertex $-1 $333 $397 #
straight-curve $-1 -65.255897701956229 0 13.186514974001033 0 -1 0 I I #
point $-1 -65.255897701956229 -16.550711597292519 13.186514974001035 #
straight-curve $-1 65.255897701956229 0 13.186514974001033 0 1 0 I I #
edge $-1 $378 -65.255897701956229 $345 65.255897701956229 $341 $398 forward 7 unknown #
straight-curve $-1 -65.255897701956229 -28.115180999400835 0 0 0 -1 I I #
point $-1 65.255897701956229 -28.115180999400835 13.186514974001033 #
straight-curve $-1 65.255897701956229 -5.7495235547379409 9.340928843769909 0 1 0 I I #
straight-curve $-1 65.255897701956229 -16.550711597292519 5.0381163651467959 0 0 -1 I I #
straight-curve $-1 0 -16.550711597292519 13.186514974001033 1 0 0 I I #
point $-1 65.255897701956229 -16.550711597292519 9.3409288437699178 #
point $-1 65.255897701956229 -16.550711597292519 13.186514974001035 #
point $-1 62.64538130466061 -11.499047109475878 10.382044047342756 #
straight-curve $-1 -65.255897701956229 5.9824236919906628 33.142294393062301 0 0 -1 I I #
point $-1 -65.255897701956229 5.9824236919906628 13.186514974001033 #
straight-curve $-1 -65.255897701956229 1.2805690225488853 1.0286928326965514 0 -1 0 I I #
point $-1 -65.255897701956229 5.9824236919906628 1.0286928326965428 #
point $-1 -60.343223915244792 1.0948727678579573 6.2975740169142389 #
point $-1 -60.343223915244792 4.0274033223375767 6.2975740169142389 #
point $-1 -65.255897701956229 -28.115180999400835 13.186514974001033 #
straight-curve $-1 0 -28.115180999400835 13.186514974001033 1 0 0 I I #
End-of-ACIS-data 