500 0 11 0           
7 Unknown 11 ACIS 5.0 NT 24 Fri Mar 26 15:04:06 1999 
-1 9.9999999999999995e-007 1e-010 
body $-1 $11 $-1 $12 #
body $-1 $13 $-1 $14 #
body $-1 $15 $-1 $16 #
body $-1 $17 $-1 $18 #
body $-1 $19 $-1 $20 #
body $-1 $21 $-1 $22 #
body $-1 $23 $-1 $24 #
body $-1 $25 $-1 $26 #
body $-1 $27 $-1 $28 #
body $-1 $29 $-1 $30 #
body $-1 $31 $-1 $32 #
lump $-1 $-1 $33 $0 #
transform $-1 1 0 0 0 1 0 0 0 1 58.055970946378977 37.667370217952154 9.3233264997002827 1 rotate no_reflect no_shear #
lump $-1 $-1 $34 $1 #
transform $-1 1 0 0 0 1 0 0 0 1 58.055970946378977 37.667370217952154 9.3233264997002827 1 rotate no_reflect no_shear #
lump $-1 $-1 $35 $2 #
transform $-1 1 0 0 0 1 0 0 0 1 58.055970946378977 37.667370217952154 9.3233264997002827 1 rotate no_reflect no_shear #
lump $-1 $-1 $36 $3 #
transform $-1 1 0 0 0 1 0 0 0 1 58.055970946378977 37.667370217952154 9.3233264997002827 1 rotate no_reflect no_shear #
lump $-1 $-1 $37 $4 #
transform $-1 1 0 0 0 1 0 0 0 1 58.055970946378977 37.667370217952154 9.3233264997002827 1 rotate no_reflect no_shear #
lump $-1 $-1 $38 $5 #
transform $-1 1 0 0 0 1 0 0 0 1 58.055970946378977 37.667370217952154 9.3233264997002827 1 rotate no_reflect no_shear #
lump $-1 $-1 $39 $6 #
transform $-1 1 0 0 0 1 0 0 0 1 58.055970946378977 37.667370217952154 9.3233264997002827 1 rotate no_reflect no_shear #
lump $-1 $-1 $40 $7 #
transform $-1 1 0 0 0 1 0 0 0 1 58.055970946378977 37.667370217952154 9.3233264997002827 1 rotate no_reflect no_shear #
lump $-1 $-1 $41 $8 #
transform $-1 1 0 0 0 1 0 0 0 1 58.055970946378977 37.667370217952154 9.3233264997002827 1 rotate no_reflect no_shear #
lump $-1 $-1 $42 $9 #
transform $-1 1 0 0 0 1 0 0 0 1 58.055970946378977 37.667370217952154 9.3233264997002827 1 rotate no_reflect no_shear #
lump $-1 $-1 $43 $10 #
transform $-1 1 0 0 0 1 0 0 0 1 58.055970946378977 37.667370217952154 9.3233264997002827 1 rotate no_reflect no_shear #
shell $-1 $-1 $-1 $44 $-1 $11 #
shell $-1 $-1 $-1 $45 $-1 $13 #
shell $-1 $-1 $-1 $46 $-1 $15 #
shell $-1 $-1 $-1 $47 $-1 $17 #
shell $-1 $-1 $-1 $48 $-1 $19 #
shell $-1 $-1 $-1 $49 $-1 $21 #
shell $-1 $-1 $-1 $50 $-1 $23 #
shell $-1 $-1 $-1 $51 $-1 $25 #
shell $-1 $-1 $-1 $52 $-1 $27 #
shell $-1 $-1 $-1 $53 $-1 $29 #
shell $-1 $-1 $-1 $54 $-1 $31 #
face $-1 $55 $56 $33 $-1 $57 forward single #
face $-1 $58 $59 $34 $-1 $60 forward single #
face $-1 $61 $62 $35 $-1 $63 reversed single #
face $-1 $64 $65 $36 $-1 $66 forward single #
face $-1 $67 $68 $37 $-1 $69 forward single #
face $-1 $70 $71 $38 $-1 $72 reversed single #
face $-1 $73 $74 $39 $-1 $75 forward single #
face $-1 $76 $77 $40 $-1 $78 forward single #
face $-1 $79 $80 $41 $-1 $81 reversed single #
face $-1 $82 $83 $42 $-1 $84 forward single #
face $-1 $85 $86 $43 $-1 $87 forward single #
face $-1 $88 $89 $33 $-1 $90 reversed single #
loop $-1 $-1 $91 $44 #
plane-surface $-1 0 0 9.3233264997002827 0 0 1 1 0 0 forward_v I I I I #
face $-1 $92 $93 $34 $-1 $94 reversed single #
loop $-1 $-1 $95 $45 #
plane-surface $-1 0 -34.462691912538958 -0.27829540312459855 0 0 1 1 0 0 forward_v I I I I #
face $-1 $96 $97 $35 $-1 $98 reversed single #
loop $-1 $-1 $99 $46 #
plane-surface $-1 58.055972851600146 -20.715235622046386 170.34611501070094 0 1 0 0.70710678939079041 0 0.70710677298230451 forward_v I I I I #
face $-1 $100 $101 $36 $-1 $102 forward single #
loop $-1 $103 $104 $47 #
cone-surface $-1 55.914114956637817 -16.173418566520169 7.1814704857692409 -0.70710678939079041 0 -0.70710677298230451 0.35355338649115226 0 -0.35355339469539521 1 I I 0 1 0.5 forward I I I I #
face $-1 $105 $106 $37 $-1 $107 forward single #
loop $-1 $108 $109 $48 #
cone-surface $-1 55.914114956637817 -9.3606929832308481 7.1814704857692409 -0.70710678939079041 0 -0.70710677298230451 0.35355338649115226 0 -0.35355339469539521 1 I I 0 1 0.5 forward I I I I #
face $-1 $110 $111 $38 $-1 $112 reversed single #
loop $-1 $-1 $113 $49 #
plane-surface $-1 58.055972851600146 13.747456290492572 170.34611501070094 0 1 0 0.70710678939079041 0 0.70710677298230451 forward_v I I I I #
face $-1 $114 $115 $39 $-1 $116 forward single #
loop $-1 $117 $118 $50 #
cone-surface $-1 55.914114956637817 18.289273346018788 7.1814704857692409 -0.70710678939079041 0 -0.70710677298230451 0.35355338649115226 0 -0.35355339469539521 1 I I 0 1 0.5 forward I I I I #
face $-1 $119 $120 $40 $-1 $121 forward single #
loop $-1 $122 $123 $51 #
cone-surface $-1 55.914114956637817 25.10199892930811 7.1814704857692409 -0.70710678939079041 0 -0.70710677298230451 0.35355338649115226 0 -0.35355339469539521 1 I I 0 1 0.5 forward I I I I #
face $-1 $124 $125 $41 $-1 $126 reversed single #
loop $-1 $-1 $127 $52 #
plane-surface $-1 -116.11194267056123 -25.495121913494863 101.37103209554277 0 1 0 -0.50000000669873634 0 0.8660253999169214 forward_v I I I I #
face $-1 $128 $129 $42 $-1 $130 forward single #
loop $-1 $131 $132 $53 #
cone-surface $-1 -49.582438617924481 -20.309273264275049 3.1549231104228013 0.50000000669873634 0 -0.8660253999169214 1.7320507998338428 0 1.0000000133974727 1 I I 0 1 2 forward I I I I #
face $-1 $133 $134 $43 $-1 $135 forward single #
loop $-1 $136 $137 $54 #
cone-surface $-1 -49.582438617924481 -12.530500290445328 3.1549231104228013 0.50000000669873634 0 -0.8660253999169214 1.7320507998338428 0 1.0000000133974727 1 I I 0 1 2 forward I I I I #
face $-1 $138 $139 $33 $-1 $140 reversed single #
loop $-1 $-1 $141 $55 #
plane-surface $-1 0 0 -9.3233264997002827 0 0 1 1 0 0 forward_v I I I I #
coedge $-1 $142 $143 $144 $145 forward $56 $-1 #
face $-1 $146 $147 $34 $-1 $148 reversed single #
loop $-1 $-1 $149 $58 #
plane-surface $-1 0 -34.462691912538958 -3.9901556136775955 0 0 1 1 0 0 forward_v I I I I #
coedge $-1 $150 $151 $152 $153 reversed $59 $-1 #
face $-1 $154 $155 $35 $-1 $156 reversed single #
loop $-1 $-1 $157 $61 #
plane-surface $-1 -24.047569590117945 -12.767055774875509 88.242574474204005 0.70710678939079041 0 0.70710677298230451 0.70710677298230451 0 -0.70710678939079041 forward_v I I I I #
coedge $-1 $158 $159 $160 $161 reversed $62 $-1 #
face $-1 $-1 $162 $36 $-1 $163 forward single #
loop $-1 $164 $165 $64 #
cone-surface $-1 55.187629466210225 -16.173418566520169 6.4549850121998169 -0.70710678939079041 0 -0.70710677298230451 0.17677669324557613 0 -0.1767766973476976 1 I I -0.70710678118654746 0.70710678118654746 0.25 forward I I I I #
loop $-1 $-1 $166 $47 #
coedge $-1 $104 $104 $167 $168 reversed $65 $-1 #
face $-1 $-1 $169 $37 $-1 $170 forward single #
loop $-1 $171 $172 $67 #
cone-surface $-1 55.187629466210225 -9.3606929832308481 6.4549850121998169 -0.70710678939079041 0 -0.70710677298230451 0.17677669324557613 0 -0.1767766973476976 1 I I -0.70710678118654746 0.70710678118654746 0.25 forward I I I I #
loop $-1 $-1 $173 $48 #
coedge $-1 $109 $109 $174 $175 reversed $68 $-1 #
face $-1 $176 $177 $38 $-1 $178 reversed single #
loop $-1 $-1 $179 $70 #
plane-surface $-1 -24.047569590117945 21.695636137663449 88.242574474204005 0.70710678939079041 0 0.70710677298230451 0.70710677298230451 0 -0.70710678939079041 forward_v I I I I #
coedge $-1 $180 $181 $182 $183 reversed $71 $-1 #
face $-1 $-1 $184 $39 $-1 $185 forward single #
loop $-1 $186 $187 $73 #
cone-surface $-1 55.187629466210225 18.289273346018788 6.4549850121998169 -0.70710678939079041 0 -0.70710677298230451 0.17677669324557613 0 -0.1767766973476976 1 I I -0.70710678118654746 0.70710678118654746 0.25 forward I I I I #
loop $-1 $-1 $188 $50 #
coedge $-1 $118 $118 $189 $190 reversed $74 $-1 #
face $-1 $-1 $191 $40 $-1 $192 forward single #
loop $-1 $193 $194 $76 #
cone-surface $-1 55.187629466210225 25.10199892930811 6.4549850121998169 -0.70710678939079041 0 -0.70710677298230451 0.17677669324557613 0 -0.1767766973476976 1 I I -0.70710678118654746 0.70710678118654746 0.25 forward I I I I #
loop $-1 $-1 $195 $51 #
coedge $-1 $123 $123 $196 $197 reversed $77 $-1 #
face $-1 $198 $199 $41 $-1 $200 reversed single #
loop $-1 $-1 $201 $79 #
plane-surface $-1 -58.05597094637897 -16.41988677736019 0.81514118273672409 -0.50000000669873634 0 0.8660253999169214 0.8660253999169214 0 0.50000000669873634 forward_v I I I I #
coedge $-1 $202 $203 $204 $205 reversed $80 $-1 #
face $-1 $-1 $206 $42 $-1 $207 forward single #
loop $-1 $208 $209 $82 #
cone-surface $-1 -47.977210775745249 -20.309273264275049 0.37458697971018218 0.50000000669873634 0 -0.8660253999169214 0.8660253999169214 0 0.50000000669873634 1 I I -0.70710678118654746 0.70710678118654746 1 forward I I I I #
loop $-1 $-1 $210 $53 #
coedge $-1 $132 $132 $211 $212 reversed $83 $-1 #
face $-1 $-1 $213 $43 $-1 $214 forward single #
loop $-1 $215 $216 $85 #
cone-surface $-1 -47.977210775745249 -12.530500290445328 0.37458697971018218 0.50000000669873634 0 -0.8660253999169214 0.8660253999169214 0 0.50000000669873634 1 I I -0.70710678118654746 0.70710678118654746 1 forward I I I I #
loop $-1 $-1 $217 $54 #
coedge $-1 $137 $137 $218 $219 reversed $86 $-1 #
face $-1 $220 $221 $33 $-1 $222 reversed single #
loop $-1 $-1 $223 $88 #
plane-surface $-1 0 -37.667370217952154 0 0 1 0 0 0 1 forward_v I I I I #
coedge $-1 $224 $225 $226 $227 forward $89 $-1 #
coedge $-1 $228 $91 $229 $230 forward $56 $-1 #
coedge $-1 $91 $228 $231 $232 forward $56 $-1 #
coedge $-1 $233 $234 $91 $145 reversed $235 $-1 #
edge $-1 $236 -37.667370217952154 $237 37.667370217952154 $144 $238 forward 7 unknown #
face $-1 $239 $240 $34 $-1 $241 reversed single #
loop $-1 $-1 $242 $92 #
plane-surface $-1 0 -31.258013607125758 -2.134225508401097 0 -1 0 0 0 -1 forward_v I I I I #
coedge $-1 $243 $244 $245 $246 reversed $93 $-1 #
coedge $-1 $247 $95 $248 $249 forward $59 $-1 #
coedge $-1 $95 $247 $250 $251 reversed $59 $-1 #
coedge $-1 $252 $253 $95 $153 forward $254 $-1 #
edge $-1 $255 14.026667650856279 $256 20.436024261682675 $152 $257 forward 7 unknown #
face $-1 $258 $259 $35 $-1 $260 forward single #
loop $-1 $-1 $261 $96 #
plane-surface $-1 58.055972851600146 -4.8188759277046316 170.34611501070094 0 -1 0 -0.70710678939079041 0 -0.70710677298230451 forward_v I I I I #
coedge $-1 $262 $263 $264 $265 reversed $97 $-1 #
coedge $-1 $159 $99 $266 $267 reversed $62 $-1 #
coedge $-1 $99 $158 $262 $268 reversed $62 $-1 #
coedge $-1 $264 $269 $99 $161 forward $270 $-1 #
edge $-1 $271 75.849731005650185 $272 79.034025472864556 $160 $273 forward 7 unknown #
loop $-1 $-1 $167 $100 #
plane-surface $-1 -24.047569590117945 -12.767055774875509 88.242574474204005 0.70710678939079041 0 0.70710677298230451 0.70710677298230451 0 -0.70710678939079041 forward_v I I I I #
loop $-1 $-1 $274 $64 #
coedge $-1 $165 $165 $166 $275 reversed $101 $-1 #
coedge $-1 $166 $166 $165 $275 forward $103 $-1 #
coedge $-1 $167 $167 $104 $168 forward $162 $-1 #
edge $-1 $276 0 $276 6.2831853071796004 $167 $277 forward 7 unknown #
loop $-1 $-1 $174 $105 #
plane-surface $-1 -24.047569590117945 -12.767055774875509 88.242574474204005 0.70710678939079041 0 0.70710677298230451 0.70710677298230451 0 -0.70710678939079041 forward_v I I I I #
loop $-1 $-1 $278 $67 #
coedge $-1 $172 $172 $173 $279 reversed $106 $-1 #
coedge $-1 $173 $173 $172 $279 forward $108 $-1 #
coedge $-1 $174 $174 $109 $175 forward $169 $-1 #
edge $-1 $280 0 $280 6.2831853071796004 $174 $281 forward 7 unknown #
face $-1 $282 $283 $38 $-1 $284 reversed single #
loop $-1 $-1 $285 $110 #
plane-surface $-1 58.055972851600146 29.643815984834326 170.34611501070094 0 -1 0 -0.70710678939079041 0 -0.70710677298230451 forward_v I I I I #
coedge $-1 $286 $287 $288 $289 reversed $111 $-1 #
coedge $-1 $181 $113 $290 $291 reversed $71 $-1 #
coedge $-1 $113 $180 $286 $292 reversed $71 $-1 #
coedge $-1 $288 $293 $113 $183 forward $283 $-1 #
edge $-1 $294 75.849731005650185 $295 79.034025472864556 $182 $296 forward 7 unknown #
loop $-1 $-1 $189 $114 #
plane-surface $-1 -24.047569590117945 21.695636137663449 88.242574474204005 0.70710678939079041 0 0.70710677298230451 0.70710677298230451 0 -0.70710678939079041 forward_v I I I I #
loop $-1 $-1 $297 $73 #
coedge $-1 $187 $187 $188 $298 reversed $115 $-1 #
coedge $-1 $188 $188 $187 $298 forward $117 $-1 #
coedge $-1 $189 $189 $118 $190 forward $184 $-1 #
edge $-1 $299 0 $299 6.2831853071796004 $189 $300 forward 7 unknown #
loop $-1 $-1 $196 $119 #
plane-surface $-1 -24.047569590117945 21.695636137663449 88.242574474204005 0.70710678939079041 0 0.70710677298230451 0.70710677298230451 0 -0.70710678939079041 forward_v I I I I #
loop $-1 $-1 $301 $76 #
coedge $-1 $194 $194 $195 $302 reversed $120 $-1 #
coedge $-1 $195 $195 $194 $302 forward $122 $-1 #
coedge $-1 $196 $196 $123 $197 forward $191 $-1 #
edge $-1 $303 0 $303 6.2831853071796004 $196 $304 forward 7 unknown #
face $-1 $305 $306 $41 $-1 $307 reversed single #
loop $-1 $-1 $308 $124 #
plane-surface $-1 -116.11194267056123 -7.3446516412255161 101.37103209554277 0 -1 0 0.50000000669873634 0 -0.8660253999169214 forward_v I I I I #
coedge $-1 $309 $310 $311 $312 reversed $125 $-1 #
coedge $-1 $203 $127 $313 $314 reversed $80 $-1 #
coedge $-1 $127 $202 $309 $315 reversed $80 $-1 #
coedge $-1 $311 $316 $127 $205 forward $317 $-1 #
edge $-1 $318 3.8890163978066994e-007 $319 14.736609374849621 $204 $320 forward 7 unknown #
loop $-1 $-1 $211 $128 #
plane-surface $-1 -58.05597094637897 -16.41988677736019 0.81514118273672409 -0.50000000669873634 0 0.8660253999169214 0.8660253999169214 0 0.50000000669873634 forward_v I I I I #
loop $-1 $-1 $321 $82 #
coedge $-1 $209 $209 $210 $322 reversed $129 $-1 #
coedge $-1 $210 $210 $209 $322 forward $131 $-1 #
coedge $-1 $211 $211 $132 $212 forward $206 $-1 #
edge $-1 $323 0 $323 6.2831853071796004 $211 $324 forward 7 unknown #
loop $-1 $-1 $218 $133 #
plane-surface $-1 -58.05597094637897 -16.41988677736019 0.81514118273672409 -0.50000000669873634 0 0.8660253999169214 0.8660253999169214 0 0.50000000669873634 forward_v I I I I #
loop $-1 $-1 $325 $85 #
coedge $-1 $216 $216 $217 $326 reversed $134 $-1 #
coedge $-1 $217 $217 $216 $326 forward $136 $-1 #
coedge $-1 $218 $218 $137 $219 forward $213 $-1 #
edge $-1 $327 0 $327 6.2831853071796004 $218 $328 forward 7 unknown #
face $-1 $329 $330 $33 $-1 $331 reversed single #
loop $-1 $-1 $332 $138 #
plane-surface $-1 -58.055970946378977 0 0 1 0 0 0 0 -1 forward_v I I I I #
coedge $-1 $333 $231 $334 $335 forward $139 $-1 #
coedge $-1 $336 $141 $333 $337 forward $89 $-1 #
coedge $-1 $141 $336 $338 $339 forward $89 $-1 #
coedge $-1 $234 $233 $141 $227 reversed $235 $-1 #
edge $-1 $340 -37.667370217952154 $341 37.667370217952154 $226 $342 forward 7 unknown #
coedge $-1 $143 $142 $343 $344 forward $56 $-1 #
coedge $-1 $345 $346 $142 $230 reversed $330 $-1 #
edge $-1 $237 -58.055970946378977 $347 58.055970946378977 $229 $348 forward 7 unknown #
coedge $-1 $223 $349 $143 $232 reversed $139 $-1 #
edge $-1 $350 -58.055970946378977 $236 58.055970946378977 $231 $351 forward 7 unknown #
coedge $-1 $226 $144 $349 $352 forward $235 $-1 #
coedge $-1 $144 $226 $345 $353 reversed $235 $-1 #
loop $-1 $-1 $233 $329 #
vertex $-1 $145 $354 #
vertex $-1 $145 $355 #
straight-curve $-1 58.055970946378977 0 9.3233264997002827 0 1 0 I I #
face $-1 $356 $357 $34 $-1 $358 reversed single #
loop $-1 $-1 $359 $146 #
plane-surface $-1 -58.055970946378977 0 0 1 0 0 0 0 -1 forward_v I I I I #
coedge $-1 $360 $248 $253 $361 reversed $147 $-1 #
coedge $-1 $362 $149 $363 $364 reversed $93 $-1 #
coedge $-1 $149 $362 $360 $365 forward $93 $-1 #
coedge $-1 $253 $252 $149 $246 forward $254 $-1 #
edge $-1 $366 -20.436024261682675 $367 -14.026667650856279 $245 $368 forward 7 unknown #
coedge $-1 $151 $150 $359 $369 reversed $59 $-1 #
coedge $-1 $242 $370 $150 $249 reversed $147 $-1 #
edge $-1 $255 -58.055970946378977 $371 58.055970946378977 $248 $372 forward 7 unknown #
coedge $-1 $373 $374 $151 $251 forward $357 $-1 #
edge $-1 $256 -58.055970946378977 $375 58.055970946378977 $250 $376 forward 7 unknown #
coedge $-1 $245 $152 $374 $377 forward $254 $-1 #
coedge $-1 $152 $245 $242 $361 forward $254 $-1 #
loop $-1 $-1 $152 $356 #
vertex $-1 $153 $378 #
vertex $-1 $377 $379 #
straight-curve $-1 58.055970946378977 -17.231345956269479 -0.27829540312459855 0 -1 0 I I #
face $-1 $-1 $270 $35 $-1 $380 reversed single #
loop $-1 $-1 $381 $154 #
plane-surface $-1 0 0 9.3233264997002827 0 0 1 1 0 0 forward_v I I I I #
coedge $-1 $382 $383 $384 $385 reversed $155 $-1 #
coedge $-1 $386 $157 $159 $268 forward $97 $-1 #
coedge $-1 $157 $386 $382 $387 forward $97 $-1 #
coedge $-1 $384 $160 $157 $265 forward $270 $-1 #
edge $-1 $272 -14.331707734608631 $388 1.5646519597331228 $264 $389 forward 7 unknown #
coedge $-1 $390 $391 $158 $267 forward $259 $-1 #
edge $-1 $392 25.843690127256416 $271 29.027984520578904 $266 $393 forward 7 unknown #
edge $-1 $272 -116.11194189275797 $392 -111.60866952288326 $159 $394 forward 7 unknown #
coedge $-1 $160 $384 $390 $395 reversed $270 $-1 #
loop $-1 $-1 $384 $258 #
vertex $-1 $395 $396 #
vertex $-1 $161 $397 #
straight-curve $-1 58.055970946378977 -20.715235622046386 85.173057505350471 0 0 -1 I I #
coedge $-1 $274 $274 $-1 $398 reversed $164 $-1 #
edge $-1 $399 0 $399 6.2831853071796004 $165 $400 forward 7 unknown #
vertex $-1 $168 $401 #
ellipse-curve $-1 56.463823749717733 -16.173418566520169 7.7311792660931076 0.70710678939079041 0 0.70710677298230451 0.35355338649115226 0 -0.35355339469539521 1 I I #
coedge $-1 $278 $278 $-1 $402 reversed $171 $-1 #
edge $-1 $403 0 $403 6.2831853071796004 $172 $404 forward 7 unknown #
vertex $-1 $175 $405 #
ellipse-curve $-1 56.463823749717733 -9.3606929832308481 7.7311792660931076 0.70710678939079041 0 0.70710677298230451 0.35355338649115226 0 -0.35355339469539521 1 I I #
face $-1 $-1 $406 $38 $-1 $407 forward single #
loop $-1 $-1 $182 $176 #
plane-surface $-1 58.055970946378977 0 0 -1 0 0 0 0 1 forward_v I I I I #
coedge $-1 $408 $409 $410 $411 reversed $177 $-1 #
coedge $-1 $412 $179 $181 $292 forward $111 $-1 #
coedge $-1 $179 $412 $408 $413 forward $111 $-1 #
coedge $-1 $410 $182 $179 $289 forward $283 $-1 #
edge $-1 $295 2.8996382216608474 $414 18.795997916002602 $288 $415 forward 7 unknown #
coedge $-1 $416 $417 $180 $291 forward $406 $-1 #
edge $-1 $418 25.843690127256416 $294 29.027984520578904 $290 $419 forward 7 unknown #
edge $-1 $295 -116.11194189275797 $418 -111.60866952288326 $181 $420 forward 7 unknown #
coedge $-1 $182 $410 $416 $421 reversed $283 $-1 #
vertex $-1 $421 $422 #
vertex $-1 $183 $423 #
straight-curve $-1 58.055970946378977 13.747456290492572 85.173057505350471 0 0 -1 I I #
coedge $-1 $297 $297 $-1 $424 reversed $186 $-1 #
edge $-1 $425 0 $425 6.2831853071796004 $187 $426 forward 7 unknown #
vertex $-1 $190 $427 #
ellipse-curve $-1 56.463823749717733 18.289273346018788 7.7311792660931076 0.70710678939079041 0 0.70710677298230451 0.35355338649115226 0 -0.35355339469539521 1 I I #
coedge $-1 $301 $301 $-1 $428 reversed $193 $-1 #
edge $-1 $429 0 $429 6.2831853071796004 $194 $430 forward 7 unknown #
vertex $-1 $197 $431 #
ellipse-curve $-1 56.463823749717733 25.10199892930811 7.7311792660931076 0.70710678939079041 0 0.70710677298230451 0.35355338649115226 0 -0.35355339469539521 1 I I #
face $-1 $-1 $317 $41 $-1 $432 forward single #
loop $-1 $-1 $433 $198 #
plane-surface $-1 -58.055970946378977 0 0 1 0 0 0 0 -1 forward_v I I I I #
coedge $-1 $434 $435 $436 $437 reversed $199 $-1 #
coedge $-1 $438 $201 $203 $315 forward $125 $-1 #
coedge $-1 $201 $438 $434 $439 forward $125 $-1 #
coedge $-1 $436 $204 $201 $312 forward $317 $-1 #
edge $-1 $319 -17.285178524814768 $440 0.86529174745457915 $311 $441 forward 7 unknown #
coedge $-1 $442 $443 $202 $314 forward $306 $-1 #
edge $-1 $444 -49.87037486503467 $318 -41.3621895480711 $313 $445 forward 7 unknown #
edge $-1 $319 -17.016370405950763 $444 8.2073931920208199e-015 $203 $446 forward 7 unknown #
coedge $-1 $204 $436 $442 $447 forward $317 $-1 #
loop $-1 $-1 $436 $305 #
vertex $-1 $314 $448 #
vertex $-1 $205 $449 #
straight-curve $-1 -58.055971335280617 -25.495121913494863 9.3233264997002792 1 0 0 I I #
coedge $-1 $321 $321 $-1 $450 reversed $208 $-1 #
edge $-1 $451 0 $451 6.2831853071796004 $209 $452 forward 7 unknown #
vertex $-1 $212 $453 #
ellipse-curve $-1 -50.687666453404979 -20.309273264275049 5.0692338412185043 -0.50000000669873634 0 0.8660253999169214 1.7320507998338428 0 1.0000000133974727 1 I I #
coedge $-1 $325 $325 $-1 $454 reversed $215 $-1 #
edge $-1 $455 0 $455 6.2831853071796004 $216 $456 forward 7 unknown #
vertex $-1 $219 $457 #
ellipse-curve $-1 -50.687666453404979 -12.530500290445328 5.0692338412185043 -0.50000000669873634 0 0.8660253999169214 1.7320507998338428 0 1.0000000133974727 1 I I #
face $-1 $-1 $235 $33 $-1 $458 reversed single #
loop $-1 $-1 $345 $220 #
plane-surface $-1 0 37.667370217952154 0 0 -1 0 0 0 -1 forward_v I I I I #
coedge $-1 $459 $343 $346 $460 forward $221 $-1 #
coedge $-1 $349 $223 $224 $337 reversed $139 $-1 #
coedge $-1 $343 $459 $223 $335 reversed $221 $-1 #
edge $-1 $350 -9.3233264997002827 $461 9.3233264997002827 $334 $462 forward 7 unknown #
coedge $-1 $225 $224 $459 $463 forward $89 $-1 #
edge $-1 $341 -58.055970946378977 $461 58.055970946378977 $333 $464 forward 7 unknown #
coedge $-1 $346 $345 $225 $339 reversed $330 $-1 #
edge $-1 $465 -58.055970946378977 $340 58.055970946378977 $338 $466 forward 7 unknown #
vertex $-1 $227 $467 #
vertex $-1 $352 $468 #
straight-curve $-1 58.055970946378977 0 -9.3233264997002827 0 -1 0 I I #
coedge $-1 $332 $334 $228 $344 reversed $221 $-1 #
edge $-1 $347 -37.667370217952154 $350 37.667370217952154 $343 $469 forward 7 unknown #
coedge $-1 $338 $229 $234 $353 forward $330 $-1 #
coedge $-1 $229 $338 $332 $460 reversed $330 $-1 #
vertex $-1 $230 $470 #
straight-curve $-1 0 37.667370217952154 9.3233264997002827 -1 0 0 I I #
coedge $-1 $231 $333 $233 $352 reversed $139 $-1 #
vertex $-1 $344 $471 #
straight-curve $-1 0 -37.667370217952154 9.3233264997002827 1 0 0 I I #
edge $-1 $236 -9.3233264997002827 $341 9.3233264997002827 $233 $472 forward 7 unknown #
edge $-1 $237 -9.3233264997002827 $340 9.3233264997002827 $234 $473 forward 7 unknown #
point $-1 58.055970946378977 -37.667370217952154 9.3233264997002827 #
point $-1 58.055970946378977 37.667370217952154 9.3233264997002827 #
face $-1 $-1 $254 $34 $-1 $474 reversed single #
loop $-1 $-1 $250 $239 #
plane-surface $-1 0 -37.667370217952154 0 0 1 0 0 0 1 forward_v I I I I #
coedge $-1 $475 $476 $247 $369 forward $240 $-1 #
coedge $-1 $370 $242 $244 $365 reversed $147 $-1 #
edge $-1 $367 -2.923042859477047 $255 0.78881735107594997 $253 $477 forward 7 unknown #
coedge $-1 $244 $243 $478 $479 reversed $93 $-1 #
coedge $-1 $374 $373 $243 $364 forward $357 $-1 #
edge $-1 $480 -58.055970946378977 $366 58.055970946378977 $363 $481 forward 7 unknown #
edge $-1 $482 -58.055970946378977 $367 58.055970946378977 $360 $483 forward 7 unknown #
vertex $-1 $364 $484 #
vertex $-1 $246 $485 #
straight-curve $-1 58.055970946378977 -17.231345956269479 -3.9901556136775955 0 1 0 I I #
edge $-1 $375 -20.436024261682675 $371 -14.026667650856279 $359 $486 forward 7 unknown #
coedge $-1 $248 $360 $475 $487 reversed $147 $-1 #
vertex $-1 $369 $488 #
straight-curve $-1 0 -31.258013607125758 -0.27829540312459855 -1 0 0 I I #
coedge $-1 $363 $250 $476 $489 forward $357 $-1 #
coedge $-1 $250 $363 $252 $377 reversed $357 $-1 #
vertex $-1 $489 $490 #
straight-curve $-1 0 -37.667370217952154 -0.27829540312459855 -1 0 0 I I #
edge $-1 $256 0.27829540312459855 $366 3.9901556136775955 $252 $491 forward 7 unknown #
point $-1 58.055970946378977 -31.258013607125758 -0.27829540312459855 #
point $-1 58.055970946378977 -37.667370217952154 -0.27829540312459855 #
plane-surface $-1 58.055970946378977 0 0 -1 0 0 0 0 1 forward_v I I I I #
coedge $-1 $391 $390 $383 $492 forward $259 $-1 #
coedge $-1 $383 $261 $263 $387 reversed $155 $-1 #
coedge $-1 $261 $382 $381 $492 reversed $155 $-1 #
coedge $-1 $269 $264 $261 $385 forward $270 $-1 #
edge $-1 $388 -79.034025472864556 $493 -75.849731005650185 $384 $494 forward 7 unknown #
coedge $-1 $263 $262 $391 $495 reversed $97 $-1 #
edge $-1 $496 111.60866952288326 $388 116.11194189275797 $382 $497 forward 7 unknown #
vertex $-1 $265 $498 #
straight-curve $-1 58.05597094637897 -6.3835278874377543 6.1390320324859218 0 1 0 I I #
coedge $-1 $381 $266 $269 $395 forward $259 $-1 #
coedge $-1 $266 $381 $386 $495 forward $259 $-1 #
vertex $-1 $267 $499 #
straight-curve $-1 29.027986425800073 -20.715235622046386 9.3233264997002863 1 0 0 I I #
straight-curve $-1 -24.047569590117945 -20.715235622046386 88.242574474204005 -0.70710677298230451 0 0.70710678939079041 I I #
edge $-1 $271 -20.715235622046386 $493 -4.8188759277046316 $269 $500 forward 7 unknown #
point $-1 58.055970946378977 -20.715235622046386 9.3233264997002827 #
point $-1 58.055970946378977 -20.715235622046386 6.1390320324859147 #
edge $-1 $501 1 $501 0 $274 $-1 forward 7 unknown #
vertex $-1 $275 $502 #
ellipse-curve $-1 55.364406163557923 -16.173418566520169 6.6317617054453928 0.70710678939079041 0 0.70710677298230451 0.35355338649115226 0 -0.35355339469539521 1 I I #
point $-1 56.817377136208869 -16.173418566520169 7.3776258713976919 #
edge $-1 $503 1 $503 0 $278 $-1 forward 7 unknown #
vertex $-1 $279 $504 #
ellipse-curve $-1 55.364406163557923 -9.3606929832308481 6.6317617054453928 0.70710678939079041 0 0.70710677298230451 0.35355338649115226 0 -0.35355339469539521 1 I I #
point $-1 56.817377136208869 -9.3606929832308481 7.3776258713976919 #
loop $-1 $-1 $290 $282 #
plane-surface $-1 0 0 9.3233264997002827 0 0 1 1 0 0 forward_v I I I I #
coedge $-1 $409 $285 $287 $413 reversed $177 $-1 #
coedge $-1 $285 $408 $505 $506 reversed $177 $-1 #
coedge $-1 $293 $288 $285 $411 forward $283 $-1 #
edge $-1 $414 -79.034025472864556 $507 -75.849731005650185 $410 $508 forward 7 unknown #
coedge $-1 $287 $286 $417 $509 reversed $111 $-1 #
edge $-1 $510 111.60866952288326 $414 116.11194189275797 $408 $511 forward 7 unknown #
vertex $-1 $289 $512 #
straight-curve $-1 58.05597094637897 10.847818068831725 6.1390320324859218 0 1 0 I I #
coedge $-1 $505 $290 $293 $421 forward $406 $-1 #
coedge $-1 $290 $505 $412 $509 forward $406 $-1 #
vertex $-1 $291 $513 #
straight-curve $-1 29.027986425800073 13.747456290492572 9.3233264997002863 1 0 0 I I #
straight-curve $-1 -24.047569590117945 13.747456290492572 88.242574474204005 -0.70710677298230451 0 0.70710678939079041 I I #
edge $-1 $294 13.747456290492572 $507 29.643815984834326 $293 $514 forward 7 unknown #
point $-1 58.055970946378977 13.747456290492572 9.3233264997002827 #
point $-1 58.055970946378977 13.747456290492572 6.1390320324859147 #
edge $-1 $515 1 $515 0 $297 $-1 forward 7 unknown #
vertex $-1 $298 $516 #
ellipse-curve $-1 55.364406163557923 18.289273346018788 6.6317617054453928 0.70710678939079041 0 0.70710677298230451 0.35355338649115226 0 -0.35355339469539521 1 I I #
point $-1 56.817377136208869 18.289273346018788 7.3776258713976919 #
edge $-1 $517 1 $517 0 $301 $-1 forward 7 unknown #
vertex $-1 $302 $518 #
ellipse-curve $-1 55.364406163557923 25.10199892930811 6.6317617054453928 0.70710678939079041 0 0.70710677298230451 0.35355338649115226 0 -0.35355339469539521 1 I I #
point $-1 56.817377136208869 25.10199892930811 7.3776258713976919 #
plane-surface $-1 0 0 9.3233264997002827 0 0 1 1 0 0 forward_v I I I I #
coedge $-1 $443 $442 $435 $519 forward $306 $-1 #
coedge $-1 $435 $308 $310 $439 reversed $199 $-1 #
coedge $-1 $308 $434 $433 $519 reversed $199 $-1 #
coedge $-1 $316 $311 $308 $437 forward $317 $-1 #
edge $-1 $440 -14.736609374849621 $520 -3.8890163978066994e-007 $436 $521 forward 7 unknown #
coedge $-1 $310 $309 $443 $522 reversed $125 $-1 #
edge $-1 $523 -8.2073931920208199e-015 $440 17.016370405950763 $434 $524 forward 7 unknown #
vertex $-1 $312 $525 #
straight-curve $-1 -43.319361960430996 -8.2099433886800952 9.3233264997002827 0 1 0 I I #
coedge $-1 $433 $313 $316 $447 reversed $306 $-1 #
coedge $-1 $313 $433 $438 $522 forward $306 $-1 #
vertex $-1 $314 $526 #
straight-curve $-1 -58.055970946378977 -25.495121913494863 50.685516047771387 0 0 1 I I #
straight-curve $-1 -58.05597094637897 -25.495121913494863 0.81514118273672409 -0.8660253999169214 0 -0.50000000669873634 I I #
edge $-1 $520 7.3446516412255161 $318 25.495121913494863 $442 $527 forward 7 unknown #
point $-1 -58.055970946378977 -25.495121913494863 9.3233264997002827 #
point $-1 -43.319361960430996 -25.495121913494863 9.3233264997002827 #
edge $-1 $528 1 $528 0 $321 $-1 forward 7 unknown #
vertex $-1 $322 $529 #
ellipse-curve $-1 -48.477210782443983 -20.309273264275049 1.2406123796271036 -0.50000000669873634 0 0.8660253999169214 1.7320507998338428 0 1.0000000133974727 1 I I #
point $-1 -48.955615653571137 -20.309273264275049 6.0692338546159714 #
edge $-1 $530 1 $530 0 $325 $-1 forward 7 unknown #
vertex $-1 $326 $531 #
ellipse-curve $-1 -48.477210782443983 -12.530500290445328 1.2406123796271036 -0.50000000669873634 0 0.8660253999169214 1.7320507998338428 0 1.0000000133974727 1 I I #
point $-1 -48.955615653571137 -12.530500290445328 6.0692338546159714 #
plane-surface $-1 58.055970946378977 0 0 -1 0 0 0 0 1 forward_v I I I I #
coedge $-1 $334 $332 $336 $463 reversed $221 $-1 #
edge $-1 $347 -9.3233264997002827 $465 9.3233264997002827 $346 $532 forward 7 unknown #
vertex $-1 $463 $533 #
straight-curve $-1 -58.055970946378977 -37.667370217952154 0 0 0 -1 I I #
edge $-1 $461 -37.667370217952154 $465 37.667370217952154 $459 $534 forward 7 unknown #
straight-curve $-1 0 -37.667370217952154 -9.3233264997002827 -1 0 0 I I #
vertex $-1 $339 $535 #
straight-curve $-1 0 37.667370217952154 -9.3233264997002827 1 0 0 I I #
point $-1 58.055970946378977 37.667370217952154 -9.3233264997002827 #
point $-1 58.055970946378977 -37.667370217952154 -9.3233264997002827 #
straight-curve $-1 -58.055970946378977 0 9.3233264997002827 0 -1 0 I I #
point $-1 -58.055970946378977 37.667370217952154 9.3233264997002827 #
point $-1 -58.055970946378977 -37.667370217952154 9.3233264997002827 #
straight-curve $-1 58.055970946378977 -37.667370217952154 0 0 0 -1 I I #
straight-curve $-1 58.055970946378977 37.667370217952154 0 0 0 -1 I I #
plane-surface $-1 58.055970946378977 0 0 -1 0 0 0 0 1 forward_v I I I I #
coedge $-1 $478 $359 $370 $487 forward $240 $-1 #
coedge $-1 $359 $478 $373 $489 reversed $240 $-1 #
straight-curve $-1 58.055970946378977 -31.258013607125758 -1.0671127542005485 0 0 1 I I #
coedge $-1 $476 $475 $362 $479 forward $240 $-1 #
edge $-1 $482 14.026667650856279 $480 20.436024261682675 $478 $536 forward 7 unknown #
vertex $-1 $364 $537 #
straight-curve $-1 0 -37.667370217952154 -3.9901556136775955 1 0 0 I I #
vertex $-1 $479 $538 #
straight-curve $-1 0 -31.258013607125758 -3.9901556136775955 1 0 0 I I #
point $-1 58.055970946378977 -37.667370217952154 -3.9901556136775955 #
point $-1 58.055970946378977 -31.258013607125758 -3.9901556136775955 #
straight-curve $-1 -58.055970946378977 -17.231345956269479 -0.27829540312459855 0 1 0 I I #
edge $-1 $371 -0.78881735107594997 $482 2.923042859477047 $475 $539 forward 7 unknown #
point $-1 -58.055970946378977 -31.258013607125758 -0.27829540312459855 #
edge $-1 $375 0.27829540312459855 $480 3.9901556136775955 $476 $540 forward 7 unknown #
point $-1 -58.055970946378977 -37.667370217952154 -0.27829540312459855 #
straight-curve $-1 58.055970946378977 -37.667370217952154 0 0 0 -1 I I #
edge $-1 $493 -29.027984520578904 $496 -25.843690127256416 $381 $541 forward 7 unknown #
vertex $-1 $492 $542 #
straight-curve $-1 58.055970946378977 -4.8188759277046316 85.173057505350471 0 0 1 I I #
edge $-1 $496 -1.5646519597331228 $392 14.331707734608631 $391 $543 forward 7 unknown #
vertex $-1 $495 $544 #
straight-curve $-1 -24.047569590117945 -4.8188759277046316 88.242574474204005 0.70710677298230451 0 -0.70710678939079041 I I #
point $-1 58.055970946378977 -4.8188759277046316 6.1390320324859147 #
point $-1 54.871676553056489 -20.715235622046386 9.3233264997002863 #
straight-curve $-1 58.055970946378977 0 9.3233264997002827 0 1 0 I I #
vertex $-1 $398 $545 #
point $-1 55.717959550049073 -16.173418566520169 6.2782083107499975 #
vertex $-1 $402 $546 #
point $-1 55.717959550049073 -9.3606929832308481 6.2782083107499975 #
coedge $-1 $417 $416 $409 $506 forward $406 $-1 #
edge $-1 $507 -29.027984520578904 $510 -25.843690127256416 $505 $547 forward 7 unknown #
vertex $-1 $506 $548 #
straight-curve $-1 58.055970946378977 29.643815984834326 85.173057505350471 0 0 1 I I #
edge $-1 $510 -18.795997916002602 $418 -2.8996382216608474 $417 $549 forward 7 unknown #
vertex $-1 $509 $550 #
straight-curve $-1 -24.047569590117945 29.643815984834326 88.242574474204005 0.70710677298230451 0 -0.70710678939079041 I I #
point $-1 58.055970946378977 29.643815984834326 6.1390320324859147 #
point $-1 54.871676553056489 13.747456290492572 9.3233264997002863 #
straight-curve $-1 58.055970946378977 0 9.3233264997002827 0 1 0 I I #
vertex $-1 $424 $551 #
point $-1 55.717959550049073 18.289273346018788 6.2782083107499975 #
vertex $-1 $428 $552 #
point $-1 55.717959550049073 25.10199892930811 6.2782083107499975 #
edge $-1 $520 41.3621895480711 $523 49.87037486503467 $433 $553 forward 7 unknown #
vertex $-1 $447 $554 #
straight-curve $-1 -58.055971335280617 -7.3446516412255161 9.3233264997002792 -1 0 0 I I #
edge $-1 $523 -0.86529174745457915 $444 17.285178524814768 $443 $555 forward 7 unknown #
vertex $-1 $522 $556 #
straight-curve $-1 -58.05597094637897 -7.3446516412255161 0.81514118273672409 0.8660253999169214 0 0.50000000669873634 I I #
point $-1 -43.319361960430996 -7.3446516412255161 9.3233264997002827 #
point $-1 -58.055970946378977 -25.495121913494863 0.81514118273671998 #
straight-curve $-1 -58.055970946378977 0 9.3233264997002827 0 -1 0 I I #
vertex $-1 $450 $557 #
point $-1 -46.74515998261014 -20.309273264275049 2.240612393024576 #
vertex $-1 $454 $558 #
point $-1 -46.74515998261014 -12.530500290445328 2.240612393024576 #
straight-curve $-1 -58.055970946378977 37.667370217952154 0 0 0 -1 I I #
point $-1 -58.055970946378977 -37.667370217952154 -9.3233264997002827 #
straight-curve $-1 -58.055970946378977 0 -9.3233264997002827 0 1 0 I I #
point $-1 -58.055970946378977 37.667370217952154 -9.3233264997002827 #
straight-curve $-1 -58.055970946378977 -17.231345956269479 -3.9901556136775955 0 -1 0 I I #
point $-1 -58.055970946378977 -37.667370217952154 -3.9901556136775955 #
point $-1 -58.055970946378977 -31.258013607125758 -3.9901556136775955 #
straight-curve $-1 -58.055970946378977 -31.258013607125758 -1.0671127542005485 0 0 -1 I I #
straight-curve $-1 -58.055970946378977 -37.667370217952154 0 0 0 -1 I I #
straight-curve $-1 29.027986425800073 -4.8188759277046316 9.3233264997002863 -1 0 0 I I #
point $-1 58.055970946378977 -4.8188759277046316 9.3233264997002827 #
straight-curve $-1 54.871676553056503 -6.3835278874377543 9.3233264997002721 0 -1 0 I I #
point $-1 54.871676553056489 -4.8188759277046316 9.3233264997002863 #
point $-1 55.010852768862527 -16.173418566520169 6.278208318954241 #
point $-1 55.010852768862527 -9.3606929832308481 6.278208318954241 #
straight-curve $-1 29.027986425800073 29.643815984834326 9.3233264997002863 -1 0 0 I I #
point $-1 58.055970946378977 29.643815984834326 9.3233264997002827 #
straight-curve $-1 54.871676553056503 10.847818068831725 9.3233264997002721 0 -1 0 I I #
point $-1 54.871676553056489 29.643815984834326 9.3233264997002863 #
point $-1 55.010852768862527 18.289273346018788 6.278208318954241 #
point $-1 55.010852768862527 25.10199892930811 6.278208318954241 #
straight-curve $-1 -58.055970946378977 -7.3446516412255161 50.685516047771387 0 0 -1 I I #
point $-1 -58.055970946378977 -7.3446516412255161 9.3233264997002827 #
straight-curve $-1 -58.055970946378977 -8.2099433886800952 0.81514118273672098 0 -1 0 I I #
point $-1 -58.055970946378977 -7.3446516412255161 0.81514118273671998 #
point $-1 -47.477210769046515 -20.309273264275049 -0.49143842020673922 #
point $-1 -47.477210769046515 -12.530500290445328 -0.49143842020673922 #
End-of-ACIS-data 