500 0 7 0           
7 Unknown 11 ACIS 5.0 NT 24 Thu Mar 25 15:41:07 1999 
-1 9.9999999999999995e-007 1e-010 
body $-1 $7 $-1 $8 #
body $-1 $9 $-1 $10 #
body $-1 $11 $-1 $12 #
body $-1 $13 $-1 $14 #
body $-1 $15 $-1 $16 #
body $-1 $17 $-1 $18 #
body $-1 $19 $-1 $20 #
lump $-1 $-1 $21 $0 #
transform $-1 1 0 0 0 1 0 0 0 1 66.96371349223304 32.133467874319429 13.420702166827104 1 rotate no_reflect no_shear #
lump $-1 $-1 $22 $1 #
transform $-1 1 0 0 0 1 0 0 0 1 66.96371349223304 32.133467874319429 13.420702166827104 1 rotate no_reflect no_shear #
lump $-1 $-1 $23 $2 #
transform $-1 1 0 0 0 1 0 0 0 1 66.96371349223304 32.133467874319429 13.420702166827104 1 rotate no_reflect no_shear #
lump $-1 $-1 $24 $3 #
transform $-1 1 0 0 0 1 0 0 0 1 66.96371349223304 32.133467874319429 13.420702166827104 1 rotate no_reflect no_shear #
lump $-1 $-1 $25 $4 #
transform $-1 1 0 0 0 1 0 0 0 1 66.96371349223304 32.133467874319429 13.420702166827104 1 rotate no_reflect no_shear #
lump $-1 $-1 $26 $5 #
transform $-1 1 0 0 0 1 0 0 0 1 66.96371349223304 32.133467874319429 13.420702166827104 1 rotate no_reflect no_shear #
lump $-1 $-1 $27 $6 #
transform $-1 1 0 0 0 1 0 0 0 1 66.96371349223304 32.133467874319429 13.420702166827104 1 rotate no_reflect no_shear #
shell $-1 $-1 $-1 $28 $-1 $7 #
shell $-1 $-1 $-1 $29 $-1 $9 #
shell $-1 $-1 $-1 $30 $-1 $11 #
shell $-1 $-1 $-1 $31 $-1 $13 #
shell $-1 $-1 $-1 $32 $-1 $15 #
shell $-1 $-1 $-1 $33 $-1 $17 #
shell $-1 $-1 $-1 $34 $-1 $19 #
face $-1 $35 $36 $21 $-1 $37 forward single #
face $-1 $38 $39 $22 $-1 $40 forward single #
face $-1 $41 $42 $23 $-1 $43 reversed single #
face $-1 $44 $45 $24 $-1 $46 forward single #
face $-1 $47 $48 $25 $-1 $49 reversed single #
face $-1 $50 $51 $26 $-1 $52 forward single #
face $-1 $53 $54 $27 $-1 $55 forward single #
face $-1 $56 $57 $21 $-1 $58 reversed single #
loop $-1 $-1 $59 $28 #
plane-surface $-1 0 0 13.420702166827104 0 0 1 1 0 0 forward_v I I I I #
face $-1 $60 $61 $22 $-1 $62 reversed single #
loop $-1 $-1 $63 $29 #
plane-surface $-1 0 -32.133467874319429 0 0 1 0 0 0 1 forward_v I I I I #
face $-1 $64 $65 $23 $-1 $66 reversed single #
loop $-1 $-1 $67 $30 #
plane-surface $-1 93.32337744297584 23.831634552638342 190.61940201246699 0 1 0 0.79863551827123203 0 0.60181501223851219 forward_v I I I I #
face $-1 $68 $69 $24 $-1 $70 forward single #
loop $-1 $71 $72 $31 #
cone-surface $-1 62.300748976825098 27.982551213478885 7.6683288537429304 -0.79863551827123203 0 -0.60181501223851219 0.60181501223851219 0 -0.79863551827123203 1 I I 0 1 1 forward I I I I #
face $-1 $73 $74 $25 $-1 $75 reversed single #
loop $-1 $-1 $76 $32 #
plane-surface $-1 -153.0506052131411 0.81637505173191371 106.40397339847014 0 1 0 -0.64278761758704617 0 0.76604443648966558 forward_v I I I I #
face $-1 $77 $78 $26 $-1 $79 forward single #
loop $-1 $80 $81 $33 #
cone-surface $-1 -60.14326112466464 3.3172862385910378 7.3120614866458729 0.64278761758704617 0 -0.76604443648966558 0.76604443648966558 0 0.64278761758704617 1 I I 0 1 1 forward I I I I #
face $-1 $82 $83 $27 $-1 $84 forward single #
loop $-1 $85 $86 $34 #
cone-surface $-1 -60.14326112466464 7.0686530188797363 7.3120614866458729 0.64278761758704617 0 -0.76604443648966558 0.76604443648966558 0 0.64278761758704617 1 I I 0 1 1 forward I I I I #
face $-1 $87 $88 $21 $-1 $89 reversed single #
loop $-1 $-1 $90 $35 #
plane-surface $-1 0 0 -13.420702166827104 0 0 1 1 0 0 forward_v I I I I #
coedge $-1 $91 $92 $93 $94 forward $36 $-1 #
face $-1 $95 $96 $22 $-1 $97 forward single #
loop $-1 $-1 $98 $38 #
plane-surface $-1 -66.96371349223304 0 0 1 0 0 0 0 -1 forward_v I I I I #
coedge $-1 $99 $100 $101 $102 forward $39 $-1 #
face $-1 $103 $104 $23 $-1 $105 forward single #
loop $-1 $-1 $106 $41 #
plane-surface $-1 -13.635822617495819 27.982551213478885 110.01986590273809 0.79863551827123203 0 0.60181501223851219 0.60181501223851219 0 -0.79863551827123203 forward_v I I I I #
coedge $-1 $107 $108 $109 $110 reversed $42 $-1 #
face $-1 $-1 $111 $24 $-1 $112 forward single #
loop $-1 $113 $114 $44 #
cone-surface $-1 61.141890257092342 27.982551213478885 6.7950661968198549 -0.79863551827123203 0 -0.60181501223851219 0.3009075061192561 0 -0.39931775913561601 1 I I -0.70710678118654746 0.70710678118654746 0.5 forward I I I I #
loop $-1 $-1 $115 $31 #
coedge $-1 $72 $72 $116 $117 reversed $45 $-1 #
face $-1 $118 $119 $25 $-1 $120 reversed single #
loop $-1 $-1 $121 $47 #
plane-surface $-1 -66.963713492233069 5.1929696287353906 3.8096130636439938 -0.64278761758704617 0 0.76604443648966558 0.76604443648966558 0 0.64278761758704617 forward_v I I I I #
coedge $-1 $122 $123 $124 $125 reversed $48 $-1 #
face $-1 $-1 $126 $26 $-1 $127 forward single #
loop $-1 $128 $129 $50 #
cone-surface $-1 -58.728439812081199 3.3172862385910378 5.6259431398113779 0.64278761758704617 0 -0.76604443648966558 0.38302221824483279 0 0.32139380879352308 1 I I -0.70710678118654746 0.70710678118654746 0.5 forward I I I I #
loop $-1 $-1 $130 $33 #
coedge $-1 $81 $81 $131 $132 reversed $51 $-1 #
face $-1 $-1 $133 $27 $-1 $134 forward single #
loop $-1 $135 $136 $53 #
cone-surface $-1 -58.728439812081199 7.0686530188797363 5.6259431398113779 0.64278761758704617 0 -0.76604443648966558 0.38302221824483279 0 0.32139380879352308 1 I I -0.70710678118654746 0.70710678118654746 0.5 forward I I I I #
loop $-1 $-1 $137 $34 #
coedge $-1 $86 $86 $138 $139 reversed $54 $-1 #
face $-1 $140 $141 $21 $-1 $142 reversed single #
loop $-1 $-1 $143 $56 #
plane-surface $-1 0 -32.133467874319429 0 0 1 0 0 0 1 forward_v I I I I #
coedge $-1 $144 $145 $146 $147 forward $57 $-1 #
coedge $-1 $148 $59 $149 $150 forward $36 $-1 #
coedge $-1 $59 $148 $151 $152 forward $36 $-1 #
coedge $-1 $153 $154 $59 $94 reversed $155 $-1 #
edge $-1 $156 -32.133467874319429 $157 32.133467874319429 $93 $158 forward 7 unknown #
face $-1 $159 $160 $22 $-1 $161 reversed single #
loop $-1 $-1 $162 $60 #
plane-surface $-1 0 -39.444750383012895 4.0476957687603159 0 0 1 1 0 0 forward_v I I I I #
coedge $-1 $163 $164 $100 $165 forward $61 $-1 #
coedge $-1 $166 $63 $167 $168 reversed $39 $-1 #
coedge $-1 $63 $166 $98 $165 reversed $39 $-1 #
coedge $-1 $169 $162 $63 $102 reversed $96 $-1 #
edge $-1 $170 -66.96371349223304 $171 66.96371349223304 $101 $172 forward 7 unknown #
face $-1 $173 $174 $23 $-1 $175 reversed single #
loop $-1 $-1 $176 $64 #
plane-surface $-1 0 0 13.420702166827104 0 0 1 1 0 0 forward_v I I I I #
coedge $-1 $177 $178 $179 $180 reversed $65 $-1 #
coedge $-1 $108 $67 $181 $182 reversed $42 $-1 #
coedge $-1 $67 $107 $177 $183 reversed $42 $-1 #
coedge $-1 $179 $184 $67 $110 forward $174 $-1 #
edge $-1 $185 81.888998839406398 $186 92.249035163966994 $109 $187 forward 7 unknown #
loop $-1 $-1 $116 $68 #
plane-surface $-1 -13.635822617495819 27.982551213478885 110.01986590273809 0.79863551827123203 0 0.60181501223851219 0.60181501223851219 0 -0.79863551827123203 forward_v I I I I #
loop $-1 $-1 $188 $44 #
coedge $-1 $114 $114 $115 $189 reversed $69 $-1 #
coedge $-1 $115 $115 $114 $189 forward $71 $-1 #
coedge $-1 $116 $116 $72 $117 forward $111 $-1 #
edge $-1 $190 0 $190 6.2831853071796004 $116 $191 forward 7 unknown #
face $-1 $192 $193 $25 $-1 $194 reversed single #
loop $-1 $-1 $195 $73 #
plane-surface $-1 -153.0506052131411 9.5695642057388675 106.40397339847014 0 -1 0 0.64278761758704617 0 -0.76604443648966558 forward_v I I I I #
coedge $-1 $196 $197 $198 $199 reversed $74 $-1 #
coedge $-1 $123 $76 $200 $201 reversed $48 $-1 #
coedge $-1 $76 $122 $196 $202 reversed $48 $-1 #
coedge $-1 $198 $203 $76 $125 forward $204 $-1 #
edge $-1 $205 9.561589114337508 $206 21.0156388418944 $124 $207 forward 7 unknown #
loop $-1 $-1 $131 $77 #
plane-surface $-1 -66.963713492233069 5.1929696287353906 3.8096130636439938 -0.64278761758704617 0 0.76604443648966558 0.76604443648966558 0 0.64278761758704617 forward_v I I I I #
loop $-1 $-1 $208 $50 #
coedge $-1 $129 $129 $130 $209 reversed $78 $-1 #
coedge $-1 $130 $130 $129 $209 forward $80 $-1 #
coedge $-1 $131 $131 $81 $132 forward $126 $-1 #
edge $-1 $210 0 $210 6.2831853071796004 $131 $211 forward 7 unknown #
loop $-1 $-1 $138 $82 #
plane-surface $-1 -66.963713492233069 5.1929696287353906 3.8096130636439938 -0.64278761758704617 0 0.76604443648966558 0.76604443648966558 0 0.64278761758704617 forward_v I I I I #
loop $-1 $-1 $212 $53 #
coedge $-1 $136 $136 $137 $213 reversed $83 $-1 #
coedge $-1 $137 $137 $136 $213 forward $85 $-1 #
coedge $-1 $138 $138 $86 $139 forward $133 $-1 #
edge $-1 $214 0 $214 6.2831853071796004 $138 $215 forward 7 unknown #
face $-1 $216 $217 $21 $-1 $218 reversed single #
loop $-1 $-1 $219 $87 #
plane-surface $-1 -66.96371349223304 0 0 1 0 0 0 0 -1 forward_v I I I I #
coedge $-1 $220 $151 $221 $222 forward $88 $-1 #
coedge $-1 $223 $90 $220 $224 forward $57 $-1 #
coedge $-1 $90 $223 $225 $226 forward $57 $-1 #
coedge $-1 $154 $153 $90 $147 reversed $155 $-1 #
edge $-1 $227 -32.133467874319429 $228 32.133467874319429 $146 $229 forward 7 unknown #
coedge $-1 $92 $91 $230 $231 forward $36 $-1 #
coedge $-1 $232 $233 $91 $150 reversed $217 $-1 #
edge $-1 $157 -66.96371349223304 $234 66.96371349223304 $149 $235 forward 7 unknown #
coedge $-1 $143 $236 $92 $152 reversed $88 $-1 #
edge $-1 $237 -66.96371349223304 $156 66.96371349223304 $151 $238 forward 7 unknown #
coedge $-1 $146 $93 $236 $239 forward $155 $-1 #
coedge $-1 $93 $146 $232 $240 reversed $155 $-1 #
loop $-1 $-1 $153 $216 #
vertex $-1 $94 $241 #
vertex $-1 $94 $242 #
straight-curve $-1 66.96371349223304 0 13.420702166827104 0 1 0 I I #
face $-1 $243 $244 $22 $-1 $245 reversed single #
loop $-1 $-1 $246 $95 #
plane-surface $-1 0 -39.444750383012895 -3.7966589795994983 0 0 1 1 0 0 forward_v I I I I #
coedge $-1 $101 $247 $248 $249 forward $96 $-1 #
coedge $-1 $250 $98 $251 $252 reversed $61 $-1 #
coedge $-1 $98 $250 $169 $253 reversed $61 $-1 #
edge $-1 $170 -4.0476957687603159 $254 3.7966589795994983 $98 $255 forward 7 unknown #
coedge $-1 $100 $99 $256 $257 forward $39 $-1 #
coedge $-1 $248 $258 $99 $168 forward $259 $-1 #
edge $-1 $260 -3.7966589795994983 $171 4.0476957687603159 $167 $261 forward 7 unknown #
coedge $-1 $247 $101 $164 $253 forward $96 $-1 #
vertex $-1 $165 $262 #
vertex $-1 $249 $263 #
straight-curve $-1 0 -32.133467874319429 4.0476957687603159 1 0 0 I I #
face $-1 $-1 $264 $23 $-1 $265 reversed single #
loop $-1 $-1 $109 $103 #
plane-surface $-1 66.96371349223304 0 0 -1 0 0 0 0 1 forward_v I I I I #
coedge $-1 $181 $266 $267 $268 forward $104 $-1 #
coedge $-1 $267 $106 $108 $183 forward $65 $-1 #
coedge $-1 $106 $267 $269 $270 reversed $65 $-1 #
coedge $-1 $271 $109 $106 $180 forward $174 $-1 #
edge $-1 $186 9.8403589458988989 $272 18.142192267579986 $179 $273 forward 7 unknown #
coedge $-1 $274 $176 $107 $182 forward $104 $-1 #
edge $-1 $275 12.495177661123577 $185 20.30202477074512 $181 $276 forward 7 unknown #
edge $-1 $186 -133.92742698446597 $275 -120.95525621627067 $108 $277 forward 7 unknown #
coedge $-1 $109 $271 $274 $278 reversed $174 $-1 #
vertex $-1 $278 $279 #
vertex $-1 $110 $280 #
straight-curve $-1 66.96371349223304 23.831634552638342 95.309701006233496 0 0 -1 I I #
coedge $-1 $188 $188 $-1 $281 reversed $113 $-1 #
edge $-1 $282 0 $282 6.2831853071796004 $114 $283 forward 7 unknown #
vertex $-1 $117 $284 #
ellipse-curve $-1 63.060289937422269 27.982551213478885 8.2406840045467771 0.79863551827123203 0 0.60181501223851219 0.60181501223851219 0 -0.79863551827123203 1 I I #
face $-1 $-1 $204 $25 $-1 $285 forward single #
loop $-1 $-1 $286 $118 #
plane-surface $-1 -66.96371349223304 0 0 1 0 0 0 0 -1 forward_v I I I I #
coedge $-1 $287 $288 $289 $290 reversed $119 $-1 #
coedge $-1 $291 $121 $123 $202 forward $74 $-1 #
coedge $-1 $121 $291 $287 $292 forward $74 $-1 #
coedge $-1 $289 $124 $121 $199 forward $204 $-1 #
edge $-1 $206 -1.7801097626357816 $293 6.9730793913711722 $198 $294 forward 7 unknown #
coedge $-1 $295 $296 $122 $201 forward $193 $-1 #
edge $-1 $297 -49.392373635591056 $205 -39.781284532407966 $200 $298 forward 7 unknown #
edge $-1 $206 -14.95220013612284 $297 -3.7186864825251173e-014 $123 $299 forward 7 unknown #
coedge $-1 $124 $289 $295 $300 forward $204 $-1 #
loop $-1 $-1 $289 $192 #
vertex $-1 $201 $301 #
vertex $-1 $125 $302 #
straight-curve $-1 -76.525302606570548 0.81637505173191371 13.420702166827105 1 0 0 I I #
coedge $-1 $208 $208 $-1 $303 reversed $128 $-1 #
edge $-1 $304 0 $304 6.2831853071796004 $129 $305 forward 7 unknown #
vertex $-1 $132 $306 #
ellipse-curve $-1 -61.236688628454587 3.3172862385910378 8.6151576152355656 -0.64278761758704617 0 0.76604443648966558 0.76604443648966558 0 0.64278761758704617 1 I I #
coedge $-1 $212 $212 $-1 $307 reversed $135 $-1 #
edge $-1 $308 0 $308 6.2831853071796004 $136 $309 forward 7 unknown #
vertex $-1 $139 $310 #
ellipse-curve $-1 -61.236688628454587 7.0686530188797363 8.6151576152355656 -0.64278761758704617 0 0.76604443648966558 0.76604443648966558 0 0.64278761758704617 1 I I #
face $-1 $-1 $155 $21 $-1 $311 reversed single #
loop $-1 $-1 $232 $140 #
plane-surface $-1 0 32.133467874319429 0 0 -1 0 0 0 -1 forward_v I I I I #
coedge $-1 $312 $230 $233 $313 forward $141 $-1 #
coedge $-1 $236 $143 $144 $224 reversed $88 $-1 #
coedge $-1 $230 $312 $143 $222 reversed $141 $-1 #
edge $-1 $237 -13.420702166827104 $314 13.420702166827104 $221 $315 forward 7 unknown #
coedge $-1 $145 $144 $312 $316 forward $57 $-1 #
edge $-1 $228 -66.96371349223304 $314 66.96371349223304 $220 $317 forward 7 unknown #
coedge $-1 $233 $232 $145 $226 reversed $217 $-1 #
edge $-1 $318 -66.96371349223304 $227 66.96371349223304 $225 $319 forward 7 unknown #
vertex $-1 $147 $320 #
vertex $-1 $239 $321 #
straight-curve $-1 66.96371349223304 0 -13.420702166827104 0 -1 0 I I #
coedge $-1 $219 $221 $148 $231 reversed $141 $-1 #
edge $-1 $234 -32.133467874319429 $237 32.133467874319429 $230 $322 forward 7 unknown #
coedge $-1 $225 $149 $154 $240 forward $217 $-1 #
coedge $-1 $149 $225 $219 $313 reversed $217 $-1 #
vertex $-1 $150 $323 #
straight-curve $-1 0 32.133467874319429 13.420702166827104 -1 0 0 I I #
coedge $-1 $151 $220 $153 $239 reversed $88 $-1 #
vertex $-1 $231 $324 #
straight-curve $-1 0 -32.133467874319429 13.420702166827104 1 0 0 I I #
edge $-1 $156 -13.420702166827104 $228 13.420702166827104 $153 $325 forward 7 unknown #
edge $-1 $157 -13.420702166827104 $227 13.420702166827104 $154 $326 forward 7 unknown #
point $-1 66.96371349223304 -32.133467874319429 13.420702166827104 #
point $-1 66.96371349223304 32.133467874319429 13.420702166827104 #
face $-1 $-1 $259 $22 $-1 $327 reversed single #
loop $-1 $-1 $328 $159 #
plane-surface $-1 0 -46.756032891706361 0.12551839458040881 0 1 0 0 0 1 forward_v I I I I #
coedge $-1 $329 $256 $258 $330 forward $160 $-1 #
coedge $-1 $162 $169 $331 $332 forward $96 $-1 #
coedge $-1 $333 $167 $162 $249 reversed $259 $-1 #
edge $-1 $334 -7.3112825086934663 $171 7.3112825086934663 $248 $335 forward 7 unknown #
coedge $-1 $164 $163 $328 $336 reversed $61 $-1 #
coedge $-1 $256 $329 $163 $252 forward $160 $-1 #
edge $-1 $337 -7.3112825086934663 $254 7.3112825086934663 $163 $338 forward 7 unknown #
edge $-1 $170 -7.3112825086934663 $339 7.3112825086934663 $164 $340 forward 7 unknown #
vertex $-1 $165 $341 #
straight-curve $-1 -66.96371349223304 -32.133467874319429 0 0 0 -1 I I #
coedge $-1 $246 $251 $166 $257 reversed $160 $-1 #
edge $-1 $260 -66.96371349223304 $254 66.96371349223304 $256 $342 forward 7 unknown #
coedge $-1 $167 $333 $246 $330 reversed $259 $-1 #
loop $-1 $-1 $167 $243 #
vertex $-1 $168 $343 #
straight-curve $-1 66.96371349223304 -32.133467874319429 0 0 0 1 I I #
point $-1 -66.96371349223304 -32.133467874319429 4.0476957687603159 #
point $-1 66.96371349223304 -32.133467874319429 4.0476957687603159 #
loop $-1 $-1 $269 $173 #
plane-surface $-1 0 32.133467874319429 0 0 -1 0 0 0 -1 forward_v I I I I #
coedge $-1 $176 $274 $344 $345 forward $104 $-1 #
coedge $-1 $178 $177 $176 $268 reversed $65 $-1 #
edge $-1 $346 -18.142192267579986 $275 -9.8403589458988989 $176 $347 forward 7 unknown #
coedge $-1 $344 $348 $178 $270 forward $264 $-1 #
edge $-1 $272 -85.891419294068456 $346 -72.919248525873115 $269 $349 forward 7 unknown #
coedge $-1 $184 $179 $348 $350 reversed $174 $-1 #
vertex $-1 $180 $351 #
straight-curve $-1 66.96371349223304 13.991275606739443 3.0606658422664879 0 1 0 I I #
coedge $-1 $266 $181 $184 $278 forward $104 $-1 #
vertex $-1 $182 $352 #
straight-curve $-1 46.66168872148792 23.831634552638342 13.420702166827098 1 0 0 I I #
straight-curve $-1 -13.635822617495819 23.831634552638342 110.01986590273809 -0.60181501223851219 0 0.79863551827123203 I I #
edge $-1 $185 23.831634552638342 $353 32.133467874319429 $184 $354 forward 7 unknown #
point $-1 66.96371349223304 23.831634552638342 13.420702166827104 #
point $-1 66.963713492233026 23.831634552638342 3.0606658422665021 #
edge $-1 $355 1 $355 0 $188 $-1 forward 7 unknown #
vertex $-1 $189 $356 #
ellipse-curve $-1 61.541208016227955 27.982551213478885 7.0959737029391112 0.79863551827123203 0 0.60181501223851219 0.60181501223851219 0 -0.79863551827123203 1 I I #
point $-1 63.662104949660744 27.982551213478885 7.4420484862755174 #
plane-surface $-1 0 0 13.420702166827104 0 0 1 1 0 0 forward_v I I I I #
coedge $-1 $296 $295 $288 $357 forward $193 $-1 #
coedge $-1 $288 $195 $197 $292 reversed $119 $-1 #
coedge $-1 $195 $287 $286 $357 reversed $119 $-1 #
coedge $-1 $203 $198 $195 $290 forward $204 $-1 #
edge $-1 $293 -21.0156388418944 $358 -9.561589114337508 $289 $359 forward 7 unknown #
coedge $-1 $197 $196 $296 $360 reversed $74 $-1 #
edge $-1 $361 3.7186864825251173e-014 $293 14.95220013612284 $287 $362 forward 7 unknown #
vertex $-1 $199 $363 #
straight-curve $-1 -55.509663764676155 2.5964848143676953 13.420702166827105 0 1 0 I I #
coedge $-1 $286 $200 $203 $300 reversed $193 $-1 #
coedge $-1 $200 $286 $291 $360 forward $193 $-1 #
vertex $-1 $201 $364 #
straight-curve $-1 -66.96371349223304 0.81637505173191371 53.201986699235071 0 0 1 I I #
straight-curve $-1 -66.963713492233069 0.81637505173191371 3.8096130636439938 -0.76604443648966558 0 -0.64278761758704617 I I #
edge $-1 $358 -9.5695642057388675 $205 -0.81637505173191371 $295 $365 forward 7 unknown #
point $-1 -66.96371349223304 0.81637505173191371 13.420702166827104 #
point $-1 -55.509663764676148 0.81637505173191371 13.420702166827104 #
edge $-1 $366 1 $366 0 $208 $-1 forward 7 unknown #
vertex $-1 $209 $367 #
ellipse-curve $-1 -59.049833620874722 3.3172862385910378 6.0089653580562103 -0.64278761758704617 0 0.76604443648966558 0.76604443648966558 0 0.64278761758704617 1 I I #
point $-1 -60.470644191964901 3.3172862385910378 9.257945232822582 #
edge $-1 $368 1 $368 0 $212 $-1 forward 7 unknown #
vertex $-1 $213 $369 #
ellipse-curve $-1 -59.049833620874722 7.0686530188797363 6.0089653580562103 -0.64278761758704617 0 0.76604443648966558 0.76604443648966558 0 0.64278761758704617 1 I I #
point $-1 -60.470644191964901 7.0686530188797363 9.257945232822582 #
plane-surface $-1 66.96371349223304 0 0 -1 0 0 0 0 1 forward_v I I I I #
coedge $-1 $221 $219 $223 $316 reversed $141 $-1 #
edge $-1 $234 -13.420702166827104 $318 13.420702166827104 $233 $370 forward 7 unknown #
vertex $-1 $316 $371 #
straight-curve $-1 -66.96371349223304 -32.133467874319429 0 0 0 -1 I I #
edge $-1 $314 -32.133467874319429 $318 32.133467874319429 $312 $372 forward 7 unknown #
straight-curve $-1 0 -32.133467874319429 -13.420702166827104 -1 0 0 I I #
vertex $-1 $226 $373 #
straight-curve $-1 0 32.133467874319429 -13.420702166827104 1 0 0 I I #
point $-1 66.96371349223304 32.133467874319429 -13.420702166827104 #
point $-1 66.96371349223304 -32.133467874319429 -13.420702166827104 #
straight-curve $-1 -66.96371349223304 0 13.420702166827104 0 -1 0 I I #
point $-1 -66.96371349223304 32.133467874319429 13.420702166827104 #
point $-1 -66.96371349223304 -32.133467874319429 13.420702166827104 #
straight-curve $-1 66.96371349223304 -32.133467874319429 0 0 0 -1 I I #
straight-curve $-1 66.96371349223304 32.133467874319429 0 0 0 -1 I I #
plane-surface $-1 66.96371349223304 0 0 -1 0 0 0 0 1 forward_v I I I I #
coedge $-1 $374 $331 $250 $336 forward $244 $-1 #
coedge $-1 $251 $246 $374 $375 forward $160 $-1 #
edge $-1 $260 -7.3112825086934663 $376 7.3112825086934663 $258 $377 forward 7 unknown #
coedge $-1 $328 $378 $247 $332 reversed $244 $-1 #
edge $-1 $339 -66.96371349223304 $334 66.96371349223304 $331 $379 forward 7 unknown #
coedge $-1 $258 $248 $378 $380 forward $259 $-1 #
vertex $-1 $249 $381 #
straight-curve $-1 66.96371349223304 -39.444750383012895 4.0476957687603159 0 1 0 I I #
edge $-1 $339 -3.9221773741799071 $337 3.9221773741799071 $250 $382 forward 7 unknown #
vertex $-1 $252 $383 #
straight-curve $-1 -66.96371349223304 -39.444750383012895 -3.7966589795994983 0 1 0 I I #
vertex $-1 $253 $384 #
straight-curve $-1 -66.96371349223304 -39.444750383012895 4.0476957687603159 0 -1 0 I I #
point $-1 -66.96371349223304 -32.133467874319429 -3.7966589795994983 #
straight-curve $-1 0 -32.133467874319429 -3.7966589795994983 -1 0 0 I I #
point $-1 66.96371349223304 -32.133467874319429 -3.7966589795994983 #
coedge $-1 $348 $269 $266 $345 reversed $264 $-1 #
edge $-1 $353 -66.96371349223304 $346 -59.156866382611497 $344 $385 forward 7 unknown #
vertex $-1 $270 $386 #
straight-curve $-1 59.156866382611497 13.991275606739443 13.42070216682712 0 -1 0 I I #
coedge $-1 $269 $344 $271 $350 forward $264 $-1 #
straight-curve $-1 15.27296793859005 32.133467874319429 71.656604005236545 -0.60181501223851219 0 0.79863551827123203 I I #
edge $-1 $353 -13.420702166827104 $272 -3.0606658422664843 $271 $387 forward 7 unknown #
point $-1 66.96371349223304 32.133467874319429 3.0606658422664843 #
point $-1 59.156866382611497 23.831634552638342 13.420702166827098 #
vertex $-1 $278 $388 #
straight-curve $-1 66.96371349223304 0 13.420702166827104 0 1 0 I I #
vertex $-1 $281 $389 #
point $-1 62.143023028466473 27.982551213478885 6.2973381846678791 #
edge $-1 $358 39.781284532407966 $361 49.392373635591056 $286 $390 forward 7 unknown #
vertex $-1 $300 $391 #
straight-curve $-1 -76.525302606570548 9.5695642057388675 13.420702166827105 -1 0 0 I I #
edge $-1 $361 -6.9730793913711722 $297 1.7801097626357816 $296 $392 forward 7 unknown #
vertex $-1 $360 $393 #
straight-curve $-1 -66.963713492233069 9.5695642057388675 3.8096130636439938 0.76604443648966558 0 0.64278761758704617 I I #
point $-1 -55.509663764676148 9.5695642057388675 13.420702166827104 #
point $-1 -66.96371349223304 0.81637505173191371 3.8096130636440177 #
straight-curve $-1 -66.96371349223304 0 13.420702166827104 0 -1 0 I I #
vertex $-1 $303 $394 #
point $-1 -58.283789184385057 3.3172862385910378 6.651752975643257 #
vertex $-1 $307 $395 #
point $-1 -58.283789184385057 7.0686530188797363 6.651752975643257 #
straight-curve $-1 -66.96371349223304 32.133467874319429 0 0 0 -1 I I #
point $-1 -66.96371349223304 -32.133467874319429 -13.420702166827104 #
straight-curve $-1 -66.96371349223304 0 -13.420702166827104 0 1 0 I I #
point $-1 -66.96371349223304 32.133467874319429 -13.420702166827104 #
coedge $-1 $378 $328 $329 $375 reversed $244 $-1 #
edge $-1 $376 -66.96371349223304 $337 66.96371349223304 $374 $396 forward 7 unknown #
vertex $-1 $380 $397 #
straight-curve $-1 66.96371349223304 -39.444750383012895 -3.7966589795994983 0 -1 0 I I #
coedge $-1 $331 $374 $333 $380 reversed $244 $-1 #
straight-curve $-1 0 -46.756032891706361 4.0476957687603159 1 0 0 I I #
edge $-1 $334 -3.9221773741799071 $376 3.9221773741799071 $333 $398 forward 7 unknown #
point $-1 66.96371349223304 -46.756032891706361 4.0476957687603159 #
straight-curve $-1 -66.96371349223304 -46.756032891706361 0.12551839458040881 0 0 -1 I I #
point $-1 -66.96371349223304 -46.756032891706361 -3.7966589795994983 #
point $-1 -66.96371349223304 -46.756032891706361 4.0476957687603159 #
straight-curve $-1 0 32.133467874319429 13.420702166827104 -1 0 0 I I #
point $-1 59.156866382611497 32.133467874319429 13.420702166827098 #
straight-curve $-1 66.96371349223304 32.133467874319429 0 0 0 -1 I I #
point $-1 66.96371349223304 32.133467874319429 13.420702166827104 #
point $-1 60.742572497956729 27.982551213478885 6.4941586907005986 #
straight-curve $-1 -66.96371349223304 9.5695642057388675 53.201986699235071 0 0 -1 I I #
point $-1 -66.96371349223304 9.5695642057388675 13.420702166827104 #
straight-curve $-1 -66.96371349223304 2.5964848143676953 3.8096130636440186 0 -1 0 I I #
point $-1 -66.96371349223304 9.5695642057388675 3.8096130636440177 #
point $-1 -58.407046003287675 3.3172862385910378 5.2429209215665455 #
point $-1 -58.407046003287675 7.0686530188797363 5.2429209215665455 #
straight-curve $-1 0 -46.756032891706361 -3.7966589795994983 -1 0 0 I I #
point $-1 66.96371349223304 -46.756032891706361 -3.7966589795994983 #
straight-curve $-1 66.96371349223304 -46.756032891706361 0.12551839458040881 0 0 -1 I I #
End-of-ACIS-data 