500 0 8 0           
7 Unknown 11 ACIS 5.0 NT 24 Thu Mar 25 22:39:34 1999 
-1 9.9999999999999995e-007 1e-010 
body $-1 $8 $-1 $9 #
body $-1 $10 $-1 $11 #
body $-1 $12 $-1 $13 #
body $-1 $14 $-1 $15 #
body $-1 $16 $-1 $17 #
body $-1 $18 $-1 $19 #
body $-1 $20 $-1 $21 #
body $-1 $22 $-1 $23 #
lump $-1 $-1 $24 $0 #
transform $-1 1 0 0 0 1 0 0 0 1 77.187414166692093 34.800647776994914 13.229917576478478 1 rotate no_reflect no_shear #
lump $-1 $-1 $25 $1 #
transform $-1 1 0 0 0 1 0 0 0 1 77.187414166692093 34.800647776994914 13.229917576478478 1 rotate no_reflect no_shear #
lump $-1 $-1 $26 $2 #
transform $-1 1 0 0 0 1 0 0 0 1 77.187414166692093 34.800647776994914 13.229917576478478 1 rotate no_reflect no_shear #
lump $-1 $-1 $27 $3 #
transform $-1 1 0 0 0 1 0 0 0 1 77.187414166692093 34.800647776994914 13.229917576478478 1 rotate no_reflect no_shear #
lump $-1 $-1 $28 $4 #
transform $-1 1 0 0 0 1 0 0 0 1 77.187414166692093 34.800647776994914 13.229917576478478 1 rotate no_reflect no_shear #
lump $-1 $-1 $29 $5 #
transform $-1 1 0 0 0 1 0 0 0 1 77.187414166692093 34.800647776994914 13.229917576478478 1 rotate no_reflect no_shear #
lump $-1 $-1 $30 $6 #
transform $-1 1 0 0 0 1 0 0 0 1 77.187414166692093 34.800647776994914 13.229917576478478 1 rotate no_reflect no_shear #
lump $-1 $-1 $31 $7 #
transform $-1 1 0 0 0 1 0 0 0 1 77.187414166692093 34.800647776994914 13.229917576478478 1 rotate no_reflect no_shear #
shell $-1 $-1 $-1 $32 $-1 $8 #
shell $-1 $-1 $-1 $33 $-1 $10 #
shell $-1 $-1 $-1 $34 $-1 $12 #
shell $-1 $-1 $-1 $35 $-1 $14 #
shell $-1 $-1 $-1 $36 $-1 $16 #
shell $-1 $-1 $-1 $37 $-1 $18 #
shell $-1 $-1 $-1 $38 $-1 $20 #
shell $-1 $-1 $-1 $39 $-1 $22 #
face $-1 $40 $41 $24 $-1 $42 forward single #
face $-1 $43 $44 $25 $-1 $45 reversed single #
face $-1 $46 $47 $26 $-1 $48 reversed single #
face $-1 $49 $50 $27 $-1 $51 forward single #
face $-1 $52 $53 $28 $-1 $54 forward single #
face $-1 $55 $56 $29 $-1 $57 reversed single #
face $-1 $58 $59 $30 $-1 $60 forward single #
face $-1 $61 $62 $31 $-1 $63 forward single #
face $-1 $64 $65 $24 $-1 $66 reversed single #
loop $-1 $-1 $67 $32 #
plane-surface $-1 0 0 13.229917576478478 0 0 1 1 0 0 forward_v I I I I #
face $-1 $68 $69 $25 $-1 $70 reversed single #
loop $-1 $-1 $71 $33 #
plane-surface $-1 -56.766254915017754 -29.443336654464154 0 1 0 0 0 0 -1 forward_v I I I I #
face $-1 $72 $73 $26 $-1 $74 reversed single #
loop $-1 $-1 $75 $34 #
plane-surface $-1 -172.23004992345051 -24.086025531933394 121.97902122287491 0 1 0 -0.61566148304635926 0 0.78801074757464917 forward_v I I I I #
face $-1 $76 $77 $27 $-1 $78 forward single #
loop $-1 $79 $80 $35 #
cone-surface $-1 -68.257906066703512 -21.895373025869251 5.9173590061349106 0.61566148304635926 0 -0.78801074757464917 0.78801074757464917 0 0.61566148304635926 1 I I 0 1 1 forward I I I I #
face $-1 $81 $82 $28 $-1 $83 forward single #
loop $-1 $84 $85 $36 #
cone-surface $-1 -68.257906066703512 -18.609394266773034 5.9173590061349106 0.61566148304635926 0 -0.78801074757464917 0.78801074757464917 0 0.61566148304635926 1 I I 0 1 1 forward I I I I #
face $-1 $86 $87 $29 $-1 $88 reversed single #
loop $-1 $-1 $89 $37 #
plane-surface $-1 50.581026041752324 -16.41874176070889 217.02165697963335 0 -1 0 -0.61566148304635926 0 -0.78801074757464917 forward_v I I I I #
face $-1 $90 $91 $30 $-1 $92 forward single #
loop $-1 $93 $94 $38 #
cone-surface $-1 68.257906066703541 -21.895373025869251 5.9173590061349177 -0.61566148304635926 0 -0.78801074757464917 0.78801074757464917 0 -0.61566148304635926 1 I I 0 1 1 forward I I I I #
face $-1 $95 $96 $31 $-1 $97 forward single #
loop $-1 $98 $99 $39 #
cone-surface $-1 68.257906066703541 -18.609394266773034 5.9173590061349177 -0.61566148304635926 0 -0.78801074757464917 0.78801074757464917 0 -0.61566148304635926 1 I I 0 1 1 forward I I I I #
face $-1 $100 $101 $24 $-1 $102 reversed single #
loop $-1 $-1 $103 $40 #
plane-surface $-1 0 0 -13.229917576478478 0 0 1 1 0 0 forward_v I I I I #
coedge $-1 $104 $105 $106 $107 forward $41 $-1 #
face $-1 $108 $109 $25 $-1 $110 reversed single #
loop $-1 $-1 $111 $43 #
plane-surface $-1 -53.746916964376446 -24.086025531933394 0 0 -1 0 0 0 -1 forward_v I I I I #
coedge $-1 $112 $113 $114 $115 forward $44 $-1 #
face $-1 $116 $117 $26 $-1 $118 reversed single #
loop $-1 $-1 $119 $46 #
plane-surface $-1 -77.187414166692079 -20.252383646321142 0.32999734117670698 -0.61566148304635926 0 0.78801074757464917 0.78801074757464917 0 0.61566148304635926 forward_v I I I I #
coedge $-1 $120 $121 $122 $123 reversed $47 $-1 #
face $-1 $-1 $124 $27 $-1 $125 forward single #
loop $-1 $126 $127 $49 #
cone-surface $-1 -67.276139539034261 -21.895373025869251 4.6607551796548989 0.61566148304635926 0 -0.78801074757464917 0.39400537378732459 0 0.30783074152317963 1 I I -0.70710678118654746 0.70710678118654746 0.5 forward I I I I #
loop $-1 $-1 $128 $35 #
coedge $-1 $80 $80 $129 $130 reversed $50 $-1 #
face $-1 $-1 $131 $28 $-1 $132 forward single #
loop $-1 $133 $134 $52 #
cone-surface $-1 -67.276139539034261 -18.609394266773034 4.6607551796548989 0.61566148304635926 0 -0.78801074757464917 0.39400537378732459 0 0.30783074152317963 1 I I -0.70710678118654746 0.70710678118654746 0.5 forward I I I I #
loop $-1 $-1 $135 $36 #
coedge $-1 $85 $85 $136 $137 reversed $53 $-1 #
face $-1 $138 $139 $29 $-1 $140 reversed single #
loop $-1 $-1 $141 $55 #
plane-surface $-1 -44.461609715006105 -20.252383646321142 95.37263309793515 0.61566148304635926 0 0.78801074757464917 0.78801074757464917 0 -0.61566148304635926 forward_v I I I I #
coedge $-1 $142 $143 $144 $145 reversed $56 $-1 #
face $-1 $-1 $146 $30 $-1 $147 forward single #
loop $-1 $148 $149 $58 #
cone-surface $-1 67.27613953903429 -21.895373025869251 4.660755179654906 -0.61566148304635926 0 -0.78801074757464917 0.39400537378732459 0 -0.30783074152317963 1 I I -0.70710678118654746 0.70710678118654746 0.5 forward I I I I #
loop $-1 $-1 $150 $38 #
coedge $-1 $94 $94 $151 $152 reversed $59 $-1 #
face $-1 $-1 $153 $31 $-1 $154 forward single #
loop $-1 $155 $156 $61 #
cone-surface $-1 67.27613953903429 -18.609394266773034 4.660755179654906 -0.61566148304635926 0 -0.78801074757464917 0.39400537378732459 0 -0.30783074152317963 1 I I -0.70710678118654746 0.70710678118654746 0.5 forward I I I I #
loop $-1 $-1 $157 $39 #
coedge $-1 $99 $99 $158 $159 reversed $62 $-1 #
face $-1 $160 $161 $24 $-1 $162 reversed single #
loop $-1 $-1 $163 $64 #
plane-surface $-1 0 -34.800647776994914 0 0 1 0 0 0 1 forward_v I I I I #
coedge $-1 $164 $165 $166 $167 forward $65 $-1 #
coedge $-1 $168 $67 $169 $170 forward $41 $-1 #
coedge $-1 $67 $168 $171 $172 forward $41 $-1 #
coedge $-1 $173 $174 $67 $107 reversed $175 $-1 #
edge $-1 $176 -34.800647776994914 $177 34.800647776994914 $106 $178 forward 7 unknown #
face $-1 $179 $180 $25 $-1 $181 forward single #
loop $-1 $-1 $182 $68 #
plane-surface $-1 -50.727579013735138 -29.443336654464154 0 -1 0 0 0 0 1 forward_v I I I I #
coedge $-1 $183 $184 $185 $186 forward $69 $-1 #
coedge $-1 $187 $71 $188 $189 reversed $44 $-1 #
coedge $-1 $71 $187 $190 $191 reversed $44 $-1 #
coedge $-1 $184 $183 $71 $115 reversed $69 $-1 #
edge $-1 $192 -13.229917576478478 $193 13.229917576478478 $114 $194 forward 7 unknown #
face $-1 $195 $196 $26 $-1 $197 reversed single #
loop $-1 $-1 $198 $72 #
plane-surface $-1 -172.23004992345051 -16.41874176070889 121.97902122287491 0 -1 0 0.61566148304635926 0 -0.78801074757464917 forward_v I I I I #
coedge $-1 $199 $200 $201 $202 reversed $73 $-1 #
coedge $-1 $121 $75 $203 $204 reversed $47 $-1 #
coedge $-1 $75 $120 $199 $205 reversed $47 $-1 #
coedge $-1 $201 $206 $75 $123 forward $207 $-1 #
edge $-1 $208 8.9276107950331607 $209 25.438755422718202 $122 $210 forward 7 unknown #
loop $-1 $-1 $129 $76 #
plane-surface $-1 -77.187414166692079 -20.252383646321142 0.32999734117670698 -0.61566148304635926 0 0.78801074757464917 0.78801074757464917 0 0.61566148304635926 forward_v I I I I #
loop $-1 $-1 $211 $49 #
coedge $-1 $127 $127 $128 $212 reversed $77 $-1 #
coedge $-1 $128 $128 $127 $212 forward $79 $-1 #
coedge $-1 $129 $129 $80 $130 forward $124 $-1 #
edge $-1 $213 0 $213 6.2831853071796004 $129 $214 forward 7 unknown #
loop $-1 $-1 $136 $81 #
plane-surface $-1 -77.187414166692079 -20.252383646321142 0.32999734117670698 -0.61566148304635926 0 0.78801074757464917 0.78801074757464917 0 0.61566148304635926 forward_v I I I I #
loop $-1 $-1 $215 $52 #
coedge $-1 $134 $134 $135 $216 reversed $82 $-1 #
coedge $-1 $135 $135 $134 $216 forward $84 $-1 #
coedge $-1 $136 $136 $85 $137 forward $131 $-1 #
edge $-1 $217 0 $217 6.2831853071796004 $136 $218 forward 7 unknown #
face $-1 $219 $220 $29 $-1 $221 forward single #
loop $-1 $-1 $222 $86 #
plane-surface $-1 50.581026041752324 -24.086025531933394 217.02165697963335 0 1 0 0.61566148304635926 0 0.78801074757464917 forward_v I I I I #
coedge $-1 $223 $224 $225 $226 reversed $87 $-1 #
coedge $-1 $143 $89 $227 $228 reversed $56 $-1 #
coedge $-1 $89 $142 $223 $229 reversed $56 $-1 #
coedge $-1 $225 $230 $89 $145 forward $220 $-1 #
edge $-1 $231 -51.896901145815931 $232 -35.385756518130918 $144 $233 forward 7 unknown #
loop $-1 $-1 $151 $90 #
plane-surface $-1 -44.461609715006105 -20.252383646321142 95.37263309793515 0.61566148304635926 0 0.78801074757464917 0.78801074757464917 0 -0.61566148304635926 forward_v I I I I #
loop $-1 $-1 $234 $58 #
coedge $-1 $149 $149 $150 $235 reversed $91 $-1 #
coedge $-1 $150 $150 $149 $235 forward $93 $-1 #
coedge $-1 $151 $151 $94 $152 forward $146 $-1 #
edge $-1 $236 0 $236 6.2831853071796004 $151 $237 forward 7 unknown #
loop $-1 $-1 $158 $95 #
plane-surface $-1 -44.461609715006105 -20.252383646321142 95.37263309793515 0.61566148304635926 0 0.78801074757464917 0.78801074757464917 0 -0.61566148304635926 forward_v I I I I #
loop $-1 $-1 $238 $61 #
coedge $-1 $156 $156 $157 $239 reversed $96 $-1 #
coedge $-1 $157 $157 $156 $239 forward $98 $-1 #
coedge $-1 $158 $158 $99 $159 forward $153 $-1 #
edge $-1 $240 0 $240 6.2831853071796004 $158 $241 forward 7 unknown #
face $-1 $242 $243 $24 $-1 $244 reversed single #
loop $-1 $-1 $245 $100 #
plane-surface $-1 -77.187414166692093 0 0 1 0 0 0 0 -1 forward_v I I I I #
coedge $-1 $246 $171 $247 $248 forward $101 $-1 #
coedge $-1 $249 $103 $246 $250 forward $65 $-1 #
coedge $-1 $103 $249 $251 $252 forward $65 $-1 #
coedge $-1 $174 $173 $103 $167 reversed $175 $-1 #
edge $-1 $253 -34.800647776994914 $254 34.800647776994914 $166 $255 forward 7 unknown #
coedge $-1 $105 $104 $256 $257 forward $41 $-1 #
coedge $-1 $258 $259 $104 $170 reversed $243 $-1 #
edge $-1 $177 -77.187414166692093 $260 77.187414166692093 $169 $261 forward 7 unknown #
coedge $-1 $163 $262 $105 $172 reversed $101 $-1 #
edge $-1 $263 -77.187414166692093 $176 77.187414166692093 $171 $264 forward 7 unknown #
coedge $-1 $166 $106 $262 $265 forward $175 $-1 #
coedge $-1 $106 $166 $258 $266 reversed $175 $-1 #
loop $-1 $-1 $173 $242 #
vertex $-1 $107 $267 #
vertex $-1 $107 $268 #
straight-curve $-1 77.187414166692093 0 13.229917576478478 0 1 0 I I #
face $-1 $269 $270 $25 $-1 $271 reversed single #
loop $-1 $-1 $272 $108 #
plane-surface $-1 0 0 13.229917576478478 0 0 1 1 0 0 forward_v I I I I #
coedge $-1 $273 $274 $275 $276 reversed $109 $-1 #
coedge $-1 $114 $111 $277 $278 reversed $69 $-1 #
coedge $-1 $111 $114 $279 $280 reversed $69 $-1 #
coedge $-1 $274 $273 $111 $186 reversed $109 $-1 #
edge $-1 $281 -13.229917576478478 $282 13.229917576478478 $185 $283 forward 7 unknown #
coedge $-1 $113 $112 $284 $285 reversed $44 $-1 #
coedge $-1 $277 $286 $112 $189 forward $270 $-1 #
edge $-1 $287 -20.078979449762837 $193 -9.3643572047013173 $188 $288 forward 7 unknown #
coedge $-1 $289 $279 $113 $191 forward $180 $-1 #
edge $-1 $192 9.3643572047013173 $290 20.078979449762837 $190 $291 forward 7 unknown #
vertex $-1 $191 $292 #
vertex $-1 $189 $293 #
straight-curve $-1 -56.766254915017754 -24.086025531933394 0 0 0 -1 I I #
face $-1 $-1 $207 $26 $-1 $294 forward single #
loop $-1 $-1 $295 $116 #
plane-surface $-1 -77.187414166692093 0 0 1 0 0 0 0 -1 forward_v I I I I #
coedge $-1 $296 $297 $298 $299 reversed $117 $-1 #
coedge $-1 $300 $119 $121 $205 forward $73 $-1 #
coedge $-1 $119 $300 $296 $301 forward $73 $-1 #
coedge $-1 $298 $122 $119 $202 forward $207 $-1 #
edge $-1 $209 -13.959833708772823 $302 -6.2925499375483191 $201 $303 forward 7 unknown #
coedge $-1 $304 $305 $120 $204 forward $196 $-1 #
edge $-1 $306 -60.65951327026076 $208 -47.759593034958975 $203 $307 forward 7 unknown #
edge $-1 $209 -20.95294344462086 $306 1.8033521786330445e-014 $121 $308 forward 7 unknown #
coedge $-1 $122 $298 $304 $309 forward $207 $-1 #
loop $-1 $-1 $298 $195 #
vertex $-1 $204 $310 #
vertex $-1 $123 $311 #
straight-curve $-1 -86.115024961725254 -24.086025531933394 13.229917576478478 1 0 0 I I #
coedge $-1 $211 $211 $-1 $312 reversed $126 $-1 #
edge $-1 $313 0 $313 6.2831853071796004 $127 $314 forward 7 unknown #
vertex $-1 $130 $315 #
ellipse-curve $-1 -68.931841852849573 -21.895373025869251 6.7799574588275853 -0.61566148304635926 0 0.78801074757464917 0.78801074757464917 0 0.61566148304635926 1 I I #
coedge $-1 $215 $215 $-1 $316 reversed $133 $-1 #
edge $-1 $317 0 $317 6.2831853071796004 $134 $318 forward 7 unknown #
vertex $-1 $137 $319 #
ellipse-curve $-1 -68.931841852849573 -18.609394266773034 6.7799574588275853 -0.61566148304635926 0 0.78801074757464917 0.78801074757464917 0 0.61566148304635926 1 I I #
face $-1 $-1 $320 $29 $-1 $321 reversed single #
loop $-1 $-1 $144 $138 #
plane-surface $-1 0 0 13.229917576478478 0 0 1 1 0 0 forward_v I I I I #
coedge $-1 $322 $323 $324 $325 reversed $139 $-1 #
coedge $-1 $326 $141 $143 $229 forward $87 $-1 #
coedge $-1 $141 $326 $322 $327 forward $87 $-1 #
coedge $-1 $324 $144 $141 $226 forward $220 $-1 #
edge $-1 $232 6.2925499375483191 $328 13.959833708772823 $225 $329 forward 7 unknown #
coedge $-1 $330 $331 $142 $228 forward $320 $-1 #
edge $-1 $332 -108.18083114863995 $231 -95.280910913338204 $227 $333 forward 7 unknown #
edge $-1 $232 133.42188488876334 $332 154.37482833338419 $143 $334 forward 7 unknown #
coedge $-1 $144 $324 $330 $335 forward $220 $-1 #
vertex $-1 $228 $336 #
vertex $-1 $145 $337 #
straight-curve $-1 25.290513020876162 -16.41874176070889 13.229917576478485 -1 0 0 I I #
coedge $-1 $234 $234 $-1 $338 reversed $148 $-1 #
edge $-1 $339 0 $339 6.2831853071796004 $149 $340 forward 7 unknown #
vertex $-1 $152 $341 #
ellipse-curve $-1 68.931841852849615 -21.895373025869251 6.779957458827603 0.61566148304635926 0 0.78801074757464917 0.78801074757464917 0 -0.61566148304635926 1 I I #
coedge $-1 $238 $238 $-1 $342 reversed $155 $-1 #
edge $-1 $343 0 $343 6.2831853071796004 $156 $344 forward 7 unknown #
vertex $-1 $159 $345 #
ellipse-curve $-1 68.931841852849615 -18.609394266773034 6.779957458827603 0.61566148304635926 0 0.78801074757464917 0.78801074757464917 0 -0.61566148304635926 1 I I #
face $-1 $-1 $175 $24 $-1 $346 reversed single #
loop $-1 $-1 $258 $160 #
plane-surface $-1 0 34.800647776994914 0 0 -1 0 0 0 -1 forward_v I I I I #
coedge $-1 $347 $256 $259 $348 forward $161 $-1 #
coedge $-1 $262 $163 $164 $250 reversed $101 $-1 #
coedge $-1 $256 $347 $163 $248 reversed $161 $-1 #
edge $-1 $263 -13.229917576478478 $349 13.229917576478478 $247 $350 forward 7 unknown #
coedge $-1 $165 $164 $347 $351 forward $65 $-1 #
edge $-1 $254 -77.187414166692093 $349 77.187414166692093 $246 $352 forward 7 unknown #
coedge $-1 $259 $258 $165 $252 reversed $243 $-1 #
edge $-1 $353 -77.187414166692093 $253 77.187414166692093 $251 $354 forward 7 unknown #
vertex $-1 $167 $355 #
vertex $-1 $265 $356 #
straight-curve $-1 77.187414166692093 0 -13.229917576478478 0 -1 0 I I #
coedge $-1 $245 $247 $168 $257 reversed $161 $-1 #
edge $-1 $260 -34.800647776994914 $263 34.800647776994914 $256 $357 forward 7 unknown #
coedge $-1 $251 $169 $174 $266 forward $243 $-1 #
coedge $-1 $169 $251 $245 $348 reversed $243 $-1 #
vertex $-1 $170 $358 #
straight-curve $-1 0 34.800647776994914 13.229917576478478 -1 0 0 I I #
coedge $-1 $171 $246 $173 $265 reversed $101 $-1 #
vertex $-1 $257 $359 #
straight-curve $-1 0 -34.800647776994914 13.229917576478478 1 0 0 I I #
edge $-1 $176 -13.229917576478478 $254 13.229917576478478 $173 $360 forward 7 unknown #
edge $-1 $177 -13.229917576478478 $253 13.229917576478478 $174 $361 forward 7 unknown #
point $-1 77.187414166692093 -34.800647776994914 13.229917576478478 #
point $-1 77.187414166692093 34.800647776994914 13.229917576478478 #
face $-1 $-1 $362 $25 $-1 $363 reversed single #
loop $-1 $-1 $364 $179 #
plane-surface $-1 0 0 -13.229917576478478 0 0 1 1 0 0 forward_v I I I I #
coedge $-1 $279 $289 $274 $365 forward $180 $-1 #
coedge $-1 $185 $182 $364 $366 reversed $109 $-1 #
coedge $-1 $182 $185 $272 $365 reversed $109 $-1 #
coedge $-1 $367 $368 $182 $276 forward $362 $-1 #
edge $-1 $369 -13.229917576478478 $370 13.229917576478478 $275 $371 forward 7 unknown #
coedge $-1 $364 $188 $183 $278 forward $270 $-1 #
edge $-1 $193 -29.892796432829531 $282 -23.854120531546915 $277 $372 forward 7 unknown #
coedge $-1 $190 $272 $184 $280 forward $180 $-1 #
edge $-1 $281 23.854120531546915 $192 29.892796432829531 $279 $373 forward 7 unknown #
vertex $-1 $280 $374 #
vertex $-1 $278 $375 #
straight-curve $-1 -50.727579013735138 -24.086025531933394 0 0 0 -1 I I #
coedge $-1 $368 $367 $187 $285 forward $362 $-1 #
edge $-1 $290 -13.229917576478478 $287 13.229917576478478 $284 $376 forward 7 unknown #
coedge $-1 $188 $364 $368 $377 forward $270 $-1 #
vertex $-1 $189 $378 #
straight-curve $-1 -56.766254915017754 -14.721668327232077 -13.229917576478478 0 1 0 I I #
coedge $-1 $272 $190 $367 $379 forward $180 $-1 #
vertex $-1 $379 $380 #
straight-curve $-1 -56.766254915017754 -14.721668327232077 13.229917576478478 0 -1 0 I I #
point $-1 -56.766254915017754 -24.086025531933394 13.229917576478478 #
point $-1 -56.766254915017754 -24.086025531933394 -13.229917576478478 #
plane-surface $-1 0 0 13.229917576478478 0 0 1 1 0 0 forward_v I I I I #
coedge $-1 $305 $304 $297 $381 forward $196 $-1 #
coedge $-1 $297 $198 $200 $301 reversed $117 $-1 #
coedge $-1 $198 $296 $295 $381 reversed $117 $-1 #
coedge $-1 $206 $201 $198 $299 forward $207 $-1 #
edge $-1 $302 -25.438755422718202 $382 -8.9276107950331607 $298 $383 forward 7 unknown #
coedge $-1 $200 $199 $305 $384 reversed $73 $-1 #
edge $-1 $385 -1.8033521786330445e-014 $302 20.95294344462086 $296 $386 forward 7 unknown #
vertex $-1 $202 $387 #
straight-curve $-1 -60.676269539007052 -10.126191823160571 13.229917576478478 0 1 0 I I #
coedge $-1 $295 $203 $206 $309 reversed $196 $-1 #
coedge $-1 $203 $295 $300 $384 forward $196 $-1 #
vertex $-1 $204 $388 #
straight-curve $-1 -77.187414166692093 -24.086025531933394 60.989510611437453 0 0 1 I I #
straight-curve $-1 -77.187414166692079 -24.086025531933394 0.32999734117670698 -0.78801074757464917 0 -0.61566148304635926 I I #
edge $-1 $382 16.41874176070889 $208 24.086025531933394 $304 $389 forward 7 unknown #
point $-1 -77.187414166692093 -24.086025531933394 13.229917576478478 #
point $-1 -60.676269539007052 -24.086025531933394 13.229917576478478 #
edge $-1 $390 1 $390 0 $211 $-1 forward 7 unknown #
vertex $-1 $212 $391 #
ellipse-curve $-1 -67.583970280557438 -21.895373025869251 5.0547605534422235 -0.61566148304635926 0 0.78801074757464917 0.78801074757464917 0 0.61566148304635926 1 I I #
point $-1 -68.143831105274941 -21.895373025869251 7.3956189418739573 #
edge $-1 $392 1 $392 0 $215 $-1 forward 7 unknown #
vertex $-1 $216 $393 #
ellipse-curve $-1 -67.583970280557438 -18.609394266773034 5.0547605534422235 -0.61566148304635926 0 0.78801074757464917 0.78801074757464917 0 0.61566148304635926 1 I I #
point $-1 -68.143831105274941 -18.609394266773034 7.3956189418739573 #
loop $-1 $-1 $227 $219 #
plane-surface $-1 77.187414166692093 0 0 -1 0 0 0 0 1 forward_v I I I I #
coedge $-1 $323 $222 $224 $327 reversed $139 $-1 #
coedge $-1 $222 $322 $394 $395 reversed $139 $-1 #
coedge $-1 $230 $225 $222 $325 forward $220 $-1 #
edge $-1 $328 35.385756518130918 $396 51.896901145815931 $324 $397 forward 7 unknown #
coedge $-1 $224 $223 $331 $398 reversed $87 $-1 #
edge $-1 $399 -154.37482833338419 $328 -133.42188488876334 $322 $400 forward 7 unknown #
vertex $-1 $226 $401 #
straight-curve $-1 60.676269539007109 -10.126191823160571 13.229917576478478 0 -1 0 I I #
coedge $-1 $394 $227 $230 $335 reversed $320 $-1 #
coedge $-1 $227 $394 $326 $398 forward $320 $-1 #
vertex $-1 $228 $402 #
straight-curve $-1 77.187414166692093 -16.41874176070889 108.51082848981667 0 0 1 I I #
straight-curve $-1 -44.461609715006105 -16.41874176070889 95.37263309793515 0.78801074757464917 0 -0.61566148304635926 I I #
edge $-1 $396 -24.086025531933394 $231 -16.41874176070889 $330 $403 forward 7 unknown #
point $-1 77.187414166692093 -16.41874176070889 13.229917576478478 #
point $-1 60.67626953900708 -16.41874176070889 13.229917576478485 #
edge $-1 $404 1 $404 0 $234 $-1 forward 7 unknown #
vertex $-1 $235 $405 #
ellipse-curve $-1 67.583970280557466 -21.895373025869251 5.0547605534422306 0.61566148304635926 0 0.78801074757464917 0.78801074757464917 0 -0.61566148304635926 1 I I #
point $-1 69.719852600424261 -21.895373025869251 6.164295975781247 #
edge $-1 $406 1 $406 0 $238 $-1 forward 7 unknown #
vertex $-1 $239 $407 #
ellipse-curve $-1 67.583970280557466 -18.609394266773034 5.0547605534422306 0.61566148304635926 0 0.78801074757464917 0.78801074757464917 0 -0.61566148304635926 1 I I #
point $-1 69.719852600424261 -18.609394266773034 6.164295975781247 #
plane-surface $-1 77.187414166692093 0 0 -1 0 0 0 0 1 forward_v I I I I #
coedge $-1 $247 $245 $249 $351 reversed $161 $-1 #
edge $-1 $260 -13.229917576478478 $353 13.229917576478478 $259 $408 forward 7 unknown #
vertex $-1 $351 $409 #
straight-curve $-1 -77.187414166692093 -34.800647776994914 0 0 0 -1 I I #
edge $-1 $349 -34.800647776994914 $353 34.800647776994914 $347 $410 forward 7 unknown #
straight-curve $-1 0 -34.800647776994914 -13.229917576478478 -1 0 0 I I #
vertex $-1 $252 $411 #
straight-curve $-1 0 34.800647776994914 -13.229917576478478 1 0 0 I I #
point $-1 77.187414166692093 34.800647776994914 -13.229917576478478 #
point $-1 77.187414166692093 -34.800647776994914 -13.229917576478478 #
straight-curve $-1 -77.187414166692093 0 13.229917576478478 0 -1 0 I I #
point $-1 -77.187414166692093 34.800647776994914 13.229917576478478 #
point $-1 -77.187414166692093 -34.800647776994914 13.229917576478478 #
straight-curve $-1 77.187414166692093 -34.800647776994914 0 0 0 -1 I I #
straight-curve $-1 77.187414166692093 34.800647776994914 0 0 0 -1 I I #
loop $-1 $-1 $275 $269 #
plane-surface $-1 0 -34.800647776994914 0 0 1 0 0 0 1 forward_v I I I I #
coedge $-1 $286 $277 $273 $366 forward $270 $-1 #
edge $-1 $370 -20.078979449762837 $281 -9.3643572047013173 $272 $412 forward 7 unknown #
edge $-1 $282 9.3643572047013173 $369 20.078979449762837 $364 $413 forward 7 unknown #
coedge $-1 $284 $275 $289 $379 reversed $362 $-1 #
coedge $-1 $275 $284 $286 $377 reversed $362 $-1 #
vertex $-1 $377 $414 #
vertex $-1 $276 $415 #
straight-curve $-1 -50.727579013735138 -34.800647776994914 0 0 0 1 I I #
straight-curve $-1 -26.873458482188223 -24.086025531933394 -13.229917576478478 1 0 0 I I #
straight-curve $-1 -26.873458482188223 -24.086025531933394 13.229917576478478 -1 0 0 I I #
point $-1 -50.727579013735138 -24.086025531933394 13.229917576478478 #
point $-1 -50.727579013735138 -24.086025531933394 -13.229917576478478 #
straight-curve $-1 -56.766254915017754 -34.800647776994914 0 0 0 -1 I I #
edge $-1 $369 50.727579013735138 $287 56.766254915017754 $368 $416 forward 7 unknown #
point $-1 -56.766254915017754 -34.800647776994914 -13.229917576478478 #
edge $-1 $290 -56.766254915017754 $370 -50.727579013735138 $367 $417 forward 7 unknown #
point $-1 -56.766254915017754 -34.800647776994914 13.229917576478478 #
edge $-1 $382 47.759593034958975 $385 60.65951327026076 $295 $418 forward 7 unknown #
vertex $-1 $309 $419 #
straight-curve $-1 -86.115024961725254 -16.41874176070889 13.229917576478478 -1 0 0 I I #
edge $-1 $385 6.2925499375483191 $306 13.959833708772823 $305 $420 forward 7 unknown #
vertex $-1 $384 $421 #
straight-curve $-1 -77.187414166692079 -16.41874176070889 0.32999734117670698 0.78801074757464917 0 0.61566148304635926 I I #
point $-1 -60.676269539007052 -16.41874176070889 13.229917576478478 #
point $-1 -77.187414166692093 -24.086025531933394 0.32999734117669588 #
straight-curve $-1 -77.187414166692093 0 13.229917576478478 0 -1 0 I I #
vertex $-1 $312 $422 #
point $-1 -66.795959532982792 -21.895373025869251 5.6704220364885831 #
vertex $-1 $316 $423 #
point $-1 -66.795959532982792 -18.609394266773034 5.6704220364885831 #
coedge $-1 $331 $330 $323 $395 forward $320 $-1 #
edge $-1 $396 95.280910913338204 $399 108.18083114863995 $394 $424 forward 7 unknown #
vertex $-1 $335 $425 #
straight-curve $-1 25.290513020876162 -24.086025531933394 13.229917576478485 1 0 0 I I #
edge $-1 $399 -13.959833708772823 $332 -6.2925499375483191 $331 $426 forward 7 unknown #
vertex $-1 $398 $427 #
straight-curve $-1 -44.461609715006105 -24.086025531933394 95.37263309793515 -0.78801074757464917 0 0.61566148304635926 I I #
point $-1 60.67626953900708 -24.086025531933394 13.229917576478485 #
point $-1 77.187414166692093 -16.41874176070889 0.32999734117672119 #
straight-curve $-1 77.187414166692093 0 13.229917576478478 0 1 0 I I #
vertex $-1 $338 $428 #
point $-1 68.371981028132112 -21.895373025869251 4.439099070395871 #
vertex $-1 $342 $429 #
point $-1 68.371981028132112 -18.609394266773034 4.439099070395871 #
straight-curve $-1 -77.187414166692093 34.800647776994914 0 0 0 -1 I I #
point $-1 -77.187414166692093 -34.800647776994914 -13.229917576478478 #
straight-curve $-1 -77.187414166692093 0 -13.229917576478478 0 1 0 I I #
point $-1 -77.187414166692093 34.800647776994914 -13.229917576478478 #
straight-curve $-1 -50.727579013735138 -14.721668327232077 13.229917576478478 0 1 0 I I #
straight-curve $-1 -50.727579013735138 -14.721668327232077 -13.229917576478478 0 -1 0 I I #
point $-1 -50.727579013735138 -34.800647776994914 -13.229917576478478 #
point $-1 -50.727579013735138 -34.800647776994914 13.229917576478478 #
straight-curve $-1 0 -34.800647776994914 -13.229917576478478 -1 0 0 I I #
straight-curve $-1 0 -34.800647776994914 13.229917576478478 1 0 0 I I #
straight-curve $-1 -77.187414166692093 -16.41874176070889 60.989510611437453 0 0 -1 I I #
point $-1 -77.187414166692093 -16.41874176070889 13.229917576478478 #
straight-curve $-1 -77.187414166692093 -10.126191823160571 0.32999734117670498 0 -1 0 I I #
point $-1 -77.187414166692093 -16.41874176070889 0.32999734117669588 #
point $-1 -66.968308797511085 -21.895373025869251 4.2667498058675744 #
point $-1 -66.968308797511085 -18.609394266773034 4.2667498058675744 #
straight-curve $-1 77.187414166692093 -24.086025531933394 108.51082848981667 0 0 -1 I I #
point $-1 77.187414166692093 -24.086025531933394 13.229917576478478 #
straight-curve $-1 77.187414166692093 -10.126191823160571 0.3299973411767283 0 1 0 I I #
point $-1 77.187414166692093 -24.086025531933394 0.32999734117672119 #
point $-1 66.968308797511114 -21.895373025869251 4.2667498058675815 #
point $-1 66.968308797511114 -18.609394266773034 4.2667498058675815 #
End-of-ACIS-data 