500 0 18 0           
7 Unknown 11 ACIS 5.0 NT 24 Fri Mar 26 02:36:37 1999 
-1 9.9999999999999995e-007 1e-010 
body $-1 $18 $-1 $19 #
body $-1 $20 $-1 $21 #
body $-1 $22 $-1 $23 #
body $-1 $24 $-1 $25 #
body $-1 $26 $-1 $27 #
body $-1 $28 $-1 $29 #
body $-1 $30 $-1 $31 #
body $-1 $32 $-1 $33 #
body $-1 $34 $-1 $35 #
body $-1 $36 $-1 $37 #
body $-1 $38 $-1 $39 #
body $-1 $40 $-1 $41 #
body $-1 $42 $-1 $43 #
body $-1 $44 $-1 $45 #
body $-1 $46 $-1 $47 #
body $-1 $48 $-1 $49 #
body $-1 $50 $-1 $51 #
body $-1 $52 $-1 $53 #
lump $-1 $-1 $54 $0 #
transform $-1 1 0 0 0 1 0 0 0 1 48.407238990447709 21.824844013110177 9.1066621077562058 1 rotate no_reflect no_shear #
lump $-1 $-1 $55 $1 #
transform $-1 1 0 0 0 1 0 0 0 1 48.407238990447709 21.824844013110177 9.1066621077562058 1 rotate no_reflect no_shear #
lump $-1 $-1 $56 $2 #
transform $-1 1 0 0 0 1 0 0 0 1 48.407238990447709 21.824844013110177 9.1066621077562058 1 rotate no_reflect no_shear #
lump $-1 $-1 $57 $3 #
transform $-1 1 0 0 0 1 0 0 0 1 48.407238990447709 21.824844013110177 9.1066621077562058 1 rotate no_reflect no_shear #
lump $-1 $-1 $58 $4 #
transform $-1 1 0 0 0 1 0 0 0 1 48.407238990447709 21.824844013110177 9.1066621077562058 1 rotate no_reflect no_shear #
lump $-1 $-1 $59 $5 #
transform $-1 1 0 0 0 1 0 0 0 1 48.407238990447709 21.824844013110177 9.1066621077562058 1 rotate no_reflect no_shear #
lump $-1 $-1 $60 $6 #
transform $-1 1 0 0 0 1 0 0 0 1 48.407238990447709 21.824844013110177 9.1066621077562058 1 rotate no_reflect no_shear #
lump $-1 $-1 $61 $7 #
transform $-1 1 0 0 0 1 0 0 0 1 48.407238990447709 21.824844013110177 9.1066621077562058 1 rotate no_reflect no_shear #
lump $-1 $-1 $62 $8 #
transform $-1 1 0 0 0 1 0 0 0 1 48.407238990447709 21.824844013110177 9.1066621077562058 1 rotate no_reflect no_shear #
lump $-1 $-1 $63 $9 #
transform $-1 1 0 0 0 1 0 0 0 1 48.407238990447709 21.824844013110177 9.1066621077562058 1 rotate no_reflect no_shear #
lump $-1 $-1 $64 $10 #
transform $-1 1 0 0 0 1 0 0 0 1 48.407238990447709 21.824844013110177 9.1066621077562058 1 rotate no_reflect no_shear #
lump $-1 $-1 $65 $11 #
transform $-1 1 0 0 0 1 0 0 0 1 48.407238990447709 21.824844013110177 9.1066621077562058 1 rotate no_reflect no_shear #
lump $-1 $-1 $66 $12 #
transform $-1 1 0 0 0 1 0 0 0 1 48.407238990447709 21.824844013110177 9.1066621077562058 1 rotate no_reflect no_shear #
lump $-1 $-1 $67 $13 #
transform $-1 1 0 0 0 1 0 0 0 1 48.407238990447709 21.824844013110177 9.1066621077562058 1 rotate no_reflect no_shear #
lump $-1 $-1 $68 $14 #
transform $-1 1 0 0 0 1 0 0 0 1 48.407238990447709 21.824844013110177 9.1066621077562058 1 rotate no_reflect no_shear #
lump $-1 $-1 $69 $15 #
transform $-1 1 0 0 0 1 0 0 0 1 48.407238990447709 21.824844013110177 9.1066621077562058 1 rotate no_reflect no_shear #
lump $-1 $-1 $70 $16 #
transform $-1 1 0 0 0 1 0 0 0 1 48.407238990447709 21.824844013110177 9.1066621077562058 1 rotate no_reflect no_shear #
lump $-1 $-1 $71 $17 #
transform $-1 1 0 0 0 1 0 0 0 1 48.407238990447709 21.824844013110177 9.1066621077562058 1 rotate no_reflect no_shear #
shell $-1 $-1 $-1 $72 $-1 $18 #
shell $-1 $-1 $-1 $73 $-1 $20 #
shell $-1 $-1 $-1 $74 $-1 $22 #
shell $-1 $-1 $-1 $75 $-1 $24 #
shell $-1 $-1 $-1 $76 $-1 $26 #
shell $-1 $-1 $-1 $77 $-1 $28 #
shell $-1 $-1 $-1 $78 $-1 $30 #
shell $-1 $-1 $-1 $79 $-1 $32 #
shell $-1 $-1 $-1 $80 $-1 $34 #
shell $-1 $-1 $-1 $81 $-1 $36 #
shell $-1 $-1 $-1 $82 $-1 $38 #
shell $-1 $-1 $-1 $83 $-1 $40 #
shell $-1 $-1 $-1 $84 $-1 $42 #
shell $-1 $-1 $-1 $85 $-1 $44 #
shell $-1 $-1 $-1 $86 $-1 $46 #
shell $-1 $-1 $-1 $87 $-1 $48 #
shell $-1 $-1 $-1 $88 $-1 $50 #
shell $-1 $-1 $-1 $89 $-1 $52 #
face $-1 $90 $91 $54 $-1 $92 forward single #
face $-1 $93 $94 $55 $-1 $95 reversed single #
face $-1 $96 $97 $56 $-1 $98 reversed single #
face $-1 $99 $100 $57 $-1 $101 forward single #
face $-1 $102 $103 $58 $-1 $104 reversed single #
face $-1 $105 $106 $59 $-1 $107 forward single #
face $-1 $108 $109 $60 $-1 $110 reversed single #
face $-1 $111 $112 $61 $-1 $113 forward single #
face $-1 $114 $115 $62 $-1 $116 forward single #
face $-1 $117 $118 $63 $-1 $119 reversed single #
face $-1 $120 $121 $64 $-1 $122 forward single #
face $-1 $123 $124 $65 $-1 $125 forward single #
face $-1 $126 $127 $66 $-1 $128 reversed single #
face $-1 $129 $130 $67 $-1 $131 forward single #
face $-1 $132 $133 $68 $-1 $134 forward single #
face $-1 $135 $136 $69 $-1 $137 reversed single #
face $-1 $138 $139 $70 $-1 $140 forward single #
face $-1 $141 $142 $71 $-1 $143 forward single #
face $-1 $144 $145 $54 $-1 $146 reversed single #
loop $-1 $-1 $147 $72 #
plane-surface $-1 0 0 9.1066621077562058 0 0 1 1 0 0 forward_v I I I I #
face $-1 $148 $149 $55 $-1 $150 reversed single #
loop $-1 $-1 $151 $73 #
plane-surface $-1 -44.461603305842246 0 4.2464220611233454 0 0 1 1 0 0 forward_v I I I I #
face $-1 $152 $153 $56 $-1 $154 reversed single #
loop $-1 $-1 $155 $74 #
plane-surface $-1 -12.844757527382434 -99.144324811541381 61.412318164207505 -1 0 0 0 -0.79863551827123203 0.60181501223851219 forward_v I I I I #
face $-1 $156 $157 $57 $-1 $158 forward single #
loop $-1 $159 $160 $75 #
cone-surface $-1 -19.107470225461281 -18.591830756234589 5.382856147875227 0 0.79863551827123203 -0.60181501223851219 1 0 0 1 I I 0 1 1 forward I I I I #
face $-1 $161 $162 $58 $-1 $163 reversed single #
loop $-1 $-1 $164 $76 #
plane-surface $-1 31.616845778459808 -99.144324811541381 61.412318164207505 -1 0 0 0 -0.79863551827123203 0.60181501223851219 forward_v I I I I #
face $-1 $165 $166 $59 $-1 $167 forward single #
loop $-1 $168 $169 $77 #
cone-surface $-1 25.354133080380961 -18.591830756234589 5.382856147875227 0 0.79863551827123203 -0.60181501223851219 1 0 0 1 I I 0 1 1 forward I I I I #
face $-1 $170 $171 $60 $-1 $172 reversed single #
loop $-1 $-1 $173 $78 #
plane-surface $-1 -28.73331030423244 76.094190356538476 92.191414433914801 1 0 0 0 -0.81915205242281985 -0.57357642473473569 forward_v I I I I #
face $-1 $174 $175 $61 $-1 $176 forward single #
loop $-1 $177 $178 $79 #
cone-surface $-1 -25.748126208256217 17.45631650766806 3.9576001051849667 0 -0.81915205242281985 -0.57357642473473569 1 0 0 1 I I 0 1 1 forward I I I I #
face $-1 $179 $180 $62 $-1 $181 forward single #
loop $-1 $182 $183 $80 #
cone-surface $-1 -21.270350064291883 17.45631650766806 3.9576001051849667 0 -0.81915205242281985 -0.57357642473473569 1 0 0 1 I I 0 1 1 forward I I I I #
face $-1 $184 $185 $63 $-1 $186 reversed single #
loop $-1 $-1 $187 $81 #
plane-surface $-1 -6.5025086513113131 76.094190356538476 92.191414433914801 1 0 0 0 -0.81915205242281985 -0.57357642473473569 forward_v I I I I #
face $-1 $188 $189 $64 $-1 $190 forward single #
loop $-1 $191 $192 $82 #
cone-surface $-1 -3.5173245553350938 17.45631650766806 3.9576001051849667 0 -0.81915205242281985 -0.57357642473473569 1 0 0 1 I I 0 1 1 forward I I I I #
face $-1 $193 $194 $65 $-1 $195 forward single #
loop $-1 $196 $197 $83 #
cone-surface $-1 0.9604515886292404 17.45631650766806 3.9576001051849667 0 -0.81915205242281985 -0.57357642473473569 1 0 0 1 I I 0 1 1 forward I I I I #
face $-1 $198 $199 $66 $-1 $200 reversed single #
loop $-1 $-1 $201 $84 #
plane-surface $-1 15.728293001609817 76.094190356538476 92.191414433914801 1 0 0 0 -0.81915205242281985 -0.57357642473473569 forward_v I I I I #
face $-1 $202 $203 $67 $-1 $204 forward single #
loop $-1 $205 $206 $85 #
cone-surface $-1 18.713477097586022 17.45631650766806 3.9576001051849667 0 -0.81915205242281985 -0.57357642473473569 1 0 0 1 I I 0 1 1 forward I I I I #
face $-1 $207 $208 $68 $-1 $209 forward single #
loop $-1 $210 $211 $86 #
cone-surface $-1 23.19125324155037 17.45631650766806 3.9576001051849667 0 -0.81915205242281985 -0.57357642473473569 1 0 0 1 I I 0 1 1 forward I I I I #
face $-1 $212 $213 $69 $-1 $214 reversed single #
loop $-1 $-1 $215 $87 #
plane-surface $-1 37.959094654530929 76.094190356538476 92.191414433914801 1 0 0 0 -0.81915205242281985 -0.57357642473473569 forward_v I I I I #
face $-1 $216 $217 $70 $-1 $218 forward single #
loop $-1 $219 $220 $88 #
cone-surface $-1 40.944278750507138 17.45631650766806 3.9576001051849667 0 -0.81915205242281985 -0.57357642473473569 1 0 0 1 I I 0 1 1 forward I I I I #
face $-1 $221 $222 $71 $-1 $223 forward single #
loop $-1 $224 $225 $89 #
cone-surface $-1 45.422054894471486 17.45631650766806 3.9576001051849667 0 -0.81915205242281985 -0.57357642473473569 1 0 0 1 I I 0 1 1 forward I I I I #
face $-1 $226 $227 $54 $-1 $228 reversed single #
loop $-1 $-1 $229 $90 #
plane-surface $-1 0 0 -9.1066621077562058 0 0 1 1 0 0 forward_v I I I I #
coedge $-1 $230 $231 $232 $233 forward $91 $-1 #
face $-1 $234 $235 $55 $-1 $236 reversed single #
loop $-1 $-1 $237 $93 #
plane-surface $-1 -40.515967621236783 0 6.6765420844397756 -1 0 0 0 0 1 forward_v I I I I #
coedge $-1 $238 $239 $240 $241 forward $94 $-1 #
face $-1 $242 $243 $56 $-1 $244 reversed single #
loop $-1 $-1 $245 $96 #
plane-surface $-1 -19.107470225461281 -21.824844013110194 3.1479119132697591 0 -0.79863551827123203 0.60181501223851219 1 0 0 forward_v I I I I #
coedge $-1 $246 $247 $248 $249 reversed $97 $-1 #
face $-1 $-1 $250 $57 $-1 $251 forward single #
loop $-1 $252 $253 $99 #
cone-surface $-1 -19.107470225461281 -17.204619847693486 4.3375177791182136 0 0.79863551827123203 -0.60181501223851219 0.5 0 0 1 I I -0.70710678118654746 0.70710678118654746 0.5 forward I I I I #
loop $-1 $-1 $254 $75 #
coedge $-1 $160 $160 $255 $256 reversed $100 $-1 #
face $-1 $257 $258 $58 $-1 $259 reversed single #
loop $-1 $-1 $260 $102 #
plane-surface $-1 25.354133080380961 -21.824844013110194 3.1479119132697591 0 -0.79863551827123203 0.60181501223851219 1 0 0 forward_v I I I I #
coedge $-1 $261 $262 $263 $264 reversed $103 $-1 #
face $-1 $-1 $265 $59 $-1 $266 forward single #
loop $-1 $267 $268 $105 #
cone-surface $-1 25.354133080380961 -17.204619847693486 4.3375177791182136 0 0.79863551827123203 -0.60181501223851219 0.5 0 0 1 I I -0.70710678118654746 0.70710678118654746 0.5 forward I I I I #
loop $-1 $-1 $269 $77 #
coedge $-1 $169 $169 $270 $271 reversed $106 $-1 #
face $-1 $272 $273 $60 $-1 $274 reversed single #
loop $-1 $-1 $275 $108 #
plane-surface $-1 -23.509238136274046 -3.2115879857559122 36.660912291073011 0 0.81915205242281985 0.57357642473473569 1 0 0 forward_v I I I I #
coedge $-1 $276 $277 $278 $279 reversed $109 $-1 #
face $-1 $-1 $280 $61 $-1 $281 forward single #
loop $-1 $282 $283 $111 #
cone-surface $-1 -25.748126208256217 15.549582422571252 2.6224905657350508 0 -0.81915205242281985 -0.57357642473473569 0.5 0 0 1 I I -0.70710678118654746 0.70710678118654746 0.5 forward I I I I #
loop $-1 $-1 $284 $79 #
coedge $-1 $178 $178 $285 $286 reversed $112 $-1 #
face $-1 $-1 $287 $62 $-1 $288 forward single #
loop $-1 $289 $290 $114 #
cone-surface $-1 -21.270350064291883 15.549582422571252 2.6224905657350508 0 -0.81915205242281985 -0.57357642473473569 0.5 0 0 1 I I -0.70710678118654746 0.70710678118654746 0.5 forward I I I I #
loop $-1 $-1 $291 $80 #
coedge $-1 $183 $183 $292 $293 reversed $115 $-1 #
face $-1 $294 $295 $63 $-1 $296 reversed single #
loop $-1 $-1 $297 $117 #
plane-surface $-1 -1.2784364833529196 -3.2115879857559122 36.660912291073011 0 0.81915205242281985 0.57357642473473569 1 0 0 forward_v I I I I #
coedge $-1 $298 $299 $300 $301 reversed $118 $-1 #
face $-1 $-1 $302 $64 $-1 $303 forward single #
loop $-1 $304 $305 $120 #
cone-surface $-1 -3.5173245553350938 15.549582422571252 2.6224905657350508 0 -0.81915205242281985 -0.57357642473473569 0.5 0 0 1 I I -0.70710678118654746 0.70710678118654746 0.5 forward I I I I #
loop $-1 $-1 $306 $82 #
coedge $-1 $192 $192 $307 $308 reversed $121 $-1 #
face $-1 $-1 $309 $65 $-1 $310 forward single #
loop $-1 $311 $312 $123 #
cone-surface $-1 0.9604515886292404 15.549582422571252 2.6224905657350508 0 -0.81915205242281985 -0.57357642473473569 0.5 0 0 1 I I -0.70710678118654746 0.70710678118654746 0.5 forward I I I I #
loop $-1 $-1 $313 $83 #
coedge $-1 $197 $197 $314 $315 reversed $124 $-1 #
face $-1 $316 $317 $66 $-1 $318 reversed single #
loop $-1 $-1 $319 $126 #
plane-surface $-1 20.95236516956821 -3.2115879857559122 36.660912291073011 0 0.81915205242281985 0.57357642473473569 1 0 0 forward_v I I I I #
coedge $-1 $320 $321 $322 $323 reversed $127 $-1 #
face $-1 $-1 $324 $67 $-1 $325 forward single #
loop $-1 $326 $327 $129 #
cone-surface $-1 18.713477097586022 15.549582422571252 2.6224905657350508 0 -0.81915205242281985 -0.57357642473473569 0.5 0 0 1 I I -0.70710678118654746 0.70710678118654746 0.5 forward I I I I #
loop $-1 $-1 $328 $85 #
coedge $-1 $206 $206 $329 $330 reversed $130 $-1 #
face $-1 $-1 $331 $68 $-1 $332 forward single #
loop $-1 $333 $334 $132 #
cone-surface $-1 23.19125324155037 15.549582422571252 2.6224905657350508 0 -0.81915205242281985 -0.57357642473473569 0.5 0 0 1 I I -0.70710678118654746 0.70710678118654746 0.5 forward I I I I #
loop $-1 $-1 $335 $86 #
coedge $-1 $211 $211 $336 $337 reversed $133 $-1 #
face $-1 $338 $339 $69 $-1 $340 forward single #
loop $-1 $-1 $341 $135 #
plane-surface $-1 43.183166822489326 -3.2115879857559122 36.660912291073011 0 0.81915205242281985 0.57357642473473569 1 0 0 forward_v I I I I #
coedge $-1 $342 $343 $344 $345 reversed $136 $-1 #
face $-1 $-1 $346 $70 $-1 $347 forward single #
loop $-1 $348 $349 $138 #
cone-surface $-1 40.944278750507138 15.549582422571252 2.6224905657350508 0 -0.81915205242281985 -0.57357642473473569 0.5 0 0 1 I I -0.70710678118654746 0.70710678118654746 0.5 forward I I I I #
loop $-1 $-1 $350 $88 #
coedge $-1 $220 $220 $351 $352 reversed $139 $-1 #
face $-1 $-1 $353 $71 $-1 $354 forward single #
loop $-1 $355 $356 $141 #
cone-surface $-1 45.422054894471486 15.549582422571252 2.6224905657350508 0 -0.81915205242281985 -0.57357642473473569 0.5 0 0 1 I I -0.70710678118654746 0.70710678118654746 0.5 forward I I I I #
loop $-1 $-1 $357 $89 #
coedge $-1 $225 $225 $358 $359 reversed $142 $-1 #
face $-1 $360 $361 $54 $-1 $362 reversed single #
loop $-1 $-1 $363 $144 #
plane-surface $-1 0 -21.824844013110177 0 0 1 0 0 0 1 forward_v I I I I #
coedge $-1 $364 $365 $366 $367 forward $145 $-1 #
coedge $-1 $368 $147 $369 $370 forward $91 $-1 #
coedge $-1 $147 $368 $371 $372 forward $91 $-1 #
coedge $-1 $373 $374 $147 $233 reversed $375 $-1 #
edge $-1 $376 -21.824844013110177 $377 21.824844013110177 $232 $378 forward 7 unknown #
face $-1 $379 $380 $55 $-1 $381 reversed single #
loop $-1 $-1 $382 $148 #
plane-surface $-1 0 21.824844013110177 0 0 -1 0 0 0 -1 forward_v I I I I #
coedge $-1 $240 $383 $384 $385 reversed $149 $-1 #
coedge $-1 $386 $151 $387 $388 reversed $94 $-1 #
coedge $-1 $151 $386 $389 $390 reversed $94 $-1 #
coedge $-1 $391 $237 $151 $241 reversed $149 $-1 #
edge $-1 $392 -21.824844013110177 $393 21.824844013110177 $240 $394 forward 7 unknown #
face $-1 $395 $396 $56 $-1 $397 reversed single #
loop $-1 $-1 $398 $152 #
plane-surface $-1 -25.370182923540128 -99.144324811541381 61.412318164207505 1 0 0 0 0.79863551827123203 -0.60181501223851219 forward_v I I I I #
coedge $-1 $399 $400 $401 $402 reversed $153 $-1 #
coedge $-1 $247 $155 $403 $404 reversed $97 $-1 #
coedge $-1 $155 $246 $399 $405 reversed $97 $-1 #
coedge $-1 $401 $406 $155 $249 forward $407 $-1 #
edge $-1 $408 27.747318392660514 $409 32.237558607600704 $248 $410 forward 7 unknown #
loop $-1 $-1 $255 $156 #
plane-surface $-1 -19.107470225461281 -21.824844013110194 3.1479119132697591 0 -0.79863551827123203 0.60181501223851219 1 0 0 forward_v I I I I #
loop $-1 $-1 $411 $99 #
coedge $-1 $253 $253 $254 $412 reversed $157 $-1 #
coedge $-1 $254 $254 $253 $412 forward $159 $-1 #
coedge $-1 $255 $255 $160 $256 forward $250 $-1 #
edge $-1 $413 3.025178545095875e-017 $413 6.2831853071796004 $255 $414 forward 7 unknown #
face $-1 $415 $416 $58 $-1 $417 reversed single #
loop $-1 $-1 $418 $161 #
plane-surface $-1 19.091420382302115 -99.144324811541381 61.412318164207505 1 0 0 0 0.79863551827123203 -0.60181501223851219 forward_v I I I I #
coedge $-1 $419 $420 $421 $422 reversed $162 $-1 #
coedge $-1 $262 $164 $423 $424 reversed $103 $-1 #
coedge $-1 $164 $261 $419 $425 reversed $103 $-1 #
coedge $-1 $421 $426 $164 $264 forward $427 $-1 #
edge $-1 $428 27.747318392660514 $429 32.237558607600704 $263 $430 forward 7 unknown #
loop $-1 $-1 $270 $165 #
plane-surface $-1 25.354133080380961 -21.824844013110194 3.1479119132697591 0 -0.79863551827123203 0.60181501223851219 1 0 0 forward_v I I I I #
loop $-1 $-1 $431 $105 #
coedge $-1 $268 $268 $269 $432 reversed $166 $-1 #
coedge $-1 $269 $269 $268 $432 forward $168 $-1 #
coedge $-1 $270 $270 $169 $271 forward $265 $-1 #
edge $-1 $433 3.025178545095875e-017 $433 6.2831853071796004 $270 $434 forward 7 unknown #
face $-1 $435 $436 $60 $-1 $437 forward single #
loop $-1 $-1 $438 $170 #
plane-surface $-1 -18.285165968315653 76.094190356538476 92.191414433914801 -1 0 0 0 0.81915205242281985 0.57357642473473569 forward_v I I I I #
coedge $-1 $439 $440 $441 $442 reversed $171 $-1 #
coedge $-1 $277 $173 $443 $444 reversed $109 $-1 #
coedge $-1 $173 $276 $439 $445 reversed $109 $-1 #
coedge $-1 $441 $446 $173 $279 forward $436 $-1 #
edge $-1 $447 16.222251165159062 $448 21.964990058272509 $278 $449 forward 7 unknown #
loop $-1 $-1 $285 $174 #
plane-surface $-1 -23.509238136274046 -3.2115879857559122 36.660912291073011 0 0.81915205242281985 0.57357642473473569 1 0 0 forward_v I I I I #
loop $-1 $-1 $450 $111 #
coedge $-1 $283 $283 $284 $451 reversed $175 $-1 #
coedge $-1 $284 $284 $283 $451 forward $177 $-1 #
coedge $-1 $285 $285 $178 $286 forward $280 $-1 #
edge $-1 $452 1.7479393774876587e-015 $452 6.2831853071796022 $285 $453 forward 7 unknown #
loop $-1 $-1 $292 $179 #
plane-surface $-1 -23.509238136274046 -3.2115879857559122 36.660912291073011 0 0.81915205242281985 0.57357642473473569 1 0 0 forward_v I I I I #
loop $-1 $-1 $454 $114 #
coedge $-1 $290 $290 $291 $455 reversed $180 $-1 #
coedge $-1 $291 $291 $290 $455 forward $182 $-1 #
coedge $-1 $292 $292 $183 $293 forward $287 $-1 #
edge $-1 $456 1.7479393774876587e-015 $456 6.2831853071796022 $292 $457 forward 7 unknown #
face $-1 $458 $459 $63 $-1 $460 forward single #
loop $-1 $-1 $461 $184 #
plane-surface $-1 3.9456356846054739 76.094190356538476 92.191414433914801 -1 0 0 0 0.81915205242281985 0.57357642473473569 forward_v I I I I #
coedge $-1 $462 $463 $464 $465 reversed $185 $-1 #
coedge $-1 $299 $187 $466 $467 reversed $118 $-1 #
coedge $-1 $187 $298 $462 $468 reversed $118 $-1 #
coedge $-1 $464 $469 $187 $301 forward $459 $-1 #
edge $-1 $470 16.222251165159062 $471 21.964990058272509 $300 $472 forward 7 unknown #
loop $-1 $-1 $307 $188 #
plane-surface $-1 -1.2784364833529196 -3.2115879857559122 36.660912291073011 0 0.81915205242281985 0.57357642473473569 1 0 0 forward_v I I I I #
loop $-1 $-1 $473 $120 #
coedge $-1 $305 $305 $306 $474 reversed $189 $-1 #
coedge $-1 $306 $306 $305 $474 forward $191 $-1 #
coedge $-1 $307 $307 $192 $308 forward $302 $-1 #
edge $-1 $475 1.7479393774876587e-015 $475 6.2831853071796022 $307 $476 forward 7 unknown #
loop $-1 $-1 $314 $193 #
plane-surface $-1 -1.2784364833529196 -3.2115879857559122 36.660912291073011 0 0.81915205242281985 0.57357642473473569 1 0 0 forward_v I I I I #
loop $-1 $-1 $477 $123 #
coedge $-1 $312 $312 $313 $478 reversed $194 $-1 #
coedge $-1 $313 $313 $312 $478 forward $196 $-1 #
coedge $-1 $314 $314 $197 $315 forward $309 $-1 #
edge $-1 $479 1.7479393774876587e-015 $479 6.2831853071796022 $314 $480 forward 7 unknown #
face $-1 $481 $482 $66 $-1 $483 forward single #
loop $-1 $-1 $484 $198 #
plane-surface $-1 26.176437337526604 76.094190356538476 92.191414433914801 -1 0 0 0 0.81915205242281985 0.57357642473473569 forward_v I I I I #
coedge $-1 $485 $486 $487 $488 reversed $199 $-1 #
coedge $-1 $321 $201 $489 $490 reversed $127 $-1 #
coedge $-1 $201 $320 $485 $491 reversed $127 $-1 #
coedge $-1 $487 $492 $201 $323 forward $482 $-1 #
edge $-1 $493 16.222251165159062 $494 21.964990058272509 $322 $495 forward 7 unknown #
loop $-1 $-1 $329 $202 #
plane-surface $-1 20.95236516956821 -3.2115879857559122 36.660912291073011 0 0.81915205242281985 0.57357642473473569 1 0 0 forward_v I I I I #
loop $-1 $-1 $496 $129 #
coedge $-1 $327 $327 $328 $497 reversed $203 $-1 #
coedge $-1 $328 $328 $327 $497 forward $205 $-1 #
coedge $-1 $329 $329 $206 $330 forward $324 $-1 #
edge $-1 $498 1.7479393774876587e-015 $498 6.2831853071796022 $329 $499 forward 7 unknown #
loop $-1 $-1 $336 $207 #
plane-surface $-1 20.95236516956821 -3.2115879857559122 36.660912291073011 0 0.81915205242281985 0.57357642473473569 1 0 0 forward_v I I I I #
loop $-1 $-1 $500 $132 #
coedge $-1 $334 $334 $335 $501 reversed $208 $-1 #
coedge $-1 $335 $335 $334 $501 forward $210 $-1 #
coedge $-1 $336 $336 $211 $337 forward $331 $-1 #
edge $-1 $502 1.7479393774876587e-015 $502 6.2831853071796022 $336 $503 forward 7 unknown #
face $-1 $504 $505 $69 $-1 $506 reversed single #
loop $-1 $-1 $344 $212 #
plane-surface $-1 0 0 9.1066621077562058 0 0 1 1 0 0 forward_v I I I I #
coedge $-1 $507 $508 $509 $510 reversed $213 $-1 #
coedge $-1 $343 $215 $511 $512 reversed $136 $-1 #
coedge $-1 $215 $342 $507 $513 reversed $136 $-1 #
coedge $-1 $509 $514 $215 $345 forward $339 $-1 #
edge $-1 $515 16.222251165159062 $516 21.964990058272509 $344 $517 forward 7 unknown #
loop $-1 $-1 $351 $216 #
plane-surface $-1 43.183166822489326 -3.2115879857559122 36.660912291073011 0 0.81915205242281985 0.57357642473473569 1 0 0 forward_v I I I I #
loop $-1 $-1 $518 $138 #
coedge $-1 $349 $349 $350 $519 reversed $217 $-1 #
coedge $-1 $350 $350 $349 $519 forward $219 $-1 #
coedge $-1 $351 $351 $220 $352 forward $346 $-1 #
edge $-1 $520 1.7479393774876587e-015 $520 6.2831853071796022 $351 $521 forward 7 unknown #
loop $-1 $-1 $358 $221 #
plane-surface $-1 43.183166822489326 -3.2115879857559122 36.660912291073011 0 0.81915205242281985 0.57357642473473569 1 0 0 forward_v I I I I #
loop $-1 $-1 $522 $141 #
coedge $-1 $356 $356 $357 $523 reversed $222 $-1 #
coedge $-1 $357 $357 $356 $523 forward $224 $-1 #
coedge $-1 $358 $358 $225 $359 forward $353 $-1 #
edge $-1 $524 1.7479393774876587e-015 $524 6.2831853071796022 $358 $525 forward 7 unknown #
face $-1 $526 $527 $54 $-1 $528 reversed single #
loop $-1 $-1 $529 $226 #
plane-surface $-1 -48.407238990447709 0 0 1 0 0 0 0 -1 forward_v I I I I #
coedge $-1 $530 $371 $531 $532 forward $227 $-1 #
coedge $-1 $533 $229 $530 $534 forward $145 $-1 #
coedge $-1 $229 $533 $535 $536 forward $145 $-1 #
coedge $-1 $374 $373 $229 $367 reversed $375 $-1 #
edge $-1 $537 -21.824844013110177 $538 21.824844013110177 $366 $539 forward 7 unknown #
coedge $-1 $231 $230 $540 $541 forward $91 $-1 #
coedge $-1 $542 $543 $230 $370 reversed $527 $-1 #
edge $-1 $377 -48.407238990447709 $544 48.407238990447709 $369 $545 forward 7 unknown #
coedge $-1 $363 $546 $231 $372 reversed $227 $-1 #
edge $-1 $547 -48.407238990447709 $376 48.407238990447709 $371 $548 forward 7 unknown #
coedge $-1 $366 $232 $546 $549 forward $375 $-1 #
coedge $-1 $232 $366 $542 $550 reversed $375 $-1 #
loop $-1 $-1 $373 $526 #
vertex $-1 $233 $551 #
vertex $-1 $233 $552 #
straight-curve $-1 48.407238990447709 0 9.1066621077562058 0 1 0 I I #
face $-1 $553 $554 $55 $-1 $555 forward single #
loop $-1 $-1 $556 $234 #
plane-surface $-1 -48.407238990447709 0 0 1 0 0 0 0 -1 forward_v I I I I #
coedge $-1 $389 $557 $391 $558 forward $235 $-1 #
coedge $-1 $237 $391 $559 $560 reversed $149 $-1 #
coedge $-1 $561 $387 $237 $385 forward $562 $-1 #
edge $-1 $393 0.90815101890345762 $563 5.768391065536318 $384 $564 forward 7 unknown #
coedge $-1 $239 $238 $556 $565 reversed $94 $-1 #
coedge $-1 $384 $566 $238 $388 forward $562 $-1 #
edge $-1 $567 -26.176437337526586 $393 -18.28516596831566 $387 $568 forward 7 unknown #
coedge $-1 $569 $382 $239 $390 forward $235 $-1 #
edge $-1 $392 18.28516596831566 $570 26.176437337526586 $389 $571 forward 7 unknown #
coedge $-1 $383 $240 $382 $558 reversed $149 $-1 #
vertex $-1 $390 $572 #
vertex $-1 $388 $573 #
straight-curve $-1 -40.515967621236783 0 4.2464220611233454 0 -1 0 I I #
face $-1 $-1 $407 $56 $-1 $574 forward single #
loop $-1 $-1 $575 $242 #
plane-surface $-1 0 -21.824844013110177 0 0 1 0 0 0 1 forward_v I I I I #
coedge $-1 $576 $577 $578 $579 reversed $243 $-1 #
coedge $-1 $580 $245 $247 $405 forward $153 $-1 #
coedge $-1 $245 $580 $576 $581 forward $153 $-1 #
coedge $-1 $578 $248 $245 $402 forward $407 $-1 #
edge $-1 $409 3.2910224146517937 $582 15.816447810809487 $401 $583 forward 7 unknown #
coedge $-1 $584 $585 $246 $404 forward $396 $-1 #
edge $-1 $586 -27.558247168833969 $408 -21.599496974347545 $403 $587 forward 7 unknown #
edge $-1 $409 -7.4611635197305866 $586 -2.9487649192601403e-014 $247 $588 forward 7 unknown #
coedge $-1 $248 $578 $584 $589 forward $407 $-1 #
loop $-1 $-1 $578 $395 #
vertex $-1 $404 $590 #
vertex $-1 $249 $591 #
straight-curve $-1 -12.844757527382434 -49.57216240577069 9.1066621077562075 0 1 0 I I #
coedge $-1 $411 $411 $-1 $592 reversed $252 $-1 #
edge $-1 $593 0 $593 6.2831853071796004 $253 $594 forward 7 unknown #
vertex $-1 $256 $595 #
ellipse-curve $-1 -19.107470225461281 -19.579723905640087 6.1272870105129913 0 -0.79863551827123203 0.60181501223851219 1 0 0 1 I I #
face $-1 $-1 $427 $58 $-1 $596 forward single #
loop $-1 $-1 $597 $257 #
plane-surface $-1 0 -21.824844013110177 0 0 1 0 0 0 1 forward_v I I I I #
coedge $-1 $598 $599 $600 $601 reversed $258 $-1 #
coedge $-1 $602 $260 $262 $425 forward $162 $-1 #
coedge $-1 $260 $602 $598 $603 forward $162 $-1 #
coedge $-1 $600 $263 $260 $422 forward $427 $-1 #
edge $-1 $429 -18.939779238269328 $604 -6.414353842111634 $421 $605 forward 7 unknown #
coedge $-1 $606 $607 $261 $424 forward $416 $-1 #
edge $-1 $608 -27.558247168833969 $428 -21.599496974347545 $423 $609 forward 7 unknown #
edge $-1 $429 -7.4611635197305866 $608 -2.9487649192601403e-014 $262 $610 forward 7 unknown #
coedge $-1 $263 $600 $606 $611 forward $427 $-1 #
loop $-1 $-1 $600 $415 #
vertex $-1 $424 $612 #
vertex $-1 $264 $613 #
straight-curve $-1 31.616845778459808 -49.57216240577069 9.1066621077562075 0 1 0 I I #
coedge $-1 $431 $431 $-1 $614 reversed $267 $-1 #
edge $-1 $615 0 $615 6.2831853071796004 $268 $616 forward 7 unknown #
vertex $-1 $271 $617 #
ellipse-curve $-1 25.354133080380961 -19.579723905640087 6.1272870105129913 0 -0.79863551827123203 0.60181501223851219 1 0 0 1 I I #
face $-1 $-1 $618 $60 $-1 $619 reversed single #
loop $-1 $-1 $278 $272 #
plane-surface $-1 0 0 9.1066621077562058 0 0 1 1 0 0 forward_v I I I I #
coedge $-1 $620 $621 $622 $623 reversed $273 $-1 #
coedge $-1 $624 $275 $277 $445 forward $171 $-1 #
coedge $-1 $275 $624 $620 $625 forward $171 $-1 #
coedge $-1 $622 $278 $275 $442 forward $436 $-1 #
edge $-1 $448 -16.978691236095415 $626 -6.5305469001786296 $441 $627 forward 7 unknown #
coedge $-1 $628 $629 $276 $444 forward $618 $-1 #
edge $-1 $630 -45.190526460178603 $447 -36.989045109201193 $443 $631 forward 7 unknown #
edge $-1 $448 33.637528102162634 $630 43.649688026220389 $277 $632 forward 7 unknown #
coedge $-1 $278 $622 $628 $633 forward $436 $-1 #
vertex $-1 $444 $634 #
vertex $-1 $279 $635 #
straight-curve $-1 -28.73331030423244 38.047095178269238 9.1066621077562075 0 -1 0 I I #
coedge $-1 $450 $450 $-1 $636 reversed $282 $-1 #
edge $-1 $637 0 $637 6.2831853071796004 $283 $638 forward 7 unknown #
vertex $-1 $286 $639 #
ellipse-curve $-1 -25.748126208256217 18.953474566553449 5.0059214322675096 0 0.81915205242281985 0.57357642473473569 1 0 0 1 I I #
coedge $-1 $454 $454 $-1 $640 reversed $289 $-1 #
edge $-1 $641 0 $641 6.2831853071796004 $290 $642 forward 7 unknown #
vertex $-1 $293 $643 #
ellipse-curve $-1 -21.270350064291883 18.953474566553449 5.0059214322675096 0 0.81915205242281985 0.57357642473473569 1 0 0 1 I I #
face $-1 $-1 $644 $63 $-1 $645 reversed single #
loop $-1 $-1 $300 $294 #
plane-surface $-1 0 0 9.1066621077562058 0 0 1 1 0 0 forward_v I I I I #
coedge $-1 $646 $647 $648 $649 reversed $295 $-1 #
coedge $-1 $650 $297 $299 $468 forward $185 $-1 #
coedge $-1 $297 $650 $646 $651 forward $185 $-1 #
coedge $-1 $648 $300 $297 $465 forward $459 $-1 #
edge $-1 $471 -5.8632904096348533 $652 4.5848539262819337 $464 $653 forward 7 unknown #
coedge $-1 $654 $655 $298 $467 forward $644 $-1 #
edge $-1 $656 -45.190526460178603 $470 -36.989045109201193 $466 $657 forward 7 unknown #
edge $-1 $471 33.637528102162634 $656 43.649688026220389 $299 $658 forward 7 unknown #
coedge $-1 $300 $648 $654 $659 forward $459 $-1 #
vertex $-1 $301 $660 #
vertex $-1 $301 $661 #
straight-curve $-1 -6.5025086513113131 38.047095178269238 9.1066621077562075 0 -1 0 I I #
coedge $-1 $473 $473 $-1 $662 reversed $304 $-1 #
edge $-1 $663 0 $663 6.2831853071796004 $305 $664 forward 7 unknown #
vertex $-1 $308 $665 #
ellipse-curve $-1 -3.5173245553350938 18.953474566553449 5.0059214322675096 0 0.81915205242281985 0.57357642473473569 1 0 0 1 I I #
coedge $-1 $477 $477 $-1 $666 reversed $311 $-1 #
edge $-1 $667 0 $667 6.2831853071796004 $312 $668 forward 7 unknown #
vertex $-1 $315 $669 #
ellipse-curve $-1 0.9604515886292404 18.953474566553449 5.0059214322675096 0 0.81915205242281985 0.57357642473473569 1 0 0 1 I I #
face $-1 $-1 $670 $66 $-1 $671 reversed single #
loop $-1 $-1 $322 $316 #
plane-surface $-1 0 0 9.1066621077562058 0 0 1 1 0 0 forward_v I I I I #
coedge $-1 $672 $673 $674 $675 reversed $317 $-1 #
coedge $-1 $676 $319 $321 $491 forward $199 $-1 #
coedge $-1 $319 $676 $672 $677 forward $199 $-1 #
coedge $-1 $674 $322 $319 $488 forward $482 $-1 #
edge $-1 $494 5.2521104168257118 $678 15.700254752742499 $487 $679 forward 7 unknown #
coedge $-1 $680 $681 $320 $490 forward $670 $-1 #
edge $-1 $682 -45.190526460178603 $493 -36.989045109201193 $489 $683 forward 7 unknown #
edge $-1 $494 33.637528102162634 $682 43.649688026220389 $321 $684 forward 7 unknown #
coedge $-1 $322 $674 $680 $685 forward $482 $-1 #
vertex $-1 $323 $686 #
vertex $-1 $323 $687 #
straight-curve $-1 15.728293001609817 38.047095178269238 9.1066621077562075 0 -1 0 I I #
coedge $-1 $496 $496 $-1 $688 reversed $326 $-1 #
edge $-1 $689 0 $689 6.2831853071796004 $327 $690 forward 7 unknown #
vertex $-1 $330 $691 #
ellipse-curve $-1 18.713477097586022 18.953474566553449 5.0059214322675096 0 0.81915205242281985 0.57357642473473569 1 0 0 1 I I #
coedge $-1 $500 $500 $-1 $692 reversed $333 $-1 #
edge $-1 $693 0 $693 6.2831853071796004 $334 $694 forward 7 unknown #
vertex $-1 $337 $695 #
ellipse-curve $-1 23.19125324155037 18.953474566553449 5.0059214322675096 0 0.81915205242281985 0.57357642473473569 1 0 0 1 I I #
face $-1 $-1 $696 $69 $-1 $697 reversed single #
loop $-1 $-1 $698 $338 #
plane-surface $-1 48.407238990447709 0 0 -1 0 0 0 0 1 forward_v I I I I #
coedge $-1 $699 $341 $343 $513 forward $213 $-1 #
coedge $-1 $341 $699 $698 $700 reversed $213 $-1 #
coedge $-1 $701 $344 $341 $510 forward $339 $-1 #
edge $-1 $516 16.367511243286266 $702 26.81565557920306 $509 $703 forward 7 unknown #
coedge $-1 $704 $705 $342 $512 forward $696 $-1 #
edge $-1 $706 -45.190526460178603 $515 -36.989045109201193 $511 $707 forward 7 unknown #
edge $-1 $516 33.637528102162634 $706 43.649688026220389 $343 $708 forward 7 unknown #
coedge $-1 $344 $701 $704 $709 forward $339 $-1 #
vertex $-1 $512 $710 #
vertex $-1 $345 $711 #
straight-curve $-1 37.959094654530929 38.047095178269238 9.1066621077562075 0 -1 0 I I #
coedge $-1 $518 $518 $-1 $712 reversed $348 $-1 #
edge $-1 $713 0 $713 6.2831853071796004 $349 $714 forward 7 unknown #
vertex $-1 $352 $715 #
ellipse-curve $-1 40.944278750507138 18.953474566553449 5.0059214322675096 0 0.81915205242281985 0.57357642473473569 1 0 0 1 I I #
coedge $-1 $522 $522 $-1 $716 reversed $355 $-1 #
edge $-1 $717 0 $717 6.2831853071796004 $356 $718 forward 7 unknown #
vertex $-1 $359 $719 #
ellipse-curve $-1 45.422054894471486 18.953474566553449 5.0059214322675096 0 0.81915205242281985 0.57357642473473569 1 0 0 1 I I #
face $-1 $-1 $375 $54 $-1 $720 reversed single #
loop $-1 $-1 $542 $360 #
plane-surface $-1 0 21.824844013110177 0 0 -1 0 0 0 -1 forward_v I I I I #
coedge $-1 $721 $540 $543 $722 forward $361 $-1 #
coedge $-1 $546 $363 $364 $534 reversed $227 $-1 #
coedge $-1 $540 $721 $363 $532 reversed $361 $-1 #
edge $-1 $547 -9.1066621077562058 $723 9.1066621077562058 $531 $724 forward 7 unknown #
coedge $-1 $365 $364 $721 $725 forward $145 $-1 #
edge $-1 $538 -48.407238990447709 $723 48.407238990447709 $530 $726 forward 7 unknown #
coedge $-1 $543 $542 $365 $536 reversed $527 $-1 #
edge $-1 $727 -48.407238990447709 $537 48.407238990447709 $535 $728 forward 7 unknown #
vertex $-1 $367 $729 #
vertex $-1 $549 $730 #
straight-curve $-1 48.407238990447709 0 -9.1066621077562058 0 -1 0 I I #
coedge $-1 $529 $531 $368 $541 reversed $361 $-1 #
edge $-1 $544 -21.824844013110177 $547 21.824844013110177 $540 $731 forward 7 unknown #
coedge $-1 $535 $369 $374 $550 forward $527 $-1 #
coedge $-1 $369 $535 $529 $722 reversed $527 $-1 #
vertex $-1 $370 $732 #
straight-curve $-1 0 21.824844013110177 9.1066621077562058 -1 0 0 I I #
coedge $-1 $371 $530 $373 $549 reversed $227 $-1 #
vertex $-1 $541 $733 #
straight-curve $-1 0 -21.824844013110177 9.1066621077562058 1 0 0 I I #
edge $-1 $376 -9.1066621077562058 $538 9.1066621077562058 $373 $734 forward 7 unknown #
edge $-1 $377 -9.1066621077562058 $537 9.1066621077562058 $374 $735 forward 7 unknown #
point $-1 48.407238990447709 -21.824844013110177 9.1066621077562058 #
point $-1 48.407238990447709 21.824844013110177 9.1066621077562058 #
face $-1 $-1 $562 $55 $-1 $736 reversed single #
loop $-1 $-1 $559 $379 #
plane-surface $-1 0 0 9.1066621077562058 0 0 1 1 0 0 forward_v I I I I #
coedge $-1 $737 $738 $386 $565 forward $380 $-1 #
coedge $-1 $382 $569 $739 $740 reversed $235 $-1 #
edge $-1 $741 -5.768391065536318 $392 -0.90815101890345762 $382 $742 forward 7 unknown #
coedge $-1 $739 $743 $383 $560 forward $554 $-1 #
edge $-1 $563 -21.824844013110177 $741 21.824844013110177 $559 $744 forward 7 unknown #
coedge $-1 $566 $384 $743 $745 reversed $562 $-1 #
loop $-1 $-1 $384 $553 #
vertex $-1 $385 $746 #
straight-curve $-1 -40.515967621236783 -21.824844013110177 3.3382710422198878 0 0 1 I I #
edge $-1 $570 -21.824844013110177 $567 21.824844013110177 $556 $747 forward 7 unknown #
coedge $-1 $387 $561 $737 $748 forward $562 $-1 #
vertex $-1 $565 $749 #
straight-curve $-1 -22.230801652921123 -21.824844013110177 4.2464220611233454 1 0 0 I I #
coedge $-1 $557 $389 $738 $750 reversed $235 $-1 #
vertex $-1 $565 $751 #
straight-curve $-1 -22.230801652921123 21.824844013110177 4.2464220611233454 -1 0 0 I I #
point $-1 -40.515967621236783 21.824844013110177 4.2464220611233454 #
point $-1 -40.515967621236783 -21.824844013110177 4.2464220611233454 #
plane-surface $-1 0 0 9.1066621077562058 0 0 1 1 0 0 forward_v I I I I #
coedge $-1 $585 $584 $577 $752 forward $396 $-1 #
coedge $-1 $577 $398 $400 $581 reversed $243 $-1 #
coedge $-1 $398 $576 $575 $752 reversed $243 $-1 #
coedge $-1 $406 $401 $398 $579 forward $407 $-1 #
edge $-1 $582 -32.237558607600704 $753 -27.747318392660514 $578 $754 forward 7 unknown #
coedge $-1 $400 $399 $585 $755 reversed $153 $-1 #
edge $-1 $756 2.9487649192601403e-014 $582 7.4611635197305866 $576 $757 forward 7 unknown #
vertex $-1 $402 $758 #
straight-curve $-1 -9.5537351127306405 -17.334603798169994 9.1066621077562058 -1 0 0 I I #
coedge $-1 $575 $403 $406 $589 reversed $396 $-1 #
coedge $-1 $403 $575 $580 $755 forward $396 $-1 #
vertex $-1 $404 $759 #
straight-curve $-1 -12.844757527382434 -21.824844013110173 30.706159082103753 0 0 1 I I #
straight-curve $-1 -12.844757527382434 -21.824844013110194 3.1479119132697591 0 -0.60181501223851219 -0.79863551827123203 I I #
edge $-1 $753 -25.370182923540128 $408 -12.844757527382434 $584 $760 forward 7 unknown #
point $-1 -12.844757527382434 -21.824844013110177 9.1066621077562058 #
point $-1 -12.844757527382434 -17.33460379816999 9.1066621077562058 #
edge $-1 $761 1 $761 0 $411 $-1 forward 7 unknown #
vertex $-1 $412 $762 #
ellipse-curve $-1 -19.107470225461281 -17.603937606829103 4.6384252852374699 0 -0.79863551827123203 0.60181501223851219 1 0 0 1 I I #
point $-1 -18.107470225461281 -19.579723905640076 6.1272870105129833 #
plane-surface $-1 0 0 9.1066621077562058 0 0 1 1 0 0 forward_v I I I I #
coedge $-1 $607 $606 $599 $763 forward $416 $-1 #
coedge $-1 $599 $418 $420 $603 reversed $258 $-1 #
coedge $-1 $418 $598 $597 $763 reversed $258 $-1 #
coedge $-1 $426 $421 $418 $601 forward $427 $-1 #
edge $-1 $604 -32.237558607600704 $764 -27.747318392660514 $600 $765 forward 7 unknown #
coedge $-1 $420 $419 $607 $766 reversed $162 $-1 #
edge $-1 $767 2.9487649192601403e-014 $604 7.4611635197305866 $598 $768 forward 7 unknown #
vertex $-1 $422 $769 #
straight-curve $-1 12.677066540190481 -17.334603798169994 9.1066621077562058 -1 0 0 I I #
coedge $-1 $597 $423 $426 $611 reversed $416 $-1 #
coedge $-1 $423 $597 $602 $766 forward $416 $-1 #
vertex $-1 $424 $770 #
straight-curve $-1 31.616845778459808 -21.824844013110173 30.706159082103753 0 0 1 I I #
straight-curve $-1 31.616845778459808 -21.824844013110194 3.1479119132697591 0 -0.60181501223851219 -0.79863551827123203 I I #
edge $-1 $764 19.091420382302115 $428 31.616845778459808 $606 $771 forward 7 unknown #
point $-1 31.616845778459808 -21.824844013110177 9.1066621077562058 #
point $-1 31.616845778459808 -17.33460379816999 9.1066621077562058 #
edge $-1 $772 1 $772 0 $431 $-1 forward 7 unknown #
vertex $-1 $432 $773 #
ellipse-curve $-1 25.354133080380961 -17.603937606829103 4.6384252852374699 0 -0.79863551827123203 0.60181501223851219 1 0 0 1 I I #
point $-1 26.354133080380961 -19.579723905640076 6.1272870105129833 #
loop $-1 $-1 $443 $435 #
plane-surface $-1 0 21.824844013110177 0 0 -1 0 0 0 -1 forward_v I I I I #
coedge $-1 $621 $438 $440 $625 reversed $273 $-1 #
coedge $-1 $438 $620 $774 $775 reversed $273 $-1 #
coedge $-1 $446 $441 $438 $623 forward $436 $-1 #
edge $-1 $626 -21.964990058272509 $776 -16.222251165159062 $622 $777 forward 7 unknown #
coedge $-1 $440 $439 $629 $778 reversed $171 $-1 #
edge $-1 $779 -43.649688026220389 $626 -33.637528102162634 $620 $780 forward 7 unknown #
vertex $-1 $442 $781 #
straight-curve $-1 -11.754619068137023 16.082105119996733 9.106662107756204 1 0 0 I I #
coedge $-1 $774 $443 $446 $633 reversed $618 $-1 #
coedge $-1 $443 $774 $624 $778 forward $618 $-1 #
vertex $-1 $444 $782 #
straight-curve $-1 -28.73331030423244 21.824844013110177 46.0957072169574 0 0 1 I I #
straight-curve $-1 -28.73331030423244 -3.2115879857559122 36.660912291073011 0 0.57357642473473569 -0.81915205242281985 I I #
edge $-1 $776 18.285165968315653 $447 28.73331030423244 $628 $783 forward 7 unknown #
point $-1 -28.73331030423244 21.824844013110177 9.1066621077562058 #
point $-1 -28.73331030423244 16.082105119996729 9.1066621077562075 #
edge $-1 $784 1 $784 0 $450 $-1 forward 7 unknown #
vertex $-1 $451 $785 #
ellipse-curve $-1 -25.748126208256217 15.959158448782661 2.9092787781024185 0 0.81915205242281985 0.57357642473473569 1 0 0 1 I I #
point $-1 -24.748126208256217 18.95347456655346 5.005921432267515 #
edge $-1 $786 1 $786 0 $454 $-1 forward 7 unknown #
vertex $-1 $455 $787 #
ellipse-curve $-1 -21.270350064291883 15.959158448782661 2.9092787781024185 0 0.81915205242281985 0.57357642473473569 1 0 0 1 I I #
point $-1 -20.270350064291883 18.95347456655346 5.005921432267515 #
loop $-1 $-1 $466 $458 #
plane-surface $-1 0 21.824844013110177 0 0 -1 0 0 0 -1 forward_v I I I I #
coedge $-1 $647 $461 $463 $651 reversed $295 $-1 #
coedge $-1 $461 $646 $788 $789 reversed $295 $-1 #
coedge $-1 $469 $464 $461 $649 forward $459 $-1 #
edge $-1 $652 -21.964990058272509 $790 -16.222251165159062 $648 $791 forward 7 unknown #
coedge $-1 $463 $462 $655 $792 reversed $185 $-1 #
edge $-1 $793 -43.649688026220389 $652 -33.637528102162634 $646 $794 forward 7 unknown #
vertex $-1 $465 $795 #
straight-curve $-1 -0.6392182416764598 16.082105119996733 9.106662107756204 1 0 0 I I #
coedge $-1 $788 $466 $469 $659 reversed $644 $-1 #
coedge $-1 $466 $788 $650 $792 forward $644 $-1 #
vertex $-1 $467 $796 #
straight-curve $-1 -6.5025086513113131 21.824844013110177 46.0957072169574 0 0 1 I I #
straight-curve $-1 -6.5025086513113131 -3.2115879857559122 36.660912291073011 0 0.57357642473473569 -0.81915205242281985 I I #
edge $-1 $790 -3.9456356846054739 $470 6.5025086513113131 $654 $797 forward 7 unknown #
point $-1 -6.5025086513113131 21.824844013110177 9.1066621077562058 #
point $-1 -6.5025086513113131 16.082105119996729 9.1066621077562075 #
edge $-1 $798 1 $798 0 $473 $-1 forward 7 unknown #
vertex $-1 $474 $799 #
ellipse-curve $-1 -3.5173245553350938 15.959158448782661 2.9092787781024185 0 0.81915205242281985 0.57357642473473569 1 0 0 1 I I #
point $-1 -2.5173245553350938 18.95347456655346 5.005921432267515 #
edge $-1 $800 1 $800 0 $477 $-1 forward 7 unknown #
vertex $-1 $478 $801 #
ellipse-curve $-1 0.9604515886292404 15.959158448782661 2.9092787781024185 0 0.81915205242281985 0.57357642473473569 1 0 0 1 I I #
point $-1 1.9604515886292404 18.95347456655346 5.005921432267515 #
loop $-1 $-1 $489 $481 #
plane-surface $-1 0 21.824844013110177 0 0 -1 0 0 0 -1 forward_v I I I I #
coedge $-1 $673 $484 $486 $677 reversed $317 $-1 #
coedge $-1 $484 $672 $802 $803 reversed $317 $-1 #
coedge $-1 $492 $487 $484 $675 forward $482 $-1 #
edge $-1 $678 -21.964990058272509 $804 -16.222251165159062 $674 $805 forward 7 unknown #
coedge $-1 $486 $485 $681 $806 reversed $199 $-1 #
edge $-1 $807 -43.649688026220389 $678 -33.637528102162634 $672 $808 forward 7 unknown #
vertex $-1 $488 $809 #
straight-curve $-1 10.476182584784105 16.082105119996733 9.106662107756204 1 0 0 I I #
coedge $-1 $802 $489 $492 $685 reversed $670 $-1 #
coedge $-1 $489 $802 $676 $806 forward $670 $-1 #
vertex $-1 $490 $810 #
straight-curve $-1 15.728293001609817 21.824844013110177 46.0957072169574 0 0 1 I I #
straight-curve $-1 15.728293001609817 -3.2115879857559122 36.660912291073011 0 0.57357642473473569 -0.81915205242281985 I I #
edge $-1 $804 -26.176437337526604 $493 -15.728293001609817 $680 $811 forward 7 unknown #
point $-1 15.728293001609817 21.824844013110177 9.1066621077562058 #
point $-1 15.728293001609817 16.082105119996729 9.1066621077562075 #
edge $-1 $812 1 $812 0 $496 $-1 forward 7 unknown #
vertex $-1 $497 $813 #
ellipse-curve $-1 18.713477097586022 15.959158448782661 2.9092787781024185 0 0.81915205242281985 0.57357642473473569 1 0 0 1 I I #
point $-1 19.713477097586022 18.95347456655346 5.005921432267515 #
edge $-1 $814 1 $814 0 $500 $-1 forward 7 unknown #
vertex $-1 $501 $815 #
ellipse-curve $-1 23.19125324155037 15.959158448782661 2.9092787781024185 0 0.81915205242281985 0.57357642473473569 1 0 0 1 I I #
point $-1 24.19125324155037 18.95347456655346 5.005921432267515 #
loop $-1 $-1 $511 $504 #
plane-surface $-1 0 21.824844013110177 0 0 -1 0 0 0 -1 forward_v I I I I #
coedge $-1 $816 $817 $508 $700 forward $505 $-1 #
coedge $-1 $508 $507 $705 $818 reversed $213 $-1 #
edge $-1 $702 17.701051751404464 $819 27.713211675462215 $698 $820 forward 7 unknown #
coedge $-1 $514 $509 $817 $821 forward $339 $-1 #
vertex $-1 $821 $822 #
straight-curve $-1 21.591583411244663 16.082105119996733 9.106662107756204 1 0 0 I I #
coedge $-1 $823 $511 $514 $709 reversed $696 $-1 #
coedge $-1 $511 $823 $699 $818 forward $696 $-1 #
vertex $-1 $512 $824 #
straight-curve $-1 37.959094654530929 21.824844013110177 46.0957072169574 0 0 1 I I #
straight-curve $-1 37.959094654530929 -3.2115879857559122 36.660912291073011 0 0.57357642473473569 -0.81915205242281985 I I #
edge $-1 $825 -48.407238990447709 $515 -37.959094654530929 $704 $826 forward 7 unknown #
point $-1 37.959094654530929 21.824844013110177 9.1066621077562058 #
point $-1 37.959094654530929 16.082105119996729 9.1066621077562075 #
edge $-1 $827 1 $827 0 $518 $-1 forward 7 unknown #
vertex $-1 $519 $828 #
ellipse-curve $-1 40.944278750507138 15.959158448782661 2.9092787781024185 0 0.81915205242281985 0.57357642473473569 1 0 0 1 I I #
point $-1 41.944278750507138 18.95347456655346 5.005921432267515 #
edge $-1 $829 1 $829 0 $522 $-1 forward 7 unknown #
vertex $-1 $523 $830 #
ellipse-curve $-1 45.422054894471486 15.959158448782661 2.9092787781024185 0 0.81915205242281985 0.57357642473473569 1 0 0 1 I I #
point $-1 46.422054894471486 18.95347456655346 5.005921432267515 #
plane-surface $-1 48.407238990447709 0 0 -1 0 0 0 0 1 forward_v I I I I #
coedge $-1 $531 $529 $533 $725 reversed $361 $-1 #
edge $-1 $544 -9.1066621077562058 $727 9.1066621077562058 $543 $831 forward 7 unknown #
vertex $-1 $725 $832 #
straight-curve $-1 -48.407238990447709 -21.824844013110177 0 0 0 -1 I I #
edge $-1 $723 -21.824844013110177 $727 21.824844013110177 $721 $833 forward 7 unknown #
straight-curve $-1 0 -21.824844013110177 -9.1066621077562058 -1 0 0 I I #
vertex $-1 $536 $834 #
straight-curve $-1 0 21.824844013110177 -9.1066621077562058 1 0 0 I I #
point $-1 48.407238990447709 21.824844013110177 -9.1066621077562058 #
point $-1 48.407238990447709 -21.824844013110177 -9.1066621077562058 #
straight-curve $-1 -48.407238990447709 0 9.1066621077562058 0 -1 0 I I #
point $-1 -48.407238990447709 21.824844013110177 9.1066621077562058 #
point $-1 -48.407238990447709 -21.824844013110177 9.1066621077562058 #
straight-curve $-1 48.407238990447709 -21.824844013110177 0 0 0 -1 I I #
straight-curve $-1 48.407238990447709 21.824844013110177 0 0 0 -1 I I #
plane-surface $-1 0 -21.824844013110177 0 0 1 0 0 0 1 forward_v I I I I #
coedge $-1 $835 $556 $566 $748 reversed $380 $-1 #
coedge $-1 $556 $835 $569 $750 forward $380 $-1 #
coedge $-1 $836 $559 $557 $740 forward $554 $-1 #
edge $-1 $741 40.515967621236783 $837 48.407238990447709 $557 $838 forward 7 unknown #
vertex $-1 $740 $839 #
straight-curve $-1 -40.515967621236783 21.824844013110177 3.3382710422198878 0 0 -1 I I #
coedge $-1 $559 $836 $561 $745 forward $554 $-1 #
straight-curve $-1 -40.515967621236783 0 9.1066621077562058 0 1 0 I I #
edge $-1 $840 -48.407238990447709 $563 -40.515967621236783 $561 $841 forward 7 unknown #
point $-1 -40.515967621236783 -21.824844013110177 9.1066621077562058 #
straight-curve $-1 -48.407238990447709 0 4.2464220611233454 0 -1 0 I I #
edge $-1 $840 -9.1066621077562058 $567 -4.2464220611233454 $737 $842 forward 7 unknown #
point $-1 -48.407238990447709 -21.824844013110177 4.2464220611233454 #
edge $-1 $837 -9.1066621077562058 $570 -4.2464220611233454 $569 $843 forward 7 unknown #
point $-1 -48.407238990447709 21.824844013110177 4.2464220611233454 #
edge $-1 $753 21.599496974347545 $756 27.558247168833969 $575 $844 forward 7 unknown #
vertex $-1 $589 $845 #
straight-curve $-1 -25.370182923540128 -49.57216240577069 9.1066621077562075 0 -1 0 I I #
edge $-1 $756 -15.816447810809487 $586 -3.2910224146517937 $585 $846 forward 7 unknown #
vertex $-1 $755 $847 #
straight-curve $-1 -25.370182923540128 -21.824844013110194 3.1479119132697591 0 0.60181501223851219 0.79863551827123203 I I #
point $-1 -25.370182923540128 -17.33460379816999 9.1066621077562058 #
point $-1 -12.844757527382434 -21.824844013110177 3.1479119132697826 #
straight-curve $-1 0 -21.824844013110177 9.1066621077562058 1 0 0 I I #
vertex $-1 $592 $848 #
point $-1 -18.107470225461281 -17.603937606829103 4.6384252852374699 #
edge $-1 $764 21.599496974347545 $767 27.558247168833969 $597 $849 forward 7 unknown #
vertex $-1 $611 $850 #
straight-curve $-1 19.091420382302115 -49.57216240577069 9.1066621077562075 0 -1 0 I I #
edge $-1 $767 6.414353842111634 $608 18.939779238269328 $607 $851 forward 7 unknown #
vertex $-1 $766 $852 #
straight-curve $-1 19.091420382302115 -21.824844013110194 3.1479119132697591 0 0.60181501223851219 0.79863551827123203 I I #
point $-1 19.091420382302115 -17.33460379816999 9.1066621077562058 #
point $-1 31.616845778459808 -21.824844013110177 3.1479119132697826 #
straight-curve $-1 0 -21.824844013110177 9.1066621077562058 1 0 0 I I #
vertex $-1 $614 $853 #
point $-1 26.354133080380961 -17.603937606829103 4.6384252852374699 #
coedge $-1 $629 $628 $621 $775 forward $618 $-1 #
edge $-1 $776 36.989045109201193 $779 45.190526460178603 $774 $854 forward 7 unknown #
vertex $-1 $633 $855 #
straight-curve $-1 -18.285165968315653 38.047095178269238 9.1066621077562075 0 1 0 I I #
edge $-1 $779 6.5305469001786296 $630 16.978691236095415 $629 $856 forward 7 unknown #
vertex $-1 $778 $857 #
straight-curve $-1 -18.285165968315653 -3.2115879857559122 36.660912291073011 0 -0.57357642473473569 0.81915205242281985 I I #
point $-1 -18.285165968315653 16.082105119996729 9.1066621077562075 #
point $-1 -28.73331030423244 21.824844013110177 0.9051807567787975 #
straight-curve $-1 0 21.824844013110177 9.1066621077562058 -1 0 0 I I #
vertex $-1 $636 $858 #
point $-1 -24.748126208256217 15.959158448782661 2.9092787781024185 #
vertex $-1 $640 $859 #
point $-1 -20.270350064291883 15.959158448782661 2.9092787781024185 #
coedge $-1 $655 $654 $647 $789 forward $644 $-1 #
edge $-1 $790 36.989045109201193 $793 45.190526460178603 $788 $860 forward 7 unknown #
vertex $-1 $659 $861 #
straight-curve $-1 3.9456356846054739 38.047095178269238 9.1066621077562075 0 1 0 I I #
edge $-1 $793 -4.5848539262819337 $656 5.8632904096348533 $655 $862 forward 7 unknown #
vertex $-1 $792 $863 #
straight-curve $-1 3.9456356846054739 -3.2115879857559122 36.660912291073011 0 -0.57357642473473569 0.81915205242281985 I I #
point $-1 3.9456356846054739 16.082105119996729 9.1066621077562075 #
point $-1 -6.5025086513113131 21.824844013110177 0.9051807567787975 #
straight-curve $-1 0 21.824844013110177 9.1066621077562058 -1 0 0 I I #
vertex $-1 $662 $864 #
point $-1 -2.5173245553350938 15.959158448782661 2.9092787781024185 #
vertex $-1 $666 $865 #
point $-1 1.9604515886292404 15.959158448782661 2.9092787781024185 #
coedge $-1 $681 $680 $673 $803 forward $670 $-1 #
edge $-1 $804 36.989045109201193 $807 45.190526460178603 $802 $866 forward 7 unknown #
vertex $-1 $685 $867 #
straight-curve $-1 26.176437337526604 38.047095178269238 9.1066621077562075 0 1 0 I I #
edge $-1 $807 -15.700254752742499 $682 -5.2521104168257118 $681 $868 forward 7 unknown #
vertex $-1 $806 $869 #
straight-curve $-1 26.176437337526604 -3.2115879857559122 36.660912291073011 0 -0.57357642473473569 0.81915205242281985 I I #
point $-1 26.176437337526604 16.082105119996729 9.1066621077562075 #
point $-1 15.728293001609817 21.824844013110177 0.9051807567787975 #
straight-curve $-1 0 21.824844013110177 9.1066621077562058 -1 0 0 I I #
vertex $-1 $688 $870 #
point $-1 19.713477097586022 15.959158448782661 2.9092787781024185 #
vertex $-1 $692 $871 #
point $-1 24.19125324155037 15.959158448782661 2.9092787781024185 #
coedge $-1 $817 $698 $823 $872 reversed $505 $-1 #
coedge $-1 $698 $816 $701 $821 reversed $505 $-1 #
edge $-1 $819 -26.81565557920306 $706 -16.367511243286266 $705 $873 forward 7 unknown #
vertex $-1 $700 $874 #
straight-curve $-1 48.407238990447709 5.929199142381627 23.606514979961723 0 0.57357642473473569 -0.81915205242281985 I I #
edge $-1 $702 16.082105119996729 $825 21.824844013110177 $817 $875 forward 7 unknown #
point $-1 48.407238990447723 16.082105119996729 9.1066621077562075 #
coedge $-1 $705 $704 $816 $872 forward $696 $-1 #
point $-1 37.959094654530929 21.824844013110177 0.9051807567787975 #
vertex $-1 $821 $876 #
straight-curve $-1 0 21.824844013110177 9.1066621077562058 -1 0 0 I I #
vertex $-1 $712 $877 #
point $-1 41.944278750507138 15.959158448782661 2.9092787781024185 #
vertex $-1 $716 $878 #
point $-1 46.422054894471486 15.959158448782661 2.9092787781024185 #
straight-curve $-1 -48.407238990447709 21.824844013110177 0 0 0 -1 I I #
point $-1 -48.407238990447709 -21.824844013110177 -9.1066621077562058 #
straight-curve $-1 -48.407238990447709 0 -9.1066621077562058 0 1 0 I I #
point $-1 -48.407238990447709 21.824844013110177 -9.1066621077562058 #
coedge $-1 $738 $737 $836 $879 reversed $380 $-1 #
coedge $-1 $743 $739 $835 $879 forward $554 $-1 #
vertex $-1 $740 $880 #
straight-curve $-1 0 21.824844013110177 9.1066621077562058 -1 0 0 I I #
point $-1 -40.515967621236783 21.824844013110177 9.1066621077562058 #
vertex $-1 $879 $881 #
straight-curve $-1 0 -21.824844013110177 9.1066621077562058 1 0 0 I I #
straight-curve $-1 -48.407238990447709 -21.824844013110177 0 0 0 -1 I I #
straight-curve $-1 -48.407238990447709 21.824844013110177 0 0 0 -1 I I #
straight-curve $-1 -25.370182923540128 -21.824844013110173 30.706159082103753 0 0 -1 I I #
point $-1 -25.370182923540128 -21.824844013110177 9.1066621077562058 #
straight-curve $-1 -9.5537351127306405 -21.824844013110177 3.1479119132697857 1 0 0 I I #
point $-1 -25.370182923540128 -21.824844013110177 3.1479119132697826 #
point $-1 -19.107470225461281 -16.80530208855787 4.0366102729989572 #
straight-curve $-1 19.091420382302115 -21.824844013110173 30.706159082103753 0 0 -1 I I #
point $-1 19.091420382302115 -21.824844013110177 9.1066621077562058 #
straight-curve $-1 12.677066540190481 -21.824844013110177 3.1479119132697857 1 0 0 I I #
point $-1 19.091420382302115 -21.824844013110177 3.1479119132697826 #
point $-1 25.354133080380961 -16.80530208855787 4.0366102729989572 #
straight-curve $-1 -18.285165968315653 21.824844013110177 46.0957072169574 0 0 -1 I I #
point $-1 -18.285165968315653 21.824844013110177 9.1066621077562058 #
straight-curve $-1 -11.754619068137023 21.82484401311018 0.90518075677879395 -1 0 0 I I #
point $-1 -18.285165968315653 21.824844013110177 0.9051807567787975 #
point $-1 -25.748126208256217 15.140006396359842 2.3357023533676831 #
point $-1 -21.270350064291883 15.140006396359842 2.3357023533676831 #
straight-curve $-1 3.9456356846054739 21.824844013110177 46.0957072169574 0 0 -1 I I #
point $-1 3.9456356846054739 21.824844013110177 9.1066621077562058 #
straight-curve $-1 -0.6392182416764598 21.82484401311018 0.90518075677879395 -1 0 0 I I #
point $-1 3.9456356846054739 21.824844013110177 0.9051807567787975 #
point $-1 -3.5173245553350938 15.140006396359842 2.3357023533676831 #
point $-1 0.9604515886292404 15.140006396359842 2.3357023533676831 #
straight-curve $-1 26.176437337526604 21.824844013110177 46.0957072169574 0 0 -1 I I #
point $-1 26.176437337526604 21.824844013110177 9.1066621077562058 #
straight-curve $-1 10.476182584784105 21.82484401311018 0.90518075677879395 -1 0 0 I I #
point $-1 26.176437337526604 21.824844013110177 0.9051807567787975 #
point $-1 18.713477097586022 15.140006396359842 2.3357023533676831 #
point $-1 23.19125324155037 15.140006396359842 2.3357023533676831 #
edge $-1 $825 -9.1066621077562058 $819 -0.9051807567787975 $816 $882 forward 7 unknown #
straight-curve $-1 21.591583411244663 21.82484401311018 0.90518075677879395 -1 0 0 I I #
point $-1 48.407238990447723 21.824844013110177 0.9051807567787975 #
straight-curve $-1 48.407238990447709 0 9.1066621077562058 0 1 0 I I #
point $-1 48.407238990447709 21.824844013110177 9.1066621077562058 #
point $-1 40.944278750507138 15.140006396359842 2.3357023533676831 #
point $-1 45.422054894471486 15.140006396359842 2.3357023533676831 #
edge $-1 $837 -21.824844013110177 $840 21.824844013110177 $835 $883 forward 7 unknown #
point $-1 -48.407238990447709 21.824844013110177 9.1066621077562058 #
point $-1 -48.407238990447709 -21.824844013110177 9.1066621077562058 #
straight-curve $-1 48.407238990447709 21.824844013110177 0 0 0 -1 I I #
straight-curve $-1 -48.407238990447709 0 9.1066621077562058 0 -1 0 I I #
End-of-ACIS-data 