500 0 9 0           
7 Unknown 11 ACIS 5.0 NT 24 Thu Mar 25 16:39:48 1999 
-1 9.9999999999999995e-007 1e-010 
body $-1 $9 $-1 $10 #
body $-1 $11 $-1 $12 #
body $-1 $13 $-1 $14 #
body $-1 $15 $-1 $16 #
body $-1 $17 $-1 $18 #
body $-1 $19 $-1 $20 #
body $-1 $21 $-1 $22 #
body $-1 $23 $-1 $24 #
body $-1 $25 $-1 $26 #
lump $-1 $-1 $27 $0 #
transform $-1 1 0 0 0 1 0 0 0 1 45.775322733237708 29.935080129165449 7.0062905672958387 1 rotate no_reflect no_shear #
lump $-1 $-1 $28 $1 #
transform $-1 1 0 0 0 1 0 0 0 1 45.775322733237708 29.935080129165449 7.0062905672958387 1 rotate no_reflect no_shear #
lump $-1 $-1 $29 $2 #
transform $-1 1 0 0 0 1 0 0 0 1 45.775322733237708 29.935080129165449 7.0062905672958387 1 rotate no_reflect no_shear #
lump $-1 $-1 $30 $3 #
transform $-1 1 0 0 0 1 0 0 0 1 45.775322733237708 29.935080129165449 7.0062905672958387 1 rotate no_reflect no_shear #
lump $-1 $-1 $31 $4 #
transform $-1 1 0 0 0 1 0 0 0 1 45.775322733237708 29.935080129165449 7.0062905672958387 1 rotate no_reflect no_shear #
lump $-1 $-1 $32 $5 #
transform $-1 1 0 0 0 1 0 0 0 1 45.775322733237708 29.935080129165449 7.0062905672958387 1 rotate no_reflect no_shear #
lump $-1 $-1 $33 $6 #
transform $-1 1 0 0 0 1 0 0 0 1 45.775322733237708 29.935080129165449 7.0062905672958387 1 rotate no_reflect no_shear #
lump $-1 $-1 $34 $7 #
transform $-1 1 0 0 0 1 0 0 0 1 45.775322733237708 29.935080129165449 7.0062905672958387 1 rotate no_reflect no_shear #
lump $-1 $-1 $35 $8 #
transform $-1 1 0 0 0 1 0 0 0 1 45.775322733237708 29.935080129165449 7.0062905672958387 1 rotate no_reflect no_shear #
shell $-1 $-1 $-1 $36 $-1 $9 #
shell $-1 $-1 $-1 $37 $-1 $11 #
shell $-1 $-1 $-1 $38 $-1 $13 #
shell $-1 $-1 $-1 $39 $-1 $15 #
shell $-1 $-1 $-1 $40 $-1 $17 #
shell $-1 $-1 $-1 $41 $-1 $19 #
shell $-1 $-1 $-1 $42 $-1 $21 #
shell $-1 $-1 $-1 $43 $-1 $23 #
shell $-1 $-1 $-1 $44 $-1 $25 #
face $-1 $45 $46 $27 $-1 $47 forward single #
face $-1 $48 $49 $28 $-1 $50 forward single #
face $-1 $51 $52 $29 $-1 $53 forward single #
face $-1 $54 $55 $30 $-1 $56 reversed single #
face $-1 $57 $58 $31 $-1 $59 forward single #
face $-1 $60 $61 $32 $-1 $62 forward single #
face $-1 $63 $64 $33 $-1 $65 reversed single #
face $-1 $66 $67 $34 $-1 $68 forward single #
face $-1 $69 $70 $35 $-1 $71 forward single #
face $-1 $72 $73 $27 $-1 $74 reversed single #
loop $-1 $-1 $75 $36 #
plane-surface $-1 0 0 7.0062905672958387 0 0 1 1 0 0 forward_v I I I I #
face $-1 $76 $77 $28 $-1 $78 reversed single #
loop $-1 $-1 $79 $37 #
plane-surface $-1 0 -27.448718300571585 5.1598255032543729 0 0 1 1 0 0 forward_v I I I I #
face $-1 $80 $81 $29 $-1 $82 reversed single #
loop $-1 $-1 $83 $38 #
plane-surface $-1 0 27.448718300571585 5.1598255032543729 0 0 1 1 0 0 forward_v I I I I #
face $-1 $84 $85 $30 $-1 $86 reversed single #
loop $-1 $-1 $87 $39 #
plane-surface $-1 -22.260065050908608 -20.964575057400683 61.661717111053619 0.66913061440640931 0 0.74314481823134659 0.74314481823134659 0 -0.66913061440640931 forward_v I I I I #
face $-1 $88 $89 $31 $-1 $90 forward single #
loop $-1 $91 $92 $40 #
cone-surface $-1 41.548642678074962 -22.67790994936227 3.0829620256379568 -0.66913061440640931 0 -0.74314481823134659 0.3715724091156733 0 -0.33456530720320465 1 I I 0 1 0.5 forward I I I I #
face $-1 $93 $94 $32 $-1 $95 forward single #
loop $-1 $96 $97 $41 #
cone-surface $-1 41.548642678074962 -19.251240165439096 3.0829620256379568 -0.66913061440640931 0 -0.74314481823134659 0.3715724091156733 0 -0.33456530720320465 1 I I 0 1 0.5 forward I I I I #
face $-1 $98 $99 $33 $-1 $100 reversed single #
loop $-1 $-1 $101 $42 #
plane-surface $-1 38.999274599377436 16.966793642823635 129.69710489519994 0 1 0 0.66913061440640931 0 0.74314481823134659 forward_v I I I I #
face $-1 $102 $103 $34 $-1 $104 forward single #
loop $-1 $105 $106 $43 #
cone-surface $-1 41.548642678074962 19.251240165439093 3.0829620256379568 -0.66913061440640931 0 -0.74314481823134659 0.3715724091156733 0 -0.33456530720320465 1 I I 0 1 0.5 forward I I I I #
face $-1 $107 $108 $35 $-1 $109 forward single #
loop $-1 $110 $111 $44 #
cone-surface $-1 41.548642678074962 22.677909949362267 3.0829620256379568 -0.66913061440640931 0 -0.74314481823134659 0.3715724091156733 0 -0.33456530720320465 1 I I 0 1 0.5 forward I I I I #
face $-1 $112 $113 $27 $-1 $114 reversed single #
loop $-1 $-1 $115 $45 #
plane-surface $-1 0 0 -7.0062905672958387 0 0 1 1 0 0 forward_v I I I I #
coedge $-1 $116 $117 $118 $119 forward $46 $-1 #
face $-1 $120 $121 $28 $-1 $122 reversed single #
loop $-1 $-1 $123 $48 #
plane-surface $-1 0 -27.448718300571585 2.1598255032543729 0 0 1 1 0 0 forward_v I I I I #
coedge $-1 $124 $125 $126 $127 reversed $49 $-1 #
face $-1 $128 $129 $29 $-1 $130 reversed single #
loop $-1 $-1 $131 $51 #
plane-surface $-1 0 27.448718300571585 2.1598255032543729 0 0 1 1 0 0 forward_v I I I I #
coedge $-1 $132 $133 $134 $135 reversed $52 $-1 #
face $-1 $136 $137 $30 $-1 $138 forward single #
loop $-1 $-1 $139 $54 #
plane-surface $-1 38.999274599377436 -16.966793642823646 129.69710489519994 0 -1 0 -0.66913061440640931 0 -0.74314481823134659 forward_v I I I I #
coedge $-1 $140 $141 $142 $143 reversed $55 $-1 #
face $-1 $-1 $144 $31 $-1 $145 forward single #
loop $-1 $146 $147 $57 #
cone-surface $-1 40.821874160926093 -22.67790994936227 2.2758038326863748 -0.66913061440640931 0 -0.74314481823134659 0.18578620455783665 0 -0.16728265360160233 1 I I -0.70710678118654746 0.70710678118654746 0.25 forward I I I I #
loop $-1 $-1 $148 $40 #
coedge $-1 $92 $92 $149 $150 reversed $58 $-1 #
face $-1 $-1 $151 $32 $-1 $152 forward single #
loop $-1 $153 $154 $60 #
cone-surface $-1 40.821874160926093 -19.251240165439096 2.2758038326863748 -0.66913061440640931 0 -0.74314481823134659 0.18578620455783665 0 -0.16728265360160233 1 I I -0.70710678118654746 0.70710678118654746 0.25 forward I I I I #
loop $-1 $-1 $155 $41 #
coedge $-1 $97 $97 $156 $157 reversed $61 $-1 #
face $-1 $158 $159 $33 $-1 $160 forward single #
loop $-1 $-1 $161 $63 #
plane-surface $-1 -22.260065050908608 20.964575057400673 61.661717111053619 0.66913061440640931 0 0.74314481823134659 0.74314481823134659 0 -0.66913061440640931 forward_v I I I I #
coedge $-1 $162 $163 $164 $165 reversed $64 $-1 #
face $-1 $-1 $166 $34 $-1 $167 forward single #
loop $-1 $168 $169 $66 #
cone-surface $-1 40.821874160926093 19.251240165439093 2.2758038326863748 -0.66913061440640931 0 -0.74314481823134659 0.18578620455783665 0 -0.16728265360160233 1 I I -0.70710678118654746 0.70710678118654746 0.25 forward I I I I #
loop $-1 $-1 $170 $43 #
coedge $-1 $106 $106 $171 $172 reversed $67 $-1 #
face $-1 $-1 $173 $35 $-1 $174 forward single #
loop $-1 $175 $176 $69 #
cone-surface $-1 40.821874160926093 22.677909949362267 2.2758038326863748 -0.66913061440640931 0 -0.74314481823134659 0.18578620455783665 0 -0.16728265360160233 1 I I -0.70710678118654746 0.70710678118654746 0.25 forward I I I I #
loop $-1 $-1 $177 $44 #
coedge $-1 $111 $111 $178 $179 reversed $70 $-1 #
face $-1 $180 $181 $27 $-1 $182 reversed single #
loop $-1 $-1 $183 $72 #
plane-surface $-1 0 -29.935080129165449 0 0 1 0 0 0 1 forward_v I I I I #
coedge $-1 $184 $185 $186 $187 forward $73 $-1 #
coedge $-1 $188 $75 $189 $190 forward $46 $-1 #
coedge $-1 $75 $188 $191 $192 forward $46 $-1 #
coedge $-1 $193 $194 $75 $119 reversed $195 $-1 #
edge $-1 $196 -29.935080129165449 $197 29.935080129165449 $118 $198 forward 7 unknown #
face $-1 $199 $200 $28 $-1 $201 reversed single #
loop $-1 $-1 $202 $76 #
plane-surface $-1 0 -24.962356471977721 3.6598255032543729 0 -1 0 0 0 -1 forward_v I I I I #
coedge $-1 $203 $204 $205 $206 reversed $77 $-1 #
coedge $-1 $207 $79 $208 $209 forward $49 $-1 #
coedge $-1 $79 $207 $210 $211 reversed $49 $-1 #
coedge $-1 $212 $213 $79 $127 forward $214 $-1 #
edge $-1 $215 11.237997321691928 $216 16.210720978879657 $126 $217 forward 7 unknown #
face $-1 $218 $219 $29 $-1 $220 reversed single #
loop $-1 $-1 $221 $80 #
plane-surface $-1 0 24.962356471977721 3.6598255032543729 0 1 0 0 0 1 forward_v I I I I #
coedge $-1 $222 $223 $224 $225 reversed $81 $-1 #
coedge $-1 $226 $83 $227 $228 reversed $52 $-1 #
coedge $-1 $83 $226 $221 $229 forward $52 $-1 #
coedge $-1 $230 $231 $83 $135 forward $219 $-1 #
edge $-1 $232 -16.210720978879657 $233 -11.237997321691928 $134 $234 forward 7 unknown #
face $-1 $235 $236 $30 $-1 $237 reversed single #
loop $-1 $-1 $238 $84 #
plane-surface $-1 0 -24.962356471977721 3.6598255032543729 0 -1 0 0 0 -1 forward_v I I I I #
coedge $-1 $239 $240 $241 $242 reversed $85 $-1 #
coedge $-1 $243 $87 $238 $244 forward $55 $-1 #
coedge $-1 $87 $243 $239 $245 forward $55 $-1 #
coedge $-1 $241 $246 $87 $143 forward $236 $-1 #
edge $-1 $247 -14.480068943277379 $248 -6.4845061141233042 $142 $249 forward 7 unknown #
loop $-1 $-1 $149 $88 #
plane-surface $-1 -22.260065050908608 -20.964575057400683 61.661717111053619 0.66913061440640931 0 0.74314481823134659 0.74314481823134659 0 -0.66913061440640931 forward_v I I I I #
loop $-1 $-1 $250 $57 #
coedge $-1 $147 $147 $148 $251 reversed $89 $-1 #
coedge $-1 $148 $148 $147 $251 forward $91 $-1 #
coedge $-1 $149 $149 $92 $150 forward $144 $-1 #
edge $-1 $252 0 $252 6.2831853071796004 $149 $253 forward 7 unknown #
loop $-1 $-1 $156 $93 #
plane-surface $-1 -22.260065050908608 -20.964575057400683 61.661717111053619 0.66913061440640931 0 0.74314481823134659 0.74314481823134659 0 -0.66913061440640931 forward_v I I I I #
loop $-1 $-1 $254 $60 #
coedge $-1 $154 $154 $155 $255 reversed $94 $-1 #
coedge $-1 $155 $155 $154 $255 forward $96 $-1 #
coedge $-1 $156 $156 $97 $157 forward $151 $-1 #
edge $-1 $256 0 $256 6.2831853071796004 $156 $257 forward 7 unknown #
face $-1 $258 $259 $33 $-1 $260 forward single #
loop $-1 $-1 $261 $98 #
plane-surface $-1 0 24.962356471977721 3.6598255032543729 0 1 0 0 0 1 forward_v I I I I #
coedge $-1 $262 $263 $264 $265 reversed $99 $-1 #
coedge $-1 $163 $101 $266 $267 reversed $64 $-1 #
coedge $-1 $101 $162 $262 $268 reversed $64 $-1 #
coedge $-1 $264 $269 $101 $165 forward $270 $-1 #
edge $-1 $271 57.842261880304136 $272 64.446174986832375 $164 $273 forward 7 unknown #
loop $-1 $-1 $171 $102 #
plane-surface $-1 -22.260065050908608 20.964575057400673 61.661717111053619 0.66913061440640931 0 0.74314481823134659 0.74314481823134659 0 -0.66913061440640931 forward_v I I I I #
loop $-1 $-1 $274 $66 #
coedge $-1 $169 $169 $170 $275 reversed $103 $-1 #
coedge $-1 $170 $170 $169 $275 forward $105 $-1 #
coedge $-1 $171 $171 $106 $172 forward $166 $-1 #
edge $-1 $276 0 $276 6.2831853071796004 $171 $277 forward 7 unknown #
loop $-1 $-1 $178 $107 #
plane-surface $-1 -22.260065050908608 20.964575057400673 61.661717111053619 0.66913061440640931 0 0.74314481823134659 0.74314481823134659 0 -0.66913061440640931 forward_v I I I I #
loop $-1 $-1 $278 $69 #
coedge $-1 $176 $176 $177 $279 reversed $108 $-1 #
coedge $-1 $177 $177 $176 $279 forward $110 $-1 #
coedge $-1 $178 $178 $111 $179 forward $173 $-1 #
edge $-1 $280 0 $280 6.2831853071796004 $178 $281 forward 7 unknown #
face $-1 $282 $283 $27 $-1 $284 reversed single #
loop $-1 $-1 $285 $112 #
plane-surface $-1 -45.775322733237708 0 0 1 0 0 0 0 -1 forward_v I I I I #
coedge $-1 $286 $191 $287 $288 forward $113 $-1 #
coedge $-1 $289 $115 $286 $290 forward $73 $-1 #
coedge $-1 $115 $289 $291 $292 forward $73 $-1 #
coedge $-1 $194 $193 $115 $187 reversed $195 $-1 #
edge $-1 $293 -29.935080129165449 $294 29.935080129165449 $186 $295 forward 7 unknown #
coedge $-1 $117 $116 $296 $297 forward $46 $-1 #
coedge $-1 $298 $299 $116 $190 reversed $283 $-1 #
edge $-1 $197 -45.775322733237708 $300 45.775322733237708 $189 $301 forward 7 unknown #
coedge $-1 $183 $302 $117 $192 reversed $113 $-1 #
edge $-1 $303 -45.775322733237708 $196 45.775322733237708 $191 $304 forward 7 unknown #
coedge $-1 $186 $118 $302 $305 forward $195 $-1 #
coedge $-1 $118 $186 $298 $306 reversed $195 $-1 #
loop $-1 $-1 $193 $282 #
vertex $-1 $119 $307 #
vertex $-1 $119 $308 #
straight-curve $-1 45.775322733237708 0 7.0062905672958387 0 1 0 I I #
face $-1 $309 $310 $28 $-1 $311 reversed single #
loop $-1 $-1 $312 $120 #
plane-surface $-1 -45.775322733237708 0 0 1 0 0 0 0 -1 forward_v I I I I #
coedge $-1 $313 $314 $204 $315 reversed $121 $-1 #
coedge $-1 $316 $123 $317 $318 reversed $77 $-1 #
coedge $-1 $123 $316 $202 $315 forward $77 $-1 #
coedge $-1 $213 $212 $123 $206 forward $214 $-1 #
edge $-1 $319 -16.210720978879657 $320 -11.237997321691928 $205 $321 forward 7 unknown #
coedge $-1 $125 $124 $312 $322 reversed $49 $-1 #
coedge $-1 $314 $313 $124 $209 reversed $121 $-1 #
edge $-1 $215 -45.775322733237708 $323 45.775322733237708 $208 $324 forward 7 unknown #
coedge $-1 $325 $326 $125 $211 forward $310 $-1 #
edge $-1 $216 -45.775322733237708 $327 45.775322733237708 $210 $328 forward 7 unknown #
coedge $-1 $205 $126 $326 $329 forward $214 $-1 #
coedge $-1 $126 $205 $314 $330 forward $214 $-1 #
loop $-1 $-1 $126 $309 #
vertex $-1 $127 $331 #
vertex $-1 $329 $332 #
straight-curve $-1 45.775322733237708 -13.724359150285792 5.1598255032543729 0 -1 0 I I #
face $-1 $333 $334 $29 $-1 $335 reversed single #
loop $-1 $-1 $134 $128 #
plane-surface $-1 45.775322733237708 0 0 -1 0 0 0 0 1 forward_v I I I I #
coedge $-1 $336 $337 $133 $229 reversed $129 $-1 #
coedge $-1 $338 $131 $339 $340 forward $81 $-1 #
coedge $-1 $131 $338 $341 $342 reversed $81 $-1 #
coedge $-1 $231 $230 $131 $225 forward $219 $-1 #
edge $-1 $343 11.237997321691928 $344 16.210720978879657 $224 $345 forward 7 unknown #
coedge $-1 $133 $132 $346 $347 reversed $52 $-1 #
coedge $-1 $348 $349 $132 $228 forward $350 $-1 #
edge $-1 $351 -45.775322733237708 $232 45.775322733237708 $227 $352 forward 7 unknown #
edge $-1 $353 -45.775322733237708 $233 45.775322733237708 $221 $354 forward 7 unknown #
coedge $-1 $224 $134 $337 $355 forward $219 $-1 #
coedge $-1 $134 $224 $348 $356 reversed $219 $-1 #
vertex $-1 $356 $357 #
vertex $-1 $135 $358 #
straight-curve $-1 45.775322733237708 13.724359150285792 5.1598255032543729 0 -1 0 I I #
face $-1 $-1 $359 $30 $-1 $360 forward single #
loop $-1 $-1 $246 $136 #
plane-surface $-1 45.775322733237708 0 0 -1 0 0 0 0 1 forward_v I I I I #
coedge $-1 $361 $362 $140 $244 reversed $137 $-1 #
coedge $-1 $240 $139 $141 $245 reversed $85 $-1 #
coedge $-1 $139 $239 $363 $364 reversed $85 $-1 #
coedge $-1 $365 $142 $139 $242 forward $236 $-1 #
edge $-1 $248 -64.446174986832375 $366 -57.842261880304136 $241 $367 forward 7 unknown #
coedge $-1 $141 $140 $368 $369 reversed $55 $-1 #
edge $-1 $247 -91.550645466475402 $370 -81.681252310123355 $238 $371 forward 7 unknown #
edge $-1 $372 81.681252310123355 $248 91.550645466475402 $239 $373 forward 7 unknown #
coedge $-1 $142 $365 $361 $374 forward $236 $-1 #
vertex $-1 $143 $375 #
vertex $-1 $143 $376 #
straight-curve $-1 45.775322733237708 -10.482287528700342 0.4023774607675854 0 1 0 I I #
coedge $-1 $250 $250 $-1 $377 reversed $146 $-1 #
edge $-1 $378 0 $378 6.2831853071796004 $147 $379 forward 7 unknown #
vertex $-1 $150 $380 #
ellipse-curve $-1 42.108128541622236 -22.67790994936227 3.7043340140317116 0.66913061440640931 0 0.74314481823134659 0.3715724091156733 0 -0.33456530720320465 1 I I #
coedge $-1 $254 $254 $-1 $381 reversed $153 $-1 #
edge $-1 $382 0 $382 6.2831853071796004 $154 $383 forward 7 unknown #
vertex $-1 $157 $384 #
ellipse-curve $-1 42.108128541622236 -19.251240165439096 3.7043340140317116 0.66913061440640931 0 0.74314481823134659 0.3715724091156733 0 -0.33456530720320465 1 I I #
face $-1 $-1 $270 $33 $-1 $385 reversed single #
loop $-1 $-1 $386 $158 #
plane-surface $-1 0 0 7.0062905672958387 0 0 1 1 0 0 forward_v I I I I #
coedge $-1 $387 $388 $263 $389 reversed $159 $-1 #
coedge $-1 $390 $161 $163 $268 forward $99 $-1 #
coedge $-1 $161 $390 $261 $389 forward $99 $-1 #
coedge $-1 $391 $164 $161 $265 forward $270 $-1 #
edge $-1 $272 6.4845061141232989 $392 14.480068943277374 $264 $393 forward 7 unknown #
coedge $-1 $394 $395 $162 $267 forward $259 $-1 #
edge $-1 $396 18.941297050318052 $271 26.27568543354899 $266 $397 forward 7 unknown #
edge $-1 $272 -91.550645466475402 $396 -81.681252310123355 $163 $398 forward 7 unknown #
coedge $-1 $164 $391 $394 $399 reversed $270 $-1 #
loop $-1 $-1 $391 $258 #
vertex $-1 $399 $400 #
vertex $-1 $165 $401 #
straight-curve $-1 45.775322733237708 16.966793642823635 64.848552447599971 0 0 -1 I I #
coedge $-1 $274 $274 $-1 $402 reversed $168 $-1 #
edge $-1 $403 0 $403 6.2831853071796004 $169 $404 forward 7 unknown #
vertex $-1 $172 $405 #
ellipse-curve $-1 42.108128541622236 19.251240165439093 3.7043340140317116 0.66913061440640931 0 0.74314481823134659 0.3715724091156733 0 -0.33456530720320465 1 I I #
coedge $-1 $278 $278 $-1 $406 reversed $175 $-1 #
edge $-1 $407 0 $407 6.2831853071796004 $176 $408 forward 7 unknown #
vertex $-1 $179 $409 #
ellipse-curve $-1 42.108128541622236 22.677909949362267 3.7043340140317116 0.66913061440640931 0 0.74314481823134659 0.3715724091156733 0 -0.33456530720320465 1 I I #
face $-1 $-1 $195 $27 $-1 $410 reversed single #
loop $-1 $-1 $298 $180 #
plane-surface $-1 0 29.935080129165449 0 0 -1 0 0 0 -1 forward_v I I I I #
coedge $-1 $411 $296 $299 $412 forward $181 $-1 #
coedge $-1 $302 $183 $184 $290 reversed $113 $-1 #
coedge $-1 $296 $411 $183 $288 reversed $181 $-1 #
edge $-1 $303 -7.0062905672958387 $413 7.0062905672958387 $287 $414 forward 7 unknown #
coedge $-1 $185 $184 $411 $415 forward $73 $-1 #
edge $-1 $294 -45.775322733237708 $413 45.775322733237708 $286 $416 forward 7 unknown #
coedge $-1 $299 $298 $185 $292 reversed $283 $-1 #
edge $-1 $417 -45.775322733237708 $293 45.775322733237708 $291 $418 forward 7 unknown #
vertex $-1 $187 $419 #
vertex $-1 $305 $420 #
straight-curve $-1 45.775322733237708 0 -7.0062905672958387 0 -1 0 I I #
coedge $-1 $285 $287 $188 $297 reversed $181 $-1 #
edge $-1 $300 -29.935080129165449 $303 29.935080129165449 $296 $421 forward 7 unknown #
coedge $-1 $291 $189 $194 $306 forward $283 $-1 #
coedge $-1 $189 $291 $285 $412 reversed $283 $-1 #
vertex $-1 $190 $422 #
straight-curve $-1 0 29.935080129165449 7.0062905672958387 -1 0 0 I I #
coedge $-1 $191 $286 $193 $305 reversed $113 $-1 #
vertex $-1 $297 $423 #
straight-curve $-1 0 -29.935080129165449 7.0062905672958387 1 0 0 I I #
edge $-1 $196 -7.0062905672958387 $294 7.0062905672958387 $193 $424 forward 7 unknown #
edge $-1 $197 -7.0062905672958387 $293 7.0062905672958387 $194 $425 forward 7 unknown #
point $-1 45.775322733237708 -29.935080129165449 7.0062905672958387 #
point $-1 45.775322733237708 29.935080129165449 7.0062905672958387 #
face $-1 $-1 $214 $28 $-1 $426 reversed single #
loop $-1 $-1 $210 $199 #
plane-surface $-1 0 -29.935080129165449 0 0 1 0 0 0 1 forward_v I I I I #
coedge $-1 $427 $428 $207 $322 forward $200 $-1 #
coedge $-1 $208 $202 $427 $429 reversed $121 $-1 #
coedge $-1 $202 $208 $213 $330 reversed $121 $-1 #
edge $-1 $430 -45.775322733237708 $320 45.775322733237708 $202 $431 forward 7 unknown #
coedge $-1 $204 $203 $432 $433 reversed $77 $-1 #
coedge $-1 $326 $325 $203 $318 forward $310 $-1 #
edge $-1 $434 -45.775322733237708 $319 45.775322733237708 $317 $435 forward 7 unknown #
vertex $-1 $318 $436 #
vertex $-1 $206 $437 #
straight-curve $-1 45.775322733237708 -13.724359150285792 2.1598255032543729 0 1 0 I I #
edge $-1 $327 -16.210720978879657 $323 -11.237997321691928 $312 $438 forward 7 unknown #
vertex $-1 $322 $439 #
straight-curve $-1 0 -24.962356471977721 5.1598255032543729 -1 0 0 I I #
coedge $-1 $317 $210 $428 $440 forward $310 $-1 #
coedge $-1 $210 $317 $212 $329 reversed $310 $-1 #
vertex $-1 $440 $441 #
straight-curve $-1 0 -29.935080129165449 5.1598255032543729 -1 0 0 I I #
edge $-1 $216 -5.1598255032543729 $319 -2.1598255032543729 $212 $442 forward 7 unknown #
edge $-1 $320 0.32991275162718647 $215 3.3299127516271865 $213 $443 forward 7 unknown #
point $-1 45.775322733237708 -24.962356471977721 5.1598255032543729 #
point $-1 45.775322733237708 -29.935080129165449 5.1598255032543729 #
face $-1 $-1 $350 $29 $-1 $444 reversed single #
loop $-1 $-1 $346 $218 #
plane-surface $-1 -45.775322733237708 0 0 1 0 0 0 0 -1 forward_v I I I I #
coedge $-1 $339 $221 $445 $446 reversed $129 $-1 #
coedge $-1 $221 $339 $230 $355 reversed $129 $-1 #
coedge $-1 $223 $222 $447 $448 reversed $81 $-1 #
coedge $-1 $337 $336 $222 $340 reversed $129 $-1 #
edge $-1 $343 -45.775322733237708 $449 45.775322733237708 $339 $450 forward 7 unknown #
coedge $-1 $349 $348 $223 $342 forward $350 $-1 #
edge $-1 $344 -45.775322733237708 $451 45.775322733237708 $341 $452 forward 7 unknown #
vertex $-1 $225 $453 #
vertex $-1 $342 $454 #
straight-curve $-1 45.775322733237708 13.724359150285792 2.1598255032543729 0 1 0 I I #
coedge $-1 $455 $445 $226 $347 forward $334 $-1 #
edge $-1 $353 11.237997321691928 $351 16.210720978879657 $346 $456 forward 7 unknown #
coedge $-1 $341 $227 $231 $356 forward $350 $-1 #
coedge $-1 $227 $341 $455 $457 reversed $350 $-1 #
loop $-1 $-1 $227 $333 #
vertex $-1 $457 $458 #
straight-curve $-1 0 29.935080129165449 5.1598255032543729 1 0 0 I I #
vertex $-1 $347 $459 #
straight-curve $-1 0 24.962356471977721 5.1598255032543729 1 0 0 I I #
edge $-1 $233 -3.3299127516271865 $343 -0.32991275162718647 $230 $460 forward 7 unknown #
edge $-1 $232 -5.1598255032543729 $344 -2.1598255032543729 $231 $461 forward 7 unknown #
point $-1 45.775322733237708 29.935080129165449 5.1598255032543729 #
point $-1 45.775322733237708 24.962356471977721 5.1598255032543729 #
loop $-1 $-1 $462 $235 #
plane-surface $-1 0 0 7.0062905672958387 0 0 1 1 0 0 forward_v I I I I #
coedge $-1 $362 $238 $246 $374 reversed $137 $-1 #
coedge $-1 $238 $361 $462 $463 reversed $137 $-1 #
coedge $-1 $368 $464 $240 $364 forward $359 $-1 #
edge $-1 $366 -26.27568543354899 $372 -18.941297050318052 $363 $465 forward 7 unknown #
coedge $-1 $246 $241 $464 $466 reversed $236 $-1 #
vertex $-1 $364 $467 #
straight-curve $-1 45.775322733237708 -16.966793642823646 64.848552447599971 0 0 1 I I #
coedge $-1 $462 $363 $243 $369 forward $359 $-1 #
edge $-1 $372 6.4845061141233042 $370 14.480068943277379 $368 $468 forward 7 unknown #
vertex $-1 $463 $469 #
straight-curve $-1 -22.260065050908608 -24.962356471977721 61.661717111053619 -0.74314481823134659 0 0.66913061440640931 I I #
vertex $-1 $369 $470 #
straight-curve $-1 -22.260065050908608 -16.966793642823646 61.661717111053619 0.74314481823134659 0 -0.66913061440640931 I I #
edge $-1 $471 57.842261880304136 $247 64.446174986832375 $246 $472 forward 7 unknown #
point $-1 45.775322733237701 -24.962356471977721 0.40237746076758896 #
point $-1 45.775322733237701 -16.966793642823646 0.40237746076758896 #
edge $-1 $473 1 $473 0 $250 $-1 forward 7 unknown #
vertex $-1 $251 $474 #
ellipse-curve $-1 40.989156814527696 -22.67790994936227 2.4615900372442114 0.66913061440640931 0 0.74314481823134659 0.3715724091156733 0 -0.33456530720320465 1 I I #
point $-1 42.479700950737893 -22.67790994936227 3.3697687068284981 #
edge $-1 $475 1 $475 0 $254 $-1 forward 7 unknown #
vertex $-1 $255 $476 #
ellipse-curve $-1 40.989156814527696 -19.251240165439096 2.4615900372442114 0.66913061440640931 0 0.74314481823134659 0.3715724091156733 0 -0.33456530720320465 1 I I #
point $-1 42.479700950737893 -19.251240165439096 3.3697687068284981 #
plane-surface $-1 45.775322733237708 0 0 -1 0 0 0 0 1 forward_v I I I I #
coedge $-1 $395 $394 $387 $477 forward $259 $-1 #
coedge $-1 $388 $261 $386 $477 reversed $159 $-1 #
coedge $-1 $261 $387 $391 $478 reversed $159 $-1 #
edge $-1 $479 81.681252310123355 $392 91.550645466475402 $261 $480 forward 7 unknown #
coedge $-1 $263 $262 $395 $481 reversed $99 $-1 #
coedge $-1 $269 $264 $388 $478 forward $270 $-1 #
vertex $-1 $478 $482 #
straight-curve $-1 45.775322733237708 10.482287528700336 0.4023774607675854 0 1 0 I I #
coedge $-1 $386 $266 $269 $399 forward $259 $-1 #
coedge $-1 $266 $386 $390 $481 forward $259 $-1 #
vertex $-1 $267 $483 #
straight-curve $-1 19.499637299688718 16.966793642823635 7.0062905672958351 1 0 0 I I #
straight-curve $-1 -22.260065050908608 16.966793642823635 61.661717111053619 -0.74314481823134659 0 0.66913061440640931 I I #
edge $-1 $271 16.966793642823635 $484 24.96235647197771 $269 $485 forward 7 unknown #
point $-1 45.775322733237708 16.966793642823635 7.0062905672958387 #
point $-1 45.775322733237701 16.966793642823635 0.40237746076758896 #
edge $-1 $486 1 $486 0 $274 $-1 forward 7 unknown #
vertex $-1 $275 $487 #
ellipse-curve $-1 40.989156814527696 19.251240165439093 2.4615900372442114 0.66913061440640931 0 0.74314481823134659 0.3715724091156733 0 -0.33456530720320465 1 I I #
point $-1 42.479700950737893 19.251240165439093 3.3697687068284981 #
edge $-1 $488 1 $488 0 $278 $-1 forward 7 unknown #
vertex $-1 $279 $489 #
ellipse-curve $-1 40.989156814527696 22.677909949362267 2.4615900372442114 0.66913061440640931 0 0.74314481823134659 0.3715724091156733 0 -0.33456530720320465 1 I I #
point $-1 42.479700950737893 22.677909949362267 3.3697687068284981 #
plane-surface $-1 45.775322733237708 0 0 -1 0 0 0 0 1 forward_v I I I I #
coedge $-1 $287 $285 $289 $415 reversed $181 $-1 #
edge $-1 $300 -7.0062905672958387 $417 7.0062905672958387 $299 $490 forward 7 unknown #
vertex $-1 $415 $491 #
straight-curve $-1 -45.775322733237708 -29.935080129165449 0 0 0 -1 I I #
edge $-1 $413 -29.935080129165449 $417 29.935080129165449 $411 $492 forward 7 unknown #
straight-curve $-1 0 -29.935080129165449 -7.0062905672958387 -1 0 0 I I #
vertex $-1 $292 $493 #
straight-curve $-1 0 29.935080129165449 -7.0062905672958387 1 0 0 I I #
point $-1 45.775322733237708 29.935080129165449 -7.0062905672958387 #
point $-1 45.775322733237708 -29.935080129165449 -7.0062905672958387 #
straight-curve $-1 -45.775322733237708 0 7.0062905672958387 0 -1 0 I I #
point $-1 -45.775322733237708 29.935080129165449 7.0062905672958387 #
point $-1 -45.775322733237708 -29.935080129165449 7.0062905672958387 #
straight-curve $-1 45.775322733237708 -29.935080129165449 0 0 0 -1 I I #
straight-curve $-1 45.775322733237708 29.935080129165449 0 0 0 -1 I I #
plane-surface $-1 45.775322733237708 0 0 -1 0 0 0 0 1 forward_v I I I I #
coedge $-1 $432 $312 $313 $429 forward $200 $-1 #
coedge $-1 $312 $432 $325 $440 reversed $200 $-1 #
edge $-1 $323 -3.3299127516271865 $430 -0.32991275162718647 $427 $494 forward 7 unknown #
vertex $-1 $433 $495 #
straight-curve $-1 0 -24.962356471977721 2.1598255032543729 1 0 0 I I #
coedge $-1 $428 $427 $316 $433 forward $200 $-1 #
edge $-1 $430 11.237997321691928 $434 16.210720978879657 $432 $496 forward 7 unknown #
vertex $-1 $318 $497 #
straight-curve $-1 0 -29.935080129165449 2.1598255032543729 1 0 0 I I #
point $-1 45.775322733237708 -29.935080129165449 2.1598255032543729 #
point $-1 45.775322733237708 -24.962356471977721 2.1598255032543729 #
straight-curve $-1 -45.775322733237708 -13.724359150285792 5.1598255032543729 0 1 0 I I #
point $-1 -45.775322733237708 -24.962356471977721 5.1598255032543729 #
edge $-1 $327 -5.1598255032543729 $434 -2.1598255032543729 $428 $498 forward 7 unknown #
point $-1 -45.775322733237708 -29.935080129165449 5.1598255032543729 #
straight-curve $-1 45.775322733237708 -29.935080129165449 0 0 0 -1 I I #
straight-curve $-1 45.775322733237708 -24.962356471977721 1.8299127516271865 0 0 1 I I #
plane-surface $-1 0 29.935080129165449 0 0 -1 0 0 0 -1 forward_v I I I I #
coedge $-1 $346 $447 $336 $446 forward $334 $-1 #
edge $-1 $449 0.32991275162718647 $353 3.3299127516271865 $445 $499 forward 7 unknown #
coedge $-1 $445 $455 $338 $448 forward $334 $-1 #
edge $-1 $451 -16.210720978879657 $449 -11.237997321691928 $447 $500 forward 7 unknown #
vertex $-1 $448 $501 #
straight-curve $-1 0 24.962356471977721 2.1598255032543729 -1 0 0 I I #
vertex $-1 $342 $502 #
straight-curve $-1 0 29.935080129165449 2.1598255032543729 -1 0 0 I I #
point $-1 45.775322733237708 24.962356471977721 2.1598255032543729 #
point $-1 45.775322733237708 29.935080129165449 2.1598255032543729 #
coedge $-1 $447 $346 $349 $457 forward $334 $-1 #
straight-curve $-1 -45.775322733237708 13.724359150285792 5.1598255032543729 0 1 0 I I #
edge $-1 $351 -5.1598255032543729 $451 -2.1598255032543729 $349 $503 forward 7 unknown #
point $-1 -45.775322733237708 29.935080129165449 5.1598255032543729 #
point $-1 -45.775322733237708 24.962356471977721 5.1598255032543729 #
straight-curve $-1 45.775322733237708 24.962356471977721 1.8299127516271865 0 0 -1 I I #
straight-curve $-1 45.775322733237708 29.935080129165449 0 0 0 -1 I I #
coedge $-1 $464 $368 $362 $463 forward $359 $-1 #
edge $-1 $370 18.941297050318052 $471 26.27568543354899 $462 $504 forward 7 unknown #
coedge $-1 $363 $462 $365 $466 forward $359 $-1 #
straight-curve $-1 19.499637299688718 -16.966793642823646 7.0062905672958351 -1 0 0 I I #
edge $-1 $471 -24.962356471977721 $366 -16.966793642823646 $365 $505 forward 7 unknown #
point $-1 45.775322733237708 -16.966793642823646 7.0062905672958387 #
straight-curve $-1 38.440934350006771 -10.482287528700342 7.0062905672958422 0 -1 0 I I #
point $-1 38.440934350006771 -24.962356471977721 7.0062905672958422 #
point $-1 38.440934350006771 -16.966793642823646 7.0062905672958422 #
vertex $-1 $466 $506 #
straight-curve $-1 45.775322733237708 -24.962356471977721 64.848552447599971 0 0 -1 I I #
vertex $-1 $377 $507 #
point $-1 41.360729223643368 -22.67790994936227 2.1270247300410068 #
vertex $-1 $381 $508 #
point $-1 41.360729223643368 -19.251240165439096 2.1270247300410068 #
edge $-1 $484 -26.27568543354899 $479 -18.941297050318052 $386 $509 forward 7 unknown #
edge $-1 $392 -64.446174986832375 $484 -57.842261880304136 $391 $510 forward 7 unknown #
vertex $-1 $477 $511 #
straight-curve $-1 -22.260065050908608 24.96235647197771 61.661717111053619 0.74314481823134659 0 -0.66913061440640931 I I #
edge $-1 $479 -14.480068943277374 $396 -6.4845061141232989 $395 $512 forward 7 unknown #
point $-1 45.775322733237701 24.96235647197771 0.40237746076758896 #
point $-1 38.440934350006771 16.966793642823635 7.0062905672958422 #
vertex $-1 $477 $513 #
straight-curve $-1 45.775322733237708 0 7.0062905672958387 0 1 0 I I #
vertex $-1 $402 $514 #
point $-1 41.360729223643368 19.251240165439093 2.1270247300410068 #
vertex $-1 $406 $515 #
point $-1 41.360729223643368 22.677909949362267 2.1270247300410068 #
straight-curve $-1 -45.775322733237708 29.935080129165449 0 0 0 -1 I I #
point $-1 -45.775322733237708 -29.935080129165449 -7.0062905672958387 #
straight-curve $-1 -45.775322733237708 0 -7.0062905672958387 0 1 0 I I #
point $-1 -45.775322733237708 29.935080129165449 -7.0062905672958387 #
straight-curve $-1 -45.775322733237708 -24.962356471977721 1.8299127516271865 0 0 -1 I I #
point $-1 -45.775322733237708 -24.962356471977721 2.1598255032543729 #
straight-curve $-1 -45.775322733237708 -13.724359150285792 2.1598255032543729 0 -1 0 I I #
point $-1 -45.775322733237708 -29.935080129165449 2.1598255032543729 #
straight-curve $-1 -45.775322733237708 -29.935080129165449 0 0 0 -1 I I #
straight-curve $-1 -45.775322733237708 24.962356471977721 1.8299127516271865 0 0 1 I I #
straight-curve $-1 -45.775322733237708 13.724359150285792 2.1598255032543729 0 -1 0 I I #
point $-1 -45.775322733237708 24.962356471977721 2.1598255032543729 #
point $-1 -45.775322733237708 29.935080129165449 2.1598255032543729 #
straight-curve $-1 -45.775322733237708 29.935080129165449 0 0 0 -1 I I #
straight-curve $-1 19.499637299688718 -24.962356471977721 7.0062905672958351 1 0 0 I I #
straight-curve $-1 45.775322733237708 0 7.0062905672958387 0 1 0 I I #
point $-1 45.775322733237708 -24.962356471977721 7.0062905672958387 #
point $-1 40.65459150732449 -22.67790994936227 2.0900176281285381 #
point $-1 40.65459150732449 -19.251240165439096 2.0900176281285381 #
straight-curve $-1 19.499637299688718 24.96235647197771 7.0062905672958351 -1 0 0 I I #
straight-curve $-1 45.775322733237708 24.96235647197771 64.848552447599971 0 0 1 I I #
point $-1 38.440934350006771 24.96235647197771 7.0062905672958422 #
straight-curve $-1 38.440934350006771 10.482287528700336 7.0062905672958422 0 -1 0 I I #
point $-1 45.775322733237708 24.96235647197771 7.0062905672958387 #
point $-1 40.65459150732449 19.251240165439093 2.0900176281285381 #
point $-1 40.65459150732449 22.677909949362267 2.0900176281285381 #
End-of-ACIS-data 