500 0 7 0           
7 Unknown 11 ACIS 5.0 NT 24 Fri Mar 26 18:49:09 1999 
-1 9.9999999999999995e-007 1e-010 
body $-1 $7 $-1 $8 #
body $-1 $9 $-1 $10 #
body $-1 $11 $-1 $12 #
body $-1 $13 $-1 $14 #
body $-1 $15 $-1 $16 #
body $-1 $17 $-1 $18 #
body $-1 $19 $-1 $20 #
lump $-1 $-1 $21 $0 #
transform $-1 1 0 0 0 1 0 0 0 1 77.309488204596079 53.108010919294863 17.431298154726534 1 rotate no_reflect no_shear #
lump $-1 $-1 $22 $1 #
transform $-1 1 0 0 0 1 0 0 0 1 77.309488204596079 53.108010919294863 17.431298154726534 1 rotate no_reflect no_shear #
lump $-1 $-1 $23 $2 #
transform $-1 1 0 0 0 1 0 0 0 1 77.309488204596079 53.108010919294863 17.431298154726534 1 rotate no_reflect no_shear #
lump $-1 $-1 $24 $3 #
transform $-1 1 0 0 0 1 0 0 0 1 77.309488204596079 53.108010919294863 17.431298154726534 1 rotate no_reflect no_shear #
lump $-1 $-1 $25 $4 #
transform $-1 1 0 0 0 1 0 0 0 1 77.309488204596079 53.108010919294863 17.431298154726534 1 rotate no_reflect no_shear #
lump $-1 $-1 $26 $5 #
transform $-1 1 0 0 0 1 0 0 0 1 77.309488204596079 53.108010919294863 17.431298154726534 1 rotate no_reflect no_shear #
lump $-1 $-1 $27 $6 #
transform $-1 1 0 0 0 1 0 0 0 1 77.309488204596079 53.108010919294863 17.431298154726534 1 rotate no_reflect no_shear #
shell $-1 $-1 $-1 $28 $-1 $7 #
shell $-1 $-1 $-1 $29 $-1 $9 #
shell $-1 $-1 $-1 $30 $-1 $11 #
shell $-1 $-1 $-1 $31 $-1 $13 #
shell $-1 $-1 $-1 $32 $-1 $15 #
shell $-1 $-1 $-1 $33 $-1 $17 #
shell $-1 $-1 $-1 $34 $-1 $19 #
face $-1 $35 $36 $21 $-1 $37 forward single #
face $-1 $38 $39 $22 $-1 $40 reversed single #
face $-1 $41 $42 $23 $-1 $43 forward single #
face $-1 $44 $45 $24 $-1 $46 forward single #
face $-1 $47 $48 $25 $-1 $49 reversed single #
face $-1 $50 $51 $26 $-1 $52 forward single #
face $-1 $53 $54 $27 $-1 $55 forward single #
face $-1 $56 $57 $21 $-1 $58 reversed single #
loop $-1 $-1 $59 $28 #
plane-surface $-1 0 0 17.431298154726534 0 0 1 1 0 0 forward_v I I I I #
face $-1 $60 $61 $22 $-1 $62 reversed single #
loop $-1 $-1 $63 $29 #
plane-surface $-1 133.90396474499389 -35.948152328008547 218.95297950737972 0 -1 0 -0.86602541151947299 0 -0.49999998660252726 forward_v I I I I #
face $-1 $64 $65 $23 $-1 $66 forward single #
loop $-1 $67 $68 $30 #
cone-surface $-1 71.480931032762385 -46.700620704646781 10.835589956077632 -0.86602541151947299 0 -0.49999998660252726 0.99999997320505452 0 -1.732050823038946 1 I I 0 1 2 forward I I I I #
face $-1 $69 $70 $24 $-1 $71 forward single #
loop $-1 $72 $73 $31 #
cone-surface $-1 71.480931032762385 -40.249139678663838 10.835589956077632 -0.86602541151947299 0 -0.49999998660252726 0.99999997320505452 0 -1.732050823038946 1 I I 0 1 2 forward I I I I #
face $-1 $74 $75 $25 $-1 $76 reversed single #
loop $-1 $-1 $77 $32 #
plane-surface $-1 -208.43381800336414 -29.908528308845241 85.388038035025176 0 -1 0 0.84804810408105047 0 -0.52991925155115449 forward_v I I I I #
face $-1 $78 $79 $26 $-1 $80 forward single #
loop $-1 $81 $82 $33 #
cone-surface $-1 -71.550308549738617 -46.479587316309257 9.5722464223686199 0.84804810408105047 0 -0.52991925155115449 1.059838503102309 0 1.6960962081621009 1 I I 0 1 2 forward I I I I #
face $-1 $83 $84 $27 $-1 $85 forward single #
loop $-1 $86 $87 $34 #
cone-surface $-1 -71.550308549738617 -36.536951911830847 9.5722464223686199 0.84804810408105047 0 -0.52991925155115449 1.059838503102309 0 1.6960962081621009 1 I I 0 1 2 forward I I I I #
face $-1 $88 $89 $21 $-1 $90 reversed single #
loop $-1 $-1 $91 $35 #
plane-surface $-1 0 0 -17.431298154726534 0 0 1 1 0 0 forward_v I I I I #
coedge $-1 $92 $93 $94 $95 forward $36 $-1 #
face $-1 $96 $97 $22 $-1 $98 reversed single #
loop $-1 $-1 $99 $38 #
plane-surface $-1 2.0715035589091713e-006 -43.474880191655309 141.64349337428717 0.86602541151947299 0 0.49999998660252726 0.49999998660252726 0 -0.86602541151947299 forward_v I I I I #
coedge $-1 $100 $101 $102 $103 reversed $39 $-1 #
face $-1 $-1 $104 $23 $-1 $105 forward single #
loop $-1 $106 $107 $41 #
cone-surface $-1 67.584120623679127 -46.700620704646781 8.5857654977910443 -0.86602541151947299 0 -0.49999998660252726 0.49999998660252726 0 -0.86602541151947299 1 I I -0.70710678118654746 0.70710678118654746 1 forward I I I I #
loop $-1 $-1 $108 $30 #
coedge $-1 $68 $68 $109 $110 reversed $42 $-1 #
face $-1 $-1 $111 $24 $-1 $112 forward single #
loop $-1 $113 $114 $44 #
cone-surface $-1 67.584120623679127 -40.249139678663838 8.5857654977910443 -0.86602541151947299 0 -0.49999998660252726 0.49999998660252726 0 -0.86602541151947299 1 I I -0.70710678118654746 0.70710678118654746 1 forward I I I I #
loop $-1 $-1 $115 $31 #
coedge $-1 $73 $73 $116 $117 reversed $45 $-1 #
face $-1 $118 $119 $25 $-1 $120 reversed single #
loop $-1 $-1 $121 $47 #
plane-surface $-1 -77.30948820459605 -41.508269614070052 3.4524657806604608 -0.84804810408105047 0 0.52991925155115449 0.52991925155115449 0 0.84804810408105047 forward_v I I I I #
coedge $-1 $122 $123 $124 $125 reversed $48 $-1 #
face $-1 $-1 $126 $26 $-1 $127 forward single #
loop $-1 $128 $129 $50 #
cone-surface $-1 -69.31055260848143 -46.479587316309257 8.1726916254925897 0.84804810408105047 0 -0.52991925155115449 0.52991925155115449 0 0.84804810408105047 1 I I -0.70710678118654746 0.70710678118654746 1 forward I I I I #
loop $-1 $-1 $130 $33 #
coedge $-1 $82 $82 $131 $132 reversed $51 $-1 #
face $-1 $-1 $133 $27 $-1 $134 forward single #
loop $-1 $135 $136 $53 #
cone-surface $-1 -69.31055260848143 -36.536951911830847 8.1726916254925897 0.84804810408105047 0 -0.52991925155115449 0.52991925155115449 0 0.84804810408105047 1 I I -0.70710678118654746 0.70710678118654746 1 forward I I I I #
loop $-1 $-1 $137 $34 #
coedge $-1 $87 $87 $138 $139 reversed $54 $-1 #
face $-1 $140 $141 $21 $-1 $142 reversed single #
loop $-1 $-1 $143 $56 #
plane-surface $-1 0 -53.108010919294863 0 0 1 0 0 0 1 forward_v I I I I #
coedge $-1 $144 $145 $146 $147 forward $57 $-1 #
coedge $-1 $148 $59 $149 $150 forward $36 $-1 #
coedge $-1 $59 $148 $151 $152 forward $36 $-1 #
coedge $-1 $153 $154 $59 $95 reversed $155 $-1 #
edge $-1 $156 -53.108010919294863 $157 53.108010919294863 $94 $158 forward 7 unknown #
face $-1 $159 $160 $22 $-1 $161 forward single #
loop $-1 $-1 $162 $60 #
plane-surface $-1 133.90396474499389 -51.001608055302071 218.95297950737972 0 1 0 0.86602541151947299 0 0.49999998660252726 forward_v I I I I #
coedge $-1 $163 $164 $165 $166 reversed $61 $-1 #
coedge $-1 $101 $63 $167 $168 reversed $39 $-1 #
coedge $-1 $63 $100 $163 $169 reversed $39 $-1 #
coedge $-1 $165 $170 $63 $103 forward $160 $-1 #
edge $-1 $171 -10.357505832099136 $172 -4.7619614835593609 $102 $173 forward 7 unknown #
loop $-1 $-1 $109 $64 #
plane-surface $-1 2.0715035589091713e-006 -43.474880191655309 141.64349337428717 0.86602541151947299 0 0.49999998660252726 0.49999998660252726 0 -0.86602541151947299 forward_v I I I I #
loop $-1 $-1 $174 $41 #
coedge $-1 $107 $107 $108 $175 reversed $65 $-1 #
coedge $-1 $108 $108 $107 $175 forward $67 $-1 #
coedge $-1 $109 $109 $68 $110 forward $104 $-1 #
edge $-1 $176 0 $176 6.2831853071796004 $109 $177 forward 7 unknown #
loop $-1 $-1 $116 $69 #
plane-surface $-1 2.0715035589091713e-006 -43.474880191655309 141.64349337428717 0.86602541151947299 0 0.49999998660252726 0.49999998660252726 0 -0.86602541151947299 forward_v I I I I #
loop $-1 $-1 $178 $44 #
coedge $-1 $114 $114 $115 $179 reversed $70 $-1 #
coedge $-1 $115 $115 $114 $179 forward $72 $-1 #
coedge $-1 $116 $116 $73 $117 forward $111 $-1 #
edge $-1 $180 0 $180 6.2831853071796004 $116 $181 forward 7 unknown #
face $-1 $182 $183 $25 $-1 $184 forward single #
loop $-1 $-1 $185 $74 #
plane-surface $-1 0 -53.108010919294863 0 0 1 0 0 0 1 forward_v I I I I #
coedge $-1 $186 $187 $188 $189 reversed $75 $-1 #
coedge $-1 $123 $77 $190 $191 reversed $48 $-1 #
coedge $-1 $77 $122 $186 $192 reversed $48 $-1 #
coedge $-1 $188 $193 $77 $125 forward $194 $-1 #
edge $-1 $195 25.262720862786054 $196 39.24155323685217 $124 $197 forward 7 unknown #
loop $-1 $-1 $131 $78 #
plane-surface $-1 -77.30948820459605 -41.508269614070052 3.4524657806604608 -0.84804810408105047 0 0.52991925155115449 0.52991925155115449 0 0.84804810408105047 forward_v I I I I #
loop $-1 $-1 $198 $50 #
coedge $-1 $129 $129 $130 $199 reversed $79 $-1 #
coedge $-1 $130 $130 $129 $199 forward $81 $-1 #
coedge $-1 $131 $131 $82 $132 forward $126 $-1 #
edge $-1 $200 0 $200 6.2831853071796004 $131 $201 forward 7 unknown #
loop $-1 $-1 $138 $83 #
plane-surface $-1 -77.30948820459605 -41.508269614070052 3.4524657806604608 -0.84804810408105047 0 0.52991925155115449 0.52991925155115449 0 0.84804810408105047 forward_v I I I I #
loop $-1 $-1 $202 $53 #
coedge $-1 $136 $136 $137 $203 reversed $84 $-1 #
coedge $-1 $137 $137 $136 $203 forward $86 $-1 #
coedge $-1 $138 $138 $87 $139 forward $133 $-1 #
edge $-1 $204 0 $204 6.2831853071796004 $138 $205 forward 7 unknown #
face $-1 $206 $207 $21 $-1 $208 reversed single #
loop $-1 $-1 $209 $88 #
plane-surface $-1 -77.309488204596079 0 0 1 0 0 0 0 -1 forward_v I I I I #
coedge $-1 $210 $151 $211 $212 forward $89 $-1 #
coedge $-1 $213 $91 $210 $214 forward $57 $-1 #
coedge $-1 $91 $213 $215 $216 forward $57 $-1 #
coedge $-1 $154 $153 $91 $147 reversed $155 $-1 #
edge $-1 $217 -53.108010919294863 $218 53.108010919294863 $146 $219 forward 7 unknown #
coedge $-1 $93 $92 $220 $221 forward $36 $-1 #
coedge $-1 $222 $223 $92 $150 reversed $207 $-1 #
edge $-1 $157 -77.309488204596079 $224 77.309488204596079 $149 $225 forward 7 unknown #
coedge $-1 $143 $226 $93 $152 reversed $89 $-1 #
edge $-1 $227 -77.309488204596079 $156 77.309488204596079 $151 $228 forward 7 unknown #
coedge $-1 $146 $94 $226 $229 forward $155 $-1 #
coedge $-1 $94 $146 $222 $230 reversed $155 $-1 #
loop $-1 $-1 $153 $206 #
vertex $-1 $95 $231 #
vertex $-1 $95 $232 #
straight-curve $-1 77.309488204596079 0 17.431298154726534 0 1 0 I I #
face $-1 $-1 $233 $22 $-1 $234 reversed single #
loop $-1 $-1 $102 $96 #
plane-surface $-1 0 0 17.431298154726534 0 0 1 1 0 0 forward_v I I I I #
coedge $-1 $235 $236 $237 $238 reversed $97 $-1 #
coedge $-1 $239 $99 $101 $169 forward $61 $-1 #
coedge $-1 $99 $239 $235 $240 forward $61 $-1 #
coedge $-1 $237 $102 $99 $166 forward $160 $-1 #
edge $-1 $172 14.210712232180892 $241 29.264167959474417 $165 $242 forward 7 unknown #
coedge $-1 $243 $244 $100 $168 forward $233 $-1 #
edge $-1 $245 -101.73695905289293 $171 -92.045191598963328 $167 $246 forward 7 unknown #
edge $-1 $172 143.42788741224791 $245 154.61897640919207 $101 $247 forward 7 unknown #
coedge $-1 $102 $237 $243 $248 forward $160 $-1 #
vertex $-1 $168 $249 #
vertex $-1 $103 $250 #
straight-curve $-1 66.951982372496943 -35.948152328008547 17.431298154726534 -1 0 0 I I #
coedge $-1 $174 $174 $-1 $251 reversed $106 $-1 #
edge $-1 $252 0 $252 6.2831853071796004 $107 $253 forward 7 unknown #
vertex $-1 $110 $254 #
ellipse-curve $-1 74.511716030326198 -46.700620704646781 12.585414427761711 0.86602541151947299 0 0.49999998660252726 0.99999997320505452 0 -1.732050823038946 1 I I #
coedge $-1 $178 $178 $-1 $255 reversed $113 $-1 #
edge $-1 $256 0 $256 6.2831853071796004 $114 $257 forward 7 unknown #
vertex $-1 $117 $258 #
ellipse-curve $-1 74.511716030326198 -40.249139678663838 12.585414427761711 0.86602541151947299 0 0.49999998660252726 0.99999997320505452 0 -1.732050823038946 1 I I #
face $-1 $-1 $194 $25 $-1 $259 reversed single #
loop $-1 $-1 $260 $118 #
plane-surface $-1 0 0 17.431298154726534 0 0 1 1 0 0 forward_v I I I I #
coedge $-1 $261 $262 $187 $263 forward $119 $-1 #
coedge $-1 $264 $121 $123 $192 forward $75 $-1 #
coedge $-1 $121 $264 $185 $263 reversed $75 $-1 #
coedge $-1 $265 $124 $121 $189 forward $194 $-1 #
edge $-1 $196 9.1543935018102154 $266 32.35387611225984 $188 $267 forward 7 unknown #
coedge $-1 $268 $260 $122 $191 forward $183 $-1 #
edge $-1 $269 -35.642364432448673 $195 -26.90742079708599 $190 $270 forward 7 unknown #
edge $-1 $196 -5.3475330259696214e-014 $269 16.483537085686443 $123 $271 forward 7 unknown #
coedge $-1 $124 $265 $268 $272 reversed $194 $-1 #
loop $-1 $-1 $188 $182 #
vertex $-1 $272 $273 #
vertex $-1 $125 $274 #
straight-curve $-1 -77.309488204596079 -29.908528308845241 42.694019017512588 0 0 -1 I I #
coedge $-1 $198 $198 $-1 $275 reversed $128 $-1 #
edge $-1 $276 0 $276 6.2831853071796004 $129 $277 forward 7 unknown #
vertex $-1 $132 $278 #
ellipse-curve $-1 -72.94201638691473 -46.479587316309257 10.441881967693483 -0.84804810408105047 0 0.52991925155115449 1.059838503102309 0 1.6960962081621009 1 I I #
coedge $-1 $202 $202 $-1 $279 reversed $135 $-1 #
edge $-1 $280 0 $280 6.2831853071796004 $136 $281 forward 7 unknown #
vertex $-1 $139 $282 #
ellipse-curve $-1 -72.94201638691473 -36.536951911830847 10.441881967693483 -0.84804810408105047 0 0.52991925155115449 1.059838503102309 0 1.6960962081621009 1 I I #
face $-1 $-1 $155 $21 $-1 $283 reversed single #
loop $-1 $-1 $222 $140 #
plane-surface $-1 0 53.108010919294863 0 0 -1 0 0 0 -1 forward_v I I I I #
coedge $-1 $284 $220 $223 $285 forward $141 $-1 #
coedge $-1 $226 $143 $144 $214 reversed $89 $-1 #
coedge $-1 $220 $284 $143 $212 reversed $141 $-1 #
edge $-1 $227 -17.431298154726534 $286 17.431298154726534 $211 $287 forward 7 unknown #
coedge $-1 $145 $144 $284 $288 forward $57 $-1 #
edge $-1 $218 -77.309488204596079 $286 77.309488204596079 $210 $289 forward 7 unknown #
coedge $-1 $223 $222 $145 $216 reversed $207 $-1 #
edge $-1 $290 -77.309488204596079 $217 77.309488204596079 $215 $291 forward 7 unknown #
vertex $-1 $147 $292 #
vertex $-1 $229 $293 #
straight-curve $-1 77.309488204596079 0 -17.431298154726534 0 -1 0 I I #
coedge $-1 $209 $211 $148 $221 reversed $141 $-1 #
edge $-1 $224 -53.108010919294863 $227 53.108010919294863 $220 $294 forward 7 unknown #
coedge $-1 $215 $149 $154 $230 forward $207 $-1 #
coedge $-1 $149 $215 $209 $285 reversed $207 $-1 #
vertex $-1 $150 $295 #
straight-curve $-1 0 53.108010919294863 17.431298154726534 -1 0 0 I I #
coedge $-1 $151 $210 $153 $229 reversed $89 $-1 #
vertex $-1 $221 $296 #
straight-curve $-1 0 -53.108010919294863 17.431298154726534 1 0 0 I I #
edge $-1 $156 -17.431298154726534 $218 17.431298154726534 $153 $297 forward 7 unknown #
edge $-1 $157 -17.431298154726534 $217 17.431298154726534 $154 $298 forward 7 unknown #
point $-1 77.309488204596079 -53.108010919294863 17.431298154726534 #
point $-1 77.309488204596079 53.108010919294863 17.431298154726534 #
loop $-1 $-1 $167 $159 #
plane-surface $-1 77.309488204596079 0 0 -1 0 0 0 0 1 forward_v I I I I #
coedge $-1 $236 $162 $164 $240 reversed $97 $-1 #
coedge $-1 $162 $235 $299 $300 reversed $97 $-1 #
coedge $-1 $170 $165 $162 $238 forward $160 $-1 #
edge $-1 $241 4.7619614835593609 $301 10.357505832099136 $237 $302 forward 7 unknown #
coedge $-1 $164 $163 $244 $303 reversed $61 $-1 #
edge $-1 $304 -154.61897640919207 $241 -143.42788741224791 $235 $305 forward 7 unknown #
vertex $-1 $166 $306 #
straight-curve $-1 71.713943856056304 -21.737440095827655 17.431298154726534 0 -1 0 I I #
coedge $-1 $299 $167 $170 $248 reversed $233 $-1 #
coedge $-1 $167 $299 $239 $303 forward $233 $-1 #
vertex $-1 $168 $307 #
straight-curve $-1 77.309488204596079 -35.948152328008547 109.47648975368986 0 0 1 I I #
straight-curve $-1 2.0715035589091713e-006 -35.948152328008547 141.64349337428717 0.49999998660252726 0 -0.86602541151947299 I I #
edge $-1 $301 -51.001608055302071 $171 -35.948152328008547 $243 $308 forward 7 unknown #
point $-1 77.309488204596079 -35.948152328008547 17.431298154726534 #
point $-1 71.713943856056304 -35.948152328008547 17.431298154726534 #
edge $-1 $309 1 $309 0 $174 $-1 forward 7 unknown #
vertex $-1 $175 $310 #
ellipse-curve $-1 68.4501460351986 -46.700620704646781 9.0857654843935709 0.86602541151947299 0 0.49999998660252726 0.99999997320505452 0 -1.732050823038946 1 I I #
point $-1 75.51171600353122 -46.700620704646781 10.853363604722746 #
edge $-1 $311 1 $311 0 $178 $-1 forward 7 unknown #
vertex $-1 $179 $312 #
ellipse-curve $-1 68.4501460351986 -40.249139678663838 9.0857654843935709 0.86602541151947299 0 0.49999998660252726 0.99999997320505452 0 -1.732050823038946 1 I I #
point $-1 75.51171600353122 -40.249139678663838 10.853363604722746 #
plane-surface $-1 -77.309488204596079 0 0 1 0 0 0 0 -1 forward_v I I I I #
coedge $-1 $190 $313 $264 $314 forward $183 $-1 #
coedge $-1 $262 $185 $313 $315 reversed $119 $-1 #
coedge $-1 $185 $261 $265 $316 forward $119 $-1 #
edge $-1 $266 -19.019964533744321 $317 -2.5364274480578279 $185 $318 forward 7 unknown #
coedge $-1 $187 $186 $260 $314 reversed $75 $-1 #
coedge $-1 $193 $188 $262 $316 reversed $194 $-1 #
vertex $-1 $263 $319 #
straight-curve $-1 -77.309488204596079 -20.754134807035026 3.4524657806604195 0 -1 0 I I #
coedge $-1 $313 $190 $193 $272 forward $183 $-1 #
vertex $-1 $191 $320 #
straight-curve $-1 -104.21690900168207 -29.908528308845241 17.431298154726534 -1 0 0 I I #
straight-curve $-1 -77.30948820459605 -29.908528308845241 3.4524657806604608 0.52991925155115449 0 0.84804810408105047 I I #
edge $-1 $195 29.908528308845241 $321 53.108010919294863 $193 $322 forward 7 unknown #
point $-1 -77.309488204596079 -29.908528308845241 17.431298154726534 #
point $-1 -77.309488204596079 -29.908528308845241 3.4524657806604155 #
edge $-1 $323 1 $323 0 $198 $-1 forward 7 unknown #
vertex $-1 $199 $324 #
ellipse-curve $-1 -70.158600712562475 -46.479587316309257 8.7026108770437443 -0.84804810408105047 0 0.52991925155115449 1.059838503102309 0 1.6960962081621009 1 I I #
point $-1 -71.882177883812432 -46.479587316309257 12.137978175855597 #
edge $-1 $325 1 $325 0 $202 $-1 forward 7 unknown #
vertex $-1 $203 $326 #
ellipse-curve $-1 -70.158600712562475 -36.536951911830847 8.7026108770437443 -0.84804810408105047 0 0.52991925155115449 1.059838503102309 0 1.6960962081621009 1 I I #
point $-1 -71.882177883812432 -36.536951911830847 12.137978175855597 #
plane-surface $-1 77.309488204596079 0 0 -1 0 0 0 0 1 forward_v I I I I #
coedge $-1 $211 $209 $213 $288 reversed $141 $-1 #
edge $-1 $224 -17.431298154726534 $290 17.431298154726534 $223 $327 forward 7 unknown #
vertex $-1 $288 $328 #
straight-curve $-1 -77.309488204596079 -53.108010919294863 0 0 0 -1 I I #
edge $-1 $286 -53.108010919294863 $290 53.108010919294863 $284 $329 forward 7 unknown #
straight-curve $-1 0 -53.108010919294863 -17.431298154726534 -1 0 0 I I #
vertex $-1 $216 $330 #
straight-curve $-1 0 53.108010919294863 -17.431298154726534 1 0 0 I I #
point $-1 77.309488204596079 53.108010919294863 -17.431298154726534 #
point $-1 77.309488204596079 -53.108010919294863 -17.431298154726534 #
straight-curve $-1 -77.309488204596079 0 17.431298154726534 0 -1 0 I I #
point $-1 -77.309488204596079 53.108010919294863 17.431298154726534 #
point $-1 -77.309488204596079 -53.108010919294863 17.431298154726534 #
straight-curve $-1 77.309488204596079 -53.108010919294863 0 0 0 -1 I I #
straight-curve $-1 77.309488204596079 53.108010919294863 0 0 0 -1 I I #
coedge $-1 $244 $243 $236 $300 forward $233 $-1 #
edge $-1 $301 92.045191598963328 $304 101.73695905289293 $299 $331 forward 7 unknown #
vertex $-1 $248 $332 #
straight-curve $-1 66.951982372496943 -51.001608055302071 17.431298154726534 1 0 0 I I #
edge $-1 $304 -29.264167959474417 $245 -14.210712232180892 $244 $333 forward 7 unknown #
vertex $-1 $303 $334 #
straight-curve $-1 2.0715035589091713e-006 -51.001608055302071 141.64349337428717 -0.49999998660252726 0 0.86602541151947299 I I #
point $-1 71.713943856056304 -51.001608055302071 17.431298154726534 #
point $-1 77.309488204596079 -35.948152328008547 7.7395307007969336 #
straight-curve $-1 77.309488204596079 0 17.431298154726534 0 1 0 I I #
vertex $-1 $251 $335 #
point $-1 69.450146008403649 -46.700620704646781 7.3537146613546254 #
vertex $-1 $255 $336 #
point $-1 69.450146008403649 -40.249139678663838 7.3537146613546254 #
coedge $-1 $260 $268 $261 $315 forward $183 $-1 #
edge $-1 $317 -32.35387611225984 $269 -9.1543935018102154 $260 $337 forward 7 unknown #
edge $-1 $321 -77.309488204596079 $317 -68.574544569233396 $261 $338 forward 7 unknown #
edge $-1 $321 -17.431298154726534 $266 -3.4524657806604155 $265 $339 forward 7 unknown #
vertex $-1 $263 $340 #
straight-curve $-1 -67.230442834344785 -53.108010919294863 19.582310643191111 0.52991925155115449 0 0.84804810408105047 I I #
point $-1 -77.309488204596079 -53.108010919294863 3.4524657806604155 #
point $-1 -68.574544569233396 -29.908528308845241 17.431298154726534 #
vertex $-1 $272 $341 #
straight-curve $-1 -77.309488204596079 0 17.431298154726534 0 -1 0 I I #
vertex $-1 $275 $342 #
point $-1 -69.098762209460176 -46.479587316309257 10.398707085205846 #
vertex $-1 $279 $343 #
point $-1 -69.098762209460176 -36.536951911830847 10.398707085205846 #
straight-curve $-1 -77.309488204596079 53.108010919294863 0 0 0 -1 I I #
point $-1 -77.309488204596079 -53.108010919294863 -17.431298154726534 #
straight-curve $-1 -77.309488204596079 0 -17.431298154726534 0 1 0 I I #
point $-1 -77.309488204596079 53.108010919294863 -17.431298154726534 #
straight-curve $-1 77.309488204596079 -51.001608055302071 109.47648975368986 0 0 -1 I I #
point $-1 77.309488204596079 -51.001608055302071 17.431298154726534 #
straight-curve $-1 77.309488204596079 -21.737440095827655 7.7395307007969052 0 1 0 I I #
point $-1 77.309488204596079 -51.001608055302071 7.7395307007969336 #
point $-1 66.718095212159653 -46.700620704646781 8.0857655111885176 #
point $-1 66.718095212159653 -40.249139678663838 8.0857655111885176 #
straight-curve $-1 -68.574544569233382 -20.754134807035026 17.431298154726534 0 1 0 I I #
straight-curve $-1 0 -53.108010919294863 17.431298154726534 1 0 0 I I #
straight-curve $-1 -77.309488204596079 -53.108010919294863 0 0 0 -1 I I #
point $-1 -68.574544569233396 -53.108010919294863 17.431298154726534 #
point $-1 -77.309488204596079 -53.108010919294863 17.431298154726534 #
point $-1 -68.462504504400385 -46.479587316309257 7.642772373941435 #
point $-1 -68.462504504400385 -36.536951911830847 7.642772373941435 #
End-of-ACIS-data 