500 0 6 0           
7 Unknown 11 ACIS 5.0 NT 24 Fri Mar 26 20:06:09 1999 
-1 9.9999999999999995e-007 1e-010 
body $-1 $6 $-1 $7 #
body $-1 $8 $-1 $9 #
body $-1 $10 $-1 $11 #
body $-1 $12 $-1 $13 #
body $-1 $14 $-1 $15 #
body $-1 $16 $-1 $17 #
lump $-1 $-1 $18 $0 #
transform $-1 1 0 0 0 1 0 0 0 1 42.979827265236366 28.315897735169223 5.7417315995295537 1 rotate no_reflect no_shear #
lump $-1 $-1 $19 $1 #
transform $-1 1 0 0 0 1 0 0 0 1 42.979827265236366 28.315897735169223 5.7417315995295537 1 rotate no_reflect no_shear #
lump $-1 $-1 $20 $2 #
transform $-1 1 0 0 0 1 0 0 0 1 42.979827265236366 28.315897735169223 5.7417315995295537 1 rotate no_reflect no_shear #
lump $-1 $-1 $21 $3 #
transform $-1 1 0 0 0 1 0 0 0 1 42.979827265236366 28.315897735169223 5.7417315995295537 1 rotate no_reflect no_shear #
lump $-1 $-1 $22 $4 #
transform $-1 1 0 0 0 1 0 0 0 1 42.979827265236366 28.315897735169223 5.7417315995295537 1 rotate no_reflect no_shear #
lump $-1 $-1 $23 $5 #
transform $-1 1 0 0 0 1 0 0 0 1 42.979827265236366 28.315897735169223 5.7417315995295537 1 rotate no_reflect no_shear #
shell $-1 $-1 $-1 $24 $-1 $6 #
shell $-1 $-1 $-1 $25 $-1 $8 #
shell $-1 $-1 $-1 $26 $-1 $10 #
shell $-1 $-1 $-1 $27 $-1 $12 #
shell $-1 $-1 $-1 $28 $-1 $14 #
shell $-1 $-1 $-1 $29 $-1 $16 #
face $-1 $30 $31 $18 $-1 $32 forward single #
face $-1 $33 $34 $19 $-1 $35 forward single #
face $-1 $36 $37 $20 $-1 $38 reversed single #
face $-1 $39 $40 $21 $-1 $41 forward single #
face $-1 $42 $43 $22 $-1 $44 reversed single #
face $-1 $45 $46 $23 $-1 $47 forward single #
face $-1 $48 $49 $18 $-1 $50 reversed single #
loop $-1 $-1 $51 $24 #
plane-surface $-1 0 0 5.7417315995295537 0 0 1 1 0 0 forward_v I I I I #
face $-1 $52 $53 $19 $-1 $54 reversed single #
loop $-1 $-1 $55 $25 #
plane-surface $-1 0 -28.315897735169223 0 0 1 0 0 0 1 forward_v I I I I #
face $-1 $56 $57 $20 $-1 $58 reversed single #
loop $-1 $-1 $59 $26 #
plane-surface $-1 -117.42307245406074 -15.819747723444275 43.335438751247992 0 1 0 -0.86602541151947299 0 0.49999998660252726 forward_v I I I I #
face $-1 $60 $61 $21 $-1 $62 forward single #
loop $-1 $63 $64 $27 #
cone-surface $-1 -40.616461333188383 -11.801533134318106 2.5818686397821442 0.86602541151947299 0 -0.49999998660252726 0.49999998660252726 0 0.86602541151947299 1 I I 0 1 1 forward I I I I #
face $-1 $65 $66 $22 $-1 $67 reversed single #
loop $-1 $-1 $68 $28 #
plane-surface $-1 15.633583754225974 -9.8683446334086184 118.62857622767793 0 -1 0 -0.52991927123019833 0 -0.84804809178421925 forward_v I I I I #
face $-1 $69 $70 $23 $-1 $71 forward single #
loop $-1 $72 $73 $29 #
cone-surface $-1 37.682839672546677 -13.948222376711417 1.6067051083725976 -0.52991927123019833 0 -0.84804809178421925 0.84804809178421925 0 -0.52991927123019833 1 I I 0 1 1 forward I I I I #
face $-1 $74 $75 $18 $-1 $76 reversed single #
loop $-1 $-1 $77 $30 #
plane-surface $-1 0 0 -5.7417315995295537 0 0 1 1 0 0 forward_v I I I I #
coedge $-1 $78 $79 $80 $81 forward $31 $-1 #
face $-1 $82 $83 $19 $-1 $84 reversed single #
loop $-1 $-1 $85 $33 #
plane-surface $-1 0 0 -5.7417315995295537 0 0 1 1 0 0 forward_v I I I I #
coedge $-1 $86 $87 $88 $89 forward $34 $-1 #
face $-1 $90 $91 $20 $-1 $92 reversed single #
loop $-1 $-1 $93 $36 #
plane-surface $-1 -42.979827265236366 -11.801533134318106 0.35561263765375628 -0.86602541151947299 0 0.49999998660252726 0.49999998660252726 0 0.86602541151947299 forward_v I I I I #
coedge $-1 $94 $95 $96 $97 reversed $37 $-1 #
face $-1 $-1 $98 $21 $-1 $99 forward single #
loop $-1 $100 $101 $39 #
cone-surface $-1 -39.374921256094744 -11.801533134318106 1.8650651676713705 0.86602541151947299 0 -0.49999998660252726 0.24999999330126363 0 0.43301270575973649 1 I I -0.70710678118654746 0.70710678118654746 0.5 forward I I I I #
loop $-1 $-1 $102 $27 #
coedge $-1 $64 $64 $103 $104 reversed $40 $-1 #
face $-1 $105 $106 $22 $-1 $107 reversed single #
loop $-1 $-1 $108 $42 #
plane-surface $-1 -29.91809372976175 -13.948222376711417 45.730655232679808 0.52991927123019833 0 0.84804809178421925 0.84804809178421925 0 -0.52991927123019833 forward_v I I I I #
coedge $-1 $109 $110 $111 $112 reversed $43 $-1 #
face $-1 $-1 $113 $23 $-1 $114 forward single #
loop $-1 $115 $116 $45 #
cone-surface $-1 36.57202589454694 -13.948222376711417 -0.17096850325772817 -0.52991927123019833 0 -0.84804809178421925 0.42402404589210962 0 -0.26495963561509916 1 I I -0.70710678118654746 0.70710678118654746 0.5 forward I I I I #
loop $-1 $-1 $117 $29 #
coedge $-1 $73 $73 $118 $119 reversed $46 $-1 #
face $-1 $120 $121 $18 $-1 $122 reversed single #
loop $-1 $-1 $123 $48 #
plane-surface $-1 0 -28.315897735169223 0 0 1 0 0 0 1 forward_v I I I I #
coedge $-1 $124 $125 $126 $127 forward $49 $-1 #
coedge $-1 $128 $51 $129 $130 forward $31 $-1 #
coedge $-1 $51 $128 $131 $132 forward $31 $-1 #
coedge $-1 $133 $134 $51 $81 reversed $135 $-1 #
edge $-1 $136 -28.315897735169223 $137 28.315897735169223 $80 $138 forward 7 unknown #
face $-1 $139 $140 $19 $-1 $141 reversed single #
loop $-1 $-1 $142 $52 #
plane-surface $-1 -38.259337176638198 -34.26407023047922 0 0 1 0 0 0 1 forward_v I I I I #
coedge $-1 $143 $144 $87 $145 forward $53 $-1 #
coedge $-1 $146 $55 $147 $148 reversed $34 $-1 #
coedge $-1 $55 $146 $85 $145 reversed $34 $-1 #
coedge $-1 $149 $150 $55 $89 reversed $140 $-1 #
edge $-1 $151 -5.7417315995295537 $152 5.7417315995295537 $88 $153 forward 7 unknown #
face $-1 $154 $155 $20 $-1 $156 reversed single #
loop $-1 $-1 $157 $56 #
plane-surface $-1 -117.42307245406074 -7.7833185451919373 43.335438751247992 0 -1 0 0.86602541151947299 0 -0.49999998660252726 forward_v I I I I #
coedge $-1 $158 $159 $160 $161 reversed $57 $-1 #
coedge $-1 $95 $59 $162 $163 reversed $37 $-1 #
coedge $-1 $59 $94 $158 $164 reversed $37 $-1 #
coedge $-1 $160 $165 $59 $97 forward $166 $-1 #
edge $-1 $167 15.731708961794006 $168 18.841386083222169 $96 $169 forward 7 unknown #
loop $-1 $-1 $103 $60 #
plane-surface $-1 -42.979827265236366 -11.801533134318106 0.35561263765375628 -0.86602541151947299 0 0.49999998660252726 0.49999998660252726 0 0.86602541151947299 forward_v I I I I #
loop $-1 $-1 $170 $39 #
coedge $-1 $101 $101 $102 $171 reversed $61 $-1 #
coedge $-1 $102 $102 $101 $171 forward $63 $-1 #
coedge $-1 $103 $103 $64 $104 forward $98 $-1 #
edge $-1 $172 0 $172 6.2831853071796004 $103 $173 forward 7 unknown #
face $-1 $174 $175 $22 $-1 $176 forward single #
loop $-1 $-1 $177 $65 #
plane-surface $-1 15.633583754225974 -18.028100120014216 118.62857622767793 0 1 0 0.52991927123019833 0 0.84804809178421925 forward_v I I I I #
coedge $-1 $178 $179 $180 $181 reversed $66 $-1 #
coedge $-1 $110 $68 $182 $183 reversed $43 $-1 #
coedge $-1 $68 $109 $178 $184 reversed $43 $-1 #
coedge $-1 $180 $185 $68 $112 forward $175 $-1 #
edge $-1 $186 -35.163035388123376 $187 -26.260768487513257 $111 $188 forward 7 unknown #
loop $-1 $-1 $118 $69 #
plane-surface $-1 -29.91809372976175 -13.948222376711417 45.730655232679808 0.52991927123019833 0 0.84804809178421925 0.84804809178421925 0 -0.52991927123019833 forward_v I I I I #
loop $-1 $-1 $189 $45 #
coedge $-1 $116 $116 $117 $190 reversed $70 $-1 #
coedge $-1 $117 $117 $116 $190 forward $72 $-1 #
coedge $-1 $118 $118 $73 $119 forward $113 $-1 #
edge $-1 $191 0 $191 6.2831853071796004 $118 $192 forward 7 unknown #
face $-1 $193 $194 $18 $-1 $195 reversed single #
loop $-1 $-1 $196 $74 #
plane-surface $-1 -42.979827265236366 0 0 1 0 0 0 0 -1 forward_v I I I I #
coedge $-1 $197 $131 $198 $199 forward $75 $-1 #
coedge $-1 $200 $77 $197 $201 forward $49 $-1 #
coedge $-1 $77 $200 $202 $203 forward $49 $-1 #
coedge $-1 $134 $133 $77 $127 reversed $135 $-1 #
edge $-1 $204 -28.315897735169223 $205 28.315897735169223 $126 $206 forward 7 unknown #
coedge $-1 $79 $78 $207 $208 forward $31 $-1 #
coedge $-1 $209 $210 $78 $130 reversed $194 $-1 #
edge $-1 $137 -42.979827265236366 $211 42.979827265236366 $129 $212 forward 7 unknown #
coedge $-1 $123 $213 $79 $132 reversed $75 $-1 #
edge $-1 $214 -42.979827265236366 $136 42.979827265236366 $131 $215 forward 7 unknown #
coedge $-1 $126 $80 $213 $216 forward $135 $-1 #
coedge $-1 $80 $126 $209 $217 reversed $135 $-1 #
loop $-1 $-1 $133 $193 #
vertex $-1 $81 $218 #
vertex $-1 $81 $219 #
straight-curve $-1 42.979827265236366 0 5.7417315995295537 0 1 0 I I #
face $-1 $220 $221 $19 $-1 $222 reversed single #
loop $-1 $-1 $88 $82 #
plane-surface $-1 -39.759337176638198 -31.289983982824221 0 1 0 0 0 0 -1 forward_v I I I I #
coedge $-1 $223 $224 $225 $226 forward $83 $-1 #
coedge $-1 $227 $85 $228 $229 forward $53 $-1 #
coedge $-1 $85 $227 $149 $230 forward $53 $-1 #
edge $-1 $151 -39.759337176638198 $231 -36.759337176638198 $85 $232 forward 7 unknown #
coedge $-1 $87 $86 $233 $234 forward $34 $-1 #
coedge $-1 $235 $236 $86 $148 forward $237 $-1 #
edge $-1 $238 36.759337176638198 $152 39.759337176638198 $147 $239 forward 7 unknown #
coedge $-1 $225 $88 $144 $230 reversed $140 $-1 #
coedge $-1 $88 $225 $235 $240 reversed $140 $-1 #
vertex $-1 $145 $241 #
vertex $-1 $240 $242 #
straight-curve $-1 -39.759337176638198 -28.315897735169223 0 0 0 1 I I #
face $-1 $-1 $166 $20 $-1 $243 forward single #
loop $-1 $-1 $244 $90 #
plane-surface $-1 -42.979827265236366 0 0 1 0 0 0 0 -1 forward_v I I I I #
coedge $-1 $245 $246 $247 $248 reversed $91 $-1 #
coedge $-1 $249 $93 $95 $164 forward $57 $-1 #
coedge $-1 $93 $249 $245 $250 forward $57 $-1 #
coedge $-1 $247 $96 $93 $161 forward $166 $-1 #
edge $-1 $168 -9.9189811562852217 $251 -1.8825519780328843 $160 $252 forward 7 unknown #
coedge $-1 $253 $254 $94 $163 forward $155 $-1 #
edge $-1 $255 -21.31210673797024 $167 -15.925987776094441 $162 $256 forward 7 unknown #
edge $-1 $168 -6.2193544095035911 $255 0 $95 $257 forward 7 unknown #
coedge $-1 $96 $247 $253 $258 forward $166 $-1 #
loop $-1 $-1 $247 $154 #
vertex $-1 $163 $259 #
vertex $-1 $97 $260 #
straight-curve $-1 -58.711536227030372 -15.819747723444275 5.7417315995295546 1 0 0 I I #
coedge $-1 $170 $170 $-1 $261 reversed $100 $-1 #
edge $-1 $262 0 $262 6.2831853071796004 $101 $263 forward 7 unknown #
vertex $-1 $104 $264 #
ellipse-curve $-1 -41.424988704522285 -11.801533134318106 3.0486721185916541 -0.86602541151947299 0 0.49999998660252726 0.49999998660252726 0 0.86602541151947299 1 I I #
face $-1 $-1 $265 $22 $-1 $266 reversed single #
loop $-1 $-1 $111 $105 #
plane-surface $-1 0 0 5.7417315995295537 0 0 1 1 0 0 forward_v I I I I #
coedge $-1 $267 $268 $269 $270 reversed $106 $-1 #
coedge $-1 $271 $108 $110 $184 forward $66 $-1 #
coedge $-1 $108 $271 $267 $272 forward $66 $-1 #
coedge $-1 $269 $111 $108 $181 forward $175 $-1 #
edge $-1 $187 2.8942334450529099 $273 11.053988931658507 $180 $274 forward 7 unknown #
coedge $-1 $275 $276 $109 $183 forward $265 $-1 #
edge $-1 $277 -59.135310365146879 $186 -53.572556514309412 $182 $278 forward 7 unknown #
edge $-1 $187 75.462293606187728 $277 85.959654530472733 $110 $279 forward 7 unknown #
coedge $-1 $111 $269 $275 $280 forward $175 $-1 #
vertex $-1 $112 $281 #
vertex $-1 $112 $282 #
straight-curve $-1 7.816791877112987 -9.8683446334086184 5.741731599529551 -1 0 0 I I #
coedge $-1 $189 $189 $-1 $283 reversed $115 $-1 #
edge $-1 $284 0 $284 6.2831853071796004 $116 $285 forward 7 unknown #
vertex $-1 $119 $286 #
ellipse-curve $-1 38.528693814931316 -13.948222376711417 2.9603546741108113 0.52991927123019833 0 0.84804809178421925 0.84804809178421925 0 -0.52991927123019833 1 I I #
face $-1 $-1 $135 $18 $-1 $287 reversed single #
loop $-1 $-1 $209 $120 #
plane-surface $-1 0 28.315897735169223 0 0 -1 0 0 0 -1 forward_v I I I I #
coedge $-1 $288 $207 $210 $289 forward $121 $-1 #
coedge $-1 $213 $123 $124 $201 reversed $75 $-1 #
coedge $-1 $207 $288 $123 $199 reversed $121 $-1 #
edge $-1 $214 -5.7417315995295537 $290 5.7417315995295537 $198 $291 forward 7 unknown #
coedge $-1 $125 $124 $288 $292 forward $49 $-1 #
edge $-1 $205 -42.979827265236366 $290 42.979827265236366 $197 $293 forward 7 unknown #
coedge $-1 $210 $209 $125 $203 reversed $194 $-1 #
edge $-1 $294 -42.979827265236366 $204 42.979827265236366 $202 $295 forward 7 unknown #
vertex $-1 $127 $296 #
vertex $-1 $216 $297 #
straight-curve $-1 42.979827265236366 0 -5.7417315995295537 0 -1 0 I I #
coedge $-1 $196 $198 $128 $208 reversed $121 $-1 #
edge $-1 $211 -28.315897735169223 $214 28.315897735169223 $207 $298 forward 7 unknown #
coedge $-1 $202 $129 $134 $217 forward $194 $-1 #
coedge $-1 $129 $202 $196 $289 reversed $194 $-1 #
vertex $-1 $130 $299 #
straight-curve $-1 0 28.315897735169223 5.7417315995295537 -1 0 0 I I #
coedge $-1 $131 $197 $133 $216 reversed $75 $-1 #
vertex $-1 $208 $300 #
straight-curve $-1 0 -28.315897735169223 5.7417315995295537 1 0 0 I I #
edge $-1 $136 -5.7417315995295537 $205 5.7417315995295537 $133 $301 forward 7 unknown #
edge $-1 $137 -5.7417315995295537 $204 5.7417315995295537 $134 $302 forward 7 unknown #
point $-1 42.979827265236366 -28.315897735169223 5.7417315995295537 #
point $-1 42.979827265236366 28.315897735169223 5.7417315995295537 #
face $-1 $-1 $237 $19 $-1 $303 forward single #
loop $-1 $-1 $304 $139 #
plane-surface $-1 -36.759337176638198 -31.289983982824221 0 -1 0 0 0 0 1 forward_v I I I I #
coedge $-1 $305 $142 $227 $306 reversed $83 $-1 #
coedge $-1 $142 $305 $307 $308 reversed $83 $-1 #
coedge $-1 $150 $149 $142 $226 reversed $140 $-1 #
edge $-1 $309 -5.7417315995295537 $310 5.7417315995295537 $225 $311 forward 7 unknown #
coedge $-1 $144 $143 $223 $306 forward $53 $-1 #
coedge $-1 $233 $304 $143 $229 reversed $221 $-1 #
edge $-1 $231 -2.9740862476549985 $312 2.9740862476549985 $228 $313 forward 7 unknown #
edge $-1 $310 -2.9740862476549985 $151 2.9740862476549985 $149 $314 forward 7 unknown #
vertex $-1 $229 $315 #
straight-curve $-1 0 -28.315897735169223 -5.7417315995295537 1 0 0 I I #
coedge $-1 $316 $228 $146 $234 reversed $221 $-1 #
edge $-1 $238 -5.7417315995295537 $231 5.7417315995295537 $233 $317 forward 7 unknown #
coedge $-1 $307 $147 $150 $240 forward $237 $-1 #
coedge $-1 $147 $307 $316 $318 forward $237 $-1 #
loop $-1 $-1 $147 $220 #
vertex $-1 $148 $319 #
straight-curve $-1 0 -28.315897735169223 5.7417315995295537 -1 0 0 I I #
edge $-1 $152 -2.9740862476549985 $309 2.9740862476549985 $150 $320 forward 7 unknown #
point $-1 -39.759337176638198 -28.315897735169223 -5.7417315995295537 #
point $-1 -39.759337176638198 -28.315897735169223 5.7417315995295537 #
plane-surface $-1 0 0 5.7417315995295537 0 0 1 1 0 0 forward_v I I I I #
coedge $-1 $254 $253 $246 $321 forward $155 $-1 #
coedge $-1 $246 $157 $159 $250 reversed $91 $-1 #
coedge $-1 $157 $245 $244 $321 reversed $91 $-1 #
coedge $-1 $165 $160 $157 $248 forward $166 $-1 #
edge $-1 $251 -18.841386083222169 $322 -15.731708961794006 $247 $323 forward 7 unknown #
coedge $-1 $159 $158 $254 $324 reversed $57 $-1 #
edge $-1 $325 0 $251 6.2193544095035911 $245 $326 forward 7 unknown #
vertex $-1 $161 $327 #
straight-curve $-1 -39.870150143808203 -5.900766567159053 5.7417315995295546 0 1 0 I I #
coedge $-1 $244 $162 $165 $258 reversed $155 $-1 #
coedge $-1 $162 $244 $249 $324 forward $155 $-1 #
vertex $-1 $163 $328 #
straight-curve $-1 -42.979827265236366 -15.819747723444275 21.667719375623996 0 0 1 I I #
straight-curve $-1 -42.979827265236366 -15.819747723444275 0.35561263765375628 -0.49999998660252726 0 -0.86602541151947299 I I #
edge $-1 $322 7.7833185451919373 $167 15.819747723444275 $253 $329 forward 7 unknown #
point $-1 -42.979827265236366 -15.819747723444275 5.7417315995295537 #
point $-1 -39.870150143808203 -15.819747723444275 5.7417315995295537 #
edge $-1 $330 1 $330 0 $170 $-1 forward 7 unknown #
vertex $-1 $171 $331 #
ellipse-curve $-1 -39.807933961854481 -11.801533134318106 2.1150651609726343 -0.86602541151947299 0 0.49999998660252726 0.49999998660252726 0 0.86602541151947299 1 I I #
point $-1 -40.92498871791976 -11.801533134318106 3.9146975301111269 #
loop $-1 $-1 $182 $174 #
plane-surface $-1 42.979827265236366 0 0 -1 0 0 0 0 1 forward_v I I I I #
coedge $-1 $268 $177 $179 $272 reversed $106 $-1 #
coedge $-1 $177 $267 $332 $333 reversed $106 $-1 #
coedge $-1 $185 $180 $177 $270 forward $175 $-1 #
edge $-1 $273 26.260768487513257 $334 35.163035388123376 $269 $335 forward 7 unknown #
coedge $-1 $179 $178 $276 $336 reversed $66 $-1 #
edge $-1 $337 -85.959654530472733 $273 -75.462293606187728 $267 $338 forward 7 unknown #
vertex $-1 $181 $339 #
straight-curve $-1 34.077560364626251 -6.9741111883557085 5.741731599529551 0 -1 0 I I #
coedge $-1 $332 $182 $185 $280 reversed $265 $-1 #
coedge $-1 $182 $332 $271 $336 forward $265 $-1 #
vertex $-1 $183 $340 #
straight-curve $-1 42.979827265236366 -9.8683446334086184 59.314288113838963 0 0 1 I I #
straight-curve $-1 -29.91809372976175 -9.8683446334086184 45.730655232679808 0.84804809178421925 0 -0.52991927123019833 I I #
edge $-1 $334 -18.028100120014216 $186 -9.8683446334086184 $275 $341 forward 7 unknown #
point $-1 42.979827265236366 -9.8683446334086184 5.7417315995295537 #
point $-1 34.077560364626244 -9.8683446334086184 5.741731599529551 #
edge $-1 $342 1 $342 0 $189 $-1 forward 7 unknown #
vertex $-1 $190 $343 #
ellipse-curve $-1 36.836985530162039 -13.948222376711417 0.25305554263438146 0.52991927123019833 0 0.84804809178421925 0.84804809178421925 0 -0.52991927123019833 1 I I #
point $-1 39.376741906715537 -13.948222376711417 2.4304354028806152 #
plane-surface $-1 42.979827265236366 0 0 -1 0 0 0 0 1 forward_v I I I I #
coedge $-1 $198 $196 $200 $292 reversed $121 $-1 #
edge $-1 $211 -5.7417315995295537 $294 5.7417315995295537 $210 $344 forward 7 unknown #
vertex $-1 $292 $345 #
straight-curve $-1 -42.979827265236366 -28.315897735169223 0 0 0 -1 I I #
edge $-1 $290 -28.315897735169223 $294 28.315897735169223 $288 $346 forward 7 unknown #
straight-curve $-1 0 -28.315897735169223 -5.7417315995295537 -1 0 0 I I #
vertex $-1 $203 $347 #
straight-curve $-1 0 28.315897735169223 -5.7417315995295537 1 0 0 I I #
point $-1 42.979827265236366 28.315897735169223 -5.7417315995295537 #
point $-1 42.979827265236366 -28.315897735169223 -5.7417315995295537 #
straight-curve $-1 -42.979827265236366 0 5.7417315995295537 0 -1 0 I I #
point $-1 -42.979827265236366 28.315897735169223 5.7417315995295537 #
point $-1 -42.979827265236366 -28.315897735169223 5.7417315995295537 #
straight-curve $-1 42.979827265236366 -28.315897735169223 0 0 0 -1 I I #
straight-curve $-1 42.979827265236366 28.315897735169223 0 0 0 -1 I I #
plane-surface $-1 0 0 5.7417315995295537 0 0 1 1 0 0 forward_v I I I I #
coedge $-1 $228 $316 $305 $348 forward $221 $-1 #
coedge $-1 $224 $223 $304 $348 reversed $83 $-1 #
edge $-1 $312 -1.5 $310 1.5 $223 $349 forward 7 unknown #
coedge $-1 $236 $235 $224 $308 forward $237 $-1 #
edge $-1 $309 -1.5 $350 1.5 $224 $351 forward 7 unknown #
vertex $-1 $240 $352 #
vertex $-1 $230 $353 #
straight-curve $-1 -39.759337176638198 -34.26407023047922 0 0 0 -1 I I #
vertex $-1 $348 $354 #
straight-curve $-1 -36.759337176638198 -31.289983982824221 -5.7417315995295537 0 -1 0 I I #
straight-curve $-1 -39.759337176638198 -31.289983982824221 -5.7417315995295537 0 1 0 I I #
point $-1 -36.759337176638198 -28.315897735169223 -5.7417315995295537 #
coedge $-1 $304 $233 $236 $318 reversed $221 $-1 #
straight-curve $-1 -36.759337176638198 -28.315897735169223 0 0 0 -1 I I #
edge $-1 $350 -2.9740862476549985 $238 2.9740862476549985 $316 $355 forward 7 unknown #
point $-1 -36.759337176638198 -28.315897735169223 5.7417315995295537 #
straight-curve $-1 -39.759337176638198 -31.289983982824221 5.7417315995295537 0 -1 0 I I #
edge $-1 $322 15.925987776094441 $325 21.31210673797024 $244 $356 forward 7 unknown #
vertex $-1 $258 $357 #
straight-curve $-1 -58.711536227030372 -7.7833185451919373 5.7417315995295546 -1 0 0 I I #
edge $-1 $325 1.8825519780328843 $255 9.9189811562852217 $254 $358 forward 7 unknown #
vertex $-1 $324 $359 #
straight-curve $-1 -42.979827265236366 -7.7833185451919373 0.35561263765375628 0.49999998660252726 0 0.86602541151947299 I I #
point $-1 -39.870150143808203 -7.7833185451919373 5.7417315995295537 #
point $-1 -42.979827265236366 -15.819747723444275 0.35561263765375628 #
straight-curve $-1 -42.979827265236366 0 5.7417315995295537 0 -1 0 I I #
vertex $-1 $261 $360 #
point $-1 -39.307933975251956 -11.801533134318106 2.9810905724921071 #
coedge $-1 $276 $275 $268 $333 forward $265 $-1 #
edge $-1 $334 53.572556514309412 $337 59.135310365146879 $332 $361 forward 7 unknown #
vertex $-1 $280 $362 #
straight-curve $-1 7.816791877112987 -18.028100120014216 5.741731599529551 1 0 0 I I #
edge $-1 $337 -11.053988931658507 $277 -2.8942334450529099 $276 $363 forward 7 unknown #
vertex $-1 $336 $364 #
straight-curve $-1 -29.91809372976175 -18.028100120014216 45.730655232679808 -0.84804809178421925 0 0.52991927123019833 I I #
point $-1 34.077560364626244 -18.028100120014216 5.741731599529551 #
point $-1 42.979827265236366 -9.8683446334086184 0.17897774869208405 #
straight-curve $-1 42.979827265236366 0 5.7417315995295537 0 1 0 I I #
vertex $-1 $283 $365 #
point $-1 37.68503362194626 -13.948222376711417 -0.27686372859581687 #
straight-curve $-1 -42.979827265236366 28.315897735169223 0 0 0 -1 I I #
point $-1 -42.979827265236366 -28.315897735169223 -5.7417315995295537 #
straight-curve $-1 -42.979827265236366 0 -5.7417315995295537 0 1 0 I I #
point $-1 -42.979827265236366 28.315897735169223 -5.7417315995295537 #
edge $-1 $350 -5.7417315995295537 $312 5.7417315995295537 $304 $366 forward 7 unknown #
straight-curve $-1 -38.259337176638198 -34.26407023047922 -5.7417315995295537 -1 0 0 I I #
vertex $-1 $318 $367 #
straight-curve $-1 -38.259337176638198 -34.26407023047922 5.7417315995295537 1 0 0 I I #
point $-1 -39.759337176638198 -34.26407023047922 5.7417315995295537 #
point $-1 -39.759337176638198 -34.26407023047922 -5.7417315995295537 #
point $-1 -36.759337176638198 -34.26407023047922 -5.7417315995295537 #
straight-curve $-1 -36.759337176638198 -31.289983982824221 5.7417315995295537 0 1 0 I I #
straight-curve $-1 -42.979827265236366 -7.7833185451919373 21.667719375623996 0 0 -1 I I #
point $-1 -42.979827265236366 -7.7833185451919373 5.7417315995295537 #
straight-curve $-1 -42.979827265236366 -5.900766567159053 0.35561263765375428 0 -1 0 I I #
point $-1 -42.979827265236366 -7.7833185451919373 0.35561263765375628 #
point $-1 -38.941908550335008 -11.801533134318106 1.615065174370107 #
straight-curve $-1 42.979827265236366 -18.028100120014216 59.314288113838963 0 0 -1 I I #
point $-1 42.979827265236366 -18.028100120014216 5.7417315995295537 #
straight-curve $-1 42.979827265236374 -6.9741111883557085 0.1789777486920805 0 1 0 I I #
point $-1 42.979827265236366 -18.028100120014216 0.17897774869208405 #
point $-1 36.30706625893184 -13.948222376711417 -0.59499254914983779 #
straight-curve $-1 -36.759337176638198 -34.26407023047922 0 0 0 -1 I I #
point $-1 -36.759337176638198 -34.26407023047922 5.7417315995295537 #
End-of-ACIS-data 