500 0 8 0           
7 Unknown 11 ACIS 5.0 NT 24 Thu Mar 25 23:20:04 1999 
-1 9.9999999999999995e-007 1e-010 
body $-1 $8 $-1 $9 #
body $-1 $10 $-1 $11 #
body $-1 $12 $-1 $13 #
body $-1 $14 $-1 $15 #
body $-1 $16 $-1 $17 #
body $-1 $18 $-1 $19 #
body $-1 $20 $-1 $21 #
body $-1 $22 $-1 $23 #
lump $-1 $-1 $24 $0 #
transform $-1 1 0 0 0 1 0 0 0 1 74.361400189214763 35.407618580650244 8.6255755423543334 1 rotate no_reflect no_shear #
lump $-1 $-1 $25 $1 #
transform $-1 1 0 0 0 1 0 0 0 1 74.361400189214763 35.407618580650244 8.6255755423543334 1 rotate no_reflect no_shear #
lump $-1 $-1 $26 $2 #
transform $-1 1 0 0 0 1 0 0 0 1 74.361400189214763 35.407618580650244 8.6255755423543334 1 rotate no_reflect no_shear #
lump $-1 $-1 $27 $3 #
transform $-1 1 0 0 0 1 0 0 0 1 74.361400189214763 35.407618580650244 8.6255755423543334 1 rotate no_reflect no_shear #
lump $-1 $-1 $28 $4 #
transform $-1 1 0 0 0 1 0 0 0 1 74.361400189214763 35.407618580650244 8.6255755423543334 1 rotate no_reflect no_shear #
lump $-1 $-1 $29 $5 #
transform $-1 1 0 0 0 1 0 0 0 1 74.361400189214763 35.407618580650244 8.6255755423543334 1 rotate no_reflect no_shear #
lump $-1 $-1 $30 $6 #
transform $-1 1 0 0 0 1 0 0 0 1 74.361400189214763 35.407618580650244 8.6255755423543334 1 rotate no_reflect no_shear #
lump $-1 $-1 $31 $7 #
transform $-1 1 0 0 0 1 0 0 0 1 74.361400189214763 35.407618580650244 8.6255755423543334 1 rotate no_reflect no_shear #
shell $-1 $-1 $-1 $32 $-1 $8 #
shell $-1 $-1 $-1 $33 $-1 $10 #
shell $-1 $-1 $-1 $34 $-1 $12 #
shell $-1 $-1 $-1 $35 $-1 $14 #
shell $-1 $-1 $-1 $36 $-1 $16 #
shell $-1 $-1 $-1 $37 $-1 $18 #
shell $-1 $-1 $-1 $38 $-1 $20 #
shell $-1 $-1 $-1 $39 $-1 $22 #
face $-1 $40 $41 $24 $-1 $42 forward single #
face $-1 $43 $44 $25 $-1 $45 forward single #
face $-1 $46 $47 $26 $-1 $48 reversed single #
face $-1 $49 $50 $27 $-1 $51 forward single #
face $-1 $52 $53 $28 $-1 $54 forward single #
face $-1 $55 $56 $29 $-1 $57 reversed single #
face $-1 $58 $59 $30 $-1 $60 forward single #
face $-1 $61 $62 $31 $-1 $63 forward single #
face $-1 $64 $65 $24 $-1 $66 reversed single #
loop $-1 $-1 $67 $32 #
plane-surface $-1 0 0 8.6255755423543334 0 0 1 1 0 0 forward_v I I I I #
face $-1 $68 $69 $25 $-1 $70 reversed single #
loop $-1 $-1 $71 $33 #
plane-surface $-1 0 -35.407618580650244 0 0 1 0 0 0 1 forward_v I I I I #
face $-1 $72 $73 $26 $-1 $74 reversed single #
loop $-1 $-1 $75 $34 #
plane-surface $-1 -199.09083683945153 3.8142315317986153 81.650065272928259 0 1 0 -0.83867057594974714 0 0.54463902268945019 forward_v I I I I #
face $-1 $76 $77 $27 $-1 $78 forward single #
loop $-1 $79 $80 $35 #
cone-surface $-1 -69.534937115229226 8.4026750891979844 3.1851659101465115 0.83867057594974714 0 -0.54463902268945019 0.81695853403417529 0 1.2580058639246208 1 I I 0 1 1.5 forward I I I I #
face $-1 $81 $82 $28 $-1 $83 forward single #
loop $-1 $84 $85 $36 #
cone-surface $-1 -69.534937115229226 15.285340425297044 3.1851659101465115 0.83867057594974714 0 -0.54463902268945019 0.81695853403417529 0 1.2580058639246208 1 I I 0 1 1.5 forward I I I I #
face $-1 $86 $87 $29 $-1 $88 reversed single #
loop $-1 $-1 $89 $37 #
plane-surface $-1 118.09059618970547 19.87378398269642 206.37950192316501 0 -1 0 -0.83867057594974714 0 -0.54463902268945019 forward_v I I I I #
face $-1 $90 $91 $30 $-1 $92 forward single #
loop $-1 $93 $94 $38 #
cone-surface $-1 69.534937115229255 8.4026750891979844 3.1851659101465044 -0.83867057594974714 0 -0.54463902268945019 0.81695853403417529 0 -1.2580058639246208 1 I I 0 1 1.5 forward I I I I #
face $-1 $95 $96 $31 $-1 $97 forward single #
loop $-1 $98 $99 $39 #
cone-surface $-1 69.534937115229255 15.285340425297044 3.1851659101465044 -0.83867057594974714 0 -0.54463902268945019 0.81695853403417529 0 -1.2580058639246208 1 I I 0 1 1.5 forward I I I I #
face $-1 $100 $101 $24 $-1 $102 reversed single #
loop $-1 $-1 $103 $40 #
plane-surface $-1 0 0 -8.6255755423543334 0 0 1 1 0 0 forward_v I I I I #
coedge $-1 $104 $105 $106 $107 forward $41 $-1 #
face $-1 $108 $109 $25 $-1 $110 reversed single #
loop $-1 $-1 $111 $43 #
plane-surface $-1 0 0 -8.6255755423543334 0 0 1 1 0 0 forward_v I I I I #
coedge $-1 $112 $113 $114 $115 forward $44 $-1 #
face $-1 $116 $117 $26 $-1 $118 reversed single #
loop $-1 $-1 $119 $46 #
plane-surface $-1 -74.361400189214763 11.844007757247518 0.64982462318221224 -0.83867057594974714 0 0.54463902268945019 0.54463902268945019 0 0.83867057594974714 forward_v I I I I #
coedge $-1 $120 $121 $122 $123 reversed $47 $-1 #
face $-1 $-1 $124 $27 $-1 $125 forward single #
loop $-1 $126 $127 $49 #
cone-surface $-1 -66.669227630137712 8.4026750891979844 1.3241524705076699 0.83867057594974714 0 -0.54463902268945019 0.40847926701708764 0 0.62900293196231039 1 I I -0.70710678118654757 0.70710678118654757 0.75 forward I I I I #
loop $-1 $-1 $128 $35 #
coedge $-1 $80 $80 $129 $130 reversed $50 $-1 #
face $-1 $-1 $131 $28 $-1 $132 forward single #
loop $-1 $133 $134 $52 #
cone-surface $-1 -66.669227630137712 15.285340425297044 1.3241524705076699 0.83867057594974714 0 -0.54463902268945019 0.40847926701708764 0 0.62900293196231039 1 I I -0.70710678118654757 0.70710678118654757 0.75 forward I I I I #
loop $-1 $-1 $135 $36 #
coedge $-1 $85 $85 $136 $137 reversed $53 $-1 #
face $-1 $138 $139 $29 $-1 $140 reversed single #
loop $-1 $-1 $141 $55 #
plane-surface $-1 -6.6388404605312985 11.844007757247518 125.37926127341896 0.83867057594974714 0 0.54463902268945019 0.54463902268945019 0 -0.83867057594974714 forward_v I I I I #
coedge $-1 $142 $143 $144 $145 reversed $56 $-1 #
face $-1 $-1 $146 $30 $-1 $147 forward single #
loop $-1 $148 $149 $58 #
cone-surface $-1 66.66922763013774 8.4026750891979844 1.3241524705076628 -0.83867057594974714 0 -0.54463902268945019 0.40847926701708764 0 -0.62900293196231039 1 I I -0.70710678118654757 0.70710678118654757 0.75 forward I I I I #
loop $-1 $-1 $150 $38 #
coedge $-1 $94 $94 $151 $152 reversed $59 $-1 #
face $-1 $-1 $153 $31 $-1 $154 forward single #
loop $-1 $155 $156 $61 #
cone-surface $-1 66.66922763013774 15.285340425297044 1.3241524705076628 -0.83867057594974714 0 -0.54463902268945019 0.40847926701708764 0 -0.62900293196231039 1 I I -0.70710678118654757 0.70710678118654757 0.75 forward I I I I #
loop $-1 $-1 $157 $39 #
coedge $-1 $99 $99 $158 $159 reversed $62 $-1 #
face $-1 $160 $161 $24 $-1 $162 reversed single #
loop $-1 $-1 $163 $64 #
plane-surface $-1 0 -35.407618580650244 0 0 1 0 0 0 1 forward_v I I I I #
coedge $-1 $164 $165 $166 $167 forward $65 $-1 #
coedge $-1 $168 $67 $169 $170 forward $41 $-1 #
coedge $-1 $67 $168 $171 $172 forward $41 $-1 #
coedge $-1 $173 $174 $67 $107 reversed $175 $-1 #
edge $-1 $176 -35.407618580650244 $177 35.407618580650244 $106 $178 forward 7 unknown #
face $-1 $179 $180 $25 $-1 $181 reversed single #
loop $-1 $-1 $182 $68 #
plane-surface $-1 -58.695504955624969 -44.725893622658894 0 0 1 0 0 0 1 forward_v I I I I #
coedge $-1 $183 $184 $113 $185 forward $69 $-1 #
coedge $-1 $186 $71 $187 $188 reversed $44 $-1 #
coedge $-1 $71 $186 $111 $185 reversed $44 $-1 #
coedge $-1 $189 $190 $71 $115 reversed $180 $-1 #
edge $-1 $191 -8.6255755423543334 $192 8.6255755423543334 $114 $193 forward 7 unknown #
face $-1 $194 $195 $26 $-1 $196 reversed single #
loop $-1 $-1 $197 $72 #
plane-surface $-1 -199.09083683945153 19.87378398269642 81.650065272928259 0 -1 0 0.83867057594974714 0 -0.54463902268945019 forward_v I I I I #
coedge $-1 $198 $199 $200 $201 reversed $73 $-1 #
coedge $-1 $121 $75 $202 $203 reversed $47 $-1 #
coedge $-1 $75 $120 $198 $204 reversed $47 $-1 #
coedge $-1 $200 $205 $75 $123 forward $206 $-1 #
edge $-1 $207 25.184018230511001 $208 30.363531272223668 $122 $209 forward 7 unknown #
loop $-1 $-1 $129 $76 #
plane-surface $-1 -74.361400189214763 11.844007757247518 0.64982462318221224 -0.83867057594974714 0 0.54463902268945019 0.54463902268945019 0 0.83867057594974714 forward_v I I I I #
loop $-1 $-1 $210 $49 #
coedge $-1 $127 $127 $128 $211 reversed $77 $-1 #
coedge $-1 $128 $128 $127 $211 forward $79 $-1 #
coedge $-1 $129 $129 $80 $130 forward $124 $-1 #
edge $-1 $212 0 $212 6.2831853071796004 $129 $213 forward 7 unknown #
loop $-1 $-1 $136 $81 #
plane-surface $-1 -74.361400189214763 11.844007757247518 0.64982462318221224 -0.83867057594974714 0 0.54463902268945019 0.54463902268945019 0 0.83867057594974714 forward_v I I I I #
loop $-1 $-1 $214 $52 #
coedge $-1 $134 $134 $135 $215 reversed $82 $-1 #
coedge $-1 $135 $135 $134 $215 forward $84 $-1 #
coedge $-1 $136 $136 $85 $137 forward $131 $-1 #
edge $-1 $216 0 $216 6.2831853071796004 $136 $217 forward 7 unknown #
face $-1 $218 $219 $29 $-1 $220 forward single #
loop $-1 $-1 $221 $86 #
plane-surface $-1 118.09059618970547 3.8142315317986153 206.37950192316501 0 1 0 0.83867057594974714 0 0.54463902268945019 forward_v I I I I #
coedge $-1 $222 $223 $224 $225 reversed $87 $-1 #
coedge $-1 $143 $89 $226 $227 reversed $56 $-1 #
coedge $-1 $89 $142 $222 $228 reversed $56 $-1 #
coedge $-1 $224 $229 $89 $145 forward $219 $-1 #
edge $-1 $230 -15.31610209436203 $231 -10.136589052649335 $144 $232 forward 7 unknown #
loop $-1 $-1 $151 $90 #
plane-surface $-1 -6.6388404605312985 11.844007757247518 125.37926127341896 0.83867057594974714 0 0.54463902268945019 0.54463902268945019 0 -0.83867057594974714 forward_v I I I I #
loop $-1 $-1 $233 $58 #
coedge $-1 $149 $149 $150 $234 reversed $91 $-1 #
coedge $-1 $150 $150 $149 $234 forward $93 $-1 #
coedge $-1 $151 $151 $94 $152 forward $146 $-1 #
edge $-1 $235 0 $235 6.2831853071796004 $151 $236 forward 7 unknown #
loop $-1 $-1 $158 $95 #
plane-surface $-1 -6.6388404605312985 11.844007757247518 125.37926127341896 0.83867057594974714 0 0.54463902268945019 0.54463902268945019 0 -0.83867057594974714 forward_v I I I I #
loop $-1 $-1 $237 $61 #
coedge $-1 $156 $156 $157 $238 reversed $96 $-1 #
coedge $-1 $157 $157 $156 $238 forward $98 $-1 #
coedge $-1 $158 $158 $99 $159 forward $153 $-1 #
edge $-1 $239 0 $239 6.2831853071796004 $158 $240 forward 7 unknown #
face $-1 $241 $242 $24 $-1 $243 reversed single #
loop $-1 $-1 $244 $100 #
plane-surface $-1 -74.361400189214763 0 0 1 0 0 0 0 -1 forward_v I I I I #
coedge $-1 $245 $171 $246 $247 forward $101 $-1 #
coedge $-1 $248 $103 $245 $249 forward $65 $-1 #
coedge $-1 $103 $248 $250 $251 forward $65 $-1 #
coedge $-1 $174 $173 $103 $167 reversed $175 $-1 #
edge $-1 $252 -35.407618580650244 $253 35.407618580650244 $166 $254 forward 7 unknown #
coedge $-1 $105 $104 $255 $256 forward $41 $-1 #
coedge $-1 $257 $258 $104 $170 reversed $242 $-1 #
edge $-1 $177 -74.361400189214763 $259 74.361400189214763 $169 $260 forward 7 unknown #
coedge $-1 $163 $261 $105 $172 reversed $101 $-1 #
edge $-1 $262 -74.361400189214763 $176 74.361400189214763 $171 $263 forward 7 unknown #
coedge $-1 $166 $106 $261 $264 forward $175 $-1 #
coedge $-1 $106 $166 $257 $265 reversed $175 $-1 #
loop $-1 $-1 $173 $241 #
vertex $-1 $107 $266 #
vertex $-1 $107 $267 #
straight-curve $-1 74.361400189214763 0 8.6255755423543334 0 1 0 I I #
face $-1 $268 $269 $25 $-1 $270 reversed single #
loop $-1 $-1 $114 $108 #
plane-surface $-1 -60.280760806743842 -40.066756101654569 0 1 0 0 0 0 -1 forward_v I I I I #
coedge $-1 $271 $272 $273 $274 forward $109 $-1 #
coedge $-1 $275 $111 $276 $277 forward $69 $-1 #
coedge $-1 $111 $275 $189 $278 forward $69 $-1 #
edge $-1 $191 -60.280760806743842 $279 -57.110249104506096 $111 $280 forward 7 unknown #
coedge $-1 $113 $112 $281 $282 forward $44 $-1 #
coedge $-1 $283 $284 $112 $188 forward $285 $-1 #
edge $-1 $286 57.110249104506096 $192 60.280760806743842 $187 $287 forward 7 unknown #
coedge $-1 $273 $114 $184 $278 reversed $180 $-1 #
coedge $-1 $114 $273 $283 $288 reversed $180 $-1 #
vertex $-1 $185 $289 #
vertex $-1 $288 $290 #
straight-curve $-1 -60.280760806743842 -35.407618580650244 0 0 0 1 I I #
face $-1 $-1 $206 $26 $-1 $291 forward single #
loop $-1 $-1 $292 $116 #
plane-surface $-1 -74.361400189214763 0 0 1 0 0 0 0 -1 forward_v I I I I #
coedge $-1 $293 $294 $295 $296 reversed $117 $-1 #
coedge $-1 $297 $119 $121 $204 forward $73 $-1 #
coedge $-1 $119 $297 $293 $298 forward $73 $-1 #
coedge $-1 $295 $122 $119 $201 forward $206 $-1 #
edge $-1 $208 -2.1077723468251435 $299 13.951780104072661 $200 $300 forward 7 unknown #
coedge $-1 $301 $302 $120 $203 forward $195 $-1 #
edge $-1 $303 -40.175208013281917 $207 -32.199457094109796 $202 $304 forward 7 unknown #
edge $-1 $208 -9.509992538059457 $303 0 $121 $305 forward 7 unknown #
coedge $-1 $122 $295 $301 $306 forward $206 $-1 #
loop $-1 $-1 $295 $194 #
vertex $-1 $203 $307 #
vertex $-1 $123 $308 #
straight-curve $-1 -99.545418419725763 3.8142315317986153 8.6255755423543334 1 0 0 I I #
coedge $-1 $210 $210 $-1 $309 reversed $126 $-1 #
edge $-1 $310 0 $310 6.2831853071796004 $127 $311 forward 7 unknown #
vertex $-1 $130 $312 #
ellipse-curve $-1 -71.771643668358436 8.4026750891979844 4.6377000827682702 -0.83867057594974714 0 0.54463902268945019 0.81695853403417529 0 1.2580058639246208 1 I I #
coedge $-1 $214 $214 $-1 $313 reversed $133 $-1 #
edge $-1 $314 0 $314 6.2831853071796004 $134 $315 forward 7 unknown #
vertex $-1 $137 $316 #
ellipse-curve $-1 -71.771643668358436 15.285340425297044 4.6377000827682702 -0.83867057594974714 0 0.54463902268945019 0.81695853403417529 0 1.2580058639246208 1 I I #
face $-1 $-1 $317 $29 $-1 $318 reversed single #
loop $-1 $-1 $144 $138 #
plane-surface $-1 0 0 8.6255755423543334 0 0 1 1 0 0 forward_v I I I I #
coedge $-1 $319 $320 $321 $322 reversed $139 $-1 #
coedge $-1 $323 $141 $143 $228 forward $87 $-1 #
coedge $-1 $141 $323 $319 $324 forward $87 $-1 #
coedge $-1 $321 $144 $141 $225 forward $219 $-1 #
edge $-1 $231 -13.951780104072661 $325 2.1077723468251435 $224 $326 forward 7 unknown #
coedge $-1 $327 $328 $142 $227 forward $317 $-1 #
edge $-1 $329 -102.53992633840033 $230 -94.564175419228178 $226 $330 forward 7 unknown #
edge $-1 $231 139.21280784037003 $329 148.72280037842955 $143 $331 forward 7 unknown #
coedge $-1 $144 $321 $327 $332 forward $219 $-1 #
vertex $-1 $145 $333 #
vertex $-1 $145 $334 #
straight-curve $-1 59.045298094852733 19.87378398269642 8.6255755423543263 -1 0 0 I I #
coedge $-1 $233 $233 $-1 $335 reversed $148 $-1 #
edge $-1 $336 0 $336 6.2831853071796004 $149 $337 forward 7 unknown #
vertex $-1 $152 $338 #
ellipse-curve $-1 71.771643668358422 8.4026750891979844 4.6377000827682364 0.83867057594974714 0 0.54463902268945019 0.81695853403417529 0 -1.2580058639246208 1 I I #
coedge $-1 $237 $237 $-1 $339 reversed $155 $-1 #
edge $-1 $340 0 $340 6.2831853071796004 $156 $341 forward 7 unknown #
vertex $-1 $159 $342 #
ellipse-curve $-1 71.771643668358422 15.285340425297044 4.6377000827682364 0.83867057594974714 0 0.54463902268945019 0.81695853403417529 0 -1.2580058639246208 1 I I #
face $-1 $-1 $175 $24 $-1 $343 reversed single #
loop $-1 $-1 $257 $160 #
plane-surface $-1 0 35.407618580650244 0 0 -1 0 0 0 -1 forward_v I I I I #
coedge $-1 $344 $255 $258 $345 forward $161 $-1 #
coedge $-1 $261 $163 $164 $249 reversed $101 $-1 #
coedge $-1 $255 $344 $163 $247 reversed $161 $-1 #
edge $-1 $262 -8.6255755423543334 $346 8.6255755423543334 $246 $347 forward 7 unknown #
coedge $-1 $165 $164 $344 $348 forward $65 $-1 #
edge $-1 $253 -74.361400189214763 $346 74.361400189214763 $245 $349 forward 7 unknown #
coedge $-1 $258 $257 $165 $251 reversed $242 $-1 #
edge $-1 $350 -74.361400189214763 $252 74.361400189214763 $250 $351 forward 7 unknown #
vertex $-1 $167 $352 #
vertex $-1 $264 $353 #
straight-curve $-1 74.361400189214763 0 -8.6255755423543334 0 -1 0 I I #
coedge $-1 $244 $246 $168 $256 reversed $161 $-1 #
edge $-1 $259 -35.407618580650244 $262 35.407618580650244 $255 $354 forward 7 unknown #
coedge $-1 $250 $169 $174 $265 forward $242 $-1 #
coedge $-1 $169 $250 $244 $345 reversed $242 $-1 #
vertex $-1 $170 $355 #
straight-curve $-1 0 35.407618580650244 8.6255755423543334 -1 0 0 I I #
coedge $-1 $171 $245 $173 $264 reversed $101 $-1 #
vertex $-1 $256 $356 #
straight-curve $-1 0 -35.407618580650244 8.6255755423543334 1 0 0 I I #
edge $-1 $176 -8.6255755423543334 $253 8.6255755423543334 $173 $357 forward 7 unknown #
edge $-1 $177 -8.6255755423543334 $252 8.6255755423543334 $174 $358 forward 7 unknown #
point $-1 74.361400189214763 -35.407618580650244 8.6255755423543334 #
point $-1 74.361400189214763 35.407618580650244 8.6255755423543334 #
face $-1 $-1 $285 $25 $-1 $359 forward single #
loop $-1 $-1 $360 $179 #
plane-surface $-1 -57.110249104506096 -40.066756101654569 0 -1 0 0 0 0 1 forward_v I I I I #
coedge $-1 $361 $182 $275 $362 reversed $109 $-1 #
coedge $-1 $182 $361 $363 $364 reversed $109 $-1 #
coedge $-1 $190 $189 $182 $274 reversed $180 $-1 #
edge $-1 $365 -8.6255755423543334 $366 8.6255755423543334 $273 $367 forward 7 unknown #
coedge $-1 $184 $183 $271 $362 forward $69 $-1 #
coedge $-1 $281 $360 $183 $277 reversed $269 $-1 #
edge $-1 $279 -4.6591375210043253 $368 4.6591375210043253 $276 $369 forward 7 unknown #
edge $-1 $366 -4.6591375210043253 $191 4.6591375210043253 $189 $370 forward 7 unknown #
vertex $-1 $277 $371 #
straight-curve $-1 0 -35.407618580650244 -8.6255755423543334 1 0 0 I I #
coedge $-1 $372 $276 $186 $282 reversed $269 $-1 #
edge $-1 $286 -8.6255755423543334 $279 8.6255755423543334 $281 $373 forward 7 unknown #
coedge $-1 $363 $187 $190 $288 forward $285 $-1 #
coedge $-1 $187 $363 $372 $374 forward $285 $-1 #
loop $-1 $-1 $187 $268 #
vertex $-1 $188 $375 #
straight-curve $-1 0 -35.407618580650244 8.6255755423543334 -1 0 0 I I #
edge $-1 $192 -4.6591375210043253 $365 4.6591375210043253 $190 $376 forward 7 unknown #
point $-1 -60.280760806743842 -35.407618580650244 -8.6255755423543334 #
point $-1 -60.280760806743842 -35.407618580650244 8.6255755423543334 #
plane-surface $-1 0 0 8.6255755423543334 0 0 1 1 0 0 forward_v I I I I #
coedge $-1 $302 $301 $294 $377 forward $195 $-1 #
coedge $-1 $294 $197 $199 $298 reversed $117 $-1 #
coedge $-1 $197 $293 $292 $377 reversed $117 $-1 #
coedge $-1 $205 $200 $197 $296 forward $206 $-1 #
edge $-1 $299 -30.363531272223668 $378 -25.184018230511001 $295 $379 forward 7 unknown #
coedge $-1 $199 $198 $302 $380 reversed $73 $-1 #
edge $-1 $381 0 $299 9.509992538059457 $293 $382 forward 7 unknown #
vertex $-1 $201 $383 #
straight-curve $-1 -69.181887147502096 5.9220038786237588 8.6255755423543352 0 1 0 I I #
coedge $-1 $292 $202 $205 $306 reversed $195 $-1 #
coedge $-1 $202 $292 $297 $380 forward $195 $-1 #
vertex $-1 $203 $384 #
straight-curve $-1 -74.361400189214763 3.8142315317986153 40.82503263646413 0 0 1 I I #
straight-curve $-1 -74.361400189214763 3.8142315317986153 0.64982462318221224 -0.54463902268945019 0 -0.83867057594974714 I I #
edge $-1 $378 -19.87378398269642 $207 -3.8142315317986153 $301 $385 forward 7 unknown #
point $-1 -74.361400189214763 3.8142315317986153 8.6255755423543334 #
point $-1 -69.181887147502096 3.8142315317986153 8.6255755423543334 #
edge $-1 $386 1 $386 0 $210 $-1 forward 7 unknown #
vertex $-1 $211 $387 #
ellipse-curve $-1 -67.298230562100017 8.4026750891979844 1.7326317375247575 -0.83867057594974714 0 0.54463902268945019 0.81695853403417529 0 1.2580058639246208 1 I I #
point $-1 -70.954685134324251 8.4026750891979844 5.8957059466928863 #
edge $-1 $388 1 $388 0 $214 $-1 forward 7 unknown #
vertex $-1 $215 $389 #
ellipse-curve $-1 -67.298230562100017 15.285340425297044 1.7326317375247575 -0.83867057594974714 0 0.54463902268945019 0.81695853403417529 0 1.2580058639246208 1 I I #
point $-1 -70.954685134324251 15.285340425297044 5.8957059466928863 #
loop $-1 $-1 $226 $218 #
plane-surface $-1 74.361400189214763 0 0 -1 0 0 0 0 1 forward_v I I I I #
coedge $-1 $320 $221 $223 $324 reversed $139 $-1 #
coedge $-1 $221 $319 $390 $391 reversed $139 $-1 #
coedge $-1 $229 $224 $221 $322 forward $219 $-1 #
edge $-1 $325 10.136589052649335 $392 15.31610209436203 $321 $393 forward 7 unknown #
coedge $-1 $223 $222 $328 $394 reversed $87 $-1 #
edge $-1 $395 -148.72280037842955 $325 -139.21280784037003 $319 $396 forward 7 unknown #
vertex $-1 $225 $397 #
straight-curve $-1 69.181887147502081 5.9220038786237588 8.6255755423543405 0 -1 0 I I #
coedge $-1 $390 $226 $229 $332 reversed $317 $-1 #
coedge $-1 $226 $390 $323 $394 forward $317 $-1 #
vertex $-1 $227 $398 #
straight-curve $-1 74.361400189214763 19.87378398269642 103.1897509615825 0 0 1 I I #
straight-curve $-1 -6.6388404605312985 19.87378398269642 125.37926127341896 0.54463902268945019 0 -0.83867057594974714 I I #
edge $-1 $392 3.8142315317986153 $230 19.87378398269642 $327 $399 forward 7 unknown #
point $-1 74.361400189214763 19.87378398269642 8.6255755423543334 #
point $-1 69.181887147502067 19.87378398269642 8.6255755423543548 #
edge $-1 $400 1 $400 0 $233 $-1 forward 7 unknown #
vertex $-1 $234 $401 #
ellipse-curve $-1 67.298230562100045 8.4026750891979844 1.7326317375247504 0.83867057594974714 0 0.54463902268945019 0.81695853403417529 0 -1.2580058639246208 1 I I #
point $-1 72.588602202392622 8.4026750891979844 3.3796942188436381 #
edge $-1 $402 1 $402 0 $237 $-1 forward 7 unknown #
vertex $-1 $238 $403 #
ellipse-curve $-1 67.298230562100045 15.285340425297044 1.7326317375247504 0.83867057594974714 0 0.54463902268945019 0.81695853403417529 0 -1.2580058639246208 1 I I #
point $-1 72.588602202392622 15.285340425297044 3.3796942188436381 #
plane-surface $-1 74.361400189214763 0 0 -1 0 0 0 0 1 forward_v I I I I #
coedge $-1 $246 $244 $248 $348 reversed $161 $-1 #
edge $-1 $259 -8.6255755423543334 $350 8.6255755423543334 $258 $404 forward 7 unknown #
vertex $-1 $348 $405 #
straight-curve $-1 -74.361400189214763 -35.407618580650244 0 0 0 -1 I I #
edge $-1 $346 -35.407618580650244 $350 35.407618580650244 $344 $406 forward 7 unknown #
straight-curve $-1 0 -35.407618580650244 -8.6255755423543334 -1 0 0 I I #
vertex $-1 $251 $407 #
straight-curve $-1 0 35.407618580650244 -8.6255755423543334 1 0 0 I I #
point $-1 74.361400189214763 35.407618580650244 -8.6255755423543334 #
point $-1 74.361400189214763 -35.407618580650244 -8.6255755423543334 #
straight-curve $-1 -74.361400189214763 0 8.6255755423543334 0 -1 0 I I #
point $-1 -74.361400189214763 35.407618580650244 8.6255755423543334 #
point $-1 -74.361400189214763 -35.407618580650244 8.6255755423543334 #
straight-curve $-1 74.361400189214763 -35.407618580650244 0 0 0 -1 I I #
straight-curve $-1 74.361400189214763 35.407618580650244 0 0 0 -1 I I #
plane-surface $-1 0 0 8.6255755423543334 0 0 1 1 0 0 forward_v I I I I #
coedge $-1 $276 $372 $361 $408 forward $269 $-1 #
coedge $-1 $272 $271 $360 $408 reversed $109 $-1 #
edge $-1 $368 -1.5852558511188732 $366 1.5852558511188732 $271 $409 forward 7 unknown #
coedge $-1 $284 $283 $272 $364 forward $285 $-1 #
edge $-1 $365 -1.5852558511188732 $410 1.5852558511188732 $272 $411 forward 7 unknown #
vertex $-1 $288 $412 #
vertex $-1 $278 $413 #
straight-curve $-1 -60.280760806743842 -44.725893622658894 0 0 0 -1 I I #
vertex $-1 $408 $414 #
straight-curve $-1 -57.110249104506096 -40.066756101654569 -8.6255755423543334 0 -1 0 I I #
straight-curve $-1 -60.280760806743842 -40.066756101654569 -8.6255755423543334 0 1 0 I I #
point $-1 -57.110249104506096 -35.407618580650244 -8.6255755423543334 #
coedge $-1 $360 $281 $284 $374 reversed $269 $-1 #
straight-curve $-1 -57.110249104506096 -35.407618580650244 0 0 0 -1 I I #
edge $-1 $410 -4.6591375210043253 $286 4.6591375210043253 $372 $415 forward 7 unknown #
point $-1 -57.110249104506096 -35.407618580650244 8.6255755423543334 #
straight-curve $-1 -60.280760806743842 -40.066756101654569 8.6255755423543334 0 -1 0 I I #
edge $-1 $378 32.199457094109796 $381 40.175208013281917 $292 $416 forward 7 unknown #
vertex $-1 $306 $417 #
straight-curve $-1 -99.545418419725763 19.87378398269642 8.6255755423543334 -1 0 0 I I #
edge $-1 $381 -13.951780104072661 $303 2.1077723468251435 $302 $418 forward 7 unknown #
vertex $-1 $380 $419 #
straight-curve $-1 -74.361400189214763 19.87378398269642 0.64982462318221224 0.54463902268945019 0 0.83867057594974714 I I #
point $-1 -69.181887147502096 19.87378398269642 8.6255755423543334 #
point $-1 -74.361400189214763 3.8142315317986153 0.64982462318221224 #
straight-curve $-1 -74.361400189214763 0 8.6255755423543334 0 -1 0 I I #
vertex $-1 $309 $420 #
point $-1 -66.481272028065845 8.4026750891979844 2.9906376014493783 #
vertex $-1 $313 $421 #
point $-1 -66.481272028065845 15.285340425297044 2.9906376014493783 #
coedge $-1 $328 $327 $320 $391 forward $317 $-1 #
edge $-1 $392 94.564175419228178 $395 102.53992633840033 $390 $422 forward 7 unknown #
vertex $-1 $332 $423 #
straight-curve $-1 59.045298094852733 3.8142315317986153 8.6255755423543263 1 0 0 I I #
edge $-1 $395 -2.1077723468251435 $329 13.951780104072661 $328 $424 forward 7 unknown #
vertex $-1 $394 $425 #
straight-curve $-1 -6.6388404605312985 3.8142315317986153 125.37926127341896 -0.54463902268945019 0 0.83867057594974714 I I #
point $-1 69.181887147502067 3.8142315317986153 8.6255755423543548 #
point $-1 74.361400189214763 19.87378398269642 0.6498246231821696 #
straight-curve $-1 74.361400189214763 0 8.6255755423543334 0 1 0 I I #
vertex $-1 $335 $426 #
point $-1 68.11518909613423 8.4026750891979844 0.47462587360012964 #
vertex $-1 $339 $427 #
point $-1 68.11518909613423 15.285340425297044 0.47462587360012964 #
straight-curve $-1 -74.361400189214763 35.407618580650244 0 0 0 -1 I I #
point $-1 -74.361400189214763 -35.407618580650244 -8.6255755423543334 #
straight-curve $-1 -74.361400189214763 0 -8.6255755423543334 0 1 0 I I #
point $-1 -74.361400189214763 35.407618580650244 -8.6255755423543334 #
edge $-1 $410 -8.6255755423543334 $368 8.6255755423543334 $360 $428 forward 7 unknown #
straight-curve $-1 -58.695504955624969 -44.725893622658894 -8.6255755423543334 -1 0 0 I I #
vertex $-1 $374 $429 #
straight-curve $-1 -58.695504955624969 -44.725893622658894 8.6255755423543334 1 0 0 I I #
point $-1 -60.280760806743842 -44.725893622658894 8.6255755423543334 #
point $-1 -60.280760806743842 -44.725893622658894 -8.6255755423543334 #
point $-1 -57.110249104506096 -44.725893622658894 -8.6255755423543334 #
straight-curve $-1 -57.110249104506096 -40.066756101654569 8.6255755423543334 0 1 0 I I #
straight-curve $-1 -74.361400189214763 19.87378398269642 40.82503263646413 0 0 -1 I I #
point $-1 -74.361400189214763 19.87378398269642 8.6255755423543334 #
straight-curve $-1 -74.361400189214763 5.9220038786237588 0.64982462318221024 0 -1 0 I I #
point $-1 -74.361400189214763 19.87378398269642 0.64982462318221224 #
point $-1 -66.040224698175408 8.4026750891979844 0.91567320349058234 #
point $-1 -66.040224698175408 15.285340425297044 0.91567320349058234 #
straight-curve $-1 74.361400189214763 3.8142315317986153 103.1897509615825 0 0 -1 I I #
point $-1 74.361400189214763 3.8142315317986153 8.6255755423543334 #
straight-curve $-1 74.361400189214763 5.9220038786237588 0.64982462318219092 0 1 0 I I #
point $-1 74.361400189214763 3.8142315317986153 0.6498246231821696 #
point $-1 66.040224698175436 8.4026750891979844 0.91567320349057524 #
point $-1 66.040224698175436 15.285340425297044 0.91567320349057524 #
straight-curve $-1 -57.110249104506096 -44.725893622658894 0 0 0 -1 I I #
point $-1 -57.110249104506096 -44.725893622658894 8.6255755423543334 #
End-of-ACIS-data 