500 0 7 0           
7 Unknown 11 ACIS 5.0 NT 24 Thu Mar 25 23:13:04 1999 
-1 9.9999999999999995e-007 1e-010 
body $-1 $7 $-1 $8 #
body $-1 $9 $-1 $10 #
body $-1 $11 $-1 $12 #
body $-1 $13 $-1 $14 #
body $-1 $15 $-1 $16 #
body $-1 $17 $-1 $18 #
body $-1 $19 $-1 $20 #
lump $-1 $-1 $21 $0 #
transform $-1 1 0 0 0 1 0 0 0 1 43.531601916562394 19.907999141815825 9.8887473626547617 1 rotate no_reflect no_shear #
lump $-1 $-1 $22 $1 #
transform $-1 1 0 0 0 1 0 0 0 1 43.531601916562394 19.907999141815825 9.8887473626547617 1 rotate no_reflect no_shear #
lump $-1 $-1 $23 $2 #
transform $-1 1 0 0 0 1 0 0 0 1 43.531601916562394 19.907999141815825 9.8887473626547617 1 rotate no_reflect no_shear #
lump $-1 $-1 $24 $3 #
transform $-1 1 0 0 0 1 0 0 0 1 43.531601916562394 19.907999141815825 9.8887473626547617 1 rotate no_reflect no_shear #
lump $-1 $-1 $25 $4 #
transform $-1 1 0 0 0 1 0 0 0 1 43.531601916562394 19.907999141815825 9.8887473626547617 1 rotate no_reflect no_shear #
lump $-1 $-1 $26 $5 #
transform $-1 1 0 0 0 1 0 0 0 1 43.531601916562394 19.907999141815825 9.8887473626547617 1 rotate no_reflect no_shear #
lump $-1 $-1 $27 $6 #
transform $-1 1 0 0 0 1 0 0 0 1 43.531601916562394 19.907999141815825 9.8887473626547617 1 rotate no_reflect no_shear #
shell $-1 $-1 $-1 $28 $-1 $7 #
shell $-1 $-1 $-1 $29 $-1 $9 #
shell $-1 $-1 $-1 $30 $-1 $11 #
shell $-1 $-1 $-1 $31 $-1 $13 #
shell $-1 $-1 $-1 $32 $-1 $15 #
shell $-1 $-1 $-1 $33 $-1 $17 #
shell $-1 $-1 $-1 $34 $-1 $19 #
face $-1 $35 $36 $21 $-1 $37 forward single #
face $-1 $38 $39 $22 $-1 $40 reversed single #
face $-1 $41 $42 $23 $-1 $43 reversed single #
face $-1 $44 $45 $24 $-1 $46 forward single #
face $-1 $47 $48 $25 $-1 $49 reversed single #
face $-1 $50 $51 $26 $-1 $52 forward single #
face $-1 $53 $54 $27 $-1 $55 forward single #
face $-1 $56 $57 $21 $-1 $58 reversed single #
loop $-1 $-1 $59 $28 #
plane-surface $-1 0 0 9.8887473626547617 0 0 1 1 0 0 forward_v I I I I #
face $-1 $60 $61 $22 $-1 $62 reversed single #
loop $-1 $-1 $63 $29 #
plane-surface $-1 -40.964668158741034 -9.7324246888441479 0 0 -1 0 0 0 -1 forward_v I I I I #
face $-1 $64 $65 $23 $-1 $66 reversed single #
loop $-1 $-1 $67 $30 #
plane-surface $-1 37.087688202405445 12.988470938429959 123.73719311943236 0 1 0 0.66913061440640931 0 0.74314481823134659 forward_v I I I I #
face $-1 $68 $69 $24 $-1 $70 forward single #
loop $-1 $71 $72 $31 #
cone-surface $-1 37.587603672257003 16.448235040122892 4.3505368115396932 -0.66913061440640931 0 -0.74314481823134659 0.74314481823134659 0 -0.66913061440640931 1 I I 0 1 1 forward I I I I #
face $-1 $73 $74 $25 $-1 $75 reversed single #
loop $-1 $-1 $76 $32 #
plane-surface $-1 -99.494751287952056 -6.4681830741832629 70.783550321015525 0 1 0 -0.64278761758704617 0 0.76604443648966558 forward_v I I I I #
face $-1 $77 $78 $26 $-1 $79 forward single #
loop $-1 $80 $81 $33 #
cone-surface $-1 -38.866080418690942 -4.4546591825293493 5.547288233890507 0.64278761758704617 0 -0.76604443648966558 0.76604443648966558 0 0.64278761758704617 1 I I 0 1 1 forward I I I I #
face $-1 $82 $83 $27 $-1 $84 forward single #
loop $-1 $85 $86 $34 #
cone-surface $-1 -38.866080418690942 -1.4343733450484777 5.547288233890507 0.64278761758704617 0 -0.76604443648966558 0.76604443648966558 0 0.64278761758704617 1 I I 0 1 1 forward I I I I #
face $-1 $87 $88 $21 $-1 $89 reversed single #
loop $-1 $-1 $90 $35 #
plane-surface $-1 0 0 -9.8887473626547617 0 0 1 1 0 0 forward_v I I I I #
coedge $-1 $91 $92 $93 $94 forward $36 $-1 #
face $-1 $95 $96 $22 $-1 $97 forward single #
loop $-1 $-1 $98 $38 #
plane-surface $-1 -38.397734400919674 -14.820211915329986 0 -1 0 0 0 0 1 forward_v I I I I #
coedge $-1 $99 $100 $101 $102 forward $39 $-1 #
face $-1 $103 $104 $23 $-1 $105 reversed single #
loop $-1 $-1 $106 $41 #
plane-surface $-1 -21.168966870643793 16.448235040122892 59.036624332226168 0.66913061440640931 0 0.74314481823134659 0.74314481823134659 0 -0.66913061440640931 forward_v I I I I #
coedge $-1 $107 $108 $109 $110 reversed $42 $-1 #
face $-1 $-1 $111 $24 $-1 $112 forward single #
loop $-1 $113 $114 $44 #
cone-surface $-1 36.367201488857148 16.448235040122892 2.995142903047892 -0.66913061440640931 0 -0.74314481823134659 0.3715724091156733 0 -0.33456530720320465 1 I I -0.70710678118654724 0.70710678118654791 0.5 forward I I I I #
loop $-1 $-1 $115 $31 #
coedge $-1 $72 $72 $116 $117 reversed $45 $-1 #
face $-1 $118 $119 $25 $-1 $120 reversed single #
loop $-1 $-1 $121 $47 #
plane-surface $-1 -43.531601916562387 -2.9445162637889126 4.0892674016845518 -0.64278761758704617 0 0.76604443648966558 0.76604443648966558 0 0.64278761758704617 forward_v I I I I #
coedge $-1 $122 $123 $124 $125 reversed $48 $-1 #
face $-1 $-1 $126 $26 $-1 $127 forward single #
loop $-1 $128 $129 $50 #
cone-surface $-1 -37.334940578977083 -4.4546591825293493 3.722546867366523 0.64278761758704617 0 -0.76604443648966558 0.38302221824483279 0 0.32139380879352308 1 I I -0.70710678118654746 0.70710678118654746 0.5 forward I I I I #
loop $-1 $-1 $130 $33 #
coedge $-1 $81 $81 $131 $132 reversed $51 $-1 #
face $-1 $-1 $133 $27 $-1 $134 forward single #
loop $-1 $135 $136 $53 #
cone-surface $-1 -37.334940578977083 -1.4343733450484777 3.722546867366523 0.64278761758704617 0 -0.76604443648966558 0.38302221824483279 0 0.32139380879352308 1 I I -0.70710678118654746 0.70710678118654746 0.5 forward I I I I #
loop $-1 $-1 $137 $34 #
coedge $-1 $86 $86 $138 $139 reversed $54 $-1 #
face $-1 $140 $141 $21 $-1 $142 reversed single #
loop $-1 $-1 $143 $56 #
plane-surface $-1 0 -19.907999141815825 0 0 1 0 0 0 1 forward_v I I I I #
coedge $-1 $144 $145 $146 $147 forward $57 $-1 #
coedge $-1 $148 $59 $149 $150 forward $36 $-1 #
coedge $-1 $59 $148 $151 $152 forward $36 $-1 #
coedge $-1 $153 $154 $59 $94 reversed $155 $-1 #
edge $-1 $156 -19.907999141815825 $157 19.907999141815825 $93 $158 forward 7 unknown #
face $-1 $159 $160 $22 $-1 $161 reversed single #
loop $-1 $-1 $162 $60 #
plane-surface $-1 0 0 9.8887473626547617 0 0 1 1 0 0 forward_v I I I I #
coedge $-1 $163 $164 $165 $166 reversed $61 $-1 #
coedge $-1 $167 $63 $168 $169 reversed $39 $-1 #
coedge $-1 $63 $167 $170 $171 reversed $39 $-1 #
coedge $-1 $164 $163 $63 $102 reversed $61 $-1 #
edge $-1 $172 -9.8887473626547617 $173 9.8887473626547617 $101 $174 forward 7 unknown #
face $-1 $175 $176 $23 $-1 $177 reversed single #
loop $-1 $-1 $109 $64 #
plane-surface $-1 43.531601916562394 0 0 -1 0 0 0 0 1 forward_v I I I I #
coedge $-1 $178 $179 $180 $181 reversed $65 $-1 #
coedge $-1 $108 $67 $182 $183 reversed $42 $-1 #
coedge $-1 $67 $107 $178 $184 reversed $42 $-1 #
coedge $-1 $180 $185 $67 $110 forward $104 $-1 #
edge $-1 $186 51.979849197061419 $187 61.088627300539237 $109 $188 forward 7 unknown #
loop $-1 $-1 $116 $68 #
plane-surface $-1 -21.168966870643793 16.448235040122892 59.036624332226168 0.66913061440640931 0 0.74314481823134659 0.74314481823134659 0 -0.66913061440640931 forward_v I I I I #
loop $-1 $-1 $189 $44 #
coedge $-1 $114 $114 $115 $190 reversed $69 $-1 #
coedge $-1 $115 $115 $114 $190 forward $71 $-1 #
coedge $-1 $116 $116 $72 $117 forward $111 $-1 #
edge $-1 $191 0 $191 6.2831853071796004 $116 $192 forward 7 unknown #
face $-1 $193 $194 $25 $-1 $195 reversed single #
loop $-1 $-1 $196 $73 #
plane-surface $-1 -99.494751287952056 0.57915054660543763 70.783550321015525 0 -1 0 0.64278761758704617 0 -0.76604443648966558 forward_v I I I I #
coedge $-1 $197 $198 $199 $200 reversed $74 $-1 #
coedge $-1 $123 $76 $201 $202 reversed $48 $-1 #
coedge $-1 $76 $122 $197 $203 reversed $48 $-1 #
coedge $-1 $199 $204 $76 $125 forward $205 $-1 #
edge $-1 $206 6.2157737274136338 $207 13.127324661315861 $124 $208 forward 7 unknown #
loop $-1 $-1 $131 $77 #
plane-surface $-1 -43.531601916562387 -2.9445162637889126 4.0892674016845518 -0.64278761758704617 0 0.76604443648966558 0.76604443648966558 0 0.64278761758704617 forward_v I I I I #
loop $-1 $-1 $209 $50 #
coedge $-1 $129 $129 $130 $210 reversed $78 $-1 #
coedge $-1 $130 $130 $129 $210 forward $80 $-1 #
coedge $-1 $131 $131 $81 $132 forward $126 $-1 #
edge $-1 $211 0 $211 6.2831853071796004 $131 $212 forward 7 unknown #
loop $-1 $-1 $138 $82 #
plane-surface $-1 -43.531601916562387 -2.9445162637889126 4.0892674016845518 -0.64278761758704617 0 0.76604443648966558 0.76604443648966558 0 0.64278761758704617 forward_v I I I I #
loop $-1 $-1 $213 $53 #
coedge $-1 $136 $136 $137 $214 reversed $83 $-1 #
coedge $-1 $137 $137 $136 $214 forward $85 $-1 #
coedge $-1 $138 $138 $86 $139 forward $133 $-1 #
edge $-1 $215 0 $215 6.2831853071796004 $138 $216 forward 7 unknown #
face $-1 $217 $218 $21 $-1 $219 reversed single #
loop $-1 $-1 $220 $87 #
plane-surface $-1 -43.531601916562394 0 0 1 0 0 0 0 -1 forward_v I I I I #
coedge $-1 $221 $151 $222 $223 forward $88 $-1 #
coedge $-1 $224 $90 $221 $225 forward $57 $-1 #
coedge $-1 $90 $224 $226 $227 forward $57 $-1 #
coedge $-1 $154 $153 $90 $147 reversed $155 $-1 #
edge $-1 $228 -19.907999141815825 $229 19.907999141815825 $146 $230 forward 7 unknown #
coedge $-1 $92 $91 $231 $232 forward $36 $-1 #
coedge $-1 $233 $234 $91 $150 reversed $218 $-1 #
edge $-1 $157 -43.531601916562394 $235 43.531601916562394 $149 $236 forward 7 unknown #
coedge $-1 $143 $237 $92 $152 reversed $88 $-1 #
edge $-1 $238 -43.531601916562394 $156 43.531601916562394 $151 $239 forward 7 unknown #
coedge $-1 $146 $93 $237 $240 forward $155 $-1 #
coedge $-1 $93 $146 $233 $241 reversed $155 $-1 #
loop $-1 $-1 $153 $217 #
vertex $-1 $94 $242 #
vertex $-1 $94 $243 #
straight-curve $-1 43.531601916562394 0 9.8887473626547617 0 1 0 I I #
face $-1 $244 $245 $22 $-1 $246 reversed single #
loop $-1 $-1 $247 $95 #
plane-surface $-1 -43.531601916562394 0 0 1 0 0 0 0 -1 forward_v I I I I #
coedge $-1 $170 $248 $164 $249 forward $96 $-1 #
coedge $-1 $101 $98 $250 $251 reversed $61 $-1 #
coedge $-1 $98 $101 $162 $249 reversed $61 $-1 #
coedge $-1 $252 $253 $98 $166 forward $254 $-1 #
edge $-1 $255 -9.8887473626547617 $256 9.8887473626547617 $165 $257 forward 7 unknown #
coedge $-1 $100 $99 $247 $258 reversed $39 $-1 #
coedge $-1 $250 $259 $99 $169 forward $245 $-1 #
edge $-1 $260 -23.049267837191877 $173 -17.915400321549157 $168 $261 forward 7 unknown #
coedge $-1 $262 $162 $100 $171 forward $96 $-1 #
edge $-1 $172 17.915400321549157 $263 23.049267837191877 $170 $264 forward 7 unknown #
vertex $-1 $171 $265 #
vertex $-1 $169 $266 #
straight-curve $-1 -38.397734400919674 -9.7324246888441479 0 0 0 -1 I I #
face $-1 $-1 $267 $23 $-1 $268 forward single #
loop $-1 $-1 $269 $103 #
plane-surface $-1 0 19.907999141815825 0 0 -1 0 0 0 -1 forward_v I I I I #
coedge $-1 $270 $106 $108 $184 forward $65 $-1 #
coedge $-1 $106 $270 $269 $271 reversed $65 $-1 #
coedge $-1 $272 $109 $106 $181 forward $104 $-1 #
edge $-1 $187 4.764353418368513 $273 11.683881621754379 $180 $274 forward 7 unknown #
coedge $-1 $275 $276 $107 $183 forward $267 $-1 #
edge $-1 $277 14.871435079142245 $186 24.987757815359672 $182 $278 forward 7 unknown #
edge $-1 $187 -87.06320383312476 $277 -73.450348723277074 $108 $279 forward 7 unknown #
coedge $-1 $109 $272 $275 $280 reversed $104 $-1 #
vertex $-1 $280 $281 #
vertex $-1 $110 $282 #
straight-curve $-1 43.531601916562394 12.988470938429959 61.868596559716181 0 0 -1 I I #
coedge $-1 $189 $189 $-1 $283 reversed $113 $-1 #
edge $-1 $284 0 $284 6.2831853071796004 $114 $285 forward 7 unknown #
vertex $-1 $117 $286 #
ellipse-curve $-1 38.473440548453681 16.448235040122892 5.3343583109158512 0.66913061440640931 0 0.74314481823134659 0.74314481823134659 0 -0.66913061440640931 1 I I #
face $-1 $-1 $205 $25 $-1 $287 forward single #
loop $-1 $-1 $288 $118 #
plane-surface $-1 -43.531601916562394 0 0 1 0 0 0 0 -1 forward_v I I I I #
coedge $-1 $289 $290 $291 $292 reversed $119 $-1 #
coedge $-1 $293 $121 $123 $203 forward $74 $-1 #
coedge $-1 $121 $293 $289 $294 forward $74 $-1 #
coedge $-1 $291 $124 $121 $200 forward $205 $-1 #
edge $-1 $207 -4.9959249422888066 $295 2.0514086784998939 $199 $296 forward 7 unknown #
coedge $-1 $297 $298 $122 $202 forward $194 $-1 #
edge $-1 $299 -31.302507758823218 $206 -25.503027797853001 $201 $300 forward 7 unknown #
edge $-1 $207 -9.0223890477866036 $299 9.439443728910611e-015 $123 $301 forward 7 unknown #
coedge $-1 $124 $291 $297 $302 forward $205 $-1 #
loop $-1 $-1 $291 $193 #
vertex $-1 $202 $303 #
vertex $-1 $125 $304 #
straight-curve $-1 -49.747375643976028 -6.4681830741832629 9.8887473626547617 1 0 0 I I #
coedge $-1 $209 $209 $-1 $305 reversed $128 $-1 #
edge $-1 $306 0 $306 6.2831853071796004 $129 $307 forward 7 unknown #
vertex $-1 $132 $308 #
ellipse-curve $-1 -40.075826449611277 -4.4546591825293493 6.989007382169655 -0.64278761758704617 0 0.76604443648966558 0.76604443648966558 0 0.64278761758704617 1 I I #
coedge $-1 $213 $213 $-1 $309 reversed $135 $-1 #
edge $-1 $310 0 $310 6.2831853071796004 $136 $311 forward 7 unknown #
vertex $-1 $139 $312 #
ellipse-curve $-1 -40.075826449611277 -1.4343733450484777 6.989007382169655 -0.64278761758704617 0 0.76604443648966558 0.76604443648966558 0 0.64278761758704617 1 I I #
face $-1 $-1 $155 $21 $-1 $313 reversed single #
loop $-1 $-1 $233 $140 #
plane-surface $-1 0 19.907999141815825 0 0 -1 0 0 0 -1 forward_v I I I I #
coedge $-1 $314 $231 $234 $315 forward $141 $-1 #
coedge $-1 $237 $143 $144 $225 reversed $88 $-1 #
coedge $-1 $231 $314 $143 $223 reversed $141 $-1 #
edge $-1 $238 -9.8887473626547617 $316 9.8887473626547617 $222 $317 forward 7 unknown #
coedge $-1 $145 $144 $314 $318 forward $57 $-1 #
edge $-1 $229 -43.531601916562394 $316 43.531601916562394 $221 $319 forward 7 unknown #
coedge $-1 $234 $233 $145 $227 reversed $218 $-1 #
edge $-1 $320 -43.531601916562394 $228 43.531601916562394 $226 $321 forward 7 unknown #
vertex $-1 $147 $322 #
vertex $-1 $240 $323 #
straight-curve $-1 43.531601916562394 0 -9.8887473626547617 0 -1 0 I I #
coedge $-1 $220 $222 $148 $232 reversed $141 $-1 #
edge $-1 $235 -19.907999141815825 $238 19.907999141815825 $231 $324 forward 7 unknown #
coedge $-1 $226 $149 $154 $241 forward $218 $-1 #
coedge $-1 $149 $226 $220 $315 reversed $218 $-1 #
vertex $-1 $150 $325 #
straight-curve $-1 0 19.907999141815825 9.8887473626547617 -1 0 0 I I #
coedge $-1 $151 $221 $153 $240 reversed $88 $-1 #
vertex $-1 $232 $326 #
straight-curve $-1 0 -19.907999141815825 9.8887473626547617 1 0 0 I I #
edge $-1 $156 -9.8887473626547617 $229 9.8887473626547617 $153 $327 forward 7 unknown #
edge $-1 $157 -9.8887473626547617 $228 9.8887473626547617 $154 $328 forward 7 unknown #
point $-1 43.531601916562394 -19.907999141815825 9.8887473626547617 #
point $-1 43.531601916562394 19.907999141815825 9.8887473626547617 #
face $-1 $-1 $254 $22 $-1 $329 reversed single #
loop $-1 $-1 $250 $159 #
plane-surface $-1 0 0 -9.8887473626547617 0 0 1 1 0 0 forward_v I I I I #
coedge $-1 $330 $331 $167 $258 forward $160 $-1 #
coedge $-1 $162 $262 $252 $332 forward $96 $-1 #
edge $-1 $256 -12.497893184150833 $172 -2.3223187311791547 $162 $333 forward 7 unknown #
coedge $-1 $334 $168 $163 $251 forward $245 $-1 #
edge $-1 $173 2.3223187311791547 $255 12.497893184150833 $250 $335 forward 7 unknown #
coedge $-1 $336 $165 $248 $332 reversed $254 $-1 #
coedge $-1 $165 $336 $334 $337 reversed $254 $-1 #
loop $-1 $-1 $165 $244 #
vertex $-1 $337 $338 #
vertex $-1 $166 $339 #
straight-curve $-1 -38.397734400919674 -19.907999141815825 0 0 0 1 I I #
edge $-1 $263 -9.8887473626547617 $260 9.8887473626547617 $247 $340 forward 7 unknown #
coedge $-1 $168 $334 $330 $341 forward $245 $-1 #
vertex $-1 $169 $342 #
straight-curve $-1 -20.482334079370517 -9.7324246888441479 -9.8887473626547617 1 0 0 I I #
coedge $-1 $248 $170 $331 $343 forward $96 $-1 #
vertex $-1 $343 $344 #
straight-curve $-1 -20.482334079370517 -9.7324246888441479 9.8887473626547617 -1 0 0 I I #
point $-1 -38.397734400919674 -9.7324246888441479 9.8887473626547617 #
point $-1 -38.397734400919674 -9.7324246888441479 -9.8887473626547617 #
loop $-1 $-1 $182 $175 #
plane-surface $-1 0 0 9.8887473626547617 0 0 1 1 0 0 forward_v I I I I #
coedge $-1 $345 $346 $179 $271 forward $176 $-1 #
coedge $-1 $179 $178 $276 $347 reversed $65 $-1 #
edge $-1 $273 -59.445793458558342 $348 -45.832938348710648 $269 $349 forward 7 unknown #
coedge $-1 $185 $180 $346 $350 reversed $104 $-1 #
vertex $-1 $271 $351 #
straight-curve $-1 43.531601916562387 8.224117520061446 0.77996925917694782 0 1 0 I I #
coedge $-1 $352 $182 $185 $280 forward $267 $-1 #
coedge $-1 $182 $352 $270 $347 forward $267 $-1 #
vertex $-1 $183 $353 #
straight-curve $-1 18.543844101202723 12.988470938429959 9.8887473626547617 1 0 0 I I #
straight-curve $-1 -21.168966870643793 12.988470938429959 59.036624332226168 -0.74314481823134659 0 0.66913061440640931 I I #
edge $-1 $186 12.988470938429959 $354 19.907999141815825 $185 $355 forward 7 unknown #
point $-1 43.531601916562394 12.988470938429959 9.8887473626547617 #
point $-1 43.531601916562387 12.988470938429959 0.77996925917694426 #
edge $-1 $356 1 $356 0 $189 $-1 forward 7 unknown #
vertex $-1 $190 $357 #
ellipse-curve $-1 36.701766796060355 16.448235040122892 3.3667153121635658 0.66913061440640931 0 0.74314481823134659 0.74314481823134659 0 -0.66913061440640931 1 I I #
point $-1 39.216585366684996 16.448235040122892 4.6652276965094117 #
plane-surface $-1 0 0 9.8887473626547617 0 0 1 1 0 0 forward_v I I I I #
coedge $-1 $298 $297 $290 $358 forward $194 $-1 #
coedge $-1 $290 $196 $198 $294 reversed $119 $-1 #
coedge $-1 $196 $289 $288 $358 reversed $119 $-1 #
coedge $-1 $204 $199 $196 $292 forward $205 $-1 #
edge $-1 $295 -13.127324661315861 $359 -6.2157737274136338 $291 $360 forward 7 unknown #
coedge $-1 $198 $197 $298 $361 reversed $74 $-1 #
edge $-1 $362 -9.439443728910611e-015 $295 9.0223890477866036 $289 $363 forward 7 unknown #
vertex $-1 $200 $364 #
straight-curve $-1 -36.620050982660167 -1.4722581318944563 9.8887473626547617 0 1 0 I I #
coedge $-1 $288 $201 $204 $302 reversed $194 $-1 #
coedge $-1 $201 $288 $293 $361 forward $194 $-1 #
vertex $-1 $202 $365 #
straight-curve $-1 -43.531601916562394 -6.4681830741832629 35.391775160507763 0 0 1 I I #
straight-curve $-1 -43.531601916562387 -6.4681830741832629 4.0892674016845518 -0.76604443648966558 0 -0.64278761758704617 I I #
edge $-1 $359 -0.57915054660543763 $206 6.4681830741832629 $297 $366 forward 7 unknown #
point $-1 -43.531601916562394 -6.4681830741832629 9.8887473626547617 #
point $-1 -36.620050982660167 -6.4681830741832629 9.8887473626547617 #
edge $-1 $367 1 $367 0 $209 $-1 forward 7 unknown #
vertex $-1 $210 $368 #
ellipse-curve $-1 -37.656334387770606 -4.4546591825293493 4.1055690856113554 -0.64278761758704617 0 0.76604443648966558 0.76604443648966558 0 0.64278761758704617 1 I I #
point $-1 -39.30978201312162 -4.4546591825293493 7.6317949997567034 #
edge $-1 $369 1 $369 0 $213 $-1 forward 7 unknown #
vertex $-1 $214 $370 #
ellipse-curve $-1 -37.656334387770606 -1.4343733450484777 4.1055690856113554 -0.64278761758704617 0 0.76604443648966558 0.76604443648966558 0 0.64278761758704617 1 I I #
point $-1 -39.30978201312162 -1.4343733450484777 7.6317949997567034 #
plane-surface $-1 43.531601916562394 0 0 -1 0 0 0 0 1 forward_v I I I I #
coedge $-1 $222 $220 $224 $318 reversed $141 $-1 #
edge $-1 $235 -9.8887473626547617 $320 9.8887473626547617 $234 $371 forward 7 unknown #
vertex $-1 $318 $372 #
straight-curve $-1 -43.531601916562394 -19.907999141815825 0 0 0 -1 I I #
edge $-1 $316 -19.907999141815825 $320 19.907999141815825 $314 $373 forward 7 unknown #
straight-curve $-1 0 -19.907999141815825 -9.8887473626547617 -1 0 0 I I #
vertex $-1 $227 $374 #
straight-curve $-1 0 19.907999141815825 -9.8887473626547617 1 0 0 I I #
point $-1 43.531601916562394 19.907999141815825 -9.8887473626547617 #
point $-1 43.531601916562394 -19.907999141815825 -9.8887473626547617 #
straight-curve $-1 -43.531601916562394 0 9.8887473626547617 0 -1 0 I I #
point $-1 -43.531601916562394 19.907999141815825 9.8887473626547617 #
point $-1 -43.531601916562394 -19.907999141815825 9.8887473626547617 #
straight-curve $-1 43.531601916562394 -19.907999141815825 0 0 0 -1 I I #
straight-curve $-1 43.531601916562394 19.907999141815825 0 0 0 -1 I I #
plane-surface $-1 0 -19.907999141815825 0 0 1 0 0 0 1 forward_v I I I I #
coedge $-1 $375 $247 $259 $341 reversed $160 $-1 #
coedge $-1 $247 $375 $262 $343 reversed $160 $-1 #
edge $-1 $376 -43.531601916562394 $256 -38.397734400919674 $252 $377 forward 7 unknown #
straight-curve $-1 -38.397734400919674 -7.4101059576649932 9.8887473626547617 0 1 0 I I #
coedge $-1 $259 $250 $253 $337 forward $245 $-1 #
straight-curve $-1 -38.397734400919674 -7.4101059576649932 -9.8887473626547617 0 -1 0 I I #
coedge $-1 $253 $252 $375 $378 forward $254 $-1 #
edge $-1 $255 38.397734400919674 $379 43.531601916562394 $253 $380 forward 7 unknown #
point $-1 -38.397734400919674 -19.907999141815825 -9.8887473626547617 #
point $-1 -38.397734400919674 -19.907999141815825 9.8887473626547617 #
straight-curve $-1 -43.531601916562394 -9.7324246888441479 0 0 0 -1 I I #
edge $-1 $379 -19.907999141815825 $260 -9.7324246888441479 $330 $381 forward 7 unknown #
point $-1 -43.531601916562394 -9.7324246888441479 -9.8887473626547617 #
edge $-1 $263 9.7324246888441479 $376 19.907999141815825 $331 $382 forward 7 unknown #
point $-1 -43.531601916562394 -9.7324246888441479 9.8887473626547617 #
coedge $-1 $346 $269 $352 $383 reversed $176 $-1 #
coedge $-1 $269 $345 $272 $350 forward $176 $-1 #
edge $-1 $348 -11.683881621754379 $277 -4.764353418368513 $276 $384 forward 7 unknown #
vertex $-1 $271 $385 #
straight-curve $-1 -0.64523145781612179 19.907999141815825 40.556969559978597 -0.74314481823134659 0 0.66913061440640931 I I #
edge $-1 $354 -9.8887473626547617 $273 -0.77996925917694504 $272 $386 forward 7 unknown #
point $-1 43.531601916562394 19.907999141815825 0.77996925917694504 #
coedge $-1 $276 $275 $345 $383 forward $267 $-1 #
point $-1 33.415279180344967 12.988470938429959 9.8887473626547617 #
vertex $-1 $280 $387 #
straight-curve $-1 43.531601916562394 0 9.8887473626547617 0 1 0 I I #
vertex $-1 $283 $388 #
point $-1 37.444911614291698 16.448235040122892 2.6975846977571565 #
edge $-1 $359 25.503027797853001 $362 31.302507758823218 $288 $389 forward 7 unknown #
vertex $-1 $302 $390 #
straight-curve $-1 -49.747375643976028 0.57915054660543763 9.8887473626547617 -1 0 0 I I #
edge $-1 $362 -2.0514086784998939 $299 4.9959249422888066 $298 $391 forward 7 unknown #
vertex $-1 $361 $392 #
straight-curve $-1 -43.531601916562387 0.57915054660543763 4.0892674016845518 0.76604443648966558 0 0.64278761758704617 I I #
point $-1 -36.620050982660167 0.57915054660543763 9.8887473626547617 #
point $-1 -43.531601916562394 -6.4681830741832629 4.0892674016845456 #
straight-curve $-1 -43.531601916562394 0 9.8887473626547617 0 -1 0 I I #
vertex $-1 $305 $393 #
point $-1 -36.890289951280941 -4.4546591825293493 4.748356703198402 #
vertex $-1 $309 $394 #
point $-1 -36.890289951280941 -1.4343733450484777 4.748356703198402 #
straight-curve $-1 -43.531601916562394 19.907999141815825 0 0 0 -1 I I #
point $-1 -43.531601916562394 -19.907999141815825 -9.8887473626547617 #
straight-curve $-1 -43.531601916562394 0 -9.8887473626547617 0 1 0 I I #
point $-1 -43.531601916562394 19.907999141815825 -9.8887473626547617 #
coedge $-1 $331 $330 $336 $378 reversed $160 $-1 #
vertex $-1 $343 $395 #
straight-curve $-1 0 -19.907999141815825 9.8887473626547617 1 0 0 I I #
edge $-1 $376 -9.8887473626547617 $379 9.8887473626547617 $375 $396 forward 7 unknown #
vertex $-1 $341 $397 #
straight-curve $-1 0 -19.907999141815825 -9.8887473626547617 -1 0 0 I I #
straight-curve $-1 -43.531601916562394 0 -9.8887473626547617 0 1 0 I I #
straight-curve $-1 -43.531601916562394 0 9.8887473626547617 0 -1 0 I I #
edge $-1 $354 -43.531601916562394 $348 -33.415279180344967 $345 $398 forward 7 unknown #
straight-curve $-1 33.415279180344982 8.224117520061446 9.8887473626547546 0 -1 0 I I #
point $-1 33.415279180344967 19.907999141815825 9.8887473626547617 #
straight-curve $-1 43.531601916562394 19.907999141815825 0 0 0 -1 I I #
point $-1 43.531601916562394 19.907999141815825 9.8887473626547617 #
point $-1 36.032636181653942 16.448235040122892 2.6235704939322182 #
straight-curve $-1 -43.531601916562394 0.57915054660543763 35.391775160507763 0 0 -1 I I #
point $-1 -43.531601916562394 0.57915054660543763 9.8887473626547617 #
straight-curve $-1 -43.531601916562394 -1.4722581318944563 4.0892674016845501 0 -1 0 I I #
point $-1 -43.531601916562394 0.57915054660543763 4.0892674016845456 #
point $-1 -37.013546770183559 -4.4546591825293493 3.3395246491216901 #
point $-1 -37.013546770183559 -1.4343733450484777 3.3395246491216901 #
point $-1 -43.531601916562394 -19.907999141815825 9.8887473626547617 #
straight-curve $-1 -43.531601916562394 -19.907999141815825 0 0 0 -1 I I #
point $-1 -43.531601916562394 -19.907999141815825 -9.8887473626547617 #
straight-curve $-1 0 19.907999141815825 9.8887473626547617 -1 0 0 I I #
End-of-ACIS-data 