500 0 10 0           
7 Unknown 11 ACIS 5.0 NT 24 Thu Mar 25 16:26:47 1999 
-1 9.9999999999999995e-007 1e-010 
body $-1 $10 $-1 $11 #
body $-1 $12 $-1 $13 #
body $-1 $14 $-1 $15 #
body $-1 $16 $-1 $17 #
body $-1 $18 $-1 $19 #
body $-1 $20 $-1 $21 #
body $-1 $22 $-1 $23 #
body $-1 $24 $-1 $25 #
body $-1 $26 $-1 $27 #
body $-1 $28 $-1 $29 #
lump $-1 $-1 $30 $0 #
transform $-1 1 0 0 0 1 0 0 0 1 57.72148808252205 31.565288267253518 8.9521843277561874 1 rotate no_reflect no_shear #
lump $-1 $-1 $31 $1 #
transform $-1 1 0 0 0 1 0 0 0 1 57.72148808252205 31.565288267253518 8.9521843277561874 1 rotate no_reflect no_shear #
lump $-1 $-1 $32 $2 #
transform $-1 1 0 0 0 1 0 0 0 1 57.72148808252205 31.565288267253518 8.9521843277561874 1 rotate no_reflect no_shear #
lump $-1 $-1 $33 $3 #
transform $-1 1 0 0 0 1 0 0 0 1 57.72148808252205 31.565288267253518 8.9521843277561874 1 rotate no_reflect no_shear #
lump $-1 $-1 $34 $4 #
transform $-1 1 0 0 0 1 0 0 0 1 57.72148808252205 31.565288267253518 8.9521843277561874 1 rotate no_reflect no_shear #
lump $-1 $-1 $35 $5 #
transform $-1 1 0 0 0 1 0 0 0 1 57.72148808252205 31.565288267253518 8.9521843277561874 1 rotate no_reflect no_shear #
lump $-1 $-1 $36 $6 #
transform $-1 1 0 0 0 1 0 0 0 1 57.72148808252205 31.565288267253518 8.9521843277561874 1 rotate no_reflect no_shear #
lump $-1 $-1 $37 $7 #
transform $-1 1 0 0 0 1 0 0 0 1 57.72148808252205 31.565288267253518 8.9521843277561874 1 rotate no_reflect no_shear #
lump $-1 $-1 $38 $8 #
transform $-1 1 0 0 0 1 0 0 0 1 57.72148808252205 31.565288267253518 8.9521843277561874 1 rotate no_reflect no_shear #
lump $-1 $-1 $39 $9 #
transform $-1 1 0 0 0 1 0 0 0 1 57.72148808252205 31.565288267253518 8.9521843277561874 1 rotate no_reflect no_shear #
shell $-1 $-1 $-1 $40 $-1 $10 #
shell $-1 $-1 $-1 $41 $-1 $12 #
shell $-1 $-1 $-1 $42 $-1 $14 #
shell $-1 $-1 $-1 $43 $-1 $16 #
shell $-1 $-1 $-1 $44 $-1 $18 #
shell $-1 $-1 $-1 $45 $-1 $20 #
shell $-1 $-1 $-1 $46 $-1 $22 #
shell $-1 $-1 $-1 $47 $-1 $24 #
shell $-1 $-1 $-1 $48 $-1 $26 #
shell $-1 $-1 $-1 $49 $-1 $28 #
face $-1 $50 $51 $30 $-1 $52 forward single #
face $-1 $53 $54 $31 $-1 $55 forward single #
face $-1 $56 $57 $32 $-1 $58 forward single #
face $-1 $59 $60 $33 $-1 $61 reversed single #
face $-1 $62 $63 $34 $-1 $64 forward single #
face $-1 $65 $66 $35 $-1 $67 forward single #
face $-1 $68 $69 $36 $-1 $70 reversed single #
face $-1 $71 $72 $37 $-1 $73 forward single #
face $-1 $74 $75 $38 $-1 $76 forward single #
face $-1 $77 $78 $39 $-1 $79 forward single #
face $-1 $80 $81 $30 $-1 $82 reversed single #
loop $-1 $-1 $83 $40 #
plane-surface $-1 0 0 8.9521843277561874 0 0 1 1 0 0 forward_v I I I I #
face $-1 $84 $85 $31 $-1 $86 reversed single #
loop $-1 $-1 $87 $41 #
plane-surface $-1 0 -28.385220606166346 -5.5665445491246306 0 0 1 1 0 0 forward_v I I I I #
face $-1 $88 $89 $32 $-1 $90 reversed single #
loop $-1 $-1 $91 $42 #
plane-surface $-1 0 31.565288267253518 0 0 -1 0 0 0 -1 forward_v I I I I #
face $-1 $92 $93 $33 $-1 $94 reversed single #
loop $-1 $-1 $95 $43 #
plane-surface $-1 15.466427337434205 21.14910611084834 158.96923770985501 0 -1 0 -0.50000000669873634 0 -0.8660253999169214 forward_v I I I I #
face $-1 $96 $97 $34 $-1 $98 forward single #
loop $-1 $99 $100 $44 #
cone-surface $-1 50.037214181526103 11.434243719761671 3.3236164127623202 -0.50000000669873634 0 -0.8660253999169214 1.2990380998753821 0 -0.75000001004810457 1 I I 0 1 1.5 forward I I I I #
face $-1 $101 $102 $35 $-1 $103 forward single #
loop $-1 $104 $105 $45 #
cone-surface $-1 50.037214181526103 17.263161154413677 3.3236164127623202 -0.50000000669873634 0 -0.8660253999169214 1.2990380998753821 0 -0.75000001004810457 1 I I 0 1 1.5 forward I I I I #
face $-1 $106 $107 $36 $-1 $108 reversed single #
loop $-1 $-1 $109 $46 #
plane-surface $-1 -149.91834918286551 -25.205152945079174 73.029333459499327 0 1 0 -0.79863551827123203 0 0.60181501223851219 forward_v I I I I #
face $-1 $110 $111 $37 $-1 $112 forward single #
loop $-1 $113 $114 $47 #
cone-surface $-1 -55.173766046204499 -22.732649285215739 5.8659121186961052 0.79863551827123203 0 -0.60181501223851219 0.3009075061192561 0 0.39931775913561601 1 I I 0 1 0.5 forward I I I I #
face $-1 $115 $116 $38 $-1 $117 forward single #
loop $-1 $118 $119 $48 #
cone-surface $-1 -55.173766046204499 -19.023893795420587 5.8659121186961052 0.79863551827123203 0 -0.60181501223851219 0.3009075061192561 0 0.39931775913561601 1 I I 0 1 0.5 forward I I I I #
face $-1 $120 $121 $39 $-1 $122 forward single #
loop $-1 $123 $124 $49 #
cone-surface $-1 -55.173766046204499 -15.315138305625435 5.8659121186961052 0.79863551827123203 0 -0.60181501223851219 0.3009075061192561 0 0.39931775913561601 1 I I 0 1 0.5 forward I I I I #
face $-1 $125 $126 $30 $-1 $127 reversed single #
loop $-1 $-1 $128 $50 #
plane-surface $-1 0 0 -8.9521843277561874 0 0 1 1 0 0 forward_v I I I I #
coedge $-1 $129 $130 $131 $132 forward $51 $-1 #
face $-1 $133 $134 $31 $-1 $135 reversed single #
loop $-1 $-1 $136 $53 #
plane-surface $-1 0 -25.205152945079174 -7.259364438440409 0 -1 0 0 0 -1 forward_v I I I I #
coedge $-1 $137 $138 $139 $140 reversed $54 $-1 #
face $-1 $141 $142 $32 $-1 $143 reversed single #
loop $-1 $-1 $144 $56 #
plane-surface $-1 0 0 -8.9521843277561874 0 0 1 1 0 0 forward_v I I I I #
coedge $-1 $145 $146 $147 $148 forward $57 $-1 #
face $-1 $149 $150 $33 $-1 $151 reversed single #
loop $-1 $-1 $152 $59 #
plane-surface $-1 -42.255061518409903 14.34870243708767 58.992688108923062 0.50000000669873634 0 0.8660253999169214 0.8660253999169214 0 -0.50000000669873634 forward_v I I I I #
coedge $-1 $153 $154 $155 $156 reversed $60 $-1 #
face $-1 $-1 $157 $34 $-1 $158 forward single #
loop $-1 $159 $160 $62 #
cone-surface $-1 48.629868357440351 11.434243719761671 0.8860219851693838 -0.50000000669873634 0 -0.8660253999169214 0.64951904993769105 0 -0.37500000502405229 1 I I -0.70710678118654757 0.70710678118654757 0.75 forward I I I I #
loop $-1 $-1 $161 $44 #
coedge $-1 $100 $100 $162 $163 reversed $63 $-1 #
face $-1 $-1 $164 $35 $-1 $165 forward single #
loop $-1 $166 $167 $65 #
cone-surface $-1 48.629868357440351 17.263161154413677 0.8860219851693838 -0.50000000669873634 0 -0.8660253999169214 0.64951904993769105 0 -0.37500000502405229 1 I I -0.70710678118654757 0.70710678118654757 0.75 forward I I I I #
loop $-1 $-1 $168 $45 #
coedge $-1 $105 $105 $169 $170 reversed $66 $-1 #
face $-1 $171 $172 $36 $-1 $173 reversed single #
loop $-1 $-1 $174 $68 #
plane-surface $-1 -57.721488082522029 -19.023893795420587 3.5540173458830395 -0.79863551827123203 0 0.60181501223851219 0.60181501223851219 0 0.79863551827123203 forward_v I I I I #
coedge $-1 $175 $176 $177 $178 reversed $69 $-1 #
face $-1 $-1 $179 $37 $-1 $180 forward single #
loop $-1 $181 $182 $71 #
cone-surface $-1 -54.460290368652274 -22.732649285215739 5.3282696475129647 0.79863551827123203 0 -0.60181501223851219 0.15045375305962805 0 0.19965887956780801 1 I I -0.70710678118654746 0.70710678118654746 0.25 forward I I I I #
loop $-1 $-1 $183 $47 #
coedge $-1 $114 $114 $184 $185 reversed $72 $-1 #
face $-1 $-1 $186 $38 $-1 $187 forward single #
loop $-1 $188 $189 $74 #
cone-surface $-1 -54.460290368652274 -19.023893795420587 5.3282696475129647 0.79863551827123203 0 -0.60181501223851219 0.15045375305962805 0 0.19965887956780801 1 I I -0.70710678118654746 0.70710678118654746 0.25 forward I I I I #
loop $-1 $-1 $190 $48 #
coedge $-1 $119 $119 $191 $192 reversed $75 $-1 #
face $-1 $-1 $193 $39 $-1 $194 forward single #
loop $-1 $195 $196 $77 #
cone-surface $-1 -54.460290368652274 -15.315138305625435 5.3282696475129647 0.79863551827123203 0 -0.60181501223851219 0.15045375305962805 0 0.19965887956780801 1 I I -0.70710678118654746 0.70710678118654746 0.25 forward I I I I #
loop $-1 $-1 $197 $49 #
coedge $-1 $124 $124 $198 $199 reversed $78 $-1 #
face $-1 $200 $201 $30 $-1 $202 reversed single #
loop $-1 $-1 $203 $80 #
plane-surface $-1 0 -31.565288267253518 0 0 1 0 0 0 1 forward_v I I I I #
coedge $-1 $204 $205 $206 $207 forward $81 $-1 #
coedge $-1 $208 $83 $209 $210 forward $51 $-1 #
coedge $-1 $83 $208 $211 $212 forward $51 $-1 #
coedge $-1 $213 $214 $83 $132 reversed $215 $-1 #
edge $-1 $216 -31.565288267253518 $217 31.565288267253518 $131 $218 forward 7 unknown #
face $-1 $219 $220 $31 $-1 $221 reversed single #
loop $-1 $-1 $222 $84 #
plane-surface $-1 0 0 -8.9521843277561874 0 0 1 1 0 0 forward_v I I I I #
coedge $-1 $223 $224 $225 $226 reversed $85 $-1 #
coedge $-1 $227 $87 $224 $228 forward $54 $-1 #
coedge $-1 $87 $227 $229 $230 reversed $54 $-1 #
coedge $-1 $231 $225 $87 $140 forward $220 $-1 #
edge $-1 $232 11.012542641996001 $233 17.372677964170343 $139 $234 forward 7 unknown #
face $-1 $235 $236 $32 $-1 $237 reversed single #
loop $-1 $-1 $238 $88 #
plane-surface $-1 -46.633842269760137 36.773379345456107 0 1 0 0 0 0 -1 forward_v I I I I #
coedge $-1 $239 $240 $146 $241 forward $89 $-1 #
coedge $-1 $242 $91 $243 $244 reversed $57 $-1 #
coedge $-1 $91 $242 $144 $241 reversed $57 $-1 #
coedge $-1 $245 $246 $91 $148 reversed $247 $-1 #
edge $-1 $248 -8.9521843277561874 $249 8.9521843277561874 $147 $250 forward 7 unknown #
face $-1 $251 $252 $33 $-1 $253 reversed single #
loop $-1 $-1 $254 $92 #
plane-surface $-1 15.466427337434205 7.5482987633270007 158.96923770985501 0 1 0 0.50000000669873634 0 0.8660253999169214 forward_v I I I I #
coedge $-1 $255 $256 $257 $258 reversed $93 $-1 #
coedge $-1 $154 $95 $259 $260 reversed $60 $-1 #
coedge $-1 $95 $153 $255 $261 reversed $60 $-1 #
coedge $-1 $257 $262 $95 $156 forward $263 $-1 #
edge $-1 $264 -49.988274413804945 $265 -36.684418249936471 $155 $266 forward 7 unknown #
loop $-1 $-1 $162 $96 #
plane-surface $-1 -42.255061518409903 14.34870243708767 58.992688108923062 0.50000000669873634 0 0.8660253999169214 0.8660253999169214 0 -0.50000000669873634 forward_v I I I I #
loop $-1 $-1 $267 $62 #
coedge $-1 $160 $160 $161 $268 reversed $97 $-1 #
coedge $-1 $161 $161 $160 $268 forward $99 $-1 #
coedge $-1 $162 $162 $100 $163 forward $157 $-1 #
edge $-1 $269 0 $269 6.2831853071796004 $162 $270 forward 7 unknown #
loop $-1 $-1 $169 $101 #
plane-surface $-1 -42.255061518409903 14.34870243708767 58.992688108923062 0.50000000669873634 0 0.8660253999169214 0.8660253999169214 0 -0.50000000669873634 forward_v I I I I #
loop $-1 $-1 $271 $65 #
coedge $-1 $167 $167 $168 $272 reversed $102 $-1 #
coedge $-1 $168 $168 $167 $272 forward $104 $-1 #
coedge $-1 $169 $169 $105 $170 forward $164 $-1 #
edge $-1 $273 0 $273 6.2831853071796004 $169 $274 forward 7 unknown #
face $-1 $275 $276 $36 $-1 $277 forward single #
loop $-1 $-1 $278 $106 #
plane-surface $-1 -149.91834918286551 -12.842634645762001 73.029333459499327 0 -1 0 0.79863551827123203 0 -0.60181501223851219 forward_v I I I I #
coedge $-1 $279 $280 $281 $282 reversed $107 $-1 #
coedge $-1 $176 $109 $283 $284 reversed $69 $-1 #
coedge $-1 $109 $175 $279 $285 reversed $69 $-1 #
coedge $-1 $281 $286 $109 $178 forward $276 $-1 #
edge $-1 $287 17.237686508910706 $288 21.305496985577008 $177 $289 forward 7 unknown #
loop $-1 $-1 $184 $110 #
plane-surface $-1 -57.721488082522029 -19.023893795420587 3.5540173458830395 -0.79863551827123203 0 0.60181501223851219 0.60181501223851219 0 0.79863551827123203 forward_v I I I I #
loop $-1 $-1 $290 $71 #
coedge $-1 $182 $182 $183 $291 reversed $111 $-1 #
coedge $-1 $183 $183 $182 $291 forward $113 $-1 #
coedge $-1 $184 $184 $114 $185 forward $179 $-1 #
edge $-1 $292 0 $292 6.2831853071796004 $184 $293 forward 7 unknown #
loop $-1 $-1 $191 $115 #
plane-surface $-1 -57.721488082522029 -19.023893795420587 3.5540173458830395 -0.79863551827123203 0 0.60181501223851219 0.60181501223851219 0 0.79863551827123203 forward_v I I I I #
loop $-1 $-1 $294 $74 #
coedge $-1 $189 $189 $190 $295 reversed $116 $-1 #
coedge $-1 $190 $190 $189 $295 forward $118 $-1 #
coedge $-1 $191 $191 $119 $192 forward $186 $-1 #
edge $-1 $296 0 $296 6.2831853071796004 $191 $297 forward 7 unknown #
loop $-1 $-1 $198 $120 #
plane-surface $-1 -57.721488082522029 -19.023893795420587 3.5540173458830395 -0.79863551827123203 0 0.60181501223851219 0.60181501223851219 0 0.79863551827123203 forward_v I I I I #
loop $-1 $-1 $298 $77 #
coedge $-1 $196 $196 $197 $299 reversed $121 $-1 #
coedge $-1 $197 $197 $196 $299 forward $123 $-1 #
coedge $-1 $198 $198 $124 $199 forward $193 $-1 #
edge $-1 $300 0 $300 6.2831853071796004 $198 $301 forward 7 unknown #
face $-1 $302 $303 $30 $-1 $304 reversed single #
loop $-1 $-1 $305 $125 #
plane-surface $-1 -57.72148808252205 0 0 1 0 0 0 0 -1 forward_v I I I I #
coedge $-1 $306 $211 $307 $308 forward $126 $-1 #
coedge $-1 $309 $128 $306 $310 forward $81 $-1 #
coedge $-1 $128 $309 $311 $312 forward $81 $-1 #
coedge $-1 $214 $213 $128 $207 reversed $215 $-1 #
edge $-1 $313 -31.565288267253518 $314 31.565288267253518 $206 $315 forward 7 unknown #
coedge $-1 $130 $129 $316 $317 forward $51 $-1 #
coedge $-1 $318 $319 $129 $210 reversed $303 $-1 #
edge $-1 $217 -57.72148808252205 $320 57.72148808252205 $209 $321 forward 7 unknown #
coedge $-1 $203 $322 $130 $212 reversed $126 $-1 #
edge $-1 $323 -57.72148808252205 $216 57.72148808252205 $211 $324 forward 7 unknown #
coedge $-1 $206 $131 $322 $325 forward $215 $-1 #
coedge $-1 $131 $206 $318 $326 reversed $215 $-1 #
loop $-1 $-1 $213 $302 #
vertex $-1 $132 $327 #
vertex $-1 $132 $328 #
straight-curve $-1 57.72148808252205 0 8.9521843277561874 0 1 0 I I #
face $-1 $329 $330 $31 $-1 $331 reversed single #
loop $-1 $-1 $225 $133 #
plane-surface $-1 57.72148808252205 0 0 -1 0 0 0 0 1 forward_v I I I I #
coedge $-1 $332 $333 $223 $334 forward $134 $-1 #
coedge $-1 $335 $136 $222 $334 reversed $85 $-1 #
coedge $-1 $136 $335 $137 $228 reversed $85 $-1 #
coedge $-1 $139 $336 $136 $226 forward $220 $-1 #
edge $-1 $337 -5.3225021085359829 $232 -1.9368623299044261 $225 $338 forward 7 unknown #
coedge $-1 $138 $137 $339 $340 reversed $54 $-1 #
edge $-1 $232 -57.72148808252205 $341 57.72148808252205 $224 $342 forward 7 unknown #
coedge $-1 $343 $344 $138 $230 forward $330 $-1 #
edge $-1 $233 -57.72148808252205 $345 57.72148808252205 $229 $346 forward 7 unknown #
coedge $-1 $336 $139 $344 $347 forward $220 $-1 #
vertex $-1 $140 $348 #
vertex $-1 $347 $349 #
straight-curve $-1 57.72148808252205 -14.192610303083173 -5.5665445491246306 0 -1 0 I I #
face $-1 $350 $247 $32 $-1 $351 reversed single #
loop $-1 $-1 $352 $141 #
plane-surface $-1 -45.133842269760137 41.981470423658692 0 0 -1 0 0 0 -1 forward_v I I I I #
coedge $-1 $353 $354 $355 $356 forward $142 $-1 #
coedge $-1 $357 $144 $353 $358 forward $89 $-1 #
coedge $-1 $144 $357 $245 $359 forward $89 $-1 #
edge $-1 $248 43.633842269760137 $360 46.633842269760137 $144 $361 forward 7 unknown #
coedge $-1 $146 $145 $362 $363 forward $57 $-1 #
coedge $-1 $364 $365 $145 $244 forward $366 $-1 #
edge $-1 $367 -46.633842269760137 $249 -43.633842269760137 $243 $368 forward 7 unknown #
coedge $-1 $369 $147 $240 $359 reversed $247 $-1 #
coedge $-1 $147 $369 $364 $370 reversed $247 $-1 #
loop $-1 $-1 $147 $235 #
vertex $-1 $241 $371 #
vertex $-1 $370 $372 #
straight-curve $-1 -43.633842269760137 31.565288267253518 0 0 0 1 I I #
face $-1 $-1 $263 $33 $-1 $373 forward single #
loop $-1 $-1 $374 $149 #
plane-surface $-1 57.72148808252205 0 0 -1 0 0 0 0 1 forward_v I I I I #
coedge $-1 $375 $376 $377 $378 reversed $150 $-1 #
coedge $-1 $379 $152 $154 $261 forward $93 $-1 #
coedge $-1 $152 $379 $375 $380 forward $93 $-1 #
coedge $-1 $377 $155 $152 $258 forward $263 $-1 #
edge $-1 $265 -13.974754892304505 $381 -0.3739475447831655 $257 $382 forward 7 unknown #
coedge $-1 $383 $384 $153 $260 forward $252 $-1 #
edge $-1 $385 -78.213419601848557 $264 -70.532434527171318 $259 $386 forward 7 unknown #
edge $-1 $265 100.0810062215012 $385 115.4429761650441 $154 $387 forward 7 unknown #
coedge $-1 $155 $377 $383 $388 forward $263 $-1 #
loop $-1 $-1 $377 $251 #
vertex $-1 $260 $389 #
vertex $-1 $156 $390 #
straight-curve $-1 7.7332136687171023 21.14910611084834 8.9521843277561857 -1 0 0 I I #
coedge $-1 $267 $267 $-1 $391 reversed $159 $-1 #
edge $-1 $392 0 $392 6.2831853071796004 $160 $393 forward 7 unknown #
vertex $-1 $163 $394 #
ellipse-curve $-1 51.069560000587806 11.434243719761671 5.1116917904175763 0.50000000669873634 0 0.8660253999169214 1.2990380998753821 0 -0.75000001004810457 1 I I #
coedge $-1 $271 $271 $-1 $395 reversed $166 $-1 #
edge $-1 $396 0 $396 6.2831853071796004 $167 $397 forward 7 unknown #
vertex $-1 $170 $398 #
ellipse-curve $-1 51.069560000587806 17.263161154413677 5.1116917904175763 0.50000000669873634 0 0.8660253999169214 1.2990380998753821 0 -0.75000001004810457 1 I I #
face $-1 $-1 $399 $36 $-1 $400 reversed single #
loop $-1 $-1 $177 $171 #
plane-surface $-1 0 0 8.9521843277561874 0 0 1 1 0 0 forward_v I I I I #
coedge $-1 $401 $402 $403 $404 reversed $172 $-1 #
coedge $-1 $405 $174 $176 $285 forward $107 $-1 #
coedge $-1 $174 $405 $401 $406 forward $107 $-1 #
coedge $-1 $403 $177 $174 $282 forward $276 $-1 #
edge $-1 $288 -15.69320604736888 $407 -3.330687748051707 $281 $408 forward 7 unknown #
coedge $-1 $409 $410 $175 $284 forward $399 $-1 #
edge $-1 $411 -32.960649383866652 $287 -27.562482401993478 $283 $412 forward 7 unknown #
edge $-1 $288 -6.7592372970817802 $411 3.5527045197628586e-014 $176 $413 forward 7 unknown #
coedge $-1 $177 $403 $409 $414 forward $276 $-1 #
vertex $-1 $284 $415 #
vertex $-1 $178 $416 #
straight-curve $-1 -74.959174591432756 -25.205152945079174 8.9521843277561857 1 0 0 I I #
coedge $-1 $290 $290 $-1 $417 reversed $181 $-1 #
edge $-1 $418 0 $418 6.2831853071796004 $182 $419 forward 7 unknown #
vertex $-1 $185 $420 #
ellipse-curve $-1 -55.687582844188896 -22.732649285215739 6.2531008368196037 -0.79863551827123203 0 0.60181501223851219 0.3009075061192561 0 0.39931775913561601 1 I I #
coedge $-1 $294 $294 $-1 $421 reversed $188 $-1 #
edge $-1 $422 0 $422 6.2831853071796004 $189 $423 forward 7 unknown #
vertex $-1 $192 $424 #
ellipse-curve $-1 -55.687582844188896 -19.023893795420587 6.2531008368196037 -0.79863551827123203 0 0.60181501223851219 0.3009075061192561 0 0.39931775913561601 1 I I #
coedge $-1 $298 $298 $-1 $425 reversed $195 $-1 #
edge $-1 $426 0 $426 6.2831853071796004 $196 $427 forward 7 unknown #
vertex $-1 $199 $428 #
ellipse-curve $-1 -55.687582844188896 -15.315138305625435 6.2531008368196037 -0.79863551827123203 0 0.60181501223851219 0.3009075061192561 0 0.39931775913561601 1 I I #
face $-1 $-1 $215 $30 $-1 $429 reversed single #
loop $-1 $-1 $318 $200 #
plane-surface $-1 0 31.565288267253518 0 0 -1 0 0 0 -1 forward_v I I I I #
coedge $-1 $430 $316 $319 $431 forward $201 $-1 #
coedge $-1 $322 $203 $204 $310 reversed $126 $-1 #
coedge $-1 $316 $430 $203 $308 reversed $201 $-1 #
edge $-1 $323 -8.9521843277561874 $432 8.9521843277561874 $307 $433 forward 7 unknown #
coedge $-1 $205 $204 $430 $434 forward $81 $-1 #
edge $-1 $314 -57.72148808252205 $432 57.72148808252205 $306 $435 forward 7 unknown #
coedge $-1 $319 $318 $205 $312 reversed $303 $-1 #
edge $-1 $436 -57.72148808252205 $313 57.72148808252205 $311 $437 forward 7 unknown #
vertex $-1 $207 $438 #
vertex $-1 $325 $439 #
straight-curve $-1 57.72148808252205 0 -8.9521843277561874 0 -1 0 I I #
coedge $-1 $305 $307 $208 $317 reversed $201 $-1 #
edge $-1 $320 -31.565288267253518 $323 31.565288267253518 $316 $440 forward 7 unknown #
coedge $-1 $311 $209 $214 $326 forward $303 $-1 #
coedge $-1 $209 $311 $305 $431 reversed $303 $-1 #
vertex $-1 $210 $441 #
straight-curve $-1 0 31.565288267253518 8.9521843277561874 -1 0 0 I I #
coedge $-1 $211 $306 $213 $325 reversed $126 $-1 #
vertex $-1 $317 $442 #
straight-curve $-1 0 -31.565288267253518 8.9521843277561874 1 0 0 I I #
edge $-1 $216 -8.9521843277561874 $314 8.9521843277561874 $213 $443 forward 7 unknown #
edge $-1 $217 -8.9521843277561874 $313 8.9521843277561874 $214 $444 forward 7 unknown #
point $-1 57.72148808252205 -31.565288267253518 8.9521843277561874 #
point $-1 57.72148808252205 31.565288267253518 8.9521843277561874 #
face $-1 $-1 $445 $31 $-1 $446 reversed single #
loop $-1 $-1 $229 $219 #
plane-surface $-1 0 -31.565288267253518 0 0 1 0 0 0 1 forward_v I I I I #
coedge $-1 $447 $222 $336 $448 forward $134 $-1 #
coedge $-1 $222 $447 $449 $450 forward $134 $-1 #
edge $-1 $451 -57.72148808252205 $337 57.72148808252205 $222 $452 forward 7 unknown #
coedge $-1 $224 $223 $453 $454 reversed $85 $-1 #
coedge $-1 $225 $231 $332 $448 reversed $220 $-1 #
vertex $-1 $448 $455 #
straight-curve $-1 57.72148808252205 -25.205152945079174 -3.6296822192202045 0 0 1 I I #
coedge $-1 $453 $456 $227 $340 forward $445 $-1 #
edge $-1 $345 -17.372677964170343 $341 -11.012542641996001 $339 $457 forward 7 unknown #
vertex $-1 $340 $458 #
straight-curve $-1 0 -25.205152945079174 -5.5665445491246306 -1 0 0 I I #
coedge $-1 $459 $229 $456 $460 forward $330 $-1 #
coedge $-1 $229 $459 $231 $347 reversed $330 $-1 #
vertex $-1 $460 $461 #
straight-curve $-1 0 -31.565288267253518 -5.5665445491246306 -1 0 0 I I #
edge $-1 $233 5.5665445491246306 $462 8.9521843277561874 $231 $463 forward 7 unknown #
point $-1 57.72148808252205 -25.205152945079174 -5.5665445491246306 #
point $-1 57.72148808252205 -31.565288267253518 -5.5665445491246306 #
face $-1 $-1 $366 $32 $-1 $464 forward single #
plane-surface $-1 -43.633842269760137 36.773379345456107 0 -1 0 0 0 0 1 forward_v I I I I #
coedge $-1 $465 $466 $369 $467 forward $236 $-1 #
coedge $-1 $362 $238 $239 $358 reversed $142 $-1 #
coedge $-1 $238 $362 $365 $468 reversed $142 $-1 #
coedge $-1 $466 $465 $238 $356 reversed $236 $-1 #
edge $-1 $469 -8.9521843277561874 $470 8.9521843277561874 $355 $471 forward 7 unknown #
coedge $-1 $240 $239 $465 $472 forward $89 $-1 #
edge $-1 $360 -5.2080910782025889 $470 5.2080910782025853 $353 $473 forward 7 unknown #
edge $-1 $474 -5.2080910782025853 $248 5.2080910782025889 $245 $475 forward 7 unknown #
vertex $-1 $358 $476 #
straight-curve $-1 0 31.565288267253518 -8.9521843277561874 -1 0 0 I I #
coedge $-1 $354 $353 $242 $363 reversed $142 $-1 #
edge $-1 $367 -8.9521843277561874 $360 8.9521843277561874 $362 $477 forward 7 unknown #
coedge $-1 $478 $243 $246 $370 forward $366 $-1 #
coedge $-1 $243 $478 $354 $468 forward $366 $-1 #
loop $-1 $-1 $243 $350 #
vertex $-1 $244 $479 #
straight-curve $-1 0 31.565288267253518 8.9521843277561874 1 0 0 I I #
coedge $-1 $246 $245 $352 $467 reversed $247 $-1 #
edge $-1 $249 -5.2080910782025889 $480 5.2080910782025853 $246 $481 forward 7 unknown #
point $-1 -43.633842269760137 31.565288267253518 -8.9521843277561874 #
point $-1 -43.633842269760137 31.565288267253518 8.9521843277561874 #
plane-surface $-1 0 0 8.9521843277561874 0 0 1 1 0 0 forward_v I I I I #
coedge $-1 $384 $383 $376 $482 forward $252 $-1 #
coedge $-1 $376 $254 $256 $380 reversed $150 $-1 #
coedge $-1 $254 $375 $374 $482 reversed $150 $-1 #
coedge $-1 $262 $257 $254 $378 forward $263 $-1 #
edge $-1 $381 36.684418249936471 $483 49.988274413804945 $377 $484 forward 7 unknown #
coedge $-1 $256 $255 $384 $485 reversed $93 $-1 #
edge $-1 $486 -115.4429761650441 $381 -100.0810062215012 $375 $487 forward 7 unknown #
vertex $-1 $258 $488 #
straight-curve $-1 44.417631918653569 7.1743512185438352 8.9521843277561928 0 -1 0 I I #
coedge $-1 $374 $259 $262 $388 reversed $252 $-1 #
coedge $-1 $259 $374 $379 $485 forward $252 $-1 #
vertex $-1 $260 $489 #
straight-curve $-1 57.72148808252205 21.14910611084834 79.484618854927504 0 0 1 I I #
straight-curve $-1 -42.255061518409903 21.14910611084834 58.992688108923062 0.8660253999169214 0 -0.50000000669873634 I I #
edge $-1 $483 7.5482987633270007 $264 21.14910611084834 $383 $490 forward 7 unknown #
point $-1 57.72148808252205 21.14910611084834 8.9521843277561874 #
point $-1 44.417631918653569 21.14910611084834 8.9521843277561857 #
edge $-1 $491 1 $491 0 $267 $-1 forward 7 unknown #
vertex $-1 $268 $492 #
ellipse-curve $-1 49.004868362464407 11.434243719761671 1.5355410351070748 0.50000000669873634 0 0.8660253999169214 1.2990380998753821 0 -0.75000001004810457 1 I I #
point $-1 52.368598100463181 11.434243719761671 4.361691780369461 #
edge $-1 $493 1 $493 0 $271 $-1 forward 7 unknown #
vertex $-1 $272 $494 #
ellipse-curve $-1 49.004868362464407 17.263161154413677 1.5355410351070748 0.50000000669873634 0 0.8660253999169214 1.2990380998753821 0 -0.75000001004810457 1 I I #
point $-1 52.368598100463181 17.263161154413677 4.361691780369461 #
loop $-1 $-1 $283 $275 #
plane-surface $-1 -57.72148808252205 0 0 1 0 0 0 0 -1 forward_v I I I I #
coedge $-1 $402 $278 $280 $406 reversed $172 $-1 #
coedge $-1 $278 $401 $495 $496 reversed $172 $-1 #
coedge $-1 $286 $281 $278 $404 forward $276 $-1 #
edge $-1 $407 -21.305496985577008 $497 -17.237686508910706 $403 $498 forward 7 unknown #
coedge $-1 $280 $279 $410 $499 reversed $107 $-1 #
edge $-1 $500 -3.5527045197628586e-014 $407 6.7592372970817802 $401 $501 forward 7 unknown #
vertex $-1 $282 $502 #
straight-curve $-1 -53.653677605855748 -9.5119468977102937 8.9521843277561874 0 1 0 I I #
coedge $-1 $495 $283 $286 $414 reversed $399 $-1 #
coedge $-1 $283 $495 $405 $499 forward $399 $-1 #
vertex $-1 $284 $503 #
straight-curve $-1 -57.72148808252205 -25.205152945079174 36.514666729749663 0 0 1 I I #
straight-curve $-1 -57.721488082522029 -25.205152945079174 3.5540173458830395 -0.60181501223851219 0 -0.79863551827123203 I I #
edge $-1 $497 12.842634645762001 $287 25.205152945079174 $409 $504 forward 7 unknown #
point $-1 -57.72148808252205 -25.205152945079174 8.9521843277561874 #
point $-1 -53.653677605855748 -25.205152945079174 8.9521843277561874 #
edge $-1 $505 1 $505 0 $290 $-1 forward 7 unknown #
vertex $-1 $291 $506 #
ellipse-curve $-1 -54.65994924822008 -22.732649285215739 5.4787234005725924 -0.79863551827123203 0 0.60181501223851219 0.3009075061192561 0 0.39931775913561601 1 I I #
point $-1 -55.386675338069658 -22.732649285215739 6.6524185959552335 #
edge $-1 $507 1 $507 0 $294 $-1 forward 7 unknown #
vertex $-1 $295 $508 #
ellipse-curve $-1 -54.65994924822008 -19.023893795420587 5.4787234005725924 -0.79863551827123203 0 0.60181501223851219 0.3009075061192561 0 0.39931775913561601 1 I I #
point $-1 -55.386675338069658 -19.023893795420587 6.6524185959552335 #
edge $-1 $509 1 $509 0 $298 $-1 forward 7 unknown #
vertex $-1 $299 $510 #
ellipse-curve $-1 -54.65994924822008 -15.315138305625435 5.4787234005725924 -0.79863551827123203 0 0.60181501223851219 0.3009075061192561 0 0.39931775913561601 1 I I #
point $-1 -55.386675338069658 -15.315138305625435 6.6524185959552335 #
plane-surface $-1 57.72148808252205 0 0 -1 0 0 0 0 1 forward_v I I I I #
coedge $-1 $307 $305 $309 $434 reversed $201 $-1 #
edge $-1 $320 -8.9521843277561874 $436 8.9521843277561874 $319 $511 forward 7 unknown #
vertex $-1 $434 $512 #
straight-curve $-1 -57.72148808252205 -31.565288267253518 0 0 0 -1 I I #
edge $-1 $432 -31.565288267253518 $436 31.565288267253518 $430 $513 forward 7 unknown #
straight-curve $-1 0 -31.565288267253518 -8.9521843277561874 -1 0 0 I I #
vertex $-1 $312 $514 #
straight-curve $-1 0 31.565288267253518 -8.9521843277561874 1 0 0 I I #
point $-1 57.72148808252205 31.565288267253518 -8.9521843277561874 #
point $-1 57.72148808252205 -31.565288267253518 -8.9521843277561874 #
straight-curve $-1 -57.72148808252205 0 8.9521843277561874 0 -1 0 I I #
point $-1 -57.72148808252205 31.565288267253518 8.9521843277561874 #
point $-1 -57.72148808252205 -31.565288267253518 8.9521843277561874 #
straight-curve $-1 57.72148808252205 -31.565288267253518 0 0 0 -1 I I #
straight-curve $-1 57.72148808252205 31.565288267253518 0 0 0 -1 I I #
loop $-1 $-1 $453 $329 #
plane-surface $-1 -57.72148808252205 0 0 1 0 0 0 0 -1 forward_v I I I I #
coedge $-1 $333 $332 $459 $515 forward $134 $-1 #
edge $-1 $337 25.205152945079174 $462 31.565288267253518 $336 $516 forward 7 unknown #
coedge $-1 $456 $453 $333 $450 reversed $445 $-1 #
edge $-1 $517 -31.565288267253518 $451 -25.205152945079174 $449 $518 forward 7 unknown #
vertex $-1 $454 $519 #
straight-curve $-1 0 -25.205152945079174 -8.9521843277561874 1 0 0 I I #
coedge $-1 $449 $339 $335 $454 forward $445 $-1 #
edge $-1 $341 1.9368623299044261 $451 5.3225021085359829 $453 $520 forward 7 unknown #
point $-1 57.72148808252205 -25.205152945079174 -8.9521843277561874 #
coedge $-1 $339 $449 $343 $460 reversed $445 $-1 #
straight-curve $-1 -57.72148808252205 -14.192610303083173 -5.5665445491246306 0 1 0 I I #
point $-1 -57.72148808252205 -25.205152945079174 -5.5665445491246306 #
coedge $-1 $344 $343 $447 $515 reversed $330 $-1 #
edge $-1 $345 5.5665445491246306 $517 8.9521843277561874 $456 $521 forward 7 unknown #
point $-1 -57.72148808252205 -31.565288267253518 -5.5665445491246306 #
vertex $-1 $347 $522 #
straight-curve $-1 57.72148808252205 -31.565288267253518 0 0 0 -1 I I #
plane-surface $-1 0 0 8.9521843277561874 0 0 1 1 0 0 forward_v I I I I #
coedge $-1 $355 $352 $357 $472 reversed $236 $-1 #
coedge $-1 $352 $355 $478 $523 reversed $236 $-1 #
edge $-1 $480 -8.9521843277561874 $474 8.9521843277561874 $369 $524 forward 7 unknown #
edge $-1 $469 -5.2080910782025853 $367 5.2080910782025889 $354 $525 forward 7 unknown #
vertex $-1 $523 $526 #
vertex $-1 $472 $527 #
straight-curve $-1 -46.633842269760137 41.981470423658692 0 0 0 -1 I I #
edge $-1 $470 -1.5 $474 1.5 $465 $528 forward 7 unknown #
straight-curve $-1 -46.633842269760137 36.773379345456107 -8.9521843277561874 0 1 0 I I #
vertex $-1 $359 $529 #
straight-curve $-1 -43.633842269760137 36.773379345456107 -8.9521843277561874 0 -1 0 I I #
point $-1 -46.633842269760137 31.565288267253518 -8.9521843277561874 #
straight-curve $-1 -46.633842269760137 31.565288267253518 0 0 0 -1 I I #
coedge $-1 $365 $364 $466 $523 forward $366 $-1 #
point $-1 -46.633842269760137 31.565288267253518 8.9521843277561874 #
vertex $-1 $370 $530 #
straight-curve $-1 -43.633842269760137 36.773379345456107 8.9521843277561874 0 1 0 I I #
edge $-1 $483 70.532434527171318 $486 78.213419601848557 $374 $531 forward 7 unknown #
vertex $-1 $388 $532 #
straight-curve $-1 7.7332136687171023 7.5482987633270007 8.9521843277561857 1 0 0 I I #
edge $-1 $486 0.3739475447831655 $385 13.974754892304505 $384 $533 forward 7 unknown #
vertex $-1 $485 $534 #
straight-curve $-1 -42.255061518409903 7.5482987633270007 58.992688108923062 -0.8660253999169214 0 0.50000000669873634 I I #
point $-1 44.417631918653569 7.5482987633270007 8.9521843277561857 #
point $-1 57.721488082522043 21.14910611084834 1.2711992530789544 #
straight-curve $-1 57.72148808252205 0 8.9521843277561874 0 1 0 I I #
vertex $-1 $391 $535 #
point $-1 50.303906462339782 11.434243719761671 0.78554102505897028 #
vertex $-1 $395 $536 #
point $-1 50.303906462339782 17.263161154413677 0.78554102505897028 #
coedge $-1 $410 $409 $402 $496 forward $399 $-1 #
edge $-1 $497 27.562482401993478 $500 32.960649383866652 $495 $537 forward 7 unknown #
vertex $-1 $414 $538 #
straight-curve $-1 -74.959174591432756 -12.842634645762001 8.9521843277561857 -1 0 0 I I #
edge $-1 $500 3.330687748051707 $411 15.69320604736888 $410 $539 forward 7 unknown #
vertex $-1 $499 $540 #
straight-curve $-1 -57.721488082522029 -12.842634645762001 3.5540173458830395 0.60181501223851219 0 0.79863551827123203 I I #
point $-1 -53.653677605855748 -12.842634645762001 8.9521843277561874 #
point $-1 -57.72148808252205 -25.205152945079174 3.5540173458830111 #
straight-curve $-1 -57.72148808252205 0 8.9521843277561874 0 -1 0 I I #
vertex $-1 $417 $541 #
point $-1 -54.359041742100828 -22.732649285215739 5.878041159708209 #
vertex $-1 $421 $542 #
point $-1 -54.359041742100828 -19.023893795420587 5.878041159708209 #
vertex $-1 $425 $543 #
point $-1 -54.359041742100828 -15.315138305625435 5.878041159708209 #
straight-curve $-1 -57.72148808252205 31.565288267253518 0 0 0 -1 I I #
point $-1 -57.72148808252205 -31.565288267253518 -8.9521843277561874 #
straight-curve $-1 -57.72148808252205 0 -8.9521843277561874 0 1 0 I I #
point $-1 -57.72148808252205 31.565288267253518 -8.9521843277561874 #
edge $-1 $462 -57.72148808252205 $517 57.72148808252205 $459 $544 forward 7 unknown #
straight-curve $-1 57.72148808252205 0 -8.9521843277561874 0 -1 0 I I #
vertex $-1 $450 $545 #
straight-curve $-1 -57.72148808252205 0 -8.9521843277561874 0 1 0 I I #
point $-1 -57.72148808252205 -25.205152945079174 -8.9521843277561874 #
straight-curve $-1 -57.72148808252205 -25.205152945079174 -3.6296822192202045 0 0 -1 I I #
straight-curve $-1 -57.72148808252205 -31.565288267253518 0 0 0 -1 I I #
point $-1 57.72148808252205 -31.565288267253518 -8.9521843277561874 #
edge $-1 $480 -1.5 $469 1.5 $466 $546 forward 7 unknown #
straight-curve $-1 -43.633842269760137 41.981470423658692 0 0 0 -1 I I #
straight-curve $-1 -46.633842269760137 36.773379345456107 8.9521843277561874 0 -1 0 I I #
point $-1 -46.633842269760137 41.981470423658692 8.9521843277561874 #
point $-1 -46.633842269760137 41.981470423658692 -8.9521843277561874 #
straight-curve $-1 -45.133842269760137 41.981470423658692 -8.9521843277561874 1 0 0 I I #
point $-1 -43.633842269760137 41.981470423658692 -8.9521843277561874 #
point $-1 -43.633842269760137 41.981470423658692 8.9521843277561874 #
straight-curve $-1 57.72148808252205 7.5482987633270007 79.484618854927504 0 0 -1 I I #
point $-1 57.72148808252205 7.5482987633270007 8.9521843277561874 #
straight-curve $-1 57.72148808252205 7.1743512185438352 1.2711992530789402 0 1 0 I I #
point $-1 57.721488082522043 7.5482987633270007 1.2711992530789544 #
point $-1 48.254868352416295 11.434243719761671 0.23650293523169275 #
point $-1 48.254868352416295 17.263161154413677 0.23650293523169275 #
straight-curve $-1 -57.72148808252205 -12.842634645762001 36.514666729749663 0 0 -1 I I #
point $-1 -57.72148808252205 -12.842634645762001 8.9521843277561874 #
straight-curve $-1 -57.72148808252205 -9.5119468977102937 3.5540173458830138 0 -1 0 I I #
point $-1 -57.72148808252205 -12.842634645762001 3.5540173458830111 #
point $-1 -54.260631489084467 -22.732649285215739 5.177815894453337 #
point $-1 -54.260631489084467 -19.023893795420587 5.177815894453337 #
point $-1 -54.260631489084467 -15.315138305625435 5.177815894453337 #
straight-curve $-1 0 -31.565288267253518 -8.9521843277561874 -1 0 0 I I #
point $-1 -57.72148808252205 -31.565288267253518 -8.9521843277561874 #
straight-curve $-1 -45.133842269760137 41.981470423658692 8.9521843277561874 -1 0 0 I I #
End-of-ACIS-data 