500 0 11 0           
7 Unknown 11 ACIS 5.0 NT 24 Thu Mar 25 16:18:13 1999 
-1 9.9999999999999995e-007 1e-010 
body $-1 $11 $-1 $12 #
body $-1 $13 $-1 $14 #
body $-1 $15 $-1 $16 #
body $-1 $17 $-1 $18 #
body $-1 $19 $-1 $20 #
body $-1 $21 $-1 $22 #
body $-1 $23 $-1 $24 #
body $-1 $25 $-1 $26 #
body $-1 $27 $-1 $28 #
body $-1 $29 $-1 $30 #
body $-1 $31 $-1 $32 #
lump $-1 $-1 $33 $0 #
transform $-1 1 0 0 0 1 0 0 0 1 74.290597247230437 37.268863110750871 13.496726499753231 1 rotate no_reflect no_shear #
lump $-1 $-1 $34 $1 #
transform $-1 1 0 0 0 1 0 0 0 1 74.290597247230437 37.268863110750871 13.496726499753231 1 rotate no_reflect no_shear #
lump $-1 $-1 $35 $2 #
transform $-1 1 0 0 0 1 0 0 0 1 74.290597247230437 37.268863110750871 13.496726499753231 1 rotate no_reflect no_shear #
lump $-1 $-1 $36 $3 #
transform $-1 1 0 0 0 1 0 0 0 1 74.290597247230437 37.268863110750871 13.496726499753231 1 rotate no_reflect no_shear #
lump $-1 $-1 $37 $4 #
transform $-1 1 0 0 0 1 0 0 0 1 74.290597247230437 37.268863110750871 13.496726499753231 1 rotate no_reflect no_shear #
lump $-1 $-1 $38 $5 #
transform $-1 1 0 0 0 1 0 0 0 1 74.290597247230437 37.268863110750871 13.496726499753231 1 rotate no_reflect no_shear #
lump $-1 $-1 $39 $6 #
transform $-1 1 0 0 0 1 0 0 0 1 74.290597247230437 37.268863110750871 13.496726499753231 1 rotate no_reflect no_shear #
lump $-1 $-1 $40 $7 #
transform $-1 1 0 0 0 1 0 0 0 1 74.290597247230437 37.268863110750871 13.496726499753231 1 rotate no_reflect no_shear #
lump $-1 $-1 $41 $8 #
transform $-1 1 0 0 0 1 0 0 0 1 74.290597247230437 37.268863110750871 13.496726499753231 1 rotate no_reflect no_shear #
lump $-1 $-1 $42 $9 #
transform $-1 1 0 0 0 1 0 0 0 1 74.290597247230437 37.268863110750871 13.496726499753231 1 rotate no_reflect no_shear #
lump $-1 $-1 $43 $10 #
transform $-1 1 0 0 0 1 0 0 0 1 74.290597247230437 37.268863110750871 13.496726499753231 1 rotate no_reflect no_shear #
shell $-1 $-1 $-1 $44 $-1 $11 #
shell $-1 $-1 $-1 $45 $-1 $13 #
shell $-1 $-1 $-1 $46 $-1 $15 #
shell $-1 $-1 $-1 $47 $-1 $17 #
shell $-1 $-1 $-1 $48 $-1 $19 #
shell $-1 $-1 $-1 $49 $-1 $21 #
shell $-1 $-1 $-1 $50 $-1 $23 #
shell $-1 $-1 $-1 $51 $-1 $25 #
shell $-1 $-1 $-1 $52 $-1 $27 #
shell $-1 $-1 $-1 $53 $-1 $29 #
shell $-1 $-1 $-1 $54 $-1 $31 #
face $-1 $55 $56 $33 $-1 $57 forward single #
face $-1 $58 $59 $34 $-1 $60 forward single #
face $-1 $61 $62 $35 $-1 $63 reversed single #
face $-1 $64 $65 $36 $-1 $66 forward single #
face $-1 $67 $68 $37 $-1 $69 forward single #
face $-1 $70 $71 $38 $-1 $72 reversed single #
face $-1 $73 $74 $39 $-1 $75 forward single #
face $-1 $76 $77 $40 $-1 $78 forward single #
face $-1 $79 $80 $41 $-1 $81 reversed single #
face $-1 $82 $83 $42 $-1 $84 forward single #
face $-1 $85 $86 $43 $-1 $87 forward single #
face $-1 $88 $89 $33 $-1 $90 reversed single #
loop $-1 $-1 $91 $44 #
plane-surface $-1 0 0 13.496726499753231 0 0 1 1 0 0 forward_v I I I I #
face $-1 $92 $93 $34 $-1 $94 reversed single #
loop $-1 $-1 $95 $45 #
plane-surface $-1 -69.143585770406602 0 2.2086883721280568 0 0 1 1 0 0 forward_v I I I I #
face $-1 $96 $97 $35 $-1 $98 reversed single #
loop $-1 $-1 $99 $46 #
plane-surface $-1 -16.357409685554074 -140.48203477165191 110.93144148945424 1 0 0 0 0.69465837861970381 -0.71933979245794832 forward_v I I I I #
face $-1 $100 $101 $36 $-1 $102 forward single #
loop $-1 $103 $104 $47 #
cone-surface $-1 -10.2132893534461 -30.704101817516786 7.0402861424904071 0 0.69465837861970381 -0.71933979245794832 2.5 0 0 1 I I 0 1 2.5 forward I I I I #
face $-1 $105 $106 $37 $-1 $107 forward single #
loop $-1 $108 $109 $48 #
cone-surface $-1 -0.99710885528413939 -30.704101817516786 7.0402861424904071 0 0.69465837861970381 -0.71933979245794832 2.5 0 0 1 I I 0 1 2.5 forward I I I I #
face $-1 $110 $111 $38 $-1 $112 reversed single #
loop $-1 $-1 $113 $49 #
plane-surface $-1 26.65143263920173 -140.48203477165191 110.93144148945424 -1 0 0 0 -0.69465837861970381 0.71933979245794832 forward_v I I I I #
face $-1 $114 $115 $39 $-1 $116 forward single #
loop $-1 $117 $118 $50 #
cone-surface $-1 11.291131808931809 -30.704101817516786 7.0402861424904071 0 0.69465837861970381 -0.71933979245794832 2.5 0 0 1 I I 0 1 2.5 forward I I I I #
face $-1 $119 $120 $40 $-1 $121 forward single #
loop $-1 $122 $123 $51 #
cone-surface $-1 20.50731230709377 -30.704101817516786 7.0402861424904071 0 0.69465837861970381 -0.71933979245794832 2.5 0 0 1 I I 0 1 2.5 forward I I I I #
face $-1 $124 $125 $41 $-1 $126 reversed single #
loop $-1 $-1 $127 $52 #
plane-surface $-1 39.586193570200123 61.43380583082326 167.95510650429162 1 0 0 0 -0.57357644374324357 -0.81915203911291934 forward_v I I I I #
face $-1 $128 $129 $42 $-1 $130 forward single #
loop $-1 $131 $132 $53 #
cone-surface $-1 45.986969548559003 29.522042416857335 7.6339044254071062 0 -0.57357644374324357 -0.81915203911291934 2 0 0 1 I I 0 1 2 forward I I I I #
face $-1 $133 $134 $43 $-1 $135 forward single #
loop $-1 $136 $137 $54 #
cone-surface $-1 55.588133516097315 29.522042416857335 7.6339044254071062 0 -0.57357644374324357 -0.81915203911291934 2 0 0 1 I I 0 1 2 forward I I I I #
face $-1 $138 $139 $33 $-1 $140 reversed single #
loop $-1 $-1 $141 $55 #
plane-surface $-1 0 0 -13.496726499753231 0 0 1 1 0 0 forward_v I I I I #
coedge $-1 $142 $143 $144 $145 forward $56 $-1 #
face $-1 $146 $147 $34 $-1 $148 reversed single #
loop $-1 $-1 $149 $58 #
plane-surface $-1 -69.143585770406602 0 -3.3886203959967833 0 0 1 1 0 0 forward_v I I I I #
coedge $-1 $150 $151 $152 $153 forward $59 $-1 #
face $-1 $154 $155 $35 $-1 $156 reversed single #
loop $-1 $-1 $157 $61 #
plane-surface $-1 -5.605199104365127 -37.268863110750857 4.0510758786547001 0 -0.69465837861970381 0.71933979245794832 1 0 0 forward_v I I I I #
coedge $-1 $158 $159 $160 $161 reversed $62 $-1 #
face $-1 $-1 $162 $36 $-1 $163 forward single #
loop $-1 $164 $165 $64 #
cone-surface $-1 -10.2132893534461 -28.161646215785943 4.4074963552043993 0 0.69465837861970381 -0.71933979245794832 1.25 0 0 1 I I -0.70710678118654746 0.70710678118654746 1.25 forward I I I I #
loop $-1 $-1 $166 $47 #
coedge $-1 $104 $104 $167 $168 reversed $65 $-1 #
face $-1 $-1 $169 $37 $-1 $170 forward single #
loop $-1 $171 $172 $67 #
cone-surface $-1 -0.99710885528413939 -28.161646215785943 4.4074963552043993 0 0.69465837861970381 -0.71933979245794832 1.25 0 0 1 I I -0.70710678118654746 0.70710678118654746 1.25 forward I I I I #
loop $-1 $-1 $173 $48 #
coedge $-1 $109 $109 $174 $175 reversed $68 $-1 #
face $-1 $176 $177 $38 $-1 $178 reversed single #
loop $-1 $-1 $179 $70 #
plane-surface $-1 -5.605199104365127 -37.268863110750857 4.0510758786547001 0 -0.69465837861970381 0.71933979245794832 1 0 0 forward_v I I I I #
coedge $-1 $180 $181 $182 $183 reversed $71 $-1 #
face $-1 $-1 $184 $39 $-1 $185 forward single #
loop $-1 $186 $187 $73 #
cone-surface $-1 11.291131808931809 -28.161646215785943 4.4074963552043993 0 0.69465837861970381 -0.71933979245794832 1.25 0 0 1 I I -0.70710678118654746 0.70710678118654746 1.25 forward I I I I #
loop $-1 $-1 $188 $50 #
coedge $-1 $118 $118 $189 $190 reversed $74 $-1 #
face $-1 $-1 $191 $40 $-1 $192 forward single #
loop $-1 $193 $194 $76 #
cone-surface $-1 20.50731230709377 -28.161646215785943 4.4074963552043993 0 0.69465837861970381 -0.71933979245794832 1.25 0 0 1 I I -0.70710678118654746 0.70710678118654746 1.25 forward I I I I #
loop $-1 $-1 $195 $51 #
coedge $-1 $123 $123 $196 $197 reversed $77 $-1 #
face $-1 $198 $199 $41 $-1 $200 reversed single #
loop $-1 $-1 $201 $79 #
plane-surface $-1 50.787551532328166 -23.788867314432807 46.244518060320729 0 0.57357644374324357 0.81915203911291934 1 0 0 forward_v I I I I #
coedge $-1 $202 $203 $204 $205 reversed $80 $-1 #
face $-1 $-1 $206 $42 $-1 $207 forward single #
loop $-1 $208 $209 $82 #
cone-surface $-1 45.986969548559003 28.346164319733631 5.9545764970825612 0 -0.57357644374324357 -0.81915203911291934 1 0 0 1 I I -0.70710678118654746 0.70710678118654746 1 forward I I I I #
loop $-1 $-1 $210 $53 #
coedge $-1 $132 $132 $211 $212 reversed $83 $-1 #
face $-1 $-1 $213 $43 $-1 $214 forward single #
loop $-1 $215 $216 $85 #
cone-surface $-1 55.588133516097315 28.346164319733631 5.9545764970825612 0 -0.57357644374324357 -0.81915203911291934 1 0 0 1 I I -0.70710678118654746 0.70710678118654746 1 forward I I I I #
loop $-1 $-1 $217 $54 #
coedge $-1 $137 $137 $218 $219 reversed $86 $-1 #
face $-1 $220 $221 $33 $-1 $222 reversed single #
loop $-1 $-1 $223 $88 #
plane-surface $-1 0 -37.268863110750871 0 0 1 0 0 0 1 forward_v I I I I #
coedge $-1 $224 $225 $226 $227 forward $89 $-1 #
coedge $-1 $228 $91 $229 $230 forward $56 $-1 #
coedge $-1 $91 $228 $231 $232 forward $56 $-1 #
coedge $-1 $233 $234 $91 $145 reversed $235 $-1 #
edge $-1 $236 -37.268863110750871 $237 37.268863110750871 $144 $238 forward 7 unknown #
face $-1 $239 $240 $34 $-1 $241 reversed single #
loop $-1 $-1 $242 $92 #
plane-surface $-1 -63.996574293582775 0 -0.58996601193436327 -1 0 0 0 0 1 forward_v I I I I #
coedge $-1 $243 $244 $245 $246 forward $93 $-1 #
coedge $-1 $247 $95 $248 $249 reversed $59 $-1 #
coedge $-1 $95 $247 $250 $251 reversed $59 $-1 #
coedge $-1 $242 $252 $95 $153 reversed $147 $-1 #
edge $-1 $253 -37.268863110750871 $254 37.268863110750871 $152 $255 forward 7 unknown #
face $-1 $256 $257 $35 $-1 $258 forward single #
loop $-1 $-1 $259 $96 #
plane-surface $-1 5.1470114768238204 -140.48203477165191 110.93144148945424 -1 0 0 0 -0.69465837861970381 0.71933979245794832 forward_v I I I I #
coedge $-1 $260 $261 $262 $263 reversed $97 $-1 #
coedge $-1 $159 $99 $264 $265 reversed $62 $-1 #
coedge $-1 $99 $158 $260 $266 reversed $62 $-1 #
coedge $-1 $262 $267 $99 $161 forward $268 $-1 #
edge $-1 $269 41.968994244973892 $270 51.414644866072436 $160 $271 forward 7 unknown #
loop $-1 $-1 $167 $100 #
plane-surface $-1 -5.605199104365127 -37.268863110750857 4.0510758786547001 0 -0.69465837861970381 0.71933979245794832 1 0 0 forward_v I I I I #
loop $-1 $-1 $272 $64 #
coedge $-1 $165 $165 $166 $273 reversed $101 $-1 #
coedge $-1 $166 $166 $165 $273 forward $103 $-1 #
coedge $-1 $167 $167 $104 $168 forward $162 $-1 #
edge $-1 $274 -2.1044639173264111e-016 $274 6.2831853071796004 $167 $275 forward 7 unknown #
loop $-1 $-1 $174 $105 #
plane-surface $-1 -5.605199104365127 -37.268863110750857 4.0510758786547001 0 -0.69465837861970381 0.71933979245794832 1 0 0 forward_v I I I I #
loop $-1 $-1 $276 $67 #
coedge $-1 $172 $172 $173 $277 reversed $106 $-1 #
coedge $-1 $173 $173 $172 $277 forward $108 $-1 #
coedge $-1 $174 $174 $109 $175 forward $169 $-1 #
edge $-1 $278 -2.1044639173264111e-016 $278 6.2831853071796004 $174 $279 forward 7 unknown #
face $-1 $280 $281 $38 $-1 $282 forward single #
loop $-1 $-1 $283 $110 #
plane-surface $-1 0 -37.268863110750871 0 0 1 0 0 0 1 forward_v I I I I #
coedge $-1 $284 $285 $286 $287 reversed $111 $-1 #
coedge $-1 $181 $113 $288 $289 reversed $71 $-1 #
coedge $-1 $113 $180 $290 $291 reversed $71 $-1 #
coedge $-1 $292 $283 $113 $183 forward $177 $-1 #
edge $-1 $293 -51.414644866072436 $294 -41.968994244973892 $182 $295 forward 7 unknown #
loop $-1 $-1 $189 $114 #
plane-surface $-1 -5.605199104365127 -37.268863110750857 4.0510758786547001 0 -0.69465837861970381 0.71933979245794832 1 0 0 forward_v I I I I #
loop $-1 $-1 $296 $73 #
coedge $-1 $187 $187 $188 $297 reversed $115 $-1 #
coedge $-1 $188 $188 $187 $297 forward $117 $-1 #
coedge $-1 $189 $189 $118 $190 forward $184 $-1 #
edge $-1 $298 -2.1044639173264111e-016 $298 6.2831853071796004 $189 $299 forward 7 unknown #
loop $-1 $-1 $196 $119 #
plane-surface $-1 -5.605199104365127 -37.268863110750857 4.0510758786547001 0 -0.69465837861970381 0.71933979245794832 1 0 0 forward_v I I I I #
loop $-1 $-1 $300 $76 #
coedge $-1 $194 $194 $195 $301 reversed $120 $-1 #
coedge $-1 $195 $195 $194 $301 forward $122 $-1 #
coedge $-1 $196 $196 $123 $197 forward $191 $-1 #
edge $-1 $302 -2.1044639173264111e-016 $302 6.2831853071796004 $196 $303 forward 7 unknown #
face $-1 $304 $305 $41 $-1 $306 reversed single #
loop $-1 $-1 $307 $124 #
plane-surface $-1 61.988909494456209 61.43380583082326 167.95510650429162 -1 0 0 0 0.57357644374324357 0.81915203911291934 forward_v I I I I #
coedge $-1 $308 $309 $310 $311 reversed $125 $-1 #
coedge $-1 $203 $127 $312 $313 reversed $80 $-1 #
coedge $-1 $127 $202 $308 $314 reversed $80 $-1 #
coedge $-1 $310 $315 $127 $205 forward $316 $-1 #
edge $-1 $317 -6.551960195339241 $318 7.7370778856869435 $204 $319 forward 7 unknown #
loop $-1 $-1 $211 $128 #
plane-surface $-1 50.787551532328166 -23.788867314432807 46.244518060320729 0 0.57357644374324357 0.81915203911291934 1 0 0 forward_v I I I I #
loop $-1 $-1 $320 $82 #
coedge $-1 $209 $209 $210 $321 reversed $129 $-1 #
coedge $-1 $210 $210 $209 $321 forward $131 $-1 #
coedge $-1 $211 $211 $132 $212 forward $206 $-1 #
edge $-1 $322 8.7245977684942397e-016 $322 6.2831853071796013 $211 $323 forward 7 unknown #
loop $-1 $-1 $218 $133 #
plane-surface $-1 50.787551532328166 -23.788867314432807 46.244518060320729 0 0.57357644374324357 0.81915203911291934 1 0 0 forward_v I I I I #
loop $-1 $-1 $324 $85 #
coedge $-1 $216 $216 $217 $325 reversed $134 $-1 #
coedge $-1 $217 $217 $216 $325 forward $136 $-1 #
coedge $-1 $218 $218 $137 $219 forward $213 $-1 #
edge $-1 $326 8.7245977684942397e-016 $326 6.2831853071796013 $218 $327 forward 7 unknown #
face $-1 $328 $329 $33 $-1 $330 reversed single #
loop $-1 $-1 $331 $138 #
plane-surface $-1 -74.290597247230437 0 0 1 0 0 0 0 -1 forward_v I I I I #
coedge $-1 $332 $231 $333 $334 forward $139 $-1 #
coedge $-1 $335 $141 $332 $336 forward $89 $-1 #
coedge $-1 $141 $335 $337 $338 forward $89 $-1 #
coedge $-1 $234 $233 $141 $227 reversed $235 $-1 #
edge $-1 $339 -37.268863110750871 $340 37.268863110750871 $226 $341 forward 7 unknown #
coedge $-1 $143 $142 $342 $343 forward $56 $-1 #
coedge $-1 $344 $345 $142 $230 reversed $329 $-1 #
edge $-1 $237 -74.290597247230437 $346 74.290597247230437 $229 $347 forward 7 unknown #
coedge $-1 $223 $348 $143 $232 reversed $139 $-1 #
edge $-1 $349 -74.290597247230437 $236 74.290597247230437 $231 $350 forward 7 unknown #
coedge $-1 $226 $144 $348 $351 forward $235 $-1 #
coedge $-1 $144 $226 $344 $352 reversed $235 $-1 #
loop $-1 $-1 $233 $328 #
vertex $-1 $145 $353 #
vertex $-1 $145 $354 #
straight-curve $-1 74.290597247230437 0 13.496726499753231 0 1 0 I I #
face $-1 $355 $356 $34 $-1 $357 reversed single #
loop $-1 $-1 $358 $146 #
plane-surface $-1 0 -37.268863110750871 0 0 1 0 0 0 1 forward_v I I I I #
coedge $-1 $245 $152 $359 $360 reversed $147 $-1 #
coedge $-1 $361 $149 $358 $362 reversed $93 $-1 #
coedge $-1 $149 $361 $363 $364 reversed $93 $-1 #
coedge $-1 $252 $242 $149 $246 reversed $147 $-1 #
edge $-1 $365 -37.268863110750871 $366 37.268863110750871 $245 $367 forward 7 unknown #
coedge $-1 $151 $150 $368 $369 reversed $59 $-1 #
coedge $-1 $370 $371 $150 $249 forward $372 $-1 #
edge $-1 $373 -39.718804362027136 $254 -29.424781408379474 $248 $374 forward 7 unknown #
coedge $-1 $375 $359 $151 $251 forward $240 $-1 #
edge $-1 $253 29.424781408379474 $376 39.718804362027136 $250 $377 forward 7 unknown #
coedge $-1 $152 $245 $370 $378 reversed $147 $-1 #
vertex $-1 $251 $379 #
vertex $-1 $249 $380 #
straight-curve $-1 -63.996574293582775 0 2.2086883721280568 0 1 0 I I #
face $-1 $-1 $268 $35 $-1 $381 reversed single #
loop $-1 $-1 $382 $154 #
plane-surface $-1 0 0 13.496726499753231 0 0 1 1 0 0 forward_v I I I I #
coedge $-1 $383 $384 $385 $386 reversed $155 $-1 #
coedge $-1 $387 $157 $159 $266 forward $97 $-1 #
coedge $-1 $157 $387 $383 $388 forward $97 $-1 #
coedge $-1 $385 $160 $157 $263 forward $268 $-1 #
edge $-1 $270 -13.554810133371511 $389 7.9496110290063839 $262 $390 forward 7 unknown #
coedge $-1 $391 $392 $158 $265 forward $257 $-1 #
edge $-1 $393 -42.75341160463087 $269 -32.972154275075084 $264 $394 forward 7 unknown #
edge $-1 $270 -1.9477141995791963e-014 $393 13.597547962880942 $159 $395 forward 7 unknown #
coedge $-1 $160 $385 $391 $396 reversed $268 $-1 #
loop $-1 $-1 $385 $256 #
vertex $-1 $396 $397 #
vertex $-1 $161 $398 #
straight-curve $-1 -16.357409685554074 -37.268863110750871 55.465720744727122 0 0 -1 I I #
coedge $-1 $272 $272 $-1 $399 reversed $164 $-1 #
edge $-1 $400 0 $400 6.2831853071796004 $165 $401 forward 7 unknown #
vertex $-1 $168 $402 #
ellipse-curve $-1 -10.2132893534461 -32.378234445972979 8.7739011892039578 0 -0.69465837861970381 0.71933979245794832 2.5 0 0 1 I I #
coedge $-1 $276 $276 $-1 $403 reversed $171 $-1 #
edge $-1 $404 0 $404 6.2831853071796004 $172 $405 forward 7 unknown #
vertex $-1 $175 $406 #
ellipse-curve $-1 -0.99710885528413939 -32.378234445972979 8.7739011892039578 0 -0.69465837861970381 0.71933979245794832 2.5 0 0 1 I I #
face $-1 $-1 $407 $38 $-1 $408 forward single #
loop $-1 $-1 $409 $176 #
plane-surface $-1 5.1470114768238204 -140.48203477165191 110.93144148945424 -1 0 0 0 -0.69465837861970381 0.71933979245794832 forward_v I I I I #
coedge $-1 $182 $410 $285 $411 forward $177 $-1 #
coedge $-1 $288 $179 $412 $413 reversed $111 $-1 #
coedge $-1 $179 $288 $283 $411 reversed $111 $-1 #
coedge $-1 $409 $414 $179 $287 forward $281 $-1 #
edge $-1 $415 -13.597547962880942 $416 1.9477141995791963e-014 $286 $417 forward 7 unknown #
coedge $-1 $285 $284 $180 $289 forward $111 $-1 #
edge $-1 $418 -13.597547962880942 $293 1.9477141995791963e-014 $180 $419 forward 7 unknown #
coedge $-1 $412 $420 $181 $291 forward $407 $-1 #
edge $-1 $294 32.972154275075084 $418 42.75341160463087 $290 $421 forward 7 unknown #
coedge $-1 $410 $182 $420 $422 reversed $177 $-1 #
vertex $-1 $183 $423 #
vertex $-1 $291 $424 #
straight-curve $-1 26.65143263920173 -37.268863110750871 55.465720744727122 0 0 1 I I #
coedge $-1 $296 $296 $-1 $425 reversed $186 $-1 #
edge $-1 $426 0 $426 6.2831853071796004 $187 $427 forward 7 unknown #
vertex $-1 $190 $428 #
ellipse-curve $-1 11.291131808931809 -32.378234445972979 8.7739011892039578 0 -0.69465837861970381 0.71933979245794832 2.5 0 0 1 I I #
coedge $-1 $300 $300 $-1 $429 reversed $193 $-1 #
edge $-1 $430 0 $430 6.2831853071796004 $194 $431 forward 7 unknown #
vertex $-1 $197 $432 #
ellipse-curve $-1 20.50731230709377 -32.378234445972979 8.7739011892039578 0 -0.69465837861970381 0.71933979245794832 2.5 0 0 1 I I #
face $-1 $-1 $316 $41 $-1 $433 forward single #
loop $-1 $-1 $434 $198 #
plane-surface $-1 0 37.268863110750871 0 0 -1 0 0 0 -1 forward_v I I I I #
coedge $-1 $435 $436 $437 $438 reversed $199 $-1 #
coedge $-1 $439 $201 $203 $314 forward $125 $-1 #
coedge $-1 $201 $439 $435 $440 forward $125 $-1 #
coedge $-1 $437 $204 $201 $311 forward $316 $-1 #
edge $-1 $318 14.19241780403604 $441 36.595133728292126 $310 $442 forward 7 unknown #
coedge $-1 $443 $444 $202 $313 forward $305 $-1 #
edge $-1 $445 -80.486119122661577 $317 -70.480826752392574 $312 $446 forward 7 unknown #
edge $-1 $318 57.094031524116701 $445 74.537726221501757 $203 $447 forward 7 unknown #
coedge $-1 $204 $437 $443 $448 forward $316 $-1 #
loop $-1 $-1 $437 $304 #
vertex $-1 $313 $449 #
vertex $-1 $205 $450 #
straight-curve $-1 39.586193570200123 30.71690291541163 13.496726499753237 0 -1 0 I I #
coedge $-1 $320 $320 $-1 $451 reversed $208 $-1 #
edge $-1 $452 0 $452 6.2831853071796004 $209 $453 forward 7 unknown #
vertex $-1 $212 $454 #
ellipse-curve $-1 45.986969548559003 30.12434407023779 8.4940803146187243 0 0.57357644374324357 0.81915203911291934 2 0 0 1 I I #
coedge $-1 $324 $324 $-1 $455 reversed $215 $-1 #
edge $-1 $456 0 $456 6.2831853071796004 $216 $457 forward 7 unknown #
vertex $-1 $219 $458 #
ellipse-curve $-1 55.588133516097315 30.12434407023779 8.4940803146187243 0 0.57357644374324357 0.81915203911291934 2 0 0 1 I I #
face $-1 $-1 $235 $33 $-1 $459 reversed single #
loop $-1 $-1 $344 $220 #
plane-surface $-1 0 37.268863110750871 0 0 -1 0 0 0 -1 forward_v I I I I #
coedge $-1 $460 $342 $345 $461 forward $221 $-1 #
coedge $-1 $348 $223 $224 $336 reversed $139 $-1 #
coedge $-1 $342 $460 $223 $334 reversed $221 $-1 #
edge $-1 $349 -13.496726499753231 $462 13.496726499753231 $333 $463 forward 7 unknown #
coedge $-1 $225 $224 $460 $464 forward $89 $-1 #
edge $-1 $340 -74.290597247230437 $462 74.290597247230437 $332 $465 forward 7 unknown #
coedge $-1 $345 $344 $225 $338 reversed $329 $-1 #
edge $-1 $466 -74.290597247230437 $339 74.290597247230437 $337 $467 forward 7 unknown #
vertex $-1 $227 $468 #
vertex $-1 $351 $469 #
straight-curve $-1 74.290597247230437 0 -13.496726499753231 0 -1 0 I I #
coedge $-1 $331 $333 $228 $343 reversed $221 $-1 #
edge $-1 $346 -37.268863110750871 $349 37.268863110750871 $342 $470 forward 7 unknown #
coedge $-1 $337 $229 $234 $352 forward $329 $-1 #
coedge $-1 $229 $337 $331 $461 reversed $329 $-1 #
vertex $-1 $230 $471 #
straight-curve $-1 0 37.268863110750871 13.496726499753231 -1 0 0 I I #
coedge $-1 $231 $332 $233 $351 reversed $139 $-1 #
vertex $-1 $343 $472 #
straight-curve $-1 0 -37.268863110750871 13.496726499753231 1 0 0 I I #
edge $-1 $236 -13.496726499753231 $340 13.496726499753231 $233 $473 forward 7 unknown #
edge $-1 $237 -13.496726499753231 $339 13.496726499753231 $234 $474 forward 7 unknown #
point $-1 74.290597247230437 -37.268863110750871 13.496726499753231 #
point $-1 74.290597247230437 37.268863110750871 13.496726499753231 #
face $-1 $-1 $372 $34 $-1 $475 reversed single #
loop $-1 $-1 $476 $239 #
plane-surface $-1 -74.290597247230437 0 0 1 0 0 0 0 -1 forward_v I I I I #
coedge $-1 $359 $375 $243 $362 forward $240 $-1 #
coedge $-1 $250 $358 $242 $360 forward $240 $-1 #
edge $-1 $366 -3.0936373900296017 $253 2.5036713780952384 $359 $477 forward 7 unknown #
coedge $-1 $244 $243 $476 $478 reversed $93 $-1 #
edge $-1 $479 -39.718804362027136 $366 -29.424781408379474 $358 $480 forward 7 unknown #
coedge $-1 $371 $370 $244 $364 forward $372 $-1 #
edge $-1 $365 29.424781408379474 $481 39.718804362027136 $363 $482 forward 7 unknown #
vertex $-1 $364 $483 #
vertex $-1 $362 $484 #
straight-curve $-1 -63.996574293582775 0 -3.3886203959967833 0 -1 0 I I #
coedge $-1 $485 $486 $247 $369 forward $356 $-1 #
edge $-1 $376 -37.268863110750871 $373 37.268863110750871 $368 $487 forward 7 unknown #
coedge $-1 $363 $248 $252 $378 forward $372 $-1 #
coedge $-1 $248 $363 $485 $488 reversed $372 $-1 #
loop $-1 $-1 $363 $355 #
vertex $-1 $488 $489 #
straight-curve $-1 -34.571792885203301 37.268863110750871 2.2086883721280568 1 0 0 I I #
coedge $-1 $358 $250 $486 $490 forward $240 $-1 #
vertex $-1 $490 $491 #
straight-curve $-1 -34.571792885203301 -37.268863110750871 2.2086883721280568 -1 0 0 I I #
edge $-1 $254 -2.5036713780952384 $365 3.0936373900296017 $370 $492 forward 7 unknown #
point $-1 -63.996574293582775 -37.268863110750871 2.2086883721280568 #
point $-1 -63.996574293582775 37.268863110750871 2.2086883721280568 #
plane-surface $-1 0 -37.268863110750871 0 0 1 0 0 0 1 forward_v I I I I #
coedge $-1 $392 $391 $384 $493 forward $257 $-1 #
coedge $-1 $384 $259 $261 $388 reversed $155 $-1 #
coedge $-1 $259 $383 $382 $493 reversed $155 $-1 #
coedge $-1 $267 $262 $259 $386 forward $268 $-1 #
edge $-1 $389 -51.414644866072436 $494 -41.968994244973892 $385 $495 forward 7 unknown #
coedge $-1 $261 $260 $392 $496 reversed $97 $-1 #
edge $-1 $497 -13.597547962880942 $389 1.9477141995791963e-014 $383 $498 forward 7 unknown #
vertex $-1 $263 $499 #
straight-curve $-1 -2.8025995521825635 -37.268863110750871 4.0510758786546885 1 0 0 I I #
coedge $-1 $382 $264 $267 $396 forward $257 $-1 #
coedge $-1 $264 $382 $387 $496 forward $257 $-1 #
vertex $-1 $265 $500 #
straight-curve $-1 -16.357409685554074 -70.241017385825955 13.49672649975323 0 -1 0 I I #
straight-curve $-1 -16.357409685554074 -37.268863110750857 4.0510758786547001 0 0.71933979245794832 0.69465837861970381 I I #
edge $-1 $269 -16.357409685554074 $494 5.1470114768238204 $267 $501 forward 7 unknown #
point $-1 -16.357409685554074 -37.268863110750871 13.496726499753231 #
point $-1 -16.357409685554074 -37.268863110750871 4.0510758786546868 #
edge $-1 $502 1 $502 0 $272 $-1 forward 7 unknown #
vertex $-1 $273 $503 #
ellipse-curve $-1 -10.2132893534461 -29.029969189060573 5.306671095776835 0 -0.69465837861970381 0.71933979245794832 2.5 0 0 1 I I #
point $-1 -7.7132893534461004 -32.378234445973 8.7739011892039791 #
edge $-1 $504 1 $504 0 $276 $-1 forward 7 unknown #
vertex $-1 $277 $505 #
ellipse-curve $-1 -0.99710885528413939 -29.029969189060573 5.306671095776835 0 -0.69465837861970381 0.71933979245794832 2.5 0 0 1 I I #
point $-1 1.5028911447158606 -32.378234445973 8.7739011892039791 #
loop $-1 $-1 $412 $280 #
plane-surface $-1 0 0 13.496726499753231 0 0 1 1 0 0 forward_v I I I I #
coedge $-1 $414 $286 $410 $506 reversed $281 $-1 #
coedge $-1 $283 $292 $409 $506 forward $177 $-1 #
edge $-1 $416 7.9496110290063839 $293 29.454032191384293 $283 $507 forward 7 unknown #
coedge $-1 $508 $290 $284 $413 forward $407 $-1 #
edge $-1 $418 -29.454032191384293 $415 -7.9496110290063839 $412 $509 forward 7 unknown #
coedge $-1 $286 $409 $508 $510 reversed $281 $-1 #
vertex $-1 $413 $511 #
vertex $-1 $411 $512 #
straight-curve $-1 5.1470114768238204 -37.268863110750857 4.0510758786547001 0 -0.71933979245794832 -0.69465837861970381 I I #
vertex $-1 $291 $513 #
straight-curve $-1 26.65143263920173 -37.268863110750857 4.0510758786547001 0 -0.71933979245794832 -0.69465837861970381 I I #
coedge $-1 $290 $508 $292 $422 forward $407 $-1 #
straight-curve $-1 26.65143263920173 -70.241017385825955 13.49672649975323 0 1 0 I I #
edge $-1 $514 5.1470114768238204 $294 26.65143263920173 $292 $515 forward 7 unknown #
point $-1 26.65143263920173 -37.268863110750871 4.0510758786546868 #
point $-1 26.65143263920173 -37.268863110750871 13.496726499753231 #
edge $-1 $516 1 $516 0 $296 $-1 forward 7 unknown #
vertex $-1 $297 $517 #
ellipse-curve $-1 11.291131808931809 -29.029969189060573 5.306671095776835 0 -0.69465837861970381 0.71933979245794832 2.5 0 0 1 I I #
point $-1 13.791131808931809 -32.378234445973 8.7739011892039791 #
edge $-1 $518 1 $518 0 $300 $-1 forward 7 unknown #
vertex $-1 $301 $519 #
ellipse-curve $-1 20.50731230709377 -29.029969189060573 5.306671095776835 0 -0.69465837861970381 0.71933979245794832 2.5 0 0 1 I I #
point $-1 23.00731230709377 -32.378234445973 8.7739011892039791 #
plane-surface $-1 0 0 13.496726499753231 0 0 1 1 0 0 forward_v I I I I #
coedge $-1 $444 $443 $436 $520 forward $305 $-1 #
coedge $-1 $436 $307 $309 $440 reversed $199 $-1 #
coedge $-1 $307 $435 $434 $520 reversed $199 $-1 #
coedge $-1 $315 $310 $307 $438 forward $316 $-1 #
edge $-1 $441 -7.7370778856869435 $521 6.551960195339241 $437 $522 forward 7 unknown #
coedge $-1 $309 $308 $444 $523 reversed $125 $-1 #
edge $-1 $524 -74.537726221501757 $441 -57.094031524116701 $435 $525 forward 7 unknown #
vertex $-1 $311 $526 #
straight-curve $-1 25.393775766164083 22.979825029724687 13.496726499753233 1 0 0 I I #
coedge $-1 $434 $312 $315 $448 reversed $305 $-1 #
coedge $-1 $312 $434 $439 $523 forward $305 $-1 #
vertex $-1 $313 $527 #
straight-curve $-1 39.586193570200123 37.268863110750871 83.97755325214581 0 0 1 I I #
straight-curve $-1 39.586193570200123 -23.788867314432807 46.244518060320729 0 0.81915203911291934 -0.57357644374324357 I I #
edge $-1 $521 -61.988909494456209 $317 -39.586193570200123 $443 $528 forward 7 unknown #
point $-1 39.586193570200123 37.268863110750871 13.496726499753231 #
point $-1 39.586193570200123 22.979825029724687 13.49672649975323 #
edge $-1 $529 1 $529 0 $320 $-1 forward 7 unknown #
vertex $-1 $321 $530 #
ellipse-curve $-1 45.986969548559003 28.919740763476874 6.7737285361954802 0 0.57357644374324357 0.81915203911291934 2 0 0 1 I I #
point $-1 47.986969548559003 30.124344070237797 8.4940803146187314 #
edge $-1 $531 1 $531 0 $324 $-1 forward 7 unknown #
vertex $-1 $325 $532 #
ellipse-curve $-1 55.588133516097315 28.919740763476874 6.7737285361954802 0 0.57357644374324357 0.81915203911291934 2 0 0 1 I I #
point $-1 57.588133516097315 30.124344070237797 8.4940803146187314 #
plane-surface $-1 74.290597247230437 0 0 -1 0 0 0 0 1 forward_v I I I I #
coedge $-1 $333 $331 $335 $464 reversed $221 $-1 #
edge $-1 $346 -13.496726499753231 $466 13.496726499753231 $345 $533 forward 7 unknown #
vertex $-1 $464 $534 #
straight-curve $-1 -74.290597247230437 -37.268863110750871 0 0 0 -1 I I #
edge $-1 $462 -37.268863110750871 $466 37.268863110750871 $460 $535 forward 7 unknown #
straight-curve $-1 0 -37.268863110750871 -13.496726499753231 -1 0 0 I I #
vertex $-1 $338 $536 #
straight-curve $-1 0 37.268863110750871 -13.496726499753231 1 0 0 I I #
point $-1 74.290597247230437 37.268863110750871 -13.496726499753231 #
point $-1 74.290597247230437 -37.268863110750871 -13.496726499753231 #
straight-curve $-1 -74.290597247230437 0 13.496726499753231 0 -1 0 I I #
point $-1 -74.290597247230437 37.268863110750871 13.496726499753231 #
point $-1 -74.290597247230437 -37.268863110750871 13.496726499753231 #
straight-curve $-1 74.290597247230437 -37.268863110750871 0 0 0 -1 I I #
straight-curve $-1 74.290597247230437 37.268863110750871 0 0 0 -1 I I #
plane-surface $-1 0 37.268863110750871 0 0 -1 0 0 0 -1 forward_v I I I I #
coedge $-1 $486 $485 $361 $478 forward $356 $-1 #
straight-curve $-1 -63.996574293582775 -37.268863110750871 -0.29498300596718163 0 0 1 I I #
edge $-1 $481 -37.268863110750871 $479 37.268863110750871 $476 $537 forward 7 unknown #
vertex $-1 $362 $538 #
straight-curve $-1 -34.571792885203301 -37.268863110750871 -3.3886203959967833 1 0 0 I I #
vertex $-1 $364 $539 #
straight-curve $-1 -34.571792885203301 37.268863110750871 -3.3886203959967833 -1 0 0 I I #
point $-1 -63.996574293582775 37.268863110750871 -3.3886203959967833 #
point $-1 -63.996574293582775 -37.268863110750871 -3.3886203959967833 #
coedge $-1 $476 $368 $371 $488 forward $356 $-1 #
coedge $-1 $368 $476 $375 $490 reversed $356 $-1 #
straight-curve $-1 -74.290597247230437 0 2.2086883721280568 0 1 0 I I #
edge $-1 $373 -2.2086883721280568 $481 3.3886203959967833 $371 $540 forward 7 unknown #
point $-1 -74.290597247230437 37.268863110750871 2.2086883721280568 #
edge $-1 $376 -2.2086883721280568 $479 3.3886203959967833 $486 $541 forward 7 unknown #
point $-1 -74.290597247230437 -37.268863110750871 2.2086883721280568 #
straight-curve $-1 -63.996574293582775 37.268863110750871 -0.29498300596718163 0 0 -1 I I #
edge $-1 $494 32.972154275075084 $497 42.75341160463087 $382 $542 forward 7 unknown #
vertex $-1 $493 $543 #
straight-curve $-1 5.1470114768238204 -37.268863110750871 55.465720744727122 0 0 1 I I #
edge $-1 $497 -7.9496110290063839 $393 13.554810133371511 $392 $544 forward 7 unknown #
vertex $-1 $496 $545 #
straight-curve $-1 5.1470114768238204 -37.268863110750857 4.0510758786547001 0 -0.71933979245794832 -0.69465837861970381 I I #
point $-1 5.1470114768238204 -37.268863110750871 4.0510758786546868 #
point $-1 -16.357409685554074 -27.487605781195082 13.496726499753231 #
straight-curve $-1 0 -37.268863110750871 13.496726499753231 1 0 0 I I #
vertex $-1 $399 $546 #
point $-1 -7.7132893534461004 -29.029969189060573 5.306671095776835 #
vertex $-1 $403 $547 #
point $-1 1.5028911447158606 -29.029969189060573 5.306671095776835 #
edge $-1 $514 41.968994244973892 $416 51.414644866072436 $410 $548 forward 7 unknown #
straight-curve $-1 -2.8025995521825635 -37.268863110750871 4.0510758786546885 1 0 0 I I #
coedge $-1 $420 $412 $414 $510 forward $407 $-1 #
straight-curve $-1 -2.8025995521825635 -27.487605781195079 13.496726499753231 -1 0 0 I I #
edge $-1 $415 -42.75341160463087 $514 -32.972154275075084 $508 $549 forward 7 unknown #
point $-1 5.1470114768238204 -27.487605781195082 13.496726499753231 #
point $-1 5.1470114768238204 -37.268863110750871 4.0510758786546868 #
point $-1 26.65143263920173 -27.487605781195082 13.496726499753231 #
vertex $-1 $422 $550 #
straight-curve $-1 0 -37.268863110750871 13.496726499753231 1 0 0 I I #
vertex $-1 $425 $551 #
point $-1 13.791131808931809 -29.029969189060573 5.306671095776835 #
vertex $-1 $429 $552 #
point $-1 23.00731230709377 -29.029969189060573 5.306671095776835 #
edge $-1 $521 70.480826752392574 $524 80.486119122661577 $434 $553 forward 7 unknown #
vertex $-1 $448 $554 #
straight-curve $-1 61.988909494456209 30.71690291541163 13.496726499753237 0 1 0 I I #
edge $-1 $524 -36.595133728292126 $445 -14.19241780403604 $444 $555 forward 7 unknown #
vertex $-1 $523 $556 #
straight-curve $-1 61.988909494456209 -23.788867314432807 46.244518060320729 0 -0.81915203911291934 0.57357644374324357 I I #
point $-1 61.988909494456209 22.979825029724687 13.49672649975323 #
point $-1 39.586193570200123 37.268863110750871 3.491434129484233 #
straight-curve $-1 0 37.268863110750871 13.496726499753231 -1 0 0 I I #
vertex $-1 $451 $557 #
point $-1 47.986969548559003 28.919740763476874 6.7737285361954802 #
vertex $-1 $455 $558 #
point $-1 57.588133516097315 28.919740763476874 6.7737285361954802 #
straight-curve $-1 -74.290597247230437 37.268863110750871 0 0 0 -1 I I #
point $-1 -74.290597247230437 -37.268863110750871 -13.496726499753231 #
straight-curve $-1 -74.290597247230437 0 -13.496726499753231 0 1 0 I I #
point $-1 -74.290597247230437 37.268863110750871 -13.496726499753231 #
straight-curve $-1 -74.290597247230437 0 -3.3886203959967833 0 -1 0 I I #
point $-1 -74.290597247230437 -37.268863110750871 -3.3886203959967833 #
point $-1 -74.290597247230437 37.268863110750871 -3.3886203959967833 #
straight-curve $-1 -74.290597247230437 37.268863110750871 0 0 0 -1 I I #
straight-curve $-1 -74.290597247230437 -37.268863110750871 0 0 0 -1 I I #
straight-curve $-1 5.1470114768238204 -70.241017385825955 13.49672649975323 0 1 0 I I #
point $-1 5.1470114768238204 -37.268863110750871 13.496726499753231 #
straight-curve $-1 -2.8025995521825635 -27.487605781195079 13.496726499753231 -1 0 0 I I #
point $-1 5.1470114768238204 -27.487605781195082 13.496726499753231 #
point $-1 -10.2132893534461 -27.293323242511313 3.508321614631964 #
point $-1 -0.99710885528413939 -27.293323242511313 3.508321614631964 #
straight-curve $-1 5.1470114768238204 -37.268863110750871 55.465720744727122 0 0 -1 I I #
straight-curve $-1 5.1470114768238204 -70.241017385825955 13.49672649975323 0 -1 0 I I #
point $-1 5.1470114768238204 -37.268863110750871 13.496726499753231 #
point $-1 11.291131808931809 -27.293323242511313 3.508321614631964 #
point $-1 20.50731230709377 -27.293323242511313 3.508321614631964 #
straight-curve $-1 61.988909494456209 37.268863110750871 83.97755325214581 0 0 -1 I I #
point $-1 61.988909494456209 37.268863110750871 13.496726499753231 #
straight-curve $-1 25.393775766164083 37.268863110750871 3.491434129484233 -1 0 0 I I #
point $-1 61.988909494456209 37.268863110750871 3.491434129484233 #
point $-1 45.986969548559003 27.772587875990389 5.1354244579696422 #
point $-1 55.588133516097315 27.772587875990389 5.1354244579696422 #
End-of-ACIS-data 