500 0 8 0           
7 Unknown 11 ACIS 5.0 NT 24 Thu Mar 25 16:33:11 1999 
-1 9.9999999999999995e-007 1e-010 
body $-1 $8 $-1 $9 #
body $-1 $10 $-1 $11 #
body $-1 $12 $-1 $13 #
body $-1 $14 $-1 $15 #
body $-1 $16 $-1 $17 #
body $-1 $18 $-1 $19 #
body $-1 $20 $-1 $21 #
body $-1 $22 $-1 $23 #
lump $-1 $-1 $24 $0 #
transform $-1 1 0 0 0 1 0 0 0 1 57.041535691396831 37.066640304655174 11.148385678592415 1 rotate no_reflect no_shear #
lump $-1 $-1 $25 $1 #
transform $-1 1 0 0 0 1 0 0 0 1 57.041535691396831 37.066640304655174 11.148385678592415 1 rotate no_reflect no_shear #
lump $-1 $-1 $26 $2 #
transform $-1 1 0 0 0 1 0 0 0 1 57.041535691396831 37.066640304655174 11.148385678592415 1 rotate no_reflect no_shear #
lump $-1 $-1 $27 $3 #
transform $-1 1 0 0 0 1 0 0 0 1 57.041535691396831 37.066640304655174 11.148385678592415 1 rotate no_reflect no_shear #
lump $-1 $-1 $28 $4 #
transform $-1 1 0 0 0 1 0 0 0 1 57.041535691396831 37.066640304655174 11.148385678592415 1 rotate no_reflect no_shear #
lump $-1 $-1 $29 $5 #
transform $-1 1 0 0 0 1 0 0 0 1 57.041535691396831 37.066640304655174 11.148385678592415 1 rotate no_reflect no_shear #
lump $-1 $-1 $30 $6 #
transform $-1 1 0 0 0 1 0 0 0 1 57.041535691396831 37.066640304655174 11.148385678592415 1 rotate no_reflect no_shear #
lump $-1 $-1 $31 $7 #
transform $-1 1 0 0 0 1 0 0 0 1 57.041535691396831 37.066640304655174 11.148385678592415 1 rotate no_reflect no_shear #
shell $-1 $-1 $-1 $32 $-1 $8 #
shell $-1 $-1 $-1 $33 $-1 $10 #
shell $-1 $-1 $-1 $34 $-1 $12 #
shell $-1 $-1 $-1 $35 $-1 $14 #
shell $-1 $-1 $-1 $36 $-1 $16 #
shell $-1 $-1 $-1 $37 $-1 $18 #
shell $-1 $-1 $-1 $38 $-1 $20 #
shell $-1 $-1 $-1 $39 $-1 $22 #
face $-1 $40 $41 $24 $-1 $42 forward single #
face $-1 $43 $44 $25 $-1 $45 forward single #
face $-1 $46 $47 $26 $-1 $48 reversed single #
face $-1 $49 $50 $27 $-1 $51 forward single #
face $-1 $52 $53 $28 $-1 $54 forward single #
face $-1 $55 $56 $29 $-1 $57 forward single #
face $-1 $58 $59 $30 $-1 $60 reversed single #
face $-1 $61 $62 $31 $-1 $63 forward single #
face $-1 $64 $65 $24 $-1 $66 reversed single #
loop $-1 $-1 $67 $32 #
plane-surface $-1 0 0 11.148385678592415 0 0 1 1 0 0 forward_v I I I I #
face $-1 $68 $69 $25 $-1 $70 reversed single #
loop $-1 $-1 $71 $33 #
plane-surface $-1 -50.794914906684305 0 6.1584417004105925 0 0 1 1 0 0 forward_v I I I I #
face $-1 $72 $73 $26 $-1 $74 reversed single #
loop $-1 $-1 $75 $34 #
plane-surface $-1 17.378328924444951 44.147904599139117 142.61942106113449 1 0 0 0 -0.5877852598018023 -0.80901698891910034 forward_v I I I I #
face $-1 $76 $77 $27 $-1 $78 forward single #
loop $-1 $79 $80 $35 #
cone-surface $-1 22.890477074266059 33.606938535885917 8.3536091874903473 0 -0.5877852598018023 -0.80901698891910034 1 0 0 1 I I 0 1 1 forward I I I I #
face $-1 $81 $82 $28 $-1 $83 forward single #
loop $-1 $84 $85 $36 #
cone-surface $-1 31.158699298997703 33.606938535885917 8.3536091874903473 0 -0.5877852598018023 -0.80901698891910034 1 0 0 1 I I 0 1 1 forward I I I I #
face $-1 $86 $87 $29 $-1 $88 forward single #
loop $-1 $89 $90 $37 #
cone-surface $-1 39.426921523729362 33.606938535885917 8.3536091874903473 0 -0.5877852598018023 -0.80901698891910034 1 0 0 1 I I 0 1 1 forward I I I I #
face $-1 $91 $92 $30 $-1 $93 reversed single #
loop $-1 $-1 $94 $38 #
plane-surface $-1 45.042327987451102 -37.066640304655181 5.2933297999364726 0 -0.61566148304635926 0.78801074757464917 1 0 0 forward_v I I I I #
face $-1 $95 $96 $31 $-1 $97 forward single #
loop $-1 $98 $99 $39 #
cone-surface $-1 45.042327987451088 -32.078688888241871 6.632595347160418 0 0.61566148304635926 -0.78801074757464917 2 0 0 1 I I 0 1 2 forward I I I I #
face $-1 $100 $101 $24 $-1 $102 reversed single #
loop $-1 $-1 $103 $40 #
plane-surface $-1 0 0 -11.148385678592415 0 0 1 1 0 0 forward_v I I I I #
coedge $-1 $104 $105 $106 $107 forward $41 $-1 #
face $-1 $108 $109 $25 $-1 $110 reversed single #
loop $-1 $-1 $111 $43 #
plane-surface $-1 -50.794914906684305 0 3.1361598319778272 0 0 1 1 0 0 forward_v I I I I #
coedge $-1 $112 $113 $114 $115 forward $44 $-1 #
face $-1 $116 $117 $26 $-1 $118 reversed single #
loop $-1 $-1 $119 $46 #
plane-surface $-1 31.158699298997703 -22.908443152583807 50.324278164383969 0 0.5877852598018023 0.80901698891910034 1 0 0 forward_v I I I I #
coedge $-1 $120 $121 $122 $123 reversed $47 $-1 #
face $-1 $-1 $124 $27 $-1 $125 forward single #
loop $-1 $126 $127 $49 #
cone-surface $-1 22.890477074266059 32.880391324205796 7.3536027604846446 0 -0.5877852598018023 -0.80901698891910034 0.5 0 0 1 I I -0.70710678118654746 0.70710678118654746 0.5 forward I I I I #
loop $-1 $-1 $128 $35 #
coedge $-1 $80 $80 $129 $130 reversed $50 $-1 #
face $-1 $-1 $131 $28 $-1 $132 forward single #
loop $-1 $133 $134 $52 #
cone-surface $-1 31.158699298997703 32.880391324205796 7.3536027604846446 0 -0.5877852598018023 -0.80901698891910034 0.5 0 0 1 I I -0.70710678118654746 0.70710678118654746 0.5 forward I I I I #
loop $-1 $-1 $135 $36 #
coedge $-1 $85 $85 $136 $137 reversed $53 $-1 #
face $-1 $-1 $138 $29 $-1 $139 forward single #
loop $-1 $140 $141 $55 #
cone-surface $-1 39.426921523729362 32.880391324205796 7.3536027604846446 0 -0.5877852598018023 -0.80901698891910034 0.5 0 0 1 I I -0.70710678118654746 0.70710678118654746 0.5 forward I I I I #
loop $-1 $-1 $142 $37 #
coedge $-1 $90 $90 $143 $144 reversed $56 $-1 #
face $-1 $145 $146 $30 $-1 $147 reversed single #
loop $-1 $-1 $148 $58 #
plane-surface $-1 33.043120283505367 -107.30319322266959 95.192016165903766 1 0 0 0 0.61566148304635926 -0.78801074757464917 forward_v I I I I #
coedge $-1 $149 $150 $151 $152 reversed $59 $-1 #
face $-1 $-1 $153 $31 $-1 $154 forward single #
loop $-1 $155 $156 $61 #
cone-surface $-1 45.042327987451088 -30.222140802063379 4.2563222074817446 0 0.61566148304635926 -0.78801074757464917 1 0 0 1 I I -0.70710678118654746 0.70710678118654746 1 forward I I I I #
loop $-1 $-1 $157 $39 #
coedge $-1 $99 $99 $158 $159 reversed $62 $-1 #
face $-1 $160 $161 $24 $-1 $162 reversed single #
loop $-1 $-1 $163 $64 #
plane-surface $-1 0 -37.066640304655174 0 0 1 0 0 0 1 forward_v I I I I #
coedge $-1 $164 $165 $166 $167 forward $65 $-1 #
coedge $-1 $168 $67 $169 $170 forward $41 $-1 #
coedge $-1 $67 $168 $171 $172 forward $41 $-1 #
coedge $-1 $173 $174 $67 $107 reversed $175 $-1 #
edge $-1 $176 -37.066640304655174 $177 37.066640304655174 $106 $178 forward 7 unknown #
face $-1 $179 $180 $25 $-1 $181 reversed single #
loop $-1 $-1 $182 $68 #
plane-surface $-1 -44.548294121971779 0 4.6473007661942098 -1 0 0 0 0 1 forward_v I I I I #
coedge $-1 $183 $184 $185 $186 forward $69 $-1 #
coedge $-1 $187 $71 $188 $189 reversed $44 $-1 #
coedge $-1 $71 $187 $190 $191 reversed $44 $-1 #
coedge $-1 $182 $192 $71 $115 reversed $109 $-1 #
edge $-1 $193 -37.066640304655174 $194 37.066640304655174 $114 $195 forward 7 unknown #
face $-1 $196 $197 $26 $-1 $198 forward single #
loop $-1 $-1 $199 $72 #
plane-surface $-1 44.939069673550456 44.147904599139117 142.61942106113449 -1 0 0 0 0.5877852598018023 0.80901698891910034 forward_v I I I I #
coedge $-1 $200 $201 $202 $203 reversed $73 $-1 #
coedge $-1 $121 $75 $204 $205 reversed $47 $-1 #
coedge $-1 $75 $120 $200 $206 reversed $47 $-1 #
coedge $-1 $202 $207 $75 $123 forward $197 $-1 #
edge $-1 $208 -14.992688005085615 $209 -8.9385936311055509 $122 $210 forward 7 unknown #
loop $-1 $-1 $129 $76 #
plane-surface $-1 31.158699298997703 -22.908443152583807 50.324278164383969 0 0.5877852598018023 0.80901698891910034 1 0 0 forward_v I I I I #
loop $-1 $-1 $211 $49 #
coedge $-1 $127 $127 $128 $212 reversed $77 $-1 #
coedge $-1 $128 $128 $127 $212 forward $79 $-1 #
coedge $-1 $129 $129 $80 $130 forward $124 $-1 #
edge $-1 $213 -1.0441163663475846e-015 $213 6.2831853071795996 $129 $214 forward 7 unknown #
loop $-1 $-1 $136 $81 #
plane-surface $-1 31.158699298997703 -22.908443152583807 50.324278164383969 0 0.5877852598018023 0.80901698891910034 1 0 0 forward_v I I I I #
loop $-1 $-1 $215 $52 #
coedge $-1 $134 $134 $135 $216 reversed $82 $-1 #
coedge $-1 $135 $135 $134 $216 forward $84 $-1 #
coedge $-1 $136 $136 $85 $137 forward $131 $-1 #
edge $-1 $217 -1.0441163663475846e-015 $217 6.2831853071795996 $136 $218 forward 7 unknown #
loop $-1 $-1 $143 $86 #
plane-surface $-1 31.158699298997703 -22.908443152583807 50.324278164383969 0 0.5877852598018023 0.80901698891910034 1 0 0 forward_v I I I I #
loop $-1 $-1 $219 $55 #
coedge $-1 $141 $141 $142 $220 reversed $87 $-1 #
coedge $-1 $142 $142 $141 $220 forward $89 $-1 #
coedge $-1 $143 $143 $90 $144 forward $138 $-1 #
edge $-1 $221 -1.0441163663475846e-015 $221 6.2831853071795996 $143 $222 forward 7 unknown #
face $-1 $223 $224 $30 $-1 $225 forward single #
loop $-1 $-1 $226 $91 #
plane-surface $-1 0 -37.066640304655174 0 0 1 0 0 0 1 forward_v I I I I #
coedge $-1 $227 $228 $229 $230 reversed $92 $-1 #
coedge $-1 $231 $94 $232 $233 reversed $59 $-1 #
coedge $-1 $94 $231 $227 $234 forward $59 $-1 #
coedge $-1 $229 $235 $94 $152 forward $224 $-1 #
edge $-1 $236 -34.520371697671287 $237 -10.521956289779816 $151 $238 forward 7 unknown #
loop $-1 $-1 $158 $95 #
plane-surface $-1 45.042327987451102 -37.066640304655181 5.2933297999364726 0 -0.61566148304635926 0.78801074757464917 1 0 0 forward_v I I I I #
loop $-1 $-1 $239 $61 #
coedge $-1 $156 $156 $157 $240 reversed $96 $-1 #
coedge $-1 $157 $157 $156 $240 forward $98 $-1 #
coedge $-1 $158 $158 $99 $159 forward $153 $-1 #
edge $-1 $241 -2.7340862154117539e-015 $241 6.2831853071795978 $158 $242 forward 7 unknown #
face $-1 $243 $244 $24 $-1 $245 reversed single #
loop $-1 $-1 $246 $100 #
plane-surface $-1 -57.041535691396831 0 0 1 0 0 0 0 -1 forward_v I I I I #
coedge $-1 $247 $171 $248 $249 forward $101 $-1 #
coedge $-1 $250 $103 $247 $251 forward $65 $-1 #
coedge $-1 $103 $250 $252 $253 forward $65 $-1 #
coedge $-1 $174 $173 $103 $167 reversed $175 $-1 #
edge $-1 $254 -37.066640304655174 $255 37.066640304655174 $166 $256 forward 7 unknown #
coedge $-1 $105 $104 $257 $258 forward $41 $-1 #
coedge $-1 $259 $260 $104 $170 reversed $244 $-1 #
edge $-1 $177 -57.041535691396831 $261 57.041535691396831 $169 $262 forward 7 unknown #
coedge $-1 $163 $263 $105 $172 reversed $101 $-1 #
edge $-1 $264 -57.041535691396831 $176 57.041535691396831 $171 $265 forward 7 unknown #
coedge $-1 $166 $106 $263 $266 forward $175 $-1 #
coedge $-1 $106 $166 $259 $267 reversed $175 $-1 #
loop $-1 $-1 $173 $243 #
vertex $-1 $107 $268 #
vertex $-1 $107 $269 #
straight-curve $-1 57.041535691396831 0 11.148385678592415 0 1 0 I I #
face $-1 $270 $271 $25 $-1 $272 reversed single #
loop $-1 $-1 $273 $108 #
plane-surface $-1 0 -37.066640304655174 0 0 1 0 0 0 1 forward_v I I I I #
coedge $-1 $185 $114 $274 $275 reversed $109 $-1 #
coedge $-1 $276 $111 $273 $277 reversed $69 $-1 #
coedge $-1 $111 $276 $278 $279 reversed $69 $-1 #
coedge $-1 $192 $182 $111 $186 reversed $109 $-1 #
edge $-1 $280 -37.066640304655174 $281 37.066640304655174 $185 $282 forward 7 unknown #
coedge $-1 $113 $112 $283 $284 reversed $44 $-1 #
coedge $-1 $285 $286 $112 $189 forward $287 $-1 #
edge $-1 $288 -31.644078238054679 $194 -19.150836668629626 $188 $289 forward 7 unknown #
coedge $-1 $290 $274 $113 $191 forward $180 $-1 #
edge $-1 $193 19.150836668629626 $291 31.644078238054679 $190 $292 forward 7 unknown #
coedge $-1 $114 $185 $285 $293 reversed $109 $-1 #
vertex $-1 $191 $294 #
vertex $-1 $189 $295 #
straight-curve $-1 -44.548294121971779 0 6.1584417004105925 0 1 0 I I #
face $-1 $-1 $296 $26 $-1 $297 reversed single #
loop $-1 $-1 $122 $116 #
plane-surface $-1 0 0 11.148385678592415 0 0 1 1 0 0 forward_v I I I I #
coedge $-1 $298 $299 $300 $301 reversed $117 $-1 #
coedge $-1 $302 $119 $121 $206 forward $73 $-1 #
coedge $-1 $119 $302 $298 $303 forward $73 $-1 #
coedge $-1 $300 $122 $119 $203 forward $197 $-1 #
edge $-1 $209 1.7989792749460989 $304 29.359720024051605 $202 $305 forward 7 unknown #
coedge $-1 $306 $307 $120 $205 forward $296 $-1 #
edge $-1 $308 -64.559881969086661 $208 -60.161324851974825 $204 $309 forward 7 unknown #
edge $-1 $209 66.650008370406269 $308 74.133280609310347 $121 $310 forward 7 unknown #
coedge $-1 $122 $300 $306 $311 forward $197 $-1 #
vertex $-1 $205 $312 #
vertex $-1 $123 $313 #
straight-curve $-1 17.378328924444951 22.073952299569559 11.148385678592419 0 -1 0 I I #
coedge $-1 $211 $211 $-1 $314 reversed $126 $-1 #
edge $-1 $315 0 $315 6.2831853071796004 $127 $316 forward 7 unknown #
vertex $-1 $130 $317 #
ellipse-curve $-1 22.890477074266059 34.039593117665135 8.9491071200364996 0 0.5877852598018023 0.80901698891910034 1 0 0 1 I I #
coedge $-1 $215 $215 $-1 $318 reversed $133 $-1 #
edge $-1 $319 0 $319 6.2831853071796004 $134 $320 forward 7 unknown #
vertex $-1 $137 $321 #
ellipse-curve $-1 31.158699298997703 34.039593117665135 8.9491071200364996 0 0.5877852598018023 0.80901698891910034 1 0 0 1 I I #
coedge $-1 $219 $219 $-1 $322 reversed $140 $-1 #
edge $-1 $323 0 $323 6.2831853071796004 $141 $324 forward 7 unknown #
vertex $-1 $144 $325 #
ellipse-curve $-1 39.426921523729362 34.039593117665135 8.9491071200364996 0 0.5877852598018023 0.80901698891910034 1 0 0 1 I I #
face $-1 $-1 $326 $30 $-1 $327 reversed single #
loop $-1 $-1 $229 $145 #
plane-surface $-1 0 0 11.148385678592415 0 0 1 1 0 0 forward_v I I I I #
coedge $-1 $328 $329 $228 $330 forward $146 $-1 #
coedge $-1 $228 $148 $150 $234 reversed $92 $-1 #
coedge $-1 $148 $227 $226 $330 reversed $92 $-1 #
coedge $-1 $331 $151 $148 $230 forward $224 $-1 #
edge $-1 $237 -24.079085933241931 $332 -16.584956306679622 $229 $333 forward 7 unknown #
coedge $-1 $150 $149 $328 $334 reversed $59 $-1 #
coedge $-1 $335 $336 $149 $233 forward $326 $-1 #
edge $-1 $337 -12.975005830834778 $236 -3.464818755813468 $232 $338 forward 7 unknown #
edge $-1 $339 8.8800565823946346e-015 $237 9.5101870750213191 $227 $340 forward 7 unknown #
coedge $-1 $151 $331 $335 $341 forward $224 $-1 #
vertex $-1 $233 $342 #
vertex $-1 $152 $343 #
straight-curve $-1 22.521163993725551 -29.572510678092868 11.148385678592415 -1 0 0 I I #
coedge $-1 $239 $239 $-1 $344 reversed $155 $-1 #
edge $-1 $345 0 $345 6.2831853071796004 $156 $346 forward 7 unknown #
vertex $-1 $159 $347 #
ellipse-curve $-1 45.042327987451088 -33.31957549137401 8.2208577392644511 0 -0.61566148304635926 0.78801074757464917 2 0 0 1 I I #
face $-1 $-1 $175 $24 $-1 $348 reversed single #
loop $-1 $-1 $259 $160 #
plane-surface $-1 0 37.066640304655174 0 0 -1 0 0 0 -1 forward_v I I I I #
coedge $-1 $349 $257 $260 $350 forward $161 $-1 #
coedge $-1 $263 $163 $164 $251 reversed $101 $-1 #
coedge $-1 $257 $349 $163 $249 reversed $161 $-1 #
edge $-1 $264 -11.148385678592415 $351 11.148385678592415 $248 $352 forward 7 unknown #
coedge $-1 $165 $164 $349 $353 forward $65 $-1 #
edge $-1 $255 -57.041535691396831 $351 57.041535691396831 $247 $354 forward 7 unknown #
coedge $-1 $260 $259 $165 $253 reversed $244 $-1 #
edge $-1 $355 -57.041535691396831 $254 57.041535691396831 $252 $356 forward 7 unknown #
vertex $-1 $167 $357 #
vertex $-1 $266 $358 #
straight-curve $-1 57.041535691396831 0 -11.148385678592415 0 -1 0 I I #
coedge $-1 $246 $248 $168 $258 reversed $161 $-1 #
edge $-1 $261 -37.066640304655174 $264 37.066640304655174 $257 $359 forward 7 unknown #
coedge $-1 $252 $169 $174 $267 forward $244 $-1 #
coedge $-1 $169 $252 $246 $350 reversed $244 $-1 #
vertex $-1 $170 $360 #
straight-curve $-1 0 37.066640304655174 11.148385678592415 -1 0 0 I I #
coedge $-1 $171 $247 $173 $266 reversed $101 $-1 #
vertex $-1 $258 $361 #
straight-curve $-1 0 -37.066640304655174 11.148385678592415 1 0 0 I I #
edge $-1 $176 -11.148385678592415 $255 11.148385678592415 $173 $362 forward 7 unknown #
edge $-1 $177 -11.148385678592415 $254 11.148385678592415 $174 $363 forward 7 unknown #
point $-1 57.041535691396831 -37.066640304655174 11.148385678592415 #
point $-1 57.041535691396831 37.066640304655174 11.148385678592415 #
face $-1 $-1 $287 $25 $-1 $364 reversed single #
loop $-1 $-1 $365 $179 #
plane-surface $-1 -57.041535691396831 0 0 1 0 0 0 0 -1 forward_v I I I I #
coedge $-1 $274 $290 $183 $277 forward $180 $-1 #
coedge $-1 $190 $273 $182 $275 forward $180 $-1 #
edge $-1 $281 0.8125094488807223 $193 3.8347913173134875 $274 $366 forward 7 unknown #
coedge $-1 $184 $183 $365 $367 reversed $69 $-1 #
edge $-1 $368 -31.644078238054679 $281 -19.150836668629626 $273 $369 forward 7 unknown #
coedge $-1 $286 $285 $184 $279 forward $287 $-1 #
edge $-1 $280 19.150836668629626 $370 31.644078238054679 $278 $371 forward 7 unknown #
vertex $-1 $279 $372 #
vertex $-1 $277 $373 #
straight-curve $-1 -44.548294121971779 0 3.1361598319778272 0 -1 0 I I #
coedge $-1 $374 $375 $187 $284 forward $271 $-1 #
edge $-1 $291 -37.066640304655174 $288 37.066640304655174 $283 $376 forward 7 unknown #
coedge $-1 $278 $188 $192 $293 forward $287 $-1 #
coedge $-1 $188 $278 $374 $377 reversed $287 $-1 #
loop $-1 $-1 $278 $270 #
vertex $-1 $377 $378 #
straight-curve $-1 -25.397457453342152 37.066640304655174 6.1584417004105925 1 0 0 I I #
coedge $-1 $273 $190 $375 $379 forward $180 $-1 #
vertex $-1 $379 $380 #
straight-curve $-1 -25.397457453342152 -37.066640304655174 6.1584417004105925 -1 0 0 I I #
edge $-1 $194 -3.8347913173134875 $280 -0.8125094488807223 $285 $381 forward 7 unknown #
point $-1 -44.548294121971779 -37.066640304655174 6.1584417004105925 #
point $-1 -44.548294121971779 37.066640304655174 6.1584417004105925 #
loop $-1 $-1 $204 $196 #
plane-surface $-1 0 37.066640304655174 0 0 -1 0 0 0 -1 forward_v I I I I #
coedge $-1 $299 $199 $201 $303 reversed $117 $-1 #
coedge $-1 $199 $298 $382 $383 reversed $117 $-1 #
coedge $-1 $207 $202 $199 $301 forward $197 $-1 #
edge $-1 $304 8.9385936311055509 $384 14.992688005085615 $300 $385 forward 7 unknown #
coedge $-1 $201 $200 $307 $386 reversed $73 $-1 #
edge $-1 $387 -74.133280609310347 $304 -66.650008370406269 $298 $388 forward 7 unknown #
vertex $-1 $203 $389 #
straight-curve $-1 15.579349649498852 31.012545930675124 11.148385678592415 1 0 0 I I #
coedge $-1 $382 $204 $207 $311 reversed $296 $-1 #
coedge $-1 $204 $382 $302 $386 forward $296 $-1 #
vertex $-1 $205 $390 #
straight-curve $-1 17.378328924444951 37.066640304655174 71.309710530567244 0 0 1 I I #
straight-curve $-1 17.378328924444951 -22.908443152583807 50.324278164383969 0 0.80901698891910034 -0.5877852598018023 I I #
edge $-1 $384 -44.939069673550456 $208 -17.378328924444951 $306 $391 forward 7 unknown #
point $-1 17.378328924444951 37.066640304655174 11.148385678592415 #
point $-1 17.378328924444951 31.01254593067511 11.148385678592426 #
edge $-1 $392 1 $392 0 $211 $-1 forward 7 unknown #
vertex $-1 $212 $393 #
ellipse-curve $-1 22.890477074266059 33.174283954106699 7.7581112549441951 0 0.5877852598018023 0.80901698891910034 1 0 0 1 I I #
point $-1 23.890477074266059 34.039593117665135 8.9491071200365013 #
edge $-1 $394 1 $394 0 $215 $-1 forward 7 unknown #
vertex $-1 $216 $395 #
ellipse-curve $-1 31.158699298997703 33.174283954106699 7.7581112549441951 0 0.5877852598018023 0.80901698891910034 1 0 0 1 I I #
point $-1 32.158699298997703 34.039593117665135 8.9491071200365013 #
edge $-1 $396 1 $396 0 $219 $-1 forward 7 unknown #
vertex $-1 $220 $397 #
ellipse-curve $-1 39.426921523729362 33.174283954106699 7.7581112549441951 0 0.5877852598018023 0.80901698891910034 1 0 0 1 I I #
point $-1 40.426921523729362 34.039593117665135 8.9491071200365013 #
loop $-1 $-1 $232 $223 #
plane-surface $-1 57.041535691396831 0 0 -1 0 0 0 0 1 forward_v I I I I #
coedge $-1 $398 $226 $231 $334 forward $146 $-1 #
coedge $-1 $226 $398 $331 $399 reversed $146 $-1 #
edge $-1 $332 36.447622404359464 $339 42.302678283015403 $226 $400 forward 7 unknown #
coedge $-1 $235 $229 $329 $399 forward $224 $-1 #
vertex $-1 $399 $401 #
straight-curve $-1 33.043120283505367 -53.651596611334796 11.148385678592412 0 -1 0 I I #
edge $-1 $339 10.521956289779816 $337 34.520371697671287 $328 $402 forward 7 unknown #
coedge $-1 $336 $232 $235 $341 reversed $326 $-1 #
coedge $-1 $232 $335 $398 $403 forward $326 $-1 #
vertex $-1 $334 $404 #
straight-curve $-1 57.041535691396831 -26.842196260113628 13.281541132283376 0 0.78801074757464917 0.61566148304635926 I I #
vertex $-1 $334 $405 #
straight-curve $-1 33.043120283505367 -37.066640304655181 5.2933297999364726 0 0.78801074757464917 0.61566148304635926 I I #
edge $-1 $406 -37.066640304655174 $236 -29.572510678092865 $335 $407 forward 7 unknown #
point $-1 57.041535691396838 -29.572510678092865 11.148385678592415 #
point $-1 33.043120283505367 -29.572510678092865 11.148385678592415 #
edge $-1 $408 1 $408 0 $239 $-1 forward 7 unknown #
vertex $-1 $240 $409 #
ellipse-curve $-1 45.042327987451088 -30.837802285109738 5.0443329550563938 0 -0.61566148304635926 0.78801074757464917 2 0 0 1 I I #
point $-1 47.042327987451088 -33.31957549137401 8.2208577392644422 #
plane-surface $-1 57.041535691396831 0 0 -1 0 0 0 0 1 forward_v I I I I #
coedge $-1 $248 $246 $250 $353 reversed $161 $-1 #
edge $-1 $261 -11.148385678592415 $355 11.148385678592415 $260 $410 forward 7 unknown #
vertex $-1 $353 $411 #
straight-curve $-1 -57.041535691396831 -37.066640304655174 0 0 0 -1 I I #
edge $-1 $351 -37.066640304655174 $355 37.066640304655174 $349 $412 forward 7 unknown #
straight-curve $-1 0 -37.066640304655174 -11.148385678592415 -1 0 0 I I #
vertex $-1 $253 $413 #
straight-curve $-1 0 37.066640304655174 -11.148385678592415 1 0 0 I I #
point $-1 57.041535691396831 37.066640304655174 -11.148385678592415 #
point $-1 57.041535691396831 -37.066640304655174 -11.148385678592415 #
straight-curve $-1 -57.041535691396831 0 11.148385678592415 0 -1 0 I I #
point $-1 -57.041535691396831 37.066640304655174 11.148385678592415 #
point $-1 -57.041535691396831 -37.066640304655174 11.148385678592415 #
straight-curve $-1 57.041535691396831 -37.066640304655174 0 0 0 -1 I I #
straight-curve $-1 57.041535691396831 37.066640304655174 0 0 0 -1 I I #
plane-surface $-1 0 37.066640304655174 0 0 -1 0 0 0 -1 forward_v I I I I #
coedge $-1 $375 $374 $276 $367 forward $271 $-1 #
straight-curve $-1 -44.548294121971779 -37.066640304655174 2.3236503830971049 0 0 1 I I #
edge $-1 $370 -37.066640304655174 $368 37.066640304655174 $365 $414 forward 7 unknown #
vertex $-1 $277 $415 #
straight-curve $-1 -25.397457453342152 -37.066640304655174 3.1361598319778272 1 0 0 I I #
vertex $-1 $279 $416 #
straight-curve $-1 -25.397457453342152 37.066640304655174 3.1361598319778272 -1 0 0 I I #
point $-1 -44.548294121971779 37.066640304655174 3.1361598319778272 #
point $-1 -44.548294121971779 -37.066640304655174 3.1361598319778272 #
coedge $-1 $365 $283 $286 $377 forward $271 $-1 #
coedge $-1 $283 $365 $290 $379 reversed $271 $-1 #
straight-curve $-1 -57.041535691396831 0 6.1584417004105925 0 1 0 I I #
edge $-1 $288 -6.1584417004105925 $370 -3.1361598319778272 $286 $417 forward 7 unknown #
point $-1 -57.041535691396831 37.066640304655174 6.1584417004105925 #
edge $-1 $291 -6.1584417004105925 $368 -3.1361598319778272 $375 $418 forward 7 unknown #
point $-1 -57.041535691396831 -37.066640304655174 6.1584417004105925 #
straight-curve $-1 -44.548294121971779 37.066640304655174 2.3236503830971049 0 0 -1 I I #
coedge $-1 $307 $306 $299 $383 forward $296 $-1 #
edge $-1 $384 60.161324851974825 $387 64.559881969086661 $382 $419 forward 7 unknown #
vertex $-1 $311 $420 #
straight-curve $-1 44.939069673550456 22.073952299569559 11.148385678592419 0 1 0 I I #
edge $-1 $387 -29.359720024051605 $308 -1.7989792749460989 $307 $421 forward 7 unknown #
vertex $-1 $386 $422 #
straight-curve $-1 44.939069673550456 -22.908443152583807 50.324278164383969 0 -0.80901698891910034 0.5877852598018023 I I #
point $-1 44.939069673550456 31.01254593067511 11.148385678592426 #
point $-1 17.378328924444951 37.066640304655181 6.7498285614805766 #
straight-curve $-1 0 37.066640304655174 11.148385678592415 -1 0 0 I I #
vertex $-1 $314 $423 #
point $-1 23.890477074266059 33.174283954106699 7.7581112549441951 #
vertex $-1 $318 $424 #
point $-1 32.158699298997703 33.174283954106699 7.7581112549441951 #
vertex $-1 $322 $425 #
point $-1 40.426921523729362 33.174283954106699 7.7581112549441951 #
coedge $-1 $329 $328 $336 $403 reversed $146 $-1 #
edge $-1 $332 33.043120283505367 $406 57.041535691396831 $329 $426 forward 7 unknown #
straight-curve $-1 33.043120283505367 -37.066640304655174 47.596008082951883 0 0 -1 I I #
point $-1 33.043120283505367 -37.066640304655174 11.148385678592415 #
straight-curve $-1 22.521163993725551 -37.066640304655174 5.2933297999364832 1 0 0 I I #
edge $-1 $406 -11.148385678592415 $337 -5.2933297999364779 $336 $427 forward 7 unknown #
point $-1 57.041535691396838 -37.066640304655174 5.2933297999364779 #
point $-1 33.043120283505367 -37.066640304655174 5.2933297999364779 #
vertex $-1 $341 $428 #
straight-curve $-1 57.041535691396831 0 11.148385678592415 0 1 0 I I #
vertex $-1 $344 $429 #
point $-1 47.042327987451088 -30.837802285109738 5.0443329550563938 #
straight-curve $-1 -57.041535691396831 37.066640304655174 0 0 0 -1 I I #
point $-1 -57.041535691396831 -37.066640304655174 -11.148385678592415 #
straight-curve $-1 -57.041535691396831 0 -11.148385678592415 0 1 0 I I #
point $-1 -57.041535691396831 37.066640304655174 -11.148385678592415 #
straight-curve $-1 -57.041535691396831 0 3.1361598319778272 0 -1 0 I I #
point $-1 -57.041535691396831 -37.066640304655174 3.1361598319778272 #
point $-1 -57.041535691396831 37.066640304655174 3.1361598319778272 #
straight-curve $-1 -57.041535691396831 37.066640304655174 0 0 0 -1 I I #
straight-curve $-1 -57.041535691396831 -37.066640304655174 0 0 0 -1 I I #
straight-curve $-1 44.939069673550456 37.066640304655174 71.309710530567244 0 0 -1 I I #
point $-1 44.939069673550456 37.066640304655174 11.148385678592415 #
straight-curve $-1 15.579349649498852 37.066640304655174 6.7498285614805731 -1 0 0 I I #
point $-1 44.939069673550456 37.066640304655181 6.7498285614805766 #
point $-1 22.890477074266059 32.586498694304893 6.9490942660250941 #
point $-1 31.158699298997703 32.586498694304893 6.9490942660250941 #
point $-1 39.426921523729362 32.586498694304893 6.9490942660250941 #
straight-curve $-1 0 -37.066640304655174 11.148385678592415 1 0 0 I I #
straight-curve $-1 57.041535691396831 -37.066640304655174 0 0 0 -1 I I #
point $-1 57.041535691396831 -37.066640304655174 11.148385678592415 #
point $-1 45.042327987451088 -29.606479319017019 3.4683114599070954 #
End-of-ACIS-data 