500 0 9 0           
7 Unknown 11 ACIS 5.0 NT 24 Fri Mar 26 16:44:01 1999 
-1 9.9999999999999995e-007 1e-010 
body $-1 $9 $-1 $10 #
body $-1 $11 $-1 $12 #
body $-1 $13 $-1 $14 #
body $-1 $15 $-1 $16 #
body $-1 $17 $-1 $18 #
body $-1 $19 $-1 $20 #
body $-1 $21 $-1 $22 #
body $-1 $23 $-1 $24 #
body $-1 $25 $-1 $26 #
lump $-1 $-1 $27 $0 #
transform $-1 1 0 0 0 1 0 0 0 1 62.926725058748133 26.087311193290216 12.270040670453509 1 rotate no_reflect no_shear #
lump $-1 $-1 $28 $1 #
transform $-1 1 0 0 0 1 0 0 0 1 62.926725058748133 26.087311193290216 12.270040670453509 1 rotate no_reflect no_shear #
lump $-1 $-1 $29 $2 #
transform $-1 1 0 0 0 1 0 0 0 1 62.926725058748133 26.087311193290216 12.270040670453509 1 rotate no_reflect no_shear #
lump $-1 $-1 $30 $3 #
transform $-1 1 0 0 0 1 0 0 0 1 62.926725058748133 26.087311193290216 12.270040670453509 1 rotate no_reflect no_shear #
lump $-1 $-1 $31 $4 #
transform $-1 1 0 0 0 1 0 0 0 1 62.926725058748133 26.087311193290216 12.270040670453509 1 rotate no_reflect no_shear #
lump $-1 $-1 $32 $5 #
transform $-1 1 0 0 0 1 0 0 0 1 62.926725058748133 26.087311193290216 12.270040670453509 1 rotate no_reflect no_shear #
lump $-1 $-1 $33 $6 #
transform $-1 1 0 0 0 1 0 0 0 1 62.926725058748133 26.087311193290216 12.270040670453509 1 rotate no_reflect no_shear #
lump $-1 $-1 $34 $7 #
transform $-1 1 0 0 0 1 0 0 0 1 62.926725058748133 26.087311193290216 12.270040670453509 1 rotate no_reflect no_shear #
lump $-1 $-1 $35 $8 #
transform $-1 1 0 0 0 1 0 0 0 1 62.926725058748133 26.087311193290216 12.270040670453509 1 rotate no_reflect no_shear #
shell $-1 $-1 $-1 $36 $-1 $9 #
shell $-1 $-1 $-1 $37 $-1 $11 #
shell $-1 $-1 $-1 $38 $-1 $13 #
shell $-1 $-1 $-1 $39 $-1 $15 #
shell $-1 $-1 $-1 $40 $-1 $17 #
shell $-1 $-1 $-1 $41 $-1 $19 #
shell $-1 $-1 $-1 $42 $-1 $21 #
shell $-1 $-1 $-1 $43 $-1 $23 #
shell $-1 $-1 $-1 $44 $-1 $25 #
face $-1 $45 $46 $27 $-1 $47 forward single #
face $-1 $48 $49 $28 $-1 $50 reversed single #
face $-1 $51 $52 $29 $-1 $53 forward single #
face $-1 $54 $55 $30 $-1 $56 reversed single #
face $-1 $57 $58 $31 $-1 $59 forward single #
face $-1 $60 $61 $32 $-1 $62 reversed single #
face $-1 $63 $64 $33 $-1 $65 forward single #
face $-1 $66 $67 $34 $-1 $68 reversed single #
face $-1 $69 $70 $35 $-1 $71 forward single #
face $-1 $72 $73 $27 $-1 $74 reversed single #
loop $-1 $-1 $75 $36 #
plane-surface $-1 0 0 12.270040670453509 0 0 1 1 0 0 forward_v I I I I #
face $-1 $76 $77 $28 $-1 $78 reversed single #
loop $-1 $-1 $79 $37 #
plane-surface $-1 -25.901243567031162 -113.51246479560594 98.912821882767446 -1 0 0 0 -0.69465837861970381 0.71933979245794832 forward_v I I I I #
face $-1 $80 $81 $29 $-1 $82 forward single #
loop $-1 $83 $84 $38 #
cone-surface $-1 -38.687177477135421 -23.069734594923247 9.2858667609653356 0 0.69465837861970381 -0.71933979245794832 1 0 0 1 I I 0 1 1 forward I I I I #
face $-1 $85 $86 $30 $-1 $87 reversed single #
loop $-1 $-1 $88 $39 #
plane-surface $-1 51.473111387239683 -113.51246479560594 98.912821882767446 -1 0 0 0 -0.69465837861970381 0.71933979245794832 forward_v I I I I #
face $-1 $89 $90 $31 $-1 $91 forward single #
loop $-1 $92 $93 $40 #
cone-surface $-1 38.687177477135421 -23.069734594923247 9.2858667609653356 0 0.69465837861970381 -0.71933979245794832 1 0 0 1 I I 0 1 1 forward I I I I #
face $-1 $94 $95 $32 $-1 $96 reversed single #
loop $-1 $-1 $97 $41 #
plane-surface $-1 -51.473111387239683 75.981182756471327 135.15636047492472 1 0 0 0 -0.69465837861970381 -0.71933979245794832 forward_v I I I I #
face $-1 $98 $99 $33 $-1 $100 forward single #
loop $-1 $101 $102 $42 #
cone-surface $-1 -38.687177477135421 23.069734594923251 9.2858667609653356 0 -0.69465837861970381 -0.71933979245794832 1 0 0 1 I I 0 1 1 forward I I I I #
face $-1 $103 $104 $34 $-1 $105 reversed single #
loop $-1 $-1 $106 $43 #
plane-surface $-1 25.901243567031162 75.981182756471327 135.15636047492472 1 0 0 0 -0.69465837861970381 -0.71933979245794832 forward_v I I I I #
face $-1 $107 $108 $35 $-1 $109 forward single #
loop $-1 $110 $111 $44 #
cone-surface $-1 38.687177477135421 23.069734594923251 9.2858667609653356 0 -0.69465837861970381 -0.71933979245794832 1 0 0 1 I I 0 1 1 forward I I I I #
face $-1 $112 $113 $27 $-1 $114 reversed single #
loop $-1 $-1 $115 $45 #
plane-surface $-1 0 0 -12.270040670453509 0 0 1 1 0 0 forward_v I I I I #
coedge $-1 $116 $117 $118 $119 forward $46 $-1 #
face $-1 $120 $121 $28 $-1 $122 reversed single #
loop $-1 $-1 $123 $48 #
plane-surface $-1 -38.687177477135421 -26.087311193290219 8.3814271951309394 0 -0.69465837861970381 0.71933979245794832 1 0 0 forward_v I I I I #
coedge $-1 $124 $125 $126 $127 reversed $49 $-1 #
face $-1 $-1 $128 $29 $-1 $129 forward single #
loop $-1 $130 $131 $51 #
cone-surface $-1 -38.687177477135421 -21.718217327691434 7.8863296929094648 0 0.69465837861970381 -0.71933979245794832 0.5 0 0 1 I I -0.70710678118654746 0.70710678118654746 0.5 forward I I I I #
loop $-1 $-1 $132 $38 #
coedge $-1 $84 $84 $133 $134 reversed $52 $-1 #
face $-1 $135 $136 $30 $-1 $137 reversed single #
loop $-1 $-1 $138 $54 #
plane-surface $-1 38.687177477135421 -26.087311193290219 8.3814271951309394 0 -0.69465837861970381 0.71933979245794832 1 0 0 forward_v I I I I #
coedge $-1 $139 $140 $141 $142 reversed $55 $-1 #
face $-1 $-1 $143 $31 $-1 $144 forward single #
loop $-1 $145 $146 $57 #
cone-surface $-1 38.687177477135421 -21.718217327691434 7.8863296929094648 0 0.69465837861970381 -0.71933979245794832 0.5 0 0 1 I I -0.70710678118654746 0.70710678118654746 0.5 forward I I I I #
loop $-1 $-1 $147 $40 #
coedge $-1 $93 $93 $148 $149 reversed $58 $-1 #
face $-1 $150 $151 $32 $-1 $152 reversed single #
loop $-1 $-1 $153 $60 #
plane-surface $-1 -38.687177477135421 -11.44397084584439 44.624965787288218 0 0.69465837861970381 0.71933979245794832 1 0 0 forward_v I I I I #
coedge $-1 $154 $155 $156 $157 reversed $61 $-1 #
face $-1 $-1 $158 $33 $-1 $159 forward single #
loop $-1 $160 $161 $63 #
cone-surface $-1 -38.687177477135421 21.718217327691438 7.8863296929094648 0 -0.69465837861970381 -0.71933979245794832 0.5 0 0 1 I I -0.70710678118654746 0.70710678118654746 0.5 forward I I I I #
loop $-1 $-1 $162 $42 #
coedge $-1 $102 $102 $163 $164 reversed $64 $-1 #
face $-1 $165 $166 $34 $-1 $167 reversed single #
loop $-1 $-1 $168 $66 #
plane-surface $-1 38.687177477135421 -11.44397084584439 44.624965787288218 0 0.69465837861970381 0.71933979245794832 1 0 0 forward_v I I I I #
coedge $-1 $169 $170 $171 $172 reversed $67 $-1 #
face $-1 $-1 $173 $35 $-1 $174 forward single #
loop $-1 $175 $176 $69 #
cone-surface $-1 38.687177477135421 21.718217327691438 7.8863296929094648 0 -0.69465837861970381 -0.71933979245794832 0.5 0 0 1 I I -0.70710678118654746 0.70710678118654746 0.5 forward I I I I #
loop $-1 $-1 $177 $44 #
coedge $-1 $111 $111 $178 $179 reversed $70 $-1 #
face $-1 $180 $181 $27 $-1 $182 reversed single #
loop $-1 $-1 $183 $72 #
plane-surface $-1 0 -26.087311193290216 0 0 1 0 0 0 1 forward_v I I I I #
coedge $-1 $184 $185 $186 $187 forward $73 $-1 #
coedge $-1 $188 $75 $189 $190 forward $46 $-1 #
coedge $-1 $75 $188 $191 $192 forward $46 $-1 #
coedge $-1 $193 $194 $75 $119 reversed $195 $-1 #
edge $-1 $196 -26.087311193290216 $197 26.087311193290216 $118 $198 forward 7 unknown #
face $-1 $199 $200 $28 $-1 $201 reversed single #
loop $-1 $-1 $202 $76 #
plane-surface $-1 -51.473111387239683 -113.51246479560594 98.912821882767446 1 0 0 0 0.69465837861970381 -0.71933979245794832 forward_v I I I I #
coedge $-1 $203 $204 $205 $206 reversed $77 $-1 #
coedge $-1 $125 $79 $207 $208 reversed $49 $-1 #
coedge $-1 $79 $124 $203 $209 reversed $49 $-1 #
coedge $-1 $205 $210 $79 $127 forward $211 $-1 #
edge $-1 $212 30.668921204512753 $213 34.695698245402781 $126 $214 forward 7 unknown #
loop $-1 $-1 $133 $80 #
plane-surface $-1 -38.687177477135421 -26.087311193290219 8.3814271951309394 0 -0.69465837861970381 0.71933979245794832 1 0 0 forward_v I I I I #
loop $-1 $-1 $215 $51 #
coedge $-1 $131 $131 $132 $216 reversed $81 $-1 #
coedge $-1 $132 $132 $131 $216 forward $83 $-1 #
coedge $-1 $133 $133 $84 $134 forward $128 $-1 #
edge $-1 $217 -8.7685996555267595e-017 $217 6.2831853071796004 $133 $218 forward 7 unknown #
face $-1 $219 $220 $30 $-1 $221 reversed single #
loop $-1 $-1 $222 $85 #
plane-surface $-1 25.901243567031162 -113.51246479560594 98.912821882767446 1 0 0 0 0.69465837861970381 -0.71933979245794832 forward_v I I I I #
coedge $-1 $223 $224 $225 $226 reversed $86 $-1 #
coedge $-1 $140 $88 $227 $228 reversed $55 $-1 #
coedge $-1 $88 $139 $223 $229 reversed $55 $-1 #
coedge $-1 $225 $230 $88 $142 forward $231 $-1 #
edge $-1 $232 30.668921204512753 $233 34.695698245402781 $141 $234 forward 7 unknown #
loop $-1 $-1 $148 $89 #
plane-surface $-1 38.687177477135421 -26.087311193290219 8.3814271951309394 0 -0.69465837861970381 0.71933979245794832 1 0 0 forward_v I I I I #
loop $-1 $-1 $235 $57 #
coedge $-1 $146 $146 $147 $236 reversed $90 $-1 #
coedge $-1 $147 $147 $146 $236 forward $92 $-1 #
coedge $-1 $148 $148 $93 $149 forward $143 $-1 #
edge $-1 $237 -8.7685996555267595e-017 $237 6.2831853071796004 $148 $238 forward 7 unknown #
face $-1 $239 $240 $32 $-1 $241 reversed single #
loop $-1 $-1 $242 $94 #
plane-surface $-1 -25.901243567031162 75.981182756471327 135.15636047492472 -1 0 0 0 0.69465837861970381 0.71933979245794832 forward_v I I I I #
coedge $-1 $243 $244 $245 $246 reversed $95 $-1 #
coedge $-1 $155 $97 $247 $248 reversed $61 $-1 #
coedge $-1 $97 $154 $243 $249 reversed $61 $-1 #
coedge $-1 $245 $250 $97 $157 forward $251 $-1 #
edge $-1 $252 11.903280184945448 $253 15.930057225835476 $156 $254 forward 7 unknown #
loop $-1 $-1 $163 $98 #
plane-surface $-1 -38.687177477135421 -11.44397084584439 44.624965787288218 0 0.69465837861970381 0.71933979245794832 1 0 0 forward_v I I I I #
loop $-1 $-1 $255 $63 #
coedge $-1 $161 $161 $162 $256 reversed $99 $-1 #
coedge $-1 $162 $162 $161 $256 forward $101 $-1 #
coedge $-1 $163 $163 $102 $164 forward $158 $-1 #
edge $-1 $257 -1.2339611619077996e-015 $257 6.2831853071795996 $163 $258 forward 7 unknown #
face $-1 $259 $260 $34 $-1 $261 forward single #
loop $-1 $-1 $262 $103 #
plane-surface $-1 51.473111387239683 75.981182756471327 135.15636047492472 -1 0 0 0 0.69465837861970381 0.71933979245794832 forward_v I I I I #
coedge $-1 $263 $264 $265 $266 reversed $104 $-1 #
coedge $-1 $170 $106 $267 $268 reversed $67 $-1 #
coedge $-1 $106 $169 $263 $269 reversed $67 $-1 #
coedge $-1 $265 $270 $106 $172 forward $260 $-1 #
edge $-1 $271 11.903280184945448 $272 15.930057225835476 $171 $273 forward 7 unknown #
loop $-1 $-1 $178 $107 #
plane-surface $-1 38.687177477135421 -11.44397084584439 44.624965787288218 0 0.69465837861970381 0.71933979245794832 1 0 0 forward_v I I I I #
loop $-1 $-1 $274 $69 #
coedge $-1 $176 $176 $177 $275 reversed $108 $-1 #
coedge $-1 $177 $177 $176 $275 forward $110 $-1 #
coedge $-1 $178 $178 $111 $179 forward $173 $-1 #
edge $-1 $276 -1.2339611619077996e-015 $276 6.2831853071795996 $178 $277 forward 7 unknown #
face $-1 $278 $279 $27 $-1 $280 reversed single #
loop $-1 $-1 $281 $112 #
plane-surface $-1 -62.926725058748133 0 0 1 0 0 0 0 -1 forward_v I I I I #
coedge $-1 $282 $191 $283 $284 forward $113 $-1 #
coedge $-1 $285 $115 $282 $286 forward $73 $-1 #
coedge $-1 $115 $285 $287 $288 forward $73 $-1 #
coedge $-1 $194 $193 $115 $187 reversed $195 $-1 #
edge $-1 $289 -26.087311193290216 $290 26.087311193290216 $186 $291 forward 7 unknown #
coedge $-1 $117 $116 $292 $293 forward $46 $-1 #
coedge $-1 $294 $295 $116 $190 reversed $279 $-1 #
edge $-1 $197 -62.926725058748133 $296 62.926725058748133 $189 $297 forward 7 unknown #
coedge $-1 $183 $298 $117 $192 reversed $113 $-1 #
edge $-1 $299 -62.926725058748133 $196 62.926725058748133 $191 $300 forward 7 unknown #
coedge $-1 $186 $118 $298 $301 forward $195 $-1 #
coedge $-1 $118 $186 $294 $302 reversed $195 $-1 #
loop $-1 $-1 $193 $278 #
vertex $-1 $119 $303 #
vertex $-1 $119 $304 #
straight-curve $-1 62.926725058748133 0 12.270040670453509 0 1 0 I I #
face $-1 $-1 $211 $28 $-1 $305 forward single #
loop $-1 $-1 $306 $120 #
plane-surface $-1 0 -26.087311193290216 0 0 1 0 0 0 1 forward_v I I I I #
coedge $-1 $307 $308 $309 $310 reversed $121 $-1 #
coedge $-1 $311 $123 $125 $209 forward $77 $-1 #
coedge $-1 $123 $311 $307 $312 forward $77 $-1 #
coedge $-1 $309 $126 $123 $206 forward $211 $-1 #
edge $-1 $213 6.5576548284634519 $313 32.129522648671973 $205 $314 forward 7 unknown #
coedge $-1 $315 $316 $124 $208 forward $200 $-1 #
edge $-1 $317 -41.074983746252784 $212 -37.186370270930212 $207 $318 forward 7 unknown #
edge $-1 $213 -5.5978788927145748 $317 -5.0235306441864656e-015 $125 $319 forward 7 unknown #
coedge $-1 $126 $309 $315 $320 forward $211 $-1 #
loop $-1 $-1 $309 $199 #
vertex $-1 $208 $321 #
vertex $-1 $127 $322 #
straight-curve $-1 -25.901243567031162 -56.756232397802968 12.270040670453511 0 1 0 I I #
coedge $-1 $215 $215 $-1 $323 reversed $130 $-1 #
edge $-1 $324 0 $324 6.2831853071796004 $131 $325 forward 7 unknown #
vertex $-1 $134 $326 #
ellipse-curve $-1 -38.687177477135421 -24.0739226728452 10.325733932792225 0 -0.69465837861970381 0.71933979245794832 1 0 0 1 I I #
face $-1 $-1 $231 $30 $-1 $327 forward single #
loop $-1 $-1 $328 $135 #
plane-surface $-1 0 -26.087311193290216 0 0 1 0 0 0 1 forward_v I I I I #
coedge $-1 $329 $330 $331 $332 reversed $136 $-1 #
coedge $-1 $333 $138 $140 $229 forward $86 $-1 #
coedge $-1 $138 $333 $329 $334 forward $86 $-1 #
coedge $-1 $331 $141 $138 $226 forward $231 $-1 #
edge $-1 $233 -32.129522648671973 $335 -6.5576548284634519 $225 $336 forward 7 unknown #
coedge $-1 $337 $338 $139 $228 forward $220 $-1 #
edge $-1 $339 -41.074983746252784 $232 -37.186370270930212 $227 $340 forward 7 unknown #
edge $-1 $233 -5.5978788927145748 $339 -5.0235306441864656e-015 $140 $341 forward 7 unknown #
coedge $-1 $141 $331 $337 $342 forward $231 $-1 #
loop $-1 $-1 $331 $219 #
vertex $-1 $228 $343 #
vertex $-1 $142 $344 #
straight-curve $-1 51.473111387239683 -56.756232397802968 12.270040670453511 0 1 0 I I #
coedge $-1 $235 $235 $-1 $345 reversed $145 $-1 #
edge $-1 $346 0 $346 6.2831853071796004 $146 $347 forward 7 unknown #
vertex $-1 $149 $348 #
ellipse-curve $-1 38.687177477135421 -24.0739226728452 10.325733932792225 0 -0.69465837861970381 0.71933979245794832 1 0 0 1 I I #
face $-1 $-1 $251 $32 $-1 $349 forward single #
loop $-1 $-1 $350 $150 #
plane-surface $-1 0 26.087311193290216 0 0 -1 0 0 0 -1 forward_v I I I I #
coedge $-1 $351 $352 $353 $354 reversed $151 $-1 #
coedge $-1 $355 $153 $155 $249 forward $95 $-1 #
coedge $-1 $153 $355 $351 $356 forward $95 $-1 #
coedge $-1 $353 $156 $153 $246 forward $251 $-1 #
edge $-1 $253 -32.129522648671973 $357 -6.5576548284634519 $245 $358 forward 7 unknown #
coedge $-1 $359 $360 $154 $248 forward $240 $-1 #
edge $-1 $361 -59.196753042331423 $252 -55.308139567008851 $247 $362 forward 7 unknown #
edge $-1 $253 46.576743493865877 $361 52.174622386580452 $155 $363 forward 7 unknown #
coedge $-1 $156 $353 $359 $364 forward $251 $-1 #
loop $-1 $-1 $353 $239 #
vertex $-1 $248 $365 #
vertex $-1 $157 $366 #
straight-curve $-1 -51.473111387239683 37.990591378235663 12.270040670453511 0 -1 0 I I #
coedge $-1 $255 $255 $-1 $367 reversed $160 $-1 #
edge $-1 $368 0 $368 6.2831853071796004 $161 $369 forward 7 unknown #
vertex $-1 $164 $370 #
ellipse-curve $-1 -38.687177477135421 24.073922672845207 10.325733932792227 0 0.69465837861970381 0.71933979245794832 1 0 0 1 I I #
face $-1 $-1 $371 $34 $-1 $372 reversed single #
loop $-1 $-1 $171 $165 #
plane-surface $-1 0 0 12.270040670453509 0 0 1 1 0 0 forward_v I I I I #
coedge $-1 $373 $374 $375 $376 reversed $166 $-1 #
coedge $-1 $377 $168 $170 $269 forward $104 $-1 #
coedge $-1 $168 $377 $373 $378 forward $104 $-1 #
coedge $-1 $375 $171 $168 $266 forward $260 $-1 #
edge $-1 $272 6.5576548284634519 $379 32.129522648671973 $265 $380 forward 7 unknown #
coedge $-1 $381 $382 $169 $268 forward $371 $-1 #
edge $-1 $383 -59.196753042331423 $271 -55.308139567008851 $267 $384 forward 7 unknown #
edge $-1 $272 46.576743493865877 $383 52.174622386580452 $170 $385 forward 7 unknown #
coedge $-1 $171 $375 $381 $386 forward $260 $-1 #
vertex $-1 $172 $387 #
vertex $-1 $172 $388 #
straight-curve $-1 25.901243567031162 37.990591378235663 12.270040670453511 0 -1 0 I I #
coedge $-1 $274 $274 $-1 $389 reversed $175 $-1 #
edge $-1 $390 0 $390 6.2831853071796004 $176 $391 forward 7 unknown #
vertex $-1 $179 $392 #
ellipse-curve $-1 38.687177477135421 24.073922672845207 10.325733932792227 0 0.69465837861970381 0.71933979245794832 1 0 0 1 I I #
face $-1 $-1 $195 $27 $-1 $393 reversed single #
loop $-1 $-1 $294 $180 #
plane-surface $-1 0 26.087311193290216 0 0 -1 0 0 0 -1 forward_v I I I I #
coedge $-1 $394 $292 $295 $395 forward $181 $-1 #
coedge $-1 $298 $183 $184 $286 reversed $113 $-1 #
coedge $-1 $292 $394 $183 $284 reversed $181 $-1 #
edge $-1 $299 -12.270040670453509 $396 12.270040670453509 $283 $397 forward 7 unknown #
coedge $-1 $185 $184 $394 $398 forward $73 $-1 #
edge $-1 $290 -62.926725058748133 $396 62.926725058748133 $282 $399 forward 7 unknown #
coedge $-1 $295 $294 $185 $288 reversed $279 $-1 #
edge $-1 $400 -62.926725058748133 $289 62.926725058748133 $287 $401 forward 7 unknown #
vertex $-1 $187 $402 #
vertex $-1 $301 $403 #
straight-curve $-1 62.926725058748133 0 -12.270040670453509 0 -1 0 I I #
coedge $-1 $281 $283 $188 $293 reversed $181 $-1 #
edge $-1 $296 -26.087311193290216 $299 26.087311193290216 $292 $404 forward 7 unknown #
coedge $-1 $287 $189 $194 $302 forward $279 $-1 #
coedge $-1 $189 $287 $281 $395 reversed $279 $-1 #
vertex $-1 $190 $405 #
straight-curve $-1 0 26.087311193290216 12.270040670453509 -1 0 0 I I #
coedge $-1 $191 $282 $193 $301 reversed $113 $-1 #
vertex $-1 $293 $406 #
straight-curve $-1 0 -26.087311193290216 12.270040670453509 1 0 0 I I #
edge $-1 $196 -12.270040670453509 $290 12.270040670453509 $193 $407 forward 7 unknown #
edge $-1 $197 -12.270040670453509 $289 12.270040670453509 $194 $408 forward 7 unknown #
point $-1 62.926725058748133 -26.087311193290216 12.270040670453509 #
point $-1 62.926725058748133 26.087311193290216 12.270040670453509 #
plane-surface $-1 0 0 12.270040670453509 0 0 1 1 0 0 forward_v I I I I #
coedge $-1 $316 $315 $308 $409 forward $200 $-1 #
coedge $-1 $308 $202 $204 $312 reversed $121 $-1 #
coedge $-1 $202 $307 $306 $409 reversed $121 $-1 #
coedge $-1 $210 $205 $202 $310 forward $211 $-1 #
edge $-1 $313 -34.695698245402781 $410 -30.668921204512753 $309 $411 forward 7 unknown #
coedge $-1 $204 $203 $316 $412 reversed $77 $-1 #
edge $-1 $413 5.0235306441864656e-015 $313 5.5978788927145748 $307 $414 forward 7 unknown #
vertex $-1 $206 $415 #
straight-curve $-1 -19.343588738567711 -22.060534152400187 12.270040670453509 -1 0 0 I I #
coedge $-1 $306 $207 $210 $320 reversed $200 $-1 #
coedge $-1 $207 $306 $311 $412 forward $200 $-1 #
vertex $-1 $208 $416 #
straight-curve $-1 -25.901243567031162 -26.087311193290219 49.456410941383723 0 0 1 I I #
straight-curve $-1 -25.901243567031162 -26.087311193290219 8.3814271951309394 0 -0.71933979245794832 -0.69465837861970381 I I #
edge $-1 $410 -51.473111387239683 $212 -25.901243567031162 $315 $417 forward 7 unknown #
point $-1 -25.901243567031162 -26.087311193290216 12.270040670453509 #
point $-1 -25.901243567031162 -22.060534152400187 12.270040670453509 #
edge $-1 $418 1 $418 0 $215 $-1 forward 7 unknown #
vertex $-1 $216 $419 #
ellipse-curve $-1 -38.687177477135421 -22.065546517001287 8.2459995891384388 0 -0.69465837861970381 0.71933979245794832 1 0 0 1 I I #
point $-1 -37.687177477135421 -24.073922672845203 10.325733932792229 #
plane-surface $-1 0 0 12.270040670453509 0 0 1 1 0 0 forward_v I I I I #
coedge $-1 $338 $337 $330 $420 forward $220 $-1 #
coedge $-1 $330 $222 $224 $334 reversed $136 $-1 #
coedge $-1 $222 $329 $328 $420 reversed $136 $-1 #
coedge $-1 $230 $225 $222 $332 forward $231 $-1 #
edge $-1 $335 -34.695698245402781 $421 -30.668921204512753 $331 $422 forward 7 unknown #
coedge $-1 $224 $223 $338 $423 reversed $86 $-1 #
edge $-1 $424 5.0235306441864656e-015 $335 5.5978788927145748 $329 $425 forward 7 unknown #
vertex $-1 $226 $426 #
straight-curve $-1 19.343588738567711 -22.060534152400187 12.270040670453509 -1 0 0 I I #
coedge $-1 $328 $227 $230 $342 reversed $220 $-1 #
coedge $-1 $227 $328 $333 $423 forward $220 $-1 #
vertex $-1 $228 $427 #
straight-curve $-1 51.473111387239683 -26.087311193290219 49.456410941383723 0 0 1 I I #
straight-curve $-1 51.473111387239683 -26.087311193290219 8.3814271951309394 0 -0.71933979245794832 -0.69465837861970381 I I #
edge $-1 $421 25.901243567031162 $232 51.473111387239683 $337 $428 forward 7 unknown #
point $-1 51.473111387239683 -26.087311193290216 12.270040670453509 #
point $-1 51.473111387239683 -22.060534152400187 12.270040670453509 #
edge $-1 $429 1 $429 0 $235 $-1 forward 7 unknown #
vertex $-1 $236 $430 #
ellipse-curve $-1 38.687177477135421 -22.065546517001287 8.2459995891384388 0 -0.69465837861970381 0.71933979245794832 1 0 0 1 I I #
point $-1 39.687177477135421 -24.073922672845203 10.325733932792229 #
plane-surface $-1 0 0 12.270040670453509 0 0 1 1 0 0 forward_v I I I I #
coedge $-1 $360 $359 $352 $431 forward $240 $-1 #
coedge $-1 $352 $242 $244 $356 reversed $151 $-1 #
coedge $-1 $242 $351 $350 $431 reversed $151 $-1 #
coedge $-1 $250 $245 $242 $354 forward $251 $-1 #
edge $-1 $357 -15.930057225835476 $432 -11.903280184945448 $353 $433 forward 7 unknown #
coedge $-1 $244 $243 $360 $434 reversed $95 $-1 #
edge $-1 $435 -52.174622386580452 $357 -46.576743493865877 $351 $436 forward 7 unknown #
vertex $-1 $246 $437 #
straight-curve $-1 -19.343588738567711 22.060534152400187 12.270040670453511 1 0 0 I I #
coedge $-1 $350 $247 $250 $364 reversed $240 $-1 #
coedge $-1 $247 $350 $355 $434 forward $240 $-1 #
vertex $-1 $248 $438 #
straight-curve $-1 -51.473111387239683 26.087311193290216 67.578180237462362 0 0 1 I I #
straight-curve $-1 -51.473111387239683 -11.44397084584439 44.624965787288218 0 0.71933979245794832 -0.69465837861970381 I I #
edge $-1 $432 25.901243567031162 $252 51.473111387239683 $359 $439 forward 7 unknown #
point $-1 -51.473111387239683 26.087311193290216 12.270040670453509 #
point $-1 -51.473111387239683 22.060534152400187 12.270040670453511 #
edge $-1 $440 1 $440 0 $255 $-1 forward 7 unknown #
vertex $-1 $256 $441 #
ellipse-curve $-1 -38.687177477135421 22.065546517001291 8.2459995891384388 0 0.69465837861970381 0.71933979245794832 1 0 0 1 I I #
point $-1 -37.687177477135421 24.073922672845207 10.325733932792229 #
loop $-1 $-1 $267 $259 #
plane-surface $-1 0 26.087311193290216 0 0 -1 0 0 0 -1 forward_v I I I I #
coedge $-1 $374 $262 $264 $378 reversed $166 $-1 #
coedge $-1 $262 $373 $442 $443 reversed $166 $-1 #
coedge $-1 $270 $265 $262 $376 forward $260 $-1 #
edge $-1 $379 -15.930057225835476 $444 -11.903280184945448 $375 $445 forward 7 unknown #
coedge $-1 $264 $263 $382 $446 reversed $104 $-1 #
edge $-1 $447 -52.174622386580452 $379 -46.576743493865877 $373 $448 forward 7 unknown #
vertex $-1 $266 $449 #
straight-curve $-1 19.343588738567711 22.060534152400187 12.270040670453511 1 0 0 I I #
coedge $-1 $442 $267 $270 $386 reversed $371 $-1 #
coedge $-1 $267 $442 $377 $446 forward $371 $-1 #
vertex $-1 $268 $450 #
straight-curve $-1 25.901243567031162 26.087311193290216 67.578180237462362 0 0 1 I I #
straight-curve $-1 25.901243567031162 -11.44397084584439 44.624965787288218 0 0.71933979245794832 -0.69465837861970381 I I #
edge $-1 $444 -51.473111387239683 $271 -25.901243567031162 $381 $451 forward 7 unknown #
point $-1 25.901243567031162 26.087311193290216 12.270040670453509 #
point $-1 25.901243567031162 22.060534152400187 12.270040670453511 #
edge $-1 $452 1 $452 0 $274 $-1 forward 7 unknown #
vertex $-1 $275 $453 #
ellipse-curve $-1 38.687177477135421 22.065546517001291 8.2459995891384388 0 0.69465837861970381 0.71933979245794832 1 0 0 1 I I #
point $-1 39.687177477135421 24.073922672845207 10.325733932792229 #
plane-surface $-1 62.926725058748133 0 0 -1 0 0 0 0 1 forward_v I I I I #
coedge $-1 $283 $281 $285 $398 reversed $181 $-1 #
edge $-1 $296 -12.270040670453509 $400 12.270040670453509 $295 $454 forward 7 unknown #
vertex $-1 $398 $455 #
straight-curve $-1 -62.926725058748133 -26.087311193290216 0 0 0 -1 I I #
edge $-1 $396 -26.087311193290216 $400 26.087311193290216 $394 $456 forward 7 unknown #
straight-curve $-1 0 -26.087311193290216 -12.270040670453509 -1 0 0 I I #
vertex $-1 $288 $457 #
straight-curve $-1 0 26.087311193290216 -12.270040670453509 1 0 0 I I #
point $-1 62.926725058748133 26.087311193290216 -12.270040670453509 #
point $-1 62.926725058748133 -26.087311193290216 -12.270040670453509 #
straight-curve $-1 -62.926725058748133 0 12.270040670453509 0 -1 0 I I #
point $-1 -62.926725058748133 26.087311193290216 12.270040670453509 #
point $-1 -62.926725058748133 -26.087311193290216 12.270040670453509 #
straight-curve $-1 62.926725058748133 -26.087311193290216 0 0 0 -1 I I #
straight-curve $-1 62.926725058748133 26.087311193290216 0 0 0 -1 I I #
edge $-1 $410 37.186370270930212 $413 41.074983746252784 $306 $458 forward 7 unknown #
vertex $-1 $320 $459 #
straight-curve $-1 -51.473111387239683 -56.756232397802968 12.270040670453511 0 -1 0 I I #
edge $-1 $413 -32.129522648671973 $317 -6.5576548284634519 $316 $460 forward 7 unknown #
vertex $-1 $412 $461 #
straight-curve $-1 -51.473111387239683 -26.087311193290219 8.3814271951309394 0 0.71933979245794832 0.69465837861970381 I I #
point $-1 -51.473111387239683 -22.060534152400187 12.270040670453509 #
point $-1 -25.901243567031162 -26.087311193290216 8.3814271951309429 #
straight-curve $-1 0 -26.087311193290216 12.270040670453509 1 0 0 I I #
vertex $-1 $323 $462 #
point $-1 -37.687177477135421 -22.065546517001287 8.2459995891384388 #
edge $-1 $421 37.186370270930212 $424 41.074983746252784 $328 $463 forward 7 unknown #
vertex $-1 $342 $464 #
straight-curve $-1 25.901243567031162 -56.756232397802968 12.270040670453511 0 -1 0 I I #
edge $-1 $424 6.5576548284634519 $339 32.129522648671973 $338 $465 forward 7 unknown #
vertex $-1 $423 $466 #
straight-curve $-1 25.901243567031162 -26.087311193290219 8.3814271951309394 0 0.71933979245794832 0.69465837861970381 I I #
point $-1 25.901243567031162 -22.060534152400187 12.270040670453509 #
point $-1 51.473111387239683 -26.087311193290216 8.3814271951309429 #
straight-curve $-1 0 -26.087311193290216 12.270040670453509 1 0 0 I I #
vertex $-1 $345 $467 #
point $-1 39.687177477135421 -22.065546517001287 8.2459995891384388 #
edge $-1 $432 55.308139567008851 $435 59.196753042331423 $350 $468 forward 7 unknown #
vertex $-1 $364 $469 #
straight-curve $-1 -25.901243567031162 37.990591378235663 12.270040670453511 0 1 0 I I #
edge $-1 $435 6.5576548284634519 $361 32.129522648671973 $360 $470 forward 7 unknown #
vertex $-1 $434 $471 #
straight-curve $-1 -25.901243567031162 -11.44397084584439 44.624965787288218 0 -0.71933979245794832 0.69465837861970381 I I #
point $-1 -25.901243567031162 22.060534152400187 12.270040670453511 #
point $-1 -51.473111387239683 26.087311193290219 8.3814271951309394 #
straight-curve $-1 0 26.087311193290216 12.270040670453509 -1 0 0 I I #
vertex $-1 $367 $472 #
point $-1 -37.687177477135421 22.065546517001291 8.2459995891384388 #
coedge $-1 $382 $381 $374 $443 forward $371 $-1 #
edge $-1 $444 55.308139567008851 $447 59.196753042331423 $442 $473 forward 7 unknown #
vertex $-1 $386 $474 #
straight-curve $-1 51.473111387239683 37.990591378235663 12.270040670453511 0 1 0 I I #
edge $-1 $447 -32.129522648671973 $383 -6.5576548284634519 $382 $475 forward 7 unknown #
vertex $-1 $446 $476 #
straight-curve $-1 51.473111387239683 -11.44397084584439 44.624965787288218 0 -0.71933979245794832 0.69465837861970381 I I #
point $-1 51.473111387239683 22.060534152400187 12.270040670453511 #
point $-1 25.901243567031162 26.087311193290219 8.3814271951309394 #
straight-curve $-1 0 26.087311193290216 12.270040670453509 -1 0 0 I I #
vertex $-1 $389 $477 #
point $-1 39.687177477135421 22.065546517001291 8.2459995891384388 #
straight-curve $-1 -62.926725058748133 26.087311193290216 0 0 0 -1 I I #
point $-1 -62.926725058748133 -26.087311193290216 -12.270040670453509 #
straight-curve $-1 -62.926725058748133 0 -12.270040670453509 0 1 0 I I #
point $-1 -62.926725058748133 26.087311193290216 -12.270040670453509 #
straight-curve $-1 -51.473111387239683 -26.087311193290219 49.456410941383723 0 0 -1 I I #
point $-1 -51.473111387239683 -26.087311193290216 12.270040670453509 #
straight-curve $-1 -19.343588738567711 -26.087311193290216 8.3814271951309465 1 0 0 I I #
point $-1 -51.473111387239683 -26.087311193290216 8.3814271951309429 #
point $-1 -38.687177477135421 -21.370888138381581 7.5266597966804909 #
straight-curve $-1 25.901243567031162 -26.087311193290219 49.456410941383723 0 0 -1 I I #
point $-1 25.901243567031162 -26.087311193290216 12.270040670453509 #
straight-curve $-1 19.343588738567711 -26.087311193290216 8.3814271951309465 1 0 0 I I #
point $-1 25.901243567031162 -26.087311193290216 8.3814271951309429 #
point $-1 38.687177477135421 -21.370888138381581 7.5266597966804909 #
straight-curve $-1 -25.901243567031162 26.087311193290216 67.578180237462362 0 0 -1 I I #
point $-1 -25.901243567031162 26.087311193290216 12.270040670453509 #
straight-curve $-1 -19.343588738567711 26.087311193290216 8.3814271951309429 -1 0 0 I I #
point $-1 -25.901243567031162 26.087311193290219 8.3814271951309394 #
point $-1 -38.687177477135421 21.370888138381584 7.5266597966804909 #
straight-curve $-1 51.473111387239683 26.087311193290216 67.578180237462362 0 0 -1 I I #
point $-1 51.473111387239683 26.087311193290216 12.270040670453509 #
straight-curve $-1 19.343588738567711 26.087311193290216 8.3814271951309429 -1 0 0 I I #
point $-1 51.473111387239683 26.087311193290219 8.3814271951309394 #
point $-1 38.687177477135421 21.370888138381584 7.5266597966804909 #
End-of-ACIS-data 