500 0 9 0           
7 Unknown 11 ACIS 5.0 NT 24 Fri Mar 26 16:43:36 1999 
-1 9.9999999999999995e-007 1e-010 
body $-1 $9 $-1 $10 #
body $-1 $11 $-1 $12 #
body $-1 $13 $-1 $14 #
body $-1 $15 $-1 $16 #
body $-1 $17 $-1 $18 #
body $-1 $19 $-1 $20 #
body $-1 $21 $-1 $22 #
body $-1 $23 $-1 $24 #
body $-1 $25 $-1 $26 #
lump $-1 $-1 $27 $0 #
transform $-1 1 0 0 0 1 0 0 0 1 70.275582140568247 41.063399331527933 15.895384099281813 1 rotate no_reflect no_shear #
lump $-1 $-1 $28 $1 #
transform $-1 1 0 0 0 1 0 0 0 1 70.275582140568247 41.063399331527933 15.895384099281813 1 rotate no_reflect no_shear #
lump $-1 $-1 $29 $2 #
transform $-1 1 0 0 0 1 0 0 0 1 70.275582140568247 41.063399331527933 15.895384099281813 1 rotate no_reflect no_shear #
lump $-1 $-1 $30 $3 #
transform $-1 1 0 0 0 1 0 0 0 1 70.275582140568247 41.063399331527933 15.895384099281813 1 rotate no_reflect no_shear #
lump $-1 $-1 $31 $4 #
transform $-1 1 0 0 0 1 0 0 0 1 70.275582140568247 41.063399331527933 15.895384099281813 1 rotate no_reflect no_shear #
lump $-1 $-1 $32 $5 #
transform $-1 1 0 0 0 1 0 0 0 1 70.275582140568247 41.063399331527933 15.895384099281813 1 rotate no_reflect no_shear #
lump $-1 $-1 $33 $6 #
transform $-1 1 0 0 0 1 0 0 0 1 70.275582140568247 41.063399331527933 15.895384099281813 1 rotate no_reflect no_shear #
lump $-1 $-1 $34 $7 #
transform $-1 1 0 0 0 1 0 0 0 1 70.275582140568247 41.063399331527933 15.895384099281813 1 rotate no_reflect no_shear #
lump $-1 $-1 $35 $8 #
transform $-1 1 0 0 0 1 0 0 0 1 70.275582140568247 41.063399331527933 15.895384099281813 1 rotate no_reflect no_shear #
shell $-1 $-1 $-1 $36 $-1 $9 #
shell $-1 $-1 $-1 $37 $-1 $11 #
shell $-1 $-1 $-1 $38 $-1 $13 #
shell $-1 $-1 $-1 $39 $-1 $15 #
shell $-1 $-1 $-1 $40 $-1 $17 #
shell $-1 $-1 $-1 $41 $-1 $19 #
shell $-1 $-1 $-1 $42 $-1 $21 #
shell $-1 $-1 $-1 $43 $-1 $23 #
shell $-1 $-1 $-1 $44 $-1 $25 #
face $-1 $45 $46 $27 $-1 $47 forward single #
face $-1 $48 $49 $28 $-1 $50 reversed single #
face $-1 $51 $52 $29 $-1 $53 reversed single #
face $-1 $54 $55 $30 $-1 $56 forward single #
face $-1 $57 $58 $31 $-1 $59 reversed single #
face $-1 $60 $61 $32 $-1 $62 forward single #
face $-1 $63 $64 $33 $-1 $65 reversed single #
face $-1 $66 $67 $34 $-1 $68 forward single #
face $-1 $69 $70 $35 $-1 $71 forward single #
face $-1 $72 $73 $27 $-1 $74 reversed single #
loop $-1 $-1 $75 $36 #
plane-surface $-1 0 0 15.895384099281813 0 0 1 1 0 0 forward_v I I I I #
face $-1 $76 $77 $28 $-1 $78 reversed single #
loop $-1 $-1 $79 $37 #
plane-surface $-1 -66.227927628833953 -27.11526891164695 0 0 -1 0 0 0 -1 forward_v I I I I #
face $-1 $80 $81 $29 $-1 $82 reversed single #
loop $-1 $-1 $83 $38 #
plane-surface $-1 87.599476137832397 6.9740652099404805 199.65368627779577 0 -1 0 -0.7660444514056185 0 -0.64278759981090561 forward_v I I I I #
face $-1 $84 $85 $30 $-1 $86 forward single #
loop $-1 $87 $88 $39 #
cone-surface $-1 63.182962570914533 1.518960273066682 7.8349050263292783 -0.7660444514056185 0 -0.64278759981090561 0.96418139971635841 0 -1.1490666771084277 1 I I 0 1 1.5 forward I I I I #
face $-1 $89 $90 $31 $-1 $91 reversed single #
loop $-1 $-1 $92 $40 #
plane-surface $-1 -20.068963398331775 1.518960273066682 109.30914073889575 0.7660444514056185 0 0.64278759981090561 0.64278759981090561 0 -0.7660444514056185 forward_v I I I I #
face $-1 $93 $94 $32 $-1 $95 forward single #
loop $-1 $96 $97 $41 #
cone-surface $-1 63.182962570914533 12.429170146814279 7.8349050263292783 -0.7660444514056185 0 -0.64278759981090561 0.96418139971635841 0 -1.1490666771084277 1 I I 0 1 1.5 forward I I I I #
face $-1 $98 $99 $33 $-1 $100 reversed single #
loop $-1 $-1 $101 $42 #
plane-surface $-1 -176.35089349997583 -14.697375606123343 99.355114727259462 0 -1 0 0.75470958851134928 0 -0.65605901945558964 forward_v I I I I #
face $-1 $102 $103 $34 $-1 $104 forward single #
loop $-1 $105 $106 $43 #
cone-surface $-1 -65.050190761505448 -23.567299395783067 10.284014952239442 0.75470958851134928 0 -0.65605901945558964 0.98408852918338452 0 1.132064382767024 1 I I 0 1 1.5 forward I I I I #
face $-1 $107 $108 $35 $-1 $109 forward single #
loop $-1 $110 $111 $44 #
cone-surface $-1 -65.050190761505448 -18.245345121987235 10.284014952239442 0.75470958851134928 0 -0.65605901945558964 0.98408852918338452 0 1.132064382767024 1 I I 0 1 1.5 forward I I I I #
face $-1 $112 $113 $27 $-1 $114 reversed single #
loop $-1 $-1 $115 $45 #
plane-surface $-1 0 0 -15.895384099281813 0 0 1 1 0 0 forward_v I I I I #
coedge $-1 $116 $117 $118 $119 forward $46 $-1 #
face $-1 $120 $121 $28 $-1 $122 forward single #
loop $-1 $-1 $123 $48 #
plane-surface $-1 -62.180273117099659 -34.089334121587441 0 -1 0 0 0 0 1 forward_v I I I I #
coedge $-1 $124 $125 $126 $127 reversed $49 $-1 #
face $-1 $128 $129 $29 $-1 $130 reversed single #
loop $-1 $-1 $131 $51 #
plane-surface $-1 -20.068963398331775 1.518960273066682 109.30914073889575 0.7660444514056185 0 0.64278759981090561 0.64278759981090561 0 -0.7660444514056185 forward_v I I I I #
coedge $-1 $132 $133 $134 $135 reversed $52 $-1 #
face $-1 $-1 $136 $30 $-1 $137 forward single #
loop $-1 $138 $139 $54 #
cone-surface $-1 61.496359086650841 1.518960273066682 6.4196767017936764 -0.7660444514056185 0 -0.64278759981090561 0.48209069985817921 0 -0.57453333855421385 1 I I -0.70710678118654757 0.70710678118654757 0.75 forward I I I I #
loop $-1 $-1 $140 $39 #
coedge $-1 $88 $88 $141 $142 reversed $55 $-1 #
face $-1 $143 $144 $31 $-1 $145 reversed single #
loop $-1 $-1 $146 $57 #
plane-surface $-1 87.599476137832397 17.884275083688078 199.65368627779577 0 -1 0 -0.7660444514056185 0 -0.64278759981090561 forward_v I I I I #
coedge $-1 $147 $148 $149 $150 reversed $58 $-1 #
face $-1 $-1 $151 $32 $-1 $152 forward single #
loop $-1 $153 $154 $60 #
cone-surface $-1 61.496359086650841 12.429170146814279 6.4196767017936764 -0.7660444514056185 0 -0.64278759981090561 0.48209069985817921 0 -0.57453333855421385 1 I I -0.70710678118654757 0.70710678118654757 0.75 forward I I I I #
loop $-1 $-1 $155 $41 #
coedge $-1 $97 $97 $156 $157 reversed $61 $-1 #
face $-1 $158 $159 $33 $-1 $160 reversed single #
loop $-1 $-1 $161 $63 #
plane-surface $-1 -70.275582140568247 -20.906322258885147 7.145255705635563 -0.75470958851134928 0 0.65605901945558964 0.65605901945558964 0 0.75470958851134928 forward_v I I I I #
coedge $-1 $162 $163 $164 $165 reversed $64 $-1 #
face $-1 $-1 $166 $34 $-1 $167 forward single #
loop $-1 $168 $169 $66 #
cone-surface $-1 -63.061952377409611 -23.567299395783067 8.5556657374285052 0.75470958851134928 0 -0.65605901945558964 0.49204426459169226 0 0.56603219138351202 1 I I -0.70710678118654757 0.70710678118654757 0.75 forward I I I I #
loop $-1 $-1 $170 $43 #
coedge $-1 $106 $106 $171 $172 reversed $67 $-1 #
face $-1 $-1 $173 $35 $-1 $174 forward single #
loop $-1 $175 $176 $69 #
cone-surface $-1 -63.061952377409611 -18.245345121987235 8.5556657374285052 0.75470958851134928 0 -0.65605901945558964 0.49204426459169226 0 0.56603219138351202 1 I I -0.70710678118654757 0.70710678118654757 0.75 forward I I I I #
loop $-1 $-1 $177 $44 #
coedge $-1 $111 $111 $178 $179 reversed $70 $-1 #
face $-1 $180 $181 $27 $-1 $182 reversed single #
loop $-1 $-1 $183 $72 #
plane-surface $-1 0 -41.063399331527933 0 0 1 0 0 0 1 forward_v I I I I #
coedge $-1 $184 $185 $186 $187 forward $73 $-1 #
coedge $-1 $188 $75 $189 $190 forward $46 $-1 #
coedge $-1 $75 $188 $191 $192 forward $46 $-1 #
coedge $-1 $193 $194 $75 $119 reversed $195 $-1 #
edge $-1 $196 -41.063399331527933 $197 41.063399331527933 $118 $198 forward 7 unknown #
face $-1 $199 $200 $28 $-1 $201 reversed single #
loop $-1 $-1 $202 $76 #
plane-surface $-1 0 0 15.895384099281813 0 0 1 1 0 0 forward_v I I I I #
coedge $-1 $203 $204 $205 $206 reversed $77 $-1 #
coedge $-1 $207 $79 $208 $209 forward $49 $-1 #
coedge $-1 $79 $207 $210 $211 reversed $49 $-1 #
coedge $-1 $212 $202 $79 $127 forward $121 $-1 #
edge $-1 $213 29.066309302682683 $214 37.16161832615127 $126 $215 forward 7 unknown #
face $-1 $216 $217 $29 $-1 $218 reversed single #
loop $-1 $-1 $219 $80 #
plane-surface $-1 87.599476137832397 -3.9361446638071165 199.65368627779577 0 1 0 0.7660444514056185 0 0.64278759981090561 forward_v I I I I #
coedge $-1 $220 $221 $222 $223 reversed $81 $-1 #
coedge $-1 $133 $83 $224 $225 reversed $52 $-1 #
coedge $-1 $83 $132 $220 $226 reversed $52 $-1 #
coedge $-1 $222 $227 $83 $135 forward $228 $-1 #
edge $-1 $229 -26.475844071652048 $230 -14.514745223763583 $134 $231 forward 7 unknown #
loop $-1 $-1 $141 $84 #
plane-surface $-1 -20.068963398331775 1.518960273066682 109.30914073889575 0.7660444514056185 0 0.64278759981090561 0.64278759981090561 0 -0.7660444514056185 forward_v I I I I #
loop $-1 $-1 $232 $54 #
coedge $-1 $139 $139 $140 $233 reversed $85 $-1 #
coedge $-1 $140 $140 $139 $233 forward $87 $-1 #
coedge $-1 $141 $141 $88 $142 forward $136 $-1 #
edge $-1 $234 0 $234 6.2831853071796004 $141 $235 forward 7 unknown #
face $-1 $236 $237 $31 $-1 $238 forward single #
loop $-1 $-1 $239 $89 #
plane-surface $-1 70.275582140568247 0 0 -1 0 0 0 0 1 forward_v I I I I #
coedge $-1 $240 $241 $242 $243 reversed $90 $-1 #
coedge $-1 $244 $92 $245 $246 reversed $58 $-1 #
coedge $-1 $92 $244 $239 $247 reversed $58 $-1 #
coedge $-1 $248 $249 $92 $150 forward $237 $-1 #
edge $-1 $250 121.94299752215242 $251 140.55116428113658 $149 $252 forward 7 unknown #
loop $-1 $-1 $156 $93 #
plane-surface $-1 -20.068963398331775 1.518960273066682 109.30914073889575 0.7660444514056185 0 0.64278759981090561 0.64278759981090561 0 -0.7660444514056185 forward_v I I I I #
loop $-1 $-1 $253 $60 #
coedge $-1 $154 $154 $155 $254 reversed $94 $-1 #
coedge $-1 $155 $155 $154 $254 forward $96 $-1 #
coedge $-1 $156 $156 $97 $157 forward $151 $-1 #
edge $-1 $255 0 $255 6.2831853071796004 $156 $256 forward 7 unknown #
face $-1 $257 $258 $33 $-1 $259 forward single #
loop $-1 $-1 $164 $98 #
plane-surface $-1 -70.275582140568247 0 0 1 0 0 0 0 -1 forward_v I I I I #
coedge $-1 $260 $261 $262 $263 reversed $99 $-1 #
coedge $-1 $163 $101 $264 $265 reversed $64 $-1 #
coedge $-1 $101 $162 $260 $266 reversed $64 $-1 #
coedge $-1 $262 $267 $101 $165 forward $159 $-1 #
edge $-1 $268 33.782173264347918 $269 42.532301657994168 $164 $270 forward 7 unknown #
loop $-1 $-1 $171 $102 #
plane-surface $-1 -70.275582140568247 -20.906322258885147 7.145255705635563 -0.75470958851134928 0 0.65605901945558964 0.65605901945558964 0 0.75470958851134928 forward_v I I I I #
loop $-1 $-1 $271 $66 #
coedge $-1 $169 $169 $170 $272 reversed $103 $-1 #
coedge $-1 $170 $170 $169 $272 forward $105 $-1 #
coedge $-1 $171 $171 $106 $172 forward $166 $-1 #
edge $-1 $273 0 $273 6.2831853071796004 $171 $274 forward 7 unknown #
loop $-1 $-1 $178 $107 #
plane-surface $-1 -70.275582140568247 -20.906322258885147 7.145255705635563 -0.75470958851134928 0 0.65605901945558964 0.65605901945558964 0 0.75470958851134928 forward_v I I I I #
loop $-1 $-1 $275 $69 #
coedge $-1 $176 $176 $177 $276 reversed $108 $-1 #
coedge $-1 $177 $177 $176 $276 forward $110 $-1 #
coedge $-1 $178 $178 $111 $179 forward $173 $-1 #
edge $-1 $277 0 $277 6.2831853071796004 $178 $278 forward 7 unknown #
face $-1 $279 $280 $27 $-1 $281 reversed single #
loop $-1 $-1 $282 $112 #
plane-surface $-1 -70.275582140568247 0 0 1 0 0 0 0 -1 forward_v I I I I #
coedge $-1 $283 $191 $284 $285 forward $113 $-1 #
coedge $-1 $286 $115 $283 $287 forward $73 $-1 #
coedge $-1 $115 $286 $288 $289 forward $73 $-1 #
coedge $-1 $194 $193 $115 $187 reversed $195 $-1 #
edge $-1 $290 -41.063399331527933 $291 41.063399331527933 $186 $292 forward 7 unknown #
coedge $-1 $117 $116 $293 $294 forward $46 $-1 #
coedge $-1 $295 $296 $116 $190 reversed $280 $-1 #
edge $-1 $197 -70.275582140568247 $297 70.275582140568247 $189 $298 forward 7 unknown #
coedge $-1 $183 $299 $117 $192 reversed $113 $-1 #
edge $-1 $300 -70.275582140568247 $196 70.275582140568247 $191 $301 forward 7 unknown #
coedge $-1 $186 $118 $299 $302 forward $195 $-1 #
coedge $-1 $118 $186 $295 $303 reversed $195 $-1 #
loop $-1 $-1 $193 $279 #
vertex $-1 $119 $304 #
vertex $-1 $119 $305 #
straight-curve $-1 70.275582140568247 0 15.895384099281813 0 1 0 I I #
face $-1 $306 $307 $28 $-1 $308 reversed single #
loop $-1 $-1 $210 $120 #
plane-surface $-1 -70.275582140568247 0 0 1 0 0 0 0 -1 forward_v I I I I #
coedge $-1 $126 $309 $204 $310 forward $121 $-1 #
coedge $-1 $208 $123 $311 $312 reversed $77 $-1 #
coedge $-1 $123 $208 $202 $310 reversed $77 $-1 #
coedge $-1 $313 $314 $123 $206 forward $315 $-1 #
edge $-1 $316 -15.895384099281813 $317 15.895384099281813 $205 $318 forward 7 unknown #
coedge $-1 $125 $124 $319 $320 reversed $49 $-1 #
coedge $-1 $204 $203 $124 $209 reversed $77 $-1 #
edge $-1 $213 -15.895384099281813 $321 15.895384099281813 $208 $322 forward 7 unknown #
coedge $-1 $323 $324 $125 $211 forward $200 $-1 #
edge $-1 $214 -15.895384099281813 $325 15.895384099281813 $210 $326 forward 7 unknown #
coedge $-1 $309 $126 $324 $327 forward $121 $-1 #
vertex $-1 $127 $328 #
vertex $-1 $327 $329 #
straight-curve $-1 -33.113963814416977 -27.11526891164695 15.895384099281813 -1 0 0 I I #
face $-1 $-1 $228 $29 $-1 $330 forward single #
loop $-1 $-1 $331 $128 #
plane-surface $-1 70.275582140568247 0 0 -1 0 0 0 0 1 forward_v I I I I #
coedge $-1 $332 $333 $334 $335 reversed $129 $-1 #
coedge $-1 $336 $131 $133 $226 forward $81 $-1 #
coedge $-1 $131 $336 $332 $337 forward $81 $-1 #
coedge $-1 $334 $134 $131 $223 forward $228 $-1 #
edge $-1 $230 -6.2145850734071395 $338 4.6956248003404575 $222 $339 forward 7 unknown #
coedge $-1 $340 $341 $132 $225 forward $217 $-1 #
edge $-1 $342 -98.186141936166322 $229 -83.931459039616072 $224 $343 forward 7 unknown #
edge $-1 $230 121.94299752215242 $342 140.55116428113658 $133 $344 forward 7 unknown #
coedge $-1 $134 $334 $340 $345 forward $228 $-1 #
loop $-1 $-1 $334 $216 #
vertex $-1 $225 $346 #
vertex $-1 $135 $347 #
straight-curve $-1 43.799738068916199 6.9740652099404805 15.895384099281813 -1 0 0 I I #
coedge $-1 $232 $232 $-1 $348 reversed $138 $-1 #
edge $-1 $349 0 $349 6.2831853071796004 $139 $350 forward 7 unknown #
vertex $-1 $142 $351 #
ellipse-curve $-1 64.295032716624007 1.518960273066682 8.7680426510066951 0.7660444514056185 0 0.64278759981090561 0.96418139971635841 0 -1.1490666771084277 1 I I #
face $-1 $-1 $352 $31 $-1 $353 forward single #
loop $-1 $-1 $249 $143 #
plane-surface $-1 87.599476137832397 6.9740652099404805 199.65368627779577 0 -1 0 -0.7660444514056185 0 -0.64278759981090561 forward_v I I I I #
coedge $-1 $242 $354 $148 $247 forward $144 $-1 #
coedge $-1 $241 $146 $244 $355 reversed $90 $-1 #
coedge $-1 $146 $240 $356 $357 reversed $90 $-1 #
coedge $-1 $358 $239 $146 $243 forward $144 $-1 #
edge $-1 $359 -98.186141936166322 $360 -83.931459039616072 $242 $361 forward 7 unknown #
coedge $-1 $148 $147 $240 $355 forward $58 $-1 #
coedge $-1 $362 $356 $147 $246 forward $352 $-1 #
edge $-1 $363 -17.124794947154736 $250 -6.2145850734071395 $245 $364 forward 7 unknown #
edge $-1 $251 6.2145850734071395 $359 17.124794947154736 $239 $365 forward 7 unknown #
coedge $-1 $249 $149 $354 $366 reversed $237 $-1 #
coedge $-1 $149 $248 $362 $367 reversed $237 $-1 #
vertex $-1 $246 $368 #
vertex $-1 $247 $369 #
straight-curve $-1 -20.068963398331775 6.9740652099404805 109.30914073889575 0.64278759981090561 0 -0.7660444514056185 I I #
coedge $-1 $253 $253 $-1 $370 reversed $153 $-1 #
edge $-1 $371 0 $371 6.2831853071796004 $154 $372 forward 7 unknown #
vertex $-1 $157 $373 #
ellipse-curve $-1 64.295032716624007 12.429170146814279 8.7680426510066951 0.7660444514056185 0 0.64278759981090561 0.96418139971635841 0 -1.1490666771084277 1 I I #
face $-1 $-1 $374 $33 $-1 $375 forward single #
loop $-1 $-1 $376 $158 #
plane-surface $-1 -66.227927628833953 -27.11526891164695 0 0 -1 0 0 0 -1 forward_v I I I I #
coedge $-1 $377 $161 $163 $266 forward $99 $-1 #
coedge $-1 $161 $377 $376 $378 reversed $99 $-1 #
coedge $-1 $379 $164 $161 $263 forward $159 $-1 #
edge $-1 $269 4.244214476680769 $380 16.662107782204377 $262 $381 forward 7 unknown #
coedge $-1 $382 $383 $162 $265 forward $374 $-1 #
edge $-1 $384 -25.506234982120645 $268 -17.899864609419666 $264 $385 forward 7 unknown #
edge $-1 $269 0 $384 11.594033687720492 $163 $386 forward 7 unknown #
coedge $-1 $164 $379 $382 $387 reversed $159 $-1 #
vertex $-1 $387 $388 #
vertex $-1 $165 $389 #
straight-curve $-1 -70.275582140568247 -14.697375606123343 49.677557363629731 0 0 -1 I I #
coedge $-1 $271 $271 $-1 $390 reversed $168 $-1 #
edge $-1 $391 0 $391 6.2831853071796004 $169 $392 forward 7 unknown #
vertex $-1 $172 $393 #
ellipse-curve $-1 -66.472396954217757 -23.567299395783067 11.520319902458684 -0.75470958851134928 0 0.65605901945558964 0.98408852918338452 0 1.132064382767024 1 I I #
coedge $-1 $275 $275 $-1 $394 reversed $175 $-1 #
edge $-1 $395 0 $395 6.2831853071796004 $176 $396 forward 7 unknown #
vertex $-1 $179 $397 #
ellipse-curve $-1 -66.472396954217757 -18.245345121987235 11.520319902458684 -0.75470958851134928 0 0.65605901945558964 0.98408852918338452 0 1.132064382767024 1 I I #
face $-1 $-1 $195 $27 $-1 $398 reversed single #
loop $-1 $-1 $295 $180 #
plane-surface $-1 0 41.063399331527933 0 0 -1 0 0 0 -1 forward_v I I I I #
coedge $-1 $399 $293 $296 $400 forward $181 $-1 #
coedge $-1 $299 $183 $184 $287 reversed $113 $-1 #
coedge $-1 $293 $399 $183 $285 reversed $181 $-1 #
edge $-1 $300 -15.895384099281813 $401 15.895384099281813 $284 $402 forward 7 unknown #
coedge $-1 $185 $184 $399 $403 forward $73 $-1 #
edge $-1 $291 -70.275582140568247 $401 70.275582140568247 $283 $404 forward 7 unknown #
coedge $-1 $296 $295 $185 $289 reversed $280 $-1 #
edge $-1 $405 -70.275582140568247 $290 70.275582140568247 $288 $406 forward 7 unknown #
vertex $-1 $187 $407 #
vertex $-1 $302 $408 #
straight-curve $-1 70.275582140568247 0 -15.895384099281813 0 -1 0 I I #
coedge $-1 $282 $284 $188 $294 reversed $181 $-1 #
edge $-1 $297 -41.063399331527933 $300 41.063399331527933 $293 $409 forward 7 unknown #
coedge $-1 $288 $189 $194 $303 forward $280 $-1 #
coedge $-1 $189 $288 $282 $400 reversed $280 $-1 #
vertex $-1 $190 $410 #
straight-curve $-1 0 41.063399331527933 15.895384099281813 -1 0 0 I I #
coedge $-1 $191 $283 $193 $302 reversed $113 $-1 #
vertex $-1 $294 $411 #
straight-curve $-1 0 -41.063399331527933 15.895384099281813 1 0 0 I I #
edge $-1 $196 -15.895384099281813 $291 15.895384099281813 $193 $412 forward 7 unknown #
edge $-1 $197 -15.895384099281813 $290 15.895384099281813 $194 $413 forward 7 unknown #
point $-1 70.275582140568247 -41.063399331527933 15.895384099281813 #
point $-1 70.275582140568247 41.063399331527933 15.895384099281813 #
face $-1 $-1 $315 $28 $-1 $414 reversed single #
loop $-1 $-1 $311 $199 #
plane-surface $-1 0 0 -15.895384099281813 0 0 1 1 0 0 forward_v I I I I #
coedge $-1 $202 $212 $313 $415 forward $121 $-1 #
edge $-1 $317 -24.018732270734212 $213 -10.07060185085323 $202 $416 forward 7 unknown #
coedge $-1 $417 $319 $203 $312 forward $307 $-1 #
edge $-1 $321 10.07060185085323 $316 24.018732270734212 $311 $418 forward 7 unknown #
coedge $-1 $419 $205 $309 $415 reversed $315 $-1 #
coedge $-1 $205 $419 $417 $420 reversed $315 $-1 #
loop $-1 $-1 $205 $306 #
vertex $-1 $420 $421 #
vertex $-1 $206 $422 #
straight-curve $-1 -62.180273117099659 -41.063399331527933 0 0 0 1 I I #
coedge $-1 $311 $423 $207 $320 forward $307 $-1 #
edge $-1 $325 -37.16161832615127 $321 -29.066309302682683 $319 $424 forward 7 unknown #
vertex $-1 $320 $425 #
straight-curve $-1 -62.180273117099659 -27.11526891164695 0 0 0 -1 I I #
coedge $-1 $426 $210 $423 $427 reversed $200 $-1 #
coedge $-1 $210 $426 $212 $327 reversed $200 $-1 #
vertex $-1 $320 $428 #
straight-curve $-1 -70.275582140568247 -27.11526891164695 0 0 0 -1 I I #
edge $-1 $214 27.11526891164695 $429 41.063399331527933 $324 $430 forward 7 unknown #
point $-1 -62.180273117099659 -27.11526891164695 15.895384099281813 #
point $-1 -70.275582140568247 -27.11526891164695 15.895384099281813 #
plane-surface $-1 0 0 15.895384099281813 0 0 1 1 0 0 forward_v I I I I #
coedge $-1 $341 $340 $333 $431 forward $217 $-1 #
coedge $-1 $333 $219 $221 $337 reversed $129 $-1 #
coedge $-1 $219 $332 $331 $431 reversed $129 $-1 #
coedge $-1 $227 $222 $219 $335 forward $228 $-1 #
edge $-1 $338 14.514745223763583 $432 26.475844071652048 $334 $433 forward 7 unknown #
coedge $-1 $221 $220 $341 $434 reversed $81 $-1 #
edge $-1 $435 -140.55116428113658 $338 -121.94299752215242 $332 $436 forward 7 unknown #
vertex $-1 $223 $437 #
straight-curve $-1 58.314483292679782 0.75948013653334101 15.89538409928182 0 -1 0 I I #
coedge $-1 $331 $224 $227 $345 reversed $217 $-1 #
coedge $-1 $224 $331 $336 $434 forward $217 $-1 #
vertex $-1 $225 $438 #
straight-curve $-1 70.275582140568247 6.9740652099404805 99.826843138897885 0 0 1 I I #
straight-curve $-1 -20.068963398331775 6.9740652099404805 109.30914073889575 0.64278759981090561 0 -0.7660444514056185 I I #
edge $-1 $432 -3.9361446638071165 $229 6.9740652099404805 $340 $439 forward 7 unknown #
point $-1 70.275582140568247 6.9740652099404805 15.895384099281813 #
point $-1 58.314483292679782 6.9740652099404805 15.895384099281813 #
edge $-1 $440 1 $440 0 $232 $-1 forward 7 unknown #
vertex $-1 $233 $441 #
ellipse-curve $-1 62.070892425205052 1.518960273066682 6.9017674016518553 0.7660444514056185 0 0.64278759981090561 0.96418139971635841 0 -1.1490666771084277 1 I I #
point $-1 65.25921411634036 1.518960273066682 7.6189759738982747 #
loop $-1 $-1 $245 $236 #
plane-surface $-1 0 0 15.895384099281813 0 0 1 1 0 0 forward_v I I I I #
coedge $-1 $239 $358 $248 $366 forward $144 $-1 #
edge $-1 $363 121.94299752215242 $359 140.55116428113658 $240 $442 forward 7 unknown #
coedge $-1 $245 $443 $241 $357 forward $352 $-1 #
edge $-1 $360 -26.475844071652048 $363 -14.514745223763583 $356 $444 forward 7 unknown #
coedge $-1 $354 $242 $443 $445 reversed $144 $-1 #
vertex $-1 $243 $446 #
vertex $-1 $243 $447 #
straight-curve $-1 70.275582140568247 17.884275083688078 99.826843138897885 0 0 1 I I #
coedge $-1 $443 $245 $249 $367 forward $352 $-1 #
vertex $-1 $357 $448 #
straight-curve $-1 58.314483292679782 0.75948013653334101 15.89538409928182 0 -1 0 I I #
straight-curve $-1 70.275582140568247 0.75948013653334101 1.6407012027315631 0 1 0 I I #
edge $-1 $449 83.931459039616072 $251 98.186141936166322 $354 $450 forward 7 unknown #
edge $-1 $250 14.514745223763583 $449 26.475844071652048 $362 $451 forward 7 unknown #
point $-1 58.314483292679782 6.9740652099404805 15.895384099281813 #
point $-1 70.275582140568261 6.9740652099404805 1.6407012027315631 #
edge $-1 $452 1 $452 0 $253 $-1 forward 7 unknown #
vertex $-1 $254 $453 #
ellipse-curve $-1 62.070892425205052 12.429170146814279 6.9017674016518553 0.7660444514056185 0 0.64278759981090561 0.96418139971635841 0 -1.1490666771084277 1 I I #
point $-1 65.25921411634036 12.429170146814279 7.6189759738982747 #
loop $-1 $-1 $264 $257 #
plane-surface $-1 0 0 15.895384099281813 0 0 1 1 0 0 forward_v I I I I #
coedge $-1 $454 $455 $261 $378 forward $258 $-1 #
coedge $-1 $261 $260 $383 $456 reversed $99 $-1 #
edge $-1 $380 1.3685463716725974 $457 12.962580059393087 $376 $458 forward 7 unknown #
coedge $-1 $267 $262 $455 $459 forward $159 $-1 #
vertex $-1 $459 $460 #
straight-curve $-1 -70.275582140568247 -10.453161129442574 7.1452557056355648 0 -1 0 I I #
coedge $-1 $461 $264 $267 $387 forward $374 $-1 #
coedge $-1 $264 $461 $377 $456 forward $374 $-1 #
vertex $-1 $265 $462 #
straight-curve $-1 -88.175446749987913 -14.697375606123343 15.895384099281813 -1 0 0 I I #
straight-curve $-1 -70.275582140568247 -14.697375606123343 7.145255705635563 0.65605901945558964 0 0.75470958851134928 I I #
edge $-1 $268 14.697375606123343 $463 27.11526891164695 $267 $464 forward 7 unknown #
point $-1 -70.275582140568247 -14.697375606123343 15.895384099281813 #
point $-1 -70.275582140568247 -14.697375606123343 7.145255705635563 #
edge $-1 $465 1 $465 0 $271 $-1 forward 7 unknown #
vertex $-1 $272 $466 #
ellipse-curve $-1 -63.627984568793124 -23.567299395783067 9.0477100020201977 -0.75470958851134928 0 0.65605901945558964 0.98408852918338452 0 1.132064382767024 1 I I #
point $-1 -65.488308425034376 -23.567299395783067 12.652384285225713 #
edge $-1 $467 1 $467 0 $275 $-1 forward 7 unknown #
vertex $-1 $276 $468 #
ellipse-curve $-1 -63.627984568793124 -18.245345121987235 9.0477100020201977 -0.75470958851134928 0 0.65605901945558964 0.98408852918338452 0 1.132064382767024 1 I I #
point $-1 -65.488308425034376 -18.245345121987235 12.652384285225713 #
plane-surface $-1 70.275582140568247 0 0 -1 0 0 0 0 1 forward_v I I I I #
coedge $-1 $284 $282 $286 $403 reversed $181 $-1 #
edge $-1 $297 -15.895384099281813 $405 15.895384099281813 $296 $469 forward 7 unknown #
vertex $-1 $403 $470 #
straight-curve $-1 -70.275582140568247 -41.063399331527933 0 0 0 -1 I I #
edge $-1 $401 -41.063399331527933 $405 41.063399331527933 $399 $471 forward 7 unknown #
straight-curve $-1 0 -41.063399331527933 -15.895384099281813 -1 0 0 I I #
vertex $-1 $289 $472 #
straight-curve $-1 0 41.063399331527933 -15.895384099281813 1 0 0 I I #
point $-1 70.275582140568247 41.063399331527933 -15.895384099281813 #
point $-1 70.275582140568247 -41.063399331527933 -15.895384099281813 #
straight-curve $-1 -70.275582140568247 0 15.895384099281813 0 -1 0 I I #
point $-1 -70.275582140568247 41.063399331527933 15.895384099281813 #
point $-1 -70.275582140568247 -41.063399331527933 15.895384099281813 #
straight-curve $-1 70.275582140568247 -41.063399331527933 0 0 0 -1 I I #
straight-curve $-1 70.275582140568247 41.063399331527933 0 0 0 -1 I I #
plane-surface $-1 0 -41.063399331527933 0 0 1 0 0 0 1 forward_v I I I I #
edge $-1 $429 -70.275582140568247 $317 -62.180273117099659 $313 $473 forward 7 unknown #
straight-curve $-1 -62.180273117099659 -17.044667060793721 15.895384099281813 0 1 0 I I #
coedge $-1 $423 $311 $314 $420 forward $307 $-1 #
straight-curve $-1 -62.180273117099659 -17.044667060793721 -15.895384099281813 0 -1 0 I I #
coedge $-1 $314 $313 $426 $474 forward $315 $-1 #
edge $-1 $316 62.180273117099659 $475 70.275582140568247 $314 $476 forward 7 unknown #
point $-1 -62.180273117099659 -41.063399331527933 -15.895384099281813 #
point $-1 -62.180273117099659 -41.063399331527933 15.895384099281813 #
coedge $-1 $319 $417 $323 $427 forward $307 $-1 #
straight-curve $-1 -33.113963814416977 -27.11526891164695 -15.895384099281813 1 0 0 I I #
point $-1 -62.180273117099659 -27.11526891164695 -15.895384099281813 #
coedge $-1 $324 $323 $419 $474 reversed $200 $-1 #
edge $-1 $475 -41.063399331527933 $325 -27.11526891164695 $323 $477 forward 7 unknown #
point $-1 -70.275582140568247 -27.11526891164695 -15.895384099281813 #
vertex $-1 $327 $478 #
straight-curve $-1 -70.275582140568247 0 15.895384099281813 0 -1 0 I I #
edge $-1 $432 83.931459039616072 $435 98.186141936166322 $331 $479 forward 7 unknown #
vertex $-1 $345 $480 #
straight-curve $-1 43.799738068916199 -3.9361446638071165 15.895384099281813 1 0 0 I I #
edge $-1 $435 -4.6956248003404575 $342 6.2145850734071395 $341 $481 forward 7 unknown #
vertex $-1 $434 $482 #
straight-curve $-1 -20.068963398331775 -3.9361446638071165 109.30914073889575 -0.64278759981090561 0 0.7660444514056185 I I #
point $-1 58.314483292679782 -3.9361446638071165 15.895384099281813 #
point $-1 70.275582140568261 6.9740652099404805 1.6407012027315631 #
straight-curve $-1 70.275582140568247 0 15.895384099281813 0 1 0 I I #
vertex $-1 $348 $483 #
point $-1 63.035073824921412 1.518960273066682 5.7527007245434278 #
straight-curve $-1 -20.068963398331775 17.884275083688078 109.30914073889575 0.64278759981090561 0 -0.7660444514056185 I I #
coedge $-1 $356 $362 $358 $445 forward $352 $-1 #
straight-curve $-1 43.799738068916199 17.884275083688078 15.895384099281813 -1 0 0 I I #
edge $-1 $449 6.9740652099404805 $360 17.884275083688078 $358 $484 forward 7 unknown #
point $-1 70.275582140568261 17.884275083688078 1.6407012027315631 #
point $-1 70.275582140568247 17.884275083688078 15.895384099281813 #
point $-1 58.314483292679782 17.884275083688078 15.895384099281813 #
vertex $-1 $445 $485 #
straight-curve $-1 70.275582140568247 6.9740652099404805 99.826843138897885 0 0 -1 I I #
straight-curve $-1 43.799738068916199 6.9740652099404805 15.895384099281813 1 0 0 I I #
vertex $-1 $370 $486 #
point $-1 63.035073824921412 12.429170146814279 5.7527007245434278 #
coedge $-1 $455 $376 $461 $487 reversed $258 $-1 #
coedge $-1 $376 $454 $379 $459 reversed $258 $-1 #
edge $-1 $457 -16.662107782204377 $384 -4.244214476680769 $383 $488 forward 7 unknown #
vertex $-1 $456 $489 #
straight-curve $-1 -71.173429331247277 -27.11526891164695 6.112400636611838 0.65605901945558975 0 0.75470958851134939 I I #
edge $-1 $380 7.145255705635563 $463 15.895384099281813 $379 $490 forward 7 unknown #
point $-1 -70.275582140568247 -27.11526891164695 7.145255705635563 #
coedge $-1 $383 $382 $454 $487 forward $374 $-1 #
point $-1 -62.669211767867267 -14.697375606123343 15.895384099281813 #
vertex $-1 $459 $491 #
straight-curve $-1 -70.275582140568247 0 15.895384099281813 0 -1 0 I I #
vertex $-1 $390 $492 #
point $-1 -62.643896039609736 -23.567299395783067 10.179774384787221 #
vertex $-1 $394 $493 #
point $-1 -62.643896039609736 -18.245345121987235 10.179774384787221 #
straight-curve $-1 -70.275582140568247 41.063399331527933 0 0 0 -1 I I #
point $-1 -70.275582140568247 -41.063399331527933 -15.895384099281813 #
straight-curve $-1 -70.275582140568247 0 -15.895384099281813 0 1 0 I I #
point $-1 -70.275582140568247 41.063399331527933 -15.895384099281813 #
straight-curve $-1 0 -41.063399331527933 15.895384099281813 1 0 0 I I #
edge $-1 $429 -15.895384099281813 $475 15.895384099281813 $426 $494 forward 7 unknown #
vertex $-1 $427 $495 #
straight-curve $-1 0 -41.063399331527933 -15.895384099281813 -1 0 0 I I #
straight-curve $-1 -70.275582140568247 0 -15.895384099281813 0 1 0 I I #
point $-1 -70.275582140568247 -41.063399331527933 15.895384099281813 #
straight-curve $-1 70.275582140568247 -3.9361446638071165 99.826843138897885 0 0 -1 I I #
point $-1 70.275582140568247 -3.9361446638071165 15.895384099281813 #
straight-curve $-1 70.275582140568247 0.75948013653334101 1.6407012027315631 0 1 0 I I #
point $-1 70.275582140568261 -3.9361446638071165 1.6407012027315631 #
point $-1 60.92182574809663 1.518960273066682 5.9375860019354976 #
straight-curve $-1 70.275582140568247 0 15.895384099281813 0 1 0 I I #
point $-1 70.275582140568247 6.9740652099404805 15.895384099281813 #
point $-1 60.92182574809663 12.429170146814279 5.9375860019354976 #
edge $-1 $463 -37.16161832615127 $457 -29.555247953450291 $461 $496 forward 7 unknown #
straight-curve $-1 -62.669211767867267 -10.453161129442574 15.895384099281813 0 1 0 I I #
point $-1 -62.669211767867267 -27.11526891164695 15.895384099281813 #
straight-curve $-1 -70.275582140568247 -27.11526891164695 0 0 0 1 I I #
point $-1 -70.275582140568247 -27.11526891164695 15.895384099281813 #
point $-1 -62.495920186026098 -23.567299395783067 8.0636214728368127 #
point $-1 -62.495920186026098 -18.245345121987235 8.0636214728368127 #
straight-curve $-1 -70.275582140568247 -41.063399331527933 0 0 0 -1 I I #
point $-1 -70.275582140568247 -41.063399331527933 -15.895384099281813 #
straight-curve $-1 -33.113963814416977 -27.11526891164695 15.895384099281813 1 0 0 I I #
End-of-ACIS-data 