500 0 9 0           
7 Unknown 11 ACIS 5.0 NT 24 Fri Mar 26 18:31:47 1999 
-1 9.9999999999999995e-007 1e-010 
body $-1 $9 $-1 $10 #
body $-1 $11 $-1 $12 #
body $-1 $13 $-1 $14 #
body $-1 $15 $-1 $16 #
body $-1 $17 $-1 $18 #
body $-1 $19 $-1 $20 #
body $-1 $21 $-1 $22 #
body $-1 $23 $-1 $24 #
body $-1 $25 $-1 $26 #
lump $-1 $-1 $27 $0 #
transform $-1 1 0 0 0 1 0 0 0 1 49.723197119052706 26.356921245189202 10.393476692811022 1 rotate no_reflect no_shear #
lump $-1 $-1 $28 $1 #
transform $-1 1 0 0 0 1 0 0 0 1 49.723197119052706 26.356921245189202 10.393476692811022 1 rotate no_reflect no_shear #
lump $-1 $-1 $29 $2 #
transform $-1 1 0 0 0 1 0 0 0 1 49.723197119052706 26.356921245189202 10.393476692811022 1 rotate no_reflect no_shear #
lump $-1 $-1 $30 $3 #
transform $-1 1 0 0 0 1 0 0 0 1 49.723197119052706 26.356921245189202 10.393476692811022 1 rotate no_reflect no_shear #
lump $-1 $-1 $31 $4 #
transform $-1 1 0 0 0 1 0 0 0 1 49.723197119052706 26.356921245189202 10.393476692811022 1 rotate no_reflect no_shear #
lump $-1 $-1 $32 $5 #
transform $-1 1 0 0 0 1 0 0 0 1 49.723197119052706 26.356921245189202 10.393476692811022 1 rotate no_reflect no_shear #
lump $-1 $-1 $33 $6 #
transform $-1 1 0 0 0 1 0 0 0 1 49.723197119052706 26.356921245189202 10.393476692811022 1 rotate no_reflect no_shear #
lump $-1 $-1 $34 $7 #
transform $-1 1 0 0 0 1 0 0 0 1 49.723197119052706 26.356921245189202 10.393476692811022 1 rotate no_reflect no_shear #
lump $-1 $-1 $35 $8 #
transform $-1 1 0 0 0 1 0 0 0 1 49.723197119052706 26.356921245189202 10.393476692811022 1 rotate no_reflect no_shear #
shell $-1 $-1 $-1 $36 $-1 $9 #
shell $-1 $-1 $-1 $37 $-1 $11 #
shell $-1 $-1 $-1 $38 $-1 $13 #
shell $-1 $-1 $-1 $39 $-1 $15 #
shell $-1 $-1 $-1 $40 $-1 $17 #
shell $-1 $-1 $-1 $41 $-1 $19 #
shell $-1 $-1 $-1 $42 $-1 $21 #
shell $-1 $-1 $-1 $43 $-1 $23 #
shell $-1 $-1 $-1 $44 $-1 $25 #
face $-1 $45 $46 $27 $-1 $47 forward single #
face $-1 $48 $49 $28 $-1 $50 forward single #
face $-1 $51 $52 $29 $-1 $53 forward single #
face $-1 $54 $55 $30 $-1 $56 reversed single #
face $-1 $57 $58 $31 $-1 $59 forward single #
face $-1 $60 $61 $32 $-1 $62 forward single #
face $-1 $63 $64 $33 $-1 $65 reversed single #
face $-1 $66 $67 $34 $-1 $68 forward single #
face $-1 $69 $70 $35 $-1 $71 forward single #
face $-1 $72 $73 $27 $-1 $74 reversed single #
loop $-1 $-1 $75 $36 #
plane-surface $-1 0 0 10.393476692811022 0 0 1 1 0 0 forward_v I I I I #
face $-1 $76 $77 $28 $-1 $78 reversed single #
loop $-1 $-1 $79 $37 #
plane-surface $-1 -49.723197119052706 0 0 1 0 0 0 0 -1 forward_v I I I I #
face $-1 $80 $81 $29 $-1 $82 reversed single #
loop $-1 $-1 $83 $38 #
plane-surface $-1 49.723197119052706 0 0 -1 0 0 0 0 1 forward_v I I I I #
face $-1 $84 $85 $30 $-1 $86 reversed single #
loop $-1 $-1 $87 $39 #
plane-surface $-1 -25.378137112902273 -96.676141791386712 75.985437570698821 -1 0 0 0 -0.70710678939079041 0.70710677298230451 forward_v I I I I #
face $-1 $88 $89 $31 $-1 $90 forward single #
loop $-1 $91 $92 $40 #
cone-surface $-1 -33.919087974498325 -22.1783517665659 6.2149072014553486 0 0.70710678939079041 -0.70710677298230451 1.5 0 0 1 I I 0 1 1.5 forward I I I I #
face $-1 $93 $94 $32 $-1 $95 forward single #
loop $-1 $96 $97 $41 #
cone-surface $-1 -28.794517457540692 -22.1783517665659 6.2149072014553486 0 0.70710678939079041 -0.70710677298230451 1.5 0 0 1 I I 0 1 1.5 forward I I I I #
face $-1 $98 $99 $33 $-1 $100 reversed single #
loop $-1 $-1 $101 $42 #
plane-surface $-1 -29.90903335760472 44.106109872439674 116.60223064989763 1 0 0 0 -0.6018150307709319 -0.79863550430605224 forward_v I I I I #
face $-1 $102 $103 $34 $-1 $104 forward single #
loop $-1 $105 $106 $43 #
cone-surface $-1 -23.888127721925038 22.365587211817211 6.9753111663168808 0 -0.6018150307709319 -0.79863550430605224 1.5 0 0 1 I I 0 1 1.5 forward I I I I #
face $-1 $107 $108 $35 $-1 $109 forward single #
loop $-1 $110 $111 $44 #
cone-surface $-1 -14.856769268405515 22.365587211817211 6.9753111663168808 0 -0.6018150307709319 -0.79863550430605224 1.5 0 0 1 I I 0 1 1.5 forward I I I I #
face $-1 $112 $113 $27 $-1 $114 reversed single #
loop $-1 $-1 $115 $45 #
plane-surface $-1 0 0 -10.393476692811022 0 0 1 1 0 0 forward_v I I I I #
coedge $-1 $116 $117 $118 $119 forward $46 $-1 #
face $-1 $120 $121 $28 $-1 $122 forward single #
loop $-1 $-1 $123 $48 #
plane-surface $-1 0 26.356921245189202 0 0 -1 0 0 0 -1 forward_v I I I I #
coedge $-1 $124 $125 $126 $127 forward $49 $-1 #
face $-1 $128 $129 $29 $-1 $130 forward single #
loop $-1 $-1 $131 $51 #
plane-surface $-1 0 26.356921245189202 0 0 -1 0 0 0 -1 forward_v I I I I #
coedge $-1 $132 $133 $134 $135 forward $52 $-1 #
face $-1 $136 $137 $30 $-1 $138 reversed single #
loop $-1 $-1 $139 $54 #
plane-surface $-1 -31.356802716019509 -26.356921245189199 5.6662186562660679 0 -0.70710678939079041 0.70710677298230451 1 0 0 forward_v I I I I #
coedge $-1 $140 $141 $142 $143 reversed $55 $-1 #
face $-1 $-1 $144 $31 $-1 $145 forward single #
loop $-1 $146 $147 $57 #
cone-surface $-1 -33.919087974498325 -19.833081159323726 3.869636648635419 0 0.70710678939079041 -0.70710677298230451 0.75 0 0 1 I I -0.70710678118654757 0.70710678118654757 0.75 forward I I I I #
loop $-1 $-1 $148 $40 #
coedge $-1 $92 $92 $149 $150 reversed $58 $-1 #
face $-1 $-1 $151 $32 $-1 $152 forward single #
loop $-1 $153 $154 $60 #
cone-surface $-1 -28.794517457540692 -19.833081159323726 3.869636648635419 0 0.70710678939079041 -0.70710677298230451 0.75 0 0 1 I I -0.70710678118654757 0.70710678118654757 0.75 forward I I I I #
loop $-1 $-1 $155 $41 #
coedge $-1 $97 $97 $156 $157 reversed $61 $-1 #
face $-1 $158 $159 $33 $-1 $160 reversed single #
loop $-1 $-1 $161 $63 #
plane-surface $-1 -19.37244849516528 -15.742224936023959 37.180809436129834 0 0.6018150307709319 0.79863550430605224 1 0 0 forward_v I I I I #
coedge $-1 $162 $163 $164 $165 reversed $64 $-1 #
face $-1 $-1 $166 $34 $-1 $167 forward single #
loop $-1 $168 $169 $66 #
cone-surface $-1 -23.888127721925038 21.198469747741473 5.4264940101343679 0 -0.6018150307709319 -0.79863550430605224 0.75 0 0 1 I I -0.70710678118654757 0.70710678118654757 0.75 forward I I I I #
loop $-1 $-1 $170 $43 #
coedge $-1 $106 $106 $171 $172 reversed $67 $-1 #
face $-1 $-1 $173 $35 $-1 $174 forward single #
loop $-1 $175 $176 $69 #
cone-surface $-1 -14.856769268405515 21.198469747741473 5.4264940101343679 0 -0.6018150307709319 -0.79863550430605224 0.75 0 0 1 I I -0.70710678118654757 0.70710678118654757 0.75 forward I I I I #
loop $-1 $-1 $177 $44 #
coedge $-1 $111 $111 $178 $179 reversed $70 $-1 #
face $-1 $180 $181 $27 $-1 $182 reversed single #
loop $-1 $-1 $183 $72 #
plane-surface $-1 0 -26.356921245189202 0 0 1 0 0 0 1 forward_v I I I I #
coedge $-1 $184 $185 $186 $187 forward $73 $-1 #
coedge $-1 $188 $75 $189 $190 forward $46 $-1 #
coedge $-1 $75 $188 $191 $192 forward $46 $-1 #
coedge $-1 $193 $194 $75 $119 reversed $195 $-1 #
edge $-1 $196 -26.356921245189202 $197 26.356921245189202 $118 $198 forward 7 unknown #
face $-1 $199 $200 $28 $-1 $201 reversed single #
loop $-1 $-1 $126 $76 #
plane-surface $-1 -55.917061519010687 0 -6.1672550442110445 0 0 1 1 0 0 forward_v I I I I #
coedge $-1 $202 $203 $125 $204 forward $77 $-1 #
coedge $-1 $205 $79 $206 $207 reversed $49 $-1 #
coedge $-1 $79 $205 $123 $204 reversed $49 $-1 #
coedge $-1 $208 $209 $79 $127 reversed $121 $-1 #
edge $-1 $210 -26.356921245189202 $211 26.356921245189202 $126 $212 forward 7 unknown #
face $-1 $213 $214 $29 $-1 $215 reversed single #
loop $-1 $-1 $216 $80 #
plane-surface $-1 55.91706151901068 0 -6.1672550442110445 0 0 1 1 0 0 forward_v I I I I #
coedge $-1 $217 $218 $132 $219 forward $81 $-1 #
coedge $-1 $220 $83 $131 $219 reversed $52 $-1 #
coedge $-1 $83 $220 $221 $222 reversed $52 $-1 #
coedge $-1 $223 $224 $83 $135 reversed $129 $-1 #
edge $-1 $225 -26.356921245189202 $226 26.356921245189202 $134 $227 forward 7 unknown #
face $-1 $228 $229 $30 $-1 $230 forward single #
loop $-1 $-1 $231 $84 #
plane-surface $-1 -37.335468319136744 -96.676141791386712 75.985437570698821 1 0 0 0 0.70710678939079041 -0.70710677298230451 forward_v I I I I #
coedge $-1 $232 $233 $234 $235 reversed $85 $-1 #
coedge $-1 $141 $87 $236 $237 reversed $55 $-1 #
coedge $-1 $87 $140 $232 $238 reversed $55 $-1 #
coedge $-1 $234 $239 $87 $143 forward $229 $-1 #
edge $-1 $240 21.981149650504154 $241 26.708407577352602 $142 $242 forward 7 unknown #
loop $-1 $-1 $149 $88 #
plane-surface $-1 -31.356802716019509 -26.356921245189199 5.6662186562660679 0 -0.70710678939079041 0.70710677298230451 1 0 0 forward_v I I I I #
loop $-1 $-1 $243 $57 #
coedge $-1 $147 $147 $148 $244 reversed $89 $-1 #
coedge $-1 $148 $148 $147 $244 forward $91 $-1 #
coedge $-1 $149 $149 $92 $150 forward $144 $-1 #
edge $-1 $245 -8.3738257662091889e-016 $245 6.2831853071795996 $149 $246 forward 7 unknown #
loop $-1 $-1 $156 $93 #
plane-surface $-1 -31.356802716019509 -26.356921245189199 5.6662186562660679 0 -0.70710678939079041 0.70710677298230451 1 0 0 forward_v I I I I #
loop $-1 $-1 $247 $60 #
coedge $-1 $154 $154 $155 $248 reversed $94 $-1 #
coedge $-1 $155 $155 $154 $248 forward $96 $-1 #
coedge $-1 $156 $156 $97 $157 forward $151 $-1 #
edge $-1 $249 -8.3738257662091889e-016 $249 6.2831853071795996 $156 $250 forward 7 unknown #
face $-1 $251 $252 $33 $-1 $253 reversed single #
loop $-1 $-1 $254 $98 #
plane-surface $-1 -8.8358636327258395 44.106109872439674 116.60223064989763 -1 0 0 0 0.6018150307709319 0.79863550430605224 forward_v I I I I #
coedge $-1 $255 $256 $257 $258 reversed $99 $-1 #
coedge $-1 $163 $101 $259 $260 reversed $64 $-1 #
coedge $-1 $101 $162 $255 $261 reversed $64 $-1 #
coedge $-1 $257 $262 $101 $165 forward $263 $-1 #
edge $-1 $264 -4.303866308969365 $265 2.2472893757795163 $164 $266 forward 7 unknown #
loop $-1 $-1 $171 $102 #
plane-surface $-1 -19.37244849516528 -15.742224936023959 37.180809436129834 0 0.6018150307709319 0.79863550430605224 1 0 0 forward_v I I I I #
loop $-1 $-1 $267 $66 #
coedge $-1 $169 $169 $170 $268 reversed $103 $-1 #
coedge $-1 $170 $170 $169 $268 forward $105 $-1 #
coedge $-1 $171 $171 $106 $172 forward $166 $-1 #
edge $-1 $269 -1.398493577192428e-015 $269 6.2831853071795987 $171 $270 forward 7 unknown #
loop $-1 $-1 $178 $107 #
plane-surface $-1 -19.37244849516528 -15.742224936023959 37.180809436129834 0 0.6018150307709319 0.79863550430605224 1 0 0 forward_v I I I I #
loop $-1 $-1 $271 $69 #
coedge $-1 $176 $176 $177 $272 reversed $108 $-1 #
coedge $-1 $177 $177 $176 $272 forward $110 $-1 #
coedge $-1 $178 $178 $111 $179 forward $173 $-1 #
edge $-1 $273 -1.398493577192428e-015 $273 6.2831853071795987 $178 $274 forward 7 unknown #
face $-1 $275 $276 $27 $-1 $277 reversed single #
loop $-1 $-1 $278 $112 #
plane-surface $-1 -49.723197119052706 0 0 1 0 0 0 0 -1 forward_v I I I I #
coedge $-1 $279 $191 $280 $281 forward $113 $-1 #
coedge $-1 $282 $115 $279 $283 forward $73 $-1 #
coedge $-1 $115 $282 $284 $285 forward $73 $-1 #
coedge $-1 $194 $193 $115 $187 reversed $195 $-1 #
edge $-1 $286 -26.356921245189202 $287 26.356921245189202 $186 $288 forward 7 unknown #
coedge $-1 $117 $116 $289 $290 forward $46 $-1 #
coedge $-1 $291 $292 $116 $190 reversed $276 $-1 #
edge $-1 $197 -49.723197119052706 $293 49.723197119052706 $189 $294 forward 7 unknown #
coedge $-1 $183 $295 $117 $192 reversed $113 $-1 #
edge $-1 $296 -49.723197119052706 $196 49.723197119052706 $191 $297 forward 7 unknown #
coedge $-1 $186 $118 $295 $298 forward $195 $-1 #
coedge $-1 $118 $186 $291 $299 reversed $195 $-1 #
loop $-1 $-1 $193 $275 #
vertex $-1 $119 $300 #
vertex $-1 $119 $301 #
straight-curve $-1 49.723197119052706 0 10.393476692811022 0 1 0 I I #
face $-1 $302 $303 $28 $-1 $304 reversed single #
loop $-1 $-1 $305 $120 #
plane-surface $-1 -62.110925918968668 0 -8.2803658685110335 1 0 0 0 0 -1 forward_v I I I I #
coedge $-1 $306 $123 $307 $308 reversed $77 $-1 #
coedge $-1 $123 $306 $208 $309 reversed $77 $-1 #
edge $-1 $210 6.1672550442110445 $310 10.393476692811022 $123 $311 forward 7 unknown #
coedge $-1 $125 $124 $312 $313 reversed $49 $-1 #
coedge $-1 $314 $315 $124 $207 forward $316 $-1 #
edge $-1 $317 -10.393476692811022 $211 -6.1672550442110445 $206 $318 forward 7 unknown #
coedge $-1 $319 $126 $203 $309 forward $121 $-1 #
coedge $-1 $126 $319 $314 $320 forward $121 $-1 #
vertex $-1 $204 $321 #
vertex $-1 $320 $322 #
straight-curve $-1 -49.723197119052706 0 -6.1672550442110445 0 -1 0 I I #
face $-1 $323 $324 $29 $-1 $325 reversed single #
loop $-1 $-1 $326 $128 #
plane-surface $-1 62.110925918968661 0 -8.2803658685110335 -1 0 0 0 0 1 forward_v I I I I #
coedge $-1 $224 $223 $327 $328 forward $129 $-1 #
coedge $-1 $329 $131 $224 $330 reversed $81 $-1 #
coedge $-1 $131 $329 $331 $332 reversed $81 $-1 #
edge $-1 $333 -10.393476692811022 $226 -6.1672550442110445 $131 $334 forward 7 unknown #
coedge $-1 $133 $132 $335 $336 reversed $52 $-1 #
coedge $-1 $337 $338 $133 $222 forward $339 $-1 #
edge $-1 $225 6.1672550442110445 $340 10.393476692811022 $221 $341 forward 7 unknown #
coedge $-1 $216 $134 $338 $342 forward $129 $-1 #
coedge $-1 $134 $216 $217 $330 forward $129 $-1 #
vertex $-1 $222 $343 #
vertex $-1 $330 $344 #
straight-curve $-1 49.723197119052706 0 -6.1672550442110445 0 1 0 I I #
face $-1 $-1 $345 $30 $-1 $346 reversed single #
loop $-1 $-1 $142 $136 #
plane-surface $-1 0 0 10.393476692811022 0 0 1 1 0 0 forward_v I I I I #
coedge $-1 $347 $348 $349 $350 reversed $137 $-1 #
coedge $-1 $351 $139 $141 $238 forward $85 $-1 #
coedge $-1 $139 $351 $347 $352 forward $85 $-1 #
coedge $-1 $349 $142 $139 $235 forward $229 $-1 #
edge $-1 $241 9.6997357548925187 $353 21.65706696112699 $234 $354 forward 7 unknown #
coedge $-1 $355 $356 $140 $237 forward $345 $-1 #
edge $-1 $357 -32.326500129083342 $240 -27.59924209253839 $236 $358 forward 7 unknown #
edge $-1 $241 -6.6853523505519394 $357 5.0242958677880813e-015 $141 $359 forward 7 unknown #
coedge $-1 $142 $349 $355 $360 forward $229 $-1 #
vertex $-1 $237 $361 #
vertex $-1 $143 $362 #
straight-curve $-1 -25.378137112902273 -48.338070895693356 10.393476692811021 0 1 0 I I #
coedge $-1 $243 $243 $-1 $363 reversed $146 $-1 #
edge $-1 $364 0 $364 6.2831853071796004 $147 $365 forward 7 unknown #
vertex $-1 $150 $366 #
ellipse-curve $-1 -33.919087974498325 -23.993292281764976 8.0298476745385443 0 -0.70710678939079041 0.70710677298230451 1.5 0 0 1 I I #
coedge $-1 $247 $247 $-1 $367 reversed $153 $-1 #
edge $-1 $368 0 $368 6.2831853071796004 $154 $369 forward 7 unknown #
vertex $-1 $157 $370 #
ellipse-curve $-1 -28.794517457540692 -23.993292281764976 8.0298476745385443 0 -0.70710678939079041 0.70710677298230451 1.5 0 0 1 I I #
face $-1 $-1 $263 $33 $-1 $371 forward single #
loop $-1 $-1 $372 $158 #
plane-surface $-1 0 26.356921245189202 0 0 -1 0 0 0 -1 forward_v I I I I #
coedge $-1 $373 $374 $375 $376 reversed $159 $-1 #
coedge $-1 $377 $161 $163 $261 forward $99 $-1 #
coedge $-1 $161 $377 $373 $378 forward $99 $-1 #
coedge $-1 $375 $164 $161 $258 forward $263 $-1 #
edge $-1 $265 -20.22280911002208 $379 0.85036061485680037 $257 $380 forward 7 unknown #
coedge $-1 $381 $382 $162 $260 forward $252 $-1 #
edge $-1 $383 -52.844288629220117 $264 -47.907638632137797 $259 $384 forward 7 unknown #
edge $-1 $265 44.510906796402104 $383 52.713842490378404 $163 $385 forward 7 unknown #
coedge $-1 $164 $375 $381 $386 forward $263 $-1 #
loop $-1 $-1 $375 $251 #
vertex $-1 $260 $387 #
vertex $-1 $165 $388 #
straight-curve $-1 -29.90903335760472 22.053054936219837 10.393476692811021 0 -1 0 I I #
coedge $-1 $267 $267 $-1 $389 reversed $168 $-1 #
edge $-1 $390 0 $390 6.2831853071796004 $169 $391 forward 7 unknown #
vertex $-1 $172 $392 #
ellipse-curve $-1 -23.888127721925038 23.081343402814756 7.9251516942698643 0 0.6018150307709319 0.79863550430605224 1.5 0 0 1 I I #
coedge $-1 $271 $271 $-1 $393 reversed $175 $-1 #
edge $-1 $394 0 $394 6.2831853071796004 $176 $395 forward 7 unknown #
vertex $-1 $179 $396 #
ellipse-curve $-1 -14.856769268405515 23.081343402814756 7.9251516942698643 0 0.6018150307709319 0.79863550430605224 1.5 0 0 1 I I #
face $-1 $-1 $195 $27 $-1 $397 reversed single #
loop $-1 $-1 $291 $180 #
plane-surface $-1 0 26.356921245189202 0 0 -1 0 0 0 -1 forward_v I I I I #
coedge $-1 $398 $289 $292 $399 forward $181 $-1 #
coedge $-1 $295 $183 $184 $283 reversed $113 $-1 #
coedge $-1 $289 $398 $183 $281 reversed $181 $-1 #
edge $-1 $296 -10.393476692811022 $400 10.393476692811022 $280 $401 forward 7 unknown #
coedge $-1 $185 $184 $398 $402 forward $73 $-1 #
edge $-1 $287 -49.723197119052706 $400 49.723197119052706 $279 $403 forward 7 unknown #
coedge $-1 $292 $291 $185 $285 reversed $276 $-1 #
edge $-1 $404 -49.723197119052706 $286 49.723197119052706 $284 $405 forward 7 unknown #
vertex $-1 $187 $406 #
vertex $-1 $298 $407 #
straight-curve $-1 49.723197119052706 0 -10.393476692811022 0 -1 0 I I #
coedge $-1 $278 $280 $188 $290 reversed $181 $-1 #
edge $-1 $293 -26.356921245189202 $296 26.356921245189202 $289 $408 forward 7 unknown #
coedge $-1 $284 $189 $194 $299 forward $276 $-1 #
coedge $-1 $189 $284 $278 $399 reversed $276 $-1 #
vertex $-1 $190 $409 #
straight-curve $-1 0 26.356921245189202 10.393476692811022 -1 0 0 I I #
coedge $-1 $191 $279 $193 $298 reversed $113 $-1 #
vertex $-1 $290 $410 #
straight-curve $-1 0 -26.356921245189202 10.393476692811022 1 0 0 I I #
edge $-1 $196 -10.393476692811022 $287 10.393476692811022 $193 $411 forward 7 unknown #
edge $-1 $197 -10.393476692811022 $286 10.393476692811022 $194 $412 forward 7 unknown #
point $-1 49.723197119052706 -26.356921245189202 10.393476692811022 #
point $-1 49.723197119052706 26.356921245189202 10.393476692811022 #
face $-1 $-1 $316 $28 $-1 $413 reversed single #
loop $-1 $-1 $312 $199 #
plane-surface $-1 0 0 -10.393476692811022 0 0 1 1 0 0 forward_v I I I I #
coedge $-1 $414 $415 $306 $416 forward $200 $-1 #
coedge $-1 $203 $202 $305 $416 reversed $77 $-1 #
coedge $-1 $312 $417 $202 $308 forward $303 $-1 #
edge $-1 $418 -62.110925918968668 $310 -49.723197119052706 $202 $419 forward 7 unknown #
edge $-1 $210 -6.193864399957981 $420 6.193864399957981 $203 $421 forward 7 unknown #
vertex $-1 $204 $422 #
straight-curve $-1 -49.723197119052706 26.356921245189202 0 0 0 -1 I I #
coedge $-1 $423 $307 $205 $313 forward $303 $-1 #
edge $-1 $310 -26.356921245189202 $317 26.356921245189202 $312 $424 forward 7 unknown #
coedge $-1 $425 $206 $209 $320 reversed $316 $-1 #
coedge $-1 $206 $425 $423 $426 reversed $316 $-1 #
loop $-1 $-1 $206 $302 #
vertex $-1 $426 $427 #
straight-curve $-1 -49.723197119052706 -26.356921245189202 0 0 0 1 I I #
coedge $-1 $209 $208 $415 $428 forward $121 $-1 #
edge $-1 $429 -6.193864399957981 $211 6.193864399957981 $314 $430 forward 7 unknown #
point $-1 -49.723197119052706 26.356921245189202 -6.1672550442110445 #
point $-1 -49.723197119052706 -26.356921245189202 -6.1672550442110445 #
face $-1 $-1 $339 $29 $-1 $431 reversed single #
loop $-1 $-1 $335 $213 #
plane-surface $-1 0 0 -10.393476692811022 0 0 1 1 0 0 forward_v I I I I #
coedge $-1 $432 $327 $433 $434 forward $214 $-1 #
coedge $-1 $326 $435 $216 $328 reversed $214 $-1 #
edge $-1 $436 -26.356921245189202 $437 26.356921245189202 $327 $438 forward 7 unknown #
coedge $-1 $218 $217 $435 $439 forward $81 $-1 #
edge $-1 $437 -6.193864399957981 $226 6.193864399957981 $217 $440 forward 7 unknown #
coedge $-1 $441 $335 $218 $332 forward $324 $-1 #
edge $-1 $333 -6.1938643999579739 $442 6.193864399957981 $218 $443 forward 7 unknown #
vertex $-1 $332 $444 #
straight-curve $-1 49.723197119052706 26.356921245189202 0 0 0 1 I I #
coedge $-1 $331 $445 $220 $336 forward $324 $-1 #
edge $-1 $340 -26.356921245189202 $333 26.356921245189202 $335 $446 forward 7 unknown #
coedge $-1 $433 $221 $445 $447 reversed $339 $-1 #
coedge $-1 $221 $433 $223 $342 reversed $339 $-1 #
loop $-1 $-1 $221 $323 #
vertex $-1 $222 $448 #
straight-curve $-1 49.723197119052706 -26.356921245189202 0 0 0 -1 I I #
edge $-1 $225 -6.193864399957981 $436 6.193864399957981 $338 $449 forward 7 unknown #
point $-1 49.723197119052699 -26.356921245189202 -6.1672550442110445 #
point $-1 49.723197119052699 26.356921245189202 -6.1672550442110445 #
loop $-1 $-1 $236 $228 #
plane-surface $-1 0 -26.356921245189202 0 0 1 0 0 0 1 forward_v I I I I #
coedge $-1 $348 $231 $233 $352 reversed $137 $-1 #
coedge $-1 $231 $347 $450 $451 reversed $137 $-1 #
coedge $-1 $239 $234 $231 $350 forward $229 $-1 #
edge $-1 $353 -26.708407577352602 $452 -21.981149650504154 $349 $453 forward 7 unknown #
coedge $-1 $233 $232 $356 $454 reversed $85 $-1 #
edge $-1 $455 -5.0242958677880813e-015 $353 6.6853523505519394 $347 $456 forward 7 unknown #
vertex $-1 $235 $457 #
straight-curve $-1 -15.678401358009754 -21.629663318340754 10.393476692811022 -1 0 0 I I #
coedge $-1 $450 $236 $239 $360 reversed $345 $-1 #
coedge $-1 $236 $450 $351 $454 forward $345 $-1 #
vertex $-1 $237 $458 #
straight-curve $-1 -25.378137112902273 -26.356921245189206 37.99271878534941 0 0 1 I I #
straight-curve $-1 -25.378137112902273 -26.356921245189199 5.6662186562660679 0 -0.70710677298230451 -0.70710678939079041 I I #
edge $-1 $452 -37.335468319136744 $240 -25.378137112902273 $355 $459 forward 7 unknown #
point $-1 -25.378137112902273 -26.356921245189202 10.393476692811022 #
point $-1 -25.378137112902273 -21.629663318340754 10.393476692811022 #
edge $-1 $460 1 $460 0 $243 $-1 forward 7 unknown #
vertex $-1 $244 $461 #
ellipse-curve $-1 -33.919087974498325 -20.36341125136682 4.3999667283721475 0 -0.70710678939079041 0.70710677298230451 1.5 0 0 1 I I #
point $-1 -32.419087974498325 -23.993292281764983 8.0298476745385496 #
edge $-1 $462 1 $462 0 $247 $-1 forward 7 unknown #
vertex $-1 $248 $463 #
ellipse-curve $-1 -28.794517457540692 -20.36341125136682 4.3999667283721475 0 -0.70710678939079041 0.70710677298230451 1.5 0 0 1 I I #
point $-1 -27.294517457540692 -23.993292281764983 8.0298476745385496 #
plane-surface $-1 0 0 10.393476692811022 0 0 1 1 0 0 forward_v I I I I #
coedge $-1 $382 $381 $374 $464 forward $252 $-1 #
coedge $-1 $374 $254 $256 $378 reversed $159 $-1 #
coedge $-1 $254 $373 $372 $464 reversed $159 $-1 #
coedge $-1 $262 $257 $254 $376 forward $263 $-1 #
edge $-1 $379 -2.2472893757795163 $465 4.303866308969365 $375 $466 forward 7 unknown #
coedge $-1 $256 $255 $382 $467 reversed $99 $-1 #
edge $-1 $468 -52.713842490378404 $379 -44.510906796402104 $373 $469 forward 7 unknown #
vertex $-1 $258 $470 #
straight-curve $-1 -9.6862242475826399 19.805765560440321 10.393476692811021 1 0 0 I I #
coedge $-1 $372 $259 $262 $386 reversed $252 $-1 #
coedge $-1 $259 $372 $377 $467 forward $252 $-1 #
vertex $-1 $260 $471 #
straight-curve $-1 -29.90903335760472 26.356921245189202 58.301115324948817 0 0 1 I I #
straight-curve $-1 -29.90903335760472 -15.742224936023959 37.180809436129834 0 0.79863550430605224 -0.6018150307709319 I I #
edge $-1 $465 8.8358636327258395 $264 29.90903335760472 $381 $472 forward 7 unknown #
point $-1 -29.90903335760472 26.356921245189202 10.393476692811022 #
point $-1 -29.90903335760472 19.805765560440321 10.393476692811021 #
edge $-1 $473 1 $473 0 $267 $-1 forward 7 unknown #
vertex $-1 $268 $474 #
ellipse-curve $-1 -23.888127721925038 21.649831020819672 6.025470638363907 0 0.6018150307709319 0.79863550430605224 1.5 0 0 1 I I #
point $-1 -22.388127721925038 23.081343402814746 7.9251516942698537 #
edge $-1 $475 1 $475 0 $271 $-1 forward 7 unknown #
vertex $-1 $272 $476 #
ellipse-curve $-1 -14.856769268405515 21.649831020819672 6.025470638363907 0 0.6018150307709319 0.79863550430605224 1.5 0 0 1 I I #
point $-1 -13.356769268405515 23.081343402814746 7.9251516942698537 #
plane-surface $-1 49.723197119052706 0 0 -1 0 0 0 0 1 forward_v I I I I #
coedge $-1 $280 $278 $282 $402 reversed $181 $-1 #
edge $-1 $293 -10.393476692811022 $404 10.393476692811022 $292 $477 forward 7 unknown #
vertex $-1 $402 $478 #
straight-curve $-1 -49.723197119052706 -26.356921245189202 0 0 0 -1 I I #
edge $-1 $400 -26.356921245189202 $404 26.356921245189202 $398 $479 forward 7 unknown #
straight-curve $-1 0 -26.356921245189202 -10.393476692811022 -1 0 0 I I #
vertex $-1 $285 $480 #
straight-curve $-1 0 26.356921245189202 -10.393476692811022 1 0 0 I I #
point $-1 49.723197119052706 26.356921245189202 -10.393476692811022 #
point $-1 49.723197119052706 -26.356921245189202 -10.393476692811022 #
straight-curve $-1 -49.723197119052706 0 10.393476692811022 0 -1 0 I I #
point $-1 -49.723197119052706 26.356921245189202 10.393476692811022 #
point $-1 -49.723197119052706 -26.356921245189202 10.393476692811022 #
straight-curve $-1 49.723197119052706 -26.356921245189202 0 0 0 -1 I I #
straight-curve $-1 49.723197119052706 26.356921245189202 0 0 0 -1 I I #
plane-surface $-1 0 -26.356921245189202 0 0 1 0 0 0 1 forward_v I I I I #
coedge $-1 $481 $305 $417 $482 reversed $200 $-1 #
coedge $-1 $305 $481 $319 $428 reversed $200 $-1 #
edge $-1 $420 -2.113110824299989 $418 2.113110824299989 $306 $483 forward 7 unknown #
coedge $-1 $307 $423 $414 $482 forward $303 $-1 #
vertex $-1 $308 $484 #
straight-curve $-1 0 26.356921245189202 -10.393476692811022 1 0 0 I I #
vertex $-1 $309 $485 #
straight-curve $-1 -55.917061519010687 26.356921245189202 -6.1672550442110445 -1 0 0 I I #
point $-1 -49.723197119052706 26.356921245189202 -10.393476692811022 #
coedge $-1 $417 $312 $315 $426 forward $303 $-1 #
straight-curve $-1 -49.723197119052706 0 -10.393476692811022 0 -1 0 I I #
coedge $-1 $315 $314 $481 $486 forward $316 $-1 #
edge $-1 $317 -6.193864399957981 $487 6.193864399957981 $315 $488 forward 7 unknown #
point $-1 -49.723197119052706 -26.356921245189202 -10.393476692811022 #
edge $-1 $420 -26.356921245189202 $429 26.356921245189202 $415 $489 forward 7 unknown #
vertex $-1 $428 $490 #
straight-curve $-1 -55.917061519010687 -26.356921245189202 -6.1672550442110445 1 0 0 I I #
plane-surface $-1 0 -26.356921245189202 0 0 1 0 0 0 1 forward_v I I I I #
coedge $-1 $435 $326 $441 $491 reversed $214 $-1 #
coedge $-1 $338 $337 $326 $434 reversed $339 $-1 #
edge $-1 $436 -2.113110824299989 $492 2.113110824299989 $326 $493 forward 7 unknown #
coedge $-1 $327 $432 $329 $439 reversed $214 $-1 #
vertex $-1 $328 $494 #
vertex $-1 $328 $495 #
straight-curve $-1 62.110925918968661 0 -6.1672550442110445 0 1 0 I I #
edge $-1 $437 -2.113110824299989 $442 2.113110824299989 $435 $496 forward 7 unknown #
straight-curve $-1 55.91706151901068 26.356921245189202 -6.1672550442110445 -1 0 0 I I #
coedge $-1 $445 $331 $432 $491 forward $324 $-1 #
vertex $-1 $491 $497 #
straight-curve $-1 55.91706151901068 26.356921245189202 -10.393476692811022 1 0 0 I I #
point $-1 49.723197119052706 26.356921245189202 -10.393476692811022 #
coedge $-1 $335 $441 $337 $447 forward $324 $-1 #
straight-curve $-1 49.723197119052706 0 -10.393476692811022 0 1 0 I I #
edge $-1 $492 -6.193864399957981 $340 6.1938643999579739 $337 $498 forward 7 unknown #
point $-1 49.723197119052706 -26.356921245189202 -10.393476692811022 #
straight-curve $-1 55.91706151901068 -26.356921245189202 -6.1672550442110445 1 0 0 I I #
coedge $-1 $356 $355 $348 $451 forward $345 $-1 #
edge $-1 $452 27.59924209253839 $455 32.326500129083342 $450 $499 forward 7 unknown #
vertex $-1 $360 $500 #
straight-curve $-1 -37.335468319136744 -48.338070895693356 10.393476692811021 0 -1 0 I I #
edge $-1 $455 -21.65706696112699 $357 -9.6997357548925187 $356 $501 forward 7 unknown #
vertex $-1 $454 $502 #
straight-curve $-1 -37.335468319136744 -26.356921245189199 5.6662186562660679 0 0.70710677298230451 0.70710678939079041 I I #
point $-1 -37.335468319136744 -21.629663318340754 10.393476692811022 #
point $-1 -25.378137112902273 -26.356921245189202 5.6662186562660644 #
straight-curve $-1 0 -26.356921245189202 10.393476692811022 1 0 0 I I #
vertex $-1 $363 $503 #
point $-1 -32.419087974498325 -20.36341125136682 4.3999667283721475 #
vertex $-1 $367 $504 #
point $-1 -27.294517457540692 -20.36341125136682 4.3999667283721475 #
edge $-1 $465 47.907638632137797 $468 52.844288629220117 $372 $505 forward 7 unknown #
vertex $-1 $386 $506 #
straight-curve $-1 -8.8358636327258395 22.053054936219837 10.393476692811021 0 1 0 I I #
edge $-1 $468 -0.85036061485680037 $383 20.22280911002208 $382 $507 forward 7 unknown #
vertex $-1 $467 $508 #
straight-curve $-1 -8.8358636327258395 -15.742224936023959 37.180809436129834 0 -0.79863550430605224 0.6018150307709319 I I #
point $-1 -8.8358636327258395 19.805765560440321 10.393476692811021 #
point $-1 -29.90903335760472 26.356921245189199 5.4568266957287008 #
straight-curve $-1 0 26.356921245189202 10.393476692811022 -1 0 0 I I #
vertex $-1 $389 $509 #
point $-1 -22.388127721925038 21.649831020819672 6.025470638363907 #
vertex $-1 $393 $510 #
point $-1 -13.356769268405515 21.649831020819672 6.025470638363907 #
straight-curve $-1 -49.723197119052706 26.356921245189202 0 0 0 -1 I I #
point $-1 -49.723197119052706 -26.356921245189202 -10.393476692811022 #
straight-curve $-1 -49.723197119052706 0 -10.393476692811022 0 1 0 I I #
point $-1 -49.723197119052706 26.356921245189202 -10.393476692811022 #
coedge $-1 $415 $414 $425 $486 reversed $200 $-1 #
edge $-1 $487 -26.356921245189202 $418 26.356921245189202 $414 $511 forward 7 unknown #
straight-curve $-1 -62.110925918968668 26.356921245189202 -8.2803658685110335 0 0 -1 I I #
point $-1 -62.110925918968668 26.356921245189202 -10.393476692811022 #
point $-1 -62.110925918968668 26.356921245189202 -6.1672550442110445 #
edge $-1 $429 -2.113110824299989 $487 2.113110824299989 $481 $512 forward 7 unknown #
vertex $-1 $482 $513 #
straight-curve $-1 -55.917061519010687 -26.356921245189202 -10.393476692811022 -1 0 0 I I #
straight-curve $-1 -62.110925918968668 0 -6.1672550442110445 0 -1 0 I I #
point $-1 -62.110925918968668 -26.356921245189202 -6.1672550442110445 #
edge $-1 $442 -26.356921245189202 $492 26.356921245189202 $432 $514 forward 7 unknown #
vertex $-1 $434 $515 #
straight-curve $-1 62.110925918968661 -26.356921245189202 -8.2803658685110335 0 0 -1 I I #
point $-1 62.110925918968661 -26.356921245189202 -6.1672550442110445 #
point $-1 62.110925918968661 26.356921245189202 -6.1672550442110445 #
straight-curve $-1 62.110925918968661 26.356921245189202 -8.2803658685110335 0 0 -1 I I #
point $-1 62.110925918968661 26.356921245189202 -10.393476692811022 #
straight-curve $-1 55.91706151901068 -26.356921245189202 -10.393476692811022 -1 0 0 I I #
straight-curve $-1 -37.335468319136744 -26.356921245189206 37.99271878534941 0 0 -1 I I #
point $-1 -37.335468319136744 -26.356921245189202 10.393476692811022 #
straight-curve $-1 -15.678401358009754 -26.356921245189202 5.6662186562660635 1 0 0 I I #
point $-1 -37.335468319136744 -26.356921245189202 5.6662186562660644 #
point $-1 -33.919087974498325 -19.302751067280632 3.3393065688986905 #
point $-1 -28.794517457540692 -19.302751067280632 3.3393065688986905 #
straight-curve $-1 -8.8358636327258395 26.356921245189202 58.301115324948817 0 0 -1 I I #
point $-1 -8.8358636327258395 26.356921245189202 10.393476692811022 #
straight-curve $-1 -9.6862242475826399 26.356921245189206 5.4568266957286973 -1 0 0 I I #
point $-1 -8.8358636327258395 26.356921245189199 5.4568266957287008 #
point $-1 -23.888127721925038 20.747108474663275 4.8275173819048289 #
point $-1 -14.856769268405515 20.747108474663275 4.8275173819048289 #
straight-curve $-1 -62.110925918968668 0 -10.393476692811022 0 1 0 I I #
straight-curve $-1 -62.110925918968668 -26.356921245189202 -8.2803658685110335 0 0 -1 I I #
point $-1 -62.110925918968668 -26.356921245189202 -10.393476692811022 #
straight-curve $-1 62.110925918968661 0 -10.393476692811022 0 -1 0 I I #
point $-1 62.110925918968661 -26.356921245189202 -10.393476692811022 #
End-of-ACIS-data 