500 0 3 0           
7 Unknown 11 ACIS 5.0 NT 24 Fri Mar 26 18:08:52 1999 
-1 9.9999999999999995e-007 1e-010 
body $-1 $3 $-1 $4 #
body $-1 $5 $-1 $6 #
body $-1 $7 $-1 $8 #
lump $-1 $-1 $9 $0 #
transform $-1 1 0 0 0 1 0 0 0 1 46.29291665395062 27.779281969409308 8.861189947223119 1 rotate no_reflect no_shear #
lump $-1 $-1 $10 $1 #
transform $-1 1 0 0 0 1 0 0 0 1 46.29291665395062 27.779281969409308 8.861189947223119 1 rotate no_reflect no_shear #
lump $-1 $-1 $11 $2 #
transform $-1 1 0 0 0 1 0 0 0 1 46.29291665395062 27.779281969409308 8.861189947223119 1 rotate no_reflect no_shear #
shell $-1 $-1 $-1 $12 $-1 $3 #
shell $-1 $-1 $-1 $13 $-1 $5 #
shell $-1 $-1 $-1 $14 $-1 $7 #
face $-1 $15 $16 $9 $-1 $17 forward single #
face $-1 $18 $19 $10 $-1 $20 forward single #
face $-1 $21 $22 $11 $-1 $23 reversed single #
face $-1 $24 $25 $9 $-1 $26 reversed single #
loop $-1 $-1 $27 $12 #
plane-surface $-1 0 0 8.861189947223119 0 0 1 1 0 0 forward_v I I I I #
face $-1 $28 $29 $10 $-1 $30 forward single #
loop $-1 $-1 $31 $13 #
plane-surface $-1 36.801362796204714 -94.379957578109583 68.312480283560163 -1 0 0 0 -0.71933980857756763 0.69465836192734942 forward_v I I I I #
face $-1 $32 $33 $11 $-1 $34 reversed single #
loop $-1 $35 $36 $14 #
cone-surface $-1 27.11173698758261 -23.633126578834876 4.6932596564593112 0 0.71933980857756763 -0.69465836192734942 1.5 0 0 1 I I 0 1 1.5 forward I I I I #
face $-1 $37 $38 $9 $-1 $39 reversed single #
loop $-1 $-1 $40 $15 #
plane-surface $-1 0 0 -8.861189947223119 0 0 1 1 0 0 forward_v I I I I #
coedge $-1 $41 $42 $43 $44 forward $16 $-1 #
face $-1 $45 $46 $10 $-1 $47 forward single #
loop $-1 $-1 $48 $18 #
plane-surface $-1 27.11173698758261 -27.779281969409325 3.9969569802148612 0 -0.71933980857756763 0.69465836192734942 1 0 0 forward_v I I I I #
coedge $-1 $49 $50 $51 $52 reversed $19 $-1 #
face $-1 $53 $54 $11 $-1 $55 forward single #
loop $-1 $56 $57 $21 #
cone-surface $-1 27.11173698758261 -21.296133863224288 2.436452077754117 0 0.71933980857756763 -0.69465836192734942 0.75 0 0 1 I I -0.70710678118654757 0.70710678118654757 0.75 forward I I I I #
loop $-1 $-1 $58 $14 #
coedge $-1 $36 $36 $59 $60 reversed $22 $-1 #
face $-1 $61 $62 $9 $-1 $63 reversed single #
loop $-1 $-1 $64 $24 #
plane-surface $-1 0 -27.779281969409308 0 0 1 0 0 0 1 forward_v I I I I #
coedge $-1 $65 $66 $67 $68 forward $25 $-1 #
coedge $-1 $69 $27 $70 $71 forward $16 $-1 #
coedge $-1 $27 $69 $72 $73 forward $16 $-1 #
coedge $-1 $74 $75 $27 $44 reversed $76 $-1 #
edge $-1 $77 -27.779281969409308 $78 27.779281969409308 $43 $79 forward 7 unknown #
face $-1 $80 $81 $10 $-1 $82 forward single #
loop $-1 $-1 $83 $28 #
plane-surface $-1 17.42211117896051 -94.379957578109583 68.312480283560163 1 0 0 0 0.71933980857756763 -0.69465836192734942 forward_v I I I I #
coedge $-1 $84 $85 $86 $87 reversed $29 $-1 #
coedge $-1 $50 $31 $85 $88 forward $19 $-1 #
coedge $-1 $31 $49 $89 $90 reversed $19 $-1 #
coedge $-1 $91 $86 $31 $52 forward $81 $-1 #
edge $-1 $92 -24.108031882439512 $93 -19.410696819645484 $51 $94 forward 7 unknown #
face $-1 $95 $96 $11 $-1 $97 forward single #
loop $-1 $-1 $98 $32 #
plane-surface $-1 36.801362796204714 -94.379957578109583 68.312480283560163 -1 0 0 0 -0.71933980857756763 0.69465836192734942 forward_v I I I I #
loop $-1 $-1 $99 $21 #
coedge $-1 $57 $57 $58 $100 forward $33 $-1 #
coedge $-1 $58 $58 $57 $100 reversed $35 $-1 #
coedge $-1 $59 $59 $36 $60 forward $96 $-1 #
edge $-1 $101 -3.0901991210412328e-016 $101 6.2831853071796004 $59 $102 forward 7 unknown #
face $-1 $103 $104 $9 $-1 $105 reversed single #
loop $-1 $-1 $106 $37 #
plane-surface $-1 -46.29291665395062 0 0 1 0 0 0 0 -1 forward_v I I I I #
coedge $-1 $107 $72 $108 $109 forward $38 $-1 #
coedge $-1 $110 $40 $107 $111 forward $25 $-1 #
coedge $-1 $40 $110 $112 $113 forward $25 $-1 #
coedge $-1 $75 $74 $40 $68 reversed $76 $-1 #
edge $-1 $114 -27.779281969409308 $115 27.779281969409308 $67 $116 forward 7 unknown #
coedge $-1 $42 $41 $117 $118 forward $16 $-1 #
coedge $-1 $119 $120 $41 $71 reversed $104 $-1 #
edge $-1 $78 -46.29291665395062 $121 46.29291665395062 $70 $122 forward 7 unknown #
coedge $-1 $64 $123 $42 $73 reversed $38 $-1 #
edge $-1 $124 -46.29291665395062 $77 46.29291665395062 $72 $125 forward 7 unknown #
coedge $-1 $67 $43 $123 $126 forward $76 $-1 #
coedge $-1 $43 $67 $119 $127 reversed $76 $-1 #
loop $-1 $-1 $74 $103 #
vertex $-1 $44 $128 #
vertex $-1 $44 $129 #
straight-curve $-1 46.29291665395062 0 8.861189947223119 0 1 0 I I #
face $-1 $130 $131 $10 $-1 $132 reversed single #
loop $-1 $-1 $133 $45 #
plane-surface $-1 0 0 8.861189947223119 0 0 1 1 0 0 forward_v I I I I #
coedge $-1 $134 $135 $133 $136 reversed $46 $-1 #
coedge $-1 $137 $48 $135 $138 reversed $29 $-1 #
coedge $-1 $48 $137 $49 $88 reversed $29 $-1 #
coedge $-1 $51 $133 $48 $87 forward $81 $-1 #
edge $-1 $139 3.8662426851692047 $92 23.245494302413409 $86 $140 forward 7 unknown #
edge $-1 $92 -6.7620794915088291 $141 -2.5437104257963417e-014 $49 $142 forward 7 unknown #
coedge $-1 $143 $144 $50 $90 forward $145 $-1 #
edge $-1 $93 25.295050194556964 $141 30.159283161565202 $89 $146 forward 7 unknown #
coedge $-1 $147 $51 $144 $148 forward $81 $-1 #
vertex $-1 $87 $149 #
vertex $-1 $148 $150 #
straight-curve $-1 36.801362796204714 -47.189978789054791 8.8611899472231173 0 -1 0 I I #
face $-1 $151 $152 $11 $-1 $153 forward single #
loop $-1 $154 $59 $53 #
plane-surface $-1 27.11173698758261 -27.779281969409325 3.9969569802148612 0 -0.71933980857756763 0.69465836192734942 1 0 0 forward_v I I I I #
coedge $-1 $155 $156 $157 $158 reversed $54 $-1 #
coedge $-1 $99 $99 $-1 $159 forward $56 $-1 #
edge $-1 $160 0 $160 6.2831853071796004 $57 $161 forward 7 unknown #
vertex $-1 $60 $162 #
ellipse-curve $-1 27.11173698758261 -25.430614438012292 6.429073463718999 0 0.71933980857756763 -0.69465836192734942 1.5 0 0 1 I I #
face $-1 $-1 $76 $9 $-1 $163 reversed single #
loop $-1 $-1 $119 $61 #
plane-surface $-1 0 27.779281969409308 0 0 -1 0 0 0 -1 forward_v I I I I #
coedge $-1 $164 $117 $120 $165 forward $62 $-1 #
coedge $-1 $123 $64 $65 $111 reversed $38 $-1 #
coedge $-1 $117 $164 $64 $109 reversed $62 $-1 #
edge $-1 $124 -8.861189947223119 $166 8.861189947223119 $108 $167 forward 7 unknown #
coedge $-1 $66 $65 $164 $168 forward $25 $-1 #
edge $-1 $115 -46.29291665395062 $166 46.29291665395062 $107 $169 forward 7 unknown #
coedge $-1 $120 $119 $66 $113 reversed $104 $-1 #
edge $-1 $170 -46.29291665395062 $114 46.29291665395062 $112 $171 forward 7 unknown #
vertex $-1 $68 $172 #
vertex $-1 $126 $173 #
straight-curve $-1 46.29291665395062 0 -8.861189947223119 0 -1 0 I I #
coedge $-1 $106 $108 $69 $118 reversed $62 $-1 #
edge $-1 $121 -27.779281969409308 $124 27.779281969409308 $117 $174 forward 7 unknown #
coedge $-1 $112 $70 $75 $127 forward $104 $-1 #
coedge $-1 $70 $112 $106 $165 reversed $104 $-1 #
vertex $-1 $71 $175 #
straight-curve $-1 0 27.779281969409308 8.861189947223119 -1 0 0 I I #
coedge $-1 $72 $107 $74 $126 reversed $38 $-1 #
vertex $-1 $118 $176 #
straight-curve $-1 0 -27.779281969409308 8.861189947223119 1 0 0 I I #
edge $-1 $77 -8.861189947223119 $115 8.861189947223119 $74 $177 forward 7 unknown #
edge $-1 $78 -8.861189947223119 $114 8.861189947223119 $75 $178 forward 7 unknown #
point $-1 46.29291665395062 -27.779281969409308 8.861189947223119 #
point $-1 46.29291665395062 27.779281969409308 8.861189947223119 #
face $-1 $179 $145 $10 $-1 $180 reversed single #
loop $-1 $-1 $181 $80 #
plane-surface $-1 0 0 -8.861189947223119 0 0 1 1 0 0 forward_v I I I I #
coedge $-1 $86 $182 $83 $136 forward $81 $-1 #
coedge $-1 $135 $83 $183 $184 reversed $46 $-1 #
coedge $-1 $83 $134 $84 $138 forward $46 $-1 #
edge $-1 $185 19.410696819645484 $139 24.108031882439512 $133 $186 forward 7 unknown #
coedge $-1 $85 $84 $143 $187 reversed $29 $-1 #
edge $-1 $188 2.5437104257963417e-014 $139 6.7620794915088291 $135 $189 forward 7 unknown #
vertex $-1 $87 $190 #
straight-curve $-1 13.555868493791305 -23.081946906615276 8.861189947223119 1 0 0 I I #
vertex $-1 $187 $191 #
straight-curve $-1 36.801362796204714 -27.779281969409325 3.9969569802148612 0 -0.69465836192734942 -0.71933980857756763 I I #
coedge $-1 $183 $89 $137 $187 forward $145 $-1 #
coedge $-1 $89 $192 $91 $148 reversed $145 $-1 #
loop $-1 $-1 $183 $130 #
straight-curve $-1 36.801362796204714 -27.779281969409311 34.156240141780081 0 0 -1 I I #
coedge $-1 $193 $91 $194 $195 forward $81 $-1 #
edge $-1 $93 36.801362796204714 $196 46.29291665395062 $144 $197 forward 7 unknown #
point $-1 36.801362796204714 -23.081946906615279 8.861189947223119 #
point $-1 36.801362796204714 -27.779281969409308 8.861189947223119 #
face $-1 $198 $199 $11 $-1 $200 forward single #
loop $-1 $-1 $201 $95 #
plane-surface $-1 17.42211117896051 -94.379957578109583 68.312480283560163 1 0 0 0 0.71933980857756763 -0.69465836192734942 forward_v I I I I #
loop $-1 $-1 $202 $53 #
coedge $-1 $156 $98 $203 $204 forward $54 $-1 #
coedge $-1 $98 $155 $205 $206 reversed $54 $-1 #
coedge $-1 $207 $208 $98 $158 forward $199 $-1 #
edge $-1 $209 -24.108031882439512 $210 -19.410696819645484 $157 $211 forward 7 unknown #
edge $-1 $212 1 $212 0 $99 $-1 forward 7 unknown #
vertex $-1 $100 $213 #
ellipse-curve $-1 27.11173698758261 -21.835638719657464 2.9574458491996292 0 -0.71933980857756763 0.69465836192734942 1.5 0 0 1 I I #
point $-1 28.61173698758261 -25.430614438012284 6.4290734637189928 #
plane-surface $-1 46.29291665395062 0 0 -1 0 0 0 0 1 forward_v I I I I #
coedge $-1 $108 $106 $110 $168 reversed $62 $-1 #
edge $-1 $121 -8.861189947223119 $170 8.861189947223119 $120 $214 forward 7 unknown #
vertex $-1 $168 $215 #
straight-curve $-1 -46.29291665395062 -27.779281969409308 0 0 0 -1 I I #
edge $-1 $166 -27.779281969409308 $170 27.779281969409308 $164 $216 forward 7 unknown #
straight-curve $-1 0 -27.779281969409308 -8.861189947223119 -1 0 0 I I #
vertex $-1 $113 $217 #
straight-curve $-1 0 27.779281969409308 -8.861189947223119 1 0 0 I I #
point $-1 46.29291665395062 27.779281969409308 -8.861189947223119 #
point $-1 46.29291665395062 -27.779281969409308 -8.861189947223119 #
straight-curve $-1 -46.29291665395062 0 8.861189947223119 0 -1 0 I I #
point $-1 -46.29291665395062 27.779281969409308 8.861189947223119 #
point $-1 -46.29291665395062 -27.779281969409308 8.861189947223119 #
straight-curve $-1 46.29291665395062 -27.779281969409308 0 0 0 -1 I I #
straight-curve $-1 46.29291665395062 27.779281969409308 0 0 0 -1 I I #
face $-1 $218 $219 $10 $-1 $220 reversed single #
plane-surface $-1 0 -27.779281969409308 0 0 1 0 0 0 1 forward_v I I I I #
coedge $-1 $221 $222 $223 $224 forward $131 $-1 #
coedge $-1 $133 $225 $226 $227 forward $81 $-1 #
coedge $-1 $226 $143 $134 $184 forward $145 $-1 #
edge $-1 $188 -30.159283161565202 $185 -25.295050194556964 $183 $228 forward 7 unknown #
vertex $-1 $184 $229 #
straight-curve $-1 17.42211117896051 -47.189978789054791 8.8611899472231173 0 1 0 I I #
edge $-1 $141 -23.245494302413409 $188 -3.8662426851692047 $143 $230 forward 7 unknown #
vertex $-1 $187 $231 #
straight-curve $-1 17.42211117896051 -27.779281969409325 3.9969569802148612 0 0.69465836192734942 0.71933980857756763 I I #
point $-1 17.42211117896051 -23.081946906615279 8.861189947223119 #
point $-1 36.801362796204714 -27.779281969409308 3.9969569802148794 #
coedge $-1 $144 $232 $233 $234 reversed $145 $-1 #
coedge $-1 $225 $147 $235 $236 forward $81 $-1 #
coedge $-1 $233 $237 $147 $195 reversed $238 $-1 #
edge $-1 $196 -27.779281969409308 $239 27.779281969409308 $194 $240 forward 7 unknown #
vertex $-1 $195 $241 #
straight-curve $-1 0 -27.779281969409308 8.861189947223119 1 0 0 I I #
face $-1 $242 $243 $11 $-1 $244 reversed single #
loop $-1 $-1 $245 $151 #
plane-surface $-1 0 0 8.861189947223119 0 0 1 1 0 0 forward_v I I I I #
coedge $-1 $246 $247 $245 $248 reversed $152 $-1 #
coedge $-1 $249 $203 $208 $250 reversed $154 $-1 #
coedge $-1 $202 $251 $155 $204 reversed $154 $-1 #
edge $-1 $209 -6.7620794915088291 $252 -2.5437104257963417e-014 $155 $253 forward 7 unknown #
coedge $-1 $254 $255 $156 $206 forward $256 $-1 #
edge $-1 $210 25.295050194556964 $252 30.159283161565202 $205 $257 forward 7 unknown #
coedge $-1 $258 $157 $255 $259 forward $199 $-1 #
coedge $-1 $157 $245 $202 $250 forward $199 $-1 #
vertex $-1 $250 $260 #
vertex $-1 $259 $261 #
straight-curve $-1 36.801362796204714 -47.189978789054791 8.8611899472231173 0 -1 0 I I #
vertex $-1 $159 $262 #
point $-1 28.61173698758261 -21.835638719657464 2.9574458491996292 #
straight-curve $-1 -46.29291665395062 27.779281969409308 0 0 0 -1 I I #
point $-1 -46.29291665395062 -27.779281969409308 -8.861189947223119 #
straight-curve $-1 -46.29291665395062 0 -8.861189947223119 0 1 0 I I #
point $-1 -46.29291665395062 27.779281969409308 -8.861189947223119 #
face $-1 $263 $264 $10 $-1 $265 reversed single #
loop $-1 $-1 $266 $179 #
plane-surface $-1 -46.29291665395062 0 0 1 0 0 0 0 -1 forward_v I I I I #
coedge $-1 $267 $181 $232 $268 forward $131 $-1 #
coedge $-1 $181 $267 $269 $270 forward $131 $-1 #
coedge $-1 $237 $233 $181 $224 reversed $238 $-1 #
edge $-1 $271 -27.779281969409308 $272 27.779281969409308 $223 $273 forward 7 unknown #
coedge $-1 $182 $193 $274 $275 forward $81 $-1 #
coedge $-1 $276 $183 $182 $227 reversed $145 $-1 #
edge $-1 $277 -46.29291665395062 $185 17.42211117896051 $226 $197 forward 7 unknown #
straight-curve $-1 17.42211117896051 -27.779281969409311 34.156240141780081 0 0 1 I I #
point $-1 17.42211117896051 -27.779281969409308 8.861189947223119 #
straight-curve $-1 13.555868493791305 -27.779281969409308 3.9969569802148799 -1 0 0 I I #
point $-1 17.42211117896051 -27.779281969409308 3.9969569802148794 #
coedge $-1 $192 $276 $221 $268 reversed $145 $-1 #
coedge $-1 $223 $194 $192 $234 forward $238 $-1 #
edge $-1 $196 -8.861189947223119 $272 8.861189947223119 $233 $278 forward 7 unknown #
coedge $-1 $279 $280 $193 $236 reversed $264 $-1 #
edge $-1 $239 -46.29291665395062 $281 46.29291665395062 $235 $282 forward 7 unknown #
coedge $-1 $194 $223 $279 $283 reversed $238 $-1 #
loop $-1 $-1 $233 $263 #
vertex $-1 $195 $284 #
straight-curve $-1 46.29291665395062 0 8.861189947223119 0 1 0 I I #
point $-1 46.29291665395062 -27.779281969409308 8.861189947223119 #
face $-1 $285 $256 $11 $-1 $286 reversed single #
loop $-1 $-1 $287 $198 #
plane-surface $-1 0 0 -8.861189947223119 0 0 1 1 0 0 forward_v I I I I #
coedge $-1 $208 $288 $201 $248 forward $199 $-1 #
coedge $-1 $247 $201 $289 $290 reversed $152 $-1 #
coedge $-1 $201 $246 $249 $291 forward $152 $-1 #
edge $-1 $292 19.410696819645484 $293 24.108031882439512 $245 $294 forward 7 unknown #
coedge $-1 $251 $202 $247 $291 reversed $154 $-1 #
edge $-1 $293 3.8662426851692047 $209 23.245494302413409 $208 $295 forward 7 unknown #
coedge $-1 $203 $249 $254 $296 reversed $154 $-1 #
vertex $-1 $296 $297 #
straight-curve $-1 36.801362796204714 -27.779281969409325 3.9969569802148612 0 -0.69465836192734942 -0.71933980857756763 I I #
coedge $-1 $289 $205 $251 $296 forward $256 $-1 #
coedge $-1 $205 $298 $207 $259 reversed $256 $-1 #
loop $-1 $-1 $289 $242 #
straight-curve $-1 36.801362796204714 -27.779281969409311 34.156240141780081 0 0 -1 I I #
coedge $-1 $299 $207 $300 $301 forward $199 $-1 #
edge $-1 $210 36.801362796204714 $302 46.29291665395062 $255 $303 forward 7 unknown #
point $-1 36.801362796204714 -23.081946906615279 8.861189947223119 #
point $-1 36.801362796204714 -27.779281969409308 8.861189947223119 #
point $-1 27.11173698758261 -20.756629006791112 1.9154583063086048 #
face $-1 $-1 $238 $10 $-1 $304 reversed single #
loop $-1 $-1 $279 $218 #
plane-surface $-1 0 27.779281969409308 0 0 -1 0 0 0 -1 forward_v I I I I #
coedge $-1 $305 $274 $280 $306 forward $219 $-1 #
coedge $-1 $222 $221 $305 $307 forward $131 $-1 #
edge $-1 $272 -46.29291665395062 $308 46.29291665395062 $232 $309 forward 7 unknown #
coedge $-1 $280 $279 $222 $270 reversed $264 $-1 #
edge $-1 $310 -46.29291665395062 $271 46.29291665395062 $269 $311 forward 7 unknown #
vertex $-1 $224 $312 #
vertex $-1 $234 $313 #
straight-curve $-1 46.29291665395062 0 -8.861189947223119 0 -1 0 I I #
coedge $-1 $266 $314 $225 $275 reversed $219 $-1 #
edge $-1 $281 -27.779281969409308 $277 27.779281969409308 $274 $315 forward 7 unknown #
coedge $-1 $232 $226 $314 $316 forward $145 $-1 #
vertex $-1 $275 $317 #
straight-curve $-1 46.29291665395062 -27.779281969409308 0 0 0 -1 I I #
coedge $-1 $269 $235 $237 $283 forward $264 $-1 #
coedge $-1 $235 $269 $266 $306 reversed $264 $-1 #
vertex $-1 $236 $318 #
straight-curve $-1 0 27.779281969409308 8.861189947223119 -1 0 0 I I #
edge $-1 $239 -8.861189947223119 $271 8.861189947223119 $237 $319 forward 7 unknown #
point $-1 46.29291665395062 27.779281969409308 8.861189947223119 #
face $-1 $320 $321 $11 $-1 $322 reversed single #
plane-surface $-1 0 -27.779281969409308 0 0 1 0 0 0 1 forward_v I I I I #
coedge $-1 $323 $324 $325 $326 forward $243 $-1 #
coedge $-1 $245 $327 $328 $329 forward $199 $-1 #
coedge $-1 $328 $254 $246 $290 forward $256 $-1 #
edge $-1 $330 -30.159283161565202 $292 -25.295050194556964 $289 $331 forward 7 unknown #
edge $-1 $330 2.5437104257963417e-014 $293 6.7620794915088291 $247 $332 forward 7 unknown #
vertex $-1 $290 $333 #
vertex $-1 $250 $334 #
straight-curve $-1 17.42211117896051 -47.189978789054791 8.8611899472231173 0 1 0 I I #
straight-curve $-1 13.555868493791305 -23.081946906615276 8.861189947223119 1 0 0 I I #
edge $-1 $252 -23.245494302413409 $330 -3.8662426851692047 $254 $335 forward 7 unknown #
point $-1 36.801362796204714 -27.779281969409308 3.9969569802148794 #
coedge $-1 $255 $336 $337 $338 reversed $256 $-1 #
coedge $-1 $327 $258 $339 $340 forward $199 $-1 #
coedge $-1 $337 $341 $258 $301 reversed $342 $-1 #
edge $-1 $302 -27.779281969409308 $343 27.779281969409308 $300 $344 forward 7 unknown #
vertex $-1 $301 $345 #
straight-curve $-1 0 -27.779281969409308 8.861189947223119 1 0 0 I I #
plane-surface $-1 46.29291665395062 0 0 -1 0 0 0 0 1 forward_v I I I I #
coedge $-1 $314 $266 $267 $307 reversed $219 $-1 #
edge $-1 $281 -8.861189947223119 $310 8.861189947223119 $280 $346 forward 7 unknown #
edge $-1 $308 -27.779281969409308 $310 27.779281969409308 $305 $347 forward 7 unknown #
vertex $-1 $307 $348 #
straight-curve $-1 0 -27.779281969409308 -8.861189947223119 -1 0 0 I I #
vertex $-1 $270 $349 #
straight-curve $-1 0 27.779281969409308 -8.861189947223119 1 0 0 I I #
point $-1 46.29291665395062 27.779281969409308 -8.861189947223119 #
point $-1 46.29291665395062 -27.779281969409308 -8.861189947223119 #
coedge $-1 $274 $305 $276 $316 reversed $219 $-1 #
straight-curve $-1 -46.29291665395062 0 8.861189947223119 0 -1 0 I I #
edge $-1 $277 -8.861189947223119 $308 8.861189947223119 $314 $350 forward 7 unknown #
point $-1 -46.29291665395062 -27.779281969409308 8.861189947223119 #
point $-1 -46.29291665395062 27.779281969409308 8.861189947223119 #
straight-curve $-1 46.29291665395062 27.779281969409308 0 0 0 -1 I I #
face $-1 $351 $352 $11 $-1 $353 reversed single #
loop $-1 $-1 $354 $285 #
plane-surface $-1 -46.29291665395062 0 0 1 0 0 0 0 -1 forward_v I I I I #
coedge $-1 $355 $287 $336 $356 forward $243 $-1 #
coedge $-1 $287 $355 $357 $358 forward $243 $-1 #
coedge $-1 $341 $337 $287 $326 reversed $342 $-1 #
edge $-1 $359 -27.779281969409308 $360 27.779281969409308 $325 $361 forward 7 unknown #
coedge $-1 $288 $299 $362 $363 forward $199 $-1 #
coedge $-1 $364 $289 $288 $329 reversed $256 $-1 #
edge $-1 $365 -46.29291665395062 $292 17.42211117896051 $328 $303 forward 7 unknown #
vertex $-1 $296 $366 #
straight-curve $-1 17.42211117896051 -27.779281969409311 34.156240141780081 0 0 1 I I #
straight-curve $-1 17.42211117896051 -27.779281969409325 3.9969569802148612 0 0.69465836192734942 0.71933980857756763 I I #
point $-1 17.42211117896051 -27.779281969409308 8.861189947223119 #
point $-1 17.42211117896051 -23.081946906615279 8.861189947223119 #
straight-curve $-1 13.555868493791305 -27.779281969409308 3.9969569802148799 -1 0 0 I I #
coedge $-1 $298 $364 $323 $356 reversed $256 $-1 #
coedge $-1 $325 $300 $298 $338 forward $342 $-1 #
edge $-1 $302 -8.861189947223119 $360 8.861189947223119 $337 $367 forward 7 unknown #
coedge $-1 $368 $369 $299 $340 reversed $352 $-1 #
edge $-1 $343 -46.29291665395062 $370 46.29291665395062 $339 $371 forward 7 unknown #
coedge $-1 $300 $325 $368 $372 reversed $342 $-1 #
loop $-1 $-1 $337 $351 #
vertex $-1 $301 $373 #
straight-curve $-1 46.29291665395062 0 8.861189947223119 0 1 0 I I #
point $-1 46.29291665395062 -27.779281969409308 8.861189947223119 #
straight-curve $-1 -46.29291665395062 27.779281969409308 0 0 0 -1 I I #
straight-curve $-1 -46.29291665395062 0 -8.861189947223119 0 1 0 I I #
point $-1 -46.29291665395062 -27.779281969409308 -8.861189947223119 #
point $-1 -46.29291665395062 27.779281969409308 -8.861189947223119 #
straight-curve $-1 -46.29291665395062 -27.779281969409308 0 0 0 -1 I I #
face $-1 $-1 $342 $11 $-1 $374 reversed single #
loop $-1 $-1 $368 $320 #
plane-surface $-1 0 27.779281969409308 0 0 -1 0 0 0 -1 forward_v I I I I #
coedge $-1 $375 $362 $369 $376 forward $321 $-1 #
coedge $-1 $324 $323 $375 $377 forward $243 $-1 #
edge $-1 $360 -46.29291665395062 $378 46.29291665395062 $336 $379 forward 7 unknown #
coedge $-1 $369 $368 $324 $358 reversed $352 $-1 #
edge $-1 $380 -46.29291665395062 $359 46.29291665395062 $357 $381 forward 7 unknown #
vertex $-1 $326 $382 #
vertex $-1 $338 $383 #
straight-curve $-1 46.29291665395062 0 -8.861189947223119 0 -1 0 I I #
coedge $-1 $354 $384 $327 $363 reversed $321 $-1 #
edge $-1 $370 -27.779281969409308 $365 27.779281969409308 $362 $385 forward 7 unknown #
coedge $-1 $336 $328 $384 $386 forward $256 $-1 #
vertex $-1 $363 $387 #
point $-1 17.42211117896051 -27.779281969409308 3.9969569802148794 #
straight-curve $-1 46.29291665395062 -27.779281969409308 0 0 0 -1 I I #
coedge $-1 $357 $339 $341 $372 forward $352 $-1 #
coedge $-1 $339 $357 $354 $376 reversed $352 $-1 #
vertex $-1 $340 $388 #
straight-curve $-1 0 27.779281969409308 8.861189947223119 -1 0 0 I I #
edge $-1 $343 -8.861189947223119 $359 8.861189947223119 $341 $389 forward 7 unknown #
point $-1 46.29291665395062 27.779281969409308 8.861189947223119 #
plane-surface $-1 46.29291665395062 0 0 -1 0 0 0 0 1 forward_v I I I I #
coedge $-1 $384 $354 $355 $377 reversed $321 $-1 #
edge $-1 $370 -8.861189947223119 $380 8.861189947223119 $369 $390 forward 7 unknown #
edge $-1 $378 -27.779281969409308 $380 27.779281969409308 $375 $391 forward 7 unknown #
vertex $-1 $377 $392 #
straight-curve $-1 0 -27.779281969409308 -8.861189947223119 -1 0 0 I I #
vertex $-1 $358 $393 #
straight-curve $-1 0 27.779281969409308 -8.861189947223119 1 0 0 I I #
point $-1 46.29291665395062 27.779281969409308 -8.861189947223119 #
point $-1 46.29291665395062 -27.779281969409308 -8.861189947223119 #
coedge $-1 $362 $375 $364 $386 reversed $321 $-1 #
straight-curve $-1 -46.29291665395062 0 8.861189947223119 0 -1 0 I I #
edge $-1 $365 -8.861189947223119 $378 8.861189947223119 $384 $394 forward 7 unknown #
point $-1 -46.29291665395062 -27.779281969409308 8.861189947223119 #
point $-1 -46.29291665395062 27.779281969409308 8.861189947223119 #
straight-curve $-1 46.29291665395062 27.779281969409308 0 0 0 -1 I I #
straight-curve $-1 -46.29291665395062 27.779281969409308 0 0 0 -1 I I #
straight-curve $-1 -46.29291665395062 0 -8.861189947223119 0 1 0 I I #
point $-1 -46.29291665395062 -27.779281969409308 -8.861189947223119 #
point $-1 -46.29291665395062 27.779281969409308 -8.861189947223119 #
straight-curve $-1 -46.29291665395062 -27.779281969409308 0 0 0 -1 I I #
End-of-ACIS-data 