500 0 9 0           
7 Unknown 11 ACIS 5.0 NT 24 Fri Mar 26 18:20:46 1999 
-1 9.9999999999999995e-007 1e-010 
body $-1 $9 $-1 $10 #
body $-1 $11 $-1 $12 #
body $-1 $13 $-1 $14 #
body $-1 $15 $-1 $16 #
body $-1 $17 $-1 $18 #
body $-1 $19 $-1 $20 #
body $-1 $21 $-1 $22 #
body $-1 $23 $-1 $24 #
body $-1 $25 $-1 $26 #
lump $-1 $-1 $27 $0 #
transform $-1 1 0 0 0 1 0 0 0 1 52.458876308481095 26.60102252849509 11.313897835203679 1 rotate no_reflect no_shear #
lump $-1 $-1 $28 $1 #
transform $-1 1 0 0 0 1 0 0 0 1 52.458876308481095 26.60102252849509 11.313897835203679 1 rotate no_reflect no_shear #
lump $-1 $-1 $29 $2 #
transform $-1 1 0 0 0 1 0 0 0 1 52.458876308481095 26.60102252849509 11.313897835203679 1 rotate no_reflect no_shear #
lump $-1 $-1 $30 $3 #
transform $-1 1 0 0 0 1 0 0 0 1 52.458876308481095 26.60102252849509 11.313897835203679 1 rotate no_reflect no_shear #
lump $-1 $-1 $31 $4 #
transform $-1 1 0 0 0 1 0 0 0 1 52.458876308481095 26.60102252849509 11.313897835203679 1 rotate no_reflect no_shear #
lump $-1 $-1 $32 $5 #
transform $-1 1 0 0 0 1 0 0 0 1 52.458876308481095 26.60102252849509 11.313897835203679 1 rotate no_reflect no_shear #
lump $-1 $-1 $33 $6 #
transform $-1 1 0 0 0 1 0 0 0 1 52.458876308481095 26.60102252849509 11.313897835203679 1 rotate no_reflect no_shear #
lump $-1 $-1 $34 $7 #
transform $-1 1 0 0 0 1 0 0 0 1 52.458876308481095 26.60102252849509 11.313897835203679 1 rotate no_reflect no_shear #
lump $-1 $-1 $35 $8 #
transform $-1 1 0 0 0 1 0 0 0 1 52.458876308481095 26.60102252849509 11.313897835203679 1 rotate no_reflect no_shear #
shell $-1 $-1 $-1 $36 $-1 $9 #
shell $-1 $-1 $-1 $37 $-1 $11 #
shell $-1 $-1 $-1 $38 $-1 $13 #
shell $-1 $-1 $-1 $39 $-1 $15 #
shell $-1 $-1 $-1 $40 $-1 $17 #
shell $-1 $-1 $-1 $41 $-1 $19 #
shell $-1 $-1 $-1 $42 $-1 $21 #
shell $-1 $-1 $-1 $43 $-1 $23 #
shell $-1 $-1 $-1 $44 $-1 $25 #
face $-1 $45 $46 $27 $-1 $47 forward single #
face $-1 $48 $49 $28 $-1 $50 forward single #
face $-1 $51 $52 $29 $-1 $53 reversed single #
face $-1 $54 $55 $30 $-1 $56 forward single #
face $-1 $57 $58 $31 $-1 $59 forward single #
face $-1 $60 $61 $32 $-1 $62 forward single #
face $-1 $63 $64 $33 $-1 $65 reversed single #
face $-1 $66 $67 $34 $-1 $68 forward single #
face $-1 $69 $70 $35 $-1 $71 forward single #
face $-1 $72 $73 $27 $-1 $74 reversed single #
loop $-1 $-1 $75 $36 #
plane-surface $-1 0 0 11.313897835203679 0 0 1 1 0 0 forward_v I I I I #
face $-1 $76 $77 $28 $-1 $78 reversed single #
loop $-1 $-1 $79 $37 #
plane-surface $-1 0 -19.378942400888782 -2.4427461557839369 0 0 1 1 0 0 forward_v I I I I #
face $-1 $80 $81 $29 $-1 $82 reversed single #
loop $-1 $-1 $83 $38 #
plane-surface $-1 -142.39094393691255 14.978637513321953 58.091713181662413 0 1 0 -0.85716730853699208 0 0.51503806187062418 forward_v I I I I #
face $-1 $84 $85 $30 $-1 $86 forward single #
loop $-1 $87 $88 $39 #
cone-surface $-1 -49.587411668839465 17.303114516356583 7.2694761216188999 0.85716730853699208 0 -0.51503806187062418 0.25751903093531209 0 0.42858365426849604 1 I I 0 1 0.5 forward I I I I #
face $-1 $89 $90 $31 $-1 $91 forward single #
loop $-1 $92 $93 $40 #
cone-surface $-1 -49.587411668839465 20.789830020908521 7.2694761216188999 0.85716730853699208 0 -0.51503806187062418 0.25751903093531209 0 0.42858365426849604 1 I I 0 1 0.5 forward I I I I #
face $-1 $94 $95 $32 $-1 $96 forward single #
loop $-1 $97 $98 $41 #
cone-surface $-1 -49.587411668839465 24.27654552546046 7.2694761216188999 0.85716730853699208 0 -0.51503806187062418 0.25751903093531209 0 0.42858365426849604 1 I I 0 1 0.5 forward I I I I #
face $-1 $99 $100 $33 $-1 $101 reversed single #
loop $-1 $-1 $102 $42 #
plane-surface $-1 29.24774048192964 15.734114686012564 147.59724847566329 0 -1 0 -0.5877852598018023 0 -0.80901698891910034 forward_v I I I I #
face $-1 $103 $104 $34 $-1 $105 forward single #
loop $-1 $106 $107 $43 #
cone-surface $-1 44.266312116023194 8.6219476731353417 4.6288961698597753 -0.5877852598018023 0 -0.80901698891910034 0.80901698891910034 0 -0.5877852598018023 1 I I 0 1 1 forward I I I I #
face $-1 $108 $109 $35 $-1 $110 forward single #
loop $-1 $111 $112 $44 #
cone-surface $-1 44.266312116023194 12.889247880861678 4.6288961698597753 -0.5877852598018023 0 -0.80901698891910034 0.80901698891910034 0 -0.5877852598018023 1 I I 0 1 1 forward I I I I #
face $-1 $113 $114 $27 $-1 $115 reversed single #
loop $-1 $-1 $116 $45 #
plane-surface $-1 0 0 -11.313897835203679 0 0 1 1 0 0 forward_v I I I I #
coedge $-1 $117 $118 $119 $120 forward $46 $-1 #
face $-1 $121 $122 $28 $-1 $123 reversed single #
loop $-1 $-1 $124 $48 #
plane-surface $-1 0 -19.378942400888782 -6.6802699624284472 0 0 1 1 0 0 forward_v I I I I #
coedge $-1 $125 $126 $127 $128 reversed $49 $-1 #
face $-1 $129 $130 $29 $-1 $131 forward single #
loop $-1 $-1 $132 $51 #
plane-surface $-1 -52.458876308481109 20.789830020908521 4.0550772180005978 -0.85716730853699208 0 0.51503806187062418 0.51503806187062418 0 0.85716730853699208 forward_v I I I I #
coedge $-1 $133 $134 $135 $136 reversed $52 $-1 #
face $-1 $-1 $137 $30 $-1 $138 forward single #
loop $-1 $139 $140 $54 #
cone-surface $-1 -48.682424851650303 17.303114516356583 6.7257052011680116 0.85716730853699208 0 -0.51503806187062418 0.12875951546765604 0 0.21429182713424802 1 I I -0.70710678118654746 0.70710678118654746 0.25 forward I I I I #
loop $-1 $-1 $141 $39 #
coedge $-1 $88 $88 $142 $143 reversed $55 $-1 #
face $-1 $-1 $144 $31 $-1 $145 forward single #
loop $-1 $146 $147 $57 #
cone-surface $-1 -48.682424851650303 20.789830020908521 6.7257052011680116 0.85716730853699208 0 -0.51503806187062418 0.12875951546765604 0 0.21429182713424802 1 I I -0.70710678118654746 0.70710678118654746 0.25 forward I I I I #
loop $-1 $-1 $148 $40 #
coedge $-1 $93 $93 $149 $150 reversed $58 $-1 #
face $-1 $-1 $151 $32 $-1 $152 forward single #
loop $-1 $153 $154 $60 #
cone-surface $-1 -48.682424851650303 24.27654552546046 6.7257052011680116 0.85716730853699208 0 -0.51503806187062418 0.12875951546765604 0 0.21429182713424802 1 I I -0.70710678118654746 0.70710678118654746 0.25 forward I I I I #
loop $-1 $-1 $155 $41 #
coedge $-1 $98 $98 $156 $157 reversed $61 $-1 #
face $-1 $158 $159 $33 $-1 $160 reversed single #
loop $-1 $-1 $161 $63 #
plane-surface $-1 -32.421367997852705 10.75559777699851 62.717004169329485 0.5877852598018023 0 0.80901698891910034 0.80901698891910034 0 -0.5877852598018023 forward_v I I I I #
coedge $-1 $162 $163 $164 $165 reversed $64 $-1 #
face $-1 $-1 $166 $34 $-1 $167 forward single #
loop $-1 $168 $169 $66 #
cone-surface $-1 42.844825030160152 8.6219476731353417 2.6723870828845797 -0.5877852598018023 0 -0.80901698891910034 0.40450849445955017 0 -0.29389262990090115 1 I I -0.70710678118654724 0.70710678118654791 0.5 forward I I I I #
loop $-1 $-1 $170 $43 #
coedge $-1 $107 $107 $171 $172 reversed $67 $-1 #
face $-1 $-1 $173 $35 $-1 $174 forward single #
loop $-1 $175 $176 $69 #
cone-surface $-1 42.844825030160152 12.889247880861678 2.6723870828845797 -0.5877852598018023 0 -0.80901698891910034 0.40450849445955017 0 -0.29389262990090115 1 I I -0.70710678118654724 0.70710678118654791 0.5 forward I I I I #
loop $-1 $-1 $177 $44 #
coedge $-1 $112 $112 $178 $179 reversed $70 $-1 #
face $-1 $180 $181 $27 $-1 $182 reversed single #
loop $-1 $-1 $183 $72 #
plane-surface $-1 0 -26.60102252849509 0 0 1 0 0 0 1 forward_v I I I I #
coedge $-1 $184 $185 $186 $187 forward $73 $-1 #
coedge $-1 $188 $75 $189 $190 forward $46 $-1 #
coedge $-1 $75 $188 $191 $192 forward $46 $-1 #
coedge $-1 $193 $194 $75 $120 reversed $195 $-1 #
edge $-1 $196 -26.60102252849509 $197 26.60102252849509 $119 $198 forward 7 unknown #
face $-1 $199 $200 $28 $-1 $201 reversed single #
loop $-1 $-1 $202 $76 #
plane-surface $-1 0 -12.156862273282474 -4.5615080591061918 0 -1 0 0 0 -1 forward_v I I I I #
coedge $-1 $203 $204 $205 $206 reversed $77 $-1 #
coedge $-1 $207 $79 $208 $209 forward $49 $-1 #
coedge $-1 $79 $207 $210 $211 reversed $49 $-1 #
coedge $-1 $212 $213 $79 $128 forward $214 $-1 #
edge $-1 $215 2.4673910728380832 $216 16.911551328050699 $127 $217 forward 7 unknown #
face $-1 $218 $219 $29 $-1 $220 reversed single #
loop $-1 $-1 $135 $80 #
plane-surface $-1 0 0 11.313897835203679 0 0 1 1 0 0 forward_v I I I I #
coedge $-1 $221 $222 $223 $224 reversed $81 $-1 #
coedge $-1 $134 $83 $225 $226 reversed $52 $-1 #
coedge $-1 $83 $133 $221 $227 reversed $52 $-1 #
coedge $-1 $223 $228 $83 $136 forward $130 $-1 #
edge $-1 $229 18.73659565997518 $230 23.098134959148588 $135 $231 forward 7 unknown #
loop $-1 $-1 $142 $84 #
plane-surface $-1 -52.458876308481109 20.789830020908521 4.0550772180005978 -0.85716730853699208 0 0.51503806187062418 0.51503806187062418 0 0.85716730853699208 forward_v I I I I #
loop $-1 $-1 $232 $54 #
coedge $-1 $140 $140 $141 $233 reversed $85 $-1 #
coedge $-1 $141 $141 $140 $233 forward $87 $-1 #
coedge $-1 $142 $142 $88 $143 forward $137 $-1 #
edge $-1 $234 0 $234 6.2831853071796004 $142 $235 forward 7 unknown #
loop $-1 $-1 $149 $89 #
plane-surface $-1 -52.458876308481109 20.789830020908521 4.0550772180005978 -0.85716730853699208 0 0.51503806187062418 0.51503806187062418 0 0.85716730853699208 forward_v I I I I #
loop $-1 $-1 $236 $57 #
coedge $-1 $147 $147 $148 $237 reversed $90 $-1 #
coedge $-1 $148 $148 $147 $237 forward $92 $-1 #
coedge $-1 $149 $149 $93 $150 forward $144 $-1 #
edge $-1 $238 0 $238 6.2831853071796004 $149 $239 forward 7 unknown #
loop $-1 $-1 $156 $94 #
plane-surface $-1 -52.458876308481109 20.789830020908521 4.0550772180005978 -0.85716730853699208 0 0.51503806187062418 0.51503806187062418 0 0.85716730853699208 forward_v I I I I #
loop $-1 $-1 $240 $60 #
coedge $-1 $154 $154 $155 $241 reversed $95 $-1 #
coedge $-1 $155 $155 $154 $241 forward $97 $-1 #
coedge $-1 $156 $156 $98 $157 forward $151 $-1 #
edge $-1 $242 0 $242 6.2831853071796004 $156 $243 forward 7 unknown #
face $-1 $244 $245 $33 $-1 $246 reversed single #
loop $-1 $-1 $247 $99 #
plane-surface $-1 29.24774048192964 5.7770808679844556 147.59724847566329 0 1 0 0.5877852598018023 0 0.80901698891910034 forward_v I I I I #
coedge $-1 $248 $249 $250 $251 reversed $100 $-1 #
coedge $-1 $163 $102 $252 $253 reversed $64 $-1 #
coedge $-1 $102 $162 $248 $254 reversed $64 $-1 #
coedge $-1 $250 $255 $102 $165 forward $256 $-1 #
edge $-1 $257 -37.835006067516275 $258 -23.705066594524745 $164 $259 forward 7 unknown #
loop $-1 $-1 $171 $103 #
plane-surface $-1 -32.421367997852705 10.75559777699851 62.717004169329485 0.5877852598018023 0 0.80901698891910034 0.80901698891910034 0 -0.5877852598018023 forward_v I I I I #
loop $-1 $-1 $260 $66 #
coedge $-1 $169 $169 $170 $261 reversed $104 $-1 #
coedge $-1 $170 $170 $169 $261 forward $106 $-1 #
coedge $-1 $171 $171 $107 $172 forward $166 $-1 #
edge $-1 $262 0 $262 6.2831853071796004 $171 $263 forward 7 unknown #
loop $-1 $-1 $178 $108 #
plane-surface $-1 -32.421367997852705 10.75559777699851 62.717004169329485 0.5877852598018023 0 0.80901698891910034 0.80901698891910034 0 -0.5877852598018023 forward_v I I I I #
loop $-1 $-1 $264 $69 #
coedge $-1 $176 $176 $177 $265 reversed $109 $-1 #
coedge $-1 $177 $177 $176 $265 forward $111 $-1 #
coedge $-1 $178 $178 $112 $179 forward $173 $-1 #
edge $-1 $266 0 $266 6.2831853071796004 $178 $267 forward 7 unknown #
face $-1 $268 $269 $27 $-1 $270 reversed single #
loop $-1 $-1 $271 $113 #
plane-surface $-1 -52.458876308481095 0 0 1 0 0 0 0 -1 forward_v I I I I #
coedge $-1 $272 $191 $273 $274 forward $114 $-1 #
coedge $-1 $275 $116 $272 $276 forward $73 $-1 #
coedge $-1 $116 $275 $277 $278 forward $73 $-1 #
coedge $-1 $194 $193 $116 $187 reversed $195 $-1 #
edge $-1 $279 -26.60102252849509 $280 26.60102252849509 $186 $281 forward 7 unknown #
coedge $-1 $118 $117 $282 $283 forward $46 $-1 #
coedge $-1 $284 $285 $117 $190 reversed $269 $-1 #
edge $-1 $197 -52.458876308481095 $286 52.458876308481095 $189 $287 forward 7 unknown #
coedge $-1 $183 $288 $118 $192 reversed $114 $-1 #
edge $-1 $289 -52.458876308481095 $196 52.458876308481095 $191 $290 forward 7 unknown #
coedge $-1 $186 $119 $288 $291 forward $195 $-1 #
coedge $-1 $119 $186 $284 $292 reversed $195 $-1 #
loop $-1 $-1 $193 $268 #
vertex $-1 $120 $293 #
vertex $-1 $120 $294 #
straight-curve $-1 52.458876308481095 0 11.313897835203679 0 1 0 I I #
face $-1 $295 $296 $28 $-1 $297 reversed single #
loop $-1 $-1 $298 $121 #
plane-surface $-1 -52.458876308481095 0 0 1 0 0 0 0 -1 forward_v I I I I #
coedge $-1 $299 $208 $213 $300 reversed $122 $-1 #
coedge $-1 $301 $124 $302 $303 reversed $77 $-1 #
coedge $-1 $124 $301 $299 $304 forward $77 $-1 #
coedge $-1 $213 $212 $124 $206 forward $214 $-1 #
edge $-1 $305 -16.911551328050699 $306 -2.4673910728380832 $205 $307 forward 7 unknown #
coedge $-1 $126 $125 $298 $308 reversed $49 $-1 #
coedge $-1 $202 $309 $125 $209 reversed $122 $-1 #
edge $-1 $215 -52.458876308481095 $310 52.458876308481095 $208 $311 forward 7 unknown #
coedge $-1 $312 $313 $126 $211 forward $296 $-1 #
edge $-1 $216 -52.458876308481095 $314 52.458876308481095 $210 $315 forward 7 unknown #
coedge $-1 $205 $127 $313 $316 forward $214 $-1 #
coedge $-1 $127 $205 $202 $300 forward $214 $-1 #
loop $-1 $-1 $127 $295 #
vertex $-1 $128 $317 #
vertex $-1 $316 $318 #
straight-curve $-1 52.458876308481095 -9.689471200444391 -2.4427461557839369 0 -1 0 I I #
face $-1 $-1 $319 $29 $-1 $320 reversed single #
loop $-1 $-1 $321 $129 #
plane-surface $-1 0 26.60102252849509 0 0 -1 0 0 0 -1 forward_v I I I I #
coedge $-1 $322 $132 $134 $227 forward $81 $-1 #
coedge $-1 $132 $322 $321 $323 reversed $81 $-1 #
coedge $-1 $324 $135 $132 $224 forward $130 $-1 #
edge $-1 $230 4.5837225028676922 $325 16.206107518040831 $223 $326 forward 7 unknown #
coedge $-1 $327 $328 $133 $226 forward $319 $-1 #
edge $-1 $329 -24.990779372830584 $229 -17.731958755627527 $225 $330 forward 7 unknown #
edge $-1 $230 -8.4683824790196365 $329 -2.787470371894754e-014 $134 $331 forward 7 unknown #
coedge $-1 $135 $324 $327 $332 forward $130 $-1 #
vertex $-1 $226 $333 #
vertex $-1 $136 $334 #
straight-curve $-1 -71.195471968456275 14.978637513321953 11.313897835203679 1 0 0 I I #
coedge $-1 $232 $232 $-1 $335 reversed $139 $-1 #
edge $-1 $336 0 $336 6.2831853071796004 $140 $337 forward 7 unknown #
vertex $-1 $143 $338 #
ellipse-curve $-1 -50.278106658894394 17.303114516356583 7.6844875266021413 -0.85716730853699208 0 0.51503806187062418 0.25751903093531209 0 0.42858365426849604 1 I I #
coedge $-1 $236 $236 $-1 $339 reversed $146 $-1 #
edge $-1 $340 0 $340 6.2831853071796004 $147 $341 forward 7 unknown #
vertex $-1 $150 $342 #
ellipse-curve $-1 -50.278106658894394 20.789830020908521 7.6844875266021413 -0.85716730853699208 0 0.51503806187062418 0.25751903093531209 0 0.42858365426849604 1 I I #
coedge $-1 $240 $240 $-1 $343 reversed $153 $-1 #
edge $-1 $344 0 $344 6.2831853071796004 $154 $345 forward 7 unknown #
vertex $-1 $157 $346 #
ellipse-curve $-1 -50.278106658894394 24.27654552546046 7.6844875266021413 -0.85716730853699208 0 0.51503806187062418 0.25751903093531209 0 0.42858365426849604 1 I I #
face $-1 $-1 $256 $33 $-1 $347 forward single #
loop $-1 $-1 $348 $158 #
plane-surface $-1 52.458876308481095 0 0 -1 0 0 0 0 1 forward_v I I I I #
coedge $-1 $349 $350 $351 $352 reversed $159 $-1 #
coedge $-1 $353 $161 $163 $254 forward $100 $-1 #
coedge $-1 $161 $353 $349 $354 forward $100 $-1 #
coedge $-1 $351 $164 $161 $251 forward $256 $-1 #
edge $-1 $258 -10.356315797513309 $355 -0.39928197948520072 $250 $356 forward 7 unknown #
coedge $-1 $357 $358 $162 $253 forward $245 $-1 #
edge $-1 $359 -72.750728548284485 $257 -62.48472640262797 $252 $360 forward 7 unknown #
edge $-1 $258 87.452186792602845 $359 104.91775261696216 $163 $361 forward 7 unknown #
coedge $-1 $164 $351 $357 $362 forward $256 $-1 #
loop $-1 $-1 $351 $244 #
vertex $-1 $253 $363 #
vertex $-1 $165 $364 #
straight-curve $-1 14.62387024096482 15.734114686012564 11.313897835203676 -1 0 0 I I #
coedge $-1 $260 $260 $-1 $365 reversed $168 $-1 #
edge $-1 $366 0 $366 6.2831853071796004 $169 $367 forward 7 unknown #
vertex $-1 $172 $368 #
ellipse-curve $-1 45.393906571985326 8.6219476731353417 6.1808967623754176 0.5877852598018023 0 0.80901698891910034 0.80901698891910034 0 -0.5877852598018023 1 I I #
coedge $-1 $264 $264 $-1 $369 reversed $175 $-1 #
edge $-1 $370 0 $370 6.2831853071796004 $176 $371 forward 7 unknown #
vertex $-1 $179 $372 #
ellipse-curve $-1 45.393906571985326 12.889247880861678 6.1808967623754176 0.5877852598018023 0 0.80901698891910034 0.80901698891910034 0 -0.5877852598018023 1 I I #
face $-1 $-1 $195 $27 $-1 $373 reversed single #
loop $-1 $-1 $284 $180 #
plane-surface $-1 0 26.60102252849509 0 0 -1 0 0 0 -1 forward_v I I I I #
coedge $-1 $374 $282 $285 $375 forward $181 $-1 #
coedge $-1 $288 $183 $184 $276 reversed $114 $-1 #
coedge $-1 $282 $374 $183 $274 reversed $181 $-1 #
edge $-1 $289 -11.313897835203679 $376 11.313897835203679 $273 $377 forward 7 unknown #
coedge $-1 $185 $184 $374 $378 forward $73 $-1 #
edge $-1 $280 -52.458876308481095 $376 52.458876308481095 $272 $379 forward 7 unknown #
coedge $-1 $285 $284 $185 $278 reversed $269 $-1 #
edge $-1 $380 -52.458876308481095 $279 52.458876308481095 $277 $381 forward 7 unknown #
vertex $-1 $187 $382 #
vertex $-1 $291 $383 #
straight-curve $-1 52.458876308481095 0 -11.313897835203679 0 -1 0 I I #
coedge $-1 $271 $273 $188 $283 reversed $181 $-1 #
edge $-1 $286 -26.60102252849509 $289 26.60102252849509 $282 $384 forward 7 unknown #
coedge $-1 $277 $189 $194 $292 forward $269 $-1 #
coedge $-1 $189 $277 $271 $375 reversed $269 $-1 #
vertex $-1 $190 $385 #
straight-curve $-1 0 26.60102252849509 11.313897835203679 -1 0 0 I I #
coedge $-1 $191 $272 $193 $291 reversed $114 $-1 #
vertex $-1 $283 $386 #
straight-curve $-1 0 -26.60102252849509 11.313897835203679 1 0 0 I I #
edge $-1 $196 -11.313897835203679 $280 11.313897835203679 $193 $387 forward 7 unknown #
edge $-1 $197 -11.313897835203679 $279 11.313897835203679 $194 $388 forward 7 unknown #
point $-1 52.458876308481095 -26.60102252849509 11.313897835203679 #
point $-1 52.458876308481095 26.60102252849509 11.313897835203679 #
face $-1 $-1 $214 $28 $-1 $389 reversed single #
loop $-1 $-1 $210 $199 #
plane-surface $-1 0 -26.60102252849509 0 0 1 0 0 0 1 forward_v I I I I #
coedge $-1 $390 $391 $207 $308 forward $200 $-1 #
coedge $-1 $309 $202 $204 $304 reversed $122 $-1 #
edge $-1 $306 -4.3995159328753513 $215 -0.16199212623084103 $213 $392 forward 7 unknown #
coedge $-1 $204 $203 $393 $394 reversed $77 $-1 #
coedge $-1 $313 $312 $203 $303 forward $296 $-1 #
edge $-1 $395 -52.458876308481095 $305 52.458876308481095 $302 $396 forward 7 unknown #
edge $-1 $397 -52.458876308481095 $306 52.458876308481095 $299 $398 forward 7 unknown #
vertex $-1 $303 $399 #
vertex $-1 $206 $400 #
straight-curve $-1 52.458876308481095 -9.689471200444391 -6.6802699624284472 0 1 0 I I #
edge $-1 $314 -16.911551328050699 $310 -2.4673910728380832 $298 $401 forward 7 unknown #
coedge $-1 $208 $299 $390 $402 reversed $122 $-1 #
vertex $-1 $308 $403 #
straight-curve $-1 0 -12.156862273282474 -2.4427461557839369 -1 0 0 I I #
coedge $-1 $302 $210 $391 $404 forward $296 $-1 #
coedge $-1 $210 $302 $212 $316 reversed $296 $-1 #
vertex $-1 $404 $405 #
straight-curve $-1 0 -26.60102252849509 -2.4427461557839369 -1 0 0 I I #
edge $-1 $216 2.4427461557839369 $305 6.6802699624284472 $212 $406 forward 7 unknown #
point $-1 52.458876308481095 -12.156862273282474 -2.4427461557839369 #
point $-1 52.458876308481095 -26.60102252849509 -2.4427461557839369 #
loop $-1 $-1 $225 $218 #
plane-surface $-1 -52.458876308481095 0 0 1 0 0 0 0 -1 forward_v I I I I #
coedge $-1 $407 $408 $222 $323 forward $219 $-1 #
coedge $-1 $222 $221 $328 $409 reversed $81 $-1 #
edge $-1 $325 3.3028366994642009 $410 11.771219178483808 $321 $411 forward 7 unknown #
coedge $-1 $228 $223 $408 $412 forward $130 $-1 #
vertex $-1 $412 $413 #
straight-curve $-1 -48.09733700930768 10.394915010454261 11.313897835203679 0 1 0 I I #
coedge $-1 $414 $225 $228 $332 reversed $319 $-1 #
coedge $-1 $225 $414 $322 $409 forward $319 $-1 #
vertex $-1 $226 $415 #
straight-curve $-1 -52.458876308481095 14.978637513321953 29.045856590831207 0 0 1 I I #
straight-curve $-1 -52.458876308481109 14.978637513321953 4.0550772180005978 -0.51503806187062418 0 -0.85716730853699208 I I #
edge $-1 $416 -26.60102252849509 $229 -14.978637513321953 $327 $417 forward 7 unknown #
point $-1 -52.458876308481095 14.978637513321953 11.313897835203679 #
point $-1 -48.097337009307687 14.978637513321953 11.313897835203679 #
edge $-1 $418 1 $418 0 $232 $-1 forward 7 unknown #
vertex $-1 $233 $419 #
ellipse-curve $-1 -48.89671667878455 17.303114516356583 6.8544647166356674 -0.85716730853699208 0 0.51503806187062418 0.25751903093531209 0 0.42858365426849604 1 I I #
point $-1 -50.020587627959067 17.303114516356583 8.1130711808706266 #
edge $-1 $420 1 $420 0 $236 $-1 forward 7 unknown #
vertex $-1 $237 $421 #
ellipse-curve $-1 -48.89671667878455 20.789830020908521 6.8544647166356674 -0.85716730853699208 0 0.51503806187062418 0.25751903093531209 0 0.42858365426849604 1 I I #
point $-1 -50.020587627959067 20.789830020908521 8.1130711808706266 #
edge $-1 $422 1 $422 0 $240 $-1 forward 7 unknown #
vertex $-1 $241 $423 #
ellipse-curve $-1 -48.89671667878455 24.27654552546046 6.8544647166356674 -0.85716730853699208 0 0.51503806187062418 0.25751903093531209 0 0.42858365426849604 1 I I #
point $-1 -50.020587627959067 24.27654552546046 8.1130711808706266 #
plane-surface $-1 0 0 11.313897835203679 0 0 1 1 0 0 forward_v I I I I #
coedge $-1 $358 $357 $350 $424 forward $245 $-1 #
coedge $-1 $350 $247 $249 $354 reversed $159 $-1 #
coedge $-1 $247 $349 $348 $424 reversed $159 $-1 #
coedge $-1 $255 $250 $247 $352 forward $256 $-1 #
edge $-1 $355 23.705066594524745 $425 37.835006067516275 $351 $426 forward 7 unknown #
coedge $-1 $249 $248 $358 $427 reversed $100 $-1 #
edge $-1 $428 -104.91775261696216 $355 -87.452186792602845 $349 $429 forward 7 unknown #
vertex $-1 $251 $430 #
straight-curve $-1 38.328936835489557 5.3777988884992549 11.313897835203683 0 -1 0 I I #
coedge $-1 $348 $252 $255 $362 reversed $245 $-1 #
coedge $-1 $252 $348 $353 $427 forward $245 $-1 #
vertex $-1 $253 $431 #
straight-curve $-1 52.458876308481095 15.734114686012564 73.798624237831646 0 0 1 I I #
straight-curve $-1 -32.421367997852705 15.734114686012564 62.717004169329485 0.80901698891910034 0 -0.5877852598018023 I I #
edge $-1 $425 5.7770808679844556 $257 15.734114686012564 $357 $432 forward 7 unknown #
point $-1 52.458876308481095 15.734114686012564 11.313897835203679 #
point $-1 38.328936835489564 15.734114686012564 11.313897835203676 #
edge $-1 $433 1 $433 0 $260 $-1 forward 7 unknown #
vertex $-1 $261 $434 #
ellipse-curve $-1 43.138717660061054 8.6219476731353417 3.0768955773441302 0.5877852598018023 0 0.80901698891910034 0.80901698891910034 0 -0.5877852598018023 1 I I #
point $-1 46.202923560904431 8.6219476731353417 5.5931115025736196 #
edge $-1 $435 1 $435 0 $264 $-1 forward 7 unknown #
vertex $-1 $265 $436 #
ellipse-curve $-1 43.138717660061054 12.889247880861678 3.0768955773441302 0.5877852598018023 0 0.80901698891910034 0.80901698891910034 0 -0.5877852598018023 1 I I #
point $-1 46.202923560904431 12.889247880861678 5.5931115025736196 #
plane-surface $-1 52.458876308481095 0 0 -1 0 0 0 0 1 forward_v I I I I #
coedge $-1 $273 $271 $275 $378 reversed $181 $-1 #
edge $-1 $286 -11.313897835203679 $380 11.313897835203679 $285 $437 forward 7 unknown #
vertex $-1 $378 $438 #
straight-curve $-1 -52.458876308481095 -26.60102252849509 0 0 0 -1 I I #
edge $-1 $376 -26.60102252849509 $380 26.60102252849509 $374 $439 forward 7 unknown #
straight-curve $-1 0 -26.60102252849509 -11.313897835203679 -1 0 0 I I #
vertex $-1 $278 $440 #
straight-curve $-1 0 26.60102252849509 -11.313897835203679 1 0 0 I I #
point $-1 52.458876308481095 26.60102252849509 -11.313897835203679 #
point $-1 52.458876308481095 -26.60102252849509 -11.313897835203679 #
straight-curve $-1 -52.458876308481095 0 11.313897835203679 0 -1 0 I I #
point $-1 -52.458876308481095 26.60102252849509 11.313897835203679 #
point $-1 -52.458876308481095 -26.60102252849509 11.313897835203679 #
straight-curve $-1 52.458876308481095 -26.60102252849509 0 0 0 -1 I I #
straight-curve $-1 52.458876308481095 26.60102252849509 0 0 0 -1 I I #
plane-surface $-1 52.458876308481095 0 0 -1 0 0 0 0 1 forward_v I I I I #
coedge $-1 $393 $298 $309 $402 forward $200 $-1 #
coedge $-1 $298 $393 $312 $404 reversed $200 $-1 #
straight-curve $-1 52.458876308481095 -12.156862273282474 -2.2807540295530959 0 0 1 I I #
coedge $-1 $391 $390 $301 $394 forward $200 $-1 #
edge $-1 $397 2.4673910728380832 $395 16.911551328050699 $393 $441 forward 7 unknown #
vertex $-1 $303 $442 #
straight-curve $-1 0 -26.60102252849509 -6.6802699624284472 1 0 0 I I #
vertex $-1 $394 $443 #
straight-curve $-1 0 -12.156862273282474 -6.6802699624284472 1 0 0 I I #
point $-1 52.458876308481095 -26.60102252849509 -6.6802699624284472 #
point $-1 52.458876308481095 -12.156862273282474 -6.6802699624284472 #
straight-curve $-1 -52.458876308481095 -9.689471200444391 -2.4427461557839369 0 1 0 I I #
edge $-1 $310 0.16199212623084103 $397 4.3995159328753513 $390 $444 forward 7 unknown #
point $-1 -52.458876308481095 -12.156862273282474 -2.4427461557839369 #
edge $-1 $314 2.4427461557839369 $395 6.6802699624284472 $391 $445 forward 7 unknown #
point $-1 -52.458876308481095 -26.60102252849509 -2.4427461557839369 #
straight-curve $-1 52.458876308481095 -26.60102252849509 0 0 0 -1 I I #
coedge $-1 $408 $321 $414 $446 reversed $219 $-1 #
coedge $-1 $321 $407 $324 $412 reversed $219 $-1 #
edge $-1 $410 -16.206107518040831 $329 -4.5837225028676922 $328 $447 forward 7 unknown #
vertex $-1 $323 $448 #
straight-curve $-1 -46.396250396940474 26.60102252849509 14.144981479420609 -0.51503806187062429 0 -0.85716730853699219 I I #
edge $-1 $325 48.097337009307687 $416 52.458876308481095 $408 $449 forward 7 unknown #
point $-1 -48.097337009307687 26.60102252849509 11.313897835203679 #
coedge $-1 $328 $327 $407 $446 forward $319 $-1 #
point $-1 -52.458876308481095 14.978637513321953 4.0550772180006218 #
vertex $-1 $412 $450 #
straight-curve $-1 -52.458876308481095 0 11.313897835203679 0 -1 0 I I #
vertex $-1 $335 $451 #
point $-1 -48.639197647849237 17.303114516356583 7.2830483709041633 #
vertex $-1 $339 $452 #
point $-1 -48.639197647849237 20.789830020908521 7.2830483709041633 #
vertex $-1 $343 $453 #
point $-1 -48.639197647849237 24.27654552546046 7.2830483709041633 #
edge $-1 $425 62.48472640262797 $428 72.750728548284485 $348 $454 forward 7 unknown #
vertex $-1 $362 $455 #
straight-curve $-1 14.62387024096482 5.7770808679844556 11.313897835203676 1 0 0 I I #
edge $-1 $428 0.39928197948520072 $359 10.356315797513309 $358 $456 forward 7 unknown #
vertex $-1 $427 $457 #
straight-curve $-1 -32.421367997852705 5.7770808679844556 62.717004169329485 -0.80901698891910034 0 0.5877852598018023 I I #
point $-1 38.328936835489564 5.7770808679844556 11.313897835203676 #
point $-1 52.458876308481088 15.734114686012564 1.0478956895471612 #
straight-curve $-1 52.458876308481095 0 11.313897835203679 0 1 0 I I #
vertex $-1 $365 $458 #
point $-1 43.947734648980152 8.6219476731353417 2.4891103175423277 #
vertex $-1 $369 $459 #
point $-1 43.947734648980152 12.889247880861678 2.4891103175423277 #
straight-curve $-1 -52.458876308481095 26.60102252849509 0 0 0 -1 I I #
point $-1 -52.458876308481095 -26.60102252849509 -11.313897835203679 #
straight-curve $-1 -52.458876308481095 0 -11.313897835203679 0 1 0 I I #
point $-1 -52.458876308481095 26.60102252849509 -11.313897835203679 #
straight-curve $-1 -52.458876308481095 -9.689471200444391 -6.6802699624284472 0 -1 0 I I #
point $-1 -52.458876308481095 -26.60102252849509 -6.6802699624284472 #
point $-1 -52.458876308481095 -12.156862273282474 -6.6802699624284472 #
straight-curve $-1 -52.458876308481095 -12.156862273282474 -2.2807540295530959 0 0 -1 I I #
straight-curve $-1 -52.458876308481095 -26.60102252849509 0 0 0 -1 I I #
edge $-1 $416 -11.313897835203679 $410 -4.0550772180006218 $407 $460 forward 7 unknown #
straight-curve $-1 -52.458876308481095 10.394915010454261 4.0550772180006227 0 -1 0 I I #
point $-1 -52.458876308481095 26.60102252849509 4.0550772180006218 #
straight-curve $-1 0 26.60102252849509 11.313897835203679 -1 0 0 I I #
point $-1 -52.458876308481095 26.60102252849509 11.313897835203679 #
point $-1 -48.468133024516057 17.303114516356583 6.5969456857003559 #
point $-1 -48.468133024516057 20.789830020908521 6.5969456857003559 #
point $-1 -48.468133024516057 24.27654552546046 6.5969456857003559 #
straight-curve $-1 52.458876308481095 5.7770808679844556 73.798624237831646 0 0 -1 I I #
point $-1 52.458876308481095 5.7770808679844556 11.313897835203679 #
straight-curve $-1 52.458876308481095 5.3777988884992549 1.0478956895471576 0 1 0 I I #
point $-1 52.458876308481088 5.7770808679844556 1.0478956895471612 #
point $-1 42.550932400259249 8.6219476731353417 2.2678785884250292 #
point $-1 42.550932400259249 12.889247880861678 2.2678785884250292 #
straight-curve $-1 -52.458876308481095 26.60102252849509 0 0 0 -1 I I #
End-of-ACIS-data 