500 0 5 0           
7 Unknown 11 ACIS 5.0 NT 24 Thu Mar 25 16:39:50 1999 
-1 9.9999999999999995e-007 1e-010 
body $-1 $5 $-1 $6 #
body $-1 $7 $-1 $8 #
body $-1 $9 $-1 $10 #
body $-1 $11 $-1 $12 #
body $-1 $13 $-1 $14 #
lump $-1 $-1 $15 $0 #
transform $-1 1 0 0 0 1 0 0 0 1 64.320810571611688 35.632319640431213 11.720485277400055 1 rotate no_reflect no_shear #
lump $-1 $-1 $16 $1 #
transform $-1 1 0 0 0 1 0 0 0 1 64.320810571611688 35.632319640431213 11.720485277400055 1 rotate no_reflect no_shear #
lump $-1 $-1 $17 $2 #
transform $-1 1 0 0 0 1 0 0 0 1 64.320810571611688 35.632319640431213 11.720485277400055 1 rotate no_reflect no_shear #
lump $-1 $-1 $18 $3 #
transform $-1 1 0 0 0 1 0 0 0 1 64.320810571611688 35.632319640431213 11.720485277400055 1 rotate no_reflect no_shear #
lump $-1 $-1 $19 $4 #
transform $-1 1 0 0 0 1 0 0 0 1 64.320810571611688 35.632319640431213 11.720485277400055 1 rotate no_reflect no_shear #
shell $-1 $-1 $-1 $20 $-1 $5 #
shell $-1 $-1 $-1 $21 $-1 $7 #
shell $-1 $-1 $-1 $22 $-1 $9 #
shell $-1 $-1 $-1 $23 $-1 $11 #
shell $-1 $-1 $-1 $24 $-1 $13 #
face $-1 $25 $26 $15 $-1 $27 forward single #
face $-1 $28 $29 $16 $-1 $30 forward single #
face $-1 $31 $32 $17 $-1 $33 forward single #
face $-1 $34 $35 $18 $-1 $36 forward single #
face $-1 $37 $38 $19 $-1 $39 reversed single #
face $-1 $40 $41 $15 $-1 $42 reversed single #
loop $-1 $-1 $43 $20 #
plane-surface $-1 0 0 11.720485277400055 0 0 1 1 0 0 forward_v I I I I #
face $-1 $44 $45 $16 $-1 $46 reversed single #
loop $-1 $-1 $47 $21 #
plane-surface $-1 -69.563834649708966 0 -8.720485277400055 0 0 1 1 0 0 forward_v I I I I #
face $-1 $48 $49 $17 $-1 $50 reversed single #
loop $-1 $-1 $51 $22 #
plane-surface $-1 69.563834649708966 0 -8.720485277400055 0 0 1 1 0 0 forward_v I I I I #
face $-1 $52 $53 $18 $-1 $54 forward single #
loop $-1 $-1 $55 $23 #
plane-surface $-1 -17.497713134297953 97.817275205506604 135.84095605255729 1 0 0 0 -0.80901700255871778 -0.5877852410284794 forward_v I I I I #
face $-1 $56 $57 $19 $-1 $58 reversed single #
loop $-1 $59 $60 $24 #
cone-surface $-1 -7.8750799975794052 31.453844100234711 6.5252178515604333 0 -0.80901700255871778 -0.5877852410284794 2 0 0 1 I I 0 1 2 forward I I I I #
face $-1 $61 $62 $15 $-1 $63 reversed single #
loop $-1 $-1 $64 $25 #
plane-surface $-1 0 0 -11.720485277400055 0 0 1 1 0 0 forward_v I I I I #
coedge $-1 $65 $66 $67 $68 forward $26 $-1 #
face $-1 $69 $70 $16 $-1 $71 forward single #
loop $-1 $-1 $72 $28 #
plane-surface $-1 -74.806858727806244 0 -10.220485277400055 1 0 0 0 0 -1 forward_v I I I I #
coedge $-1 $73 $74 $75 $76 reversed $29 $-1 #
face $-1 $77 $78 $17 $-1 $79 forward single #
loop $-1 $-1 $80 $31 #
plane-surface $-1 74.806858727806244 0 -10.220485277400055 -1 0 0 0 0 1 forward_v I I I I #
coedge $-1 $81 $82 $83 $84 forward $32 $-1 #
face $-1 $85 $86 $18 $-1 $87 forward single #
loop $-1 $-1 $88 $34 #
plane-surface $-1 -7.8750799975794052 -6.2559835360781477 60.227309762593407 0 0.80901700255871778 0.5877852410284794 1 0 0 forward_v I I I I #
coedge $-1 $89 $90 $91 $92 reversed $35 $-1 #
face $-1 $93 $94 $19 $-1 $95 forward single #
loop $-1 $96 $97 $37 #
cone-surface $-1 -7.8750799975794052 29.789368218173614 5.31590537181145 0 -0.80901700255871778 -0.5877852410284794 1 0 0 1 I I -0.70710678118654746 0.70710678118654746 1 forward I I I I #
loop $-1 $-1 $98 $24 #
coedge $-1 $60 $60 $99 $100 reversed $38 $-1 #
face $-1 $101 $102 $15 $-1 $103 reversed single #
loop $-1 $-1 $104 $40 #
plane-surface $-1 0 -35.632319640431213 0 0 1 0 0 0 1 forward_v I I I I #
coedge $-1 $105 $106 $107 $108 forward $41 $-1 #
coedge $-1 $109 $43 $110 $111 forward $26 $-1 #
coedge $-1 $43 $109 $112 $113 forward $26 $-1 #
coedge $-1 $114 $115 $43 $68 reversed $116 $-1 #
edge $-1 $117 -35.632319640431213 $118 35.632319640431213 $67 $119 forward 7 unknown #
face $-1 $120 $121 $16 $-1 $122 reversed single #
loop $-1 $-1 $123 $44 #
plane-surface $-1 0 0 11.720485277400055 0 0 1 1 0 0 forward_v I I I I #
coedge $-1 $124 $125 $126 $127 forward $45 $-1 #
coedge $-1 $128 $47 $129 $130 forward $29 $-1 #
coedge $-1 $47 $128 $131 $132 forward $29 $-1 #
coedge $-1 $133 $134 $47 $76 forward $135 $-1 #
edge $-1 $136 -35.632319640431213 $137 35.632319640431213 $75 $138 forward 7 unknown #
face $-1 $139 $140 $17 $-1 $141 reversed single #
loop $-1 $-1 $142 $48 #
plane-surface $-1 -69.563834649708966 0 -8.720485277400055 0 0 1 1 0 0 forward_v I I I I #
coedge $-1 $143 $83 $144 $145 forward $49 $-1 #
coedge $-1 $146 $51 $147 $148 forward $32 $-1 #
coedge $-1 $51 $146 $149 $150 forward $32 $-1 #
coedge $-1 $80 $151 $51 $84 reversed $49 $-1 #
edge $-1 $152 -35.632319640431213 $153 35.632319640431213 $83 $154 forward 7 unknown #
face $-1 $155 $156 $18 $-1 $157 forward single #
loop $-1 $-1 $158 $52 #
plane-surface $-1 1.7475531391391428 97.817275205506604 135.84095605255729 -1 0 0 0 0.80901700255871778 0.5877852410284794 forward_v I I I I #
coedge $-1 $159 $160 $161 $162 reversed $53 $-1 #
coedge $-1 $90 $55 $160 $163 forward $35 $-1 #
coedge $-1 $55 $89 $164 $165 reversed $35 $-1 #
coedge $-1 $166 $161 $55 $92 forward $156 $-1 #
edge $-1 $167 -19.922351283710363 $168 -13.276317962322089 $91 $169 forward 7 unknown #
face $-1 $170 $171 $19 $-1 $172 forward single #
loop $-1 $-1 $173 $56 #
plane-surface $-1 -17.497713134297953 97.817275205506604 135.84095605255729 1 0 0 0 -0.80901700255871778 -0.5877852410284794 forward_v I I I I #
loop $-1 $-1 $174 $37 #
coedge $-1 $97 $97 $98 $175 forward $57 $-1 #
coedge $-1 $98 $98 $97 $175 reversed $59 $-1 #
coedge $-1 $99 $99 $60 $100 forward $171 $-1 #
edge $-1 $176 6.7421662530474143e-017 $176 6.2831853071796004 $99 $177 forward 7 unknown #
face $-1 $178 $179 $15 $-1 $180 reversed single #
loop $-1 $-1 $181 $61 #
plane-surface $-1 -64.320810571611688 0 0 1 0 0 0 0 -1 forward_v I I I I #
coedge $-1 $182 $112 $183 $184 forward $62 $-1 #
coedge $-1 $185 $64 $182 $186 forward $41 $-1 #
coedge $-1 $64 $185 $187 $188 forward $41 $-1 #
coedge $-1 $115 $114 $64 $108 reversed $116 $-1 #
edge $-1 $189 -35.632319640431213 $190 35.632319640431213 $107 $191 forward 7 unknown #
coedge $-1 $66 $65 $192 $193 forward $26 $-1 #
coedge $-1 $194 $195 $65 $111 reversed $179 $-1 #
edge $-1 $118 -64.320810571611688 $196 64.320810571611688 $110 $197 forward 7 unknown #
coedge $-1 $104 $198 $66 $113 reversed $62 $-1 #
edge $-1 $199 -64.320810571611688 $117 64.320810571611688 $112 $200 forward 7 unknown #
coedge $-1 $107 $67 $198 $201 forward $116 $-1 #
coedge $-1 $67 $107 $194 $202 reversed $116 $-1 #
loop $-1 $-1 $114 $178 #
vertex $-1 $68 $203 #
vertex $-1 $68 $204 #
straight-curve $-1 64.320810571611688 0 11.720485277400055 0 1 0 I I #
face $-1 $205 $206 $16 $-1 $207 reversed single #
loop $-1 $-1 $208 $69 #
plane-surface $-1 0 0 -11.720485277400055 0 0 1 1 0 0 forward_v I I I I #
coedge $-1 $209 $210 $211 $212 forward $70 $-1 #
coedge $-1 $213 $72 $214 $215 reversed $45 $-1 #
coedge $-1 $72 $213 $128 $216 reversed $45 $-1 #
coedge $-1 $129 $217 $72 $127 reversed $218 $-1 #
edge $-1 $219 -1.5 $220 1.5 $126 $221 forward 7 unknown #
coedge $-1 $74 $73 $125 $216 forward $29 $-1 #
coedge $-1 $222 $126 $73 $130 reversed $218 $-1 #
edge $-1 $136 -5.2430240780972781 $219 5.2430240780972781 $129 $223 forward 7 unknown #
coedge $-1 $224 $225 $74 $132 reversed $206 $-1 #
edge $-1 $226 -5.2430240780972781 $137 5.2430240780972781 $131 $227 forward 7 unknown #
coedge $-1 $228 $75 $225 $229 reversed $135 $-1 #
coedge $-1 $75 $228 $222 $230 forward $135 $-1 #
loop $-1 $-1 $75 $205 #
vertex $-1 $230 $231 #
vertex $-1 $132 $232 #
straight-curve $-1 -64.320810571611688 0 -8.720485277400055 0 -1 0 I I #
face $-1 $233 $234 $17 $-1 $235 forward single #
loop $-1 $-1 $236 $77 #
plane-surface $-1 -74.806858727806244 0 -10.220485277400055 1 0 0 0 0 -1 forward_v I I I I #
coedge $-1 $237 $238 $239 $240 reversed $78 $-1 #
coedge $-1 $151 $80 $241 $242 reversed $49 $-1 #
coedge $-1 $149 $243 $80 $145 reversed $244 $-1 #
edge $-1 $152 -1.5 $245 1.5 $80 $246 forward 7 unknown #
coedge $-1 $82 $81 $247 $248 reversed $32 $-1 #
coedge $-1 $249 $250 $81 $148 reversed $251 $-1 #
edge $-1 $153 -5.2430240780972781 $252 5.2430240780972781 $147 $253 forward 7 unknown #
coedge $-1 $254 $144 $82 $150 reversed $244 $-1 #
edge $-1 $255 -5.2430240780972781 $152 5.2430240780972781 $149 $256 forward 7 unknown #
coedge $-1 $83 $143 $249 $257 reversed $49 $-1 #
vertex $-1 $84 $258 #
vertex $-1 $84 $259 #
straight-curve $-1 74.806858727806244 0 -8.720485277400055 0 1 0 I I #
face $-1 $260 $261 $18 $-1 $262 forward single #
loop $-1 $-1 $263 $85 #
plane-surface $-1 0 0 11.720485277400055 0 0 1 1 0 0 forward_v I I I I #
coedge $-1 $264 $265 $263 $266 reversed $86 $-1 #
coedge $-1 $267 $88 $265 $268 reversed $53 $-1 #
coedge $-1 $88 $267 $89 $163 reversed $53 $-1 #
coedge $-1 $91 $263 $88 $162 forward $156 $-1 #
edge $-1 $269 -5.6850931379288454 $167 13.560173135508251 $161 $270 forward 7 unknown #
edge $-1 $167 59.957731829836 $271 71.264639280862426 $89 $272 forward 7 unknown #
coedge $-1 $273 $274 $90 $165 forward $275 $-1 #
edge $-1 $168 56.199992748878586 $271 65.347473123116814 $164 $276 forward 7 unknown #
coedge $-1 $277 $91 $274 $278 forward $156 $-1 #
vertex $-1 $162 $279 #
vertex $-1 $278 $280 #
straight-curve $-1 -17.497713134297953 48.908637602753302 11.720485277400059 0 1 0 I I #
face $-1 $281 $282 $19 $-1 $283 forward single #
loop $-1 $284 $99 $93 #
plane-surface $-1 -7.8750799975794052 -6.2559835360781477 60.227309762593407 0 0.80901700255871778 0.5877852410284794 1 0 0 forward_v I I I I #
coedge $-1 $285 $286 $287 $288 reversed $94 $-1 #
coedge $-1 $174 $174 $-1 $289 forward $96 $-1 #
edge $-1 $290 0 $290 6.2831853071796004 $97 $291 forward 7 unknown #
vertex $-1 $100 $292 #
ellipse-curve $-1 -7.8750799975794052 32.309302979737083 7.1467450902809322 0 -0.80901700255871778 -0.5877852410284794 2 0 0 1 I I #
face $-1 $-1 $116 $15 $-1 $293 reversed single #
loop $-1 $-1 $194 $101 #
plane-surface $-1 0 35.632319640431213 0 0 -1 0 0 0 -1 forward_v I I I I #
coedge $-1 $294 $192 $195 $295 forward $102 $-1 #
coedge $-1 $198 $104 $105 $186 reversed $62 $-1 #
coedge $-1 $192 $294 $104 $184 reversed $102 $-1 #
edge $-1 $199 -11.720485277400055 $296 11.720485277400055 $183 $297 forward 7 unknown #
coedge $-1 $106 $105 $294 $298 forward $41 $-1 #
edge $-1 $190 -64.320810571611688 $296 64.320810571611688 $182 $299 forward 7 unknown #
coedge $-1 $195 $194 $106 $188 reversed $179 $-1 #
edge $-1 $300 -64.320810571611688 $189 64.320810571611688 $187 $301 forward 7 unknown #
vertex $-1 $108 $302 #
vertex $-1 $201 $303 #
straight-curve $-1 64.320810571611688 0 -11.720485277400055 0 -1 0 I I #
coedge $-1 $181 $183 $109 $193 reversed $102 $-1 #
edge $-1 $196 -35.632319640431213 $199 35.632319640431213 $192 $304 forward 7 unknown #
coedge $-1 $187 $110 $115 $202 forward $179 $-1 #
coedge $-1 $110 $187 $181 $295 reversed $179 $-1 #
vertex $-1 $111 $305 #
straight-curve $-1 0 35.632319640431213 11.720485277400055 -1 0 0 I I #
coedge $-1 $112 $182 $114 $201 reversed $62 $-1 #
vertex $-1 $193 $306 #
straight-curve $-1 0 -35.632319640431213 11.720485277400055 1 0 0 I I #
edge $-1 $117 -11.720485277400055 $190 11.720485277400055 $114 $307 forward 7 unknown #
edge $-1 $118 -11.720485277400055 $189 11.720485277400055 $115 $308 forward 7 unknown #
point $-1 64.320810571611688 -35.632319640431213 11.720485277400055 #
point $-1 64.320810571611688 35.632319640431213 11.720485277400055 #
face $-1 $309 $135 $16 $-1 $310 reversed single #
loop $-1 $-1 $225 $120 #
plane-surface $-1 0 -35.632319640431213 0 0 1 0 0 0 1 forward_v I I I I #
coedge $-1 $311 $312 $313 $314 forward $121 $-1 #
coedge $-1 $315 $123 $316 $317 forward $70 $-1 #
coedge $-1 $123 $315 $318 $319 forward $70 $-1 #
coedge $-1 $320 $321 $123 $212 reversed $322 $-1 #
edge $-1 $323 -35.632319640431213 $324 35.632319640431213 $211 $325 forward 7 unknown #
coedge $-1 $125 $124 $224 $326 reversed $45 $-1 #
coedge $-1 $312 $311 $124 $215 forward $121 $-1 #
edge $-1 $327 -35.632319640431213 $220 35.632319640431213 $124 $328 forward 7 unknown #
edge $-1 $219 -35.632319640431213 $226 35.632319640431213 $125 $329 forward 7 unknown #
coedge $-1 $126 $330 $312 $331 reversed $218 $-1 #
loop $-1 $-1 $330 $309 #
vertex $-1 $130 $332 #
vertex $-1 $331 $333 #
straight-curve $-1 -74.806858727806244 35.632319640431213 -10.220485277400055 0 0 -1 I I #
coedge $-1 $316 $129 $134 $230 reversed $218 $-1 #
straight-curve $-1 -69.563834649708966 35.632319640431213 -8.720485277400055 -1 0 0 I I #
coedge $-1 $334 $131 $213 $326 forward $206 $-1 #
coedge $-1 $131 $318 $133 $229 forward $206 $-1 #
vertex $-1 $216 $335 #
straight-curve $-1 -69.563834649708966 -35.632319640431213 -8.720485277400055 1 0 0 I I #
coedge $-1 $134 $133 $315 $336 reversed $135 $-1 #
edge $-1 $337 -11.720485277400055 $137 8.720485277400055 $133 $338 forward 7 unknown #
edge $-1 $339 -11.720485277400055 $136 8.720485277400055 $222 $340 forward 7 unknown #
point $-1 -64.320810571611688 35.632319640431213 -8.720485277400055 #
point $-1 -64.320810571611688 -35.632319640431213 -8.720485277400055 #
face $-1 $341 $342 $17 $-1 $343 reversed single #
loop $-1 $-1 $344 $139 #
plane-surface $-1 0 0 11.720485277400055 0 0 1 1 0 0 forward_v I I I I #
coedge $-1 $345 $346 $347 $348 forward $140 $-1 #
coedge $-1 $349 $142 $350 $351 forward $78 $-1 #
coedge $-1 $142 $349 $352 $353 forward $78 $-1 #
coedge $-1 $354 $355 $142 $240 forward $356 $-1 #
edge $-1 $357 -35.632319640431213 $358 35.632319640431213 $239 $359 forward 7 unknown #
coedge $-1 $360 $361 $143 $242 forward $342 $-1 #
edge $-1 $362 -35.632319640431213 $245 35.632319640431213 $143 $363 forward 7 unknown #
coedge $-1 $144 $364 $360 $365 reversed $244 $-1 #
loop $-1 $-1 $366 $341 #
vertex $-1 $145 $367 #
straight-curve $-1 74.806858727806244 -35.632319640431213 -10.220485277400055 0 0 -1 I I #
coedge $-1 $368 $369 $146 $248 forward $370 $-1 #
edge $-1 $255 -35.632319640431213 $252 35.632319640431213 $247 $371 forward 7 unknown #
coedge $-1 $372 $147 $151 $257 forward $251 $-1 #
coedge $-1 $147 $373 $368 $374 forward $251 $-1 #
loop $-1 $-1 $250 $375 #
vertex $-1 $148 $376 #
straight-curve $-1 69.563834649708966 35.632319640431213 -8.720485277400055 -1 0 0 I I #
coedge $-1 $377 $149 $369 $378 reversed $244 $-1 #
vertex $-1 $378 $379 #
straight-curve $-1 69.563834649708966 -35.632319640431213 -8.720485277400055 1 0 0 I I #
edge $-1 $153 -1.5 $362 1.5 $151 $380 forward 7 unknown #
point $-1 74.806858727806244 -35.632319640431213 -8.720485277400055 #
point $-1 74.806858727806244 35.632319640431213 -8.720485277400055 #
face $-1 $381 $382 $18 $-1 $383 reversed single #
loop $-1 $-1 $384 $155 #
plane-surface $-1 69.563834649708966 0 -8.720485277400055 0 0 1 1 0 0 forward_v I I I I #
coedge $-1 $161 $385 $158 $266 forward $156 $-1 #
coedge $-1 $265 $158 $386 $387 reversed $86 $-1 #
coedge $-1 $158 $264 $159 $268 forward $86 $-1 #
edge $-1 $388 13.276317962322089 $269 19.922351283710363 $263 $389 forward 7 unknown #
coedge $-1 $160 $159 $273 $390 reversed $53 $-1 #
edge $-1 $391 -71.264639280862426 $269 -59.957731829836 $265 $392 forward 7 unknown #
vertex $-1 $162 $393 #
straight-curve $-1 -3.9375399987897026 28.986286319042939 11.720485277400055 -1 0 0 I I #
vertex $-1 $390 $394 #
straight-curve $-1 -17.497713134297953 -6.2559835360781477 60.227309762593407 0 0.5877852410284794 -0.80901700255871778 I I #
coedge $-1 $386 $164 $267 $390 forward $275 $-1 #
coedge $-1 $164 $395 $166 $278 reversed $275 $-1 #
loop $-1 $-1 $386 $396 #
straight-curve $-1 -17.497713134297953 35.632319640431213 67.920478026278644 0 0 -1 I I #
coedge $-1 $397 $166 $398 $399 forward $156 $-1 #
edge $-1 $168 17.497713134297953 $400 64.320810571611688 $274 $401 forward 7 unknown #
point $-1 -17.497713134297953 28.986286319042939 11.720485277400059 #
point $-1 -17.497713134297953 35.632319640431213 11.720485277400055 #
face $-1 $402 $403 $19 $-1 $404 forward single #
loop $-1 $-1 $405 $170 #
plane-surface $-1 1.7475531391391428 97.817275205506604 135.84095605255729 -1 0 0 0 0.80901700255871778 0.5877852410284794 forward_v I I I I #
loop $-1 $-1 $406 $93 #
coedge $-1 $286 $173 $407 $408 forward $94 $-1 #
coedge $-1 $173 $285 $409 $410 reversed $94 $-1 #
coedge $-1 $411 $412 $173 $288 forward $403 $-1 #
edge $-1 $413 -19.922351283710363 $414 -13.276317962322089 $287 $415 forward 7 unknown #
edge $-1 $416 1 $416 0 $174 $-1 forward 7 unknown #
vertex $-1 $175 $417 #
ellipse-curve $-1 -7.8750799975794052 30.598385220732332 5.9036906128399291 0 0.80901700255871778 0.5877852410284794 2 0 0 1 I I #
point $-1 -5.8750799975794052 32.30930297973709 7.1467450902809375 #
plane-surface $-1 64.320810571611688 0 0 -1 0 0 0 0 1 forward_v I I I I #
coedge $-1 $183 $181 $185 $298 reversed $102 $-1 #
edge $-1 $196 -11.720485277400055 $300 11.720485277400055 $195 $418 forward 7 unknown #
vertex $-1 $298 $419 #
straight-curve $-1 -64.320810571611688 -35.632319640431213 0 0 0 -1 I I #
edge $-1 $296 -35.632319640431213 $300 35.632319640431213 $294 $420 forward 7 unknown #
straight-curve $-1 0 -35.632319640431213 -11.720485277400055 -1 0 0 I I #
vertex $-1 $188 $421 #
straight-curve $-1 0 35.632319640431213 -11.720485277400055 1 0 0 I I #
point $-1 64.320810571611688 35.632319640431213 -11.720485277400055 #
point $-1 64.320810571611688 -35.632319640431213 -11.720485277400055 #
straight-curve $-1 -64.320810571611688 0 11.720485277400055 0 -1 0 I I #
point $-1 -64.320810571611688 35.632319640431213 11.720485277400055 #
point $-1 -64.320810571611688 -35.632319640431213 11.720485277400055 #
straight-curve $-1 64.320810571611688 -35.632319640431213 0 0 0 -1 I I #
straight-curve $-1 64.320810571611688 35.632319640431213 0 0 0 -1 I I #
face $-1 $422 $218 $16 $-1 $423 reversed single #
plane-surface $-1 -64.320810571611688 0 0 1 0 0 0 0 -1 forward_v I I I I #
coedge $-1 $214 $208 $334 $424 forward $121 $-1 #
coedge $-1 $208 $214 $217 $331 forward $121 $-1 #
coedge $-1 $321 $320 $208 $314 reversed $322 $-1 #
edge $-1 $425 -35.632319640431213 $426 35.632319640431213 $313 $427 forward 7 unknown #
coedge $-1 $210 $209 $228 $336 forward $70 $-1 #
coedge $-1 $330 $222 $209 $317 reversed $218 $-1 #
edge $-1 $324 -64.320810571611688 $339 64.320810571611688 $316 $428 forward 7 unknown #
coedge $-1 $225 $429 $210 $319 reversed $206 $-1 #
edge $-1 $337 -64.320810571611688 $323 64.320810571611688 $318 $430 forward 7 unknown #
coedge $-1 $313 $211 $429 $431 forward $322 $-1 #
coedge $-1 $211 $313 $330 $432 reversed $322 $-1 #
loop $-1 $-1 $320 $422 #
vertex $-1 $212 $433 #
vertex $-1 $212 $434 #
straight-curve $-1 64.320810571611688 0 11.720485277400055 0 1 0 I I #
edge $-1 $226 -1.5 $327 1.5 $213 $435 forward 7 unknown #
vertex $-1 $215 $436 #
straight-curve $-1 -74.806858727806244 0 -11.720485277400055 0 1 0 I I #
straight-curve $-1 -74.806858727806244 0 -8.720485277400055 0 -1 0 I I #
coedge $-1 $217 $316 $321 $432 forward $218 $-1 #
edge $-1 $220 -74.806858727806244 $425 64.320810571611688 $217 $437 forward 7 unknown #
point $-1 -74.806858727806244 35.632319640431213 -8.720485277400055 #
point $-1 -74.806858727806244 35.632319640431213 -11.720485277400055 #
coedge $-1 $429 $224 $311 $424 reversed $206 $-1 #
point $-1 -74.806858727806244 -35.632319640431213 -8.720485277400055 #
edge $-1 $339 -35.632319640431213 $337 35.632319640431213 $228 $438 forward 7 unknown #
vertex $-1 $336 $439 #
straight-curve $-1 -64.320810571611688 -35.632319640431213 0 0 0 -1 I I #
vertex $-1 $317 $440 #
straight-curve $-1 -64.320810571611688 35.632319640431213 0 0 0 -1 I I #
face $-1 $441 $244 $17 $-1 $442 reversed single #
loop $-1 $-1 $360 $233 #
plane-surface $-1 0 0 -11.720485277400055 0 0 1 1 0 0 forward_v I I I I #
coedge $-1 $443 $444 $445 $446 forward $234 $-1 #
coedge $-1 $447 $236 $448 $449 reversed $140 $-1 #
coedge $-1 $236 $447 $349 $450 reversed $140 $-1 #
coedge $-1 $350 $372 $236 $348 reversed $251 $-1 #
edge $-1 $451 -1.5 $452 1.5 $347 $453 forward 7 unknown #
coedge $-1 $238 $237 $346 $450 forward $78 $-1 #
coedge $-1 $454 $347 $237 $351 reversed $251 $-1 #
edge $-1 $357 -5.2430240780972781 $451 5.2430240780972781 $350 $455 forward 7 unknown #
coedge $-1 $364 $366 $238 $353 reversed $244 $-1 #
edge $-1 $456 -5.2430240780972781 $358 5.2430240780972781 $352 $457 forward 7 unknown #
coedge $-1 $458 $239 $366 $459 reversed $356 $-1 #
coedge $-1 $239 $458 $454 $460 forward $356 $-1 #
loop $-1 $-1 $239 $441 #
vertex $-1 $460 $461 #
vertex $-1 $353 $462 #
straight-curve $-1 -64.320810571611688 0 -8.720485277400055 0 -1 0 I I #
coedge $-1 $448 $241 $243 $365 forward $342 $-1 #
coedge $-1 $241 $448 $372 $463 forward $342 $-1 #
vertex $-1 $242 $464 #
straight-curve $-1 74.806858727806244 0 -11.720485277400055 0 -1 0 I I #
coedge $-1 $243 $352 $447 $465 forward $244 $-1 #
edge $-1 $245 -5.2430240780972781 $466 144.37069337751521 $243 $467 forward 7 unknown #
coedge $-1 $352 $377 $354 $459 forward $244 $-1 #
point $-1 74.806858727806244 -35.632319640431213 -11.720485277400055 #
coedge $-1 $445 $247 $250 $374 reversed $370 $-1 #
coedge $-1 $247 $445 $254 $378 forward $370 $-1 #
loop $-1 $-1 $247 $468 #
straight-curve $-1 64.320810571611688 0 -8.720485277400055 0 1 0 I I #
coedge $-1 $347 $249 $361 $463 reversed $251 $-1 #
coedge $-1 $250 $454 $443 $469 reversed $251 $-1 #
edge $-1 $470 -11.720485277400055 $252 8.720485277400055 $368 $471 forward 7 unknown #
face $-1 $468 $251 $17 $-1 $472 reversed single #
point $-1 64.320810571611688 35.632319640431213 -8.720485277400055 #
coedge $-1 $366 $254 $444 $473 reversed $244 $-1 #
edge $-1 $474 -11.720485277400055 $255 8.720485277400055 $369 $475 forward 7 unknown #
point $-1 64.320810571611688 -35.632319640431213 -8.720485277400055 #
straight-curve $-1 74.806858727806244 35.632319640431213 -10.220485277400055 0 0 -1 I I #
face $-1 $476 $477 $18 $-1 $478 forward single #
loop $-1 $-1 $479 $260 #
plane-surface $-1 74.806858727806244 0 -10.220485277400055 -1 0 0 0 0 1 forward_v I I I I #
coedge $-1 $480 $481 $482 $483 forward $261 $-1 #
coedge $-1 $263 $484 $485 $486 forward $156 $-1 #
coedge $-1 $485 $273 $264 $387 forward $275 $-1 #
edge $-1 $391 -65.347473123116814 $388 -56.199992748878586 $386 $487 forward 7 unknown #
vertex $-1 $387 $488 #
straight-curve $-1 1.7475531391391428 48.908637602753302 11.720485277400059 0 -1 0 I I #
edge $-1 $271 -13.560173135508251 $391 5.6850931379288454 $273 $489 forward 7 unknown #
vertex $-1 $390 $490 #
straight-curve $-1 1.7475531391391428 -6.2559835360781477 60.227309762593407 0 -0.5877852410284794 0.80901700255871778 I I #
point $-1 1.7475531391391428 28.986286319042939 11.720485277400059 #
point $-1 -17.497713134297953 35.632319640431213 2.5730049031618307 #
coedge $-1 $274 $491 $492 $493 reversed $275 $-1 #
face $-1 $494 $275 $18 $-1 $495 reversed single #
coedge $-1 $484 $277 $496 $497 forward $156 $-1 #
coedge $-1 $492 $498 $277 $399 reversed $499 $-1 #
edge $-1 $400 -35.632319640431213 $500 35.632319640431213 $398 $501 forward 7 unknown #
vertex $-1 $278 $502 #
straight-curve $-1 0 35.632319640431213 11.720485277400055 -1 0 0 I I #
face $-1 $503 $504 $19 $-1 $505 forward single #
loop $-1 $-1 $506 $281 #
plane-surface $-1 0 0 11.720485277400055 0 0 1 1 0 0 forward_v I I I I #
coedge $-1 $507 $508 $506 $509 reversed $282 $-1 #
coedge $-1 $510 $407 $412 $511 reversed $284 $-1 #
coedge $-1 $406 $512 $285 $408 reversed $284 $-1 #
edge $-1 $413 59.957731829836 $513 71.264639280862426 $285 $514 forward 7 unknown #
coedge $-1 $515 $516 $286 $410 forward $517 $-1 #
edge $-1 $414 56.199992748878586 $513 65.347473123116814 $409 $518 forward 7 unknown #
coedge $-1 $519 $287 $516 $520 forward $403 $-1 #
coedge $-1 $287 $506 $406 $511 forward $403 $-1 #
vertex $-1 $511 $521 #
vertex $-1 $520 $522 #
straight-curve $-1 -17.497713134297953 48.908637602753302 11.720485277400059 0 1 0 I I #
vertex $-1 $289 $523 #
point $-1 -5.8750799975794052 30.598385220732332 5.9036906128399291 #
straight-curve $-1 -64.320810571611688 35.632319640431213 0 0 0 -1 I I #
point $-1 -64.320810571611688 -35.632319640431213 -11.720485277400055 #
straight-curve $-1 -64.320810571611688 0 -11.720485277400055 0 1 0 I I #
point $-1 -64.320810571611688 35.632319640431213 -11.720485277400055 #
face $-1 $-1 $322 $16 $-1 $524 reversed single #
plane-surface $-1 0 35.632319640431213 0 0 -1 0 0 0 -1 forward_v I I I I #
edge $-1 $426 -133.88464522132065 $327 5.2430240780972781 $334 $525 forward 7 unknown #
vertex $-1 $314 $526 #
vertex $-1 $431 $527 #
straight-curve $-1 64.320810571611688 0 -11.720485277400055 0 -1 0 I I #
straight-curve $-1 0 35.632319640431213 11.720485277400055 -1 0 0 I I #
coedge $-1 $318 $334 $320 $431 reversed $206 $-1 #
straight-curve $-1 0 -35.632319640431213 11.720485277400055 1 0 0 I I #
edge $-1 $323 -11.720485277400055 $426 11.720485277400055 $320 $528 forward 7 unknown #
edge $-1 $324 -11.720485277400055 $425 11.720485277400055 $321 $529 forward 7 unknown #
point $-1 64.320810571611688 -35.632319640431213 11.720485277400055 #
point $-1 64.320810571611688 35.632319640431213 11.720485277400055 #
straight-curve $-1 -74.806858727806244 -35.632319640431213 -10.220485277400055 0 0 -1 I I #
point $-1 -74.806858727806244 -35.632319640431213 -11.720485277400055 #
straight-curve $-1 0 35.632319640431213 -11.720485277400055 1 0 0 I I #
straight-curve $-1 -64.320810571611688 0 11.720485277400055 0 -1 0 I I #
point $-1 -64.320810571611688 -35.632319640431213 11.720485277400055 #
point $-1 -64.320810571611688 35.632319640431213 11.720485277400055 #
face $-1 $375 $356 $17 $-1 $530 reversed single #
plane-surface $-1 0 -35.632319640431213 0 0 1 0 0 0 1 forward_v I I I I #
coedge $-1 $531 $344 $373 $469 forward $234 $-1 #
coedge $-1 $344 $531 $377 $473 forward $234 $-1 #
coedge $-1 $369 $368 $344 $446 reversed $370 $-1 #
edge $-1 $474 -35.632319640431213 $470 35.632319640431213 $445 $532 forward 7 unknown #
coedge $-1 $346 $345 $364 $465 reversed $140 $-1 #
coedge $-1 $361 $360 $345 $449 forward $342 $-1 #
edge $-1 $466 -35.632319640431213 $452 35.632319640431213 $345 $533 forward 7 unknown #
edge $-1 $451 -35.632319640431213 $456 35.632319640431213 $346 $534 forward 7 unknown #
vertex $-1 $351 $535 #
vertex $-1 $463 $536 #
straight-curve $-1 -74.806858727806244 35.632319640431213 -10.220485277400055 0 0 -1 I I #
coedge $-1 $373 $350 $355 $460 reversed $251 $-1 #
straight-curve $-1 -69.563834649708966 35.632319640431213 -8.720485277400055 -1 0 0 I I #
vertex $-1 $450 $537 #
straight-curve $-1 -69.563834649708966 -35.632319640431213 -8.720485277400055 1 0 0 I I #
coedge $-1 $355 $354 $531 $538 reversed $356 $-1 #
edge $-1 $539 -11.720485277400055 $358 8.720485277400055 $354 $540 forward 7 unknown #
edge $-1 $541 -11.720485277400055 $357 8.720485277400055 $454 $542 forward 7 unknown #
point $-1 -64.320810571611688 35.632319640431213 -8.720485277400055 #
point $-1 -64.320810571611688 -35.632319640431213 -8.720485277400055 #
edge $-1 $452 -144.37069337751521 $362 5.2430240780972781 $372 $543 forward 7 unknown #
point $-1 74.806858727806244 35.632319640431213 -11.720485277400055 #
edge $-1 $456 -1.5 $466 1.5 $447 $544 forward 7 unknown #
vertex $-1 $449 $545 #
straight-curve $-1 69.563834649708966 -35.632319640431213 -11.720485277400055 -1 0 0 I I #
face $-1 $-1 $370 $17 $-1 $546 reversed single #
edge $-1 $470 -64.320810571611688 $541 64.320810571611688 $373 $547 forward 7 unknown #
vertex $-1 $446 $548 #
straight-curve $-1 64.320810571611688 35.632319640431213 0 0 0 -1 I I #
plane-surface $-1 0 35.632319640431213 0 0 -1 0 0 0 -1 forward_v I I I I #
edge $-1 $539 -64.320810571611688 $474 64.320810571611688 $377 $549 forward 7 unknown #
vertex $-1 $446 $550 #
straight-curve $-1 64.320810571611688 -35.632319640431213 0 0 0 -1 I I #
face $-1 $551 $552 $18 $-1 $553 reversed single #
loop $-1 $-1 $554 $381 #
plane-surface $-1 -69.563834649708966 0 -8.720485277400055 0 0 1 1 0 0 forward_v I I I I #
coedge $-1 $555 $482 $556 $557 forward $382 $-1 #
coedge $-1 $558 $384 $559 $560 forward $261 $-1 #
coedge $-1 $384 $558 $561 $562 forward $261 $-1 #
coedge $-1 $479 $563 $384 $483 reversed $382 $-1 #
edge $-1 $564 -35.632319640431213 $565 35.632319640431213 $482 $566 forward 7 unknown #
coedge $-1 $385 $397 $567 $568 forward $156 $-1 #
coedge $-1 $569 $386 $385 $486 reversed $275 $-1 #
edge $-1 $570 -64.320810571611688 $388 -1.7475531391391428 $485 $401 forward 7 unknown #
straight-curve $-1 1.7475531391391428 35.632319640431213 67.920478026278644 0 0 1 I I #
point $-1 1.7475531391391428 35.632319640431213 11.720485277400055 #
straight-curve $-1 -3.9375399987897026 35.632319640431213 2.5730049031618307 1 0 0 I I #
point $-1 1.7475531391391428 35.632319640431213 2.5730049031618307 #
coedge $-1 $395 $571 $572 $573 reversed $275 $-1 #
coedge $-1 $574 $398 $395 $493 forward $499 $-1 #
edge $-1 $400 -11.720485277400055 $575 8.720485277400055 $395 $576 forward 7 unknown #
face $-1 $-1 $577 $18 $-1 $578 reversed single #
plane-surface $-1 0 35.632319640431213 0 0 -1 0 0 0 -1 forward_v I I I I #
coedge $-1 $579 $580 $397 $497 reversed $581 $-1 #
edge $-1 $500 -64.320810571611688 $582 64.320810571611688 $496 $583 forward 7 unknown #
coedge $-1 $398 $574 $579 $584 reversed $499 $-1 #
loop $-1 $-1 $574 $585 #
vertex $-1 $399 $586 #
straight-curve $-1 -64.320810571611688 0 11.720485277400055 0 -1 0 I I #
point $-1 -64.320810571611688 35.632319640431213 11.720485277400055 #
face $-1 $587 $588 $19 $-1 $589 reversed single #
loop $-1 $-1 $590 $402 #
plane-surface $-1 69.563834649708966 0 -8.720485277400055 0 0 1 1 0 0 forward_v I I I I #
coedge $-1 $412 $591 $405 $509 forward $403 $-1 #
coedge $-1 $508 $405 $592 $593 reversed $282 $-1 #
coedge $-1 $405 $507 $510 $594 forward $282 $-1 #
edge $-1 $595 13.276317962322089 $596 19.922351283710363 $506 $597 forward 7 unknown #
coedge $-1 $512 $406 $508 $594 reversed $284 $-1 #
edge $-1 $596 -5.6850931379288454 $413 13.560173135508251 $412 $598 forward 7 unknown #
coedge $-1 $407 $510 $515 $599 reversed $284 $-1 #
vertex $-1 $599 $600 #
straight-curve $-1 -17.497713134297953 -6.2559835360781477 60.227309762593407 0 0.5877852410284794 -0.80901700255871778 I I #
coedge $-1 $592 $409 $512 $599 forward $517 $-1 #
coedge $-1 $409 $601 $411 $520 reversed $517 $-1 #
loop $-1 $-1 $592 $602 #
straight-curve $-1 -17.497713134297953 35.632319640431213 67.920478026278644 0 0 -1 I I #
coedge $-1 $603 $411 $604 $605 forward $403 $-1 #
edge $-1 $414 17.497713134297953 $606 64.320810571611688 $516 $607 forward 7 unknown #
point $-1 -17.497713134297953 28.986286319042939 11.720485277400059 #
point $-1 -17.497713134297953 35.632319640431213 11.720485277400055 #
point $-1 -7.8750799975794052 28.980351215614895 4.7281201307829708 #
plane-surface $-1 64.320810571611688 0 0 -1 0 0 0 0 1 forward_v I I I I #
straight-curve $-1 -69.563834649708966 -35.632319640431213 -11.720485277400055 -1 0 0 I I #
point $-1 64.320810571611688 35.632319640431213 -11.720485277400055 #
point $-1 64.320810571611688 -35.632319640431213 -11.720485277400055 #
straight-curve $-1 64.320810571611688 -35.632319640431213 0 0 0 -1 I I #
straight-curve $-1 64.320810571611688 35.632319640431213 0 0 0 -1 I I #
plane-surface $-1 -64.320810571611688 0 0 1 0 0 0 0 -1 forward_v I I I I #
coedge $-1 $444 $443 $458 $538 forward $234 $-1 #
straight-curve $-1 64.320810571611688 0 11.720485277400055 0 1 0 I I #
straight-curve $-1 -74.806858727806244 0 -11.720485277400055 0 1 0 I I #
straight-curve $-1 -74.806858727806244 0 -8.720485277400055 0 -1 0 I I #
point $-1 -74.806858727806244 35.632319640431213 -8.720485277400055 #
point $-1 -74.806858727806244 35.632319640431213 -11.720485277400055 #
point $-1 -74.806858727806244 -35.632319640431213 -8.720485277400055 #
edge $-1 $541 -35.632319640431213 $539 35.632319640431213 $458 $608 forward 7 unknown #
vertex $-1 $538 $609 #
straight-curve $-1 -64.320810571611688 -35.632319640431213 0 0 0 -1 I I #
vertex $-1 $469 $610 #
straight-curve $-1 -64.320810571611688 35.632319640431213 0 0 0 -1 I I #
straight-curve $-1 69.563834649708966 35.632319640431213 -11.720485277400055 1 0 0 I I #
straight-curve $-1 -74.806858727806244 -35.632319640431213 -10.220485277400055 0 0 -1 I I #
point $-1 -74.806858727806244 -35.632319640431213 -11.720485277400055 #
plane-surface $-1 64.320810571611688 0 0 -1 0 0 0 0 1 forward_v I I I I #
straight-curve $-1 0 35.632319640431213 11.720485277400055 -1 0 0 I I #
point $-1 64.320810571611688 35.632319640431213 11.720485277400055 #
straight-curve $-1 0 -35.632319640431213 11.720485277400055 1 0 0 I I #
point $-1 64.320810571611688 -35.632319640431213 11.720485277400055 #
face $-1 $611 $612 $18 $-1 $613 reversed single #
loop $-1 $-1 $614 $476 #
plane-surface $-1 -74.806858727806244 0 -10.220485277400055 1 0 0 0 0 -1 forward_v I I I I #
coedge $-1 $572 $615 $574 $616 reversed $477 $-1 #
coedge $-1 $563 $479 $617 $618 reversed $382 $-1 #
coedge $-1 $561 $619 $479 $557 reversed $581 $-1 #
edge $-1 $564 -1.5 $620 1.5 $479 $621 forward 7 unknown #
coedge $-1 $481 $480 $622 $623 reversed $261 $-1 #
coedge $-1 $624 $569 $480 $560 reversed $275 $-1 #
edge $-1 $565 -5.2430240780972781 $625 5.2430240780972781 $559 $626 forward 7 unknown #
coedge $-1 $580 $556 $481 $562 reversed $581 $-1 #
edge $-1 $627 -5.2430240780972781 $564 5.2430240780972781 $561 $628 forward 7 unknown #
coedge $-1 $482 $555 $624 $629 reversed $382 $-1 #
vertex $-1 $483 $630 #
vertex $-1 $483 $631 #
straight-curve $-1 74.806858727806244 0 -8.720485277400055 0 1 0 I I #
coedge $-1 $632 $633 $484 $568 reversed $577 $-1 #
edge $-1 $582 -35.632319640431213 $570 35.632319640431213 $567 $634 forward 7 unknown #
coedge $-1 $559 $485 $633 $635 forward $275 $-1 #
vertex $-1 $568 $636 #
coedge $-1 $491 $637 $614 $638 reversed $275 $-1 #
coedge $-1 $639 $554 $491 $573 forward $477 $-1 #
edge $-1 $575 -5.2430240780972781 $640 5.2430240780972781 $491 $641 forward 7 unknown #
coedge $-1 $498 $492 $554 $616 forward $499 $-1 #
vertex $-1 $493 $642 #
straight-curve $-1 -64.320810571611688 35.632319640431213 0 0 0 -1 I I #
loop $-1 $-1 $622 $494 #
plane-surface $-1 64.320810571611688 0 0 -1 0 0 0 0 1 forward_v I I I I #
coedge $-1 $643 $496 $498 $584 forward $581 $-1 #
coedge $-1 $496 $561 $632 $644 reversed $581 $-1 #
loop $-1 $-1 $579 $611 #
vertex $-1 $568 $645 #
straight-curve $-1 0 -35.632319640431213 11.720485277400055 1 0 0 I I #
edge $-1 $500 -11.720485277400055 $646 8.720485277400055 $498 $647 forward 7 unknown #
face $-1 $396 $499 $18 $-1 $648 reversed single #
point $-1 -64.320810571611688 -35.632319640431213 11.720485277400055 #
face $-1 $649 $650 $19 $-1 $651 forward single #
loop $-1 $-1 $652 $503 #
plane-surface $-1 74.806858727806244 0 -10.220485277400055 -1 0 0 0 0 1 forward_v I I I I #
coedge $-1 $653 $654 $655 $656 forward $504 $-1 #
coedge $-1 $506 $657 $658 $659 forward $403 $-1 #
coedge $-1 $658 $515 $507 $593 forward $517 $-1 #
edge $-1 $660 -65.347473123116814 $595 -56.199992748878586 $592 $661 forward 7 unknown #
edge $-1 $660 -71.264639280862426 $596 -59.957731829836 $508 $662 forward 7 unknown #
vertex $-1 $593 $663 #
vertex $-1 $511 $664 #
straight-curve $-1 1.7475531391391428 48.908637602753302 11.720485277400059 0 -1 0 I I #
straight-curve $-1 -3.9375399987897026 28.986286319042939 11.720485277400055 -1 0 0 I I #
edge $-1 $513 -13.560173135508251 $660 5.6850931379288454 $515 $665 forward 7 unknown #
point $-1 -17.497713134297953 35.632319640431213 2.5730049031618307 #
coedge $-1 $516 $666 $667 $668 reversed $517 $-1 #
face $-1 $669 $517 $19 $-1 $670 reversed single #
coedge $-1 $657 $519 $671 $672 forward $403 $-1 #
coedge $-1 $667 $673 $519 $605 reversed $674 $-1 #
edge $-1 $606 -35.632319640431213 $675 35.632319640431213 $604 $676 forward 7 unknown #
vertex $-1 $520 $677 #
straight-curve $-1 0 35.632319640431213 11.720485277400055 -1 0 0 I I #
straight-curve $-1 -64.320810571611688 0 11.720485277400055 0 -1 0 I I #
point $-1 -64.320810571611688 -35.632319640431213 11.720485277400055 #
point $-1 -64.320810571611688 35.632319640431213 11.720485277400055 #
face $-1 $585 $581 $18 $-1 $678 reversed single #
loop $-1 $-1 $679 $551 #
plane-surface $-1 0 0 -11.720485277400055 0 0 1 1 0 0 forward_v I I I I #
coedge $-1 $680 $681 $571 $638 forward $552 $-1 #
coedge $-1 $554 $639 $643 $682 forward $477 $-1 #
edge $-1 $575 -35.632319640431213 $646 35.632319640431213 $574 $683 forward 7 unknown #
coedge $-1 $679 $684 $555 $618 forward $612 $-1 #
edge $-1 $685 -35.632319640431213 $620 35.632319640431213 $555 $686 forward 7 unknown #
coedge $-1 $556 $687 $679 $688 reversed $581 $-1 #
vertex $-1 $557 $689 #
straight-curve $-1 74.806858727806244 -35.632319640431213 -10.220485277400055 0 0 -1 I I #
coedge $-1 $633 $632 $558 $623 forward $577 $-1 #
edge $-1 $627 -35.632319640431213 $625 35.632319640431213 $622 $690 forward 7 unknown #
coedge $-1 $637 $559 $563 $629 forward $275 $-1 #
vertex $-1 $560 $691 #
straight-curve $-1 69.563834649708966 35.632319640431213 -8.720485277400055 -1 0 0 I I #
vertex $-1 $644 $692 #
straight-curve $-1 69.563834649708966 -35.632319640431213 -8.720485277400055 1 0 0 I I #
edge $-1 $565 -1.5 $685 1.5 $563 $693 forward 7 unknown #
point $-1 74.806858727806244 -35.632319640431213 -8.720485277400055 #
point $-1 74.806858727806244 35.632319640431213 -8.720485277400055 #
coedge $-1 $622 $567 $580 $644 forward $577 $-1 #
coedge $-1 $567 $622 $569 $635 reversed $577 $-1 #
straight-curve $-1 64.320810571611688 0 11.720485277400055 0 1 0 I I #
edge $-1 $570 -11.720485277400055 $625 8.720485277400055 $633 $694 forward 7 unknown #
point $-1 64.320810571611688 35.632319640431213 11.720485277400055 #
coedge $-1 $571 $624 $684 $695 reversed $275 $-1 #
edge $-1 $640 -1.5 $696 1.5 $571 $697 forward 7 unknown #
coedge $-1 $615 $572 $681 $698 forward $477 $-1 #
vertex $-1 $573 $699 #
straight-curve $-1 -69.563834649708966 35.632319640431213 -8.720485277400055 -1 0 0 I I #
point $-1 -64.320810571611688 35.632319640431213 -8.720485277400055 #
coedge $-1 $687 $579 $615 $682 reversed $581 $-1 #
edge $-1 $582 -11.720485277400055 $627 8.720485277400055 $632 $700 forward 7 unknown #
point $-1 64.320810571611688 -35.632319640431213 11.720485277400055 #
vertex $-1 $682 $701 #
straight-curve $-1 -64.320810571611688 -35.632319640431213 0 0 0 -1 I I #
plane-surface $-1 -64.320810571611688 0 0 1 0 0 0 0 -1 forward_v I I I I #
face $-1 $702 $703 $19 $-1 $704 reversed single #
loop $-1 $-1 $705 $587 #
plane-surface $-1 -69.563834649708966 0 -8.720485277400055 0 0 1 1 0 0 forward_v I I I I #
coedge $-1 $706 $655 $707 $708 forward $588 $-1 #
coedge $-1 $709 $590 $710 $711 forward $504 $-1 #
coedge $-1 $590 $709 $712 $713 forward $504 $-1 #
coedge $-1 $652 $714 $590 $656 reversed $588 $-1 #
edge $-1 $715 -35.632319640431213 $716 35.632319640431213 $655 $717 forward 7 unknown #
coedge $-1 $591 $603 $718 $719 forward $403 $-1 #
coedge $-1 $720 $592 $591 $659 reversed $517 $-1 #
edge $-1 $721 -64.320810571611688 $595 -1.7475531391391428 $658 $607 forward 7 unknown #
vertex $-1 $599 $722 #
straight-curve $-1 1.7475531391391428 35.632319640431213 67.920478026278644 0 0 1 I I #
straight-curve $-1 1.7475531391391428 -6.2559835360781477 60.227309762593407 0 -0.5877852410284794 0.80901700255871778 I I #
point $-1 1.7475531391391428 35.632319640431213 11.720485277400055 #
point $-1 1.7475531391391428 28.986286319042939 11.720485277400059 #
straight-curve $-1 -3.9375399987897026 35.632319640431213 2.5730049031618307 1 0 0 I I #
coedge $-1 $601 $723 $724 $725 reversed $517 $-1 #
coedge $-1 $726 $604 $601 $668 forward $674 $-1 #
edge $-1 $606 -11.720485277400055 $727 8.720485277400055 $601 $728 forward 7 unknown #
face $-1 $-1 $729 $19 $-1 $730 reversed single #
plane-surface $-1 0 35.632319640431213 0 0 -1 0 0 0 -1 forward_v I I I I #
coedge $-1 $731 $732 $603 $672 reversed $733 $-1 #
edge $-1 $675 -64.320810571611688 $734 64.320810571611688 $671 $735 forward 7 unknown #
coedge $-1 $604 $726 $731 $736 reversed $674 $-1 #
loop $-1 $-1 $726 $737 #
vertex $-1 $605 $738 #
straight-curve $-1 -64.320810571611688 0 11.720485277400055 0 -1 0 I I #
point $-1 -64.320810571611688 35.632319640431213 11.720485277400055 #
plane-surface $-1 0 -35.632319640431213 0 0 1 0 0 0 1 forward_v I I I I #
coedge $-1 $739 $617 $619 $688 forward $612 $-1 #
coedge $-1 $740 $614 $739 $741 reversed $552 $-1 #
coedge $-1 $614 $740 $639 $698 reversed $552 $-1 #
edge $-1 $742 -5.2430240780972781 $646 5.2430240780972781 $643 $743 forward 7 unknown #
straight-curve $-1 -64.320810571611688 0 -8.720485277400055 0 -1 0 I I #
coedge $-1 $617 $739 $637 $695 forward $612 $-1 #
vertex $-1 $618 $744 #
straight-curve $-1 74.806858727806244 0 -11.720485277400055 0 -1 0 I I #
coedge $-1 $619 $643 $740 $745 forward $581 $-1 #
edge $-1 $620 -5.2430240780972781 $746 144.37069337751521 $619 $747 forward 7 unknown #
point $-1 74.806858727806244 -35.632319640431213 -11.720485277400055 #
straight-curve $-1 64.320810571611688 0 -8.720485277400055 0 1 0 I I #
point $-1 64.320810571611688 35.632319640431213 -8.720485277400055 #
point $-1 64.320810571611688 -35.632319640431213 -8.720485277400055 #
straight-curve $-1 74.806858727806244 35.632319640431213 -10.220485277400055 0 0 -1 I I #
straight-curve $-1 64.320810571611688 35.632319640431213 0 0 0 -1 I I #
edge $-1 $696 -144.37069337751521 $685 5.2430240780972781 $637 $748 forward 7 unknown #
vertex $-1 $695 $749 #
straight-curve $-1 -74.806858727806244 35.632319640431213 -10.220485277400055 0 0 -1 I I #
edge $-1 $640 -35.632319640431213 $742 35.632319640431213 $681 $750 forward 7 unknown #
point $-1 -74.806858727806244 35.632319640431213 -8.720485277400055 #
straight-curve $-1 64.320810571611688 -35.632319640431213 0 0 0 -1 I I #
point $-1 -64.320810571611688 -35.632319640431213 -8.720485277400055 #
face $-1 $751 $752 $19 $-1 $753 reversed single #
loop $-1 $-1 $754 $649 #
plane-surface $-1 -74.806858727806244 0 -10.220485277400055 1 0 0 0 0 -1 forward_v I I I I #
coedge $-1 $724 $755 $726 $756 reversed $650 $-1 #
coedge $-1 $714 $652 $757 $758 reversed $588 $-1 #
coedge $-1 $712 $759 $652 $708 reversed $733 $-1 #
edge $-1 $715 -1.5 $760 1.5 $652 $761 forward 7 unknown #
coedge $-1 $654 $653 $762 $763 reversed $504 $-1 #
coedge $-1 $764 $720 $653 $711 reversed $517 $-1 #
edge $-1 $716 -5.2430240780972781 $765 5.2430240780972781 $710 $766 forward 7 unknown #
coedge $-1 $732 $707 $654 $713 reversed $733 $-1 #
edge $-1 $767 -5.2430240780972781 $715 5.2430240780972781 $712 $768 forward 7 unknown #
coedge $-1 $655 $706 $764 $769 reversed $588 $-1 #
vertex $-1 $656 $770 #
vertex $-1 $656 $771 #
straight-curve $-1 74.806858727806244 0 -8.720485277400055 0 1 0 I I #
coedge $-1 $772 $773 $657 $719 reversed $729 $-1 #
edge $-1 $734 -35.632319640431213 $721 35.632319640431213 $718 $774 forward 7 unknown #
coedge $-1 $710 $658 $773 $775 forward $517 $-1 #
vertex $-1 $719 $776 #
point $-1 1.7475531391391428 35.632319640431213 2.5730049031618307 #
coedge $-1 $666 $777 $754 $778 reversed $517 $-1 #
coedge $-1 $779 $705 $666 $725 forward $650 $-1 #
edge $-1 $727 -5.2430240780972781 $780 5.2430240780972781 $666 $781 forward 7 unknown #
coedge $-1 $673 $667 $705 $756 forward $674 $-1 #
vertex $-1 $668 $782 #
straight-curve $-1 -64.320810571611688 35.632319640431213 0 0 0 -1 I I #
loop $-1 $-1 $762 $669 #
plane-surface $-1 64.320810571611688 0 0 -1 0 0 0 0 1 forward_v I I I I #
coedge $-1 $783 $671 $673 $736 forward $733 $-1 #
coedge $-1 $671 $712 $772 $784 reversed $733 $-1 #
loop $-1 $-1 $731 $751 #
vertex $-1 $719 $785 #
straight-curve $-1 0 -35.632319640431213 11.720485277400055 1 0 0 I I #
edge $-1 $675 -11.720485277400055 $786 8.720485277400055 $673 $787 forward 7 unknown #
face $-1 $602 $674 $19 $-1 $788 reversed single #
point $-1 -64.320810571611688 -35.632319640431213 11.720485277400055 #
coedge $-1 $684 $679 $680 $741 forward $612 $-1 #
coedge $-1 $681 $680 $687 $745 reversed $552 $-1 #
edge $-1 $746 -35.632319640431213 $696 35.632319640431213 $680 $789 forward 7 unknown #
vertex $-1 $698 $790 #
straight-curve $-1 -69.563834649708966 -35.632319640431213 -8.720485277400055 1 0 0 I I #
point $-1 74.806858727806244 35.632319640431213 -11.720485277400055 #
edge $-1 $742 -1.5 $746 1.5 $740 $791 forward 7 unknown #
vertex $-1 $741 $792 #
straight-curve $-1 69.563834649708966 -35.632319640431213 -11.720485277400055 -1 0 0 I I #
straight-curve $-1 69.563834649708966 35.632319640431213 -11.720485277400055 1 0 0 I I #
point $-1 -74.806858727806244 35.632319640431213 -11.720485277400055 #
straight-curve $-1 -74.806858727806244 0 -8.720485277400055 0 -1 0 I I #
face $-1 $737 $733 $19 $-1 $793 reversed single #
loop $-1 $-1 $794 $702 #
plane-surface $-1 0 0 -11.720485277400055 0 0 1 1 0 0 forward_v I I I I #
coedge $-1 $795 $796 $723 $778 forward $703 $-1 #
coedge $-1 $705 $779 $783 $797 forward $650 $-1 #
edge $-1 $727 -35.632319640431213 $786 35.632319640431213 $726 $798 forward 7 unknown #
coedge $-1 $794 $799 $706 $758 forward $752 $-1 #
edge $-1 $800 -35.632319640431213 $760 35.632319640431213 $706 $801 forward 7 unknown #
coedge $-1 $707 $802 $794 $803 reversed $733 $-1 #
vertex $-1 $708 $804 #
straight-curve $-1 74.806858727806244 -35.632319640431213 -10.220485277400055 0 0 -1 I I #
coedge $-1 $773 $772 $709 $763 forward $729 $-1 #
edge $-1 $767 -35.632319640431213 $765 35.632319640431213 $762 $805 forward 7 unknown #
coedge $-1 $777 $710 $714 $769 forward $517 $-1 #
vertex $-1 $711 $806 #
straight-curve $-1 69.563834649708966 35.632319640431213 -8.720485277400055 -1 0 0 I I #
vertex $-1 $784 $807 #
straight-curve $-1 69.563834649708966 -35.632319640431213 -8.720485277400055 1 0 0 I I #
edge $-1 $716 -1.5 $800 1.5 $714 $808 forward 7 unknown #
point $-1 74.806858727806244 -35.632319640431213 -8.720485277400055 #
point $-1 74.806858727806244 35.632319640431213 -8.720485277400055 #
coedge $-1 $762 $718 $732 $784 forward $729 $-1 #
coedge $-1 $718 $762 $720 $775 reversed $729 $-1 #
straight-curve $-1 64.320810571611688 0 11.720485277400055 0 1 0 I I #
edge $-1 $721 -11.720485277400055 $765 8.720485277400055 $773 $809 forward 7 unknown #
point $-1 64.320810571611688 35.632319640431213 11.720485277400055 #
coedge $-1 $723 $764 $799 $810 reversed $517 $-1 #
edge $-1 $780 -1.5 $811 1.5 $723 $812 forward 7 unknown #
coedge $-1 $755 $724 $796 $813 forward $650 $-1 #
vertex $-1 $725 $814 #
straight-curve $-1 -69.563834649708966 35.632319640431213 -8.720485277400055 -1 0 0 I I #
point $-1 -64.320810571611688 35.632319640431213 -8.720485277400055 #
coedge $-1 $802 $731 $755 $797 reversed $733 $-1 #
edge $-1 $734 -11.720485277400055 $767 8.720485277400055 $772 $815 forward 7 unknown #
point $-1 64.320810571611688 -35.632319640431213 11.720485277400055 #
vertex $-1 $797 $816 #
straight-curve $-1 -64.320810571611688 -35.632319640431213 0 0 0 -1 I I #
plane-surface $-1 -64.320810571611688 0 0 1 0 0 0 0 -1 forward_v I I I I #
straight-curve $-1 -74.806858727806244 0 -11.720485277400055 0 1 0 I I #
point $-1 -74.806858727806244 -35.632319640431213 -8.720485277400055 #
straight-curve $-1 -74.806858727806244 -35.632319640431213 -10.220485277400055 0 0 -1 I I #
point $-1 -74.806858727806244 -35.632319640431213 -11.720485277400055 #
plane-surface $-1 0 -35.632319640431213 0 0 1 0 0 0 1 forward_v I I I I #
coedge $-1 $817 $757 $759 $803 forward $752 $-1 #
coedge $-1 $818 $754 $817 $819 reversed $703 $-1 #
coedge $-1 $754 $818 $779 $813 reversed $703 $-1 #
edge $-1 $820 -5.2430240780972781 $786 5.2430240780972781 $783 $821 forward 7 unknown #
straight-curve $-1 -64.320810571611688 0 -8.720485277400055 0 -1 0 I I #
coedge $-1 $757 $817 $777 $810 forward $752 $-1 #
vertex $-1 $758 $822 #
straight-curve $-1 74.806858727806244 0 -11.720485277400055 0 -1 0 I I #
coedge $-1 $759 $783 $818 $823 forward $733 $-1 #
edge $-1 $760 -5.2430240780972781 $824 144.37069337751521 $759 $825 forward 7 unknown #
point $-1 74.806858727806244 -35.632319640431213 -11.720485277400055 #
straight-curve $-1 64.320810571611688 0 -8.720485277400055 0 1 0 I I #
point $-1 64.320810571611688 35.632319640431213 -8.720485277400055 #
point $-1 64.320810571611688 -35.632319640431213 -8.720485277400055 #
straight-curve $-1 74.806858727806244 35.632319640431213 -10.220485277400055 0 0 -1 I I #
straight-curve $-1 64.320810571611688 35.632319640431213 0 0 0 -1 I I #
edge $-1 $811 -144.37069337751521 $800 5.2430240780972781 $777 $826 forward 7 unknown #
vertex $-1 $810 $827 #
straight-curve $-1 -74.806858727806244 35.632319640431213 -10.220485277400055 0 0 -1 I I #
edge $-1 $780 -35.632319640431213 $820 35.632319640431213 $796 $828 forward 7 unknown #
point $-1 -74.806858727806244 35.632319640431213 -8.720485277400055 #
straight-curve $-1 64.320810571611688 -35.632319640431213 0 0 0 -1 I I #
point $-1 -64.320810571611688 -35.632319640431213 -8.720485277400055 #
coedge $-1 $799 $794 $795 $819 forward $752 $-1 #
coedge $-1 $796 $795 $802 $823 reversed $703 $-1 #
edge $-1 $824 -35.632319640431213 $811 35.632319640431213 $795 $829 forward 7 unknown #
vertex $-1 $813 $830 #
straight-curve $-1 -69.563834649708966 -35.632319640431213 -8.720485277400055 1 0 0 I I #
point $-1 74.806858727806244 35.632319640431213 -11.720485277400055 #
edge $-1 $820 -1.5 $824 1.5 $818 $831 forward 7 unknown #
vertex $-1 $819 $832 #
straight-curve $-1 69.563834649708966 -35.632319640431213 -11.720485277400055 -1 0 0 I I #
straight-curve $-1 69.563834649708966 35.632319640431213 -11.720485277400055 1 0 0 I I #
point $-1 -74.806858727806244 35.632319640431213 -11.720485277400055 #
straight-curve $-1 -74.806858727806244 0 -8.720485277400055 0 -1 0 I I #
straight-curve $-1 -74.806858727806244 0 -11.720485277400055 0 1 0 I I #
point $-1 -74.806858727806244 -35.632319640431213 -8.720485277400055 #
straight-curve $-1 -74.806858727806244 -35.632319640431213 -10.220485277400055 0 0 -1 I I #
point $-1 -74.806858727806244 -35.632319640431213 -11.720485277400055 #
End-of-ACIS-data 