500 0 15 0           
7 Unknown 11 ACIS 5.0 NT 24 Fri Mar 26 20:08:26 1999 
-1 9.9999999999999995e-007 1e-010 
body $-1 $15 $-1 $16 #
body $-1 $17 $-1 $18 #
body $-1 $19 $-1 $20 #
body $-1 $21 $-1 $22 #
body $-1 $23 $-1 $24 #
body $-1 $25 $-1 $26 #
body $-1 $27 $-1 $28 #
body $-1 $29 $-1 $30 #
body $-1 $31 $-1 $32 #
body $-1 $33 $-1 $34 #
body $-1 $35 $-1 $36 #
body $-1 $37 $-1 $38 #
body $-1 $39 $-1 $40 #
body $-1 $41 $-1 $42 #
body $-1 $43 $-1 $44 #
lump $-1 $-1 $45 $0 #
transform $-1 1 0 0 0 1 0 0 0 1 47.149876400036625 29.237182642113837 10.422131660907208 1 rotate no_reflect no_shear #
lump $-1 $-1 $46 $1 #
transform $-1 1 0 0 0 1 0 0 0 1 47.149876400036625 29.237182642113837 10.422131660907208 1 rotate no_reflect no_shear #
lump $-1 $-1 $47 $2 #
transform $-1 1 0 0 0 1 0 0 0 1 47.149876400036625 29.237182642113837 10.422131660907208 1 rotate no_reflect no_shear #
lump $-1 $-1 $48 $3 #
transform $-1 1 0 0 0 1 0 0 0 1 47.149876400036625 29.237182642113837 10.422131660907208 1 rotate no_reflect no_shear #
lump $-1 $-1 $49 $4 #
transform $-1 1 0 0 0 1 0 0 0 1 47.149876400036625 29.237182642113837 10.422131660907208 1 rotate no_reflect no_shear #
lump $-1 $-1 $50 $5 #
transform $-1 1 0 0 0 1 0 0 0 1 47.149876400036625 29.237182642113837 10.422131660907208 1 rotate no_reflect no_shear #
lump $-1 $-1 $51 $6 #
transform $-1 1 0 0 0 1 0 0 0 1 47.149876400036625 29.237182642113837 10.422131660907208 1 rotate no_reflect no_shear #
lump $-1 $-1 $52 $7 #
transform $-1 1 0 0 0 1 0 0 0 1 47.149876400036625 29.237182642113837 10.422131660907208 1 rotate no_reflect no_shear #
lump $-1 $-1 $53 $8 #
transform $-1 1 0 0 0 1 0 0 0 1 47.149876400036625 29.237182642113837 10.422131660907208 1 rotate no_reflect no_shear #
lump $-1 $-1 $54 $9 #
transform $-1 1 0 0 0 1 0 0 0 1 47.149876400036625 29.237182642113837 10.422131660907208 1 rotate no_reflect no_shear #
lump $-1 $-1 $55 $10 #
transform $-1 1 0 0 0 1 0 0 0 1 47.149876400036625 29.237182642113837 10.422131660907208 1 rotate no_reflect no_shear #
lump $-1 $-1 $56 $11 #
transform $-1 1 0 0 0 1 0 0 0 1 47.149876400036625 29.237182642113837 10.422131660907208 1 rotate no_reflect no_shear #
lump $-1 $-1 $57 $12 #
transform $-1 1 0 0 0 1 0 0 0 1 47.149876400036625 29.237182642113837 10.422131660907208 1 rotate no_reflect no_shear #
lump $-1 $-1 $58 $13 #
transform $-1 1 0 0 0 1 0 0 0 1 47.149876400036625 29.237182642113837 10.422131660907208 1 rotate no_reflect no_shear #
lump $-1 $-1 $59 $14 #
transform $-1 1 0 0 0 1 0 0 0 1 47.149876400036625 29.237182642113837 10.422131660907208 1 rotate no_reflect no_shear #
shell $-1 $-1 $-1 $60 $-1 $15 #
shell $-1 $-1 $-1 $61 $-1 $17 #
shell $-1 $-1 $-1 $62 $-1 $19 #
shell $-1 $-1 $-1 $63 $-1 $21 #
shell $-1 $-1 $-1 $64 $-1 $23 #
shell $-1 $-1 $-1 $65 $-1 $25 #
shell $-1 $-1 $-1 $66 $-1 $27 #
shell $-1 $-1 $-1 $67 $-1 $29 #
shell $-1 $-1 $-1 $68 $-1 $31 #
shell $-1 $-1 $-1 $69 $-1 $33 #
shell $-1 $-1 $-1 $70 $-1 $35 #
shell $-1 $-1 $-1 $71 $-1 $37 #
shell $-1 $-1 $-1 $72 $-1 $39 #
shell $-1 $-1 $-1 $73 $-1 $41 #
shell $-1 $-1 $-1 $74 $-1 $43 #
face $-1 $75 $76 $45 $-1 $77 forward single #
face $-1 $78 $79 $46 $-1 $80 reversed single #
face $-1 $81 $82 $47 $-1 $83 forward single #
face $-1 $84 $85 $48 $-1 $86 reversed single #
face $-1 $87 $88 $49 $-1 $89 forward single #
face $-1 $90 $91 $50 $-1 $92 forward single #
face $-1 $93 $94 $51 $-1 $95 reversed single #
face $-1 $96 $97 $52 $-1 $98 forward single #
face $-1 $99 $100 $53 $-1 $101 forward single #
face $-1 $102 $103 $54 $-1 $104 reversed single #
face $-1 $105 $106 $55 $-1 $107 forward single #
face $-1 $108 $109 $56 $-1 $110 forward single #
face $-1 $111 $112 $57 $-1 $113 reversed single #
face $-1 $114 $115 $58 $-1 $116 forward single #
face $-1 $117 $118 $59 $-1 $119 forward single #
face $-1 $120 $121 $45 $-1 $122 reversed single #
loop $-1 $-1 $123 $60 #
plane-surface $-1 0 0 10.422131660907208 0 0 1 1 0 0 forward_v I I I I #
face $-1 $124 $125 $46 $-1 $126 reversed single #
loop $-1 $-1 $127 $61 #
plane-surface $-1 5.3047540895238612 60.188569798916419 111.60839647551609 1 0 0 0 -0.74314483375859142 -0.66913059716165679 forward_v I I I I #
face $-1 $128 $129 $47 $-1 $130 forward single #
loop $-1 $131 $132 $62 #
cone-surface $-1 13.907480492844854 26.343182428777176 7.3084011811230543 0 -0.74314483375859142 -0.66913059716165679 0.5 0 0 1 I I 0 1 0.5 forward I I I I #
face $-1 $133 $134 $48 $-1 $135 reversed single #
loop $-1 $-1 $136 $63 #
plane-surface $-1 -31.373867111036642 -97.07074877023048 67.024877421580811 -1 0 0 0 -0.71933980857756763 0.69465836192734942 forward_v I I I I #
face $-1 $137 $138 $49 $-1 $139 forward single #
loop $-1 $140 $141 $64 #
cone-surface $-1 -38.780831092151445 -23.551690623932885 4.6314711645714963 0 0.71933980857756763 -0.69465836192734942 1 0 0 1 I I 0 1 1 forward I I I I #
face $-1 $142 $143 $50 $-1 $144 forward single #
loop $-1 $145 $146 $65 #
cone-surface $-1 -34.336652703482564 -23.551690623932885 4.6314711645714963 0 0.71933980857756763 -0.69465836192734942 1 0 0 1 I I 0 1 1 forward I I I I #
face $-1 $147 $148 $51 $-1 $149 reversed single #
loop $-1 $-1 $150 $66 #
plane-surface $-1 -7.7989289110183337 -97.07074877023048 67.024877421580811 -1 0 0 0 -0.71933980857756763 0.69465836192734942 forward_v I I I I #
face $-1 $151 $152 $52 $-1 $153 forward single #
loop $-1 $154 $155 $67 #
cone-surface $-1 -15.205892892133129 -23.551690623932885 4.6314711645714963 0 0.71933980857756763 -0.69465836192734942 1 0 0 1 I I 0 1 1 forward I I I I #
face $-1 $156 $157 $53 $-1 $158 forward single #
loop $-1 $159 $160 $68 #
cone-surface $-1 -10.761714503464255 -23.551690623932885 4.6314711645714963 0 0.71933980857756763 -0.69465836192734942 1 0 0 1 I I 0 1 1 forward I I I I #
face $-1 $161 $162 $54 $-1 $163 reversed single #
loop $-1 $-1 $164 $69 #
plane-surface $-1 15.776009288999983 -97.07074877023048 67.024877421580811 -1 0 0 0 -0.71933980857756763 0.69465836192734942 forward_v I I I I #
face $-1 $165 $166 $55 $-1 $167 forward single #
loop $-1 $168 $169 $70 #
cone-surface $-1 8.3690453078851803 -23.551690623932885 4.6314711645714963 0 0.71933980857756763 -0.69465836192734942 1 0 0 1 I I 0 1 1 forward I I I I #
face $-1 $170 $171 $56 $-1 $172 forward single #
loop $-1 $173 $174 $71 #
cone-surface $-1 12.813223696554054 -23.551690623932885 4.6314711645714963 0 0.71933980857756763 -0.69465836192734942 1 0 0 1 I I 0 1 1 forward I I I I #
face $-1 $175 $176 $57 $-1 $177 reversed single #
loop $-1 $-1 $178 $72 #
plane-surface $-1 39.350947489018289 -97.07074877023048 67.024877421580811 -1 0 0 0 -0.71933980857756763 0.69465836192734942 forward_v I I I I #
face $-1 $179 $180 $58 $-1 $181 forward single #
loop $-1 $182 $183 $73 #
cone-surface $-1 31.943983507903489 -23.551690623932885 4.6314711645714963 0 0.71933980857756763 -0.69465836192734942 1 0 0 1 I I 0 1 1 forward I I I I #
face $-1 $184 $185 $59 $-1 $186 forward single #
loop $-1 $187 $188 $74 #
cone-surface $-1 36.388161896572363 -23.551690623932885 4.6314711645714963 0 0.71933980857756763 -0.69465836192734942 1 0 0 1 I I 0 1 1 forward I I I I #
face $-1 $189 $190 $45 $-1 $191 reversed single #
loop $-1 $-1 $192 $75 #
plane-surface $-1 0 0 -10.422131660907208 0 0 1 1 0 0 forward_v I I I I #
coedge $-1 $193 $194 $195 $196 forward $76 $-1 #
face $-1 $197 $198 $46 $-1 $199 reversed single #
loop $-1 $-1 $200 $78 #
plane-surface $-1 13.907480492844854 -9.8898043191702811 48.509546572206453 0 0.74314483375859142 0.66913059716165679 1 0 0 forward_v I I I I #
coedge $-1 $201 $202 $203 $204 reversed $79 $-1 #
face $-1 $-1 $205 $47 $-1 $206 forward single #
loop $-1 $207 $208 $81 #
cone-surface $-1 13.907480492844854 25.679858702914132 6.7111418305421182 0 -0.74314483375859142 -0.66913059716165679 0.25 0 0 1 I I -0.70710678118654746 0.70710678118654746 0.25 forward I I I I #
loop $-1 $-1 $209 $62 #
coedge $-1 $132 $132 $210 $211 reversed $82 $-1 #
face $-1 $212 $213 $48 $-1 $214 reversed single #
loop $-1 $-1 $215 $84 #
plane-surface $-1 -36.558741897817001 -29.237182642113837 1.5187656113279502 0 -0.71933980857756763 0.69465836192734942 1 0 0 forward_v I I I I #
coedge $-1 $216 $217 $218 $219 reversed $85 $-1 #
face $-1 $-1 $220 $49 $-1 $221 forward single #
loop $-1 $222 $223 $87 #
cone-surface $-1 -38.780831092151445 -21.805468925465359 2.9451645120617407 0 0.71933980857756763 -0.69465836192734942 0.5 0 0 1 I I -0.70710678118654746 0.70710678118654746 0.5 forward I I I I #
loop $-1 $-1 $224 $64 #
coedge $-1 $141 $141 $225 $226 reversed $88 $-1 #
face $-1 $-1 $227 $50 $-1 $228 forward single #
loop $-1 $229 $230 $90 #
cone-surface $-1 -34.336652703482564 -21.805468925465359 2.9451645120617407 0 0.71933980857756763 -0.69465836192734942 0.5 0 0 1 I I -0.70710678118654746 0.70710678118654746 0.5 forward I I I I #
loop $-1 $-1 $231 $65 #
coedge $-1 $146 $146 $232 $233 reversed $91 $-1 #
face $-1 $234 $235 $51 $-1 $236 reversed single #
loop $-1 $-1 $237 $93 #
plane-surface $-1 -12.983803697798692 -29.237182642113837 1.5187656113279502 0 -0.71933980857756763 0.69465836192734942 1 0 0 forward_v I I I I #
coedge $-1 $238 $239 $240 $241 reversed $94 $-1 #
face $-1 $-1 $242 $52 $-1 $243 forward single #
loop $-1 $244 $245 $96 #
cone-surface $-1 -15.205892892133129 -21.805468925465359 2.9451645120617407 0 0.71933980857756763 -0.69465836192734942 0.5 0 0 1 I I -0.70710678118654746 0.70710678118654746 0.5 forward I I I I #
loop $-1 $-1 $246 $67 #
coedge $-1 $155 $155 $247 $248 reversed $97 $-1 #
face $-1 $-1 $249 $53 $-1 $250 forward single #
loop $-1 $251 $252 $99 #
cone-surface $-1 -10.761714503464255 -21.805468925465359 2.9451645120617407 0 0.71933980857756763 -0.69465836192734942 0.5 0 0 1 I I -0.70710678118654746 0.70710678118654746 0.5 forward I I I I #
loop $-1 $-1 $253 $68 #
coedge $-1 $160 $160 $254 $255 reversed $100 $-1 #
face $-1 $256 $257 $54 $-1 $258 reversed single #
loop $-1 $-1 $259 $102 #
plane-surface $-1 10.591134502219624 -29.237182642113837 1.5187656113279502 0 -0.71933980857756763 0.69465836192734942 1 0 0 forward_v I I I I #
coedge $-1 $260 $261 $262 $263 reversed $103 $-1 #
face $-1 $-1 $264 $55 $-1 $265 forward single #
loop $-1 $266 $267 $105 #
cone-surface $-1 8.3690453078851803 -21.805468925465359 2.9451645120617407 0 0.71933980857756763 -0.69465836192734942 0.5 0 0 1 I I -0.70710678118654746 0.70710678118654746 0.5 forward I I I I #
loop $-1 $-1 $268 $70 #
coedge $-1 $169 $169 $269 $270 reversed $106 $-1 #
face $-1 $-1 $271 $56 $-1 $272 forward single #
loop $-1 $273 $274 $108 #
cone-surface $-1 12.813223696554054 -21.805468925465359 2.9451645120617407 0 0.71933980857756763 -0.69465836192734942 0.5 0 0 1 I I -0.70710678118654746 0.70710678118654746 0.5 forward I I I I #
loop $-1 $-1 $275 $71 #
coedge $-1 $174 $174 $276 $277 reversed $109 $-1 #
face $-1 $278 $279 $57 $-1 $280 reversed single #
loop $-1 $-1 $281 $111 #
plane-surface $-1 34.166072702237933 -29.237182642113837 1.5187656113279502 0 -0.71933980857756763 0.69465836192734942 1 0 0 forward_v I I I I #
coedge $-1 $282 $283 $284 $285 reversed $112 $-1 #
face $-1 $-1 $286 $58 $-1 $287 forward single #
loop $-1 $288 $289 $114 #
cone-surface $-1 31.943983507903489 -21.805468925465359 2.9451645120617407 0 0.71933980857756763 -0.69465836192734942 0.5 0 0 1 I I -0.70710678118654746 0.70710678118654746 0.5 forward I I I I #
loop $-1 $-1 $290 $73 #
coedge $-1 $183 $183 $291 $292 reversed $115 $-1 #
face $-1 $-1 $293 $59 $-1 $294 forward single #
loop $-1 $295 $296 $117 #
cone-surface $-1 36.388161896572363 -21.805468925465359 2.9451645120617407 0 0.71933980857756763 -0.69465836192734942 0.5 0 0 1 I I -0.70710678118654746 0.70710678118654746 0.5 forward I I I I #
loop $-1 $-1 $297 $74 #
coedge $-1 $188 $188 $298 $299 reversed $118 $-1 #
face $-1 $300 $301 $45 $-1 $302 reversed single #
loop $-1 $-1 $303 $120 #
plane-surface $-1 0 -29.237182642113837 0 0 1 0 0 0 1 forward_v I I I I #
coedge $-1 $304 $305 $306 $307 forward $121 $-1 #
coedge $-1 $308 $123 $309 $310 forward $76 $-1 #
coedge $-1 $123 $308 $311 $312 forward $76 $-1 #
coedge $-1 $313 $314 $123 $196 reversed $315 $-1 #
edge $-1 $316 -29.237182642113837 $317 29.237182642113837 $195 $318 forward 7 unknown #
face $-1 $319 $320 $46 $-1 $321 reversed single #
loop $-1 $-1 $322 $124 #
plane-surface $-1 22.510206896165847 60.188569798916419 111.60839647551609 -1 0 0 0 0.74314483375859142 0.66913059716165679 forward_v I I I I #
coedge $-1 $323 $324 $325 $326 reversed $125 $-1 #
coedge $-1 $202 $127 $327 $328 reversed $79 $-1 #
coedge $-1 $127 $201 $323 $329 reversed $79 $-1 #
coedge $-1 $325 $330 $127 $204 forward $331 $-1 #
edge $-1 $332 0.85710225734437273 $333 5.6900276491709079 $203 $334 forward 7 unknown #
loop $-1 $-1 $210 $128 #
plane-surface $-1 13.907480492844854 -9.8898043191702811 48.509546572206453 0 0.74314483375859142 0.66913059716165679 1 0 0 forward_v I I I I #
loop $-1 $-1 $335 $81 #
coedge $-1 $208 $208 $209 $336 reversed $129 $-1 #
coedge $-1 $209 $209 $208 $336 forward $131 $-1 #
coedge $-1 $210 $210 $132 $211 forward $205 $-1 #
edge $-1 $337 -3.1660835977918846e-015 $337 6.2831853071795969 $210 $338 forward 7 unknown #
face $-1 $339 $340 $48 $-1 $341 reversed single #
loop $-1 $-1 $342 $133 #
plane-surface $-1 -41.743616684597356 -97.07074877023048 67.024877421580811 1 0 0 0 0.71933980857756763 -0.69465836192734942 forward_v I I I I #
coedge $-1 $343 $344 $345 $346 reversed $134 $-1 #
coedge $-1 $217 $136 $347 $348 reversed $85 $-1 #
coedge $-1 $136 $216 $343 $349 reversed $85 $-1 #
coedge $-1 $345 $350 $136 $219 forward $351 $-1 #
edge $-1 $352 19.298191743001404 $353 27.896072191005814 $218 $354 forward 7 unknown #
loop $-1 $-1 $225 $137 #
plane-surface $-1 -36.558741897817001 -29.237182642113837 1.5187656113279502 0 -0.71933980857756763 0.69465836192734942 1 0 0 forward_v I I I I #
loop $-1 $-1 $355 $87 #
coedge $-1 $223 $223 $224 $356 reversed $138 $-1 #
coedge $-1 $224 $224 $223 $356 forward $140 $-1 #
coedge $-1 $225 $225 $141 $226 forward $220 $-1 #
edge $-1 $357 5.5121598128299967e-016 $357 6.2831853071796013 $225 $358 forward 7 unknown #
loop $-1 $-1 $232 $142 #
plane-surface $-1 -36.558741897817001 -29.237182642113837 1.5187656113279502 0 -0.71933980857756763 0.69465836192734942 1 0 0 forward_v I I I I #
loop $-1 $-1 $359 $90 #
coedge $-1 $230 $230 $231 $360 reversed $143 $-1 #
coedge $-1 $231 $231 $230 $360 forward $145 $-1 #
coedge $-1 $232 $232 $146 $233 forward $227 $-1 #
edge $-1 $361 5.5121598128299967e-016 $361 6.2831853071796013 $232 $362 forward 7 unknown #
face $-1 $363 $364 $51 $-1 $365 reversed single #
loop $-1 $-1 $366 $147 #
plane-surface $-1 -18.168678484579051 -97.07074877023048 67.024877421580811 1 0 0 0 0.71933980857756763 -0.69465836192734942 forward_v I I I I #
coedge $-1 $367 $368 $369 $370 reversed $148 $-1 #
coedge $-1 $239 $150 $371 $372 reversed $94 $-1 #
coedge $-1 $150 $238 $367 $373 reversed $94 $-1 #
coedge $-1 $369 $374 $150 $241 forward $375 $-1 #
edge $-1 $376 19.298191743001404 $377 27.896072191005814 $240 $378 forward 7 unknown #
loop $-1 $-1 $247 $151 #
plane-surface $-1 -12.983803697798692 -29.237182642113837 1.5187656113279502 0 -0.71933980857756763 0.69465836192734942 1 0 0 forward_v I I I I #
loop $-1 $-1 $379 $96 #
coedge $-1 $245 $245 $246 $380 reversed $152 $-1 #
coedge $-1 $246 $246 $245 $380 forward $154 $-1 #
coedge $-1 $247 $247 $155 $248 forward $242 $-1 #
edge $-1 $381 5.5121598128299967e-016 $381 6.2831853071796013 $247 $382 forward 7 unknown #
loop $-1 $-1 $254 $156 #
plane-surface $-1 -12.983803697798692 -29.237182642113837 1.5187656113279502 0 -0.71933980857756763 0.69465836192734942 1 0 0 forward_v I I I I #
loop $-1 $-1 $383 $99 #
coedge $-1 $252 $252 $253 $384 reversed $157 $-1 #
coedge $-1 $253 $253 $252 $384 forward $159 $-1 #
coedge $-1 $254 $254 $160 $255 forward $249 $-1 #
edge $-1 $385 5.5121598128299967e-016 $385 6.2831853071796013 $254 $386 forward 7 unknown #
face $-1 $387 $388 $54 $-1 $389 reversed single #
loop $-1 $-1 $390 $161 #
plane-surface $-1 5.4062597154392664 -97.07074877023048 67.024877421580811 1 0 0 0 0.71933980857756763 -0.69465836192734942 forward_v I I I I #
coedge $-1 $391 $392 $393 $394 reversed $162 $-1 #
coedge $-1 $261 $164 $395 $396 reversed $103 $-1 #
coedge $-1 $164 $260 $391 $397 reversed $103 $-1 #
coedge $-1 $393 $398 $164 $263 forward $399 $-1 #
edge $-1 $400 19.298191743001404 $401 27.896072191005814 $262 $402 forward 7 unknown #
loop $-1 $-1 $269 $165 #
plane-surface $-1 10.591134502219624 -29.237182642113837 1.5187656113279502 0 -0.71933980857756763 0.69465836192734942 1 0 0 forward_v I I I I #
loop $-1 $-1 $403 $105 #
coedge $-1 $267 $267 $268 $404 reversed $166 $-1 #
coedge $-1 $268 $268 $267 $404 forward $168 $-1 #
coedge $-1 $269 $269 $169 $270 forward $264 $-1 #
edge $-1 $405 5.5121598128299967e-016 $405 6.2831853071796013 $269 $406 forward 7 unknown #
loop $-1 $-1 $276 $170 #
plane-surface $-1 10.591134502219624 -29.237182642113837 1.5187656113279502 0 -0.71933980857756763 0.69465836192734942 1 0 0 forward_v I I I I #
loop $-1 $-1 $407 $108 #
coedge $-1 $274 $274 $275 $408 reversed $171 $-1 #
coedge $-1 $275 $275 $274 $408 forward $173 $-1 #
coedge $-1 $276 $276 $174 $277 forward $271 $-1 #
edge $-1 $409 5.5121598128299967e-016 $409 6.2831853071796013 $276 $410 forward 7 unknown #
face $-1 $411 $412 $57 $-1 $413 reversed single #
loop $-1 $-1 $414 $175 #
plane-surface $-1 28.981197915457575 -97.07074877023048 67.024877421580811 1 0 0 0 0.71933980857756763 -0.69465836192734942 forward_v I I I I #
coedge $-1 $415 $416 $417 $418 reversed $176 $-1 #
coedge $-1 $283 $178 $419 $420 reversed $112 $-1 #
coedge $-1 $178 $282 $415 $421 reversed $112 $-1 #
coedge $-1 $417 $422 $178 $285 forward $423 $-1 #
edge $-1 $424 19.298191743001404 $425 27.896072191005814 $284 $426 forward 7 unknown #
loop $-1 $-1 $291 $179 #
plane-surface $-1 34.166072702237933 -29.237182642113837 1.5187656113279502 0 -0.71933980857756763 0.69465836192734942 1 0 0 forward_v I I I I #
loop $-1 $-1 $427 $114 #
coedge $-1 $289 $289 $290 $428 reversed $180 $-1 #
coedge $-1 $290 $290 $289 $428 forward $182 $-1 #
coedge $-1 $291 $291 $183 $292 forward $286 $-1 #
edge $-1 $429 5.5121598128299967e-016 $429 6.2831853071796013 $291 $430 forward 7 unknown #
loop $-1 $-1 $298 $184 #
plane-surface $-1 34.166072702237933 -29.237182642113837 1.5187656113279502 0 -0.71933980857756763 0.69465836192734942 1 0 0 forward_v I I I I #
loop $-1 $-1 $431 $117 #
coedge $-1 $296 $296 $297 $432 reversed $185 $-1 #
coedge $-1 $297 $297 $296 $432 forward $187 $-1 #
coedge $-1 $298 $298 $188 $299 forward $293 $-1 #
edge $-1 $433 5.5121598128299967e-016 $433 6.2831853071796013 $298 $434 forward 7 unknown #
face $-1 $435 $436 $45 $-1 $437 reversed single #
loop $-1 $-1 $438 $189 #
plane-surface $-1 -47.149876400036625 0 0 1 0 0 0 0 -1 forward_v I I I I #
coedge $-1 $439 $311 $440 $441 forward $190 $-1 #
coedge $-1 $442 $192 $439 $443 forward $121 $-1 #
coedge $-1 $192 $442 $444 $445 forward $121 $-1 #
coedge $-1 $314 $313 $192 $307 reversed $315 $-1 #
edge $-1 $446 -29.237182642113837 $447 29.237182642113837 $306 $448 forward 7 unknown #
coedge $-1 $194 $193 $449 $450 forward $76 $-1 #
coedge $-1 $451 $452 $193 $310 reversed $436 $-1 #
edge $-1 $317 -47.149876400036625 $453 47.149876400036625 $309 $454 forward 7 unknown #
coedge $-1 $303 $455 $194 $312 reversed $190 $-1 #
edge $-1 $456 -47.149876400036625 $316 47.149876400036625 $311 $457 forward 7 unknown #
coedge $-1 $306 $195 $455 $458 forward $315 $-1 #
coedge $-1 $195 $306 $451 $459 reversed $315 $-1 #
loop $-1 $-1 $313 $435 #
vertex $-1 $196 $460 #
vertex $-1 $196 $461 #
straight-curve $-1 47.149876400036625 0 10.422131660907208 0 1 0 I I #
face $-1 $-1 $331 $46 $-1 $462 forward single #
loop $-1 $-1 $463 $197 #
plane-surface $-1 0 29.237182642113837 0 0 -1 0 0 0 -1 forward_v I I I I #
coedge $-1 $464 $465 $466 $467 reversed $198 $-1 #
coedge $-1 $468 $200 $202 $329 forward $125 $-1 #
coedge $-1 $200 $468 $464 $469 forward $125 $-1 #
coedge $-1 $466 $203 $200 $326 forward $331 $-1 #
edge $-1 $333 -1.648986156898566 $470 15.55646664974342 $325 $471 forward 7 unknown #
coedge $-1 $472 $473 $201 $328 forward $320 $-1 #
edge $-1 $474 -50.749574133838117 $332 -45.382066576850832 $327 $475 forward 7 unknown #
edge $-1 $333 51.251671519621752 $474 58.474365284227673 $202 $476 forward 7 unknown #
coedge $-1 $203 $466 $472 $477 forward $331 $-1 #
loop $-1 $-1 $466 $319 #
vertex $-1 $328 $478 #
vertex $-1 $204 $479 #
straight-curve $-1 5.3047540895238612 30.094284899458209 10.422131660907212 0 -1 0 I I #
coedge $-1 $335 $335 $-1 $480 reversed $207 $-1 #
edge $-1 $481 0 $481 6.2831853071796004 $208 $482 forward 7 unknown #
vertex $-1 $211 $483 #
ellipse-curve $-1 13.907480492844854 26.820719946200569 7.7383778824135714 0 0.74314483375859142 0.66913059716165679 0.5 0 0 1 I I #
face $-1 $-1 $351 $48 $-1 $484 forward single #
loop $-1 $-1 $485 $212 #
plane-surface $-1 0 -29.237182642113837 0 0 1 0 0 0 1 forward_v I I I I #
coedge $-1 $486 $487 $488 $489 reversed $213 $-1 #
coedge $-1 $490 $215 $217 $349 forward $134 $-1 #
coedge $-1 $215 $490 $486 $491 forward $134 $-1 #
coedge $-1 $488 $218 $215 $346 forward $351 $-1 #
edge $-1 $353 13.094496162128141 $492 23.464245735688856 $345 $493 forward 7 unknown #
coedge $-1 $494 $495 $216 $348 forward $340 $-1 #
edge $-1 $496 -31.993673099462455 $352 -23.090307049883197 $347 $497 forward 7 unknown #
edge $-1 $353 -12.377135177858287 $496 0 $217 $498 forward 7 unknown #
coedge $-1 $218 $488 $494 $499 forward $351 $-1 #
loop $-1 $-1 $488 $339 #
vertex $-1 $348 $500 #
vertex $-1 $219 $501 #
straight-curve $-1 -31.373867111036642 -48.53537438511524 10.422131660907208 0 1 0 I I #
coedge $-1 $355 $355 $-1 $502 reversed $222 $-1 #
edge $-1 $503 0 $503 6.2831853071796004 $223 $504 forward 7 unknown #
vertex $-1 $226 $505 #
ellipse-curve $-1 -38.780831092151445 -24.938242418111631 5.9704486361175801 0 -0.71933980857756763 0.69465836192734942 1 0 0 1 I I #
coedge $-1 $359 $359 $-1 $506 reversed $229 $-1 #
edge $-1 $507 0 $507 6.2831853071796004 $230 $508 forward 7 unknown #
vertex $-1 $233 $509 #
ellipse-curve $-1 -34.336652703482564 -24.938242418111631 5.9704486361175801 0 -0.71933980857756763 0.69465836192734942 1 0 0 1 I I #
face $-1 $-1 $375 $51 $-1 $510 forward single #
loop $-1 $-1 $511 $234 #
plane-surface $-1 0 -29.237182642113837 0 0 1 0 0 0 1 forward_v I I I I #
coedge $-1 $512 $513 $514 $515 reversed $235 $-1 #
coedge $-1 $516 $237 $239 $373 forward $148 $-1 #
coedge $-1 $237 $516 $512 $517 forward $148 $-1 #
coedge $-1 $514 $240 $237 $370 forward $375 $-1 #
edge $-1 $377 1.3070270621189879 $518 11.676776635679705 $369 $519 forward 7 unknown #
coedge $-1 $520 $521 $238 $372 forward $364 $-1 #
edge $-1 $522 -31.993673099462455 $376 -23.090307049883197 $371 $523 forward 7 unknown #
edge $-1 $377 -12.377135177858287 $522 0 $239 $524 forward 7 unknown #
coedge $-1 $240 $514 $520 $525 forward $375 $-1 #
loop $-1 $-1 $514 $363 #
vertex $-1 $372 $526 #
vertex $-1 $241 $527 #
straight-curve $-1 -7.7989289110183337 -48.53537438511524 10.422131660907208 0 1 0 I I #
coedge $-1 $379 $379 $-1 $528 reversed $244 $-1 #
edge $-1 $529 0 $529 6.2831853071796004 $245 $530 forward 7 unknown #
vertex $-1 $248 $531 #
ellipse-curve $-1 -15.205892892133129 -24.938242418111631 5.9704486361175801 0 -0.71933980857756763 0.69465836192734942 1 0 0 1 I I #
coedge $-1 $383 $383 $-1 $532 reversed $251 $-1 #
edge $-1 $533 0 $533 6.2831853071796004 $252 $534 forward 7 unknown #
vertex $-1 $255 $535 #
ellipse-curve $-1 -10.761714503464255 -24.938242418111631 5.9704486361175801 0 -0.71933980857756763 0.69465836192734942 1 0 0 1 I I #
face $-1 $-1 $399 $54 $-1 $536 forward single #
loop $-1 $-1 $537 $256 #
plane-surface $-1 0 -29.237182642113837 0 0 1 0 0 0 1 forward_v I I I I #
coedge $-1 $538 $539 $540 $541 reversed $257 $-1 #
coedge $-1 $542 $259 $261 $397 forward $162 $-1 #
coedge $-1 $259 $542 $538 $543 forward $162 $-1 #
coedge $-1 $540 $262 $259 $394 forward $399 $-1 #
edge $-1 $401 -10.480442037890171 $544 -0.11069246432945423 $393 $545 forward 7 unknown #
coedge $-1 $546 $547 $260 $396 forward $388 $-1 #
edge $-1 $548 -31.993673099462455 $400 -23.090307049883197 $395 $549 forward 7 unknown #
edge $-1 $401 -12.377135177858287 $548 0 $261 $550 forward 7 unknown #
coedge $-1 $262 $540 $546 $551 forward $399 $-1 #
loop $-1 $-1 $540 $387 #
vertex $-1 $396 $552 #
vertex $-1 $263 $553 #
straight-curve $-1 15.776009288999983 -48.53537438511524 10.422131660907208 0 1 0 I I #
coedge $-1 $403 $403 $-1 $554 reversed $266 $-1 #
edge $-1 $555 0 $555 6.2831853071796004 $267 $556 forward 7 unknown #
vertex $-1 $270 $557 #
ellipse-curve $-1 8.3690453078851803 -24.938242418111631 5.9704486361175801 0 -0.71933980857756763 0.69465836192734942 1 0 0 1 I I #
coedge $-1 $407 $407 $-1 $558 reversed $273 $-1 #
edge $-1 $559 0 $559 6.2831853071796004 $274 $560 forward 7 unknown #
vertex $-1 $277 $561 #
ellipse-curve $-1 12.813223696554054 -24.938242418111631 5.9704486361175801 0 -0.71933980857756763 0.69465836192734942 1 0 0 1 I I #
face $-1 $-1 $423 $57 $-1 $562 forward single #
loop $-1 $-1 $563 $278 #
plane-surface $-1 0 -29.237182642113837 0 0 1 0 0 0 1 forward_v I I I I #
coedge $-1 $564 $565 $566 $567 reversed $279 $-1 #
coedge $-1 $568 $281 $283 $421 forward $176 $-1 #
coedge $-1 $281 $568 $564 $569 forward $176 $-1 #
coedge $-1 $566 $284 $281 $418 forward $423 $-1 #
edge $-1 $425 -22.267911137899322 $570 -11.898161564338608 $417 $571 forward 7 unknown #
coedge $-1 $572 $573 $282 $420 forward $412 $-1 #
edge $-1 $574 -31.993673099462455 $424 -23.090307049883197 $419 $575 forward 7 unknown #
edge $-1 $425 -12.377135177858287 $574 0 $283 $576 forward 7 unknown #
coedge $-1 $284 $566 $572 $577 forward $423 $-1 #
loop $-1 $-1 $566 $411 #
vertex $-1 $420 $578 #
vertex $-1 $285 $579 #
straight-curve $-1 39.350947489018289 -48.53537438511524 10.422131660907208 0 1 0 I I #
coedge $-1 $427 $427 $-1 $580 reversed $288 $-1 #
edge $-1 $581 0 $581 6.2831853071796004 $289 $582 forward 7 unknown #
vertex $-1 $292 $583 #
ellipse-curve $-1 31.943983507903489 -24.938242418111631 5.9704486361175801 0 -0.71933980857756763 0.69465836192734942 1 0 0 1 I I #
coedge $-1 $431 $431 $-1 $584 reversed $295 $-1 #
edge $-1 $585 0 $585 6.2831853071796004 $296 $586 forward 7 unknown #
vertex $-1 $299 $587 #
ellipse-curve $-1 36.388161896572363 -24.938242418111631 5.9704486361175801 0 -0.71933980857756763 0.69465836192734942 1 0 0 1 I I #
face $-1 $-1 $315 $45 $-1 $588 reversed single #
loop $-1 $-1 $451 $300 #
plane-surface $-1 0 29.237182642113837 0 0 -1 0 0 0 -1 forward_v I I I I #
coedge $-1 $589 $449 $452 $590 forward $301 $-1 #
coedge $-1 $455 $303 $304 $443 reversed $190 $-1 #
coedge $-1 $449 $589 $303 $441 reversed $301 $-1 #
edge $-1 $456 -10.422131660907208 $591 10.422131660907208 $440 $592 forward 7 unknown #
coedge $-1 $305 $304 $589 $593 forward $121 $-1 #
edge $-1 $447 -47.149876400036625 $591 47.149876400036625 $439 $594 forward 7 unknown #
coedge $-1 $452 $451 $305 $445 reversed $436 $-1 #
edge $-1 $595 -47.149876400036625 $446 47.149876400036625 $444 $596 forward 7 unknown #
vertex $-1 $307 $597 #
vertex $-1 $458 $598 #
straight-curve $-1 47.149876400036625 0 -10.422131660907208 0 -1 0 I I #
coedge $-1 $438 $440 $308 $450 reversed $301 $-1 #
edge $-1 $453 -29.237182642113837 $456 29.237182642113837 $449 $599 forward 7 unknown #
coedge $-1 $444 $309 $314 $459 forward $436 $-1 #
coedge $-1 $309 $444 $438 $590 reversed $436 $-1 #
vertex $-1 $310 $600 #
straight-curve $-1 0 29.237182642113837 10.422131660907208 -1 0 0 I I #
coedge $-1 $311 $439 $313 $458 reversed $190 $-1 #
vertex $-1 $450 $601 #
straight-curve $-1 0 -29.237182642113837 10.422131660907208 1 0 0 I I #
edge $-1 $316 -10.422131660907208 $447 10.422131660907208 $313 $602 forward 7 unknown #
edge $-1 $317 -10.422131660907208 $446 10.422131660907208 $314 $603 forward 7 unknown #
point $-1 47.149876400036625 -29.237182642113837 10.422131660907208 #
point $-1 47.149876400036625 29.237182642113837 10.422131660907208 #
plane-surface $-1 0 0 10.422131660907208 0 0 1 1 0 0 forward_v I I I I #
coedge $-1 $473 $472 $465 $604 forward $320 $-1 #
coedge $-1 $465 $322 $324 $469 reversed $198 $-1 #
coedge $-1 $322 $464 $463 $604 reversed $198 $-1 #
coedge $-1 $330 $325 $322 $467 forward $331 $-1 #
edge $-1 $470 -5.6900276491709079 $605 -0.85710225734437273 $466 $606 forward 7 unknown #
coedge $-1 $324 $323 $473 $607 reversed $125 $-1 #
edge $-1 $608 -58.474365284227673 $470 -51.251671519621752 $464 $609 forward 7 unknown #
vertex $-1 $326 $610 #
straight-curve $-1 6.9537402464224272 24.404257250287301 10.422131660907208 1 0 0 I I #
coedge $-1 $463 $327 $330 $477 reversed $320 $-1 #
coedge $-1 $327 $463 $468 $607 forward $320 $-1 #
vertex $-1 $328 $611 #
straight-curve $-1 5.3047540895238612 29.237182642113837 55.804198237758044 0 0 1 I I #
straight-curve $-1 5.3047540895238612 -9.8898043191702811 48.509546572206453 0 0.66913059716165679 -0.74314483375859142 I I #
edge $-1 $605 -22.510206896165847 $332 -5.3047540895238612 $472 $612 forward 7 unknown #
point $-1 5.3047540895238612 29.237182642113837 10.422131660907208 #
point $-1 5.3047540895238612 24.404257250287301 10.422131660907205 #
edge $-1 $613 1 $613 0 $335 $-1 forward 7 unknown #
vertex $-1 $336 $614 #
ellipse-curve $-1 13.907480492844854 25.86564491135378 6.8784244798325327 0 0.74314483375859142 0.66913059716165679 0.5 0 0 1 I I #
point $-1 14.407480492844854 26.820719946200573 7.7383778824135767 #
plane-surface $-1 0 0 10.422131660907208 0 0 1 1 0 0 forward_v I I I I #
coedge $-1 $495 $494 $487 $615 forward $340 $-1 #
coedge $-1 $487 $342 $344 $491 reversed $213 $-1 #
coedge $-1 $342 $486 $485 $615 reversed $213 $-1 #
coedge $-1 $350 $345 $342 $489 forward $351 $-1 #
edge $-1 $492 -27.896072191005814 $616 -19.298191743001404 $488 $617 forward 7 unknown #
coedge $-1 $344 $343 $495 $618 reversed $134 $-1 #
edge $-1 $619 0 $492 12.377135177858287 $486 $620 forward 7 unknown #
vertex $-1 $346 $621 #
straight-curve $-1 -18.2793709489085 -20.639302194109426 10.422131660907208 -1 0 0 I I #
coedge $-1 $485 $347 $350 $499 reversed $340 $-1 #
coedge $-1 $347 $485 $490 $618 forward $340 $-1 #
vertex $-1 $348 $622 #
straight-curve $-1 -31.373867111036642 -29.237182642113837 33.512438710790406 0 0 1 I I #
straight-curve $-1 -31.373867111036642 -29.237182642113837 1.5187656113279502 0 -0.69465836192734942 -0.71933980857756763 I I #
edge $-1 $616 -41.743616684597356 $352 -31.373867111036642 $494 $623 forward 7 unknown #
point $-1 -31.373867111036642 -29.237182642113837 10.422131660907208 #
point $-1 -31.373867111036642 -20.639302194109426 10.422131660907208 #
edge $-1 $624 1 $624 0 $355 $-1 forward 7 unknown #
vertex $-1 $356 $625 #
ellipse-curve $-1 -38.780831092151445 -22.165138829754142 3.2924936930254152 0 -0.71933980857756763 0.69465836192734942 1 0 0 1 I I #
point $-1 -37.780831092151445 -24.938242418111628 5.9704486361175775 #
edge $-1 $626 1 $626 0 $359 $-1 forward 7 unknown #
vertex $-1 $360 $627 #
ellipse-curve $-1 -34.336652703482564 -22.165138829754142 3.2924936930254152 0 -0.71933980857756763 0.69465836192734942 1 0 0 1 I I #
point $-1 -33.336652703482564 -24.938242418111628 5.9704486361175775 #
plane-surface $-1 0 0 10.422131660907208 0 0 1 1 0 0 forward_v I I I I #
coedge $-1 $521 $520 $513 $628 forward $364 $-1 #
coedge $-1 $513 $366 $368 $517 reversed $235 $-1 #
coedge $-1 $366 $512 $511 $628 reversed $235 $-1 #
coedge $-1 $374 $369 $366 $515 forward $375 $-1 #
edge $-1 $518 -27.896072191005814 $629 -19.298191743001404 $514 $630 forward 7 unknown #
coedge $-1 $368 $367 $521 $631 reversed $148 $-1 #
edge $-1 $632 0 $518 12.377135177858287 $512 $633 forward 7 unknown #
vertex $-1 $370 $634 #
straight-curve $-1 -6.4919018488993459 -20.639302194109426 10.422131660907208 -1 0 0 I I #
coedge $-1 $511 $371 $374 $525 reversed $364 $-1 #
coedge $-1 $371 $511 $516 $631 forward $364 $-1 #
vertex $-1 $372 $635 #
straight-curve $-1 -7.7989289110183337 -29.237182642113837 33.512438710790406 0 0 1 I I #
straight-curve $-1 -7.7989289110183337 -29.237182642113837 1.5187656113279502 0 -0.69465836192734942 -0.71933980857756763 I I #
edge $-1 $629 -18.168678484579051 $376 -7.7989289110183337 $520 $636 forward 7 unknown #
point $-1 -7.7989289110183337 -29.237182642113837 10.422131660907208 #
point $-1 -7.7989289110183337 -20.639302194109426 10.422131660907208 #
edge $-1 $637 1 $637 0 $379 $-1 forward 7 unknown #
vertex $-1 $380 $638 #
ellipse-curve $-1 -15.205892892133129 -22.165138829754142 3.2924936930254152 0 -0.71933980857756763 0.69465836192734942 1 0 0 1 I I #
point $-1 -14.205892892133129 -24.938242418111628 5.9704486361175775 #
edge $-1 $639 1 $639 0 $383 $-1 forward 7 unknown #
vertex $-1 $384 $640 #
ellipse-curve $-1 -10.761714503464255 -22.165138829754142 3.2924936930254152 0 -0.71933980857756763 0.69465836192734942 1 0 0 1 I I #
point $-1 -9.7617145034642547 -24.938242418111628 5.9704486361175775 #
plane-surface $-1 0 0 10.422131660907208 0 0 1 1 0 0 forward_v I I I I #
coedge $-1 $547 $546 $539 $641 forward $388 $-1 #
coedge $-1 $539 $390 $392 $543 reversed $257 $-1 #
coedge $-1 $390 $538 $537 $641 reversed $257 $-1 #
coedge $-1 $398 $393 $390 $541 forward $399 $-1 #
edge $-1 $544 -27.896072191005814 $642 -19.298191743001404 $540 $643 forward 7 unknown #
coedge $-1 $392 $391 $547 $644 reversed $162 $-1 #
edge $-1 $645 0 $544 12.377135177858287 $538 $646 forward 7 unknown #
vertex $-1 $394 $647 #
straight-curve $-1 5.2955672511098122 -20.639302194109426 10.422131660907208 -1 0 0 I I #
coedge $-1 $537 $395 $398 $551 reversed $388 $-1 #
coedge $-1 $395 $537 $542 $644 forward $388 $-1 #
vertex $-1 $396 $648 #
straight-curve $-1 15.776009288999983 -29.237182642113837 33.512438710790406 0 0 1 I I #
straight-curve $-1 15.776009288999983 -29.237182642113837 1.5187656113279502 0 -0.69465836192734942 -0.71933980857756763 I I #
edge $-1 $642 5.4062597154392664 $400 15.776009288999983 $546 $649 forward 7 unknown #
point $-1 15.776009288999983 -29.237182642113837 10.422131660907208 #
point $-1 15.776009288999983 -20.639302194109426 10.422131660907208 #
edge $-1 $650 1 $650 0 $403 $-1 forward 7 unknown #
vertex $-1 $404 $651 #
ellipse-curve $-1 8.3690453078851803 -22.165138829754142 3.2924936930254152 0 -0.71933980857756763 0.69465836192734942 1 0 0 1 I I #
point $-1 9.3690453078851803 -24.938242418111628 5.9704486361175775 #
edge $-1 $652 1 $652 0 $407 $-1 forward 7 unknown #
vertex $-1 $408 $653 #
ellipse-curve $-1 12.813223696554054 -22.165138829754142 3.2924936930254152 0 -0.71933980857756763 0.69465836192734942 1 0 0 1 I I #
point $-1 13.813223696554054 -24.938242418111628 5.9704486361175775 #
plane-surface $-1 0 0 10.422131660907208 0 0 1 1 0 0 forward_v I I I I #
coedge $-1 $573 $572 $565 $654 forward $412 $-1 #
coedge $-1 $565 $414 $416 $569 reversed $279 $-1 #
coedge $-1 $414 $564 $563 $654 reversed $279 $-1 #
coedge $-1 $422 $417 $414 $567 forward $423 $-1 #
edge $-1 $570 -27.896072191005814 $655 -19.298191743001404 $566 $656 forward 7 unknown #
coedge $-1 $416 $415 $573 $657 reversed $176 $-1 #
edge $-1 $658 0 $570 12.377135177858287 $564 $659 forward 7 unknown #
vertex $-1 $418 $660 #
straight-curve $-1 17.083036351118967 -20.639302194109426 10.422131660907208 -1 0 0 I I #
coedge $-1 $563 $419 $422 $577 reversed $412 $-1 #
coedge $-1 $419 $563 $568 $657 forward $412 $-1 #
vertex $-1 $420 $661 #
straight-curve $-1 39.350947489018289 -29.237182642113837 33.512438710790406 0 0 1 I I #
straight-curve $-1 39.350947489018289 -29.237182642113837 1.5187656113279502 0 -0.69465836192734942 -0.71933980857756763 I I #
edge $-1 $655 28.981197915457575 $424 39.350947489018289 $572 $662 forward 7 unknown #
point $-1 39.350947489018289 -29.237182642113837 10.422131660907208 #
point $-1 39.350947489018289 -20.639302194109426 10.422131660907208 #
edge $-1 $663 1 $663 0 $427 $-1 forward 7 unknown #
vertex $-1 $428 $664 #
ellipse-curve $-1 31.943983507903489 -22.165138829754142 3.2924936930254152 0 -0.71933980857756763 0.69465836192734942 1 0 0 1 I I #
point $-1 32.943983507903489 -24.938242418111628 5.9704486361175775 #
edge $-1 $665 1 $665 0 $431 $-1 forward 7 unknown #
vertex $-1 $432 $666 #
ellipse-curve $-1 36.388161896572363 -22.165138829754142 3.2924936930254152 0 -0.71933980857756763 0.69465836192734942 1 0 0 1 I I #
point $-1 37.388161896572363 -24.938242418111628 5.9704486361175775 #
plane-surface $-1 47.149876400036625 0 0 -1 0 0 0 0 1 forward_v I I I I #
coedge $-1 $440 $438 $442 $593 reversed $301 $-1 #
edge $-1 $453 -10.422131660907208 $595 10.422131660907208 $452 $667 forward 7 unknown #
vertex $-1 $593 $668 #
straight-curve $-1 -47.149876400036625 -29.237182642113837 0 0 0 -1 I I #
edge $-1 $591 -29.237182642113837 $595 29.237182642113837 $589 $669 forward 7 unknown #
straight-curve $-1 0 -29.237182642113837 -10.422131660907208 -1 0 0 I I #
vertex $-1 $445 $670 #
straight-curve $-1 0 29.237182642113837 -10.422131660907208 1 0 0 I I #
point $-1 47.149876400036625 29.237182642113837 -10.422131660907208 #
point $-1 47.149876400036625 -29.237182642113837 -10.422131660907208 #
straight-curve $-1 -47.149876400036625 0 10.422131660907208 0 -1 0 I I #
point $-1 -47.149876400036625 29.237182642113837 10.422131660907208 #
point $-1 -47.149876400036625 -29.237182642113837 10.422131660907208 #
straight-curve $-1 47.149876400036625 -29.237182642113837 0 0 0 -1 I I #
straight-curve $-1 47.149876400036625 29.237182642113837 0 0 0 -1 I I #
edge $-1 $605 45.382066576850832 $608 50.749574133838117 $463 $671 forward 7 unknown #
vertex $-1 $477 $672 #
straight-curve $-1 22.510206896165847 30.094284899458209 10.422131660907212 0 1 0 I I #
edge $-1 $608 -15.55646664974342 $474 1.648986156898566 $473 $673 forward 7 unknown #
vertex $-1 $607 $674 #
straight-curve $-1 22.510206896165847 -9.8898043191702811 48.509546572206453 0 -0.66913059716165679 0.74314483375859142 I I #
point $-1 22.510206896165847 24.404257250287301 10.422131660907205 #
point $-1 5.3047540895238612 29.237182642113837 5.0546241039199273 #
straight-curve $-1 0 29.237182642113837 10.422131660907208 -1 0 0 I I #
vertex $-1 $480 $675 #
point $-1 14.407480492844854 25.86564491135378 6.8784244798325327 #
edge $-1 $616 23.090307049883197 $619 31.993673099462455 $485 $676 forward 7 unknown #
vertex $-1 $499 $677 #
straight-curve $-1 -41.743616684597356 -48.53537438511524 10.422131660907208 0 -1 0 I I #
edge $-1 $619 -23.464245735688856 $496 -13.094496162128141 $495 $678 forward 7 unknown #
vertex $-1 $618 $679 #
straight-curve $-1 -41.743616684597356 -29.237182642113837 1.5187656113279502 0 0.69465836192734942 0.71933980857756763 I I #
point $-1 -41.743616684597356 -20.639302194109426 10.422131660907208 #
point $-1 -31.373867111036642 -29.237182642113837 1.5187656113279502 #
straight-curve $-1 0 -29.237182642113837 10.422131660907208 1 0 0 I I #
vertex $-1 $502 $680 #
point $-1 -37.780831092151445 -22.165138829754142 3.2924936930254152 #
vertex $-1 $506 $681 #
point $-1 -33.336652703482564 -22.165138829754142 3.2924936930254152 #
edge $-1 $629 23.090307049883197 $632 31.993673099462455 $511 $682 forward 7 unknown #
vertex $-1 $525 $683 #
straight-curve $-1 -18.168678484579051 -48.53537438511524 10.422131660907208 0 -1 0 I I #
edge $-1 $632 -11.676776635679705 $522 -1.3070270621189879 $521 $684 forward 7 unknown #
vertex $-1 $631 $685 #
straight-curve $-1 -18.168678484579051 -29.237182642113837 1.5187656113279502 0 0.69465836192734942 0.71933980857756763 I I #
point $-1 -18.168678484579051 -20.639302194109426 10.422131660907208 #
point $-1 -7.7989289110183337 -29.237182642113837 1.5187656113279502 #
straight-curve $-1 0 -29.237182642113837 10.422131660907208 1 0 0 I I #
vertex $-1 $528 $686 #
point $-1 -14.205892892133129 -22.165138829754142 3.2924936930254152 #
vertex $-1 $532 $687 #
point $-1 -9.7617145034642547 -22.165138829754142 3.2924936930254152 #
edge $-1 $642 23.090307049883197 $645 31.993673099462455 $537 $688 forward 7 unknown #
vertex $-1 $551 $689 #
straight-curve $-1 5.4062597154392664 -48.53537438511524 10.422131660907208 0 -1 0 I I #
edge $-1 $645 0.11069246432945423 $548 10.480442037890171 $547 $690 forward 7 unknown #
vertex $-1 $644 $691 #
straight-curve $-1 5.4062597154392664 -29.237182642113837 1.5187656113279502 0 0.69465836192734942 0.71933980857756763 I I #
point $-1 5.4062597154392664 -20.639302194109426 10.422131660907208 #
point $-1 15.776009288999983 -29.237182642113837 1.5187656113279502 #
straight-curve $-1 0 -29.237182642113837 10.422131660907208 1 0 0 I I #
vertex $-1 $554 $692 #
point $-1 9.3690453078851803 -22.165138829754142 3.2924936930254152 #
vertex $-1 $558 $693 #
point $-1 13.813223696554054 -22.165138829754142 3.2924936930254152 #
edge $-1 $655 23.090307049883197 $658 31.993673099462455 $563 $694 forward 7 unknown #
vertex $-1 $577 $695 #
straight-curve $-1 28.981197915457575 -48.53537438511524 10.422131660907208 0 -1 0 I I #
edge $-1 $658 11.898161564338608 $574 22.267911137899322 $573 $696 forward 7 unknown #
vertex $-1 $657 $697 #
straight-curve $-1 28.981197915457575 -29.237182642113837 1.5187656113279502 0 0.69465836192734942 0.71933980857756763 I I #
point $-1 28.981197915457575 -20.639302194109426 10.422131660907208 #
point $-1 39.350947489018289 -29.237182642113837 1.5187656113279502 #
straight-curve $-1 0 -29.237182642113837 10.422131660907208 1 0 0 I I #
vertex $-1 $580 $698 #
point $-1 32.943983507903489 -22.165138829754142 3.2924936930254152 #
vertex $-1 $584 $699 #
point $-1 37.388161896572363 -22.165138829754142 3.2924936930254152 #
straight-curve $-1 -47.149876400036625 29.237182642113837 0 0 0 -1 I I #
point $-1 -47.149876400036625 -29.237182642113837 -10.422131660907208 #
straight-curve $-1 -47.149876400036625 0 -10.422131660907208 0 1 0 I I #
point $-1 -47.149876400036625 29.237182642113837 -10.422131660907208 #
straight-curve $-1 22.510206896165847 29.237182642113837 55.804198237758044 0 0 -1 I I #
point $-1 22.510206896165847 29.237182642113837 10.422131660907208 #
straight-curve $-1 6.9537402464224272 29.237182642113837 5.0546241039199238 -1 0 0 I I #
point $-1 22.510206896165847 29.237182642113837 5.0546241039199273 #
point $-1 13.907480492844854 25.494072494474484 6.5438591812517037 #
straight-curve $-1 -41.743616684597356 -29.237182642113837 33.512438710790406 0 0 -1 I I #
point $-1 -41.743616684597356 -29.237182642113837 10.422131660907208 #
straight-curve $-1 -18.2793709489085 -29.237182642113837 1.5187656113279506 1 0 0 I I #
point $-1 -41.743616684597356 -29.237182642113837 1.5187656113279502 #
point $-1 -38.780831092151445 -21.445799021176576 2.5978353310980662 #
point $-1 -34.336652703482564 -21.445799021176576 2.5978353310980662 #
straight-curve $-1 -18.168678484579051 -29.237182642113837 33.512438710790406 0 0 -1 I I #
point $-1 -18.168678484579051 -29.237182642113837 10.422131660907208 #
straight-curve $-1 -6.4919018488993459 -29.237182642113837 1.5187656113279506 1 0 0 I I #
point $-1 -18.168678484579051 -29.237182642113837 1.5187656113279502 #
point $-1 -15.205892892133129 -21.445799021176576 2.5978353310980662 #
point $-1 -10.761714503464255 -21.445799021176576 2.5978353310980662 #
straight-curve $-1 5.4062597154392664 -29.237182642113837 33.512438710790406 0 0 -1 I I #
point $-1 5.4062597154392664 -29.237182642113837 10.422131660907208 #
straight-curve $-1 5.2955672511098122 -29.237182642113837 1.5187656113279506 1 0 0 I I #
point $-1 5.4062597154392664 -29.237182642113837 1.5187656113279502 #
point $-1 8.3690453078851803 -21.445799021176576 2.5978353310980662 #
point $-1 12.813223696554054 -21.445799021176576 2.5978353310980662 #
straight-curve $-1 28.981197915457575 -29.237182642113837 33.512438710790406 0 0 -1 I I #
point $-1 28.981197915457575 -29.237182642113837 10.422131660907208 #
straight-curve $-1 17.083036351118967 -29.237182642113837 1.5187656113279506 1 0 0 I I #
point $-1 28.981197915457575 -29.237182642113837 1.5187656113279502 #
point $-1 31.943983507903489 -21.445799021176576 2.5978353310980662 #
point $-1 36.388161896572363 -21.445799021176576 2.5978353310980662 #
End-of-ACIS-data 