500 0 10 0           
7 Unknown 11 ACIS 5.0 NT 24 Fri Mar 26 02:53:13 1999 
-1 9.9999999999999995e-007 1e-010 
body $-1 $10 $-1 $11 #
body $-1 $12 $-1 $13 #
body $-1 $14 $-1 $15 #
body $-1 $16 $-1 $17 #
body $-1 $18 $-1 $19 #
body $-1 $20 $-1 $21 #
body $-1 $22 $-1 $23 #
body $-1 $24 $-1 $25 #
body $-1 $26 $-1 $27 #
body $-1 $28 $-1 $29 #
lump $-1 $-1 $30 $0 #
transform $-1 1 0 0 0 1 0 0 0 1 43.964964751121556 18.434908084293181 7.6980805025353298 1 rotate no_reflect no_shear #
lump $-1 $-1 $31 $1 #
transform $-1 1 0 0 0 1 0 0 0 1 43.964964751121556 18.434908084293181 7.6980805025353298 1 rotate no_reflect no_shear #
lump $-1 $-1 $32 $2 #
transform $-1 1 0 0 0 1 0 0 0 1 43.964964751121556 18.434908084293181 7.6980805025353298 1 rotate no_reflect no_shear #
lump $-1 $-1 $33 $3 #
transform $-1 1 0 0 0 1 0 0 0 1 43.964964751121556 18.434908084293181 7.6980805025353298 1 rotate no_reflect no_shear #
lump $-1 $-1 $34 $4 #
transform $-1 1 0 0 0 1 0 0 0 1 43.964964751121556 18.434908084293181 7.6980805025353298 1 rotate no_reflect no_shear #
lump $-1 $-1 $35 $5 #
transform $-1 1 0 0 0 1 0 0 0 1 43.964964751121556 18.434908084293181 7.6980805025353298 1 rotate no_reflect no_shear #
lump $-1 $-1 $36 $6 #
transform $-1 1 0 0 0 1 0 0 0 1 43.964964751121556 18.434908084293181 7.6980805025353298 1 rotate no_reflect no_shear #
lump $-1 $-1 $37 $7 #
transform $-1 1 0 0 0 1 0 0 0 1 43.964964751121556 18.434908084293181 7.6980805025353298 1 rotate no_reflect no_shear #
lump $-1 $-1 $38 $8 #
transform $-1 1 0 0 0 1 0 0 0 1 43.964964751121556 18.434908084293181 7.6980805025353298 1 rotate no_reflect no_shear #
lump $-1 $-1 $39 $9 #
transform $-1 1 0 0 0 1 0 0 0 1 43.964964751121556 18.434908084293181 7.6980805025353298 1 rotate no_reflect no_shear #
shell $-1 $-1 $-1 $40 $-1 $10 #
shell $-1 $-1 $-1 $41 $-1 $12 #
shell $-1 $-1 $-1 $42 $-1 $14 #
shell $-1 $-1 $-1 $43 $-1 $16 #
shell $-1 $-1 $-1 $44 $-1 $18 #
shell $-1 $-1 $-1 $45 $-1 $20 #
shell $-1 $-1 $-1 $46 $-1 $22 #
shell $-1 $-1 $-1 $47 $-1 $24 #
shell $-1 $-1 $-1 $48 $-1 $26 #
shell $-1 $-1 $-1 $49 $-1 $28 #
face $-1 $50 $51 $30 $-1 $52 forward single #
face $-1 $53 $54 $31 $-1 $55 reversed single #
face $-1 $56 $57 $32 $-1 $58 reversed single #
face $-1 $59 $60 $33 $-1 $61 forward single #
face $-1 $62 $63 $34 $-1 $64 forward single #
face $-1 $65 $66 $35 $-1 $67 reversed single #
face $-1 $68 $69 $36 $-1 $70 forward single #
face $-1 $71 $72 $37 $-1 $73 forward single #
face $-1 $74 $75 $38 $-1 $76 reversed single #
face $-1 $77 $78 $39 $-1 $79 forward single #
face $-1 $80 $81 $30 $-1 $82 reversed single #
loop $-1 $-1 $83 $40 #
plane-surface $-1 0 0 7.6980805025353298 0 0 1 1 0 0 forward_v I I I I #
face $-1 $84 $85 $31 $-1 $86 reversed single #
loop $-1 $-1 $87 $41 #
plane-surface $-1 -41.820182307449699 -9.6503426726955333 0 0 -1 0 0 0 -1 forward_v I I I I #
face $-1 $88 $89 $32 $-1 $90 reversed single #
loop $-1 $-1 $91 $42 #
plane-surface $-1 74.048365291150844 -3.2356087439524988 121.25294190203391 0 -1 0 -0.85716730853699208 0 -0.51503806187062418 forward_v I I I I #
face $-1 $92 $93 $33 $-1 $94 forward single #
loop $-1 $95 $96 $43 #
cone-surface $-1 41.326191019293809 -7.8175615501975226 3.8432364719422165 -0.85716730853699208 0 -0.51503806187062418 0.25751903093531209 0 -0.42858365426849604 1 I I 0 1 0.5 forward I I I I #
face $-1 $97 $98 $34 $-1 $99 forward single #
loop $-1 $100 $101 $44 #
cone-surface $-1 41.326191019293809 -5.0683898664505094 3.8432364719422165 -0.85716730853699208 0 -0.51503806187062418 0.25751903093531209 0 -0.42858365426849604 1 I I 0 1 0.5 forward I I I I #
face $-1 $102 $103 $35 $-1 $104 reversed single #
loop $-1 $-1 $105 $45 #
plane-surface $-1 74.048365291150844 12.020174155550148 121.25294190203391 0 1 0 0.85716730853699208 0 0.51503806187062418 forward_v I I I I #
face $-1 $106 $107 $36 $-1 $108 forward single #
loop $-1 $109 $110 $46 #
cone-surface $-1 41.326191019293809 13.85295527804816 3.8432364719422165 -0.85716730853699208 0 -0.51503806187062418 0.25751903093531209 0 -0.42858365426849604 1 I I 0 1 0.5 forward I I I I #
face $-1 $111 $112 $37 $-1 $113 forward single #
loop $-1 $114 $115 $47 #
cone-surface $-1 41.326191019293809 16.602126961795168 3.8432364719422165 -0.85716730853699208 0 -0.51503806187062418 0.25751903093531209 0 -0.42858365426849604 1 I I 0 1 0.5 forward I I I I #
face $-1 $116 $117 $38 $-1 $118 reversed single #
loop $-1 $-1 $119 $48 #
plane-surface $-1 -101.65218962108918 -1.9570554425949904 68.489868756229825 0 1 0 -0.6560590369687036 0 0.75470957328743171 forward_v I I I I #
face $-1 $120 $121 $39 $-1 $122 forward single #
loop $-1 $123 $124 $49 #
cone-surface $-1 -39.738839705502812 1.2776406314279569 3.7369654504367884 0.6560590369687036 0 -0.75470957328743171 0.75470957328743171 0 0.6560590369687036 1 I I 0 1 1 forward I I I I #
face $-1 $125 $126 $30 $-1 $127 reversed single #
loop $-1 $-1 $128 $50 #
plane-surface $-1 0 0 -7.6980805025353298 0 0 1 1 0 0 forward_v I I I I #
coedge $-1 $129 $130 $131 $132 forward $51 $-1 #
face $-1 $133 $134 $31 $-1 $135 forward single #
loop $-1 $-1 $136 $53 #
plane-surface $-1 -39.675399863777841 -14.042625378494357 0 -1 0 0 0 0 1 forward_v I I I I #
coedge $-1 $137 $138 $139 $140 forward $54 $-1 #
face $-1 $141 $142 $32 $-1 $143 reversed single #
loop $-1 $-1 $144 $56 #
plane-surface $-1 -1.3222957201343348 -6.4429757083240151 75.965681430778005 0.85716730853699208 0 0.51503806187062418 0.51503806187062418 0 -0.85716730853699208 forward_v I I I I #
coedge $-1 $145 $146 $147 $148 reversed $57 $-1 #
face $-1 $-1 $149 $33 $-1 $150 forward single #
loop $-1 $151 $152 $59 #
cone-surface $-1 40.607099926043091 -7.8175615501975226 3.4111629674027064 -0.85716730853699208 0 -0.51503806187062418 0.12875951546765604 0 -0.21429182713424802 1 I I -0.70710678118654746 0.70710678118654746 0.25 forward I I I I #
loop $-1 $-1 $153 $43 #
coedge $-1 $96 $96 $154 $155 reversed $60 $-1 #
face $-1 $-1 $156 $34 $-1 $157 forward single #
loop $-1 $158 $159 $62 #
cone-surface $-1 40.607099926043091 -5.0683898664505094 3.4111629674027064 -0.85716730853699208 0 -0.51503806187062418 0.12875951546765604 0 -0.21429182713424802 1 I I -0.70710678118654746 0.70710678118654746 0.25 forward I I I I #
loop $-1 $-1 $160 $44 #
coedge $-1 $101 $101 $161 $162 reversed $63 $-1 #
face $-1 $163 $164 $35 $-1 $165 reversed single #
loop $-1 $-1 $166 $65 #
plane-surface $-1 -1.3222957201343348 15.227541119921664 75.965681430778005 0.85716730853699208 0 0.51503806187062418 0.51503806187062418 0 -0.85716730853699208 forward_v I I I I #
coedge $-1 $167 $168 $169 $170 reversed $66 $-1 #
face $-1 $-1 $171 $36 $-1 $172 forward single #
loop $-1 $173 $174 $68 #
cone-surface $-1 40.607099926043091 13.85295527804816 3.4111629674027064 -0.85716730853699208 0 -0.51503806187062418 0.12875951546765604 0 -0.21429182713424802 1 I I -0.70710678118654746 0.70710678118654746 0.25 forward I I I I #
loop $-1 $-1 $175 $46 #
coedge $-1 $110 $110 $176 $177 reversed $69 $-1 #
face $-1 $-1 $178 $37 $-1 $179 forward single #
loop $-1 $180 $181 $71 #
cone-surface $-1 40.607099926043091 16.602126961795168 3.4111629674027064 -0.85716730853699208 0 -0.51503806187062418 0.12875951546765604 0 -0.21429182713424802 1 I I -0.70710678118654746 0.70710678118654746 0.25 forward I I I I #
loop $-1 $-1 $182 $47 #
coedge $-1 $115 $115 $183 $184 reversed $72 $-1 #
face $-1 $185 $186 $38 $-1 $187 reversed single #
loop $-1 $-1 $188 $74 #
plane-surface $-1 -43.964964751121563 1.2776406314279534 2.1283091823979703 -0.6560590369687036 0 0.75470957328743171 0.75470957328743171 0 0.6560590369687036 forward_v I I I I #
coedge $-1 $189 $190 $191 $192 reversed $75 $-1 #
face $-1 $-1 $193 $39 $-1 $194 forward single #
loop $-1 $195 $196 $77 #
cone-surface $-1 -38.388329554067084 1.2776406314279569 2.1833812717632082 0.6560590369687036 0 -0.75470957328743171 0.37735478664371586 0 0.3280295184843518 1 I I -0.70710678118654746 0.70710678118654746 0.5 forward I I I I #
loop $-1 $-1 $197 $49 #
coedge $-1 $124 $124 $198 $199 reversed $78 $-1 #
face $-1 $200 $201 $30 $-1 $202 reversed single #
loop $-1 $-1 $203 $80 #
plane-surface $-1 0 -18.434908084293181 0 0 1 0 0 0 1 forward_v I I I I #
coedge $-1 $204 $205 $206 $207 forward $81 $-1 #
coedge $-1 $208 $83 $209 $210 forward $51 $-1 #
coedge $-1 $83 $208 $211 $212 forward $51 $-1 #
coedge $-1 $213 $214 $83 $132 reversed $215 $-1 #
edge $-1 $216 -18.434908084293181 $217 18.434908084293181 $131 $218 forward 7 unknown #
face $-1 $219 $220 $31 $-1 $221 reversed single #
loop $-1 $-1 $222 $84 #
plane-surface $-1 0 0 7.6980805025353298 0 0 1 1 0 0 forward_v I I I I #
coedge $-1 $223 $224 $225 $226 reversed $85 $-1 #
coedge $-1 $227 $87 $228 $229 reversed $54 $-1 #
coedge $-1 $87 $227 $230 $231 reversed $54 $-1 #
coedge $-1 $224 $223 $87 $140 reversed $85 $-1 #
edge $-1 $232 -7.6980805025353298 $233 7.6980805025353298 $139 $234 forward 7 unknown #
face $-1 $235 $236 $32 $-1 $237 reversed single #
loop $-1 $-1 $238 $88 #
plane-surface $-1 74.048365291150844 -9.6503426726955315 121.25294190203391 0 1 0 0.85716730853699208 0 0.51503806187062418 forward_v I I I I #
coedge $-1 $239 $240 $241 $242 reversed $89 $-1 #
coedge $-1 $146 $91 $243 $244 reversed $57 $-1 #
coedge $-1 $91 $145 $239 $245 reversed $57 $-1 #
coedge $-1 $241 $246 $91 $148 forward $247 $-1 #
edge $-1 $248 -6.9407821055461341 $249 -2.6728331741235962 $147 $250 forward 7 unknown #
loop $-1 $-1 $154 $92 #
plane-surface $-1 -1.3222957201343348 -6.4429757083240151 75.965681430778005 0.85716730853699208 0 0.51503806187062418 0.51503806187062418 0 -0.85716730853699208 forward_v I I I I #
loop $-1 $-1 $251 $59 #
coedge $-1 $152 $152 $153 $252 reversed $93 $-1 #
coedge $-1 $153 $153 $152 $252 forward $95 $-1 #
coedge $-1 $154 $154 $96 $155 forward $149 $-1 #
edge $-1 $253 0 $253 6.2831853071796004 $154 $254 forward 7 unknown #
loop $-1 $-1 $161 $97 #
plane-surface $-1 -1.3222957201343348 -6.4429757083240151 75.965681430778005 0.85716730853699208 0 0.51503806187062418 0.51503806187062418 0 -0.85716730853699208 forward_v I I I I #
loop $-1 $-1 $255 $62 #
coedge $-1 $159 $159 $160 $256 reversed $98 $-1 #
coedge $-1 $160 $160 $159 $256 forward $100 $-1 #
coedge $-1 $161 $161 $101 $162 forward $156 $-1 #
edge $-1 $257 0 $257 6.2831853071796004 $161 $258 forward 7 unknown #
face $-1 $259 $260 $35 $-1 $261 reversed single #
loop $-1 $-1 $169 $102 #
plane-surface $-1 43.964964751121556 0 0 -1 0 0 0 0 1 forward_v I I I I #
coedge $-1 $262 $263 $264 $265 reversed $103 $-1 #
coedge $-1 $168 $105 $266 $267 reversed $66 $-1 #
coedge $-1 $105 $167 $262 $268 reversed $66 $-1 #
coedge $-1 $264 $269 $105 $170 forward $164 $-1 #
edge $-1 $270 52.928390448481622 $271 60.031450531524101 $169 $272 forward 7 unknown #
loop $-1 $-1 $176 $106 #
plane-surface $-1 -1.3222957201343348 15.227541119921664 75.965681430778005 0.85716730853699208 0 0.51503806187062418 0.51503806187062418 0 -0.85716730853699208 forward_v I I I I #
loop $-1 $-1 $273 $68 #
coedge $-1 $174 $174 $175 $274 reversed $107 $-1 #
coedge $-1 $175 $175 $174 $274 forward $109 $-1 #
coedge $-1 $176 $176 $110 $177 forward $171 $-1 #
edge $-1 $275 0 $275 6.2831853071796004 $176 $276 forward 7 unknown #
loop $-1 $-1 $183 $111 #
plane-surface $-1 -1.3222957201343348 15.227541119921664 75.965681430778005 0.85716730853699208 0 0.51503806187062418 0.51503806187062418 0 -0.85716730853699208 forward_v I I I I #
loop $-1 $-1 $277 $71 #
coedge $-1 $181 $181 $182 $278 reversed $112 $-1 #
coedge $-1 $182 $182 $181 $278 forward $114 $-1 #
coedge $-1 $183 $183 $115 $184 forward $178 $-1 #
edge $-1 $279 0 $279 6.2831853071796004 $183 $280 forward 7 unknown #
face $-1 $281 $282 $38 $-1 $283 reversed single #
loop $-1 $-1 $284 $116 #
plane-surface $-1 -101.65218962108918 4.5123367054508972 68.489868756229825 0 -1 0 0.6560590369687036 0 -0.75470957328743171 forward_v I I I I #
coedge $-1 $285 $286 $287 $288 reversed $117 $-1 #
coedge $-1 $190 $119 $289 $290 reversed $75 $-1 #
coedge $-1 $119 $189 $285 $291 reversed $75 $-1 #
coedge $-1 $287 $292 $119 $192 forward $293 $-1 #
edge $-1 $294 6.8611300594230329 $295 13.268418884757764 $191 $296 forward 7 unknown #
loop $-1 $-1 $198 $120 #
plane-surface $-1 -43.964964751121563 1.2776406314279534 2.1283091823979703 -0.6560590369687036 0 0.75470957328743171 0.75470957328743171 0 0.6560590369687036 forward_v I I I I #
loop $-1 $-1 $297 $77 #
coedge $-1 $196 $196 $197 $298 reversed $121 $-1 #
coedge $-1 $197 $197 $196 $298 forward $123 $-1 #
coedge $-1 $198 $198 $124 $199 forward $193 $-1 #
edge $-1 $299 0 $299 6.2831853071796004 $198 $300 forward 7 unknown #
face $-1 $301 $302 $30 $-1 $303 reversed single #
loop $-1 $-1 $304 $125 #
plane-surface $-1 -43.964964751121556 0 0 1 0 0 0 0 -1 forward_v I I I I #
coedge $-1 $305 $211 $306 $307 forward $126 $-1 #
coedge $-1 $308 $128 $305 $309 forward $81 $-1 #
coedge $-1 $128 $308 $310 $311 forward $81 $-1 #
coedge $-1 $214 $213 $128 $207 reversed $215 $-1 #
edge $-1 $312 -18.434908084293181 $313 18.434908084293181 $206 $314 forward 7 unknown #
coedge $-1 $130 $129 $315 $316 forward $51 $-1 #
coedge $-1 $317 $318 $129 $210 reversed $302 $-1 #
edge $-1 $217 -43.964964751121556 $319 43.964964751121556 $209 $320 forward 7 unknown #
coedge $-1 $203 $321 $130 $212 reversed $126 $-1 #
edge $-1 $322 -43.964964751121556 $216 43.964964751121556 $211 $323 forward 7 unknown #
coedge $-1 $206 $131 $321 $324 forward $215 $-1 #
coedge $-1 $131 $206 $317 $325 reversed $215 $-1 #
loop $-1 $-1 $213 $301 #
vertex $-1 $132 $326 #
vertex $-1 $132 $327 #
straight-curve $-1 43.964964751121556 0 7.6980805025353298 0 1 0 I I #
face $-1 $328 $329 $31 $-1 $330 reversed single #
loop $-1 $-1 $331 $133 #
plane-surface $-1 -43.964964751121556 0 0 1 0 0 0 0 -1 forward_v I I I I #
coedge $-1 $230 $332 $224 $333 forward $134 $-1 #
coedge $-1 $139 $136 $334 $335 reversed $85 $-1 #
coedge $-1 $136 $139 $222 $333 reversed $85 $-1 #
coedge $-1 $336 $337 $136 $226 forward $338 $-1 #
edge $-1 $339 -7.6980805025353298 $340 7.6980805025353298 $225 $341 forward 7 unknown #
coedge $-1 $138 $137 $331 $342 reversed $54 $-1 #
coedge $-1 $334 $343 $137 $229 forward $329 $-1 #
edge $-1 $344 -23.054873597396707 $233 -18.765308710052992 $228 $345 forward 7 unknown #
coedge $-1 $346 $222 $138 $231 forward $134 $-1 #
edge $-1 $232 18.765308710052992 $347 23.054873597396707 $230 $348 forward 7 unknown #
vertex $-1 $231 $349 #
vertex $-1 $229 $350 #
straight-curve $-1 -39.675399863777841 -9.6503426726955333 0 0 0 -1 I I #
face $-1 $-1 $247 $32 $-1 $351 forward single #
loop $-1 $-1 $352 $141 #
plane-surface $-1 43.964964751121556 0 0 -1 0 0 0 0 1 forward_v I I I I #
coedge $-1 $353 $354 $355 $356 reversed $142 $-1 #
coedge $-1 $357 $144 $146 $245 forward $89 $-1 #
coedge $-1 $144 $357 $353 $358 forward $89 $-1 #
coedge $-1 $355 $147 $144 $242 forward $247 $-1 #
edge $-1 $249 0.014120889790491198 $359 6.4288548185335239 $241 $360 forward 7 unknown #
coedge $-1 $361 $362 $145 $244 forward $236 $-1 #
edge $-1 $363 -60.031450531524101 $248 -52.928390448481622 $243 $364 forward 7 unknown #
edge $-1 $249 79.643262462682358 $363 87.929929502243098 $146 $365 forward 7 unknown #
coedge $-1 $147 $355 $361 $366 forward $247 $-1 #
loop $-1 $-1 $355 $235 #
vertex $-1 $244 $367 #
vertex $-1 $148 $368 #
straight-curve $-1 37.024182645575422 -3.2356087439524988 7.6980805025353334 -1 0 0 I I #
coedge $-1 $251 $251 $-1 $369 reversed $151 $-1 #
edge $-1 $370 0 $370 6.2831853071796004 $152 $371 forward 7 unknown #
vertex $-1 $155 $372 #
ellipse-curve $-1 41.830990285410287 -7.8175615501975226 4.1465504610140762 0.85716730853699208 0 0.51503806187062418 0.25751903093531209 0 -0.42858365426849604 1 I I #
coedge $-1 $255 $255 $-1 $373 reversed $158 $-1 #
edge $-1 $374 0 $374 6.2831853071796004 $159 $375 forward 7 unknown #
vertex $-1 $162 $376 #
ellipse-curve $-1 41.830990285410287 -5.0683898664505094 4.1465504610140762 0.85716730853699208 0 0.51503806187062418 0.25751903093531209 0 -0.42858365426849604 1 I I #
face $-1 $-1 $377 $35 $-1 $378 forward single #
loop $-1 $-1 $379 $163 #
plane-surface $-1 0 18.434908084293181 0 0 -1 0 0 0 -1 forward_v I I I I #
coedge $-1 $380 $166 $168 $268 forward $103 $-1 #
coedge $-1 $166 $380 $379 $381 reversed $103 $-1 #
coedge $-1 $382 $169 $166 $265 forward $164 $-1 #
edge $-1 $271 4.4064035955893157 $383 10.821137524332348 $264 $384 forward 7 unknown #
coedge $-1 $385 $386 $167 $267 forward $377 $-1 #
edge $-1 $387 2.6728331741235962 $270 6.9407821055461341 $266 $388 forward 7 unknown #
edge $-1 $271 -87.929929502243098 $387 -79.643262462682358 $168 $389 forward 7 unknown #
coedge $-1 $169 $382 $385 $390 reversed $164 $-1 #
vertex $-1 $390 $391 #
vertex $-1 $170 $392 #
straight-curve $-1 43.964964751121556 12.020174155550148 60.626470951016955 0 0 -1 I I #
coedge $-1 $273 $273 $-1 $393 reversed $173 $-1 #
edge $-1 $394 0 $394 6.2831853071796004 $174 $395 forward 7 unknown #
vertex $-1 $177 $396 #
ellipse-curve $-1 41.830990285410287 13.85295527804816 4.1465504610140762 0.85716730853699208 0 0.51503806187062418 0.25751903093531209 0 -0.42858365426849604 1 I I #
coedge $-1 $277 $277 $-1 $397 reversed $180 $-1 #
edge $-1 $398 0 $398 6.2831853071796004 $181 $399 forward 7 unknown #
vertex $-1 $184 $400 #
ellipse-curve $-1 41.830990285410287 16.602126961795168 4.1465504610140762 0.85716730853699208 0 0.51503806187062418 0.25751903093531209 0 -0.42858365426849604 1 I I #
face $-1 $-1 $293 $38 $-1 $401 forward single #
loop $-1 $-1 $402 $185 #
plane-surface $-1 -43.964964751121556 0 0 1 0 0 0 0 -1 forward_v I I I I #
coedge $-1 $403 $404 $405 $406 reversed $186 $-1 #
coedge $-1 $407 $188 $190 $291 forward $117 $-1 #
coedge $-1 $188 $407 $403 $408 forward $117 $-1 #
coedge $-1 $405 $191 $188 $288 forward $293 $-1 #
edge $-1 $295 -2.5958757583089671 $409 3.8735163897369205 $287 $410 forward 7 unknown #
coedge $-1 $411 $412 $189 $290 forward $282 $-1 #
edge $-1 $413 -32.116625195716935 $294 -26.546853875579583 $289 $414 forward 7 unknown #
edge $-1 $295 -8.4897410237229316 $413 -9.44141639987384e-015 $190 $415 forward 7 unknown #
coedge $-1 $191 $405 $411 $416 forward $293 $-1 #
loop $-1 $-1 $405 $281 #
vertex $-1 $290 $417 #
vertex $-1 $192 $418 #
straight-curve $-1 -50.826094810544589 -1.9570554425949904 7.6980805025353298 1 0 0 I I #
coedge $-1 $297 $297 $-1 $419 reversed $195 $-1 #
edge $-1 $420 0 $420 6.2831853071796004 $196 $421 forward 7 unknown #
vertex $-1 $199 $422 #
ellipse-curve $-1 -40.76132033845419 1.2776406314279569 4.9131948424666554 -0.6560590369687036 0 0.75470957328743171 0.75470957328743171 0 0.6560590369687036 1 I I #
face $-1 $-1 $215 $30 $-1 $423 reversed single #
loop $-1 $-1 $317 $200 #
plane-surface $-1 0 18.434908084293181 0 0 -1 0 0 0 -1 forward_v I I I I #
coedge $-1 $424 $315 $318 $425 forward $201 $-1 #
coedge $-1 $321 $203 $204 $309 reversed $126 $-1 #
coedge $-1 $315 $424 $203 $307 reversed $201 $-1 #
edge $-1 $322 -7.6980805025353298 $426 7.6980805025353298 $306 $427 forward 7 unknown #
coedge $-1 $205 $204 $424 $428 forward $81 $-1 #
edge $-1 $313 -43.964964751121556 $426 43.964964751121556 $305 $429 forward 7 unknown #
coedge $-1 $318 $317 $205 $311 reversed $302 $-1 #
edge $-1 $430 -43.964964751121556 $312 43.964964751121556 $310 $431 forward 7 unknown #
vertex $-1 $207 $432 #
vertex $-1 $324 $433 #
straight-curve $-1 43.964964751121556 0 -7.6980805025353298 0 -1 0 I I #
coedge $-1 $304 $306 $208 $316 reversed $201 $-1 #
edge $-1 $319 -18.434908084293181 $322 18.434908084293181 $315 $434 forward 7 unknown #
coedge $-1 $310 $209 $214 $325 forward $302 $-1 #
coedge $-1 $209 $310 $304 $425 reversed $302 $-1 #
vertex $-1 $210 $435 #
straight-curve $-1 0 18.434908084293181 7.6980805025353298 -1 0 0 I I #
coedge $-1 $211 $305 $213 $324 reversed $126 $-1 #
vertex $-1 $316 $436 #
straight-curve $-1 0 -18.434908084293181 7.6980805025353298 1 0 0 I I #
edge $-1 $216 -7.6980805025353298 $313 7.6980805025353298 $213 $437 forward 7 unknown #
edge $-1 $217 -7.6980805025353298 $312 7.6980805025353298 $214 $438 forward 7 unknown #
point $-1 43.964964751121556 -18.434908084293181 7.6980805025353298 #
point $-1 43.964964751121556 18.434908084293181 7.6980805025353298 #
face $-1 $-1 $338 $31 $-1 $439 reversed single #
loop $-1 $-1 $334 $219 #
plane-surface $-1 0 0 -7.6980805025353298 0 0 1 1 0 0 forward_v I I I I #
coedge $-1 $440 $441 $227 $342 forward $220 $-1 #
coedge $-1 $222 $346 $336 $442 forward $134 $-1 #
edge $-1 $340 -11.413595395046002 $232 -2.6290299834483548 $222 $443 forward 7 unknown #
coedge $-1 $444 $228 $223 $335 forward $329 $-1 #
edge $-1 $233 2.6290299834483548 $339 11.413595395046002 $334 $445 forward 7 unknown #
coedge $-1 $446 $225 $332 $442 reversed $338 $-1 #
coedge $-1 $225 $446 $444 $447 reversed $338 $-1 #
loop $-1 $-1 $225 $328 #
vertex $-1 $447 $448 #
vertex $-1 $226 $449 #
straight-curve $-1 -39.675399863777841 -18.434908084293181 0 0 0 1 I I #
edge $-1 $347 -7.6980805025353298 $344 7.6980805025353298 $331 $450 forward 7 unknown #
coedge $-1 $228 $444 $440 $451 forward $329 $-1 #
vertex $-1 $229 $452 #
straight-curve $-1 -20.910091153724849 -9.6503426726955333 -7.6980805025353298 1 0 0 I I #
coedge $-1 $332 $230 $441 $453 forward $134 $-1 #
vertex $-1 $453 $454 #
straight-curve $-1 -20.910091153724849 -9.6503426726955333 7.6980805025353298 -1 0 0 I I #
point $-1 -39.675399863777841 -9.6503426726955333 7.6980805025353298 #
point $-1 -39.675399863777841 -9.6503426726955333 -7.6980805025353298 #
plane-surface $-1 0 0 7.6980805025353298 0 0 1 1 0 0 forward_v I I I I #
coedge $-1 $362 $361 $354 $455 forward $236 $-1 #
coedge $-1 $354 $238 $240 $358 reversed $142 $-1 #
coedge $-1 $238 $353 $352 $455 reversed $142 $-1 #
coedge $-1 $246 $241 $238 $356 forward $247 $-1 #
edge $-1 $359 2.6728331741235962 $456 6.9407821055461341 $355 $457 forward 7 unknown #
coedge $-1 $240 $239 $362 $458 reversed $89 $-1 #
edge $-1 $459 -87.929929502243098 $359 -79.643262462682358 $353 $460 forward 7 unknown #
vertex $-1 $242 $461 #
straight-curve $-1 39.697015819699004 -3.2214878541620076 7.6980805025353334 0 -1 0 I I #
coedge $-1 $352 $243 $246 $366 reversed $236 $-1 #
coedge $-1 $243 $352 $357 $458 forward $236 $-1 #
vertex $-1 $244 $462 #
straight-curve $-1 43.964964751121556 -3.2356087439524988 60.626470951016955 0 0 1 I I #
straight-curve $-1 -1.3222957201343348 -3.2356087439524988 75.965681430778005 0.51503806187062418 0 -0.85716730853699208 I I #
edge $-1 $456 -9.6503426726955315 $248 -3.2356087439524988 $361 $463 forward 7 unknown #
point $-1 43.964964751121556 -3.2356087439524988 7.6980805025353298 #
point $-1 39.697015819699018 -3.2356087439524988 7.6980805025353334 #
edge $-1 $464 1 $464 0 $251 $-1 forward 7 unknown #
vertex $-1 $252 $465 #
ellipse-curve $-1 40.821391753177338 -7.8175615501975226 3.5399224828703626 0.85716730853699208 0 0.51503806187062418 0.25751903093531209 0 -0.42858365426849604 1 I I #
point $-1 42.088509316345586 -7.8175615501975226 3.7179668067455744 #
edge $-1 $466 1 $466 0 $255 $-1 forward 7 unknown #
vertex $-1 $256 $467 #
ellipse-curve $-1 40.821391753177338 -5.0683898664505094 3.5399224828703626 0.85716730853699208 0 0.51503806187062418 0.25751903093531209 0 -0.42858365426849604 1 I I #
point $-1 42.088509316345586 -5.0683898664505094 3.7179668067455744 #
loop $-1 $-1 $266 $259 #
plane-surface $-1 0 0 7.6980805025353298 0 0 1 1 0 0 forward_v I I I I #
coedge $-1 $468 $469 $263 $381 forward $260 $-1 #
coedge $-1 $263 $262 $386 $470 reversed $103 $-1 #
edge $-1 $383 -55.031763843184891 $471 -46.745096803624158 $379 $472 forward 7 unknown #
coedge $-1 $269 $264 $469 $473 reversed $164 $-1 #
vertex $-1 $381 $474 #
straight-curve $-1 43.964964751121556 7.6137705599608321 0.59502041949285456 0 1 0 I I #
coedge $-1 $475 $266 $269 $390 forward $377 $-1 #
coedge $-1 $266 $475 $380 $470 forward $377 $-1 #
vertex $-1 $267 $476 #
straight-curve $-1 37.024182645575422 12.020174155550148 7.6980805025353334 1 0 0 I I #
straight-curve $-1 -1.3222957201343348 12.020174155550148 75.965681430778005 -0.51503806187062418 0 0.85716730853699208 I I #
edge $-1 $270 12.020174155550148 $477 18.434908084293181 $269 $478 forward 7 unknown #
point $-1 43.964964751121556 12.020174155550148 7.6980805025353298 #
point $-1 43.964964751121556 12.020174155550148 0.59502041949285456 #
edge $-1 $479 1 $479 0 $273 $-1 forward 7 unknown #
vertex $-1 $274 $480 #
ellipse-curve $-1 40.821391753177338 13.85295527804816 3.5399224828703626 0.85716730853699208 0 0.51503806187062418 0.25751903093531209 0 -0.42858365426849604 1 I I #
point $-1 42.088509316345586 13.85295527804816 3.7179668067455744 #
edge $-1 $481 1 $481 0 $277 $-1 forward 7 unknown #
vertex $-1 $278 $482 #
ellipse-curve $-1 40.821391753177338 16.602126961795168 3.5399224828703626 0.85716730853699208 0 0.51503806187062418 0.25751903093531209 0 -0.42858365426849604 1 I I #
point $-1 42.088509316345586 16.602126961795168 3.7179668067455744 #
plane-surface $-1 0 0 7.6980805025353298 0 0 1 1 0 0 forward_v I I I I #
coedge $-1 $412 $411 $404 $483 forward $282 $-1 #
coedge $-1 $404 $284 $286 $408 reversed $186 $-1 #
coedge $-1 $284 $403 $402 $483 reversed $186 $-1 #
coedge $-1 $292 $287 $284 $406 forward $293 $-1 #
edge $-1 $409 -13.268418884757764 $484 -6.8611300594230329 $405 $485 forward 7 unknown #
coedge $-1 $286 $285 $412 $486 reversed $117 $-1 #
edge $-1 $487 9.44141639987384e-015 $409 8.4897410237229316 $403 $488 forward 7 unknown #
vertex $-1 $288 $489 #
straight-curve $-1 -37.557675925786825 0.63882031571397668 7.6980805025353307 0 1 0 I I #
coedge $-1 $402 $289 $292 $416 reversed $282 $-1 #
coedge $-1 $289 $402 $407 $486 forward $282 $-1 #
vertex $-1 $290 $490 #
straight-curve $-1 -43.964964751121556 -1.9570554425949904 34.244934378114912 0 0 1 I I #
straight-curve $-1 -43.964964751121563 -1.9570554425949904 2.1283091823979703 -0.75470957328743171 0 -0.6560590369687036 I I #
edge $-1 $484 -4.5123367054508972 $294 1.9570554425949904 $411 $491 forward 7 unknown #
point $-1 -43.964964751121556 -1.9570554425949904 7.6980805025353298 #
point $-1 -37.557675925786825 -1.9570554425949904 7.6980805025353307 #
edge $-1 $492 1 $492 0 $297 $-1 forward 7 unknown #
vertex $-1 $298 $493 #
ellipse-curve $-1 -38.716359072551434 1.2776406314279569 2.5607360584069241 -0.6560590369687036 0 0.75470957328743171 0.75470957328743171 0 0.6560590369687036 1 I I #
point $-1 -40.006610765166755 1.2776406314279569 5.5692538794353563 #
plane-surface $-1 43.964964751121556 0 0 -1 0 0 0 0 1 forward_v I I I I #
coedge $-1 $306 $304 $308 $428 reversed $201 $-1 #
edge $-1 $319 -7.6980805025353298 $430 7.6980805025353298 $318 $494 forward 7 unknown #
vertex $-1 $428 $495 #
straight-curve $-1 -43.964964751121556 -18.434908084293181 0 0 0 -1 I I #
edge $-1 $426 -18.434908084293181 $430 18.434908084293181 $424 $496 forward 7 unknown #
straight-curve $-1 0 -18.434908084293181 -7.6980805025353298 -1 0 0 I I #
vertex $-1 $311 $497 #
straight-curve $-1 0 18.434908084293181 -7.6980805025353298 1 0 0 I I #
point $-1 43.964964751121556 18.434908084293181 -7.6980805025353298 #
point $-1 43.964964751121556 -18.434908084293181 -7.6980805025353298 #
straight-curve $-1 -43.964964751121556 0 7.6980805025353298 0 -1 0 I I #
point $-1 -43.964964751121556 18.434908084293181 7.6980805025353298 #
point $-1 -43.964964751121556 -18.434908084293181 7.6980805025353298 #
straight-curve $-1 43.964964751121556 -18.434908084293181 0 0 0 -1 I I #
straight-curve $-1 43.964964751121556 18.434908084293181 0 0 0 -1 I I #
plane-surface $-1 0 -18.434908084293181 0 0 1 0 0 0 1 forward_v I I I I #
coedge $-1 $498 $331 $343 $451 reversed $220 $-1 #
coedge $-1 $331 $498 $346 $453 reversed $220 $-1 #
edge $-1 $499 -43.964964751121556 $340 -39.675399863777841 $336 $500 forward 7 unknown #
straight-curve $-1 -39.675399863777841 -7.0213126892471784 7.6980805025353298 0 1 0 I I #
coedge $-1 $343 $334 $337 $447 forward $329 $-1 #
straight-curve $-1 -39.675399863777841 -7.0213126892471784 -7.6980805025353298 0 -1 0 I I #
coedge $-1 $337 $336 $498 $501 forward $338 $-1 #
edge $-1 $339 39.675399863777841 $502 43.964964751121556 $337 $503 forward 7 unknown #
point $-1 -39.675399863777841 -18.434908084293181 -7.6980805025353298 #
point $-1 -39.675399863777841 -18.434908084293181 7.6980805025353298 #
straight-curve $-1 -43.964964751121556 -9.6503426726955333 0 0 0 -1 I I #
edge $-1 $502 -18.434908084293181 $344 -9.6503426726955333 $440 $504 forward 7 unknown #
point $-1 -43.964964751121556 -9.6503426726955333 -7.6980805025353298 #
edge $-1 $347 9.6503426726955333 $499 18.434908084293181 $441 $505 forward 7 unknown #
point $-1 -43.964964751121556 -9.6503426726955333 7.6980805025353298 #
edge $-1 $456 52.928390448481622 $459 60.031450531524101 $352 $506 forward 7 unknown #
vertex $-1 $366 $507 #
straight-curve $-1 37.024182645575422 -9.6503426726955315 7.6980805025353334 1 0 0 I I #
edge $-1 $459 -6.4288548185335239 $363 -0.014120889790491198 $362 $508 forward 7 unknown #
vertex $-1 $458 $509 #
straight-curve $-1 -1.3222957201343348 -9.6503426726955315 75.965681430778005 -0.51503806187062418 0 0.85716730853699208 I I #
point $-1 39.697015819699018 -9.6503426726955315 7.6980805025353334 #
point $-1 43.964964751121556 -3.2356087439524988 0.59502041949285456 #
straight-curve $-1 43.964964751121556 0 7.6980805025353298 0 1 0 I I #
vertex $-1 $369 $510 #
point $-1 41.078910784112651 -7.8175615501975226 3.1113388286018662 #
vertex $-1 $373 $511 #
point $-1 41.078910784112651 -5.0683898664505094 3.1113388286018662 #
coedge $-1 $469 $379 $475 $512 reversed $260 $-1 #
coedge $-1 $379 $468 $382 $473 forward $260 $-1 #
edge $-1 $471 -10.821137524332348 $387 -4.4064035955893157 $386 $513 forward 7 unknown #
vertex $-1 $381 $514 #
straight-curve $-1 15.621511760005713 18.434908084293181 47.766449316999001 -0.51503806187062429 0 0.85716730853699219 I I #
edge $-1 $477 -7.6980805025353298 $383 -0.59502041949285445 $382 $515 forward 7 unknown #
point $-1 43.964964751121556 18.434908084293181 0.59502041949285445 #
coedge $-1 $386 $385 $468 $512 forward $377 $-1 #
point $-1 39.697015819699018 12.020174155550148 7.6980805025353334 #
vertex $-1 $390 $516 #
straight-curve $-1 43.964964751121556 0 7.6980805025353298 0 1 0 I I #
vertex $-1 $393 $517 #
point $-1 41.078910784112651 13.85295527804816 3.1113388286018662 #
vertex $-1 $397 $518 #
point $-1 41.078910784112651 16.602126961795168 3.1113388286018662 #
edge $-1 $484 26.546853875579583 $487 32.116625195716935 $402 $519 forward 7 unknown #
vertex $-1 $416 $520 #
straight-curve $-1 -50.826094810544589 4.5123367054508972 7.6980805025353298 -1 0 0 I I #
edge $-1 $487 -3.8735163897369205 $413 2.5958757583089671 $412 $521 forward 7 unknown #
vertex $-1 $486 $522 #
straight-curve $-1 -43.964964751121563 4.5123367054508972 2.1283091823979703 0.75470957328743171 0 0.6560590369687036 I I #
point $-1 -37.557675925786825 4.5123367054508972 7.6980805025353307 #
point $-1 -43.964964751121556 -1.9570554425949904 2.1283091823979765 #
straight-curve $-1 -43.964964751121556 0 7.6980805025353298 0 -1 0 I I #
vertex $-1 $419 $523 #
point $-1 -37.961649499264006 1.2776406314279569 3.2167950953756277 #
straight-curve $-1 -43.964964751121556 18.434908084293181 0 0 0 -1 I I #
point $-1 -43.964964751121556 -18.434908084293181 -7.6980805025353298 #
straight-curve $-1 -43.964964751121556 0 -7.6980805025353298 0 1 0 I I #
point $-1 -43.964964751121556 18.434908084293181 -7.6980805025353298 #
coedge $-1 $441 $440 $446 $501 reversed $220 $-1 #
vertex $-1 $453 $524 #
straight-curve $-1 0 -18.434908084293181 7.6980805025353298 1 0 0 I I #
edge $-1 $499 -7.6980805025353298 $502 7.6980805025353298 $498 $525 forward 7 unknown #
vertex $-1 $451 $526 #
straight-curve $-1 0 -18.434908084293181 -7.6980805025353298 -1 0 0 I I #
straight-curve $-1 -43.964964751121556 0 -7.6980805025353298 0 1 0 I I #
straight-curve $-1 -43.964964751121556 0 7.6980805025353298 0 -1 0 I I #
straight-curve $-1 43.964964751121556 -9.6503426726955315 60.626470951016955 0 0 -1 I I #
point $-1 43.964964751121556 -9.6503426726955315 7.6980805025353298 #
straight-curve $-1 43.964964751121556 -3.2214878541620076 0.59502041949285456 0 1 0 I I #
point $-1 43.964964751121556 -9.6503426726955315 0.59502041949285456 #
point $-1 40.392808098908844 -7.8175615501975226 3.2824034519350502 #
point $-1 40.392808098908844 -5.0683898664505094 3.2824034519350502 #
edge $-1 $477 -43.964964751121556 $471 -39.697015819699018 $468 $527 forward 7 unknown #
straight-curve $-1 39.697015819699004 7.6137705599608321 7.6980805025353334 0 -1 0 I I #
point $-1 39.697015819699018 18.434908084293181 7.6980805025353334 #
straight-curve $-1 43.964964751121556 18.434908084293181 0 0 0 -1 I I #
point $-1 43.964964751121556 18.434908084293181 7.6980805025353298 #
point $-1 40.392808098908844 13.85295527804816 3.2824034519350502 #
point $-1 40.392808098908844 16.602126961795168 3.2824034519350502 #
straight-curve $-1 -43.964964751121556 4.5123367054508972 34.244934378114912 0 0 -1 I I #
point $-1 -43.964964751121556 4.5123367054508972 7.6980805025353298 #
straight-curve $-1 -43.964964751121556 0.63882031571397668 2.1283091823979712 0 -1 0 I I #
point $-1 -43.964964751121556 4.5123367054508972 2.1283091823979765 #
point $-1 -38.060300035582735 1.2776406314279569 1.8060264851194923 #
point $-1 -43.964964751121556 -18.434908084293181 7.6980805025353298 #
straight-curve $-1 -43.964964751121556 -18.434908084293181 0 0 0 -1 I I #
point $-1 -43.964964751121556 -18.434908084293181 -7.6980805025353298 #
straight-curve $-1 0 18.434908084293181 7.6980805025353298 -1 0 0 I I #
End-of-ACIS-data 