500 0 8 0           
7 Unknown 11 ACIS 5.0 NT 24 Thu Mar 25 15:19:20 1999 
-1 9.9999999999999995e-007 1e-010 
body $-1 $8 $-1 $9 #
body $-1 $10 $-1 $11 #
body $-1 $12 $-1 $13 #
body $-1 $14 $-1 $15 #
body $-1 $16 $-1 $17 #
body $-1 $18 $-1 $19 #
body $-1 $20 $-1 $21 #
body $-1 $22 $-1 $23 #
lump $-1 $-1 $24 $0 #
transform $-1 1 0 0 0 1 0 0 0 1 76.295052949613932 40.277789969896588 13.287601978105659 1 rotate no_reflect no_shear #
lump $-1 $-1 $25 $1 #
transform $-1 1 0 0 0 1 0 0 0 1 76.295052949613932 40.277789969896588 13.287601978105659 1 rotate no_reflect no_shear #
lump $-1 $-1 $26 $2 #
transform $-1 1 0 0 0 1 0 0 0 1 76.295052949613932 40.277789969896588 13.287601978105659 1 rotate no_reflect no_shear #
lump $-1 $-1 $27 $3 #
transform $-1 1 0 0 0 1 0 0 0 1 76.295052949613932 40.277789969896588 13.287601978105659 1 rotate no_reflect no_shear #
lump $-1 $-1 $28 $4 #
transform $-1 1 0 0 0 1 0 0 0 1 76.295052949613932 40.277789969896588 13.287601978105659 1 rotate no_reflect no_shear #
lump $-1 $-1 $29 $5 #
transform $-1 1 0 0 0 1 0 0 0 1 76.295052949613932 40.277789969896588 13.287601978105659 1 rotate no_reflect no_shear #
lump $-1 $-1 $30 $6 #
transform $-1 1 0 0 0 1 0 0 0 1 76.295052949613932 40.277789969896588 13.287601978105659 1 rotate no_reflect no_shear #
lump $-1 $-1 $31 $7 #
transform $-1 1 0 0 0 1 0 0 0 1 76.295052949613932 40.277789969896588 13.287601978105659 1 rotate no_reflect no_shear #
shell $-1 $-1 $-1 $32 $-1 $8 #
shell $-1 $-1 $-1 $33 $-1 $10 #
shell $-1 $-1 $-1 $34 $-1 $12 #
shell $-1 $-1 $-1 $35 $-1 $14 #
shell $-1 $-1 $-1 $36 $-1 $16 #
shell $-1 $-1 $-1 $37 $-1 $18 #
shell $-1 $-1 $-1 $38 $-1 $20 #
shell $-1 $-1 $-1 $39 $-1 $22 #
face $-1 $40 $41 $24 $-1 $42 forward single #
face $-1 $43 $44 $25 $-1 $45 reversed single #
face $-1 $46 $47 $26 $-1 $48 reversed single #
face $-1 $49 $50 $27 $-1 $51 forward single #
face $-1 $52 $53 $28 $-1 $54 reversed single #
face $-1 $55 $56 $29 $-1 $57 forward single #
face $-1 $58 $59 $30 $-1 $60 forward single #
face $-1 $61 $62 $31 $-1 $63 forward single #
face $-1 $64 $65 $24 $-1 $66 reversed single #
loop $-1 $-1 $67 $32 #
plane-surface $-1 0 0 13.287601978105659 0 0 1 1 0 0 forward_v I I I I #
face $-1 $68 $69 $25 $-1 $70 reversed single #
loop $-1 $-1 $71 $33 #
plane-surface $-1 -73.057520434809334 -30.547941697978043 0 0 -1 0 0 0 -1 forward_v I I I I #
face $-1 $72 $73 $26 $-1 $74 reversed single #
loop $-1 $-1 $75 $34 #
plane-surface $-1 68.763918545825163 8.2870820126737605 216.09963445316745 0 -1 0 -0.68199836817093118 0 -0.7313536940579346 forward_v I I I I #
face $-1 $76 $77 $27 $-1 $78 forward single #
loop $-1 $79 $80 $35 #
cone-surface $-1 67.721352249131144 0.42691074512889315 5.0571337303276556 -0.68199836817093118 0 -0.7313536940579346 1.4627073881158692 0 -1.3639967363418624 1 I I 0 1 2 forward I I I I #
face $-1 $81 $82 $28 $-1 $83 reversed single #
loop $-1 $-1 $84 $36 #
plane-surface $-1 -180.36125617191692 7.5079115760418809 118.12838094249405 0 1 0 -0.68199836817093118 0 0.7313536940579346 forward_v I I I I #
face $-1 $85 $86 $29 $-1 $87 forward single #
loop $-1 $88 $89 $37 #
cone-surface $-1 -71.976535841650602 10.196250316378261 9.1632155491074077 0.68199836817093118 0 -0.7313536940579346 0.7313536940579346 0 0.68199836817093118 1 I I 0 1 1 forward I I I I #
face $-1 $90 $91 $30 $-1 $92 forward single #
loop $-1 $93 $94 $38 #
cone-surface $-1 -71.976535841650602 14.228758426882841 9.1632155491074077 0.68199836817093118 0 -0.7313536940579346 0.7313536940579346 0 0.68199836817093118 1 I I 0 1 1 forward I I I I #
face $-1 $95 $96 $31 $-1 $97 forward single #
loop $-1 $98 $99 $39 #
cone-surface $-1 -71.976535841650602 18.261266537387421 9.1632155491074077 0.68199836817093118 0 -0.7313536940579346 0.7313536940579346 0 0.68199836817093118 1 I I 0 1 1 forward I I I I #
face $-1 $100 $101 $24 $-1 $102 reversed single #
loop $-1 $-1 $103 $40 #
plane-surface $-1 0 0 -13.287601978105659 0 0 1 1 0 0 forward_v I I I I #
coedge $-1 $104 $105 $106 $107 forward $41 $-1 #
face $-1 $108 $109 $25 $-1 $110 forward single #
loop $-1 $-1 $111 $43 #
plane-surface $-1 -69.819987920004735 -35.412865833937317 0 -1 0 0 0 0 1 forward_v I I I I #
coedge $-1 $112 $113 $114 $115 forward $44 $-1 #
face $-1 $116 $117 $26 $-1 $118 reversed single #
loop $-1 $-1 $119 $46 #
plane-surface $-1 -35.302284676477825 0.42691074512889315 104.50229682707571 0.68199836817093118 0 0.7313536940579346 0.7313536940579346 0 -0.68199836817093118 forward_v I I I I #
coedge $-1 $120 $121 $122 $123 reversed $47 $-1 #
face $-1 $-1 $124 $27 $-1 $125 forward single #
loop $-1 $126 $127 $49 #
cone-surface $-1 65.35643075540105 0.42691074512889315 2.5210659751581623 -0.68199836817093118 0 -0.7313536940579346 0.7313536940579346 0 -0.68199836817093118 1 I I -0.70710678118654746 0.70710678118654746 1 forward I I I I #
loop $-1 $-1 $128 $35 #
coedge $-1 $80 $80 $129 $130 reversed $50 $-1 #
face $-1 $131 $132 $28 $-1 $133 reversed single #
loop $-1 $-1 $134 $52 #
plane-surface $-1 -76.295052949613932 14.228758426882848 6.5310433164023038 -0.68199836817093118 0 0.7313536940579346 0.7313536940579346 0 0.68199836817093118 forward_v I I I I #
coedge $-1 $135 $136 $137 $138 reversed $53 $-1 #
face $-1 $-1 $139 $29 $-1 $140 forward single #
loop $-1 $141 $142 $55 #
cone-surface $-1 -70.939780517203857 10.196250316378261 8.0514316039318707 0.68199836817093118 0 -0.7313536940579346 0.3656768470289673 0 0.34099918408546559 1 I I -0.70710678118654746 0.70710678118654746 0.5 forward I I I I #
loop $-1 $-1 $143 $37 #
coedge $-1 $89 $89 $144 $145 reversed $56 $-1 #
face $-1 $-1 $146 $30 $-1 $147 forward single #
loop $-1 $148 $149 $58 #
cone-surface $-1 -70.939780517203857 14.228758426882841 8.0514316039318707 0.68199836817093118 0 -0.7313536940579346 0.3656768470289673 0 0.34099918408546559 1 I I -0.70710678118654746 0.70710678118654746 0.5 forward I I I I #
loop $-1 $-1 $150 $38 #
coedge $-1 $94 $94 $151 $152 reversed $59 $-1 #
face $-1 $-1 $153 $31 $-1 $154 forward single #
loop $-1 $155 $156 $61 #
cone-surface $-1 -70.939780517203857 18.261266537387421 8.0514316039318707 0.68199836817093118 0 -0.7313536940579346 0.3656768470289673 0 0.34099918408546559 1 I I -0.70710678118654746 0.70710678118654746 0.5 forward I I I I #
loop $-1 $-1 $157 $39 #
coedge $-1 $99 $99 $158 $159 reversed $62 $-1 #
face $-1 $160 $161 $24 $-1 $162 reversed single #
loop $-1 $-1 $163 $64 #
plane-surface $-1 0 -40.277789969896588 0 0 1 0 0 0 1 forward_v I I I I #
coedge $-1 $164 $165 $166 $167 forward $65 $-1 #
coedge $-1 $168 $67 $169 $170 forward $41 $-1 #
coedge $-1 $67 $168 $171 $172 forward $41 $-1 #
coedge $-1 $173 $174 $67 $107 reversed $175 $-1 #
edge $-1 $176 -40.277789969896588 $177 40.277789969896588 $106 $178 forward 7 unknown #
face $-1 $179 $180 $25 $-1 $181 reversed single #
loop $-1 $-1 $182 $68 #
plane-surface $-1 0 0 13.287601978105659 0 0 1 1 0 0 forward_v I I I I #
coedge $-1 $183 $184 $185 $186 reversed $69 $-1 #
coedge $-1 $187 $71 $188 $189 reversed $44 $-1 #
coedge $-1 $71 $187 $190 $191 reversed $44 $-1 #
coedge $-1 $184 $183 $71 $115 reversed $69 $-1 #
edge $-1 $192 -13.287601978105659 $193 13.287601978105659 $114 $194 forward 7 unknown #
face $-1 $195 $196 $26 $-1 $197 reversed single #
loop $-1 $-1 $198 $72 #
plane-surface $-1 68.763918545825163 -7.4332605224159742 216.09963445316745 0 1 0 0.68199836817093118 0 0.7313536940579346 forward_v I I I I #
coedge $-1 $199 $200 $201 $202 reversed $73 $-1 #
coedge $-1 $121 $75 $203 $204 reversed $47 $-1 #
coedge $-1 $75 $120 $199 $205 reversed $47 $-1 #
coedge $-1 $201 $206 $75 $123 forward $207 $-1 #
edge $-1 $208 -41.913093676701351 $209 -28.131538526854072 $122 $210 forward 7 unknown #
loop $-1 $-1 $129 $76 #
plane-surface $-1 -35.302284676477825 0.42691074512889315 104.50229682707571 0.68199836817093118 0 0.7313536940579346 0.7313536940579346 0 -0.68199836817093118 forward_v I I I I #
loop $-1 $-1 $211 $49 #
coedge $-1 $127 $127 $128 $212 reversed $77 $-1 #
coedge $-1 $128 $128 $127 $212 forward $79 $-1 #
coedge $-1 $129 $129 $80 $130 forward $124 $-1 #
edge $-1 $213 0 $213 6.2831853071796004 $129 $214 forward 7 unknown #
face $-1 $215 $216 $28 $-1 $217 reversed single #
loop $-1 $-1 $218 $81 #
plane-surface $-1 -180.36125617191692 20.949605277723816 118.12838094249405 0 -1 0 0.68199836817093118 0 -0.7313536940579346 forward_v I I I I #
coedge $-1 $219 $220 $221 $222 reversed $82 $-1 #
coedge $-1 $136 $84 $223 $224 reversed $53 $-1 #
coedge $-1 $84 $135 $219 $225 reversed $53 $-1 #
coedge $-1 $221 $226 $84 $138 forward $227 $-1 #
edge $-1 $228 13.885575136344528 $229 21.131097071548623 $137 $230 forward 7 unknown #
loop $-1 $-1 $144 $85 #
plane-surface $-1 -76.295052949613932 14.228758426882848 6.5310433164023038 -0.68199836817093118 0 0.7313536940579346 0.7313536940579346 0 0.68199836817093118 forward_v I I I I #
loop $-1 $-1 $231 $55 #
coedge $-1 $142 $142 $143 $232 reversed $86 $-1 #
coedge $-1 $143 $143 $142 $232 forward $88 $-1 #
coedge $-1 $144 $144 $89 $145 forward $139 $-1 #
edge $-1 $233 0 $233 6.2831853071796004 $144 $234 forward 7 unknown #
loop $-1 $-1 $151 $90 #
plane-surface $-1 -76.295052949613932 14.228758426882848 6.5310433164023038 -0.68199836817093118 0 0.7313536940579346 0.7313536940579346 0 0.68199836817093118 forward_v I I I I #
loop $-1 $-1 $235 $58 #
coedge $-1 $149 $149 $150 $236 reversed $91 $-1 #
coedge $-1 $150 $150 $149 $236 forward $93 $-1 #
coedge $-1 $151 $151 $94 $152 forward $146 $-1 #
edge $-1 $237 0 $237 6.2831853071796004 $151 $238 forward 7 unknown #
loop $-1 $-1 $158 $95 #
plane-surface $-1 -76.295052949613932 14.228758426882848 6.5310433164023038 -0.68199836817093118 0 0.7313536940579346 0.7313536940579346 0 0.68199836817093118 forward_v I I I I #
loop $-1 $-1 $239 $61 #
coedge $-1 $156 $156 $157 $240 reversed $96 $-1 #
coedge $-1 $157 $157 $156 $240 forward $98 $-1 #
coedge $-1 $158 $158 $99 $159 forward $153 $-1 #
edge $-1 $241 0 $241 6.2831853071796004 $158 $242 forward 7 unknown #
face $-1 $243 $244 $24 $-1 $245 reversed single #
loop $-1 $-1 $246 $100 #
plane-surface $-1 -76.295052949613932 0 0 1 0 0 0 0 -1 forward_v I I I I #
coedge $-1 $247 $171 $248 $249 forward $101 $-1 #
coedge $-1 $250 $103 $247 $251 forward $65 $-1 #
coedge $-1 $103 $250 $252 $253 forward $65 $-1 #
coedge $-1 $174 $173 $103 $167 reversed $175 $-1 #
edge $-1 $254 -40.277789969896588 $255 40.277789969896588 $166 $256 forward 7 unknown #
coedge $-1 $105 $104 $257 $258 forward $41 $-1 #
coedge $-1 $259 $260 $104 $170 reversed $244 $-1 #
edge $-1 $177 -76.295052949613932 $261 76.295052949613932 $169 $262 forward 7 unknown #
coedge $-1 $163 $263 $105 $172 reversed $101 $-1 #
edge $-1 $264 -76.295052949613932 $176 76.295052949613932 $171 $265 forward 7 unknown #
coedge $-1 $166 $106 $263 $266 forward $175 $-1 #
coedge $-1 $106 $166 $259 $267 reversed $175 $-1 #
loop $-1 $-1 $173 $243 #
vertex $-1 $107 $268 #
vertex $-1 $107 $269 #
straight-curve $-1 76.295052949613932 0 13.287601978105659 0 1 0 I I #
face $-1 $270 $271 $25 $-1 $272 reversed single #
loop $-1 $-1 $273 $108 #
plane-surface $-1 -76.295052949613932 0 0 1 0 0 0 0 -1 forward_v I I I I #
coedge $-1 $190 $274 $184 $275 forward $109 $-1 #
coedge $-1 $114 $111 $276 $277 reversed $69 $-1 #
coedge $-1 $111 $114 $182 $275 reversed $69 $-1 #
coedge $-1 $278 $279 $111 $186 forward $280 $-1 #
edge $-1 $281 -13.287601978105659 $282 13.287601978105659 $185 $283 forward 7 unknown #
coedge $-1 $113 $112 $273 $284 reversed $44 $-1 #
coedge $-1 $276 $285 $112 $189 forward $271 $-1 #
edge $-1 $286 -39.766292732209266 $193 -33.291227702600068 $188 $287 forward 7 unknown #
coedge $-1 $288 $182 $113 $191 forward $109 $-1 #
edge $-1 $192 33.291227702600068 $289 39.766292732209266 $190 $290 forward 7 unknown #
vertex $-1 $191 $291 #
vertex $-1 $189 $292 #
straight-curve $-1 -69.819987920004735 -30.547941697978043 0 0 0 -1 I I #
face $-1 $-1 $207 $26 $-1 $293 forward single #
loop $-1 $-1 $294 $116 #
plane-surface $-1 76.295052949613932 0 0 -1 0 0 0 0 1 forward_v I I I I #
coedge $-1 $295 $296 $297 $298 reversed $117 $-1 #
coedge $-1 $299 $119 $121 $205 forward $73 $-1 #
coedge $-1 $119 $299 $295 $300 forward $73 $-1 #
coedge $-1 $297 $122 $119 $202 forward $207 $-1 #
edge $-1 $209 -8.073626640109314 $301 7.6467158949804208 $201 $302 forward 7 unknown #
coedge $-1 $303 $304 $120 $204 forward $196 $-1 #
edge $-1 $305 -107.61372362181102 $208 -94.762215248478071 $203 $306 forward 7 unknown #
edge $-1 $209 133.74620689137581 $305 152.59010589922789 $121 $307 forward 7 unknown #
coedge $-1 $122 $297 $303 $308 forward $207 $-1 #
loop $-1 $-1 $297 $195 #
vertex $-1 $204 $309 #
vertex $-1 $123 $310 #
straight-curve $-1 34.381959272912582 8.2870820126737605 13.287601978105656 -1 0 0 I I #
coedge $-1 $211 $211 $-1 $311 reversed $126 $-1 #
edge $-1 $312 0 $312 6.2831853071796004 $127 $313 forward 7 unknown #
vertex $-1 $130 $314 #
ellipse-curve $-1 69.4042753746903 0.42691074512889315 6.861847791439204 0.68199836817093118 0 0.7313536940579346 1.4627073881158692 0 -1.3639967363418624 1 I I #
face $-1 $-1 $227 $28 $-1 $315 forward single #
loop $-1 $-1 $316 $131 #
plane-surface $-1 -76.295052949613932 0 0 1 0 0 0 0 -1 forward_v I I I I #
coedge $-1 $317 $318 $319 $320 reversed $132 $-1 #
coedge $-1 $321 $134 $136 $225 forward $82 $-1 #
coedge $-1 $134 $321 $317 $322 forward $82 $-1 #
coedge $-1 $319 $137 $134 $222 forward $227 $-1 #
edge $-1 $229 0.39353236260045676 $323 13.835226064282391 $221 $324 forward 7 unknown #
coedge $-1 $325 $326 $135 $224 forward $216 $-1 #
edge $-1 $327 -52.53314715484472 $228 -45.776588493141361 $223 $328 forward 7 unknown #
edge $-1 $229 -9.90700121442217 $327 0 $136 $329 forward 7 unknown #
coedge $-1 $137 $319 $325 $330 forward $227 $-1 #
loop $-1 $-1 $319 $215 #
vertex $-1 $224 $331 #
vertex $-1 $138 $332 #
straight-curve $-1 -90.18062808595846 7.5079115760418809 13.287601978105656 1 0 0 I I #
coedge $-1 $231 $231 $-1 $333 reversed $141 $-1 #
edge $-1 $334 0 $334 6.2831853071796004 $142 $335 forward 7 unknown #
vertex $-1 $145 $336 #
ellipse-curve $-1 -72.672291982011885 10.196250316378261 9.9093226472539815 -0.68199836817093118 0 0.7313536940579346 0.7313536940579346 0 0.68199836817093118 1 I I #
coedge $-1 $235 $235 $-1 $337 reversed $148 $-1 #
edge $-1 $338 0 $338 6.2831853071796004 $149 $339 forward 7 unknown #
vertex $-1 $152 $340 #
ellipse-curve $-1 -72.672291982011885 14.228758426882841 9.9093226472539815 -0.68199836817093118 0 0.7313536940579346 0.7313536940579346 0 0.68199836817093118 1 I I #
coedge $-1 $239 $239 $-1 $341 reversed $155 $-1 #
edge $-1 $342 0 $342 6.2831853071796004 $156 $343 forward 7 unknown #
vertex $-1 $159 $344 #
ellipse-curve $-1 -72.672291982011885 18.261266537387421 9.9093226472539815 -0.68199836817093118 0 0.7313536940579346 0.7313536940579346 0 0.68199836817093118 1 I I #
face $-1 $-1 $175 $24 $-1 $345 reversed single #
loop $-1 $-1 $259 $160 #
plane-surface $-1 0 40.277789969896588 0 0 -1 0 0 0 -1 forward_v I I I I #
coedge $-1 $346 $257 $260 $347 forward $161 $-1 #
coedge $-1 $263 $163 $164 $251 reversed $101 $-1 #
coedge $-1 $257 $346 $163 $249 reversed $161 $-1 #
edge $-1 $264 -13.287601978105659 $348 13.287601978105659 $248 $349 forward 7 unknown #
coedge $-1 $165 $164 $346 $350 forward $65 $-1 #
edge $-1 $255 -76.295052949613932 $348 76.295052949613932 $247 $351 forward 7 unknown #
coedge $-1 $260 $259 $165 $253 reversed $244 $-1 #
edge $-1 $352 -76.295052949613932 $254 76.295052949613932 $252 $353 forward 7 unknown #
vertex $-1 $167 $354 #
vertex $-1 $266 $355 #
straight-curve $-1 76.295052949613932 0 -13.287601978105659 0 -1 0 I I #
coedge $-1 $246 $248 $168 $258 reversed $161 $-1 #
edge $-1 $261 -40.277789969896588 $264 40.277789969896588 $257 $356 forward 7 unknown #
coedge $-1 $252 $169 $174 $267 forward $244 $-1 #
coedge $-1 $169 $252 $246 $347 reversed $244 $-1 #
vertex $-1 $170 $357 #
straight-curve $-1 0 40.277789969896588 13.287601978105659 -1 0 0 I I #
coedge $-1 $171 $247 $173 $266 reversed $101 $-1 #
vertex $-1 $258 $358 #
straight-curve $-1 0 -40.277789969896588 13.287601978105659 1 0 0 I I #
edge $-1 $176 -13.287601978105659 $255 13.287601978105659 $173 $359 forward 7 unknown #
edge $-1 $177 -13.287601978105659 $254 13.287601978105659 $174 $360 forward 7 unknown #
point $-1 76.295052949613932 -40.277789969896588 13.287601978105659 #
point $-1 76.295052949613932 40.277789969896588 13.287601978105659 #
face $-1 $-1 $280 $25 $-1 $361 reversed single #
loop $-1 $-1 $276 $179 #
plane-surface $-1 0 0 -13.287601978105659 0 0 1 1 0 0 forward_v I I I I #
coedge $-1 $362 $363 $187 $284 forward $180 $-1 #
coedge $-1 $182 $288 $278 $364 forward $109 $-1 #
edge $-1 $282 -22.571357052927929 $192 -12.841508781009384 $182 $365 forward 7 unknown #
coedge $-1 $366 $188 $183 $277 forward $271 $-1 #
edge $-1 $193 12.841508781009384 $281 22.571357052927929 $276 $367 forward 7 unknown #
coedge $-1 $368 $185 $274 $364 reversed $280 $-1 #
coedge $-1 $185 $368 $366 $369 reversed $280 $-1 #
loop $-1 $-1 $185 $270 #
vertex $-1 $369 $370 #
vertex $-1 $186 $371 #
straight-curve $-1 -69.819987920004735 -40.277789969896588 0 0 0 1 I I #
edge $-1 $289 -13.287601978105659 $286 13.287601978105659 $273 $372 forward 7 unknown #
coedge $-1 $188 $366 $362 $373 forward $271 $-1 #
vertex $-1 $189 $374 #
straight-curve $-1 -36.528760217404667 -30.547941697978043 -13.287601978105659 1 0 0 I I #
coedge $-1 $274 $190 $363 $375 forward $109 $-1 #
vertex $-1 $375 $376 #
straight-curve $-1 -36.528760217404667 -30.547941697978043 13.287601978105659 -1 0 0 I I #
point $-1 -69.819987920004735 -30.547941697978043 13.287601978105659 #
point $-1 -69.819987920004735 -30.547941697978043 -13.287601978105659 #
plane-surface $-1 0 0 13.287601978105659 0 0 1 1 0 0 forward_v I I I I #
coedge $-1 $304 $303 $296 $377 forward $196 $-1 #
coedge $-1 $296 $198 $200 $300 reversed $117 $-1 #
coedge $-1 $198 $295 $294 $377 reversed $117 $-1 #
coedge $-1 $206 $201 $198 $298 forward $207 $-1 #
edge $-1 $301 28.131538526854072 $378 41.913093676701351 $297 $379 forward 7 unknown #
coedge $-1 $200 $199 $304 $380 reversed $73 $-1 #
edge $-1 $381 -152.59010589922789 $301 -133.74620689137581 $295 $382 forward 7 unknown #
vertex $-1 $202 $383 #
straight-curve $-1 62.513497799766668 0.21345537256444658 13.287601978105656 0 -1 0 I I #
coedge $-1 $294 $203 $206 $308 reversed $196 $-1 #
coedge $-1 $203 $294 $299 $380 forward $196 $-1 #
vertex $-1 $204 $384 #
straight-curve $-1 76.295052949613932 8.2870820126737605 108.04981722658373 0 0 1 I I #
straight-curve $-1 -35.302284676477825 8.2870820126737605 104.50229682707571 0.7313536940579346 0 -0.68199836817093118 I I #
edge $-1 $378 -7.4332605224159742 $208 8.2870820126737605 $303 $385 forward 7 unknown #
point $-1 76.295052949613932 8.2870820126737605 13.287601978105659 #
point $-1 62.513497799766654 8.2870820126737605 13.287601978105656 #
edge $-1 $386 1 $386 0 $211 $-1 forward 7 unknown #
vertex $-1 $212 $387 #
ellipse-curve $-1 66.038429123571987 0.42691074512889315 3.2524196692160969 0.68199836817093118 0 0.7313536940579346 1.4627073881158692 0 -1.3639967363418624 1 I I #
point $-1 70.866982762806174 0.42691074512889315 5.4978510550973514 #
plane-surface $-1 0 0 13.287601978105659 0 0 1 1 0 0 forward_v I I I I #
coedge $-1 $326 $325 $318 $388 forward $216 $-1 #
coedge $-1 $318 $218 $220 $322 reversed $132 $-1 #
coedge $-1 $218 $317 $316 $388 reversed $132 $-1 #
coedge $-1 $226 $221 $218 $320 forward $227 $-1 #
edge $-1 $323 -21.131097071548623 $389 -13.885575136344528 $319 $390 forward 7 unknown #
coedge $-1 $220 $219 $326 $391 reversed $82 $-1 #
edge $-1 $392 0 $323 9.90700121442217 $317 $393 forward 7 unknown #
vertex $-1 $222 $394 #
straight-curve $-1 -69.049531014409837 7.1143792134414241 13.287601978105659 0 1 0 I I #
coedge $-1 $316 $223 $226 $330 reversed $216 $-1 #
coedge $-1 $223 $316 $321 $391 forward $216 $-1 #
vertex $-1 $224 $395 #
straight-curve $-1 -76.295052949613932 7.5079115760418809 59.064190471247024 0 0 1 I I #
straight-curve $-1 -76.295052949613932 7.5079115760418809 6.5310433164023038 -0.7313536940579346 0 -0.68199836817093118 I I #
edge $-1 $389 -20.949605277723816 $228 -7.5079115760418809 $325 $396 forward 7 unknown #
point $-1 -76.295052949613932 7.5079115760418809 13.287601978105659 #
point $-1 -69.049531014409837 7.5079115760418809 13.287601978105659 #
edge $-1 $397 1 $397 0 $231 $-1 forward 7 unknown #
vertex $-1 $232 $398 #
ellipse-curve $-1 -71.280779701289319 10.196250316378261 8.4171084509608374 -0.68199836817093118 0 0.7313536940579346 0.7313536940579346 0 0.68199836817093118 1 I I #
point $-1 -71.940938287953941 10.196250316378261 10.591321015424906 #
edge $-1 $399 1 $399 0 $235 $-1 forward 7 unknown #
vertex $-1 $236 $400 #
ellipse-curve $-1 -71.280779701289319 14.228758426882841 8.4171084509608374 -0.68199836817093118 0 0.7313536940579346 0.7313536940579346 0 0.68199836817093118 1 I I #
point $-1 -71.940938287953941 14.228758426882841 10.591321015424906 #
edge $-1 $401 1 $401 0 $239 $-1 forward 7 unknown #
vertex $-1 $240 $402 #
ellipse-curve $-1 -71.280779701289319 18.261266537387421 8.4171084509608374 -0.68199836817093118 0 0.7313536940579346 0.7313536940579346 0 0.68199836817093118 1 I I #
point $-1 -71.940938287953941 18.261266537387421 10.591321015424906 #
plane-surface $-1 76.295052949613932 0 0 -1 0 0 0 0 1 forward_v I I I I #
coedge $-1 $248 $246 $250 $350 reversed $161 $-1 #
edge $-1 $261 -13.287601978105659 $352 13.287601978105659 $260 $403 forward 7 unknown #
vertex $-1 $350 $404 #
straight-curve $-1 -76.295052949613932 -40.277789969896588 0 0 0 -1 I I #
edge $-1 $348 -40.277789969896588 $352 40.277789969896588 $346 $405 forward 7 unknown #
straight-curve $-1 0 -40.277789969896588 -13.287601978105659 -1 0 0 I I #
vertex $-1 $253 $406 #
straight-curve $-1 0 40.277789969896588 -13.287601978105659 1 0 0 I I #
point $-1 76.295052949613932 40.277789969896588 -13.287601978105659 #
point $-1 76.295052949613932 -40.277789969896588 -13.287601978105659 #
straight-curve $-1 -76.295052949613932 0 13.287601978105659 0 -1 0 I I #
point $-1 -76.295052949613932 40.277789969896588 13.287601978105659 #
point $-1 -76.295052949613932 -40.277789969896588 13.287601978105659 #
straight-curve $-1 76.295052949613932 -40.277789969896588 0 0 0 -1 I I #
straight-curve $-1 76.295052949613932 40.277789969896588 0 0 0 -1 I I #
plane-surface $-1 0 -40.277789969896588 0 0 1 0 0 0 1 forward_v I I I I #
coedge $-1 $407 $273 $285 $373 reversed $180 $-1 #
coedge $-1 $273 $407 $288 $375 reversed $180 $-1 #
edge $-1 $408 -76.295052949613932 $282 -69.819987920004735 $278 $409 forward 7 unknown #
straight-curve $-1 -69.819987920004735 -17.706432916968659 13.287601978105659 0 1 0 I I #
coedge $-1 $285 $276 $279 $369 forward $271 $-1 #
straight-curve $-1 -69.819987920004735 -17.706432916968659 -13.287601978105659 0 -1 0 I I #
coedge $-1 $279 $278 $407 $410 forward $280 $-1 #
edge $-1 $281 69.819987920004735 $411 76.295052949613932 $279 $412 forward 7 unknown #
point $-1 -69.819987920004735 -40.277789969896588 -13.287601978105659 #
point $-1 -69.819987920004735 -40.277789969896588 13.287601978105659 #
straight-curve $-1 -76.295052949613932 -30.547941697978043 0 0 0 -1 I I #
edge $-1 $411 -40.277789969896588 $286 -30.547941697978043 $362 $413 forward 7 unknown #
point $-1 -76.295052949613932 -30.547941697978043 -13.287601978105659 #
edge $-1 $289 30.547941697978043 $408 40.277789969896588 $363 $414 forward 7 unknown #
point $-1 -76.295052949613932 -30.547941697978043 13.287601978105659 #
edge $-1 $378 94.762215248478071 $381 107.61372362181102 $294 $415 forward 7 unknown #
vertex $-1 $308 $416 #
straight-curve $-1 34.381959272912582 -7.4332605224159742 13.287601978105656 1 0 0 I I #
edge $-1 $381 -7.6467158949804208 $305 8.073626640109314 $304 $417 forward 7 unknown #
vertex $-1 $380 $418 #
straight-curve $-1 -35.302284676477825 -7.4332605224159742 104.50229682707571 -0.7313536940579346 0 0.68199836817093118 I I #
point $-1 62.513497799766654 -7.4332605224159742 13.287601978105656 #
point $-1 76.295052949613932 8.2870820126737605 0.43609360477270798 #
straight-curve $-1 76.295052949613932 0 13.287601978105659 0 1 0 I I #
vertex $-1 $311 $419 #
point $-1 67.501136511687847 0.42691074512889315 1.8884229328742346 #
edge $-1 $389 45.776588493141361 $392 52.53314715484472 $316 $420 forward 7 unknown #
vertex $-1 $330 $421 #
straight-curve $-1 -90.18062808595846 20.949605277723816 13.287601978105656 -1 0 0 I I #
edge $-1 $392 -13.835226064282391 $327 -0.39353236260045676 $326 $422 forward 7 unknown #
vertex $-1 $391 $423 #
straight-curve $-1 -76.295052949613932 20.949605277723816 6.5310433164023038 0.7313536940579346 0 0.68199836817093118 I I #
point $-1 -69.049531014409837 20.949605277723816 13.287601978105659 #
point $-1 -76.295052949613932 7.5079115760418809 6.5310433164023038 #
straight-curve $-1 -76.295052949613932 0 13.287601978105659 0 -1 0 I I #
vertex $-1 $333 $424 #
point $-1 -70.549426007231389 10.196250316378261 9.0991068191317694 #
vertex $-1 $337 $425 #
point $-1 -70.549426007231389 14.228758426882841 9.0991068191317694 #
vertex $-1 $341 $426 #
point $-1 -70.549426007231389 18.261266537387421 9.0991068191317694 #
straight-curve $-1 -76.295052949613932 40.277789969896588 0 0 0 -1 I I #
point $-1 -76.295052949613932 -40.277789969896588 -13.287601978105659 #
straight-curve $-1 -76.295052949613932 0 -13.287601978105659 0 1 0 I I #
point $-1 -76.295052949613932 40.277789969896588 -13.287601978105659 #
coedge $-1 $363 $362 $368 $410 reversed $180 $-1 #
vertex $-1 $375 $427 #
straight-curve $-1 0 -40.277789969896588 13.287601978105659 1 0 0 I I #
edge $-1 $408 -13.287601978105659 $411 13.287601978105659 $407 $428 forward 7 unknown #
vertex $-1 $373 $429 #
straight-curve $-1 0 -40.277789969896588 -13.287601978105659 -1 0 0 I I #
straight-curve $-1 -76.295052949613932 0 -13.287601978105659 0 1 0 I I #
straight-curve $-1 -76.295052949613932 0 13.287601978105659 0 -1 0 I I #
straight-curve $-1 76.295052949613932 -7.4332605224159742 108.04981722658373 0 0 -1 I I #
point $-1 76.295052949613932 -7.4332605224159742 13.287601978105659 #
straight-curve $-1 76.295052949613932 0.21345537256444658 0.43609360477270798 0 1 0 I I #
point $-1 76.295052949613932 -7.4332605224159742 0.43609360477270798 #
point $-1 64.674432387230112 0.42691074512889315 1.7897122811002277 #
straight-curve $-1 -76.295052949613932 20.949605277723816 59.064190471247024 0 0 -1 I I #
point $-1 -76.295052949613932 20.949605277723816 13.287601978105659 #
straight-curve $-1 -76.295052949613932 7.1143792134414241 6.5310433164023074 0 -1 0 I I #
point $-1 -76.295052949613932 20.949605277723816 6.5310433164023038 #
point $-1 -70.598781333118396 10.196250316378261 7.6857547569029032 #
point $-1 -70.598781333118396 14.228758426882841 7.6857547569029032 #
point $-1 -70.598781333118396 18.261266537387421 7.6857547569029032 #
point $-1 -76.295052949613932 -40.277789969896588 13.287601978105659 #
straight-curve $-1 -76.295052949613932 -40.277789969896588 0 0 0 -1 I I #
point $-1 -76.295052949613932 -40.277789969896588 -13.287601978105659 #
End-of-ACIS-data 