500 0 13 0           
7 Unknown 11 ACIS 5.0 NT 24 Fri Mar 26 18:32:02 1999 
-1 9.9999999999999995e-007 1e-010 
body $-1 $13 $-1 $14 #
body $-1 $15 $-1 $16 #
body $-1 $17 $-1 $18 #
body $-1 $19 $-1 $20 #
body $-1 $21 $-1 $22 #
body $-1 $23 $-1 $24 #
body $-1 $25 $-1 $26 #
body $-1 $27 $-1 $28 #
body $-1 $29 $-1 $30 #
body $-1 $31 $-1 $32 #
body $-1 $33 $-1 $34 #
body $-1 $35 $-1 $36 #
body $-1 $37 $-1 $38 #
lump $-1 $-1 $39 $0 #
transform $-1 1 0 0 0 1 0 0 0 1 75.826288644062629 46.48875577432073 13.472332745805071 1 rotate no_reflect no_shear #
lump $-1 $-1 $40 $1 #
transform $-1 1 0 0 0 1 0 0 0 1 75.826288644062629 46.48875577432073 13.472332745805071 1 rotate no_reflect no_shear #
lump $-1 $-1 $41 $2 #
transform $-1 1 0 0 0 1 0 0 0 1 75.826288644062629 46.48875577432073 13.472332745805071 1 rotate no_reflect no_shear #
lump $-1 $-1 $42 $3 #
transform $-1 1 0 0 0 1 0 0 0 1 75.826288644062629 46.48875577432073 13.472332745805071 1 rotate no_reflect no_shear #
lump $-1 $-1 $43 $4 #
transform $-1 1 0 0 0 1 0 0 0 1 75.826288644062629 46.48875577432073 13.472332745805071 1 rotate no_reflect no_shear #
lump $-1 $-1 $44 $5 #
transform $-1 1 0 0 0 1 0 0 0 1 75.826288644062629 46.48875577432073 13.472332745805071 1 rotate no_reflect no_shear #
lump $-1 $-1 $45 $6 #
transform $-1 1 0 0 0 1 0 0 0 1 75.826288644062629 46.48875577432073 13.472332745805071 1 rotate no_reflect no_shear #
lump $-1 $-1 $46 $7 #
transform $-1 1 0 0 0 1 0 0 0 1 75.826288644062629 46.48875577432073 13.472332745805071 1 rotate no_reflect no_shear #
lump $-1 $-1 $47 $8 #
transform $-1 1 0 0 0 1 0 0 0 1 75.826288644062629 46.48875577432073 13.472332745805071 1 rotate no_reflect no_shear #
lump $-1 $-1 $48 $9 #
transform $-1 1 0 0 0 1 0 0 0 1 75.826288644062629 46.48875577432073 13.472332745805071 1 rotate no_reflect no_shear #
lump $-1 $-1 $49 $10 #
transform $-1 1 0 0 0 1 0 0 0 1 75.826288644062629 46.48875577432073 13.472332745805071 1 rotate no_reflect no_shear #
lump $-1 $-1 $50 $11 #
transform $-1 1 0 0 0 1 0 0 0 1 75.826288644062629 46.48875577432073 13.472332745805071 1 rotate no_reflect no_shear #
lump $-1 $-1 $51 $12 #
transform $-1 1 0 0 0 1 0 0 0 1 75.826288644062629 46.48875577432073 13.472332745805071 1 rotate no_reflect no_shear #
shell $-1 $-1 $-1 $52 $-1 $13 #
shell $-1 $-1 $-1 $53 $-1 $15 #
shell $-1 $-1 $-1 $54 $-1 $17 #
shell $-1 $-1 $-1 $55 $-1 $19 #
shell $-1 $-1 $-1 $56 $-1 $21 #
shell $-1 $-1 $-1 $57 $-1 $23 #
shell $-1 $-1 $-1 $58 $-1 $25 #
shell $-1 $-1 $-1 $59 $-1 $27 #
shell $-1 $-1 $-1 $60 $-1 $29 #
shell $-1 $-1 $-1 $61 $-1 $31 #
shell $-1 $-1 $-1 $62 $-1 $33 #
shell $-1 $-1 $-1 $63 $-1 $35 #
shell $-1 $-1 $-1 $64 $-1 $37 #
face $-1 $65 $66 $39 $-1 $67 forward single #
face $-1 $68 $69 $40 $-1 $70 reversed single #
face $-1 $71 $72 $41 $-1 $73 reversed single #
face $-1 $74 $75 $42 $-1 $76 reversed single #
face $-1 $77 $78 $43 $-1 $79 forward single #
face $-1 $80 $81 $44 $-1 $82 forward single #
face $-1 $83 $84 $45 $-1 $85 forward single #
face $-1 $86 $87 $46 $-1 $88 reversed single #
face $-1 $89 $90 $47 $-1 $91 forward single #
face $-1 $92 $93 $48 $-1 $94 forward single #
face $-1 $95 $96 $49 $-1 $97 reversed single #
face $-1 $98 $99 $50 $-1 $100 forward single #
face $-1 $101 $102 $51 $-1 $103 forward single #
face $-1 $104 $105 $39 $-1 $106 reversed single #
loop $-1 $-1 $107 $52 #
plane-surface $-1 0 0 13.472332745805071 0 0 1 1 0 0 forward_v I I I I #
face $-1 $108 $109 $40 $-1 $110 reversed single #
loop $-1 $-1 $111 $53 #
plane-surface $-1 -72.716925065152424 -36.378597910222602 0 0 -1 0 0 0 -1 forward_v I I I I #
face $-1 $112 $113 $41 $-1 $114 reversed single #
loop $-1 $-1 $115 $54 #
plane-surface $-1 0 39.693292553107391 7.7862986726571872 0 0 1 1 0 0 forward_v I I I I #
face $-1 $116 $117 $42 $-1 $118 reversed single #
loop $-1 $-1 $119 $55 #
plane-surface $-1 60.865680560471702 22.417462576258927 223.03260370846525 0 1 0 0.6560590369687036 0 0.75470957328743171 forward_v I I I I #
face $-1 $120 $121 $43 $-1 $122 forward single #
loop $-1 $123 $124 $56 #
cone-surface $-1 72.647798065663508 24.513535927385952 10.525067232003924 -0.6560590369687036 0 -0.75470957328743171 0.37735478664371586 0 -0.3280295184843518 1 I I 0 1 0.5 forward I I I I #
face $-1 $125 $126 $44 $-1 $127 forward single #
loop $-1 $128 $129 $57 #
cone-surface $-1 72.647798065663508 27.657645954076493 10.525067232003924 -0.6560590369687036 0 -0.75470957328743171 0.37735478664371586 0 -0.3280295184843518 1 I I 0 1 0.5 forward I I I I #
face $-1 $130 $131 $45 $-1 $132 forward single #
loop $-1 $133 $134 $58 #
cone-surface $-1 72.647798065663508 30.801755980767034 10.525067232003924 -0.6560590369687036 0 -0.75470957328743171 0.37735478664371586 0 -0.3280295184843518 1 I I 0 1 0.5 forward I I I I #
face $-1 $135 $136 $46 $-1 $137 reversed single #
loop $-1 $-1 $138 $59 #
plane-surface $-1 -186.73796365716925 -22.048951926061456 107.9603334690773 0 1 0 -0.73135370988377701 0 0.68199835119979291 forward_v I I I I #
face $-1 $139 $140 $47 $-1 $141 forward single #
loop $-1 $142 $143 $60 #
cone-surface $-1 -70.733144952504645 -18.920701519435021 8.1400193456260173 0.73135370988377701 0 -0.68199835119979291 0.68199835119979291 0 0.73135370988377701 1 I I 0 1 1 forward I I I I #
face $-1 $144 $145 $48 $-1 $146 forward single #
loop $-1 $147 $148 $61 #
cone-surface $-1 -70.733144952504645 -14.228325909495368 8.1400193456260173 0.73135370988377701 0 -0.68199835119979291 0.68199835119979291 0 0.73135370988377701 1 I I 0 1 1 forward I I I I #
face $-1 $149 $150 $49 $-1 $151 reversed single #
loop $-1 $-1 $152 $62 #
plane-surface $-1 -186.73796365716925 12.589261694996871 107.9603334690773 0 1 0 -0.73135370988377701 0 0.68199835119979291 forward_v I I I I #
face $-1 $153 $154 $50 $-1 $155 forward single #
loop $-1 $156 $157 $63 #
cone-surface $-1 -70.733144952504645 15.717512101623306 8.1400193456260173 0.73135370988377701 0 -0.68199835119979291 0.68199835119979291 0 0.73135370988377701 1 I I 0 1 1 forward I I I I #
face $-1 $158 $159 $51 $-1 $160 forward single #
loop $-1 $161 $162 $64 #
cone-surface $-1 -70.733144952504645 20.409887711562966 8.1400193456260173 0.73135370988377701 0 -0.68199835119979291 0.68199835119979291 0 0.73135370988377701 1 I I 0 1 1 forward I I I I #
face $-1 $163 $164 $39 $-1 $165 reversed single #
loop $-1 $-1 $166 $65 #
plane-surface $-1 0 0 -13.472332745805071 0 0 1 1 0 0 forward_v I I I I #
coedge $-1 $167 $168 $169 $170 forward $66 $-1 #
face $-1 $171 $172 $40 $-1 $173 forward single #
loop $-1 $-1 $174 $68 #
plane-surface $-1 -69.607561486242219 -41.433676842271666 0 -1 0 0 0 0 1 forward_v I I I I #
coedge $-1 $175 $176 $177 $178 forward $69 $-1 #
face $-1 $179 $180 $41 $-1 $181 reversed single #
loop $-1 $-1 $182 $71 #
plane-surface $-1 0 32.897829331894052 10.629315709231127 0 1 0 0 0 1 forward_v I I I I #
coedge $-1 $183 $184 $185 $186 reversed $72 $-1 #
face $-1 $187 $188 $42 $-1 $189 reversed single #
loop $-1 $-1 $190 $74 #
plane-surface $-1 -38.627363248997653 27.657645954076493 108.57895181540498 0.6560590369687036 0 0.75470957328743171 0.75470957328743171 0 -0.6560590369687036 forward_v I I I I #
coedge $-1 $191 $192 $193 $194 reversed $75 $-1 #
face $-1 $-1 $195 $43 $-1 $196 forward single #
loop $-1 $197 $198 $77 #
cone-surface $-1 71.828294894854821 24.513535927385952 9.5823366948156572 -0.6560590369687036 0 -0.75470957328743171 0.18867739332185793 0 -0.1640147592421759 1 I I -0.70710678118654746 0.70710678118654746 0.25 forward I I I I #
loop $-1 $-1 $199 $56 #
coedge $-1 $124 $124 $200 $201 reversed $78 $-1 #
face $-1 $-1 $202 $44 $-1 $203 forward single #
loop $-1 $204 $205 $80 #
cone-surface $-1 71.828294894854821 27.657645954076493 9.5823366948156572 -0.6560590369687036 0 -0.75470957328743171 0.18867739332185793 0 -0.1640147592421759 1 I I -0.70710678118654746 0.70710678118654746 0.25 forward I I I I #
loop $-1 $-1 $206 $57 #
coedge $-1 $129 $129 $207 $208 reversed $81 $-1 #
face $-1 $-1 $209 $45 $-1 $210 forward single #
loop $-1 $211 $212 $83 #
cone-surface $-1 71.828294894854821 30.801755980767034 9.5823366948156572 -0.6560590369687036 0 -0.75470957328743171 0.18867739332185793 0 -0.1640147592421759 1 I I -0.70710678118654746 0.70710678118654746 0.25 forward I I I I #
loop $-1 $-1 $213 $58 #
coedge $-1 $134 $134 $214 $215 reversed $84 $-1 #
face $-1 $216 $217 $46 $-1 $218 reversed single #
loop $-1 $-1 $219 $86 #
plane-surface $-1 -75.826288644062615 -16.574513714465191 4.5335258033767047 -0.73135370988377701 0 0.68199835119979291 0.68199835119979291 0 0.73135370988377701 forward_v I I I I #
coedge $-1 $220 $221 $222 $223 reversed $87 $-1 #
face $-1 $-1 $224 $47 $-1 $225 forward single #
loop $-1 $226 $227 $89 #
cone-surface $-1 -69.442110467689062 -18.920701519435021 6.9361102410612414 0.73135370988377701 0 -0.68199835119979291 0.34099917559989645 0 0.36567685494188851 1 I I -0.70710678118654746 0.70710678118654746 0.5 forward I I I I #
loop $-1 $-1 $228 $60 #
coedge $-1 $143 $143 $229 $230 reversed $90 $-1 #
face $-1 $-1 $231 $48 $-1 $232 forward single #
loop $-1 $233 $234 $92 #
cone-surface $-1 -69.442110467689062 -14.228325909495368 6.9361102410612414 0.73135370988377701 0 -0.68199835119979291 0.34099917559989645 0 0.36567685494188851 1 I I -0.70710678118654746 0.70710678118654746 0.5 forward I I I I #
loop $-1 $-1 $235 $61 #
coedge $-1 $148 $148 $236 $237 reversed $93 $-1 #
face $-1 $238 $239 $49 $-1 $240 reversed single #
loop $-1 $-1 $241 $95 #
plane-surface $-1 -75.826288644062615 18.063699906593136 4.5335258033767047 -0.73135370988377701 0 0.68199835119979291 0.68199835119979291 0 0.73135370988377701 forward_v I I I I #
coedge $-1 $242 $243 $244 $245 reversed $96 $-1 #
face $-1 $-1 $246 $50 $-1 $247 forward single #
loop $-1 $248 $249 $98 #
cone-surface $-1 -69.442110467689062 15.717512101623306 6.9361102410612414 0.73135370988377701 0 -0.68199835119979291 0.34099917559989645 0 0.36567685494188851 1 I I -0.70710678118654746 0.70710678118654746 0.5 forward I I I I #
loop $-1 $-1 $250 $63 #
coedge $-1 $157 $157 $251 $252 reversed $99 $-1 #
face $-1 $-1 $253 $51 $-1 $254 forward single #
loop $-1 $255 $256 $101 #
cone-surface $-1 -69.442110467689062 20.409887711562966 6.9361102410612414 0.73135370988377701 0 -0.68199835119979291 0.34099917559989645 0 0.36567685494188851 1 I I -0.70710678118654746 0.70710678118654746 0.5 forward I I I I #
loop $-1 $-1 $257 $64 #
coedge $-1 $162 $162 $258 $259 reversed $102 $-1 #
face $-1 $260 $261 $39 $-1 $262 reversed single #
loop $-1 $-1 $263 $104 #
plane-surface $-1 0 -46.48875577432073 0 0 1 0 0 0 1 forward_v I I I I #
coedge $-1 $264 $265 $266 $267 forward $105 $-1 #
coedge $-1 $268 $107 $269 $270 forward $66 $-1 #
coedge $-1 $107 $268 $271 $272 forward $66 $-1 #
coedge $-1 $273 $274 $107 $170 reversed $275 $-1 #
edge $-1 $276 -46.48875577432073 $277 46.48875577432073 $169 $278 forward 7 unknown #
face $-1 $279 $280 $40 $-1 $281 reversed single #
loop $-1 $-1 $282 $108 #
plane-surface $-1 0 0 13.472332745805071 0 0 1 1 0 0 forward_v I I I I #
coedge $-1 $283 $284 $285 $286 reversed $109 $-1 #
coedge $-1 $287 $111 $288 $289 reversed $69 $-1 #
coedge $-1 $111 $287 $290 $291 reversed $69 $-1 #
coedge $-1 $284 $283 $111 $178 reversed $109 $-1 #
edge $-1 $292 -13.472332745805071 $293 13.472332745805071 $177 $294 forward 7 unknown #
face $-1 $295 $296 $41 $-1 $297 reversed single #
loop $-1 $-1 $298 $112 #
plane-surface $-1 0 46.48875577432073 0 0 -1 0 0 0 -1 forward_v I I I I #
coedge $-1 $299 $300 $301 $302 reversed $113 $-1 #
coedge $-1 $303 $115 $304 $305 forward $72 $-1 #
coedge $-1 $115 $303 $298 $306 reversed $72 $-1 #
coedge $-1 $307 $308 $115 $186 forward $309 $-1 #
edge $-1 $310 13.051183055340356 $311 26.642109497767034 $185 $312 forward 7 unknown #
face $-1 $313 $314 $42 $-1 $315 forward single #
loop $-1 $-1 $193 $116 #
plane-surface $-1 75.826288644062629 0 0 -1 0 0 0 0 1 forward_v I I I I #
coedge $-1 $316 $317 $318 $319 reversed $117 $-1 #
coedge $-1 $192 $119 $320 $321 reversed $75 $-1 #
coedge $-1 $119 $191 $316 $322 reversed $75 $-1 #
coedge $-1 $318 $323 $119 $194 forward $188 $-1 #
edge $-1 $324 98.043969108427547 $325 102.43039384829702 $193 $326 forward 7 unknown #
loop $-1 $-1 $200 $120 #
plane-surface $-1 -38.627363248997653 27.657645954076493 108.57895181540498 0.6560590369687036 0 0.75470957328743171 0.75470957328743171 0 -0.6560590369687036 forward_v I I I I #
loop $-1 $-1 $327 $77 #
coedge $-1 $198 $198 $199 $328 reversed $121 $-1 #
coedge $-1 $199 $199 $198 $328 forward $123 $-1 #
coedge $-1 $200 $200 $124 $201 forward $195 $-1 #
edge $-1 $329 0 $329 6.2831853071796004 $200 $330 forward 7 unknown #
loop $-1 $-1 $207 $125 #
plane-surface $-1 -38.627363248997653 27.657645954076493 108.57895181540498 0.6560590369687036 0 0.75470957328743171 0.75470957328743171 0 -0.6560590369687036 forward_v I I I I #
loop $-1 $-1 $331 $80 #
coedge $-1 $205 $205 $206 $332 reversed $126 $-1 #
coedge $-1 $206 $206 $205 $332 forward $128 $-1 #
coedge $-1 $207 $207 $129 $208 forward $202 $-1 #
edge $-1 $333 0 $333 6.2831853071796004 $207 $334 forward 7 unknown #
loop $-1 $-1 $214 $130 #
plane-surface $-1 -38.627363248997653 27.657645954076493 108.57895181540498 0.6560590369687036 0 0.75470957328743171 0.75470957328743171 0 -0.6560590369687036 forward_v I I I I #
loop $-1 $-1 $335 $83 #
coedge $-1 $212 $212 $213 $336 reversed $131 $-1 #
coedge $-1 $213 $213 $212 $336 forward $133 $-1 #
coedge $-1 $214 $214 $134 $215 forward $209 $-1 #
edge $-1 $337 0 $337 6.2831853071796004 $214 $338 forward 7 unknown #
face $-1 $339 $340 $46 $-1 $341 forward single #
loop $-1 $-1 $342 $135 #
plane-surface $-1 -186.73796365716925 -11.100075502868926 107.9603334690773 0 -1 0 0.73135370988377701 0 -0.68199835119979291 forward_v I I I I #
coedge $-1 $343 $344 $345 $346 reversed $136 $-1 #
coedge $-1 $221 $138 $347 $348 reversed $87 $-1 #
coedge $-1 $138 $220 $343 $349 reversed $87 $-1 #
coedge $-1 $345 $350 $138 $223 forward $340 $-1 #
edge $-1 $351 17.542693184521994 $352 25.878265307890587 $222 $353 forward 7 unknown #
loop $-1 $-1 $229 $139 #
plane-surface $-1 -75.826288644062615 -16.574513714465191 4.5335258033767047 -0.73135370988377701 0 0.68199835119979291 0.68199835119979291 0 0.73135370988377701 forward_v I I I I #
loop $-1 $-1 $354 $89 #
coedge $-1 $227 $227 $228 $355 reversed $140 $-1 #
coedge $-1 $228 $228 $227 $355 forward $142 $-1 #
coedge $-1 $229 $229 $143 $230 forward $224 $-1 #
edge $-1 $356 0 $356 6.2831853071796004 $229 $357 forward 7 unknown #
loop $-1 $-1 $236 $144 #
plane-surface $-1 -75.826288644062615 -16.574513714465191 4.5335258033767047 -0.73135370988377701 0 0.68199835119979291 0.68199835119979291 0 0.73135370988377701 forward_v I I I I #
loop $-1 $-1 $358 $92 #
coedge $-1 $234 $234 $235 $359 reversed $145 $-1 #
coedge $-1 $235 $235 $234 $359 forward $147 $-1 #
coedge $-1 $236 $236 $148 $237 forward $231 $-1 #
edge $-1 $360 0 $360 6.2831853071796004 $236 $361 forward 7 unknown #
face $-1 $362 $363 $49 $-1 $364 forward single #
loop $-1 $-1 $365 $149 #
plane-surface $-1 -186.73796365716925 23.538138118189401 107.9603334690773 0 -1 0 0.73135370988377701 0 -0.68199835119979291 forward_v I I I I #
coedge $-1 $366 $367 $368 $369 reversed $150 $-1 #
coedge $-1 $243 $152 $370 $371 reversed $96 $-1 #
coedge $-1 $152 $242 $366 $372 reversed $96 $-1 #
coedge $-1 $368 $373 $152 $245 forward $363 $-1 #
edge $-1 $374 17.542693184521994 $375 25.878265307890587 $244 $376 forward 7 unknown #
loop $-1 $-1 $251 $153 #
plane-surface $-1 -75.826288644062615 18.063699906593136 4.5335258033767047 -0.73135370988377701 0 0.68199835119979291 0.68199835119979291 0 0.73135370988377701 forward_v I I I I #
loop $-1 $-1 $377 $98 #
coedge $-1 $249 $249 $250 $378 reversed $154 $-1 #
coedge $-1 $250 $250 $249 $378 forward $156 $-1 #
coedge $-1 $251 $251 $157 $252 forward $246 $-1 #
edge $-1 $379 0 $379 6.2831853071796004 $251 $380 forward 7 unknown #
loop $-1 $-1 $258 $158 #
plane-surface $-1 -75.826288644062615 18.063699906593136 4.5335258033767047 -0.73135370988377701 0 0.68199835119979291 0.68199835119979291 0 0.73135370988377701 forward_v I I I I #
loop $-1 $-1 $381 $101 #
coedge $-1 $256 $256 $257 $382 reversed $159 $-1 #
coedge $-1 $257 $257 $256 $382 forward $161 $-1 #
coedge $-1 $258 $258 $162 $259 forward $253 $-1 #
edge $-1 $383 0 $383 6.2831853071796004 $258 $384 forward 7 unknown #
face $-1 $385 $386 $39 $-1 $387 reversed single #
loop $-1 $-1 $388 $163 #
plane-surface $-1 -75.826288644062629 0 0 1 0 0 0 0 -1 forward_v I I I I #
coedge $-1 $389 $271 $390 $391 forward $164 $-1 #
coedge $-1 $392 $166 $389 $393 forward $105 $-1 #
coedge $-1 $166 $392 $394 $395 forward $105 $-1 #
coedge $-1 $274 $273 $166 $267 reversed $275 $-1 #
edge $-1 $396 -46.48875577432073 $397 46.48875577432073 $266 $398 forward 7 unknown #
coedge $-1 $168 $167 $399 $400 forward $66 $-1 #
coedge $-1 $401 $402 $167 $270 reversed $386 $-1 #
edge $-1 $277 -75.826288644062629 $403 75.826288644062629 $269 $404 forward 7 unknown #
coedge $-1 $263 $405 $168 $272 reversed $164 $-1 #
edge $-1 $406 -75.826288644062629 $276 75.826288644062629 $271 $407 forward 7 unknown #
coedge $-1 $266 $169 $405 $408 forward $275 $-1 #
coedge $-1 $169 $266 $401 $409 reversed $275 $-1 #
loop $-1 $-1 $273 $385 #
vertex $-1 $170 $410 #
vertex $-1 $170 $411 #
straight-curve $-1 75.826288644062629 0 13.472332745805071 0 1 0 I I #
face $-1 $412 $413 $40 $-1 $414 reversed single #
loop $-1 $-1 $415 $171 #
plane-surface $-1 -75.826288644062629 0 0 1 0 0 0 0 -1 forward_v I I I I #
coedge $-1 $290 $416 $284 $417 forward $172 $-1 #
coedge $-1 $177 $174 $418 $419 reversed $109 $-1 #
coedge $-1 $174 $177 $282 $417 reversed $109 $-1 #
coedge $-1 $420 $421 $174 $286 forward $422 $-1 #
edge $-1 $423 -13.472332745805071 $424 13.472332745805071 $285 $425 forward 7 unknown #
coedge $-1 $176 $175 $415 $426 reversed $69 $-1 #
coedge $-1 $418 $427 $175 $289 forward $413 $-1 #
edge $-1 $428 -39.467826111486417 $293 -33.249098953666007 $288 $429 forward 7 unknown #
coedge $-1 $430 $282 $176 $291 forward $172 $-1 #
edge $-1 $292 33.249098953666007 $431 39.467826111486417 $290 $432 forward 7 unknown #
vertex $-1 $291 $433 #
vertex $-1 $289 $434 #
straight-curve $-1 -69.607561486242219 -36.378597910222602 0 0 0 -1 I I #
face $-1 $435 $436 $41 $-1 $437 forward single #
loop $-1 $-1 $438 $179 #
plane-surface $-1 -75.826288644062629 0 0 1 0 0 0 0 -1 forward_v I I I I #
coedge $-1 $439 $440 $184 $306 forward $180 $-1 #
coedge $-1 $304 $182 $441 $442 reversed $113 $-1 #
coedge $-1 $182 $304 $308 $443 reversed $113 $-1 #
coedge $-1 $444 $445 $182 $302 forward $436 $-1 #
edge $-1 $446 -75.826288644062629 $447 75.826288644062629 $301 $448 forward 7 unknown #
coedge $-1 $184 $183 $438 $449 reversed $72 $-1 #
coedge $-1 $300 $299 $183 $305 reversed $113 $-1 #
edge $-1 $310 -75.826288644062629 $450 75.826288644062629 $304 $451 forward 7 unknown #
edge $-1 $311 -75.826288644062629 $452 75.826288644062629 $298 $453 forward 7 unknown #
coedge $-1 $454 $185 $440 $455 reversed $309 $-1 #
coedge $-1 $185 $454 $300 $443 forward $309 $-1 #
loop $-1 $-1 $185 $435 #
vertex $-1 $186 $456 #
vertex $-1 $306 $457 #
straight-curve $-1 75.826288644062629 19.846646276553695 7.7862986726571872 0 1 0 I I #
face $-1 $-1 $458 $42 $-1 $459 forward single #
loop $-1 $-1 $460 $187 #
plane-surface $-1 0 32.897829331894052 10.629315709231127 0 1 0 0 0 1 forward_v I I I I #
coedge $-1 $461 $190 $192 $322 forward $117 $-1 #
coedge $-1 $190 $461 $460 $462 reversed $117 $-1 #
coedge $-1 $463 $193 $190 $319 forward $188 $-1 #
edge $-1 $325 8.5886395992206808 $464 19.069006354855805 $318 $465 forward 7 unknown #
coedge $-1 $466 $467 $191 $321 forward $458 $-1 #
edge $-1 $468 40.347444030161554 $324 45.393448363826778 $320 $469 forward 7 unknown #
edge $-1 $325 -151.65257728812531 $468 -144.96655592008381 $192 $470 forward 7 unknown #
coedge $-1 $193 $463 $466 $471 reversed $188 $-1 #
vertex $-1 $471 $472 #
vertex $-1 $194 $473 #
straight-curve $-1 75.826288644062629 22.417462576258927 111.51630185423262 0 0 -1 I I #
coedge $-1 $327 $327 $-1 $474 reversed $197 $-1 #
edge $-1 $475 0 $475 6.2831853071796004 $198 $476 forward 7 unknown #
vertex $-1 $201 $477 #
ellipse-curve $-1 73.303286477230017 24.513535927385952 11.279120375870331 0.6560590369687036 0 0.75470957328743171 0.37735478664371586 0 -0.3280295184843518 1 I I #
coedge $-1 $331 $331 $-1 $478 reversed $204 $-1 #
edge $-1 $479 0 $479 6.2831853071796004 $205 $480 forward 7 unknown #
vertex $-1 $208 $481 #
ellipse-curve $-1 73.303286477230017 27.657645954076493 11.279120375870331 0.6560590369687036 0 0.75470957328743171 0.37735478664371586 0 -0.3280295184843518 1 I I #
coedge $-1 $335 $335 $-1 $482 reversed $211 $-1 #
edge $-1 $483 0 $483 6.2831853071796004 $212 $484 forward 7 unknown #
vertex $-1 $215 $485 #
ellipse-curve $-1 73.303286477230017 30.801755980767034 11.279120375870331 0.6560590369687036 0 0.75470957328743171 0.37735478664371586 0 -0.3280295184843518 1 I I #
face $-1 $-1 $486 $46 $-1 $487 reversed single #
loop $-1 $-1 $222 $216 #
plane-surface $-1 0 0 13.472332745805071 0 0 1 1 0 0 forward_v I I I I #
coedge $-1 $488 $489 $490 $491 reversed $217 $-1 #
coedge $-1 $492 $219 $221 $349 forward $136 $-1 #
coedge $-1 $219 $492 $488 $493 forward $136 $-1 #
coedge $-1 $490 $222 $219 $346 forward $340 $-1 #
edge $-1 $352 -13.76169506882886 $494 -2.8128186456363302 $345 $495 forward 7 unknown #
coedge $-1 $496 $497 $220 $348 forward $486 $-1 #
edge $-1 $498 -49.446640931161959 $351 -40.50783398873358 $347 $499 forward 7 unknown #
edge $-1 $352 -12.222276063724173 $498 2.0734513383776317e-014 $221 $500 forward 7 unknown #
coedge $-1 $222 $490 $496 $501 forward $340 $-1 #
vertex $-1 $223 $502 #
vertex $-1 $223 $503 #
straight-curve $-1 -93.368981828584623 -22.048951926061456 13.472332745805069 1 0 0 I I #
coedge $-1 $354 $354 $-1 $504 reversed $226 $-1 #
edge $-1 $505 0 $505 6.2831853071796004 $227 $506 forward 7 unknown #
vertex $-1 $230 $507 #
ellipse-curve $-1 -71.658502582378333 -18.920701519435021 9.0029292745908815 -0.73135370988377701 0 0.68199835119979291 0.68199835119979291 0 0.73135370988377701 1 I I #
coedge $-1 $358 $358 $-1 $508 reversed $233 $-1 #
edge $-1 $509 0 $509 6.2831853071796004 $234 $510 forward 7 unknown #
vertex $-1 $237 $511 #
ellipse-curve $-1 -71.658502582378333 -14.228325909495368 9.0029292745908815 -0.73135370988377701 0 0.68199835119979291 0.68199835119979291 0 0.73135370988377701 1 I I #
face $-1 $-1 $512 $49 $-1 $513 reversed single #
loop $-1 $-1 $244 $238 #
plane-surface $-1 0 0 13.472332745805071 0 0 1 1 0 0 forward_v I I I I #
coedge $-1 $514 $515 $516 $517 reversed $239 $-1 #
coedge $-1 $518 $241 $243 $372 forward $150 $-1 #
coedge $-1 $241 $518 $514 $519 forward $150 $-1 #
coedge $-1 $516 $244 $241 $369 forward $363 $-1 #
edge $-1 $375 3.5574117417003031 $520 14.506288164892833 $368 $521 forward 7 unknown #
coedge $-1 $522 $523 $242 $371 forward $512 $-1 #
edge $-1 $524 -49.446640931161959 $374 -40.50783398873358 $370 $525 forward 7 unknown #
edge $-1 $375 -12.222276063724173 $524 2.0734513383776317e-014 $243 $526 forward 7 unknown #
coedge $-1 $244 $516 $522 $527 forward $363 $-1 #
vertex $-1 $245 $528 #
vertex $-1 $245 $529 #
straight-curve $-1 -93.368981828584623 12.589261694996871 13.472332745805069 1 0 0 I I #
coedge $-1 $377 $377 $-1 $530 reversed $248 $-1 #
edge $-1 $531 0 $531 6.2831853071796004 $249 $532 forward 7 unknown #
vertex $-1 $252 $533 #
ellipse-curve $-1 -71.658502582378333 15.717512101623306 9.0029292745908815 -0.73135370988377701 0 0.68199835119979291 0.68199835119979291 0 0.73135370988377701 1 I I #
coedge $-1 $381 $381 $-1 $534 reversed $255 $-1 #
edge $-1 $535 0 $535 6.2831853071796004 $256 $536 forward 7 unknown #
vertex $-1 $259 $537 #
ellipse-curve $-1 -71.658502582378333 20.409887711562966 9.0029292745908815 -0.73135370988377701 0 0.68199835119979291 0.68199835119979291 0 0.73135370988377701 1 I I #
face $-1 $-1 $275 $39 $-1 $538 reversed single #
loop $-1 $-1 $401 $260 #
plane-surface $-1 0 46.48875577432073 0 0 -1 0 0 0 -1 forward_v I I I I #
coedge $-1 $539 $399 $402 $540 forward $261 $-1 #
coedge $-1 $405 $263 $264 $393 reversed $164 $-1 #
coedge $-1 $399 $539 $263 $391 reversed $261 $-1 #
edge $-1 $406 -13.472332745805071 $541 13.472332745805071 $390 $542 forward 7 unknown #
coedge $-1 $265 $264 $539 $543 forward $105 $-1 #
edge $-1 $397 -75.826288644062629 $541 75.826288644062629 $389 $544 forward 7 unknown #
coedge $-1 $402 $401 $265 $395 reversed $386 $-1 #
edge $-1 $545 -75.826288644062629 $396 75.826288644062629 $394 $546 forward 7 unknown #
vertex $-1 $267 $547 #
vertex $-1 $408 $548 #
straight-curve $-1 75.826288644062629 0 -13.472332745805071 0 -1 0 I I #
coedge $-1 $388 $390 $268 $400 reversed $261 $-1 #
edge $-1 $403 -46.48875577432073 $406 46.48875577432073 $399 $549 forward 7 unknown #
coedge $-1 $394 $269 $274 $409 forward $386 $-1 #
coedge $-1 $269 $394 $388 $540 reversed $386 $-1 #
vertex $-1 $270 $550 #
straight-curve $-1 0 46.48875577432073 13.472332745805071 -1 0 0 I I #
coedge $-1 $271 $389 $273 $408 reversed $164 $-1 #
vertex $-1 $400 $551 #
straight-curve $-1 0 -46.48875577432073 13.472332745805071 1 0 0 I I #
edge $-1 $276 -13.472332745805071 $397 13.472332745805071 $273 $552 forward 7 unknown #
edge $-1 $277 -13.472332745805071 $396 13.472332745805071 $274 $553 forward 7 unknown #
point $-1 75.826288644062629 -46.48875577432073 13.472332745805071 #
point $-1 75.826288644062629 46.48875577432073 13.472332745805071 #
face $-1 $-1 $422 $40 $-1 $554 reversed single #
loop $-1 $-1 $418 $279 #
plane-surface $-1 0 0 -13.472332745805071 0 0 1 1 0 0 forward_v I I I I #
coedge $-1 $555 $556 $287 $426 forward $280 $-1 #
coedge $-1 $282 $430 $420 $557 forward $172 $-1 #
edge $-1 $424 -25.771917353184897 $292 -15.661759489086769 $282 $558 forward 7 unknown #
coedge $-1 $559 $288 $283 $419 forward $413 $-1 #
edge $-1 $293 15.661759489086769 $423 25.771917353184897 $418 $560 forward 7 unknown #
coedge $-1 $561 $285 $416 $557 reversed $422 $-1 #
coedge $-1 $285 $561 $559 $562 reversed $422 $-1 #
loop $-1 $-1 $285 $412 #
vertex $-1 $562 $563 #
vertex $-1 $286 $564 #
straight-curve $-1 -69.607561486242219 -46.48875577432073 0 0 0 1 I I #
edge $-1 $431 -13.472332745805071 $428 13.472332745805071 $415 $565 forward 7 unknown #
coedge $-1 $288 $559 $555 $566 forward $413 $-1 #
vertex $-1 $289 $567 #
straight-curve $-1 -36.358462532576212 -36.378597910222602 -13.472332745805071 1 0 0 I I #
coedge $-1 $416 $290 $556 $568 forward $172 $-1 #
vertex $-1 $568 $569 #
straight-curve $-1 -36.358462532576212 -36.378597910222602 13.472332745805071 -1 0 0 I I #
point $-1 -69.607561486242219 -36.378597910222602 13.472332745805071 #
point $-1 -69.607561486242219 -36.378597910222602 -13.472332745805071 #
face $-1 $-1 $309 $41 $-1 $570 reversed single #
loop $-1 $-1 $301 $295 #
plane-surface $-1 0 0 13.472332745805071 0 0 1 1 0 0 forward_v I I I I #
coedge $-1 $441 $571 $303 $449 forward $296 $-1 #
coedge $-1 $572 $298 $571 $573 reversed $180 $-1 #
coedge $-1 $298 $572 $307 $455 forward $180 $-1 #
coedge $-1 $574 $438 $299 $442 forward $296 $-1 #
edge $-1 $450 2.4716408180416236 $446 8.1576748911895045 $441 $575 forward 7 unknown #
edge $-1 $447 -8.1576748911895045 $310 -2.4716408180416236 $308 $576 forward 7 unknown #
coedge $-1 $577 $301 $454 $578 forward $436 $-1 #
coedge $-1 $301 $577 $574 $579 forward $436 $-1 #
vertex $-1 $442 $580 #
vertex $-1 $578 $581 #
straight-curve $-1 0 32.897829331894052 13.472332745805071 1 0 0 I I #
edge $-1 $452 -26.642109497767034 $450 -13.051183055340356 $438 $582 forward 7 unknown #
vertex $-1 $449 $583 #
straight-curve $-1 0 32.897829331894052 7.7862986726571872 -1 0 0 I I #
vertex $-1 $449 $584 #
straight-curve $-1 0 46.48875577432073 7.7862986726571872 -1 0 0 I I #
coedge $-1 $308 $307 $444 $578 reversed $309 $-1 #
edge $-1 $585 -13.472332745805071 $311 -7.7862986726571872 $307 $586 forward 7 unknown #
point $-1 75.826288644062629 32.897829331894052 7.7862986726571872 #
point $-1 75.826288644062629 46.48875577432073 7.7862986726571872 #
loop $-1 $-1 $320 $313 #
plane-surface $-1 0 0 13.472332745805071 0 0 1 1 0 0 forward_v I I I I #
coedge $-1 $587 $588 $317 $462 forward $314 $-1 #
coedge $-1 $317 $316 $467 $589 reversed $117 $-1 #
edge $-1 $464 -104.94598490306478 $590 -98.259963535023303 $460 $591 forward 7 unknown #
coedge $-1 $323 $318 $588 $592 forward $188 $-1 #
vertex $-1 $592 $593 #
straight-curve $-1 75.826288644062629 13.828822977038246 9.0859080059356216 0 1 0 I I #
coedge $-1 $594 $320 $323 $471 forward $458 $-1 #
coedge $-1 $320 $594 $461 $589 forward $458 $-1 #
vertex $-1 $321 $595 #
straight-curve $-1 30.432840280235851 22.417462576258927 13.472332745805076 1 0 0 I I #
straight-curve $-1 -38.627363248997653 22.417462576258927 108.57895181540498 -0.75470957328743171 0 0.6560590369687036 I I #
edge $-1 $324 22.417462576258927 $596 32.897829331894052 $323 $597 forward 7 unknown #
point $-1 75.826288644062629 22.417462576258927 13.472332745805071 #
point $-1 75.826288644062643 22.417462576258927 9.0859080059356074 #
edge $-1 $598 1 $598 0 $327 $-1 forward 7 unknown #
vertex $-1 $328 $599 #
ellipse-curve $-1 71.992309654096999 24.513535927385952 9.7710140881375143 0.6560590369687036 0 0.75470957328743171 0.37735478664371586 0 -0.3280295184843518 1 I I #
point $-1 73.680641263873738 24.513535927385952 10.951090857385978 #
edge $-1 $600 1 $600 0 $331 $-1 forward 7 unknown #
vertex $-1 $332 $601 #
ellipse-curve $-1 71.992309654096999 27.657645954076493 9.7710140881375143 0.6560590369687036 0 0.75470957328743171 0.37735478664371586 0 -0.3280295184843518 1 I I #
point $-1 73.680641263873738 27.657645954076493 10.951090857385978 #
edge $-1 $602 1 $602 0 $335 $-1 forward 7 unknown #
vertex $-1 $336 $603 #
ellipse-curve $-1 71.992309654096999 30.801755980767034 9.7710140881375143 0.6560590369687036 0 0.75470957328743171 0.37735478664371586 0 -0.3280295184843518 1 I I #
point $-1 73.680641263873738 30.801755980767034 10.951090857385978 #
loop $-1 $-1 $347 $339 #
plane-surface $-1 -75.826288644062629 0 0 1 0 0 0 0 -1 forward_v I I I I #
coedge $-1 $489 $342 $344 $493 reversed $217 $-1 #
coedge $-1 $342 $488 $604 $605 reversed $217 $-1 #
coedge $-1 $350 $345 $342 $491 forward $340 $-1 #
edge $-1 $494 -25.878265307890587 $606 -17.542693184521994 $490 $607 forward 7 unknown #
coedge $-1 $344 $343 $497 $608 reversed $136 $-1 #
edge $-1 $609 -2.0734513383776317e-014 $494 12.222276063724173 $488 $610 forward 7 unknown #
vertex $-1 $346 $611 #
straight-curve $-1 -67.490716520694022 -8.2872568572325953 13.472332745805071 0 1 0 I I #
coedge $-1 $604 $347 $350 $501 reversed $486 $-1 #
coedge $-1 $347 $604 $492 $608 forward $486 $-1 #
vertex $-1 $348 $612 #
straight-curve $-1 -75.826288644062629 -22.048951926061456 53.980166734538649 0 0 1 I I #
straight-curve $-1 -75.826288644062615 -22.048951926061456 4.5335258033767047 -0.68199835119979291 0 -0.73135370988377701 I I #
edge $-1 $606 11.100075502868926 $351 22.048951926061456 $496 $613 forward 7 unknown #
point $-1 -75.826288644062629 -22.048951926061456 13.472332745805071 #
point $-1 -67.490716520694036 -22.048951926061456 13.472332745805071 #
edge $-1 $614 1 $614 0 $354 $-1 forward 7 unknown #
vertex $-1 $355 $615 #
ellipse-curve $-1 -69.807787322630958 -18.920701519435021 7.2771094166611379 -0.73135370988377701 0 0.68199835119979291 0.68199835119979291 0 0.73135370988377701 1 I I #
point $-1 -70.976504231178552 -18.920701519435021 9.7342829844746745 #
edge $-1 $616 1 $616 0 $358 $-1 forward 7 unknown #
vertex $-1 $359 $617 #
ellipse-curve $-1 -69.807787322630958 -14.228325909495368 7.2771094166611379 -0.73135370988377701 0 0.68199835119979291 0.68199835119979291 0 0.73135370988377701 1 I I #
point $-1 -70.976504231178552 -14.228325909495368 9.7342829844746745 #
loop $-1 $-1 $370 $362 #
plane-surface $-1 -75.826288644062629 0 0 1 0 0 0 0 -1 forward_v I I I I #
coedge $-1 $515 $365 $367 $519 reversed $239 $-1 #
coedge $-1 $365 $514 $618 $619 reversed $239 $-1 #
coedge $-1 $373 $368 $365 $517 forward $363 $-1 #
edge $-1 $520 -25.878265307890587 $620 -17.542693184521994 $516 $621 forward 7 unknown #
coedge $-1 $367 $366 $523 $622 reversed $150 $-1 #
edge $-1 $623 -2.0734513383776317e-014 $520 12.222276063724173 $514 $624 forward 7 unknown #
vertex $-1 $369 $625 #
straight-curve $-1 -67.490716520694022 9.0318499532965681 13.472332745805071 0 1 0 I I #
coedge $-1 $618 $370 $373 $527 reversed $512 $-1 #
coedge $-1 $370 $618 $518 $622 forward $512 $-1 #
vertex $-1 $371 $626 #
straight-curve $-1 -75.826288644062629 12.589261694996871 53.980166734538649 0 0 1 I I #
straight-curve $-1 -75.826288644062615 12.589261694996871 4.5335258033767047 -0.68199835119979291 0 -0.73135370988377701 I I #
edge $-1 $620 -23.538138118189401 $374 -12.589261694996871 $522 $627 forward 7 unknown #
point $-1 -75.826288644062629 12.589261694996871 13.472332745805071 #
point $-1 -67.490716520694036 12.589261694996871 13.472332745805071 #
edge $-1 $628 1 $628 0 $377 $-1 forward 7 unknown #
vertex $-1 $378 $629 #
ellipse-curve $-1 -69.807787322630958 15.717512101623306 7.2771094166611379 -0.73135370988377701 0 0.68199835119979291 0.68199835119979291 0 0.73135370988377701 1 I I #
point $-1 -70.976504231178552 15.717512101623306 9.7342829844746745 #
edge $-1 $630 1 $630 0 $381 $-1 forward 7 unknown #
vertex $-1 $382 $631 #
ellipse-curve $-1 -69.807787322630958 20.409887711562966 7.2771094166611379 -0.73135370988377701 0 0.68199835119979291 0.68199835119979291 0 0.73135370988377701 1 I I #
point $-1 -70.976504231178552 20.409887711562966 9.7342829844746745 #
plane-surface $-1 75.826288644062629 0 0 -1 0 0 0 0 1 forward_v I I I I #
coedge $-1 $390 $388 $392 $543 reversed $261 $-1 #
edge $-1 $403 -13.472332745805071 $545 13.472332745805071 $402 $632 forward 7 unknown #
vertex $-1 $543 $633 #
straight-curve $-1 -75.826288644062629 -46.48875577432073 0 0 0 -1 I I #
edge $-1 $541 -46.48875577432073 $545 46.48875577432073 $539 $634 forward 7 unknown #
straight-curve $-1 0 -46.48875577432073 -13.472332745805071 -1 0 0 I I #
vertex $-1 $395 $635 #
straight-curve $-1 0 46.48875577432073 -13.472332745805071 1 0 0 I I #
point $-1 75.826288644062629 46.48875577432073 -13.472332745805071 #
point $-1 75.826288644062629 -46.48875577432073 -13.472332745805071 #
straight-curve $-1 -75.826288644062629 0 13.472332745805071 0 -1 0 I I #
point $-1 -75.826288644062629 46.48875577432073 13.472332745805071 #
point $-1 -75.826288644062629 -46.48875577432073 13.472332745805071 #
straight-curve $-1 75.826288644062629 -46.48875577432073 0 0 0 -1 I I #
straight-curve $-1 75.826288644062629 46.48875577432073 0 0 0 -1 I I #
plane-surface $-1 0 -46.48875577432073 0 0 1 0 0 0 1 forward_v I I I I #
coedge $-1 $636 $415 $427 $566 reversed $280 $-1 #
coedge $-1 $415 $636 $430 $568 reversed $280 $-1 #
edge $-1 $637 -75.826288644062629 $424 -69.607561486242219 $420 $638 forward 7 unknown #
straight-curve $-1 -69.607561486242219 -20.716838421135833 13.472332745805071 0 1 0 I I #
coedge $-1 $427 $418 $421 $562 forward $413 $-1 #
straight-curve $-1 -69.607561486242219 -20.716838421135833 -13.472332745805071 0 -1 0 I I #
coedge $-1 $421 $420 $636 $639 forward $422 $-1 #
edge $-1 $423 69.607561486242219 $640 75.826288644062629 $421 $641 forward 7 unknown #
point $-1 -69.607561486242219 -46.48875577432073 -13.472332745805071 #
point $-1 -69.607561486242219 -46.48875577432073 13.472332745805071 #
straight-curve $-1 -75.826288644062629 -36.378597910222602 0 0 0 -1 I I #
edge $-1 $640 -46.48875577432073 $428 -36.378597910222602 $555 $642 forward 7 unknown #
point $-1 -75.826288644062629 -36.378597910222602 -13.472332745805071 #
edge $-1 $431 36.378597910222602 $637 46.48875577432073 $556 $643 forward 7 unknown #
point $-1 -75.826288644062629 -36.378597910222602 13.472332745805071 #
plane-surface $-1 75.826288644062629 0 0 -1 0 0 0 0 1 forward_v I I I I #
coedge $-1 $438 $574 $439 $573 forward $296 $-1 #
coedge $-1 $440 $439 $577 $644 reversed $180 $-1 #
edge $-1 $645 -13.472332745805071 $452 -7.7862986726571872 $439 $646 forward 7 unknown #
coedge $-1 $571 $441 $445 $579 reversed $296 $-1 #
straight-curve $-1 -75.826288644062629 32.897829331894052 5.3146578546155636 0 0 1 I I #
straight-curve $-1 75.826288644062629 32.897829331894052 5.3146578546155636 0 0 -1 I I #
coedge $-1 $445 $444 $572 $644 forward $436 $-1 #
edge $-1 $447 32.897829331894052 $585 46.48875577432073 $454 $647 forward 7 unknown #
edge $-1 $645 -46.48875577432073 $446 -32.897829331894052 $574 $648 forward 7 unknown #
point $-1 -75.826288644062629 32.897829331894052 13.472332745805067 #
point $-1 75.826288644062629 32.897829331894052 13.472332745805067 #
straight-curve $-1 -75.826288644062629 19.846646276553695 7.7862986726571872 0 -1 0 I I #
point $-1 -75.826288644062629 32.897829331894052 7.7862986726571872 #
point $-1 -75.826288644062629 46.48875577432073 7.7862986726571872 #
vertex $-1 $578 $649 #
straight-curve $-1 75.826288644062629 46.48875577432073 0 0 0 -1 I I #
coedge $-1 $588 $460 $594 $650 reversed $314 $-1 #
coedge $-1 $460 $587 $463 $592 reversed $314 $-1 #
edge $-1 $590 -19.069006354855805 $468 -8.5886395992206808 $467 $651 forward 7 unknown #
vertex $-1 $462 $652 #
straight-curve $-1 -3.3774508403586303 32.897829331894052 77.936669795172392 -0.75470957328743171 0 0.6560590369687036 I I #
edge $-1 $464 3.7712501513200438 $596 8.1576748911895045 $463 $653 forward 7 unknown #
point $-1 75.826288644062629 32.897829331894052 9.0859080059356074 #
coedge $-1 $467 $466 $587 $650 forward $458 $-1 #
point $-1 70.780284310397406 22.417462576258927 13.472332745805076 #
vertex $-1 $650 $654 #
straight-curve $-1 75.826288644062629 0 13.472332745805071 0 1 0 I I #
vertex $-1 $474 $655 #
point $-1 72.369664440740706 24.513535927385952 9.4429845696531629 #
vertex $-1 $478 $656 #
point $-1 72.369664440740706 27.657645954076493 9.4429845696531629 #
vertex $-1 $482 $657 #
point $-1 72.369664440740706 30.801755980767034 9.4429845696531629 #
coedge $-1 $497 $496 $489 $605 forward $486 $-1 #
edge $-1 $606 40.50783398873358 $609 49.446640931161959 $604 $658 forward 7 unknown #
vertex $-1 $501 $659 #
straight-curve $-1 -93.368981828584623 -11.100075502868926 13.472332745805069 -1 0 0 I I #
edge $-1 $609 2.8128186456363302 $498 13.76169506882886 $497 $660 forward 7 unknown #
vertex $-1 $608 $661 #
straight-curve $-1 -75.826288644062615 -11.100075502868926 4.5335258033767047 0.68199835119979291 0 0.73135370988377701 I I #
point $-1 -67.490716520694036 -11.100075502868926 13.472332745805071 #
point $-1 -75.826288644062629 -22.048951926061456 4.5335258033766896 #
straight-curve $-1 -75.826288644062629 0 13.472332745805071 0 -1 0 I I #
vertex $-1 $504 $662 #
point $-1 -69.125788971431163 -18.920701519435021 8.008463126544914 #
vertex $-1 $508 $663 #
point $-1 -69.125788971431163 -14.228325909495368 8.008463126544914 #
coedge $-1 $523 $522 $515 $619 forward $512 $-1 #
edge $-1 $620 40.50783398873358 $623 49.446640931161959 $618 $664 forward 7 unknown #
vertex $-1 $527 $665 #
straight-curve $-1 -93.368981828584623 23.538138118189401 13.472332745805069 -1 0 0 I I #
edge $-1 $623 -14.506288164892833 $524 -3.5574117417003031 $523 $666 forward 7 unknown #
vertex $-1 $622 $667 #
straight-curve $-1 -75.826288644062615 23.538138118189401 4.5335258033767047 0.68199835119979291 0 0.73135370988377701 I I #
point $-1 -67.490716520694036 23.538138118189401 13.472332745805071 #
point $-1 -75.826288644062629 12.589261694996871 4.5335258033766896 #
straight-curve $-1 -75.826288644062629 0 13.472332745805071 0 -1 0 I I #
vertex $-1 $530 $668 #
point $-1 -69.125788971431163 15.717512101623306 8.008463126544914 #
vertex $-1 $534 $669 #
point $-1 -69.125788971431163 20.409887711562966 8.008463126544914 #
straight-curve $-1 -75.826288644062629 46.48875577432073 0 0 0 -1 I I #
point $-1 -75.826288644062629 -46.48875577432073 -13.472332745805071 #
straight-curve $-1 -75.826288644062629 0 -13.472332745805071 0 1 0 I I #
point $-1 -75.826288644062629 46.48875577432073 -13.472332745805071 #
coedge $-1 $556 $555 $561 $639 reversed $280 $-1 #
vertex $-1 $568 $670 #
straight-curve $-1 0 -46.48875577432073 13.472332745805071 1 0 0 I I #
edge $-1 $637 -13.472332745805071 $640 13.472332745805071 $636 $671 forward 7 unknown #
vertex $-1 $566 $672 #
straight-curve $-1 0 -46.48875577432073 -13.472332745805071 -1 0 0 I I #
straight-curve $-1 -75.826288644062629 0 -13.472332745805071 0 1 0 I I #
straight-curve $-1 -75.826288644062629 0 13.472332745805071 0 -1 0 I I #
edge $-1 $585 -75.826288644062629 $645 75.826288644062629 $572 $673 forward 7 unknown #
vertex $-1 $644 $674 #
straight-curve $-1 -75.826288644062629 46.48875577432073 0 0 0 -1 I I #
straight-curve $-1 75.826288644062629 0 13.472332745805071 0 1 0 I I #
straight-curve $-1 -75.826288644062629 0 13.472332745805071 0 -1 0 I I #
point $-1 75.826288644062629 46.48875577432073 13.472332745805071 #
edge $-1 $596 -75.826288644062629 $590 -70.780284310397406 $594 $675 forward 7 unknown #
straight-curve $-1 70.780284310397391 13.828822977038246 13.472332745805076 0 -1 0 I I #
point $-1 70.780284310397406 32.897829331894052 13.472332745805071 #
straight-curve $-1 75.826288644062629 32.897829331894052 5.3146578546155636 0 0 1 I I #
point $-1 75.826288644062629 32.897829331894052 13.472332745805067 #
point $-1 71.664280135612643 24.513535927385952 9.3936593014938001 #
point $-1 71.664280135612643 27.657645954076493 9.3936593014938001 #
point $-1 71.664280135612643 30.801755980767034 9.3936593014938001 #
straight-curve $-1 -75.826288644062629 -11.100075502868926 53.980166734538649 0 0 -1 I I #
point $-1 -75.826288644062629 -11.100075502868926 13.472332745805071 #
straight-curve $-1 -75.826288644062629 -8.2872568572325953 4.5335258033766959 0 -1 0 I I #
point $-1 -75.826288644062629 -11.100075502868926 4.5335258033766896 #
point $-1 -69.076433612747167 -18.920701519435021 6.595111065461345 #
point $-1 -69.076433612747167 -14.228325909495368 6.595111065461345 #
straight-curve $-1 -75.826288644062629 23.538138118189401 53.980166734538649 0 0 -1 I I #
point $-1 -75.826288644062629 23.538138118189401 13.472332745805071 #
straight-curve $-1 -75.826288644062629 9.0318499532965681 4.5335258033766959 0 -1 0 I I #
point $-1 -75.826288644062629 23.538138118189401 4.5335258033766896 #
point $-1 -69.076433612747167 15.717512101623306 6.595111065461345 #
point $-1 -69.076433612747167 20.409887711562966 6.595111065461345 #
point $-1 -75.826288644062629 -46.48875577432073 13.472332745805071 #
straight-curve $-1 -75.826288644062629 -46.48875577432073 0 0 0 -1 I I #
point $-1 -75.826288644062629 -46.48875577432073 -13.472332745805071 #
straight-curve $-1 0 46.48875577432073 13.472332745805071 -1 0 0 I I #
point $-1 -75.826288644062629 46.48875577432073 13.472332745805071 #
straight-curve $-1 0 32.897829331894052 13.472332745805071 -1 0 0 I I #
End-of-ACIS-data 