500 0 4 0           
7 Unknown 11 ACIS 5.0 NT 24 Thu Mar 25 23:12:25 1999 
-1 9.9999999999999995e-007 1e-010 
body $-1 $4 $-1 $5 #
body $-1 $6 $-1 $7 #
body $-1 $8 $-1 $9 #
body $-1 $10 $-1 $11 #
lump $-1 $-1 $12 $0 #
transform $-1 1 0 0 0 1 0 0 0 1 50.115054780724506 26.279241485605716 12.285968451251032 1 rotate no_reflect no_shear #
lump $-1 $-1 $13 $1 #
transform $-1 1 0 0 0 1 0 0 0 1 50.115054780724506 26.279241485605716 12.285968451251032 1 rotate no_reflect no_shear #
lump $-1 $-1 $14 $2 #
transform $-1 1 0 0 0 1 0 0 0 1 50.115054780724506 26.279241485605716 12.285968451251032 1 rotate no_reflect no_shear #
lump $-1 $-1 $15 $3 #
transform $-1 1 0 0 0 1 0 0 0 1 50.115054780724506 26.279241485605716 12.285968451251032 1 rotate no_reflect no_shear #
shell $-1 $-1 $-1 $16 $-1 $4 #
shell $-1 $-1 $-1 $17 $-1 $6 #
shell $-1 $-1 $-1 $18 $-1 $8 #
shell $-1 $-1 $-1 $19 $-1 $10 #
face $-1 $20 $21 $12 $-1 $22 forward single #
face $-1 $23 $24 $13 $-1 $25 reversed single #
face $-1 $26 $27 $14 $-1 $28 forward single #
face $-1 $29 $30 $15 $-1 $31 reversed single #
face $-1 $32 $33 $12 $-1 $34 reversed single #
loop $-1 $-1 $35 $16 #
plane-surface $-1 0 0 12.285968451251032 0 0 1 1 0 0 forward_v I I I I #
face $-1 $36 $37 $13 $-1 $38 reversed single #
loop $-1 $-1 $39 $17 #
plane-surface $-1 0 -31.765453015584246 8.2422886710037773 0 0 1 1 0 0 forward_v I I I I #
face $-1 $40 $41 $14 $-1 $42 forward single #
loop $-1 $-1 $43 $18 #
plane-surface $-1 -7.4368574316807603 46.570409926572701 120.39450597163436 1 0 0 0 -0.61566148304635926 -0.78801074757464917 forward_v I I I I #
face $-1 $44 $45 $15 $-1 $46 reversed single #
loop $-1 $47 $48 $19 #
cone-surface $-1 5.094276890500403 23.748684295662741 10.078447640312834 0 -0.61566148304635926 -0.78801074757464917 1 0 0 1 I I 0 1 1 forward I I I I #
face $-1 $49 $50 $12 $-1 $51 reversed single #
loop $-1 $-1 $52 $20 #
plane-surface $-1 0 0 -12.285968451251032 0 0 1 1 0 0 forward_v I I I I #
coedge $-1 $53 $54 $55 $56 forward $21 $-1 #
face $-1 $57 $58 $13 $-1 $59 forward single #
loop $-1 $-1 $60 $23 #
plane-surface $-1 0 -37.251664545562775 10.264128561127405 0 1 0 0 0 1 forward_v I I I I #
coedge $-1 $61 $62 $63 $64 forward $24 $-1 #
face $-1 $65 $66 $14 $-1 $67 forward single #
loop $-1 $-1 $68 $26 #
plane-surface $-1 5.0942768905003959 -15.13740797192807 41.412102406627938 0 0.61566148304635926 0.78801074757464917 1 0 0 forward_v I I I I #
coedge $-1 $69 $70 $71 $72 reversed $27 $-1 #
face $-1 $73 $74 $15 $-1 $75 forward single #
loop $-1 $76 $77 $29 #
cone-surface $-1 5.094276890500403 22.978745752241807 9.0929712642602833 0 -0.61566148304635926 -0.78801074757464917 0.5 0 0 1 I I -0.70710678118654746 0.70710678118654746 0.5 forward I I I I #
loop $-1 $-1 $78 $19 #
coedge $-1 $48 $48 $79 $80 reversed $30 $-1 #
face $-1 $81 $82 $12 $-1 $83 reversed single #
loop $-1 $-1 $84 $32 #
plane-surface $-1 0 -26.279241485605716 0 0 1 0 0 0 1 forward_v I I I I #
coedge $-1 $85 $86 $87 $88 forward $33 $-1 #
coedge $-1 $89 $35 $90 $91 forward $21 $-1 #
coedge $-1 $35 $89 $92 $93 forward $21 $-1 #
coedge $-1 $94 $95 $35 $56 reversed $96 $-1 #
edge $-1 $97 -26.279241485605716 $98 26.279241485605716 $55 $99 forward 7 unknown #
face $-1 $100 $101 $13 $-1 $102 reversed single #
loop $-1 $-1 $103 $36 #
plane-surface $-1 0 0 12.285968451251032 0 0 1 1 0 0 forward_v I I I I #
coedge $-1 $104 $105 $106 $107 forward $37 $-1 #
coedge $-1 $108 $39 $104 $109 forward $24 $-1 #
coedge $-1 $39 $108 $110 $111 reversed $24 $-1 #
coedge $-1 $112 $113 $39 $64 reversed $114 $-1 #
edge $-1 $115 -5.4862115299785295 $116 5.4862115299785295 $63 $117 forward 7 unknown #
face $-1 $118 $119 $14 $-1 $120 forward single #
loop $-1 $-1 $121 $40 #
plane-surface $-1 17.625411212681552 46.570409926572701 120.39450597163436 -1 0 0 0 0.61566148304635926 0.78801074757464917 forward_v I I I I #
coedge $-1 $122 $123 $124 $125 reversed $41 $-1 #
coedge $-1 $70 $43 $123 $126 forward $27 $-1 #
coedge $-1 $43 $69 $127 $128 reversed $27 $-1 #
coedge $-1 $129 $124 $43 $72 forward $119 $-1 #
edge $-1 $130 -1.1428622537710815 $131 2.9940365223193659 $71 $132 forward 7 unknown #
face $-1 $133 $134 $15 $-1 $135 forward single #
loop $-1 $-1 $136 $44 #
plane-surface $-1 -7.4368574316807603 46.570409926572701 120.39450597163436 1 0 0 0 -0.61566148304635926 -0.78801074757464917 forward_v I I I I #
loop $-1 $-1 $137 $29 #
coedge $-1 $77 $77 $78 $138 forward $45 $-1 #
coedge $-1 $78 $78 $77 $138 reversed $47 $-1 #
coedge $-1 $79 $79 $48 $80 forward $134 $-1 #
edge $-1 $139 3.8932110481149662e-015 $139 6.283185307179604 $79 $140 forward 7 unknown #
face $-1 $141 $142 $12 $-1 $143 reversed single #
loop $-1 $-1 $144 $49 #
plane-surface $-1 -50.115054780724506 0 0 1 0 0 0 0 -1 forward_v I I I I #
coedge $-1 $145 $92 $146 $147 forward $50 $-1 #
coedge $-1 $148 $52 $145 $149 forward $33 $-1 #
coedge $-1 $52 $148 $150 $151 forward $33 $-1 #
coedge $-1 $95 $94 $52 $88 reversed $96 $-1 #
edge $-1 $152 -26.279241485605716 $153 26.279241485605716 $87 $154 forward 7 unknown #
coedge $-1 $54 $53 $155 $156 forward $21 $-1 #
coedge $-1 $157 $158 $53 $91 reversed $142 $-1 #
edge $-1 $98 -50.115054780724506 $159 50.115054780724506 $90 $160 forward 7 unknown #
coedge $-1 $84 $161 $54 $93 reversed $50 $-1 #
edge $-1 $162 -50.115054780724506 $97 50.115054780724506 $92 $163 forward 7 unknown #
coedge $-1 $87 $55 $161 $164 forward $96 $-1 #
coedge $-1 $55 $87 $157 $165 reversed $96 $-1 #
loop $-1 $-1 $94 $141 #
vertex $-1 $56 $166 #
vertex $-1 $56 $167 #
straight-curve $-1 50.115054780724506 0 12.285968451251032 0 1 0 I I #
face $-1 $168 $169 $13 $-1 $170 reversed single #
loop $-1 $-1 $171 $57 #
plane-surface $-1 0 0 -12.285968451251032 0 0 1 1 0 0 forward_v I I I I #
coedge $-1 $172 $173 $174 $175 forward $58 $-1 #
coedge $-1 $176 $60 $61 $109 reversed $37 $-1 #
coedge $-1 $60 $176 $173 $177 reversed $37 $-1 #
coedge $-1 $178 $179 $60 $107 reversed $180 $-1 #
edge $-1 $181 -2.0218398901236281 $182 2.0218398901236281 $106 $183 forward 7 unknown #
coedge $-1 $62 $61 $179 $184 forward $24 $-1 #
edge $-1 $116 -50.115054780724506 $182 50.115054780724506 $104 $185 forward 7 unknown #
coedge $-1 $186 $187 $62 $111 forward $169 $-1 #
edge $-1 $115 -50.115054780724506 $188 50.115054780724506 $110 $189 forward 7 unknown #
coedge $-1 $190 $63 $187 $191 forward $114 $-1 #
coedge $-1 $63 $174 $176 $192 forward $114 $-1 #
loop $-1 $-1 $112 $193 #
vertex $-1 $191 $194 #
vertex $-1 $192 $195 #
straight-curve $-1 50.115054780724506 -31.765453015584246 8.2422886710037773 0 -1 0 I I #
face $-1 $196 $197 $14 $-1 $198 reversed single #
loop $-1 $-1 $199 $65 #
plane-surface $-1 0 0 12.285968451251032 0 0 1 1 0 0 forward_v I I I I #
coedge $-1 $200 $201 $199 $202 reversed $66 $-1 #
coedge $-1 $203 $68 $201 $204 reversed $41 $-1 #
coedge $-1 $68 $203 $69 $126 reversed $41 $-1 #
coedge $-1 $71 $199 $68 $125 forward $119 $-1 #
edge $-1 $205 -15.078272767431354 $130 9.9839958769309582 $124 $206 forward 7 unknown #
edge $-1 $130 47.308683030254969 $207 52.558482971211433 $69 $208 forward 7 unknown #
coedge $-1 $209 $210 $70 $128 forward $211 $-1 #
edge $-1 $131 47.91128453456615 $207 51.143384151912088 $127 $212 forward 7 unknown #
coedge $-1 $213 $71 $210 $214 forward $119 $-1 #
vertex $-1 $125 $215 #
vertex $-1 $214 $216 #
straight-curve $-1 -7.4368574316807603 23.28520496328635 12.28596845125103 0 1 0 I I #
face $-1 $217 $218 $15 $-1 $219 forward single #
loop $-1 $220 $79 $73 #
plane-surface $-1 5.0942768905003959 -15.13740797192807 41.412102406627938 0 0.61566148304635926 0.78801074757464917 1 0 0 forward_v I I I I #
coedge $-1 $221 $222 $223 $224 reversed $74 $-1 #
coedge $-1 $137 $137 $-1 $225 forward $76 $-1 #
edge $-1 $226 0 $226 6.2831853071796004 $77 $227 forward 7 unknown #
vertex $-1 $80 $228 #
ellipse-curve $-1 5.094276890500403 24.210792097560496 10.669918642578061 0 -0.61566148304635926 -0.78801074757464917 1 0 0 1 I I #
face $-1 $-1 $96 $12 $-1 $229 reversed single #
loop $-1 $-1 $157 $81 #
plane-surface $-1 0 26.279241485605716 0 0 -1 0 0 0 -1 forward_v I I I I #
coedge $-1 $230 $155 $158 $231 forward $82 $-1 #
coedge $-1 $161 $84 $85 $149 reversed $50 $-1 #
coedge $-1 $155 $230 $84 $147 reversed $82 $-1 #
edge $-1 $162 -12.285968451251032 $232 12.285968451251032 $146 $233 forward 7 unknown #
coedge $-1 $86 $85 $230 $234 forward $33 $-1 #
edge $-1 $153 -50.115054780724506 $232 50.115054780724506 $145 $235 forward 7 unknown #
coedge $-1 $158 $157 $86 $151 reversed $142 $-1 #
edge $-1 $236 -50.115054780724506 $152 50.115054780724506 $150 $237 forward 7 unknown #
vertex $-1 $88 $238 #
vertex $-1 $164 $239 #
straight-curve $-1 50.115054780724506 0 -12.285968451251032 0 -1 0 I I #
coedge $-1 $144 $146 $89 $156 reversed $82 $-1 #
edge $-1 $159 -26.279241485605716 $162 26.279241485605716 $155 $240 forward 7 unknown #
coedge $-1 $150 $90 $95 $165 forward $142 $-1 #
coedge $-1 $90 $150 $144 $231 reversed $142 $-1 #
vertex $-1 $91 $241 #
straight-curve $-1 0 26.279241485605716 12.285968451251032 -1 0 0 I I #
coedge $-1 $92 $145 $94 $164 reversed $50 $-1 #
vertex $-1 $156 $242 #
straight-curve $-1 0 -26.279241485605716 12.285968451251032 1 0 0 I I #
edge $-1 $97 -12.285968451251032 $153 12.285968451251032 $94 $243 forward 7 unknown #
edge $-1 $98 -12.285968451251032 $152 12.285968451251032 $95 $244 forward 7 unknown #
point $-1 50.115054780724506 -26.279241485605716 12.285968451251032 #
point $-1 50.115054780724506 26.279241485605716 12.285968451251032 #
face $-1 $245 $180 $13 $-1 $246 reversed single #
loop $-1 $-1 $110 $100 #
plane-surface $-1 0 -26.279241485605716 0 0 1 0 0 0 1 forward_v I I I I #
coedge $-1 $247 $248 $190 $249 forward $101 $-1 #
coedge $-1 $250 $103 $251 $252 forward $58 $-1 #
coedge $-1 $103 $250 $105 $177 forward $58 $-1 #
coedge $-1 $113 $253 $103 $175 reversed $114 $-1 #
edge $-1 $254 -37.251664545562775 $255 26.279241485605716 $174 $256 forward 7 unknown #
coedge $-1 $105 $104 $113 $192 reversed $37 $-1 #
edge $-1 $181 -50.115054780724506 $254 50.115054780724506 $105 $257 forward 7 unknown #
coedge $-1 $258 $106 $250 $259 reversed $180 $-1 #
coedge $-1 $106 $260 $108 $184 reversed $180 $-1 #
loop $-1 $-1 $258 $168 #
vertex $-1 $259 $261 #
vertex $-1 $184 $262 #
straight-curve $-1 -50.115054780724506 -37.251664545562775 10.264128561127405 0 0 -1 I I #
edge $-1 $182 -5.4862115299785295 $188 5.4862115299785295 $179 $263 forward 7 unknown #
straight-curve $-1 0 -37.251664545562775 8.2422886710037773 -1 0 0 I I #
coedge $-1 $264 $110 $260 $265 forward $169 $-1 #
coedge $-1 $110 $264 $112 $191 reversed $169 $-1 #
vertex $-1 $265 $266 #
straight-curve $-1 0 -26.279241485605716 8.2422886710037773 -1 0 0 I I #
coedge $-1 $253 $112 $171 $249 reversed $114 $-1 #
edge $-1 $115 -8.2422886710037773 $267 12.285968451251032 $112 $268 forward 7 unknown #
edge $-1 $254 -2.0218398901236281 $116 2.0218398901236281 $113 $269 forward 7 unknown #
face $-1 $-1 $114 $13 $-1 $270 reversed single #
point $-1 50.115054780724506 -26.279241485605716 8.2422886710037773 #
point $-1 50.115054780724506 -37.251664545562775 8.2422886710037773 #
face $-1 $271 $272 $14 $-1 $273 reversed single #
loop $-1 $-1 $274 $118 #
plane-surface $-1 0 -31.765453015584246 8.2422886710037773 0 0 1 1 0 0 forward_v I I I I #
coedge $-1 $124 $275 $121 $202 forward $119 $-1 #
coedge $-1 $201 $121 $276 $277 reversed $66 $-1 #
coedge $-1 $121 $200 $122 $204 forward $66 $-1 #
edge $-1 $278 -2.9940365223193659 $205 1.1428622537710815 $199 $279 forward 7 unknown #
coedge $-1 $123 $122 $209 $280 reversed $41 $-1 #
edge $-1 $281 -52.558482971211433 $205 -47.308683030254969 $201 $282 forward 7 unknown #
vertex $-1 $125 $283 #
straight-curve $-1 2.5471384452501979 22.142342709515283 12.285968451251026 -1 0 0 I I #
vertex $-1 $280 $284 #
straight-curve $-1 -7.4368574316807603 -15.13740797192807 41.412102406627938 0 0.78801074757464917 -0.61566148304635926 I I #
coedge $-1 $276 $127 $203 $280 forward $211 $-1 #
coedge $-1 $127 $285 $129 $214 reversed $211 $-1 #
loop $-1 $-1 $276 $286 #
straight-curve $-1 -7.4368574316807603 26.279241485605716 60.19725298581718 0 0 -1 I I #
coedge $-1 $287 $129 $288 $289 forward $119 $-1 #
edge $-1 $131 7.4368574316807603 $290 50.115054780724506 $210 $291 forward 7 unknown #
point $-1 -7.4368574316807603 22.142342709515269 12.28596845125103 #
point $-1 -7.4368574316807603 26.279241485605716 12.285968451251032 #
face $-1 $292 $293 $15 $-1 $294 forward single #
loop $-1 $-1 $295 $133 #
plane-surface $-1 17.625411212681552 46.570409926572701 120.39450597163436 -1 0 0 0 0.61566148304635926 0.78801074757464917 forward_v I I I I #
loop $-1 $-1 $296 $73 #
coedge $-1 $222 $136 $297 $298 forward $74 $-1 #
coedge $-1 $136 $221 $299 $300 reversed $74 $-1 #
coedge $-1 $301 $302 $136 $224 forward $293 $-1 #
edge $-1 $303 -1.1428622537710815 $304 2.9940365223193659 $223 $305 forward 7 unknown #
edge $-1 $306 1 $306 0 $137 $-1 forward 7 unknown #
vertex $-1 $138 $307 #
ellipse-curve $-1 5.094276890500403 23.286576493764986 9.4869766380476079 0 0.61566148304635926 0.78801074757464917 1 0 0 1 I I #
point $-1 6.094276890500403 24.210792097560493 10.669918642578063 #
plane-surface $-1 50.115054780724506 0 0 -1 0 0 0 0 1 forward_v I I I I #
coedge $-1 $146 $144 $148 $234 reversed $82 $-1 #
edge $-1 $159 -12.285968451251032 $236 12.285968451251032 $158 $308 forward 7 unknown #
vertex $-1 $234 $309 #
straight-curve $-1 -50.115054780724506 -26.279241485605716 0 0 0 -1 I I #
edge $-1 $232 -26.279241485605716 $236 26.279241485605716 $230 $310 forward 7 unknown #
straight-curve $-1 0 -26.279241485605716 -12.285968451251032 -1 0 0 I I #
vertex $-1 $151 $311 #
straight-curve $-1 0 26.279241485605716 -12.285968451251032 1 0 0 I I #
point $-1 50.115054780724506 26.279241485605716 -12.285968451251032 #
point $-1 50.115054780724506 -26.279241485605716 -12.285968451251032 #
straight-curve $-1 -50.115054780724506 0 12.285968451251032 0 -1 0 I I #
point $-1 -50.115054780724506 26.279241485605716 12.285968451251032 #
point $-1 -50.115054780724506 -26.279241485605716 12.285968451251032 #
straight-curve $-1 50.115054780724506 -26.279241485605716 0 0 0 -1 I I #
straight-curve $-1 50.115054780724506 26.279241485605716 0 0 0 -1 I I #
face $-1 $193 $312 $13 $-1 $313 reversed single #
plane-surface $-1 -50.115054780724506 0 0 1 0 0 0 0 -1 forward_v I I I I #
coedge $-1 $314 $171 $264 $315 forward $101 $-1 #
coedge $-1 $171 $314 $316 $317 forward $101 $-1 #
edge $-1 $318 -26.279241485605716 $267 26.279241485605716 $190 $319 forward 7 unknown #
coedge $-1 $173 $172 $178 $259 forward $58 $-1 #
coedge $-1 $320 $321 $172 $252 reversed $312 $-1 #
edge $-1 $255 -50.115054780724506 $322 50.115054780724506 $251 $323 forward 7 unknown #
coedge $-1 $174 $190 $320 $324 reversed $114 $-1 #
vertex $-1 $175 $325 #
vertex $-1 $175 $326 #
straight-curve $-1 50.115054780724506 0 12.285968451251032 0 1 0 I I #
straight-curve $-1 0 -37.251664545562775 12.285968451251033 1 0 0 I I #
coedge $-1 $327 $178 $321 $328 forward $180 $-1 #
edge $-1 $322 -26.279241485605716 $181 37.251664545562775 $178 $329 forward 7 unknown #
coedge $-1 $179 $327 $186 $265 reversed $180 $-1 #
point $-1 -50.115054780724506 -37.251664545562775 12.285968451251033 #
point $-1 -50.115054780724506 -37.251664545562775 8.2422886710037773 #
straight-curve $-1 -50.115054780724506 -31.765453015584246 8.2422886710037773 0 1 0 I I #
coedge $-1 $187 $186 $247 $315 reversed $169 $-1 #
edge $-1 $188 -8.2422886710037773 $330 12.285968451251032 $260 $331 forward 7 unknown #
point $-1 -50.115054780724506 -26.279241485605716 8.2422886710037773 #
vertex $-1 $191 $332 #
straight-curve $-1 50.115054780724506 -26.279241485605716 0 0 0 -1 I I #
straight-curve $-1 50.115054780724506 -37.251664545562775 10.264128561127405 0 0 -1 I I #
plane-surface $-1 50.115054780724506 0 0 -1 0 0 0 0 1 forward_v I I I I #
face $-1 $333 $334 $14 $-1 $335 reversed single #
loop $-1 $-1 $336 $196 #
plane-surface $-1 0 -37.251664545562775 10.264128561127405 0 1 0 0 0 1 forward_v I I I I #
coedge $-1 $337 $338 $339 $340 forward $197 $-1 #
coedge $-1 $199 $341 $342 $343 forward $119 $-1 #
coedge $-1 $342 $209 $200 $277 forward $211 $-1 #
edge $-1 $281 -51.143384151912088 $278 -47.91128453456615 $276 $344 forward 7 unknown #
vertex $-1 $277 $345 #
straight-curve $-1 17.625411212681552 23.28520496328635 12.28596845125103 0 -1 0 I I #
edge $-1 $207 -9.9839958769309582 $281 15.078272767431354 $209 $346 forward 7 unknown #
vertex $-1 $280 $347 #
straight-curve $-1 17.625411212681552 -15.13740797192807 41.412102406627938 0 -0.78801074757464917 0.61566148304635926 I I #
point $-1 17.625411212681552 22.142342709515269 12.28596845125103 #
point $-1 -7.4368574316807603 26.279241485605716 9.0538688339050921 #
coedge $-1 $210 $348 $349 $350 reversed $211 $-1 #
face $-1 $351 $211 $14 $-1 $352 reversed single #
coedge $-1 $341 $213 $353 $354 forward $119 $-1 #
coedge $-1 $349 $355 $213 $289 reversed $356 $-1 #
edge $-1 $290 -26.279241485605716 $357 37.251664545562775 $288 $358 forward 7 unknown #
vertex $-1 $214 $359 #
straight-curve $-1 0 26.279241485605716 12.285968451251032 -1 0 0 I I #
face $-1 $360 $361 $15 $-1 $362 reversed single #
loop $-1 $-1 $363 $217 #
plane-surface $-1 0 0 12.285968451251032 0 0 1 1 0 0 forward_v I I I I #
coedge $-1 $364 $365 $363 $366 reversed $218 $-1 #
coedge $-1 $367 $297 $302 $368 reversed $220 $-1 #
coedge $-1 $296 $369 $221 $298 reversed $220 $-1 #
edge $-1 $303 47.308683030254969 $370 52.558482971211433 $221 $371 forward 7 unknown #
coedge $-1 $372 $373 $222 $300 forward $374 $-1 #
edge $-1 $304 47.91128453456615 $370 51.143384151912088 $299 $375 forward 7 unknown #
coedge $-1 $376 $223 $373 $377 forward $293 $-1 #
coedge $-1 $223 $363 $296 $368 forward $293 $-1 #
vertex $-1 $368 $378 #
vertex $-1 $377 $379 #
straight-curve $-1 -7.4368574316807603 23.28520496328635 12.28596845125103 0 1 0 I I #
vertex $-1 $225 $380 #
point $-1 6.094276890500403 23.286576493764986 9.4869766380476079 #
straight-curve $-1 -50.115054780724506 26.279241485605716 0 0 0 -1 I I #
point $-1 -50.115054780724506 -26.279241485605716 -12.285968451251032 #
straight-curve $-1 -50.115054780724506 0 -12.285968451251032 0 1 0 I I #
point $-1 -50.115054780724506 26.279241485605716 -12.285968451251032 #
loop $-1 $-1 $320 $245 #
plane-surface $-1 0 26.279241485605716 0 0 -1 0 0 0 -1 forward_v I I I I #
coedge $-1 $248 $247 $327 $381 forward $101 $-1 #
edge $-1 $267 -50.115054780724506 $330 50.115054780724506 $264 $382 forward 7 unknown #
coedge $-1 $321 $320 $248 $317 reversed $312 $-1 #
edge $-1 $383 -50.115054780724506 $318 50.115054780724506 $316 $384 forward 7 unknown #
vertex $-1 $249 $385 #
straight-curve $-1 50.115054780724506 0 -12.285968451251032 0 -1 0 I I #
coedge $-1 $316 $251 $253 $324 forward $312 $-1 #
coedge $-1 $251 $316 $258 $328 reversed $312 $-1 #
vertex $-1 $252 $386 #
straight-curve $-1 0 26.279241485605716 12.285968451251032 -1 0 0 I I #
edge $-1 $255 -12.285968451251032 $318 12.285968451251032 $253 $387 forward 7 unknown #
point $-1 50.115054780724506 -37.251664545562775 12.285968451251033 #
point $-1 50.115054780724506 26.279241485605716 12.285968451251032 #
coedge $-1 $260 $258 $314 $381 reversed $180 $-1 #
edge $-1 $322 -12.285968451251032 $383 12.285968451251032 $321 $388 forward 7 unknown #
straight-curve $-1 -50.115054780724506 0 12.285968451251032 0 -1 0 I I #
vertex $-1 $381 $389 #
straight-curve $-1 -50.115054780724506 -26.279241485605716 0 0 0 -1 I I #
point $-1 50.115054780724506 -26.279241485605716 -12.285968451251032 #
face $-1 $390 $391 $14 $-1 $392 reversed single #
loop $-1 $-1 $393 $271 #
plane-surface $-1 0 0 -12.285968451251032 0 0 1 1 0 0 forward_v I I I I #
coedge $-1 $394 $353 $355 $395 forward $272 $-1 #
coedge $-1 $396 $274 $394 $397 forward $197 $-1 #
coedge $-1 $274 $396 $398 $399 reversed $197 $-1 #
coedge $-1 $400 $401 $274 $340 reversed $402 $-1 #
edge $-1 $403 -5.4862115299785295 $404 5.4862115299785295 $339 $405 forward 7 unknown #
coedge $-1 $275 $287 $406 $407 forward $119 $-1 #
coedge $-1 $408 $276 $275 $343 reversed $211 $-1 #
edge $-1 $409 -50.115054780724506 $278 -17.625411212681552 $342 $291 forward 7 unknown #
straight-curve $-1 17.625411212681552 26.279241485605716 60.19725298581718 0 0 1 I I #
point $-1 17.625411212681552 26.279241485605716 12.285968451251032 #
straight-curve $-1 2.5471384452501979 26.279241485605716 9.0538688339050921 1 0 0 I I #
point $-1 17.625411212681552 26.279241485605716 9.0538688339050921 #
coedge $-1 $285 $408 $410 $411 reversed $211 $-1 #
coedge $-1 $412 $288 $285 $350 forward $356 $-1 #
edge $-1 $290 -12.285968451251032 $413 12.285968451251032 $285 $414 forward 7 unknown #
face $-1 $-1 $402 $14 $-1 $415 reversed single #
plane-surface $-1 0 26.279241485605716 0 0 -1 0 0 0 -1 forward_v I I I I #
coedge $-1 $336 $416 $287 $354 reversed $272 $-1 #
edge $-1 $357 -50.115054780724506 $417 50.115054780724506 $353 $418 forward 7 unknown #
coedge $-1 $288 $419 $336 $395 reversed $356 $-1 #
loop $-1 $-1 $349 $390 #
vertex $-1 $289 $420 #
straight-curve $-1 -50.115054780724506 0 12.285968451251032 0 -1 0 I I #
point $-1 -50.115054780724506 26.279241485605716 12.285968451251032 #
face $-1 $421 $422 $15 $-1 $423 reversed single #
loop $-1 $-1 $424 $292 #
plane-surface $-1 0 -31.765453015584246 8.2422886710037773 0 0 1 1 0 0 forward_v I I I I #
coedge $-1 $302 $425 $295 $366 forward $293 $-1 #
coedge $-1 $365 $295 $426 $427 reversed $218 $-1 #
coedge $-1 $295 $364 $367 $428 forward $218 $-1 #
edge $-1 $429 -2.9940365223193659 $430 1.1428622537710815 $363 $431 forward 7 unknown #
coedge $-1 $369 $296 $365 $428 reversed $220 $-1 #
edge $-1 $430 -15.078272767431354 $303 9.9839958769309582 $302 $432 forward 7 unknown #
coedge $-1 $297 $367 $372 $433 reversed $220 $-1 #
vertex $-1 $433 $434 #
straight-curve $-1 -7.4368574316807603 -15.13740797192807 41.412102406627938 0 0.78801074757464917 -0.61566148304635926 I I #
coedge $-1 $426 $299 $369 $433 forward $374 $-1 #
coedge $-1 $299 $435 $301 $377 reversed $374 $-1 #
loop $-1 $-1 $426 $436 #
straight-curve $-1 -7.4368574316807603 26.279241485605716 60.19725298581718 0 0 -1 I I #
coedge $-1 $437 $301 $438 $439 forward $293 $-1 #
edge $-1 $304 7.4368574316807603 $440 50.115054780724506 $373 $441 forward 7 unknown #
point $-1 -7.4368574316807603 22.142342709515269 12.28596845125103 #
point $-1 -7.4368574316807603 26.279241485605716 12.285968451251032 #
point $-1 5.094276890500403 22.670915010718627 8.6989658904729588 #
edge $-1 $330 -26.279241485605716 $383 26.279241485605716 $327 $442 forward 7 unknown #
straight-curve $-1 0 -26.279241485605716 -12.285968451251032 -1 0 0 I I #
vertex $-1 $317 $443 #
straight-curve $-1 0 26.279241485605716 -12.285968451251032 1 0 0 I I #
point $-1 50.115054780724506 26.279241485605716 -12.285968451251032 #
point $-1 -50.115054780724506 26.279241485605716 12.285968451251032 #
straight-curve $-1 50.115054780724506 26.279241485605716 0 0 0 -1 I I #
straight-curve $-1 -50.115054780724506 26.279241485605716 0 0 0 -1 I I #
point $-1 -50.115054780724506 -26.279241485605716 -12.285968451251032 #
face $-1 $286 $356 $14 $-1 $444 reversed single #
loop $-1 $-1 $398 $333 #
plane-surface $-1 0 -26.279241485605716 0 0 1 0 0 0 1 forward_v I I I I #
coedge $-1 $445 $410 $446 $447 forward $334 $-1 #
coedge $-1 $416 $336 $337 $397 reversed $272 $-1 #
edge $-1 $357 -2.0218398901236281 $448 2.0218398901236281 $355 $449 forward 7 unknown #
coedge $-1 $338 $337 $419 $450 forward $197 $-1 #
edge $-1 $404 -50.115054780724506 $448 50.115054780724506 $394 $451 forward 7 unknown #
coedge $-1 $452 $453 $338 $399 forward $391 $-1 #
edge $-1 $403 -50.115054780724506 $454 50.115054780724506 $398 $455 forward 7 unknown #
coedge $-1 $446 $339 $453 $456 forward $402 $-1 #
coedge $-1 $339 $406 $416 $457 forward $402 $-1 #
loop $-1 $-1 $400 $351 #
vertex $-1 $456 $458 #
vertex $-1 $457 $459 #
straight-curve $-1 50.115054780724506 -31.765453015584246 8.2422886710037773 0 -1 0 I I #
coedge $-1 $401 $460 $341 $407 reversed $402 $-1 #
edge $-1 $417 -37.251664545562775 $409 26.279241485605716 $406 $461 forward 7 unknown #
coedge $-1 $348 $342 $460 $462 forward $211 $-1 #
vertex $-1 $407 $463 #
coedge $-1 $393 $464 $348 $411 forward $334 $-1 #
edge $-1 $413 -50.115054780724506 $465 50.115054780724506 $348 $466 forward 7 unknown #
coedge $-1 $467 $349 $464 $468 reversed $356 $-1 #
vertex $-1 $411 $469 #
straight-curve $-1 -50.115054780724506 26.279241485605716 0 0 0 -1 I I #
plane-surface $-1 50.115054780724506 0 0 -1 0 0 0 0 1 forward_v I I I I #
coedge $-1 $353 $394 $401 $457 reversed $272 $-1 #
vertex $-1 $407 $470 #
straight-curve $-1 0 -37.251664545562775 12.285968451251033 1 0 0 I I #
coedge $-1 $355 $467 $396 $450 reversed $356 $-1 #
point $-1 -50.115054780724506 -37.251664545562775 12.285968451251033 #
face $-1 $471 $472 $15 $-1 $473 reversed single #
loop $-1 $-1 $474 $360 #
plane-surface $-1 0 -37.251664545562775 10.264128561127405 0 1 0 0 0 1 forward_v I I I I #
coedge $-1 $475 $476 $477 $478 forward $361 $-1 #
coedge $-1 $363 $479 $480 $481 forward $293 $-1 #
coedge $-1 $480 $372 $364 $427 forward $374 $-1 #
edge $-1 $482 -51.143384151912088 $429 -47.91128453456615 $426 $483 forward 7 unknown #
edge $-1 $482 -52.558482971211433 $430 -47.308683030254969 $365 $484 forward 7 unknown #
vertex $-1 $427 $485 #
vertex $-1 $368 $486 #
straight-curve $-1 17.625411212681552 23.28520496328635 12.28596845125103 0 -1 0 I I #
straight-curve $-1 2.5471384452501979 22.142342709515283 12.285968451251026 -1 0 0 I I #
edge $-1 $370 -9.9839958769309582 $482 15.078272767431354 $372 $487 forward 7 unknown #
point $-1 -7.4368574316807603 26.279241485605716 9.0538688339050921 #
coedge $-1 $373 $488 $489 $490 reversed $374 $-1 #
face $-1 $491 $374 $15 $-1 $492 reversed single #
coedge $-1 $479 $376 $493 $494 forward $293 $-1 #
coedge $-1 $489 $495 $376 $439 reversed $496 $-1 #
edge $-1 $440 -26.279241485605716 $497 37.251664545562775 $438 $498 forward 7 unknown #
vertex $-1 $377 $499 #
straight-curve $-1 0 26.279241485605716 12.285968451251032 -1 0 0 I I #
straight-curve $-1 -50.115054780724506 0 -12.285968451251032 0 1 0 I I #
point $-1 -50.115054780724506 26.279241485605716 -12.285968451251032 #
plane-surface $-1 -50.115054780724506 0 0 1 0 0 0 0 -1 forward_v I I I I #
coedge $-1 $464 $393 $500 $501 forward $334 $-1 #
coedge $-1 $460 $400 $393 $447 reversed $402 $-1 #
edge $-1 $465 -26.279241485605716 $502 26.279241485605716 $446 $503 forward 7 unknown #
vertex $-1 $450 $504 #
straight-curve $-1 -50.115054780724506 -37.251664545562775 10.264128561127405 0 0 -1 I I #
edge $-1 $448 -5.4862115299785295 $454 5.4862115299785295 $419 $505 forward 7 unknown #
straight-curve $-1 0 -37.251664545562775 8.2422886710037773 -1 0 0 I I #
coedge $-1 $500 $398 $467 $506 forward $391 $-1 #
coedge $-1 $398 $500 $400 $456 reversed $391 $-1 #
vertex $-1 $506 $507 #
straight-curve $-1 0 -26.279241485605716 8.2422886710037773 -1 0 0 I I #
edge $-1 $403 -8.2422886710037773 $502 12.285968451251032 $400 $508 forward 7 unknown #
edge $-1 $417 -2.0218398901236281 $404 2.0218398901236281 $401 $509 forward 7 unknown #
point $-1 50.115054780724506 -26.279241485605716 8.2422886710037773 #
point $-1 50.115054780724506 -37.251664545562775 8.2422886710037773 #
coedge $-1 $406 $446 $408 $462 reversed $402 $-1 #
straight-curve $-1 50.115054780724506 0 12.285968451251032 0 1 0 I I #
edge $-1 $409 -12.285968451251032 $465 12.285968451251032 $460 $510 forward 7 unknown #
point $-1 50.115054780724506 26.279241485605716 12.285968451251032 #
coedge $-1 $410 $445 $412 $468 forward $334 $-1 #
vertex $-1 $447 $511 #
straight-curve $-1 0 26.279241485605716 -12.285968451251032 1 0 0 I I #
coedge $-1 $419 $412 $452 $506 reversed $356 $-1 #
edge $-1 $512 -26.279241485605716 $413 26.279241485605716 $412 $513 forward 7 unknown #
point $-1 -50.115054780724506 26.279241485605716 -12.285968451251032 #
point $-1 50.115054780724506 -37.251664545562775 12.285968451251033 #
face $-1 $514 $515 $15 $-1 $516 reversed single #
loop $-1 $-1 $517 $421 #
plane-surface $-1 0 0 -12.285968451251032 0 0 1 1 0 0 forward_v I I I I #
coedge $-1 $518 $493 $495 $519 forward $422 $-1 #
coedge $-1 $520 $424 $518 $521 forward $361 $-1 #
coedge $-1 $424 $520 $522 $523 reversed $361 $-1 #
coedge $-1 $524 $525 $424 $478 reversed $526 $-1 #
edge $-1 $527 -5.4862115299785295 $528 5.4862115299785295 $477 $529 forward 7 unknown #
coedge $-1 $425 $437 $530 $531 forward $293 $-1 #
coedge $-1 $532 $426 $425 $481 reversed $374 $-1 #
edge $-1 $533 -50.115054780724506 $429 -17.625411212681552 $480 $441 forward 7 unknown #
vertex $-1 $433 $534 #
straight-curve $-1 17.625411212681552 26.279241485605716 60.19725298581718 0 0 1 I I #
straight-curve $-1 17.625411212681552 -15.13740797192807 41.412102406627938 0 -0.78801074757464917 0.61566148304635926 I I #
point $-1 17.625411212681552 26.279241485605716 12.285968451251032 #
point $-1 17.625411212681552 22.142342709515269 12.28596845125103 #
straight-curve $-1 2.5471384452501979 26.279241485605716 9.0538688339050921 1 0 0 I I #
coedge $-1 $435 $532 $535 $536 reversed $374 $-1 #
coedge $-1 $537 $438 $435 $490 forward $496 $-1 #
edge $-1 $440 -12.285968451251032 $538 12.285968451251032 $435 $539 forward 7 unknown #
face $-1 $-1 $526 $15 $-1 $540 reversed single #
plane-surface $-1 0 26.279241485605716 0 0 -1 0 0 0 -1 forward_v I I I I #
coedge $-1 $474 $541 $437 $494 reversed $422 $-1 #
edge $-1 $497 -50.115054780724506 $542 50.115054780724506 $493 $543 forward 7 unknown #
coedge $-1 $438 $544 $474 $519 reversed $496 $-1 #
loop $-1 $-1 $489 $514 #
vertex $-1 $439 $545 #
straight-curve $-1 -50.115054780724506 0 12.285968451251032 0 -1 0 I I #
point $-1 -50.115054780724506 26.279241485605716 12.285968451251032 #
coedge $-1 $453 $452 $445 $501 reversed $391 $-1 #
edge $-1 $502 -50.115054780724506 $512 50.115054780724506 $500 $546 forward 7 unknown #
vertex $-1 $456 $547 #
straight-curve $-1 50.115054780724506 0 -12.285968451251032 0 -1 0 I I #
point $-1 -50.115054780724506 -37.251664545562775 8.2422886710037773 #
straight-curve $-1 -50.115054780724506 -31.765453015584246 8.2422886710037773 0 1 0 I I #
edge $-1 $454 -8.2422886710037773 $512 12.285968451251032 $467 $548 forward 7 unknown #
point $-1 -50.115054780724506 -26.279241485605716 8.2422886710037773 #
straight-curve $-1 50.115054780724506 -26.279241485605716 0 0 0 -1 I I #
straight-curve $-1 50.115054780724506 -37.251664545562775 10.264128561127405 0 0 -1 I I #
straight-curve $-1 50.115054780724506 26.279241485605716 0 0 0 -1 I I #
point $-1 50.115054780724506 26.279241485605716 -12.285968451251032 #
vertex $-1 $468 $549 #
straight-curve $-1 -50.115054780724506 0 -12.285968451251032 0 1 0 I I #
face $-1 $436 $496 $15 $-1 $550 reversed single #
loop $-1 $-1 $522 $471 #
plane-surface $-1 0 -26.279241485605716 0 0 1 0 0 0 1 forward_v I I I I #
coedge $-1 $551 $535 $552 $553 forward $472 $-1 #
coedge $-1 $541 $474 $475 $521 reversed $422 $-1 #
edge $-1 $497 -2.0218398901236281 $554 2.0218398901236281 $495 $555 forward 7 unknown #
coedge $-1 $476 $475 $544 $556 forward $361 $-1 #
edge $-1 $528 -50.115054780724506 $554 50.115054780724506 $518 $557 forward 7 unknown #
coedge $-1 $558 $559 $476 $523 forward $515 $-1 #
edge $-1 $527 -50.115054780724506 $560 50.115054780724506 $522 $561 forward 7 unknown #
coedge $-1 $552 $477 $559 $562 forward $526 $-1 #
coedge $-1 $477 $530 $541 $563 forward $526 $-1 #
loop $-1 $-1 $524 $491 #
vertex $-1 $562 $564 #
vertex $-1 $563 $565 #
straight-curve $-1 50.115054780724506 -31.765453015584246 8.2422886710037773 0 -1 0 I I #
coedge $-1 $525 $566 $479 $531 reversed $526 $-1 #
edge $-1 $542 -37.251664545562775 $533 26.279241485605716 $530 $567 forward 7 unknown #
coedge $-1 $488 $480 $566 $568 forward $374 $-1 #
vertex $-1 $531 $569 #
point $-1 17.625411212681552 26.279241485605716 9.0538688339050921 #
coedge $-1 $517 $570 $488 $536 forward $472 $-1 #
edge $-1 $538 -50.115054780724506 $571 50.115054780724506 $488 $572 forward 7 unknown #
coedge $-1 $573 $489 $570 $574 reversed $496 $-1 #
vertex $-1 $536 $575 #
straight-curve $-1 -50.115054780724506 26.279241485605716 0 0 0 -1 I I #
plane-surface $-1 50.115054780724506 0 0 -1 0 0 0 0 1 forward_v I I I I #
coedge $-1 $493 $518 $525 $563 reversed $422 $-1 #
vertex $-1 $531 $576 #
straight-curve $-1 0 -37.251664545562775 12.285968451251033 1 0 0 I I #
coedge $-1 $495 $573 $520 $556 reversed $496 $-1 #
point $-1 -50.115054780724506 -37.251664545562775 12.285968451251033 #
straight-curve $-1 0 -26.279241485605716 -12.285968451251032 -1 0 0 I I #
point $-1 50.115054780724506 -26.279241485605716 -12.285968451251032 #
straight-curve $-1 -50.115054780724506 -26.279241485605716 0 0 0 -1 I I #
point $-1 -50.115054780724506 -26.279241485605716 -12.285968451251032 #
plane-surface $-1 -50.115054780724506 0 0 1 0 0 0 0 -1 forward_v I I I I #
coedge $-1 $570 $517 $577 $578 forward $472 $-1 #
coedge $-1 $566 $524 $517 $553 reversed $526 $-1 #
edge $-1 $571 -26.279241485605716 $579 26.279241485605716 $552 $580 forward 7 unknown #
vertex $-1 $556 $581 #
straight-curve $-1 -50.115054780724506 -37.251664545562775 10.264128561127405 0 0 -1 I I #
edge $-1 $554 -5.4862115299785295 $560 5.4862115299785295 $544 $582 forward 7 unknown #
straight-curve $-1 0 -37.251664545562775 8.2422886710037773 -1 0 0 I I #
coedge $-1 $577 $522 $573 $583 forward $515 $-1 #
coedge $-1 $522 $577 $524 $562 reversed $515 $-1 #
vertex $-1 $583 $584 #
straight-curve $-1 0 -26.279241485605716 8.2422886710037773 -1 0 0 I I #
edge $-1 $527 -8.2422886710037773 $579 12.285968451251032 $524 $585 forward 7 unknown #
edge $-1 $542 -2.0218398901236281 $528 2.0218398901236281 $525 $586 forward 7 unknown #
point $-1 50.115054780724506 -26.279241485605716 8.2422886710037773 #
point $-1 50.115054780724506 -37.251664545562775 8.2422886710037773 #
coedge $-1 $530 $552 $532 $568 reversed $526 $-1 #
straight-curve $-1 50.115054780724506 0 12.285968451251032 0 1 0 I I #
edge $-1 $533 -12.285968451251032 $571 12.285968451251032 $566 $587 forward 7 unknown #
point $-1 50.115054780724506 26.279241485605716 12.285968451251032 #
coedge $-1 $535 $551 $537 $574 forward $472 $-1 #
vertex $-1 $553 $588 #
straight-curve $-1 0 26.279241485605716 -12.285968451251032 1 0 0 I I #
coedge $-1 $544 $537 $558 $583 reversed $496 $-1 #
edge $-1 $589 -26.279241485605716 $538 26.279241485605716 $537 $590 forward 7 unknown #
point $-1 -50.115054780724506 26.279241485605716 -12.285968451251032 #
point $-1 50.115054780724506 -37.251664545562775 12.285968451251033 #
coedge $-1 $559 $558 $551 $578 reversed $515 $-1 #
edge $-1 $579 -50.115054780724506 $589 50.115054780724506 $577 $591 forward 7 unknown #
vertex $-1 $562 $592 #
straight-curve $-1 50.115054780724506 0 -12.285968451251032 0 -1 0 I I #
point $-1 -50.115054780724506 -37.251664545562775 8.2422886710037773 #
straight-curve $-1 -50.115054780724506 -31.765453015584246 8.2422886710037773 0 1 0 I I #
edge $-1 $560 -8.2422886710037773 $589 12.285968451251032 $573 $593 forward 7 unknown #
point $-1 -50.115054780724506 -26.279241485605716 8.2422886710037773 #
straight-curve $-1 50.115054780724506 -26.279241485605716 0 0 0 -1 I I #
straight-curve $-1 50.115054780724506 -37.251664545562775 10.264128561127405 0 0 -1 I I #
straight-curve $-1 50.115054780724506 26.279241485605716 0 0 0 -1 I I #
point $-1 50.115054780724506 26.279241485605716 -12.285968451251032 #
vertex $-1 $574 $594 #
straight-curve $-1 -50.115054780724506 0 -12.285968451251032 0 1 0 I I #
straight-curve $-1 0 -26.279241485605716 -12.285968451251032 -1 0 0 I I #
point $-1 50.115054780724506 -26.279241485605716 -12.285968451251032 #
straight-curve $-1 -50.115054780724506 -26.279241485605716 0 0 0 -1 I I #
point $-1 -50.115054780724506 -26.279241485605716 -12.285968451251032 #
End-of-ACIS-data 