500 0 10 0           
7 Unknown 11 ACIS 5.0 NT 24 Fri Mar 26 00:17:48 1999 
-1 9.9999999999999995e-007 1e-010 
body $-1 $10 $-1 $11 #
body $-1 $12 $-1 $13 #
body $-1 $14 $-1 $15 #
body $-1 $16 $-1 $17 #
body $-1 $18 $-1 $19 #
body $-1 $20 $-1 $21 #
body $-1 $22 $-1 $23 #
body $-1 $24 $-1 $25 #
body $-1 $26 $-1 $27 #
body $-1 $28 $-1 $29 #
lump $-1 $-1 $30 $0 #
transform $-1 1 0 0 0 1 0 0 0 1 56.255378887295144 27.709812945305714 7.2688893451147569 1 rotate no_reflect no_shear #
lump $-1 $-1 $31 $1 #
transform $-1 1 0 0 0 1 0 0 0 1 56.255378887295144 27.709812945305714 7.2688893451147569 1 rotate no_reflect no_shear #
lump $-1 $-1 $32 $2 #
transform $-1 1 0 0 0 1 0 0 0 1 56.255378887295144 27.709812945305714 7.2688893451147569 1 rotate no_reflect no_shear #
lump $-1 $-1 $33 $3 #
transform $-1 1 0 0 0 1 0 0 0 1 56.255378887295144 27.709812945305714 7.2688893451147569 1 rotate no_reflect no_shear #
lump $-1 $-1 $34 $4 #
transform $-1 1 0 0 0 1 0 0 0 1 56.255378887295144 27.709812945305714 7.2688893451147569 1 rotate no_reflect no_shear #
lump $-1 $-1 $35 $5 #
transform $-1 1 0 0 0 1 0 0 0 1 56.255378887295144 27.709812945305714 7.2688893451147569 1 rotate no_reflect no_shear #
lump $-1 $-1 $36 $6 #
transform $-1 1 0 0 0 1 0 0 0 1 56.255378887295144 27.709812945305714 7.2688893451147569 1 rotate no_reflect no_shear #
lump $-1 $-1 $37 $7 #
transform $-1 1 0 0 0 1 0 0 0 1 56.255378887295144 27.709812945305714 7.2688893451147569 1 rotate no_reflect no_shear #
lump $-1 $-1 $38 $8 #
transform $-1 1 0 0 0 1 0 0 0 1 56.255378887295144 27.709812945305714 7.2688893451147569 1 rotate no_reflect no_shear #
lump $-1 $-1 $39 $9 #
transform $-1 1 0 0 0 1 0 0 0 1 56.255378887295144 27.709812945305714 7.2688893451147569 1 rotate no_reflect no_shear #
shell $-1 $-1 $-1 $40 $-1 $10 #
shell $-1 $-1 $-1 $41 $-1 $12 #
shell $-1 $-1 $-1 $42 $-1 $14 #
shell $-1 $-1 $-1 $43 $-1 $16 #
shell $-1 $-1 $-1 $44 $-1 $18 #
shell $-1 $-1 $-1 $45 $-1 $20 #
shell $-1 $-1 $-1 $46 $-1 $22 #
shell $-1 $-1 $-1 $47 $-1 $24 #
shell $-1 $-1 $-1 $48 $-1 $26 #
shell $-1 $-1 $-1 $49 $-1 $28 #
face $-1 $50 $51 $30 $-1 $52 forward single #
face $-1 $53 $54 $31 $-1 $55 reversed single #
face $-1 $56 $57 $32 $-1 $58 reversed single #
face $-1 $59 $60 $33 $-1 $61 reversed single #
face $-1 $62 $63 $34 $-1 $64 forward single #
face $-1 $65 $66 $35 $-1 $67 forward single #
face $-1 $68 $69 $36 $-1 $70 reversed single #
face $-1 $71 $72 $37 $-1 $73 forward single #
face $-1 $74 $75 $38 $-1 $76 forward single #
face $-1 $77 $78 $39 $-1 $79 forward single #
face $-1 $80 $81 $30 $-1 $82 reversed single #
loop $-1 $-1 $83 $40 #
plane-surface $-1 0 0 7.2688893451147569 0 0 1 1 0 0 forward_v I I I I #
face $-1 $84 $85 $31 $-1 $86 reversed single #
loop $-1 $-1 $87 $41 #
plane-surface $-1 -52.125255723929996 -17.141872274625339 0 0 1 0 0 0 1 forward_v I I I I #
face $-1 $88 $89 $32 $-1 $90 reversed single #
loop $-1 $-1 $91 $42 #
plane-surface $-1 52.125255723929989 -17.141872274625339 0 0 1 0 0 0 1 forward_v I I I I #
face $-1 $92 $93 $33 $-1 $94 reversed single #
loop $-1 $-1 $95 $43 #
plane-surface $-1 -34.064727810532148 68.079340823824339 120.11630190172541 1 0 0 0 -0.70710678939079041 -0.70710677298230451 forward_v I I I I #
face $-1 $96 $97 $34 $-1 $98 forward single #
loop $-1 $99 $100 $44 #
cone-surface $-1 -30.111352949529728 24.192890142809738 3.751966487381881 0 -0.70710678939079041 -0.70710677298230451 0.5 0 0 1 I I 0 1 0.5 forward I I I I #
face $-1 $101 $102 $35 $-1 $103 forward single #
loop $-1 $104 $105 $45 #
cone-surface $-1 -24.1812906580261 24.192890142809738 3.751966487381881 0 -0.70710678939079041 -0.70710677298230451 0.5 0 0 1 I I 0 1 0.5 forward I I I I #
face $-1 $106 $107 $36 $-1 $108 reversed single #
loop $-1 $-1 $109 $46 #
plane-surface $-1 4.6004846282187302 -104.4419661492512 84.971274244798735 -1 0 0 0 -0.68199836817093118 0.7313536940579346 forward_v I I I I #
face $-1 $110 $111 $37 $-1 $112 forward single #
loop $-1 $113 $114 $47 #
cone-surface $-1 -9.9866843452838197 -24.695817680520694 4.3804250060955177 0 0.68199836817093118 -0.7313536940579346 1.5 0 0 1 I I 0 1 1.5 forward I I I I #
face $-1 $115 $116 $38 $-1 $117 forward single #
loop $-1 $118 $119 $48 #
cone-surface $-1 -4.5164959802203626 -24.695817680520694 4.3804250060955177 0 0.68199836817093118 -0.7313536940579346 1.5 0 0 1 I I 0 1 1.5 forward I I I I #
face $-1 $120 $121 $39 $-1 $122 forward single #
loop $-1 $123 $124 $49 #
cone-surface $-1 0.95369238484309449 -24.695817680520694 4.3804250060955177 0 0.68199836817093118 -0.7313536940579346 1.5 0 0 1 I I 0 1 1.5 forward I I I I #
face $-1 $125 $126 $30 $-1 $127 reversed single #
loop $-1 $-1 $128 $50 #
plane-surface $-1 0 0 -7.2688893451147569 0 0 1 1 0 0 forward_v I I I I #
coedge $-1 $129 $130 $131 $132 forward $51 $-1 #
face $-1 $133 $134 $31 $-1 $135 reversed single #
loop $-1 $-1 $136 $53 #
plane-surface $-1 -52.125255723929996 -13.172034255076202 0 0 -1 0 0 0 -1 forward_v I I I I #
coedge $-1 $137 $138 $139 $140 reversed $54 $-1 #
face $-1 $141 $142 $32 $-1 $143 reversed single #
loop $-1 $-1 $144 $56 #
plane-surface $-1 47.995132560564841 -15.15695326485077 0 1 0 0 0 0 -1 forward_v I I I I #
coedge $-1 $145 $146 $147 $148 forward $57 $-1 #
face $-1 $149 $150 $33 $-1 $151 reversed single #
loop $-1 $-1 $152 $59 #
plane-surface $-1 -27.146321803777916 -11.477779878091113 40.55918304594114 0 0.70710678939079041 0.70710677298230451 1 0 0 forward_v I I I I #
coedge $-1 $153 $154 $155 $156 reversed $60 $-1 #
face $-1 $-1 $157 $34 $-1 $158 forward single #
loop $-1 $159 $160 $62 #
cone-surface $-1 -30.111352949529728 23.447840590503624 3.0069169523647199 0 -0.70710678939079041 -0.70710677298230451 0.25 0 0 1 I I -0.70710678118654746 0.70710678118654746 0.25 forward I I I I #
loop $-1 $-1 $161 $44 #
coedge $-1 $100 $100 $162 $163 reversed $63 $-1 #
face $-1 $-1 $164 $35 $-1 $165 forward single #
loop $-1 $166 $167 $65 #
cone-surface $-1 -24.1812906580261 23.447840590503624 3.0069169523647199 0 -0.70710678939079041 -0.70710677298230451 0.25 0 0 1 I I -0.70710678118654746 0.70710678118654746 0.25 forward I I I I #
loop $-1 $-1 $168 $45 #
coedge $-1 $105 $105 $169 $170 reversed $66 $-1 #
face $-1 $171 $172 $36 $-1 $173 reversed single #
loop $-1 $-1 $174 $68 #
plane-surface $-1 -4.5164959802203626 -27.709812945305714 2.68611592509464 0 -0.68199836817093118 0.7313536940579346 1 0 0 forward_v I I I I #
coedge $-1 $175 $176 $177 $178 reversed $69 $-1 #
face $-1 $-1 $179 $37 $-1 $180 forward single #
loop $-1 $181 $182 $71 #
cone-surface $-1 -9.9866843452838197 -23.627534995369984 3.2348321065428864 0 0.68199836817093118 -0.7313536940579346 0.75 0 0 1 I I -0.70710678118654757 0.70710678118654757 0.75 forward I I I I #
loop $-1 $-1 $183 $47 #
coedge $-1 $114 $114 $184 $185 reversed $72 $-1 #
face $-1 $-1 $186 $38 $-1 $187 forward single #
loop $-1 $188 $189 $74 #
cone-surface $-1 -4.5164959802203626 -23.627534995369984 3.2348321065428864 0 0.68199836817093118 -0.7313536940579346 0.75 0 0 1 I I -0.70710678118654757 0.70710678118654757 0.75 forward I I I I #
loop $-1 $-1 $190 $48 #
coedge $-1 $119 $119 $191 $192 reversed $75 $-1 #
face $-1 $-1 $193 $39 $-1 $194 forward single #
loop $-1 $195 $196 $77 #
cone-surface $-1 0.95369238484309449 -23.627534995369984 3.2348321065428864 0 0.68199836817093118 -0.7313536940579346 0.75 0 0 1 I I -0.70710678118654757 0.70710678118654757 0.75 forward I I I I #
loop $-1 $-1 $197 $49 #
coedge $-1 $124 $124 $198 $199 reversed $78 $-1 #
face $-1 $200 $201 $30 $-1 $202 reversed single #
loop $-1 $-1 $203 $80 #
plane-surface $-1 0 -27.709812945305714 0 0 1 0 0 0 1 forward_v I I I I #
coedge $-1 $204 $205 $206 $207 forward $81 $-1 #
coedge $-1 $208 $83 $209 $210 forward $51 $-1 #
coedge $-1 $83 $208 $211 $212 forward $51 $-1 #
coedge $-1 $213 $214 $83 $132 reversed $215 $-1 #
edge $-1 $216 -27.709812945305714 $217 27.709812945305714 $131 $218 forward 7 unknown #
face $-1 $219 $220 $31 $-1 $221 reversed single #
loop $-1 $-1 $222 $84 #
plane-surface $-1 -47.995132560564848 -15.15695326485077 0 -1 0 0 0 0 1 forward_v I I I I #
coedge $-1 $223 $224 $225 $226 forward $85 $-1 #
coedge $-1 $227 $87 $228 $229 reversed $54 $-1 #
coedge $-1 $87 $227 $230 $231 reversed $54 $-1 #
coedge $-1 $232 $233 $87 $140 forward $234 $-1 #
edge $-1 $235 -7.2688893451147569 $236 7.2688893451147569 $139 $237 forward 7 unknown #
face $-1 $238 $239 $32 $-1 $240 reversed single #
loop $-1 $-1 $241 $88 #
plane-surface $-1 52.125255723929989 -13.172034255076202 0 0 -1 0 0 0 -1 forward_v I I I I #
coedge $-1 $242 $243 $244 $245 forward $89 $-1 #
coedge $-1 $246 $91 $247 $248 reversed $57 $-1 #
coedge $-1 $91 $246 $249 $250 reversed $57 $-1 #
coedge $-1 $243 $242 $91 $148 reversed $89 $-1 #
edge $-1 $251 -7.2688893451147569 $252 7.2688893451147569 $147 $253 forward 7 unknown #
face $-1 $254 $255 $33 $-1 $256 reversed single #
loop $-1 $-1 $257 $92 #
plane-surface $-1 -20.227915797023684 68.079340823824339 120.11630190172541 -1 0 0 0 0.70710678939079041 0.70710677298230451 forward_v I I I I #
coedge $-1 $258 $259 $260 $261 reversed $93 $-1 #
coedge $-1 $154 $95 $262 $263 reversed $60 $-1 #
coedge $-1 $95 $153 $258 $264 reversed $60 $-1 #
coedge $-1 $260 $265 $95 $156 forward $266 $-1 #
edge $-1 $267 6.3298574666064553 $268 12.227157361681599 $155 $269 forward 7 unknown #
loop $-1 $-1 $162 $96 #
plane-surface $-1 -27.146321803777916 -11.477779878091113 40.55918304594114 0 0.70710678939079041 0.70710677298230451 1 0 0 forward_v I I I I #
loop $-1 $-1 $270 $62 #
coedge $-1 $160 $160 $161 $271 reversed $97 $-1 #
coedge $-1 $161 $161 $160 $271 forward $99 $-1 #
coedge $-1 $162 $162 $100 $163 forward $157 $-1 #
edge $-1 $272 -1.2560740981099875e-015 $272 6.2831853071795996 $162 $273 forward 7 unknown #
loop $-1 $-1 $169 $101 #
plane-surface $-1 -27.146321803777916 -11.477779878091113 40.55918304594114 0 0.70710678939079041 0.70710677298230451 1 0 0 forward_v I I I I #
loop $-1 $-1 $274 $65 #
coedge $-1 $167 $167 $168 $275 reversed $102 $-1 #
coedge $-1 $168 $168 $167 $275 forward $104 $-1 #
coedge $-1 $169 $169 $105 $170 forward $164 $-1 #
edge $-1 $276 -1.2560740981099875e-015 $276 6.2831853071795996 $169 $277 forward 7 unknown #
face $-1 $278 $279 $36 $-1 $280 forward single #
loop $-1 $-1 $281 $106 #
plane-surface $-1 -13.633476588659455 -104.4419661492512 84.971274244798735 1 0 0 0 0.68199836817093118 -0.7313536940579346 forward_v I I I I #
coedge $-1 $282 $283 $284 $285 reversed $107 $-1 #
coedge $-1 $176 $109 $286 $287 reversed $69 $-1 #
coedge $-1 $109 $175 $282 $288 reversed $69 $-1 #
coedge $-1 $284 $289 $109 $178 forward $279 $-1 #
edge $-1 $290 24.511170129319886 $291 29.425592840844907 $177 $292 forward 7 unknown #
loop $-1 $-1 $184 $110 #
plane-surface $-1 -4.5164959802203626 -27.709812945305714 2.68611592509464 0 -0.68199836817093118 0.7313536940579346 1 0 0 forward_v I I I I #
loop $-1 $-1 $293 $71 #
coedge $-1 $182 $182 $183 $294 reversed $111 $-1 #
coedge $-1 $183 $183 $182 $294 forward $113 $-1 #
coedge $-1 $184 $184 $114 $185 forward $179 $-1 #
edge $-1 $295 -4.0382415525341458e-016 $295 6.2831853071796004 $184 $296 forward 7 unknown #
loop $-1 $-1 $191 $115 #
plane-surface $-1 -4.5164959802203626 -27.709812945305714 2.68611592509464 0 -0.68199836817093118 0.7313536940579346 1 0 0 forward_v I I I I #
loop $-1 $-1 $297 $74 #
coedge $-1 $189 $189 $190 $298 reversed $116 $-1 #
coedge $-1 $190 $190 $189 $298 forward $118 $-1 #
coedge $-1 $191 $191 $119 $192 forward $186 $-1 #
edge $-1 $299 -4.0382415525341458e-016 $299 6.2831853071796004 $191 $300 forward 7 unknown #
loop $-1 $-1 $198 $120 #
plane-surface $-1 -4.5164959802203626 -27.709812945305714 2.68611592509464 0 -0.68199836817093118 0.7313536940579346 1 0 0 forward_v I I I I #
loop $-1 $-1 $301 $77 #
coedge $-1 $196 $196 $197 $302 reversed $121 $-1 #
coedge $-1 $197 $197 $196 $302 forward $123 $-1 #
coedge $-1 $198 $198 $124 $199 forward $193 $-1 #
edge $-1 $303 -4.0382415525341458e-016 $303 6.2831853071796004 $198 $304 forward 7 unknown #
face $-1 $305 $306 $30 $-1 $307 reversed single #
loop $-1 $-1 $308 $125 #
plane-surface $-1 -56.255378887295144 0 0 1 0 0 0 0 -1 forward_v I I I I #
coedge $-1 $309 $211 $310 $311 forward $126 $-1 #
coedge $-1 $312 $128 $309 $313 forward $81 $-1 #
coedge $-1 $128 $312 $314 $315 forward $81 $-1 #
coedge $-1 $214 $213 $128 $207 reversed $215 $-1 #
edge $-1 $316 -27.709812945305714 $317 27.709812945305714 $206 $318 forward 7 unknown #
coedge $-1 $130 $129 $319 $320 forward $51 $-1 #
coedge $-1 $321 $322 $129 $210 reversed $306 $-1 #
edge $-1 $217 -56.255378887295144 $323 56.255378887295144 $209 $324 forward 7 unknown #
coedge $-1 $203 $325 $130 $212 reversed $126 $-1 #
edge $-1 $326 -56.255378887295144 $216 56.255378887295144 $211 $327 forward 7 unknown #
coedge $-1 $206 $131 $325 $328 forward $215 $-1 #
coedge $-1 $131 $206 $321 $329 reversed $215 $-1 #
loop $-1 $-1 $213 $305 #
vertex $-1 $132 $330 #
vertex $-1 $132 $331 #
straight-curve $-1 56.255378887295144 0 7.2688893451147569 0 1 0 I I #
face $-1 $332 $333 $31 $-1 $334 forward single #
loop $-1 $-1 $335 $133 #
plane-surface $-1 0 0 -7.2688893451147569 0 0 1 1 0 0 forward_v I I I I #
coedge $-1 $336 $337 $227 $338 forward $134 $-1 #
coedge $-1 $339 $136 $335 $340 reversed $85 $-1 #
coedge $-1 $136 $339 $341 $342 reversed $85 $-1 #
coedge $-1 $337 $336 $136 $226 reversed $134 $-1 #
edge $-1 $343 -7.2688893451147569 $344 7.2688893451147569 $225 $345 forward 7 unknown #
coedge $-1 $138 $137 $222 $338 reversed $54 $-1 #
coedge $-1 $346 $347 $137 $229 forward $220 $-1 #
edge $-1 $348 21.93250469859985 $235 30.192751025330146 $228 $349 forward 7 unknown #
coedge $-1 $350 $351 $138 $231 forward $333 $-1 #
edge $-1 $236 -30.192751025330146 $352 -21.93250469859985 $230 $353 forward 7 unknown #
coedge $-1 $354 $139 $351 $355 reversed $234 $-1 #
coedge $-1 $139 $354 $346 $356 reversed $234 $-1 #
loop $-1 $-1 $354 $332 #
vertex $-1 $356 $357 #
vertex $-1 $140 $358 #
straight-curve $-1 -56.255378887295144 -17.141872274625339 0 0 0 1 I I #
face $-1 $359 $360 $32 $-1 $361 forward single #
loop $-1 $-1 $247 $141 #
plane-surface $-1 0 0 -7.2688893451147569 0 0 1 1 0 0 forward_v I I I I #
coedge $-1 $362 $363 $364 $365 reversed $142 $-1 #
coedge $-1 $147 $144 $366 $367 reversed $89 $-1 #
coedge $-1 $144 $147 $368 $369 reversed $89 $-1 #
coedge $-1 $363 $362 $144 $245 reversed $142 $-1 #
edge $-1 $370 -7.2688893451147569 $371 7.2688893451147569 $244 $372 forward 7 unknown #
coedge $-1 $146 $145 $373 $374 reversed $57 $-1 #
coedge $-1 $366 $375 $145 $248 forward $239 $-1 #
edge $-1 $376 -30.192751025330143 $252 -21.932504698599846 $247 $377 forward 7 unknown #
coedge $-1 $378 $368 $146 $250 forward $360 $-1 #
edge $-1 $251 21.932504698599846 $379 30.192751025330143 $249 $380 forward 7 unknown #
vertex $-1 $250 $381 #
vertex $-1 $248 $382 #
straight-curve $-1 47.995132560564841 -17.141872274625339 0 0 0 -1 I I #
face $-1 $-1 $266 $33 $-1 $383 forward single #
loop $-1 $-1 $384 $149 #
plane-surface $-1 0 27.709812945305714 0 0 -1 0 0 0 -1 forward_v I I I I #
coedge $-1 $385 $386 $387 $388 reversed $150 $-1 #
coedge $-1 $389 $152 $154 $264 forward $93 $-1 #
coedge $-1 $152 $389 $385 $390 forward $93 $-1 #
coedge $-1 $387 $155 $152 $261 forward $266 $-1 #
edge $-1 $268 -20.49156690864319 $391 -6.654754895134726 $260 $392 forward 7 unknown #
coedge $-1 $393 $394 $153 $263 forward $255 $-1 #
edge $-1 $395 -58.686561637670543 $267 -52.789261605747946 $262 $396 forward 7 unknown #
edge $-1 $268 47.079584300848985 $395 55.419625890611449 $154 $397 forward 7 unknown #
coedge $-1 $155 $387 $393 $398 forward $266 $-1 #
loop $-1 $-1 $387 $254 #
vertex $-1 $263 $399 #
vertex $-1 $156 $400 #
straight-curve $-1 -34.064727810532148 34.039670411912169 7.2688893451147578 0 -1 0 I I #
coedge $-1 $270 $270 $-1 $401 reversed $159 $-1 #
edge $-1 $402 0 $402 6.2831853071796004 $160 $403 forward 7 unknown #
vertex $-1 $163 $404 #
ellipse-curve $-1 -30.111352949529728 24.76116299776815 4.3202393291534618 0 0.70710678939079041 0.70710677298230451 0.5 0 0 1 I I #
coedge $-1 $274 $274 $-1 $405 reversed $166 $-1 #
edge $-1 $406 0 $406 6.2831853071796004 $167 $407 forward 7 unknown #
vertex $-1 $170 $408 #
ellipse-curve $-1 -24.1812906580261 24.76116299776815 4.3202393291534618 0 0.70710678939079041 0.70710677298230451 0.5 0 0 1 I I #
face $-1 $-1 $409 $36 $-1 $410 reversed single #
loop $-1 $-1 $177 $171 #
plane-surface $-1 0 0 7.2688893451147569 0 0 1 1 0 0 forward_v I I I I #
coedge $-1 $411 $412 $413 $414 reversed $172 $-1 #
coedge $-1 $415 $174 $176 $288 forward $107 $-1 #
coedge $-1 $174 $415 $411 $416 forward $107 $-1 #
coedge $-1 $413 $177 $174 $285 forward $279 $-1 #
edge $-1 $291 -6.8587326183289115 $417 11.375228598549274 $284 $418 forward 7 unknown #
coedge $-1 $419 $420 $175 $287 forward $409 $-1 #
edge $-1 $421 -39.799521197304728 $290 -35.21674777728461 $286 $422 forward 7 unknown #
edge $-1 $291 -6.719625198386872 $421 0 $176 $423 forward 7 unknown #
coedge $-1 $177 $413 $419 $424 forward $279 $-1 #
vertex $-1 $178 $425 #
vertex $-1 $178 $426 #
straight-curve $-1 4.6004846282187302 -52.2209830746256 7.2688893451147578 0 1 0 I I #
coedge $-1 $293 $293 $-1 $427 reversed $181 $-1 #
edge $-1 $428 0 $428 6.2831853071796004 $182 $429 forward 7 unknown #
vertex $-1 $185 $430 #
ellipse-curve $-1 -9.9866843452838197 -25.252601589543204 4.977502635104698 0 -0.68199836817093118 0.7313536940579346 1.5 0 0 1 I I #
coedge $-1 $297 $297 $-1 $431 reversed $188 $-1 #
edge $-1 $432 0 $432 6.2831853071796004 $189 $433 forward 7 unknown #
vertex $-1 $192 $434 #
ellipse-curve $-1 -4.5164959802203626 -25.252601589543204 4.977502635104698 0 -0.68199836817093118 0.7313536940579346 1.5 0 0 1 I I #
coedge $-1 $301 $301 $-1 $435 reversed $195 $-1 #
edge $-1 $436 0 $436 6.2831853071796004 $196 $437 forward 7 unknown #
vertex $-1 $199 $438 #
ellipse-curve $-1 0.95369238484309449 -25.252601589543204 4.977502635104698 0 -0.68199836817093118 0.7313536940579346 1.5 0 0 1 I I #
face $-1 $-1 $215 $30 $-1 $439 reversed single #
loop $-1 $-1 $321 $200 #
plane-surface $-1 0 27.709812945305714 0 0 -1 0 0 0 -1 forward_v I I I I #
coedge $-1 $440 $319 $322 $441 forward $201 $-1 #
coedge $-1 $325 $203 $204 $313 reversed $126 $-1 #
coedge $-1 $319 $440 $203 $311 reversed $201 $-1 #
edge $-1 $326 -7.2688893451147569 $442 7.2688893451147569 $310 $443 forward 7 unknown #
coedge $-1 $205 $204 $440 $444 forward $81 $-1 #
edge $-1 $317 -56.255378887295144 $442 56.255378887295144 $309 $445 forward 7 unknown #
coedge $-1 $322 $321 $205 $315 reversed $306 $-1 #
edge $-1 $446 -56.255378887295144 $316 56.255378887295144 $314 $447 forward 7 unknown #
vertex $-1 $207 $448 #
vertex $-1 $328 $449 #
straight-curve $-1 56.255378887295144 0 -7.2688893451147569 0 -1 0 I I #
coedge $-1 $308 $310 $208 $320 reversed $201 $-1 #
edge $-1 $323 -27.709812945305714 $326 27.709812945305714 $319 $450 forward 7 unknown #
coedge $-1 $314 $209 $214 $329 forward $306 $-1 #
coedge $-1 $209 $314 $308 $441 reversed $306 $-1 #
vertex $-1 $210 $451 #
straight-curve $-1 0 27.709812945305714 7.2688893451147569 -1 0 0 I I #
coedge $-1 $211 $309 $213 $328 reversed $126 $-1 #
vertex $-1 $320 $452 #
straight-curve $-1 0 -27.709812945305714 7.2688893451147569 1 0 0 I I #
edge $-1 $216 -7.2688893451147569 $317 7.2688893451147569 $213 $453 forward 7 unknown #
edge $-1 $217 -7.2688893451147569 $316 7.2688893451147569 $214 $454 forward 7 unknown #
point $-1 56.255378887295144 -27.709812945305714 7.2688893451147569 #
point $-1 56.255378887295144 27.709812945305714 7.2688893451147569 #
face $-1 $-1 $234 $31 $-1 $455 reversed single #
loop $-1 $-1 $341 $219 #
plane-surface $-1 0 0 7.2688893451147569 0 0 1 1 0 0 forward_v I I I I #
coedge $-1 $347 $346 $223 $340 forward $220 $-1 #
coedge $-1 $225 $222 $347 $456 reversed $134 $-1 #
coedge $-1 $222 $225 $350 $457 reversed $134 $-1 #
edge $-1 $352 -7.2688893451147569 $348 7.2688893451147569 $222 $458 forward 7 unknown #
coedge $-1 $224 $223 $354 $459 reversed $85 $-1 #
edge $-1 $460 -30.192751025330146 $344 -21.93250469859985 $335 $461 forward 7 unknown #
coedge $-1 $351 $350 $224 $342 forward $333 $-1 #
edge $-1 $343 21.93250469859985 $462 30.192751025330146 $341 $463 forward 7 unknown #
vertex $-1 $342 $464 #
vertex $-1 $340 $465 #
straight-curve $-1 -47.995132560564848 -13.172034255076202 0 0 0 -1 I I #
coedge $-1 $335 $228 $233 $356 forward $220 $-1 #
coedge $-1 $228 $335 $336 $456 forward $220 $-1 #
vertex $-1 $229 $466 #
straight-curve $-1 -26.062627861964998 -17.141872274625339 -7.2688893451147569 -1 0 0 I I #
coedge $-1 $341 $230 $337 $457 forward $333 $-1 #
coedge $-1 $230 $341 $232 $355 forward $333 $-1 #
vertex $-1 $231 $467 #
straight-curve $-1 -26.062627861964998 -17.141872274625339 7.2688893451147569 1 0 0 I I #
coedge $-1 $233 $232 $339 $459 forward $234 $-1 #
edge $-1 $462 13.172034255076202 $236 17.141872274625339 $232 $468 forward 7 unknown #
edge $-1 $235 -17.141872274625339 $460 -13.172034255076202 $233 $469 forward 7 unknown #
point $-1 -56.255378887295144 -17.141872274625339 -7.2688893451147569 #
point $-1 -56.255378887295144 -17.141872274625339 7.2688893451147569 #
face $-1 $-1 $470 $32 $-1 $471 reversed single #
loop $-1 $-1 $249 $238 #
plane-surface $-1 0 0 7.2688893451147569 0 0 1 1 0 0 forward_v I I I I #
coedge $-1 $244 $241 $472 $473 reversed $142 $-1 #
coedge $-1 $241 $244 $474 $475 reversed $142 $-1 #
coedge $-1 $476 $477 $241 $365 forward $470 $-1 #
edge $-1 $478 -7.2688893451147569 $479 7.2688893451147569 $364 $480 forward 7 unknown #
coedge $-1 $472 $247 $242 $367 forward $239 $-1 #
edge $-1 $252 -9.5633956421999535 $371 -5.5935576226508168 $366 $481 forward 7 unknown #
coedge $-1 $249 $474 $243 $369 forward $360 $-1 #
edge $-1 $370 5.5935576226508168 $251 9.5633956421999535 $368 $482 forward 7 unknown #
vertex $-1 $369 $483 #
vertex $-1 $367 $484 #
straight-curve $-1 47.995132560564841 -13.172034255076202 0 0 0 -1 I I #
coedge $-1 $477 $476 $246 $374 forward $470 $-1 #
edge $-1 $379 -7.2688893451147569 $376 7.2688893451147569 $373 $485 forward 7 unknown #
coedge $-1 $247 $472 $477 $486 forward $239 $-1 #
vertex $-1 $374 $487 #
straight-curve $-1 26.062627861964994 -17.141872274625339 -7.2688893451147569 -1 0 0 I I #
coedge $-1 $474 $249 $476 $488 forward $360 $-1 #
vertex $-1 $488 $489 #
straight-curve $-1 26.062627861964994 -17.141872274625339 7.2688893451147569 1 0 0 I I #
point $-1 47.995132560564841 -17.141872274625339 7.2688893451147569 #
point $-1 47.995132560564841 -17.141872274625339 -7.2688893451147569 #
plane-surface $-1 0 0 7.2688893451147569 0 0 1 1 0 0 forward_v I I I I #
coedge $-1 $394 $393 $386 $490 forward $255 $-1 #
coedge $-1 $386 $257 $259 $390 reversed $150 $-1 #
coedge $-1 $257 $385 $384 $490 reversed $150 $-1 #
coedge $-1 $265 $260 $257 $388 forward $266 $-1 #
edge $-1 $391 -12.227157361681599 $491 -6.3298574666064553 $387 $492 forward 7 unknown #
coedge $-1 $259 $258 $394 $493 reversed $93 $-1 #
edge $-1 $494 -55.419625890611449 $391 -47.079584300848985 $385 $495 forward 7 unknown #
vertex $-1 $261 $496 #
straight-curve $-1 -13.573160901888958 21.812513050230574 7.2688893451147543 1 0 0 I I #
coedge $-1 $384 $262 $265 $398 reversed $255 $-1 #
coedge $-1 $262 $384 $389 $493 forward $255 $-1 #
vertex $-1 $263 $497 #
straight-curve $-1 -34.064727810532148 27.709812945305714 60.058150950862704 0 0 1 I I #
straight-curve $-1 -34.064727810532148 -11.477779878091113 40.55918304594114 0 0.70710677298230451 -0.70710678939079041 I I #
edge $-1 $491 20.227915797023684 $267 34.064727810532148 $393 $498 forward 7 unknown #
point $-1 -34.064727810532148 27.709812945305714 7.2688893451147569 #
point $-1 -34.064727810532148 21.812513050230571 7.2688893451147578 #
edge $-1 $499 1 $499 0 $270 $-1 forward 7 unknown #
vertex $-1 $271 $500 #
ellipse-curve $-1 -30.111352949529728 23.624617287851322 3.1836936456102962 0 0.70710678939079041 0.70710677298230451 0.5 0 0 1 I I #
point $-1 -29.611352949529728 24.761162997768153 4.3202393291534662 #
edge $-1 $501 1 $501 0 $274 $-1 forward 7 unknown #
vertex $-1 $275 $502 #
ellipse-curve $-1 -24.1812906580261 23.624617287851322 3.1836936456102962 0 0.70710678939079041 0.70710677298230451 0.5 0 0 1 I I #
point $-1 -23.6812906580261 24.761162997768153 4.3202393291534662 #
loop $-1 $-1 $286 $278 #
plane-surface $-1 0 -27.709812945305714 0 0 1 0 0 0 1 forward_v I I I I #
coedge $-1 $412 $281 $283 $416 reversed $172 $-1 #
coedge $-1 $281 $411 $503 $504 reversed $172 $-1 #
coedge $-1 $289 $284 $281 $414 forward $279 $-1 #
edge $-1 $417 -29.425592840844907 $505 -24.511170129319886 $413 $506 forward 7 unknown #
coedge $-1 $283 $282 $420 $507 reversed $107 $-1 #
edge $-1 $508 0 $417 6.719625198386872 $411 $509 forward 7 unknown #
vertex $-1 $285 $510 #
straight-curve $-1 -2.2582479901101813 -22.795390233780694 7.2688893451147569 -1 0 0 I I #
coedge $-1 $503 $286 $289 $424 reversed $409 $-1 #
coedge $-1 $286 $503 $415 $507 forward $409 $-1 #
vertex $-1 $287 $511 #
straight-curve $-1 4.6004846282187302 -27.709812945305714 42.485637122399368 0 0 1 I I #
straight-curve $-1 4.6004846282187302 -27.709812945305714 2.68611592509464 0 -0.7313536940579346 -0.68199836817093118 I I #
edge $-1 $505 -13.633476588659455 $290 4.6004846282187302 $419 $512 forward 7 unknown #
point $-1 4.6004846282187302 -27.709812945305714 7.2688893451147569 #
point $-1 4.6004846282187302 -22.795390233780694 7.2688893451147569 #
edge $-1 $513 1 $513 0 $293 $-1 forward 7 unknown #
vertex $-1 $294 $514 #
ellipse-curve $-1 -9.9866843452838197 -24.139033771498184 3.7833473770863373 0 -0.68199836817093118 0.7313536940579346 1.5 0 0 1 I I #
point $-1 -8.4866843452838197 -25.252601589543204 4.9775026351046971 #
edge $-1 $515 1 $515 0 $297 $-1 forward 7 unknown #
vertex $-1 $298 $516 #
ellipse-curve $-1 -4.5164959802203626 -24.139033771498184 3.7833473770863373 0 -0.68199836817093118 0.7313536940579346 1.5 0 0 1 I I #
point $-1 -3.0164959802203626 -25.252601589543204 4.9775026351046971 #
edge $-1 $517 1 $517 0 $301 $-1 forward 7 unknown #
vertex $-1 $302 $518 #
ellipse-curve $-1 0.95369238484309449 -24.139033771498184 3.7833473770863373 0 -0.68199836817093118 0.7313536940579346 1.5 0 0 1 I I #
point $-1 2.4536923848430945 -25.252601589543204 4.9775026351046971 #
plane-surface $-1 56.255378887295144 0 0 -1 0 0 0 0 1 forward_v I I I I #
coedge $-1 $310 $308 $312 $444 reversed $201 $-1 #
edge $-1 $323 -7.2688893451147569 $446 7.2688893451147569 $322 $519 forward 7 unknown #
vertex $-1 $444 $520 #
straight-curve $-1 -56.255378887295144 -27.709812945305714 0 0 0 -1 I I #
edge $-1 $442 -27.709812945305714 $446 27.709812945305714 $440 $521 forward 7 unknown #
straight-curve $-1 0 -27.709812945305714 -7.2688893451147569 -1 0 0 I I #
vertex $-1 $315 $522 #
straight-curve $-1 0 27.709812945305714 -7.2688893451147569 1 0 0 I I #
point $-1 56.255378887295144 27.709812945305714 -7.2688893451147569 #
point $-1 56.255378887295144 -27.709812945305714 -7.2688893451147569 #
straight-curve $-1 -56.255378887295144 0 7.2688893451147569 0 -1 0 I I #
point $-1 -56.255378887295144 27.709812945305714 7.2688893451147569 #
point $-1 -56.255378887295144 -27.709812945305714 7.2688893451147569 #
straight-curve $-1 56.255378887295144 -27.709812945305714 0 0 0 -1 I I #
straight-curve $-1 56.255378887295144 27.709812945305714 0 0 0 -1 I I #
plane-surface $-1 -56.255378887295144 0 0 1 0 0 0 0 -1 forward_v I I I I #
edge $-1 $344 5.5935576226508168 $348 9.5633956421999535 $347 $523 forward 7 unknown #
edge $-1 $352 -9.5633956421999535 $343 -5.5935576226508168 $350 $524 forward 7 unknown #
straight-curve $-1 -47.995132560564848 -17.141872274625339 0 0 0 -1 I I #
edge $-1 $462 -7.2688893451147569 $460 7.2688893451147569 $354 $525 forward 7 unknown #
vertex $-1 $459 $526 #
straight-curve $-1 -26.062627861964998 -13.172034255076202 -7.2688893451147569 1 0 0 I I #
vertex $-1 $355 $527 #
straight-curve $-1 -26.062627861964998 -13.172034255076202 7.2688893451147569 -1 0 0 I I #
point $-1 -47.995132560564848 -13.172034255076202 7.2688893451147569 #
point $-1 -47.995132560564848 -13.172034255076202 -7.2688893451147569 #
point $-1 -47.995132560564848 -17.141872274625339 -7.2688893451147569 #
point $-1 -47.995132560564848 -17.141872274625339 7.2688893451147569 #
straight-curve $-1 -56.255378887295144 0 7.2688893451147569 0 -1 0 I I #
straight-curve $-1 -56.255378887295144 0 -7.2688893451147569 0 1 0 I I #
loop $-1 $-1 $373 $359 #
plane-surface $-1 56.255378887295144 0 0 -1 0 0 0 0 1 forward_v I I I I #
coedge $-1 $375 $366 $362 $473 forward $239 $-1 #
edge $-1 $371 21.932504698599846 $478 30.192751025330143 $472 $528 forward 7 unknown #
coedge $-1 $368 $378 $363 $475 forward $360 $-1 #
edge $-1 $479 -30.192751025330143 $370 -21.932504698599846 $474 $529 forward 7 unknown #
coedge $-1 $373 $364 $378 $488 reversed $470 $-1 #
coedge $-1 $364 $373 $375 $486 reversed $470 $-1 #
vertex $-1 $486 $530 #
vertex $-1 $365 $531 #
straight-curve $-1 56.255378887295144 -13.172034255076202 0 0 0 1 I I #
straight-curve $-1 47.995132560564841 -7.5784766324253852 -7.2688893451147569 0 1 0 I I #
straight-curve $-1 47.995132560564841 -7.5784766324253852 7.2688893451147569 0 -1 0 I I #
point $-1 47.995132560564841 -13.172034255076202 7.2688893451147569 #
point $-1 47.995132560564841 -13.172034255076202 -7.2688893451147569 #
straight-curve $-1 56.255378887295144 -17.141872274625339 0 0 0 -1 I I #
edge $-1 $478 13.172034255076202 $376 17.141872274625339 $477 $532 forward 7 unknown #
point $-1 56.255378887295137 -17.141872274625339 -7.2688893451147569 #
edge $-1 $379 -17.141872274625339 $479 -13.172034255076202 $476 $533 forward 7 unknown #
point $-1 56.255378887295137 -17.141872274625339 7.2688893451147569 #
edge $-1 $491 52.789261605747946 $494 58.686561637670543 $384 $534 forward 7 unknown #
vertex $-1 $398 $535 #
straight-curve $-1 -20.227915797023684 34.039670411912169 7.2688893451147578 0 1 0 I I #
edge $-1 $494 6.654754895134726 $395 20.49156690864319 $394 $536 forward 7 unknown #
vertex $-1 $493 $537 #
straight-curve $-1 -20.227915797023684 -11.477779878091113 40.55918304594114 0 -0.70710677298230451 0.70710678939079041 I I #
point $-1 -20.227915797023684 21.812513050230571 7.2688893451147578 #
point $-1 -34.064727810532148 27.709812945305714 1.3715893131921604 #
straight-curve $-1 0 27.709812945305714 7.2688893451147569 -1 0 0 I I #
vertex $-1 $401 $538 #
point $-1 -29.611352949529728 23.624617287851322 3.1836936456102962 #
vertex $-1 $405 $539 #
point $-1 -23.6812906580261 23.624617287851322 3.1836936456102962 #
coedge $-1 $420 $419 $412 $504 forward $409 $-1 #
edge $-1 $505 35.21674777728461 $508 39.799521197304728 $503 $540 forward 7 unknown #
vertex $-1 $424 $541 #
straight-curve $-1 -13.633476588659455 -52.2209830746256 7.2688893451147578 0 -1 0 I I #
edge $-1 $508 -11.375228598549274 $421 6.8587326183289115 $420 $542 forward 7 unknown #
vertex $-1 $507 $543 #
straight-curve $-1 -13.633476588659455 -27.709812945305714 2.68611592509464 0 0.7313536940579346 0.68199836817093118 I I #
point $-1 -13.633476588659455 -22.795390233780694 7.2688893451147569 #
point $-1 4.6004846282187302 -27.709812945305714 2.68611592509464 #
straight-curve $-1 0 -27.709812945305714 7.2688893451147569 1 0 0 I I #
vertex $-1 $427 $544 #
point $-1 -8.4866843452838197 -24.139033771498184 3.7833473770863373 #
vertex $-1 $431 $545 #
point $-1 -3.0164959802203626 -24.139033771498184 3.7833473770863373 #
vertex $-1 $435 $546 #
point $-1 2.4536923848430945 -24.139033771498184 3.7833473770863373 #
straight-curve $-1 -56.255378887295144 27.709812945305714 0 0 0 -1 I I #
point $-1 -56.255378887295144 -27.709812945305714 -7.2688893451147569 #
straight-curve $-1 -56.255378887295144 0 -7.2688893451147569 0 1 0 I I #
point $-1 -56.255378887295144 27.709812945305714 -7.2688893451147569 #
straight-curve $-1 -47.995132560564848 -7.5784766324253852 -7.2688893451147569 0 -1 0 I I #
straight-curve $-1 -47.995132560564848 -7.5784766324253852 7.2688893451147569 0 1 0 I I #
straight-curve $-1 -56.255378887295144 -13.172034255076202 0 0 0 -1 I I #
point $-1 -56.255378887295144 -13.172034255076202 -7.2688893451147569 #
point $-1 -56.255378887295144 -13.172034255076202 7.2688893451147569 #
straight-curve $-1 26.062627861964994 -13.172034255076202 -7.2688893451147569 1 0 0 I I #
straight-curve $-1 26.062627861964994 -13.172034255076202 7.2688893451147569 -1 0 0 I I #
point $-1 56.255378887295137 -13.172034255076202 -7.2688893451147569 #
point $-1 56.255378887295137 -13.172034255076202 7.2688893451147569 #
straight-curve $-1 56.255378887295144 0 -7.2688893451147569 0 -1 0 I I #
straight-curve $-1 56.255378887295144 0 7.2688893451147569 0 1 0 I I #
straight-curve $-1 -20.227915797023684 27.709812945305714 60.058150950862704 0 0 -1 I I #
point $-1 -20.227915797023684 27.709812945305714 7.2688893451147569 #
straight-curve $-1 -13.573160901888958 27.709812945305714 1.3715893131921639 -1 0 0 I I #
point $-1 -20.227915797023684 27.709812945305714 1.3715893131921604 #
point $-1 -30.111352949529728 23.271063893155926 2.8301402591191436 #
point $-1 -24.1812906580261 23.271063893155926 2.8301402591191436 #
straight-curve $-1 -13.633476588659455 -27.709812945305714 42.485637122399368 0 0 -1 I I #
point $-1 -13.633476588659455 -27.709812945305714 7.2688893451147569 #
straight-curve $-1 -2.2582479901101813 -27.709812945305714 2.68611592509464 1 0 0 I I #
point $-1 -13.633476588659455 -27.709812945305714 2.68611592509464 #
point $-1 -9.9866843452838197 -23.116036219241785 2.6863168359994356 #
point $-1 -4.5164959802203626 -23.116036219241785 2.6863168359994356 #
point $-1 0.95369238484309449 -23.116036219241785 2.6863168359994356 #
End-of-ACIS-data 