500 0 14 0           
7 Unknown 11 ACIS 5.0 NT 24 Thu Mar 25 16:29:34 1999 
-1 9.9999999999999995e-007 1e-010 
body $-1 $14 $-1 $15 #
body $-1 $16 $-1 $17 #
body $-1 $18 $-1 $19 #
body $-1 $20 $-1 $21 #
body $-1 $22 $-1 $23 #
body $-1 $24 $-1 $25 #
body $-1 $26 $-1 $27 #
body $-1 $28 $-1 $29 #
body $-1 $30 $-1 $31 #
body $-1 $32 $-1 $33 #
body $-1 $34 $-1 $35 #
body $-1 $36 $-1 $37 #
body $-1 $38 $-1 $39 #
body $-1 $40 $-1 $41 #
lump $-1 $-1 $42 $0 #
transform $-1 1 0 0 0 1 0 0 0 1 40.120853297524945 25.296940620060575 6.3929839743216528 1 rotate no_reflect no_shear #
lump $-1 $-1 $43 $1 #
transform $-1 1 0 0 0 1 0 0 0 1 40.120853297524945 25.296940620060575 6.3929839743216528 1 rotate no_reflect no_shear #
lump $-1 $-1 $44 $2 #
transform $-1 1 0 0 0 1 0 0 0 1 40.120853297524945 25.296940620060575 6.3929839743216528 1 rotate no_reflect no_shear #
lump $-1 $-1 $45 $3 #
transform $-1 1 0 0 0 1 0 0 0 1 40.120853297524945 25.296940620060575 6.3929839743216528 1 rotate no_reflect no_shear #
lump $-1 $-1 $46 $4 #
transform $-1 1 0 0 0 1 0 0 0 1 40.120853297524945 25.296940620060575 6.3929839743216528 1 rotate no_reflect no_shear #
lump $-1 $-1 $47 $5 #
transform $-1 1 0 0 0 1 0 0 0 1 40.120853297524945 25.296940620060575 6.3929839743216528 1 rotate no_reflect no_shear #
lump $-1 $-1 $48 $6 #
transform $-1 1 0 0 0 1 0 0 0 1 40.120853297524945 25.296940620060575 6.3929839743216528 1 rotate no_reflect no_shear #
lump $-1 $-1 $49 $7 #
transform $-1 1 0 0 0 1 0 0 0 1 40.120853297524945 25.296940620060575 6.3929839743216528 1 rotate no_reflect no_shear #
lump $-1 $-1 $50 $8 #
transform $-1 1 0 0 0 1 0 0 0 1 40.120853297524945 25.296940620060575 6.3929839743216528 1 rotate no_reflect no_shear #
lump $-1 $-1 $51 $9 #
transform $-1 1 0 0 0 1 0 0 0 1 40.120853297524945 25.296940620060575 6.3929839743216528 1 rotate no_reflect no_shear #
lump $-1 $-1 $52 $10 #
transform $-1 1 0 0 0 1 0 0 0 1 40.120853297524945 25.296940620060575 6.3929839743216528 1 rotate no_reflect no_shear #
lump $-1 $-1 $53 $11 #
transform $-1 1 0 0 0 1 0 0 0 1 40.120853297524945 25.296940620060575 6.3929839743216528 1 rotate no_reflect no_shear #
lump $-1 $-1 $54 $12 #
transform $-1 1 0 0 0 1 0 0 0 1 40.120853297524945 25.296940620060575 6.3929839743216528 1 rotate no_reflect no_shear #
lump $-1 $-1 $55 $13 #
transform $-1 1 0 0 0 1 0 0 0 1 40.120853297524945 25.296940620060575 6.3929839743216528 1 rotate no_reflect no_shear #
shell $-1 $-1 $-1 $56 $-1 $14 #
shell $-1 $-1 $-1 $57 $-1 $16 #
shell $-1 $-1 $-1 $58 $-1 $18 #
shell $-1 $-1 $-1 $59 $-1 $20 #
shell $-1 $-1 $-1 $60 $-1 $22 #
shell $-1 $-1 $-1 $61 $-1 $24 #
shell $-1 $-1 $-1 $62 $-1 $26 #
shell $-1 $-1 $-1 $63 $-1 $28 #
shell $-1 $-1 $-1 $64 $-1 $30 #
shell $-1 $-1 $-1 $65 $-1 $32 #
shell $-1 $-1 $-1 $66 $-1 $34 #
shell $-1 $-1 $-1 $67 $-1 $36 #
shell $-1 $-1 $-1 $68 $-1 $38 #
shell $-1 $-1 $-1 $69 $-1 $40 #
face $-1 $70 $71 $42 $-1 $72 forward single #
face $-1 $73 $74 $43 $-1 $75 forward single #
face $-1 $76 $77 $44 $-1 $78 forward single #
face $-1 $79 $80 $45 $-1 $81 reversed single #
face $-1 $82 $83 $46 $-1 $84 forward single #
face $-1 $85 $86 $47 $-1 $87 forward single #
face $-1 $88 $89 $48 $-1 $90 reversed single #
face $-1 $91 $92 $49 $-1 $93 forward single #
face $-1 $94 $95 $50 $-1 $96 forward single #
face $-1 $97 $98 $51 $-1 $99 reversed single #
face $-1 $100 $101 $52 $-1 $102 forward single #
face $-1 $103 $104 $53 $-1 $105 forward single #
face $-1 $106 $107 $54 $-1 $108 reversed single #
face $-1 $109 $110 $55 $-1 $111 forward single #
face $-1 $112 $113 $42 $-1 $114 reversed single #
loop $-1 $-1 $115 $56 #
plane-surface $-1 0 0 6.3929839743216528 0 0 1 1 0 0 forward_v I I I I #
face $-1 $116 $117 $43 $-1 $118 reversed single #
loop $-1 $-1 $119 $57 #
plane-surface $-1 0 -21.16790255631097 -3.3929839743216528 0 0 1 1 0 0 forward_v I I I I #
face $-1 $120 $121 $44 $-1 $122 reversed single #
loop $-1 $-1 $123 $58 #
plane-surface $-1 0 21.16790255631097 -3.3929839743216528 0 0 1 1 0 0 forward_v I I I I #
face $-1 $124 $125 $45 $-1 $126 reversed single #
loop $-1 $-1 $127 $59 #
plane-surface $-1 30.230515799301756 -5.6796214975204569 113.17103625477094 0 -1 0 -0.64278761758704617 0 -0.76604443648966558 forward_v I I I I #
face $-1 $128 $129 $46 $-1 $130 forward single #
loop $-1 $131 $132 $60 #
cone-surface $-1 35.964816102697782 -10.928667974044531 2.7573762905154586 -0.64278761758704617 0 -0.76604443648966558 0.38302221824483279 0 -0.32139380879352308 1 I I 0 1 0.5 forward I I I I #
face $-1 $133 $134 $47 $-1 $135 forward single #
loop $-1 $136 $137 $61 #
cone-surface $-1 35.964816102697782 -7.7792400881300878 2.7573762905154586 -0.64278761758704617 0 -0.76604443648966558 0.38302221824483279 0 -0.32139380879352308 1 I I 0 1 0.5 forward I I I I #
face $-1 $138 $139 $48 $-1 $140 reversed single #
loop $-1 $-1 $141 $62 #
plane-surface $-1 30.230515799301756 3.6743325335668517 113.17103625477094 0 -1 0 -0.64278761758704617 0 -0.76604443648966558 forward_v I I I I #
face $-1 $142 $143 $49 $-1 $144 forward single #
loop $-1 $145 $146 $63 #
cone-surface $-1 35.964816102697782 -1.5747139429572243 2.7573762905154586 -0.64278761758704617 0 -0.76604443648966558 0.38302221824483279 0 -0.32139380879352308 1 I I 0 1 0.5 forward I I I I #
face $-1 $147 $148 $50 $-1 $149 forward single #
loop $-1 $150 $151 $64 #
cone-surface $-1 35.964816102697782 1.5747139429572208 2.7573762905154586 -0.64278761758704617 0 -0.76604443648966558 0.38302221824483279 0 -0.32139380879352308 1 I I 0 1 0.5 forward I I I I #
face $-1 $152 $153 $51 $-1 $154 reversed single #
loop $-1 $-1 $155 $65 #
plane-surface $-1 30.230515799301756 13.028286564654156 113.17103625477094 0 -1 0 -0.64278761758704617 0 -0.76604443648966558 forward_v I I I I #
face $-1 $156 $157 $52 $-1 $158 forward single #
loop $-1 $159 $160 $66 #
cone-surface $-1 35.964816102697782 7.7792400881300878 2.7573762905154586 -0.64278761758704617 0 -0.76604443648966558 0.38302221824483279 0 -0.32139380879352308 1 I I 0 1 0.5 forward I I I I #
face $-1 $161 $162 $53 $-1 $163 forward single #
loop $-1 $164 $165 $67 #
cone-surface $-1 35.964816102697782 10.928667974044529 2.7573762905154586 -0.64278761758704617 0 -0.76604443648966558 0.38302221824483279 0 -0.32139380879352308 1 I I 0 1 0.5 forward I I I I #
face $-1 $166 $167 $54 $-1 $168 reversed single #
loop $-1 $-1 $169 $68 #
plane-surface $-1 -87.28574565543633 -0.93518079931059361 66.625045083944883 0 1 0 -0.5877852598018023 0 0.80901698891910034 forward_v I I I I #
face $-1 $170 $171 $55 $-1 $172 forward single #
loop $-1 $173 $174 $69 #
cone-surface $-1 -35.792790349966971 4.0760092676823128 2.5310416943103333 0.5877852598018023 0 -0.80901698891910034 0.80901698891910034 0 0.5877852598018023 1 I I 0 1 1 forward I I I I #
face $-1 $175 $176 $42 $-1 $177 reversed single #
loop $-1 $-1 $178 $70 #
plane-surface $-1 0 0 -6.3929839743216528 0 0 1 1 0 0 forward_v I I I I #
coedge $-1 $179 $180 $181 $182 forward $71 $-1 #
face $-1 $183 $184 $43 $-1 $185 reversed single #
loop $-1 $-1 $186 $73 #
plane-surface $-1 0 -17.038864492561366 -4.8929839743216528 0 -1 0 0 0 -1 forward_v I I I I #
coedge $-1 $187 $188 $189 $190 reversed $74 $-1 #
face $-1 $191 $192 $44 $-1 $193 reversed single #
loop $-1 $-1 $194 $76 #
plane-surface $-1 0 17.038864492561366 -4.8929839743216528 0 1 0 0 0 1 forward_v I I I I #
coedge $-1 $195 $196 $197 $198 reversed $77 $-1 #
face $-1 $199 $200 $45 $-1 $201 reversed single #
loop $-1 $-1 $202 $79 #
plane-surface $-1 -21.347859614049135 -9.3539540310873086 51.702323343196866 0.64278761758704617 0 0.76604443648966558 0.76604443648966558 0 -0.64278761758704617 forward_v I I I I #
coedge $-1 $203 $204 $205 $206 reversed $80 $-1 #
face $-1 $-1 $207 $46 $-1 $208 forward single #
loop $-1 $209 $210 $82 #
cone-surface $-1 35.383655039285657 -10.928667974044531 2.0647755198246847 -0.64278761758704617 0 -0.76604443648966558 0.1915111091224164 0 -0.16069690439676154 1 I I -0.70710678118654746 0.70710678118654746 0.25 forward I I I I #
loop $-1 $-1 $211 $60 #
coedge $-1 $132 $132 $212 $213 reversed $83 $-1 #
face $-1 $-1 $214 $47 $-1 $215 forward single #
loop $-1 $216 $217 $85 #
cone-surface $-1 35.383655039285657 -7.7792400881300878 2.0647755198246847 -0.64278761758704617 0 -0.76604443648966558 0.1915111091224164 0 -0.16069690439676154 1 I I -0.70710678118654746 0.70710678118654746 0.25 forward I I I I #
loop $-1 $-1 $218 $61 #
coedge $-1 $137 $137 $219 $220 reversed $86 $-1 #
face $-1 $221 $222 $48 $-1 $223 reversed single #
loop $-1 $-1 $224 $88 #
plane-surface $-1 -21.347859614049135 0 51.702323343196866 0.64278761758704617 0 0.76604443648966558 0.76604443648966558 0 -0.64278761758704617 forward_v I I I I #
coedge $-1 $225 $226 $227 $228 reversed $89 $-1 #
face $-1 $-1 $229 $49 $-1 $230 forward single #
loop $-1 $231 $232 $91 #
cone-surface $-1 35.383655039285657 -1.5747139429572243 2.0647755198246847 -0.64278761758704617 0 -0.76604443648966558 0.1915111091224164 0 -0.16069690439676154 1 I I -0.70710678118654746 0.70710678118654746 0.25 forward I I I I #
loop $-1 $-1 $233 $63 #
coedge $-1 $146 $146 $234 $235 reversed $92 $-1 #
face $-1 $-1 $236 $50 $-1 $237 forward single #
loop $-1 $238 $239 $94 #
cone-surface $-1 35.383655039285657 1.5747139429572208 2.0647755198246847 -0.64278761758704617 0 -0.76604443648966558 0.1915111091224164 0 -0.16069690439676154 1 I I -0.70710678118654746 0.70710678118654746 0.25 forward I I I I #
loop $-1 $-1 $240 $64 #
coedge $-1 $151 $151 $241 $242 reversed $95 $-1 #
face $-1 $243 $244 $51 $-1 $245 reversed single #
loop $-1 $-1 $246 $97 #
plane-surface $-1 -21.347859614049135 9.3539540310873051 51.702323343196866 0.64278761758704617 0 0.76604443648966558 0.76604443648966558 0 -0.64278761758704617 forward_v I I I I #
coedge $-1 $247 $248 $249 $250 reversed $98 $-1 #
face $-1 $-1 $251 $52 $-1 $252 forward single #
loop $-1 $253 $254 $100 #
cone-surface $-1 35.383655039285657 7.7792400881300878 2.0647755198246847 -0.64278761758704617 0 -0.76604443648966558 0.1915111091224164 0 -0.16069690439676154 1 I I -0.70710678118654746 0.70710678118654746 0.25 forward I I I I #
loop $-1 $-1 $255 $66 #
coedge $-1 $160 $160 $256 $257 reversed $101 $-1 #
face $-1 $-1 $258 $53 $-1 $259 forward single #
loop $-1 $260 $261 $103 #
cone-surface $-1 35.383655039285657 10.928667974044529 2.0647755198246847 -0.64278761758704617 0 -0.76604443648966558 0.1915111091224164 0 -0.16069690439676154 1 I I -0.70710678118654746 0.70710678118654746 0.25 forward I I I I #
loop $-1 $-1 $262 $67 #
coedge $-1 $165 $165 $263 $264 reversed $104 $-1 #
face $-1 $265 $266 $54 $-1 $267 reversed single #
loop $-1 $-1 $268 $106 #
plane-surface $-1 -40.120853297524938 4.0760092676823128 1.7081412286877082 -0.5877852598018023 0 0.80901698891910034 0.80901698891910034 0 0.5877852598018023 forward_v I I I I #
coedge $-1 $269 $270 $271 $272 reversed $107 $-1 #
face $-1 $-1 $273 $55 $-1 $274 forward single #
loop $-1 $275 $276 $109 #
cone-surface $-1 -34.394901137246706 4.0760092676823128 0.60701229265643786 0.5877852598018023 0 -0.80901698891910034 0.40450849445955017 0 0.29389262990090115 1 I I -0.70710678118654746 0.70710678118654746 0.5 forward I I I I #
loop $-1 $-1 $277 $69 #
coedge $-1 $174 $174 $278 $279 reversed $110 $-1 #
face $-1 $280 $281 $42 $-1 $282 reversed single #
loop $-1 $-1 $283 $112 #
plane-surface $-1 0 -25.296940620060575 0 0 1 0 0 0 1 forward_v I I I I #
coedge $-1 $284 $285 $286 $287 forward $113 $-1 #
coedge $-1 $288 $115 $289 $290 forward $71 $-1 #
coedge $-1 $115 $288 $291 $292 forward $71 $-1 #
coedge $-1 $293 $294 $115 $182 reversed $295 $-1 #
edge $-1 $296 -25.296940620060575 $297 25.296940620060575 $181 $298 forward 7 unknown #
face $-1 $299 $300 $43 $-1 $301 reversed single #
loop $-1 $-1 $302 $116 #
plane-surface $-1 0 0 -6.3929839743216528 0 0 1 1 0 0 forward_v I I I I #
coedge $-1 $303 $304 $305 $306 reversed $117 $-1 #
coedge $-1 $307 $119 $304 $308 forward $74 $-1 #
coedge $-1 $119 $307 $309 $310 reversed $74 $-1 #
coedge $-1 $311 $305 $119 $190 forward $300 $-1 #
edge $-1 $312 6.454913214405881 $313 14.712989341905089 $189 $314 forward 7 unknown #
face $-1 $315 $316 $44 $-1 $317 reversed single #
loop $-1 $-1 $197 $120 #
plane-surface $-1 40.120853297524945 0 0 -1 0 0 0 0 1 forward_v I I I I #
coedge $-1 $318 $319 $320 $321 reversed $121 $-1 #
coedge $-1 $322 $123 $323 $324 reversed $77 $-1 #
coedge $-1 $123 $322 $319 $325 forward $77 $-1 #
coedge $-1 $326 $327 $123 $198 forward $192 $-1 #
edge $-1 $328 -14.712989341905089 $329 -6.454913214405881 $197 $330 forward 7 unknown #
face $-1 $331 $332 $45 $-1 $333 forward single #
loop $-1 $-1 $334 $124 #
plane-surface $-1 30.230515799301756 -13.028286564654159 113.17103625477094 0 1 0 0.64278761758704617 0 0.76604443648966558 forward_v I I I I #
coedge $-1 $335 $336 $337 $338 reversed $125 $-1 #
coedge $-1 $204 $127 $339 $340 reversed $80 $-1 #
coedge $-1 $127 $203 $335 $341 reversed $80 $-1 #
coedge $-1 $337 $342 $127 $206 forward $332 $-1 #
edge $-1 $343 -25.005595397874067 $344 -17.534449326250432 $205 $345 forward 7 unknown #
loop $-1 $-1 $212 $128 #
plane-surface $-1 -21.347859614049135 -9.3539540310873086 51.702323343196866 0.64278761758704617 0 0.76604443648966558 0.76604443648966558 0 -0.64278761758704617 forward_v I I I I #
loop $-1 $-1 $346 $82 #
coedge $-1 $210 $210 $211 $347 reversed $129 $-1 #
coedge $-1 $211 $211 $210 $347 forward $131 $-1 #
coedge $-1 $212 $212 $132 $213 forward $207 $-1 #
edge $-1 $348 0 $348 6.2831853071796004 $212 $349 forward 7 unknown #
loop $-1 $-1 $219 $133 #
plane-surface $-1 -21.347859614049135 -9.3539540310873086 51.702323343196866 0.64278761758704617 0 0.76604443648966558 0.76604443648966558 0 -0.64278761758704617 forward_v I I I I #
loop $-1 $-1 $350 $85 #
coedge $-1 $217 $217 $218 $351 reversed $134 $-1 #
coedge $-1 $218 $218 $217 $351 forward $136 $-1 #
coedge $-1 $219 $219 $137 $220 forward $214 $-1 #
edge $-1 $352 0 $352 6.2831853071796004 $219 $353 forward 7 unknown #
face $-1 $354 $355 $48 $-1 $356 reversed single #
loop $-1 $-1 $357 $138 #
plane-surface $-1 30.230515799301756 -3.6743325335668517 113.17103625477094 0 1 0 0.64278761758704617 0 0.76604443648966558 forward_v I I I I #
coedge $-1 $358 $359 $360 $361 reversed $139 $-1 #
coedge $-1 $226 $141 $362 $363 reversed $89 $-1 #
coedge $-1 $141 $225 $358 $364 reversed $89 $-1 #
coedge $-1 $360 $365 $141 $228 forward $366 $-1 #
edge $-1 $367 -25.005595397874067 $368 -17.534449326250432 $227 $369 forward 7 unknown #
loop $-1 $-1 $234 $142 #
plane-surface $-1 -21.347859614049135 0 51.702323343196866 0.64278761758704617 0 0.76604443648966558 0.76604443648966558 0 -0.64278761758704617 forward_v I I I I #
loop $-1 $-1 $370 $91 #
coedge $-1 $232 $232 $233 $371 reversed $143 $-1 #
coedge $-1 $233 $233 $232 $371 forward $145 $-1 #
coedge $-1 $234 $234 $146 $235 forward $229 $-1 #
edge $-1 $372 0 $372 6.2831853071796004 $234 $373 forward 7 unknown #
loop $-1 $-1 $241 $147 #
plane-surface $-1 -21.347859614049135 0 51.702323343196866 0.64278761758704617 0 0.76604443648966558 0.76604443648966558 0 -0.64278761758704617 forward_v I I I I #
loop $-1 $-1 $374 $94 #
coedge $-1 $239 $239 $240 $375 reversed $148 $-1 #
coedge $-1 $240 $240 $239 $375 forward $150 $-1 #
coedge $-1 $241 $241 $151 $242 forward $236 $-1 #
edge $-1 $376 0 $376 6.2831853071796004 $241 $377 forward 7 unknown #
face $-1 $378 $379 $51 $-1 $380 reversed single #
loop $-1 $-1 $381 $152 #
plane-surface $-1 30.230515799301756 5.6796214975204533 113.17103625477094 0 1 0 0.64278761758704617 0 0.76604443648966558 forward_v I I I I #
coedge $-1 $382 $383 $384 $385 reversed $153 $-1 #
coedge $-1 $248 $155 $386 $387 reversed $98 $-1 #
coedge $-1 $155 $247 $382 $388 reversed $98 $-1 #
coedge $-1 $384 $389 $155 $250 forward $390 $-1 #
edge $-1 $391 -25.005595397874067 $392 -17.534449326250432 $249 $393 forward 7 unknown #
loop $-1 $-1 $256 $156 #
plane-surface $-1 -21.347859614049135 9.3539540310873051 51.702323343196866 0.64278761758704617 0 0.76604443648966558 0.76604443648966558 0 -0.64278761758704617 forward_v I I I I #
loop $-1 $-1 $394 $100 #
coedge $-1 $254 $254 $255 $395 reversed $157 $-1 #
coedge $-1 $255 $255 $254 $395 forward $159 $-1 #
coedge $-1 $256 $256 $160 $257 forward $251 $-1 #
edge $-1 $396 0 $396 6.2831853071796004 $256 $397 forward 7 unknown #
loop $-1 $-1 $263 $161 #
plane-surface $-1 -21.347859614049135 9.3539540310873051 51.702323343196866 0.64278761758704617 0 0.76604443648966558 0.76604443648966558 0 -0.64278761758704617 forward_v I I I I #
loop $-1 $-1 $398 $103 #
coedge $-1 $261 $261 $262 $399 reversed $162 $-1 #
coedge $-1 $262 $262 $261 $399 forward $164 $-1 #
coedge $-1 $263 $263 $165 $264 forward $258 $-1 #
edge $-1 $400 0 $400 6.2831853071796004 $263 $401 forward 7 unknown #
face $-1 $402 $403 $54 $-1 $404 reversed single #
loop $-1 $-1 $405 $166 #
plane-surface $-1 -87.28574565543633 9.0871993346752191 66.625045083944883 0 -1 0 0.5877852598018023 0 -0.80901698891910034 forward_v I I I I #
coedge $-1 $406 $407 $408 $409 reversed $167 $-1 #
coedge $-1 $270 $169 $410 $411 reversed $107 $-1 #
coedge $-1 $169 $269 $406 $412 reversed $107 $-1 #
coedge $-1 $408 $413 $169 $272 forward $414 $-1 #
edge $-1 $415 3.5220195301932193 $416 9.9701522596704351 $271 $417 forward 7 unknown #
loop $-1 $-1 $278 $170 #
plane-surface $-1 -40.120853297524938 4.0760092676823128 1.7081412286877082 -0.5877852598018023 0 0.80901698891910034 0.80901698891910034 0 0.5877852598018023 forward_v I I I I #
loop $-1 $-1 $418 $109 #
coedge $-1 $276 $276 $277 $419 reversed $171 $-1 #
coedge $-1 $277 $277 $276 $419 forward $173 $-1 #
coedge $-1 $278 $278 $174 $279 forward $273 $-1 #
edge $-1 $420 0 $420 6.2831853071796004 $278 $421 forward 7 unknown #
face $-1 $422 $423 $42 $-1 $424 reversed single #
loop $-1 $-1 $425 $175 #
plane-surface $-1 -40.120853297524945 0 0 1 0 0 0 0 -1 forward_v I I I I #
coedge $-1 $426 $291 $427 $428 forward $176 $-1 #
coedge $-1 $429 $178 $426 $430 forward $113 $-1 #
coedge $-1 $178 $429 $431 $432 forward $113 $-1 #
coedge $-1 $294 $293 $178 $287 reversed $295 $-1 #
edge $-1 $433 -25.296940620060575 $434 25.296940620060575 $286 $435 forward 7 unknown #
coedge $-1 $180 $179 $436 $437 forward $71 $-1 #
coedge $-1 $438 $439 $179 $290 reversed $423 $-1 #
edge $-1 $297 -40.120853297524945 $440 40.120853297524945 $289 $441 forward 7 unknown #
coedge $-1 $283 $442 $180 $292 reversed $176 $-1 #
edge $-1 $443 -40.120853297524945 $296 40.120853297524945 $291 $444 forward 7 unknown #
coedge $-1 $286 $181 $442 $445 forward $295 $-1 #
coedge $-1 $181 $286 $438 $446 reversed $295 $-1 #
loop $-1 $-1 $293 $422 #
vertex $-1 $182 $447 #
vertex $-1 $182 $448 #
straight-curve $-1 40.120853297524945 0 6.3929839743216528 0 1 0 I I #
face $-1 $449 $450 $43 $-1 $451 reversed single #
loop $-1 $-1 $305 $183 #
plane-surface $-1 40.120853297524945 0 0 -1 0 0 0 0 1 forward_v I I I I #
coedge $-1 $452 $453 $303 $454 forward $184 $-1 #
coedge $-1 $455 $186 $302 $454 reversed $117 $-1 #
coedge $-1 $186 $455 $187 $308 reversed $117 $-1 #
coedge $-1 $189 $456 $186 $306 forward $300 $-1 #
edge $-1 $457 -3.9464919871608264 $312 -0.94649198716082639 $305 $458 forward 7 unknown #
coedge $-1 $188 $187 $459 $460 reversed $74 $-1 #
edge $-1 $312 -40.120853297524945 $461 40.120853297524945 $304 $462 forward 7 unknown #
coedge $-1 $463 $464 $188 $310 forward $450 $-1 #
edge $-1 $313 -40.120853297524945 $465 40.120853297524945 $309 $466 forward 7 unknown #
coedge $-1 $456 $189 $464 $467 forward $300 $-1 #
vertex $-1 $190 $468 #
vertex $-1 $467 $469 #
straight-curve $-1 40.120853297524945 -10.583951278155485 -3.3929839743216528 0 -1 0 I I #
face $-1 $470 $471 $44 $-1 $472 reversed single #
loop $-1 $-1 $473 $191 #
plane-surface $-1 0 0 -6.3929839743216528 0 0 1 1 0 0 forward_v I I I I #
coedge $-1 $474 $194 $473 $475 reversed $121 $-1 #
coedge $-1 $194 $474 $196 $325 reversed $121 $-1 #
coedge $-1 $476 $477 $194 $321 forward $471 $-1 #
edge $-1 $478 -3.9464919871608264 $479 -0.94649198716082639 $320 $480 forward 7 unknown #
coedge $-1 $196 $195 $476 $481 reversed $77 $-1 #
coedge $-1 $482 $483 $195 $324 forward $484 $-1 #
edge $-1 $485 -40.120853297524945 $328 40.120853297524945 $323 $486 forward 7 unknown #
edge $-1 $479 -40.120853297524945 $329 40.120853297524945 $319 $487 forward 7 unknown #
coedge $-1 $488 $197 $474 $489 forward $192 $-1 #
coedge $-1 $197 $488 $482 $490 reversed $192 $-1 #
vertex $-1 $490 $491 #
vertex $-1 $198 $492 #
straight-curve $-1 40.120853297524945 10.583951278155485 -3.3929839743216528 0 -1 0 I I #
face $-1 $-1 $493 $45 $-1 $494 reversed single #
loop $-1 $-1 $205 $199 #
plane-surface $-1 0 0 6.3929839743216528 0 0 1 1 0 0 forward_v I I I I #
coedge $-1 $495 $496 $497 $498 reversed $200 $-1 #
coedge $-1 $499 $202 $204 $341 forward $125 $-1 #
coedge $-1 $202 $499 $495 $500 forward $125 $-1 #
coedge $-1 $497 $205 $202 $338 forward $332 $-1 #
edge $-1 $344 1.0026444819768026 $501 8.3513095491105052 $337 $502 forward 7 unknown #
coedge $-1 $503 $504 $203 $340 forward $493 $-1 #
edge $-1 $505 -56.461570197539494 $343 -50.192534153063818 $339 $506 forward 7 unknown #
edge $-1 $344 70.488817969085147 $505 80.241706595049891 $204 $507 forward 7 unknown #
coedge $-1 $205 $497 $503 $508 forward $332 $-1 #
vertex $-1 $340 $509 #
vertex $-1 $206 $510 #
straight-curve $-1 15.115257899650878 -5.6796214975204569 6.3929839743216519 -1 0 0 I I #
coedge $-1 $346 $346 $-1 $511 reversed $209 $-1 #
edge $-1 $512 0 $512 6.2831853071796004 $210 $513 forward 7 unknown #
vertex $-1 $213 $514 #
ellipse-curve $-1 36.385280261713135 -10.928667974044531 3.2584659520838075 0.64278761758704617 0 0.76604443648966558 0.38302221824483279 0 -0.32139380879352308 1 I I #
coedge $-1 $350 $350 $-1 $515 reversed $216 $-1 #
edge $-1 $516 0 $516 6.2831853071796004 $217 $517 forward 7 unknown #
vertex $-1 $220 $518 #
ellipse-curve $-1 36.385280261713135 -7.7792400881300878 3.2584659520838075 0.64278761758704617 0 0.76604443648966558 0.38302221824483279 0 -0.32139380879352308 1 I I #
face $-1 $-1 $366 $48 $-1 $519 forward single #
loop $-1 $-1 $520 $221 #
plane-surface $-1 40.120853297524945 0 0 -1 0 0 0 0 1 forward_v I I I I #
coedge $-1 $521 $522 $523 $524 reversed $222 $-1 #
coedge $-1 $525 $224 $226 $364 forward $139 $-1 #
coedge $-1 $224 $525 $521 $526 forward $139 $-1 #
coedge $-1 $523 $227 $224 $361 forward $366 $-1 #
edge $-1 $368 -3.6743325335668517 $527 3.6743325335668517 $360 $528 forward 7 unknown #
coedge $-1 $529 $530 $225 $363 forward $355 $-1 #
edge $-1 $531 -56.461570197539494 $367 -50.192534153063818 $362 $532 forward 7 unknown #
edge $-1 $368 70.488817969085147 $531 80.241706595049891 $226 $533 forward 7 unknown #
coedge $-1 $227 $523 $529 $534 forward $366 $-1 #
loop $-1 $-1 $523 $354 #
vertex $-1 $363 $535 #
vertex $-1 $228 $536 #
straight-curve $-1 15.115257899650878 3.6743325335668517 6.3929839743216519 -1 0 0 I I #
coedge $-1 $370 $370 $-1 $537 reversed $231 $-1 #
edge $-1 $538 0 $538 6.2831853071796004 $232 $539 forward 7 unknown #
vertex $-1 $235 $540 #
ellipse-curve $-1 36.385280261713135 -1.5747139429572243 3.2584659520838075 0.64278761758704617 0 0.76604443648966558 0.38302221824483279 0 -0.32139380879352308 1 I I #
coedge $-1 $374 $374 $-1 $541 reversed $238 $-1 #
edge $-1 $542 0 $542 6.2831853071796004 $239 $543 forward 7 unknown #
vertex $-1 $242 $544 #
ellipse-curve $-1 36.385280261713135 1.5747139429572208 3.2584659520838075 0.64278761758704617 0 0.76604443648966558 0.38302221824483279 0 -0.32139380879352308 1 I I #
face $-1 $-1 $390 $51 $-1 $545 forward single #
loop $-1 $-1 $546 $243 #
plane-surface $-1 40.120853297524945 0 0 -1 0 0 0 0 1 forward_v I I I I #
coedge $-1 $547 $548 $549 $550 reversed $244 $-1 #
coedge $-1 $551 $246 $248 $388 forward $153 $-1 #
coedge $-1 $246 $551 $547 $552 forward $153 $-1 #
coedge $-1 $549 $249 $246 $385 forward $390 $-1 #
edge $-1 $392 -8.3513095491105034 $553 -1.0026444819768008 $384 $554 forward 7 unknown #
coedge $-1 $555 $556 $247 $387 forward $379 $-1 #
edge $-1 $557 -56.461570197539494 $391 -50.192534153063818 $386 $558 forward 7 unknown #
edge $-1 $392 70.488817969085147 $557 80.241706595049891 $248 $559 forward 7 unknown #
coedge $-1 $249 $549 $555 $560 forward $390 $-1 #
loop $-1 $-1 $549 $378 #
vertex $-1 $387 $561 #
vertex $-1 $250 $562 #
straight-curve $-1 15.115257899650878 13.028286564654156 6.3929839743216519 -1 0 0 I I #
coedge $-1 $394 $394 $-1 $563 reversed $253 $-1 #
edge $-1 $564 0 $564 6.2831853071796004 $254 $565 forward 7 unknown #
vertex $-1 $257 $566 #
ellipse-curve $-1 36.385280261713135 7.7792400881300878 3.2584659520838075 0.64278761758704617 0 0.76604443648966558 0.38302221824483279 0 -0.32139380879352308 1 I I #
coedge $-1 $398 $398 $-1 $567 reversed $260 $-1 #
edge $-1 $568 0 $568 6.2831853071796004 $261 $569 forward 7 unknown #
vertex $-1 $264 $570 #
ellipse-curve $-1 36.385280261713135 10.928667974044529 3.2584659520838075 0.64278761758704617 0 0.76604443648966558 0.38302221824483279 0 -0.32139380879352308 1 I I #
face $-1 $-1 $414 $54 $-1 $571 forward single #
loop $-1 $-1 $572 $265 #
plane-surface $-1 -40.120853297524945 0 0 1 0 0 0 0 -1 forward_v I I I I #
coedge $-1 $573 $574 $575 $576 reversed $266 $-1 #
coedge $-1 $577 $268 $270 $412 forward $167 $-1 #
coedge $-1 $268 $577 $573 $578 forward $167 $-1 #
coedge $-1 $575 $271 $268 $409 forward $414 $-1 #
edge $-1 $416 -2.97318543315175 $579 7.0491947008340627 $408 $580 forward 7 unknown #
coedge $-1 $581 $582 $269 $411 forward $403 $-1 #
edge $-1 $583 -31.604381313284737 $415 -26.91953856765079 $410 $584 forward 7 unknown #
edge $-1 $416 -7.9703304353253888 $583 8.7502459990790685e-015 $270 $585 forward 7 unknown #
coedge $-1 $271 $575 $581 $586 forward $414 $-1 #
loop $-1 $-1 $575 $402 #
vertex $-1 $411 $587 #
vertex $-1 $272 $588 #
straight-curve $-1 -43.642872827718165 -0.93518079931059361 6.3929839743216519 1 0 0 I I #
coedge $-1 $418 $418 $-1 $589 reversed $275 $-1 #
edge $-1 $590 0 $590 6.2831853071796004 $276 $591 forward 7 unknown #
vertex $-1 $279 $592 #
ellipse-curve $-1 -36.896786932786334 4.0760092676823128 4.0505626015046792 -0.5877852598018023 0 0.80901698891910034 0.80901698891910034 0 0.5877852598018023 1 I I #
face $-1 $-1 $295 $42 $-1 $593 reversed single #
loop $-1 $-1 $438 $280 #
plane-surface $-1 0 25.296940620060575 0 0 -1 0 0 0 -1 forward_v I I I I #
coedge $-1 $594 $436 $439 $595 forward $281 $-1 #
coedge $-1 $442 $283 $284 $430 reversed $176 $-1 #
coedge $-1 $436 $594 $283 $428 reversed $281 $-1 #
edge $-1 $443 -6.3929839743216528 $596 6.3929839743216528 $427 $597 forward 7 unknown #
coedge $-1 $285 $284 $594 $598 forward $113 $-1 #
edge $-1 $434 -40.120853297524945 $596 40.120853297524945 $426 $599 forward 7 unknown #
coedge $-1 $439 $438 $285 $432 reversed $423 $-1 #
edge $-1 $600 -40.120853297524945 $433 40.120853297524945 $431 $601 forward 7 unknown #
vertex $-1 $287 $602 #
vertex $-1 $445 $603 #
straight-curve $-1 40.120853297524945 0 -6.3929839743216528 0 -1 0 I I #
coedge $-1 $425 $427 $288 $437 reversed $281 $-1 #
edge $-1 $440 -25.296940620060575 $443 25.296940620060575 $436 $604 forward 7 unknown #
coedge $-1 $431 $289 $294 $446 forward $423 $-1 #
coedge $-1 $289 $431 $425 $595 reversed $423 $-1 #
vertex $-1 $290 $605 #
straight-curve $-1 0 25.296940620060575 6.3929839743216528 -1 0 0 I I #
coedge $-1 $291 $426 $293 $445 reversed $176 $-1 #
vertex $-1 $437 $606 #
straight-curve $-1 0 -25.296940620060575 6.3929839743216528 1 0 0 I I #
edge $-1 $296 -6.3929839743216528 $434 6.3929839743216528 $293 $607 forward 7 unknown #
edge $-1 $297 -6.3929839743216528 $433 6.3929839743216528 $294 $608 forward 7 unknown #
point $-1 40.120853297524945 -25.296940620060575 6.3929839743216528 #
point $-1 40.120853297524945 25.296940620060575 6.3929839743216528 #
face $-1 $-1 $609 $43 $-1 $610 reversed single #
loop $-1 $-1 $309 $299 #
plane-surface $-1 0 -25.296940620060575 0 0 1 0 0 0 1 forward_v I I I I #
coedge $-1 $611 $302 $456 $612 forward $184 $-1 #
coedge $-1 $302 $611 $613 $614 forward $184 $-1 #
edge $-1 $615 -40.120853297524945 $457 40.120853297524945 $302 $616 forward 7 unknown #
coedge $-1 $304 $303 $617 $618 reversed $117 $-1 #
coedge $-1 $305 $311 $452 $612 reversed $300 $-1 #
vertex $-1 $612 $619 #
straight-curve $-1 40.120853297524945 -17.038864492561366 -2.4464919871608264 0 0 1 I I #
coedge $-1 $617 $620 $307 $460 forward $609 $-1 #
edge $-1 $465 -14.712989341905089 $461 -6.454913214405881 $459 $621 forward 7 unknown #
vertex $-1 $460 $622 #
straight-curve $-1 0 -17.038864492561366 -3.3929839743216528 -1 0 0 I I #
coedge $-1 $623 $309 $620 $624 forward $450 $-1 #
coedge $-1 $309 $623 $311 $467 reversed $450 $-1 #
vertex $-1 $624 $625 #
straight-curve $-1 0 -25.296940620060575 -3.3929839743216528 -1 0 0 I I #
edge $-1 $313 3.3929839743216528 $626 6.3929839743216528 $311 $627 forward 7 unknown #
point $-1 40.120853297524945 -17.038864492561366 -3.3929839743216528 #
point $-1 40.120853297524945 -25.296940620060575 -3.3929839743216528 #
face $-1 $-1 $484 $44 $-1 $628 reversed single #
loop $-1 $-1 $476 $315 #
plane-surface $-1 -40.120853297524945 0 0 1 0 0 0 0 -1 forward_v I I I I #
coedge $-1 $629 $630 $318 $475 forward $316 $-1 #
coedge $-1 $319 $318 $326 $489 reversed $121 $-1 #
edge $-1 $631 -40.120853297524945 $478 40.120853297524945 $473 $632 forward 7 unknown #
coedge $-1 $633 $320 $322 $481 forward $471 $-1 #
coedge $-1 $320 $633 $629 $634 reversed $471 $-1 #
vertex $-1 $634 $635 #
vertex $-1 $481 $636 #
straight-curve $-1 -40.120853297524945 17.038864492561366 -2.4464919871608264 0 0 1 I I #
edge $-1 $479 6.454913214405881 $485 14.712989341905089 $476 $637 forward 7 unknown #
coedge $-1 $638 $323 $327 $490 forward $484 $-1 #
coedge $-1 $323 $638 $633 $639 reversed $484 $-1 #
loop $-1 $-1 $323 $470 #
vertex $-1 $639 $640 #
straight-curve $-1 0 25.296940620060575 -3.3929839743216528 1 0 0 I I #
straight-curve $-1 0 17.038864492561366 -3.3929839743216528 1 0 0 I I #
coedge $-1 $327 $326 $630 $641 reversed $192 $-1 #
edge $-1 $329 0.94649198716082639 $631 3.9464919871608264 $326 $642 forward 7 unknown #
edge $-1 $328 3.3929839743216528 $643 6.3929839743216528 $327 $644 forward 7 unknown #
point $-1 40.120853297524945 25.296940620060575 -3.3929839743216528 #
point $-1 40.120853297524945 17.038864492561366 -3.3929839743216528 #
loop $-1 $-1 $339 $331 #
plane-surface $-1 40.120853297524945 0 0 -1 0 0 0 0 1 forward_v I I I I #
coedge $-1 $496 $334 $336 $500 reversed $200 $-1 #
coedge $-1 $334 $495 $645 $646 reversed $200 $-1 #
coedge $-1 $342 $337 $334 $498 forward $332 $-1 #
edge $-1 $501 17.534449326250432 $647 25.005595397874067 $497 $648 forward 7 unknown #
coedge $-1 $336 $335 $504 $649 reversed $125 $-1 #
edge $-1 $650 -80.241706595049891 $501 -70.488817969085147 $495 $651 forward 7 unknown #
vertex $-1 $338 $652 #
straight-curve $-1 32.649707225901302 -4.6769770155436543 6.3929839743216519 0 -1 0 I I #
coedge $-1 $645 $339 $342 $508 reversed $493 $-1 #
coedge $-1 $339 $645 $499 $649 forward $493 $-1 #
vertex $-1 $340 $653 #
straight-curve $-1 40.120853297524945 -5.6796214975204569 56.58551812738547 0 0 1 I I #
straight-curve $-1 -21.347859614049135 -5.6796214975204569 51.702323343196866 0.76604443648966558 0 -0.64278761758704617 I I #
edge $-1 $647 -13.028286564654159 $343 -5.6796214975204569 $503 $654 forward 7 unknown #
point $-1 40.120853297524945 -5.6796214975204569 6.3929839743216528 #
point $-1 32.649707225901309 -5.6796214975204569 6.3929839743216519 #
edge $-1 $655 1 $655 0 $346 $-1 forward 7 unknown #
vertex $-1 $347 $656 #
ellipse-curve $-1 35.544351943682415 -10.928667974044531 2.2562866289471009 0.64278761758704617 0 0.76604443648966558 0.38302221824483279 0 -0.32139380879352308 1 I I #
point $-1 36.768302479957974 -10.928667974044531 2.9370721432902931 #
edge $-1 $657 1 $657 0 $350 $-1 forward 7 unknown #
vertex $-1 $351 $658 #
ellipse-curve $-1 35.544351943682415 -7.7792400881300878 2.2562866289471009 0.64278761758704617 0 0.76604443648966558 0.38302221824483279 0 -0.32139380879352308 1 I I #
point $-1 36.768302479957974 -7.7792400881300878 2.9370721432902931 #
plane-surface $-1 0 0 6.3929839743216528 0 0 1 1 0 0 forward_v I I I I #
coedge $-1 $530 $529 $522 $659 forward $355 $-1 #
coedge $-1 $522 $357 $359 $526 reversed $222 $-1 #
coedge $-1 $357 $521 $520 $659 reversed $222 $-1 #
coedge $-1 $365 $360 $357 $524 forward $366 $-1 #
edge $-1 $527 17.534449326250432 $660 25.005595397874067 $523 $661 forward 7 unknown #
coedge $-1 $359 $358 $530 $662 reversed $139 $-1 #
edge $-1 $663 -80.241706595049891 $527 -70.488817969085147 $521 $664 forward 7 unknown #
vertex $-1 $361 $665 #
straight-curve $-1 32.649707225901302 0 6.3929839743216519 0 -1 0 I I #
coedge $-1 $520 $362 $365 $534 reversed $355 $-1 #
coedge $-1 $362 $520 $525 $662 forward $355 $-1 #
vertex $-1 $363 $666 #
straight-curve $-1 40.120853297524945 3.6743325335668517 56.58551812738547 0 0 1 I I #
straight-curve $-1 -21.347859614049135 3.6743325335668517 51.702323343196866 0.76604443648966558 0 -0.64278761758704617 I I #
edge $-1 $660 -3.6743325335668517 $367 3.6743325335668517 $529 $667 forward 7 unknown #
point $-1 40.120853297524945 3.6743325335668517 6.3929839743216528 #
point $-1 32.649707225901309 3.6743325335668517 6.3929839743216519 #
edge $-1 $668 1 $668 0 $370 $-1 forward 7 unknown #
vertex $-1 $371 $669 #
ellipse-curve $-1 35.544351943682415 -1.5747139429572243 2.2562866289471009 0.64278761758704617 0 0.76604443648966558 0.38302221824483279 0 -0.32139380879352308 1 I I #
point $-1 36.768302479957974 -1.5747139429572243 2.9370721432902931 #
edge $-1 $670 1 $670 0 $374 $-1 forward 7 unknown #
vertex $-1 $375 $671 #
ellipse-curve $-1 35.544351943682415 1.5747139429572208 2.2562866289471009 0.64278761758704617 0 0.76604443648966558 0.38302221824483279 0 -0.32139380879352308 1 I I #
point $-1 36.768302479957974 1.5747139429572208 2.9370721432902931 #
plane-surface $-1 0 0 6.3929839743216528 0 0 1 1 0 0 forward_v I I I I #
coedge $-1 $556 $555 $548 $672 forward $379 $-1 #
coedge $-1 $548 $381 $383 $552 reversed $244 $-1 #
coedge $-1 $381 $547 $546 $672 reversed $244 $-1 #
coedge $-1 $389 $384 $381 $550 forward $390 $-1 #
edge $-1 $553 17.534449326250432 $673 25.005595397874067 $549 $674 forward 7 unknown #
coedge $-1 $383 $382 $556 $675 reversed $153 $-1 #
edge $-1 $676 -80.241706595049891 $553 -70.488817969085147 $547 $677 forward 7 unknown #
vertex $-1 $385 $678 #
straight-curve $-1 32.649707225901302 4.6769770155436525 6.3929839743216519 0 -1 0 I I #
coedge $-1 $546 $386 $389 $560 reversed $379 $-1 #
coedge $-1 $386 $546 $551 $675 forward $379 $-1 #
vertex $-1 $387 $679 #
straight-curve $-1 40.120853297524945 13.028286564654156 56.58551812738547 0 0 1 I I #
straight-curve $-1 -21.347859614049135 13.028286564654156 51.702323343196866 0.76604443648966558 0 -0.64278761758704617 I I #
edge $-1 $673 5.6796214975204533 $391 13.028286564654156 $555 $680 forward 7 unknown #
point $-1 40.120853297524945 13.028286564654156 6.3929839743216528 #
point $-1 32.649707225901309 13.028286564654156 6.3929839743216519 #
edge $-1 $681 1 $681 0 $394 $-1 forward 7 unknown #
vertex $-1 $395 $682 #
ellipse-curve $-1 35.544351943682415 7.7792400881300878 2.2562866289471009 0.64278761758704617 0 0.76604443648966558 0.38302221824483279 0 -0.32139380879352308 1 I I #
point $-1 36.768302479957974 7.7792400881300878 2.9370721432902931 #
edge $-1 $683 1 $683 0 $398 $-1 forward 7 unknown #
vertex $-1 $399 $684 #
ellipse-curve $-1 35.544351943682415 10.928667974044529 2.2562866289471009 0.64278761758704617 0 0.76604443648966558 0.38302221824483279 0 -0.32139380879352308 1 I I #
point $-1 36.768302479957974 10.928667974044529 2.9370721432902931 #
plane-surface $-1 0 0 6.3929839743216528 0 0 1 1 0 0 forward_v I I I I #
coedge $-1 $582 $581 $574 $685 forward $403 $-1 #
coedge $-1 $574 $405 $407 $578 reversed $266 $-1 #
coedge $-1 $405 $573 $572 $685 reversed $266 $-1 #
coedge $-1 $413 $408 $405 $576 forward $414 $-1 #
edge $-1 $579 -9.9701522596704351 $686 -3.5220195301932193 $575 $687 forward 7 unknown #
coedge $-1 $407 $406 $582 $688 reversed $167 $-1 #
edge $-1 $689 -8.7502459990790685e-015 $579 7.9703304353253888 $573 $690 forward 7 unknown #
vertex $-1 $409 $691 #
straight-curve $-1 -33.67272056804773 2.0380046338411564 6.3929839743216528 0 1 0 I I #
coedge $-1 $572 $410 $413 $586 reversed $403 $-1 #
coedge $-1 $410 $572 $577 $688 forward $403 $-1 #
vertex $-1 $411 $692 #
straight-curve $-1 -40.120853297524945 -0.93518079931059361 33.312522541972442 0 0 1 I I #
straight-curve $-1 -40.120853297524938 -0.93518079931059361 1.7081412286877082 -0.80901698891910034 0 -0.5877852598018023 I I #
edge $-1 $686 -9.0871993346752191 $415 0.93518079931059361 $581 $693 forward 7 unknown #
point $-1 -40.120853297524945 -0.93518079931059361 6.3929839743216528 #
point $-1 -33.67272056804773 -0.93518079931059361 6.3929839743216528 #
edge $-1 $694 1 $694 0 $418 $-1 forward 7 unknown #
vertex $-1 $419 $695 #
ellipse-curve $-1 -34.688793767147608 4.0760092676823128 1.0115207871159879 -0.5877852598018023 0 0.80901698891910034 0.80901698891910034 0 0.5877852598018023 1 I I #
point $-1 -36.087769943867237 4.0760092676823128 4.6383478613064808 #
plane-surface $-1 40.120853297524945 0 0 -1 0 0 0 0 1 forward_v I I I I #
coedge $-1 $427 $425 $429 $598 reversed $281 $-1 #
edge $-1 $440 -6.3929839743216528 $600 6.3929839743216528 $439 $696 forward 7 unknown #
vertex $-1 $598 $697 #
straight-curve $-1 -40.120853297524945 -25.296940620060575 0 0 0 -1 I I #
edge $-1 $596 -25.296940620060575 $600 25.296940620060575 $594 $698 forward 7 unknown #
straight-curve $-1 0 -25.296940620060575 -6.3929839743216528 -1 0 0 I I #
vertex $-1 $432 $699 #
straight-curve $-1 0 25.296940620060575 -6.3929839743216528 1 0 0 I I #
point $-1 40.120853297524945 25.296940620060575 -6.3929839743216528 #
point $-1 40.120853297524945 -25.296940620060575 -6.3929839743216528 #
straight-curve $-1 -40.120853297524945 0 6.3929839743216528 0 -1 0 I I #
point $-1 -40.120853297524945 25.296940620060575 6.3929839743216528 #
point $-1 -40.120853297524945 -25.296940620060575 6.3929839743216528 #
straight-curve $-1 40.120853297524945 -25.296940620060575 0 0 0 -1 I I #
straight-curve $-1 40.120853297524945 25.296940620060575 0 0 0 -1 I I #
loop $-1 $-1 $617 $449 #
plane-surface $-1 -40.120853297524945 0 0 1 0 0 0 0 -1 forward_v I I I I #
coedge $-1 $453 $452 $623 $700 forward $184 $-1 #
edge $-1 $457 17.038864492561366 $626 25.296940620060575 $456 $701 forward 7 unknown #
coedge $-1 $620 $617 $453 $614 reversed $609 $-1 #
edge $-1 $702 -25.296940620060575 $615 -17.038864492561366 $613 $703 forward 7 unknown #
vertex $-1 $618 $704 #
straight-curve $-1 0 -17.038864492561366 -6.3929839743216528 1 0 0 I I #
coedge $-1 $613 $459 $455 $618 forward $609 $-1 #
edge $-1 $461 0.94649198716082639 $615 3.9464919871608264 $617 $705 forward 7 unknown #
point $-1 40.120853297524945 -17.038864492561366 -6.3929839743216528 #
coedge $-1 $459 $613 $463 $624 reversed $609 $-1 #
straight-curve $-1 -40.120853297524945 -10.583951278155485 -3.3929839743216528 0 1 0 I I #
point $-1 -40.120853297524945 -17.038864492561366 -3.3929839743216528 #
coedge $-1 $464 $463 $611 $700 reversed $450 $-1 #
edge $-1 $465 3.3929839743216528 $702 6.3929839743216528 $620 $706 forward 7 unknown #
point $-1 -40.120853297524945 -25.296940620060575 -3.3929839743216528 #
vertex $-1 $467 $707 #
straight-curve $-1 40.120853297524945 -25.296940620060575 0 0 0 -1 I I #
plane-surface $-1 0 25.296940620060575 0 0 -1 0 0 0 -1 forward_v I I I I #
coedge $-1 $708 $473 $477 $634 forward $316 $-1 #
coedge $-1 $473 $708 $488 $641 forward $316 $-1 #
vertex $-1 $475 $709 #
straight-curve $-1 0 17.038864492561366 -6.3929839743216528 -1 0 0 I I #
coedge $-1 $477 $476 $483 $639 forward $471 $-1 #
edge $-1 $478 17.038864492561366 $710 25.296940620060575 $477 $711 forward 7 unknown #
point $-1 -40.120853297524945 17.038864492561366 -6.3929839743216528 #
point $-1 -40.120853297524945 17.038864492561366 -3.3929839743216528 #
straight-curve $-1 -40.120853297524945 10.583951278155485 -3.3929839743216528 0 1 0 I I #
coedge $-1 $483 $482 $708 $712 reversed $484 $-1 #
edge $-1 $485 3.3929839743216528 $710 6.3929839743216528 $483 $713 forward 7 unknown #
point $-1 -40.120853297524945 25.296940620060575 -3.3929839743216528 #
edge $-1 $643 -25.296940620060575 $631 -17.038864492561366 $488 $714 forward 7 unknown #
straight-curve $-1 40.120853297524945 17.038864492561366 -2.4464919871608264 0 0 -1 I I #
vertex $-1 $641 $715 #
straight-curve $-1 40.120853297524945 25.296940620060575 0 0 0 -1 I I #
coedge $-1 $504 $503 $496 $646 forward $493 $-1 #
edge $-1 $647 50.192534153063818 $650 56.461570197539494 $645 $716 forward 7 unknown #
vertex $-1 $508 $717 #
straight-curve $-1 15.115257899650878 -13.028286564654159 6.3929839743216519 1 0 0 I I #
edge $-1 $650 -8.3513095491105052 $505 -1.0026444819768026 $504 $718 forward 7 unknown #
vertex $-1 $649 $719 #
straight-curve $-1 -21.347859614049135 -13.028286564654159 51.702323343196866 -0.76604443648966558 0 0.64278761758704617 I I #
point $-1 32.649707225901309 -13.028286564654159 6.3929839743216519 #
point $-1 40.120853297524938 -5.6796214975204569 0.12394792984597558 #
straight-curve $-1 40.120853297524945 0 6.3929839743216528 0 1 0 I I #
vertex $-1 $511 $720 #
point $-1 35.927374161927254 -10.928667974044531 1.934892820153578 #
vertex $-1 $515 $721 #
point $-1 35.927374161927254 -7.7792400881300878 1.934892820153578 #
edge $-1 $660 50.192534153063818 $663 56.461570197539494 $520 $722 forward 7 unknown #
vertex $-1 $534 $723 #
straight-curve $-1 15.115257899650878 -3.6743325335668517 6.3929839743216519 1 0 0 I I #
edge $-1 $663 -3.6743325335668517 $531 3.6743325335668517 $530 $724 forward 7 unknown #
vertex $-1 $662 $725 #
straight-curve $-1 -21.347859614049135 -3.6743325335668517 51.702323343196866 -0.76604443648966558 0 0.64278761758704617 I I #
point $-1 32.649707225901309 -3.6743325335668517 6.3929839743216519 #
point $-1 40.120853297524938 3.6743325335668517 0.12394792984597558 #
straight-curve $-1 40.120853297524945 0 6.3929839743216528 0 1 0 I I #
vertex $-1 $537 $726 #
point $-1 35.927374161927254 -1.5747139429572243 1.934892820153578 #
vertex $-1 $541 $727 #
point $-1 35.927374161927254 1.5747139429572208 1.934892820153578 #
edge $-1 $673 50.192534153063818 $676 56.461570197539494 $546 $728 forward 7 unknown #
vertex $-1 $560 $729 #
straight-curve $-1 15.115257899650878 5.6796214975204533 6.3929839743216519 1 0 0 I I #
edge $-1 $676 1.0026444819768008 $557 8.3513095491105034 $556 $730 forward 7 unknown #
vertex $-1 $675 $731 #
straight-curve $-1 -21.347859614049135 5.6796214975204533 51.702323343196866 -0.76604443648966558 0 0.64278761758704617 I I #
point $-1 32.649707225901309 5.6796214975204533 6.3929839743216519 #
point $-1 40.120853297524938 13.028286564654156 0.12394792984597558 #
straight-curve $-1 40.120853297524945 0 6.3929839743216528 0 1 0 I I #
vertex $-1 $563 $732 #
point $-1 35.927374161927254 7.7792400881300878 1.934892820153578 #
vertex $-1 $567 $733 #
point $-1 35.927374161927254 10.928667974044529 1.934892820153578 #
edge $-1 $686 26.91953856765079 $689 31.604381313284737 $572 $734 forward 7 unknown #
vertex $-1 $586 $735 #
straight-curve $-1 -43.642872827718165 9.0871993346752191 6.3929839743216519 -1 0 0 I I #
edge $-1 $689 -7.0491947008340627 $583 2.97318543315175 $582 $736 forward 7 unknown #
vertex $-1 $688 $737 #
straight-curve $-1 -40.120853297524938 9.0871993346752191 1.7081412286877082 0.80901698891910034 0 0.5877852598018023 I I #
point $-1 -33.67272056804773 9.0871993346752191 6.3929839743216528 #
point $-1 -40.120853297524945 -0.93518079931059361 1.7081412286877031 #
straight-curve $-1 -40.120853297524945 0 6.3929839743216528 0 -1 0 I I #
vertex $-1 $589 $738 #
point $-1 -33.879776778228504 4.0760092676823128 1.5993060469177904 #
straight-curve $-1 -40.120853297524945 25.296940620060575 0 0 0 -1 I I #
point $-1 -40.120853297524945 -25.296940620060575 -6.3929839743216528 #
straight-curve $-1 -40.120853297524945 0 -6.3929839743216528 0 1 0 I I #
point $-1 -40.120853297524945 25.296940620060575 -6.3929839743216528 #
edge $-1 $626 -40.120853297524945 $702 40.120853297524945 $623 $739 forward 7 unknown #
straight-curve $-1 40.120853297524945 0 -6.3929839743216528 0 -1 0 I I #
vertex $-1 $614 $740 #
straight-curve $-1 -40.120853297524945 0 -6.3929839743216528 0 1 0 I I #
point $-1 -40.120853297524945 -17.038864492561366 -6.3929839743216528 #
straight-curve $-1 -40.120853297524945 -17.038864492561366 -2.4464919871608264 0 0 -1 I I #
straight-curve $-1 -40.120853297524945 -25.296940620060575 0 0 0 -1 I I #
point $-1 40.120853297524945 -25.296940620060575 -6.3929839743216528 #
coedge $-1 $630 $629 $638 $712 forward $316 $-1 #
point $-1 40.120853297524945 17.038864492561366 -6.3929839743216528 #
vertex $-1 $712 $741 #
straight-curve $-1 -40.120853297524945 0 -6.3929839743216528 0 1 0 I I #
edge $-1 $710 -40.120853297524945 $643 40.120853297524945 $638 $742 forward 7 unknown #
straight-curve $-1 -40.120853297524945 25.296940620060575 0 0 0 -1 I I #
straight-curve $-1 40.120853297524945 0 -6.3929839743216528 0 -1 0 I I #
point $-1 40.120853297524945 25.296940620060575 -6.3929839743216528 #
straight-curve $-1 40.120853297524945 -13.028286564654159 56.58551812738547 0 0 -1 I I #
point $-1 40.120853297524945 -13.028286564654159 6.3929839743216528 #
straight-curve $-1 40.120853297524945 -4.6769770155436543 0.12394792984597558 0 1 0 I I #
point $-1 40.120853297524938 -13.028286564654159 0.12394792984597558 #
point $-1 35.222958134888898 -10.928667974044531 1.8732644107022682 #
point $-1 35.222958134888898 -7.7792400881300878 1.8732644107022682 #
straight-curve $-1 40.120853297524945 -3.6743325335668517 56.58551812738547 0 0 -1 I I #
point $-1 40.120853297524945 -3.6743325335668517 6.3929839743216528 #
straight-curve $-1 40.120853297524945 0 0.12394792984597558 0 1 0 I I #
point $-1 40.120853297524938 -3.6743325335668517 0.12394792984597558 #
point $-1 35.222958134888898 -1.5747139429572243 1.8732644107022682 #
point $-1 35.222958134888898 1.5747139429572208 1.8732644107022682 #
straight-curve $-1 40.120853297524945 5.6796214975204533 56.58551812738547 0 0 -1 I I #
point $-1 40.120853297524945 5.6796214975204533 6.3929839743216528 #
straight-curve $-1 40.120853297524945 4.6769770155436525 0.12394792984597558 0 1 0 I I #
point $-1 40.120853297524938 5.6796214975204533 0.12394792984597558 #
point $-1 35.222958134888898 7.7792400881300878 1.8732644107022682 #
point $-1 35.222958134888898 10.928667974044529 1.8732644107022682 #
straight-curve $-1 -40.120853297524945 9.0871993346752191 33.312522541972442 0 0 -1 I I #
point $-1 -40.120853297524945 9.0871993346752191 6.3929839743216528 #
straight-curve $-1 -40.120853297524945 2.0380046338411564 1.7081412286877056 0 -1 0 I I #
point $-1 -40.120853297524945 9.0871993346752191 1.7081412286877031 #
point $-1 -34.101008507345803 4.0760092676823128 0.20250379819688769 #
straight-curve $-1 0 -25.296940620060575 -6.3929839743216528 -1 0 0 I I #
point $-1 -40.120853297524945 -25.296940620060575 -6.3929839743216528 #
point $-1 -40.120853297524945 25.296940620060575 -6.3929839743216528 #
straight-curve $-1 0 25.296940620060575 -6.3929839743216528 1 0 0 I I #
End-of-ACIS-data 