500 0 6 0           
7 Unknown 11 ACIS 5.0 NT 24 Thu Mar 25 16:27:03 1999 
-1 9.9999999999999995e-007 1e-010 
body $-1 $6 $-1 $7 #
body $-1 $8 $-1 $9 #
body $-1 $10 $-1 $11 #
body $-1 $12 $-1 $13 #
body $-1 $14 $-1 $15 #
body $-1 $16 $-1 $17 #
lump $-1 $-1 $18 $0 #
transform $-1 1 0 0 0 1 0 0 0 1 47.617419965208896 31.556077435179343 12.493960844677746 1 rotate no_reflect no_shear #
lump $-1 $-1 $19 $1 #
transform $-1 1 0 0 0 1 0 0 0 1 47.617419965208896 31.556077435179343 12.493960844677746 1 rotate no_reflect no_shear #
lump $-1 $-1 $20 $2 #
transform $-1 1 0 0 0 1 0 0 0 1 47.617419965208896 31.556077435179343 12.493960844677746 1 rotate no_reflect no_shear #
lump $-1 $-1 $21 $3 #
transform $-1 1 0 0 0 1 0 0 0 1 47.617419965208896 31.556077435179343 12.493960844677746 1 rotate no_reflect no_shear #
lump $-1 $-1 $22 $4 #
transform $-1 1 0 0 0 1 0 0 0 1 47.617419965208896 31.556077435179343 12.493960844677746 1 rotate no_reflect no_shear #
lump $-1 $-1 $23 $5 #
transform $-1 1 0 0 0 1 0 0 0 1 47.617419965208896 31.556077435179343 12.493960844677746 1 rotate no_reflect no_shear #
shell $-1 $-1 $-1 $24 $-1 $6 #
shell $-1 $-1 $-1 $25 $-1 $8 #
shell $-1 $-1 $-1 $26 $-1 $10 #
shell $-1 $-1 $-1 $27 $-1 $12 #
shell $-1 $-1 $-1 $28 $-1 $14 #
shell $-1 $-1 $-1 $29 $-1 $16 #
face $-1 $30 $31 $18 $-1 $32 forward single #
face $-1 $33 $34 $19 $-1 $35 reversed single #
face $-1 $36 $37 $20 $-1 $38 reversed single #
face $-1 $39 $40 $21 $-1 $41 reversed single #
face $-1 $42 $43 $22 $-1 $44 forward single #
face $-1 $45 $46 $23 $-1 $47 forward single #
face $-1 $48 $49 $18 $-1 $50 reversed single #
loop $-1 $-1 $51 $24 #
plane-surface $-1 0 0 12.493960844677746 0 0 1 1 0 0 forward_v I I I I #
face $-1 $52 $53 $19 $-1 $54 reversed single #
loop $-1 $-1 $55 $25 #
plane-surface $-1 -42.315655895783436 -11.082789224419802 0 0 1 0 0 0 1 forward_v I I I I #
face $-1 $56 $57 $20 $-1 $58 reversed single #
loop $-1 $-1 $59 $26 #
plane-surface $-1 42.315655895783436 -11.082789224419802 0 0 1 0 0 0 1 forward_v I I I I #
face $-1 $60 $61 $21 $-1 $62 reversed single #
loop $-1 $-1 $63 $27 #
plane-surface $-1 -34.256898021936664 36.474907068449511 117.26177565983325 1 0 0 0 -0.5877852598018023 -0.80901698891910034 forward_v I I I I #
face $-1 $64 $65 $22 $-1 $66 forward single #
loop $-1 $67 $68 $28 #
cone-surface $-1 -27.956843775470293 23.621917179127152 5.7662352662876746 0 -0.5877852598018023 -0.80901698891910034 2 0 0 1 I I 0 1 2 forward I I I I #
face $-1 $69 $70 $23 $-1 $71 forward single #
loop $-1 $72 $73 $29 #
cone-surface $-1 -18.506762405770729 23.621917179127152 5.7662352662876746 0 -0.5877852598018023 -0.80901698891910034 2 0 0 1 I I 0 1 2 forward I I I I #
face $-1 $74 $75 $18 $-1 $76 reversed single #
loop $-1 $-1 $77 $30 #
plane-surface $-1 0 0 -12.493960844677746 0 0 1 1 0 0 forward_v I I I I #
coedge $-1 $78 $79 $80 $81 forward $31 $-1 #
face $-1 $82 $83 $19 $-1 $84 reversed single #
loop $-1 $-1 $85 $33 #
plane-surface $-1 -42.315655895783436 -6.5681557458238551 0 0 -1 0 0 0 -1 forward_v I I I I #
coedge $-1 $86 $87 $88 $89 reversed $34 $-1 #
face $-1 $90 $91 $20 $-1 $92 reversed single #
loop $-1 $-1 $93 $36 #
plane-surface $-1 37.013891826357977 -8.8254724851218285 0 1 0 0 0 0 -1 forward_v I I I I #
coedge $-1 $94 $95 $96 $97 forward $37 $-1 #
face $-1 $98 $99 $21 $-1 $100 reversed single #
loop $-1 $-1 $101 $39 #
plane-surface $-1 -23.23180309062051 -19.502728062234169 40.215172219134146 0 0.5877852598018023 0.80901698891910034 1 0 0 forward_v I I I I #
coedge $-1 $102 $103 $104 $105 reversed $40 $-1 #
face $-1 $-1 $106 $22 $-1 $107 forward single #
loop $-1 $108 $109 $42 #
cone-surface $-1 -27.956843775470293 21.551887709680802 2.9170841853129925 0 -0.5877852598018023 -0.80901698891910034 1 0 0 1 I I -0.70710678118654746 0.70710678118654746 1 forward I I I I #
loop $-1 $-1 $110 $28 #
coedge $-1 $68 $68 $111 $112 reversed $43 $-1 #
face $-1 $-1 $113 $23 $-1 $114 forward single #
loop $-1 $115 $116 $45 #
cone-surface $-1 -18.506762405770729 21.551887709680802 2.9170841853129925 0 -0.5877852598018023 -0.80901698891910034 1 0 0 1 I I -0.70710678118654746 0.70710678118654746 1 forward I I I I #
loop $-1 $-1 $117 $29 #
coedge $-1 $73 $73 $118 $119 reversed $46 $-1 #
face $-1 $120 $121 $18 $-1 $122 reversed single #
loop $-1 $-1 $123 $48 #
plane-surface $-1 0 -31.556077435179343 0 0 1 0 0 0 1 forward_v I I I I #
coedge $-1 $124 $125 $126 $127 forward $49 $-1 #
coedge $-1 $128 $51 $129 $130 forward $31 $-1 #
coedge $-1 $51 $128 $131 $132 forward $31 $-1 #
coedge $-1 $133 $134 $51 $81 reversed $135 $-1 #
edge $-1 $136 -31.556077435179343 $137 31.556077435179343 $80 $138 forward 7 unknown #
face $-1 $139 $140 $19 $-1 $141 reversed single #
loop $-1 $-1 $142 $52 #
plane-surface $-1 -37.013891826357977 -8.8254724851218285 0 -1 0 0 0 0 1 forward_v I I I I #
coedge $-1 $143 $144 $145 $146 forward $53 $-1 #
coedge $-1 $147 $55 $148 $149 reversed $34 $-1 #
coedge $-1 $55 $147 $150 $151 reversed $34 $-1 #
coedge $-1 $152 $153 $55 $89 forward $154 $-1 #
edge $-1 $155 -12.493960844677746 $156 12.493960844677746 $88 $157 forward 7 unknown #
face $-1 $158 $159 $20 $-1 $160 reversed single #
loop $-1 $-1 $161 $56 #
plane-surface $-1 42.315655895783436 -6.5681557458238551 0 0 -1 0 0 0 -1 forward_v I I I I #
coedge $-1 $162 $163 $164 $165 forward $57 $-1 #
coedge $-1 $166 $59 $167 $168 reversed $37 $-1 #
coedge $-1 $59 $166 $169 $170 reversed $37 $-1 #
coedge $-1 $163 $162 $59 $97 reversed $57 $-1 #
edge $-1 $171 -12.493960844677746 $172 12.493960844677746 $96 $173 forward 7 unknown #
face $-1 $174 $175 $21 $-1 $176 reversed single #
loop $-1 $-1 $177 $60 #
plane-surface $-1 -12.206708159304354 36.474907068449511 117.26177565983325 -1 0 0 0 0.5877852598018023 0.80901698891910034 forward_v I I I I #
coedge $-1 $178 $179 $180 $181 reversed $61 $-1 #
coedge $-1 $103 $63 $182 $183 reversed $40 $-1 #
coedge $-1 $63 $102 $178 $184 reversed $40 $-1 #
coedge $-1 $180 $185 $63 $105 forward $186 $-1 #
edge $-1 $187 -13.318623900954588 $188 -0.41479180813931293 $104 $189 forward 7 unknown #
loop $-1 $-1 $111 $64 #
plane-surface $-1 -23.23180309062051 -19.502728062234169 40.215172219134146 0 0.5877852598018023 0.80901698891910034 1 0 0 forward_v I I I I #
loop $-1 $-1 $190 $42 #
coedge $-1 $109 $109 $110 $191 reversed $65 $-1 #
coedge $-1 $110 $110 $109 $191 forward $67 $-1 #
coedge $-1 $111 $111 $68 $112 forward $106 $-1 #
edge $-1 $192 -5.2494389863281569e-016 $192 6.2831853071795996 $111 $193 forward 7 unknown #
loop $-1 $-1 $118 $69 #
plane-surface $-1 -23.23180309062051 -19.502728062234169 40.215172219134146 0 0.5877852598018023 0.80901698891910034 1 0 0 forward_v I I I I #
loop $-1 $-1 $194 $45 #
coedge $-1 $116 $116 $117 $195 reversed $70 $-1 #
coedge $-1 $117 $117 $116 $195 forward $72 $-1 #
coedge $-1 $118 $118 $73 $119 forward $113 $-1 #
edge $-1 $196 -5.2494389863281569e-016 $196 6.2831853071795996 $118 $197 forward 7 unknown #
face $-1 $198 $199 $18 $-1 $200 reversed single #
loop $-1 $-1 $201 $74 #
plane-surface $-1 -47.617419965208896 0 0 1 0 0 0 0 -1 forward_v I I I I #
coedge $-1 $202 $131 $203 $204 forward $75 $-1 #
coedge $-1 $205 $77 $202 $206 forward $49 $-1 #
coedge $-1 $77 $205 $207 $208 forward $49 $-1 #
coedge $-1 $134 $133 $77 $127 reversed $135 $-1 #
edge $-1 $209 -31.556077435179343 $210 31.556077435179343 $126 $211 forward 7 unknown #
coedge $-1 $79 $78 $212 $213 forward $31 $-1 #
coedge $-1 $214 $215 $78 $130 reversed $199 $-1 #
edge $-1 $137 -47.617419965208896 $216 47.617419965208896 $129 $217 forward 7 unknown #
coedge $-1 $123 $218 $79 $132 reversed $75 $-1 #
edge $-1 $219 -47.617419965208896 $136 47.617419965208896 $131 $220 forward 7 unknown #
coedge $-1 $126 $80 $218 $221 forward $135 $-1 #
coedge $-1 $80 $126 $214 $222 reversed $135 $-1 #
loop $-1 $-1 $133 $198 #
vertex $-1 $81 $223 #
vertex $-1 $81 $224 #
straight-curve $-1 47.617419965208896 0 12.493960844677746 0 1 0 I I #
face $-1 $225 $226 $19 $-1 $227 forward single #
loop $-1 $-1 $228 $82 #
plane-surface $-1 0 0 -12.493960844677746 0 0 1 1 0 0 forward_v I I I I #
coedge $-1 $229 $230 $147 $231 forward $83 $-1 #
coedge $-1 $232 $85 $228 $233 reversed $53 $-1 #
coedge $-1 $85 $232 $234 $235 reversed $53 $-1 #
coedge $-1 $230 $229 $85 $146 reversed $83 $-1 #
edge $-1 $236 -12.493960844677746 $237 12.493960844677746 $145 $238 forward 7 unknown #
coedge $-1 $87 $86 $142 $231 reversed $34 $-1 #
coedge $-1 $239 $240 $86 $149 forward $140 $-1 #
edge $-1 $241 15.856063878466259 $155 26.459592017317178 $148 $242 forward 7 unknown #
coedge $-1 $243 $244 $87 $151 forward $226 $-1 #
edge $-1 $156 -26.459592017317178 $245 -15.856063878466259 $150 $246 forward 7 unknown #
coedge $-1 $247 $88 $244 $248 reversed $154 $-1 #
coedge $-1 $88 $247 $239 $249 reversed $154 $-1 #
loop $-1 $-1 $247 $225 #
vertex $-1 $249 $250 #
vertex $-1 $89 $251 #
straight-curve $-1 -47.617419965208896 -11.082789224419802 0 0 0 1 I I #
face $-1 $252 $253 $20 $-1 $254 forward single #
loop $-1 $-1 $167 $90 #
plane-surface $-1 0 0 -12.493960844677746 0 0 1 1 0 0 forward_v I I I I #
coedge $-1 $255 $256 $257 $258 reversed $91 $-1 #
coedge $-1 $96 $93 $259 $260 reversed $57 $-1 #
coedge $-1 $93 $96 $261 $262 reversed $57 $-1 #
coedge $-1 $256 $255 $93 $165 reversed $91 $-1 #
edge $-1 $263 -12.493960844677746 $264 12.493960844677746 $164 $265 forward 7 unknown #
coedge $-1 $95 $94 $266 $267 reversed $37 $-1 #
coedge $-1 $259 $268 $94 $168 forward $159 $-1 #
edge $-1 $269 -26.459592017317178 $172 -15.856063878466259 $167 $270 forward 7 unknown #
coedge $-1 $271 $261 $95 $170 forward $253 $-1 #
edge $-1 $171 15.856063878466259 $272 26.459592017317178 $169 $273 forward 7 unknown #
vertex $-1 $170 $274 #
vertex $-1 $168 $275 #
straight-curve $-1 37.013891826357977 -11.082789224419802 0 0 0 -1 I I #
face $-1 $-1 $186 $21 $-1 $276 forward single #
loop $-1 $-1 $277 $98 #
plane-surface $-1 0 31.556077435179343 0 0 -1 0 0 0 -1 forward_v I I I I #
coedge $-1 $278 $279 $280 $281 reversed $99 $-1 #
coedge $-1 $282 $101 $103 $184 forward $61 $-1 #
coedge $-1 $101 $282 $278 $283 forward $61 $-1 #
coedge $-1 $280 $104 $101 $181 forward $186 $-1 #
edge $-1 $188 -22.640996476626409 $284 -0.59080661399409884 $180 $285 forward 7 unknown #
coedge $-1 $286 $287 $102 $183 forward $175 $-1 #
edge $-1 $288 -55.512109957907839 $187 -46.13692698523888 $182 $289 forward 7 unknown #
edge $-1 $188 47.162141125831951 $288 63.11215487035868 $103 $290 forward 7 unknown #
coedge $-1 $104 $280 $286 $291 forward $186 $-1 #
loop $-1 $-1 $280 $174 #
vertex $-1 $183 $292 #
vertex $-1 $105 $293 #
straight-curve $-1 -34.256898021936664 18.237453534224755 12.493960844677744 0 -1 0 I I #
coedge $-1 $190 $190 $-1 $294 reversed $108 $-1 #
edge $-1 $295 0 $295 6.2831853071796004 $109 $296 forward 7 unknown #
vertex $-1 $112 $297 #
ellipse-curve $-1 -27.956843775470293 25.104161388771708 7.8063693583432645 0 0.5877852598018023 0.80901698891910034 2 0 0 1 I I #
coedge $-1 $194 $194 $-1 $298 reversed $115 $-1 #
edge $-1 $299 0 $299 6.2831853071796004 $116 $300 forward 7 unknown #
vertex $-1 $119 $301 #
ellipse-curve $-1 -18.506762405770729 25.104161388771708 7.8063693583432645 0 0.5877852598018023 0.80901698891910034 2 0 0 1 I I #
face $-1 $-1 $135 $18 $-1 $302 reversed single #
loop $-1 $-1 $214 $120 #
plane-surface $-1 0 31.556077435179343 0 0 -1 0 0 0 -1 forward_v I I I I #
coedge $-1 $303 $212 $215 $304 forward $121 $-1 #
coedge $-1 $218 $123 $124 $206 reversed $75 $-1 #
coedge $-1 $212 $303 $123 $204 reversed $121 $-1 #
edge $-1 $219 -12.493960844677746 $305 12.493960844677746 $203 $306 forward 7 unknown #
coedge $-1 $125 $124 $303 $307 forward $49 $-1 #
edge $-1 $210 -47.617419965208896 $305 47.617419965208896 $202 $308 forward 7 unknown #
coedge $-1 $215 $214 $125 $208 reversed $199 $-1 #
edge $-1 $309 -47.617419965208896 $209 47.617419965208896 $207 $310 forward 7 unknown #
vertex $-1 $127 $311 #
vertex $-1 $221 $312 #
straight-curve $-1 47.617419965208896 0 -12.493960844677746 0 -1 0 I I #
coedge $-1 $201 $203 $128 $213 reversed $121 $-1 #
edge $-1 $216 -31.556077435179343 $219 31.556077435179343 $212 $313 forward 7 unknown #
coedge $-1 $207 $129 $134 $222 forward $199 $-1 #
coedge $-1 $129 $207 $201 $304 reversed $199 $-1 #
vertex $-1 $130 $314 #
straight-curve $-1 0 31.556077435179343 12.493960844677746 -1 0 0 I I #
coedge $-1 $131 $202 $133 $221 reversed $75 $-1 #
vertex $-1 $213 $315 #
straight-curve $-1 0 -31.556077435179343 12.493960844677746 1 0 0 I I #
edge $-1 $136 -12.493960844677746 $210 12.493960844677746 $133 $316 forward 7 unknown #
edge $-1 $137 -12.493960844677746 $209 12.493960844677746 $134 $317 forward 7 unknown #
point $-1 47.617419965208896 -31.556077435179343 12.493960844677746 #
point $-1 47.617419965208896 31.556077435179343 12.493960844677746 #
face $-1 $-1 $154 $19 $-1 $318 reversed single #
loop $-1 $-1 $234 $139 #
plane-surface $-1 0 0 12.493960844677746 0 0 1 1 0 0 forward_v I I I I #
coedge $-1 $240 $239 $143 $233 forward $140 $-1 #
coedge $-1 $145 $142 $240 $319 reversed $83 $-1 #
coedge $-1 $142 $145 $243 $320 reversed $83 $-1 #
edge $-1 $245 -12.493960844677746 $241 12.493960844677746 $142 $321 forward 7 unknown #
coedge $-1 $144 $143 $247 $322 reversed $53 $-1 #
edge $-1 $323 -26.459592017317178 $237 -15.856063878466259 $228 $324 forward 7 unknown #
coedge $-1 $244 $243 $144 $235 forward $226 $-1 #
edge $-1 $236 15.856063878466259 $325 26.459592017317178 $234 $326 forward 7 unknown #
vertex $-1 $235 $327 #
vertex $-1 $233 $328 #
straight-curve $-1 -37.013891826357977 -6.5681557458238551 0 0 0 -1 I I #
coedge $-1 $228 $148 $153 $249 forward $140 $-1 #
coedge $-1 $148 $228 $229 $319 forward $140 $-1 #
vertex $-1 $149 $329 #
straight-curve $-1 -21.157827947891718 -11.082789224419802 -12.493960844677746 -1 0 0 I I #
coedge $-1 $234 $150 $230 $320 forward $226 $-1 #
coedge $-1 $150 $234 $152 $248 forward $226 $-1 #
vertex $-1 $151 $330 #
straight-curve $-1 -21.157827947891718 -11.082789224419802 12.493960844677746 1 0 0 I I #
coedge $-1 $153 $152 $232 $322 forward $154 $-1 #
edge $-1 $325 6.5681557458238551 $156 11.082789224419802 $152 $331 forward 7 unknown #
edge $-1 $155 -11.082789224419802 $323 -6.5681557458238551 $153 $332 forward 7 unknown #
point $-1 -47.617419965208896 -11.082789224419802 -12.493960844677746 #
point $-1 -47.617419965208896 -11.082789224419802 12.493960844677746 #
face $-1 $-1 $333 $20 $-1 $334 reversed single #
loop $-1 $-1 $169 $158 #
plane-surface $-1 0 0 12.493960844677746 0 0 1 1 0 0 forward_v I I I I #
coedge $-1 $164 $161 $335 $336 reversed $91 $-1 #
coedge $-1 $161 $164 $337 $338 reversed $91 $-1 #
coedge $-1 $339 $340 $161 $258 forward $333 $-1 #
edge $-1 $341 -12.493960844677746 $342 12.493960844677746 $257 $343 forward 7 unknown #
coedge $-1 $335 $167 $162 $260 forward $159 $-1 #
edge $-1 $172 -6.6700529818588876 $264 -2.1554195032629409 $259 $344 forward 7 unknown #
coedge $-1 $169 $337 $163 $262 forward $253 $-1 #
edge $-1 $263 2.1554195032629409 $171 6.6700529818588876 $261 $345 forward 7 unknown #
vertex $-1 $262 $346 #
vertex $-1 $260 $347 #
straight-curve $-1 37.013891826357977 -6.5681557458238551 0 0 0 -1 I I #
coedge $-1 $340 $339 $166 $267 forward $333 $-1 #
edge $-1 $272 -12.493960844677746 $269 12.493960844677746 $266 $348 forward 7 unknown #
coedge $-1 $167 $335 $340 $349 forward $159 $-1 #
vertex $-1 $267 $350 #
straight-curve $-1 21.157827947891718 -11.082789224419802 -12.493960844677746 -1 0 0 I I #
coedge $-1 $337 $169 $339 $351 forward $253 $-1 #
vertex $-1 $351 $352 #
straight-curve $-1 21.157827947891718 -11.082789224419802 12.493960844677746 1 0 0 I I #
point $-1 37.013891826357977 -11.082789224419802 12.493960844677746 #
point $-1 37.013891826357977 -11.082789224419802 -12.493960844677746 #
plane-surface $-1 0 0 12.493960844677746 0 0 1 1 0 0 forward_v I I I I #
coedge $-1 $287 $286 $279 $353 forward $175 $-1 #
coedge $-1 $279 $177 $179 $283 reversed $99 $-1 #
coedge $-1 $177 $278 $277 $353 reversed $99 $-1 #
coedge $-1 $185 $180 $177 $281 forward $186 $-1 #
edge $-1 $284 0.41479180813931293 $354 13.318623900954588 $280 $355 forward 7 unknown #
coedge $-1 $179 $178 $287 $356 reversed $61 $-1 #
edge $-1 $357 -63.11215487035868 $284 -47.162141125831951 $278 $358 forward 7 unknown #
vertex $-1 $181 $359 #
straight-curve $-1 -11.615901545310255 18.652245342364068 12.493960844677748 1 0 0 I I #
coedge $-1 $277 $182 $185 $291 reversed $175 $-1 #
coedge $-1 $182 $277 $282 $356 forward $175 $-1 #
vertex $-1 $183 $360 #
straight-curve $-1 -34.256898021936664 31.556077435179343 58.630887829916624 0 0 1 I I #
straight-curve $-1 -34.256898021936664 -19.502728062234169 40.215172219134146 0 0.80901698891910034 -0.5877852598018023 I I #
edge $-1 $354 12.206708159304354 $187 34.256898021936664 $286 $361 forward 7 unknown #
point $-1 -34.256898021936664 31.556077435179343 12.493960844677746 #
point $-1 -34.256898021936664 18.652245342364068 12.493960844677744 #
edge $-1 $362 1 $362 0 $190 $-1 forward 7 unknown #
vertex $-1 $191 $363 #
ellipse-curve $-1 -27.956843775470293 22.139672969482604 3.7261011742320926 0 0.5877852598018023 0.80901698891910034 2 0 0 1 I I #
point $-1 -25.956843775470293 25.104161388771701 7.8063693583432565 #
edge $-1 $364 1 $364 0 $194 $-1 forward 7 unknown #
vertex $-1 $195 $365 #
ellipse-curve $-1 -18.506762405770729 22.139672969482604 3.7261011742320926 0 0.5877852598018023 0.80901698891910034 2 0 0 1 I I #
point $-1 -16.506762405770729 25.104161388771701 7.8063693583432565 #
plane-surface $-1 47.617419965208896 0 0 -1 0 0 0 0 1 forward_v I I I I #
coedge $-1 $203 $201 $205 $307 reversed $121 $-1 #
edge $-1 $216 -12.493960844677746 $309 12.493960844677746 $215 $366 forward 7 unknown #
vertex $-1 $307 $367 #
straight-curve $-1 -47.617419965208896 -31.556077435179343 0 0 0 -1 I I #
edge $-1 $305 -31.556077435179343 $309 31.556077435179343 $303 $368 forward 7 unknown #
straight-curve $-1 0 -31.556077435179343 -12.493960844677746 -1 0 0 I I #
vertex $-1 $208 $369 #
straight-curve $-1 0 31.556077435179343 -12.493960844677746 1 0 0 I I #
point $-1 47.617419965208896 31.556077435179343 -12.493960844677746 #
point $-1 47.617419965208896 -31.556077435179343 -12.493960844677746 #
straight-curve $-1 -47.617419965208896 0 12.493960844677746 0 -1 0 I I #
point $-1 -47.617419965208896 31.556077435179343 12.493960844677746 #
point $-1 -47.617419965208896 -31.556077435179343 12.493960844677746 #
straight-curve $-1 47.617419965208896 -31.556077435179343 0 0 0 -1 I I #
straight-curve $-1 47.617419965208896 31.556077435179343 0 0 0 -1 I I #
plane-surface $-1 -47.617419965208896 0 0 1 0 0 0 0 -1 forward_v I I I I #
edge $-1 $237 2.1554195032629409 $241 6.6700529818588876 $240 $370 forward 7 unknown #
edge $-1 $245 -6.6700529818588876 $236 -2.1554195032629409 $243 $371 forward 7 unknown #
straight-curve $-1 -37.013891826357977 -11.082789224419802 0 0 0 -1 I I #
edge $-1 $325 -12.493960844677746 $323 12.493960844677746 $247 $372 forward 7 unknown #
vertex $-1 $322 $373 #
straight-curve $-1 -21.157827947891718 -6.5681557458238551 -12.493960844677746 1 0 0 I I #
vertex $-1 $248 $374 #
straight-curve $-1 -21.157827947891718 -6.5681557458238551 12.493960844677746 -1 0 0 I I #
point $-1 -37.013891826357977 -6.5681557458238551 12.493960844677746 #
point $-1 -37.013891826357977 -6.5681557458238551 -12.493960844677746 #
point $-1 -37.013891826357977 -11.082789224419802 -12.493960844677746 #
point $-1 -37.013891826357977 -11.082789224419802 12.493960844677746 #
straight-curve $-1 -47.617419965208896 0 12.493960844677746 0 -1 0 I I #
straight-curve $-1 -47.617419965208896 0 -12.493960844677746 0 1 0 I I #
loop $-1 $-1 $266 $252 #
plane-surface $-1 47.617419965208896 0 0 -1 0 0 0 0 1 forward_v I I I I #
coedge $-1 $268 $259 $255 $336 forward $159 $-1 #
edge $-1 $264 15.856063878466259 $341 26.459592017317178 $335 $375 forward 7 unknown #
coedge $-1 $261 $271 $256 $338 forward $253 $-1 #
edge $-1 $342 -26.459592017317178 $263 -15.856063878466259 $337 $376 forward 7 unknown #
coedge $-1 $266 $257 $271 $351 reversed $333 $-1 #
coedge $-1 $257 $266 $268 $349 reversed $333 $-1 #
vertex $-1 $349 $377 #
vertex $-1 $258 $378 #
straight-curve $-1 47.617419965208896 -6.5681557458238551 0 0 0 1 I I #
straight-curve $-1 37.013891826357977 -4.4127362425609142 -12.493960844677746 0 1 0 I I #
straight-curve $-1 37.013891826357977 -4.4127362425609142 12.493960844677746 0 -1 0 I I #
point $-1 37.013891826357977 -6.5681557458238551 12.493960844677746 #
point $-1 37.013891826357977 -6.5681557458238551 -12.493960844677746 #
straight-curve $-1 47.617419965208896 -11.082789224419802 0 0 0 -1 I I #
edge $-1 $341 6.5681557458238551 $269 11.082789224419802 $340 $379 forward 7 unknown #
point $-1 47.617419965208896 -11.082789224419802 -12.493960844677746 #
edge $-1 $272 -11.082789224419802 $342 -6.5681557458238551 $339 $380 forward 7 unknown #
point $-1 47.617419965208896 -11.082789224419802 12.493960844677746 #
edge $-1 $354 46.13692698523888 $357 55.512109957907839 $277 $381 forward 7 unknown #
vertex $-1 $291 $382 #
straight-curve $-1 -12.206708159304354 18.237453534224755 12.493960844677744 0 1 0 I I #
edge $-1 $357 0.59080661399409884 $288 22.640996476626409 $287 $383 forward 7 unknown #
vertex $-1 $356 $384 #
straight-curve $-1 -12.206708159304354 -19.502728062234169 40.215172219134146 0 -0.80901698891910034 0.5877852598018023 I I #
point $-1 -12.206708159304354 18.652245342364068 12.493960844677744 #
point $-1 -34.256898021936664 31.556077435179347 3.1187778720087849 #
straight-curve $-1 0 31.556077435179343 12.493960844677746 -1 0 0 I I #
vertex $-1 $294 $385 #
point $-1 -25.956843775470293 22.139672969482604 3.7261011742320926 #
vertex $-1 $298 $386 #
point $-1 -16.506762405770729 22.139672969482604 3.7261011742320926 #
straight-curve $-1 -47.617419965208896 31.556077435179343 0 0 0 -1 I I #
point $-1 -47.617419965208896 -31.556077435179343 -12.493960844677746 #
straight-curve $-1 -47.617419965208896 0 -12.493960844677746 0 1 0 I I #
point $-1 -47.617419965208896 31.556077435179343 -12.493960844677746 #
straight-curve $-1 -37.013891826357977 -4.4127362425609142 -12.493960844677746 0 -1 0 I I #
straight-curve $-1 -37.013891826357977 -4.4127362425609142 12.493960844677746 0 1 0 I I #
straight-curve $-1 -47.617419965208896 -6.5681557458238551 0 0 0 -1 I I #
point $-1 -47.617419965208896 -6.5681557458238551 -12.493960844677746 #
point $-1 -47.617419965208896 -6.5681557458238551 12.493960844677746 #
straight-curve $-1 21.157827947891718 -6.5681557458238551 -12.493960844677746 1 0 0 I I #
straight-curve $-1 21.157827947891718 -6.5681557458238551 12.493960844677746 -1 0 0 I I #
point $-1 47.617419965208896 -6.5681557458238551 -12.493960844677746 #
point $-1 47.617419965208896 -6.5681557458238551 12.493960844677746 #
straight-curve $-1 47.617419965208896 0 -12.493960844677746 0 -1 0 I I #
straight-curve $-1 47.617419965208896 0 12.493960844677746 0 1 0 I I #
straight-curve $-1 -12.206708159304354 31.556077435179343 58.630887829916624 0 0 -1 I I #
point $-1 -12.206708159304354 31.556077435179343 12.493960844677746 #
straight-curve $-1 -11.615901545310255 31.556077435179343 3.1187778720087884 -1 0 0 I I #
point $-1 -12.206708159304354 31.556077435179347 3.1187778720087849 #
point $-1 -27.956843775470293 20.964102449879 2.1080671963938924 #
point $-1 -18.506762405770729 20.964102449879 2.1080671963938924 #
End-of-ACIS-data 