500 0 6 0           
7 Unknown 11 ACIS 5.0 NT 24 Fri Mar 26 01:17:42 1999 
-1 9.9999999999999995e-007 1e-010 
body $-1 $6 $-1 $7 #
body $-1 $8 $-1 $9 #
body $-1 $10 $-1 $11 #
body $-1 $12 $-1 $13 #
body $-1 $14 $-1 $15 #
body $-1 $16 $-1 $17 #
lump $-1 $-1 $18 $0 #
transform $-1 1 0 0 0 1 0 0 0 1 47.137668996246227 21.517431684663013 9.5294109894707262 1 rotate no_reflect no_shear #
lump $-1 $-1 $19 $1 #
transform $-1 1 0 0 0 1 0 0 0 1 47.137668996246227 21.517431684663013 9.5294109894707262 1 rotate no_reflect no_shear #
lump $-1 $-1 $20 $2 #
transform $-1 1 0 0 0 1 0 0 0 1 47.137668996246227 21.517431684663013 9.5294109894707262 1 rotate no_reflect no_shear #
lump $-1 $-1 $21 $3 #
transform $-1 1 0 0 0 1 0 0 0 1 47.137668996246227 21.517431684663013 9.5294109894707262 1 rotate no_reflect no_shear #
lump $-1 $-1 $22 $4 #
transform $-1 1 0 0 0 1 0 0 0 1 47.137668996246227 21.517431684663013 9.5294109894707262 1 rotate no_reflect no_shear #
lump $-1 $-1 $23 $5 #
transform $-1 1 0 0 0 1 0 0 0 1 47.137668996246227 21.517431684663013 9.5294109894707262 1 rotate no_reflect no_shear #
shell $-1 $-1 $-1 $24 $-1 $6 #
shell $-1 $-1 $-1 $25 $-1 $8 #
shell $-1 $-1 $-1 $26 $-1 $10 #
shell $-1 $-1 $-1 $27 $-1 $12 #
shell $-1 $-1 $-1 $28 $-1 $14 #
shell $-1 $-1 $-1 $29 $-1 $16 #
face $-1 $30 $31 $18 $-1 $32 forward single #
face $-1 $33 $34 $19 $-1 $35 reversed single #
face $-1 $36 $37 $20 $-1 $38 reversed single #
face $-1 $39 $40 $21 $-1 $41 forward single #
face $-1 $42 $43 $22 $-1 $44 forward single #
face $-1 $45 $46 $23 $-1 $47 forward single #
face $-1 $48 $49 $18 $-1 $50 reversed single #
loop $-1 $-1 $51 $24 #
plane-surface $-1 0 0 9.5294109894707262 0 0 1 1 0 0 forward_v I I I I #
face $-1 $52 $53 $19 $-1 $54 reversed single #
loop $-1 $-1 $55 $25 #
plane-surface $-1 -40.902577741505226 -17.469576836857375 0 0 -1 0 0 0 -1 forward_v I I I I #
face $-1 $56 $57 $20 $-1 $58 reversed single #
loop $-1 $-1 $59 $26 #
plane-surface $-1 35.521916886633804 -80.846824993180476 76.631531538763511 -1 0 0 0 -0.62932039886446345 0.77714595512881146 forward_v I I I I #
face $-1 $60 $61 $21 $-1 $62 forward single #
loop $-1 $63 $64 $27 #
cone-surface $-1 17.191290671050531 -15.348355328493856 3.5290856639055375 0 0.62932039886446345 -0.77714595512881146 2 0 0 1 I I 0 1 2 forward I I I I #
face $-1 $65 $66 $22 $-1 $67 forward single #
loop $-1 $68 $69 $28 #
cone-surface $-1 24.065275501894256 -15.348355328493856 3.5290856639055375 0 0.62932039886446345 -0.77714595512881146 2 0 0 1 I I 0 1 2 forward I I I I #
face $-1 $70 $71 $23 $-1 $72 forward single #
loop $-1 $73 $74 $29 #
cone-surface $-1 30.93926033273798 -15.348355328493856 3.5290856639055375 0 0.62932039886446345 -0.77714595512881146 2 0 0 1 I I 0 1 2 forward I I I I #
face $-1 $75 $76 $18 $-1 $77 reversed single #
loop $-1 $-1 $78 $30 #
plane-surface $-1 0 0 -9.5294109894707262 0 0 1 1 0 0 forward_v I I I I #
coedge $-1 $79 $80 $81 $82 forward $31 $-1 #
face $-1 $83 $84 $19 $-1 $85 forward single #
loop $-1 $-1 $86 $33 #
plane-surface $-1 -34.667486486764226 -19.493504260760194 0 -1 0 0 0 0 1 forward_v I I I I #
coedge $-1 $87 $88 $89 $90 forward $34 $-1 #
face $-1 $91 $92 $20 $-1 $93 reversed single #
loop $-1 $-1 $94 $36 #
plane-surface $-1 24.065275501894256 -21.517431684663023 3.3658339494964338 0 -0.62932039886446345 0.77714595512881146 1 0 0 forward_v I I I I #
coedge $-1 $95 $96 $97 $98 reversed $37 $-1 #
face $-1 $-1 $99 $21 $-1 $100 forward single #
loop $-1 $101 $102 $39 #
cone-surface $-1 17.191290671050531 -12.355650375588237 -0.16659709680132195 0 0.62932039886446345 -0.77714595512881146 1 0 0 1 I I -0.70710678118654746 0.70710678118654746 1 forward I I I I #
loop $-1 $-1 $103 $27 #
coedge $-1 $64 $64 $104 $105 reversed $40 $-1 #
face $-1 $-1 $106 $22 $-1 $107 forward single #
loop $-1 $108 $109 $42 #
cone-surface $-1 24.065275501894256 -12.355650375588237 -0.16659709680132195 0 0.62932039886446345 -0.77714595512881146 1 0 0 1 I I -0.70710678118654746 0.70710678118654746 1 forward I I I I #
loop $-1 $-1 $110 $28 #
coedge $-1 $69 $69 $111 $112 reversed $43 $-1 #
face $-1 $-1 $113 $23 $-1 $114 forward single #
loop $-1 $115 $116 $45 #
cone-surface $-1 30.93926033273798 -12.355650375588237 -0.16659709680132195 0 0.62932039886446345 -0.77714595512881146 1 0 0 1 I I -0.70710678118654746 0.70710678118654746 1 forward I I I I #
loop $-1 $-1 $117 $29 #
coedge $-1 $74 $74 $118 $119 reversed $46 $-1 #
face $-1 $120 $121 $18 $-1 $122 reversed single #
loop $-1 $-1 $123 $48 #
plane-surface $-1 0 -21.517431684663013 0 0 1 0 0 0 1 forward_v I I I I #
coedge $-1 $124 $125 $126 $127 forward $49 $-1 #
coedge $-1 $128 $51 $129 $130 forward $31 $-1 #
coedge $-1 $51 $128 $131 $132 forward $31 $-1 #
coedge $-1 $133 $134 $51 $82 reversed $135 $-1 #
edge $-1 $136 -21.517431684663013 $137 21.517431684663013 $81 $138 forward 7 unknown #
face $-1 $139 $140 $19 $-1 $141 reversed single #
loop $-1 $-1 $142 $52 #
plane-surface $-1 0 0 9.5294109894707262 0 0 1 1 0 0 forward_v I I I I #
coedge $-1 $143 $144 $145 $146 reversed $53 $-1 #
coedge $-1 $147 $55 $148 $149 reversed $34 $-1 #
coedge $-1 $55 $147 $150 $151 reversed $34 $-1 #
coedge $-1 $144 $143 $55 $90 reversed $53 $-1 #
edge $-1 $152 -9.5294109894707262 $153 9.5294109894707262 $89 $154 forward 7 unknown #
face $-1 $155 $156 $20 $-1 $157 forward single #
loop $-1 $-1 $158 $56 #
plane-surface $-1 12.608634117154708 -80.846824993180476 76.631531538763511 1 0 0 0 0.62932039886446345 -0.77714595512881146 forward_v I I I I #
coedge $-1 $159 $160 $161 $162 reversed $57 $-1 #
coedge $-1 $96 $59 $163 $164 reversed $37 $-1 #
coedge $-1 $59 $95 $159 $165 reversed $37 $-1 #
coedge $-1 $161 $166 $59 $98 forward $156 $-1 #
edge $-1 $167 18.905980811927225 $168 26.517364416183231 $97 $169 forward 7 unknown #
loop $-1 $-1 $104 $60 #
plane-surface $-1 24.065275501894256 -21.517431684663023 3.3658339494964338 0 -0.62932039886446345 0.77714595512881146 1 0 0 forward_v I I I I #
loop $-1 $-1 $170 $39 #
coedge $-1 $102 $102 $103 $171 reversed $61 $-1 #
coedge $-1 $103 $103 $102 $171 forward $63 $-1 #
coedge $-1 $104 $104 $64 $105 forward $99 $-1 #
edge $-1 $172 -8.2153973525681266e-016 $172 6.2831853071795996 $104 $173 forward 7 unknown #
loop $-1 $-1 $111 $65 #
plane-surface $-1 24.065275501894256 -21.517431684663023 3.3658339494964338 0 -0.62932039886446345 0.77714595512881146 1 0 0 forward_v I I I I #
loop $-1 $-1 $174 $42 #
coedge $-1 $109 $109 $110 $175 reversed $66 $-1 #
coedge $-1 $110 $110 $109 $175 forward $68 $-1 #
coedge $-1 $111 $111 $69 $112 forward $106 $-1 #
edge $-1 $176 -8.2153973525681266e-016 $176 6.2831853071795996 $111 $177 forward 7 unknown #
loop $-1 $-1 $118 $70 #
plane-surface $-1 24.065275501894256 -21.517431684663023 3.3658339494964338 0 -0.62932039886446345 0.77714595512881146 1 0 0 forward_v I I I I #
loop $-1 $-1 $178 $45 #
coedge $-1 $116 $116 $117 $179 reversed $71 $-1 #
coedge $-1 $117 $117 $116 $179 forward $73 $-1 #
coedge $-1 $118 $118 $74 $119 forward $113 $-1 #
edge $-1 $180 -8.2153973525681266e-016 $180 6.2831853071795996 $118 $181 forward 7 unknown #
face $-1 $182 $183 $18 $-1 $184 reversed single #
loop $-1 $-1 $185 $75 #
plane-surface $-1 -47.137668996246227 0 0 1 0 0 0 0 -1 forward_v I I I I #
coedge $-1 $186 $131 $187 $188 forward $76 $-1 #
coedge $-1 $189 $78 $186 $190 forward $49 $-1 #
coedge $-1 $78 $189 $191 $192 forward $49 $-1 #
coedge $-1 $134 $133 $78 $127 reversed $135 $-1 #
edge $-1 $193 -21.517431684663013 $194 21.517431684663013 $126 $195 forward 7 unknown #
coedge $-1 $80 $79 $196 $197 forward $31 $-1 #
coedge $-1 $198 $199 $79 $130 reversed $183 $-1 #
edge $-1 $137 -47.137668996246227 $200 47.137668996246227 $129 $201 forward 7 unknown #
coedge $-1 $123 $202 $80 $132 reversed $76 $-1 #
edge $-1 $203 -47.137668996246227 $136 47.137668996246227 $131 $204 forward 7 unknown #
coedge $-1 $126 $81 $202 $205 forward $135 $-1 #
coedge $-1 $81 $126 $198 $206 reversed $135 $-1 #
loop $-1 $-1 $133 $182 #
vertex $-1 $82 $207 #
vertex $-1 $82 $208 #
straight-curve $-1 47.137668996246227 0 9.5294109894707262 0 1 0 I I #
face $-1 $209 $210 $19 $-1 $211 reversed single #
loop $-1 $-1 $212 $83 #
plane-surface $-1 -47.137668996246227 0 0 1 0 0 0 0 -1 forward_v I I I I #
coedge $-1 $150 $213 $144 $214 forward $84 $-1 #
coedge $-1 $89 $86 $215 $216 reversed $53 $-1 #
coedge $-1 $86 $89 $142 $214 reversed $53 $-1 #
coedge $-1 $217 $218 $86 $146 forward $219 $-1 #
edge $-1 $220 -9.5294109894707262 $221 9.5294109894707262 $145 $222 forward 7 unknown #
coedge $-1 $88 $87 $212 $223 reversed $34 $-1 #
coedge $-1 $215 $224 $87 $149 forward $210 $-1 #
edge $-1 $225 -26.686380125493613 $153 -14.216197616011613 $148 $226 forward 7 unknown #
coedge $-1 $227 $142 $88 $151 forward $84 $-1 #
edge $-1 $152 14.216197616011613 $228 26.686380125493613 $150 $229 forward 7 unknown #
vertex $-1 $151 $230 #
vertex $-1 $149 $231 #
straight-curve $-1 -34.667486486764226 -17.469576836857375 0 0 0 -1 I I #
face $-1 $-1 $232 $20 $-1 $233 reversed single #
loop $-1 $-1 $97 $91 #
plane-surface $-1 0 0 9.5294109894707262 0 0 1 1 0 0 forward_v I I I I #
coedge $-1 $234 $235 $236 $237 reversed $92 $-1 #
coedge $-1 $238 $94 $96 $165 forward $57 $-1 #
coedge $-1 $94 $238 $234 $239 forward $57 $-1 #
coedge $-1 $236 $97 $94 $162 forward $156 $-1 #
edge $-1 $168 -23.489279135686676 $240 -0.57599636620757977 $161 $241 forward 7 unknown #
coedge $-1 $242 $243 $95 $164 forward $232 $-1 #
edge $-1 $244 -34.949931819885315 $167 -28.786354779911029 $163 $245 forward 7 unknown #
edge $-1 $168 -9.7940207422097885 $244 -1.3592944770442498e-014 $96 $246 forward 7 unknown #
coedge $-1 $97 $236 $242 $247 forward $156 $-1 #
vertex $-1 $164 $248 #
vertex $-1 $98 $249 #
straight-curve $-1 35.521916886633804 -40.423412496590238 9.5294109894707262 0 1 0 I I #
coedge $-1 $170 $170 $-1 $250 reversed $101 $-1 #
edge $-1 $251 0 $251 6.2831853071796004 $102 $252 forward 7 unknown #
vertex $-1 $105 $253 #
ellipse-curve $-1 17.191290671050531 -17.71173988253501 6.4476224694835835 0 -0.62932039886446345 0.77714595512881146 2 0 0 1 I I #
coedge $-1 $174 $174 $-1 $254 reversed $108 $-1 #
edge $-1 $255 0 $255 6.2831853071796004 $109 $256 forward 7 unknown #
vertex $-1 $112 $257 #
ellipse-curve $-1 24.065275501894256 -17.71173988253501 6.4476224694835835 0 -0.62932039886446345 0.77714595512881146 2 0 0 1 I I #
coedge $-1 $178 $178 $-1 $258 reversed $115 $-1 #
edge $-1 $259 0 $259 6.2831853071796004 $116 $260 forward 7 unknown #
vertex $-1 $119 $261 #
ellipse-curve $-1 30.93926033273798 -17.71173988253501 6.4476224694835835 0 -0.62932039886446345 0.77714595512881146 2 0 0 1 I I #
face $-1 $-1 $135 $18 $-1 $262 reversed single #
loop $-1 $-1 $198 $120 #
plane-surface $-1 0 21.517431684663013 0 0 -1 0 0 0 -1 forward_v I I I I #
coedge $-1 $263 $196 $199 $264 forward $121 $-1 #
coedge $-1 $202 $123 $124 $190 reversed $76 $-1 #
coedge $-1 $196 $263 $123 $188 reversed $121 $-1 #
edge $-1 $203 -9.5294109894707262 $265 9.5294109894707262 $187 $266 forward 7 unknown #
coedge $-1 $125 $124 $263 $267 forward $49 $-1 #
edge $-1 $194 -47.137668996246227 $265 47.137668996246227 $186 $268 forward 7 unknown #
coedge $-1 $199 $198 $125 $192 reversed $183 $-1 #
edge $-1 $269 -47.137668996246227 $193 47.137668996246227 $191 $270 forward 7 unknown #
vertex $-1 $127 $271 #
vertex $-1 $205 $272 #
straight-curve $-1 47.137668996246227 0 -9.5294109894707262 0 -1 0 I I #
coedge $-1 $185 $187 $128 $197 reversed $121 $-1 #
edge $-1 $200 -21.517431684663013 $203 21.517431684663013 $196 $273 forward 7 unknown #
coedge $-1 $191 $129 $134 $206 forward $183 $-1 #
coedge $-1 $129 $191 $185 $264 reversed $183 $-1 #
vertex $-1 $130 $274 #
straight-curve $-1 0 21.517431684663013 9.5294109894707262 -1 0 0 I I #
coedge $-1 $131 $186 $133 $205 reversed $76 $-1 #
vertex $-1 $197 $275 #
straight-curve $-1 0 -21.517431684663013 9.5294109894707262 1 0 0 I I #
edge $-1 $136 -9.5294109894707262 $194 9.5294109894707262 $133 $276 forward 7 unknown #
edge $-1 $137 -9.5294109894707262 $193 9.5294109894707262 $134 $277 forward 7 unknown #
point $-1 47.137668996246227 -21.517431684663013 9.5294109894707262 #
point $-1 47.137668996246227 21.517431684663013 9.5294109894707262 #
face $-1 $-1 $219 $19 $-1 $278 reversed single #
loop $-1 $-1 $215 $139 #
plane-surface $-1 0 0 -9.5294109894707262 0 0 1 1 0 0 forward_v I I I I #
coedge $-1 $279 $280 $147 $223 forward $140 $-1 #
coedge $-1 $142 $227 $217 $281 forward $84 $-1 #
edge $-1 $221 -11.770679554282916 $152 -7.7228247064772777 $142 $282 forward 7 unknown #
coedge $-1 $283 $148 $143 $216 forward $210 $-1 #
edge $-1 $153 7.7228247064772777 $220 11.770679554282916 $215 $284 forward 7 unknown #
coedge $-1 $285 $145 $213 $281 reversed $219 $-1 #
coedge $-1 $145 $285 $283 $286 reversed $219 $-1 #
loop $-1 $-1 $145 $209 #
vertex $-1 $286 $287 #
vertex $-1 $146 $288 #
straight-curve $-1 -34.667486486764226 -21.517431684663013 0 0 0 1 I I #
edge $-1 $228 -9.5294109894707262 $225 9.5294109894707262 $212 $289 forward 7 unknown #
coedge $-1 $148 $283 $279 $290 forward $210 $-1 #
vertex $-1 $149 $291 #
straight-curve $-1 -20.451288870752613 -17.469576836857375 -9.5294109894707262 1 0 0 I I #
coedge $-1 $213 $150 $280 $292 forward $84 $-1 #
vertex $-1 $292 $293 #
straight-curve $-1 -20.451288870752613 -17.469576836857375 9.5294109894707262 -1 0 0 I I #
point $-1 -34.667486486764226 -17.469576836857375 9.5294109894707262 #
point $-1 -34.667486486764226 -17.469576836857375 -9.5294109894707262 #
loop $-1 $-1 $163 $155 #
plane-surface $-1 0 -21.517431684663013 0 0 1 0 0 0 1 forward_v I I I I #
coedge $-1 $235 $158 $160 $239 reversed $92 $-1 #
coedge $-1 $158 $234 $294 $295 reversed $92 $-1 #
coedge $-1 $166 $161 $158 $237 forward $156 $-1 #
edge $-1 $240 -26.517364416183231 $296 -18.905980811927225 $236 $297 forward 7 unknown #
coedge $-1 $160 $159 $243 $298 reversed $57 $-1 #
edge $-1 $299 1.3592944770442498e-014 $240 9.7940207422097885 $234 $300 forward 7 unknown #
vertex $-1 $162 $301 #
straight-curve $-1 12.032637750947128 -13.906048080407004 9.5294109894707262 -1 0 0 I I #
coedge $-1 $294 $163 $166 $247 reversed $232 $-1 #
coedge $-1 $163 $294 $238 $298 forward $232 $-1 #
vertex $-1 $164 $302 #
straight-curve $-1 35.521916886633804 -21.517431684663013 38.315765769381755 0 0 1 I I #
straight-curve $-1 35.521916886633804 -21.517431684663023 3.3658339494964338 0 -0.77714595512881146 -0.62932039886446345 I I #
edge $-1 $296 12.608634117154708 $167 35.521916886633804 $242 $303 forward 7 unknown #
point $-1 35.521916886633804 -21.517431684663013 9.5294109894707262 #
point $-1 35.521916886633804 -13.906048080407007 9.5294109894707262 #
edge $-1 $304 1 $304 0 $170 $-1 forward 7 unknown #
vertex $-1 $171 $305 #
ellipse-curve $-1 17.191290671050531 -12.9849707744527 0.61054885832748951 0 -0.62932039886446345 0.77714595512881146 2 0 0 1 I I #
point $-1 19.191290671050531 -17.711739882535014 6.4476224694835853 #
edge $-1 $306 1 $306 0 $174 $-1 forward 7 unknown #
vertex $-1 $175 $307 #
ellipse-curve $-1 24.065275501894256 -12.9849707744527 0.61054885832748951 0 -0.62932039886446345 0.77714595512881146 2 0 0 1 I I #
point $-1 26.065275501894256 -17.711739882535014 6.4476224694835853 #
edge $-1 $308 1 $308 0 $178 $-1 forward 7 unknown #
vertex $-1 $179 $309 #
ellipse-curve $-1 30.93926033273798 -12.9849707744527 0.61054885832748951 0 -0.62932039886446345 0.77714595512881146 2 0 0 1 I I #
point $-1 32.93926033273798 -17.711739882535014 6.4476224694835853 #
plane-surface $-1 47.137668996246227 0 0 -1 0 0 0 0 1 forward_v I I I I #
coedge $-1 $187 $185 $189 $267 reversed $121 $-1 #
edge $-1 $200 -9.5294109894707262 $269 9.5294109894707262 $199 $310 forward 7 unknown #
vertex $-1 $267 $311 #
straight-curve $-1 -47.137668996246227 -21.517431684663013 0 0 0 -1 I I #
edge $-1 $265 -21.517431684663013 $269 21.517431684663013 $263 $312 forward 7 unknown #
straight-curve $-1 0 -21.517431684663013 -9.5294109894707262 -1 0 0 I I #
vertex $-1 $192 $313 #
straight-curve $-1 0 21.517431684663013 -9.5294109894707262 1 0 0 I I #
point $-1 47.137668996246227 21.517431684663013 -9.5294109894707262 #
point $-1 47.137668996246227 -21.517431684663013 -9.5294109894707262 #
straight-curve $-1 -47.137668996246227 0 9.5294109894707262 0 -1 0 I I #
point $-1 -47.137668996246227 21.517431684663013 9.5294109894707262 #
point $-1 -47.137668996246227 -21.517431684663013 9.5294109894707262 #
straight-curve $-1 47.137668996246227 -21.517431684663013 0 0 0 -1 I I #
straight-curve $-1 47.137668996246227 21.517431684663013 0 0 0 -1 I I #
plane-surface $-1 0 -21.517431684663013 0 0 1 0 0 0 1 forward_v I I I I #
coedge $-1 $314 $212 $224 $290 reversed $140 $-1 #
coedge $-1 $212 $314 $227 $292 reversed $140 $-1 #
edge $-1 $315 -47.137668996246227 $221 -34.667486486764226 $217 $316 forward 7 unknown #
straight-curve $-1 -34.667486486764226 -9.7467521303800968 9.5294109894707262 0 1 0 I I #
coedge $-1 $224 $215 $218 $286 forward $210 $-1 #
straight-curve $-1 -34.667486486764226 -9.7467521303800968 -9.5294109894707262 0 -1 0 I I #
coedge $-1 $218 $217 $314 $317 forward $219 $-1 #
edge $-1 $220 34.667486486764226 $318 47.137668996246227 $218 $319 forward 7 unknown #
point $-1 -34.667486486764226 -21.517431684663013 -9.5294109894707262 #
point $-1 -34.667486486764226 -21.517431684663013 9.5294109894707262 #
straight-curve $-1 -47.137668996246227 -17.469576836857375 0 0 0 -1 I I #
edge $-1 $318 -21.517431684663013 $225 -17.469576836857375 $279 $320 forward 7 unknown #
point $-1 -47.137668996246227 -17.469576836857375 -9.5294109894707262 #
edge $-1 $228 17.469576836857375 $315 21.517431684663013 $280 $321 forward 7 unknown #
point $-1 -47.137668996246227 -17.469576836857375 9.5294109894707262 #
coedge $-1 $243 $242 $235 $295 forward $232 $-1 #
edge $-1 $296 28.786354779911029 $299 34.949931819885315 $294 $322 forward 7 unknown #
vertex $-1 $247 $323 #
straight-curve $-1 12.608634117154708 -40.423412496590238 9.5294109894707262 0 -1 0 I I #
edge $-1 $299 0.57599636620757977 $244 23.489279135686676 $243 $324 forward 7 unknown #
vertex $-1 $298 $325 #
straight-curve $-1 12.608634117154708 -21.517431684663023 3.3658339494964338 0 0.77714595512881146 0.62932039886446345 I I #
point $-1 12.608634117154708 -13.906048080407007 9.5294109894707262 #
point $-1 35.521916886633804 -21.517431684663013 3.3658339494964422 #
straight-curve $-1 0 -21.517431684663013 9.5294109894707262 1 0 0 I I #
vertex $-1 $250 $326 #
point $-1 19.191290671050531 -12.9849707744527 0.61054885832748951 #
vertex $-1 $254 $327 #
point $-1 26.065275501894256 -12.9849707744527 0.61054885832748951 #
vertex $-1 $258 $328 #
point $-1 32.93926033273798 -12.9849707744527 0.61054885832748951 #
straight-curve $-1 -47.137668996246227 21.517431684663013 0 0 0 -1 I I #
point $-1 -47.137668996246227 -21.517431684663013 -9.5294109894707262 #
straight-curve $-1 -47.137668996246227 0 -9.5294109894707262 0 1 0 I I #
point $-1 -47.137668996246227 21.517431684663013 -9.5294109894707262 #
coedge $-1 $280 $279 $285 $317 reversed $140 $-1 #
vertex $-1 $292 $329 #
straight-curve $-1 0 -21.517431684663013 9.5294109894707262 1 0 0 I I #
edge $-1 $315 -9.5294109894707262 $318 9.5294109894707262 $314 $330 forward 7 unknown #
vertex $-1 $290 $331 #
straight-curve $-1 0 -21.517431684663013 -9.5294109894707262 -1 0 0 I I #
straight-curve $-1 -47.137668996246227 0 -9.5294109894707262 0 1 0 I I #
straight-curve $-1 -47.137668996246227 0 9.5294109894707262 0 -1 0 I I #
straight-curve $-1 12.608634117154708 -21.517431684663013 38.315765769381755 0 0 -1 I I #
point $-1 12.608634117154708 -21.517431684663013 9.5294109894707262 #
straight-curve $-1 12.032637750947128 -21.517431684663013 3.3658339494964418 1 0 0 I I #
point $-1 12.608634117154708 -21.517431684663013 3.3658339494964422 #
point $-1 17.191290671050531 -11.726329976723774 -0.94374305193013341 #
point $-1 24.065275501894256 -11.726329976723774 -0.94374305193013341 #
point $-1 30.93926033273798 -11.726329976723774 -0.94374305193013341 #
point $-1 -47.137668996246227 -21.517431684663013 9.5294109894707262 #
straight-curve $-1 -47.137668996246227 -21.517431684663013 0 0 0 -1 I I #
point $-1 -47.137668996246227 -21.517431684663013 -9.5294109894707262 #
End-of-ACIS-data 