500 0 16 0           
7 Unknown 11 ACIS 5.0 NT 24 Fri Mar 26 20:07:56 1999 
-1 9.9999999999999995e-007 1e-010 
body $-1 $16 $-1 $17 #
body $-1 $18 $-1 $19 #
body $-1 $20 $-1 $21 #
body $-1 $22 $-1 $23 #
body $-1 $24 $-1 $25 #
body $-1 $26 $-1 $27 #
body $-1 $28 $-1 $29 #
body $-1 $30 $-1 $31 #
body $-1 $32 $-1 $33 #
body $-1 $34 $-1 $35 #
body $-1 $36 $-1 $37 #
body $-1 $38 $-1 $39 #
body $-1 $40 $-1 $41 #
body $-1 $42 $-1 $43 #
body $-1 $44 $-1 $45 #
body $-1 $46 $-1 $47 #
lump $-1 $-1 $48 $0 #
transform $-1 1 0 0 0 1 0 0 0 1 57.854548783837402 34.918425700653621 16.897184659936332 1 rotate no_reflect no_shear #
lump $-1 $-1 $49 $1 #
transform $-1 1 0 0 0 1 0 0 0 1 57.854548783837402 34.918425700653621 16.897184659936332 1 rotate no_reflect no_shear #
lump $-1 $-1 $50 $2 #
transform $-1 1 0 0 0 1 0 0 0 1 57.854548783837402 34.918425700653621 16.897184659936332 1 rotate no_reflect no_shear #
lump $-1 $-1 $51 $3 #
transform $-1 1 0 0 0 1 0 0 0 1 57.854548783837402 34.918425700653621 16.897184659936332 1 rotate no_reflect no_shear #
lump $-1 $-1 $52 $4 #
transform $-1 1 0 0 0 1 0 0 0 1 57.854548783837402 34.918425700653621 16.897184659936332 1 rotate no_reflect no_shear #
lump $-1 $-1 $53 $5 #
transform $-1 1 0 0 0 1 0 0 0 1 57.854548783837402 34.918425700653621 16.897184659936332 1 rotate no_reflect no_shear #
lump $-1 $-1 $54 $6 #
transform $-1 1 0 0 0 1 0 0 0 1 57.854548783837402 34.918425700653621 16.897184659936332 1 rotate no_reflect no_shear #
lump $-1 $-1 $55 $7 #
transform $-1 1 0 0 0 1 0 0 0 1 57.854548783837402 34.918425700653621 16.897184659936332 1 rotate no_reflect no_shear #
lump $-1 $-1 $56 $8 #
transform $-1 1 0 0 0 1 0 0 0 1 57.854548783837402 34.918425700653621 16.897184659936332 1 rotate no_reflect no_shear #
lump $-1 $-1 $57 $9 #
transform $-1 1 0 0 0 1 0 0 0 1 57.854548783837402 34.918425700653621 16.897184659936332 1 rotate no_reflect no_shear #
lump $-1 $-1 $58 $10 #
transform $-1 1 0 0 0 1 0 0 0 1 57.854548783837402 34.918425700653621 16.897184659936332 1 rotate no_reflect no_shear #
lump $-1 $-1 $59 $11 #
transform $-1 1 0 0 0 1 0 0 0 1 57.854548783837402 34.918425700653621 16.897184659936332 1 rotate no_reflect no_shear #
lump $-1 $-1 $60 $12 #
transform $-1 1 0 0 0 1 0 0 0 1 57.854548783837402 34.918425700653621 16.897184659936332 1 rotate no_reflect no_shear #
lump $-1 $-1 $61 $13 #
transform $-1 1 0 0 0 1 0 0 0 1 57.854548783837402 34.918425700653621 16.897184659936332 1 rotate no_reflect no_shear #
lump $-1 $-1 $62 $14 #
transform $-1 1 0 0 0 1 0 0 0 1 57.854548783837402 34.918425700653621 16.897184659936332 1 rotate no_reflect no_shear #
lump $-1 $-1 $63 $15 #
transform $-1 1 0 0 0 1 0 0 0 1 57.854548783837402 34.918425700653621 16.897184659936332 1 rotate no_reflect no_shear #
shell $-1 $-1 $-1 $64 $-1 $16 #
shell $-1 $-1 $-1 $65 $-1 $18 #
shell $-1 $-1 $-1 $66 $-1 $20 #
shell $-1 $-1 $-1 $67 $-1 $22 #
shell $-1 $-1 $-1 $68 $-1 $24 #
shell $-1 $-1 $-1 $69 $-1 $26 #
shell $-1 $-1 $-1 $70 $-1 $28 #
shell $-1 $-1 $-1 $71 $-1 $30 #
shell $-1 $-1 $-1 $72 $-1 $32 #
shell $-1 $-1 $-1 $73 $-1 $34 #
shell $-1 $-1 $-1 $74 $-1 $36 #
shell $-1 $-1 $-1 $75 $-1 $38 #
shell $-1 $-1 $-1 $76 $-1 $40 #
shell $-1 $-1 $-1 $77 $-1 $42 #
shell $-1 $-1 $-1 $78 $-1 $44 #
shell $-1 $-1 $-1 $79 $-1 $46 #
face $-1 $80 $81 $48 $-1 $82 forward single #
face $-1 $83 $84 $49 $-1 $85 reversed single #
face $-1 $86 $87 $50 $-1 $88 forward single #
face $-1 $89 $90 $51 $-1 $91 forward single #
face $-1 $92 $93 $52 $-1 $94 reversed single #
face $-1 $95 $96 $53 $-1 $97 forward single #
face $-1 $98 $99 $54 $-1 $100 forward single #
face $-1 $101 $102 $55 $-1 $103 reversed single #
face $-1 $104 $105 $56 $-1 $106 forward single #
face $-1 $107 $108 $57 $-1 $109 forward single #
face $-1 $110 $111 $58 $-1 $112 reversed single #
face $-1 $113 $114 $59 $-1 $115 forward single #
face $-1 $116 $117 $60 $-1 $118 forward single #
face $-1 $119 $120 $61 $-1 $121 reversed single #
face $-1 $122 $123 $62 $-1 $124 forward single #
face $-1 $125 $126 $63 $-1 $127 forward single #
face $-1 $128 $129 $48 $-1 $130 reversed single #
loop $-1 $-1 $131 $64 #
plane-surface $-1 0 0 16.897184659936332 0 0 1 1 0 0 forward_v I I I I #
face $-1 $132 $133 $49 $-1 $134 reversed single #
loop $-1 $-1 $135 $65 #
plane-surface $-1 40.74978707105015 -8.6528421994536711 169.42807409031889 0 -1 0 -0.62932039886446345 0 -0.77714595512881146 forward_v I I I I #
face $-1 $136 $137 $50 $-1 $138 forward single #
loop $-1 $139 $140 $66 #
cone-surface $-1 51.058237032416258 -13.913388306757128 11.184431921183888 -0.62932039886446345 0 -0.77714595512881146 0.77714595512881146 0 -0.62932039886446345 1 I I 0 1 1 forward I I I I #
face $-1 $141 $142 $51 $-1 $143 forward single #
loop $-1 $144 $145 $67 #
cone-surface $-1 51.058237032416258 -10.757060642375055 11.184431921183888 -0.62932039886446345 0 -0.77714595512881146 0.77714595512881146 0 -0.62932039886446345 1 I I 0 1 1 forward I I I I #
face $-1 $146 $147 $52 $-1 $148 reversed single #
loop $-1 $-1 $149 $68 #
plane-surface $-1 -119.17102944160355 -29.814053162407827 105.25763184917356 0 1 0 -0.52991927123019833 0 0.84804809178421925 forward_v I I I I #
face $-1 $150 $151 $53 $-1 $152 forward single #
loop $-1 $153 $154 $69 #
cone-surface $-1 -49.774809950014941 -27.39511537445307 11.589944511492506 0.52991927123019833 0 -0.84804809178421925 0.42402404589210962 0 0.26495963561509916 1 I I 0 1 0.5 forward I I I I #
face $-1 $155 $156 $54 $-1 $157 forward single #
loop $-1 $158 $159 $70 #
cone-surface $-1 -49.774809950014941 -23.766708692520925 11.589944511492506 0.52991927123019833 0 -0.84804809178421925 0.42402404589210962 0 0.26495963561509916 1 I I 0 1 0.5 forward I I I I #
face $-1 $160 $161 $55 $-1 $162 reversed single #
loop $-1 $-1 $163 $71 #
plane-surface $-1 -119.17102944160355 -12.354840312081016 105.25763184917356 0 1 0 -0.52991927123019833 0 0.84804809178421925 forward_v I I I I #
face $-1 $164 $165 $56 $-1 $166 forward single #
loop $-1 $167 $168 $72 #
cone-surface $-1 -49.774809950014941 -9.9359025241262557 11.589944511492506 0.52991927123019833 0 -0.84804809178421925 0.42402404589210962 0 0.26495963561509916 1 I I 0 1 0.5 forward I I I I #
face $-1 $169 $170 $57 $-1 $171 forward single #
loop $-1 $172 $173 $73 #
cone-surface $-1 -49.774809950014941 -6.3074958421941147 11.589944511492506 0.52991927123019833 0 -0.84804809178421925 0.42402404589210962 0 0.26495963561509916 1 I I 0 1 0.5 forward I I I I #
face $-1 $174 $175 $58 $-1 $176 reversed single #
loop $-1 $-1 $177 $74 #
plane-surface $-1 -119.17102944160355 5.1043725382457934 105.25763184917356 0 1 0 -0.52991927123019833 0 0.84804809178421925 forward_v I I I I #
face $-1 $178 $179 $59 $-1 $180 forward single #
loop $-1 $181 $182 $75 #
cone-surface $-1 -49.774809950014941 7.5233103262005514 11.589944511492506 0.52991927123019833 0 -0.84804809178421925 0.42402404589210962 0 0.26495963561509916 1 I I 0 1 0.5 forward I I I I #
face $-1 $183 $184 $60 $-1 $185 forward single #
loop $-1 $186 $187 $76 #
cone-surface $-1 -49.774809950014941 11.1517170081327 11.589944511492506 0.52991927123019833 0 -0.84804809178421925 0.42402404589210962 0 0.26495963561509916 1 I I 0 1 0.5 forward I I I I #
face $-1 $188 $189 $61 $-1 $190 reversed single #
loop $-1 $-1 $191 $77 #
plane-surface $-1 -119.17102944160355 22.563585388572601 105.25763184917356 0 1 0 -0.52991927123019833 0 0.84804809178421925 forward_v I I I I #
face $-1 $192 $193 $62 $-1 $194 forward single #
loop $-1 $195 $196 $78 #
cone-surface $-1 -49.774809950014941 24.982523176527359 11.589944511492506 0.52991927123019833 0 -0.84804809178421925 0.42402404589210962 0 0.26495963561509916 1 I I 0 1 0.5 forward I I I I #
face $-1 $197 $198 $63 $-1 $199 forward single #
loop $-1 $200 $201 $79 #
cone-surface $-1 -49.774809950014941 28.610929858459507 11.589944511492506 0.52991927123019833 0 -0.84804809178421925 0.42402404589210962 0 0.26495963561509916 1 I I 0 1 0.5 forward I I I I #
face $-1 $202 $203 $48 $-1 $204 reversed single #
loop $-1 $-1 $205 $80 #
plane-surface $-1 0 0 -16.897184659936332 0 0 1 1 0 0 forward_v I I I I #
coedge $-1 $206 $207 $208 $209 forward $81 $-1 #
face $-1 $210 $211 $49 $-1 $212 reversed single #
loop $-1 $-1 $213 $83 #
plane-surface $-1 -32.068308362486079 -12.33522447456609 79.505216943995421 0.62932039886446345 0 0.77714595512881146 0.77714595512881146 0 -0.62932039886446345 forward_v I I I I #
coedge $-1 $214 $215 $216 $217 reversed $84 $-1 #
face $-1 $-1 $218 $50 $-1 $219 forward single #
loop $-1 $220 $221 $86 #
cone-surface $-1 50.251453927612658 -13.913388306757128 10.188137779605594 -0.62932039886446345 0 -0.77714595512881146 0.38857297756440573 0 -0.31466019943223172 1 I I -0.70710678118654746 0.70710678118654746 0.5 forward I I I I #
loop $-1 $-1 $222 $66 #
coedge $-1 $140 $140 $223 $224 reversed $87 $-1 #
face $-1 $-1 $225 $51 $-1 $226 forward single #
loop $-1 $227 $228 $89 #
cone-surface $-1 50.251453927612658 -10.757060642375055 10.188137779605594 -0.62932039886446345 0 -0.77714595512881146 0.38857297756440573 0 -0.31466019943223172 1 I I -0.70710678118654746 0.70710678118654746 0.5 forward I I I I #
loop $-1 $-1 $229 $67 #
coedge $-1 $145 $145 $230 $231 reversed $90 $-1 #
face $-1 $232 $233 $52 $-1 $234 reversed single #
loop $-1 $-1 $235 $92 #
plane-surface $-1 -57.854548783837409 -25.580912033486996 7.1307524548329013 -0.52991927123019833 0 0.84804809178421925 0.84804809178421925 0 0.52991927123019833 forward_v I I I I #
coedge $-1 $236 $237 $238 $239 reversed $93 $-1 #
face $-1 $-1 $240 $53 $-1 $241 forward single #
loop $-1 $242 $243 $95 #
cone-surface $-1 -49.377370496592292 -27.39511537445307 10.953908442654342 0.52991927123019833 0 -0.84804809178421925 0.21201202294605481 0 0.13247981780754958 1 I I -0.70710678118654746 0.70710678118654746 0.25 forward I I I I #
loop $-1 $-1 $244 $69 #
coedge $-1 $154 $154 $245 $246 reversed $96 $-1 #
face $-1 $-1 $247 $54 $-1 $248 forward single #
loop $-1 $249 $250 $98 #
cone-surface $-1 -49.377370496592292 -23.766708692520925 10.953908442654342 0.52991927123019833 0 -0.84804809178421925 0.21201202294605481 0 0.13247981780754958 1 I I -0.70710678118654746 0.70710678118654746 0.25 forward I I I I #
loop $-1 $-1 $251 $70 #
coedge $-1 $159 $159 $252 $253 reversed $99 $-1 #
face $-1 $254 $255 $55 $-1 $256 reversed single #
loop $-1 $-1 $257 $101 #
plane-surface $-1 -57.854548783837409 -8.1216991831601852 7.1307524548329013 -0.52991927123019833 0 0.84804809178421925 0.84804809178421925 0 0.52991927123019833 forward_v I I I I #
coedge $-1 $258 $259 $260 $261 reversed $102 $-1 #
face $-1 $-1 $262 $56 $-1 $263 forward single #
loop $-1 $264 $265 $104 #
cone-surface $-1 -49.377370496592292 -9.9359025241262557 10.953908442654342 0.52991927123019833 0 -0.84804809178421925 0.21201202294605481 0 0.13247981780754958 1 I I -0.70710678118654746 0.70710678118654746 0.25 forward I I I I #
loop $-1 $-1 $266 $72 #
coedge $-1 $168 $168 $267 $268 reversed $105 $-1 #
face $-1 $-1 $269 $57 $-1 $270 forward single #
loop $-1 $271 $272 $107 #
cone-surface $-1 -49.377370496592292 -6.3074958421941147 10.953908442654342 0.52991927123019833 0 -0.84804809178421925 0.21201202294605481 0 0.13247981780754958 1 I I -0.70710678118654746 0.70710678118654746 0.25 forward I I I I #
loop $-1 $-1 $273 $73 #
coedge $-1 $173 $173 $274 $275 reversed $108 $-1 #
face $-1 $276 $277 $58 $-1 $278 reversed single #
loop $-1 $-1 $279 $110 #
plane-surface $-1 -57.854548783837409 9.3375136671666255 7.1307524548329013 -0.52991927123019833 0 0.84804809178421925 0.84804809178421925 0 0.52991927123019833 forward_v I I I I #
coedge $-1 $280 $281 $282 $283 reversed $111 $-1 #
face $-1 $-1 $284 $59 $-1 $285 forward single #
loop $-1 $286 $287 $113 #
cone-surface $-1 -49.377370496592292 7.5233103262005514 10.953908442654342 0.52991927123019833 0 -0.84804809178421925 0.21201202294605481 0 0.13247981780754958 1 I I -0.70710678118654746 0.70710678118654746 0.25 forward I I I I #
loop $-1 $-1 $288 $75 #
coedge $-1 $182 $182 $289 $290 reversed $114 $-1 #
face $-1 $-1 $291 $60 $-1 $292 forward single #
loop $-1 $293 $294 $116 #
cone-surface $-1 -49.377370496592292 11.1517170081327 10.953908442654342 0.52991927123019833 0 -0.84804809178421925 0.21201202294605481 0 0.13247981780754958 1 I I -0.70710678118654746 0.70710678118654746 0.25 forward I I I I #
loop $-1 $-1 $295 $76 #
coedge $-1 $187 $187 $296 $297 reversed $117 $-1 #
face $-1 $298 $299 $61 $-1 $300 reversed single #
loop $-1 $-1 $301 $119 #
plane-surface $-1 -57.854548783837409 26.796726517493433 7.1307524548329013 -0.52991927123019833 0 0.84804809178421925 0.84804809178421925 0 0.52991927123019833 forward_v I I I I #
coedge $-1 $302 $303 $304 $305 reversed $120 $-1 #
face $-1 $-1 $306 $62 $-1 $307 forward single #
loop $-1 $308 $309 $122 #
cone-surface $-1 -49.377370496592292 24.982523176527359 10.953908442654342 0.52991927123019833 0 -0.84804809178421925 0.21201202294605481 0 0.13247981780754958 1 I I -0.70710678118654746 0.70710678118654746 0.25 forward I I I I #
loop $-1 $-1 $310 $78 #
coedge $-1 $196 $196 $311 $312 reversed $123 $-1 #
face $-1 $-1 $313 $63 $-1 $314 forward single #
loop $-1 $315 $316 $125 #
cone-surface $-1 -49.377370496592292 28.610929858459507 10.953908442654342 0.52991927123019833 0 -0.84804809178421925 0.21201202294605481 0 0.13247981780754958 1 I I -0.70710678118654746 0.70710678118654746 0.25 forward I I I I #
loop $-1 $-1 $317 $79 #
coedge $-1 $201 $201 $318 $319 reversed $126 $-1 #
face $-1 $320 $321 $48 $-1 $322 reversed single #
loop $-1 $-1 $323 $128 #
plane-surface $-1 0 -34.918425700653621 0 0 1 0 0 0 1 forward_v I I I I #
coedge $-1 $324 $325 $326 $327 forward $129 $-1 #
coedge $-1 $328 $131 $329 $330 forward $81 $-1 #
coedge $-1 $131 $328 $331 $332 forward $81 $-1 #
coedge $-1 $333 $334 $131 $209 reversed $335 $-1 #
edge $-1 $336 -34.918425700653621 $337 34.918425700653621 $208 $338 forward 7 unknown #
face $-1 $339 $340 $49 $-1 $341 forward single #
loop $-1 $-1 $342 $132 #
plane-surface $-1 40.74978707105015 -16.017606749678507 169.42807409031889 0 1 0 0.62932039886446345 0 0.77714595512881146 forward_v I I I I #
coedge $-1 $343 $344 $345 $346 reversed $133 $-1 #
coedge $-1 $215 $135 $347 $348 reversed $84 $-1 #
coedge $-1 $135 $214 $343 $349 reversed $84 $-1 #
coedge $-1 $345 $350 $135 $217 forward $340 $-1 #
edge $-1 $351 -37.479655248312326 $352 -24.871277556212775 $216 $353 forward 7 unknown #
loop $-1 $-1 $223 $136 #
plane-surface $-1 -32.068308362486079 -12.33522447456609 79.505216943995421 0.62932039886446345 0 0.77714595512881146 0.77714595512881146 0 -0.62932039886446345 forward_v I I I I #
loop $-1 $-1 $354 $86 #
coedge $-1 $221 $221 $222 $355 reversed $137 $-1 #
coedge $-1 $222 $222 $221 $355 forward $139 $-1 #
coedge $-1 $223 $223 $140 $224 forward $218 $-1 #
edge $-1 $356 0 $356 6.2831853071796004 $223 $357 forward 7 unknown #
loop $-1 $-1 $230 $141 #
plane-surface $-1 -32.068308362486079 -12.33522447456609 79.505216943995421 0.62932039886446345 0 0.77714595512881146 0.77714595512881146 0 -0.62932039886446345 forward_v I I I I #
loop $-1 $-1 $358 $89 #
coedge $-1 $228 $228 $229 $359 reversed $142 $-1 #
coedge $-1 $229 $229 $228 $359 forward $144 $-1 #
coedge $-1 $230 $230 $145 $231 forward $225 $-1 #
edge $-1 $360 0 $360 6.2831853071796004 $230 $361 forward 7 unknown #
face $-1 $362 $363 $52 $-1 $364 reversed single #
loop $-1 $-1 $365 $146 #
plane-surface $-1 -119.17102944160355 -21.347770904566165 105.25763184917356 0 -1 0 0.52991927123019833 0 -0.84804809178421925 forward_v I I I I #
coedge $-1 $366 $367 $368 $369 reversed $147 $-1 #
coedge $-1 $237 $149 $370 $371 reversed $93 $-1 #
coedge $-1 $149 $236 $366 $372 reversed $93 $-1 #
coedge $-1 $368 $373 $149 $239 forward $374 $-1 #
edge $-1 $375 1.730965936964374 $376 17.360524333379075 $238 $377 forward 7 unknown #
loop $-1 $-1 $245 $150 #
plane-surface $-1 -57.854548783837409 -25.580912033486996 7.1307524548329013 -0.52991927123019833 0 0.84804809178421925 0.84804809178421925 0 0.52991927123019833 forward_v I I I I #
loop $-1 $-1 $378 $95 #
coedge $-1 $243 $243 $244 $379 reversed $151 $-1 #
coedge $-1 $244 $244 $243 $379 forward $153 $-1 #
coedge $-1 $245 $245 $154 $246 forward $240 $-1 #
edge $-1 $380 0 $380 6.2831853071796004 $245 $381 forward 7 unknown #
loop $-1 $-1 $252 $155 #
plane-surface $-1 -57.854548783837409 -25.580912033486996 7.1307524548329013 -0.52991927123019833 0 0.84804809178421925 0.84804809178421925 0 0.52991927123019833 forward_v I I I I #
loop $-1 $-1 $382 $98 #
coedge $-1 $250 $250 $251 $383 reversed $156 $-1 #
coedge $-1 $251 $251 $250 $383 forward $158 $-1 #
coedge $-1 $252 $252 $159 $253 forward $247 $-1 #
edge $-1 $384 0 $384 6.2831853071796004 $252 $385 forward 7 unknown #
face $-1 $386 $387 $55 $-1 $388 forward single #
loop $-1 $-1 $389 $160 #
plane-surface $-1 -119.17102944160355 -3.8885580542393532 105.25763184917356 0 -1 0 0.52991927123019833 0 -0.84804809178421925 forward_v I I I I #
coedge $-1 $390 $391 $392 $393 reversed $161 $-1 #
coedge $-1 $259 $163 $394 $395 reversed $102 $-1 #
coedge $-1 $163 $258 $390 $396 reversed $102 $-1 #
coedge $-1 $392 $397 $163 $261 forward $387 $-1 #
edge $-1 $398 1.730965936964374 $399 17.360524333379075 $260 $400 forward 7 unknown #
loop $-1 $-1 $267 $164 #
plane-surface $-1 -57.854548783837409 -8.1216991831601852 7.1307524548329013 -0.52991927123019833 0 0.84804809178421925 0.84804809178421925 0 0.52991927123019833 forward_v I I I I #
loop $-1 $-1 $401 $104 #
coedge $-1 $265 $265 $266 $402 reversed $165 $-1 #
coedge $-1 $266 $266 $265 $402 forward $167 $-1 #
coedge $-1 $267 $267 $168 $268 forward $262 $-1 #
edge $-1 $403 0 $403 6.2831853071796004 $267 $404 forward 7 unknown #
loop $-1 $-1 $274 $169 #
plane-surface $-1 -57.854548783837409 -8.1216991831601852 7.1307524548329013 -0.52991927123019833 0 0.84804809178421925 0.84804809178421925 0 0.52991927123019833 forward_v I I I I #
loop $-1 $-1 $405 $107 #
coedge $-1 $272 $272 $273 $406 reversed $170 $-1 #
coedge $-1 $273 $273 $272 $406 forward $172 $-1 #
coedge $-1 $274 $274 $173 $275 forward $269 $-1 #
edge $-1 $407 0 $407 6.2831853071796004 $274 $408 forward 7 unknown #
face $-1 $409 $410 $58 $-1 $411 forward single #
loop $-1 $-1 $412 $174 #
plane-surface $-1 -119.17102944160355 13.570654796087457 105.25763184917356 0 -1 0 0.52991927123019833 0 -0.84804809178421925 forward_v I I I I #
coedge $-1 $413 $414 $415 $416 reversed $175 $-1 #
coedge $-1 $281 $177 $417 $418 reversed $111 $-1 #
coedge $-1 $177 $280 $413 $419 reversed $111 $-1 #
coedge $-1 $415 $420 $177 $283 forward $410 $-1 #
edge $-1 $421 1.730965936964374 $422 17.360524333379075 $282 $423 forward 7 unknown #
loop $-1 $-1 $289 $178 #
plane-surface $-1 -57.854548783837409 9.3375136671666255 7.1307524548329013 -0.52991927123019833 0 0.84804809178421925 0.84804809178421925 0 0.52991927123019833 forward_v I I I I #
loop $-1 $-1 $424 $113 #
coedge $-1 $287 $287 $288 $425 reversed $179 $-1 #
coedge $-1 $288 $288 $287 $425 forward $181 $-1 #
coedge $-1 $289 $289 $182 $290 forward $284 $-1 #
edge $-1 $426 0 $426 6.2831853071796004 $289 $427 forward 7 unknown #
loop $-1 $-1 $296 $183 #
plane-surface $-1 -57.854548783837409 9.3375136671666255 7.1307524548329013 -0.52991927123019833 0 0.84804809178421925 0.84804809178421925 0 0.52991927123019833 forward_v I I I I #
loop $-1 $-1 $428 $116 #
coedge $-1 $294 $294 $295 $429 reversed $184 $-1 #
coedge $-1 $295 $295 $294 $429 forward $186 $-1 #
coedge $-1 $296 $296 $187 $297 forward $291 $-1 #
edge $-1 $430 0 $430 6.2831853071796004 $296 $431 forward 7 unknown #
face $-1 $432 $433 $61 $-1 $434 forward single #
loop $-1 $-1 $435 $188 #
plane-surface $-1 -119.17102944160355 31.029867646414264 105.25763184917356 0 -1 0 0.52991927123019833 0 -0.84804809178421925 forward_v I I I I #
coedge $-1 $436 $437 $438 $439 reversed $189 $-1 #
coedge $-1 $303 $191 $440 $441 reversed $120 $-1 #
coedge $-1 $191 $302 $436 $442 reversed $120 $-1 #
coedge $-1 $438 $443 $191 $305 forward $433 $-1 #
edge $-1 $444 1.730965936964374 $445 17.360524333379075 $304 $446 forward 7 unknown #
loop $-1 $-1 $311 $192 #
plane-surface $-1 -57.854548783837409 26.796726517493433 7.1307524548329013 -0.52991927123019833 0 0.84804809178421925 0.84804809178421925 0 0.52991927123019833 forward_v I I I I #
loop $-1 $-1 $447 $122 #
coedge $-1 $309 $309 $310 $448 reversed $193 $-1 #
coedge $-1 $310 $310 $309 $448 forward $195 $-1 #
coedge $-1 $311 $311 $196 $312 forward $306 $-1 #
edge $-1 $449 0 $449 6.2831853071796004 $311 $450 forward 7 unknown #
loop $-1 $-1 $318 $197 #
plane-surface $-1 -57.854548783837409 26.796726517493433 7.1307524548329013 -0.52991927123019833 0 0.84804809178421925 0.84804809178421925 0 0.52991927123019833 forward_v I I I I #
loop $-1 $-1 $451 $125 #
coedge $-1 $316 $316 $317 $452 reversed $198 $-1 #
coedge $-1 $317 $317 $316 $452 forward $200 $-1 #
coedge $-1 $318 $318 $201 $319 forward $313 $-1 #
edge $-1 $453 0 $453 6.2831853071796004 $318 $454 forward 7 unknown #
face $-1 $455 $456 $48 $-1 $457 reversed single #
loop $-1 $-1 $458 $202 #
plane-surface $-1 -57.854548783837402 0 0 1 0 0 0 0 -1 forward_v I I I I #
coedge $-1 $459 $331 $460 $461 forward $203 $-1 #
coedge $-1 $462 $205 $459 $463 forward $129 $-1 #
coedge $-1 $205 $462 $464 $465 forward $129 $-1 #
coedge $-1 $334 $333 $205 $327 reversed $335 $-1 #
edge $-1 $466 -34.918425700653621 $467 34.918425700653621 $326 $468 forward 7 unknown #
coedge $-1 $207 $206 $469 $470 forward $81 $-1 #
coedge $-1 $471 $472 $206 $330 reversed $456 $-1 #
edge $-1 $337 -57.854548783837402 $473 57.854548783837402 $329 $474 forward 7 unknown #
coedge $-1 $323 $475 $207 $332 reversed $203 $-1 #
edge $-1 $476 -57.854548783837402 $336 57.854548783837402 $331 $477 forward 7 unknown #
coedge $-1 $326 $208 $475 $478 forward $335 $-1 #
coedge $-1 $208 $326 $471 $479 reversed $335 $-1 #
loop $-1 $-1 $333 $455 #
vertex $-1 $209 $480 #
vertex $-1 $209 $481 #
straight-curve $-1 57.854548783837402 0 16.897184659936332 0 1 0 I I #
face $-1 $-1 $482 $49 $-1 $483 reversed single #
loop $-1 $-1 $216 $210 #
plane-surface $-1 0 0 16.897184659936332 0 0 1 1 0 0 forward_v I I I I #
coedge $-1 $484 $485 $486 $487 reversed $211 $-1 #
coedge $-1 $488 $213 $215 $349 forward $133 $-1 #
coedge $-1 $213 $488 $484 $489 forward $133 $-1 #
coedge $-1 $486 $216 $213 $346 forward $340 $-1 #
edge $-1 $352 2.4852299621706262 $490 9.8499945123954618 $345 $491 forward 7 unknown #
coedge $-1 $492 $493 $214 $348 forward $482 $-1 #
edge $-1 $494 -78.026915534700251 $351 -67.816852385223115 $347 $495 forward 7 unknown #
edge $-1 $352 99.485146829862998 $494 115.70909756767482 $215 $496 forward 7 unknown #
coedge $-1 $216 $486 $492 $497 forward $340 $-1 #
vertex $-1 $348 $498 #
vertex $-1 $217 $499 #
straight-curve $-1 20.374893535525075 -8.6528421994536711 16.897184659936329 -1 0 0 I I #
coedge $-1 $354 $354 $-1 $500 reversed $220 $-1 #
edge $-1 $501 0 $501 6.2831853071796004 $221 $502 forward 7 unknown #
vertex $-1 $224 $503 #
ellipse-curve $-1 51.550359937787618 -13.913388306757128 11.792153085197771 0.62932039886446345 0 0.77714595512881146 0.77714595512881146 0 -0.62932039886446345 1 I I #
coedge $-1 $358 $358 $-1 $504 reversed $227 $-1 #
edge $-1 $505 0 $505 6.2831853071796004 $228 $506 forward 7 unknown #
vertex $-1 $231 $507 #
ellipse-curve $-1 51.550359937787618 -10.757060642375055 11.792153085197771 0.62932039886446345 0 0.77714595512881146 0.77714595512881146 0 -0.62932039886446345 1 I I #
face $-1 $-1 $374 $52 $-1 $508 forward single #
loop $-1 $-1 $509 $232 #
plane-surface $-1 -57.854548783837402 0 0 1 0 0 0 0 -1 forward_v I I I I #
coedge $-1 $510 $511 $512 $513 reversed $233 $-1 #
coedge $-1 $514 $235 $237 $372 forward $147 $-1 #
coedge $-1 $235 $514 $510 $515 forward $147 $-1 #
coedge $-1 $512 $238 $235 $369 forward $374 $-1 #
edge $-1 $376 -17.023597145664329 $516 -8.5573148878226668 $368 $517 forward 7 unknown #
coedge $-1 $518 $519 $236 $371 forward $363 $-1 #
edge $-1 $520 -45.498063469753873 $375 -35.731631264650446 $370 $521 forward 7 unknown #
edge $-1 $376 -18.430037810157064 $520 -8.3790584163743152e-015 $237 $522 forward 7 unknown #
coedge $-1 $238 $512 $518 $523 forward $374 $-1 #
loop $-1 $-1 $512 $362 #
vertex $-1 $371 $524 #
vertex $-1 $239 $525 #
straight-curve $-1 -59.585514720801775 -29.814053162407827 16.897184659936336 1 0 0 I I #
coedge $-1 $378 $378 $-1 $526 reversed $242 $-1 #
edge $-1 $527 0 $527 6.2831853071796004 $243 $528 forward 7 unknown #
vertex $-1 $246 $529 #
ellipse-curve $-1 -50.039769585630047 -27.39511537445307 12.013968557384622 -0.52991927123019833 0 0.84804809178421925 0.42402404589210962 0 0.26495963561509916 1 I I #
coedge $-1 $382 $382 $-1 $530 reversed $249 $-1 #
edge $-1 $531 0 $531 6.2831853071796004 $250 $532 forward 7 unknown #
vertex $-1 $253 $533 #
ellipse-curve $-1 -50.039769585630047 -23.766708692520925 12.013968557384622 -0.52991927123019833 0 0.84804809178421925 0.42402404589210962 0 0.26495963561509916 1 I I #
face $-1 $-1 $534 $55 $-1 $535 reversed single #
loop $-1 $-1 $260 $254 #
plane-surface $-1 0 0 16.897184659936332 0 0 1 1 0 0 forward_v I I I I #
coedge $-1 $536 $537 $538 $539 reversed $255 $-1 #
coedge $-1 $540 $257 $259 $396 forward $161 $-1 #
coedge $-1 $257 $540 $536 $541 forward $161 $-1 #
coedge $-1 $538 $260 $257 $393 forward $387 $-1 #
edge $-1 $399 -8.2939907205009238 $542 0.17229153734073943 $392 $543 forward 7 unknown #
coedge $-1 $544 $545 $258 $395 forward $534 $-1 #
edge $-1 $546 -45.498063469753873 $398 -35.731631264650446 $394 $547 forward 7 unknown #
edge $-1 $399 -18.430037810157064 $546 -8.3790584163743152e-015 $259 $548 forward 7 unknown #
coedge $-1 $260 $538 $544 $549 forward $387 $-1 #
vertex $-1 $261 $550 #
vertex $-1 $261 $551 #
straight-curve $-1 -59.585514720801775 -12.354840312081016 16.897184659936336 1 0 0 I I #
coedge $-1 $401 $401 $-1 $552 reversed $264 $-1 #
edge $-1 $553 0 $553 6.2831853071796004 $265 $554 forward 7 unknown #
vertex $-1 $268 $555 #
ellipse-curve $-1 -50.039769585630047 -9.9359025241262557 12.013968557384622 -0.52991927123019833 0 0.84804809178421925 0.42402404589210962 0 0.26495963561509916 1 I I #
coedge $-1 $405 $405 $-1 $556 reversed $271 $-1 #
edge $-1 $557 0 $557 6.2831853071796004 $272 $558 forward 7 unknown #
vertex $-1 $275 $559 #
ellipse-curve $-1 -50.039769585630047 -6.3074958421941147 12.013968557384622 -0.52991927123019833 0 0.84804809178421925 0.42402404589210962 0 0.26495963561509916 1 I I #
face $-1 $-1 $560 $58 $-1 $561 reversed single #
loop $-1 $-1 $282 $276 #
plane-surface $-1 0 0 16.897184659936332 0 0 1 1 0 0 forward_v I I I I #
coedge $-1 $562 $563 $564 $565 reversed $277 $-1 #
coedge $-1 $566 $279 $281 $419 forward $175 $-1 #
coedge $-1 $279 $566 $562 $567 forward $175 $-1 #
coedge $-1 $564 $282 $279 $416 forward $410 $-1 #
edge $-1 $422 0.43561570466248067 $568 8.9018979625041439 $415 $569 forward 7 unknown #
coedge $-1 $570 $571 $280 $418 forward $560 $-1 #
edge $-1 $572 -45.498063469753873 $421 -35.731631264650446 $417 $573 forward 7 unknown #
edge $-1 $422 -18.430037810157064 $572 -8.3790584163743152e-015 $281 $574 forward 7 unknown #
coedge $-1 $282 $564 $570 $575 forward $410 $-1 #
vertex $-1 $283 $576 #
vertex $-1 $283 $577 #
straight-curve $-1 -59.585514720801775 5.1043725382457934 16.897184659936336 1 0 0 I I #
coedge $-1 $424 $424 $-1 $578 reversed $286 $-1 #
edge $-1 $579 0 $579 6.2831853071796004 $287 $580 forward 7 unknown #
vertex $-1 $290 $581 #
ellipse-curve $-1 -50.039769585630047 7.5233103262005514 12.013968557384622 -0.52991927123019833 0 0.84804809178421925 0.42402404589210962 0 0.26495963561509916 1 I I #
coedge $-1 $428 $428 $-1 $582 reversed $293 $-1 #
edge $-1 $583 0 $583 6.2831853071796004 $294 $584 forward 7 unknown #
vertex $-1 $297 $585 #
ellipse-curve $-1 -50.039769585630047 11.1517170081327 12.013968557384622 -0.52991927123019833 0 0.84804809178421925 0.42402404589210962 0 0.26495963561509916 1 I I #
face $-1 $-1 $586 $61 $-1 $587 reversed single #
loop $-1 $-1 $304 $298 #
plane-surface $-1 0 0 16.897184659936332 0 0 1 1 0 0 forward_v I I I I #
coedge $-1 $588 $589 $590 $591 reversed $299 $-1 #
coedge $-1 $592 $301 $303 $442 forward $189 $-1 #
coedge $-1 $301 $592 $588 $593 forward $189 $-1 #
coedge $-1 $590 $304 $301 $439 forward $433 $-1 #
edge $-1 $445 9.1652221298258851 $594 17.631504387667547 $438 $595 forward 7 unknown #
coedge $-1 $596 $597 $302 $441 forward $586 $-1 #
edge $-1 $598 -45.498063469753873 $444 -35.731631264650446 $440 $599 forward 7 unknown #
edge $-1 $445 -18.430037810157064 $598 -8.3790584163743152e-015 $303 $600 forward 7 unknown #
coedge $-1 $304 $590 $596 $601 forward $433 $-1 #
vertex $-1 $305 $602 #
vertex $-1 $305 $603 #
straight-curve $-1 -59.585514720801775 22.563585388572601 16.897184659936336 1 0 0 I I #
coedge $-1 $447 $447 $-1 $604 reversed $308 $-1 #
edge $-1 $605 0 $605 6.2831853071796004 $309 $606 forward 7 unknown #
vertex $-1 $312 $607 #
ellipse-curve $-1 -50.039769585630047 24.982523176527359 12.013968557384622 -0.52991927123019833 0 0.84804809178421925 0.42402404589210962 0 0.26495963561509916 1 I I #
coedge $-1 $451 $451 $-1 $608 reversed $315 $-1 #
edge $-1 $609 0 $609 6.2831853071796004 $316 $610 forward 7 unknown #
vertex $-1 $319 $611 #
ellipse-curve $-1 -50.039769585630047 28.610929858459507 12.013968557384622 -0.52991927123019833 0 0.84804809178421925 0.42402404589210962 0 0.26495963561509916 1 I I #
face $-1 $-1 $335 $48 $-1 $612 reversed single #
loop $-1 $-1 $471 $320 #
plane-surface $-1 0 34.918425700653621 0 0 -1 0 0 0 -1 forward_v I I I I #
coedge $-1 $613 $469 $472 $614 forward $321 $-1 #
coedge $-1 $475 $323 $324 $463 reversed $203 $-1 #
coedge $-1 $469 $613 $323 $461 reversed $321 $-1 #
edge $-1 $476 -16.897184659936332 $615 16.897184659936332 $460 $616 forward 7 unknown #
coedge $-1 $325 $324 $613 $617 forward $129 $-1 #
edge $-1 $467 -57.854548783837402 $615 57.854548783837402 $459 $618 forward 7 unknown #
coedge $-1 $472 $471 $325 $465 reversed $456 $-1 #
edge $-1 $619 -57.854548783837402 $466 57.854548783837402 $464 $620 forward 7 unknown #
vertex $-1 $327 $621 #
vertex $-1 $478 $622 #
straight-curve $-1 57.854548783837402 0 -16.897184659936332 0 -1 0 I I #
coedge $-1 $458 $460 $328 $470 reversed $321 $-1 #
edge $-1 $473 -34.918425700653621 $476 34.918425700653621 $469 $623 forward 7 unknown #
coedge $-1 $464 $329 $334 $479 forward $456 $-1 #
coedge $-1 $329 $464 $458 $614 reversed $456 $-1 #
vertex $-1 $330 $624 #
straight-curve $-1 0 34.918425700653621 16.897184659936332 -1 0 0 I I #
coedge $-1 $331 $459 $333 $478 reversed $203 $-1 #
vertex $-1 $470 $625 #
straight-curve $-1 0 -34.918425700653621 16.897184659936332 1 0 0 I I #
edge $-1 $336 -16.897184659936332 $467 16.897184659936332 $333 $626 forward 7 unknown #
edge $-1 $337 -16.897184659936332 $466 16.897184659936332 $334 $627 forward 7 unknown #
point $-1 57.854548783837402 -34.918425700653621 16.897184659936332 #
point $-1 57.854548783837402 34.918425700653621 16.897184659936332 #
loop $-1 $-1 $347 $339 #
plane-surface $-1 57.854548783837402 0 0 -1 0 0 0 0 1 forward_v I I I I #
coedge $-1 $485 $342 $344 $489 reversed $211 $-1 #
coedge $-1 $342 $484 $628 $629 reversed $211 $-1 #
coedge $-1 $350 $345 $342 $487 forward $340 $-1 #
edge $-1 $490 24.871277556212775 $630 37.479655248312326 $486 $631 forward 7 unknown #
coedge $-1 $344 $343 $493 $632 reversed $133 $-1 #
edge $-1 $633 -115.70909756767482 $490 -99.485146829862998 $484 $634 forward 7 unknown #
vertex $-1 $346 $635 #
straight-curve $-1 45.24617109173785 -6.1676122372830449 16.897184659936329 0 -1 0 I I #
coedge $-1 $628 $347 $350 $497 reversed $482 $-1 #
coedge $-1 $347 $628 $488 $632 forward $482 $-1 #
vertex $-1 $348 $636 #
straight-curve $-1 57.854548783837402 -8.6528421994536711 84.714037045159444 0 0 1 I I #
straight-curve $-1 -32.068308362486079 -8.6528421994536711 79.505216943995421 0.77714595512881146 0 -0.62932039886446345 I I #
edge $-1 $630 -16.017606749678507 $351 -8.6528421994536711 $492 $637 forward 7 unknown #
point $-1 57.854548783837402 -8.6528421994536711 16.897184659936332 #
point $-1 45.24617109173785 -8.6528421994536711 16.897184659936329 #
edge $-1 $638 1 $638 0 $354 $-1 forward 7 unknown #
vertex $-1 $355 $639 #
ellipse-curve $-1 50.566114127044891 -13.913388306757128 10.57671075717 0.62932039886446345 0 0.77714595512881146 0.77714595512881146 0 -0.62932039886446345 1 I I #
point $-1 52.327505892916435 -13.913388306757128 11.162832686333312 #
edge $-1 $640 1 $640 0 $358 $-1 forward 7 unknown #
vertex $-1 $359 $641 #
ellipse-curve $-1 50.566114127044891 -10.757060642375055 10.57671075717 0.62932039886446345 0 0.77714595512881146 0.77714595512881146 0 -0.62932039886446345 1 I I #
point $-1 52.327505892916435 -10.757060642375055 11.162832686333312 #
plane-surface $-1 0 0 16.897184659936332 0 0 1 1 0 0 forward_v I I I I #
coedge $-1 $519 $518 $511 $642 forward $363 $-1 #
coedge $-1 $511 $365 $367 $515 reversed $233 $-1 #
coedge $-1 $365 $510 $509 $642 reversed $233 $-1 #
coedge $-1 $373 $368 $365 $513 forward $374 $-1 #
edge $-1 $516 -17.360524333379075 $643 -1.730965936964374 $512 $644 forward 7 unknown #
coedge $-1 $367 $366 $519 $645 reversed $147 $-1 #
edge $-1 $646 8.3790584163743152e-015 $516 18.430037810157064 $510 $647 forward 7 unknown #
vertex $-1 $369 $648 #
straight-curve $-1 -42.2249903874227 -12.790456016743498 16.897184659936332 0 1 0 I I #
coedge $-1 $509 $370 $373 $523 reversed $363 $-1 #
coedge $-1 $370 $509 $514 $645 forward $363 $-1 #
vertex $-1 $371 $649 #
straight-curve $-1 -57.854548783837402 -29.814053162407827 52.628815924586782 0 0 1 I I #
straight-curve $-1 -57.854548783837409 -29.814053162407827 7.1307524548329013 -0.84804809178421925 0 -0.52991927123019833 I I #
edge $-1 $643 21.347770904566165 $375 29.814053162407827 $518 $650 forward 7 unknown #
point $-1 -57.854548783837402 -29.814053162407827 16.897184659936332 #
point $-1 -42.2249903874227 -29.814053162407827 16.897184659936332 #
edge $-1 $651 1 $651 0 $378 $-1 forward 7 unknown #
vertex $-1 $379 $652 #
ellipse-curve $-1 -49.509850314399841 -27.39511537445307 11.165920465600397 -0.52991927123019833 0 0.84804809178421925 0.42402404589210962 0 0.26495963561509916 1 I I #
point $-1 -49.615745539737929 -27.39511537445307 12.278928192999714 #
edge $-1 $653 1 $653 0 $382 $-1 forward 7 unknown #
vertex $-1 $383 $654 #
ellipse-curve $-1 -49.509850314399841 -23.766708692520925 11.165920465600397 -0.52991927123019833 0 0.84804809178421925 0.42402404589210962 0 0.26495963561509916 1 I I #
point $-1 -49.615745539737929 -23.766708692520925 12.278928192999714 #
loop $-1 $-1 $394 $386 #
plane-surface $-1 -57.854548783837402 0 0 1 0 0 0 0 -1 forward_v I I I I #
coedge $-1 $537 $389 $391 $541 reversed $255 $-1 #
coedge $-1 $389 $536 $655 $656 reversed $255 $-1 #
coedge $-1 $397 $392 $389 $539 forward $387 $-1 #
edge $-1 $542 -17.360524333379075 $657 -1.730965936964374 $538 $658 forward 7 unknown #
coedge $-1 $391 $390 $545 $659 reversed $161 $-1 #
edge $-1 $660 8.3790584163743152e-015 $542 18.430037810157064 $536 $661 forward 7 unknown #
vertex $-1 $393 $662 #
straight-curve $-1 -42.2249903874227 -4.0608495915800926 16.897184659936332 0 1 0 I I #
coedge $-1 $655 $394 $397 $549 reversed $534 $-1 #
coedge $-1 $394 $655 $540 $659 forward $534 $-1 #
vertex $-1 $395 $663 #
straight-curve $-1 -57.854548783837402 -12.354840312081016 52.628815924586782 0 0 1 I I #
straight-curve $-1 -57.854548783837409 -12.354840312081016 7.1307524548329013 -0.84804809178421925 0 -0.52991927123019833 I I #
edge $-1 $657 3.8885580542393532 $398 12.354840312081016 $544 $664 forward 7 unknown #
point $-1 -57.854548783837402 -12.354840312081016 16.897184659936332 #
point $-1 -42.2249903874227 -12.354840312081016 16.897184659936332 #
edge $-1 $665 1 $665 0 $401 $-1 forward 7 unknown #
vertex $-1 $402 $666 #
ellipse-curve $-1 -49.509850314399841 -9.9359025241262557 11.165920465600397 -0.52991927123019833 0 0.84804809178421925 0.42402404589210962 0 0.26495963561509916 1 I I #
point $-1 -49.615745539737929 -9.9359025241262557 12.278928192999714 #
edge $-1 $667 1 $667 0 $405 $-1 forward 7 unknown #
vertex $-1 $406 $668 #
ellipse-curve $-1 -49.509850314399841 -6.3074958421941147 11.165920465600397 -0.52991927123019833 0 0.84804809178421925 0.42402404589210962 0 0.26495963561509916 1 I I #
point $-1 -49.615745539737929 -6.3074958421941147 12.278928192999714 #
loop $-1 $-1 $417 $409 #
plane-surface $-1 -57.854548783837402 0 0 1 0 0 0 0 -1 forward_v I I I I #
coedge $-1 $563 $412 $414 $567 reversed $277 $-1 #
coedge $-1 $412 $562 $669 $670 reversed $277 $-1 #
coedge $-1 $420 $415 $412 $565 forward $410 $-1 #
edge $-1 $568 -17.360524333379075 $671 -1.730965936964374 $564 $672 forward 7 unknown #
coedge $-1 $414 $413 $571 $673 reversed $175 $-1 #
edge $-1 $674 8.3790584163743152e-015 $568 18.430037810157064 $562 $675 forward 7 unknown #
vertex $-1 $416 $676 #
straight-curve $-1 -42.2249903874227 4.6687568335833127 16.897184659936332 0 1 0 I I #
coedge $-1 $669 $417 $420 $575 reversed $560 $-1 #
coedge $-1 $417 $669 $566 $673 forward $560 $-1 #
vertex $-1 $418 $677 #
straight-curve $-1 -57.854548783837402 5.1043725382457934 52.628815924586782 0 0 1 I I #
straight-curve $-1 -57.854548783837409 5.1043725382457934 7.1307524548329013 -0.84804809178421925 0 -0.52991927123019833 I I #
edge $-1 $671 -13.570654796087457 $421 -5.1043725382457934 $570 $678 forward 7 unknown #
point $-1 -57.854548783837402 5.1043725382457934 16.897184659936332 #
point $-1 -42.2249903874227 5.1043725382457934 16.897184659936332 #
edge $-1 $679 1 $679 0 $424 $-1 forward 7 unknown #
vertex $-1 $425 $680 #
ellipse-curve $-1 -49.509850314399841 7.5233103262005514 11.165920465600397 -0.52991927123019833 0 0.84804809178421925 0.42402404589210962 0 0.26495963561509916 1 I I #
point $-1 -49.615745539737929 7.5233103262005514 12.278928192999714 #
edge $-1 $681 1 $681 0 $428 $-1 forward 7 unknown #
vertex $-1 $429 $682 #
ellipse-curve $-1 -49.509850314399841 11.1517170081327 11.165920465600397 -0.52991927123019833 0 0.84804809178421925 0.42402404589210962 0 0.26495963561509916 1 I I #
point $-1 -49.615745539737929 11.1517170081327 12.278928192999714 #
loop $-1 $-1 $440 $432 #
plane-surface $-1 -57.854548783837402 0 0 1 0 0 0 0 -1 forward_v I I I I #
coedge $-1 $589 $435 $437 $593 reversed $299 $-1 #
coedge $-1 $435 $588 $683 $684 reversed $299 $-1 #
coedge $-1 $443 $438 $435 $591 forward $433 $-1 #
edge $-1 $594 -17.360524333379075 $685 -1.730965936964374 $590 $686 forward 7 unknown #
coedge $-1 $437 $436 $597 $687 reversed $189 $-1 #
edge $-1 $688 8.3790584163743152e-015 $594 18.430037810157064 $588 $689 forward 7 unknown #
vertex $-1 $439 $690 #
straight-curve $-1 -42.2249903874227 13.398363258746716 16.897184659936332 0 1 0 I I #
coedge $-1 $683 $440 $443 $601 reversed $586 $-1 #
coedge $-1 $440 $683 $592 $687 forward $586 $-1 #
vertex $-1 $441 $691 #
straight-curve $-1 -57.854548783837402 22.563585388572601 52.628815924586782 0 0 1 I I #
straight-curve $-1 -57.854548783837409 22.563585388572601 7.1307524548329013 -0.84804809178421925 0 -0.52991927123019833 I I #
edge $-1 $685 -31.029867646414264 $444 -22.563585388572601 $596 $692 forward 7 unknown #
point $-1 -57.854548783837402 22.563585388572601 16.897184659936332 #
point $-1 -42.2249903874227 22.563585388572601 16.897184659936332 #
edge $-1 $693 1 $693 0 $447 $-1 forward 7 unknown #
vertex $-1 $448 $694 #
ellipse-curve $-1 -49.509850314399841 24.982523176527359 11.165920465600397 -0.52991927123019833 0 0.84804809178421925 0.42402404589210962 0 0.26495963561509916 1 I I #
point $-1 -49.615745539737929 24.982523176527359 12.278928192999714 #
edge $-1 $695 1 $695 0 $451 $-1 forward 7 unknown #
vertex $-1 $452 $696 #
ellipse-curve $-1 -49.509850314399841 28.610929858459507 11.165920465600397 -0.52991927123019833 0 0.84804809178421925 0.42402404589210962 0 0.26495963561509916 1 I I #
point $-1 -49.615745539737929 28.610929858459507 12.278928192999714 #
plane-surface $-1 57.854548783837402 0 0 -1 0 0 0 0 1 forward_v I I I I #
coedge $-1 $460 $458 $462 $617 reversed $321 $-1 #
edge $-1 $473 -16.897184659936332 $619 16.897184659936332 $472 $697 forward 7 unknown #
vertex $-1 $617 $698 #
straight-curve $-1 -57.854548783837402 -34.918425700653621 0 0 0 -1 I I #
edge $-1 $615 -34.918425700653621 $619 34.918425700653621 $613 $699 forward 7 unknown #
straight-curve $-1 0 -34.918425700653621 -16.897184659936332 -1 0 0 I I #
vertex $-1 $465 $700 #
straight-curve $-1 0 34.918425700653621 -16.897184659936332 1 0 0 I I #
point $-1 57.854548783837402 34.918425700653621 -16.897184659936332 #
point $-1 57.854548783837402 -34.918425700653621 -16.897184659936332 #
straight-curve $-1 -57.854548783837402 0 16.897184659936332 0 -1 0 I I #
point $-1 -57.854548783837402 34.918425700653621 16.897184659936332 #
point $-1 -57.854548783837402 -34.918425700653621 16.897184659936332 #
straight-curve $-1 57.854548783837402 -34.918425700653621 0 0 0 -1 I I #
straight-curve $-1 57.854548783837402 34.918425700653621 0 0 0 -1 I I #
coedge $-1 $493 $492 $485 $629 forward $482 $-1 #
edge $-1 $630 67.816852385223115 $633 78.026915534700251 $628 $701 forward 7 unknown #
vertex $-1 $497 $702 #
straight-curve $-1 20.374893535525075 -16.017606749678507 16.897184659936329 1 0 0 I I #
edge $-1 $633 -9.8499945123954618 $494 -2.4852299621706262 $493 $703 forward 7 unknown #
vertex $-1 $632 $704 #
straight-curve $-1 -32.068308362486079 -16.017606749678507 79.505216943995421 -0.77714595512881146 0 0.62932039886446345 I I #
point $-1 45.24617109173785 -16.017606749678507 16.897184659936329 #
point $-1 57.854548783837402 -8.6528421994536711 6.6871215104591926 #
straight-curve $-1 57.854548783837402 0 16.897184659936332 0 1 0 I I #
vertex $-1 $500 $705 #
point $-1 51.3432600821737 -13.913388306757128 9.9473903583055368 #
vertex $-1 $504 $706 #
point $-1 51.3432600821737 -10.757060642375055 9.9473903583055368 #
edge $-1 $643 35.731631264650446 $646 45.498063469753873 $509 $707 forward 7 unknown #
vertex $-1 $523 $708 #
straight-curve $-1 -59.585514720801775 -21.347770904566165 16.897184659936336 -1 0 0 I I #
edge $-1 $646 8.5573148878226668 $520 17.023597145664329 $519 $709 forward 7 unknown #
vertex $-1 $645 $710 #
straight-curve $-1 -57.854548783837409 -21.347770904566165 7.1307524548329013 0.84804809178421925 0 0.52991927123019833 I I #
point $-1 -42.2249903874227 -21.347770904566165 16.897184659936332 #
point $-1 -57.854548783837402 -29.814053162407827 7.1307524548329058 #
straight-curve $-1 -57.854548783837402 0 16.897184659936332 0 -1 0 I I #
vertex $-1 $526 $711 #
point $-1 -49.085826268507731 -27.39511537445307 11.430880101215497 #
vertex $-1 $530 $712 #
point $-1 -49.085826268507731 -23.766708692520925 11.430880101215497 #
coedge $-1 $545 $544 $537 $656 forward $534 $-1 #
edge $-1 $657 35.731631264650446 $660 45.498063469753873 $655 $713 forward 7 unknown #
vertex $-1 $549 $714 #
straight-curve $-1 -59.585514720801775 -3.8885580542393532 16.897184659936336 -1 0 0 I I #
edge $-1 $660 -0.17229153734073943 $546 8.2939907205009238 $545 $715 forward 7 unknown #
vertex $-1 $659 $716 #
straight-curve $-1 -57.854548783837409 -3.8885580542393532 7.1307524548329013 0.84804809178421925 0 0.52991927123019833 I I #
point $-1 -42.2249903874227 -3.8885580542393532 16.897184659936332 #
point $-1 -57.854548783837402 -12.354840312081016 7.1307524548329058 #
straight-curve $-1 -57.854548783837402 0 16.897184659936332 0 -1 0 I I #
vertex $-1 $552 $717 #
point $-1 -49.085826268507731 -9.9359025241262557 11.430880101215497 #
vertex $-1 $556 $718 #
point $-1 -49.085826268507731 -6.3074958421941147 11.430880101215497 #
coedge $-1 $571 $570 $563 $670 forward $560 $-1 #
edge $-1 $671 35.731631264650446 $674 45.498063469753873 $669 $719 forward 7 unknown #
vertex $-1 $575 $720 #
straight-curve $-1 -59.585514720801775 13.570654796087457 16.897184659936336 -1 0 0 I I #
edge $-1 $674 -8.9018979625041439 $572 -0.43561570466248067 $571 $721 forward 7 unknown #
vertex $-1 $673 $722 #
straight-curve $-1 -57.854548783837409 13.570654796087457 7.1307524548329013 0.84804809178421925 0 0.52991927123019833 I I #
point $-1 -42.2249903874227 13.570654796087457 16.897184659936332 #
point $-1 -57.854548783837402 5.1043725382457934 7.1307524548329058 #
straight-curve $-1 -57.854548783837402 0 16.897184659936332 0 -1 0 I I #
vertex $-1 $578 $723 #
point $-1 -49.085826268507731 7.5233103262005514 11.430880101215497 #
vertex $-1 $582 $724 #
point $-1 -49.085826268507731 11.1517170081327 11.430880101215497 #
coedge $-1 $597 $596 $589 $684 forward $586 $-1 #
edge $-1 $685 35.731631264650446 $688 45.498063469753873 $683 $725 forward 7 unknown #
vertex $-1 $601 $726 #
straight-curve $-1 -59.585514720801775 31.029867646414264 16.897184659936336 -1 0 0 I I #
edge $-1 $688 -17.631504387667547 $598 -9.1652221298258851 $597 $727 forward 7 unknown #
vertex $-1 $687 $728 #
straight-curve $-1 -57.854548783837409 31.029867646414264 7.1307524548329013 0.84804809178421925 0 0.52991927123019833 I I #
point $-1 -42.2249903874227 31.029867646414264 16.897184659936332 #
point $-1 -57.854548783837402 22.563585388572601 7.1307524548329058 #
straight-curve $-1 -57.854548783837402 0 16.897184659936332 0 -1 0 I I #
vertex $-1 $604 $729 #
point $-1 -49.085826268507731 24.982523176527359 11.430880101215497 #
vertex $-1 $608 $730 #
point $-1 -49.085826268507731 28.610929858459507 11.430880101215497 #
straight-curve $-1 -57.854548783837402 34.918425700653621 0 0 0 -1 I I #
point $-1 -57.854548783837402 -34.918425700653621 -16.897184659936332 #
straight-curve $-1 -57.854548783837402 0 -16.897184659936332 0 1 0 I I #
point $-1 -57.854548783837402 34.918425700653621 -16.897184659936332 #
straight-curve $-1 57.854548783837402 -16.017606749678507 84.714037045159444 0 0 -1 I I #
point $-1 57.854548783837402 -16.017606749678507 16.897184659936332 #
straight-curve $-1 57.854548783837402 -6.1676122372830449 6.6871215104591926 0 1 0 I I #
point $-1 57.854548783837402 -16.017606749678507 6.6871215104591926 #
point $-1 49.936793728180426 -13.913388306757128 9.7995648020411874 #
point $-1 49.936793728180426 -10.757060642375055 9.7995648020411874 #
straight-curve $-1 -57.854548783837402 -21.347770904566165 52.628815924586782 0 0 -1 I I #
point $-1 -57.854548783837402 -21.347770904566165 16.897184659936332 #
straight-curve $-1 -57.854548783837402 -12.790456016743498 7.1307524548329031 0 -1 0 I I #
point $-1 -57.854548783837402 -21.347770904566165 7.1307524548329058 #
point $-1 -49.244890678784742 -27.39511537445307 10.741896419708286 #
point $-1 -49.244890678784742 -23.766708692520925 10.741896419708286 #
straight-curve $-1 -57.854548783837402 -3.8885580542393532 52.628815924586782 0 0 -1 I I #
point $-1 -57.854548783837402 -3.8885580542393532 16.897184659936332 #
straight-curve $-1 -57.854548783837402 -4.0608495915800926 7.1307524548329031 0 -1 0 I I #
point $-1 -57.854548783837402 -3.8885580542393532 7.1307524548329058 #
point $-1 -49.244890678784742 -9.9359025241262557 10.741896419708286 #
point $-1 -49.244890678784742 -6.3074958421941147 10.741896419708286 #
straight-curve $-1 -57.854548783837402 13.570654796087457 52.628815924586782 0 0 -1 I I #
point $-1 -57.854548783837402 13.570654796087457 16.897184659936332 #
straight-curve $-1 -57.854548783837402 4.6687568335833127 7.1307524548329031 0 -1 0 I I #
point $-1 -57.854548783837402 13.570654796087457 7.1307524548329058 #
point $-1 -49.244890678784742 7.5233103262005514 10.741896419708286 #
point $-1 -49.244890678784742 11.1517170081327 10.741896419708286 #
straight-curve $-1 -57.854548783837402 31.029867646414264 52.628815924586782 0 0 -1 I I #
point $-1 -57.854548783837402 31.029867646414264 16.897184659936332 #
straight-curve $-1 -57.854548783837402 13.398363258746716 7.1307524548329031 0 -1 0 I I #
point $-1 -57.854548783837402 31.029867646414264 7.1307524548329058 #
point $-1 -49.244890678784742 24.982523176527359 10.741896419708286 #
point $-1 -49.244890678784742 28.610929858459507 10.741896419708286 #
End-of-ACIS-data 