500 0 14 0           
7 Unknown 11 ACIS 5.0 NT 24 Fri Mar 26 20:34:07 1999 
-1 9.9999999999999995e-007 1e-010 
body $-1 $14 $-1 $15 #
body $-1 $16 $-1 $17 #
body $-1 $18 $-1 $19 #
body $-1 $20 $-1 $21 #
body $-1 $22 $-1 $23 #
body $-1 $24 $-1 $25 #
body $-1 $26 $-1 $27 #
body $-1 $28 $-1 $29 #
body $-1 $30 $-1 $31 #
body $-1 $32 $-1 $33 #
body $-1 $34 $-1 $35 #
body $-1 $36 $-1 $37 #
body $-1 $38 $-1 $39 #
body $-1 $40 $-1 $41 #
lump $-1 $-1 $42 $0 #
transform $-1 1 0 0 0 1 0 0 0 1 60.783104953154087 33.400378314585275 13.116837311621898 1 rotate no_reflect no_shear #
lump $-1 $-1 $43 $1 #
transform $-1 1 0 0 0 1 0 0 0 1 60.783104953154087 33.400378314585275 13.116837311621898 1 rotate no_reflect no_shear #
lump $-1 $-1 $44 $2 #
transform $-1 1 0 0 0 1 0 0 0 1 60.783104953154087 33.400378314585275 13.116837311621898 1 rotate no_reflect no_shear #
lump $-1 $-1 $45 $3 #
transform $-1 1 0 0 0 1 0 0 0 1 60.783104953154087 33.400378314585275 13.116837311621898 1 rotate no_reflect no_shear #
lump $-1 $-1 $46 $4 #
transform $-1 1 0 0 0 1 0 0 0 1 60.783104953154087 33.400378314585275 13.116837311621898 1 rotate no_reflect no_shear #
lump $-1 $-1 $47 $5 #
transform $-1 1 0 0 0 1 0 0 0 1 60.783104953154087 33.400378314585275 13.116837311621898 1 rotate no_reflect no_shear #
lump $-1 $-1 $48 $6 #
transform $-1 1 0 0 0 1 0 0 0 1 60.783104953154087 33.400378314585275 13.116837311621898 1 rotate no_reflect no_shear #
lump $-1 $-1 $49 $7 #
transform $-1 1 0 0 0 1 0 0 0 1 60.783104953154087 33.400378314585275 13.116837311621898 1 rotate no_reflect no_shear #
lump $-1 $-1 $50 $8 #
transform $-1 1 0 0 0 1 0 0 0 1 60.783104953154087 33.400378314585275 13.116837311621898 1 rotate no_reflect no_shear #
lump $-1 $-1 $51 $9 #
transform $-1 1 0 0 0 1 0 0 0 1 60.783104953154087 33.400378314585275 13.116837311621898 1 rotate no_reflect no_shear #
lump $-1 $-1 $52 $10 #
transform $-1 1 0 0 0 1 0 0 0 1 60.783104953154087 33.400378314585275 13.116837311621898 1 rotate no_reflect no_shear #
lump $-1 $-1 $53 $11 #
transform $-1 1 0 0 0 1 0 0 0 1 60.783104953154087 33.400378314585275 13.116837311621898 1 rotate no_reflect no_shear #
lump $-1 $-1 $54 $12 #
transform $-1 1 0 0 0 1 0 0 0 1 60.783104953154087 33.400378314585275 13.116837311621898 1 rotate no_reflect no_shear #
lump $-1 $-1 $55 $13 #
transform $-1 1 0 0 0 1 0 0 0 1 60.783104953154087 33.400378314585275 13.116837311621898 1 rotate no_reflect no_shear #
shell $-1 $-1 $-1 $56 $-1 $14 #
shell $-1 $-1 $-1 $57 $-1 $16 #
shell $-1 $-1 $-1 $58 $-1 $18 #
shell $-1 $-1 $-1 $59 $-1 $20 #
shell $-1 $-1 $-1 $60 $-1 $22 #
shell $-1 $-1 $-1 $61 $-1 $24 #
shell $-1 $-1 $-1 $62 $-1 $26 #
shell $-1 $-1 $-1 $63 $-1 $28 #
shell $-1 $-1 $-1 $64 $-1 $30 #
shell $-1 $-1 $-1 $65 $-1 $32 #
shell $-1 $-1 $-1 $66 $-1 $34 #
shell $-1 $-1 $-1 $67 $-1 $36 #
shell $-1 $-1 $-1 $68 $-1 $38 #
shell $-1 $-1 $-1 $69 $-1 $40 #
face $-1 $70 $71 $42 $-1 $72 forward single #
face $-1 $73 $74 $43 $-1 $75 reversed single #
face $-1 $76 $77 $44 $-1 $78 reversed single #
face $-1 $79 $80 $45 $-1 $81 forward single #
face $-1 $82 $83 $46 $-1 $84 forward single #
face $-1 $85 $86 $47 $-1 $87 reversed single #
face $-1 $88 $89 $48 $-1 $90 forward single #
face $-1 $91 $92 $49 $-1 $93 forward single #
face $-1 $94 $95 $50 $-1 $96 reversed single #
face $-1 $97 $98 $51 $-1 $99 forward single #
face $-1 $100 $101 $52 $-1 $102 forward single #
face $-1 $103 $104 $53 $-1 $105 reversed single #
face $-1 $106 $107 $54 $-1 $108 forward single #
face $-1 $109 $110 $55 $-1 $111 forward single #
face $-1 $112 $113 $42 $-1 $114 reversed single #
loop $-1 $-1 $115 $56 #
plane-surface $-1 0 0 13.116837311621898 0 0 1 1 0 0 forward_v I I I I #
face $-1 $116 $117 $43 $-1 $118 reversed single #
loop $-1 $-1 $119 $57 #
plane-surface $-1 -55.337369748822923 -15.183363326391529 0 0 1 0 0 0 1 forward_v I I I I #
face $-1 $120 $121 $44 $-1 $122 reversed single #
loop $-1 $-1 $123 $58 #
plane-surface $-1 5.4457352043311786 -129.19585999942612 77.860434877779355 -1 0 0 0 -0.78801076186113728 0.61566146476048833 forward_v I I I I #
face $-1 $124 $125 $45 $-1 $126 forward single #
loop $-1 $127 $128 $59 #
cone-surface $-1 -11.937830888718942 -26.553100992524659 5.7997079642950133 0 0.78801076186113728 -0.61566146476048833 2.5 0 0 1 I I 0 1 2.5 forward I I I I #
face $-1 $129 $130 $46 $-1 $131 forward single #
loop $-1 $132 $133 $60 #
cone-surface $-1 -1.5076912328888739 -26.553100992524659 5.7997079642950133 0 0.78801076186113728 -0.61566146476048833 2.5 0 0 1 I I 0 1 2.5 forward I I I I #
face $-1 $134 $135 $47 $-1 $136 reversed single #
loop $-1 $-1 $137 $61 #
plane-surface $-1 48.614608688019025 -33.400378314585282 3.0168040214806808 0 -0.78801076186113728 0.61566146476048833 1 0 0 forward_v I I I I #
face $-1 $138 $139 $48 $-1 $140 forward single #
loop $-1 $141 $142 $62 #
cone-surface $-1 43.399538860103981 -26.553100992524659 5.7997079642950133 0 0.78801076186113728 -0.61566146476048833 2.5 0 0 1 I I 0 1 2.5 forward I I I I #
face $-1 $143 $144 $49 $-1 $145 forward single #
loop $-1 $146 $147 $63 #
cone-surface $-1 53.829678515934042 -26.553100992524659 5.7997079642950133 0 0.78801076186113728 -0.61566146476048833 2.5 0 0 1 I I 0 1 2.5 forward I I I I #
face $-1 $148 $149 $50 $-1 $150 reversed single #
loop $-1 $-1 $151 $64 #
plane-surface $-1 -18.891257325938987 88.069208326002069 130.50015000203246 1 0 0 0 -0.78801076186113728 -0.61566146476048833 forward_v I I I I #
face $-1 $152 $153 $51 $-1 $154 forward single #
loop $-1 $155 $156 $65 #
cone-surface $-1 -11.937830888718942 26.553100992524659 5.7997079642950116 0 -0.78801076186113728 -0.61566146476048833 2.5 0 0 1 I I 0 1 2.5 forward I I I I #
face $-1 $157 $158 $52 $-1 $159 forward single #
loop $-1 $160 $161 $66 #
cone-surface $-1 -1.5076912328888739 26.553100992524659 5.7997079642950116 0 -0.78801076186113728 -0.61566146476048833 2.5 0 0 1 I I 0 1 2.5 forward I I I I #
face $-1 $162 $163 $53 $-1 $164 reversed single #
loop $-1 $-1 $165 $67 #
plane-surface $-1 48.614608688019025 -7.7262733588387675 55.656519145733782 0 0.78801076186113728 0.61566146476048833 1 0 0 forward_v I I I I #
face $-1 $166 $167 $54 $-1 $168 forward single #
loop $-1 $169 $170 $68 #
cone-surface $-1 43.399538860103981 26.553100992524659 5.7997079642950116 0 -0.78801076186113728 -0.61566146476048833 2.5 0 0 1 I I 0 1 2.5 forward I I I I #
face $-1 $171 $172 $55 $-1 $173 forward single #
loop $-1 $174 $175 $69 #
cone-surface $-1 53.829678515934042 26.553100992524659 5.7997079642950116 0 -0.78801076186113728 -0.61566146476048833 2.5 0 0 1 I I 0 1 2.5 forward I I I I #
face $-1 $176 $177 $42 $-1 $178 reversed single #
loop $-1 $-1 $179 $70 #
plane-surface $-1 0 0 -13.116837311621898 0 0 1 1 0 0 forward_v I I I I #
coedge $-1 $180 $181 $182 $183 forward $71 $-1 #
face $-1 $184 $185 $43 $-1 $186 reversed single #
loop $-1 $-1 $187 $73 #
plane-surface $-1 -55.337369748822923 -9.2661153093947775 0 0 -1 0 0 0 -1 forward_v I I I I #
coedge $-1 $188 $189 $190 $191 reversed $74 $-1 #
face $-1 $192 $193 $44 $-1 $194 reversed single #
loop $-1 $-1 $195 $76 #
plane-surface $-1 -6.7227610608039043 -33.400378314585282 3.0168040214806808 0 -0.78801076186113728 0.61566146476048833 1 0 0 forward_v I I I I #
coedge $-1 $196 $197 $198 $199 reversed $77 $-1 #
face $-1 $-1 $200 $45 $-1 $201 forward single #
loop $-1 $202 $203 $79 #
cone-surface $-1 -11.937830888718942 -22.666315527514222 2.7630184310881241 0 0.78801076186113728 -0.61566146476048833 1.25 0 0 1 I I -0.70710678118654746 0.70710678118654746 1.25 forward I I I I #
loop $-1 $-1 $204 $59 #
coedge $-1 $128 $128 $205 $206 reversed $80 $-1 #
face $-1 $-1 $207 $46 $-1 $208 forward single #
loop $-1 $209 $210 $82 #
cone-surface $-1 -1.5076912328888739 -22.666315527514222 2.7630184310881241 0 0.78801076186113728 -0.61566146476048833 1.25 0 0 1 I I -0.70710678118654746 0.70710678118654746 1.25 forward I I I I #
loop $-1 $-1 $211 $60 #
coedge $-1 $133 $133 $212 $213 reversed $83 $-1 #
face $-1 $214 $215 $47 $-1 $216 reversed single #
loop $-1 $-1 $217 $85 #
plane-surface $-1 36.446112422883942 -129.19585999942612 77.860434877779355 1 0 0 0 0.78801076186113728 -0.61566146476048833 forward_v I I I I #
coedge $-1 $218 $219 $220 $221 reversed $86 $-1 #
face $-1 $-1 $222 $48 $-1 $223 forward single #
loop $-1 $224 $225 $88 #
cone-surface $-1 43.399538860103981 -22.666315527514222 2.7630184310881241 0 0.78801076186113728 -0.61566146476048833 1.25 0 0 1 I I -0.70710678118654746 0.70710678118654746 1.25 forward I I I I #
loop $-1 $-1 $226 $62 #
coedge $-1 $142 $142 $227 $228 reversed $89 $-1 #
face $-1 $-1 $229 $49 $-1 $230 forward single #
loop $-1 $231 $232 $91 #
cone-surface $-1 53.829678515934042 -22.666315527514222 2.7630184310881241 0 0.78801076186113728 -0.61566146476048833 1.25 0 0 1 I I -0.70710678118654746 0.70710678118654746 1.25 forward I I I I #
loop $-1 $-1 $233 $63 #
coedge $-1 $147 $147 $234 $235 reversed $92 $-1 #
face $-1 $236 $237 $50 $-1 $238 reversed single #
loop $-1 $-1 $239 $94 #
plane-surface $-1 -6.7227610608039043 -7.7262733588387675 55.656519145733782 0 0.78801076186113728 0.61566146476048833 1 0 0 forward_v I I I I #
coedge $-1 $240 $241 $242 $243 reversed $95 $-1 #
face $-1 $-1 $244 $51 $-1 $245 forward single #
loop $-1 $246 $247 $97 #
cone-surface $-1 -11.937830888718942 22.666315527514222 2.7630184310881223 0 -0.78801076186113728 -0.61566146476048833 1.25 0 0 1 I I -0.70710678118654746 0.70710678118654746 1.25 forward I I I I #
loop $-1 $-1 $248 $65 #
coedge $-1 $156 $156 $249 $250 reversed $98 $-1 #
face $-1 $-1 $251 $52 $-1 $252 forward single #
loop $-1 $253 $254 $100 #
cone-surface $-1 -1.5076912328888739 22.666315527514222 2.7630184310881223 0 -0.78801076186113728 -0.61566146476048833 1.25 0 0 1 I I -0.70710678118654746 0.70710678118654746 1.25 forward I I I I #
loop $-1 $-1 $255 $66 #
coedge $-1 $161 $161 $256 $257 reversed $101 $-1 #
face $-1 $258 $259 $53 $-1 $260 forward single #
loop $-1 $-1 $261 $103 #
plane-surface $-1 36.446112422883942 88.069208326002069 130.50015000203246 1 0 0 0 -0.78801076186113728 -0.61566146476048833 forward_v I I I I #
coedge $-1 $262 $263 $264 $265 reversed $104 $-1 #
face $-1 $-1 $266 $54 $-1 $267 forward single #
loop $-1 $268 $269 $106 #
cone-surface $-1 43.399538860103981 22.666315527514222 2.7630184310881223 0 -0.78801076186113728 -0.61566146476048833 1.25 0 0 1 I I -0.70710678118654746 0.70710678118654746 1.25 forward I I I I #
loop $-1 $-1 $270 $68 #
coedge $-1 $170 $170 $271 $272 reversed $107 $-1 #
face $-1 $-1 $273 $55 $-1 $274 forward single #
loop $-1 $275 $276 $109 #
cone-surface $-1 53.829678515934042 22.666315527514222 2.7630184310881223 0 -0.78801076186113728 -0.61566146476048833 1.25 0 0 1 I I -0.70710678118654746 0.70710678118654746 1.25 forward I I I I #
loop $-1 $-1 $277 $69 #
coedge $-1 $175 $175 $278 $279 reversed $110 $-1 #
face $-1 $280 $281 $42 $-1 $282 reversed single #
loop $-1 $-1 $283 $112 #
plane-surface $-1 0 -33.400378314585275 0 0 1 0 0 0 1 forward_v I I I I #
coedge $-1 $284 $285 $286 $287 forward $113 $-1 #
coedge $-1 $288 $115 $289 $290 forward $71 $-1 #
coedge $-1 $115 $288 $291 $292 forward $71 $-1 #
coedge $-1 $293 $294 $115 $183 reversed $295 $-1 #
edge $-1 $296 -33.400378314585275 $297 33.400378314585275 $182 $298 forward 7 unknown #
face $-1 $299 $300 $43 $-1 $301 reversed single #
loop $-1 $-1 $302 $116 #
plane-surface $-1 -49.891634544491751 -12.224739317893153 0 -1 0 0 0 0 1 forward_v I I I I #
coedge $-1 $303 $304 $305 $306 forward $117 $-1 #
coedge $-1 $307 $119 $308 $309 reversed $74 $-1 #
coedge $-1 $119 $307 $310 $311 reversed $74 $-1 #
coedge $-1 $312 $313 $119 $191 forward $314 $-1 #
edge $-1 $315 -13.116837311621898 $316 13.116837311621898 $190 $317 forward 7 unknown #
face $-1 $318 $319 $44 $-1 $320 reversed single #
loop $-1 $-1 $321 $120 #
plane-surface $-1 -18.891257325938987 -129.19585999942612 77.860434877779355 1 0 0 0 0.78801076186113728 -0.61566146476048833 forward_v I I I I #
coedge $-1 $322 $323 $324 $325 reversed $121 $-1 #
coedge $-1 $197 $123 $326 $327 reversed $77 $-1 #
coedge $-1 $123 $196 $322 $328 reversed $77 $-1 #
coedge $-1 $324 $329 $123 $199 forward $330 $-1 #
edge $-1 $331 31.197551685127785 $332 39.088562303880977 $198 $333 forward 7 unknown #
loop $-1 $-1 $205 $124 #
plane-surface $-1 -6.7227610608039043 -33.400378314585282 3.0168040214806808 0 -0.78801076186113728 0.61566146476048833 1 0 0 forward_v I I I I #
loop $-1 $-1 $334 $79 #
coedge $-1 $203 $203 $204 $335 reversed $125 $-1 #
coedge $-1 $204 $204 $203 $335 forward $127 $-1 #
coedge $-1 $205 $205 $128 $206 forward $200 $-1 #
edge $-1 $336 -2.4492308213645077e-016 $336 6.2831853071796004 $205 $337 forward 7 unknown #
loop $-1 $-1 $212 $129 #
plane-surface $-1 -6.7227610608039043 -33.400378314585282 3.0168040214806808 0 -0.78801076186113728 0.61566146476048833 1 0 0 forward_v I I I I #
loop $-1 $-1 $338 $82 #
coedge $-1 $210 $210 $211 $339 reversed $130 $-1 #
coedge $-1 $211 $211 $210 $339 forward $132 $-1 #
coedge $-1 $212 $212 $133 $213 forward $207 $-1 #
edge $-1 $340 -2.4492308213645077e-016 $340 6.2831853071796004 $212 $341 forward 7 unknown #
face $-1 $342 $343 $47 $-1 $344 forward single #
loop $-1 $-1 $345 $134 #
plane-surface $-1 0 -33.400378314585275 0 0 1 0 0 0 1 forward_v I I I I #
coedge $-1 $346 $347 $348 $349 reversed $135 $-1 #
coedge $-1 $350 $137 $351 $352 reversed $86 $-1 #
coedge $-1 $137 $350 $346 $353 forward $86 $-1 #
coedge $-1 $348 $354 $137 $221 forward $343 $-1 #
edge $-1 $355 -36.475800609144599 $356 -12.13880807887443 $220 $357 forward 7 unknown #
loop $-1 $-1 $227 $138 #
plane-surface $-1 48.614608688019025 -33.400378314585282 3.0168040214806808 0 -0.78801076186113728 0.61566146476048833 1 0 0 forward_v I I I I #
loop $-1 $-1 $358 $88 #
coedge $-1 $225 $225 $226 $359 reversed $139 $-1 #
coedge $-1 $226 $226 $225 $359 forward $141 $-1 #
coedge $-1 $227 $227 $142 $228 forward $222 $-1 #
edge $-1 $360 -2.4492308213645077e-016 $360 6.2831853071796004 $227 $361 forward 7 unknown #
loop $-1 $-1 $234 $143 #
plane-surface $-1 48.614608688019025 -33.400378314585282 3.0168040214806808 0 -0.78801076186113728 0.61566146476048833 1 0 0 forward_v I I I I #
loop $-1 $-1 $362 $91 #
coedge $-1 $232 $232 $233 $363 reversed $144 $-1 #
coedge $-1 $233 $233 $232 $363 forward $146 $-1 #
coedge $-1 $234 $234 $147 $235 forward $229 $-1 #
edge $-1 $364 -2.4492308213645077e-016 $364 6.2831853071796004 $234 $365 forward 7 unknown #
face $-1 $366 $367 $50 $-1 $368 forward single #
loop $-1 $-1 $369 $148 #
plane-surface $-1 5.4457352043311786 88.069208326002069 130.50015000203246 -1 0 0 0 0.78801076186113728 0.61566146476048833 forward_v I I I I #
coedge $-1 $370 $371 $372 $373 reversed $149 $-1 #
coedge $-1 $241 $151 $374 $375 reversed $95 $-1 #
coedge $-1 $151 $240 $370 $376 reversed $95 $-1 #
coedge $-1 $372 $377 $151 $243 forward $367 $-1 #
edge $-1 $378 10.63422584841576 $379 18.525236467168966 $242 $380 forward 7 unknown #
loop $-1 $-1 $249 $152 #
plane-surface $-1 -6.7227610608039043 -7.7262733588387675 55.656519145733782 0 0.78801076186113728 0.61566146476048833 1 0 0 forward_v I I I I #
loop $-1 $-1 $381 $97 #
coedge $-1 $247 $247 $248 $382 reversed $153 $-1 #
coedge $-1 $248 $248 $247 $382 forward $155 $-1 #
coedge $-1 $249 $249 $156 $250 forward $244 $-1 #
edge $-1 $383 -2.4492308213645077e-016 $383 6.2831853071796004 $249 $384 forward 7 unknown #
loop $-1 $-1 $256 $157 #
plane-surface $-1 -6.7227610608039043 -7.7262733588387675 55.656519145733782 0 0.78801076186113728 0.61566146476048833 1 0 0 forward_v I I I I #
loop $-1 $-1 $385 $100 #
coedge $-1 $254 $254 $255 $386 reversed $158 $-1 #
coedge $-1 $255 $255 $254 $386 forward $160 $-1 #
coedge $-1 $256 $256 $161 $257 forward $251 $-1 #
edge $-1 $387 -2.4492308213645077e-016 $387 6.2831853071796004 $256 $388 forward 7 unknown #
face $-1 $389 $390 $53 $-1 $391 reversed single #
loop $-1 $-1 $392 $162 #
plane-surface $-1 0 0 13.116837311621898 0 0 1 1 0 0 forward_v I I I I #
coedge $-1 $393 $394 $395 $396 reversed $163 $-1 #
coedge $-1 $397 $165 $398 $399 reversed $104 $-1 #
coedge $-1 $165 $397 $393 $400 forward $104 $-1 #
coedge $-1 $395 $401 $165 $265 forward $402 $-1 #
edge $-1 $403 -36.475800609144571 $404 -12.13880807887443 $264 $405 forward 7 unknown #
loop $-1 $-1 $271 $166 #
plane-surface $-1 48.614608688019025 -7.7262733588387675 55.656519145733782 0 0.78801076186113728 0.61566146476048833 1 0 0 forward_v I I I I #
loop $-1 $-1 $406 $106 #
coedge $-1 $269 $269 $270 $407 reversed $167 $-1 #
coedge $-1 $270 $270 $269 $407 forward $169 $-1 #
coedge $-1 $271 $271 $170 $272 forward $266 $-1 #
edge $-1 $408 -2.4492308213645077e-016 $408 6.2831853071796004 $271 $409 forward 7 unknown #
loop $-1 $-1 $278 $171 #
plane-surface $-1 48.614608688019025 -7.7262733588387675 55.656519145733782 0 0.78801076186113728 0.61566146476048833 1 0 0 forward_v I I I I #
loop $-1 $-1 $410 $109 #
coedge $-1 $276 $276 $277 $411 reversed $172 $-1 #
coedge $-1 $277 $277 $276 $411 forward $174 $-1 #
coedge $-1 $278 $278 $175 $279 forward $273 $-1 #
edge $-1 $412 -2.4492308213645077e-016 $412 6.2831853071796004 $278 $413 forward 7 unknown #
face $-1 $414 $415 $42 $-1 $416 reversed single #
loop $-1 $-1 $417 $176 #
plane-surface $-1 -60.783104953154087 0 0 1 0 0 0 0 -1 forward_v I I I I #
coedge $-1 $418 $291 $419 $420 forward $177 $-1 #
coedge $-1 $421 $179 $418 $422 forward $113 $-1 #
coedge $-1 $179 $421 $423 $424 forward $113 $-1 #
coedge $-1 $294 $293 $179 $287 reversed $295 $-1 #
edge $-1 $425 -33.400378314585275 $426 33.400378314585275 $286 $427 forward 7 unknown #
coedge $-1 $181 $180 $428 $429 forward $71 $-1 #
coedge $-1 $430 $431 $180 $290 reversed $415 $-1 #
edge $-1 $297 -60.783104953154087 $432 60.783104953154087 $289 $433 forward 7 unknown #
coedge $-1 $283 $434 $181 $292 reversed $177 $-1 #
edge $-1 $435 -60.783104953154087 $296 60.783104953154087 $291 $436 forward 7 unknown #
coedge $-1 $286 $182 $434 $437 forward $295 $-1 #
coedge $-1 $182 $286 $430 $438 reversed $295 $-1 #
loop $-1 $-1 $293 $414 #
vertex $-1 $183 $439 #
vertex $-1 $183 $440 #
straight-curve $-1 60.783104953154087 0 13.116837311621898 0 1 0 I I #
face $-1 $441 $442 $43 $-1 $443 forward single #
loop $-1 $-1 $444 $184 #
plane-surface $-1 0 0 -13.116837311621898 0 0 1 1 0 0 forward_v I I I I #
coedge $-1 $445 $446 $307 $447 forward $185 $-1 #
coedge $-1 $448 $187 $444 $449 reversed $117 $-1 #
coedge $-1 $187 $448 $450 $451 reversed $117 $-1 #
coedge $-1 $446 $445 $187 $306 reversed $185 $-1 #
edge $-1 $452 -13.116837311621898 $453 13.116837311621898 $305 $454 forward 7 unknown #
coedge $-1 $189 $188 $302 $447 reversed $74 $-1 #
coedge $-1 $455 $456 $188 $309 forward $300 $-1 #
edge $-1 $457 22.22294967008029 $315 33.114420078742633 $308 $458 forward 7 unknown #
coedge $-1 $459 $460 $189 $311 forward $442 $-1 #
edge $-1 $316 -33.114420078742633 $461 -22.22294967008029 $310 $462 forward 7 unknown #
coedge $-1 $463 $190 $460 $464 reversed $314 $-1 #
coedge $-1 $190 $463 $455 $465 reversed $314 $-1 #
loop $-1 $-1 $463 $441 #
vertex $-1 $465 $466 #
vertex $-1 $191 $467 #
straight-curve $-1 -60.783104953154087 -15.183363326391529 0 0 0 1 I I #
face $-1 $-1 $330 $44 $-1 $468 forward single #
loop $-1 $-1 $469 $192 #
plane-surface $-1 0 -33.400378314585275 0 0 1 0 0 0 1 forward_v I I I I #
coedge $-1 $470 $471 $472 $473 reversed $193 $-1 #
coedge $-1 $474 $195 $197 $328 forward $121 $-1 #
coedge $-1 $195 $474 $470 $475 forward $121 $-1 #
coedge $-1 $472 $198 $195 $325 forward $330 $-1 #
edge $-1 $332 -8.8071157347331308 $476 15.529876795537035 $324 $477 forward 7 unknown #
coedge $-1 $478 $479 $196 $327 forward $319 $-1 #
edge $-1 $480 -35.913413417408989 $331 -25.813380127267777 $326 $481 forward 7 unknown #
edge $-1 $332 -12.817126083769194 $480 -1.1373479346495045e-014 $197 $482 forward 7 unknown #
coedge $-1 $198 $472 $478 $483 forward $330 $-1 #
loop $-1 $-1 $472 $318 #
vertex $-1 $327 $484 #
vertex $-1 $199 $485 #
straight-curve $-1 5.4457352043311786 -64.59792999971306 13.1168373116219 0 1 0 I I #
coedge $-1 $334 $334 $-1 $486 reversed $202 $-1 #
edge $-1 $487 0 $487 6.2831853071796004 $203 $488 forward 7 unknown #
vertex $-1 $206 $489 #
ellipse-curve $-1 -11.937830888718942 -29.454873005208679 8.066820666551294 0 -0.78801076186113728 0.61566146476048833 2.5 0 0 1 I I #
coedge $-1 $338 $338 $-1 $490 reversed $209 $-1 #
edge $-1 $491 0 $491 6.2831853071796004 $210 $492 forward 7 unknown #
vertex $-1 $213 $493 #
ellipse-curve $-1 -1.5076912328888739 -29.454873005208679 8.066820666551294 0 -0.78801076186113728 0.61566146476048833 2.5 0 0 1 I I #
face $-1 $-1 $494 $47 $-1 $495 reversed single #
loop $-1 $-1 $348 $214 #
plane-surface $-1 0 0 13.116837311621898 0 0 1 1 0 0 forward_v I I I I #
coedge $-1 $496 $497 $347 $498 forward $215 $-1 #
coedge $-1 $347 $217 $219 $353 reversed $135 $-1 #
coedge $-1 $217 $346 $345 $498 reversed $135 $-1 #
coedge $-1 $499 $220 $217 $349 forward $343 $-1 #
edge $-1 $356 -39.088562303880977 $500 -31.197551685127785 $348 $501 forward 7 unknown #
coedge $-1 $219 $218 $496 $502 reversed $86 $-1 #
coedge $-1 $503 $504 $218 $352 forward $494 $-1 #
edge $-1 $505 -9.0930259006796348 $355 3.7241001830895484 $351 $506 forward 7 unknown #
edge $-1 $507 1.1373479346495045e-014 $356 12.817126083769194 $346 $508 forward 7 unknown #
coedge $-1 $220 $499 $503 $509 forward $343 $-1 #
vertex $-1 $352 $510 #
vertex $-1 $221 $511 #
straight-curve $-1 24.307304344009513 -25.509367695832079 13.116837311621898 -1 0 0 I I #
coedge $-1 $358 $358 $-1 $512 reversed $224 $-1 #
edge $-1 $513 0 $513 6.2831853071796004 $225 $514 forward 7 unknown #
vertex $-1 $228 $515 #
ellipse-curve $-1 43.399538860103981 -29.454873005208679 8.066820666551294 0 -0.78801076186113728 0.61566146476048833 2.5 0 0 1 I I #
coedge $-1 $362 $362 $-1 $516 reversed $231 $-1 #
edge $-1 $517 0 $517 6.2831853071796004 $232 $518 forward 7 unknown #
vertex $-1 $235 $519 #
ellipse-curve $-1 53.829678515934042 -29.454873005208679 8.066820666551294 0 -0.78801076186113728 0.61566146476048833 2.5 0 0 1 I I #
face $-1 $-1 $520 $50 $-1 $521 reversed single #
loop $-1 $-1 $242 $236 #
plane-surface $-1 0 0 13.116837311621898 0 0 1 1 0 0 forward_v I I I I #
coedge $-1 $522 $523 $524 $525 reversed $237 $-1 #
coedge $-1 $526 $239 $241 $376 forward $149 $-1 #
coedge $-1 $239 $526 $522 $527 forward $149 $-1 #
coedge $-1 $524 $242 $239 $373 forward $367 $-1 #
edge $-1 $379 -15.529876795537035 $528 8.8071157347331308 $372 $529 forward 7 unknown #
coedge $-1 $530 $531 $240 $375 forward $520 $-1 #
edge $-1 $532 -62.233270979535547 $378 -52.133237689394328 $374 $533 forward 7 unknown #
edge $-1 $379 53.983630545401354 $532 66.80075662917055 $241 $534 forward 7 unknown #
coedge $-1 $242 $524 $530 $535 forward $367 $-1 #
vertex $-1 $375 $536 #
vertex $-1 $243 $537 #
straight-curve $-1 -18.891257325938987 44.034604163001035 13.1168373116219 0 -1 0 I I #
coedge $-1 $381 $381 $-1 $538 reversed $246 $-1 #
edge $-1 $539 0 $539 6.2831853071796004 $247 $540 forward 7 unknown #
vertex $-1 $250 $541 #
ellipse-curve $-1 -11.937830888718942 29.454873005208672 8.0668206665512869 0 0.78801076186113728 0.61566146476048833 2.5 0 0 1 I I #
coedge $-1 $385 $385 $-1 $542 reversed $253 $-1 #
edge $-1 $543 0 $543 6.2831853071796004 $254 $544 forward 7 unknown #
vertex $-1 $257 $545 #
ellipse-curve $-1 -1.5076912328888739 29.454873005208672 8.0668206665512869 0 0.78801076186113728 0.61566146476048833 2.5 0 0 1 I I #
face $-1 $-1 $402 $53 $-1 $546 reversed single #
loop $-1 $-1 $398 $258 #
plane-surface $-1 60.783104953154087 0 0 -1 0 0 0 0 1 forward_v I I I I #
coedge $-1 $547 $548 $394 $549 forward $259 $-1 #
coedge $-1 $394 $261 $263 $400 reversed $163 $-1 #
coedge $-1 $261 $393 $392 $549 reversed $163 $-1 #
coedge $-1 $550 $264 $261 $396 forward $402 $-1 #
edge $-1 $404 -62.233270979535547 $551 -52.133237689394328 $395 $552 forward 7 unknown #
coedge $-1 $263 $262 $547 $553 reversed $104 $-1 #
coedge $-1 $554 $555 $262 $399 forward $390 $-1 #
edge $-1 $556 29.676278131495717 $403 42.493404215264917 $398 $557 forward 7 unknown #
edge $-1 $558 53.983630545401354 $404 66.80075662917055 $393 $559 forward 7 unknown #
coedge $-1 $264 $550 $554 $560 forward $402 $-1 #
loop $-1 $-1 $395 $389 #
vertex $-1 $265 $561 #
vertex $-1 $265 $562 #
straight-curve $-1 24.307304344009513 33.400378314585275 3.0168040214806773 -1 0 0 I I #
coedge $-1 $406 $406 $-1 $563 reversed $268 $-1 #
edge $-1 $564 0 $564 6.2831853071796004 $269 $565 forward 7 unknown #
vertex $-1 $272 $566 #
ellipse-curve $-1 43.399538860103981 29.454873005208672 8.0668206665512869 0 0.78801076186113728 0.61566146476048833 2.5 0 0 1 I I #
coedge $-1 $410 $410 $-1 $567 reversed $275 $-1 #
edge $-1 $568 0 $568 6.2831853071796004 $276 $569 forward 7 unknown #
vertex $-1 $279 $570 #
ellipse-curve $-1 53.829678515934042 29.454873005208672 8.0668206665512869 0 0.78801076186113728 0.61566146476048833 2.5 0 0 1 I I #
face $-1 $-1 $295 $42 $-1 $571 reversed single #
loop $-1 $-1 $430 $280 #
plane-surface $-1 0 33.400378314585275 0 0 -1 0 0 0 -1 forward_v I I I I #
coedge $-1 $572 $428 $431 $573 forward $281 $-1 #
coedge $-1 $434 $283 $284 $422 reversed $177 $-1 #
coedge $-1 $428 $572 $283 $420 reversed $281 $-1 #
edge $-1 $435 -13.116837311621898 $574 13.116837311621898 $419 $575 forward 7 unknown #
coedge $-1 $285 $284 $572 $576 forward $113 $-1 #
edge $-1 $426 -60.783104953154087 $574 60.783104953154087 $418 $577 forward 7 unknown #
coedge $-1 $431 $430 $285 $424 reversed $415 $-1 #
edge $-1 $578 -60.783104953154087 $425 60.783104953154087 $423 $579 forward 7 unknown #
vertex $-1 $287 $580 #
vertex $-1 $437 $581 #
straight-curve $-1 60.783104953154087 0 -13.116837311621898 0 -1 0 I I #
coedge $-1 $417 $419 $288 $429 reversed $281 $-1 #
edge $-1 $432 -33.400378314585275 $435 33.400378314585275 $428 $582 forward 7 unknown #
coedge $-1 $423 $289 $294 $438 forward $415 $-1 #
coedge $-1 $289 $423 $417 $573 reversed $415 $-1 #
vertex $-1 $290 $583 #
straight-curve $-1 0 33.400378314585275 13.116837311621898 -1 0 0 I I #
coedge $-1 $291 $418 $293 $437 reversed $177 $-1 #
vertex $-1 $429 $584 #
straight-curve $-1 0 -33.400378314585275 13.116837311621898 1 0 0 I I #
edge $-1 $296 -13.116837311621898 $426 13.116837311621898 $293 $585 forward 7 unknown #
edge $-1 $297 -13.116837311621898 $425 13.116837311621898 $294 $586 forward 7 unknown #
point $-1 60.783104953154087 -33.400378314585275 13.116837311621898 #
point $-1 60.783104953154087 33.400378314585275 13.116837311621898 #
face $-1 $-1 $314 $43 $-1 $587 reversed single #
loop $-1 $-1 $450 $299 #
plane-surface $-1 0 0 13.116837311621898 0 0 1 1 0 0 forward_v I I I I #
coedge $-1 $456 $455 $303 $449 forward $300 $-1 #
coedge $-1 $305 $302 $456 $588 reversed $185 $-1 #
coedge $-1 $302 $305 $459 $589 reversed $185 $-1 #
edge $-1 $461 -13.116837311621898 $457 13.116837311621898 $302 $590 forward 7 unknown #
coedge $-1 $304 $303 $463 $591 reversed $117 $-1 #
edge $-1 $592 -33.114420078742633 $453 -22.22294967008029 $444 $593 forward 7 unknown #
coedge $-1 $460 $459 $304 $451 forward $442 $-1 #
edge $-1 $452 22.22294967008029 $594 33.114420078742633 $450 $595 forward 7 unknown #
vertex $-1 $451 $596 #
vertex $-1 $449 $597 #
straight-curve $-1 -49.891634544491751 -9.2661153093947775 0 0 0 -1 I I #
coedge $-1 $444 $308 $313 $465 forward $300 $-1 #
coedge $-1 $308 $444 $445 $588 forward $300 $-1 #
vertex $-1 $309 $598 #
straight-curve $-1 -27.668684874411461 -15.183363326391529 -13.116837311621898 -1 0 0 I I #
coedge $-1 $450 $310 $446 $589 forward $442 $-1 #
coedge $-1 $310 $450 $312 $464 forward $442 $-1 #
vertex $-1 $311 $599 #
straight-curve $-1 -27.668684874411461 -15.183363326391529 13.116837311621898 1 0 0 I I #
coedge $-1 $313 $312 $448 $591 forward $314 $-1 #
edge $-1 $594 9.2661153093947775 $316 15.183363326391529 $312 $600 forward 7 unknown #
edge $-1 $315 -15.183363326391529 $592 -9.2661153093947775 $313 $601 forward 7 unknown #
point $-1 -60.783104953154094 -15.183363326391529 -13.116837311621898 #
point $-1 -60.783104953154094 -15.183363326391529 13.116837311621898 #
plane-surface $-1 0 0 13.116837311621898 0 0 1 1 0 0 forward_v I I I I #
coedge $-1 $479 $478 $471 $602 forward $319 $-1 #
coedge $-1 $471 $321 $323 $475 reversed $193 $-1 #
coedge $-1 $321 $470 $469 $602 reversed $193 $-1 #
coedge $-1 $329 $324 $321 $473 forward $330 $-1 #
edge $-1 $476 -39.088562303880977 $603 -31.197551685127785 $472 $604 forward 7 unknown #
coedge $-1 $323 $322 $479 $605 reversed $121 $-1 #
edge $-1 $606 1.1373479346495045e-014 $476 12.817126083769194 $470 $607 forward 7 unknown #
vertex $-1 $325 $608 #
straight-curve $-1 -3.3613805304019522 -25.509367695832079 13.116837311621898 -1 0 0 I I #
coedge $-1 $469 $326 $329 $483 reversed $319 $-1 #
coedge $-1 $326 $469 $474 $605 forward $319 $-1 #
vertex $-1 $327 $609 #
straight-curve $-1 5.4457352043311786 -33.400378314585275 38.930217438889677 0 0 1 I I #
straight-curve $-1 5.4457352043311786 -33.400378314585282 3.0168040214806808 0 -0.61566146476048833 -0.78801076186113728 I I #
edge $-1 $603 -18.891257325938987 $331 5.4457352043311786 $478 $610 forward 7 unknown #
point $-1 5.4457352043311786 -33.400378314585275 13.116837311621898 #
point $-1 5.4457352043311786 -25.509367695832079 13.116837311621898 #
edge $-1 $611 1 $611 0 $334 $-1 forward 7 unknown #
vertex $-1 $335 $612 #
ellipse-curve $-1 -11.937830888718942 -23.651328979840642 3.5325952620387344 0 -0.78801076186113728 0.61566146476048833 2.5 0 0 1 I I #
point $-1 -9.4378308887189419 -29.454873005208675 8.0668206665512905 #
edge $-1 $613 1 $613 0 $338 $-1 forward 7 unknown #
vertex $-1 $339 $614 #
ellipse-curve $-1 -1.5076912328888739 -23.651328979840642 3.5325952620387344 0 -0.78801076186113728 0.61566146476048833 2.5 0 0 1 I I #
point $-1 0.99230876711112614 -29.454873005208675 8.0668206665512905 #
loop $-1 $-1 $351 $342 #
plane-surface $-1 60.783104953154087 0 0 -1 0 0 0 0 1 forward_v I I I I #
coedge $-1 $615 $345 $350 $502 forward $215 $-1 #
coedge $-1 $345 $615 $499 $616 reversed $215 $-1 #
edge $-1 $500 25.813380127267777 $507 35.913413417408989 $345 $617 forward 7 unknown #
coedge $-1 $354 $348 $497 $616 forward $343 $-1 #
vertex $-1 $616 $618 #
straight-curve $-1 36.446112422883942 -64.59792999971306 13.1168373116219 0 -1 0 I I #
edge $-1 $507 12.13880807887443 $505 36.475800609144599 $496 $619 forward 7 unknown #
coedge $-1 $504 $351 $354 $509 reversed $494 $-1 #
coedge $-1 $351 $503 $615 $620 forward $494 $-1 #
vertex $-1 $502 $621 #
straight-curve $-1 60.783104953154087 -27.802152669467795 10.182206289098303 0 0.61566146476048833 0.78801076186113728 I I #
vertex $-1 $502 $622 #
straight-curve $-1 36.446112422883942 -33.400378314585282 3.0168040214806808 0 0.61566146476048833 0.78801076186113728 I I #
edge $-1 $623 -33.400378314585275 $355 -25.509367695832079 $503 $624 forward 7 unknown #
point $-1 60.783104953154108 -25.509367695832079 13.116837311621898 #
point $-1 36.446112422883942 -25.509367695832079 13.116837311621898 #
edge $-1 $625 1 $625 0 $358 $-1 forward 7 unknown #
vertex $-1 $359 $626 #
ellipse-curve $-1 43.399538860103981 -23.651328979840642 3.5325952620387344 0 -0.78801076186113728 0.61566146476048833 2.5 0 0 1 I I #
point $-1 45.899538860103981 -29.454873005208675 8.0668206665512905 #
edge $-1 $627 1 $627 0 $362 $-1 forward 7 unknown #
vertex $-1 $363 $628 #
ellipse-curve $-1 53.829678515934042 -23.651328979840642 3.5325952620387344 0 -0.78801076186113728 0.61566146476048833 2.5 0 0 1 I I #
point $-1 56.329678515934042 -29.454873005208675 8.0668206665512905 #
loop $-1 $-1 $374 $366 #
plane-surface $-1 0 33.400378314585275 0 0 -1 0 0 0 -1 forward_v I I I I #
coedge $-1 $523 $369 $371 $527 reversed $237 $-1 #
coedge $-1 $369 $522 $629 $630 reversed $237 $-1 #
coedge $-1 $377 $372 $369 $525 forward $367 $-1 #
edge $-1 $528 -18.525236467168966 $631 -10.63422584841576 $524 $632 forward 7 unknown #
coedge $-1 $371 $370 $531 $633 reversed $149 $-1 #
edge $-1 $634 -66.80075662917055 $528 -53.983630545401354 $522 $635 forward 7 unknown #
vertex $-1 $373 $636 #
straight-curve $-1 -3.3613805304019522 25.509367695832069 13.116837311621897 1 0 0 I I #
coedge $-1 $629 $374 $377 $535 reversed $520 $-1 #
coedge $-1 $374 $629 $526 $633 forward $520 $-1 #
vertex $-1 $375 $637 #
straight-curve $-1 -18.891257325938987 33.400378314585275 65.250075001016228 0 0 1 I I #
straight-curve $-1 -18.891257325938987 -7.7262733588387675 55.656519145733782 0 0.61566146476048833 -0.78801076186113728 I I #
edge $-1 $631 -5.4457352043311786 $378 18.891257325938987 $530 $638 forward 7 unknown #
point $-1 -18.891257325938987 33.400378314585275 13.116837311621898 #
point $-1 -18.891257325938987 25.509367695832069 13.1168373116219 #
edge $-1 $639 1 $639 0 $381 $-1 forward 7 unknown #
vertex $-1 $382 $640 #
ellipse-curve $-1 -11.937830888718942 23.651328979840642 3.5325952620387326 0 0.78801076186113728 0.61566146476048833 2.5 0 0 1 I I #
point $-1 -9.4378308887189419 29.454873005208675 8.0668206665512905 #
edge $-1 $641 1 $641 0 $385 $-1 forward 7 unknown #
vertex $-1 $386 $642 #
ellipse-curve $-1 -1.5076912328888739 23.651328979840642 3.5325952620387326 0 0.78801076186113728 0.61566146476048833 2.5 0 0 1 I I #
point $-1 0.99230876711112614 29.454873005208675 8.0668206665512905 #
plane-surface $-1 0 33.400378314585275 0 0 -1 0 0 0 -1 forward_v I I I I #
coedge $-1 $643 $392 $397 $553 forward $259 $-1 #
coedge $-1 $392 $643 $550 $644 forward $259 $-1 #
edge $-1 $551 10.63422584841576 $558 18.525236467168966 $392 $645 forward 7 unknown #
coedge $-1 $401 $395 $548 $644 reversed $402 $-1 #
vertex $-1 $396 $646 #
straight-curve $-1 36.446112422883942 33.400378314585275 65.250075001016228 0 0 1 I I #
edge $-1 $558 12.13880807887443 $556 36.475800609144599 $547 $647 forward 7 unknown #
coedge $-1 $555 $398 $401 $560 reversed $390 $-1 #
coedge $-1 $398 $554 $643 $648 reversed $390 $-1 #
vertex $-1 $648 $649 #
straight-curve $-1 60.783104953154087 7.2388268327557661 36.502063851224847 0 0.61566146476048833 -0.78801076186113728 I I #
vertex $-1 $553 $650 #
straight-curve $-1 36.446112422883942 -7.7262733588387675 55.656519145733782 0 0.61566146476048833 -0.78801076186113728 I I #
edge $-1 $651 -13.116837311621898 $403 -3.0168040214806804 $554 $652 forward 7 unknown #
point $-1 60.783104953154087 33.400378314585275 3.0168040214806804 #
point $-1 36.446112422883942 33.400378314585275 3.0168040214806808 #
edge $-1 $653 1 $653 0 $406 $-1 forward 7 unknown #
vertex $-1 $407 $654 #
ellipse-curve $-1 43.399538860103981 23.651328979840642 3.5325952620387326 0 0.78801076186113728 0.61566146476048833 2.5 0 0 1 I I #
point $-1 45.899538860103981 29.454873005208675 8.0668206665512905 #
edge $-1 $655 1 $655 0 $410 $-1 forward 7 unknown #
vertex $-1 $411 $656 #
ellipse-curve $-1 53.829678515934042 23.651328979840642 3.5325952620387326 0 0.78801076186113728 0.61566146476048833 2.5 0 0 1 I I #
point $-1 56.329678515934042 29.454873005208675 8.0668206665512905 #
plane-surface $-1 60.783104953154087 0 0 -1 0 0 0 0 1 forward_v I I I I #
coedge $-1 $419 $417 $421 $576 reversed $281 $-1 #
edge $-1 $432 -13.116837311621898 $578 13.116837311621898 $431 $657 forward 7 unknown #
vertex $-1 $576 $658 #
straight-curve $-1 -60.783104953154087 -33.400378314585275 0 0 0 -1 I I #
edge $-1 $574 -33.400378314585275 $578 33.400378314585275 $572 $659 forward 7 unknown #
straight-curve $-1 0 -33.400378314585275 -13.116837311621898 -1 0 0 I I #
vertex $-1 $424 $660 #
straight-curve $-1 0 33.400378314585275 -13.116837311621898 1 0 0 I I #
point $-1 60.783104953154087 33.400378314585275 -13.116837311621898 #
point $-1 60.783104953154087 -33.400378314585275 -13.116837311621898 #
straight-curve $-1 -60.783104953154087 0 13.116837311621898 0 -1 0 I I #
point $-1 -60.783104953154087 33.400378314585275 13.116837311621898 #
point $-1 -60.783104953154087 -33.400378314585275 13.116837311621898 #
straight-curve $-1 60.783104953154087 -33.400378314585275 0 0 0 -1 I I #
straight-curve $-1 60.783104953154087 33.400378314585275 0 0 0 -1 I I #
plane-surface $-1 -60.783104953154087 0 0 1 0 0 0 0 -1 forward_v I I I I #
edge $-1 $453 3.1537456504482009 $457 9.0709936674449523 $456 $661 forward 7 unknown #
edge $-1 $461 -9.0709936674449523 $452 -3.1537456504482009 $459 $662 forward 7 unknown #
straight-curve $-1 -49.891634544491751 -15.183363326391529 0 0 0 -1 I I #
edge $-1 $594 -13.116837311621898 $592 13.116837311621898 $463 $663 forward 7 unknown #
vertex $-1 $591 $664 #
straight-curve $-1 -27.668684874411461 -9.2661153093947775 -13.116837311621898 1 0 0 I I #
vertex $-1 $464 $665 #
straight-curve $-1 -27.668684874411461 -9.2661153093947775 13.116837311621898 -1 0 0 I I #
point $-1 -49.891634544491751 -9.2661153093947775 13.116837311621898 #
point $-1 -49.891634544491751 -9.2661153093947775 -13.116837311621898 #
point $-1 -49.891634544491751 -15.183363326391529 -13.116837311621898 #
point $-1 -49.891634544491751 -15.183363326391529 13.116837311621898 #
straight-curve $-1 -60.783104953154087 0 13.116837311621898 0 -1 0 I I #
straight-curve $-1 -60.783104953154087 0 -13.116837311621898 0 1 0 I I #
edge $-1 $603 25.813380127267777 $606 35.913413417408989 $469 $666 forward 7 unknown #
vertex $-1 $483 $667 #
straight-curve $-1 -18.891257325938987 -64.59792999971306 13.1168373116219 0 -1 0 I I #
edge $-1 $606 -15.529876795537035 $480 8.8071157347331308 $479 $668 forward 7 unknown #
vertex $-1 $605 $669 #
straight-curve $-1 -18.891257325938987 -33.400378314585282 3.0168040214806808 0 0.61566146476048833 0.78801076186113728 I I #
point $-1 -18.891257325938987 -25.509367695832079 13.116837311621898 #
point $-1 5.4457352043311786 -33.400378314585275 3.0168040214806897 #
straight-curve $-1 0 -33.400378314585275 13.116837311621898 1 0 0 I I #
vertex $-1 $486 $670 #
point $-1 -9.4378308887189419 -23.651328979840642 3.5325952620387344 #
vertex $-1 $490 $671 #
point $-1 0.99230876711112614 -23.651328979840642 3.5325952620387344 #
coedge $-1 $497 $496 $504 $620 reversed $215 $-1 #
edge $-1 $500 36.446112422883942 $623 60.783104953154087 $497 $672 forward 7 unknown #
straight-curve $-1 36.446112422883942 -33.400378314585275 38.930217438889677 0 0 -1 I I #
point $-1 36.446112422883942 -33.400378314585275 13.116837311621898 #
straight-curve $-1 24.307304344009513 -33.400378314585275 3.0168040214806977 1 0 0 I I #
edge $-1 $623 -13.116837311621898 $505 -3.0168040214806897 $504 $673 forward 7 unknown #
point $-1 60.783104953154108 -33.400378314585275 3.0168040214806897 #
point $-1 36.446112422883942 -33.400378314585275 3.0168040214806897 #
vertex $-1 $509 $674 #
straight-curve $-1 60.783104953154087 0 13.116837311621898 0 1 0 I I #
vertex $-1 $512 $675 #
point $-1 45.899538860103981 -23.651328979840642 3.5325952620387344 #
vertex $-1 $516 $676 #
point $-1 56.329678515934042 -23.651328979840642 3.5325952620387344 #
coedge $-1 $531 $530 $523 $630 forward $520 $-1 #
edge $-1 $631 52.133237689394328 $634 62.233270979535547 $629 $677 forward 7 unknown #
vertex $-1 $535 $678 #
straight-curve $-1 5.4457352043311786 44.034604163001035 13.1168373116219 0 1 0 I I #
edge $-1 $634 -8.8071157347331308 $532 15.529876795537035 $531 $679 forward 7 unknown #
vertex $-1 $633 $680 #
straight-curve $-1 5.4457352043311786 -7.7262733588387675 55.656519145733782 0 -0.61566146476048833 0.78801076186113728 I I #
point $-1 5.4457352043311786 25.509367695832069 13.1168373116219 #
point $-1 -18.891257325938987 33.400378314585275 3.0168040214806808 #
straight-curve $-1 0 33.400378314585275 13.116837311621898 -1 0 0 I I #
vertex $-1 $538 $681 #
point $-1 -9.4378308887189419 23.651328979840642 3.5325952620387326 #
vertex $-1 $542 $682 #
point $-1 0.99230876711112614 23.651328979840642 3.5325952620387326 #
coedge $-1 $548 $547 $555 $648 forward $259 $-1 #
edge $-1 $651 -60.783104953154087 $551 -36.446112422883942 $550 $683 forward 7 unknown #
straight-curve $-1 36.446112422883942 44.034604163001035 13.1168373116219 0 -1 0 I I #
point $-1 36.446112422883942 33.400378314585275 13.116837311621898 #
straight-curve $-1 24.307304344009513 25.509367695832069 13.116837311621897 1 0 0 I I #
edge $-1 $556 25.509367695832069 $651 33.400378314585275 $555 $684 forward 7 unknown #
point $-1 60.783104953154108 25.509367695832069 13.1168373116219 #
point $-1 36.446112422883942 25.509367695832069 13.1168373116219 #
vertex $-1 $648 $685 #
straight-curve $-1 60.783104953154087 33.400378314585275 0 0 0 -1 I I #
vertex $-1 $563 $686 #
point $-1 45.899538860103981 23.651328979840642 3.5325952620387326 #
vertex $-1 $567 $687 #
point $-1 56.329678515934042 23.651328979840642 3.5325952620387326 #
straight-curve $-1 -60.783104953154087 33.400378314585275 0 0 0 -1 I I #
point $-1 -60.783104953154087 -33.400378314585275 -13.116837311621898 #
straight-curve $-1 -60.783104953154087 0 -13.116837311621898 0 1 0 I I #
point $-1 -60.783104953154087 33.400378314585275 -13.116837311621898 #
straight-curve $-1 -49.891634544491751 -6.1123696589465766 -13.116837311621898 0 -1 0 I I #
straight-curve $-1 -49.891634544491751 -6.1123696589465766 13.116837311621898 0 1 0 I I #
straight-curve $-1 -60.783104953154087 -9.2661153093947775 0 0 0 -1 I I #
point $-1 -60.783104953154094 -9.2661153093947775 -13.116837311621898 #
point $-1 -60.783104953154094 -9.2661153093947775 13.116837311621898 #
straight-curve $-1 -18.891257325938987 -33.400378314585275 38.930217438889677 0 0 -1 I I #
point $-1 -18.891257325938987 -33.400378314585275 13.116837311621898 #
straight-curve $-1 -3.3613805304019522 -33.400378314585275 3.0168040214806977 1 0 0 I I #
point $-1 -18.891257325938987 -33.400378314585275 3.0168040214806897 #
point $-1 -11.937830888718942 -21.681302075187801 1.9934416001375137 #
point $-1 -1.5076912328888739 -21.681302075187801 1.9934416001375137 #
straight-curve $-1 0 -33.400378314585275 13.116837311621898 1 0 0 I I #
straight-curve $-1 60.783104953154087 -33.400378314585275 0 0 0 -1 I I #
point $-1 60.783104953154087 -33.400378314585275 13.116837311621898 #
point $-1 43.399538860103981 -21.681302075187801 1.9934416001375137 #
point $-1 53.829678515934042 -21.681302075187801 1.9934416001375137 #
straight-curve $-1 5.4457352043311786 33.400378314585275 65.250075001016228 0 0 -1 I I #
point $-1 5.4457352043311786 33.400378314585275 13.116837311621898 #
straight-curve $-1 -3.3613805304019522 33.400378314585275 3.0168040214806773 -1 0 0 I I #
point $-1 5.4457352043311786 33.400378314585275 3.0168040214806808 #
point $-1 -11.937830888718942 21.681302075187801 1.9934416001375119 #
point $-1 -1.5076912328888739 21.681302075187801 1.9934416001375119 #
straight-curve $-1 0 33.400378314585275 13.116837311621898 -1 0 0 I I #
straight-curve $-1 60.783104953154087 0 13.116837311621898 0 1 0 I I #
point $-1 60.783104953154087 33.400378314585275 13.116837311621898 #
point $-1 43.399538860103981 21.681302075187801 1.9934416001375119 #
point $-1 53.829678515934042 21.681302075187801 1.9934416001375119 #
End-of-ACIS-data 