500 0 6 0           
7 Unknown 11 ACIS 5.0 NT 24 Fri Mar 26 19:19:51 1999 
-1 9.9999999999999995e-007 1e-010 
body $-1 $6 $-1 $7 #
body $-1 $8 $-1 $9 #
body $-1 $10 $-1 $11 #
body $-1 $12 $-1 $13 #
body $-1 $14 $-1 $15 #
body $-1 $16 $-1 $17 #
lump $-1 $-1 $18 $0 #
transform $-1 1 0 0 0 1 0 0 0 1 63.800775170140689 32.770548613652025 11.108902946130637 1 rotate no_reflect no_shear #
lump $-1 $-1 $19 $1 #
transform $-1 1 0 0 0 1 0 0 0 1 63.800775170140689 32.770548613652025 11.108902946130637 1 rotate no_reflect no_shear #
lump $-1 $-1 $20 $2 #
transform $-1 1 0 0 0 1 0 0 0 1 63.800775170140689 32.770548613652025 11.108902946130637 1 rotate no_reflect no_shear #
lump $-1 $-1 $21 $3 #
transform $-1 1 0 0 0 1 0 0 0 1 63.800775170140689 32.770548613652025 11.108902946130637 1 rotate no_reflect no_shear #
lump $-1 $-1 $22 $4 #
transform $-1 1 0 0 0 1 0 0 0 1 63.800775170140689 32.770548613652025 11.108902946130637 1 rotate no_reflect no_shear #
lump $-1 $-1 $23 $5 #
transform $-1 1 0 0 0 1 0 0 0 1 63.800775170140689 32.770548613652025 11.108902946130637 1 rotate no_reflect no_shear #
shell $-1 $-1 $-1 $24 $-1 $6 #
shell $-1 $-1 $-1 $25 $-1 $8 #
shell $-1 $-1 $-1 $26 $-1 $10 #
shell $-1 $-1 $-1 $27 $-1 $12 #
shell $-1 $-1 $-1 $28 $-1 $14 #
shell $-1 $-1 $-1 $29 $-1 $16 #
face $-1 $30 $31 $18 $-1 $32 forward single #
face $-1 $33 $34 $19 $-1 $35 forward single #
face $-1 $36 $37 $20 $-1 $38 reversed single #
face $-1 $39 $40 $21 $-1 $41 forward single #
face $-1 $42 $43 $22 $-1 $44 reversed single #
face $-1 $45 $46 $23 $-1 $47 forward single #
face $-1 $48 $49 $18 $-1 $50 reversed single #
loop $-1 $-1 $51 $24 #
plane-surface $-1 0 0 11.108902946130637 0 0 1 1 0 0 forward_v I I I I #
face $-1 $52 $53 $19 $-1 $54 reversed single #
loop $-1 $-1 $55 $25 #
plane-surface $-1 0 -27.164070032639284 -4.6298905054945045 0 0 1 1 0 0 forward_v I I I I #
face $-1 $56 $57 $20 $-1 $58 reversed single #
loop $-1 $-1 $59 $26 #
plane-surface $-1 -155.58964996611957 17.129660000911187 91.298814089809838 0 1 0 -0.71933980857756763 0 0.69465836192734942 forward_v I I I I #
face $-1 $60 $61 $21 $-1 $62 forward single #
loop $-1 $63 $64 $27 #
cone-surface $-1 -58.1704593103062 22.459200460799288 5.3868285415096997 0.71933980857756763 0 -0.69465836192734942 1.3893167238546988 0 1.4386796171551353 1 I I 0 1 2 forward I I I I #
face $-1 $65 $66 $22 $-1 $67 reversed single #
loop $-1 $-1 $68 $28 #
plane-surface $-1 66.950166027349468 27.788740920687388 183.08768888578874 0 -1 0 -0.71933980857756763 0 -0.69465836192734942 forward_v I I I I #
face $-1 $69 $70 $23 $-1 $71 forward single #
loop $-1 $72 $73 $29 #
cone-surface $-1 58.170459310306192 22.459200460799288 5.386828541509705 -0.71933980857756763 0 -0.69465836192734942 1.3893167238546988 0 -1.4386796171551353 1 I I 0 1 2 forward I I I I #
face $-1 $74 $75 $18 $-1 $76 reversed single #
loop $-1 $-1 $77 $30 #
plane-surface $-1 0 0 -11.108902946130637 0 0 1 1 0 0 forward_v I I I I #
coedge $-1 $78 $79 $80 $81 forward $31 $-1 #
face $-1 $82 $83 $19 $-1 $84 reversed single #
loop $-1 $-1 $85 $33 #
plane-surface $-1 0 -21.557591451626543 -7.869396725812571 0 -1 0 0 0 -1 forward_v I I I I #
coedge $-1 $86 $87 $88 $89 reversed $34 $-1 #
face $-1 $90 $91 $20 $-1 $92 reversed single #
loop $-1 $-1 $93 $36 #
plane-surface $-1 -63.800775170140696 22.459200460799288 2.6593301510397538 -0.71933980857756763 0 0.69465836192734942 0.69465836192734942 0 0.71933980857756763 forward_v I I I I #
coedge $-1 $94 $95 $96 $97 reversed $37 $-1 #
face $-1 $-1 $98 $21 $-1 $99 forward single #
loop $-1 $100 $101 $39 #
cone-surface $-1 -55.900632345125715 22.459200460799288 3.1948821725068495 0.71933980857756763 0 -0.69465836192734942 0.69465836192734942 0 0.71933980857756763 1 I I -0.70710678118654746 0.70710678118654746 1 forward I I I I #
loop $-1 $-1 $102 $27 #
coedge $-1 $64 $64 $103 $104 reversed $40 $-1 #
face $-1 $105 $106 $22 $-1 $107 reversed single #
loop $-1 $-1 $108 $42 #
plane-surface $-1 -24.838708768629402 22.459200460799288 94.448204947018652 0.71933980857756763 0 0.69465836192734942 0.69465836192734942 0 -0.71933980857756763 forward_v I I I I #
coedge $-1 $109 $110 $111 $112 reversed $43 $-1 #
face $-1 $-1 $113 $23 $-1 $114 forward single #
loop $-1 $115 $116 $45 #
cone-surface $-1 55.900632345125707 22.459200460799288 3.1948821725068548 -0.71933980857756763 0 -0.69465836192734942 0.69465836192734942 0 -0.71933980857756763 1 I I -0.70710678118654746 0.70710678118654746 1 forward I I I I #
loop $-1 $-1 $117 $29 #
coedge $-1 $73 $73 $118 $119 reversed $46 $-1 #
face $-1 $120 $121 $18 $-1 $122 reversed single #
loop $-1 $-1 $123 $48 #
plane-surface $-1 0 -32.770548613652025 0 0 1 0 0 0 1 forward_v I I I I #
coedge $-1 $124 $125 $126 $127 forward $49 $-1 #
coedge $-1 $128 $51 $129 $130 forward $31 $-1 #
coedge $-1 $51 $128 $131 $132 forward $31 $-1 #
coedge $-1 $133 $134 $51 $81 reversed $135 $-1 #
edge $-1 $136 -32.770548613652025 $137 32.770548613652025 $80 $138 forward 7 unknown #
face $-1 $139 $140 $19 $-1 $141 reversed single #
loop $-1 $-1 $142 $52 #
plane-surface $-1 0 0 -11.108902946130637 0 0 1 1 0 0 forward_v I I I I #
coedge $-1 $143 $144 $145 $146 reversed $53 $-1 #
coedge $-1 $147 $55 $144 $148 forward $34 $-1 #
coedge $-1 $55 $147 $149 $150 reversed $34 $-1 #
coedge $-1 $151 $145 $55 $89 forward $140 $-1 #
edge $-1 $152 7.9755564353069008 $153 19.188513597332381 $88 $154 forward 7 unknown #
face $-1 $155 $156 $20 $-1 $157 forward single #
loop $-1 $-1 $158 $56 #
plane-surface $-1 -155.58964996611957 27.788740920687388 91.298814089809838 0 -1 0 0.71933980857756763 0 -0.69465836192734942 forward_v I I I I #
coedge $-1 $159 $160 $161 $162 reversed $57 $-1 #
coedge $-1 $95 $59 $163 $164 reversed $37 $-1 #
coedge $-1 $59 $94 $159 $165 reversed $37 $-1 #
coedge $-1 $161 $166 $59 $97 forward $156 $-1 #
edge $-1 $167 13.994049812919094 $168 22.153707219382227 $96 $169 forward 7 unknown #
loop $-1 $-1 $103 $60 #
plane-surface $-1 -63.800775170140696 22.459200460799288 2.6593301510397538 -0.71933980857756763 0 0.69465836192734942 0.69465836192734942 0 0.71933980857756763 forward_v I I I I #
loop $-1 $-1 $170 $39 #
coedge $-1 $101 $101 $102 $171 reversed $61 $-1 #
coedge $-1 $102 $102 $101 $171 forward $63 $-1 #
coedge $-1 $103 $103 $64 $104 forward $98 $-1 #
edge $-1 $172 0 $172 6.2831853071796004 $103 $173 forward 7 unknown #
face $-1 $174 $175 $22 $-1 $176 reversed single #
loop $-1 $-1 $177 $65 #
plane-surface $-1 66.950166027349468 17.129660000911187 183.08768888578874 0 1 0 0.71933980857756763 0 0.69465836192734942 forward_v I I I I #
coedge $-1 $178 $179 $180 $181 reversed $66 $-1 #
coedge $-1 $110 $68 $182 $183 reversed $43 $-1 #
coedge $-1 $68 $109 $178 $184 reversed $43 $-1 #
coedge $-1 $180 $185 $68 $112 forward $186 $-1 #
edge $-1 $187 -30.325692156465955 $188 -22.166034750002822 $111 $189 forward 7 unknown #
loop $-1 $-1 $118 $69 #
plane-surface $-1 -24.838708768629402 22.459200460799288 94.448204947018652 0.71933980857756763 0 0.69465836192734942 0.69465836192734942 0 -0.71933980857756763 forward_v I I I I #
loop $-1 $-1 $190 $45 #
coedge $-1 $116 $116 $117 $191 reversed $70 $-1 #
coedge $-1 $117 $117 $116 $191 forward $72 $-1 #
coedge $-1 $118 $118 $73 $119 forward $113 $-1 #
edge $-1 $192 0 $192 6.2831853071796004 $118 $193 forward 7 unknown #
face $-1 $194 $195 $18 $-1 $196 reversed single #
loop $-1 $-1 $197 $74 #
plane-surface $-1 -63.800775170140689 0 0 1 0 0 0 0 -1 forward_v I I I I #
coedge $-1 $198 $131 $199 $200 forward $75 $-1 #
coedge $-1 $201 $77 $198 $202 forward $49 $-1 #
coedge $-1 $77 $201 $203 $204 forward $49 $-1 #
coedge $-1 $134 $133 $77 $127 reversed $135 $-1 #
edge $-1 $205 -32.770548613652025 $206 32.770548613652025 $126 $207 forward 7 unknown #
coedge $-1 $79 $78 $208 $209 forward $31 $-1 #
coedge $-1 $210 $211 $78 $130 reversed $195 $-1 #
edge $-1 $137 -63.800775170140689 $212 63.800775170140689 $129 $213 forward 7 unknown #
coedge $-1 $123 $214 $79 $132 reversed $75 $-1 #
edge $-1 $215 -63.800775170140689 $136 63.800775170140689 $131 $216 forward 7 unknown #
coedge $-1 $126 $80 $214 $217 forward $135 $-1 #
coedge $-1 $80 $126 $210 $218 reversed $135 $-1 #
loop $-1 $-1 $133 $194 #
vertex $-1 $81 $219 #
vertex $-1 $81 $220 #
straight-curve $-1 63.800775170140689 0 11.108902946130637 0 1 0 I I #
face $-1 $221 $222 $19 $-1 $223 reversed single #
loop $-1 $-1 $145 $82 #
plane-surface $-1 63.800775170140689 0 0 -1 0 0 0 0 1 forward_v I I I I #
coedge $-1 $224 $225 $143 $226 forward $83 $-1 #
coedge $-1 $227 $85 $142 $226 reversed $53 $-1 #
coedge $-1 $85 $227 $86 $148 reversed $53 $-1 #
coedge $-1 $88 $228 $85 $146 forward $140 $-1 #
edge $-1 $229 -7.1742045832243519 $152 -0.69519214258821904 $145 $230 forward 7 unknown #
coedge $-1 $87 $86 $231 $232 reversed $34 $-1 #
edge $-1 $152 -63.800775170140689 $233 63.800775170140689 $144 $234 forward 7 unknown #
coedge $-1 $235 $236 $87 $150 forward $222 $-1 #
edge $-1 $153 -63.800775170140689 $237 63.800775170140689 $149 $238 forward 7 unknown #
coedge $-1 $228 $88 $236 $239 forward $140 $-1 #
vertex $-1 $89 $240 #
vertex $-1 $239 $241 #
straight-curve $-1 63.800775170140689 -13.582035016319642 -4.6298905054945045 0 -1 0 I I #
face $-1 $-1 $242 $20 $-1 $243 reversed single #
loop $-1 $-1 $96 $90 #
plane-surface $-1 0 0 11.108902946130637 0 0 1 1 0 0 forward_v I I I I #
coedge $-1 $244 $245 $246 $247 reversed $91 $-1 #
coedge $-1 $248 $93 $95 $165 forward $57 $-1 #
coedge $-1 $93 $248 $244 $249 forward $57 $-1 #
coedge $-1 $246 $96 $93 $162 forward $156 $-1 #
edge $-1 $168 5.9000597705115432 $250 16.559140690287744 $161 $251 forward 7 unknown #
coedge $-1 $252 $253 $94 $164 forward $242 $-1 #
edge $-1 $254 -42.990076893865158 $167 -34.540504098774278 $163 $255 forward 7 unknown #
edge $-1 $168 -11.746288324844947 $254 -1.0366512331508311e-014 $95 $256 forward 7 unknown #
coedge $-1 $96 $246 $252 $257 forward $156 $-1 #
vertex $-1 $164 $258 #
vertex $-1 $97 $259 #
straight-curve $-1 -77.794824983059783 17.129660000911187 11.108902946130634 1 0 0 I I #
coedge $-1 $170 $170 $-1 $260 reversed $100 $-1 #
edge $-1 $261 0 $261 6.2831853071796004 $101 $262 forward 7 unknown #
vertex $-1 $104 $263 #
ellipse-curve $-1 -59.720946466909119 22.459200460799288 6.8841165485852009 -0.71933980857756763 0 0.69465836192734942 1.3893167238546988 0 1.4386796171551353 1 I I #
face $-1 $-1 $186 $22 $-1 $264 forward single #
loop $-1 $-1 $265 $105 #
plane-surface $-1 63.800775170140689 0 0 -1 0 0 0 0 1 forward_v I I I I #
coedge $-1 $266 $267 $268 $269 reversed $106 $-1 #
coedge $-1 $270 $108 $110 $184 forward $66 $-1 #
coedge $-1 $108 $270 $266 $271 forward $66 $-1 #
coedge $-1 $268 $111 $108 $181 forward $186 $-1 #
edge $-1 $188 -16.559140690287744 $272 -5.9000597705115432 $180 $273 forward 7 unknown #
coedge $-1 $274 $275 $109 $183 forward $175 $-1 #
edge $-1 $276 -88.8845142918546 $187 -80.434941496763727 $182 $277 forward 7 unknown #
edge $-1 $188 115.85526201543647 $276 127.60155034028139 $110 $278 forward 7 unknown #
coedge $-1 $111 $268 $274 $279 forward $186 $-1 #
loop $-1 $-1 $268 $174 #
vertex $-1 $183 $280 #
vertex $-1 $112 $281 #
straight-curve $-1 33.475083013674734 27.788740920687388 11.108902946130641 -1 0 0 I I #
coedge $-1 $190 $190 $-1 $282 reversed $115 $-1 #
edge $-1 $283 0 $283 6.2831853071796004 $116 $284 forward 7 unknown #
vertex $-1 $119 $285 #
ellipse-curve $-1 59.720946466909119 22.459200460799288 6.8841165485852116 0.71933980857756763 0 0.69465836192734942 1.3893167238546988 0 -1.4386796171551353 1 I I #
face $-1 $-1 $135 $18 $-1 $286 reversed single #
loop $-1 $-1 $210 $120 #
plane-surface $-1 0 32.770548613652025 0 0 -1 0 0 0 -1 forward_v I I I I #
coedge $-1 $287 $208 $211 $288 forward $121 $-1 #
coedge $-1 $214 $123 $124 $202 reversed $75 $-1 #
coedge $-1 $208 $287 $123 $200 reversed $121 $-1 #
edge $-1 $215 -11.108902946130637 $289 11.108902946130637 $199 $290 forward 7 unknown #
coedge $-1 $125 $124 $287 $291 forward $49 $-1 #
edge $-1 $206 -63.800775170140689 $289 63.800775170140689 $198 $292 forward 7 unknown #
coedge $-1 $211 $210 $125 $204 reversed $195 $-1 #
edge $-1 $293 -63.800775170140689 $205 63.800775170140689 $203 $294 forward 7 unknown #
vertex $-1 $127 $295 #
vertex $-1 $217 $296 #
straight-curve $-1 63.800775170140689 0 -11.108902946130637 0 -1 0 I I #
coedge $-1 $197 $199 $128 $209 reversed $121 $-1 #
edge $-1 $212 -32.770548613652025 $215 32.770548613652025 $208 $297 forward 7 unknown #
coedge $-1 $203 $129 $134 $218 forward $195 $-1 #
coedge $-1 $129 $203 $197 $288 reversed $195 $-1 #
vertex $-1 $130 $298 #
straight-curve $-1 0 32.770548613652025 11.108902946130637 -1 0 0 I I #
coedge $-1 $131 $198 $133 $217 reversed $75 $-1 #
vertex $-1 $209 $299 #
straight-curve $-1 0 -32.770548613652025 11.108902946130637 1 0 0 I I #
edge $-1 $136 -11.108902946130637 $206 11.108902946130637 $133 $300 forward 7 unknown #
edge $-1 $137 -11.108902946130637 $205 11.108902946130637 $134 $301 forward 7 unknown #
point $-1 63.800775170140689 -32.770548613652025 11.108902946130637 #
point $-1 63.800775170140689 32.770548613652025 11.108902946130637 #
face $-1 $-1 $302 $19 $-1 $303 reversed single #
loop $-1 $-1 $149 $139 #
plane-surface $-1 0 -32.770548613652025 0 0 1 0 0 0 1 forward_v I I I I #
coedge $-1 $304 $142 $228 $305 forward $83 $-1 #
coedge $-1 $142 $304 $306 $307 forward $83 $-1 #
edge $-1 $308 -63.800775170140689 $229 63.800775170140689 $142 $309 forward 7 unknown #
coedge $-1 $144 $143 $310 $311 reversed $53 $-1 #
coedge $-1 $145 $151 $224 $305 reversed $140 $-1 #
vertex $-1 $305 $312 #
straight-curve $-1 63.800775170140689 -21.557591451626543 -3.9346983629062855 0 0 1 I I #
coedge $-1 $310 $313 $147 $232 forward $302 $-1 #
edge $-1 $237 -19.188513597332381 $233 -7.9755564353069008 $231 $314 forward 7 unknown #
vertex $-1 $232 $315 #
straight-curve $-1 0 -21.557591451626543 -4.6298905054945045 -1 0 0 I I #
coedge $-1 $316 $149 $313 $317 forward $222 $-1 #
coedge $-1 $149 $316 $151 $239 reversed $222 $-1 #
vertex $-1 $317 $318 #
straight-curve $-1 0 -32.770548613652025 -4.6298905054945045 -1 0 0 I I #
edge $-1 $153 4.6298905054945045 $319 11.108902946130637 $151 $320 forward 7 unknown #
point $-1 63.800775170140689 -21.557591451626543 -4.6298905054945045 #
point $-1 63.800775170140689 -32.770548613652025 -4.6298905054945045 #
loop $-1 $-1 $163 $155 #
plane-surface $-1 -63.800775170140689 0 0 1 0 0 0 0 -1 forward_v I I I I #
coedge $-1 $245 $158 $160 $249 reversed $91 $-1 #
coedge $-1 $158 $244 $321 $322 reversed $91 $-1 #
coedge $-1 $166 $161 $158 $247 forward $156 $-1 #
edge $-1 $250 -22.153707219382227 $323 -13.994049812919094 $246 $324 forward 7 unknown #
coedge $-1 $160 $159 $253 $325 reversed $57 $-1 #
edge $-1 $326 1.0366512331508311e-014 $250 11.746288324844947 $244 $327 forward 7 unknown #
vertex $-1 $162 $328 #
straight-curve $-1 -55.641117763677549 11.229600230399644 11.108902946130639 0 1 0 I I #
coedge $-1 $321 $163 $166 $257 reversed $242 $-1 #
coedge $-1 $163 $321 $248 $325 forward $242 $-1 #
vertex $-1 $164 $329 #
straight-curve $-1 -63.800775170140689 17.129660000911187 45.649407044904919 0 0 1 I I #
straight-curve $-1 -63.800775170140696 17.129660000911187 2.6593301510397538 -0.69465836192734942 0 -0.71933980857756763 I I #
edge $-1 $323 -27.788740920687388 $167 -17.129660000911187 $252 $330 forward 7 unknown #
point $-1 -63.800775170140689 17.129660000911187 11.108902946130637 #
point $-1 -55.641117763677556 17.129660000911187 11.108902946130637 #
edge $-1 $331 1 $331 0 $170 $-1 forward 7 unknown #
vertex $-1 $171 $332 #
ellipse-curve $-1 -56.61997215370328 22.459200460799288 3.8895405344341989 -0.71933980857756763 0 0.69465836192734942 1.3893167238546988 0 1.4386796171551353 1 I I #
point $-1 -58.331629743054421 22.459200460799288 8.3227961657403355 #
plane-surface $-1 0 0 11.108902946130637 0 0 1 1 0 0 forward_v I I I I #
coedge $-1 $275 $274 $267 $333 forward $175 $-1 #
coedge $-1 $267 $177 $179 $271 reversed $106 $-1 #
coedge $-1 $177 $266 $265 $333 reversed $106 $-1 #
coedge $-1 $185 $180 $177 $269 forward $186 $-1 #
edge $-1 $272 22.166034750002822 $334 30.325692156465955 $268 $335 forward 7 unknown #
coedge $-1 $179 $178 $275 $336 reversed $66 $-1 #
edge $-1 $337 -127.60155034028139 $272 -115.85526201543647 $266 $338 forward 7 unknown #
vertex $-1 $181 $339 #
straight-curve $-1 55.64111776367757 11.229600230399644 11.108902946130641 0 -1 0 I I #
coedge $-1 $265 $182 $185 $279 reversed $175 $-1 #
coedge $-1 $182 $265 $270 $336 forward $175 $-1 #
vertex $-1 $183 $340 #
straight-curve $-1 63.800775170140689 27.788740920687388 91.543844442894368 0 0 1 I I #
straight-curve $-1 -24.838708768629402 27.788740920687388 94.448204947018652 0.69465836192734942 0 -0.71933980857756763 I I #
edge $-1 $334 17.129660000911187 $187 27.788740920687388 $274 $341 forward 7 unknown #
point $-1 63.800775170140689 27.788740920687388 11.108902946130637 #
point $-1 55.641117763677556 27.788740920687388 11.108902946130641 #
edge $-1 $342 1 $342 0 $190 $-1 forward 7 unknown #
vertex $-1 $191 $343 #
ellipse-curve $-1 56.619972153703273 22.459200460799288 3.8895405344342042 0.71933980857756763 0 0.69465836192734942 1.3893167238546988 0 -1.4386796171551353 1 I I #
point $-1 61.110263190763817 22.459200460799288 5.4454369314300699 #
plane-surface $-1 63.800775170140689 0 0 -1 0 0 0 0 1 forward_v I I I I #
coedge $-1 $199 $197 $201 $291 reversed $121 $-1 #
edge $-1 $212 -11.108902946130637 $293 11.108902946130637 $211 $344 forward 7 unknown #
vertex $-1 $291 $345 #
straight-curve $-1 -63.800775170140689 -32.770548613652025 0 0 0 -1 I I #
edge $-1 $289 -32.770548613652025 $293 32.770548613652025 $287 $346 forward 7 unknown #
straight-curve $-1 0 -32.770548613652025 -11.108902946130637 -1 0 0 I I #
vertex $-1 $204 $347 #
straight-curve $-1 0 32.770548613652025 -11.108902946130637 1 0 0 I I #
point $-1 63.800775170140689 32.770548613652025 -11.108902946130637 #
point $-1 63.800775170140689 -32.770548613652025 -11.108902946130637 #
straight-curve $-1 -63.800775170140689 0 11.108902946130637 0 -1 0 I I #
point $-1 -63.800775170140689 32.770548613652025 11.108902946130637 #
point $-1 -63.800775170140689 -32.770548613652025 11.108902946130637 #
straight-curve $-1 63.800775170140689 -32.770548613652025 0 0 0 -1 I I #
straight-curve $-1 63.800775170140689 32.770548613652025 0 0 0 -1 I I #
loop $-1 $-1 $310 $221 #
plane-surface $-1 -63.800775170140689 0 0 1 0 0 0 0 -1 forward_v I I I I #
coedge $-1 $225 $224 $316 $348 forward $83 $-1 #
edge $-1 $229 21.557591451626543 $319 32.770548613652025 $228 $349 forward 7 unknown #
coedge $-1 $313 $310 $225 $307 reversed $302 $-1 #
edge $-1 $350 -32.770548613652025 $308 -21.557591451626543 $306 $351 forward 7 unknown #
vertex $-1 $311 $352 #
straight-curve $-1 0 -21.557591451626543 -11.108902946130637 1 0 0 I I #
coedge $-1 $306 $231 $227 $311 forward $302 $-1 #
edge $-1 $233 0.69519214258821904 $308 7.1742045832243519 $310 $353 forward 7 unknown #
point $-1 63.800775170140689 -21.557591451626543 -11.108902946130637 #
coedge $-1 $231 $306 $235 $317 reversed $302 $-1 #
straight-curve $-1 -63.800775170140689 -13.582035016319642 -4.6298905054945045 0 1 0 I I #
point $-1 -63.800775170140689 -21.557591451626543 -4.6298905054945045 #
coedge $-1 $236 $235 $304 $348 reversed $222 $-1 #
edge $-1 $237 4.6298905054945045 $350 11.108902946130637 $313 $354 forward 7 unknown #
point $-1 -63.800775170140689 -32.770548613652025 -4.6298905054945045 #
vertex $-1 $239 $355 #
straight-curve $-1 63.800775170140689 -32.770548613652025 0 0 0 -1 I I #
coedge $-1 $253 $252 $245 $322 forward $242 $-1 #
edge $-1 $323 34.540504098774278 $326 42.990076893865158 $321 $356 forward 7 unknown #
vertex $-1 $257 $357 #
straight-curve $-1 -77.794824983059783 27.788740920687388 11.108902946130634 -1 0 0 I I #
edge $-1 $326 -16.559140690287744 $254 -5.9000597705115432 $253 $358 forward 7 unknown #
vertex $-1 $325 $359 #
straight-curve $-1 -63.800775170140696 27.788740920687388 2.6593301510397538 0.69465836192734942 0 0.71933980857756763 I I #
point $-1 -55.641117763677556 27.788740920687388 11.108902946130637 #
point $-1 -63.800775170140689 17.129660000911187 2.6593301510397613 #
straight-curve $-1 -63.800775170140689 0 11.108902946130637 0 -1 0 I I #
vertex $-1 $260 $360 #
point $-1 -55.230655429848582 22.459200460799288 5.3282201515893339 #
edge $-1 $334 80.434941496763727 $337 88.8845142918546 $265 $361 forward 7 unknown #
vertex $-1 $279 $362 #
straight-curve $-1 33.475083013674734 17.129660000911187 11.108902946130641 1 0 0 I I #
edge $-1 $337 5.9000597705115432 $276 16.559140690287744 $275 $363 forward 7 unknown #
vertex $-1 $336 $364 #
straight-curve $-1 -24.838708768629402 17.129660000911187 94.448204947018652 -0.69465836192734942 0 0.71933980857756763 I I #
point $-1 55.641117763677556 17.129660000911187 11.108902946130641 #
point $-1 63.800775170140696 27.788740920687388 2.659330151039768 #
straight-curve $-1 63.800775170140689 0 11.108902946130637 0 1 0 I I #
vertex $-1 $282 $365 #
point $-1 58.009288877557971 22.459200460799288 2.4508609172790692 #
straight-curve $-1 -63.800775170140689 32.770548613652025 0 0 0 -1 I I #
point $-1 -63.800775170140689 -32.770548613652025 -11.108902946130637 #
straight-curve $-1 -63.800775170140689 0 -11.108902946130637 0 1 0 I I #
point $-1 -63.800775170140689 32.770548613652025 -11.108902946130637 #
edge $-1 $319 -63.800775170140689 $350 63.800775170140689 $316 $366 forward 7 unknown #
straight-curve $-1 63.800775170140689 0 -11.108902946130637 0 -1 0 I I #
vertex $-1 $307 $367 #
straight-curve $-1 -63.800775170140689 0 -11.108902946130637 0 1 0 I I #
point $-1 -63.800775170140689 -21.557591451626543 -11.108902946130637 #
straight-curve $-1 -63.800775170140689 -21.557591451626543 -3.9346983629062855 0 0 -1 I I #
straight-curve $-1 -63.800775170140689 -32.770548613652025 0 0 0 -1 I I #
point $-1 63.800775170140689 -32.770548613652025 -11.108902946130637 #
straight-curve $-1 -63.800775170140689 27.788740920687388 45.649407044904919 0 0 -1 I I #
point $-1 -63.800775170140689 27.788740920687388 11.108902946130637 #
straight-curve $-1 -63.800775170140689 11.229600230399644 2.6593301510397711 0 -1 0 I I #
point $-1 -63.800775170140689 27.788740920687388 2.6593301510397613 #
point $-1 -55.181292536548149 22.459200460799288 2.5002238105795001 #
straight-curve $-1 63.800775170140689 17.129660000911187 91.543844442894368 0 0 -1 I I #
point $-1 63.800775170140689 17.129660000911187 11.108902946130637 #
straight-curve $-1 63.800775170140682 11.229600230399644 2.6593301510397751 0 1 0 I I #
point $-1 63.800775170140696 17.129660000911187 2.659330151039768 #
point $-1 55.181292536548142 22.459200460799288 2.5002238105795054 #
straight-curve $-1 0 -32.770548613652025 -11.108902946130637 -1 0 0 I I #
point $-1 -63.800775170140689 -32.770548613652025 -11.108902946130637 #
End-of-ACIS-data 