500 0 14 0           
7 Unknown 11 ACIS 5.0 NT 24 Thu Mar 25 16:32:36 1999 
-1 9.9999999999999995e-007 1e-010 
body $-1 $14 $-1 $15 #
body $-1 $16 $-1 $17 #
body $-1 $18 $-1 $19 #
body $-1 $20 $-1 $21 #
body $-1 $22 $-1 $23 #
body $-1 $24 $-1 $25 #
body $-1 $26 $-1 $27 #
body $-1 $28 $-1 $29 #
body $-1 $30 $-1 $31 #
body $-1 $32 $-1 $33 #
body $-1 $34 $-1 $35 #
body $-1 $36 $-1 $37 #
body $-1 $38 $-1 $39 #
body $-1 $40 $-1 $41 #
lump $-1 $-1 $42 $0 #
transform $-1 1 0 0 0 1 0 0 0 1 50.00396740623188 22.174829858797413 8.0268458191227801 1 rotate no_reflect no_shear #
lump $-1 $-1 $43 $1 #
transform $-1 1 0 0 0 1 0 0 0 1 50.00396740623188 22.174829858797413 8.0268458191227801 1 rotate no_reflect no_shear #
lump $-1 $-1 $44 $2 #
transform $-1 1 0 0 0 1 0 0 0 1 50.00396740623188 22.174829858797413 8.0268458191227801 1 rotate no_reflect no_shear #
lump $-1 $-1 $45 $3 #
transform $-1 1 0 0 0 1 0 0 0 1 50.00396740623188 22.174829858797413 8.0268458191227801 1 rotate no_reflect no_shear #
lump $-1 $-1 $46 $4 #
transform $-1 1 0 0 0 1 0 0 0 1 50.00396740623188 22.174829858797413 8.0268458191227801 1 rotate no_reflect no_shear #
lump $-1 $-1 $47 $5 #
transform $-1 1 0 0 0 1 0 0 0 1 50.00396740623188 22.174829858797413 8.0268458191227801 1 rotate no_reflect no_shear #
lump $-1 $-1 $48 $6 #
transform $-1 1 0 0 0 1 0 0 0 1 50.00396740623188 22.174829858797413 8.0268458191227801 1 rotate no_reflect no_shear #
lump $-1 $-1 $49 $7 #
transform $-1 1 0 0 0 1 0 0 0 1 50.00396740623188 22.174829858797413 8.0268458191227801 1 rotate no_reflect no_shear #
lump $-1 $-1 $50 $8 #
transform $-1 1 0 0 0 1 0 0 0 1 50.00396740623188 22.174829858797413 8.0268458191227801 1 rotate no_reflect no_shear #
lump $-1 $-1 $51 $9 #
transform $-1 1 0 0 0 1 0 0 0 1 50.00396740623188 22.174829858797413 8.0268458191227801 1 rotate no_reflect no_shear #
lump $-1 $-1 $52 $10 #
transform $-1 1 0 0 0 1 0 0 0 1 50.00396740623188 22.174829858797413 8.0268458191227801 1 rotate no_reflect no_shear #
lump $-1 $-1 $53 $11 #
transform $-1 1 0 0 0 1 0 0 0 1 50.00396740623188 22.174829858797413 8.0268458191227801 1 rotate no_reflect no_shear #
lump $-1 $-1 $54 $12 #
transform $-1 1 0 0 0 1 0 0 0 1 50.00396740623188 22.174829858797413 8.0268458191227801 1 rotate no_reflect no_shear #
lump $-1 $-1 $55 $13 #
transform $-1 1 0 0 0 1 0 0 0 1 50.00396740623188 22.174829858797413 8.0268458191227801 1 rotate no_reflect no_shear #
shell $-1 $-1 $-1 $56 $-1 $14 #
shell $-1 $-1 $-1 $57 $-1 $16 #
shell $-1 $-1 $-1 $58 $-1 $18 #
shell $-1 $-1 $-1 $59 $-1 $20 #
shell $-1 $-1 $-1 $60 $-1 $22 #
shell $-1 $-1 $-1 $61 $-1 $24 #
shell $-1 $-1 $-1 $62 $-1 $26 #
shell $-1 $-1 $-1 $63 $-1 $28 #
shell $-1 $-1 $-1 $64 $-1 $30 #
shell $-1 $-1 $-1 $65 $-1 $32 #
shell $-1 $-1 $-1 $66 $-1 $34 #
shell $-1 $-1 $-1 $67 $-1 $36 #
shell $-1 $-1 $-1 $68 $-1 $38 #
shell $-1 $-1 $-1 $69 $-1 $40 #
face $-1 $70 $71 $42 $-1 $72 forward single #
face $-1 $73 $74 $43 $-1 $75 reversed single #
face $-1 $76 $77 $44 $-1 $78 reversed single #
face $-1 $79 $80 $45 $-1 $81 forward single #
face $-1 $82 $83 $46 $-1 $84 forward single #
face $-1 $85 $86 $47 $-1 $87 reversed single #
face $-1 $88 $89 $48 $-1 $90 forward single #
face $-1 $91 $92 $49 $-1 $93 forward single #
face $-1 $94 $95 $50 $-1 $96 reversed single #
face $-1 $97 $98 $51 $-1 $99 forward single #
face $-1 $100 $101 $52 $-1 $102 forward single #
face $-1 $103 $104 $53 $-1 $105 reversed single #
face $-1 $106 $107 $54 $-1 $108 forward single #
face $-1 $109 $110 $55 $-1 $111 forward single #
face $-1 $112 $113 $42 $-1 $114 reversed single #
loop $-1 $-1 $115 $56 #
plane-surface $-1 0 0 8.0268458191227801 0 0 1 1 0 0 forward_v I I I I #
face $-1 $116 $117 $43 $-1 $118 reversed single #
loop $-1 $-1 $119 $57 #
plane-surface $-1 0 -18.271345855305057 5.0268458191227801 0 0 1 1 0 0 forward_v I I I I #
face $-1 $120 $121 $44 $-1 $122 reversed single #
loop $-1 $-1 $123 $58 #
plane-surface $-1 -115.61507680852574 -7.9373619797443054 75.749405238646943 0 1 0 -0.6560590369687036 0 0.75470957328743171 forward_v I I I I #
face $-1 $124 $125 $45 $-1 $126 forward single #
loop $-1 $127 $128 $59 #
cone-surface $-1 -44.99361898327286 -5.8557127467970496 3.5167798071952587 0.6560590369687036 0 -0.75470957328743171 0.37735478664371586 0 0.3280295184843518 1 I I 0 1 0.5 forward I I I I #
face $-1 $129 $130 $46 $-1 $131 forward single #
loop $-1 $132 $133 $60 #
cone-surface $-1 -44.99361898327286 -2.7332388973761681 3.5167798071952587 0.6560590369687036 0 -0.75470957328743171 0.37735478664371586 0 0.3280295184843518 1 I I 0 1 0.5 forward I I I I #
face $-1 $134 $135 $47 $-1 $136 reversed single #
loop $-1 $-1 $137 $61 #
plane-surface $-1 -115.61507680852574 10.333983875560747 75.749405238646943 0 1 0 -0.6560590369687036 0 0.75470957328743171 forward_v I I I I #
face $-1 $138 $139 $48 $-1 $140 forward single #
loop $-1 $141 $142 $62 #
cone-surface $-1 -44.99361898327286 12.415633108508008 3.5167798071952587 0.6560590369687036 0 -0.75470957328743171 0.37735478664371586 0 0.3280295184843518 1 I I 0 1 0.5 forward I I I I #
face $-1 $143 $144 $49 $-1 $145 forward single #
loop $-1 $146 $147 $63 #
cone-surface $-1 -44.99361898327286 15.538106957928886 3.5167798071952587 0.6560590369687036 0 -0.75470957328743171 0.37735478664371586 0 0.3280295184843518 1 I I 0 1 0.5 forward I I I I #
face $-1 $148 $149 $50 $-1 $150 reversed single #
loop $-1 $-1 $151 $64 #
plane-surface $-1 40.138131000853932 -0.65158966442891586 141.36051464094081 0 -1 0 -0.6560590369687036 0 -0.75470957328743171 forward_v I I I I #
face $-1 $152 $153 $51 $-1 $154 forward single #
loop $-1 $155 $156 $65 #
cone-surface $-1 44.99361898327286 -5.8557127467970496 3.5167798071952587 -0.6560590369687036 0 -0.75470957328743171 0.37735478664371586 0 -0.3280295184843518 1 I I 0 1 0.5 forward I I I I #
face $-1 $157 $158 $52 $-1 $159 forward single #
loop $-1 $160 $161 $66 #
cone-surface $-1 44.99361898327286 -2.7332388973761681 3.5167798071952587 -0.6560590369687036 0 -0.75470957328743171 0.37735478664371586 0 -0.3280295184843518 1 I I 0 1 0.5 forward I I I I #
face $-1 $162 $163 $53 $-1 $164 reversed single #
loop $-1 $-1 $165 $67 #
plane-surface $-1 40.138131000853932 17.619756190876139 141.36051464094081 0 -1 0 -0.6560590369687036 0 -0.75470957328743171 forward_v I I I I #
face $-1 $166 $167 $54 $-1 $168 forward single #
loop $-1 $169 $170 $68 #
cone-surface $-1 44.99361898327286 12.415633108508008 3.5167798071952587 -0.6560590369687036 0 -0.75470957328743171 0.37735478664371586 0 -0.3280295184843518 1 I I 0 1 0.5 forward I I I I #
face $-1 $171 $172 $55 $-1 $173 forward single #
loop $-1 $174 $175 $69 #
cone-surface $-1 44.99361898327286 15.538106957928886 3.5167798071952587 -0.6560590369687036 0 -0.75470957328743171 0.37735478664371586 0 -0.3280295184843518 1 I I 0 1 0.5 forward I I I I #
face $-1 $176 $177 $42 $-1 $178 reversed single #
loop $-1 $-1 $179 $70 #
plane-surface $-1 0 0 -8.0268458191227801 0 0 1 1 0 0 forward_v I I I I #
coedge $-1 $180 $181 $182 $183 forward $71 $-1 #
face $-1 $184 $185 $43 $-1 $186 reversed single #
loop $-1 $-1 $187 $73 #
plane-surface $-1 0 -14.367861851812703 6.5268458191227801 0 -1 0 0 0 -1 forward_v I I I I #
coedge $-1 $188 $189 $190 $191 reversed $74 $-1 #
face $-1 $192 $193 $44 $-1 $194 reversed single #
loop $-1 $-1 $195 $76 #
plane-surface $-1 -50.00396740623188 -4.2944758220866106 0.27245943097513248 -0.6560590369687036 0 0.75470957328743171 0.75470957328743171 0 0.6560590369687036 forward_v I I I I #
coedge $-1 $196 $197 $198 $199 reversed $77 $-1 #
face $-1 $-1 $200 $45 $-1 $201 forward single #
loop $-1 $202 $203 $79 #
cone-surface $-1 -44.279456265000306 -5.8557127467970496 2.6952295960197041 0.6560590369687036 0 -0.75470957328743171 0.18867739332185793 0 0.1640147592421759 1 I I -0.70710678118654746 0.70710678118654746 0.25 forward I I I I #
loop $-1 $-1 $204 $59 #
coedge $-1 $128 $128 $205 $206 reversed $80 $-1 #
face $-1 $-1 $207 $46 $-1 $208 forward single #
loop $-1 $209 $210 $82 #
cone-surface $-1 -44.279456265000306 -2.7332388973761681 2.6952295960197041 0.6560590369687036 0 -0.75470957328743171 0.18867739332185793 0 0.1640147592421759 1 I I -0.70710678118654746 0.70710678118654746 0.25 forward I I I I #
loop $-1 $-1 $211 $60 #
coedge $-1 $133 $133 $212 $213 reversed $83 $-1 #
face $-1 $214 $215 $47 $-1 $216 reversed single #
loop $-1 $-1 $217 $85 #
plane-surface $-1 -50.00396740623188 13.976870033218443 0.27245943097513248 -0.6560590369687036 0 0.75470957328743171 0.75470957328743171 0 0.6560590369687036 forward_v I I I I #
coedge $-1 $218 $219 $220 $221 reversed $86 $-1 #
face $-1 $-1 $222 $48 $-1 $223 forward single #
loop $-1 $224 $225 $88 #
cone-surface $-1 -44.279456265000306 12.415633108508008 2.6952295960197041 0.6560590369687036 0 -0.75470957328743171 0.18867739332185793 0 0.1640147592421759 1 I I -0.70710678118654746 0.70710678118654746 0.25 forward I I I I #
loop $-1 $-1 $226 $62 #
coedge $-1 $142 $142 $227 $228 reversed $89 $-1 #
face $-1 $-1 $229 $49 $-1 $230 forward single #
loop $-1 $231 $232 $91 #
cone-surface $-1 -44.279456265000306 15.538106957928886 2.6952295960197041 0.6560590369687036 0 -0.75470957328743171 0.18867739332185793 0 0.1640147592421759 1 I I -0.70710678118654746 0.70710678118654746 0.25 forward I I I I #
loop $-1 $-1 $233 $63 #
coedge $-1 $147 $147 $234 $235 reversed $92 $-1 #
face $-1 $236 $237 $50 $-1 $238 reversed single #
loop $-1 $-1 $239 $94 #
plane-surface $-1 -25.472978401439931 -4.2944758220866106 65.883568833268995 0.6560590369687036 0 0.75470957328743171 0.75470957328743171 0 -0.6560590369687036 forward_v I I I I #
coedge $-1 $240 $241 $242 $243 reversed $95 $-1 #
face $-1 $-1 $244 $51 $-1 $245 forward single #
loop $-1 $246 $247 $97 #
cone-surface $-1 44.279456265000306 -5.8557127467970496 2.6952295960197041 -0.6560590369687036 0 -0.75470957328743171 0.18867739332185793 0 -0.1640147592421759 1 I I -0.70710678118654746 0.70710678118654746 0.25 forward I I I I #
loop $-1 $-1 $248 $65 #
coedge $-1 $156 $156 $249 $250 reversed $98 $-1 #
face $-1 $-1 $251 $52 $-1 $252 forward single #
loop $-1 $253 $254 $100 #
cone-surface $-1 44.279456265000306 -2.7332388973761681 2.6952295960197041 -0.6560590369687036 0 -0.75470957328743171 0.18867739332185793 0 -0.1640147592421759 1 I I -0.70710678118654746 0.70710678118654746 0.25 forward I I I I #
loop $-1 $-1 $255 $66 #
coedge $-1 $161 $161 $256 $257 reversed $101 $-1 #
face $-1 $258 $259 $53 $-1 $260 reversed single #
loop $-1 $-1 $261 $103 #
plane-surface $-1 -25.472978401439931 13.976870033218443 65.883568833268995 0.6560590369687036 0 0.75470957328743171 0.75470957328743171 0 -0.6560590369687036 forward_v I I I I #
coedge $-1 $262 $263 $264 $265 reversed $104 $-1 #
face $-1 $-1 $266 $54 $-1 $267 forward single #
loop $-1 $268 $269 $106 #
cone-surface $-1 44.279456265000306 12.415633108508008 2.6952295960197041 -0.6560590369687036 0 -0.75470957328743171 0.18867739332185793 0 -0.1640147592421759 1 I I -0.70710678118654746 0.70710678118654746 0.25 forward I I I I #
loop $-1 $-1 $270 $68 #
coedge $-1 $170 $170 $271 $272 reversed $107 $-1 #
face $-1 $-1 $273 $55 $-1 $274 forward single #
loop $-1 $275 $276 $109 #
cone-surface $-1 44.279456265000306 15.538106957928886 2.6952295960197041 -0.6560590369687036 0 -0.75470957328743171 0.18867739332185793 0 -0.1640147592421759 1 I I -0.70710678118654746 0.70710678118654746 0.25 forward I I I I #
loop $-1 $-1 $277 $69 #
coedge $-1 $175 $175 $278 $279 reversed $110 $-1 #
face $-1 $280 $281 $42 $-1 $282 reversed single #
loop $-1 $-1 $283 $112 #
plane-surface $-1 0 -22.174829858797413 0 0 1 0 0 0 1 forward_v I I I I #
coedge $-1 $284 $285 $286 $287 forward $113 $-1 #
coedge $-1 $288 $115 $289 $290 forward $71 $-1 #
coedge $-1 $115 $288 $291 $292 forward $71 $-1 #
coedge $-1 $293 $294 $115 $183 reversed $295 $-1 #
edge $-1 $296 -22.174829858797413 $297 22.174829858797413 $182 $298 forward 7 unknown #
face $-1 $299 $300 $43 $-1 $301 reversed single #
loop $-1 $-1 $302 $116 #
plane-surface $-1 -50.00396740623188 0 0 1 0 0 0 0 -1 forward_v I I I I #
coedge $-1 $303 $304 $305 $306 reversed $117 $-1 #
coedge $-1 $307 $119 $308 $309 reversed $74 $-1 #
coedge $-1 $119 $307 $303 $310 forward $74 $-1 #
coedge $-1 $305 $311 $119 $191 forward $312 $-1 #
edge $-1 $313 -13.039156931144884 $314 -5.2321889241601749 $190 $315 forward 7 unknown #
face $-1 $316 $317 $44 $-1 $318 forward single #
loop $-1 $-1 $319 $120 #
plane-surface $-1 -115.61507680852574 -0.65158966442891586 75.749405238646943 0 -1 0 0.6560590369687036 0 -0.75470957328743171 forward_v I I I I #
coedge $-1 $320 $321 $322 $323 reversed $121 $-1 #
coedge $-1 $197 $123 $324 $325 reversed $77 $-1 #
coedge $-1 $123 $196 $320 $326 reversed $77 $-1 #
coedge $-1 $322 $327 $123 $199 forward $317 $-1 #
edge $-1 $328 7.8035709980309917 $329 16.723971925888279 $198 $330 forward 7 unknown #
loop $-1 $-1 $205 $124 #
plane-surface $-1 -50.00396740623188 -4.2944758220866106 0.27245943097513248 -0.6560590369687036 0 0.75470957328743171 0.75470957328743171 0 0.6560590369687036 forward_v I I I I #
loop $-1 $-1 $331 $79 #
coedge $-1 $203 $203 $204 $332 reversed $125 $-1 #
coedge $-1 $204 $204 $203 $332 forward $127 $-1 #
coedge $-1 $205 $205 $128 $206 forward $200 $-1 #
edge $-1 $333 0 $333 6.2831853071796004 $205 $334 forward 7 unknown #
loop $-1 $-1 $212 $129 #
plane-surface $-1 -50.00396740623188 -4.2944758220866106 0.27245943097513248 -0.6560590369687036 0 0.75470957328743171 0.75470957328743171 0 0.6560590369687036 forward_v I I I I #
loop $-1 $-1 $335 $82 #
coedge $-1 $210 $210 $211 $336 reversed $130 $-1 #
coedge $-1 $211 $211 $210 $336 forward $132 $-1 #
coedge $-1 $212 $212 $133 $213 forward $207 $-1 #
edge $-1 $337 0 $337 6.2831853071796004 $212 $338 forward 7 unknown #
face $-1 $339 $340 $47 $-1 $341 forward single #
loop $-1 $-1 $342 $134 #
plane-surface $-1 -115.61507680852574 17.619756190876139 75.749405238646943 0 -1 0 0.6560590369687036 0 -0.75470957328743171 forward_v I I I I #
coedge $-1 $343 $344 $345 $346 reversed $135 $-1 #
coedge $-1 $219 $137 $347 $348 reversed $86 $-1 #
coedge $-1 $137 $218 $343 $349 reversed $86 $-1 #
coedge $-1 $345 $350 $137 $221 forward $340 $-1 #
edge $-1 $351 7.8035709980309917 $352 16.723971925888279 $220 $353 forward 7 unknown #
loop $-1 $-1 $227 $138 #
plane-surface $-1 -50.00396740623188 13.976870033218443 0.27245943097513248 -0.6560590369687036 0 0.75470957328743171 0.75470957328743171 0 0.6560590369687036 forward_v I I I I #
loop $-1 $-1 $354 $88 #
coedge $-1 $225 $225 $226 $355 reversed $139 $-1 #
coedge $-1 $226 $226 $225 $355 forward $141 $-1 #
coedge $-1 $227 $227 $142 $228 forward $222 $-1 #
edge $-1 $356 0 $356 6.2831853071796004 $227 $357 forward 7 unknown #
loop $-1 $-1 $234 $143 #
plane-surface $-1 -50.00396740623188 13.976870033218443 0.27245943097513248 -0.6560590369687036 0 0.75470957328743171 0.75470957328743171 0 0.6560590369687036 forward_v I I I I #
loop $-1 $-1 $358 $91 #
coedge $-1 $232 $232 $233 $359 reversed $144 $-1 #
coedge $-1 $233 $233 $232 $359 forward $146 $-1 #
coedge $-1 $234 $234 $147 $235 forward $229 $-1 #
edge $-1 $360 0 $360 6.2831853071796004 $234 $361 forward 7 unknown #
face $-1 $362 $363 $50 $-1 $364 reversed single #
loop $-1 $-1 $365 $148 #
plane-surface $-1 40.138131000853932 -7.9373619797443054 141.36051464094081 0 1 0 0.6560590369687036 0 0.75470957328743171 forward_v I I I I #
coedge $-1 $366 $367 $368 $369 reversed $149 $-1 #
coedge $-1 $241 $151 $370 $371 reversed $95 $-1 #
coedge $-1 $151 $240 $366 $372 reversed $95 $-1 #
coedge $-1 $368 $373 $151 $243 forward $374 $-1 #
edge $-1 $375 -29.934901905804914 $376 -21.014500977947627 $242 $377 forward 7 unknown #
loop $-1 $-1 $249 $152 #
plane-surface $-1 -25.472978401439931 -4.2944758220866106 65.883568833268995 0.6560590369687036 0 0.75470957328743171 0.75470957328743171 0 -0.6560590369687036 forward_v I I I I #
loop $-1 $-1 $378 $97 #
coedge $-1 $247 $247 $248 $379 reversed $153 $-1 #
coedge $-1 $248 $248 $247 $379 forward $155 $-1 #
coedge $-1 $249 $249 $156 $250 forward $244 $-1 #
edge $-1 $380 0 $380 6.2831853071796004 $249 $381 forward 7 unknown #
loop $-1 $-1 $256 $157 #
plane-surface $-1 -25.472978401439931 -4.2944758220866106 65.883568833268995 0.6560590369687036 0 0.75470957328743171 0.75470957328743171 0 -0.6560590369687036 forward_v I I I I #
loop $-1 $-1 $382 $100 #
coedge $-1 $254 $254 $255 $383 reversed $158 $-1 #
coedge $-1 $255 $255 $254 $383 forward $160 $-1 #
coedge $-1 $256 $256 $161 $257 forward $251 $-1 #
edge $-1 $384 0 $384 6.2831853071796004 $256 $385 forward 7 unknown #
face $-1 $386 $387 $53 $-1 $388 reversed single #
loop $-1 $-1 $389 $162 #
plane-surface $-1 40.138131000853932 10.333983875560747 141.36051464094081 0 1 0 0.6560590369687036 0 0.75470957328743171 forward_v I I I I #
coedge $-1 $390 $391 $392 $393 reversed $163 $-1 #
coedge $-1 $263 $165 $394 $395 reversed $104 $-1 #
coedge $-1 $165 $262 $390 $396 reversed $104 $-1 #
coedge $-1 $392 $397 $165 $265 forward $398 $-1 #
edge $-1 $399 -29.934901905804914 $400 -21.014500977947627 $264 $401 forward 7 unknown #
loop $-1 $-1 $271 $166 #
plane-surface $-1 -25.472978401439931 13.976870033218443 65.883568833268995 0.6560590369687036 0 0.75470957328743171 0.75470957328743171 0 -0.6560590369687036 forward_v I I I I #
loop $-1 $-1 $402 $106 #
coedge $-1 $269 $269 $270 $403 reversed $167 $-1 #
coedge $-1 $270 $270 $269 $403 forward $169 $-1 #
coedge $-1 $271 $271 $170 $272 forward $266 $-1 #
edge $-1 $404 0 $404 6.2831853071796004 $271 $405 forward 7 unknown #
loop $-1 $-1 $278 $171 #
plane-surface $-1 -25.472978401439931 13.976870033218443 65.883568833268995 0.6560590369687036 0 0.75470957328743171 0.75470957328743171 0 -0.6560590369687036 forward_v I I I I #
loop $-1 $-1 $406 $109 #
coedge $-1 $276 $276 $277 $407 reversed $172 $-1 #
coedge $-1 $277 $277 $276 $407 forward $174 $-1 #
coedge $-1 $278 $278 $175 $279 forward $273 $-1 #
edge $-1 $408 0 $408 6.2831853071796004 $278 $409 forward 7 unknown #
face $-1 $410 $411 $42 $-1 $412 reversed single #
loop $-1 $-1 $413 $176 #
plane-surface $-1 -50.00396740623188 0 0 1 0 0 0 0 -1 forward_v I I I I #
coedge $-1 $414 $291 $415 $416 forward $177 $-1 #
coedge $-1 $417 $179 $414 $418 forward $113 $-1 #
coedge $-1 $179 $417 $419 $420 forward $113 $-1 #
coedge $-1 $294 $293 $179 $287 reversed $295 $-1 #
edge $-1 $421 -22.174829858797413 $422 22.174829858797413 $286 $423 forward 7 unknown #
coedge $-1 $181 $180 $424 $425 forward $71 $-1 #
coedge $-1 $426 $427 $180 $290 reversed $411 $-1 #
edge $-1 $297 -50.00396740623188 $428 50.00396740623188 $289 $429 forward 7 unknown #
coedge $-1 $283 $430 $181 $292 reversed $177 $-1 #
edge $-1 $431 -50.00396740623188 $296 50.00396740623188 $291 $432 forward 7 unknown #
coedge $-1 $286 $182 $430 $433 forward $295 $-1 #
coedge $-1 $182 $286 $426 $434 reversed $295 $-1 #
loop $-1 $-1 $293 $410 #
vertex $-1 $183 $435 #
vertex $-1 $183 $436 #
straight-curve $-1 50.00396740623188 0 8.0268458191227801 0 1 0 I I #
face $-1 $437 $438 $43 $-1 $439 forward single #
loop $-1 $-1 $308 $184 #
plane-surface $-1 0 -22.174829858797413 0 0 1 0 0 0 1 forward_v I I I I #
coedge $-1 $440 $441 $442 $443 forward $185 $-1 #
coedge $-1 $442 $187 $189 $310 reversed $117 $-1 #
coedge $-1 $187 $442 $444 $445 reversed $117 $-1 #
coedge $-1 $446 $190 $187 $306 forward $312 $-1 #
edge $-1 $314 1.76342290956139 $447 4.76342290956139 $305 $448 forward 7 unknown #
coedge $-1 $189 $188 $440 $449 reversed $74 $-1 #
coedge $-1 $450 $451 $188 $309 forward $300 $-1 #
edge $-1 $452 -50.00396740623188 $313 50.00396740623188 $308 $453 forward 7 unknown #
edge $-1 $454 -50.00396740623188 $314 50.00396740623188 $303 $455 forward 7 unknown #
coedge $-1 $190 $446 $450 $456 forward $312 $-1 #
loop $-1 $-1 $305 $437 #
vertex $-1 $309 $457 #
vertex $-1 $191 $458 #
straight-curve $-1 50.00396740623188 -9.1356729276525286 5.0268458191227801 0 1 0 I I #
face $-1 $-1 $459 $44 $-1 $460 reversed single #
loop $-1 $-1 $198 $192 #
plane-surface $-1 0 0 8.0268458191227801 0 0 1 1 0 0 forward_v I I I I #
coedge $-1 $461 $462 $463 $464 reversed $193 $-1 #
coedge $-1 $465 $195 $197 $326 forward $121 $-1 #
coedge $-1 $195 $465 $461 $466 forward $121 $-1 #
coedge $-1 $463 $198 $195 $323 forward $317 $-1 #
edge $-1 $329 -5.790124068701 $467 1.4956482466143894 $322 $468 forward 7 unknown #
coedge $-1 $469 $470 $196 $325 forward $459 $-1 #
edge $-1 $471 -37.602243188348339 $328 -29.847856800200692 $324 $472 forward 7 unknown #
edge $-1 $329 -11.819647243907353 $471 0 $197 $473 forward 7 unknown #
coedge $-1 $198 $463 $469 $474 forward $317 $-1 #
vertex $-1 $325 $475 #
vertex $-1 $199 $476 #
straight-curve $-1 -57.807538404262871 -7.9373619797443054 8.0268458191227765 1 0 0 I I #
coedge $-1 $331 $331 $-1 $477 reversed $202 $-1 #
edge $-1 $478 0 $478 6.2831853071796004 $203 $479 forward 7 unknown #
vertex $-1 $206 $480 #
ellipse-curve $-1 -45.543766942303236 -5.8557127467970496 4.1496526250489563 -0.6560590369687036 0 0.75470957328743171 0.37735478664371586 0 0.3280295184843518 1 I I #
coedge $-1 $335 $335 $-1 $481 reversed $209 $-1 #
edge $-1 $482 0 $482 6.2831853071796004 $210 $483 forward 7 unknown #
vertex $-1 $213 $484 #
ellipse-curve $-1 -45.543766942303236 -2.7332388973761681 4.1496526250489563 -0.6560590369687036 0 0.75470957328743171 0.37735478664371586 0 0.3280295184843518 1 I I #
face $-1 $-1 $485 $47 $-1 $486 reversed single #
loop $-1 $-1 $220 $214 #
plane-surface $-1 0 0 8.0268458191227801 0 0 1 1 0 0 forward_v I I I I #
coedge $-1 $487 $488 $489 $490 reversed $215 $-1 #
coedge $-1 $491 $217 $219 $349 forward $135 $-1 #
coedge $-1 $217 $491 $487 $492 forward $135 $-1 #
coedge $-1 $489 $220 $217 $346 forward $340 $-1 #
edge $-1 $352 3.3455488589515259 $493 10.631321174266917 $345 $494 forward 7 unknown #
coedge $-1 $495 $496 $218 $348 forward $485 $-1 #
edge $-1 $497 -37.602243188348339 $351 -29.847856800200692 $347 $498 forward 7 unknown #
edge $-1 $352 -11.819647243907353 $497 0 $219 $499 forward 7 unknown #
coedge $-1 $220 $489 $495 $500 forward $340 $-1 #
vertex $-1 $221 $501 #
vertex $-1 $221 $502 #
straight-curve $-1 -57.807538404262871 10.333983875560747 8.0268458191227765 1 0 0 I I #
coedge $-1 $354 $354 $-1 $503 reversed $224 $-1 #
edge $-1 $504 0 $504 6.2831853071796004 $225 $505 forward 7 unknown #
vertex $-1 $228 $506 #
ellipse-curve $-1 -45.543766942303236 12.415633108508008 4.1496526250489563 -0.6560590369687036 0 0.75470957328743171 0.37735478664371586 0 0.3280295184843518 1 I I #
coedge $-1 $358 $358 $-1 $507 reversed $231 $-1 #
edge $-1 $508 0 $508 6.2831853071796004 $232 $509 forward 7 unknown #
vertex $-1 $235 $510 #
ellipse-curve $-1 -45.543766942303236 15.538106957928886 4.1496526250489563 -0.6560590369687036 0 0.75470957328743171 0.37735478664371586 0 0.3280295184843518 1 I I #
face $-1 $-1 $374 $50 $-1 $511 forward single #
loop $-1 $-1 $512 $236 #
plane-surface $-1 50.00396740623188 0 0 -1 0 0 0 0 1 forward_v I I I I #
coedge $-1 $513 $514 $515 $516 reversed $237 $-1 #
coedge $-1 $517 $239 $241 $372 forward $149 $-1 #
coedge $-1 $239 $517 $513 $518 forward $149 $-1 #
coedge $-1 $515 $242 $239 $369 forward $374 $-1 #
edge $-1 $376 -1.4956482466143894 $519 5.790124068701 $368 $520 forward 7 unknown #
coedge $-1 $521 $522 $240 $371 forward $363 $-1 #
edge $-1 $523 -70.407797889495271 $375 -62.65341150134762 $370 $524 forward 7 unknown #
edge $-1 $376 88.188287568556404 $523 100.00793481246376 $241 $525 forward 7 unknown #
coedge $-1 $242 $515 $521 $526 forward $374 $-1 #
loop $-1 $-1 $515 $362 #
vertex $-1 $371 $527 #
vertex $-1 $243 $528 #
straight-curve $-1 20.069065500426966 -0.65158966442891586 8.0268458191227836 -1 0 0 I I #
coedge $-1 $378 $378 $-1 $529 reversed $246 $-1 #
edge $-1 $530 0 $530 6.2831853071796004 $247 $531 forward 7 unknown #
vertex $-1 $250 $532 #
ellipse-curve $-1 45.543766942303236 -5.8557127467970496 4.1496526250489589 0.6560590369687036 0 0.75470957328743171 0.37735478664371586 0 -0.3280295184843518 1 I I #
coedge $-1 $382 $382 $-1 $533 reversed $253 $-1 #
edge $-1 $534 0 $534 6.2831853071796004 $254 $535 forward 7 unknown #
vertex $-1 $257 $536 #
ellipse-curve $-1 45.543766942303236 -2.7332388973761681 4.1496526250489589 0.6560590369687036 0 0.75470957328743171 0.37735478664371586 0 -0.3280295184843518 1 I I #
face $-1 $-1 $398 $53 $-1 $537 forward single #
loop $-1 $-1 $538 $258 #
plane-surface $-1 50.00396740623188 0 0 -1 0 0 0 0 1 forward_v I I I I #
coedge $-1 $539 $540 $541 $542 reversed $259 $-1 #
coedge $-1 $543 $261 $263 $396 forward $163 $-1 #
coedge $-1 $261 $543 $539 $544 forward $163 $-1 #
coedge $-1 $541 $264 $261 $393 forward $398 $-1 #
edge $-1 $400 -10.631321174266917 $545 -3.3455488589515259 $392 $546 forward 7 unknown #
coedge $-1 $547 $548 $262 $395 forward $387 $-1 #
edge $-1 $549 -70.407797889495271 $399 -62.65341150134762 $394 $550 forward 7 unknown #
edge $-1 $400 88.188287568556404 $549 100.00793481246376 $263 $551 forward 7 unknown #
coedge $-1 $264 $541 $547 $552 forward $398 $-1 #
loop $-1 $-1 $541 $386 #
vertex $-1 $395 $553 #
vertex $-1 $265 $554 #
straight-curve $-1 20.069065500426966 17.619756190876139 8.0268458191227836 -1 0 0 I I #
coedge $-1 $402 $402 $-1 $555 reversed $268 $-1 #
edge $-1 $556 0 $556 6.2831853071796004 $269 $557 forward 7 unknown #
vertex $-1 $272 $558 #
ellipse-curve $-1 45.543766942303236 12.415633108508008 4.1496526250489589 0.6560590369687036 0 0.75470957328743171 0.37735478664371586 0 -0.3280295184843518 1 I I #
coedge $-1 $406 $406 $-1 $559 reversed $275 $-1 #
edge $-1 $560 0 $560 6.2831853071796004 $276 $561 forward 7 unknown #
vertex $-1 $279 $562 #
ellipse-curve $-1 45.543766942303236 15.538106957928886 4.1496526250489589 0.6560590369687036 0 0.75470957328743171 0.37735478664371586 0 -0.3280295184843518 1 I I #
face $-1 $-1 $295 $42 $-1 $563 reversed single #
loop $-1 $-1 $426 $280 #
plane-surface $-1 0 22.174829858797413 0 0 -1 0 0 0 -1 forward_v I I I I #
coedge $-1 $564 $424 $427 $565 forward $281 $-1 #
coedge $-1 $430 $283 $284 $418 reversed $177 $-1 #
coedge $-1 $424 $564 $283 $416 reversed $281 $-1 #
edge $-1 $431 -8.0268458191227801 $566 8.0268458191227801 $415 $567 forward 7 unknown #
coedge $-1 $285 $284 $564 $568 forward $113 $-1 #
edge $-1 $422 -50.00396740623188 $566 50.00396740623188 $414 $569 forward 7 unknown #
coedge $-1 $427 $426 $285 $420 reversed $411 $-1 #
edge $-1 $570 -50.00396740623188 $421 50.00396740623188 $419 $571 forward 7 unknown #
vertex $-1 $287 $572 #
vertex $-1 $433 $573 #
straight-curve $-1 50.00396740623188 0 -8.0268458191227801 0 -1 0 I I #
coedge $-1 $413 $415 $288 $425 reversed $281 $-1 #
edge $-1 $428 -22.174829858797413 $431 22.174829858797413 $424 $574 forward 7 unknown #
coedge $-1 $419 $289 $294 $434 forward $411 $-1 #
coedge $-1 $289 $419 $413 $565 reversed $411 $-1 #
vertex $-1 $290 $575 #
straight-curve $-1 0 22.174829858797413 8.0268458191227801 -1 0 0 I I #
coedge $-1 $291 $414 $293 $433 reversed $177 $-1 #
vertex $-1 $425 $576 #
straight-curve $-1 0 -22.174829858797413 8.0268458191227801 1 0 0 I I #
edge $-1 $296 -8.0268458191227801 $422 8.0268458191227801 $293 $577 forward 7 unknown #
edge $-1 $297 -8.0268458191227801 $421 8.0268458191227801 $294 $578 forward 7 unknown #
point $-1 50.00396740623188 -22.174829858797413 8.0268458191227801 #
point $-1 50.00396740623188 22.174829858797413 8.0268458191227801 #
face $-1 $-1 $312 $43 $-1 $579 reversed single #
loop $-1 $-1 $444 $299 #
plane-surface $-1 0 0 8.0268458191227801 0 0 1 1 0 0 forward_v I I I I #
coedge $-1 $580 $302 $307 $449 forward $185 $-1 #
coedge $-1 $302 $580 $581 $582 reversed $185 $-1 #
coedge $-1 $304 $303 $302 $443 reversed $117 $-1 #
edge $-1 $583 -4.76342290956139 $454 -1.76342290956139 $302 $584 forward 7 unknown #
coedge $-1 $581 $585 $304 $445 forward $438 $-1 #
edge $-1 $447 -50.00396740623188 $583 50.00396740623188 $444 $586 forward 7 unknown #
coedge $-1 $311 $305 $585 $587 reversed $312 $-1 #
vertex $-1 $306 $588 #
straight-curve $-1 50.00396740623188 -14.367861851812703 3.26342290956139 0 0 1 I I #
edge $-1 $454 5.2321889241601749 $452 13.039156931144884 $440 $589 forward 7 unknown #
coedge $-1 $590 $308 $311 $456 reversed $300 $-1 #
coedge $-1 $308 $590 $580 $591 forward $300 $-1 #
vertex $-1 $309 $592 #
straight-curve $-1 0 -22.174829858797413 5.0268458191227801 1 0 0 I I #
vertex $-1 $449 $593 #
straight-curve $-1 0 -14.367861851812703 5.0268458191227801 1 0 0 I I #
edge $-1 $594 -8.0268458191227801 $313 -5.0268458191227801 $311 $595 forward 7 unknown #
point $-1 50.00396740623188 -22.174829858797413 5.0268458191227801 #
point $-1 50.00396740623188 -14.367861851812703 5.0268458191227801 #
loop $-1 $-1 $324 $316 #
plane-surface $-1 -50.00396740623188 0 0 1 0 0 0 0 -1 forward_v I I I I #
coedge $-1 $462 $319 $321 $466 reversed $193 $-1 #
coedge $-1 $319 $461 $596 $597 reversed $193 $-1 #
coedge $-1 $327 $322 $319 $464 forward $317 $-1 #
edge $-1 $467 -16.723971925888279 $598 -7.8035709980309917 $463 $599 forward 7 unknown #
coedge $-1 $321 $320 $470 $600 reversed $121 $-1 #
edge $-1 $601 0 $467 11.819647243907353 $461 $602 forward 7 unknown #
vertex $-1 $323 $603 #
straight-curve $-1 -41.0835664783746 -2.1472379110433053 8.0268458191227818 0 1 0 I I #
coedge $-1 $596 $324 $327 $474 reversed $459 $-1 #
coedge $-1 $324 $596 $465 $600 forward $459 $-1 #
vertex $-1 $325 $604 #
straight-curve $-1 -50.00396740623188 -7.9373619797443054 37.874702619323472 0 0 1 I I #
straight-curve $-1 -50.00396740623188 -7.9373619797443054 0.27245943097513248 -0.75470957328743171 0 -0.6560590369687036 I I #
edge $-1 $598 0.65158966442891586 $328 7.9373619797443054 $469 $605 forward 7 unknown #
point $-1 -50.00396740623188 -7.9373619797443054 8.0268458191227801 #
point $-1 -41.083566478374593 -7.9373619797443054 8.0268458191227801 #
edge $-1 $606 1 $606 0 $331 $-1 forward 7 unknown #
vertex $-1 $332 $607 #
ellipse-curve $-1 -44.443471024242484 -5.8557127467970496 2.8839069893415621 -0.6560590369687036 0 0.75470957328743171 0.37735478664371586 0 0.3280295184843518 1 I I #
point $-1 -45.166412155659515 -5.8557127467970496 4.4776821435333076 #
edge $-1 $608 1 $608 0 $335 $-1 forward 7 unknown #
vertex $-1 $336 $609 #
ellipse-curve $-1 -44.443471024242484 -2.7332388973761681 2.8839069893415621 -0.6560590369687036 0 0.75470957328743171 0.37735478664371586 0 0.3280295184843518 1 I I #
point $-1 -45.166412155659515 -2.7332388973761681 4.4776821435333076 #
loop $-1 $-1 $347 $339 #
plane-surface $-1 -50.00396740623188 0 0 1 0 0 0 0 -1 forward_v I I I I #
coedge $-1 $488 $342 $344 $492 reversed $215 $-1 #
coedge $-1 $342 $487 $610 $611 reversed $215 $-1 #
coedge $-1 $350 $345 $342 $490 forward $340 $-1 #
edge $-1 $493 -16.723971925888279 $612 -7.8035709980309917 $489 $613 forward 7 unknown #
coedge $-1 $344 $343 $496 $614 reversed $135 $-1 #
edge $-1 $615 0 $493 11.819647243907353 $487 $616 forward 7 unknown #
vertex $-1 $346 $617 #
straight-curve $-1 -41.0835664783746 6.9884350166092215 8.0268458191227818 0 1 0 I I #
coedge $-1 $610 $347 $350 $500 reversed $485 $-1 #
coedge $-1 $347 $610 $491 $614 forward $485 $-1 #
vertex $-1 $348 $618 #
straight-curve $-1 -50.00396740623188 10.333983875560747 37.874702619323472 0 0 1 I I #
straight-curve $-1 -50.00396740623188 10.333983875560747 0.27245943097513248 -0.75470957328743171 0 -0.6560590369687036 I I #
edge $-1 $612 -17.619756190876139 $351 -10.333983875560747 $495 $619 forward 7 unknown #
point $-1 -50.00396740623188 10.333983875560747 8.0268458191227801 #
point $-1 -41.083566478374593 10.333983875560747 8.0268458191227801 #
edge $-1 $620 1 $620 0 $354 $-1 forward 7 unknown #
vertex $-1 $355 $621 #
ellipse-curve $-1 -44.443471024242484 12.415633108508008 2.8839069893415621 -0.6560590369687036 0 0.75470957328743171 0.37735478664371586 0 0.3280295184843518 1 I I #
point $-1 -45.166412155659515 12.415633108508008 4.4776821435333076 #
edge $-1 $622 1 $622 0 $358 $-1 forward 7 unknown #
vertex $-1 $359 $623 #
ellipse-curve $-1 -44.443471024242484 15.538106957928886 2.8839069893415621 -0.6560590369687036 0 0.75470957328743171 0.37735478664371586 0 0.3280295184843518 1 I I #
point $-1 -45.166412155659515 15.538106957928886 4.4776821435333076 #
plane-surface $-1 0 0 8.0268458191227801 0 0 1 1 0 0 forward_v I I I I #
coedge $-1 $522 $521 $514 $624 forward $363 $-1 #
coedge $-1 $514 $365 $367 $518 reversed $237 $-1 #
coedge $-1 $365 $513 $512 $624 reversed $237 $-1 #
coedge $-1 $373 $368 $365 $516 forward $374 $-1 #
edge $-1 $519 21.014500977947627 $625 29.934901905804914 $515 $626 forward 7 unknown #
coedge $-1 $367 $366 $522 $627 reversed $149 $-1 #
edge $-1 $628 -100.00793481246376 $519 -88.188287568556404 $513 $629 forward 7 unknown #
vertex $-1 $369 $630 #
straight-curve $-1 41.0835664783746 -2.1472379110433053 8.0268458191227836 0 -1 0 I I #
coedge $-1 $512 $370 $373 $526 reversed $363 $-1 #
coedge $-1 $370 $512 $517 $627 forward $363 $-1 #
vertex $-1 $371 $631 #
straight-curve $-1 50.00396740623188 -0.65158966442891586 70.680257320470403 0 0 1 I I #
straight-curve $-1 -25.472978401439931 -0.65158966442891586 65.883568833268995 0.75470957328743171 0 -0.6560590369687036 I I #
edge $-1 $625 -7.9373619797443054 $375 -0.65158966442891586 $521 $632 forward 7 unknown #
point $-1 50.00396740623188 -0.65158966442891586 8.0268458191227801 #
point $-1 41.083566478374593 -0.65158966442891586 8.0268458191227836 #
edge $-1 $633 1 $633 0 $378 $-1 forward 7 unknown #
vertex $-1 $379 $634 #
ellipse-curve $-1 44.443471024242484 -5.8557127467970496 2.8839069893415621 0.6560590369687036 0 0.75470957328743171 0.37735478664371586 0 -0.3280295184843518 1 I I #
point $-1 45.92112172894695 -5.8557127467970496 3.821623106564604 #
edge $-1 $635 1 $635 0 $382 $-1 forward 7 unknown #
vertex $-1 $383 $636 #
ellipse-curve $-1 44.443471024242484 -2.7332388973761681 2.8839069893415621 0.6560590369687036 0 0.75470957328743171 0.37735478664371586 0 -0.3280295184843518 1 I I #
point $-1 45.92112172894695 -2.7332388973761681 3.821623106564604 #
plane-surface $-1 0 0 8.0268458191227801 0 0 1 1 0 0 forward_v I I I I #
coedge $-1 $548 $547 $540 $637 forward $387 $-1 #
coedge $-1 $540 $389 $391 $544 reversed $259 $-1 #
coedge $-1 $389 $539 $538 $637 reversed $259 $-1 #
coedge $-1 $397 $392 $389 $542 forward $398 $-1 #
edge $-1 $545 21.014500977947627 $638 29.934901905804914 $541 $639 forward 7 unknown #
coedge $-1 $391 $390 $548 $640 reversed $163 $-1 #
edge $-1 $641 -100.00793481246376 $545 -88.188287568556404 $539 $642 forward 7 unknown #
vertex $-1 $393 $643 #
straight-curve $-1 41.0835664783746 6.9884350166092215 8.0268458191227836 0 -1 0 I I #
coedge $-1 $538 $394 $397 $552 reversed $387 $-1 #
coedge $-1 $394 $538 $543 $640 forward $387 $-1 #
vertex $-1 $395 $644 #
straight-curve $-1 50.00396740623188 17.619756190876139 70.680257320470403 0 0 1 I I #
straight-curve $-1 -25.472978401439931 17.619756190876139 65.883568833268995 0.75470957328743171 0 -0.6560590369687036 I I #
edge $-1 $638 10.333983875560747 $399 17.619756190876139 $547 $645 forward 7 unknown #
point $-1 50.00396740623188 17.619756190876139 8.0268458191227801 #
point $-1 41.083566478374593 17.619756190876139 8.0268458191227836 #
edge $-1 $646 1 $646 0 $402 $-1 forward 7 unknown #
vertex $-1 $403 $647 #
ellipse-curve $-1 44.443471024242484 12.415633108508008 2.8839069893415621 0.6560590369687036 0 0.75470957328743171 0.37735478664371586 0 -0.3280295184843518 1 I I #
point $-1 45.92112172894695 12.415633108508008 3.821623106564604 #
edge $-1 $648 1 $648 0 $406 $-1 forward 7 unknown #
vertex $-1 $407 $649 #
ellipse-curve $-1 44.443471024242484 15.538106957928886 2.8839069893415621 0.6560590369687036 0 0.75470957328743171 0.37735478664371586 0 -0.3280295184843518 1 I I #
point $-1 45.92112172894695 15.538106957928886 3.821623106564604 #
plane-surface $-1 50.00396740623188 0 0 -1 0 0 0 0 1 forward_v I I I I #
coedge $-1 $415 $413 $417 $568 reversed $281 $-1 #
edge $-1 $428 -8.0268458191227801 $570 8.0268458191227801 $427 $650 forward 7 unknown #
vertex $-1 $568 $651 #
straight-curve $-1 -50.00396740623188 -22.174829858797413 0 0 0 -1 I I #
edge $-1 $566 -22.174829858797413 $570 22.174829858797413 $564 $652 forward 7 unknown #
straight-curve $-1 0 -22.174829858797413 -8.0268458191227801 -1 0 0 I I #
vertex $-1 $420 $653 #
straight-curve $-1 0 22.174829858797413 -8.0268458191227801 1 0 0 I I #
point $-1 50.00396740623188 22.174829858797413 -8.0268458191227801 #
point $-1 50.00396740623188 -22.174829858797413 -8.0268458191227801 #
straight-curve $-1 -50.00396740623188 0 8.0268458191227801 0 -1 0 I I #
point $-1 -50.00396740623188 22.174829858797413 8.0268458191227801 #
point $-1 -50.00396740623188 -22.174829858797413 8.0268458191227801 #
straight-curve $-1 50.00396740623188 -22.174829858797413 0 0 0 -1 I I #
straight-curve $-1 50.00396740623188 22.174829858797413 0 0 0 -1 I I #
plane-surface $-1 50.00396740623188 0 0 -1 0 0 0 0 1 forward_v I I I I #
coedge $-1 $441 $440 $451 $591 reversed $185 $-1 #
coedge $-1 $654 $444 $441 $582 forward $438 $-1 #
edge $-1 $583 14.367861851812703 $655 22.174829858797413 $441 $656 forward 7 unknown #
vertex $-1 $582 $657 #
straight-curve $-1 -50.00396740623188 -14.367861851812703 3.26342290956139 0 0 -1 I I #
coedge $-1 $444 $654 $446 $587 forward $438 $-1 #
straight-curve $-1 0 -14.367861851812703 8.0268458191227801 -1 0 0 I I #
edge $-1 $594 -22.174829858797413 $447 -14.367861851812703 $446 $658 forward 7 unknown #
point $-1 50.00396740623188 -14.367861851812703 8.0268458191227801 #
straight-curve $-1 -50.00396740623188 -9.1356729276525286 5.0268458191227801 0 -1 0 I I #
coedge $-1 $451 $450 $654 $659 reversed $300 $-1 #
edge $-1 $655 -8.0268458191227801 $452 -5.0268458191227801 $580 $660 forward 7 unknown #
point $-1 -50.00396740623188 -22.174829858797413 5.0268458191227801 #
point $-1 -50.00396740623188 -14.367861851812703 5.0268458191227801 #
vertex $-1 $587 $661 #
straight-curve $-1 50.00396740623188 -22.174829858797413 0 0 0 -1 I I #
coedge $-1 $470 $469 $462 $597 forward $459 $-1 #
edge $-1 $598 29.847856800200692 $601 37.602243188348339 $596 $662 forward 7 unknown #
vertex $-1 $474 $663 #
straight-curve $-1 -57.807538404262871 -0.65158966442891586 8.0268458191227765 -1 0 0 I I #
edge $-1 $601 -1.4956482466143894 $471 5.790124068701 $470 $664 forward 7 unknown #
vertex $-1 $600 $665 #
straight-curve $-1 -50.00396740623188 -0.65158966442891586 0.27245943097513248 0.75470957328743171 0 0.6560590369687036 I I #
point $-1 -41.083566478374593 -0.65158966442891586 8.0268458191227801 #
point $-1 -50.00396740623188 -7.9373619797443054 0.27245943097513248 #
straight-curve $-1 -50.00396740623188 0 8.0268458191227801 0 -1 0 I I #
vertex $-1 $477 $666 #
point $-1 -44.066116237598763 -5.8557127467970496 3.2119365078259139 #
vertex $-1 $481 $667 #
point $-1 -44.066116237598763 -2.7332388973761681 3.2119365078259139 #
coedge $-1 $496 $495 $488 $611 forward $485 $-1 #
edge $-1 $612 29.847856800200692 $615 37.602243188348339 $610 $668 forward 7 unknown #
vertex $-1 $500 $669 #
straight-curve $-1 -57.807538404262871 17.619756190876139 8.0268458191227765 -1 0 0 I I #
edge $-1 $615 -10.631321174266917 $497 -3.3455488589515259 $496 $670 forward 7 unknown #
vertex $-1 $614 $671 #
straight-curve $-1 -50.00396740623188 17.619756190876139 0.27245943097513248 0.75470957328743171 0 0.6560590369687036 I I #
point $-1 -41.083566478374593 17.619756190876139 8.0268458191227801 #
point $-1 -50.00396740623188 10.333983875560747 0.27245943097513248 #
straight-curve $-1 -50.00396740623188 0 8.0268458191227801 0 -1 0 I I #
vertex $-1 $503 $672 #
point $-1 -44.066116237598763 12.415633108508008 3.2119365078259139 #
vertex $-1 $507 $673 #
point $-1 -44.066116237598763 15.538106957928886 3.2119365078259139 #
edge $-1 $625 62.65341150134762 $628 70.407797889495271 $512 $674 forward 7 unknown #
vertex $-1 $526 $675 #
straight-curve $-1 20.069065500426966 -7.9373619797443054 8.0268458191227836 1 0 0 I I #
edge $-1 $628 -5.790124068701 $523 1.4956482466143894 $522 $676 forward 7 unknown #
vertex $-1 $627 $677 #
straight-curve $-1 -25.472978401439931 -7.9373619797443054 65.883568833268995 -0.75470957328743171 0 0.6560590369687036 I I #
point $-1 41.083566478374593 -7.9373619797443054 8.0268458191227836 #
point $-1 50.00396740623188 -0.65158966442891586 0.27245943097513248 #
straight-curve $-1 50.00396740623188 0 8.0268458191227801 0 1 0 I I #
vertex $-1 $529 $678 #
point $-1 44.820825810886198 -5.8557127467970496 2.5558774708572103 #
vertex $-1 $533 $679 #
point $-1 44.820825810886198 -2.7332388973761681 2.5558774708572103 #
edge $-1 $638 62.65341150134762 $641 70.407797889495271 $538 $680 forward 7 unknown #
vertex $-1 $552 $681 #
straight-curve $-1 20.069065500426966 10.333983875560747 8.0268458191227836 1 0 0 I I #
edge $-1 $641 3.3455488589515259 $549 10.631321174266917 $548 $682 forward 7 unknown #
vertex $-1 $640 $683 #
straight-curve $-1 -25.472978401439931 10.333983875560747 65.883568833268995 -0.75470957328743171 0 0.6560590369687036 I I #
point $-1 41.083566478374593 10.333983875560747 8.0268458191227836 #
point $-1 50.00396740623188 17.619756190876139 0.27245943097513248 #
straight-curve $-1 50.00396740623188 0 8.0268458191227801 0 1 0 I I #
vertex $-1 $555 $684 #
point $-1 44.820825810886198 12.415633108508008 2.5558774708572103 #
vertex $-1 $559 $685 #
point $-1 44.820825810886198 15.538106957928886 2.5558774708572103 #
straight-curve $-1 -50.00396740623188 22.174829858797413 0 0 0 -1 I I #
point $-1 -50.00396740623188 -22.174829858797413 -8.0268458191227801 #
straight-curve $-1 -50.00396740623188 0 -8.0268458191227801 0 1 0 I I #
point $-1 -50.00396740623188 22.174829858797413 -8.0268458191227801 #
coedge $-1 $585 $581 $590 $659 forward $438 $-1 #
vertex $-1 $582 $686 #
straight-curve $-1 -50.00396740623188 0 8.0268458191227801 0 -1 0 I I #
point $-1 -50.00396740623188 -14.367861851812703 8.0268458191227801 #
straight-curve $-1 50.00396740623188 0 8.0268458191227801 0 1 0 I I #
edge $-1 $655 -50.00396740623188 $594 50.00396740623188 $590 $687 forward 7 unknown #
straight-curve $-1 -50.00396740623188 -22.174829858797413 0 0 0 -1 I I #
point $-1 50.00396740623188 -22.174829858797413 8.0268458191227801 #
straight-curve $-1 -50.00396740623188 -0.65158966442891586 37.874702619323472 0 0 -1 I I #
point $-1 -50.00396740623188 -0.65158966442891586 8.0268458191227801 #
straight-curve $-1 -50.00396740623188 -2.1472379110433053 0.27245943097513065 0 -1 0 I I #
point $-1 -50.00396740623188 -0.65158966442891586 0.27245943097513248 #
point $-1 -44.115441505758128 -5.8557127467970496 2.5065522026978462 #
point $-1 -44.115441505758128 -2.7332388973761681 2.5065522026978462 #
straight-curve $-1 -50.00396740623188 17.619756190876139 37.874702619323472 0 0 -1 I I #
point $-1 -50.00396740623188 17.619756190876139 8.0268458191227801 #
straight-curve $-1 -50.00396740623188 6.9884350166092215 0.27245943097513065 0 -1 0 I I #
point $-1 -50.00396740623188 17.619756190876139 0.27245943097513248 #
point $-1 -44.115441505758128 12.415633108508008 2.5065522026978462 #
point $-1 -44.115441505758128 15.538106957928886 2.5065522026978462 #
straight-curve $-1 50.00396740623188 -7.9373619797443054 70.680257320470403 0 0 -1 I I #
point $-1 50.00396740623188 -7.9373619797443054 8.0268458191227801 #
straight-curve $-1 50.00396740623188 -2.1472379110433053 0.27245943097513958 0 1 0 I I #
point $-1 50.00396740623188 -7.9373619797443054 0.27245943097513248 #
point $-1 44.115441505758128 -5.8557127467970496 2.5065522026978462 #
point $-1 44.115441505758128 -2.7332388973761681 2.5065522026978462 #
straight-curve $-1 50.00396740623188 10.333983875560747 70.680257320470403 0 0 -1 I I #
point $-1 50.00396740623188 10.333983875560747 8.0268458191227801 #
straight-curve $-1 50.00396740623188 6.9884350166092215 0.27245943097513958 0 1 0 I I #
point $-1 50.00396740623188 10.333983875560747 0.27245943097513248 #
point $-1 44.115441505758128 12.415633108508008 2.5065522026978462 #
point $-1 44.115441505758128 15.538106957928886 2.5065522026978462 #
point $-1 -50.00396740623188 -22.174829858797413 8.0268458191227801 #
straight-curve $-1 0 -22.174829858797413 8.0268458191227801 1 0 0 I I #
End-of-ACIS-data 