500 0 13 0           
7 Unknown 11 ACIS 5.0 NT 24 Thu Mar 25 15:28:06 1999 
-1 9.9999999999999995e-007 1e-010 
body $-1 $13 $-1 $14 #
body $-1 $15 $-1 $16 #
body $-1 $17 $-1 $18 #
body $-1 $19 $-1 $20 #
body $-1 $21 $-1 $22 #
body $-1 $23 $-1 $24 #
body $-1 $25 $-1 $26 #
body $-1 $27 $-1 $28 #
body $-1 $29 $-1 $30 #
body $-1 $31 $-1 $32 #
body $-1 $33 $-1 $34 #
body $-1 $35 $-1 $36 #
body $-1 $37 $-1 $38 #
lump $-1 $-1 $39 $0 #
transform $-1 1 0 0 0 1 0 0 0 1 53.094882045960873 25.257621200946534 8.1770652554057754 1 rotate no_reflect no_shear #
lump $-1 $-1 $40 $1 #
transform $-1 1 0 0 0 1 0 0 0 1 53.094882045960873 25.257621200946534 8.1770652554057754 1 rotate no_reflect no_shear #
lump $-1 $-1 $41 $2 #
transform $-1 1 0 0 0 1 0 0 0 1 53.094882045960873 25.257621200946534 8.1770652554057754 1 rotate no_reflect no_shear #
lump $-1 $-1 $42 $3 #
transform $-1 1 0 0 0 1 0 0 0 1 53.094882045960873 25.257621200946534 8.1770652554057754 1 rotate no_reflect no_shear #
lump $-1 $-1 $43 $4 #
transform $-1 1 0 0 0 1 0 0 0 1 53.094882045960873 25.257621200946534 8.1770652554057754 1 rotate no_reflect no_shear #
lump $-1 $-1 $44 $5 #
transform $-1 1 0 0 0 1 0 0 0 1 53.094882045960873 25.257621200946534 8.1770652554057754 1 rotate no_reflect no_shear #
lump $-1 $-1 $45 $6 #
transform $-1 1 0 0 0 1 0 0 0 1 53.094882045960873 25.257621200946534 8.1770652554057754 1 rotate no_reflect no_shear #
lump $-1 $-1 $46 $7 #
transform $-1 1 0 0 0 1 0 0 0 1 53.094882045960873 25.257621200946534 8.1770652554057754 1 rotate no_reflect no_shear #
lump $-1 $-1 $47 $8 #
transform $-1 1 0 0 0 1 0 0 0 1 53.094882045960873 25.257621200946534 8.1770652554057754 1 rotate no_reflect no_shear #
lump $-1 $-1 $48 $9 #
transform $-1 1 0 0 0 1 0 0 0 1 53.094882045960873 25.257621200946534 8.1770652554057754 1 rotate no_reflect no_shear #
lump $-1 $-1 $49 $10 #
transform $-1 1 0 0 0 1 0 0 0 1 53.094882045960873 25.257621200946534 8.1770652554057754 1 rotate no_reflect no_shear #
lump $-1 $-1 $50 $11 #
transform $-1 1 0 0 0 1 0 0 0 1 53.094882045960873 25.257621200946534 8.1770652554057754 1 rotate no_reflect no_shear #
lump $-1 $-1 $51 $12 #
transform $-1 1 0 0 0 1 0 0 0 1 53.094882045960873 25.257621200946534 8.1770652554057754 1 rotate no_reflect no_shear #
shell $-1 $-1 $-1 $52 $-1 $13 #
shell $-1 $-1 $-1 $53 $-1 $15 #
shell $-1 $-1 $-1 $54 $-1 $17 #
shell $-1 $-1 $-1 $55 $-1 $19 #
shell $-1 $-1 $-1 $56 $-1 $21 #
shell $-1 $-1 $-1 $57 $-1 $23 #
shell $-1 $-1 $-1 $58 $-1 $25 #
shell $-1 $-1 $-1 $59 $-1 $27 #
shell $-1 $-1 $-1 $60 $-1 $29 #
shell $-1 $-1 $-1 $61 $-1 $31 #
shell $-1 $-1 $-1 $62 $-1 $33 #
shell $-1 $-1 $-1 $63 $-1 $35 #
shell $-1 $-1 $-1 $64 $-1 $37 #
face $-1 $65 $66 $39 $-1 $67 forward single #
face $-1 $68 $69 $40 $-1 $70 reversed single #
face $-1 $71 $72 $41 $-1 $73 forward single #
face $-1 $74 $75 $42 $-1 $76 forward single #
face $-1 $77 $78 $43 $-1 $79 reversed single #
face $-1 $80 $81 $44 $-1 $82 forward single #
face $-1 $83 $84 $45 $-1 $85 forward single #
face $-1 $86 $87 $46 $-1 $88 reversed single #
face $-1 $89 $90 $47 $-1 $91 forward single #
face $-1 $92 $93 $48 $-1 $94 forward single #
face $-1 $95 $96 $49 $-1 $97 reversed single #
face $-1 $98 $99 $50 $-1 $100 forward single #
face $-1 $101 $102 $51 $-1 $103 forward single #
face $-1 $104 $105 $39 $-1 $106 reversed single #
loop $-1 $-1 $107 $52 #
plane-surface $-1 0 0 8.1770652554057754 0 0 1 1 0 0 forward_v I I I I #
face $-1 $108 $109 $40 $-1 $110 reversed single #
loop $-1 $-1 $111 $53 #
plane-surface $-1 -23.736735667075905 54.818166273826321 114.21179909406415 1 0 0 0 -0.64278761758704617 -0.76604443648966558 forward_v I I I I #
face $-1 $112 $113 $41 $-1 $114 forward single #
loop $-1 $115 $116 $54 #
cone-surface $-1 -16.95481119076851 19.894731802068151 3.4211012470994584 0 -0.64278761758704617 -0.76604443648966558 2 0 0 1 I I 0 1 2 forward I I I I #
face $-1 $117 $118 $42 $-1 $119 forward single #
loop $-1 $120 $121 $55 #
cone-surface $-1 -6.7819244763074096 19.894731802068151 3.4211012470994584 0 -0.64278761758704617 -0.76604443648966558 2 0 0 1 I I 0 1 2 forward I I I I #
face $-1 $122 $123 $43 $-1 $124 reversed single #
loop $-1 $-1 $125 $56 #
plane-surface $-1 29.358146378884975 54.818166273826321 114.21179909406415 1 0 0 0 -0.64278761758704617 -0.76604443648966558 forward_v I I I I #
face $-1 $126 $127 $44 $-1 $128 forward single #
loop $-1 $129 $130 $57 #
cone-surface $-1 36.140070855192363 19.894731802068151 3.4211012470994584 0 -0.64278761758704617 -0.76604443648966558 2 0 0 1 I I 0 1 2 forward I I I I #
face $-1 $131 $132 $45 $-1 $133 forward single #
loop $-1 $134 $135 $58 #
cone-surface $-1 46.312957569653463 19.894731802068151 3.4211012470994584 0 -0.64278761758704617 -0.76604443648966558 2 0 0 1 I I 0 1 2 forward I I I I #
face $-1 $136 $137 $46 $-1 $138 reversed single #
loop $-1 $-1 $139 $59 #
plane-surface $-1 -18.905435835594457 -92.085005894597998 85.145630517936254 -1 0 0 0 -0.62932039886446345 0.77714595512881146 forward_v I I I I #
face $-1 $140 $141 $47 $-1 $142 forward single #
loop $-1 $143 $144 $60 #
cone-surface $-1 -37.814768502914148 -20.355265268093302 3.5816290499503656 0 0.62932039886446345 -0.77714595512881146 2 0 0 1 I I 0 1 2 forward I I I I #
face $-1 $145 $146 $48 $-1 $147 forward single #
loop $-1 $148 $149 $61 #
cone-surface $-1 -26.469168902522334 -20.355265268093302 3.5816290499503656 0 0.62932039886446345 -0.77714595512881146 2 0 0 1 I I 0 1 2 forward I I I I #
face $-1 $150 $151 $49 $-1 $152 reversed single #
loop $-1 $-1 $153 $62 #
plane-surface $-1 34.189446210366413 -92.085005894597998 85.145630517936254 -1 0 0 0 -0.62932039886446345 0.77714595512881146 forward_v I I I I #
face $-1 $154 $155 $50 $-1 $156 forward single #
loop $-1 $157 $158 $63 #
cone-surface $-1 15.280113543046724 -20.355265268093302 3.5816290499503656 0 0.62932039886446345 -0.77714595512881146 2 0 0 1 I I 0 1 2 forward I I I I #
face $-1 $159 $160 $51 $-1 $161 forward single #
loop $-1 $162 $163 $64 #
cone-surface $-1 26.625713143438531 -20.355265268093302 3.5816290499503656 0 0.62932039886446345 -0.77714595512881146 2 0 0 1 I I 0 1 2 forward I I I I #
face $-1 $164 $165 $39 $-1 $166 reversed single #
loop $-1 $-1 $167 $65 #
plane-surface $-1 0 0 -8.1770652554057754 0 0 1 1 0 0 forward_v I I I I #
coedge $-1 $168 $169 $170 $171 forward $66 $-1 #
face $-1 $172 $173 $40 $-1 $174 reversed single #
loop $-1 $-1 $175 $68 #
plane-surface $-1 -11.868367833537953 -13.439299198950522 32.865721099297431 0 0.64278761758704617 0.76604443648966558 1 0 0 forward_v I I I I #
coedge $-1 $176 $177 $178 $179 reversed $69 $-1 #
face $-1 $-1 $180 $41 $-1 $181 forward single #
loop $-1 $182 $183 $71 #
cone-surface $-1 -16.95481119076851 18.526118144540899 1.7900510380301355 0 -0.64278761758704617 -0.76604443648966558 1 0 0 1 I I -0.70710678118654746 0.70710678118654746 1 forward I I I I #
loop $-1 $-1 $184 $54 #
coedge $-1 $116 $116 $185 $186 reversed $72 $-1 #
face $-1 $-1 $187 $42 $-1 $188 forward single #
loop $-1 $189 $190 $74 #
cone-surface $-1 -6.7819244763074096 18.526118144540899 1.7900510380301355 0 -0.64278761758704617 -0.76604443648966558 1 0 0 1 I I -0.70710678118654746 0.70710678118654746 1 forward I I I I #
loop $-1 $-1 $191 $55 #
coedge $-1 $121 $121 $192 $193 reversed $75 $-1 #
face $-1 $194 $195 $43 $-1 $196 forward single #
loop $-1 $-1 $197 $77 #
plane-surface $-1 41.226514212422927 -13.439299198950522 32.865721099297431 0 0.64278761758704617 0.76604443648966558 1 0 0 forward_v I I I I #
coedge $-1 $198 $199 $200 $201 reversed $78 $-1 #
face $-1 $-1 $202 $44 $-1 $203 forward single #
loop $-1 $204 $205 $80 #
cone-surface $-1 36.140070855192363 18.526118144540899 1.7900510380301355 0 -0.64278761758704617 -0.76604443648966558 1 0 0 1 I I -0.70710678118654746 0.70710678118654746 1 forward I I I I #
loop $-1 $-1 $206 $57 #
coedge $-1 $130 $130 $207 $208 reversed $81 $-1 #
face $-1 $-1 $209 $45 $-1 $210 forward single #
loop $-1 $211 $212 $83 #
cone-surface $-1 46.312957569653463 18.526118144540899 1.7900510380301355 0 -0.64278761758704617 -0.76604443648966558 1 0 0 1 I I -0.70710678118654746 0.70710678118654746 1 forward I I I I #
loop $-1 $-1 $213 $58 #
coedge $-1 $135 $135 $214 $215 reversed $84 $-1 #
face $-1 $216 $217 $46 $-1 $218 reversed single #
loop $-1 $-1 $219 $86 #
plane-surface $-1 -32.141968702718245 -25.257621200946531 2.6206848778165579 0 -0.62932039886446345 0.77714595512881146 1 0 0 forward_v I I I I #
coedge $-1 $220 $221 $222 $223 reversed $87 $-1 #
face $-1 $-1 $224 $47 $-1 $225 forward single #
loop $-1 $226 $227 $89 #
cone-surface $-1 -37.814768502914148 -18.254368030293506 0.98723707816074757 0 0.62932039886446345 -0.77714595512881146 1 0 0 1 I I -0.70710678118654746 0.70710678118654746 1 forward I I I I #
loop $-1 $-1 $228 $60 #
coedge $-1 $144 $144 $229 $230 reversed $90 $-1 #
face $-1 $-1 $231 $48 $-1 $232 forward single #
loop $-1 $233 $234 $92 #
cone-surface $-1 -26.469168902522334 -18.254368030293506 0.98723707816074757 0 0.62932039886446345 -0.77714595512881146 1 0 0 1 I I -0.70710678118654746 0.70710678118654746 1 forward I I I I #
loop $-1 $-1 $235 $61 #
coedge $-1 $149 $149 $236 $237 reversed $93 $-1 #
face $-1 $238 $239 $49 $-1 $240 reversed single #
loop $-1 $-1 $241 $95 #
plane-surface $-1 20.952913343242628 -25.257621200946531 2.6206848778165579 0 -0.62932039886446345 0.77714595512881146 1 0 0 forward_v I I I I #
coedge $-1 $242 $243 $244 $245 reversed $96 $-1 #
face $-1 $-1 $246 $50 $-1 $247 forward single #
loop $-1 $248 $249 $98 #
cone-surface $-1 15.280113543046724 -18.254368030293506 0.98723707816074757 0 0.62932039886446345 -0.77714595512881146 1 0 0 1 I I -0.70710678118654746 0.70710678118654746 1 forward I I I I #
loop $-1 $-1 $250 $63 #
coedge $-1 $158 $158 $251 $252 reversed $99 $-1 #
face $-1 $-1 $253 $51 $-1 $254 forward single #
loop $-1 $255 $256 $101 #
cone-surface $-1 26.625713143438531 -18.254368030293506 0.98723707816074757 0 0.62932039886446345 -0.77714595512881146 1 0 0 1 I I -0.70710678118654746 0.70710678118654746 1 forward I I I I #
loop $-1 $-1 $257 $64 #
coedge $-1 $163 $163 $258 $259 reversed $102 $-1 #
face $-1 $260 $261 $39 $-1 $262 reversed single #
loop $-1 $-1 $263 $104 #
plane-surface $-1 0 -25.257621200946534 0 0 1 0 0 0 1 forward_v I I I I #
coedge $-1 $264 $265 $266 $267 forward $105 $-1 #
coedge $-1 $268 $107 $269 $270 forward $66 $-1 #
coedge $-1 $107 $268 $271 $272 forward $66 $-1 #
coedge $-1 $273 $274 $107 $171 reversed $275 $-1 #
edge $-1 $276 -25.257621200946534 $277 25.257621200946534 $170 $278 forward 7 unknown #
face $-1 $279 $280 $40 $-1 $281 reversed single #
loop $-1 $-1 $282 $108 #
plane-surface $-1 1.7763568394002505e-015 54.818166273826321 114.21179909406415 -1 0 0 0 0.64278761758704617 0.76604443648966558 forward_v I I I I #
coedge $-1 $283 $284 $285 $286 reversed $109 $-1 #
coedge $-1 $177 $111 $287 $288 reversed $69 $-1 #
coedge $-1 $111 $176 $283 $289 reversed $69 $-1 #
coedge $-1 $285 $290 $111 $179 forward $291 $-1 #
edge $-1 $292 2.1514619359666263 $293 11.425588653842997 $178 $294 forward 7 unknown #
loop $-1 $-1 $185 $112 #
plane-surface $-1 -11.868367833537953 -13.439299198950522 32.865721099297431 0 0.64278761758704617 0.76604443648966558 1 0 0 forward_v I I I I #
loop $-1 $-1 $295 $71 #
coedge $-1 $183 $183 $184 $296 reversed $113 $-1 #
coedge $-1 $184 $184 $183 $296 forward $115 $-1 #
coedge $-1 $185 $185 $116 $186 forward $180 $-1 #
edge $-1 $297 4.3789618652077234e-016 $297 6.2831853071796004 $185 $298 forward 7 unknown #
loop $-1 $-1 $192 $117 #
plane-surface $-1 -11.868367833537953 -13.439299198950522 32.865721099297431 0 0.64278761758704617 0.76604443648966558 1 0 0 forward_v I I I I #
loop $-1 $-1 $299 $74 #
coedge $-1 $190 $190 $191 $300 reversed $118 $-1 #
coedge $-1 $191 $191 $190 $300 forward $120 $-1 #
coedge $-1 $192 $192 $121 $193 forward $187 $-1 #
edge $-1 $301 4.3789618652077234e-016 $301 6.2831853071796004 $192 $302 forward 7 unknown #
face $-1 $303 $304 $43 $-1 $305 reversed single #
loop $-1 $-1 $200 $122 #
plane-surface $-1 0 0 8.1770652554057754 0 0 1 1 0 0 forward_v I I I I #
coedge $-1 $306 $307 $308 $309 reversed $123 $-1 #
coedge $-1 $199 $125 $310 $311 reversed $78 $-1 #
coedge $-1 $125 $198 $306 $312 reversed $78 $-1 #
coedge $-1 $308 $313 $125 $201 forward $195 $-1 #
edge $-1 $314 2.1514619359666263 $315 11.425588653842997 $200 $316 forward 7 unknown #
loop $-1 $-1 $207 $126 #
plane-surface $-1 41.226514212422927 -13.439299198950522 32.865721099297431 0 0.64278761758704617 0.76604443648966558 1 0 0 forward_v I I I I #
loop $-1 $-1 $317 $80 #
coedge $-1 $205 $205 $206 $318 reversed $127 $-1 #
coedge $-1 $206 $206 $205 $318 forward $129 $-1 #
coedge $-1 $207 $207 $130 $208 forward $202 $-1 #
edge $-1 $319 4.3789618652077234e-016 $319 6.2831853071796004 $207 $320 forward 7 unknown #
loop $-1 $-1 $214 $131 #
plane-surface $-1 41.226514212422927 -13.439299198950522 32.865721099297431 0 0.64278761758704617 0.76604443648966558 1 0 0 forward_v I I I I #
loop $-1 $-1 $321 $83 #
coedge $-1 $212 $212 $213 $322 reversed $132 $-1 #
coedge $-1 $213 $213 $212 $322 forward $134 $-1 #
coedge $-1 $214 $214 $135 $215 forward $209 $-1 #
edge $-1 $323 4.3789618652077234e-016 $323 6.2831853071796004 $214 $324 forward 7 unknown #
face $-1 $325 $326 $46 $-1 $327 reversed single #
loop $-1 $-1 $328 $136 #
plane-surface $-1 -45.37850156984203 -92.085005894597998 85.145630517936254 1 0 0 0 0.62932039886446345 -0.77714595512881146 forward_v I I I I #
coedge $-1 $329 $330 $331 $332 reversed $137 $-1 #
coedge $-1 $221 $139 $333 $334 reversed $87 $-1 #
coedge $-1 $139 $220 $329 $335 reversed $87 $-1 #
coedge $-1 $331 $336 $139 $223 forward $337 $-1 #
edge $-1 $338 20.784881746352465 $339 27.64643993418828 $222 $340 forward 7 unknown #
loop $-1 $-1 $229 $140 #
plane-surface $-1 -32.141968702718245 -25.257621200946531 2.6206848778165579 0 -0.62932039886446345 0.77714595512881146 1 0 0 forward_v I I I I #
loop $-1 $-1 $341 $89 #
coedge $-1 $227 $227 $228 $342 reversed $141 $-1 #
coedge $-1 $228 $228 $227 $342 forward $143 $-1 #
coedge $-1 $229 $229 $144 $230 forward $224 $-1 #
edge $-1 $343 -2.4570747714239655e-016 $343 6.2831853071796004 $229 $344 forward 7 unknown #
loop $-1 $-1 $236 $145 #
plane-surface $-1 -32.141968702718245 -25.257621200946531 2.6206848778165579 0 -0.62932039886446345 0.77714595512881146 1 0 0 forward_v I I I I #
loop $-1 $-1 $345 $92 #
coedge $-1 $234 $234 $235 $346 reversed $146 $-1 #
coedge $-1 $235 $235 $234 $346 forward $148 $-1 #
coedge $-1 $236 $236 $149 $237 forward $231 $-1 #
edge $-1 $347 -2.4570747714239655e-016 $347 6.2831853071796004 $236 $348 forward 7 unknown #
face $-1 $349 $350 $49 $-1 $351 reversed single #
loop $-1 $-1 $352 $150 #
plane-surface $-1 7.7163804761188395 -92.085005894597998 85.145630517936254 1 0 0 0 0.62932039886446345 -0.77714595512881146 forward_v I I I I #
coedge $-1 $353 $354 $355 $356 reversed $151 $-1 #
coedge $-1 $243 $153 $357 $358 reversed $96 $-1 #
coedge $-1 $153 $242 $353 $359 reversed $96 $-1 #
coedge $-1 $355 $360 $153 $245 forward $361 $-1 #
edge $-1 $362 20.784881746352465 $363 27.64643993418828 $244 $364 forward 7 unknown #
loop $-1 $-1 $251 $154 #
plane-surface $-1 20.952913343242628 -25.257621200946531 2.6206848778165579 0 -0.62932039886446345 0.77714595512881146 1 0 0 forward_v I I I I #
loop $-1 $-1 $365 $98 #
coedge $-1 $249 $249 $250 $366 reversed $155 $-1 #
coedge $-1 $250 $250 $249 $366 forward $157 $-1 #
coedge $-1 $251 $251 $158 $252 forward $246 $-1 #
edge $-1 $367 -2.4570747714239655e-016 $367 6.2831853071796004 $251 $368 forward 7 unknown #
loop $-1 $-1 $258 $159 #
plane-surface $-1 20.952913343242628 -25.257621200946531 2.6206848778165579 0 -0.62932039886446345 0.77714595512881146 1 0 0 forward_v I I I I #
loop $-1 $-1 $369 $101 #
coedge $-1 $256 $256 $257 $370 reversed $160 $-1 #
coedge $-1 $257 $257 $256 $370 forward $162 $-1 #
coedge $-1 $258 $258 $163 $259 forward $253 $-1 #
edge $-1 $371 -2.4570747714239655e-016 $371 6.2831853071796004 $258 $372 forward 7 unknown #
face $-1 $373 $374 $39 $-1 $375 reversed single #
loop $-1 $-1 $376 $164 #
plane-surface $-1 -53.094882045960873 0 0 1 0 0 0 0 -1 forward_v I I I I #
coedge $-1 $377 $271 $378 $379 forward $165 $-1 #
coedge $-1 $380 $167 $377 $381 forward $105 $-1 #
coedge $-1 $167 $380 $382 $383 forward $105 $-1 #
coedge $-1 $274 $273 $167 $267 reversed $275 $-1 #
edge $-1 $384 -25.257621200946534 $385 25.257621200946534 $266 $386 forward 7 unknown #
coedge $-1 $169 $168 $387 $388 forward $66 $-1 #
coedge $-1 $389 $390 $168 $270 reversed $374 $-1 #
edge $-1 $277 -53.094882045960873 $391 53.094882045960873 $269 $392 forward 7 unknown #
coedge $-1 $263 $393 $169 $272 reversed $165 $-1 #
edge $-1 $394 -53.094882045960873 $276 53.094882045960873 $271 $395 forward 7 unknown #
coedge $-1 $266 $170 $393 $396 forward $275 $-1 #
coedge $-1 $170 $266 $389 $397 reversed $275 $-1 #
loop $-1 $-1 $273 $373 #
vertex $-1 $171 $398 #
vertex $-1 $171 $399 #
straight-curve $-1 53.094882045960873 0 8.1770652554057754 0 1 0 I I #
face $-1 $-1 $291 $40 $-1 $400 forward single #
loop $-1 $-1 $401 $172 #
plane-surface $-1 0 25.257621200946534 0 0 -1 0 0 0 -1 forward_v I I I I #
coedge $-1 $402 $403 $404 $405 reversed $173 $-1 #
coedge $-1 $406 $175 $177 $289 forward $109 $-1 #
coedge $-1 $175 $406 $402 $407 forward $109 $-1 #
coedge $-1 $404 $178 $175 $286 forward $291 $-1 #
edge $-1 $293 -17.802551750306929 $408 5.9341839167689781 $285 $409 forward 7 unknown #
coedge $-1 $410 $411 $176 $288 forward $280 $-1 #
edge $-1 $412 -56.710750763079638 $292 -48.928834291626302 $287 $413 forward 7 unknown #
edge $-1 $293 38.408729677416844 $412 50.51524240189309 $177 $414 forward 7 unknown #
coedge $-1 $178 $404 $410 $415 forward $291 $-1 #
loop $-1 $-1 $404 $279 #
vertex $-1 $288 $416 #
vertex $-1 $179 $417 #
straight-curve $-1 -23.736735667075905 27.409083136913161 8.1770652554057719 0 -1 0 I I #
coedge $-1 $295 $295 $-1 $418 reversed $182 $-1 #
edge $-1 $419 0 $419 6.2831853071796004 $183 $420 forward 7 unknown #
vertex $-1 $186 $421 #
ellipse-curve $-1 -16.95481119076851 20.620557842008349 4.2861070196791076 0 0.64278761758704617 0.76604443648966558 2 0 0 1 I I #
coedge $-1 $299 $299 $-1 $422 reversed $189 $-1 #
edge $-1 $423 0 $423 6.2831853071796004 $190 $424 forward 7 unknown #
vertex $-1 $193 $425 #
ellipse-curve $-1 -6.7819244763074096 20.620557842008349 4.2861070196791076 0 0.64278761758704617 0.76604443648966558 2 0 0 1 I I #
face $-1 $-1 $426 $43 $-1 $427 reversed single #
loop $-1 $-1 $310 $194 #
plane-surface $-1 0 25.257621200946534 0 0 -1 0 0 0 -1 forward_v I I I I #
coedge $-1 $428 $197 $199 $312 forward $123 $-1 #
coedge $-1 $197 $428 $429 $430 reversed $123 $-1 #
coedge $-1 $431 $200 $197 $309 forward $195 $-1 #
edge $-1 $315 8.744889272673511 $432 32.481624939749416 $308 $433 forward 7 unknown #
coedge $-1 $434 $435 $198 $311 forward $304 $-1 #
edge $-1 $436 -56.710750763079638 $314 -48.928834291626302 $310 $437 forward 7 unknown #
edge $-1 $315 38.408729677416844 $436 50.51524240189309 $199 $438 forward 7 unknown #
coedge $-1 $200 $431 $434 $439 forward $195 $-1 #
vertex $-1 $201 $440 #
vertex $-1 $201 $441 #
straight-curve $-1 29.358146378884975 27.409083136913161 8.1770652554057719 0 -1 0 I I #
coedge $-1 $317 $317 $-1 $442 reversed $204 $-1 #
edge $-1 $443 0 $443 6.2831853071796004 $205 $444 forward 7 unknown #
vertex $-1 $208 $445 #
ellipse-curve $-1 36.140070855192363 20.620557842008349 4.2861070196791076 0 0.64278761758704617 0.76604443648966558 2 0 0 1 I I #
coedge $-1 $321 $321 $-1 $446 reversed $211 $-1 #
edge $-1 $447 0 $447 6.2831853071796004 $212 $448 forward 7 unknown #
vertex $-1 $215 $449 #
ellipse-curve $-1 46.312957569653463 20.620557842008349 4.2861070196791076 0 0.64278761758704617 0.76604443648966558 2 0 0 1 I I #
face $-1 $-1 $337 $46 $-1 $450 forward single #
loop $-1 $-1 $451 $216 #
plane-surface $-1 0 -25.257621200946534 0 0 1 0 0 0 1 forward_v I I I I #
coedge $-1 $452 $453 $454 $455 reversed $217 $-1 #
coedge $-1 $456 $219 $221 $335 forward $137 $-1 #
coedge $-1 $219 $456 $452 $457 forward $137 $-1 #
coedge $-1 $454 $222 $219 $332 forward $337 $-1 #
edge $-1 $339 2.8344514842353341 $458 29.307517218482907 $331 $459 forward 7 unknown #
coedge $-1 $460 $461 $220 $334 forward $326 $-1 #
edge $-1 $462 -39.952130381151569 $338 -34.395750003562355 $333 $463 forward 7 unknown #
edge $-1 $339 -8.829175707024703 $462 4.4378234572560832e-015 $221 $464 forward 7 unknown #
coedge $-1 $222 $454 $460 $465 forward $337 $-1 #
loop $-1 $-1 $454 $325 #
vertex $-1 $334 $466 #
vertex $-1 $223 $467 #
straight-curve $-1 -18.905435835594457 -46.042502947298999 8.1770652554057719 0 1 0 I I #
coedge $-1 $341 $341 $-1 $468 reversed $226 $-1 #
edge $-1 $469 0 $469 6.2831853071796004 $227 $470 forward 7 unknown #
vertex $-1 $230 $471 #
ellipse-curve $-1 -37.814768502914148 -21.826842107028629 5.3988750666111649 0 -0.62932039886446345 0.77714595512881146 2 0 0 1 I I #
coedge $-1 $345 $345 $-1 $472 reversed $233 $-1 #
edge $-1 $473 0 $473 6.2831853071796004 $234 $474 forward 7 unknown #
vertex $-1 $237 $475 #
ellipse-curve $-1 -26.469168902522334 -21.826842107028629 5.3988750666111649 0 -0.62932039886446345 0.77714595512881146 2 0 0 1 I I #
face $-1 $-1 $361 $49 $-1 $476 forward single #
loop $-1 $-1 $477 $238 #
plane-surface $-1 0 -25.257621200946534 0 0 1 0 0 0 1 forward_v I I I I #
coedge $-1 $478 $479 $480 $481 reversed $239 $-1 #
coedge $-1 $482 $241 $243 $359 forward $151 $-1 #
coedge $-1 $241 $482 $478 $483 forward $151 $-1 #
coedge $-1 $480 $244 $241 $356 forward $361 $-1 #
edge $-1 $363 -23.712989538745099 $484 2.7600761955024744 $355 $485 forward 7 unknown #
coedge $-1 $486 $487 $242 $358 forward $350 $-1 #
edge $-1 $488 -39.952130381151569 $362 -34.395750003562355 $357 $489 forward 7 unknown #
edge $-1 $363 -8.829175707024703 $488 4.4378234572560832e-015 $243 $490 forward 7 unknown #
coedge $-1 $244 $480 $486 $491 forward $361 $-1 #
loop $-1 $-1 $480 $349 #
vertex $-1 $358 $492 #
vertex $-1 $245 $493 #
straight-curve $-1 34.189446210366413 -46.042502947298999 8.1770652554057719 0 1 0 I I #
coedge $-1 $365 $365 $-1 $494 reversed $248 $-1 #
edge $-1 $495 0 $495 6.2831853071796004 $249 $496 forward 7 unknown #
vertex $-1 $252 $497 #
ellipse-curve $-1 15.280113543046724 -21.826842107028629 5.3988750666111649 0 -0.62932039886446345 0.77714595512881146 2 0 0 1 I I #
coedge $-1 $369 $369 $-1 $498 reversed $255 $-1 #
edge $-1 $499 0 $499 6.2831853071796004 $256 $500 forward 7 unknown #
vertex $-1 $259 $501 #
ellipse-curve $-1 26.625713143438531 -21.826842107028629 5.3988750666111649 0 -0.62932039886446345 0.77714595512881146 2 0 0 1 I I #
face $-1 $-1 $275 $39 $-1 $502 reversed single #
loop $-1 $-1 $389 $260 #
plane-surface $-1 0 25.257621200946534 0 0 -1 0 0 0 -1 forward_v I I I I #
coedge $-1 $503 $387 $390 $504 forward $261 $-1 #
coedge $-1 $393 $263 $264 $381 reversed $165 $-1 #
coedge $-1 $387 $503 $263 $379 reversed $261 $-1 #
edge $-1 $394 -8.1770652554057754 $505 8.1770652554057754 $378 $506 forward 7 unknown #
coedge $-1 $265 $264 $503 $507 forward $105 $-1 #
edge $-1 $385 -53.094882045960873 $505 53.094882045960873 $377 $508 forward 7 unknown #
coedge $-1 $390 $389 $265 $383 reversed $374 $-1 #
edge $-1 $509 -53.094882045960873 $384 53.094882045960873 $382 $510 forward 7 unknown #
vertex $-1 $267 $511 #
vertex $-1 $396 $512 #
straight-curve $-1 53.094882045960873 0 -8.1770652554057754 0 -1 0 I I #
coedge $-1 $376 $378 $268 $388 reversed $261 $-1 #
edge $-1 $391 -25.257621200946534 $394 25.257621200946534 $387 $513 forward 7 unknown #
coedge $-1 $382 $269 $274 $397 forward $374 $-1 #
coedge $-1 $269 $382 $376 $504 reversed $374 $-1 #
vertex $-1 $270 $514 #
straight-curve $-1 0 25.257621200946534 8.1770652554057754 -1 0 0 I I #
coedge $-1 $271 $377 $273 $396 reversed $165 $-1 #
vertex $-1 $388 $515 #
straight-curve $-1 0 -25.257621200946534 8.1770652554057754 1 0 0 I I #
edge $-1 $276 -8.1770652554057754 $385 8.1770652554057754 $273 $516 forward 7 unknown #
edge $-1 $277 -8.1770652554057754 $384 8.1770652554057754 $274 $517 forward 7 unknown #
point $-1 53.094882045960873 -25.257621200946534 8.1770652554057754 #
point $-1 53.094882045960873 25.257621200946534 8.1770652554057754 #
plane-surface $-1 0 0 8.1770652554057754 0 0 1 1 0 0 forward_v I I I I #
coedge $-1 $411 $410 $403 $518 forward $280 $-1 #
coedge $-1 $403 $282 $284 $407 reversed $173 $-1 #
coedge $-1 $282 $402 $401 $518 reversed $173 $-1 #
coedge $-1 $290 $285 $282 $405 forward $291 $-1 #
edge $-1 $408 -11.425588653842997 $519 -2.1514619359666263 $404 $520 forward 7 unknown #
coedge $-1 $284 $283 $411 $521 reversed $109 $-1 #
edge $-1 $522 -50.51524240189309 $408 -38.408729677416844 $402 $523 forward 7 unknown #
vertex $-1 $286 $524 #
straight-curve $-1 -5.9341839167689763 15.983494483070166 8.177065255405779 1 0 0 I I #
coedge $-1 $401 $287 $290 $415 reversed $280 $-1 #
coedge $-1 $287 $401 $406 $521 forward $280 $-1 #
vertex $-1 $288 $525 #
straight-curve $-1 -23.736735667075905 25.257621200946534 57.105899547032074 0 0 1 I I #
straight-curve $-1 -23.736735667075905 -13.439299198950522 32.865721099297431 0 0.76604443648966558 -0.64278761758704617 I I #
edge $-1 $519 -1.7763568394002505e-015 $292 23.736735667075905 $410 $526 forward 7 unknown #
point $-1 -23.736735667075905 25.257621200946534 8.1770652554057754 #
point $-1 -23.736735667075905 15.983494483070164 8.177065255405779 #
edge $-1 $527 1 $527 0 $295 $-1 forward 7 unknown #
vertex $-1 $296 $528 #
ellipse-curve $-1 -16.95481119076851 19.168905762127945 2.5560954745198012 0 0.64278761758704617 0.76604443648966558 2 0 0 1 I I #
point $-1 -14.95481119076851 20.620557842008356 4.2861070196791147 #
edge $-1 $529 1 $529 0 $299 $-1 forward 7 unknown #
vertex $-1 $300 $530 #
ellipse-curve $-1 -6.7819244763074096 19.168905762127945 2.5560954745198012 0 0.64278761758704617 0.76604443648966558 2 0 0 1 I I #
point $-1 -4.7819244763074096 20.620557842008356 4.2861070196791147 #
loop $-1 $-1 $429 $303 #
plane-surface $-1 53.094882045960873 0 0 -1 0 0 0 0 1 forward_v I I I I #
coedge $-1 $307 $306 $435 $531 reversed $123 $-1 #
coedge $-1 $532 $533 $307 $430 forward $426 $-1 #
edge $-1 $432 22.698340203729959 $534 34.804852928206202 $429 $535 forward 7 unknown #
coedge $-1 $313 $308 $533 $536 forward $195 $-1 #
vertex $-1 $536 $537 #
straight-curve $-1 20.613257106211464 15.983494483070166 8.177065255405779 1 0 0 I I #
coedge $-1 $538 $310 $313 $439 reversed $304 $-1 #
coedge $-1 $310 $538 $428 $531 forward $304 $-1 #
vertex $-1 $311 $539 #
straight-curve $-1 29.358146378884975 25.257621200946534 57.105899547032074 0 0 1 I I #
straight-curve $-1 29.358146378884975 -13.439299198950522 32.865721099297431 0 0.76604443648966558 -0.64278761758704617 I I #
edge $-1 $540 -53.094882045960873 $314 -29.358146378884975 $434 $541 forward 7 unknown #
point $-1 29.358146378884975 25.257621200946534 8.1770652554057754 #
point $-1 29.358146378884975 15.983494483070164 8.177065255405779 #
edge $-1 $542 1 $542 0 $317 $-1 forward 7 unknown #
vertex $-1 $318 $543 #
ellipse-curve $-1 36.140070855192363 19.168905762127945 2.5560954745198012 0 0.64278761758704617 0.76604443648966558 2 0 0 1 I I #
point $-1 38.140070855192363 20.620557842008356 4.2861070196791147 #
edge $-1 $544 1 $544 0 $321 $-1 forward 7 unknown #
vertex $-1 $322 $545 #
ellipse-curve $-1 46.312957569653463 19.168905762127945 2.5560954745198012 0 0.64278761758704617 0.76604443648966558 2 0 0 1 I I #
point $-1 48.312957569653463 20.620557842008356 4.2861070196791147 #
plane-surface $-1 0 0 8.1770652554057754 0 0 1 1 0 0 forward_v I I I I #
coedge $-1 $461 $460 $453 $546 forward $326 $-1 #
coedge $-1 $453 $328 $330 $457 reversed $217 $-1 #
coedge $-1 $328 $452 $451 $546 reversed $217 $-1 #
coedge $-1 $336 $331 $328 $455 forward $337 $-1 #
edge $-1 $458 -27.64643993418828 $547 -20.784881746352465 $454 $548 forward 7 unknown #
coedge $-1 $330 $329 $461 $549 reversed $137 $-1 #
edge $-1 $550 -4.4378234572560832e-015 $458 8.829175707024703 $452 $551 forward 7 unknown #
vertex $-1 $332 $552 #
straight-curve $-1 -16.070984351359122 -18.396063013110719 8.1770652554057754 -1 0 0 I I #
coedge $-1 $451 $333 $336 $465 reversed $326 $-1 #
coedge $-1 $333 $451 $456 $549 forward $326 $-1 #
vertex $-1 $334 $553 #
straight-curve $-1 -18.905435835594457 -25.257621200946538 42.572815258968127 0 0 1 I I #
straight-curve $-1 -18.905435835594457 -25.257621200946531 2.6206848778165579 0 -0.77714595512881146 -0.62932039886446345 I I #
edge $-1 $547 -45.37850156984203 $338 -18.905435835594457 $460 $554 forward 7 unknown #
point $-1 -18.905435835594457 -25.257621200946534 8.1770652554057754 #
point $-1 -18.905435835594457 -18.396063013110719 8.1770652554057754 #
edge $-1 $555 1 $555 0 $341 $-1 forward 7 unknown #
vertex $-1 $342 $556 #
ellipse-curve $-1 -37.814768502914148 -18.883688429157971 1.7643830332895591 0 -0.62932039886446345 0.77714595512881146 2 0 0 1 I I #
point $-1 -35.814768502914148 -21.826842107028636 5.3988750666111729 #
edge $-1 $557 1 $557 0 $345 $-1 forward 7 unknown #
vertex $-1 $346 $558 #
ellipse-curve $-1 -26.469168902522334 -18.883688429157971 1.7643830332895591 0 -0.62932039886446345 0.77714595512881146 2 0 0 1 I I #
point $-1 -24.469168902522334 -21.826842107028636 5.3988750666111729 #
plane-surface $-1 0 0 8.1770652554057754 0 0 1 1 0 0 forward_v I I I I #
coedge $-1 $487 $486 $479 $559 forward $350 $-1 #
coedge $-1 $479 $352 $354 $483 reversed $239 $-1 #
coedge $-1 $352 $478 $477 $559 reversed $239 $-1 #
coedge $-1 $360 $355 $352 $481 forward $361 $-1 #
edge $-1 $484 -27.64643993418828 $560 -20.784881746352465 $480 $561 forward 7 unknown #
coedge $-1 $354 $353 $487 $562 reversed $151 $-1 #
edge $-1 $563 -4.4378234572560832e-015 $484 8.829175707024703 $478 $564 forward 7 unknown #
vertex $-1 $356 $565 #
straight-curve $-1 10.476456671621314 -18.396063013110719 8.1770652554057754 -1 0 0 I I #
coedge $-1 $477 $357 $360 $491 reversed $350 $-1 #
coedge $-1 $357 $477 $482 $562 forward $350 $-1 #
vertex $-1 $358 $566 #
straight-curve $-1 34.189446210366413 -25.257621200946538 42.572815258968127 0 0 1 I I #
straight-curve $-1 34.189446210366413 -25.257621200946531 2.6206848778165579 0 -0.77714595512881146 -0.62932039886446345 I I #
edge $-1 $560 7.7163804761188395 $362 34.189446210366413 $486 $567 forward 7 unknown #
point $-1 34.189446210366413 -25.257621200946534 8.1770652554057754 #
point $-1 34.189446210366413 -18.396063013110719 8.1770652554057754 #
edge $-1 $568 1 $568 0 $365 $-1 forward 7 unknown #
vertex $-1 $366 $569 #
ellipse-curve $-1 15.280113543046724 -18.883688429157971 1.7643830332895591 0 -0.62932039886446345 0.77714595512881146 2 0 0 1 I I #
point $-1 17.280113543046724 -21.826842107028636 5.3988750666111729 #
edge $-1 $570 1 $570 0 $369 $-1 forward 7 unknown #
vertex $-1 $370 $571 #
ellipse-curve $-1 26.625713143438531 -18.883688429157971 1.7643830332895591 0 -0.62932039886446345 0.77714595512881146 2 0 0 1 I I #
point $-1 28.625713143438531 -21.826842107028636 5.3988750666111729 #
plane-surface $-1 53.094882045960873 0 0 -1 0 0 0 0 1 forward_v I I I I #
coedge $-1 $378 $376 $380 $507 reversed $261 $-1 #
edge $-1 $391 -8.1770652554057754 $509 8.1770652554057754 $390 $572 forward 7 unknown #
vertex $-1 $507 $573 #
straight-curve $-1 -53.094882045960873 -25.257621200946534 0 0 0 -1 I I #
edge $-1 $505 -25.257621200946534 $509 25.257621200946534 $503 $574 forward 7 unknown #
straight-curve $-1 0 -25.257621200946534 -8.1770652554057754 -1 0 0 I I #
vertex $-1 $383 $575 #
straight-curve $-1 0 25.257621200946534 -8.1770652554057754 1 0 0 I I #
point $-1 53.094882045960873 25.257621200946534 -8.1770652554057754 #
point $-1 53.094882045960873 -25.257621200946534 -8.1770652554057754 #
straight-curve $-1 -53.094882045960873 0 8.1770652554057754 0 -1 0 I I #
point $-1 -53.094882045960873 25.257621200946534 8.1770652554057754 #
point $-1 -53.094882045960873 -25.257621200946534 8.1770652554057754 #
straight-curve $-1 53.094882045960873 -25.257621200946534 0 0 0 -1 I I #
straight-curve $-1 53.094882045960873 25.257621200946534 0 0 0 -1 I I #
edge $-1 $519 48.928834291626302 $522 56.710750763079638 $401 $576 forward 7 unknown #
vertex $-1 $415 $577 #
straight-curve $-1 1.7763568394002505e-015 27.409083136913161 8.1770652554057719 0 1 0 I I #
edge $-1 $522 -5.9341839167689781 $412 17.802551750306929 $411 $578 forward 7 unknown #
vertex $-1 $521 $579 #
straight-curve $-1 1.7763568394002505e-015 -13.439299198950522 32.865721099297431 0 -0.76604443648966558 0.64278761758704617 I I #
point $-1 1.7763568394002505e-015 15.983494483070164 8.177065255405779 #
point $-1 -23.736735667075905 25.257621200946531 0.39514878395243613 #
straight-curve $-1 0 25.257621200946534 8.1770652554057754 -1 0 0 I I #
vertex $-1 $418 $580 #
point $-1 -14.95481119076851 19.168905762127945 2.5560954745198012 #
vertex $-1 $422 $581 #
point $-1 -4.7819244763074096 19.168905762127945 2.5560954745198012 #
edge $-1 $534 -32.481624939749416 $436 -8.744889272673511 $435 $582 forward 7 unknown #
coedge $-1 $533 $429 $538 $583 reversed $426 $-1 #
coedge $-1 $429 $532 $431 $536 reversed $426 $-1 #
vertex $-1 $430 $584 #
straight-curve $-1 53.094882045960873 -1.4044427475468746 22.767277278141627 0 0.76604443648966558 -0.64278761758704617 I I #
edge $-1 $432 15.983494483070164 $540 25.257621200946534 $533 $585 forward 7 unknown #
point $-1 53.09488204596088 15.983494483070164 8.177065255405779 #
coedge $-1 $435 $434 $532 $583 forward $304 $-1 #
point $-1 29.358146378884975 25.257621200946531 0.39514878395243613 #
vertex $-1 $536 $586 #
straight-curve $-1 0 25.257621200946534 8.1770652554057754 -1 0 0 I I #
vertex $-1 $442 $587 #
point $-1 38.140070855192363 19.168905762127945 2.5560954745198012 #
vertex $-1 $446 $588 #
point $-1 48.312957569653463 19.168905762127945 2.5560954745198012 #
edge $-1 $547 34.395750003562355 $550 39.952130381151569 $451 $589 forward 7 unknown #
vertex $-1 $465 $590 #
straight-curve $-1 -45.37850156984203 -46.042502947298999 8.1770652554057719 0 -1 0 I I #
edge $-1 $550 -29.307517218482907 $462 -2.8344514842353341 $461 $591 forward 7 unknown #
vertex $-1 $549 $592 #
straight-curve $-1 -45.37850156984203 -25.257621200946531 2.6206848778165579 0 0.77714595512881146 0.62932039886446345 I I #
point $-1 -45.37850156984203 -18.396063013110719 8.1770652554057754 #
point $-1 -18.905435835594457 -25.257621200946534 2.6206848778165552 #
straight-curve $-1 0 -25.257621200946534 8.1770652554057754 1 0 0 I I #
vertex $-1 $468 $593 #
point $-1 -35.814768502914148 -18.883688429157971 1.7643830332895591 #
vertex $-1 $472 $594 #
point $-1 -24.469168902522334 -18.883688429157971 1.7643830332895591 #
edge $-1 $560 34.395750003562355 $563 39.952130381151569 $477 $595 forward 7 unknown #
vertex $-1 $491 $596 #
straight-curve $-1 7.7163804761188395 -46.042502947298999 8.1770652554057719 0 -1 0 I I #
edge $-1 $563 -2.7600761955024744 $488 23.712989538745099 $487 $597 forward 7 unknown #
vertex $-1 $562 $598 #
straight-curve $-1 7.7163804761188395 -25.257621200946531 2.6206848778165579 0 0.77714595512881146 0.62932039886446345 I I #
point $-1 7.7163804761188395 -18.396063013110719 8.1770652554057754 #
point $-1 34.189446210366413 -25.257621200946534 2.6206848778165552 #
straight-curve $-1 0 -25.257621200946534 8.1770652554057754 1 0 0 I I #
vertex $-1 $494 $599 #
point $-1 17.280113543046724 -18.883688429157971 1.7643830332895591 #
vertex $-1 $498 $600 #
point $-1 28.625713143438531 -18.883688429157971 1.7643830332895591 #
straight-curve $-1 -53.094882045960873 25.257621200946534 0 0 0 -1 I I #
point $-1 -53.094882045960873 -25.257621200946534 -8.1770652554057754 #
straight-curve $-1 -53.094882045960873 0 -8.1770652554057754 0 1 0 I I #
point $-1 -53.094882045960873 25.257621200946534 -8.1770652554057754 #
straight-curve $-1 1.7763568394002505e-015 25.257621200946534 57.105899547032074 0 0 -1 I I #
point $-1 1.7763568394002505e-015 25.257621200946534 8.1770652554057754 #
straight-curve $-1 -5.9341839167689763 25.257621200946531 0.39514878395243969 -1 0 0 I I #
point $-1 1.7763568394002505e-015 25.257621200946531 0.39514878395243613 #
point $-1 -16.95481119076851 17.883330526953852 1.0240066015404699 #
point $-1 -6.7819244763074096 17.883330526953852 1.0240066015404699 #
straight-curve $-1 20.613257106211464 25.257621200946531 0.39514878395243969 -1 0 0 I I #
edge $-1 $540 -8.1770652554057754 $534 -0.39514878395243613 $532 $601 forward 7 unknown #
point $-1 53.09488204596088 25.257621200946531 0.39514878395243613 #
straight-curve $-1 53.094882045960873 0 8.1770652554057754 0 1 0 I I #
point $-1 53.094882045960873 25.257621200946534 8.1770652554057754 #
point $-1 36.140070855192363 17.883330526953852 1.0240066015404699 #
point $-1 46.312957569653463 17.883330526953852 1.0240066015404699 #
straight-curve $-1 -45.37850156984203 -25.257621200946538 42.572815258968127 0 0 -1 I I #
point $-1 -45.37850156984203 -25.257621200946534 8.1770652554057754 #
straight-curve $-1 -16.070984351359122 -25.257621200946534 2.620684877816553 1 0 0 I I #
point $-1 -45.37850156984203 -25.257621200946534 2.6206848778165552 #
point $-1 -37.814768502914148 -17.625047631429041 0.21009112303193611 #
point $-1 -26.469168902522334 -17.625047631429041 0.21009112303193611 #
straight-curve $-1 7.7163804761188395 -25.257621200946538 42.572815258968127 0 0 -1 I I #
point $-1 7.7163804761188395 -25.257621200946534 8.1770652554057754 #
straight-curve $-1 10.476456671621314 -25.257621200946534 2.620684877816553 1 0 0 I I #
point $-1 7.7163804761188395 -25.257621200946534 2.6206848778165552 #
point $-1 15.280113543046724 -17.625047631429041 0.21009112303193611 #
point $-1 26.625713143438531 -17.625047631429041 0.21009112303193611 #
straight-curve $-1 53.094882045960873 25.257621200946534 0 0 0 -1 I I #
End-of-ACIS-data 