500 0 12 0           
7 Unknown 11 ACIS 5.0 NT 24 Fri Mar 26 01:42:43 1999 
-1 9.9999999999999995e-007 1e-010 
body $-1 $12 $-1 $13 #
body $-1 $14 $-1 $15 #
body $-1 $16 $-1 $17 #
body $-1 $18 $-1 $19 #
body $-1 $20 $-1 $21 #
body $-1 $22 $-1 $23 #
body $-1 $24 $-1 $25 #
body $-1 $26 $-1 $27 #
body $-1 $28 $-1 $29 #
body $-1 $30 $-1 $31 #
body $-1 $32 $-1 $33 #
body $-1 $34 $-1 $35 #
lump $-1 $-1 $36 $0 #
transform $-1 1 0 0 0 1 0 0 0 1 61.624195074312567 39.279476713860824 11.864998462430242 1 rotate no_reflect no_shear #
lump $-1 $-1 $37 $1 #
transform $-1 1 0 0 0 1 0 0 0 1 61.624195074312567 39.279476713860824 11.864998462430242 1 rotate no_reflect no_shear #
lump $-1 $-1 $38 $2 #
transform $-1 1 0 0 0 1 0 0 0 1 61.624195074312567 39.279476713860824 11.864998462430242 1 rotate no_reflect no_shear #
lump $-1 $-1 $39 $3 #
transform $-1 1 0 0 0 1 0 0 0 1 61.624195074312567 39.279476713860824 11.864998462430242 1 rotate no_reflect no_shear #
lump $-1 $-1 $40 $4 #
transform $-1 1 0 0 0 1 0 0 0 1 61.624195074312567 39.279476713860824 11.864998462430242 1 rotate no_reflect no_shear #
lump $-1 $-1 $41 $5 #
transform $-1 1 0 0 0 1 0 0 0 1 61.624195074312567 39.279476713860824 11.864998462430242 1 rotate no_reflect no_shear #
lump $-1 $-1 $42 $6 #
transform $-1 1 0 0 0 1 0 0 0 1 61.624195074312567 39.279476713860824 11.864998462430242 1 rotate no_reflect no_shear #
lump $-1 $-1 $43 $7 #
transform $-1 1 0 0 0 1 0 0 0 1 61.624195074312567 39.279476713860824 11.864998462430242 1 rotate no_reflect no_shear #
lump $-1 $-1 $44 $8 #
transform $-1 1 0 0 0 1 0 0 0 1 61.624195074312567 39.279476713860824 11.864998462430242 1 rotate no_reflect no_shear #
lump $-1 $-1 $45 $9 #
transform $-1 1 0 0 0 1 0 0 0 1 61.624195074312567 39.279476713860824 11.864998462430242 1 rotate no_reflect no_shear #
lump $-1 $-1 $46 $10 #
transform $-1 1 0 0 0 1 0 0 0 1 61.624195074312567 39.279476713860824 11.864998462430242 1 rotate no_reflect no_shear #
lump $-1 $-1 $47 $11 #
transform $-1 1 0 0 0 1 0 0 0 1 61.624195074312567 39.279476713860824 11.864998462430242 1 rotate no_reflect no_shear #
shell $-1 $-1 $-1 $48 $-1 $12 #
shell $-1 $-1 $-1 $49 $-1 $14 #
shell $-1 $-1 $-1 $50 $-1 $16 #
shell $-1 $-1 $-1 $51 $-1 $18 #
shell $-1 $-1 $-1 $52 $-1 $20 #
shell $-1 $-1 $-1 $53 $-1 $22 #
shell $-1 $-1 $-1 $54 $-1 $24 #
shell $-1 $-1 $-1 $55 $-1 $26 #
shell $-1 $-1 $-1 $56 $-1 $28 #
shell $-1 $-1 $-1 $57 $-1 $30 #
shell $-1 $-1 $-1 $58 $-1 $32 #
shell $-1 $-1 $-1 $59 $-1 $34 #
face $-1 $60 $61 $36 $-1 $62 forward single #
face $-1 $63 $64 $37 $-1 $65 reversed single #
face $-1 $66 $67 $38 $-1 $68 reversed single #
face $-1 $69 $70 $39 $-1 $71 forward single #
face $-1 $72 $73 $40 $-1 $74 forward single #
face $-1 $75 $76 $41 $-1 $77 reversed single #
face $-1 $78 $79 $42 $-1 $80 forward single #
face $-1 $81 $82 $43 $-1 $83 forward single #
face $-1 $84 $85 $44 $-1 $86 reversed single #
face $-1 $87 $88 $45 $-1 $89 forward single #
face $-1 $90 $91 $46 $-1 $92 forward single #
face $-1 $93 $94 $47 $-1 $95 forward single #
face $-1 $96 $97 $36 $-1 $98 reversed single #
loop $-1 $-1 $99 $48 #
plane-surface $-1 0 0 11.864998462430242 0 0 1 1 0 0 forward_v I I I I #
face $-1 $100 $101 $37 $-1 $102 reversed single #
loop $-1 $-1 $103 $49 #
plane-surface $-1 -56.840026510351706 0 8.8649984624302416 0 0 1 1 0 0 forward_v I I I I #
face $-1 $104 $105 $38 $-1 $106 reversed single #
loop $-1 $-1 $107 $50 #
plane-surface $-1 -19.168194669015506 70.879682122295264 150.21620582513648 1 0 0 0 -0.70710678939079041 -0.70710677298230451 forward_v I I I I #
face $-1 $108 $109 $39 $-1 $110 forward single #
loop $-1 $111 $112 $51 #
cone-surface $-1 -12.324662316736543 36.377306082124228 8.9628277971399157 0 -0.70710678939079041 -0.70710677298230451 1 0 0 1 I I 0 1 1 forward I I I I #
face $-1 $113 $114 $40 $-1 $115 forward single #
loop $-1 $116 $117 $52 #
cone-surface $-1 -2.0593637883181017 36.377306082124228 8.9628277971399157 0 -0.70710678939079041 -0.70710677298230451 1 0 0 1 I I 0 1 1 forward I I I I #
face $-1 $118 $119 $41 $-1 $120 reversed single #
loop $-1 $-1 $121 $53 #
plane-surface $-1 37.6718318413362 70.879682122295264 150.21620582513648 1 0 0 0 -0.70710678939079041 -0.70710677298230451 forward_v I I I I #
face $-1 $122 $123 $42 $-1 $124 forward single #
loop $-1 $125 $126 $54 #
cone-surface $-1 44.515364193615156 36.377306082124228 8.9628277971399157 0 -0.70710678939079041 -0.70710677298230451 1 0 0 1 I I 0 1 1 forward I I I I #
face $-1 $127 $128 $43 $-1 $129 forward single #
loop $-1 $130 $131 $55 #
cone-surface $-1 54.780662722033597 36.377306082124228 8.9628277971399157 0 -0.70710678939079041 -0.70710677298230451 1 0 0 1 I I 0 1 1 forward I I I I #
face $-1 $132 $133 $44 $-1 $134 reversed single #
loop $-1 $-1 $135 $56 #
plane-surface $-1 11.641907499865553 -109.97185003238903 102.50074429015991 -1 0 0 0 -0.57357644374324357 0.81915203911291934 forward_v I I I I #
face $-1 $136 $137 $45 $-1 $138 forward single #
loop $-1 $139 $140 $57 #
cone-surface $-1 -11.277700882706348 -31.305337508085138 5.8428979392242137 0 0.57357644374324357 -0.81915203911291934 1 0 0 1 I I 0 1 1 forward I I I I #
face $-1 $141 $142 $46 $-1 $143 forward single #
loop $-1 $144 $145 $58 #
cone-surface $-1 -2.6828477392418861 -31.305337508085138 5.8428979392242137 0 0.57357644374324357 -0.81915203911291934 1 0 0 1 I I 0 1 1 forward I I I I #
face $-1 $146 $147 $47 $-1 $148 forward single #
loop $-1 $149 $150 $59 #
cone-surface $-1 5.9120054042225689 -31.305337508085138 5.8428979392242137 0 0.57357644374324357 -0.81915203911291934 1 0 0 1 I I 0 1 1 forward I I I I #
face $-1 $151 $152 $36 $-1 $153 reversed single #
loop $-1 $-1 $154 $60 #
plane-surface $-1 0 0 -11.864998462430242 0 0 1 1 0 0 forward_v I I I I #
coedge $-1 $155 $156 $157 $158 forward $61 $-1 #
face $-1 $159 $160 $37 $-1 $161 reversed single #
loop $-1 $-1 $162 $63 #
plane-surface $-1 -52.055857946390844 0 10.364998462430242 -1 0 0 0 0 1 forward_v I I I I #
coedge $-1 $163 $164 $165 $166 forward $64 $-1 #
face $-1 $167 $168 $38 $-1 $169 reversed single #
loop $-1 $-1 $170 $66 #
plane-surface $-1 -7.1920130525273294 -16.270091333282579 63.066434391878119 0 0.70710678939079041 0.70710677298230451 1 0 0 forward_v I I I I #
coedge $-1 $171 $172 $173 $174 reversed $67 $-1 #
face $-1 $-1 $175 $39 $-1 $176 forward single #
loop $-1 $177 $178 $69 #
cone-surface $-1 -12.324662316736543 35.295648708607295 7.8811704487229566 0 -0.70710678939079041 -0.70710677298230451 0.5 0 0 1 I I -0.70710678118654746 0.70710678118654746 0.5 forward I I I I #
loop $-1 $-1 $179 $51 #
coedge $-1 $112 $112 $180 $181 reversed $70 $-1 #
face $-1 $-1 $182 $40 $-1 $183 forward single #
loop $-1 $184 $185 $72 #
cone-surface $-1 -2.0593637883181017 35.295648708607295 7.8811704487229566 0 -0.70710678939079041 -0.70710677298230451 0.5 0 0 1 I I -0.70710678118654746 0.70710678118654746 0.5 forward I I I I #
loop $-1 $-1 $186 $52 #
coedge $-1 $117 $117 $187 $188 reversed $73 $-1 #
face $-1 $189 $190 $41 $-1 $191 forward single #
loop $-1 $-1 $192 $75 #
plane-surface $-1 49.648013457824376 -16.270091333282579 63.066434391878119 0 0.70710678939079041 0.70710677298230451 1 0 0 forward_v I I I I #
coedge $-1 $193 $194 $195 $196 reversed $76 $-1 #
face $-1 $-1 $197 $42 $-1 $198 forward single #
loop $-1 $199 $200 $78 #
cone-surface $-1 44.515364193615156 35.295648708607295 7.8811704487229566 0 -0.70710678939079041 -0.70710677298230451 0.5 0 0 1 I I -0.70710678118654746 0.70710678118654746 0.5 forward I I I I #
loop $-1 $-1 $201 $54 #
coedge $-1 $126 $126 $202 $203 reversed $79 $-1 #
face $-1 $-1 $204 $43 $-1 $205 forward single #
loop $-1 $206 $207 $81 #
cone-surface $-1 54.780662722033597 35.295648708607295 7.8811704487229566 0 -0.70710678939079041 -0.70710677298230451 0.5 0 0 1 I I -0.70710678118654746 0.70710678118654746 0.5 forward I I I I #
loop $-1 $-1 $208 $55 #
coedge $-1 $131 $131 $209 $210 reversed $82 $-1 #
face $-1 $211 $212 $44 $-1 $213 reversed single #
loop $-1 $-1 $214 $84 #
plane-surface $-1 -2.6828477392418861 -39.279476713860802 1.5415741825289899 0 -0.57357644374324357 0.81915203911291934 1 0 0 forward_v I I I I #
coedge $-1 $215 $216 $217 $218 reversed $85 $-1 #
face $-1 $-1 $219 $45 $-1 $220 forward single #
loop $-1 $221 $222 $87 #
cone-surface $-1 -11.277700882706348 -30.416098842898922 4.5729335364123518 0 0.57357644374324357 -0.81915203911291934 0.5 0 0 1 I I -0.70710678118654746 0.70710678118654746 0.5 forward I I I I #
loop $-1 $-1 $223 $57 #
coedge $-1 $140 $140 $224 $225 reversed $88 $-1 #
face $-1 $-1 $226 $46 $-1 $227 forward single #
loop $-1 $228 $229 $90 #
cone-surface $-1 -2.6828477392418861 -30.416098842898922 4.5729335364123518 0 0.57357644374324357 -0.81915203911291934 0.5 0 0 1 I I -0.70710678118654746 0.70710678118654746 0.5 forward I I I I #
loop $-1 $-1 $230 $58 #
coedge $-1 $145 $145 $231 $232 reversed $91 $-1 #
face $-1 $-1 $233 $47 $-1 $234 forward single #
loop $-1 $235 $236 $93 #
cone-surface $-1 5.9120054042225689 -30.416098842898922 4.5729335364123518 0 0.57357644374324357 -0.81915203911291934 0.5 0 0 1 I I -0.70710678118654746 0.70710678118654746 0.5 forward I I I I #
loop $-1 $-1 $237 $59 #
coedge $-1 $150 $150 $238 $239 reversed $94 $-1 #
face $-1 $240 $241 $36 $-1 $242 reversed single #
loop $-1 $-1 $243 $96 #
plane-surface $-1 0 -39.279476713860824 0 0 1 0 0 0 1 forward_v I I I I #
coedge $-1 $244 $245 $246 $247 forward $97 $-1 #
coedge $-1 $248 $99 $249 $250 forward $61 $-1 #
coedge $-1 $99 $248 $251 $252 forward $61 $-1 #
coedge $-1 $253 $254 $99 $158 reversed $255 $-1 #
edge $-1 $256 -39.279476713860824 $257 39.279476713860824 $157 $258 forward 7 unknown #
face $-1 $259 $260 $37 $-1 $261 reversed single #
loop $-1 $-1 $262 $100 #
plane-surface $-1 0 39.279476713860824 0 0 -1 0 0 0 -1 forward_v I I I I #
coedge $-1 $165 $263 $264 $265 reversed $101 $-1 #
coedge $-1 $266 $103 $267 $268 reversed $64 $-1 #
coedge $-1 $103 $266 $269 $270 reversed $64 $-1 #
coedge $-1 $271 $162 $103 $166 reversed $101 $-1 #
edge $-1 $272 -39.279476713860824 $273 39.279476713860824 $165 $274 forward 7 unknown #
face $-1 $275 $276 $38 $-1 $277 forward single #
loop $-1 $-1 $278 $104 #
plane-surface $-1 4.7841685639608471 70.879682122295264 150.21620582513648 -1 0 0 0 0.70710678939079041 0.70710677298230451 forward_v I I I I #
coedge $-1 $279 $280 $281 $282 reversed $105 $-1 #
coedge $-1 $172 $107 $283 $284 reversed $67 $-1 #
coedge $-1 $107 $171 $279 $285 reversed $67 $-1 #
coedge $-1 $281 $286 $107 $174 forward $276 $-1 #
edge $-1 $287 -3.8396356527131914 $288 0.50849765311693318 $173 $289 forward 7 unknown #
loop $-1 $-1 $180 $108 #
plane-surface $-1 -7.1920130525273294 -16.270091333282579 63.066434391878119 0 0.70710678939079041 0.70710677298230451 1 0 0 forward_v I I I I #
loop $-1 $-1 $290 $69 #
coedge $-1 $178 $178 $179 $291 reversed $109 $-1 #
coedge $-1 $179 $179 $178 $291 forward $111 $-1 #
coedge $-1 $180 $180 $112 $181 forward $175 $-1 #
edge $-1 $292 -6.2803696744248052e-015 $292 6.2831853071795942 $180 $293 forward 7 unknown #
loop $-1 $-1 $187 $113 #
plane-surface $-1 -7.1920130525273294 -16.270091333282579 63.066434391878119 0 0.70710678939079041 0.70710677298230451 1 0 0 forward_v I I I I #
loop $-1 $-1 $294 $72 #
coedge $-1 $185 $185 $186 $295 reversed $114 $-1 #
coedge $-1 $186 $186 $185 $295 forward $116 $-1 #
coedge $-1 $187 $187 $117 $188 forward $182 $-1 #
edge $-1 $296 -6.2803696744248052e-015 $296 6.2831853071795942 $187 $297 forward 7 unknown #
face $-1 $298 $299 $41 $-1 $300 reversed single #
loop $-1 $-1 $195 $118 #
plane-surface $-1 0 0 11.864998462430242 0 0 1 1 0 0 forward_v I I I I #
coedge $-1 $301 $302 $303 $304 reversed $119 $-1 #
coedge $-1 $194 $121 $305 $306 reversed $76 $-1 #
coedge $-1 $121 $193 $301 $307 reversed $76 $-1 #
coedge $-1 $303 $308 $121 $196 forward $190 $-1 #
edge $-1 $309 -3.8396356527131914 $310 0.50849765311693318 $195 $311 forward 7 unknown #
loop $-1 $-1 $202 $122 #
plane-surface $-1 49.648013457824376 -16.270091333282579 63.066434391878119 0 0.70710678939079041 0.70710677298230451 1 0 0 forward_v I I I I #
loop $-1 $-1 $312 $78 #
coedge $-1 $200 $200 $201 $313 reversed $123 $-1 #
coedge $-1 $201 $201 $200 $313 forward $125 $-1 #
coedge $-1 $202 $202 $126 $203 forward $197 $-1 #
edge $-1 $314 -6.2803696744248052e-015 $314 6.2831853071795942 $202 $315 forward 7 unknown #
loop $-1 $-1 $209 $127 #
plane-surface $-1 49.648013457824376 -16.270091333282579 63.066434391878119 0 0.70710678939079041 0.70710677298230451 1 0 0 forward_v I I I I #
loop $-1 $-1 $316 $81 #
coedge $-1 $207 $207 $208 $317 reversed $128 $-1 #
coedge $-1 $208 $208 $207 $317 forward $130 $-1 #
coedge $-1 $209 $209 $131 $210 forward $204 $-1 #
edge $-1 $318 -6.2803696744248052e-015 $318 6.2831853071795942 $209 $319 forward 7 unknown #
face $-1 $320 $321 $44 $-1 $322 reversed single #
loop $-1 $-1 $323 $132 #
plane-surface $-1 -17.007602978349325 -109.97185003238903 102.50074429015991 1 0 0 0 0.57357644374324357 -0.81915203911291934 forward_v I I I I #
coedge $-1 $324 $325 $326 $327 reversed $133 $-1 #
coedge $-1 $216 $135 $328 $329 reversed $85 $-1 #
coedge $-1 $135 $215 $324 $330 reversed $85 $-1 #
coedge $-1 $326 $331 $135 $218 forward $332 $-1 #
edge $-1 $333 15.70644830233369 $334 30.4498258272559 $217 $335 forward 7 unknown #
loop $-1 $-1 $224 $136 #
plane-surface $-1 -2.6828477392418861 -39.279476713860802 1.5415741825289899 0 -0.57357644374324357 0.81915203911291934 1 0 0 forward_v I I I I #
loop $-1 $-1 $336 $87 #
coedge $-1 $222 $222 $223 $337 reversed $137 $-1 #
coedge $-1 $223 $223 $222 $337 forward $139 $-1 #
coedge $-1 $224 $224 $140 $225 forward $219 $-1 #
edge $-1 $338 2.9283332382551929e-016 $338 6.2831853071796004 $224 $339 forward 7 unknown #
loop $-1 $-1 $231 $141 #
plane-surface $-1 -2.6828477392418861 -39.279476713860802 1.5415741825289899 0 -0.57357644374324357 0.81915203911291934 1 0 0 forward_v I I I I #
loop $-1 $-1 $340 $90 #
coedge $-1 $229 $229 $230 $341 reversed $142 $-1 #
coedge $-1 $230 $230 $229 $341 forward $144 $-1 #
coedge $-1 $231 $231 $145 $232 forward $226 $-1 #
edge $-1 $342 2.9283332382551929e-016 $342 6.2831853071796004 $231 $343 forward 7 unknown #
loop $-1 $-1 $238 $146 #
plane-surface $-1 -2.6828477392418861 -39.279476713860802 1.5415741825289899 0 -0.57357644374324357 0.81915203911291934 1 0 0 forward_v I I I I #
loop $-1 $-1 $344 $93 #
coedge $-1 $236 $236 $237 $345 reversed $147 $-1 #
coedge $-1 $237 $237 $236 $345 forward $149 $-1 #
coedge $-1 $238 $238 $150 $239 forward $233 $-1 #
edge $-1 $346 2.9283332382551929e-016 $346 6.2831853071796004 $238 $347 forward 7 unknown #
face $-1 $348 $349 $36 $-1 $350 reversed single #
loop $-1 $-1 $351 $151 #
plane-surface $-1 -61.624195074312567 0 0 1 0 0 0 0 -1 forward_v I I I I #
coedge $-1 $352 $251 $353 $354 forward $152 $-1 #
coedge $-1 $355 $154 $352 $356 forward $97 $-1 #
coedge $-1 $154 $355 $357 $358 forward $97 $-1 #
coedge $-1 $254 $253 $154 $247 reversed $255 $-1 #
edge $-1 $359 -39.279476713860824 $360 39.279476713860824 $246 $361 forward 7 unknown #
coedge $-1 $156 $155 $362 $363 forward $61 $-1 #
coedge $-1 $364 $365 $155 $250 reversed $349 $-1 #
edge $-1 $257 -61.624195074312567 $366 61.624195074312567 $249 $367 forward 7 unknown #
coedge $-1 $243 $368 $156 $252 reversed $152 $-1 #
edge $-1 $369 -61.624195074312567 $256 61.624195074312567 $251 $370 forward 7 unknown #
coedge $-1 $246 $157 $368 $371 forward $255 $-1 #
coedge $-1 $157 $246 $364 $372 reversed $255 $-1 #
loop $-1 $-1 $253 $348 #
vertex $-1 $158 $373 #
vertex $-1 $158 $374 #
straight-curve $-1 61.624195074312567 0 11.864998462430242 0 1 0 I I #
face $-1 $375 $376 $37 $-1 $377 forward single #
loop $-1 $-1 $378 $159 #
plane-surface $-1 -61.624195074312567 0 0 1 0 0 0 0 -1 forward_v I I I I #
coedge $-1 $269 $379 $271 $380 forward $160 $-1 #
coedge $-1 $162 $271 $381 $382 reversed $101 $-1 #
coedge $-1 $383 $267 $162 $265 forward $384 $-1 #
edge $-1 $273 3.6824992312151208 $385 6.6824992312151208 $264 $386 forward 7 unknown #
coedge $-1 $164 $163 $378 $387 reversed $64 $-1 #
coedge $-1 $264 $388 $163 $268 forward $384 $-1 #
edge $-1 $389 -33.204181819136714 $273 -23.635844691214992 $267 $390 forward 7 unknown #
coedge $-1 $391 $262 $164 $270 forward $160 $-1 #
edge $-1 $272 23.635844691214992 $392 33.204181819136714 $269 $393 forward 7 unknown #
coedge $-1 $263 $165 $262 $380 reversed $101 $-1 #
vertex $-1 $270 $394 #
vertex $-1 $268 $395 #
straight-curve $-1 -52.055857946390844 0 8.8649984624302416 0 -1 0 I I #
face $-1 $-1 $396 $38 $-1 $397 reversed single #
loop $-1 $-1 $173 $167 #
plane-surface $-1 0 0 11.864998462430242 0 0 1 1 0 0 forward_v I I I I #
coedge $-1 $398 $399 $400 $401 reversed $168 $-1 #
coedge $-1 $402 $170 $172 $285 forward $105 $-1 #
coedge $-1 $170 $402 $398 $403 forward $105 $-1 #
coedge $-1 $400 $173 $170 $282 forward $276 $-1 #
edge $-1 $288 -15.572188142751841 $404 8.3801750902245118 $281 $405 forward 7 unknown #
coedge $-1 $406 $407 $171 $284 forward $396 $-1 #
edge $-1 $408 -67.591237856866996 $287 -63.243104450137999 $283 $409 forward 7 unknown #
edge $-1 $288 72.409764264264268 $408 78.558953427721661 $172 $410 forward 7 unknown #
coedge $-1 $173 $400 $406 $411 forward $276 $-1 #
vertex $-1 $284 $412 #
vertex $-1 $174 $413 #
straight-curve $-1 -19.168194669015506 35.439841061147632 11.864998462430236 0 -1 0 I I #
coedge $-1 $290 $290 $-1 $414 reversed $177 $-1 #
edge $-1 $415 0 $415 6.2831853071796004 $178 $416 forward 7 unknown #
vertex $-1 $181 $417 #
ellipse-curve $-1 -12.324662316736543 37.105410060945772 9.6909317590657285 0 0.70710678939079041 0.70710677298230451 1 0 0 1 I I #
coedge $-1 $294 $294 $-1 $418 reversed $184 $-1 #
edge $-1 $419 0 $419 6.2831853071796004 $185 $420 forward 7 unknown #
vertex $-1 $188 $421 #
ellipse-curve $-1 -2.0593637883181017 37.105410060945772 9.6909317590657285 0 0.70710678939079041 0.70710677298230451 1 0 0 1 I I #
face $-1 $-1 $422 $41 $-1 $423 reversed single #
loop $-1 $-1 $424 $189 #
plane-surface $-1 61.624195074312567 0 0 -1 0 0 0 0 1 forward_v I I I I #
coedge $-1 $425 $192 $194 $307 forward $119 $-1 #
coedge $-1 $192 $425 $424 $426 reversed $119 $-1 #
coedge $-1 $427 $195 $192 $304 forward $190 $-1 #
edge $-1 $310 12.847825112424012 $428 36.800188345400365 $303 $429 forward 7 unknown #
coedge $-1 $430 $431 $193 $306 forward $422 $-1 #
edge $-1 $432 -67.591237856866996 $309 -63.243104450137999 $305 $433 forward 7 unknown #
edge $-1 $310 72.409764264264268 $432 78.558953427721661 $194 $434 forward 7 unknown #
coedge $-1 $195 $427 $430 $435 forward $190 $-1 #
vertex $-1 $306 $436 #
vertex $-1 $196 $437 #
straight-curve $-1 37.6718318413362 35.439841061147632 11.864998462430236 0 -1 0 I I #
coedge $-1 $312 $312 $-1 $438 reversed $199 $-1 #
edge $-1 $439 0 $439 6.2831853071796004 $200 $440 forward 7 unknown #
vertex $-1 $203 $441 #
ellipse-curve $-1 44.515364193615156 37.105410060945772 9.6909317590657285 0 0.70710678939079041 0.70710677298230451 1 0 0 1 I I #
coedge $-1 $316 $316 $-1 $442 reversed $206 $-1 #
edge $-1 $443 0 $443 6.2831853071796004 $207 $444 forward 7 unknown #
vertex $-1 $210 $445 #
ellipse-curve $-1 54.780662722033597 37.105410060945772 9.6909317590657285 0 0.70710678939079041 0.70710677298230451 1 0 0 1 I I #
face $-1 $-1 $332 $44 $-1 $446 forward single #
loop $-1 $-1 $447 $211 #
plane-surface $-1 0 -39.279476713860824 0 0 1 0 0 0 1 forward_v I I I I #
coedge $-1 $448 $449 $450 $451 reversed $212 $-1 #
coedge $-1 $452 $214 $216 $330 forward $133 $-1 #
coedge $-1 $214 $452 $448 $453 forward $133 $-1 #
coedge $-1 $450 $217 $214 $327 forward $332 $-1 #
edge $-1 $334 -12.983331369486496 $454 15.666179108728382 $326 $455 forward 7 unknown #
coedge $-1 $456 $457 $215 $329 forward $321 $-1 #
edge $-1 $458 -49.708797962550982 $333 -39.385373682649714 $328 $459 forward 7 unknown #
edge $-1 $334 -17.99834074867001 $458 2.5994366100876037e-014 $216 $460 forward 7 unknown #
coedge $-1 $217 $450 $456 $461 forward $332 $-1 #
loop $-1 $-1 $450 $320 #
vertex $-1 $329 $462 #
vertex $-1 $218 $463 #
straight-curve $-1 11.641907499865553 -54.985925016194514 11.864998462430243 0 1 0 I I #
coedge $-1 $336 $336 $-1 $464 reversed $221 $-1 #
edge $-1 $465 0 $465 6.2831853071796004 $222 $466 forward 7 unknown #
vertex $-1 $225 $467 #
ellipse-curve $-1 -11.277700882706348 -31.907787951399726 6.7032863224796051 0 -0.57357644374324357 0.81915203911291934 1 0 0 1 I I #
coedge $-1 $340 $340 $-1 $468 reversed $228 $-1 #
edge $-1 $469 0 $469 6.2831853071796004 $229 $470 forward 7 unknown #
vertex $-1 $232 $471 #
ellipse-curve $-1 -2.6828477392418861 -31.907787951399726 6.7032863224796051 0 -0.57357644374324357 0.81915203911291934 1 0 0 1 I I #
coedge $-1 $344 $344 $-1 $472 reversed $235 $-1 #
edge $-1 $473 0 $473 6.2831853071796004 $236 $474 forward 7 unknown #
vertex $-1 $239 $475 #
ellipse-curve $-1 5.9120054042225689 -31.907787951399726 6.7032863224796051 0 -0.57357644374324357 0.81915203911291934 1 0 0 1 I I #
face $-1 $-1 $255 $36 $-1 $476 reversed single #
loop $-1 $-1 $364 $240 #
plane-surface $-1 0 39.279476713860824 0 0 -1 0 0 0 -1 forward_v I I I I #
coedge $-1 $477 $362 $365 $478 forward $241 $-1 #
coedge $-1 $368 $243 $244 $356 reversed $152 $-1 #
coedge $-1 $362 $477 $243 $354 reversed $241 $-1 #
edge $-1 $369 -11.864998462430242 $479 11.864998462430242 $353 $480 forward 7 unknown #
coedge $-1 $245 $244 $477 $481 forward $97 $-1 #
edge $-1 $360 -61.624195074312567 $479 61.624195074312567 $352 $482 forward 7 unknown #
coedge $-1 $365 $364 $245 $358 reversed $349 $-1 #
edge $-1 $483 -61.624195074312567 $359 61.624195074312567 $357 $484 forward 7 unknown #
vertex $-1 $247 $485 #
vertex $-1 $371 $486 #
straight-curve $-1 61.624195074312567 0 -11.864998462430242 0 -1 0 I I #
coedge $-1 $351 $353 $248 $363 reversed $241 $-1 #
edge $-1 $366 -39.279476713860824 $369 39.279476713860824 $362 $487 forward 7 unknown #
coedge $-1 $357 $249 $254 $372 forward $349 $-1 #
coedge $-1 $249 $357 $351 $478 reversed $349 $-1 #
vertex $-1 $250 $488 #
straight-curve $-1 0 39.279476713860824 11.864998462430242 -1 0 0 I I #
coedge $-1 $251 $352 $253 $371 reversed $152 $-1 #
vertex $-1 $363 $489 #
straight-curve $-1 0 -39.279476713860824 11.864998462430242 1 0 0 I I #
edge $-1 $256 -11.864998462430242 $360 11.864998462430242 $253 $490 forward 7 unknown #
edge $-1 $257 -11.864998462430242 $359 11.864998462430242 $254 $491 forward 7 unknown #
point $-1 61.624195074312567 -39.279476713860824 11.864998462430242 #
point $-1 61.624195074312567 39.279476713860824 11.864998462430242 #
face $-1 $-1 $384 $37 $-1 $492 reversed single #
loop $-1 $-1 $381 $259 #
plane-surface $-1 0 0 11.864998462430242 0 0 1 1 0 0 forward_v I I I I #
coedge $-1 $493 $494 $266 $387 forward $260 $-1 #
coedge $-1 $262 $391 $495 $496 reversed $160 $-1 #
edge $-1 $497 -6.6824992312151208 $272 -3.6824992312151208 $262 $498 forward 7 unknown #
coedge $-1 $495 $499 $263 $382 forward $376 $-1 #
edge $-1 $385 -39.279476713860824 $497 39.279476713860824 $381 $500 forward 7 unknown #
coedge $-1 $388 $264 $499 $501 reversed $384 $-1 #
loop $-1 $-1 $264 $375 #
vertex $-1 $265 $502 #
straight-curve $-1 -52.055857946390844 -39.279476713860824 5.1824992312151208 0 0 1 I I #
edge $-1 $392 -39.279476713860824 $389 39.279476713860824 $378 $503 forward 7 unknown #
coedge $-1 $267 $383 $493 $504 forward $384 $-1 #
vertex $-1 $387 $505 #
straight-curve $-1 -28.420013255175853 -39.279476713860824 8.8649984624302416 1 0 0 I I #
coedge $-1 $379 $269 $494 $506 reversed $160 $-1 #
vertex $-1 $387 $507 #
straight-curve $-1 -28.420013255175853 39.279476713860824 8.8649984624302416 -1 0 0 I I #
point $-1 -52.055857946390844 39.279476713860824 8.8649984624302416 #
point $-1 -52.055857946390844 -39.279476713860824 8.8649984624302416 #
loop $-1 $-1 $283 $275 #
plane-surface $-1 0 39.279476713860824 0 0 -1 0 0 0 -1 forward_v I I I I #
coedge $-1 $399 $278 $280 $403 reversed $168 $-1 #
coedge $-1 $278 $398 $508 $509 reversed $168 $-1 #
coedge $-1 $286 $281 $278 $401 forward $276 $-1 #
edge $-1 $404 -0.50849765311693318 $510 3.8396356527131914 $400 $511 forward 7 unknown #
coedge $-1 $280 $279 $407 $512 reversed $105 $-1 #
edge $-1 $513 -78.558953427721661 $404 -72.409764264264268 $398 $514 forward 7 unknown #
vertex $-1 $282 $515 #
straight-curve $-1 -3.5960065262636647 34.931343408030692 11.864998462430236 1 0 0 I I #
coedge $-1 $508 $283 $286 $411 reversed $396 $-1 #
coedge $-1 $283 $508 $402 $512 forward $396 $-1 #
vertex $-1 $284 $516 #
straight-curve $-1 -19.168194669015506 39.279476713860824 75.108102912568242 0 0 1 I I #
straight-curve $-1 -19.168194669015506 -16.270091333282579 63.066434391878119 0 0.70710677298230451 -0.70710678939079041 I I #
edge $-1 $510 -4.7841685639608471 $287 19.168194669015506 $406 $517 forward 7 unknown #
point $-1 -19.168194669015506 39.279476713860824 11.864998462430242 #
point $-1 -19.168194669015506 34.931343408030699 11.864998462430243 #
edge $-1 $518 1 $518 0 $290 $-1 forward 7 unknown #
vertex $-1 $291 $519 #
ellipse-curve $-1 -12.324662316736543 35.649202103302692 8.2347238352141083 0 0.70710678939079041 0.70710677298230451 1 0 0 1 I I #
point $-1 -11.324662316736543 37.105410060945758 9.6909317590657231 #
edge $-1 $520 1 $520 0 $294 $-1 forward 7 unknown #
vertex $-1 $295 $521 #
ellipse-curve $-1 -2.0593637883181017 35.649202103302692 8.2347238352141083 0 0.70710678939079041 0.70710677298230451 1 0 0 1 I I #
point $-1 -1.0593637883181017 37.105410060945758 9.6909317590657231 #
loop $-1 $-1 $305 $298 #
plane-surface $-1 0 39.279476713860824 0 0 -1 0 0 0 -1 forward_v I I I I #
coedge $-1 $522 $523 $302 $426 forward $299 $-1 #
coedge $-1 $302 $301 $431 $524 reversed $119 $-1 #
edge $-1 $428 44.360066404278911 $525 50.509255567736318 $424 $526 forward 7 unknown #
coedge $-1 $308 $303 $523 $527 forward $190 $-1 #
vertex $-1 $527 $528 #
straight-curve $-1 24.824006728912188 34.931343408030692 11.864998462430236 1 0 0 I I #
coedge $-1 $529 $305 $308 $435 reversed $422 $-1 #
coedge $-1 $305 $529 $425 $524 forward $422 $-1 #
vertex $-1 $306 $530 #
straight-curve $-1 37.6718318413362 39.279476713860824 75.108102912568242 0 0 1 I I #
straight-curve $-1 37.6718318413362 -16.270091333282579 63.066434391878119 0 0.70710677298230451 -0.70710678939079041 I I #
edge $-1 $531 -61.624195074312567 $309 -37.6718318413362 $430 $532 forward 7 unknown #
point $-1 37.6718318413362 39.279476713860824 11.864998462430242 #
point $-1 37.6718318413362 34.931343408030699 11.864998462430243 #
edge $-1 $533 1 $533 0 $312 $-1 forward 7 unknown #
vertex $-1 $313 $534 #
ellipse-curve $-1 44.515364193615156 35.649202103302692 8.2347238352141083 0 0.70710678939079041 0.70710677298230451 1 0 0 1 I I #
point $-1 45.515364193615156 37.105410060945758 9.6909317590657231 #
edge $-1 $535 1 $535 0 $316 $-1 forward 7 unknown #
vertex $-1 $317 $536 #
ellipse-curve $-1 54.780662722033597 35.649202103302692 8.2347238352141083 0 0.70710678939079041 0.70710677298230451 1 0 0 1 I I #
point $-1 55.780662722033597 37.105410060945758 9.6909317590657231 #
plane-surface $-1 0 0 11.864998462430242 0 0 1 1 0 0 forward_v I I I I #
coedge $-1 $457 $456 $449 $537 forward $321 $-1 #
coedge $-1 $449 $323 $325 $453 reversed $212 $-1 #
coedge $-1 $323 $448 $447 $537 reversed $212 $-1 #
coedge $-1 $331 $326 $323 $451 forward $332 $-1 #
edge $-1 $454 -30.4498258272559 $538 -15.70644830233369 $450 $539 forward 7 unknown #
coedge $-1 $325 $324 $457 $540 reversed $133 $-1 #
edge $-1 $541 -2.5994366100876037e-014 $454 17.99834074867001 $448 $542 forward 7 unknown #
vertex $-1 $327 $543 #
straight-curve $-1 -1.3414238696209431 -24.536099188938618 11.864998462430242 -1 0 0 I I #
coedge $-1 $447 $328 $331 $461 reversed $321 $-1 #
coedge $-1 $328 $447 $452 $540 forward $321 $-1 #
vertex $-1 $329 $544 #
straight-curve $-1 11.641907499865553 -39.279476713860824 51.250372145079957 0 0 1 I I #
straight-curve $-1 11.641907499865553 -39.279476713860802 1.5415741825289899 0 -0.81915203911291934 -0.57357644374324357 I I #
edge $-1 $538 -17.007602978349325 $333 11.641907499865553 $456 $545 forward 7 unknown #
point $-1 11.641907499865553 -39.279476713860824 11.864998462430242 #
point $-1 11.641907499865553 -24.536099188938614 11.864998462430242 #
edge $-1 $546 1 $546 0 $336 $-1 forward 7 unknown #
vertex $-1 $337 $547 #
ellipse-curve $-1 -11.277700882706348 -30.702887064770543 4.9825095559688117 0 -0.57357644374324357 0.81915203911291934 1 0 0 1 I I #
point $-1 -10.277700882706348 -31.907787951399733 6.7032863224796158 #
edge $-1 $548 1 $548 0 $340 $-1 forward 7 unknown #
vertex $-1 $341 $549 #
ellipse-curve $-1 -2.6828477392418861 -30.702887064770543 4.9825095559688117 0 -0.57357644374324357 0.81915203911291934 1 0 0 1 I I #
point $-1 -1.6828477392418861 -31.907787951399733 6.7032863224796158 #
edge $-1 $550 1 $550 0 $344 $-1 forward 7 unknown #
vertex $-1 $345 $551 #
ellipse-curve $-1 5.9120054042225689 -30.702887064770543 4.9825095559688117 0 -0.57357644374324357 0.81915203911291934 1 0 0 1 I I #
point $-1 6.9120054042225689 -31.907787951399733 6.7032863224796158 #
plane-surface $-1 61.624195074312567 0 0 -1 0 0 0 0 1 forward_v I I I I #
coedge $-1 $353 $351 $355 $481 reversed $241 $-1 #
edge $-1 $366 -11.864998462430242 $483 11.864998462430242 $365 $552 forward 7 unknown #
vertex $-1 $481 $553 #
straight-curve $-1 -61.624195074312567 -39.279476713860824 0 0 0 -1 I I #
edge $-1 $479 -39.279476713860824 $483 39.279476713860824 $477 $554 forward 7 unknown #
straight-curve $-1 0 -39.279476713860824 -11.864998462430242 -1 0 0 I I #
vertex $-1 $358 $555 #
straight-curve $-1 0 39.279476713860824 -11.864998462430242 1 0 0 I I #
point $-1 61.624195074312567 39.279476713860824 -11.864998462430242 #
point $-1 61.624195074312567 -39.279476713860824 -11.864998462430242 #
straight-curve $-1 -61.624195074312567 0 11.864998462430242 0 -1 0 I I #
point $-1 -61.624195074312567 39.279476713860824 11.864998462430242 #
point $-1 -61.624195074312567 -39.279476713860824 11.864998462430242 #
straight-curve $-1 61.624195074312567 -39.279476713860824 0 0 0 -1 I I #
straight-curve $-1 61.624195074312567 39.279476713860824 0 0 0 -1 I I #
plane-surface $-1 0 -39.279476713860824 0 0 1 0 0 0 1 forward_v I I I I #
coedge $-1 $556 $378 $388 $504 reversed $260 $-1 #
coedge $-1 $378 $556 $391 $506 forward $260 $-1 #
coedge $-1 $557 $381 $379 $496 forward $376 $-1 #
edge $-1 $497 52.055857946390844 $558 61.624195074312567 $379 $559 forward 7 unknown #
vertex $-1 $496 $560 #
straight-curve $-1 -52.055857946390844 39.279476713860824 5.1824992312151208 0 0 -1 I I #
coedge $-1 $381 $557 $383 $501 forward $376 $-1 #
straight-curve $-1 -52.055857946390844 0 11.864998462430242 0 1 0 I I #
edge $-1 $561 -61.624195074312567 $385 -52.055857946390844 $383 $562 forward 7 unknown #
point $-1 -52.055857946390844 -39.279476713860824 11.864998462430242 #
straight-curve $-1 -61.624195074312567 0 8.8649984624302416 0 -1 0 I I #
edge $-1 $561 -11.864998462430242 $389 -8.8649984624302416 $493 $563 forward 7 unknown #
point $-1 -61.624195074312567 -39.279476713860824 8.8649984624302416 #
edge $-1 $558 -11.864998462430242 $392 -8.8649984624302416 $391 $564 forward 7 unknown #
point $-1 -61.624195074312567 39.279476713860824 8.8649984624302416 #
coedge $-1 $407 $406 $399 $509 forward $396 $-1 #
edge $-1 $510 63.243104450137999 $513 67.591237856866996 $508 $565 forward 7 unknown #
vertex $-1 $411 $566 #
straight-curve $-1 4.7841685639608471 35.439841061147632 11.864998462430236 0 1 0 I I #
edge $-1 $513 -8.3801750902245118 $408 15.572188142751841 $407 $567 forward 7 unknown #
vertex $-1 $512 $568 #
straight-curve $-1 4.7841685639608471 -16.270091333282579 63.066434391878119 0 -0.70710677298230451 0.70710678939079041 I I #
point $-1 4.7841685639608471 34.931343408030699 11.864998462430243 #
point $-1 -19.168194669015506 39.279476713860824 7.5168650557012384 #
straight-curve $-1 0 39.279476713860824 11.864998462430242 -1 0 0 I I #
vertex $-1 $414 $569 #
point $-1 -11.324662316736543 35.649202103302692 8.2347238352141083 #
vertex $-1 $418 $570 #
point $-1 -1.0593637883181017 35.649202103302692 8.2347238352141083 #
coedge $-1 $523 $424 $529 $571 reversed $299 $-1 #
coedge $-1 $424 $522 $427 $527 reversed $299 $-1 #
edge $-1 $525 -36.800188345400365 $432 -12.847825112424012 $431 $572 forward 7 unknown #
vertex $-1 $426 $573 #
straight-curve $-1 61.624195074312567 3.5640400036203044 43.232302594722164 0 0.70710677298230462 -0.70710678939079052 I I #
edge $-1 $428 34.931343408030699 $531 39.279476713860824 $523 $574 forward 7 unknown #
point $-1 61.624195074312553 34.931343408030699 11.864998462430243 #
coedge $-1 $431 $430 $522 $571 forward $422 $-1 #
point $-1 37.6718318413362 39.279476713860824 7.5168650557012384 #
vertex $-1 $527 $575 #
straight-curve $-1 0 39.279476713860824 11.864998462430242 -1 0 0 I I #
vertex $-1 $438 $576 #
point $-1 45.515364193615156 35.649202103302692 8.2347238352141083 #
vertex $-1 $442 $577 #
point $-1 55.780662722033597 35.649202103302692 8.2347238352141083 #
edge $-1 $538 39.385373682649714 $541 49.708797962550982 $447 $578 forward 7 unknown #
vertex $-1 $461 $579 #
straight-curve $-1 -17.007602978349325 -54.985925016194514 11.864998462430243 0 -1 0 I I #
edge $-1 $541 -15.666179108728382 $458 12.983331369486496 $457 $580 forward 7 unknown #
vertex $-1 $540 $581 #
straight-curve $-1 -17.007602978349325 -39.279476713860802 1.5415741825289899 0 0.81915203911291934 0.57357644374324357 I I #
point $-1 -17.007602978349325 -24.536099188938614 11.864998462430242 #
point $-1 11.641907499865553 -39.279476713860824 1.541574182528975 #
straight-curve $-1 0 -39.279476713860824 11.864998462430242 1 0 0 I I #
vertex $-1 $464 $582 #
point $-1 -10.277700882706348 -30.702887064770543 4.9825095559688117 #
vertex $-1 $468 $583 #
point $-1 -1.6828477392418861 -30.702887064770543 4.9825095559688117 #
vertex $-1 $472 $584 #
point $-1 6.9120054042225689 -30.702887064770543 4.9825095559688117 #
straight-curve $-1 -61.624195074312567 39.279476713860824 0 0 0 -1 I I #
point $-1 -61.624195074312567 -39.279476713860824 -11.864998462430242 #
straight-curve $-1 -61.624195074312567 0 -11.864998462430242 0 1 0 I I #
point $-1 -61.624195074312567 39.279476713860824 -11.864998462430242 #
coedge $-1 $494 $493 $557 $585 reversed $260 $-1 #
coedge $-1 $499 $495 $556 $585 forward $376 $-1 #
vertex $-1 $496 $586 #
straight-curve $-1 0 39.279476713860824 11.864998462430242 -1 0 0 I I #
point $-1 -52.055857946390844 39.279476713860824 11.864998462430242 #
vertex $-1 $585 $587 #
straight-curve $-1 0 -39.279476713860824 11.864998462430242 1 0 0 I I #
straight-curve $-1 -61.624195074312567 -39.279476713860824 0 0 0 -1 I I #
straight-curve $-1 -61.624195074312567 39.279476713860824 0 0 0 -1 I I #
straight-curve $-1 4.7841685639608471 39.279476713860824 75.108102912568242 0 0 -1 I I #
point $-1 4.7841685639608471 39.279476713860824 11.864998462430242 #
straight-curve $-1 -3.5960065262636647 39.279476713860824 7.5168650557012349 -1 0 0 I I #
point $-1 4.7841685639608471 39.279476713860824 7.5168650557012384 #
point $-1 -12.324662316736543 34.942095313911899 7.5276170622318039 #
point $-1 -2.0593637883181017 34.942095313911899 7.5276170622318039 #
edge $-1 $531 -11.864998462430242 $525 -7.5168650557012384 $522 $588 forward 7 unknown #
straight-curve $-1 24.824006728912188 39.279476713860824 7.5168650557012349 -1 0 0 I I #
point $-1 61.624195074312553 39.279476713860824 7.5168650557012384 #
straight-curve $-1 61.624195074312567 0 11.864998462430242 0 1 0 I I #
point $-1 61.624195074312567 39.279476713860824 11.864998462430242 #
point $-1 44.515364193615156 34.942095313911899 7.5276170622318039 #
point $-1 54.780662722033597 34.942095313911899 7.5276170622318039 #
straight-curve $-1 -17.007602978349325 -39.279476713860824 51.250372145079957 0 0 -1 I I #
point $-1 -17.007602978349325 -39.279476713860824 11.864998462430242 #
straight-curve $-1 -1.3414238696209431 -39.279476713860824 1.5415741825289757 1 0 0 I I #
point $-1 -17.007602978349325 -39.279476713860824 1.541574182528975 #
point $-1 -11.277700882706348 -30.129310621027301 4.1633575168558918 #
point $-1 -2.6828477392418861 -30.129310621027301 4.1633575168558918 #
point $-1 5.9120054042225689 -30.129310621027301 4.1633575168558918 #
edge $-1 $558 -39.279476713860824 $561 39.279476713860824 $556 $589 forward 7 unknown #
point $-1 -61.624195074312567 39.279476713860824 11.864998462430242 #
point $-1 -61.624195074312567 -39.279476713860824 11.864998462430242 #
straight-curve $-1 61.624195074312567 39.279476713860824 0 0 0 -1 I I #
straight-curve $-1 -61.624195074312567 0 11.864998462430242 0 -1 0 I I #
End-of-ACIS-data 