500 0 18 0           
7 Unknown 11 ACIS 5.0 NT 24 Thu Mar 25 17:34:23 1999 
-1 9.9999999999999995e-007 1e-010 
body $-1 $18 $-1 $19 #
body $-1 $20 $-1 $21 #
body $-1 $22 $-1 $23 #
body $-1 $24 $-1 $25 #
body $-1 $26 $-1 $27 #
body $-1 $28 $-1 $29 #
body $-1 $30 $-1 $31 #
body $-1 $32 $-1 $33 #
body $-1 $34 $-1 $35 #
body $-1 $36 $-1 $37 #
body $-1 $38 $-1 $39 #
body $-1 $40 $-1 $41 #
body $-1 $42 $-1 $43 #
body $-1 $44 $-1 $45 #
body $-1 $46 $-1 $47 #
body $-1 $48 $-1 $49 #
body $-1 $50 $-1 $51 #
body $-1 $52 $-1 $53 #
lump $-1 $-1 $54 $0 #
transform $-1 1 0 0 0 1 0 0 0 1 46.183050019837033 18.62459363298839 6.6244144705046688 1 rotate no_reflect no_shear #
lump $-1 $-1 $55 $1 #
transform $-1 1 0 0 0 1 0 0 0 1 46.183050019837033 2.7301191856885705 11.476934027628857 1 rotate no_reflect no_shear #
lump $-1 $-1 $56 $2 #
transform $-1 1 0 0 0 1 0 0 0 1 46.183050019837033 41.618565493539009 2.3836006274102415 1 rotate no_reflect no_shear #
lump $-1 $-1 $57 $3 #
transform $-1 0.69465836192734942 0 0.71933980857756763 0 1 0 -0.71933980857756763 0 0.69465836192734942 -66.442612721595594 7.9711055689896675 72.301462157554951 1 rotate no_reflect no_shear #
lump $-1 $-1 $58 $4 #
transform $-1 0.69465836192734942 0 0.71933980857756763 0 -1 0 0.71933980857756763 0 -0.69465836192734942 4.112594017153592 7.9711055689896675 9.1050121347885451 1 rotate no_reflect no_shear #
lump $-1 $-1 $59 $5 #
transform $-1 0.69465836192734942 0 0.71933980857756763 0 1 0 -0.71933980857756763 0 0.69465836192734942 -66.442612721595594 16.985334591114729 72.301462157554951 1 rotate no_reflect no_shear #
lump $-1 $-1 $60 $6 #
transform $-1 0.69465836192734942 0 0.71933980857756763 0 -1 0 0.71933980857756763 0 -0.69465836192734942 4.112594017153592 16.985334591114729 9.1050121347885451 1 rotate no_reflect no_shear #
lump $-1 $-1 $61 $7 #
transform $-1 0.69465836192734942 0 0.71933980857756763 0 1 0 -0.71933980857756763 0 0.69465836192734942 -66.442612721595594 25.999563613239793 72.301462157554951 1 rotate no_reflect no_shear #
lump $-1 $-1 $62 $8 #
transform $-1 0.69465836192734942 0 0.71933980857756763 0 -1 0 0.71933980857756763 0 -0.69465836192734942 4.112594017153592 25.999563613239793 9.1050121347885451 1 rotate no_reflect no_shear #
lump $-1 $-1 $63 $9 #
transform $-1 0.65605901945558964 0 -0.75470958851134928 0 1 0 0.75470958851134928 0 0.65605901945558964 101.47806837004913 9.4535220920679919 137.33213391159222 1 rotate no_reflect no_shear #
lump $-1 $-1 $64 $10 #
transform $-1 0.65605901945558964 0 -0.75470958851134928 0 -1 0 -0.75470958851134928 0 -0.65605901945558964 88.811879562609221 8.5777776418488312 9.3988178412602466 1 rotate no_reflect no_shear #
lump $-1 $-1 $65 $11 #
transform $-1 0.65605901945558964 0 -0.75470958851134928 0 -1 0 -0.75470958851134928 0 -0.65605901945558964 88.811879562609221 10.329266542287154 9.3988178412602466 1 rotate no_reflect no_shear #
lump $-1 $-1 $66 $12 #
transform $-1 0.65605901945558964 0 -0.75470958851134928 0 1 0 0.75470958851134928 0 0.65605901945558964 101.47806837004913 17.136919571893053 137.33213391159222 1 rotate no_reflect no_shear #
lump $-1 $-1 $67 $13 #
transform $-1 0.65605901945558964 0 -0.75470958851134928 0 -1 0 -0.75470958851134928 0 -0.65605901945558964 88.811879562609221 16.26117512167389 9.3988178412602466 1 rotate no_reflect no_shear #
lump $-1 $-1 $68 $14 #
transform $-1 0.65605901945558964 0 -0.75470958851134928 0 -1 0 -0.75470958851134928 0 -0.65605901945558964 88.811879562609221 18.012664022112215 9.3988178412602466 1 rotate no_reflect no_shear #
lump $-1 $-1 $69 $15 #
transform $-1 0.65605901945558964 0 -0.75470958851134928 0 1 0 0.75470958851134928 0 0.65605901945558964 101.47806837004913 24.820317051718114 137.33213391159222 1 rotate no_reflect no_shear #
lump $-1 $-1 $70 $16 #
transform $-1 0.65605901945558964 0 -0.75470958851134928 0 -1 0 -0.75470958851134928 0 -0.65605901945558964 88.811879562609221 23.944572601498951 9.3988178412602466 1 rotate no_reflect no_shear #
lump $-1 $-1 $71 $17 #
transform $-1 0.65605901945558964 0 -0.75470958851134928 0 -1 0 -0.75470958851134928 0 -0.65605901945558964 88.811879562609221 25.696061501937276 9.3988178412602466 1 rotate no_reflect no_shear #
shell $-1 $-1 $-1 $72 $-1 $18 #
shell $-1 $-1 $-1 $73 $-1 $20 #
shell $-1 $-1 $-1 $74 $-1 $22 #
shell $-1 $-1 $-1 $75 $-1 $24 #
shell $-1 $-1 $-1 $76 $-1 $26 #
shell $-1 $-1 $-1 $77 $-1 $28 #
shell $-1 $-1 $-1 $78 $-1 $30 #
shell $-1 $-1 $-1 $79 $-1 $32 #
shell $-1 $-1 $-1 $80 $-1 $34 #
shell $-1 $-1 $-1 $81 $-1 $36 #
shell $-1 $-1 $-1 $82 $-1 $38 #
shell $-1 $-1 $-1 $83 $-1 $40 #
shell $-1 $-1 $-1 $84 $-1 $42 #
shell $-1 $-1 $-1 $85 $-1 $44 #
shell $-1 $-1 $-1 $86 $-1 $46 #
shell $-1 $-1 $-1 $87 $-1 $48 #
shell $-1 $-1 $-1 $88 $-1 $50 #
shell $-1 $-1 $-1 $89 $-1 $52 #
face $-1 $90 $91 $54 $-1 $92 forward single #
face $-1 $93 $94 $55 $-1 $95 forward single #
face $-1 $96 $97 $56 $-1 $98 forward single #
face $-1 $99 $100 $57 $-1 $101 forward single #
face $-1 $102 $103 $58 $-1 $104 forward single #
face $-1 $105 $106 $59 $-1 $107 forward single #
face $-1 $108 $109 $60 $-1 $110 forward single #
face $-1 $111 $112 $61 $-1 $113 forward single #
face $-1 $114 $115 $62 $-1 $116 forward single #
face $-1 $117 $118 $63 $-1 $119 forward single #
face $-1 $120 $121 $64 $-1 $122 forward single #
face $-1 $123 $124 $65 $-1 $125 forward single #
face $-1 $126 $127 $66 $-1 $128 forward single #
face $-1 $129 $130 $67 $-1 $131 forward single #
face $-1 $132 $133 $68 $-1 $134 forward single #
face $-1 $135 $136 $69 $-1 $137 forward single #
face $-1 $138 $139 $70 $-1 $140 forward single #
face $-1 $141 $142 $71 $-1 $143 forward single #
face $-1 $144 $145 $54 $-1 $146 reversed single #
loop $-1 $-1 $147 $72 #
plane-surface $-1 0 0 6.6244144705046688 0 0 1 1 0 0 forward_v I I I I #
face $-1 $148 $149 $55 $-1 $150 reversed single #
loop $-1 $-1 $151 $73 #
plane-surface $-1 0 0 1.7718949133804793 0 0 1 1 0 0 forward_v I I I I #
face $-1 $152 $153 $56 $-1 $154 reversed single #
loop $-1 $-1 $155 $74 #
plane-surface $-1 0 0 1.5 0 0 1 1 0 0 forward_v I I I I #
face $-1 $156 $157 $57 $-1 $158 reversed single #
loop $-1 $-1 $159 $75 #
plane-surface $-1 0 0 92.366100039674066 0 0 1 1 0 0 forward_v I I I I #
face $-1 $160 $161 $58 $-1 $162 forward single #
loop $-1 $163 $164 $76 #
cone-surface $-1 0 0 -1.3935056611835082 0 0 1 1 0 0 1 I I 0 1 1 forward I I I I #
face $-1 $165 $166 $59 $-1 $167 reversed single #
loop $-1 $-1 $168 $77 #
plane-surface $-1 0 0 92.366100039674066 0 0 1 1 0 0 forward_v I I I I #
face $-1 $169 $170 $60 $-1 $171 forward single #
loop $-1 $172 $173 $78 #
cone-surface $-1 0 0 -1.3935056611835082 0 0 1 1 0 0 1 I I 0 1 1 forward I I I I #
face $-1 $174 $175 $61 $-1 $176 reversed single #
loop $-1 $-1 $177 $79 #
plane-surface $-1 0 0 92.366100039674066 0 0 1 1 0 0 forward_v I I I I #
face $-1 $178 $179 $62 $-1 $180 forward single #
loop $-1 $181 $182 $80 #
cone-surface $-1 0 0 -1.3935056611835082 0 0 1 1 0 0 1 I I 0 1 1 forward I I I I #
face $-1 $183 $184 $63 $-1 $185 reversed single #
loop $-1 $-1 $186 $81 #
plane-surface $-1 0 0 92.366100039674066 0 0 1 1 0 0 forward_v I I I I #
face $-1 $187 $188 $64 $-1 $189 forward single #
loop $-1 $190 $191 $82 #
cone-surface $-1 0 0 -0.625 0 0 1 0.25 0 0 1 I I 0 1 0.25 forward I I I I #
face $-1 $192 $193 $65 $-1 $194 forward single #
loop $-1 $195 $196 $83 #
cone-surface $-1 0 0 -0.625 0 0 1 0.25 0 0 1 I I 0 1 0.25 forward I I I I #
face $-1 $197 $198 $66 $-1 $199 reversed single #
loop $-1 $-1 $200 $84 #
plane-surface $-1 0 0 92.366100039674066 0 0 1 1 0 0 forward_v I I I I #
face $-1 $201 $202 $67 $-1 $203 forward single #
loop $-1 $204 $205 $85 #
cone-surface $-1 0 0 -0.625 0 0 1 0.25 0 0 1 I I 0 1 0.25 forward I I I I #
face $-1 $206 $207 $68 $-1 $208 forward single #
loop $-1 $209 $210 $86 #
cone-surface $-1 0 0 -0.625 0 0 1 0.25 0 0 1 I I 0 1 0.25 forward I I I I #
face $-1 $211 $212 $69 $-1 $213 reversed single #
loop $-1 $-1 $214 $87 #
plane-surface $-1 0 0 92.366100039674066 0 0 1 1 0 0 forward_v I I I I #
face $-1 $215 $216 $70 $-1 $217 forward single #
loop $-1 $218 $219 $88 #
cone-surface $-1 0 0 -0.625 0 0 1 0.25 0 0 1 I I 0 1 0.25 forward I I I I #
face $-1 $220 $221 $71 $-1 $222 forward single #
loop $-1 $223 $224 $89 #
cone-surface $-1 0 0 -0.625 0 0 1 0.25 0 0 1 I I 0 1 0.25 forward I I I I #
face $-1 $225 $226 $54 $-1 $227 reversed single #
loop $-1 $-1 $228 $90 #
plane-surface $-1 0 0 -6.6244144705046688 0 0 1 1 0 0 forward_v I I I I #
coedge $-1 $229 $230 $231 $232 forward $91 $-1 #
face $-1 $233 $234 $55 $-1 $235 reversed single #
loop $-1 $-1 $236 $93 #
plane-surface $-1 0 0 -1.7718949133804793 0 0 1 1 0 0 forward_v I I I I #
coedge $-1 $237 $238 $239 $240 forward $94 $-1 #
face $-1 $241 $242 $56 $-1 $243 reversed single #
loop $-1 $-1 $244 $96 #
plane-surface $-1 0 0 -1.5 0 0 1 1 0 0 forward_v I I I I #
coedge $-1 $245 $246 $247 $248 forward $97 $-1 #
face $-1 $249 $250 $57 $-1 $251 reversed single #
loop $-1 $-1 $252 $99 #
plane-surface $-1 0 0 -92.366100039674066 0 0 1 1 0 0 forward_v I I I I #
coedge $-1 $253 $254 $255 $256 forward $100 $-1 #
face $-1 $-1 $257 $58 $-1 $258 forward single #
loop $-1 $-1 $259 $102 #
plane-surface $-1 0 0 -2.2870113223670159 0 0 -1 -1 0 0 forward_v I I I I #
loop $-1 $-1 $260 $76 #
coedge $-1 $164 $164 $259 $261 reversed $103 $-1 #
face $-1 $262 $263 $59 $-1 $264 reversed single #
loop $-1 $-1 $265 $105 #
plane-surface $-1 0 0 -92.366100039674066 0 0 1 1 0 0 forward_v I I I I #
coedge $-1 $266 $267 $268 $269 forward $106 $-1 #
face $-1 $-1 $270 $60 $-1 $271 forward single #
loop $-1 $-1 $272 $108 #
plane-surface $-1 0 0 -2.2870113223670159 0 0 -1 -1 0 0 forward_v I I I I #
loop $-1 $-1 $273 $78 #
coedge $-1 $173 $173 $272 $274 reversed $109 $-1 #
face $-1 $275 $276 $61 $-1 $277 reversed single #
loop $-1 $-1 $278 $111 #
plane-surface $-1 0 0 -92.366100039674066 0 0 1 1 0 0 forward_v I I I I #
coedge $-1 $279 $280 $281 $282 forward $112 $-1 #
face $-1 $-1 $283 $62 $-1 $284 forward single #
loop $-1 $-1 $285 $114 #
plane-surface $-1 0 0 -2.2870113223670159 0 0 -1 -1 0 0 forward_v I I I I #
loop $-1 $-1 $286 $80 #
coedge $-1 $182 $182 $285 $287 reversed $115 $-1 #
face $-1 $288 $289 $63 $-1 $290 reversed single #
loop $-1 $-1 $291 $117 #
plane-surface $-1 0 0 -92.366100039674066 0 0 1 1 0 0 forward_v I I I I #
coedge $-1 $292 $293 $294 $295 forward $118 $-1 #
face $-1 $-1 $296 $64 $-1 $297 forward single #
loop $-1 $-1 $298 $120 #
plane-surface $-1 0 0 -1.125 0 0 -1 -1 0 0 forward_v I I I I #
loop $-1 $-1 $299 $82 #
coedge $-1 $191 $191 $298 $300 reversed $121 $-1 #
face $-1 $-1 $301 $65 $-1 $302 forward single #
loop $-1 $-1 $303 $123 #
plane-surface $-1 0 0 -1.125 0 0 -1 -1 0 0 forward_v I I I I #
loop $-1 $-1 $304 $83 #
coedge $-1 $196 $196 $303 $305 reversed $124 $-1 #
face $-1 $306 $307 $66 $-1 $308 reversed single #
loop $-1 $-1 $309 $126 #
plane-surface $-1 0 0 -92.366100039674066 0 0 1 1 0 0 forward_v I I I I #
coedge $-1 $310 $311 $312 $313 forward $127 $-1 #
face $-1 $-1 $314 $67 $-1 $315 forward single #
loop $-1 $-1 $316 $129 #
plane-surface $-1 0 0 -1.125 0 0 -1 -1 0 0 forward_v I I I I #
loop $-1 $-1 $317 $85 #
coedge $-1 $205 $205 $316 $318 reversed $130 $-1 #
face $-1 $-1 $319 $68 $-1 $320 forward single #
loop $-1 $-1 $321 $132 #
plane-surface $-1 0 0 -1.125 0 0 -1 -1 0 0 forward_v I I I I #
loop $-1 $-1 $322 $86 #
coedge $-1 $210 $210 $321 $323 reversed $133 $-1 #
face $-1 $324 $325 $69 $-1 $326 reversed single #
loop $-1 $-1 $327 $135 #
plane-surface $-1 0 0 -92.366100039674066 0 0 1 1 0 0 forward_v I I I I #
coedge $-1 $328 $329 $330 $331 forward $136 $-1 #
face $-1 $-1 $332 $70 $-1 $333 forward single #
loop $-1 $-1 $334 $138 #
plane-surface $-1 0 0 -1.125 0 0 -1 -1 0 0 forward_v I I I I #
loop $-1 $-1 $335 $88 #
coedge $-1 $219 $219 $334 $336 reversed $139 $-1 #
face $-1 $-1 $337 $71 $-1 $338 forward single #
loop $-1 $-1 $339 $141 #
plane-surface $-1 0 0 -1.125 0 0 -1 -1 0 0 forward_v I I I I #
loop $-1 $-1 $340 $89 #
coedge $-1 $224 $224 $339 $341 reversed $142 $-1 #
face $-1 $342 $343 $54 $-1 $344 reversed single #
loop $-1 $-1 $345 $144 #
plane-surface $-1 0 -18.62459363298839 0 0 1 0 0 0 1 forward_v I I I I #
coedge $-1 $346 $347 $348 $349 forward $145 $-1 #
coedge $-1 $350 $147 $351 $352 forward $91 $-1 #
coedge $-1 $147 $350 $353 $354 forward $91 $-1 #
coedge $-1 $355 $356 $147 $232 reversed $357 $-1 #
edge $-1 $358 -18.62459363298839 $359 18.62459363298839 $231 $360 forward 7 unknown #
face $-1 $361 $362 $55 $-1 $363 reversed single #
loop $-1 $-1 $364 $148 #
plane-surface $-1 0 -2.7301191856885705 0 0 1 0 0 0 1 forward_v I I I I #
coedge $-1 $365 $366 $367 $368 forward $149 $-1 #
coedge $-1 $369 $151 $370 $371 forward $94 $-1 #
coedge $-1 $151 $369 $372 $373 forward $94 $-1 #
coedge $-1 $374 $375 $151 $240 reversed $376 $-1 #
edge $-1 $377 -2.7301191856885705 $378 2.7301191856885705 $239 $379 forward 7 unknown #
face $-1 $380 $381 $56 $-1 $382 reversed single #
loop $-1 $-1 $383 $152 #
plane-surface $-1 0 -4.3693782275622297 0 0 1 0 0 0 1 forward_v I I I I #
coedge $-1 $384 $385 $386 $387 forward $153 $-1 #
coedge $-1 $388 $155 $389 $390 forward $97 $-1 #
coedge $-1 $155 $388 $391 $392 forward $97 $-1 #
coedge $-1 $393 $394 $155 $248 reversed $395 $-1 #
edge $-1 $396 -4.3693782275622297 $397 4.3693782275622297 $247 $398 forward 7 unknown #
face $-1 $399 $400 $57 $-1 $401 reversed single #
loop $-1 $-1 $402 $156 #
plane-surface $-1 0 -2.5108671976125265 0 0 1 0 0 0 1 forward_v I I I I #
coedge $-1 $403 $404 $405 $406 forward $157 $-1 #
coedge $-1 $407 $159 $408 $409 forward $100 $-1 #
coedge $-1 $159 $407 $410 $411 forward $100 $-1 #
coedge $-1 $412 $413 $159 $256 reversed $414 $-1 #
edge $-1 $415 -2.5108671976125265 $416 2.5108671976125265 $255 $417 forward 7 unknown #
loop $-1 $418 $419 $160 #
cone-surface $-1 0 0 0 0 0 1 0.5 0 0 1 I I -0.70710678118654746 0.70710678118654746 0.5 forward I I I I #
coedge $-1 $259 $259 $164 $261 forward $161 $-1 #
coedge $-1 $260 $260 $419 $420 forward $163 $-1 #
edge $-1 $421 0 $421 6.2831853071796004 $259 $422 forward 7 unknown #
face $-1 $423 $424 $59 $-1 $425 reversed single #
loop $-1 $-1 $426 $165 #
plane-surface $-1 0 -2.5108671976125265 0 0 1 0 0 0 1 forward_v I I I I #
coedge $-1 $427 $428 $429 $430 forward $166 $-1 #
coedge $-1 $431 $168 $432 $433 forward $106 $-1 #
coedge $-1 $168 $431 $434 $435 forward $106 $-1 #
coedge $-1 $436 $437 $168 $269 reversed $438 $-1 #
edge $-1 $439 -2.5108671976125265 $440 2.5108671976125265 $268 $441 forward 7 unknown #
loop $-1 $442 $443 $169 #
cone-surface $-1 0 0 0 0 0 1 0.5 0 0 1 I I -0.70710678118654746 0.70710678118654746 0.5 forward I I I I #
coedge $-1 $272 $272 $173 $274 forward $170 $-1 #
coedge $-1 $273 $273 $443 $444 forward $172 $-1 #
edge $-1 $445 0 $445 6.2831853071796004 $272 $446 forward 7 unknown #
face $-1 $447 $448 $61 $-1 $449 reversed single #
loop $-1 $-1 $450 $174 #
plane-surface $-1 0 -2.5108671976125265 0 0 1 0 0 0 1 forward_v I I I I #
coedge $-1 $451 $452 $453 $454 forward $175 $-1 #
coedge $-1 $455 $177 $456 $457 forward $112 $-1 #
coedge $-1 $177 $455 $458 $459 forward $112 $-1 #
coedge $-1 $460 $461 $177 $282 reversed $462 $-1 #
edge $-1 $463 -2.5108671976125265 $464 2.5108671976125265 $281 $465 forward 7 unknown #
loop $-1 $466 $467 $178 #
cone-surface $-1 0 0 0 0 0 1 0.5 0 0 1 I I -0.70710678118654746 0.70710678118654746 0.5 forward I I I I #
coedge $-1 $285 $285 $182 $287 forward $179 $-1 #
coedge $-1 $286 $286 $467 $468 forward $181 $-1 #
edge $-1 $469 0 $469 6.2831853071796004 $285 $470 forward 7 unknown #
face $-1 $471 $472 $63 $-1 $473 reversed single #
loop $-1 $-1 $474 $183 #
plane-surface $-1 0 -2.0434037171780437 0 0 1 0 0 0 1 forward_v I I I I #
coedge $-1 $475 $476 $477 $478 forward $184 $-1 #
coedge $-1 $479 $186 $480 $481 forward $118 $-1 #
coedge $-1 $186 $479 $482 $483 forward $118 $-1 #
coedge $-1 $484 $485 $186 $295 reversed $486 $-1 #
edge $-1 $487 -2.0434037171780437 $488 2.0434037171780437 $294 $489 forward 7 unknown #
loop $-1 $490 $491 $187 #
cone-surface $-1 0 0 0 0 0 1 0.125 0 0 1 I I -0.70710678118654746 0.70710678118654746 0.125 forward I I I I #
coedge $-1 $298 $298 $191 $300 forward $188 $-1 #
coedge $-1 $299 $299 $491 $492 forward $190 $-1 #
edge $-1 $493 0 $493 6.2831853071796004 $298 $494 forward 7 unknown #
loop $-1 $495 $496 $192 #
cone-surface $-1 0 0 0 0 0 1 0.125 0 0 1 I I -0.70710678118654746 0.70710678118654746 0.125 forward I I I I #
coedge $-1 $303 $303 $196 $305 forward $193 $-1 #
coedge $-1 $304 $304 $496 $497 forward $195 $-1 #
edge $-1 $498 0 $498 6.2831853071796004 $303 $499 forward 7 unknown #
face $-1 $500 $501 $66 $-1 $502 reversed single #
loop $-1 $-1 $503 $197 #
plane-surface $-1 0 -2.0434037171780437 0 0 1 0 0 0 1 forward_v I I I I #
coedge $-1 $504 $505 $506 $507 forward $198 $-1 #
coedge $-1 $508 $200 $509 $510 forward $127 $-1 #
coedge $-1 $200 $508 $511 $512 forward $127 $-1 #
coedge $-1 $513 $514 $200 $313 reversed $515 $-1 #
edge $-1 $516 -2.0434037171780437 $517 2.0434037171780437 $312 $518 forward 7 unknown #
loop $-1 $519 $520 $201 #
cone-surface $-1 0 0 0 0 0 1 0.125 0 0 1 I I -0.70710678118654746 0.70710678118654746 0.125 forward I I I I #
coedge $-1 $316 $316 $205 $318 forward $202 $-1 #
coedge $-1 $317 $317 $520 $521 forward $204 $-1 #
edge $-1 $522 0 $522 6.2831853071796004 $316 $523 forward 7 unknown #
loop $-1 $524 $525 $206 #
cone-surface $-1 0 0 0 0 0 1 0.125 0 0 1 I I -0.70710678118654746 0.70710678118654746 0.125 forward I I I I #
coedge $-1 $321 $321 $210 $323 forward $207 $-1 #
coedge $-1 $322 $322 $525 $526 forward $209 $-1 #
edge $-1 $527 0 $527 6.2831853071796004 $321 $528 forward 7 unknown #
face $-1 $529 $530 $69 $-1 $531 reversed single #
loop $-1 $-1 $532 $211 #
plane-surface $-1 0 -2.0434037171780437 0 0 1 0 0 0 1 forward_v I I I I #
coedge $-1 $533 $534 $535 $536 forward $212 $-1 #
coedge $-1 $537 $214 $538 $539 forward $136 $-1 #
coedge $-1 $214 $537 $540 $541 forward $136 $-1 #
coedge $-1 $542 $543 $214 $331 reversed $544 $-1 #
edge $-1 $545 -2.0434037171780437 $546 2.0434037171780437 $330 $547 forward 7 unknown #
loop $-1 $548 $549 $215 #
cone-surface $-1 0 0 0 0 0 1 0.125 0 0 1 I I -0.70710678118654746 0.70710678118654746 0.125 forward I I I I #
coedge $-1 $334 $334 $219 $336 forward $216 $-1 #
coedge $-1 $335 $335 $549 $550 forward $218 $-1 #
edge $-1 $551 0 $551 6.2831853071796004 $334 $552 forward 7 unknown #
loop $-1 $553 $554 $220 #
cone-surface $-1 0 0 0 0 0 1 0.125 0 0 1 I I -0.70710678118654746 0.70710678118654746 0.125 forward I I I I #
coedge $-1 $339 $339 $224 $341 forward $221 $-1 #
coedge $-1 $340 $340 $554 $555 forward $223 $-1 #
edge $-1 $556 0 $556 6.2831853071796004 $339 $557 forward 7 unknown #
face $-1 $558 $559 $54 $-1 $560 reversed single #
loop $-1 $-1 $561 $225 #
plane-surface $-1 -46.183050019837033 0 0 1 0 0 0 0 -1 forward_v I I I I #
coedge $-1 $562 $353 $563 $564 forward $226 $-1 #
coedge $-1 $565 $228 $562 $566 forward $145 $-1 #
coedge $-1 $228 $565 $567 $568 forward $145 $-1 #
coedge $-1 $356 $355 $228 $349 reversed $357 $-1 #
edge $-1 $569 -18.62459363298839 $570 18.62459363298839 $348 $571 forward 7 unknown #
coedge $-1 $230 $229 $572 $573 forward $91 $-1 #
coedge $-1 $574 $575 $229 $352 reversed $559 $-1 #
edge $-1 $359 -46.183050019837033 $576 46.183050019837033 $351 $577 forward 7 unknown #
coedge $-1 $345 $578 $230 $354 reversed $226 $-1 #
edge $-1 $579 -46.183050019837033 $358 46.183050019837033 $353 $580 forward 7 unknown #
coedge $-1 $348 $231 $578 $581 forward $357 $-1 #
coedge $-1 $231 $348 $574 $582 reversed $357 $-1 #
loop $-1 $-1 $355 $558 #
vertex $-1 $232 $583 #
vertex $-1 $232 $584 #
straight-curve $-1 46.183050019837033 0 6.6244144705046688 0 1 0 I I #
face $-1 $585 $586 $55 $-1 $587 reversed single #
loop $-1 $-1 $588 $233 #
plane-surface $-1 -46.183050019837033 0 0 1 0 0 0 0 -1 forward_v I I I I #
coedge $-1 $589 $372 $590 $591 forward $234 $-1 #
coedge $-1 $592 $236 $589 $593 forward $149 $-1 #
coedge $-1 $236 $592 $594 $595 forward $149 $-1 #
coedge $-1 $375 $374 $236 $368 reversed $376 $-1 #
edge $-1 $596 -2.7301191856885705 $597 2.7301191856885705 $367 $598 forward 7 unknown #
coedge $-1 $238 $237 $599 $600 forward $94 $-1 #
coedge $-1 $601 $602 $237 $371 reversed $586 $-1 #
edge $-1 $378 -46.183050019837033 $603 46.183050019837033 $370 $604 forward 7 unknown #
coedge $-1 $364 $605 $238 $373 reversed $234 $-1 #
edge $-1 $606 -46.183050019837033 $377 46.183050019837033 $372 $607 forward 7 unknown #
coedge $-1 $367 $239 $605 $608 forward $376 $-1 #
coedge $-1 $239 $367 $601 $609 reversed $376 $-1 #
loop $-1 $-1 $374 $585 #
vertex $-1 $240 $610 #
vertex $-1 $240 $611 #
straight-curve $-1 46.183050019837033 0 1.7718949133804793 0 1 0 I I #
face $-1 $612 $613 $56 $-1 $614 reversed single #
loop $-1 $-1 $615 $241 #
plane-surface $-1 -46.183050019837033 0 0 1 0 0 0 0 -1 forward_v I I I I #
coedge $-1 $616 $391 $617 $618 forward $242 $-1 #
coedge $-1 $619 $244 $616 $620 forward $153 $-1 #
coedge $-1 $244 $619 $621 $622 forward $153 $-1 #
coedge $-1 $394 $393 $244 $387 reversed $395 $-1 #
edge $-1 $623 -4.3693782275622297 $624 4.3693782275622297 $386 $625 forward 7 unknown #
coedge $-1 $246 $245 $626 $627 forward $97 $-1 #
coedge $-1 $628 $629 $245 $390 reversed $613 $-1 #
edge $-1 $397 -46.183050019837033 $630 46.183050019837033 $389 $631 forward 7 unknown #
coedge $-1 $383 $632 $246 $392 reversed $242 $-1 #
edge $-1 $633 -46.183050019837033 $396 46.183050019837033 $391 $634 forward 7 unknown #
coedge $-1 $386 $247 $632 $635 forward $395 $-1 #
coedge $-1 $247 $386 $628 $636 reversed $395 $-1 #
loop $-1 $-1 $393 $612 #
vertex $-1 $248 $637 #
vertex $-1 $248 $638 #
straight-curve $-1 46.183050019837033 0 1.5 0 1 0 I I #
face $-1 $639 $640 $57 $-1 $641 reversed single #
loop $-1 $-1 $642 $249 #
plane-surface $-1 -184.73220007934813 0 0 1 0 0 0 0 -1 forward_v I I I I #
coedge $-1 $643 $410 $644 $645 forward $250 $-1 #
coedge $-1 $646 $252 $643 $647 forward $157 $-1 #
coedge $-1 $252 $646 $648 $649 forward $157 $-1 #
coedge $-1 $413 $412 $252 $406 reversed $414 $-1 #
edge $-1 $650 -2.5108671976125265 $651 2.5108671976125265 $405 $652 forward 7 unknown #
coedge $-1 $254 $253 $653 $654 forward $100 $-1 #
coedge $-1 $655 $656 $253 $409 reversed $640 $-1 #
edge $-1 $416 -184.73220007934813 $657 184.73220007934813 $408 $658 forward 7 unknown #
coedge $-1 $402 $659 $254 $411 reversed $250 $-1 #
edge $-1 $660 -184.73220007934813 $415 184.73220007934813 $410 $661 forward 7 unknown #
coedge $-1 $405 $255 $659 $662 forward $414 $-1 #
coedge $-1 $255 $405 $655 $663 reversed $414 $-1 #
loop $-1 $-1 $412 $639 #
vertex $-1 $256 $664 #
vertex $-1 $256 $665 #
straight-curve $-1 184.73220007934813 0 92.366100039674066 0 1 0 I I #
loop $-1 $-1 $666 $160 #
coedge $-1 $419 $419 $260 $420 reversed $257 $-1 #
edge $-1 $667 0 $667 6.2831853071796004 $419 $668 forward 7 unknown #
vertex $-1 $261 $669 #
ellipse-curve $-1 0 0 -2.2870113223670159 0 0 -1 1 0 0 1 I I #
face $-1 $670 $671 $59 $-1 $672 reversed single #
loop $-1 $-1 $673 $262 #
plane-surface $-1 -184.73220007934813 0 0 1 0 0 0 0 -1 forward_v I I I I #
coedge $-1 $674 $434 $675 $676 forward $263 $-1 #
coedge $-1 $677 $265 $674 $678 forward $166 $-1 #
coedge $-1 $265 $677 $679 $680 forward $166 $-1 #
coedge $-1 $437 $436 $265 $430 reversed $438 $-1 #
edge $-1 $681 -2.5108671976125265 $682 2.5108671976125265 $429 $683 forward 7 unknown #
coedge $-1 $267 $266 $684 $685 forward $106 $-1 #
coedge $-1 $686 $687 $266 $433 reversed $671 $-1 #
edge $-1 $440 -184.73220007934813 $688 184.73220007934813 $432 $689 forward 7 unknown #
coedge $-1 $426 $690 $267 $435 reversed $263 $-1 #
edge $-1 $691 -184.73220007934813 $439 184.73220007934813 $434 $692 forward 7 unknown #
coedge $-1 $429 $268 $690 $693 forward $438 $-1 #
coedge $-1 $268 $429 $686 $694 reversed $438 $-1 #
loop $-1 $-1 $436 $670 #
vertex $-1 $269 $695 #
vertex $-1 $269 $696 #
straight-curve $-1 184.73220007934813 0 92.366100039674066 0 1 0 I I #
loop $-1 $-1 $697 $169 #
coedge $-1 $443 $443 $273 $444 reversed $270 $-1 #
edge $-1 $698 0 $698 6.2831853071796004 $443 $699 forward 7 unknown #
vertex $-1 $274 $700 #
ellipse-curve $-1 0 0 -2.2870113223670159 0 0 -1 1 0 0 1 I I #
face $-1 $701 $702 $61 $-1 $703 reversed single #
loop $-1 $-1 $704 $275 #
plane-surface $-1 -184.73220007934813 0 0 1 0 0 0 0 -1 forward_v I I I I #
coedge $-1 $705 $458 $706 $707 forward $276 $-1 #
coedge $-1 $708 $278 $705 $709 forward $175 $-1 #
coedge $-1 $278 $708 $710 $711 forward $175 $-1 #
coedge $-1 $461 $460 $278 $454 reversed $462 $-1 #
edge $-1 $712 -2.5108671976125265 $713 2.5108671976125265 $453 $714 forward 7 unknown #
coedge $-1 $280 $279 $715 $716 forward $112 $-1 #
coedge $-1 $717 $718 $279 $457 reversed $702 $-1 #
edge $-1 $464 -184.73220007934813 $719 184.73220007934813 $456 $720 forward 7 unknown #
coedge $-1 $450 $721 $280 $459 reversed $276 $-1 #
edge $-1 $722 -184.73220007934813 $463 184.73220007934813 $458 $723 forward 7 unknown #
coedge $-1 $453 $281 $721 $724 forward $462 $-1 #
coedge $-1 $281 $453 $717 $725 reversed $462 $-1 #
loop $-1 $-1 $460 $701 #
vertex $-1 $282 $726 #
vertex $-1 $282 $727 #
straight-curve $-1 184.73220007934813 0 92.366100039674066 0 1 0 I I #
loop $-1 $-1 $728 $178 #
coedge $-1 $467 $467 $286 $468 reversed $283 $-1 #
edge $-1 $729 0 $729 6.2831853071796004 $467 $730 forward 7 unknown #
vertex $-1 $287 $731 #
ellipse-curve $-1 0 0 -2.2870113223670159 0 0 -1 1 0 0 1 I I #
face $-1 $732 $733 $63 $-1 $734 reversed single #
loop $-1 $-1 $735 $288 #
plane-surface $-1 -184.73220007934813 0 0 1 0 0 0 0 -1 forward_v I I I I #
coedge $-1 $736 $482 $737 $738 forward $289 $-1 #
coedge $-1 $739 $291 $736 $740 forward $184 $-1 #
coedge $-1 $291 $739 $741 $742 forward $184 $-1 #
coedge $-1 $485 $484 $291 $478 reversed $486 $-1 #
edge $-1 $743 -2.0434037171780437 $744 2.0434037171780437 $477 $745 forward 7 unknown #
coedge $-1 $293 $292 $746 $747 forward $118 $-1 #
coedge $-1 $748 $749 $292 $481 reversed $733 $-1 #
edge $-1 $488 -184.73220007934813 $750 184.73220007934813 $480 $751 forward 7 unknown #
coedge $-1 $474 $752 $293 $483 reversed $289 $-1 #
edge $-1 $753 -184.73220007934813 $487 184.73220007934813 $482 $754 forward 7 unknown #
coedge $-1 $477 $294 $752 $755 forward $486 $-1 #
coedge $-1 $294 $477 $748 $756 reversed $486 $-1 #
loop $-1 $-1 $484 $732 #
vertex $-1 $295 $757 #
vertex $-1 $295 $758 #
straight-curve $-1 184.73220007934813 0 92.366100039674066 0 1 0 I I #
loop $-1 $-1 $759 $187 #
coedge $-1 $491 $491 $299 $492 reversed $296 $-1 #
edge $-1 $760 0 $760 6.2831853071796004 $491 $761 forward 7 unknown #
vertex $-1 $300 $762 #
ellipse-curve $-1 0 0 -1.125 0 0 -1 0.25 0 0 1 I I #
loop $-1 $-1 $763 $192 #
coedge $-1 $496 $496 $304 $497 reversed $301 $-1 #
edge $-1 $764 0 $764 6.2831853071796004 $496 $765 forward 7 unknown #
vertex $-1 $305 $766 #
ellipse-curve $-1 0 0 -1.125 0 0 -1 0.25 0 0 1 I I #
face $-1 $767 $768 $66 $-1 $769 reversed single #
loop $-1 $-1 $770 $306 #
plane-surface $-1 -184.73220007934813 0 0 1 0 0 0 0 -1 forward_v I I I I #
coedge $-1 $771 $511 $772 $773 forward $307 $-1 #
coedge $-1 $774 $309 $771 $775 forward $198 $-1 #
coedge $-1 $309 $774 $776 $777 forward $198 $-1 #
coedge $-1 $514 $513 $309 $507 reversed $515 $-1 #
edge $-1 $778 -2.0434037171780437 $779 2.0434037171780437 $506 $780 forward 7 unknown #
coedge $-1 $311 $310 $781 $782 forward $127 $-1 #
coedge $-1 $783 $784 $310 $510 reversed $768 $-1 #
edge $-1 $517 -184.73220007934813 $785 184.73220007934813 $509 $786 forward 7 unknown #
coedge $-1 $503 $787 $311 $512 reversed $307 $-1 #
edge $-1 $788 -184.73220007934813 $516 184.73220007934813 $511 $789 forward 7 unknown #
coedge $-1 $506 $312 $787 $790 forward $515 $-1 #
coedge $-1 $312 $506 $783 $791 reversed $515 $-1 #
loop $-1 $-1 $513 $767 #
vertex $-1 $313 $792 #
vertex $-1 $313 $793 #
straight-curve $-1 184.73220007934813 0 92.366100039674066 0 1 0 I I #
loop $-1 $-1 $794 $201 #
coedge $-1 $520 $520 $317 $521 reversed $314 $-1 #
edge $-1 $795 0 $795 6.2831853071796004 $520 $796 forward 7 unknown #
vertex $-1 $318 $797 #
ellipse-curve $-1 0 0 -1.125 0 0 -1 0.25 0 0 1 I I #
loop $-1 $-1 $798 $206 #
coedge $-1 $525 $525 $322 $526 reversed $319 $-1 #
edge $-1 $799 0 $799 6.2831853071796004 $525 $800 forward 7 unknown #
vertex $-1 $323 $801 #
ellipse-curve $-1 0 0 -1.125 0 0 -1 0.25 0 0 1 I I #
face $-1 $802 $803 $69 $-1 $804 reversed single #
loop $-1 $-1 $805 $324 #
plane-surface $-1 -184.73220007934813 0 0 1 0 0 0 0 -1 forward_v I I I I #
coedge $-1 $806 $540 $807 $808 forward $325 $-1 #
coedge $-1 $809 $327 $806 $810 forward $212 $-1 #
coedge $-1 $327 $809 $811 $812 forward $212 $-1 #
coedge $-1 $543 $542 $327 $536 reversed $544 $-1 #
edge $-1 $813 -2.0434037171780437 $814 2.0434037171780437 $535 $815 forward 7 unknown #
coedge $-1 $329 $328 $816 $817 forward $136 $-1 #
coedge $-1 $818 $819 $328 $539 reversed $803 $-1 #
edge $-1 $546 -184.73220007934813 $820 184.73220007934813 $538 $821 forward 7 unknown #
coedge $-1 $532 $822 $329 $541 reversed $325 $-1 #
edge $-1 $823 -184.73220007934813 $545 184.73220007934813 $540 $824 forward 7 unknown #
coedge $-1 $535 $330 $822 $825 forward $544 $-1 #
coedge $-1 $330 $535 $818 $826 reversed $544 $-1 #
loop $-1 $-1 $542 $802 #
vertex $-1 $331 $827 #
vertex $-1 $331 $828 #
straight-curve $-1 184.73220007934813 0 92.366100039674066 0 1 0 I I #
loop $-1 $-1 $829 $215 #
coedge $-1 $549 $549 $335 $550 reversed $332 $-1 #
edge $-1 $830 0 $830 6.2831853071796004 $549 $831 forward 7 unknown #
vertex $-1 $336 $832 #
ellipse-curve $-1 0 0 -1.125 0 0 -1 0.25 0 0 1 I I #
loop $-1 $-1 $833 $220 #
coedge $-1 $554 $554 $340 $555 reversed $337 $-1 #
edge $-1 $834 0 $834 6.2831853071796004 $554 $835 forward 7 unknown #
vertex $-1 $341 $836 #
ellipse-curve $-1 0 0 -1.125 0 0 -1 0.25 0 0 1 I I #
face $-1 $-1 $357 $54 $-1 $837 reversed single #
loop $-1 $-1 $574 $342 #
plane-surface $-1 0 18.62459363298839 0 0 -1 0 0 0 -1 forward_v I I I I #
coedge $-1 $838 $572 $575 $839 forward $343 $-1 #
coedge $-1 $578 $345 $346 $566 reversed $226 $-1 #
coedge $-1 $572 $838 $345 $564 reversed $343 $-1 #
edge $-1 $579 -6.6244144705046688 $840 6.6244144705046688 $563 $841 forward 7 unknown #
coedge $-1 $347 $346 $838 $842 forward $145 $-1 #
edge $-1 $570 -46.183050019837033 $840 46.183050019837033 $562 $843 forward 7 unknown #
coedge $-1 $575 $574 $347 $568 reversed $559 $-1 #
edge $-1 $844 -46.183050019837033 $569 46.183050019837033 $567 $845 forward 7 unknown #
vertex $-1 $349 $846 #
vertex $-1 $581 $847 #
straight-curve $-1 46.183050019837033 0 -6.6244144705046688 0 -1 0 I I #
coedge $-1 $561 $563 $350 $573 reversed $343 $-1 #
edge $-1 $576 -18.62459363298839 $579 18.62459363298839 $572 $848 forward 7 unknown #
coedge $-1 $567 $351 $356 $582 forward $559 $-1 #
coedge $-1 $351 $567 $561 $839 reversed $559 $-1 #
vertex $-1 $352 $849 #
straight-curve $-1 0 18.62459363298839 6.6244144705046688 -1 0 0 I I #
coedge $-1 $353 $562 $355 $581 reversed $226 $-1 #
vertex $-1 $573 $850 #
straight-curve $-1 0 -18.62459363298839 6.6244144705046688 1 0 0 I I #
edge $-1 $358 -6.6244144705046688 $570 6.6244144705046688 $355 $851 forward 7 unknown #
edge $-1 $359 -6.6244144705046688 $569 6.6244144705046688 $356 $852 forward 7 unknown #
point $-1 46.183050019837033 -18.62459363298839 6.6244144705046688 #
point $-1 46.183050019837033 18.62459363298839 6.6244144705046688 #
face $-1 $-1 $376 $55 $-1 $853 reversed single #
loop $-1 $-1 $601 $361 #
plane-surface $-1 0 2.7301191856885705 0 0 -1 0 0 0 -1 forward_v I I I I #
coedge $-1 $854 $599 $602 $855 forward $362 $-1 #
coedge $-1 $605 $364 $365 $593 reversed $234 $-1 #
coedge $-1 $599 $854 $364 $591 reversed $362 $-1 #
edge $-1 $606 -1.7718949133804793 $856 1.7718949133804793 $590 $857 forward 7 unknown #
coedge $-1 $366 $365 $854 $858 forward $149 $-1 #
edge $-1 $597 -46.183050019837033 $856 46.183050019837033 $589 $859 forward 7 unknown #
coedge $-1 $602 $601 $366 $595 reversed $586 $-1 #
edge $-1 $860 -46.183050019837033 $596 46.183050019837033 $594 $861 forward 7 unknown #
vertex $-1 $368 $862 #
vertex $-1 $608 $863 #
straight-curve $-1 46.183050019837033 0 -1.7718949133804793 0 -1 0 I I #
coedge $-1 $588 $590 $369 $600 reversed $362 $-1 #
edge $-1 $603 -2.7301191856885705 $606 2.7301191856885705 $599 $864 forward 7 unknown #
coedge $-1 $594 $370 $375 $609 forward $586 $-1 #
coedge $-1 $370 $594 $588 $855 reversed $586 $-1 #
vertex $-1 $371 $865 #
straight-curve $-1 0 2.7301191856885705 1.7718949133804793 -1 0 0 I I #
coedge $-1 $372 $589 $374 $608 reversed $234 $-1 #
vertex $-1 $600 $866 #
straight-curve $-1 0 -2.7301191856885705 1.7718949133804793 1 0 0 I I #
edge $-1 $377 -1.7718949133804793 $597 1.7718949133804793 $374 $867 forward 7 unknown #
edge $-1 $378 -1.7718949133804793 $596 1.7718949133804793 $375 $868 forward 7 unknown #
point $-1 46.183050019837033 -2.7301191856885705 1.7718949133804793 #
point $-1 46.183050019837033 2.7301191856885705 1.7718949133804793 #
face $-1 $-1 $395 $56 $-1 $869 reversed single #
loop $-1 $-1 $628 $380 #
plane-surface $-1 0 4.3693782275622297 0 0 -1 0 0 0 -1 forward_v I I I I #
coedge $-1 $870 $626 $629 $871 forward $381 $-1 #
coedge $-1 $632 $383 $384 $620 reversed $242 $-1 #
coedge $-1 $626 $870 $383 $618 reversed $381 $-1 #
edge $-1 $633 -1.5 $872 1.5 $617 $873 forward 7 unknown #
coedge $-1 $385 $384 $870 $874 forward $153 $-1 #
edge $-1 $624 -46.183050019837033 $872 46.183050019837033 $616 $875 forward 7 unknown #
coedge $-1 $629 $628 $385 $622 reversed $613 $-1 #
edge $-1 $876 -46.183050019837033 $623 46.183050019837033 $621 $877 forward 7 unknown #
vertex $-1 $387 $878 #
vertex $-1 $635 $879 #
straight-curve $-1 46.183050019837033 0 -1.5 0 -1 0 I I #
coedge $-1 $615 $617 $388 $627 reversed $381 $-1 #
edge $-1 $630 -4.3693782275622297 $633 4.3693782275622297 $626 $880 forward 7 unknown #
coedge $-1 $621 $389 $394 $636 forward $613 $-1 #
coedge $-1 $389 $621 $615 $871 reversed $613 $-1 #
vertex $-1 $390 $881 #
straight-curve $-1 0 4.3693782275622297 1.5 -1 0 0 I I #
coedge $-1 $391 $616 $393 $635 reversed $242 $-1 #
vertex $-1 $627 $882 #
straight-curve $-1 0 -4.3693782275622297 1.5 1 0 0 I I #
edge $-1 $396 -1.5 $624 1.5 $393 $883 forward 7 unknown #
edge $-1 $397 -1.5 $623 1.5 $394 $884 forward 7 unknown #
point $-1 46.183050019837033 -4.3693782275622297 1.5 #
point $-1 46.183050019837033 4.3693782275622297 1.5 #
face $-1 $-1 $414 $57 $-1 $885 reversed single #
loop $-1 $-1 $655 $399 #
plane-surface $-1 0 2.5108671976125265 0 0 -1 0 0 0 -1 forward_v I I I I #
coedge $-1 $886 $653 $656 $887 forward $400 $-1 #
coedge $-1 $659 $402 $403 $647 reversed $250 $-1 #
coedge $-1 $653 $886 $402 $645 reversed $400 $-1 #
edge $-1 $660 -92.366100039674066 $888 92.366100039674066 $644 $889 forward 7 unknown #
coedge $-1 $404 $403 $886 $890 forward $157 $-1 #
edge $-1 $651 -184.73220007934813 $888 184.73220007934813 $643 $891 forward 7 unknown #
coedge $-1 $656 $655 $404 $649 reversed $640 $-1 #
edge $-1 $892 -184.73220007934813 $650 184.73220007934813 $648 $893 forward 7 unknown #
vertex $-1 $406 $894 #
vertex $-1 $662 $895 #
straight-curve $-1 184.73220007934813 0 -92.366100039674066 0 -1 0 I I #
coedge $-1 $642 $644 $407 $654 reversed $400 $-1 #
edge $-1 $657 -2.5108671976125265 $660 2.5108671976125265 $653 $896 forward 7 unknown #
coedge $-1 $648 $408 $413 $663 forward $640 $-1 #
coedge $-1 $408 $648 $642 $887 reversed $640 $-1 #
vertex $-1 $409 $897 #
straight-curve $-1 0 2.5108671976125265 92.366100039674066 -1 0 0 I I #
coedge $-1 $410 $643 $412 $662 reversed $250 $-1 #
vertex $-1 $654 $898 #
straight-curve $-1 0 -2.5108671976125265 92.366100039674066 1 0 0 I I #
edge $-1 $415 -92.366100039674066 $651 92.366100039674066 $412 $899 forward 7 unknown #
edge $-1 $416 -92.366100039674066 $650 92.366100039674066 $413 $900 forward 7 unknown #
point $-1 184.73220007934813 -2.5108671976125265 92.366100039674066 #
point $-1 184.73220007934813 2.5108671976125265 92.366100039674066 #
coedge $-1 $666 $666 $-1 $901 reversed $418 $-1 #
vertex $-1 $420 $902 #
ellipse-curve $-1 0 0 -0.5 0 0 -1 1 0 0 1 I I #
point $-1 1 0 -2.2870113223670159 #
face $-1 $-1 $438 $59 $-1 $903 reversed single #
loop $-1 $-1 $686 $423 #
plane-surface $-1 0 2.5108671976125265 0 0 -1 0 0 0 -1 forward_v I I I I #
coedge $-1 $904 $684 $687 $905 forward $424 $-1 #
coedge $-1 $690 $426 $427 $678 reversed $263 $-1 #
coedge $-1 $684 $904 $426 $676 reversed $424 $-1 #
edge $-1 $691 -92.366100039674066 $906 92.366100039674066 $675 $907 forward 7 unknown #
coedge $-1 $428 $427 $904 $908 forward $166 $-1 #
edge $-1 $682 -184.73220007934813 $906 184.73220007934813 $674 $909 forward 7 unknown #
coedge $-1 $687 $686 $428 $680 reversed $671 $-1 #
edge $-1 $910 -184.73220007934813 $681 184.73220007934813 $679 $911 forward 7 unknown #
vertex $-1 $430 $912 #
vertex $-1 $693 $913 #
straight-curve $-1 184.73220007934813 0 -92.366100039674066 0 -1 0 I I #
coedge $-1 $673 $675 $431 $685 reversed $424 $-1 #
edge $-1 $688 -2.5108671976125265 $691 2.5108671976125265 $684 $914 forward 7 unknown #
coedge $-1 $679 $432 $437 $694 forward $671 $-1 #
coedge $-1 $432 $679 $673 $905 reversed $671 $-1 #
vertex $-1 $433 $915 #
straight-curve $-1 0 2.5108671976125265 92.366100039674066 -1 0 0 I I #
coedge $-1 $434 $674 $436 $693 reversed $263 $-1 #
vertex $-1 $685 $916 #
straight-curve $-1 0 -2.5108671976125265 92.366100039674066 1 0 0 I I #
edge $-1 $439 -92.366100039674066 $682 92.366100039674066 $436 $917 forward 7 unknown #
edge $-1 $440 -92.366100039674066 $681 92.366100039674066 $437 $918 forward 7 unknown #
point $-1 184.73220007934813 -2.5108671976125265 92.366100039674066 #
point $-1 184.73220007934813 2.5108671976125265 92.366100039674066 #
coedge $-1 $697 $697 $-1 $919 reversed $442 $-1 #
vertex $-1 $444 $920 #
ellipse-curve $-1 0 0 -0.5 0 0 -1 1 0 0 1 I I #
point $-1 1 0 -2.2870113223670159 #
face $-1 $-1 $462 $61 $-1 $921 reversed single #
loop $-1 $-1 $717 $447 #
plane-surface $-1 0 2.5108671976125265 0 0 -1 0 0 0 -1 forward_v I I I I #
coedge $-1 $922 $715 $718 $923 forward $448 $-1 #
coedge $-1 $721 $450 $451 $709 reversed $276 $-1 #
coedge $-1 $715 $922 $450 $707 reversed $448 $-1 #
edge $-1 $722 -92.366100039674066 $924 92.366100039674066 $706 $925 forward 7 unknown #
coedge $-1 $452 $451 $922 $926 forward $175 $-1 #
edge $-1 $713 -184.73220007934813 $924 184.73220007934813 $705 $927 forward 7 unknown #
coedge $-1 $718 $717 $452 $711 reversed $702 $-1 #
edge $-1 $928 -184.73220007934813 $712 184.73220007934813 $710 $929 forward 7 unknown #
vertex $-1 $454 $930 #
vertex $-1 $724 $931 #
straight-curve $-1 184.73220007934813 0 -92.366100039674066 0 -1 0 I I #
coedge $-1 $704 $706 $455 $716 reversed $448 $-1 #
edge $-1 $719 -2.5108671976125265 $722 2.5108671976125265 $715 $932 forward 7 unknown #
coedge $-1 $710 $456 $461 $725 forward $702 $-1 #
coedge $-1 $456 $710 $704 $923 reversed $702 $-1 #
vertex $-1 $457 $933 #
straight-curve $-1 0 2.5108671976125265 92.366100039674066 -1 0 0 I I #
coedge $-1 $458 $705 $460 $724 reversed $276 $-1 #
vertex $-1 $716 $934 #
straight-curve $-1 0 -2.5108671976125265 92.366100039674066 1 0 0 I I #
edge $-1 $463 -92.366100039674066 $713 92.366100039674066 $460 $935 forward 7 unknown #
edge $-1 $464 -92.366100039674066 $712 92.366100039674066 $461 $936 forward 7 unknown #
point $-1 184.73220007934813 -2.5108671976125265 92.366100039674066 #
point $-1 184.73220007934813 2.5108671976125265 92.366100039674066 #
coedge $-1 $728 $728 $-1 $937 reversed $466 $-1 #
vertex $-1 $468 $938 #
ellipse-curve $-1 0 0 -0.5 0 0 -1 1 0 0 1 I I #
point $-1 1 0 -2.2870113223670159 #
face $-1 $-1 $486 $63 $-1 $939 reversed single #
loop $-1 $-1 $748 $471 #
plane-surface $-1 0 2.0434037171780437 0 0 -1 0 0 0 -1 forward_v I I I I #
coedge $-1 $940 $746 $749 $941 forward $472 $-1 #
coedge $-1 $752 $474 $475 $740 reversed $289 $-1 #
coedge $-1 $746 $940 $474 $738 reversed $472 $-1 #
edge $-1 $753 -92.366100039674066 $942 92.366100039674066 $737 $943 forward 7 unknown #
coedge $-1 $476 $475 $940 $944 forward $184 $-1 #
edge $-1 $744 -184.73220007934813 $942 184.73220007934813 $736 $945 forward 7 unknown #
coedge $-1 $749 $748 $476 $742 reversed $733 $-1 #
edge $-1 $946 -184.73220007934813 $743 184.73220007934813 $741 $947 forward 7 unknown #
vertex $-1 $478 $948 #
vertex $-1 $755 $949 #
straight-curve $-1 184.73220007934813 0 -92.366100039674066 0 -1 0 I I #
coedge $-1 $735 $737 $479 $747 reversed $472 $-1 #
edge $-1 $750 -2.0434037171780437 $753 2.0434037171780437 $746 $950 forward 7 unknown #
coedge $-1 $741 $480 $485 $756 forward $733 $-1 #
coedge $-1 $480 $741 $735 $941 reversed $733 $-1 #
vertex $-1 $481 $951 #
straight-curve $-1 0 2.0434037171780437 92.366100039674066 -1 0 0 I I #
coedge $-1 $482 $736 $484 $755 reversed $289 $-1 #
vertex $-1 $747 $952 #
straight-curve $-1 0 -2.0434037171780437 92.366100039674066 1 0 0 I I #
edge $-1 $487 -92.366100039674066 $744 92.366100039674066 $484 $953 forward 7 unknown #
edge $-1 $488 -92.366100039674066 $743 92.366100039674066 $485 $954 forward 7 unknown #
point $-1 184.73220007934813 -2.0434037171780437 92.366100039674066 #
point $-1 184.73220007934813 2.0434037171780437 92.366100039674066 #
coedge $-1 $759 $759 $-1 $955 reversed $490 $-1 #
vertex $-1 $492 $956 #
ellipse-curve $-1 0 0 -0.125 0 0 -1 0.25 0 0 1 I I #
point $-1 0.25 0 -1.125 #
coedge $-1 $763 $763 $-1 $957 reversed $495 $-1 #
vertex $-1 $497 $958 #
ellipse-curve $-1 0 0 -0.125 0 0 -1 0.25 0 0 1 I I #
point $-1 0.25 0 -1.125 #
face $-1 $-1 $515 $66 $-1 $959 reversed single #
loop $-1 $-1 $783 $500 #
plane-surface $-1 0 2.0434037171780437 0 0 -1 0 0 0 -1 forward_v I I I I #
coedge $-1 $960 $781 $784 $961 forward $501 $-1 #
coedge $-1 $787 $503 $504 $775 reversed $307 $-1 #
coedge $-1 $781 $960 $503 $773 reversed $501 $-1 #
edge $-1 $788 -92.366100039674066 $962 92.366100039674066 $772 $963 forward 7 unknown #
coedge $-1 $505 $504 $960 $964 forward $198 $-1 #
edge $-1 $779 -184.73220007934813 $962 184.73220007934813 $771 $965 forward 7 unknown #
coedge $-1 $784 $783 $505 $777 reversed $768 $-1 #
edge $-1 $966 -184.73220007934813 $778 184.73220007934813 $776 $967 forward 7 unknown #
vertex $-1 $507 $968 #
vertex $-1 $790 $969 #
straight-curve $-1 184.73220007934813 0 -92.366100039674066 0 -1 0 I I #
coedge $-1 $770 $772 $508 $782 reversed $501 $-1 #
edge $-1 $785 -2.0434037171780437 $788 2.0434037171780437 $781 $970 forward 7 unknown #
coedge $-1 $776 $509 $514 $791 forward $768 $-1 #
coedge $-1 $509 $776 $770 $961 reversed $768 $-1 #
vertex $-1 $510 $971 #
straight-curve $-1 0 2.0434037171780437 92.366100039674066 -1 0 0 I I #
coedge $-1 $511 $771 $513 $790 reversed $307 $-1 #
vertex $-1 $782 $972 #
straight-curve $-1 0 -2.0434037171780437 92.366100039674066 1 0 0 I I #
edge $-1 $516 -92.366100039674066 $779 92.366100039674066 $513 $973 forward 7 unknown #
edge $-1 $517 -92.366100039674066 $778 92.366100039674066 $514 $974 forward 7 unknown #
point $-1 184.73220007934813 -2.0434037171780437 92.366100039674066 #
point $-1 184.73220007934813 2.0434037171780437 92.366100039674066 #
coedge $-1 $794 $794 $-1 $975 reversed $519 $-1 #
vertex $-1 $521 $976 #
ellipse-curve $-1 0 0 -0.125 0 0 -1 0.25 0 0 1 I I #
point $-1 0.25 0 -1.125 #
coedge $-1 $798 $798 $-1 $977 reversed $524 $-1 #
vertex $-1 $526 $978 #
ellipse-curve $-1 0 0 -0.125 0 0 -1 0.25 0 0 1 I I #
point $-1 0.25 0 -1.125 #
face $-1 $-1 $544 $69 $-1 $979 reversed single #
loop $-1 $-1 $818 $529 #
plane-surface $-1 0 2.0434037171780437 0 0 -1 0 0 0 -1 forward_v I I I I #
coedge $-1 $980 $816 $819 $981 forward $530 $-1 #
coedge $-1 $822 $532 $533 $810 reversed $325 $-1 #
coedge $-1 $816 $980 $532 $808 reversed $530 $-1 #
edge $-1 $823 -92.366100039674066 $982 92.366100039674066 $807 $983 forward 7 unknown #
coedge $-1 $534 $533 $980 $984 forward $212 $-1 #
edge $-1 $814 -184.73220007934813 $982 184.73220007934813 $806 $985 forward 7 unknown #
coedge $-1 $819 $818 $534 $812 reversed $803 $-1 #
edge $-1 $986 -184.73220007934813 $813 184.73220007934813 $811 $987 forward 7 unknown #
vertex $-1 $536 $988 #
vertex $-1 $825 $989 #
straight-curve $-1 184.73220007934813 0 -92.366100039674066 0 -1 0 I I #
coedge $-1 $805 $807 $537 $817 reversed $530 $-1 #
edge $-1 $820 -2.0434037171780437 $823 2.0434037171780437 $816 $990 forward 7 unknown #
coedge $-1 $811 $538 $543 $826 forward $803 $-1 #
coedge $-1 $538 $811 $805 $981 reversed $803 $-1 #
vertex $-1 $539 $991 #
straight-curve $-1 0 2.0434037171780437 92.366100039674066 -1 0 0 I I #
coedge $-1 $540 $806 $542 $825 reversed $325 $-1 #
vertex $-1 $817 $992 #
straight-curve $-1 0 -2.0434037171780437 92.366100039674066 1 0 0 I I #
edge $-1 $545 -92.366100039674066 $814 92.366100039674066 $542 $993 forward 7 unknown #
edge $-1 $546 -92.366100039674066 $813 92.366100039674066 $543 $994 forward 7 unknown #
point $-1 184.73220007934813 -2.0434037171780437 92.366100039674066 #
point $-1 184.73220007934813 2.0434037171780437 92.366100039674066 #
coedge $-1 $829 $829 $-1 $995 reversed $548 $-1 #
vertex $-1 $550 $996 #
ellipse-curve $-1 0 0 -0.125 0 0 -1 0.25 0 0 1 I I #
point $-1 0.25 0 -1.125 #
coedge $-1 $833 $833 $-1 $997 reversed $553 $-1 #
vertex $-1 $555 $998 #
ellipse-curve $-1 0 0 -0.125 0 0 -1 0.25 0 0 1 I I #
point $-1 0.25 0 -1.125 #
plane-surface $-1 46.183050019837033 0 0 -1 0 0 0 0 1 forward_v I I I I #
coedge $-1 $563 $561 $565 $842 reversed $343 $-1 #
edge $-1 $576 -6.6244144705046688 $844 6.6244144705046688 $575 $999 forward 7 unknown #
vertex $-1 $842 $1000 #
straight-curve $-1 -46.183050019837033 -18.62459363298839 0 0 0 -1 I I #
edge $-1 $840 -18.62459363298839 $844 18.62459363298839 $838 $1001 forward 7 unknown #
straight-curve $-1 0 -18.62459363298839 -6.6244144705046688 -1 0 0 I I #
vertex $-1 $568 $1002 #
straight-curve $-1 0 18.62459363298839 -6.6244144705046688 1 0 0 I I #
point $-1 46.183050019837033 18.62459363298839 -6.6244144705046688 #
point $-1 46.183050019837033 -18.62459363298839 -6.6244144705046688 #
straight-curve $-1 -46.183050019837033 0 6.6244144705046688 0 -1 0 I I #
point $-1 -46.183050019837033 18.62459363298839 6.6244144705046688 #
point $-1 -46.183050019837033 -18.62459363298839 6.6244144705046688 #
straight-curve $-1 46.183050019837033 -18.62459363298839 0 0 0 -1 I I #
straight-curve $-1 46.183050019837033 18.62459363298839 0 0 0 -1 I I #
plane-surface $-1 46.183050019837033 0 0 -1 0 0 0 0 1 forward_v I I I I #
coedge $-1 $590 $588 $592 $858 reversed $362 $-1 #
edge $-1 $603 -1.7718949133804793 $860 1.7718949133804793 $602 $1003 forward 7 unknown #
vertex $-1 $858 $1004 #
straight-curve $-1 -46.183050019837033 -2.7301191856885705 0 0 0 -1 I I #
edge $-1 $856 -2.7301191856885705 $860 2.7301191856885705 $854 $1005 forward 7 unknown #
straight-curve $-1 0 -2.7301191856885705 -1.7718949133804793 -1 0 0 I I #
vertex $-1 $595 $1006 #
straight-curve $-1 0 2.7301191856885705 -1.7718949133804793 1 0 0 I I #
point $-1 46.183050019837033 2.7301191856885705 -1.7718949133804793 #
point $-1 46.183050019837033 -2.7301191856885705 -1.7718949133804793 #
straight-curve $-1 -46.183050019837033 0 1.7718949133804793 0 -1 0 I I #
point $-1 -46.183050019837033 2.7301191856885705 1.7718949133804793 #
point $-1 -46.183050019837033 -2.7301191856885705 1.7718949133804793 #
straight-curve $-1 46.183050019837033 -2.7301191856885705 0 0 0 -1 I I #
straight-curve $-1 46.183050019837033 2.7301191856885705 0 0 0 -1 I I #
plane-surface $-1 46.183050019837033 0 0 -1 0 0 0 0 1 forward_v I I I I #
coedge $-1 $617 $615 $619 $874 reversed $381 $-1 #
edge $-1 $630 -1.5 $876 1.5 $629 $1007 forward 7 unknown #
vertex $-1 $874 $1008 #
straight-curve $-1 -46.183050019837033 -4.3693782275622297 0 0 0 -1 I I #
edge $-1 $872 -4.3693782275622297 $876 4.3693782275622297 $870 $1009 forward 7 unknown #
straight-curve $-1 0 -4.3693782275622297 -1.5 -1 0 0 I I #
vertex $-1 $622 $1010 #
straight-curve $-1 0 4.3693782275622297 -1.5 1 0 0 I I #
point $-1 46.183050019837033 4.3693782275622297 -1.5 #
point $-1 46.183050019837033 -4.3693782275622297 -1.5 #
straight-curve $-1 -46.183050019837033 0 1.5 0 -1 0 I I #
point $-1 -46.183050019837033 4.3693782275622297 1.5 #
point $-1 -46.183050019837033 -4.3693782275622297 1.5 #
straight-curve $-1 46.183050019837033 -4.3693782275622297 0 0 0 -1 I I #
straight-curve $-1 46.183050019837033 4.3693782275622297 0 0 0 -1 I I #
plane-surface $-1 184.73220007934813 0 0 -1 0 0 0 0 1 forward_v I I I I #
coedge $-1 $644 $642 $646 $890 reversed $400 $-1 #
edge $-1 $657 -92.366100039674066 $892 92.366100039674066 $656 $1011 forward 7 unknown #
vertex $-1 $890 $1012 #
straight-curve $-1 -184.73220007934813 -2.5108671976125265 0 0 0 -1 I I #
edge $-1 $888 -2.5108671976125265 $892 2.5108671976125265 $886 $1013 forward 7 unknown #
straight-curve $-1 0 -2.5108671976125265 -92.366100039674066 -1 0 0 I I #
vertex $-1 $649 $1014 #
straight-curve $-1 0 2.5108671976125265 -92.366100039674066 1 0 0 I I #
point $-1 184.73220007934813 2.5108671976125265 -92.366100039674066 #
point $-1 184.73220007934813 -2.5108671976125265 -92.366100039674066 #
straight-curve $-1 -184.73220007934813 0 92.366100039674066 0 -1 0 I I #
point $-1 -184.73220007934813 2.5108671976125265 92.366100039674066 #
point $-1 -184.73220007934813 -2.5108671976125265 92.366100039674066 #
straight-curve $-1 184.73220007934813 -2.5108671976125265 0 0 0 -1 I I #
straight-curve $-1 184.73220007934813 2.5108671976125265 0 0 0 -1 I I #
edge $-1 $1015 1 $1015 0 $666 $-1 forward 7 unknown #
point $-1 1 0 -0.5 #
plane-surface $-1 184.73220007934813 0 0 -1 0 0 0 0 1 forward_v I I I I #
coedge $-1 $675 $673 $677 $908 reversed $424 $-1 #
edge $-1 $688 -92.366100039674066 $910 92.366100039674066 $687 $1016 forward 7 unknown #
vertex $-1 $908 $1017 #
straight-curve $-1 -184.73220007934813 -2.5108671976125265 0 0 0 -1 I I #
edge $-1 $906 -2.5108671976125265 $910 2.5108671976125265 $904 $1018 forward 7 unknown #
straight-curve $-1 0 -2.5108671976125265 -92.366100039674066 -1 0 0 I I #
vertex $-1 $680 $1019 #
straight-curve $-1 0 2.5108671976125265 -92.366100039674066 1 0 0 I I #
point $-1 184.73220007934813 2.5108671976125265 -92.366100039674066 #
point $-1 184.73220007934813 -2.5108671976125265 -92.366100039674066 #
straight-curve $-1 -184.73220007934813 0 92.366100039674066 0 -1 0 I I #
point $-1 -184.73220007934813 2.5108671976125265 92.366100039674066 #
point $-1 -184.73220007934813 -2.5108671976125265 92.366100039674066 #
straight-curve $-1 184.73220007934813 -2.5108671976125265 0 0 0 -1 I I #
straight-curve $-1 184.73220007934813 2.5108671976125265 0 0 0 -1 I I #
edge $-1 $1020 1 $1020 0 $697 $-1 forward 7 unknown #
point $-1 1 0 -0.5 #
plane-surface $-1 184.73220007934813 0 0 -1 0 0 0 0 1 forward_v I I I I #
coedge $-1 $706 $704 $708 $926 reversed $448 $-1 #
edge $-1 $719 -92.366100039674066 $928 92.366100039674066 $718 $1021 forward 7 unknown #
vertex $-1 $926 $1022 #
straight-curve $-1 -184.73220007934813 -2.5108671976125265 0 0 0 -1 I I #
edge $-1 $924 -2.5108671976125265 $928 2.5108671976125265 $922 $1023 forward 7 unknown #
straight-curve $-1 0 -2.5108671976125265 -92.366100039674066 -1 0 0 I I #
vertex $-1 $711 $1024 #
straight-curve $-1 0 2.5108671976125265 -92.366100039674066 1 0 0 I I #
point $-1 184.73220007934813 2.5108671976125265 -92.366100039674066 #
point $-1 184.73220007934813 -2.5108671976125265 -92.366100039674066 #
straight-curve $-1 -184.73220007934813 0 92.366100039674066 0 -1 0 I I #
point $-1 -184.73220007934813 2.5108671976125265 92.366100039674066 #
point $-1 -184.73220007934813 -2.5108671976125265 92.366100039674066 #
straight-curve $-1 184.73220007934813 -2.5108671976125265 0 0 0 -1 I I #
straight-curve $-1 184.73220007934813 2.5108671976125265 0 0 0 -1 I I #
edge $-1 $1025 1 $1025 0 $728 $-1 forward 7 unknown #
point $-1 1 0 -0.5 #
plane-surface $-1 184.73220007934813 0 0 -1 0 0 0 0 1 forward_v I I I I #
coedge $-1 $737 $735 $739 $944 reversed $472 $-1 #
edge $-1 $750 -92.366100039674066 $946 92.366100039674066 $749 $1026 forward 7 unknown #
vertex $-1 $944 $1027 #
straight-curve $-1 -184.73220007934813 -2.0434037171780437 0 0 0 -1 I I #
edge $-1 $942 -2.0434037171780437 $946 2.0434037171780437 $940 $1028 forward 7 unknown #
straight-curve $-1 0 -2.0434037171780437 -92.366100039674066 -1 0 0 I I #
vertex $-1 $742 $1029 #
straight-curve $-1 0 2.0434037171780437 -92.366100039674066 1 0 0 I I #
point $-1 184.73220007934813 2.0434037171780437 -92.366100039674066 #
point $-1 184.73220007934813 -2.0434037171780437 -92.366100039674066 #
straight-curve $-1 -184.73220007934813 0 92.366100039674066 0 -1 0 I I #
point $-1 -184.73220007934813 2.0434037171780437 92.366100039674066 #
point $-1 -184.73220007934813 -2.0434037171780437 92.366100039674066 #
straight-curve $-1 184.73220007934813 -2.0434037171780437 0 0 0 -1 I I #
straight-curve $-1 184.73220007934813 2.0434037171780437 0 0 0 -1 I I #
edge $-1 $1030 1 $1030 0 $759 $-1 forward 7 unknown #
point $-1 0.25 0 -0.125 #
edge $-1 $1031 1 $1031 0 $763 $-1 forward 7 unknown #
point $-1 0.25 0 -0.125 #
plane-surface $-1 184.73220007934813 0 0 -1 0 0 0 0 1 forward_v I I I I #
coedge $-1 $772 $770 $774 $964 reversed $501 $-1 #
edge $-1 $785 -92.366100039674066 $966 92.366100039674066 $784 $1032 forward 7 unknown #
vertex $-1 $964 $1033 #
straight-curve $-1 -184.73220007934813 -2.0434037171780437 0 0 0 -1 I I #
edge $-1 $962 -2.0434037171780437 $966 2.0434037171780437 $960 $1034 forward 7 unknown #
straight-curve $-1 0 -2.0434037171780437 -92.366100039674066 -1 0 0 I I #
vertex $-1 $777 $1035 #
straight-curve $-1 0 2.0434037171780437 -92.366100039674066 1 0 0 I I #
point $-1 184.73220007934813 2.0434037171780437 -92.366100039674066 #
point $-1 184.73220007934813 -2.0434037171780437 -92.366100039674066 #
straight-curve $-1 -184.73220007934813 0 92.366100039674066 0 -1 0 I I #
point $-1 -184.73220007934813 2.0434037171780437 92.366100039674066 #
point $-1 -184.73220007934813 -2.0434037171780437 92.366100039674066 #
straight-curve $-1 184.73220007934813 -2.0434037171780437 0 0 0 -1 I I #
straight-curve $-1 184.73220007934813 2.0434037171780437 0 0 0 -1 I I #
edge $-1 $1036 1 $1036 0 $794 $-1 forward 7 unknown #
point $-1 0.25 0 -0.125 #
edge $-1 $1037 1 $1037 0 $798 $-1 forward 7 unknown #
point $-1 0.25 0 -0.125 #
plane-surface $-1 184.73220007934813 0 0 -1 0 0 0 0 1 forward_v I I I I #
coedge $-1 $807 $805 $809 $984 reversed $530 $-1 #
edge $-1 $820 -92.366100039674066 $986 92.366100039674066 $819 $1038 forward 7 unknown #
vertex $-1 $984 $1039 #
straight-curve $-1 -184.73220007934813 -2.0434037171780437 0 0 0 -1 I I #
edge $-1 $982 -2.0434037171780437 $986 2.0434037171780437 $980 $1040 forward 7 unknown #
straight-curve $-1 0 -2.0434037171780437 -92.366100039674066 -1 0 0 I I #
vertex $-1 $812 $1041 #
straight-curve $-1 0 2.0434037171780437 -92.366100039674066 1 0 0 I I #
point $-1 184.73220007934813 2.0434037171780437 -92.366100039674066 #
point $-1 184.73220007934813 -2.0434037171780437 -92.366100039674066 #
straight-curve $-1 -184.73220007934813 0 92.366100039674066 0 -1 0 I I #
point $-1 -184.73220007934813 2.0434037171780437 92.366100039674066 #
point $-1 -184.73220007934813 -2.0434037171780437 92.366100039674066 #
straight-curve $-1 184.73220007934813 -2.0434037171780437 0 0 0 -1 I I #
straight-curve $-1 184.73220007934813 2.0434037171780437 0 0 0 -1 I I #
edge $-1 $1042 1 $1042 0 $829 $-1 forward 7 unknown #
point $-1 0.25 0 -0.125 #
edge $-1 $1043 1 $1043 0 $833 $-1 forward 7 unknown #
point $-1 0.25 0 -0.125 #
straight-curve $-1 -46.183050019837033 18.62459363298839 0 0 0 -1 I I #
point $-1 -46.183050019837033 -18.62459363298839 -6.6244144705046688 #
straight-curve $-1 -46.183050019837033 0 -6.6244144705046688 0 1 0 I I #
point $-1 -46.183050019837033 18.62459363298839 -6.6244144705046688 #
straight-curve $-1 -46.183050019837033 2.7301191856885705 0 0 0 -1 I I #
point $-1 -46.183050019837033 -2.7301191856885705 -1.7718949133804793 #
straight-curve $-1 -46.183050019837033 0 -1.7718949133804793 0 1 0 I I #
point $-1 -46.183050019837033 2.7301191856885705 -1.7718949133804793 #
straight-curve $-1 -46.183050019837033 4.3693782275622297 0 0 0 -1 I I #
point $-1 -46.183050019837033 -4.3693782275622297 -1.5 #
straight-curve $-1 -46.183050019837033 0 -1.5 0 1 0 I I #
point $-1 -46.183050019837033 4.3693782275622297 -1.5 #
straight-curve $-1 -184.73220007934813 2.5108671976125265 0 0 0 -1 I I #
point $-1 -184.73220007934813 -2.5108671976125265 -92.366100039674066 #
straight-curve $-1 -184.73220007934813 0 -92.366100039674066 0 1 0 I I #
point $-1 -184.73220007934813 2.5108671976125265 -92.366100039674066 #
vertex $-1 $901 $1044 #
straight-curve $-1 -184.73220007934813 2.5108671976125265 0 0 0 -1 I I #
point $-1 -184.73220007934813 -2.5108671976125265 -92.366100039674066 #
straight-curve $-1 -184.73220007934813 0 -92.366100039674066 0 1 0 I I #
point $-1 -184.73220007934813 2.5108671976125265 -92.366100039674066 #
vertex $-1 $919 $1045 #
straight-curve $-1 -184.73220007934813 2.5108671976125265 0 0 0 -1 I I #
point $-1 -184.73220007934813 -2.5108671976125265 -92.366100039674066 #
straight-curve $-1 -184.73220007934813 0 -92.366100039674066 0 1 0 I I #
point $-1 -184.73220007934813 2.5108671976125265 -92.366100039674066 #
vertex $-1 $937 $1046 #
straight-curve $-1 -184.73220007934813 2.0434037171780437 0 0 0 -1 I I #
point $-1 -184.73220007934813 -2.0434037171780437 -92.366100039674066 #
straight-curve $-1 -184.73220007934813 0 -92.366100039674066 0 1 0 I I #
point $-1 -184.73220007934813 2.0434037171780437 -92.366100039674066 #
vertex $-1 $955 $1047 #
vertex $-1 $957 $1048 #
straight-curve $-1 -184.73220007934813 2.0434037171780437 0 0 0 -1 I I #
point $-1 -184.73220007934813 -2.0434037171780437 -92.366100039674066 #
straight-curve $-1 -184.73220007934813 0 -92.366100039674066 0 1 0 I I #
point $-1 -184.73220007934813 2.0434037171780437 -92.366100039674066 #
vertex $-1 $975 $1049 #
vertex $-1 $977 $1050 #
straight-curve $-1 -184.73220007934813 2.0434037171780437 0 0 0 -1 I I #
point $-1 -184.73220007934813 -2.0434037171780437 -92.366100039674066 #
straight-curve $-1 -184.73220007934813 0 -92.366100039674066 0 1 0 I I #
point $-1 -184.73220007934813 2.0434037171780437 -92.366100039674066 #
vertex $-1 $995 $1051 #
vertex $-1 $997 $1052 #
point $-1 0 0 0.5 #
point $-1 0 0 0.5 #
point $-1 0 0 0.5 #
point $-1 0 0 0.125 #
point $-1 0 0 0.125 #
point $-1 0 0 0.125 #
point $-1 0 0 0.125 #
point $-1 0 0 0.125 #
point $-1 0 0 0.125 #
End-of-ACIS-data 