500 0 18 0           
7 Unknown 11 ACIS 5.0 NT 24 Fri Mar 26 16:28:14 1999 
-1 9.9999999999999995e-007 1e-010 
body $-1 $18 $-1 $19 #
body $-1 $20 $-1 $21 #
body $-1 $22 $-1 $23 #
body $-1 $24 $-1 $25 #
body $-1 $26 $-1 $27 #
body $-1 $28 $-1 $29 #
body $-1 $30 $-1 $31 #
body $-1 $32 $-1 $33 #
body $-1 $34 $-1 $35 #
body $-1 $36 $-1 $37 #
body $-1 $38 $-1 $39 #
body $-1 $40 $-1 $41 #
body $-1 $42 $-1 $43 #
body $-1 $44 $-1 $45 #
body $-1 $46 $-1 $47 #
body $-1 $48 $-1 $49 #
body $-1 $50 $-1 $51 #
body $-1 $52 $-1 $53 #
lump $-1 $-1 $54 $0 #
transform $-1 1 0 0 0 1 0 0 0 1 54.379100924710841 28.509737686868114 13.019971822071957 1 rotate no_reflect no_shear #
lump $-1 $-1 $55 $1 #
transform $-1 1 0 0 0 1 0 0 0 1 54.379100924710841 28.509737686868114 13.019971822071957 1 rotate no_reflect no_shear #
lump $-1 $-1 $56 $2 #
transform $-1 1 0 0 0 1 0 0 0 1 54.379100924710841 28.509737686868114 13.019971822071957 1 rotate no_reflect no_shear #
lump $-1 $-1 $57 $3 #
transform $-1 1 0 0 0 1 0 0 0 1 54.379100924710841 28.509737686868114 13.019971822071957 1 rotate no_reflect no_shear #
lump $-1 $-1 $58 $4 #
transform $-1 1 0 0 0 1 0 0 0 1 54.379100924710841 28.509737686868114 13.019971822071957 1 rotate no_reflect no_shear #
lump $-1 $-1 $59 $5 #
transform $-1 1 0 0 0 1 0 0 0 1 54.379100924710841 28.509737686868114 13.019971822071957 1 rotate no_reflect no_shear #
lump $-1 $-1 $60 $6 #
transform $-1 1 0 0 0 1 0 0 0 1 54.379100924710841 28.509737686868114 13.019971822071957 1 rotate no_reflect no_shear #
lump $-1 $-1 $61 $7 #
transform $-1 1 0 0 0 1 0 0 0 1 54.379100924710841 28.509737686868114 13.019971822071957 1 rotate no_reflect no_shear #
lump $-1 $-1 $62 $8 #
transform $-1 1 0 0 0 1 0 0 0 1 54.379100924710841 28.509737686868114 13.019971822071957 1 rotate no_reflect no_shear #
lump $-1 $-1 $63 $9 #
transform $-1 1 0 0 0 1 0 0 0 1 54.379100924710841 28.509737686868114 13.019971822071957 1 rotate no_reflect no_shear #
lump $-1 $-1 $64 $10 #
transform $-1 1 0 0 0 1 0 0 0 1 54.379100924710841 28.509737686868114 13.019971822071957 1 rotate no_reflect no_shear #
lump $-1 $-1 $65 $11 #
transform $-1 1 0 0 0 1 0 0 0 1 54.379100924710841 28.509737686868114 13.019971822071957 1 rotate no_reflect no_shear #
lump $-1 $-1 $66 $12 #
transform $-1 1 0 0 0 1 0 0 0 1 54.379100924710841 28.509737686868114 13.019971822071957 1 rotate no_reflect no_shear #
lump $-1 $-1 $67 $13 #
transform $-1 1 0 0 0 1 0 0 0 1 54.379100924710841 28.509737686868114 13.019971822071957 1 rotate no_reflect no_shear #
lump $-1 $-1 $68 $14 #
transform $-1 1 0 0 0 1 0 0 0 1 54.379100924710841 28.509737686868114 13.019971822071957 1 rotate no_reflect no_shear #
lump $-1 $-1 $69 $15 #
transform $-1 1 0 0 0 1 0 0 0 1 54.379100924710841 28.509737686868114 13.019971822071957 1 rotate no_reflect no_shear #
lump $-1 $-1 $70 $16 #
transform $-1 1 0 0 0 1 0 0 0 1 54.379100924710841 28.509737686868114 13.019971822071957 1 rotate no_reflect no_shear #
lump $-1 $-1 $71 $17 #
transform $-1 1 0 0 0 1 0 0 0 1 54.379100924710841 28.509737686868114 13.019971822071957 1 rotate no_reflect no_shear #
shell $-1 $-1 $-1 $72 $-1 $18 #
shell $-1 $-1 $-1 $73 $-1 $20 #
shell $-1 $-1 $-1 $74 $-1 $22 #
shell $-1 $-1 $-1 $75 $-1 $24 #
shell $-1 $-1 $-1 $76 $-1 $26 #
shell $-1 $-1 $-1 $77 $-1 $28 #
shell $-1 $-1 $-1 $78 $-1 $30 #
shell $-1 $-1 $-1 $79 $-1 $32 #
shell $-1 $-1 $-1 $80 $-1 $34 #
shell $-1 $-1 $-1 $81 $-1 $36 #
shell $-1 $-1 $-1 $82 $-1 $38 #
shell $-1 $-1 $-1 $83 $-1 $40 #
shell $-1 $-1 $-1 $84 $-1 $42 #
shell $-1 $-1 $-1 $85 $-1 $44 #
shell $-1 $-1 $-1 $86 $-1 $46 #
shell $-1 $-1 $-1 $87 $-1 $48 #
shell $-1 $-1 $-1 $88 $-1 $50 #
shell $-1 $-1 $-1 $89 $-1 $52 #
face $-1 $90 $91 $54 $-1 $92 forward single #
face $-1 $93 $94 $55 $-1 $95 forward single #
face $-1 $96 $97 $56 $-1 $98 reversed single #
face $-1 $99 $100 $57 $-1 $101 forward single #
face $-1 $102 $103 $58 $-1 $104 forward single #
face $-1 $105 $106 $59 $-1 $107 forward single #
face $-1 $108 $109 $60 $-1 $110 reversed single #
face $-1 $111 $112 $61 $-1 $113 forward single #
face $-1 $114 $115 $62 $-1 $116 forward single #
face $-1 $117 $118 $63 $-1 $119 forward single #
face $-1 $120 $121 $64 $-1 $122 reversed single #
face $-1 $123 $124 $65 $-1 $125 forward single #
face $-1 $126 $127 $66 $-1 $128 forward single #
face $-1 $129 $130 $67 $-1 $131 forward single #
face $-1 $132 $133 $68 $-1 $134 reversed single #
face $-1 $135 $136 $69 $-1 $137 forward single #
face $-1 $138 $139 $70 $-1 $140 forward single #
face $-1 $141 $142 $71 $-1 $143 forward single #
face $-1 $144 $145 $54 $-1 $146 reversed single #
loop $-1 $-1 $147 $72 #
plane-surface $-1 0 0 13.019971822071957 0 0 1 1 0 0 forward_v I I I I #
face $-1 $148 $149 $55 $-1 $150 reversed single #
loop $-1 $-1 $151 $73 #
plane-surface $-1 0 -23.401348742484675 5.9670543587510636 0 0 1 1 0 0 forward_v I I I I #
face $-1 $152 $153 $56 $-1 $154 reversed single #
loop $-1 $-1 $155 $74 #
plane-surface $-1 -145.59140470902418 -7.2130320974907116 64.171932046289186 0 -1 0 0.83867057594974714 0 -0.54463902268945019 forward_v I I I I #
face $-1 $156 $157 $57 $-1 $158 forward single #
loop $-1 $159 $160 $75 #
cone-surface $-1 -51.150540969327594 -16.076974257979131 8.5865321009818185 0.83867057594974714 0 -0.54463902268945019 0.2723195113447251 0 0.41933528797487357 1 I I 0 1 0.5 forward I I I I #
face $-1 $161 $162 $58 $-1 $163 forward single #
loop $-1 $164 $165 $76 #
cone-surface $-1 -51.150540969327594 -12.752995947795975 8.5865321009818185 0.83867057594974714 0 -0.54463902268945019 0.2723195113447251 0 0.41933528797487357 1 I I 0 1 0.5 forward I I I I #
face $-1 $166 $167 $59 $-1 $168 forward single #
loop $-1 $169 $170 $77 #
cone-surface $-1 -51.150540969327594 -9.4290176376128194 8.5865321009818185 0.83867057594974714 0 -0.54463902268945019 0.2723195113447251 0 0.41933528797487357 1 I I 0 1 0.5 forward I I I I #
face $-1 $171 $172 $60 $-1 $173 reversed single #
loop $-1 $-1 $174 $78 #
plane-surface $-1 -54.379100924710841 22.969773836562858 4.9379712815582053 -0.83867057594974714 0 0.54463902268945019 0.54463902268945019 0 0.83867057594974714 forward_v I I I I #
face $-1 $175 $176 $61 $-1 $177 forward single #
loop $-1 $178 $179 $79 #
cone-surface $-1 -51.150540969327594 19.6457955263797 8.5865321009818185 0.83867057594974714 0 -0.54463902268945019 0.2723195113447251 0 0.41933528797487357 1 I I 0 1 0.5 forward I I I I #
face $-1 $180 $181 $62 $-1 $182 forward single #
loop $-1 $183 $184 $80 #
cone-surface $-1 -51.150540969327594 22.969773836562858 8.5865321009818185 0.83867057594974714 0 -0.54463902268945019 0.2723195113447251 0 0.41933528797487357 1 I I 0 1 0.5 forward I I I I #
face $-1 $185 $186 $63 $-1 $187 forward single #
loop $-1 $188 $189 $81 #
cone-surface $-1 -51.150540969327594 26.293752146746009 8.5865321009818185 0.83867057594974714 0 -0.54463902268945019 0.2723195113447251 0 0.41933528797487357 1 I I 0 1 0.5 forward I I I I #
face $-1 $190 $191 $64 $-1 $192 reversed single #
loop $-1 $-1 $193 $82 #
plane-surface $-1 -4.8548598400201399 -12.752995947795974 96.150275065871526 0.83867057594974714 0 0.54463902268945019 0.54463902268945019 0 -0.83867057594974714 forward_v I I I I #
face $-1 $194 $195 $65 $-1 $196 forward single #
loop $-1 $197 $198 $83 #
cone-surface $-1 51.150540969327601 -16.076974257979131 8.5865321009818043 -0.83867057594974714 0 -0.54463902268945019 0.2723195113447251 0 -0.41933528797487357 1 I I 0 1 0.5 forward I I I I #
face $-1 $199 $200 $66 $-1 $201 forward single #
loop $-1 $202 $203 $84 #
cone-surface $-1 51.150540969327601 -12.752995947795975 8.5865321009818043 -0.83867057594974714 0 -0.54463902268945019 0.2723195113447251 0 -0.41933528797487357 1 I I 0 1 0.5 forward I I I I #
face $-1 $204 $205 $67 $-1 $206 forward single #
loop $-1 $207 $208 $85 #
cone-surface $-1 51.150540969327601 -9.4290176376128194 8.5865321009818043 -0.83867057594974714 0 -0.54463902268945019 0.2723195113447251 0 -0.41933528797487357 1 I I 0 1 0.5 forward I I I I #
face $-1 $209 $210 $68 $-1 $211 reversed single #
loop $-1 $-1 $212 $86 #
plane-surface $-1 86.357443944293195 17.429809986257595 155.38423583060251 0 1 0 0.83867057594974714 0 0.54463902268945019 forward_v I I I I #
face $-1 $213 $214 $69 $-1 $215 forward single #
loop $-1 $216 $217 $87 #
cone-surface $-1 51.150540969327601 19.6457955263797 8.5865321009818043 -0.83867057594974714 0 -0.54463902268945019 0.2723195113447251 0 -0.41933528797487357 1 I I 0 1 0.5 forward I I I I #
face $-1 $218 $219 $70 $-1 $220 forward single #
loop $-1 $221 $222 $88 #
cone-surface $-1 51.150540969327601 22.969773836562858 8.5865321009818043 -0.83867057594974714 0 -0.54463902268945019 0.2723195113447251 0 -0.41933528797487357 1 I I 0 1 0.5 forward I I I I #
face $-1 $223 $224 $71 $-1 $225 forward single #
loop $-1 $226 $227 $89 #
cone-surface $-1 51.150540969327601 26.293752146746009 8.5865321009818043 -0.83867057594974714 0 -0.54463902268945019 0.2723195113447251 0 -0.41933528797487357 1 I I 0 1 0.5 forward I I I I #
face $-1 $228 $229 $54 $-1 $230 reversed single #
loop $-1 $-1 $231 $90 #
plane-surface $-1 0 0 -13.019971822071957 0 0 1 1 0 0 forward_v I I I I #
coedge $-1 $232 $233 $234 $235 forward $91 $-1 #
face $-1 $236 $237 $55 $-1 $238 reversed single #
loop $-1 $-1 $239 $93 #
plane-surface $-1 0 -23.401348742484675 1.0285484904139075 0 0 1 1 0 0 forward_v I I I I #
coedge $-1 $240 $241 $242 $243 reversed $94 $-1 #
face $-1 $244 $245 $56 $-1 $246 forward single #
loop $-1 $-1 $247 $96 #
plane-surface $-1 -54.379100924710841 -12.752995947795974 4.9379712815582053 -0.83867057594974714 0 0.54463902268945019 0.54463902268945019 0 0.83867057594974714 forward_v I I I I #
coedge $-1 $248 $249 $250 $251 reversed $97 $-1 #
face $-1 $-1 $252 $57 $-1 $253 forward single #
loop $-1 $254 $255 $99 #
cone-surface $-1 -50.33656954514003 -16.076974257979131 8.0579328944761901 0.83867057594974714 0 -0.54463902268945019 0.13615975567236255 0 0.20966764398743679 1 I I -0.70710678118654746 0.70710678118654746 0.25 forward I I I I #
loop $-1 $-1 $256 $75 #
coedge $-1 $160 $160 $257 $258 reversed $100 $-1 #
face $-1 $-1 $259 $58 $-1 $260 forward single #
loop $-1 $261 $262 $102 #
cone-surface $-1 -50.33656954514003 -12.752995947795975 8.0579328944761901 0.83867057594974714 0 -0.54463902268945019 0.13615975567236255 0 0.20966764398743679 1 I I -0.70710678118654746 0.70710678118654746 0.25 forward I I I I #
loop $-1 $-1 $263 $76 #
coedge $-1 $165 $165 $264 $265 reversed $103 $-1 #
face $-1 $-1 $266 $59 $-1 $267 forward single #
loop $-1 $268 $269 $105 #
cone-surface $-1 -50.33656954514003 -9.4290176376128194 8.0579328944761901 0.83867057594974714 0 -0.54463902268945019 0.13615975567236255 0 0.20966764398743679 1 I I -0.70710678118654746 0.70710678118654746 0.25 forward I I I I #
loop $-1 $-1 $270 $77 #
coedge $-1 $170 $170 $271 $272 reversed $106 $-1 #
face $-1 $273 $274 $60 $-1 $275 reversed single #
loop $-1 $-1 $276 $108 #
plane-surface $-1 -145.59140470902418 17.429809986257595 64.171932046289186 0 1 0 -0.83867057594974714 0 0.54463902268945019 forward_v I I I I #
coedge $-1 $277 $278 $279 $280 reversed $109 $-1 #
face $-1 $-1 $281 $61 $-1 $282 forward single #
loop $-1 $283 $284 $111 #
cone-surface $-1 -50.33656954514003 19.6457955263797 8.0579328944761901 0.83867057594974714 0 -0.54463902268945019 0.13615975567236255 0 0.20966764398743679 1 I I -0.70710678118654746 0.70710678118654746 0.25 forward I I I I #
loop $-1 $-1 $285 $79 #
coedge $-1 $179 $179 $286 $287 reversed $112 $-1 #
face $-1 $-1 $288 $62 $-1 $289 forward single #
loop $-1 $290 $291 $114 #
cone-surface $-1 -50.33656954514003 22.969773836562858 8.0579328944761901 0.83867057594974714 0 -0.54463902268945019 0.13615975567236255 0 0.20966764398743679 1 I I -0.70710678118654746 0.70710678118654746 0.25 forward I I I I #
loop $-1 $-1 $292 $80 #
coedge $-1 $184 $184 $293 $294 reversed $115 $-1 #
face $-1 $-1 $295 $63 $-1 $296 forward single #
loop $-1 $297 $298 $117 #
cone-surface $-1 -50.33656954514003 26.293752146746009 8.0579328944761901 0.83867057594974714 0 -0.54463902268945019 0.13615975567236255 0 0.20966764398743679 1 I I -0.70710678118654746 0.70710678118654746 0.25 forward I I I I #
loop $-1 $-1 $299 $81 #
coedge $-1 $189 $189 $300 $301 reversed $118 $-1 #
face $-1 $302 $303 $64 $-1 $304 forward single #
loop $-1 $-1 $305 $120 #
plane-surface $-1 86.357443944293195 -7.2130320974907116 155.38423583060251 0 -1 0 -0.83867057594974714 0 -0.54463902268945019 forward_v I I I I #
coedge $-1 $306 $307 $308 $309 reversed $121 $-1 #
face $-1 $-1 $310 $65 $-1 $311 forward single #
loop $-1 $312 $313 $123 #
cone-surface $-1 50.336569545140037 -16.076974257979131 8.0579328944761759 -0.83867057594974714 0 -0.54463902268945019 0.13615975567236255 0 -0.20966764398743679 1 I I -0.70710678118654746 0.70710678118654746 0.25 forward I I I I #
loop $-1 $-1 $314 $83 #
coedge $-1 $198 $198 $315 $316 reversed $124 $-1 #
face $-1 $-1 $317 $66 $-1 $318 forward single #
loop $-1 $319 $320 $126 #
cone-surface $-1 50.336569545140037 -12.752995947795975 8.0579328944761759 -0.83867057594974714 0 -0.54463902268945019 0.13615975567236255 0 -0.20966764398743679 1 I I -0.70710678118654746 0.70710678118654746 0.25 forward I I I I #
loop $-1 $-1 $321 $84 #
coedge $-1 $203 $203 $322 $323 reversed $127 $-1 #
face $-1 $-1 $324 $67 $-1 $325 forward single #
loop $-1 $326 $327 $129 #
cone-surface $-1 50.336569545140037 -9.4290176376128194 8.0579328944761759 -0.83867057594974714 0 -0.54463902268945019 0.13615975567236255 0 -0.20966764398743679 1 I I -0.70710678118654746 0.70710678118654746 0.25 forward I I I I #
loop $-1 $-1 $328 $85 #
coedge $-1 $208 $208 $329 $330 reversed $130 $-1 #
face $-1 $331 $332 $68 $-1 $333 forward single #
loop $-1 $-1 $334 $132 #
plane-surface $-1 -4.8548598400201399 22.969773836562858 96.150275065871526 0.83867057594974714 0 0.54463902268945019 0.54463902268945019 0 -0.83867057594974714 forward_v I I I I #
coedge $-1 $335 $336 $337 $338 reversed $133 $-1 #
face $-1 $-1 $339 $69 $-1 $340 forward single #
loop $-1 $341 $342 $135 #
cone-surface $-1 50.336569545140037 19.6457955263797 8.0579328944761759 -0.83867057594974714 0 -0.54463902268945019 0.13615975567236255 0 -0.20966764398743679 1 I I -0.70710678118654746 0.70710678118654746 0.25 forward I I I I #
loop $-1 $-1 $343 $87 #
coedge $-1 $217 $217 $344 $345 reversed $136 $-1 #
face $-1 $-1 $346 $70 $-1 $347 forward single #
loop $-1 $348 $349 $138 #
cone-surface $-1 50.336569545140037 22.969773836562858 8.0579328944761759 -0.83867057594974714 0 -0.54463902268945019 0.13615975567236255 0 -0.20966764398743679 1 I I -0.70710678118654746 0.70710678118654746 0.25 forward I I I I #
loop $-1 $-1 $350 $88 #
coedge $-1 $222 $222 $351 $352 reversed $139 $-1 #
face $-1 $-1 $353 $71 $-1 $354 forward single #
loop $-1 $355 $356 $141 #
cone-surface $-1 50.336569545140037 26.293752146746009 8.0579328944761759 -0.83867057594974714 0 -0.54463902268945019 0.13615975567236255 0 -0.20966764398743679 1 I I -0.70710678118654746 0.70710678118654746 0.25 forward I I I I #
loop $-1 $-1 $357 $89 #
coedge $-1 $227 $227 $358 $359 reversed $142 $-1 #
face $-1 $360 $361 $54 $-1 $362 reversed single #
loop $-1 $-1 $363 $144 #
plane-surface $-1 0 -28.509737686868114 0 0 1 0 0 0 1 forward_v I I I I #
coedge $-1 $364 $365 $366 $367 forward $145 $-1 #
coedge $-1 $368 $147 $369 $370 forward $91 $-1 #
coedge $-1 $147 $368 $371 $372 forward $91 $-1 #
coedge $-1 $373 $374 $147 $235 reversed $375 $-1 #
edge $-1 $376 -28.509737686868114 $377 28.509737686868114 $234 $378 forward 7 unknown #
face $-1 $379 $380 $55 $-1 $381 reversed single #
loop $-1 $-1 $382 $148 #
plane-surface $-1 0 -18.292959798101236 3.4978014245824856 0 -1 0 0 0 -1 forward_v I I I I #
coedge $-1 $383 $384 $385 $386 reversed $149 $-1 #
coedge $-1 $387 $151 $388 $389 forward $94 $-1 #
coedge $-1 $151 $387 $390 $391 reversed $94 $-1 #
coedge $-1 $392 $393 $151 $243 forward $394 $-1 #
edge $-1 $395 6.5922854268588988 $396 16.809063315625778 $242 $397 forward 7 unknown #
face $-1 $398 $399 $56 $-1 $400 forward single #
loop $-1 $-1 $401 $152 #
plane-surface $-1 0 -18.292959798101236 3.4978014245824856 0 -1 0 0 0 -1 forward_v I I I I #
coedge $-1 $402 $403 $404 $405 reversed $153 $-1 #
coedge $-1 $249 $155 $406 $407 reversed $97 $-1 #
coedge $-1 $155 $248 $402 $408 reversed $97 $-1 #
coedge $-1 $404 $409 $155 $251 forward $410 $-1 #
edge $-1 $411 19.065994201072634 $412 27.147994741586388 $250 $413 forward 7 unknown #
loop $-1 $-1 $257 $156 #
plane-surface $-1 -54.379100924710841 -12.752995947795974 4.9379712815582053 -0.83867057594974714 0 0.54463902268945019 0.54463902268945019 0 0.83867057594974714 forward_v I I I I #
loop $-1 $-1 $414 $99 #
coedge $-1 $255 $255 $256 $415 reversed $157 $-1 #
coedge $-1 $256 $256 $255 $415 forward $159 $-1 #
coedge $-1 $257 $257 $160 $258 forward $252 $-1 #
edge $-1 $416 0 $416 6.2831853071796004 $257 $417 forward 7 unknown #
loop $-1 $-1 $264 $161 #
plane-surface $-1 -54.379100924710841 -12.752995947795974 4.9379712815582053 -0.83867057594974714 0 0.54463902268945019 0.54463902268945019 0 0.83867057594974714 forward_v I I I I #
loop $-1 $-1 $418 $102 #
coedge $-1 $262 $262 $263 $419 reversed $162 $-1 #
coedge $-1 $263 $263 $262 $419 forward $164 $-1 #
coedge $-1 $264 $264 $165 $265 forward $259 $-1 #
edge $-1 $420 0 $420 6.2831853071796004 $264 $421 forward 7 unknown #
loop $-1 $-1 $271 $166 #
plane-surface $-1 -54.379100924710841 -12.752995947795974 4.9379712815582053 -0.83867057594974714 0 0.54463902268945019 0.54463902268945019 0 0.83867057594974714 forward_v I I I I #
loop $-1 $-1 $422 $105 #
coedge $-1 $269 $269 $270 $423 reversed $167 $-1 #
coedge $-1 $270 $270 $269 $423 forward $169 $-1 #
coedge $-1 $271 $271 $170 $272 forward $266 $-1 #
edge $-1 $424 0 $424 6.2831853071796004 $271 $425 forward 7 unknown #
face $-1 $426 $427 $60 $-1 $428 forward single #
loop $-1 $-1 $279 $171 #
plane-surface $-1 -54.379100924710841 0 0 1 0 0 0 0 -1 forward_v I I I I #
coedge $-1 $429 $430 $431 $432 reversed $172 $-1 #
coedge $-1 $433 $174 $434 $435 reversed $109 $-1 #
coedge $-1 $174 $433 $429 $436 forward $109 $-1 #
coedge $-1 $431 $437 $174 $280 forward $274 $-1 #
edge $-1 $438 -17.024850768586692 $439 -5.9449230679761662 $279 $440 forward 7 unknown #
loop $-1 $-1 $286 $175 #
plane-surface $-1 -54.379100924710841 22.969773836562858 4.9379712815582053 -0.83867057594974714 0 0.54463902268945019 0.54463902268945019 0 0.83867057594974714 forward_v I I I I #
loop $-1 $-1 $441 $111 #
coedge $-1 $284 $284 $285 $442 reversed $176 $-1 #
coedge $-1 $285 $285 $284 $442 forward $178 $-1 #
coedge $-1 $286 $286 $179 $287 forward $281 $-1 #
edge $-1 $443 0 $443 6.2831853071796004 $286 $444 forward 7 unknown #
loop $-1 $-1 $293 $180 #
plane-surface $-1 -54.379100924710841 22.969773836562858 4.9379712815582053 -0.83867057594974714 0 0.54463902268945019 0.54463902268945019 0 0.83867057594974714 forward_v I I I I #
loop $-1 $-1 $445 $114 #
coedge $-1 $291 $291 $292 $446 reversed $181 $-1 #
coedge $-1 $292 $292 $291 $446 forward $183 $-1 #
coedge $-1 $293 $293 $184 $294 forward $288 $-1 #
edge $-1 $447 0 $447 6.2831853071796004 $293 $448 forward 7 unknown #
loop $-1 $-1 $300 $185 #
plane-surface $-1 -54.379100924710841 22.969773836562858 4.9379712815582053 -0.83867057594974714 0 0.54463902268945019 0.54463902268945019 0 0.83867057594974714 forward_v I I I I #
loop $-1 $-1 $449 $117 #
coedge $-1 $298 $298 $299 $450 reversed $186 $-1 #
coedge $-1 $299 $299 $298 $450 forward $188 $-1 #
coedge $-1 $300 $300 $189 $301 forward $295 $-1 #
edge $-1 $451 0 $451 6.2831853071796004 $300 $452 forward 7 unknown #
face $-1 $453 $454 $64 $-1 $455 forward single #
loop $-1 $-1 $456 $190 #
plane-surface $-1 0 0 13.019971822071957 0 0 1 1 0 0 forward_v I I I I #
coedge $-1 $457 $458 $459 $460 reversed $191 $-1 #
coedge $-1 $461 $193 $462 $463 reversed $121 $-1 #
coedge $-1 $193 $461 $457 $464 forward $121 $-1 #
coedge $-1 $459 $465 $193 $309 forward $466 $-1 #
edge $-1 $467 -11.91646182420325 $468 -0.83653412359272483 $308 $469 forward 7 unknown #
loop $-1 $-1 $315 $194 #
plane-surface $-1 -4.8548598400201399 -12.752995947795974 96.150275065871526 0.83867057594974714 0 0.54463902268945019 0.54463902268945019 0 -0.83867057594974714 forward_v I I I I #
loop $-1 $-1 $470 $123 #
coedge $-1 $313 $313 $314 $471 reversed $195 $-1 #
coedge $-1 $314 $314 $313 $471 forward $197 $-1 #
coedge $-1 $315 $315 $198 $316 forward $310 $-1 #
edge $-1 $472 0 $472 6.2831853071796004 $315 $473 forward 7 unknown #
loop $-1 $-1 $322 $199 #
plane-surface $-1 -4.8548598400201399 -12.752995947795974 96.150275065871526 0.83867057594974714 0 0.54463902268945019 0.54463902268945019 0 -0.83867057594974714 forward_v I I I I #
loop $-1 $-1 $474 $126 #
coedge $-1 $320 $320 $321 $475 reversed $200 $-1 #
coedge $-1 $321 $321 $320 $475 forward $202 $-1 #
coedge $-1 $322 $322 $203 $323 forward $317 $-1 #
edge $-1 $476 0 $476 6.2831853071796004 $322 $477 forward 7 unknown #
loop $-1 $-1 $329 $204 #
plane-surface $-1 -4.8548598400201399 -12.752995947795974 96.150275065871526 0.83867057594974714 0 0.54463902268945019 0.54463902268945019 0 -0.83867057594974714 forward_v I I I I #
loop $-1 $-1 $478 $129 #
coedge $-1 $327 $327 $328 $479 reversed $205 $-1 #
coedge $-1 $328 $328 $327 $479 forward $207 $-1 #
coedge $-1 $329 $329 $208 $330 forward $324 $-1 #
edge $-1 $480 0 $480 6.2831853071796004 $329 $481 forward 7 unknown #
face $-1 $482 $483 $68 $-1 $484 reversed single #
loop $-1 $-1 $485 $209 #
plane-surface $-1 0 0 13.019971822071957 0 0 1 1 0 0 forward_v I I I I #
coedge $-1 $486 $487 $488 $489 reversed $210 $-1 #
coedge $-1 $336 $212 $490 $491 reversed $133 $-1 #
coedge $-1 $212 $335 $486 $492 reversed $133 $-1 #
coedge $-1 $488 $493 $212 $338 forward $483 $-1 #
edge $-1 $494 64.672146093229301 $495 72.754146633743062 $337 $496 forward 7 unknown #
loop $-1 $-1 $344 $213 #
plane-surface $-1 -4.8548598400201399 22.969773836562858 96.150275065871526 0.83867057594974714 0 0.54463902268945019 0.54463902268945019 0 -0.83867057594974714 forward_v I I I I #
loop $-1 $-1 $497 $135 #
coedge $-1 $342 $342 $343 $498 reversed $214 $-1 #
coedge $-1 $343 $343 $342 $498 forward $216 $-1 #
coedge $-1 $344 $344 $217 $345 forward $339 $-1 #
edge $-1 $499 0 $499 6.2831853071796004 $344 $500 forward 7 unknown #
loop $-1 $-1 $351 $218 #
plane-surface $-1 -4.8548598400201399 22.969773836562858 96.150275065871526 0.83867057594974714 0 0.54463902268945019 0.54463902268945019 0 -0.83867057594974714 forward_v I I I I #
loop $-1 $-1 $501 $138 #
coedge $-1 $349 $349 $350 $502 reversed $219 $-1 #
coedge $-1 $350 $350 $349 $502 forward $221 $-1 #
coedge $-1 $351 $351 $222 $352 forward $346 $-1 #
edge $-1 $503 0 $503 6.2831853071796004 $351 $504 forward 7 unknown #
loop $-1 $-1 $358 $223 #
plane-surface $-1 -4.8548598400201399 22.969773836562858 96.150275065871526 0.83867057594974714 0 0.54463902268945019 0.54463902268945019 0 -0.83867057594974714 forward_v I I I I #
loop $-1 $-1 $505 $141 #
coedge $-1 $356 $356 $357 $506 reversed $224 $-1 #
coedge $-1 $357 $357 $356 $506 forward $226 $-1 #
coedge $-1 $358 $358 $227 $359 forward $353 $-1 #
edge $-1 $507 0 $507 6.2831853071796004 $358 $508 forward 7 unknown #
face $-1 $509 $510 $54 $-1 $511 reversed single #
loop $-1 $-1 $512 $228 #
plane-surface $-1 -54.379100924710841 0 0 1 0 0 0 0 -1 forward_v I I I I #
coedge $-1 $513 $371 $514 $515 forward $229 $-1 #
coedge $-1 $516 $231 $513 $517 forward $145 $-1 #
coedge $-1 $231 $516 $518 $519 forward $145 $-1 #
coedge $-1 $374 $373 $231 $367 reversed $375 $-1 #
edge $-1 $520 -28.509737686868114 $521 28.509737686868114 $366 $522 forward 7 unknown #
coedge $-1 $233 $232 $523 $524 forward $91 $-1 #
coedge $-1 $525 $526 $232 $370 reversed $510 $-1 #
edge $-1 $377 -54.379100924710841 $527 54.379100924710841 $369 $528 forward 7 unknown #
coedge $-1 $363 $529 $233 $372 reversed $229 $-1 #
edge $-1 $530 -54.379100924710841 $376 54.379100924710841 $371 $531 forward 7 unknown #
coedge $-1 $366 $234 $529 $532 forward $375 $-1 #
coedge $-1 $234 $366 $525 $533 reversed $375 $-1 #
loop $-1 $-1 $373 $509 #
vertex $-1 $235 $534 #
vertex $-1 $235 $535 #
straight-curve $-1 54.379100924710841 0 13.019971822071957 0 1 0 I I #
face $-1 $536 $537 $55 $-1 $538 reversed single #
loop $-1 $-1 $539 $236 #
plane-surface $-1 -54.379100924710841 0 0 1 0 0 0 0 -1 forward_v I I I I #
coedge $-1 $540 $388 $393 $541 reversed $237 $-1 #
coedge $-1 $542 $239 $543 $544 reversed $149 $-1 #
coedge $-1 $239 $542 $540 $545 forward $149 $-1 #
coedge $-1 $393 $392 $239 $386 forward $394 $-1 #
edge $-1 $546 -16.809063315625778 $547 -6.5922854268588988 $385 $548 forward 7 unknown #
coedge $-1 $241 $240 $539 $549 reversed $94 $-1 #
coedge $-1 $382 $550 $240 $389 reversed $237 $-1 #
edge $-1 $395 -54.379100924710841 $551 54.379100924710841 $388 $552 forward 7 unknown #
coedge $-1 $553 $554 $241 $391 forward $537 $-1 #
edge $-1 $396 -54.379100924710841 $555 54.379100924710841 $390 $556 forward 7 unknown #
coedge $-1 $385 $242 $554 $557 forward $394 $-1 #
coedge $-1 $242 $385 $382 $541 forward $394 $-1 #
loop $-1 $-1 $242 $536 #
vertex $-1 $243 $558 #
vertex $-1 $557 $559 #
straight-curve $-1 54.379100924710841 -11.700674371242338 5.9670543587510636 0 -1 0 I I #
face $-1 $-1 $410 $56 $-1 $560 reversed single #
loop $-1 $-1 $406 $244 #
plane-surface $-1 0 0 13.019971822071957 0 0 1 1 0 0 forward_v I I I I #
coedge $-1 $561 $562 $403 $563 reversed $245 $-1 #
coedge $-1 $564 $247 $249 $408 forward $153 $-1 #
coedge $-1 $247 $564 $401 $563 forward $153 $-1 #
coedge $-1 $565 $250 $247 $405 forward $410 $-1 #
edge $-1 $412 0.83653412359272483 $566 11.91646182420325 $404 $567 forward 7 unknown #
coedge $-1 $568 $569 $248 $407 forward $399 $-1 #
edge $-1 $570 -23.665113780167488 $411 -18.416601429801247 $406 $571 forward 7 unknown #
edge $-1 $412 0 $570 9.6366806852158149 $249 $572 forward 7 unknown #
coedge $-1 $250 $565 $568 $573 reversed $410 $-1 #
loop $-1 $-1 $404 $398 #
vertex $-1 $573 $574 #
vertex $-1 $251 $575 #
straight-curve $-1 -54.379100924710841 -7.2130320974907116 32.085966023144593 0 0 -1 I I #
coedge $-1 $414 $414 $-1 $576 reversed $254 $-1 #
edge $-1 $577 0 $577 6.2831853071796004 $255 $578 forward 7 unknown #
vertex $-1 $258 $579 #
ellipse-curve $-1 -51.75484474952772 -16.076974257979131 8.9789715518150821 -0.83867057594974714 0 0.54463902268945019 0.2723195113447251 0 0.41933528797487357 1 I I #
coedge $-1 $418 $418 $-1 $580 reversed $261 $-1 #
edge $-1 $581 0 $581 6.2831853071796004 $262 $582 forward 7 unknown #
vertex $-1 $265 $583 #
ellipse-curve $-1 -51.75484474952772 -12.752995947795975 8.9789715518150821 -0.83867057594974714 0 0.54463902268945019 0.2723195113447251 0 0.41933528797487357 1 I I #
coedge $-1 $422 $422 $-1 $584 reversed $268 $-1 #
edge $-1 $585 0 $585 6.2831853071796004 $269 $586 forward 7 unknown #
vertex $-1 $272 $587 #
ellipse-curve $-1 -51.75484474952772 -9.4290176376128194 8.9789715518150821 -0.83867057594974714 0 0.54463902268945019 0.2723195113447251 0 0.41933528797487357 1 I I #
face $-1 $-1 $588 $60 $-1 $589 reversed single #
loop $-1 $-1 $590 $273 #
plane-surface $-1 0 0 13.019971822071957 0 0 1 1 0 0 forward_v I I I I #
coedge $-1 $430 $276 $278 $436 reversed $172 $-1 #
coedge $-1 $276 $429 $591 $592 reversed $172 $-1 #
coedge $-1 $593 $279 $276 $432 forward $274 $-1 #
edge $-1 $439 -27.147994741586388 $594 -19.065994201072634 $431 $595 forward 7 unknown #
coedge $-1 $278 $277 $590 $596 reversed $109 $-1 #
coedge $-1 $597 $598 $277 $435 forward $588 $-1 #
edge $-1 $599 3.1011438966030647 $438 12.737824581818879 $434 $600 forward 7 unknown #
edge $-1 $601 -9.6366806852158149 $439 0 $429 $602 forward 7 unknown #
coedge $-1 $279 $593 $597 $603 forward $274 $-1 #
vertex $-1 $435 $604 #
vertex $-1 $280 $605 #
straight-curve $-1 -54.379100924710841 11.484886918281429 4.9379712815582089 0 -1 0 I I #
coedge $-1 $441 $441 $-1 $606 reversed $283 $-1 #
edge $-1 $607 0 $607 6.2831853071796004 $284 $608 forward 7 unknown #
vertex $-1 $287 $609 #
ellipse-curve $-1 -51.75484474952772 19.6457955263797 8.9789715518150821 -0.83867057594974714 0 0.54463902268945019 0.2723195113447251 0 0.41933528797487357 1 I I #
coedge $-1 $445 $445 $-1 $610 reversed $290 $-1 #
edge $-1 $611 0 $611 6.2831853071796004 $291 $612 forward 7 unknown #
vertex $-1 $294 $613 #
ellipse-curve $-1 -51.75484474952772 22.969773836562858 8.9789715518150821 -0.83867057594974714 0 0.54463902268945019 0.2723195113447251 0 0.41933528797487357 1 I I #
coedge $-1 $449 $449 $-1 $614 reversed $297 $-1 #
edge $-1 $615 0 $615 6.2831853071796004 $298 $616 forward 7 unknown #
vertex $-1 $301 $617 #
ellipse-curve $-1 -51.75484474952772 26.293752146746009 8.9789715518150821 -0.83867057594974714 0 0.54463902268945019 0.2723195113447251 0 0.41933528797487357 1 I I #
face $-1 $-1 $466 $64 $-1 $618 reversed single #
loop $-1 $-1 $462 $302 #
plane-surface $-1 0 -18.292959798101236 3.4978014245824856 0 -1 0 0 0 -1 forward_v I I I I #
coedge $-1 $619 $620 $458 $621 forward $303 $-1 #
coedge $-1 $458 $305 $307 $464 reversed $191 $-1 #
coedge $-1 $305 $457 $456 $621 reversed $191 $-1 #
coedge $-1 $622 $308 $305 $460 forward $466 $-1 #
edge $-1 $468 -72.754146633743062 $623 -64.672146093229301 $459 $624 forward 7 unknown #
coedge $-1 $307 $306 $619 $625 reversed $121 $-1 #
coedge $-1 $626 $627 $306 $463 forward $454 $-1 #
edge $-1 $628 58.946996388970121 $467 68.583677074185943 $462 $629 forward 7 unknown #
edge $-1 $630 99.121521164205859 $468 108.75820184942168 $457 $631 forward 7 unknown #
coedge $-1 $308 $622 $626 $632 forward $466 $-1 #
loop $-1 $-1 $459 $453 #
vertex $-1 $463 $633 #
vertex $-1 $309 $634 #
straight-curve $-1 54.379100924710841 -6.3764979738979868 4.937971281558184 0 1 0 I I #
coedge $-1 $470 $470 $-1 $635 reversed $312 $-1 #
edge $-1 $636 0 $636 6.2831853071796004 $313 $637 forward 7 unknown #
vertex $-1 $316 $638 #
ellipse-curve $-1 51.75484474952772 -16.076974257979131 8.9789715518150661 0.83867057594974714 0 0.54463902268945019 0.2723195113447251 0 -0.41933528797487357 1 I I #
coedge $-1 $474 $474 $-1 $639 reversed $319 $-1 #
edge $-1 $640 0 $640 6.2831853071796004 $320 $641 forward 7 unknown #
vertex $-1 $323 $642 #
ellipse-curve $-1 51.75484474952772 -12.752995947795975 8.9789715518150661 0.83867057594974714 0 0.54463902268945019 0.2723195113447251 0 -0.41933528797487357 1 I I #
coedge $-1 $478 $478 $-1 $643 reversed $326 $-1 #
edge $-1 $644 0 $644 6.2831853071796004 $327 $645 forward 7 unknown #
vertex $-1 $330 $646 #
ellipse-curve $-1 51.75484474952772 -9.4290176376128194 8.9789715518150661 0.83867057594974714 0 0.54463902268945019 0.2723195113447251 0 -0.41933528797487357 1 I I #
face $-1 $-1 $647 $68 $-1 $648 reversed single #
loop $-1 $-1 $337 $331 #
plane-surface $-1 54.379100924710841 0 0 -1 0 0 0 0 1 forward_v I I I I #
coedge $-1 $490 $649 $650 $651 forward $332 $-1 #
coedge $-1 $650 $334 $336 $492 forward $210 $-1 #
coedge $-1 $334 $650 $652 $653 reversed $210 $-1 #
coedge $-1 $654 $337 $334 $489 forward $483 $-1 #
edge $-1 $495 5.9449230679761662 $655 17.024850768586685 $488 $656 forward 7 unknown #
coedge $-1 $657 $485 $335 $491 forward $332 $-1 #
edge $-1 $658 5.9518666021979953 $494 11.200378952564243 $490 $659 forward 7 unknown #
edge $-1 $495 -108.75820184942168 $658 -99.121521164205859 $336 $660 forward 7 unknown #
coedge $-1 $337 $654 $657 $661 reversed $483 $-1 #
vertex $-1 $661 $662 #
vertex $-1 $338 $663 #
straight-curve $-1 54.379100924710841 17.429809986257595 77.692117915301253 0 0 -1 I I #
coedge $-1 $497 $497 $-1 $664 reversed $341 $-1 #
edge $-1 $665 0 $665 6.2831853071796004 $342 $666 forward 7 unknown #
vertex $-1 $345 $667 #
ellipse-curve $-1 51.75484474952772 19.6457955263797 8.9789715518150661 0.83867057594974714 0 0.54463902268945019 0.2723195113447251 0 -0.41933528797487357 1 I I #
coedge $-1 $501 $501 $-1 $668 reversed $348 $-1 #
edge $-1 $669 0 $669 6.2831853071796004 $349 $670 forward 7 unknown #
vertex $-1 $352 $671 #
ellipse-curve $-1 51.75484474952772 22.969773836562858 8.9789715518150661 0.83867057594974714 0 0.54463902268945019 0.2723195113447251 0 -0.41933528797487357 1 I I #
coedge $-1 $505 $505 $-1 $672 reversed $355 $-1 #
edge $-1 $673 0 $673 6.2831853071796004 $356 $674 forward 7 unknown #
vertex $-1 $359 $675 #
ellipse-curve $-1 51.75484474952772 26.293752146746009 8.9789715518150661 0.83867057594974714 0 0.54463902268945019 0.2723195113447251 0 -0.41933528797487357 1 I I #
face $-1 $-1 $375 $54 $-1 $676 reversed single #
loop $-1 $-1 $525 $360 #
plane-surface $-1 0 28.509737686868114 0 0 -1 0 0 0 -1 forward_v I I I I #
coedge $-1 $677 $523 $526 $678 forward $361 $-1 #
coedge $-1 $529 $363 $364 $517 reversed $229 $-1 #
coedge $-1 $523 $677 $363 $515 reversed $361 $-1 #
edge $-1 $530 -13.019971822071957 $679 13.019971822071957 $514 $680 forward 7 unknown #
coedge $-1 $365 $364 $677 $681 forward $145 $-1 #
edge $-1 $521 -54.379100924710841 $679 54.379100924710841 $513 $682 forward 7 unknown #
coedge $-1 $526 $525 $365 $519 reversed $510 $-1 #
edge $-1 $683 -54.379100924710841 $520 54.379100924710841 $518 $684 forward 7 unknown #
vertex $-1 $367 $685 #
vertex $-1 $532 $686 #
straight-curve $-1 54.379100924710841 0 -13.019971822071957 0 -1 0 I I #
coedge $-1 $512 $514 $368 $524 reversed $361 $-1 #
edge $-1 $527 -28.509737686868114 $530 28.509737686868114 $523 $687 forward 7 unknown #
coedge $-1 $518 $369 $374 $533 forward $510 $-1 #
coedge $-1 $369 $518 $512 $678 reversed $510 $-1 #
vertex $-1 $370 $688 #
straight-curve $-1 0 28.509737686868114 13.019971822071957 -1 0 0 I I #
coedge $-1 $371 $513 $373 $532 reversed $229 $-1 #
vertex $-1 $524 $689 #
straight-curve $-1 0 -28.509737686868114 13.019971822071957 1 0 0 I I #
edge $-1 $376 -13.019971822071957 $521 13.019971822071957 $373 $690 forward 7 unknown #
edge $-1 $377 -13.019971822071957 $520 13.019971822071957 $374 $691 forward 7 unknown #
point $-1 54.379100924710841 -28.509737686868114 13.019971822071957 #
point $-1 54.379100924710841 28.509737686868114 13.019971822071957 #
face $-1 $-1 $394 $55 $-1 $692 reversed single #
loop $-1 $-1 $390 $379 #
plane-surface $-1 0 -28.509737686868114 0 0 1 0 0 0 1 forward_v I I I I #
coedge $-1 $693 $694 $387 $549 forward $380 $-1 #
coedge $-1 $550 $382 $384 $545 reversed $237 $-1 #
edge $-1 $547 -0.72035222187733527 $395 4.2181536464598208 $393 $695 forward 7 unknown #
coedge $-1 $384 $383 $696 $697 reversed $149 $-1 #
coedge $-1 $554 $553 $383 $544 forward $537 $-1 #
edge $-1 $698 -54.379100924710841 $546 54.379100924710841 $543 $699 forward 7 unknown #
edge $-1 $700 -54.379100924710841 $547 54.379100924710841 $540 $701 forward 7 unknown #
vertex $-1 $544 $702 #
vertex $-1 $386 $703 #
straight-curve $-1 54.379100924710841 -11.700674371242338 1.0285484904139075 0 1 0 I I #
edge $-1 $555 -16.809063315625778 $551 -6.5922854268588988 $539 $704 forward 7 unknown #
coedge $-1 $388 $540 $693 $705 reversed $237 $-1 #
vertex $-1 $549 $706 #
straight-curve $-1 0 -18.292959798101236 5.9670543587510636 -1 0 0 I I #
coedge $-1 $543 $390 $694 $707 forward $537 $-1 #
coedge $-1 $390 $543 $392 $557 reversed $537 $-1 #
vertex $-1 $707 $708 #
straight-curve $-1 0 -28.509737686868114 5.9670543587510636 -1 0 0 I I #
edge $-1 $396 -5.9670543587510636 $546 -1.0285484904139075 $392 $709 forward 7 unknown #
point $-1 54.379100924710841 -18.292959798101236 5.9670543587510636 #
point $-1 54.379100924710841 -28.509737686868114 5.9670543587510636 #
plane-surface $-1 -54.379100924710841 0 0 1 0 0 0 0 -1 forward_v I I I I #
coedge $-1 $562 $401 $710 $711 reversed $245 $-1 #
coedge $-1 $401 $561 $565 $712 reversed $245 $-1 #
edge $-1 $713 -9.6366806852158149 $566 0 $401 $714 forward 7 unknown #
coedge $-1 $403 $402 $569 $715 reversed $153 $-1 #
coedge $-1 $409 $404 $562 $712 forward $410 $-1 #
vertex $-1 $712 $716 #
straight-curve $-1 -54.379100924710841 -6.3764979738979868 4.9379712815582089 0 -1 0 I I #
coedge $-1 $710 $406 $409 $573 forward $399 $-1 #
coedge $-1 $406 $710 $564 $715 forward $399 $-1 #
vertex $-1 $407 $717 #
straight-curve $-1 -72.795702354512088 -7.2130320974907116 13.019971822071959 -1 0 0 I I #
straight-curve $-1 -54.379100924710841 -7.2130320974907116 4.9379712815582053 0.54463902268945019 0 0.83867057594974714 I I #
edge $-1 $411 7.2130320974907116 $718 18.292959798101236 $409 $719 forward 7 unknown #
point $-1 -54.379100924710841 -7.2130320974907116 13.019971822071957 #
point $-1 -54.379100924710841 -7.2130320974907116 4.9379712815582053 #
edge $-1 $720 1 $720 0 $414 $-1 forward 7 unknown #
vertex $-1 $415 $721 #
ellipse-curve $-1 -50.546237189127467 -16.076974257979131 8.1940926501485531 -0.83867057594974714 0 0.54463902268945019 0.2723195113447251 0 0.41933528797487357 1 I I #
point $-1 -51.482525238182994 -16.076974257979131 9.3983068397899565 #
edge $-1 $722 1 $722 0 $418 $-1 forward 7 unknown #
vertex $-1 $419 $723 #
ellipse-curve $-1 -50.546237189127467 -12.752995947795975 8.1940926501485531 -0.83867057594974714 0 0.54463902268945019 0.2723195113447251 0 0.41933528797487357 1 I I #
point $-1 -51.482525238182994 -12.752995947795975 9.3983068397899565 #
edge $-1 $724 1 $724 0 $422 $-1 forward 7 unknown #
vertex $-1 $423 $725 #
ellipse-curve $-1 -50.546237189127467 -9.4290176376128194 8.1940926501485531 -0.83867057594974714 0 0.54463902268945019 0.2723195113447251 0 0.41933528797487357 1 I I #
point $-1 -51.482525238182994 -9.4290176376128194 9.3983068397899565 #
loop $-1 $-1 $434 $426 #
plane-surface $-1 0 28.509737686868114 0 0 -1 0 0 0 -1 forward_v I I I I #
coedge $-1 $726 $591 $433 $596 forward $427 $-1 #
coedge $-1 $590 $727 $430 $592 forward $427 $-1 #
edge $-1 $594 18.416601429801247 $601 23.665113780167488 $591 $728 forward 7 unknown #
coedge $-1 $437 $431 $727 $729 reversed $274 $-1 #
vertex $-1 $592 $730 #
straight-curve $-1 -54.379100924710841 17.429809986257595 32.085966023144593 0 0 1 I I #
edge $-1 $601 5.9449230679761662 $599 17.024850768586692 $590 $731 forward 7 unknown #
coedge $-1 $598 $434 $437 $603 reversed $588 $-1 #
coedge $-1 $434 $597 $726 $732 reversed $588 $-1 #
vertex $-1 $732 $733 #
straight-curve $-1 -47.441584593279352 28.509737686868114 15.620809959939091 -0.54463902268945019 0 -0.83867057594974714 I I #
vertex $-1 $596 $734 #
straight-curve $-1 -54.379100924710841 17.429809986257595 4.9379712815582053 -0.54463902268945019 0 -0.83867057594974714 I I #
edge $-1 $735 -13.019971822071957 $438 -4.9379712815582053 $597 $736 forward 7 unknown #
point $-1 -54.379100924710841 28.509737686868121 4.9379712815582053 #
point $-1 -54.379100924710841 17.429809986257595 4.9379712815582053 #
edge $-1 $737 1 $737 0 $441 $-1 forward 7 unknown #
vertex $-1 $442 $738 #
ellipse-curve $-1 -50.546237189127467 19.6457955263797 8.1940926501485531 -0.83867057594974714 0 0.54463902268945019 0.2723195113447251 0 0.41933528797487357 1 I I #
point $-1 -51.482525238182994 19.6457955263797 9.3983068397899565 #
edge $-1 $739 1 $739 0 $445 $-1 forward 7 unknown #
vertex $-1 $446 $740 #
ellipse-curve $-1 -50.546237189127467 22.969773836562858 8.1940926501485531 -0.83867057594974714 0 0.54463902268945019 0.2723195113447251 0 0.41933528797487357 1 I I #
point $-1 -51.482525238182994 22.969773836562858 9.3983068397899565 #
edge $-1 $741 1 $741 0 $449 $-1 forward 7 unknown #
vertex $-1 $450 $742 #
ellipse-curve $-1 -50.546237189127467 26.293752146746009 8.1940926501485531 -0.83867057594974714 0 0.54463902268945019 0.2723195113447251 0 0.41933528797487357 1 I I #
point $-1 -51.482525238182994 26.293752146746009 9.3983068397899565 #
plane-surface $-1 54.379100924710841 0 0 -1 0 0 0 0 1 forward_v I I I I #
coedge $-1 $743 $456 $461 $625 forward $303 $-1 #
coedge $-1 $456 $743 $622 $744 forward $303 $-1 #
edge $-1 $623 -11.200378952564243 $630 -5.9518666021979953 $456 $745 forward 7 unknown #
coedge $-1 $465 $459 $620 $744 reversed $466 $-1 #
vertex $-1 $460 $746 #
straight-curve $-1 54.379100924710841 -7.2130320974907116 77.692117915301253 0 0 1 I I #
edge $-1 $630 0.83653412359272483 $628 11.91646182420325 $619 $747 forward 7 unknown #
coedge $-1 $627 $462 $465 $632 reversed $454 $-1 #
coedge $-1 $462 $626 $743 $748 reversed $454 $-1 #
vertex $-1 $748 $749 #
straight-curve $-1 17.025754070577353 -18.292959798101236 62.457083234117185 0.54463902268945019 0 -0.83867057594974714 I I #
vertex $-1 $625 $750 #
straight-curve $-1 -4.8548598400201399 -7.2130320974907116 96.150275065871526 0.54463902268945019 0 -0.83867057594974714 I I #
edge $-1 $751 64.672146093229301 $467 72.754146633743062 $465 $752 forward 7 unknown #
point $-1 54.379100924710841 -18.292959798101236 4.9379712815581929 #
point $-1 54.379100924710841 -7.2130320974907116 4.9379712815581911 #
edge $-1 $753 1 $753 0 $470 $-1 forward 7 unknown #
vertex $-1 $471 $754 #
ellipse-curve $-1 50.546237189127474 -16.076974257979131 8.1940926501485389 0.83867057594974714 0 0.54463902268945019 0.2723195113447251 0 -0.41933528797487357 1 I I #
point $-1 52.027164260872453 -16.076974257979131 8.5596362638401953 #
edge $-1 $755 1 $755 0 $474 $-1 forward 7 unknown #
vertex $-1 $475 $756 #
ellipse-curve $-1 50.546237189127474 -12.752995947795975 8.1940926501485389 0.83867057594974714 0 0.54463902268945019 0.2723195113447251 0 -0.41933528797487357 1 I I #
point $-1 52.027164260872453 -12.752995947795975 8.5596362638401953 #
edge $-1 $757 1 $757 0 $478 $-1 forward 7 unknown #
vertex $-1 $479 $758 #
ellipse-curve $-1 50.546237189127474 -9.4290176376128194 8.1940926501485389 0.83867057594974714 0 0.54463902268945019 0.2723195113447251 0 -0.41933528797487357 1 I I #
point $-1 52.027164260872453 -9.4290176376128194 8.5596362638401953 #
loop $-1 $-1 $652 $482 #
plane-surface $-1 0 28.509737686868114 0 0 -1 0 0 0 -1 forward_v I I I I #
coedge $-1 $485 $657 $759 $760 forward $332 $-1 #
coedge $-1 $487 $486 $485 $651 reversed $210 $-1 #
edge $-1 $761 -17.024850768586685 $658 -5.9449230679761662 $485 $762 forward 7 unknown #
coedge $-1 $759 $763 $487 $653 forward $647 $-1 #
edge $-1 $655 -67.116925506529725 $761 -57.480244821313889 $652 $764 forward 7 unknown #
coedge $-1 $493 $488 $763 $765 reversed $483 $-1 #
vertex $-1 $489 $766 #
straight-curve $-1 54.379100924710841 11.484886918281429 4.937971281558184 0 1 0 I I #
coedge $-1 $649 $490 $493 $661 forward $332 $-1 #
vertex $-1 $491 $767 #
straight-curve $-1 43.178721972146597 17.429809986257595 13.019971822071952 1 0 0 I I #
straight-curve $-1 -4.8548598400201399 17.429809986257595 96.150275065871526 -0.54463902268945019 0 0.83867057594974714 I I #
edge $-1 $494 17.429809986257595 $768 28.509737686868114 $493 $769 forward 7 unknown #
point $-1 54.379100924710841 17.429809986257595 13.019971822071957 #
point $-1 54.379100924710841 17.429809986257595 4.9379712815581911 #
edge $-1 $770 1 $770 0 $497 $-1 forward 7 unknown #
vertex $-1 $498 $771 #
ellipse-curve $-1 50.546237189127474 19.6457955263797 8.1940926501485389 0.83867057594974714 0 0.54463902268945019 0.2723195113447251 0 -0.41933528797487357 1 I I #
point $-1 52.027164260872453 19.6457955263797 8.5596362638401953 #
edge $-1 $772 1 $772 0 $501 $-1 forward 7 unknown #
vertex $-1 $502 $773 #
ellipse-curve $-1 50.546237189127474 22.969773836562858 8.1940926501485389 0.83867057594974714 0 0.54463902268945019 0.2723195113447251 0 -0.41933528797487357 1 I I #
point $-1 52.027164260872453 22.969773836562858 8.5596362638401953 #
edge $-1 $774 1 $774 0 $505 $-1 forward 7 unknown #
vertex $-1 $506 $775 #
ellipse-curve $-1 50.546237189127474 26.293752146746009 8.1940926501485389 0.83867057594974714 0 0.54463902268945019 0.2723195113447251 0 -0.41933528797487357 1 I I #
point $-1 52.027164260872453 26.293752146746009 8.5596362638401953 #
plane-surface $-1 54.379100924710841 0 0 -1 0 0 0 0 1 forward_v I I I I #
coedge $-1 $514 $512 $516 $681 reversed $361 $-1 #
edge $-1 $527 -13.019971822071957 $683 13.019971822071957 $526 $776 forward 7 unknown #
vertex $-1 $681 $777 #
straight-curve $-1 -54.379100924710841 -28.509737686868114 0 0 0 -1 I I #
edge $-1 $679 -28.509737686868114 $683 28.509737686868114 $677 $778 forward 7 unknown #
straight-curve $-1 0 -28.509737686868114 -13.019971822071957 -1 0 0 I I #
vertex $-1 $519 $779 #
straight-curve $-1 0 28.509737686868114 -13.019971822071957 1 0 0 I I #
point $-1 54.379100924710841 28.509737686868114 -13.019971822071957 #
point $-1 54.379100924710841 -28.509737686868114 -13.019971822071957 #
straight-curve $-1 -54.379100924710841 0 13.019971822071957 0 -1 0 I I #
point $-1 -54.379100924710841 28.509737686868114 13.019971822071957 #
point $-1 -54.379100924710841 -28.509737686868114 13.019971822071957 #
straight-curve $-1 54.379100924710841 -28.509737686868114 0 0 0 -1 I I #
straight-curve $-1 54.379100924710841 28.509737686868114 0 0 0 -1 I I #
plane-surface $-1 54.379100924710841 0 0 -1 0 0 0 0 1 forward_v I I I I #
coedge $-1 $696 $539 $550 $705 forward $380 $-1 #
coedge $-1 $539 $696 $553 $707 reversed $380 $-1 #
straight-curve $-1 54.379100924710841 -18.292959798101236 1.7489007122912428 0 0 1 I I #
coedge $-1 $694 $693 $542 $697 forward $380 $-1 #
edge $-1 $700 6.5922854268588988 $698 16.809063315625778 $696 $780 forward 7 unknown #
vertex $-1 $544 $781 #
straight-curve $-1 0 -28.509737686868114 1.0285484904139075 1 0 0 I I #
vertex $-1 $697 $782 #
straight-curve $-1 0 -18.292959798101236 1.0285484904139075 1 0 0 I I #
point $-1 54.379100924710841 -28.509737686868114 1.0285484904139075 #
point $-1 54.379100924710841 -18.292959798101236 1.0285484904139075 #
straight-curve $-1 -54.379100924710841 -11.700674371242338 5.9670543587510636 0 1 0 I I #
edge $-1 $551 -4.2181536464598208 $700 0.72035222187733527 $693 $783 forward 7 unknown #
point $-1 -54.379100924710841 -18.292959798101236 5.9670543587510636 #
edge $-1 $555 -5.9670543587510636 $698 -1.0285484904139075 $694 $784 forward 7 unknown #
point $-1 -54.379100924710841 -28.509737686868114 5.9670543587510636 #
straight-curve $-1 54.379100924710841 -28.509737686868114 0 0 0 -1 I I #
coedge $-1 $569 $568 $561 $711 forward $399 $-1 #
edge $-1 $718 18.416601429801247 $713 23.665113780167488 $710 $785 forward 7 unknown #
edge $-1 $566 -27.147994741586388 $718 -19.065994201072634 $565 $786 forward 7 unknown #
vertex $-1 $715 $787 #
straight-curve $-1 -54.379100924710841 -18.292959798101236 4.9379712815582053 -0.54463902268945019 0 -0.83867057594974714 I I #
edge $-1 $713 -11.91646182420325 $570 -0.83653412359272483 $569 $788 forward 7 unknown #
point $-1 -54.379100924710841 -18.292959798101236 4.9379712815582053 #
point $-1 -49.1305885743446 -7.2130320974907116 13.019971822071957 #
vertex $-1 $712 $789 #
straight-curve $-1 -54.379100924710841 0 13.019971822071957 0 -1 0 I I #
vertex $-1 $576 $790 #
point $-1 -50.273917677782741 -16.076974257979131 8.6134279381234258 #
vertex $-1 $580 $791 #
point $-1 -50.273917677782741 -12.752995947795975 8.6134279381234258 #
vertex $-1 $584 $792 #
point $-1 -50.273917677782741 -9.4290176376128194 8.6134279381234258 #
coedge $-1 $727 $590 $598 $732 forward $427 $-1 #
coedge $-1 $591 $726 $593 $729 forward $427 $-1 #
straight-curve $-1 -72.795702354512088 17.429809986257595 13.019971822071959 1 0 0 I I #
edge $-1 $735 -28.509737686868114 $594 -17.429809986257595 $593 $793 forward 7 unknown #
point $-1 -54.379100924710841 17.429809986257595 13.019971822071957 #
straight-curve $-1 -49.130588574344593 11.484886918281429 13.019971822071959 0 1 0 I I #
edge $-1 $599 49.1305885743446 $735 54.379100924710841 $598 $794 forward 7 unknown #
point $-1 -49.1305885743446 28.509737686868121 13.019971822071957 #
point $-1 -49.1305885743446 17.429809986257595 13.019971822071957 #
vertex $-1 $732 $795 #
straight-curve $-1 -54.379100924710841 28.509737686868114 0 0 0 -1 I I #
vertex $-1 $606 $796 #
point $-1 -50.273917677782741 19.6457955263797 8.6134279381234258 #
vertex $-1 $610 $797 #
point $-1 -50.273917677782741 22.969773836562858 8.6134279381234258 #
vertex $-1 $614 $798 #
point $-1 -50.273917677782741 26.293752146746009 8.6134279381234258 #
coedge $-1 $620 $619 $627 $748 forward $303 $-1 #
edge $-1 $751 -18.292959798101236 $623 -7.2130320974907116 $622 $799 forward 7 unknown #
straight-curve $-1 43.178721972146597 -7.2130320974907116 13.019971822071952 -1 0 0 I I #
point $-1 54.379100924710841 -7.2130320974907116 13.019971822071957 #
straight-curve $-1 49.130588574344586 -6.3764979738979868 13.019971822071959 0 -1 0 I I #
edge $-1 $628 5.9518666021979953 $751 11.200378952564243 $743 $800 forward 7 unknown #
point $-1 49.130588574344593 -18.292959798101236 13.019971822071952 #
point $-1 49.130588574344593 -7.2130320974907116 13.019971822071952 #
vertex $-1 $744 $801 #
straight-curve $-1 54.379100924710841 -18.292959798101236 77.692117915301253 0 0 -1 I I #
vertex $-1 $635 $802 #
point $-1 50.8185567004722 -16.076974257979131 7.7747573621736645 #
vertex $-1 $639 $803 #
point $-1 50.8185567004722 -12.752995947795975 7.7747573621736645 #
vertex $-1 $643 $804 #
point $-1 50.8185567004722 -9.4290176376128194 7.7747573621736645 #
coedge $-1 $763 $652 $649 $760 reversed $647 $-1 #
edge $-1 $768 -54.379100924710841 $761 -49.130588574344586 $759 $805 forward 7 unknown #
vertex $-1 $653 $806 #
straight-curve $-1 49.130588574344586 11.484886918281429 13.019971822071959 0 -1 0 I I #
coedge $-1 $652 $759 $654 $765 forward $647 $-1 #
straight-curve $-1 17.824604210913858 28.509737686868114 61.226961852095748 -0.54463902268945019 0 0.83867057594974714 I I #
edge $-1 $768 -13.019971822071957 $655 -4.9379712815581884 $654 $807 forward 7 unknown #
point $-1 54.379100924710841 28.509737686868114 4.9379712815581884 #
point $-1 49.130588574344593 17.429809986257595 13.019971822071952 #
vertex $-1 $661 $808 #
straight-curve $-1 54.379100924710841 0 13.019971822071957 0 1 0 I I #
vertex $-1 $664 $809 #
point $-1 50.8185567004722 19.6457955263797 7.7747573621736645 #
vertex $-1 $668 $810 #
point $-1 50.8185567004722 22.969773836562858 7.7747573621736645 #
vertex $-1 $672 $811 #
point $-1 50.8185567004722 26.293752146746009 7.7747573621736645 #
straight-curve $-1 -54.379100924710841 28.509737686868114 0 0 0 -1 I I #
point $-1 -54.379100924710841 -28.509737686868114 -13.019971822071957 #
straight-curve $-1 -54.379100924710841 0 -13.019971822071957 0 1 0 I I #
point $-1 -54.379100924710841 28.509737686868114 -13.019971822071957 #
straight-curve $-1 -54.379100924710841 -11.700674371242338 1.0285484904139075 0 -1 0 I I #
point $-1 -54.379100924710841 -28.509737686868114 1.0285484904139075 #
point $-1 -54.379100924710841 -18.292959798101236 1.0285484904139075 #
straight-curve $-1 -54.379100924710841 -18.292959798101236 1.7489007122912428 0 0 -1 I I #
straight-curve $-1 -54.379100924710841 -28.509737686868114 0 0 0 -1 I I #
straight-curve $-1 -72.795702354512088 -18.292959798101236 13.019971822071959 1 0 0 I I #
straight-curve $-1 -54.379100924710841 -18.292959798101236 32.085966023144593 0 0 1 I I #
point $-1 -49.1305885743446 -18.292959798101236 13.019971822071957 #
straight-curve $-1 -49.130588574344593 -6.3764979738979868 13.019971822071959 0 1 0 I I #
point $-1 -54.379100924710841 -18.292959798101236 13.019971822071957 #
point $-1 -50.126901901152593 -16.076974257979131 7.9217731388038279 #
point $-1 -50.126901901152593 -12.752995947795975 7.9217731388038279 #
point $-1 -50.126901901152593 -9.4290176376128194 7.9217731388038279 #
straight-curve $-1 -54.379100924710841 0 13.019971822071957 0 -1 0 I I #
straight-curve $-1 0 28.509737686868114 13.019971822071957 -1 0 0 I I #
point $-1 -54.379100924710841 28.509737686868114 13.019971822071957 #
point $-1 -50.126901901152593 19.6457955263797 7.9217731388038279 #
point $-1 -50.126901901152593 22.969773836562858 7.9217731388038279 #
point $-1 -50.126901901152593 26.293752146746009 7.9217731388038279 #
straight-curve $-1 54.379100924710841 0 13.019971822071957 0 1 0 I I #
straight-curve $-1 43.178721972146597 -18.292959798101236 13.019971822071952 1 0 0 I I #
point $-1 54.379100924710841 -18.292959798101236 13.019971822071957 #
point $-1 50.1269019011526 -16.076974257979131 7.9217731388038137 #
point $-1 50.1269019011526 -12.752995947795975 7.9217731388038137 #
point $-1 50.1269019011526 -9.4290176376128194 7.9217731388038137 #
straight-curve $-1 0 28.509737686868114 13.019971822071957 -1 0 0 I I #
point $-1 49.130588574344586 28.509737686868114 13.019971822071957 #
straight-curve $-1 54.379100924710841 28.509737686868114 0 0 0 -1 I I #
point $-1 54.379100924710841 28.509737686868114 13.019971822071957 #
point $-1 50.1269019011526 19.6457955263797 7.9217731388038137 #
point $-1 50.1269019011526 22.969773836562858 7.9217731388038137 #
point $-1 50.1269019011526 26.293752146746009 7.9217731388038137 #
End-of-ACIS-data 