500 0 5 0           
7 Unknown 11 ACIS 5.0 NT 24 Fri Mar 26 14:35:41 1999 
-1 9.9999999999999995e-007 1e-010 
body $-1 $5 $-1 $6 #
body $-1 $7 $-1 $8 #
body $-1 $9 $-1 $10 #
body $-1 $11 $-1 $12 #
body $-1 $13 $-1 $14 #
lump $-1 $-1 $15 $0 #
transform $-1 1 0 0 0 1 0 0 0 1 71.370586260567038 39.711555183649956 11.986061609738398 1 rotate no_reflect no_shear #
lump $-1 $-1 $16 $1 #
transform $-1 1 0 0 0 1 0 0 0 1 71.370586260567038 39.711555183649956 11.986061609738398 1 rotate no_reflect no_shear #
lump $-1 $-1 $17 $2 #
transform $-1 1 0 0 0 1 0 0 0 1 71.370586260567038 39.711555183649956 11.986061609738398 1 rotate no_reflect no_shear #
lump $-1 $-1 $18 $3 #
transform $-1 1 0 0 0 1 0 0 0 1 71.370586260567038 39.711555183649956 11.986061609738398 1 rotate no_reflect no_shear #
lump $-1 $-1 $19 $4 #
transform $-1 1 0 0 0 1 0 0 0 1 71.370586260567038 39.711555183649956 11.986061609738398 1 rotate no_reflect no_shear #
shell $-1 $-1 $-1 $20 $-1 $5 #
shell $-1 $-1 $-1 $21 $-1 $7 #
shell $-1 $-1 $-1 $22 $-1 $9 #
shell $-1 $-1 $-1 $23 $-1 $11 #
shell $-1 $-1 $-1 $24 $-1 $13 #
face $-1 $25 $26 $15 $-1 $27 forward single #
face $-1 $28 $29 $16 $-1 $30 reversed single #
face $-1 $31 $32 $17 $-1 $33 reversed single #
face $-1 $34 $35 $18 $-1 $36 forward single #
face $-1 $37 $38 $19 $-1 $39 forward single #
face $-1 $40 $41 $15 $-1 $42 reversed single #
loop $-1 $-1 $43 $20 #
plane-surface $-1 0 0 11.986061609738398 0 0 1 1 0 0 forward_v I I I I #
face $-1 $44 $45 $16 $-1 $46 reversed single #
loop $-1 $-1 $47 $21 #
plane-surface $-1 -65.548119157208163 0 7.5275115277517202 0 0 1 1 0 0 forward_v I I I I #
face $-1 $48 $49 $17 $-1 $50 reversed single #
loop $-1 $-1 $51 $22 #
plane-surface $-1 -34.661894247631679 105.91170534099192 155.85069118606231 1 0 0 0 -0.79863551827123203 -0.60181501223851219 forward_v I I I I #
face $-1 $52 $53 $18 $-1 $54 forward single #
loop $-1 $55 $56 $23 #
cone-surface $-1 -23.623516565528504 36.333710539003555 8.2588838258880735 0 -0.79863551827123203 -0.60181501223851219 1 0 0 1 I I 0 1 1 forward I I I I #
face $-1 $57 $58 $19 $-1 $59 forward single #
loop $-1 $60 $61 $24 #
cone-surface $-1 -7.0659500423737569 36.333710539003555 8.2588838258880735 0 -0.79863551827123203 -0.60181501223851219 1 0 0 1 I I 0 1 1 forward I I I I #
face $-1 $62 $63 $15 $-1 $64 reversed single #
loop $-1 $-1 $65 $25 #
plane-surface $-1 0 0 -11.986061609738398 0 0 1 1 0 0 forward_v I I I I #
coedge $-1 $66 $67 $68 $69 forward $26 $-1 #
face $-1 $70 $71 $16 $-1 $72 reversed single #
loop $-1 $-1 $73 $28 #
plane-surface $-1 -59.725652053849288 0 9.7567865687450581 -1 0 0 0 0 1 forward_v I I I I #
coedge $-1 $74 $75 $76 $77 forward $29 $-1 #
face $-1 $78 $79 $17 $-1 $80 reversed single #
loop $-1 $-1 $81 $31 #
plane-surface $-1 -15.344733303951131 -8.0864649540673383 69.946910698316429 0 0.79863551827123203 0.60181501223851219 1 0 0 forward_v I I I I #
coedge $-1 $82 $83 $84 $85 reversed $32 $-1 #
face $-1 $-1 $86 $18 $-1 $87 forward single #
loop $-1 $88 $89 $34 #
cone-surface $-1 -23.623516565528504 34.617242535936676 6.9654324470803974 0 -0.79863551827123203 -0.60181501223851219 0.5 0 0 1 I I -0.70710678118654746 0.70710678118654746 0.5 forward I I I I #
loop $-1 $-1 $90 $23 #
coedge $-1 $56 $56 $91 $92 reversed $35 $-1 #
face $-1 $-1 $93 $19 $-1 $94 forward single #
loop $-1 $95 $96 $37 #
cone-surface $-1 -7.0659500423737569 34.617242535936676 6.9654324470803974 0 -0.79863551827123203 -0.60181501223851219 0.5 0 0 1 I I -0.70710678118654746 0.70710678118654746 0.5 forward I I I I #
loop $-1 $-1 $97 $24 #
coedge $-1 $61 $61 $98 $99 reversed $38 $-1 #
face $-1 $100 $101 $15 $-1 $102 reversed single #
loop $-1 $-1 $103 $40 #
plane-surface $-1 0 -39.711555183649956 0 0 1 0 0 0 1 forward_v I I I I #
coedge $-1 $104 $105 $106 $107 forward $41 $-1 #
coedge $-1 $108 $43 $109 $110 forward $26 $-1 #
coedge $-1 $43 $108 $111 $112 forward $26 $-1 #
coedge $-1 $113 $114 $43 $69 reversed $115 $-1 #
edge $-1 $116 -39.711555183649956 $117 39.711555183649956 $68 $118 forward 7 unknown #
face $-1 $119 $120 $16 $-1 $121 reversed single #
loop $-1 $-1 $122 $44 #
plane-surface $-1 0 39.711555183649956 0 0 -1 0 0 0 -1 forward_v I I I I #
coedge $-1 $76 $123 $124 $125 reversed $45 $-1 #
coedge $-1 $126 $47 $127 $128 reversed $29 $-1 #
coedge $-1 $47 $126 $129 $130 reversed $29 $-1 #
coedge $-1 $131 $73 $47 $77 reversed $45 $-1 #
edge $-1 $132 -39.711555183649956 $133 39.711555183649956 $76 $134 forward 7 unknown #
face $-1 $135 $136 $17 $-1 $137 forward single #
loop $-1 $-1 $138 $48 #
plane-surface $-1 3.972427639729414 105.91170534099192 155.85069118606231 -1 0 0 0 0.79863551827123203 0.60181501223851219 forward_v I I I I #
coedge $-1 $139 $140 $141 $142 reversed $49 $-1 #
coedge $-1 $83 $51 $143 $144 reversed $32 $-1 #
coedge $-1 $51 $82 $139 $145 reversed $32 $-1 #
coedge $-1 $141 $146 $51 $85 forward $136 $-1 #
edge $-1 $147 13.244297486846001 $148 17.365686288276244 $84 $149 forward 7 unknown #
loop $-1 $-1 $91 $52 #
plane-surface $-1 -15.344733303951131 -8.0864649540673383 69.946910698316429 0 0.79863551827123203 0.60181501223851219 1 0 0 forward_v I I I I #
loop $-1 $-1 $150 $34 #
coedge $-1 $89 $89 $90 $151 reversed $53 $-1 #
coedge $-1 $90 $90 $89 $151 forward $55 $-1 #
coedge $-1 $91 $91 $56 $92 forward $86 $-1 #
edge $-1 $152 -1.4791652359709833e-015 $152 6.2831853071795987 $91 $153 forward 7 unknown #
loop $-1 $-1 $98 $57 #
plane-surface $-1 -15.344733303951131 -8.0864649540673383 69.946910698316429 0 0.79863551827123203 0.60181501223851219 1 0 0 forward_v I I I I #
loop $-1 $-1 $154 $37 #
coedge $-1 $96 $96 $97 $155 reversed $58 $-1 #
coedge $-1 $97 $97 $96 $155 forward $60 $-1 #
coedge $-1 $98 $98 $61 $99 forward $93 $-1 #
edge $-1 $156 -1.4791652359709833e-015 $156 6.2831853071795987 $98 $157 forward 7 unknown #
face $-1 $158 $159 $15 $-1 $160 reversed single #
loop $-1 $-1 $161 $62 #
plane-surface $-1 -71.370586260567038 0 0 1 0 0 0 0 -1 forward_v I I I I #
coedge $-1 $162 $111 $163 $164 forward $63 $-1 #
coedge $-1 $165 $65 $162 $166 forward $41 $-1 #
coedge $-1 $65 $165 $167 $168 forward $41 $-1 #
coedge $-1 $114 $113 $65 $107 reversed $115 $-1 #
edge $-1 $169 -39.711555183649956 $170 39.711555183649956 $106 $171 forward 7 unknown #
coedge $-1 $67 $66 $172 $173 forward $26 $-1 #
coedge $-1 $174 $175 $66 $110 reversed $159 $-1 #
edge $-1 $117 -71.370586260567038 $176 71.370586260567038 $109 $177 forward 7 unknown #
coedge $-1 $103 $178 $67 $112 reversed $63 $-1 #
edge $-1 $179 -71.370586260567038 $116 71.370586260567038 $111 $180 forward 7 unknown #
coedge $-1 $106 $68 $178 $181 forward $115 $-1 #
coedge $-1 $68 $106 $174 $182 reversed $115 $-1 #
loop $-1 $-1 $113 $158 #
vertex $-1 $69 $183 #
vertex $-1 $69 $184 #
straight-curve $-1 71.370586260567038 0 11.986061609738398 0 1 0 I I #
face $-1 $185 $186 $16 $-1 $187 forward single #
loop $-1 $-1 $188 $70 #
plane-surface $-1 -71.370586260567038 0 0 1 0 0 0 0 -1 forward_v I I I I #
coedge $-1 $129 $189 $131 $190 forward $71 $-1 #
coedge $-1 $73 $131 $191 $192 reversed $45 $-1 #
coedge $-1 $193 $127 $73 $125 forward $194 $-1 #
edge $-1 $133 2.6491182433791911 $195 7.107668325365867 $124 $196 forward 7 unknown #
coedge $-1 $75 $74 $188 $197 reversed $29 $-1 #
coedge $-1 $124 $198 $74 $128 forward $194 $-1 #
edge $-1 $199 -38.596526681962956 $133 -26.951592475245207 $127 $200 forward 7 unknown #
coedge $-1 $201 $122 $75 $130 forward $71 $-1 #
edge $-1 $132 26.951592475245207 $202 38.596526681962956 $129 $203 forward 7 unknown #
coedge $-1 $123 $76 $122 $190 reversed $45 $-1 #
vertex $-1 $130 $204 #
vertex $-1 $128 $205 #
straight-curve $-1 -59.725652053849288 0 7.5275115277517202 0 -1 0 I I #
face $-1 $-1 $206 $17 $-1 $207 reversed single #
loop $-1 $-1 $84 $78 #
plane-surface $-1 0 0 11.986061609738398 0 0 1 1 0 0 forward_v I I I I #
coedge $-1 $208 $209 $210 $211 reversed $79 $-1 #
coedge $-1 $212 $81 $83 $145 forward $49 $-1 #
coedge $-1 $81 $212 $208 $213 forward $49 $-1 #
coedge $-1 $210 $84 $81 $142 forward $136 $-1 #
edge $-1 $148 -26.989527595656114 $214 11.644794291704979 $141 $215 forward 7 unknown #
coedge $-1 $216 $217 $82 $144 forward $206 $-1 #
edge $-1 $218 -71.40855180561654 $147 -65.939283983292754 $143 $219 forward 7 unknown #
edge $-1 $148 72.574845173481748 $218 79.423110367299898 $83 $220 forward 7 unknown #
coedge $-1 $84 $210 $216 $221 forward $136 $-1 #
vertex $-1 $144 $222 #
vertex $-1 $85 $223 #
straight-curve $-1 -34.661894247631679 52.955852670495958 11.9860616097384 0 -1 0 I I #
coedge $-1 $150 $150 $-1 $224 reversed $88 $-1 #
edge $-1 $225 0 $225 6.2831853071796004 $89 $226 forward 7 unknown #
vertex $-1 $92 $227 #
ellipse-curve $-1 -23.623516565528504 37.650860782934835 9.2514276985765065 0 0.79863551827123203 0.60181501223851219 1 0 0 1 I I #
coedge $-1 $154 $154 $-1 $228 reversed $95 $-1 #
edge $-1 $229 0 $229 6.2831853071796004 $96 $230 forward 7 unknown #
vertex $-1 $99 $231 #
ellipse-curve $-1 -7.0659500423737569 37.650860782934835 9.2514276985765065 0 0.79863551827123203 0.60181501223851219 1 0 0 1 I I #
face $-1 $-1 $115 $15 $-1 $232 reversed single #
loop $-1 $-1 $174 $100 #
plane-surface $-1 0 39.711555183649956 0 0 -1 0 0 0 -1 forward_v I I I I #
coedge $-1 $233 $172 $175 $234 forward $101 $-1 #
coedge $-1 $178 $103 $104 $166 reversed $63 $-1 #
coedge $-1 $172 $233 $103 $164 reversed $101 $-1 #
edge $-1 $179 -11.986061609738398 $235 11.986061609738398 $163 $236 forward 7 unknown #
coedge $-1 $105 $104 $233 $237 forward $41 $-1 #
edge $-1 $170 -71.370586260567038 $235 71.370586260567038 $162 $238 forward 7 unknown #
coedge $-1 $175 $174 $105 $168 reversed $159 $-1 #
edge $-1 $239 -71.370586260567038 $169 71.370586260567038 $167 $240 forward 7 unknown #
vertex $-1 $107 $241 #
vertex $-1 $181 $242 #
straight-curve $-1 71.370586260567038 0 -11.986061609738398 0 -1 0 I I #
coedge $-1 $161 $163 $108 $173 reversed $101 $-1 #
edge $-1 $176 -39.711555183649956 $179 39.711555183649956 $172 $243 forward 7 unknown #
coedge $-1 $167 $109 $114 $182 forward $159 $-1 #
coedge $-1 $109 $167 $161 $234 reversed $159 $-1 #
vertex $-1 $110 $244 #
straight-curve $-1 0 39.711555183649956 11.986061609738398 -1 0 0 I I #
coedge $-1 $111 $162 $113 $181 reversed $63 $-1 #
vertex $-1 $173 $245 #
straight-curve $-1 0 -39.711555183649956 11.986061609738398 1 0 0 I I #
edge $-1 $116 -11.986061609738398 $170 11.986061609738398 $113 $246 forward 7 unknown #
edge $-1 $117 -11.986061609738398 $169 11.986061609738398 $114 $247 forward 7 unknown #
point $-1 71.370586260567038 -39.711555183649956 11.986061609738398 #
point $-1 71.370586260567038 39.711555183649956 11.986061609738398 #
face $-1 $-1 $194 $16 $-1 $248 reversed single #
loop $-1 $-1 $191 $119 #
plane-surface $-1 0 0 11.986061609738398 0 0 1 1 0 0 forward_v I I I I #
coedge $-1 $249 $250 $126 $197 forward $120 $-1 #
coedge $-1 $122 $201 $251 $252 reversed $71 $-1 #
edge $-1 $253 -7.107668325365867 $132 -2.6491182433791911 $122 $254 forward 7 unknown #
coedge $-1 $251 $255 $123 $192 forward $186 $-1 #
edge $-1 $195 -39.711555183649956 $253 39.711555183649956 $191 $256 forward 7 unknown #
coedge $-1 $198 $124 $255 $257 reversed $194 $-1 #
loop $-1 $-1 $124 $185 #
vertex $-1 $125 $258 #
straight-curve $-1 -59.725652053849288 -39.711555183649956 4.8783932843725291 0 0 1 I I #
edge $-1 $202 -39.711555183649956 $199 39.711555183649956 $188 $259 forward 7 unknown #
coedge $-1 $127 $193 $249 $260 forward $194 $-1 #
vertex $-1 $197 $261 #
straight-curve $-1 -32.774059578604081 -39.711555183649956 7.5275115277517202 1 0 0 I I #
coedge $-1 $189 $129 $250 $262 reversed $71 $-1 #
vertex $-1 $197 $263 #
straight-curve $-1 -32.774059578604081 39.711555183649956 7.5275115277517202 -1 0 0 I I #
point $-1 -59.725652053849288 39.711555183649956 7.5275115277517202 #
point $-1 -59.725652053849288 -39.711555183649956 7.5275115277517202 #
loop $-1 $-1 $143 $135 #
plane-surface $-1 0 39.711555183649956 0 0 -1 0 0 0 -1 forward_v I I I I #
coedge $-1 $209 $138 $140 $213 reversed $79 $-1 #
coedge $-1 $138 $208 $264 $265 reversed $79 $-1 #
coedge $-1 $146 $141 $138 $211 forward $136 $-1 #
edge $-1 $214 -17.365686288276244 $266 -13.244297486846001 $210 $267 forward 7 unknown #
coedge $-1 $140 $139 $217 $268 reversed $49 $-1 #
edge $-1 $269 -79.423110367299898 $214 -72.574845173481748 $208 $270 forward 7 unknown #
vertex $-1 $142 $271 #
straight-curve $-1 -7.6723666519755653 35.590166382219714 11.986061609738407 1 0 0 I I #
coedge $-1 $264 $143 $146 $221 reversed $206 $-1 #
coedge $-1 $143 $264 $212 $268 forward $206 $-1 #
vertex $-1 $144 $272 #
straight-curve $-1 -34.661894247631679 39.711555183649956 77.925345593031153 0 0 1 I I #
straight-curve $-1 -34.661894247631679 -8.0864649540673383 69.946910698316429 0 0.60181501223851219 -0.79863551827123203 I I #
edge $-1 $266 -3.972427639729414 $147 34.661894247631679 $216 $273 forward 7 unknown #
point $-1 -34.661894247631679 39.711555183649956 11.986061609738398 #
point $-1 -34.661894247631679 35.590166382219714 11.9860616097384 #
edge $-1 $274 1 $274 0 $150 $-1 forward 7 unknown #
vertex $-1 $151 $275 #
ellipse-curve $-1 -23.623516565528504 35.016560295072289 7.2663399531996538 0 0.79863551827123203 0.60181501223851219 1 0 0 1 I I #
point $-1 -22.623516565528504 37.650860782934814 9.2514276985764923 #
edge $-1 $276 1 $276 0 $154 $-1 forward 7 unknown #
vertex $-1 $155 $277 #
ellipse-curve $-1 -7.0659500423737569 35.016560295072289 7.2663399531996538 0 0.79863551827123203 0.60181501223851219 1 0 0 1 I I #
point $-1 -6.0659500423737569 37.650860782934814 9.2514276985764923 #
plane-surface $-1 71.370586260567038 0 0 -1 0 0 0 0 1 forward_v I I I I #
coedge $-1 $163 $161 $165 $237 reversed $101 $-1 #
edge $-1 $176 -11.986061609738398 $239 11.986061609738398 $175 $278 forward 7 unknown #
vertex $-1 $237 $279 #
straight-curve $-1 -71.370586260567038 -39.711555183649956 0 0 0 -1 I I #
edge $-1 $235 -39.711555183649956 $239 39.711555183649956 $233 $280 forward 7 unknown #
straight-curve $-1 0 -39.711555183649956 -11.986061609738398 -1 0 0 I I #
vertex $-1 $168 $281 #
straight-curve $-1 0 39.711555183649956 -11.986061609738398 1 0 0 I I #
point $-1 71.370586260567038 39.711555183649956 -11.986061609738398 #
point $-1 71.370586260567038 -39.711555183649956 -11.986061609738398 #
straight-curve $-1 -71.370586260567038 0 11.986061609738398 0 -1 0 I I #
point $-1 -71.370586260567038 39.711555183649956 11.986061609738398 #
point $-1 -71.370586260567038 -39.711555183649956 11.986061609738398 #
straight-curve $-1 71.370586260567038 -39.711555183649956 0 0 0 -1 I I #
straight-curve $-1 71.370586260567038 39.711555183649956 0 0 0 -1 I I #
plane-surface $-1 0 -39.711555183649956 0 0 1 0 0 0 1 forward_v I I I I #
coedge $-1 $282 $188 $198 $260 reversed $120 $-1 #
coedge $-1 $188 $282 $201 $262 forward $120 $-1 #
coedge $-1 $283 $191 $189 $252 forward $186 $-1 #
edge $-1 $253 59.725652053849288 $284 71.370586260567038 $189 $285 forward 7 unknown #
vertex $-1 $252 $286 #
straight-curve $-1 -59.725652053849288 39.711555183649956 4.8783932843725291 0 0 -1 I I #
coedge $-1 $191 $283 $193 $257 forward $186 $-1 #
straight-curve $-1 -59.725652053849288 0 11.986061609738398 0 1 0 I I #
edge $-1 $287 -71.370586260567038 $195 -59.725652053849288 $193 $288 forward 7 unknown #
point $-1 -59.725652053849288 -39.711555183649956 11.986061609738396 #
straight-curve $-1 -71.370586260567038 0 7.5275115277517202 0 -1 0 I I #
edge $-1 $287 -11.986061609738398 $199 -7.5275115277517202 $249 $289 forward 7 unknown #
point $-1 -71.370586260567038 -39.711555183649956 7.5275115277517202 #
edge $-1 $284 -11.986061609738398 $202 -7.5275115277517202 $201 $290 forward 7 unknown #
point $-1 -71.370586260567038 39.711555183649956 7.5275115277517202 #
coedge $-1 $217 $216 $209 $265 forward $206 $-1 #
edge $-1 $266 65.939283983292754 $269 71.40855180561654 $264 $291 forward 7 unknown #
vertex $-1 $221 $292 #
straight-curve $-1 3.972427639729414 52.955852670495958 11.9860616097384 0 1 0 I I #
edge $-1 $269 -11.644794291704979 $218 26.989527595656114 $217 $293 forward 7 unknown #
vertex $-1 $268 $294 #
straight-curve $-1 3.972427639729414 -8.0864649540673383 69.946910698316429 0 -0.60181501223851219 0.79863551827123203 I I #
point $-1 3.972427639729414 35.590166382219714 11.9860616097384 #
point $-1 -34.661894247631679 39.711555183649956 6.5167937874146133 #
straight-curve $-1 0 39.711555183649956 11.986061609738398 -1 0 0 I I #
vertex $-1 $224 $295 #
point $-1 -22.623516565528504 35.016560295072289 7.2663399531996538 #
vertex $-1 $228 $296 #
point $-1 -6.0659500423737569 35.016560295072289 7.2663399531996538 #
straight-curve $-1 -71.370586260567038 39.711555183649956 0 0 0 -1 I I #
point $-1 -71.370586260567038 -39.711555183649956 -11.986061609738398 #
straight-curve $-1 -71.370586260567038 0 -11.986061609738398 0 1 0 I I #
point $-1 -71.370586260567038 39.711555183649956 -11.986061609738398 #
coedge $-1 $250 $249 $283 $297 reversed $120 $-1 #
coedge $-1 $255 $251 $282 $297 forward $186 $-1 #
vertex $-1 $252 $298 #
straight-curve $-1 0 39.711555183649956 11.986061609738398 -1 0 0 I I #
point $-1 -59.725652053849288 39.711555183649956 11.986061609738396 #
vertex $-1 $297 $299 #
straight-curve $-1 0 -39.711555183649956 11.986061609738398 1 0 0 I I #
straight-curve $-1 -71.370586260567038 -39.711555183649956 0 0 0 -1 I I #
straight-curve $-1 -71.370586260567038 39.711555183649956 0 0 0 -1 I I #
straight-curve $-1 3.972427639729414 39.711555183649956 77.925345593031153 0 0 -1 I I #
point $-1 3.972427639729414 39.711555183649956 11.986061609738398 #
straight-curve $-1 -7.6723666519755653 39.711555183649956 6.5167937874146133 -1 0 0 I I #
point $-1 3.972427639729414 39.711555183649956 6.5167937874146133 #
point $-1 -23.623516565528504 34.217924776801063 6.6645249409611411 #
point $-1 -7.0659500423737569 34.217924776801063 6.6645249409611411 #
edge $-1 $284 -39.711555183649956 $287 39.711555183649956 $282 $300 forward 7 unknown #
point $-1 -71.370586260567038 39.711555183649956 11.986061609738398 #
point $-1 -71.370586260567038 -39.711555183649956 11.986061609738398 #
straight-curve $-1 -71.370586260567038 0 11.986061609738398 0 -1 0 I I #
End-of-ACIS-data 