500 0 17 0           
7 Unknown 11 ACIS 5.0 NT 24 Thu Mar 25 15:17:25 1999 
-1 9.9999999999999995e-007 1e-010 
body $-1 $17 $-1 $18 #
body $-1 $19 $-1 $20 #
body $-1 $21 $-1 $22 #
body $-1 $23 $-1 $24 #
body $-1 $25 $-1 $26 #
body $-1 $27 $-1 $28 #
body $-1 $29 $-1 $30 #
body $-1 $31 $-1 $32 #
body $-1 $33 $-1 $34 #
body $-1 $35 $-1 $36 #
body $-1 $37 $-1 $38 #
body $-1 $39 $-1 $40 #
body $-1 $41 $-1 $42 #
body $-1 $43 $-1 $44 #
body $-1 $45 $-1 $46 #
body $-1 $47 $-1 $48 #
body $-1 $49 $-1 $50 #
lump $-1 $-1 $51 $0 #
transform $-1 1 0 0 0 1 0 0 0 1 45.172276985992006 29.539887153082134 12.390489303893434 1 rotate no_reflect no_shear #
lump $-1 $-1 $52 $1 #
transform $-1 1 0 0 0 1 0 0 0 1 45.172276985992006 29.539887153082134 12.390489303893434 1 rotate no_reflect no_shear #
lump $-1 $-1 $53 $2 #
transform $-1 1 0 0 0 1 0 0 0 1 45.172276985992006 29.539887153082134 12.390489303893434 1 rotate no_reflect no_shear #
lump $-1 $-1 $54 $3 #
transform $-1 1 0 0 0 1 0 0 0 1 45.172276985992006 29.539887153082134 12.390489303893434 1 rotate no_reflect no_shear #
lump $-1 $-1 $55 $4 #
transform $-1 1 0 0 0 1 0 0 0 1 45.172276985992006 29.539887153082134 12.390489303893434 1 rotate no_reflect no_shear #
lump $-1 $-1 $56 $5 #
transform $-1 1 0 0 0 1 0 0 0 1 45.172276985992006 29.539887153082134 12.390489303893434 1 rotate no_reflect no_shear #
lump $-1 $-1 $57 $6 #
transform $-1 1 0 0 0 1 0 0 0 1 45.172276985992006 29.539887153082134 12.390489303893434 1 rotate no_reflect no_shear #
lump $-1 $-1 $58 $7 #
transform $-1 1 0 0 0 1 0 0 0 1 45.172276985992006 29.539887153082134 12.390489303893434 1 rotate no_reflect no_shear #
lump $-1 $-1 $59 $8 #
transform $-1 1 0 0 0 1 0 0 0 1 45.172276985992006 29.539887153082134 12.390489303893434 1 rotate no_reflect no_shear #
lump $-1 $-1 $60 $9 #
transform $-1 1 0 0 0 1 0 0 0 1 45.172276985992006 29.539887153082134 12.390489303893434 1 rotate no_reflect no_shear #
lump $-1 $-1 $61 $10 #
transform $-1 1 0 0 0 1 0 0 0 1 45.172276985992006 29.539887153082134 12.390489303893434 1 rotate no_reflect no_shear #
lump $-1 $-1 $62 $11 #
transform $-1 1 0 0 0 1 0 0 0 1 45.172276985992006 29.539887153082134 12.390489303893434 1 rotate no_reflect no_shear #
lump $-1 $-1 $63 $12 #
transform $-1 1 0 0 0 1 0 0 0 1 45.172276985992006 29.539887153082134 12.390489303893434 1 rotate no_reflect no_shear #
lump $-1 $-1 $64 $13 #
transform $-1 1 0 0 0 1 0 0 0 1 45.172276985992006 29.539887153082134 12.390489303893434 1 rotate no_reflect no_shear #
lump $-1 $-1 $65 $14 #
transform $-1 1 0 0 0 1 0 0 0 1 45.172276985992006 29.539887153082134 12.390489303893434 1 rotate no_reflect no_shear #
lump $-1 $-1 $66 $15 #
transform $-1 1 0 0 0 1 0 0 0 1 45.172276985992006 29.539887153082134 12.390489303893434 1 rotate no_reflect no_shear #
lump $-1 $-1 $67 $16 #
transform $-1 1 0 0 0 1 0 0 0 1 45.172276985992006 29.539887153082134 12.390489303893434 1 rotate no_reflect no_shear #
shell $-1 $-1 $-1 $68 $-1 $17 #
shell $-1 $-1 $-1 $69 $-1 $19 #
shell $-1 $-1 $-1 $70 $-1 $21 #
shell $-1 $-1 $-1 $71 $-1 $23 #
shell $-1 $-1 $-1 $72 $-1 $25 #
shell $-1 $-1 $-1 $73 $-1 $27 #
shell $-1 $-1 $-1 $74 $-1 $29 #
shell $-1 $-1 $-1 $75 $-1 $31 #
shell $-1 $-1 $-1 $76 $-1 $33 #
shell $-1 $-1 $-1 $77 $-1 $35 #
shell $-1 $-1 $-1 $78 $-1 $37 #
shell $-1 $-1 $-1 $79 $-1 $39 #
shell $-1 $-1 $-1 $80 $-1 $41 #
shell $-1 $-1 $-1 $81 $-1 $43 #
shell $-1 $-1 $-1 $82 $-1 $45 #
shell $-1 $-1 $-1 $83 $-1 $47 #
shell $-1 $-1 $-1 $84 $-1 $49 #
face $-1 $85 $86 $51 $-1 $87 forward single #
face $-1 $88 $89 $52 $-1 $90 reversed single #
face $-1 $91 $92 $53 $-1 $93 reversed single #
face $-1 $94 $95 $54 $-1 $96 forward single #
face $-1 $97 $98 $55 $-1 $99 forward single #
face $-1 $100 $101 $56 $-1 $102 reversed single #
face $-1 $103 $104 $57 $-1 $105 forward single #
face $-1 $106 $107 $58 $-1 $108 forward single #
face $-1 $109 $110 $59 $-1 $111 reversed single #
face $-1 $112 $113 $60 $-1 $114 forward single #
face $-1 $115 $116 $61 $-1 $117 forward single #
face $-1 $118 $119 $62 $-1 $120 reversed single #
face $-1 $121 $122 $63 $-1 $123 forward single #
face $-1 $124 $125 $64 $-1 $126 forward single #
face $-1 $127 $128 $65 $-1 $129 reversed single #
face $-1 $130 $131 $66 $-1 $132 forward single #
face $-1 $133 $134 $67 $-1 $135 forward single #
face $-1 $136 $137 $51 $-1 $138 reversed single #
loop $-1 $-1 $139 $68 #
plane-surface $-1 0 0 12.390489303893434 0 0 1 1 0 0 forward_v I I I I #
face $-1 $140 $141 $52 $-1 $142 reversed single #
loop $-1 $-1 $143 $69 #
plane-surface $-1 -40.678609869489819 0 5.3667037078944428 0 0 1 1 0 0 forward_v I I I I #
face $-1 $144 $145 $53 $-1 $146 reversed single #
loop $-1 $-1 $147 $70 #
plane-surface $-1 -26.326635871610641 73.132055727866387 106.56705692520237 1 0 0 0 -0.83867057594974714 -0.54463902268945019 forward_v I I I I #
face $-1 $148 $149 $54 $-1 $150 forward single #
loop $-1 $151 $152 $71 #
cone-surface $-1 -22.102937371779269 27.584948707021979 9.7975466975761734 0 -0.83867057594974714 -0.54463902268945019 1 0 0 1 I I 0 1 1 forward I I I I #
face $-1 $153 $154 $55 $-1 $155 forward single #
loop $-1 $156 $157 $72 #
cone-surface $-1 -15.767389622032212 27.584948707021979 9.7975466975761734 0 -0.83867057594974714 -0.54463902268945019 1 0 0 1 I I 0 1 1 forward I I I I #
face $-1 $158 $159 $56 $-1 $160 reversed single #
loop $-1 $-1 $161 $73 #
plane-surface $-1 -17.90630231293347 -89.992194060628805 75.513923680358218 -1 0 0 0 -0.66913061440640931 0.74314481823134659 forward_v I I I I #
face $-1 $162 $163 $57 $-1 $164 forward single #
loop $-1 $165 $166 $74 #
cone-surface $-1 -24.46985132199724 -26.926578489640306 9.9568634169833228 0 0.66913061440640931 -0.74314481823134659 1 0 0 1 I I 0 1 1 forward I I I I #
face $-1 $167 $168 $58 $-1 $169 forward single #
loop $-1 $170 $171 $75 #
cone-surface $-1 -20.531721916558975 -26.926578489640306 9.9568634169833228 0 0.66913061440640931 -0.74314481823134659 1 0 0 1 I I 0 1 1 forward I I I I #
face $-1 $172 $173 $59 $-1 $174 reversed single #
loop $-1 $-1 $175 $76 #
plane-surface $-1 0.090000177586725627 -89.992194060628805 75.513923680358218 -1 0 0 0 -0.66913061440640931 0.74314481823134659 forward_v I I I I #
face $-1 $176 $177 $60 $-1 $178 forward single #
loop $-1 $179 $180 $77 #
cone-surface $-1 -6.4735488314770464 -26.926578489640306 9.9568634169833228 0 0.66913061440640931 -0.74314481823134659 1 0 0 1 I I 0 1 1 forward I I I I #
face $-1 $181 $182 $61 $-1 $183 forward single #
loop $-1 $184 $185 $78 #
cone-surface $-1 -2.5354194260387786 -26.926578489640306 9.9568634169833228 0 0.66913061440640931 -0.74314481823134659 1 0 0 1 I I 0 1 1 forward I I I I #
face $-1 $186 $187 $62 $-1 $188 reversed single #
loop $-1 $-1 $189 $79 #
plane-surface $-1 18.086302668106917 -89.992194060628805 75.513923680358218 -1 0 0 0 -0.66913061440640931 0.74314481823134659 forward_v I I I I #
face $-1 $190 $191 $63 $-1 $192 forward single #
loop $-1 $193 $194 $80 #
cone-surface $-1 11.522753659043147 -26.926578489640306 9.9568634169833228 0 0.66913061440640931 -0.74314481823134659 1 0 0 1 I I 0 1 1 forward I I I I #
face $-1 $195 $196 $64 $-1 $197 forward single #
loop $-1 $198 $199 $81 #
cone-surface $-1 15.460883064481415 -26.926578489640306 9.9568634169833228 0 0.66913061440640931 -0.74314481823134659 1 0 0 1 I I 0 1 1 forward I I I I #
face $-1 $200 $201 $65 $-1 $202 reversed single #
loop $-1 $-1 $203 $82 #
plane-surface $-1 36.082605158627111 -89.992194060628805 75.513923680358218 -1 0 0 0 -0.66913061440640931 0.74314481823134659 forward_v I I I I #
face $-1 $204 $205 $66 $-1 $206 forward single #
loop $-1 $207 $208 $83 #
cone-surface $-1 29.519056149563333 -26.926578489640306 9.9568634169833228 0 0.66913061440640931 -0.74314481823134659 1 0 0 1 I I 0 1 1 forward I I I I #
face $-1 $209 $210 $67 $-1 $211 forward single #
loop $-1 $212 $213 $84 #
cone-surface $-1 33.457185555001608 -26.926578489640306 9.9568634169833228 0 0.66913061440640931 -0.74314481823134659 1 0 0 1 I I 0 1 1 forward I I I I #
face $-1 $214 $215 $51 $-1 $216 reversed single #
loop $-1 $-1 $217 $85 #
plane-surface $-1 0 0 -12.390489303893434 0 0 1 1 0 0 forward_v I I I I #
coedge $-1 $218 $219 $220 $221 forward $86 $-1 #
face $-1 $222 $223 $52 $-1 $224 reversed single #
loop $-1 $-1 $225 $88 #
plane-surface $-1 -36.184942752987631 0 8.87859650589394 -1 0 0 0 0 1 forward_v I I I I #
coedge $-1 $226 $227 $228 $229 forward $89 $-1 #
face $-1 $230 $231 $53 $-1 $232 reversed single #
loop $-1 $-1 $233 $91 #
plane-surface $-1 -18.935163496905741 -2.6372633857404679 57.361887344586705 0 0.83867057594974714 0.54463902268945019 1 0 0 forward_v I I I I #
coedge $-1 $234 $235 $236 $237 reversed $92 $-1 #
face $-1 $-1 $238 $54 $-1 $239 forward single #
loop $-1 $240 $241 $94 #
cone-surface $-1 -22.102937371779269 26.696867030059906 9.2208197317334903 0 -0.83867057594974714 -0.54463902268945019 0.5 0 0 1 I I -0.70710678118654746 0.70710678118654746 0.5 forward I I I I #
loop $-1 $-1 $242 $71 #
coedge $-1 $152 $152 $243 $244 reversed $95 $-1 #
face $-1 $-1 $245 $55 $-1 $246 forward single #
loop $-1 $247 $248 $97 #
cone-surface $-1 -15.767389622032212 26.696867030059906 9.2208197317334903 0 -0.83867057594974714 -0.54463902268945019 0.5 0 0 1 I I -0.70710678118654746 0.70710678118654746 0.5 forward I I I I #
loop $-1 $-1 $249 $72 #
coedge $-1 $157 $157 $250 $251 reversed $98 $-1 #
face $-1 $252 $253 $56 $-1 $254 reversed single #
loop $-1 $-1 $255 $100 #
plane-surface $-1 -22.500786619278109 -29.539887153082134 8.3748365406560765 0 -0.66913061440640931 0.74314481823134659 1 0 0 forward_v I I I I #
coedge $-1 $256 $257 $258 $259 reversed $101 $-1 #
face $-1 $-1 $260 $57 $-1 $261 forward single #
loop $-1 $262 $263 $103 #
cone-surface $-1 -24.46985132199724 -26.208621577463404 9.1594915025762145 0 0.66913061440640931 -0.74314481823134659 0.5 0 0 1 I I -0.70710678118654746 0.70710678118654746 0.5 forward I I I I #
loop $-1 $-1 $264 $74 #
coedge $-1 $166 $166 $265 $266 reversed $104 $-1 #
face $-1 $-1 $267 $58 $-1 $268 forward single #
loop $-1 $269 $270 $106 #
cone-surface $-1 -20.531721916558975 -26.208621577463404 9.1594915025762145 0 0.66913061440640931 -0.74314481823134659 0.5 0 0 1 I I -0.70710678118654746 0.70710678118654746 0.5 forward I I I I #
loop $-1 $-1 $271 $75 #
coedge $-1 $171 $171 $272 $273 reversed $107 $-1 #
face $-1 $274 $275 $59 $-1 $276 reversed single #
loop $-1 $-1 $277 $109 #
plane-surface $-1 -4.504484128757916 -29.539887153082134 8.3748365406560765 0 -0.66913061440640931 0.74314481823134659 1 0 0 forward_v I I I I #
coedge $-1 $278 $279 $280 $281 reversed $110 $-1 #
face $-1 $-1 $282 $60 $-1 $283 forward single #
loop $-1 $284 $285 $112 #
cone-surface $-1 -6.4735488314770464 -26.208621577463404 9.1594915025762145 0 0.66913061440640931 -0.74314481823134659 0.5 0 0 1 I I -0.70710678118654746 0.70710678118654746 0.5 forward I I I I #
loop $-1 $-1 $286 $77 #
coedge $-1 $180 $180 $287 $288 reversed $113 $-1 #
face $-1 $-1 $289 $61 $-1 $290 forward single #
loop $-1 $291 $292 $115 #
cone-surface $-1 -2.5354194260387786 -26.208621577463404 9.1594915025762145 0 0.66913061440640931 -0.74314481823134659 0.5 0 0 1 I I -0.70710678118654746 0.70710678118654746 0.5 forward I I I I #
loop $-1 $-1 $293 $78 #
coedge $-1 $185 $185 $294 $295 reversed $116 $-1 #
face $-1 $296 $297 $62 $-1 $298 reversed single #
loop $-1 $-1 $299 $118 #
plane-surface $-1 13.491818361762277 -29.539887153082134 8.3748365406560765 0 -0.66913061440640931 0.74314481823134659 1 0 0 forward_v I I I I #
coedge $-1 $300 $301 $302 $303 reversed $119 $-1 #
face $-1 $-1 $304 $63 $-1 $305 forward single #
loop $-1 $306 $307 $121 #
cone-surface $-1 11.522753659043147 -26.208621577463404 9.1594915025762145 0 0.66913061440640931 -0.74314481823134659 0.5 0 0 1 I I -0.70710678118654746 0.70710678118654746 0.5 forward I I I I #
loop $-1 $-1 $308 $80 #
coedge $-1 $194 $194 $309 $310 reversed $122 $-1 #
face $-1 $-1 $311 $64 $-1 $312 forward single #
loop $-1 $313 $314 $124 #
cone-surface $-1 15.460883064481415 -26.208621577463404 9.1594915025762145 0 0.66913061440640931 -0.74314481823134659 0.5 0 0 1 I I -0.70710678118654746 0.70710678118654746 0.5 forward I I I I #
loop $-1 $-1 $315 $81 #
coedge $-1 $199 $199 $316 $317 reversed $125 $-1 #
face $-1 $318 $319 $65 $-1 $320 reversed single #
loop $-1 $-1 $321 $127 #
plane-surface $-1 31.488120852282471 -29.539887153082134 8.3748365406560765 0 -0.66913061440640931 0.74314481823134659 1 0 0 forward_v I I I I #
coedge $-1 $322 $323 $324 $325 reversed $128 $-1 #
face $-1 $-1 $326 $66 $-1 $327 forward single #
loop $-1 $328 $329 $130 #
cone-surface $-1 29.519056149563333 -26.208621577463404 9.1594915025762145 0 0.66913061440640931 -0.74314481823134659 0.5 0 0 1 I I -0.70710678118654746 0.70710678118654746 0.5 forward I I I I #
loop $-1 $-1 $330 $83 #
coedge $-1 $208 $208 $331 $332 reversed $131 $-1 #
face $-1 $-1 $333 $67 $-1 $334 forward single #
loop $-1 $335 $336 $133 #
cone-surface $-1 33.457185555001608 -26.208621577463404 9.1594915025762145 0 0.66913061440640931 -0.74314481823134659 0.5 0 0 1 I I -0.70710678118654746 0.70710678118654746 0.5 forward I I I I #
loop $-1 $-1 $337 $84 #
coedge $-1 $213 $213 $338 $339 reversed $134 $-1 #
face $-1 $340 $341 $51 $-1 $342 reversed single #
loop $-1 $-1 $343 $136 #
plane-surface $-1 0 -29.539887153082134 0 0 1 0 0 0 1 forward_v I I I I #
coedge $-1 $344 $345 $346 $347 forward $137 $-1 #
coedge $-1 $348 $139 $349 $350 forward $86 $-1 #
coedge $-1 $139 $348 $351 $352 forward $86 $-1 #
coedge $-1 $353 $354 $139 $221 reversed $355 $-1 #
edge $-1 $356 -29.539887153082134 $357 29.539887153082134 $220 $358 forward 7 unknown #
face $-1 $359 $360 $52 $-1 $361 reversed single #
loop $-1 $-1 $362 $140 #
plane-surface $-1 0 29.539887153082134 0 0 -1 0 0 0 -1 forward_v I I I I #
coedge $-1 $228 $363 $364 $365 reversed $141 $-1 #
coedge $-1 $366 $143 $367 $368 reversed $89 $-1 #
coedge $-1 $143 $366 $369 $370 reversed $89 $-1 #
coedge $-1 $371 $225 $143 $229 reversed $141 $-1 #
edge $-1 $372 -29.539887153082134 $373 29.539887153082134 $228 $374 forward 7 unknown #
face $-1 $375 $376 $53 $-1 $377 forward single #
loop $-1 $-1 $378 $144 #
plane-surface $-1 -11.54369112220084 73.132055727866387 106.56705692520237 -1 0 0 0 0.83867057594974714 0.54463902268945019 forward_v I I I I #
coedge $-1 $379 $380 $381 $382 reversed $145 $-1 #
coedge $-1 $235 $147 $383 $384 reversed $92 $-1 #
coedge $-1 $147 $234 $379 $385 reversed $92 $-1 #
coedge $-1 $381 $386 $147 $237 forward $376 $-1 #
edge $-1 $387 7.0261407108510596 $388 9.99852482499697 $236 $389 forward 7 unknown #
loop $-1 $-1 $243 $148 #
plane-surface $-1 -18.935163496905741 -2.6372633857404679 57.361887344586705 0 0.83867057594974714 0.54463902268945019 1 0 0 forward_v I I I I #
loop $-1 $-1 $390 $94 #
coedge $-1 $241 $241 $242 $391 reversed $149 $-1 #
coedge $-1 $242 $242 $241 $391 forward $151 $-1 #
coedge $-1 $243 $243 $152 $244 forward $238 $-1 #
edge $-1 $392 0 $392 6.2831853071796004 $243 $393 forward 7 unknown #
loop $-1 $-1 $250 $153 #
plane-surface $-1 -18.935163496905741 -2.6372633857404679 57.361887344586705 0 0.83867057594974714 0.54463902268945019 1 0 0 forward_v I I I I #
loop $-1 $-1 $394 $97 #
coedge $-1 $248 $248 $249 $395 reversed $154 $-1 #
coedge $-1 $249 $249 $248 $395 forward $156 $-1 #
coedge $-1 $250 $250 $157 $251 forward $245 $-1 #
edge $-1 $396 0 $396 6.2831853071796004 $250 $397 forward 7 unknown #
face $-1 $398 $399 $56 $-1 $400 reversed single #
loop $-1 $-1 $401 $158 #
plane-surface $-1 -27.095270925622749 -89.992194060628805 75.513923680358218 1 0 0 0 0.66913061440640931 -0.74314481823134659 forward_v I I I I #
coedge $-1 $402 $403 $404 $405 reversed $159 $-1 #
coedge $-1 $257 $161 $406 $407 reversed $101 $-1 #
coedge $-1 $161 $256 $402 $408 reversed $101 $-1 #
coedge $-1 $404 $409 $161 $259 forward $410 $-1 #
edge $-1 $411 15.456209877232268 $412 19.916043994168536 $258 $413 forward 7 unknown #
loop $-1 $-1 $265 $162 #
plane-surface $-1 -22.500786619278109 -29.539887153082134 8.3748365406560765 0 -0.66913061440640931 0.74314481823134659 1 0 0 forward_v I I I I #
loop $-1 $-1 $414 $103 #
coedge $-1 $263 $263 $264 $415 reversed $163 $-1 #
coedge $-1 $264 $264 $263 $415 forward $165 $-1 #
coedge $-1 $265 $265 $166 $266 forward $260 $-1 #
edge $-1 $416 -1.4515660177073e-015 $416 6.2831853071795987 $265 $417 forward 7 unknown #
loop $-1 $-1 $272 $167 #
plane-surface $-1 -22.500786619278109 -29.539887153082134 8.3748365406560765 0 -0.66913061440640931 0.74314481823134659 1 0 0 forward_v I I I I #
loop $-1 $-1 $418 $106 #
coedge $-1 $270 $270 $271 $419 reversed $168 $-1 #
coedge $-1 $271 $271 $270 $419 forward $170 $-1 #
coedge $-1 $272 $272 $171 $273 forward $267 $-1 #
edge $-1 $420 -1.4515660177073e-015 $420 6.2831853071795987 $272 $421 forward 7 unknown #
face $-1 $422 $423 $59 $-1 $424 reversed single #
loop $-1 $-1 $425 $172 #
plane-surface $-1 -9.0989684351025577 -89.992194060628805 75.513923680358218 1 0 0 0 0.66913061440640931 -0.74314481823134659 forward_v I I I I #
coedge $-1 $426 $427 $428 $429 reversed $173 $-1 #
coedge $-1 $279 $175 $430 $431 reversed $110 $-1 #
coedge $-1 $175 $278 $426 $432 reversed $110 $-1 #
coedge $-1 $428 $433 $175 $281 forward $434 $-1 #
edge $-1 $435 15.456209877232268 $436 19.916043994168536 $280 $437 forward 7 unknown #
loop $-1 $-1 $287 $176 #
plane-surface $-1 -4.504484128757916 -29.539887153082134 8.3748365406560765 0 -0.66913061440640931 0.74314481823134659 1 0 0 forward_v I I I I #
loop $-1 $-1 $438 $112 #
coedge $-1 $285 $285 $286 $439 reversed $177 $-1 #
coedge $-1 $286 $286 $285 $439 forward $179 $-1 #
coedge $-1 $287 $287 $180 $288 forward $282 $-1 #
edge $-1 $440 -1.4515660177073e-015 $440 6.2831853071795987 $287 $441 forward 7 unknown #
loop $-1 $-1 $294 $181 #
plane-surface $-1 -4.504484128757916 -29.539887153082134 8.3748365406560765 0 -0.66913061440640931 0.74314481823134659 1 0 0 forward_v I I I I #
loop $-1 $-1 $442 $115 #
coedge $-1 $292 $292 $293 $443 reversed $182 $-1 #
coedge $-1 $293 $293 $292 $443 forward $184 $-1 #
coedge $-1 $294 $294 $185 $295 forward $289 $-1 #
edge $-1 $444 -1.4515660177073e-015 $444 6.2831853071795987 $294 $445 forward 7 unknown #
face $-1 $446 $447 $62 $-1 $448 reversed single #
loop $-1 $-1 $449 $186 #
plane-surface $-1 8.8973340554176357 -89.992194060628805 75.513923680358218 1 0 0 0 0.66913061440640931 -0.74314481823134659 forward_v I I I I #
coedge $-1 $450 $451 $452 $453 reversed $187 $-1 #
coedge $-1 $301 $189 $454 $455 reversed $119 $-1 #
coedge $-1 $189 $300 $450 $456 reversed $119 $-1 #
coedge $-1 $452 $457 $189 $303 forward $458 $-1 #
edge $-1 $459 15.456209877232268 $460 19.916043994168536 $302 $461 forward 7 unknown #
loop $-1 $-1 $309 $190 #
plane-surface $-1 13.491818361762277 -29.539887153082134 8.3748365406560765 0 -0.66913061440640931 0.74314481823134659 1 0 0 forward_v I I I I #
loop $-1 $-1 $462 $121 #
coedge $-1 $307 $307 $308 $463 reversed $191 $-1 #
coedge $-1 $308 $308 $307 $463 forward $193 $-1 #
coedge $-1 $309 $309 $194 $310 forward $304 $-1 #
edge $-1 $464 -1.4515660177073e-015 $464 6.2831853071795987 $309 $465 forward 7 unknown #
loop $-1 $-1 $316 $195 #
plane-surface $-1 13.491818361762277 -29.539887153082134 8.3748365406560765 0 -0.66913061440640931 0.74314481823134659 1 0 0 forward_v I I I I #
loop $-1 $-1 $466 $124 #
coedge $-1 $314 $314 $315 $467 reversed $196 $-1 #
coedge $-1 $315 $315 $314 $467 forward $198 $-1 #
coedge $-1 $316 $316 $199 $317 forward $311 $-1 #
edge $-1 $468 -1.4515660177073e-015 $468 6.2831853071795987 $316 $469 forward 7 unknown #
face $-1 $470 $471 $65 $-1 $472 reversed single #
loop $-1 $-1 $473 $200 #
plane-surface $-1 26.893636545937831 -89.992194060628805 75.513923680358218 1 0 0 0 0.66913061440640931 -0.74314481823134659 forward_v I I I I #
coedge $-1 $474 $475 $476 $477 reversed $201 $-1 #
coedge $-1 $323 $203 $478 $479 reversed $128 $-1 #
coedge $-1 $203 $322 $474 $480 reversed $128 $-1 #
coedge $-1 $476 $481 $203 $325 forward $482 $-1 #
edge $-1 $483 15.456209877232268 $484 19.916043994168536 $324 $485 forward 7 unknown #
loop $-1 $-1 $331 $204 #
plane-surface $-1 31.488120852282471 -29.539887153082134 8.3748365406560765 0 -0.66913061440640931 0.74314481823134659 1 0 0 forward_v I I I I #
loop $-1 $-1 $486 $130 #
coedge $-1 $329 $329 $330 $487 reversed $205 $-1 #
coedge $-1 $330 $330 $329 $487 forward $207 $-1 #
coedge $-1 $331 $331 $208 $332 forward $326 $-1 #
edge $-1 $488 -1.4515660177073e-015 $488 6.2831853071795987 $331 $489 forward 7 unknown #
loop $-1 $-1 $338 $209 #
plane-surface $-1 31.488120852282471 -29.539887153082134 8.3748365406560765 0 -0.66913061440640931 0.74314481823134659 1 0 0 forward_v I I I I #
loop $-1 $-1 $490 $133 #
coedge $-1 $336 $336 $337 $491 reversed $210 $-1 #
coedge $-1 $337 $337 $336 $491 forward $212 $-1 #
coedge $-1 $338 $338 $213 $339 forward $333 $-1 #
edge $-1 $492 -1.4515660177073e-015 $492 6.2831853071795987 $338 $493 forward 7 unknown #
face $-1 $494 $495 $51 $-1 $496 reversed single #
loop $-1 $-1 $497 $214 #
plane-surface $-1 -45.172276985992006 0 0 1 0 0 0 0 -1 forward_v I I I I #
coedge $-1 $498 $351 $499 $500 forward $215 $-1 #
coedge $-1 $501 $217 $498 $502 forward $137 $-1 #
coedge $-1 $217 $501 $503 $504 forward $137 $-1 #
coedge $-1 $354 $353 $217 $347 reversed $355 $-1 #
edge $-1 $505 -29.539887153082134 $506 29.539887153082134 $346 $507 forward 7 unknown #
coedge $-1 $219 $218 $508 $509 forward $86 $-1 #
coedge $-1 $510 $511 $218 $350 reversed $495 $-1 #
edge $-1 $357 -45.172276985992006 $512 45.172276985992006 $349 $513 forward 7 unknown #
coedge $-1 $343 $514 $219 $352 reversed $215 $-1 #
edge $-1 $515 -45.172276985992006 $356 45.172276985992006 $351 $516 forward 7 unknown #
coedge $-1 $346 $220 $514 $517 forward $355 $-1 #
coedge $-1 $220 $346 $510 $518 reversed $355 $-1 #
loop $-1 $-1 $353 $494 #
vertex $-1 $221 $519 #
vertex $-1 $221 $520 #
straight-curve $-1 45.172276985992006 0 12.390489303893434 0 1 0 I I #
face $-1 $521 $522 $52 $-1 $523 forward single #
loop $-1 $-1 $524 $222 #
plane-surface $-1 -45.172276985992006 0 0 1 0 0 0 0 -1 forward_v I I I I #
coedge $-1 $369 $525 $371 $526 forward $223 $-1 #
coedge $-1 $225 $371 $527 $528 reversed $141 $-1 #
coedge $-1 $529 $367 $225 $365 forward $530 $-1 #
edge $-1 $373 0.92740545494747284 $531 7.9511910509464672 $364 $532 forward 7 unknown #
coedge $-1 $227 $226 $524 $533 reversed $89 $-1 #
coedge $-1 $364 $534 $226 $368 forward $530 $-1 #
edge $-1 $535 -24.832972051247097 $373 -15.845637818242722 $367 $536 forward 7 unknown #
coedge $-1 $537 $362 $227 $370 forward $223 $-1 #
edge $-1 $372 15.845637818242722 $538 24.832972051247097 $369 $539 forward 7 unknown #
coedge $-1 $363 $228 $362 $526 reversed $141 $-1 #
vertex $-1 $370 $540 #
vertex $-1 $368 $541 #
straight-curve $-1 -36.184942752987631 0 5.3667037078944428 0 -1 0 I I #
face $-1 $-1 $542 $53 $-1 $543 reversed single #
loop $-1 $-1 $236 $230 #
plane-surface $-1 0 0 12.390489303893434 0 0 1 1 0 0 forward_v I I I I #
coedge $-1 $544 $545 $546 $547 reversed $231 $-1 #
coedge $-1 $548 $233 $235 $385 forward $145 $-1 #
coedge $-1 $233 $548 $544 $549 forward $145 $-1 #
coedge $-1 $546 $236 $233 $382 forward $376 $-1 #
edge $-1 $388 -16.859054123157769 $550 -2.0761093737479701 $381 $551 forward 7 unknown #
coedge $-1 $552 $553 $234 $384 forward $542 $-1 #
edge $-1 $554 -45.470109462346343 $387 -40.893039158707751 $383 $555 forward 7 unknown #
edge $-1 $388 53.622243739463144 $554 59.079774306164275 $235 $556 forward 7 unknown #
coedge $-1 $236 $546 $552 $557 forward $376 $-1 #
vertex $-1 $384 $558 #
vertex $-1 $237 $559 #
straight-curve $-1 -26.326635871610641 36.566027863933193 12.390489303893432 0 -1 0 I I #
coedge $-1 $390 $390 $-1 $560 reversed $240 $-1 #
edge $-1 $561 0 $561 6.2831853071796004 $241 $562 forward 7 unknown #
vertex $-1 $244 $563 #
ellipse-curve $-1 -22.102937371779269 28.053695096009182 10.10195415207413 0 0.83867057594974714 0.54463902268945019 1 0 0 1 I I #
coedge $-1 $394 $394 $-1 $564 reversed $247 $-1 #
edge $-1 $565 0 $565 6.2831853071796004 $248 $566 forward 7 unknown #
vertex $-1 $251 $567 #
ellipse-curve $-1 -15.767389622032212 28.053695096009182 10.10195415207413 0 0.83867057594974714 0.54463902268945019 1 0 0 1 I I #
face $-1 $-1 $410 $56 $-1 $568 forward single #
loop $-1 $-1 $569 $252 #
plane-surface $-1 0 -29.539887153082134 0 0 1 0 0 0 1 forward_v I I I I #
coedge $-1 $570 $571 $572 $573 reversed $253 $-1 #
coedge $-1 $574 $255 $257 $408 forward $159 $-1 #
coedge $-1 $255 $574 $570 $575 forward $159 $-1 #
coedge $-1 $572 $258 $255 $405 forward $410 $-1 #
edge $-1 $412 6.6559090032944148 $576 15.844877615983695 $404 $577 forward 7 unknown #
coedge $-1 $578 $579 $256 $407 forward $399 $-1 #
edge $-1 $580 -29.382125299523032 $411 -25.366472536285677 $406 $581 forward 7 unknown #
edge $-1 $412 -6.0012988148803688 $580 0 $257 $582 forward 7 unknown #
coedge $-1 $258 $572 $578 $583 forward $410 $-1 #
loop $-1 $-1 $572 $398 #
vertex $-1 $407 $584 #
vertex $-1 $259 $585 #
straight-curve $-1 -17.90630231293347 -44.996097030314402 12.390489303893432 0 1 0 I I #
coedge $-1 $414 $414 $-1 $586 reversed $262 $-1 #
edge $-1 $587 0 $587 6.2831853071796004 $263 $588 forward 7 unknown #
vertex $-1 $266 $589 #
ellipse-curve $-1 -24.46985132199724 -27.309970094614002 10.382662922274754 0 -0.66913061440640931 0.74314481823134659 1 0 0 1 I I #
coedge $-1 $418 $418 $-1 $590 reversed $269 $-1 #
edge $-1 $591 0 $591 6.2831853071796004 $270 $592 forward 7 unknown #
vertex $-1 $273 $593 #
ellipse-curve $-1 -20.531721916558975 -27.309970094614002 10.382662922274754 0 -0.66913061440640931 0.74314481823134659 1 0 0 1 I I #
face $-1 $-1 $434 $59 $-1 $594 forward single #
loop $-1 $-1 $595 $274 #
plane-surface $-1 0 -29.539887153082134 0 0 1 0 0 0 1 forward_v I I I I #
coedge $-1 $596 $597 $598 $599 reversed $275 $-1 #
coedge $-1 $600 $277 $279 $432 forward $173 $-1 #
coedge $-1 $277 $600 $596 $601 forward $173 $-1 #
coedge $-1 $598 $280 $277 $429 forward $434 $-1 #
edge $-1 $436 -2.3422422419656836 $602 6.8467263707235997 $428 $603 forward 7 unknown #
coedge $-1 $604 $605 $278 $431 forward $423 $-1 #
edge $-1 $606 -29.382125299523032 $435 -25.366472536285677 $430 $607 forward 7 unknown #
edge $-1 $436 -6.0012988148803688 $606 0 $279 $608 forward 7 unknown #
coedge $-1 $280 $598 $604 $609 forward $434 $-1 #
loop $-1 $-1 $598 $422 #
vertex $-1 $431 $610 #
vertex $-1 $281 $611 #
straight-curve $-1 0.090000177586725627 -44.996097030314402 12.390489303893432 0 1 0 I I #
coedge $-1 $438 $438 $-1 $612 reversed $284 $-1 #
edge $-1 $613 0 $613 6.2831853071796004 $285 $614 forward 7 unknown #
vertex $-1 $288 $615 #
ellipse-curve $-1 -6.4735488314770464 -27.309970094614002 10.382662922274754 0 -0.66913061440640931 0.74314481823134659 1 0 0 1 I I #
coedge $-1 $442 $442 $-1 $616 reversed $291 $-1 #
edge $-1 $617 0 $617 6.2831853071796004 $292 $618 forward 7 unknown #
vertex $-1 $295 $619 #
ellipse-curve $-1 -2.5354194260387786 -27.309970094614002 10.382662922274754 0 -0.66913061440640931 0.74314481823134659 1 0 0 1 I I #
face $-1 $-1 $458 $62 $-1 $620 forward single #
loop $-1 $-1 $621 $296 #
plane-surface $-1 0 -29.539887153082134 0 0 1 0 0 0 1 forward_v I I I I #
coedge $-1 $622 $623 $624 $625 reversed $297 $-1 #
coedge $-1 $626 $299 $301 $456 forward $187 $-1 #
coedge $-1 $299 $626 $622 $627 forward $187 $-1 #
coedge $-1 $624 $302 $299 $453 forward $458 $-1 #
edge $-1 $460 -11.340393487225779 $628 -2.151424874536497 $452 $629 forward 7 unknown #
coedge $-1 $630 $631 $300 $455 forward $447 $-1 #
edge $-1 $632 -29.382125299523032 $459 -25.366472536285677 $454 $633 forward 7 unknown #
edge $-1 $460 -6.0012988148803688 $632 0 $301 $634 forward 7 unknown #
coedge $-1 $302 $624 $630 $635 forward $458 $-1 #
loop $-1 $-1 $624 $446 #
vertex $-1 $455 $636 #
vertex $-1 $303 $637 #
straight-curve $-1 18.086302668106917 -44.996097030314402 12.390489303893432 0 1 0 I I #
coedge $-1 $462 $462 $-1 $638 reversed $306 $-1 #
edge $-1 $639 0 $639 6.2831853071796004 $307 $640 forward 7 unknown #
vertex $-1 $310 $641 #
ellipse-curve $-1 11.522753659043147 -27.309970094614002 10.382662922274754 0 -0.66913061440640931 0.74314481823134659 1 0 0 1 I I #
coedge $-1 $466 $466 $-1 $642 reversed $313 $-1 #
edge $-1 $643 0 $643 6.2831853071796004 $314 $644 forward 7 unknown #
vertex $-1 $317 $645 #
ellipse-curve $-1 15.460883064481415 -27.309970094614002 10.382662922274754 0 -0.66913061440640931 0.74314481823134659 1 0 0 1 I I #
face $-1 $-1 $482 $65 $-1 $646 forward single #
loop $-1 $-1 $647 $318 #
plane-surface $-1 0 -29.539887153082134 0 0 1 0 0 0 1 forward_v I I I I #
coedge $-1 $648 $649 $650 $651 reversed $319 $-1 #
coedge $-1 $652 $321 $323 $480 forward $201 $-1 #
coedge $-1 $321 $652 $648 $653 forward $201 $-1 #
coedge $-1 $650 $324 $321 $477 forward $482 $-1 #
edge $-1 $484 -20.338544732485875 $654 -11.149576119796595 $476 $655 forward 7 unknown #
coedge $-1 $656 $657 $322 $479 forward $471 $-1 #
edge $-1 $658 -29.382125299523032 $483 -25.366472536285677 $478 $659 forward 7 unknown #
edge $-1 $484 -6.0012988148803688 $658 0 $323 $660 forward 7 unknown #
coedge $-1 $324 $650 $656 $661 forward $482 $-1 #
loop $-1 $-1 $650 $470 #
vertex $-1 $479 $662 #
vertex $-1 $325 $663 #
straight-curve $-1 36.082605158627111 -44.996097030314402 12.390489303893432 0 1 0 I I #
coedge $-1 $486 $486 $-1 $664 reversed $328 $-1 #
edge $-1 $665 0 $665 6.2831853071796004 $329 $666 forward 7 unknown #
vertex $-1 $332 $667 #
ellipse-curve $-1 29.519056149563333 -27.309970094614002 10.382662922274754 0 -0.66913061440640931 0.74314481823134659 1 0 0 1 I I #
coedge $-1 $490 $490 $-1 $668 reversed $335 $-1 #
edge $-1 $669 0 $669 6.2831853071796004 $336 $670 forward 7 unknown #
vertex $-1 $339 $671 #
ellipse-curve $-1 33.457185555001608 -27.309970094614002 10.382662922274754 0 -0.66913061440640931 0.74314481823134659 1 0 0 1 I I #
face $-1 $-1 $355 $51 $-1 $672 reversed single #
loop $-1 $-1 $510 $340 #
plane-surface $-1 0 29.539887153082134 0 0 -1 0 0 0 -1 forward_v I I I I #
coedge $-1 $673 $508 $511 $674 forward $341 $-1 #
coedge $-1 $514 $343 $344 $502 reversed $215 $-1 #
coedge $-1 $508 $673 $343 $500 reversed $341 $-1 #
edge $-1 $515 -12.390489303893434 $675 12.390489303893434 $499 $676 forward 7 unknown #
coedge $-1 $345 $344 $673 $677 forward $137 $-1 #
edge $-1 $506 -45.172276985992006 $675 45.172276985992006 $498 $678 forward 7 unknown #
coedge $-1 $511 $510 $345 $504 reversed $495 $-1 #
edge $-1 $679 -45.172276985992006 $505 45.172276985992006 $503 $680 forward 7 unknown #
vertex $-1 $347 $681 #
vertex $-1 $517 $682 #
straight-curve $-1 45.172276985992006 0 -12.390489303893434 0 -1 0 I I #
coedge $-1 $497 $499 $348 $509 reversed $341 $-1 #
edge $-1 $512 -29.539887153082134 $515 29.539887153082134 $508 $683 forward 7 unknown #
coedge $-1 $503 $349 $354 $518 forward $495 $-1 #
coedge $-1 $349 $503 $497 $674 reversed $495 $-1 #
vertex $-1 $350 $684 #
straight-curve $-1 0 29.539887153082134 12.390489303893434 -1 0 0 I I #
coedge $-1 $351 $498 $353 $517 reversed $215 $-1 #
vertex $-1 $509 $685 #
straight-curve $-1 0 -29.539887153082134 12.390489303893434 1 0 0 I I #
edge $-1 $356 -12.390489303893434 $506 12.390489303893434 $353 $686 forward 7 unknown #
edge $-1 $357 -12.390489303893434 $505 12.390489303893434 $354 $687 forward 7 unknown #
point $-1 45.172276985992006 -29.539887153082134 12.390489303893434 #
point $-1 45.172276985992006 29.539887153082134 12.390489303893434 #
face $-1 $-1 $530 $52 $-1 $688 reversed single #
loop $-1 $-1 $527 $359 #
plane-surface $-1 0 0 12.390489303893434 0 0 1 1 0 0 forward_v I I I I #
coedge $-1 $689 $690 $366 $533 forward $360 $-1 #
coedge $-1 $362 $537 $691 $692 reversed $223 $-1 #
edge $-1 $693 -7.9511910509464672 $372 -0.92740545494747284 $362 $694 forward 7 unknown #
coedge $-1 $691 $695 $363 $528 forward $522 $-1 #
edge $-1 $531 -29.539887153082134 $693 29.539887153082134 $527 $696 forward 7 unknown #
coedge $-1 $534 $364 $695 $697 reversed $530 $-1 #
loop $-1 $-1 $364 $521 #
vertex $-1 $365 $698 #
straight-curve $-1 -36.184942752987631 -29.539887153082134 4.43929825294697 0 0 1 I I #
edge $-1 $538 -29.539887153082134 $535 29.539887153082134 $524 $699 forward 7 unknown #
coedge $-1 $367 $529 $689 $700 forward $530 $-1 #
vertex $-1 $533 $701 #
straight-curve $-1 -20.339304934744909 -29.539887153082134 5.3667037078944428 1 0 0 I I #
coedge $-1 $525 $369 $690 $702 reversed $223 $-1 #
vertex $-1 $533 $703 #
straight-curve $-1 -20.339304934744909 29.539887153082134 5.3667037078944428 -1 0 0 I I #
point $-1 -36.184942752987631 29.539887153082134 5.3667037078944428 #
point $-1 -36.184942752987631 -29.539887153082134 5.3667037078944428 #
loop $-1 $-1 $383 $375 #
plane-surface $-1 0 29.539887153082134 0 0 -1 0 0 0 -1 forward_v I I I I #
coedge $-1 $545 $378 $380 $549 reversed $231 $-1 #
coedge $-1 $378 $544 $704 $705 reversed $231 $-1 #
coedge $-1 $386 $381 $378 $547 forward $376 $-1 #
edge $-1 $550 -9.99852482499697 $706 -7.0261407108510596 $546 $707 forward 7 unknown #
coedge $-1 $380 $379 $553 $708 reversed $145 $-1 #
edge $-1 $709 -59.079774306164275 $550 -53.622243739463144 $544 $710 forward 7 unknown #
vertex $-1 $382 $711 #
straight-curve $-1 -9.4675817484528704 26.567503038936223 12.390489303893432 1 0 0 I I #
coedge $-1 $704 $383 $386 $557 reversed $542 $-1 #
coedge $-1 $383 $704 $548 $708 forward $542 $-1 #
vertex $-1 $384 $712 #
straight-curve $-1 -26.326635871610641 29.539887153082134 53.283528462601183 0 0 1 I I #
straight-curve $-1 -26.326635871610641 -2.6372633857404679 57.361887344586705 0 0.54463902268945019 -0.83867057594974714 I I #
edge $-1 $706 11.54369112220084 $387 26.326635871610641 $552 $713 forward 7 unknown #
point $-1 -26.326635871610641 29.539887153082134 12.390489303893434 #
point $-1 -26.326635871610641 26.567503038936223 12.390489303893432 #
edge $-1 $714 1 $714 0 $390 $-1 forward 7 unknown #
vertex $-1 $391 $715 #
ellipse-curve $-1 -22.102937371779269 27.11620231803478 9.4931392430782147 0 0.83867057594974714 0.54463902268945019 1 0 0 1 I I #
point $-1 -21.102937371779269 28.053695096009182 10.10195415207413 #
edge $-1 $716 1 $716 0 $394 $-1 forward 7 unknown #
vertex $-1 $395 $717 #
ellipse-curve $-1 -15.767389622032212 27.11620231803478 9.4931392430782147 0 0.83867057594974714 0.54463902268945019 1 0 0 1 I I #
point $-1 -14.767389622032212 28.053695096009182 10.10195415207413 #
plane-surface $-1 0 0 12.390489303893434 0 0 1 1 0 0 forward_v I I I I #
coedge $-1 $579 $578 $571 $718 forward $399 $-1 #
coedge $-1 $571 $401 $403 $575 reversed $253 $-1 #
coedge $-1 $401 $570 $569 $718 reversed $253 $-1 #
coedge $-1 $409 $404 $401 $573 forward $410 $-1 #
edge $-1 $576 -19.916043994168536 $719 -15.456209877232268 $572 $720 forward 7 unknown #
coedge $-1 $403 $402 $579 $721 reversed $159 $-1 #
edge $-1 $722 0 $576 6.0012988148803688 $570 $723 forward 7 unknown #
vertex $-1 $405 $724 #
straight-curve $-1 -11.250393309639055 -25.080053036145863 12.390489303893432 -1 0 0 I I #
coedge $-1 $569 $406 $409 $583 reversed $399 $-1 #
coedge $-1 $406 $569 $574 $721 forward $399 $-1 #
vertex $-1 $407 $725 #
straight-curve $-1 -17.90630231293347 -29.539887153082134 37.756961840179109 0 0 1 I I #
straight-curve $-1 -17.90630231293347 -29.539887153082134 8.3748365406560765 0 -0.74314481823134659 -0.66913061440640931 I I #
edge $-1 $719 -27.095270925622749 $411 -17.90630231293347 $578 $726 forward 7 unknown #
point $-1 -17.90630231293347 -29.539887153082134 12.390489303893434 #
point $-1 -17.90630231293347 -25.080053036145866 12.390489303893434 #
edge $-1 $727 1 $727 0 $414 $-1 forward 7 unknown #
vertex $-1 $415 $728 #
ellipse-curve $-1 -24.46985132199724 -26.543186884666611 9.5310639116918878 0 -0.66913061440640931 0.74314481823134659 1 0 0 1 I I #
point $-1 -23.46985132199724 -27.309970094614005 10.382662922274756 #
edge $-1 $729 1 $729 0 $418 $-1 forward 7 unknown #
vertex $-1 $419 $730 #
ellipse-curve $-1 -20.531721916558975 -26.543186884666611 9.5310639116918878 0 -0.66913061440640931 0.74314481823134659 1 0 0 1 I I #
point $-1 -19.531721916558975 -27.309970094614005 10.382662922274756 #
plane-surface $-1 0 0 12.390489303893434 0 0 1 1 0 0 forward_v I I I I #
coedge $-1 $605 $604 $597 $731 forward $423 $-1 #
coedge $-1 $597 $425 $427 $601 reversed $275 $-1 #
coedge $-1 $425 $596 $595 $731 reversed $275 $-1 #
coedge $-1 $433 $428 $425 $599 forward $434 $-1 #
edge $-1 $602 -19.916043994168536 $732 -15.456209877232268 $598 $733 forward 7 unknown #
coedge $-1 $427 $426 $605 $734 reversed $173 $-1 #
edge $-1 $735 0 $602 6.0012988148803688 $596 $736 forward 7 unknown #
vertex $-1 $429 $737 #
straight-curve $-1 -2.252242064378958 -25.080053036145863 12.390489303893432 -1 0 0 I I #
coedge $-1 $595 $430 $433 $609 reversed $423 $-1 #
coedge $-1 $430 $595 $600 $734 forward $423 $-1 #
vertex $-1 $431 $738 #
straight-curve $-1 0.090000177586725627 -29.539887153082134 37.756961840179109 0 0 1 I I #
straight-curve $-1 0.090000177586725627 -29.539887153082134 8.3748365406560765 0 -0.74314481823134659 -0.66913061440640931 I I #
edge $-1 $732 -9.0989684351025577 $435 0.090000177586725627 $604 $739 forward 7 unknown #
point $-1 0.090000177586725627 -29.539887153082134 12.390489303893434 #
point $-1 0.090000177586725627 -25.080053036145866 12.390489303893434 #
edge $-1 $740 1 $740 0 $438 $-1 forward 7 unknown #
vertex $-1 $439 $741 #
ellipse-curve $-1 -6.4735488314770464 -26.543186884666611 9.5310639116918878 0 -0.66913061440640931 0.74314481823134659 1 0 0 1 I I #
point $-1 -5.4735488314770464 -27.309970094614005 10.382662922274756 #
edge $-1 $742 1 $742 0 $442 $-1 forward 7 unknown #
vertex $-1 $443 $743 #
ellipse-curve $-1 -2.5354194260387786 -26.543186884666611 9.5310639116918878 0 -0.66913061440640931 0.74314481823134659 1 0 0 1 I I #
point $-1 -1.5354194260387786 -27.309970094614005 10.382662922274756 #
plane-surface $-1 0 0 12.390489303893434 0 0 1 1 0 0 forward_v I I I I #
coedge $-1 $631 $630 $623 $744 forward $447 $-1 #
coedge $-1 $623 $449 $451 $627 reversed $297 $-1 #
coedge $-1 $449 $622 $621 $744 reversed $297 $-1 #
coedge $-1 $457 $452 $449 $625 forward $458 $-1 #
edge $-1 $628 -19.916043994168536 $745 -15.456209877232268 $624 $746 forward 7 unknown #
coedge $-1 $451 $450 $631 $747 reversed $187 $-1 #
edge $-1 $748 0 $628 6.0012988148803688 $622 $749 forward 7 unknown #
vertex $-1 $453 $750 #
straight-curve $-1 6.7459091808811387 -25.080053036145863 12.390489303893432 -1 0 0 I I #
coedge $-1 $621 $454 $457 $635 reversed $447 $-1 #
coedge $-1 $454 $621 $626 $747 forward $447 $-1 #
vertex $-1 $455 $751 #
straight-curve $-1 18.086302668106917 -29.539887153082134 37.756961840179109 0 0 1 I I #
straight-curve $-1 18.086302668106917 -29.539887153082134 8.3748365406560765 0 -0.74314481823134659 -0.66913061440640931 I I #
edge $-1 $745 8.8973340554176357 $459 18.086302668106917 $630 $752 forward 7 unknown #
point $-1 18.086302668106917 -29.539887153082134 12.390489303893434 #
point $-1 18.086302668106917 -25.080053036145866 12.390489303893434 #
edge $-1 $753 1 $753 0 $462 $-1 forward 7 unknown #
vertex $-1 $463 $754 #
ellipse-curve $-1 11.522753659043147 -26.543186884666611 9.5310639116918878 0 -0.66913061440640931 0.74314481823134659 1 0 0 1 I I #
point $-1 12.522753659043147 -27.309970094614005 10.382662922274756 #
edge $-1 $755 1 $755 0 $466 $-1 forward 7 unknown #
vertex $-1 $467 $756 #
ellipse-curve $-1 15.460883064481415 -26.543186884666611 9.5310639116918878 0 -0.66913061440640931 0.74314481823134659 1 0 0 1 I I #
point $-1 16.460883064481415 -27.309970094614005 10.382662922274756 #
plane-surface $-1 0 0 12.390489303893434 0 0 1 1 0 0 forward_v I I I I #
coedge $-1 $657 $656 $649 $757 forward $471 $-1 #
coedge $-1 $649 $473 $475 $653 reversed $319 $-1 #
coedge $-1 $473 $648 $647 $757 reversed $319 $-1 #
coedge $-1 $481 $476 $473 $651 forward $482 $-1 #
edge $-1 $654 -19.916043994168536 $758 -15.456209877232268 $650 $759 forward 7 unknown #
coedge $-1 $475 $474 $657 $760 reversed $201 $-1 #
edge $-1 $761 0 $654 6.0012988148803688 $648 $762 forward 7 unknown #
vertex $-1 $477 $763 #
straight-curve $-1 15.744060426141235 -25.080053036145863 12.390489303893432 -1 0 0 I I #
coedge $-1 $647 $478 $481 $661 reversed $471 $-1 #
coedge $-1 $478 $647 $652 $760 forward $471 $-1 #
vertex $-1 $479 $764 #
straight-curve $-1 36.082605158627111 -29.539887153082134 37.756961840179109 0 0 1 I I #
straight-curve $-1 36.082605158627111 -29.539887153082134 8.3748365406560765 0 -0.74314481823134659 -0.66913061440640931 I I #
edge $-1 $758 26.893636545937831 $483 36.082605158627111 $656 $765 forward 7 unknown #
point $-1 36.082605158627111 -29.539887153082134 12.390489303893434 #
point $-1 36.082605158627111 -25.080053036145866 12.390489303893434 #
edge $-1 $766 1 $766 0 $486 $-1 forward 7 unknown #
vertex $-1 $487 $767 #
ellipse-curve $-1 29.519056149563333 -26.543186884666611 9.5310639116918878 0 -0.66913061440640931 0.74314481823134659 1 0 0 1 I I #
point $-1 30.519056149563333 -27.309970094614005 10.382662922274756 #
edge $-1 $768 1 $768 0 $490 $-1 forward 7 unknown #
vertex $-1 $491 $769 #
ellipse-curve $-1 33.457185555001608 -26.543186884666611 9.5310639116918878 0 -0.66913061440640931 0.74314481823134659 1 0 0 1 I I #
point $-1 34.457185555001608 -27.309970094614005 10.382662922274756 #
plane-surface $-1 45.172276985992006 0 0 -1 0 0 0 0 1 forward_v I I I I #
coedge $-1 $499 $497 $501 $677 reversed $341 $-1 #
edge $-1 $512 -12.390489303893434 $679 12.390489303893434 $511 $770 forward 7 unknown #
vertex $-1 $677 $771 #
straight-curve $-1 -45.172276985992006 -29.539887153082134 0 0 0 -1 I I #
edge $-1 $675 -29.539887153082134 $679 29.539887153082134 $673 $772 forward 7 unknown #
straight-curve $-1 0 -29.539887153082134 -12.390489303893434 -1 0 0 I I #
vertex $-1 $504 $773 #
straight-curve $-1 0 29.539887153082134 -12.390489303893434 1 0 0 I I #
point $-1 45.172276985992006 29.539887153082134 -12.390489303893434 #
point $-1 45.172276985992006 -29.539887153082134 -12.390489303893434 #
straight-curve $-1 -45.172276985992006 0 12.390489303893434 0 -1 0 I I #
point $-1 -45.172276985992006 29.539887153082134 12.390489303893434 #
point $-1 -45.172276985992006 -29.539887153082134 12.390489303893434 #
straight-curve $-1 45.172276985992006 -29.539887153082134 0 0 0 -1 I I #
straight-curve $-1 45.172276985992006 29.539887153082134 0 0 0 -1 I I #
plane-surface $-1 0 -29.539887153082134 0 0 1 0 0 0 1 forward_v I I I I #
coedge $-1 $774 $524 $534 $700 reversed $360 $-1 #
coedge $-1 $524 $774 $537 $702 forward $360 $-1 #
coedge $-1 $775 $527 $525 $692 forward $522 $-1 #
edge $-1 $693 36.184942752987631 $776 45.172276985992006 $525 $777 forward 7 unknown #
vertex $-1 $692 $778 #
straight-curve $-1 -36.184942752987631 29.539887153082134 4.43929825294697 0 0 -1 I I #
coedge $-1 $527 $775 $529 $697 forward $522 $-1 #
straight-curve $-1 -36.184942752987631 0 12.390489303893434 0 1 0 I I #
edge $-1 $779 -45.172276985992006 $531 -36.184942752987631 $529 $780 forward 7 unknown #
point $-1 -36.184942752987631 -29.539887153082134 12.390489303893437 #
straight-curve $-1 -45.172276985992006 0 5.3667037078944428 0 -1 0 I I #
edge $-1 $779 -12.390489303893434 $535 -5.3667037078944428 $689 $781 forward 7 unknown #
point $-1 -45.172276985992006 -29.539887153082134 5.3667037078944428 #
edge $-1 $776 -12.390489303893434 $538 -5.3667037078944428 $537 $782 forward 7 unknown #
point $-1 -45.172276985992006 29.539887153082134 5.3667037078944428 #
coedge $-1 $553 $552 $545 $705 forward $542 $-1 #
edge $-1 $706 40.893039158707751 $709 45.470109462346343 $704 $783 forward 7 unknown #
vertex $-1 $557 $784 #
straight-curve $-1 -11.54369112220084 36.566027863933193 12.390489303893432 0 1 0 I I #
edge $-1 $709 2.0761093737479701 $554 16.859054123157769 $553 $785 forward 7 unknown #
vertex $-1 $708 $786 #
straight-curve $-1 -11.54369112220084 -2.6372633857404679 57.361887344586705 0 -0.54463902268945019 0.83867057594974714 I I #
point $-1 -11.54369112220084 26.567503038936223 12.390489303893432 #
point $-1 -26.326635871610641 29.539887153082134 7.8134190002548394 #
straight-curve $-1 0 29.539887153082134 12.390489303893434 -1 0 0 I I #
vertex $-1 $560 $787 #
point $-1 -21.102937371779269 27.11620231803478 9.4931392430782147 #
vertex $-1 $564 $788 #
point $-1 -14.767389622032212 27.11620231803478 9.4931392430782147 #
edge $-1 $719 25.366472536285677 $722 29.382125299523032 $569 $789 forward 7 unknown #
vertex $-1 $583 $790 #
straight-curve $-1 -27.095270925622749 -44.996097030314402 12.390489303893432 0 -1 0 I I #
edge $-1 $722 -15.844877615983695 $580 -6.6559090032944148 $579 $791 forward 7 unknown #
vertex $-1 $721 $792 #
straight-curve $-1 -27.095270925622749 -29.539887153082134 8.3748365406560765 0 0.74314481823134659 0.66913061440640931 I I #
point $-1 -27.095270925622749 -25.080053036145866 12.390489303893434 #
point $-1 -17.90630231293347 -29.539887153082134 8.3748365406560765 #
straight-curve $-1 0 -29.539887153082134 12.390489303893434 1 0 0 I I #
vertex $-1 $586 $793 #
point $-1 -23.46985132199724 -26.543186884666611 9.5310639116918878 #
vertex $-1 $590 $794 #
point $-1 -19.531721916558975 -26.543186884666611 9.5310639116918878 #
edge $-1 $732 25.366472536285677 $735 29.382125299523032 $595 $795 forward 7 unknown #
vertex $-1 $609 $796 #
straight-curve $-1 -9.0989684351025577 -44.996097030314402 12.390489303893432 0 -1 0 I I #
edge $-1 $735 -6.8467263707235997 $606 2.3422422419656836 $605 $797 forward 7 unknown #
vertex $-1 $734 $798 #
straight-curve $-1 -9.0989684351025577 -29.539887153082134 8.3748365406560765 0 0.74314481823134659 0.66913061440640931 I I #
point $-1 -9.0989684351025577 -25.080053036145866 12.390489303893434 #
point $-1 0.090000177586725627 -29.539887153082134 8.3748365406560765 #
straight-curve $-1 0 -29.539887153082134 12.390489303893434 1 0 0 I I #
vertex $-1 $612 $799 #
point $-1 -5.4735488314770464 -26.543186884666611 9.5310639116918878 #
vertex $-1 $616 $800 #
point $-1 -1.5354194260387786 -26.543186884666611 9.5310639116918878 #
edge $-1 $745 25.366472536285677 $748 29.382125299523032 $621 $801 forward 7 unknown #
vertex $-1 $635 $802 #
straight-curve $-1 8.8973340554176357 -44.996097030314402 12.390489303893432 0 -1 0 I I #
edge $-1 $748 2.151424874536497 $632 11.340393487225779 $631 $803 forward 7 unknown #
vertex $-1 $747 $804 #
straight-curve $-1 8.8973340554176357 -29.539887153082134 8.3748365406560765 0 0.74314481823134659 0.66913061440640931 I I #
point $-1 8.8973340554176357 -25.080053036145866 12.390489303893434 #
point $-1 18.086302668106917 -29.539887153082134 8.3748365406560765 #
straight-curve $-1 0 -29.539887153082134 12.390489303893434 1 0 0 I I #
vertex $-1 $638 $805 #
point $-1 12.522753659043147 -26.543186884666611 9.5310639116918878 #
vertex $-1 $642 $806 #
point $-1 16.460883064481415 -26.543186884666611 9.5310639116918878 #
edge $-1 $758 25.366472536285677 $761 29.382125299523032 $647 $807 forward 7 unknown #
vertex $-1 $661 $808 #
straight-curve $-1 26.893636545937831 -44.996097030314402 12.390489303893432 0 -1 0 I I #
edge $-1 $761 11.149576119796595 $658 20.338544732485875 $657 $809 forward 7 unknown #
vertex $-1 $760 $810 #
straight-curve $-1 26.893636545937831 -29.539887153082134 8.3748365406560765 0 0.74314481823134659 0.66913061440640931 I I #
point $-1 26.893636545937831 -25.080053036145866 12.390489303893434 #
point $-1 36.082605158627111 -29.539887153082134 8.3748365406560765 #
straight-curve $-1 0 -29.539887153082134 12.390489303893434 1 0 0 I I #
vertex $-1 $664 $811 #
point $-1 30.519056149563333 -26.543186884666611 9.5310639116918878 #
vertex $-1 $668 $812 #
point $-1 34.457185555001608 -26.543186884666611 9.5310639116918878 #
straight-curve $-1 -45.172276985992006 29.539887153082134 0 0 0 -1 I I #
point $-1 -45.172276985992006 -29.539887153082134 -12.390489303893434 #
straight-curve $-1 -45.172276985992006 0 -12.390489303893434 0 1 0 I I #
point $-1 -45.172276985992006 29.539887153082134 -12.390489303893434 #
coedge $-1 $690 $689 $775 $813 reversed $360 $-1 #
coedge $-1 $695 $691 $774 $813 forward $522 $-1 #
vertex $-1 $692 $814 #
straight-curve $-1 0 29.539887153082134 12.390489303893434 -1 0 0 I I #
point $-1 -36.184942752987631 29.539887153082134 12.390489303893437 #
vertex $-1 $813 $815 #
straight-curve $-1 0 -29.539887153082134 12.390489303893434 1 0 0 I I #
straight-curve $-1 -45.172276985992006 -29.539887153082134 0 0 0 -1 I I #
straight-curve $-1 -45.172276985992006 29.539887153082134 0 0 0 -1 I I #
straight-curve $-1 -11.54369112220084 29.539887153082134 53.283528462601183 0 0 -1 I I #
point $-1 -11.54369112220084 29.539887153082134 12.390489303893434 #
straight-curve $-1 -9.4675817484528704 29.539887153082134 7.8134190002548429 -1 0 0 I I #
point $-1 -11.54369112220084 29.539887153082134 7.8134190002548394 #
point $-1 -22.102937371779269 26.277531742085031 8.948500220388766 #
point $-1 -15.767389622032212 26.277531742085031 8.948500220388766 #
straight-curve $-1 -27.095270925622749 -29.539887153082134 37.756961840179109 0 0 -1 I I #
point $-1 -27.095270925622749 -29.539887153082134 12.390489303893434 #
straight-curve $-1 -11.250393309639055 -29.539887153082134 8.3748365406560765 1 0 0 I I #
point $-1 -27.095270925622749 -29.539887153082134 8.3748365406560765 #
point $-1 -24.46985132199724 -25.874056270260198 8.7879190934605411 #
point $-1 -20.531721916558975 -25.874056270260198 8.7879190934605411 #
straight-curve $-1 -9.0989684351025577 -29.539887153082134 37.756961840179109 0 0 -1 I I #
point $-1 -9.0989684351025577 -29.539887153082134 12.390489303893434 #
straight-curve $-1 -2.252242064378958 -29.539887153082134 8.3748365406560765 1 0 0 I I #
point $-1 -9.0989684351025577 -29.539887153082134 8.3748365406560765 #
point $-1 -6.4735488314770464 -25.874056270260198 8.7879190934605411 #
point $-1 -2.5354194260387786 -25.874056270260198 8.7879190934605411 #
straight-curve $-1 8.8973340554176357 -29.539887153082134 37.756961840179109 0 0 -1 I I #
point $-1 8.8973340554176357 -29.539887153082134 12.390489303893434 #
straight-curve $-1 6.7459091808811387 -29.539887153082134 8.3748365406560765 1 0 0 I I #
point $-1 8.8973340554176357 -29.539887153082134 8.3748365406560765 #
point $-1 11.522753659043147 -25.874056270260198 8.7879190934605411 #
point $-1 15.460883064481415 -25.874056270260198 8.7879190934605411 #
straight-curve $-1 26.893636545937831 -29.539887153082134 37.756961840179109 0 0 -1 I I #
point $-1 26.893636545937831 -29.539887153082134 12.390489303893434 #
straight-curve $-1 15.744060426141235 -29.539887153082134 8.3748365406560765 1 0 0 I I #
point $-1 26.893636545937831 -29.539887153082134 8.3748365406560765 #
point $-1 29.519056149563333 -25.874056270260198 8.7879190934605411 #
point $-1 33.457185555001608 -25.874056270260198 8.7879190934605411 #
edge $-1 $776 -29.539887153082134 $779 29.539887153082134 $774 $816 forward 7 unknown #
point $-1 -45.172276985992006 29.539887153082134 12.390489303893434 #
point $-1 -45.172276985992006 -29.539887153082134 12.390489303893434 #
straight-curve $-1 -45.172276985992006 0 12.390489303893434 0 -1 0 I I #
End-of-ACIS-data 