500 0 11 0           
7 Unknown 11 ACIS 5.0 NT 24 Fri Mar 26 02:51:17 1999 
-1 9.9999999999999995e-007 1e-010 
body $-1 $11 $-1 $12 #
body $-1 $13 $-1 $14 #
body $-1 $15 $-1 $16 #
body $-1 $17 $-1 $18 #
body $-1 $19 $-1 $20 #
body $-1 $21 $-1 $22 #
body $-1 $23 $-1 $24 #
body $-1 $25 $-1 $26 #
body $-1 $27 $-1 $28 #
body $-1 $29 $-1 $30 #
body $-1 $31 $-1 $32 #
lump $-1 $-1 $33 $0 #
transform $-1 1 0 0 0 1 0 0 0 1 60.411999877925965 42.080432337832875 14.838916334542605 1 rotate no_reflect no_shear #
lump $-1 $-1 $34 $1 #
transform $-1 1 0 0 0 1 0 0 0 1 60.411999877925965 42.080432337832875 14.838916334542605 1 rotate no_reflect no_shear #
lump $-1 $-1 $35 $2 #
transform $-1 1 0 0 0 1 0 0 0 1 60.411999877925965 42.080432337832875 14.838916334542605 1 rotate no_reflect no_shear #
lump $-1 $-1 $36 $3 #
transform $-1 1 0 0 0 1 0 0 0 1 60.411999877925965 42.080432337832875 14.838916334542605 1 rotate no_reflect no_shear #
lump $-1 $-1 $37 $4 #
transform $-1 1 0 0 0 1 0 0 0 1 60.411999877925965 42.080432337832875 14.838916334542605 1 rotate no_reflect no_shear #
lump $-1 $-1 $38 $5 #
transform $-1 1 0 0 0 1 0 0 0 1 60.411999877925965 42.080432337832875 14.838916334542605 1 rotate no_reflect no_shear #
lump $-1 $-1 $39 $6 #
transform $-1 1 0 0 0 1 0 0 0 1 60.411999877925965 42.080432337832875 14.838916334542605 1 rotate no_reflect no_shear #
lump $-1 $-1 $40 $7 #
transform $-1 1 0 0 0 1 0 0 0 1 60.411999877925965 42.080432337832875 14.838916334542605 1 rotate no_reflect no_shear #
lump $-1 $-1 $41 $8 #
transform $-1 1 0 0 0 1 0 0 0 1 60.411999877925965 42.080432337832875 14.838916334542605 1 rotate no_reflect no_shear #
lump $-1 $-1 $42 $9 #
transform $-1 1 0 0 0 1 0 0 0 1 60.411999877925965 42.080432337832875 14.838916334542605 1 rotate no_reflect no_shear #
lump $-1 $-1 $43 $10 #
transform $-1 1 0 0 0 1 0 0 0 1 60.411999877925965 42.080432337832875 14.838916334542605 1 rotate no_reflect no_shear #
shell $-1 $-1 $-1 $44 $-1 $11 #
shell $-1 $-1 $-1 $45 $-1 $13 #
shell $-1 $-1 $-1 $46 $-1 $15 #
shell $-1 $-1 $-1 $47 $-1 $17 #
shell $-1 $-1 $-1 $48 $-1 $19 #
shell $-1 $-1 $-1 $49 $-1 $21 #
shell $-1 $-1 $-1 $50 $-1 $23 #
shell $-1 $-1 $-1 $51 $-1 $25 #
shell $-1 $-1 $-1 $52 $-1 $27 #
shell $-1 $-1 $-1 $53 $-1 $29 #
shell $-1 $-1 $-1 $54 $-1 $31 #
face $-1 $55 $56 $33 $-1 $57 forward single #
face $-1 $58 $59 $34 $-1 $60 forward single #
face $-1 $61 $62 $35 $-1 $63 reversed single #
face $-1 $64 $65 $36 $-1 $66 forward single #
face $-1 $67 $68 $37 $-1 $69 forward single #
face $-1 $70 $71 $38 $-1 $72 reversed single #
face $-1 $73 $74 $39 $-1 $75 forward single #
face $-1 $76 $77 $40 $-1 $78 forward single #
face $-1 $79 $80 $41 $-1 $81 reversed single #
face $-1 $82 $83 $42 $-1 $84 forward single #
face $-1 $85 $86 $43 $-1 $87 forward single #
face $-1 $88 $89 $33 $-1 $90 reversed single #
loop $-1 $-1 $91 $44 #
plane-surface $-1 0 0 14.838916334542605 0 0 1 1 0 0 forward_v I I I I #
face $-1 $92 $93 $34 $-1 $94 reversed single #
loop $-1 $-1 $95 $45 #
plane-surface $-1 0 -35.289681942015946 -7.7377745920752208 0 0 1 1 0 0 forward_v I I I I #
face $-1 $96 $97 $35 $-1 $98 reversed single #
loop $-1 $-1 $99 $46 #
plane-surface $-1 19.074579709536962 -13.880859035222223 169.43224930306297 0 -1 0 -0.51503808176128008 0 -0.85716729658548041 forward_v I I I I #
face $-1 $100 $101 $36 $-1 $102 forward single #
loop $-1 $103 $104 $47 #
cone-surface $-1 50.336985906621344 -24.322339400205649 7.9840818158990832 -0.51503808176128008 0 -0.85716729658548041 1.2857509448782207 0 -0.77255712264192011 1 I I 0 1 1.5 forward I I I I #
face $-1 $105 $106 $37 $-1 $107 forward single #
loop $-1 $108 $109 $48 #
cone-surface $-1 50.336985906621344 -18.057451181215594 7.9840818158990832 -0.51503808176128008 0 -0.85716729658548041 1.2857509448782207 0 -0.77255712264192011 1 I I 0 1 1.5 forward I I I I #
face $-1 $110 $111 $38 $-1 $112 reversed single #
loop $-1 $-1 $113 $49 #
plane-surface $-1 19.074579709536962 21.40882290679372 169.43224930306297 0 -1 0 -0.51503808176128008 0 -0.85716729658548041 forward_v I I I I #
face $-1 $114 $115 $39 $-1 $116 forward single #
loop $-1 $117 $118 $50 #
cone-surface $-1 50.336985906621344 10.967342541810297 7.9840818158990832 -0.51503808176128008 0 -0.85716729658548041 1.2857509448782207 0 -0.77255712264192011 1 I I 0 1 1.5 forward I I I I #
face $-1 $119 $120 $40 $-1 $121 forward single #
loop $-1 $122 $123 $51 #
cone-surface $-1 50.336985906621344 17.232230760800348 7.9840818158990832 -0.51503808176128008 0 -0.85716729658548041 1.2857509448782207 0 -0.77255712264192011 1 I I 0 1 1.5 forward I I I I #
face $-1 $124 $125 $41 $-1 $126 reversed single #
loop $-1 $-1 $127 $52 #
plane-surface $-1 -133.12569900886103 -12.092189308501347 107.25005668296859 0 1 0 -0.6018150307709319 0 0.79863550430605224 forward_v I I I I #
face $-1 $128 $129 $42 $-1 $130 forward single #
loop $-1 $131 $132 $53 #
cone-surface $-1 -57.123300220675503 -9.5378803146907245 12.028418277356332 0.6018150307709319 0 -0.79863550430605224 0.79863550430605224 0 0.6018150307709319 1 I I 0 1 1 forward I I I I #
face $-1 $133 $134 $43 $-1 $135 forward single #
loop $-1 $136 $137 $54 #
cone-surface $-1 -57.123300220675503 -5.7064168239747914 12.028418277356332 0.6018150307709319 0 -0.79863550430605224 0.79863550430605224 0 0.6018150307709319 1 I I 0 1 1 forward I I I I #
face $-1 $138 $139 $33 $-1 $140 reversed single #
loop $-1 $-1 $141 $55 #
plane-surface $-1 0 0 -14.838916334542605 0 0 1 1 0 0 forward_v I I I I #
coedge $-1 $142 $143 $144 $145 forward $56 $-1 #
face $-1 $146 $147 $34 $-1 $148 reversed single #
loop $-1 $-1 $149 $58 #
plane-surface $-1 0 -28.498931546199017 -11.288345463308913 0 -1 0 0 0 -1 forward_v I I I I #
coedge $-1 $150 $151 $152 $153 reversed $59 $-1 #
face $-1 $154 $155 $35 $-1 $156 reversed single #
loop $-1 $-1 $157 $61 #
plane-surface $-1 -43.154381355442389 -21.18989529071062 65.865868069694628 0.51503808176128008 0 0.85716729658548041 0.85716729658548041 0 -0.51503808176128008 forward_v I I I I #
coedge $-1 $158 $159 $160 $161 reversed $62 $-1 #
face $-1 $-1 $162 $36 $-1 $163 forward single #
loop $-1 $164 $165 $64 #
cone-surface $-1 49.197330349593159 -24.322339400205649 6.0873764897301168 -0.51503808176128008 0 -0.85716729658548041 0.64287547243911036 0 -0.38627856132096006 1 I I -0.70710678118654757 0.70710678118654757 0.75 forward I I I I #
loop $-1 $-1 $166 $47 #
coedge $-1 $104 $104 $167 $168 reversed $65 $-1 #
face $-1 $-1 $169 $37 $-1 $170 forward single #
loop $-1 $171 $172 $67 #
cone-surface $-1 49.197330349593159 -18.057451181215594 6.0873764897301168 -0.51503808176128008 0 -0.85716729658548041 0.64287547243911036 0 -0.38627856132096006 1 I I -0.70710678118654757 0.70710678118654757 0.75 forward I I I I #
loop $-1 $-1 $173 $48 #
coedge $-1 $109 $109 $174 $175 reversed $68 $-1 #
face $-1 $176 $177 $38 $-1 $178 reversed single #
loop $-1 $-1 $179 $70 #
plane-surface $-1 -43.154381355442389 14.099786651305322 65.865868069694628 0.51503808176128008 0 0.85716729658548041 0.85716729658548041 0 -0.51503808176128008 forward_v I I I I #
coedge $-1 $180 $181 $182 $183 reversed $71 $-1 #
face $-1 $-1 $184 $39 $-1 $185 forward single #
loop $-1 $186 $187 $73 #
cone-surface $-1 49.197330349593159 10.967342541810297 6.0873764897301168 -0.51503808176128008 0 -0.85716729658548041 0.64287547243911036 0 -0.38627856132096006 1 I I -0.70710678118654757 0.70710678118654757 0.75 forward I I I I #
loop $-1 $-1 $188 $50 #
coedge $-1 $118 $118 $189 $190 reversed $74 $-1 #
face $-1 $-1 $191 $40 $-1 $192 forward single #
loop $-1 $193 $194 $76 #
cone-surface $-1 49.197330349593159 17.232230760800348 6.0873764897301168 -0.51503808176128008 0 -0.85716729658548041 0.64287547243911036 0 -0.38627856132096006 1 I I -0.70710678118654757 0.70710678118654757 0.75 forward I I I I #
loop $-1 $-1 $195 $51 #
coedge $-1 $123 $123 $196 $197 reversed $77 $-1 #
face $-1 $198 $199 $41 $-1 $200 reversed single #
loop $-1 $-1 $201 $79 #
plane-surface $-1 -60.41199987792595 -7.622148569332758 10.755720705679465 -0.6018150307709319 0 0.79863550430605224 0.79863550430605224 0 0.6018150307709319 forward_v I I I I #
coedge $-1 $202 $203 $204 $205 reversed $80 $-1 #
face $-1 $-1 $206 $42 $-1 $207 forward single #
loop $-1 $208 $209 $82 #
cone-surface $-1 -56.242984801736753 -9.5378803146907245 10.860200282448615 0.6018150307709319 0 -0.79863550430605224 0.39931775215302612 0 0.30090751538546595 1 I I -0.70710678118654746 0.70710678118654746 0.5 forward I I I I #
loop $-1 $-1 $210 $53 #
coedge $-1 $132 $132 $211 $212 reversed $83 $-1 #
face $-1 $-1 $213 $43 $-1 $214 forward single #
loop $-1 $215 $216 $85 #
cone-surface $-1 -56.242984801736753 -5.7064168239747914 10.860200282448615 0.6018150307709319 0 -0.79863550430605224 0.39931775215302612 0 0.30090751538546595 1 I I -0.70710678118654746 0.70710678118654746 0.5 forward I I I I #
loop $-1 $-1 $217 $54 #
coedge $-1 $137 $137 $218 $219 reversed $86 $-1 #
face $-1 $220 $221 $33 $-1 $222 reversed single #
loop $-1 $-1 $223 $88 #
plane-surface $-1 0 -42.080432337832875 0 0 1 0 0 0 1 forward_v I I I I #
coedge $-1 $224 $225 $226 $227 forward $89 $-1 #
coedge $-1 $228 $91 $229 $230 forward $56 $-1 #
coedge $-1 $91 $228 $231 $232 forward $56 $-1 #
coedge $-1 $233 $234 $91 $145 reversed $235 $-1 #
edge $-1 $236 -42.080432337832875 $237 42.080432337832875 $144 $238 forward 7 unknown #
face $-1 $239 $240 $34 $-1 $241 reversed single #
loop $-1 $-1 $242 $92 #
plane-surface $-1 0 0 -14.838916334542605 0 0 1 1 0 0 forward_v I I I I #
coedge $-1 $243 $244 $245 $246 reversed $93 $-1 #
coedge $-1 $247 $95 $244 $248 forward $59 $-1 #
coedge $-1 $95 $247 $249 $250 reversed $59 $-1 #
coedge $-1 $251 $245 $95 $153 forward $240 $-1 #
edge $-1 $252 10.854090575191044 $253 24.435591366824902 $152 $254 forward 7 unknown #
face $-1 $255 $256 $35 $-1 $257 reversed single #
loop $-1 $-1 $258 $96 #
plane-surface $-1 19.074579709536962 -28.498931546199017 169.43224930306297 0 1 0 0.51503808176128008 0 0.85716729658548041 forward_v I I I I #
coedge $-1 $259 $260 $261 $262 reversed $97 $-1 #
coedge $-1 $159 $99 $263 $264 reversed $62 $-1 #
coedge $-1 $99 $158 $259 $265 reversed $62 $-1 #
coedge $-1 $261 $266 $99 $161 forward $267 $-1 #
edge $-1 $268 -50.874710023157483 $269 -32.231436071962662 $160 $270 forward 7 unknown #
loop $-1 $-1 $167 $100 #
plane-surface $-1 -43.154381355442389 -21.18989529071062 65.865868069694628 0.51503808176128008 0 0.85716729658548041 0.85716729658548041 0 -0.51503808176128008 forward_v I I I I #
loop $-1 $-1 $271 $64 #
coedge $-1 $165 $165 $166 $272 reversed $101 $-1 #
coedge $-1 $166 $166 $165 $272 forward $103 $-1 #
coedge $-1 $167 $167 $104 $168 forward $162 $-1 #
edge $-1 $273 0 $273 6.2831853071796004 $167 $274 forward 7 unknown #
loop $-1 $-1 $174 $105 #
plane-surface $-1 -43.154381355442389 -21.18989529071062 65.865868069694628 0.51503808176128008 0 0.85716729658548041 0.85716729658548041 0 -0.51503808176128008 forward_v I I I I #
loop $-1 $-1 $275 $67 #
coedge $-1 $172 $172 $173 $276 reversed $106 $-1 #
coedge $-1 $173 $173 $172 $276 forward $108 $-1 #
coedge $-1 $174 $174 $109 $175 forward $169 $-1 #
edge $-1 $277 0 $277 6.2831853071796004 $174 $278 forward 7 unknown #
face $-1 $279 $280 $38 $-1 $281 reversed single #
loop $-1 $-1 $282 $110 #
plane-surface $-1 19.074579709536962 6.7907503958169242 169.43224930306297 0 1 0 0.51503808176128008 0 0.85716729658548041 forward_v I I I I #
coedge $-1 $283 $284 $285 $286 reversed $111 $-1 #
coedge $-1 $181 $113 $287 $288 reversed $71 $-1 #
coedge $-1 $113 $180 $283 $289 reversed $71 $-1 #
coedge $-1 $285 $290 $113 $183 forward $291 $-1 #
edge $-1 $292 -50.874710023157483 $293 -32.231436071962662 $182 $294 forward 7 unknown #
loop $-1 $-1 $189 $114 #
plane-surface $-1 -43.154381355442389 14.099786651305322 65.865868069694628 0.51503808176128008 0 0.85716729658548041 0.85716729658548041 0 -0.51503808176128008 forward_v I I I I #
loop $-1 $-1 $295 $73 #
coedge $-1 $187 $187 $188 $296 reversed $115 $-1 #
coedge $-1 $188 $188 $187 $296 forward $117 $-1 #
coedge $-1 $189 $189 $118 $190 forward $184 $-1 #
edge $-1 $297 0 $297 6.2831853071796004 $189 $298 forward 7 unknown #
loop $-1 $-1 $196 $119 #
plane-surface $-1 -43.154381355442389 14.099786651305322 65.865868069694628 0.51503808176128008 0 0.85716729658548041 0.85716729658548041 0 -0.51503808176128008 forward_v I I I I #
loop $-1 $-1 $299 $76 #
coedge $-1 $194 $194 $195 $300 reversed $120 $-1 #
coedge $-1 $195 $195 $194 $300 forward $122 $-1 #
coedge $-1 $196 $196 $123 $197 forward $191 $-1 #
edge $-1 $301 0 $301 6.2831853071796004 $196 $302 forward 7 unknown #
face $-1 $303 $304 $41 $-1 $305 forward single #
loop $-1 $-1 $306 $124 #
plane-surface $-1 -133.12569900886103 -3.1521078301641694 107.25005668296859 0 -1 0 0.6018150307709319 0 -0.79863550430605224 forward_v I I I I #
coedge $-1 $307 $308 $309 $310 reversed $125 $-1 #
coedge $-1 $203 $127 $311 $312 reversed $80 $-1 #
coedge $-1 $127 $202 $307 $313 reversed $80 $-1 #
coedge $-1 $309 $314 $127 $205 forward $304 $-1 #
edge $-1 $315 6.1508496265045522 $316 11.569433133898897 $204 $317 forward 7 unknown #
loop $-1 $-1 $211 $128 #
plane-surface $-1 -60.41199987792595 -7.622148569332758 10.755720705679465 -0.6018150307709319 0 0.79863550430605224 0.79863550430605224 0 0.6018150307709319 forward_v I I I I #
loop $-1 $-1 $318 $82 #
coedge $-1 $209 $209 $210 $319 reversed $129 $-1 #
coedge $-1 $210 $210 $209 $319 forward $131 $-1 #
coedge $-1 $211 $211 $132 $212 forward $206 $-1 #
edge $-1 $320 0 $320 6.2831853071796004 $211 $321 forward 7 unknown #
loop $-1 $-1 $218 $133 #
plane-surface $-1 -60.41199987792595 -7.622148569332758 10.755720705679465 -0.6018150307709319 0 0.79863550430605224 0.79863550430605224 0 0.6018150307709319 forward_v I I I I #
loop $-1 $-1 $322 $85 #
coedge $-1 $216 $216 $217 $323 reversed $134 $-1 #
coedge $-1 $217 $217 $216 $323 forward $136 $-1 #
coedge $-1 $218 $218 $137 $219 forward $213 $-1 #
edge $-1 $324 0 $324 6.2831853071796004 $218 $325 forward 7 unknown #
face $-1 $326 $327 $33 $-1 $328 reversed single #
loop $-1 $-1 $329 $138 #
plane-surface $-1 -60.411999877925965 0 0 1 0 0 0 0 -1 forward_v I I I I #
coedge $-1 $330 $231 $331 $332 forward $139 $-1 #
coedge $-1 $333 $141 $330 $334 forward $89 $-1 #
coedge $-1 $141 $333 $335 $336 forward $89 $-1 #
coedge $-1 $234 $233 $141 $227 reversed $235 $-1 #
edge $-1 $337 -42.080432337832875 $338 42.080432337832875 $226 $339 forward 7 unknown #
coedge $-1 $143 $142 $340 $341 forward $56 $-1 #
coedge $-1 $342 $343 $142 $230 reversed $327 $-1 #
edge $-1 $237 -60.411999877925965 $344 60.411999877925965 $229 $345 forward 7 unknown #
coedge $-1 $223 $346 $143 $232 reversed $139 $-1 #
edge $-1 $347 -60.411999877925965 $236 60.411999877925965 $231 $348 forward 7 unknown #
coedge $-1 $226 $144 $346 $349 forward $235 $-1 #
coedge $-1 $144 $226 $342 $350 reversed $235 $-1 #
loop $-1 $-1 $233 $326 #
vertex $-1 $145 $351 #
vertex $-1 $145 $352 #
straight-curve $-1 60.411999877925965 0 14.838916334542605 0 1 0 I I #
face $-1 $353 $354 $34 $-1 $355 reversed single #
loop $-1 $-1 $245 $146 #
plane-surface $-1 60.411999877925965 0 0 -1 0 0 0 0 1 forward_v I I I I #
coedge $-1 $356 $357 $243 $358 forward $147 $-1 #
coedge $-1 $359 $149 $242 $358 reversed $93 $-1 #
coedge $-1 $149 $359 $150 $248 reversed $93 $-1 #
coedge $-1 $152 $360 $149 $246 forward $240 $-1 #
edge $-1 $361 -9.1947436028881491 $252 -2.0936018604207645 $245 $362 forward 7 unknown #
coedge $-1 $151 $150 $363 $364 reversed $59 $-1 #
edge $-1 $252 -60.411999877925965 $365 60.411999877925965 $244 $366 forward 7 unknown #
coedge $-1 $367 $368 $151 $250 forward $354 $-1 #
edge $-1 $253 -60.411999877925965 $369 60.411999877925965 $249 $370 forward 7 unknown #
coedge $-1 $360 $152 $368 $371 forward $240 $-1 #
vertex $-1 $153 $372 #
vertex $-1 $371 $373 #
straight-curve $-1 60.411999877925965 -17.644840971007973 -7.7377745920752208 0 -1 0 I I #
face $-1 $-1 $267 $35 $-1 $374 forward single #
loop $-1 $-1 $375 $154 #
plane-surface $-1 60.411999877925965 0 0 -1 0 0 0 0 1 forward_v I I I I #
coedge $-1 $376 $377 $378 $379 reversed $155 $-1 #
coedge $-1 $380 $157 $159 $265 forward $97 $-1 #
coedge $-1 $157 $380 $376 $381 forward $97 $-1 #
coedge $-1 $378 $160 $157 $262 forward $267 $-1 #
edge $-1 $269 3.2859113898669126 $382 17.903983900843706 $261 $383 forward 7 unknown #
coedge $-1 $384 $385 $158 $264 forward $256 $-1 #
edge $-1 $386 -81.079217646816218 $268 -69.877208316988884 $263 $387 forward 7 unknown #
edge $-1 $269 99.074133626497527 $386 120.82399975585193 $159 $388 forward 7 unknown #
coedge $-1 $160 $378 $384 $389 forward $267 $-1 #
loop $-1 $-1 $378 $255 #
vertex $-1 $264 $390 #
vertex $-1 $161 $391 #
straight-curve $-1 9.5372898547684812 -13.880859035222223 14.838916334542603 -1 0 0 I I #
coedge $-1 $271 $271 $-1 $392 reversed $164 $-1 #
edge $-1 $393 0 $393 6.2831853071796004 $165 $394 forward 7 unknown #
vertex $-1 $168 $395 #
ellipse-curve $-1 51.090362902328565 -24.322339400205649 9.2379116696289358 0.51503808176128008 0 0.85716729658548041 1.2857509448782207 0 -0.77255712264192011 1 I I #
coedge $-1 $275 $275 $-1 $396 reversed $171 $-1 #
edge $-1 $397 0 $397 6.2831853071796004 $172 $398 forward 7 unknown #
vertex $-1 $175 $399 #
ellipse-curve $-1 51.090362902328565 -18.057451181215594 9.2379116696289358 0.51503808176128008 0 0.85716729658548041 1.2857509448782207 0 -0.77255712264192011 1 I I #
face $-1 $-1 $291 $38 $-1 $400 forward single #
loop $-1 $-1 $401 $176 #
plane-surface $-1 60.411999877925965 0 0 -1 0 0 0 0 1 forward_v I I I I #
coedge $-1 $402 $403 $404 $405 reversed $177 $-1 #
coedge $-1 $406 $179 $181 $289 forward $111 $-1 #
coedge $-1 $179 $406 $402 $407 forward $111 $-1 #
coedge $-1 $404 $182 $179 $286 forward $291 $-1 #
edge $-1 $293 -14.358929581141059 $408 0.25914292983573706 $285 $409 forward 7 unknown #
coedge $-1 $410 $411 $180 $288 forward $280 $-1 #
edge $-1 $412 -81.079217646816218 $292 -69.877208316988884 $287 $413 forward 7 unknown #
edge $-1 $293 99.074133626497527 $412 120.82399975585193 $181 $414 forward 7 unknown #
coedge $-1 $182 $404 $410 $415 forward $291 $-1 #
loop $-1 $-1 $404 $279 #
vertex $-1 $288 $416 #
vertex $-1 $183 $417 #
straight-curve $-1 9.5372898547684812 21.40882290679372 14.838916334542603 -1 0 0 I I #
coedge $-1 $295 $295 $-1 $418 reversed $186 $-1 #
edge $-1 $419 0 $419 6.2831853071796004 $187 $420 forward 7 unknown #
vertex $-1 $190 $421 #
ellipse-curve $-1 51.090362902328565 10.967342541810297 9.2379116696289358 0.51503808176128008 0 0.85716729658548041 1.2857509448782207 0 -0.77255712264192011 1 I I #
coedge $-1 $299 $299 $-1 $422 reversed $193 $-1 #
edge $-1 $423 0 $423 6.2831853071796004 $194 $424 forward 7 unknown #
vertex $-1 $197 $425 #
ellipse-curve $-1 51.090362902328565 17.232230760800348 9.2379116696289358 0.51503808176128008 0 0.85716729658548041 1.2857509448782207 0 -0.77255712264192011 1 I I #
face $-1 $-1 $426 $41 $-1 $427 reversed single #
loop $-1 $-1 $204 $198 #
plane-surface $-1 0 0 14.838916334542605 0 0 1 1 0 0 forward_v I I I I #
coedge $-1 $428 $429 $430 $431 reversed $199 $-1 #
coedge $-1 $432 $201 $203 $313 forward $125 $-1 #
coedge $-1 $201 $432 $428 $433 forward $125 $-1 #
coedge $-1 $430 $204 $201 $310 forward $304 $-1 #
edge $-1 $316 -8.2811150238349676 $434 0.65896645450220959 $309 $435 forward 7 unknown #
coedge $-1 $436 $437 $202 $312 forward $426 $-1 #
edge $-1 $438 -42.869307635804844 $315 -38.786112006941693 $311 $439 forward 7 unknown #
edge $-1 $316 -6.7848016750803346 $438 1.7763522597878294e-014 $203 $440 forward 7 unknown #
coedge $-1 $204 $430 $436 $441 forward $304 $-1 #
vertex $-1 $312 $442 #
vertex $-1 $205 $443 #
straight-curve $-1 -66.562849504430517 -12.092189308501347 14.838916334542603 1 0 0 I I #
coedge $-1 $318 $318 $-1 $444 reversed $208 $-1 #
edge $-1 $445 0 $445 6.2831853071796004 $209 $446 forward 7 unknown #
vertex $-1 $212 $447 #
ellipse-curve $-1 -57.702708124228792 -9.5378803146907245 12.797318520111029 -0.6018150307709319 0 0.79863550430605224 0.79863550430605224 0 0.6018150307709319 1 I I #
coedge $-1 $322 $322 $-1 $448 reversed $215 $-1 #
edge $-1 $449 0 $449 6.2831853071796004 $216 $450 forward 7 unknown #
vertex $-1 $219 $451 #
ellipse-curve $-1 -57.702708124228792 -5.7064168239747914 12.797318520111029 -0.6018150307709319 0 0.79863550430605224 0.79863550430605224 0 0.6018150307709319 1 I I #
face $-1 $-1 $235 $33 $-1 $452 reversed single #
loop $-1 $-1 $342 $220 #
plane-surface $-1 0 42.080432337832875 0 0 -1 0 0 0 -1 forward_v I I I I #
coedge $-1 $453 $340 $343 $454 forward $221 $-1 #
coedge $-1 $346 $223 $224 $334 reversed $139 $-1 #
coedge $-1 $340 $453 $223 $332 reversed $221 $-1 #
edge $-1 $347 -14.838916334542605 $455 14.838916334542605 $331 $456 forward 7 unknown #
coedge $-1 $225 $224 $453 $457 forward $89 $-1 #
edge $-1 $338 -60.411999877925965 $455 60.411999877925965 $330 $458 forward 7 unknown #
coedge $-1 $343 $342 $225 $336 reversed $327 $-1 #
edge $-1 $459 -60.411999877925965 $337 60.411999877925965 $335 $460 forward 7 unknown #
vertex $-1 $227 $461 #
vertex $-1 $349 $462 #
straight-curve $-1 60.411999877925965 0 -14.838916334542605 0 -1 0 I I #
coedge $-1 $329 $331 $228 $341 reversed $221 $-1 #
edge $-1 $344 -42.080432337832875 $347 42.080432337832875 $340 $463 forward 7 unknown #
coedge $-1 $335 $229 $234 $350 forward $327 $-1 #
coedge $-1 $229 $335 $329 $454 reversed $327 $-1 #
vertex $-1 $230 $464 #
straight-curve $-1 0 42.080432337832875 14.838916334542605 -1 0 0 I I #
coedge $-1 $231 $330 $233 $349 reversed $139 $-1 #
vertex $-1 $341 $465 #
straight-curve $-1 0 -42.080432337832875 14.838916334542605 1 0 0 I I #
edge $-1 $236 -14.838916334542605 $338 14.838916334542605 $233 $466 forward 7 unknown #
edge $-1 $237 -14.838916334542605 $337 14.838916334542605 $234 $467 forward 7 unknown #
point $-1 60.411999877925965 -42.080432337832875 14.838916334542605 #
point $-1 60.411999877925965 42.080432337832875 14.838916334542605 #
face $-1 $-1 $468 $34 $-1 $469 reversed single #
loop $-1 $-1 $249 $239 #
plane-surface $-1 0 -42.080432337832875 0 0 1 0 0 0 1 forward_v I I I I #
coedge $-1 $470 $242 $360 $471 forward $147 $-1 #
coedge $-1 $242 $470 $472 $473 forward $147 $-1 #
edge $-1 $474 -60.411999877925965 $361 60.411999877925965 $242 $475 forward 7 unknown #
coedge $-1 $244 $243 $476 $477 reversed $93 $-1 #
coedge $-1 $245 $251 $356 $471 reversed $240 $-1 #
vertex $-1 $471 $478 #
straight-curve $-1 60.411999877925965 -28.498931546199017 -5.6441727316544563 0 0 1 I I #
coedge $-1 $476 $479 $247 $364 forward $468 $-1 #
edge $-1 $369 -24.435591366824902 $365 -10.854090575191044 $363 $480 forward 7 unknown #
vertex $-1 $364 $481 #
straight-curve $-1 0 -28.498931546199017 -7.7377745920752208 -1 0 0 I I #
coedge $-1 $482 $249 $479 $483 forward $354 $-1 #
coedge $-1 $249 $482 $251 $371 reversed $354 $-1 #
vertex $-1 $483 $484 #
straight-curve $-1 0 -42.080432337832875 -7.7377745920752208 -1 0 0 I I #
edge $-1 $253 7.7377745920752208 $485 14.838916334542605 $251 $486 forward 7 unknown #
point $-1 60.411999877925965 -28.498931546199017 -7.7377745920752208 #
point $-1 60.411999877925965 -42.080432337832875 -7.7377745920752208 #
plane-surface $-1 0 0 14.838916334542605 0 0 1 1 0 0 forward_v I I I I #
coedge $-1 $385 $384 $377 $487 forward $256 $-1 #
coedge $-1 $377 $258 $260 $381 reversed $155 $-1 #
coedge $-1 $258 $376 $375 $487 reversed $155 $-1 #
coedge $-1 $266 $261 $258 $379 forward $267 $-1 #
edge $-1 $382 32.231436071962662 $488 50.874710023157483 $378 $489 forward 7 unknown #
coedge $-1 $260 $259 $385 $490 reversed $97 $-1 #
edge $-1 $491 -120.82399975585193 $382 -99.074133626497527 $376 $492 forward 7 unknown #
vertex $-1 $262 $493 #
straight-curve $-1 41.76872592673115 -10.59494764535531 14.838916334542596 0 -1 0 I I #
coedge $-1 $375 $263 $266 $389 reversed $256 $-1 #
coedge $-1 $263 $375 $380 $490 forward $256 $-1 #
vertex $-1 $264 $494 #
straight-curve $-1 60.411999877925965 -13.880859035222223 84.716124651531487 0 0 1 I I #
straight-curve $-1 -43.154381355442389 -13.880859035222223 65.865868069694628 0.85716729658548041 0 -0.51503808176128008 I I #
edge $-1 $488 -28.498931546199017 $268 -13.880859035222223 $384 $495 forward 7 unknown #
point $-1 60.411999877925965 -13.880859035222223 14.838916334542605 #
point $-1 41.768725926731143 -13.880859035222223 14.838916334542603 #
edge $-1 $496 1 $496 0 $271 $-1 forward 7 unknown #
vertex $-1 $272 $497 #
ellipse-curve $-1 49.583608910914116 -24.322339400205649 6.7302519621692269 0.51503808176128008 0 0.85716729658548041 1.2857509448782207 0 -0.77255712264192011 1 I I #
point $-1 52.376113847206788 -24.322339400205649 8.4653545469870206 #
edge $-1 $498 1 $498 0 $275 $-1 forward 7 unknown #
vertex $-1 $276 $499 #
ellipse-curve $-1 49.583608910914116 -18.057451181215594 6.7302519621692269 0.51503808176128008 0 0.85716729658548041 1.2857509448782207 0 -0.77255712264192011 1 I I #
point $-1 52.376113847206788 -18.057451181215594 8.4653545469870206 #
plane-surface $-1 0 0 14.838916334542605 0 0 1 1 0 0 forward_v I I I I #
coedge $-1 $411 $410 $403 $500 forward $280 $-1 #
coedge $-1 $403 $282 $284 $407 reversed $177 $-1 #
coedge $-1 $282 $402 $401 $500 reversed $177 $-1 #
coedge $-1 $290 $285 $282 $405 forward $291 $-1 #
edge $-1 $408 32.231436071962662 $501 50.874710023157483 $404 $502 forward 7 unknown #
coedge $-1 $284 $283 $411 $503 reversed $111 $-1 #
edge $-1 $504 -120.82399975585193 $408 -99.074133626497527 $402 $505 forward 7 unknown #
vertex $-1 $286 $506 #
straight-curve $-1 41.76872592673115 7.0498933256526612 14.838916334542596 0 -1 0 I I #
coedge $-1 $401 $287 $290 $415 reversed $280 $-1 #
coedge $-1 $287 $401 $406 $503 forward $280 $-1 #
vertex $-1 $288 $507 #
straight-curve $-1 60.411999877925965 21.40882290679372 84.716124651531487 0 0 1 I I #
straight-curve $-1 -43.154381355442389 21.40882290679372 65.865868069694628 0.85716729658548041 0 -0.51503808176128008 I I #
edge $-1 $501 6.7907503958169242 $292 21.40882290679372 $410 $508 forward 7 unknown #
point $-1 60.411999877925965 21.40882290679372 14.838916334542605 #
point $-1 41.768725926731143 21.40882290679372 14.838916334542603 #
edge $-1 $509 1 $509 0 $295 $-1 forward 7 unknown #
vertex $-1 $296 $510 #
ellipse-curve $-1 49.583608910914116 10.967342541810297 6.7302519621692269 0.51503808176128008 0 0.85716729658548041 1.2857509448782207 0 -0.77255712264192011 1 I I #
point $-1 52.376113847206788 10.967342541810297 8.4653545469870206 #
edge $-1 $511 1 $511 0 $299 $-1 forward 7 unknown #
vertex $-1 $300 $512 #
ellipse-curve $-1 49.583608910914116 17.232230760800348 6.7302519621692269 0.51503808176128008 0 0.85716729658548041 1.2857509448782207 0 -0.77255712264192011 1 I I #
point $-1 52.376113847206788 17.232230760800348 8.4653545469870206 #
loop $-1 $-1 $311 $303 #
plane-surface $-1 -60.411999877925965 0 0 1 0 0 0 0 -1 forward_v I I I I #
coedge $-1 $429 $306 $308 $433 reversed $199 $-1 #
coedge $-1 $306 $428 $513 $514 reversed $199 $-1 #
coedge $-1 $314 $309 $306 $431 forward $304 $-1 #
edge $-1 $434 -11.569433133898897 $515 -6.1508496265045522 $430 $516 forward 7 unknown #
coedge $-1 $308 $307 $437 $517 reversed $125 $-1 #
edge $-1 $518 -1.7763522597878294e-014 $434 6.7848016750803346 $428 $519 forward 7 unknown #
vertex $-1 $310 $520 #
straight-curve $-1 -54.993416370531627 -3.811074284666379 14.838916334542605 0 1 0 I I #
coedge $-1 $513 $311 $314 $441 reversed $426 $-1 #
coedge $-1 $311 $513 $432 $517 forward $426 $-1 #
vertex $-1 $312 $521 #
straight-curve $-1 -60.411999877925965 -12.092189308501347 53.625028341484295 0 0 1 I I #
straight-curve $-1 -60.41199987792595 -12.092189308501347 10.755720705679465 -0.79863550430605224 0 -0.6018150307709319 I I #
edge $-1 $515 3.1521078301641694 $315 12.092189308501347 $436 $522 forward 7 unknown #
point $-1 -60.411999877925965 -12.092189308501347 14.838916334542605 #
point $-1 -54.993416370531619 -12.092189308501347 14.838916334542605 #
edge $-1 $523 1 $523 0 $318 $-1 forward 7 unknown #
vertex $-1 $319 $524 #
ellipse-curve $-1 -56.543892317122221 -9.5378803146907245 11.259518034601641 -0.6018150307709319 0 0.79863550430605224 0.79863550430605224 0 0.6018150307709319 1 I I #
point $-1 -56.904072619922744 -9.5378803146907245 13.399133550881956 #
edge $-1 $525 1 $525 0 $322 $-1 forward 7 unknown #
vertex $-1 $323 $526 #
ellipse-curve $-1 -56.543892317122221 -5.7064168239747914 11.259518034601641 -0.6018150307709319 0 0.79863550430605224 0.79863550430605224 0 0.6018150307709319 1 I I #
point $-1 -56.904072619922744 -5.7064168239747914 13.399133550881956 #
plane-surface $-1 60.411999877925965 0 0 -1 0 0 0 0 1 forward_v I I I I #
coedge $-1 $331 $329 $333 $457 reversed $221 $-1 #
edge $-1 $344 -14.838916334542605 $459 14.838916334542605 $343 $527 forward 7 unknown #
vertex $-1 $457 $528 #
straight-curve $-1 -60.411999877925965 -42.080432337832875 0 0 0 -1 I I #
edge $-1 $455 -42.080432337832875 $459 42.080432337832875 $453 $529 forward 7 unknown #
straight-curve $-1 0 -42.080432337832875 -14.838916334542605 -1 0 0 I I #
vertex $-1 $336 $530 #
straight-curve $-1 0 42.080432337832875 -14.838916334542605 1 0 0 I I #
point $-1 60.411999877925965 42.080432337832875 -14.838916334542605 #
point $-1 60.411999877925965 -42.080432337832875 -14.838916334542605 #
straight-curve $-1 -60.411999877925965 0 14.838916334542605 0 -1 0 I I #
point $-1 -60.411999877925965 42.080432337832875 14.838916334542605 #
point $-1 -60.411999877925965 -42.080432337832875 14.838916334542605 #
straight-curve $-1 60.411999877925965 -42.080432337832875 0 0 0 -1 I I #
straight-curve $-1 60.411999877925965 42.080432337832875 0 0 0 -1 I I #
loop $-1 $-1 $476 $353 #
plane-surface $-1 -60.411999877925965 0 0 1 0 0 0 0 -1 forward_v I I I I #
coedge $-1 $357 $356 $482 $531 forward $147 $-1 #
edge $-1 $361 28.498931546199017 $485 42.080432337832875 $360 $532 forward 7 unknown #
coedge $-1 $479 $476 $357 $473 reversed $468 $-1 #
edge $-1 $533 -42.080432337832875 $474 -28.498931546199017 $472 $534 forward 7 unknown #
vertex $-1 $477 $535 #
straight-curve $-1 0 -28.498931546199017 -14.838916334542605 1 0 0 I I #
coedge $-1 $472 $363 $359 $477 forward $468 $-1 #
edge $-1 $365 2.0936018604207645 $474 9.1947436028881491 $476 $536 forward 7 unknown #
point $-1 60.411999877925965 -28.498931546199017 -14.838916334542605 #
coedge $-1 $363 $472 $367 $483 reversed $468 $-1 #
straight-curve $-1 -60.411999877925965 -17.644840971007973 -7.7377745920752208 0 1 0 I I #
point $-1 -60.411999877925965 -28.498931546199017 -7.7377745920752208 #
coedge $-1 $368 $367 $470 $531 reversed $354 $-1 #
edge $-1 $369 7.7377745920752208 $533 14.838916334542605 $479 $537 forward 7 unknown #
point $-1 -60.411999877925965 -42.080432337832875 -7.7377745920752208 #
vertex $-1 $371 $538 #
straight-curve $-1 60.411999877925965 -42.080432337832875 0 0 0 -1 I I #
edge $-1 $488 69.877208316988884 $491 81.079217646816218 $375 $539 forward 7 unknown #
vertex $-1 $389 $540 #
straight-curve $-1 9.5372898547684812 -28.498931546199017 14.838916334542603 1 0 0 I I #
edge $-1 $491 -17.903983900843706 $386 -3.2859113898669126 $385 $541 forward 7 unknown #
vertex $-1 $490 $542 #
straight-curve $-1 -43.154381355442389 -28.498931546199017 65.865868069694628 -0.85716729658548041 0 0.51503808176128008 I I #
point $-1 41.768725926731143 -28.498931546199017 14.838916334542603 #
point $-1 60.411999877925972 -13.880859035222223 3.636907004715269 #
straight-curve $-1 60.411999877925965 0 14.838916334542605 0 1 0 I I #
vertex $-1 $392 $543 #
point $-1 50.869359855792339 -24.322339400205649 5.9576948395273073 #
vertex $-1 $396 $544 #
point $-1 50.869359855792339 -18.057451181215594 5.9576948395273073 #
edge $-1 $501 69.877208316988884 $504 81.079217646816218 $401 $545 forward 7 unknown #
vertex $-1 $415 $546 #
straight-curve $-1 9.5372898547684812 6.7907503958169242 14.838916334542603 1 0 0 I I #
edge $-1 $504 -0.25914292983573706 $412 14.358929581141059 $411 $547 forward 7 unknown #
vertex $-1 $503 $548 #
straight-curve $-1 -43.154381355442389 6.7907503958169242 65.865868069694628 -0.85716729658548041 0 0.51503808176128008 I I #
point $-1 41.768725926731143 6.7907503958169242 14.838916334542603 #
point $-1 60.411999877925972 21.40882290679372 3.636907004715269 #
straight-curve $-1 60.411999877925965 0 14.838916334542605 0 1 0 I I #
vertex $-1 $418 $549 #
point $-1 50.869359855792339 10.967342541810297 5.9576948395273073 #
vertex $-1 $422 $550 #
point $-1 50.869359855792339 17.232230760800348 5.9576948395273073 #
coedge $-1 $437 $436 $429 $514 forward $426 $-1 #
edge $-1 $515 38.786112006941693 $518 42.869307635804844 $513 $551 forward 7 unknown #
vertex $-1 $441 $552 #
straight-curve $-1 -66.562849504430517 -3.1521078301641694 14.838916334542603 -1 0 0 I I #
edge $-1 $518 -0.65896645450220959 $438 8.2811150238349676 $437 $553 forward 7 unknown #
vertex $-1 $517 $554 #
straight-curve $-1 -60.41199987792595 -3.1521078301641694 10.755720705679465 0.79863550430605224 0 0.6018150307709319 I I #
point $-1 -54.993416370531619 -3.1521078301641694 14.838916334542605 #
point $-1 -60.411999877925965 -12.092189308501347 10.755720705679455 #
straight-curve $-1 -60.411999877925965 0 14.838916334542605 0 -1 0 I I #
vertex $-1 $444 $555 #
point $-1 -55.745256812816166 -9.5378803146907245 11.861333065372573 #
vertex $-1 $448 $556 #
point $-1 -55.745256812816166 -5.7064168239747914 11.861333065372573 #
straight-curve $-1 -60.411999877925965 42.080432337832875 0 0 0 -1 I I #
point $-1 -60.411999877925965 -42.080432337832875 -14.838916334542605 #
straight-curve $-1 -60.411999877925965 0 -14.838916334542605 0 1 0 I I #
point $-1 -60.411999877925965 42.080432337832875 -14.838916334542605 #
edge $-1 $485 -60.411999877925965 $533 60.411999877925965 $482 $557 forward 7 unknown #
straight-curve $-1 60.411999877925965 0 -14.838916334542605 0 -1 0 I I #
vertex $-1 $473 $558 #
straight-curve $-1 -60.411999877925965 0 -14.838916334542605 0 1 0 I I #
point $-1 -60.411999877925965 -28.498931546199017 -14.838916334542605 #
straight-curve $-1 -60.411999877925965 -28.498931546199017 -5.6441727316544563 0 0 -1 I I #
straight-curve $-1 -60.411999877925965 -42.080432337832875 0 0 0 -1 I I #
point $-1 60.411999877925965 -42.080432337832875 -14.838916334542605 #
straight-curve $-1 60.411999877925965 -28.498931546199017 84.716124651531487 0 0 -1 I I #
point $-1 60.411999877925965 -28.498931546199017 14.838916334542605 #
straight-curve $-1 60.411999877925965 -10.59494764535531 3.6369070047152761 0 1 0 I I #
point $-1 60.411999877925972 -28.498931546199017 3.636907004715269 #
point $-1 48.811051788272202 -24.322339400205649 5.4445010172910067 #
point $-1 48.811051788272202 -18.057451181215594 5.4445010172910067 #
straight-curve $-1 60.411999877925965 6.7907503958169242 84.716124651531487 0 0 -1 I I #
point $-1 60.411999877925965 6.7907503958169242 14.838916334542605 #
straight-curve $-1 60.411999877925965 7.0498933256526612 3.6369070047152761 0 1 0 I I #
point $-1 60.411999877925972 6.7907503958169242 3.636907004715269 #
point $-1 48.811051788272202 10.967342541810297 5.4445010172910067 #
point $-1 48.811051788272202 17.232230760800348 5.4445010172910067 #
straight-curve $-1 -60.411999877925965 -3.1521078301641694 53.625028341484295 0 0 -1 I I #
point $-1 -60.411999877925965 -3.1521078301641694 14.838916334542605 #
straight-curve $-1 -60.411999877925965 -3.811074284666379 10.755720705679456 0 -1 0 I I #
point $-1 -60.411999877925965 -3.1521078301641694 10.755720705679455 #
point $-1 -55.942077286351285 -9.5378803146907245 10.460882530295589 #
point $-1 -55.942077286351285 -5.7064168239747914 10.460882530295589 #
straight-curve $-1 0 -42.080432337832875 -14.838916334542605 -1 0 0 I I #
point $-1 -60.411999877925965 -42.080432337832875 -14.838916334542605 #
End-of-ACIS-data 