500 0 7 0           
7 Unknown 11 ACIS 5.0 NT 24 Fri Mar 26 17:43:14 1999 
-1 9.9999999999999995e-007 1e-010 
body $-1 $7 $-1 $8 #
body $-1 $9 $-1 $10 #
body $-1 $11 $-1 $12 #
body $-1 $13 $-1 $14 #
body $-1 $15 $-1 $16 #
body $-1 $17 $-1 $18 #
body $-1 $19 $-1 $20 #
lump $-1 $-1 $21 $0 #
transform $-1 1 0 0 0 1 0 0 0 1 75.578478347117525 40.924983712665366 16.48814600007265 1 rotate no_reflect no_shear #
lump $-1 $-1 $22 $1 #
transform $-1 1 0 0 0 1 0 0 0 1 75.578478347117525 40.924983712665366 16.48814600007265 1 rotate no_reflect no_shear #
lump $-1 $-1 $23 $2 #
transform $-1 1 0 0 0 1 0 0 0 1 75.578478347117525 40.924983712665366 16.48814600007265 1 rotate no_reflect no_shear #
lump $-1 $-1 $24 $3 #
transform $-1 1 0 0 0 1 0 0 0 1 75.578478347117525 40.924983712665366 16.48814600007265 1 rotate no_reflect no_shear #
lump $-1 $-1 $25 $4 #
transform $-1 1 0 0 0 1 0 0 0 1 75.578478347117525 40.924983712665366 16.48814600007265 1 rotate no_reflect no_shear #
lump $-1 $-1 $26 $5 #
transform $-1 1 0 0 0 1 0 0 0 1 75.578478347117525 40.924983712665366 16.48814600007265 1 rotate no_reflect no_shear #
lump $-1 $-1 $27 $6 #
transform $-1 1 0 0 0 1 0 0 0 1 75.578478347117525 40.924983712665366 16.48814600007265 1 rotate no_reflect no_shear #
shell $-1 $-1 $-1 $28 $-1 $7 #
shell $-1 $-1 $-1 $29 $-1 $9 #
shell $-1 $-1 $-1 $30 $-1 $11 #
shell $-1 $-1 $-1 $31 $-1 $13 #
shell $-1 $-1 $-1 $32 $-1 $15 #
shell $-1 $-1 $-1 $33 $-1 $17 #
shell $-1 $-1 $-1 $34 $-1 $19 #
face $-1 $35 $36 $21 $-1 $37 forward single #
face $-1 $38 $39 $22 $-1 $40 reversed single #
face $-1 $41 $42 $23 $-1 $43 forward single #
face $-1 $44 $45 $24 $-1 $46 forward single #
face $-1 $47 $48 $25 $-1 $49 reversed single #
face $-1 $50 $51 $26 $-1 $52 forward single #
face $-1 $53 $54 $27 $-1 $55 forward single #
face $-1 $56 $57 $21 $-1 $58 reversed single #
loop $-1 $-1 $59 $28 #
plane-surface $-1 0 0 16.48814600007265 0 0 1 1 0 0 forward_v I I I I #
face $-1 $60 $61 $22 $-1 $62 reversed single #
loop $-1 $-1 $63 $29 #
plane-surface $-1 20.25119383544596 -3.170866717250922 212.80412315714599 0 -1 0 -0.50000000669873634 0 -0.8660253999169214 forward_v I I I I #
face $-1 $64 $65 $23 $-1 $66 forward single #
loop $-1 $67 $68 $30 #
cone-surface $-1 65.92311060482163 -15.534772678253265 9.9328243324311867 -0.50000000669873634 0 -0.8660253999169214 0.8660253999169214 0 -0.50000000669873634 1 I I 0 1 1 forward I I I I #
face $-1 $69 $70 $24 $-1 $71 forward single #
loop $-1 $72 $73 $31 #
cone-surface $-1 65.92311060482163 -8.1164291016518604 9.9328243324311867 -0.50000000669873634 0 -0.8660253999169214 0.8660253999169214 0 -0.50000000669873634 1 I I 0 1 1 forward I I I I #
face $-1 $74 $75 $25 $-1 $76 reversed single #
loop $-1 $-1 $77 $32 #
plane-surface $-1 -157.90445845550886 -19.80366044337358 127.1183125853025 0 -1 0 0.54463904215088732 0 -0.83867056331134215 forward_v I I I I #
face $-1 $78 $79 $26 $-1 $80 forward single #
loop $-1 $81 $82 $33 #
cone-surface $-1 -62.145232247942339 -34.890319921439144 6.8687123763606719 0.54463904215088732 0 -0.83867056331134215 2.0966764082783556 0 1.3615976053772183 1 I I 0 1 2.5 forward I I I I #
face $-1 $83 $84 $27 $-1 $85 forward single #
loop $-1 $86 $87 $34 #
cone-surface $-1 -62.145232247942339 -25.838324234599803 6.8687123763606719 0.54463904215088732 0 -0.83867056331134215 2.0966764082783556 0 1.3615976053772183 1 I I 0 1 2.5 forward I I I I #
face $-1 $88 $89 $21 $-1 $90 reversed single #
loop $-1 $-1 $91 $35 #
plane-surface $-1 0 0 -16.48814600007265 0 0 1 1 0 0 forward_v I I I I #
coedge $-1 $92 $93 $94 $95 forward $36 $-1 #
face $-1 $96 $97 $22 $-1 $98 reversed single #
loop $-1 $-1 $99 $38 #
plane-surface $-1 -55.327285524232167 -11.825600889952561 81.898359285796317 0.50000000669873634 0 0.8660253999169214 0.8660253999169214 0 -0.50000000669873634 forward_v I I I I #
coedge $-1 $100 $101 $102 $103 reversed $39 $-1 #
face $-1 $-1 $104 $23 $-1 $105 forward single #
loop $-1 $106 $107 $41 #
cone-surface $-1 64.823719434356619 -15.534772678253265 8.028623001808473 -0.50000000669873634 0 -0.8660253999169214 0.4330126999584607 0 -0.25000000334936817 1 I I -0.70710678118654746 0.70710678118654746 0.5 forward I I I I #
loop $-1 $-1 $108 $30 #
coedge $-1 $68 $68 $109 $110 reversed $42 $-1 #
face $-1 $-1 $111 $24 $-1 $112 forward single #
loop $-1 $113 $114 $44 #
cone-surface $-1 64.823719434356619 -8.1164291016518604 8.028623001808473 -0.50000000669873634 0 -0.8660253999169214 0.4330126999584607 0 -0.25000000334936817 1 I I -0.70710678118654746 0.70710678118654746 0.5 forward I I I I #
loop $-1 $-1 $115 $31 #
coedge $-1 $73 $73 $116 $117 reversed $45 $-1 #
face $-1 $118 $119 $25 $-1 $120 reversed single #
loop $-1 $-1 $121 $47 #
plane-surface $-1 -75.578478347117525 -30.364322078019473 0.34742256612024391 -0.54463904215088732 0 0.83867056331134215 0.83867056331134215 0 0.54463904215088732 forward_v I I I I #
coedge $-1 $122 $123 $124 $125 reversed $48 $-1 #
face $-1 $-1 $126 $26 $-1 $127 forward single #
loop $-1 $128 $129 $50 #
cone-surface $-1 -60.458454367871695 -34.890319921439144 4.2713022654857333 0.54463904215088732 0 -0.83867056331134215 1.0483382041391778 0 0.68079880268860915 1 I I -0.70710678118654746 0.70710678118654746 1.25 forward I I I I #
loop $-1 $-1 $130 $33 #
coedge $-1 $82 $82 $131 $132 reversed $51 $-1 #
face $-1 $-1 $133 $27 $-1 $134 forward single #
loop $-1 $135 $136 $53 #
cone-surface $-1 -60.458454367871695 -25.838324234599803 4.2713022654857333 0.54463904215088732 0 -0.83867056331134215 1.0483382041391778 0 0.68079880268860915 1 I I -0.70710678118654746 0.70710678118654746 1.25 forward I I I I #
loop $-1 $-1 $137 $34 #
coedge $-1 $87 $87 $138 $139 reversed $54 $-1 #
face $-1 $140 $141 $21 $-1 $142 reversed single #
loop $-1 $-1 $143 $56 #
plane-surface $-1 0 -40.924983712665366 0 0 1 0 0 0 1 forward_v I I I I #
coedge $-1 $144 $145 $146 $147 forward $57 $-1 #
coedge $-1 $148 $59 $149 $150 forward $36 $-1 #
coedge $-1 $59 $148 $151 $152 forward $36 $-1 #
coedge $-1 $153 $154 $59 $95 reversed $155 $-1 #
edge $-1 $156 -40.924983712665366 $157 40.924983712665366 $94 $158 forward 7 unknown #
face $-1 $159 $160 $22 $-1 $161 forward single #
loop $-1 $-1 $162 $60 #
plane-surface $-1 20.25119383544596 -20.480335062654198 212.80412315714599 0 1 0 0.50000000669873634 0 0.8660253999169214 forward_v I I I I #
coedge $-1 $163 $164 $165 $166 reversed $61 $-1 #
coedge $-1 $101 $63 $167 $168 reversed $39 $-1 #
coedge $-1 $63 $100 $163 $169 reversed $39 $-1 #
coedge $-1 $165 $170 $63 $103 forward $160 $-1 #
edge $-1 $171 -65.452881429394552 $172 -47.840928279034038 $102 $173 forward 7 unknown #
loop $-1 $-1 $109 $64 #
plane-surface $-1 -55.327285524232167 -11.825600889952561 81.898359285796317 0.50000000669873634 0 0.8660253999169214 0.8660253999169214 0 -0.50000000669873634 forward_v I I I I #
loop $-1 $-1 $174 $41 #
coedge $-1 $107 $107 $108 $175 reversed $65 $-1 #
coedge $-1 $108 $108 $107 $175 forward $67 $-1 #
coedge $-1 $109 $109 $68 $110 forward $104 $-1 #
edge $-1 $176 0 $176 6.2831853071796004 $109 $177 forward 7 unknown #
loop $-1 $-1 $116 $69 #
plane-surface $-1 -55.327285524232167 -11.825600889952561 81.898359285796317 0.50000000669873634 0 0.8660253999169214 0.8660253999169214 0 -0.50000000669873634 forward_v I I I I #
loop $-1 $-1 $178 $44 #
coedge $-1 $114 $114 $115 $179 reversed $70 $-1 #
coedge $-1 $115 $115 $114 $179 forward $72 $-1 #
coedge $-1 $116 $116 $73 $117 forward $111 $-1 #
edge $-1 $180 0 $180 6.2831853071796004 $116 $181 forward 7 unknown #
face $-1 $182 $183 $25 $-1 $184 forward single #
loop $-1 $-1 $185 $74 #
plane-surface $-1 0 -40.924983712665366 0 0 1 0 0 0 1 forward_v I I I I #
coedge $-1 $186 $187 $188 $189 reversed $75 $-1 #
coedge $-1 $123 $77 $190 $191 reversed $48 $-1 #
coedge $-1 $77 $122 $186 $192 reversed $48 $-1 #
coedge $-1 $188 $193 $77 $125 forward $194 $-1 #
edge $-1 $195 47.071010292578606 $196 63.211733726531008 $124 $197 forward 7 unknown #
loop $-1 $-1 $131 $78 #
plane-surface $-1 -75.578478347117525 -30.364322078019473 0.34742256612024391 -0.54463904215088732 0 0.83867056331134215 0.83867056331134215 0 0.54463904215088732 forward_v I I I I #
loop $-1 $-1 $198 $50 #
coedge $-1 $129 $129 $130 $199 reversed $79 $-1 #
coedge $-1 $130 $130 $129 $199 forward $81 $-1 #
coedge $-1 $131 $131 $82 $132 forward $126 $-1 #
edge $-1 $200 0 $200 6.2831853071796004 $131 $201 forward 7 unknown #
loop $-1 $-1 $138 $83 #
plane-surface $-1 -75.578478347117525 -30.364322078019473 0.34742256612024391 -0.54463904215088732 0 0.83867056331134215 0.83867056331134215 0 0.54463904215088732 forward_v I I I I #
loop $-1 $-1 $202 $53 #
coedge $-1 $136 $136 $137 $203 reversed $84 $-1 #
coedge $-1 $137 $137 $136 $203 forward $86 $-1 #
coedge $-1 $138 $138 $87 $139 forward $133 $-1 #
edge $-1 $204 0 $204 6.2831853071796004 $138 $205 forward 7 unknown #
face $-1 $206 $207 $21 $-1 $208 reversed single #
loop $-1 $-1 $209 $88 #
plane-surface $-1 -75.578478347117525 0 0 1 0 0 0 0 -1 forward_v I I I I #
coedge $-1 $210 $151 $211 $212 forward $89 $-1 #
coedge $-1 $213 $91 $210 $214 forward $57 $-1 #
coedge $-1 $91 $213 $215 $216 forward $57 $-1 #
coedge $-1 $154 $153 $91 $147 reversed $155 $-1 #
edge $-1 $217 -40.924983712665366 $218 40.924983712665366 $146 $219 forward 7 unknown #
coedge $-1 $93 $92 $220 $221 forward $36 $-1 #
coedge $-1 $222 $223 $92 $150 reversed $207 $-1 #
edge $-1 $157 -75.578478347117525 $224 75.578478347117525 $149 $225 forward 7 unknown #
coedge $-1 $143 $226 $93 $152 reversed $89 $-1 #
edge $-1 $227 -75.578478347117525 $156 75.578478347117525 $151 $228 forward 7 unknown #
coedge $-1 $146 $94 $226 $229 forward $155 $-1 #
coedge $-1 $94 $146 $222 $230 reversed $155 $-1 #
loop $-1 $-1 $153 $206 #
vertex $-1 $95 $231 #
vertex $-1 $95 $232 #
straight-curve $-1 75.578478347117525 0 16.48814600007265 0 1 0 I I #
face $-1 $-1 $233 $22 $-1 $234 reversed single #
loop $-1 $-1 $102 $96 #
plane-surface $-1 0 0 16.48814600007265 0 0 1 1 0 0 forward_v I I I I #
coedge $-1 $235 $236 $237 $238 reversed $97 $-1 #
coedge $-1 $239 $99 $101 $169 forward $61 $-1 #
coedge $-1 $99 $239 $235 $240 forward $61 $-1 #
coedge $-1 $237 $102 $99 $166 forward $160 $-1 #
edge $-1 $172 -2.7419337277253586 $241 14.567534617677918 $165 $242 forward 7 unknown #
coedge $-1 $243 $244 $100 $168 forward $233 $-1 #
edge $-1 $245 -100.08218165245481 $171 -89.913915578500351 $167 $246 forward 7 unknown #
edge $-1 $172 130.82042481878426 $245 151.15695669423508 $101 $247 forward 7 unknown #
coedge $-1 $102 $237 $243 $248 forward $160 $-1 #
vertex $-1 $168 $249 #
vertex $-1 $103 $250 #
straight-curve $-1 10.12559691772298 -3.170866717250922 16.488146000072646 -1 0 0 I I #
coedge $-1 $174 $174 $-1 $251 reversed $106 $-1 #
edge $-1 $252 0 $252 6.2831853071796004 $107 $253 forward 7 unknown #
vertex $-1 $110 $254 #
ellipse-curve $-1 66.772501771937272 -15.534772678253265 11.404012963095427 0.50000000669873634 0 0.8660253999169214 0.8660253999169214 0 -0.50000000669873634 1 I I #
coedge $-1 $178 $178 $-1 $255 reversed $113 $-1 #
edge $-1 $256 0 $256 6.2831853071796004 $114 $257 forward 7 unknown #
vertex $-1 $117 $258 #
ellipse-curve $-1 66.772501771937272 -8.1164291016518604 11.404012963095427 0.50000000669873634 0 0.8660253999169214 0.8660253999169214 0 -0.50000000669873634 1 I I #
face $-1 $-1 $194 $25 $-1 $259 reversed single #
loop $-1 $-1 $260 $118 #
plane-surface $-1 0 0 16.48814600007265 0 0 1 1 0 0 forward_v I I I I #
coedge $-1 $261 $262 $187 $263 forward $119 $-1 #
coedge $-1 $264 $121 $123 $192 forward $75 $-1 #
coedge $-1 $121 $264 $185 $263 reversed $75 $-1 #
coedge $-1 $265 $124 $121 $189 forward $194 $-1 #
edge $-1 $196 4.6214994043638438 $266 25.742822673655631 $188 $267 forward 7 unknown #
coedge $-1 $268 $260 $122 $191 forward $183 $-1 #
edge $-1 $269 -28.228284924223175 $195 -3.373750880636905 $190 $270 forward 7 unknown #
edge $-1 $196 0 $269 29.635634217865647 $123 $271 forward 7 unknown #
coedge $-1 $124 $265 $268 $272 reversed $194 $-1 #
loop $-1 $-1 $188 $182 #
vertex $-1 $272 $273 #
vertex $-1 $125 $274 #
straight-curve $-1 -75.578478347117525 -19.80366044337358 63.559156292651252 0 0 -1 I I #
coedge $-1 $198 $198 $-1 $275 reversed $128 $-1 #
edge $-1 $276 0 $276 6.2831853071796004 $129 $277 forward 7 unknown #
vertex $-1 $132 $278 #
ellipse-curve $-1 -63.151211325324383 -34.890319921439144 8.4177842830964522 -0.54463904215088732 0 0.83867056331134215 2.0966764082783556 0 1.3615976053772183 1 I I #
coedge $-1 $202 $202 $-1 $279 reversed $135 $-1 #
edge $-1 $280 0 $280 6.2831853071796004 $136 $281 forward 7 unknown #
vertex $-1 $139 $282 #
ellipse-curve $-1 -63.151211325324383 -25.838324234599803 8.4177842830964522 -0.54463904215088732 0 0.83867056331134215 2.0966764082783556 0 1.3615976053772183 1 I I #
face $-1 $-1 $155 $21 $-1 $283 reversed single #
loop $-1 $-1 $222 $140 #
plane-surface $-1 0 40.924983712665366 0 0 -1 0 0 0 -1 forward_v I I I I #
coedge $-1 $284 $220 $223 $285 forward $141 $-1 #
coedge $-1 $226 $143 $144 $214 reversed $89 $-1 #
coedge $-1 $220 $284 $143 $212 reversed $141 $-1 #
edge $-1 $227 -16.48814600007265 $286 16.48814600007265 $211 $287 forward 7 unknown #
coedge $-1 $145 $144 $284 $288 forward $57 $-1 #
edge $-1 $218 -75.578478347117525 $286 75.578478347117525 $210 $289 forward 7 unknown #
coedge $-1 $223 $222 $145 $216 reversed $207 $-1 #
edge $-1 $290 -75.578478347117525 $217 75.578478347117525 $215 $291 forward 7 unknown #
vertex $-1 $147 $292 #
vertex $-1 $229 $293 #
straight-curve $-1 75.578478347117525 0 -16.48814600007265 0 -1 0 I I #
coedge $-1 $209 $211 $148 $221 reversed $141 $-1 #
edge $-1 $224 -40.924983712665366 $227 40.924983712665366 $220 $294 forward 7 unknown #
coedge $-1 $215 $149 $154 $230 forward $207 $-1 #
coedge $-1 $149 $215 $209 $285 reversed $207 $-1 #
vertex $-1 $150 $295 #
straight-curve $-1 0 40.924983712665366 16.48814600007265 -1 0 0 I I #
coedge $-1 $151 $210 $153 $229 reversed $89 $-1 #
vertex $-1 $221 $296 #
straight-curve $-1 0 -40.924983712665366 16.48814600007265 1 0 0 I I #
edge $-1 $156 -16.48814600007265 $218 16.48814600007265 $153 $297 forward 7 unknown #
edge $-1 $157 -16.48814600007265 $217 16.48814600007265 $154 $298 forward 7 unknown #
point $-1 75.578478347117525 -40.924983712665366 16.48814600007265 #
point $-1 75.578478347117525 40.924983712665366 16.48814600007265 #
loop $-1 $-1 $167 $159 #
plane-surface $-1 75.578478347117525 0 0 -1 0 0 0 0 1 forward_v I I I I #
coedge $-1 $236 $162 $164 $240 reversed $97 $-1 #
coedge $-1 $162 $235 $299 $300 reversed $97 $-1 #
coedge $-1 $170 $165 $162 $238 forward $160 $-1 #
edge $-1 $241 47.840928279034038 $301 65.452881429394552 $237 $302 forward 7 unknown #
coedge $-1 $164 $163 $244 $303 reversed $61 $-1 #
edge $-1 $304 -151.15695669423508 $241 -130.82042481878426 $235 $305 forward 7 unknown #
vertex $-1 $166 $306 #
straight-curve $-1 57.966525196757026 -5.9128004449762805 16.488146000072653 0 -1 0 I I #
coedge $-1 $299 $167 $170 $248 reversed $233 $-1 #
coedge $-1 $167 $299 $239 $303 forward $233 $-1 #
vertex $-1 $168 $307 #
straight-curve $-1 75.578478347117525 -3.170866717250922 106.402061578573 0 0 1 I I #
straight-curve $-1 -55.327285524232167 -3.170866717250922 81.898359285796317 0.8660253999169214 0 -0.50000000669873634 I I #
edge $-1 $301 -20.480335062654198 $171 -3.170866717250922 $243 $308 forward 7 unknown #
point $-1 75.578478347117525 -3.170866717250922 16.48814600007265 #
point $-1 57.966525196757019 -3.170866717250922 16.488146000072646 #
edge $-1 $309 1 $309 0 $174 $-1 forward 7 unknown #
vertex $-1 $175 $310 #
ellipse-curve $-1 65.073719437705989 -15.534772678253265 8.4616357017669337 0.50000000669873634 0 0.8660253999169214 0.8660253999169214 0 -0.50000000669873634 1 I I #
point $-1 67.638527171854207 -15.534772678253265 10.9040129563967 #
edge $-1 $311 1 $311 0 $178 $-1 forward 7 unknown #
vertex $-1 $179 $312 #
ellipse-curve $-1 65.073719437705989 -8.1164291016518604 8.4616357017669337 0.50000000669873634 0 0.8660253999169214 0.8660253999169214 0 -0.50000000669873634 1 I I #
point $-1 67.638527171854207 -8.1164291016518604 10.9040129563967 #
plane-surface $-1 -75.578478347117525 0 0 1 0 0 0 0 -1 forward_v I I I I #
coedge $-1 $190 $313 $264 $314 forward $183 $-1 #
coedge $-1 $262 $185 $313 $315 reversed $119 $-1 #
coedge $-1 $185 $261 $265 $316 forward $119 $-1 #
edge $-1 $266 -31.598112557978901 $317 -1.9624783401132537 $185 $318 forward 7 unknown #
coedge $-1 $187 $186 $260 $314 reversed $75 $-1 #
coedge $-1 $193 $188 $262 $316 reversed $194 $-1 #
vertex $-1 $263 $319 #
straight-curve $-1 -75.578478347117525 -15.182161039009737 0.34742256612024391 0 -1 0 I I #
coedge $-1 $313 $190 $193 $272 forward $183 $-1 #
vertex $-1 $191 $320 #
straight-curve $-1 -78.95222922775443 -19.80366044337358 16.488146000072646 -1 0 0 I I #
straight-curve $-1 -75.578478347117525 -19.80366044337358 0.34742256612024391 0.83867056331134215 0 0.54463904215088732 I I #
edge $-1 $195 19.80366044337358 $321 40.924983712665366 $193 $322 forward 7 unknown #
point $-1 -75.578478347117525 -19.80366044337358 16.48814600007265 #
point $-1 -75.578478347117525 -19.80366044337358 0.34742256612024391 #
edge $-1 $323 1 $323 0 $198 $-1 forward 7 unknown #
vertex $-1 $199 $324 #
ellipse-curve $-1 -61.139253170560302 -34.890319921439144 5.3196404696249111 -0.54463904215088732 0 0.83867056331134215 2.0966764082783556 0 1.3615976053772183 1 I I #
point $-1 -61.054534917046013 -34.890319921439144 9.779381888473651 #
edge $-1 $325 1 $325 0 $202 $-1 forward 7 unknown #
vertex $-1 $203 $326 #
ellipse-curve $-1 -61.139253170560302 -25.838324234599803 5.3196404696249111 -0.54463904215088732 0 0.83867056331134215 2.0966764082783556 0 1.3615976053772183 1 I I #
point $-1 -61.054534917046013 -25.838324234599803 9.779381888473651 #
plane-surface $-1 75.578478347117525 0 0 -1 0 0 0 0 1 forward_v I I I I #
coedge $-1 $211 $209 $213 $288 reversed $141 $-1 #
edge $-1 $224 -16.48814600007265 $290 16.48814600007265 $223 $327 forward 7 unknown #
vertex $-1 $288 $328 #
straight-curve $-1 -75.578478347117525 -40.924983712665366 0 0 0 -1 I I #
edge $-1 $286 -40.924983712665366 $290 40.924983712665366 $284 $329 forward 7 unknown #
straight-curve $-1 0 -40.924983712665366 -16.48814600007265 -1 0 0 I I #
vertex $-1 $216 $330 #
straight-curve $-1 0 40.924983712665366 -16.48814600007265 1 0 0 I I #
point $-1 75.578478347117525 40.924983712665366 -16.48814600007265 #
point $-1 75.578478347117525 -40.924983712665366 -16.48814600007265 #
straight-curve $-1 -75.578478347117525 0 16.48814600007265 0 -1 0 I I #
point $-1 -75.578478347117525 40.924983712665366 16.48814600007265 #
point $-1 -75.578478347117525 -40.924983712665366 16.48814600007265 #
straight-curve $-1 75.578478347117525 -40.924983712665366 0 0 0 -1 I I #
straight-curve $-1 75.578478347117525 40.924983712665366 0 0 0 -1 I I #
coedge $-1 $244 $243 $236 $300 forward $233 $-1 #
edge $-1 $301 89.913915578500351 $304 100.08218165245481 $299 $331 forward 7 unknown #
vertex $-1 $248 $332 #
straight-curve $-1 10.12559691772298 -20.480335062654198 16.488146000072646 1 0 0 I I #
edge $-1 $304 -14.567534617677918 $245 2.7419337277253586 $244 $333 forward 7 unknown #
vertex $-1 $303 $334 #
straight-curve $-1 -55.327285524232167 -20.480335062654198 81.898359285796317 -0.8660253999169214 0 0.50000000669873634 I I #
point $-1 57.966525196757019 -20.480335062654198 16.488146000072646 #
point $-1 75.57847834711751 -3.170866717250922 6.3198799261181904 #
straight-curve $-1 75.578478347117525 0 16.48814600007265 0 1 0 I I #
vertex $-1 $251 $335 #
point $-1 65.939744837622911 -15.534772678253265 7.961635695068197 #
vertex $-1 $255 $336 #
point $-1 65.939744837622911 -8.1164291016518604 7.961635695068197 #
coedge $-1 $260 $268 $261 $315 forward $183 $-1 #
edge $-1 $317 -25.742822673655631 $269 -4.6214994043638438 $260 $337 forward 7 unknown #
edge $-1 $321 -75.578478347117525 $317 -50.723944303531255 $261 $338 forward 7 unknown #
edge $-1 $321 -16.48814600007265 $266 -0.34742256612024391 $265 $339 forward 7 unknown #
vertex $-1 $263 $340 #
straight-curve $-1 -49.078071488542165 -40.924983712665366 17.556988323473796 0.83867056331134215 0 0.54463904215088732 I I #
point $-1 -75.578478347117525 -40.924983712665366 0.34742256612024391 #
point $-1 -50.723944303531255 -19.80366044337358 16.48814600007265 #
vertex $-1 $272 $341 #
straight-curve $-1 -75.578478347117525 0 16.48814600007265 0 -1 0 I I #
vertex $-1 $275 $342 #
point $-1 -59.042576762281946 -34.890319921439144 6.6812380750021294 #
vertex $-1 $279 $343 #
point $-1 -59.042576762281946 -25.838324234599803 6.6812380750021294 #
straight-curve $-1 -75.578478347117525 40.924983712665366 0 0 0 -1 I I #
point $-1 -75.578478347117525 -40.924983712665366 -16.48814600007265 #
straight-curve $-1 -75.578478347117525 0 -16.48814600007265 0 1 0 I I #
point $-1 -75.578478347117525 40.924983712665366 -16.48814600007265 #
straight-curve $-1 75.578478347117525 -20.480335062654198 106.402061578573 0 0 -1 I I #
point $-1 75.578478347117525 -20.480335062654198 16.48814600007265 #
straight-curve $-1 75.578478347117525 -5.9128004449762805 6.3198799261181833 0 1 0 I I #
point $-1 75.57847834711751 -20.480335062654198 6.3198799261181904 #
point $-1 64.573719431007248 -15.534772678253265 7.5956103018500123 #
point $-1 64.573719431007248 -8.1164291016518604 7.5956103018500123 #
straight-curve $-1 -50.723944303531262 -15.182161039009737 16.48814600007265 0 1 0 I I #
straight-curve $-1 0 -40.924983712665366 16.48814600007265 1 0 0 I I #
straight-curve $-1 -75.578478347117525 -40.924983712665366 0 0 0 -1 I I #
point $-1 -50.723944303531255 -40.924983712665366 16.48814600007265 #
point $-1 -75.578478347117525 -40.924983712665366 16.48814600007265 #
point $-1 -59.777655565183089 -34.890319921439144 3.2229640613465556 #
point $-1 -59.777655565183089 -25.838324234599803 3.2229640613465556 #
End-of-ACIS-data 