500 0 14 0           
7 Unknown 11 ACIS 5.0 NT 24 Fri Mar 26 00:27:50 1999 
-1 9.9999999999999995e-007 1e-010 
body $-1 $14 $-1 $15 #
body $-1 $16 $-1 $17 #
body $-1 $18 $-1 $19 #
body $-1 $20 $-1 $21 #
body $-1 $22 $-1 $23 #
body $-1 $24 $-1 $25 #
body $-1 $26 $-1 $27 #
body $-1 $28 $-1 $29 #
body $-1 $30 $-1 $31 #
body $-1 $32 $-1 $33 #
body $-1 $34 $-1 $35 #
body $-1 $36 $-1 $37 #
body $-1 $38 $-1 $39 #
body $-1 $40 $-1 $41 #
lump $-1 $-1 $42 $0 #
transform $-1 1 0 0 0 1 0 0 0 1 72.763451033051552 33.448936741863733 15.692121505883289 1 rotate no_reflect no_shear #
lump $-1 $-1 $43 $1 #
transform $-1 1 0 0 0 1 0 0 0 1 72.763451033051552 33.448936741863733 15.692121505883289 1 rotate no_reflect no_shear #
lump $-1 $-1 $44 $2 #
transform $-1 1 0 0 0 1 0 0 0 1 72.763451033051552 33.448936741863733 15.692121505883289 1 rotate no_reflect no_shear #
lump $-1 $-1 $45 $3 #
transform $-1 1 0 0 0 1 0 0 0 1 72.763451033051552 33.448936741863733 15.692121505883289 1 rotate no_reflect no_shear #
lump $-1 $-1 $46 $4 #
transform $-1 1 0 0 0 1 0 0 0 1 72.763451033051552 33.448936741863733 15.692121505883289 1 rotate no_reflect no_shear #
lump $-1 $-1 $47 $5 #
transform $-1 1 0 0 0 1 0 0 0 1 72.763451033051552 33.448936741863733 15.692121505883289 1 rotate no_reflect no_shear #
lump $-1 $-1 $48 $6 #
transform $-1 1 0 0 0 1 0 0 0 1 72.763451033051552 33.448936741863733 15.692121505883289 1 rotate no_reflect no_shear #
lump $-1 $-1 $49 $7 #
transform $-1 1 0 0 0 1 0 0 0 1 72.763451033051552 33.448936741863733 15.692121505883289 1 rotate no_reflect no_shear #
lump $-1 $-1 $50 $8 #
transform $-1 1 0 0 0 1 0 0 0 1 72.763451033051552 33.448936741863733 15.692121505883289 1 rotate no_reflect no_shear #
lump $-1 $-1 $51 $9 #
transform $-1 1 0 0 0 1 0 0 0 1 72.763451033051552 33.448936741863733 15.692121505883289 1 rotate no_reflect no_shear #
lump $-1 $-1 $52 $10 #
transform $-1 1 0 0 0 1 0 0 0 1 72.763451033051552 33.448936741863733 15.692121505883289 1 rotate no_reflect no_shear #
lump $-1 $-1 $53 $11 #
transform $-1 1 0 0 0 1 0 0 0 1 72.763451033051552 33.448936741863733 15.692121505883289 1 rotate no_reflect no_shear #
lump $-1 $-1 $54 $12 #
transform $-1 1 0 0 0 1 0 0 0 1 72.763451033051552 33.448936741863733 15.692121505883289 1 rotate no_reflect no_shear #
lump $-1 $-1 $55 $13 #
transform $-1 1 0 0 0 1 0 0 0 1 72.763451033051552 33.448936741863733 15.692121505883289 1 rotate no_reflect no_shear #
shell $-1 $-1 $-1 $56 $-1 $14 #
shell $-1 $-1 $-1 $57 $-1 $16 #
shell $-1 $-1 $-1 $58 $-1 $18 #
shell $-1 $-1 $-1 $59 $-1 $20 #
shell $-1 $-1 $-1 $60 $-1 $22 #
shell $-1 $-1 $-1 $61 $-1 $24 #
shell $-1 $-1 $-1 $62 $-1 $26 #
shell $-1 $-1 $-1 $63 $-1 $28 #
shell $-1 $-1 $-1 $64 $-1 $30 #
shell $-1 $-1 $-1 $65 $-1 $32 #
shell $-1 $-1 $-1 $66 $-1 $34 #
shell $-1 $-1 $-1 $67 $-1 $36 #
shell $-1 $-1 $-1 $68 $-1 $38 #
shell $-1 $-1 $-1 $69 $-1 $40 #
face $-1 $70 $71 $42 $-1 $72 reversed single #
face $-1 $73 $74 $43 $-1 $75 forward single #
face $-1 $76 $77 $44 $-1 $78 forward single #
face $-1 $79 $80 $45 $-1 $81 reversed single #
face $-1 $82 $83 $46 $-1 $84 forward single #
face $-1 $85 $86 $47 $-1 $87 forward single #
face $-1 $88 $89 $48 $-1 $90 reversed single #
face $-1 $91 $92 $49 $-1 $93 forward single #
face $-1 $94 $95 $50 $-1 $96 forward single #
face $-1 $97 $98 $51 $-1 $99 forward single #
face $-1 $100 $101 $52 $-1 $102 reversed single #
face $-1 $103 $104 $53 $-1 $105 forward single #
face $-1 $106 $107 $54 $-1 $108 forward single #
face $-1 $109 $110 $55 $-1 $111 forward single #
face $-1 $112 $113 $42 $-1 $114 reversed single #
loop $-1 $-1 $115 $56 #
plane-surface $-1 0 33.448936741863733 0 0 -1 0 0 0 -1 forward_v I I I I #
face $-1 $116 $117 $43 $-1 $118 reversed single #
loop $-1 $-1 $119 $57 #
plane-surface $-1 0 -33.448936741863733 0 0 1 0 0 0 1 forward_v I I I I #
face $-1 $120 $121 $44 $-1 $122 reversed single #
loop $-1 $-1 $123 $58 #
plane-surface $-1 0 33.448936741863733 0 0 -1 0 0 0 -1 forward_v I I I I #
face $-1 $124 $125 $45 $-1 $126 reversed single #
loop $-1 $-1 $127 $59 #
plane-surface $-1 -179.19509074698914 1.9415581176260766 107.31362247021939 0 1 0 -0.73135370988377701 0 0.68199835119979291 forward_v I I I I #
face $-1 $128 $129 $46 $-1 $130 forward single #
loop $-1 $131 $132 $60 #
cone-surface $-1 -68.581408608189321 4.8366870368376524 11.294924307471826 0.73135370988377701 0 -0.68199835119979291 0.68199835119979291 0 0.73135370988377701 1 I I 0 1 1 forward I I I I #
face $-1 $133 $134 $47 $-1 $135 forward single #
loop $-1 $136 $137 $61 #
cone-surface $-1 -68.581408608189321 9.1793804156550181 11.294924307471826 0.73135370988377701 0 -0.68199835119979291 0.68199835119979291 0 0.73135370988377701 1 I I 0 1 1 forward I I I I #
face $-1 $138 $139 $48 $-1 $140 reversed single #
loop $-1 $-1 $141 $62 #
plane-surface $-1 19.496909480481861 0 208.94768505555476 0 -1 0 -0.50000000669873634 0 -0.8660253999169214 forward_v I I I I #
face $-1 $142 $143 $49 $-1 $144 forward single #
loop $-1 $145 $146 $63 #
cone-surface $-1 67.717504604023532 -5.5150630279952502 12.49016779657782 -0.50000000669873634 0 -0.8660253999169214 0.21650634997923035 0 -0.12500000167468409 1 I I 0 1 0.25 forward I I I I #
face $-1 $147 $148 $50 $-1 $149 forward single #
loop $-1 $150 $151 $64 #
cone-surface $-1 67.717504604023532 -3.4469143924970318 12.49016779657782 -0.50000000669873634 0 -0.8660253999169214 0.21650634997923035 0 -0.12500000167468409 1 I I 0 1 0.25 forward I I I I #
face $-1 $152 $153 $51 $-1 $154 forward single #
loop $-1 $155 $156 $65 #
cone-surface $-1 67.717504604023532 -1.3787657569988099 12.49016779657782 -0.50000000669873634 0 -0.8660253999169214 0.21650634997923035 0 -0.12500000167468409 1 I I 0 1 0.25 forward I I I I #
face $-1 $157 $158 $52 $-1 $159 reversed single #
loop $-1 $-1 $160 $66 #
plane-surface $-1 19.496909480481861 6.8938287849940671 208.94768505555476 0 -1 0 -0.50000000669873634 0 -0.8660253999169214 forward_v I I I I #
face $-1 $161 $162 $53 $-1 $163 forward single #
loop $-1 $164 $165 $67 #
cone-surface $-1 67.717504604023532 1.378765756998817 12.49016779657782 -0.50000000669873634 0 -0.8660253999169214 0.21650634997923035 0 -0.12500000167468409 1 I I 0 1 0.25 forward I I I I #
face $-1 $166 $167 $54 $-1 $168 forward single #
loop $-1 $169 $170 $68 #
cone-surface $-1 67.717504604023532 3.4469143924970354 12.49016779657782 -0.50000000669873634 0 -0.8660253999169214 0.21650634997923035 0 -0.12500000167468409 1 I I 0 1 0.25 forward I I I I #
face $-1 $171 $172 $55 $-1 $173 forward single #
loop $-1 $174 $175 $69 #
cone-surface $-1 67.717504604023532 5.5150630279952537 12.49016779657782 -0.50000000669873634 0 -0.8660253999169214 0.21650634997923035 0 -0.12500000167468409 1 I I 0 1 0.25 forward I I I I #
face $-1 $176 $177 $42 $-1 $178 forward single #
loop $-1 $-1 $179 $70 #
plane-surface $-1 0 -33.448936741863733 0 0 1 0 0 0 1 forward_v I I I I #
coedge $-1 $180 $181 $182 $183 reversed $71 $-1 #
face $-1 $184 $185 $43 $-1 $186 reversed single #
loop $-1 $-1 $187 $73 #
plane-surface $-1 0 0 -15.692121505883289 0 0 1 1 0 0 forward_v I I I I #
coedge $-1 $188 $189 $190 $191 forward $74 $-1 #
face $-1 $192 $193 $44 $-1 $194 reversed single #
loop $-1 $-1 $195 $76 #
plane-surface $-1 0 0 -15.692121505883289 0 0 1 1 0 0 forward_v I I I I #
coedge $-1 $196 $197 $198 $199 forward $77 $-1 #
face $-1 $200 $201 $45 $-1 $202 reversed single #
loop $-1 $-1 $203 $79 #
plane-surface $-1 -72.763451033051538 7.0080337262463388 8.0645152059233283 -0.73135370988377701 0 0.68199835119979291 0.68199835119979291 0 0.73135370988377701 forward_v I I I I #
coedge $-1 $204 $205 $206 $207 reversed $80 $-1 #
face $-1 $-1 $208 $46 $-1 $209 forward single #
loop $-1 $210 $211 $82 #
cone-surface $-1 -67.590118214895213 4.8366870368376524 10.37053108344044 0.73135370988377701 0 -0.68199835119979291 0.34099917559989645 0 0.36567685494188851 1 I I -0.70710678118654746 0.70710678118654746 0.5 forward I I I I #
loop $-1 $-1 $212 $60 #
coedge $-1 $132 $132 $213 $214 reversed $83 $-1 #
face $-1 $-1 $215 $47 $-1 $216 forward single #
loop $-1 $217 $218 $85 #
cone-surface $-1 -67.590118214895213 9.1793804156550181 10.37053108344044 0.73135370988377701 0 -0.68199835119979291 0.34099917559989645 0 0.36567685494188851 1 I I -0.70710678118654746 0.70710678118654746 0.5 forward I I I I #
loop $-1 $-1 $219 $61 #
coedge $-1 $137 $137 $220 $221 reversed $86 $-1 #
face $-1 $222 $223 $48 $-1 $224 reversed single #
loop $-1 $-1 $225 $88 #
plane-surface $-1 -53.266542527416036 -3.4469143924970318 82.917691495087155 0.50000000669873634 0 0.8660253999169214 0.8660253999169214 0 -0.50000000669873634 forward_v I I I I #
coedge $-1 $226 $227 $228 $229 reversed $89 $-1 #
face $-1 $-1 $230 $49 $-1 $231 forward single #
loop $-1 $232 $233 $91 #
cone-surface $-1 67.405004599836815 -5.5150630279952502 11.948901921629744 -0.50000000669873634 0 -0.8660253999169214 0.10825317498961518 0 -0.062500000837342043 1 I I -0.70710678118654746 0.70710678118654746 0.125 forward I I I I #
loop $-1 $-1 $234 $63 #
coedge $-1 $146 $146 $235 $236 reversed $92 $-1 #
face $-1 $-1 $237 $50 $-1 $238 forward single #
loop $-1 $239 $240 $94 #
cone-surface $-1 67.405004599836815 -3.4469143924970318 11.948901921629744 -0.50000000669873634 0 -0.8660253999169214 0.10825317498961518 0 -0.062500000837342043 1 I I -0.70710678118654746 0.70710678118654746 0.125 forward I I I I #
loop $-1 $-1 $241 $64 #
coedge $-1 $151 $151 $242 $243 reversed $95 $-1 #
face $-1 $-1 $244 $51 $-1 $245 forward single #
loop $-1 $246 $247 $97 #
cone-surface $-1 67.405004599836815 -1.3787657569988099 11.948901921629744 -0.50000000669873634 0 -0.8660253999169214 0.10825317498961518 0 -0.062500000837342043 1 I I -0.70710678118654746 0.70710678118654746 0.125 forward I I I I #
loop $-1 $-1 $248 $65 #
coedge $-1 $156 $156 $249 $250 reversed $98 $-1 #
face $-1 $251 $252 $52 $-1 $253 forward single #
loop $-1 $-1 $254 $100 #
plane-surface $-1 -53.266542527416036 -3.4469143924970318 82.917691495087155 0.50000000669873634 0 0.8660253999169214 0.8660253999169214 0 -0.50000000669873634 forward_v I I I I #
coedge $-1 $255 $256 $257 $258 reversed $101 $-1 #
face $-1 $-1 $259 $53 $-1 $260 forward single #
loop $-1 $261 $262 $103 #
cone-surface $-1 67.405004599836815 1.378765756998817 11.948901921629744 -0.50000000669873634 0 -0.8660253999169214 0.10825317498961518 0 -0.062500000837342043 1 I I -0.70710678118654746 0.70710678118654746 0.125 forward I I I I #
loop $-1 $-1 $263 $67 #
coedge $-1 $165 $165 $264 $265 reversed $104 $-1 #
face $-1 $-1 $266 $54 $-1 $267 forward single #
loop $-1 $268 $269 $106 #
cone-surface $-1 67.405004599836815 3.4469143924970354 11.948901921629744 -0.50000000669873634 0 -0.8660253999169214 0.10825317498961518 0 -0.062500000837342043 1 I I -0.70710678118654746 0.70710678118654746 0.125 forward I I I I #
loop $-1 $-1 $270 $68 #
coedge $-1 $170 $170 $271 $272 reversed $107 $-1 #
face $-1 $-1 $273 $55 $-1 $274 forward single #
loop $-1 $275 $276 $109 #
cone-surface $-1 67.405004599836815 5.5150630279952537 11.948901921629744 -0.50000000669873634 0 -0.8660253999169214 0.10825317498961518 0 -0.062500000837342043 1 I I -0.70710678118654746 0.70710678118654746 0.125 forward I I I I #
loop $-1 $-1 $277 $69 #
coedge $-1 $175 $175 $278 $279 reversed $110 $-1 #
face $-1 $280 $281 $42 $-1 $282 reversed single #
loop $-1 $-1 $283 $112 #
plane-surface $-1 0 0 15.692121505883289 0 0 1 1 0 0 forward_v I I I I #
coedge $-1 $284 $285 $286 $287 reversed $113 $-1 #
coedge $-1 $288 $115 $289 $290 reversed $71 $-1 #
coedge $-1 $115 $288 $291 $292 forward $71 $-1 #
coedge $-1 $293 $294 $115 $183 forward $281 $-1 #
edge $-1 $295 -72.763451033051552 $296 72.763451033051552 $115 $297 forward 7 unknown #
face $-1 $298 $299 $43 $-1 $300 reversed single #
loop $-1 $-1 $301 $116 #
plane-surface $-1 -45.844329432595259 -48.808873941544419 0 0 1 0 0 0 1 forward_v I I I I #
coedge $-1 $302 $303 $189 $304 forward $117 $-1 #
coedge $-1 $305 $119 $306 $307 reversed $74 $-1 #
coedge $-1 $119 $305 $187 $304 reversed $74 $-1 #
coedge $-1 $308 $309 $119 $191 reversed $299 $-1 #
edge $-1 $310 -15.692121505883289 $311 15.692121505883289 $190 $312 forward 7 unknown #
face $-1 $313 $314 $44 $-1 $315 reversed single #
loop $-1 $-1 $316 $120 #
plane-surface $-1 -50.309450843905537 41.128905341704083 0 1 0 0 0 0 -1 forward_v I I I I #
coedge $-1 $317 $318 $197 $319 forward $121 $-1 #
coedge $-1 $320 $123 $321 $322 reversed $77 $-1 #
coedge $-1 $123 $320 $195 $319 reversed $77 $-1 #
coedge $-1 $323 $324 $123 $199 reversed $325 $-1 #
edge $-1 $326 -15.692121505883289 $327 15.692121505883289 $198 $328 forward 7 unknown #
face $-1 $329 $330 $45 $-1 $331 reversed single #
loop $-1 $-1 $332 $124 #
plane-surface $-1 -179.19509074698914 12.074509334866601 107.31362247021939 0 -1 0 0.73135370988377701 0 -0.68199835119979291 forward_v I I I I #
coedge $-1 $333 $334 $335 $336 reversed $125 $-1 #
coedge $-1 $205 $127 $337 $338 reversed $80 $-1 #
coedge $-1 $127 $204 $333 $339 reversed $80 $-1 #
coedge $-1 $335 $340 $127 $207 forward $341 $-1 #
edge $-1 $342 16.834094340443016 $343 23.946952113463041 $206 $344 forward 7 unknown #
loop $-1 $-1 $213 $128 #
plane-surface $-1 -72.763451033051538 7.0080337262463388 8.0645152059233283 -0.73135370988377701 0 0.68199835119979291 0.68199835119979291 0 0.73135370988377701 forward_v I I I I #
loop $-1 $-1 $345 $82 #
coedge $-1 $211 $211 $212 $346 reversed $129 $-1 #
coedge $-1 $212 $212 $211 $346 forward $131 $-1 #
coedge $-1 $213 $213 $132 $214 forward $208 $-1 #
edge $-1 $347 0 $347 6.2831853071796004 $213 $348 forward 7 unknown #
loop $-1 $-1 $220 $133 #
plane-surface $-1 -72.763451033051538 7.0080337262463388 8.0645152059233283 -0.73135370988377701 0 0.68199835119979291 0.68199835119979291 0 0.73135370988377701 forward_v I I I I #
loop $-1 $-1 $349 $85 #
coedge $-1 $218 $218 $219 $350 reversed $134 $-1 #
coedge $-1 $219 $219 $218 $350 forward $136 $-1 #
coedge $-1 $220 $220 $137 $221 forward $215 $-1 #
edge $-1 $351 0 $351 6.2831853071796004 $220 $352 forward 7 unknown #
face $-1 $353 $354 $48 $-1 $355 forward single #
loop $-1 $-1 $356 $138 #
plane-surface $-1 19.496909480481861 -6.8938287849940636 208.94768505555476 0 1 0 0.50000000669873634 0 0.8660253999169214 forward_v I I I I #
coedge $-1 $357 $358 $359 $360 reversed $139 $-1 #
coedge $-1 $227 $141 $361 $362 reversed $89 $-1 #
coedge $-1 $141 $226 $357 $363 reversed $89 $-1 #
coedge $-1 $359 $364 $141 $229 forward $354 $-1 #
edge $-1 $365 -63.014996292810622 $366 -53.423103441453293 $228 $367 forward 7 unknown #
loop $-1 $-1 $235 $142 #
plane-surface $-1 -53.266542527416036 -3.4469143924970318 82.917691495087155 0.50000000669873634 0 0.8660253999169214 0.8660253999169214 0 -0.50000000669873634 forward_v I I I I #
loop $-1 $-1 $368 $91 #
coedge $-1 $233 $233 $234 $369 reversed $143 $-1 #
coedge $-1 $234 $234 $233 $369 forward $145 $-1 #
coedge $-1 $235 $235 $146 $236 forward $230 $-1 #
edge $-1 $370 0 $370 6.2831853071796004 $235 $371 forward 7 unknown #
loop $-1 $-1 $242 $147 #
plane-surface $-1 -53.266542527416036 -3.4469143924970318 82.917691495087155 0.50000000669873634 0 0.8660253999169214 0.8660253999169214 0 -0.50000000669873634 forward_v I I I I #
loop $-1 $-1 $372 $94 #
coedge $-1 $240 $240 $241 $373 reversed $148 $-1 #
coedge $-1 $241 $241 $240 $373 forward $150 $-1 #
coedge $-1 $242 $242 $151 $243 forward $237 $-1 #
edge $-1 $374 0 $374 6.2831853071796004 $242 $375 forward 7 unknown #
loop $-1 $-1 $249 $152 #
plane-surface $-1 -53.266542527416036 -3.4469143924970318 82.917691495087155 0.50000000669873634 0 0.8660253999169214 0.8660253999169214 0 -0.50000000669873634 forward_v I I I I #
loop $-1 $-1 $376 $97 #
coedge $-1 $247 $247 $248 $377 reversed $153 $-1 #
coedge $-1 $248 $248 $247 $377 forward $155 $-1 #
coedge $-1 $249 $249 $156 $250 forward $244 $-1 #
edge $-1 $378 0 $378 6.2831853071796004 $249 $379 forward 7 unknown #
face $-1 $380 $381 $52 $-1 $382 forward single #
loop $-1 $-1 $383 $157 #
plane-surface $-1 0 0 15.692121505883289 0 0 1 1 0 0 forward_v I I I I #
coedge $-1 $384 $385 $386 $387 reversed $158 $-1 #
coedge $-1 $256 $160 $388 $389 reversed $101 $-1 #
coedge $-1 $160 $255 $383 $390 reversed $101 $-1 #
coedge $-1 $391 $392 $160 $258 forward $393 $-1 #
edge $-1 $394 -94.31960304058812 $395 -88.781721021894086 $257 $396 forward 7 unknown #
loop $-1 $-1 $264 $161 #
plane-surface $-1 -53.266542527416036 -3.4469143924970318 82.917691495087155 0.50000000669873634 0 0.8660253999169214 0.8660253999169214 0 -0.50000000669873634 forward_v I I I I #
loop $-1 $-1 $397 $103 #
coedge $-1 $262 $262 $263 $398 reversed $162 $-1 #
coedge $-1 $263 $263 $262 $398 forward $164 $-1 #
coedge $-1 $264 $264 $165 $265 forward $259 $-1 #
edge $-1 $399 0 $399 6.2831853071796004 $264 $400 forward 7 unknown #
loop $-1 $-1 $271 $166 #
plane-surface $-1 -53.266542527416036 -3.4469143924970318 82.917691495087155 0.50000000669873634 0 0.8660253999169214 0.8660253999169214 0 -0.50000000669873634 forward_v I I I I #
loop $-1 $-1 $401 $106 #
coedge $-1 $269 $269 $270 $402 reversed $167 $-1 #
coedge $-1 $270 $270 $269 $402 forward $169 $-1 #
coedge $-1 $271 $271 $170 $272 forward $266 $-1 #
edge $-1 $403 0 $403 6.2831853071796004 $271 $404 forward 7 unknown #
loop $-1 $-1 $278 $171 #
plane-surface $-1 -53.266542527416036 -3.4469143924970318 82.917691495087155 0.50000000669873634 0 0.8660253999169214 0.8660253999169214 0 -0.50000000669873634 forward_v I I I I #
loop $-1 $-1 $405 $109 #
coedge $-1 $276 $276 $277 $406 reversed $172 $-1 #
coedge $-1 $277 $277 $276 $406 forward $174 $-1 #
coedge $-1 $278 $278 $175 $279 forward $273 $-1 #
edge $-1 $407 0 $407 6.2831853071796004 $278 $408 forward 7 unknown #
face $-1 $409 $410 $42 $-1 $411 reversed single #
loop $-1 $-1 $293 $176 #
plane-surface $-1 0 0 -15.692121505883289 0 0 1 1 0 0 forward_v I I I I #
coedge $-1 $412 $413 $414 $415 forward $177 $-1 #
coedge $-1 $416 $179 $417 $418 reversed $113 $-1 #
coedge $-1 $179 $416 $419 $420 forward $113 $-1 #
coedge $-1 $294 $293 $179 $287 forward $281 $-1 #
edge $-1 $421 -72.763451033051552 $422 72.763451033051552 $179 $423 forward 7 unknown #
coedge $-1 $181 $180 $412 $424 reversed $71 $-1 #
coedge $-1 $425 $426 $180 $290 forward $410 $-1 #
edge $-1 $427 -15.692121505883289 $295 15.692121505883289 $180 $428 forward 7 unknown #
coedge $-1 $414 $429 $181 $292 reversed $430 $-1 #
edge $-1 $431 -15.692121505883289 $296 15.692121505883289 $291 $432 forward 7 unknown #
coedge $-1 $286 $182 $429 $433 forward $281 $-1 #
coedge $-1 $182 $286 $425 $434 forward $281 $-1 #
vertex $-1 $183 $435 #
vertex $-1 $433 $436 #
straight-curve $-1 0 33.448936741863733 -15.692121505883289 1 0 0 I I #
face $-1 $437 $438 $43 $-1 $439 reversed single #
loop $-1 $-1 $190 $184 #
plane-surface $-1 -50.309450843905537 -41.128905341704076 0 1 0 0 0 0 -1 forward_v I I I I #
coedge $-1 $440 $441 $442 $443 forward $185 $-1 #
coedge $-1 $444 $187 $445 $446 forward $117 $-1 #
coedge $-1 $187 $444 $308 $447 forward $117 $-1 #
edge $-1 $310 -50.309450843905537 $448 -41.379208021284981 $187 $449 forward 7 unknown #
coedge $-1 $189 $188 $450 $451 forward $74 $-1 #
coedge $-1 $452 $453 $188 $307 forward $454 $-1 #
edge $-1 $455 41.379208021284981 $311 50.309450843905537 $306 $456 forward 7 unknown #
coedge $-1 $442 $190 $303 $447 reversed $299 $-1 #
coedge $-1 $190 $442 $452 $457 reversed $299 $-1 #
vertex $-1 $304 $458 #
vertex $-1 $457 $459 #
straight-curve $-1 -50.309450843905537 -33.448936741863733 0 0 0 1 I I #
face $-1 $460 $325 $44 $-1 $461 reversed single #
loop $-1 $-1 $462 $192 #
plane-surface $-1 -45.844329432595259 48.808873941544427 0 0 -1 0 0 0 -1 forward_v I I I I #
coedge $-1 $463 $464 $465 $466 forward $193 $-1 #
coedge $-1 $467 $195 $463 $468 forward $121 $-1 #
coedge $-1 $195 $467 $323 $469 forward $121 $-1 #
edge $-1 $326 41.379208021284981 $470 50.309450843905537 $195 $471 forward 7 unknown #
coedge $-1 $197 $196 $472 $473 forward $77 $-1 #
coedge $-1 $474 $475 $196 $322 forward $476 $-1 #
edge $-1 $477 -50.309450843905537 $327 -41.379208021284981 $321 $478 forward 7 unknown #
coedge $-1 $479 $198 $318 $469 reversed $325 $-1 #
coedge $-1 $198 $479 $474 $480 reversed $325 $-1 #
loop $-1 $-1 $198 $313 #
vertex $-1 $319 $481 #
vertex $-1 $480 $482 #
straight-curve $-1 -41.379208021284981 33.448936741863733 0 0 0 1 I I #
face $-1 $-1 $341 $45 $-1 $483 forward single #
loop $-1 $-1 $484 $200 #
plane-surface $-1 -72.763451033051552 0 0 1 0 0 0 0 -1 forward_v I I I I #
coedge $-1 $485 $486 $487 $488 reversed $201 $-1 #
coedge $-1 $489 $203 $205 $339 forward $125 $-1 #
coedge $-1 $203 $489 $485 $490 forward $125 $-1 #
coedge $-1 $487 $206 $203 $336 forward $341 $-1 #
edge $-1 $343 -1.5624587454970928 $491 8.5704924717434317 $335 $492 forward 7 unknown #
coedge $-1 $493 $494 $204 $338 forward $330 $-1 #
edge $-1 $495 -45.592296029186379 $342 -37.964689729226407 $337 $496 forward 7 unknown #
edge $-1 $343 -10.429435438526866 $495 2.1384085966062714e-014 $205 $497 forward 7 unknown #
coedge $-1 $206 $487 $493 $498 forward $341 $-1 #
loop $-1 $-1 $487 $329 #
vertex $-1 $338 $499 #
vertex $-1 $207 $500 #
straight-curve $-1 -89.597545373494569 1.9415581176260766 15.692121505883293 1 0 0 I I #
coedge $-1 $345 $345 $-1 $501 reversed $210 $-1 #
edge $-1 $502 0 $502 6.2831853071796004 $211 $503 forward 7 unknown #
vertex $-1 $214 $504 #
ellipse-curve $-1 -69.207022146541533 4.8366870368376524 11.878318355903305 -0.73135370988377701 0 0.68199835119979291 0.68199835119979291 0 0.73135370988377701 1 I I #
coedge $-1 $349 $349 $-1 $505 reversed $217 $-1 #
edge $-1 $506 0 $506 6.2831853071796004 $218 $507 forward 7 unknown #
vertex $-1 $221 $508 #
ellipse-curve $-1 -69.207022146541533 9.1793804156550181 11.878318355903305 -0.73135370988377701 0 0.68199835119979291 0.68199835119979291 0 0.73135370988377701 1 I I #
face $-1 $-1 $509 $48 $-1 $510 reversed single #
loop $-1 $-1 $228 $222 #
plane-surface $-1 0 0 15.692121505883289 0 0 1 1 0 0 forward_v I I I I #
coedge $-1 $511 $512 $513 $514 reversed $223 $-1 #
coedge $-1 $515 $225 $227 $363 forward $139 $-1 #
coedge $-1 $225 $515 $511 $516 forward $139 $-1 #
coedge $-1 $513 $228 $225 $360 forward $354 $-1 #
edge $-1 $366 -1.7234571962485159 $517 5.1703715887455477 $359 $518 forward 7 unknown #
coedge $-1 $519 $520 $226 $362 forward $509 $-1 #
edge $-1 $521 -94.31960304058812 $365 -88.781721021894086 $361 $522 forward 7 unknown #
edge $-1 $366 134.45113817710228 $521 145.5269020661031 $227 $523 forward 7 unknown #
coedge $-1 $228 $513 $519 $524 forward $354 $-1 #
vertex $-1 $229 $525 #
vertex $-1 $229 $526 #
straight-curve $-1 9.7484547402409305 0 15.692121505883293 -1 0 0 I I #
coedge $-1 $368 $368 $-1 $527 reversed $232 $-1 #
edge $-1 $528 0 $528 6.2831853071796004 $233 $529 forward 7 unknown #
vertex $-1 $236 $530 #
ellipse-curve $-1 67.967504607372888 -5.5150630279952502 12.923180496536268 0.50000000669873634 0 0.8660253999169214 0.21650634997923035 0 -0.12500000167468409 1 I I #
coedge $-1 $372 $372 $-1 $531 reversed $239 $-1 #
edge $-1 $532 0 $532 6.2831853071796004 $240 $533 forward 7 unknown #
vertex $-1 $243 $534 #
ellipse-curve $-1 67.967504607372888 -3.4469143924970318 12.923180496536268 0.50000000669873634 0 0.8660253999169214 0.21650634997923035 0 -0.12500000167468409 1 I I #
coedge $-1 $376 $376 $-1 $535 reversed $246 $-1 #
edge $-1 $536 0 $536 6.2831853071796004 $247 $537 forward 7 unknown #
vertex $-1 $250 $538 #
ellipse-curve $-1 67.967504607372888 -1.3787657569988099 12.923180496536268 0.50000000669873634 0 0.8660253999169214 0.21650634997923035 0 -0.12500000167468409 1 I I #
face $-1 $-1 $393 $52 $-1 $539 reversed single #
loop $-1 $-1 $540 $251 #
plane-surface $-1 19.496909480481861 0 208.94768505555476 0 -1 0 -0.50000000669873634 0 -0.8660253999169214 forward_v I I I I #
coedge $-1 $541 $542 $256 $390 forward $252 $-1 #
coedge $-1 $388 $254 $541 $543 reversed $158 $-1 #
coedge $-1 $254 $388 $392 $544 reversed $158 $-1 #
coedge $-1 $545 $540 $254 $387 forward $381 $-1 #
edge $-1 $546 134.45113817710228 $547 145.5269020661031 $386 $548 forward 7 unknown #
coedge $-1 $385 $384 $255 $389 forward $158 $-1 #
edge $-1 $549 134.45113817710228 $394 145.5269020661031 $255 $550 forward 7 unknown #
edge $-1 $395 -63.014996292810622 $549 -53.423103441453293 $383 $551 forward 7 unknown #
coedge $-1 $552 $257 $542 $553 reversed $393 $-1 #
coedge $-1 $257 $552 $385 $544 forward $393 $-1 #
loop $-1 $-1 $257 $380 #
vertex $-1 $258 $554 #
vertex $-1 $390 $555 #
straight-curve $-1 72.763451033051552 6.8938287849940671 104.47384252777738 0 0 1 I I #
coedge $-1 $397 $397 $-1 $556 reversed $261 $-1 #
edge $-1 $557 0 $557 6.2831853071796004 $262 $558 forward 7 unknown #
vertex $-1 $265 $559 #
ellipse-curve $-1 67.967504607372888 1.378765756998817 12.923180496536268 0.50000000669873634 0 0.8660253999169214 0.21650634997923035 0 -0.12500000167468409 1 I I #
coedge $-1 $401 $401 $-1 $560 reversed $268 $-1 #
edge $-1 $561 0 $561 6.2831853071796004 $269 $562 forward 7 unknown #
vertex $-1 $272 $563 #
ellipse-curve $-1 67.967504607372888 3.4469143924970354 12.923180496536268 0.50000000669873634 0 0.8660253999169214 0.21650634997923035 0 -0.12500000167468409 1 I I #
coedge $-1 $405 $405 $-1 $564 reversed $275 $-1 #
edge $-1 $565 0 $565 6.2831853071796004 $276 $566 forward 7 unknown #
vertex $-1 $279 $567 #
ellipse-curve $-1 67.967504607372888 5.5150630279952537 12.923180496536268 0.50000000669873634 0 0.8660253999169214 0.21650634997923035 0 -0.12500000167468409 1 I I #
face $-1 $-1 $430 $42 $-1 $568 reversed single #
loop $-1 $-1 $289 $280 #
plane-surface $-1 -72.763451033051552 0 0 1 0 0 0 0 -1 forward_v I I I I #
coedge $-1 $569 $283 $288 $424 forward $177 $-1 #
coedge $-1 $283 $569 $416 $570 forward $177 $-1 #
coedge $-1 $417 $291 $283 $415 reversed $430 $-1 #
edge $-1 $571 -33.448936741863733 $431 33.448936741863733 $414 $572 forward 7 unknown #
coedge $-1 $285 $284 $413 $570 reversed $113 $-1 #
coedge $-1 $429 $414 $284 $418 forward $430 $-1 #
edge $-1 $571 -15.692121505883289 $421 15.692121505883289 $417 $573 forward 7 unknown #
coedge $-1 $426 $425 $285 $420 reversed $410 $-1 #
edge $-1 $574 -15.692121505883289 $422 15.692121505883289 $419 $575 forward 7 unknown #
vertex $-1 $418 $576 #
vertex $-1 $434 $577 #
straight-curve $-1 0 -33.448936741863733 -15.692121505883289 -1 0 0 I I #
edge $-1 $431 -72.763451033051552 $427 72.763451033051552 $288 $578 forward 7 unknown #
coedge $-1 $419 $289 $294 $434 reversed $410 $-1 #
coedge $-1 $289 $419 $569 $579 reversed $410 $-1 #
vertex $-1 $424 $580 #
straight-curve $-1 -72.763451033051552 33.448936741863733 0 0 0 -1 I I #
coedge $-1 $291 $417 $293 $433 reversed $430 $-1 #
loop $-1 $-1 $417 $409 #
vertex $-1 $415 $581 #
straight-curve $-1 72.763451033051552 33.448936741863733 0 0 0 -1 I I #
edge $-1 $296 -33.448936741863733 $421 33.448936741863733 $429 $582 forward 7 unknown #
edge $-1 $422 -33.448936741863733 $295 33.448936741863733 $425 $583 forward 7 unknown #
point $-1 -72.763451033051552 33.448936741863733 -15.692121505883289 #
point $-1 72.763451033051552 33.448936741863733 -15.692121505883289 #
face $-1 $-1 $454 $43 $-1 $584 forward single #
loop $-1 $-1 $585 $298 #
plane-surface $-1 -41.379208021284981 -41.128905341704076 0 -1 0 0 0 0 1 forward_v I I I I #
coedge $-1 $586 $301 $444 $587 reversed $185 $-1 #
coedge $-1 $301 $586 $588 $589 reversed $185 $-1 #
coedge $-1 $309 $308 $301 $443 reversed $299 $-1 #
edge $-1 $590 -15.692121505883289 $591 15.692121505883289 $442 $592 forward 7 unknown #
coedge $-1 $303 $302 $440 $587 forward $117 $-1 #
coedge $-1 $450 $585 $302 $446 reversed $438 $-1 #
edge $-1 $448 -7.6799685998403433 $593 7.6799685998403433 $445 $594 forward 7 unknown #
edge $-1 $591 -7.6799685998403433 $310 7.6799685998403433 $308 $595 forward 7 unknown #
vertex $-1 $446 $596 #
straight-curve $-1 0 -33.448936741863733 -15.692121505883289 1 0 0 I I #
coedge $-1 $597 $445 $305 $451 reversed $438 $-1 #
edge $-1 $455 -15.692121505883289 $448 15.692121505883289 $450 $598 forward 7 unknown #
coedge $-1 $588 $306 $309 $457 forward $454 $-1 #
coedge $-1 $306 $588 $597 $599 forward $454 $-1 #
loop $-1 $-1 $306 $437 #
vertex $-1 $307 $600 #
straight-curve $-1 0 -33.448936741863733 15.692121505883289 -1 0 0 I I #
edge $-1 $311 -7.6799685998403433 $590 7.6799685998403433 $309 $601 forward 7 unknown #
point $-1 -50.309450843905537 -33.448936741863733 -15.692121505883289 #
point $-1 -50.309450843905537 -33.448936741863733 15.692121505883289 #
face $-1 $-1 $476 $44 $-1 $602 forward single #
plane-surface $-1 -41.379208021284981 41.128905341704083 0 -1 0 0 0 0 1 forward_v I I I I #
coedge $-1 $603 $604 $479 $605 forward $314 $-1 #
coedge $-1 $472 $316 $317 $468 reversed $193 $-1 #
coedge $-1 $316 $472 $475 $606 reversed $193 $-1 #
coedge $-1 $604 $603 $316 $466 reversed $314 $-1 #
edge $-1 $607 -15.692121505883289 $608 15.692121505883289 $465 $609 forward 7 unknown #
coedge $-1 $318 $317 $603 $610 forward $121 $-1 #
edge $-1 $470 -7.6799685998403433 $608 7.6799685998403433 $463 $611 forward 7 unknown #
edge $-1 $612 -7.6799685998403433 $326 7.6799685998403433 $323 $613 forward 7 unknown #
vertex $-1 $468 $614 #
straight-curve $-1 0 33.448936741863733 -15.692121505883289 -1 0 0 I I #
coedge $-1 $464 $463 $320 $473 reversed $193 $-1 #
edge $-1 $477 -15.692121505883289 $470 15.692121505883289 $472 $615 forward 7 unknown #
coedge $-1 $616 $321 $324 $480 forward $476 $-1 #
coedge $-1 $321 $616 $464 $606 forward $476 $-1 #
loop $-1 $-1 $321 $460 #
vertex $-1 $322 $617 #
straight-curve $-1 0 33.448936741863733 15.692121505883289 1 0 0 I I #
coedge $-1 $324 $323 $462 $605 reversed $325 $-1 #
edge $-1 $327 -7.6799685998403433 $618 7.6799685998403433 $324 $619 forward 7 unknown #
point $-1 -41.379208021284981 33.44893674186374 -15.692121505883289 #
point $-1 -41.379208021284981 33.44893674186374 15.692121505883289 #
plane-surface $-1 0 0 15.692121505883289 0 0 1 1 0 0 forward_v I I I I #
coedge $-1 $494 $493 $486 $620 forward $330 $-1 #
coedge $-1 $486 $332 $334 $490 reversed $201 $-1 #
coedge $-1 $332 $485 $484 $620 reversed $201 $-1 #
coedge $-1 $340 $335 $332 $488 forward $341 $-1 #
edge $-1 $491 -23.946952113463041 $621 -16.834094340443016 $487 $622 forward 7 unknown #
coedge $-1 $334 $333 $494 $623 reversed $125 $-1 #
edge $-1 $624 -2.1384085966062714e-014 $491 10.429435438526866 $485 $625 forward 7 unknown #
vertex $-1 $336 $626 #
straight-curve $-1 -65.650593260031528 3.5040168631231694 15.692121505883287 0 1 0 I I #
coedge $-1 $484 $337 $340 $498 reversed $330 $-1 #
coedge $-1 $337 $484 $489 $623 forward $330 $-1 #
vertex $-1 $338 $627 #
straight-curve $-1 -72.763451033051552 1.9415581176260766 53.656811235109693 0 0 1 I I #
straight-curve $-1 -72.763451033051538 1.9415581176260766 8.0645152059233283 -0.68199835119979291 0 -0.73135370988377701 I I #
edge $-1 $621 -12.074509334866601 $342 -1.9415581176260766 $493 $628 forward 7 unknown #
point $-1 -72.763451033051552 1.9415581176260766 15.692121505883289 #
point $-1 -65.650593260031528 1.9415581176260766 15.692121505883289 #
edge $-1 $629 1 $629 0 $345 $-1 forward 7 unknown #
vertex $-1 $346 $630 #
ellipse-curve $-1 -67.955795069837109 4.8366870368376524 10.711530259040337 -0.73135370988377701 0 0.68199835119979291 0.68199835119979291 0 0.73135370988377701 1 I I #
point $-1 -68.525023795341752 4.8366870368376524 12.609672065787091 #
edge $-1 $631 1 $631 0 $349 $-1 forward 7 unknown #
vertex $-1 $350 $632 #
ellipse-curve $-1 -67.955795069837109 9.1793804156550181 10.711530259040337 -0.73135370988377701 0 0.68199835119979291 0.68199835119979291 0 0.73135370988377701 1 I I #
point $-1 -68.525023795341752 9.1793804156550181 12.609672065787091 #
loop $-1 $-1 $361 $353 #
plane-surface $-1 72.763451033051552 0 0 -1 0 0 0 0 1 forward_v I I I I #
coedge $-1 $512 $356 $358 $516 reversed $223 $-1 #
coedge $-1 $356 $511 $633 $634 reversed $223 $-1 #
coedge $-1 $364 $359 $356 $514 forward $354 $-1 #
edge $-1 $517 53.423103441453293 $635 63.014996292810622 $513 $636 forward 7 unknown #
coedge $-1 $358 $357 $520 $637 reversed $139 $-1 #
edge $-1 $638 -145.5269020661031 $517 -134.45113817710228 $511 $639 forward 7 unknown #
vertex $-1 $360 $640 #
straight-curve $-1 63.171558181694223 -1.7234571962485159 15.692121505883286 0 -1 0 I I #
coedge $-1 $633 $361 $364 $524 reversed $509 $-1 #
coedge $-1 $361 $633 $515 $637 forward $509 $-1 #
vertex $-1 $362 $641 #
straight-curve $-1 72.763451033051552 0 104.47384252777738 0 0 1 I I #
straight-curve $-1 -53.266542527416036 0 82.917691495087155 0.8660253999169214 0 -0.50000000669873634 I I #
edge $-1 $635 -6.8938287849940636 $365 0 $519 $642 forward 7 unknown #
point $-1 72.763451033051552 0 15.692121505883289 #
point $-1 63.171558181694223 0 15.692121505883293 #
edge $-1 $643 1 $643 0 $368 $-1 forward 7 unknown #
vertex $-1 $369 $644 #
ellipse-curve $-1 67.467504600674161 -5.5150630279952502 12.057155096619359 0.50000000669873634 0 0.8660253999169214 0.21650634997923035 0 -0.12500000167468409 1 I I #
point $-1 68.184010957352129 -5.5150630279952502 12.798180494861597 #
edge $-1 $645 1 $645 0 $372 $-1 forward 7 unknown #
vertex $-1 $373 $646 #
ellipse-curve $-1 67.467504600674161 -3.4469143924970318 12.057155096619359 0.50000000669873634 0 0.8660253999169214 0.21650634997923035 0 -0.12500000167468409 1 I I #
point $-1 68.184010957352129 -3.4469143924970318 12.798180494861597 #
edge $-1 $647 1 $647 0 $376 $-1 forward 7 unknown #
vertex $-1 $377 $648 #
ellipse-curve $-1 67.467504600674161 -1.3787657569988099 12.057155096619359 0.50000000669873634 0 0.8660253999169214 0.21650634997923035 0 -0.12500000167468409 1 I I #
point $-1 68.184010957352129 -1.3787657569988099 12.798180494861597 #
plane-surface $-1 72.763451033051552 0 0 -1 0 0 0 0 1 forward_v I I I I #
coedge $-1 $386 $545 $649 $650 reversed $381 $-1 #
coedge $-1 $649 $383 $384 $543 forward $252 $-1 #
coedge $-1 $383 $649 $391 $553 forward $252 $-1 #
edge $-1 $549 -8.617285981242583 $546 -1.7234571962485159 $541 $651 forward 7 unknown #
edge $-1 $547 1.7234571962485159 $394 8.617285981242583 $392 $652 forward 7 unknown #
coedge $-1 $540 $386 $552 $653 reversed $381 $-1 #
vertex $-1 $543 $654 #
vertex $-1 $544 $655 #
straight-curve $-1 -53.266542527416036 0 82.917691495087155 0.8660253999169214 0 -0.50000000669873634 I I #
vertex $-1 $390 $656 #
straight-curve $-1 -53.266542527416036 6.8938287849940671 82.917691495087155 0.8660253999169214 0 -0.50000000669873634 I I #
straight-curve $-1 9.7484547402409305 6.8938287849940671 15.692121505883293 -1 0 0 I I #
coedge $-1 $392 $391 $545 $653 forward $393 $-1 #
edge $-1 $657 0 $395 6.8938287849940671 $391 $658 forward 7 unknown #
point $-1 72.763451033051567 6.8938287849940671 10.154239487189258 #
point $-1 72.763451033051552 6.8938287849940671 15.692121505883289 #
edge $-1 $659 1 $659 0 $397 $-1 forward 7 unknown #
vertex $-1 $398 $660 #
ellipse-curve $-1 67.467504600674161 1.378765756998817 12.057155096619359 0.50000000669873634 0 0.8660253999169214 0.21650634997923035 0 -0.12500000167468409 1 I I #
point $-1 68.184010957352129 1.378765756998817 12.798180494861597 #
edge $-1 $661 1 $661 0 $401 $-1 forward 7 unknown #
vertex $-1 $402 $662 #
ellipse-curve $-1 67.467504600674161 3.4469143924970354 12.057155096619359 0.50000000669873634 0 0.8660253999169214 0.21650634997923035 0 -0.12500000167468409 1 I I #
point $-1 68.184010957352129 3.4469143924970354 12.798180494861597 #
edge $-1 $663 1 $663 0 $405 $-1 forward 7 unknown #
vertex $-1 $406 $664 #
ellipse-curve $-1 67.467504600674161 5.5150630279952537 12.057155096619359 0.50000000669873634 0 0.8660253999169214 0.21650634997923035 0 -0.12500000167468409 1 I I #
point $-1 68.184010957352129 5.5150630279952537 12.798180494861597 #
plane-surface $-1 72.763451033051552 0 0 -1 0 0 0 0 1 forward_v I I I I #
coedge $-1 $413 $412 $426 $579 forward $177 $-1 #
edge $-1 $574 -72.763451033051552 $571 72.763451033051552 $416 $665 forward 7 unknown #
vertex $-1 $415 $666 #
straight-curve $-1 72.763451033051552 0 15.692121505883289 0 1 0 I I #
straight-curve $-1 72.763451033051552 -33.448936741863733 0 0 0 -1 I I #
vertex $-1 $579 $667 #
straight-curve $-1 -72.763451033051552 -33.448936741863733 0 0 0 -1 I I #
point $-1 72.763451033051552 -33.448936741863733 -15.692121505883289 #
point $-1 -72.763451033051552 -33.448936741863733 -15.692121505883289 #
straight-curve $-1 0 33.448936741863733 15.692121505883289 -1 0 0 I I #
edge $-1 $427 -33.448936741863733 $574 33.448936741863733 $426 $668 forward 7 unknown #
point $-1 -72.763451033051552 33.448936741863733 15.692121505883289 #
point $-1 72.763451033051552 33.448936741863733 15.692121505883289 #
straight-curve $-1 72.763451033051552 0 -15.692121505883289 0 -1 0 I I #
straight-curve $-1 -72.763451033051552 0 -15.692121505883289 0 1 0 I I #
plane-surface $-1 0 0 15.692121505883289 0 0 1 1 0 0 forward_v I I I I #
coedge $-1 $445 $597 $586 $669 forward $438 $-1 #
coedge $-1 $441 $440 $585 $669 reversed $185 $-1 #
edge $-1 $593 -4.4651214113102782 $591 4.4651214113102782 $440 $670 forward 7 unknown #
coedge $-1 $453 $452 $441 $589 forward $454 $-1 #
edge $-1 $590 -4.4651214113102782 $671 4.4651214113102782 $441 $672 forward 7 unknown #
vertex $-1 $457 $673 #
vertex $-1 $447 $674 #
straight-curve $-1 -50.309450843905537 -48.808873941544419 0 0 0 -1 I I #
vertex $-1 $669 $675 #
straight-curve $-1 -41.379208021284981 -41.128905341704076 -15.692121505883289 0 -1 0 I I #
straight-curve $-1 -50.309450843905537 -41.128905341704076 -15.692121505883289 0 1 0 I I #
point $-1 -41.379208021284981 -33.448936741863733 -15.692121505883289 #
coedge $-1 $585 $450 $453 $599 reversed $438 $-1 #
straight-curve $-1 -41.379208021284981 -33.448936741863733 0 0 0 -1 I I #
edge $-1 $671 -7.6799685998403433 $455 7.6799685998403433 $597 $676 forward 7 unknown #
point $-1 -41.379208021284981 -33.448936741863733 15.692121505883289 #
straight-curve $-1 -50.309450843905537 -41.128905341704076 15.692121505883289 0 -1 0 I I #
plane-surface $-1 0 0 15.692121505883289 0 0 1 1 0 0 forward_v I I I I #
coedge $-1 $465 $462 $467 $610 reversed $314 $-1 #
coedge $-1 $462 $465 $616 $677 reversed $314 $-1 #
edge $-1 $618 -15.692121505883289 $612 15.692121505883289 $479 $678 forward 7 unknown #
edge $-1 $607 -7.6799685998403433 $477 7.6799685998403433 $464 $679 forward 7 unknown #
vertex $-1 $677 $680 #
vertex $-1 $610 $681 #
straight-curve $-1 -50.309450843905537 48.808873941544427 0 0 0 -1 I I #
edge $-1 $608 -4.4651214113102782 $612 4.4651214113102782 $603 $682 forward 7 unknown #
straight-curve $-1 -50.309450843905537 41.128905341704083 -15.692121505883289 0 1 0 I I #
vertex $-1 $469 $683 #
straight-curve $-1 -41.379208021284981 41.128905341704083 -15.692121505883289 0 -1 0 I I #
point $-1 -50.309450843905537 33.44893674186374 -15.692121505883289 #
straight-curve $-1 -50.309450843905537 33.448936741863733 0 0 0 -1 I I #
coedge $-1 $475 $474 $604 $677 forward $476 $-1 #
point $-1 -50.309450843905537 33.44893674186374 15.692121505883289 #
vertex $-1 $480 $684 #
straight-curve $-1 -41.379208021284981 41.128905341704083 15.692121505883289 0 1 0 I I #
edge $-1 $621 37.964689729226407 $624 45.592296029186379 $484 $685 forward 7 unknown #
vertex $-1 $498 $686 #
straight-curve $-1 -89.597545373494569 12.074509334866601 15.692121505883293 -1 0 0 I I #
edge $-1 $624 -8.5704924717434317 $495 1.5624587454970928 $494 $687 forward 7 unknown #
vertex $-1 $623 $688 #
straight-curve $-1 -72.763451033051538 12.074509334866601 8.0645152059233283 0.68199835119979291 0 0.73135370988377701 I I #
point $-1 -65.650593260031528 12.074509334866601 15.692121505883289 #
point $-1 -72.763451033051552 1.9415581176260766 8.0645152059233123 #
straight-curve $-1 -72.763451033051552 0 15.692121505883289 0 -1 0 I I #
vertex $-1 $501 $689 #
point $-1 -67.273796718637314 4.8366870368376524 11.442883968924114 #
vertex $-1 $505 $690 #
point $-1 -67.273796718637314 9.1793804156550181 11.442883968924114 #
coedge $-1 $520 $519 $512 $634 forward $509 $-1 #
edge $-1 $635 88.781721021894086 $638 94.31960304058812 $633 $691 forward 7 unknown #
vertex $-1 $524 $692 #
straight-curve $-1 9.7484547402409305 -6.8938287849940636 15.692121505883293 1 0 0 I I #
edge $-1 $638 -5.1703715887455477 $521 1.7234571962485159 $520 $693 forward 7 unknown #
vertex $-1 $637 $694 #
straight-curve $-1 -53.266542527416036 -6.8938287849940636 82.917691495087155 -0.8660253999169214 0 0.50000000669873634 I I #
point $-1 63.171558181694223 -6.8938287849940636 15.692121505883293 #
point $-1 72.763451033051567 0 10.154239487189258 #
straight-curve $-1 72.763451033051552 0 15.692121505883289 0 1 0 I I #
vertex $-1 $527 $695 #
point $-1 67.684010950653388 -5.5150630279952502 11.932155094944676 #
vertex $-1 $531 $696 #
point $-1 67.684010950653388 -3.4469143924970318 11.932155094944676 #
vertex $-1 $535 $697 #
point $-1 67.684010950653388 -1.3787657569988099 11.932155094944676 #
coedge $-1 $542 $541 $540 $650 forward $252 $-1 #
edge $-1 $546 53.423103441453293 $657 63.014996292810622 $649 $698 forward 7 unknown #
straight-curve $-1 63.171558181694223 -1.7234571962485159 15.692121505883286 0 -1 0 I I #
straight-curve $-1 72.763451033051552 -1.7234571962485159 10.154239487189258 0 1 0 I I #
edge $-1 $657 88.781721021894086 $547 94.31960304058812 $552 $699 forward 7 unknown #
point $-1 63.171558181694223 0 15.692121505883293 #
point $-1 72.763451033051567 0 10.154239487189258 #
point $-1 63.171558181694223 6.8938287849940671 15.692121505883293 #
vertex $-1 $553 $700 #
straight-curve $-1 72.763451033051552 0 15.692121505883289 0 1 0 I I #
vertex $-1 $556 $701 #
point $-1 67.684010950653388 1.378765756998817 11.932155094944676 #
vertex $-1 $560 $702 #
point $-1 67.684010950653388 3.4469143924970354 11.932155094944676 #
vertex $-1 $564 $703 #
point $-1 67.684010950653388 5.5150630279952537 11.932155094944676 #
straight-curve $-1 0 -33.448936741863733 15.692121505883289 1 0 0 I I #
point $-1 72.763451033051552 -33.448936741863733 15.692121505883289 #
point $-1 -72.763451033051552 -33.448936741863733 15.692121505883289 #
straight-curve $-1 -72.763451033051552 0 15.692121505883289 0 -1 0 I I #
edge $-1 $671 -15.692121505883289 $593 15.692121505883289 $585 $704 forward 7 unknown #
straight-curve $-1 -45.844329432595259 -48.808873941544419 -15.692121505883289 -1 0 0 I I #
vertex $-1 $599 $705 #
straight-curve $-1 -45.844329432595259 -48.808873941544419 15.692121505883289 1 0 0 I I #
point $-1 -50.309450843905537 -48.808873941544419 15.692121505883289 #
point $-1 -50.309450843905537 -48.808873941544419 -15.692121505883289 #
point $-1 -41.379208021284981 -48.808873941544419 -15.692121505883289 #
straight-curve $-1 -41.379208021284981 -41.128905341704076 15.692121505883289 0 1 0 I I #
edge $-1 $618 -4.4651214113102782 $607 4.4651214113102782 $604 $706 forward 7 unknown #
straight-curve $-1 -41.379208021284981 48.808873941544427 0 0 0 -1 I I #
straight-curve $-1 -50.309450843905537 41.128905341704083 15.692121505883289 0 -1 0 I I #
point $-1 -50.309450843905537 48.808873941544427 15.692121505883289 #
point $-1 -50.309450843905537 48.808873941544427 -15.692121505883289 #
straight-curve $-1 -45.844329432595259 48.808873941544427 -15.692121505883289 1 0 0 I I #
point $-1 -41.379208021284981 48.808873941544427 -15.692121505883289 #
point $-1 -41.379208021284981 48.808873941544427 15.692121505883289 #
straight-curve $-1 -72.763451033051552 12.074509334866601 53.656811235109693 0 0 -1 I I #
point $-1 -72.763451033051552 12.074509334866601 15.692121505883289 #
straight-curve $-1 -72.763451033051552 3.5040168631231694 8.0645152059233176 0 -1 0 I I #
point $-1 -72.763451033051552 12.074509334866601 8.0645152059233123 #
point $-1 -67.224441359953317 4.8366870368376524 10.029531907840543 #
point $-1 -67.224441359953317 9.1793804156550181 10.029531907840543 #
straight-curve $-1 72.763451033051552 -6.8938287849940636 104.47384252777738 0 0 -1 I I #
point $-1 72.763451033051552 -6.8938287849940636 15.692121505883289 #
straight-curve $-1 72.763451033051552 -1.7234571962485159 10.154239487189258 0 1 0 I I #
point $-1 72.763451033051567 -6.8938287849940636 10.154239487189258 #
point $-1 67.342504598999469 -5.5150630279952502 11.840648746640129 #
point $-1 67.342504598999469 -3.4469143924970318 11.840648746640129 #
point $-1 67.342504598999469 -1.3787657569988099 11.840648746640129 #
straight-curve $-1 9.7484547402409305 0 15.692121505883293 1 0 0 I I #
straight-curve $-1 72.763451033051552 0 104.47384252777738 0 0 -1 I I #
point $-1 72.763451033051552 0 15.692121505883289 #
point $-1 67.342504598999469 1.378765756998817 11.840648746640129 #
point $-1 67.342504598999469 3.4469143924970354 11.840648746640129 #
point $-1 67.342504598999469 5.5150630279952537 11.840648746640129 #
straight-curve $-1 -41.379208021284981 -48.808873941544419 0 0 0 -1 I I #
point $-1 -41.379208021284981 -48.808873941544419 15.692121505883289 #
straight-curve $-1 -45.844329432595259 48.808873941544427 15.692121505883289 -1 0 0 I I #
End-of-ACIS-data 