500 0 4 0           
7 Unknown 11 ACIS 5.0 NT 24 Fri Mar 26 17:20:38 1999 
-1 9.9999999999999995e-007 1e-010 
body $-1 $4 $-1 $5 #
body $-1 $6 $-1 $7 #
body $-1 $8 $-1 $9 #
body $-1 $10 $-1 $11 #
lump $-1 $-1 $12 $0 #
transform $-1 1 0 0 0 1 0 0 0 1 43.802606280709249 21.293999327575726 7.1851244900481674 1 rotate no_reflect no_shear #
lump $-1 $-1 $13 $1 #
transform $-1 1 0 0 0 1 0 0 0 1 43.802606280709249 21.293999327575726 7.1851244900481674 1 rotate no_reflect no_shear #
lump $-1 $-1 $14 $2 #
transform $-1 1 0 0 0 1 0 0 0 1 43.802606280709249 21.293999327575726 7.1851244900481674 1 rotate no_reflect no_shear #
lump $-1 $-1 $15 $3 #
transform $-1 1 0 0 0 1 0 0 0 1 43.802606280709249 21.293999327575726 7.1851244900481674 1 rotate no_reflect no_shear #
shell $-1 $-1 $-1 $16 $-1 $4 #
shell $-1 $-1 $-1 $17 $-1 $6 #
shell $-1 $-1 $-1 $18 $-1 $8 #
shell $-1 $-1 $-1 $19 $-1 $10 #
face $-1 $20 $21 $12 $-1 $22 forward single #
face $-1 $23 $24 $13 $-1 $25 reversed single #
face $-1 $26 $27 $14 $-1 $28 forward single #
face $-1 $29 $30 $15 $-1 $31 reversed single #
face $-1 $32 $33 $12 $-1 $34 reversed single #
loop $-1 $-1 $35 $16 #
plane-surface $-1 0 0 7.1851244900481674 0 0 1 1 0 0 forward_v I I I I #
face $-1 $36 $37 $13 $-1 $38 reversed single #
loop $-1 $-1 $39 $17 #
plane-surface $-1 -47.642432238537928 0 4.1851244900481674 0 0 1 1 0 0 forward_v I I I I #
face $-1 $40 $41 $14 $-1 $42 forward single #
loop $-1 $-1 $43 $18 #
plane-surface $-1 56.752898418445959 13.560786769300369 126.94587190988614 0 -1 0 -0.77714596973225614 0 -0.62932038083071107 forward_v I I I I #
face $-1 $44 $45 $15 $-1 $46 reversed single #
loop $-1 $47 $48 $19 #
cone-surface $-1 42.015926550435488 7.3344123650001478 5.1439462087761543 -0.77714596973225614 0 -0.62932038083071107 0.31466019041535553 0 -0.38857298486612807 1 I I 0 1 0.5 forward I I I I #
face $-1 $49 $50 $12 $-1 $51 reversed single #
loop $-1 $-1 $52 $20 #
plane-surface $-1 0 0 -7.1851244900481674 0 0 1 1 0 0 forward_v I I I I #
coedge $-1 $53 $54 $55 $56 forward $21 $-1 #
face $-1 $57 $58 $13 $-1 $59 forward single #
loop $-1 $-1 $60 $23 #
plane-surface $-1 -51.482258196366608 0 5.6851244900481674 1 0 0 0 0 -1 forward_v I I I I #
coedge $-1 $61 $62 $63 $64 reversed $24 $-1 #
face $-1 $65 $66 $14 $-1 $67 forward single #
loop $-1 $-1 $68 $26 #
plane-surface $-1 -11.329139451198053 7.3344123650001478 71.814126177978864 0.77714596973225614 0 0.62932038083071107 0.62932038083071107 0 -0.77714596973225614 forward_v I I I I #
coedge $-1 $69 $70 $71 $72 reversed $27 $-1 #
face $-1 $73 $74 $15 $-1 $75 forward single #
loop $-1 $76 $77 $29 #
cone-surface $-1 41.433067073136293 7.3344123650001478 4.6719559231531207 -0.77714596973225614 0 -0.62932038083071107 0.15733009520767777 0 -0.19428649243306403 1 I I -0.70710678118654746 0.70710678118654746 0.25 forward I I I I #
loop $-1 $-1 $78 $19 #
coedge $-1 $48 $48 $79 $80 reversed $30 $-1 #
face $-1 $81 $82 $12 $-1 $83 reversed single #
loop $-1 $-1 $84 $32 #
plane-surface $-1 0 -21.293999327575726 0 0 1 0 0 0 1 forward_v I I I I #
coedge $-1 $85 $86 $87 $88 forward $33 $-1 #
coedge $-1 $89 $35 $90 $91 forward $21 $-1 #
coedge $-1 $35 $89 $92 $93 forward $21 $-1 #
coedge $-1 $94 $95 $35 $56 reversed $96 $-1 #
edge $-1 $97 -21.293999327575726 $98 21.293999327575726 $55 $99 forward 7 unknown #
face $-1 $100 $101 $13 $-1 $102 reversed single #
loop $-1 $-1 $103 $36 #
plane-surface $-1 0 0 7.1851244900481674 0 0 1 1 0 0 forward_v I I I I #
coedge $-1 $104 $105 $106 $107 forward $37 $-1 #
coedge $-1 $108 $39 $109 $110 forward $24 $-1 #
coedge $-1 $39 $108 $111 $112 forward $24 $-1 #
coedge $-1 $113 $114 $39 $64 forward $115 $-1 #
edge $-1 $116 -21.293999327575726 $117 21.293999327575726 $63 $118 forward 7 unknown #
face $-1 $119 $120 $14 $-1 $121 forward single #
loop $-1 $-1 $122 $40 #
plane-surface $-1 56.752898418445959 1.1080379606999262 126.94587190988614 0 1 0 0.77714596973225614 0 0.62932038083071107 forward_v I I I I #
coedge $-1 $123 $124 $125 $126 reversed $41 $-1 #
coedge $-1 $70 $43 $124 $127 forward $27 $-1 #
coedge $-1 $43 $69 $128 $129 reversed $27 $-1 #
coedge $-1 $130 $125 $43 $72 forward $120 $-1 #
edge $-1 $131 12.629943580670986 $132 15.426157071486269 $71 $133 forward 7 unknown #
face $-1 $134 $135 $15 $-1 $136 forward single #
loop $-1 $-1 $137 $44 #
plane-surface $-1 56.752898418445959 13.560786769300369 126.94587190988614 0 -1 0 -0.77714596973225614 0 -0.62932038083071107 forward_v I I I I #
loop $-1 $-1 $138 $29 #
coedge $-1 $77 $77 $78 $139 forward $45 $-1 #
coedge $-1 $78 $78 $77 $139 reversed $47 $-1 #
coedge $-1 $79 $79 $48 $80 forward $135 $-1 #
edge $-1 $140 0 $140 6.2831853071796004 $79 $141 forward 7 unknown #
face $-1 $142 $143 $12 $-1 $144 reversed single #
loop $-1 $-1 $145 $49 #
plane-surface $-1 -43.802606280709249 0 0 1 0 0 0 0 -1 forward_v I I I I #
coedge $-1 $146 $92 $147 $148 forward $50 $-1 #
coedge $-1 $149 $52 $146 $150 forward $33 $-1 #
coedge $-1 $52 $149 $151 $152 forward $33 $-1 #
coedge $-1 $95 $94 $52 $88 reversed $96 $-1 #
edge $-1 $153 -21.293999327575726 $154 21.293999327575726 $87 $155 forward 7 unknown #
coedge $-1 $54 $53 $156 $157 forward $21 $-1 #
coedge $-1 $158 $159 $53 $91 reversed $143 $-1 #
edge $-1 $98 -43.802606280709249 $160 43.802606280709249 $90 $161 forward 7 unknown #
coedge $-1 $84 $162 $54 $93 reversed $50 $-1 #
edge $-1 $163 -43.802606280709249 $97 43.802606280709249 $92 $164 forward 7 unknown #
coedge $-1 $87 $55 $162 $165 forward $96 $-1 #
coedge $-1 $55 $87 $158 $166 reversed $96 $-1 #
loop $-1 $-1 $94 $142 #
vertex $-1 $56 $167 #
vertex $-1 $56 $168 #
straight-curve $-1 43.802606280709249 0 7.1851244900481674 0 1 0 I I #
face $-1 $169 $170 $13 $-1 $171 reversed single #
loop $-1 $-1 $172 $57 #
plane-surface $-1 0 0 -7.1851244900481674 0 0 1 1 0 0 forward_v I I I I #
coedge $-1 $173 $174 $175 $176 forward $58 $-1 #
coedge $-1 $177 $60 $108 $178 reversed $37 $-1 #
coedge $-1 $60 $177 $179 $180 reversed $37 $-1 #
coedge $-1 $181 $111 $60 $107 reversed $182 $-1 #
edge $-1 $183 -1.5 $184 1.5 $106 $185 forward 7 unknown #
coedge $-1 $62 $61 $104 $178 forward $24 $-1 #
coedge $-1 $186 $187 $61 $110 reversed $170 $-1 #
edge $-1 $116 -3.8398259578286797 $188 3.8398259578286797 $109 $189 forward 7 unknown #
coedge $-1 $106 $190 $62 $112 reversed $182 $-1 #
edge $-1 $184 -3.8398259578286797 $117 3.8398259578286797 $111 $191 forward 7 unknown #
coedge $-1 $192 $63 $190 $193 forward $115 $-1 #
coedge $-1 $63 $192 $186 $194 reversed $115 $-1 #
loop $-1 $-1 $63 $169 #
vertex $-1 $194 $195 #
vertex $-1 $193 $196 #
straight-curve $-1 -43.802606280709249 0 4.1851244900481674 0 1 0 I I #
face $-1 $197 $198 $14 $-1 $199 reversed single #
loop $-1 $-1 $200 $65 #
plane-surface $-1 0 0 7.1851244900481674 0 0 1 1 0 0 forward_v I I I I #
coedge $-1 $201 $202 $200 $203 reversed $66 $-1 #
coedge $-1 $204 $68 $202 $205 reversed $41 $-1 #
coedge $-1 $68 $204 $69 $127 reversed $41 $-1 #
coedge $-1 $71 $200 $68 $126 forward $120 $-1 #
edge $-1 $206 -2.5591682218001477 $131 9.8935805868002955 $125 $207 forward 7 unknown #
edge $-1 $131 83.161985270536505 $208 87.605212561418526 $69 $209 forward 7 unknown #
coedge $-1 $210 $211 $70 $129 forward $212 $-1 #
edge $-1 $132 56.287811464894901 $208 59.740847646608231 $128 $213 forward 7 unknown #
coedge $-1 $214 $71 $211 $215 forward $120 $-1 #
vertex $-1 $126 $216 #
vertex $-1 $215 $217 #
straight-curve $-1 28.376449209222979 13.560786769300369 7.1851244900481674 1 0 0 I I #
face $-1 $218 $219 $15 $-1 $220 forward single #
loop $-1 $221 $79 $73 #
plane-surface $-1 -11.329139451198053 7.3344123650001478 71.814126177978864 0.77714596973225614 0 0.62932038083071107 0.62932038083071107 0 -0.77714596973225614 forward_v I I I I #
coedge $-1 $222 $223 $224 $225 reversed $74 $-1 #
coedge $-1 $138 $138 $-1 $226 forward $76 $-1 #
edge $-1 $227 0 $227 6.2831853071796004 $77 $228 forward 7 unknown #
vertex $-1 $80 $229 #
ellipse-curve $-1 42.404499535301603 7.3344123650001478 5.4586063991915008 -0.77714596973225614 0 -0.62932038083071107 0.31466019041535553 0 -0.38857298486612807 1 I I #
face $-1 $-1 $96 $12 $-1 $230 reversed single #
loop $-1 $-1 $158 $81 #
plane-surface $-1 0 21.293999327575726 0 0 -1 0 0 0 -1 forward_v I I I I #
coedge $-1 $231 $156 $159 $232 forward $82 $-1 #
coedge $-1 $162 $84 $85 $150 reversed $50 $-1 #
coedge $-1 $156 $231 $84 $148 reversed $82 $-1 #
edge $-1 $163 -7.1851244900481674 $233 7.1851244900481674 $147 $234 forward 7 unknown #
coedge $-1 $86 $85 $231 $235 forward $33 $-1 #
edge $-1 $154 -43.802606280709249 $233 43.802606280709249 $146 $236 forward 7 unknown #
coedge $-1 $159 $158 $86 $152 reversed $143 $-1 #
edge $-1 $237 -43.802606280709249 $153 43.802606280709249 $151 $238 forward 7 unknown #
vertex $-1 $88 $239 #
vertex $-1 $165 $240 #
straight-curve $-1 43.802606280709249 0 -7.1851244900481674 0 -1 0 I I #
coedge $-1 $145 $147 $89 $157 reversed $82 $-1 #
edge $-1 $160 -21.293999327575726 $163 21.293999327575726 $156 $241 forward 7 unknown #
coedge $-1 $151 $90 $95 $166 forward $143 $-1 #
coedge $-1 $90 $151 $145 $232 reversed $143 $-1 #
vertex $-1 $91 $242 #
straight-curve $-1 0 21.293999327575726 7.1851244900481674 -1 0 0 I I #
coedge $-1 $92 $146 $94 $165 reversed $50 $-1 #
vertex $-1 $157 $243 #
straight-curve $-1 0 -21.293999327575726 7.1851244900481674 1 0 0 I I #
edge $-1 $97 -7.1851244900481674 $154 7.1851244900481674 $94 $244 forward 7 unknown #
edge $-1 $98 -7.1851244900481674 $153 7.1851244900481674 $95 $245 forward 7 unknown #
point $-1 43.802606280709249 -21.293999327575726 7.1851244900481674 #
point $-1 43.802606280709249 21.293999327575726 7.1851244900481674 #
face $-1 $246 $115 $13 $-1 $247 reversed single #
loop $-1 $-1 $186 $100 #
plane-surface $-1 0 -21.293999327575726 0 0 1 0 0 0 1 forward_v I I I I #
coedge $-1 $248 $249 $250 $251 forward $101 $-1 #
coedge $-1 $179 $103 $181 $252 forward $58 $-1 #
coedge $-1 $103 $179 $253 $254 forward $58 $-1 #
coedge $-1 $255 $256 $103 $176 reversed $257 $-1 #
edge $-1 $258 -21.293999327575726 $259 21.293999327575726 $175 $260 forward 7 unknown #
coedge $-1 $105 $104 $187 $261 reversed $37 $-1 #
edge $-1 $188 -21.293999327575726 $184 21.293999327575726 $104 $262 forward 7 unknown #
coedge $-1 $174 $173 $105 $180 forward $58 $-1 #
edge $-1 $183 -21.293999327575726 $263 21.293999327575726 $105 $264 forward 7 unknown #
coedge $-1 $265 $106 $173 $252 reversed $182 $-1 #
loop $-1 $-1 $265 $246 #
vertex $-1 $252 $266 #
vertex $-1 $112 $267 #
straight-curve $-1 -51.482258196366608 21.293999327575726 5.6851244900481674 0 0 -1 I I #
coedge $-1 $268 $109 $114 $194 forward $170 $-1 #
coedge $-1 $109 $253 $177 $261 forward $170 $-1 #
vertex $-1 $178 $269 #
straight-curve $-1 -47.642432238537928 -21.293999327575726 4.1851244900481674 -1 0 0 I I #
coedge $-1 $111 $270 $113 $193 reversed $182 $-1 #
straight-curve $-1 -47.642432238537928 21.293999327575726 4.1851244900481674 1 0 0 I I #
coedge $-1 $114 $113 $271 $272 reversed $115 $-1 #
edge $-1 $117 -4.1851244900481674 $273 7.1851244900481674 $190 $274 forward 7 unknown #
edge $-1 $116 -4.1851244900481674 $275 7.1851244900481674 $114 $276 forward 7 unknown #
point $-1 -43.802606280709249 -21.293999327575726 4.1851244900481674 #
point $-1 -43.802606280709249 21.293999327575726 4.1851244900481674 #
face $-1 $277 $278 $14 $-1 $279 reversed single #
loop $-1 $-1 $280 $119 #
plane-surface $-1 -47.642432238537928 0 4.1851244900481674 0 0 1 1 0 0 forward_v I I I I #
coedge $-1 $125 $281 $122 $203 forward $120 $-1 #
coedge $-1 $202 $122 $282 $283 reversed $66 $-1 #
coedge $-1 $122 $201 $123 $205 forward $66 $-1 #
edge $-1 $284 -15.426157071486269 $206 -12.629943580670986 $200 $285 forward 7 unknown #
coedge $-1 $124 $123 $210 $286 reversed $41 $-1 #
edge $-1 $287 -87.605212561418526 $206 -83.161985270536505 $202 $288 forward 7 unknown #
vertex $-1 $126 $289 #
straight-curve $-1 41.006392789893965 3.6672061825000739 7.1851244900481674 0 1 0 I I #
vertex $-1 $286 $290 #
straight-curve $-1 -11.329139451198053 13.560786769300369 71.814126177978864 0.62932038083071107 0 -0.77714596973225614 I I #
coedge $-1 $282 $128 $204 $286 forward $212 $-1 #
coedge $-1 $128 $291 $130 $215 reversed $212 $-1 #
loop $-1 $-1 $282 $292 #
straight-curve $-1 43.802606280709249 13.560786769300369 63.472935954943068 0 0 -1 I I #
coedge $-1 $293 $130 $294 $295 forward $120 $-1 #
edge $-1 $132 13.560786769300369 $296 21.293999327575726 $211 $297 forward 7 unknown #
point $-1 41.006392789893965 13.560786769300369 7.1851244900481674 #
point $-1 43.802606280709249 13.560786769300369 7.1851244900481674 #
face $-1 $298 $299 $15 $-1 $300 forward single #
loop $-1 $-1 $301 $134 #
plane-surface $-1 56.752898418445959 1.1080379606999262 126.94587190988614 0 1 0 0.77714596973225614 0 0.62932038083071107 forward_v I I I I #
loop $-1 $-1 $302 $73 #
coedge $-1 $223 $137 $303 $304 forward $74 $-1 #
coedge $-1 $137 $222 $305 $306 reversed $74 $-1 #
coedge $-1 $307 $308 $137 $225 forward $299 $-1 #
edge $-1 $309 12.629943580670986 $310 15.426157071486269 $224 $311 forward 7 unknown #
edge $-1 $312 1 $312 0 $138 $-1 forward 7 unknown #
vertex $-1 $139 $313 #
ellipse-curve $-1 41.627353565569358 7.3344123650001478 4.8292860183607988 0.77714596973225614 0 0.62932038083071107 0.31466019041535553 0 -0.38857298486612807 1 I I #
point $-1 42.71915972571697 7.3344123650001478 5.0700334143253816 #
plane-surface $-1 43.802606280709249 0 0 -1 0 0 0 0 1 forward_v I I I I #
coedge $-1 $147 $145 $149 $235 reversed $82 $-1 #
edge $-1 $160 -7.1851244900481674 $237 7.1851244900481674 $159 $314 forward 7 unknown #
vertex $-1 $235 $315 #
straight-curve $-1 -43.802606280709249 -21.293999327575726 0 0 0 -1 I I #
edge $-1 $233 -21.293999327575726 $237 21.293999327575726 $231 $316 forward 7 unknown #
straight-curve $-1 0 -21.293999327575726 -7.1851244900481674 -1 0 0 I I #
vertex $-1 $152 $317 #
straight-curve $-1 0 21.293999327575726 -7.1851244900481674 1 0 0 I I #
point $-1 43.802606280709249 21.293999327575726 -7.1851244900481674 #
point $-1 43.802606280709249 -21.293999327575726 -7.1851244900481674 #
straight-curve $-1 -43.802606280709249 0 7.1851244900481674 0 -1 0 I I #
point $-1 -43.802606280709249 21.293999327575726 7.1851244900481674 #
point $-1 -43.802606280709249 -21.293999327575726 7.1851244900481674 #
straight-curve $-1 43.802606280709249 -21.293999327575726 0 0 0 -1 I I #
straight-curve $-1 43.802606280709249 21.293999327575726 0 0 0 -1 I I #
face $-1 $318 $182 $13 $-1 $319 reversed single #
plane-surface $-1 -43.802606280709249 0 0 1 0 0 0 0 -1 forward_v I I I I #
coedge $-1 $271 $172 $268 $320 forward $101 $-1 #
coedge $-1 $172 $271 $270 $321 forward $101 $-1 #
coedge $-1 $256 $255 $172 $251 reversed $257 $-1 #
edge $-1 $322 -21.293999327575726 $323 21.293999327575726 $250 $324 forward 7 unknown #
edge $-1 $259 -43.802606280709249 $183 51.482258196366608 $181 $325 forward 7 unknown #
coedge $-1 $187 $326 $174 $254 reversed $170 $-1 #
edge $-1 $263 -51.482258196366608 $258 43.802606280709249 $253 $327 forward 7 unknown #
coedge $-1 $250 $175 $326 $328 forward $257 $-1 #
coedge $-1 $175 $250 $265 $329 reversed $257 $-1 #
loop $-1 $-1 $255 $318 #
vertex $-1 $176 $330 #
vertex $-1 $176 $331 #
straight-curve $-1 43.802606280709249 0 7.1851244900481674 0 1 0 I I #
edge $-1 $263 -1.5 $188 1.5 $177 $332 forward 7 unknown #
straight-curve $-1 -51.482258196366608 0 4.1851244900481674 0 1 0 I I #
vertex $-1 $180 $333 #
straight-curve $-1 -51.482258196366608 0 7.1851244900481674 0 -1 0 I I #
coedge $-1 $270 $181 $256 $329 forward $182 $-1 #
point $-1 -51.482258196366608 21.293999327575726 7.1851244900481674 #
point $-1 -51.482258196366608 21.293999327575726 4.1851244900481674 #
coedge $-1 $326 $186 $248 $320 reversed $170 $-1 #
point $-1 -51.482258196366608 -21.293999327575726 4.1851244900481674 #
coedge $-1 $190 $265 $249 $321 reversed $182 $-1 #
coedge $-1 $249 $248 $192 $272 forward $101 $-1 #
edge $-1 $275 -21.293999327575726 $273 21.293999327575726 $192 $334 forward 7 unknown #
vertex $-1 $321 $335 #
straight-curve $-1 -43.802606280709249 21.293999327575726 0 0 0 -1 I I #
vertex $-1 $272 $336 #
straight-curve $-1 -43.802606280709249 -21.293999327575726 0 0 0 -1 I I #
face $-1 $337 $338 $14 $-1 $339 reversed single #
loop $-1 $-1 $340 $197 #
plane-surface $-1 -51.482258196366608 0 5.6851244900481674 1 0 0 0 0 -1 forward_v I I I I #
coedge $-1 $341 $342 $343 $344 reversed $198 $-1 #
coedge $-1 $200 $345 $346 $347 forward $120 $-1 #
coedge $-1 $346 $210 $201 $283 forward $212 $-1 #
edge $-1 $287 -59.740847646608231 $284 -56.287811464894901 $282 $348 forward 7 unknown #
vertex $-1 $283 $349 #
straight-curve $-1 28.376449209222979 1.1080379606999262 7.1851244900481674 -1 0 0 I I #
edge $-1 $208 -9.8935805868002955 $287 2.5591682218001477 $210 $350 forward 7 unknown #
vertex $-1 $286 $351 #
straight-curve $-1 -11.329139451198053 1.1080379606999262 71.814126177978864 -0.62932038083071107 0 0.77714596973225614 I I #
point $-1 41.006392789893965 1.1080379606999262 7.1851244900481674 #
point $-1 43.802606280709249 13.560786769300369 3.7320883083348377 #
coedge $-1 $211 $352 $353 $354 reversed $212 $-1 #
face $-1 $-1 $212 $14 $-1 $355 reversed single #
coedge $-1 $345 $214 $356 $357 forward $120 $-1 #
coedge $-1 $353 $358 $214 $295 reversed $359 $-1 #
edge $-1 $296 -43.802606280709249 $360 51.482258196366608 $294 $361 forward 7 unknown #
vertex $-1 $215 $362 #
straight-curve $-1 43.802606280709249 0 7.1851244900481674 0 1 0 I I #
face $-1 $363 $364 $15 $-1 $365 reversed single #
loop $-1 $-1 $366 $218 #
plane-surface $-1 0 0 7.1851244900481674 0 0 1 1 0 0 forward_v I I I I #
coedge $-1 $367 $368 $366 $369 reversed $219 $-1 #
coedge $-1 $370 $303 $308 $371 reversed $221 $-1 #
coedge $-1 $302 $372 $222 $304 reversed $221 $-1 #
edge $-1 $309 83.161985270536505 $373 87.605212561418526 $222 $374 forward 7 unknown #
coedge $-1 $375 $376 $223 $306 forward $377 $-1 #
edge $-1 $310 56.287811464894901 $373 59.740847646608231 $305 $378 forward 7 unknown #
coedge $-1 $379 $224 $376 $380 forward $299 $-1 #
coedge $-1 $224 $366 $302 $371 forward $299 $-1 #
vertex $-1 $371 $381 #
vertex $-1 $380 $382 #
straight-curve $-1 28.376449209222979 13.560786769300369 7.1851244900481674 1 0 0 I I #
vertex $-1 $226 $383 #
point $-1 41.942013755984711 7.3344123650001478 4.4407130334946707 #
straight-curve $-1 -43.802606280709249 21.293999327575726 0 0 0 -1 I I #
point $-1 -43.802606280709249 -21.293999327575726 -7.1851244900481674 #
straight-curve $-1 -43.802606280709249 0 -7.1851244900481674 0 1 0 I I #
point $-1 -43.802606280709249 21.293999327575726 -7.1851244900481674 #
face $-1 $-1 $257 $13 $-1 $384 reversed single #
plane-surface $-1 0 21.293999327575726 0 0 -1 0 0 0 -1 forward_v I I I I #
edge $-1 $323 -43.802606280709249 $275 43.802606280709249 $268 $385 forward 7 unknown #
edge $-1 $273 -43.802606280709249 $322 43.802606280709249 $270 $386 forward 7 unknown #
vertex $-1 $251 $387 #
vertex $-1 $328 $388 #
straight-curve $-1 43.802606280709249 0 -7.1851244900481674 0 -1 0 I I #
straight-curve $-1 0 21.293999327575726 7.1851244900481674 -1 0 0 I I #
coedge $-1 $253 $268 $255 $328 reversed $170 $-1 #
straight-curve $-1 0 -21.293999327575726 7.1851244900481674 1 0 0 I I #
edge $-1 $258 -7.1851244900481674 $323 7.1851244900481674 $255 $389 forward 7 unknown #
edge $-1 $259 -7.1851244900481674 $322 7.1851244900481674 $256 $390 forward 7 unknown #
point $-1 43.802606280709249 -21.293999327575726 7.1851244900481674 #
point $-1 43.802606280709249 21.293999327575726 7.1851244900481674 #
straight-curve $-1 -51.482258196366608 -21.293999327575726 5.6851244900481674 0 0 -1 I I #
point $-1 -51.482258196366608 -21.293999327575726 7.1851244900481674 #
straight-curve $-1 -43.802606280709249 0 -7.1851244900481674 0 1 0 I I #
point $-1 -43.802606280709249 21.293999327575726 -7.1851244900481674 #
point $-1 -43.802606280709249 -21.293999327575726 -7.1851244900481674 #
face $-1 $391 $392 $14 $-1 $393 reversed single #
loop $-1 $-1 $394 $277 #
plane-surface $-1 0 0 -7.1851244900481674 0 0 1 1 0 0 forward_v I I I I #
coedge $-1 $395 $356 $358 $396 forward $278 $-1 #
coedge $-1 $397 $280 $398 $399 forward $198 $-1 #
coedge $-1 $280 $397 $400 $401 forward $198 $-1 #
coedge $-1 $402 $403 $280 $344 forward $404 $-1 #
edge $-1 $405 -21.293999327575726 $406 21.293999327575726 $343 $407 forward 7 unknown #
coedge $-1 $281 $293 $408 $409 forward $120 $-1 #
coedge $-1 $410 $282 $281 $347 reversed $212 $-1 #
edge $-1 $411 -21.293999327575726 $284 1.1080379606999262 $346 $297 forward 7 unknown #
straight-curve $-1 43.802606280709249 1.1080379606999262 63.472935954943068 0 0 1 I I #
point $-1 43.802606280709249 1.1080379606999262 7.1851244900481674 #
straight-curve $-1 43.802606280709242 3.6672061825000739 3.7320883083348377 0 -1 0 I I #
point $-1 43.802606280709249 1.1080379606999262 3.7320883083348377 #
coedge $-1 $291 $410 $394 $412 reversed $212 $-1 #
coedge $-1 $413 $294 $291 $354 forward $359 $-1 #
edge $-1 $296 -7.1851244900481674 $414 7.1851244900481674 $291 $415 forward 7 unknown #
plane-surface $-1 43.802606280709249 0 0 -1 0 0 0 0 1 forward_v I I I I #
coedge $-1 $340 $416 $293 $357 reversed $278 $-1 #
edge $-1 $360 -21.293999327575726 $417 21.293999327575726 $356 $418 forward 7 unknown #
coedge $-1 $294 $400 $340 $396 reversed $359 $-1 #
loop $-1 $-1 $353 $419 #
vertex $-1 $295 $420 #
straight-curve $-1 0 21.293999327575726 7.1851244900481674 -1 0 0 I I #
point $-1 43.802606280709249 21.293999327575726 7.1851244900481674 #
face $-1 $421 $422 $15 $-1 $423 reversed single #
loop $-1 $-1 $424 $298 #
plane-surface $-1 -47.642432238537928 0 4.1851244900481674 0 0 1 1 0 0 forward_v I I I I #
coedge $-1 $308 $425 $301 $369 forward $299 $-1 #
coedge $-1 $368 $301 $426 $427 reversed $219 $-1 #
coedge $-1 $301 $367 $370 $428 forward $219 $-1 #
edge $-1 $429 -15.426157071486269 $430 -12.629943580670986 $366 $431 forward 7 unknown #
coedge $-1 $372 $302 $368 $428 reversed $221 $-1 #
edge $-1 $430 -2.5591682218001477 $309 9.8935805868002955 $308 $432 forward 7 unknown #
coedge $-1 $303 $370 $375 $433 reversed $221 $-1 #
vertex $-1 $433 $434 #
straight-curve $-1 -11.329139451198053 13.560786769300369 71.814126177978864 0.62932038083071107 0 -0.77714596973225614 I I #
coedge $-1 $426 $305 $372 $433 forward $377 $-1 #
coedge $-1 $305 $435 $307 $380 reversed $377 $-1 #
loop $-1 $-1 $426 $436 #
straight-curve $-1 43.802606280709249 13.560786769300369 63.472935954943068 0 0 -1 I I #
coedge $-1 $437 $307 $438 $439 forward $299 $-1 #
edge $-1 $310 13.560786769300369 $440 21.293999327575726 $376 $441 forward 7 unknown #
point $-1 41.006392789893965 13.560786769300369 7.1851244900481674 #
point $-1 43.802606280709249 13.560786769300369 7.1851244900481674 #
point $-1 41.238780580703228 7.3344123650001478 4.5146258279454425 #
plane-surface $-1 43.802606280709249 0 0 -1 0 0 0 0 1 forward_v I I I I #
straight-curve $-1 0 -21.293999327575726 -7.1851244900481674 -1 0 0 I I #
straight-curve $-1 0 21.293999327575726 -7.1851244900481674 1 0 0 I I #
point $-1 43.802606280709249 21.293999327575726 -7.1851244900481674 #
point $-1 43.802606280709249 -21.293999327575726 -7.1851244900481674 #
straight-curve $-1 43.802606280709249 -21.293999327575726 0 0 0 -1 I I #
straight-curve $-1 43.802606280709249 21.293999327575726 0 0 0 -1 I I #
face $-1 $419 $404 $14 $-1 $442 reversed single #
loop $-1 $-1 $443 $337 #
plane-surface $-1 0 -21.293999327575726 0 0 1 0 0 0 1 forward_v I I I I #
coedge $-1 $444 $445 $352 $412 forward $338 $-1 #
coedge $-1 $416 $340 $397 $446 reversed $278 $-1 #
edge $-1 $360 -1.5 $447 1.5 $358 $448 forward 7 unknown #
coedge $-1 $342 $341 $395 $446 forward $198 $-1 #
coedge $-1 $443 $449 $341 $399 reversed $392 $-1 #
edge $-1 $405 -3.8398259578286797 $450 3.8398259578286797 $398 $451 forward 7 unknown #
coedge $-1 $358 $452 $342 $401 reversed $359 $-1 #
edge $-1 $447 -3.8398259578286797 $406 3.8398259578286797 $400 $453 forward 7 unknown #
coedge $-1 $454 $343 $452 $455 forward $404 $-1 #
coedge $-1 $343 $454 $443 $456 reversed $404 $-1 #
loop $-1 $-1 $343 $391 #
vertex $-1 $456 $457 #
vertex $-1 $455 $458 #
straight-curve $-1 -43.802606280709249 0 4.1851244900481674 0 1 0 I I #
coedge $-1 $449 $459 $345 $409 reversed $392 $-1 #
edge $-1 $417 -51.482258196366608 $411 43.802606280709249 $408 $460 forward 7 unknown #
coedge $-1 $352 $346 $459 $461 forward $212 $-1 #
vertex $-1 $347 $462 #
edge $-1 $414 -21.293999327575726 $463 21.293999327575726 $352 $464 forward 7 unknown #
coedge $-1 $452 $353 $445 $465 reversed $359 $-1 #
vertex $-1 $412 $466 #
straight-curve $-1 43.802606280709249 21.293999327575726 0 0 0 -1 I I #
coedge $-1 $356 $395 $449 $467 reversed $278 $-1 #
vertex $-1 $357 $468 #
straight-curve $-1 -51.482258196366608 0 7.1851244900481674 0 -1 0 I I #
face $-1 $292 $359 $14 $-1 $469 reversed single #
point $-1 -51.482258196366608 21.293999327575726 7.1851244900481674 #
face $-1 $470 $471 $15 $-1 $472 reversed single #
loop $-1 $-1 $473 $363 #
plane-surface $-1 -51.482258196366608 0 5.6851244900481674 1 0 0 0 0 -1 forward_v I I I I #
coedge $-1 $474 $475 $476 $477 reversed $364 $-1 #
coedge $-1 $366 $478 $479 $480 forward $299 $-1 #
coedge $-1 $479 $375 $367 $427 forward $377 $-1 #
edge $-1 $481 -59.740847646608231 $429 -56.287811464894901 $426 $482 forward 7 unknown #
edge $-1 $481 -87.605212561418526 $430 -83.161985270536505 $368 $483 forward 7 unknown #
vertex $-1 $427 $484 #
vertex $-1 $371 $485 #
straight-curve $-1 28.376449209222979 1.1080379606999262 7.1851244900481674 -1 0 0 I I #
straight-curve $-1 41.006392789893965 3.6672061825000739 7.1851244900481674 0 1 0 I I #
edge $-1 $373 -9.8935805868002955 $481 2.5591682218001477 $375 $486 forward 7 unknown #
point $-1 43.802606280709249 13.560786769300369 3.7320883083348377 #
coedge $-1 $376 $487 $488 $489 reversed $377 $-1 #
face $-1 $-1 $377 $15 $-1 $490 reversed single #
coedge $-1 $478 $379 $491 $492 forward $299 $-1 #
coedge $-1 $488 $493 $379 $439 reversed $494 $-1 #
edge $-1 $440 -43.802606280709249 $495 51.482258196366608 $438 $496 forward 7 unknown #
vertex $-1 $380 $497 #
straight-curve $-1 43.802606280709249 0 7.1851244900481674 0 1 0 I I #
plane-surface $-1 -43.802606280709249 0 0 1 0 0 0 0 -1 forward_v I I I I #
coedge $-1 $498 $398 $403 $456 forward $392 $-1 #
coedge $-1 $499 $394 $498 $500 forward $338 $-1 #
coedge $-1 $394 $499 $413 $465 forward $338 $-1 #
edge $-1 $450 -21.293999327575726 $447 21.293999327575726 $395 $501 forward 7 unknown #
vertex $-1 $401 $502 #
straight-curve $-1 -51.482258196366608 21.293999327575726 5.6851244900481674 0 0 -1 I I #
coedge $-1 $398 $408 $416 $467 forward $392 $-1 #
vertex $-1 $446 $503 #
straight-curve $-1 -47.642432238537928 -21.293999327575726 4.1851244900481674 -1 0 0 I I #
coedge $-1 $400 $413 $402 $455 reversed $359 $-1 #
straight-curve $-1 -47.642432238537928 21.293999327575726 4.1851244900481674 1 0 0 I I #
coedge $-1 $403 $402 $499 $504 reversed $404 $-1 #
edge $-1 $406 -4.1851244900481674 $505 7.1851244900481674 $452 $506 forward 7 unknown #
edge $-1 $405 -4.1851244900481674 $507 7.1851244900481674 $403 $508 forward 7 unknown #
point $-1 -43.802606280709249 -21.293999327575726 4.1851244900481674 #
point $-1 -43.802606280709249 21.293999327575726 4.1851244900481674 #
coedge $-1 $408 $498 $410 $461 reversed $392 $-1 #
straight-curve $-1 0 -21.293999327575726 7.1851244900481674 1 0 0 I I #
edge $-1 $411 -7.1851244900481674 $463 7.1851244900481674 $410 $509 forward 7 unknown #
point $-1 43.802606280709249 -21.293999327575726 7.1851244900481674 #
vertex $-1 $461 $510 #
straight-curve $-1 43.802606280709249 0 -7.1851244900481674 0 -1 0 I I #
edge $-1 $505 -43.802606280709249 $414 43.802606280709249 $413 $511 forward 7 unknown #
point $-1 43.802606280709249 21.293999327575726 -7.1851244900481674 #
edge $-1 $417 -1.5 $450 1.5 $416 $512 forward 7 unknown #
point $-1 -51.482258196366608 -21.293999327575726 7.1851244900481674 #
plane-surface $-1 0 21.293999327575726 0 0 -1 0 0 0 -1 forward_v I I I I #
face $-1 $513 $514 $15 $-1 $515 reversed single #
loop $-1 $-1 $516 $421 #
plane-surface $-1 0 0 -7.1851244900481674 0 0 1 1 0 0 forward_v I I I I #
coedge $-1 $517 $491 $493 $518 forward $422 $-1 #
coedge $-1 $519 $424 $520 $521 forward $364 $-1 #
coedge $-1 $424 $519 $522 $523 forward $364 $-1 #
coedge $-1 $524 $525 $424 $477 forward $526 $-1 #
edge $-1 $527 -21.293999327575726 $528 21.293999327575726 $476 $529 forward 7 unknown #
coedge $-1 $425 $437 $530 $531 forward $299 $-1 #
coedge $-1 $532 $426 $425 $480 reversed $377 $-1 #
edge $-1 $533 -21.293999327575726 $429 1.1080379606999262 $479 $441 forward 7 unknown #
vertex $-1 $433 $534 #
straight-curve $-1 43.802606280709249 1.1080379606999262 63.472935954943068 0 0 1 I I #
straight-curve $-1 -11.329139451198053 1.1080379606999262 71.814126177978864 -0.62932038083071107 0 0.77714596973225614 I I #
point $-1 43.802606280709249 1.1080379606999262 7.1851244900481674 #
point $-1 41.006392789893965 1.1080379606999262 7.1851244900481674 #
straight-curve $-1 43.802606280709242 3.6672061825000739 3.7320883083348377 0 -1 0 I I #
coedge $-1 $435 $532 $516 $535 reversed $377 $-1 #
coedge $-1 $536 $438 $435 $489 forward $494 $-1 #
edge $-1 $440 -7.1851244900481674 $537 7.1851244900481674 $435 $538 forward 7 unknown #
plane-surface $-1 43.802606280709249 0 0 -1 0 0 0 0 1 forward_v I I I I #
coedge $-1 $473 $539 $437 $492 reversed $422 $-1 #
edge $-1 $495 -21.293999327575726 $540 21.293999327575726 $491 $541 forward 7 unknown #
coedge $-1 $438 $522 $473 $518 reversed $494 $-1 #
loop $-1 $-1 $488 $542 #
vertex $-1 $439 $543 #
straight-curve $-1 0 21.293999327575726 7.1851244900481674 -1 0 0 I I #
point $-1 43.802606280709249 21.293999327575726 7.1851244900481674 #
coedge $-1 $459 $443 $444 $500 reversed $392 $-1 #
coedge $-1 $445 $444 $454 $504 forward $338 $-1 #
edge $-1 $463 -43.802606280709249 $507 43.802606280709249 $498 $544 forward 7 unknown #
straight-curve $-1 -51.482258196366608 0 4.1851244900481674 0 1 0 I I #
point $-1 -51.482258196366608 21.293999327575726 4.1851244900481674 #
point $-1 -51.482258196366608 -21.293999327575726 4.1851244900481674 #
edge $-1 $507 -21.293999327575726 $505 21.293999327575726 $454 $545 forward 7 unknown #
vertex $-1 $465 $546 #
straight-curve $-1 -43.802606280709249 21.293999327575726 0 0 0 -1 I I #
vertex $-1 $504 $547 #
straight-curve $-1 -43.802606280709249 -21.293999327575726 0 0 0 -1 I I #
straight-curve $-1 43.802606280709249 -21.293999327575726 0 0 0 -1 I I #
point $-1 43.802606280709249 -21.293999327575726 -7.1851244900481674 #
straight-curve $-1 0 21.293999327575726 -7.1851244900481674 1 0 0 I I #
straight-curve $-1 -51.482258196366608 -21.293999327575726 5.6851244900481674 0 0 -1 I I #
face $-1 $542 $526 $15 $-1 $548 reversed single #
loop $-1 $-1 $549 $470 #
plane-surface $-1 0 -21.293999327575726 0 0 1 0 0 0 1 forward_v I I I I #
coedge $-1 $550 $551 $487 $535 forward $471 $-1 #
coedge $-1 $539 $473 $519 $552 reversed $422 $-1 #
edge $-1 $495 -1.5 $553 1.5 $493 $554 forward 7 unknown #
coedge $-1 $475 $474 $517 $552 forward $364 $-1 #
coedge $-1 $549 $555 $474 $521 reversed $514 $-1 #
edge $-1 $527 -3.8398259578286797 $556 3.8398259578286797 $520 $557 forward 7 unknown #
coedge $-1 $493 $558 $475 $523 reversed $494 $-1 #
edge $-1 $553 -3.8398259578286797 $528 3.8398259578286797 $522 $559 forward 7 unknown #
coedge $-1 $560 $476 $558 $561 forward $526 $-1 #
coedge $-1 $476 $560 $549 $562 reversed $526 $-1 #
loop $-1 $-1 $476 $513 #
vertex $-1 $562 $563 #
vertex $-1 $561 $564 #
straight-curve $-1 -43.802606280709249 0 4.1851244900481674 0 1 0 I I #
coedge $-1 $555 $565 $478 $531 reversed $514 $-1 #
edge $-1 $540 -51.482258196366608 $533 43.802606280709249 $530 $566 forward 7 unknown #
coedge $-1 $487 $479 $565 $567 forward $377 $-1 #
vertex $-1 $480 $568 #
point $-1 43.802606280709249 1.1080379606999262 3.7320883083348377 #
edge $-1 $537 -21.293999327575726 $569 21.293999327575726 $487 $570 forward 7 unknown #
coedge $-1 $558 $488 $551 $571 reversed $494 $-1 #
vertex $-1 $535 $572 #
straight-curve $-1 43.802606280709249 21.293999327575726 0 0 0 -1 I I #
coedge $-1 $491 $517 $555 $573 reversed $422 $-1 #
vertex $-1 $492 $574 #
straight-curve $-1 -51.482258196366608 0 7.1851244900481674 0 -1 0 I I #
face $-1 $436 $494 $15 $-1 $575 reversed single #
point $-1 -51.482258196366608 21.293999327575726 7.1851244900481674 #
straight-curve $-1 0 -21.293999327575726 -7.1851244900481674 -1 0 0 I I #
straight-curve $-1 -43.802606280709249 0 -7.1851244900481674 0 1 0 I I #
point $-1 -43.802606280709249 21.293999327575726 -7.1851244900481674 #
point $-1 -43.802606280709249 -21.293999327575726 -7.1851244900481674 #
plane-surface $-1 -43.802606280709249 0 0 1 0 0 0 0 -1 forward_v I I I I #
coedge $-1 $576 $520 $525 $562 forward $514 $-1 #
coedge $-1 $577 $516 $576 $578 forward $471 $-1 #
coedge $-1 $516 $577 $536 $571 forward $471 $-1 #
edge $-1 $556 -21.293999327575726 $553 21.293999327575726 $517 $579 forward 7 unknown #
vertex $-1 $523 $580 #
straight-curve $-1 -51.482258196366608 21.293999327575726 5.6851244900481674 0 0 -1 I I #
coedge $-1 $520 $530 $539 $573 forward $514 $-1 #
vertex $-1 $552 $581 #
straight-curve $-1 -47.642432238537928 -21.293999327575726 4.1851244900481674 -1 0 0 I I #
coedge $-1 $522 $536 $524 $561 reversed $494 $-1 #
straight-curve $-1 -47.642432238537928 21.293999327575726 4.1851244900481674 1 0 0 I I #
coedge $-1 $525 $524 $577 $582 reversed $526 $-1 #
edge $-1 $528 -4.1851244900481674 $583 7.1851244900481674 $558 $584 forward 7 unknown #
edge $-1 $527 -4.1851244900481674 $585 7.1851244900481674 $525 $586 forward 7 unknown #
point $-1 -43.802606280709249 -21.293999327575726 4.1851244900481674 #
point $-1 -43.802606280709249 21.293999327575726 4.1851244900481674 #
coedge $-1 $530 $576 $532 $567 reversed $514 $-1 #
straight-curve $-1 0 -21.293999327575726 7.1851244900481674 1 0 0 I I #
edge $-1 $533 -7.1851244900481674 $569 7.1851244900481674 $532 $587 forward 7 unknown #
point $-1 43.802606280709249 -21.293999327575726 7.1851244900481674 #
vertex $-1 $567 $588 #
straight-curve $-1 43.802606280709249 0 -7.1851244900481674 0 -1 0 I I #
edge $-1 $583 -43.802606280709249 $537 43.802606280709249 $536 $589 forward 7 unknown #
point $-1 43.802606280709249 21.293999327575726 -7.1851244900481674 #
edge $-1 $540 -1.5 $556 1.5 $539 $590 forward 7 unknown #
point $-1 -51.482258196366608 -21.293999327575726 7.1851244900481674 #
plane-surface $-1 0 21.293999327575726 0 0 -1 0 0 0 -1 forward_v I I I I #
coedge $-1 $565 $549 $550 $578 reversed $514 $-1 #
coedge $-1 $551 $550 $560 $582 forward $471 $-1 #
edge $-1 $569 -43.802606280709249 $585 43.802606280709249 $576 $591 forward 7 unknown #
straight-curve $-1 -51.482258196366608 0 4.1851244900481674 0 1 0 I I #
point $-1 -51.482258196366608 21.293999327575726 4.1851244900481674 #
point $-1 -51.482258196366608 -21.293999327575726 4.1851244900481674 #
edge $-1 $585 -21.293999327575726 $583 21.293999327575726 $560 $592 forward 7 unknown #
vertex $-1 $571 $593 #
straight-curve $-1 -43.802606280709249 21.293999327575726 0 0 0 -1 I I #
vertex $-1 $582 $594 #
straight-curve $-1 -43.802606280709249 -21.293999327575726 0 0 0 -1 I I #
straight-curve $-1 43.802606280709249 -21.293999327575726 0 0 0 -1 I I #
point $-1 43.802606280709249 -21.293999327575726 -7.1851244900481674 #
straight-curve $-1 0 21.293999327575726 -7.1851244900481674 1 0 0 I I #
straight-curve $-1 -51.482258196366608 -21.293999327575726 5.6851244900481674 0 0 -1 I I #
straight-curve $-1 0 -21.293999327575726 -7.1851244900481674 -1 0 0 I I #
straight-curve $-1 -43.802606280709249 0 -7.1851244900481674 0 1 0 I I #
point $-1 -43.802606280709249 21.293999327575726 -7.1851244900481674 #
point $-1 -43.802606280709249 -21.293999327575726 -7.1851244900481674 #
End-of-ACIS-data 