500 0 10 0           
7 Unknown 11 ACIS 5.0 NT 24 Fri Mar 26 19:00:39 1999 
-1 9.9999999999999995e-007 1e-010 
body $-1 $10 $-1 $11 #
body $-1 $12 $-1 $13 #
body $-1 $14 $-1 $15 #
body $-1 $16 $-1 $17 #
body $-1 $18 $-1 $19 #
body $-1 $20 $-1 $21 #
body $-1 $22 $-1 $23 #
body $-1 $24 $-1 $25 #
body $-1 $26 $-1 $27 #
body $-1 $28 $-1 $29 #
lump $-1 $-1 $30 $0 #
transform $-1 1 0 0 0 1 0 0 0 1 74.404126102481158 35.911622520705585 10.85919154704145 1 rotate no_reflect no_shear #
lump $-1 $-1 $31 $1 #
transform $-1 1 0 0 0 1 0 0 0 1 74.404126102481158 35.911622520705585 10.85919154704145 1 rotate no_reflect no_shear #
lump $-1 $-1 $32 $2 #
transform $-1 1 0 0 0 1 0 0 0 1 74.404126102481158 35.911622520705585 10.85919154704145 1 rotate no_reflect no_shear #
lump $-1 $-1 $33 $3 #
transform $-1 1 0 0 0 1 0 0 0 1 74.404126102481158 35.911622520705585 10.85919154704145 1 rotate no_reflect no_shear #
lump $-1 $-1 $34 $4 #
transform $-1 1 0 0 0 1 0 0 0 1 74.404126102481158 35.911622520705585 10.85919154704145 1 rotate no_reflect no_shear #
lump $-1 $-1 $35 $5 #
transform $-1 1 0 0 0 1 0 0 0 1 74.404126102481158 35.911622520705585 10.85919154704145 1 rotate no_reflect no_shear #
lump $-1 $-1 $36 $6 #
transform $-1 1 0 0 0 1 0 0 0 1 74.404126102481158 35.911622520705585 10.85919154704145 1 rotate no_reflect no_shear #
lump $-1 $-1 $37 $7 #
transform $-1 1 0 0 0 1 0 0 0 1 74.404126102481158 35.911622520705585 10.85919154704145 1 rotate no_reflect no_shear #
lump $-1 $-1 $38 $8 #
transform $-1 1 0 0 0 1 0 0 0 1 74.404126102481158 35.911622520705585 10.85919154704145 1 rotate no_reflect no_shear #
lump $-1 $-1 $39 $9 #
transform $-1 1 0 0 0 1 0 0 0 1 74.404126102481158 35.911622520705585 10.85919154704145 1 rotate no_reflect no_shear #
shell $-1 $-1 $-1 $40 $-1 $10 #
shell $-1 $-1 $-1 $41 $-1 $12 #
shell $-1 $-1 $-1 $42 $-1 $14 #
shell $-1 $-1 $-1 $43 $-1 $16 #
shell $-1 $-1 $-1 $44 $-1 $18 #
shell $-1 $-1 $-1 $45 $-1 $20 #
shell $-1 $-1 $-1 $46 $-1 $22 #
shell $-1 $-1 $-1 $47 $-1 $24 #
shell $-1 $-1 $-1 $48 $-1 $26 #
shell $-1 $-1 $-1 $49 $-1 $28 #
face $-1 $50 $51 $30 $-1 $52 forward single #
face $-1 $53 $54 $31 $-1 $55 reversed single #
face $-1 $56 $57 $32 $-1 $58 reversed single #
face $-1 $59 $60 $33 $-1 $61 forward single #
face $-1 $62 $63 $34 $-1 $64 forward single #
face $-1 $65 $66 $35 $-1 $67 forward single #
face $-1 $68 $69 $36 $-1 $70 reversed single #
face $-1 $71 $72 $37 $-1 $73 forward single #
face $-1 $74 $75 $38 $-1 $76 forward single #
face $-1 $77 $78 $39 $-1 $79 forward single #
face $-1 $80 $81 $30 $-1 $82 reversed single #
loop $-1 $-1 $83 $40 #
plane-surface $-1 0 0 10.85919154704145 0 0 1 1 0 0 forward_v I I I I #
face $-1 $84 $85 $31 $-1 $86 reversed single #
loop $-1 $-1 $87 $41 #
plane-surface $-1 -65.359022015550451 -29.488013198725582 0 1 0 0 0 0 -1 forward_v I I I I #
face $-1 $88 $89 $32 $-1 $90 reversed single #
loop $-1 $-1 $91 $42 #
plane-surface $-1 78.076929040390141 20.859126067104029 212.3130155484728 0 1 0 0.71933980857756763 0 0.69465836192734942 forward_v I I I I #
face $-1 $92 $93 $33 $-1 $94 forward single #
loop $-1 $95 $96 $43 #
cone-surface $-1 69.465253773850591 23.869625357824347 5.7875973953890103 -0.71933980857756763 0 -0.69465836192734942 1.0419875428910241 0 -1.0790097128663514 1 I I 0 1 1.5 forward I I I I #
face $-1 $97 $98 $34 $-1 $99 forward single #
loop $-1 $100 $101 $44 #
cone-surface $-1 69.465253773850591 28.38537429390481 5.7875973953890103 -0.71933980857756763 0 -0.69465836192734942 1.0419875428910241 0 -1.0790097128663514 1 I I 0 1 1.5 forward I I I I #
face $-1 $102 $103 $35 $-1 $104 forward single #
loop $-1 $105 $106 $45 #
cone-surface $-1 69.465253773850591 32.901123229985281 5.7875973953890103 -0.71933980857756763 0 -0.69465836192734942 1.0419875428910241 0 -1.0790097128663514 1 I I 0 1 1.5 forward I I I I #
face $-1 $107 $108 $36 $-1 $109 reversed single #
loop $-1 $-1 $110 $46 #
plane-surface $-1 -163.95916898217914 -13.42473532278988 123.59571767686522 0 1 0 -0.6018150307709319 0 0.79863550430605224 forward_v I I I I #
face $-1 $111 $112 $37 $-1 $113 forward single #
loop $-1 $114 $115 $47 #
cone-surface $-1 -69.826529496512649 -11.847476601142624 7.1083859562678269 0.6018150307709319 0 -0.79863550430605224 0.39931775215302612 0 0.30090751538546595 1 I I 0 1 0.5 forward I I I I #
face $-1 $116 $117 $38 $-1 $118 forward single #
loop $-1 $119 $120 $48 #
cone-surface $-1 -69.826529496512649 -9.4815885186717423 7.1083859562678269 0.6018150307709319 0 -0.79863550430605224 0.39931775215302612 0 0.30090751538546595 1 I I 0 1 0.5 forward I I I I #
face $-1 $121 $122 $39 $-1 $123 forward single #
loop $-1 $124 $125 $49 #
cone-surface $-1 -69.826529496512649 -7.1157004362008607 7.1083859562678269 0.6018150307709319 0 -0.79863550430605224 0.39931775215302612 0 0.30090751538546595 1 I I 0 1 0.5 forward I I I I #
face $-1 $126 $127 $30 $-1 $128 reversed single #
loop $-1 $-1 $129 $50 #
plane-surface $-1 0 0 -10.85919154704145 0 0 1 1 0 0 forward_v I I I I #
coedge $-1 $130 $131 $132 $133 forward $51 $-1 #
face $-1 $134 $135 $31 $-1 $136 reversed single #
loop $-1 $-1 $137 $53 #
plane-surface $-1 -62.269884097296185 -23.06440387674558 0 0 -1 0 0 0 -1 forward_v I I I I #
coedge $-1 $138 $139 $140 $141 forward $54 $-1 #
face $-1 $142 $143 $32 $-1 $144 reversed single #
loop $-1 $-1 $145 $56 #
plane-surface $-1 -28.966770615489864 28.38537429390481 108.9421188305018 0.71933980857756763 0 0.69465836192734942 0.69465836192734942 0 -0.71933980857756763 forward_v I I I I #
coedge $-1 $146 $147 $148 $149 reversed $57 $-1 #
face $-1 $-1 $150 $33 $-1 $151 forward single #
loop $-1 $152 $153 $59 #
cone-surface $-1 68.313535132916101 23.869625357824347 4.6753956585008734 -0.71933980857756763 0 -0.69465836192734942 0.52099377144551207 0 -0.53950485643317569 1 I I -0.70710678118654757 0.70710678118654757 0.75 forward I I I I #
loop $-1 $-1 $154 $43 #
coedge $-1 $96 $96 $155 $156 reversed $60 $-1 #
face $-1 $-1 $157 $34 $-1 $158 forward single #
loop $-1 $159 $160 $62 #
cone-surface $-1 68.313535132916101 28.38537429390481 4.6753956585008734 -0.71933980857756763 0 -0.69465836192734942 0.52099377144551207 0 -0.53950485643317569 1 I I -0.70710678118654757 0.70710678118654757 0.75 forward I I I I #
loop $-1 $-1 $161 $44 #
coedge $-1 $101 $101 $162 $163 reversed $63 $-1 #
face $-1 $-1 $164 $35 $-1 $165 forward single #
loop $-1 $166 $167 $65 #
cone-surface $-1 68.313535132916101 32.901123229985281 4.6753956585008734 -0.71933980857756763 0 -0.69465836192734942 0.52099377144551207 0 -0.53950485643317569 1 I I -0.70710678118654757 0.70710678118654757 0.75 forward I I I I #
loop $-1 $-1 $168 $45 #
coedge $-1 $106 $106 $169 $170 reversed $66 $-1 #
face $-1 $171 $172 $36 $-1 $173 reversed single #
loop $-1 $-1 $174 $68 #
plane-surface $-1 -74.404126102481143 -9.4815885186717423 4.7521641322529291 -0.6018150307709319 0 0.79863550430605224 0.79863550430605224 0 0.6018150307709319 forward_v I I I I #
coedge $-1 $175 $176 $177 $178 reversed $69 $-1 #
face $-1 $-1 $179 $37 $-1 $180 forward single #
loop $-1 $181 $182 $71 #
cone-surface $-1 -69.150628605566169 -11.847476601142624 6.2114351968119426 0.6018150307709319 0 -0.79863550430605224 0.19965887607651306 0 0.15045375769273298 1 I I -0.70710678118654746 0.70710678118654746 0.25 forward I I I I #
loop $-1 $-1 $183 $47 #
coedge $-1 $115 $115 $184 $185 reversed $72 $-1 #
face $-1 $-1 $186 $38 $-1 $187 forward single #
loop $-1 $188 $189 $74 #
cone-surface $-1 -69.150628605566169 -9.4815885186717423 6.2114351968119426 0.6018150307709319 0 -0.79863550430605224 0.19965887607651306 0 0.15045375769273298 1 I I -0.70710678118654746 0.70710678118654746 0.25 forward I I I I #
loop $-1 $-1 $190 $48 #
coedge $-1 $120 $120 $191 $192 reversed $75 $-1 #
face $-1 $-1 $193 $39 $-1 $194 forward single #
loop $-1 $195 $196 $77 #
cone-surface $-1 -69.150628605566169 -7.1157004362008607 6.2114351968119426 0.6018150307709319 0 -0.79863550430605224 0.19965887607651306 0 0.15045375769273298 1 I I -0.70710678118654746 0.70710678118654746 0.25 forward I I I I #
loop $-1 $-1 $197 $49 #
coedge $-1 $125 $125 $198 $199 reversed $78 $-1 #
face $-1 $200 $201 $30 $-1 $202 reversed single #
loop $-1 $-1 $203 $80 #
plane-surface $-1 0 -35.911622520705585 0 0 1 0 0 0 1 forward_v I I I I #
coedge $-1 $204 $205 $206 $207 forward $81 $-1 #
coedge $-1 $208 $83 $209 $210 forward $51 $-1 #
coedge $-1 $83 $208 $211 $212 forward $51 $-1 #
coedge $-1 $213 $214 $83 $133 reversed $215 $-1 #
edge $-1 $216 -35.911622520705585 $217 35.911622520705585 $132 $218 forward 7 unknown #
face $-1 $219 $220 $31 $-1 $221 forward single #
loop $-1 $-1 $222 $84 #
plane-surface $-1 -59.180746179041918 -29.488013198725582 0 -1 0 0 0 0 1 forward_v I I I I #
coedge $-1 $223 $224 $225 $226 forward $85 $-1 #
coedge $-1 $227 $87 $228 $229 reversed $54 $-1 #
coedge $-1 $87 $227 $230 $231 reversed $54 $-1 #
coedge $-1 $224 $223 $87 $141 reversed $85 $-1 #
edge $-1 $232 -10.85919154704145 $233 10.85919154704145 $140 $234 forward 7 unknown #
face $-1 $235 $236 $32 $-1 $237 reversed single #
loop $-1 $-1 $148 $88 #
plane-surface $-1 74.404126102481158 0 0 -1 0 0 0 0 1 forward_v I I I I #
coedge $-1 $238 $239 $240 $241 reversed $89 $-1 #
coedge $-1 $147 $91 $242 $243 reversed $57 $-1 #
coedge $-1 $91 $146 $238 $244 reversed $57 $-1 #
coedge $-1 $240 $245 $91 $149 forward $143 $-1 #
edge $-1 $246 95.297316227194955 $247 104.25808859961462 $148 $248 forward 7 unknown #
loop $-1 $-1 $155 $92 #
plane-surface $-1 -28.966770615489864 28.38537429390481 108.9421188305018 0.71933980857756763 0 0.69465836192734942 0.69465836192734942 0 -0.71933980857756763 forward_v I I I I #
loop $-1 $-1 $249 $59 #
coedge $-1 $153 $153 $154 $250 reversed $93 $-1 #
coedge $-1 $154 $154 $153 $250 forward $95 $-1 #
coedge $-1 $155 $155 $96 $156 forward $150 $-1 #
edge $-1 $251 0 $251 6.2831853071796004 $155 $252 forward 7 unknown #
loop $-1 $-1 $162 $97 #
plane-surface $-1 -28.966770615489864 28.38537429390481 108.9421188305018 0.71933980857756763 0 0.69465836192734942 0.69465836192734942 0 -0.71933980857756763 forward_v I I I I #
loop $-1 $-1 $253 $62 #
coedge $-1 $160 $160 $161 $254 reversed $98 $-1 #
coedge $-1 $161 $161 $160 $254 forward $100 $-1 #
coedge $-1 $162 $162 $101 $163 forward $157 $-1 #
edge $-1 $255 0 $255 6.2831853071796004 $162 $256 forward 7 unknown #
loop $-1 $-1 $169 $102 #
plane-surface $-1 -28.966770615489864 28.38537429390481 108.9421188305018 0.71933980857756763 0 0.69465836192734942 0.69465836192734942 0 -0.71933980857756763 forward_v I I I I #
loop $-1 $-1 $257 $65 #
coedge $-1 $167 $167 $168 $258 reversed $103 $-1 #
coedge $-1 $168 $168 $167 $258 forward $105 $-1 #
coedge $-1 $169 $169 $106 $170 forward $164 $-1 #
edge $-1 $259 0 $259 6.2831853071796004 $169 $260 forward 7 unknown #
face $-1 $261 $262 $36 $-1 $263 reversed single #
loop $-1 $-1 $264 $107 #
plane-surface $-1 -163.95916898217914 -5.5384417145536045 123.59571767686522 0 -1 0 0.6018150307709319 0 -0.79863550430605224 forward_v I I I I #
coedge $-1 $265 $266 $267 $268 reversed $108 $-1 #
coedge $-1 $176 $110 $269 $270 reversed $69 $-1 #
coedge $-1 $110 $175 $265 $271 reversed $69 $-1 #
coedge $-1 $267 $272 $110 $178 forward $273 $-1 #
edge $-1 $274 7.5754583886084106 $275 15.679757334037973 $177 $276 forward 7 unknown #
loop $-1 $-1 $184 $111 #
plane-surface $-1 -74.404126102481143 -9.4815885186717423 4.7521641322529291 -0.6018150307709319 0 0.79863550430605224 0.79863550430605224 0 0.6018150307709319 forward_v I I I I #
loop $-1 $-1 $277 $71 #
coedge $-1 $182 $182 $183 $278 reversed $112 $-1 #
coedge $-1 $183 $183 $182 $278 forward $114 $-1 #
coedge $-1 $184 $184 $115 $185 forward $179 $-1 #
edge $-1 $279 0 $279 6.2831853071796004 $184 $280 forward 7 unknown #
loop $-1 $-1 $191 $116 #
plane-surface $-1 -74.404126102481143 -9.4815885186717423 4.7521641322529291 -0.6018150307709319 0 0.79863550430605224 0.79863550430605224 0 0.6018150307709319 forward_v I I I I #
loop $-1 $-1 $281 $74 #
coedge $-1 $189 $189 $190 $282 reversed $117 $-1 #
coedge $-1 $190 $190 $189 $282 forward $119 $-1 #
coedge $-1 $191 $191 $120 $192 forward $186 $-1 #
edge $-1 $283 0 $283 6.2831853071796004 $191 $284 forward 7 unknown #
loop $-1 $-1 $198 $121 #
plane-surface $-1 -74.404126102481143 -9.4815885186717423 4.7521641322529291 -0.6018150307709319 0 0.79863550430605224 0.79863550430605224 0 0.6018150307709319 forward_v I I I I #
loop $-1 $-1 $285 $77 #
coedge $-1 $196 $196 $197 $286 reversed $122 $-1 #
coedge $-1 $197 $197 $196 $286 forward $124 $-1 #
coedge $-1 $198 $198 $125 $199 forward $193 $-1 #
edge $-1 $287 0 $287 6.2831853071796004 $198 $288 forward 7 unknown #
face $-1 $289 $290 $30 $-1 $291 reversed single #
loop $-1 $-1 $292 $126 #
plane-surface $-1 -74.404126102481158 0 0 1 0 0 0 0 -1 forward_v I I I I #
coedge $-1 $293 $211 $294 $295 forward $127 $-1 #
coedge $-1 $296 $129 $293 $297 forward $81 $-1 #
coedge $-1 $129 $296 $298 $299 forward $81 $-1 #
coedge $-1 $214 $213 $129 $207 reversed $215 $-1 #
edge $-1 $300 -35.911622520705585 $301 35.911622520705585 $206 $302 forward 7 unknown #
coedge $-1 $131 $130 $303 $304 forward $51 $-1 #
coedge $-1 $305 $306 $130 $210 reversed $290 $-1 #
edge $-1 $217 -74.404126102481158 $307 74.404126102481158 $209 $308 forward 7 unknown #
coedge $-1 $203 $309 $131 $212 reversed $127 $-1 #
edge $-1 $310 -74.404126102481158 $216 74.404126102481158 $211 $311 forward 7 unknown #
coedge $-1 $206 $132 $309 $312 forward $215 $-1 #
coedge $-1 $132 $206 $305 $313 reversed $215 $-1 #
loop $-1 $-1 $213 $289 #
vertex $-1 $133 $314 #
vertex $-1 $133 $315 #
straight-curve $-1 74.404126102481158 0 10.85919154704145 0 1 0 I I #
face $-1 $316 $317 $31 $-1 $318 reversed single #
loop $-1 $-1 $319 $134 #
plane-surface $-1 0 0 10.85919154704145 0 0 1 1 0 0 forward_v I I I I #
coedge $-1 $320 $321 $322 $323 reversed $135 $-1 #
coedge $-1 $140 $137 $324 $325 reversed $85 $-1 #
coedge $-1 $137 $140 $326 $327 reversed $85 $-1 #
coedge $-1 $321 $320 $137 $226 reversed $135 $-1 #
edge $-1 $328 -10.85919154704145 $329 10.85919154704145 $225 $330 forward 7 unknown #
coedge $-1 $139 $138 $331 $332 reversed $54 $-1 #
coedge $-1 $324 $333 $138 $229 forward $317 $-1 #
edge $-1 $334 -21.167615921342794 $233 -8.3203972773827886 $228 $335 forward 7 unknown #
coedge $-1 $336 $326 $139 $231 forward $220 $-1 #
edge $-1 $232 8.3203972773827886 $337 21.167615921342794 $230 $338 forward 7 unknown #
vertex $-1 $231 $339 #
vertex $-1 $229 $340 #
straight-curve $-1 -65.359022015550451 -23.06440387674558 0 0 0 -1 I I #
face $-1 $-1 $341 $32 $-1 $342 forward single #
loop $-1 $-1 $343 $142 #
plane-surface $-1 0 35.911622520705585 0 0 -1 0 0 0 -1 forward_v I I I I #
coedge $-1 $344 $145 $147 $244 forward $89 $-1 #
coedge $-1 $145 $344 $343 $345 reversed $89 $-1 #
coedge $-1 $346 $148 $145 $241 forward $143 $-1 #
edge $-1 $247 6.6664389201516236 $347 21.71893537375318 $240 $348 forward 7 unknown #
coedge $-1 $349 $350 $146 $243 forward $341 $-1 #
edge $-1 $351 26.712344494027555 $246 35.365661582286087 $242 $352 forward 7 unknown #
edge $-1 $247 -148.80825220496234 $351 -136.35131284811121 $147 $353 forward 7 unknown #
coedge $-1 $148 $346 $349 $354 reversed $143 $-1 #
vertex $-1 $354 $355 #
vertex $-1 $149 $356 #
straight-curve $-1 74.404126102481158 20.859126067104029 106.1565077742364 0 0 -1 I I #
coedge $-1 $249 $249 $-1 $357 reversed $152 $-1 #
edge $-1 $358 0 $358 6.2831853071796004 $153 $359 forward 7 unknown #
vertex $-1 $156 $360 #
ellipse-curve $-1 70.077467558351884 23.869625357824347 6.3788053608316027 0.71933980857756763 0 0.69465836192734942 1.0419875428910241 0 -1.0790097128663514 1 I I #
coedge $-1 $253 $253 $-1 $361 reversed $159 $-1 #
edge $-1 $362 0 $362 6.2831853071796004 $160 $363 forward 7 unknown #
vertex $-1 $163 $364 #
ellipse-curve $-1 70.077467558351884 28.38537429390481 6.3788053608316027 0.71933980857756763 0 0.69465836192734942 1.0419875428910241 0 -1.0790097128663514 1 I I #
coedge $-1 $257 $257 $-1 $365 reversed $166 $-1 #
edge $-1 $366 0 $366 6.2831853071796004 $167 $367 forward 7 unknown #
vertex $-1 $170 $368 #
ellipse-curve $-1 70.077467558351884 32.901123229985281 6.3788053608316027 0.71933980857756763 0 0.69465836192734942 1.0419875428910241 0 -1.0790097128663514 1 I I #
face $-1 $-1 $273 $36 $-1 $369 forward single #
loop $-1 $-1 $370 $171 #
plane-surface $-1 -74.404126102481158 0 0 1 0 0 0 0 -1 forward_v I I I I #
coedge $-1 $371 $372 $373 $374 reversed $172 $-1 #
coedge $-1 $375 $174 $176 $271 forward $108 $-1 #
coedge $-1 $174 $375 $371 $376 forward $108 $-1 #
coedge $-1 $373 $177 $174 $268 forward $273 $-1 #
edge $-1 $275 -8.6839410634540091 $377 -0.79764745521773328 $267 $378 forward 7 unknown #
coedge $-1 $379 $380 $175 $270 forward $262 $-1 #
edge $-1 $381 -57.045694706179688 $274 -50.938667291391162 $269 $382 forward 7 unknown #
edge $-1 $275 -10.147681766880012 $381 1.7763522597878294e-014 $176 $383 forward 7 unknown #
coedge $-1 $177 $373 $379 $384 forward $273 $-1 #
loop $-1 $-1 $373 $261 #
vertex $-1 $270 $385 #
vertex $-1 $178 $386 #
straight-curve $-1 -81.979584491089568 -13.42473532278988 10.859191547041448 1 0 0 I I #
coedge $-1 $277 $277 $-1 $387 reversed $181 $-1 #
edge $-1 $388 0 $388 6.2831853071796004 $182 $389 forward 7 unknown #
vertex $-1 $185 $390 #
ellipse-curve $-1 -70.351976629766384 -11.847476601142624 7.8056778396471778 -0.6018150307709319 0 0.79863550430605224 0.39931775215302612 0 0.30090751538546595 1 I I #
coedge $-1 $281 $281 $-1 $391 reversed $188 $-1 #
edge $-1 $392 0 $392 6.2831853071796004 $189 $393 forward 7 unknown #
vertex $-1 $192 $394 #
ellipse-curve $-1 -70.351976629766384 -9.4815885186717423 7.8056778396471778 -0.6018150307709319 0 0.79863550430605224 0.39931775215302612 0 0.30090751538546595 1 I I #
coedge $-1 $285 $285 $-1 $395 reversed $195 $-1 #
edge $-1 $396 0 $396 6.2831853071796004 $196 $397 forward 7 unknown #
vertex $-1 $199 $398 #
ellipse-curve $-1 -70.351976629766384 -7.1157004362008607 7.8056778396471778 -0.6018150307709319 0 0.79863550430605224 0.39931775215302612 0 0.30090751538546595 1 I I #
face $-1 $-1 $215 $30 $-1 $399 reversed single #
loop $-1 $-1 $305 $200 #
plane-surface $-1 0 35.911622520705585 0 0 -1 0 0 0 -1 forward_v I I I I #
coedge $-1 $400 $303 $306 $401 forward $201 $-1 #
coedge $-1 $309 $203 $204 $297 reversed $127 $-1 #
coedge $-1 $303 $400 $203 $295 reversed $201 $-1 #
edge $-1 $310 -10.85919154704145 $402 10.85919154704145 $294 $403 forward 7 unknown #
coedge $-1 $205 $204 $400 $404 forward $81 $-1 #
edge $-1 $301 -74.404126102481158 $402 74.404126102481158 $293 $405 forward 7 unknown #
coedge $-1 $306 $305 $205 $299 reversed $290 $-1 #
edge $-1 $406 -74.404126102481158 $300 74.404126102481158 $298 $407 forward 7 unknown #
vertex $-1 $207 $408 #
vertex $-1 $312 $409 #
straight-curve $-1 74.404126102481158 0 -10.85919154704145 0 -1 0 I I #
coedge $-1 $292 $294 $208 $304 reversed $201 $-1 #
edge $-1 $307 -35.911622520705585 $310 35.911622520705585 $303 $410 forward 7 unknown #
coedge $-1 $298 $209 $214 $313 forward $290 $-1 #
coedge $-1 $209 $298 $292 $401 reversed $290 $-1 #
vertex $-1 $210 $411 #
straight-curve $-1 0 35.911622520705585 10.85919154704145 -1 0 0 I I #
coedge $-1 $211 $293 $213 $312 reversed $127 $-1 #
vertex $-1 $304 $412 #
straight-curve $-1 0 -35.911622520705585 10.85919154704145 1 0 0 I I #
edge $-1 $216 -10.85919154704145 $301 10.85919154704145 $213 $413 forward 7 unknown #
edge $-1 $217 -10.85919154704145 $300 10.85919154704145 $214 $414 forward 7 unknown #
point $-1 74.404126102481158 -35.911622520705585 10.85919154704145 #
point $-1 74.404126102481158 35.911622520705585 10.85919154704145 #
face $-1 $-1 $415 $31 $-1 $416 reversed single #
loop $-1 $-1 $417 $219 #
plane-surface $-1 0 0 -10.85919154704145 0 0 1 1 0 0 forward_v I I I I #
coedge $-1 $326 $336 $321 $418 forward $220 $-1 #
coedge $-1 $225 $222 $417 $419 reversed $135 $-1 #
coedge $-1 $222 $225 $319 $418 reversed $135 $-1 #
coedge $-1 $420 $421 $222 $323 forward $415 $-1 #
edge $-1 $422 -10.85919154704145 $423 10.85919154704145 $322 $424 forward 7 unknown #
coedge $-1 $417 $228 $223 $325 forward $317 $-1 #
edge $-1 $233 -34.224079966902359 $329 -28.045804130393826 $324 $425 forward 7 unknown #
coedge $-1 $230 $319 $224 $327 forward $220 $-1 #
edge $-1 $328 28.045804130393826 $232 34.224079966902359 $326 $426 forward 7 unknown #
vertex $-1 $327 $427 #
vertex $-1 $325 $428 #
straight-curve $-1 -59.180746179041918 -23.06440387674558 0 0 0 -1 I I #
coedge $-1 $421 $420 $227 $332 forward $415 $-1 #
edge $-1 $337 -10.85919154704145 $334 10.85919154704145 $331 $429 forward 7 unknown #
coedge $-1 $228 $417 $421 $430 forward $317 $-1 #
vertex $-1 $229 $431 #
straight-curve $-1 -65.359022015550451 -14.744006599362791 -10.85919154704145 0 1 0 I I #
coedge $-1 $319 $230 $420 $432 forward $220 $-1 #
vertex $-1 $432 $433 #
straight-curve $-1 -65.359022015550451 -14.744006599362791 10.85919154704145 0 -1 0 I I #
point $-1 -65.359022015550451 -23.06440387674558 10.85919154704145 #
point $-1 -65.359022015550451 -23.06440387674558 -10.85919154704145 #
loop $-1 $-1 $242 $235 #
plane-surface $-1 0 0 10.85919154704145 0 0 1 1 0 0 forward_v I I I I #
coedge $-1 $434 $435 $239 $345 forward $236 $-1 #
coedge $-1 $239 $238 $350 $436 reversed $89 $-1 #
edge $-1 $347 -99.564046039137708 $437 -87.10710668228657 $343 $438 forward 7 unknown #
coedge $-1 $245 $240 $435 $439 reversed $143 $-1 #
vertex $-1 $345 $440 #
straight-curve $-1 74.404126102481158 14.192687146952405 1.8984191746217789 0 1 0 I I #
coedge $-1 $441 $242 $245 $354 forward $341 $-1 #
coedge $-1 $242 $441 $344 $436 forward $341 $-1 #
vertex $-1 $243 $442 #
straight-curve $-1 39.03846452019507 20.859126067104029 10.859191547041448 1 0 0 I I #
straight-curve $-1 -28.966770615489864 20.859126067104029 108.9421188305018 -0.69465836192734942 0 0.71933980857756763 I I #
edge $-1 $246 20.859126067104029 $443 35.911622520705585 $245 $444 forward 7 unknown #
point $-1 74.404126102481158 20.859126067104029 10.85919154704145 #
point $-1 74.404126102481158 20.859126067104029 1.8984191746217789 #
edge $-1 $445 1 $445 0 $249 $-1 forward 7 unknown #
vertex $-1 $250 $446 #
ellipse-curve $-1 68.85303998934927 23.869625357824347 5.1963894299463851 0.71933980857756763 0 0.69465836192734942 1.0419875428910241 0 -1.0790097128663514 1 I I #
point $-1 71.119455101242949 23.869625357824347 5.2997956479652828 #
edge $-1 $447 1 $447 0 $253 $-1 forward 7 unknown #
vertex $-1 $254 $448 #
ellipse-curve $-1 68.85303998934927 28.38537429390481 5.1963894299463851 0.71933980857756763 0 0.69465836192734942 1.0419875428910241 0 -1.0790097128663514 1 I I #
point $-1 71.119455101242949 28.38537429390481 5.2997956479652828 #
edge $-1 $449 1 $449 0 $257 $-1 forward 7 unknown #
vertex $-1 $258 $450 #
ellipse-curve $-1 68.85303998934927 32.901123229985281 5.1963894299463851 0.71933980857756763 0 0.69465836192734942 1.0419875428910241 0 -1.0790097128663514 1 I I #
point $-1 71.119455101242949 32.901123229985281 5.2997956479652828 #
plane-surface $-1 0 0 10.85919154704145 0 0 1 1 0 0 forward_v I I I I #
coedge $-1 $380 $379 $372 $451 forward $262 $-1 #
coedge $-1 $372 $264 $266 $376 reversed $172 $-1 #
coedge $-1 $264 $371 $370 $451 reversed $172 $-1 #
coedge $-1 $272 $267 $264 $374 forward $273 $-1 #
edge $-1 $377 -15.679757334037973 $452 -7.5754583886084106 $373 $453 forward 7 unknown #
coedge $-1 $266 $265 $380 $454 reversed $108 $-1 #
edge $-1 $455 -1.7763522597878294e-014 $377 10.147681766880012 $371 $456 forward 7 unknown #
vertex $-1 $268 $457 #
straight-curve $-1 -66.299827157051595 -4.7407942593358712 10.85919154704145 0 1 0 I I #
coedge $-1 $370 $269 $272 $384 reversed $262 $-1 #
coedge $-1 $269 $370 $375 $454 forward $262 $-1 #
vertex $-1 $270 $458 #
straight-curve $-1 -74.404126102481158 -13.42473532278988 61.79785883843261 0 0 1 I I #
straight-curve $-1 -74.404126102481143 -13.42473532278988 4.7521641322529291 -0.79863550430605224 0 -0.6018150307709319 I I #
edge $-1 $452 5.5384417145536045 $274 13.42473532278988 $379 $459 forward 7 unknown #
point $-1 -74.404126102481158 -13.42473532278988 10.85919154704145 #
point $-1 -66.299827157051595 -13.42473532278988 10.85919154704145 #
edge $-1 $460 1 $460 0 $277 $-1 forward 7 unknown #
vertex $-1 $278 $461 #
ellipse-curve $-1 -69.301082363258899 -11.847476601142624 6.4110940728884556 -0.6018150307709319 0 0.79863550430605224 0.39931775215302612 0 0.30090751538546595 1 I I #
point $-1 -69.952658877613374 -11.847476601142624 8.1065853550326636 #
edge $-1 $462 1 $462 0 $281 $-1 forward 7 unknown #
vertex $-1 $282 $463 #
ellipse-curve $-1 -69.301082363258899 -9.4815885186717423 6.4110940728884556 -0.6018150307709319 0 0.79863550430605224 0.39931775215302612 0 0.30090751538546595 1 I I #
point $-1 -69.952658877613374 -9.4815885186717423 8.1065853550326636 #
edge $-1 $464 1 $464 0 $285 $-1 forward 7 unknown #
vertex $-1 $286 $465 #
ellipse-curve $-1 -69.301082363258899 -7.1157004362008607 6.4110940728884556 -0.6018150307709319 0 0.79863550430605224 0.39931775215302612 0 0.30090751538546595 1 I I #
point $-1 -69.952658877613374 -7.1157004362008607 8.1065853550326636 #
plane-surface $-1 74.404126102481158 0 0 -1 0 0 0 0 1 forward_v I I I I #
coedge $-1 $294 $292 $296 $404 reversed $201 $-1 #
edge $-1 $307 -10.85919154704145 $406 10.85919154704145 $306 $466 forward 7 unknown #
vertex $-1 $404 $467 #
straight-curve $-1 -74.404126102481158 -35.911622520705585 0 0 0 -1 I I #
edge $-1 $402 -35.911622520705585 $406 35.911622520705585 $400 $468 forward 7 unknown #
straight-curve $-1 0 -35.911622520705585 -10.85919154704145 -1 0 0 I I #
vertex $-1 $299 $469 #
straight-curve $-1 0 35.911622520705585 -10.85919154704145 1 0 0 I I #
point $-1 74.404126102481158 35.911622520705585 -10.85919154704145 #
point $-1 74.404126102481158 -35.911622520705585 -10.85919154704145 #
straight-curve $-1 -74.404126102481158 0 10.85919154704145 0 -1 0 I I #
point $-1 -74.404126102481158 35.911622520705585 10.85919154704145 #
point $-1 -74.404126102481158 -35.911622520705585 10.85919154704145 #
straight-curve $-1 74.404126102481158 -35.911622520705585 0 0 0 -1 I I #
straight-curve $-1 74.404126102481158 35.911622520705585 0 0 0 -1 I I #
loop $-1 $-1 $322 $316 #
plane-surface $-1 0 -35.911622520705585 0 0 1 0 0 0 1 forward_v I I I I #
coedge $-1 $333 $324 $320 $419 forward $317 $-1 #
edge $-1 $423 -21.167615921342794 $328 -8.3203972773827886 $319 $470 forward 7 unknown #
edge $-1 $329 8.3203972773827886 $422 21.167615921342794 $417 $471 forward 7 unknown #
coedge $-1 $331 $322 $336 $432 reversed $415 $-1 #
coedge $-1 $322 $331 $333 $430 reversed $415 $-1 #
vertex $-1 $430 $472 #
vertex $-1 $323 $473 #
straight-curve $-1 -59.180746179041918 -35.911622520705585 0 0 0 1 I I #
straight-curve $-1 -31.134942048648092 -23.06440387674558 -10.85919154704145 1 0 0 I I #
straight-curve $-1 -31.134942048648092 -23.06440387674558 10.85919154704145 -1 0 0 I I #
point $-1 -59.180746179041918 -23.06440387674558 10.85919154704145 #
point $-1 -59.180746179041918 -23.06440387674558 -10.85919154704145 #
straight-curve $-1 -65.359022015550451 -35.911622520705585 0 0 0 -1 I I #
edge $-1 $422 59.180746179041918 $334 65.359022015550451 $421 $474 forward 7 unknown #
point $-1 -65.359022015550451 -35.911622520705585 -10.85919154704145 #
edge $-1 $337 -65.359022015550451 $423 -59.180746179041918 $420 $475 forward 7 unknown #
point $-1 -65.359022015550451 -35.911622520705585 10.85919154704145 #
coedge $-1 $435 $343 $441 $476 reversed $236 $-1 #
coedge $-1 $343 $434 $346 $439 forward $236 $-1 #
edge $-1 $437 -21.718935373753187 $351 -6.6664389201516236 $350 $477 forward 7 unknown #
vertex $-1 $345 $478 #
straight-curve $-1 5.2411289740745524 35.911622520705585 73.518800993623231 -0.69465836192734942 0 0.71933980857756763 I I #
edge $-1 $443 -10.85919154704145 $347 -1.8984191746217767 $346 $479 forward 7 unknown #
point $-1 74.404126102481158 35.911622520705585 1.8984191746217767 #
coedge $-1 $350 $349 $434 $476 forward $341 $-1 #
point $-1 65.750809014222625 20.859126067104029 10.859191547041448 #
vertex $-1 $354 $480 #
straight-curve $-1 74.404126102481158 0 10.85919154704145 0 1 0 I I #
vertex $-1 $357 $481 #
point $-1 69.895027532240306 23.869625357824347 4.1173797170800341 #
vertex $-1 $361 $482 #
point $-1 69.895027532240306 28.38537429390481 4.1173797170800341 #
vertex $-1 $365 $483 #
point $-1 69.895027532240306 32.901123229985281 4.1173797170800341 #
edge $-1 $452 50.938667291391162 $455 57.045694706179688 $370 $484 forward 7 unknown #
vertex $-1 $384 $485 #
straight-curve $-1 -81.979584491089568 -5.5384417145536045 10.859191547041448 -1 0 0 I I #
edge $-1 $455 0.79764745521773328 $381 8.6839410634540091 $380 $486 forward 7 unknown #
vertex $-1 $454 $487 #
straight-curve $-1 -74.404126102481143 -5.5384417145536045 4.7521641322529291 0.79863550430605224 0 0.6018150307709319 I I #
point $-1 -66.299827157051595 -5.5384417145536045 10.85919154704145 #
point $-1 -74.404126102481158 -13.42473532278988 4.7521641322529184 #
straight-curve $-1 -74.404126102481158 0 10.85919154704145 0 -1 0 I I #
vertex $-1 $387 $488 #
point $-1 -68.901764611105875 -11.847476601142624 6.7120015882739219 #
vertex $-1 $391 $489 #
point $-1 -68.901764611105875 -9.4815885186717423 6.7120015882739219 #
vertex $-1 $395 $490 #
point $-1 -68.901764611105875 -7.1157004362008607 6.7120015882739219 #
straight-curve $-1 -74.404126102481158 35.911622520705585 0 0 0 -1 I I #
point $-1 -74.404126102481158 -35.911622520705585 -10.85919154704145 #
straight-curve $-1 -74.404126102481158 0 -10.85919154704145 0 1 0 I I #
point $-1 -74.404126102481158 35.911622520705585 -10.85919154704145 #
straight-curve $-1 -59.180746179041918 -14.744006599362791 10.85919154704145 0 1 0 I I #
straight-curve $-1 -59.180746179041918 -14.744006599362791 -10.85919154704145 0 -1 0 I I #
point $-1 -59.180746179041918 -35.911622520705585 -10.85919154704145 #
point $-1 -59.180746179041918 -35.911622520705585 10.85919154704145 #
straight-curve $-1 0 -35.911622520705585 -10.85919154704145 -1 0 0 I I #
straight-curve $-1 0 -35.911622520705585 10.85919154704145 1 0 0 I I #
edge $-1 $443 -74.404126102481158 $437 -65.750809014222625 $434 $491 forward 7 unknown #
straight-curve $-1 65.750809014222611 14.192687146952405 10.859191547041462 0 -1 0 I I #
point $-1 65.750809014222625 35.911622520705592 10.859191547041448 #
straight-curve $-1 74.404126102481158 35.911622520705585 0 0 0 -1 I I #
point $-1 74.404126102481158 35.911622520705585 10.85919154704145 #
point $-1 67.774030276482932 23.869625357824347 4.1544018870553616 #
point $-1 67.774030276482932 28.38537429390481 4.1544018870553616 #
point $-1 67.774030276482932 32.901123229985281 4.1544018870553616 #
straight-curve $-1 -74.404126102481158 -5.5384417145536045 61.79785883843261 0 0 -1 I I #
point $-1 -74.404126102481158 -5.5384417145536045 10.85919154704145 #
straight-curve $-1 -74.404126102481158 -4.7407942593358712 4.752164132252914 0 -1 0 I I #
point $-1 -74.404126102481158 -5.5384417145536045 4.7521641322529184 #
point $-1 -69.000174847873438 -11.847476601142624 6.0117763207354296 #
point $-1 -69.000174847873438 -9.4815885186717423 6.0117763207354296 #
point $-1 -69.000174847873438 -7.1157004362008607 6.0117763207354296 #
straight-curve $-1 0 35.911622520705585 10.85919154704145 -1 0 0 I I #
End-of-ACIS-data 