500 0 9 0           
7 Unknown 11 ACIS 5.0 NT 24 Thu Mar 25 16:13:35 1999 
-1 9.9999999999999995e-007 1e-010 
body $-1 $9 $-1 $10 #
body $-1 $11 $-1 $12 #
body $-1 $13 $-1 $14 #
body $-1 $15 $-1 $16 #
body $-1 $17 $-1 $18 #
body $-1 $19 $-1 $20 #
body $-1 $21 $-1 $22 #
body $-1 $23 $-1 $24 #
body $-1 $25 $-1 $26 #
lump $-1 $-1 $27 $0 #
transform $-1 1 0 0 0 1 0 0 0 1 42.50373851741081 22.407500858948371 11.048039258308606 1 rotate no_reflect no_shear #
lump $-1 $-1 $28 $1 #
transform $-1 1 0 0 0 1 0 0 0 1 42.50373851741081 22.407500858948371 11.048039258308606 1 rotate no_reflect no_shear #
lump $-1 $-1 $29 $2 #
transform $-1 1 0 0 0 1 0 0 0 1 42.50373851741081 22.407500858948371 11.048039258308606 1 rotate no_reflect no_shear #
lump $-1 $-1 $30 $3 #
transform $-1 1 0 0 0 1 0 0 0 1 42.50373851741081 22.407500858948371 11.048039258308606 1 rotate no_reflect no_shear #
lump $-1 $-1 $31 $4 #
transform $-1 1 0 0 0 1 0 0 0 1 42.50373851741081 22.407500858948371 11.048039258308606 1 rotate no_reflect no_shear #
lump $-1 $-1 $32 $5 #
transform $-1 1 0 0 0 1 0 0 0 1 42.50373851741081 22.407500858948371 11.048039258308606 1 rotate no_reflect no_shear #
lump $-1 $-1 $33 $6 #
transform $-1 1 0 0 0 1 0 0 0 1 42.50373851741081 22.407500858948371 11.048039258308606 1 rotate no_reflect no_shear #
lump $-1 $-1 $34 $7 #
transform $-1 1 0 0 0 1 0 0 0 1 42.50373851741081 22.407500858948371 11.048039258308606 1 rotate no_reflect no_shear #
lump $-1 $-1 $35 $8 #
transform $-1 1 0 0 0 1 0 0 0 1 42.50373851741081 22.407500858948371 11.048039258308606 1 rotate no_reflect no_shear #
shell $-1 $-1 $-1 $36 $-1 $9 #
shell $-1 $-1 $-1 $37 $-1 $11 #
shell $-1 $-1 $-1 $38 $-1 $13 #
shell $-1 $-1 $-1 $39 $-1 $15 #
shell $-1 $-1 $-1 $40 $-1 $17 #
shell $-1 $-1 $-1 $41 $-1 $19 #
shell $-1 $-1 $-1 $42 $-1 $21 #
shell $-1 $-1 $-1 $43 $-1 $23 #
shell $-1 $-1 $-1 $44 $-1 $25 #
face $-1 $45 $46 $27 $-1 $47 forward single #
face $-1 $48 $49 $28 $-1 $50 forward single #
face $-1 $51 $52 $29 $-1 $53 reversed single #
face $-1 $54 $55 $30 $-1 $56 reversed single #
face $-1 $57 $58 $31 $-1 $59 forward single #
face $-1 $60 $61 $32 $-1 $62 forward single #
face $-1 $63 $64 $33 $-1 $65 reversed single #
face $-1 $66 $67 $34 $-1 $68 forward single #
face $-1 $69 $70 $35 $-1 $71 forward single #
face $-1 $72 $73 $27 $-1 $74 reversed single #
loop $-1 $-1 $75 $36 #
plane-surface $-1 0 0 11.048039258308606 0 0 1 1 0 0 forward_v I I I I #
face $-1 $76 $77 $28 $-1 $78 reversed single #
loop $-1 $-1 $79 $37 #
plane-surface $-1 -42.50373851741081 0 0 1 0 0 0 0 -1 forward_v I I I I #
face $-1 $80 $81 $29 $-1 $82 reversed single #
loop $-1 $-1 $83 $38 #
plane-surface $-1 35.553619220672445 0 5.8798348038511961 0 0 1 1 0 0 forward_v I I I I #
face $-1 $84 $85 $30 $-1 $86 reversed single #
loop $-1 $-1 $87 $39 #
plane-surface $-1 -13.207526396092504 72.191699526892336 86.414709473967193 1 0 0 0 -0.85716730853699208 -0.51503806187062418 forward_v I I I I #
face $-1 $88 $89 $31 $-1 $90 forward single #
loop $-1 $91 $92 $40 #
cone-surface $-1 -9.9609985629868234 19.561026408023594 7.1558353227095468 0 -0.85716730853699208 -0.51503806187062418 1 0 0 1 I I 0 1 1 forward I I I I #
face $-1 $93 $94 $32 $-1 $95 forward single #
loop $-1 $96 $97 $41 #
cone-surface $-1 -5.0912068133282986 19.561026408023594 7.1558353227095468 0 -0.85716730853699208 -0.51503806187062418 1 0 0 1 I I 0 1 1 forward I I I I #
face $-1 $98 $99 $33 $-1 $100 reversed single #
loop $-1 $-1 $101 $42 #
plane-surface $-1 -7.5261026881575575 -0.67393076856588152 42.632623257441075 0 0.85716730853699208 0.51503806187062418 1 0 0 forward_v I I I I #
face $-1 $102 $103 $34 $-1 $104 forward single #
loop $-1 $105 $106 $43 #
cone-surface $-1 1.4018488528830702 19.561026408023594 7.1558353227095468 0 -0.85716730853699208 -0.51503806187062418 1 0 0 1 I I 0 1 1 forward I I I I #
face $-1 $107 $108 $35 $-1 $109 forward single #
loop $-1 $110 $111 $44 #
cone-surface $-1 6.2716406025415949 19.561026408023594 7.1558353227095468 0 -0.85716730853699208 -0.51503806187062418 1 0 0 1 I I 0 1 1 forward I I I I #
face $-1 $112 $113 $27 $-1 $114 reversed single #
loop $-1 $-1 $115 $45 #
plane-surface $-1 0 0 -11.048039258308606 0 0 1 1 0 0 forward_v I I I I #
coedge $-1 $116 $117 $118 $119 forward $46 $-1 #
face $-1 $120 $121 $28 $-1 $122 reversed single #
loop $-1 $-1 $123 $48 #
plane-surface $-1 0 0 -11.048039258308606 0 0 1 1 0 0 forward_v I I I I #
coedge $-1 $124 $125 $126 $127 forward $49 $-1 #
face $-1 $128 $129 $29 $-1 $130 reversed single #
loop $-1 $-1 $131 $51 #
plane-surface $-1 28.603499923934073 0 8.4639370310799009 1 0 0 0 0 -1 forward_v I I I I #
coedge $-1 $132 $133 $134 $135 reversed $52 $-1 #
face $-1 $136 $137 $30 $-1 $138 reversed single #
loop $-1 $-1 $139 $54 #
plane-surface $-1 -7.5261026881575575 -0.67393076856588152 42.632623257441075 0 0.85716730853699208 0.51503806187062418 1 0 0 forward_v I I I I #
coedge $-1 $140 $141 $142 $143 reversed $55 $-1 #
face $-1 $-1 $144 $31 $-1 $145 forward single #
loop $-1 $146 $147 $57 #
cone-surface $-1 -9.9609985629868234 18.337718096833381 6.4207975589140531 0 -0.85716730853699208 -0.51503806187062418 0.5 0 0 1 I I -0.70710678118654746 0.70710678118654746 0.5 forward I I I I #
loop $-1 $-1 $148 $40 #
coedge $-1 $92 $92 $149 $150 reversed $58 $-1 #
face $-1 $-1 $151 $32 $-1 $152 forward single #
loop $-1 $153 $154 $60 #
cone-surface $-1 -5.0912068133282986 18.337718096833381 6.4207975589140531 0 -0.85716730853699208 -0.51503806187062418 0.5 0 0 1 I I -0.70710678118654746 0.70710678118654746 0.5 forward I I I I #
loop $-1 $-1 $155 $41 #
coedge $-1 $97 $97 $156 $157 reversed $61 $-1 #
face $-1 $158 $159 $33 $-1 $160 forward single #
loop $-1 $-1 $161 $63 #
plane-surface $-1 9.5181684356472829 72.191699526892336 86.414709473967193 -1 0 0 0 0.85716730853699208 0.51503806187062418 forward_v I I I I #
coedge $-1 $162 $163 $164 $165 reversed $64 $-1 #
face $-1 $-1 $166 $34 $-1 $167 forward single #
loop $-1 $168 $169 $66 #
cone-surface $-1 1.4018488528830702 18.337718096833381 6.4207975589140531 0 -0.85716730853699208 -0.51503806187062418 0.5 0 0 1 I I -0.70710678118654746 0.70710678118654746 0.5 forward I I I I #
loop $-1 $-1 $170 $43 #
coedge $-1 $106 $106 $171 $172 reversed $67 $-1 #
face $-1 $-1 $173 $35 $-1 $174 forward single #
loop $-1 $175 $176 $69 #
cone-surface $-1 6.2716406025415949 18.337718096833381 6.4207975589140531 0 -0.85716730853699208 -0.51503806187062418 0.5 0 0 1 I I -0.70710678118654746 0.70710678118654746 0.5 forward I I I I #
loop $-1 $-1 $177 $44 #
coedge $-1 $111 $111 $178 $179 reversed $70 $-1 #
face $-1 $180 $181 $27 $-1 $182 reversed single #
loop $-1 $-1 $183 $72 #
plane-surface $-1 0 -22.407500858948371 0 0 1 0 0 0 1 forward_v I I I I #
coedge $-1 $184 $185 $186 $187 forward $73 $-1 #
coedge $-1 $188 $75 $189 $190 forward $46 $-1 #
coedge $-1 $75 $188 $191 $192 forward $46 $-1 #
coedge $-1 $193 $194 $75 $119 reversed $195 $-1 #
edge $-1 $196 -22.407500858948371 $197 22.407500858948371 $118 $198 forward 7 unknown #
face $-1 $199 $200 $28 $-1 $201 reversed single #
loop $-1 $-1 $202 $76 #
plane-surface $-1 -47.60917883392657 -10.398911217460057 0 0 1 0 0 0 1 forward_v I I I I #
coedge $-1 $203 $204 $125 $205 forward $77 $-1 #
coedge $-1 $206 $79 $207 $208 reversed $49 $-1 #
coedge $-1 $79 $206 $123 $205 reversed $49 $-1 #
coedge $-1 $209 $210 $79 $127 reversed $211 $-1 #
edge $-1 $212 -11.048039258308606 $213 11.048039258308606 $126 $214 forward 7 unknown #
face $-1 $215 $216 $29 $-1 $217 forward single #
loop $-1 $-1 $218 $80 #
plane-surface $-1 0 22.407500858948371 0 0 -1 0 0 0 -1 forward_v I I I I #
coedge $-1 $219 $220 $221 $222 reversed $81 $-1 #
coedge $-1 $223 $83 $224 $225 reversed $52 $-1 #
coedge $-1 $83 $223 $218 $226 reversed $52 $-1 #
coedge $-1 $227 $228 $83 $135 forward $229 $-1 #
edge $-1 $230 -22.407500858948371 $231 22.407500858948371 $134 $232 forward 7 unknown #
face $-1 $233 $234 $30 $-1 $235 forward single #
loop $-1 $-1 $236 $84 #
plane-surface $-1 -1.8446789802226107 72.191699526892336 86.414709473967193 -1 0 0 0 0.85716730853699208 0.51503806187062418 forward_v I I I I #
coedge $-1 $237 $238 $239 $240 reversed $85 $-1 #
coedge $-1 $141 $87 $241 $242 reversed $55 $-1 #
coedge $-1 $87 $140 $237 $243 reversed $55 $-1 #
coedge $-1 $239 $244 $87 $143 forward $234 $-1 #
edge $-1 $245 13.688348904497797 $246 17.791848492503938 $142 $247 forward 7 unknown #
loop $-1 $-1 $149 $88 #
plane-surface $-1 -7.5261026881575575 -0.67393076856588152 42.632623257441075 0 0.85716730853699208 0.51503806187062418 1 0 0 forward_v I I I I #
loop $-1 $-1 $248 $57 #
coedge $-1 $147 $147 $148 $249 reversed $89 $-1 #
coedge $-1 $148 $148 $147 $249 forward $91 $-1 #
coedge $-1 $149 $149 $92 $150 forward $144 $-1 #
edge $-1 $250 -1.055361490622287e-015 $250 6.2831853071795996 $149 $251 forward 7 unknown #
loop $-1 $-1 $156 $93 #
plane-surface $-1 -7.5261026881575575 -0.67393076856588152 42.632623257441075 0 0.85716730853699208 0.51503806187062418 1 0 0 forward_v I I I I #
loop $-1 $-1 $252 $60 #
coedge $-1 $154 $154 $155 $253 reversed $94 $-1 #
coedge $-1 $155 $155 $154 $253 forward $96 $-1 #
coedge $-1 $156 $156 $97 $157 forward $151 $-1 #
edge $-1 $254 -1.055361490622287e-015 $254 6.2831853071795996 $156 $255 forward 7 unknown #
face $-1 $256 $257 $33 $-1 $258 forward single #
loop $-1 $-1 $259 $98 #
plane-surface $-1 0 0 11.048039258308606 0 0 1 1 0 0 forward_v I I I I #
coedge $-1 $260 $261 $262 $263 reversed $99 $-1 #
coedge $-1 $264 $101 $265 $266 reversed $64 $-1 #
coedge $-1 $101 $264 $259 $267 reversed $64 $-1 #
coedge $-1 $268 $269 $101 $165 forward $257 $-1 #
edge $-1 $270 -44.815001717896784 $271 -36.847630193737615 $164 $272 forward 7 unknown #
loop $-1 $-1 $171 $102 #
plane-surface $-1 -7.5261026881575575 -0.67393076856588152 42.632623257441075 0 0.85716730853699208 0.51503806187062418 1 0 0 forward_v I I I I #
loop $-1 $-1 $273 $66 #
coedge $-1 $169 $169 $170 $274 reversed $103 $-1 #
coedge $-1 $170 $170 $169 $274 forward $105 $-1 #
coedge $-1 $171 $171 $106 $172 forward $166 $-1 #
edge $-1 $275 -1.055361490622287e-015 $275 6.2831853071795996 $171 $276 forward 7 unknown #
loop $-1 $-1 $178 $107 #
plane-surface $-1 -7.5261026881575575 -0.67393076856588152 42.632623257441075 0 0.85716730853699208 0.51503806187062418 1 0 0 forward_v I I I I #
loop $-1 $-1 $277 $69 #
coedge $-1 $176 $176 $177 $278 reversed $108 $-1 #
coedge $-1 $177 $177 $176 $278 forward $110 $-1 #
coedge $-1 $178 $178 $111 $179 forward $173 $-1 #
edge $-1 $279 -1.055361490622287e-015 $279 6.2831853071795996 $178 $280 forward 7 unknown #
face $-1 $281 $282 $27 $-1 $283 reversed single #
loop $-1 $-1 $284 $112 #
plane-surface $-1 -42.50373851741081 0 0 1 0 0 0 0 -1 forward_v I I I I #
coedge $-1 $285 $191 $286 $287 forward $113 $-1 #
coedge $-1 $288 $115 $285 $289 forward $73 $-1 #
coedge $-1 $115 $288 $290 $291 forward $73 $-1 #
coedge $-1 $194 $193 $115 $187 reversed $195 $-1 #
edge $-1 $292 -22.407500858948371 $293 22.407500858948371 $186 $294 forward 7 unknown #
coedge $-1 $117 $116 $295 $296 forward $46 $-1 #
coedge $-1 $297 $298 $116 $190 reversed $282 $-1 #
edge $-1 $197 -42.50373851741081 $299 42.50373851741081 $189 $300 forward 7 unknown #
coedge $-1 $183 $301 $117 $192 reversed $113 $-1 #
edge $-1 $302 -42.50373851741081 $196 42.50373851741081 $191 $303 forward 7 unknown #
coedge $-1 $186 $118 $301 $304 forward $195 $-1 #
coedge $-1 $118 $186 $297 $305 reversed $195 $-1 #
loop $-1 $-1 $193 $281 #
vertex $-1 $119 $306 #
vertex $-1 $119 $307 #
straight-curve $-1 42.50373851741081 0 11.048039258308606 0 1 0 I I #
face $-1 $308 $211 $28 $-1 $309 reversed single #
loop $-1 $-1 $310 $120 #
plane-surface $-1 -52.714619150442331 -7.2382488189703977 0 1 0 0 0 0 -1 forward_v I I I I #
coedge $-1 $311 $312 $313 $314 forward $121 $-1 #
coedge $-1 $315 $123 $311 $316 forward $77 $-1 #
coedge $-1 $123 $315 $209 $317 forward $77 $-1 #
edge $-1 $212 4.0775864204807384 $318 10.398911217460057 $123 $319 forward 7 unknown #
coedge $-1 $125 $124 $320 $321 forward $49 $-1 #
coedge $-1 $322 $323 $124 $208 forward $324 $-1 #
edge $-1 $325 -10.398911217460057 $213 -4.0775864204807384 $207 $326 forward 7 unknown #
coedge $-1 $327 $126 $204 $317 reversed $211 $-1 #
coedge $-1 $126 $327 $322 $328 reversed $211 $-1 #
loop $-1 $-1 $126 $199 #
vertex $-1 $205 $329 #
vertex $-1 $328 $330 #
straight-curve $-1 -42.50373851741081 -4.0775864204807384 0 0 0 1 I I #
face $-1 $331 $332 $29 $-1 $333 reversed single #
loop $-1 $-1 $334 $128 #
plane-surface $-1 0 0 11.048039258308606 0 0 1 1 0 0 forward_v I I I I #
coedge $-1 $221 $335 $133 $226 forward $129 $-1 #
coedge $-1 $336 $131 $223 $337 reversed $81 $-1 #
coedge $-1 $131 $336 $334 $338 reversed $81 $-1 #
coedge $-1 $339 $218 $131 $222 forward $129 $-1 #
edge $-1 $340 1.6478662883112456 $341 6.8160707427686553 $221 $342 forward 7 unknown #
coedge $-1 $133 $132 $219 $337 forward $52 $-1 #
coedge $-1 $343 $344 $132 $225 forward $332 $-1 #
edge $-1 $345 10.826690313597851 $230 24.726928907074594 $224 $346 forward 7 unknown #
edge $-1 $231 -24.726928907074594 $340 -10.826690313597851 $218 $347 forward 7 unknown #
coedge $-1 $348 $134 $335 $349 reversed $229 $-1 #
coedge $-1 $134 $348 $343 $350 forward $229 $-1 #
loop $-1 $-1 $134 $331 #
vertex $-1 $225 $351 #
vertex $-1 $226 $352 #
straight-curve $-1 42.50373851741081 0 5.8798348038511961 0 1 0 I I #
face $-1 $-1 $353 $30 $-1 $354 reversed single #
loop $-1 $-1 $142 $136 #
plane-surface $-1 0 0 11.048039258308606 0 0 1 1 0 0 forward_v I I I I #
coedge $-1 $355 $356 $357 $358 reversed $137 $-1 #
coedge $-1 $359 $139 $141 $243 forward $85 $-1 #
coedge $-1 $139 $359 $355 $360 forward $85 $-1 #
coedge $-1 $357 $142 $139 $240 forward $234 $-1 #
edge $-1 $246 -9.4444750520137255 $361 1.9183723638561681 $239 $362 forward 7 unknown #
coedge $-1 $363 $364 $140 $242 forward $353 $-1 #
edge $-1 $365 -38.98868588415278 $245 -32.159315478674991 $241 $366 forward 7 unknown #
edge $-1 $246 36.847630193737615 $365 44.815001717896784 $141 $367 forward 7 unknown #
coedge $-1 $142 $357 $363 $368 forward $234 $-1 #
vertex $-1 $143 $369 #
vertex $-1 $143 $370 #
straight-curve $-1 -13.207526396092504 36.095849763446168 11.048039258308606 0 -1 0 I I #
coedge $-1 $248 $248 $-1 $371 reversed $146 $-1 #
edge $-1 $372 0 $372 6.2831853071796004 $147 $373 forward 7 unknown #
vertex $-1 $150 $374 #
ellipse-curve $-1 -9.9609985629868234 20.355751064945292 7.6333540555697184 0 0.85716730853699208 0.51503806187062418 1 0 0 1 I I #
coedge $-1 $252 $252 $-1 $375 reversed $153 $-1 #
edge $-1 $376 0 $376 6.2831853071796004 $154 $377 forward 7 unknown #
vertex $-1 $157 $378 #
ellipse-curve $-1 -5.0912068133282986 20.355751064945292 7.6333540555697184 0 0.85716730853699208 0.51503806187062418 1 0 0 1 I I #
face $-1 $-1 $379 $33 $-1 $380 reversed single #
loop $-1 $-1 $268 $158 #
plane-surface $-1 -1.8446789802226107 72.191699526892336 86.414709473967193 -1 0 0 0 0.85716730853699208 0.51503806187062418 forward_v I I I I #
coedge $-1 $262 $381 $163 $267 forward $159 $-1 #
coedge $-1 $261 $161 $264 $382 reversed $99 $-1 #
coedge $-1 $161 $260 $383 $384 reversed $99 $-1 #
coedge $-1 $385 $259 $161 $263 forward $159 $-1 #
edge $-1 $386 -17.791848492503938 $387 -13.688348904497797 $262 $388 forward 7 unknown #
coedge $-1 $163 $162 $260 $382 forward $64 $-1 #
coedge $-1 $389 $383 $162 $266 forward $379 $-1 #
edge $-1 $390 -13.281219779726062 $270 -1.9183723638561681 $265 $391 forward 7 unknown #
edge $-1 $271 1.9183723638561681 $386 13.281219779726062 $259 $392 forward 7 unknown #
coedge $-1 $269 $164 $381 $393 reversed $257 $-1 #
coedge $-1 $164 $268 $389 $394 reversed $257 $-1 #
vertex $-1 $266 $395 #
vertex $-1 $267 $396 #
straight-curve $-1 -1.8446789802226107 -0.67393076856588152 42.632623257441075 0 -0.51503806187062418 0.85716730853699208 I I #
coedge $-1 $273 $273 $-1 $397 reversed $168 $-1 #
edge $-1 $398 0 $398 6.2831853071796004 $169 $399 forward 7 unknown #
vertex $-1 $172 $400 #
ellipse-curve $-1 1.4018488528830702 20.355751064945292 7.6333540555697184 0 0.85716730853699208 0.51503806187062418 1 0 0 1 I I #
coedge $-1 $277 $277 $-1 $401 reversed $175 $-1 #
edge $-1 $402 0 $402 6.2831853071796004 $176 $403 forward 7 unknown #
vertex $-1 $179 $404 #
ellipse-curve $-1 6.2716406025415949 20.355751064945292 7.6333540555697184 0 0.85716730853699208 0.51503806187062418 1 0 0 1 I I #
face $-1 $-1 $195 $27 $-1 $405 reversed single #
loop $-1 $-1 $297 $180 #
plane-surface $-1 0 22.407500858948371 0 0 -1 0 0 0 -1 forward_v I I I I #
coedge $-1 $406 $295 $298 $407 forward $181 $-1 #
coedge $-1 $301 $183 $184 $289 reversed $113 $-1 #
coedge $-1 $295 $406 $183 $287 reversed $181 $-1 #
edge $-1 $302 -11.048039258308606 $408 11.048039258308606 $286 $409 forward 7 unknown #
coedge $-1 $185 $184 $406 $410 forward $73 $-1 #
edge $-1 $293 -42.50373851741081 $408 42.50373851741081 $285 $411 forward 7 unknown #
coedge $-1 $298 $297 $185 $291 reversed $282 $-1 #
edge $-1 $412 -42.50373851741081 $292 42.50373851741081 $290 $413 forward 7 unknown #
vertex $-1 $187 $414 #
vertex $-1 $304 $415 #
straight-curve $-1 42.50373851741081 0 -11.048039258308606 0 -1 0 I I #
coedge $-1 $284 $286 $188 $296 reversed $181 $-1 #
edge $-1 $299 -22.407500858948371 $302 22.407500858948371 $295 $416 forward 7 unknown #
coedge $-1 $290 $189 $194 $305 forward $282 $-1 #
coedge $-1 $189 $290 $284 $407 reversed $282 $-1 #
vertex $-1 $190 $417 #
straight-curve $-1 0 22.407500858948371 11.048039258308606 -1 0 0 I I #
coedge $-1 $191 $285 $193 $304 reversed $113 $-1 #
vertex $-1 $296 $418 #
straight-curve $-1 0 -22.407500858948371 11.048039258308606 1 0 0 I I #
edge $-1 $196 -11.048039258308606 $293 11.048039258308606 $193 $419 forward 7 unknown #
edge $-1 $197 -11.048039258308606 $292 11.048039258308606 $194 $420 forward 7 unknown #
point $-1 42.50373851741081 -22.407500858948371 11.048039258308606 #
point $-1 42.50373851741081 22.407500858948371 11.048039258308606 #
face $-1 $-1 $324 $28 $-1 $421 forward single #
plane-surface $-1 -47.60917883392657 -4.0775864204807384 0 0 -1 0 0 0 -1 forward_v I I I I #
coedge $-1 $422 $423 $327 $424 forward $200 $-1 #
coedge $-1 $320 $202 $203 $316 reversed $121 $-1 #
coedge $-1 $202 $320 $323 $425 reversed $121 $-1 #
coedge $-1 $423 $422 $202 $314 reversed $200 $-1 #
edge $-1 $426 -11.048039258308606 $427 11.048039258308606 $313 $428 forward 7 unknown #
coedge $-1 $204 $203 $422 $429 forward $77 $-1 #
edge $-1 $318 -5.1054403165157609 $427 5.1054403165157609 $311 $430 forward 7 unknown #
edge $-1 $431 -5.1054403165157609 $212 5.1054403165157609 $209 $432 forward 7 unknown #
vertex $-1 $316 $433 #
straight-curve $-1 -42.50373851741081 0 -11.048039258308606 0 -1 0 I I #
coedge $-1 $312 $311 $206 $321 reversed $121 $-1 #
edge $-1 $325 -11.048039258308606 $318 11.048039258308606 $320 $434 forward 7 unknown #
coedge $-1 $435 $207 $210 $328 forward $324 $-1 #
coedge $-1 $207 $435 $312 $425 forward $324 $-1 #
loop $-1 $-1 $207 $308 #
vertex $-1 $208 $436 #
straight-curve $-1 -42.50373851741081 0 11.048039258308606 0 1 0 I I #
coedge $-1 $210 $209 $310 $424 reversed $211 $-1 #
edge $-1 $213 -5.1054403165157609 $437 5.1054403165157609 $210 $438 forward 7 unknown #
point $-1 -42.50373851741081 -4.0775864204807384 -11.048039258308606 #
point $-1 -42.50373851741081 -4.0775864204807384 11.048039258308606 #
face $-1 $-1 $229 $29 $-1 $439 reversed single #
loop $-1 $-1 $224 $215 #
plane-surface $-1 0 -22.407500858948371 0 0 1 0 0 0 1 forward_v I I I I #
coedge $-1 $440 $441 $220 $338 forward $216 $-1 #
coedge $-1 $218 $339 $227 $349 forward $129 $-1 #
coedge $-1 $220 $219 $344 $442 reversed $81 $-1 #
edge $-1 $345 -22.407500858948371 $340 22.407500858948371 $219 $443 forward 7 unknown #
edge $-1 $341 -22.407500858948371 $444 22.407500858948371 $334 $445 forward 7 unknown #
coedge $-1 $335 $221 $441 $446 reversed $129 $-1 #
vertex $-1 $226 $447 #
vertex $-1 $338 $448 #
straight-curve $-1 28.603499923934073 22.407500858948371 4.2319685155399505 0 0 1 I I #
coedge $-1 $449 $224 $228 $350 reversed $332 $-1 #
coedge $-1 $224 $449 $336 $442 forward $332 $-1 #
vertex $-1 $225 $450 #
straight-curve $-1 17.776809610336223 -22.407500858948371 5.8798348038511961 1 0 0 I I #
straight-curve $-1 17.776809610336223 22.407500858948371 5.8798348038511961 -1 0 0 I I #
coedge $-1 $228 $227 $451 $452 reversed $229 $-1 #
edge $-1 $453 -11.048039258308606 $231 -5.8798348038511961 $227 $454 forward 7 unknown #
edge $-1 $455 -11.048039258308606 $230 -5.8798348038511961 $228 $456 forward 7 unknown #
point $-1 42.503738517410817 -22.407500858948371 5.8798348038511961 #
point $-1 42.503738517410817 22.407500858948371 5.8798348038511961 #
loop $-1 $-1 $241 $233 #
plane-surface $-1 0 22.407500858948371 0 0 -1 0 0 0 -1 forward_v I I I I #
coedge $-1 $356 $236 $238 $360 reversed $137 $-1 #
coedge $-1 $236 $355 $457 $458 reversed $137 $-1 #
coedge $-1 $244 $239 $236 $358 forward $234 $-1 #
edge $-1 $361 -17.791848492503938 $459 -13.688348904497797 $357 $460 forward 7 unknown #
coedge $-1 $238 $237 $364 $461 reversed $85 $-1 #
edge $-1 $462 -44.815001717896784 $361 -36.847630193737615 $355 $463 forward 7 unknown #
vertex $-1 $240 $464 #
straight-curve $-1 -3.7630513440787787 18.304001270942226 11.048039258308606 1 0 0 I I #
coedge $-1 $457 $241 $244 $368 reversed $353 $-1 #
coedge $-1 $241 $457 $359 $461 forward $353 $-1 #
vertex $-1 $242 $465 #
straight-curve $-1 -13.207526396092504 22.407500858948371 43.207354736983596 0 0 1 I I #
straight-curve $-1 -13.207526396092504 -0.67393076856588152 42.632623257441075 0 0.51503806187062418 -0.85716730853699208 I I #
edge $-1 $459 1.8446789802226107 $245 13.207526396092504 $363 $466 forward 7 unknown #
point $-1 -13.207526396092504 22.407500858948371 11.048039258308606 #
point $-1 -13.207526396092504 18.30400127094223 11.048039258308609 #
edge $-1 $467 1 $467 0 $248 $-1 forward 7 unknown #
vertex $-1 $249 $468 #
ellipse-curve $-1 -9.9609985629868234 18.766301751101878 6.6783165898493655 0 0.85716730853699208 0.51503806187062418 1 0 0 1 I I #
point $-1 -8.9609985629868234 20.355751064945306 7.6333540555697281 #
edge $-1 $469 1 $469 0 $252 $-1 forward 7 unknown #
vertex $-1 $253 $470 #
ellipse-curve $-1 -5.0912068133282986 18.766301751101878 6.6783165898493655 0 0.85716730853699208 0.51503806187062418 1 0 0 1 I I #
point $-1 -4.0912068133282986 20.355751064945306 7.6333540555697281 #
loop $-1 $-1 $265 $256 #
plane-surface $-1 0 22.407500858948371 0 0 -1 0 0 0 -1 forward_v I I I I #
coedge $-1 $259 $385 $268 $393 forward $159 $-1 #
edge $-1 $390 -44.815001717896784 $386 -36.847630193737615 $260 $471 forward 7 unknown #
coedge $-1 $265 $472 $261 $384 forward $379 $-1 #
edge $-1 $387 32.159315478674991 $390 38.98868588415278 $383 $473 forward 7 unknown #
coedge $-1 $381 $262 $472 $474 forward $159 $-1 #
vertex $-1 $263 $475 #
vertex $-1 $474 $476 #
straight-curve $-1 9.5181684356472829 36.095849763446168 11.048039258308606 0 1 0 I I #
coedge $-1 $472 $265 $269 $394 forward $379 $-1 #
vertex $-1 $384 $477 #
straight-curve $-1 -3.7630513440787787 22.407500858948371 4.2186688528308132 -1 0 0 I I #
straight-curve $-1 -3.7630513440787787 18.304001270942226 11.048039258308606 1 0 0 I I #
edge $-1 $478 13.688348904497797 $271 17.791848492503938 $381 $479 forward 7 unknown #
edge $-1 $270 -38.98868588415278 $478 -32.159315478674991 $389 $480 forward 7 unknown #
point $-1 -1.8446789802226107 22.407500858948371 4.2186688528308167 #
point $-1 -1.8446789802226107 18.30400127094223 11.048039258308609 #
edge $-1 $481 1 $481 0 $273 $-1 forward 7 unknown #
vertex $-1 $274 $482 #
ellipse-curve $-1 1.4018488528830702 18.766301751101878 6.6783165898493655 0 0.85716730853699208 0.51503806187062418 1 0 0 1 I I #
point $-1 2.4018488528830702 20.355751064945306 7.6333540555697281 #
edge $-1 $483 1 $483 0 $277 $-1 forward 7 unknown #
vertex $-1 $278 $484 #
ellipse-curve $-1 6.2716406025415949 18.766301751101878 6.6783165898493655 0 0.85716730853699208 0.51503806187062418 1 0 0 1 I I #
point $-1 7.2716406025415949 20.355751064945306 7.6333540555697281 #
plane-surface $-1 42.50373851741081 0 0 -1 0 0 0 0 1 forward_v I I I I #
coedge $-1 $286 $284 $288 $410 reversed $181 $-1 #
edge $-1 $299 -11.048039258308606 $412 11.048039258308606 $298 $485 forward 7 unknown #
vertex $-1 $410 $486 #
straight-curve $-1 -42.50373851741081 -22.407500858948371 0 0 0 -1 I I #
edge $-1 $408 -22.407500858948371 $412 22.407500858948371 $406 $487 forward 7 unknown #
straight-curve $-1 0 -22.407500858948371 -11.048039258308606 -1 0 0 I I #
vertex $-1 $291 $488 #
straight-curve $-1 0 22.407500858948371 -11.048039258308606 1 0 0 I I #
point $-1 42.50373851741081 22.407500858948371 -11.048039258308606 #
point $-1 42.50373851741081 -22.407500858948371 -11.048039258308606 #
straight-curve $-1 -42.50373851741081 0 11.048039258308606 0 -1 0 I I #
point $-1 -42.50373851741081 22.407500858948371 11.048039258308606 #
point $-1 -42.50373851741081 -22.407500858948371 11.048039258308606 #
straight-curve $-1 42.50373851741081 -22.407500858948371 0 0 0 -1 I I #
straight-curve $-1 42.50373851741081 22.407500858948371 0 0 0 -1 I I #
plane-surface $-1 0 0 11.048039258308606 0 0 1 1 0 0 forward_v I I I I #
coedge $-1 $313 $310 $315 $429 reversed $200 $-1 #
coedge $-1 $310 $313 $435 $489 reversed $200 $-1 #
edge $-1 $437 -11.048039258308606 $431 11.048039258308606 $327 $490 forward 7 unknown #
edge $-1 $426 -5.1054403165157609 $325 5.1054403165157609 $312 $491 forward 7 unknown #
vertex $-1 $489 $492 #
vertex $-1 $429 $493 #
straight-curve $-1 -52.714619150442331 -10.398911217460057 0 0 0 -1 I I #
edge $-1 $427 -3.1606623984896594 $431 3.1606623984896594 $422 $494 forward 7 unknown #
straight-curve $-1 -47.60917883392657 -10.398911217460057 -11.048039258308606 -1 0 0 I I #
vertex $-1 $317 $495 #
straight-curve $-1 -47.60917883392657 -4.0775864204807384 -11.048039258308606 1 0 0 I I #
point $-1 -42.50373851741081 -10.398911217460057 -11.048039258308606 #
straight-curve $-1 -42.50373851741081 -10.398911217460057 0 0 0 -1 I I #
coedge $-1 $323 $322 $423 $489 forward $324 $-1 #
point $-1 -42.50373851741081 -10.398911217460057 11.048039258308606 #
vertex $-1 $328 $496 #
straight-curve $-1 -47.60917883392657 -4.0775864204807384 11.048039258308606 -1 0 0 I I #
plane-surface $-1 42.50373851741081 0 0 -1 0 0 0 0 1 forward_v I I I I #
coedge $-1 $451 $334 $449 $497 forward $216 $-1 #
coedge $-1 $334 $451 $339 $446 forward $216 $-1 #
edge $-1 $444 -6.8160707427686553 $345 -1.6478662883112456 $344 $498 forward 7 unknown #
straight-curve $-1 28.603499923934073 0 5.8798348038511961 0 1 0 I I #
vertex $-1 $497 $499 #
straight-curve $-1 28.603499923934073 0 11.048039258308606 0 -1 0 I I #
edge $-1 $453 -42.50373851741081 $341 -28.603499923934073 $339 $500 forward 7 unknown #
point $-1 28.603499923934073 22.407500858948371 5.8798348038511961 #
point $-1 28.603499923934073 22.407500858948371 11.048039258308606 #
coedge $-1 $344 $343 $440 $497 reversed $332 $-1 #
point $-1 28.603499923934073 -22.407500858948371 5.8798348038511961 #
coedge $-1 $441 $440 $348 $452 forward $216 $-1 #
edge $-1 $455 -22.407500858948371 $453 22.407500858948371 $348 $501 forward 7 unknown #
vertex $-1 $452 $502 #
straight-curve $-1 42.50373851741081 22.407500858948371 0 0 0 -1 I I #
vertex $-1 $452 $503 #
straight-curve $-1 42.50373851741081 -22.407500858948371 0 0 0 -1 I I #
coedge $-1 $364 $363 $356 $458 forward $353 $-1 #
edge $-1 $459 32.159315478674991 $462 38.98868588415278 $457 $504 forward 7 unknown #
vertex $-1 $368 $505 #
straight-curve $-1 -1.8446789802226107 36.095849763446168 11.048039258308606 0 1 0 I I #
edge $-1 $462 -1.9183723638561681 $365 9.4444750520137255 $364 $506 forward 7 unknown #
vertex $-1 $461 $507 #
straight-curve $-1 -1.8446789802226107 -0.67393076856588152 42.632623257441075 0 -0.51503806187062418 0.85716730853699208 I I #
point $-1 -1.8446789802226107 18.30400127094223 11.048039258308609 #
point $-1 -13.207526396092504 22.407500858948371 4.2186688528308167 #
straight-curve $-1 0 22.407500858948371 11.048039258308606 -1 0 0 I I #
vertex $-1 $371 $508 #
point $-1 -8.9609985629868234 18.766301751101878 6.6783165898493655 #
vertex $-1 $375 $509 #
point $-1 -4.0912068133282986 18.766301751101878 6.6783165898493655 #
straight-curve $-1 9.5181684356472829 -0.67393076856588152 42.632623257441075 0 -0.51503806187062418 0.85716730853699208 I I #
coedge $-1 $383 $389 $385 $474 reversed $379 $-1 #
straight-curve $-1 9.5181684356472829 22.407500858948371 43.207354736983596 0 0 -1 I I #
edge $-1 $387 -9.5181684356472829 $478 1.8446789802226107 $472 $510 forward 7 unknown #
point $-1 9.5181684356472829 18.30400127094223 11.048039258308609 #
point $-1 9.5181684356472829 22.407500858948371 11.048039258308606 #
point $-1 9.5181684356472829 22.407500858948371 4.2186688528308167 #
vertex $-1 $394 $511 #
straight-curve $-1 -1.8446789802226107 36.095849763446168 11.048039258308606 0 -1 0 I I #
straight-curve $-1 -1.8446789802226107 22.407500858948371 43.207354736983596 0 0 1 I I #
vertex $-1 $397 $512 #
point $-1 2.4018488528830702 18.766301751101878 6.6783165898493655 #
vertex $-1 $401 $513 #
point $-1 7.2716406025415949 18.766301751101878 6.6783165898493655 #
straight-curve $-1 -42.50373851741081 22.407500858948371 0 0 0 -1 I I #
point $-1 -42.50373851741081 -22.407500858948371 -11.048039258308606 #
straight-curve $-1 -42.50373851741081 0 -11.048039258308606 0 1 0 I I #
point $-1 -42.50373851741081 22.407500858948371 -11.048039258308606 #
edge $-1 $437 -3.1606623984896594 $426 3.1606623984896594 $423 $514 forward 7 unknown #
straight-curve $-1 -52.714619150442331 -4.0775864204807384 0 0 0 -1 I I #
straight-curve $-1 -47.60917883392657 -10.398911217460057 11.048039258308606 1 0 0 I I #
point $-1 -52.714619150442331 -10.398911217460057 11.048039258308606 #
point $-1 -52.714619150442331 -10.398911217460057 -11.048039258308606 #
straight-curve $-1 -52.714619150442331 -7.2382488189703977 -11.048039258308606 0 1 0 I I #
point $-1 -52.714619150442331 -4.0775864204807384 -11.048039258308606 #
point $-1 -52.714619150442331 -4.0775864204807384 11.048039258308606 #
edge $-1 $444 28.603499923934073 $455 42.50373851741081 $449 $515 forward 7 unknown #
straight-curve $-1 28.603499923934073 -22.407500858948371 4.2319685155399505 0 0 -1 I I #
point $-1 28.603499923934073 -22.407500858948371 11.048039258308606 #
straight-curve $-1 0 22.407500858948371 11.048039258308606 -1 0 0 I I #
straight-curve $-1 42.50373851741081 0 11.048039258308606 0 1 0 I I #
point $-1 42.50373851741081 22.407500858948371 11.048039258308606 #
point $-1 42.50373851741081 -22.407500858948371 11.048039258308606 #
straight-curve $-1 -1.8446789802226107 22.407500858948371 43.207354736983596 0 0 -1 I I #
point $-1 -1.8446789802226107 22.407500858948371 11.048039258308606 #
straight-curve $-1 -3.7630513440787787 22.407500858948371 4.2186688528308132 -1 0 0 I I #
point $-1 -1.8446789802226107 22.407500858948371 4.2186688528308167 #
point $-1 -9.9609985629868234 17.909134442564884 6.1632785279787408 #
point $-1 -5.0912068133282986 17.909134442564884 6.1632785279787408 #
straight-curve $-1 0 22.407500858948371 11.048039258308606 -1 0 0 I I #
point $-1 -1.8446789802226107 22.407500858948371 11.048039258308606 #
point $-1 1.4018488528830702 17.909134442564884 6.1632785279787408 #
point $-1 6.2716406025415949 17.909134442564884 6.1632785279787408 #
straight-curve $-1 -52.714619150442331 -7.2382488189703977 11.048039258308606 0 -1 0 I I #
straight-curve $-1 0 -22.407500858948371 11.048039258308606 1 0 0 I I #
End-of-ACIS-data 