500 0 9 0           
7 Unknown 11 ACIS 5.0 NT 24 Thu Mar 25 18:19:44 1999 
-1 9.9999999999999995e-007 1e-010 
body $-1 $9 $-1 $10 #
body $-1 $11 $-1 $12 #
body $-1 $13 $-1 $14 #
body $-1 $15 $-1 $16 #
body $-1 $17 $-1 $18 #
body $-1 $19 $-1 $20 #
body $-1 $21 $-1 $22 #
body $-1 $23 $-1 $24 #
body $-1 $25 $-1 $26 #
lump $-1 $-1 $27 $0 #
transform $-1 1 0 0 0 1 0 0 0 1 42.388988921781063 17.627775464453794 4.4349991806210705 1 rotate no_reflect no_shear #
lump $-1 $-1 $28 $1 #
transform $-1 1 0 0 0 1 0 0 0 1 42.388988921781063 17.627775464453794 4.4349991806210705 1 rotate no_reflect no_shear #
lump $-1 $-1 $29 $2 #
transform $-1 1 0 0 0 1 0 0 0 1 42.388988921781063 17.627775464453794 4.4349991806210705 1 rotate no_reflect no_shear #
lump $-1 $-1 $30 $3 #
transform $-1 1 0 0 0 1 0 0 0 1 42.388988921781063 17.627775464453794 4.4349991806210705 1 rotate no_reflect no_shear #
lump $-1 $-1 $31 $4 #
transform $-1 1 0 0 0 1 0 0 0 1 42.388988921781063 17.627775464453794 4.4349991806210705 1 rotate no_reflect no_shear #
lump $-1 $-1 $32 $5 #
transform $-1 1 0 0 0 1 0 0 0 1 42.388988921781063 17.627775464453794 4.4349991806210705 1 rotate no_reflect no_shear #
lump $-1 $-1 $33 $6 #
transform $-1 1 0 0 0 1 0 0 0 1 42.388988921781063 17.627775464453794 4.4349991806210705 1 rotate no_reflect no_shear #
lump $-1 $-1 $34 $7 #
transform $-1 1 0 0 0 1 0 0 0 1 42.388988921781063 17.627775464453794 4.4349991806210705 1 rotate no_reflect no_shear #
lump $-1 $-1 $35 $8 #
transform $-1 1 0 0 0 1 0 0 0 1 42.388988921781063 17.627775464453794 4.4349991806210705 1 rotate no_reflect no_shear #
shell $-1 $-1 $-1 $36 $-1 $9 #
shell $-1 $-1 $-1 $37 $-1 $11 #
shell $-1 $-1 $-1 $38 $-1 $13 #
shell $-1 $-1 $-1 $39 $-1 $15 #
shell $-1 $-1 $-1 $40 $-1 $17 #
shell $-1 $-1 $-1 $41 $-1 $19 #
shell $-1 $-1 $-1 $42 $-1 $21 #
shell $-1 $-1 $-1 $43 $-1 $23 #
shell $-1 $-1 $-1 $44 $-1 $25 #
face $-1 $45 $46 $27 $-1 $47 forward single #
face $-1 $48 $49 $28 $-1 $50 forward single #
face $-1 $51 $52 $29 $-1 $53 reversed single #
face $-1 $54 $55 $30 $-1 $56 forward single #
face $-1 $57 $58 $31 $-1 $59 forward single #
face $-1 $60 $61 $32 $-1 $62 forward single #
face $-1 $63 $64 $33 $-1 $65 reversed single #
face $-1 $66 $67 $34 $-1 $68 forward single #
face $-1 $69 $70 $35 $-1 $71 forward single #
face $-1 $72 $73 $27 $-1 $74 reversed single #
loop $-1 $-1 $75 $36 #
plane-surface $-1 0 0 4.4349991806210705 0 0 1 1 0 0 forward_v I I I I #
face $-1 $76 $77 $28 $-1 $78 reversed single #
loop $-1 $-1 $79 $37 #
plane-surface $-1 0 -15.92200550767981 -1.4349991806210705 0 0 1 1 0 0 forward_v I I I I #
face $-1 $80 $81 $29 $-1 $82 reversed single #
loop $-1 $-1 $83 $38 #
plane-surface $-1 -89.796233118638057 -5.7148342319703342 70.584249071299638 0 1 0 -0.55919291073839883 0 0.82903756765294845 forward_v I I I I #
face $-1 $84 $85 $30 $-1 $86 forward single #
loop $-1 $87 $88 $39 #
cone-surface $-1 -39.044287675407062 -3.8736158787244683 1.9530410711527242 0.55919291073839883 0 -0.82903756765294845 0.41451878382647422 0 0.27959645536919941 1 I I 0 1 0.5 forward I I I I #
face $-1 $89 $90 $31 $-1 $91 forward single #
loop $-1 $92 $93 $40 #
cone-surface $-1 -39.044287675407062 -1.111788348855665 1.9530410711527242 0.55919291073839883 0 -0.82903756765294845 0.41451878382647422 0 0.27959645536919941 1 I I 0 1 0.5 forward I I I I #
face $-1 $94 $95 $32 $-1 $96 forward single #
loop $-1 $97 $98 $41 #
cone-surface $-1 -39.044287675407062 1.6500391810131383 1.9530410711527242 0.55919291073839883 0 -0.82903756765294845 0.41451878382647422 0 0.27959645536919941 1 I I 0 1 0.5 forward I I I I #
face $-1 $99 $100 $33 $-1 $101 reversed single #
loop $-1 $-1 $102 $42 #
plane-surface $-1 57.000413812733385 9.0910743656442499 119.81773343566137 0 1 0 0.78801076186113728 0 0.61566146476048833 forward_v I I I I #
face $-1 $103 $104 $34 $-1 $105 forward single #
loop $-1 $106 $107 $43 #
cone-surface $-1 39.968268409417867 11.530131822446975 1.8389987187722869 -0.78801076186113728 0 -0.61566146476048833 0.61566146476048833 0 -0.78801076186113728 1 I I 0 1 1 forward I I I I #
face $-1 $108 $109 $35 $-1 $110 forward single #
loop $-1 $111 $112 $44 #
cone-surface $-1 39.968268409417867 15.188718007651065 1.8389987187722869 -0.78801076186113728 0 -0.61566146476048833 0.61566146476048833 0 -0.78801076186113728 1 I I 0 1 1 forward I I I I #
face $-1 $113 $114 $27 $-1 $115 reversed single #
loop $-1 $-1 $116 $45 #
plane-surface $-1 0 0 -4.4349991806210705 0 0 1 1 0 0 forward_v I I I I #
coedge $-1 $117 $118 $119 $120 forward $46 $-1 #
face $-1 $121 $122 $28 $-1 $123 reversed single #
loop $-1 $-1 $124 $48 #
plane-surface $-1 0 -14.216235550905825 -2.9349991806210705 0 -1 0 0 0 -1 forward_v I I I I #
coedge $-1 $125 $126 $127 $128 reversed $49 $-1 #
face $-1 $129 $130 $29 $-1 $131 reversed single #
loop $-1 $-1 $132 $51 #
plane-surface $-1 -42.388988921781063 -1.111788348855665 0.30012052933733457 -0.55919291073839883 0 0.82903756765294845 0.82903756765294845 0 0.55919291073839883 forward_v I I I I #
coedge $-1 $133 $134 $135 $136 reversed $52 $-1 #
face $-1 $-1 $137 $30 $-1 $138 forward single #
loop $-1 $139 $140 $54 #
cone-surface $-1 -38.62489299235326 -3.8736158787244683 1.3312628954130128 0.55919291073839883 0 -0.82903756765294845 0.20725939191323711 0 0.13979822768459971 1 I I -0.70710678118654746 0.70710678118654746 0.25 forward I I I I #
loop $-1 $-1 $141 $39 #
coedge $-1 $88 $88 $142 $143 reversed $55 $-1 #
face $-1 $-1 $144 $31 $-1 $145 forward single #
loop $-1 $146 $147 $57 #
cone-surface $-1 -38.62489299235326 -1.111788348855665 1.3312628954130128 0.55919291073839883 0 -0.82903756765294845 0.20725939191323711 0 0.13979822768459971 1 I I -0.70710678118654746 0.70710678118654746 0.25 forward I I I I #
loop $-1 $-1 $148 $40 #
coedge $-1 $93 $93 $149 $150 reversed $58 $-1 #
face $-1 $-1 $151 $32 $-1 $152 forward single #
loop $-1 $153 $154 $60 #
cone-surface $-1 -38.62489299235326 1.6500391810131383 1.3312628954130128 0.55919291073839883 0 -0.82903756765294845 0.20725939191323711 0 0.13979822768459971 1 I I -0.70710678118654746 0.70710678118654746 0.25 forward I I I I #
loop $-1 $-1 $155 $41 #
coedge $-1 $98 $98 $156 $157 reversed $61 $-1 #
face $-1 $158 $159 $33 $-1 $160 reversed single #
loop $-1 $-1 $161 $63 #
plane-surface $-1 -9.8055450968186193 13.359424915049022 67.623199417061684 0.78801076186113728 0 0.61566146476048833 0.61566146476048833 0 -0.78801076186113728 forward_v I I I I #
coedge $-1 $162 $163 $164 $165 reversed $64 $-1 #
face $-1 $-1 $166 $34 $-1 $167 forward single #
loop $-1 $168 $169 $66 #
cone-surface $-1 38.566793902803909 11.530131822446975 0.74404686109895035 -0.78801076186113728 0 -0.61566146476048833 0.30783073238024417 0 -0.39400538093056864 1 I I -0.70710678118654746 0.70710678118654746 0.5 forward I I I I #
loop $-1 $-1 $170 $43 #
coedge $-1 $107 $107 $171 $172 reversed $67 $-1 #
face $-1 $-1 $173 $35 $-1 $174 forward single #
loop $-1 $175 $176 $69 #
cone-surface $-1 38.566793902803909 15.188718007651065 0.74404686109895035 -0.78801076186113728 0 -0.61566146476048833 0.30783073238024417 0 -0.39400538093056864 1 I I -0.70710678118654746 0.70710678118654746 0.5 forward I I I I #
loop $-1 $-1 $177 $44 #
coedge $-1 $112 $112 $178 $179 reversed $70 $-1 #
face $-1 $180 $181 $27 $-1 $182 reversed single #
loop $-1 $-1 $183 $72 #
plane-surface $-1 0 -17.627775464453794 0 0 1 0 0 0 1 forward_v I I I I #
coedge $-1 $184 $185 $186 $187 forward $73 $-1 #
coedge $-1 $188 $75 $189 $190 forward $46 $-1 #
coedge $-1 $75 $188 $191 $192 forward $46 $-1 #
coedge $-1 $193 $194 $75 $120 reversed $195 $-1 #
edge $-1 $196 -17.627775464453794 $197 17.627775464453794 $119 $198 forward 7 unknown #
face $-1 $199 $200 $28 $-1 $201 reversed single #
loop $-1 $-1 $202 $76 #
plane-surface $-1 0 0 -4.4349991806210705 0 0 1 1 0 0 forward_v I I I I #
coedge $-1 $203 $204 $205 $206 reversed $77 $-1 #
coedge $-1 $207 $79 $204 $208 forward $49 $-1 #
coedge $-1 $79 $207 $209 $210 reversed $49 $-1 #
coedge $-1 $211 $205 $79 $128 forward $200 $-1 #
edge $-1 $212 6.2552327970659203 $213 9.6667727106138894 $127 $214 forward 7 unknown #
face $-1 $215 $216 $29 $-1 $217 forward single #
loop $-1 $-1 $218 $80 #
plane-surface $-1 -89.796233118638057 3.4912575342590042 70.584249071299638 0 -1 0 0.55919291073839883 0 -0.82903756765294845 forward_v I I I I #
coedge $-1 $219 $220 $221 $222 reversed $81 $-1 #
coedge $-1 $134 $83 $223 $224 reversed $52 $-1 #
coedge $-1 $83 $133 $219 $225 reversed $52 $-1 #
coedge $-1 $221 $226 $83 $136 forward $216 $-1 #
edge $-1 $227 2.509127637537965 $228 8.6393372195475635 $135 $229 forward 7 unknown #
loop $-1 $-1 $142 $84 #
plane-surface $-1 -42.388988921781063 -1.111788348855665 0.30012052933733457 -0.55919291073839883 0 0.82903756765294845 0.82903756765294845 0 0.55919291073839883 forward_v I I I I #
loop $-1 $-1 $230 $54 #
coedge $-1 $140 $140 $141 $231 reversed $85 $-1 #
coedge $-1 $141 $141 $140 $231 forward $87 $-1 #
coedge $-1 $142 $142 $88 $143 forward $137 $-1 #
edge $-1 $232 0 $232 6.2831853071796004 $142 $233 forward 7 unknown #
loop $-1 $-1 $149 $89 #
plane-surface $-1 -42.388988921781063 -1.111788348855665 0.30012052933733457 -0.55919291073839883 0 0.82903756765294845 0.82903756765294845 0 0.55919291073839883 forward_v I I I I #
loop $-1 $-1 $234 $57 #
coedge $-1 $147 $147 $148 $235 reversed $90 $-1 #
coedge $-1 $148 $148 $147 $235 forward $92 $-1 #
coedge $-1 $149 $149 $93 $150 forward $144 $-1 #
edge $-1 $236 0 $236 6.2831853071796004 $149 $237 forward 7 unknown #
loop $-1 $-1 $156 $94 #
plane-surface $-1 -42.388988921781063 -1.111788348855665 0.30012052933733457 -0.55919291073839883 0 0.82903756765294845 0.82903756765294845 0 0.55919291073839883 forward_v I I I I #
loop $-1 $-1 $238 $60 #
coedge $-1 $154 $154 $155 $239 reversed $95 $-1 #
coedge $-1 $155 $155 $154 $239 forward $97 $-1 #
coedge $-1 $156 $156 $98 $157 forward $151 $-1 #
edge $-1 $240 0 $240 6.2831853071796004 $156 $241 forward 7 unknown #
face $-1 $242 $243 $33 $-1 $244 forward single #
loop $-1 $-1 $245 $99 #
plane-surface $-1 0 17.627775464453794 0 0 -1 0 0 0 -1 forward_v I I I I #
coedge $-1 $246 $247 $248 $249 reversed $100 $-1 #
coedge $-1 $163 $102 $250 $251 reversed $64 $-1 #
coedge $-1 $102 $162 $246 $252 reversed $64 $-1 #
coedge $-1 $248 $253 $102 $165 forward $254 $-1 #
edge $-1 $255 55.473867537209614 $256 59.091626210321003 $164 $257 forward 7 unknown #
loop $-1 $-1 $171 $103 #
plane-surface $-1 -9.8055450968186193 13.359424915049022 67.623199417061684 0.78801076186113728 0 0.61566146476048833 0.61566146476048833 0 -0.78801076186113728 forward_v I I I I #
loop $-1 $-1 $258 $66 #
coedge $-1 $169 $169 $170 $259 reversed $104 $-1 #
coedge $-1 $170 $170 $169 $259 forward $106 $-1 #
coedge $-1 $171 $171 $107 $172 forward $166 $-1 #
edge $-1 $260 0 $260 6.2831853071796004 $171 $261 forward 7 unknown #
loop $-1 $-1 $178 $108 #
plane-surface $-1 -9.8055450968186193 13.359424915049022 67.623199417061684 0.78801076186113728 0 0.61566146476048833 0.61566146476048833 0 -0.78801076186113728 forward_v I I I I #
loop $-1 $-1 $262 $69 #
coedge $-1 $176 $176 $177 $263 reversed $109 $-1 #
coedge $-1 $177 $177 $176 $263 forward $111 $-1 #
coedge $-1 $178 $178 $112 $179 forward $173 $-1 #
edge $-1 $264 0 $264 6.2831853071796004 $178 $265 forward 7 unknown #
face $-1 $266 $267 $27 $-1 $268 reversed single #
loop $-1 $-1 $269 $113 #
plane-surface $-1 -42.388988921781063 0 0 1 0 0 0 0 -1 forward_v I I I I #
coedge $-1 $270 $191 $271 $272 forward $114 $-1 #
coedge $-1 $273 $116 $270 $274 forward $73 $-1 #
coedge $-1 $116 $273 $275 $276 forward $73 $-1 #
coedge $-1 $194 $193 $116 $187 reversed $195 $-1 #
edge $-1 $277 -17.627775464453794 $278 17.627775464453794 $186 $279 forward 7 unknown #
coedge $-1 $118 $117 $280 $281 forward $46 $-1 #
coedge $-1 $282 $283 $117 $190 reversed $267 $-1 #
edge $-1 $197 -42.388988921781063 $284 42.388988921781063 $189 $285 forward 7 unknown #
coedge $-1 $183 $286 $118 $192 reversed $114 $-1 #
edge $-1 $287 -42.388988921781063 $196 42.388988921781063 $191 $288 forward 7 unknown #
coedge $-1 $186 $119 $286 $289 forward $195 $-1 #
coedge $-1 $119 $186 $282 $290 reversed $195 $-1 #
loop $-1 $-1 $193 $266 #
vertex $-1 $120 $291 #
vertex $-1 $120 $292 #
straight-curve $-1 42.388988921781063 0 4.4349991806210705 0 1 0 I I #
face $-1 $293 $294 $28 $-1 $295 reversed single #
loop $-1 $-1 $205 $121 #
plane-surface $-1 42.388988921781063 0 0 -1 0 0 0 0 1 forward_v I I I I #
coedge $-1 $296 $297 $203 $298 forward $122 $-1 #
coedge $-1 $299 $124 $202 $298 reversed $77 $-1 #
coedge $-1 $124 $299 $125 $208 reversed $77 $-1 #
coedge $-1 $127 $300 $124 $206 forward $200 $-1 #
edge $-1 $301 -2.9674995903105352 $212 0.032500409689464771 $205 $302 forward 7 unknown #
coedge $-1 $126 $125 $303 $304 reversed $49 $-1 #
edge $-1 $212 -42.388988921781063 $305 42.388988921781063 $204 $306 forward 7 unknown #
coedge $-1 $307 $308 $126 $210 forward $294 $-1 #
edge $-1 $213 -42.388988921781063 $309 42.388988921781063 $209 $310 forward 7 unknown #
coedge $-1 $300 $127 $308 $311 forward $200 $-1 #
vertex $-1 $128 $312 #
vertex $-1 $311 $313 #
straight-curve $-1 42.388988921781063 -7.9610027538399049 -1.4349991806210705 0 -1 0 I I #
face $-1 $-1 $314 $29 $-1 $315 reversed single #
loop $-1 $-1 $135 $129 #
plane-surface $-1 0 0 4.4349991806210705 0 0 1 1 0 0 forward_v I I I I #
coedge $-1 $316 $317 $318 $319 reversed $130 $-1 #
coedge $-1 $320 $132 $134 $225 forward $81 $-1 #
coedge $-1 $132 $320 $316 $321 forward $81 $-1 #
coedge $-1 $318 $135 $132 $222 forward $216 $-1 #
edge $-1 $228 -5.1589400575425017 $322 4.0471517086868367 $221 $323 forward 7 unknown #
coedge $-1 $324 $325 $133 $224 forward $314 $-1 #
edge $-1 $326 -34.992004006312484 $227 -30.857125355028749 $223 $327 forward 7 unknown #
edge $-1 $228 -7.3943688696334533 $326 0 $134 $328 forward 7 unknown #
coedge $-1 $135 $318 $324 $329 forward $216 $-1 #
vertex $-1 $224 $330 #
vertex $-1 $136 $331 #
straight-curve $-1 -44.898116559319028 -5.7148342319703342 4.4349991806210696 1 0 0 I I #
coedge $-1 $230 $230 $-1 $332 reversed $139 $-1 #
edge $-1 $333 0 $333 6.2831853071796004 $140 $334 forward 7 unknown #
vertex $-1 $143 $335 #
ellipse-curve $-1 -39.323884130776264 -3.8736158787244683 2.3675598549792016 -0.55919291073839883 0 0.82903756765294845 0.41451878382647422 0 0.27959645536919941 1 I I #
coedge $-1 $234 $234 $-1 $336 reversed $146 $-1 #
edge $-1 $337 0 $337 6.2831853071796004 $147 $338 forward 7 unknown #
vertex $-1 $150 $339 #
ellipse-curve $-1 -39.323884130776264 -1.111788348855665 2.3675598549792016 -0.55919291073839883 0 0.82903756765294845 0.41451878382647422 0 0.27959645536919941 1 I I #
coedge $-1 $238 $238 $-1 $340 reversed $153 $-1 #
edge $-1 $341 0 $341 6.2831853071796004 $154 $342 forward 7 unknown #
vertex $-1 $157 $343 #
ellipse-curve $-1 -39.323884130776264 1.6500391810131383 2.3675598549792016 -0.55919291073839883 0 0.82903756765294845 0.41451878382647422 0 0.27959645536919941 1 I I #
face $-1 $-1 $254 $33 $-1 $344 reversed single #
loop $-1 $-1 $345 $158 #
plane-surface $-1 0 0 4.4349991806210705 0 0 1 1 0 0 forward_v I I I I #
coedge $-1 $346 $347 $247 $348 forward $159 $-1 #
coedge $-1 $349 $161 $163 $252 forward $100 $-1 #
coedge $-1 $161 $349 $245 $348 reversed $100 $-1 #
coedge $-1 $350 $164 $161 $249 forward $254 $-1 #
edge $-1 $256 2.4113619081197388 $351 10.948063006929283 $248 $352 forward 7 unknown #
coedge $-1 $353 $345 $162 $251 forward $243 $-1 #
edge $-1 $354 11.062279242054764 $255 13.888782015414371 $250 $355 forward 7 unknown #
edge $-1 $256 -84.777977843562127 $354 -80.186976237737724 $163 $356 forward 7 unknown #
coedge $-1 $164 $350 $353 $357 reversed $254 $-1 #
loop $-1 $-1 $248 $242 #
vertex $-1 $357 $358 #
vertex $-1 $165 $359 #
straight-curve $-1 42.388988921781063 9.0910743656442499 59.908866717830684 0 0 -1 I I #
coedge $-1 $258 $258 $-1 $360 reversed $168 $-1 #
edge $-1 $361 0 $361 6.2831853071796004 $169 $362 forward 7 unknown #
vertex $-1 $172 $363 #
ellipse-curve $-1 40.975737535101253 11.530131822446975 2.6261198440653746 0.78801076186113728 0 0.61566146476048833 0.61566146476048833 0 -0.78801076186113728 1 I I #
coedge $-1 $262 $262 $-1 $364 reversed $175 $-1 #
edge $-1 $365 0 $365 6.2831853071796004 $176 $366 forward 7 unknown #
vertex $-1 $179 $367 #
ellipse-curve $-1 40.975737535101253 15.188718007651065 2.6261198440653746 0.78801076186113728 0 0.61566146476048833 0.61566146476048833 0 -0.78801076186113728 1 I I #
face $-1 $-1 $195 $27 $-1 $368 reversed single #
loop $-1 $-1 $282 $180 #
plane-surface $-1 0 17.627775464453794 0 0 -1 0 0 0 -1 forward_v I I I I #
coedge $-1 $369 $280 $283 $370 forward $181 $-1 #
coedge $-1 $286 $183 $184 $274 reversed $114 $-1 #
coedge $-1 $280 $369 $183 $272 reversed $181 $-1 #
edge $-1 $287 -4.4349991806210705 $371 4.4349991806210705 $271 $372 forward 7 unknown #
coedge $-1 $185 $184 $369 $373 forward $73 $-1 #
edge $-1 $278 -42.388988921781063 $371 42.388988921781063 $270 $374 forward 7 unknown #
coedge $-1 $283 $282 $185 $276 reversed $267 $-1 #
edge $-1 $375 -42.388988921781063 $277 42.388988921781063 $275 $376 forward 7 unknown #
vertex $-1 $187 $377 #
vertex $-1 $289 $378 #
straight-curve $-1 42.388988921781063 0 -4.4349991806210705 0 -1 0 I I #
coedge $-1 $269 $271 $188 $281 reversed $181 $-1 #
edge $-1 $284 -17.627775464453794 $287 17.627775464453794 $280 $379 forward 7 unknown #
coedge $-1 $275 $189 $194 $290 forward $267 $-1 #
coedge $-1 $189 $275 $269 $370 reversed $267 $-1 #
vertex $-1 $190 $380 #
straight-curve $-1 0 17.627775464453794 4.4349991806210705 -1 0 0 I I #
coedge $-1 $191 $270 $193 $289 reversed $114 $-1 #
vertex $-1 $281 $381 #
straight-curve $-1 0 -17.627775464453794 4.4349991806210705 1 0 0 I I #
edge $-1 $196 -4.4349991806210705 $278 4.4349991806210705 $193 $382 forward 7 unknown #
edge $-1 $197 -4.4349991806210705 $277 4.4349991806210705 $194 $383 forward 7 unknown #
point $-1 42.388988921781063 -17.627775464453794 4.4349991806210705 #
point $-1 42.388988921781063 17.627775464453794 4.4349991806210705 #
face $-1 $-1 $384 $28 $-1 $385 reversed single #
loop $-1 $-1 $209 $199 #
plane-surface $-1 0 -17.627775464453794 0 0 1 0 0 0 1 forward_v I I I I #
coedge $-1 $386 $202 $300 $387 forward $122 $-1 #
coedge $-1 $202 $386 $388 $389 forward $122 $-1 #
edge $-1 $390 -42.388988921781063 $301 42.388988921781063 $202 $391 forward 7 unknown #
coedge $-1 $204 $203 $392 $393 reversed $77 $-1 #
coedge $-1 $205 $211 $296 $387 reversed $200 $-1 #
vertex $-1 $387 $394 #
straight-curve $-1 42.388988921781063 -14.216235550905825 -1.4674995903105352 0 0 1 I I #
coedge $-1 $392 $395 $207 $304 forward $384 $-1 #
edge $-1 $309 -9.6667727106138894 $305 -6.2552327970659203 $303 $396 forward 7 unknown #
vertex $-1 $304 $397 #
straight-curve $-1 0 -14.216235550905825 -1.4349991806210705 -1 0 0 I I #
coedge $-1 $398 $209 $395 $399 forward $294 $-1 #
coedge $-1 $209 $398 $211 $311 reversed $294 $-1 #
vertex $-1 $399 $400 #
straight-curve $-1 0 -17.627775464453794 -1.4349991806210705 -1 0 0 I I #
edge $-1 $213 1.4349991806210705 $401 4.4349991806210705 $211 $402 forward 7 unknown #
point $-1 42.388988921781063 -14.216235550905825 -1.4349991806210705 #
point $-1 42.388988921781063 -17.627775464453794 -1.4349991806210705 #
loop $-1 $-1 $223 $215 #
plane-surface $-1 -42.388988921781063 0 0 1 0 0 0 0 -1 forward_v I I I I #
coedge $-1 $317 $218 $220 $321 reversed $130 $-1 #
coedge $-1 $218 $316 $403 $404 reversed $130 $-1 #
coedge $-1 $226 $221 $218 $319 forward $216 $-1 #
edge $-1 $322 -8.6393372195475635 $405 -2.509127637537965 $318 $406 forward 7 unknown #
coedge $-1 $220 $219 $325 $407 reversed $81 $-1 #
edge $-1 $408 0 $322 7.3943688696334533 $316 $409 forward 7 unknown #
vertex $-1 $222 $410 #
straight-curve $-1 -36.258779339771465 -0.55589417442783251 4.4349991806210705 0 1 0 I I #
coedge $-1 $403 $223 $226 $329 reversed $314 $-1 #
coedge $-1 $223 $403 $320 $407 forward $314 $-1 #
vertex $-1 $224 $411 #
straight-curve $-1 -42.388988921781063 -5.7148342319703342 35.292124535649819 0 0 1 I I #
straight-curve $-1 -42.388988921781063 -5.7148342319703342 0.30012052933733457 -0.82903756765294845 0 -0.55919291073839883 I I #
edge $-1 $405 -3.4912575342590042 $227 5.7148342319703342 $324 $412 forward 7 unknown #
point $-1 -42.388988921781063 -5.7148342319703342 4.4349991806210705 #
point $-1 -36.258779339771465 -5.7148342319703342 4.4349991806210705 #
edge $-1 $413 1 $413 0 $230 $-1 forward 7 unknown #
vertex $-1 $231 $414 #
ellipse-curve $-1 -38.764691220037861 -3.8736158787244683 1.5385222873262498 -0.55919291073839883 0 0.82903756765294845 0.41451878382647422 0 0.27959645536919941 1 I I #
point $-1 -38.909365346949784 -3.8736158787244683 2.6471563103483975 #
edge $-1 $415 1 $415 0 $234 $-1 forward 7 unknown #
vertex $-1 $235 $416 #
ellipse-curve $-1 -38.764691220037861 -1.111788348855665 1.5385222873262498 -0.55919291073839883 0 0.82903756765294845 0.41451878382647422 0 0.27959645536919941 1 I I #
point $-1 -38.909365346949784 -1.111788348855665 2.6471563103483975 #
edge $-1 $417 1 $417 0 $238 $-1 forward 7 unknown #
vertex $-1 $239 $418 #
ellipse-curve $-1 -38.764691220037861 1.6500391810131383 1.5385222873262498 -0.55919291073839883 0 0.82903756765294845 0.41451878382647422 0 0.27959645536919941 1 I I #
point $-1 -38.909365346949784 1.6500391810131383 2.6471563103483975 #
plane-surface $-1 42.388988921781063 0 0 -1 0 0 0 0 1 forward_v I I I I #
coedge $-1 $250 $419 $349 $420 forward $243 $-1 #
coedge $-1 $347 $245 $419 $421 reversed $159 $-1 #
coedge $-1 $245 $346 $350 $422 forward $159 $-1 #
edge $-1 $351 -55.115625268957743 $423 -50.52462366313334 $245 $424 forward 7 unknown #
coedge $-1 $247 $246 $345 $420 reversed $100 $-1 #
coedge $-1 $253 $248 $347 $422 reversed $254 $-1 #
vertex $-1 $348 $425 #
straight-curve $-1 42.388988921781063 6.679712457524511 0.81724050750968047 0 1 0 I I #
coedge $-1 $419 $250 $253 $357 forward $243 $-1 #
vertex $-1 $251 $426 #
straight-curve $-1 28.500206906366692 9.0910743656442499 4.4349991806210696 1 0 0 I I #
straight-curve $-1 -9.8055450968186193 9.0910743656442499 67.623199417061684 -0.61566146476048833 0 0.78801076186113728 I I #
edge $-1 $255 9.0910743656442499 $427 17.627775464453794 $253 $428 forward 7 unknown #
point $-1 42.388988921781063 9.0910743656442499 4.4349991806210705 #
point $-1 42.388988921781063 9.0910743656442499 0.81724050750968047 #
edge $-1 $429 1 $429 0 $258 $-1 forward 7 unknown #
vertex $-1 $259 $430 #
ellipse-curve $-1 38.960799283734474 11.530131822446975 1.0518775934791944 0.78801076186113728 0 0.61566146476048833 0.61566146476048833 0 -0.78801076186113728 1 I I #
point $-1 41.591398999861752 11.530131822446975 1.8381090822042419 #
edge $-1 $431 1 $431 0 $262 $-1 forward 7 unknown #
vertex $-1 $263 $432 #
ellipse-curve $-1 38.960799283734474 15.188718007651065 1.0518775934791944 0.78801076186113728 0 0.61566146476048833 0.61566146476048833 0 -0.78801076186113728 1 I I #
point $-1 41.591398999861752 15.188718007651065 1.8381090822042419 #
plane-surface $-1 42.388988921781063 0 0 -1 0 0 0 0 1 forward_v I I I I #
coedge $-1 $271 $269 $273 $373 reversed $181 $-1 #
edge $-1 $284 -4.4349991806210705 $375 4.4349991806210705 $283 $433 forward 7 unknown #
vertex $-1 $373 $434 #
straight-curve $-1 -42.388988921781063 -17.627775464453794 0 0 0 -1 I I #
edge $-1 $371 -17.627775464453794 $375 17.627775464453794 $369 $435 forward 7 unknown #
straight-curve $-1 0 -17.627775464453794 -4.4349991806210705 -1 0 0 I I #
vertex $-1 $276 $436 #
straight-curve $-1 0 17.627775464453794 -4.4349991806210705 1 0 0 I I #
point $-1 42.388988921781063 17.627775464453794 -4.4349991806210705 #
point $-1 42.388988921781063 -17.627775464453794 -4.4349991806210705 #
straight-curve $-1 -42.388988921781063 0 4.4349991806210705 0 -1 0 I I #
point $-1 -42.388988921781063 17.627775464453794 4.4349991806210705 #
point $-1 -42.388988921781063 -17.627775464453794 4.4349991806210705 #
straight-curve $-1 42.388988921781063 -17.627775464453794 0 0 0 -1 I I #
straight-curve $-1 42.388988921781063 17.627775464453794 0 0 0 -1 I I #
loop $-1 $-1 $392 $293 #
plane-surface $-1 -42.388988921781063 0 0 1 0 0 0 0 -1 forward_v I I I I #
coedge $-1 $297 $296 $398 $437 forward $122 $-1 #
edge $-1 $301 14.216235550905825 $401 17.627775464453794 $300 $438 forward 7 unknown #
coedge $-1 $395 $392 $297 $389 reversed $384 $-1 #
edge $-1 $439 -17.627775464453794 $390 -14.216235550905825 $388 $440 forward 7 unknown #
vertex $-1 $393 $441 #
straight-curve $-1 0 -14.216235550905825 -4.4349991806210705 1 0 0 I I #
coedge $-1 $388 $303 $299 $393 forward $384 $-1 #
edge $-1 $305 -0.032500409689464771 $390 2.9674995903105352 $392 $442 forward 7 unknown #
point $-1 42.388988921781063 -14.216235550905825 -4.4349991806210705 #
coedge $-1 $303 $388 $307 $399 reversed $384 $-1 #
straight-curve $-1 -42.388988921781063 -7.9610027538399049 -1.4349991806210705 0 1 0 I I #
point $-1 -42.388988921781063 -14.216235550905825 -1.4349991806210705 #
coedge $-1 $308 $307 $386 $437 reversed $294 $-1 #
edge $-1 $309 1.4349991806210705 $439 4.4349991806210705 $395 $443 forward 7 unknown #
point $-1 -42.388988921781063 -17.627775464453794 -1.4349991806210705 #
vertex $-1 $311 $444 #
straight-curve $-1 42.388988921781063 -17.627775464453794 0 0 0 -1 I I #
coedge $-1 $325 $324 $317 $404 forward $314 $-1 #
edge $-1 $405 30.857125355028749 $408 34.992004006312484 $403 $445 forward 7 unknown #
vertex $-1 $329 $446 #
straight-curve $-1 -44.898116559319028 3.4912575342590042 4.4349991806210696 -1 0 0 I I #
edge $-1 $408 -4.0471517086868367 $326 5.1589400575425017 $325 $447 forward 7 unknown #
vertex $-1 $407 $448 #
straight-curve $-1 -42.388988921781063 3.4912575342590042 0.30012052933733457 0.82903756765294845 0 0.55919291073839883 I I #
point $-1 -36.258779339771465 3.4912575342590042 4.4349991806210705 #
point $-1 -42.388988921781063 -5.7148342319703342 0.30012052933733457 #
straight-curve $-1 -42.388988921781063 0 4.4349991806210705 0 -1 0 I I #
vertex $-1 $332 $449 #
point $-1 -38.350172436211388 -3.8736158787244683 1.8181187426954493 #
vertex $-1 $336 $450 #
point $-1 -38.350172436211388 -1.111788348855665 1.8181187426954493 #
vertex $-1 $340 $451 #
point $-1 -38.350172436211388 1.6500391810131383 1.8181187426954493 #
coedge $-1 $345 $353 $346 $421 forward $243 $-1 #
edge $-1 $423 -10.948063006929283 $354 -2.4113619081197388 $345 $452 forward 7 unknown #
edge $-1 $427 -42.388988921781063 $423 -39.562486148421456 $346 $453 forward 7 unknown #
edge $-1 $427 -4.4349991806210705 $351 -0.8172405075096747 $350 $454 forward 7 unknown #
vertex $-1 $348 $455 #
straight-curve $-1 8.456422337504355 17.627775464453794 44.248946366154016 -0.61566146476048833 0 0.78801076186113728 I I #
point $-1 42.388988921781063 17.627775464453794 0.8172405075096747 #
point $-1 39.562486148421456 9.0910743656442499 4.4349991806210696 #
vertex $-1 $357 $456 #
straight-curve $-1 42.388988921781063 0 4.4349991806210705 0 1 0 I I #
vertex $-1 $360 $457 #
point $-1 39.576460748494966 11.530131822446975 0.26386683161805724 #
vertex $-1 $364 $458 #
point $-1 39.576460748494966 15.188718007651065 0.26386683161805724 #
straight-curve $-1 -42.388988921781063 17.627775464453794 0 0 0 -1 I I #
point $-1 -42.388988921781063 -17.627775464453794 -4.4349991806210705 #
straight-curve $-1 -42.388988921781063 0 -4.4349991806210705 0 1 0 I I #
point $-1 -42.388988921781063 17.627775464453794 -4.4349991806210705 #
edge $-1 $401 -42.388988921781063 $439 42.388988921781063 $398 $459 forward 7 unknown #
straight-curve $-1 42.388988921781063 0 -4.4349991806210705 0 -1 0 I I #
vertex $-1 $389 $460 #
straight-curve $-1 -42.388988921781063 0 -4.4349991806210705 0 1 0 I I #
point $-1 -42.388988921781063 -14.216235550905825 -4.4349991806210705 #
straight-curve $-1 -42.388988921781063 -14.216235550905825 -1.4674995903105352 0 0 -1 I I #
straight-curve $-1 -42.388988921781063 -17.627775464453794 0 0 0 -1 I I #
point $-1 42.388988921781063 -17.627775464453794 -4.4349991806210705 #
straight-curve $-1 -42.388988921781063 3.4912575342590042 35.292124535649819 0 0 -1 I I #
point $-1 -42.388988921781063 3.4912575342590042 4.4349991806210705 #
straight-curve $-1 -42.388988921781063 -0.55589417442783251 0.30012052933733385 0 -1 0 I I #
point $-1 -42.388988921781063 3.4912575342590042 0.30012052933733457 #
point $-1 -38.485094764668659 -3.8736158787244683 1.1240035034997757 #
point $-1 -38.485094764668659 -1.111788348855665 1.1240035034997757 #
point $-1 -38.485094764668659 1.6500391810131383 1.1240035034997757 #
straight-curve $-1 39.562486148421456 6.679712457524511 4.4349991806210696 0 -1 0 I I #
straight-curve $-1 0 17.627775464453794 4.4349991806210705 -1 0 0 I I #
straight-curve $-1 42.388988921781063 17.627775464453794 0 0 0 -1 I I #
point $-1 39.562486148421456 17.627775464453794 4.4349991806210696 #
point $-1 42.388988921781063 17.627775464453794 4.4349991806210705 #
point $-1 38.172788521873343 11.530131822446975 0.43621612871870619 #
point $-1 38.172788521873343 15.188718007651065 0.43621612871870619 #
straight-curve $-1 0 -17.627775464453794 -4.4349991806210705 -1 0 0 I I #
point $-1 -42.388988921781063 -17.627775464453794 -4.4349991806210705 #
End-of-ACIS-data 