500 0 13 0           
7 Unknown 11 ACIS 5.0 NT 24 Thu Mar 25 16:00:07 1999 
-1 9.9999999999999995e-007 1e-010 
body $-1 $13 $-1 $14 #
body $-1 $15 $-1 $16 #
body $-1 $17 $-1 $18 #
body $-1 $19 $-1 $20 #
body $-1 $21 $-1 $22 #
body $-1 $23 $-1 $24 #
body $-1 $25 $-1 $26 #
body $-1 $27 $-1 $28 #
body $-1 $29 $-1 $30 #
body $-1 $31 $-1 $32 #
body $-1 $33 $-1 $34 #
body $-1 $35 $-1 $36 #
body $-1 $37 $-1 $38 #
lump $-1 $-1 $39 $0 #
transform $-1 1 0 0 0 1 0 0 0 1 78.416699728385268 51.79158931766257 19.016382038017827 1 rotate no_reflect no_shear #
lump $-1 $-1 $40 $1 #
transform $-1 1 0 0 0 1 0 0 0 1 78.416699728385268 51.79158931766257 19.016382038017827 1 rotate no_reflect no_shear #
lump $-1 $-1 $41 $2 #
transform $-1 1 0 0 0 1 0 0 0 1 78.416699728385268 51.79158931766257 19.016382038017827 1 rotate no_reflect no_shear #
lump $-1 $-1 $42 $3 #
transform $-1 1 0 0 0 1 0 0 0 1 78.416699728385268 51.79158931766257 19.016382038017827 1 rotate no_reflect no_shear #
lump $-1 $-1 $43 $4 #
transform $-1 1 0 0 0 1 0 0 0 1 78.416699728385268 51.79158931766257 19.016382038017827 1 rotate no_reflect no_shear #
lump $-1 $-1 $44 $5 #
transform $-1 1 0 0 0 1 0 0 0 1 78.416699728385268 51.79158931766257 19.016382038017827 1 rotate no_reflect no_shear #
lump $-1 $-1 $45 $6 #
transform $-1 1 0 0 0 1 0 0 0 1 78.416699728385268 51.79158931766257 19.016382038017827 1 rotate no_reflect no_shear #
lump $-1 $-1 $46 $7 #
transform $-1 1 0 0 0 1 0 0 0 1 78.416699728385268 51.79158931766257 19.016382038017827 1 rotate no_reflect no_shear #
lump $-1 $-1 $47 $8 #
transform $-1 1 0 0 0 1 0 0 0 1 78.416699728385268 51.79158931766257 19.016382038017827 1 rotate no_reflect no_shear #
lump $-1 $-1 $48 $9 #
transform $-1 1 0 0 0 1 0 0 0 1 78.416699728385268 51.79158931766257 19.016382038017827 1 rotate no_reflect no_shear #
lump $-1 $-1 $49 $10 #
transform $-1 1 0 0 0 1 0 0 0 1 78.416699728385268 51.79158931766257 19.016382038017827 1 rotate no_reflect no_shear #
lump $-1 $-1 $50 $11 #
transform $-1 1 0 0 0 1 0 0 0 1 78.416699728385268 51.79158931766257 19.016382038017827 1 rotate no_reflect no_shear #
lump $-1 $-1 $51 $12 #
transform $-1 1 0 0 0 1 0 0 0 1 78.416699728385268 51.79158931766257 19.016382038017827 1 rotate no_reflect no_shear #
shell $-1 $-1 $-1 $52 $-1 $13 #
shell $-1 $-1 $-1 $53 $-1 $15 #
shell $-1 $-1 $-1 $54 $-1 $17 #
shell $-1 $-1 $-1 $55 $-1 $19 #
shell $-1 $-1 $-1 $56 $-1 $21 #
shell $-1 $-1 $-1 $57 $-1 $23 #
shell $-1 $-1 $-1 $58 $-1 $25 #
shell $-1 $-1 $-1 $59 $-1 $27 #
shell $-1 $-1 $-1 $60 $-1 $29 #
shell $-1 $-1 $-1 $61 $-1 $31 #
shell $-1 $-1 $-1 $62 $-1 $33 #
shell $-1 $-1 $-1 $63 $-1 $35 #
shell $-1 $-1 $-1 $64 $-1 $37 #
face $-1 $65 $66 $39 $-1 $67 forward single #
face $-1 $68 $69 $40 $-1 $70 reversed single #
face $-1 $71 $72 $41 $-1 $73 forward single #
face $-1 $74 $75 $42 $-1 $76 forward single #
face $-1 $77 $78 $43 $-1 $79 forward single #
face $-1 $80 $81 $44 $-1 $82 reversed single #
face $-1 $83 $84 $45 $-1 $85 forward single #
face $-1 $86 $87 $46 $-1 $88 forward single #
face $-1 $89 $90 $47 $-1 $91 forward single #
face $-1 $92 $93 $48 $-1 $94 reversed single #
face $-1 $95 $96 $49 $-1 $97 forward single #
face $-1 $98 $99 $50 $-1 $100 forward single #
face $-1 $101 $102 $51 $-1 $103 forward single #
face $-1 $104 $105 $39 $-1 $106 reversed single #
loop $-1 $-1 $107 $52 #
plane-surface $-1 0 0 19.016382038017827 0 0 1 1 0 0 forward_v I I I I #
face $-1 $108 $109 $40 $-1 $110 reversed single #
loop $-1 $-1 $111 $53 #
plane-surface $-1 -156.83340050735615 -17.998650677190824 144.17376656516231 0 1 0 -0.50000000669873634 0 0.8660253999169214 forward_v I I I I #
face $-1 $112 $113 $41 $-1 $114 forward single #
loop $-1 $115 $116 $54 #
cone-surface $-1 -68.690952251286717 -15.558264244410942 12.835215953249891 0.50000000669873634 0 -0.8660253999169214 0.8660253999169214 0 0.50000000669873634 1 I I 0 1 1 forward I I I I #
face $-1 $117 $118 $42 $-1 $119 forward single #
loop $-1 $120 $121 $55 #
cone-surface $-1 -68.690952251286717 -11.897684595241124 12.835215953249891 0.50000000669873634 0 -0.8660253999169214 0.8660253999169214 0 0.50000000669873634 1 I I 0 1 1 forward I I I I #
face $-1 $122 $123 $43 $-1 $124 forward single #
loop $-1 $125 $126 $56 #
cone-surface $-1 -68.690952251286717 -8.2371049460713053 12.835215953249891 0.50000000669873634 0 -0.8660253999169214 0.8660253999169214 0 0.50000000669873634 1 I I 0 1 1 forward I I I I #
face $-1 $127 $128 $44 $-1 $129 reversed single #
loop $-1 $-1 $130 $57 #
plane-surface $-1 32.302736717345766 -23.705823640632854 227.39032156743912 0 -1 0 -0.54463904215088732 0 -0.83867056331134215 forward_v I I I I #
face $-1 $131 $132 $45 $-1 $133 forward single #
loop $-1 $134 $135 $58 #
cone-surface $-1 71.196478058902784 -43.913758384818877 13.777310219317558 -0.54463904215088732 0 -0.83867056331134215 1.6773411266226843 0 -1.0892780843017746 1 I I 0 1 2 forward I I I I #
face $-1 $136 $137 $46 $-1 $138 forward single #
loop $-1 $139 $140 $59 #
cone-surface $-1 71.196478058902784 -36.335782855749116 13.777310219317558 -0.54463904215088732 0 -0.83867056331134215 1.6773411266226843 0 -1.0892780843017746 1 I I 0 1 2 forward I I I I #
face $-1 $141 $142 $47 $-1 $143 forward single #
loop $-1 $144 $145 $60 #
cone-surface $-1 71.196478058902784 -28.757807326679362 13.777310219317558 -0.54463904215088732 0 -0.83867056331134215 1.6773411266226843 0 -1.0892780843017746 1 I I 0 1 2 forward I I I I #
face $-1 $146 $147 $48 $-1 $148 reversed single #
loop $-1 $-1 $149 $61 #
plane-surface $-1 32.302736717345766 48.965742070865389 227.39032156743912 0 -1 0 -0.54463904215088732 0 -0.83867056331134215 forward_v I I I I #
face $-1 $150 $151 $49 $-1 $152 forward single #
loop $-1 $153 $154 $62 #
cone-surface $-1 71.196478058902784 28.757807326679369 13.777310219317558 -0.54463904215088732 0 -0.83867056331134215 1.6773411266226843 0 -1.0892780843017746 1 I I 0 1 2 forward I I I I #
face $-1 $155 $156 $50 $-1 $157 forward single #
loop $-1 $158 $159 $63 #
cone-surface $-1 71.196478058902784 36.33578285574913 13.777310219317558 -0.54463904215088732 0 -0.83867056331134215 1.6773411266226843 0 -1.0892780843017746 1 I I 0 1 2 forward I I I I #
face $-1 $160 $161 $51 $-1 $162 forward single #
loop $-1 $163 $164 $64 #
cone-surface $-1 71.196478058902784 43.913758384818877 13.777310219317558 -0.54463904215088732 0 -0.83867056331134215 1.6773411266226843 0 -1.0892780843017746 1 I I 0 1 2 forward I I I I #
face $-1 $165 $166 $39 $-1 $167 reversed single #
loop $-1 $-1 $168 $65 #
plane-surface $-1 0 0 -19.016382038017827 0 0 1 1 0 0 forward_v I I I I #
coedge $-1 $169 $170 $171 $172 forward $66 $-1 #
face $-1 $173 $174 $40 $-1 $175 reversed single #
loop $-1 $-1 $176 $68 #
plane-surface $-1 -78.416699728385282 -11.897684595241124 8.3520590802823165 -0.50000000669873634 0 0.8660253999169214 0.8660253999169214 0 0.50000000669873634 forward_v I I I I #
coedge $-1 $177 $178 $179 $180 reversed $69 $-1 #
face $-1 $-1 $181 $41 $-1 $182 forward single #
loop $-1 $183 $184 $71 #
cone-surface $-1 -67.95077920142154 -15.558264244410942 11.553198647391248 0.50000000669873634 0 -0.8660253999169214 0.4330126999584607 0 0.25000000334936817 1 I I -0.70710678118654746 0.70710678118654746 0.5 forward I I I I #
loop $-1 $-1 $185 $54 #
coedge $-1 $116 $116 $186 $187 reversed $72 $-1 #
face $-1 $-1 $188 $42 $-1 $189 forward single #
loop $-1 $190 $191 $74 #
cone-surface $-1 -67.95077920142154 -11.897684595241124 11.553198647391248 0.50000000669873634 0 -0.8660253999169214 0.4330126999584607 0 0.25000000334936817 1 I I -0.70710678118654746 0.70710678118654746 0.5 forward I I I I #
loop $-1 $-1 $192 $55 #
coedge $-1 $121 $121 $193 $194 reversed $75 $-1 #
face $-1 $-1 $195 $43 $-1 $196 forward single #
loop $-1 $197 $198 $77 #
cone-surface $-1 -67.95077920142154 -8.2371049460713053 11.553198647391248 0.50000000669873634 0 -0.8660253999169214 0.4330126999584607 0 0.25000000334936817 1 I I -0.70710678118654746 0.70710678118654746 0.5 forward I I I I #
loop $-1 $-1 $199 $56 #
coedge $-1 $126 $126 $200 $201 reversed $78 $-1 #
face $-1 $202 $203 $44 $-1 $204 reversed single #
loop $-1 $-1 $205 $80 #
plane-surface $-1 -53.114855740057237 -36.335782855749116 95.858766098996625 0.54463904215088732 0 0.83867056331134215 0.83867056331134215 0 -0.54463904215088732 forward_v I I I I #
coedge $-1 $206 $207 $208 $209 reversed $81 $-1 #
face $-1 $-1 $210 $45 $-1 $211 forward single #
loop $-1 $212 $213 $83 #
cone-surface $-1 70.033948707815554 -43.913758384818877 11.987172035518046 -0.54463904215088732 0 -0.83867056331134215 0.83867056331134215 0 -0.54463904215088732 1 I I -0.70710678118654746 0.70710678118654746 1 forward I I I I #
loop $-1 $-1 $214 $58 #
coedge $-1 $135 $135 $215 $216 reversed $84 $-1 #
face $-1 $-1 $217 $46 $-1 $218 forward single #
loop $-1 $219 $220 $86 #
cone-surface $-1 70.033948707815554 -36.335782855749116 11.987172035518046 -0.54463904215088732 0 -0.83867056331134215 0.83867056331134215 0 -0.54463904215088732 1 I I -0.70710678118654746 0.70710678118654746 1 forward I I I I #
loop $-1 $-1 $221 $59 #
coedge $-1 $140 $140 $222 $223 reversed $87 $-1 #
face $-1 $-1 $224 $47 $-1 $225 forward single #
loop $-1 $226 $227 $89 #
cone-surface $-1 70.033948707815554 -28.757807326679362 11.987172035518046 -0.54463904215088732 0 -0.83867056331134215 0.83867056331134215 0 -0.54463904215088732 1 I I -0.70710678118654746 0.70710678118654746 1 forward I I I I #
loop $-1 $-1 $228 $60 #
coedge $-1 $145 $145 $229 $230 reversed $90 $-1 #
face $-1 $231 $232 $48 $-1 $233 reversed single #
loop $-1 $-1 $234 $92 #
plane-surface $-1 -53.114855740057237 36.33578285574913 95.858766098996625 0.54463904215088732 0 0.83867056331134215 0.83867056331134215 0 -0.54463904215088732 forward_v I I I I #
coedge $-1 $235 $236 $237 $238 reversed $93 $-1 #
face $-1 $-1 $239 $49 $-1 $240 forward single #
loop $-1 $241 $242 $95 #
cone-surface $-1 70.033948707815554 28.757807326679369 11.987172035518046 -0.54463904215088732 0 -0.83867056331134215 0.83867056331134215 0 -0.54463904215088732 1 I I -0.70710678118654746 0.70710678118654746 1 forward I I I I #
loop $-1 $-1 $243 $62 #
coedge $-1 $154 $154 $244 $245 reversed $96 $-1 #
face $-1 $-1 $246 $50 $-1 $247 forward single #
loop $-1 $248 $249 $98 #
cone-surface $-1 70.033948707815554 36.33578285574913 11.987172035518046 -0.54463904215088732 0 -0.83867056331134215 0.83867056331134215 0 -0.54463904215088732 1 I I -0.70710678118654746 0.70710678118654746 1 forward I I I I #
loop $-1 $-1 $250 $63 #
coedge $-1 $159 $159 $251 $252 reversed $99 $-1 #
face $-1 $-1 $253 $51 $-1 $254 forward single #
loop $-1 $255 $256 $101 #
cone-surface $-1 70.033948707815554 43.913758384818877 11.987172035518046 -0.54463904215088732 0 -0.83867056331134215 0.83867056331134215 0 -0.54463904215088732 1 I I -0.70710678118654746 0.70710678118654746 1 forward I I I I #
loop $-1 $-1 $257 $64 #
coedge $-1 $164 $164 $258 $259 reversed $102 $-1 #
face $-1 $260 $261 $39 $-1 $262 reversed single #
loop $-1 $-1 $263 $104 #
plane-surface $-1 0 -51.79158931766257 0 0 1 0 0 0 1 forward_v I I I I #
coedge $-1 $264 $265 $266 $267 forward $105 $-1 #
coedge $-1 $268 $107 $269 $270 forward $66 $-1 #
coedge $-1 $107 $268 $271 $272 forward $66 $-1 #
coedge $-1 $273 $274 $107 $172 reversed $275 $-1 #
edge $-1 $276 -51.79158931766257 $277 51.79158931766257 $171 $278 forward 7 unknown #
face $-1 $279 $280 $40 $-1 $281 reversed single #
loop $-1 $-1 $282 $108 #
plane-surface $-1 -156.83340050735615 -5.7967185132914238 144.17376656516231 0 -1 0 0.50000000669873634 0 -0.8660253999169214 forward_v I I I I #
coedge $-1 $283 $284 $285 $286 reversed $109 $-1 #
coedge $-1 $178 $111 $287 $288 reversed $69 $-1 #
coedge $-1 $111 $177 $283 $289 reversed $69 $-1 #
coedge $-1 $285 $290 $111 $180 forward $291 $-1 #
edge $-1 $292 5.2529280480939633e-007 $293 18.471149386458279 $179 $294 forward 7 unknown #
loop $-1 $-1 $186 $112 #
plane-surface $-1 -78.416699728385282 -11.897684595241124 8.3520590802823165 -0.50000000669873634 0 0.8660253999169214 0.8660253999169214 0 0.50000000669873634 forward_v I I I I #
loop $-1 $-1 $295 $71 #
coedge $-1 $184 $184 $185 $296 reversed $113 $-1 #
coedge $-1 $185 $185 $184 $296 forward $115 $-1 #
coedge $-1 $186 $186 $116 $187 forward $181 $-1 #
edge $-1 $297 0 $297 6.2831853071796004 $186 $298 forward 7 unknown #
loop $-1 $-1 $193 $117 #
plane-surface $-1 -78.416699728385282 -11.897684595241124 8.3520590802823165 -0.50000000669873634 0 0.8660253999169214 0.8660253999169214 0 0.50000000669873634 forward_v I I I I #
loop $-1 $-1 $299 $74 #
coedge $-1 $191 $191 $192 $300 reversed $118 $-1 #
coedge $-1 $192 $192 $191 $300 forward $120 $-1 #
coedge $-1 $193 $193 $121 $194 forward $188 $-1 #
edge $-1 $301 0 $301 6.2831853071796004 $193 $302 forward 7 unknown #
loop $-1 $-1 $200 $122 #
plane-surface $-1 -78.416699728385282 -11.897684595241124 8.3520590802823165 -0.50000000669873634 0 0.8660253999169214 0.8660253999169214 0 0.50000000669873634 forward_v I I I I #
loop $-1 $-1 $303 $77 #
coedge $-1 $198 $198 $199 $304 reversed $123 $-1 #
coedge $-1 $199 $199 $198 $304 forward $125 $-1 #
coedge $-1 $200 $200 $126 $201 forward $195 $-1 #
edge $-1 $305 0 $305 6.2831853071796004 $200 $306 forward 7 unknown #
face $-1 $307 $308 $44 $-1 $309 forward single #
loop $-1 $-1 $310 $127 #
plane-surface $-1 32.302736717345766 -48.965742070865375 227.39032156743912 0 1 0 0.54463904215088732 0 0.83867056331134215 forward_v I I I I #
coedge $-1 $311 $312 $313 $314 reversed $128 $-1 #
coedge $-1 $207 $130 $315 $316 reversed $81 $-1 #
coedge $-1 $130 $206 $311 $317 reversed $81 $-1 #
coedge $-1 $313 $318 $130 $209 forward $308 $-1 #
edge $-1 $319 -62.265331369712385 $320 -49.060668648620094 $208 $321 forward 7 unknown #
loop $-1 $-1 $215 $131 #
plane-surface $-1 -53.114855740057237 -36.335782855749116 95.858766098996625 0.54463904215088732 0 0.83867056331134215 0.83867056331134215 0 -0.54463904215088732 forward_v I I I I #
loop $-1 $-1 $322 $83 #
coedge $-1 $213 $213 $214 $323 reversed $132 $-1 #
coedge $-1 $214 $214 $213 $323 forward $134 $-1 #
coedge $-1 $215 $215 $135 $216 forward $210 $-1 #
edge $-1 $324 0 $324 6.2831853071796004 $215 $325 forward 7 unknown #
loop $-1 $-1 $222 $136 #
plane-surface $-1 -53.114855740057237 -36.335782855749116 95.858766098996625 0.54463904215088732 0 0.83867056331134215 0.83867056331134215 0 -0.54463904215088732 forward_v I I I I #
loop $-1 $-1 $326 $86 #
coedge $-1 $220 $220 $221 $327 reversed $137 $-1 #
coedge $-1 $221 $221 $220 $327 forward $139 $-1 #
coedge $-1 $222 $222 $140 $223 forward $217 $-1 #
edge $-1 $328 0 $328 6.2831853071796004 $222 $329 forward 7 unknown #
loop $-1 $-1 $229 $141 #
plane-surface $-1 -53.114855740057237 -36.335782855749116 95.858766098996625 0.54463904215088732 0 0.83867056331134215 0.83867056331134215 0 -0.54463904215088732 forward_v I I I I #
loop $-1 $-1 $330 $89 #
coedge $-1 $227 $227 $228 $331 reversed $142 $-1 #
coedge $-1 $228 $228 $227 $331 forward $144 $-1 #
coedge $-1 $229 $229 $145 $230 forward $224 $-1 #
edge $-1 $332 0 $332 6.2831853071796004 $229 $333 forward 7 unknown #
face $-1 $334 $335 $48 $-1 $336 reversed single #
loop $-1 $-1 $337 $146 #
plane-surface $-1 32.302736717345766 23.705823640632868 227.39032156743912 0 1 0 0.54463904215088732 0 0.83867056331134215 forward_v I I I I #
coedge $-1 $338 $339 $340 $341 reversed $147 $-1 #
coedge $-1 $236 $149 $342 $343 reversed $93 $-1 #
coedge $-1 $149 $235 $338 $344 reversed $93 $-1 #
coedge $-1 $340 $345 $149 $238 forward $346 $-1 #
edge $-1 $347 -62.265331369712385 $348 -49.060668648620094 $237 $349 forward 7 unknown #
loop $-1 $-1 $244 $150 #
plane-surface $-1 -53.114855740057237 36.33578285574913 95.858766098996625 0.54463904215088732 0 0.83867056331134215 0.83867056331134215 0 -0.54463904215088732 forward_v I I I I #
loop $-1 $-1 $350 $95 #
coedge $-1 $242 $242 $243 $351 reversed $151 $-1 #
coedge $-1 $243 $243 $242 $351 forward $153 $-1 #
coedge $-1 $244 $244 $154 $245 forward $239 $-1 #
edge $-1 $352 0 $352 6.2831853071796004 $244 $353 forward 7 unknown #
loop $-1 $-1 $251 $155 #
plane-surface $-1 -53.114855740057237 36.33578285574913 95.858766098996625 0.54463904215088732 0 0.83867056331134215 0.83867056331134215 0 -0.54463904215088732 forward_v I I I I #
loop $-1 $-1 $354 $98 #
coedge $-1 $249 $249 $250 $355 reversed $156 $-1 #
coedge $-1 $250 $250 $249 $355 forward $158 $-1 #
coedge $-1 $251 $251 $159 $252 forward $246 $-1 #
edge $-1 $356 0 $356 6.2831853071796004 $251 $357 forward 7 unknown #
loop $-1 $-1 $258 $160 #
plane-surface $-1 -53.114855740057237 36.33578285574913 95.858766098996625 0.54463904215088732 0 0.83867056331134215 0.83867056331134215 0 -0.54463904215088732 forward_v I I I I #
loop $-1 $-1 $358 $101 #
coedge $-1 $256 $256 $257 $359 reversed $161 $-1 #
coedge $-1 $257 $257 $256 $359 forward $163 $-1 #
coedge $-1 $258 $258 $164 $259 forward $253 $-1 #
edge $-1 $360 0 $360 6.2831853071796004 $258 $361 forward 7 unknown #
face $-1 $362 $363 $39 $-1 $364 reversed single #
loop $-1 $-1 $365 $165 #
plane-surface $-1 -78.416699728385268 0 0 1 0 0 0 0 -1 forward_v I I I I #
coedge $-1 $366 $271 $367 $368 forward $166 $-1 #
coedge $-1 $369 $168 $366 $370 forward $105 $-1 #
coedge $-1 $168 $369 $371 $372 forward $105 $-1 #
coedge $-1 $274 $273 $168 $267 reversed $275 $-1 #
edge $-1 $373 -51.79158931766257 $374 51.79158931766257 $266 $375 forward 7 unknown #
coedge $-1 $170 $169 $376 $377 forward $66 $-1 #
coedge $-1 $378 $379 $169 $270 reversed $363 $-1 #
edge $-1 $277 -78.416699728385268 $380 78.416699728385268 $269 $381 forward 7 unknown #
coedge $-1 $263 $382 $170 $272 reversed $166 $-1 #
edge $-1 $383 -78.416699728385268 $276 78.416699728385268 $271 $384 forward 7 unknown #
coedge $-1 $266 $171 $382 $385 forward $275 $-1 #
coedge $-1 $171 $266 $378 $386 reversed $275 $-1 #
loop $-1 $-1 $273 $362 #
vertex $-1 $172 $387 #
vertex $-1 $172 $388 #
straight-curve $-1 78.416699728385268 0 19.016382038017827 0 1 0 I I #
face $-1 $-1 $291 $40 $-1 $389 forward single #
loop $-1 $-1 $390 $173 #
plane-surface $-1 -78.416699728385268 0 0 1 0 0 0 0 -1 forward_v I I I I #
coedge $-1 $391 $392 $393 $394 reversed $174 $-1 #
coedge $-1 $395 $176 $178 $289 forward $109 $-1 #
coedge $-1 $176 $395 $391 $396 forward $109 $-1 #
coedge $-1 $393 $179 $176 $286 forward $291 $-1 #
edge $-1 $293 -12.049808379570262 $397 0.15212378432913809 $285 $398 forward 7 unknown #
coedge $-1 $399 $400 $177 $288 forward $280 $-1 #
edge $-1 $401 -63.734824202298832 $292 -53.070501244563332 $287 $402 forward 7 unknown #
edge $-1 $293 -21.328645629721073 $401 -1.6747853295891438e-014 $178 $403 forward 7 unknown #
coedge $-1 $179 $393 $399 $404 forward $291 $-1 #
loop $-1 $-1 $393 $279 #
vertex $-1 $288 $405 #
vertex $-1 $180 $406 #
straight-curve $-1 -78.416700253678073 -17.998650677190824 19.016382038017824 1 0 0 I I #
coedge $-1 $295 $295 $-1 $407 reversed $183 $-1 #
edge $-1 $408 0 $408 6.2831853071796004 $184 $409 forward 7 unknown #
vertex $-1 $187 $410 #
ellipse-curve $-1 -69.181125297802524 -15.558264244410942 13.684220559150077 -0.50000000669873634 0 0.8660253999169214 0.8660253999169214 0 0.50000000669873634 1 I I #
coedge $-1 $299 $299 $-1 $411 reversed $190 $-1 #
edge $-1 $412 0 $412 6.2831853071796004 $191 $413 forward 7 unknown #
vertex $-1 $194 $414 #
ellipse-curve $-1 -69.181125297802524 -11.897684595241124 13.684220559150077 -0.50000000669873634 0 0.8660253999169214 0.8660253999169214 0 0.50000000669873634 1 I I #
coedge $-1 $303 $303 $-1 $415 reversed $197 $-1 #
edge $-1 $416 0 $416 6.2831853071796004 $198 $417 forward 7 unknown #
vertex $-1 $201 $418 #
ellipse-curve $-1 -69.181125297802524 -8.2371049460713053 13.684220559150077 -0.50000000669873634 0 0.8660253999169214 0.8660253999169214 0 0.50000000669873634 1 I I #
face $-1 $-1 $419 $44 $-1 $420 reversed single #
loop $-1 $-1 $208 $202 #
plane-surface $-1 0 0 19.016382038017827 0 0 1 1 0 0 forward_v I I I I #
coedge $-1 $421 $422 $423 $424 reversed $203 $-1 #
coedge $-1 $425 $205 $207 $317 forward $128 $-1 #
coedge $-1 $205 $425 $421 $426 forward $128 $-1 #
coedge $-1 $423 $208 $205 $314 forward $308 $-1 #
edge $-1 $320 5.5379322127582959 $427 30.797850642990817 $313 $428 forward 7 unknown #
coedge $-1 $429 $430 $206 $316 forward $419 $-1 #
edge $-1 $431 -103.25398714212594 $319 -94.678778745701734 $315 $432 forward 7 unknown #
edge $-1 $320 141.08864424686308 $431 156.83339945677054 $207 $433 forward 7 unknown #
coedge $-1 $208 $423 $429 $434 forward $308 $-1 #
vertex $-1 $316 $435 #
vertex $-1 $209 $436 #
straight-curve $-1 16.151368358672883 -23.705823640632854 19.016382038017824 -1 0 0 I I #
coedge $-1 $322 $322 $-1 $437 reversed $212 $-1 #
edge $-1 $438 0 $438 6.2831853071796004 $213 $439 forward 7 unknown #
vertex $-1 $216 $440 #
ellipse-curve $-1 71.814368367839108 -43.913758384818877 14.728777839805712 0.54463904215088732 0 0.83867056331134215 1.6773411266226843 0 -1.0892780843017746 1 I I #
coedge $-1 $326 $326 $-1 $441 reversed $219 $-1 #
edge $-1 $442 0 $442 6.2831853071796004 $220 $443 forward 7 unknown #
vertex $-1 $223 $444 #
ellipse-curve $-1 71.814368367839108 -36.335782855749116 14.728777839805712 0.54463904215088732 0 0.83867056331134215 1.6773411266226843 0 -1.0892780843017746 1 I I #
coedge $-1 $330 $330 $-1 $445 reversed $226 $-1 #
edge $-1 $446 0 $446 6.2831853071796004 $227 $447 forward 7 unknown #
vertex $-1 $230 $448 #
ellipse-curve $-1 71.814368367839108 -28.757807326679362 14.728777839805712 0.54463904215088732 0 0.83867056331134215 1.6773411266226843 0 -1.0892780843017746 1 I I #
face $-1 $-1 $346 $48 $-1 $449 forward single #
loop $-1 $-1 $450 $231 #
plane-surface $-1 78.416699728385268 0 0 -1 0 0 0 0 1 forward_v I I I I #
coedge $-1 $451 $452 $453 $454 reversed $232 $-1 #
coedge $-1 $455 $234 $236 $344 forward $147 $-1 #
coedge $-1 $234 $455 $451 $456 forward $147 $-1 #
coedge $-1 $453 $237 $234 $341 forward $346 $-1 #
edge $-1 $348 -30.797850642990824 $457 -5.5379322127583031 $340 $458 forward 7 unknown #
coedge $-1 $459 $460 $235 $343 forward $335 $-1 #
edge $-1 $461 -103.25398714212594 $347 -94.678778745701734 $342 $462 forward 7 unknown #
edge $-1 $348 141.08864424686308 $461 156.83339945677054 $236 $463 forward 7 unknown #
coedge $-1 $237 $453 $459 $464 forward $346 $-1 #
loop $-1 $-1 $453 $334 #
vertex $-1 $343 $465 #
vertex $-1 $238 $466 #
straight-curve $-1 16.151368358672883 48.965742070865389 19.016382038017824 -1 0 0 I I #
coedge $-1 $350 $350 $-1 $467 reversed $241 $-1 #
edge $-1 $468 0 $468 6.2831853071796004 $242 $469 forward 7 unknown #
vertex $-1 $245 $470 #
ellipse-curve $-1 71.814368367839108 28.757807326679369 14.728777839805712 0.54463904215088732 0 0.83867056331134215 1.6773411266226843 0 -1.0892780843017746 1 I I #
coedge $-1 $354 $354 $-1 $471 reversed $248 $-1 #
edge $-1 $472 0 $472 6.2831853071796004 $249 $473 forward 7 unknown #
vertex $-1 $252 $474 #
ellipse-curve $-1 71.814368367839108 36.33578285574913 14.728777839805712 0.54463904215088732 0 0.83867056331134215 1.6773411266226843 0 -1.0892780843017746 1 I I #
coedge $-1 $358 $358 $-1 $475 reversed $255 $-1 #
edge $-1 $476 0 $476 6.2831853071796004 $256 $477 forward 7 unknown #
vertex $-1 $259 $478 #
ellipse-curve $-1 71.814368367839108 43.913758384818877 14.728777839805712 0.54463904215088732 0 0.83867056331134215 1.6773411266226843 0 -1.0892780843017746 1 I I #
face $-1 $-1 $275 $39 $-1 $479 reversed single #
loop $-1 $-1 $378 $260 #
plane-surface $-1 0 51.79158931766257 0 0 -1 0 0 0 -1 forward_v I I I I #
coedge $-1 $480 $376 $379 $481 forward $261 $-1 #
coedge $-1 $382 $263 $264 $370 reversed $166 $-1 #
coedge $-1 $376 $480 $263 $368 reversed $261 $-1 #
edge $-1 $383 -19.016382038017827 $482 19.016382038017827 $367 $483 forward 7 unknown #
coedge $-1 $265 $264 $480 $484 forward $105 $-1 #
edge $-1 $374 -78.416699728385268 $482 78.416699728385268 $366 $485 forward 7 unknown #
coedge $-1 $379 $378 $265 $372 reversed $363 $-1 #
edge $-1 $486 -78.416699728385268 $373 78.416699728385268 $371 $487 forward 7 unknown #
vertex $-1 $267 $488 #
vertex $-1 $385 $489 #
straight-curve $-1 78.416699728385268 0 -19.016382038017827 0 -1 0 I I #
coedge $-1 $365 $367 $268 $377 reversed $261 $-1 #
edge $-1 $380 -51.79158931766257 $383 51.79158931766257 $376 $490 forward 7 unknown #
coedge $-1 $371 $269 $274 $386 forward $363 $-1 #
coedge $-1 $269 $371 $365 $481 reversed $363 $-1 #
vertex $-1 $270 $491 #
straight-curve $-1 0 51.79158931766257 19.016382038017827 -1 0 0 I I #
coedge $-1 $271 $366 $273 $385 reversed $166 $-1 #
vertex $-1 $377 $492 #
straight-curve $-1 0 -51.79158931766257 19.016382038017827 1 0 0 I I #
edge $-1 $276 -19.016382038017827 $374 19.016382038017827 $273 $493 forward 7 unknown #
edge $-1 $277 -19.016382038017827 $373 19.016382038017827 $274 $494 forward 7 unknown #
point $-1 78.416699728385268 -51.79158931766257 19.016382038017827 #
point $-1 78.416699728385268 51.79158931766257 19.016382038017827 #
plane-surface $-1 0 0 19.016382038017827 0 0 1 1 0 0 forward_v I I I I #
coedge $-1 $400 $399 $392 $495 forward $280 $-1 #
coedge $-1 $392 $282 $284 $396 reversed $174 $-1 #
coedge $-1 $282 $391 $390 $495 reversed $174 $-1 #
coedge $-1 $290 $285 $282 $394 forward $291 $-1 #
edge $-1 $397 -18.471149386458279 $496 -5.2529280480939633e-007 $393 $497 forward 7 unknown #
coedge $-1 $284 $283 $400 $498 reversed $109 $-1 #
edge $-1 $499 1.6747853295891438e-014 $397 21.328645629721073 $391 $500 forward 7 unknown #
vertex $-1 $286 $501 #
straight-curve $-1 -59.945550867219794 -5.9488422976205619 19.016382038017827 0 1 0 I I #
coedge $-1 $390 $287 $290 $404 reversed $280 $-1 #
coedge $-1 $287 $390 $395 $498 forward $280 $-1 #
vertex $-1 $288 $502 #
straight-curve $-1 -78.416699728385268 -17.998650677190824 72.086883282581155 0 0 1 I I #
straight-curve $-1 -78.416699728385282 -17.998650677190824 8.3520590802823165 -0.8660253999169214 0 -0.50000000669873634 I I #
edge $-1 $496 5.7967185132914238 $292 17.998650677190824 $399 $503 forward 7 unknown #
point $-1 -78.416699728385268 -17.998650677190824 19.016382038017827 #
point $-1 -59.945550867219794 -17.998650677190824 19.016382038017827 #
edge $-1 $504 1 $504 0 $295 $-1 forward 7 unknown #
vertex $-1 $296 $505 #
ellipse-curve $-1 -68.20077920477091 -15.558264244410942 11.986211347349709 -0.50000000669873634 0 0.8660253999169214 0.8660253999169214 0 0.50000000669873634 1 I I #
point $-1 -68.315099897885602 -15.558264244410942 14.184220565848811 #
edge $-1 $506 1 $506 0 $299 $-1 forward 7 unknown #
vertex $-1 $300 $507 #
ellipse-curve $-1 -68.20077920477091 -11.897684595241124 11.986211347349709 -0.50000000669873634 0 0.8660253999169214 0.8660253999169214 0 0.50000000669873634 1 I I #
point $-1 -68.315099897885602 -11.897684595241124 14.184220565848811 #
edge $-1 $508 1 $508 0 $303 $-1 forward 7 unknown #
vertex $-1 $304 $509 #
ellipse-curve $-1 -68.20077920477091 -8.2371049460713053 11.986211347349709 -0.50000000669873634 0 0.8660253999169214 0.8660253999169214 0 0.50000000669873634 1 I I #
point $-1 -68.315099897885602 -8.2371049460713053 14.184220565848811 #
loop $-1 $-1 $315 $307 #
plane-surface $-1 78.416699728385268 0 0 -1 0 0 0 0 1 forward_v I I I I #
coedge $-1 $422 $310 $312 $426 reversed $203 $-1 #
coedge $-1 $310 $421 $510 $511 reversed $203 $-1 #
coedge $-1 $318 $313 $310 $424 forward $308 $-1 #
edge $-1 $427 49.060668648620094 $512 62.265331369712385 $423 $513 forward 7 unknown #
coedge $-1 $312 $311 $430 $514 reversed $128 $-1 #
edge $-1 $515 -156.83339945677054 $427 -141.08864424686308 $421 $516 forward 7 unknown #
vertex $-1 $314 $517 #
straight-curve $-1 65.212037007292963 -18.167891427874558 19.016382038017824 0 -1 0 I I #
coedge $-1 $510 $315 $318 $434 reversed $419 $-1 #
coedge $-1 $315 $510 $425 $514 forward $419 $-1 #
vertex $-1 $316 $518 #
straight-curve $-1 78.416699728385268 -23.705823640632854 113.69516078371956 0 0 1 I I #
straight-curve $-1 -53.114855740057237 -23.705823640632854 95.858766098996625 0.83867056331134215 0 -0.54463904215088732 I I #
edge $-1 $512 -48.965742070865375 $319 -23.705823640632854 $429 $519 forward 7 unknown #
point $-1 78.416699728385268 -23.705823640632854 19.016382038017827 #
point $-1 65.212037007292977 -23.705823640632854 19.016382038017824 #
edge $-1 $520 1 $520 0 $322 $-1 forward 7 unknown #
vertex $-1 $323 $521 #
ellipse-curve $-1 70.578587749966445 -43.913758384818877 12.825842598829389 0.54463904215088732 0 0.83867056331134215 1.6773411266226843 0 -1.0892780843017746 1 I I #
point $-1 73.491709494461801 -43.913758384818877 13.639499755503952 #
edge $-1 $522 1 $522 0 $326 $-1 forward 7 unknown #
vertex $-1 $327 $523 #
ellipse-curve $-1 70.578587749966445 -36.335782855749116 12.825842598829389 0.54463904215088732 0 0.83867056331134215 1.6773411266226843 0 -1.0892780843017746 1 I I #
point $-1 73.491709494461801 -36.335782855749116 13.639499755503952 #
edge $-1 $524 1 $524 0 $330 $-1 forward 7 unknown #
vertex $-1 $331 $525 #
ellipse-curve $-1 70.578587749966445 -28.757807326679362 12.825842598829389 0.54463904215088732 0 0.83867056331134215 1.6773411266226843 0 -1.0892780843017746 1 I I #
point $-1 73.491709494461801 -28.757807326679362 13.639499755503952 #
plane-surface $-1 0 0 19.016382038017827 0 0 1 1 0 0 forward_v I I I I #
coedge $-1 $460 $459 $452 $526 forward $335 $-1 #
coedge $-1 $452 $337 $339 $456 reversed $232 $-1 #
coedge $-1 $337 $451 $450 $526 reversed $232 $-1 #
coedge $-1 $345 $340 $337 $454 forward $346 $-1 #
edge $-1 $457 49.060668648620094 $527 62.265331369712385 $453 $528 forward 7 unknown #
coedge $-1 $339 $338 $460 $529 reversed $147 $-1 #
edge $-1 $530 -156.83339945677054 $457 -141.08864424686308 $451 $531 forward 7 unknown #
vertex $-1 $341 $532 #
straight-curve $-1 65.212037007292963 18.167891427874565 19.016382038017824 0 -1 0 I I #
coedge $-1 $450 $342 $345 $464 reversed $335 $-1 #
coedge $-1 $342 $450 $455 $529 forward $335 $-1 #
vertex $-1 $343 $533 #
straight-curve $-1 78.416699728385268 48.965742070865389 113.69516078371956 0 0 1 I I #
straight-curve $-1 -53.114855740057237 48.965742070865389 95.858766098996625 0.83867056331134215 0 -0.54463904215088732 I I #
edge $-1 $527 23.705823640632868 $347 48.965742070865389 $459 $534 forward 7 unknown #
point $-1 78.416699728385268 48.965742070865389 19.016382038017827 #
point $-1 65.212037007292977 48.965742070865389 19.016382038017824 #
edge $-1 $535 1 $535 0 $350 $-1 forward 7 unknown #
vertex $-1 $351 $536 #
ellipse-curve $-1 70.578587749966445 28.757807326679369 12.825842598829389 0.54463904215088732 0 0.83867056331134215 1.6773411266226843 0 -1.0892780843017746 1 I I #
point $-1 73.491709494461801 28.757807326679369 13.639499755503952 #
edge $-1 $537 1 $537 0 $354 $-1 forward 7 unknown #
vertex $-1 $355 $538 #
ellipse-curve $-1 70.578587749966445 36.33578285574913 12.825842598829389 0.54463904215088732 0 0.83867056331134215 1.6773411266226843 0 -1.0892780843017746 1 I I #
point $-1 73.491709494461801 36.33578285574913 13.639499755503952 #
edge $-1 $539 1 $539 0 $358 $-1 forward 7 unknown #
vertex $-1 $359 $540 #
ellipse-curve $-1 70.578587749966445 43.913758384818877 12.825842598829389 0.54463904215088732 0 0.83867056331134215 1.6773411266226843 0 -1.0892780843017746 1 I I #
point $-1 73.491709494461801 43.913758384818877 13.639499755503952 #
plane-surface $-1 78.416699728385268 0 0 -1 0 0 0 0 1 forward_v I I I I #
coedge $-1 $367 $365 $369 $484 reversed $261 $-1 #
edge $-1 $380 -19.016382038017827 $486 19.016382038017827 $379 $541 forward 7 unknown #
vertex $-1 $484 $542 #
straight-curve $-1 -78.416699728385268 -51.79158931766257 0 0 0 -1 I I #
edge $-1 $482 -51.79158931766257 $486 51.79158931766257 $480 $543 forward 7 unknown #
straight-curve $-1 0 -51.79158931766257 -19.016382038017827 -1 0 0 I I #
vertex $-1 $372 $544 #
straight-curve $-1 0 51.79158931766257 -19.016382038017827 1 0 0 I I #
point $-1 78.416699728385268 51.79158931766257 -19.016382038017827 #
point $-1 78.416699728385268 -51.79158931766257 -19.016382038017827 #
straight-curve $-1 -78.416699728385268 0 19.016382038017827 0 -1 0 I I #
point $-1 -78.416699728385268 51.79158931766257 19.016382038017827 #
point $-1 -78.416699728385268 -51.79158931766257 19.016382038017827 #
straight-curve $-1 78.416699728385268 -51.79158931766257 0 0 0 -1 I I #
straight-curve $-1 78.416699728385268 51.79158931766257 0 0 0 -1 I I #
edge $-1 $496 53.070501244563332 $499 63.734824202298832 $390 $545 forward 7 unknown #
vertex $-1 $404 $546 #
straight-curve $-1 -78.416700253678073 -5.7967185132914238 19.016382038017824 -1 0 0 I I #
edge $-1 $499 -0.15212378432913809 $401 12.049808379570262 $400 $547 forward 7 unknown #
vertex $-1 $498 $548 #
straight-curve $-1 -78.416699728385282 -5.7967185132914238 8.3520590802823165 0.8660253999169214 0 0.50000000669873634 I I #
point $-1 -59.945550867219794 -5.7967185132914238 19.016382038017827 #
point $-1 -78.416699728385268 -17.998650677190824 8.3520590802823254 #
straight-curve $-1 -78.416699728385268 0 19.016382038017827 0 -1 0 I I #
vertex $-1 $407 $549 #
point $-1 -67.334753804853989 -15.558264244410942 12.486211354048445 #
vertex $-1 $411 $550 #
point $-1 -67.334753804853989 -11.897684595241124 12.486211354048445 #
vertex $-1 $415 $551 #
point $-1 -67.334753804853989 -8.2371049460713053 12.486211354048445 #
coedge $-1 $430 $429 $422 $511 forward $419 $-1 #
edge $-1 $512 94.678778745701734 $515 103.25398714212594 $510 $552 forward 7 unknown #
vertex $-1 $434 $553 #
straight-curve $-1 16.151368358672883 -48.965742070865375 19.016382038017824 1 0 0 I I #
edge $-1 $515 -30.797850642990817 $431 -5.5379322127582959 $430 $554 forward 7 unknown #
vertex $-1 $514 $555 #
straight-curve $-1 -53.114855740057237 -48.965742070865375 95.858766098996625 -0.83867056331134215 0 0.54463904215088732 I I #
point $-1 65.212037007292977 -48.965742070865375 19.016382038017824 #
point $-1 78.416699728385254 -23.705823640632854 10.441173641593622 #
straight-curve $-1 78.416699728385268 0 19.016382038017827 0 1 0 I I #
vertex $-1 $437 $556 #
point $-1 72.255928876589124 -43.913758384818877 11.736564514527615 #
vertex $-1 $441 $557 #
point $-1 72.255928876589124 -36.335782855749116 11.736564514527615 #
vertex $-1 $445 $558 #
point $-1 72.255928876589124 -28.757807326679362 11.736564514527615 #
edge $-1 $527 94.678778745701734 $530 103.25398714212594 $450 $559 forward 7 unknown #
vertex $-1 $464 $560 #
straight-curve $-1 16.151368358672883 23.705823640632868 19.016382038017824 1 0 0 I I #
edge $-1 $530 5.5379322127583031 $461 30.797850642990824 $460 $561 forward 7 unknown #
vertex $-1 $529 $562 #
straight-curve $-1 -53.114855740057237 23.705823640632868 95.858766098996625 -0.83867056331134215 0 0.54463904215088732 I I #
point $-1 65.212037007292977 23.705823640632868 19.016382038017824 #
point $-1 78.416699728385254 48.965742070865389 10.441173641593622 #
straight-curve $-1 78.416699728385268 0 19.016382038017827 0 1 0 I I #
vertex $-1 $467 $563 #
point $-1 72.255928876589124 28.757807326679369 11.736564514527615 #
vertex $-1 $471 $564 #
point $-1 72.255928876589124 36.33578285574913 11.736564514527615 #
vertex $-1 $475 $565 #
point $-1 72.255928876589124 43.913758384818877 11.736564514527615 #
straight-curve $-1 -78.416699728385268 51.79158931766257 0 0 0 -1 I I #
point $-1 -78.416699728385268 -51.79158931766257 -19.016382038017827 #
straight-curve $-1 -78.416699728385268 0 -19.016382038017827 0 1 0 I I #
point $-1 -78.416699728385268 51.79158931766257 -19.016382038017827 #
straight-curve $-1 -78.416699728385268 -5.7967185132914238 72.086883282581155 0 0 -1 I I #
point $-1 -78.416699728385268 -5.7967185132914238 19.016382038017827 #
straight-curve $-1 -78.416699728385268 -5.9488422976205619 8.3520590802823271 0 -1 0 I I #
point $-1 -78.416699728385268 -5.7967185132914238 8.3520590802823254 #
point $-1 -67.700779198072169 -15.558264244410942 11.120185947432788 #
point $-1 -67.700779198072169 -11.897684595241124 11.120185947432788 #
point $-1 -67.700779198072169 -8.2371049460713053 11.120185947432788 #
straight-curve $-1 78.416699728385268 -48.965742070865375 113.69516078371956 0 0 -1 I I #
point $-1 78.416699728385268 -48.965742070865375 19.016382038017827 #
straight-curve $-1 78.416699728385268 -18.167891427874558 10.441173641593622 0 1 0 I I #
point $-1 78.416699728385254 -48.965742070865375 10.441173641593622 #
point $-1 69.489309665664663 -43.913758384818877 11.148501472206704 #
point $-1 69.489309665664663 -36.335782855749116 11.148501472206704 #
point $-1 69.489309665664663 -28.757807326679362 11.148501472206704 #
straight-curve $-1 78.416699728385268 23.705823640632868 113.69516078371956 0 0 -1 I I #
point $-1 78.416699728385268 23.705823640632868 19.016382038017827 #
straight-curve $-1 78.416699728385268 18.167891427874565 10.441173641593622 0 1 0 I I #
point $-1 78.416699728385254 23.705823640632868 10.441173641593622 #
point $-1 69.489309665664663 28.757807326679369 11.148501472206704 #
point $-1 69.489309665664663 36.33578285574913 11.148501472206704 #
point $-1 69.489309665664663 43.913758384818877 11.148501472206704 #
End-of-ACIS-data 