500 0 11 0           
7 Unknown 11 ACIS 5.0 NT 24 Thu Mar 25 16:54:02 1999 
-1 9.9999999999999995e-007 1e-010 
body $-1 $11 $-1 $12 #
body $-1 $13 $-1 $14 #
body $-1 $15 $-1 $16 #
body $-1 $17 $-1 $18 #
body $-1 $19 $-1 $20 #
body $-1 $21 $-1 $22 #
body $-1 $23 $-1 $24 #
body $-1 $25 $-1 $26 #
body $-1 $27 $-1 $28 #
body $-1 $29 $-1 $30 #
body $-1 $31 $-1 $32 #
lump $-1 $-1 $33 $0 #
transform $-1 1 0 0 0 1 0 0 0 1 77.183751945554974 36.758564588176348 14.769837378091673 1 rotate no_reflect no_shear #
lump $-1 $-1 $34 $1 #
transform $-1 1 0 0 0 1 0 0 0 1 77.183751945554974 36.758564588176348 14.769837378091673 1 rotate no_reflect no_shear #
lump $-1 $-1 $35 $2 #
transform $-1 1 0 0 0 1 0 0 0 1 77.183751945554974 36.758564588176348 14.769837378091673 1 rotate no_reflect no_shear #
lump $-1 $-1 $36 $3 #
transform $-1 1 0 0 0 1 0 0 0 1 77.183751945554974 36.758564588176348 14.769837378091673 1 rotate no_reflect no_shear #
lump $-1 $-1 $37 $4 #
transform $-1 1 0 0 0 1 0 0 0 1 77.183751945554974 36.758564588176348 14.769837378091673 1 rotate no_reflect no_shear #
lump $-1 $-1 $38 $5 #
transform $-1 1 0 0 0 1 0 0 0 1 77.183751945554974 36.758564588176348 14.769837378091673 1 rotate no_reflect no_shear #
lump $-1 $-1 $39 $6 #
transform $-1 1 0 0 0 1 0 0 0 1 77.183751945554974 36.758564588176348 14.769837378091673 1 rotate no_reflect no_shear #
lump $-1 $-1 $40 $7 #
transform $-1 1 0 0 0 1 0 0 0 1 77.183751945554974 36.758564588176348 14.769837378091673 1 rotate no_reflect no_shear #
lump $-1 $-1 $41 $8 #
transform $-1 1 0 0 0 1 0 0 0 1 77.183751945554974 36.758564588176348 14.769837378091673 1 rotate no_reflect no_shear #
lump $-1 $-1 $42 $9 #
transform $-1 1 0 0 0 1 0 0 0 1 77.183751945554974 36.758564588176348 14.769837378091673 1 rotate no_reflect no_shear #
lump $-1 $-1 $43 $10 #
transform $-1 1 0 0 0 1 0 0 0 1 77.183751945554974 36.758564588176348 14.769837378091673 1 rotate no_reflect no_shear #
shell $-1 $-1 $-1 $44 $-1 $11 #
shell $-1 $-1 $-1 $45 $-1 $13 #
shell $-1 $-1 $-1 $46 $-1 $15 #
shell $-1 $-1 $-1 $47 $-1 $17 #
shell $-1 $-1 $-1 $48 $-1 $19 #
shell $-1 $-1 $-1 $49 $-1 $21 #
shell $-1 $-1 $-1 $50 $-1 $23 #
shell $-1 $-1 $-1 $51 $-1 $25 #
shell $-1 $-1 $-1 $52 $-1 $27 #
shell $-1 $-1 $-1 $53 $-1 $29 #
shell $-1 $-1 $-1 $54 $-1 $31 #
face $-1 $55 $56 $33 $-1 $57 forward single #
face $-1 $58 $59 $34 $-1 $60 reversed single #
face $-1 $61 $62 $35 $-1 $63 reversed single #
face $-1 $64 $65 $36 $-1 $66 reversed single #
face $-1 $67 $68 $37 $-1 $69 forward single #
face $-1 $70 $71 $38 $-1 $72 forward single #
face $-1 $73 $74 $39 $-1 $75 forward single #
face $-1 $76 $77 $40 $-1 $78 reversed single #
face $-1 $79 $80 $41 $-1 $81 forward single #
face $-1 $82 $83 $42 $-1 $84 forward single #
face $-1 $85 $86 $43 $-1 $87 forward single #
face $-1 $88 $89 $33 $-1 $90 reversed single #
loop $-1 $-1 $91 $44 #
plane-surface $-1 0 0 14.769837378091673 0 0 1 1 0 0 forward_v I I I I #
face $-1 $92 $93 $34 $-1 $94 reversed single #
loop $-1 $-1 $95 $45 #
plane-surface $-1 0 -28.368993149613864 6.8702033564843319 0 0 1 1 0 0 forward_v I I I I #
face $-1 $96 $97 $35 $-1 $98 reversed single #
loop $-1 $-1 $99 $46 #
plane-surface $-1 0 28.368993149613864 6.8702033564843319 0 0 1 1 0 0 forward_v I I I I #
face $-1 $100 $101 $36 $-1 $102 reversed single #
loop $-1 $-1 $103 $47 #
plane-surface $-1 103.78888273636946 3.5527136788005009e-015 221.96015014852981 0 -1 0 -0.78801076186113728 0 -0.61566146476048833 forward_v I I I I #
face $-1 $104 $105 $37 $-1 $106 forward single #
loop $-1 $107 $108 $48 #
cone-surface $-1 73.00764478362052 -5.9430831480353739 9.6582796306817436 -0.78801076186113728 0 -0.61566146476048833 0.30783073238024417 0 -0.39400538093056864 1 I I 0 1 0.5 forward I I I I #
face $-1 $109 $110 $38 $-1 $111 forward single #
loop $-1 $112 $113 $49 #
cone-surface $-1 73.00764478362052 -3.7144269675221082 9.6582796306817436 -0.78801076186113728 0 -0.61566146476048833 0.30783073238024417 0 -0.39400538093056864 1 I I 0 1 0.5 forward I I I I #
face $-1 $114 $115 $39 $-1 $116 forward single #
loop $-1 $117 $118 $50 #
cone-surface $-1 73.00764478362052 -1.485770787008839 9.6582796306817436 -0.78801076186113728 0 -0.61566146476048833 0.30783073238024417 0 -0.39400538093056864 1 I I 0 1 0.5 forward I I I I #
face $-1 $119 $120 $40 $-1 $121 reversed single #
loop $-1 $-1 $122 $51 #
plane-surface $-1 -17.854371611466163 16.264994743529272 126.92202659150867 0.78801076186113728 0 0.61566146476048833 0.61566146476048833 0 -0.78801076186113728 forward_v I I I I #
face $-1 $123 $124 $41 $-1 $125 forward single #
loop $-1 $126 $127 $52 #
cone-surface $-1 73.00764478362052 14.03633856301601 9.6582796306817436 -0.78801076186113728 0 -0.61566146476048833 0.30783073238024417 0 -0.39400538093056864 1 I I 0 1 0.5 forward I I I I #
face $-1 $128 $129 $42 $-1 $130 forward single #
loop $-1 $131 $132 $53 #
cone-surface $-1 73.00764478362052 16.264994743529272 9.6582796306817436 -0.78801076186113728 0 -0.61566146476048833 0.30783073238024417 0 -0.39400538093056864 1 I I 0 1 0.5 forward I I I I #
face $-1 $133 $134 $43 $-1 $135 forward single #
loop $-1 $136 $137 $54 #
cone-surface $-1 73.00764478362052 18.493650924042541 9.6582796306817436 -0.78801076186113728 0 -0.61566146476048833 0.30783073238024417 0 -0.39400538093056864 1 I I 0 1 0.5 forward I I I I #
face $-1 $138 $139 $33 $-1 $140 reversed single #
loop $-1 $-1 $141 $55 #
plane-surface $-1 0 0 -14.769837378091673 0 0 1 1 0 0 forward_v I I I I #
coedge $-1 $142 $143 $144 $145 forward $56 $-1 #
face $-1 $146 $147 $34 $-1 $148 reversed single #
loop $-1 $-1 $149 $58 #
plane-surface $-1 0 -19.97942171105138 10.820020367288002 0 -1 0 0 0 -1 forward_v I I I I #
coedge $-1 $150 $151 $152 $153 reversed $59 $-1 #
face $-1 $154 $155 $35 $-1 $156 forward single #
loop $-1 $-1 $157 $61 #
plane-surface $-1 0 19.97942171105138 10.820020367288002 0 1 0 0 0 1 forward_v I I I I #
coedge $-1 $158 $159 $160 $161 reversed $62 $-1 #
face $-1 $162 $163 $36 $-1 $164 reversed single #
loop $-1 $-1 $165 $64 #
plane-surface $-1 -17.854371611466163 -3.7144269675221082 126.92202659150867 0.78801076186113728 0 0.61566146476048833 0.61566146476048833 0 -0.78801076186113728 forward_v I I I I #
coedge $-1 $166 $167 $168 $169 reversed $65 $-1 #
face $-1 $-1 $170 $37 $-1 $171 forward single #
loop $-1 $172 $173 $67 #
cone-surface $-1 72.342151213638459 -5.9430831480353739 9.1383390842910259 -0.78801076186113728 0 -0.61566146476048833 0.15391536619012208 0 -0.19700269046528432 1 I I -0.70710678118654746 0.70710678118654746 0.25 forward I I I I #
loop $-1 $-1 $174 $48 #
coedge $-1 $108 $108 $175 $176 reversed $68 $-1 #
face $-1 $-1 $177 $38 $-1 $178 forward single #
loop $-1 $179 $180 $70 #
cone-surface $-1 72.342151213638459 -3.7144269675221082 9.1383390842910259 -0.78801076186113728 0 -0.61566146476048833 0.15391536619012208 0 -0.19700269046528432 1 I I -0.70710678118654746 0.70710678118654746 0.25 forward I I I I #
loop $-1 $-1 $181 $49 #
coedge $-1 $113 $113 $182 $183 reversed $71 $-1 #
face $-1 $-1 $184 $39 $-1 $185 forward single #
loop $-1 $186 $187 $73 #
cone-surface $-1 72.342151213638459 -1.485770787008839 9.1383390842910259 -0.78801076186113728 0 -0.61566146476048833 0.15391536619012208 0 -0.19700269046528432 1 I I -0.70710678118654746 0.70710678118654746 0.25 forward I I I I #
loop $-1 $-1 $188 $50 #
coedge $-1 $118 $118 $189 $190 reversed $74 $-1 #
face $-1 $191 $192 $40 $-1 $193 reversed single #
loop $-1 $-1 $194 $76 #
plane-surface $-1 103.78888273636946 12.55056777600716 221.96015014852981 0 1 0 0.78801076186113728 0 0.61566146476048833 forward_v I I I I #
coedge $-1 $195 $196 $197 $198 reversed $77 $-1 #
face $-1 $-1 $199 $41 $-1 $200 forward single #
loop $-1 $201 $202 $79 #
cone-surface $-1 72.342151213638459 14.03633856301601 9.1383390842910259 -0.78801076186113728 0 -0.61566146476048833 0.15391536619012208 0 -0.19700269046528432 1 I I -0.70710678118654746 0.70710678118654746 0.25 forward I I I I #
loop $-1 $-1 $203 $52 #
coedge $-1 $127 $127 $204 $205 reversed $80 $-1 #
face $-1 $-1 $206 $42 $-1 $207 forward single #
loop $-1 $208 $209 $82 #
cone-surface $-1 72.342151213638459 16.264994743529272 9.1383390842910259 -0.78801076186113728 0 -0.61566146476048833 0.15391536619012208 0 -0.19700269046528432 1 I I -0.70710678118654746 0.70710678118654746 0.25 forward I I I I #
loop $-1 $-1 $210 $53 #
coedge $-1 $132 $132 $211 $212 reversed $83 $-1 #
face $-1 $-1 $213 $43 $-1 $214 forward single #
loop $-1 $215 $216 $85 #
cone-surface $-1 72.342151213638459 18.493650924042541 9.1383390842910259 -0.78801076186113728 0 -0.61566146476048833 0.15391536619012208 0 -0.19700269046528432 1 I I -0.70710678118654746 0.70710678118654746 0.25 forward I I I I #
loop $-1 $-1 $217 $54 #
coedge $-1 $137 $137 $218 $219 reversed $86 $-1 #
face $-1 $220 $221 $33 $-1 $222 reversed single #
loop $-1 $-1 $223 $88 #
plane-surface $-1 0 -36.758564588176348 0 0 1 0 0 0 1 forward_v I I I I #
coedge $-1 $224 $225 $226 $227 forward $89 $-1 #
coedge $-1 $228 $91 $229 $230 forward $56 $-1 #
coedge $-1 $91 $228 $231 $232 forward $56 $-1 #
coedge $-1 $233 $234 $91 $145 reversed $235 $-1 #
edge $-1 $236 -36.758564588176348 $237 36.758564588176348 $144 $238 forward 7 unknown #
face $-1 $239 $240 $34 $-1 $241 reversed single #
loop $-1 $-1 $242 $92 #
plane-surface $-1 -77.183751945554974 0 0 1 0 0 0 0 -1 forward_v I I I I #
coedge $-1 $243 $244 $245 $246 reversed $93 $-1 #
coedge $-1 $247 $95 $248 $249 reversed $59 $-1 #
coedge $-1 $95 $247 $243 $250 forward $59 $-1 #
coedge $-1 $245 $251 $95 $153 forward $252 $-1 #
edge $-1 $253 -22.574068013369416 $254 -5.7949251362444478 $152 $255 forward 7 unknown #
face $-1 $256 $257 $35 $-1 $258 reversed single #
loop $-1 $-1 $259 $96 #
plane-surface $-1 0 0 14.769837378091673 0 0 1 1 0 0 forward_v I I I I #
coedge $-1 $260 $261 $262 $263 reversed $97 $-1 #
coedge $-1 $264 $99 $260 $265 forward $62 $-1 #
coedge $-1 $99 $264 $266 $267 reversed $62 $-1 #
coedge $-1 $268 $269 $99 $161 forward $257 $-1 #
edge $-1 $270 5.7949251362444478 $271 22.574068013369416 $160 $272 forward 7 unknown #
face $-1 $273 $274 $36 $-1 $275 forward single #
loop $-1 $-1 $276 $100 #
plane-surface $-1 103.78888273636946 -7.42885393504422 221.96015014852981 0 1 0 0.78801076186113728 0 0.61566146476048833 forward_v I I I I #
coedge $-1 $277 $278 $279 $280 reversed $101 $-1 #
coedge $-1 $167 $103 $281 $282 reversed $65 $-1 #
coedge $-1 $103 $166 $277 $283 reversed $65 $-1 #
coedge $-1 $279 $284 $103 $169 forward $274 $-1 #
edge $-1 $285 -25.289310577370244 $286 -17.874078012534952 $168 $287 forward 7 unknown #
loop $-1 $-1 $175 $104 #
plane-surface $-1 -17.854371611466163 -3.7144269675221082 126.92202659150867 0.78801076186113728 0 0.61566146476048833 0.61566146476048833 0 -0.78801076186113728 forward_v I I I I #
loop $-1 $-1 $288 $67 #
coedge $-1 $173 $173 $174 $289 reversed $105 $-1 #
coedge $-1 $174 $174 $173 $289 forward $107 $-1 #
coedge $-1 $175 $175 $108 $176 forward $170 $-1 #
edge $-1 $290 0 $290 6.2831853071796004 $175 $291 forward 7 unknown #
loop $-1 $-1 $182 $109 #
plane-surface $-1 -17.854371611466163 -3.7144269675221082 126.92202659150867 0.78801076186113728 0 0.61566146476048833 0.61566146476048833 0 -0.78801076186113728 forward_v I I I I #
loop $-1 $-1 $292 $70 #
coedge $-1 $180 $180 $181 $293 reversed $110 $-1 #
coedge $-1 $181 $181 $180 $293 forward $112 $-1 #
coedge $-1 $182 $182 $113 $183 forward $177 $-1 #
edge $-1 $294 0 $294 6.2831853071796004 $182 $295 forward 7 unknown #
loop $-1 $-1 $189 $114 #
plane-surface $-1 -17.854371611466163 -3.7144269675221082 126.92202659150867 0.78801076186113728 0 0.61566146476048833 0.61566146476048833 0 -0.78801076186113728 forward_v I I I I #
loop $-1 $-1 $296 $73 #
coedge $-1 $187 $187 $188 $297 reversed $115 $-1 #
coedge $-1 $188 $188 $187 $297 forward $117 $-1 #
coedge $-1 $189 $189 $118 $190 forward $184 $-1 #
edge $-1 $298 0 $298 6.2831853071796004 $189 $299 forward 7 unknown #
face $-1 $300 $301 $40 $-1 $302 forward single #
loop $-1 $-1 $303 $119 #
plane-surface $-1 77.183751945554974 0 0 -1 0 0 0 0 1 forward_v I I I I #
coedge $-1 $304 $305 $306 $307 reversed $120 $-1 #
coedge $-1 $308 $122 $309 $310 reversed $77 $-1 #
coedge $-1 $122 $308 $304 $311 forward $77 $-1 #
coedge $-1 $306 $312 $122 $198 forward $301 $-1 #
edge $-1 $313 -11.846924339286748 $314 -4.4180704042425241 $197 $315 forward 7 unknown #
loop $-1 $-1 $204 $123 #
plane-surface $-1 -17.854371611466163 16.264994743529272 126.92202659150867 0.78801076186113728 0 0.61566146476048833 0.61566146476048833 0 -0.78801076186113728 forward_v I I I I #
loop $-1 $-1 $316 $79 #
coedge $-1 $202 $202 $203 $317 reversed $124 $-1 #
coedge $-1 $203 $203 $202 $317 forward $126 $-1 #
coedge $-1 $204 $204 $127 $205 forward $199 $-1 #
edge $-1 $318 0 $318 6.2831853071796004 $204 $319 forward 7 unknown #
loop $-1 $-1 $211 $128 #
plane-surface $-1 -17.854371611466163 16.264994743529272 126.92202659150867 0.78801076186113728 0 0.61566146476048833 0.61566146476048833 0 -0.78801076186113728 forward_v I I I I #
loop $-1 $-1 $320 $82 #
coedge $-1 $209 $209 $210 $321 reversed $129 $-1 #
coedge $-1 $210 $210 $209 $321 forward $131 $-1 #
coedge $-1 $211 $211 $132 $212 forward $206 $-1 #
edge $-1 $322 0 $322 6.2831853071796004 $211 $323 forward 7 unknown #
loop $-1 $-1 $218 $133 #
plane-surface $-1 -17.854371611466163 16.264994743529272 126.92202659150867 0.78801076186113728 0 0.61566146476048833 0.61566146476048833 0 -0.78801076186113728 forward_v I I I I #
loop $-1 $-1 $324 $85 #
coedge $-1 $216 $216 $217 $325 reversed $134 $-1 #
coedge $-1 $217 $217 $216 $325 forward $136 $-1 #
coedge $-1 $218 $218 $137 $219 forward $213 $-1 #
edge $-1 $326 0 $326 6.2831853071796004 $218 $327 forward 7 unknown #
face $-1 $328 $329 $33 $-1 $330 reversed single #
loop $-1 $-1 $331 $138 #
plane-surface $-1 -77.183751945554974 0 0 1 0 0 0 0 -1 forward_v I I I I #
coedge $-1 $332 $231 $333 $334 forward $139 $-1 #
coedge $-1 $335 $141 $332 $336 forward $89 $-1 #
coedge $-1 $141 $335 $337 $338 forward $89 $-1 #
coedge $-1 $234 $233 $141 $227 reversed $235 $-1 #
edge $-1 $339 -36.758564588176348 $340 36.758564588176348 $226 $341 forward 7 unknown #
coedge $-1 $143 $142 $342 $343 forward $56 $-1 #
coedge $-1 $344 $345 $142 $230 reversed $329 $-1 #
edge $-1 $237 -77.183751945554974 $346 77.183751945554974 $229 $347 forward 7 unknown #
coedge $-1 $223 $348 $143 $232 reversed $139 $-1 #
edge $-1 $349 -77.183751945554974 $236 77.183751945554974 $231 $350 forward 7 unknown #
coedge $-1 $226 $144 $348 $351 forward $235 $-1 #
coedge $-1 $144 $226 $344 $352 reversed $235 $-1 #
loop $-1 $-1 $233 $328 #
vertex $-1 $145 $353 #
vertex $-1 $145 $354 #
straight-curve $-1 77.183751945554974 0 14.769837378091673 0 1 0 I I #
face $-1 $355 $356 $34 $-1 $357 forward single #
loop $-1 $-1 $248 $146 #
plane-surface $-1 0 -36.758564588176348 0 0 1 0 0 0 1 forward_v I I I I #
coedge $-1 $358 $359 $360 $361 forward $147 $-1 #
coedge $-1 $360 $149 $151 $250 reversed $93 $-1 #
coedge $-1 $149 $360 $362 $363 reversed $93 $-1 #
coedge $-1 $364 $152 $149 $246 forward $252 $-1 #
edge $-1 $254 1.4601931728403308 $365 9.3598271944476714 $245 $366 forward 7 unknown #
coedge $-1 $151 $150 $358 $367 reversed $59 $-1 #
coedge $-1 $368 $369 $150 $249 forward $240 $-1 #
edge $-1 $370 -77.183751945554974 $253 77.183751945554974 $248 $371 forward 7 unknown #
edge $-1 $372 -77.183751945554974 $254 77.183751945554974 $243 $373 forward 7 unknown #
coedge $-1 $152 $364 $368 $374 forward $252 $-1 #
loop $-1 $-1 $245 $355 #
vertex $-1 $249 $375 #
vertex $-1 $153 $376 #
straight-curve $-1 77.183751945554974 -14.184496574806932 6.8702033564843319 0 1 0 I I #
face $-1 $377 $378 $35 $-1 $379 reversed single #
loop $-1 $-1 $269 $154 #
plane-surface $-1 77.183751945554974 0 0 -1 0 0 0 0 1 forward_v I I I I #
coedge $-1 $380 $381 $261 $382 forward $155 $-1 #
coedge $-1 $383 $157 $158 $265 reversed $97 $-1 #
coedge $-1 $157 $383 $259 $382 reversed $97 $-1 #
coedge $-1 $384 $385 $157 $263 forward $378 $-1 #
edge $-1 $386 1.4601931728403308 $387 9.3598271944476714 $262 $388 forward 7 unknown #
coedge $-1 $159 $158 $385 $389 reversed $62 $-1 #
edge $-1 $270 -77.183751945554974 $386 77.183751945554974 $260 $390 forward 7 unknown #
coedge $-1 $391 $392 $159 $267 forward $393 $-1 #
edge $-1 $271 -77.183751945554974 $394 77.183751945554974 $266 $395 forward 7 unknown #
coedge $-1 $396 $160 $392 $397 reversed $257 $-1 #
coedge $-1 $160 $396 $383 $398 forward $257 $-1 #
vertex $-1 $161 $399 #
vertex $-1 $267 $400 #
straight-curve $-1 77.183751945554974 14.184496574806932 6.8702033564843319 0 1 0 I I #
face $-1 $-1 $401 $36 $-1 $402 reversed single #
loop $-1 $-1 $168 $162 #
plane-surface $-1 0 0 14.769837378091673 0 0 1 1 0 0 forward_v I I I I #
coedge $-1 $403 $404 $405 $406 reversed $163 $-1 #
coedge $-1 $407 $165 $167 $283 forward $101 $-1 #
coedge $-1 $165 $407 $403 $408 forward $101 $-1 #
coedge $-1 $405 $168 $165 $280 forward $274 $-1 #
edge $-1 $286 -1.8572134837610577 $409 5.5716404512831659 $279 $410 forward 7 unknown #
coedge $-1 $411 $412 $166 $282 forward $401 $-1 #
edge $-1 $413 -105.70130283059186 $285 -96.210237696173238 $281 $414 forward 7 unknown #
edge $-1 $286 142.32316948125688 $413 154.36750389110995 $167 $415 forward 7 unknown #
coedge $-1 $168 $405 $411 $416 forward $274 $-1 #
vertex $-1 $282 $417 #
vertex $-1 $169 $418 #
straight-curve $-1 51.894441368184729 3.5527136788005009e-015 14.769837378091665 -1 0 0 I I #
coedge $-1 $288 $288 $-1 $419 reversed $172 $-1 #
edge $-1 $420 0 $420 6.2831853071796004 $173 $421 forward 7 unknown #
vertex $-1 $176 $422 #
ellipse-curve $-1 73.476135663137327 -5.9430831480353739 10.024304810882358 0.78801076186113728 0 0.61566146476048833 0.30783073238024417 0 -0.39400538093056864 1 I I #
coedge $-1 $292 $292 $-1 $423 reversed $179 $-1 #
edge $-1 $424 0 $424 6.2831853071796004 $180 $425 forward 7 unknown #
vertex $-1 $183 $426 #
ellipse-curve $-1 73.476135663137327 -3.7144269675221082 10.024304810882358 0.78801076186113728 0 0.61566146476048833 0.30783073238024417 0 -0.39400538093056864 1 I I #
coedge $-1 $296 $296 $-1 $427 reversed $186 $-1 #
edge $-1 $428 0 $428 6.2831853071796004 $187 $429 forward 7 unknown #
vertex $-1 $190 $430 #
ellipse-curve $-1 73.476135663137327 -1.485770787008839 10.024304810882358 0.78801076186113728 0 0.61566146476048833 0.30783073238024417 0 -0.39400538093056864 1 I I #
face $-1 $-1 $431 $40 $-1 $432 forward single #
loop $-1 $-1 $306 $191 #
plane-surface $-1 0 0 14.769837378091673 0 0 1 1 0 0 forward_v I I I I #
coedge $-1 $433 $434 $305 $435 forward $192 $-1 #
coedge $-1 $305 $194 $196 $311 reversed $120 $-1 #
coedge $-1 $194 $304 $303 $435 reversed $120 $-1 #
coedge $-1 $436 $197 $194 $307 forward $301 $-1 #
edge $-1 $314 17.874078012534952 $437 25.289310577370244 $306 $438 forward 7 unknown #
coedge $-1 $196 $195 $433 $439 reversed $77 $-1 #
coedge $-1 $440 $441 $195 $310 forward $431 $-1 #
edge $-1 $442 -103.12656441258596 $313 -91.082230002732899 $309 $443 forward 7 unknown #
edge $-1 $444 -154.36750389110995 $314 -142.32316948125688 $304 $445 forward 7 unknown #
coedge $-1 $197 $436 $440 $446 forward $301 $-1 #
vertex $-1 $310 $447 #
vertex $-1 $198 $448 #
straight-curve $-1 69.768519380719681 8.1324973717646358 14.769837378091665 0 -1 0 I I #
coedge $-1 $316 $316 $-1 $449 reversed $201 $-1 #
edge $-1 $450 0 $450 6.2831853071796004 $202 $451 forward 7 unknown #
vertex $-1 $205 $452 #
ellipse-curve $-1 73.476135663137327 14.03633856301601 10.024304810882358 0.78801076186113728 0 0.61566146476048833 0.30783073238024417 0 -0.39400538093056864 1 I I #
coedge $-1 $320 $320 $-1 $453 reversed $208 $-1 #
edge $-1 $454 0 $454 6.2831853071796004 $209 $455 forward 7 unknown #
vertex $-1 $212 $456 #
ellipse-curve $-1 73.476135663137327 16.264994743529272 10.024304810882358 0.78801076186113728 0 0.61566146476048833 0.30783073238024417 0 -0.39400538093056864 1 I I #
coedge $-1 $324 $324 $-1 $457 reversed $215 $-1 #
edge $-1 $458 0 $458 6.2831853071796004 $216 $459 forward 7 unknown #
vertex $-1 $219 $460 #
ellipse-curve $-1 73.476135663137327 18.493650924042541 10.024304810882358 0.78801076186113728 0 0.61566146476048833 0.30783073238024417 0 -0.39400538093056864 1 I I #
face $-1 $-1 $235 $33 $-1 $461 reversed single #
loop $-1 $-1 $344 $220 #
plane-surface $-1 0 36.758564588176348 0 0 -1 0 0 0 -1 forward_v I I I I #
coedge $-1 $462 $342 $345 $463 forward $221 $-1 #
coedge $-1 $348 $223 $224 $336 reversed $139 $-1 #
coedge $-1 $342 $462 $223 $334 reversed $221 $-1 #
edge $-1 $349 -14.769837378091673 $464 14.769837378091673 $333 $465 forward 7 unknown #
coedge $-1 $225 $224 $462 $466 forward $89 $-1 #
edge $-1 $340 -77.183751945554974 $464 77.183751945554974 $332 $467 forward 7 unknown #
coedge $-1 $345 $344 $225 $338 reversed $329 $-1 #
edge $-1 $468 -77.183751945554974 $339 77.183751945554974 $337 $469 forward 7 unknown #
vertex $-1 $227 $470 #
vertex $-1 $351 $471 #
straight-curve $-1 77.183751945554974 0 -14.769837378091673 0 -1 0 I I #
coedge $-1 $331 $333 $228 $343 reversed $221 $-1 #
edge $-1 $346 -36.758564588176348 $349 36.758564588176348 $342 $472 forward 7 unknown #
coedge $-1 $337 $229 $234 $352 forward $329 $-1 #
coedge $-1 $229 $337 $331 $463 reversed $329 $-1 #
vertex $-1 $230 $473 #
straight-curve $-1 0 36.758564588176348 14.769837378091673 -1 0 0 I I #
coedge $-1 $231 $332 $233 $351 reversed $139 $-1 #
vertex $-1 $343 $474 #
straight-curve $-1 0 -36.758564588176348 14.769837378091673 1 0 0 I I #
edge $-1 $236 -14.769837378091673 $340 14.769837378091673 $233 $475 forward 7 unknown #
edge $-1 $237 -14.769837378091673 $339 14.769837378091673 $234 $476 forward 7 unknown #
point $-1 77.183751945554974 -36.758564588176348 14.769837378091673 #
point $-1 77.183751945554974 36.758564588176348 14.769837378091673 #
face $-1 $-1 $252 $34 $-1 $477 reversed single #
loop $-1 $-1 $362 $239 #
plane-surface $-1 0 0 14.769837378091673 0 0 1 1 0 0 forward_v I I I I #
coedge $-1 $478 $242 $247 $367 forward $147 $-1 #
coedge $-1 $242 $478 $479 $480 reversed $147 $-1 #
coedge $-1 $244 $243 $242 $361 reversed $93 $-1 #
edge $-1 $481 -9.3598271944476714 $372 -1.4601931728403308 $242 $482 forward 7 unknown #
coedge $-1 $479 $483 $244 $363 forward $356 $-1 #
edge $-1 $365 -77.183751945554974 $481 77.183751945554974 $362 $484 forward 7 unknown #
coedge $-1 $251 $245 $483 $485 reversed $252 $-1 #
vertex $-1 $246 $486 #
straight-curve $-1 77.183751945554974 -19.97942171105138 5.4100101836440011 0 0 1 I I #
edge $-1 $372 5.7949251362444478 $370 22.574068013369416 $358 $487 forward 7 unknown #
coedge $-1 $488 $248 $251 $374 reversed $240 $-1 #
coedge $-1 $248 $488 $478 $489 forward $240 $-1 #
vertex $-1 $249 $490 #
straight-curve $-1 0 -36.758564588176348 6.8702033564843319 1 0 0 I I #
vertex $-1 $367 $491 #
straight-curve $-1 0 -19.97942171105138 6.8702033564843319 1 0 0 I I #
edge $-1 $492 -14.769837378091673 $253 -6.8702033564843319 $251 $493 forward 7 unknown #
point $-1 77.183751945554974 -36.758564588176348 6.8702033564843319 #
point $-1 77.183751945554974 -19.97942171105138 6.8702033564843319 #
face $-1 $-1 $393 $35 $-1 $494 reversed single #
loop $-1 $-1 $262 $256 #
plane-surface $-1 -77.183751945554974 0 0 1 0 0 0 0 -1 forward_v I I I I #
coedge $-1 $495 $259 $396 $496 forward $155 $-1 #
coedge $-1 $259 $495 $384 $497 forward $155 $-1 #
edge $-1 $387 -77.183751945554974 $498 77.183751945554974 $259 $499 forward 7 unknown #
coedge $-1 $261 $260 $269 $398 reversed $97 $-1 #
coedge $-1 $500 $262 $381 $497 reversed $378 $-1 #
coedge $-1 $262 $500 $264 $389 forward $378 $-1 #
vertex $-1 $389 $501 #
vertex $-1 $263 $502 #
straight-curve $-1 -77.183751945554974 19.97942171105138 5.4100101836440011 0 0 1 I I #
edge $-1 $394 -22.574068013369416 $386 -5.7949251362444478 $385 $503 forward 7 unknown #
straight-curve $-1 0 19.97942171105138 6.8702033564843319 -1 0 0 I I #
coedge $-1 $504 $266 $500 $505 reversed $393 $-1 #
coedge $-1 $266 $504 $268 $397 forward $393 $-1 #
loop $-1 $-1 $266 $377 #
vertex $-1 $267 $506 #
straight-curve $-1 0 36.758564588176348 6.8702033564843319 -1 0 0 I I #
coedge $-1 $269 $268 $380 $496 reversed $257 $-1 #
edge $-1 $507 -14.769837378091673 $271 -6.8702033564843319 $268 $508 forward 7 unknown #
edge $-1 $498 -9.3598271944476714 $270 -1.4601931728403308 $269 $509 forward 7 unknown #
point $-1 77.183751945554974 19.97942171105138 6.8702033564843319 #
point $-1 77.183751945554974 36.758564588176348 6.8702033564843319 #
loop $-1 $-1 $281 $273 #
plane-surface $-1 77.183751945554974 0 0 -1 0 0 0 0 1 forward_v I I I I #
coedge $-1 $404 $276 $278 $408 reversed $163 $-1 #
coedge $-1 $276 $403 $510 $511 reversed $163 $-1 #
coedge $-1 $284 $279 $276 $406 forward $274 $-1 #
edge $-1 $409 17.874078012534952 $512 25.289310577370244 $405 $513 forward 7 unknown #
coedge $-1 $278 $277 $412 $514 reversed $101 $-1 #
edge $-1 $515 -154.36750389110995 $409 -142.32316948125688 $403 $516 forward 7 unknown #
vertex $-1 $280 $517 #
straight-curve $-1 69.768519380719681 -1.8572134837610541 14.769837378091665 0 -1 0 I I #
coedge $-1 $510 $281 $284 $416 reversed $401 $-1 #
coedge $-1 $281 $510 $407 $514 forward $401 $-1 #
vertex $-1 $282 $518 #
straight-curve $-1 77.183751945554974 3.5527136788005009e-015 110.9800750742649 0 0 1 I I #
straight-curve $-1 -17.854371611466163 3.5527136788005009e-015 126.92202659150867 0.61566146476048833 0 -0.78801076186113728 I I #
edge $-1 $512 -7.42885393504422 $285 3.5527136788005009e-015 $411 $519 forward 7 unknown #
point $-1 77.183751945554974 3.5527136788005009e-015 14.769837378091673 #
point $-1 69.768519380719681 3.5527136788005009e-015 14.769837378091665 #
edge $-1 $520 1 $520 0 $288 $-1 forward 7 unknown #
vertex $-1 $289 $521 #
ellipse-curve $-1 72.539153904103742 -5.9430831480353739 9.2922544504811473 0.78801076186113728 0 0.61566146476048833 0.30783073238024417 0 -0.39400538093056864 1 I I #
point $-1 73.783966395517552 -5.9430831480353739 9.6302994299517692 #
edge $-1 $522 1 $522 0 $292 $-1 forward 7 unknown #
vertex $-1 $293 $523 #
ellipse-curve $-1 72.539153904103742 -3.7144269675221082 9.2922544504811473 0.78801076186113728 0 0.61566146476048833 0.30783073238024417 0 -0.39400538093056864 1 I I #
point $-1 73.783966395517552 -3.7144269675221082 9.6302994299517692 #
edge $-1 $524 1 $524 0 $296 $-1 forward 7 unknown #
vertex $-1 $297 $525 #
ellipse-curve $-1 72.539153904103742 -1.485770787008839 9.2922544504811473 0.78801076186113728 0 0.61566146476048833 0.30783073238024417 0 -0.39400538093056864 1 I I #
point $-1 73.783966395517552 -1.485770787008839 9.6302994299517692 #
loop $-1 $-1 $309 $300 #
plane-surface $-1 0 19.97942171105138 10.820020367288002 0 1 0 0 0 1 forward_v I I I I #
coedge $-1 $526 $303 $308 $439 forward $192 $-1 #
coedge $-1 $303 $526 $436 $527 reversed $192 $-1 #
edge $-1 $437 96.210237696173238 $444 105.70130283059186 $303 $528 forward 7 unknown #
coedge $-1 $312 $306 $434 $527 forward $301 $-1 #
vertex $-1 $527 $529 #
straight-curve $-1 51.894441368184729 12.55056777600716 14.769837378091665 1 0 0 I I #
edge $-1 $444 4.4180704042425241 $442 11.846924339286748 $433 $530 forward 7 unknown #
coedge $-1 $441 $309 $312 $446 reversed $431 $-1 #
coedge $-1 $309 $440 $526 $531 reversed $431 $-1 #
vertex $-1 $531 $532 #
straight-curve $-1 13.692700243585445 19.97942171105138 86.54361483455655 -0.61566146476048833 0 0.78801076186113728 I I #
vertex $-1 $439 $533 #
straight-curve $-1 -17.854371611466163 12.55056777600716 126.92202659150867 -0.61566146476048833 0 0.78801076186113728 I I #
edge $-1 $534 -77.183751945554974 $313 -69.768519380719681 $312 $535 forward 7 unknown #
point $-1 69.768519380719681 19.979421711051383 14.769837378091665 #
point $-1 69.768519380719681 12.55056777600716 14.769837378091665 #
edge $-1 $536 1 $536 0 $316 $-1 forward 7 unknown #
vertex $-1 $317 $537 #
ellipse-curve $-1 72.539153904103742 14.03633856301601 9.2922544504811473 0.78801076186113728 0 0.61566146476048833 0.30783073238024417 0 -0.39400538093056864 1 I I #
point $-1 73.783966395517552 14.03633856301601 9.6302994299517692 #
edge $-1 $538 1 $538 0 $320 $-1 forward 7 unknown #
vertex $-1 $321 $539 #
ellipse-curve $-1 72.539153904103742 16.264994743529272 9.2922544504811473 0.78801076186113728 0 0.61566146476048833 0.30783073238024417 0 -0.39400538093056864 1 I I #
point $-1 73.783966395517552 16.264994743529272 9.6302994299517692 #
edge $-1 $540 1 $540 0 $324 $-1 forward 7 unknown #
vertex $-1 $325 $541 #
ellipse-curve $-1 72.539153904103742 18.493650924042541 9.2922544504811473 0.78801076186113728 0 0.61566146476048833 0.30783073238024417 0 -0.39400538093056864 1 I I #
point $-1 73.783966395517552 18.493650924042541 9.6302994299517692 #
plane-surface $-1 77.183751945554974 0 0 -1 0 0 0 0 1 forward_v I I I I #
coedge $-1 $333 $331 $335 $466 reversed $221 $-1 #
edge $-1 $346 -14.769837378091673 $468 14.769837378091673 $345 $542 forward 7 unknown #
vertex $-1 $466 $543 #
straight-curve $-1 -77.183751945554974 -36.758564588176348 0 0 0 -1 I I #
edge $-1 $464 -36.758564588176348 $468 36.758564588176348 $462 $544 forward 7 unknown #
straight-curve $-1 0 -36.758564588176348 -14.769837378091673 -1 0 0 I I #
vertex $-1 $338 $545 #
straight-curve $-1 0 36.758564588176348 -14.769837378091673 1 0 0 I I #
point $-1 77.183751945554974 36.758564588176348 -14.769837378091673 #
point $-1 77.183751945554974 -36.758564588176348 -14.769837378091673 #
straight-curve $-1 -77.183751945554974 0 14.769837378091673 0 -1 0 I I #
point $-1 -77.183751945554974 36.758564588176348 14.769837378091673 #
point $-1 -77.183751945554974 -36.758564588176348 14.769837378091673 #
straight-curve $-1 77.183751945554974 -36.758564588176348 0 0 0 -1 I I #
straight-curve $-1 77.183751945554974 36.758564588176348 0 0 0 -1 I I #
plane-surface $-1 77.183751945554974 0 0 -1 0 0 0 0 1 forward_v I I I I #
coedge $-1 $359 $358 $369 $489 reversed $147 $-1 #
coedge $-1 $546 $362 $359 $480 forward $356 $-1 #
edge $-1 $481 19.97942171105138 $547 36.758564588176348 $359 $548 forward 7 unknown #
vertex $-1 $480 $549 #
straight-curve $-1 -77.183751945554974 -19.97942171105138 5.4100101836440011 0 0 -1 I I #
coedge $-1 $362 $546 $364 $485 forward $356 $-1 #
straight-curve $-1 0 -19.97942171105138 14.769837378091673 -1 0 0 I I #
edge $-1 $492 -36.758564588176348 $365 -19.97942171105138 $364 $550 forward 7 unknown #
point $-1 77.183751945554974 -19.97942171105138 14.769837378091673 #
straight-curve $-1 -77.183751945554974 -14.184496574806932 6.8702033564843319 0 -1 0 I I #
coedge $-1 $369 $368 $546 $551 reversed $240 $-1 #
edge $-1 $547 -14.769837378091673 $370 -6.8702033564843319 $478 $552 forward 7 unknown #
point $-1 -77.183751945554974 -36.758564588176348 6.8702033564843319 #
point $-1 -77.183751945554974 -19.97942171105138 6.8702033564843319 #
vertex $-1 $485 $553 #
straight-curve $-1 77.183751945554974 -36.758564588176348 0 0 0 -1 I I #
plane-surface $-1 0 36.758564588176348 0 0 -1 0 0 0 -1 forward_v I I I I #
coedge $-1 $381 $380 $504 $554 forward $155 $-1 #
edge $-1 $498 19.97942171105138 $507 36.758564588176348 $396 $555 forward 7 unknown #
edge $-1 $556 -36.758564588176348 $387 -19.97942171105138 $384 $557 forward 7 unknown #
vertex $-1 $496 $558 #
straight-curve $-1 0 19.97942171105138 14.769837378091673 1 0 0 I I #
coedge $-1 $385 $384 $391 $505 forward $378 $-1 #
point $-1 -77.183751945554974 19.97942171105138 6.8702033564843319 #
point $-1 -77.183751945554974 19.97942171105138 14.769837378091673 #
straight-curve $-1 -77.183751945554974 14.184496574806932 6.8702033564843319 0 -1 0 I I #
coedge $-1 $392 $391 $495 $554 reversed $393 $-1 #
edge $-1 $556 -14.769837378091673 $394 -6.8702033564843319 $391 $559 forward 7 unknown #
point $-1 -77.183751945554974 36.758564588176348 6.8702033564843319 #
vertex $-1 $496 $560 #
straight-curve $-1 77.183751945554974 36.758564588176348 0 0 0 -1 I I #
straight-curve $-1 77.183751945554974 19.97942171105138 5.4100101836440011 0 0 -1 I I #
coedge $-1 $412 $411 $404 $511 forward $401 $-1 #
edge $-1 $512 96.210237696173238 $515 105.70130283059186 $510 $561 forward 7 unknown #
vertex $-1 $416 $562 #
straight-curve $-1 51.894441368184729 -7.42885393504422 14.769837378091665 1 0 0 I I #
edge $-1 $515 -5.5716404512831659 $413 1.8572134837610577 $412 $563 forward 7 unknown #
vertex $-1 $514 $564 #
straight-curve $-1 -17.854371611466163 -7.42885393504422 126.92202659150867 -0.61566146476048833 0 0.78801076186113728 I I #
point $-1 69.768519380719681 -7.42885393504422 14.769837378091665 #
point $-1 77.183751945554974 3.5527136788005009e-015 5.2787722436730462 #
straight-curve $-1 77.183751945554974 0 14.769837378091673 0 1 0 I I #
vertex $-1 $419 $565 #
point $-1 72.846984636483981 -5.9430831480353739 8.8982490695505803 #
vertex $-1 $423 $566 #
point $-1 72.846984636483981 -3.7144269675221082 8.8982490695505803 #
vertex $-1 $427 $567 #
point $-1 72.846984636483981 -1.485770787008839 8.8982490695505803 #
coedge $-1 $434 $433 $441 $531 forward $192 $-1 #
edge $-1 $437 12.55056777600716 $534 19.97942171105138 $434 $568 forward 7 unknown #
straight-curve $-1 77.183751945554974 12.55056777600716 110.9800750742649 0 0 -1 I I #
point $-1 77.183751945554974 12.55056777600716 14.769837378091673 #
straight-curve $-1 77.183751945554974 8.1324973717646358 5.2787722436730249 0 1 0 I I #
edge $-1 $442 -105.70130283059186 $534 -96.210237696173238 $526 $569 forward 7 unknown #
point $-1 77.183751945554974 19.979421711051383 5.2787722436730462 #
point $-1 77.183751945554974 12.55056777600716 5.2787722436730462 #
vertex $-1 $446 $570 #
straight-curve $-1 0 19.97942171105138 14.769837378091673 -1 0 0 I I #
vertex $-1 $449 $571 #
point $-1 72.846984636483981 14.03633856301601 8.8982490695505803 #
vertex $-1 $453 $572 #
point $-1 72.846984636483981 16.264994743529272 8.8982490695505803 #
vertex $-1 $457 $573 #
point $-1 72.846984636483981 18.493650924042541 8.8982490695505803 #
straight-curve $-1 -77.183751945554974 36.758564588176348 0 0 0 -1 I I #
point $-1 -77.183751945554974 -36.758564588176348 -14.769837378091673 #
straight-curve $-1 -77.183751945554974 0 -14.769837378091673 0 1 0 I I #
point $-1 -77.183751945554974 36.758564588176348 -14.769837378091673 #
coedge $-1 $483 $479 $488 $551 forward $356 $-1 #
vertex $-1 $480 $574 #
straight-curve $-1 -77.183751945554974 0 14.769837378091673 0 -1 0 I I #
point $-1 -77.183751945554974 -19.97942171105138 14.769837378091673 #
straight-curve $-1 77.183751945554974 0 14.769837378091673 0 1 0 I I #
edge $-1 $547 -77.183751945554974 $492 77.183751945554974 $488 $575 forward 7 unknown #
straight-curve $-1 -77.183751945554974 -36.758564588176348 0 0 0 -1 I I #
point $-1 77.183751945554974 -36.758564588176348 14.769837378091673 #
edge $-1 $507 -77.183751945554974 $556 77.183751945554974 $504 $576 forward 7 unknown #
straight-curve $-1 77.183751945554974 0 14.769837378091673 0 1 0 I I #
vertex $-1 $554 $577 #
straight-curve $-1 -77.183751945554974 0 14.769837378091673 0 -1 0 I I #
point $-1 77.183751945554974 19.97942171105138 14.769837378091673 #
straight-curve $-1 -77.183751945554974 36.758564588176348 0 0 0 -1 I I #
point $-1 77.183751945554974 36.758564588176348 14.769837378091673 #
straight-curve $-1 77.183751945554974 -7.42885393504422 110.9800750742649 0 0 -1 I I #
point $-1 77.183751945554974 -7.42885393504422 14.769837378091673 #
straight-curve $-1 77.183751945554974 -1.8572134837610541 5.2787722436730249 0 1 0 I I #
point $-1 77.183751945554974 -7.42885393504422 5.2787722436730462 #
point $-1 72.145148523173177 -5.9430831480353739 8.9844237181009046 #
point $-1 72.145148523173177 -3.7144269675221082 8.9844237181009046 #
point $-1 72.145148523173177 -1.485770787008839 8.9844237181009046 #
straight-curve $-1 77.183751945554974 0 14.769837378091673 0 1 0 I I #
straight-curve $-1 77.183751945554974 19.979421711051383 110.9800750742649 0 0 1 I I #
point $-1 77.183751945554974 19.97942171105138 14.769837378091673 #
point $-1 72.145148523173177 14.03633856301601 8.9844237181009046 #
point $-1 72.145148523173177 16.264994743529272 8.9844237181009046 #
point $-1 72.145148523173177 18.493650924042541 8.9844237181009046 #
point $-1 -77.183751945554974 -36.758564588176348 14.769837378091673 #
straight-curve $-1 0 -36.758564588176348 14.769837378091673 1 0 0 I I #
straight-curve $-1 0 36.758564588176348 14.769837378091673 -1 0 0 I I #
point $-1 -77.183751945554974 36.758564588176348 14.769837378091673 #
End-of-ACIS-data 