500 0 6 0           
7 Unknown 11 ACIS 5.0 NT 24 Fri Mar 26 14:53:03 1999 
-1 9.9999999999999995e-007 1e-010 
body $-1 $6 $-1 $7 #
body $-1 $8 $-1 $9 #
body $-1 $10 $-1 $11 #
body $-1 $12 $-1 $13 #
body $-1 $14 $-1 $15 #
body $-1 $16 $-1 $17 #
lump $-1 $-1 $18 $0 #
transform $-1 1 0 0 0 1 0 0 0 1 65.568407238990446 28.172983866648469 9.8905942750817584 1 rotate no_reflect no_shear #
lump $-1 $-1 $19 $1 #
transform $-1 1 0 0 0 1 0 0 0 1 65.568407238990446 28.172983866648469 9.8905942750817584 1 rotate no_reflect no_shear #
lump $-1 $-1 $20 $2 #
transform $-1 1 0 0 0 1 0 0 0 1 65.568407238990446 28.172983866648469 9.8905942750817584 1 rotate no_reflect no_shear #
lump $-1 $-1 $21 $3 #
transform $-1 1 0 0 0 1 0 0 0 1 65.568407238990446 28.172983866648469 9.8905942750817584 1 rotate no_reflect no_shear #
lump $-1 $-1 $22 $4 #
transform $-1 1 0 0 0 1 0 0 0 1 65.568407238990446 28.172983866648469 9.8905942750817584 1 rotate no_reflect no_shear #
lump $-1 $-1 $23 $5 #
transform $-1 1 0 0 0 1 0 0 0 1 65.568407238990446 28.172983866648469 9.8905942750817584 1 rotate no_reflect no_shear #
shell $-1 $-1 $-1 $24 $-1 $6 #
shell $-1 $-1 $-1 $25 $-1 $8 #
shell $-1 $-1 $-1 $26 $-1 $10 #
shell $-1 $-1 $-1 $27 $-1 $12 #
shell $-1 $-1 $-1 $28 $-1 $14 #
shell $-1 $-1 $-1 $29 $-1 $16 #
face $-1 $30 $31 $18 $-1 $32 forward single #
face $-1 $33 $34 $19 $-1 $35 forward single #
face $-1 $36 $37 $20 $-1 $38 forward single #
face $-1 $39 $40 $21 $-1 $41 reversed single #
face $-1 $42 $43 $22 $-1 $44 forward single #
face $-1 $45 $46 $23 $-1 $47 forward single #
face $-1 $48 $49 $18 $-1 $50 reversed single #
loop $-1 $-1 $51 $24 #
plane-surface $-1 0 0 9.8905942750817584 0 0 1 1 0 0 forward_v I I I I #
face $-1 $52 $53 $19 $-1 $54 forward single #
loop $-1 $-1 $55 $25 #
plane-surface $-1 -65.568407238990446 0 0 1 0 0 0 0 -1 forward_v I I I I #
face $-1 $56 $57 $20 $-1 $58 reversed single #
loop $-1 $-1 $59 $26 #
plane-surface $-1 65.568407238990446 0 0 -1 0 0 0 0 1 forward_v I I I I #
face $-1 $60 $61 $21 $-1 $62 reversed single #
loop $-1 $-1 $63 $27 #
plane-surface $-1 17.977422427894155 98.993652400704249 128.40213002276465 1 0 0 0 -0.79863551827123203 -0.60181501223851219 forward_v I I I I #
face $-1 $64 $65 $22 $-1 $66 forward single #
loop $-1 $67 $68 $28 #
cone-surface $-1 22.389585939713626 24.961364800376078 6.3018159029184666 0 -0.79863551827123203 -0.60181501223851219 1 0 0 1 I I 0 1 1 forward I I I I #
face $-1 $69 $70 $23 $-1 $71 forward single #
loop $-1 $72 $73 $29 #
cone-surface $-1 29.00783120744282 24.961364800376078 6.3018159029184666 0 -0.79863551827123203 -0.60181501223851219 1 0 0 1 I I 0 1 1 forward I I I I #
face $-1 $74 $75 $18 $-1 $76 reversed single #
loop $-1 $-1 $77 $30 #
plane-surface $-1 0 0 -9.8905942750817584 0 0 1 1 0 0 forward_v I I I I #
coedge $-1 $78 $79 $80 $81 forward $31 $-1 #
face $-1 $82 $83 $19 $-1 $84 reversed single #
loop $-1 $-1 $85 $33 #
plane-surface $-1 0 0 9.8905942750817584 0 0 1 1 0 0 forward_v I I I I #
coedge $-1 $86 $87 $88 $89 forward $34 $-1 #
face $-1 $90 $91 $20 $-1 $92 reversed single #
loop $-1 $-1 $93 $36 #
plane-surface $-1 0 0 -9.8905942750817584 0 0 1 1 0 0 forward_v I I I I #
coedge $-1 $94 $95 $96 $97 forward $37 $-1 #
face $-1 $98 $99 $21 $-1 $100 reversed single #
loop $-1 $-1 $101 $39 #
plane-surface $-1 25.698708573578216 -5.7368653943564283 49.482026412779078 0 0.79863551827123203 0.60181501223851219 1 0 0 forward_v I I I I #
coedge $-1 $102 $103 $104 $105 reversed $40 $-1 #
face $-1 $-1 $106 $22 $-1 $107 forward single #
loop $-1 $108 $109 $42 #
cone-surface $-1 22.389585939713626 23.388211011226705 5.1163595273751259 0 -0.79863551827123203 -0.60181501223851219 0.5 0 0 1 I I -0.70710678118654746 0.70710678118654746 0.5 forward I I I I #
loop $-1 $-1 $110 $28 #
coedge $-1 $68 $68 $111 $112 reversed $43 $-1 #
face $-1 $-1 $113 $23 $-1 $114 forward single #
loop $-1 $115 $116 $45 #
cone-surface $-1 29.00783120744282 23.388211011226705 5.1163595273751259 0 -0.79863551827123203 -0.60181501223851219 0.5 0 0 1 I I -0.70710678118654746 0.70710678118654746 0.5 forward I I I I #
loop $-1 $-1 $117 $29 #
coedge $-1 $73 $73 $118 $119 reversed $46 $-1 #
face $-1 $120 $121 $18 $-1 $122 reversed single #
loop $-1 $-1 $123 $48 #
plane-surface $-1 0 -28.172983866648469 0 0 1 0 0 0 1 forward_v I I I I #
coedge $-1 $124 $125 $126 $127 forward $49 $-1 #
coedge $-1 $128 $51 $129 $130 forward $31 $-1 #
coedge $-1 $51 $128 $131 $132 forward $31 $-1 #
coedge $-1 $133 $134 $51 $81 reversed $135 $-1 #
edge $-1 $136 -28.172983866648469 $137 28.172983866648469 $80 $138 forward 7 unknown #
face $-1 $139 $140 $19 $-1 $141 reversed single #
loop $-1 $-1 $142 $52 #
plane-surface $-1 -73.252862006347883 -26.672983866648469 0 1 0 0 0 0 -1 forward_v I I I I #
coedge $-1 $143 $144 $86 $145 forward $53 $-1 #
coedge $-1 $146 $55 $85 $145 reversed $34 $-1 #
coedge $-1 $55 $146 $147 $148 reversed $34 $-1 #
coedge $-1 $149 $150 $55 $89 reversed $140 $-1 #
edge $-1 $151 -9.8905942750817584 $152 9.8905942750817584 $88 $153 forward 7 unknown #
face $-1 $154 $155 $20 $-1 $156 reversed single #
loop $-1 $-1 $96 $56 #
plane-surface $-1 70.867220603317108 -15.024162531034889 0 0 1 0 0 0 1 forward_v I I I I #
coedge $-1 $157 $158 $95 $159 forward $57 $-1 #
coedge $-1 $160 $59 $161 $162 reversed $37 $-1 #
coedge $-1 $59 $160 $93 $159 reversed $37 $-1 #
coedge $-1 $163 $164 $59 $97 reversed $91 $-1 #
edge $-1 $165 -9.8905942750817584 $166 9.8905942750817584 $96 $167 forward 7 unknown #
face $-1 $168 $169 $21 $-1 $170 reversed single #
loop $-1 $-1 $171 $60 #
plane-surface $-1 33.419994719262277 98.993652400704249 128.40213002276465 -1 0 0 0 0.79863551827123203 0.60181501223851219 forward_v I I I I #
coedge $-1 $172 $173 $174 $175 reversed $61 $-1 #
coedge $-1 $103 $63 $176 $177 reversed $40 $-1 #
coedge $-1 $63 $102 $172 $178 reversed $40 $-1 #
coedge $-1 $174 $179 $63 $105 forward $180 $-1 #
edge $-1 $181 21.323842333703656 $182 25.399408406220907 $104 $183 forward 7 unknown #
loop $-1 $-1 $111 $64 #
plane-surface $-1 25.698708573578216 -5.7368653943564283 49.482026412779078 0 0.79863551827123203 0.60181501223851219 1 0 0 forward_v I I I I #
loop $-1 $-1 $184 $42 #
coedge $-1 $109 $109 $110 $185 reversed $65 $-1 #
coedge $-1 $110 $110 $109 $185 forward $67 $-1 #
coedge $-1 $111 $111 $68 $112 forward $106 $-1 #
edge $-1 $186 -1.4690813074873316e-015 $186 6.2831853071795987 $111 $187 forward 7 unknown #
loop $-1 $-1 $118 $69 #
plane-surface $-1 25.698708573578216 -5.7368653943564283 49.482026412779078 0 0.79863551827123203 0.60181501223851219 1 0 0 forward_v I I I I #
loop $-1 $-1 $188 $45 #
coedge $-1 $116 $116 $117 $189 reversed $70 $-1 #
coedge $-1 $117 $117 $116 $189 forward $72 $-1 #
coedge $-1 $118 $118 $73 $119 forward $113 $-1 #
edge $-1 $190 -1.4690813074873316e-015 $190 6.2831853071795987 $118 $191 forward 7 unknown #
face $-1 $192 $193 $18 $-1 $194 reversed single #
loop $-1 $-1 $195 $74 #
plane-surface $-1 -65.568407238990446 0 0 1 0 0 0 0 -1 forward_v I I I I #
coedge $-1 $196 $131 $197 $198 forward $75 $-1 #
coedge $-1 $199 $77 $196 $200 forward $49 $-1 #
coedge $-1 $77 $199 $201 $202 forward $49 $-1 #
coedge $-1 $134 $133 $77 $127 reversed $135 $-1 #
edge $-1 $203 -28.172983866648469 $204 28.172983866648469 $126 $205 forward 7 unknown #
coedge $-1 $79 $78 $206 $207 forward $31 $-1 #
coedge $-1 $208 $209 $78 $130 reversed $193 $-1 #
edge $-1 $137 -65.568407238990446 $210 65.568407238990446 $129 $211 forward 7 unknown #
coedge $-1 $123 $212 $79 $132 reversed $75 $-1 #
edge $-1 $213 -65.568407238990446 $136 65.568407238990446 $131 $214 forward 7 unknown #
coedge $-1 $126 $80 $212 $215 forward $135 $-1 #
coedge $-1 $80 $126 $208 $216 reversed $135 $-1 #
loop $-1 $-1 $133 $192 #
vertex $-1 $81 $217 #
vertex $-1 $81 $218 #
straight-curve $-1 65.568407238990446 0 9.8905942750817584 0 1 0 I I #
face $-1 $219 $220 $19 $-1 $221 reversed single #
loop $-1 $-1 $88 $82 #
plane-surface $-1 -69.410634622669164 -25.172983866648469 0 0 -1 0 0 0 -1 forward_v I I I I #
coedge $-1 $222 $223 $224 $225 forward $83 $-1 #
coedge $-1 $226 $85 $150 $227 forward $53 $-1 #
coedge $-1 $85 $226 $228 $229 forward $53 $-1 #
edge $-1 $230 -28.172983866648469 $152 -25.172983866648469 $85 $231 forward 7 unknown #
coedge $-1 $87 $86 $232 $233 reversed $34 $-1 #
coedge $-1 $234 $235 $87 $148 forward $220 $-1 #
edge $-1 $151 25.172983866648469 $236 28.172983866648469 $147 $237 forward 7 unknown #
coedge $-1 $224 $88 $235 $238 reversed $140 $-1 #
coedge $-1 $88 $224 $143 $227 reversed $140 $-1 #
vertex $-1 $148 $239 #
vertex $-1 $227 $240 #
straight-curve $-1 -65.568407238990446 -25.172983866648469 0 0 0 1 I I #
face $-1 $241 $242 $20 $-1 $243 reversed single #
loop $-1 $-1 $244 $90 #
plane-surface $-1 70.867220603317108 -11.103361564307786 0 0 -1 0 0 0 -1 forward_v I I I I #
coedge $-1 $245 $93 $246 $247 forward $57 $-1 #
coedge $-1 $93 $245 $163 $248 forward $57 $-1 #
edge $-1 $165 -15.024162531034889 $249 -11.103361564307786 $93 $250 forward 7 unknown #
coedge $-1 $95 $94 $251 $252 forward $37 $-1 #
coedge $-1 $253 $254 $94 $162 forward $255 $-1 #
edge $-1 $256 11.103361564307786 $166 15.024162531034889 $161 $257 forward 7 unknown #
coedge $-1 $258 $96 $158 $248 reversed $91 $-1 #
coedge $-1 $96 $258 $253 $259 reversed $91 $-1 #
vertex $-1 $159 $260 #
vertex $-1 $259 $261 #
straight-curve $-1 65.568407238990446 -15.024162531034889 0 0 0 1 I I #
face $-1 $-1 $180 $21 $-1 $262 forward single #
loop $-1 $-1 $263 $98 #
plane-surface $-1 0 28.172983866648469 0 0 -1 0 0 0 -1 forward_v I I I I #
coedge $-1 $264 $265 $266 $267 reversed $99 $-1 #
coedge $-1 $268 $101 $103 $178 forward $61 $-1 #
coedge $-1 $101 $268 $264 $269 forward $61 $-1 #
coedge $-1 $266 $104 $101 $175 forward $180 $-1 #
edge $-1 $182 5.1280681411050466 $270 20.570640432473169 $174 $271 forward 7 unknown #
coedge $-1 $272 $273 $102 $177 forward $169 $-1 #
edge $-1 $274 -59.718929741778943 $181 -54.310470736300566 $176 $275 forward 7 unknown #
edge $-1 $182 49.573843426597136 $274 56.345967733296902 $103 $276 forward 7 unknown #
coedge $-1 $104 $266 $272 $277 forward $180 $-1 #
loop $-1 $-1 $266 $168 #
vertex $-1 $177 $278 #
vertex $-1 $105 $279 #
straight-curve $-1 17.977422427894155 49.496826200352125 9.8905942750817601 0 -1 0 I I #
coedge $-1 $184 $184 $-1 $280 reversed $108 $-1 #
edge $-1 $281 0 $281 6.2831853071796004 $109 $282 forward 7 unknown #
vertex $-1 $112 $283 #
ellipse-curve $-1 22.389585939713626 26.135200830389852 7.1863647723425625 0 0.79863551827123203 0.60181501223851219 1 0 0 1 I I #
coedge $-1 $188 $188 $-1 $284 reversed $115 $-1 #
edge $-1 $285 0 $285 6.2831853071796004 $116 $286 forward 7 unknown #
vertex $-1 $119 $287 #
ellipse-curve $-1 29.00783120744282 26.135200830389852 7.1863647723425625 0 0.79863551827123203 0.60181501223851219 1 0 0 1 I I #
face $-1 $-1 $135 $18 $-1 $288 reversed single #
loop $-1 $-1 $208 $120 #
plane-surface $-1 0 28.172983866648469 0 0 -1 0 0 0 -1 forward_v I I I I #
coedge $-1 $289 $206 $209 $290 forward $121 $-1 #
coedge $-1 $212 $123 $124 $200 reversed $75 $-1 #
coedge $-1 $206 $289 $123 $198 reversed $121 $-1 #
edge $-1 $213 -9.8905942750817584 $291 9.8905942750817584 $197 $292 forward 7 unknown #
coedge $-1 $125 $124 $289 $293 forward $49 $-1 #
edge $-1 $204 -65.568407238990446 $291 65.568407238990446 $196 $294 forward 7 unknown #
coedge $-1 $209 $208 $125 $202 reversed $193 $-1 #
edge $-1 $295 -65.568407238990446 $203 65.568407238990446 $201 $296 forward 7 unknown #
vertex $-1 $127 $297 #
vertex $-1 $215 $298 #
straight-curve $-1 65.568407238990446 0 -9.8905942750817584 0 -1 0 I I #
coedge $-1 $195 $197 $128 $207 reversed $121 $-1 #
edge $-1 $210 -28.172983866648469 $213 28.172983866648469 $206 $299 forward 7 unknown #
coedge $-1 $201 $129 $134 $216 forward $193 $-1 #
coedge $-1 $129 $201 $195 $290 reversed $193 $-1 #
vertex $-1 $130 $300 #
straight-curve $-1 0 28.172983866648469 9.8905942750817584 -1 0 0 I I #
coedge $-1 $131 $196 $133 $215 reversed $75 $-1 #
vertex $-1 $207 $301 #
straight-curve $-1 0 -28.172983866648469 9.8905942750817584 1 0 0 I I #
edge $-1 $136 -9.8905942750817584 $204 9.8905942750817584 $133 $302 forward 7 unknown #
edge $-1 $137 -9.8905942750817584 $203 9.8905942750817584 $134 $303 forward 7 unknown #
point $-1 65.568407238990446 -28.172983866648469 9.8905942750817584 #
point $-1 65.568407238990446 28.172983866648469 9.8905942750817584 #
face $-1 $-1 $304 $19 $-1 $305 reversed single #
loop $-1 $-1 $147 $139 #
plane-surface $-1 0 0 -9.8905942750817584 0 0 1 1 0 0 forward_v I I I I #
coedge $-1 $306 $142 $307 $308 reversed $83 $-1 #
coedge $-1 $142 $306 $226 $309 reversed $83 $-1 #
coedge $-1 $150 $149 $142 $225 reversed $140 $-1 #
edge $-1 $310 -9.8905942750817584 $311 9.8905942750817584 $224 $312 forward 7 unknown #
coedge $-1 $144 $143 $223 $309 forward $53 $-1 #
edge $-1 $152 -3.8422273836787184 $310 3.8422273836787184 $150 $313 forward 7 unknown #
coedge $-1 $314 $232 $144 $229 reversed $304 $-1 #
edge $-1 $315 -73.252862006347883 $230 -65.568407238990446 $228 $316 forward 7 unknown #
vertex $-1 $233 $317 #
straight-curve $-1 -65.568407238990446 0 9.8905942750817584 0 1 0 I I #
coedge $-1 $228 $318 $146 $233 forward $304 $-1 #
edge $-1 $236 -9.8905942750817584 $230 9.8905942750817584 $232 $319 forward 7 unknown #
coedge $-1 $307 $147 $318 $320 forward $220 $-1 #
coedge $-1 $147 $307 $149 $238 forward $220 $-1 #
vertex $-1 $320 $321 #
straight-curve $-1 -65.568407238990446 0 -9.8905942750817584 0 -1 0 I I #
edge $-1 $311 -3.8422273836787184 $151 3.8422273836787184 $149 $322 forward 7 unknown #
point $-1 -65.568407238990446 -25.172983866648469 -9.8905942750817584 #
point $-1 -65.568407238990446 -25.172983866648469 9.8905942750817584 #
face $-1 $-1 $255 $20 $-1 $323 forward single #
loop $-1 $-1 $324 $154 #
plane-surface $-1 76.166033967643784 -13.063762047671338 0 -1 0 0 0 0 1 forward_v I I I I #
coedge $-1 $246 $325 $326 $327 forward $155 $-1 #
coedge $-1 $158 $157 $328 $329 forward $57 $-1 #
coedge $-1 $251 $244 $157 $247 reversed $155 $-1 #
edge $-1 $249 -5.2988133643266764 $330 5.2988133643266764 $246 $331 forward 7 unknown #
edge $-1 $332 -5.2988133643266764 $165 5.2988133643266764 $163 $333 forward 7 unknown #
vertex $-1 $247 $334 #
straight-curve $-1 65.568407238990446 0 -9.8905942750817584 0 1 0 I I #
coedge $-1 $325 $246 $160 $252 reversed $155 $-1 #
edge $-1 $256 -9.8905942750817584 $249 9.8905942750817584 $251 $335 forward 7 unknown #
coedge $-1 $336 $161 $164 $259 forward $255 $-1 #
coedge $-1 $161 $336 $325 $337 forward $255 $-1 #
loop $-1 $-1 $161 $241 #
vertex $-1 $162 $338 #
straight-curve $-1 65.568407238990446 0 9.8905942750817584 0 -1 0 I I #
coedge $-1 $164 $163 $324 $339 reversed $91 $-1 #
edge $-1 $166 -5.2988133643266764 $340 5.2988133643266764 $164 $341 forward 7 unknown #
point $-1 65.568407238990432 -15.024162531034889 -9.8905942750817584 #
point $-1 65.568407238990432 -15.024162531034889 9.8905942750817584 #
plane-surface $-1 0 0 9.8905942750817584 0 0 1 1 0 0 forward_v I I I I #
coedge $-1 $273 $272 $265 $342 forward $169 $-1 #
coedge $-1 $265 $171 $173 $269 reversed $99 $-1 #
coedge $-1 $171 $264 $263 $342 reversed $99 $-1 #
coedge $-1 $179 $174 $171 $267 forward $180 $-1 #
edge $-1 $270 -25.399408406220907 $343 -21.323842333703656 $266 $344 forward 7 unknown #
coedge $-1 $173 $172 $273 $345 reversed $61 $-1 #
edge $-1 $346 -56.345967733296902 $270 -49.573843426597136 $264 $347 forward 7 unknown #
vertex $-1 $175 $348 #
straight-curve $-1 12.849354286789108 24.097417794131218 9.8905942750817601 1 0 0 I I #
coedge $-1 $263 $176 $179 $277 reversed $169 $-1 #
coedge $-1 $176 $263 $268 $345 forward $169 $-1 #
vertex $-1 $177 $349 #
straight-curve $-1 17.977422427894155 28.172983866648465 64.201065011382326 0 0 1 I I #
straight-curve $-1 17.977422427894155 -5.7368653943564283 49.482026412779078 0 0.60181501223851219 -0.79863551827123203 I I #
edge $-1 $343 -33.419994719262277 $181 -17.977422427894155 $272 $350 forward 7 unknown #
point $-1 17.977422427894155 28.172983866648469 9.8905942750817584 #
point $-1 17.977422427894155 24.097417794131218 9.8905942750817601 #
edge $-1 $351 1 $351 0 $184 $-1 forward 7 unknown #
vertex $-1 $185 $352 #
ellipse-curve $-1 22.389585939713626 23.787528770362321 5.4172670334943822 0 0.79863551827123203 0.60181501223851219 1 0 0 1 I I #
point $-1 23.389585939713626 26.135200830389834 7.186364772342551 #
edge $-1 $353 1 $353 0 $188 $-1 forward 7 unknown #
vertex $-1 $189 $354 #
ellipse-curve $-1 29.00783120744282 23.787528770362321 5.4172670334943822 0 0.79863551827123203 0.60181501223851219 1 0 0 1 I I #
point $-1 30.00783120744282 26.135200830389834 7.186364772342551 #
plane-surface $-1 65.568407238990446 0 0 -1 0 0 0 0 1 forward_v I I I I #
coedge $-1 $197 $195 $199 $293 reversed $121 $-1 #
edge $-1 $210 -9.8905942750817584 $295 9.8905942750817584 $209 $355 forward 7 unknown #
vertex $-1 $293 $356 #
straight-curve $-1 -65.568407238990446 -28.172983866648469 0 0 0 -1 I I #
edge $-1 $291 -28.172983866648469 $295 28.172983866648469 $289 $357 forward 7 unknown #
straight-curve $-1 0 -28.172983866648469 -9.8905942750817584 -1 0 0 I I #
vertex $-1 $202 $358 #
straight-curve $-1 0 28.172983866648469 -9.8905942750817584 1 0 0 I I #
point $-1 65.568407238990446 28.172983866648469 -9.8905942750817584 #
point $-1 65.568407238990446 -28.172983866648469 -9.8905942750817584 #
straight-curve $-1 -65.568407238990446 0 9.8905942750817584 0 -1 0 I I #
point $-1 -65.568407238990446 28.172983866648469 9.8905942750817584 #
point $-1 -65.568407238990446 -28.172983866648469 9.8905942750817584 #
straight-curve $-1 65.568407238990446 -28.172983866648469 0 0 0 -1 I I #
straight-curve $-1 65.568407238990446 28.172983866648469 0 0 0 -1 I I #
loop $-1 $-1 $232 $219 #
plane-surface $-1 0 -28.172983866648469 0 0 1 0 0 0 1 forward_v I I I I #
coedge $-1 $223 $222 $314 $359 reversed $83 $-1 #
coedge $-1 $235 $234 $222 $308 forward $220 $-1 #
edge $-1 $360 -1.5 $311 1.5 $222 $361 forward 7 unknown #
edge $-1 $310 -1.5 $315 1.5 $223 $362 forward 7 unknown #
vertex $-1 $227 $363 #
vertex $-1 $238 $364 #
straight-curve $-1 -73.252862006347883 -25.172983866648469 0 0 0 -1 I I #
straight-curve $-1 -69.410634622669164 -25.172983866648469 9.8905942750817584 -1 0 0 I I #
coedge $-1 $318 $228 $306 $359 forward $304 $-1 #
vertex $-1 $309 $365 #
straight-curve $-1 0 -28.172983866648469 9.8905942750817584 1 0 0 I I #
point $-1 -65.568407238990446 -28.172983866648469 9.8905942750817584 #
coedge $-1 $232 $314 $234 $320 reversed $304 $-1 #
straight-curve $-1 -65.568407238990446 -28.172983866648469 0 0 0 1 I I #
edge $-1 $236 -3.8422273836787184 $360 3.8422273836787184 $318 $366 forward 7 unknown #
point $-1 -65.568407238990446 -28.172983866648469 -9.8905942750817584 #
straight-curve $-1 -69.410634622669164 -25.172983866648469 -9.8905942750817584 1 0 0 I I #
plane-surface $-1 0 0 9.8905942750817584 0 0 1 1 0 0 forward_v I I I I #
coedge $-1 $328 $367 $258 $339 forward $242 $-1 #
coedge $-1 $244 $251 $254 $337 reversed $155 $-1 #
coedge $-1 $367 $328 $244 $327 reversed $242 $-1 #
edge $-1 $368 -9.8905942750817584 $330 9.8905942750817584 $326 $369 forward 7 unknown #
coedge $-1 $326 $324 $245 $329 reversed $242 $-1 #
edge $-1 $330 -1.9604004833635518 $332 1.9604004833635518 $328 $370 forward 7 unknown #
vertex $-1 $329 $371 #
straight-curve $-1 70.867220603317108 -11.103361564307786 -9.8905942750817584 1 0 0 I I #
vertex $-1 $339 $372 #
straight-curve $-1 70.867220603317108 -15.024162531034889 -9.8905942750817584 -1 0 0 I I #
point $-1 65.568407238990432 -11.103361564307786 -9.8905942750817584 #
straight-curve $-1 65.568407238990446 -11.103361564307786 0 0 0 -1 I I #
coedge $-1 $254 $253 $367 $373 forward $255 $-1 #
edge $-1 $368 -5.2988133643266764 $256 5.2988133643266764 $325 $374 forward 7 unknown #
point $-1 65.568407238990432 -11.103361564307786 9.8905942750817584 #
edge $-1 $340 -9.8905942750817584 $332 9.8905942750817584 $324 $375 forward 7 unknown #
vertex $-1 $373 $376 #
straight-curve $-1 70.867220603317108 -15.024162531034889 9.8905942750817584 1 0 0 I I #
edge $-1 $343 54.310470736300566 $346 59.718929741778943 $263 $377 forward 7 unknown #
vertex $-1 $277 $378 #
straight-curve $-1 33.419994719262277 49.496826200352125 9.8905942750817601 0 1 0 I I #
edge $-1 $346 -20.570640432473169 $274 -5.1280681411050466 $273 $379 forward 7 unknown #
vertex $-1 $345 $380 #
straight-curve $-1 33.419994719262277 -5.7368653943564283 49.482026412779078 0 -0.60181501223851219 0.79863551827123203 I I #
point $-1 33.419994719262277 24.097417794131218 9.8905942750817601 #
point $-1 17.977422427894155 28.172983866648465 4.4821352696033827 #
straight-curve $-1 0 28.172983866648469 9.8905942750817584 -1 0 0 I I #
vertex $-1 $280 $381 #
point $-1 23.389585939713626 23.787528770362321 5.4172670334943822 #
vertex $-1 $284 $382 #
point $-1 30.00783120744282 23.787528770362321 5.4172670334943822 #
straight-curve $-1 -65.568407238990446 28.172983866648469 0 0 0 -1 I I #
point $-1 -65.568407238990446 -28.172983866648469 -9.8905942750817584 #
straight-curve $-1 -65.568407238990446 0 -9.8905942750817584 0 1 0 I I #
point $-1 -65.568407238990446 28.172983866648469 -9.8905942750817584 #
edge $-1 $315 -9.8905942750817584 $360 9.8905942750817584 $306 $383 forward 7 unknown #
vertex $-1 $308 $384 #
straight-curve $-1 -73.252862006347883 -26.672983866648469 -9.8905942750817584 0 1 0 I I #
straight-curve $-1 -73.252862006347883 -26.672983866648469 9.8905942750817584 0 -1 0 I I #
point $-1 -73.252862006347883 -25.172983866648469 9.8905942750817584 #
point $-1 -73.252862006347883 -25.172983866648469 -9.8905942750817584 #
point $-1 -73.252862006347883 -28.172983866648469 9.8905942750817584 #
straight-curve $-1 -69.410634622669164 -28.172983866648469 -9.8905942750817584 -1 0 0 I I #
coedge $-1 $324 $326 $336 $373 reversed $242 $-1 #
vertex $-1 $373 $385 #
straight-curve $-1 76.166033967643784 -11.103361564307786 0 0 0 -1 I I #
straight-curve $-1 76.166033967643784 -13.063762047671338 -9.8905942750817584 0 -1 0 I I #
point $-1 76.166033967643784 -11.103361564307786 -9.8905942750817584 #
point $-1 76.166033967643784 -15.024162531034889 -9.8905942750817584 #
edge $-1 $340 -1.9604004833635518 $368 1.9604004833635518 $367 $386 forward 7 unknown #
straight-curve $-1 70.867220603317108 -11.103361564307786 9.8905942750817584 -1 0 0 I I #
straight-curve $-1 76.166033967643784 -15.024162531034889 0 0 0 -1 I I #
point $-1 76.166033967643784 -15.024162531034889 9.8905942750817584 #
straight-curve $-1 33.419994719262277 28.172983866648465 64.201065011382326 0 0 -1 I I #
point $-1 33.419994719262277 28.172983866648469 9.8905942750817584 #
straight-curve $-1 12.849354286789108 28.172983866648465 4.4821352696033827 -1 0 0 I I #
point $-1 33.419994719262277 28.172983866648465 4.4821352696033827 #
point $-1 22.389585939713626 22.988893252091088 4.8154520212558696 #
point $-1 29.00783120744282 22.988893252091088 4.8154520212558696 #
straight-curve $-1 -73.252862006347883 -28.172983866648469 0 0 0 -1 I I #
point $-1 -73.252862006347883 -28.172983866648469 -9.8905942750817584 #
point $-1 76.166033967643784 -11.103361564307786 9.8905942750817584 #
straight-curve $-1 76.166033967643784 -13.063762047671338 9.8905942750817584 0 1 0 I I #
End-of-ACIS-data 