500 0 17 0           
7 Unknown 11 ACIS 5.0 NT 24 Fri Mar 26 00:25:02 1999 
-1 9.9999999999999995e-007 1e-010 
body $-1 $17 $-1 $18 #
body $-1 $19 $-1 $20 #
body $-1 $21 $-1 $22 #
body $-1 $23 $-1 $24 #
body $-1 $25 $-1 $26 #
body $-1 $27 $-1 $28 #
body $-1 $29 $-1 $30 #
body $-1 $31 $-1 $32 #
body $-1 $33 $-1 $34 #
body $-1 $35 $-1 $36 #
body $-1 $37 $-1 $38 #
body $-1 $39 $-1 $40 #
body $-1 $41 $-1 $42 #
body $-1 $43 $-1 $44 #
body $-1 $45 $-1 $46 #
body $-1 $47 $-1 $48 #
body $-1 $49 $-1 $50 #
lump $-1 $-1 $51 $0 #
transform $-1 1 0 0 0 1 0 0 0 1 57.544480727561265 35.356128368408065 7.3819823792116139 1 rotate no_reflect no_shear #
lump $-1 $-1 $52 $1 #
transform $-1 1 0 0 0 1 0 0 0 1 57.544480727561265 35.356128368408065 7.3819823792116139 1 rotate no_reflect no_shear #
lump $-1 $-1 $53 $2 #
transform $-1 1 0 0 0 1 0 0 0 1 57.544480727561265 35.356128368408065 7.3819823792116139 1 rotate no_reflect no_shear #
lump $-1 $-1 $54 $3 #
transform $-1 1 0 0 0 1 0 0 0 1 57.544480727561265 35.356128368408065 7.3819823792116139 1 rotate no_reflect no_shear #
lump $-1 $-1 $55 $4 #
transform $-1 1 0 0 0 1 0 0 0 1 57.544480727561265 35.356128368408065 7.3819823792116139 1 rotate no_reflect no_shear #
lump $-1 $-1 $56 $5 #
transform $-1 1 0 0 0 1 0 0 0 1 57.544480727561265 35.356128368408065 7.3819823792116139 1 rotate no_reflect no_shear #
lump $-1 $-1 $57 $6 #
transform $-1 1 0 0 0 1 0 0 0 1 57.544480727561265 35.356128368408065 7.3819823792116139 1 rotate no_reflect no_shear #
lump $-1 $-1 $58 $7 #
transform $-1 1 0 0 0 1 0 0 0 1 57.544480727561265 35.356128368408065 7.3819823792116139 1 rotate no_reflect no_shear #
lump $-1 $-1 $59 $8 #
transform $-1 1 0 0 0 1 0 0 0 1 57.544480727561265 35.356128368408065 7.3819823792116139 1 rotate no_reflect no_shear #
lump $-1 $-1 $60 $9 #
transform $-1 1 0 0 0 1 0 0 0 1 57.544480727561265 35.356128368408065 7.3819823792116139 1 rotate no_reflect no_shear #
lump $-1 $-1 $61 $10 #
transform $-1 1 0 0 0 1 0 0 0 1 57.544480727561265 35.356128368408065 7.3819823792116139 1 rotate no_reflect no_shear #
lump $-1 $-1 $62 $11 #
transform $-1 1 0 0 0 1 0 0 0 1 57.544480727561265 35.356128368408065 7.3819823792116139 1 rotate no_reflect no_shear #
lump $-1 $-1 $63 $12 #
transform $-1 1 0 0 0 1 0 0 0 1 57.544480727561265 35.356128368408065 7.3819823792116139 1 rotate no_reflect no_shear #
lump $-1 $-1 $64 $13 #
transform $-1 1 0 0 0 1 0 0 0 1 57.544480727561265 35.356128368408065 7.3819823792116139 1 rotate no_reflect no_shear #
lump $-1 $-1 $65 $14 #
transform $-1 1 0 0 0 1 0 0 0 1 57.544480727561265 35.356128368408065 7.3819823792116139 1 rotate no_reflect no_shear #
lump $-1 $-1 $66 $15 #
transform $-1 1 0 0 0 1 0 0 0 1 57.544480727561265 35.356128368408065 7.3819823792116139 1 rotate no_reflect no_shear #
lump $-1 $-1 $67 $16 #
transform $-1 1 0 0 0 1 0 0 0 1 57.544480727561265 35.356128368408065 7.3819823792116139 1 rotate no_reflect no_shear #
shell $-1 $-1 $-1 $68 $-1 $17 #
shell $-1 $-1 $-1 $69 $-1 $19 #
shell $-1 $-1 $-1 $70 $-1 $21 #
shell $-1 $-1 $-1 $71 $-1 $23 #
shell $-1 $-1 $-1 $72 $-1 $25 #
shell $-1 $-1 $-1 $73 $-1 $27 #
shell $-1 $-1 $-1 $74 $-1 $29 #
shell $-1 $-1 $-1 $75 $-1 $31 #
shell $-1 $-1 $-1 $76 $-1 $33 #
shell $-1 $-1 $-1 $77 $-1 $35 #
shell $-1 $-1 $-1 $78 $-1 $37 #
shell $-1 $-1 $-1 $79 $-1 $39 #
shell $-1 $-1 $-1 $80 $-1 $41 #
shell $-1 $-1 $-1 $81 $-1 $43 #
shell $-1 $-1 $-1 $82 $-1 $45 #
shell $-1 $-1 $-1 $83 $-1 $47 #
shell $-1 $-1 $-1 $84 $-1 $49 #
face $-1 $85 $86 $51 $-1 $87 forward single #
face $-1 $88 $89 $52 $-1 $90 forward single #
face $-1 $91 $92 $53 $-1 $93 forward single #
face $-1 $94 $95 $54 $-1 $96 reversed single #
face $-1 $97 $98 $55 $-1 $99 forward single #
face $-1 $100 $101 $56 $-1 $102 forward single #
face $-1 $103 $104 $57 $-1 $105 reversed single #
face $-1 $106 $107 $58 $-1 $108 forward single #
face $-1 $109 $110 $59 $-1 $111 forward single #
face $-1 $112 $113 $60 $-1 $114 reversed single #
face $-1 $115 $116 $61 $-1 $117 forward single #
face $-1 $118 $119 $62 $-1 $120 forward single #
face $-1 $121 $122 $63 $-1 $123 reversed single #
face $-1 $124 $125 $64 $-1 $126 forward single #
face $-1 $127 $128 $65 $-1 $129 forward single #
face $-1 $130 $131 $66 $-1 $132 reversed single #
face $-1 $133 $134 $67 $-1 $135 forward single #
face $-1 $136 $137 $51 $-1 $138 reversed single #
loop $-1 $-1 $139 $68 #
plane-surface $-1 0 0 7.3819823792116139 0 0 1 1 0 0 forward_v I I I I #
face $-1 $140 $141 $52 $-1 $142 reversed single #
loop $-1 $-1 $143 $69 #
plane-surface $-1 -54.2197838325311 0 -2.9886586578759515 0 0 1 1 0 0 forward_v I I I I #
face $-1 $144 $145 $53 $-1 $146 reversed single #
loop $-1 $-1 $147 $70 #
plane-surface $-1 54.219783832531093 0 -2.9886586578759515 0 0 1 1 0 0 forward_v I I I I #
face $-1 $148 $149 $54 $-1 $150 reversed single #
loop $-1 $-1 $151 $71 #
plane-surface $-1 -34.395106279149218 97.587120040985297 122.06899355208969 -1 0 0 0 0.85716730853699208 0.51503806187062418 forward_v I I I I #
face $-1 $152 $153 $55 $-1 $154 forward single #
loop $-1 $155 $156 $72 #
cone-surface $-1 -44.252646911050121 31.482006831019426 3.3927284384208853 0 -0.85716730853699208 -0.51503806187062418 1.5 0 0 1 I I 0 1 1.5 forward I I I I #
face $-1 $157 $158 $56 $-1 $159 forward single #
loop $-1 $160 $161 $73 #
cone-surface $-1 -38.338122531909576 31.482006831019426 3.3927284384208853 0 -0.85716730853699208 -0.51503806187062418 1.5 0 0 1 I I 0 1 1.5 forward I I I I #
face $-1 $162 $163 $57 $-1 $164 reversed single #
loop $-1 $-1 $165 $74 #
plane-surface $-1 -8.9475628103987468 97.587120040985297 122.06899355208969 -1 0 0 0 0.85716730853699208 0.51503806187062418 forward_v I I I I #
face $-1 $166 $167 $58 $-1 $168 forward single #
loop $-1 $169 $170 $75 #
cone-surface $-1 -18.805103442299654 31.482006831019426 3.3927284384208853 0 -0.85716730853699208 -0.51503806187062418 1.5 0 0 1 I I 0 1 1.5 forward I I I I #
face $-1 $171 $172 $59 $-1 $173 forward single #
loop $-1 $174 $175 $76 #
cone-surface $-1 -12.890579063159109 31.482006831019426 3.3927284384208853 0 -0.85716730853699208 -0.51503806187062418 1.5 0 0 1 I I 0 1 1.5 forward I I I I #
face $-1 $176 $177 $60 $-1 $178 reversed single #
loop $-1 $-1 $179 $77 #
plane-surface $-1 16.499980658351721 97.587120040985297 122.06899355208969 -1 0 0 0 0.85716730853699208 0.51503806187062418 forward_v I I I I #
face $-1 $180 $181 $61 $-1 $182 forward single #
loop $-1 $183 $184 $78 #
cone-surface $-1 6.6424400264508137 31.482006831019426 3.3927284384208853 0 -0.85716730853699208 -0.51503806187062418 1.5 0 0 1 I I 0 1 1.5 forward I I I I #
face $-1 $185 $186 $62 $-1 $187 forward single #
loop $-1 $188 $189 $79 #
cone-surface $-1 12.556964405591359 31.482006831019426 3.3927284384208853 0 -0.85716730853699208 -0.51503806187062418 1.5 0 0 1 I I 0 1 1.5 forward I I I I #
face $-1 $190 $191 $63 $-1 $192 reversed single #
loop $-1 $-1 $193 $80 #
plane-surface $-1 41.947524127102184 97.587120040985297 122.06899355208969 -1 0 0 0 0.85716730853699208 0.51503806187062418 forward_v I I I I #
face $-1 $194 $195 $64 $-1 $196 forward single #
loop $-1 $197 $198 $81 #
cone-surface $-1 32.089983495201281 31.482006831019426 3.3927284384208853 0 -0.85716730853699208 -0.51503806187062418 1.5 0 0 1 I I 0 1 1.5 forward I I I I #
face $-1 $199 $200 $65 $-1 $201 forward single #
loop $-1 $202 $203 $82 #
cone-surface $-1 38.004507874341826 31.482006831019426 3.3927284384208853 0 -0.85716730853699208 -0.51503806187062418 1.5 0 0 1 I I 0 1 1.5 forward I I I I #
face $-1 $204 $205 $66 $-1 $206 reversed single #
loop $-1 $-1 $207 $83 #
plane-surface $-1 -31.230534969342099 -119.52686729528295 82.820175288733111 1 0 0 0 0.73135370988377701 -0.68199835119979291 forward_v I I I I #
face $-1 $208 $209 $67 $-1 $210 forward single #
loop $-1 $211 $212 $84 #
cone-surface $-1 -24.932914497889193 -33.567298757572615 5.5148386815274293 0 0.73135370988377701 -0.68199835119979291 0.5 0 0 1 I I 0 1 0.5 forward I I I I #
face $-1 $213 $214 $51 $-1 $215 reversed single #
loop $-1 $-1 $216 $85 #
plane-surface $-1 0 0 -7.3819823792116139 0 0 1 1 0 0 forward_v I I I I #
coedge $-1 $217 $218 $219 $220 forward $86 $-1 #
face $-1 $221 $222 $52 $-1 $223 reversed single #
loop $-1 $-1 $224 $88 #
plane-surface $-1 -50.895086937500935 0 -5.185320518543783 -1 0 0 0 0 1 forward_v I I I I #
coedge $-1 $225 $226 $227 $228 forward $89 $-1 #
face $-1 $229 $230 $53 $-1 $231 reversed single #
loop $-1 $-1 $232 $91 #
plane-surface $-1 50.895086937500928 0 -5.185320518543783 1 0 0 0 0 -1 forward_v I I I I #
coedge $-1 $233 $234 $235 $236 reversed $92 $-1 #
face $-1 $237 $238 $54 $-1 $239 reversed single #
loop $-1 $-1 $240 $94 #
plane-surface $-1 -41.295384721479849 -1.0633752918197104 62.793797901540415 0 0.85716730853699208 0.51503806187062418 1 0 0 forward_v I I I I #
coedge $-1 $241 $242 $243 $244 reversed $95 $-1 #
face $-1 $-1 $245 $55 $-1 $246 forward single #
loop $-1 $247 $248 $97 #
cone-surface $-1 -44.252646911050121 28.527373327881278 1.6174055838995258 0 -0.85716730853699208 -0.51503806187062418 0.75 0 0 1 I I -0.70710678118654757 0.70710678118654757 0.75 forward I I I I #
loop $-1 $-1 $249 $72 #
coedge $-1 $156 $156 $250 $251 reversed $98 $-1 #
face $-1 $-1 $252 $56 $-1 $253 forward single #
loop $-1 $254 $255 $100 #
cone-surface $-1 -38.338122531909576 28.527373327881278 1.6174055838995258 0 -0.85716730853699208 -0.51503806187062418 0.75 0 0 1 I I -0.70710678118654757 0.70710678118654757 0.75 forward I I I I #
loop $-1 $-1 $256 $73 #
coedge $-1 $161 $161 $257 $258 reversed $101 $-1 #
face $-1 $259 $260 $57 $-1 $261 reversed single #
loop $-1 $-1 $262 $103 #
plane-surface $-1 -15.847841252729381 -1.0633752918197104 62.793797901540415 0 0.85716730853699208 0.51503806187062418 1 0 0 forward_v I I I I #
coedge $-1 $263 $264 $265 $266 reversed $104 $-1 #
face $-1 $-1 $267 $58 $-1 $268 forward single #
loop $-1 $269 $270 $106 #
cone-surface $-1 -18.805103442299654 28.527373327881278 1.6174055838995258 0 -0.85716730853699208 -0.51503806187062418 0.75 0 0 1 I I -0.70710678118654757 0.70710678118654757 0.75 forward I I I I #
loop $-1 $-1 $271 $75 #
coedge $-1 $170 $170 $272 $273 reversed $107 $-1 #
face $-1 $-1 $274 $59 $-1 $275 forward single #
loop $-1 $276 $277 $109 #
cone-surface $-1 -12.890579063159109 28.527373327881278 1.6174055838995258 0 -0.85716730853699208 -0.51503806187062418 0.75 0 0 1 I I -0.70710678118654757 0.70710678118654757 0.75 forward I I I I #
loop $-1 $-1 $278 $76 #
coedge $-1 $175 $175 $279 $280 reversed $110 $-1 #
face $-1 $281 $282 $60 $-1 $283 reversed single #
loop $-1 $-1 $284 $112 #
plane-surface $-1 9.5997022160210861 -1.0633752918197104 62.793797901540415 0 0.85716730853699208 0.51503806187062418 1 0 0 forward_v I I I I #
coedge $-1 $285 $286 $287 $288 reversed $113 $-1 #
face $-1 $-1 $289 $61 $-1 $290 forward single #
loop $-1 $291 $292 $115 #
cone-surface $-1 6.6424400264508137 28.527373327881278 1.6174055838995258 0 -0.85716730853699208 -0.51503806187062418 0.75 0 0 1 I I -0.70710678118654757 0.70710678118654757 0.75 forward I I I I #
loop $-1 $-1 $293 $78 #
coedge $-1 $184 $184 $294 $295 reversed $116 $-1 #
face $-1 $-1 $296 $62 $-1 $297 forward single #
loop $-1 $298 $299 $118 #
cone-surface $-1 12.556964405591359 28.527373327881278 1.6174055838995258 0 -0.85716730853699208 -0.51503806187062418 0.75 0 0 1 I I -0.70710678118654757 0.70710678118654757 0.75 forward I I I I #
loop $-1 $-1 $300 $79 #
coedge $-1 $189 $189 $301 $302 reversed $119 $-1 #
face $-1 $303 $304 $63 $-1 $305 reversed single #
loop $-1 $-1 $306 $121 #
plane-surface $-1 35.047245684771553 -1.0633752918197104 62.793797901540415 0 0.85716730853699208 0.51503806187062418 1 0 0 forward_v I I I I #
coedge $-1 $307 $308 $309 $310 reversed $122 $-1 #
face $-1 $-1 $311 $64 $-1 $312 forward single #
loop $-1 $313 $314 $124 #
cone-surface $-1 32.089983495201281 28.527373327881278 1.6174055838995258 0 -0.85716730853699208 -0.51503806187062418 0.75 0 0 1 I I -0.70710678118654757 0.70710678118654757 0.75 forward I I I I #
loop $-1 $-1 $315 $81 #
coedge $-1 $198 $198 $316 $317 reversed $125 $-1 #
face $-1 $-1 $318 $65 $-1 $319 forward single #
loop $-1 $320 $321 $127 #
cone-surface $-1 38.004507874341826 28.527373327881278 1.6174055838995258 0 -0.85716730853699208 -0.51503806187062418 0.75 0 0 1 I I -0.70710678118654757 0.70710678118654757 0.75 forward I I I I #
loop $-1 $-1 $322 $82 #
coedge $-1 $203 $203 $323 $324 reversed $128 $-1 #
face $-1 $325 $326 $66 $-1 $327 reversed single #
loop $-1 $-1 $328 $130 #
plane-surface $-1 -24.932914497889186 -35.356128368408079 4.3296933350430322 0 -0.73135370988377701 0.68199835119979291 1 0 0 forward_v I I I I #
coedge $-1 $329 $330 $331 $332 reversed $131 $-1 #
face $-1 $-1 $333 $67 $-1 $334 forward single #
loop $-1 $335 $336 $133 #
cone-surface $-1 -24.932914497889193 -33.018783475159779 5.0033399181275851 0 0.73135370988377701 -0.68199835119979291 0.25 0 0 1 I I -0.70710678118654746 0.70710678118654746 0.25 forward I I I I #
loop $-1 $-1 $337 $84 #
coedge $-1 $212 $212 $338 $339 reversed $134 $-1 #
face $-1 $340 $341 $51 $-1 $342 reversed single #
loop $-1 $-1 $343 $136 #
plane-surface $-1 0 -35.356128368408065 0 0 1 0 0 0 1 forward_v I I I I #
coedge $-1 $344 $345 $346 $347 forward $137 $-1 #
coedge $-1 $348 $139 $349 $350 forward $86 $-1 #
coedge $-1 $139 $348 $351 $352 forward $86 $-1 #
coedge $-1 $353 $354 $139 $220 reversed $355 $-1 #
edge $-1 $356 -35.356128368408065 $357 35.356128368408065 $219 $358 forward 7 unknown #
face $-1 $359 $360 $52 $-1 $361 reversed single #
loop $-1 $-1 $362 $140 #
plane-surface $-1 0 0 -7.3819823792116139 0 0 1 1 0 0 forward_v I I I I #
coedge $-1 $363 $227 $364 $365 reversed $141 $-1 #
coedge $-1 $366 $143 $367 $368 reversed $89 $-1 #
coedge $-1 $143 $366 $369 $370 reversed $89 $-1 #
coedge $-1 $224 $371 $143 $228 reversed $141 $-1 #
edge $-1 $372 -35.356128368408065 $373 35.356128368408065 $227 $374 forward 7 unknown #
face $-1 $375 $376 $53 $-1 $377 reversed single #
loop $-1 $-1 $378 $144 #
plane-surface $-1 0 -35.356128368408065 0 0 1 0 0 0 1 forward_v I I I I #
coedge $-1 $379 $380 $381 $382 reversed $145 $-1 #
coedge $-1 $383 $147 $384 $385 reversed $92 $-1 #
coedge $-1 $147 $383 $378 $386 reversed $92 $-1 #
coedge $-1 $387 $388 $147 $236 forward $389 $-1 #
edge $-1 $390 -35.356128368408065 $391 35.356128368408065 $235 $392 forward 7 unknown #
face $-1 $393 $394 $54 $-1 $395 reversed single #
loop $-1 $-1 $396 $148 #
plane-surface $-1 -48.19566316381048 97.587120040985297 122.06899355208969 1 0 0 0 -0.85716730853699208 -0.51503806187062418 forward_v I I I I #
coedge $-1 $397 $398 $399 $400 reversed $149 $-1 #
coedge $-1 $242 $151 $401 $402 reversed $95 $-1 #
coedge $-1 $151 $241 $397 $403 reversed $95 $-1 #
coedge $-1 $399 $404 $151 $244 forward $394 $-1 #
edge $-1 $405 53.652514396833233 $406 58.852933662177911 $243 $407 forward 7 unknown #
loop $-1 $-1 $250 $152 #
plane-surface $-1 -41.295384721479849 -1.0633752918197104 62.793797901540415 0 0.85716730853699208 0.51503806187062418 1 0 0 forward_v I I I I #
loop $-1 $-1 $408 $97 #
coedge $-1 $248 $248 $249 $409 reversed $153 $-1 #
coedge $-1 $249 $249 $248 $409 forward $155 $-1 #
coedge $-1 $250 $250 $156 $251 forward $245 $-1 #
edge $-1 $410 -1.9602932340486182e-016 $410 6.2831853071796004 $250 $411 forward 7 unknown #
loop $-1 $-1 $257 $157 #
plane-surface $-1 -41.295384721479849 -1.0633752918197104 62.793797901540415 0 0.85716730853699208 0.51503806187062418 1 0 0 forward_v I I I I #
loop $-1 $-1 $412 $100 #
coedge $-1 $255 $255 $256 $413 reversed $158 $-1 #
coedge $-1 $256 $256 $255 $413 forward $160 $-1 #
coedge $-1 $257 $257 $161 $258 forward $252 $-1 #
edge $-1 $414 -1.9602932340486182e-016 $414 6.2831853071796004 $257 $415 forward 7 unknown #
face $-1 $416 $417 $57 $-1 $418 forward single #
loop $-1 $-1 $419 $162 #
plane-surface $-1 -22.748119695060016 97.587120040985297 122.06899355208969 1 0 0 0 -0.85716730853699208 -0.51503806187062418 forward_v I I I I #
coedge $-1 $420 $421 $422 $423 reversed $163 $-1 #
coedge $-1 $264 $165 $424 $425 reversed $104 $-1 #
coedge $-1 $165 $263 $420 $426 reversed $104 $-1 #
coedge $-1 $422 $427 $165 $266 forward $428 $-1 #
edge $-1 $429 53.652514396833233 $430 58.852933662177911 $265 $431 forward 7 unknown #
loop $-1 $-1 $272 $166 #
plane-surface $-1 -15.847841252729381 -1.0633752918197104 62.793797901540415 0 0.85716730853699208 0.51503806187062418 1 0 0 forward_v I I I I #
loop $-1 $-1 $432 $106 #
coedge $-1 $270 $270 $271 $433 reversed $167 $-1 #
coedge $-1 $271 $271 $270 $433 forward $169 $-1 #
coedge $-1 $272 $272 $170 $273 forward $267 $-1 #
edge $-1 $434 -1.9602932340486182e-016 $434 6.2831853071796004 $272 $435 forward 7 unknown #
loop $-1 $-1 $279 $171 #
plane-surface $-1 -15.847841252729381 -1.0633752918197104 62.793797901540415 0 0.85716730853699208 0.51503806187062418 1 0 0 forward_v I I I I #
loop $-1 $-1 $436 $109 #
coedge $-1 $277 $277 $278 $437 reversed $172 $-1 #
coedge $-1 $278 $278 $277 $437 forward $174 $-1 #
coedge $-1 $279 $279 $175 $280 forward $274 $-1 #
edge $-1 $438 -1.9602932340486182e-016 $438 6.2831853071796004 $279 $439 forward 7 unknown #
face $-1 $440 $441 $60 $-1 $442 forward single #
loop $-1 $-1 $443 $176 #
plane-surface $-1 2.6994237736904516 97.587120040985297 122.06899355208969 1 0 0 0 -0.85716730853699208 -0.51503806187062418 forward_v I I I I #
coedge $-1 $444 $445 $446 $447 reversed $177 $-1 #
coedge $-1 $286 $179 $448 $449 reversed $113 $-1 #
coedge $-1 $179 $285 $444 $450 reversed $113 $-1 #
coedge $-1 $446 $451 $179 $288 forward $452 $-1 #
edge $-1 $453 53.652514396833233 $454 58.852933662177911 $287 $455 forward 7 unknown #
loop $-1 $-1 $294 $180 #
plane-surface $-1 9.5997022160210861 -1.0633752918197104 62.793797901540415 0 0.85716730853699208 0.51503806187062418 1 0 0 forward_v I I I I #
loop $-1 $-1 $456 $115 #
coedge $-1 $292 $292 $293 $457 reversed $181 $-1 #
coedge $-1 $293 $293 $292 $457 forward $183 $-1 #
coedge $-1 $294 $294 $184 $295 forward $289 $-1 #
edge $-1 $458 -1.9602932340486182e-016 $458 6.2831853071796004 $294 $459 forward 7 unknown #
loop $-1 $-1 $301 $185 #
plane-surface $-1 9.5997022160210861 -1.0633752918197104 62.793797901540415 0 0.85716730853699208 0.51503806187062418 1 0 0 forward_v I I I I #
loop $-1 $-1 $460 $118 #
coedge $-1 $299 $299 $300 $461 reversed $186 $-1 #
coedge $-1 $300 $300 $299 $461 forward $188 $-1 #
coedge $-1 $301 $301 $189 $302 forward $296 $-1 #
edge $-1 $462 -1.9602932340486182e-016 $462 6.2831853071796004 $301 $463 forward 7 unknown #
face $-1 $464 $465 $63 $-1 $466 forward single #
loop $-1 $-1 $467 $190 #
plane-surface $-1 28.146967242440919 97.587120040985297 122.06899355208969 1 0 0 0 -0.85716730853699208 -0.51503806187062418 forward_v I I I I #
coedge $-1 $468 $469 $470 $471 reversed $191 $-1 #
coedge $-1 $308 $193 $472 $473 reversed $122 $-1 #
coedge $-1 $193 $307 $468 $474 reversed $122 $-1 #
coedge $-1 $470 $475 $193 $310 forward $476 $-1 #
edge $-1 $477 53.652514396833233 $478 58.852933662177911 $309 $479 forward 7 unknown #
loop $-1 $-1 $316 $194 #
plane-surface $-1 35.047245684771553 -1.0633752918197104 62.793797901540415 0 0.85716730853699208 0.51503806187062418 1 0 0 forward_v I I I I #
loop $-1 $-1 $480 $124 #
coedge $-1 $314 $314 $315 $481 reversed $195 $-1 #
coedge $-1 $315 $315 $314 $481 forward $197 $-1 #
coedge $-1 $316 $316 $198 $317 forward $311 $-1 #
edge $-1 $482 -1.9602932340486182e-016 $482 6.2831853071796004 $316 $483 forward 7 unknown #
loop $-1 $-1 $323 $199 #
plane-surface $-1 35.047245684771553 -1.0633752918197104 62.793797901540415 0 0.85716730853699208 0.51503806187062418 1 0 0 forward_v I I I I #
loop $-1 $-1 $484 $127 #
coedge $-1 $321 $321 $322 $485 reversed $200 $-1 #
coedge $-1 $322 $322 $321 $485 forward $202 $-1 #
coedge $-1 $323 $323 $203 $324 forward $318 $-1 #
edge $-1 $486 -1.9602932340486182e-016 $486 6.2831853071796004 $323 $487 forward 7 unknown #
face $-1 $488 $489 $66 $-1 $490 forward single #
loop $-1 $-1 $491 $204 #
plane-surface $-1 -18.635294026436274 -119.52686729528295 82.820175288733111 -1 0 0 0 -0.73135370988377701 0.68199835119979291 forward_v I I I I #
coedge $-1 $492 $493 $494 $495 reversed $205 $-1 #
coedge $-1 $330 $207 $496 $497 reversed $131 $-1 #
coedge $-1 $207 $329 $492 $498 reversed $131 $-1 #
coedge $-1 $494 $499 $207 $332 forward $500 $-1 #
edge $-1 $501 34.028105265154942 $502 37.080394309323509 $331 $503 forward 7 unknown #
loop $-1 $-1 $338 $208 #
plane-surface $-1 -24.932914497889186 -35.356128368408079 4.3296933350430322 0 -0.73135370988377701 0.68199835119979291 1 0 0 forward_v I I I I #
loop $-1 $-1 $504 $133 #
coedge $-1 $336 $336 $337 $505 reversed $209 $-1 #
coedge $-1 $337 $337 $336 $505 forward $211 $-1 #
coedge $-1 $338 $338 $212 $339 forward $333 $-1 #
edge $-1 $506 7.0934891557619814e-015 $506 6.2831853071796075 $338 $507 forward 7 unknown #
face $-1 $508 $509 $51 $-1 $510 reversed single #
loop $-1 $-1 $511 $213 #
plane-surface $-1 -57.544480727561265 0 0 1 0 0 0 0 -1 forward_v I I I I #
coedge $-1 $512 $351 $513 $514 forward $214 $-1 #
coedge $-1 $515 $216 $512 $516 forward $137 $-1 #
coedge $-1 $216 $515 $517 $518 forward $137 $-1 #
coedge $-1 $354 $353 $216 $347 reversed $355 $-1 #
edge $-1 $519 -35.356128368408065 $520 35.356128368408065 $346 $521 forward 7 unknown #
coedge $-1 $218 $217 $522 $523 forward $86 $-1 #
coedge $-1 $524 $525 $217 $350 reversed $509 $-1 #
edge $-1 $357 -57.544480727561265 $526 57.544480727561265 $349 $527 forward 7 unknown #
coedge $-1 $343 $528 $218 $352 reversed $214 $-1 #
edge $-1 $529 -57.544480727561265 $356 57.544480727561265 $351 $530 forward 7 unknown #
coedge $-1 $346 $219 $528 $531 forward $355 $-1 #
coedge $-1 $219 $346 $524 $532 reversed $355 $-1 #
loop $-1 $-1 $353 $508 #
vertex $-1 $220 $533 #
vertex $-1 $220 $534 #
straight-curve $-1 57.544480727561265 0 7.3819823792116139 0 1 0 I I #
face $-1 $535 $536 $52 $-1 $537 reversed single #
loop $-1 $-1 $364 $221 #
plane-surface $-1 0 -35.356128368408065 0 0 1 0 0 0 1 forward_v I I I I #
coedge $-1 $538 $539 $363 $540 forward $222 $-1 #
coedge $-1 $371 $224 $362 $540 reversed $141 $-1 #
coedge $-1 $369 $541 $224 $365 forward $360 $-1 #
edge $-1 $542 -4.7893221199397225 $372 -0.39599839860406005 $364 $543 forward 7 unknown #
coedge $-1 $226 $225 $544 $545 reversed $89 $-1 #
coedge $-1 $546 $547 $225 $368 forward $548 $-1 #
edge $-1 $549 -30.434588811295715 $373 -23.785195021235385 $367 $550 forward 7 unknown #
coedge $-1 $551 $364 $226 $370 forward $360 $-1 #
edge $-1 $372 23.785195021235385 $552 30.434588811295715 $369 $553 forward 7 unknown #
coedge $-1 $227 $363 $546 $554 reversed $141 $-1 #
vertex $-1 $370 $555 #
vertex $-1 $368 $556 #
straight-curve $-1 -50.895086937500935 0 -2.9886586578759515 0 1 0 I I #
face $-1 $557 $558 $53 $-1 $559 reversed single #
loop $-1 $-1 $560 $229 #
plane-surface $-1 0 0 -7.3819823792116139 0 0 1 1 0 0 forward_v I I I I #
coedge $-1 $561 $562 $234 $386 forward $230 $-1 #
coedge $-1 $563 $232 $560 $564 reversed $145 $-1 #
coedge $-1 $232 $563 $383 $565 reversed $145 $-1 #
coedge $-1 $384 $566 $232 $382 forward $558 $-1 #
edge $-1 $567 -4.7893221199397225 $568 -0.39599839860406005 $381 $569 forward 7 unknown #
coedge $-1 $234 $233 $380 $565 forward $92 $-1 #
coedge $-1 $570 $381 $233 $385 forward $558 $-1 #
edge $-1 $568 23.785195021235381 $390 30.434588811295711 $384 $571 forward 7 unknown #
edge $-1 $391 -30.434588811295711 $572 -23.785195021235381 $378 $573 forward 7 unknown #
coedge $-1 $574 $235 $562 $575 forward $389 $-1 #
coedge $-1 $235 $574 $570 $576 reversed $389 $-1 #
loop $-1 $-1 $235 $557 #
vertex $-1 $576 $577 #
vertex $-1 $575 $578 #
straight-curve $-1 57.544480727561265 0 -2.9886586578759515 0 -1 0 I I #
face $-1 $-1 $579 $54 $-1 $580 forward single #
loop $-1 $-1 $243 $237 #
plane-surface $-1 0 35.356128368408065 0 0 -1 0 0 0 -1 forward_v I I I I #
coedge $-1 $581 $582 $583 $584 reversed $238 $-1 #
coedge $-1 $585 $240 $242 $403 forward $149 $-1 #
coedge $-1 $240 $585 $581 $586 forward $149 $-1 #
coedge $-1 $583 $243 $240 $400 forward $394 $-1 #
edge $-1 $406 13.747413918409293 $587 27.547970803070555 $399 $588 forward 7 unknown #
coedge $-1 $589 $590 $241 $402 forward $579 $-1 #
edge $-1 $591 -16.562158683391083 $405 -13.437431652084584 $401 $592 forward 7 unknown #
edge $-1 $406 -70.712256736816158 $591 -64.645273997797901 $242 $593 forward 7 unknown #
coedge $-1 $243 $583 $589 $594 reversed $394 $-1 #
vertex $-1 $594 $595 #
vertex $-1 $244 $596 #
straight-curve $-1 -34.395106279149218 35.356128368408065 61.034496776044847 0 0 -1 I I #
coedge $-1 $408 $408 $-1 $597 reversed $247 $-1 #
edge $-1 $598 0 $598 6.2831853071796004 $248 $599 forward 7 unknown #
vertex $-1 $251 $600 #
ellipse-curve $-1 -44.252646911050121 33.793764852754812 4.7817727465392679 0 0.85716730853699208 0.51503806187062418 1.5 0 0 1 I I #
coedge $-1 $412 $412 $-1 $601 reversed $254 $-1 #
edge $-1 $602 0 $602 6.2831853071796004 $255 $603 forward 7 unknown #
vertex $-1 $258 $604 #
ellipse-curve $-1 -38.338122531909576 33.793764852754812 4.7817727465392679 0 0.85716730853699208 0.51503806187062418 1.5 0 0 1 I I #
face $-1 $-1 $428 $57 $-1 $605 reversed single #
loop $-1 $-1 $606 $259 #
plane-surface $-1 0 0 7.3819823792116139 0 0 1 1 0 0 forward_v I I I I #
coedge $-1 $607 $608 $609 $610 reversed $260 $-1 #
coedge $-1 $611 $262 $264 $426 forward $163 $-1 #
coedge $-1 $262 $611 $607 $612 forward $163 $-1 #
coedge $-1 $609 $265 $262 $423 forward $428 $-1 #
edge $-1 $430 1.0236421840340562 $613 14.824199068695325 $422 $614 forward 7 unknown #
coedge $-1 $615 $616 $263 $425 forward $417 $-1 #
edge $-1 $617 -16.562158683391083 $429 -13.437431652084584 $424 $618 forward 7 unknown #
edge $-1 $430 -70.712256736816158 $617 -64.645273997797901 $264 $619 forward 7 unknown #
coedge $-1 $265 $609 $615 $620 reversed $428 $-1 #
loop $-1 $-1 $609 $416 #
vertex $-1 $620 $621 #
vertex $-1 $266 $622 #
straight-curve $-1 -8.9475628103987468 35.356128368408065 61.034496776044847 0 0 -1 I I #
coedge $-1 $432 $432 $-1 $623 reversed $269 $-1 #
edge $-1 $624 0 $624 6.2831853071796004 $270 $625 forward 7 unknown #
vertex $-1 $273 $626 #
ellipse-curve $-1 -18.805103442299654 33.793764852754812 4.7817727465392679 0 0.85716730853699208 0.51503806187062418 1.5 0 0 1 I I #
coedge $-1 $436 $436 $-1 $627 reversed $276 $-1 #
edge $-1 $628 0 $628 6.2831853071796004 $277 $629 forward 7 unknown #
vertex $-1 $280 $630 #
ellipse-curve $-1 -12.890579063159109 33.793764852754812 4.7817727465392679 0 0.85716730853699208 0.51503806187062418 1.5 0 0 1 I I #
face $-1 $-1 $452 $60 $-1 $631 reversed single #
loop $-1 $-1 $632 $281 #
plane-surface $-1 0 0 7.3819823792116139 0 0 1 1 0 0 forward_v I I I I #
coedge $-1 $633 $634 $635 $636 reversed $282 $-1 #
coedge $-1 $637 $284 $286 $450 forward $177 $-1 #
coedge $-1 $284 $637 $633 $638 forward $177 $-1 #
coedge $-1 $635 $287 $284 $447 forward $452 $-1 #
edge $-1 $454 -11.700129550341178 $639 2.1004273343200914 $446 $640 forward 7 unknown #
coedge $-1 $641 $642 $285 $449 forward $441 $-1 #
edge $-1 $643 -16.562158683391083 $453 -13.437431652084584 $448 $644 forward 7 unknown #
edge $-1 $454 -70.712256736816158 $643 -64.645273997797901 $286 $645 forward 7 unknown #
coedge $-1 $287 $635 $641 $646 reversed $452 $-1 #
loop $-1 $-1 $635 $440 #
vertex $-1 $646 $647 #
vertex $-1 $288 $648 #
straight-curve $-1 16.499980658351721 35.356128368408065 61.034496776044847 0 0 -1 I I #
coedge $-1 $456 $456 $-1 $649 reversed $291 $-1 #
edge $-1 $650 0 $650 6.2831853071796004 $292 $651 forward 7 unknown #
vertex $-1 $295 $652 #
ellipse-curve $-1 6.6424400264508137 33.793764852754812 4.7817727465392679 0 0.85716730853699208 0.51503806187062418 1.5 0 0 1 I I #
coedge $-1 $460 $460 $-1 $653 reversed $298 $-1 #
edge $-1 $654 0 $654 6.2831853071796004 $299 $655 forward 7 unknown #
vertex $-1 $302 $656 #
ellipse-curve $-1 12.556964405591359 33.793764852754812 4.7817727465392679 0 0.85716730853699208 0.51503806187062418 1.5 0 0 1 I I #
face $-1 $-1 $476 $63 $-1 $657 reversed single #
loop $-1 $-1 $658 $303 #
plane-surface $-1 0 0 7.3819823792116139 0 0 1 1 0 0 forward_v I I I I #
coedge $-1 $659 $660 $661 $662 reversed $304 $-1 #
coedge $-1 $663 $306 $308 $474 forward $191 $-1 #
coedge $-1 $306 $663 $659 $664 forward $191 $-1 #
coedge $-1 $661 $309 $306 $471 forward $476 $-1 #
edge $-1 $478 -24.423901284716408 $665 -10.623344400055142 $470 $666 forward 7 unknown #
coedge $-1 $667 $668 $307 $473 forward $465 $-1 #
edge $-1 $669 -16.562158683391083 $477 -13.437431652084584 $472 $670 forward 7 unknown #
edge $-1 $478 -70.712256736816158 $669 -64.645273997797901 $308 $671 forward 7 unknown #
coedge $-1 $309 $661 $667 $672 reversed $476 $-1 #
loop $-1 $-1 $661 $464 #
vertex $-1 $672 $673 #
vertex $-1 $310 $674 #
straight-curve $-1 41.947524127102184 35.356128368408065 61.034496776044847 0 0 -1 I I #
coedge $-1 $480 $480 $-1 $675 reversed $313 $-1 #
edge $-1 $676 0 $676 6.2831853071796004 $314 $677 forward 7 unknown #
vertex $-1 $317 $678 #
ellipse-curve $-1 32.089983495201281 33.793764852754812 4.7817727465392679 0 0.85716730853699208 0.51503806187062418 1.5 0 0 1 I I #
coedge $-1 $484 $484 $-1 $679 reversed $320 $-1 #
edge $-1 $680 0 $680 6.2831853071796004 $321 $681 forward 7 unknown #
vertex $-1 $324 $682 #
ellipse-curve $-1 38.004507874341826 33.793764852754812 4.7817727465392679 0 0.85716730853699208 0.51503806187062418 1.5 0 0 1 I I #
face $-1 $-1 $500 $66 $-1 $683 reversed single #
loop $-1 $-1 $684 $325 #
plane-surface $-1 0 0 7.3819823792116139 0 0 1 1 0 0 forward_v I I I I #
coedge $-1 $685 $686 $687 $688 reversed $326 $-1 #
coedge $-1 $689 $328 $330 $498 forward $205 $-1 #
coedge $-1 $328 $689 $685 $690 forward $205 $-1 #
coedge $-1 $687 $331 $328 $495 forward $500 $-1 #
edge $-1 $502 -18.764077720397506 $691 -6.1688367774916806 $494 $692 forward 7 unknown #
coedge $-1 $693 $694 $329 $497 forward $489 $-1 #
edge $-1 $695 -27.253610791020535 $501 -24.407305279233412 $496 $696 forward 7 unknown #
edge $-1 $502 2.0734513383776317e-014 $695 4.1734785821400093 $330 $697 forward 7 unknown #
coedge $-1 $331 $687 $693 $698 reversed $500 $-1 #
loop $-1 $-1 $687 $488 #
vertex $-1 $698 $699 #
vertex $-1 $332 $700 #
straight-curve $-1 -31.230534969342099 -35.356128368408065 41.410087644366556 0 0 -1 I I #
coedge $-1 $504 $504 $-1 $701 reversed $335 $-1 #
edge $-1 $702 0 $702 6.2831853071796004 $336 $703 forward 7 unknown #
vertex $-1 $339 $704 #
ellipse-curve $-1 -24.932914497889193 -33.932975612514504 5.8558378571273284 0 -0.73135370988377701 0.68199835119979291 0.5 0 0 1 I I #
face $-1 $-1 $355 $51 $-1 $705 reversed single #
loop $-1 $-1 $524 $340 #
plane-surface $-1 0 35.356128368408065 0 0 -1 0 0 0 -1 forward_v I I I I #
coedge $-1 $706 $522 $525 $707 forward $341 $-1 #
coedge $-1 $528 $343 $344 $516 reversed $214 $-1 #
coedge $-1 $522 $706 $343 $514 reversed $341 $-1 #
edge $-1 $529 -7.3819823792116139 $708 7.3819823792116139 $513 $709 forward 7 unknown #
coedge $-1 $345 $344 $706 $710 forward $137 $-1 #
edge $-1 $520 -57.544480727561265 $708 57.544480727561265 $512 $711 forward 7 unknown #
coedge $-1 $525 $524 $345 $518 reversed $509 $-1 #
edge $-1 $712 -57.544480727561265 $519 57.544480727561265 $517 $713 forward 7 unknown #
vertex $-1 $347 $714 #
vertex $-1 $531 $715 #
straight-curve $-1 57.544480727561265 0 -7.3819823792116139 0 -1 0 I I #
coedge $-1 $511 $513 $348 $523 reversed $341 $-1 #
edge $-1 $526 -35.356128368408065 $529 35.356128368408065 $522 $716 forward 7 unknown #
coedge $-1 $517 $349 $354 $532 forward $509 $-1 #
coedge $-1 $349 $517 $511 $707 reversed $509 $-1 #
vertex $-1 $350 $717 #
straight-curve $-1 0 35.356128368408065 7.3819823792116139 -1 0 0 I I #
coedge $-1 $351 $512 $353 $531 reversed $214 $-1 #
vertex $-1 $523 $718 #
straight-curve $-1 0 -35.356128368408065 7.3819823792116139 1 0 0 I I #
edge $-1 $356 -7.3819823792116139 $520 7.3819823792116139 $353 $719 forward 7 unknown #
edge $-1 $357 -7.3819823792116139 $519 7.3819823792116139 $354 $720 forward 7 unknown #
point $-1 57.544480727561265 -35.356128368408065 7.3819823792116139 #
point $-1 57.544480727561265 35.356128368408065 7.3819823792116139 #
face $-1 $-1 $548 $52 $-1 $721 reversed single #
loop $-1 $-1 $544 $359 #
plane-surface $-1 -57.544480727561265 0 0 1 0 0 0 0 -1 forward_v I I I I #
coedge $-1 $722 $362 $541 $723 forward $222 $-1 #
coedge $-1 $362 $722 $724 $725 forward $222 $-1 #
edge $-1 $726 -35.356128368408065 $542 35.356128368408065 $362 $727 forward 7 unknown #
coedge $-1 $364 $551 $538 $723 reversed $360 $-1 #
vertex $-1 $723 $728 #
straight-curve $-1 -50.895086937500935 -35.356128368408065 -2.5926602592718915 0 0 1 I I #
coedge $-1 $729 $730 $366 $545 forward $536 $-1 #
edge $-1 $552 -35.356128368408065 $549 35.356128368408065 $544 $731 forward 7 unknown #
coedge $-1 $724 $367 $371 $554 forward $548 $-1 #
coedge $-1 $367 $724 $729 $732 reversed $548 $-1 #
loop $-1 $-1 $546 $535 #
vertex $-1 $732 $733 #
straight-curve $-1 -27.10989191626555 35.356128368408065 -2.9886586578759515 1 0 0 I I #
coedge $-1 $541 $369 $730 $734 forward $360 $-1 #
vertex $-1 $734 $735 #
straight-curve $-1 -27.10989191626555 -35.356128368408065 -2.9886586578759515 -1 0 0 I I #
edge $-1 $373 0.39599839860406005 $726 4.7893221199397225 $546 $736 forward 7 unknown #
point $-1 -50.895086937500935 -35.356128368408065 -2.9886586578759515 #
point $-1 -50.895086937500935 35.356128368408065 -2.9886586578759515 #
face $-1 $-1 $389 $53 $-1 $737 reversed single #
loop $-1 $-1 $384 $375 #
plane-surface $-1 0 35.356128368408065 0 0 -1 0 0 0 -1 forward_v I I I I #
coedge $-1 $738 $739 $379 $564 forward $376 $-1 #
coedge $-1 $740 $378 $563 $741 forward $230 $-1 #
coedge $-1 $378 $740 $387 $575 reversed $230 $-1 #
coedge $-1 $380 $379 $561 $741 reversed $145 $-1 #
edge $-1 $742 -35.356128368408065 $567 35.356128368408065 $560 $743 forward 7 unknown #
edge $-1 $568 -35.356128368408065 $572 35.356128368408065 $380 $744 forward 7 unknown #
coedge $-1 $381 $570 $738 $745 reversed $558 $-1 #
vertex $-1 $745 $746 #
vertex $-1 $385 $747 #
straight-curve $-1 50.895086937500928 35.356128368408065 -2.5926602592718915 0 0 1 I I #
coedge $-1 $566 $384 $388 $576 forward $558 $-1 #
straight-curve $-1 27.109891916265546 35.356128368408065 -2.9886586578759515 1 0 0 I I #
vertex $-1 $386 $748 #
straight-curve $-1 27.109891916265546 -35.356128368408065 -2.9886586578759515 -1 0 0 I I #
coedge $-1 $388 $387 $749 $750 reversed $389 $-1 #
edge $-1 $391 2.9886586578759515 $751 7.3819823792116139 $387 $752 forward 7 unknown #
edge $-1 $390 2.9886586578759515 $753 7.3819823792116139 $388 $754 forward 7 unknown #
point $-1 57.544480727561258 35.356128368408065 -2.9886586578759515 #
point $-1 57.544480727561258 -35.356128368408065 -2.9886586578759515 #
loop $-1 $-1 $401 $393 #
plane-surface $-1 0 0 7.3819823792116139 0 0 1 1 0 0 forward_v I I I I #
coedge $-1 $582 $396 $398 $586 reversed $238 $-1 #
coedge $-1 $396 $581 $755 $756 reversed $238 $-1 #
coedge $-1 $404 $399 $396 $584 forward $394 $-1 #
edge $-1 $587 -58.852933662177911 $757 -53.652514396833233 $583 $758 forward 7 unknown #
coedge $-1 $398 $397 $590 $759 reversed $149 $-1 #
edge $-1 $760 64.645273997797901 $587 70.712256736816158 $581 $761 forward 7 unknown #
vertex $-1 $400 $762 #
straight-curve $-1 -20.647692360739924 35.356128368408065 2.181563113866936 -1 0 0 I I #
coedge $-1 $755 $401 $404 $594 forward $579 $-1 #
coedge $-1 $401 $755 $585 $759 forward $579 $-1 #
vertex $-1 $402 $763 #
straight-curve $-1 -34.395106279149218 48.793560020492649 7.3819823792116139 0 1 0 I I #
straight-curve $-1 -34.395106279149218 -1.0633752918197104 62.793797901540415 0 -0.51503806187062418 0.85716730853699208 I I #
edge $-1 $405 34.395106279149218 $757 48.19566316381048 $404 $764 forward 7 unknown #
point $-1 -34.395106279149218 35.356128368408065 7.3819823792116139 #
point $-1 -34.395106279149218 35.356128368408065 2.181563113866936 #
edge $-1 $765 1 $765 0 $408 $-1 forward 7 unknown #
vertex $-1 $409 $766 #
ellipse-curve $-1 -44.252646911050121 29.170248809284022 2.0036841303024939 0 0.85716730853699208 0.51503806187062418 1.5 0 0 1 I I #
point $-1 -42.752646911050121 33.793764852754826 4.7817727465392768 #
edge $-1 $767 1 $767 0 $412 $-1 forward 7 unknown #
vertex $-1 $413 $768 #
ellipse-curve $-1 -38.338122531909576 29.170248809284022 2.0036841303024939 0 0.85716730853699208 0.51503806187062418 1.5 0 0 1 I I #
point $-1 -36.838122531909576 33.793764852754826 4.7817727465392768 #
plane-surface $-1 0 35.356128368408065 0 0 -1 0 0 0 -1 forward_v I I I I #
coedge $-1 $616 $615 $608 $769 forward $417 $-1 #
coedge $-1 $608 $419 $421 $612 reversed $260 $-1 #
coedge $-1 $419 $607 $606 $769 reversed $260 $-1 #
coedge $-1 $427 $422 $419 $610 forward $428 $-1 #
edge $-1 $613 -58.852933662177911 $770 -53.652514396833233 $609 $771 forward 7 unknown #
coedge $-1 $421 $420 $616 $772 reversed $163 $-1 #
edge $-1 $773 64.645273997797901 $613 70.712256736816158 $607 $774 forward 7 unknown #
vertex $-1 $423 $775 #
straight-curve $-1 -7.9239206263646906 35.356128368408065 2.181563113866936 -1 0 0 I I #
coedge $-1 $606 $424 $427 $620 forward $417 $-1 #
coedge $-1 $424 $606 $611 $772 forward $417 $-1 #
vertex $-1 $425 $776 #
straight-curve $-1 -8.9475628103987468 48.793560020492649 7.3819823792116139 0 1 0 I I #
straight-curve $-1 -8.9475628103987468 -1.0633752918197104 62.793797901540415 0 -0.51503806187062418 0.85716730853699208 I I #
edge $-1 $429 8.9475628103987468 $770 22.748119695060016 $427 $777 forward 7 unknown #
point $-1 -8.9475628103987468 35.356128368408065 7.3819823792116139 #
point $-1 -8.9475628103987468 35.356128368408065 2.181563113866936 #
edge $-1 $778 1 $778 0 $432 $-1 forward 7 unknown #
vertex $-1 $433 $779 #
ellipse-curve $-1 -18.805103442299654 29.170248809284022 2.0036841303024939 0 0.85716730853699208 0.51503806187062418 1.5 0 0 1 I I #
point $-1 -17.305103442299654 33.793764852754826 4.7817727465392768 #
edge $-1 $780 1 $780 0 $436 $-1 forward 7 unknown #
vertex $-1 $437 $781 #
ellipse-curve $-1 -12.890579063159109 29.170248809284022 2.0036841303024939 0 0.85716730853699208 0.51503806187062418 1.5 0 0 1 I I #
point $-1 -11.390579063159109 33.793764852754826 4.7817727465392768 #
plane-surface $-1 0 35.356128368408065 0 0 -1 0 0 0 -1 forward_v I I I I #
coedge $-1 $642 $641 $634 $782 forward $441 $-1 #
coedge $-1 $634 $443 $445 $638 reversed $282 $-1 #
coedge $-1 $443 $633 $632 $782 reversed $282 $-1 #
coedge $-1 $451 $446 $443 $636 forward $452 $-1 #
edge $-1 $639 -58.852933662177911 $783 -53.652514396833233 $635 $784 forward 7 unknown #
coedge $-1 $445 $444 $642 $785 reversed $177 $-1 #
edge $-1 $786 64.645273997797901 $639 70.712256736816158 $633 $787 forward 7 unknown #
vertex $-1 $447 $788 #
straight-curve $-1 4.799851108010543 35.356128368408065 2.181563113866936 -1 0 0 I I #
coedge $-1 $632 $448 $451 $646 forward $441 $-1 #
coedge $-1 $448 $632 $637 $785 forward $441 $-1 #
vertex $-1 $449 $789 #
straight-curve $-1 16.499980658351721 48.793560020492649 7.3819823792116139 0 1 0 I I #
straight-curve $-1 16.499980658351721 -1.0633752918197104 62.793797901540415 0 -0.51503806187062418 0.85716730853699208 I I #
edge $-1 $453 -16.499980658351721 $783 -2.6994237736904516 $451 $790 forward 7 unknown #
point $-1 16.499980658351721 35.356128368408065 7.3819823792116139 #
point $-1 16.499980658351721 35.356128368408065 2.181563113866936 #
edge $-1 $791 1 $791 0 $456 $-1 forward 7 unknown #
vertex $-1 $457 $792 #
ellipse-curve $-1 6.6424400264508137 29.170248809284022 2.0036841303024939 0 0.85716730853699208 0.51503806187062418 1.5 0 0 1 I I #
point $-1 8.1424400264508137 33.793764852754826 4.7817727465392768 #
edge $-1 $793 1 $793 0 $460 $-1 forward 7 unknown #
vertex $-1 $461 $794 #
ellipse-curve $-1 12.556964405591359 29.170248809284022 2.0036841303024939 0 0.85716730853699208 0.51503806187062418 1.5 0 0 1 I I #
point $-1 14.056964405591359 33.793764852754826 4.7817727465392768 #
plane-surface $-1 0 35.356128368408065 0 0 -1 0 0 0 -1 forward_v I I I I #
coedge $-1 $668 $667 $660 $795 forward $465 $-1 #
coedge $-1 $660 $467 $469 $664 reversed $304 $-1 #
coedge $-1 $467 $659 $658 $795 reversed $304 $-1 #
coedge $-1 $475 $470 $467 $662 forward $476 $-1 #
edge $-1 $665 -58.852933662177911 $796 -53.652514396833233 $661 $797 forward 7 unknown #
coedge $-1 $469 $468 $668 $798 reversed $191 $-1 #
edge $-1 $799 64.645273997797901 $665 70.712256736816158 $659 $800 forward 7 unknown #
vertex $-1 $471 $801 #
straight-curve $-1 17.523622842385777 35.356128368408065 2.181563113866936 -1 0 0 I I #
coedge $-1 $658 $472 $475 $672 forward $465 $-1 #
coedge $-1 $472 $658 $663 $798 forward $465 $-1 #
vertex $-1 $473 $802 #
straight-curve $-1 41.947524127102184 48.793560020492649 7.3819823792116139 0 1 0 I I #
straight-curve $-1 41.947524127102184 -1.0633752918197104 62.793797901540415 0 -0.51503806187062418 0.85716730853699208 I I #
edge $-1 $477 -41.947524127102184 $796 -28.146967242440919 $475 $803 forward 7 unknown #
point $-1 41.947524127102184 35.356128368408065 7.3819823792116139 #
point $-1 41.947524127102184 35.356128368408065 2.181563113866936 #
edge $-1 $804 1 $804 0 $480 $-1 forward 7 unknown #
vertex $-1 $481 $805 #
ellipse-curve $-1 32.089983495201281 29.170248809284022 2.0036841303024939 0 0.85716730853699208 0.51503806187062418 1.5 0 0 1 I I #
point $-1 33.589983495201281 33.793764852754826 4.7817727465392768 #
edge $-1 $806 1 $806 0 $484 $-1 forward 7 unknown #
vertex $-1 $485 $807 #
ellipse-curve $-1 38.004507874341826 29.170248809284022 2.0036841303024939 0 0.85716730853699208 0.51503806187062418 1.5 0 0 1 I I #
point $-1 39.504507874341826 33.793764852754826 4.7817727465392768 #
plane-surface $-1 0 -35.356128368408065 0 0 1 0 0 0 1 forward_v I I I I #
coedge $-1 $694 $693 $686 $808 forward $489 $-1 #
coedge $-1 $686 $491 $493 $690 reversed $326 $-1 #
coedge $-1 $491 $685 $684 $808 reversed $326 $-1 #
coedge $-1 $499 $494 $491 $688 forward $500 $-1 #
edge $-1 $691 -37.080394309323509 $809 -34.028105265154942 $687 $810 forward 7 unknown #
coedge $-1 $493 $492 $694 $811 reversed $205 $-1 #
edge $-1 $812 -4.1734785821400093 $691 -2.0734513383776317e-014 $685 $813 forward 7 unknown #
vertex $-1 $495 $814 #
straight-curve $-1 -12.466457248944593 -35.356128368408065 4.32969333504305 1 0 0 I I #
coedge $-1 $684 $496 $499 $698 forward $489 $-1 #
coedge $-1 $496 $684 $689 $811 forward $489 $-1 #
vertex $-1 $497 $815 #
straight-curve $-1 -31.230534969342099 -59.763433647641477 7.3819823792116139 0 -1 0 I I #
straight-curve $-1 -31.230534969342099 -35.356128368408079 4.3296933350430322 0 0.68199835119979291 0.73135370988377701 I I #
edge $-1 $501 -31.230534969342099 $809 -18.635294026436274 $499 $816 forward 7 unknown #
point $-1 -31.230534969342099 -35.356128368408065 7.3819823792116139 #
point $-1 -31.230534969342099 -35.356128368408065 4.3296933350430473 #
edge $-1 $817 1 $817 0 $504 $-1 forward 7 unknown #
vertex $-1 $505 $818 #
ellipse-curve $-1 -24.932914497889193 -33.20162190263072 5.1738395059275337 0 -0.73135370988377701 0.68199835119979291 0.5 0 0 1 I I #
point $-1 -24.432914497889193 -33.932975612514497 5.8558378571273266 #
plane-surface $-1 57.544480727561265 0 0 -1 0 0 0 0 1 forward_v I I I I #
coedge $-1 $513 $511 $515 $710 reversed $341 $-1 #
edge $-1 $526 -7.3819823792116139 $712 7.3819823792116139 $525 $819 forward 7 unknown #
vertex $-1 $710 $820 #
straight-curve $-1 -57.544480727561265 -35.356128368408065 0 0 0 -1 I I #
edge $-1 $708 -35.356128368408065 $712 35.356128368408065 $706 $821 forward 7 unknown #
straight-curve $-1 0 -35.356128368408065 -7.3819823792116139 -1 0 0 I I #
vertex $-1 $518 $822 #
straight-curve $-1 0 35.356128368408065 -7.3819823792116139 1 0 0 I I #
point $-1 57.544480727561265 35.356128368408065 -7.3819823792116139 #
point $-1 57.544480727561265 -35.356128368408065 -7.3819823792116139 #
straight-curve $-1 -57.544480727561265 0 7.3819823792116139 0 -1 0 I I #
point $-1 -57.544480727561265 35.356128368408065 7.3819823792116139 #
point $-1 -57.544480727561265 -35.356128368408065 7.3819823792116139 #
straight-curve $-1 57.544480727561265 -35.356128368408065 0 0 0 -1 I I #
straight-curve $-1 57.544480727561265 35.356128368408065 0 0 0 -1 I I #
plane-surface $-1 0 35.356128368408065 0 0 -1 0 0 0 -1 forward_v I I I I #
coedge $-1 $539 $538 $823 $824 forward $222 $-1 #
edge $-1 $542 50.895086937500935 $825 57.544480727561265 $541 $826 forward 7 unknown #
coedge $-1 $547 $546 $539 $725 reversed $548 $-1 #
edge $-1 $827 -57.544480727561265 $726 -50.895086937500935 $724 $828 forward 7 unknown #
vertex $-1 $554 $829 #
straight-curve $-1 -50.895086937500935 0 -7.3819823792116139 0 -1 0 I I #
point $-1 -50.895086937500935 -35.356128368408065 -7.3819823792116139 #
coedge $-1 $823 $544 $547 $732 forward $536 $-1 #
coedge $-1 $544 $823 $551 $734 reversed $536 $-1 #
straight-curve $-1 -57.544480727561265 0 -2.9886586578759515 0 1 0 I I #
edge $-1 $549 2.9886586578759515 $827 7.3819823792116139 $547 $830 forward 7 unknown #
point $-1 -57.544480727561265 35.356128368408065 -2.9886586578759515 #
edge $-1 $552 2.9886586578759515 $825 7.3819823792116139 $730 $831 forward 7 unknown #
point $-1 -57.544480727561265 -35.356128368408065 -2.9886586578759515 #
straight-curve $-1 -50.895086937500935 35.356128368408065 -2.5926602592718915 0 0 -1 I I #
plane-surface $-1 57.544480727561265 0 0 -1 0 0 0 0 1 forward_v I I I I #
coedge $-1 $749 $560 $566 $745 forward $376 $-1 #
coedge $-1 $560 $749 $740 $832 forward $376 $-1 #
coedge $-1 $562 $561 $739 $832 reversed $230 $-1 #
edge $-1 $572 0.39599839860406005 $742 4.7893221199397225 $561 $833 forward 7 unknown #
vertex $-1 $564 $834 #
straight-curve $-1 50.895086937500928 0 -7.3819823792116139 0 1 0 I I #
straight-curve $-1 50.895086937500928 0 -2.9886586578759515 0 -1 0 I I #
edge $-1 $567 50.895086937500928 $753 57.544480727561265 $566 $835 forward 7 unknown #
point $-1 50.895086937500928 35.356128368408065 -7.3819823792116139 #
point $-1 50.895086937500928 35.356128368408065 -2.9886586578759515 #
point $-1 50.895086937500928 -35.356128368408065 -2.9886586578759515 #
coedge $-1 $739 $738 $574 $750 forward $376 $-1 #
edge $-1 $753 -35.356128368408065 $751 35.356128368408065 $574 $836 forward 7 unknown #
vertex $-1 $575 $837 #
straight-curve $-1 57.544480727561265 -35.356128368408065 0 0 0 -1 I I #
vertex $-1 $750 $838 #
straight-curve $-1 57.544480727561265 35.356128368408065 0 0 0 -1 I I #
coedge $-1 $590 $589 $582 $756 forward $579 $-1 #
edge $-1 $757 13.437431652084584 $760 16.562158683391083 $755 $839 forward 7 unknown #
vertex $-1 $756 $840 #
straight-curve $-1 -48.19566316381048 35.356128368408065 61.034496776044847 0 0 1 I I #
edge $-1 $760 -27.547970803070555 $591 -13.747413918409293 $590 $841 forward 7 unknown #
vertex $-1 $759 $842 #
straight-curve $-1 -48.19566316381048 -1.0633752918197104 62.793797901540415 0 0.51503806187062418 -0.85716730853699208 I I #
point $-1 -48.19566316381048 35.356128368408065 2.181563113866936 #
point $-1 -34.395106279149218 32.231401337101566 7.3819823792116068 #
straight-curve $-1 0 35.356128368408065 7.3819823792116139 -1 0 0 I I #
vertex $-1 $597 $843 #
point $-1 -42.752646911050121 29.170248809284022 2.0036841303024939 #
vertex $-1 $601 $844 #
point $-1 -36.838122531909576 29.170248809284022 2.0036841303024939 #
edge $-1 $770 13.437431652084584 $773 16.562158683391083 $606 $845 forward 7 unknown #
vertex $-1 $769 $846 #
straight-curve $-1 -22.748119695060016 35.356128368408065 61.034496776044847 0 0 1 I I #
edge $-1 $773 -14.824199068695325 $617 -1.0236421840340562 $616 $847 forward 7 unknown #
vertex $-1 $772 $848 #
straight-curve $-1 -22.748119695060016 -1.0633752918197104 62.793797901540415 0 0.51503806187062418 -0.85716730853699208 I I #
point $-1 -22.748119695060016 35.356128368408065 2.181563113866936 #
point $-1 -8.9475628103987468 32.231401337101566 7.3819823792116068 #
straight-curve $-1 0 35.356128368408065 7.3819823792116139 -1 0 0 I I #
vertex $-1 $623 $849 #
point $-1 -17.305103442299654 29.170248809284022 2.0036841303024939 #
vertex $-1 $627 $850 #
point $-1 -11.390579063159109 29.170248809284022 2.0036841303024939 #
edge $-1 $783 13.437431652084584 $786 16.562158683391083 $632 $851 forward 7 unknown #
vertex $-1 $636 $852 #
straight-curve $-1 2.6994237736904516 35.356128368408065 61.034496776044847 0 0 1 I I #
edge $-1 $786 -2.1004273343200914 $643 11.700129550341178 $642 $853 forward 7 unknown #
vertex $-1 $785 $854 #
straight-curve $-1 2.6994237736904516 -1.0633752918197104 62.793797901540415 0 0.51503806187062418 -0.85716730853699208 I I #
point $-1 2.6994237736904516 35.356128368408065 2.181563113866936 #
point $-1 16.499980658351721 32.231401337101566 7.3819823792116068 #
straight-curve $-1 0 35.356128368408065 7.3819823792116139 -1 0 0 I I #
vertex $-1 $649 $855 #
point $-1 8.1424400264508137 29.170248809284022 2.0036841303024939 #
vertex $-1 $653 $856 #
point $-1 14.056964405591359 29.170248809284022 2.0036841303024939 #
edge $-1 $796 13.437431652084584 $799 16.562158683391083 $658 $857 forward 7 unknown #
vertex $-1 $662 $858 #
straight-curve $-1 28.146967242440919 35.356128368408065 61.034496776044847 0 0 1 I I #
edge $-1 $799 10.623344400055142 $669 24.423901284716408 $668 $859 forward 7 unknown #
vertex $-1 $798 $860 #
straight-curve $-1 28.146967242440919 -1.0633752918197104 62.793797901540415 0 0.51503806187062418 -0.85716730853699208 I I #
point $-1 28.146967242440919 35.356128368408065 2.181563113866936 #
point $-1 41.947524127102184 32.231401337101566 7.3819823792116068 #
straight-curve $-1 0 35.356128368408065 7.3819823792116139 -1 0 0 I I #
vertex $-1 $675 $861 #
point $-1 33.589983495201281 29.170248809284022 2.0036841303024939 #
vertex $-1 $679 $862 #
point $-1 39.504507874341826 29.170248809284022 2.0036841303024939 #
edge $-1 $809 24.407305279233412 $812 27.253610791020535 $684 $863 forward 7 unknown #
vertex $-1 $688 $864 #
straight-curve $-1 -18.635294026436274 -35.356128368408065 41.410087644366556 0 0 1 I I #
edge $-1 $812 6.1688367774916806 $695 18.764077720397506 $694 $865 forward 7 unknown #
vertex $-1 $811 $866 #
straight-curve $-1 -18.635294026436274 -35.356128368408079 4.3296933350430322 0 -0.68199835119979291 -0.73135370988377701 I I #
point $-1 -18.635294026436274 -35.356128368408065 4.3296933350430473 #
point $-1 -31.230534969342099 -32.509822856620943 7.3819823792116139 #
straight-curve $-1 0 -35.356128368408065 7.3819823792116139 1 0 0 I I #
vertex $-1 $701 $867 #
point $-1 -24.432914497889193 -33.20162190263072 5.1738395059275337 #
straight-curve $-1 -57.544480727561265 35.356128368408065 0 0 0 -1 I I #
point $-1 -57.544480727561265 -35.356128368408065 -7.3819823792116139 #
straight-curve $-1 -57.544480727561265 0 -7.3819823792116139 0 1 0 I I #
point $-1 -57.544480727561265 35.356128368408065 -7.3819823792116139 #
coedge $-1 $730 $729 $722 $824 reversed $536 $-1 #
edge $-1 $825 -35.356128368408065 $827 35.356128368408065 $823 $868 forward 7 unknown #
vertex $-1 $824 $869 #
straight-curve $-1 0 -35.356128368408065 -7.3819823792116139 -1 0 0 I I #
vertex $-1 $725 $870 #
straight-curve $-1 0 35.356128368408065 -7.3819823792116139 1 0 0 I I #
point $-1 -50.895086937500935 35.356128368408065 -7.3819823792116139 #
straight-curve $-1 -57.544480727561265 35.356128368408065 0 0 0 -1 I I #
straight-curve $-1 -57.544480727561265 -35.356128368408065 0 0 0 -1 I I #
edge $-1 $751 -57.544480727561265 $742 -50.895086937500928 $740 $871 forward 7 unknown #
straight-curve $-1 50.895086937500928 -35.356128368408065 -2.5926602592718915 0 0 -1 I I #
point $-1 50.895086937500928 -35.356128368408065 -7.3819823792116139 #
straight-curve $-1 0 35.356128368408065 -7.3819823792116139 1 0 0 I I #
straight-curve $-1 57.544480727561265 0 -7.3819823792116139 0 -1 0 I I #
point $-1 57.544480727561265 -35.356128368408065 -7.3819823792116139 #
point $-1 57.544480727561265 35.356128368408065 -7.3819823792116139 #
straight-curve $-1 -48.19566316381048 48.793560020492649 7.3819823792116139 0 -1 0 I I #
point $-1 -48.19566316381048 35.356128368408065 7.3819823792116139 #
straight-curve $-1 -20.647692360739924 32.231401337101559 7.3819823792116139 1 0 0 I I #
point $-1 -48.19566316381048 32.231401337101566 7.3819823792116068 #
point $-1 -44.252646911050121 27.884497846478535 1.2311270374965577 #
point $-1 -38.338122531909576 27.884497846478535 1.2311270374965577 #
straight-curve $-1 -22.748119695060016 48.793560020492649 7.3819823792116139 0 -1 0 I I #
point $-1 -22.748119695060016 35.356128368408065 7.3819823792116139 #
straight-curve $-1 -7.9239206263646906 32.231401337101559 7.3819823792116139 1 0 0 I I #
point $-1 -22.748119695060016 32.231401337101566 7.3819823792116068 #
point $-1 -18.805103442299654 27.884497846478535 1.2311270374965577 #
point $-1 -12.890579063159109 27.884497846478535 1.2311270374965577 #
straight-curve $-1 2.6994237736904516 48.793560020492649 7.3819823792116139 0 -1 0 I I #
point $-1 2.6994237736904516 35.356128368408065 7.3819823792116139 #
straight-curve $-1 4.799851108010543 32.231401337101559 7.3819823792116139 1 0 0 I I #
point $-1 2.6994237736904516 32.231401337101566 7.3819823792116068 #
point $-1 6.6424400264508137 27.884497846478535 1.2311270374965577 #
point $-1 12.556964405591359 27.884497846478535 1.2311270374965577 #
straight-curve $-1 28.146967242440919 48.793560020492649 7.3819823792116139 0 -1 0 I I #
point $-1 28.146967242440919 35.356128368408065 7.3819823792116139 #
straight-curve $-1 17.523622842385777 32.231401337101559 7.3819823792116139 1 0 0 I I #
point $-1 28.146967242440919 32.231401337101566 7.3819823792116068 #
point $-1 32.089983495201281 27.884497846478535 1.2311270374965577 #
point $-1 38.004507874341826 27.884497846478535 1.2311270374965577 #
straight-curve $-1 -18.635294026436274 -59.763433647641477 7.3819823792116139 0 1 0 I I #
point $-1 -18.635294026436274 -35.356128368408065 7.3819823792116139 #
straight-curve $-1 -12.466457248944593 -32.509822856620943 7.381982379211613 -1 0 0 I I #
point $-1 -18.635294026436274 -32.509822856620943 7.3819823792116139 #
point $-1 -24.932914497889193 -32.835945047688838 4.8328403303276364 #
straight-curve $-1 -57.544480727561265 0 -7.3819823792116139 0 1 0 I I #
point $-1 -57.544480727561265 -35.356128368408065 -7.3819823792116139 #
point $-1 -57.544480727561265 35.356128368408065 -7.3819823792116139 #
straight-curve $-1 0 -35.356128368408065 -7.3819823792116139 -1 0 0 I I #
End-of-ACIS-data 