500 0 8 0           
7 Unknown 11 ACIS 5.0 NT 24 Fri Mar 26 19:43:38 1999 
-1 9.9999999999999995e-007 1e-010 
body $-1 $8 $-1 $9 #
body $-1 $10 $-1 $11 #
body $-1 $12 $-1 $13 #
body $-1 $14 $-1 $15 #
body $-1 $16 $-1 $17 #
body $-1 $18 $-1 $19 #
body $-1 $20 $-1 $21 #
body $-1 $22 $-1 $23 #
lump $-1 $-1 $24 $0 #
transform $-1 1 0 0 0 1 0 0 0 1 53.210852381969666 29.896129376104721 13.381590353330408 1 rotate no_reflect no_shear #
lump $-1 $-1 $25 $1 #
transform $-1 1 0 0 0 1 0 0 0 1 53.210852381969666 29.896129376104721 13.381590353330408 1 rotate no_reflect no_shear #
lump $-1 $-1 $26 $2 #
transform $-1 1 0 0 0 1 0 0 0 1 53.210852381969666 29.896129376104721 13.381590353330408 1 rotate no_reflect no_shear #
lump $-1 $-1 $27 $3 #
transform $-1 1 0 0 0 1 0 0 0 1 53.210852381969666 29.896129376104721 13.381590353330408 1 rotate no_reflect no_shear #
lump $-1 $-1 $28 $4 #
transform $-1 1 0 0 0 1 0 0 0 1 53.210852381969666 29.896129376104721 13.381590353330408 1 rotate no_reflect no_shear #
lump $-1 $-1 $29 $5 #
transform $-1 1 0 0 0 1 0 0 0 1 53.210852381969666 29.896129376104721 13.381590353330408 1 rotate no_reflect no_shear #
lump $-1 $-1 $30 $6 #
transform $-1 1 0 0 0 1 0 0 0 1 53.210852381969666 29.896129376104721 13.381590353330408 1 rotate no_reflect no_shear #
lump $-1 $-1 $31 $7 #
transform $-1 1 0 0 0 1 0 0 0 1 53.210852381969666 29.896129376104721 13.381590353330408 1 rotate no_reflect no_shear #
shell $-1 $-1 $-1 $32 $-1 $8 #
shell $-1 $-1 $-1 $33 $-1 $10 #
shell $-1 $-1 $-1 $34 $-1 $12 #
shell $-1 $-1 $-1 $35 $-1 $14 #
shell $-1 $-1 $-1 $36 $-1 $16 #
shell $-1 $-1 $-1 $37 $-1 $18 #
shell $-1 $-1 $-1 $38 $-1 $20 #
shell $-1 $-1 $-1 $39 $-1 $22 #
face $-1 $40 $41 $24 $-1 $42 forward single #
face $-1 $43 $44 $25 $-1 $45 reversed single #
face $-1 $46 $47 $26 $-1 $48 reversed single #
face $-1 $49 $50 $27 $-1 $51 reversed single #
face $-1 $52 $53 $28 $-1 $54 forward single #
face $-1 $55 $56 $29 $-1 $57 forward single #
face $-1 $58 $59 $30 $-1 $60 reversed single #
face $-1 $61 $62 $31 $-1 $63 forward single #
face $-1 $64 $65 $24 $-1 $66 reversed single #
loop $-1 $-1 $67 $32 #
plane-surface $-1 0 0 13.381590353330408 0 0 1 1 0 0 forward_v I I I I #
face $-1 $68 $69 $25 $-1 $70 reversed single #
loop $-1 $-1 $71 $33 #
plane-surface $-1 -51.018539220938472 -23.416241164437043 0 1 0 0 0 0 -1 forward_v I I I I #
face $-1 $72 $73 $26 $-1 $74 reversed single #
loop $-1 $-1 $75 $34 #
plane-surface $-1 -47.743241122463019 16.936352952769365 0 0 1 0 0 0 1 forward_v I I I I #
face $-1 $76 $77 $27 $-1 $78 reversed single #
loop $-1 $-1 $79 $35 #
plane-surface $-1 47.958374461894984 -5.1568865626225637 155.62415080180875 0 -1 0 -0.68199836817093118 0 -0.7313536940579346 forward_v I I I I #
face $-1 $80 $81 $28 $-1 $82 forward single #
loop $-1 $83 $84 $36 #
cone-surface $-1 48.002003128314954 -11.446945539016937 8.4083379339975508 -0.68199836817093118 0 -0.7313536940579346 0.7313536940579346 0 -0.68199836817093118 1 I I 0 1 1 forward I I I I #
face $-1 $85 $86 $29 $-1 $87 forward single #
loop $-1 $88 $89 $37 #
cone-surface $-1 48.002003128314954 -7.6729101531803146 8.4083379339975508 -0.68199836817093118 0 -0.7313536940579346 0.7313536940579346 0 -0.68199836817093118 1 I I 0 1 1 forward I I I I #
face $-1 $90 $91 $30 $-1 $92 reversed single #
loop $-1 $-1 $93 $38 #
plane-surface $-1 -53.210852381969644 -12.726116328535298 3.9369378255709648 -0.66913061440640931 0 0.74314481823134659 0.74314481823134659 0 0.66913061440640931 forward_v I I I I #
face $-1 $94 $95 $31 $-1 $96 forward single #
loop $-1 $97 $98 $39 #
cone-surface $-1 -46.691384680441736 -12.726116328535298 7.2434628741148259 0.66913061440640931 0 -0.74314481823134659 0.74314481823134659 0 0.66913061440640931 1 I I 0 1 1 forward I I I I #
face $-1 $99 $100 $24 $-1 $101 reversed single #
loop $-1 $-1 $102 $40 #
plane-surface $-1 0 0 -13.381590353330408 0 0 1 1 0 0 forward_v I I I I #
coedge $-1 $103 $104 $105 $106 forward $41 $-1 #
face $-1 $107 $108 $25 $-1 $109 reversed single #
loop $-1 $-1 $110 $43 #
plane-surface $-1 -47.743241122463019 -16.936352952769365 0 0 -1 0 0 0 -1 forward_v I I I I #
coedge $-1 $111 $112 $113 $114 forward $44 $-1 #
face $-1 $115 $116 $26 $-1 $117 reversed single #
loop $-1 $-1 $118 $46 #
plane-surface $-1 -51.018539220938472 23.416241164437043 0 1 0 0 0 0 -1 forward_v I I I I #
coedge $-1 $119 $120 $121 $122 forward $47 $-1 #
face $-1 $123 $124 $27 $-1 $125 reversed single #
loop $-1 $-1 $126 $49 #
plane-surface $-1 -24.621054525080261 -9.5599278460986241 77.792243894758812 0.68199836817093118 0 0.7313536940579346 0.7313536940579346 0 -0.68199836817093118 forward_v I I I I #
coedge $-1 $127 $128 $129 $130 reversed $50 $-1 #
face $-1 $-1 $131 $28 $-1 $132 forward single #
loop $-1 $133 $134 $52 #
cone-surface $-1 46.832124186728372 -11.446945539016937 7.1537963904091431 -0.68199836817093118 0 -0.7313536940579346 0.3656768470289673 0 -0.34099918408546559 1 I I -0.70710678118654813 0.70710678118654691 0.5 forward I I I I #
loop $-1 $-1 $135 $36 #
coedge $-1 $84 $84 $136 $137 reversed $53 $-1 #
face $-1 $-1 $138 $29 $-1 $139 forward single #
loop $-1 $140 $141 $55 #
cone-surface $-1 46.832124186728372 -7.6729101531803146 7.1537963904091431 -0.68199836817093118 0 -0.7313536940579346 0.3656768470289673 0 -0.34099918408546559 1 I I -0.70710678118654813 0.70710678118654691 0.5 forward I I I I #
loop $-1 $-1 $142 $37 #
coedge $-1 $89 $89 $143 $144 reversed $56 $-1 #
face $-1 $145 $146 $30 $-1 $147 forward single #
loop $-1 $-1 $148 $58 #
plane-surface $-1 -124.42087307684187 -8.5158797043012306 83.023676268238688 0 -1 0 0.66913061440640931 0 -0.74314481823134659 forward_v I I I I #
coedge $-1 $149 $150 $151 $152 reversed $59 $-1 #
face $-1 $-1 $153 $31 $-1 $154 forward single #
loop $-1 $155 $156 $61 #
cone-surface $-1 -45.082026205266651 -12.726116328535298 5.4560892496632949 0.66913061440640931 0 -0.74314481823134659 0.3715724091156733 0 0.33456530720320465 1 I I -0.70710678118654746 0.70710678118654746 0.5 forward I I I I #
loop $-1 $-1 $157 $39 #
coedge $-1 $98 $98 $158 $159 reversed $62 $-1 #
face $-1 $160 $161 $24 $-1 $162 reversed single #
loop $-1 $-1 $163 $64 #
plane-surface $-1 0 -29.896129376104721 0 0 1 0 0 0 1 forward_v I I I I #
coedge $-1 $164 $165 $166 $167 forward $65 $-1 #
coedge $-1 $168 $67 $169 $170 forward $41 $-1 #
coedge $-1 $67 $168 $171 $172 forward $41 $-1 #
coedge $-1 $173 $174 $67 $106 reversed $175 $-1 #
edge $-1 $176 -29.896129376104721 $177 29.896129376104721 $105 $178 forward 7 unknown #
face $-1 $179 $180 $25 $-1 $181 forward single #
loop $-1 $-1 $182 $68 #
plane-surface $-1 -44.467943023987566 -23.416241164437043 0 -1 0 0 0 0 1 forward_v I I I I #
coedge $-1 $183 $184 $185 $186 forward $69 $-1 #
coedge $-1 $187 $71 $188 $189 reversed $44 $-1 #
coedge $-1 $71 $187 $190 $191 reversed $44 $-1 #
coedge $-1 $184 $183 $71 $114 reversed $69 $-1 #
edge $-1 $192 -13.381590353330408 $193 13.381590353330408 $113 $194 forward 7 unknown #
face $-1 $195 $196 $26 $-1 $197 reversed single #
loop $-1 $-1 $198 $72 #
plane-surface $-1 -44.467943023987566 23.416241164437043 0 -1 0 0 0 0 1 forward_v I I I I #
coedge $-1 $199 $200 $201 $202 reversed $73 $-1 #
coedge $-1 $203 $75 $204 $205 reversed $47 $-1 #
coedge $-1 $75 $203 $206 $207 reversed $47 $-1 #
coedge $-1 $200 $199 $75 $122 reversed $73 $-1 #
edge $-1 $208 -13.381590353330408 $209 13.381590353330408 $121 $210 forward 7 unknown #
face $-1 $211 $212 $27 $-1 $213 forward single #
loop $-1 $-1 $214 $76 #
plane-surface $-1 47.958374461894984 -13.962969129574685 155.62415080180875 0 1 0 0.68199836817093118 0 0.7313536940579346 forward_v I I I I #
coedge $-1 $215 $216 $217 $218 reversed $77 $-1 #
coedge $-1 $128 $79 $219 $220 reversed $50 $-1 #
coedge $-1 $79 $127 $215 $221 reversed $50 $-1 #
coedge $-1 $217 $222 $79 $130 forward $212 $-1 #
edge $-1 $223 -29.231665151022174 $224 -20.471726158714961 $129 $225 forward 7 unknown #
loop $-1 $-1 $136 $80 #
plane-surface $-1 -24.621054525080261 -9.5599278460986241 77.792243894758812 0.68199836817093118 0 0.7313536940579346 0.7313536940579346 0 -0.68199836817093118 forward_v I I I I #
loop $-1 $-1 $226 $52 #
coedge $-1 $134 $134 $135 $227 reversed $81 $-1 #
coedge $-1 $135 $135 $134 $227 forward $83 $-1 #
coedge $-1 $136 $136 $84 $137 forward $131 $-1 #
edge $-1 $228 0 $228 6.2831853071796004 $136 $229 forward 7 unknown #
loop $-1 $-1 $143 $85 #
plane-surface $-1 -24.621054525080261 -9.5599278460986241 77.792243894758812 0.68199836817093118 0 0.7313536940579346 0.7313536940579346 0 -0.68199836817093118 forward_v I I I I #
loop $-1 $-1 $230 $55 #
coedge $-1 $141 $141 $142 $231 reversed $86 $-1 #
coedge $-1 $142 $142 $141 $231 forward $88 $-1 #
coedge $-1 $143 $143 $89 $144 forward $138 $-1 #
edge $-1 $232 0 $232 6.2831853071796004 $143 $233 forward 7 unknown #
face $-1 $234 $235 $30 $-1 $236 forward single #
loop $-1 $-1 $237 $90 #
plane-surface $-1 -47.743241122463019 -16.936352952769365 0 0 -1 0 0 0 -1 forward_v I I I I #
coedge $-1 $238 $239 $240 $241 reversed $91 $-1 #
coedge $-1 $242 $93 $237 $243 reversed $59 $-1 #
coedge $-1 $93 $242 $238 $244 forward $59 $-1 #
coedge $-1 $240 $245 $93 $152 forward $235 $-1 #
edge $-1 $246 -10.573294788501716 $247 -2.1528215400335817 $151 $248 forward 7 unknown #
loop $-1 $-1 $158 $94 #
plane-surface $-1 -53.210852381969644 -12.726116328535298 3.9369378255709648 -0.66913061440640931 0 0.74314481823134659 0.74314481823134659 0 0.66913061440640931 forward_v I I I I #
loop $-1 $-1 $249 $61 #
coedge $-1 $156 $156 $157 $250 reversed $95 $-1 #
coedge $-1 $157 $157 $156 $250 forward $97 $-1 #
coedge $-1 $158 $158 $98 $159 forward $153 $-1 #
edge $-1 $251 0 $251 6.2831853071796004 $158 $252 forward 7 unknown #
face $-1 $253 $254 $24 $-1 $255 reversed single #
loop $-1 $-1 $256 $99 #
plane-surface $-1 -53.210852381969666 0 0 1 0 0 0 0 -1 forward_v I I I I #
coedge $-1 $257 $171 $258 $259 forward $100 $-1 #
coedge $-1 $260 $102 $257 $261 forward $65 $-1 #
coedge $-1 $102 $260 $262 $263 forward $65 $-1 #
coedge $-1 $174 $173 $102 $167 reversed $175 $-1 #
edge $-1 $264 -29.896129376104721 $265 29.896129376104721 $166 $266 forward 7 unknown #
coedge $-1 $104 $103 $267 $268 forward $41 $-1 #
coedge $-1 $269 $270 $103 $170 reversed $254 $-1 #
edge $-1 $177 -53.210852381969666 $271 53.210852381969666 $169 $272 forward 7 unknown #
coedge $-1 $163 $273 $104 $172 reversed $100 $-1 #
edge $-1 $274 -53.210852381969666 $176 53.210852381969666 $171 $275 forward 7 unknown #
coedge $-1 $166 $105 $273 $276 forward $175 $-1 #
coedge $-1 $105 $166 $269 $277 reversed $175 $-1 #
loop $-1 $-1 $173 $253 #
vertex $-1 $106 $278 #
vertex $-1 $106 $279 #
straight-curve $-1 53.210852381969666 0 13.381590353330408 0 1 0 I I #
face $-1 $280 $281 $25 $-1 $282 reversed single #
loop $-1 $-1 $283 $107 #
plane-surface $-1 0 0 13.381590353330408 0 0 1 1 0 0 forward_v I I I I #
coedge $-1 $284 $285 $286 $287 reversed $108 $-1 #
coedge $-1 $113 $110 $288 $289 reversed $69 $-1 #
coedge $-1 $110 $113 $290 $291 reversed $69 $-1 #
coedge $-1 $285 $284 $110 $186 reversed $108 $-1 #
edge $-1 $292 -13.381590353330408 $293 13.381590353330408 $185 $294 forward 7 unknown #
coedge $-1 $112 $111 $295 $296 reversed $44 $-1 #
coedge $-1 $288 $297 $111 $189 forward $281 $-1 #
edge $-1 $298 -18.188008793886198 $193 -5.2282323705508436 $188 $299 forward 7 unknown #
coedge $-1 $300 $290 $112 $191 forward $180 $-1 #
edge $-1 $192 5.2282323705508436 $301 18.188008793886198 $190 $302 forward 7 unknown #
vertex $-1 $191 $303 #
vertex $-1 $189 $304 #
straight-curve $-1 -51.018539220938472 -16.936352952769365 0 0 0 -1 I I #
face $-1 $305 $306 $26 $-1 $307 forward single #
loop $-1 $-1 $308 $115 #
plane-surface $-1 0 0 -13.381590353330408 0 0 1 1 0 0 forward_v I I I I #
coedge $-1 $309 $310 $203 $311 forward $116 $-1 #
coedge $-1 $121 $118 $312 $313 reversed $73 $-1 #
coedge $-1 $118 $121 $314 $315 reversed $73 $-1 #
coedge $-1 $316 $317 $118 $202 forward $318 $-1 #
edge $-1 $319 -13.381590353330408 $320 13.381590353330408 $201 $321 forward 7 unknown #
coedge $-1 $120 $119 $198 $311 reversed $47 $-1 #
coedge $-1 $312 $308 $119 $205 forward $196 $-1 #
edge $-1 $322 20.596322462756056 $209 27.146918659706962 $204 $323 forward 7 unknown #
coedge $-1 $324 $314 $120 $207 forward $306 $-1 #
edge $-1 $208 -27.146918659706962 $325 -20.596322462756056 $206 $326 forward 7 unknown #
vertex $-1 $207 $327 #
vertex $-1 $205 $328 #
straight-curve $-1 -51.018539220938472 16.936352952769365 0 0 0 -1 I I #
face $-1 $-1 $329 $27 $-1 $330 reversed single #
loop $-1 $-1 $129 $123 #
plane-surface $-1 0 0 13.381590353330408 0 0 1 1 0 0 forward_v I I I I #
coedge $-1 $331 $332 $333 $334 reversed $124 $-1 #
coedge $-1 $335 $126 $128 $221 forward $77 $-1 #
coedge $-1 $126 $335 $331 $336 forward $77 $-1 #
coedge $-1 $333 $129 $126 $218 forward $212 $-1 #
edge $-1 $224 0.37692263957325167 $337 9.1830052065253724 $217 $338 forward 7 unknown #
coedge $-1 $339 $340 $127 $220 forward $329 $-1 #
edge $-1 $341 -72.599260493120795 $223 -64.430485047573967 $219 $342 forward 7 unknown #
edge $-1 $224 94.443999498375604 $341 106.42170476393933 $128 $343 forward 7 unknown #
coedge $-1 $129 $333 $339 $344 forward $212 $-1 #
vertex $-1 $130 $345 #
vertex $-1 $130 $346 #
straight-curve $-1 23.979187230947492 -5.1568865626225637 13.381590353330409 -1 0 0 I I #
coedge $-1 $226 $226 $-1 $347 reversed $133 $-1 #
edge $-1 $348 0 $348 6.2831853071796004 $134 $349 forward 7 unknown #
vertex $-1 $137 $350 #
ellipse-curve $-1 48.830882885816067 -11.446945539016937 9.2972026305569866 0.68199836817093118 0 0.7313536940579346 0.7313536940579346 0 -0.68199836817093118 1 I I #
coedge $-1 $230 $230 $-1 $351 reversed $140 $-1 #
edge $-1 $352 0 $352 6.2831853071796004 $141 $353 forward 7 unknown #
vertex $-1 $144 $354 #
ellipse-curve $-1 48.830882885816067 -7.6729101531803146 9.2972026305569866 0.68199836817093118 0 0.7313536940579346 0.7313536940579346 0 -0.68199836817093118 1 I I #
face $-1 $-1 $355 $30 $-1 $356 reversed single #
loop $-1 $-1 $245 $145 #
plane-surface $-1 0 0 13.381590353330408 0 0 1 1 0 0 forward_v I I I I #
coedge $-1 $357 $358 $149 $243 forward $146 $-1 #
coedge $-1 $239 $148 $150 $244 reversed $91 $-1 #
coedge $-1 $148 $238 $359 $360 reversed $91 $-1 #
coedge $-1 $361 $151 $148 $241 forward $235 $-1 #
edge $-1 $247 -19.488933223563393 $362 -8.9995841564512702 $240 $363 forward 7 unknown #
coedge $-1 $150 $149 $364 $365 reversed $59 $-1 #
edge $-1 $366 -0.71445067475082169 $246 13.400360879848098 $237 $367 forward 7 unknown #
edge $-1 $368 -2.8618693057405159e-014 $247 14.114811554598891 $238 $369 forward 7 unknown #
coedge $-1 $151 $361 $357 $370 forward $235 $-1 #
vertex $-1 $152 $371 #
vertex $-1 $152 $372 #
straight-curve $-1 -42.721503314857543 -6.3630581642676489 13.381590353330406 0 1 0 I I #
coedge $-1 $249 $249 $-1 $373 reversed $155 $-1 #
edge $-1 $374 0 $374 6.2831853071796004 $156 $375 forward 7 unknown #
vertex $-1 $159 $376 #
ellipse-curve $-1 -47.966177848413608 -12.726116328535298 8.6592640894506747 -0.66913061440640931 0 0.74314481823134659 0.74314481823134659 0 0.66913061440640931 1 I I #
face $-1 $-1 $175 $24 $-1 $377 reversed single #
loop $-1 $-1 $269 $160 #
plane-surface $-1 0 29.896129376104721 0 0 -1 0 0 0 -1 forward_v I I I I #
coedge $-1 $378 $267 $270 $379 forward $161 $-1 #
coedge $-1 $273 $163 $164 $261 reversed $100 $-1 #
coedge $-1 $267 $378 $163 $259 reversed $161 $-1 #
edge $-1 $274 -13.381590353330408 $380 13.381590353330408 $258 $381 forward 7 unknown #
coedge $-1 $165 $164 $378 $382 forward $65 $-1 #
edge $-1 $265 -53.210852381969666 $380 53.210852381969666 $257 $383 forward 7 unknown #
coedge $-1 $270 $269 $165 $263 reversed $254 $-1 #
edge $-1 $384 -53.210852381969666 $264 53.210852381969666 $262 $385 forward 7 unknown #
vertex $-1 $167 $386 #
vertex $-1 $276 $387 #
straight-curve $-1 53.210852381969666 0 -13.381590353330408 0 -1 0 I I #
coedge $-1 $256 $258 $168 $268 reversed $161 $-1 #
edge $-1 $271 -29.896129376104721 $274 29.896129376104721 $267 $388 forward 7 unknown #
coedge $-1 $262 $169 $174 $277 forward $254 $-1 #
coedge $-1 $169 $262 $256 $379 reversed $254 $-1 #
vertex $-1 $170 $389 #
straight-curve $-1 0 29.896129376104721 13.381590353330408 -1 0 0 I I #
coedge $-1 $171 $257 $173 $276 reversed $100 $-1 #
vertex $-1 $268 $390 #
straight-curve $-1 0 -29.896129376104721 13.381590353330408 1 0 0 I I #
edge $-1 $176 -13.381590353330408 $265 13.381590353330408 $173 $391 forward 7 unknown #
edge $-1 $177 -13.381590353330408 $264 13.381590353330408 $174 $392 forward 7 unknown #
point $-1 53.210852381969666 -29.896129376104721 13.381590353330408 #
point $-1 53.210852381969666 29.896129376104721 13.381590353330408 #
face $-1 $-1 $393 $25 $-1 $394 reversed single #
loop $-1 $-1 $395 $179 #
plane-surface $-1 0 0 -13.381590353330408 0 0 1 1 0 0 forward_v I I I I #
coedge $-1 $290 $300 $285 $396 forward $180 $-1 #
coedge $-1 $185 $182 $395 $397 reversed $108 $-1 #
coedge $-1 $182 $185 $283 $396 reversed $108 $-1 #
coedge $-1 $398 $399 $182 $287 forward $393 $-1 #
edge $-1 $400 -13.381590353330408 $401 13.381590353330408 $286 $402 forward 7 unknown #
coedge $-1 $395 $188 $183 $289 forward $281 $-1 #
edge $-1 $193 -27.146918659706962 $293 -20.596322462756056 $288 $403 forward 7 unknown #
coedge $-1 $190 $283 $184 $291 forward $180 $-1 #
edge $-1 $292 20.596322462756056 $192 27.146918659706962 $290 $404 forward 7 unknown #
vertex $-1 $291 $405 #
vertex $-1 $289 $406 #
straight-curve $-1 -44.467943023987566 -16.936352952769365 0 0 0 -1 I I #
coedge $-1 $399 $398 $187 $296 forward $393 $-1 #
edge $-1 $301 -13.381590353330408 $298 13.381590353330408 $295 $407 forward 7 unknown #
coedge $-1 $188 $395 $399 $408 forward $281 $-1 #
vertex $-1 $189 $409 #
straight-curve $-1 -51.018539220938472 -11.708120582218521 -13.381590353330408 0 1 0 I I #
coedge $-1 $283 $190 $398 $410 forward $180 $-1 #
vertex $-1 $410 $411 #
straight-curve $-1 -51.018539220938472 -11.708120582218521 13.381590353330408 0 -1 0 I I #
point $-1 -51.018539220938472 -16.936352952769365 13.381590353330408 #
point $-1 -51.018539220938472 -16.936352952769365 -13.381590353330408 #
face $-1 $-1 $318 $26 $-1 $412 reversed single #
loop $-1 $-1 $324 $195 #
plane-surface $-1 0 0 13.381590353330408 0 0 1 1 0 0 forward_v I I I I #
coedge $-1 $204 $413 $309 $414 forward $196 $-1 #
coedge $-1 $415 $198 $308 $414 reversed $116 $-1 #
coedge $-1 $198 $415 $324 $416 reversed $116 $-1 #
edge $-1 $325 -13.381590353330408 $322 13.381590353330408 $198 $417 forward 7 unknown #
coedge $-1 $413 $204 $199 $313 forward $196 $-1 #
edge $-1 $209 5.2282323705508436 $319 18.188008793886198 $312 $418 forward 7 unknown #
coedge $-1 $206 $419 $200 $315 forward $306 $-1 #
edge $-1 $320 -18.188008793886198 $208 -5.2282323705508436 $314 $420 forward 7 unknown #
coedge $-1 $421 $201 $419 $422 reversed $318 $-1 #
coedge $-1 $201 $421 $413 $423 reversed $318 $-1 #
loop $-1 $-1 $421 $305 #
vertex $-1 $423 $424 #
vertex $-1 $202 $425 #
straight-curve $-1 -51.018539220938472 29.896129376104721 0 0 0 1 I I #
vertex $-1 $205 $426 #
straight-curve $-1 -23.871620561231509 16.936352952769365 -13.381590353330408 -1 0 0 I I #
coedge $-1 $419 $206 $310 $416 forward $306 $-1 #
vertex $-1 $207 $427 #
straight-curve $-1 -23.871620561231509 16.936352952769365 13.381590353330408 1 0 0 I I #
point $-1 -51.018539220938472 16.936352952769365 13.381590353330408 #
point $-1 -51.018539220938472 16.936352952769365 -13.381590353330408 #
loop $-1 $-1 $219 $211 #
plane-surface $-1 53.210852381969666 0 0 -1 0 0 0 0 1 forward_v I I I I #
coedge $-1 $332 $214 $216 $336 reversed $124 $-1 #
coedge $-1 $214 $331 $428 $429 reversed $124 $-1 #
coedge $-1 $222 $217 $214 $334 forward $212 $-1 #
edge $-1 $337 20.471726158714961 $430 29.231665151022174 $333 $431 forward 7 unknown #
coedge $-1 $216 $215 $340 $432 reversed $77 $-1 #
edge $-1 $433 -106.42170476393933 $337 -94.443999498375604 $331 $434 forward 7 unknown #
vertex $-1 $218 $435 #
straight-curve $-1 44.45091338966246 -4.7799639230493121 13.381590353330409 0 -1 0 I I #
coedge $-1 $428 $219 $222 $344 reversed $329 $-1 #
coedge $-1 $219 $428 $335 $432 forward $329 $-1 #
vertex $-1 $220 $436 #
straight-curve $-1 53.210852381969666 -5.1568865626225637 77.812075400904376 0 0 1 I I #
straight-curve $-1 -24.621054525080261 -5.1568865626225637 77.792243894758812 0.7313536940579346 0 -0.68199836817093118 I I #
edge $-1 $430 -13.962969129574685 $223 -5.1568865626225637 $339 $437 forward 7 unknown #
point $-1 53.210852381969666 -5.1568865626225637 13.381590353330408 #
point $-1 44.450913389662453 -5.1568865626225637 13.381590353330409 #
edge $-1 $438 1 $438 0 $226 $-1 forward 7 unknown #
vertex $-1 $227 $439 #
ellipse-curve $-1 47.173123370813833 -11.446945539016937 7.5194732374381097 0.68199836817093118 0 0.7313536940579346 0.7313536940579346 0 -0.68199836817093118 1 I I #
point $-1 49.562236579874011 -11.446945539016937 8.6152042623860616 #
edge $-1 $440 1 $440 0 $230 $-1 forward 7 unknown #
vertex $-1 $231 $441 #
ellipse-curve $-1 47.173123370813833 -7.6729101531803146 7.5194732374381097 0.68199836817093118 0 0.7313536940579346 0.7313536940579346 0 -0.68199836817093118 1 I I #
point $-1 49.562236579874011 -7.6729101531803146 8.6152042623860616 #
loop $-1 $-1 $442 $234 #
plane-surface $-1 -53.210852381969666 0 0 1 0 0 0 0 -1 forward_v I I I I #
coedge $-1 $358 $237 $245 $370 reversed $146 $-1 #
coedge $-1 $237 $357 $442 $443 reversed $146 $-1 #
coedge $-1 $364 $444 $239 $360 forward $355 $-1 #
edge $-1 $362 28.130247780788935 $368 37.574900308548401 $359 $445 forward 7 unknown #
coedge $-1 $245 $240 $444 $446 forward $235 $-1 #
vertex $-1 $446 $447 #
straight-curve $-1 -62.210436538420936 -8.5158797043012306 13.381590353330409 -1 0 0 I I #
coedge $-1 $442 $359 $242 $365 forward $355 $-1 #
edge $-1 $368 2.1528215400335817 $366 10.573294788501716 $364 $448 forward 7 unknown #
vertex $-1 $443 $449 #
straight-curve $-1 -52.679912065146702 -16.936352952769365 4.4149986445300353 0.74314481823134659 0 0.66913061440640931 I I #
vertex $-1 $365 $450 #
straight-curve $-1 -53.210852381969644 -8.5158797043012306 3.9369378255709648 0.74314481823134659 0 0.66913061440640931 I I #
edge $-1 $451 8.9995841564512702 $246 19.488933223563393 $245 $452 forward 7 unknown #
point $-1 -42.721503314857543 -16.936352952769365 13.381590353330408 #
point $-1 -42.721503314857543 -8.5158797043012306 13.381590353330408 #
edge $-1 $453 1 $453 0 $249 $-1 forward 7 unknown #
vertex $-1 $250 $454 #
ellipse-curve $-1 -45.416591512469857 -12.726116328535298 5.8276616587789682 -0.66913061440640931 0 0.74314481823134659 0.74314481823134659 0 0.66913061440640931 1 I I #
point $-1 -47.223033030182265 -12.726116328535298 9.3283947038570929 #
plane-surface $-1 53.210852381969666 0 0 -1 0 0 0 0 1 forward_v I I I I #
coedge $-1 $258 $256 $260 $382 reversed $161 $-1 #
edge $-1 $271 -13.381590353330408 $384 13.381590353330408 $270 $455 forward 7 unknown #
vertex $-1 $382 $456 #
straight-curve $-1 -53.210852381969666 -29.896129376104721 0 0 0 -1 I I #
edge $-1 $380 -29.896129376104721 $384 29.896129376104721 $378 $457 forward 7 unknown #
straight-curve $-1 0 -29.896129376104721 -13.381590353330408 -1 0 0 I I #
vertex $-1 $263 $458 #
straight-curve $-1 0 29.896129376104721 -13.381590353330408 1 0 0 I I #
point $-1 53.210852381969666 29.896129376104721 -13.381590353330408 #
point $-1 53.210852381969666 -29.896129376104721 -13.381590353330408 #
straight-curve $-1 -53.210852381969666 0 13.381590353330408 0 -1 0 I I #
point $-1 -53.210852381969666 29.896129376104721 13.381590353330408 #
point $-1 -53.210852381969666 -29.896129376104721 13.381590353330408 #
straight-curve $-1 53.210852381969666 -29.896129376104721 0 0 0 -1 I I #
straight-curve $-1 53.210852381969666 29.896129376104721 0 0 0 -1 I I #
loop $-1 $-1 $286 $280 #
plane-surface $-1 0 -29.896129376104721 0 0 1 0 0 0 1 forward_v I I I I #
coedge $-1 $297 $288 $284 $397 forward $281 $-1 #
edge $-1 $401 -18.188008793886198 $292 -5.2282323705508436 $283 $459 forward 7 unknown #
edge $-1 $293 5.2282323705508436 $400 18.188008793886198 $395 $460 forward 7 unknown #
coedge $-1 $295 $286 $300 $410 reversed $393 $-1 #
coedge $-1 $286 $295 $297 $408 reversed $393 $-1 #
vertex $-1 $408 $461 #
vertex $-1 $287 $462 #
straight-curve $-1 -44.467943023987566 -29.896129376104721 0 0 0 1 I I #
straight-curve $-1 -23.871620561231509 -16.936352952769365 -13.381590353330408 1 0 0 I I #
straight-curve $-1 -23.871620561231509 -16.936352952769365 13.381590353330408 -1 0 0 I I #
point $-1 -44.467943023987566 -16.936352952769365 13.381590353330408 #
point $-1 -44.467943023987566 -16.936352952769365 -13.381590353330408 #
straight-curve $-1 -51.018539220938472 -29.896129376104721 0 0 0 -1 I I #
edge $-1 $400 44.467943023987566 $298 51.018539220938472 $399 $463 forward 7 unknown #
point $-1 -51.018539220938472 -29.896129376104721 -13.381590353330408 #
edge $-1 $301 -51.018539220938472 $401 -44.467943023987566 $398 $464 forward 7 unknown #
point $-1 -51.018539220938472 -29.896129376104721 13.381590353330408 #
plane-surface $-1 0 29.896129376104721 0 0 -1 0 0 0 -1 forward_v I I I I #
coedge $-1 $308 $312 $317 $423 forward $196 $-1 #
edge $-1 $465 -18.188008793886198 $322 -5.2282323705508436 $308 $466 forward 7 unknown #
coedge $-1 $310 $309 $421 $467 reversed $116 $-1 #
edge $-1 $325 5.2282323705508436 $468 18.188008793886198 $324 $469 forward 7 unknown #
straight-curve $-1 -44.467943023987566 16.936352952769365 0 0 0 -1 I I #
straight-curve $-1 -51.018539220938472 11.708120582218521 -13.381590353330408 0 1 0 I I #
coedge $-1 $314 $324 $316 $422 forward $306 $-1 #
straight-curve $-1 -51.018539220938472 11.708120582218521 13.381590353330408 0 -1 0 I I #
coedge $-1 $317 $316 $415 $467 forward $318 $-1 #
edge $-1 $468 44.467943023987566 $320 51.018539220938472 $316 $470 forward 7 unknown #
edge $-1 $319 -51.018539220938472 $465 -44.467943023987566 $317 $471 forward 7 unknown #
point $-1 -51.018539220938472 29.896129376104721 -13.381590353330408 #
point $-1 -51.018539220938472 29.896129376104721 13.381590353330408 #
point $-1 -44.467943023987566 16.936352952769365 -13.381590353330408 #
point $-1 -44.467943023987566 16.936352952769365 13.381590353330408 #
coedge $-1 $340 $339 $332 $429 forward $329 $-1 #
edge $-1 $430 64.430485047573967 $433 72.599260493120795 $428 $472 forward 7 unknown #
vertex $-1 $344 $473 #
straight-curve $-1 23.979187230947492 -13.962969129574685 13.381590353330409 1 0 0 I I #
edge $-1 $433 -9.1830052065253724 $341 -0.37692263957325167 $340 $474 forward 7 unknown #
vertex $-1 $432 $475 #
straight-curve $-1 -24.621054525080261 -13.962969129574685 77.792243894758812 -0.7313536940579346 0 0.68199836817093118 I I #
point $-1 44.450913389662453 -13.962969129574685 13.381590353330409 #
point $-1 53.210852381969666 -5.1568865626225637 5.2128149077835815 #
straight-curve $-1 53.210852381969666 0 13.381590353330408 0 1 0 I I #
vertex $-1 $347 $476 #
point $-1 47.90447706487177 -11.446945539016937 6.8374748692671785 #
vertex $-1 $351 $477 #
point $-1 47.90447706487177 -7.6729101531803146 6.8374748692671785 #
coedge $-1 $444 $364 $358 $443 forward $355 $-1 #
edge $-1 $366 -37.574900308548401 $451 -28.130247780788935 $442 $478 forward 7 unknown #
coedge $-1 $359 $442 $361 $446 reversed $355 $-1 #
straight-curve $-1 -53.210852381969666 -8.5158797043012306 41.511838134119344 0 0 -1 I I #
edge $-1 $362 8.5158797043012306 $451 16.936352952769365 $444 $479 forward 7 unknown #
point $-1 -53.210852381969666 -8.5158797043012306 13.381590353330408 #
straight-curve $-1 -53.210852381969666 -6.3630581642676489 3.9369378255709471 0 -1 0 I I #
point $-1 -53.210852381969666 -16.936352952769365 3.9369378255709457 #
point $-1 -53.210852381969666 -8.5158797043012306 3.9369378255709457 #
vertex $-1 $443 $480 #
straight-curve $-1 -62.210436538420936 -16.936352952769365 13.381590353330409 1 0 0 I I #
vertex $-1 $373 $481 #
point $-1 -44.673446694238507 -12.726116328535298 6.4967922731853776 #
straight-curve $-1 -53.210852381969666 29.896129376104721 0 0 0 -1 I I #
point $-1 -53.210852381969666 -29.896129376104721 -13.381590353330408 #
straight-curve $-1 -53.210852381969666 0 -13.381590353330408 0 1 0 I I #
point $-1 -53.210852381969666 29.896129376104721 -13.381590353330408 #
straight-curve $-1 -44.467943023987566 -11.708120582218521 13.381590353330408 0 1 0 I I #
straight-curve $-1 -44.467943023987566 -11.708120582218521 -13.381590353330408 0 -1 0 I I #
point $-1 -44.467943023987566 -29.896129376104721 -13.381590353330408 #
point $-1 -44.467943023987566 -29.896129376104721 13.381590353330408 #
straight-curve $-1 0 -29.896129376104721 -13.381590353330408 -1 0 0 I I #
straight-curve $-1 0 -29.896129376104721 13.381590353330408 1 0 0 I I #
vertex $-1 $467 $482 #
straight-curve $-1 -44.467943023987566 11.708120582218521 -13.381590353330408 0 -1 0 I I #
edge $-1 $468 -13.381590353330408 $465 13.381590353330408 $421 $483 forward 7 unknown #
vertex $-1 $422 $484 #
straight-curve $-1 -44.467943023987566 11.708120582218521 13.381590353330408 0 1 0 I I #
straight-curve $-1 0 29.896129376104721 13.381590353330408 -1 0 0 I I #
straight-curve $-1 0 29.896129376104721 -13.381590353330408 1 0 0 I I #
straight-curve $-1 53.210852381969666 -13.962969129574685 77.812075400904376 0 0 -1 I I #
point $-1 53.210852381969666 -13.962969129574685 13.381590353330408 #
straight-curve $-1 53.210852381969666 -4.7799639230493121 5.2128149077835744 0 1 0 I I #
point $-1 53.210852381969666 -13.962969129574685 5.2128149077835815 #
point $-1 46.49112500264291 -11.446945539016937 6.7881195433801764 #
point $-1 46.49112500264291 -7.6729101531803146 6.7881195433801764 #
straight-curve $-1 -53.210852381969666 -16.936352952769365 41.511838134119344 0 0 1 I I #
straight-curve $-1 -53.210852381969666 0 13.381590353330408 0 -1 0 I I #
point $-1 -53.210852381969666 -16.936352952769365 13.381590353330408 #
point $-1 -44.747460898063444 -12.726116328535298 5.0845168405476215 #
point $-1 -44.467943023987566 29.896129376104721 -13.381590353330408 #
straight-curve $-1 -44.467943023987566 29.896129376104721 0 0 0 -1 I I #
point $-1 -44.467943023987566 29.896129376104721 13.381590353330408 #
End-of-ACIS-data 