500 0 5 0           
7 Unknown 11 ACIS 5.0 NT 24 Thu Mar 25 19:38:54 1999 
-1 9.9999999999999995e-007 1e-010 
body $-1 $5 $-1 $6 #
body $-1 $7 $-1 $8 #
body $-1 $9 $-1 $10 #
body $-1 $11 $-1 $12 #
body $-1 $13 $-1 $14 #
lump $-1 $-1 $15 $0 #
transform $-1 1 0 0 0 1 0 0 0 1 70.470900601214638 37.185674998174434 18.492062697004698 1 rotate no_reflect no_shear #
lump $-1 $-1 $16 $1 #
transform $-1 1 0 0 0 1 0 0 0 1 70.470900601214638 37.185674998174434 18.492062697004698 1 rotate no_reflect no_shear #
lump $-1 $-1 $17 $2 #
transform $-1 1 0 0 0 1 0 0 0 1 70.470900601214638 37.185674998174434 18.492062697004698 1 rotate no_reflect no_shear #
lump $-1 $-1 $18 $3 #
transform $-1 1 0 0 0 1 0 0 0 1 70.470900601214638 37.185674998174434 18.492062697004698 1 rotate no_reflect no_shear #
lump $-1 $-1 $19 $4 #
transform $-1 1 0 0 0 1 0 0 0 1 70.470900601214638 37.185674998174434 18.492062697004698 1 rotate no_reflect no_shear #
shell $-1 $-1 $-1 $20 $-1 $5 #
shell $-1 $-1 $-1 $21 $-1 $7 #
shell $-1 $-1 $-1 $22 $-1 $9 #
shell $-1 $-1 $-1 $23 $-1 $11 #
shell $-1 $-1 $-1 $24 $-1 $13 #
face $-1 $25 $26 $15 $-1 $27 forward single #
face $-1 $28 $29 $16 $-1 $30 forward single #
face $-1 $31 $32 $17 $-1 $33 forward single #
face $-1 $34 $35 $18 $-1 $36 reversed single #
face $-1 $37 $38 $19 $-1 $39 forward single #
face $-1 $40 $41 $15 $-1 $42 reversed single #
loop $-1 $-1 $43 $20 #
plane-surface $-1 0 0 18.492062697004698 0 0 1 1 0 0 forward_v I I I I #
face $-1 $44 $45 $16 $-1 $46 reversed single #
loop $-1 $-1 $47 $21 #
plane-surface $-1 -70.470900601214638 0 0 1 0 0 0 0 -1 forward_v I I I I #
face $-1 $48 $49 $17 $-1 $50 reversed single #
loop $-1 $-1 $51 $22 #
plane-surface $-1 70.470900601214638 0 0 -1 0 0 0 0 1 forward_v I I I I #
face $-1 $52 $53 $18 $-1 $54 reversed single #
loop $-1 $-1 $55 $23 #
plane-surface $-1 51.628331287801487 -143.55580378770821 100.54620067453207 -1 0 0 0 -0.75470958851134928 0.65605901945558964 forward_v I I I I #
face $-1 $56 $57 $19 $-1 $58 forward single #
loop $-1 $59 $60 $24 #
cone-surface $-1 40.56732330802015 -30.976080534149748 11.822107290482421 0 0.75470958851134928 -0.65605901945558964 3 0 0 1 I I 0 1 3 forward I I I I #
face $-1 $61 $62 $15 $-1 $63 reversed single #
loop $-1 $-1 $64 $25 #
plane-surface $-1 0 0 -18.492062697004698 0 0 1 1 0 0 forward_v I I I I #
coedge $-1 $65 $66 $67 $68 forward $26 $-1 #
face $-1 $69 $70 $16 $-1 $71 forward single #
loop $-1 $-1 $72 $28 #
plane-surface $-1 0 37.185674998174434 0 0 -1 0 0 0 -1 forward_v I I I I #
coedge $-1 $73 $74 $75 $76 forward $29 $-1 #
face $-1 $77 $78 $17 $-1 $79 forward single #
loop $-1 $-1 $80 $31 #
plane-surface $-1 0 37.185674998174434 0 0 -1 0 0 0 -1 forward_v I I I I #
coedge $-1 $81 $82 $83 $84 forward $32 $-1 #
face $-1 $85 $86 $18 $-1 $87 reversed single #
loop $-1 $-1 $88 $34 #
plane-surface $-1 40.56732330802015 -37.18567499817442 8.0800607773616804 0 -0.75470958851134928 0.65605901945558964 1 0 0 forward_v I I I I #
coedge $-1 $89 $90 $91 $92 reversed $35 $-1 #
face $-1 $-1 $93 $19 $-1 $94 forward single #
loop $-1 $95 $96 $37 #
cone-surface $-1 40.56732330802015 -28.159929163316114 9.3740643145982681 0 0.75470958851134928 -0.65605901945558964 1.5 0 0 1 I I -0.70710678118654757 0.70710678118654757 1.5 forward I I I I #
loop $-1 $-1 $97 $24 #
coedge $-1 $60 $60 $98 $99 reversed $38 $-1 #
face $-1 $100 $101 $15 $-1 $102 reversed single #
loop $-1 $-1 $103 $40 #
plane-surface $-1 0 -37.185674998174434 0 0 1 0 0 0 1 forward_v I I I I #
coedge $-1 $104 $105 $106 $107 forward $41 $-1 #
coedge $-1 $108 $43 $109 $110 forward $26 $-1 #
coedge $-1 $43 $108 $111 $112 forward $26 $-1 #
coedge $-1 $113 $114 $43 $68 reversed $115 $-1 #
edge $-1 $116 -37.185674998174434 $117 37.185674998174434 $67 $118 forward 7 unknown #
face $-1 $119 $120 $16 $-1 $121 reversed single #
loop $-1 $-1 $75 $44 #
plane-surface $-1 -79.892185257921213 0 -12.317733001187271 0 0 1 1 0 0 forward_v I I I I #
coedge $-1 $122 $123 $74 $124 forward $45 $-1 #
coedge $-1 $125 $47 $126 $127 reversed $29 $-1 #
coedge $-1 $47 $125 $72 $124 reversed $29 $-1 #
coedge $-1 $128 $129 $47 $76 reversed $70 $-1 #
edge $-1 $130 -37.185674998174434 $131 37.185674998174434 $75 $132 forward 7 unknown #
face $-1 $133 $134 $17 $-1 $135 reversed single #
loop $-1 $-1 $136 $48 #
plane-surface $-1 79.892185257921213 0 -12.317733001187271 0 0 1 1 0 0 forward_v I I I I #
coedge $-1 $137 $138 $81 $139 forward $49 $-1 #
coedge $-1 $140 $51 $80 $139 reversed $32 $-1 #
coedge $-1 $51 $140 $141 $142 reversed $32 $-1 #
coedge $-1 $143 $144 $51 $84 reversed $78 $-1 #
edge $-1 $145 -37.185674998174434 $146 37.185674998174434 $83 $147 forward 7 unknown #
face $-1 $148 $149 $18 $-1 $150 forward single #
loop $-1 $-1 $151 $52 #
plane-surface $-1 29.506315328238813 -143.55580378770821 100.54620067453207 1 0 0 0 0.75470958851134928 -0.65605901945558964 forward_v I I I I #
coedge $-1 $152 $153 $154 $155 reversed $53 $-1 #
coedge $-1 $90 $55 $156 $157 reversed $35 $-1 #
coedge $-1 $55 $89 $152 $158 reversed $35 $-1 #
coedge $-1 $154 $159 $55 $92 forward $149 $-1 #
edge $-1 $160 34.592226895679673 $161 43.643241847595846 $91 $162 forward 7 unknown #
loop $-1 $-1 $98 $56 #
plane-surface $-1 40.56732330802015 -37.18567499817442 8.0800607773616804 0 -0.75470958851134928 0.65605901945558964 1 0 0 forward_v I I I I #
loop $-1 $-1 $163 $37 #
coedge $-1 $96 $96 $97 $164 reversed $57 $-1 #
coedge $-1 $97 $97 $96 $164 forward $59 $-1 #
coedge $-1 $98 $98 $60 $99 forward $93 $-1 #
edge $-1 $165 6.8052933050826196e-016 $165 6.2831853071796013 $98 $166 forward 7 unknown #
face $-1 $167 $168 $15 $-1 $169 reversed single #
loop $-1 $-1 $170 $61 #
plane-surface $-1 -70.470900601214638 0 0 1 0 0 0 0 -1 forward_v I I I I #
coedge $-1 $171 $111 $170 $172 forward $62 $-1 #
coedge $-1 $173 $64 $171 $174 forward $41 $-1 #
coedge $-1 $64 $173 $175 $176 forward $41 $-1 #
coedge $-1 $114 $113 $64 $107 reversed $115 $-1 #
edge $-1 $177 -37.185674998174434 $178 37.185674998174434 $106 $179 forward 7 unknown #
coedge $-1 $66 $65 $180 $181 forward $26 $-1 #
coedge $-1 $182 $183 $65 $110 reversed $168 $-1 #
edge $-1 $117 -70.470900601214638 $184 70.470900601214638 $109 $185 forward 7 unknown #
coedge $-1 $103 $186 $66 $112 reversed $62 $-1 #
edge $-1 $187 -70.470900601214638 $116 70.470900601214638 $111 $188 forward 7 unknown #
coedge $-1 $106 $67 $186 $189 forward $115 $-1 #
coedge $-1 $67 $106 $182 $190 reversed $115 $-1 #
loop $-1 $-1 $114 $167 #
vertex $-1 $68 $191 #
vertex $-1 $68 $192 #
straight-curve $-1 70.470900601214638 0 18.492062697004698 0 1 0 I I #
face $-1 $193 $194 $16 $-1 $195 reversed single #
loop $-1 $-1 $196 $69 #
plane-surface $-1 -89.313469914627788 0 -15.404897849095985 1 0 0 0 0 -1 forward_v I I I I #
coedge $-1 $197 $72 $198 $199 reversed $45 $-1 #
coedge $-1 $72 $197 $128 $200 reversed $45 $-1 #
edge $-1 $130 12.317733001187271 $201 18.492062697004698 $72 $202 forward 7 unknown #
coedge $-1 $74 $73 $203 $204 reversed $29 $-1 #
coedge $-1 $205 $206 $73 $127 forward $207 $-1 #
edge $-1 $208 -18.492062697004698 $131 -12.317733001187271 $126 $209 forward 7 unknown #
coedge $-1 $210 $75 $123 $200 forward $70 $-1 #
coedge $-1 $75 $210 $205 $211 forward $70 $-1 #
vertex $-1 $124 $212 #
vertex $-1 $211 $213 #
straight-curve $-1 -70.470900601214638 0 -12.317733001187271 0 -1 0 I I #
face $-1 $214 $215 $17 $-1 $216 reversed single #
loop $-1 $-1 $217 $77 #
plane-surface $-1 89.313469914627788 0 -15.404897849095985 -1 0 0 0 0 1 forward_v I I I I #
coedge $-1 $144 $143 $218 $219 forward $78 $-1 #
coedge $-1 $220 $80 $144 $221 reversed $49 $-1 #
coedge $-1 $80 $220 $222 $223 reversed $49 $-1 #
edge $-1 $224 -18.492062697004698 $146 -12.317733001187271 $80 $225 forward 7 unknown #
coedge $-1 $82 $81 $226 $227 reversed $32 $-1 #
coedge $-1 $228 $229 $82 $142 forward $230 $-1 #
edge $-1 $145 12.317733001187271 $231 18.492062697004698 $141 $232 forward 7 unknown #
coedge $-1 $136 $83 $229 $233 forward $78 $-1 #
coedge $-1 $83 $136 $137 $221 forward $78 $-1 #
vertex $-1 $142 $234 #
vertex $-1 $221 $235 #
straight-curve $-1 70.470900601214638 0 -12.317733001187271 0 1 0 I I #
face $-1 $-1 $236 $18 $-1 $237 reversed single #
loop $-1 $-1 $91 $85 #
plane-surface $-1 0 0 18.492062697004698 0 0 1 1 0 0 forward_v I I I I #
coedge $-1 $238 $239 $240 $241 reversed $86 $-1 #
coedge $-1 $242 $88 $90 $158 forward $53 $-1 #
coedge $-1 $88 $242 $238 $243 forward $53 $-1 #
coedge $-1 $240 $91 $88 $155 forward $149 $-1 #
edge $-1 $161 -31.344669633791412 $244 -9.2226536742287379 $154 $245 forward 7 unknown #
coedge $-1 $246 $247 $89 $157 forward $236 $-1 #
edge $-1 $248 -42.193039559904371 $160 -31.781037640261339 $156 $249 forward 7 unknown #
edge $-1 $161 -13.79603767878516 $248 2.1388861263899031e-014 $90 $250 forward 7 unknown #
coedge $-1 $91 $240 $246 $251 forward $149 $-1 #
vertex $-1 $157 $252 #
vertex $-1 $92 $253 #
straight-curve $-1 51.628331287801487 -71.777901893854107 18.492062697004698 0 1 0 I I #
coedge $-1 $163 $163 $-1 $254 reversed $95 $-1 #
edge $-1 $255 0 $255 6.2831853071796004 $96 $256 forward 7 unknown #
vertex $-1 $99 $257 #
ellipse-curve $-1 40.56732330802015 -32.660167522216348 13.28606173718318 0 -0.75470958851134928 0.65605901945558964 3 0 0 1 I I #
face $-1 $-1 $115 $15 $-1 $258 reversed single #
loop $-1 $-1 $182 $100 #
plane-surface $-1 0 37.185674998174434 0 0 -1 0 0 0 -1 forward_v I I I I #
coedge $-1 $180 $259 $103 $172 reversed $101 $-1 #
coedge $-1 $186 $103 $104 $174 reversed $62 $-1 #
edge $-1 $187 -18.492062697004698 $260 18.492062697004698 $170 $261 forward 7 unknown #
coedge $-1 $105 $104 $259 $262 forward $41 $-1 #
edge $-1 $178 -70.470900601214638 $260 70.470900601214638 $171 $263 forward 7 unknown #
coedge $-1 $183 $182 $105 $176 reversed $168 $-1 #
edge $-1 $264 -70.470900601214638 $177 70.470900601214638 $175 $265 forward 7 unknown #
vertex $-1 $107 $266 #
vertex $-1 $189 $267 #
straight-curve $-1 70.470900601214638 0 -18.492062697004698 0 -1 0 I I #
coedge $-1 $268 $170 $108 $181 reversed $101 $-1 #
edge $-1 $184 -37.185674998174434 $187 37.185674998174434 $180 $269 forward 7 unknown #
coedge $-1 $175 $109 $114 $190 forward $168 $-1 #
coedge $-1 $109 $175 $268 $270 reversed $168 $-1 #
vertex $-1 $110 $271 #
straight-curve $-1 0 37.185674998174434 18.492062697004698 -1 0 0 I I #
coedge $-1 $111 $171 $113 $189 reversed $62 $-1 #
vertex $-1 $181 $272 #
straight-curve $-1 0 -37.185674998174434 18.492062697004698 1 0 0 I I #
edge $-1 $116 -18.492062697004698 $178 18.492062697004698 $113 $273 forward 7 unknown #
edge $-1 $117 -18.492062697004698 $177 18.492062697004698 $114 $274 forward 7 unknown #
point $-1 70.470900601214638 -37.185674998174434 18.492062697004698 #
point $-1 70.470900601214638 37.185674998174434 18.492062697004698 #
face $-1 $-1 $207 $16 $-1 $275 reversed single #
loop $-1 $-1 $203 $119 #
plane-surface $-1 0 0 -18.492062697004698 0 0 1 1 0 0 forward_v I I I I #
coedge $-1 $276 $277 $197 $278 forward $120 $-1 #
coedge $-1 $123 $122 $196 $278 reversed $45 $-1 #
coedge $-1 $203 $279 $122 $199 forward $194 $-1 #
edge $-1 $280 -89.313469914627788 $201 -70.470900601214638 $122 $281 forward 7 unknown #
edge $-1 $130 -9.4212846567065753 $282 9.4212846567065753 $123 $283 forward 7 unknown #
vertex $-1 $124 $284 #
straight-curve $-1 -70.470900601214638 37.185674998174434 0 0 0 -1 I I #
coedge $-1 $285 $198 $125 $204 forward $194 $-1 #
edge $-1 $201 -37.185674998174434 $208 37.185674998174434 $203 $286 forward 7 unknown #
coedge $-1 $287 $126 $129 $211 reversed $207 $-1 #
coedge $-1 $126 $287 $285 $288 reversed $207 $-1 #
loop $-1 $-1 $126 $193 #
vertex $-1 $288 $289 #
straight-curve $-1 -70.470900601214638 -37.185674998174434 0 0 0 1 I I #
coedge $-1 $129 $128 $277 $290 forward $70 $-1 #
edge $-1 $291 -9.4212846567065753 $131 9.4212846567065753 $205 $292 forward 7 unknown #
point $-1 -70.470900601214638 37.185674998174434 -12.317733001187271 #
point $-1 -70.470900601214638 -37.185674998174434 -12.317733001187271 #
face $-1 $-1 $230 $17 $-1 $293 reversed single #
loop $-1 $-1 $226 $133 #
plane-surface $-1 0 0 -18.492062697004698 0 0 1 1 0 0 forward_v I I I I #
coedge $-1 $294 $218 $295 $296 forward $134 $-1 #
coedge $-1 $217 $297 $136 $219 reversed $134 $-1 #
edge $-1 $298 -37.185674998174434 $299 37.185674998174434 $218 $300 forward 7 unknown #
coedge $-1 $138 $137 $297 $301 forward $49 $-1 #
edge $-1 $299 -9.4212846567065753 $146 9.4212846567065753 $137 $302 forward 7 unknown #
coedge $-1 $303 $226 $138 $223 forward $215 $-1 #
edge $-1 $224 -9.4212846567065753 $304 9.4212846567065753 $138 $305 forward 7 unknown #
vertex $-1 $223 $306 #
straight-curve $-1 70.470900601214638 37.185674998174434 0 0 0 1 I I #
coedge $-1 $222 $307 $140 $227 forward $215 $-1 #
edge $-1 $231 -37.185674998174434 $224 37.185674998174434 $226 $308 forward 7 unknown #
coedge $-1 $295 $141 $307 $309 reversed $230 $-1 #
coedge $-1 $141 $295 $143 $233 reversed $230 $-1 #
loop $-1 $-1 $141 $214 #
vertex $-1 $142 $310 #
straight-curve $-1 70.470900601214638 -37.185674998174434 0 0 0 -1 I I #
edge $-1 $145 -9.4212846567065753 $298 9.4212846567065753 $229 $311 forward 7 unknown #
point $-1 70.470900601214638 -37.185674998174434 -12.317733001187271 #
point $-1 70.470900601214638 37.185674998174434 -12.317733001187271 #
loop $-1 $-1 $156 $148 #
plane-surface $-1 0 -37.185674998174434 0 0 1 0 0 0 1 forward_v I I I I #
coedge $-1 $239 $151 $153 $243 reversed $86 $-1 #
coedge $-1 $151 $238 $312 $313 reversed $86 $-1 #
coedge $-1 $159 $154 $151 $241 forward $149 $-1 #
edge $-1 $244 -43.643241847595846 $314 -34.592226895679673 $240 $315 forward 7 unknown #
coedge $-1 $153 $152 $247 $316 reversed $53 $-1 #
edge $-1 $317 -2.1388861263899031e-014 $244 13.79603767878516 $238 $318 forward 7 unknown #
vertex $-1 $155 $319 #
straight-curve $-1 20.283661654010075 -28.134660046258258 18.492062697004698 -1 0 0 I I #
coedge $-1 $312 $156 $159 $251 reversed $236 $-1 #
coedge $-1 $156 $312 $242 $316 forward $236 $-1 #
vertex $-1 $157 $320 #
straight-curve $-1 51.628331287801487 -37.185674998174434 50.273100337266037 0 0 1 I I #
straight-curve $-1 51.628331287801487 -37.18567499817442 8.0800607773616804 0 -0.65605901945558964 -0.75470958851134928 I I #
edge $-1 $314 29.506315328238813 $160 51.628331287801487 $246 $321 forward 7 unknown #
point $-1 51.628331287801487 -37.185674998174434 18.492062697004698 #
point $-1 51.628331287801487 -28.134660046258261 18.492062697004698 #
edge $-1 $322 1 $322 0 $163 $-1 forward 7 unknown #
vertex $-1 $164 $323 #
ellipse-curve $-1 40.56732330802015 -29.291993546083138 10.358152843781653 0 -0.75470958851134928 0.65605901945558964 3 0 0 1 I I #
point $-1 43.56732330802015 -32.660167522216355 13.286061737183189 #
plane-surface $-1 70.470900601214638 0 0 -1 0 0 0 0 1 forward_v I I I I #
coedge $-1 $170 $268 $173 $262 reversed $101 $-1 #
vertex $-1 $262 $324 #
straight-curve $-1 -70.470900601214638 -37.185674998174434 0 0 0 -1 I I #
edge $-1 $260 -37.185674998174434 $264 37.185674998174434 $259 $325 forward 7 unknown #
straight-curve $-1 0 -37.185674998174434 -18.492062697004698 -1 0 0 I I #
vertex $-1 $176 $326 #
straight-curve $-1 0 37.185674998174434 -18.492062697004698 1 0 0 I I #
point $-1 70.470900601214638 37.185674998174434 -18.492062697004698 #
point $-1 70.470900601214638 -37.185674998174434 -18.492062697004698 #
coedge $-1 $259 $180 $183 $270 forward $101 $-1 #
straight-curve $-1 -70.470900601214638 0 18.492062697004698 0 -1 0 I I #
edge $-1 $184 -18.492062697004698 $264 18.492062697004698 $183 $327 forward 7 unknown #
point $-1 -70.470900601214638 37.185674998174434 18.492062697004698 #
point $-1 -70.470900601214638 -37.185674998174434 18.492062697004698 #
straight-curve $-1 70.470900601214638 -37.185674998174434 0 0 0 -1 I I #
straight-curve $-1 70.470900601214638 37.185674998174434 0 0 0 -1 I I #
plane-surface $-1 0 -37.185674998174434 0 0 1 0 0 0 1 forward_v I I I I #
coedge $-1 $328 $196 $279 $329 reversed $120 $-1 #
coedge $-1 $196 $328 $210 $290 reversed $120 $-1 #
edge $-1 $282 -3.0871648479087135 $280 3.0871648479087135 $197 $330 forward 7 unknown #
coedge $-1 $198 $285 $276 $329 forward $194 $-1 #
vertex $-1 $199 $331 #
straight-curve $-1 0 37.185674998174434 -18.492062697004698 1 0 0 I I #
vertex $-1 $200 $332 #
straight-curve $-1 -79.892185257921213 37.185674998174434 -12.317733001187271 -1 0 0 I I #
point $-1 -70.470900601214638 37.185674998174434 -18.492062697004698 #
coedge $-1 $279 $203 $206 $288 forward $194 $-1 #
straight-curve $-1 -70.470900601214638 0 -18.492062697004698 0 -1 0 I I #
coedge $-1 $206 $205 $328 $333 forward $207 $-1 #
edge $-1 $208 -9.4212846567065753 $334 9.4212846567065753 $206 $335 forward 7 unknown #
point $-1 -70.470900601214638 -37.185674998174434 -18.492062697004698 #
edge $-1 $282 -37.185674998174434 $291 37.185674998174434 $277 $336 forward 7 unknown #
vertex $-1 $290 $337 #
straight-curve $-1 -79.892185257921213 -37.185674998174434 -12.317733001187271 1 0 0 I I #
plane-surface $-1 0 -37.185674998174434 0 0 1 0 0 0 1 forward_v I I I I #
coedge $-1 $297 $217 $303 $338 reversed $134 $-1 #
coedge $-1 $229 $228 $217 $296 reversed $230 $-1 #
edge $-1 $298 -3.0871648479087135 $339 3.0871648479087135 $217 $340 forward 7 unknown #
coedge $-1 $218 $294 $220 $301 reversed $134 $-1 #
vertex $-1 $219 $341 #
vertex $-1 $219 $342 #
straight-curve $-1 89.313469914627788 0 -12.317733001187271 0 1 0 I I #
edge $-1 $299 -3.0871648479087135 $304 3.0871648479087135 $297 $343 forward 7 unknown #
straight-curve $-1 79.892185257921213 37.185674998174434 -12.317733001187271 -1 0 0 I I #
coedge $-1 $307 $222 $294 $338 forward $215 $-1 #
vertex $-1 $338 $344 #
straight-curve $-1 79.892185257921213 37.185674998174434 -18.492062697004698 1 0 0 I I #
point $-1 70.470900601214638 37.185674998174434 -18.492062697004698 #
coedge $-1 $226 $303 $228 $309 forward $215 $-1 #
straight-curve $-1 70.470900601214638 0 -18.492062697004698 0 1 0 I I #
edge $-1 $339 -9.4212846567065753 $231 9.4212846567065753 $228 $345 forward 7 unknown #
point $-1 70.470900601214638 -37.185674998174434 -18.492062697004698 #
straight-curve $-1 79.892185257921213 -37.185674998174434 -12.317733001187271 1 0 0 I I #
coedge $-1 $247 $246 $239 $313 forward $236 $-1 #
edge $-1 $314 31.781037640261339 $317 42.193039559904371 $312 $346 forward 7 unknown #
vertex $-1 $251 $347 #
straight-curve $-1 29.506315328238813 -71.777901893854107 18.492062697004698 0 -1 0 I I #
edge $-1 $317 9.2226536742287379 $248 31.344669633791412 $247 $348 forward 7 unknown #
vertex $-1 $316 $349 #
straight-curve $-1 29.506315328238813 -37.18567499817442 8.0800607773616804 0 0.65605901945558964 0.75470958851134928 I I #
point $-1 29.506315328238813 -28.134660046258261 18.492062697004698 #
point $-1 51.628331287801487 -37.185674998174434 8.0800607773616644 #
straight-curve $-1 0 -37.185674998174434 18.492062697004698 1 0 0 I I #
vertex $-1 $254 $350 #
point $-1 43.56732330802015 -29.291993546083138 10.358152843781653 #
point $-1 -70.470900601214638 -37.185674998174434 -18.492062697004698 #
straight-curve $-1 -70.470900601214638 0 -18.492062697004698 0 1 0 I I #
point $-1 -70.470900601214638 37.185674998174434 -18.492062697004698 #
straight-curve $-1 -70.470900601214638 37.185674998174434 0 0 0 -1 I I #
coedge $-1 $277 $276 $287 $333 reversed $120 $-1 #
edge $-1 $334 -37.185674998174434 $280 37.185674998174434 $276 $351 forward 7 unknown #
straight-curve $-1 -89.313469914627788 37.185674998174434 -15.404897849095985 0 0 -1 I I #
point $-1 -89.313469914627788 37.185674998174434 -18.492062697004698 #
point $-1 -89.313469914627788 37.185674998174434 -12.317733001187271 #
edge $-1 $291 -3.0871648479087135 $334 3.0871648479087135 $328 $352 forward 7 unknown #
vertex $-1 $329 $353 #
straight-curve $-1 -79.892185257921213 -37.185674998174434 -18.492062697004698 -1 0 0 I I #
straight-curve $-1 -89.313469914627788 0 -12.317733001187271 0 -1 0 I I #
point $-1 -89.313469914627788 -37.185674998174434 -12.317733001187271 #
edge $-1 $304 -37.185674998174434 $339 37.185674998174434 $294 $354 forward 7 unknown #
vertex $-1 $296 $355 #
straight-curve $-1 89.313469914627788 -37.185674998174434 -15.404897849095985 0 0 -1 I I #
point $-1 89.313469914627788 -37.185674998174434 -12.317733001187271 #
point $-1 89.313469914627788 37.185674998174434 -12.317733001187271 #
straight-curve $-1 89.313469914627788 37.185674998174434 -15.404897849095985 0 0 -1 I I #
point $-1 89.313469914627788 37.185674998174434 -18.492062697004698 #
straight-curve $-1 79.892185257921213 -37.185674998174434 -18.492062697004698 -1 0 0 I I #
straight-curve $-1 29.506315328238813 -37.185674998174434 50.273100337266037 0 0 -1 I I #
point $-1 29.506315328238813 -37.185674998174434 18.492062697004698 #
straight-curve $-1 20.283661654010075 -37.185674998174434 8.0800607773616662 1 0 0 I I #
point $-1 29.506315328238813 -37.185674998174434 8.0800607773616644 #
point $-1 40.56732330802015 -27.027864780549091 8.3899757854148831 #
straight-curve $-1 -89.313469914627788 0 -18.492062697004698 0 1 0 I I #
straight-curve $-1 -89.313469914627788 -37.185674998174434 -15.404897849095985 0 0 -1 I I #
point $-1 -89.313469914627788 -37.185674998174434 -18.492062697004698 #
straight-curve $-1 89.313469914627788 0 -18.492062697004698 0 -1 0 I I #
point $-1 89.313469914627788 -37.185674998174434 -18.492062697004698 #
End-of-ACIS-data 