500 0 3 0           
7 Unknown 11 ACIS 5.0 NT 24 Thu Mar 25 17:35:44 1999 
-1 9.9999999999999995e-007 1e-010 
body $-1 $3 $-1 $4 #
body $-1 $5 $-1 $6 #
body $-1 $7 $-1 $8 #
lump $-1 $-1 $9 $0 #
transform $-1 1 0 0 0 1 0 0 0 1 62.302926725058754 40.028114060363684 15.277309318488365 1 rotate no_reflect no_shear #
lump $-1 $-1 $10 $1 #
transform $-1 1 0 0 0 1 0 0 0 1 62.302926725058754 40.028114060363684 15.277309318488365 1 rotate no_reflect no_shear #
lump $-1 $-1 $11 $2 #
transform $-1 1 0 0 0 1 0 0 0 1 62.302926725058754 40.028114060363684 15.277309318488365 1 rotate no_reflect no_shear #
shell $-1 $-1 $-1 $12 $-1 $3 #
shell $-1 $-1 $-1 $13 $-1 $5 #
shell $-1 $-1 $-1 $14 $-1 $7 #
face $-1 $15 $16 $9 $-1 $17 forward single #
face $-1 $18 $19 $10 $-1 $20 forward single #
face $-1 $21 $22 $11 $-1 $23 forward single #
face $-1 $24 $25 $9 $-1 $26 reversed single #
loop $-1 $-1 $27 $12 #
plane-surface $-1 0 0 15.277309318488365 0 0 1 1 0 0 forward_v I I I I #
face $-1 $28 $29 $10 $-1 $30 reversed single #
loop $-1 $-1 $31 $13 #
plane-surface $-1 -56.906614795067512 0 -9.3378889583301348 0 0 1 1 0 0 forward_v I I I I #
face $-1 $32 $33 $11 $-1 $34 reversed single #
loop $-1 $-1 $35 $14 #
plane-surface $-1 56.906614795067512 0 -9.3378889583301348 0 0 1 1 0 0 forward_v I I I I #
face $-1 $36 $37 $9 $-1 $38 reversed single #
loop $-1 $-1 $39 $15 #
plane-surface $-1 0 0 -15.277309318488365 0 0 1 1 0 0 forward_v I I I I #
coedge $-1 $40 $41 $42 $43 forward $16 $-1 #
face $-1 $44 $45 $10 $-1 $46 reversed single #
loop $-1 $-1 $47 $18 #
plane-surface $-1 -56.906614795067512 0 -14.513627071204043 0 0 1 1 0 0 forward_v I I I I #
coedge $-1 $48 $49 $50 $51 forward $19 $-1 #
face $-1 $52 $53 $11 $-1 $54 reversed single #
loop $-1 $-1 $55 $21 #
plane-surface $-1 56.906614795067512 0 -14.513627071204043 0 0 1 1 0 0 forward_v I I I I #
coedge $-1 $56 $57 $58 $59 reversed $22 $-1 #
face $-1 $60 $61 $9 $-1 $62 reversed single #
loop $-1 $-1 $63 $24 #
plane-surface $-1 0 -40.028114060363684 0 0 1 0 0 0 1 forward_v I I I I #
coedge $-1 $64 $65 $66 $67 forward $25 $-1 #
coedge $-1 $68 $27 $69 $70 forward $16 $-1 #
coedge $-1 $27 $68 $71 $72 forward $16 $-1 #
coedge $-1 $73 $74 $27 $43 reversed $75 $-1 #
edge $-1 $76 -40.028114060363684 $77 40.028114060363684 $42 $78 forward 7 unknown #
face $-1 $79 $80 $10 $-1 $81 reversed single #
loop $-1 $-1 $82 $28 #
plane-surface $-1 -51.51030286507627 0 -11.925758014767089 -1 0 0 0 0 1 forward_v I I I I #
coedge $-1 $83 $84 $85 $86 forward $29 $-1 #
coedge $-1 $87 $31 $88 $89 reversed $19 $-1 #
coedge $-1 $31 $87 $90 $91 reversed $19 $-1 #
coedge $-1 $82 $92 $31 $51 reversed $45 $-1 #
edge $-1 $93 -40.028114060363684 $94 40.028114060363684 $50 $95 forward 7 unknown #
face $-1 $96 $97 $11 $-1 $98 reversed single #
loop $-1 $-1 $99 $32 #
plane-surface $-1 51.51030286507627 0 -11.925758014767089 1 0 0 0 0 -1 forward_v I I I I #
coedge $-1 $100 $101 $102 $103 reversed $33 $-1 #
coedge $-1 $104 $35 $105 $106 reversed $22 $-1 #
coedge $-1 $35 $104 $107 $108 reversed $22 $-1 #
coedge $-1 $109 $110 $35 $59 forward $111 $-1 #
edge $-1 $112 -40.028114060363684 $113 40.028114060363684 $58 $114 forward 7 unknown #
face $-1 $115 $116 $9 $-1 $117 reversed single #
loop $-1 $-1 $118 $36 #
plane-surface $-1 -62.302926725058754 0 0 1 0 0 0 0 -1 forward_v I I I I #
coedge $-1 $119 $71 $120 $121 forward $37 $-1 #
coedge $-1 $122 $39 $119 $123 forward $25 $-1 #
coedge $-1 $39 $122 $124 $125 forward $25 $-1 #
coedge $-1 $74 $73 $39 $67 reversed $75 $-1 #
edge $-1 $126 -40.028114060363684 $127 40.028114060363684 $66 $128 forward 7 unknown #
coedge $-1 $41 $40 $129 $130 forward $16 $-1 #
coedge $-1 $131 $132 $40 $70 reversed $116 $-1 #
edge $-1 $77 -62.302926725058754 $133 62.302926725058754 $69 $134 forward 7 unknown #
coedge $-1 $63 $135 $41 $72 reversed $37 $-1 #
edge $-1 $136 -62.302926725058754 $76 62.302926725058754 $71 $137 forward 7 unknown #
coedge $-1 $66 $42 $135 $138 forward $75 $-1 #
coedge $-1 $42 $66 $131 $139 reversed $75 $-1 #
loop $-1 $-1 $73 $115 #
vertex $-1 $43 $140 #
vertex $-1 $43 $141 #
straight-curve $-1 62.302926725058754 0 15.277309318488365 0 1 0 I I #
face $-1 $142 $143 $10 $-1 $144 reversed single #
loop $-1 $-1 $145 $44 #
plane-surface $-1 0 -40.028114060363684 0 0 1 0 0 0 1 forward_v I I I I #
coedge $-1 $85 $50 $146 $147 reversed $45 $-1 #
coedge $-1 $148 $47 $145 $149 reversed $29 $-1 #
coedge $-1 $47 $148 $150 $151 reversed $29 $-1 #
coedge $-1 $92 $82 $47 $86 reversed $45 $-1 #
edge $-1 $152 -40.028114060363684 $153 40.028114060363684 $85 $154 forward 7 unknown #
coedge $-1 $49 $48 $155 $156 reversed $19 $-1 #
coedge $-1 $157 $158 $48 $89 forward $159 $-1 #
edge $-1 $160 -33.849619327524998 $94 -23.056995467542514 $88 $161 forward 7 unknown #
coedge $-1 $162 $146 $49 $91 forward $80 $-1 #
edge $-1 $93 23.056995467542514 $163 33.849619327524998 $90 $164 forward 7 unknown #
coedge $-1 $50 $85 $157 $165 reversed $45 $-1 #
vertex $-1 $91 $166 #
vertex $-1 $89 $167 #
straight-curve $-1 -51.51030286507627 0 -9.3378889583301348 0 1 0 I I #
face $-1 $168 $169 $11 $-1 $170 reversed single #
loop $-1 $-1 $107 $52 #
plane-surface $-1 0 -40.028114060363684 0 0 1 0 0 0 1 forward_v I I I I #
coedge $-1 $171 $172 $173 $174 reversed $53 $-1 #
coedge $-1 $175 $55 $176 $177 reversed $33 $-1 #
coedge $-1 $55 $175 $178 $179 reversed $33 $-1 #
coedge $-1 $110 $109 $55 $103 forward $111 $-1 #
edge $-1 $180 -40.028114060363684 $181 40.028114060363684 $102 $182 forward 7 unknown #
coedge $-1 $57 $56 $172 $183 forward $22 $-1 #
coedge $-1 $184 $173 $56 $106 forward $169 $-1 #
edge $-1 $185 23.056995467542514 $112 33.849619327524998 $105 $186 forward 7 unknown #
coedge $-1 $187 $188 $57 $108 forward $97 $-1 #
edge $-1 $113 -33.849619327524998 $189 -23.056995467542514 $107 $190 forward 7 unknown #
coedge $-1 $102 $58 $188 $191 forward $111 $-1 #
coedge $-1 $58 $102 $184 $192 reversed $111 $-1 #
loop $-1 $-1 $58 $168 #
vertex $-1 $192 $193 #
vertex $-1 $191 $194 #
straight-curve $-1 62.302926725058754 0 -9.3378889583301348 0 -1 0 I I #
face $-1 $-1 $75 $9 $-1 $195 reversed single #
loop $-1 $-1 $131 $60 #
plane-surface $-1 0 40.028114060363684 0 0 -1 0 0 0 -1 forward_v I I I I #
coedge $-1 $196 $129 $132 $197 forward $61 $-1 #
coedge $-1 $135 $63 $64 $123 reversed $37 $-1 #
coedge $-1 $129 $196 $63 $121 reversed $61 $-1 #
edge $-1 $136 -15.277309318488365 $198 15.277309318488365 $120 $199 forward 7 unknown #
coedge $-1 $65 $64 $196 $200 forward $25 $-1 #
edge $-1 $127 -62.302926725058754 $198 62.302926725058754 $119 $201 forward 7 unknown #
coedge $-1 $132 $131 $65 $125 reversed $116 $-1 #
edge $-1 $202 -62.302926725058754 $126 62.302926725058754 $124 $203 forward 7 unknown #
vertex $-1 $67 $204 #
vertex $-1 $138 $205 #
straight-curve $-1 62.302926725058754 0 -15.277309318488365 0 -1 0 I I #
coedge $-1 $118 $120 $68 $130 reversed $61 $-1 #
edge $-1 $133 -40.028114060363684 $136 40.028114060363684 $129 $206 forward 7 unknown #
coedge $-1 $124 $69 $74 $139 forward $116 $-1 #
coedge $-1 $69 $124 $118 $197 reversed $116 $-1 #
vertex $-1 $70 $207 #
straight-curve $-1 0 40.028114060363684 15.277309318488365 -1 0 0 I I #
coedge $-1 $71 $119 $73 $138 reversed $37 $-1 #
vertex $-1 $130 $208 #
straight-curve $-1 0 -40.028114060363684 15.277309318488365 1 0 0 I I #
edge $-1 $76 -15.277309318488365 $127 15.277309318488365 $73 $209 forward 7 unknown #
edge $-1 $77 -15.277309318488365 $126 15.277309318488365 $74 $210 forward 7 unknown #
point $-1 62.302926725058754 -40.028114060363684 15.277309318488365 #
point $-1 62.302926725058754 40.028114060363684 15.277309318488365 #
face $-1 $-1 $159 $10 $-1 $211 reversed single #
loop $-1 $-1 $212 $79 #
plane-surface $-1 -62.302926725058754 0 0 1 0 0 0 0 -1 forward_v I I I I #
coedge $-1 $146 $162 $83 $149 forward $80 $-1 #
coedge $-1 $90 $145 $82 $147 forward $80 $-1 #
edge $-1 $153 -8.5507480638204996 $93 -3.3750099509465903 $146 $213 forward 7 unknown #
coedge $-1 $84 $83 $212 $214 reversed $29 $-1 #
edge $-1 $215 -33.849619327524998 $153 -23.056995467542514 $145 $216 forward 7 unknown #
coedge $-1 $158 $157 $84 $151 forward $159 $-1 #
edge $-1 $152 23.056995467542514 $217 33.849619327524998 $150 $218 forward 7 unknown #
vertex $-1 $151 $219 #
vertex $-1 $149 $220 #
straight-curve $-1 -51.51030286507627 0 -14.513627071204043 0 -1 0 I I #
coedge $-1 $221 $222 $87 $156 forward $143 $-1 #
edge $-1 $163 -40.028114060363684 $160 40.028114060363684 $155 $223 forward 7 unknown #
coedge $-1 $150 $88 $92 $165 forward $159 $-1 #
coedge $-1 $88 $150 $221 $224 reversed $159 $-1 #
loop $-1 $-1 $150 $142 #
vertex $-1 $224 $225 #
straight-curve $-1 -28.453307397533756 40.028114060363684 -9.3378889583301348 1 0 0 I I #
coedge $-1 $145 $90 $222 $226 forward $80 $-1 #
vertex $-1 $226 $227 #
straight-curve $-1 -28.453307397533756 -40.028114060363684 -9.3378889583301348 -1 0 0 I I #
edge $-1 $94 3.3750099509465903 $152 8.5507480638204996 $157 $228 forward 7 unknown #
point $-1 -51.51030286507627 -40.028114060363684 -9.3378889583301348 #
point $-1 -51.51030286507627 40.028114060363684 -9.3378889583301348 #
face $-1 $-1 $111 $11 $-1 $229 reversed single #
loop $-1 $-1 $105 $96 #
plane-surface $-1 0 40.028114060363684 0 0 -1 0 0 0 -1 forward_v I I I I #
coedge $-1 $230 $99 $175 $231 reversed $53 $-1 #
coedge $-1 $99 $230 $104 $183 reversed $53 $-1 #
coedge $-1 $105 $178 $99 $174 forward $169 $-1 #
edge $-1 $232 -8.5507480638204996 $185 -3.3750099509465903 $173 $233 forward 7 unknown #
coedge $-1 $101 $100 $171 $231 forward $33 $-1 #
coedge $-1 $188 $187 $100 $177 forward $97 $-1 #
edge $-1 $234 23.056995467542514 $180 33.849619327524998 $176 $235 forward 7 unknown #
coedge $-1 $173 $184 $101 $179 forward $169 $-1 #
edge $-1 $181 -33.849619327524998 $232 -23.056995467542514 $178 $236 forward 7 unknown #
vertex $-1 $103 $237 #
vertex $-1 $103 $238 #
straight-curve $-1 62.302926725058754 0 -14.513627071204043 0 1 0 I I #
edge $-1 $185 -40.028114060363684 $189 40.028114060363684 $172 $239 forward 7 unknown #
coedge $-1 $178 $105 $110 $192 forward $169 $-1 #
vertex $-1 $106 $240 #
straight-curve $-1 28.453307397533756 40.028114060363684 -9.3378889583301348 1 0 0 I I #
coedge $-1 $176 $107 $230 $241 forward $97 $-1 #
coedge $-1 $107 $176 $109 $191 reversed $97 $-1 #
vertex $-1 $108 $242 #
straight-curve $-1 28.453307397533756 -40.028114060363684 -9.3378889583301348 -1 0 0 I I #
edge $-1 $113 9.3378889583301348 $180 14.513627071204043 $109 $243 forward 7 unknown #
edge $-1 $112 9.3378889583301348 $181 14.513627071204043 $110 $244 forward 7 unknown #
point $-1 62.302926725058754 40.028114060363684 -9.3378889583301348 #
point $-1 62.302926725058754 -40.028114060363684 -9.3378889583301348 #
plane-surface $-1 62.302926725058754 0 0 -1 0 0 0 0 1 forward_v I I I I #
coedge $-1 $120 $118 $122 $200 reversed $61 $-1 #
edge $-1 $133 -15.277309318488365 $202 15.277309318488365 $132 $245 forward 7 unknown #
vertex $-1 $200 $246 #
straight-curve $-1 -62.302926725058754 -40.028114060363684 0 0 0 -1 I I #
edge $-1 $198 -40.028114060363684 $202 40.028114060363684 $196 $247 forward 7 unknown #
straight-curve $-1 0 -40.028114060363684 -15.277309318488365 -1 0 0 I I #
vertex $-1 $125 $248 #
straight-curve $-1 0 40.028114060363684 -15.277309318488365 1 0 0 I I #
point $-1 62.302926725058754 40.028114060363684 -15.277309318488365 #
point $-1 62.302926725058754 -40.028114060363684 -15.277309318488365 #
straight-curve $-1 -62.302926725058754 0 15.277309318488365 0 -1 0 I I #
point $-1 -62.302926725058754 40.028114060363684 15.277309318488365 #
point $-1 -62.302926725058754 -40.028114060363684 15.277309318488365 #
straight-curve $-1 62.302926725058754 -40.028114060363684 0 0 0 -1 I I #
straight-curve $-1 62.302926725058754 40.028114060363684 0 0 0 -1 I I #
plane-surface $-1 0 40.028114060363684 0 0 -1 0 0 0 -1 forward_v I I I I #
coedge $-1 $222 $221 $148 $214 forward $143 $-1 #
straight-curve $-1 -51.51030286507627 -40.028114060363684 -5.9628790073835445 0 0 1 I I #
edge $-1 $217 -40.028114060363684 $215 40.028114060363684 $212 $249 forward 7 unknown #
vertex $-1 $149 $250 #
straight-curve $-1 -28.453307397533756 -40.028114060363684 -14.513627071204043 1 0 0 I I #
vertex $-1 $151 $251 #
straight-curve $-1 -28.453307397533756 40.028114060363684 -14.513627071204043 -1 0 0 I I #
point $-1 -51.51030286507627 40.028114060363684 -14.513627071204043 #
point $-1 -51.51030286507627 -40.028114060363684 -14.513627071204043 #
coedge $-1 $212 $155 $158 $224 forward $143 $-1 #
coedge $-1 $155 $212 $162 $226 reversed $143 $-1 #
straight-curve $-1 -62.302926725058754 0 -9.3378889583301348 0 1 0 I I #
edge $-1 $160 9.3378889583301348 $217 14.513627071204043 $158 $252 forward 7 unknown #
point $-1 -62.302926725058754 40.028114060363684 -9.3378889583301348 #
edge $-1 $163 9.3378889583301348 $215 14.513627071204043 $222 $253 forward 7 unknown #
point $-1 -62.302926725058754 -40.028114060363684 -9.3378889583301348 #
straight-curve $-1 -51.51030286507627 40.028114060363684 -5.9628790073835445 0 0 -1 I I #
plane-surface $-1 62.302926725058754 0 0 -1 0 0 0 0 1 forward_v I I I I #
coedge $-1 $172 $171 $187 $241 reversed $53 $-1 #
edge $-1 $234 -40.028114060363684 $232 40.028114060363684 $171 $254 forward 7 unknown #
vertex $-1 $179 $255 #
straight-curve $-1 51.51030286507627 40.028114060363684 -5.9628790073835445 0 0 1 I I #
vertex $-1 $177 $256 #
straight-curve $-1 28.453307397533756 -40.028114060363684 -14.513627071204043 1 0 0 I I #
straight-curve $-1 28.453307397533756 40.028114060363684 -14.513627071204043 -1 0 0 I I #
point $-1 62.302926725058754 -40.028114060363684 -14.513627071204043 #
point $-1 62.302926725058754 40.028114060363684 -14.513627071204043 #
straight-curve $-1 51.51030286507627 0 -9.3378889583301348 0 -1 0 I I #
point $-1 51.51030286507627 40.028114060363684 -9.3378889583301348 #
edge $-1 $189 3.3750099509465903 $234 8.5507480638204996 $187 $257 forward 7 unknown #
point $-1 51.51030286507627 -40.028114060363684 -9.3378889583301348 #
straight-curve $-1 62.302926725058754 -40.028114060363684 0 0 0 -1 I I #
straight-curve $-1 62.302926725058754 40.028114060363684 0 0 0 -1 I I #
straight-curve $-1 -62.302926725058754 40.028114060363684 0 0 0 -1 I I #
point $-1 -62.302926725058754 -40.028114060363684 -15.277309318488365 #
straight-curve $-1 -62.302926725058754 0 -15.277309318488365 0 1 0 I I #
point $-1 -62.302926725058754 40.028114060363684 -15.277309318488365 #
straight-curve $-1 -62.302926725058754 0 -14.513627071204043 0 -1 0 I I #
point $-1 -62.302926725058754 -40.028114060363684 -14.513627071204043 #
point $-1 -62.302926725058754 40.028114060363684 -14.513627071204043 #
straight-curve $-1 -62.302926725058754 40.028114060363684 0 0 0 -1 I I #
straight-curve $-1 -62.302926725058754 -40.028114060363684 0 0 0 -1 I I #
straight-curve $-1 51.51030286507627 0 -14.513627071204043 0 1 0 I I #
point $-1 51.51030286507627 40.028114060363684 -14.513627071204043 #
point $-1 51.51030286507627 -40.028114060363684 -14.513627071204043 #
straight-curve $-1 51.51030286507627 -40.028114060363684 -5.9628790073835445 0 0 -1 I I #
End-of-ACIS-data 