500 0 8 0           
7 Unknown 11 ACIS 5.0 NT 24 Thu Mar 25 18:24:53 1999 
-1 9.9999999999999995e-007 1e-010 
body $-1 $8 $-1 $9 #
body $-1 $10 $-1 $11 #
body $-1 $12 $-1 $13 #
body $-1 $14 $-1 $15 #
body $-1 $16 $-1 $17 #
body $-1 $18 $-1 $19 #
body $-1 $20 $-1 $21 #
body $-1 $22 $-1 $23 #
lump $-1 $-1 $24 $0 #
transform $-1 1 0 0 0 1 0 0 0 1 49.752494888149663 25.101118335304879 11.858357546271737 1 rotate no_reflect no_shear #
lump $-1 $-1 $25 $1 #
transform $-1 1 0 0 0 1 0 0 0 1 49.752494888149663 25.101118335304879 11.858357546271737 1 rotate no_reflect no_shear #
lump $-1 $-1 $26 $2 #
transform $-1 1 0 0 0 1 0 0 0 1 49.752494888149663 25.101118335304879 11.858357546271737 1 rotate no_reflect no_shear #
lump $-1 $-1 $27 $3 #
transform $-1 1 0 0 0 1 0 0 0 1 49.752494888149663 25.101118335304879 11.858357546271737 1 rotate no_reflect no_shear #
lump $-1 $-1 $28 $4 #
transform $-1 1 0 0 0 1 0 0 0 1 49.752494888149663 25.101118335304879 11.858357546271737 1 rotate no_reflect no_shear #
lump $-1 $-1 $29 $5 #
transform $-1 1 0 0 0 1 0 0 0 1 49.752494888149663 25.101118335304879 11.858357546271737 1 rotate no_reflect no_shear #
lump $-1 $-1 $30 $6 #
transform $-1 1 0 0 0 1 0 0 0 1 49.752494888149663 25.101118335304879 11.858357546271737 1 rotate no_reflect no_shear #
lump $-1 $-1 $31 $7 #
transform $-1 1 0 0 0 1 0 0 0 1 49.752494888149663 25.101118335304879 11.858357546271737 1 rotate no_reflect no_shear #
shell $-1 $-1 $-1 $32 $-1 $8 #
shell $-1 $-1 $-1 $33 $-1 $10 #
shell $-1 $-1 $-1 $34 $-1 $12 #
shell $-1 $-1 $-1 $35 $-1 $14 #
shell $-1 $-1 $-1 $36 $-1 $16 #
shell $-1 $-1 $-1 $37 $-1 $18 #
shell $-1 $-1 $-1 $38 $-1 $20 #
shell $-1 $-1 $-1 $39 $-1 $22 #
face $-1 $40 $41 $24 $-1 $42 forward single #
face $-1 $43 $44 $25 $-1 $45 reversed single #
face $-1 $46 $47 $26 $-1 $48 reversed single #
face $-1 $49 $50 $27 $-1 $51 forward single #
face $-1 $52 $53 $28 $-1 $54 forward single #
face $-1 $55 $56 $29 $-1 $57 reversed single #
face $-1 $58 $59 $30 $-1 $60 forward single #
face $-1 $61 $62 $31 $-1 $63 forward single #
face $-1 $64 $65 $24 $-1 $66 reversed single #
loop $-1 $-1 $67 $32 #
plane-surface $-1 0 0 11.858357546271737 0 0 1 1 0 0 forward_v I I I I #
face $-1 $68 $69 $25 $-1 $70 reversed single #
loop $-1 $-1 $71 $33 #
plane-surface $-1 -43.303328204213003 -19.886654681591967 0 0 -1 0 0 0 -1 forward_v I I I I #
face $-1 $72 $73 $26 $-1 $74 reversed single #
loop $-1 $-1 $75 $34 #
plane-surface $-1 40.964299379705331 -25.101118335304875 5.0054167293075835 0 -0.73135370988377701 0.68199835119979291 1 0 0 forward_v I I I I #
face $-1 $76 $77 $27 $-1 $78 forward single #
loop $-1 $79 $80 $35 #
cone-surface $-1 37.197929876086313 -21.141518333577064 7.7191055119103194 0 0.73135370988377701 -0.68199835119979291 2 0 0 1 I I 0 1 2 forward I I I I #
face $-1 $81 $82 $28 $-1 $83 forward single #
loop $-1 $84 $85 $36 #
cone-surface $-1 44.73066888332432 -21.141518333577064 7.7191055119103194 0 0.73135370988377701 -0.68199835119979291 2 0 0 1 I I 0 1 2 forward I I I I #
face $-1 $86 $87 $29 $-1 $88 reversed single #
loop $-1 $-1 $89 $37 #
plane-surface $-1 -36.854161520276335 86.1738503918437 94.31758098622312 1 0 0 0 -0.86602541151947299 -0.49999998660252726 forward_v I I I I #
face $-1 $90 $91 $30 $-1 $92 forward single #
loop $-1 $93 $94 $38 #
cone-surface $-1 -31.035929899623866 20.92499616300811 5.8573779814973674 0 -0.86602541151947299 -0.49999998660252726 2 0 0 1 I I 0 1 2 forward I I I I #
face $-1 $95 $96 $31 $-1 $97 forward single #
loop $-1 $98 $99 $39 #
cone-surface $-1 -22.308582468645163 20.92499616300811 5.8573779814973674 0 -0.86602541151947299 -0.49999998660252726 2 0 0 1 I I 0 1 2 forward I I I I #
face $-1 $100 $101 $24 $-1 $102 reversed single #
loop $-1 $-1 $103 $40 #
plane-surface $-1 0 0 -11.858357546271737 0 0 1 1 0 0 forward_v I I I I #
coedge $-1 $104 $105 $106 $107 forward $41 $-1 #
face $-1 $108 $109 $25 $-1 $110 forward single #
loop $-1 $-1 $111 $43 #
plane-surface $-1 -36.854161520276342 -22.493886508448423 0 -1 0 0 0 0 1 forward_v I I I I #
coedge $-1 $112 $113 $114 $115 forward $44 $-1 #
face $-1 $116 $117 $26 $-1 $118 reversed single #
loop $-1 $-1 $119 $46 #
plane-surface $-1 32.176103871260977 -97.874461760148691 72.86765569289598 1 0 0 0 0.73135370988377701 -0.68199835119979291 forward_v I I I I #
coedge $-1 $120 $121 $122 $123 reversed $47 $-1 #
face $-1 $-1 $124 $27 $-1 $125 forward single #
loop $-1 $126 $127 $49 #
cone-surface $-1 37.197929876086313 -19.645799892449052 6.3243255348311926 0 0.73135370988377701 -0.68199835119979291 1 0 0 1 I I -0.70710678118654746 0.70710678118654746 1 forward I I I I #
loop $-1 $-1 $128 $35 #
coedge $-1 $80 $80 $129 $130 reversed $50 $-1 #
face $-1 $-1 $131 $28 $-1 $132 forward single #
loop $-1 $133 $134 $52 #
cone-surface $-1 44.73066888332432 -19.645799892449052 6.3243255348311926 0 0.73135370988377701 -0.68199835119979291 1 0 0 1 I I -0.70710678118654746 0.70710678118654746 1 forward I I I I #
loop $-1 $-1 $135 $36 #
coedge $-1 $85 $85 $136 $137 reversed $53 $-1 #
face $-1 $138 $139 $29 $-1 $140 reversed single #
loop $-1 $-1 $141 $55 #
plane-surface $-1 -26.672256184134515 6.7258312697049405e-007 44.565087431188843 0 0.86602541151947299 0.49999998660252726 1 0 0 forward_v I I I I #
coedge $-1 $142 $143 $144 $145 reversed $56 $-1 #
face $-1 $-1 $146 $30 $-1 $147 forward single #
loop $-1 $148 $149 $58 #
cone-surface $-1 -31.035929899623866 18.991788096185029 4.7412398235933217 0 -0.86602541151947299 -0.49999998660252726 1 0 0 1 I I -0.70710678118654746 0.70710678118654746 1 forward I I I I #
loop $-1 $-1 $150 $38 #
coedge $-1 $94 $94 $151 $152 reversed $59 $-1 #
face $-1 $-1 $153 $31 $-1 $154 forward single #
loop $-1 $155 $156 $61 #
cone-surface $-1 -22.308582468645163 18.991788096185029 4.7412398235933217 0 -0.86602541151947299 -0.49999998660252726 1 0 0 1 I I -0.70710678118654746 0.70710678118654746 1 forward I I I I #
loop $-1 $-1 $157 $39 #
coedge $-1 $99 $99 $158 $159 reversed $62 $-1 #
face $-1 $160 $161 $24 $-1 $162 reversed single #
loop $-1 $-1 $163 $64 #
plane-surface $-1 0 -25.101118335304879 0 0 1 0 0 0 1 forward_v I I I I #
coedge $-1 $164 $165 $166 $167 forward $65 $-1 #
coedge $-1 $168 $67 $169 $170 forward $41 $-1 #
coedge $-1 $67 $168 $171 $172 forward $41 $-1 #
coedge $-1 $173 $174 $67 $107 reversed $175 $-1 #
edge $-1 $176 -25.101118335304879 $177 25.101118335304879 $106 $178 forward 7 unknown #
face $-1 $179 $180 $25 $-1 $181 reversed single #
loop $-1 $-1 $182 $68 #
plane-surface $-1 0 0 11.858357546271737 0 0 1 1 0 0 forward_v I I I I #
coedge $-1 $183 $184 $185 $186 reversed $69 $-1 #
coedge $-1 $187 $71 $188 $189 reversed $44 $-1 #
coedge $-1 $71 $187 $190 $191 reversed $44 $-1 #
coedge $-1 $184 $183 $71 $115 reversed $69 $-1 #
edge $-1 $192 -11.858357546271737 $193 11.858357546271737 $114 $194 forward 7 unknown #
face $-1 $195 $196 $26 $-1 $197 forward single #
loop $-1 $-1 $198 $72 #
plane-surface $-1 49.752494888149663 0 0 -1 0 0 0 0 1 forward_v I I I I #
coedge $-1 $199 $200 $201 $202 reversed $73 $-1 #
coedge $-1 $203 $75 $198 $204 reversed $47 $-1 #
coedge $-1 $75 $203 $199 $205 forward $47 $-1 #
coedge $-1 $201 $206 $75 $123 forward $196 $-1 #
edge $-1 $207 -29.270345198297019 $208 -11.693954181408312 $122 $209 forward 7 unknown #
loop $-1 $-1 $129 $76 #
plane-surface $-1 40.964299379705331 -25.101118335304875 5.0054167293075835 0 -0.73135370988377701 0.68199835119979291 1 0 0 forward_v I I I I #
loop $-1 $-1 $210 $49 #
coedge $-1 $127 $127 $128 $211 reversed $77 $-1 #
coedge $-1 $128 $128 $127 $211 forward $79 $-1 #
coedge $-1 $129 $129 $80 $130 forward $124 $-1 #
edge $-1 $212 -7.3724531124574445e-016 $212 6.2831853071795996 $129 $213 forward 7 unknown #
loop $-1 $-1 $136 $81 #
plane-surface $-1 40.964299379705331 -25.101118335304875 5.0054167293075835 0 -0.73135370988377701 0.68199835119979291 1 0 0 forward_v I I I I #
loop $-1 $-1 $214 $52 #
coedge $-1 $134 $134 $135 $215 reversed $82 $-1 #
coedge $-1 $135 $135 $134 $215 forward $84 $-1 #
coedge $-1 $136 $136 $85 $137 forward $131 $-1 #
edge $-1 $216 -7.3724531124574445e-016 $216 6.2831853071795996 $136 $217 forward 7 unknown #
face $-1 $218 $219 $29 $-1 $220 reversed single #
loop $-1 $-1 $221 $86 #
plane-surface $-1 -16.490350847992694 86.1738503918437 94.31758098622312 -1 0 0 0 0.86602541151947299 0.49999998660252726 forward_v I I I I #
coedge $-1 $222 $223 $224 $225 reversed $87 $-1 #
coedge $-1 $143 $89 $226 $227 reversed $56 $-1 #
coedge $-1 $89 $142 $222 $228 reversed $56 $-1 #
coedge $-1 $224 $229 $89 $145 forward $230 $-1 #
edge $-1 $231 17.985806860616972 $232 24.203685894603268 $144 $233 forward 7 unknown #
loop $-1 $-1 $151 $90 #
plane-surface $-1 -26.672256184134515 6.7258312697049405e-007 44.565087431188843 0 0.86602541151947299 0.49999998660252726 1 0 0 forward_v I I I I #
loop $-1 $-1 $234 $58 #
coedge $-1 $149 $149 $150 $235 reversed $91 $-1 #
coedge $-1 $150 $150 $149 $235 forward $93 $-1 #
coedge $-1 $151 $151 $94 $152 forward $146 $-1 #
edge $-1 $236 -9.5194651582333438e-016 $236 6.2831853071795996 $151 $237 forward 7 unknown #
loop $-1 $-1 $158 $95 #
plane-surface $-1 -26.672256184134515 6.7258312697049405e-007 44.565087431188843 0 0.86602541151947299 0.49999998660252726 1 0 0 forward_v I I I I #
loop $-1 $-1 $238 $61 #
coedge $-1 $156 $156 $157 $239 reversed $96 $-1 #
coedge $-1 $157 $157 $156 $239 forward $98 $-1 #
coedge $-1 $158 $158 $99 $159 forward $153 $-1 #
edge $-1 $240 -9.5194651582333438e-016 $240 6.2831853071795996 $158 $241 forward 7 unknown #
face $-1 $242 $243 $24 $-1 $244 reversed single #
loop $-1 $-1 $245 $100 #
plane-surface $-1 -49.752494888149663 0 0 1 0 0 0 0 -1 forward_v I I I I #
coedge $-1 $246 $171 $247 $248 forward $101 $-1 #
coedge $-1 $249 $103 $246 $250 forward $65 $-1 #
coedge $-1 $103 $249 $251 $252 forward $65 $-1 #
coedge $-1 $174 $173 $103 $167 reversed $175 $-1 #
edge $-1 $253 -25.101118335304879 $254 25.101118335304879 $166 $255 forward 7 unknown #
coedge $-1 $105 $104 $256 $257 forward $41 $-1 #
coedge $-1 $258 $259 $104 $170 reversed $243 $-1 #
edge $-1 $177 -49.752494888149663 $260 49.752494888149663 $169 $261 forward 7 unknown #
coedge $-1 $163 $262 $105 $172 reversed $101 $-1 #
edge $-1 $263 -49.752494888149663 $176 49.752494888149663 $171 $264 forward 7 unknown #
coedge $-1 $166 $106 $262 $265 forward $175 $-1 #
coedge $-1 $106 $166 $258 $266 reversed $175 $-1 #
loop $-1 $-1 $173 $242 #
vertex $-1 $107 $267 #
vertex $-1 $107 $268 #
straight-curve $-1 49.752494888149663 0 11.858357546271737 0 1 0 I I #
face $-1 $269 $270 $25 $-1 $271 reversed single #
loop $-1 $-1 $272 $108 #
plane-surface $-1 -49.752494888149663 0 0 1 0 0 0 0 -1 forward_v I I I I #
coedge $-1 $190 $273 $184 $274 forward $109 $-1 #
coedge $-1 $114 $111 $275 $276 reversed $69 $-1 #
coedge $-1 $111 $114 $182 $274 reversed $69 $-1 #
coedge $-1 $277 $278 $111 $186 forward $279 $-1 #
edge $-1 $280 -11.858357546271737 $281 11.858357546271737 $185 $282 forward 7 unknown #
coedge $-1 $113 $112 $272 $283 reversed $44 $-1 #
coedge $-1 $275 $284 $112 $189 forward $270 $-1 #
edge $-1 $285 -28.100830786043161 $193 -15.202497418169841 $188 $286 forward 7 unknown #
coedge $-1 $287 $182 $113 $191 forward $109 $-1 #
edge $-1 $192 15.202497418169841 $288 28.100830786043161 $190 $289 forward 7 unknown #
vertex $-1 $191 $290 #
vertex $-1 $189 $291 #
straight-curve $-1 -36.854161520276342 -19.886654681591967 0 0 0 -1 I I #
face $-1 $-1 $292 $26 $-1 $293 reversed single #
loop $-1 $-1 $122 $116 #
plane-surface $-1 0 0 11.858357546271737 0 0 1 1 0 0 forward_v I I I I #
coedge $-1 $294 $295 $120 $204 forward $117 $-1 #
coedge $-1 $200 $119 $121 $205 reversed $73 $-1 #
coedge $-1 $119 $199 $296 $297 reversed $73 $-1 #
coedge $-1 $298 $122 $119 $202 forward $196 $-1 #
edge $-1 $208 -30.226583085736621 $299 -23.836112544769467 $201 $300 forward 7 unknown #
coedge $-1 $121 $120 $301 $302 reversed $47 $-1 #
edge $-1 $303 -6.7290956117277005 $207 2.6411184507034449 $198 $304 forward 7 unknown #
edge $-1 $305 -5.02123520037248e-015 $208 9.3702140624311419 $199 $306 forward 7 unknown #
coedge $-1 $122 $298 $294 $307 forward $196 $-1 #
vertex $-1 $204 $308 #
vertex $-1 $123 $309 #
straight-curve $-1 20.482149689852665 -18.710647794337721 11.858357546271737 -1 0 0 I I #
coedge $-1 $210 $210 $-1 $310 reversed $126 $-1 #
edge $-1 $311 0 $311 6.2831853071796004 $127 $312 forward 7 unknown #
vertex $-1 $130 $313 #
ellipse-curve $-1 37.197929876086313 -21.905883064821303 8.4318871377896567 0 -0.73135370988377701 0.68199835119979291 2 0 0 1 I I #
coedge $-1 $214 $214 $-1 $314 reversed $133 $-1 #
edge $-1 $315 0 $315 6.2831853071796004 $134 $316 forward 7 unknown #
vertex $-1 $137 $317 #
ellipse-curve $-1 44.73066888332432 -21.905883064821303 8.4318871377896567 0 -0.73135370988377701 0.68199835119979291 2 0 0 1 I I #
face $-1 $-1 $230 $29 $-1 $318 forward single #
loop $-1 $-1 $319 $138 #
plane-surface $-1 0 25.101118335304879 0 0 -1 0 0 0 -1 forward_v I I I I #
coedge $-1 $320 $321 $322 $323 reversed $139 $-1 #
coedge $-1 $324 $141 $143 $228 forward $87 $-1 #
coedge $-1 $141 $324 $320 $325 forward $87 $-1 #
coedge $-1 $322 $144 $141 $225 forward $230 $-1 #
edge $-1 $232 -23.51803342820908 $326 -3.1542227559254368 $224 $327 forward 7 unknown #
coedge $-1 $328 $329 $142 $227 forward $219 $-1 #
edge $-1 $330 -46.070115733785464 $231 -35.30043294683982 $226 $331 forward 7 unknown #
edge $-1 $232 37.76647826942164 $330 50.202236670609707 $143 $332 forward 7 unknown #
coedge $-1 $144 $322 $328 $333 forward $230 $-1 #
loop $-1 $-1 $322 $218 #
vertex $-1 $227 $334 #
vertex $-1 $145 $335 #
straight-curve $-1 -36.854161520276335 43.08692519592185 11.858357546271733 0 -1 0 I I #
coedge $-1 $234 $234 $-1 $336 reversed $148 $-1 #
edge $-1 $337 0 $337 6.2831853071796004 $149 $338 forward 7 unknown #
vertex $-1 $152 $339 #
ellipse-curve $-1 -31.035929899623866 21.992178818311743 6.4735161527988998 0 0.86602541151947299 0.49999998660252726 2 0 0 1 I I #
coedge $-1 $238 $238 $-1 $340 reversed $155 $-1 #
edge $-1 $341 0 $341 6.2831853071796004 $156 $342 forward 7 unknown #
vertex $-1 $159 $343 #
ellipse-curve $-1 -22.308582468645163 21.992178818311743 6.4735161527988998 0 0.86602541151947299 0.49999998660252726 2 0 0 1 I I #
face $-1 $-1 $175 $24 $-1 $344 reversed single #
loop $-1 $-1 $258 $160 #
plane-surface $-1 0 25.101118335304879 0 0 -1 0 0 0 -1 forward_v I I I I #
coedge $-1 $345 $256 $259 $346 forward $161 $-1 #
coedge $-1 $262 $163 $164 $250 reversed $101 $-1 #
coedge $-1 $256 $345 $163 $248 reversed $161 $-1 #
edge $-1 $263 -11.858357546271737 $347 11.858357546271737 $247 $348 forward 7 unknown #
coedge $-1 $165 $164 $345 $349 forward $65 $-1 #
edge $-1 $254 -49.752494888149663 $347 49.752494888149663 $246 $350 forward 7 unknown #
coedge $-1 $259 $258 $165 $252 reversed $243 $-1 #
edge $-1 $351 -49.752494888149663 $253 49.752494888149663 $251 $352 forward 7 unknown #
vertex $-1 $167 $353 #
vertex $-1 $265 $354 #
straight-curve $-1 49.752494888149663 0 -11.858357546271737 0 -1 0 I I #
coedge $-1 $245 $247 $168 $257 reversed $161 $-1 #
edge $-1 $260 -25.101118335304879 $263 25.101118335304879 $256 $355 forward 7 unknown #
coedge $-1 $251 $169 $174 $266 forward $243 $-1 #
coedge $-1 $169 $251 $245 $346 reversed $243 $-1 #
vertex $-1 $170 $356 #
straight-curve $-1 0 25.101118335304879 11.858357546271737 -1 0 0 I I #
coedge $-1 $171 $246 $173 $265 reversed $101 $-1 #
vertex $-1 $257 $357 #
straight-curve $-1 0 -25.101118335304879 11.858357546271737 1 0 0 I I #
edge $-1 $176 -11.858357546271737 $254 11.858357546271737 $173 $358 forward 7 unknown #
edge $-1 $177 -11.858357546271737 $253 11.858357546271737 $174 $359 forward 7 unknown #
point $-1 49.752494888149663 -25.101118335304879 11.858357546271737 #
point $-1 49.752494888149663 25.101118335304879 11.858357546271737 #
face $-1 $-1 $279 $25 $-1 $360 reversed single #
loop $-1 $-1 $275 $179 #
plane-surface $-1 0 0 -11.858357546271737 0 0 1 1 0 0 forward_v I I I I #
coedge $-1 $361 $362 $187 $283 forward $180 $-1 #
coedge $-1 $182 $287 $277 $363 forward $109 $-1 #
edge $-1 $281 -13.854175081080667 $192 -8.6397114273677555 $182 $364 forward 7 unknown #
coedge $-1 $365 $188 $183 $276 forward $270 $-1 #
edge $-1 $193 8.6397114273677555 $280 13.854175081080667 $275 $366 forward 7 unknown #
coedge $-1 $367 $185 $273 $363 reversed $279 $-1 #
coedge $-1 $185 $367 $365 $368 reversed $279 $-1 #
loop $-1 $-1 $185 $269 #
vertex $-1 $368 $369 #
vertex $-1 $186 $370 #
straight-curve $-1 -36.854161520276342 -25.101118335304879 0 0 0 1 I I #
edge $-1 $288 -11.858357546271737 $285 11.858357546271737 $272 $371 forward 7 unknown #
coedge $-1 $188 $365 $361 $372 forward $270 $-1 #
vertex $-1 $189 $373 #
straight-curve $-1 -21.651664102106501 -19.886654681591967 -11.858357546271737 1 0 0 I I #
coedge $-1 $273 $190 $362 $374 forward $109 $-1 #
vertex $-1 $374 $375 #
straight-curve $-1 -21.651664102106501 -19.886654681591967 11.858357546271737 -1 0 0 I I #
point $-1 -36.854161520276342 -19.886654681591967 11.858357546271737 #
point $-1 -36.854161520276342 -19.886654681591967 -11.858357546271737 #
loop $-1 $-1 $301 $195 #
plane-surface $-1 0 -25.101118335304879 0 0 1 0 0 0 1 forward_v I I I I #
coedge $-1 $295 $198 $206 $307 reversed $117 $-1 #
coedge $-1 $198 $294 $376 $377 forward $117 $-1 #
coedge $-1 $301 $378 $200 $297 forward $292 $-1 #
edge $-1 $299 24.575470300176253 $305 31.42841111714041 $296 $379 forward 7 unknown #
coedge $-1 $206 $201 $378 $380 forward $196 $-1 #
vertex $-1 $380 $381 #
straight-curve $-1 32.176103871260977 -48.937230880074345 11.858357546271737 0 -1 0 I I #
coedge $-1 $376 $296 $203 $302 forward $292 $-1 #
edge $-1 $305 11.693954181408312 $303 29.270345198297019 $301 $382 forward 7 unknown #
vertex $-1 $204 $383 #
straight-curve $-1 49.752494888149663 -20.511886223040825 9.9267657691072788 0 0.68199835119979291 0.73135370988377701 I I #
vertex $-1 $302 $384 #
straight-curve $-1 32.176103871260977 -25.101118335304875 5.0054167293075835 0 0.68199835119979291 0.73135370988377701 I I #
edge $-1 $385 -25.101118335304879 $207 -18.710647794337724 $294 $386 forward 7 unknown #
point $-1 49.752494888149684 -18.710647794337724 11.858357546271737 #
point $-1 32.176103871260977 -18.710647794337724 11.858357546271737 #
edge $-1 $387 1 $387 0 $210 $-1 forward 7 unknown #
vertex $-1 $211 $388 #
ellipse-curve $-1 37.197929876086313 -20.377153602332829 7.0063238860309855 0 -0.73135370988377701 0.68199835119979291 2 0 0 1 I I #
point $-1 39.197929876086313 -21.9058830648213 8.4318871377896514 #
edge $-1 $389 1 $389 0 $214 $-1 forward 7 unknown #
vertex $-1 $215 $390 #
ellipse-curve $-1 44.73066888332432 -20.377153602332829 7.0063238860309855 0 -0.73135370988377701 0.68199835119979291 2 0 0 1 I I #
point $-1 46.73066888332432 -21.9058830648213 8.4318871377896514 #
plane-surface $-1 0 0 11.858357546271737 0 0 1 1 0 0 forward_v I I I I #
coedge $-1 $329 $328 $321 $391 forward $219 $-1 #
coedge $-1 $321 $221 $223 $325 reversed $139 $-1 #
coedge $-1 $221 $320 $319 $391 reversed $139 $-1 #
coedge $-1 $229 $224 $221 $323 forward $230 $-1 #
edge $-1 $326 -24.203685894603268 $392 -17.985806860616972 $322 $393 forward 7 unknown #
coedge $-1 $223 $222 $329 $394 reversed $87 $-1 #
edge $-1 $395 -50.202236670609707 $326 -37.76647826942164 $320 $396 forward 7 unknown #
vertex $-1 $225 $397 #
straight-curve $-1 -13.336128092067257 18.883239301318579 11.858357546271737 1 0 0 I I #
coedge $-1 $319 $226 $229 $333 reversed $219 $-1 #
coedge $-1 $226 $319 $324 $394 forward $219 $-1 #
vertex $-1 $227 $398 #
straight-curve $-1 -36.854161520276335 25.101118335304879 47.15879049311156 0 0 1 I I #
straight-curve $-1 -36.854161520276335 6.7258312697049405e-007 44.565087431188843 0 0.49999998660252726 -0.86602541151947299 I I #
edge $-1 $392 16.490350847992694 $231 36.854161520276335 $328 $399 forward 7 unknown #
point $-1 -36.854161520276335 25.101118335304879 11.858357546271737 #
point $-1 -36.854161520276335 18.883239301318582 11.858357546271733 #
edge $-1 $400 1 $400 0 $234 $-1 forward 7 unknown #
vertex $-1 $235 $401 #
ellipse-curve $-1 -31.035929899623866 19.857813507704503 5.2412398101958493 0 0.86602541151947299 0.49999998660252726 2 0 0 1 I I #
point $-1 -29.035929899623866 21.992178818311714 6.4735161527988856 #
edge $-1 $402 1 $402 0 $238 $-1 forward 7 unknown #
vertex $-1 $239 $403 #
ellipse-curve $-1 -22.308582468645163 19.857813507704503 5.2412398101958493 0 0.86602541151947299 0.49999998660252726 2 0 0 1 I I #
point $-1 -20.308582468645163 21.992178818311714 6.4735161527988856 #
plane-surface $-1 49.752494888149663 0 0 -1 0 0 0 0 1 forward_v I I I I #
coedge $-1 $247 $245 $249 $349 reversed $161 $-1 #
edge $-1 $260 -11.858357546271737 $351 11.858357546271737 $259 $404 forward 7 unknown #
vertex $-1 $349 $405 #
straight-curve $-1 -49.752494888149663 -25.101118335304879 0 0 0 -1 I I #
edge $-1 $347 -25.101118335304879 $351 25.101118335304879 $345 $406 forward 7 unknown #
straight-curve $-1 0 -25.101118335304879 -11.858357546271737 -1 0 0 I I #
vertex $-1 $252 $407 #
straight-curve $-1 0 25.101118335304879 -11.858357546271737 1 0 0 I I #
point $-1 49.752494888149663 25.101118335304879 -11.858357546271737 #
point $-1 49.752494888149663 -25.101118335304879 -11.858357546271737 #
straight-curve $-1 -49.752494888149663 0 11.858357546271737 0 -1 0 I I #
point $-1 -49.752494888149663 25.101118335304879 11.858357546271737 #
point $-1 -49.752494888149663 -25.101118335304879 11.858357546271737 #
straight-curve $-1 49.752494888149663 -25.101118335304879 0 0 0 -1 I I #
straight-curve $-1 49.752494888149663 25.101118335304879 0 0 0 -1 I I #
plane-surface $-1 0 -25.101118335304879 0 0 1 0 0 0 1 forward_v I I I I #
coedge $-1 $408 $272 $284 $372 reversed $180 $-1 #
coedge $-1 $272 $408 $287 $374 reversed $180 $-1 #
edge $-1 $409 -49.752494888149663 $281 -36.854161520276342 $277 $410 forward 7 unknown #
straight-curve $-1 -36.854161520276342 -11.246943254224211 11.858357546271737 0 1 0 I I #
coedge $-1 $284 $275 $278 $368 forward $270 $-1 #
straight-curve $-1 -36.854161520276342 -11.246943254224211 -11.858357546271737 0 -1 0 I I #
coedge $-1 $278 $277 $408 $411 forward $279 $-1 #
edge $-1 $280 36.854161520276342 $412 49.752494888149663 $278 $413 forward 7 unknown #
point $-1 -36.854161520276342 -25.101118335304879 -11.858357546271737 #
point $-1 -36.854161520276342 -25.101118335304879 11.858357546271737 #
straight-curve $-1 -49.752494888149663 -19.886654681591967 0 0 0 -1 I I #
edge $-1 $412 -25.101118335304879 $285 -19.886654681591967 $361 $414 forward 7 unknown #
point $-1 -49.752494888149663 -19.886654681591967 -11.858357546271737 #
edge $-1 $288 19.886654681591967 $409 25.101118335304879 $362 $415 forward 7 unknown #
point $-1 -49.752494888149663 -19.886654681591967 11.858357546271737 #
coedge $-1 $378 $301 $295 $377 reversed $292 $-1 #
edge $-1 $385 -11.858357546271737 $303 -5.00541672930758 $295 $416 forward 7 unknown #
coedge $-1 $296 $376 $298 $380 reversed $292 $-1 #
straight-curve $-1 32.176103871260977 -25.101118335304882 36.43382784644799 0 0 -1 I I #
edge $-1 $299 32.176103871260977 $385 49.752494888149663 $378 $417 forward 7 unknown #
point $-1 32.176103871260977 -25.101118335304879 11.858357546271737 #
straight-curve $-1 20.482149689852665 -25.101118335304879 5.0054167293075782 1 0 0 I I #
point $-1 49.752494888149684 -25.101118335304879 5.00541672930758 #
point $-1 32.176103871260977 -25.101118335304879 5.00541672930758 #
vertex $-1 $307 $418 #
straight-curve $-1 49.752494888149663 0 11.858357546271737 0 1 0 I I #
vertex $-1 $310 $419 #
point $-1 39.197929876086313 -20.377153602332829 7.0063238860309855 #
vertex $-1 $314 $420 #
point $-1 46.73066888332432 -20.377153602332829 7.0063238860309855 #
edge $-1 $392 35.30043294683982 $395 46.070115733785464 $319 $421 forward 7 unknown #
vertex $-1 $333 $422 #
straight-curve $-1 -16.490350847992694 43.08692519592185 11.858357546271733 0 1 0 I I #
edge $-1 $395 3.1542227559254368 $330 23.51803342820908 $329 $423 forward 7 unknown #
vertex $-1 $394 $424 #
straight-curve $-1 -16.490350847992694 6.7258312697049405e-007 44.565087431188843 0 -0.49999998660252726 0.86602541151947299 I I #
point $-1 -16.490350847992694 18.883239301318582 11.858357546271733 #
point $-1 -36.854161520276335 25.101118335304879 1.0886747593260964 #
straight-curve $-1 0 25.101118335304879 11.858357546271737 -1 0 0 I I #
vertex $-1 $336 $425 #
point $-1 -29.035929899623866 19.857813507704503 5.2412398101958493 #
vertex $-1 $340 $426 #
point $-1 -20.308582468645163 19.857813507704503 5.2412398101958493 #
straight-curve $-1 -49.752494888149663 25.101118335304879 0 0 0 -1 I I #
point $-1 -49.752494888149663 -25.101118335304879 -11.858357546271737 #
straight-curve $-1 -49.752494888149663 0 -11.858357546271737 0 1 0 I I #
point $-1 -49.752494888149663 25.101118335304879 -11.858357546271737 #
coedge $-1 $362 $361 $367 $411 reversed $180 $-1 #
vertex $-1 $374 $427 #
straight-curve $-1 0 -25.101118335304879 11.858357546271737 1 0 0 I I #
edge $-1 $409 -11.858357546271737 $412 11.858357546271737 $408 $428 forward 7 unknown #
vertex $-1 $372 $429 #
straight-curve $-1 0 -25.101118335304879 -11.858357546271737 -1 0 0 I I #
straight-curve $-1 -49.752494888149663 0 -11.858357546271737 0 1 0 I I #
straight-curve $-1 -49.752494888149663 0 11.858357546271737 0 -1 0 I I #
straight-curve $-1 49.752494888149663 -25.101118335304879 0 0 0 -1 I I #
straight-curve $-1 0 -25.101118335304879 11.858357546271737 1 0 0 I I #
point $-1 49.752494888149663 -25.101118335304879 11.858357546271737 #
point $-1 37.197929876086313 -18.914446182565275 5.6423271836313997 #
point $-1 44.73066888332432 -18.914446182565275 5.6423271836313997 #
straight-curve $-1 -16.490350847992694 25.101118335304879 47.15879049311156 0 0 -1 I I #
point $-1 -16.490350847992694 25.101118335304879 11.858357546271737 #
straight-curve $-1 -13.336128092067257 25.101118335304882 1.0886747593260964 -1 0 0 I I #
point $-1 -16.490350847992694 25.101118335304879 1.0886747593260964 #
point $-1 -31.035929899623866 18.125762684665556 4.2412398369907942 #
point $-1 -22.308582468645163 18.125762684665556 4.2412398369907942 #
point $-1 -49.752494888149663 -25.101118335304879 11.858357546271737 #
straight-curve $-1 -49.752494888149663 -25.101118335304879 0 0 0 -1 I I #
point $-1 -49.752494888149663 -25.101118335304879 -11.858357546271737 #
End-of-ACIS-data 