500 0 14 0           
7 Unknown 11 ACIS 5.0 NT 24 Fri Mar 26 14:43:58 1999 
-1 9.9999999999999995e-007 1e-010 
body $-1 $14 $-1 $15 #
body $-1 $16 $-1 $17 #
body $-1 $18 $-1 $19 #
body $-1 $20 $-1 $21 #
body $-1 $22 $-1 $23 #
body $-1 $24 $-1 $25 #
body $-1 $26 $-1 $27 #
body $-1 $28 $-1 $29 #
body $-1 $30 $-1 $31 #
body $-1 $32 $-1 $33 #
body $-1 $34 $-1 $35 #
body $-1 $36 $-1 $37 #
body $-1 $38 $-1 $39 #
body $-1 $40 $-1 $41 #
lump $-1 $-1 $42 $0 #
transform $-1 1 0 0 0 1 0 0 0 1 41.024201178014465 20.951802101312865 6.0545189897430722 1 rotate no_reflect no_shear #
lump $-1 $-1 $43 $1 #
transform $-1 1 0 0 0 1 0 0 0 1 10.609037979486144 2.7840901895927015 6.0545189897430722 1 rotate no_reflect no_shear #
lump $-1 $-1 $44 $2 #
transform $-1 0.84804809178421925 0 -0.52991927123019833 0 1 0 0.52991927123019833 0 0.84804809178421925 55.9464408861637 11.578205409525252 119.7763971276311 1 rotate no_reflect no_shear #
lump $-1 $-1 $45 $3 #
transform $-1 0.84804809178421925 0 -0.52991927123019833 0 -1 0 -0.52991927123019833 0 -0.84804809178421925 74.579169383228177 11.578205409525252 4.3649291773326482 1 rotate no_reflect no_shear #
lump $-1 $-1 $46 $4 #
transform $-1 0.84804809178421925 0 -0.52991927123019833 0 1 0 0.52991927123019833 0 0.84804809178421925 55.9464408861637 23.690013350672025 119.7763971276311 1 rotate no_reflect no_shear #
lump $-1 $-1 $47 $5 #
transform $-1 0.84804809178421925 0 -0.52991927123019833 0 -1 0 -0.52991927123019833 0 -0.84804809178421925 74.579169383228177 23.690013350672025 4.3649291773326482 1 rotate no_reflect no_shear #
lump $-1 $-1 $48 $6 #
transform $-1 0.84804809178421925 0 -0.52991927123019833 0 1 0 0.52991927123019833 0 0.84804809178421925 55.9464408861637 35.801821291818797 119.7763971276311 1 rotate no_reflect no_shear #
lump $-1 $-1 $49 $7 #
transform $-1 0.84804809178421925 0 -0.52991927123019833 0 -1 0 -0.52991927123019833 0 -0.84804809178421925 74.579169383228177 35.801821291818797 4.3649291773326482 1 rotate no_reflect no_shear #
lump $-1 $-1 $50 $8 #
transform $-1 0.84804809178421925 0 0.52991927123019833 0 1 0 -0.52991927123019833 0 0.84804809178421925 -43.479029582108943 17.72213569558793 77.461770655385166 1 rotate no_reflect no_shear #
lump $-1 $-1 $51 $9 #
transform $-1 0.84804809178421925 0 0.52991927123019833 0 -1 0 0.52991927123019833 0 -0.84804809178421925 4.1853611756971318 16.311584999765213 8.7113648279510336 1 rotate no_reflect no_shear #
lump $-1 $-1 $52 $10 #
transform $-1 0.84804809178421925 0 0.52991927123019833 0 -1 0 0.52991927123019833 0 -0.84804809178421925 4.1853611756971318 19.132686391410648 8.7113648279510336 1 rotate no_reflect no_shear #
lump $-1 $-1 $53 $11 #
transform $-1 0.84804809178421925 0 0.52991927123019833 0 1 0 -0.52991927123019833 0 0.84804809178421925 -43.479029582108943 35.889847607308091 77.461770655385166 1 rotate no_reflect no_shear #
lump $-1 $-1 $54 $12 #
transform $-1 0.84804809178421925 0 0.52991927123019833 0 -1 0 0.52991927123019833 0 -0.84804809178421925 4.1853611756971318 34.479296911485378 8.7113648279510336 1 rotate no_reflect no_shear #
lump $-1 $-1 $55 $13 #
transform $-1 0.84804809178421925 0 0.52991927123019833 0 -1 0 0.52991927123019833 0 -0.84804809178421925 4.1853611756971318 37.300398303130805 8.7113648279510336 1 rotate no_reflect no_shear #
shell $-1 $-1 $-1 $56 $-1 $14 #
shell $-1 $-1 $-1 $57 $-1 $16 #
shell $-1 $-1 $-1 $58 $-1 $18 #
shell $-1 $-1 $-1 $59 $-1 $20 #
shell $-1 $-1 $-1 $60 $-1 $22 #
shell $-1 $-1 $-1 $61 $-1 $24 #
shell $-1 $-1 $-1 $62 $-1 $26 #
shell $-1 $-1 $-1 $63 $-1 $28 #
shell $-1 $-1 $-1 $64 $-1 $30 #
shell $-1 $-1 $-1 $65 $-1 $32 #
shell $-1 $-1 $-1 $66 $-1 $34 #
shell $-1 $-1 $-1 $67 $-1 $36 #
shell $-1 $-1 $-1 $68 $-1 $38 #
shell $-1 $-1 $-1 $69 $-1 $40 #
face $-1 $70 $71 $42 $-1 $72 forward single #
face $-1 $73 $74 $43 $-1 $75 forward single #
face $-1 $76 $77 $44 $-1 $78 forward single #
face $-1 $79 $80 $45 $-1 $81 forward single #
face $-1 $82 $83 $46 $-1 $84 forward single #
face $-1 $85 $86 $47 $-1 $87 forward single #
face $-1 $88 $89 $48 $-1 $90 forward single #
face $-1 $91 $92 $49 $-1 $93 forward single #
face $-1 $94 $95 $50 $-1 $96 forward single #
face $-1 $97 $98 $51 $-1 $99 forward single #
face $-1 $100 $101 $52 $-1 $102 forward single #
face $-1 $103 $104 $53 $-1 $105 forward single #
face $-1 $106 $107 $54 $-1 $108 forward single #
face $-1 $109 $110 $55 $-1 $111 forward single #
face $-1 $112 $113 $42 $-1 $114 reversed single #
loop $-1 $-1 $115 $56 #
plane-surface $-1 0 0 6.0545189897430722 0 0 1 1 0 0 forward_v I I I I #
face $-1 $116 $117 $43 $-1 $118 reversed single #
loop $-1 $-1 $119 $57 #
plane-surface $-1 0 0 6.0545189897430722 0 0 1 1 0 0 forward_v I I I I #
face $-1 $120 $121 $44 $-1 $122 reversed single #
loop $-1 $-1 $123 $58 #
plane-surface $-1 0 0 82.04840235602893 0 0 1 1 0 0 forward_v I I I I #
face $-1 $124 $125 $45 $-1 $126 forward single #
loop $-1 $127 $128 $59 #
cone-surface $-1 0 0 -3.3511154515213475 0 0 1 1.5 0 0 1 I I 0 1 1.5 forward I I I I #
face $-1 $129 $130 $46 $-1 $131 reversed single #
loop $-1 $-1 $132 $60 #
plane-surface $-1 0 0 82.04840235602893 0 0 1 1 0 0 forward_v I I I I #
face $-1 $133 $134 $47 $-1 $135 forward single #
loop $-1 $136 $137 $61 #
cone-surface $-1 0 0 -3.3511154515213475 0 0 1 1.5 0 0 1 I I 0 1 1.5 forward I I I I #
face $-1 $138 $139 $48 $-1 $140 reversed single #
loop $-1 $-1 $141 $62 #
plane-surface $-1 0 0 82.04840235602893 0 0 1 1 0 0 forward_v I I I I #
face $-1 $142 $143 $49 $-1 $144 forward single #
loop $-1 $145 $146 $63 #
cone-surface $-1 0 0 -3.3511154515213475 0 0 1 1.5 0 0 1 I I 0 1 1.5 forward I I I I #
face $-1 $147 $148 $50 $-1 $149 reversed single #
loop $-1 $-1 $150 $64 #
plane-surface $-1 0 0 82.04840235602893 0 0 1 1 0 0 forward_v I I I I #
face $-1 $151 $152 $51 $-1 $153 forward single #
loop $-1 $154 $155 $65 #
cone-surface $-1 0 0 -0.88176366466261769 0 0 1 0.5 0 0 1 I I 0 1 0.5 forward I I I I #
face $-1 $156 $157 $52 $-1 $158 forward single #
loop $-1 $159 $160 $66 #
cone-surface $-1 0 0 -0.88176366466261769 0 0 1 0.5 0 0 1 I I 0 1 0.5 forward I I I I #
face $-1 $161 $162 $53 $-1 $163 reversed single #
loop $-1 $-1 $164 $67 #
plane-surface $-1 0 0 82.04840235602893 0 0 1 1 0 0 forward_v I I I I #
face $-1 $165 $166 $54 $-1 $167 forward single #
loop $-1 $168 $169 $68 #
cone-surface $-1 0 0 -0.88176366466261769 0 0 1 0.5 0 0 1 I I 0 1 0.5 forward I I I I #
face $-1 $170 $171 $55 $-1 $172 forward single #
loop $-1 $173 $174 $69 #
cone-surface $-1 0 0 -0.88176366466261769 0 0 1 0.5 0 0 1 I I 0 1 0.5 forward I I I I #
face $-1 $175 $176 $42 $-1 $177 reversed single #
loop $-1 $-1 $178 $70 #
plane-surface $-1 0 0 -6.0545189897430722 0 0 1 1 0 0 forward_v I I I I #
coedge $-1 $179 $180 $181 $182 forward $71 $-1 #
face $-1 $183 $184 $43 $-1 $185 reversed single #
loop $-1 $-1 $186 $73 #
plane-surface $-1 0 0 -6.0545189897430722 0 0 1 1 0 0 forward_v I I I I #
coedge $-1 $187 $188 $189 $190 forward $74 $-1 #
face $-1 $191 $192 $44 $-1 $193 reversed single #
loop $-1 $-1 $194 $76 #
plane-surface $-1 0 0 -82.04840235602893 0 0 1 1 0 0 forward_v I I I I #
coedge $-1 $195 $196 $197 $198 forward $77 $-1 #
face $-1 $-1 $199 $45 $-1 $200 forward single #
loop $-1 $-1 $201 $79 #
plane-surface $-1 0 0 -5.952230903042695 0 0 -1 -1 0 0 forward_v I I I I #
loop $-1 $-1 $202 $59 #
coedge $-1 $128 $128 $201 $203 reversed $80 $-1 #
face $-1 $204 $205 $46 $-1 $206 reversed single #
loop $-1 $-1 $207 $82 #
plane-surface $-1 0 0 -82.04840235602893 0 0 1 1 0 0 forward_v I I I I #
coedge $-1 $208 $209 $210 $211 forward $83 $-1 #
face $-1 $-1 $212 $47 $-1 $213 forward single #
loop $-1 $-1 $214 $85 #
plane-surface $-1 0 0 -5.952230903042695 0 0 -1 -1 0 0 forward_v I I I I #
loop $-1 $-1 $215 $61 #
coedge $-1 $137 $137 $214 $216 reversed $86 $-1 #
face $-1 $217 $218 $48 $-1 $219 reversed single #
loop $-1 $-1 $220 $88 #
plane-surface $-1 0 0 -82.04840235602893 0 0 1 1 0 0 forward_v I I I I #
coedge $-1 $221 $222 $223 $224 forward $89 $-1 #
face $-1 $-1 $225 $49 $-1 $226 forward single #
loop $-1 $-1 $227 $91 #
plane-surface $-1 0 0 -5.952230903042695 0 0 -1 -1 0 0 forward_v I I I I #
loop $-1 $-1 $228 $63 #
coedge $-1 $146 $146 $227 $229 reversed $92 $-1 #
face $-1 $230 $231 $50 $-1 $232 reversed single #
loop $-1 $-1 $233 $94 #
plane-surface $-1 0 0 -82.04840235602893 0 0 1 1 0 0 forward_v I I I I #
coedge $-1 $234 $235 $236 $237 forward $95 $-1 #
face $-1 $-1 $238 $51 $-1 $239 forward single #
loop $-1 $-1 $240 $97 #
plane-surface $-1 0 0 -1.5135273293252354 0 0 -1 -1 0 0 forward_v I I I I #
loop $-1 $-1 $241 $65 #
coedge $-1 $155 $155 $240 $242 reversed $98 $-1 #
face $-1 $-1 $243 $52 $-1 $244 forward single #
loop $-1 $-1 $245 $100 #
plane-surface $-1 0 0 -1.5135273293252354 0 0 -1 -1 0 0 forward_v I I I I #
loop $-1 $-1 $246 $66 #
coedge $-1 $160 $160 $245 $247 reversed $101 $-1 #
face $-1 $248 $249 $53 $-1 $250 reversed single #
loop $-1 $-1 $251 $103 #
plane-surface $-1 0 0 -82.04840235602893 0 0 1 1 0 0 forward_v I I I I #
coedge $-1 $252 $253 $254 $255 forward $104 $-1 #
face $-1 $-1 $256 $54 $-1 $257 forward single #
loop $-1 $-1 $258 $106 #
plane-surface $-1 0 0 -1.5135273293252354 0 0 -1 -1 0 0 forward_v I I I I #
loop $-1 $-1 $259 $68 #
coedge $-1 $169 $169 $258 $260 reversed $107 $-1 #
face $-1 $-1 $261 $55 $-1 $262 forward single #
loop $-1 $-1 $263 $109 #
plane-surface $-1 0 0 -1.5135273293252354 0 0 -1 -1 0 0 forward_v I I I I #
loop $-1 $-1 $264 $69 #
coedge $-1 $174 $174 $263 $265 reversed $110 $-1 #
face $-1 $266 $267 $42 $-1 $268 reversed single #
loop $-1 $-1 $269 $112 #
plane-surface $-1 0 -20.951802101312865 0 0 1 0 0 0 1 forward_v I I I I #
coedge $-1 $270 $271 $272 $273 forward $113 $-1 #
coedge $-1 $274 $115 $275 $276 forward $71 $-1 #
coedge $-1 $115 $274 $277 $278 forward $71 $-1 #
coedge $-1 $279 $280 $115 $182 reversed $281 $-1 #
edge $-1 $282 -20.951802101312865 $283 20.951802101312865 $181 $284 forward 7 unknown #
face $-1 $285 $286 $43 $-1 $287 reversed single #
loop $-1 $-1 $288 $116 #
plane-surface $-1 0 -2.7840901895927015 0 0 1 0 0 0 1 forward_v I I I I #
coedge $-1 $289 $290 $291 $292 forward $117 $-1 #
coedge $-1 $293 $119 $294 $295 forward $74 $-1 #
coedge $-1 $119 $293 $296 $297 forward $74 $-1 #
coedge $-1 $298 $299 $119 $190 reversed $300 $-1 #
edge $-1 $301 -2.7840901895927015 $302 2.7840901895927015 $189 $303 forward 7 unknown #
face $-1 $304 $305 $44 $-1 $306 reversed single #
loop $-1 $-1 $307 $120 #
plane-surface $-1 0 -3.8956187339135759 0 0 1 0 0 0 1 forward_v I I I I #
coedge $-1 $308 $309 $310 $311 forward $121 $-1 #
coedge $-1 $312 $123 $313 $314 forward $77 $-1 #
coedge $-1 $123 $312 $315 $316 forward $77 $-1 #
coedge $-1 $317 $318 $123 $198 reversed $319 $-1 #
edge $-1 $320 -3.8956187339135759 $321 3.8956187339135759 $197 $322 forward 7 unknown #
loop $-1 $323 $324 $124 #
cone-surface $-1 0 0 0 0 0 1 0.75 0 0 1 I I -0.70710678118654757 0.70710678118654757 0.75 forward I I I I #
coedge $-1 $201 $201 $128 $203 forward $125 $-1 #
coedge $-1 $202 $202 $324 $325 forward $127 $-1 #
edge $-1 $326 0 $326 6.2831853071796004 $201 $327 forward 7 unknown #
face $-1 $328 $329 $46 $-1 $330 reversed single #
loop $-1 $-1 $331 $129 #
plane-surface $-1 0 -3.8956187339135759 0 0 1 0 0 0 1 forward_v I I I I #
coedge $-1 $332 $333 $334 $335 forward $130 $-1 #
coedge $-1 $336 $132 $337 $338 forward $83 $-1 #
coedge $-1 $132 $336 $339 $340 forward $83 $-1 #
coedge $-1 $341 $342 $132 $211 reversed $343 $-1 #
edge $-1 $344 -3.8956187339135759 $345 3.8956187339135759 $210 $346 forward 7 unknown #
loop $-1 $347 $348 $133 #
cone-surface $-1 0 0 0 0 0 1 0.75 0 0 1 I I -0.70710678118654757 0.70710678118654757 0.75 forward I I I I #
coedge $-1 $214 $214 $137 $216 forward $134 $-1 #
coedge $-1 $215 $215 $348 $349 forward $136 $-1 #
edge $-1 $350 0 $350 6.2831853071796004 $214 $351 forward 7 unknown #
face $-1 $352 $353 $48 $-1 $354 reversed single #
loop $-1 $-1 $355 $138 #
plane-surface $-1 0 -3.8956187339135759 0 0 1 0 0 0 1 forward_v I I I I #
coedge $-1 $356 $357 $358 $359 forward $139 $-1 #
coedge $-1 $360 $141 $361 $362 forward $89 $-1 #
coedge $-1 $141 $360 $363 $364 forward $89 $-1 #
coedge $-1 $365 $366 $141 $224 reversed $367 $-1 #
edge $-1 $368 -3.8956187339135759 $369 3.8956187339135759 $223 $370 forward 7 unknown #
loop $-1 $371 $372 $142 #
cone-surface $-1 0 0 0 0 0 1 0.75 0 0 1 I I -0.70710678118654757 0.70710678118654757 0.75 forward I I I I #
coedge $-1 $227 $227 $146 $229 forward $143 $-1 #
coedge $-1 $228 $228 $372 $373 forward $145 $-1 #
edge $-1 $374 0 $374 6.2831853071796004 $227 $375 forward 7 unknown #
face $-1 $376 $377 $50 $-1 $378 reversed single #
loop $-1 $-1 $379 $147 #
plane-surface $-1 0 -3.2912849569196734 0 0 1 0 0 0 1 forward_v I I I I #
coedge $-1 $380 $381 $382 $383 forward $148 $-1 #
coedge $-1 $384 $150 $385 $386 forward $95 $-1 #
coedge $-1 $150 $384 $387 $388 forward $95 $-1 #
coedge $-1 $389 $390 $150 $237 reversed $391 $-1 #
edge $-1 $392 -3.2912849569196734 $393 3.2912849569196734 $236 $394 forward 7 unknown #
loop $-1 $395 $396 $151 #
cone-surface $-1 0 0 0 0 0 1 0.25 0 0 1 I I -0.70710678118654746 0.70710678118654746 0.25 forward I I I I #
coedge $-1 $240 $240 $155 $242 forward $152 $-1 #
coedge $-1 $241 $241 $396 $397 forward $154 $-1 #
edge $-1 $398 0 $398 6.2831853071796004 $240 $399 forward 7 unknown #
loop $-1 $400 $401 $156 #
cone-surface $-1 0 0 0 0 0 1 0.25 0 0 1 I I -0.70710678118654746 0.70710678118654746 0.25 forward I I I I #
coedge $-1 $245 $245 $160 $247 forward $157 $-1 #
coedge $-1 $246 $246 $401 $402 forward $159 $-1 #
edge $-1 $403 0 $403 6.2831853071796004 $245 $404 forward 7 unknown #
face $-1 $405 $406 $53 $-1 $407 reversed single #
loop $-1 $-1 $408 $161 #
plane-surface $-1 0 -3.2912849569196734 0 0 1 0 0 0 1 forward_v I I I I #
coedge $-1 $409 $410 $411 $412 forward $162 $-1 #
coedge $-1 $413 $164 $414 $415 forward $104 $-1 #
coedge $-1 $164 $413 $416 $417 forward $104 $-1 #
coedge $-1 $418 $419 $164 $255 reversed $420 $-1 #
edge $-1 $421 -3.2912849569196734 $422 3.2912849569196734 $254 $423 forward 7 unknown #
loop $-1 $424 $425 $165 #
cone-surface $-1 0 0 0 0 0 1 0.25 0 0 1 I I -0.70710678118654746 0.70710678118654746 0.25 forward I I I I #
coedge $-1 $258 $258 $169 $260 forward $166 $-1 #
coedge $-1 $259 $259 $425 $426 forward $168 $-1 #
edge $-1 $427 0 $427 6.2831853071796004 $258 $428 forward 7 unknown #
loop $-1 $429 $430 $170 #
cone-surface $-1 0 0 0 0 0 1 0.25 0 0 1 I I -0.70710678118654746 0.70710678118654746 0.25 forward I I I I #
coedge $-1 $263 $263 $174 $265 forward $171 $-1 #
coedge $-1 $264 $264 $430 $431 forward $173 $-1 #
edge $-1 $432 0 $432 6.2831853071796004 $263 $433 forward 7 unknown #
face $-1 $434 $435 $42 $-1 $436 reversed single #
loop $-1 $-1 $437 $175 #
plane-surface $-1 -41.024201178014465 0 0 1 0 0 0 0 -1 forward_v I I I I #
coedge $-1 $438 $277 $439 $440 forward $176 $-1 #
coedge $-1 $441 $178 $438 $442 forward $113 $-1 #
coedge $-1 $178 $441 $443 $444 forward $113 $-1 #
coedge $-1 $280 $279 $178 $273 reversed $281 $-1 #
edge $-1 $445 -20.951802101312865 $446 20.951802101312865 $272 $447 forward 7 unknown #
coedge $-1 $180 $179 $448 $449 forward $71 $-1 #
coedge $-1 $450 $451 $179 $276 reversed $435 $-1 #
edge $-1 $283 -41.024201178014465 $452 41.024201178014465 $275 $453 forward 7 unknown #
coedge $-1 $269 $454 $180 $278 reversed $176 $-1 #
edge $-1 $455 -41.024201178014465 $282 41.024201178014465 $277 $456 forward 7 unknown #
coedge $-1 $272 $181 $454 $457 forward $281 $-1 #
coedge $-1 $181 $272 $450 $458 reversed $281 $-1 #
loop $-1 $-1 $279 $434 #
vertex $-1 $182 $459 #
vertex $-1 $182 $460 #
straight-curve $-1 41.024201178014465 0 6.0545189897430722 0 1 0 I I #
face $-1 $461 $462 $43 $-1 $463 reversed single #
loop $-1 $-1 $464 $183 #
plane-surface $-1 -1.5 0 0 1 0 0 0 0 -1 forward_v I I I I #
coedge $-1 $465 $296 $466 $467 forward $184 $-1 #
coedge $-1 $468 $186 $465 $469 forward $117 $-1 #
coedge $-1 $186 $468 $470 $471 forward $117 $-1 #
coedge $-1 $299 $298 $186 $292 reversed $300 $-1 #
edge $-1 $472 -2.7840901895927015 $473 2.7840901895927015 $291 $474 forward 7 unknown #
coedge $-1 $188 $187 $475 $476 forward $74 $-1 #
coedge $-1 $477 $478 $187 $295 reversed $462 $-1 #
edge $-1 $302 -1.5 $479 1.5 $294 $480 forward 7 unknown #
coedge $-1 $288 $481 $188 $297 reversed $184 $-1 #
edge $-1 $482 -1.5 $301 1.5 $296 $483 forward 7 unknown #
coedge $-1 $291 $189 $481 $484 forward $300 $-1 #
coedge $-1 $189 $291 $477 $485 reversed $300 $-1 #
loop $-1 $-1 $298 $461 #
vertex $-1 $190 $486 #
vertex $-1 $190 $487 #
straight-curve $-1 1.5 0 6.0545189897430722 0 1 0 I I #
face $-1 $488 $489 $44 $-1 $490 reversed single #
loop $-1 $-1 $491 $191 #
plane-surface $-1 -164.09680471205786 0 0 1 0 0 0 0 -1 forward_v I I I I #
coedge $-1 $492 $315 $493 $494 forward $192 $-1 #
coedge $-1 $495 $194 $492 $496 forward $121 $-1 #
coedge $-1 $194 $495 $497 $498 forward $121 $-1 #
coedge $-1 $318 $317 $194 $311 reversed $319 $-1 #
edge $-1 $499 -3.8956187339135759 $500 3.8956187339135759 $310 $501 forward 7 unknown #
coedge $-1 $196 $195 $502 $503 forward $77 $-1 #
coedge $-1 $504 $505 $195 $314 reversed $489 $-1 #
edge $-1 $321 -164.09680471205786 $506 164.09680471205786 $313 $507 forward 7 unknown #
coedge $-1 $307 $508 $196 $316 reversed $192 $-1 #
edge $-1 $509 -164.09680471205786 $320 164.09680471205786 $315 $510 forward 7 unknown #
coedge $-1 $310 $197 $508 $511 forward $319 $-1 #
coedge $-1 $197 $310 $504 $512 reversed $319 $-1 #
loop $-1 $-1 $317 $488 #
vertex $-1 $198 $513 #
vertex $-1 $198 $514 #
straight-curve $-1 164.09680471205786 0 82.04840235602893 0 1 0 I I #
loop $-1 $-1 $515 $124 #
coedge $-1 $324 $324 $202 $325 reversed $199 $-1 #
edge $-1 $516 0 $516 6.2831853071796004 $324 $517 forward 7 unknown #
vertex $-1 $203 $518 #
ellipse-curve $-1 0 0 -5.952230903042695 0 0 -1 1.5 0 0 1 I I #
face $-1 $519 $520 $46 $-1 $521 reversed single #
loop $-1 $-1 $522 $204 #
plane-surface $-1 -164.09680471205786 0 0 1 0 0 0 0 -1 forward_v I I I I #
coedge $-1 $523 $339 $524 $525 forward $205 $-1 #
coedge $-1 $526 $207 $523 $527 forward $130 $-1 #
coedge $-1 $207 $526 $528 $529 forward $130 $-1 #
coedge $-1 $342 $341 $207 $335 reversed $343 $-1 #
edge $-1 $530 -3.8956187339135759 $531 3.8956187339135759 $334 $532 forward 7 unknown #
coedge $-1 $209 $208 $533 $534 forward $83 $-1 #
coedge $-1 $535 $536 $208 $338 reversed $520 $-1 #
edge $-1 $345 -164.09680471205786 $537 164.09680471205786 $337 $538 forward 7 unknown #
coedge $-1 $331 $539 $209 $340 reversed $205 $-1 #
edge $-1 $540 -164.09680471205786 $344 164.09680471205786 $339 $541 forward 7 unknown #
coedge $-1 $334 $210 $539 $542 forward $343 $-1 #
coedge $-1 $210 $334 $535 $543 reversed $343 $-1 #
loop $-1 $-1 $341 $519 #
vertex $-1 $211 $544 #
vertex $-1 $211 $545 #
straight-curve $-1 164.09680471205786 0 82.04840235602893 0 1 0 I I #
loop $-1 $-1 $546 $133 #
coedge $-1 $348 $348 $215 $349 reversed $212 $-1 #
edge $-1 $547 0 $547 6.2831853071796004 $348 $548 forward 7 unknown #
vertex $-1 $216 $549 #
ellipse-curve $-1 0 0 -5.952230903042695 0 0 -1 1.5 0 0 1 I I #
face $-1 $550 $551 $48 $-1 $552 reversed single #
loop $-1 $-1 $553 $217 #
plane-surface $-1 -164.09680471205786 0 0 1 0 0 0 0 -1 forward_v I I I I #
coedge $-1 $554 $363 $555 $556 forward $218 $-1 #
coedge $-1 $557 $220 $554 $558 forward $139 $-1 #
coedge $-1 $220 $557 $559 $560 forward $139 $-1 #
coedge $-1 $366 $365 $220 $359 reversed $367 $-1 #
edge $-1 $561 -3.8956187339135759 $562 3.8956187339135759 $358 $563 forward 7 unknown #
coedge $-1 $222 $221 $564 $565 forward $89 $-1 #
coedge $-1 $566 $567 $221 $362 reversed $551 $-1 #
edge $-1 $369 -164.09680471205786 $568 164.09680471205786 $361 $569 forward 7 unknown #
coedge $-1 $355 $570 $222 $364 reversed $218 $-1 #
edge $-1 $571 -164.09680471205786 $368 164.09680471205786 $363 $572 forward 7 unknown #
coedge $-1 $358 $223 $570 $573 forward $367 $-1 #
coedge $-1 $223 $358 $566 $574 reversed $367 $-1 #
loop $-1 $-1 $365 $550 #
vertex $-1 $224 $575 #
vertex $-1 $224 $576 #
straight-curve $-1 164.09680471205786 0 82.04840235602893 0 1 0 I I #
loop $-1 $-1 $577 $142 #
coedge $-1 $372 $372 $228 $373 reversed $225 $-1 #
edge $-1 $578 0 $578 6.2831853071796004 $372 $579 forward 7 unknown #
vertex $-1 $229 $580 #
ellipse-curve $-1 0 0 -5.952230903042695 0 0 -1 1.5 0 0 1 I I #
face $-1 $581 $582 $50 $-1 $583 reversed single #
loop $-1 $-1 $584 $230 #
plane-surface $-1 -164.09680471205786 0 0 1 0 0 0 0 -1 forward_v I I I I #
coedge $-1 $585 $387 $586 $587 forward $231 $-1 #
coedge $-1 $588 $233 $585 $589 forward $148 $-1 #
coedge $-1 $233 $588 $590 $591 forward $148 $-1 #
coedge $-1 $390 $389 $233 $383 reversed $391 $-1 #
edge $-1 $592 -3.2912849569196734 $593 3.2912849569196734 $382 $594 forward 7 unknown #
coedge $-1 $235 $234 $595 $596 forward $95 $-1 #
coedge $-1 $597 $598 $234 $386 reversed $582 $-1 #
edge $-1 $393 -164.09680471205786 $599 164.09680471205786 $385 $600 forward 7 unknown #
coedge $-1 $379 $601 $235 $388 reversed $231 $-1 #
edge $-1 $602 -164.09680471205786 $392 164.09680471205786 $387 $603 forward 7 unknown #
coedge $-1 $382 $236 $601 $604 forward $391 $-1 #
coedge $-1 $236 $382 $597 $605 reversed $391 $-1 #
loop $-1 $-1 $389 $581 #
vertex $-1 $237 $606 #
vertex $-1 $237 $607 #
straight-curve $-1 164.09680471205786 0 82.04840235602893 0 1 0 I I #
loop $-1 $-1 $608 $151 #
coedge $-1 $396 $396 $241 $397 reversed $238 $-1 #
edge $-1 $609 0 $609 6.2831853071796004 $396 $610 forward 7 unknown #
vertex $-1 $242 $611 #
ellipse-curve $-1 0 0 -1.5135273293252354 0 0 -1 0.5 0 0 1 I I #
loop $-1 $-1 $612 $156 #
coedge $-1 $401 $401 $246 $402 reversed $243 $-1 #
edge $-1 $613 0 $613 6.2831853071796004 $401 $614 forward 7 unknown #
vertex $-1 $247 $615 #
ellipse-curve $-1 0 0 -1.5135273293252354 0 0 -1 0.5 0 0 1 I I #
face $-1 $616 $617 $53 $-1 $618 reversed single #
loop $-1 $-1 $619 $248 #
plane-surface $-1 -164.09680471205786 0 0 1 0 0 0 0 -1 forward_v I I I I #
coedge $-1 $620 $416 $621 $622 forward $249 $-1 #
coedge $-1 $623 $251 $620 $624 forward $162 $-1 #
coedge $-1 $251 $623 $625 $626 forward $162 $-1 #
coedge $-1 $419 $418 $251 $412 reversed $420 $-1 #
edge $-1 $627 -3.2912849569196734 $628 3.2912849569196734 $411 $629 forward 7 unknown #
coedge $-1 $253 $252 $630 $631 forward $104 $-1 #
coedge $-1 $632 $633 $252 $415 reversed $617 $-1 #
edge $-1 $422 -164.09680471205786 $634 164.09680471205786 $414 $635 forward 7 unknown #
coedge $-1 $408 $636 $253 $417 reversed $249 $-1 #
edge $-1 $637 -164.09680471205786 $421 164.09680471205786 $416 $638 forward 7 unknown #
coedge $-1 $411 $254 $636 $639 forward $420 $-1 #
coedge $-1 $254 $411 $632 $640 reversed $420 $-1 #
loop $-1 $-1 $418 $616 #
vertex $-1 $255 $641 #
vertex $-1 $255 $642 #
straight-curve $-1 164.09680471205786 0 82.04840235602893 0 1 0 I I #
loop $-1 $-1 $643 $165 #
coedge $-1 $425 $425 $259 $426 reversed $256 $-1 #
edge $-1 $644 0 $644 6.2831853071796004 $425 $645 forward 7 unknown #
vertex $-1 $260 $646 #
ellipse-curve $-1 0 0 -1.5135273293252354 0 0 -1 0.5 0 0 1 I I #
loop $-1 $-1 $647 $170 #
coedge $-1 $430 $430 $264 $431 reversed $261 $-1 #
edge $-1 $648 0 $648 6.2831853071796004 $430 $649 forward 7 unknown #
vertex $-1 $265 $650 #
ellipse-curve $-1 0 0 -1.5135273293252354 0 0 -1 0.5 0 0 1 I I #
face $-1 $-1 $281 $42 $-1 $651 reversed single #
loop $-1 $-1 $450 $266 #
plane-surface $-1 0 20.951802101312865 0 0 -1 0 0 0 -1 forward_v I I I I #
coedge $-1 $652 $448 $451 $653 forward $267 $-1 #
coedge $-1 $454 $269 $270 $442 reversed $176 $-1 #
coedge $-1 $448 $652 $269 $440 reversed $267 $-1 #
edge $-1 $455 -6.0545189897430722 $654 6.0545189897430722 $439 $655 forward 7 unknown #
coedge $-1 $271 $270 $652 $656 forward $113 $-1 #
edge $-1 $446 -41.024201178014465 $654 41.024201178014465 $438 $657 forward 7 unknown #
coedge $-1 $451 $450 $271 $444 reversed $435 $-1 #
edge $-1 $658 -41.024201178014465 $445 41.024201178014465 $443 $659 forward 7 unknown #
vertex $-1 $273 $660 #
vertex $-1 $457 $661 #
straight-curve $-1 41.024201178014465 0 -6.0545189897430722 0 -1 0 I I #
coedge $-1 $437 $439 $274 $449 reversed $267 $-1 #
edge $-1 $452 -20.951802101312865 $455 20.951802101312865 $448 $662 forward 7 unknown #
coedge $-1 $443 $275 $280 $458 forward $435 $-1 #
coedge $-1 $275 $443 $437 $653 reversed $435 $-1 #
vertex $-1 $276 $663 #
straight-curve $-1 0 20.951802101312865 6.0545189897430722 -1 0 0 I I #
coedge $-1 $277 $438 $279 $457 reversed $176 $-1 #
vertex $-1 $449 $664 #
straight-curve $-1 0 -20.951802101312865 6.0545189897430722 1 0 0 I I #
edge $-1 $282 -6.0545189897430722 $446 6.0545189897430722 $279 $665 forward 7 unknown #
edge $-1 $283 -6.0545189897430722 $445 6.0545189897430722 $280 $666 forward 7 unknown #
point $-1 41.024201178014465 -20.951802101312865 6.0545189897430722 #
point $-1 41.024201178014465 20.951802101312865 6.0545189897430722 #
face $-1 $-1 $300 $43 $-1 $667 reversed single #
loop $-1 $-1 $477 $285 #
plane-surface $-1 0 2.7840901895927015 0 0 -1 0 0 0 -1 forward_v I I I I #
coedge $-1 $668 $475 $478 $669 forward $286 $-1 #
coedge $-1 $481 $288 $289 $469 reversed $184 $-1 #
coedge $-1 $475 $668 $288 $467 reversed $286 $-1 #
edge $-1 $482 -6.0545189897430722 $670 6.0545189897430722 $466 $671 forward 7 unknown #
coedge $-1 $290 $289 $668 $672 forward $117 $-1 #
edge $-1 $473 -1.5 $670 1.5 $465 $673 forward 7 unknown #
coedge $-1 $478 $477 $290 $471 reversed $462 $-1 #
edge $-1 $674 -1.5 $472 1.5 $470 $675 forward 7 unknown #
vertex $-1 $292 $676 #
vertex $-1 $484 $677 #
straight-curve $-1 1.5 0 -6.0545189897430722 0 -1 0 I I #
coedge $-1 $464 $466 $293 $476 reversed $286 $-1 #
edge $-1 $479 -2.7840901895927015 $482 2.7840901895927015 $475 $678 forward 7 unknown #
coedge $-1 $470 $294 $299 $485 forward $462 $-1 #
coedge $-1 $294 $470 $464 $669 reversed $462 $-1 #
vertex $-1 $295 $679 #
straight-curve $-1 0 2.7840901895927015 6.0545189897430722 -1 0 0 I I #
coedge $-1 $296 $465 $298 $484 reversed $184 $-1 #
vertex $-1 $476 $680 #
straight-curve $-1 0 -2.7840901895927015 6.0545189897430722 1 0 0 I I #
edge $-1 $301 -6.0545189897430722 $473 6.0545189897430722 $298 $681 forward 7 unknown #
edge $-1 $302 -6.0545189897430722 $472 6.0545189897430722 $299 $682 forward 7 unknown #
point $-1 1.5 -2.7840901895927015 6.0545189897430722 #
point $-1 1.5 2.7840901895927015 6.0545189897430722 #
face $-1 $-1 $319 $44 $-1 $683 reversed single #
loop $-1 $-1 $504 $304 #
plane-surface $-1 0 3.8956187339135759 0 0 -1 0 0 0 -1 forward_v I I I I #
coedge $-1 $684 $502 $505 $685 forward $305 $-1 #
coedge $-1 $508 $307 $308 $496 reversed $192 $-1 #
coedge $-1 $502 $684 $307 $494 reversed $305 $-1 #
edge $-1 $509 -82.04840235602893 $686 82.04840235602893 $493 $687 forward 7 unknown #
coedge $-1 $309 $308 $684 $688 forward $121 $-1 #
edge $-1 $500 -164.09680471205786 $686 164.09680471205786 $492 $689 forward 7 unknown #
coedge $-1 $505 $504 $309 $498 reversed $489 $-1 #
edge $-1 $690 -164.09680471205786 $499 164.09680471205786 $497 $691 forward 7 unknown #
vertex $-1 $311 $692 #
vertex $-1 $511 $693 #
straight-curve $-1 164.09680471205786 0 -82.04840235602893 0 -1 0 I I #
coedge $-1 $491 $493 $312 $503 reversed $305 $-1 #
edge $-1 $506 -3.8956187339135759 $509 3.8956187339135759 $502 $694 forward 7 unknown #
coedge $-1 $497 $313 $318 $512 forward $489 $-1 #
coedge $-1 $313 $497 $491 $685 reversed $489 $-1 #
vertex $-1 $314 $695 #
straight-curve $-1 0 3.8956187339135759 82.04840235602893 -1 0 0 I I #
coedge $-1 $315 $492 $317 $511 reversed $192 $-1 #
vertex $-1 $503 $696 #
straight-curve $-1 0 -3.8956187339135759 82.04840235602893 1 0 0 I I #
edge $-1 $320 -82.04840235602893 $500 82.04840235602893 $317 $697 forward 7 unknown #
edge $-1 $321 -82.04840235602893 $499 82.04840235602893 $318 $698 forward 7 unknown #
point $-1 164.09680471205786 -3.8956187339135759 82.04840235602893 #
point $-1 164.09680471205786 3.8956187339135759 82.04840235602893 #
coedge $-1 $515 $515 $-1 $699 reversed $323 $-1 #
vertex $-1 $325 $700 #
ellipse-curve $-1 0 0 -0.75 0 0 -1 1.5 0 0 1 I I #
point $-1 1.5 0 -5.952230903042695 #
face $-1 $-1 $343 $46 $-1 $701 reversed single #
loop $-1 $-1 $535 $328 #
plane-surface $-1 0 3.8956187339135759 0 0 -1 0 0 0 -1 forward_v I I I I #
coedge $-1 $702 $533 $536 $703 forward $329 $-1 #
coedge $-1 $539 $331 $332 $527 reversed $205 $-1 #
coedge $-1 $533 $702 $331 $525 reversed $329 $-1 #
edge $-1 $540 -82.04840235602893 $704 82.04840235602893 $524 $705 forward 7 unknown #
coedge $-1 $333 $332 $702 $706 forward $130 $-1 #
edge $-1 $531 -164.09680471205786 $704 164.09680471205786 $523 $707 forward 7 unknown #
coedge $-1 $536 $535 $333 $529 reversed $520 $-1 #
edge $-1 $708 -164.09680471205786 $530 164.09680471205786 $528 $709 forward 7 unknown #
vertex $-1 $335 $710 #
vertex $-1 $542 $711 #
straight-curve $-1 164.09680471205786 0 -82.04840235602893 0 -1 0 I I #
coedge $-1 $522 $524 $336 $534 reversed $329 $-1 #
edge $-1 $537 -3.8956187339135759 $540 3.8956187339135759 $533 $712 forward 7 unknown #
coedge $-1 $528 $337 $342 $543 forward $520 $-1 #
coedge $-1 $337 $528 $522 $703 reversed $520 $-1 #
vertex $-1 $338 $713 #
straight-curve $-1 0 3.8956187339135759 82.04840235602893 -1 0 0 I I #
coedge $-1 $339 $523 $341 $542 reversed $205 $-1 #
vertex $-1 $534 $714 #
straight-curve $-1 0 -3.8956187339135759 82.04840235602893 1 0 0 I I #
edge $-1 $344 -82.04840235602893 $531 82.04840235602893 $341 $715 forward 7 unknown #
edge $-1 $345 -82.04840235602893 $530 82.04840235602893 $342 $716 forward 7 unknown #
point $-1 164.09680471205786 -3.8956187339135759 82.04840235602893 #
point $-1 164.09680471205786 3.8956187339135759 82.04840235602893 #
coedge $-1 $546 $546 $-1 $717 reversed $347 $-1 #
vertex $-1 $349 $718 #
ellipse-curve $-1 0 0 -0.75 0 0 -1 1.5 0 0 1 I I #
point $-1 1.5 0 -5.952230903042695 #
face $-1 $-1 $367 $48 $-1 $719 reversed single #
loop $-1 $-1 $566 $352 #
plane-surface $-1 0 3.8956187339135759 0 0 -1 0 0 0 -1 forward_v I I I I #
coedge $-1 $720 $564 $567 $721 forward $353 $-1 #
coedge $-1 $570 $355 $356 $558 reversed $218 $-1 #
coedge $-1 $564 $720 $355 $556 reversed $353 $-1 #
edge $-1 $571 -82.04840235602893 $722 82.04840235602893 $555 $723 forward 7 unknown #
coedge $-1 $357 $356 $720 $724 forward $139 $-1 #
edge $-1 $562 -164.09680471205786 $722 164.09680471205786 $554 $725 forward 7 unknown #
coedge $-1 $567 $566 $357 $560 reversed $551 $-1 #
edge $-1 $726 -164.09680471205786 $561 164.09680471205786 $559 $727 forward 7 unknown #
vertex $-1 $359 $728 #
vertex $-1 $573 $729 #
straight-curve $-1 164.09680471205786 0 -82.04840235602893 0 -1 0 I I #
coedge $-1 $553 $555 $360 $565 reversed $353 $-1 #
edge $-1 $568 -3.8956187339135759 $571 3.8956187339135759 $564 $730 forward 7 unknown #
coedge $-1 $559 $361 $366 $574 forward $551 $-1 #
coedge $-1 $361 $559 $553 $721 reversed $551 $-1 #
vertex $-1 $362 $731 #
straight-curve $-1 0 3.8956187339135759 82.04840235602893 -1 0 0 I I #
coedge $-1 $363 $554 $365 $573 reversed $218 $-1 #
vertex $-1 $565 $732 #
straight-curve $-1 0 -3.8956187339135759 82.04840235602893 1 0 0 I I #
edge $-1 $368 -82.04840235602893 $562 82.04840235602893 $365 $733 forward 7 unknown #
edge $-1 $369 -82.04840235602893 $561 82.04840235602893 $366 $734 forward 7 unknown #
point $-1 164.09680471205786 -3.8956187339135759 82.04840235602893 #
point $-1 164.09680471205786 3.8956187339135759 82.04840235602893 #
coedge $-1 $577 $577 $-1 $735 reversed $371 $-1 #
vertex $-1 $373 $736 #
ellipse-curve $-1 0 0 -0.75 0 0 -1 1.5 0 0 1 I I #
point $-1 1.5 0 -5.952230903042695 #
face $-1 $-1 $391 $50 $-1 $737 reversed single #
loop $-1 $-1 $597 $376 #
plane-surface $-1 0 3.2912849569196734 0 0 -1 0 0 0 -1 forward_v I I I I #
coedge $-1 $738 $595 $598 $739 forward $377 $-1 #
coedge $-1 $601 $379 $380 $589 reversed $231 $-1 #
coedge $-1 $595 $738 $379 $587 reversed $377 $-1 #
edge $-1 $602 -82.04840235602893 $740 82.04840235602893 $586 $741 forward 7 unknown #
coedge $-1 $381 $380 $738 $742 forward $148 $-1 #
edge $-1 $593 -164.09680471205786 $740 164.09680471205786 $585 $743 forward 7 unknown #
coedge $-1 $598 $597 $381 $591 reversed $582 $-1 #
edge $-1 $744 -164.09680471205786 $592 164.09680471205786 $590 $745 forward 7 unknown #
vertex $-1 $383 $746 #
vertex $-1 $604 $747 #
straight-curve $-1 164.09680471205786 0 -82.04840235602893 0 -1 0 I I #
coedge $-1 $584 $586 $384 $596 reversed $377 $-1 #
edge $-1 $599 -3.2912849569196734 $602 3.2912849569196734 $595 $748 forward 7 unknown #
coedge $-1 $590 $385 $390 $605 forward $582 $-1 #
coedge $-1 $385 $590 $584 $739 reversed $582 $-1 #
vertex $-1 $386 $749 #
straight-curve $-1 0 3.2912849569196734 82.04840235602893 -1 0 0 I I #
coedge $-1 $387 $585 $389 $604 reversed $231 $-1 #
vertex $-1 $596 $750 #
straight-curve $-1 0 -3.2912849569196734 82.04840235602893 1 0 0 I I #
edge $-1 $392 -82.04840235602893 $593 82.04840235602893 $389 $751 forward 7 unknown #
edge $-1 $393 -82.04840235602893 $592 82.04840235602893 $390 $752 forward 7 unknown #
point $-1 164.09680471205786 -3.2912849569196734 82.04840235602893 #
point $-1 164.09680471205786 3.2912849569196734 82.04840235602893 #
coedge $-1 $608 $608 $-1 $753 reversed $395 $-1 #
vertex $-1 $397 $754 #
ellipse-curve $-1 0 0 -0.25 0 0 -1 0.5 0 0 1 I I #
point $-1 0.5 0 -1.5135273293252354 #
coedge $-1 $612 $612 $-1 $755 reversed $400 $-1 #
vertex $-1 $402 $756 #
ellipse-curve $-1 0 0 -0.25 0 0 -1 0.5 0 0 1 I I #
point $-1 0.5 0 -1.5135273293252354 #
face $-1 $-1 $420 $53 $-1 $757 reversed single #
loop $-1 $-1 $632 $405 #
plane-surface $-1 0 3.2912849569196734 0 0 -1 0 0 0 -1 forward_v I I I I #
coedge $-1 $758 $630 $633 $759 forward $406 $-1 #
coedge $-1 $636 $408 $409 $624 reversed $249 $-1 #
coedge $-1 $630 $758 $408 $622 reversed $406 $-1 #
edge $-1 $637 -82.04840235602893 $760 82.04840235602893 $621 $761 forward 7 unknown #
coedge $-1 $410 $409 $758 $762 forward $162 $-1 #
edge $-1 $628 -164.09680471205786 $760 164.09680471205786 $620 $763 forward 7 unknown #
coedge $-1 $633 $632 $410 $626 reversed $617 $-1 #
edge $-1 $764 -164.09680471205786 $627 164.09680471205786 $625 $765 forward 7 unknown #
vertex $-1 $412 $766 #
vertex $-1 $639 $767 #
straight-curve $-1 164.09680471205786 0 -82.04840235602893 0 -1 0 I I #
coedge $-1 $619 $621 $413 $631 reversed $406 $-1 #
edge $-1 $634 -3.2912849569196734 $637 3.2912849569196734 $630 $768 forward 7 unknown #
coedge $-1 $625 $414 $419 $640 forward $617 $-1 #
coedge $-1 $414 $625 $619 $759 reversed $617 $-1 #
vertex $-1 $415 $769 #
straight-curve $-1 0 3.2912849569196734 82.04840235602893 -1 0 0 I I #
coedge $-1 $416 $620 $418 $639 reversed $249 $-1 #
vertex $-1 $631 $770 #
straight-curve $-1 0 -3.2912849569196734 82.04840235602893 1 0 0 I I #
edge $-1 $421 -82.04840235602893 $628 82.04840235602893 $418 $771 forward 7 unknown #
edge $-1 $422 -82.04840235602893 $627 82.04840235602893 $419 $772 forward 7 unknown #
point $-1 164.09680471205786 -3.2912849569196734 82.04840235602893 #
point $-1 164.09680471205786 3.2912849569196734 82.04840235602893 #
coedge $-1 $643 $643 $-1 $773 reversed $424 $-1 #
vertex $-1 $426 $774 #
ellipse-curve $-1 0 0 -0.25 0 0 -1 0.5 0 0 1 I I #
point $-1 0.5 0 -1.5135273293252354 #
coedge $-1 $647 $647 $-1 $775 reversed $429 $-1 #
vertex $-1 $431 $776 #
ellipse-curve $-1 0 0 -0.25 0 0 -1 0.5 0 0 1 I I #
point $-1 0.5 0 -1.5135273293252354 #
plane-surface $-1 41.024201178014465 0 0 -1 0 0 0 0 1 forward_v I I I I #
coedge $-1 $439 $437 $441 $656 reversed $267 $-1 #
edge $-1 $452 -6.0545189897430722 $658 6.0545189897430722 $451 $777 forward 7 unknown #
vertex $-1 $656 $778 #
straight-curve $-1 -41.024201178014465 -20.951802101312865 0 0 0 -1 I I #
edge $-1 $654 -20.951802101312865 $658 20.951802101312865 $652 $779 forward 7 unknown #
straight-curve $-1 0 -20.951802101312865 -6.0545189897430722 -1 0 0 I I #
vertex $-1 $444 $780 #
straight-curve $-1 0 20.951802101312865 -6.0545189897430722 1 0 0 I I #
point $-1 41.024201178014465 20.951802101312865 -6.0545189897430722 #
point $-1 41.024201178014465 -20.951802101312865 -6.0545189897430722 #
straight-curve $-1 -41.024201178014465 0 6.0545189897430722 0 -1 0 I I #
point $-1 -41.024201178014465 20.951802101312865 6.0545189897430722 #
point $-1 -41.024201178014465 -20.951802101312865 6.0545189897430722 #
straight-curve $-1 41.024201178014465 -20.951802101312865 0 0 0 -1 I I #
straight-curve $-1 41.024201178014465 20.951802101312865 0 0 0 -1 I I #
plane-surface $-1 1.5 0 0 -1 0 0 0 0 1 forward_v I I I I #
coedge $-1 $466 $464 $468 $672 reversed $286 $-1 #
edge $-1 $479 -6.0545189897430722 $674 6.0545189897430722 $478 $781 forward 7 unknown #
vertex $-1 $672 $782 #
straight-curve $-1 -1.5 -2.7840901895927015 0 0 0 -1 I I #
edge $-1 $670 -2.7840901895927015 $674 2.7840901895927015 $668 $783 forward 7 unknown #
straight-curve $-1 0 -2.7840901895927015 -6.0545189897430722 -1 0 0 I I #
vertex $-1 $471 $784 #
straight-curve $-1 0 2.7840901895927015 -6.0545189897430722 1 0 0 I I #
point $-1 1.5 2.7840901895927015 -6.0545189897430722 #
point $-1 1.5 -2.7840901895927015 -6.0545189897430722 #
straight-curve $-1 -1.5 0 6.0545189897430722 0 -1 0 I I #
point $-1 -1.5 2.7840901895927015 6.0545189897430722 #
point $-1 -1.5 -2.7840901895927015 6.0545189897430722 #
straight-curve $-1 1.5 -2.7840901895927015 0 0 0 -1 I I #
straight-curve $-1 1.5 2.7840901895927015 0 0 0 -1 I I #
plane-surface $-1 164.09680471205786 0 0 -1 0 0 0 0 1 forward_v I I I I #
coedge $-1 $493 $491 $495 $688 reversed $305 $-1 #
edge $-1 $506 -82.04840235602893 $690 82.04840235602893 $505 $785 forward 7 unknown #
vertex $-1 $688 $786 #
straight-curve $-1 -164.09680471205786 -3.8956187339135759 0 0 0 -1 I I #
edge $-1 $686 -3.8956187339135759 $690 3.8956187339135759 $684 $787 forward 7 unknown #
straight-curve $-1 0 -3.8956187339135759 -82.04840235602893 -1 0 0 I I #
vertex $-1 $498 $788 #
straight-curve $-1 0 3.8956187339135759 -82.04840235602893 1 0 0 I I #
point $-1 164.09680471205786 3.8956187339135759 -82.04840235602893 #
point $-1 164.09680471205786 -3.8956187339135759 -82.04840235602893 #
straight-curve $-1 -164.09680471205786 0 82.04840235602893 0 -1 0 I I #
point $-1 -164.09680471205786 3.8956187339135759 82.04840235602893 #
point $-1 -164.09680471205786 -3.8956187339135759 82.04840235602893 #
straight-curve $-1 164.09680471205786 -3.8956187339135759 0 0 0 -1 I I #
straight-curve $-1 164.09680471205786 3.8956187339135759 0 0 0 -1 I I #
edge $-1 $789 1 $789 0 $515 $-1 forward 7 unknown #
point $-1 1.5 0 -0.75 #
plane-surface $-1 164.09680471205786 0 0 -1 0 0 0 0 1 forward_v I I I I #
coedge $-1 $524 $522 $526 $706 reversed $329 $-1 #
edge $-1 $537 -82.04840235602893 $708 82.04840235602893 $536 $790 forward 7 unknown #
vertex $-1 $706 $791 #
straight-curve $-1 -164.09680471205786 -3.8956187339135759 0 0 0 -1 I I #
edge $-1 $704 -3.8956187339135759 $708 3.8956187339135759 $702 $792 forward 7 unknown #
straight-curve $-1 0 -3.8956187339135759 -82.04840235602893 -1 0 0 I I #
vertex $-1 $529 $793 #
straight-curve $-1 0 3.8956187339135759 -82.04840235602893 1 0 0 I I #
point $-1 164.09680471205786 3.8956187339135759 -82.04840235602893 #
point $-1 164.09680471205786 -3.8956187339135759 -82.04840235602893 #
straight-curve $-1 -164.09680471205786 0 82.04840235602893 0 -1 0 I I #
point $-1 -164.09680471205786 3.8956187339135759 82.04840235602893 #
point $-1 -164.09680471205786 -3.8956187339135759 82.04840235602893 #
straight-curve $-1 164.09680471205786 -3.8956187339135759 0 0 0 -1 I I #
straight-curve $-1 164.09680471205786 3.8956187339135759 0 0 0 -1 I I #
edge $-1 $794 1 $794 0 $546 $-1 forward 7 unknown #
point $-1 1.5 0 -0.75 #
plane-surface $-1 164.09680471205786 0 0 -1 0 0 0 0 1 forward_v I I I I #
coedge $-1 $555 $553 $557 $724 reversed $353 $-1 #
edge $-1 $568 -82.04840235602893 $726 82.04840235602893 $567 $795 forward 7 unknown #
vertex $-1 $724 $796 #
straight-curve $-1 -164.09680471205786 -3.8956187339135759 0 0 0 -1 I I #
edge $-1 $722 -3.8956187339135759 $726 3.8956187339135759 $720 $797 forward 7 unknown #
straight-curve $-1 0 -3.8956187339135759 -82.04840235602893 -1 0 0 I I #
vertex $-1 $560 $798 #
straight-curve $-1 0 3.8956187339135759 -82.04840235602893 1 0 0 I I #
point $-1 164.09680471205786 3.8956187339135759 -82.04840235602893 #
point $-1 164.09680471205786 -3.8956187339135759 -82.04840235602893 #
straight-curve $-1 -164.09680471205786 0 82.04840235602893 0 -1 0 I I #
point $-1 -164.09680471205786 3.8956187339135759 82.04840235602893 #
point $-1 -164.09680471205786 -3.8956187339135759 82.04840235602893 #
straight-curve $-1 164.09680471205786 -3.8956187339135759 0 0 0 -1 I I #
straight-curve $-1 164.09680471205786 3.8956187339135759 0 0 0 -1 I I #
edge $-1 $799 1 $799 0 $577 $-1 forward 7 unknown #
point $-1 1.5 0 -0.75 #
plane-surface $-1 164.09680471205786 0 0 -1 0 0 0 0 1 forward_v I I I I #
coedge $-1 $586 $584 $588 $742 reversed $377 $-1 #
edge $-1 $599 -82.04840235602893 $744 82.04840235602893 $598 $800 forward 7 unknown #
vertex $-1 $742 $801 #
straight-curve $-1 -164.09680471205786 -3.2912849569196734 0 0 0 -1 I I #
edge $-1 $740 -3.2912849569196734 $744 3.2912849569196734 $738 $802 forward 7 unknown #
straight-curve $-1 0 -3.2912849569196734 -82.04840235602893 -1 0 0 I I #
vertex $-1 $591 $803 #
straight-curve $-1 0 3.2912849569196734 -82.04840235602893 1 0 0 I I #
point $-1 164.09680471205786 3.2912849569196734 -82.04840235602893 #
point $-1 164.09680471205786 -3.2912849569196734 -82.04840235602893 #
straight-curve $-1 -164.09680471205786 0 82.04840235602893 0 -1 0 I I #
point $-1 -164.09680471205786 3.2912849569196734 82.04840235602893 #
point $-1 -164.09680471205786 -3.2912849569196734 82.04840235602893 #
straight-curve $-1 164.09680471205786 -3.2912849569196734 0 0 0 -1 I I #
straight-curve $-1 164.09680471205786 3.2912849569196734 0 0 0 -1 I I #
edge $-1 $804 1 $804 0 $608 $-1 forward 7 unknown #
point $-1 0.5 0 -0.25 #
edge $-1 $805 1 $805 0 $612 $-1 forward 7 unknown #
point $-1 0.5 0 -0.25 #
plane-surface $-1 164.09680471205786 0 0 -1 0 0 0 0 1 forward_v I I I I #
coedge $-1 $621 $619 $623 $762 reversed $406 $-1 #
edge $-1 $634 -82.04840235602893 $764 82.04840235602893 $633 $806 forward 7 unknown #
vertex $-1 $762 $807 #
straight-curve $-1 -164.09680471205786 -3.2912849569196734 0 0 0 -1 I I #
edge $-1 $760 -3.2912849569196734 $764 3.2912849569196734 $758 $808 forward 7 unknown #
straight-curve $-1 0 -3.2912849569196734 -82.04840235602893 -1 0 0 I I #
vertex $-1 $626 $809 #
straight-curve $-1 0 3.2912849569196734 -82.04840235602893 1 0 0 I I #
point $-1 164.09680471205786 3.2912849569196734 -82.04840235602893 #
point $-1 164.09680471205786 -3.2912849569196734 -82.04840235602893 #
straight-curve $-1 -164.09680471205786 0 82.04840235602893 0 -1 0 I I #
point $-1 -164.09680471205786 3.2912849569196734 82.04840235602893 #
point $-1 -164.09680471205786 -3.2912849569196734 82.04840235602893 #
straight-curve $-1 164.09680471205786 -3.2912849569196734 0 0 0 -1 I I #
straight-curve $-1 164.09680471205786 3.2912849569196734 0 0 0 -1 I I #
edge $-1 $810 1 $810 0 $643 $-1 forward 7 unknown #
point $-1 0.5 0 -0.25 #
edge $-1 $811 1 $811 0 $647 $-1 forward 7 unknown #
point $-1 0.5 0 -0.25 #
straight-curve $-1 -41.024201178014465 20.951802101312865 0 0 0 -1 I I #
point $-1 -41.024201178014465 -20.951802101312865 -6.0545189897430722 #
straight-curve $-1 -41.024201178014465 0 -6.0545189897430722 0 1 0 I I #
point $-1 -41.024201178014465 20.951802101312865 -6.0545189897430722 #
straight-curve $-1 -1.5 2.7840901895927015 0 0 0 -1 I I #
point $-1 -1.5 -2.7840901895927015 -6.0545189897430722 #
straight-curve $-1 -1.5 0 -6.0545189897430722 0 1 0 I I #
point $-1 -1.5 2.7840901895927015 -6.0545189897430722 #
straight-curve $-1 -164.09680471205786 3.8956187339135759 0 0 0 -1 I I #
point $-1 -164.09680471205786 -3.8956187339135759 -82.04840235602893 #
straight-curve $-1 -164.09680471205786 0 -82.04840235602893 0 1 0 I I #
point $-1 -164.09680471205786 3.8956187339135759 -82.04840235602893 #
vertex $-1 $699 $812 #
straight-curve $-1 -164.09680471205786 3.8956187339135759 0 0 0 -1 I I #
point $-1 -164.09680471205786 -3.8956187339135759 -82.04840235602893 #
straight-curve $-1 -164.09680471205786 0 -82.04840235602893 0 1 0 I I #
point $-1 -164.09680471205786 3.8956187339135759 -82.04840235602893 #
vertex $-1 $717 $813 #
straight-curve $-1 -164.09680471205786 3.8956187339135759 0 0 0 -1 I I #
point $-1 -164.09680471205786 -3.8956187339135759 -82.04840235602893 #
straight-curve $-1 -164.09680471205786 0 -82.04840235602893 0 1 0 I I #
point $-1 -164.09680471205786 3.8956187339135759 -82.04840235602893 #
vertex $-1 $735 $814 #
straight-curve $-1 -164.09680471205786 3.2912849569196734 0 0 0 -1 I I #
point $-1 -164.09680471205786 -3.2912849569196734 -82.04840235602893 #
straight-curve $-1 -164.09680471205786 0 -82.04840235602893 0 1 0 I I #
point $-1 -164.09680471205786 3.2912849569196734 -82.04840235602893 #
vertex $-1 $753 $815 #
vertex $-1 $755 $816 #
straight-curve $-1 -164.09680471205786 3.2912849569196734 0 0 0 -1 I I #
point $-1 -164.09680471205786 -3.2912849569196734 -82.04840235602893 #
straight-curve $-1 -164.09680471205786 0 -82.04840235602893 0 1 0 I I #
point $-1 -164.09680471205786 3.2912849569196734 -82.04840235602893 #
vertex $-1 $773 $817 #
vertex $-1 $775 $818 #
point $-1 0 0 0.75 #
point $-1 0 0 0.75 #
point $-1 0 0 0.75 #
point $-1 0 0 0.25 #
point $-1 0 0 0.25 #
point $-1 0 0 0.25 #
point $-1 0 0 0.25 #
End-of-ACIS-data 