500 0 11 0           
7 Unknown 11 ACIS 5.0 NT 24 Thu Mar 25 17:31:18 1999 
-1 9.9999999999999995e-007 1e-010 
body $-1 $11 $-1 $12 #
body $-1 $13 $-1 $14 #
body $-1 $15 $-1 $16 #
body $-1 $17 $-1 $18 #
body $-1 $19 $-1 $20 #
body $-1 $21 $-1 $22 #
body $-1 $23 $-1 $24 #
body $-1 $25 $-1 $26 #
body $-1 $27 $-1 $28 #
body $-1 $29 $-1 $30 #
body $-1 $31 $-1 $32 #
lump $-1 $-1 $33 $0 #
transform $-1 1 0 0 0 1 0 0 0 1 69.324625385296187 35.368528090872282 9.1477626489252444 1 rotate no_reflect no_shear #
lump $-1 $-1 $34 $1 #
transform $-1 1 0 0 0 1 0 0 0 1 69.324625385296187 35.368528090872282 9.1477626489252444 1 rotate no_reflect no_shear #
lump $-1 $-1 $35 $2 #
transform $-1 1 0 0 0 1 0 0 0 1 69.324625385296187 35.368528090872282 9.1477626489252444 1 rotate no_reflect no_shear #
lump $-1 $-1 $36 $3 #
transform $-1 1 0 0 0 1 0 0 0 1 69.324625385296187 35.368528090872282 9.1477626489252444 1 rotate no_reflect no_shear #
lump $-1 $-1 $37 $4 #
transform $-1 1 0 0 0 1 0 0 0 1 69.324625385296187 35.368528090872282 9.1477626489252444 1 rotate no_reflect no_shear #
lump $-1 $-1 $38 $5 #
transform $-1 1 0 0 0 1 0 0 0 1 69.324625385296187 35.368528090872282 9.1477626489252444 1 rotate no_reflect no_shear #
lump $-1 $-1 $39 $6 #
transform $-1 1 0 0 0 1 0 0 0 1 69.324625385296187 35.368528090872282 9.1477626489252444 1 rotate no_reflect no_shear #
lump $-1 $-1 $40 $7 #
transform $-1 1 0 0 0 1 0 0 0 1 69.324625385296187 35.368528090872282 9.1477626489252444 1 rotate no_reflect no_shear #
lump $-1 $-1 $41 $8 #
transform $-1 1 0 0 0 1 0 0 0 1 69.324625385296187 35.368528090872282 9.1477626489252444 1 rotate no_reflect no_shear #
lump $-1 $-1 $42 $9 #
transform $-1 1 0 0 0 1 0 0 0 1 69.324625385296187 35.368528090872282 9.1477626489252444 1 rotate no_reflect no_shear #
lump $-1 $-1 $43 $10 #
transform $-1 1 0 0 0 1 0 0 0 1 69.324625385296187 35.368528090872282 9.1477626489252444 1 rotate no_reflect no_shear #
shell $-1 $-1 $-1 $44 $-1 $11 #
shell $-1 $-1 $-1 $45 $-1 $13 #
shell $-1 $-1 $-1 $46 $-1 $15 #
shell $-1 $-1 $-1 $47 $-1 $17 #
shell $-1 $-1 $-1 $48 $-1 $19 #
shell $-1 $-1 $-1 $49 $-1 $21 #
shell $-1 $-1 $-1 $50 $-1 $23 #
shell $-1 $-1 $-1 $51 $-1 $25 #
shell $-1 $-1 $-1 $52 $-1 $27 #
shell $-1 $-1 $-1 $53 $-1 $29 #
shell $-1 $-1 $-1 $54 $-1 $31 #
face $-1 $55 $56 $33 $-1 $57 forward single #
face $-1 $58 $59 $34 $-1 $60 forward single #
face $-1 $61 $62 $35 $-1 $63 forward single #
face $-1 $64 $65 $36 $-1 $66 reversed single #
face $-1 $67 $68 $37 $-1 $69 forward single #
face $-1 $70 $71 $38 $-1 $72 forward single #
face $-1 $73 $74 $39 $-1 $75 forward single #
face $-1 $76 $77 $40 $-1 $78 reversed single #
face $-1 $79 $80 $41 $-1 $81 forward single #
face $-1 $82 $83 $42 $-1 $84 reversed single #
face $-1 $85 $86 $43 $-1 $87 forward single #
face $-1 $88 $89 $33 $-1 $90 reversed single #
loop $-1 $-1 $91 $44 #
plane-surface $-1 0 0 9.1477626489252444 0 0 1 1 0 0 forward_v I I I I #
face $-1 $92 $93 $34 $-1 $94 reversed single #
loop $-1 $-1 $95 $45 #
plane-surface $-1 0 -32.316600298294006 8.4260119768896118 0 0 1 1 0 0 forward_v I I I I #
face $-1 $96 $97 $35 $-1 $98 reversed single #
loop $-1 $-1 $99 $46 #
plane-surface $-1 0 32.316600298294013 8.4260119768896118 0 0 1 1 0 0 forward_v I I I I #
face $-1 $100 $101 $36 $-1 $102 reversed single #
loop $-1 $-1 $103 $47 #
plane-surface $-1 -69.324625385296173 21.319189375849433 2.5962932076731846 -0.64278761758704617 0 0.76604443648966558 0.76604443648966558 0 0.64278761758704617 forward_v I I I I #
face $-1 $104 $105 $37 $-1 $106 forward single #
loop $-1 $107 $108 $48 #
cone-surface $-1 -64.095540719110076 16.551899497929654 4.2926968819431224 0.64278761758704617 0 -0.76604443648966558 1.1490666547344983 0 0.96418142638056925 1 I I 0 1 1.5 forward I I I I #
face $-1 $109 $110 $38 $-1 $111 forward single #
loop $-1 $112 $113 $49 #
cone-surface $-1 -64.095540719110076 21.319189375849433 4.2926968819431224 0.64278761758704617 0 -0.76604443648966558 1.1490666547344983 0 0.96418142638056925 1 I I 0 1 1.5 forward I I I I #
face $-1 $114 $115 $39 $-1 $116 forward single #
loop $-1 $117 $118 $50 #
cone-surface $-1 -64.095540719110076 26.086479253769213 4.2926968819431224 0.64278761758704617 0 -0.76604443648966558 1.1490666547344983 0 0.96418142638056925 1 I I 0 1 1.5 forward I I I I #
face $-1 $119 $120 $40 $-1 $121 reversed single #
loop $-1 $-1 $122 $51 #
plane-surface $-1 113.43295243707455 -13.701384046824391 192.80295261605934 0 1 0 0.84804810408105047 0 0.52991925155115449 forward_v I I I I #
face $-1 $123 $124 $41 $-1 $125 forward single #
loop $-1 $126 $127 $52 #
cone-surface $-1 65.686960304259458 -8.7113126928985416 4.6197250797891272 -0.84804810408105047 0 -0.52991925155115449 0.79487887732673168 0 -1.2720721561215758 1 I I 0 1 1.5 forward I I I I #
face $-1 $128 $129 $42 $-1 $130 reversed single #
loop $-1 $-1 $131 $53 #
plane-surface $-1 113.43295243707455 3.7212413389726962 192.80295261605934 0 1 0 0.84804810408105047 0 0.52991925155115449 forward_v I I I I #
face $-1 $132 $133 $43 $-1 $134 forward single #
loop $-1 $135 $136 $54 #
cone-surface $-1 65.686960304259458 8.7113126928985452 4.6197250797891272 -0.84804810408105047 0 -0.52991925155115449 0.79487887732673168 0 -1.2720721561215758 1 I I 0 1 1.5 forward I I I I #
face $-1 $137 $138 $33 $-1 $139 reversed single #
loop $-1 $-1 $140 $55 #
plane-surface $-1 0 0 -9.1477626489252444 0 0 1 1 0 0 forward_v I I I I #
coedge $-1 $141 $142 $143 $144 forward $56 $-1 #
face $-1 $145 $146 $34 $-1 $147 reversed single #
loop $-1 $-1 $148 $58 #
plane-surface $-1 0 -32.316600298294006 5.2324051149213071 0 0 1 1 0 0 forward_v I I I I #
coedge $-1 $149 $150 $151 $152 reversed $59 $-1 #
face $-1 $153 $154 $35 $-1 $155 reversed single #
loop $-1 $-1 $156 $61 #
plane-surface $-1 0 32.316600298294013 5.2324051149213071 0 0 1 1 0 0 forward_v I I I I #
coedge $-1 $157 $158 $159 $160 reversed $62 $-1 #
face $-1 $161 $162 $36 $-1 $163 forward single #
loop $-1 $-1 $164 $64 #
plane-surface $-1 -158.44664696835417 13.373706245983136 108.80778038394595 0 1 0 -0.64278761758704617 0 0.76604443648966558 forward_v I I I I #
coedge $-1 $165 $166 $167 $168 reversed $65 $-1 #
face $-1 $-1 $169 $37 $-1 $170 forward single #
loop $-1 $171 $172 $67 #
cone-surface $-1 -62.288233879658961 16.551899497929654 2.1388325082197763 0.64278761758704617 0 -0.76604443648966558 0.57453332736724916 0 0.48209071319028463 1 I I -0.70710678118654757 0.70710678118654757 0.75 forward I I I I #
loop $-1 $-1 $173 $48 #
coedge $-1 $108 $108 $174 $175 reversed $68 $-1 #
face $-1 $-1 $176 $38 $-1 $177 forward single #
loop $-1 $178 $179 $70 #
cone-surface $-1 -62.288233879658961 21.319189375849433 2.1388325082197763 0.64278761758704617 0 -0.76604443648966558 0.57453332736724916 0 0.48209071319028463 1 I I -0.70710678118654757 0.70710678118654757 0.75 forward I I I I #
loop $-1 $-1 $180 $49 #
coedge $-1 $113 $113 $181 $182 reversed $71 $-1 #
face $-1 $-1 $183 $39 $-1 $184 forward single #
loop $-1 $185 $186 $73 #
cone-surface $-1 -62.288233879658961 26.086479253769213 2.1388325082197763 0.64278761758704617 0 -0.76604443648966558 0.57453332736724916 0 0.48209071319028463 1 I I -0.70710678118654757 0.70710678118654757 0.75 forward I I I I #
loop $-1 $-1 $187 $50 #
coedge $-1 $118 $118 $188 $189 reversed $74 $-1 #
face $-1 $190 $191 $40 $-1 $192 reversed single #
loop $-1 $-1 $193 $76 #
plane-surface $-1 -4.1482818111844466 -8.7113126928985416 119.3300454195787 0.84804810408105047 0 0.52991925155115449 0.52991925155115449 0 -0.84804810408105047 forward_v I I I I #
coedge $-1 $194 $195 $196 $197 reversed $77 $-1 #
face $-1 $-1 $198 $41 $-1 $199 forward single #
loop $-1 $200 $201 $79 #
cone-surface $-1 63.724948075546777 -8.7113126928985416 3.3937238107924017 -0.84804810408105047 0 -0.52991925155115449 0.39743943866336584 0 -0.63603607806078788 1 I I -0.70710678118654757 0.70710678118654757 0.75 forward I I I I #
loop $-1 $-1 $202 $52 #
coedge $-1 $127 $127 $203 $204 reversed $80 $-1 #
face $-1 $205 $206 $42 $-1 $207 reversed single #
loop $-1 $-1 $208 $82 #
plane-surface $-1 -4.1482818111844466 8.7113126928985452 119.3300454195787 0.84804810408105047 0 0.52991925155115449 0.52991925155115449 0 -0.84804810408105047 forward_v I I I I #
coedge $-1 $209 $210 $211 $212 reversed $83 $-1 #
face $-1 $-1 $213 $43 $-1 $214 forward single #
loop $-1 $215 $216 $85 #
cone-surface $-1 63.724948075546777 8.7113126928985452 3.3937238107924017 -0.84804810408105047 0 -0.52991925155115449 0.39743943866336584 0 -0.63603607806078788 1 I I -0.70710678118654757 0.70710678118654757 0.75 forward I I I I #
loop $-1 $-1 $217 $54 #
coedge $-1 $136 $136 $218 $219 reversed $86 $-1 #
face $-1 $220 $221 $33 $-1 $222 reversed single #
loop $-1 $-1 $223 $88 #
plane-surface $-1 0 -35.368528090872282 0 0 1 0 0 0 1 forward_v I I I I #
coedge $-1 $224 $225 $226 $227 forward $89 $-1 #
coedge $-1 $228 $91 $229 $230 forward $56 $-1 #
coedge $-1 $91 $228 $231 $232 forward $56 $-1 #
coedge $-1 $233 $234 $91 $144 reversed $235 $-1 #
edge $-1 $236 -35.368528090872282 $237 35.368528090872282 $143 $238 forward 7 unknown #
face $-1 $239 $240 $34 $-1 $241 reversed single #
loop $-1 $-1 $242 $92 #
plane-surface $-1 0 -29.26467250571573 6.829208545905459 0 -1 0 0 0 -1 forward_v I I I I #
coedge $-1 $243 $244 $245 $246 reversed $93 $-1 #
coedge $-1 $247 $95 $248 $249 forward $59 $-1 #
coedge $-1 $95 $247 $250 $251 reversed $59 $-1 #
coedge $-1 $252 $253 $95 $152 forward $254 $-1 #
edge $-1 $255 13.106372356568727 $256 19.210227941725279 $151 $257 forward 7 unknown #
face $-1 $258 $259 $35 $-1 $260 reversed single #
loop $-1 $-1 $261 $96 #
plane-surface $-1 0 29.264672505715737 6.829208545905459 0 1 0 0 0 1 forward_v I I I I #
coedge $-1 $262 $263 $264 $265 reversed $97 $-1 #
coedge $-1 $266 $99 $267 $268 reversed $62 $-1 #
coedge $-1 $99 $266 $269 $270 forward $62 $-1 #
coedge $-1 $271 $272 $99 $160 forward $259 $-1 #
edge $-1 $273 -19.210227941725282 $274 -13.10637235656873 $159 $275 forward 7 unknown #
face $-1 $276 $277 $36 $-1 $278 reversed single #
loop $-1 $-1 $279 $100 #
plane-surface $-1 0 29.264672505715737 6.829208545905459 0 1 0 0 0 1 forward_v I I I I #
coedge $-1 $280 $281 $282 $283 reversed $101 $-1 #
coedge $-1 $284 $103 $279 $285 forward $65 $-1 #
coedge $-1 $103 $284 $280 $286 forward $65 $-1 #
coedge $-1 $282 $287 $103 $168 forward $277 $-1 #
edge $-1 $288 -18.605077817791013 $289 -2.7141115580584199 $167 $290 forward 7 unknown #
loop $-1 $-1 $174 $104 #
plane-surface $-1 -69.324625385296173 21.319189375849433 2.5962932076731846 -0.64278761758704617 0 0.76604443648966558 0.76604443648966558 0 0.64278761758704617 forward_v I I I I #
loop $-1 $-1 $291 $67 #
coedge $-1 $172 $172 $173 $292 reversed $105 $-1 #
coedge $-1 $173 $173 $172 $292 forward $107 $-1 #
coedge $-1 $174 $174 $108 $175 forward $169 $-1 #
edge $-1 $293 0 $293 6.2831853071796004 $174 $294 forward 7 unknown #
loop $-1 $-1 $181 $109 #
plane-surface $-1 -69.324625385296173 21.319189375849433 2.5962932076731846 -0.64278761758704617 0 0.76604443648966558 0.76604443648966558 0 0.64278761758704617 forward_v I I I I #
loop $-1 $-1 $295 $70 #
coedge $-1 $179 $179 $180 $296 reversed $110 $-1 #
coedge $-1 $180 $180 $179 $296 forward $112 $-1 #
coedge $-1 $181 $181 $113 $182 forward $176 $-1 #
edge $-1 $297 0 $297 6.2831853071796004 $181 $298 forward 7 unknown #
loop $-1 $-1 $188 $114 #
plane-surface $-1 -69.324625385296173 21.319189375849433 2.5962932076731846 -0.64278761758704617 0 0.76604443648966558 0.76604443648966558 0 0.64278761758704617 forward_v I I I I #
loop $-1 $-1 $299 $73 #
coedge $-1 $186 $186 $187 $300 reversed $115 $-1 #
coedge $-1 $187 $187 $186 $300 forward $117 $-1 #
coedge $-1 $188 $188 $118 $189 forward $183 $-1 #
edge $-1 $301 0 $301 6.2831853071796004 $188 $302 forward 7 unknown #
face $-1 $303 $304 $40 $-1 $305 forward single #
loop $-1 $-1 $306 $119 #
plane-surface $-1 113.43295243707455 -3.7212413389726926 192.80295261605934 0 -1 0 -0.84804810408105047 0 -0.52991925155115449 forward_v I I I I #
coedge $-1 $307 $308 $309 $310 reversed $120 $-1 #
coedge $-1 $195 $122 $311 $312 reversed $77 $-1 #
coedge $-1 $122 $194 $307 $313 reversed $77 $-1 #
coedge $-1 $309 $314 $122 $197 forward $315 $-1 #
edge $-1 $316 87.25371365910442 $317 94.65266513670997 $196 $318 forward 7 unknown #
loop $-1 $-1 $203 $123 #
plane-surface $-1 -4.1482818111844466 -8.7113126928985416 119.3300454195787 0.84804810408105047 0 0.52991925155115449 0.52991925155115449 0 -0.84804810408105047 forward_v I I I I #
loop $-1 $-1 $319 $79 #
coedge $-1 $201 $201 $202 $320 reversed $124 $-1 #
coedge $-1 $202 $202 $201 $320 forward $126 $-1 #
coedge $-1 $203 $203 $127 $204 forward $198 $-1 #
edge $-1 $321 0 $321 6.2831853071796004 $203 $322 forward 7 unknown #
face $-1 $323 $324 $42 $-1 $325 reversed single #
loop $-1 $-1 $326 $128 #
plane-surface $-1 113.43295243707455 13.701384046824394 192.80295261605934 0 -1 0 -0.84804810408105047 0 -0.52991925155115449 forward_v I I I I #
coedge $-1 $327 $328 $329 $330 reversed $129 $-1 #
coedge $-1 $210 $131 $331 $332 reversed $83 $-1 #
coedge $-1 $131 $209 $327 $333 reversed $83 $-1 #
coedge $-1 $329 $334 $131 $212 forward $324 $-1 #
edge $-1 $335 87.25371365910442 $336 94.65266513670997 $211 $337 forward 7 unknown #
loop $-1 $-1 $218 $132 #
plane-surface $-1 -4.1482818111844466 8.7113126928985452 119.3300454195787 0.84804810408105047 0 0.52991925155115449 0.52991925155115449 0 -0.84804810408105047 forward_v I I I I #
loop $-1 $-1 $338 $85 #
coedge $-1 $216 $216 $217 $339 reversed $133 $-1 #
coedge $-1 $217 $217 $216 $339 forward $135 $-1 #
coedge $-1 $218 $218 $136 $219 forward $213 $-1 #
edge $-1 $340 0 $340 6.2831853071796004 $218 $341 forward 7 unknown #
face $-1 $342 $343 $33 $-1 $344 reversed single #
loop $-1 $-1 $345 $137 #
plane-surface $-1 -69.324625385296187 0 0 1 0 0 0 0 -1 forward_v I I I I #
coedge $-1 $346 $231 $347 $348 forward $138 $-1 #
coedge $-1 $349 $140 $346 $350 forward $89 $-1 #
coedge $-1 $140 $349 $351 $352 forward $89 $-1 #
coedge $-1 $234 $233 $140 $227 reversed $235 $-1 #
edge $-1 $353 -35.368528090872282 $354 35.368528090872282 $226 $355 forward 7 unknown #
coedge $-1 $142 $141 $356 $357 forward $56 $-1 #
coedge $-1 $358 $359 $141 $230 reversed $343 $-1 #
edge $-1 $237 -69.324625385296187 $360 69.324625385296187 $229 $361 forward 7 unknown #
coedge $-1 $223 $362 $142 $232 reversed $138 $-1 #
edge $-1 $363 -69.324625385296187 $236 69.324625385296187 $231 $364 forward 7 unknown #
coedge $-1 $226 $143 $362 $365 forward $235 $-1 #
coedge $-1 $143 $226 $358 $366 reversed $235 $-1 #
loop $-1 $-1 $233 $342 #
vertex $-1 $144 $367 #
vertex $-1 $144 $368 #
straight-curve $-1 69.324625385296187 0 9.1477626489252444 0 1 0 I I #
face $-1 $369 $370 $34 $-1 $371 reversed single #
loop $-1 $-1 $372 $145 #
plane-surface $-1 -69.324625385296187 0 0 1 0 0 0 0 -1 forward_v I I I I #
coedge $-1 $373 $248 $253 $374 reversed $146 $-1 #
coedge $-1 $375 $148 $376 $377 reversed $93 $-1 #
coedge $-1 $148 $375 $373 $378 forward $93 $-1 #
coedge $-1 $253 $252 $148 $246 forward $254 $-1 #
edge $-1 $379 -19.210227941725279 $380 -13.106372356568727 $245 $381 forward 7 unknown #
coedge $-1 $150 $149 $372 $382 reversed $59 $-1 #
coedge $-1 $242 $383 $149 $249 reversed $146 $-1 #
edge $-1 $255 -69.324625385296187 $384 69.324625385296187 $248 $385 forward 7 unknown #
coedge $-1 $386 $387 $150 $251 forward $370 $-1 #
edge $-1 $256 -69.324625385296187 $388 69.324625385296187 $250 $389 forward 7 unknown #
coedge $-1 $245 $151 $387 $390 forward $254 $-1 #
coedge $-1 $151 $245 $242 $374 forward $254 $-1 #
loop $-1 $-1 $151 $369 #
vertex $-1 $152 $391 #
vertex $-1 $390 $392 #
straight-curve $-1 69.324625385296187 -16.158300149147003 8.4260119768896118 0 -1 0 I I #
face $-1 $393 $394 $35 $-1 $395 reversed single #
loop $-1 $-1 $159 $153 #
plane-surface $-1 69.324625385296187 0 0 -1 0 0 0 0 1 forward_v I I I I #
coedge $-1 $396 $397 $262 $398 reversed $154 $-1 #
coedge $-1 $399 $156 $261 $398 forward $97 $-1 #
coedge $-1 $156 $399 $400 $401 reversed $97 $-1 #
coedge $-1 $272 $271 $156 $265 forward $259 $-1 #
edge $-1 $402 13.10637235656873 $403 19.210227941725282 $264 $404 forward 7 unknown #
coedge $-1 $158 $157 $405 $406 reversed $62 $-1 #
coedge $-1 $407 $408 $157 $268 forward $409 $-1 #
edge $-1 $410 -69.324625385296187 $273 69.324625385296187 $267 $411 forward 7 unknown #
coedge $-1 $397 $396 $158 $270 reversed $154 $-1 #
edge $-1 $412 -69.324625385296187 $274 69.324625385296187 $269 $413 forward 7 unknown #
coedge $-1 $264 $159 $396 $414 forward $259 $-1 #
coedge $-1 $159 $264 $407 $415 reversed $259 $-1 #
vertex $-1 $415 $416 #
vertex $-1 $160 $417 #
straight-curve $-1 69.324625385296187 16.158300149147006 8.4260119768896118 0 -1 0 I I #
face $-1 $-1 $418 $36 $-1 $419 forward single #
loop $-1 $-1 $287 $161 #
plane-surface $-1 -69.324625385296187 0 0 1 0 0 0 0 -1 forward_v I I I I #
coedge $-1 $420 $421 $165 $285 reversed $162 $-1 #
coedge $-1 $281 $164 $166 $286 reversed $101 $-1 #
coedge $-1 $164 $280 $422 $423 reversed $101 $-1 #
coedge $-1 $424 $167 $164 $283 forward $277 $-1 #
edge $-1 $289 -51.807596984299806 $425 -45.256127543047732 $282 $426 forward 7 unknown #
coedge $-1 $166 $165 $427 $428 reversed $65 $-1 #
edge $-1 $288 -1.8593432412625586e-014 $429 10.192276985430354 $279 $430 forward 7 unknown #
edge $-1 $431 -10.192276985430354 $289 1.8593432412625586e-014 $280 $432 forward 7 unknown #
coedge $-1 $167 $424 $420 $433 forward $277 $-1 #
vertex $-1 $168 $434 #
vertex $-1 $168 $435 #
straight-curve $-1 -69.324625385296187 10.659594687924717 2.5962932076731668 0 -1 0 I I #
coedge $-1 $291 $291 $-1 $436 reversed $171 $-1 #
edge $-1 $437 0 $437 6.2831853071796004 $172 $438 forward 7 unknown #
vertex $-1 $175 $439 #
ellipse-curve $-1 -65.420756845370889 16.551899497929654 5.8720279282992056 -0.64278761758704617 0 0.76604443648966558 1.1490666547344983 0 0.96418142638056925 1 I I #
coedge $-1 $295 $295 $-1 $440 reversed $178 $-1 #
edge $-1 $441 0 $441 6.2831853071796004 $179 $442 forward 7 unknown #
vertex $-1 $182 $443 #
ellipse-curve $-1 -65.420756845370889 21.319189375849433 5.8720279282992056 -0.64278761758704617 0 0.76604443648966558 1.1490666547344983 0 0.96418142638056925 1 I I #
coedge $-1 $299 $299 $-1 $444 reversed $185 $-1 #
edge $-1 $445 0 $445 6.2831853071796004 $186 $446 forward 7 unknown #
vertex $-1 $189 $447 #
ellipse-curve $-1 -65.420756845370889 26.086479253769213 5.8720279282992056 -0.64278761758704617 0 0.76604443648966558 1.1490666547344983 0 0.96418142638056925 1 I I #
face $-1 $-1 $315 $40 $-1 $448 reversed single #
loop $-1 $-1 $449 $190 #
plane-surface $-1 0 0 9.1477626489252444 0 0 1 1 0 0 forward_v I I I I #
coedge $-1 $450 $451 $452 $453 reversed $191 $-1 #
coedge $-1 $454 $193 $195 $313 forward $120 $-1 #
coedge $-1 $193 $454 $450 $455 forward $120 $-1 #
coedge $-1 $452 $196 $193 $310 forward $315 $-1 #
edge $-1 $317 -9.3457277003751198 $456 0.6344150074765782 $309 $457 forward 7 unknown #
coedge $-1 $458 $459 $194 $312 forward $304 $-1 #
edge $-1 $460 7.9847713059892342 $316 12.608149166758913 $311 $461 forward 7 unknown #
edge $-1 $317 -138.64925077059237 $460 -129.92456706220406 $195 $462 forward 7 unknown #
coedge $-1 $196 $452 $458 $463 reversed $315 $-1 #
loop $-1 $-1 $452 $303 #
vertex $-1 $463 $464 #
vertex $-1 $197 $465 #
straight-curve $-1 69.324625385296187 -13.701384046824391 96.401476308029672 0 0 -1 I I #
coedge $-1 $319 $319 $-1 $466 reversed $200 $-1 #
edge $-1 $467 0 $467 6.2831853071796004 $201 $468 forward 7 unknown #
vertex $-1 $204 $469 #
ellipse-curve $-1 67.012936454911355 -8.7113126928985416 5.4482869101224889 0.84804810408105047 0 0.52991925155115449 0.79487887732673168 0 -1.2720721561215758 1 I I #
face $-1 $-1 $470 $42 $-1 $471 forward single #
loop $-1 $-1 $211 $205 #
plane-surface $-1 69.324625385296187 0 0 -1 0 0 0 0 1 forward_v I I I I #
coedge $-1 $472 $473 $474 $475 reversed $206 $-1 #
coedge $-1 $476 $208 $210 $333 forward $129 $-1 #
coedge $-1 $208 $476 $472 $477 forward $129 $-1 #
coedge $-1 $474 $211 $208 $330 forward $324 $-1 #
edge $-1 $336 -0.63441500747657642 $478 9.3457277003751216 $329 $479 forward 7 unknown #
coedge $-1 $480 $481 $209 $332 forward $470 $-1 #
edge $-1 $482 7.9847713059892342 $335 12.608149166758913 $331 $483 forward 7 unknown #
edge $-1 $336 -138.64925077059237 $482 -129.92456706220406 $210 $484 forward 7 unknown #
coedge $-1 $211 $474 $480 $485 reversed $324 $-1 #
vertex $-1 $485 $486 #
vertex $-1 $212 $487 #
straight-curve $-1 69.324625385296187 3.7212413389726962 96.401476308029672 0 0 -1 I I #
coedge $-1 $338 $338 $-1 $488 reversed $215 $-1 #
edge $-1 $489 0 $489 6.2831853071796004 $216 $490 forward 7 unknown #
vertex $-1 $219 $491 #
ellipse-curve $-1 67.012936454911355 8.7113126928985452 5.4482869101224889 0.84804810408105047 0 0.52991925155115449 0.79487887732673168 0 -1.2720721561215758 1 I I #
face $-1 $-1 $235 $33 $-1 $492 reversed single #
loop $-1 $-1 $358 $220 #
plane-surface $-1 0 35.368528090872282 0 0 -1 0 0 0 -1 forward_v I I I I #
coedge $-1 $493 $356 $359 $494 forward $221 $-1 #
coedge $-1 $362 $223 $224 $350 reversed $138 $-1 #
coedge $-1 $356 $493 $223 $348 reversed $221 $-1 #
edge $-1 $363 -9.1477626489252444 $495 9.1477626489252444 $347 $496 forward 7 unknown #
coedge $-1 $225 $224 $493 $497 forward $89 $-1 #
edge $-1 $354 -69.324625385296187 $495 69.324625385296187 $346 $498 forward 7 unknown #
coedge $-1 $359 $358 $225 $352 reversed $343 $-1 #
edge $-1 $499 -69.324625385296187 $353 69.324625385296187 $351 $500 forward 7 unknown #
vertex $-1 $227 $501 #
vertex $-1 $365 $502 #
straight-curve $-1 69.324625385296187 0 -9.1477626489252444 0 -1 0 I I #
coedge $-1 $345 $347 $228 $357 reversed $221 $-1 #
edge $-1 $360 -35.368528090872282 $363 35.368528090872282 $356 $503 forward 7 unknown #
coedge $-1 $351 $229 $234 $366 forward $343 $-1 #
coedge $-1 $229 $351 $345 $494 reversed $343 $-1 #
vertex $-1 $230 $504 #
straight-curve $-1 0 35.368528090872282 9.1477626489252444 -1 0 0 I I #
coedge $-1 $231 $346 $233 $365 reversed $138 $-1 #
vertex $-1 $357 $505 #
straight-curve $-1 0 -35.368528090872282 9.1477626489252444 1 0 0 I I #
edge $-1 $236 -9.1477626489252444 $354 9.1477626489252444 $233 $506 forward 7 unknown #
edge $-1 $237 -9.1477626489252444 $353 9.1477626489252444 $234 $507 forward 7 unknown #
point $-1 69.324625385296187 -35.368528090872282 9.1477626489252444 #
point $-1 69.324625385296187 35.368528090872282 9.1477626489252444 #
face $-1 $-1 $254 $34 $-1 $508 reversed single #
loop $-1 $-1 $250 $239 #
plane-surface $-1 0 -35.368528090872282 0 0 1 0 0 0 1 forward_v I I I I #
coedge $-1 $509 $510 $247 $382 forward $240 $-1 #
coedge $-1 $383 $242 $244 $378 reversed $146 $-1 #
edge $-1 $380 1.8178008419685776 $255 5.0114077039368823 $253 $511 forward 7 unknown #
coedge $-1 $244 $243 $512 $513 reversed $93 $-1 #
coedge $-1 $387 $386 $243 $377 forward $370 $-1 #
edge $-1 $514 -69.324625385296187 $379 69.324625385296187 $376 $515 forward 7 unknown #
edge $-1 $516 -69.324625385296187 $380 69.324625385296187 $373 $517 forward 7 unknown #
vertex $-1 $377 $518 #
vertex $-1 $246 $519 #
straight-curve $-1 69.324625385296187 -16.158300149147003 5.2324051149213071 0 1 0 I I #
edge $-1 $388 -19.210227941725279 $384 -13.106372356568727 $372 $520 forward 7 unknown #
coedge $-1 $248 $373 $509 $521 reversed $146 $-1 #
vertex $-1 $382 $522 #
straight-curve $-1 0 -29.26467250571573 8.4260119768896118 -1 0 0 I I #
coedge $-1 $376 $250 $510 $523 forward $370 $-1 #
coedge $-1 $250 $376 $252 $390 reversed $370 $-1 #
vertex $-1 $523 $524 #
straight-curve $-1 0 -35.368528090872282 8.4260119768896118 -1 0 0 I I #
edge $-1 $256 -8.4260119768896118 $379 -5.2324051149213071 $252 $525 forward 7 unknown #
point $-1 69.324625385296187 -29.26467250571573 8.4260119768896118 #
point $-1 69.324625385296187 -35.368528090872282 8.4260119768896118 #
face $-1 $-1 $409 $35 $-1 $526 reversed single #
loop $-1 $-1 $405 $258 #
plane-surface $-1 -69.324625385296187 0 0 1 0 0 0 0 -1 forward_v I I I I #
coedge $-1 $269 $261 $271 $414 reversed $154 $-1 #
coedge $-1 $261 $269 $527 $528 reversed $154 $-1 #
edge $-1 $402 -69.324625385296187 $529 69.324625385296187 $261 $530 forward 7 unknown #
coedge $-1 $263 $262 $531 $532 reversed $97 $-1 #
coedge $-1 $408 $407 $263 $401 forward $409 $-1 #
edge $-1 $403 -69.324625385296187 $533 69.324625385296187 $400 $534 forward 7 unknown #
vertex $-1 $265 $535 #
vertex $-1 $401 $536 #
straight-curve $-1 69.324625385296187 16.158300149147006 5.2324051149213071 0 1 0 I I #
coedge $-1 $537 $527 $266 $406 forward $394 $-1 #
edge $-1 $412 13.10637235656873 $410 19.210227941725282 $405 $538 forward 7 unknown #
coedge $-1 $400 $267 $272 $415 forward $409 $-1 #
coedge $-1 $267 $400 $537 $539 reversed $409 $-1 #
loop $-1 $-1 $267 $393 #
vertex $-1 $539 $540 #
straight-curve $-1 0 35.368528090872282 8.4260119768896118 1 0 0 I I #
vertex $-1 $406 $541 #
straight-curve $-1 0 29.264672505715737 8.4260119768896118 1 0 0 I I #
edge $-1 $274 -5.0114077039368823 $402 -1.8178008419685776 $271 $542 forward 7 unknown #
edge $-1 $273 -8.4260119768896118 $403 -5.2324051149213071 $272 $543 forward 7 unknown #
point $-1 69.324625385296187 35.368528090872289 8.4260119768896118 #
point $-1 69.324625385296187 29.264672505715737 8.4260119768896118 #
loop $-1 $-1 $544 $276 #
plane-surface $-1 0 0 9.1477626489252444 0 0 1 1 0 0 forward_v I I I I #
coedge $-1 $421 $279 $287 $433 reversed $162 $-1 #
coedge $-1 $279 $420 $544 $545 reversed $162 $-1 #
coedge $-1 $427 $546 $281 $423 forward $418 $-1 #
edge $-1 $425 9.8986980988808995 $431 17.706435178731496 $422 $547 forward 7 unknown #
coedge $-1 $287 $282 $546 $548 reversed $277 $-1 #
vertex $-1 $423 $549 #
straight-curve $-1 -69.324625385296187 13.373706245983136 54.403890191972977 0 0 1 I I #
coedge $-1 $544 $422 $284 $428 forward $418 $-1 #
edge $-1 $431 2.7141115580584199 $429 18.605077817791013 $427 $550 forward 7 unknown #
vertex $-1 $545 $551 #
straight-curve $-1 -69.324625385296173 29.26467250571573 2.5962932076731846 0.76604443648966558 0 0.64278761758704617 I I #
vertex $-1 $428 $552 #
straight-curve $-1 -69.324625385296173 13.373706245983136 2.5962932076731846 -0.76604443648966558 0 -0.64278761758704617 I I #
edge $-1 $553 45.256127543047732 $288 51.807596984299806 $287 $554 forward 7 unknown #
point $-1 -69.324625385296187 29.26467250571573 2.5962932076731726 #
point $-1 -69.324625385296187 13.373706245983136 2.5962932076731726 #
edge $-1 $555 1 $555 0 $291 $-1 forward 7 unknown #
vertex $-1 $292 $556 #
ellipse-curve $-1 -62.770324592849242 16.551899497929654 2.7133658355870254 -0.64278761758704617 0 0.76604443648966558 1.1490666547344983 0 0.96418142638056925 1 I I #
point $-1 -64.271690190636406 16.551899497929654 6.8362093546797889 #
edge $-1 $557 1 $557 0 $295 $-1 forward 7 unknown #
vertex $-1 $296 $558 #
ellipse-curve $-1 -62.770324592849242 21.319189375849433 2.7133658355870254 -0.64278761758704617 0 0.76604443648966558 1.1490666547344983 0 0.96418142638056925 1 I I #
point $-1 -64.271690190636406 21.319189375849433 6.8362093546797889 #
edge $-1 $559 1 $559 0 $299 $-1 forward 7 unknown #
vertex $-1 $300 $560 #
ellipse-curve $-1 -62.770324592849242 26.086479253769213 2.7133658355870254 -0.64278761758704617 0 0.76604443648966558 1.1490666547344983 0 0.96418142638056925 1 I I #
point $-1 -64.271690190636406 26.086479253769213 6.8362093546797889 #
plane-surface $-1 69.324625385296187 0 0 -1 0 0 0 0 1 forward_v I I I I #
coedge $-1 $459 $458 $451 $561 forward $304 $-1 #
coedge $-1 $451 $306 $308 $455 reversed $191 $-1 #
coedge $-1 $306 $450 $449 $561 reversed $191 $-1 #
coedge $-1 $314 $309 $306 $453 forward $315 $-1 #
edge $-1 $456 -94.65266513670997 $562 -87.25371365910442 $452 $563 forward 7 unknown #
coedge $-1 $308 $307 $459 $564 reversed $120 $-1 #
edge $-1 $565 129.92456706220406 $456 138.64925077059237 $450 $566 forward 7 unknown #
vertex $-1 $310 $567 #
straight-curve $-1 69.324625385296187 -4.3556563464492708 1.7488111713197156 0 1 0 I I #
coedge $-1 $449 $311 $314 $463 forward $304 $-1 #
coedge $-1 $311 $449 $454 $564 forward $304 $-1 #
vertex $-1 $312 $568 #
straight-curve $-1 56.716476218537274 -13.701384046824391 9.1477626489252373 1 0 0 I I #
straight-curve $-1 -4.1482818111844466 -13.701384046824391 119.3300454195787 -0.52991925155115449 0 0.84804810408105047 I I #
edge $-1 $316 -13.701384046824391 $562 -3.7212413389726926 $314 $569 forward 7 unknown #
point $-1 69.324625385296187 -13.701384046824391 9.1477626489252444 #
point $-1 69.324625385296201 -13.701384046824391 1.7488111713197014 #
edge $-1 $570 1 $570 0 $319 $-1 forward 7 unknown #
vertex $-1 $320 $571 #
ellipse-curve $-1 64.360984153607561 -8.7113126928985416 3.7911632494557677 0.84804810408105047 0 0.52991925155115449 0.79487887732673168 0 -1.2720721561215758 1 I I #
point $-1 67.807815332238079 -8.7113126928985416 4.1762147540009105 #
loop $-1 $-1 $331 $323 #
plane-surface $-1 0 0 9.1477626489252444 0 0 1 1 0 0 forward_v I I I I #
coedge $-1 $473 $326 $328 $477 reversed $206 $-1 #
coedge $-1 $326 $472 $572 $573 reversed $206 $-1 #
coedge $-1 $334 $329 $326 $475 forward $324 $-1 #
edge $-1 $478 -94.65266513670997 $574 -87.25371365910442 $474 $575 forward 7 unknown #
coedge $-1 $328 $327 $481 $576 reversed $129 $-1 #
edge $-1 $577 129.92456706220406 $478 138.64925077059237 $472 $578 forward 7 unknown #
vertex $-1 $330 $579 #
straight-curve $-1 69.324625385296187 4.3556563464492726 1.7488111713197156 0 1 0 I I #
coedge $-1 $572 $331 $334 $485 forward $470 $-1 #
coedge $-1 $331 $572 $476 $576 forward $470 $-1 #
vertex $-1 $332 $580 #
straight-curve $-1 56.716476218537274 3.7212413389726962 9.1477626489252373 1 0 0 I I #
straight-curve $-1 -4.1482818111844466 3.7212413389726962 119.3300454195787 -0.52991925155115449 0 0.84804810408105047 I I #
edge $-1 $335 3.7212413389726962 $574 13.701384046824394 $334 $581 forward 7 unknown #
point $-1 69.324625385296187 3.7212413389726962 9.1477626489252444 #
point $-1 69.324625385296201 3.7212413389726962 1.7488111713197014 #
edge $-1 $582 1 $582 0 $338 $-1 forward 7 unknown #
vertex $-1 $339 $583 #
ellipse-curve $-1 64.360984153607561 8.7113126928985452 3.7911632494557677 0.84804810408105047 0 0.52991925155115449 0.79487887732673168 0 -1.2720721561215758 1 I I #
point $-1 67.807815332238079 8.7113126928985452 4.1762147540009105 #
plane-surface $-1 69.324625385296187 0 0 -1 0 0 0 0 1 forward_v I I I I #
coedge $-1 $347 $345 $349 $497 reversed $221 $-1 #
edge $-1 $360 -9.1477626489252444 $499 9.1477626489252444 $359 $584 forward 7 unknown #
vertex $-1 $497 $585 #
straight-curve $-1 -69.324625385296187 -35.368528090872282 0 0 0 -1 I I #
edge $-1 $495 -35.368528090872282 $499 35.368528090872282 $493 $586 forward 7 unknown #
straight-curve $-1 0 -35.368528090872282 -9.1477626489252444 -1 0 0 I I #
vertex $-1 $352 $587 #
straight-curve $-1 0 35.368528090872282 -9.1477626489252444 1 0 0 I I #
point $-1 69.324625385296187 35.368528090872282 -9.1477626489252444 #
point $-1 69.324625385296187 -35.368528090872282 -9.1477626489252444 #
straight-curve $-1 -69.324625385296187 0 9.1477626489252444 0 -1 0 I I #
point $-1 -69.324625385296187 35.368528090872282 9.1477626489252444 #
point $-1 -69.324625385296187 -35.368528090872282 9.1477626489252444 #
straight-curve $-1 69.324625385296187 -35.368528090872282 0 0 0 -1 I I #
straight-curve $-1 69.324625385296187 35.368528090872282 0 0 0 -1 I I #
plane-surface $-1 69.324625385296187 0 0 -1 0 0 0 0 1 forward_v I I I I #
coedge $-1 $512 $372 $383 $521 forward $240 $-1 #
coedge $-1 $372 $512 $386 $523 reversed $240 $-1 #
straight-curve $-1 69.324625385296187 -29.26467250571573 3.4146042729527295 0 0 1 I I #
coedge $-1 $510 $509 $375 $513 forward $240 $-1 #
edge $-1 $516 13.106372356568727 $514 19.210227941725279 $512 $588 forward 7 unknown #
vertex $-1 $377 $589 #
straight-curve $-1 0 -35.368528090872282 5.2324051149213071 1 0 0 I I #
vertex $-1 $513 $590 #
straight-curve $-1 0 -29.26467250571573 5.2324051149213071 1 0 0 I I #
point $-1 69.324625385296187 -35.368528090872282 5.2324051149213071 #
point $-1 69.324625385296187 -29.26467250571573 5.2324051149213071 #
straight-curve $-1 -69.324625385296187 -16.158300149147003 8.4260119768896118 0 1 0 I I #
edge $-1 $384 -5.0114077039368823 $516 -1.8178008419685776 $509 $591 forward 7 unknown #
point $-1 -69.324625385296187 -29.26467250571573 8.4260119768896118 #
edge $-1 $388 -8.4260119768896118 $514 -5.2324051149213071 $510 $592 forward 7 unknown #
point $-1 -69.324625385296187 -35.368528090872282 8.4260119768896118 #
straight-curve $-1 69.324625385296187 -35.368528090872282 0 0 0 -1 I I #
plane-surface $-1 0 35.368528090872282 0 0 -1 0 0 0 -1 forward_v I I I I #
coedge $-1 $405 $531 $397 $528 forward $394 $-1 #
edge $-1 $529 1.8178008419685776 $412 5.0114077039368823 $527 $593 forward 7 unknown #
vertex $-1 $532 $594 #
straight-curve $-1 0 29.264672505715737 5.2324051149213071 -1 0 0 I I #
coedge $-1 $527 $537 $399 $532 forward $394 $-1 #
edge $-1 $533 -19.210227941725282 $529 -13.10637235656873 $531 $595 forward 7 unknown #
vertex $-1 $401 $596 #
straight-curve $-1 0 35.368528090872282 5.2324051149213071 -1 0 0 I I #
point $-1 69.324625385296187 29.264672505715737 5.2324051149213071 #
point $-1 69.324625385296187 35.368528090872289 5.2324051149213071 #
coedge $-1 $531 $405 $408 $539 forward $394 $-1 #
straight-curve $-1 -69.324625385296187 16.158300149147006 8.4260119768896118 0 1 0 I I #
edge $-1 $410 -8.4260119768896118 $533 -5.2324051149213071 $408 $597 forward 7 unknown #
point $-1 -69.324625385296187 35.368528090872289 8.4260119768896118 #
point $-1 -69.324625385296187 29.264672505715737 8.4260119768896118 #
straight-curve $-1 69.324625385296187 29.264672505715737 3.4146042729527295 0 0 -1 I I #
straight-curve $-1 69.324625385296187 35.368528090872282 0 0 0 -1 I I #
coedge $-1 $546 $427 $421 $545 forward $418 $-1 #
edge $-1 $429 -17.706435178731496 $553 -9.8986980988808995 $544 $598 forward 7 unknown #
coedge $-1 $422 $544 $424 $548 forward $418 $-1 #
straight-curve $-1 -79.223323484177087 13.373706245983136 9.1477626489252444 1 0 0 I I #
edge $-1 $553 -29.26467250571573 $425 -13.373706245983136 $424 $599 forward 7 unknown #
point $-1 -69.324625385296187 13.373706245983136 9.1477626489252444 #
straight-curve $-1 -61.516888305445583 10.659594687924717 9.1477626489252462 0 1 0 I I #
point $-1 -61.51688830544559 29.26467250571573 9.1477626489252444 #
point $-1 -61.51688830544559 13.373706245983136 9.1477626489252444 #
vertex $-1 $548 $600 #
straight-curve $-1 -69.324625385296187 29.26467250571573 54.403890191972977 0 0 -1 I I #
vertex $-1 $436 $601 #
point $-1 -61.621257938114745 16.551899497929654 3.6775472619675948 #
vertex $-1 $440 $602 #
point $-1 -61.621257938114745 21.319189375849433 3.6775472619675948 #
vertex $-1 $444 $603 #
point $-1 -61.621257938114745 26.086479253769213 3.6775472619675948 #
edge $-1 $562 -12.608149166758913 $565 -7.9847713059892342 $449 $604 forward 7 unknown #
vertex $-1 $453 $605 #
straight-curve $-1 69.324625385296187 -3.7212413389726926 96.401476308029672 0 0 1 I I #
edge $-1 $565 -0.6344150074765782 $460 9.3457277003751198 $459 $606 forward 7 unknown #
vertex $-1 $564 $607 #
straight-curve $-1 -4.1482818111844466 -3.7212413389726926 119.3300454195787 0.52991925155115449 0 -0.84804810408105047 I I #
point $-1 69.324625385296201 -3.7212413389726926 1.7488111713197014 #
point $-1 64.701247524526508 -13.701384046824391 9.1477626489252373 #
straight-curve $-1 69.324625385296187 0 9.1477626489252444 0 1 0 I I #
vertex $-1 $466 $608 #
point $-1 65.155863030934299 -8.7113126928985416 2.5190910933341919 #
coedge $-1 $481 $480 $473 $573 forward $470 $-1 #
edge $-1 $574 -12.608149166758913 $577 -7.9847713059892342 $572 $609 forward 7 unknown #
vertex $-1 $573 $610 #
straight-curve $-1 69.324625385296187 13.701384046824394 96.401476308029672 0 0 1 I I #
edge $-1 $577 -9.3457277003751216 $482 0.63441500747657642 $481 $611 forward 7 unknown #
vertex $-1 $576 $612 #
straight-curve $-1 -4.1482818111844466 13.701384046824394 119.3300454195787 0.52991925155115449 0 -0.84804810408105047 I I #
point $-1 69.324625385296201 13.701384046824394 1.7488111713197014 #
point $-1 64.701247524526508 3.7212413389726962 9.1477626489252373 #
straight-curve $-1 69.324625385296187 0 9.1477626489252444 0 1 0 I I #
vertex $-1 $488 $613 #
point $-1 65.155863030934299 8.7113126928985452 2.5190910933341919 #
straight-curve $-1 -69.324625385296187 35.368528090872282 0 0 0 -1 I I #
point $-1 -69.324625385296187 -35.368528090872282 -9.1477626489252444 #
straight-curve $-1 -69.324625385296187 0 -9.1477626489252444 0 1 0 I I #
point $-1 -69.324625385296187 35.368528090872282 -9.1477626489252444 #
straight-curve $-1 -69.324625385296187 -16.158300149147003 5.2324051149213071 0 -1 0 I I #
point $-1 -69.324625385296187 -35.368528090872282 5.2324051149213071 #
point $-1 -69.324625385296187 -29.26467250571573 5.2324051149213071 #
straight-curve $-1 -69.324625385296187 -29.26467250571573 3.4146042729527295 0 0 -1 I I #
straight-curve $-1 -69.324625385296187 -35.368528090872282 0 0 0 -1 I I #
straight-curve $-1 -69.324625385296187 29.264672505715737 3.4146042729527295 0 0 1 I I #
point $-1 -69.324625385296187 29.264672505715737 5.2324051149213071 #
straight-curve $-1 -69.324625385296187 16.158300149147006 5.2324051149213071 0 -1 0 I I #
point $-1 -69.324625385296187 35.368528090872289 5.2324051149213071 #
straight-curve $-1 -69.324625385296187 35.368528090872282 0 0 0 -1 I I #
straight-curve $-1 -79.223323484177087 29.26467250571573 9.1477626489252444 -1 0 0 I I #
straight-curve $-1 -69.324625385296187 0 9.1477626489252444 0 -1 0 I I #
point $-1 -69.324625385296187 29.26467250571573 9.1477626489252444 #
point $-1 -61.806143166468679 16.551899497929654 1.5642991808525273 #
point $-1 -61.806143166468679 21.319189375849433 1.5642991808525273 #
point $-1 -61.806143166468679 26.086479253769213 1.5642991808525273 #
straight-curve $-1 56.716476218537274 -3.7212413389726926 9.1477626489252373 -1 0 0 I I #
point $-1 69.324625385296187 -3.7212413389726926 9.1477626489252444 #
straight-curve $-1 64.701247524526508 -4.3556563464492708 9.1477626489252373 0 -1 0 I I #
point $-1 64.701247524526508 -3.7212413389726926 9.1477626489252373 #
point $-1 63.088911997485987 -8.7113126928985416 2.9962843721290358 #
straight-curve $-1 56.716476218537274 13.701384046824394 9.1477626489252373 -1 0 0 I I #
point $-1 69.324625385296187 13.701384046824394 9.1477626489252444 #
straight-curve $-1 64.701247524526508 4.3556563464492726 9.1477626489252373 0 -1 0 I I #
point $-1 64.701247524526508 13.701384046824394 9.1477626489252373 #
point $-1 63.088911997485987 8.7113126928985452 2.9962843721290358 #
End-of-ACIS-data 