500 0 5 0           
7 Unknown 11 ACIS 5.0 NT 24 Fri Mar 26 17:35:37 1999 
-1 9.9999999999999995e-007 1e-010 
body $-1 $5 $-1 $6 #
body $-1 $7 $-1 $8 #
body $-1 $9 $-1 $10 #
body $-1 $11 $-1 $12 #
body $-1 $13 $-1 $14 #
lump $-1 $-1 $15 $0 #
transform $-1 1 0 0 0 1 0 0 0 1 72.370372631000691 30.739131906078626 13.114718776018206 1 rotate no_reflect no_shear #
lump $-1 $-1 $16 $1 #
transform $-1 1 0 0 0 1 0 0 0 1 72.370372631000691 30.739131906078626 13.114718776018206 1 rotate no_reflect no_shear #
lump $-1 $-1 $17 $2 #
transform $-1 1 0 0 0 1 0 0 0 1 72.370372631000691 30.739131906078626 13.114718776018206 1 rotate no_reflect no_shear #
lump $-1 $-1 $18 $3 #
transform $-1 1 0 0 0 1 0 0 0 1 72.370372631000691 30.739131906078626 13.114718776018206 1 rotate no_reflect no_shear #
lump $-1 $-1 $19 $4 #
transform $-1 1 0 0 0 1 0 0 0 1 72.370372631000691 30.739131906078626 13.114718776018206 1 rotate no_reflect no_shear #
shell $-1 $-1 $-1 $20 $-1 $5 #
shell $-1 $-1 $-1 $21 $-1 $7 #
shell $-1 $-1 $-1 $22 $-1 $9 #
shell $-1 $-1 $-1 $23 $-1 $11 #
shell $-1 $-1 $-1 $24 $-1 $13 #
face $-1 $25 $26 $15 $-1 $27 forward single #
face $-1 $28 $29 $16 $-1 $30 reversed single #
face $-1 $31 $32 $17 $-1 $33 forward single #
face $-1 $34 $35 $18 $-1 $36 reversed single #
face $-1 $37 $38 $19 $-1 $39 forward single #
face $-1 $40 $41 $15 $-1 $42 reversed single #
loop $-1 $-1 $43 $20 #
plane-surface $-1 0 0 13.114718776018206 0 0 1 1 0 0 forward_v I I I I #
face $-1 $44 $45 $16 $-1 $46 reversed single #
loop $-1 $-1 $47 $21 #
plane-surface $-1 -41.908424530738614 52.588970507882109 161.9655230579649 -1 0 0 0 0.51503808176128008 0.85716729658548041 forward_v I I I I #
face $-1 $48 $49 $17 $-1 $50 forward single #
loop $-1 $51 $52 $22 #
cone-surface $-1 -57.139398580869653 23.089200708441233 6.4711876026751876 0 -0.51503808176128008 -0.85716729658548041 2 0 0 1 I I 0 1 2 forward I I I I #
face $-1 $53 $54 $18 $-1 $55 reversed single #
loop $-1 $-1 $56 $23 #
plane-surface $-1 -47.541329537547412 -146.33423201336149 87.134009075513475 -1 0 0 0 -0.79863551827123203 0.60181501223851219 forward_v I I I I #
face $-1 $57 $58 $19 $-1 $59 forward single #
loop $-1 $60 $61 $24 #
cone-surface $-1 -59.955851084274052 -21.295088074252707 3.1701200881257714 0 0.79863551827123203 -0.60181501223851219 4 0 0 1 I I 0 1 4 forward I I I I #
face $-1 $62 $63 $15 $-1 $64 reversed single #
loop $-1 $-1 $65 $25 #
plane-surface $-1 0 0 -13.114718776018206 0 0 1 1 0 0 forward_v I I I I #
coedge $-1 $66 $67 $68 $69 forward $26 $-1 #
face $-1 $70 $71 $16 $-1 $72 reversed single #
loop $-1 $-1 $73 $28 #
plane-surface $-1 -57.139398580869653 -21.958025284557166 37.898489735967487 0 0.51503808176128008 0.85716729658548041 1 0 0 forward_v I I I I #
coedge $-1 $74 $75 $76 $77 reversed $29 $-1 #
face $-1 $-1 $78 $17 $-1 $79 forward single #
loop $-1 $80 $81 $31 #
cone-surface $-1 -57.139398580869653 20.649249645790235 2.4104271846857248 0 -0.51503808176128008 -0.85716729658548041 1 0 0 1 I I -0.70710678118654746 0.70710678118654746 1 forward I I I I #
loop $-1 $-1 $82 $22 #
coedge $-1 $52 $52 $83 $84 reversed $32 $-1 #
face $-1 $85 $86 $18 $-1 $87 reversed single #
loop $-1 $-1 $88 $34 #
plane-surface $-1 -59.955851084274052 -30.73913190607864 0.026855694250741635 0 -0.79863551827123203 0.60181501223851219 1 0 0 forward_v I I I I #
coedge $-1 $89 $90 $91 $92 reversed $35 $-1 #
face $-1 $-1 $93 $19 $-1 $94 forward single #
loop $-1 $95 $96 $37 #
cone-surface $-1 -59.955851084274052 -15.184979181909338 -1.4341770833599501 0 0.79863551827123203 -0.60181501223851219 2 0 0 1 I I -0.70710678118654746 0.70710678118654746 2 forward I I I I #
loop $-1 $-1 $97 $24 #
coedge $-1 $61 $61 $98 $99 reversed $38 $-1 #
face $-1 $100 $101 $15 $-1 $102 reversed single #
loop $-1 $-1 $103 $40 #
plane-surface $-1 0 -30.739131906078626 0 0 1 0 0 0 1 forward_v I I I I #
coedge $-1 $104 $105 $106 $107 forward $41 $-1 #
coedge $-1 $108 $43 $109 $110 forward $26 $-1 #
coedge $-1 $43 $108 $111 $112 forward $26 $-1 #
coedge $-1 $113 $114 $43 $69 reversed $115 $-1 #
edge $-1 $116 -30.739131906078626 $117 30.739131906078626 $68 $118 forward 7 unknown #
face $-1 $119 $120 $16 $-1 $121 forward single #
loop $-1 $-1 $76 $44 #
plane-surface $-1 0 30.739131906078626 0 0 -1 0 0 0 -1 forward_v I I I I #
coedge $-1 $122 $123 $124 $125 reversed $45 $-1 #
coedge $-1 $75 $47 $126 $127 reversed $29 $-1 #
coedge $-1 $47 $74 $122 $128 reversed $29 $-1 #
coedge $-1 $124 $129 $47 $77 forward $71 $-1 #
edge $-1 $130 67.868042752964243 $131 74.747918856842347 $76 $132 forward 7 unknown #
loop $-1 $-1 $83 $48 #
plane-surface $-1 -57.139398580869653 -21.958025284557166 37.898489735967487 0 0.51503808176128008 0.85716729658548041 1 0 0 forward_v I I I I #
loop $-1 $-1 $133 $31 #
coedge $-1 $81 $81 $82 $134 reversed $49 $-1 #
coedge $-1 $82 $82 $81 $134 forward $51 $-1 #
coedge $-1 $83 $83 $52 $84 forward $78 $-1 #
edge $-1 $135 -3.1369997441828214e-016 $135 6.2831853071796004 $83 $136 forward 7 unknown #
face $-1 $137 $138 $18 $-1 $139 forward single #
loop $-1 $-1 $140 $53 #
plane-surface $-1 -72.370372631000691 0 0 1 0 0 0 0 -1 forward_v I I I I #
coedge $-1 $141 $142 $143 $144 reversed $54 $-1 #
coedge $-1 $90 $56 $145 $146 reversed $35 $-1 #
coedge $-1 $56 $89 $141 $147 reversed $35 $-1 #
coedge $-1 $143 $148 $56 $92 forward $138 $-1 #
edge $-1 $149 42.427984100602117 $150 52.29039605265212 $91 $151 forward 7 unknown #
loop $-1 $-1 $98 $57 #
plane-surface $-1 -59.955851084274052 -30.73913190607864 0.026855694250741635 0 -0.79863551827123203 0.60181501223851219 1 0 0 forward_v I I I I #
loop $-1 $-1 $152 $37 #
coedge $-1 $96 $96 $97 $153 reversed $58 $-1 #
coedge $-1 $97 $97 $96 $153 forward $60 $-1 #
coedge $-1 $98 $98 $61 $99 forward $93 $-1 #
edge $-1 $154 1.8993761873819984e-016 $154 6.2831853071796004 $98 $155 forward 7 unknown #
face $-1 $156 $157 $15 $-1 $158 reversed single #
loop $-1 $-1 $159 $62 #
plane-surface $-1 -72.370372631000691 0 0 1 0 0 0 0 -1 forward_v I I I I #
coedge $-1 $160 $111 $161 $162 forward $63 $-1 #
coedge $-1 $163 $65 $160 $164 forward $41 $-1 #
coedge $-1 $65 $163 $165 $166 forward $41 $-1 #
coedge $-1 $114 $113 $65 $107 reversed $115 $-1 #
edge $-1 $167 -30.739131906078626 $168 30.739131906078626 $106 $169 forward 7 unknown #
coedge $-1 $67 $66 $170 $171 forward $26 $-1 #
coedge $-1 $172 $173 $66 $110 reversed $157 $-1 #
edge $-1 $117 -72.370372631000691 $174 72.370372631000691 $109 $175 forward 7 unknown #
coedge $-1 $103 $176 $67 $112 reversed $63 $-1 #
edge $-1 $177 -72.370372631000691 $116 72.370372631000691 $111 $178 forward 7 unknown #
coedge $-1 $106 $68 $176 $179 forward $115 $-1 #
coedge $-1 $68 $106 $172 $180 reversed $115 $-1 #
loop $-1 $-1 $113 $156 #
vertex $-1 $69 $181 #
vertex $-1 $69 $182 #
straight-curve $-1 72.370372631000691 0 13.114718776018206 0 1 0 I I #
face $-1 $-1 $183 $16 $-1 $184 reversed single #
loop $-1 $-1 $126 $70 #
plane-surface $-1 0 0 13.114718776018206 0 0 1 1 0 0 forward_v I I I I #
coedge $-1 $185 $73 $75 $128 forward $45 $-1 #
coedge $-1 $73 $185 $186 $187 reversed $45 $-1 #
coedge $-1 $188 $76 $73 $125 forward $71 $-1 #
edge $-1 $131 13.338725240303788 $189 43.800673340565865 $124 $190 forward 7 unknown #
coedge $-1 $191 $192 $74 $127 forward $120 $-1 #
edge $-1 $193 -7.0053897813578416 $130 4.4446466521375712 $126 $194 forward 7 unknown #
edge $-1 $131 -61.478263812157238 $193 -48.120268845356065 $75 $195 forward 7 unknown #
coedge $-1 $76 $188 $191 $196 reversed $71 $-1 #
vertex $-1 $196 $197 #
vertex $-1 $77 $198 #
straight-curve $-1 -41.908424530738614 30.739131906078626 80.982761528982451 0 0 -1 I I #
coedge $-1 $133 $133 $-1 $199 reversed $80 $-1 #
edge $-1 $200 0 $200 6.2831853071796004 $81 $201 forward 7 unknown #
vertex $-1 $84 $202 #
ellipse-curve $-1 -57.139398580869653 25.014113689330937 9.6747807240791452 0 0.51503808176128008 0.85716729658548041 2 0 0 1 I I #
face $-1 $-1 $203 $18 $-1 $204 reversed single #
loop $-1 $-1 $143 $85 #
plane-surface $-1 0 0 13.114718776018206 0 0 1 1 0 0 forward_v I I I I #
coedge $-1 $205 $206 $142 $207 forward $86 $-1 #
coedge $-1 $208 $88 $90 $147 forward $54 $-1 #
coedge $-1 $88 $208 $140 $207 reversed $54 $-1 #
coedge $-1 $209 $91 $88 $144 forward $138 $-1 #
edge $-1 $150 17.563403995410386 $210 42.392447088863662 $143 $211 forward 7 unknown #
coedge $-1 $212 $213 $89 $146 forward $203 $-1 #
edge $-1 $214 -43.540148843505975 $149 -30.45228576173853 $145 $215 forward 7 unknown #
edge $-1 $150 -16.387779884994515 $214 -2.3614502601449494e-014 $90 $216 forward 7 unknown #
coedge $-1 $91 $209 $212 $217 forward $138 $-1 #
vertex $-1 $146 $218 #
vertex $-1 $92 $219 #
straight-curve $-1 -47.541329537547412 -73.167116006680743 13.114718776018208 0 1 0 I I #
coedge $-1 $152 $152 $-1 $220 reversed $95 $-1 #
edge $-1 $221 0 $221 6.2831853071796004 $96 $222 forward 7 unknown #
vertex $-1 $99 $223 #
ellipse-curve $-1 -59.955851084274052 -25.807925930053628 6.57078723513448 0 -0.79863551827123203 0.60181501223851219 4 0 0 1 I I #
face $-1 $-1 $115 $15 $-1 $224 reversed single #
loop $-1 $-1 $172 $100 #
plane-surface $-1 0 30.739131906078626 0 0 -1 0 0 0 -1 forward_v I I I I #
coedge $-1 $225 $170 $173 $226 forward $101 $-1 #
coedge $-1 $176 $103 $104 $164 reversed $63 $-1 #
coedge $-1 $170 $225 $103 $162 reversed $101 $-1 #
edge $-1 $177 -13.114718776018206 $227 13.114718776018206 $161 $228 forward 7 unknown #
coedge $-1 $105 $104 $225 $229 forward $41 $-1 #
edge $-1 $168 -72.370372631000691 $227 72.370372631000691 $160 $230 forward 7 unknown #
coedge $-1 $173 $172 $105 $166 reversed $157 $-1 #
edge $-1 $231 -72.370372631000691 $167 72.370372631000691 $165 $232 forward 7 unknown #
vertex $-1 $107 $233 #
vertex $-1 $179 $234 #
straight-curve $-1 72.370372631000691 0 -13.114718776018206 0 -1 0 I I #
coedge $-1 $159 $161 $108 $171 reversed $101 $-1 #
edge $-1 $174 -30.739131906078626 $177 30.739131906078626 $170 $235 forward 7 unknown #
coedge $-1 $165 $109 $114 $180 forward $157 $-1 #
coedge $-1 $109 $165 $159 $226 reversed $157 $-1 #
vertex $-1 $110 $236 #
straight-curve $-1 0 30.739131906078626 13.114718776018206 -1 0 0 I I #
coedge $-1 $111 $160 $113 $179 reversed $63 $-1 #
vertex $-1 $171 $237 #
straight-curve $-1 0 -30.739131906078626 13.114718776018206 1 0 0 I I #
edge $-1 $116 -13.114718776018206 $168 13.114718776018206 $113 $238 forward 7 unknown #
edge $-1 $117 -13.114718776018206 $167 13.114718776018206 $114 $239 forward 7 unknown #
point $-1 72.370372631000691 -30.739131906078626 13.114718776018206 #
point $-1 72.370372631000691 30.739131906078626 13.114718776018206 #
loop $-1 $-1 $186 $119 #
plane-surface $-1 -72.370372631000691 0 0 1 0 0 0 0 -1 forward_v I I I I #
coedge $-1 $123 $122 $192 $240 reversed $45 $-1 #
coedge $-1 $241 $242 $123 $187 forward $183 $-1 #
edge $-1 $189 -42.307830498766364 $243 -28.949835531965196 $186 $244 forward 7 unknown #
coedge $-1 $129 $124 $242 $245 reversed $71 $-1 #
vertex $-1 $125 $246 #
straight-curve $-1 -28.569699290434826 30.739131906078619 6.2348426721401022 -1 0 0 I I #
coedge $-1 $247 $126 $129 $196 forward $120 $-1 #
coedge $-1 $126 $247 $185 $240 forward $120 $-1 #
vertex $-1 $127 $248 #
straight-curve $-1 -41.908424530738614 26.294485253941055 13.114718776018208 0 1 0 I I #
straight-curve $-1 -41.908424530738614 -21.958025284557166 37.898489735967487 0 -0.85716729658548041 0.51503808176128008 I I #
edge $-1 $130 41.908424530738614 $249 72.370372631000691 $129 $250 forward 7 unknown #
point $-1 -41.908424530738614 30.739131906078626 13.114718776018206 #
point $-1 -41.908424530738614 30.739131906078626 6.2348426721401005 #
edge $-1 $251 1 $251 0 $133 $-1 forward 7 unknown #
vertex $-1 $134 $252 #
ellipse-curve $-1 -57.139398580869653 21.164287727551514 3.267594481271205 0 0.51503808176128008 0.85716729658548041 2 0 0 1 I I #
point $-1 -55.139398580869653 25.014113689330951 9.6747807240791701 #
loop $-1 $-1 $145 $137 #
plane-surface $-1 0 -30.739131906078626 0 0 1 0 0 0 1 forward_v I I I I #
coedge $-1 $206 $140 $253 $254 reversed $86 $-1 #
coedge $-1 $140 $205 $209 $255 reversed $86 $-1 #
edge $-1 $210 -7.1488683185137729 $256 9.2389115664807182 $140 $257 forward 7 unknown #
coedge $-1 $142 $141 $213 $258 reversed $54 $-1 #
coedge $-1 $148 $143 $206 $255 forward $138 $-1 #
vertex $-1 $255 $259 #
straight-curve $-1 -29.977925542137026 -20.876719954028623 13.114718776018206 -1 0 0 I I #
coedge $-1 $253 $145 $148 $217 reversed $203 $-1 #
coedge $-1 $145 $253 $208 $258 forward $203 $-1 #
vertex $-1 $146 $260 #
straight-curve $-1 -47.541329537547412 -30.739131906078626 43.567004537756738 0 0 1 I I #
straight-curve $-1 -47.541329537547412 -30.73913190607864 0.026855694250741635 0 -0.60181501223851219 -0.79863551827123203 I I #
edge $-1 $261 -72.370372631000691 $149 -47.541329537547412 $212 $262 forward 7 unknown #
point $-1 -47.541329537547412 -30.739131906078626 13.114718776018206 #
point $-1 -47.541329537547412 -20.876719954028623 13.114718776018208 #
edge $-1 $263 1 $263 0 $152 $-1 forward 7 unknown #
vertex $-1 $153 $264 #
ellipse-curve $-1 -59.955851084274052 -16.7822502184518 -0.2305470588829257 0 -0.79863551827123203 0.60181501223851219 4 0 0 1 I I #
point $-1 -55.955851084274052 -25.80792593005361 6.5707872351344676 #
plane-surface $-1 72.370372631000691 0 0 -1 0 0 0 0 1 forward_v I I I I #
coedge $-1 $161 $159 $163 $229 reversed $101 $-1 #
edge $-1 $174 -13.114718776018206 $231 13.114718776018206 $173 $265 forward 7 unknown #
vertex $-1 $229 $266 #
straight-curve $-1 -72.370372631000691 -30.739131906078626 0 0 0 -1 I I #
edge $-1 $227 -30.739131906078626 $231 30.739131906078626 $225 $267 forward 7 unknown #
straight-curve $-1 0 -30.739131906078626 -13.114718776018206 -1 0 0 I I #
vertex $-1 $166 $268 #
straight-curve $-1 0 30.739131906078626 -13.114718776018206 1 0 0 I I #
point $-1 72.370372631000691 30.739131906078626 -13.114718776018206 #
point $-1 72.370372631000691 -30.739131906078626 -13.114718776018206 #
straight-curve $-1 -72.370372631000691 0 13.114718776018206 0 -1 0 I I #
point $-1 -72.370372631000691 30.739131906078626 13.114718776018206 #
point $-1 -72.370372631000691 -30.739131906078626 13.114718776018206 #
straight-curve $-1 72.370372631000691 -30.739131906078626 0 0 0 -1 I I #
straight-curve $-1 72.370372631000691 30.739131906078626 0 0 0 -1 I I #
edge $-1 $243 -43.800673340565865 $193 -13.338725240303788 $192 $269 forward 7 unknown #
coedge $-1 $242 $186 $247 $270 reversed $183 $-1 #
coedge $-1 $186 $241 $188 $245 forward $183 $-1 #
vertex $-1 $187 $271 #
straight-curve $-1 -72.370372631000691 -5.5257567869456778 28.024986535706109 0 -0.85716729658548041 0.51503808176128008 I I #
edge $-1 $249 -13.114718776018206 $189 -6.2348426721400996 $188 $272 forward 7 unknown #
point $-1 -72.370372631000691 30.739131906078626 6.2348426721400996 #
coedge $-1 $192 $191 $241 $270 forward $120 $-1 #
point $-1 -41.908424530738614 19.289095472583213 13.114718776018208 #
vertex $-1 $196 $273 #
straight-curve $-1 0 30.739131906078626 13.114718776018206 -1 0 0 I I #
vertex $-1 $199 $274 #
point $-1 -55.139398580869653 21.164287727551514 3.267594481271205 #
coedge $-1 $213 $212 $205 $254 forward $203 $-1 #
edge $-1 $261 -13.114718776018206 $256 -0.026855694250760495 $205 $275 forward 7 unknown #
edge $-1 $210 20.876719954028623 $261 30.739131906078626 $206 $276 forward 7 unknown #
vertex $-1 $207 $277 #
straight-curve $-1 -72.370372631000691 -25.179016228626502 7.4053786214091692 0 -0.60181501223851219 -0.79863551827123203 I I #
edge $-1 $256 -42.392447088863662 $214 -17.563403995410386 $213 $278 forward 7 unknown #
point $-1 -72.370372631000691 -20.876719954028623 13.114718776018208 #
point $-1 -47.541329537547412 -30.739131906078626 0.026855694250760495 #
vertex $-1 $255 $279 #
straight-curve $-1 0 -30.739131906078626 13.114718776018206 1 0 0 I I #
vertex $-1 $220 $280 #
point $-1 -55.955851084274052 -16.7822502184518 -0.2305470588829257 #
straight-curve $-1 -72.370372631000691 30.739131906078626 0 0 0 -1 I I #
point $-1 -72.370372631000691 -30.739131906078626 -13.114718776018206 #
straight-curve $-1 -72.370372631000691 0 -13.114718776018206 0 1 0 I I #
point $-1 -72.370372631000691 30.739131906078626 -13.114718776018206 #
straight-curve $-1 -28.569699290434826 19.28909547258322 13.114718776018208 1 0 0 I I #
edge $-1 $249 -30.739131906078626 $243 -19.289095472583213 $241 $281 forward 7 unknown #
point $-1 -72.370372631000691 19.289095472583213 13.114718776018208 #
straight-curve $-1 -72.370372631000691 30.739131906078626 0 0 0 -1 I I #
point $-1 -72.370372631000691 30.739131906078626 13.114718776018206 #
point $-1 -57.139398580869653 20.134211564028956 1.5532598881002444 #
straight-curve $-1 -72.370372631000691 -30.739131906078626 0 0 0 -1 I I #
straight-curve $-1 -72.370372631000691 0 13.114718776018206 0 -1 0 I I #
point $-1 -72.370372631000691 -30.739131906078626 0.026855694250760495 #
straight-curve $-1 -29.977925542137026 -30.739131906078626 0.02685569425076207 1 0 0 I I #
point $-1 -72.370372631000691 -30.739131906078626 13.114718776018206 #
point $-1 -59.955851084274052 -13.587708145366873 -2.6378071078369745 #
straight-curve $-1 -72.370372631000691 0 13.114718776018206 0 -1 0 I I #
End-of-ACIS-data 