500 0 7 0           
7 Unknown 11 ACIS 5.0 NT 24 Fri Mar 26 01:16:58 1999 
-1 9.9999999999999995e-007 1e-010 
body $-1 $7 $-1 $8 #
body $-1 $9 $-1 $10 #
body $-1 $11 $-1 $12 #
body $-1 $13 $-1 $14 #
body $-1 $15 $-1 $16 #
body $-1 $17 $-1 $18 #
body $-1 $19 $-1 $20 #
lump $-1 $-1 $21 $0 #
transform $-1 1 0 0 0 1 0 0 0 1 54.880825220496234 34.325513361504434 16.554646066220727 1 rotate no_reflect no_shear #
lump $-1 $-1 $22 $1 #
transform $-1 1 0 0 0 1 0 0 0 1 54.880825220496234 34.325513361504434 16.554646066220727 1 rotate no_reflect no_shear #
lump $-1 $-1 $23 $2 #
transform $-1 1 0 0 0 1 0 0 0 1 54.880825220496234 34.325513361504434 16.554646066220727 1 rotate no_reflect no_shear #
lump $-1 $-1 $24 $3 #
transform $-1 1 0 0 0 1 0 0 0 1 54.880825220496234 34.325513361504434 16.554646066220727 1 rotate no_reflect no_shear #
lump $-1 $-1 $25 $4 #
transform $-1 1 0 0 0 1 0 0 0 1 54.880825220496234 34.325513361504434 16.554646066220727 1 rotate no_reflect no_shear #
lump $-1 $-1 $26 $5 #
transform $-1 1 0 0 0 1 0 0 0 1 54.880825220496234 34.325513361504434 16.554646066220727 1 rotate no_reflect no_shear #
lump $-1 $-1 $27 $6 #
transform $-1 1 0 0 0 1 0 0 0 1 54.880825220496234 34.325513361504434 16.554646066220727 1 rotate no_reflect no_shear #
shell $-1 $-1 $-1 $28 $-1 $7 #
shell $-1 $-1 $-1 $29 $-1 $9 #
shell $-1 $-1 $-1 $30 $-1 $11 #
shell $-1 $-1 $-1 $31 $-1 $13 #
shell $-1 $-1 $-1 $32 $-1 $15 #
shell $-1 $-1 $-1 $33 $-1 $17 #
shell $-1 $-1 $-1 $34 $-1 $19 #
face $-1 $35 $36 $21 $-1 $37 forward single #
face $-1 $38 $39 $22 $-1 $40 reversed single #
face $-1 $41 $42 $23 $-1 $43 forward single #
face $-1 $44 $45 $24 $-1 $46 forward single #
face $-1 $47 $48 $25 $-1 $49 reversed single #
face $-1 $50 $51 $26 $-1 $52 forward single #
face $-1 $53 $54 $27 $-1 $55 forward single #
face $-1 $56 $57 $21 $-1 $58 reversed single #
loop $-1 $-1 $59 $28 #
plane-surface $-1 0 0 16.554646066220727 0 0 1 1 0 0 forward_v I I I I #
face $-1 $60 $61 $22 $-1 $62 reversed single #
loop $-1 $-1 $63 $29 #
plane-surface $-1 54.880827021518726 26.493300061579998 155.36416599104678 0 1 0 0.70710678939079041 0 0.70710677298230451 forward_v I I I I #
face $-1 $64 $65 $23 $-1 $66 forward single #
loop $-1 $67 $68 $30 #
cone-surface $-1 45.968777967796719 28.73107529012983 7.642598639370445 -0.70710678939079041 0 -0.70710677298230451 0.70710677298230451 0 -0.70710678939079041 1 I I 0 1 1 forward I I I I #
face $-1 $69 $70 $24 $-1 $71 forward single #
loop $-1 $72 $73 $31 #
cone-surface $-1 45.968777967796719 32.087738132954584 7.642598639370445 -0.70710678939079041 0 -0.70710677298230451 0.70710677298230451 0 -0.70710678939079041 1 I I 0 1 1 forward I I I I #
face $-1 $74 $75 $25 $-1 $76 reversed single #
loop $-1 $-1 $77 $32 #
plane-surface $-1 -132.49403346206066 26.493300061579998 77.750957749482367 0 1 0 -0.70710678939079041 0 0.70710677298230451 forward_v I I I I #
face $-1 $78 $79 $26 $-1 $80 forward single #
loop $-1 $81 $82 $33 #
cone-surface $-1 -45.968777967796711 28.73107529012983 7.642598639370445 0.70710678939079041 0 -0.70710677298230451 0.70710677298230451 0 0.70710678939079041 1 I I 0 1 1 forward I I I I #
face $-1 $83 $84 $27 $-1 $85 forward single #
loop $-1 $86 $87 $34 #
cone-surface $-1 -45.968777967796711 32.087738132954584 7.642598639370445 0.70710678939079041 0 -0.70710677298230451 0.70710677298230451 0 0.70710678939079041 1 I I 0 1 1 forward I I I I #
face $-1 $88 $89 $21 $-1 $90 reversed single #
loop $-1 $-1 $91 $35 #
plane-surface $-1 0 0 -16.554646066220727 0 0 1 1 0 0 forward_v I I I I #
coedge $-1 $92 $93 $94 $95 forward $36 $-1 #
face $-1 $96 $97 $22 $-1 $98 forward single #
loop $-1 $-1 $99 $38 #
plane-surface $-1 -22.732381220045696 30.409406711542218 77.750959550504845 0.70710678939079041 0 0.70710677298230451 0.70710677298230451 0 -0.70710678939079041 forward_v I I I I #
coedge $-1 $100 $101 $102 $103 reversed $39 $-1 #
face $-1 $-1 $104 $23 $-1 $105 forward single #
loop $-1 $106 $107 $41 #
cone-surface $-1 44.911624508564074 28.73107529012983 6.5854452046691563 -0.70710678939079041 0 -0.70710677298230451 0.35355338649115226 0 -0.35355339469539521 1 I I -0.70710678118654746 0.70710678118654746 0.5 forward I I I I #
loop $-1 $-1 $108 $30 #
coedge $-1 $68 $68 $109 $110 reversed $42 $-1 #
face $-1 $-1 $111 $24 $-1 $112 forward single #
loop $-1 $113 $114 $44 #
cone-surface $-1 44.911624508564074 32.087738132954584 6.5854452046691563 -0.70710678939079041 0 -0.70710677298230451 0.35355338649115226 0 -0.35355339469539521 1 I I -0.70710678118654746 0.70710678118654746 0.5 forward I I I I #
loop $-1 $-1 $115 $31 #
coedge $-1 $73 $73 $116 $117 reversed $45 $-1 #
face $-1 $118 $119 $25 $-1 $120 reversed single #
loop $-1 $-1 $121 $47 #
plane-surface $-1 -54.880825220496234 30.409406711542218 0.13775130894043741 -0.70710678939079041 0 0.70710677298230451 0.70710677298230451 0 0.70710678939079041 forward_v I I I I #
coedge $-1 $122 $123 $124 $125 reversed $48 $-1 #
face $-1 $-1 $126 $26 $-1 $127 forward single #
loop $-1 $128 $129 $50 #
cone-surface $-1 -44.911624508564067 28.73107529012983 6.5854452046691563 0.70710678939079041 0 -0.70710677298230451 0.35355338649115226 0 0.35355339469539521 1 I I -0.70710678118654746 0.70710678118654746 0.5 forward I I I I #
loop $-1 $-1 $130 $33 #
coedge $-1 $82 $82 $131 $132 reversed $51 $-1 #
face $-1 $-1 $133 $27 $-1 $134 forward single #
loop $-1 $135 $136 $53 #
cone-surface $-1 -44.911624508564067 32.087738132954584 6.5854452046691563 0.70710678939079041 0 -0.70710677298230451 0.35355338649115226 0 0.35355339469539521 1 I I -0.70710678118654746 0.70710678118654746 0.5 forward I I I I #
loop $-1 $-1 $137 $34 #
coedge $-1 $87 $87 $138 $139 reversed $54 $-1 #
face $-1 $140 $141 $21 $-1 $142 reversed single #
loop $-1 $-1 $143 $56 #
plane-surface $-1 0 -34.325513361504434 0 0 1 0 0 0 1 forward_v I I I I #
coedge $-1 $144 $145 $146 $147 forward $57 $-1 #
coedge $-1 $148 $59 $149 $150 forward $36 $-1 #
coedge $-1 $59 $148 $151 $152 forward $36 $-1 #
coedge $-1 $153 $154 $59 $95 reversed $155 $-1 #
edge $-1 $156 -34.325513361504434 $157 34.325513361504434 $94 $158 forward 7 unknown #
face $-1 $159 $160 $22 $-1 $161 reversed single #
loop $-1 $-1 $162 $60 #
plane-surface $-1 0 0 16.554646066220727 0 0 1 1 0 0 forward_v I I I I #
coedge $-1 $163 $164 $165 $166 reversed $61 $-1 #
coedge $-1 $101 $63 $167 $168 reversed $39 $-1 #
coedge $-1 $63 $100 $163 $169 reversed $39 $-1 #
coedge $-1 $165 $170 $63 $103 forward $160 $-1 #
edge $-1 $171 61.127436929302661 $172 77.544331686582964 $102 $173 forward 7 unknown #
loop $-1 $-1 $109 $64 #
plane-surface $-1 -22.732381220045696 30.409406711542218 77.750959550504845 0.70710678939079041 0 0.70710677298230451 0.70710677298230451 0 -0.70710678939079041 forward_v I I I I #
loop $-1 $-1 $174 $41 #
coedge $-1 $107 $107 $108 $175 reversed $65 $-1 #
coedge $-1 $108 $108 $107 $175 forward $67 $-1 #
coedge $-1 $109 $109 $68 $110 forward $104 $-1 #
edge $-1 $176 0 $176 6.2831853071796004 $109 $177 forward 7 unknown #
loop $-1 $-1 $116 $69 #
plane-surface $-1 -22.732381220045696 30.409406711542218 77.750959550504845 0.70710678939079041 0 0.70710677298230451 0.70710677298230451 0 -0.70710678939079041 forward_v I I I I #
loop $-1 $-1 $178 $44 #
coedge $-1 $114 $114 $115 $179 reversed $70 $-1 #
coedge $-1 $115 $115 $114 $179 forward $72 $-1 #
coedge $-1 $116 $116 $73 $117 forward $111 $-1 #
edge $-1 $180 0 $180 6.2831853071796004 $116 $181 forward 7 unknown #
face $-1 $182 $183 $25 $-1 $184 forward single #
loop $-1 $-1 $185 $74 #
plane-surface $-1 0 34.325513361504434 0 0 -1 0 0 0 -1 forward_v I I I I #
coedge $-1 $186 $187 $188 $189 reversed $75 $-1 #
coedge $-1 $123 $77 $190 $191 reversed $48 $-1 #
coedge $-1 $77 $122 $186 $192 reversed $48 $-1 #
coedge $-1 $188 $193 $77 $125 forward $183 $-1 #
edge $-1 $194 11.366191510534094 $195 27.783085886858643 $124 $196 forward 7 unknown #
loop $-1 $-1 $131 $78 #
plane-surface $-1 -54.880825220496234 30.409406711542218 0.13775130894043741 -0.70710678939079041 0 0.70710677298230451 0.70710677298230451 0 0.70710678939079041 forward_v I I I I #
loop $-1 $-1 $197 $50 #
coedge $-1 $129 $129 $130 $198 reversed $79 $-1 #
coedge $-1 $130 $130 $129 $198 forward $81 $-1 #
coedge $-1 $131 $131 $82 $132 forward $126 $-1 #
edge $-1 $199 0 $199 6.2831853071796004 $131 $200 forward 7 unknown #
loop $-1 $-1 $138 $83 #
plane-surface $-1 -54.880825220496234 30.409406711542218 0.13775130894043741 -0.70710678939079041 0 0.70710677298230451 0.70710677298230451 0 0.70710678939079041 forward_v I I I I #
loop $-1 $-1 $201 $53 #
coedge $-1 $136 $136 $137 $202 reversed $84 $-1 #
coedge $-1 $137 $137 $136 $202 forward $86 $-1 #
coedge $-1 $138 $138 $87 $139 forward $133 $-1 #
edge $-1 $203 0 $203 6.2831853071796004 $138 $204 forward 7 unknown #
face $-1 $205 $206 $21 $-1 $207 reversed single #
loop $-1 $-1 $208 $88 #
plane-surface $-1 -54.880825220496234 0 0 1 0 0 0 0 -1 forward_v I I I I #
coedge $-1 $209 $151 $210 $211 forward $89 $-1 #
coedge $-1 $212 $91 $209 $213 forward $57 $-1 #
coedge $-1 $91 $212 $214 $215 forward $57 $-1 #
coedge $-1 $154 $153 $91 $147 reversed $155 $-1 #
edge $-1 $216 -34.325513361504434 $217 34.325513361504434 $146 $218 forward 7 unknown #
coedge $-1 $93 $92 $219 $220 forward $36 $-1 #
coedge $-1 $221 $222 $92 $150 reversed $206 $-1 #
edge $-1 $157 -54.880825220496234 $223 54.880825220496234 $149 $224 forward 7 unknown #
coedge $-1 $143 $225 $93 $152 reversed $89 $-1 #
edge $-1 $226 -54.880825220496234 $156 54.880825220496234 $151 $227 forward 7 unknown #
coedge $-1 $146 $94 $225 $228 forward $155 $-1 #
coedge $-1 $94 $146 $221 $229 reversed $155 $-1 #
loop $-1 $-1 $153 $205 #
vertex $-1 $95 $230 #
vertex $-1 $95 $231 #
straight-curve $-1 54.880825220496234 0 16.554646066220727 0 1 0 I I #
face $-1 $-1 $232 $22 $-1 $233 reversed single #
loop $-1 $-1 $102 $96 #
plane-surface $-1 54.880825220496234 0 0 -1 0 0 0 0 1 forward_v I I I I #
coedge $-1 $167 $234 $235 $236 forward $97 $-1 #
coedge $-1 $235 $99 $101 $169 forward $61 $-1 #
coedge $-1 $99 $235 $237 $238 reversed $61 $-1 #
coedge $-1 $239 $102 $99 $166 forward $160 $-1 #
edge $-1 $172 11.288596705808889 $240 19.120810005733325 $165 $241 forward 7 unknown #
coedge $-1 $242 $162 $100 $168 forward $97 $-1 #
edge $-1 $243 11.023517333412308 $171 27.440411709736871 $167 $244 forward 7 unknown #
edge $-1 $172 -109.7616504409925 $243 -86.544655492571323 $101 $245 forward 7 unknown #
coedge $-1 $102 $239 $242 $246 reversed $160 $-1 #
vertex $-1 $246 $247 #
vertex $-1 $103 $248 #
straight-curve $-1 54.880825220496234 26.493300061579998 77.682082995523388 0 0 -1 I I #
coedge $-1 $174 $174 $-1 $249 reversed $106 $-1 #
edge $-1 $250 0 $250 6.2831853071796004 $107 $251 forward 7 unknown #
vertex $-1 $110 $252 #
ellipse-curve $-1 46.672378032333945 28.73107529012983 8.3461986875805625 0.70710678939079041 0 0.70710677298230451 0.70710677298230451 0 -0.70710678939079041 1 I I #
coedge $-1 $178 $178 $-1 $253 reversed $113 $-1 #
edge $-1 $254 0 $254 6.2831853071796004 $114 $255 forward 7 unknown #
vertex $-1 $117 $256 #
ellipse-curve $-1 46.672378032333945 32.087738132954584 8.3461986875805625 0.70710678939079041 0 0.70710677298230451 0.70710677298230451 0 -0.70710678939079041 1 I I #
face $-1 $-1 $257 $25 $-1 $258 reversed single #
loop $-1 $-1 $188 $118 #
plane-surface $-1 0 0 16.554646066220727 0 0 1 1 0 0 forward_v I I I I #
coedge $-1 $259 $260 $187 $261 forward $119 $-1 #
coedge $-1 $262 $121 $123 $192 forward $75 $-1 #
coedge $-1 $121 $262 $185 $261 reversed $75 $-1 #
coedge $-1 $263 $124 $121 $189 forward $183 $-1 #
edge $-1 $195 11.288596705808889 $264 19.120810005733325 $188 $265 forward 7 unknown #
coedge $-1 $266 $267 $122 $191 forward $257 $-1 #
edge $-1 $268 -38.737727565800746 $194 -22.320832808520457 $190 $269 forward 7 unknown #
edge $-1 $195 -23.216994948421164 $268 0 $123 $270 forward 7 unknown #
coedge $-1 $124 $263 $266 $271 forward $183 $-1 #
vertex $-1 $191 $272 #
vertex $-1 $125 $273 #
straight-curve $-1 -66.247016731030328 26.493300061579998 16.554646066220727 1 0 0 I I #
coedge $-1 $197 $197 $-1 $274 reversed $128 $-1 #
edge $-1 $275 0 $275 6.2831853071796004 $129 $276 forward 7 unknown #
vertex $-1 $132 $277 #
ellipse-curve $-1 -46.67237803233396 28.73107529012983 8.3461986875805803 -0.70710678939079041 0 0.70710677298230451 0.70710677298230451 0 0.70710678939079041 1 I I #
coedge $-1 $201 $201 $-1 $278 reversed $135 $-1 #
edge $-1 $279 0 $279 6.2831853071796004 $136 $280 forward 7 unknown #
vertex $-1 $139 $281 #
ellipse-curve $-1 -46.67237803233396 32.087738132954584 8.3461986875805803 -0.70710678939079041 0 0.70710677298230451 0.70710677298230451 0 0.70710678939079041 1 I I #
face $-1 $-1 $155 $21 $-1 $282 reversed single #
loop $-1 $-1 $221 $140 #
plane-surface $-1 0 34.325513361504434 0 0 -1 0 0 0 -1 forward_v I I I I #
coedge $-1 $283 $219 $222 $284 forward $141 $-1 #
coedge $-1 $225 $143 $144 $213 reversed $89 $-1 #
coedge $-1 $219 $283 $143 $211 reversed $141 $-1 #
edge $-1 $226 -16.554646066220727 $285 16.554646066220727 $210 $286 forward 7 unknown #
coedge $-1 $145 $144 $283 $287 forward $57 $-1 #
edge $-1 $217 -54.880825220496234 $285 54.880825220496234 $209 $288 forward 7 unknown #
coedge $-1 $222 $221 $145 $215 reversed $206 $-1 #
edge $-1 $289 -54.880825220496234 $216 54.880825220496234 $214 $290 forward 7 unknown #
vertex $-1 $147 $291 #
vertex $-1 $228 $292 #
straight-curve $-1 54.880825220496234 0 -16.554646066220727 0 -1 0 I I #
coedge $-1 $208 $210 $148 $220 reversed $141 $-1 #
edge $-1 $223 -34.325513361504434 $226 34.325513361504434 $219 $293 forward 7 unknown #
coedge $-1 $214 $149 $154 $229 forward $206 $-1 #
coedge $-1 $149 $214 $208 $284 reversed $206 $-1 #
vertex $-1 $150 $294 #
straight-curve $-1 0 34.325513361504434 16.554646066220727 -1 0 0 I I #
coedge $-1 $151 $209 $153 $228 reversed $89 $-1 #
vertex $-1 $220 $295 #
straight-curve $-1 0 -34.325513361504434 16.554646066220727 1 0 0 I I #
edge $-1 $156 -16.554646066220727 $217 16.554646066220727 $153 $296 forward 7 unknown #
edge $-1 $157 -16.554646066220727 $216 16.554646066220727 $154 $297 forward 7 unknown #
point $-1 54.880825220496234 -34.325513361504434 16.554646066220727 #
point $-1 54.880825220496234 34.325513361504434 16.554646066220727 #
loop $-1 $-1 $237 $159 #
plane-surface $-1 0 34.325513361504434 0 0 -1 0 0 0 -1 forward_v I I I I #
coedge $-1 $162 $242 $298 $299 forward $97 $-1 #
coedge $-1 $164 $163 $162 $236 reversed $61 $-1 #
edge $-1 $300 -19.120810005733325 $243 -11.288596705808889 $162 $301 forward 7 unknown #
coedge $-1 $298 $302 $164 $238 forward $232 $-1 #
edge $-1 $240 -74.23542438773211 $300 -51.018429439310928 $237 $303 forward 7 unknown #
coedge $-1 $170 $165 $302 $304 reversed $160 $-1 #
vertex $-1 $166 $305 #
straight-curve $-1 54.880825220496234 15.204703355771109 0.1377513089404161 0 1 0 I I #
coedge $-1 $234 $167 $170 $246 forward $97 $-1 #
vertex $-1 $168 $306 #
straight-curve $-1 27.440413510759363 26.493300061579998 16.554646066220727 1 0 0 I I #
straight-curve $-1 -22.732381220045696 26.493300061579998 77.750959550504845 -0.70710677298230451 0 0.70710678939079041 I I #
edge $-1 $171 26.493300061579998 $307 34.325513361504434 $170 $308 forward 7 unknown #
point $-1 54.880825220496234 26.493300061579998 16.554646066220727 #
point $-1 54.880825220496234 26.493300061579998 0.1377513089404232 #
edge $-1 $309 1 $309 0 $174 $-1 forward 7 unknown #
vertex $-1 $175 $310 #
ellipse-curve $-1 45.26517790325947 28.73107529012983 6.9389985911603089 0.70710678939079041 0 0.70710677298230451 0.70710677298230451 0 -0.70710678939079041 1 I I #
point $-1 47.379484805316274 28.73107529012983 7.6390918981897915 #
edge $-1 $311 1 $311 0 $178 $-1 forward 7 unknown #
vertex $-1 $179 $312 #
ellipse-curve $-1 45.26517790325947 32.087738132954584 6.9389985911603089 0.70710678939079041 0 0.70710677298230451 0.70710677298230451 0 -0.70710678939079041 1 I I #
point $-1 47.379484805316274 32.087738132954584 7.6390918981897915 #
loop $-1 $-1 $190 $182 #
plane-surface $-1 -54.880825220496234 0 0 1 0 0 0 0 -1 forward_v I I I I #
coedge $-1 $260 $185 $313 $314 reversed $119 $-1 #
coedge $-1 $185 $259 $263 $315 reversed $119 $-1 #
edge $-1 $264 -3.8623957811853029 $316 19.354599167235861 $185 $317 forward 7 unknown #
coedge $-1 $187 $186 $267 $318 reversed $75 $-1 #
coedge $-1 $193 $188 $260 $315 forward $183 $-1 #
vertex $-1 $315 $319 #
straight-curve $-1 -38.463930844171685 15.204703355771109 16.554646066220727 0 1 0 I I #
coedge $-1 $313 $190 $193 $271 reversed $257 $-1 #
coedge $-1 $190 $313 $262 $318 forward $257 $-1 #
vertex $-1 $191 $320 #
straight-curve $-1 -54.880825220496234 26.493300061579998 38.875478874741184 0 0 1 I I #
straight-curve $-1 -54.880825220496234 26.493300061579998 0.13775130894043741 -0.70710677298230451 0 -0.70710678939079041 I I #
edge $-1 $321 -34.325513361504434 $194 -26.493300061579998 $266 $322 forward 7 unknown #
point $-1 -54.880825220496234 26.493300061579998 16.554646066220727 #
point $-1 -38.463930844171685 26.493300061579998 16.554646066220727 #
edge $-1 $323 1 $323 0 $197 $-1 forward 7 unknown #
vertex $-1 $198 $324 #
ellipse-curve $-1 -45.265177903259463 28.73107529012983 6.9389985911603089 -0.70710678939079041 0 0.70710677298230451 0.70710677298230451 0 0.70710678939079041 1 I I #
point $-1 -45.965271259351653 28.73107529012983 9.0533054769713726 #
edge $-1 $325 1 $325 0 $201 $-1 forward 7 unknown #
vertex $-1 $202 $326 #
ellipse-curve $-1 -45.265177903259463 32.087738132954584 6.9389985911603089 -0.70710678939079041 0 0.70710677298230451 0.70710677298230451 0 0.70710678939079041 1 I I #
point $-1 -45.965271259351653 32.087738132954584 9.0533054769713726 #
plane-surface $-1 54.880825220496234 0 0 -1 0 0 0 0 1 forward_v I I I I #
coedge $-1 $210 $208 $212 $287 reversed $141 $-1 #
edge $-1 $223 -16.554646066220727 $289 16.554646066220727 $222 $327 forward 7 unknown #
vertex $-1 $287 $328 #
straight-curve $-1 -54.880825220496234 -34.325513361504434 0 0 0 -1 I I #
edge $-1 $285 -34.325513361504434 $289 34.325513361504434 $283 $329 forward 7 unknown #
straight-curve $-1 0 -34.325513361504434 -16.554646066220727 -1 0 0 I I #
vertex $-1 $215 $330 #
straight-curve $-1 0 34.325513361504434 -16.554646066220727 1 0 0 I I #
point $-1 54.880825220496234 34.325513361504434 -16.554646066220727 #
point $-1 54.880825220496234 -34.325513361504434 -16.554646066220727 #
straight-curve $-1 -54.880825220496234 0 16.554646066220727 0 -1 0 I I #
point $-1 -54.880825220496234 34.325513361504434 16.554646066220727 #
point $-1 -54.880825220496234 -34.325513361504434 16.554646066220727 #
straight-curve $-1 54.880825220496234 -34.325513361504434 0 0 0 -1 I I #
straight-curve $-1 54.880825220496234 34.325513361504434 0 0 0 -1 I I #
coedge $-1 $302 $237 $234 $299 reversed $232 $-1 #
edge $-1 $307 -54.880825220496234 $300 -38.463930844171671 $298 $331 forward 7 unknown #
vertex $-1 $238 $332 #
straight-curve $-1 38.463930844171664 15.204703355771109 16.55464606622072 0 -1 0 I I #
coedge $-1 $237 $298 $239 $304 forward $232 $-1 #
straight-curve $-1 2.3884538407151208 34.325513361504434 52.63012390681245 -0.70710677298230462 0 0.70710678939079052 I I #
edge $-1 $307 -16.554646066220727 $240 -0.13775130894042106 $239 $333 forward 7 unknown #
point $-1 54.880825220496234 34.325513361504434 0.13775130894042106 #
point $-1 38.463930844171671 26.493300061579998 16.55464606622072 #
vertex $-1 $246 $334 #
straight-curve $-1 54.880825220496234 0 16.554646066220727 0 1 0 I I #
vertex $-1 $249 $335 #
point $-1 45.97228467624177 28.73107529012983 6.2318918017695184 #
vertex $-1 $253 $336 #
point $-1 45.97228467624177 32.087738132954584 6.2318918017695184 #
coedge $-1 $267 $266 $259 $314 forward $257 $-1 #
edge $-1 $321 -16.554646066220727 $316 -0.13775130894043741 $259 $337 forward 7 unknown #
edge $-1 $264 38.463930844171685 $321 54.880825220496234 $260 $338 forward 7 unknown #
vertex $-1 $261 $339 #
straight-curve $-1 -41.195057060986088 34.325513361504434 13.82351978603025 -0.70710677298230462 0 -0.70710678939079052 I I #
edge $-1 $316 -19.120810005733325 $268 -11.288596705808889 $267 $340 forward 7 unknown #
point $-1 -38.463930844171685 34.325513361504434 16.554646066220727 #
point $-1 -54.880825220496234 26.493300061579998 0.13775130894043741 #
vertex $-1 $315 $341 #
straight-curve $-1 -54.880825220496234 0 16.554646066220727 0 -1 0 I I #
vertex $-1 $274 $342 #
point $-1 -44.558071130277156 28.73107529012983 7.6461053805510986 #
vertex $-1 $278 $343 #
point $-1 -44.558071130277156 32.087738132954584 7.6461053805510986 #
straight-curve $-1 -54.880825220496234 34.325513361504434 0 0 0 -1 I I #
point $-1 -54.880825220496234 -34.325513361504434 -16.554646066220727 #
straight-curve $-1 -54.880825220496234 0 -16.554646066220727 0 1 0 I I #
point $-1 -54.880825220496234 34.325513361504434 -16.554646066220727 #
straight-curve $-1 0 34.325513361504434 16.554646066220727 -1 0 0 I I #
point $-1 38.463930844171671 34.325513361504434 16.55464606622072 #
straight-curve $-1 54.880825220496234 34.325513361504434 0 0 0 -1 I I #
point $-1 54.880825220496234 34.325513361504434 16.554646066220727 #
point $-1 44.558071113868678 28.73107529012983 6.2318918181780036 #
point $-1 44.558071113868678 32.087738132954584 6.2318918181780036 #
straight-curve $-1 -54.880825220496234 34.325513361504434 0 0 0 -1 I I #
straight-curve $-1 0 34.325513361504434 16.554646066220727 -1 0 0 I I #
point $-1 -54.880825220496234 34.325513361504434 0.13775130894043741 #
straight-curve $-1 -54.880825220496234 15.204703355771109 0.13775130894043741 0 -1 0 I I #
point $-1 -54.880825220496234 34.325513361504434 16.554646066220727 #
point $-1 -44.558071113868671 28.73107529012983 6.2318918181780036 #
point $-1 -44.558071113868671 32.087738132954584 6.2318918181780036 #
End-of-ACIS-data 