500 0 6 0           
7 Unknown 11 ACIS 5.0 NT 24 Fri Mar 26 00:13:42 1999 
-1 9.9999999999999995e-007 1e-010 
body $-1 $6 $-1 $7 #
body $-1 $8 $-1 $9 #
body $-1 $10 $-1 $11 #
body $-1 $12 $-1 $13 #
body $-1 $14 $-1 $15 #
body $-1 $16 $-1 $17 #
lump $-1 $-1 $18 $0 #
transform $-1 1 0 0 0 1 0 0 0 1 60.524307992797631 30.557876574286535 11.522968930688938 1 rotate no_reflect no_shear #
lump $-1 $-1 $19 $1 #
transform $-1 1 0 0 0 1 0 0 0 1 60.524307992797631 30.557876574286535 11.522968930688938 1 rotate no_reflect no_shear #
lump $-1 $-1 $20 $2 #
transform $-1 1 0 0 0 1 0 0 0 1 60.524307992797631 30.557876574286535 11.522968930688938 1 rotate no_reflect no_shear #
lump $-1 $-1 $21 $3 #
transform $-1 1 0 0 0 1 0 0 0 1 60.524307992797631 30.557876574286535 11.522968930688938 1 rotate no_reflect no_shear #
lump $-1 $-1 $22 $4 #
transform $-1 1 0 0 0 1 0 0 0 1 60.524307992797631 30.557876574286535 11.522968930688938 1 rotate no_reflect no_shear #
lump $-1 $-1 $23 $5 #
transform $-1 1 0 0 0 1 0 0 0 1 60.524307992797631 30.557876574286535 11.522968930688938 1 rotate no_reflect no_shear #
shell $-1 $-1 $-1 $24 $-1 $6 #
shell $-1 $-1 $-1 $25 $-1 $8 #
shell $-1 $-1 $-1 $26 $-1 $10 #
shell $-1 $-1 $-1 $27 $-1 $12 #
shell $-1 $-1 $-1 $28 $-1 $14 #
shell $-1 $-1 $-1 $29 $-1 $16 #
face $-1 $30 $31 $18 $-1 $32 forward single #
face $-1 $33 $34 $19 $-1 $35 forward single #
face $-1 $36 $37 $20 $-1 $38 reversed single #
face $-1 $39 $40 $21 $-1 $41 forward single #
face $-1 $42 $43 $22 $-1 $44 reversed single #
face $-1 $45 $46 $23 $-1 $47 forward single #
face $-1 $48 $49 $18 $-1 $50 reversed single #
loop $-1 $-1 $51 $24 #
plane-surface $-1 0 0 11.522968930688938 0 0 1 1 0 0 forward_v I I I I #
face $-1 $52 $53 $19 $-1 $54 reversed single #
loop $-1 $-1 $55 $25 #
plane-surface $-1 0 -30.557876574286535 0 0 1 0 0 0 1 forward_v I I I I #
face $-1 $56 $57 $20 $-1 $58 reversed single #
loop $-1 $-1 $59 $26 #
plane-surface $-1 -163.17935728101682 -18.311218634458378 67.874384472334796 0 1 0 -0.84804810408105047 0 0.52991925155115449 forward_v I I I I #
face $-1 $60 $61 $21 $-1 $62 forward single #
loop $-1 $63 $64 $27 #
cone-surface $-1 -56.09685479414469 -13.489841012917243 6.3808427006662196 0.84804810408105047 0 -0.52991925155115449 0.79487887732673168 0 1.2720721561215758 1 I I 0 1 1.5 forward I I I I #
face $-1 $65 $66 $22 $-1 $67 reversed single #
loop $-1 $-1 $68 $28 #
plane-surface $-1 99.033365296627082 -8.6684633913761076 170.52943376055401 0 -1 0 -0.84804810408105047 0 -0.52991925155115449 forward_v I I I I #
face $-1 $69 $70 $23 $-1 $71 forward single #
loop $-1 $72 $73 $29 #
cone-surface $-1 56.096854794144697 -13.489841012917243 6.3808427006662125 -0.84804810408105047 0 -0.52991925155115449 0.79487887732673168 0 -1.2720721561215758 1 I I 0 1 1.5 forward I I I I #
face $-1 $74 $75 $18 $-1 $76 reversed single #
loop $-1 $-1 $77 $30 #
plane-surface $-1 0 0 -11.522968930688938 0 0 1 1 0 0 forward_v I I I I #
coedge $-1 $78 $79 $80 $81 forward $31 $-1 #
face $-1 $82 $83 $19 $-1 $84 forward single #
loop $-1 $-1 $85 $33 #
plane-surface $-1 -60.524307992797631 0 0 1 0 0 0 0 -1 forward_v I I I I #
coedge $-1 $86 $87 $88 $89 forward $34 $-1 #
face $-1 $90 $91 $20 $-1 $92 reversed single #
loop $-1 $-1 $93 $36 #
plane-surface $-1 -60.524307992797631 -13.489841012917243 3.7283924879450439 -0.84804810408105047 0 0.52991925155115449 0.52991925155115449 0 0.84804810408105047 forward_v I I I I #
coedge $-1 $94 $95 $96 $97 reversed $37 $-1 #
face $-1 $-1 $98 $21 $-1 $99 forward single #
loop $-1 $100 $101 $39 #
cone-surface $-1 -53.468661401485171 -13.489841012917243 4.7385652533520801 0.84804810408105047 0 -0.52991925155115449 0.39743943866336584 0 0.63603607806078788 1 I I -0.70710678118654757 0.70710678118654757 0.75 forward I I I I #
loop $-1 $-1 $102 $27 #
coedge $-1 $64 $64 $103 $104 reversed $40 $-1 #
face $-1 $105 $106 $22 $-1 $107 reversed single #
loop $-1 $-1 $108 $42 #
plane-surface $-1 -3.6216839915921071 -13.489841012917243 106.38344177616426 0.84804810408105047 0 0.52991925155115449 0.52991925155115449 0 -0.84804810408105047 forward_v I I I I #
coedge $-1 $109 $110 $111 $112 reversed $43 $-1 #
face $-1 $-1 $113 $23 $-1 $114 forward single #
loop $-1 $115 $116 $45 #
cone-surface $-1 53.468661401485178 -13.489841012917243 4.738565253352073 -0.84804810408105047 0 -0.52991925155115449 0.39743943866336584 0 -0.63603607806078788 1 I I -0.70710678118654757 0.70710678118654757 0.75 forward I I I I #
loop $-1 $-1 $117 $29 #
coedge $-1 $73 $73 $118 $119 reversed $46 $-1 #
face $-1 $120 $121 $18 $-1 $122 reversed single #
loop $-1 $-1 $123 $48 #
plane-surface $-1 0 -30.557876574286535 0 0 1 0 0 0 1 forward_v I I I I #
coedge $-1 $124 $125 $126 $127 forward $49 $-1 #
coedge $-1 $128 $51 $129 $130 forward $31 $-1 #
coedge $-1 $51 $128 $131 $132 forward $31 $-1 #
coedge $-1 $133 $134 $51 $81 reversed $135 $-1 #
edge $-1 $136 -30.557876574286535 $137 30.557876574286535 $80 $138 forward 7 unknown #
face $-1 $139 $140 $19 $-1 $141 reversed single #
loop $-1 $-1 $142 $52 #
plane-surface $-1 0 -36.681205544200616 6.3595879703390183 0 0 1 1 0 0 forward_v I I I I #
coedge $-1 $143 $144 $87 $145 forward $53 $-1 #
coedge $-1 $146 $55 $147 $148 reversed $34 $-1 #
coedge $-1 $55 $146 $85 $145 reversed $34 $-1 #
coedge $-1 $149 $142 $55 $89 reversed $83 $-1 #
edge $-1 $150 -60.524307992797631 $151 60.524307992797631 $88 $152 forward 7 unknown #
face $-1 $153 $154 $20 $-1 $155 forward single #
loop $-1 $-1 $156 $56 #
plane-surface $-1 -163.17935728101682 -8.6684633913761076 67.874384472334796 0 -1 0 0.84804810408105047 0 -0.52991925155115449 forward_v I I I I #
coedge $-1 $157 $158 $159 $160 reversed $57 $-1 #
coedge $-1 $95 $59 $161 $162 reversed $37 $-1 #
coedge $-1 $59 $94 $157 $163 reversed $37 $-1 #
coedge $-1 $159 $164 $59 $97 forward $154 $-1 #
edge $-1 $165 21.065370647710779 $166 25.935962415819183 $96 $167 forward 7 unknown #
loop $-1 $-1 $103 $60 #
plane-surface $-1 -60.524307992797631 -13.489841012917243 3.7283924879450439 -0.84804810408105047 0 0.52991925155115449 0.52991925155115449 0 0.84804810408105047 forward_v I I I I #
loop $-1 $-1 $168 $39 #
coedge $-1 $101 $101 $102 $169 reversed $61 $-1 #
coedge $-1 $102 $102 $101 $169 forward $63 $-1 #
coedge $-1 $103 $103 $64 $104 forward $98 $-1 #
edge $-1 $170 0 $170 6.2831853071796004 $103 $171 forward 7 unknown #
face $-1 $172 $173 $22 $-1 $174 reversed single #
loop $-1 $-1 $175 $65 #
plane-surface $-1 99.033365296627082 -18.311218634458378 170.52943376055401 0 1 0 0.84804810408105047 0 0.52991925155115449 forward_v I I I I #
coedge $-1 $176 $177 $178 $179 reversed $66 $-1 #
coedge $-1 $110 $68 $180 $181 reversed $43 $-1 #
coedge $-1 $68 $109 $176 $182 reversed $43 $-1 #
coedge $-1 $178 $183 $68 $112 forward $184 $-1 #
edge $-1 $185 -11.00762534448409 $186 -6.1370335763757211 $111 $187 forward 7 unknown #
loop $-1 $-1 $118 $69 #
plane-surface $-1 -3.6216839915921071 -13.489841012917243 106.38344177616426 0.84804810408105047 0 0.52991925155115449 0.52991925155115449 0 -0.84804810408105047 forward_v I I I I #
loop $-1 $-1 $188 $45 #
coedge $-1 $116 $116 $117 $189 reversed $70 $-1 #
coedge $-1 $117 $117 $116 $189 forward $72 $-1 #
coedge $-1 $118 $118 $73 $119 forward $113 $-1 #
edge $-1 $190 0 $190 6.2831853071796004 $118 $191 forward 7 unknown #
face $-1 $192 $193 $18 $-1 $194 reversed single #
loop $-1 $-1 $195 $74 #
plane-surface $-1 -60.524307992797631 0 0 1 0 0 0 0 -1 forward_v I I I I #
coedge $-1 $196 $131 $197 $198 forward $75 $-1 #
coedge $-1 $199 $77 $196 $200 forward $49 $-1 #
coedge $-1 $77 $199 $201 $202 forward $49 $-1 #
coedge $-1 $134 $133 $77 $127 reversed $135 $-1 #
edge $-1 $203 -30.557876574286535 $204 30.557876574286535 $126 $205 forward 7 unknown #
coedge $-1 $79 $78 $206 $207 forward $31 $-1 #
coedge $-1 $208 $209 $78 $130 reversed $193 $-1 #
edge $-1 $137 -60.524307992797631 $210 60.524307992797631 $129 $211 forward 7 unknown #
coedge $-1 $123 $212 $79 $132 reversed $75 $-1 #
edge $-1 $213 -60.524307992797631 $136 60.524307992797631 $131 $214 forward 7 unknown #
coedge $-1 $126 $80 $212 $215 forward $135 $-1 #
coedge $-1 $80 $126 $208 $216 reversed $135 $-1 #
loop $-1 $-1 $133 $192 #
vertex $-1 $81 $217 #
vertex $-1 $81 $218 #
straight-curve $-1 60.524307992797631 0 11.522968930688938 0 1 0 I I #
face $-1 $219 $220 $19 $-1 $221 reversed single #
loop $-1 $-1 $222 $82 #
plane-surface $-1 0 -36.681205544200616 3.0602075235019646 0 0 1 1 0 0 forward_v I I I I #
coedge $-1 $88 $223 $224 $225 forward $83 $-1 #
coedge $-1 $226 $85 $227 $228 reversed $53 $-1 #
coedge $-1 $85 $226 $149 $229 reversed $53 $-1 #
edge $-1 $150 -6.3595879703390183 $230 -3.0602075235019646 $85 $231 forward 7 unknown #
coedge $-1 $87 $86 $232 $233 forward $34 $-1 #
coedge $-1 $224 $234 $86 $148 forward $235 $-1 #
edge $-1 $236 3.0602075235019646 $151 6.3595879703390183 $147 $237 forward 7 unknown #
coedge $-1 $223 $88 $144 $229 forward $83 $-1 #
vertex $-1 $145 $238 #
vertex $-1 $225 $239 #
straight-curve $-1 0 -30.557876574286535 6.3595879703390183 1 0 0 I I #
face $-1 $-1 $240 $20 $-1 $241 reversed single #
loop $-1 $-1 $96 $90 #
plane-surface $-1 0 0 11.522968930688938 0 0 1 1 0 0 forward_v I I I I #
coedge $-1 $242 $243 $244 $245 reversed $91 $-1 #
coedge $-1 $246 $93 $95 $163 forward $57 $-1 #
coedge $-1 $93 $246 $242 $247 forward $57 $-1 #
coedge $-1 $244 $96 $93 $160 forward $154 $-1 #
edge $-1 $166 -11.566298127999756 $248 -1.9235428849174863 $159 $249 forward 7 unknown #
coedge $-1 $250 $251 $94 $162 forward $240 $-1 #
edge $-1 $252 -30.208799748222354 $165 -22.414223305478458 $161 $253 forward 7 unknown #
edge $-1 $166 -9.1911961187509963 $252 0 $95 $254 forward 7 unknown #
coedge $-1 $96 $244 $250 $255 forward $154 $-1 #
vertex $-1 $162 $256 #
vertex $-1 $97 $257 #
straight-curve $-1 -81.58967864050841 -18.311218634458378 11.52296893068894 1 0 0 I I #
coedge $-1 $168 $168 $-1 $258 reversed $100 $-1 #
edge $-1 $259 0 $259 6.2831853071796004 $101 $260 forward 7 unknown #
vertex $-1 $104 $261 #
ellipse-curve $-1 -58.089012108743425 -13.489841012917243 7.6256807093169945 -0.84804810408105047 0 0.52991925155115449 0.79487887732673168 0 1.2720721561215758 1 I I #
face $-1 $-1 $184 $22 $-1 $262 forward single #
loop $-1 $-1 $263 $105 #
plane-surface $-1 60.524307992797631 0 0 -1 0 0 0 0 1 forward_v I I I I #
coedge $-1 $264 $265 $266 $267 reversed $106 $-1 #
coedge $-1 $268 $108 $110 $182 forward $66 $-1 #
coedge $-1 $108 $268 $264 $269 forward $66 $-1 #
coedge $-1 $266 $111 $108 $179 forward $184 $-1 #
edge $-1 $186 1.9235428849174863 $270 11.566298127999756 $178 $271 forward 7 unknown #
coedge $-1 $272 $273 $109 $181 forward $173 $-1 #
edge $-1 $274 -81.53632439233192 $185 -73.741747949588074 $180 $275 forward 7 unknown #
edge $-1 $186 111.85741986684428 $274 121.04861598559522 $110 $276 forward 7 unknown #
coedge $-1 $111 $266 $272 $277 forward $184 $-1 #
loop $-1 $-1 $266 $172 #
vertex $-1 $181 $278 #
vertex $-1 $112 $279 #
straight-curve $-1 49.516682648313541 -8.6684633913761076 11.522968930688933 -1 0 0 I I #
coedge $-1 $188 $188 $-1 $280 reversed $115 $-1 #
edge $-1 $281 0 $281 6.2831853071796004 $116 $282 forward 7 unknown #
vertex $-1 $119 $283 #
ellipse-curve $-1 58.089012108743454 -13.489841012917243 7.6256807093169998 0.84804810408105047 0 0.52991925155115449 0.79487887732673168 0 -1.2720721561215758 1 I I #
face $-1 $-1 $135 $18 $-1 $284 reversed single #
loop $-1 $-1 $208 $120 #
plane-surface $-1 0 30.557876574286535 0 0 -1 0 0 0 -1 forward_v I I I I #
coedge $-1 $285 $206 $209 $286 forward $121 $-1 #
coedge $-1 $212 $123 $124 $200 reversed $75 $-1 #
coedge $-1 $206 $285 $123 $198 reversed $121 $-1 #
edge $-1 $213 -11.522968930688938 $287 11.522968930688938 $197 $288 forward 7 unknown #
coedge $-1 $125 $124 $285 $289 forward $49 $-1 #
edge $-1 $204 -60.524307992797631 $287 60.524307992797631 $196 $290 forward 7 unknown #
coedge $-1 $209 $208 $125 $202 reversed $193 $-1 #
edge $-1 $291 -60.524307992797631 $203 60.524307992797631 $201 $292 forward 7 unknown #
vertex $-1 $127 $293 #
vertex $-1 $215 $294 #
straight-curve $-1 60.524307992797631 0 -11.522968930688938 0 -1 0 I I #
coedge $-1 $195 $197 $128 $207 reversed $121 $-1 #
edge $-1 $210 -30.557876574286535 $213 30.557876574286535 $206 $295 forward 7 unknown #
coedge $-1 $201 $129 $134 $216 forward $193 $-1 #
coedge $-1 $129 $201 $195 $286 reversed $193 $-1 #
vertex $-1 $130 $296 #
straight-curve $-1 0 30.557876574286535 11.522968930688938 -1 0 0 I I #
coedge $-1 $131 $196 $133 $215 reversed $75 $-1 #
vertex $-1 $207 $297 #
straight-curve $-1 0 -30.557876574286535 11.522968930688938 1 0 0 I I #
edge $-1 $136 -11.522968930688938 $204 11.522968930688938 $133 $298 forward 7 unknown #
edge $-1 $137 -11.522968930688938 $203 11.522968930688938 $134 $299 forward 7 unknown #
point $-1 60.524307992797631 -30.557876574286535 11.522968930688938 #
point $-1 60.524307992797631 30.557876574286535 11.522968930688938 #
face $-1 $-1 $235 $19 $-1 $300 reversed single #
loop $-1 $-1 $301 $139 #
plane-surface $-1 0 -42.804534514114692 4.7098977469204915 0 1 0 0 0 1 forward_v I I I I #
coedge $-1 $302 $232 $234 $303 forward $140 $-1 #
coedge $-1 $142 $149 $304 $305 forward $83 $-1 #
coedge $-1 $306 $147 $142 $225 reversed $235 $-1 #
edge $-1 $307 -6.1233289699140769 $151 6.1233289699140769 $224 $308 forward 7 unknown #
coedge $-1 $144 $143 $301 $309 reversed $53 $-1 #
coedge $-1 $232 $302 $143 $228 forward $140 $-1 #
edge $-1 $310 -6.1233289699140769 $230 6.1233289699140769 $143 $311 forward 7 unknown #
edge $-1 $150 -6.1233289699140769 $312 6.1233289699140769 $144 $313 forward 7 unknown #
vertex $-1 $145 $314 #
straight-curve $-1 -60.524307992797631 -30.557876574286535 0 0 0 -1 I I #
coedge $-1 $222 $227 $146 $233 reversed $140 $-1 #
edge $-1 $236 -60.524307992797631 $230 60.524307992797631 $232 $315 forward 7 unknown #
coedge $-1 $147 $306 $222 $303 reversed $235 $-1 #
loop $-1 $-1 $147 $219 #
vertex $-1 $148 $316 #
straight-curve $-1 60.524307992797631 -30.557876574286535 0 0 0 1 I I #
point $-1 -60.524307992797631 -30.557876574286539 6.3595879703390183 #
point $-1 60.524307992797631 -30.557876574286539 6.3595879703390183 #
loop $-1 $-1 $161 $153 #
plane-surface $-1 -60.524307992797631 0 0 1 0 0 0 0 -1 forward_v I I I I #
coedge $-1 $243 $156 $158 $247 reversed $91 $-1 #
coedge $-1 $156 $242 $317 $318 reversed $91 $-1 #
coedge $-1 $164 $159 $156 $245 forward $154 $-1 #
edge $-1 $248 -25.935962415819183 $319 -21.065370647710779 $244 $320 forward 7 unknown #
coedge $-1 $158 $157 $251 $321 reversed $57 $-1 #
edge $-1 $322 0 $248 9.1911961187509963 $242 $323 forward 7 unknown #
vertex $-1 $160 $324 #
straight-curve $-1 -55.653716224689227 -6.7449205064586213 11.52296893068894 0 1 0 I I #
coedge $-1 $317 $161 $164 $255 reversed $240 $-1 #
coedge $-1 $161 $317 $246 $321 forward $240 $-1 #
vertex $-1 $162 $325 #
straight-curve $-1 -60.524307992797631 -18.311218634458378 33.937192236167398 0 0 1 I I #
straight-curve $-1 -60.524307992797631 -18.311218634458378 3.7283924879450439 -0.52991925155115449 0 -0.84804810408105047 I I #
edge $-1 $319 8.6684633913761076 $165 18.311218634458378 $250 $326 forward 7 unknown #
point $-1 -60.524307992797631 -18.311218634458378 11.522968930688938 #
point $-1 -55.653716224689227 -18.311218634458378 11.522968930688936 #
edge $-1 $327 1 $327 0 $168 $-1 forward 7 unknown #
vertex $-1 $169 $328 #
ellipse-curve $-1 -54.104697479545962 -13.489841012917243 5.1360046920154456 -0.84804810408105047 0 0.52991925155115449 0.79487887732673168 0 1.2720721561215758 1 I I #
point $-1 -57.294133231416694 -13.489841012917243 8.8977528654385694 #
plane-surface $-1 0 0 11.522968930688938 0 0 1 1 0 0 forward_v I I I I #
coedge $-1 $273 $272 $265 $329 forward $173 $-1 #
coedge $-1 $265 $175 $177 $269 reversed $106 $-1 #
coedge $-1 $175 $264 $263 $329 reversed $106 $-1 #
coedge $-1 $183 $178 $175 $267 forward $184 $-1 #
edge $-1 $270 6.1370335763757211 $330 11.00762534448409 $266 $331 forward 7 unknown #
coedge $-1 $177 $176 $273 $332 reversed $66 $-1 #
edge $-1 $333 -121.04861598559522 $270 -111.85741986684428 $264 $334 forward 7 unknown #
vertex $-1 $179 $335 #
straight-curve $-1 55.653716224689248 -6.7449205064586213 11.52296893068894 0 -1 0 I I #
coedge $-1 $263 $180 $183 $277 reversed $173 $-1 #
coedge $-1 $180 $263 $268 $332 forward $173 $-1 #
vertex $-1 $181 $336 #
straight-curve $-1 60.524307992797631 -8.6684633913761076 85.264716880277007 0 0 1 I I #
straight-curve $-1 -3.6216839915921071 -8.6684633913761076 106.38344177616426 0.52991925155115449 0 -0.84804810408105047 I I #
edge $-1 $330 -18.311218634458378 $185 -8.6684633913761076 $272 $337 forward 7 unknown #
point $-1 60.524307992797631 -8.6684633913761076 11.522968930688938 #
point $-1 55.653716224689262 -8.6684633913761076 11.522968930688933 #
edge $-1 $338 1 $338 0 $188 $-1 forward 7 unknown #
vertex $-1 $189 $339 #
ellipse-curve $-1 54.104697479545969 -13.489841012917243 5.1360046920154385 0.84804810408105047 0 0.52991925155115449 0.79487887732673168 0 -1.2720721561215758 1 I I #
point $-1 58.883890986070163 -13.489841012917243 6.3536085531954098 #
plane-surface $-1 60.524307992797631 0 0 -1 0 0 0 0 1 forward_v I I I I #
coedge $-1 $197 $195 $199 $289 reversed $121 $-1 #
edge $-1 $210 -11.522968930688938 $291 11.522968930688938 $209 $340 forward 7 unknown #
vertex $-1 $289 $341 #
straight-curve $-1 -60.524307992797631 -30.557876574286535 0 0 0 -1 I I #
edge $-1 $287 -30.557876574286535 $291 30.557876574286535 $285 $342 forward 7 unknown #
straight-curve $-1 0 -30.557876574286535 -11.522968930688938 -1 0 0 I I #
vertex $-1 $202 $343 #
straight-curve $-1 0 30.557876574286535 -11.522968930688938 1 0 0 I I #
point $-1 60.524307992797631 30.557876574286535 -11.522968930688938 #
point $-1 60.524307992797631 -30.557876574286535 -11.522968930688938 #
straight-curve $-1 -60.524307992797631 0 11.522968930688938 0 -1 0 I I #
point $-1 -60.524307992797631 30.557876574286535 11.522968930688938 #
point $-1 -60.524307992797631 -30.557876574286535 11.522968930688938 #
straight-curve $-1 60.524307992797631 -30.557876574286535 0 0 0 -1 I I #
straight-curve $-1 60.524307992797631 30.557876574286535 0 0 0 -1 I I #
plane-surface $-1 60.524307992797631 0 0 -1 0 0 0 0 1 forward_v I I I I #
coedge $-1 $344 $304 $226 $309 forward $220 $-1 #
coedge $-1 $227 $222 $344 $345 forward $140 $-1 #
edge $-1 $236 -6.1233289699140769 $346 6.1233289699140769 $234 $347 forward 7 unknown #
coedge $-1 $301 $348 $223 $305 reversed $220 $-1 #
edge $-1 $312 -60.524307992797631 $307 60.524307992797631 $304 $349 forward 7 unknown #
coedge $-1 $234 $224 $348 $350 forward $235 $-1 #
vertex $-1 $225 $351 #
straight-curve $-1 60.524307992797631 -36.681205544200616 6.3595879703390183 0 1 0 I I #
edge $-1 $312 -1.6496902234185269 $310 1.6496902234185269 $226 $352 forward 7 unknown #
vertex $-1 $228 $353 #
straight-curve $-1 -60.524307992797631 -36.681205544200616 3.0602075235019646 0 1 0 I I #
vertex $-1 $229 $354 #
straight-curve $-1 -60.524307992797631 -36.681205544200616 6.3595879703390183 0 -1 0 I I #
point $-1 -60.524307992797631 -30.557876574286539 3.0602075235019646 #
straight-curve $-1 0 -30.557876574286535 3.0602075235019646 -1 0 0 I I #
point $-1 60.524307992797631 -30.557876574286539 3.0602075235019646 #
coedge $-1 $251 $250 $243 $318 forward $240 $-1 #
edge $-1 $319 22.414223305478458 $322 30.208799748222354 $317 $355 forward 7 unknown #
vertex $-1 $255 $356 #
straight-curve $-1 -81.58967864050841 -8.6684633913761076 11.52296893068894 -1 0 0 I I #
edge $-1 $322 1.9235428849174863 $252 11.566298127999756 $251 $357 forward 7 unknown #
vertex $-1 $321 $358 #
straight-curve $-1 -60.524307992797631 -8.6684633913761076 3.7283924879450439 0.52991925155115449 0 0.84804810408105047 I I #
point $-1 -55.653716224689227 -8.6684633913761076 11.522968930688936 #
point $-1 -60.524307992797631 -18.311218634458378 3.7283924879450439 #
straight-curve $-1 -60.524307992797631 0 11.522968930688938 0 -1 0 I I #
vertex $-1 $258 $359 #
point $-1 -53.309818602219231 -13.489841012917243 6.4080768481370214 #
edge $-1 $330 73.741747949588074 $333 81.53632439233192 $263 $360 forward 7 unknown #
vertex $-1 $277 $361 #
straight-curve $-1 49.516682648313541 -18.311218634458378 11.522968930688933 1 0 0 I I #
edge $-1 $333 -11.566298127999756 $274 -1.9235428849174863 $273 $362 forward 7 unknown #
vertex $-1 $332 $363 #
straight-curve $-1 -3.6216839915921071 -18.311218634458378 106.38344177616426 -0.52991925155115449 0 0.84804810408105047 I I #
point $-1 55.653716224689262 -18.311218634458378 11.522968930688933 #
point $-1 60.524307992797631 -8.6684633913761076 3.7283924879450865 #
straight-curve $-1 60.524307992797631 0 11.522968930688938 0 1 0 I I #
vertex $-1 $280 $364 #
point $-1 54.8995763568727 -13.489841012917243 3.8639325358938632 #
straight-curve $-1 -60.524307992797631 30.557876574286535 0 0 0 -1 I I #
point $-1 -60.524307992797631 -30.557876574286535 -11.522968930688938 #
straight-curve $-1 -60.524307992797631 0 -11.522968930688938 0 1 0 I I #
point $-1 -60.524307992797631 30.557876574286535 -11.522968930688938 #
coedge $-1 $348 $301 $302 $345 reversed $220 $-1 #
edge $-1 $346 -60.524307992797631 $310 60.524307992797631 $344 $365 forward 7 unknown #
vertex $-1 $350 $366 #
straight-curve $-1 60.524307992797631 -36.681205544200616 3.0602075235019646 0 -1 0 I I #
coedge $-1 $304 $344 $306 $350 reversed $220 $-1 #
straight-curve $-1 0 -42.804534514114692 6.3595879703390183 1 0 0 I I #
edge $-1 $307 -1.6496902234185269 $346 1.6496902234185269 $306 $367 forward 7 unknown #
point $-1 60.524307992797631 -42.804534514114692 6.3595879703390183 #
straight-curve $-1 -60.524307992797631 -42.804534514114692 4.7098977469204915 0 0 -1 I I #
point $-1 -60.524307992797631 -42.804534514114692 3.0602075235019646 #
point $-1 -60.524307992797631 -42.804534514114692 6.3595879703390183 #
straight-curve $-1 -60.524307992797631 -8.6684633913761076 33.937192236167398 0 0 -1 I I #
point $-1 -60.524307992797631 -8.6684633913761076 11.522968930688938 #
straight-curve $-1 -60.524307992797631 -6.7449205064586213 3.7283924879450421 0 -1 0 I I #
point $-1 -60.524307992797631 -8.6684633913761076 3.7283924879450439 #
point $-1 -52.832625323424381 -13.489841012917243 4.3411258146887146 #
straight-curve $-1 60.524307992797631 -18.311218634458378 85.264716880277007 0 0 -1 I I #
point $-1 60.524307992797631 -18.311218634458378 11.522968930688938 #
straight-curve $-1 60.524307992797631 -6.7449205064586213 3.7283924879450936 0 1 0 I I #
point $-1 60.524307992797631 -18.311218634458378 3.7283924879450865 #
point $-1 52.832625323424388 -13.489841012917243 4.3411258146887075 #
straight-curve $-1 0 -42.804534514114692 3.0602075235019646 -1 0 0 I I #
point $-1 60.524307992797631 -42.804534514114692 3.0602075235019646 #
straight-curve $-1 60.524307992797631 -42.804534514114692 4.7098977469204915 0 0 -1 I I #
End-of-ACIS-data 