500 0 13 0           
7 Unknown 11 ACIS 5.0 NT 24 Fri Mar 26 00:31:46 1999 
-1 9.9999999999999995e-007 1e-010 
body $-1 $13 $-1 $14 #
body $-1 $15 $-1 $16 #
body $-1 $17 $-1 $18 #
body $-1 $19 $-1 $20 #
body $-1 $21 $-1 $22 #
body $-1 $23 $-1 $24 #
body $-1 $25 $-1 $26 #
body $-1 $27 $-1 $28 #
body $-1 $29 $-1 $30 #
body $-1 $31 $-1 $32 #
body $-1 $33 $-1 $34 #
body $-1 $35 $-1 $36 #
body $-1 $37 $-1 $38 #
lump $-1 $-1 $39 $0 #
transform $-1 1 0 0 0 1 0 0 0 1 56.877956480605491 38.538734152859732 8.9462272243510927 1 rotate no_reflect no_shear #
lump $-1 $-1 $40 $1 #
transform $-1 1 0 0 0 1 0 0 0 1 56.877956480605491 38.538734152859732 8.9462272243510927 1 rotate no_reflect no_shear #
lump $-1 $-1 $41 $2 #
transform $-1 1 0 0 0 1 0 0 0 1 56.877956480605491 38.538734152859732 8.9462272243510927 1 rotate no_reflect no_shear #
lump $-1 $-1 $42 $3 #
transform $-1 1 0 0 0 1 0 0 0 1 56.877956480605491 38.538734152859732 8.9462272243510927 1 rotate no_reflect no_shear #
lump $-1 $-1 $43 $4 #
transform $-1 1 0 0 0 1 0 0 0 1 56.877956480605491 38.538734152859732 8.9462272243510927 1 rotate no_reflect no_shear #
lump $-1 $-1 $44 $5 #
transform $-1 1 0 0 0 1 0 0 0 1 56.877956480605491 38.538734152859732 8.9462272243510927 1 rotate no_reflect no_shear #
lump $-1 $-1 $45 $6 #
transform $-1 1 0 0 0 1 0 0 0 1 56.877956480605491 38.538734152859732 8.9462272243510927 1 rotate no_reflect no_shear #
lump $-1 $-1 $46 $7 #
transform $-1 1 0 0 0 1 0 0 0 1 56.877956480605491 38.538734152859732 8.9462272243510927 1 rotate no_reflect no_shear #
lump $-1 $-1 $47 $8 #
transform $-1 1 0 0 0 1 0 0 0 1 56.877956480605491 38.538734152859732 8.9462272243510927 1 rotate no_reflect no_shear #
lump $-1 $-1 $48 $9 #
transform $-1 1 0 0 0 1 0 0 0 1 56.877956480605491 38.538734152859732 8.9462272243510927 1 rotate no_reflect no_shear #
lump $-1 $-1 $49 $10 #
transform $-1 1 0 0 0 1 0 0 0 1 56.877956480605491 38.538734152859732 8.9462272243510927 1 rotate no_reflect no_shear #
lump $-1 $-1 $50 $11 #
transform $-1 1 0 0 0 1 0 0 0 1 56.877956480605491 38.538734152859732 8.9462272243510927 1 rotate no_reflect no_shear #
lump $-1 $-1 $51 $12 #
transform $-1 1 0 0 0 1 0 0 0 1 56.877956480605491 38.538734152859732 8.9462272243510927 1 rotate no_reflect no_shear #
shell $-1 $-1 $-1 $52 $-1 $13 #
shell $-1 $-1 $-1 $53 $-1 $15 #
shell $-1 $-1 $-1 $54 $-1 $17 #
shell $-1 $-1 $-1 $55 $-1 $19 #
shell $-1 $-1 $-1 $56 $-1 $21 #
shell $-1 $-1 $-1 $57 $-1 $23 #
shell $-1 $-1 $-1 $58 $-1 $25 #
shell $-1 $-1 $-1 $59 $-1 $27 #
shell $-1 $-1 $-1 $60 $-1 $29 #
shell $-1 $-1 $-1 $61 $-1 $31 #
shell $-1 $-1 $-1 $62 $-1 $33 #
shell $-1 $-1 $-1 $63 $-1 $35 #
shell $-1 $-1 $-1 $64 $-1 $37 #
face $-1 $65 $66 $39 $-1 $67 forward single #
face $-1 $68 $69 $40 $-1 $70 reversed single #
face $-1 $71 $72 $41 $-1 $73 forward single #
face $-1 $74 $75 $42 $-1 $76 forward single #
face $-1 $77 $78 $43 $-1 $79 forward single #
face $-1 $80 $81 $44 $-1 $82 reversed single #
face $-1 $83 $84 $45 $-1 $85 forward single #
face $-1 $86 $87 $46 $-1 $88 reversed single #
face $-1 $89 $90 $47 $-1 $91 forward single #
face $-1 $92 $93 $48 $-1 $94 reversed single #
face $-1 $95 $96 $49 $-1 $97 forward single #
face $-1 $98 $99 $50 $-1 $100 reversed single #
face $-1 $101 $102 $51 $-1 $103 forward single #
face $-1 $104 $105 $39 $-1 $106 reversed single #
loop $-1 $-1 $107 $52 #
plane-surface $-1 0 0 8.9462272243510927 0 0 1 1 0 0 forward_v I I I I #
face $-1 $108 $109 $40 $-1 $110 reversed single #
loop $-1 $-1 $111 $53 #
plane-surface $-1 -53.190642966855968 38.250117390322359 140.75050620244676 1 0 0 0 -0.55919291073839883 -0.82903756765294845 forward_v I I I I #
face $-1 $112 $113 $41 $-1 $114 forward single #
loop $-1 $115 $116 $54 #
cone-surface $-1 -50.337284866852329 33.84029312809718 5.3377528245884278 0 -0.55919291073839883 -0.82903756765294845 1 0 0 1 I I 0 1 1 forward I I I I #
face $-1 $117 $118 $42 $-1 $119 forward single #
loop $-1 $120 $121 $55 #
cone-surface $-1 -46.057247716846867 33.84029312809718 5.3377528245884278 0 -0.55919291073839883 -0.82903756765294845 1 0 0 1 I I 0 1 1 forward I I I I #
face $-1 $122 $123 $43 $-1 $124 forward single #
loop $-1 $125 $126 $56 #
cone-surface $-1 -41.777210566841404 33.84029312809718 5.3377528245884278 0 -0.55919291073839883 -0.82903756765294845 1 0 0 1 I I 0 1 1 forward I I I I #
face $-1 $127 $128 $44 $-1 $129 reversed single #
loop $-1 $-1 $130 $57 #
plane-surface $-1 -32.126985799927589 -106.99875241198637 94.085483811004366 -1 0 0 0 -0.6018150307709319 0.79863550430605224 forward_v I I I I #
face $-1 $131 $132 $45 $-1 $133 forward single #
loop $-1 $134 $135 $58 #
cone-surface $-1 -40.414230948357982 -32.737655752260437 3.4208248262492131 0 0.6018150307709319 -0.79863550430605224 2 0 0 1 I I 0 1 2 forward I I I I #
face $-1 $136 $137 $46 $-1 $138 reversed single #
loop $-1 $-1 $139 $59 #
plane-surface $-1 -3.6880075596248432 -106.99875241198637 94.085483811004366 -1 0 0 0 -0.6018150307709319 0.79863550430605224 forward_v I I I I #
face $-1 $140 $141 $47 $-1 $142 forward single #
loop $-1 $143 $144 $60 #
cone-surface $-1 -11.975252708055237 -32.737655752260437 3.4208248262492131 0 0.6018150307709319 -0.79863550430605224 2 0 0 1 I I 0 1 2 forward I I I I #
face $-1 $145 $146 $48 $-1 $147 reversed single #
loop $-1 $-1 $148 $61 #
plane-surface $-1 24.750970680677902 -106.99875241198637 94.085483811004366 -1 0 0 0 -0.6018150307709319 0.79863550430605224 forward_v I I I I #
face $-1 $149 $150 $49 $-1 $151 forward single #
loop $-1 $152 $153 $62 #
cone-surface $-1 16.463725532247508 -32.737655752260437 3.4208248262492131 0 0.6018150307709319 -0.79863550430605224 2 0 0 1 I I 0 1 2 forward I I I I #
face $-1 $154 $155 $50 $-1 $156 reversed single #
loop $-1 $-1 $157 $63 #
plane-surface $-1 53.189948920980648 -106.99875241198637 94.085483811004366 -1 0 0 0 -0.6018150307709319 0.79863550430605224 forward_v I I I I #
face $-1 $158 $159 $51 $-1 $160 forward single #
loop $-1 $161 $162 $64 #
cone-surface $-1 44.902703772550254 -32.737655752260437 3.4208248262492131 0 0.6018150307709319 -0.79863550430605224 2 0 0 1 I I 0 1 2 forward I I I I #
face $-1 $163 $164 $39 $-1 $165 reversed single #
loop $-1 $-1 $166 $65 #
plane-surface $-1 0 0 -8.9462272243510927 0 0 1 1 0 0 forward_v I I I I #
coedge $-1 $167 $168 $169 $170 forward $66 $-1 #
face $-1 $171 $172 $40 $-1 $173 reversed single #
loop $-1 $-1 $174 $68 #
plane-surface $-1 -46.057247716846867 -25.361382692161158 46.442580814943895 0 0.55919291073839883 0.82903756765294845 1 0 0 forward_v I I I I #
coedge $-1 $175 $176 $177 $178 reversed $69 $-1 #
face $-1 $-1 $179 $41 $-1 $180 forward single #
loop $-1 $181 $182 $71 #
cone-surface $-1 -50.337284866852329 33.016999448593495 4.1171697728138579 0 -0.55919291073839883 -0.82903756765294845 0.5 0 0 1 I I -0.70710678118654746 0.70710678118654746 0.5 forward I I I I #
loop $-1 $-1 $183 $54 #
coedge $-1 $116 $116 $184 $185 reversed $72 $-1 #
face $-1 $-1 $186 $42 $-1 $187 forward single #
loop $-1 $188 $189 $74 #
cone-surface $-1 -46.057247716846867 33.016999448593495 4.1171697728138579 0 -0.55919291073839883 -0.82903756765294845 0.5 0 0 1 I I -0.70710678118654746 0.70710678118654746 0.5 forward I I I I #
loop $-1 $-1 $190 $55 #
coedge $-1 $121 $121 $191 $192 reversed $75 $-1 #
face $-1 $-1 $193 $43 $-1 $194 forward single #
loop $-1 $195 $196 $77 #
cone-surface $-1 -41.777210566841404 33.016999448593495 4.1171697728138579 0 -0.55919291073839883 -0.82903756765294845 0.5 0 0 1 I I -0.70710678118654746 0.70710678118654746 0.5 forward I I I I #
loop $-1 $-1 $197 $56 #
coedge $-1 $126 $126 $198 $199 reversed $78 $-1 #
face $-1 $200 $201 $44 $-1 $202 reversed single #
loop $-1 $-1 $203 $80 #
plane-surface $-1 -40.414230948357982 -38.538734152859732 3.2359728954322549 0 -0.6018150307709319 0.79863550430605224 1 0 0 forward_v I I I I #
coedge $-1 $204 $205 $206 $207 reversed $81 $-1 #
face $-1 $-1 $208 $45 $-1 $209 forward single #
loop $-1 $210 $211 $83 #
cone-surface $-1 -40.414230948357982 -30.123643964349647 -0.048085911699297768 0 0.6018150307709319 -0.79863550430605224 1 0 0 1 I I -0.70710678118654746 0.70710678118654746 1 forward I I I I #
loop $-1 $-1 $212 $58 #
coedge $-1 $135 $135 $213 $214 reversed $84 $-1 #
face $-1 $215 $216 $46 $-1 $217 reversed single #
loop $-1 $-1 $218 $86 #
plane-surface $-1 -11.975252708055237 -38.538734152859732 3.2359728954322549 0 -0.6018150307709319 0.79863550430605224 1 0 0 forward_v I I I I #
coedge $-1 $219 $220 $221 $222 reversed $87 $-1 #
face $-1 $-1 $223 $47 $-1 $224 forward single #
loop $-1 $225 $226 $89 #
cone-surface $-1 -11.975252708055237 -30.123643964349647 -0.048085911699297768 0 0.6018150307709319 -0.79863550430605224 1 0 0 1 I I -0.70710678118654746 0.70710678118654746 1 forward I I I I #
loop $-1 $-1 $227 $60 #
coedge $-1 $144 $144 $228 $229 reversed $90 $-1 #
face $-1 $230 $231 $48 $-1 $232 reversed single #
loop $-1 $-1 $233 $92 #
plane-surface $-1 16.463725532247508 -38.538734152859732 3.2359728954322549 0 -0.6018150307709319 0.79863550430605224 1 0 0 forward_v I I I I #
coedge $-1 $234 $235 $236 $237 reversed $93 $-1 #
face $-1 $-1 $238 $49 $-1 $239 forward single #
loop $-1 $240 $241 $95 #
cone-surface $-1 16.463725532247508 -30.123643964349647 -0.048085911699297768 0 0.6018150307709319 -0.79863550430605224 1 0 0 1 I I -0.70710678118654746 0.70710678118654746 1 forward I I I I #
loop $-1 $-1 $242 $62 #
coedge $-1 $153 $153 $243 $244 reversed $96 $-1 #
face $-1 $245 $246 $50 $-1 $247 reversed single #
loop $-1 $-1 $248 $98 #
plane-surface $-1 44.902703772550254 -38.538734152859732 3.2359728954322549 0 -0.6018150307709319 0.79863550430605224 1 0 0 forward_v I I I I #
coedge $-1 $249 $250 $251 $252 reversed $99 $-1 #
face $-1 $-1 $253 $51 $-1 $254 forward single #
loop $-1 $255 $256 $101 #
cone-surface $-1 44.902703772550254 -30.123643964349647 -0.048085911699297768 0 0.6018150307709319 -0.79863550430605224 1 0 0 1 I I -0.70710678118654746 0.70710678118654746 1 forward I I I I #
loop $-1 $-1 $257 $64 #
coedge $-1 $162 $162 $258 $259 reversed $102 $-1 #
face $-1 $260 $261 $39 $-1 $262 reversed single #
loop $-1 $-1 $263 $104 #
plane-surface $-1 0 -38.538734152859732 0 0 1 0 0 0 1 forward_v I I I I #
coedge $-1 $264 $265 $266 $267 forward $105 $-1 #
coedge $-1 $268 $107 $269 $270 forward $66 $-1 #
coedge $-1 $107 $268 $271 $272 forward $66 $-1 #
coedge $-1 $273 $274 $107 $170 reversed $275 $-1 #
edge $-1 $276 -38.538734152859732 $277 38.538734152859732 $169 $278 forward 7 unknown #
face $-1 $279 $280 $40 $-1 $281 reversed single #
loop $-1 $-1 $282 $108 #
plane-surface $-1 -38.923852466837765 38.250117390322359 140.75050620244676 -1 0 0 0 0.55919291073839883 0.82903756765294845 forward_v I I I I #
coedge $-1 $283 $284 $285 $286 reversed $109 $-1 #
coedge $-1 $176 $111 $287 $288 reversed $69 $-1 #
coedge $-1 $111 $175 $283 $289 reversed $69 $-1 #
coedge $-1 $285 $290 $111 $178 forward $291 $-1 #
edge $-1 $292 -19.413675457698552 $293 -11.104187856442401 $177 $294 forward 7 unknown #
loop $-1 $-1 $184 $112 #
plane-surface $-1 -46.057247716846867 -25.361382692161158 46.442580814943895 0 0.55919291073839883 0.82903756765294845 1 0 0 forward_v I I I I #
loop $-1 $-1 $295 $71 #
coedge $-1 $182 $182 $183 $296 reversed $113 $-1 #
coedge $-1 $183 $183 $182 $296 forward $115 $-1 #
coedge $-1 $184 $184 $116 $185 forward $179 $-1 #
edge $-1 $297 -2.9799784546028656e-015 $297 6.2831853071795978 $184 $298 forward 7 unknown #
loop $-1 $-1 $191 $117 #
plane-surface $-1 -46.057247716846867 -25.361382692161158 46.442580814943895 0 0.55919291073839883 0.82903756765294845 1 0 0 forward_v I I I I #
loop $-1 $-1 $299 $74 #
coedge $-1 $189 $189 $190 $300 reversed $118 $-1 #
coedge $-1 $190 $190 $189 $300 forward $120 $-1 #
coedge $-1 $191 $191 $121 $192 forward $186 $-1 #
edge $-1 $301 -2.9799784546028656e-015 $301 6.2831853071795978 $191 $302 forward 7 unknown #
loop $-1 $-1 $198 $122 #
plane-surface $-1 -46.057247716846867 -25.361382692161158 46.442580814943895 0 0.55919291073839883 0.82903756765294845 1 0 0 forward_v I I I I #
loop $-1 $-1 $303 $77 #
coedge $-1 $196 $196 $197 $304 reversed $123 $-1 #
coedge $-1 $197 $197 $196 $304 forward $125 $-1 #
coedge $-1 $198 $198 $126 $199 forward $193 $-1 #
edge $-1 $305 -2.9799784546028656e-015 $305 6.2831853071795978 $198 $306 forward 7 unknown #
face $-1 $307 $308 $44 $-1 $309 reversed single #
loop $-1 $-1 $310 $127 #
plane-surface $-1 -48.701476096788376 -106.99875241198637 94.085483811004366 1 0 0 0 0.6018150307709319 -0.79863550430605224 forward_v I I I I #
coedge $-1 $311 $312 $313 $314 reversed $128 $-1 #
coedge $-1 $205 $130 $315 $316 reversed $81 $-1 #
coedge $-1 $130 $204 $311 $317 reversed $81 $-1 #
coedge $-1 $313 $318 $130 $207 forward $319 $-1 #
edge $-1 $320 14.960642053133455 $321 22.538405340052318 $206 $322 forward 7 unknown #
loop $-1 $-1 $213 $131 #
plane-surface $-1 -40.414230948357982 -38.538734152859732 3.2359728954322549 0 -0.6018150307709319 0.79863550430605224 1 0 0 forward_v I I I I #
loop $-1 $-1 $323 $83 #
coedge $-1 $211 $211 $212 $324 reversed $132 $-1 #
coedge $-1 $212 $212 $211 $324 forward $134 $-1 #
coedge $-1 $213 $213 $135 $214 forward $208 $-1 #
edge $-1 $325 -8.0177868447286285e-016 $325 6.2831853071795996 $213 $326 forward 7 unknown #
face $-1 $327 $328 $46 $-1 $329 reversed single #
loop $-1 $-1 $330 $136 #
plane-surface $-1 -20.262497856485631 -106.99875241198637 94.085483811004366 1 0 0 0 0.6018150307709319 -0.79863550430605224 forward_v I I I I #
coedge $-1 $331 $332 $333 $334 reversed $137 $-1 #
coedge $-1 $220 $139 $335 $336 reversed $87 $-1 #
coedge $-1 $139 $219 $331 $337 reversed $87 $-1 #
coedge $-1 $333 $338 $139 $222 forward $339 $-1 #
edge $-1 $340 14.960642053133455 $341 22.538405340052318 $221 $342 forward 7 unknown #
loop $-1 $-1 $228 $140 #
plane-surface $-1 -11.975252708055237 -38.538734152859732 3.2359728954322549 0 -0.6018150307709319 0.79863550430605224 1 0 0 forward_v I I I I #
loop $-1 $-1 $343 $89 #
coedge $-1 $226 $226 $227 $344 reversed $141 $-1 #
coedge $-1 $227 $227 $226 $344 forward $143 $-1 #
coedge $-1 $228 $228 $144 $229 forward $223 $-1 #
edge $-1 $345 -8.0177868447286285e-016 $345 6.2831853071795996 $228 $346 forward 7 unknown #
face $-1 $347 $348 $48 $-1 $349 reversed single #
loop $-1 $-1 $350 $145 #
plane-surface $-1 8.1764803838171147 -106.99875241198637 94.085483811004366 1 0 0 0 0.6018150307709319 -0.79863550430605224 forward_v I I I I #
coedge $-1 $351 $352 $353 $354 reversed $146 $-1 #
coedge $-1 $235 $148 $355 $356 reversed $93 $-1 #
coedge $-1 $148 $234 $351 $357 reversed $93 $-1 #
coedge $-1 $353 $358 $148 $237 forward $359 $-1 #
edge $-1 $360 14.960642053133455 $361 22.538405340052318 $236 $362 forward 7 unknown #
loop $-1 $-1 $243 $149 #
plane-surface $-1 16.463725532247508 -38.538734152859732 3.2359728954322549 0 -0.6018150307709319 0.79863550430605224 1 0 0 forward_v I I I I #
loop $-1 $-1 $363 $95 #
coedge $-1 $241 $241 $242 $364 reversed $150 $-1 #
coedge $-1 $242 $242 $241 $364 forward $152 $-1 #
coedge $-1 $243 $243 $153 $244 forward $238 $-1 #
edge $-1 $365 -8.0177868447286285e-016 $365 6.2831853071795996 $243 $366 forward 7 unknown #
face $-1 $367 $368 $50 $-1 $369 reversed single #
loop $-1 $-1 $370 $154 #
plane-surface $-1 36.61545862411986 -106.99875241198637 94.085483811004366 1 0 0 0 0.6018150307709319 -0.79863550430605224 forward_v I I I I #
coedge $-1 $371 $372 $373 $374 reversed $155 $-1 #
coedge $-1 $250 $157 $375 $376 reversed $99 $-1 #
coedge $-1 $157 $249 $371 $377 reversed $99 $-1 #
coedge $-1 $373 $378 $157 $252 forward $379 $-1 #
edge $-1 $380 14.960642053133455 $381 22.538405340052318 $251 $382 forward 7 unknown #
loop $-1 $-1 $258 $158 #
plane-surface $-1 44.902703772550254 -38.538734152859732 3.2359728954322549 0 -0.6018150307709319 0.79863550430605224 1 0 0 forward_v I I I I #
loop $-1 $-1 $383 $101 #
coedge $-1 $256 $256 $257 $384 reversed $159 $-1 #
coedge $-1 $257 $257 $256 $384 forward $161 $-1 #
coedge $-1 $258 $258 $162 $259 forward $253 $-1 #
edge $-1 $385 -8.0177868447286285e-016 $385 6.2831853071795996 $258 $386 forward 7 unknown #
face $-1 $387 $388 $39 $-1 $389 reversed single #
loop $-1 $-1 $390 $163 #
plane-surface $-1 -56.877956480605491 0 0 1 0 0 0 0 -1 forward_v I I I I #
coedge $-1 $391 $271 $392 $393 forward $164 $-1 #
coedge $-1 $394 $166 $391 $395 forward $105 $-1 #
coedge $-1 $166 $394 $396 $397 forward $105 $-1 #
coedge $-1 $274 $273 $166 $267 reversed $275 $-1 #
edge $-1 $398 -38.538734152859732 $399 38.538734152859732 $266 $400 forward 7 unknown #
coedge $-1 $168 $167 $401 $402 forward $66 $-1 #
coedge $-1 $403 $404 $167 $270 reversed $388 $-1 #
edge $-1 $277 -56.877956480605491 $405 56.877956480605491 $269 $406 forward 7 unknown #
coedge $-1 $263 $407 $168 $272 reversed $164 $-1 #
edge $-1 $408 -56.877956480605491 $276 56.877956480605491 $271 $409 forward 7 unknown #
coedge $-1 $266 $169 $407 $410 forward $275 $-1 #
coedge $-1 $169 $266 $403 $411 reversed $275 $-1 #
loop $-1 $-1 $273 $387 #
vertex $-1 $170 $412 #
vertex $-1 $170 $413 #
straight-curve $-1 56.877956480605491 0 8.9462272243510927 0 1 0 I I #
face $-1 $-1 $291 $40 $-1 $414 forward single #
loop $-1 $-1 $415 $171 #
plane-surface $-1 0 38.538734152859732 0 0 -1 0 0 0 -1 forward_v I I I I #
coedge $-1 $416 $417 $418 $419 reversed $172 $-1 #
coedge $-1 $420 $174 $176 $289 forward $109 $-1 #
coedge $-1 $174 $420 $416 $421 forward $109 $-1 #
coedge $-1 $418 $177 $174 $286 forward $291 $-1 #
edge $-1 $293 -30.162019108432535 $422 -15.895228608414332 $285 $423 forward 7 unknown #
coedge $-1 $424 $425 $175 $288 forward $280 $-1 #
edge $-1 $426 -67.033846140501424 $292 -61.429025876872288 $287 $427 forward 7 unknown #
edge $-1 $293 67.054415158947393 $426 77.077468305719464 $176 $428 forward 7 unknown #
coedge $-1 $177 $418 $424 $429 forward $291 $-1 #
loop $-1 $-1 $418 $279 #
vertex $-1 $288 $430 #
vertex $-1 $178 $431 #
straight-curve $-1 -53.190642966855968 19.125058695161179 8.946227224351091 0 -1 0 I I #
coedge $-1 $295 $295 $-1 $432 reversed $181 $-1 #
edge $-1 $433 0 $433 6.2831853071796004 $182 $434 forward 7 unknown #
vertex $-1 $185 $435 #
ellipse-curve $-1 -50.337284866852329 34.383990352231663 6.1438170925365192 0 0.55919291073839883 0.82903756765294845 1 0 0 1 I I #
coedge $-1 $299 $299 $-1 $436 reversed $188 $-1 #
edge $-1 $437 0 $437 6.2831853071796004 $189 $438 forward 7 unknown #
vertex $-1 $192 $439 #
ellipse-curve $-1 -46.057247716846867 34.383990352231663 6.1438170925365192 0 0.55919291073839883 0.82903756765294845 1 0 0 1 I I #
coedge $-1 $303 $303 $-1 $440 reversed $195 $-1 #
edge $-1 $441 0 $441 6.2831853071796004 $196 $442 forward 7 unknown #
vertex $-1 $199 $443 #
ellipse-curve $-1 -41.777210566841404 34.383990352231663 6.1438170925365192 0 0.55919291073839883 0.82903756765294845 1 0 0 1 I I #
face $-1 $-1 $319 $44 $-1 $444 forward single #
loop $-1 $-1 $445 $200 #
plane-surface $-1 0 -38.538734152859732 0 0 1 0 0 0 1 forward_v I I I I #
coedge $-1 $446 $447 $448 $449 reversed $201 $-1 #
coedge $-1 $450 $203 $205 $317 forward $128 $-1 #
coedge $-1 $203 $450 $446 $451 forward $128 $-1 #
coedge $-1 $448 $206 $203 $314 forward $319 $-1 #
edge $-1 $321 11.919870325748597 $452 28.494360622609385 $313 $453 forward 7 unknown #
coedge $-1 $454 $455 $204 $316 forward $308 $-1 #
edge $-1 $456 -43.806769010069928 $320 -38.096514681151092 $315 $457 forward 7 unknown #
edge $-1 $321 -9.4883876888284711 $456 0 $205 $458 forward 7 unknown #
coedge $-1 $206 $448 $454 $459 forward $319 $-1 #
loop $-1 $-1 $448 $307 #
vertex $-1 $316 $460 #
vertex $-1 $207 $461 #
straight-curve $-1 -32.126985799927589 -53.499376205993187 8.946227224351091 0 1 0 I I #
coedge $-1 $323 $323 $-1 $462 reversed $210 $-1 #
edge $-1 $463 0 $463 6.2831853071796004 $211 $464 forward 7 unknown #
vertex $-1 $214 $465 #
ellipse-curve $-1 -40.414230948357982 -34.749852509400299 6.0911000598916756 0 -0.6018150307709319 0.79863550430605224 2 0 0 1 I I #
face $-1 $-1 $339 $46 $-1 $466 forward single #
loop $-1 $-1 $467 $215 #
plane-surface $-1 0 -38.538734152859732 0 0 1 0 0 0 1 forward_v I I I I #
coedge $-1 $468 $469 $470 $471 reversed $216 $-1 #
coedge $-1 $472 $218 $220 $337 forward $137 $-1 #
coedge $-1 $218 $472 $468 $473 forward $137 $-1 #
coedge $-1 $470 $221 $218 $334 forward $339 $-1 #
edge $-1 $341 -2.2996187944027753 $474 14.274871502458012 $333 $475 forward 7 unknown #
coedge $-1 $476 $477 $219 $336 forward $328 $-1 #
edge $-1 $478 -43.806769010069928 $340 -38.096514681151092 $335 $479 forward 7 unknown #
edge $-1 $341 -9.4883876888284711 $478 0 $220 $480 forward 7 unknown #
coedge $-1 $221 $470 $476 $481 forward $339 $-1 #
loop $-1 $-1 $470 $327 #
vertex $-1 $336 $482 #
vertex $-1 $222 $483 #
straight-curve $-1 -3.6880075596248432 -53.499376205993187 8.946227224351091 0 1 0 I I #
coedge $-1 $343 $343 $-1 $484 reversed $225 $-1 #
edge $-1 $485 0 $485 6.2831853071796004 $226 $486 forward 7 unknown #
vertex $-1 $229 $487 #
ellipse-curve $-1 -11.975252708055237 -34.749852509400299 6.0911000598916756 0 -0.6018150307709319 0.79863550430605224 2 0 0 1 I I #
face $-1 $-1 $359 $48 $-1 $488 forward single #
loop $-1 $-1 $489 $230 #
plane-surface $-1 0 -38.538734152859732 0 0 1 0 0 0 1 forward_v I I I I #
coedge $-1 $490 $491 $492 $493 reversed $231 $-1 #
coedge $-1 $494 $233 $235 $357 forward $146 $-1 #
coedge $-1 $233 $494 $490 $495 forward $146 $-1 #
coedge $-1 $492 $236 $233 $354 forward $359 $-1 #
edge $-1 $361 -16.519107914554148 $496 0.055382382306639499 $353 $497 forward 7 unknown #
coedge $-1 $498 $499 $234 $356 forward $348 $-1 #
edge $-1 $500 -43.806769010069928 $360 -38.096514681151092 $355 $501 forward 7 unknown #
edge $-1 $361 -9.4883876888284711 $500 0 $235 $502 forward 7 unknown #
coedge $-1 $236 $492 $498 $503 forward $359 $-1 #
loop $-1 $-1 $492 $347 #
vertex $-1 $356 $504 #
vertex $-1 $237 $505 #
straight-curve $-1 24.750970680677902 -53.499376205993187 8.946227224351091 0 1 0 I I #
coedge $-1 $363 $363 $-1 $506 reversed $240 $-1 #
edge $-1 $507 0 $507 6.2831853071796004 $241 $508 forward 7 unknown #
vertex $-1 $244 $509 #
ellipse-curve $-1 16.463725532247508 -34.749852509400299 6.0911000598916756 0 -0.6018150307709319 0.79863550430605224 2 0 0 1 I I #
face $-1 $-1 $379 $50 $-1 $510 forward single #
loop $-1 $-1 $511 $245 #
plane-surface $-1 0 -38.538734152859732 0 0 1 0 0 0 1 forward_v I I I I #
coedge $-1 $512 $513 $514 $515 reversed $246 $-1 #
coedge $-1 $516 $248 $250 $377 forward $155 $-1 #
coedge $-1 $248 $516 $512 $517 forward $155 $-1 #
coedge $-1 $514 $251 $248 $374 forward $379 $-1 #
edge $-1 $381 -30.738597034705521 $518 -14.164106737844733 $373 $519 forward 7 unknown #
coedge $-1 $520 $521 $249 $376 forward $368 $-1 #
edge $-1 $522 -43.806769010069928 $380 -38.096514681151092 $375 $523 forward 7 unknown #
edge $-1 $381 -9.4883876888284711 $522 0 $250 $524 forward 7 unknown #
coedge $-1 $251 $514 $520 $525 forward $379 $-1 #
loop $-1 $-1 $514 $367 #
vertex $-1 $376 $526 #
vertex $-1 $252 $527 #
straight-curve $-1 53.189948920980648 -53.499376205993187 8.946227224351091 0 1 0 I I #
coedge $-1 $383 $383 $-1 $528 reversed $255 $-1 #
edge $-1 $529 0 $529 6.2831853071796004 $256 $530 forward 7 unknown #
vertex $-1 $259 $531 #
ellipse-curve $-1 44.902703772550254 -34.749852509400299 6.0911000598916756 0 -0.6018150307709319 0.79863550430605224 2 0 0 1 I I #
face $-1 $-1 $275 $39 $-1 $532 reversed single #
loop $-1 $-1 $403 $260 #
plane-surface $-1 0 38.538734152859732 0 0 -1 0 0 0 -1 forward_v I I I I #
coedge $-1 $533 $401 $404 $534 forward $261 $-1 #
coedge $-1 $407 $263 $264 $395 reversed $164 $-1 #
coedge $-1 $401 $533 $263 $393 reversed $261 $-1 #
edge $-1 $408 -8.9462272243510927 $535 8.9462272243510927 $392 $536 forward 7 unknown #
coedge $-1 $265 $264 $533 $537 forward $105 $-1 #
edge $-1 $399 -56.877956480605491 $535 56.877956480605491 $391 $538 forward 7 unknown #
coedge $-1 $404 $403 $265 $397 reversed $388 $-1 #
edge $-1 $539 -56.877956480605491 $398 56.877956480605491 $396 $540 forward 7 unknown #
vertex $-1 $267 $541 #
vertex $-1 $410 $542 #
straight-curve $-1 56.877956480605491 0 -8.9462272243510927 0 -1 0 I I #
coedge $-1 $390 $392 $268 $402 reversed $261 $-1 #
edge $-1 $405 -38.538734152859732 $408 38.538734152859732 $401 $543 forward 7 unknown #
coedge $-1 $396 $269 $274 $411 forward $388 $-1 #
coedge $-1 $269 $396 $390 $534 reversed $388 $-1 #
vertex $-1 $270 $544 #
straight-curve $-1 0 38.538734152859732 8.9462272243510927 -1 0 0 I I #
coedge $-1 $271 $391 $273 $410 reversed $164 $-1 #
vertex $-1 $402 $545 #
straight-curve $-1 0 -38.538734152859732 8.9462272243510927 1 0 0 I I #
edge $-1 $276 -8.9462272243510927 $399 8.9462272243510927 $273 $546 forward 7 unknown #
edge $-1 $277 -8.9462272243510927 $398 8.9462272243510927 $274 $547 forward 7 unknown #
point $-1 56.877956480605491 -38.538734152859732 8.9462272243510927 #
point $-1 56.877956480605491 38.538734152859732 8.9462272243510927 #
plane-surface $-1 0 0 8.9462272243510927 0 0 1 1 0 0 forward_v I I I I #
coedge $-1 $425 $424 $417 $548 forward $280 $-1 #
coedge $-1 $417 $282 $284 $421 reversed $172 $-1 #
coedge $-1 $282 $416 $415 $548 reversed $172 $-1 #
coedge $-1 $290 $285 $282 $419 forward $291 $-1 #
edge $-1 $422 11.104187856442401 $549 19.413675457698552 $418 $550 forward 7 unknown #
coedge $-1 $284 $283 $425 $551 reversed $109 $-1 #
edge $-1 $552 -77.077468305719464 $422 -67.054415158947393 $416 $553 forward 7 unknown #
vertex $-1 $286 $554 #
straight-curve $-1 -23.028623858423433 30.229246551603577 8.946227224351091 1 0 0 I I #
coedge $-1 $415 $287 $290 $429 reversed $280 $-1 #
coedge $-1 $287 $415 $420 $551 forward $280 $-1 #
vertex $-1 $288 $555 #
straight-curve $-1 -53.190642966855968 38.538734152859732 70.375253101223379 0 0 1 I I #
straight-curve $-1 -53.190642966855968 -25.361382692161158 46.442580814943895 0 0.82903756765294845 -0.55919291073839883 I I #
edge $-1 $549 38.923852466837765 $292 53.190642966855968 $424 $556 forward 7 unknown #
point $-1 -53.190642966855968 38.538734152859732 8.9462272243510927 #
point $-1 -53.190642966855968 30.22924655160358 8.946227224351091 #
edge $-1 $557 1 $557 0 $295 $-1 forward 7 unknown #
vertex $-1 $296 $558 #
ellipse-curve $-1 -50.337284866852329 33.296595903962697 4.531688556640332 0 0.55919291073839883 0.82903756765294845 1 0 0 1 I I #
point $-1 -49.337284866852329 34.383990352231663 6.1438170925365245 #
edge $-1 $559 1 $559 0 $299 $-1 forward 7 unknown #
vertex $-1 $300 $560 #
ellipse-curve $-1 -46.057247716846867 33.296595903962697 4.531688556640332 0 0.55919291073839883 0.82903756765294845 1 0 0 1 I I #
point $-1 -45.057247716846867 34.383990352231663 6.1438170925365245 #
edge $-1 $561 1 $561 0 $303 $-1 forward 7 unknown #
vertex $-1 $304 $562 #
ellipse-curve $-1 -41.777210566841404 33.296595903962697 4.531688556640332 0 0.55919291073839883 0.82903756765294845 1 0 0 1 I I #
point $-1 -40.777210566841404 34.383990352231663 6.1438170925365245 #
plane-surface $-1 0 0 8.9462272243510927 0 0 1 1 0 0 forward_v I I I I #
coedge $-1 $455 $454 $447 $563 forward $308 $-1 #
coedge $-1 $447 $310 $312 $451 reversed $201 $-1 #
coedge $-1 $310 $446 $445 $563 reversed $201 $-1 #
coedge $-1 $318 $313 $310 $449 forward $319 $-1 #
edge $-1 $452 -22.538405340052318 $564 -14.960642053133455 $448 $565 forward 7 unknown #
coedge $-1 $312 $311 $455 $566 reversed $128 $-1 #
edge $-1 $567 0 $452 9.4883876888284711 $446 $568 forward 7 unknown #
vertex $-1 $314 $569 #
straight-curve $-1 -20.207115474178991 -30.960970865940869 8.9462272243510927 -1 0 0 I I #
coedge $-1 $445 $315 $318 $459 reversed $308 $-1 #
coedge $-1 $315 $445 $450 $566 forward $308 $-1 #
vertex $-1 $316 $570 #
straight-curve $-1 -32.126985799927589 -38.538734152859732 47.042741905502183 0 0 1 I I #
straight-curve $-1 -32.126985799927589 -38.538734152859732 3.2359728954322549 0 -0.79863550430605224 -0.6018150307709319 I I #
edge $-1 $564 -48.701476096788376 $320 -32.126985799927589 $454 $571 forward 7 unknown #
point $-1 -32.126985799927589 -38.538734152859732 8.9462272243510927 #
point $-1 -32.126985799927589 -30.960970865940869 8.9462272243510927 #
edge $-1 $572 1 $572 0 $323 $-1 forward 7 unknown #
vertex $-1 $324 $573 #
ellipse-curve $-1 -40.414230948357982 -30.725458995120579 0.75054959260675447 0 -0.6018150307709319 0.79863550430605224 2 0 0 1 I I #
point $-1 -38.414230948357982 -34.749852509400299 6.0911000598916729 #
plane-surface $-1 0 0 8.9462272243510927 0 0 1 1 0 0 forward_v I I I I #
coedge $-1 $477 $476 $469 $574 forward $328 $-1 #
coedge $-1 $469 $330 $332 $473 reversed $216 $-1 #
coedge $-1 $330 $468 $467 $574 reversed $216 $-1 #
coedge $-1 $338 $333 $330 $471 forward $339 $-1 #
edge $-1 $474 -22.538405340052318 $575 -14.960642053133455 $470 $576 forward 7 unknown #
coedge $-1 $332 $331 $477 $577 reversed $137 $-1 #
edge $-1 $578 0 $474 9.4883876888284711 $468 $579 forward 7 unknown #
vertex $-1 $334 $580 #
straight-curve $-1 -5.9876263540276184 -30.960970865940869 8.9462272243510927 -1 0 0 I I #
coedge $-1 $467 $335 $338 $481 reversed $328 $-1 #
coedge $-1 $335 $467 $472 $577 forward $328 $-1 #
vertex $-1 $336 $581 #
straight-curve $-1 -3.6880075596248432 -38.538734152859732 47.042741905502183 0 0 1 I I #
straight-curve $-1 -3.6880075596248432 -38.538734152859732 3.2359728954322549 0 -0.79863550430605224 -0.6018150307709319 I I #
edge $-1 $575 -20.262497856485631 $340 -3.6880075596248432 $476 $582 forward 7 unknown #
point $-1 -3.6880075596248432 -38.538734152859732 8.9462272243510927 #
point $-1 -3.6880075596248432 -30.960970865940869 8.9462272243510927 #
edge $-1 $583 1 $583 0 $343 $-1 forward 7 unknown #
vertex $-1 $344 $584 #
ellipse-curve $-1 -11.975252708055237 -30.725458995120579 0.75054959260675447 0 -0.6018150307709319 0.79863550430605224 2 0 0 1 I I #
point $-1 -9.9752527080552369 -34.749852509400299 6.0911000598916729 #
plane-surface $-1 0 0 8.9462272243510927 0 0 1 1 0 0 forward_v I I I I #
coedge $-1 $499 $498 $491 $585 forward $348 $-1 #
coedge $-1 $491 $350 $352 $495 reversed $231 $-1 #
coedge $-1 $350 $490 $489 $585 reversed $231 $-1 #
coedge $-1 $358 $353 $350 $493 forward $359 $-1 #
edge $-1 $496 -22.538405340052318 $586 -14.960642053133455 $492 $587 forward 7 unknown #
coedge $-1 $352 $351 $499 $588 reversed $146 $-1 #
edge $-1 $589 0 $496 9.4883876888284711 $490 $590 forward 7 unknown #
vertex $-1 $354 $591 #
straight-curve $-1 8.2318627661237542 -30.960970865940869 8.9462272243510927 -1 0 0 I I #
coedge $-1 $489 $355 $358 $503 reversed $348 $-1 #
coedge $-1 $355 $489 $494 $588 forward $348 $-1 #
vertex $-1 $356 $592 #
straight-curve $-1 24.750970680677902 -38.538734152859732 47.042741905502183 0 0 1 I I #
straight-curve $-1 24.750970680677902 -38.538734152859732 3.2359728954322549 0 -0.79863550430605224 -0.6018150307709319 I I #
edge $-1 $586 8.1764803838171147 $360 24.750970680677902 $498 $593 forward 7 unknown #
point $-1 24.750970680677902 -38.538734152859732 8.9462272243510927 #
point $-1 24.750970680677902 -30.960970865940869 8.9462272243510927 #
edge $-1 $594 1 $594 0 $363 $-1 forward 7 unknown #
vertex $-1 $364 $595 #
ellipse-curve $-1 16.463725532247508 -30.725458995120579 0.75054959260675447 0 -0.6018150307709319 0.79863550430605224 2 0 0 1 I I #
point $-1 18.463725532247508 -34.749852509400299 6.0911000598916729 #
plane-surface $-1 0 0 8.9462272243510927 0 0 1 1 0 0 forward_v I I I I #
coedge $-1 $521 $520 $513 $596 forward $368 $-1 #
coedge $-1 $513 $370 $372 $517 reversed $246 $-1 #
coedge $-1 $370 $512 $511 $596 reversed $246 $-1 #
coedge $-1 $378 $373 $370 $515 forward $379 $-1 #
edge $-1 $518 -22.538405340052318 $597 -14.960642053133455 $514 $598 forward 7 unknown #
coedge $-1 $372 $371 $521 $599 reversed $155 $-1 #
edge $-1 $600 0 $518 9.4883876888284711 $512 $601 forward 7 unknown #
vertex $-1 $374 $602 #
straight-curve $-1 22.451351886275127 -30.960970865940869 8.9462272243510927 -1 0 0 I I #
coedge $-1 $511 $375 $378 $525 reversed $368 $-1 #
coedge $-1 $375 $511 $516 $599 forward $368 $-1 #
vertex $-1 $376 $603 #
straight-curve $-1 53.189948920980648 -38.538734152859732 47.042741905502183 0 0 1 I I #
straight-curve $-1 53.189948920980648 -38.538734152859732 3.2359728954322549 0 -0.79863550430605224 -0.6018150307709319 I I #
edge $-1 $597 36.61545862411986 $380 53.189948920980648 $520 $604 forward 7 unknown #
point $-1 53.189948920980648 -38.538734152859732 8.9462272243510927 #
point $-1 53.189948920980648 -30.960970865940869 8.9462272243510927 #
edge $-1 $605 1 $605 0 $383 $-1 forward 7 unknown #
vertex $-1 $384 $606 #
ellipse-curve $-1 44.902703772550254 -30.725458995120579 0.75054959260675447 0 -0.6018150307709319 0.79863550430605224 2 0 0 1 I I #
point $-1 46.902703772550254 -34.749852509400299 6.0911000598916729 #
plane-surface $-1 56.877956480605491 0 0 -1 0 0 0 0 1 forward_v I I I I #
coedge $-1 $392 $390 $394 $537 reversed $261 $-1 #
edge $-1 $405 -8.9462272243510927 $539 8.9462272243510927 $404 $607 forward 7 unknown #
vertex $-1 $537 $608 #
straight-curve $-1 -56.877956480605491 -38.538734152859732 0 0 0 -1 I I #
edge $-1 $535 -38.538734152859732 $539 38.538734152859732 $533 $609 forward 7 unknown #
straight-curve $-1 0 -38.538734152859732 -8.9462272243510927 -1 0 0 I I #
vertex $-1 $397 $610 #
straight-curve $-1 0 38.538734152859732 -8.9462272243510927 1 0 0 I I #
point $-1 56.877956480605491 38.538734152859732 -8.9462272243510927 #
point $-1 56.877956480605491 -38.538734152859732 -8.9462272243510927 #
straight-curve $-1 -56.877956480605491 0 8.9462272243510927 0 -1 0 I I #
point $-1 -56.877956480605491 38.538734152859732 8.9462272243510927 #
point $-1 -56.877956480605491 -38.538734152859732 8.9462272243510927 #
straight-curve $-1 56.877956480605491 -38.538734152859732 0 0 0 -1 I I #
straight-curve $-1 56.877956480605491 38.538734152859732 0 0 0 -1 I I #
edge $-1 $549 61.429025876872288 $552 67.033846140501424 $415 $611 forward 7 unknown #
vertex $-1 $429 $612 #
straight-curve $-1 -38.923852466837765 19.125058695161179 8.946227224351091 0 1 0 I I #
edge $-1 $552 15.895228608414332 $426 30.162019108432535 $425 $613 forward 7 unknown #
vertex $-1 $551 $614 #
straight-curve $-1 -38.923852466837765 -25.361382692161158 46.442580814943895 0 -0.82903756765294845 0.55919291073839883 I I #
point $-1 -38.923852466837765 30.22924655160358 8.946227224351091 #
point $-1 -53.190642966855968 38.538734152859732 3.3414069607219474 #
straight-curve $-1 0 38.538734152859732 8.9462272243510927 -1 0 0 I I #
vertex $-1 $432 $615 #
point $-1 -49.337284866852329 33.296595903962697 4.531688556640332 #
vertex $-1 $436 $616 #
point $-1 -45.057247716846867 33.296595903962697 4.531688556640332 #
vertex $-1 $440 $617 #
point $-1 -40.777210566841404 33.296595903962697 4.531688556640332 #
edge $-1 $564 38.096514681151092 $567 43.806769010069928 $445 $618 forward 7 unknown #
vertex $-1 $459 $619 #
straight-curve $-1 -48.701476096788376 -53.499376205993187 8.946227224351091 0 -1 0 I I #
edge $-1 $567 -28.494360622609385 $456 -11.919870325748597 $455 $620 forward 7 unknown #
vertex $-1 $566 $621 #
straight-curve $-1 -48.701476096788376 -38.538734152859732 3.2359728954322549 0 0.79863550430605224 0.6018150307709319 I I #
point $-1 -48.701476096788376 -30.960970865940869 8.9462272243510927 #
point $-1 -32.126985799927589 -38.538734152859732 3.2359728954322549 #
straight-curve $-1 0 -38.538734152859732 8.9462272243510927 1 0 0 I I #
vertex $-1 $462 $622 #
point $-1 -38.414230948357982 -30.725458995120579 0.75054959260675447 #
edge $-1 $575 38.096514681151092 $578 43.806769010069928 $467 $623 forward 7 unknown #
vertex $-1 $481 $624 #
straight-curve $-1 -20.262497856485631 -53.499376205993187 8.946227224351091 0 -1 0 I I #
edge $-1 $578 -14.274871502458012 $478 2.2996187944027753 $477 $625 forward 7 unknown #
vertex $-1 $577 $626 #
straight-curve $-1 -20.262497856485631 -38.538734152859732 3.2359728954322549 0 0.79863550430605224 0.6018150307709319 I I #
point $-1 -20.262497856485631 -30.960970865940869 8.9462272243510927 #
point $-1 -3.6880075596248432 -38.538734152859732 3.2359728954322549 #
straight-curve $-1 0 -38.538734152859732 8.9462272243510927 1 0 0 I I #
vertex $-1 $484 $627 #
point $-1 -9.9752527080552369 -30.725458995120579 0.75054959260675447 #
edge $-1 $586 38.096514681151092 $589 43.806769010069928 $489 $628 forward 7 unknown #
vertex $-1 $503 $629 #
straight-curve $-1 8.1764803838171147 -53.499376205993187 8.946227224351091 0 -1 0 I I #
edge $-1 $589 -0.055382382306639499 $500 16.519107914554148 $499 $630 forward 7 unknown #
vertex $-1 $588 $631 #
straight-curve $-1 8.1764803838171147 -38.538734152859732 3.2359728954322549 0 0.79863550430605224 0.6018150307709319 I I #
point $-1 8.1764803838171147 -30.960970865940869 8.9462272243510927 #
point $-1 24.750970680677902 -38.538734152859732 3.2359728954322549 #
straight-curve $-1 0 -38.538734152859732 8.9462272243510927 1 0 0 I I #
vertex $-1 $506 $632 #
point $-1 18.463725532247508 -30.725458995120579 0.75054959260675447 #
edge $-1 $597 38.096514681151092 $600 43.806769010069928 $511 $633 forward 7 unknown #
vertex $-1 $525 $634 #
straight-curve $-1 36.61545862411986 -53.499376205993187 8.946227224351091 0 -1 0 I I #
edge $-1 $600 14.164106737844733 $522 30.738597034705521 $521 $635 forward 7 unknown #
vertex $-1 $599 $636 #
straight-curve $-1 36.61545862411986 -38.538734152859732 3.2359728954322549 0 0.79863550430605224 0.6018150307709319 I I #
point $-1 36.61545862411986 -30.960970865940869 8.9462272243510927 #
point $-1 53.189948920980648 -38.538734152859732 3.2359728954322549 #
straight-curve $-1 0 -38.538734152859732 8.9462272243510927 1 0 0 I I #
vertex $-1 $528 $637 #
point $-1 46.902703772550254 -30.725458995120579 0.75054959260675447 #
straight-curve $-1 -56.877956480605491 38.538734152859732 0 0 0 -1 I I #
point $-1 -56.877956480605491 -38.538734152859732 -8.9462272243510927 #
straight-curve $-1 -56.877956480605491 0 -8.9462272243510927 0 1 0 I I #
point $-1 -56.877956480605491 38.538734152859732 -8.9462272243510927 #
straight-curve $-1 -38.923852466837765 38.538734152859732 70.375253101223379 0 0 -1 I I #
point $-1 -38.923852466837765 38.538734152859732 8.9462272243510927 #
straight-curve $-1 -23.028623858423433 38.538734152859732 3.3414069607219439 -1 0 0 I I #
point $-1 -38.923852466837765 38.538734152859732 3.3414069607219474 #
point $-1 -50.337284866852329 32.737402993224293 3.7026509889873838 #
point $-1 -46.057247716846867 32.737402993224293 3.7026509889873838 #
point $-1 -41.777210566841404 32.737402993224293 3.7026509889873838 #
straight-curve $-1 -48.701476096788376 -38.538734152859732 47.042741905502183 0 0 -1 I I #
point $-1 -48.701476096788376 -38.538734152859732 8.9462272243510927 #
straight-curve $-1 -20.207115474178991 -38.538734152859732 3.2359728954322571 1 0 0 I I #
point $-1 -48.701476096788376 -38.538734152859732 3.2359728954322549 #
point $-1 -40.414230948357982 -29.521828933578714 -0.84672141600535 #
straight-curve $-1 -20.262497856485631 -38.538734152859732 47.042741905502183 0 0 -1 I I #
point $-1 -20.262497856485631 -38.538734152859732 8.9462272243510927 #
straight-curve $-1 -5.9876263540276184 -38.538734152859732 3.2359728954322571 1 0 0 I I #
point $-1 -20.262497856485631 -38.538734152859732 3.2359728954322549 #
point $-1 -11.975252708055237 -29.521828933578714 -0.84672141600535 #
straight-curve $-1 8.1764803838171147 -38.538734152859732 47.042741905502183 0 0 -1 I I #
point $-1 8.1764803838171147 -38.538734152859732 8.9462272243510927 #
straight-curve $-1 8.2318627661237542 -38.538734152859732 3.2359728954322571 1 0 0 I I #
point $-1 8.1764803838171147 -38.538734152859732 3.2359728954322549 #
point $-1 16.463725532247508 -29.521828933578714 -0.84672141600535 #
straight-curve $-1 36.61545862411986 -38.538734152859732 47.042741905502183 0 0 -1 I I #
point $-1 36.61545862411986 -38.538734152859732 8.9462272243510927 #
straight-curve $-1 22.451351886275127 -38.538734152859732 3.2359728954322571 1 0 0 I I #
point $-1 36.61545862411986 -38.538734152859732 3.2359728954322549 #
point $-1 44.902703772550254 -29.521828933578714 -0.84672141600535 #
End-of-ACIS-data 