500 0 12 0           
7 Unknown 11 ACIS 5.0 NT 24 Fri Mar 26 20:27:46 1999 
-1 9.9999999999999995e-007 1e-010 
body $-1 $12 $-1 $13 #
body $-1 $14 $-1 $15 #
body $-1 $16 $-1 $17 #
body $-1 $18 $-1 $19 #
body $-1 $20 $-1 $21 #
body $-1 $22 $-1 $23 #
body $-1 $24 $-1 $25 #
body $-1 $26 $-1 $27 #
body $-1 $28 $-1 $29 #
body $-1 $30 $-1 $31 #
body $-1 $32 $-1 $33 #
body $-1 $34 $-1 $35 #
lump $-1 $-1 $36 $0 #
transform $-1 1 0 0 0 1 0 0 0 1 63.872798852504047 32.186494952018073 11.321410755301965 1 rotate no_reflect no_shear #
lump $-1 $-1 $37 $1 #
transform $-1 1 0 0 0 1 0 0 0 1 63.872798852504047 32.186494952018073 11.321410755301965 1 rotate no_reflect no_shear #
lump $-1 $-1 $38 $2 #
transform $-1 1 0 0 0 1 0 0 0 1 63.872798852504047 32.186494952018073 11.321410755301965 1 rotate no_reflect no_shear #
lump $-1 $-1 $39 $3 #
transform $-1 1 0 0 0 1 0 0 0 1 63.872798852504047 32.186494952018073 11.321410755301965 1 rotate no_reflect no_shear #
lump $-1 $-1 $40 $4 #
transform $-1 1 0 0 0 1 0 0 0 1 63.872798852504047 32.186494952018073 11.321410755301965 1 rotate no_reflect no_shear #
lump $-1 $-1 $41 $5 #
transform $-1 1 0 0 0 1 0 0 0 1 63.872798852504047 32.186494952018073 11.321410755301965 1 rotate no_reflect no_shear #
lump $-1 $-1 $42 $6 #
transform $-1 1 0 0 0 1 0 0 0 1 63.872798852504047 32.186494952018073 11.321410755301965 1 rotate no_reflect no_shear #
lump $-1 $-1 $43 $7 #
transform $-1 1 0 0 0 1 0 0 0 1 63.872798852504047 32.186494952018073 11.321410755301965 1 rotate no_reflect no_shear #
lump $-1 $-1 $44 $8 #
transform $-1 1 0 0 0 1 0 0 0 1 63.872798852504047 32.186494952018073 11.321410755301965 1 rotate no_reflect no_shear #
lump $-1 $-1 $45 $9 #
transform $-1 1 0 0 0 1 0 0 0 1 63.872798852504047 32.186494952018073 11.321410755301965 1 rotate no_reflect no_shear #
lump $-1 $-1 $46 $10 #
transform $-1 1 0 0 0 1 0 0 0 1 63.872798852504047 32.186494952018073 11.321410755301965 1 rotate no_reflect no_shear #
lump $-1 $-1 $47 $11 #
transform $-1 1 0 0 0 1 0 0 0 1 63.872798852504047 32.186494952018073 11.321410755301965 1 rotate no_reflect no_shear #
shell $-1 $-1 $-1 $48 $-1 $12 #
shell $-1 $-1 $-1 $49 $-1 $14 #
shell $-1 $-1 $-1 $50 $-1 $16 #
shell $-1 $-1 $-1 $51 $-1 $18 #
shell $-1 $-1 $-1 $52 $-1 $20 #
shell $-1 $-1 $-1 $53 $-1 $22 #
shell $-1 $-1 $-1 $54 $-1 $24 #
shell $-1 $-1 $-1 $55 $-1 $26 #
shell $-1 $-1 $-1 $56 $-1 $28 #
shell $-1 $-1 $-1 $57 $-1 $30 #
shell $-1 $-1 $-1 $58 $-1 $32 #
shell $-1 $-1 $-1 $59 $-1 $34 #
face $-1 $60 $61 $36 $-1 $62 forward single #
face $-1 $63 $64 $37 $-1 $65 reversed single #
face $-1 $66 $67 $38 $-1 $68 reversed single #
face $-1 $69 $70 $39 $-1 $71 forward single #
face $-1 $72 $73 $40 $-1 $74 forward single #
face $-1 $75 $76 $41 $-1 $77 forward single #
face $-1 $78 $79 $42 $-1 $80 reversed single #
face $-1 $81 $82 $43 $-1 $83 forward single #
face $-1 $84 $85 $44 $-1 $86 forward single #
face $-1 $87 $88 $45 $-1 $89 reversed single #
face $-1 $90 $91 $46 $-1 $92 forward single #
face $-1 $93 $94 $47 $-1 $95 forward single #
face $-1 $96 $97 $36 $-1 $98 reversed single #
loop $-1 $-1 $99 $48 #
plane-surface $-1 0 0 11.321410755301965 0 0 1 1 0 0 forward_v I I I I #
face $-1 $100 $101 $37 $-1 $102 reversed single #
loop $-1 $-1 $103 $49 #
plane-surface $-1 -61.674889668333925 -21.129829757101326 0 0 -1 0 0 0 -1 forward_v I I I I #
face $-1 $104 $105 $38 $-1 $106 reversed single #
loop $-1 $-1 $107 $50 #
plane-surface $-1 89.015752036255947 13.685953837505895 183.6778143288866 0 -1 0 -0.79863551827123203 0 -0.60181501223851219 forward_v I I I I #
face $-1 $108 $109 $39 $-1 $110 forward single #
loop $-1 $111 $112 $51 #
cone-surface $-1 60.974802298179306 8.7834639687147558 7.7233851167846055 -0.79863551827123203 0 -0.60181501223851219 0.3009075061192561 0 -0.39931775913561601 1 I I 0 1 0.5 forward I I I I #
face $-1 $113 $114 $40 $-1 $115 forward single #
loop $-1 $116 $117 $52 #
cone-surface $-1 60.974802298179306 10.621897669511434 7.7233851167846055 -0.79863551827123203 0 -0.60181501223851219 0.3009075061192561 0 -0.39931775913561601 1 I I 0 1 0.5 forward I I I I #
face $-1 $118 $119 $41 $-1 $120 forward single #
loop $-1 $121 $122 $53 #
cone-surface $-1 60.974802298179306 12.460331370308111 7.7233851167846055 -0.79863551827123203 0 -0.60181501223851219 0.3009075061192561 0 -0.39931775913561601 1 I I 0 1 0.5 forward I I I I #
face $-1 $123 $124 $42 $-1 $125 reversed single #
loop $-1 $-1 $126 $54 #
plane-surface $-1 -149.35128913257012 -8.0793657971074211 98.957936405065183 0 1 0 -0.66913061440640931 0 0.74314481823134659 forward_v I I I I #
face $-1 $127 $128 $43 $-1 $129 forward single #
loop $-1 $130 $131 $55 #
cone-surface $-1 -58.940523745224816 -5.5550017112614754 6.6953381576486048 0.66913061440640931 0 -0.74314481823134659 0.74314481823134659 0 0.66913061440640931 1 I I 0 1 1 forward I I I I #
face $-1 $132 $133 $44 $-1 $134 forward single #
loop $-1 $135 $136 $56 #
cone-surface $-1 -58.940523745224816 -1.7684555824925567 6.6953381576486048 0.66913061440640931 0 -0.74314481823134659 0.74314481823134659 0 0.66913061440640931 1 I I 0 1 1 forward I I I I #
face $-1 $137 $138 $45 $-1 $139 reversed single #
loop $-1 $-1 $140 $57 #
plane-surface $-1 -149.35128913257012 10.30075669156335 98.957936405065183 0 1 0 -0.66913061440640931 0 0.74314481823134659 forward_v I I I I #
face $-1 $141 $142 $46 $-1 $143 forward single #
loop $-1 $144 $145 $58 #
cone-surface $-1 -58.940523745224816 12.825120777409296 6.6953381576486048 0.66913061440640931 0 -0.74314481823134659 0.74314481823134659 0 0.66913061440640931 1 I I 0 1 1 forward I I I I #
face $-1 $146 $147 $47 $-1 $148 forward single #
loop $-1 $149 $150 $59 #
cone-surface $-1 -58.940523745224816 16.611666906178215 6.6953381576486048 0.66913061440640931 0 -0.74314481823134659 0.74314481823134659 0 0.66913061440640931 1 I I 0 1 1 forward I I I I #
face $-1 $151 $152 $36 $-1 $153 reversed single #
loop $-1 $-1 $154 $60 #
plane-surface $-1 0 0 -11.321410755301965 0 0 1 1 0 0 forward_v I I I I #
coedge $-1 $155 $156 $157 $158 forward $61 $-1 #
face $-1 $159 $160 $37 $-1 $161 forward single #
loop $-1 $-1 $162 $63 #
plane-surface $-1 -59.476980484163803 -26.6581623545597 0 -1 0 0 0 0 1 forward_v I I I I #
coedge $-1 $163 $164 $165 $166 forward $64 $-1 #
face $-1 $167 $168 $38 $-1 $169 reversed single #
loop $-1 $-1 $170 $66 #
plane-surface $-1 -13.006419593751488 10.621897669511434 106.7985958826311 0.79863551827123203 0 0.60181501223851219 0.60181501223851219 0 -0.79863551827123203 forward_v I I I I #
coedge $-1 $171 $172 $173 $174 reversed $67 $-1 #
face $-1 $-1 $175 $39 $-1 $176 forward single #
loop $-1 $177 $178 $69 #
cone-surface $-1 60.343147337654472 8.7834639687147558 7.2473989765467657 -0.79863551827123203 0 -0.60181501223851219 0.15045375305962805 0 -0.19965887956780801 1 I I -0.70710678118654746 0.70710678118654746 0.25 forward I I I I #
loop $-1 $-1 $179 $51 #
coedge $-1 $112 $112 $180 $181 reversed $70 $-1 #
face $-1 $-1 $182 $40 $-1 $183 forward single #
loop $-1 $184 $185 $72 #
cone-surface $-1 60.343147337654472 10.621897669511434 7.2473989765467657 -0.79863551827123203 0 -0.60181501223851219 0.15045375305962805 0 -0.19965887956780801 1 I I -0.70710678118654746 0.70710678118654746 0.25 forward I I I I #
loop $-1 $-1 $186 $52 #
coedge $-1 $117 $117 $187 $188 reversed $73 $-1 #
face $-1 $-1 $189 $41 $-1 $190 forward single #
loop $-1 $191 $192 $75 #
cone-surface $-1 60.343147337654472 12.460331370308111 7.2473989765467657 -0.79863551827123203 0 -0.60181501223851219 0.15045375305962805 0 -0.19965887956780801 1 I I -0.70710678118654746 0.70710678118654746 0.25 forward I I I I #
loop $-1 $-1 $193 $53 #
coedge $-1 $122 $122 $194 $195 reversed $76 $-1 #
face $-1 $196 $197 $42 $-1 $198 reversed single #
loop $-1 $-1 $199 $78 #
plane-surface $-1 -63.872798852504047 -3.661728646877016 4.0244574187222071 -0.66913061440640931 0 0.74314481823134659 0.74314481823134659 0 0.66913061440640931 forward_v I I I I #
coedge $-1 $200 $201 $202 $203 reversed $79 $-1 #
face $-1 $-1 $204 $43 $-1 $205 forward single #
loop $-1 $206 $207 $81 #
cone-surface $-1 -57.725727090364487 -5.5550017112614754 5.3461698191694538 0.66913061440640931 0 -0.74314481823134659 0.3715724091156733 0 0.33456530720320465 1 I I -0.70710678118654746 0.70710678118654746 0.5 forward I I I I #
loop $-1 $-1 $208 $55 #
coedge $-1 $131 $131 $209 $210 reversed $82 $-1 #
face $-1 $-1 $211 $44 $-1 $212 forward single #
loop $-1 $213 $214 $84 #
cone-surface $-1 -57.725727090364487 -1.7684555824925567 5.3461698191694538 0.66913061440640931 0 -0.74314481823134659 0.3715724091156733 0 0.33456530720320465 1 I I -0.70710678118654746 0.70710678118654746 0.5 forward I I I I #
loop $-1 $-1 $215 $56 #
coedge $-1 $136 $136 $216 $217 reversed $85 $-1 #
face $-1 $218 $219 $45 $-1 $220 reversed single #
loop $-1 $-1 $221 $87 #
plane-surface $-1 -63.872798852504047 14.718393841793755 4.0244574187222071 -0.66913061440640931 0 0.74314481823134659 0.74314481823134659 0 0.66913061440640931 forward_v I I I I #
coedge $-1 $222 $223 $224 $225 reversed $88 $-1 #
face $-1 $-1 $226 $46 $-1 $227 forward single #
loop $-1 $228 $229 $90 #
cone-surface $-1 -57.725727090364487 12.825120777409296 5.3461698191694538 0.66913061440640931 0 -0.74314481823134659 0.3715724091156733 0 0.33456530720320465 1 I I -0.70710678118654746 0.70710678118654746 0.5 forward I I I I #
loop $-1 $-1 $230 $58 #
coedge $-1 $145 $145 $231 $232 reversed $91 $-1 #
face $-1 $-1 $233 $47 $-1 $234 forward single #
loop $-1 $235 $236 $93 #
cone-surface $-1 -57.725727090364487 16.611666906178215 5.3461698191694538 0.66913061440640931 0 -0.74314481823134659 0.3715724091156733 0 0.33456530720320465 1 I I -0.70710678118654746 0.70710678118654746 0.5 forward I I I I #
loop $-1 $-1 $237 $59 #
coedge $-1 $150 $150 $238 $239 reversed $94 $-1 #
face $-1 $240 $241 $36 $-1 $242 reversed single #
loop $-1 $-1 $243 $96 #
plane-surface $-1 0 -32.186494952018073 0 0 1 0 0 0 1 forward_v I I I I #
coedge $-1 $244 $245 $246 $247 forward $97 $-1 #
coedge $-1 $248 $99 $249 $250 forward $61 $-1 #
coedge $-1 $99 $248 $251 $252 forward $61 $-1 #
coedge $-1 $253 $254 $99 $158 reversed $255 $-1 #
edge $-1 $256 -32.186494952018073 $257 32.186494952018073 $157 $258 forward 7 unknown #
face $-1 $259 $260 $37 $-1 $261 reversed single #
loop $-1 $-1 $262 $100 #
plane-surface $-1 0 0 11.321410755301965 0 0 1 1 0 0 forward_v I I I I #
coedge $-1 $263 $264 $265 $266 reversed $101 $-1 #
coedge $-1 $267 $103 $268 $269 reversed $64 $-1 #
coedge $-1 $103 $267 $270 $271 reversed $64 $-1 #
coedge $-1 $264 $263 $103 $166 reversed $101 $-1 #
edge $-1 $272 -11.321410755301965 $273 11.321410755301965 $165 $274 forward 7 unknown #
face $-1 $275 $276 $38 $-1 $277 reversed single #
loop $-1 $-1 $278 $104 #
plane-surface $-1 89.015752036255947 7.5578415015169718 183.6778143288866 0 1 0 0.79863551827123203 0 0.60181501223851219 forward_v I I I I #
coedge $-1 $279 $280 $281 $282 reversed $105 $-1 #
coedge $-1 $172 $107 $283 $284 reversed $67 $-1 #
coedge $-1 $107 $171 $279 $285 reversed $67 $-1 #
coedge $-1 $281 $286 $107 $174 forward $287 $-1 #
edge $-1 $288 -19.364922834376074 $289 -14.432921887640632 $173 $290 forward 7 unknown #
loop $-1 $-1 $180 $108 #
plane-surface $-1 -13.006419593751488 10.621897669511434 106.7985958826311 0.79863551827123203 0 0.60181501223851219 0.60181501223851219 0 -0.79863551827123203 forward_v I I I I #
loop $-1 $-1 $291 $69 #
coedge $-1 $178 $178 $179 $292 reversed $109 $-1 #
coedge $-1 $179 $179 $178 $292 forward $111 $-1 #
coedge $-1 $180 $180 $112 $181 forward $175 $-1 #
edge $-1 $293 0 $293 6.2831853071796004 $180 $294 forward 7 unknown #
loop $-1 $-1 $187 $113 #
plane-surface $-1 -13.006419593751488 10.621897669511434 106.7985958826311 0.79863551827123203 0 0.60181501223851219 0.60181501223851219 0 -0.79863551827123203 forward_v I I I I #
loop $-1 $-1 $295 $72 #
coedge $-1 $185 $185 $186 $296 reversed $114 $-1 #
coedge $-1 $186 $186 $185 $296 forward $116 $-1 #
coedge $-1 $187 $187 $117 $188 forward $182 $-1 #
edge $-1 $297 0 $297 6.2831853071796004 $187 $298 forward 7 unknown #
loop $-1 $-1 $194 $118 #
plane-surface $-1 -13.006419593751488 10.621897669511434 106.7985958826311 0.79863551827123203 0 0.60181501223851219 0.60181501223851219 0 -0.79863551827123203 forward_v I I I I #
loop $-1 $-1 $299 $75 #
coedge $-1 $192 $192 $193 $300 reversed $119 $-1 #
coedge $-1 $193 $193 $192 $300 forward $121 $-1 #
coedge $-1 $194 $194 $122 $195 forward $189 $-1 #
edge $-1 $301 0 $301 6.2831853071796004 $194 $302 forward 7 unknown #
face $-1 $303 $304 $42 $-1 $305 reversed single #
loop $-1 $-1 $306 $123 #
plane-surface $-1 -149.35128913257012 0.75590850335338899 98.957936405065183 0 -1 0 0.66913061440640931 0 -0.74314481823134659 forward_v I I I I #
coedge $-1 $307 $308 $309 $310 reversed $124 $-1 #
coedge $-1 $201 $126 $311 $312 reversed $79 $-1 #
coedge $-1 $126 $200 $307 $313 reversed $79 $-1 #
coedge $-1 $309 $314 $126 $203 forward $315 $-1 #
edge $-1 $316 10.802845713781011 $317 18.906933233025207 $202 $318 forward 7 unknown #
loop $-1 $-1 $209 $127 #
plane-surface $-1 -63.872798852504047 -3.661728646877016 4.0244574187222071 -0.66913061440640931 0 0.74314481823134659 0.74314481823134659 0 0.66913061440640931 forward_v I I I I #
loop $-1 $-1 $319 $81 #
coedge $-1 $207 $207 $208 $320 reversed $128 $-1 #
coedge $-1 $208 $208 $207 $320 forward $130 $-1 #
coedge $-1 $209 $209 $131 $210 forward $204 $-1 #
edge $-1 $321 0 $321 6.2831853071796004 $209 $322 forward 7 unknown #
loop $-1 $-1 $216 $132 #
plane-surface $-1 -63.872798852504047 -3.661728646877016 4.0244574187222071 -0.66913061440640931 0 0.74314481823134659 0.74314481823134659 0 0.66913061440640931 forward_v I I I I #
loop $-1 $-1 $323 $84 #
coedge $-1 $214 $214 $215 $324 reversed $133 $-1 #
coedge $-1 $215 $215 $214 $324 forward $135 $-1 #
coedge $-1 $216 $216 $136 $217 forward $211 $-1 #
edge $-1 $325 0 $325 6.2831853071796004 $216 $326 forward 7 unknown #
face $-1 $327 $328 $45 $-1 $329 forward single #
loop $-1 $-1 $330 $137 #
plane-surface $-1 -149.35128913257012 19.13603099202416 98.957936405065183 0 -1 0 0.66913061440640931 0 -0.74314481823134659 forward_v I I I I #
coedge $-1 $331 $332 $333 $334 reversed $138 $-1 #
coedge $-1 $223 $140 $335 $336 reversed $88 $-1 #
coedge $-1 $140 $222 $331 $337 reversed $88 $-1 #
coedge $-1 $333 $338 $140 $225 forward $328 $-1 #
edge $-1 $339 10.802845713781011 $340 18.906933233025207 $224 $341 forward 7 unknown #
loop $-1 $-1 $231 $141 #
plane-surface $-1 -63.872798852504047 14.718393841793755 4.0244574187222071 -0.66913061440640931 0 0.74314481823134659 0.74314481823134659 0 0.66913061440640931 forward_v I I I I #
loop $-1 $-1 $342 $90 #
coedge $-1 $229 $229 $230 $343 reversed $142 $-1 #
coedge $-1 $230 $230 $229 $343 forward $144 $-1 #
coedge $-1 $231 $231 $145 $232 forward $226 $-1 #
edge $-1 $344 0 $344 6.2831853071796004 $231 $345 forward 7 unknown #
loop $-1 $-1 $238 $146 #
plane-surface $-1 -63.872798852504047 14.718393841793755 4.0244574187222071 -0.66913061440640931 0 0.74314481823134659 0.74314481823134659 0 0.66913061440640931 forward_v I I I I #
loop $-1 $-1 $346 $93 #
coedge $-1 $236 $236 $237 $347 reversed $147 $-1 #
coedge $-1 $237 $237 $236 $347 forward $149 $-1 #
coedge $-1 $238 $238 $150 $239 forward $233 $-1 #
edge $-1 $348 0 $348 6.2831853071796004 $238 $349 forward 7 unknown #
face $-1 $350 $351 $36 $-1 $352 reversed single #
loop $-1 $-1 $353 $151 #
plane-surface $-1 -63.872798852504047 0 0 1 0 0 0 0 -1 forward_v I I I I #
coedge $-1 $354 $251 $355 $356 forward $152 $-1 #
coedge $-1 $357 $154 $354 $358 forward $97 $-1 #
coedge $-1 $154 $357 $359 $360 forward $97 $-1 #
coedge $-1 $254 $253 $154 $247 reversed $255 $-1 #
edge $-1 $361 -32.186494952018073 $362 32.186494952018073 $246 $363 forward 7 unknown #
coedge $-1 $156 $155 $364 $365 forward $61 $-1 #
coedge $-1 $366 $367 $155 $250 reversed $351 $-1 #
edge $-1 $257 -63.872798852504047 $368 63.872798852504047 $249 $369 forward 7 unknown #
coedge $-1 $243 $370 $156 $252 reversed $152 $-1 #
edge $-1 $371 -63.872798852504047 $256 63.872798852504047 $251 $372 forward 7 unknown #
coedge $-1 $246 $157 $370 $373 forward $255 $-1 #
coedge $-1 $157 $246 $366 $374 reversed $255 $-1 #
loop $-1 $-1 $253 $350 #
vertex $-1 $158 $375 #
vertex $-1 $158 $376 #
straight-curve $-1 63.872798852504047 0 11.321410755301965 0 1 0 I I #
face $-1 $377 $378 $37 $-1 $379 reversed single #
loop $-1 $-1 $380 $159 #
plane-surface $-1 -63.872798852504047 0 0 1 0 0 0 0 -1 forward_v I I I I #
coedge $-1 $270 $381 $264 $382 forward $160 $-1 #
coedge $-1 $165 $162 $383 $384 reversed $101 $-1 #
coedge $-1 $162 $165 $262 $382 reversed $101 $-1 #
coedge $-1 $385 $386 $162 $266 forward $387 $-1 #
edge $-1 $388 -11.321410755301965 $389 11.321410755301965 $265 $390 forward 7 unknown #
coedge $-1 $164 $163 $380 $391 reversed $64 $-1 #
coedge $-1 $383 $392 $163 $269 forward $378 $-1 #
edge $-1 $393 -33.035354018337088 $273 -28.639535649996841 $268 $394 forward 7 unknown #
coedge $-1 $395 $262 $164 $271 forward $160 $-1 #
edge $-1 $272 28.639535649996841 $396 33.035354018337088 $270 $397 forward 7 unknown #
vertex $-1 $271 $398 #
vertex $-1 $269 $399 #
straight-curve $-1 -59.476980484163803 -21.129829757101326 0 0 0 -1 I I #
face $-1 $-1 $287 $38 $-1 $400 forward single #
loop $-1 $-1 $401 $167 #
plane-surface $-1 63.872798852504047 0 0 -1 0 0 0 0 1 forward_v I I I I #
coedge $-1 $402 $403 $404 $405 reversed $168 $-1 #
coedge $-1 $406 $170 $172 $285 forward $105 $-1 #
coedge $-1 $170 $406 $402 $407 forward $105 $-1 #
coedge $-1 $404 $173 $170 $282 forward $287 $-1 #
edge $-1 $289 -8.3750050027501786 $408 -2.246892666761255 $281 $409 forward 7 unknown #
coedge $-1 $410 $411 $171 $284 forward $276 $-1 #
edge $-1 $412 -87.062482911819686 $288 -80.51749640914133 $283 $413 forward 7 unknown #
edge $-1 $289 119.55038680724346 $412 127.74559770500815 $172 $414 forward 7 unknown #
coedge $-1 $173 $404 $410 $415 forward $287 $-1 #
loop $-1 $-1 $404 $275 #
vertex $-1 $284 $416 #
vertex $-1 $174 $417 #
straight-curve $-1 44.507876018127973 13.685953837505895 11.321410755301969 -1 0 0 I I #
coedge $-1 $291 $291 $-1 $418 reversed $177 $-1 #
edge $-1 $419 0 $419 6.2831853071796004 $178 $420 forward 7 unknown #
vertex $-1 $181 $421 #
ellipse-curve $-1 61.406798379136305 8.7834639687147558 8.0489175039627945 0.79863551827123203 0 0.60181501223851219 0.3009075061192561 0 -0.39931775913561601 1 I I #
coedge $-1 $295 $295 $-1 $422 reversed $184 $-1 #
edge $-1 $423 0 $423 6.2831853071796004 $185 $424 forward 7 unknown #
vertex $-1 $188 $425 #
ellipse-curve $-1 61.406798379136305 10.621897669511434 8.0489175039627945 0.79863551827123203 0 0.60181501223851219 0.3009075061192561 0 -0.39931775913561601 1 I I #
coedge $-1 $299 $299 $-1 $426 reversed $191 $-1 #
edge $-1 $427 0 $427 6.2831853071796004 $192 $428 forward 7 unknown #
vertex $-1 $195 $429 #
ellipse-curve $-1 61.406798379136305 12.460331370308111 8.0489175039627945 0.79863551827123203 0 0.60181501223851219 0.3009075061192561 0 -0.39931775913561601 1 I I #
face $-1 $-1 $315 $42 $-1 $430 forward single #
loop $-1 $-1 $431 $196 #
plane-surface $-1 -63.872798852504047 0 0 1 0 0 0 0 -1 forward_v I I I I #
coedge $-1 $432 $433 $434 $435 reversed $197 $-1 #
coedge $-1 $436 $199 $201 $313 forward $124 $-1 #
coedge $-1 $199 $436 $432 $437 forward $124 $-1 #
coedge $-1 $434 $202 $199 $310 forward $315 $-1 #
edge $-1 $317 -6.2485014736689131 $438 2.586772826791897 $309 $439 forward 7 unknown #
coedge $-1 $440 $441 $200 $312 forward $304 $-1 #
edge $-1 $442 -45.454510783810385 $316 -38.15755744723063 $311 $443 forward 7 unknown #
edge $-1 $317 -10.905125515820163 $442 0 $201 $444 forward 7 unknown #
coedge $-1 $202 $434 $440 $445 forward $315 $-1 #
loop $-1 $-1 $434 $303 #
vertex $-1 $312 $446 #
vertex $-1 $203 $447 #
straight-curve $-1 -74.675644566285058 -8.0793657971074211 11.321410755301962 1 0 0 I I #
coedge $-1 $319 $319 $-1 $448 reversed $206 $-1 #
edge $-1 $449 0 $449 6.2831853071796004 $207 $450 forward 7 unknown #
vertex $-1 $210 $451 #
ellipse-curve $-1 -59.820755092881946 -5.5550017112614754 7.6729340870120879 -0.66913061440640931 0 0.74314481823134659 0.74314481823134659 0 0.66913061440640931 1 I I #
coedge $-1 $323 $323 $-1 $452 reversed $213 $-1 #
edge $-1 $453 0 $453 6.2831853071796004 $214 $454 forward 7 unknown #
vertex $-1 $217 $455 #
ellipse-curve $-1 -59.820755092881946 -1.7684555824925567 7.6729340870120879 -0.66913061440640931 0 0.74314481823134659 0.74314481823134659 0 0.66913061440640931 1 I I #
face $-1 $-1 $456 $45 $-1 $457 reversed single #
loop $-1 $-1 $224 $218 #
plane-surface $-1 0 0 11.321410755301965 0 0 1 1 0 0 forward_v I I I I #
coedge $-1 $458 $459 $460 $461 reversed $219 $-1 #
coedge $-1 $462 $221 $223 $337 forward $138 $-1 #
coedge $-1 $221 $462 $458 $463 forward $138 $-1 #
coedge $-1 $460 $224 $221 $334 forward $328 $-1 #
edge $-1 $340 2.9415597706664727 $464 11.776834071127283 $333 $465 forward 7 unknown #
coedge $-1 $466 $467 $222 $336 forward $456 $-1 #
edge $-1 $468 -45.454510783810385 $339 -38.15755744723063 $335 $469 forward 7 unknown #
edge $-1 $340 -10.905125515820163 $468 0 $223 $470 forward 7 unknown #
coedge $-1 $224 $460 $466 $471 forward $328 $-1 #
vertex $-1 $336 $472 #
vertex $-1 $225 $473 #
straight-curve $-1 -74.675644566285058 10.30075669156335 11.321410755301962 1 0 0 I I #
coedge $-1 $342 $342 $-1 $474 reversed $228 $-1 #
edge $-1 $475 0 $475 6.2831853071796004 $229 $476 forward 7 unknown #
vertex $-1 $232 $477 #
ellipse-curve $-1 -59.820755092881946 12.825120777409296 7.6729340870120879 -0.66913061440640931 0 0.74314481823134659 0.74314481823134659 0 0.66913061440640931 1 I I #
coedge $-1 $346 $346 $-1 $478 reversed $235 $-1 #
edge $-1 $479 0 $479 6.2831853071796004 $236 $480 forward 7 unknown #
vertex $-1 $239 $481 #
ellipse-curve $-1 -59.820755092881946 16.611666906178215 7.6729340870120879 -0.66913061440640931 0 0.74314481823134659 0.74314481823134659 0 0.66913061440640931 1 I I #
face $-1 $-1 $255 $36 $-1 $482 reversed single #
loop $-1 $-1 $366 $240 #
plane-surface $-1 0 32.186494952018073 0 0 -1 0 0 0 -1 forward_v I I I I #
coedge $-1 $483 $364 $367 $484 forward $241 $-1 #
coedge $-1 $370 $243 $244 $358 reversed $152 $-1 #
coedge $-1 $364 $483 $243 $356 reversed $241 $-1 #
edge $-1 $371 -11.321410755301965 $485 11.321410755301965 $355 $486 forward 7 unknown #
coedge $-1 $245 $244 $483 $487 forward $97 $-1 #
edge $-1 $362 -63.872798852504047 $485 63.872798852504047 $354 $488 forward 7 unknown #
coedge $-1 $367 $366 $245 $360 reversed $351 $-1 #
edge $-1 $489 -63.872798852504047 $361 63.872798852504047 $359 $490 forward 7 unknown #
vertex $-1 $247 $491 #
vertex $-1 $373 $492 #
straight-curve $-1 63.872798852504047 0 -11.321410755301965 0 -1 0 I I #
coedge $-1 $353 $355 $248 $365 reversed $241 $-1 #
edge $-1 $368 -32.186494952018073 $371 32.186494952018073 $364 $493 forward 7 unknown #
coedge $-1 $359 $249 $254 $374 forward $351 $-1 #
coedge $-1 $249 $359 $353 $484 reversed $351 $-1 #
vertex $-1 $250 $494 #
straight-curve $-1 0 32.186494952018073 11.321410755301965 -1 0 0 I I #
coedge $-1 $251 $354 $253 $373 reversed $152 $-1 #
vertex $-1 $365 $495 #
straight-curve $-1 0 -32.186494952018073 11.321410755301965 1 0 0 I I #
edge $-1 $256 -11.321410755301965 $362 11.321410755301965 $253 $496 forward 7 unknown #
edge $-1 $257 -11.321410755301965 $361 11.321410755301965 $254 $497 forward 7 unknown #
point $-1 63.872798852504047 -32.186494952018073 11.321410755301965 #
point $-1 63.872798852504047 32.186494952018073 11.321410755301965 #
face $-1 $-1 $387 $37 $-1 $498 reversed single #
loop $-1 $-1 $383 $259 #
plane-surface $-1 0 0 -11.321410755301965 0 0 1 1 0 0 forward_v I I I I #
coedge $-1 $499 $500 $267 $391 forward $260 $-1 #
coedge $-1 $262 $395 $385 $501 forward $160 $-1 #
edge $-1 $389 -18.857413774738223 $272 -7.8007485798214766 $262 $502 forward 7 unknown #
coedge $-1 $503 $268 $263 $384 forward $378 $-1 #
edge $-1 $273 7.8007485798214766 $388 18.857413774738223 $383 $504 forward 7 unknown #
coedge $-1 $505 $265 $381 $501 reversed $387 $-1 #
coedge $-1 $265 $505 $503 $506 reversed $387 $-1 #
loop $-1 $-1 $265 $377 #
vertex $-1 $506 $507 #
vertex $-1 $266 $508 #
straight-curve $-1 -59.476980484163803 -32.186494952018073 0 0 0 1 I I #
edge $-1 $396 -11.321410755301965 $393 11.321410755301965 $380 $509 forward 7 unknown #
coedge $-1 $268 $503 $499 $510 forward $378 $-1 #
vertex $-1 $269 $511 #
straight-curve $-1 -30.837444834166963 -21.129829757101326 -11.321410755301965 1 0 0 I I #
coedge $-1 $381 $270 $500 $512 forward $160 $-1 #
vertex $-1 $512 $513 #
straight-curve $-1 -30.837444834166963 -21.129829757101326 11.321410755301965 -1 0 0 I I #
point $-1 -59.476980484163803 -21.129829757101326 11.321410755301965 #
point $-1 -59.476980484163803 -21.129829757101326 -11.321410755301965 #
plane-surface $-1 0 0 11.321410755301965 0 0 1 1 0 0 forward_v I I I I #
coedge $-1 $411 $410 $403 $514 forward $276 $-1 #
coedge $-1 $403 $278 $280 $407 reversed $168 $-1 #
coedge $-1 $278 $402 $401 $514 reversed $168 $-1 #
coedge $-1 $286 $281 $278 $405 forward $287 $-1 #
edge $-1 $408 14.432921887640632 $515 19.364922834376074 $404 $516 forward 7 unknown #
coedge $-1 $280 $279 $411 $517 reversed $105 $-1 #
edge $-1 $518 -127.74559770500815 $408 -119.55038680724346 $402 $519 forward 7 unknown #
vertex $-1 $282 $520 #
straight-curve $-1 58.940797905768591 5.3109488347557168 11.321410755301976 0 -1 0 I I #
coedge $-1 $401 $283 $286 $415 reversed $276 $-1 #
coedge $-1 $283 $401 $406 $517 forward $276 $-1 #
vertex $-1 $284 $521 #
straight-curve $-1 63.872798852504047 13.685953837505895 91.838907164443299 0 0 1 I I #
straight-curve $-1 -13.006419593751488 13.685953837505895 106.7985958826311 0.60181501223851219 0 -0.79863551827123203 I I #
edge $-1 $515 7.5578415015169718 $288 13.685953837505895 $410 $522 forward 7 unknown #
point $-1 63.872798852504047 13.685953837505895 11.321410755301965 #
point $-1 58.940797905768605 13.685953837505895 11.321410755301969 #
edge $-1 $523 1 $523 0 $291 $-1 forward 7 unknown #
vertex $-1 $292 $524 #
ellipse-curve $-1 60.542806217222278 8.7834639687147558 7.3978527296063934 0.79863551827123203 0 0.60181501223851219 0.3009075061192561 0 -0.39931775913561601 1 I I #
point $-1 61.707705885255592 8.7834639687147558 7.6495997448272002 #
edge $-1 $525 1 $525 0 $295 $-1 forward 7 unknown #
vertex $-1 $296 $526 #
ellipse-curve $-1 60.542806217222278 10.621897669511434 7.3978527296063934 0.79863551827123203 0 0.60181501223851219 0.3009075061192561 0 -0.39931775913561601 1 I I #
point $-1 61.707705885255592 10.621897669511434 7.6495997448272002 #
edge $-1 $527 1 $527 0 $299 $-1 forward 7 unknown #
vertex $-1 $300 $528 #
ellipse-curve $-1 60.542806217222278 12.460331370308111 7.3978527296063934 0.79863551827123203 0 0.60181501223851219 0.3009075061192561 0 -0.39931775913561601 1 I I #
point $-1 61.707705885255592 12.460331370308111 7.6495997448272002 #
plane-surface $-1 0 0 11.321410755301965 0 0 1 1 0 0 forward_v I I I I #
coedge $-1 $441 $440 $433 $529 forward $304 $-1 #
coedge $-1 $433 $306 $308 $437 reversed $197 $-1 #
coedge $-1 $306 $432 $431 $529 reversed $197 $-1 #
coedge $-1 $314 $309 $306 $435 forward $315 $-1 #
edge $-1 $438 -18.906933233025207 $530 -10.802845713781011 $434 $531 forward 7 unknown #
coedge $-1 $308 $307 $441 $532 reversed $124 $-1 #
edge $-1 $533 0 $438 10.905125515820163 $432 $534 forward 7 unknown #
vertex $-1 $310 $535 #
straight-curve $-1 -55.768711333259851 -1.830864323438508 11.321410755301963 0 1 0 I I #
coedge $-1 $431 $311 $314 $445 reversed $304 $-1 #
coedge $-1 $311 $431 $436 $532 forward $304 $-1 #
vertex $-1 $312 $536 #
straight-curve $-1 -63.872798852504047 -8.0793657971074211 49.478968202532592 0 0 1 I I #
straight-curve $-1 -63.872798852504047 -8.0793657971074211 4.0244574187222071 -0.74314481823134659 0 -0.66913061440640931 I I #
edge $-1 $530 -0.75590850335338899 $316 8.0793657971074211 $440 $537 forward 7 unknown #
point $-1 -63.872798852504047 -8.0793657971074211 11.321410755301965 #
point $-1 -55.768711333259851 -8.0793657971074211 11.321410755301965 #
edge $-1 $538 1 $538 0 $319 $-1 forward 7 unknown #
vertex $-1 $320 $539 #
ellipse-curve $-1 -58.060292397567693 -5.5550017112614754 5.7177422282851271 -0.66913061440640931 0 0.74314481823134659 0.74314481823134659 0 0.66913061440640931 1 I I #
point $-1 -59.077610274650596 -5.5550017112614754 8.3420647014184919 #
edge $-1 $540 1 $540 0 $323 $-1 forward 7 unknown #
vertex $-1 $324 $541 #
ellipse-curve $-1 -58.060292397567693 -1.7684555824925567 5.7177422282851271 -0.66913061440640931 0 0.74314481823134659 0.74314481823134659 0 0.66913061440640931 1 I I #
point $-1 -59.077610274650596 -1.7684555824925567 8.3420647014184919 #
loop $-1 $-1 $335 $327 #
plane-surface $-1 -63.872798852504047 0 0 1 0 0 0 0 -1 forward_v I I I I #
coedge $-1 $459 $330 $332 $463 reversed $219 $-1 #
coedge $-1 $330 $458 $542 $543 reversed $219 $-1 #
coedge $-1 $338 $333 $330 $461 forward $328 $-1 #
edge $-1 $464 -18.906933233025207 $544 -10.802845713781011 $460 $545 forward 7 unknown #
coedge $-1 $332 $331 $467 $546 reversed $138 $-1 #
edge $-1 $547 0 $464 10.905125515820163 $458 $548 forward 7 unknown #
vertex $-1 $334 $549 #
straight-curve $-1 -55.768711333259851 7.3591969208968777 11.321410755301963 0 1 0 I I #
coedge $-1 $542 $335 $338 $471 reversed $456 $-1 #
coedge $-1 $335 $542 $462 $546 forward $456 $-1 #
vertex $-1 $336 $550 #
straight-curve $-1 -63.872798852504047 10.30075669156335 49.478968202532592 0 0 1 I I #
straight-curve $-1 -63.872798852504047 10.30075669156335 4.0244574187222071 -0.74314481823134659 0 -0.66913061440640931 I I #
edge $-1 $544 -19.13603099202416 $339 -10.30075669156335 $466 $551 forward 7 unknown #
point $-1 -63.872798852504047 10.30075669156335 11.321410755301965 #
point $-1 -55.768711333259851 10.30075669156335 11.321410755301965 #
edge $-1 $552 1 $552 0 $342 $-1 forward 7 unknown #
vertex $-1 $343 $553 #
ellipse-curve $-1 -58.060292397567693 12.825120777409296 5.7177422282851271 -0.66913061440640931 0 0.74314481823134659 0.74314481823134659 0 0.66913061440640931 1 I I #
point $-1 -59.077610274650596 12.825120777409296 8.3420647014184919 #
edge $-1 $554 1 $554 0 $346 $-1 forward 7 unknown #
vertex $-1 $347 $555 #
ellipse-curve $-1 -58.060292397567693 16.611666906178215 5.7177422282851271 -0.66913061440640931 0 0.74314481823134659 0.74314481823134659 0 0.66913061440640931 1 I I #
point $-1 -59.077610274650596 16.611666906178215 8.3420647014184919 #
plane-surface $-1 63.872798852504047 0 0 -1 0 0 0 0 1 forward_v I I I I #
coedge $-1 $355 $353 $357 $487 reversed $241 $-1 #
edge $-1 $368 -11.321410755301965 $489 11.321410755301965 $367 $556 forward 7 unknown #
vertex $-1 $487 $557 #
straight-curve $-1 -63.872798852504047 -32.186494952018073 0 0 0 -1 I I #
edge $-1 $485 -32.186494952018073 $489 32.186494952018073 $483 $558 forward 7 unknown #
straight-curve $-1 0 -32.186494952018073 -11.321410755301965 -1 0 0 I I #
vertex $-1 $360 $559 #
straight-curve $-1 0 32.186494952018073 -11.321410755301965 1 0 0 I I #
point $-1 63.872798852504047 32.186494952018073 -11.321410755301965 #
point $-1 63.872798852504047 -32.186494952018073 -11.321410755301965 #
straight-curve $-1 -63.872798852504047 0 11.321410755301965 0 -1 0 I I #
point $-1 -63.872798852504047 32.186494952018073 11.321410755301965 #
point $-1 -63.872798852504047 -32.186494952018073 11.321410755301965 #
straight-curve $-1 63.872798852504047 -32.186494952018073 0 0 0 -1 I I #
straight-curve $-1 63.872798852504047 32.186494952018073 0 0 0 -1 I I #
plane-surface $-1 0 -32.186494952018073 0 0 1 0 0 0 1 forward_v I I I I #
coedge $-1 $560 $380 $392 $510 reversed $260 $-1 #
coedge $-1 $380 $560 $395 $512 reversed $260 $-1 #
edge $-1 $561 -63.872798852504047 $389 -59.476980484163803 $385 $562 forward 7 unknown #
straight-curve $-1 -59.476980484163803 -13.32908117727985 11.321410755301965 0 1 0 I I #
coedge $-1 $392 $383 $386 $506 forward $378 $-1 #
straight-curve $-1 -59.476980484163803 -13.32908117727985 -11.321410755301965 0 -1 0 I I #
coedge $-1 $386 $385 $560 $563 forward $387 $-1 #
edge $-1 $388 59.476980484163803 $564 63.872798852504047 $386 $565 forward 7 unknown #
point $-1 -59.476980484163803 -32.186494952018073 -11.321410755301965 #
point $-1 -59.476980484163803 -32.186494952018073 11.321410755301965 #
straight-curve $-1 -63.872798852504047 -21.129829757101326 0 0 0 -1 I I #
edge $-1 $564 -32.186494952018073 $393 -21.129829757101326 $499 $566 forward 7 unknown #
point $-1 -63.872798852504047 -21.129829757101326 -11.321410755301965 #
edge $-1 $396 21.129829757101326 $561 32.186494952018073 $500 $567 forward 7 unknown #
point $-1 -63.872798852504047 -21.129829757101326 11.321410755301965 #
edge $-1 $515 80.51749640914133 $518 87.062482911819686 $401 $568 forward 7 unknown #
vertex $-1 $415 $569 #
straight-curve $-1 44.507876018127973 7.5578415015169718 11.321410755301969 1 0 0 I I #
edge $-1 $518 2.246892666761255 $412 8.3750050027501786 $411 $570 forward 7 unknown #
vertex $-1 $517 $571 #
straight-curve $-1 -13.006419593751488 7.5578415015169718 106.7985958826311 -0.60181501223851219 0 0.79863551827123203 I I #
point $-1 58.940797905768605 7.5578415015169718 11.321410755301969 #
point $-1 63.872798852504047 13.685953837505895 4.7764242526236131 #
straight-curve $-1 63.872798852504047 0 11.321410755301965 0 1 0 I I #
vertex $-1 $418 $572 #
point $-1 60.843713723341537 8.7834639687147558 6.9985349704707778 #
vertex $-1 $422 $573 #
point $-1 60.843713723341537 10.621897669511434 6.9985349704707778 #
vertex $-1 $426 $574 #
point $-1 60.843713723341537 12.460331370308111 6.9985349704707778 #
edge $-1 $530 38.15755744723063 $533 45.454510783810385 $431 $575 forward 7 unknown #
vertex $-1 $445 $576 #
straight-curve $-1 -74.675644566285058 0.75590850335338899 11.321410755301962 -1 0 0 I I #
edge $-1 $533 -2.586772826791897 $442 6.2485014736689131 $441 $577 forward 7 unknown #
vertex $-1 $532 $578 #
straight-curve $-1 -63.872798852504047 0.75590850335338899 4.0244574187222071 0.74314481823134659 0 0.66913061440640931 I I #
point $-1 -55.768711333259851 0.75590850335338899 11.321410755301965 #
point $-1 -63.872798852504047 -8.0793657971074211 4.0244574187222071 #
straight-curve $-1 -63.872798852504047 0 11.321410755301965 0 -1 0 I I #
vertex $-1 $448 $579 #
point $-1 -57.317147579336343 -5.5550017112614754 6.3868728426915364 #
vertex $-1 $452 $580 #
point $-1 -57.317147579336343 -1.7684555824925567 6.3868728426915364 #
coedge $-1 $467 $466 $459 $543 forward $456 $-1 #
edge $-1 $544 38.15755744723063 $547 45.454510783810385 $542 $581 forward 7 unknown #
vertex $-1 $471 $582 #
straight-curve $-1 -74.675644566285058 19.13603099202416 11.321410755301962 -1 0 0 I I #
edge $-1 $547 -11.776834071127283 $468 -2.9415597706664727 $467 $583 forward 7 unknown #
vertex $-1 $546 $584 #
straight-curve $-1 -63.872798852504047 19.13603099202416 4.0244574187222071 0.74314481823134659 0 0.66913061440640931 I I #
point $-1 -55.768711333259851 19.13603099202416 11.321410755301965 #
point $-1 -63.872798852504047 10.30075669156335 4.0244574187222071 #
straight-curve $-1 -63.872798852504047 0 11.321410755301965 0 -1 0 I I #
vertex $-1 $474 $585 #
point $-1 -57.317147579336343 12.825120777409296 6.3868728426915364 #
vertex $-1 $478 $586 #
point $-1 -57.317147579336343 16.611666906178215 6.3868728426915364 #
straight-curve $-1 -63.872798852504047 32.186494952018073 0 0 0 -1 I I #
point $-1 -63.872798852504047 -32.186494952018073 -11.321410755301965 #
straight-curve $-1 -63.872798852504047 0 -11.321410755301965 0 1 0 I I #
point $-1 -63.872798852504047 32.186494952018073 -11.321410755301965 #
coedge $-1 $500 $499 $505 $563 reversed $260 $-1 #
vertex $-1 $512 $587 #
straight-curve $-1 0 -32.186494952018073 11.321410755301965 1 0 0 I I #
edge $-1 $561 -11.321410755301965 $564 11.321410755301965 $560 $588 forward 7 unknown #
vertex $-1 $510 $589 #
straight-curve $-1 0 -32.186494952018073 -11.321410755301965 -1 0 0 I I #
straight-curve $-1 -63.872798852504047 0 -11.321410755301965 0 1 0 I I #
straight-curve $-1 -63.872798852504047 0 11.321410755301965 0 -1 0 I I #
straight-curve $-1 63.872798852504047 7.5578415015169718 91.838907164443299 0 0 -1 I I #
point $-1 63.872798852504047 7.5578415015169718 11.321410755301965 #
straight-curve $-1 63.872798852504047 5.3109488347557168 4.776424252623606 0 1 0 I I #
point $-1 63.872798852504047 7.5578415015169718 4.7764242526236131 #
point $-1 60.143488458086665 8.7834639687147558 7.096945223487138 #
point $-1 60.143488458086665 10.621897669511434 7.096945223487138 #
point $-1 60.143488458086665 12.460331370308111 7.096945223487138 #
straight-curve $-1 -63.872798852504047 0.75590850335338899 49.478968202532592 0 0 -1 I I #
point $-1 -63.872798852504047 0.75590850335338899 11.321410755301965 #
straight-curve $-1 -63.872798852504047 -1.830864323438508 4.0244574187222035 0 -1 0 I I #
point $-1 -63.872798852504047 0.75590850335338899 4.0244574187222071 #
point $-1 -57.39116178316128 -5.5550017112614754 4.9745974100537804 #
point $-1 -57.39116178316128 -1.7684555824925567 4.9745974100537804 #
straight-curve $-1 -63.872798852504047 19.13603099202416 49.478968202532592 0 0 -1 I I #
point $-1 -63.872798852504047 19.13603099202416 11.321410755301965 #
straight-curve $-1 -63.872798852504047 7.3591969208968777 4.0244574187222035 0 -1 0 I I #
point $-1 -63.872798852504047 19.13603099202416 4.0244574187222071 #
point $-1 -57.39116178316128 12.825120777409296 4.9745974100537804 #
point $-1 -57.39116178316128 16.611666906178215 4.9745974100537804 #
point $-1 -63.872798852504047 -32.186494952018073 11.321410755301965 #
straight-curve $-1 -63.872798852504047 -32.186494952018073 0 0 0 -1 I I #
point $-1 -63.872798852504047 -32.186494952018073 -11.321410755301965 #
End-of-ACIS-data 