500 0 10 0           
7 Unknown 11 ACIS 5.0 NT 24 Fri Mar 26 03:35:36 1999 
-1 9.9999999999999995e-007 1e-010 
body $-1 $10 $-1 $11 #
body $-1 $12 $-1 $13 #
body $-1 $14 $-1 $15 #
body $-1 $16 $-1 $17 #
body $-1 $18 $-1 $19 #
body $-1 $20 $-1 $21 #
body $-1 $22 $-1 $23 #
body $-1 $24 $-1 $25 #
body $-1 $26 $-1 $27 #
body $-1 $28 $-1 $29 #
lump $-1 $-1 $30 $0 #
transform $-1 1 0 0 0 1 0 0 0 1 56.339609973448901 29.149691571516119 11.201729982305878 1 rotate no_reflect no_shear #
lump $-1 $-1 $31 $1 #
transform $-1 1 0 0 0 1 0 0 0 1 56.339609973448901 29.149691571516119 11.201729982305878 1 rotate no_reflect no_shear #
lump $-1 $-1 $32 $2 #
transform $-1 1 0 0 0 1 0 0 0 1 56.339609973448901 29.149691571516119 11.201729982305878 1 rotate no_reflect no_shear #
lump $-1 $-1 $33 $3 #
transform $-1 1 0 0 0 1 0 0 0 1 56.339609973448901 29.149691571516119 11.201729982305878 1 rotate no_reflect no_shear #
lump $-1 $-1 $34 $4 #
transform $-1 1 0 0 0 1 0 0 0 1 56.339609973448901 29.149691571516119 11.201729982305878 1 rotate no_reflect no_shear #
lump $-1 $-1 $35 $5 #
transform $-1 1 0 0 0 1 0 0 0 1 56.339609973448901 29.149691571516119 11.201729982305878 1 rotate no_reflect no_shear #
lump $-1 $-1 $36 $6 #
transform $-1 1 0 0 0 1 0 0 0 1 56.339609973448901 29.149691571516119 11.201729982305878 1 rotate no_reflect no_shear #
lump $-1 $-1 $37 $7 #
transform $-1 1 0 0 0 1 0 0 0 1 56.339609973448901 29.149691571516119 11.201729982305878 1 rotate no_reflect no_shear #
lump $-1 $-1 $38 $8 #
transform $-1 1 0 0 0 1 0 0 0 1 56.339609973448901 29.149691571516119 11.201729982305878 1 rotate no_reflect no_shear #
lump $-1 $-1 $39 $9 #
transform $-1 1 0 0 0 1 0 0 0 1 56.339609973448901 29.149691571516119 11.201729982305878 1 rotate no_reflect no_shear #
shell $-1 $-1 $-1 $40 $-1 $10 #
shell $-1 $-1 $-1 $41 $-1 $12 #
shell $-1 $-1 $-1 $42 $-1 $14 #
shell $-1 $-1 $-1 $43 $-1 $16 #
shell $-1 $-1 $-1 $44 $-1 $18 #
shell $-1 $-1 $-1 $45 $-1 $20 #
shell $-1 $-1 $-1 $46 $-1 $22 #
shell $-1 $-1 $-1 $47 $-1 $24 #
shell $-1 $-1 $-1 $48 $-1 $26 #
shell $-1 $-1 $-1 $49 $-1 $28 #
face $-1 $50 $51 $30 $-1 $52 forward single #
face $-1 $53 $54 $31 $-1 $55 reversed single #
face $-1 $56 $57 $32 $-1 $58 reversed single #
face $-1 $59 $60 $33 $-1 $61 forward single #
face $-1 $62 $63 $34 $-1 $64 forward single #
face $-1 $65 $66 $35 $-1 $67 forward single #
face $-1 $68 $69 $36 $-1 $70 reversed single #
face $-1 $71 $72 $37 $-1 $73 forward single #
face $-1 $74 $75 $38 $-1 $76 forward single #
face $-1 $77 $78 $39 $-1 $79 forward single #
face $-1 $80 $81 $30 $-1 $82 reversed single #
loop $-1 $-1 $83 $40 #
plane-surface $-1 0 0 11.201729982305878 0 0 1 1 0 0 forward_v I I I I #
face $-1 $84 $85 $31 $-1 $86 reversed single #
loop $-1 $-1 $87 $41 #
plane-surface $-1 -36.936150008837146 -24.859945538908015 0 1 0 0 0 0 -1 forward_v I I I I #
face $-1 $88 $89 $32 $-1 $90 reversed single #
loop $-1 $-1 $91 $42 #
plane-surface $-1 86.745499051270556 15.008670838853583 157.50954673058993 0 1 0 0.82903758062907751 0 0.55919289150049634 forward_v I I I I #
face $-1 $92 $93 $33 $-1 $94 forward single #
loop $-1 $95 $96 $43 #
cone-surface $-1 51.633898227278678 17.836874985386086 5.2706357836475393 -0.82903758062907751 0 -0.55919289150049634 0.55919289150049634 0 -0.82903758062907751 1 I I 0 1 1 forward I I I I #
face $-1 $97 $98 $34 $-1 $99 forward single #
loop $-1 $100 $101 $44 #
cone-surface $-1 51.633898227278678 22.079181205184849 5.2706357836475393 -0.82903758062907751 0 -0.55919289150049634 0.55919289150049634 0 -0.82903758062907751 1 I I 0 1 1 forward I I I I #
face $-1 $102 $103 $35 $-1 $104 forward single #
loop $-1 $105 $106 $45 #
cone-surface $-1 51.633898227278678 26.321487424983612 5.2706357836475393 -0.82903758062907751 0 -0.55919289150049634 0.55919289150049634 0 -0.82903758062907751 1 I I 0 1 1 forward I I I I #
face $-1 $107 $108 $36 $-1 $109 reversed single #
loop $-1 $-1 $110 $46 #
plane-surface $-1 -149.75491786539675 15.008670838853583 64.094238838642113 0 1 0 -0.82903758062907751 0 0.55919289150049634 forward_v I I I I #
face $-1 $111 $112 $37 $-1 $113 forward single #
loop $-1 $114 $115 $47 #
cone-surface $-1 -51.633898227278685 17.836874985386086 5.2706357836475357 0.82903758062907751 0 -0.55919289150049634 0.55919289150049634 0 0.82903758062907751 1 I I 0 1 1 forward I I I I #
face $-1 $116 $117 $38 $-1 $118 forward single #
loop $-1 $119 $120 $48 #
cone-surface $-1 -51.633898227278685 22.079181205184849 5.2706357836475357 0.82903758062907751 0 -0.55919289150049634 0.55919289150049634 0 0.82903758062907751 1 I I 0 1 1 forward I I I I #
face $-1 $121 $122 $39 $-1 $123 forward single #
loop $-1 $124 $125 $49 #
cone-surface $-1 -51.633898227278685 26.321487424983612 5.2706357836475357 0.82903758062907751 0 -0.55919289150049634 0.55919289150049634 0 0.82903758062907751 1 I I 0 1 1 forward I I I I #
face $-1 $126 $127 $30 $-1 $128 reversed single #
loop $-1 $-1 $129 $50 #
plane-surface $-1 0 0 -11.201729982305878 0 0 1 1 0 0 forward_v I I I I #
coedge $-1 $130 $131 $132 $133 forward $51 $-1 #
face $-1 $134 $135 $31 $-1 $136 reversed single #
loop $-1 $-1 $137 $53 #
plane-surface $-1 -35.436150008837146 -20.570199506299911 0 0 -1 0 0 0 -1 forward_v I I I I #
coedge $-1 $138 $139 $140 $141 forward $54 $-1 #
face $-1 $142 $143 $32 $-1 $144 reversed single #
loop $-1 $-1 $145 $56 #
plane-surface $-1 -6.6698088406772911 22.079181205184849 94.500127916463754 0.82903758062907751 0 0.55919289150049634 0.55919289150049634 0 -0.82903758062907751 forward_v I I I I #
coedge $-1 $146 $147 $148 $149 reversed $57 $-1 #
face $-1 $-1 $150 $33 $-1 $151 forward single #
loop $-1 $152 $153 $59 #
cone-surface $-1 49.925638549855549 17.836874985386086 4.1184001181339198 -0.82903758062907751 0 -0.55919289150049634 0.27959644575024817 0 -0.41451879031453875 1 I I -0.70710678118654746 0.70710678118654746 0.5 forward I I I I #
loop $-1 $-1 $154 $43 #
coedge $-1 $96 $96 $155 $156 reversed $60 $-1 #
face $-1 $-1 $157 $34 $-1 $158 forward single #
loop $-1 $159 $160 $62 #
cone-surface $-1 49.925638549855549 22.079181205184849 4.1184001181339198 -0.82903758062907751 0 -0.55919289150049634 0.27959644575024817 0 -0.41451879031453875 1 I I -0.70710678118654746 0.70710678118654746 0.5 forward I I I I #
loop $-1 $-1 $161 $44 #
coedge $-1 $101 $101 $162 $163 reversed $63 $-1 #
face $-1 $-1 $164 $35 $-1 $165 forward single #
loop $-1 $166 $167 $65 #
cone-surface $-1 49.925638549855549 26.321487424983612 4.1184001181339198 -0.82903758062907751 0 -0.55919289150049634 0.27959644575024817 0 -0.41451879031453875 1 I I -0.70710678118654746 0.70710678118654746 0.5 forward I I I I #
loop $-1 $-1 $168 $45 #
coedge $-1 $106 $106 $169 $170 reversed $66 $-1 #
face $-1 $171 $172 $36 $-1 $173 forward single #
loop $-1 $-1 $174 $68 #
plane-surface $-1 -56.339609973448901 22.079181205184849 1.0848200245159276 -0.82903758062907751 0 0.55919289150049634 0.55919289150049634 0 0.82903758062907751 forward_v I I I I #
coedge $-1 $175 $176 $177 $178 reversed $69 $-1 #
face $-1 $-1 $179 $37 $-1 $180 forward single #
loop $-1 $181 $182 $71 #
cone-surface $-1 -49.925638549855556 17.836874985386086 4.1184001181339163 0.82903758062907751 0 -0.55919289150049634 0.27959644575024817 0 0.41451879031453875 1 I I -0.70710678118654746 0.70710678118654746 0.5 forward I I I I #
loop $-1 $-1 $183 $47 #
coedge $-1 $115 $115 $184 $185 reversed $72 $-1 #
face $-1 $-1 $186 $38 $-1 $187 forward single #
loop $-1 $188 $189 $74 #
cone-surface $-1 -49.925638549855556 22.079181205184849 4.1184001181339163 0.82903758062907751 0 -0.55919289150049634 0.27959644575024817 0 0.41451879031453875 1 I I -0.70710678118654746 0.70710678118654746 0.5 forward I I I I #
loop $-1 $-1 $190 $48 #
coedge $-1 $120 $120 $191 $192 reversed $75 $-1 #
face $-1 $-1 $193 $39 $-1 $194 forward single #
loop $-1 $195 $196 $77 #
cone-surface $-1 -49.925638549855556 26.321487424983612 4.1184001181339163 0.82903758062907751 0 -0.55919289150049634 0.27959644575024817 0 0.41451879031453875 1 I I -0.70710678118654746 0.70710678118654746 0.5 forward I I I I #
loop $-1 $-1 $197 $49 #
coedge $-1 $125 $125 $198 $199 reversed $78 $-1 #
face $-1 $200 $201 $30 $-1 $202 reversed single #
loop $-1 $-1 $203 $80 #
plane-surface $-1 0 -29.149691571516119 0 0 1 0 0 0 1 forward_v I I I I #
coedge $-1 $204 $205 $206 $207 forward $81 $-1 #
coedge $-1 $208 $83 $209 $210 forward $51 $-1 #
coedge $-1 $83 $208 $211 $212 forward $51 $-1 #
coedge $-1 $213 $214 $83 $133 reversed $215 $-1 #
edge $-1 $216 -29.149691571516119 $217 29.149691571516119 $132 $218 forward 7 unknown #
face $-1 $219 $220 $31 $-1 $221 forward single #
loop $-1 $-1 $222 $84 #
plane-surface $-1 -33.936150008837146 -24.859945538908015 0 -1 0 0 0 0 1 forward_v I I I I #
coedge $-1 $223 $224 $225 $226 forward $85 $-1 #
coedge $-1 $227 $87 $228 $229 reversed $54 $-1 #
coedge $-1 $87 $227 $230 $231 reversed $54 $-1 #
coedge $-1 $224 $223 $87 $141 reversed $85 $-1 #
edge $-1 $232 -11.201729982305878 $233 11.201729982305878 $140 $234 forward 7 unknown #
face $-1 $235 $236 $32 $-1 $237 reversed single #
loop $-1 $-1 $148 $88 #
plane-surface $-1 56.339609973448901 0 0 -1 0 0 0 0 1 forward_v I I I I #
coedge $-1 $238 $239 $240 $241 reversed $89 $-1 #
coedge $-1 $147 $91 $242 $243 reversed $57 $-1 #
coedge $-1 $91 $146 $238 $244 reversed $57 $-1 #
coedge $-1 $240 $245 $91 $149 forward $143 $-1 #
edge $-1 $246 67.553043382989088 $247 77.669953340779074 $148 $248 forward 7 unknown #
loop $-1 $-1 $155 $92 #
plane-surface $-1 -6.6698088406772911 22.079181205184849 94.500127916463754 0.82903758062907751 0 0.55919289150049634 0.55919289150049634 0 -0.82903758062907751 forward_v I I I I #
loop $-1 $-1 $249 $59 #
coedge $-1 $153 $153 $154 $250 reversed $93 $-1 #
coedge $-1 $154 $154 $153 $250 forward $95 $-1 #
coedge $-1 $155 $155 $96 $156 forward $150 $-1 #
edge $-1 $251 0 $251 6.2831853071796004 $155 $252 forward 7 unknown #
loop $-1 $-1 $162 $97 #
plane-surface $-1 -6.6698088406772911 22.079181205184849 94.500127916463754 0.82903758062907751 0 0.55919289150049634 0.55919289150049634 0 -0.82903758062907751 forward_v I I I I #
loop $-1 $-1 $253 $62 #
coedge $-1 $160 $160 $161 $254 reversed $98 $-1 #
coedge $-1 $161 $161 $160 $254 forward $100 $-1 #
coedge $-1 $162 $162 $101 $163 forward $157 $-1 #
edge $-1 $255 0 $255 6.2831853071796004 $162 $256 forward 7 unknown #
loop $-1 $-1 $169 $102 #
plane-surface $-1 -6.6698088406772911 22.079181205184849 94.500127916463754 0.82903758062907751 0 0.55919289150049634 0.55919289150049634 0 -0.82903758062907751 forward_v I I I I #
loop $-1 $-1 $257 $65 #
coedge $-1 $167 $167 $168 $258 reversed $103 $-1 #
coedge $-1 $168 $168 $167 $258 forward $105 $-1 #
coedge $-1 $169 $169 $106 $170 forward $164 $-1 #
edge $-1 $259 0 $259 6.2831853071796004 $169 $260 forward 7 unknown #
face $-1 $261 $262 $36 $-1 $263 reversed single #
loop $-1 $-1 $177 $107 #
plane-surface $-1 0 0 11.201729982305878 0 0 1 1 0 0 forward_v I I I I #
coedge $-1 $264 $265 $266 $267 reversed $108 $-1 #
coedge $-1 $176 $110 $268 $269 reversed $69 $-1 #
coedge $-1 $110 $175 $264 $270 reversed $69 $-1 #
coedge $-1 $266 $271 $110 $178 forward $172 $-1 #
edge $-1 $272 18.537848959249473 $273 25.361790677372717 $177 $274 forward 7 unknown #
loop $-1 $-1 $184 $111 #
plane-surface $-1 -56.339609973448901 22.079181205184849 1.0848200245159276 -0.82903758062907751 0 0.55919289150049634 0.55919289150049634 0 0.82903758062907751 forward_v I I I I #
loop $-1 $-1 $275 $71 #
coedge $-1 $182 $182 $183 $276 reversed $112 $-1 #
coedge $-1 $183 $183 $182 $276 forward $114 $-1 #
coedge $-1 $184 $184 $115 $185 forward $179 $-1 #
edge $-1 $277 0 $277 6.2831853071796004 $184 $278 forward 7 unknown #
loop $-1 $-1 $191 $116 #
plane-surface $-1 -56.339609973448901 22.079181205184849 1.0848200245159276 -0.82903758062907751 0 0.55919289150049634 0.55919289150049634 0 0.82903758062907751 forward_v I I I I #
loop $-1 $-1 $279 $74 #
coedge $-1 $189 $189 $190 $280 reversed $117 $-1 #
coedge $-1 $190 $190 $189 $280 forward $119 $-1 #
coedge $-1 $191 $191 $120 $192 forward $186 $-1 #
edge $-1 $281 0 $281 6.2831853071796004 $191 $282 forward 7 unknown #
loop $-1 $-1 $198 $121 #
plane-surface $-1 -56.339609973448901 22.079181205184849 1.0848200245159276 -0.82903758062907751 0 0.55919289150049634 0.55919289150049634 0 0.82903758062907751 forward_v I I I I #
loop $-1 $-1 $283 $77 #
coedge $-1 $196 $196 $197 $284 reversed $122 $-1 #
coedge $-1 $197 $197 $196 $284 forward $124 $-1 #
coedge $-1 $198 $198 $125 $199 forward $193 $-1 #
edge $-1 $285 0 $285 6.2831853071796004 $198 $286 forward 7 unknown #
face $-1 $287 $288 $30 $-1 $289 reversed single #
loop $-1 $-1 $290 $126 #
plane-surface $-1 -56.339609973448901 0 0 1 0 0 0 0 -1 forward_v I I I I #
coedge $-1 $291 $211 $292 $293 forward $127 $-1 #
coedge $-1 $294 $129 $291 $295 forward $81 $-1 #
coedge $-1 $129 $294 $296 $297 forward $81 $-1 #
coedge $-1 $214 $213 $129 $207 reversed $215 $-1 #
edge $-1 $298 -29.149691571516119 $299 29.149691571516119 $206 $300 forward 7 unknown #
coedge $-1 $131 $130 $301 $302 forward $51 $-1 #
coedge $-1 $303 $304 $130 $210 reversed $288 $-1 #
edge $-1 $217 -56.339609973448901 $305 56.339609973448901 $209 $306 forward 7 unknown #
coedge $-1 $203 $307 $131 $212 reversed $127 $-1 #
edge $-1 $308 -56.339609973448901 $216 56.339609973448901 $211 $309 forward 7 unknown #
coedge $-1 $206 $132 $307 $310 forward $215 $-1 #
coedge $-1 $132 $206 $303 $311 reversed $215 $-1 #
loop $-1 $-1 $213 $287 #
vertex $-1 $133 $312 #
vertex $-1 $133 $313 #
straight-curve $-1 56.339609973448901 0 11.201729982305878 0 1 0 I I #
face $-1 $314 $315 $31 $-1 $316 reversed single #
loop $-1 $-1 $317 $134 #
plane-surface $-1 0 0 11.201729982305878 0 0 1 1 0 0 forward_v I I I I #
coedge $-1 $318 $319 $320 $321 reversed $135 $-1 #
coedge $-1 $140 $137 $322 $323 reversed $85 $-1 #
coedge $-1 $137 $140 $324 $325 reversed $85 $-1 #
coedge $-1 $319 $318 $137 $226 reversed $135 $-1 #
edge $-1 $326 -11.201729982305878 $327 11.201729982305878 $225 $328 forward 7 unknown #
coedge $-1 $139 $138 $329 $330 reversed $54 $-1 #
coedge $-1 $322 $331 $138 $229 forward $315 $-1 #
edge $-1 $332 -16.719718802062111 $233 -8.1402267368459036 $228 $333 forward 7 unknown #
coedge $-1 $334 $324 $139 $231 forward $220 $-1 #
edge $-1 $232 8.1402267368459036 $335 16.719718802062111 $230 $336 forward 7 unknown #
vertex $-1 $231 $337 #
vertex $-1 $229 $338 #
straight-curve $-1 -36.936150008837146 -20.570199506299911 0 0 0 -1 I I #
face $-1 $-1 $339 $32 $-1 $340 forward single #
loop $-1 $-1 $341 $142 #
plane-surface $-1 0 29.149691571516119 0 0 -1 0 0 0 -1 forward_v I I I I #
coedge $-1 $342 $145 $147 $244 forward $89 $-1 #
coedge $-1 $145 $342 $341 $343 reversed $89 $-1 #
coedge $-1 $344 $148 $145 $241 forward $143 $-1 #
edge $-1 $247 3.9690802362611581 $345 18.110100968923696 $240 $346 forward 7 unknown #
coedge $-1 $347 $348 $146 $243 forward $339 $-1 #
edge $-1 $349 6.1429187296903507 $246 12.966860447813623 $242 $350 forward 7 unknown #
edge $-1 $247 -112.67921994689783 $349 -100.47602169126117 $147 $351 forward 7 unknown #
coedge $-1 $148 $344 $347 $352 reversed $143 $-1 #
vertex $-1 $352 $353 #
vertex $-1 $149 $354 #
straight-curve $-1 56.339609973448901 15.008670838853583 78.754773365294966 0 0 -1 I I #
coedge $-1 $249 $249 $-1 $355 reversed $152 $-1 #
edge $-1 $356 0 $356 6.2831853071796004 $153 $357 forward 7 unknown #
vertex $-1 $156 $358 #
ellipse-curve $-1 52.927639114387262 17.836874985386086 6.1432750034109054 0.82903758062907751 0 0.55919289150049634 0.55919289150049634 0 -0.82903758062907751 1 I I #
coedge $-1 $253 $253 $-1 $359 reversed $159 $-1 #
edge $-1 $360 0 $360 6.2831853071796004 $160 $361 forward 7 unknown #
vertex $-1 $163 $362 #
ellipse-curve $-1 52.927639114387262 22.079181205184849 6.1432750034109054 0.82903758062907751 0 0.55919289150049634 0.55919289150049634 0 -0.82903758062907751 1 I I #
coedge $-1 $257 $257 $-1 $363 reversed $166 $-1 #
edge $-1 $364 0 $364 6.2831853071796004 $167 $365 forward 7 unknown #
vertex $-1 $170 $366 #
ellipse-curve $-1 52.927639114387262 26.321487424983612 6.1432750034109054 0.82903758062907751 0 0.55919289150049634 0.55919289150049634 0 -0.82903758062907751 1 I I #
face $-1 $-1 $367 $36 $-1 $368 reversed single #
loop $-1 $-1 $369 $171 #
plane-surface $-1 0 29.149691571516119 0 0 -1 0 0 0 -1 forward_v I I I I #
coedge $-1 $370 $174 $176 $270 forward $108 $-1 #
coedge $-1 $174 $370 $369 $371 reversed $108 $-1 #
coedge $-1 $372 $177 $174 $267 forward $172 $-1 #
edge $-1 $273 3.9690802362611581 $373 18.110100968923689 $266 $374 forward 7 unknown #
coedge $-1 $375 $376 $175 $269 forward $367 $-1 #
edge $-1 $377 -30.962299394805129 $272 -20.845389437015179 $268 $378 forward 7 unknown #
edge $-1 $273 -12.203198255636604 $377 0 $176 $379 forward 7 unknown #
coedge $-1 $177 $372 $375 $380 forward $172 $-1 #
vertex $-1 $269 $381 #
vertex $-1 $178 $382 #
straight-curve $-1 -74.877458932698374 15.008670838853583 11.201729982305878 1 0 0 I I #
coedge $-1 $275 $275 $-1 $383 reversed $181 $-1 #
edge $-1 $384 0 $384 6.2831853071796004 $182 $385 forward 7 unknown #
vertex $-1 $185 $386 #
ellipse-curve $-1 -52.927639114387276 17.836874985386086 6.1432750034109063 -0.82903758062907751 0 0.55919289150049634 0.55919289150049634 0 0.82903758062907751 1 I I #
coedge $-1 $279 $279 $-1 $387 reversed $188 $-1 #
edge $-1 $388 0 $388 6.2831853071796004 $189 $389 forward 7 unknown #
vertex $-1 $192 $390 #
ellipse-curve $-1 -52.927639114387276 22.079181205184849 6.1432750034109063 -0.82903758062907751 0 0.55919289150049634 0.55919289150049634 0 0.82903758062907751 1 I I #
coedge $-1 $283 $283 $-1 $391 reversed $195 $-1 #
edge $-1 $392 0 $392 6.2831853071796004 $196 $393 forward 7 unknown #
vertex $-1 $199 $394 #
ellipse-curve $-1 -52.927639114387276 26.321487424983612 6.1432750034109063 -0.82903758062907751 0 0.55919289150049634 0.55919289150049634 0 0.82903758062907751 1 I I #
face $-1 $-1 $215 $30 $-1 $395 reversed single #
loop $-1 $-1 $303 $200 #
plane-surface $-1 0 29.149691571516119 0 0 -1 0 0 0 -1 forward_v I I I I #
coedge $-1 $396 $301 $304 $397 forward $201 $-1 #
coedge $-1 $307 $203 $204 $295 reversed $127 $-1 #
coedge $-1 $301 $396 $203 $293 reversed $201 $-1 #
edge $-1 $308 -11.201729982305878 $398 11.201729982305878 $292 $399 forward 7 unknown #
coedge $-1 $205 $204 $396 $400 forward $81 $-1 #
edge $-1 $299 -56.339609973448901 $398 56.339609973448901 $291 $401 forward 7 unknown #
coedge $-1 $304 $303 $205 $297 reversed $288 $-1 #
edge $-1 $402 -56.339609973448901 $298 56.339609973448901 $296 $403 forward 7 unknown #
vertex $-1 $207 $404 #
vertex $-1 $310 $405 #
straight-curve $-1 56.339609973448901 0 -11.201729982305878 0 -1 0 I I #
coedge $-1 $290 $292 $208 $302 reversed $201 $-1 #
edge $-1 $305 -29.149691571516119 $308 29.149691571516119 $301 $406 forward 7 unknown #
coedge $-1 $296 $209 $214 $311 forward $288 $-1 #
coedge $-1 $209 $296 $290 $397 reversed $288 $-1 #
vertex $-1 $210 $407 #
straight-curve $-1 0 29.149691571516119 11.201729982305878 -1 0 0 I I #
coedge $-1 $211 $291 $213 $310 reversed $127 $-1 #
vertex $-1 $302 $408 #
straight-curve $-1 0 -29.149691571516119 11.201729982305878 1 0 0 I I #
edge $-1 $216 -11.201729982305878 $299 11.201729982305878 $213 $409 forward 7 unknown #
edge $-1 $217 -11.201729982305878 $298 11.201729982305878 $214 $410 forward 7 unknown #
point $-1 56.339609973448901 -29.149691571516119 11.201729982305878 #
point $-1 56.339609973448901 29.149691571516119 11.201729982305878 #
face $-1 $-1 $411 $31 $-1 $412 reversed single #
loop $-1 $-1 $413 $219 #
plane-surface $-1 0 0 -11.201729982305878 0 0 1 1 0 0 forward_v I I I I #
coedge $-1 $324 $334 $319 $414 forward $220 $-1 #
coedge $-1 $225 $222 $413 $415 reversed $135 $-1 #
coedge $-1 $222 $225 $317 $414 reversed $135 $-1 #
coedge $-1 $416 $417 $222 $321 forward $411 $-1 #
edge $-1 $418 -11.201729982305878 $419 11.201729982305878 $320 $420 forward 7 unknown #
coedge $-1 $413 $228 $223 $323 forward $315 $-1 #
edge $-1 $233 -19.218075004418573 $327 -16.218075004418573 $322 $421 forward 7 unknown #
coedge $-1 $230 $317 $224 $325 forward $220 $-1 #
edge $-1 $326 16.218075004418573 $232 19.218075004418573 $324 $422 forward 7 unknown #
vertex $-1 $325 $423 #
vertex $-1 $323 $424 #
straight-curve $-1 -33.936150008837146 -20.570199506299911 0 0 0 -1 I I #
coedge $-1 $417 $416 $227 $330 forward $411 $-1 #
edge $-1 $335 -11.201729982305878 $332 11.201729982305878 $329 $425 forward 7 unknown #
coedge $-1 $228 $413 $417 $426 forward $315 $-1 #
vertex $-1 $229 $427 #
straight-curve $-1 -36.936150008837146 -12.429972769454007 -11.201729982305878 0 1 0 I I #
coedge $-1 $317 $230 $416 $428 forward $220 $-1 #
vertex $-1 $428 $429 #
straight-curve $-1 -36.936150008837146 -12.429972769454007 11.201729982305878 0 -1 0 I I #
point $-1 -36.936150008837146 -20.570199506299911 11.201729982305878 #
point $-1 -36.936150008837146 -20.570199506299911 -11.201729982305878 #
loop $-1 $-1 $242 $235 #
plane-surface $-1 0 0 11.201729982305878 0 0 1 1 0 0 forward_v I I I I #
coedge $-1 $430 $431 $239 $343 forward $236 $-1 #
coedge $-1 $239 $238 $348 $432 reversed $89 $-1 #
edge $-1 $345 -71.642286392709138 $433 -59.439088137072488 $341 $434 forward 7 unknown #
coedge $-1 $245 $240 $431 $435 reversed $143 $-1 #
vertex $-1 $343 $436 #
straight-curve $-1 56.339609973448901 11.039590602592424 1.0848200245158992 0 1 0 I I #
coedge $-1 $437 $242 $245 $352 forward $339 $-1 #
coedge $-1 $242 $437 $342 $432 forward $339 $-1 #
vertex $-1 $243 $438 #
straight-curve $-1 43.372749525635278 15.008670838853583 11.201729982305878 1 0 0 I I #
straight-curve $-1 -6.6698088406772911 15.008670838853583 94.500127916463754 -0.55919289150049634 0 0.82903758062907751 I I #
edge $-1 $246 15.008670838853583 $439 29.149691571516119 $245 $440 forward 7 unknown #
point $-1 56.339609973448901 15.008670838853583 11.201729982305878 #
point $-1 56.339609973448901 15.008670838853583 1.0848200245158921 #
edge $-1 $441 1 $441 0 $249 $-1 forward 7 unknown #
vertex $-1 $250 $442 #
ellipse-curve $-1 50.340157340170087 17.836874985386086 4.3979965638841678 0.82903758062907751 0 0.55919289150049634 0.55919289150049634 0 -0.82903758062907751 1 I I #
point $-1 53.48683200588777 17.836874985386086 5.314237422781833 #
edge $-1 $443 1 $443 0 $253 $-1 forward 7 unknown #
vertex $-1 $254 $444 #
ellipse-curve $-1 50.340157340170087 22.079181205184849 4.3979965638841678 0.82903758062907751 0 0.55919289150049634 0.55919289150049634 0 -0.82903758062907751 1 I I #
point $-1 53.48683200588777 22.079181205184849 5.314237422781833 #
edge $-1 $445 1 $445 0 $257 $-1 forward 7 unknown #
vertex $-1 $258 $446 #
ellipse-curve $-1 50.340157340170087 26.321487424983612 4.3979965638841678 0.82903758062907751 0 0.55919289150049634 0.55919289150049634 0 -0.82903758062907751 1 I I #
point $-1 53.48683200588777 26.321487424983612 5.314237422781833 #
loop $-1 $-1 $268 $261 #
plane-surface $-1 -56.339609973448901 0 0 1 0 0 0 0 -1 forward_v I I I I #
coedge $-1 $447 $448 $265 $371 forward $262 $-1 #
coedge $-1 $265 $264 $376 $449 reversed $108 $-1 #
edge $-1 $373 3.0994781636236124 $450 15.302676419260216 $369 $451 forward 7 unknown #
coedge $-1 $271 $266 $448 $452 forward $172 $-1 #
vertex $-1 $452 $453 #
straight-curve $-1 -49.515668255325657 11.039590602592424 11.201729982305878 0 1 0 I I #
coedge $-1 $454 $268 $271 $380 reversed $367 $-1 #
coedge $-1 $268 $454 $370 $449 forward $367 $-1 #
vertex $-1 $269 $455 #
straight-curve $-1 -56.339609973448901 15.008670838853583 32.047119419321056 0 0 1 I I #
straight-curve $-1 -56.339609973448901 15.008670838853583 1.0848200245159276 -0.55919289150049634 0 -0.82903758062907751 I I #
edge $-1 $456 -29.149691571516119 $272 -15.008670838853583 $375 $457 forward 7 unknown #
point $-1 -56.339609973448901 15.008670838853583 11.201729982305878 #
point $-1 -49.515668255325657 15.008670838853583 11.201729982305878 #
edge $-1 $458 1 $458 0 $275 $-1 forward 7 unknown #
vertex $-1 $276 $459 #
ellipse-curve $-1 -50.340157340170094 17.836874985386086 4.3979965638841643 -0.82903758062907751 0 0.55919289150049634 0.55919289150049634 0 0.82903758062907751 1 I I #
point $-1 -52.368446222886782 17.836874985386086 6.972312584039984 #
edge $-1 $460 1 $460 0 $279 $-1 forward 7 unknown #
vertex $-1 $280 $461 #
ellipse-curve $-1 -50.340157340170094 22.079181205184849 4.3979965638841643 -0.82903758062907751 0 0.55919289150049634 0.55919289150049634 0 0.82903758062907751 1 I I #
point $-1 -52.368446222886782 22.079181205184849 6.972312584039984 #
edge $-1 $462 1 $462 0 $283 $-1 forward 7 unknown #
vertex $-1 $284 $463 #
ellipse-curve $-1 -50.340157340170094 26.321487424983612 4.3979965638841643 -0.82903758062907751 0 0.55919289150049634 0.55919289150049634 0 0.82903758062907751 1 I I #
point $-1 -52.368446222886782 26.321487424983612 6.972312584039984 #
plane-surface $-1 56.339609973448901 0 0 -1 0 0 0 0 1 forward_v I I I I #
coedge $-1 $292 $290 $294 $400 reversed $201 $-1 #
edge $-1 $305 -11.201729982305878 $402 11.201729982305878 $304 $464 forward 7 unknown #
vertex $-1 $400 $465 #
straight-curve $-1 -56.339609973448901 -29.149691571516119 0 0 0 -1 I I #
edge $-1 $398 -29.149691571516119 $402 29.149691571516119 $396 $466 forward 7 unknown #
straight-curve $-1 0 -29.149691571516119 -11.201729982305878 -1 0 0 I I #
vertex $-1 $297 $467 #
straight-curve $-1 0 29.149691571516119 -11.201729982305878 1 0 0 I I #
point $-1 56.339609973448901 29.149691571516119 -11.201729982305878 #
point $-1 56.339609973448901 -29.149691571516119 -11.201729982305878 #
straight-curve $-1 -56.339609973448901 0 11.201729982305878 0 -1 0 I I #
point $-1 -56.339609973448901 29.149691571516119 11.201729982305878 #
point $-1 -56.339609973448901 -29.149691571516119 11.201729982305878 #
straight-curve $-1 56.339609973448901 -29.149691571516119 0 0 0 -1 I I #
straight-curve $-1 56.339609973448901 29.149691571516119 0 0 0 -1 I I #
loop $-1 $-1 $320 $314 #
plane-surface $-1 0 -29.149691571516119 0 0 1 0 0 0 1 forward_v I I I I #
coedge $-1 $331 $322 $318 $415 forward $315 $-1 #
edge $-1 $419 -16.719718802062111 $326 -8.1402267368459036 $317 $468 forward 7 unknown #
edge $-1 $327 8.1402267368459036 $418 16.719718802062111 $413 $469 forward 7 unknown #
coedge $-1 $329 $320 $334 $428 reversed $411 $-1 #
coedge $-1 $320 $329 $331 $426 reversed $411 $-1 #
vertex $-1 $426 $470 #
vertex $-1 $321 $471 #
straight-curve $-1 -33.936150008837146 -29.149691571516119 0 0 0 1 I I #
straight-curve $-1 -17.718075004418573 -20.570199506299911 -11.201729982305878 1 0 0 I I #
straight-curve $-1 -17.718075004418573 -20.570199506299911 11.201729982305878 -1 0 0 I I #
point $-1 -33.936150008837146 -20.570199506299911 11.201729982305878 #
point $-1 -33.936150008837146 -20.570199506299911 -11.201729982305878 #
straight-curve $-1 -36.936150008837146 -29.149691571516119 0 0 0 -1 I I #
edge $-1 $418 33.936150008837146 $332 36.936150008837146 $417 $472 forward 7 unknown #
point $-1 -36.936150008837146 -29.149691571516119 -11.201729982305878 #
edge $-1 $335 -36.936150008837146 $419 -33.936150008837146 $416 $473 forward 7 unknown #
point $-1 -36.936150008837146 -29.149691571516119 11.201729982305878 #
coedge $-1 $431 $341 $437 $474 reversed $236 $-1 #
coedge $-1 $341 $430 $344 $435 forward $236 $-1 #
edge $-1 $433 -18.110100968923689 $349 -3.9690802362611581 $348 $475 forward 7 unknown #
vertex $-1 $343 $476 #
straight-curve $-1 16.277752691803219 29.149691571516119 60.478967806262958 -0.55919289150049634 0 0.82903758062907751 I I #
edge $-1 $439 -11.201729982305878 $345 -1.0848200245158968 $344 $477 forward 7 unknown #
point $-1 56.339609973448901 29.149691571516119 1.0848200245158968 #
coedge $-1 $348 $347 $430 $474 forward $339 $-1 #
point $-1 49.515668255325629 15.008670838853583 11.201729982305878 #
vertex $-1 $352 $478 #
straight-curve $-1 56.339609973448901 0 11.201729982305878 0 1 0 I I #
vertex $-1 $355 $479 #
point $-1 50.899350231670581 17.836874985386086 3.5689589832550905 #
vertex $-1 $359 $480 #
point $-1 50.899350231670581 22.079181205184849 3.5689589832550905 #
vertex $-1 $363 $481 #
point $-1 50.899350231670581 26.321487424983612 3.5689589832550905 #
coedge $-1 $448 $369 $454 $482 reversed $262 $-1 #
coedge $-1 $369 $447 $372 $452 reversed $262 $-1 #
edge $-1 $450 -18.110100968923689 $377 -3.9690802362611581 $376 $483 forward 7 unknown #
vertex $-1 $371 $484 #
straight-curve $-1 -47.782462098866318 29.149691571516119 13.771313860289052 -0.55919289150049634 0 -0.82903758062907751 I I #
edge $-1 $373 49.515668255325657 $456 56.339609973448901 $448 $485 forward 7 unknown #
point $-1 -49.515668255325657 29.149691571516115 11.201729982305878 #
coedge $-1 $376 $375 $447 $482 forward $367 $-1 #
point $-1 -56.339609973448901 15.008670838853583 1.0848200245159276 #
vertex $-1 $452 $486 #
straight-curve $-1 -56.339609973448901 0 11.201729982305878 0 -1 0 I I #
vertex $-1 $383 $487 #
point $-1 -49.7809644486696 17.836874985386086 5.227034144513242 #
vertex $-1 $387 $488 #
point $-1 -49.7809644486696 22.079181205184849 5.227034144513242 #
vertex $-1 $391 $489 #
point $-1 -49.7809644486696 26.321487424983612 5.227034144513242 #
straight-curve $-1 -56.339609973448901 29.149691571516119 0 0 0 -1 I I #
point $-1 -56.339609973448901 -29.149691571516119 -11.201729982305878 #
straight-curve $-1 -56.339609973448901 0 -11.201729982305878 0 1 0 I I #
point $-1 -56.339609973448901 29.149691571516119 -11.201729982305878 #
straight-curve $-1 -33.936150008837146 -12.429972769454007 11.201729982305878 0 1 0 I I #
straight-curve $-1 -33.936150008837146 -12.429972769454007 -11.201729982305878 0 -1 0 I I #
point $-1 -33.936150008837146 -29.149691571516119 -11.201729982305878 #
point $-1 -33.936150008837146 -29.149691571516119 11.201729982305878 #
straight-curve $-1 0 -29.149691571516119 -11.201729982305878 -1 0 0 I I #
straight-curve $-1 0 -29.149691571516119 11.201729982305878 1 0 0 I I #
edge $-1 $439 -56.339609973448901 $433 -49.515668255325629 $430 $490 forward 7 unknown #
straight-curve $-1 49.515668255325636 11.039590602592424 11.201729982305878 0 -1 0 I I #
point $-1 49.515668255325629 29.149691571516115 11.201729982305878 #
straight-curve $-1 56.339609973448901 29.149691571516119 0 0 0 -1 I I #
point $-1 56.339609973448901 29.149691571516119 11.201729982305878 #
point $-1 49.51111975954101 17.836874985386086 3.8388036723836718 #
point $-1 49.51111975954101 22.079181205184849 3.8388036723836718 #
point $-1 49.51111975954101 26.321487424983612 3.8388036723836718 #
edge $-1 $456 -11.201729982305878 $450 -1.0848200245159276 $447 $491 forward 7 unknown #
straight-curve $-1 -56.339609973448901 11.039590602592424 1.0848200245159276 0 -1 0 I I #
point $-1 -56.339609973448901 29.149691571516115 1.0848200245159276 #
straight-curve $-1 0 29.149691571516119 11.201729982305878 -1 0 0 I I #
point $-1 -56.339609973448901 29.149691571516119 11.201729982305878 #
point $-1 -49.511119759541018 17.836874985386086 3.8388036723836683 #
point $-1 -49.511119759541018 22.079181205184849 3.8388036723836683 #
point $-1 -49.511119759541018 26.321487424983612 3.8388036723836683 #
straight-curve $-1 0 29.149691571516119 11.201729982305878 -1 0 0 I I #
straight-curve $-1 -56.339609973448901 29.149691571516119 0 0 0 -1 I I #
End-of-ACIS-data 