500 0 8 0           
7 Unknown 11 ACIS 5.0 NT 24 Thu Mar 25 21:44:04 1999 
-1 9.9999999999999995e-007 1e-010 
body $-1 $8 $-1 $9 #
body $-1 $10 $-1 $11 #
body $-1 $12 $-1 $13 #
body $-1 $14 $-1 $15 #
body $-1 $16 $-1 $17 #
body $-1 $18 $-1 $19 #
body $-1 $20 $-1 $21 #
body $-1 $22 $-1 $23 #
lump $-1 $-1 $24 $0 #
transform $-1 1 0 0 0 1 0 0 0 1 49.405804620502337 20.804055006937013 7.8165520922545149 1 rotate no_reflect no_shear #
lump $-1 $-1 $25 $1 #
transform $-1 1 0 0 0 1 0 0 0 1 49.405804620502337 20.804055006937013 7.8165520922545149 1 rotate no_reflect no_shear #
lump $-1 $-1 $26 $2 #
transform $-1 1 0 0 0 1 0 0 0 1 49.405804620502337 20.804055006937013 7.8165520922545149 1 rotate no_reflect no_shear #
lump $-1 $-1 $27 $3 #
transform $-1 1 0 0 0 1 0 0 0 1 49.405804620502337 20.804055006937013 7.8165520922545149 1 rotate no_reflect no_shear #
lump $-1 $-1 $28 $4 #
transform $-1 1 0 0 0 1 0 0 0 1 49.405804620502337 20.804055006937013 7.8165520922545149 1 rotate no_reflect no_shear #
lump $-1 $-1 $29 $5 #
transform $-1 1 0 0 0 1 0 0 0 1 49.405804620502337 20.804055006937013 7.8165520922545149 1 rotate no_reflect no_shear #
lump $-1 $-1 $30 $6 #
transform $-1 1 0 0 0 1 0 0 0 1 49.405804620502337 20.804055006937013 7.8165520922545149 1 rotate no_reflect no_shear #
lump $-1 $-1 $31 $7 #
transform $-1 1 0 0 0 1 0 0 0 1 49.405804620502337 20.804055006937013 7.8165520922545149 1 rotate no_reflect no_shear #
shell $-1 $-1 $-1 $32 $-1 $8 #
shell $-1 $-1 $-1 $33 $-1 $10 #
shell $-1 $-1 $-1 $34 $-1 $12 #
shell $-1 $-1 $-1 $35 $-1 $14 #
shell $-1 $-1 $-1 $36 $-1 $16 #
shell $-1 $-1 $-1 $37 $-1 $18 #
shell $-1 $-1 $-1 $38 $-1 $20 #
shell $-1 $-1 $-1 $39 $-1 $22 #
face $-1 $40 $41 $24 $-1 $42 forward single #
face $-1 $43 $44 $25 $-1 $45 forward single #
face $-1 $46 $47 $26 $-1 $48 reversed single #
face $-1 $49 $50 $27 $-1 $51 forward single #
face $-1 $52 $53 $28 $-1 $54 forward single #
face $-1 $55 $56 $29 $-1 $57 reversed single #
face $-1 $58 $59 $30 $-1 $60 forward single #
face $-1 $61 $62 $31 $-1 $63 forward single #
face $-1 $64 $65 $24 $-1 $66 reversed single #
loop $-1 $-1 $67 $32 #
plane-surface $-1 0 0 7.8165520922545149 0 0 1 1 0 0 forward_v I I I I #
face $-1 $68 $69 $25 $-1 $70 reversed single #
loop $-1 $-1 $71 $33 #
plane-surface $-1 0 -16.372830705045104 0.058461152353620705 0 0 1 1 0 0 forward_v I I I I #
face $-1 $72 $73 $26 $-1 $74 reversed single #
loop $-1 $-1 $75 $34 #
plane-surface $-1 -11.501433687709948 56.001076455646221 104.60068654916546 1 0 0 0 -0.66913061440640931 -0.74314481823134659 forward_v I I I I #
face $-1 $76 $77 $27 $-1 $78 forward single #
loop $-1 $79 $80 $35 #
cone-surface $-1 -8.2153097769356762 17.693312058557574 4.8856604228228928 0 -0.66913061440640931 -0.74314481823134659 1 0 0 1 I I 0 1 1 forward I I I I #
face $-1 $81 $82 $28 $-1 $83 forward single #
loop $-1 $84 $85 $36 #
cone-surface $-1 -3.2861239107742719 17.693312058557574 4.8856604228228928 0 -0.66913061440640931 -0.74314481823134659 1 0 0 1 I I 0 1 1 forward I I I I #
face $-1 $86 $87 $29 $-1 $88 reversed single #
loop $-1 $-1 $89 $37 #
plane-surface $-1 -5.7507168438549741 -10.116796346273269 31.169351160612194 0 0.66913061440640931 0.74314481823134659 1 0 0 forward_v I I I I #
face $-1 $90 $91 $30 $-1 $92 forward single #
loop $-1 $93 $94 $38 #
cone-surface $-1 3.2861239107742719 17.693312058557574 4.8856604228228928 0 -0.66913061440640931 -0.74314481823134659 1 0 0 1 I I 0 1 1 forward I I I I #
face $-1 $95 $96 $31 $-1 $97 forward single #
loop $-1 $98 $99 $39 #
cone-surface $-1 8.2153097769356762 17.693312058557574 4.8856604228228928 0 -0.66913061440640931 -0.74314481823134659 1 0 0 1 I I 0 1 1 forward I I I I #
face $-1 $100 $101 $24 $-1 $102 reversed single #
loop $-1 $-1 $103 $40 #
plane-surface $-1 0 0 -7.8165520922545149 0 0 1 1 0 0 forward_v I I I I #
coedge $-1 $104 $105 $106 $107 forward $41 $-1 #
face $-1 $108 $109 $25 $-1 $110 reversed single #
loop $-1 $-1 $111 $43 #
plane-surface $-1 0 -16.372830705045104 -3.2987416497074378 0 0 1 1 0 0 forward_v I I I I #
coedge $-1 $112 $113 $114 $115 reversed $44 $-1 #
face $-1 $116 $117 $26 $-1 $118 reversed single #
loop $-1 $-1 $119 $46 #
plane-surface $-1 -5.7507168438549741 -10.116796346273269 31.169351160612194 0 0.66913061440640931 0.74314481823134659 1 0 0 forward_v I I I I #
coedge $-1 $120 $121 $122 $123 reversed $47 $-1 #
face $-1 $-1 $124 $27 $-1 $125 forward single #
loop $-1 $126 $127 $49 #
cone-surface $-1 -8.2153097769356762 16.740474311183597 3.8274269190332681 0 -0.66913061440640931 -0.74314481823134659 0.5 0 0 1 I I -0.70710678118654746 0.70710678118654746 0.5 forward I I I I #
loop $-1 $-1 $128 $35 #
coedge $-1 $80 $80 $129 $130 reversed $50 $-1 #
face $-1 $-1 $131 $28 $-1 $132 forward single #
loop $-1 $133 $134 $52 #
cone-surface $-1 -3.2861239107742719 16.740474311183597 3.8274269190332681 0 -0.66913061440640931 -0.74314481823134659 0.5 0 0 1 I I -0.70710678118654746 0.70710678118654746 0.5 forward I I I I #
loop $-1 $-1 $135 $36 #
coedge $-1 $85 $85 $136 $137 reversed $53 $-1 #
face $-1 $138 $139 $29 $-1 $140 forward single #
loop $-1 $-1 $141 $55 #
plane-surface $-1 11.501433687709948 56.001076455646221 104.60068654916546 -1 0 0 0 0.66913061440640931 0.74314481823134659 forward_v I I I I #
coedge $-1 $142 $143 $144 $145 reversed $56 $-1 #
face $-1 $-1 $146 $30 $-1 $147 forward single #
loop $-1 $148 $149 $58 #
cone-surface $-1 3.2861239107742719 16.740474311183597 3.8274269190332681 0 -0.66913061440640931 -0.74314481823134659 0.5 0 0 1 I I -0.70710678118654746 0.70710678118654746 0.5 forward I I I I #
loop $-1 $-1 $150 $38 #
coedge $-1 $94 $94 $151 $152 reversed $59 $-1 #
face $-1 $-1 $153 $31 $-1 $154 forward single #
loop $-1 $155 $156 $61 #
cone-surface $-1 8.2153097769356762 16.740474311183597 3.8274269190332681 0 -0.66913061440640931 -0.74314481823134659 0.5 0 0 1 I I -0.70710678118654746 0.70710678118654746 0.5 forward I I I I #
loop $-1 $-1 $157 $39 #
coedge $-1 $99 $99 $158 $159 reversed $62 $-1 #
face $-1 $160 $161 $24 $-1 $162 reversed single #
loop $-1 $-1 $163 $64 #
plane-surface $-1 0 -20.804055006937013 0 0 1 0 0 0 1 forward_v I I I I #
coedge $-1 $164 $165 $166 $167 forward $65 $-1 #
coedge $-1 $168 $67 $169 $170 forward $41 $-1 #
coedge $-1 $67 $168 $171 $172 forward $41 $-1 #
coedge $-1 $173 $174 $67 $107 reversed $175 $-1 #
edge $-1 $176 -20.804055006937013 $177 20.804055006937013 $106 $178 forward 7 unknown #
face $-1 $179 $180 $25 $-1 $181 reversed single #
loop $-1 $-1 $182 $68 #
plane-surface $-1 0 -11.941606403153195 -1.6201402486769085 0 -1 0 0 0 -1 forward_v I I I I #
coedge $-1 $183 $184 $185 $186 reversed $69 $-1 #
coedge $-1 $187 $71 $188 $189 forward $44 $-1 #
coedge $-1 $71 $187 $190 $191 reversed $44 $-1 #
coedge $-1 $192 $193 $71 $115 forward $194 $-1 #
edge $-1 $195 3.7551910506306427 $196 12.617639654414461 $114 $197 forward 7 unknown #
face $-1 $198 $199 $26 $-1 $200 reversed single #
loop $-1 $-1 $201 $72 #
plane-surface $-1 0 56.001076455646221 104.60068654916546 -1 0 0 0 0.66913061440640931 0.74314481823134659 forward_v I I I I #
coedge $-1 $202 $203 $204 $205 reversed $73 $-1 #
coedge $-1 $121 $75 $206 $207 reversed $47 $-1 #
coedge $-1 $75 $120 $202 $208 reversed $47 $-1 #
coedge $-1 $204 $209 $75 $123 forward $210 $-1 #
edge $-1 $211 7.1964832208860976 $212 12.181424237303403 $122 $213 forward 7 unknown #
loop $-1 $-1 $129 $76 #
plane-surface $-1 -5.7507168438549741 -10.116796346273269 31.169351160612194 0 0.66913061440640931 0.74314481823134659 1 0 0 forward_v I I I I #
loop $-1 $-1 $214 $49 #
coedge $-1 $127 $127 $128 $215 reversed $77 $-1 #
coedge $-1 $128 $128 $127 $215 forward $79 $-1 #
coedge $-1 $129 $129 $80 $130 forward $124 $-1 #
edge $-1 $216 -1.0518050974175316e-015 $216 6.2831853071795996 $129 $217 forward 7 unknown #
loop $-1 $-1 $136 $81 #
plane-surface $-1 -5.7507168438549741 -10.116796346273269 31.169351160612194 0 0.66913061440640931 0.74314481823134659 1 0 0 forward_v I I I I #
loop $-1 $-1 $218 $52 #
coedge $-1 $134 $134 $135 $219 reversed $82 $-1 #
coedge $-1 $135 $135 $134 $219 forward $84 $-1 #
coedge $-1 $136 $136 $85 $137 forward $131 $-1 #
edge $-1 $220 -1.0518050974175316e-015 $220 6.2831853071795996 $136 $221 forward 7 unknown #
face $-1 $222 $223 $29 $-1 $224 forward single #
loop $-1 $-1 $225 $86 #
plane-surface $-1 0 0 7.8165520922545149 0 0 1 1 0 0 forward_v I I I I #
coedge $-1 $226 $227 $228 $229 reversed $87 $-1 #
coedge $-1 $230 $89 $231 $232 reversed $56 $-1 #
coedge $-1 $89 $230 $225 $233 reversed $56 $-1 #
coedge $-1 $234 $235 $89 $145 forward $223 $-1 #
edge $-1 $236 -41.608110013874011 $237 -34.900210161620116 $144 $238 forward 7 unknown #
loop $-1 $-1 $151 $90 #
plane-surface $-1 -5.7507168438549741 -10.116796346273269 31.169351160612194 0 0.66913061440640931 0.74314481823134659 1 0 0 forward_v I I I I #
loop $-1 $-1 $239 $58 #
coedge $-1 $149 $149 $150 $240 reversed $91 $-1 #
coedge $-1 $150 $150 $149 $240 forward $93 $-1 #
coedge $-1 $151 $151 $94 $152 forward $146 $-1 #
edge $-1 $241 -1.0518050974175316e-015 $241 6.2831853071795996 $151 $242 forward 7 unknown #
loop $-1 $-1 $158 $95 #
plane-surface $-1 -5.7507168438549741 -10.116796346273269 31.169351160612194 0 0.66913061440640931 0.74314481823134659 1 0 0 forward_v I I I I #
loop $-1 $-1 $243 $61 #
coedge $-1 $156 $156 $157 $244 reversed $96 $-1 #
coedge $-1 $157 $157 $156 $244 forward $98 $-1 #
coedge $-1 $158 $158 $99 $159 forward $153 $-1 #
edge $-1 $245 -1.0518050974175316e-015 $245 6.2831853071795996 $158 $246 forward 7 unknown #
face $-1 $247 $248 $24 $-1 $249 reversed single #
loop $-1 $-1 $250 $100 #
plane-surface $-1 -49.405804620502337 0 0 1 0 0 0 0 -1 forward_v I I I I #
coedge $-1 $251 $171 $252 $253 forward $101 $-1 #
coedge $-1 $254 $103 $251 $255 forward $65 $-1 #
coedge $-1 $103 $254 $256 $257 forward $65 $-1 #
coedge $-1 $174 $173 $103 $167 reversed $175 $-1 #
edge $-1 $258 -20.804055006937013 $259 20.804055006937013 $166 $260 forward 7 unknown #
coedge $-1 $105 $104 $261 $262 forward $41 $-1 #
coedge $-1 $263 $264 $104 $170 reversed $248 $-1 #
edge $-1 $177 -49.405804620502337 $265 49.405804620502337 $169 $266 forward 7 unknown #
coedge $-1 $163 $267 $105 $172 reversed $101 $-1 #
edge $-1 $268 -49.405804620502337 $176 49.405804620502337 $171 $269 forward 7 unknown #
coedge $-1 $166 $106 $267 $270 forward $175 $-1 #
coedge $-1 $106 $166 $263 $271 reversed $175 $-1 #
loop $-1 $-1 $173 $247 #
vertex $-1 $107 $272 #
vertex $-1 $107 $273 #
straight-curve $-1 49.405804620502337 0 7.8165520922545149 0 1 0 I I #
face $-1 $274 $275 $25 $-1 $276 reversed single #
loop $-1 $-1 $277 $108 #
plane-surface $-1 -49.405804620502337 0 0 1 0 0 0 0 -1 forward_v I I I I #
coedge $-1 $278 $188 $193 $279 reversed $109 $-1 #
coedge $-1 $280 $111 $281 $282 reversed $69 $-1 #
coedge $-1 $111 $280 $278 $283 forward $69 $-1 #
coedge $-1 $193 $192 $111 $186 forward $194 $-1 #
edge $-1 $284 -12.617639654414461 $285 -3.7551910506306427 $185 $286 forward 7 unknown #
coedge $-1 $113 $112 $277 $287 reversed $44 $-1 #
coedge $-1 $182 $288 $112 $189 reversed $109 $-1 #
edge $-1 $195 -49.405804620502337 $289 49.405804620502337 $188 $290 forward 7 unknown #
coedge $-1 $291 $292 $113 $191 forward $275 $-1 #
edge $-1 $196 -49.405804620502337 $293 49.405804620502337 $190 $294 forward 7 unknown #
coedge $-1 $185 $114 $292 $295 forward $194 $-1 #
coedge $-1 $114 $185 $182 $279 forward $194 $-1 #
loop $-1 $-1 $114 $274 #
vertex $-1 $115 $296 #
vertex $-1 $295 $297 #
straight-curve $-1 49.405804620502337 -8.1864153525225518 0.058461152353620705 0 -1 0 I I #
face $-1 $-1 $210 $26 $-1 $298 forward single #
loop $-1 $-1 $299 $116 #
plane-surface $-1 0 20.804055006937013 0 0 -1 0 0 0 -1 forward_v I I I I #
coedge $-1 $300 $301 $302 $303 reversed $117 $-1 #
coedge $-1 $304 $119 $121 $208 forward $73 $-1 #
coedge $-1 $119 $304 $300 $305 forward $73 $-1 #
coedge $-1 $302 $122 $119 $205 forward $210 $-1 #
edge $-1 $212 -8.6260752657824611 $306 2.875358421927487 $204 $307 forward 7 unknown #
coedge $-1 $308 $309 $120 $207 forward $199 $-1 #
edge $-1 $310 -48.972252331843528 $211 -44.483791182328218 $206 $311 forward 7 unknown #
edge $-1 $212 34.900210161620116 $310 41.608110013874011 $121 $312 forward 7 unknown #
coedge $-1 $122 $302 $308 $313 forward $210 $-1 #
loop $-1 $-1 $302 $198 #
vertex $-1 $207 $314 #
vertex $-1 $123 $315 #
straight-curve $-1 -11.501433687709948 28.00053822782311 7.8165520922545113 0 -1 0 I I #
coedge $-1 $214 $214 $-1 $316 reversed $126 $-1 #
edge $-1 $317 0 $317 6.2831853071796004 $127 $318 forward 7 unknown #
vertex $-1 $130 $319 #
ellipse-curve $-1 -8.2153097769356762 18.311584498728358 5.5723215174968592 0 0.66913061440640931 0.74314481823134659 1 0 0 1 I I #
coedge $-1 $218 $218 $-1 $320 reversed $133 $-1 #
edge $-1 $321 0 $321 6.2831853071796004 $134 $322 forward 7 unknown #
vertex $-1 $137 $323 #
ellipse-curve $-1 -3.2861239107742719 18.311584498728358 5.5723215174968592 0 0.66913061440640931 0.74314481823134659 1 0 0 1 I I #
face $-1 $-1 $324 $29 $-1 $325 reversed single #
loop $-1 $-1 $234 $138 #
plane-surface $-1 0 56.001076455646221 104.60068654916546 -1 0 0 0 0.66913061440640931 0.74314481823134659 forward_v I I I I #
coedge $-1 $228 $326 $143 $233 forward $139 $-1 #
coedge $-1 $227 $141 $230 $327 reversed $87 $-1 #
coedge $-1 $141 $226 $328 $329 reversed $87 $-1 #
coedge $-1 $330 $225 $141 $229 forward $139 $-1 #
edge $-1 $331 -12.181424237303403 $332 -7.1964832208860976 $228 $333 forward 7 unknown #
coedge $-1 $143 $142 $226 $327 forward $56 $-1 #
coedge $-1 $334 $328 $142 $232 forward $324 $-1 #
edge $-1 $335 -14.376792109637435 $236 -2.875358421927487 $231 $336 forward 7 unknown #
edge $-1 $237 2.875358421927487 $331 14.376792109637435 $225 $337 forward 7 unknown #
coedge $-1 $235 $144 $326 $338 reversed $223 $-1 #
coedge $-1 $144 $234 $334 $339 reversed $223 $-1 #
vertex $-1 $232 $340 #
vertex $-1 $233 $341 #
straight-curve $-1 0 -10.116796346273269 31.169351160612194 0 -0.74314481823134659 0.66913061440640931 I I #
coedge $-1 $239 $239 $-1 $342 reversed $148 $-1 #
edge $-1 $343 0 $343 6.2831853071796004 $149 $344 forward 7 unknown #
vertex $-1 $152 $345 #
ellipse-curve $-1 3.2861239107742719 18.311584498728358 5.5723215174968592 0 0.66913061440640931 0.74314481823134659 1 0 0 1 I I #
coedge $-1 $243 $243 $-1 $346 reversed $155 $-1 #
edge $-1 $347 0 $347 6.2831853071796004 $156 $348 forward 7 unknown #
vertex $-1 $159 $349 #
ellipse-curve $-1 8.2153097769356762 18.311584498728358 5.5723215174968592 0 0.66913061440640931 0.74314481823134659 1 0 0 1 I I #
face $-1 $-1 $175 $24 $-1 $350 reversed single #
loop $-1 $-1 $263 $160 #
plane-surface $-1 0 20.804055006937013 0 0 -1 0 0 0 -1 forward_v I I I I #
coedge $-1 $351 $261 $264 $352 forward $161 $-1 #
coedge $-1 $267 $163 $164 $255 reversed $101 $-1 #
coedge $-1 $261 $351 $163 $253 reversed $161 $-1 #
edge $-1 $268 -7.8165520922545149 $353 7.8165520922545149 $252 $354 forward 7 unknown #
coedge $-1 $165 $164 $351 $355 forward $65 $-1 #
edge $-1 $259 -49.405804620502337 $353 49.405804620502337 $251 $356 forward 7 unknown #
coedge $-1 $264 $263 $165 $257 reversed $248 $-1 #
edge $-1 $357 -49.405804620502337 $258 49.405804620502337 $256 $358 forward 7 unknown #
vertex $-1 $167 $359 #
vertex $-1 $270 $360 #
straight-curve $-1 49.405804620502337 0 -7.8165520922545149 0 -1 0 I I #
coedge $-1 $250 $252 $168 $262 reversed $161 $-1 #
edge $-1 $265 -20.804055006937013 $268 20.804055006937013 $261 $361 forward 7 unknown #
coedge $-1 $256 $169 $174 $271 forward $248 $-1 #
coedge $-1 $169 $256 $250 $352 reversed $248 $-1 #
vertex $-1 $170 $362 #
straight-curve $-1 0 20.804055006937013 7.8165520922545149 -1 0 0 I I #
coedge $-1 $171 $251 $173 $270 reversed $101 $-1 #
vertex $-1 $262 $363 #
straight-curve $-1 0 -20.804055006937013 7.8165520922545149 1 0 0 I I #
edge $-1 $176 -7.8165520922545149 $259 7.8165520922545149 $173 $364 forward 7 unknown #
edge $-1 $177 -7.8165520922545149 $258 7.8165520922545149 $174 $365 forward 7 unknown #
point $-1 49.405804620502337 -20.804055006937013 7.8165520922545149 #
point $-1 49.405804620502337 20.804055006937013 7.8165520922545149 #
face $-1 $-1 $194 $25 $-1 $366 reversed single #
loop $-1 $-1 $190 $179 #
plane-surface $-1 0 -20.804055006937013 0 0 1 0 0 0 1 forward_v I I I I #
coedge $-1 $367 $368 $187 $287 forward $180 $-1 #
coedge $-1 $288 $182 $184 $283 reversed $109 $-1 #
edge $-1 $285 -2.4886715253689835 $195 0.86853127669207497 $193 $369 forward 7 unknown #
coedge $-1 $184 $183 $370 $371 reversed $69 $-1 #
coedge $-1 $292 $291 $183 $282 forward $275 $-1 #
edge $-1 $372 -49.405804620502337 $284 49.405804620502337 $281 $373 forward 7 unknown #
edge $-1 $374 -49.405804620502337 $285 49.405804620502337 $278 $375 forward 7 unknown #
vertex $-1 $282 $376 #
vertex $-1 $186 $377 #
straight-curve $-1 49.405804620502337 -8.1864153525225518 -3.2987416497074378 0 1 0 I I #
edge $-1 $293 -12.617639654414461 $289 -3.7551910506306427 $277 $378 forward 7 unknown #
coedge $-1 $188 $278 $367 $379 reversed $109 $-1 #
vertex $-1 $287 $380 #
straight-curve $-1 0 -11.941606403153195 0.058461152353620705 -1 0 0 I I #
coedge $-1 $281 $190 $368 $381 forward $275 $-1 #
coedge $-1 $190 $281 $192 $295 reversed $275 $-1 #
vertex $-1 $381 $382 #
straight-curve $-1 0 -20.804055006937013 0.058461152353620705 -1 0 0 I I #
edge $-1 $196 -0.058461152353620705 $284 3.2987416497074378 $192 $383 forward 7 unknown #
point $-1 49.405804620502337 -11.941606403153195 0.058461152353620705 #
point $-1 49.405804620502337 -20.804055006937013 0.058461152353620705 #
plane-surface $-1 0 0 7.8165520922545149 0 0 1 1 0 0 forward_v I I I I #
coedge $-1 $309 $308 $301 $384 forward $199 $-1 #
coedge $-1 $301 $201 $203 $305 reversed $117 $-1 #
coedge $-1 $201 $300 $299 $384 reversed $117 $-1 #
coedge $-1 $209 $204 $201 $303 forward $210 $-1 #
edge $-1 $306 -12.181424237303403 $385 -7.1964832208860976 $302 $386 forward 7 unknown #
coedge $-1 $203 $202 $309 $387 reversed $73 $-1 #
edge $-1 $388 -41.608110013874011 $306 -34.900210161620116 $300 $389 forward 7 unknown #
vertex $-1 $205 $390 #
straight-curve $-1 -2.875358421927487 15.819113990519707 7.8165520922545131 1 0 0 I I #
coedge $-1 $299 $206 $209 $313 reversed $199 $-1 #
coedge $-1 $206 $299 $304 $387 forward $199 $-1 #
vertex $-1 $207 $391 #
straight-curve $-1 -11.501433687709948 20.804055006937013 52.30034327458273 0 0 1 I I #
straight-curve $-1 -11.501433687709948 -10.116796346273269 31.169351160612194 0 0.74314481823134659 -0.66913061440640931 I I #
edge $-1 $385 0 $211 11.501433687709948 $308 $392 forward 7 unknown #
point $-1 -11.501433687709948 20.804055006937013 7.8165520922545149 #
point $-1 -11.501433687709948 15.819113990519707 7.8165520922545184 #
edge $-1 $393 1 $393 0 $214 $-1 forward 7 unknown #
vertex $-1 $215 $394 #
ellipse-curve $-1 -8.2153097769356762 17.075039618386803 4.1989993281489415 0 0.66913061440640931 0.74314481823134659 1 0 0 1 I I #
point $-1 -7.2153097769356762 18.311584498728344 5.572321517496845 #
edge $-1 $395 1 $395 0 $218 $-1 forward 7 unknown #
vertex $-1 $219 $396 #
ellipse-curve $-1 -3.2861239107742719 17.075039618386803 4.1989993281489415 0 0.66913061440640931 0.74314481823134659 1 0 0 1 I I #
point $-1 -2.2861239107742719 18.311584498728344 5.572321517496845 #
loop $-1 $-1 $231 $222 #
plane-surface $-1 0 20.804055006937013 0 0 -1 0 0 0 -1 forward_v I I I I #
coedge $-1 $225 $330 $234 $338 forward $139 $-1 #
edge $-1 $335 -41.608110013874011 $331 -34.900210161620116 $226 $397 forward 7 unknown #
coedge $-1 $231 $398 $227 $329 forward $324 $-1 #
edge $-1 $332 44.483791182328218 $335 48.972252331843528 $328 $399 forward 7 unknown #
coedge $-1 $326 $228 $398 $400 forward $139 $-1 #
vertex $-1 $229 $401 #
vertex $-1 $400 $402 #
straight-curve $-1 11.501433687709948 28.00053822782311 7.8165520922545113 0 1 0 I I #
coedge $-1 $398 $231 $235 $339 forward $324 $-1 #
vertex $-1 $329 $403 #
straight-curve $-1 -2.875358421927487 20.804055006937013 3.3280909427392018 -1 0 0 I I #
straight-curve $-1 -2.875358421927487 15.819113990519707 7.8165520922545131 1 0 0 I I #
edge $-1 $404 7.1964832208860976 $237 12.181424237303403 $326 $405 forward 7 unknown #
edge $-1 $236 -48.972252331843528 $404 -44.483791182328218 $334 $406 forward 7 unknown #
point $-1 0 20.804055006937009 3.3280909427392018 #
point $-1 0 15.819113990519707 7.8165520922545184 #
edge $-1 $407 1 $407 0 $239 $-1 forward 7 unknown #
vertex $-1 $240 $408 #
ellipse-curve $-1 3.2861239107742719 17.075039618386803 4.1989993281489415 0 0.66913061440640931 0.74314481823134659 1 0 0 1 I I #
point $-1 4.2861239107742719 18.311584498728344 5.572321517496845 #
edge $-1 $409 1 $409 0 $243 $-1 forward 7 unknown #
vertex $-1 $244 $410 #
ellipse-curve $-1 8.2153097769356762 17.075039618386803 4.1989993281489415 0 0.66913061440640931 0.74314481823134659 1 0 0 1 I I #
point $-1 9.2153097769356762 18.311584498728344 5.572321517496845 #
plane-surface $-1 49.405804620502337 0 0 -1 0 0 0 0 1 forward_v I I I I #
coedge $-1 $252 $250 $254 $355 reversed $161 $-1 #
edge $-1 $265 -7.8165520922545149 $357 7.8165520922545149 $264 $411 forward 7 unknown #
vertex $-1 $355 $412 #
straight-curve $-1 -49.405804620502337 -20.804055006937013 0 0 0 -1 I I #
edge $-1 $353 -20.804055006937013 $357 20.804055006937013 $351 $413 forward 7 unknown #
straight-curve $-1 0 -20.804055006937013 -7.8165520922545149 -1 0 0 I I #
vertex $-1 $257 $414 #
straight-curve $-1 0 20.804055006937013 -7.8165520922545149 1 0 0 I I #
point $-1 49.405804620502337 20.804055006937013 -7.8165520922545149 #
point $-1 49.405804620502337 -20.804055006937013 -7.8165520922545149 #
straight-curve $-1 -49.405804620502337 0 7.8165520922545149 0 -1 0 I I #
point $-1 -49.405804620502337 20.804055006937013 7.8165520922545149 #
point $-1 -49.405804620502337 -20.804055006937013 7.8165520922545149 #
straight-curve $-1 49.405804620502337 -20.804055006937013 0 0 0 -1 I I #
straight-curve $-1 49.405804620502337 20.804055006937013 0 0 0 -1 I I #
plane-surface $-1 49.405804620502337 0 0 -1 0 0 0 0 1 forward_v I I I I #
coedge $-1 $370 $277 $288 $379 forward $180 $-1 #
coedge $-1 $277 $370 $291 $381 reversed $180 $-1 #
straight-curve $-1 49.405804620502337 -11.941606403153195 -0.81007012433845427 0 0 1 I I #
coedge $-1 $368 $367 $280 $371 forward $180 $-1 #
edge $-1 $374 3.7551910506306427 $372 12.617639654414461 $370 $415 forward 7 unknown #
vertex $-1 $282 $416 #
straight-curve $-1 0 -20.804055006937013 -3.2987416497074378 1 0 0 I I #
vertex $-1 $371 $417 #
straight-curve $-1 0 -11.941606403153195 -3.2987416497074378 1 0 0 I I #
point $-1 49.405804620502337 -20.804055006937013 -3.2987416497074378 #
point $-1 49.405804620502337 -11.941606403153195 -3.2987416497074378 #
straight-curve $-1 -49.405804620502337 -8.1864153525225518 0.058461152353620705 0 1 0 I I #
edge $-1 $289 -0.86853127669207497 $374 2.4886715253689835 $367 $418 forward 7 unknown #
point $-1 -49.405804620502337 -11.941606403153195 0.058461152353620705 #
edge $-1 $293 -0.058461152353620705 $372 3.2987416497074378 $368 $419 forward 7 unknown #
point $-1 -49.405804620502337 -20.804055006937013 0.058461152353620705 #
straight-curve $-1 49.405804620502337 -20.804055006937013 0 0 0 -1 I I #
edge $-1 $385 44.483791182328218 $388 48.972252331843528 $299 $420 forward 7 unknown #
vertex $-1 $313 $421 #
straight-curve $-1 0 28.00053822782311 7.8165520922545113 0 1 0 I I #
edge $-1 $388 -2.875358421927487 $310 8.6260752657824611 $309 $422 forward 7 unknown #
vertex $-1 $387 $423 #
straight-curve $-1 0 -10.116796346273269 31.169351160612194 0 -0.74314481823134659 0.66913061440640931 I I #
point $-1 0 15.819113990519707 7.8165520922545184 #
point $-1 -11.501433687709948 20.804055006937009 3.3280909427392018 #
straight-curve $-1 0 20.804055006937013 7.8165520922545149 -1 0 0 I I #
vertex $-1 $316 $424 #
point $-1 -7.2153097769356762 17.075039618386803 4.1989993281489415 #
vertex $-1 $320 $425 #
point $-1 -2.2861239107742719 17.075039618386803 4.1989993281489415 #
straight-curve $-1 11.501433687709948 -10.116796346273269 31.169351160612194 0 -0.74314481823134659 0.66913061440640931 I I #
coedge $-1 $328 $334 $330 $400 reversed $324 $-1 #
straight-curve $-1 11.501433687709948 20.804055006937013 52.30034327458273 0 0 -1 I I #
edge $-1 $332 -11.501433687709948 $404 0 $398 $426 forward 7 unknown #
point $-1 11.501433687709948 15.819113990519707 7.8165520922545184 #
point $-1 11.501433687709948 20.804055006937013 7.8165520922545149 #
point $-1 11.501433687709948 20.804055006937009 3.3280909427392018 #
vertex $-1 $339 $427 #
straight-curve $-1 0 28.00053822782311 7.8165520922545113 0 -1 0 I I #
straight-curve $-1 0 20.804055006937013 52.30034327458273 0 0 1 I I #
vertex $-1 $342 $428 #
point $-1 4.2861239107742719 17.075039618386803 4.1989993281489415 #
vertex $-1 $346 $429 #
point $-1 9.2153097769356762 17.075039618386803 4.1989993281489415 #
straight-curve $-1 -49.405804620502337 20.804055006937013 0 0 0 -1 I I #
point $-1 -49.405804620502337 -20.804055006937013 -7.8165520922545149 #
straight-curve $-1 -49.405804620502337 0 -7.8165520922545149 0 1 0 I I #
point $-1 -49.405804620502337 20.804055006937013 -7.8165520922545149 #
straight-curve $-1 -49.405804620502337 -8.1864153525225518 -3.2987416497074378 0 -1 0 I I #
point $-1 -49.405804620502337 -20.804055006937013 -3.2987416497074378 #
point $-1 -49.405804620502337 -11.941606403153195 -3.2987416497074378 #
straight-curve $-1 -49.405804620502337 -11.941606403153195 -0.81007012433845427 0 0 -1 I I #
straight-curve $-1 -49.405804620502337 -20.804055006937013 0 0 0 -1 I I #
straight-curve $-1 0 20.804055006937013 52.30034327458273 0 0 -1 I I #
point $-1 0 20.804055006937013 7.8165520922545149 #
straight-curve $-1 -2.875358421927487 20.804055006937013 3.3280909427392018 -1 0 0 I I #
point $-1 0 20.804055006937009 3.3280909427392018 #
point $-1 -8.2153097769356762 16.405909003980391 3.4558545099175948 #
point $-1 -3.2861239107742719 16.405909003980391 3.4558545099175948 #
straight-curve $-1 0 20.804055006937013 7.8165520922545149 -1 0 0 I I #
point $-1 0 20.804055006937013 7.8165520922545149 #
point $-1 3.2861239107742719 16.405909003980391 3.4558545099175948 #
point $-1 8.2153097769356762 16.405909003980391 3.4558545099175948 #
End-of-ACIS-data 