500 0 8 0           
7 Unknown 11 ACIS 5.0 NT 24 Fri Mar 26 15:07:44 1999 
-1 9.9999999999999995e-007 1e-010 
body $-1 $8 $-1 $9 #
body $-1 $10 $-1 $11 #
body $-1 $12 $-1 $13 #
body $-1 $14 $-1 $15 #
body $-1 $16 $-1 $17 #
body $-1 $18 $-1 $19 #
body $-1 $20 $-1 $21 #
body $-1 $22 $-1 $23 #
lump $-1 $-1 $24 $0 #
transform $-1 1 0 0 0 1 0 0 0 1 63.157444990386665 34.291638045105415 9.1025058561576557 1 rotate no_reflect no_shear #
lump $-1 $-1 $25 $1 #
transform $-1 1 0 0 0 1 0 0 0 1 63.157444990386665 34.291638045105415 9.1025058561576557 1 rotate no_reflect no_shear #
lump $-1 $-1 $26 $2 #
transform $-1 1 0 0 0 1 0 0 0 1 63.157444990386665 34.291638045105415 9.1025058561576557 1 rotate no_reflect no_shear #
lump $-1 $-1 $27 $3 #
transform $-1 1 0 0 0 1 0 0 0 1 63.157444990386665 34.291638045105415 9.1025058561576557 1 rotate no_reflect no_shear #
lump $-1 $-1 $28 $4 #
transform $-1 1 0 0 0 1 0 0 0 1 63.157444990386665 34.291638045105415 9.1025058561576557 1 rotate no_reflect no_shear #
lump $-1 $-1 $29 $5 #
transform $-1 1 0 0 0 1 0 0 0 1 63.157444990386665 34.291638045105415 9.1025058561576557 1 rotate no_reflect no_shear #
lump $-1 $-1 $30 $6 #
transform $-1 1 0 0 0 1 0 0 0 1 63.157444990386665 34.291638045105415 9.1025058561576557 1 rotate no_reflect no_shear #
lump $-1 $-1 $31 $7 #
transform $-1 1 0 0 0 1 0 0 0 1 63.157444990386665 34.291638045105415 9.1025058561576557 1 rotate no_reflect no_shear #
shell $-1 $-1 $-1 $32 $-1 $8 #
shell $-1 $-1 $-1 $33 $-1 $10 #
shell $-1 $-1 $-1 $34 $-1 $12 #
shell $-1 $-1 $-1 $35 $-1 $14 #
shell $-1 $-1 $-1 $36 $-1 $16 #
shell $-1 $-1 $-1 $37 $-1 $18 #
shell $-1 $-1 $-1 $38 $-1 $20 #
shell $-1 $-1 $-1 $39 $-1 $22 #
face $-1 $40 $41 $24 $-1 $42 forward single #
face $-1 $43 $44 $25 $-1 $45 reversed single #
face $-1 $46 $47 $26 $-1 $48 reversed single #
face $-1 $49 $50 $27 $-1 $51 reversed single #
face $-1 $52 $53 $28 $-1 $54 forward single #
face $-1 $55 $56 $29 $-1 $57 forward single #
face $-1 $58 $59 $30 $-1 $60 reversed single #
face $-1 $61 $62 $31 $-1 $63 forward single #
face $-1 $64 $65 $24 $-1 $66 reversed single #
loop $-1 $-1 $67 $32 #
plane-surface $-1 0 0 9.1025058561576557 0 0 1 1 0 0 forward_v I I I I #
face $-1 $68 $69 $25 $-1 $70 reversed single #
loop $-1 $-1 $71 $33 #
plane-surface $-1 -47.952433278071354 -30.356695351175404 0 1 0 0 0 0 -1 forward_v I I I I #
face $-1 $72 $73 $26 $-1 $74 reversed single #
loop $-1 $-1 $75 $34 #
plane-surface $-1 -46.452433278071354 26.421752657245392 0 0 1 0 0 0 1 forward_v I I I I #
face $-1 $76 $77 $27 $-1 $78 reversed single #
loop $-1 $-1 $79 $35 #
plane-surface $-1 63.157447063022758 2.823013948294065 181.51977490434385 0 -1 0 -0.70710678939079041 0 -0.70710677298230451 forward_v I I I I #
face $-1 $80 $81 $28 $-1 $82 forward single #
loop $-1 $83 $84 $36 #
cone-surface $-1 59.352316424836367 -1.9837712573764179 5.2973772345941486 -0.70710678939079041 0 -0.70710677298230451 0.35355338649115226 0 -0.35355339469539521 1 I I 0 1 0.5 forward I I I I #
face $-1 $85 $86 $29 $-1 $87 forward single #
loop $-1 $88 $89 $37 #
cone-surface $-1 59.352316424836367 0.90029986602586831 5.2973772345941486 -0.70710678939079041 0 -0.70710677298230451 0.35355338649115226 0 -0.35355339469539521 1 I I 0 1 0.5 forward I I I I #
face $-1 $90 $91 $30 $-1 $92 reversed single #
loop $-1 $-1 $93 $38 #
plane-surface $-1 -128.2144236239713 -26.421752657245392 109.06208902822902 0 1 0 -0.51503808176128008 0 0.85716729658548041 forward_v I I I I #
face $-1 $94 $95 $31 $-1 $96 forward single #
loop $-1 $97 $98 $39 #
cone-surface $-1 -55.545599755834736 -22.238496392596311 3.7909128556466296 0.51503808176128008 0 -0.85716729658548041 1.2857509448782207 0 0.77255712264192011 1 I I 0 1 1.5 forward I I I I #
face $-1 $99 $100 $24 $-1 $101 reversed single #
loop $-1 $-1 $102 $40 #
plane-surface $-1 0 0 -9.1025058561576557 0 0 1 1 0 0 forward_v I I I I #
coedge $-1 $103 $104 $105 $106 forward $41 $-1 #
face $-1 $107 $108 $25 $-1 $109 reversed single #
loop $-1 $-1 $110 $43 #
plane-surface $-1 -46.452433278071354 -26.421752657245392 0 0 -1 0 0 0 -1 forward_v I I I I #
coedge $-1 $111 $112 $113 $114 forward $44 $-1 #
face $-1 $115 $116 $26 $-1 $117 reversed single #
loop $-1 $-1 $118 $46 #
plane-surface $-1 -47.952433278071354 30.356695351175404 0 1 0 0 0 0 -1 forward_v I I I I #
coedge $-1 $119 $120 $121 $122 forward $47 $-1 #
face $-1 $123 $124 $27 $-1 $125 reversed single #
loop $-1 $-1 $126 $49 #
plane-surface $-1 -26.160669243532794 -0.54173569567527124 92.201660670424388 0.70710678939079041 0 0.70710677298230451 0.70710677298230451 0 -0.70710678939079041 forward_v I I I I #
coedge $-1 $127 $128 $129 $130 reversed $50 $-1 #
face $-1 $-1 $131 $28 $-1 $132 forward single #
loop $-1 $133 $134 $52 #
cone-surface $-1 58.479891835926992 -1.9837712573764179 4.4249526659294744 -0.70710678939079041 0 -0.70710677298230451 0.17677669324557613 0 -0.1767766973476976 1 I I -0.70710678118654746 0.70710678118654746 0.25 forward I I I I #
loop $-1 $-1 $135 $36 #
coedge $-1 $84 $84 $136 $137 reversed $53 $-1 #
face $-1 $-1 $138 $29 $-1 $139 forward single #
loop $-1 $140 $141 $55 #
cone-surface $-1 58.479891835926992 0.90029986602586831 4.4249526659294744 -0.70710678939079041 0 -0.70710677298230451 0.17677669324557613 0 -0.1767766973476976 1 I I -0.70710678118654746 0.70710678118654746 0.25 forward I I I I #
loop $-1 $-1 $142 $37 #
coedge $-1 $89 $89 $143 $144 reversed $56 $-1 #
face $-1 $145 $146 $30 $-1 $147 reversed single #
loop $-1 $-1 $148 $58 #
plane-surface $-1 -63.157444990386665 -22.238496392596311 0.78909626491716267 -0.51503808176128008 0 0.85716729658548041 0.85716729658548041 0 0.51503808176128008 forward_v I I I I #
coedge $-1 $149 $150 $151 $152 reversed $59 $-1 #
face $-1 $-1 $153 $31 $-1 $154 forward single #
loop $-1 $155 $156 $61 #
cone-surface $-1 -54.465394340251962 -22.238496392596311 1.9931491783167523 0.51503808176128008 0 -0.85716729658548041 0.64287547243911036 0 0.38627856132096006 1 I I -0.70710678118654757 0.70710678118654757 0.75 forward I I I I #
loop $-1 $-1 $157 $39 #
coedge $-1 $98 $98 $158 $159 reversed $62 $-1 #
face $-1 $160 $161 $24 $-1 $162 reversed single #
loop $-1 $-1 $163 $64 #
plane-surface $-1 0 -34.291638045105415 0 0 1 0 0 0 1 forward_v I I I I #
coedge $-1 $164 $165 $166 $167 forward $65 $-1 #
coedge $-1 $168 $67 $169 $170 forward $41 $-1 #
coedge $-1 $67 $168 $171 $172 forward $41 $-1 #
coedge $-1 $173 $174 $67 $106 reversed $175 $-1 #
edge $-1 $176 -34.291638045105415 $177 34.291638045105415 $105 $178 forward 7 unknown #
face $-1 $179 $180 $25 $-1 $181 forward single #
loop $-1 $-1 $182 $68 #
plane-surface $-1 -44.952433278071354 -30.356695351175404 0 -1 0 0 0 0 1 forward_v I I I I #
coedge $-1 $183 $184 $185 $186 forward $69 $-1 #
coedge $-1 $187 $71 $188 $189 reversed $44 $-1 #
coedge $-1 $71 $187 $190 $191 reversed $44 $-1 #
coedge $-1 $184 $183 $71 $114 reversed $69 $-1 #
edge $-1 $192 -9.1025058561576557 $193 9.1025058561576557 $113 $194 forward 7 unknown #
face $-1 $195 $196 $26 $-1 $197 reversed single #
loop $-1 $-1 $198 $72 #
plane-surface $-1 -44.952433278071354 30.356695351175404 0 -1 0 0 0 0 1 forward_v I I I I #
coedge $-1 $199 $200 $201 $202 reversed $73 $-1 #
coedge $-1 $203 $75 $204 $205 reversed $47 $-1 #
coedge $-1 $75 $203 $206 $207 reversed $47 $-1 #
coedge $-1 $200 $199 $75 $122 reversed $73 $-1 #
edge $-1 $208 -9.1025058561576557 $209 9.1025058561576557 $121 $210 forward 7 unknown #
face $-1 $211 $212 $27 $-1 $213 forward single #
loop $-1 $-1 $214 $76 #
plane-surface $-1 63.157447063022758 -3.9064853396446075 181.51977490434385 0 1 0 0.70710678939079041 0 0.70710677298230451 forward_v I I I I #
coedge $-1 $215 $216 $217 $218 reversed $77 $-1 #
coedge $-1 $128 $79 $219 $220 reversed $50 $-1 #
coedge $-1 $79 $127 $215 $221 reversed $50 $-1 #
coedge $-1 $217 $222 $79 $130 forward $212 $-1 #
edge $-1 $223 -31.578721458875286 $224 -25.359760110898115 $129 $225 forward 7 unknown #
loop $-1 $-1 $136 $80 #
plane-surface $-1 -26.160669243532794 -0.54173569567527124 92.201660670424388 0.70710678939079041 0 0.70710677298230451 0.70710677298230451 0 -0.70710678939079041 forward_v I I I I #
loop $-1 $-1 $226 $52 #
coedge $-1 $134 $134 $135 $227 reversed $81 $-1 #
coedge $-1 $135 $135 $134 $227 forward $83 $-1 #
coedge $-1 $136 $136 $84 $137 forward $131 $-1 #
edge $-1 $228 0 $228 6.2831853071796004 $136 $229 forward 7 unknown #
loop $-1 $-1 $143 $85 #
plane-surface $-1 -26.160669243532794 -0.54173569567527124 92.201660670424388 0.70710678939079041 0 0.70710677298230451 0.70710677298230451 0 -0.70710678939079041 forward_v I I I I #
loop $-1 $-1 $230 $55 #
coedge $-1 $141 $141 $142 $231 reversed $86 $-1 #
coedge $-1 $142 $142 $141 $231 forward $88 $-1 #
coedge $-1 $143 $143 $89 $144 forward $138 $-1 #
edge $-1 $232 0 $232 6.2831853071796004 $143 $233 forward 7 unknown #
face $-1 $234 $235 $30 $-1 $236 reversed single #
loop $-1 $-1 $237 $90 #
plane-surface $-1 -128.2144236239713 -18.055240127947229 109.06208902822902 0 -1 0 0.51503808176128008 0 -0.85716729658548041 forward_v I I I I #
coedge $-1 $238 $239 $240 $241 reversed $91 $-1 #
coedge $-1 $150 $93 $242 $243 reversed $59 $-1 #
coedge $-1 $93 $149 $238 $244 reversed $59 $-1 #
coedge $-1 $240 $245 $93 $152 forward $246 $-1 #
edge $-1 $247 0.94976682159898473 $248 14.785603582179164 $151 $249 forward 7 unknown #
loop $-1 $-1 $158 $94 #
plane-surface $-1 -63.157444990386665 -22.238496392596311 0.78909626491716267 -0.51503808176128008 0 0.85716729658548041 0.85716729658548041 0 0.51503808176128008 forward_v I I I I #
loop $-1 $-1 $250 $61 #
coedge $-1 $156 $156 $157 $251 reversed $95 $-1 #
coedge $-1 $157 $157 $156 $251 forward $97 $-1 #
coedge $-1 $158 $158 $98 $159 forward $153 $-1 #
edge $-1 $252 0 $252 6.2831853071796004 $158 $253 forward 7 unknown #
face $-1 $254 $255 $24 $-1 $256 reversed single #
loop $-1 $-1 $257 $99 #
plane-surface $-1 -63.157444990386665 0 0 1 0 0 0 0 -1 forward_v I I I I #
coedge $-1 $258 $171 $259 $260 forward $100 $-1 #
coedge $-1 $261 $102 $258 $262 forward $65 $-1 #
coedge $-1 $102 $261 $263 $264 forward $65 $-1 #
coedge $-1 $174 $173 $102 $167 reversed $175 $-1 #
edge $-1 $265 -34.291638045105415 $266 34.291638045105415 $166 $267 forward 7 unknown #
coedge $-1 $104 $103 $268 $269 forward $41 $-1 #
coedge $-1 $270 $271 $103 $170 reversed $255 $-1 #
edge $-1 $177 -63.157444990386665 $272 63.157444990386665 $169 $273 forward 7 unknown #
coedge $-1 $163 $274 $104 $172 reversed $100 $-1 #
edge $-1 $275 -63.157444990386665 $176 63.157444990386665 $171 $276 forward 7 unknown #
coedge $-1 $166 $105 $274 $277 forward $175 $-1 #
coedge $-1 $105 $166 $270 $278 reversed $175 $-1 #
loop $-1 $-1 $173 $254 #
vertex $-1 $106 $279 #
vertex $-1 $106 $280 #
straight-curve $-1 63.157444990386665 0 9.1025058561576557 0 1 0 I I #
face $-1 $281 $282 $25 $-1 $283 reversed single #
loop $-1 $-1 $284 $107 #
plane-surface $-1 0 0 9.1025058561576557 0 0 1 1 0 0 forward_v I I I I #
coedge $-1 $285 $286 $287 $288 reversed $108 $-1 #
coedge $-1 $113 $110 $289 $290 reversed $69 $-1 #
coedge $-1 $110 $113 $291 $292 reversed $69 $-1 #
coedge $-1 $286 $285 $110 $186 reversed $108 $-1 #
edge $-1 $293 -9.1025058561576557 $294 9.1025058561576557 $185 $295 forward 7 unknown #
coedge $-1 $112 $111 $296 $297 reversed $44 $-1 #
coedge $-1 $289 $298 $111 $189 forward $282 $-1 #
edge $-1 $299 -19.113290369517713 $193 -11.24340498165769 $188 $300 forward 7 unknown #
coedge $-1 $301 $291 $112 $191 forward $180 $-1 #
edge $-1 $192 11.24340498165769 $302 19.113290369517713 $190 $303 forward 7 unknown #
vertex $-1 $191 $304 #
vertex $-1 $189 $305 #
straight-curve $-1 -47.952433278071354 -26.421752657245392 0 0 0 -1 I I #
face $-1 $306 $307 $26 $-1 $308 forward single #
loop $-1 $-1 $309 $115 #
plane-surface $-1 0 0 -9.1025058561576557 0 0 1 1 0 0 forward_v I I I I #
coedge $-1 $310 $311 $203 $312 forward $116 $-1 #
coedge $-1 $121 $118 $313 $314 reversed $73 $-1 #
coedge $-1 $118 $121 $315 $316 reversed $73 $-1 #
coedge $-1 $317 $318 $118 $202 forward $319 $-1 #
edge $-1 $320 -9.1025058561576557 $321 9.1025058561576557 $201 $322 forward 7 unknown #
coedge $-1 $120 $119 $198 $312 reversed $47 $-1 #
coedge $-1 $313 $309 $119 $205 forward $196 $-1 #
edge $-1 $323 21.726216639035677 $209 24.726216639035677 $204 $324 forward 7 unknown #
coedge $-1 $325 $315 $120 $207 forward $307 $-1 #
edge $-1 $208 -24.726216639035677 $326 -21.726216639035677 $206 $327 forward 7 unknown #
vertex $-1 $207 $328 #
vertex $-1 $205 $329 #
straight-curve $-1 -47.952433278071354 26.421752657245392 0 0 0 -1 I I #
face $-1 $-1 $330 $27 $-1 $331 reversed single #
loop $-1 $-1 $129 $123 #
plane-surface $-1 0 0 9.1025058561576557 0 0 1 1 0 0 forward_v I I I I #
coedge $-1 $332 $333 $334 $335 reversed $124 $-1 #
coedge $-1 $336 $126 $128 $221 forward $77 $-1 #
coedge $-1 $126 $336 $332 $337 forward $77 $-1 #
coedge $-1 $334 $129 $126 $218 forward $212 $-1 #
edge $-1 $224 -3.0938817961317007 $338 3.6356174918069719 $217 $339 forward 7 unknown #
coedge $-1 $340 $341 $127 $220 forward $330 $-1 #
edge $-1 $342 -87.876343088303088 $223 -81.657381596014261 $219 $343 forward 7 unknown #
edge $-1 $224 117.51995039654624 $342 126.31488998077337 $128 $344 forward 7 unknown #
coedge $-1 $129 $334 $340 $345 forward $212 $-1 #
vertex $-1 $130 $346 #
vertex $-1 $130 $347 #
straight-curve $-1 31.578723531511379 2.823013948294065 9.1025058561576486 -1 0 0 I I #
coedge $-1 $226 $226 $-1 $348 reversed $133 $-1 #
edge $-1 $349 0 $349 6.2831853071796004 $134 $350 forward 7 unknown #
vertex $-1 $137 $351 #
ellipse-curve $-1 60.047964316398058 -1.9837712573764179 5.9930251100132566 0.70710678939079041 0 0.70710677298230451 0.35355338649115226 0 -0.35355339469539521 1 I I #
coedge $-1 $230 $230 $-1 $352 reversed $140 $-1 #
edge $-1 $353 0 $353 6.2831853071796004 $141 $354 forward 7 unknown #
vertex $-1 $144 $355 #
ellipse-curve $-1 60.047964316398058 0.90029986602586831 5.9930251100132566 0.70710678939079041 0 0.70710677298230451 0.35355338649115226 0 -0.35355339469539521 1 I I #
face $-1 $-1 $246 $30 $-1 $356 forward single #
loop $-1 $-1 $357 $145 #
plane-surface $-1 -63.157444990386665 0 0 1 0 0 0 0 -1 forward_v I I I I #
coedge $-1 $358 $359 $360 $361 reversed $146 $-1 #
coedge $-1 $362 $148 $150 $244 forward $91 $-1 #
coedge $-1 $148 $362 $358 $363 forward $91 $-1 #
coedge $-1 $360 $151 $148 $241 forward $246 $-1 #
edge $-1 $248 -15.302504460947237 $364 -6.9359919316490739 $240 $365 forward 7 unknown #
coedge $-1 $366 $367 $149 $243 forward $235 $-1 #
edge $-1 $368 -53.74194824919735 $247 -45.428538657956857 $242 $369 forward 7 unknown #
edge $-1 $248 -16.141349320832852 $368 0 $150 $370 forward 7 unknown #
coedge $-1 $151 $360 $366 $371 forward $246 $-1 #
loop $-1 $-1 $360 $234 #
vertex $-1 $243 $372 #
vertex $-1 $152 $373 #
straight-curve $-1 -64.10721181198565 -26.421752657245392 9.1025058561576557 1 0 0 I I #
coedge $-1 $250 $250 $-1 $374 reversed $155 $-1 #
edge $-1 $375 0 $375 6.2831853071796004 $156 $376 forward 7 unknown #
vertex $-1 $159 $377 #
ellipse-curve $-1 -56.239526610096569 -22.238496392596311 4.9458010605374163 -0.51503808176128008 0 0.85716729658548041 1.2857509448782207 0 0.77255712264192011 1 I I #
face $-1 $-1 $175 $24 $-1 $378 reversed single #
loop $-1 $-1 $270 $160 #
plane-surface $-1 0 34.291638045105415 0 0 -1 0 0 0 -1 forward_v I I I I #
coedge $-1 $379 $268 $271 $380 forward $161 $-1 #
coedge $-1 $274 $163 $164 $262 reversed $100 $-1 #
coedge $-1 $268 $379 $163 $260 reversed $161 $-1 #
edge $-1 $275 -9.1025058561576557 $381 9.1025058561576557 $259 $382 forward 7 unknown #
coedge $-1 $165 $164 $379 $383 forward $65 $-1 #
edge $-1 $266 -63.157444990386665 $381 63.157444990386665 $258 $384 forward 7 unknown #
coedge $-1 $271 $270 $165 $264 reversed $255 $-1 #
edge $-1 $385 -63.157444990386665 $265 63.157444990386665 $263 $386 forward 7 unknown #
vertex $-1 $167 $387 #
vertex $-1 $277 $388 #
straight-curve $-1 63.157444990386665 0 -9.1025058561576557 0 -1 0 I I #
coedge $-1 $257 $259 $168 $269 reversed $161 $-1 #
edge $-1 $272 -34.291638045105415 $275 34.291638045105415 $268 $389 forward 7 unknown #
coedge $-1 $263 $169 $174 $278 forward $255 $-1 #
coedge $-1 $169 $263 $257 $380 reversed $255 $-1 #
vertex $-1 $170 $390 #
straight-curve $-1 0 34.291638045105415 9.1025058561576557 -1 0 0 I I #
coedge $-1 $171 $258 $173 $277 reversed $100 $-1 #
vertex $-1 $269 $391 #
straight-curve $-1 0 -34.291638045105415 9.1025058561576557 1 0 0 I I #
edge $-1 $176 -9.1025058561576557 $266 9.1025058561576557 $173 $392 forward 7 unknown #
edge $-1 $177 -9.1025058561576557 $265 9.1025058561576557 $174 $393 forward 7 unknown #
point $-1 63.157444990386665 -34.291638045105415 9.1025058561576557 #
point $-1 63.157444990386665 34.291638045105415 9.1025058561576557 #
face $-1 $-1 $394 $25 $-1 $395 reversed single #
loop $-1 $-1 $396 $179 #
plane-surface $-1 0 0 -9.1025058561576557 0 0 1 1 0 0 forward_v I I I I #
coedge $-1 $291 $301 $286 $397 forward $180 $-1 #
coedge $-1 $185 $182 $396 $398 reversed $108 $-1 #
coedge $-1 $182 $185 $284 $397 reversed $108 $-1 #
coedge $-1 $399 $400 $182 $288 forward $394 $-1 #
edge $-1 $401 -9.1025058561576557 $402 9.1025058561576557 $287 $403 forward 7 unknown #
coedge $-1 $396 $188 $183 $290 forward $282 $-1 #
edge $-1 $193 -24.726216639035677 $294 -21.726216639035677 $289 $404 forward 7 unknown #
coedge $-1 $190 $284 $184 $292 forward $180 $-1 #
edge $-1 $293 21.726216639035677 $192 24.726216639035677 $291 $405 forward 7 unknown #
vertex $-1 $292 $406 #
vertex $-1 $290 $407 #
straight-curve $-1 -44.952433278071354 -26.421752657245392 0 0 0 -1 I I #
coedge $-1 $400 $399 $187 $297 forward $394 $-1 #
edge $-1 $302 -9.1025058561576557 $299 9.1025058561576557 $296 $408 forward 7 unknown #
coedge $-1 $188 $396 $400 $409 forward $282 $-1 #
vertex $-1 $189 $410 #
straight-curve $-1 -47.952433278071354 -15.178347675587702 -9.1025058561576557 0 1 0 I I #
coedge $-1 $284 $190 $399 $411 forward $180 $-1 #
vertex $-1 $411 $412 #
straight-curve $-1 -47.952433278071354 -15.178347675587702 9.1025058561576557 0 -1 0 I I #
point $-1 -47.952433278071354 -26.421752657245392 9.1025058561576557 #
point $-1 -47.952433278071354 -26.421752657245392 -9.1025058561576557 #
face $-1 $-1 $319 $26 $-1 $413 reversed single #
loop $-1 $-1 $325 $195 #
plane-surface $-1 0 0 9.1025058561576557 0 0 1 1 0 0 forward_v I I I I #
coedge $-1 $204 $414 $310 $415 forward $196 $-1 #
coedge $-1 $416 $198 $309 $415 reversed $116 $-1 #
coedge $-1 $198 $416 $325 $417 reversed $116 $-1 #
edge $-1 $326 -9.1025058561576557 $323 9.1025058561576557 $198 $418 forward 7 unknown #
coedge $-1 $414 $204 $199 $314 forward $196 $-1 #
edge $-1 $209 11.24340498165769 $320 19.113290369517713 $313 $419 forward 7 unknown #
coedge $-1 $206 $420 $200 $316 forward $307 $-1 #
edge $-1 $321 -19.113290369517713 $208 -11.24340498165769 $315 $421 forward 7 unknown #
coedge $-1 $422 $201 $420 $423 reversed $319 $-1 #
coedge $-1 $201 $422 $414 $424 reversed $319 $-1 #
loop $-1 $-1 $422 $306 #
vertex $-1 $424 $425 #
vertex $-1 $202 $426 #
straight-curve $-1 -47.952433278071354 34.291638045105415 0 0 0 1 I I #
vertex $-1 $205 $427 #
straight-curve $-1 -23.226216639035677 26.421752657245392 -9.1025058561576557 -1 0 0 I I #
coedge $-1 $420 $206 $311 $417 forward $307 $-1 #
vertex $-1 $207 $428 #
straight-curve $-1 -23.226216639035677 26.421752657245392 9.1025058561576557 1 0 0 I I #
point $-1 -47.952433278071354 26.421752657245392 9.1025058561576557 #
point $-1 -47.952433278071354 26.421752657245392 -9.1025058561576557 #
loop $-1 $-1 $219 $211 #
plane-surface $-1 63.157444990386665 0 0 -1 0 0 0 0 1 forward_v I I I I #
coedge $-1 $333 $214 $216 $337 reversed $124 $-1 #
coedge $-1 $214 $332 $429 $430 reversed $124 $-1 #
coedge $-1 $222 $217 $214 $335 forward $212 $-1 #
edge $-1 $338 25.359760110898115 $431 31.578721458875286 $334 $432 forward 7 unknown #
coedge $-1 $216 $215 $341 $433 reversed $77 $-1 #
edge $-1 $434 -126.31488998077337 $338 -117.51995039654624 $332 $435 forward 7 unknown #
vertex $-1 $218 $436 #
straight-curve $-1 56.938483642409494 -0.27086784783763562 9.1025058561576486 0 -1 0 I I #
coedge $-1 $429 $219 $222 $345 reversed $330 $-1 #
coedge $-1 $219 $429 $336 $433 forward $330 $-1 #
vertex $-1 $220 $437 #
straight-curve $-1 63.157444990386665 2.823013948294065 90.759887452171924 0 0 1 I I #
straight-curve $-1 -26.160669243532794 2.823013948294065 92.201660670424388 0.70710677298230451 0 -0.70710678939079041 I I #
edge $-1 $431 -3.9064853396446075 $223 2.823013948294065 $340 $438 forward 7 unknown #
point $-1 63.157444990386665 2.823013948294065 9.1025058561576557 #
point $-1 56.938483642409494 2.823013948294065 9.1025058561576486 #
edge $-1 $439 1 $439 0 $226 $-1 forward 7 unknown #
vertex $-1 $227 $440 #
ellipse-curve $-1 58.65666853327469 -1.9837712573764179 4.6017293591750503 0.70710678939079041 0 0.70710677298230451 0.35355338649115226 0 -0.35355339469539521 1 I I #
point $-1 60.401517702889201 -1.9837712573764179 5.6394717153178515 #
edge $-1 $441 1 $441 0 $230 $-1 forward 7 unknown #
vertex $-1 $231 $442 #
ellipse-curve $-1 58.65666853327469 0.90029986602586831 4.6017293591750503 0.70710678939079041 0 0.70710677298230451 0.35355338649115226 0 -0.35355339469539521 1 I I #
point $-1 60.401517702889201 0.90029986602586831 5.6394717153178515 #
plane-surface $-1 0 0 9.1025058561576557 0 0 1 1 0 0 forward_v I I I I #
coedge $-1 $367 $366 $359 $443 forward $235 $-1 #
coedge $-1 $359 $237 $239 $363 reversed $146 $-1 #
coedge $-1 $237 $358 $357 $443 reversed $146 $-1 #
coedge $-1 $245 $240 $237 $361 forward $246 $-1 #
edge $-1 $364 -14.785603582179164 $444 -0.94976682159898473 $360 $445 forward 7 unknown #
coedge $-1 $239 $238 $367 $446 reversed $91 $-1 #
edge $-1 $447 0 $364 16.141349320832852 $358 $448 forward 7 unknown #
vertex $-1 $241 $449 #
straight-curve $-1 -49.321608229806493 -11.119248196298155 9.1025058561576557 0 1 0 I I #
coedge $-1 $357 $242 $245 $371 reversed $235 $-1 #
coedge $-1 $242 $357 $362 $446 forward $235 $-1 #
vertex $-1 $243 $450 #
straight-curve $-1 -63.157444990386665 -26.421752657245392 54.531044514114512 0 0 1 I I #
straight-curve $-1 -63.157444990386665 -26.421752657245392 0.78909626491716267 -0.85716729658548041 0 -0.51503808176128008 I I #
edge $-1 $444 18.055240127947229 $247 26.421752657245392 $366 $451 forward 7 unknown #
point $-1 -63.157444990386665 -26.421752657245392 9.1025058561576557 #
point $-1 -49.321608229806486 -26.421752657245392 9.1025058561576557 #
edge $-1 $452 1 $452 0 $250 $-1 forward 7 unknown #
vertex $-1 $251 $453 #
ellipse-curve $-1 -54.851672901572918 -22.238496392596311 2.6360246507558625 -0.51503808176128008 0 0.85716729658548041 1.2857509448782207 0 0.77255712264192011 1 I I #
point $-1 -54.953775665218338 -22.238496392596311 5.7183581831793173 #
plane-surface $-1 63.157444990386665 0 0 -1 0 0 0 0 1 forward_v I I I I #
coedge $-1 $259 $257 $261 $383 reversed $161 $-1 #
edge $-1 $272 -9.1025058561576557 $385 9.1025058561576557 $271 $454 forward 7 unknown #
vertex $-1 $383 $455 #
straight-curve $-1 -63.157444990386665 -34.291638045105415 0 0 0 -1 I I #
edge $-1 $381 -34.291638045105415 $385 34.291638045105415 $379 $456 forward 7 unknown #
straight-curve $-1 0 -34.291638045105415 -9.1025058561576557 -1 0 0 I I #
vertex $-1 $264 $457 #
straight-curve $-1 0 34.291638045105415 -9.1025058561576557 1 0 0 I I #
point $-1 63.157444990386665 34.291638045105415 -9.1025058561576557 #
point $-1 63.157444990386665 -34.291638045105415 -9.1025058561576557 #
straight-curve $-1 -63.157444990386665 0 9.1025058561576557 0 -1 0 I I #
point $-1 -63.157444990386665 34.291638045105415 9.1025058561576557 #
point $-1 -63.157444990386665 -34.291638045105415 9.1025058561576557 #
straight-curve $-1 63.157444990386665 -34.291638045105415 0 0 0 -1 I I #
straight-curve $-1 63.157444990386665 34.291638045105415 0 0 0 -1 I I #
loop $-1 $-1 $287 $281 #
plane-surface $-1 0 -34.291638045105415 0 0 1 0 0 0 1 forward_v I I I I #
coedge $-1 $298 $289 $285 $398 forward $282 $-1 #
edge $-1 $402 -19.113290369517713 $293 -11.24340498165769 $284 $458 forward 7 unknown #
edge $-1 $294 11.24340498165769 $401 19.113290369517713 $396 $459 forward 7 unknown #
coedge $-1 $296 $287 $301 $411 reversed $394 $-1 #
coedge $-1 $287 $296 $298 $409 reversed $394 $-1 #
vertex $-1 $409 $460 #
vertex $-1 $288 $461 #
straight-curve $-1 -44.952433278071354 -34.291638045105415 0 0 0 1 I I #
straight-curve $-1 -23.226216639035677 -26.421752657245392 -9.1025058561576557 1 0 0 I I #
straight-curve $-1 -23.226216639035677 -26.421752657245392 9.1025058561576557 -1 0 0 I I #
point $-1 -44.952433278071354 -26.421752657245392 9.1025058561576557 #
point $-1 -44.952433278071354 -26.421752657245392 -9.1025058561576557 #
straight-curve $-1 -47.952433278071354 -34.291638045105415 0 0 0 -1 I I #
edge $-1 $401 44.952433278071354 $299 47.952433278071354 $400 $462 forward 7 unknown #
point $-1 -47.952433278071354 -34.291638045105415 -9.1025058561576557 #
edge $-1 $302 -47.952433278071354 $402 -44.952433278071354 $399 $463 forward 7 unknown #
point $-1 -47.952433278071354 -34.291638045105415 9.1025058561576557 #
plane-surface $-1 0 34.291638045105415 0 0 -1 0 0 0 -1 forward_v I I I I #
coedge $-1 $309 $313 $318 $424 forward $196 $-1 #
edge $-1 $464 -19.113290369517713 $323 -11.24340498165769 $309 $465 forward 7 unknown #
coedge $-1 $311 $310 $422 $466 reversed $116 $-1 #
edge $-1 $326 11.24340498165769 $467 19.113290369517713 $325 $468 forward 7 unknown #
straight-curve $-1 -44.952433278071354 26.421752657245392 0 0 0 -1 I I #
straight-curve $-1 -47.952433278071354 15.178347675587702 -9.1025058561576557 0 1 0 I I #
coedge $-1 $315 $325 $317 $423 forward $307 $-1 #
straight-curve $-1 -47.952433278071354 15.178347675587702 9.1025058561576557 0 -1 0 I I #
coedge $-1 $318 $317 $416 $466 forward $319 $-1 #
edge $-1 $467 44.952433278071354 $321 47.952433278071354 $317 $469 forward 7 unknown #
edge $-1 $320 -47.952433278071354 $464 -44.952433278071354 $318 $470 forward 7 unknown #
point $-1 -47.952433278071354 34.291638045105415 -9.1025058561576557 #
point $-1 -47.952433278071354 34.291638045105415 9.1025058561576557 #
point $-1 -44.952433278071354 26.421752657245392 -9.1025058561576557 #
point $-1 -44.952433278071354 26.421752657245392 9.1025058561576557 #
coedge $-1 $341 $340 $333 $430 forward $330 $-1 #
edge $-1 $431 81.657381596014261 $434 87.876343088303088 $429 $471 forward 7 unknown #
vertex $-1 $345 $472 #
straight-curve $-1 31.578723531511379 -3.9064853396446075 9.1025058561576486 1 0 0 I I #
edge $-1 $434 -3.6356174918069719 $342 3.0938817961317007 $341 $473 forward 7 unknown #
vertex $-1 $433 $474 #
straight-curve $-1 -26.160669243532794 -3.9064853396446075 92.201660670424388 -0.70710677298230451 0 0.70710678939079041 I I #
point $-1 56.938483642409494 -3.9064853396446075 9.1025058561576486 #
point $-1 63.157444990386665 2.823013948294065 2.8835443638688361 #
straight-curve $-1 63.157444990386665 0 9.1025058561576557 0 1 0 I I #
vertex $-1 $348 $475 #
point $-1 59.01022191976584 -1.9837712573764179 4.2481759644796551 #
vertex $-1 $352 $476 #
point $-1 59.01022191976584 0.90029986602586831 4.2481759644796551 #
edge $-1 $444 45.428538657956857 $447 53.74194824919735 $357 $477 forward 7 unknown #
vertex $-1 $371 $478 #
straight-curve $-1 -64.10721181198565 -18.055240127947229 9.1025058561576557 -1 0 0 I I #
edge $-1 $447 6.9359919316490739 $368 15.302504460947237 $367 $479 forward 7 unknown #
vertex $-1 $446 $480 #
straight-curve $-1 -63.157444990386665 -18.055240127947229 0.78909626491716267 0.85716729658548041 0 0.51503808176128008 I I #
point $-1 -49.321608229806486 -18.055240127947229 9.1025058561576557 #
point $-1 -63.157444990386665 -26.421752657245392 0.78909626491716267 #
straight-curve $-1 -63.157444990386665 0 9.1025058561576557 0 -1 0 I I #
vertex $-1 $374 $481 #
point $-1 -53.565921956694702 -22.238496392596311 3.408581773397783 #
straight-curve $-1 -63.157444990386665 34.291638045105415 0 0 0 -1 I I #
point $-1 -63.157444990386665 -34.291638045105415 -9.1025058561576557 #
straight-curve $-1 -63.157444990386665 0 -9.1025058561576557 0 1 0 I I #
point $-1 -63.157444990386665 34.291638045105415 -9.1025058561576557 #
straight-curve $-1 -44.952433278071354 -15.178347675587702 9.1025058561576557 0 1 0 I I #
straight-curve $-1 -44.952433278071354 -15.178347675587702 -9.1025058561576557 0 -1 0 I I #
point $-1 -44.952433278071354 -34.291638045105415 -9.1025058561576557 #
point $-1 -44.952433278071354 -34.291638045105415 9.1025058561576557 #
straight-curve $-1 0 -34.291638045105415 -9.1025058561576557 -1 0 0 I I #
straight-curve $-1 0 -34.291638045105415 9.1025058561576557 1 0 0 I I #
vertex $-1 $466 $482 #
straight-curve $-1 -44.952433278071354 15.178347675587702 -9.1025058561576557 0 -1 0 I I #
edge $-1 $467 -9.1025058561576557 $464 9.1025058561576557 $422 $483 forward 7 unknown #
vertex $-1 $423 $484 #
straight-curve $-1 -44.952433278071354 15.178347675587702 9.1025058561576557 0 1 0 I I #
straight-curve $-1 0 34.291638045105415 9.1025058561576557 -1 0 0 I I #
straight-curve $-1 0 34.291638045105415 -9.1025058561576557 1 0 0 I I #
straight-curve $-1 63.157444990386665 -3.9064853396446075 90.759887452171924 0 0 -1 I I #
point $-1 63.157444990386665 -3.9064853396446075 9.1025058561576557 #
straight-curve $-1 63.157444990386665 -0.27086784783763562 2.8835443638688432 0 1 0 I I #
point $-1 63.157444990386665 -3.9064853396446075 2.8835443638688361 #
point $-1 58.303115138579294 -1.9837712573764179 4.2481759726838986 #
point $-1 58.303115138579294 0.90029986602586831 4.2481759726838986 #
straight-curve $-1 -63.157444990386665 -18.055240127947229 54.531044514114512 0 0 -1 I I #
point $-1 -63.157444990386665 -18.055240127947229 9.1025058561576557 #
straight-curve $-1 -63.157444990386665 -11.119248196298155 0.78909626491716278 0 -1 0 I I #
point $-1 -63.157444990386665 -18.055240127947229 0.78909626491716267 #
point $-1 -54.079115778931005 -22.238496392596311 1.3502737058776419 #
point $-1 -44.952433278071354 34.291638045105415 -9.1025058561576557 #
straight-curve $-1 -44.952433278071354 34.291638045105415 0 0 0 -1 I I #
point $-1 -44.952433278071354 34.291638045105415 9.1025058561576557 #
End-of-ACIS-data 