500 0 5 0           
7 Unknown 11 ACIS 5.0 NT 24 Fri Mar 26 16:53:32 1999 
-1 9.9999999999999995e-007 1e-010 
body $-1 $5 $-1 $6 #
body $-1 $7 $-1 $8 #
body $-1 $9 $-1 $10 #
body $-1 $11 $-1 $12 #
body $-1 $13 $-1 $14 #
lump $-1 $-1 $15 $0 #
transform $-1 1 0 0 0 1 0 0 0 1 70.226752525406653 28.62307581796658 11.560431155813822 1 rotate no_reflect no_shear #
lump $-1 $-1 $16 $1 #
transform $-1 1 0 0 0 1 0 0 0 1 70.226752525406653 28.62307581796658 11.560431155813822 1 rotate no_reflect no_shear #
lump $-1 $-1 $17 $2 #
transform $-1 1 0 0 0 1 0 0 0 1 70.226752525406653 28.62307581796658 11.560431155813822 1 rotate no_reflect no_shear #
lump $-1 $-1 $18 $3 #
transform $-1 1 0 0 0 1 0 0 0 1 70.226752525406653 28.62307581796658 11.560431155813822 1 rotate no_reflect no_shear #
lump $-1 $-1 $19 $4 #
transform $-1 1 0 0 0 1 0 0 0 1 70.226752525406653 28.62307581796658 11.560431155813822 1 rotate no_reflect no_shear #
shell $-1 $-1 $-1 $20 $-1 $5 #
shell $-1 $-1 $-1 $21 $-1 $7 #
shell $-1 $-1 $-1 $22 $-1 $9 #
shell $-1 $-1 $-1 $23 $-1 $11 #
shell $-1 $-1 $-1 $24 $-1 $13 #
face $-1 $25 $26 $15 $-1 $27 forward single #
face $-1 $28 $29 $16 $-1 $30 reversed single #
face $-1 $31 $32 $17 $-1 $33 forward single #
face $-1 $34 $35 $18 $-1 $36 reversed single #
face $-1 $37 $38 $19 $-1 $39 reversed single #
face $-1 $40 $41 $15 $-1 $42 reversed single #
loop $-1 $-1 $43 $20 #
plane-surface $-1 0 0 11.560431155813822 0 0 1 1 0 0 forward_v I I I I #
face $-1 $44 $45 $16 $-1 $46 forward single #
loop $-1 $-1 $47 $21 #
plane-surface $-1 -63.566117344350268 0 -8.1382725778187979 0 0 1 1 0 0 forward_v I I I I #
face $-1 $48 $49 $17 $-1 $50 forward single #
loop $-1 $-1 $51 $22 #
plane-surface $-1 26.693607448700313 -124.41213706650888 103.69618073106129 1 0 0 0 0.68199836817093118 -0.7313536940579346 forward_v I I I I #
face $-1 $52 $53 $18 $-1 $54 reversed single #
loop $-1 $55 $56 $23 #
cone-surface $-1 33.669310470691826 -21.895389698478773 5.1396448050368431 0 0.68199836817093118 -0.7313536940579346 3 0 0 1 I I 0 1 3 forward I I I I #
face $-1 $57 $58 $19 $-1 $59 reversed single #
loop $-1 $60 $61 $24 #
cone-surface $-1 44.1328650036791 -21.895389698478773 5.1396448050368431 0 0.68199836817093118 -0.7313536940579346 3 0 0 1 I I 0 1 3 forward I I I I #
face $-1 $62 $63 $15 $-1 $64 reversed single #
loop $-1 $-1 $65 $25 #
plane-surface $-1 0 0 -11.560431155813822 0 0 1 1 0 0 forward_v I I I I #
coedge $-1 $66 $67 $68 $69 forward $26 $-1 #
face $-1 $70 $71 $16 $-1 $72 reversed single #
loop $-1 $-1 $73 $28 #
plane-surface $-1 -56.905482163293883 0 -9.8493518668163098 -1 0 0 0 0 1 forward_v I I I I #
coedge $-1 $74 $75 $76 $77 reversed $29 $-1 #
face $-1 $78 $79 $17 $-1 $80 forward single #
loop $-1 $-1 $81 $31 #
plane-surface $-1 38.901087737185463 -28.623075817966566 0.9749909687642031 0 -0.68199836817093118 0.7313536940579346 1 0 0 forward_v I I I I #
coedge $-1 $82 $83 $84 $85 reversed $32 $-1 #
face $-1 $86 $87 $18 $-1 $88 forward single #
loop $-1 $89 $90 $34 #
cone-surface $-1 33.669310470691826 -19.820453319789472 2.914548006697764 0 0.68199836817093118 -0.7313536940579346 1.5 0 0 1 I I -0.70710678118654768 0.70710678118654757 1.5 forward I I I I #
loop $-1 $-1 $91 $23 #
coedge $-1 $56 $56 $92 $93 reversed $35 $-1 #
face $-1 $94 $95 $19 $-1 $96 reversed single #
loop $-1 $97 $98 $37 #
cone-surface $-1 44.1328650036791 -19.820453319789472 2.914548006697764 0 0.68199836817093118 -0.7313536940579346 1.5 0 0 1 I I -0.70710678118654768 0.70710678118654757 1.5 forward I I I I #
loop $-1 $-1 $99 $24 #
coedge $-1 $61 $61 $100 $101 reversed $38 $-1 #
face $-1 $102 $103 $15 $-1 $104 reversed single #
loop $-1 $-1 $105 $40 #
plane-surface $-1 0 -28.62307581796658 0 0 1 0 0 0 1 forward_v I I I I #
coedge $-1 $106 $107 $108 $109 forward $41 $-1 #
coedge $-1 $110 $43 $111 $112 forward $26 $-1 #
coedge $-1 $43 $110 $113 $114 forward $26 $-1 #
coedge $-1 $115 $116 $43 $69 reversed $117 $-1 #
edge $-1 $118 -28.62307581796658 $119 28.62307581796658 $68 $120 forward 7 unknown #
face $-1 $121 $122 $16 $-1 $123 reversed single #
loop $-1 $-1 $124 $44 #
plane-surface $-1 -70.226752525406653 0 0 1 0 0 0 0 -1 forward_v I I I I #
coedge $-1 $76 $125 $126 $127 reversed $45 $-1 #
coedge $-1 $128 $47 $129 $130 reversed $29 $-1 #
coedge $-1 $47 $128 $131 $132 reversed $29 $-1 #
coedge $-1 $133 $73 $47 $77 forward $45 $-1 #
edge $-1 $134 -28.62307581796658 $135 28.62307581796658 $76 $136 forward 7 unknown #
face $-1 $137 $138 $17 $-1 $139 reversed single #
loop $-1 $-1 $140 $48 #
plane-surface $-1 51.108568025670614 -124.41213706650888 103.69618073106129 -1 0 0 0 -0.68199836817093118 0.7313536940579346 forward_v I I I I #
coedge $-1 $141 $142 $143 $144 reversed $49 $-1 #
coedge $-1 $83 $51 $142 $145 forward $32 $-1 #
coedge $-1 $51 $82 $146 $147 reversed $32 $-1 #
coedge $-1 $148 $143 $51 $85 forward $138 $-1 #
edge $-1 $149 -50.873099396766456 $150 -40.287659209716821 $84 $151 forward 7 unknown #
face $-1 $152 $153 $18 $-1 $154 forward single #
loop $-1 $-1 $155 $52 #
plane-surface $-1 26.693607448700313 -124.41213706650888 103.69618073106129 1 0 0 0 0.68199836817093118 -0.7313536940579346 forward_v I I I I #
loop $-1 $-1 $156 $34 #
coedge $-1 $90 $90 $91 $157 forward $53 $-1 #
coedge $-1 $91 $91 $90 $157 reversed $55 $-1 #
coedge $-1 $92 $92 $56 $93 forward $153 $-1 #
edge $-1 $158 1.0998905461741851e-015 $158 6.2831853071796013 $92 $159 forward 7 unknown #
face $-1 $160 $161 $19 $-1 $162 reversed single #
loop $-1 $163 $164 $57 #
cone-surface $-1 33.669310470691826 -21.895389698478773 5.1396448050368431 0 0.68199836817093118 -0.7313536940579346 3 0 0 1 I I 0 1 3 forward I I I I #
loop $-1 $-1 $165 $37 #
coedge $-1 $98 $98 $99 $166 forward $58 $-1 #
coedge $-1 $99 $99 $98 $166 reversed $60 $-1 #
coedge $-1 $100 $100 $61 $101 forward $167 $-1 #
edge $-1 $168 1.0998905461741851e-015 $168 6.2831853071796013 $100 $169 forward 7 unknown #
face $-1 $170 $171 $15 $-1 $172 reversed single #
loop $-1 $-1 $173 $62 #
plane-surface $-1 -70.226752525406653 0 0 1 0 0 0 0 -1 forward_v I I I I #
coedge $-1 $174 $113 $175 $176 forward $63 $-1 #
coedge $-1 $177 $65 $174 $178 forward $41 $-1 #
coedge $-1 $65 $177 $179 $180 forward $41 $-1 #
coedge $-1 $116 $115 $65 $109 reversed $117 $-1 #
edge $-1 $181 -28.62307581796658 $182 28.62307581796658 $108 $183 forward 7 unknown #
coedge $-1 $67 $66 $184 $185 forward $26 $-1 #
coedge $-1 $186 $187 $66 $112 reversed $171 $-1 #
edge $-1 $119 -70.226752525406653 $188 70.226752525406653 $111 $189 forward 7 unknown #
coedge $-1 $105 $190 $67 $114 reversed $63 $-1 #
edge $-1 $191 -70.226752525406653 $118 70.226752525406653 $113 $192 forward 7 unknown #
coedge $-1 $108 $68 $190 $193 forward $117 $-1 #
coedge $-1 $68 $108 $186 $194 reversed $117 $-1 #
loop $-1 $-1 $115 $170 #
vertex $-1 $69 $195 #
vertex $-1 $69 $196 #
straight-curve $-1 70.226752525406653 0 11.560431155813822 0 1 0 I I #
face $-1 $197 $198 $16 $-1 $199 forward single #
loop $-1 $-1 $129 $70 #
plane-surface $-1 0 -28.62307581796658 0 0 1 0 0 0 1 forward_v I I I I #
coedge $-1 $200 $201 $128 $202 forward $71 $-1 #
coedge $-1 $73 $133 $203 $204 reversed $45 $-1 #
coedge $-1 $205 $129 $73 $127 forward $122 $-1 #
edge $-1 $134 3.213596644410643 $206 6.6357552224056668 $126 $207 forward 7 unknown #
coedge $-1 $75 $74 $124 $202 reversed $29 $-1 #
coedge $-1 $126 $208 $74 $130 forward $122 $-1 #
edge $-1 $209 -38.443693853231522 $134 -25.122423491118749 $129 $210 forward 7 unknown #
coedge $-1 $211 $212 $75 $132 forward $213 $-1 #
edge $-1 $135 25.122423491118749 $214 38.443693853231522 $131 $215 forward 7 unknown #
coedge $-1 $125 $76 $212 $216 reversed $45 $-1 #
vertex $-1 $130 $217 #
vertex $-1 $132 $218 #
straight-curve $-1 -56.905482163293883 0 -8.1382725778187979 0 1 0 I I #
face $-1 $219 $220 $17 $-1 $221 reversed single #
loop $-1 $-1 $222 $78 #
plane-surface $-1 0 -28.62307581796658 0 0 1 0 0 0 1 forward_v I I I I #
coedge $-1 $223 $224 $222 $225 reversed $79 $-1 #
coedge $-1 $226 $81 $224 $227 reversed $49 $-1 #
coedge $-1 $81 $226 $82 $145 reversed $49 $-1 #
coedge $-1 $84 $222 $81 $144 forward $138 $-1 #
edge $-1 $228 -31.658024157077882 $149 -7.2430635801075809 $143 $229 forward 7 unknown #
edge $-1 $149 -1.9403487555775418e-014 $230 15.521210432568896 $82 $231 forward 7 unknown #
coedge $-1 $232 $233 $83 $147 forward $234 $-1 #
edge $-1 $150 33.582992715287858 $230 44.934487301397688 $146 $235 forward 7 unknown #
coedge $-1 $236 $84 $233 $237 reversed $138 $-1 #
vertex $-1 $144 $238 #
vertex $-1 $147 $239 #
straight-curve $-1 26.693607448700313 -28.62307581796658 51.848090365530645 0 0 1 I I #
face $-1 $240 $241 $18 $-1 $242 forward single #
loop $-1 $243 $92 $86 #
plane-surface $-1 38.901087737185463 -28.623075817966566 0.9749909687642031 0 -0.68199836817093118 0.7313536940579346 1 0 0 forward_v I I I I #
coedge $-1 $244 $245 $246 $247 reversed $87 $-1 #
coedge $-1 $156 $156 $-1 $248 forward $89 $-1 #
edge $-1 $249 0 $249 6.2831853071796004 $90 $250 forward 7 unknown #
vertex $-1 $93 $251 #
ellipse-curve $-1 33.669310470691826 -22.947328524911665 6.2677110622890062 0 0.68199836817093118 -0.7313536940579346 3 0 0 1 I I #
face $-1 $252 $253 $19 $-1 $254 forward single #
loop $-1 $255 $256 $94 #
cone-surface $-1 33.669310470691826 -19.820453319789472 2.914548006697764 0 0.68199836817093118 -0.7313536940579346 1.5 0 0 1 I I -0.70710678118654768 0.70710678118654757 1.5 forward I I I I #
loop $-1 $-1 $257 $57 #
coedge $-1 $164 $164 $258 $259 reversed $95 $-1 #
coedge $-1 $165 $165 $-1 $260 forward $97 $-1 #
edge $-1 $261 0 $261 6.2831853071796004 $98 $262 forward 7 unknown #
loop $-1 $263 $100 $252 #
vertex $-1 $101 $264 #
ellipse-curve $-1 44.1328650036791 -22.947328524911665 6.2677110622890062 0 0.68199836817093118 -0.7313536940579346 3 0 0 1 I I #
face $-1 $-1 $117 $15 $-1 $265 reversed single #
loop $-1 $-1 $186 $102 #
plane-surface $-1 0 28.62307581796658 0 0 -1 0 0 0 -1 forward_v I I I I #
coedge $-1 $266 $184 $187 $267 forward $103 $-1 #
coedge $-1 $190 $105 $106 $178 reversed $63 $-1 #
coedge $-1 $184 $266 $105 $176 reversed $103 $-1 #
edge $-1 $191 -11.560431155813822 $268 11.560431155813822 $175 $269 forward 7 unknown #
coedge $-1 $107 $106 $266 $270 forward $41 $-1 #
edge $-1 $182 -70.226752525406653 $268 70.226752525406653 $174 $271 forward 7 unknown #
coedge $-1 $187 $186 $107 $180 reversed $171 $-1 #
edge $-1 $272 -70.226752525406653 $181 70.226752525406653 $179 $273 forward 7 unknown #
vertex $-1 $109 $274 #
vertex $-1 $193 $275 #
straight-curve $-1 70.226752525406653 0 -11.560431155813822 0 -1 0 I I #
coedge $-1 $173 $175 $110 $185 reversed $103 $-1 #
edge $-1 $188 -28.62307581796658 $191 28.62307581796658 $184 $276 forward 7 unknown #
coedge $-1 $179 $111 $116 $194 forward $171 $-1 #
coedge $-1 $111 $179 $173 $267 reversed $171 $-1 #
vertex $-1 $112 $277 #
straight-curve $-1 0 28.62307581796658 11.560431155813822 -1 0 0 I I #
coedge $-1 $113 $174 $115 $193 reversed $63 $-1 #
vertex $-1 $185 $278 #
straight-curve $-1 0 -28.62307581796658 11.560431155813822 1 0 0 I I #
edge $-1 $118 -11.560431155813822 $182 11.560431155813822 $115 $279 forward 7 unknown #
edge $-1 $119 -11.560431155813822 $181 11.560431155813822 $116 $280 forward 7 unknown #
point $-1 70.226752525406653 -28.62307581796658 11.560431155813822 #
point $-1 70.226752525406653 28.62307581796658 11.560431155813822 #
face $-1 $281 $282 $16 $-1 $283 reversed single #
loop $-1 $-1 $284 $121 #
plane-surface $-1 0 0 11.560431155813822 0 0 1 1 0 0 forward_v I I I I #
coedge $-1 $285 $124 $208 $286 reversed $71 $-1 #
coedge $-1 $124 $285 $211 $287 forward $71 $-1 #
edge $-1 $214 -28.62307581796658 $209 28.62307581796658 $124 $288 forward 7 unknown #
coedge $-1 $289 $290 $125 $204 forward $282 $-1 #
edge $-1 $206 -28.62307581796658 $291 28.62307581796658 $203 $292 forward 7 unknown #
coedge $-1 $293 $126 $290 $294 reversed $122 $-1 #
vertex $-1 $127 $295 #
straight-curve $-1 -56.905482163293883 -28.62307581796658 -4.9246759334081549 0 0 -1 I I #
coedge $-1 $129 $296 $200 $286 forward $122 $-1 #
vertex $-1 $130 $297 #
straight-curve $-1 -31.783058672175134 -28.62307581796658 -8.1382725778187979 1 0 0 I I #
coedge $-1 $298 $131 $201 $287 reversed $213 $-1 #
coedge $-1 $131 $299 $133 $216 forward $213 $-1 #
loop $-1 $-1 $131 $281 #
vertex $-1 $202 $300 #
straight-curve $-1 -31.783058672175134 28.62307581796658 -8.1382725778187979 -1 0 0 I I #
edge $-1 $291 -6.6357552224056668 $135 -3.213596644410643 $212 $301 forward 7 unknown #
point $-1 -56.905482163293883 -28.62307581796658 -8.1382725778187979 #
point $-1 -56.905482163293883 28.62307581796658 -8.1382725778187979 #
face $-1 $302 $303 $17 $-1 $304 forward single #
loop $-1 $-1 $305 $137 #
plane-surface $-1 -63.566117344350268 0 -8.1382725778187979 0 0 1 1 0 0 forward_v I I I I #
coedge $-1 $143 $306 $140 $225 forward $138 $-1 #
coedge $-1 $224 $140 $307 $308 reversed $79 $-1 #
coedge $-1 $140 $223 $141 $227 forward $79 $-1 #
edge $-1 $309 40.287659209716821 $228 50.873099396766456 $222 $310 forward 7 unknown #
coedge $-1 $142 $141 $232 $311 reversed $49 $-1 #
edge $-1 $312 -15.521210432568896 $228 1.9403487555775418e-014 $224 $313 forward 7 unknown #
vertex $-1 $144 $314 #
straight-curve $-1 19.450543868592732 -28.62307581796658 0.97499096876419011 -1 0 0 I I #
vertex $-1 $311 $315 #
straight-curve $-1 26.693607448700313 -28.623075817966566 0.9749909687642031 0 0.7313536940579346 0.68199836817093118 I I #
coedge $-1 $307 $146 $226 $311 forward $234 $-1 #
coedge $-1 $146 $316 $148 $237 forward $234 $-1 #
loop $-1 $-1 $307 $317 #
straight-curve $-1 26.693607448700313 -62.206068533254438 11.560431155813824 0 1 0 I I #
coedge $-1 $318 $148 $319 $320 forward $138 $-1 #
edge $-1 $321 -70.226752525406653 $150 26.693607448700313 $148 $322 forward 7 unknown #
point $-1 26.693607448700313 -28.62307581796658 0.97499096876418989 #
point $-1 26.693607448700313 -28.62307581796658 11.560431155813822 #
face $-1 $323 $324 $18 $-1 $325 reversed single #
loop $-1 $-1 $326 $152 #
plane-surface $-1 51.108568025670614 -124.41213706650888 103.69618073106129 -1 0 0 0 -0.68199836817093118 0.7313536940579346 forward_v I I I I #
loop $-1 $-1 $327 $86 #
coedge $-1 $245 $155 $328 $329 forward $87 $-1 #
coedge $-1 $155 $244 $330 $331 reversed $87 $-1 #
coedge $-1 $332 $333 $155 $247 forward $324 $-1 #
edge $-1 $334 -50.873099396766456 $335 -40.287659209716821 $246 $336 forward 7 unknown #
edge $-1 $337 1 $337 0 $156 $-1 forward 7 unknown #
vertex $-1 $157 $338 #
ellipse-curve $-1 33.669310470691826 -20.843450872045867 4.0115785477846657 0 -0.68199836817093118 0.7313536940579346 3 0 0 1 I I #
point $-1 36.669310470691826 -22.947328524911683 6.2677110622890204 #
face $-1 $339 $167 $19 $-1 $340 forward single #
loop $-1 $-1 $341 $160 #
plane-surface $-1 26.693607448700313 -124.41213706650888 103.69618073106129 1 0 0 0 0.68199836817093118 -0.7313536940579346 forward_v I I I I #
loop $-1 $-1 $342 $94 #
coedge $-1 $256 $256 $257 $343 forward $161 $-1 #
coedge $-1 $257 $257 $256 $343 reversed $163 $-1 #
coedge $-1 $258 $258 $164 $259 forward $263 $-1 #
edge $-1 $344 1.0998905461741851e-015 $344 6.2831853071796013 $258 $345 forward 7 unknown #
edge $-1 $346 1 $346 0 $165 $-1 forward 7 unknown #
vertex $-1 $166 $347 #
ellipse-curve $-1 44.1328650036791 -20.843450872045867 4.0115785477846657 0 -0.68199836817093118 0.7313536940579346 3 0 0 1 I I #
loop $-1 $348 $258 $252 #
point $-1 47.1328650036791 -22.947328524911683 6.2677110622890204 #
plane-surface $-1 70.226752525406653 0 0 -1 0 0 0 0 1 forward_v I I I I #
coedge $-1 $175 $173 $177 $270 reversed $103 $-1 #
edge $-1 $188 -11.560431155813822 $272 11.560431155813822 $187 $349 forward 7 unknown #
vertex $-1 $270 $350 #
straight-curve $-1 -70.226752525406653 -28.62307581796658 0 0 0 -1 I I #
edge $-1 $268 -28.62307581796658 $272 28.62307581796658 $266 $351 forward 7 unknown #
straight-curve $-1 0 -28.62307581796658 -11.560431155813822 -1 0 0 I I #
vertex $-1 $180 $352 #
straight-curve $-1 0 28.62307581796658 -11.560431155813822 1 0 0 I I #
point $-1 70.226752525406653 28.62307581796658 -11.560431155813822 #
point $-1 70.226752525406653 -28.62307581796658 -11.560431155813822 #
straight-curve $-1 -70.226752525406653 0 11.560431155813822 0 -1 0 I I #
point $-1 -70.226752525406653 28.62307581796658 11.560431155813822 #
point $-1 -70.226752525406653 -28.62307581796658 11.560431155813822 #
straight-curve $-1 70.226752525406653 -28.62307581796658 0 0 0 -1 I I #
straight-curve $-1 70.226752525406653 28.62307581796658 0 0 0 -1 I I #
face $-1 $353 $213 $16 $-1 $354 reversed single #
loop $-1 $-1 $203 $197 #
plane-surface $-1 0 0 -11.560431155813822 0 0 1 1 0 0 forward_v I I I I #
coedge $-1 $355 $356 $357 $358 forward $198 $-1 #
coedge $-1 $201 $200 $359 $360 reversed $71 $-1 #
edge $-1 $361 -11.560431155813822 $209 8.1382725778187979 $200 $362 forward 7 unknown #
edge $-1 $363 -11.560431155813822 $214 8.1382725778187979 $211 $364 forward 7 unknown #
straight-curve $-1 -70.226752525406653 0 -8.1382725778187979 0 -1 0 I I #
coedge $-1 $365 $203 $299 $366 forward $282 $-1 #
coedge $-1 $203 $365 $205 $294 forward $282 $-1 #
vertex $-1 $366 $367 #
straight-curve $-1 -56.905482163293883 0 -11.560431155813822 0 1 0 I I #
coedge $-1 $296 $205 $368 $369 reversed $122 $-1 #
edge $-1 $370 -70.226752525406653 $206 56.905482163293883 $205 $371 forward 7 unknown #
point $-1 -56.905482163293883 -28.62307581796658 -11.560431155813822 #
coedge $-1 $208 $293 $356 $372 reversed $122 $-1 #
point $-1 -70.226752525406653 -28.62307581796658 -8.1382725778187979 #
coedge $-1 $373 $211 $355 $374 reversed $213 $-1 #
coedge $-1 $212 $373 $289 $366 reversed $213 $-1 #
point $-1 -70.226752525406653 28.62307581796658 -8.1382725778187979 #
straight-curve $-1 -56.905482163293883 28.62307581796658 -4.9246759334081549 0 0 1 I I #
face $-1 $317 $375 $17 $-1 $376 reversed single #
loop $-1 $-1 $377 $219 #
plane-surface $-1 -56.905482163293883 0 -9.8493518668163098 -1 0 0 0 0 1 forward_v I I I I #
coedge $-1 $378 $379 $380 $381 reversed $220 $-1 #
coedge $-1 $222 $382 $383 $384 reversed $138 $-1 #
coedge $-1 $383 $232 $223 $308 forward $234 $-1 #
edge $-1 $312 -44.934487301397688 $309 -33.582992715287858 $307 $385 forward 7 unknown #
vertex $-1 $384 $386 #
straight-curve $-1 51.108568025670614 -28.62307581796658 51.848090365530645 0 0 -1 I I #
edge $-1 $230 7.2430635801075809 $312 31.658024157077882 $232 $387 forward 7 unknown #
vertex $-1 $311 $388 #
straight-curve $-1 51.108568025670614 -28.623075817966566 0.9749909687642031 0 -0.7313536940579346 -0.68199836817093118 I I #
point $-1 51.108568025670614 -28.62307581796658 0.97499096876418989 #
point $-1 26.693607448700313 -17.27158123185675 11.560431155813822 #
coedge $-1 $233 $389 $390 $391 forward $234 $-1 #
face $-1 $392 $234 $17 $-1 $393 forward single #
coedge $-1 $394 $236 $378 $395 forward $138 $-1 #
coedge $-1 $390 $396 $236 $320 reversed $375 $-1 #
edge $-1 $321 -11.560431155813822 $397 8.1382725778187979 $319 $398 forward 7 unknown #
vertex $-1 $391 $399 #
straight-curve $-1 0 -28.62307581796658 11.560431155813822 1 0 0 I I #
face $-1 $400 $401 $18 $-1 $402 reversed single #
loop $-1 $-1 $403 $240 #
plane-surface $-1 0 -28.62307581796658 0 0 1 0 0 0 1 forward_v I I I I #
coedge $-1 $404 $405 $403 $406 reversed $241 $-1 #
coedge $-1 $407 $328 $333 $408 reversed $243 $-1 #
coedge $-1 $327 $409 $244 $329 reversed $243 $-1 #
edge $-1 $334 -1.9403487555775418e-014 $410 15.521210432568896 $244 $411 forward 7 unknown #
coedge $-1 $412 $413 $245 $331 forward $414 $-1 #
edge $-1 $335 33.582992715287858 $410 44.934487301397688 $330 $415 forward 7 unknown #
coedge $-1 $416 $246 $413 $417 reversed $324 $-1 #
coedge $-1 $246 $403 $327 $408 forward $324 $-1 #
vertex $-1 $408 $418 #
vertex $-1 $331 $419 #
straight-curve $-1 26.693607448700313 -28.62307581796658 51.848090365530645 0 0 1 I I #
vertex $-1 $248 $420 #
point $-1 36.669310470691826 -20.843450872045867 4.0115785477846657 #
face $-1 $421 $422 $19 $-1 $423 forward single #
plane-surface $-1 38.901087737185463 -28.623075817966566 0.9749909687642031 0 -0.68199836817093118 0.7313536940579346 1 0 0 forward_v I I I I #
coedge $-1 $424 $425 $426 $427 reversed $253 $-1 #
coedge $-1 $342 $342 $-1 $428 forward $255 $-1 #
edge $-1 $429 0 $429 6.2831853071796004 $256 $430 forward 7 unknown #
vertex $-1 $259 $431 #
ellipse-curve $-1 33.669310470691826 -22.947328524911665 6.2677110622890062 0 0.68199836817093118 -0.7313536940579346 3 0 0 1 I I #
vertex $-1 $260 $432 #
point $-1 47.1328650036791 -20.843450872045867 4.0115785477846657 #
loop $-1 $-1 $433 $252 #
straight-curve $-1 -70.226752525406653 28.62307581796658 0 0 0 -1 I I #
point $-1 -70.226752525406653 -28.62307581796658 -11.560431155813822 #
straight-curve $-1 -70.226752525406653 0 -11.560431155813822 0 1 0 I I #
point $-1 -70.226752525406653 28.62307581796658 -11.560431155813822 #
face $-1 $-1 $434 $16 $-1 $435 reversed single #
plane-surface $-1 0 28.62307581796658 0 0 -1 0 0 0 -1 forward_v I I I I #
coedge $-1 $359 $284 $298 $374 forward $198 $-1 #
coedge $-1 $284 $359 $296 $372 forward $198 $-1 #
coedge $-1 $368 $436 $284 $358 reversed $434 $-1 #
edge $-1 $437 -28.62307581796658 $438 28.62307581796658 $357 $439 forward 7 unknown #
coedge $-1 $356 $355 $285 $360 forward $198 $-1 #
edge $-1 $363 -28.62307581796658 $361 28.62307581796658 $285 $440 forward 7 unknown #
vertex $-1 $360 $441 #
straight-curve $-1 -70.226752525406653 -28.62307581796658 0 0 0 -1 I I #
vertex $-1 $374 $442 #
straight-curve $-1 -70.226752525406653 28.62307581796658 0 0 0 -1 I I #
coedge $-1 $290 $289 $443 $444 forward $282 $-1 #
edge $-1 $291 -56.905482163293883 $445 70.226752525406653 $299 $446 forward 7 unknown #
point $-1 -56.905482163293883 28.62307581796658 -11.560431155813822 #
coedge $-1 $443 $357 $293 $369 forward $434 $-1 #
edge $-1 $437 -11.560431155813822 $370 11.560431155813822 $368 $447 forward 7 unknown #
vertex $-1 $369 $448 #
straight-curve $-1 0 -28.62307581796658 -11.560431155813822 -1 0 0 I I #
edge $-1 $361 -70.226752525406653 $437 70.226752525406653 $296 $449 forward 7 unknown #
coedge $-1 $299 $298 $436 $450 forward $213 $-1 #
edge $-1 $438 -70.226752525406653 $363 70.226752525406653 $298 $451 forward 7 unknown #
loop $-1 $-1 $396 $302 #
plane-surface $-1 -70.226752525406653 0 0 1 0 0 0 0 -1 forward_v I I I I #
coedge $-1 $380 $452 $394 $453 reversed $303 $-1 #
coedge $-1 $454 $305 $318 $395 reversed $220 $-1 #
coedge $-1 $305 $454 $455 $456 reversed $220 $-1 #
coedge $-1 $457 $377 $305 $381 forward $303 $-1 #
edge $-1 $458 -28.62307581796658 $459 28.62307581796658 $380 $460 forward 7 unknown #
coedge $-1 $306 $461 $462 $463 reversed $138 $-1 #
coedge $-1 $464 $307 $306 $384 forward $234 $-1 #
edge $-1 $309 51.108568025670614 $465 70.226752525406653 $306 $322 forward 7 unknown #
straight-curve $-1 51.108568025670614 -62.206068533254438 11.560431155813824 0 -1 0 I I #
point $-1 51.108568025670614 -28.62307581796658 11.560431155813822 #
straight-curve $-1 19.450543868592732 -17.27158123185675 11.560431155813822 1 0 0 I I #
point $-1 51.108568025670614 -17.27158123185675 11.560431155813822 #
coedge $-1 $316 $464 $466 $467 forward $234 $-1 #
coedge $-1 $468 $319 $316 $391 reversed $375 $-1 #
edge $-1 $469 -28.62307581796658 $321 28.62307581796658 $390 $470 forward 7 unknown #
face $-1 $471 $472 $17 $-1 $473 reversed single #
plane-surface $-1 0 0 11.560431155813822 0 0 1 1 0 0 forward_v I I I I #
coedge $-1 $461 $318 $377 $453 forward $138 $-1 #
edge $-1 $397 -38.443693853231522 $458 -25.122423491118749 $318 $474 forward 7 unknown #
coedge $-1 $319 $468 $454 $475 forward $375 $-1 #
vertex $-1 $395 $476 #
straight-curve $-1 -70.226752525406653 -28.62307581796658 0 0 0 -1 I I #
point $-1 -70.226752525406653 -28.62307581796658 11.560431155813822 #
face $-1 $477 $478 $18 $-1 $479 forward single #
loop $-1 $-1 $480 $323 #
plane-surface $-1 -63.566117344350268 0 -8.1382725778187979 0 0 1 1 0 0 forward_v I I I I #
coedge $-1 $333 $481 $326 $406 forward $324 $-1 #
coedge $-1 $405 $326 $482 $483 reversed $241 $-1 #
coedge $-1 $326 $404 $407 $484 forward $241 $-1 #
edge $-1 $485 40.287659209716821 $486 50.873099396766456 $403 $487 forward 7 unknown #
coedge $-1 $409 $327 $405 $484 reversed $243 $-1 #
edge $-1 $486 -31.658024157077882 $334 -7.2430635801075809 $333 $488 forward 7 unknown #
coedge $-1 $328 $407 $412 $489 reversed $243 $-1 #
vertex $-1 $489 $490 #
straight-curve $-1 26.693607448700313 -28.623075817966566 0.9749909687642031 0 0.7313536940579346 0.68199836817093118 I I #
coedge $-1 $482 $330 $409 $489 forward $414 $-1 #
coedge $-1 $330 $491 $332 $417 forward $414 $-1 #
loop $-1 $-1 $482 $492 #
straight-curve $-1 26.693607448700313 -62.206068533254438 11.560431155813824 0 1 0 I I #
coedge $-1 $493 $332 $494 $495 forward $324 $-1 #
edge $-1 $496 -70.226752525406653 $335 26.693607448700313 $332 $497 forward 7 unknown #
point $-1 26.693607448700313 -28.62307581796658 0.97499096876418989 #
point $-1 26.693607448700313 -28.62307581796658 11.560431155813822 #
point $-1 33.669310470691826 -18.797455767533076 1.8175174656108624 #
face $-1 $498 $499 $19 $-1 $500 reversed single #
loop $-1 $-1 $501 $339 #
plane-surface $-1 51.108568025670614 -124.41213706650888 103.69618073106129 -1 0 0 0 -0.68199836817093118 0.7313536940579346 forward_v I I I I #
coedge $-1 $425 $341 $502 $503 forward $253 $-1 #
coedge $-1 $341 $424 $504 $505 reversed $253 $-1 #
coedge $-1 $506 $507 $341 $427 forward $499 $-1 #
edge $-1 $508 -50.873099396766456 $509 -40.287659209716821 $426 $510 forward 7 unknown #
edge $-1 $511 1 $511 0 $342 $-1 forward 7 unknown #
vertex $-1 $343 $512 #
ellipse-curve $-1 33.669310470691826 -20.843450872045867 4.0115785477846657 0 -0.68199836817093118 0.7313536940579346 3 0 0 1 I I #
point $-1 36.669310470691826 -22.947328524911683 6.2677110622890204 #
point $-1 44.1328650036791 -18.797455767533076 1.8175174656108624 #
coedge $-1 $513 $502 $507 $514 reversed $348 $-1 #
loop $-1 $-1 $368 $353 #
plane-surface $-1 70.226752525406653 0 0 -1 0 0 0 0 1 forward_v I I I I #
coedge $-1 $357 $443 $373 $450 reversed $434 $-1 #
vertex $-1 $358 $515 #
vertex $-1 $358 $516 #
straight-curve $-1 70.226752525406653 0 11.560431155813822 0 1 0 I I #
straight-curve $-1 -70.226752525406653 0 11.560431155813822 0 -1 0 I I #
point $-1 -70.226752525406653 -28.62307581796658 11.560431155813822 #
point $-1 -70.226752525406653 28.62307581796658 11.560431155813822 #
coedge $-1 $436 $368 $365 $444 reversed $434 $-1 #
edge $-1 $445 -28.62307581796658 $370 28.62307581796658 $443 $517 forward 7 unknown #
vertex $-1 $444 $518 #
straight-curve $-1 0 28.62307581796658 -11.560431155813822 1 0 0 I I #
straight-curve $-1 70.226752525406653 -28.62307581796658 0 0 0 -1 I I #
point $-1 70.226752525406653 -28.62307581796658 -11.560431155813822 #
straight-curve $-1 0 -28.62307581796658 11.560431155813822 1 0 0 I I #
edge $-1 $438 -11.560431155813822 $445 11.560431155813822 $436 $519 forward 7 unknown #
straight-curve $-1 0 28.62307581796658 11.560431155813822 -1 0 0 I I #
coedge $-1 $377 $457 $520 $521 reversed $303 $-1 #
edge $-1 $458 3.213596644410643 $522 6.6357552224056668 $394 $523 forward 7 unknown #
coedge $-1 $379 $378 $396 $475 reversed $220 $-1 #
coedge $-1 $524 $525 $379 $456 forward $526 $-1 #
edge $-1 $459 25.122423491118749 $527 38.443693853231522 $455 $528 forward 7 unknown #
coedge $-1 $452 $380 $525 $529 reversed $303 $-1 #
vertex $-1 $395 $530 #
vertex $-1 $456 $531 #
straight-curve $-1 -56.905482163293883 0 -8.1382725778187979 0 1 0 I I #
coedge $-1 $382 $394 $532 $533 reversed $138 $-1 #
coedge $-1 $534 $535 $382 $463 forward $536 $-1 #
edge $-1 $465 -11.560431155813822 $537 11.560431155813822 $462 $538 forward 7 unknown #
coedge $-1 $389 $383 $535 $539 forward $234 $-1 #
vertex $-1 $539 $540 #
coedge $-1 $541 $524 $389 $467 reversed $526 $-1 #
edge $-1 $542 -70.226752525406653 $469 70.226752525406653 $466 $543 forward 7 unknown #
coedge $-1 $396 $390 $524 $544 forward $375 $-1 #
vertex $-1 $467 $545 #
straight-curve $-1 -70.226752525406653 0 11.560431155813822 0 -1 0 I I #
face $-1 $546 $526 $17 $-1 $547 reversed single #
loop $-1 $-1 $520 $392 #
plane-surface $-1 0 0 -11.560431155813822 0 0 1 1 0 0 forward_v I I I I #
straight-curve $-1 -31.783058672175134 -28.62307581796658 -8.1382725778187979 1 0 0 I I #
edge $-1 $527 -28.62307581796658 $397 28.62307581796658 $396 $548 forward 7 unknown #
point $-1 -70.226752525406653 -28.62307581796658 -8.1382725778187979 #
face $-1 $492 $549 $18 $-1 $550 reversed single #
loop $-1 $-1 $551 $400 #
plane-surface $-1 -56.905482163293883 0 -9.8493518668163098 -1 0 0 0 0 1 forward_v I I I I #
coedge $-1 $552 $553 $554 $555 reversed $401 $-1 #
coedge $-1 $403 $556 $557 $558 reversed $324 $-1 #
coedge $-1 $557 $412 $404 $483 forward $414 $-1 #
edge $-1 $559 -44.934487301397688 $485 -33.582992715287858 $482 $560 forward 7 unknown #
edge $-1 $559 -15.521210432568896 $486 1.9403487555775418e-014 $405 $561 forward 7 unknown #
vertex $-1 $558 $562 #
vertex $-1 $408 $563 #
straight-curve $-1 51.108568025670614 -28.62307581796658 51.848090365530645 0 0 -1 I I #
straight-curve $-1 19.450543868592732 -28.62307581796658 0.97499096876419011 -1 0 0 I I #
edge $-1 $410 7.2430635801075809 $559 31.658024157077882 $412 $564 forward 7 unknown #
point $-1 26.693607448700313 -17.27158123185675 11.560431155813822 #
coedge $-1 $413 $565 $566 $567 forward $414 $-1 #
face $-1 $568 $414 $18 $-1 $569 forward single #
coedge $-1 $570 $416 $552 $571 forward $324 $-1 #
coedge $-1 $566 $572 $416 $495 reversed $549 $-1 #
edge $-1 $496 -11.560431155813822 $573 8.1382725778187979 $494 $574 forward 7 unknown #
vertex $-1 $567 $575 #
straight-curve $-1 0 -28.62307581796658 11.560431155813822 1 0 0 I I #
face $-1 $576 $577 $19 $-1 $578 reversed single #
loop $-1 $-1 $579 $421 #
plane-surface $-1 0 -28.62307581796658 0 0 1 0 0 0 1 forward_v I I I I #
coedge $-1 $580 $581 $579 $582 reversed $422 $-1 #
coedge $-1 $433 $583 $424 $503 reversed $348 $-1 #
edge $-1 $508 -1.9403487555775418e-014 $584 15.521210432568896 $424 $585 forward 7 unknown #
coedge $-1 $586 $587 $425 $505 forward $588 $-1 #
edge $-1 $509 33.582992715287858 $584 44.934487301397688 $504 $589 forward 7 unknown #
coedge $-1 $590 $426 $587 $591 reversed $499 $-1 #
coedge $-1 $426 $579 $433 $514 forward $499 $-1 #
vertex $-1 $514 $592 #
vertex $-1 $505 $593 #
straight-curve $-1 26.693607448700313 -28.62307581796658 51.848090365530645 0 0 1 I I #
vertex $-1 $428 $594 #
point $-1 36.669310470691826 -20.843450872045867 4.0115785477846657 #
coedge $-1 $583 $433 $581 $595 reversed $348 $-1 #
edge $-1 $596 -31.658024157077882 $508 -7.2430635801075809 $507 $597 forward 7 unknown #
point $-1 70.226752525406653 -28.62307581796658 11.560431155813822 #
point $-1 70.226752525406653 28.62307581796658 11.560431155813822 #
straight-curve $-1 70.226752525406653 0 -11.560431155813822 0 -1 0 I I #
point $-1 70.226752525406653 28.62307581796658 -11.560431155813822 #
straight-curve $-1 70.226752525406653 28.62307581796658 0 0 0 -1 I I #
coedge $-1 $598 $532 $452 $521 forward $472 $-1 #
edge $-1 $522 -28.62307581796658 $599 28.62307581796658 $520 $600 forward 7 unknown #
vertex $-1 $453 $601 #
straight-curve $-1 -56.905482163293883 -28.62307581796658 -4.9246759334081549 0 0 -1 I I #
coedge $-1 $466 $455 $468 $544 reversed $526 $-1 #
coedge $-1 $455 $602 $457 $529 forward $526 $-1 #
loop $-1 $-1 $455 $471 #
vertex $-1 $475 $603 #
straight-curve $-1 -31.783058672175134 28.62307581796658 -8.1382725778187979 -1 0 0 I I #
edge $-1 $599 -6.6357552224056668 $459 -3.213596644410643 $525 $604 forward 7 unknown #
point $-1 -56.905482163293883 -28.62307581796658 -8.1382725778187979 #
point $-1 -56.905482163293883 28.62307581796658 -8.1382725778187979 #
coedge $-1 $520 $605 $461 $533 forward $472 $-1 #
edge $-1 $537 -70.226752525406653 $522 56.905482163293883 $461 $606 forward 7 unknown #
coedge $-1 $607 $462 $605 $608 reversed $536 $-1 #
coedge $-1 $462 $607 $464 $539 reversed $536 $-1 #
loop $-1 $-1 $462 $546 #
vertex $-1 $463 $609 #
straight-curve $-1 70.226752525406653 -28.62307581796658 0 0 0 -1 I I #
edge $-1 $465 -28.62307581796658 $542 28.62307581796658 $535 $610 forward 7 unknown #
point $-1 70.226752525406653 -28.62307581796658 11.560431155813822 #
coedge $-1 $602 $466 $607 $611 forward $526 $-1 #
vertex $-1 $539 $612 #
straight-curve $-1 0 28.62307581796658 11.560431155813822 -1 0 0 I I #
edge $-1 $469 -11.560431155813822 $527 8.1382725778187979 $524 $613 forward 7 unknown #
point $-1 -70.226752525406653 28.62307581796658 11.560431155813822 #
face $-1 $-1 $536 $17 $-1 $614 reversed single #
plane-surface $-1 0 28.62307581796658 0 0 -1 0 0 0 -1 forward_v I I I I #
straight-curve $-1 -70.226752525406653 0 -8.1382725778187979 0 -1 0 I I #
loop $-1 $-1 $572 $477 #
plane-surface $-1 -70.226752525406653 0 0 1 0 0 0 0 -1 forward_v I I I I #
coedge $-1 $554 $615 $570 $616 reversed $478 $-1 #
coedge $-1 $617 $480 $493 $571 reversed $401 $-1 #
coedge $-1 $480 $617 $618 $619 reversed $401 $-1 #
coedge $-1 $620 $551 $480 $555 forward $478 $-1 #
edge $-1 $621 -28.62307581796658 $622 28.62307581796658 $554 $623 forward 7 unknown #
coedge $-1 $481 $624 $625 $626 reversed $324 $-1 #
coedge $-1 $627 $482 $481 $558 forward $414 $-1 #
edge $-1 $485 51.108568025670614 $628 70.226752525406653 $481 $497 forward 7 unknown #
vertex $-1 $489 $629 #
straight-curve $-1 51.108568025670614 -62.206068533254438 11.560431155813824 0 -1 0 I I #
straight-curve $-1 51.108568025670614 -28.623075817966566 0.9749909687642031 0 -0.7313536940579346 -0.68199836817093118 I I #
point $-1 51.108568025670614 -28.62307581796658 11.560431155813822 #
point $-1 51.108568025670614 -28.62307581796658 0.97499096876418989 #
straight-curve $-1 19.450543868592732 -17.27158123185675 11.560431155813822 1 0 0 I I #
coedge $-1 $491 $627 $630 $631 forward $414 $-1 #
coedge $-1 $632 $494 $491 $567 reversed $549 $-1 #
edge $-1 $633 -28.62307581796658 $496 28.62307581796658 $566 $634 forward 7 unknown #
face $-1 $635 $636 $18 $-1 $637 reversed single #
plane-surface $-1 0 0 11.560431155813822 0 0 1 1 0 0 forward_v I I I I #
coedge $-1 $624 $493 $551 $616 forward $324 $-1 #
edge $-1 $573 -38.443693853231522 $621 -25.122423491118749 $493 $638 forward 7 unknown #
coedge $-1 $494 $632 $617 $639 forward $549 $-1 #
vertex $-1 $571 $640 #
straight-curve $-1 -70.226752525406653 -28.62307581796658 0 0 0 -1 I I #
point $-1 -70.226752525406653 -28.62307581796658 11.560431155813822 #
face $-1 $641 $642 $19 $-1 $643 forward single #
loop $-1 $-1 $644 $498 #
plane-surface $-1 -63.566117344350268 0 -8.1382725778187979 0 0 1 1 0 0 forward_v I I I I #
coedge $-1 $507 $645 $501 $582 forward $499 $-1 #
coedge $-1 $581 $501 $646 $647 reversed $422 $-1 #
coedge $-1 $501 $580 $513 $595 forward $422 $-1 #
edge $-1 $648 40.287659209716821 $596 50.873099396766456 $579 $649 forward 7 unknown #
coedge $-1 $502 $513 $586 $650 reversed $348 $-1 #
vertex $-1 $650 $651 #
straight-curve $-1 26.693607448700313 -28.623075817966566 0.9749909687642031 0 0.7313536940579346 0.68199836817093118 I I #
coedge $-1 $646 $504 $583 $650 forward $588 $-1 #
coedge $-1 $504 $652 $506 $591 forward $588 $-1 #
loop $-1 $-1 $646 $653 #
straight-curve $-1 26.693607448700313 -62.206068533254438 11.560431155813824 0 1 0 I I #
coedge $-1 $654 $506 $655 $656 forward $499 $-1 #
edge $-1 $657 -70.226752525406653 $509 26.693607448700313 $506 $658 forward 7 unknown #
point $-1 26.693607448700313 -28.62307581796658 0.97499096876418989 #
point $-1 26.693607448700313 -28.62307581796658 11.560431155813822 #
point $-1 33.669310470691826 -18.797455767533076 1.8175174656108624 #
edge $-1 $659 -15.521210432568896 $596 1.9403487555775418e-014 $581 $660 forward 7 unknown #
vertex $-1 $514 $661 #
straight-curve $-1 19.450543868592732 -28.62307581796658 0.97499096876419011 -1 0 0 I I #
coedge $-1 $605 $520 $602 $662 forward $472 $-1 #
vertex $-1 $662 $663 #
straight-curve $-1 -56.905482163293883 0 -11.560431155813822 0 1 0 I I #
point $-1 -56.905482163293883 -28.62307581796658 -11.560431155813822 #
coedge $-1 $525 $541 $598 $662 reversed $526 $-1 #
point $-1 -70.226752525406653 28.62307581796658 -8.1382725778187979 #
straight-curve $-1 -56.905482163293883 28.62307581796658 -4.9246759334081549 0 0 1 I I #
coedge $-1 $532 $598 $534 $608 forward $472 $-1 #
straight-curve $-1 0 -28.62307581796658 -11.560431155813822 -1 0 0 I I #
coedge $-1 $535 $534 $541 $611 reversed $536 $-1 #
edge $-1 $664 -28.62307581796658 $537 28.62307581796658 $534 $665 forward 7 unknown #
point $-1 70.226752525406653 -28.62307581796658 -11.560431155813822 #
straight-curve $-1 70.226752525406653 0 11.560431155813822 0 1 0 I I #
edge $-1 $542 -11.560431155813822 $664 11.560431155813822 $607 $666 forward 7 unknown #
point $-1 70.226752525406653 28.62307581796658 11.560431155813822 #
straight-curve $-1 -70.226752525406653 28.62307581796658 0 0 0 -1 I I #
plane-surface $-1 70.226752525406653 0 0 -1 0 0 0 0 1 forward_v I I I I #
coedge $-1 $551 $620 $667 $668 reversed $478 $-1 #
edge $-1 $621 3.213596644410643 $669 6.6357552224056668 $570 $670 forward 7 unknown #
coedge $-1 $553 $552 $572 $639 reversed $401 $-1 #
coedge $-1 $671 $672 $553 $619 forward $673 $-1 #
edge $-1 $622 25.122423491118749 $674 38.443693853231522 $618 $675 forward 7 unknown #
coedge $-1 $615 $554 $672 $676 reversed $478 $-1 #
vertex $-1 $571 $677 #
vertex $-1 $619 $678 #
straight-curve $-1 -56.905482163293883 0 -8.1382725778187979 0 1 0 I I #
coedge $-1 $556 $570 $679 $680 reversed $324 $-1 #
coedge $-1 $681 $682 $556 $626 forward $683 $-1 #
edge $-1 $628 -11.560431155813822 $684 11.560431155813822 $625 $685 forward 7 unknown #
coedge $-1 $565 $557 $682 $686 forward $414 $-1 #
vertex $-1 $686 $687 #
point $-1 51.108568025670614 -17.27158123185675 11.560431155813822 #
coedge $-1 $688 $671 $565 $631 reversed $673 $-1 #
edge $-1 $689 -70.226752525406653 $633 70.226752525406653 $630 $690 forward 7 unknown #
coedge $-1 $572 $566 $671 $691 forward $549 $-1 #
vertex $-1 $631 $692 #
straight-curve $-1 -70.226752525406653 0 11.560431155813822 0 -1 0 I I #
face $-1 $693 $673 $18 $-1 $694 reversed single #
loop $-1 $-1 $667 $568 #
plane-surface $-1 0 0 -11.560431155813822 0 0 1 1 0 0 forward_v I I I I #
straight-curve $-1 -31.783058672175134 -28.62307581796658 -8.1382725778187979 1 0 0 I I #
edge $-1 $674 -28.62307581796658 $573 28.62307581796658 $572 $695 forward 7 unknown #
point $-1 -70.226752525406653 -28.62307581796658 -8.1382725778187979 #
face $-1 $653 $696 $19 $-1 $697 reversed single #
loop $-1 $-1 $698 $576 #
plane-surface $-1 -56.905482163293883 0 -9.8493518668163098 -1 0 0 0 0 1 forward_v I I I I #
coedge $-1 $699 $700 $701 $702 reversed $577 $-1 #
coedge $-1 $579 $703 $704 $705 reversed $499 $-1 #
coedge $-1 $704 $586 $580 $647 forward $588 $-1 #
edge $-1 $659 -44.934487301397688 $648 -33.582992715287858 $646 $706 forward 7 unknown #
vertex $-1 $705 $707 #
straight-curve $-1 51.108568025670614 -28.62307581796658 51.848090365530645 0 0 -1 I I #
edge $-1 $584 7.2430635801075809 $659 31.658024157077882 $586 $708 forward 7 unknown #
point $-1 26.693607448700313 -17.27158123185675 11.560431155813822 #
coedge $-1 $587 $709 $710 $711 forward $588 $-1 #
face $-1 $712 $588 $19 $-1 $713 forward single #
coedge $-1 $714 $590 $699 $715 forward $499 $-1 #
coedge $-1 $710 $716 $590 $656 reversed $696 $-1 #
edge $-1 $657 -11.560431155813822 $717 8.1382725778187979 $655 $718 forward 7 unknown #
vertex $-1 $711 $719 #
straight-curve $-1 0 -28.62307581796658 11.560431155813822 1 0 0 I I #
vertex $-1 $650 $720 #
straight-curve $-1 51.108568025670614 -28.623075817966566 0.9749909687642031 0 -0.7313536940579346 -0.68199836817093118 I I #
point $-1 51.108568025670614 -28.62307581796658 0.97499096876418989 #
edge $-1 $599 -56.905482163293883 $664 70.226752525406653 $602 $721 forward 7 unknown #
point $-1 -56.905482163293883 28.62307581796658 -11.560431155813822 #
vertex $-1 $608 $722 #
straight-curve $-1 70.226752525406653 0 -11.560431155813822 0 -1 0 I I #
straight-curve $-1 70.226752525406653 28.62307581796658 0 0 0 -1 I I #
coedge $-1 $723 $679 $615 $668 forward $636 $-1 #
edge $-1 $669 -28.62307581796658 $724 28.62307581796658 $667 $725 forward 7 unknown #
vertex $-1 $616 $726 #
straight-curve $-1 -56.905482163293883 -28.62307581796658 -4.9246759334081549 0 0 -1 I I #
coedge $-1 $630 $618 $632 $691 reversed $673 $-1 #
coedge $-1 $618 $727 $620 $676 forward $673 $-1 #
loop $-1 $-1 $618 $635 #
vertex $-1 $639 $728 #
straight-curve $-1 -31.783058672175134 28.62307581796658 -8.1382725778187979 -1 0 0 I I #
edge $-1 $724 -6.6357552224056668 $622 -3.213596644410643 $672 $729 forward 7 unknown #
point $-1 -56.905482163293883 -28.62307581796658 -8.1382725778187979 #
point $-1 -56.905482163293883 28.62307581796658 -8.1382725778187979 #
coedge $-1 $667 $730 $624 $680 forward $636 $-1 #
edge $-1 $684 -70.226752525406653 $669 56.905482163293883 $624 $731 forward 7 unknown #
coedge $-1 $732 $625 $730 $733 reversed $683 $-1 #
coedge $-1 $625 $732 $627 $686 reversed $683 $-1 #
loop $-1 $-1 $625 $693 #
vertex $-1 $626 $734 #
straight-curve $-1 70.226752525406653 -28.62307581796658 0 0 0 -1 I I #
edge $-1 $628 -28.62307581796658 $689 28.62307581796658 $682 $735 forward 7 unknown #
point $-1 70.226752525406653 -28.62307581796658 11.560431155813822 #
coedge $-1 $727 $630 $732 $736 forward $673 $-1 #
vertex $-1 $686 $737 #
straight-curve $-1 0 28.62307581796658 11.560431155813822 -1 0 0 I I #
edge $-1 $633 -11.560431155813822 $674 8.1382725778187979 $671 $738 forward 7 unknown #
point $-1 -70.226752525406653 28.62307581796658 11.560431155813822 #
face $-1 $-1 $683 $18 $-1 $739 reversed single #
plane-surface $-1 0 28.62307581796658 0 0 -1 0 0 0 -1 forward_v I I I I #
straight-curve $-1 -70.226752525406653 0 -8.1382725778187979 0 -1 0 I I #
loop $-1 $-1 $716 $641 #
plane-surface $-1 -70.226752525406653 0 0 1 0 0 0 0 -1 forward_v I I I I #
coedge $-1 $701 $740 $714 $741 reversed $642 $-1 #
coedge $-1 $742 $644 $654 $715 reversed $577 $-1 #
coedge $-1 $644 $742 $743 $744 reversed $577 $-1 #
coedge $-1 $745 $698 $644 $702 forward $642 $-1 #
edge $-1 $746 -28.62307581796658 $747 28.62307581796658 $701 $748 forward 7 unknown #
coedge $-1 $645 $749 $750 $751 reversed $499 $-1 #
coedge $-1 $752 $646 $645 $705 forward $588 $-1 #
edge $-1 $648 51.108568025670614 $753 70.226752525406653 $645 $658 forward 7 unknown #
straight-curve $-1 51.108568025670614 -62.206068533254438 11.560431155813824 0 -1 0 I I #
point $-1 51.108568025670614 -28.62307581796658 11.560431155813822 #
straight-curve $-1 19.450543868592732 -17.27158123185675 11.560431155813822 1 0 0 I I #
coedge $-1 $652 $752 $754 $755 forward $588 $-1 #
coedge $-1 $756 $655 $652 $711 reversed $696 $-1 #
edge $-1 $757 -28.62307581796658 $657 28.62307581796658 $710 $758 forward 7 unknown #
face $-1 $759 $760 $19 $-1 $761 reversed single #
plane-surface $-1 0 0 11.560431155813822 0 0 1 1 0 0 forward_v I I I I #
coedge $-1 $749 $654 $698 $741 forward $499 $-1 #
edge $-1 $717 -38.443693853231522 $746 -25.122423491118749 $654 $762 forward 7 unknown #
coedge $-1 $655 $756 $742 $763 forward $696 $-1 #
vertex $-1 $715 $764 #
straight-curve $-1 -70.226752525406653 -28.62307581796658 0 0 0 -1 I I #
point $-1 -70.226752525406653 -28.62307581796658 11.560431155813822 #
point $-1 51.108568025670614 -17.27158123185675 11.560431155813822 #
straight-curve $-1 0 28.62307581796658 -11.560431155813822 1 0 0 I I #
point $-1 70.226752525406653 28.62307581796658 -11.560431155813822 #
coedge $-1 $730 $667 $727 $765 forward $636 $-1 #
vertex $-1 $765 $766 #
straight-curve $-1 -56.905482163293883 0 -11.560431155813822 0 1 0 I I #
point $-1 -56.905482163293883 -28.62307581796658 -11.560431155813822 #
coedge $-1 $672 $688 $723 $765 reversed $673 $-1 #
point $-1 -70.226752525406653 28.62307581796658 -8.1382725778187979 #
straight-curve $-1 -56.905482163293883 28.62307581796658 -4.9246759334081549 0 0 1 I I #
coedge $-1 $679 $723 $681 $733 forward $636 $-1 #
straight-curve $-1 0 -28.62307581796658 -11.560431155813822 -1 0 0 I I #
coedge $-1 $682 $681 $688 $736 reversed $683 $-1 #
edge $-1 $767 -28.62307581796658 $684 28.62307581796658 $681 $768 forward 7 unknown #
point $-1 70.226752525406653 -28.62307581796658 -11.560431155813822 #
straight-curve $-1 70.226752525406653 0 11.560431155813822 0 1 0 I I #
edge $-1 $689 -11.560431155813822 $767 11.560431155813822 $732 $769 forward 7 unknown #
point $-1 70.226752525406653 28.62307581796658 11.560431155813822 #
straight-curve $-1 -70.226752525406653 28.62307581796658 0 0 0 -1 I I #
plane-surface $-1 70.226752525406653 0 0 -1 0 0 0 0 1 forward_v I I I I #
coedge $-1 $698 $745 $770 $771 reversed $642 $-1 #
edge $-1 $746 3.213596644410643 $772 6.6357552224056668 $714 $773 forward 7 unknown #
coedge $-1 $700 $699 $716 $763 reversed $577 $-1 #
coedge $-1 $774 $775 $700 $744 forward $776 $-1 #
edge $-1 $747 25.122423491118749 $777 38.443693853231522 $743 $778 forward 7 unknown #
coedge $-1 $740 $701 $775 $779 reversed $642 $-1 #
vertex $-1 $715 $780 #
vertex $-1 $744 $781 #
straight-curve $-1 -56.905482163293883 0 -8.1382725778187979 0 1 0 I I #
coedge $-1 $703 $714 $782 $783 reversed $499 $-1 #
coedge $-1 $784 $785 $703 $751 forward $786 $-1 #
edge $-1 $753 -11.560431155813822 $787 11.560431155813822 $750 $788 forward 7 unknown #
coedge $-1 $709 $704 $785 $789 forward $588 $-1 #
vertex $-1 $789 $790 #
coedge $-1 $791 $774 $709 $755 reversed $776 $-1 #
edge $-1 $792 -70.226752525406653 $757 70.226752525406653 $754 $793 forward 7 unknown #
coedge $-1 $716 $710 $774 $794 forward $696 $-1 #
vertex $-1 $755 $795 #
straight-curve $-1 -70.226752525406653 0 11.560431155813822 0 -1 0 I I #
face $-1 $796 $776 $19 $-1 $797 reversed single #
loop $-1 $-1 $770 $712 #
plane-surface $-1 0 0 -11.560431155813822 0 0 1 1 0 0 forward_v I I I I #
straight-curve $-1 -31.783058672175134 -28.62307581796658 -8.1382725778187979 1 0 0 I I #
edge $-1 $777 -28.62307581796658 $717 28.62307581796658 $716 $798 forward 7 unknown #
point $-1 -70.226752525406653 -28.62307581796658 -8.1382725778187979 #
edge $-1 $724 -56.905482163293883 $767 70.226752525406653 $727 $799 forward 7 unknown #
point $-1 -56.905482163293883 28.62307581796658 -11.560431155813822 #
vertex $-1 $733 $800 #
straight-curve $-1 70.226752525406653 0 -11.560431155813822 0 -1 0 I I #
straight-curve $-1 70.226752525406653 28.62307581796658 0 0 0 -1 I I #
coedge $-1 $801 $782 $740 $771 forward $760 $-1 #
edge $-1 $772 -28.62307581796658 $802 28.62307581796658 $770 $803 forward 7 unknown #
vertex $-1 $741 $804 #
straight-curve $-1 -56.905482163293883 -28.62307581796658 -4.9246759334081549 0 0 -1 I I #
coedge $-1 $754 $743 $756 $794 reversed $776 $-1 #
coedge $-1 $743 $805 $745 $779 forward $776 $-1 #
loop $-1 $-1 $743 $759 #
vertex $-1 $763 $806 #
straight-curve $-1 -31.783058672175134 28.62307581796658 -8.1382725778187979 -1 0 0 I I #
edge $-1 $802 -6.6357552224056668 $747 -3.213596644410643 $775 $807 forward 7 unknown #
point $-1 -56.905482163293883 -28.62307581796658 -8.1382725778187979 #
point $-1 -56.905482163293883 28.62307581796658 -8.1382725778187979 #
coedge $-1 $770 $808 $749 $783 forward $760 $-1 #
edge $-1 $787 -70.226752525406653 $772 56.905482163293883 $749 $809 forward 7 unknown #
coedge $-1 $810 $750 $808 $811 reversed $786 $-1 #
coedge $-1 $750 $810 $752 $789 reversed $786 $-1 #
loop $-1 $-1 $750 $796 #
vertex $-1 $751 $812 #
straight-curve $-1 70.226752525406653 -28.62307581796658 0 0 0 -1 I I #
edge $-1 $753 -28.62307581796658 $792 28.62307581796658 $785 $813 forward 7 unknown #
point $-1 70.226752525406653 -28.62307581796658 11.560431155813822 #
coedge $-1 $805 $754 $810 $814 forward $776 $-1 #
vertex $-1 $789 $815 #
straight-curve $-1 0 28.62307581796658 11.560431155813822 -1 0 0 I I #
edge $-1 $757 -11.560431155813822 $777 8.1382725778187979 $774 $816 forward 7 unknown #
point $-1 -70.226752525406653 28.62307581796658 11.560431155813822 #
face $-1 $-1 $786 $19 $-1 $817 reversed single #
plane-surface $-1 0 28.62307581796658 0 0 -1 0 0 0 -1 forward_v I I I I #
straight-curve $-1 -70.226752525406653 0 -8.1382725778187979 0 -1 0 I I #
straight-curve $-1 0 28.62307581796658 -11.560431155813822 1 0 0 I I #
point $-1 70.226752525406653 28.62307581796658 -11.560431155813822 #
coedge $-1 $808 $770 $805 $818 forward $760 $-1 #
vertex $-1 $818 $819 #
straight-curve $-1 -56.905482163293883 0 -11.560431155813822 0 1 0 I I #
point $-1 -56.905482163293883 -28.62307581796658 -11.560431155813822 #
coedge $-1 $775 $791 $801 $818 reversed $776 $-1 #
point $-1 -70.226752525406653 28.62307581796658 -8.1382725778187979 #
straight-curve $-1 -56.905482163293883 28.62307581796658 -4.9246759334081549 0 0 1 I I #
coedge $-1 $782 $801 $784 $811 forward $760 $-1 #
straight-curve $-1 0 -28.62307581796658 -11.560431155813822 -1 0 0 I I #
coedge $-1 $785 $784 $791 $814 reversed $786 $-1 #
edge $-1 $820 -28.62307581796658 $787 28.62307581796658 $784 $821 forward 7 unknown #
point $-1 70.226752525406653 -28.62307581796658 -11.560431155813822 #
straight-curve $-1 70.226752525406653 0 11.560431155813822 0 1 0 I I #
edge $-1 $792 -11.560431155813822 $820 11.560431155813822 $810 $822 forward 7 unknown #
point $-1 70.226752525406653 28.62307581796658 11.560431155813822 #
straight-curve $-1 -70.226752525406653 28.62307581796658 0 0 0 -1 I I #
plane-surface $-1 70.226752525406653 0 0 -1 0 0 0 0 1 forward_v I I I I #
edge $-1 $802 -56.905482163293883 $820 70.226752525406653 $805 $823 forward 7 unknown #
point $-1 -56.905482163293883 28.62307581796658 -11.560431155813822 #
vertex $-1 $811 $824 #
straight-curve $-1 70.226752525406653 0 -11.560431155813822 0 -1 0 I I #
straight-curve $-1 70.226752525406653 28.62307581796658 0 0 0 -1 I I #
straight-curve $-1 0 28.62307581796658 -11.560431155813822 1 0 0 I I #
point $-1 70.226752525406653 28.62307581796658 -11.560431155813822 #
End-of-ACIS-data 