500 0 10 0           
7 Unknown 11 ACIS 5.0 NT 24 Fri Mar 26 18:24:24 1999 
-1 9.9999999999999995e-007 1e-010 
body $-1 $10 $-1 $11 #
body $-1 $12 $-1 $13 #
body $-1 $14 $-1 $15 #
body $-1 $16 $-1 $17 #
body $-1 $18 $-1 $19 #
body $-1 $20 $-1 $21 #
body $-1 $22 $-1 $23 #
body $-1 $24 $-1 $25 #
body $-1 $26 $-1 $27 #
body $-1 $28 $-1 $29 #
lump $-1 $-1 $30 $0 #
transform $-1 1 0 0 0 1 0 0 0 1 57.295449690237128 23.039355896589051 4.8120592024010787 1 rotate no_reflect no_shear #
lump $-1 $-1 $31 $1 #
transform $-1 1 0 0 0 1 0 0 0 1 57.295449690237128 23.039355896589051 4.8120592024010787 1 rotate no_reflect no_shear #
lump $-1 $-1 $32 $2 #
transform $-1 1 0 0 0 1 0 0 0 1 57.295449690237128 23.039355896589051 4.8120592024010787 1 rotate no_reflect no_shear #
lump $-1 $-1 $33 $3 #
transform $-1 1 0 0 0 1 0 0 0 1 57.295449690237128 23.039355896589051 4.8120592024010787 1 rotate no_reflect no_shear #
lump $-1 $-1 $34 $4 #
transform $-1 1 0 0 0 1 0 0 0 1 57.295449690237128 23.039355896589051 4.8120592024010787 1 rotate no_reflect no_shear #
lump $-1 $-1 $35 $5 #
transform $-1 1 0 0 0 1 0 0 0 1 57.295449690237128 23.039355896589051 4.8120592024010787 1 rotate no_reflect no_shear #
lump $-1 $-1 $36 $6 #
transform $-1 1 0 0 0 1 0 0 0 1 57.295449690237128 23.039355896589051 4.8120592024010787 1 rotate no_reflect no_shear #
lump $-1 $-1 $37 $7 #
transform $-1 1 0 0 0 1 0 0 0 1 57.295449690237128 23.039355896589051 4.8120592024010787 1 rotate no_reflect no_shear #
lump $-1 $-1 $38 $8 #
transform $-1 1 0 0 0 1 0 0 0 1 57.295449690237128 23.039355896589051 4.8120592024010787 1 rotate no_reflect no_shear #
lump $-1 $-1 $39 $9 #
transform $-1 1 0 0 0 1 0 0 0 1 57.295449690237128 23.039355896589051 4.8120592024010787 1 rotate no_reflect no_shear #
shell $-1 $-1 $-1 $40 $-1 $10 #
shell $-1 $-1 $-1 $41 $-1 $12 #
shell $-1 $-1 $-1 $42 $-1 $14 #
shell $-1 $-1 $-1 $43 $-1 $16 #
shell $-1 $-1 $-1 $44 $-1 $18 #
shell $-1 $-1 $-1 $45 $-1 $20 #
shell $-1 $-1 $-1 $46 $-1 $22 #
shell $-1 $-1 $-1 $47 $-1 $24 #
shell $-1 $-1 $-1 $48 $-1 $26 #
shell $-1 $-1 $-1 $49 $-1 $28 #
face $-1 $50 $51 $30 $-1 $52 forward single #
face $-1 $53 $54 $31 $-1 $55 reversed single #
face $-1 $56 $57 $32 $-1 $58 reversed single #
face $-1 $59 $60 $33 $-1 $61 forward single #
face $-1 $62 $63 $34 $-1 $64 forward single #
face $-1 $65 $66 $35 $-1 $67 forward single #
face $-1 $68 $69 $36 $-1 $70 reversed single #
face $-1 $71 $72 $37 $-1 $73 forward single #
face $-1 $74 $75 $38 $-1 $76 forward single #
face $-1 $77 $78 $39 $-1 $79 forward single #
face $-1 $80 $81 $30 $-1 $82 reversed single #
loop $-1 $-1 $83 $40 #
plane-surface $-1 0 0 4.8120592024010787 0 0 1 1 0 0 forward_v I I I I #
face $-1 $84 $85 $31 $-1 $86 reversed single #
loop $-1 $-1 $87 $41 #
plane-surface $-1 0 -20.988266143616155 1.8120592024010787 0 0 1 1 0 0 forward_v I I I I #
face $-1 $88 $89 $32 $-1 $90 reversed single #
loop $-1 $-1 $91 $42 #
plane-surface $-1 -40.309286998852855 77.364314828329924 111.88787071719277 1 0 0 0 -0.74314483375859142 -0.66913059716165679 forward_v I I I I #
face $-1 $92 $93 $33 $-1 $94 forward single #
loop $-1 $95 $96 $43 #
cone-surface $-1 -36.538282246786473 20.597079963162361 2.2492779667058929 0 -0.74314483375859142 -0.66913059716165679 1 0 0 1 I I 0 1 1 forward I I I I #
face $-1 $97 $98 $34 $-1 $99 forward single #
loop $-1 $100 $101 $44 #
cone-surface $-1 -30.881775118686896 20.597079963162361 2.2492779667058929 0 -0.74314483375859142 -0.66913059716165679 1 0 0 1 I I 0 1 1 forward I I I I #
face $-1 $102 $103 $35 $-1 $104 forward single #
loop $-1 $105 $106 $45 #
cone-surface $-1 -25.225267990587319 20.597079963162361 2.2492779667058929 0 -0.74314483375859142 -0.66913059716165679 1 0 0 1 I I 0 1 1 forward I I I I #
face $-1 $107 $108 $36 $-1 $109 reversed single #
loop $-1 $-1 $110 $46 #
plane-surface $-1 16.98616269138428 77.364314828329924 111.88787071719277 1 0 0 0 -0.74314483375859142 -0.66913059716165679 forward_v I I I I #
face $-1 $111 $112 $37 $-1 $113 forward single #
loop $-1 $114 $115 $47 #
cone-surface $-1 20.757167443450662 20.597079963162361 2.2492779667058929 0 -0.74314483375859142 -0.66913059716165679 1 0 0 1 I I 0 1 1 forward I I I I #
face $-1 $116 $117 $38 $-1 $118 forward single #
loop $-1 $119 $120 $48 #
cone-surface $-1 26.413674571550239 20.597079963162361 2.2492779667058929 0 -0.74314483375859142 -0.66913059716165679 1 0 0 1 I I 0 1 1 forward I I I I #
face $-1 $121 $122 $39 $-1 $123 forward single #
loop $-1 $124 $125 $49 #
cone-surface $-1 32.070181699649815 20.597079963162361 2.2492779667058929 0 -0.74314483375859142 -0.66913059716165679 1 0 0 1 I I 0 1 1 forward I I I I #
face $-1 $126 $127 $30 $-1 $128 reversed single #
loop $-1 $-1 $129 $50 #
plane-surface $-1 0 0 -4.8120592024010787 0 0 1 1 0 0 forward_v I I I I #
coedge $-1 $130 $131 $132 $133 forward $51 $-1 #
face $-1 $134 $135 $31 $-1 $136 reversed single #
loop $-1 $-1 $137 $53 #
plane-surface $-1 0 -18.937176390643259 3.3120592024010787 0 -1 0 0 0 -1 forward_v I I I I #
coedge $-1 $138 $139 $140 $141 reversed $54 $-1 #
face $-1 $142 $143 $32 $-1 $144 reversed single #
loop $-1 $-1 $145 $56 #
plane-surface $-1 -30.881775118686896 -7.793320042020099 35.211593785444705 0 0.74314483375859142 0.66913059716165679 1 0 0 forward_v I I I I #
coedge $-1 $146 $147 $148 $149 reversed $57 $-1 #
face $-1 $-1 $150 $33 $-1 $151 forward single #
loop $-1 $152 $153 $59 #
cone-surface $-1 -36.538282246786473 19.513637981110342 1.2737424485837554 0 -0.74314483375859142 -0.66913059716165679 0.5 0 0 1 I I -0.70710678118654746 0.70710678118654746 0.5 forward I I I I #
loop $-1 $-1 $154 $43 #
coedge $-1 $96 $96 $155 $156 reversed $60 $-1 #
face $-1 $-1 $157 $34 $-1 $158 forward single #
loop $-1 $159 $160 $62 #
cone-surface $-1 -30.881775118686896 19.513637981110342 1.2737424485837554 0 -0.74314483375859142 -0.66913059716165679 0.5 0 0 1 I I -0.70710678118654746 0.70710678118654746 0.5 forward I I I I #
loop $-1 $-1 $161 $44 #
coedge $-1 $101 $101 $162 $163 reversed $63 $-1 #
face $-1 $-1 $164 $35 $-1 $165 forward single #
loop $-1 $166 $167 $65 #
cone-surface $-1 -25.225267990587319 19.513637981110342 1.2737424485837554 0 -0.74314483375859142 -0.66913059716165679 0.5 0 0 1 I I -0.70710678118654746 0.70710678118654746 0.5 forward I I I I #
loop $-1 $-1 $168 $45 #
coedge $-1 $106 $106 $169 $170 reversed $66 $-1 #
face $-1 $171 $172 $36 $-1 $173 reversed single #
loop $-1 $-1 $174 $68 #
plane-surface $-1 26.413674571550239 -7.793320042020099 35.211593785444705 0 0.74314483375859142 0.66913059716165679 1 0 0 forward_v I I I I #
coedge $-1 $175 $176 $177 $178 reversed $69 $-1 #
face $-1 $-1 $179 $37 $-1 $180 forward single #
loop $-1 $181 $182 $71 #
cone-surface $-1 20.757167443450662 19.513637981110342 1.2737424485837554 0 -0.74314483375859142 -0.66913059716165679 0.5 0 0 1 I I -0.70710678118654746 0.70710678118654746 0.5 forward I I I I #
loop $-1 $-1 $183 $47 #
coedge $-1 $115 $115 $184 $185 reversed $72 $-1 #
face $-1 $-1 $186 $38 $-1 $187 forward single #
loop $-1 $188 $189 $74 #
cone-surface $-1 26.413674571550239 19.513637981110342 1.2737424485837554 0 -0.74314483375859142 -0.66913059716165679 0.5 0 0 1 I I -0.70710678118654746 0.70710678118654746 0.5 forward I I I I #
loop $-1 $-1 $190 $48 #
coedge $-1 $120 $120 $191 $192 reversed $75 $-1 #
face $-1 $-1 $193 $39 $-1 $194 forward single #
loop $-1 $195 $196 $77 #
cone-surface $-1 32.070181699649815 19.513637981110342 1.2737424485837554 0 -0.74314483375859142 -0.66913059716165679 0.5 0 0 1 I I -0.70710678118654746 0.70710678118654746 0.5 forward I I I I #
loop $-1 $-1 $197 $49 #
coedge $-1 $125 $125 $198 $199 reversed $78 $-1 #
face $-1 $200 $201 $30 $-1 $202 reversed single #
loop $-1 $-1 $203 $80 #
plane-surface $-1 0 -23.039355896589051 0 0 1 0 0 0 1 forward_v I I I I #
coedge $-1 $204 $205 $206 $207 forward $81 $-1 #
coedge $-1 $208 $83 $209 $210 forward $51 $-1 #
coedge $-1 $83 $208 $211 $212 forward $51 $-1 #
coedge $-1 $213 $214 $83 $133 reversed $215 $-1 #
edge $-1 $216 -23.039355896589051 $217 23.039355896589051 $132 $218 forward 7 unknown #
face $-1 $219 $220 $31 $-1 $221 reversed single #
loop $-1 $-1 $222 $84 #
plane-surface $-1 -57.295449690237128 0 0 1 0 0 0 0 -1 forward_v I I I I #
coedge $-1 $223 $224 $225 $226 reversed $85 $-1 #
coedge $-1 $227 $87 $228 $229 reversed $54 $-1 #
coedge $-1 $87 $227 $223 $230 forward $54 $-1 #
coedge $-1 $225 $231 $87 $141 forward $232 $-1 #
edge $-1 $233 -12.545222824780973 $234 -8.4430433188351817 $140 $235 forward 7 unknown #
face $-1 $236 $237 $32 $-1 $238 forward single #
loop $-1 $-1 $239 $88 #
plane-surface $-1 -21.454263238520937 77.364314828329924 111.88787071719277 -1 0 0 0 0.74314483375859142 0.66913059716165679 forward_v I I I I #
coedge $-1 $240 $241 $242 $243 reversed $89 $-1 #
coedge $-1 $147 $91 $244 $245 reversed $57 $-1 #
coedge $-1 $91 $146 $240 $246 reversed $57 $-1 #
coedge $-1 $242 $247 $91 $149 forward $237 $-1 #
edge $-1 $248 15.642801517575911 $249 19.103614254083841 $148 $250 forward 7 unknown #
loop $-1 $-1 $155 $92 #
plane-surface $-1 -30.881775118686896 -7.793320042020099 35.211593785444705 0 0.74314483375859142 0.66913059716165679 1 0 0 forward_v I I I I #
loop $-1 $-1 $251 $59 #
coedge $-1 $153 $153 $154 $252 reversed $93 $-1 #
coedge $-1 $154 $154 $153 $252 forward $95 $-1 #
coedge $-1 $155 $155 $96 $156 forward $150 $-1 #
edge $-1 $253 1.0571390173281295e-015 $253 6.2831853071796013 $155 $254 forward 7 unknown #
loop $-1 $-1 $162 $97 #
plane-surface $-1 -30.881775118686896 -7.793320042020099 35.211593785444705 0 0.74314483375859142 0.66913059716165679 1 0 0 forward_v I I I I #
loop $-1 $-1 $255 $62 #
coedge $-1 $160 $160 $161 $256 reversed $98 $-1 #
coedge $-1 $161 $161 $160 $256 forward $100 $-1 #
coedge $-1 $162 $162 $101 $163 forward $157 $-1 #
edge $-1 $257 1.0571390173281295e-015 $257 6.2831853071796013 $162 $258 forward 7 unknown #
loop $-1 $-1 $169 $102 #
plane-surface $-1 -30.881775118686896 -7.793320042020099 35.211593785444705 0 0.74314483375859142 0.66913059716165679 1 0 0 forward_v I I I I #
loop $-1 $-1 $259 $65 #
coedge $-1 $167 $167 $168 $260 reversed $103 $-1 #
coedge $-1 $168 $168 $167 $260 forward $105 $-1 #
coedge $-1 $169 $169 $106 $170 forward $164 $-1 #
edge $-1 $261 1.0571390173281295e-015 $261 6.2831853071796013 $169 $262 forward 7 unknown #
face $-1 $263 $264 $36 $-1 $265 forward single #
loop $-1 $-1 $266 $107 #
plane-surface $-1 35.841186451716197 77.364314828329924 111.88787071719277 -1 0 0 0 0.74314483375859142 0.66913059716165679 forward_v I I I I #
coedge $-1 $267 $268 $269 $270 reversed $108 $-1 #
coedge $-1 $176 $110 $271 $272 reversed $69 $-1 #
coedge $-1 $110 $175 $267 $273 reversed $69 $-1 #
coedge $-1 $269 $274 $110 $178 forward $264 $-1 #
edge $-1 $275 15.642801517575911 $276 19.103614254083841 $177 $277 forward 7 unknown #
loop $-1 $-1 $184 $111 #
plane-surface $-1 26.413674571550239 -7.793320042020099 35.211593785444705 0 0.74314483375859142 0.66913059716165679 1 0 0 forward_v I I I I #
loop $-1 $-1 $278 $71 #
coedge $-1 $182 $182 $183 $279 reversed $112 $-1 #
coedge $-1 $183 $183 $182 $279 forward $114 $-1 #
coedge $-1 $184 $184 $115 $185 forward $179 $-1 #
edge $-1 $280 1.0571390173281295e-015 $280 6.2831853071796013 $184 $281 forward 7 unknown #
loop $-1 $-1 $191 $116 #
plane-surface $-1 26.413674571550239 -7.793320042020099 35.211593785444705 0 0.74314483375859142 0.66913059716165679 1 0 0 forward_v I I I I #
loop $-1 $-1 $282 $74 #
coedge $-1 $189 $189 $190 $283 reversed $117 $-1 #
coedge $-1 $190 $190 $189 $283 forward $119 $-1 #
coedge $-1 $191 $191 $120 $192 forward $186 $-1 #
edge $-1 $284 1.0571390173281295e-015 $284 6.2831853071796013 $191 $285 forward 7 unknown #
loop $-1 $-1 $198 $121 #
plane-surface $-1 26.413674571550239 -7.793320042020099 35.211593785444705 0 0.74314483375859142 0.66913059716165679 1 0 0 forward_v I I I I #
loop $-1 $-1 $286 $77 #
coedge $-1 $196 $196 $197 $287 reversed $122 $-1 #
coedge $-1 $197 $197 $196 $287 forward $124 $-1 #
coedge $-1 $198 $198 $125 $199 forward $193 $-1 #
edge $-1 $288 1.0571390173281295e-015 $288 6.2831853071796013 $198 $289 forward 7 unknown #
face $-1 $290 $291 $30 $-1 $292 reversed single #
loop $-1 $-1 $293 $126 #
plane-surface $-1 -57.295449690237128 0 0 1 0 0 0 0 -1 forward_v I I I I #
coedge $-1 $294 $211 $295 $296 forward $127 $-1 #
coedge $-1 $297 $129 $294 $298 forward $81 $-1 #
coedge $-1 $129 $297 $299 $300 forward $81 $-1 #
coedge $-1 $214 $213 $129 $207 reversed $215 $-1 #
edge $-1 $301 -23.039355896589051 $302 23.039355896589051 $206 $303 forward 7 unknown #
coedge $-1 $131 $130 $304 $305 forward $51 $-1 #
coedge $-1 $306 $307 $130 $210 reversed $291 $-1 #
edge $-1 $217 -57.295449690237128 $308 57.295449690237128 $209 $309 forward 7 unknown #
coedge $-1 $203 $310 $131 $212 reversed $127 $-1 #
edge $-1 $311 -57.295449690237128 $216 57.295449690237128 $211 $312 forward 7 unknown #
coedge $-1 $206 $132 $310 $313 forward $215 $-1 #
coedge $-1 $132 $206 $306 $314 reversed $215 $-1 #
loop $-1 $-1 $213 $290 #
vertex $-1 $133 $315 #
vertex $-1 $133 $316 #
straight-curve $-1 57.295449690237128 0 4.8120592024010787 0 1 0 I I #
face $-1 $317 $318 $31 $-1 $319 forward single #
loop $-1 $-1 $228 $134 #
plane-surface $-1 0 -23.039355896589051 0 0 1 0 0 0 1 forward_v I I I I #
coedge $-1 $320 $321 $322 $323 forward $135 $-1 #
coedge $-1 $322 $137 $139 $230 reversed $85 $-1 #
coedge $-1 $137 $322 $324 $325 reversed $85 $-1 #
coedge $-1 $326 $140 $137 $226 forward $232 $-1 #
edge $-1 $234 0.15602960120053933 $327 3.1560296012005393 $225 $328 forward 7 unknown #
coedge $-1 $139 $138 $320 $329 reversed $54 $-1 #
coedge $-1 $330 $331 $138 $229 forward $220 $-1 #
edge $-1 $332 -57.295449690237128 $233 57.295449690237128 $228 $333 forward 7 unknown #
edge $-1 $334 -57.295449690237128 $234 57.295449690237128 $223 $335 forward 7 unknown #
coedge $-1 $140 $326 $330 $336 forward $232 $-1 #
loop $-1 $-1 $225 $317 #
vertex $-1 $229 $337 #
vertex $-1 $141 $338 #
straight-curve $-1 57.295449690237128 -10.494133071808077 1.8120592024010787 0 1 0 I I #
face $-1 $-1 $339 $32 $-1 $340 reversed single #
loop $-1 $-1 $148 $142 #
plane-surface $-1 0 0 4.8120592024010787 0 0 1 1 0 0 forward_v I I I I #
coedge $-1 $341 $342 $343 $344 reversed $143 $-1 #
coedge $-1 $345 $145 $147 $246 forward $89 $-1 #
coedge $-1 $145 $345 $341 $346 forward $89 $-1 #
coedge $-1 $343 $148 $145 $243 forward $237 $-1 #
edge $-1 $249 -24.868399439509407 $347 -6.0133756791774893 $242 $348 forward 7 unknown #
coedge $-1 $349 $350 $146 $245 forward $339 $-1 #
edge $-1 $351 -54.975498188503074 $248 -51.131876156195304 $244 $352 forward 7 unknown #
edge $-1 $249 40.906608243903676 $351 46.078711793178108 $147 $353 forward 7 unknown #
coedge $-1 $148 $343 $349 $354 forward $237 $-1 #
vertex $-1 $245 $355 #
vertex $-1 $149 $356 #
straight-curve $-1 -40.309286998852855 38.682157414164962 4.8120592024010804 0 -1 0 I I #
coedge $-1 $251 $251 $-1 $357 reversed $152 $-1 #
edge $-1 $358 0 $358 6.2831853071796004 $153 $359 forward 7 unknown #
vertex $-1 $156 $360 #
ellipse-curve $-1 -36.538282246786473 21.308949528335084 2.8902481862472005 0 0.74314483375859142 0.66913059716165679 1 0 0 1 I I #
coedge $-1 $255 $255 $-1 $361 reversed $159 $-1 #
edge $-1 $362 0 $362 6.2831853071796004 $160 $363 forward 7 unknown #
vertex $-1 $163 $364 #
ellipse-curve $-1 -30.881775118686896 21.308949528335084 2.8902481862472005 0 0.74314483375859142 0.66913059716165679 1 0 0 1 I I #
coedge $-1 $259 $259 $-1 $365 reversed $166 $-1 #
edge $-1 $366 0 $366 6.2831853071796004 $167 $367 forward 7 unknown #
vertex $-1 $170 $368 #
ellipse-curve $-1 -25.225267990587319 21.308949528335084 2.8902481862472005 0 0.74314483375859142 0.66913059716165679 1 0 0 1 I I #
face $-1 $-1 $369 $36 $-1 $370 reversed single #
loop $-1 $-1 $177 $171 #
plane-surface $-1 0 0 4.8120592024010787 0 0 1 1 0 0 forward_v I I I I #
coedge $-1 $371 $372 $373 $374 reversed $172 $-1 #
coedge $-1 $375 $174 $176 $273 forward $108 $-1 #
coedge $-1 $174 $375 $371 $376 forward $108 $-1 #
coedge $-1 $373 $177 $174 $270 forward $264 $-1 #
edge $-1 $276 3.7793254056091605 $377 22.634349165941078 $269 $378 forward 7 unknown #
coedge $-1 $379 $380 $175 $272 forward $369 $-1 #
edge $-1 $381 -54.975498188503074 $275 -51.131876156195304 $271 $382 forward 7 unknown #
edge $-1 $276 40.906608243903676 $381 46.078711793178108 $176 $383 forward 7 unknown #
coedge $-1 $177 $373 $379 $384 forward $264 $-1 #
vertex $-1 $178 $385 #
vertex $-1 $178 $386 #
straight-curve $-1 16.98616269138428 38.682157414164962 4.8120592024010804 0 -1 0 I I #
coedge $-1 $278 $278 $-1 $387 reversed $181 $-1 #
edge $-1 $388 0 $388 6.2831853071796004 $182 $389 forward 7 unknown #
vertex $-1 $185 $390 #
ellipse-curve $-1 20.757167443450662 21.308949528335084 2.8902481862472005 0 0.74314483375859142 0.66913059716165679 1 0 0 1 I I #
coedge $-1 $282 $282 $-1 $391 reversed $188 $-1 #
edge $-1 $392 0 $392 6.2831853071796004 $189 $393 forward 7 unknown #
vertex $-1 $192 $394 #
ellipse-curve $-1 26.413674571550239 21.308949528335084 2.8902481862472005 0 0.74314483375859142 0.66913059716165679 1 0 0 1 I I #
coedge $-1 $286 $286 $-1 $395 reversed $195 $-1 #
edge $-1 $396 0 $396 6.2831853071796004 $196 $397 forward 7 unknown #
vertex $-1 $199 $398 #
ellipse-curve $-1 32.070181699649815 21.308949528335084 2.8902481862472005 0 0.74314483375859142 0.66913059716165679 1 0 0 1 I I #
face $-1 $-1 $215 $30 $-1 $399 reversed single #
loop $-1 $-1 $306 $200 #
plane-surface $-1 0 23.039355896589051 0 0 -1 0 0 0 -1 forward_v I I I I #
coedge $-1 $400 $304 $307 $401 forward $201 $-1 #
coedge $-1 $310 $203 $204 $298 reversed $127 $-1 #
coedge $-1 $304 $400 $203 $296 reversed $201 $-1 #
edge $-1 $311 -4.8120592024010787 $402 4.8120592024010787 $295 $403 forward 7 unknown #
coedge $-1 $205 $204 $400 $404 forward $81 $-1 #
edge $-1 $302 -57.295449690237128 $402 57.295449690237128 $294 $405 forward 7 unknown #
coedge $-1 $307 $306 $205 $300 reversed $291 $-1 #
edge $-1 $406 -57.295449690237128 $301 57.295449690237128 $299 $407 forward 7 unknown #
vertex $-1 $207 $408 #
vertex $-1 $313 $409 #
straight-curve $-1 57.295449690237128 0 -4.8120592024010787 0 -1 0 I I #
coedge $-1 $293 $295 $208 $305 reversed $201 $-1 #
edge $-1 $308 -23.039355896589051 $311 23.039355896589051 $304 $410 forward 7 unknown #
coedge $-1 $299 $209 $214 $314 forward $291 $-1 #
coedge $-1 $209 $299 $293 $401 reversed $291 $-1 #
vertex $-1 $210 $411 #
straight-curve $-1 0 23.039355896589051 4.8120592024010787 -1 0 0 I I #
coedge $-1 $211 $294 $213 $313 reversed $127 $-1 #
vertex $-1 $305 $412 #
straight-curve $-1 0 -23.039355896589051 4.8120592024010787 1 0 0 I I #
edge $-1 $216 -4.8120592024010787 $302 4.8120592024010787 $213 $413 forward 7 unknown #
edge $-1 $217 -4.8120592024010787 $301 4.8120592024010787 $214 $414 forward 7 unknown #
point $-1 57.295449690237128 -23.039355896589051 4.8120592024010787 #
point $-1 57.295449690237128 23.039355896589051 4.8120592024010787 #
face $-1 $-1 $232 $31 $-1 $415 reversed single #
loop $-1 $-1 $324 $219 #
plane-surface $-1 0 0 4.8120592024010787 0 0 1 1 0 0 forward_v I I I I #
coedge $-1 $416 $222 $227 $329 forward $135 $-1 #
coedge $-1 $222 $416 $417 $418 reversed $135 $-1 #
coedge $-1 $224 $223 $222 $323 reversed $85 $-1 #
edge $-1 $419 -3.1560296012005393 $334 -0.15602960120053933 $222 $420 forward 7 unknown #
coedge $-1 $417 $421 $224 $325 forward $318 $-1 #
edge $-1 $327 -57.295449690237128 $419 57.295449690237128 $324 $422 forward 7 unknown #
coedge $-1 $231 $225 $421 $423 reversed $232 $-1 #
vertex $-1 $226 $424 #
straight-curve $-1 57.295449690237128 -18.937176390643259 1.6560296012005393 0 0 1 I I #
edge $-1 $334 8.4430433188351817 $332 12.545222824780973 $320 $425 forward 7 unknown #
coedge $-1 $426 $228 $231 $336 reversed $220 $-1 #
coedge $-1 $228 $426 $416 $427 forward $220 $-1 #
vertex $-1 $229 $428 #
straight-curve $-1 0 -23.039355896589051 1.8120592024010787 1 0 0 I I #
vertex $-1 $329 $429 #
straight-curve $-1 0 -18.937176390643259 1.8120592024010787 1 0 0 I I #
edge $-1 $430 -4.8120592024010787 $233 -1.8120592024010787 $231 $431 forward 7 unknown #
point $-1 57.295449690237128 -23.039355896589051 1.8120592024010787 #
point $-1 57.295449690237128 -18.937176390643259 1.8120592024010787 #
loop $-1 $-1 $244 $236 #
plane-surface $-1 0 23.039355896589051 0 0 -1 0 0 0 -1 forward_v I I I I #
coedge $-1 $342 $239 $241 $346 reversed $143 $-1 #
coedge $-1 $239 $341 $432 $433 reversed $143 $-1 #
coedge $-1 $247 $242 $239 $344 forward $237 $-1 #
edge $-1 $347 -19.103614254083841 $434 -15.642801517575911 $343 $435 forward 7 unknown #
coedge $-1 $241 $240 $350 $436 reversed $89 $-1 #
edge $-1 $437 -46.078711793178108 $347 -40.906608243903676 $341 $438 forward 7 unknown #
vertex $-1 $243 $439 #
straight-curve $-1 -15.440887559343448 19.578543160081121 4.8120592024010804 1 0 0 I I #
coedge $-1 $432 $244 $247 $354 reversed $339 $-1 #
coedge $-1 $244 $432 $345 $436 forward $339 $-1 #
vertex $-1 $245 $440 #
straight-curve $-1 -40.309286998852855 23.039355896589051 55.943935358596384 0 0 1 I I #
straight-curve $-1 -40.309286998852855 -7.793320042020099 35.211593785444705 0 0.66913059716165679 -0.74314483375859142 I I #
edge $-1 $434 21.454263238520937 $248 40.309286998852855 $349 $441 forward 7 unknown #
point $-1 -40.309286998852855 23.039355896589051 4.8120592024010787 #
point $-1 -40.309286998852855 19.578543160081121 4.812059202401084 #
edge $-1 $442 1 $442 0 $251 $-1 forward 7 unknown #
vertex $-1 $252 $443 #
ellipse-curve $-1 -36.538282246786473 19.885210397989638 1.6083077471645839 0 0.74314483375859142 0.66913059716165679 1 0 0 1 I I #
point $-1 -35.538282246786473 21.308949528335088 2.8902481862472023 #
edge $-1 $444 1 $444 0 $255 $-1 forward 7 unknown #
vertex $-1 $256 $445 #
ellipse-curve $-1 -30.881775118686896 19.885210397989638 1.6083077471645839 0 0.74314483375859142 0.66913059716165679 1 0 0 1 I I #
point $-1 -29.881775118686896 21.308949528335088 2.8902481862472023 #
edge $-1 $446 1 $446 0 $259 $-1 forward 7 unknown #
vertex $-1 $260 $447 #
ellipse-curve $-1 -25.225267990587319 19.885210397989638 1.6083077471645839 0 0.74314483375859142 0.66913059716165679 1 0 0 1 I I #
point $-1 -24.225267990587319 21.308949528335088 2.8902481862472023 #
loop $-1 $-1 $271 $263 #
plane-surface $-1 0 23.039355896589051 0 0 -1 0 0 0 -1 forward_v I I I I #
coedge $-1 $372 $266 $268 $376 reversed $172 $-1 #
coedge $-1 $266 $371 $448 $449 reversed $172 $-1 #
coedge $-1 $274 $269 $266 $374 forward $264 $-1 #
edge $-1 $377 -19.103614254083841 $450 -15.642801517575911 $373 $451 forward 7 unknown #
coedge $-1 $268 $267 $380 $452 reversed $108 $-1 #
edge $-1 $453 -46.078711793178108 $377 -40.906608243903676 $371 $454 forward 7 unknown #
vertex $-1 $270 $455 #
straight-curve $-1 13.206837285775119 19.578543160081121 4.8120592024010804 1 0 0 I I #
coedge $-1 $448 $271 $274 $384 reversed $369 $-1 #
coedge $-1 $271 $448 $375 $452 forward $369 $-1 #
vertex $-1 $272 $456 #
straight-curve $-1 16.98616269138428 23.039355896589051 55.943935358596384 0 0 1 I I #
straight-curve $-1 16.98616269138428 -7.793320042020099 35.211593785444705 0 0.66913059716165679 -0.74314483375859142 I I #
edge $-1 $450 -35.841186451716197 $275 -16.98616269138428 $379 $457 forward 7 unknown #
point $-1 16.98616269138428 23.039355896589051 4.8120592024010787 #
point $-1 16.98616269138428 19.578543160081121 4.812059202401084 #
edge $-1 $458 1 $458 0 $278 $-1 forward 7 unknown #
vertex $-1 $279 $459 #
ellipse-curve $-1 20.757167443450662 19.885210397989638 1.6083077471645839 0 0.74314483375859142 0.66913059716165679 1 0 0 1 I I #
point $-1 21.757167443450662 21.308949528335088 2.8902481862472023 #
edge $-1 $460 1 $460 0 $282 $-1 forward 7 unknown #
vertex $-1 $283 $461 #
ellipse-curve $-1 26.413674571550239 19.885210397989638 1.6083077471645839 0 0.74314483375859142 0.66913059716165679 1 0 0 1 I I #
point $-1 27.413674571550239 21.308949528335088 2.8902481862472023 #
edge $-1 $462 1 $462 0 $286 $-1 forward 7 unknown #
vertex $-1 $287 $463 #
ellipse-curve $-1 32.070181699649815 19.885210397989638 1.6083077471645839 0 0.74314483375859142 0.66913059716165679 1 0 0 1 I I #
point $-1 33.070181699649815 21.308949528335088 2.8902481862472023 #
plane-surface $-1 57.295449690237128 0 0 -1 0 0 0 0 1 forward_v I I I I #
coedge $-1 $295 $293 $297 $404 reversed $201 $-1 #
edge $-1 $308 -4.8120592024010787 $406 4.8120592024010787 $307 $464 forward 7 unknown #
vertex $-1 $404 $465 #
straight-curve $-1 -57.295449690237128 -23.039355896589051 0 0 0 -1 I I #
edge $-1 $402 -23.039355896589051 $406 23.039355896589051 $400 $466 forward 7 unknown #
straight-curve $-1 0 -23.039355896589051 -4.8120592024010787 -1 0 0 I I #
vertex $-1 $300 $467 #
straight-curve $-1 0 23.039355896589051 -4.8120592024010787 1 0 0 I I #
point $-1 57.295449690237128 23.039355896589051 -4.8120592024010787 #
point $-1 57.295449690237128 -23.039355896589051 -4.8120592024010787 #
straight-curve $-1 -57.295449690237128 0 4.8120592024010787 0 -1 0 I I #
point $-1 -57.295449690237128 23.039355896589051 4.8120592024010787 #
point $-1 -57.295449690237128 -23.039355896589051 4.8120592024010787 #
straight-curve $-1 57.295449690237128 -23.039355896589051 0 0 0 -1 I I #
straight-curve $-1 57.295449690237128 23.039355896589051 0 0 0 -1 I I #
plane-surface $-1 57.295449690237128 0 0 -1 0 0 0 0 1 forward_v I I I I #
coedge $-1 $321 $320 $331 $427 reversed $135 $-1 #
coedge $-1 $468 $324 $321 $418 forward $318 $-1 #
edge $-1 $419 18.937176390643259 $469 23.039355896589051 $321 $470 forward 7 unknown #
vertex $-1 $418 $471 #
straight-curve $-1 -57.295449690237128 -18.937176390643259 1.6560296012005393 0 0 -1 I I #
coedge $-1 $324 $468 $326 $423 forward $318 $-1 #
straight-curve $-1 0 -18.937176390643259 4.8120592024010787 -1 0 0 I I #
edge $-1 $430 -23.039355896589051 $327 -18.937176390643259 $326 $472 forward 7 unknown #
point $-1 57.295449690237128 -18.937176390643259 4.8120592024010787 #
straight-curve $-1 -57.295449690237128 -10.494133071808077 1.8120592024010787 0 -1 0 I I #
coedge $-1 $331 $330 $468 $473 reversed $220 $-1 #
edge $-1 $469 -4.8120592024010787 $332 -1.8120592024010787 $416 $474 forward 7 unknown #
point $-1 -57.295449690237128 -23.039355896589051 1.8120592024010787 #
point $-1 -57.295449690237128 -18.937176390643259 1.8120592024010787 #
vertex $-1 $423 $475 #
straight-curve $-1 57.295449690237128 -23.039355896589051 0 0 0 -1 I I #
coedge $-1 $350 $349 $342 $433 forward $339 $-1 #
edge $-1 $434 51.131876156195304 $437 54.975498188503074 $432 $476 forward 7 unknown #
vertex $-1 $354 $477 #
straight-curve $-1 -21.454263238520937 38.682157414164962 4.8120592024010804 0 1 0 I I #
edge $-1 $437 6.0133756791774893 $351 24.868399439509407 $350 $478 forward 7 unknown #
vertex $-1 $436 $479 #
straight-curve $-1 -21.454263238520937 -7.793320042020099 35.211593785444705 0 -0.66913059716165679 0.74314483375859142 I I #
point $-1 -21.454263238520937 19.578543160081121 4.812059202401084 #
point $-1 -40.309286998852855 23.039355896589051 0.96843717009330987 #
straight-curve $-1 0 23.039355896589051 4.8120592024010787 -1 0 0 I I #
vertex $-1 $357 $480 #
point $-1 -35.538282246786473 19.885210397989638 1.6083077471645839 #
vertex $-1 $361 $481 #
point $-1 -29.881775118686896 19.885210397989638 1.6083077471645839 #
vertex $-1 $365 $482 #
point $-1 -24.225267990587319 19.885210397989638 1.6083077471645839 #
coedge $-1 $380 $379 $372 $449 forward $369 $-1 #
edge $-1 $450 51.131876156195304 $453 54.975498188503074 $448 $483 forward 7 unknown #
vertex $-1 $384 $484 #
straight-curve $-1 35.841186451716197 38.682157414164962 4.8120592024010804 0 1 0 I I #
edge $-1 $453 -22.634349165941078 $381 -3.7793254056091605 $380 $485 forward 7 unknown #
vertex $-1 $452 $486 #
straight-curve $-1 35.841186451716197 -7.793320042020099 35.211593785444705 0 -0.66913059716165679 0.74314483375859142 I I #
point $-1 35.841186451716197 19.578543160081121 4.812059202401084 #
point $-1 16.98616269138428 23.039355896589051 0.96843717009330987 #
straight-curve $-1 0 23.039355896589051 4.8120592024010787 -1 0 0 I I #
vertex $-1 $387 $487 #
point $-1 21.757167443450662 19.885210397989638 1.6083077471645839 #
vertex $-1 $391 $488 #
point $-1 27.413674571550239 19.885210397989638 1.6083077471645839 #
vertex $-1 $395 $489 #
point $-1 33.070181699649815 19.885210397989638 1.6083077471645839 #
straight-curve $-1 -57.295449690237128 23.039355896589051 0 0 0 -1 I I #
point $-1 -57.295449690237128 -23.039355896589051 -4.8120592024010787 #
straight-curve $-1 -57.295449690237128 0 -4.8120592024010787 0 1 0 I I #
point $-1 -57.295449690237128 23.039355896589051 -4.8120592024010787 #
coedge $-1 $421 $417 $426 $473 forward $318 $-1 #
vertex $-1 $418 $490 #
straight-curve $-1 -57.295449690237128 0 4.8120592024010787 0 -1 0 I I #
point $-1 -57.295449690237128 -18.937176390643259 4.8120592024010787 #
straight-curve $-1 57.295449690237128 0 4.8120592024010787 0 1 0 I I #
edge $-1 $469 -57.295449690237128 $430 57.295449690237128 $426 $491 forward 7 unknown #
straight-curve $-1 -57.295449690237128 -23.039355896589051 0 0 0 -1 I I #
point $-1 57.295449690237128 -23.039355896589051 4.8120592024010787 #
straight-curve $-1 -21.454263238520937 23.039355896589051 55.943935358596384 0 0 -1 I I #
point $-1 -21.454263238520937 23.039355896589051 4.8120592024010787 #
straight-curve $-1 -15.440887559343448 23.039355896589051 0.96843717009331343 -1 0 0 I I #
point $-1 -21.454263238520937 23.039355896589051 0.96843717009330987 #
point $-1 -36.538282246786473 19.142065564231046 0.93917715000292701 #
point $-1 -30.881775118686896 19.142065564231046 0.93917715000292701 #
point $-1 -25.225267990587319 19.142065564231046 0.93917715000292701 #
straight-curve $-1 35.841186451716197 23.039355896589051 55.943935358596384 0 0 -1 I I #
point $-1 35.841186451716197 23.039355896589051 4.8120592024010787 #
straight-curve $-1 13.206837285775119 23.039355896589051 0.96843717009331343 -1 0 0 I I #
point $-1 35.841186451716197 23.039355896589051 0.96843717009330987 #
point $-1 20.757167443450662 19.142065564231046 0.93917715000292701 #
point $-1 26.413674571550239 19.142065564231046 0.93917715000292701 #
point $-1 32.070181699649815 19.142065564231046 0.93917715000292701 #
point $-1 -57.295449690237128 -23.039355896589051 4.8120592024010787 #
straight-curve $-1 0 -23.039355896589051 4.8120592024010787 1 0 0 I I #
End-of-ACIS-data 