500 0 5 0           
7 Unknown 11 ACIS 5.0 NT 24 Fri Mar 26 18:10:05 1999 
-1 9.9999999999999995e-007 1e-010 
body $-1 $5 $-1 $6 #
body $-1 $7 $-1 $8 #
body $-1 $9 $-1 $10 #
body $-1 $11 $-1 $12 #
body $-1 $13 $-1 $14 #
lump $-1 $-1 $15 $0 #
transform $-1 1 0 0 0 1 0 0 0 1 48.139896847437967 25.466529921664311 7.4379645575216466 1 rotate no_reflect no_shear #
lump $-1 $-1 $16 $1 #
transform $-1 1 0 0 0 1 0 0 0 1 48.139896847437967 25.466529921664311 7.4379645575216466 1 rotate no_reflect no_shear #
lump $-1 $-1 $17 $2 #
transform $-1 1 0 0 0 1 0 0 0 1 48.139896847437967 25.466529921664311 7.4379645575216466 1 rotate no_reflect no_shear #
lump $-1 $-1 $18 $3 #
transform $-1 1 0 0 0 1 0 0 0 1 48.139896847437967 25.466529921664311 7.4379645575216466 1 rotate no_reflect no_shear #
lump $-1 $-1 $19 $4 #
transform $-1 1 0 0 0 1 0 0 0 1 48.139896847437967 25.466529921664311 7.4379645575216466 1 rotate no_reflect no_shear #
shell $-1 $-1 $-1 $20 $-1 $5 #
shell $-1 $-1 $-1 $21 $-1 $7 #
shell $-1 $-1 $-1 $22 $-1 $9 #
shell $-1 $-1 $-1 $23 $-1 $11 #
shell $-1 $-1 $-1 $24 $-1 $13 #
face $-1 $25 $26 $15 $-1 $27 reversed single #
face $-1 $28 $29 $16 $-1 $30 forward single #
face $-1 $31 $32 $17 $-1 $33 reversed single #
face $-1 $34 $35 $18 $-1 $36 forward single #
face $-1 $37 $38 $19 $-1 $39 forward single #
face $-1 $40 $41 $15 $-1 $42 forward single #
loop $-1 $-1 $43 $20 #
plane-surface $-1 0 -25.466529921664311 0 0 1 0 0 0 1 forward_v I I I I #
face $-1 $44 $45 $16 $-1 $46 reversed single #
loop $-1 $-1 $47 $21 #
plane-surface $-1 0 -25.466529921664311 0 0 1 0 0 0 1 forward_v I I I I #
face $-1 $48 $49 $17 $-1 $50 reversed single #
loop $-1 $-1 $51 $22 #
plane-surface $-1 -11.517489344715063 35.188206548151861 109.37564855638851 1 0 0 0 -0.54463904215088732 -0.83867056331134215 forward_v I I I I #
face $-1 $52 $53 $18 $-1 $54 forward single #
loop $-1 $55 $56 $23 #
cone-surface $-1 -3.7620986321611127 19.692533515765817 3.0370595607290758 0 -0.54463904215088732 -0.83867056331134215 1.5 0 0 1 I I 0 1 1.5 forward I I I I #
face $-1 $57 $58 $19 $-1 $59 forward single #
loop $-1 $60 $61 $24 #
cone-surface $-1 7.8709874366698216 19.692533515765817 3.0370595607290758 0 -0.54463904215088732 -0.83867056331134215 1.5 0 0 1 I I 0 1 1.5 forward I I I I #
face $-1 $62 $63 $15 $-1 $64 reversed single #
loop $-1 $-1 $65 $25 #
plane-surface $-1 0 0 7.4379645575216466 0 0 1 1 0 0 forward_v I I I I #
coedge $-1 $66 $67 $68 $69 reversed $26 $-1 #
face $-1 $70 $71 $16 $-1 $72 reversed single #
loop $-1 $-1 $73 $28 #
plane-surface $-1 0 0 -7.4379645575216466 0 0 1 1 0 0 forward_v I I I I #
coedge $-1 $74 $75 $76 $77 forward $29 $-1 #
face $-1 $78 $79 $17 $-1 $80 reversed single #
loop $-1 $-1 $81 $31 #
plane-surface $-1 2.0544444022543615 -17.249528068310411 28.628619742807103 0 0.54463904215088732 0.83867056331134215 1 0 0 forward_v I I I I #
coedge $-1 $82 $83 $84 $85 reversed $32 $-1 #
face $-1 $-1 $86 $18 $-1 $87 forward single #
loop $-1 $88 $89 $34 #
cone-surface $-1 -3.7620986321611127 18.552713387107822 1.2818905122524233 0 -0.54463904215088732 -0.83867056331134215 0.75 0 0 1 I I -0.70710678118654757 0.70710678118654757 0.75 forward I I I I #
loop $-1 $-1 $90 $23 #
coedge $-1 $56 $56 $91 $92 reversed $35 $-1 #
face $-1 $-1 $93 $19 $-1 $94 forward single #
loop $-1 $95 $96 $37 #
cone-surface $-1 7.8709874366698216 18.552713387107822 1.2818905122524233 0 -0.54463904215088732 -0.83867056331134215 0.75 0 0 1 I I -0.70710678118654757 0.70710678118654757 0.75 forward I I I I #
loop $-1 $-1 $97 $24 #
coedge $-1 $61 $61 $98 $99 reversed $38 $-1 #
face $-1 $100 $101 $15 $-1 $102 reversed single #
loop $-1 $-1 $103 $40 #
plane-surface $-1 0 0 -7.4379645575216466 0 0 1 1 0 0 forward_v I I I I #
coedge $-1 $104 $105 $106 $107 forward $41 $-1 #
coedge $-1 $108 $43 $109 $110 reversed $26 $-1 #
coedge $-1 $43 $108 $111 $112 forward $26 $-1 #
coedge $-1 $113 $103 $43 $69 forward $63 $-1 #
edge $-1 $114 -48.139896847437967 $115 48.139896847437967 $43 $116 forward 7 unknown #
face $-1 $117 $118 $16 $-1 $119 reversed single #
loop $-1 $-1 $120 $44 #
plane-surface $-1 -40.641724779827314 -31.626109784936617 0 0 1 0 0 0 1 forward_v I I I I #
coedge $-1 $121 $122 $75 $123 forward $45 $-1 #
coedge $-1 $124 $47 $125 $126 reversed $29 $-1 #
coedge $-1 $47 $124 $73 $123 reversed $29 $-1 #
coedge $-1 $127 $128 $47 $77 reversed $118 $-1 #
edge $-1 $129 -7.4379645575216466 $130 7.4379645575216466 $76 $131 forward 7 unknown #
face $-1 $132 $133 $17 $-1 $134 forward single #
loop $-1 $-1 $135 $48 #
plane-surface $-1 15.626378149223786 35.188206548151861 109.37564855638851 -1 0 0 0 0.54463904215088732 0.83867056331134215 forward_v I I I I #
coedge $-1 $136 $137 $138 $139 reversed $49 $-1 #
coedge $-1 $83 $51 $140 $141 reversed $32 $-1 #
coedge $-1 $51 $82 $136 $142 reversed $32 $-1 #
coedge $-1 $138 $143 $51 $85 forward $133 $-1 #
edge $-1 $144 -7.8724266475883802 $145 2.2128844701189614 $84 $146 forward 7 unknown #
loop $-1 $-1 $91 $52 #
plane-surface $-1 2.0544444022543615 -17.249528068310411 28.628619742807103 0 0.54463904215088732 0.83867056331134215 1 0 0 forward_v I I I I #
loop $-1 $-1 $147 $34 #
coedge $-1 $89 $89 $90 $148 reversed $53 $-1 #
coedge $-1 $90 $90 $89 $148 forward $55 $-1 #
coedge $-1 $91 $91 $56 $92 forward $86 $-1 #
edge $-1 $149 2.0892196144505337e-015 $149 6.2831853071796022 $91 $150 forward 7 unknown #
loop $-1 $-1 $98 $57 #
plane-surface $-1 2.0544444022543615 -17.249528068310411 28.628619742807103 0 0.54463904215088732 0.83867056331134215 1 0 0 forward_v I I I I #
loop $-1 $-1 $151 $37 #
coedge $-1 $96 $96 $97 $152 reversed $58 $-1 #
coedge $-1 $97 $97 $96 $152 forward $60 $-1 #
coedge $-1 $98 $98 $61 $99 forward $93 $-1 #
edge $-1 $153 2.0892196144505337e-015 $153 6.2831853071796022 $98 $154 forward 7 unknown #
face $-1 $155 $156 $15 $-1 $157 reversed single #
loop $-1 $-1 $158 $62 #
plane-surface $-1 -48.139896847437967 0 0 1 0 0 0 0 -1 forward_v I I I I #
coedge $-1 $68 $159 $160 $161 forward $63 $-1 #
coedge $-1 $162 $65 $163 $164 forward $41 $-1 #
coedge $-1 $65 $162 $108 $165 forward $41 $-1 #
coedge $-1 $109 $166 $65 $107 reversed $167 $-1 #
edge $-1 $168 -25.466529921664311 $169 25.466529921664311 $106 $170 forward 7 unknown #
coedge $-1 $67 $66 $105 $165 reversed $26 $-1 #
coedge $-1 $160 $106 $66 $110 forward $167 $-1 #
edge $-1 $168 -7.4379645575216466 $114 7.4379645575216466 $109 $171 forward 7 unknown #
coedge $-1 $172 $173 $67 $112 reversed $101 $-1 #
edge $-1 $174 -7.4379645575216466 $115 7.4379645575216466 $111 $175 forward 7 unknown #
coedge $-1 $159 $68 $173 $176 forward $63 $-1 #
vertex $-1 $110 $177 #
vertex $-1 $176 $178 #
straight-curve $-1 0 -25.466529921664311 -7.4379645575216466 -1 0 0 I I #
face $-1 $179 $180 $16 $-1 $181 reversed single #
loop $-1 $-1 $76 $70 #
plane-surface $-1 -42.522451356823503 -28.546319853300464 0 1 0 0 0 0 -1 forward_v I I I I #
coedge $-1 $182 $183 $184 $185 forward $71 $-1 #
coedge $-1 $186 $73 $187 $188 forward $45 $-1 #
coedge $-1 $73 $186 $127 $189 forward $45 $-1 #
edge $-1 $129 -42.522451356823503 $190 -38.760998202831125 $73 $191 forward 7 unknown #
coedge $-1 $75 $74 $192 $193 forward $29 $-1 #
coedge $-1 $194 $195 $74 $126 forward $196 $-1 #
edge $-1 $197 38.760998202831125 $130 42.522451356823503 $125 $198 forward 7 unknown #
coedge $-1 $184 $76 $122 $189 reversed $118 $-1 #
coedge $-1 $76 $184 $194 $199 reversed $118 $-1 #
vertex $-1 $123 $200 #
vertex $-1 $199 $201 #
straight-curve $-1 -42.522451356823503 -25.466529921664311 0 0 0 1 I I #
face $-1 $-1 $202 $17 $-1 $203 reversed single #
loop $-1 $-1 $84 $78 #
plane-surface $-1 0 0 7.4379645575216466 0 0 1 1 0 0 forward_v I I I I #
coedge $-1 $204 $205 $206 $207 reversed $79 $-1 #
coedge $-1 $208 $81 $83 $142 forward $49 $-1 #
coedge $-1 $81 $208 $204 $209 forward $49 $-1 #
coedge $-1 $206 $84 $81 $139 forward $133 $-1 #
edge $-1 $145 -12.544711545842244 $210 14.599155948096605 $138 $211 forward 7 unknown #
coedge $-1 $212 $213 $82 $141 forward $202 $-1 #
edge $-1 $214 -53.799337462271481 $144 -47.24985972067261 $140 $215 forward 7 unknown #
edge $-1 $145 38.907705003297906 $214 50.933059843328628 $83 $216 forward 7 unknown #
coedge $-1 $84 $206 $212 $217 forward $133 $-1 #
vertex $-1 $141 $218 #
vertex $-1 $85 $219 #
straight-curve $-1 -11.517489344715063 17.59410327407593 7.4379645575216458 0 -1 0 I I #
coedge $-1 $147 $147 $-1 $220 reversed $88 $-1 #
edge $-1 $221 0 $221 6.2831853071796004 $89 $222 forward 7 unknown #
vertex $-1 $92 $223 #
ellipse-curve $-1 -3.7620986321611127 20.42387436281064 4.1632256867222104 0 0.54463904215088732 0.83867056331134215 1.5 0 0 1 I I #
coedge $-1 $151 $151 $-1 $224 reversed $95 $-1 #
edge $-1 $225 0 $225 6.2831853071796004 $96 $226 forward 7 unknown #
vertex $-1 $99 $227 #
ellipse-curve $-1 7.8709874366698216 20.42387436281064 4.1632256867222104 0 0.54463904215088732 0.83867056331134215 1.5 0 0 1 I I #
face $-1 $-1 $167 $15 $-1 $228 reversed single #
loop $-1 $-1 $229 $100 #
plane-surface $-1 0 25.466529921664311 0 0 -1 0 0 0 -1 forward_v I I I I #
coedge $-1 $173 $172 $230 $231 forward $101 $-1 #
coedge $-1 $103 $113 $232 $233 forward $63 $-1 #
coedge $-1 $166 $109 $103 $161 reversed $167 $-1 #
edge $-1 $234 -25.466529921664311 $114 25.466529921664311 $160 $235 forward 7 unknown #
coedge $-1 $105 $104 $172 $236 forward $41 $-1 #
coedge $-1 $229 $230 $104 $164 reversed $156 $-1 #
edge $-1 $169 -48.139896847437967 $237 48.139896847437967 $163 $238 forward 7 unknown #
edge $-1 $174 -48.139896847437967 $168 48.139896847437967 $108 $239 forward 7 unknown #
coedge $-1 $106 $160 $229 $240 reversed $167 $-1 #
loop $-1 $-1 $109 $155 #
vertex $-1 $107 $241 #
vertex $-1 $107 $242 #
straight-curve $-1 48.139896847437967 0 7.4379645575216466 0 1 0 I I #
straight-curve $-1 48.139896847437967 -25.466529921664311 0 0 0 -1 I I #
coedge $-1 $158 $111 $162 $236 reversed $101 $-1 #
coedge $-1 $111 $158 $113 $176 reversed $101 $-1 #
vertex $-1 $236 $243 #
straight-curve $-1 -48.139896847437967 -25.466529921664311 0 0 0 -1 I I #
edge $-1 $115 -25.466529921664311 $244 25.466529921664311 $173 $245 forward 7 unknown #
point $-1 48.139896847437967 -25.466529921664311 -7.4379645575216466 #
point $-1 -48.139896847437967 -25.466529921664311 -7.4379645575216466 #
face $-1 $-1 $196 $16 $-1 $246 forward single #
loop $-1 $-1 $247 $117 #
plane-surface $-1 -38.760998202831125 -28.546319853300464 0 -1 0 0 0 0 1 forward_v I I I I #
coedge $-1 $248 $120 $186 $249 reversed $71 $-1 #
coedge $-1 $120 $248 $250 $251 reversed $71 $-1 #
coedge $-1 $128 $127 $120 $185 reversed $118 $-1 #
edge $-1 $252 -7.4379645575216466 $253 7.4379645575216466 $184 $254 forward 7 unknown #
coedge $-1 $122 $121 $182 $249 forward $45 $-1 #
coedge $-1 $192 $247 $121 $188 reversed $180 $-1 #
edge $-1 $190 -3.079789931636153 $255 3.079789931636153 $187 $256 forward 7 unknown #
edge $-1 $253 -3.079789931636153 $129 3.079789931636153 $127 $257 forward 7 unknown #
vertex $-1 $188 $258 #
straight-curve $-1 0 -25.466529921664311 -7.4379645575216466 1 0 0 I I #
coedge $-1 $259 $187 $124 $193 reversed $180 $-1 #
edge $-1 $197 -7.4379645575216466 $190 7.4379645575216466 $192 $260 forward 7 unknown #
coedge $-1 $250 $125 $128 $199 forward $196 $-1 #
coedge $-1 $125 $250 $259 $261 forward $196 $-1 #
loop $-1 $-1 $125 $179 #
vertex $-1 $126 $262 #
straight-curve $-1 0 -25.466529921664311 7.4379645575216466 -1 0 0 I I #
edge $-1 $130 -3.079789931636153 $252 3.079789931636153 $128 $263 forward 7 unknown #
point $-1 -42.522451356823503 -25.466529921664311 -7.4379645575216466 #
point $-1 -42.522451356823503 -25.466529921664311 7.4379645575216466 #
loop $-1 $-1 $140 $132 #
plane-surface $-1 0 25.466529921664311 0 0 -1 0 0 0 -1 forward_v I I I I #
coedge $-1 $205 $135 $137 $209 reversed $79 $-1 #
coedge $-1 $135 $204 $264 $265 reversed $79 $-1 #
coedge $-1 $143 $138 $135 $207 forward $133 $-1 #
edge $-1 $210 -2.2128844701189614 $266 7.8724266475883802 $206 $267 forward 7 unknown #
coedge $-1 $137 $136 $213 $268 reversed $49 $-1 #
edge $-1 $269 -50.933059843328628 $210 -38.907705003297906 $204 $270 forward 7 unknown #
vertex $-1 $139 $271 #
straight-curve $-1 1.0272222011271808 15.381218803956974 7.437964557521644 1 0 0 I I #
coedge $-1 $264 $140 $143 $217 reversed $202 $-1 #
coedge $-1 $140 $264 $208 $268 forward $202 $-1 #
vertex $-1 $141 $272 #
straight-curve $-1 -11.517489344715063 25.466529921664311 54.687824278194256 0 0 1 I I #
straight-curve $-1 -11.517489344715063 -17.249528068310411 28.628619742807103 0 0.83867056331134215 -0.54463904215088732 I I #
edge $-1 $266 -15.626378149223786 $144 11.517489344715063 $212 $273 forward 7 unknown #
point $-1 -11.517489344715063 25.466529921664311 7.4379645575216466 #
point $-1 -11.517489344715063 15.381218803956969 7.4379645575216458 #
edge $-1 $274 1 $274 0 $147 $-1 forward 7 unknown #
vertex $-1 $148 $275 #
ellipse-curve $-1 -3.7620986321611127 18.961192668720987 1.9108934347359301 0 0.54463904215088732 0.83867056331134215 1.5 0 0 1 I I #
point $-1 -2.2620986321611127 20.42387436281065 4.163225686722221 #
edge $-1 $276 1 $276 0 $151 $-1 forward 7 unknown #
vertex $-1 $152 $277 #
ellipse-curve $-1 7.8709874366698216 18.961192668720987 1.9108934347359301 0 0.54463904215088732 0.83867056331134215 1.5 0 0 1 I I #
point $-1 9.3709874366698216 20.42387436281065 4.163225686722221 #
plane-surface $-1 48.139896847437967 0 0 -1 0 0 0 0 1 forward_v I I I I #
coedge $-1 $232 $163 $166 $240 forward $156 $-1 #
coedge $-1 $163 $232 $158 $231 reversed $156 $-1 #
edge $-1 $237 -7.4379645575216466 $244 7.4379645575216466 $230 $278 forward 7 unknown #
coedge $-1 $230 $229 $159 $233 reversed $156 $-1 #
edge $-1 $244 -48.139896847437967 $234 48.139896847437967 $232 $279 forward 7 unknown #
vertex $-1 $161 $280 #
straight-curve $-1 48.139896847437967 0 -7.4379645575216466 0 -1 0 I I #
edge $-1 $237 -25.466529921664311 $174 25.466529921664311 $172 $281 forward 7 unknown #
vertex $-1 $164 $282 #
straight-curve $-1 0 25.466529921664311 7.4379645575216466 -1 0 0 I I #
straight-curve $-1 0 -25.466529921664311 7.4379645575216466 1 0 0 I I #
edge $-1 $169 -7.4379645575216466 $234 7.4379645575216466 $166 $283 forward 7 unknown #
point $-1 48.139896847437967 -25.466529921664311 7.4379645575216466 #
point $-1 48.139896847437967 25.466529921664311 7.4379645575216466 #
point $-1 -48.139896847437967 -25.466529921664311 7.4379645575216466 #
vertex $-1 $233 $284 #
straight-curve $-1 -48.139896847437967 0 -7.4379645575216466 0 1 0 I I #
plane-surface $-1 0 0 7.4379645575216466 0 0 1 1 0 0 forward_v I I I I #
coedge $-1 $187 $259 $248 $285 forward $180 $-1 #
coedge $-1 $183 $182 $247 $285 reversed $71 $-1 #
edge $-1 $255 -1.8807265769961887 $253 1.8807265769961887 $182 $286 forward 7 unknown #
coedge $-1 $195 $194 $183 $251 forward $196 $-1 #
edge $-1 $252 -1.8807265769961887 $287 1.8807265769961887 $183 $288 forward 7 unknown #
vertex $-1 $199 $289 #
vertex $-1 $189 $290 #
straight-curve $-1 -42.522451356823503 -31.626109784936617 0 0 0 -1 I I #
vertex $-1 $285 $291 #
straight-curve $-1 -38.760998202831125 -28.546319853300464 -7.4379645575216466 0 -1 0 I I #
straight-curve $-1 -42.522451356823503 -28.546319853300464 -7.4379645575216466 0 1 0 I I #
point $-1 -38.760998202831125 -25.466529921664311 -7.4379645575216466 #
coedge $-1 $247 $192 $195 $261 reversed $180 $-1 #
straight-curve $-1 -38.760998202831125 -25.466529921664311 0 0 0 -1 I I #
edge $-1 $287 -3.079789931636153 $197 3.079789931636153 $259 $292 forward 7 unknown #
point $-1 -38.760998202831125 -25.466529921664311 7.4379645575216466 #
straight-curve $-1 -42.522451356823503 -28.546319853300464 7.4379645575216466 0 -1 0 I I #
coedge $-1 $213 $212 $205 $265 forward $202 $-1 #
edge $-1 $266 47.24985972067261 $269 53.799337462271481 $264 $293 forward 7 unknown #
vertex $-1 $217 $294 #
straight-curve $-1 15.626378149223786 17.59410327407593 7.4379645575216458 0 1 0 I I #
edge $-1 $269 -14.599155948096605 $214 12.544711545842244 $213 $295 forward 7 unknown #
vertex $-1 $268 $296 #
straight-curve $-1 15.626378149223786 -17.249528068310411 28.628619742807103 0 -0.83867056331134215 0.54463904215088732 I I #
point $-1 15.626378149223786 15.381218803956969 7.4379645575216458 #
point $-1 -11.517489344715063 25.466529921664311 0.88848681592277501 #
straight-curve $-1 0 25.466529921664311 7.4379645575216466 -1 0 0 I I #
vertex $-1 $220 $297 #
point $-1 -2.2620986321611127 18.961192668720987 1.9108934347359301 #
vertex $-1 $224 $298 #
point $-1 9.3709874366698216 18.961192668720987 1.9108934347359301 #
straight-curve $-1 -48.139896847437967 25.466529921664311 0 0 0 -1 I I #
straight-curve $-1 0 25.466529921664311 -7.4379645575216466 1 0 0 I I #
point $-1 48.139896847437967 25.466529921664311 -7.4379645575216466 #
straight-curve $-1 -48.139896847437967 0 7.4379645575216466 0 -1 0 I I #
point $-1 -48.139896847437967 25.466529921664311 7.4379645575216466 #
straight-curve $-1 48.139896847437967 25.466529921664311 0 0 0 -1 I I #
point $-1 -48.139896847437967 25.466529921664311 -7.4379645575216466 #
edge $-1 $287 -7.4379645575216466 $255 7.4379645575216466 $247 $299 forward 7 unknown #
straight-curve $-1 -40.641724779827314 -31.626109784936617 -7.4379645575216466 -1 0 0 I I #
vertex $-1 $261 $300 #
straight-curve $-1 -40.641724779827314 -31.626109784936617 7.4379645575216466 1 0 0 I I #
point $-1 -42.522451356823503 -31.626109784936617 7.4379645575216466 #
point $-1 -42.522451356823503 -31.626109784936617 -7.4379645575216466 #
point $-1 -38.760998202831125 -31.626109784936617 -7.4379645575216466 #
straight-curve $-1 -38.760998202831125 -28.546319853300464 7.4379645575216466 0 1 0 I I #
straight-curve $-1 15.626378149223786 25.466529921664311 54.687824278194256 0 0 -1 I I #
point $-1 15.626378149223786 25.466529921664311 7.4379645575216466 #
straight-curve $-1 1.0272222011271808 25.466529921664311 0.88848681592277856 -1 0 0 I I #
point $-1 15.626378149223786 25.466529921664311 0.88848681592277501 #
point $-1 -3.7620986321611127 18.144234105494657 0.6528875897689167 #
point $-1 7.8709874366698216 18.144234105494657 0.6528875897689167 #
straight-curve $-1 -38.760998202831125 -31.626109784936617 0 0 0 -1 I I #
point $-1 -38.760998202831125 -31.626109784936617 7.4379645575216466 #
End-of-ACIS-data 