500 0 10 0           
7 Unknown 11 ACIS 5.0 NT 24 Thu Mar 25 23:24:50 1999 
-1 9.9999999999999995e-007 1e-010 
body $-1 $10 $-1 $11 #
body $-1 $12 $-1 $13 #
body $-1 $14 $-1 $15 #
body $-1 $16 $-1 $17 #
body $-1 $18 $-1 $19 #
body $-1 $20 $-1 $21 #
body $-1 $22 $-1 $23 #
body $-1 $24 $-1 $25 #
body $-1 $26 $-1 $27 #
body $-1 $28 $-1 $29 #
lump $-1 $-1 $30 $0 #
transform $-1 1 0 0 0 1 0 0 0 1 79.337137974181346 42.34647281104295 16.378871805942413 1 rotate no_reflect no_shear #
lump $-1 $-1 $31 $1 #
transform $-1 1 0 0 0 1 0 0 0 1 79.337137974181346 42.34647281104295 16.378871805942413 1 rotate no_reflect no_shear #
lump $-1 $-1 $32 $2 #
transform $-1 1 0 0 0 1 0 0 0 1 79.337137974181346 42.34647281104295 16.378871805942413 1 rotate no_reflect no_shear #
lump $-1 $-1 $33 $3 #
transform $-1 1 0 0 0 1 0 0 0 1 79.337137974181346 42.34647281104295 16.378871805942413 1 rotate no_reflect no_shear #
lump $-1 $-1 $34 $4 #
transform $-1 1 0 0 0 1 0 0 0 1 79.337137974181346 42.34647281104295 16.378871805942413 1 rotate no_reflect no_shear #
lump $-1 $-1 $35 $5 #
transform $-1 1 0 0 0 1 0 0 0 1 79.337137974181346 42.34647281104295 16.378871805942413 1 rotate no_reflect no_shear #
lump $-1 $-1 $36 $6 #
transform $-1 1 0 0 0 1 0 0 0 1 79.337137974181346 42.34647281104295 16.378871805942413 1 rotate no_reflect no_shear #
lump $-1 $-1 $37 $7 #
transform $-1 1 0 0 0 1 0 0 0 1 79.337137974181346 42.34647281104295 16.378871805942413 1 rotate no_reflect no_shear #
lump $-1 $-1 $38 $8 #
transform $-1 1 0 0 0 1 0 0 0 1 79.337137974181346 42.34647281104295 16.378871805942413 1 rotate no_reflect no_shear #
lump $-1 $-1 $39 $9 #
transform $-1 1 0 0 0 1 0 0 0 1 79.337137974181346 42.34647281104295 16.378871805942413 1 rotate no_reflect no_shear #
shell $-1 $-1 $-1 $40 $-1 $10 #
shell $-1 $-1 $-1 $41 $-1 $12 #
shell $-1 $-1 $-1 $42 $-1 $14 #
shell $-1 $-1 $-1 $43 $-1 $16 #
shell $-1 $-1 $-1 $44 $-1 $18 #
shell $-1 $-1 $-1 $45 $-1 $20 #
shell $-1 $-1 $-1 $46 $-1 $22 #
shell $-1 $-1 $-1 $47 $-1 $24 #
shell $-1 $-1 $-1 $48 $-1 $26 #
shell $-1 $-1 $-1 $49 $-1 $28 #
face $-1 $50 $51 $30 $-1 $52 forward single #
face $-1 $53 $54 $31 $-1 $55 reversed single #
face $-1 $56 $57 $32 $-1 $58 reversed single #
face $-1 $59 $60 $33 $-1 $61 forward single #
face $-1 $62 $63 $34 $-1 $64 forward single #
face $-1 $65 $66 $35 $-1 $67 forward single #
face $-1 $68 $69 $36 $-1 $70 reversed single #
face $-1 $71 $72 $37 $-1 $73 forward single #
face $-1 $74 $75 $38 $-1 $76 forward single #
face $-1 $77 $78 $39 $-1 $79 forward single #
face $-1 $80 $81 $30 $-1 $82 reversed single #
loop $-1 $-1 $83 $40 #
plane-surface $-1 0 0 16.378871805942413 0 0 1 1 0 0 forward_v I I I I #
face $-1 $84 $85 $31 $-1 $86 reversed single #
loop $-1 $-1 $87 $41 #
plane-surface $-1 -73.204500879530087 -37.151640719901344 0 0 -1 0 0 0 -1 forward_v I I I I #
face $-1 $88 $89 $32 $-1 $90 reversed single #
loop $-1 $-1 $91 $42 #
plane-surface $-1 -3.1620686434801115 -137.83903707346218 129.47160770976822 -1 0 0 0 -0.6018150307709319 0.79863550430605224 forward_v I I I I #
face $-1 $92 $93 $33 $-1 $94 forward single #
loop $-1 $95 $96 $43 #
cone-surface $-1 -34.936579768367018 -32.134575247898375 8.0138340532815651 0 0.6018150307709319 -0.79863550430605224 1.5 0 0 1 I I 0 1 1.5 forward I I I I #
face $-1 $97 $98 $34 $-1 $99 forward single #
loop $-1 $100 $101 $44 #
cone-surface $-1 -23.021138096534429 -32.134575247898375 8.0138340532815651 0 0.6018150307709319 -0.79863550430605224 1.5 0 0 1 I I 0 1 1.5 forward I I I I #
face $-1 $102 $103 $35 $-1 $104 forward single #
loop $-1 $105 $106 $45 #
cone-surface $-1 -11.105696424701833 -32.134575247898375 8.0138340532815651 0 0.6018150307709319 -0.79863550430605224 1.5 0 0 1 I I 0 1 1.5 forward I I I I #
face $-1 $107 $108 $36 $-1 $109 reversed single #
loop $-1 $-1 $110 $46 #
plane-surface $-1 -42.880207549588746 70.200243735402552 180.44109538540471 1 0 0 0 -0.6018150307709319 -0.79863550430605224 forward_v I I I I #
face $-1 $111 $112 $37 $-1 $113 forward single #
loop $-1 $114 $115 $47 #
cone-surface $-1 -34.936579768367018 32.134575247898383 8.0138340532815651 0 -0.6018150307709319 -0.79863550430605224 1.5 0 0 1 I I 0 1 1.5 forward I I I I #
face $-1 $116 $117 $38 $-1 $118 forward single #
loop $-1 $119 $120 $48 #
cone-surface $-1 -23.021138096534429 32.134575247898383 8.0138340532815651 0 -0.6018150307709319 -0.79863550430605224 1.5 0 0 1 I I 0 1 1.5 forward I I I I #
face $-1 $121 $122 $39 $-1 $123 forward single #
loop $-1 $124 $125 $49 #
cone-surface $-1 -11.105696424701833 32.134575247898383 8.0138340532815651 0 -0.6018150307709319 -0.79863550430605224 1.5 0 0 1 I I 0 1 1.5 forward I I I I #
face $-1 $126 $127 $30 $-1 $128 reversed single #
loop $-1 $-1 $129 $50 #
plane-surface $-1 0 0 -16.378871805942413 0 0 1 1 0 0 forward_v I I I I #
coedge $-1 $130 $131 $132 $133 forward $51 $-1 #
face $-1 $134 $135 $31 $-1 $136 forward single #
loop $-1 $-1 $137 $53 #
plane-surface $-1 -67.071863784878829 -39.749056765472147 0 -1 0 0 0 0 1 forward_v I I I I #
coedge $-1 $138 $139 $140 $141 forward $54 $-1 #
face $-1 $142 $143 $32 $-1 $144 reversed single #
loop $-1 $-1 $145 $56 #
plane-surface $-1 -23.021138096534429 -42.346472811042958 2.7486973173499081 0 -0.6018150307709319 0.79863550430605224 1 0 0 forward_v I I I I #
coedge $-1 $146 $147 $148 $149 reversed $57 $-1 #
face $-1 $-1 $150 $33 $-1 $151 forward single #
loop $-1 $152 $153 $59 #
cone-surface $-1 -34.936579768367018 -30.515242468600491 5.8649069166874348 0 0.6018150307709319 -0.79863550430605224 0.75 0 0 1 I I -0.70710678118654757 0.70710678118654757 0.75 forward I I I I #
loop $-1 $-1 $154 $43 #
coedge $-1 $96 $96 $155 $156 reversed $60 $-1 #
face $-1 $-1 $157 $34 $-1 $158 forward single #
loop $-1 $159 $160 $62 #
cone-surface $-1 -23.021138096534429 -30.515242468600491 5.8649069166874348 0 0.6018150307709319 -0.79863550430605224 0.75 0 0 1 I I -0.70710678118654757 0.70710678118654757 0.75 forward I I I I #
loop $-1 $-1 $161 $44 #
coedge $-1 $101 $101 $162 $163 reversed $63 $-1 #
face $-1 $-1 $164 $35 $-1 $165 forward single #
loop $-1 $166 $167 $65 #
cone-surface $-1 -11.105696424701833 -30.515242468600491 5.8649069166874348 0 0.6018150307709319 -0.79863550430605224 0.75 0 0 1 I I -0.70710678118654757 0.70710678118654757 0.75 forward I I I I #
loop $-1 $-1 $168 $45 #
coedge $-1 $106 $106 $169 $170 reversed $66 $-1 #
face $-1 $171 $172 $36 $-1 $173 reversed single #
loop $-1 $-1 $174 $68 #
plane-surface $-1 -23.021138096534429 -25.29232052701667 53.718184992986394 0 0.6018150307709319 0.79863550430605224 1 0 0 forward_v I I I I #
coedge $-1 $175 $176 $177 $178 reversed $69 $-1 #
face $-1 $-1 $179 $37 $-1 $180 forward single #
loop $-1 $181 $182 $71 #
cone-surface $-1 -34.936579768367018 30.515242468600498 5.8649069166874348 0 -0.6018150307709319 -0.79863550430605224 0.75 0 0 1 I I -0.70710678118654757 0.70710678118654757 0.75 forward I I I I #
loop $-1 $-1 $183 $47 #
coedge $-1 $115 $115 $184 $185 reversed $72 $-1 #
face $-1 $-1 $186 $38 $-1 $187 forward single #
loop $-1 $188 $189 $74 #
cone-surface $-1 -23.021138096534429 30.515242468600498 5.8649069166874348 0 -0.6018150307709319 -0.79863550430605224 0.75 0 0 1 I I -0.70710678118654757 0.70710678118654757 0.75 forward I I I I #
loop $-1 $-1 $190 $48 #
coedge $-1 $120 $120 $191 $192 reversed $75 $-1 #
face $-1 $-1 $193 $39 $-1 $194 forward single #
loop $-1 $195 $196 $77 #
cone-surface $-1 -11.105696424701833 30.515242468600498 5.8649069166874348 0 -0.6018150307709319 -0.79863550430605224 0.75 0 0 1 I I -0.70710678118654757 0.70710678118654757 0.75 forward I I I I #
loop $-1 $-1 $197 $49 #
coedge $-1 $125 $125 $198 $199 reversed $78 $-1 #
face $-1 $200 $201 $30 $-1 $202 reversed single #
loop $-1 $-1 $203 $80 #
plane-surface $-1 0 -42.34647281104295 0 0 1 0 0 0 1 forward_v I I I I #
coedge $-1 $204 $205 $206 $207 forward $81 $-1 #
coedge $-1 $208 $83 $209 $210 forward $51 $-1 #
coedge $-1 $83 $208 $211 $212 forward $51 $-1 #
coedge $-1 $213 $214 $83 $133 reversed $215 $-1 #
edge $-1 $216 -42.34647281104295 $217 42.34647281104295 $132 $218 forward 7 unknown #
face $-1 $219 $220 $31 $-1 $221 reversed single #
loop $-1 $-1 $222 $84 #
plane-surface $-1 0 0 16.378871805942413 0 0 1 1 0 0 forward_v I I I I #
coedge $-1 $223 $224 $225 $226 reversed $85 $-1 #
coedge $-1 $227 $87 $228 $229 reversed $54 $-1 #
coedge $-1 $87 $227 $230 $231 reversed $54 $-1 #
coedge $-1 $224 $223 $87 $141 reversed $85 $-1 #
edge $-1 $232 -16.378871805942413 $233 16.378871805942413 $140 $234 forward 7 unknown #
face $-1 $235 $236 $32 $-1 $237 forward single #
loop $-1 $-1 $238 $88 #
plane-surface $-1 -42.880207549588746 -137.83903707346218 129.47160770976822 1 0 0 0 0.6018150307709319 -0.79863550430605224 forward_v I I I I #
coedge $-1 $239 $240 $241 $242 reversed $89 $-1 #
coedge $-1 $147 $91 $243 $244 reversed $57 $-1 #
coedge $-1 $91 $146 $239 $245 reversed $57 $-1 #
coedge $-1 $241 $246 $91 $149 forward $236 $-1 #
edge $-1 $247 26.573045725688139 $248 44.660897839537895 $148 $249 forward 7 unknown #
loop $-1 $-1 $155 $92 #
plane-surface $-1 -23.021138096534429 -42.346472811042958 2.7486973173499081 0 -0.6018150307709319 0.79863550430605224 1 0 0 forward_v I I I I #
loop $-1 $-1 $250 $59 #
coedge $-1 $153 $153 $154 $251 reversed $93 $-1 #
coedge $-1 $154 $154 $153 $251 forward $95 $-1 #
coedge $-1 $155 $155 $96 $156 forward $150 $-1 #
edge $-1 $252 9.3232905146161872e-016 $252 6.2831853071796013 $155 $253 forward 7 unknown #
loop $-1 $-1 $162 $97 #
plane-surface $-1 -23.021138096534429 -42.346472811042958 2.7486973173499081 0 -0.6018150307709319 0.79863550430605224 1 0 0 forward_v I I I I #
loop $-1 $-1 $254 $62 #
coedge $-1 $160 $160 $161 $255 reversed $98 $-1 #
coedge $-1 $161 $161 $160 $255 forward $100 $-1 #
coedge $-1 $162 $162 $101 $163 forward $157 $-1 #
edge $-1 $256 9.3232905146161872e-016 $256 6.2831853071796013 $162 $257 forward 7 unknown #
loop $-1 $-1 $169 $102 #
plane-surface $-1 -23.021138096534429 -42.346472811042958 2.7486973173499081 0 -0.6018150307709319 0.79863550430605224 1 0 0 forward_v I I I I #
loop $-1 $-1 $258 $65 #
coedge $-1 $167 $167 $168 $259 reversed $103 $-1 #
coedge $-1 $168 $168 $167 $259 forward $105 $-1 #
coedge $-1 $169 $169 $106 $170 forward $164 $-1 #
edge $-1 $260 9.3232905146161872e-016 $260 6.2831853071796013 $169 $261 forward 7 unknown #
face $-1 $262 $263 $36 $-1 $264 reversed single #
loop $-1 $-1 $265 $107 #
plane-surface $-1 -3.1620686434801115 70.200243735402552 180.44109538540471 -1 0 0 0 0.6018150307709319 0.79863550430605224 forward_v I I I I #
coedge $-1 $266 $267 $268 $269 reversed $108 $-1 #
coedge $-1 $176 $110 $270 $271 reversed $69 $-1 #
coedge $-1 $110 $175 $266 $272 reversed $69 $-1 #
coedge $-1 $268 $273 $110 $178 forward $274 $-1 #
edge $-1 $275 -7.2463509433416746 $276 10.841501170508081 $177 $277 forward 7 unknown #
loop $-1 $-1 $184 $111 #
plane-surface $-1 -23.021138096534429 -25.29232052701667 53.718184992986394 0 0.6018150307709319 0.79863550430605224 1 0 0 forward_v I I I I #
loop $-1 $-1 $278 $71 #
coedge $-1 $182 $182 $183 $279 reversed $112 $-1 #
coedge $-1 $183 $183 $182 $279 forward $114 $-1 #
coedge $-1 $184 $184 $115 $185 forward $179 $-1 #
edge $-1 $280 -9.3232905146161872e-016 $280 6.2831853071795996 $184 $281 forward 7 unknown #
loop $-1 $-1 $191 $116 #
plane-surface $-1 -23.021138096534429 -25.29232052701667 53.718184992986394 0 0.6018150307709319 0.79863550430605224 1 0 0 forward_v I I I I #
loop $-1 $-1 $282 $74 #
coedge $-1 $189 $189 $190 $283 reversed $117 $-1 #
coedge $-1 $190 $190 $189 $283 forward $119 $-1 #
coedge $-1 $191 $191 $120 $192 forward $186 $-1 #
edge $-1 $284 -9.3232905146161872e-016 $284 6.2831853071795996 $191 $285 forward 7 unknown #
loop $-1 $-1 $198 $121 #
plane-surface $-1 -23.021138096534429 -25.29232052701667 53.718184992986394 0 0.6018150307709319 0.79863550430605224 1 0 0 forward_v I I I I #
loop $-1 $-1 $286 $77 #
coedge $-1 $196 $196 $197 $287 reversed $122 $-1 #
coedge $-1 $197 $197 $196 $287 forward $124 $-1 #
coedge $-1 $198 $198 $125 $199 forward $193 $-1 #
edge $-1 $288 -9.3232905146161872e-016 $288 6.2831853071795996 $198 $289 forward 7 unknown #
face $-1 $290 $291 $30 $-1 $292 reversed single #
loop $-1 $-1 $293 $126 #
plane-surface $-1 -79.337137974181346 0 0 1 0 0 0 0 -1 forward_v I I I I #
coedge $-1 $294 $211 $295 $296 forward $127 $-1 #
coedge $-1 $297 $129 $294 $298 forward $81 $-1 #
coedge $-1 $129 $297 $299 $300 forward $81 $-1 #
coedge $-1 $214 $213 $129 $207 reversed $215 $-1 #
edge $-1 $301 -42.34647281104295 $302 42.34647281104295 $206 $303 forward 7 unknown #
coedge $-1 $131 $130 $304 $305 forward $51 $-1 #
coedge $-1 $306 $307 $130 $210 reversed $291 $-1 #
edge $-1 $217 -79.337137974181346 $308 79.337137974181346 $209 $309 forward 7 unknown #
coedge $-1 $203 $310 $131 $212 reversed $127 $-1 #
edge $-1 $311 -79.337137974181346 $216 79.337137974181346 $211 $312 forward 7 unknown #
coedge $-1 $206 $132 $310 $313 forward $215 $-1 #
coedge $-1 $132 $206 $306 $314 reversed $215 $-1 #
loop $-1 $-1 $213 $290 #
vertex $-1 $133 $315 #
vertex $-1 $133 $316 #
straight-curve $-1 79.337137974181346 0 16.378871805942413 0 1 0 I I #
face $-1 $317 $318 $31 $-1 $319 reversed single #
loop $-1 $-1 $320 $134 #
plane-surface $-1 -79.337137974181346 0 0 1 0 0 0 0 -1 forward_v I I I I #
coedge $-1 $230 $321 $224 $322 forward $135 $-1 #
coedge $-1 $140 $137 $323 $324 reversed $85 $-1 #
coedge $-1 $137 $140 $222 $322 reversed $85 $-1 #
coedge $-1 $325 $326 $137 $226 forward $327 $-1 #
edge $-1 $328 -16.378871805942413 $329 16.378871805942413 $225 $330 forward 7 unknown #
coedge $-1 $139 $138 $320 $331 reversed $54 $-1 #
coedge $-1 $323 $332 $138 $229 forward $318 $-1 #
edge $-1 $333 -42.734887534416302 $233 -30.469613345113785 $228 $334 forward 7 unknown #
coedge $-1 $335 $222 $139 $231 forward $135 $-1 #
edge $-1 $232 30.469613345113785 $336 42.734887534416302 $230 $337 forward 7 unknown #
vertex $-1 $231 $338 #
vertex $-1 $229 $339 #
straight-curve $-1 -67.071863784878829 -37.151640719901344 0 0 0 -1 I I #
face $-1 $-1 $340 $32 $-1 $341 reversed single #
loop $-1 $-1 $148 $142 #
plane-surface $-1 0 0 16.378871805942413 0 0 1 1 0 0 forward_v I I I I #
coedge $-1 $342 $343 $344 $345 reversed $143 $-1 #
coedge $-1 $346 $145 $147 $245 forward $89 $-1 #
coedge $-1 $145 $346 $342 $347 forward $89 $-1 #
coedge $-1 $344 $148 $145 $242 forward $236 $-1 #
edge $-1 $248 -8.348500404787103 $348 31.369638501321532 $241 $349 forward 7 unknown #
coedge $-1 $350 $351 $146 $244 forward $340 $-1 #
edge $-1 $352 -61.987106537534196 $247 -48.356932048941701 $243 $353 forward 7 unknown #
edge $-1 $248 -22.648444774023169 $352 -8.8817612989391469e-015 $147 $354 forward 7 unknown #
coedge $-1 $148 $344 $350 $355 forward $236 $-1 #
vertex $-1 $244 $356 #
vertex $-1 $149 $357 #
straight-curve $-1 -3.1620686434801115 -68.91951853673109 16.37887180594241 0 1 0 I I #
coedge $-1 $250 $250 $-1 $358 reversed $152 $-1 #
edge $-1 $359 0 $359 6.2831853071796004 $153 $360 forward 7 unknown #
vertex $-1 $156 $361 #
ellipse-curve $-1 -34.936579768367018 -33.302546754118069 9.5637845616461661 0 -0.6018150307709319 0.79863550430605224 1.5 0 0 1 I I #
coedge $-1 $254 $254 $-1 $362 reversed $159 $-1 #
edge $-1 $363 0 $363 6.2831853071796004 $160 $364 forward 7 unknown #
vertex $-1 $163 $365 #
ellipse-curve $-1 -23.021138096534429 -33.302546754118069 9.5637845616461661 0 -0.6018150307709319 0.79863550430605224 1.5 0 0 1 I I #
coedge $-1 $258 $258 $-1 $366 reversed $166 $-1 #
edge $-1 $367 0 $367 6.2831853071796004 $167 $368 forward 7 unknown #
vertex $-1 $170 $369 #
ellipse-curve $-1 -11.105696424701833 -33.302546754118069 9.5637845616461661 0 -0.6018150307709319 0.79863550430605224 1.5 0 0 1 I I #
face $-1 $-1 $274 $36 $-1 $370 forward single #
loop $-1 $-1 $371 $171 #
plane-surface $-1 0 42.34647281104295 0 0 -1 0 0 0 -1 forward_v I I I I #
coedge $-1 $372 $373 $374 $375 reversed $172 $-1 #
coedge $-1 $376 $174 $176 $272 forward $108 $-1 #
coedge $-1 $174 $376 $372 $377 forward $108 $-1 #
coedge $-1 $374 $177 $174 $269 forward $274 $-1 #
edge $-1 $276 -31.369638501321532 $378 8.348500404787103 $268 $379 forward 7 unknown #
coedge $-1 $380 $381 $175 $271 forward $263 $-1 #
edge $-1 $382 -87.471850375352446 $275 -73.841675886759944 $270 $383 forward 7 unknown #
edge $-1 $276 62.044500848062739 $382 84.692945622085901 $176 $384 forward 7 unknown #
coedge $-1 $177 $374 $380 $385 forward $274 $-1 #
loop $-1 $-1 $374 $262 #
vertex $-1 $271 $386 #
vertex $-1 $178 $387 #
straight-curve $-1 -42.880207549588746 35.100121867701276 16.37887180594241 0 -1 0 I I #
coedge $-1 $278 $278 $-1 $388 reversed $181 $-1 #
edge $-1 $389 0 $389 6.2831853071796004 $182 $390 forward 7 unknown #
vertex $-1 $185 $391 #
ellipse-curve $-1 -34.936579768367018 33.302546754118076 9.5637845616461661 0 0.6018150307709319 0.79863550430605224 1.5 0 0 1 I I #
coedge $-1 $282 $282 $-1 $392 reversed $188 $-1 #
edge $-1 $393 0 $393 6.2831853071796004 $189 $394 forward 7 unknown #
vertex $-1 $192 $395 #
ellipse-curve $-1 -23.021138096534429 33.302546754118076 9.5637845616461661 0 0.6018150307709319 0.79863550430605224 1.5 0 0 1 I I #
coedge $-1 $286 $286 $-1 $396 reversed $195 $-1 #
edge $-1 $397 0 $397 6.2831853071796004 $196 $398 forward 7 unknown #
vertex $-1 $199 $399 #
ellipse-curve $-1 -11.105696424701833 33.302546754118076 9.5637845616461661 0 0.6018150307709319 0.79863550430605224 1.5 0 0 1 I I #
face $-1 $-1 $215 $30 $-1 $400 reversed single #
loop $-1 $-1 $306 $200 #
plane-surface $-1 0 42.34647281104295 0 0 -1 0 0 0 -1 forward_v I I I I #
coedge $-1 $401 $304 $307 $402 forward $201 $-1 #
coedge $-1 $310 $203 $204 $298 reversed $127 $-1 #
coedge $-1 $304 $401 $203 $296 reversed $201 $-1 #
edge $-1 $311 -16.378871805942413 $403 16.378871805942413 $295 $404 forward 7 unknown #
coedge $-1 $205 $204 $401 $405 forward $81 $-1 #
edge $-1 $302 -79.337137974181346 $403 79.337137974181346 $294 $406 forward 7 unknown #
coedge $-1 $307 $306 $205 $300 reversed $291 $-1 #
edge $-1 $407 -79.337137974181346 $301 79.337137974181346 $299 $408 forward 7 unknown #
vertex $-1 $207 $409 #
vertex $-1 $313 $410 #
straight-curve $-1 79.337137974181346 0 -16.378871805942413 0 -1 0 I I #
coedge $-1 $293 $295 $208 $305 reversed $201 $-1 #
edge $-1 $308 -42.34647281104295 $311 42.34647281104295 $304 $411 forward 7 unknown #
coedge $-1 $299 $209 $214 $314 forward $291 $-1 #
coedge $-1 $209 $299 $293 $402 reversed $291 $-1 #
vertex $-1 $210 $412 #
straight-curve $-1 0 42.34647281104295 16.378871805942413 -1 0 0 I I #
coedge $-1 $211 $294 $213 $313 reversed $127 $-1 #
vertex $-1 $305 $413 #
straight-curve $-1 0 -42.34647281104295 16.378871805942413 1 0 0 I I #
edge $-1 $216 -16.378871805942413 $302 16.378871805942413 $213 $414 forward 7 unknown #
edge $-1 $217 -16.378871805942413 $301 16.378871805942413 $214 $415 forward 7 unknown #
point $-1 79.337137974181346 -42.34647281104295 16.378871805942413 #
point $-1 79.337137974181346 42.34647281104295 16.378871805942413 #
face $-1 $-1 $327 $31 $-1 $416 reversed single #
loop $-1 $-1 $323 $219 #
plane-surface $-1 0 0 -16.378871805942413 0 0 1 1 0 0 forward_v I I I I #
coedge $-1 $417 $418 $227 $331 forward $220 $-1 #
coedge $-1 $222 $335 $325 $419 forward $135 $-1 #
edge $-1 $329 -22.471944428306877 $232 -17.277112337165271 $222 $420 forward 7 unknown #
coedge $-1 $421 $228 $223 $324 forward $318 $-1 #
edge $-1 $233 17.277112337165271 $328 22.471944428306877 $323 $422 forward 7 unknown #
coedge $-1 $423 $225 $321 $419 reversed $327 $-1 #
coedge $-1 $225 $423 $421 $424 reversed $327 $-1 #
loop $-1 $-1 $225 $317 #
vertex $-1 $424 $425 #
vertex $-1 $226 $426 #
straight-curve $-1 -67.071863784878829 -42.34647281104295 0 0 0 1 I I #
edge $-1 $336 -16.378871805942413 $333 16.378871805942413 $320 $427 forward 7 unknown #
coedge $-1 $228 $421 $417 $428 forward $318 $-1 #
vertex $-1 $229 $429 #
straight-curve $-1 -36.602250439765044 -37.151640719901344 -16.378871805942413 1 0 0 I I #
coedge $-1 $321 $230 $418 $430 forward $135 $-1 #
vertex $-1 $430 $431 #
straight-curve $-1 -36.602250439765044 -37.151640719901344 16.378871805942413 -1 0 0 I I #
point $-1 -67.071863784878829 -37.151640719901344 16.378871805942413 #
point $-1 -67.071863784878829 -37.151640719901344 -16.378871805942413 #
loop $-1 $-1 $243 $235 #
plane-surface $-1 0 -42.34647281104295 0 0 1 0 0 0 1 forward_v I I I I #
coedge $-1 $343 $238 $240 $347 reversed $143 $-1 #
coedge $-1 $238 $342 $432 $433 reversed $143 $-1 #
coedge $-1 $246 $241 $238 $345 forward $236 $-1 #
edge $-1 $348 -44.660897839537895 $434 -26.573045725688139 $344 $435 forward 7 unknown #
coedge $-1 $240 $239 $351 $436 reversed $89 $-1 #
edge $-1 $437 8.8817612989391469e-015 $348 22.648444774023169 $342 $438 forward 7 unknown #
vertex $-1 $242 $439 #
straight-curve $-1 -11.510569048267214 -24.258620697193191 16.378871805942413 -1 0 0 I I #
coedge $-1 $432 $243 $246 $355 reversed $340 $-1 #
coedge $-1 $243 $432 $346 $436 forward $340 $-1 #
vertex $-1 $244 $440 #
straight-curve $-1 -3.1620686434801115 -42.34647281104295 64.735803854884111 0 0 1 I I #
straight-curve $-1 -3.1620686434801115 -42.346472811042958 2.7486973173499081 0 -0.79863550430605224 -0.6018150307709319 I I #
edge $-1 $434 -42.880207549588746 $247 -3.1620686434801115 $350 $441 forward 7 unknown #
point $-1 -3.1620686434801115 -42.34647281104295 16.378871805942413 #
point $-1 -3.1620686434801115 -24.258620697193191 16.378871805942413 #
edge $-1 $442 1 $442 0 $250 $-1 forward 7 unknown #
vertex $-1 $251 $443 #
ellipse-curve $-1 -34.936579768367018 -30.966603741678689 6.4638835449169738 0 -0.6018150307709319 0.79863550430605224 1.5 0 0 1 I I #
point $-1 -33.436579768367018 -33.302546754118062 9.563784561646159 #
edge $-1 $444 1 $444 0 $254 $-1 forward 7 unknown #
vertex $-1 $255 $445 #
ellipse-curve $-1 -23.021138096534429 -30.966603741678689 6.4638835449169738 0 -0.6018150307709319 0.79863550430605224 1.5 0 0 1 I I #
point $-1 -21.521138096534429 -33.302546754118062 9.563784561646159 #
edge $-1 $446 1 $446 0 $258 $-1 forward 7 unknown #
vertex $-1 $259 $447 #
ellipse-curve $-1 -11.105696424701833 -30.966603741678689 6.4638835449169738 0 -0.6018150307709319 0.79863550430605224 1.5 0 0 1 I I #
point $-1 -9.6056964247018328 -33.302546754118062 9.563784561646159 #
plane-surface $-1 0 0 16.378871805942413 0 0 1 1 0 0 forward_v I I I I #
coedge $-1 $381 $380 $373 $448 forward $263 $-1 #
coedge $-1 $373 $265 $267 $377 reversed $172 $-1 #
coedge $-1 $265 $372 $371 $448 reversed $172 $-1 #
coedge $-1 $273 $268 $265 $375 forward $274 $-1 #
edge $-1 $378 -10.841501170508081 $449 7.2463509433416746 $374 $450 forward 7 unknown #
coedge $-1 $267 $266 $381 $451 reversed $108 $-1 #
edge $-1 $452 -84.692945622085901 $378 -62.044500848062739 $372 $453 forward 7 unknown #
vertex $-1 $269 $454 #
straight-curve $-1 -11.510569048267214 24.258620697193198 16.37887180594241 1 0 0 I I #
coedge $-1 $371 $270 $273 $385 reversed $263 $-1 #
coedge $-1 $270 $371 $376 $451 forward $263 $-1 #
vertex $-1 $271 $455 #
straight-curve $-1 -42.880207549588746 42.34647281104295 90.220547692702354 0 0 1 I I #
straight-curve $-1 -42.880207549588746 -25.29232052701667 53.718184992986394 0 0.79863550430605224 -0.6018150307709319 I I #
edge $-1 $449 3.1620686434801115 $275 42.880207549588746 $380 $456 forward 7 unknown #
point $-1 -42.880207549588746 42.34647281104295 16.378871805942413 #
point $-1 -42.880207549588746 24.258620697193194 16.37887180594241 #
edge $-1 $457 1 $457 0 $278 $-1 forward 7 unknown #
vertex $-1 $279 $458 #
ellipse-curve $-1 -34.936579768367018 30.966603741678696 6.4638835449169738 0 0.6018150307709319 0.79863550430605224 1.5 0 0 1 I I #
point $-1 -33.436579768367018 33.302546754118069 9.563784561646159 #
edge $-1 $459 1 $459 0 $282 $-1 forward 7 unknown #
vertex $-1 $283 $460 #
ellipse-curve $-1 -23.021138096534429 30.966603741678696 6.4638835449169738 0 0.6018150307709319 0.79863550430605224 1.5 0 0 1 I I #
point $-1 -21.521138096534429 33.302546754118069 9.563784561646159 #
edge $-1 $461 1 $461 0 $286 $-1 forward 7 unknown #
vertex $-1 $287 $462 #
ellipse-curve $-1 -11.105696424701833 30.966603741678696 6.4638835449169738 0 0.6018150307709319 0.79863550430605224 1.5 0 0 1 I I #
point $-1 -9.6056964247018328 33.302546754118069 9.563784561646159 #
plane-surface $-1 79.337137974181346 0 0 -1 0 0 0 0 1 forward_v I I I I #
coedge $-1 $295 $293 $297 $405 reversed $201 $-1 #
edge $-1 $308 -16.378871805942413 $407 16.378871805942413 $307 $463 forward 7 unknown #
vertex $-1 $405 $464 #
straight-curve $-1 -79.337137974181346 -42.34647281104295 0 0 0 -1 I I #
edge $-1 $403 -42.34647281104295 $407 42.34647281104295 $401 $465 forward 7 unknown #
straight-curve $-1 0 -42.34647281104295 -16.378871805942413 -1 0 0 I I #
vertex $-1 $300 $466 #
straight-curve $-1 0 42.34647281104295 -16.378871805942413 1 0 0 I I #
point $-1 79.337137974181346 42.34647281104295 -16.378871805942413 #
point $-1 79.337137974181346 -42.34647281104295 -16.378871805942413 #
straight-curve $-1 -79.337137974181346 0 16.378871805942413 0 -1 0 I I #
point $-1 -79.337137974181346 42.34647281104295 16.378871805942413 #
point $-1 -79.337137974181346 -42.34647281104295 16.378871805942413 #
straight-curve $-1 79.337137974181346 -42.34647281104295 0 0 0 -1 I I #
straight-curve $-1 79.337137974181346 42.34647281104295 0 0 0 -1 I I #
plane-surface $-1 0 -42.34647281104295 0 0 1 0 0 0 1 forward_v I I I I #
coedge $-1 $467 $320 $332 $428 reversed $220 $-1 #
coedge $-1 $320 $467 $335 $430 reversed $220 $-1 #
edge $-1 $468 -79.337137974181346 $329 -67.071863784878829 $325 $469 forward 7 unknown #
straight-curve $-1 -67.071863784878829 -19.874528382736074 16.378871805942413 0 1 0 I I #
coedge $-1 $332 $323 $326 $424 forward $318 $-1 #
straight-curve $-1 -67.071863784878829 -19.874528382736074 -16.378871805942413 0 -1 0 I I #
coedge $-1 $326 $325 $467 $470 forward $327 $-1 #
edge $-1 $328 67.071863784878829 $471 79.337137974181346 $326 $472 forward 7 unknown #
point $-1 -67.071863784878829 -42.34647281104295 -16.378871805942413 #
point $-1 -67.071863784878829 -42.34647281104295 16.378871805942413 #
straight-curve $-1 -79.337137974181346 -37.151640719901344 0 0 0 -1 I I #
edge $-1 $471 -42.34647281104295 $333 -37.151640719901344 $417 $473 forward 7 unknown #
point $-1 -79.337137974181346 -37.151640719901344 -16.378871805942413 #
edge $-1 $336 37.151640719901344 $468 42.34647281104295 $418 $474 forward 7 unknown #
point $-1 -79.337137974181346 -37.151640719901344 16.378871805942413 #
coedge $-1 $351 $350 $343 $433 forward $340 $-1 #
edge $-1 $434 48.356932048941701 $437 61.987106537534196 $432 $475 forward 7 unknown #
vertex $-1 $355 $476 #
straight-curve $-1 -42.880207549588746 -68.91951853673109 16.37887180594241 0 -1 0 I I #
edge $-1 $437 -31.369638501321532 $352 8.348500404787103 $351 $477 forward 7 unknown #
vertex $-1 $436 $478 #
straight-curve $-1 -42.880207549588746 -42.346472811042958 2.7486973173499081 0 0.79863550430605224 0.6018150307709319 I I #
point $-1 -42.880207549588746 -24.258620697193191 16.378871805942413 #
point $-1 -3.1620686434801115 -42.34647281104295 2.7486973173499134 #
straight-curve $-1 0 -42.34647281104295 16.378871805942413 1 0 0 I I #
vertex $-1 $358 $479 #
point $-1 -33.436579768367018 -30.966603741678689 6.4638835449169738 #
vertex $-1 $362 $480 #
point $-1 -21.521138096534429 -30.966603741678689 6.4638835449169738 #
vertex $-1 $366 $481 #
point $-1 -9.6056964247018328 -30.966603741678689 6.4638835449169738 #
edge $-1 $449 73.841675886759944 $452 87.471850375352446 $371 $482 forward 7 unknown #
vertex $-1 $385 $483 #
straight-curve $-1 -3.1620686434801115 35.100121867701276 16.37887180594241 0 1 0 I I #
edge $-1 $452 -8.348500404787103 $382 31.369638501321532 $381 $484 forward 7 unknown #
vertex $-1 $451 $485 #
straight-curve $-1 -3.1620686434801115 -25.29232052701667 53.718184992986394 0 -0.79863550430605224 0.6018150307709319 I I #
point $-1 -3.1620686434801115 24.258620697193194 16.37887180594241 #
point $-1 -42.880207549588746 42.346472811042958 2.7486973173499081 #
straight-curve $-1 0 42.34647281104295 16.378871805942413 -1 0 0 I I #
vertex $-1 $388 $486 #
point $-1 -33.436579768367018 30.966603741678696 6.4638835449169738 #
vertex $-1 $392 $487 #
point $-1 -21.521138096534429 30.966603741678696 6.4638835449169738 #
vertex $-1 $396 $488 #
point $-1 -9.6056964247018328 30.966603741678696 6.4638835449169738 #
straight-curve $-1 -79.337137974181346 42.34647281104295 0 0 0 -1 I I #
point $-1 -79.337137974181346 -42.34647281104295 -16.378871805942413 #
straight-curve $-1 -79.337137974181346 0 -16.378871805942413 0 1 0 I I #
point $-1 -79.337137974181346 42.34647281104295 -16.378871805942413 #
coedge $-1 $418 $417 $423 $470 reversed $220 $-1 #
vertex $-1 $430 $489 #
straight-curve $-1 0 -42.34647281104295 16.378871805942413 1 0 0 I I #
edge $-1 $468 -16.378871805942413 $471 16.378871805942413 $467 $490 forward 7 unknown #
vertex $-1 $428 $491 #
straight-curve $-1 0 -42.34647281104295 -16.378871805942413 -1 0 0 I I #
straight-curve $-1 -79.337137974181346 0 -16.378871805942413 0 1 0 I I #
straight-curve $-1 -79.337137974181346 0 16.378871805942413 0 -1 0 I I #
straight-curve $-1 -42.880207549588746 -42.34647281104295 64.735803854884111 0 0 -1 I I #
point $-1 -42.880207549588746 -42.34647281104295 16.378871805942413 #
straight-curve $-1 -11.510569048267214 -42.34647281104295 2.7486973173499161 1 0 0 I I #
point $-1 -42.880207549588746 -42.34647281104295 2.7486973173499134 #
point $-1 -34.936579768367018 -30.063881195522292 5.2659302884578958 #
point $-1 -23.021138096534429 -30.063881195522292 5.2659302884578958 #
point $-1 -11.105696424701833 -30.063881195522292 5.2659302884578958 #
straight-curve $-1 -3.1620686434801115 42.34647281104295 90.220547692702354 0 0 -1 I I #
point $-1 -3.1620686434801115 42.34647281104295 16.378871805942413 #
straight-curve $-1 -11.510569048267214 42.346472811042958 2.7486973173499152 -1 0 0 I I #
point $-1 -3.1620686434801115 42.346472811042958 2.7486973173499081 #
point $-1 -34.936579768367018 30.063881195522299 5.2659302884578958 #
point $-1 -23.021138096534429 30.063881195522299 5.2659302884578958 #
point $-1 -11.105696424701833 30.063881195522299 5.2659302884578958 #
point $-1 -79.337137974181346 -42.34647281104295 16.378871805942413 #
straight-curve $-1 -79.337137974181346 -42.34647281104295 0 0 0 -1 I I #
point $-1 -79.337137974181346 -42.34647281104295 -16.378871805942413 #
End-of-ACIS-data 