500 0 15 0           
7 Unknown 11 ACIS 5.0 NT 24 Fri Mar 26 19:57:24 1999 
-1 9.9999999999999995e-007 1e-010 
body $-1 $15 $-1 $16 #
body $-1 $17 $-1 $18 #
body $-1 $19 $-1 $20 #
body $-1 $21 $-1 $22 #
body $-1 $23 $-1 $24 #
body $-1 $25 $-1 $26 #
body $-1 $27 $-1 $28 #
body $-1 $29 $-1 $30 #
body $-1 $31 $-1 $32 #
body $-1 $33 $-1 $34 #
body $-1 $35 $-1 $36 #
body $-1 $37 $-1 $38 #
body $-1 $39 $-1 $40 #
body $-1 $41 $-1 $42 #
body $-1 $43 $-1 $44 #
lump $-1 $-1 $45 $0 #
transform $-1 1 0 0 0 1 0 0 0 1 61.094393749809257 42.043391612981772 16.485289939377722 1 rotate no_reflect no_shear #
lump $-1 $-1 $46 $1 #
transform $-1 1 0 0 0 1 0 0 0 1 61.094393749809257 42.043391612981772 16.485289939377722 1 rotate no_reflect no_shear #
lump $-1 $-1 $47 $2 #
transform $-1 1 0 0 0 1 0 0 0 1 61.094393749809257 42.043391612981772 16.485289939377722 1 rotate no_reflect no_shear #
lump $-1 $-1 $48 $3 #
transform $-1 1 0 0 0 1 0 0 0 1 61.094393749809257 42.043391612981772 16.485289939377722 1 rotate no_reflect no_shear #
lump $-1 $-1 $49 $4 #
transform $-1 1 0 0 0 1 0 0 0 1 61.094393749809257 42.043391612981772 16.485289939377722 1 rotate no_reflect no_shear #
lump $-1 $-1 $50 $5 #
transform $-1 1 0 0 0 1 0 0 0 1 61.094393749809257 42.043391612981772 16.485289939377722 1 rotate no_reflect no_shear #
lump $-1 $-1 $51 $6 #
transform $-1 1 0 0 0 1 0 0 0 1 61.094393749809257 42.043391612981772 16.485289939377722 1 rotate no_reflect no_shear #
lump $-1 $-1 $52 $7 #
transform $-1 1 0 0 0 1 0 0 0 1 61.094393749809257 42.043391612981772 16.485289939377722 1 rotate no_reflect no_shear #
lump $-1 $-1 $53 $8 #
transform $-1 1 0 0 0 1 0 0 0 1 61.094393749809257 42.043391612981772 16.485289939377722 1 rotate no_reflect no_shear #
lump $-1 $-1 $54 $9 #
transform $-1 1 0 0 0 1 0 0 0 1 61.094393749809257 42.043391612981772 16.485289939377722 1 rotate no_reflect no_shear #
lump $-1 $-1 $55 $10 #
transform $-1 1 0 0 0 1 0 0 0 1 61.094393749809257 42.043391612981772 16.485289939377722 1 rotate no_reflect no_shear #
lump $-1 $-1 $56 $11 #
transform $-1 1 0 0 0 1 0 0 0 1 61.094393749809257 42.043391612981772 16.485289939377722 1 rotate no_reflect no_shear #
lump $-1 $-1 $57 $12 #
transform $-1 1 0 0 0 1 0 0 0 1 61.094393749809257 42.043391612981772 16.485289939377722 1 rotate no_reflect no_shear #
lump $-1 $-1 $58 $13 #
transform $-1 1 0 0 0 1 0 0 0 1 61.094393749809257 42.043391612981772 16.485289939377722 1 rotate no_reflect no_shear #
lump $-1 $-1 $59 $14 #
transform $-1 1 0 0 0 1 0 0 0 1 61.094393749809257 42.043391612981772 16.485289939377722 1 rotate no_reflect no_shear #
shell $-1 $-1 $-1 $60 $-1 $15 #
shell $-1 $-1 $-1 $61 $-1 $17 #
shell $-1 $-1 $-1 $62 $-1 $19 #
shell $-1 $-1 $-1 $63 $-1 $21 #
shell $-1 $-1 $-1 $64 $-1 $23 #
shell $-1 $-1 $-1 $65 $-1 $25 #
shell $-1 $-1 $-1 $66 $-1 $27 #
shell $-1 $-1 $-1 $67 $-1 $29 #
shell $-1 $-1 $-1 $68 $-1 $31 #
shell $-1 $-1 $-1 $69 $-1 $33 #
shell $-1 $-1 $-1 $70 $-1 $35 #
shell $-1 $-1 $-1 $71 $-1 $37 #
shell $-1 $-1 $-1 $72 $-1 $39 #
shell $-1 $-1 $-1 $73 $-1 $41 #
shell $-1 $-1 $-1 $74 $-1 $43 #
face $-1 $75 $76 $45 $-1 $77 forward single #
face $-1 $78 $79 $46 $-1 $80 forward single #
face $-1 $81 $82 $47 $-1 $83 forward single #
face $-1 $84 $85 $48 $-1 $86 reversed single #
face $-1 $87 $88 $49 $-1 $89 forward single #
face $-1 $90 $91 $50 $-1 $92 forward single #
face $-1 $93 $94 $51 $-1 $95 reversed single #
face $-1 $96 $97 $52 $-1 $98 forward single #
face $-1 $99 $100 $53 $-1 $101 forward single #
face $-1 $102 $103 $54 $-1 $104 reversed single #
face $-1 $105 $106 $55 $-1 $107 forward single #
face $-1 $108 $109 $56 $-1 $110 forward single #
face $-1 $111 $112 $57 $-1 $113 reversed single #
face $-1 $114 $115 $58 $-1 $116 forward single #
face $-1 $117 $118 $59 $-1 $119 forward single #
face $-1 $120 $121 $45 $-1 $122 reversed single #
loop $-1 $-1 $123 $60 #
plane-surface $-1 0 0 16.485289939377722 0 0 1 1 0 0 forward_v I I I I #
face $-1 $124 $125 $46 $-1 $126 reversed single #
loop $-1 $-1 $127 $61 #
plane-surface $-1 0 -34.445417221085194 -6.8094455480052991 0 0 1 1 0 0 forward_v I I I I #
face $-1 $128 $129 $47 $-1 $130 reversed single #
loop $-1 $-1 $131 $62 #
plane-surface $-1 0 34.445417221085187 -6.8094455480052991 0 0 1 1 0 0 forward_v I I I I #
face $-1 $132 $133 $48 $-1 $134 reversed single #
loop $-1 $-1 $135 $63 #
plane-surface $-1 -148.98965276010992 -6.1571768093352706 90.219336531073026 0 -1 0 0.71933980857756763 0 -0.69465836192734942 forward_v I I I I #
face $-1 $136 $137 $49 $-1 $138 forward single #
loop $-1 $139 $140 $64 #
cone-surface $-1 -55.331323933713584 -15.743769126877115 10.544105631118153 0.71933980857756763 0 -0.69465836192734942 0.69465836192734942 0 0.71933980857756763 1 I I 0 1 1 forward I I I I #
face $-1 $141 $142 $50 $-1 $143 forward single #
loop $-1 $144 $145 $65 #
cone-surface $-1 -55.331323933713584 -9.9918137363520074 10.544105631118153 0.71933980857756763 0 -0.69465836192734942 0.69465836192734942 0 0.71933980857756763 1 I I 0 1 1 forward I I I I #
face $-1 $146 $147 $51 $-1 $148 reversed single #
loop $-1 $-1 $149 $66 #
plane-surface $-1 -148.98965276010992 19.578406053893843 90.219336531073026 0 -1 0 0.71933980857756763 0 -0.69465836192734942 forward_v I I I I #
face $-1 $150 $151 $52 $-1 $152 forward single #
loop $-1 $153 $154 $67 #
cone-surface $-1 -55.331323933713584 9.9918137363519932 10.544105631118153 0.71933980857756763 0 -0.69465836192734942 0.69465836192734942 0 0.71933980857756763 1 I I 0 1 1 forward I I I I #
face $-1 $155 $156 $53 $-1 $157 forward single #
loop $-1 $158 $159 $68 #
cone-surface $-1 -55.331323933713584 15.743769126877105 10.544105631118153 0.71933980857756763 0 -0.69465836192734942 0.69465836192734942 0 0.71933980857756763 1 I I 0 1 1 forward I I I I #
face $-1 $160 $161 $54 $-1 $162 reversed single #
loop $-1 $-1 $163 $69 #
plane-surface $-1 64.110189789735927 -6.1571768093352706 178.11459554137372 0 -1 0 -0.71933980857756763 0 -0.69465836192734942 forward_v I I I I #
face $-1 $164 $165 $55 $-1 $166 forward single #
loop $-1 $167 $168 $70 #
cone-surface $-1 55.331323933713577 -15.743769126877115 10.544105631118153 -0.71933980857756763 0 -0.69465836192734942 0.69465836192734942 0 -0.71933980857756763 1 I I 0 1 1 forward I I I I #
face $-1 $169 $170 $56 $-1 $171 forward single #
loop $-1 $172 $173 $71 #
cone-surface $-1 55.331323933713577 -9.9918137363520074 10.544105631118153 -0.71933980857756763 0 -0.69465836192734942 0.69465836192734942 0 -0.71933980857756763 1 I I 0 1 1 forward I I I I #
face $-1 $174 $175 $57 $-1 $176 reversed single #
loop $-1 $-1 $177 $72 #
plane-surface $-1 64.110189789735927 19.578406053893843 178.11459554137372 0 -1 0 -0.71933980857756763 0 -0.69465836192734942 forward_v I I I I #
face $-1 $178 $179 $58 $-1 $180 forward single #
loop $-1 $181 $182 $73 #
cone-surface $-1 55.331323933713577 9.9918137363519932 10.544105631118153 -0.71933980857756763 0 -0.69465836192734942 0.69465836192734942 0 -0.71933980857756763 1 I I 0 1 1 forward I I I I #
face $-1 $183 $184 $59 $-1 $185 forward single #
loop $-1 $186 $187 $74 #
cone-surface $-1 55.331323933713577 15.743769126877105 10.544105631118153 -0.71933980857756763 0 -0.69465836192734942 0.69465836192734942 0 -0.71933980857756763 1 I I 0 1 1 forward I I I I #
face $-1 $188 $189 $45 $-1 $190 reversed single #
loop $-1 $-1 $191 $75 #
plane-surface $-1 0 0 -16.485289939377722 0 0 1 1 0 0 forward_v I I I I #
coedge $-1 $192 $193 $194 $195 forward $76 $-1 #
face $-1 $196 $197 $46 $-1 $198 reversed single #
loop $-1 $-1 $199 $78 #
plane-surface $-1 0 -26.847442829188619 -11.647367743691511 0 -1 0 0 0 -1 forward_v I I I I #
coedge $-1 $200 $201 $202 $203 reversed $79 $-1 #
face $-1 $204 $205 $47 $-1 $206 reversed single #
loop $-1 $-1 $207 $81 #
plane-surface $-1 0 26.847442829188608 -11.647367743691511 0 1 0 0 0 1 forward_v I I I I #
coedge $-1 $208 $209 $210 $211 reversed $82 $-1 #
face $-1 $212 $213 $48 $-1 $214 reversed single #
loop $-1 $-1 $215 $84 #
plane-surface $-1 -61.094393749809257 -12.867791431614563 5.3398735606990329 -0.71933980857756763 0 0.69465836192734942 0.69465836192734942 0 0.71933980857756763 forward_v I I I I #
coedge $-1 $216 $217 $218 $219 reversed $85 $-1 #
face $-1 $-1 $220 $49 $-1 $221 forward single #
loop $-1 $222 $223 $87 #
cone-surface $-1 -54.59008582931839 -15.743769126877115 9.8283003312342458 0.71933980857756763 0 -0.69465836192734942 0.34732918096367471 0 0.35966990428878381 1 I I -0.70710678118654746 0.70710678118654746 0.5 forward I I I I #
loop $-1 $-1 $224 $64 #
coedge $-1 $140 $140 $225 $226 reversed $88 $-1 #
face $-1 $-1 $227 $50 $-1 $228 forward single #
loop $-1 $229 $230 $90 #
cone-surface $-1 -54.59008582931839 -9.9918137363520074 9.8283003312342458 0.71933980857756763 0 -0.69465836192734942 0.34732918096367471 0 0.35966990428878381 1 I I -0.70710678118654746 0.70710678118654746 0.5 forward I I I I #
loop $-1 $-1 $231 $65 #
coedge $-1 $145 $145 $232 $233 reversed $91 $-1 #
face $-1 $234 $235 $51 $-1 $236 reversed single #
loop $-1 $-1 $237 $93 #
plane-surface $-1 -61.094393749809257 12.867791431614549 5.3398735606990329 -0.71933980857756763 0 0.69465836192734942 0.69465836192734942 0 0.71933980857756763 forward_v I I I I #
coedge $-1 $238 $239 $240 $241 reversed $94 $-1 #
face $-1 $-1 $242 $52 $-1 $243 forward single #
loop $-1 $244 $245 $96 #
cone-surface $-1 -54.59008582931839 9.9918137363519932 9.8283003312342458 0.71933980857756763 0 -0.69465836192734942 0.34732918096367471 0 0.35966990428878381 1 I I -0.70710678118654746 0.70710678118654746 0.5 forward I I I I #
loop $-1 $-1 $246 $67 #
coedge $-1 $154 $154 $247 $248 reversed $97 $-1 #
face $-1 $-1 $249 $53 $-1 $250 forward single #
loop $-1 $251 $252 $99 #
cone-surface $-1 -54.59008582931839 15.743769126877105 9.8283003312342458 0.71933980857756763 0 -0.69465836192734942 0.34732918096367471 0 0.35966990428878381 1 I I -0.70710678118654746 0.70710678118654746 0.5 forward I I I I #
loop $-1 $-1 $253 $68 #
coedge $-1 $159 $159 $254 $255 reversed $100 $-1 #
face $-1 $256 $257 $54 $-1 $258 reversed single #
loop $-1 $-1 $259 $102 #
plane-surface $-1 -23.785069220564736 -12.867791431614563 93.235132570999724 0.71933980857756763 0 0.69465836192734942 0.69465836192734942 0 -0.71933980857756763 forward_v I I I I #
coedge $-1 $260 $261 $262 $263 reversed $103 $-1 #
face $-1 $-1 $264 $55 $-1 $265 forward single #
loop $-1 $266 $267 $105 #
cone-surface $-1 54.590085829318383 -15.743769126877115 9.8283003312342458 -0.71933980857756763 0 -0.69465836192734942 0.34732918096367471 0 -0.35966990428878381 1 I I -0.70710678118654746 0.70710678118654746 0.5 forward I I I I #
loop $-1 $-1 $268 $70 #
coedge $-1 $168 $168 $269 $270 reversed $106 $-1 #
face $-1 $-1 $271 $56 $-1 $272 forward single #
loop $-1 $273 $274 $108 #
cone-surface $-1 54.590085829318383 -9.9918137363520074 9.8283003312342458 -0.71933980857756763 0 -0.69465836192734942 0.34732918096367471 0 -0.35966990428878381 1 I I -0.70710678118654746 0.70710678118654746 0.5 forward I I I I #
loop $-1 $-1 $275 $71 #
coedge $-1 $173 $173 $276 $277 reversed $109 $-1 #
face $-1 $278 $279 $57 $-1 $280 reversed single #
loop $-1 $-1 $281 $111 #
plane-surface $-1 -23.785069220564736 12.867791431614549 93.235132570999724 0.71933980857756763 0 0.69465836192734942 0.69465836192734942 0 -0.71933980857756763 forward_v I I I I #
coedge $-1 $282 $283 $284 $285 reversed $112 $-1 #
face $-1 $-1 $286 $58 $-1 $287 forward single #
loop $-1 $288 $289 $114 #
cone-surface $-1 54.590085829318383 9.9918137363519932 9.8283003312342458 -0.71933980857756763 0 -0.69465836192734942 0.34732918096367471 0 -0.35966990428878381 1 I I -0.70710678118654746 0.70710678118654746 0.5 forward I I I I #
loop $-1 $-1 $290 $73 #
coedge $-1 $182 $182 $291 $292 reversed $115 $-1 #
face $-1 $-1 $293 $59 $-1 $294 forward single #
loop $-1 $295 $296 $117 #
cone-surface $-1 54.590085829318383 15.743769126877105 9.8283003312342458 -0.71933980857756763 0 -0.69465836192734942 0.34732918096367471 0 -0.35966990428878381 1 I I -0.70710678118654746 0.70710678118654746 0.5 forward I I I I #
loop $-1 $-1 $297 $74 #
coedge $-1 $187 $187 $298 $299 reversed $118 $-1 #
face $-1 $300 $301 $45 $-1 $302 reversed single #
loop $-1 $-1 $303 $120 #
plane-surface $-1 0 -42.043391612981772 0 0 1 0 0 0 1 forward_v I I I I #
coedge $-1 $304 $305 $306 $307 forward $121 $-1 #
coedge $-1 $308 $123 $309 $310 forward $76 $-1 #
coedge $-1 $123 $308 $311 $312 forward $76 $-1 #
coedge $-1 $313 $314 $123 $195 reversed $315 $-1 #
edge $-1 $316 -42.043391612981772 $317 42.043391612981772 $194 $318 forward 7 unknown #
face $-1 $319 $320 $46 $-1 $321 reversed single #
loop $-1 $-1 $322 $124 #
plane-surface $-1 0 0 -16.485289939377722 0 0 1 1 0 0 forward_v I I I I #
coedge $-1 $323 $324 $325 $326 reversed $125 $-1 #
coedge $-1 $327 $127 $324 $328 forward $79 $-1 #
coedge $-1 $127 $327 $329 $330 reversed $79 $-1 #
coedge $-1 $331 $325 $127 $203 forward $320 $-1 #
edge $-1 $332 9.6247342186460223 $333 24.820683002439175 $202 $334 forward 7 unknown #
face $-1 $335 $336 $47 $-1 $337 reversed single #
loop $-1 $-1 $210 $128 #
plane-surface $-1 61.094393749809257 0 0 -1 0 0 0 0 1 forward_v I I I I #
coedge $-1 $338 $339 $340 $341 reversed $129 $-1 #
coedge $-1 $342 $131 $343 $344 reversed $82 $-1 #
coedge $-1 $131 $342 $339 $345 forward $82 $-1 #
coedge $-1 $346 $347 $131 $211 forward $205 $-1 #
edge $-1 $348 -24.820683002439171 $349 -9.6247342186460152 $210 $350 forward 7 unknown #
face $-1 $351 $352 $48 $-1 $353 reversed single #
loop $-1 $-1 $354 $132 #
plane-surface $-1 -148.98965276010992 -19.578406053893858 90.219336531073026 0 1 0 -0.71933980857756763 0 0.69465836192734942 forward_v I I I I #
coedge $-1 $355 $356 $357 $358 reversed $133 $-1 #
coedge $-1 $217 $135 $359 $360 reversed $85 $-1 #
coedge $-1 $135 $216 $355 $361 reversed $85 $-1 #
coedge $-1 $357 $362 $135 $219 forward $352 $-1 #
edge $-1 $363 28.624378326158791 $364 39.76979470483748 $218 $365 forward 7 unknown #
loop $-1 $-1 $225 $136 #
plane-surface $-1 -61.094393749809257 -12.867791431614563 5.3398735606990329 -0.71933980857756763 0 0.69465836192734942 0.69465836192734942 0 0.71933980857756763 forward_v I I I I #
loop $-1 $-1 $366 $87 #
coedge $-1 $223 $223 $224 $367 reversed $137 $-1 #
coedge $-1 $224 $224 $223 $367 forward $139 $-1 #
coedge $-1 $225 $225 $140 $226 forward $220 $-1 #
edge $-1 $368 0 $368 6.2831853071796004 $225 $369 forward 7 unknown #
loop $-1 $-1 $232 $141 #
plane-surface $-1 -61.094393749809257 -12.867791431614563 5.3398735606990329 -0.71933980857756763 0 0.69465836192734942 0.69465836192734942 0 0.71933980857756763 forward_v I I I I #
loop $-1 $-1 $370 $90 #
coedge $-1 $230 $230 $231 $371 reversed $142 $-1 #
coedge $-1 $231 $231 $230 $371 forward $144 $-1 #
coedge $-1 $232 $232 $145 $233 forward $227 $-1 #
edge $-1 $372 0 $372 6.2831853071796004 $232 $373 forward 7 unknown #
face $-1 $374 $375 $51 $-1 $376 forward single #
loop $-1 $-1 $377 $146 #
plane-surface $-1 -148.98965276010992 6.1571768093352564 90.219336531073026 0 1 0 -0.71933980857756763 0 0.69465836192734942 forward_v I I I I #
coedge $-1 $378 $379 $380 $381 reversed $147 $-1 #
coedge $-1 $239 $149 $382 $383 reversed $94 $-1 #
coedge $-1 $149 $238 $378 $384 reversed $94 $-1 #
coedge $-1 $380 $385 $149 $241 forward $386 $-1 #
edge $-1 $387 28.624378326158791 $388 39.76979470483748 $240 $389 forward 7 unknown #
loop $-1 $-1 $247 $150 #
plane-surface $-1 -61.094393749809257 12.867791431614549 5.3398735606990329 -0.71933980857756763 0 0.69465836192734942 0.69465836192734942 0 0.71933980857756763 forward_v I I I I #
loop $-1 $-1 $390 $96 #
coedge $-1 $245 $245 $246 $391 reversed $151 $-1 #
coedge $-1 $246 $246 $245 $391 forward $153 $-1 #
coedge $-1 $247 $247 $154 $248 forward $242 $-1 #
edge $-1 $392 0 $392 6.2831853071796004 $247 $393 forward 7 unknown #
loop $-1 $-1 $254 $155 #
plane-surface $-1 -61.094393749809257 12.867791431614549 5.3398735606990329 -0.71933980857756763 0 0.69465836192734942 0.69465836192734942 0 0.71933980857756763 forward_v I I I I #
loop $-1 $-1 $394 $99 #
coedge $-1 $252 $252 $253 $395 reversed $156 $-1 #
coedge $-1 $253 $253 $252 $395 forward $158 $-1 #
coedge $-1 $254 $254 $159 $255 forward $249 $-1 #
edge $-1 $396 0 $396 6.2831853071796004 $254 $397 forward 7 unknown #
face $-1 $398 $399 $54 $-1 $400 forward single #
loop $-1 $-1 $401 $160 #
plane-surface $-1 64.110189789735927 -19.578406053893858 178.11459554137372 0 1 0 0.71933980857756763 0 0.69465836192734942 forward_v I I I I #
coedge $-1 $402 $403 $404 $405 reversed $161 $-1 #
coedge $-1 $261 $163 $406 $407 reversed $103 $-1 #
coedge $-1 $163 $260 $402 $408 reversed $103 $-1 #
coedge $-1 $404 $409 $163 $263 forward $399 $-1 #
edge $-1 $410 -29.039298854941293 $411 -18.276295622962763 $262 $412 forward 7 unknown #
loop $-1 $-1 $269 $164 #
plane-surface $-1 -23.785069220564736 -12.867791431614563 93.235132570999724 0.71933980857756763 0 0.69465836192734942 0.69465836192734942 0 -0.71933980857756763 forward_v I I I I #
loop $-1 $-1 $413 $105 #
coedge $-1 $267 $267 $268 $414 reversed $165 $-1 #
coedge $-1 $268 $268 $267 $414 forward $167 $-1 #
coedge $-1 $269 $269 $168 $270 forward $264 $-1 #
edge $-1 $415 0 $415 6.2831853071796004 $269 $416 forward 7 unknown #
loop $-1 $-1 $276 $169 #
plane-surface $-1 -23.785069220564736 -12.867791431614563 93.235132570999724 0.71933980857756763 0 0.69465836192734942 0.69465836192734942 0 -0.71933980857756763 forward_v I I I I #
loop $-1 $-1 $417 $108 #
coedge $-1 $274 $274 $275 $418 reversed $170 $-1 #
coedge $-1 $275 $275 $274 $418 forward $172 $-1 #
coedge $-1 $276 $276 $173 $277 forward $271 $-1 #
edge $-1 $419 0 $419 6.2831853071796004 $276 $420 forward 7 unknown #
face $-1 $421 $422 $57 $-1 $423 reversed single #
loop $-1 $-1 $424 $174 #
plane-surface $-1 64.110189789735927 6.1571768093352564 178.11459554137372 0 1 0 0.71933980857756763 0 0.69465836192734942 forward_v I I I I #
coedge $-1 $425 $426 $427 $428 reversed $175 $-1 #
coedge $-1 $283 $177 $429 $430 reversed $112 $-1 #
coedge $-1 $177 $282 $425 $431 reversed $112 $-1 #
coedge $-1 $427 $432 $177 $285 forward $433 $-1 #
edge $-1 $434 -29.039298854941293 $435 -18.276295622962763 $284 $436 forward 7 unknown #
loop $-1 $-1 $291 $178 #
plane-surface $-1 -23.785069220564736 12.867791431614549 93.235132570999724 0.71933980857756763 0 0.69465836192734942 0.69465836192734942 0 -0.71933980857756763 forward_v I I I I #
loop $-1 $-1 $437 $114 #
coedge $-1 $289 $289 $290 $438 reversed $179 $-1 #
coedge $-1 $290 $290 $289 $438 forward $181 $-1 #
coedge $-1 $291 $291 $182 $292 forward $286 $-1 #
edge $-1 $439 0 $439 6.2831853071796004 $291 $440 forward 7 unknown #
loop $-1 $-1 $298 $183 #
plane-surface $-1 -23.785069220564736 12.867791431614549 93.235132570999724 0.71933980857756763 0 0.69465836192734942 0.69465836192734942 0 -0.71933980857756763 forward_v I I I I #
loop $-1 $-1 $441 $117 #
coedge $-1 $296 $296 $297 $442 reversed $184 $-1 #
coedge $-1 $297 $297 $296 $442 forward $186 $-1 #
coedge $-1 $298 $298 $187 $299 forward $293 $-1 #
edge $-1 $443 0 $443 6.2831853071796004 $298 $444 forward 7 unknown #
face $-1 $445 $446 $45 $-1 $447 reversed single #
loop $-1 $-1 $448 $188 #
plane-surface $-1 -61.094393749809257 0 0 1 0 0 0 0 -1 forward_v I I I I #
coedge $-1 $449 $311 $450 $451 forward $189 $-1 #
coedge $-1 $452 $191 $449 $453 forward $121 $-1 #
coedge $-1 $191 $452 $454 $455 forward $121 $-1 #
coedge $-1 $314 $313 $191 $307 reversed $315 $-1 #
edge $-1 $456 -42.043391612981772 $457 42.043391612981772 $306 $458 forward 7 unknown #
coedge $-1 $193 $192 $459 $460 forward $76 $-1 #
coedge $-1 $461 $462 $192 $310 reversed $446 $-1 #
edge $-1 $317 -61.094393749809257 $463 61.094393749809257 $309 $464 forward 7 unknown #
coedge $-1 $303 $465 $193 $312 reversed $189 $-1 #
edge $-1 $466 -61.094393749809257 $316 61.094393749809257 $311 $467 forward 7 unknown #
coedge $-1 $306 $194 $465 $468 forward $315 $-1 #
coedge $-1 $194 $306 $461 $469 reversed $315 $-1 #
loop $-1 $-1 $313 $445 #
vertex $-1 $195 $470 #
vertex $-1 $195 $471 #
straight-curve $-1 61.094393749809257 0 16.485289939377722 0 1 0 I I #
face $-1 $472 $473 $46 $-1 $474 reversed single #
loop $-1 $-1 $325 $196 #
plane-surface $-1 61.094393749809257 0 0 -1 0 0 0 0 1 forward_v I I I I #
coedge $-1 $475 $476 $323 $477 forward $197 $-1 #
coedge $-1 $478 $199 $322 $477 reversed $125 $-1 #
coedge $-1 $199 $478 $200 $328 reversed $125 $-1 #
coedge $-1 $202 $479 $199 $326 forward $320 $-1 #
edge $-1 $480 -10.661606067531967 $332 -0.98576167615954358 $325 $481 forward 7 unknown #
coedge $-1 $201 $200 $482 $483 reversed $79 $-1 #
edge $-1 $332 -61.094393749809257 $484 61.094393749809257 $324 $485 forward 7 unknown #
coedge $-1 $486 $487 $201 $330 forward $473 $-1 #
edge $-1 $333 -61.094393749809257 $488 61.094393749809257 $329 $489 forward 7 unknown #
coedge $-1 $479 $202 $487 $490 forward $320 $-1 #
vertex $-1 $203 $491 #
vertex $-1 $490 $492 #
straight-curve $-1 61.094393749809257 -17.222708610542597 -6.8094455480052991 0 -1 0 I I #
face $-1 $493 $494 $47 $-1 $495 reversed single #
loop $-1 $-1 $496 $204 #
plane-surface $-1 0 0 -16.485289939377722 0 0 1 1 0 0 forward_v I I I I #
coedge $-1 $497 $207 $496 $498 reversed $129 $-1 #
coedge $-1 $207 $497 $209 $345 reversed $129 $-1 #
coedge $-1 $499 $500 $207 $341 forward $494 $-1 #
edge $-1 $501 -10.661606067531967 $502 -0.98576167615954358 $340 $503 forward 7 unknown #
coedge $-1 $209 $208 $499 $504 reversed $82 $-1 #
coedge $-1 $505 $506 $208 $344 forward $507 $-1 #
edge $-1 $508 -61.094393749809257 $348 61.094393749809257 $343 $509 forward 7 unknown #
edge $-1 $502 -61.094393749809257 $349 61.094393749809257 $339 $510 forward 7 unknown #
coedge $-1 $511 $210 $497 $512 forward $205 $-1 #
coedge $-1 $210 $511 $505 $513 reversed $205 $-1 #
vertex $-1 $513 $514 #
vertex $-1 $211 $515 #
straight-curve $-1 61.094393749809257 17.222708610542593 -6.8094455480052991 0 -1 0 I I #
face $-1 $-1 $516 $48 $-1 $517 forward single #
loop $-1 $-1 $218 $212 #
plane-surface $-1 -61.094393749809257 0 0 1 0 0 0 0 -1 forward_v I I I I #
coedge $-1 $518 $519 $520 $521 reversed $213 $-1 #
coedge $-1 $522 $215 $217 $361 forward $133 $-1 #
coedge $-1 $215 $522 $518 $523 forward $133 $-1 #
coedge $-1 $520 $218 $215 $358 forward $352 $-1 #
edge $-1 $364 -0.27671890647201103 $524 13.144510338086576 $357 $525 forward 7 unknown #
coedge $-1 $526 $527 $216 $360 forward $516 $-1 #
edge $-1 $528 -24.163435862224247 $363 -13.400432630245703 $359 $529 forward 7 unknown #
edge $-1 $364 0 $528 15.493951878900997 $217 $530 forward 7 unknown #
coedge $-1 $218 $520 $526 $531 reversed $352 $-1 #
vertex $-1 $531 $532 #
vertex $-1 $219 $533 #
straight-curve $-1 -61.094393749809257 -6.1571768093352706 45.109668265536513 0 0 -1 I I #
coedge $-1 $366 $366 $-1 $534 reversed $222 $-1 #
edge $-1 $535 0 $535 6.2831853071796004 $223 $536 forward 7 unknown #
vertex $-1 $226 $537 #
ellipse-curve $-1 -55.712892133819985 -15.743769126877115 10.912581750038377 -0.71933980857756763 0 0.69465836192734942 0.69465836192734942 0 0.71933980857756763 1 I I #
coedge $-1 $370 $370 $-1 $538 reversed $229 $-1 #
edge $-1 $539 0 $539 6.2831853071796004 $230 $540 forward 7 unknown #
vertex $-1 $233 $541 #
ellipse-curve $-1 -55.712892133819985 -9.9918137363520074 10.912581750038377 -0.71933980857756763 0 0.69465836192734942 0.69465836192734942 0 0.71933980857756763 1 I I #
face $-1 $-1 $386 $51 $-1 $542 reversed single #
loop $-1 $-1 $543 $234 #
plane-surface $-1 0 0 16.485289939377722 0 0 1 1 0 0 forward_v I I I I #
coedge $-1 $544 $545 $546 $547 reversed $235 $-1 #
coedge $-1 $548 $237 $239 $384 forward $147 $-1 #
coedge $-1 $237 $548 $544 $549 forward $147 $-1 #
coedge $-1 $546 $240 $237 $381 forward $386 $-1 #
edge $-1 $388 -13.144510338086569 $550 0.27671890647201813 $380 $551 forward 7 unknown #
coedge $-1 $552 $553 $238 $383 forward $375 $-1 #
edge $-1 $554 -24.163435862224247 $387 -13.400432630245703 $382 $555 forward 7 unknown #
edge $-1 $388 0 $554 15.493951878900997 $239 $556 forward 7 unknown #
coedge $-1 $240 $546 $552 $557 reversed $386 $-1 #
loop $-1 $-1 $546 $374 #
vertex $-1 $557 $558 #
vertex $-1 $241 $559 #
straight-curve $-1 -61.094393749809257 19.578406053893843 45.109668265536513 0 0 -1 I I #
coedge $-1 $390 $390 $-1 $560 reversed $244 $-1 #
edge $-1 $561 0 $561 6.2831853071796004 $245 $562 forward 7 unknown #
vertex $-1 $248 $563 #
ellipse-curve $-1 -55.712892133819985 9.9918137363519932 10.912581750038377 -0.71933980857756763 0 0.69465836192734942 0.69465836192734942 0 0.71933980857756763 1 I I #
coedge $-1 $394 $394 $-1 $564 reversed $251 $-1 #
edge $-1 $565 0 $565 6.2831853071796004 $252 $566 forward 7 unknown #
vertex $-1 $255 $567 #
ellipse-curve $-1 -55.712892133819985 15.743769126877105 10.912581750038377 -0.71933980857756763 0 0.69465836192734942 0.69465836192734942 0 0.71933980857756763 1 I I #
face $-1 $-1 $568 $54 $-1 $569 reversed single #
loop $-1 $-1 $262 $256 #
plane-surface $-1 0 0 16.485289939377722 0 0 1 1 0 0 forward_v I I I I #
coedge $-1 $570 $571 $572 $573 reversed $257 $-1 #
coedge $-1 $574 $259 $261 $408 forward $161 $-1 #
coedge $-1 $259 $574 $570 $575 forward $161 $-1 #
coedge $-1 $572 $262 $259 $405 forward $399 $-1 #
edge $-1 $411 -0.27671890647201103 $576 13.144510338086576 $404 $577 forward 7 unknown #
coedge $-1 $578 $579 $260 $407 forward $568 $-1 #
edge $-1 $580 -83.717424209987811 $410 -72.572007831309136 $406 $581 forward 7 unknown #
edge $-1 $411 106.69483562071756 $580 122.18878749961853 $261 $582 forward 7 unknown #
coedge $-1 $262 $572 $578 $583 forward $399 $-1 #
vertex $-1 $263 $584 #
vertex $-1 $263 $585 #
straight-curve $-1 32.055094894867963 -6.1571768093352706 16.485289939377722 -1 0 0 I I #
coedge $-1 $413 $413 $-1 $586 reversed $266 $-1 #
edge $-1 $587 0 $587 6.2831853071796004 $267 $588 forward 7 unknown #
vertex $-1 $270 $589 #
ellipse-curve $-1 55.712892133819985 -15.743769126877115 10.912581750038385 0.71933980857756763 0 0.69465836192734942 0.69465836192734942 0 -0.71933980857756763 1 I I #
coedge $-1 $417 $417 $-1 $590 reversed $273 $-1 #
edge $-1 $591 0 $591 6.2831853071796004 $274 $592 forward 7 unknown #
vertex $-1 $277 $593 #
ellipse-curve $-1 55.712892133819985 -9.9918137363520074 10.912581750038385 0.71933980857756763 0 0.69465836192734942 0.69465836192734942 0 -0.71933980857756763 1 I I #
face $-1 $-1 $433 $57 $-1 $594 forward single #
loop $-1 $-1 $595 $278 #
plane-surface $-1 61.094393749809257 0 0 -1 0 0 0 0 1 forward_v I I I I #
coedge $-1 $596 $597 $598 $599 reversed $279 $-1 #
coedge $-1 $600 $281 $283 $431 forward $175 $-1 #
coedge $-1 $281 $600 $596 $601 forward $175 $-1 #
coedge $-1 $598 $284 $281 $428 forward $433 $-1 #
edge $-1 $435 -13.144510338086569 $602 0.27671890647201813 $427 $603 forward 7 unknown #
coedge $-1 $604 $605 $282 $430 forward $422 $-1 #
edge $-1 $606 -83.717424209987811 $434 -72.572007831309136 $429 $607 forward 7 unknown #
edge $-1 $435 106.69483562071756 $606 122.18878749961853 $283 $608 forward 7 unknown #
coedge $-1 $284 $598 $604 $609 forward $433 $-1 #
loop $-1 $-1 $598 $421 #
vertex $-1 $430 $610 #
vertex $-1 $285 $611 #
straight-curve $-1 32.055094894867963 19.578406053893843 16.485289939377722 -1 0 0 I I #
coedge $-1 $437 $437 $-1 $612 reversed $288 $-1 #
edge $-1 $613 0 $613 6.2831853071796004 $289 $614 forward 7 unknown #
vertex $-1 $292 $615 #
ellipse-curve $-1 55.712892133819985 9.9918137363519932 10.912581750038385 0.71933980857756763 0 0.69465836192734942 0.69465836192734942 0 -0.71933980857756763 1 I I #
coedge $-1 $441 $441 $-1 $616 reversed $295 $-1 #
edge $-1 $617 0 $617 6.2831853071796004 $296 $618 forward 7 unknown #
vertex $-1 $299 $619 #
ellipse-curve $-1 55.712892133819985 15.743769126877105 10.912581750038385 0.71933980857756763 0 0.69465836192734942 0.69465836192734942 0 -0.71933980857756763 1 I I #
face $-1 $-1 $315 $45 $-1 $620 reversed single #
loop $-1 $-1 $461 $300 #
plane-surface $-1 0 42.043391612981772 0 0 -1 0 0 0 -1 forward_v I I I I #
coedge $-1 $621 $459 $462 $622 forward $301 $-1 #
coedge $-1 $465 $303 $304 $453 reversed $189 $-1 #
coedge $-1 $459 $621 $303 $451 reversed $301 $-1 #
edge $-1 $466 -16.485289939377722 $623 16.485289939377722 $450 $624 forward 7 unknown #
coedge $-1 $305 $304 $621 $625 forward $121 $-1 #
edge $-1 $457 -61.094393749809257 $623 61.094393749809257 $449 $626 forward 7 unknown #
coedge $-1 $462 $461 $305 $455 reversed $446 $-1 #
edge $-1 $627 -61.094393749809257 $456 61.094393749809257 $454 $628 forward 7 unknown #
vertex $-1 $307 $629 #
vertex $-1 $468 $630 #
straight-curve $-1 61.094393749809257 0 -16.485289939377722 0 -1 0 I I #
coedge $-1 $448 $450 $308 $460 reversed $301 $-1 #
edge $-1 $463 -42.043391612981772 $466 42.043391612981772 $459 $631 forward 7 unknown #
coedge $-1 $454 $309 $314 $469 forward $446 $-1 #
coedge $-1 $309 $454 $448 $622 reversed $446 $-1 #
vertex $-1 $310 $632 #
straight-curve $-1 0 42.043391612981772 16.485289939377722 -1 0 0 I I #
coedge $-1 $311 $449 $313 $468 reversed $189 $-1 #
vertex $-1 $460 $633 #
straight-curve $-1 0 -42.043391612981772 16.485289939377722 1 0 0 I I #
edge $-1 $316 -16.485289939377722 $457 16.485289939377722 $313 $634 forward 7 unknown #
edge $-1 $317 -16.485289939377722 $456 16.485289939377722 $314 $635 forward 7 unknown #
point $-1 61.094393749809257 -42.043391612981772 16.485289939377722 #
point $-1 61.094393749809257 42.043391612981772 16.485289939377722 #
face $-1 $-1 $636 $46 $-1 $637 reversed single #
loop $-1 $-1 $329 $319 #
plane-surface $-1 0 -42.043391612981772 0 0 1 0 0 0 1 forward_v I I I I #
coedge $-1 $638 $322 $479 $639 forward $197 $-1 #
coedge $-1 $322 $638 $640 $641 forward $197 $-1 #
edge $-1 $642 -61.094393749809257 $480 61.094393749809257 $322 $643 forward 7 unknown #
coedge $-1 $324 $323 $644 $645 reversed $125 $-1 #
coedge $-1 $325 $331 $475 $639 reversed $320 $-1 #
vertex $-1 $639 $646 #
straight-curve $-1 61.094393749809257 -26.847442829188619 -5.8236838718457555 0 0 1 I I #
coedge $-1 $644 $647 $327 $483 forward $636 $-1 #
edge $-1 $488 -24.820683002439175 $484 -9.6247342186460223 $482 $648 forward 7 unknown #
vertex $-1 $483 $649 #
straight-curve $-1 0 -26.847442829188619 -6.8094455480052991 -1 0 0 I I #
coedge $-1 $650 $329 $647 $651 forward $473 $-1 #
coedge $-1 $329 $650 $331 $490 reversed $473 $-1 #
vertex $-1 $651 $652 #
straight-curve $-1 0 -42.043391612981772 -6.8094455480052991 -1 0 0 I I #
edge $-1 $333 6.8094455480052991 $653 16.485289939377722 $331 $654 forward 7 unknown #
point $-1 61.094393749809257 -26.847442829188619 -6.8094455480052991 #
point $-1 61.094393749809257 -42.043391612981772 -6.8094455480052991 #
face $-1 $-1 $507 $47 $-1 $655 reversed single #
loop $-1 $-1 $499 $335 #
plane-surface $-1 -61.094393749809257 0 0 1 0 0 0 0 -1 forward_v I I I I #
coedge $-1 $656 $657 $338 $498 forward $336 $-1 #
coedge $-1 $339 $338 $346 $512 reversed $129 $-1 #
edge $-1 $658 -61.094393749809257 $501 61.094393749809257 $496 $659 forward 7 unknown #
coedge $-1 $660 $340 $342 $504 forward $494 $-1 #
coedge $-1 $340 $660 $656 $661 reversed $494 $-1 #
vertex $-1 $661 $662 #
vertex $-1 $504 $663 #
straight-curve $-1 -61.094393749809257 26.847442829188608 -5.8236838718457555 0 0 1 I I #
edge $-1 $502 9.6247342186460152 $508 24.820683002439171 $499 $664 forward 7 unknown #
coedge $-1 $665 $343 $347 $513 forward $507 $-1 #
coedge $-1 $343 $665 $660 $666 reversed $507 $-1 #
loop $-1 $-1 $343 $493 #
vertex $-1 $666 $667 #
straight-curve $-1 0 42.043391612981772 -6.8094455480052991 1 0 0 I I #
straight-curve $-1 0 26.847442829188608 -6.8094455480052991 1 0 0 I I #
coedge $-1 $347 $346 $657 $668 reversed $205 $-1 #
edge $-1 $349 0.98576167615954358 $658 10.661606067531967 $346 $669 forward 7 unknown #
edge $-1 $348 6.8094455480052991 $670 16.485289939377722 $347 $671 forward 7 unknown #
point $-1 61.094393749809257 42.043391612981765 -6.8094455480052991 #
point $-1 61.094393749809257 26.847442829188608 -6.8094455480052991 #
loop $-1 $-1 $359 $351 #
plane-surface $-1 0 0 16.485289939377722 0 0 1 1 0 0 forward_v I I I I #
coedge $-1 $519 $354 $356 $523 reversed $213 $-1 #
coedge $-1 $354 $518 $672 $673 reversed $213 $-1 #
coedge $-1 $362 $357 $354 $521 forward $352 $-1 #
edge $-1 $524 -39.76979470483748 $674 -28.624378326158791 $520 $675 forward 7 unknown #
coedge $-1 $356 $355 $527 $676 reversed $133 $-1 #
edge $-1 $677 -15.493951878900997 $524 0 $518 $678 forward 7 unknown #
vertex $-1 $358 $679 #
straight-curve $-1 -61.094393749809257 -6.4338957158072816 5.3398735606990346 0 -1 0 I I #
coedge $-1 $672 $359 $362 $531 forward $516 $-1 #
coedge $-1 $359 $672 $522 $676 forward $516 $-1 #
vertex $-1 $360 $680 #
straight-curve $-1 -74.49482638005496 -6.1571768093352706 16.485289939377722 -1 0 0 I I #
straight-curve $-1 -61.094393749809257 -6.1571768093352706 5.3398735606990329 0.69465836192734942 0 0.71933980857756763 I I #
edge $-1 $363 6.1571768093352706 $674 19.578406053893858 $362 $681 forward 7 unknown #
point $-1 -61.094393749809257 -6.1571768093352706 16.485289939377722 #
point $-1 -61.094393749809257 -6.1571768093352706 5.3398735606990329 #
edge $-1 $682 1 $682 0 $366 $-1 forward 7 unknown #
vertex $-1 $367 $683 #
ellipse-curve $-1 -54.949755733607176 -15.743769126877115 10.17562951219792 -0.71933980857756763 0 0.69465836192734942 0.69465836192734942 0 0.71933980857756763 1 I I #
point $-1 -55.018233771892639 -15.743769126877115 11.631921558615952 #
edge $-1 $684 1 $684 0 $370 $-1 forward 7 unknown #
vertex $-1 $371 $685 #
ellipse-curve $-1 -54.949755733607176 -9.9918137363520074 10.17562951219792 -0.71933980857756763 0 0.69465836192734942 0.69465836192734942 0 0.71933980857756763 1 I I #
point $-1 -55.018233771892639 -9.9918137363520074 11.631921558615952 #
plane-surface $-1 -61.094393749809257 0 0 1 0 0 0 0 -1 forward_v I I I I #
coedge $-1 $553 $552 $545 $686 forward $375 $-1 #
coedge $-1 $545 $377 $379 $549 reversed $235 $-1 #
coedge $-1 $377 $544 $543 $686 reversed $235 $-1 #
coedge $-1 $385 $380 $377 $547 forward $386 $-1 #
edge $-1 $550 -39.76979470483748 $687 -28.624378326158791 $546 $688 forward 7 unknown #
coedge $-1 $379 $378 $553 $689 reversed $147 $-1 #
edge $-1 $690 -15.493951878900997 $550 0 $544 $691 forward 7 unknown #
vertex $-1 $381 $692 #
straight-curve $-1 -61.094393749809257 6.4338957158072745 5.3398735606990346 0 -1 0 I I #
coedge $-1 $543 $382 $385 $557 forward $375 $-1 #
coedge $-1 $382 $543 $548 $689 forward $375 $-1 #
vertex $-1 $383 $693 #
straight-curve $-1 -74.49482638005496 19.578406053893843 16.485289939377722 -1 0 0 I I #
straight-curve $-1 -61.094393749809257 19.578406053893843 5.3398735606990329 0.69465836192734942 0 0.71933980857756763 I I #
edge $-1 $387 -19.578406053893843 $687 -6.1571768093352564 $385 $694 forward 7 unknown #
point $-1 -61.094393749809257 19.578406053893843 16.485289939377722 #
point $-1 -61.094393749809257 19.578406053893843 5.3398735606990329 #
edge $-1 $695 1 $695 0 $390 $-1 forward 7 unknown #
vertex $-1 $391 $696 #
ellipse-curve $-1 -54.949755733607176 9.9918137363519932 10.17562951219792 -0.71933980857756763 0 0.69465836192734942 0.69465836192734942 0 0.71933980857756763 1 I I #
point $-1 -55.018233771892639 9.9918137363519932 11.631921558615952 #
edge $-1 $697 1 $697 0 $394 $-1 forward 7 unknown #
vertex $-1 $395 $698 #
ellipse-curve $-1 -54.949755733607176 15.743769126877105 10.17562951219792 -0.71933980857756763 0 0.69465836192734942 0.69465836192734942 0 0.71933980857756763 1 I I #
point $-1 -55.018233771892639 15.743769126877105 11.631921558615952 #
loop $-1 $-1 $406 $398 #
plane-surface $-1 61.094393749809257 0 0 -1 0 0 0 0 1 forward_v I I I I #
coedge $-1 $571 $401 $403 $575 reversed $257 $-1 #
coedge $-1 $401 $570 $699 $700 reversed $257 $-1 #
coedge $-1 $409 $404 $401 $573 forward $399 $-1 #
edge $-1 $576 18.276295622962763 $701 29.039298854941293 $572 $702 forward 7 unknown #
coedge $-1 $403 $402 $579 $703 reversed $161 $-1 #
edge $-1 $704 -122.18878749961853 $576 -106.69483562071756 $570 $705 forward 7 unknown #
vertex $-1 $405 $706 #
straight-curve $-1 50.331390517830712 -6.4338957158072816 16.485289939377729 0 -1 0 I I #
coedge $-1 $699 $406 $409 $583 reversed $568 $-1 #
coedge $-1 $406 $699 $574 $703 forward $568 $-1 #
vertex $-1 $407 $707 #
straight-curve $-1 61.094393749809257 -6.1571768093352706 89.057297770686858 0 0 1 I I #
straight-curve $-1 -23.785069220564736 -6.1571768093352706 93.235132570999724 0.69465836192734942 0 -0.71933980857756763 I I #
edge $-1 $701 -19.578406053893858 $410 -6.1571768093352706 $578 $708 forward 7 unknown #
point $-1 61.094393749809257 -6.1571768093352706 16.485289939377722 #
point $-1 50.331390517830727 -6.1571768093352706 16.485289939377722 #
edge $-1 $709 1 $709 0 $413 $-1 forward 7 unknown #
vertex $-1 $414 $710 #
ellipse-curve $-1 54.949755733607169 -15.743769126877115 10.17562951219792 0.71933980857756763 0 0.69465836192734942 0.69465836192734942 0 -0.71933980857756763 1 I I #
point $-1 56.40755049574733 -15.743769126877115 10.193241941460817 #
edge $-1 $711 1 $711 0 $417 $-1 forward 7 unknown #
vertex $-1 $418 $712 #
ellipse-curve $-1 54.949755733607169 -9.9918137363520074 10.17562951219792 0.71933980857756763 0 0.69465836192734942 0.69465836192734942 0 -0.71933980857756763 1 I I #
point $-1 56.40755049574733 -9.9918137363520074 10.193241941460817 #
plane-surface $-1 0 0 16.485289939377722 0 0 1 1 0 0 forward_v I I I I #
coedge $-1 $605 $604 $597 $713 forward $422 $-1 #
coedge $-1 $597 $424 $426 $601 reversed $279 $-1 #
coedge $-1 $424 $596 $595 $713 reversed $279 $-1 #
coedge $-1 $432 $427 $424 $599 forward $433 $-1 #
edge $-1 $602 18.276295622962763 $714 29.039298854941293 $598 $715 forward 7 unknown #
coedge $-1 $426 $425 $605 $716 reversed $175 $-1 #
edge $-1 $717 -122.18878749961853 $602 -106.69483562071756 $596 $718 forward 7 unknown #
vertex $-1 $428 $719 #
straight-curve $-1 50.331390517830712 6.4338957158072745 16.485289939377729 0 -1 0 I I #
coedge $-1 $595 $429 $432 $609 reversed $422 $-1 #
coedge $-1 $429 $595 $600 $716 forward $422 $-1 #
vertex $-1 $430 $720 #
straight-curve $-1 61.094393749809257 19.578406053893843 89.057297770686858 0 0 1 I I #
straight-curve $-1 -23.785069220564736 19.578406053893843 93.235132570999724 0.69465836192734942 0 -0.71933980857756763 I I #
edge $-1 $714 6.1571768093352564 $434 19.578406053893843 $604 $721 forward 7 unknown #
point $-1 61.094393749809257 19.578406053893843 16.485289939377722 #
point $-1 50.331390517830727 19.578406053893843 16.485289939377722 #
edge $-1 $722 1 $722 0 $437 $-1 forward 7 unknown #
vertex $-1 $438 $723 #
ellipse-curve $-1 54.949755733607169 9.9918137363519932 10.17562951219792 0.71933980857756763 0 0.69465836192734942 0.69465836192734942 0 -0.71933980857756763 1 I I #
point $-1 56.40755049574733 9.9918137363519932 10.193241941460817 #
edge $-1 $724 1 $724 0 $441 $-1 forward 7 unknown #
vertex $-1 $442 $725 #
ellipse-curve $-1 54.949755733607169 15.743769126877105 10.17562951219792 0.71933980857756763 0 0.69465836192734942 0.69465836192734942 0 -0.71933980857756763 1 I I #
point $-1 56.40755049574733 15.743769126877105 10.193241941460817 #
plane-surface $-1 61.094393749809257 0 0 -1 0 0 0 0 1 forward_v I I I I #
coedge $-1 $450 $448 $452 $625 reversed $301 $-1 #
edge $-1 $463 -16.485289939377722 $627 16.485289939377722 $462 $726 forward 7 unknown #
vertex $-1 $625 $727 #
straight-curve $-1 -61.094393749809257 -42.043391612981772 0 0 0 -1 I I #
edge $-1 $623 -42.043391612981772 $627 42.043391612981772 $621 $728 forward 7 unknown #
straight-curve $-1 0 -42.043391612981772 -16.485289939377722 -1 0 0 I I #
vertex $-1 $455 $729 #
straight-curve $-1 0 42.043391612981772 -16.485289939377722 1 0 0 I I #
point $-1 61.094393749809257 42.043391612981772 -16.485289939377722 #
point $-1 61.094393749809257 -42.043391612981772 -16.485289939377722 #
straight-curve $-1 -61.094393749809257 0 16.485289939377722 0 -1 0 I I #
point $-1 -61.094393749809257 42.043391612981772 16.485289939377722 #
point $-1 -61.094393749809257 -42.043391612981772 16.485289939377722 #
straight-curve $-1 61.094393749809257 -42.043391612981772 0 0 0 -1 I I #
straight-curve $-1 61.094393749809257 42.043391612981772 0 0 0 -1 I I #
loop $-1 $-1 $644 $472 #
plane-surface $-1 -61.094393749809257 0 0 1 0 0 0 0 -1 forward_v I I I I #
coedge $-1 $476 $475 $650 $730 forward $197 $-1 #
edge $-1 $480 26.847442829188619 $653 42.043391612981772 $479 $731 forward 7 unknown #
coedge $-1 $647 $644 $476 $641 reversed $636 $-1 #
edge $-1 $732 -42.043391612981772 $642 -26.847442829188619 $640 $733 forward 7 unknown #
vertex $-1 $645 $734 #
straight-curve $-1 0 -26.847442829188619 -16.485289939377722 1 0 0 I I #
coedge $-1 $640 $482 $478 $645 forward $636 $-1 #
edge $-1 $484 0.98576167615954358 $642 10.661606067531967 $644 $735 forward 7 unknown #
point $-1 61.094393749809257 -26.847442829188619 -16.485289939377722 #
coedge $-1 $482 $640 $486 $651 reversed $636 $-1 #
straight-curve $-1 -61.094393749809257 -17.222708610542597 -6.8094455480052991 0 1 0 I I #
point $-1 -61.094393749809257 -26.847442829188619 -6.8094455480052991 #
coedge $-1 $487 $486 $638 $730 reversed $473 $-1 #
edge $-1 $488 6.8094455480052991 $732 16.485289939377722 $647 $736 forward 7 unknown #
point $-1 -61.094393749809257 -42.043391612981772 -6.8094455480052991 #
vertex $-1 $490 $737 #
straight-curve $-1 61.094393749809257 -42.043391612981772 0 0 0 -1 I I #
plane-surface $-1 0 42.043391612981772 0 0 -1 0 0 0 -1 forward_v I I I I #
coedge $-1 $738 $496 $500 $661 forward $336 $-1 #
coedge $-1 $496 $738 $511 $668 forward $336 $-1 #
vertex $-1 $498 $739 #
straight-curve $-1 0 26.847442829188608 -16.485289939377722 -1 0 0 I I #
coedge $-1 $500 $499 $506 $666 forward $494 $-1 #
edge $-1 $501 26.847442829188608 $740 42.043391612981772 $500 $741 forward 7 unknown #
point $-1 -61.094393749809257 26.847442829188608 -16.485289939377722 #
point $-1 -61.094393749809257 26.847442829188608 -6.8094455480052991 #
straight-curve $-1 -61.094393749809257 17.222708610542593 -6.8094455480052991 0 1 0 I I #
coedge $-1 $506 $505 $738 $742 reversed $507 $-1 #
edge $-1 $508 6.8094455480052991 $740 16.485289939377722 $506 $743 forward 7 unknown #
point $-1 -61.094393749809257 42.043391612981765 -6.8094455480052991 #
edge $-1 $670 -42.043391612981772 $658 -26.847442829188608 $511 $744 forward 7 unknown #
straight-curve $-1 61.094393749809257 26.847442829188608 -5.8236838718457555 0 0 -1 I I #
vertex $-1 $668 $745 #
straight-curve $-1 61.094393749809257 42.043391612981772 0 0 0 -1 I I #
coedge $-1 $527 $526 $519 $673 forward $516 $-1 #
edge $-1 $674 13.400432630245703 $677 24.163435862224247 $672 $746 forward 7 unknown #
vertex $-1 $673 $747 #
straight-curve $-1 -61.094393749809257 -19.578406053893858 45.109668265536513 0 0 1 I I #
edge $-1 $677 -13.144510338086576 $528 0.27671890647201103 $527 $748 forward 7 unknown #
vertex $-1 $676 $749 #
straight-curve $-1 -61.094393749809257 -19.578406053893858 5.3398735606990329 -0.69465836192734942 0 -0.71933980857756763 I I #
point $-1 -61.094393749809257 -19.578406053893858 5.3398735606990329 #
point $-1 -50.331390517830712 -6.1571768093352706 16.485289939377722 #
straight-curve $-1 -61.094393749809257 0 16.485289939377722 0 -1 0 I I #
vertex $-1 $534 $750 #
point $-1 -54.255097371679824 -15.743769126877115 10.894969320775488 #
vertex $-1 $538 $751 #
point $-1 -54.255097371679824 -9.9918137363520074 10.894969320775488 #
edge $-1 $687 13.400432630245703 $690 24.163435862224247 $543 $752 forward 7 unknown #
vertex $-1 $686 $753 #
straight-curve $-1 -61.094393749809257 6.1571768093352564 45.109668265536513 0 0 1 I I #
edge $-1 $690 -0.27671890647201813 $554 13.144510338086569 $553 $754 forward 7 unknown #
vertex $-1 $689 $755 #
straight-curve $-1 -61.094393749809257 6.1571768093352564 5.3398735606990329 -0.69465836192734942 0 -0.71933980857756763 I I #
point $-1 -61.094393749809257 6.1571768093352564 5.3398735606990329 #
point $-1 -50.331390517830712 19.578406053893843 16.485289939377722 #
straight-curve $-1 -61.094393749809257 0 16.485289939377722 0 -1 0 I I #
vertex $-1 $560 $756 #
point $-1 -54.255097371679824 9.9918137363519932 10.894969320775488 #
vertex $-1 $564 $757 #
point $-1 -54.255097371679824 15.743769126877105 10.894969320775488 #
coedge $-1 $579 $578 $571 $700 forward $568 $-1 #
edge $-1 $701 72.572007831309136 $704 83.717424209987811 $699 $758 forward 7 unknown #
vertex $-1 $583 $759 #
straight-curve $-1 32.055094894867963 -19.578406053893858 16.485289939377722 1 0 0 I I #
edge $-1 $704 -13.144510338086576 $580 0.27671890647201103 $579 $760 forward 7 unknown #
vertex $-1 $703 $761 #
straight-curve $-1 -23.785069220564736 -19.578406053893858 93.235132570999724 -0.69465836192734942 0 0.71933980857756763 I I #
point $-1 50.331390517830727 -19.578406053893858 16.485289939377722 #
point $-1 61.094393749809257 -6.1571768093352706 5.3398735606990471 #
straight-curve $-1 61.094393749809257 0 16.485289939377722 0 1 0 I I #
vertex $-1 $586 $762 #
point $-1 55.644414095534515 -15.743769126877115 9.456289703620353 #
vertex $-1 $590 $763 #
point $-1 55.644414095534515 -9.9918137363520074 9.456289703620353 #
edge $-1 $714 72.572007831309136 $717 83.717424209987811 $595 $764 forward 7 unknown #
vertex $-1 $609 $765 #
straight-curve $-1 32.055094894867963 6.1571768093352564 16.485289939377722 1 0 0 I I #
edge $-1 $717 -0.27671890647201813 $606 13.144510338086569 $605 $766 forward 7 unknown #
vertex $-1 $716 $767 #
straight-curve $-1 -23.785069220564736 6.1571768093352564 93.235132570999724 -0.69465836192734942 0 0.71933980857756763 I I #
point $-1 50.331390517830727 6.1571768093352564 16.485289939377722 #
point $-1 61.094393749809257 19.578406053893843 5.3398735606990471 #
straight-curve $-1 61.094393749809257 0 16.485289939377722 0 1 0 I I #
vertex $-1 $612 $768 #
point $-1 55.644414095534515 9.9918137363519932 9.456289703620353 #
vertex $-1 $616 $769 #
point $-1 55.644414095534515 15.743769126877105 9.456289703620353 #
straight-curve $-1 -61.094393749809257 42.043391612981772 0 0 0 -1 I I #
point $-1 -61.094393749809257 -42.043391612981772 -16.485289939377722 #
straight-curve $-1 -61.094393749809257 0 -16.485289939377722 0 1 0 I I #
point $-1 -61.094393749809257 42.043391612981772 -16.485289939377722 #
edge $-1 $653 -61.094393749809257 $732 61.094393749809257 $650 $770 forward 7 unknown #
straight-curve $-1 61.094393749809257 0 -16.485289939377722 0 -1 0 I I #
vertex $-1 $641 $771 #
straight-curve $-1 -61.094393749809257 0 -16.485289939377722 0 1 0 I I #
point $-1 -61.094393749809257 -26.847442829188619 -16.485289939377722 #
straight-curve $-1 -61.094393749809257 -26.847442829188619 -5.8236838718457555 0 0 -1 I I #
straight-curve $-1 -61.094393749809257 -42.043391612981772 0 0 0 -1 I I #
point $-1 61.094393749809257 -42.043391612981772 -16.485289939377722 #
coedge $-1 $657 $656 $665 $742 forward $336 $-1 #
point $-1 61.094393749809257 26.847442829188608 -16.485289939377722 #
vertex $-1 $742 $772 #
straight-curve $-1 -61.094393749809257 0 -16.485289939377722 0 1 0 I I #
edge $-1 $740 -61.094393749809257 $670 61.094393749809257 $665 $773 forward 7 unknown #
straight-curve $-1 -61.094393749809257 42.043391612981772 0 0 0 -1 I I #
straight-curve $-1 61.094393749809257 0 -16.485289939377722 0 -1 0 I I #
point $-1 61.094393749809257 42.043391612981772 -16.485289939377722 #
straight-curve $-1 -74.49482638005496 -19.578406053893858 16.485289939377722 1 0 0 I I #
point $-1 -61.094393749809257 -19.578406053893858 16.485289939377722 #
straight-curve $-1 -50.331390517830712 -6.4338957158072816 16.485289939377722 0 1 0 I I #
point $-1 -50.331390517830712 -19.578406053893858 16.485289939377722 #
point $-1 -54.230415925029604 -15.743769126877115 9.4809711502705714 #
point $-1 -54.230415925029604 -9.9918137363520074 9.4809711502705714 #
straight-curve $-1 -74.49482638005496 6.1571768093352564 16.485289939377722 1 0 0 I I #
point $-1 -61.094393749809257 6.1571768093352564 16.485289939377722 #
straight-curve $-1 -50.331390517830712 6.4338957158072745 16.485289939377722 0 1 0 I I #
point $-1 -50.331390517830712 6.1571768093352564 16.485289939377722 #
point $-1 -54.230415925029604 9.9918137363519932 9.4809711502705714 #
point $-1 -54.230415925029604 15.743769126877105 9.4809711502705714 #
straight-curve $-1 61.094393749809257 -19.578406053893858 89.057297770686858 0 0 -1 I I #
point $-1 61.094393749809257 -19.578406053893858 16.485289939377722 #
straight-curve $-1 61.094393749809257 -6.4338957158072816 5.3398735606990471 0 1 0 I I #
point $-1 61.094393749809257 -19.578406053893858 5.3398735606990471 #
point $-1 54.230415925029597 -15.743769126877115 9.4809711502705714 #
point $-1 54.230415925029597 -9.9918137363520074 9.4809711502705714 #
straight-curve $-1 61.094393749809257 6.1571768093352564 89.057297770686858 0 0 -1 I I #
point $-1 61.094393749809257 6.1571768093352564 16.485289939377722 #
straight-curve $-1 61.094393749809257 6.4338957158072745 5.3398735606990471 0 1 0 I I #
point $-1 61.094393749809257 6.1571768093352564 5.3398735606990471 #
point $-1 54.230415925029597 9.9918137363519932 9.4809711502705714 #
point $-1 54.230415925029597 15.743769126877105 9.4809711502705714 #
straight-curve $-1 0 -42.043391612981772 -16.485289939377722 -1 0 0 I I #
point $-1 -61.094393749809257 -42.043391612981772 -16.485289939377722 #
point $-1 -61.094393749809257 42.043391612981772 -16.485289939377722 #
straight-curve $-1 0 42.043391612981772 -16.485289939377722 1 0 0 I I #
End-of-ACIS-data 