500 0 6 0           
7 Unknown 11 ACIS 5.0 NT 24 Thu Mar 25 21:09:09 1999 
-1 9.9999999999999995e-007 1e-010 
body $-1 $6 $-1 $7 #
body $-1 $8 $-1 $9 #
body $-1 $10 $-1 $11 #
body $-1 $12 $-1 $13 #
body $-1 $14 $-1 $15 #
body $-1 $16 $-1 $17 #
lump $-1 $-1 $18 $0 #
transform $-1 1 0 0 0 1 0 0 0 1 52.601702932828758 27.210910531712415 9.4479583181354823 1 rotate no_reflect no_shear #
lump $-1 $-1 $19 $1 #
transform $-1 1 0 0 0 1 0 0 0 1 52.601702932828758 27.210910531712415 9.4479583181354823 1 rotate no_reflect no_shear #
lump $-1 $-1 $20 $2 #
transform $-1 1 0 0 0 1 0 0 0 1 52.601702932828758 27.210910531712415 9.4479583181354823 1 rotate no_reflect no_shear #
lump $-1 $-1 $21 $3 #
transform $-1 1 0 0 0 1 0 0 0 1 52.601702932828758 27.210910531712415 9.4479583181354823 1 rotate no_reflect no_shear #
lump $-1 $-1 $22 $4 #
transform $-1 1 0 0 0 1 0 0 0 1 52.601702932828758 27.210910531712415 9.4479583181354823 1 rotate no_reflect no_shear #
lump $-1 $-1 $23 $5 #
transform $-1 1 0 0 0 1 0 0 0 1 52.601702932828758 27.210910531712415 9.4479583181354823 1 rotate no_reflect no_shear #
shell $-1 $-1 $-1 $24 $-1 $6 #
shell $-1 $-1 $-1 $25 $-1 $8 #
shell $-1 $-1 $-1 $26 $-1 $10 #
shell $-1 $-1 $-1 $27 $-1 $12 #
shell $-1 $-1 $-1 $28 $-1 $14 #
shell $-1 $-1 $-1 $29 $-1 $16 #
face $-1 $30 $31 $18 $-1 $32 forward single #
face $-1 $33 $34 $19 $-1 $35 forward single #
face $-1 $36 $37 $20 $-1 $38 reversed single #
face $-1 $39 $40 $21 $-1 $41 forward single #
face $-1 $42 $43 $22 $-1 $44 reversed single #
face $-1 $45 $46 $23 $-1 $47 forward single #
face $-1 $48 $49 $18 $-1 $50 reversed single #
loop $-1 $-1 $51 $24 #
plane-surface $-1 0 0 9.4479583181354823 0 0 1 1 0 0 forward_v I I I I #
face $-1 $52 $53 $19 $-1 $54 reversed single #
loop $-1 $-1 $55 $25 #
plane-surface $-1 -49.148658271111323 0 -5.8672089309594426 0 0 1 1 0 0 forward_v I I I I #
face $-1 $56 $57 $20 $-1 $58 reversed single #
loop $-1 $-1 $59 $26 #
plane-surface $-1 24.213125970768289 -9.0339432084996076 151.37110389363573 0 -1 0 -0.55919291073839883 0 -0.82903756765294845 forward_v I I I I #
face $-1 $60 $61 $21 $-1 $62 forward single #
loop $-1 $63 $64 $27 #
cone-surface $-1 49.260292663894091 -15.398568579569634 6.9640209437005298 -0.55919291073839883 0 -0.82903756765294845 0.82903756765294845 0 -0.55919291073839883 1 I I 0 1 1 forward I I I I #
face $-1 $65 $66 $22 $-1 $67 reversed single #
loop $-1 $-1 $68 $28 #
plane-surface $-1 24.213125970768289 18.176967323212807 151.37110389363573 0 -1 0 -0.55919291073839883 0 -0.82903756765294845 forward_v I I I I #
face $-1 $69 $70 $23 $-1 $71 forward single #
loop $-1 $72 $73 $29 #
cone-surface $-1 49.260292663894091 11.812341952142781 6.9640209437005298 -0.55919291073839883 0 -0.82903756765294845 0.82903756765294845 0 -0.55919291073839883 1 I I 0 1 1 forward I I I I #
face $-1 $74 $75 $18 $-1 $76 reversed single #
loop $-1 $-1 $77 $30 #
plane-surface $-1 0 0 -9.4479583181354823 0 0 1 1 0 0 forward_v I I I I #
coedge $-1 $78 $79 $80 $81 forward $31 $-1 #
face $-1 $82 $83 $19 $-1 $84 reversed single #
loop $-1 $-1 $85 $33 #
plane-surface $-1 -45.695613609393888 0 -7.6575836245474624 -1 0 0 0 0 1 forward_v I I I I #
coedge $-1 $86 $87 $88 $89 forward $34 $-1 #
face $-1 $90 $91 $20 $-1 $92 reversed single #
loop $-1 $-1 $93 $36 #
plane-surface $-1 -34.615872774841876 -15.398568579569634 64.153528185965101 0.55919291073839883 0 0.82903756765294845 0.82903756765294845 0 -0.55919291073839883 forward_v I I I I #
coedge $-1 $94 $95 $96 $97 reversed $37 $-1 #
face $-1 $-1 $98 $21 $-1 $99 forward single #
loop $-1 $100 $101 $39 #
cone-surface $-1 48.695903237108453 -15.398568579569634 6.1272792243293797 -0.55919291073839883 0 -0.82903756765294845 0.41451878382647422 0 -0.27959645536919941 1 I I -0.70710678118654746 0.70710678118654746 0.5 forward I I I I #
loop $-1 $-1 $102 $27 #
coedge $-1 $64 $64 $103 $104 reversed $40 $-1 #
face $-1 $105 $106 $22 $-1 $107 reversed single #
loop $-1 $-1 $108 $42 #
plane-surface $-1 -34.615872774841876 11.812341952142781 64.153528185965101 0.55919291073839883 0 0.82903756765294845 0.82903756765294845 0 -0.55919291073839883 forward_v I I I I #
coedge $-1 $109 $110 $111 $112 reversed $43 $-1 #
face $-1 $-1 $113 $23 $-1 $114 forward single #
loop $-1 $115 $116 $45 #
cone-surface $-1 48.695903237108453 11.812341952142781 6.1272792243293797 -0.55919291073839883 0 -0.82903756765294845 0.41451878382647422 0 -0.27959645536919941 1 I I -0.70710678118654746 0.70710678118654746 0.5 forward I I I I #
loop $-1 $-1 $117 $29 #
coedge $-1 $73 $73 $118 $119 reversed $46 $-1 #
face $-1 $120 $121 $18 $-1 $122 reversed single #
loop $-1 $-1 $123 $48 #
plane-surface $-1 0 -27.210910531712415 0 0 1 0 0 0 1 forward_v I I I I #
coedge $-1 $124 $125 $126 $127 forward $49 $-1 #
coedge $-1 $128 $51 $129 $130 forward $31 $-1 #
coedge $-1 $51 $128 $131 $132 forward $31 $-1 #
coedge $-1 $133 $134 $51 $81 reversed $135 $-1 #
edge $-1 $136 -27.210910531712415 $137 27.210910531712415 $80 $138 forward 7 unknown #
face $-1 $139 $140 $19 $-1 $141 reversed single #
loop $-1 $-1 $142 $52 #
plane-surface $-1 0 0 -9.4479583181354823 0 0 1 1 0 0 forward_v I I I I #
coedge $-1 $143 $88 $144 $145 reversed $53 $-1 #
coedge $-1 $146 $55 $147 $148 reversed $34 $-1 #
coedge $-1 $55 $146 $149 $150 reversed $34 $-1 #
coedge $-1 $85 $151 $55 $89 reversed $53 $-1 #
edge $-1 $152 -27.210910531712415 $153 27.210910531712415 $88 $154 forward 7 unknown #
face $-1 $155 $156 $20 $-1 $157 forward single #
loop $-1 $-1 $158 $56 #
plane-surface $-1 24.213125970768289 -21.763193950639661 151.37110389363573 0 1 0 0.55919291073839883 0 0.82903756765294845 forward_v I I I I #
coedge $-1 $159 $160 $161 $162 reversed $57 $-1 #
coedge $-1 $95 $59 $163 $164 reversed $37 $-1 #
coedge $-1 $59 $94 $159 $165 reversed $37 $-1 #
coedge $-1 $161 $166 $59 $97 forward $156 $-1 #
edge $-1 $167 -40.495139947444613 $168 -34.381905352408168 $96 $169 forward 7 unknown #
loop $-1 $-1 $103 $60 #
plane-surface $-1 -34.615872774841876 -15.398568579569634 64.153528185965101 0.55919291073839883 0 0.82903756765294845 0.82903756765294845 0 -0.55919291073839883 forward_v I I I I #
loop $-1 $-1 $170 $39 #
coedge $-1 $101 $101 $102 $171 reversed $61 $-1 #
coedge $-1 $102 $102 $101 $171 forward $63 $-1 #
coedge $-1 $103 $103 $64 $104 forward $98 $-1 #
edge $-1 $172 0 $172 6.2831853071796004 $103 $173 forward 7 unknown #
face $-1 $174 $175 $22 $-1 $176 reversed single #
loop $-1 $-1 $177 $65 #
plane-surface $-1 24.213125970768289 5.4477165810727541 151.37110389363573 0 1 0 0.55919291073839883 0 0.82903756765294845 forward_v I I I I #
coedge $-1 $178 $179 $180 $181 reversed $66 $-1 #
coedge $-1 $110 $68 $182 $183 reversed $43 $-1 #
coedge $-1 $68 $109 $178 $184 reversed $43 $-1 #
coedge $-1 $180 $185 $68 $112 forward $186 $-1 #
edge $-1 $187 -40.495139947444613 $188 -34.381905352408168 $111 $189 forward 7 unknown #
loop $-1 $-1 $118 $69 #
plane-surface $-1 -34.615872774841876 11.812341952142781 64.153528185965101 0.55919291073839883 0 0.82903756765294845 0.82903756765294845 0 -0.55919291073839883 forward_v I I I I #
loop $-1 $-1 $190 $45 #
coedge $-1 $116 $116 $117 $191 reversed $70 $-1 #
coedge $-1 $117 $117 $116 $191 forward $72 $-1 #
coedge $-1 $118 $118 $73 $119 forward $113 $-1 #
edge $-1 $192 0 $192 6.2831853071796004 $118 $193 forward 7 unknown #
face $-1 $194 $195 $18 $-1 $196 reversed single #
loop $-1 $-1 $197 $74 #
plane-surface $-1 -52.601702932828758 0 0 1 0 0 0 0 -1 forward_v I I I I #
coedge $-1 $198 $131 $199 $200 forward $75 $-1 #
coedge $-1 $201 $77 $198 $202 forward $49 $-1 #
coedge $-1 $77 $201 $203 $204 forward $49 $-1 #
coedge $-1 $134 $133 $77 $127 reversed $135 $-1 #
edge $-1 $205 -27.210910531712415 $206 27.210910531712415 $126 $207 forward 7 unknown #
coedge $-1 $79 $78 $208 $209 forward $31 $-1 #
coedge $-1 $210 $211 $78 $130 reversed $195 $-1 #
edge $-1 $137 -52.601702932828758 $212 52.601702932828758 $129 $213 forward 7 unknown #
coedge $-1 $123 $214 $79 $132 reversed $75 $-1 #
edge $-1 $215 -52.601702932828758 $136 52.601702932828758 $131 $216 forward 7 unknown #
coedge $-1 $126 $80 $214 $217 forward $135 $-1 #
coedge $-1 $80 $126 $210 $218 reversed $135 $-1 #
loop $-1 $-1 $133 $194 #
vertex $-1 $81 $219 #
vertex $-1 $81 $220 #
straight-curve $-1 52.601702932828758 0 9.4479583181354823 0 1 0 I I #
face $-1 $221 $222 $19 $-1 $223 reversed single #
loop $-1 $-1 $144 $82 #
plane-surface $-1 0 -27.210910531712415 0 0 1 0 0 0 1 forward_v I I I I #
coedge $-1 $224 $225 $143 $226 forward $83 $-1 #
coedge $-1 $151 $85 $142 $226 reversed $53 $-1 #
coedge $-1 $149 $227 $85 $145 forward $140 $-1 #
edge $-1 $228 -5.6191665058617506 $152 -2.0384171186857114 $144 $229 forward 7 unknown #
coedge $-1 $87 $86 $230 $231 reversed $34 $-1 #
coedge $-1 $232 $233 $86 $148 forward $234 $-1 #
edge $-1 $235 -28.027373797273096 $153 -21.121284473838227 $147 $236 forward 7 unknown #
coedge $-1 $237 $144 $87 $150 forward $140 $-1 #
edge $-1 $152 21.121284473838227 $238 28.027373797273096 $149 $239 forward 7 unknown #
coedge $-1 $88 $143 $232 $240 reversed $53 $-1 #
vertex $-1 $150 $241 #
vertex $-1 $148 $242 #
straight-curve $-1 -45.695613609393888 0 -5.8672089309594426 0 1 0 I I #
face $-1 $-1 $243 $20 $-1 $244 reversed single #
loop $-1 $-1 $96 $90 #
plane-surface $-1 0 0 9.4479583181354823 0 0 1 1 0 0 forward_v I I I I #
coedge $-1 $245 $246 $247 $248 reversed $91 $-1 #
coedge $-1 $249 $93 $95 $165 forward $57 $-1 #
coedge $-1 $93 $249 $245 $250 forward $57 $-1 #
coedge $-1 $247 $96 $93 $162 forward $156 $-1 #
edge $-1 $168 1.3346589187147906 $251 14.063909660854844 $161 $252 forward 7 unknown #
coedge $-1 $253 $254 $94 $164 forward $243 $-1 #
edge $-1 $255 -70.36102250646293 $167 -66.23759362868239 $163 $256 forward 7 unknown #
edge $-1 $168 97.829512530107763 $255 105.2034058656575 $95 $257 forward 7 unknown #
coedge $-1 $96 $247 $253 $258 forward $156 $-1 #
vertex $-1 $164 $259 #
vertex $-1 $97 $260 #
straight-curve $-1 12.106562985384144 -9.0339432084996076 9.4479583181354769 -1 0 0 I I #
coedge $-1 $170 $170 $-1 $261 reversed $100 $-1 #
edge $-1 $262 0 $262 6.2831853071796004 $101 $263 forward 7 unknown #
vertex $-1 $104 $264 #
ellipse-curve $-1 49.545085635310535 -15.398568579569634 7.3862438792452121 0.55919291073839883 0 0.82903756765294845 0.82903756765294845 0 -0.55919291073839883 1 I I #
face $-1 $-1 $186 $22 $-1 $265 forward single #
loop $-1 $-1 $266 $105 #
plane-surface $-1 52.601702932828758 0 0 -1 0 0 0 0 1 forward_v I I I I #
coedge $-1 $267 $268 $269 $270 reversed $106 $-1 #
coedge $-1 $271 $108 $110 $184 forward $66 $-1 #
coedge $-1 $108 $271 $267 $272 forward $66 $-1 #
coedge $-1 $269 $111 $108 $181 forward $186 $-1 #
edge $-1 $188 -12.270796347141417 $273 0.45845439499863616 $180 $274 forward 7 unknown #
coedge $-1 $275 $276 $109 $183 forward $175 $-1 #
edge $-1 $277 -70.36102250646293 $187 -66.23759362868239 $182 $278 forward 7 unknown #
edge $-1 $188 97.829512530107763 $277 105.2034058656575 $110 $279 forward 7 unknown #
coedge $-1 $111 $269 $275 $280 forward $186 $-1 #
loop $-1 $-1 $269 $174 #
vertex $-1 $183 $281 #
vertex $-1 $112 $282 #
straight-curve $-1 12.106562985384144 18.176967323212807 9.4479583181354769 -1 0 0 I I #
coedge $-1 $190 $190 $-1 $283 reversed $115 $-1 #
edge $-1 $284 0 $284 6.2831853071796004 $116 $285 forward 7 unknown #
vertex $-1 $119 $286 #
ellipse-curve $-1 49.545085635310535 11.812341952142781 7.3862438792452121 0.55919291073839883 0 0.82903756765294845 0.82903756765294845 0 -0.55919291073839883 1 I I #
face $-1 $-1 $135 $18 $-1 $287 reversed single #
loop $-1 $-1 $210 $120 #
plane-surface $-1 0 27.210910531712415 0 0 -1 0 0 0 -1 forward_v I I I I #
coedge $-1 $288 $208 $211 $289 forward $121 $-1 #
coedge $-1 $214 $123 $124 $202 reversed $75 $-1 #
coedge $-1 $208 $288 $123 $200 reversed $121 $-1 #
edge $-1 $215 -9.4479583181354823 $290 9.4479583181354823 $199 $291 forward 7 unknown #
coedge $-1 $125 $124 $288 $292 forward $49 $-1 #
edge $-1 $206 -52.601702932828758 $290 52.601702932828758 $198 $293 forward 7 unknown #
coedge $-1 $211 $210 $125 $204 reversed $195 $-1 #
edge $-1 $294 -52.601702932828758 $205 52.601702932828758 $203 $295 forward 7 unknown #
vertex $-1 $127 $296 #
vertex $-1 $217 $297 #
straight-curve $-1 52.601702932828758 0 -9.4479583181354823 0 -1 0 I I #
coedge $-1 $197 $199 $128 $209 reversed $121 $-1 #
edge $-1 $212 -27.210910531712415 $215 27.210910531712415 $208 $298 forward 7 unknown #
coedge $-1 $203 $129 $134 $218 forward $195 $-1 #
coedge $-1 $129 $203 $197 $289 reversed $195 $-1 #
vertex $-1 $130 $299 #
straight-curve $-1 0 27.210910531712415 9.4479583181354823 -1 0 0 I I #
coedge $-1 $131 $198 $133 $217 reversed $75 $-1 #
vertex $-1 $209 $300 #
straight-curve $-1 0 -27.210910531712415 9.4479583181354823 1 0 0 I I #
edge $-1 $136 -9.4479583181354823 $206 9.4479583181354823 $133 $301 forward 7 unknown #
edge $-1 $137 -9.4479583181354823 $205 9.4479583181354823 $134 $302 forward 7 unknown #
point $-1 52.601702932828758 -27.210910531712415 9.4479583181354823 #
point $-1 52.601702932828758 27.210910531712415 9.4479583181354823 #
face $-1 $-1 $234 $19 $-1 $303 reversed single #
loop $-1 $-1 $230 $139 #
plane-surface $-1 -52.601702932828758 0 0 1 0 0 0 0 -1 forward_v I I I I #
coedge $-1 $304 $142 $227 $305 forward $83 $-1 #
coedge $-1 $142 $304 $306 $307 forward $83 $-1 #
edge $-1 $308 -27.210910531712415 $228 27.210910531712415 $142 $309 forward 7 unknown #
coedge $-1 $144 $237 $224 $305 reversed $140 $-1 #
vertex $-1 $305 $310 #
straight-curve $-1 -45.695613609393888 -27.210910531712415 -3.8287918122737312 0 0 1 I I #
coedge $-1 $311 $312 $146 $231 forward $222 $-1 #
edge $-1 $238 -27.210910531712415 $235 27.210910531712415 $230 $313 forward 7 unknown #
coedge $-1 $306 $147 $151 $240 forward $234 $-1 #
coedge $-1 $147 $306 $311 $314 reversed $234 $-1 #
loop $-1 $-1 $232 $221 #
vertex $-1 $314 $315 #
straight-curve $-1 -24.574329135555661 27.210910531712415 -5.8672089309594426 1 0 0 I I #
coedge $-1 $227 $149 $312 $316 forward $140 $-1 #
vertex $-1 $316 $317 #
straight-curve $-1 -24.574329135555661 -27.210910531712415 -5.8672089309594426 -1 0 0 I I #
edge $-1 $153 2.0384171186857114 $308 5.6191665058617506 $232 $318 forward 7 unknown #
point $-1 -45.695613609393888 -27.210910531712415 -5.8672089309594426 #
point $-1 -45.695613609393888 27.210910531712415 -5.8672089309594426 #
loop $-1 $-1 $163 $155 #
plane-surface $-1 52.601702932828758 0 0 -1 0 0 0 0 1 forward_v I I I I #
coedge $-1 $246 $158 $160 $250 reversed $91 $-1 #
coedge $-1 $158 $245 $319 $320 reversed $91 $-1 #
coedge $-1 $166 $161 $158 $248 forward $156 $-1 #
edge $-1 $251 34.381905352408168 $321 40.495139947444613 $247 $322 forward 7 unknown #
coedge $-1 $160 $159 $254 $323 reversed $57 $-1 #
edge $-1 $324 -105.2034058656575 $251 -97.829512530107763 $245 $325 forward 7 unknown #
vertex $-1 $162 $326 #
straight-curve $-1 46.488468337792298 -7.699284289784817 9.447958318135484 0 -1 0 I I #
coedge $-1 $319 $163 $166 $258 reversed $243 $-1 #
coedge $-1 $163 $319 $249 $323 forward $243 $-1 #
vertex $-1 $164 $327 #
straight-curve $-1 52.601702932828758 -9.0339432084996076 75.685551946817867 0 0 1 I I #
straight-curve $-1 -34.615872774841876 -9.0339432084996076 64.153528185965101 0.82903756765294845 0 -0.55919291073839883 I I #
edge $-1 $321 -21.763193950639661 $167 -9.0339432084996076 $253 $328 forward 7 unknown #
point $-1 52.601702932828758 -9.0339432084996076 9.4479583181354823 #
point $-1 46.488468337792312 -9.0339432084996076 9.4479583181354769 #
edge $-1 $329 1 $329 0 $170 $-1 forward 7 unknown #
vertex $-1 $171 $330 #
ellipse-curve $-1 48.975499692477655 -15.398568579569634 6.5417980081558538 0.55919291073839883 0 0.82903756765294845 0.82903756765294845 0 -0.55919291073839883 1 I I #
point $-1 50.374123202963474 -15.398568579569634 6.827050968506807 #
plane-surface $-1 0 0 9.4479583181354823 0 0 1 1 0 0 forward_v I I I I #
coedge $-1 $276 $275 $268 $331 forward $175 $-1 #
coedge $-1 $268 $177 $179 $272 reversed $106 $-1 #
coedge $-1 $177 $267 $266 $331 reversed $106 $-1 #
coedge $-1 $185 $180 $177 $270 forward $186 $-1 #
edge $-1 $273 34.381905352408168 $332 40.495139947444613 $269 $333 forward 7 unknown #
coedge $-1 $179 $178 $276 $334 reversed $66 $-1 #
edge $-1 $335 -105.2034058656575 $273 -97.829512530107763 $267 $336 forward 7 unknown #
vertex $-1 $181 $337 #
straight-curve $-1 46.488468337792298 5.9061709760713903 9.447958318135484 0 -1 0 I I #
coedge $-1 $266 $182 $185 $280 reversed $175 $-1 #
coedge $-1 $182 $266 $271 $334 forward $175 $-1 #
vertex $-1 $183 $338 #
straight-curve $-1 52.601702932828758 18.176967323212807 75.685551946817867 0 0 1 I I #
straight-curve $-1 -34.615872774841876 18.176967323212807 64.153528185965101 0.82903756765294845 0 -0.55919291073839883 I I #
edge $-1 $332 5.4477165810727541 $187 18.176967323212807 $275 $339 forward 7 unknown #
point $-1 52.601702932828758 18.176967323212807 9.4479583181354823 #
point $-1 46.488468337792312 18.176967323212807 9.4479583181354769 #
edge $-1 $340 1 $340 0 $190 $-1 forward 7 unknown #
vertex $-1 $191 $341 #
ellipse-curve $-1 48.975499692477655 11.812341952142781 6.5417980081558538 0.55919291073839883 0 0.82903756765294845 0.82903756765294845 0 -0.55919291073839883 1 I I #
point $-1 50.374123202963474 11.812341952142781 6.827050968506807 #
plane-surface $-1 52.601702932828758 0 0 -1 0 0 0 0 1 forward_v I I I I #
coedge $-1 $199 $197 $201 $292 reversed $121 $-1 #
edge $-1 $212 -9.4479583181354823 $294 9.4479583181354823 $211 $342 forward 7 unknown #
vertex $-1 $292 $343 #
straight-curve $-1 -52.601702932828758 -27.210910531712415 0 0 0 -1 I I #
edge $-1 $290 -27.210910531712415 $294 27.210910531712415 $288 $344 forward 7 unknown #
straight-curve $-1 0 -27.210910531712415 -9.4479583181354823 -1 0 0 I I #
vertex $-1 $204 $345 #
straight-curve $-1 0 27.210910531712415 -9.4479583181354823 1 0 0 I I #
point $-1 52.601702932828758 27.210910531712415 -9.4479583181354823 #
point $-1 52.601702932828758 -27.210910531712415 -9.4479583181354823 #
straight-curve $-1 -52.601702932828758 0 9.4479583181354823 0 -1 0 I I #
point $-1 -52.601702932828758 27.210910531712415 9.4479583181354823 #
point $-1 -52.601702932828758 -27.210910531712415 9.4479583181354823 #
straight-curve $-1 52.601702932828758 -27.210910531712415 0 0 0 -1 I I #
straight-curve $-1 52.601702932828758 27.210910531712415 0 0 0 -1 I I #
plane-surface $-1 0 27.210910531712415 0 0 -1 0 0 0 -1 forward_v I I I I #
coedge $-1 $225 $224 $346 $347 forward $83 $-1 #
edge $-1 $228 45.695613609393888 $348 52.601702932828758 $227 $349 forward 7 unknown #
coedge $-1 $233 $232 $225 $307 reversed $234 $-1 #
edge $-1 $350 -52.601702932828758 $308 -45.695613609393888 $306 $351 forward 7 unknown #
vertex $-1 $240 $352 #
straight-curve $-1 -45.695613609393888 0 -9.4479583181354823 0 -1 0 I I #
point $-1 -45.695613609393888 -27.210910531712415 -9.4479583181354823 #
coedge $-1 $346 $230 $233 $314 forward $222 $-1 #
coedge $-1 $230 $346 $237 $316 reversed $222 $-1 #
straight-curve $-1 -52.601702932828758 0 -5.8672089309594426 0 1 0 I I #
edge $-1 $235 5.8672089309594426 $350 9.4479583181354823 $233 $353 forward 7 unknown #
point $-1 -52.601702932828758 27.210910531712415 -5.8672089309594426 #
edge $-1 $238 5.8672089309594426 $348 9.4479583181354823 $312 $354 forward 7 unknown #
point $-1 -52.601702932828758 -27.210910531712415 -5.8672089309594426 #
straight-curve $-1 -45.695613609393888 27.210910531712415 -3.8287918122737312 0 0 -1 I I #
coedge $-1 $254 $253 $246 $320 forward $243 $-1 #
edge $-1 $321 66.23759362868239 $324 70.36102250646293 $319 $355 forward 7 unknown #
vertex $-1 $258 $356 #
straight-curve $-1 12.106562985384144 -21.763193950639661 9.4479583181354769 1 0 0 I I #
edge $-1 $324 -14.063909660854844 $255 -1.3346589187147906 $254 $357 forward 7 unknown #
vertex $-1 $323 $358 #
straight-curve $-1 -34.615872774841876 -21.763193950639661 64.153528185965101 -0.82903756765294845 0 0.55919291073839883 I I #
point $-1 46.488468337792312 -21.763193950639661 9.4479583181354769 #
point $-1 52.601702932828758 -9.0339432084996076 5.3245294403549366 #
straight-curve $-1 52.601702932828758 0 9.4479583181354823 0 1 0 I I #
vertex $-1 $261 $359 #
point $-1 49.804537260130601 -15.398568579569634 5.9826050974174549 #
edge $-1 $332 66.23759362868239 $335 70.36102250646293 $266 $360 forward 7 unknown #
vertex $-1 $280 $361 #
straight-curve $-1 12.106562985384144 5.4477165810727541 9.4479583181354769 1 0 0 I I #
edge $-1 $335 -0.45845439499863616 $277 12.270796347141417 $276 $362 forward 7 unknown #
vertex $-1 $334 $363 #
straight-curve $-1 -34.615872774841876 5.4477165810727541 64.153528185965101 -0.82903756765294845 0 0.55919291073839883 I I #
point $-1 46.488468337792312 5.4477165810727541 9.4479583181354769 #
point $-1 52.601702932828758 18.176967323212807 5.3245294403549366 #
straight-curve $-1 52.601702932828758 0 9.4479583181354823 0 1 0 I I #
vertex $-1 $283 $364 #
point $-1 49.804537260130601 11.812341952142781 5.9826050974174549 #
straight-curve $-1 -52.601702932828758 27.210910531712415 0 0 0 -1 I I #
point $-1 -52.601702932828758 -27.210910531712415 -9.4479583181354823 #
straight-curve $-1 -52.601702932828758 0 -9.4479583181354823 0 1 0 I I #
point $-1 -52.601702932828758 27.210910531712415 -9.4479583181354823 #
coedge $-1 $312 $311 $304 $347 reversed $222 $-1 #
edge $-1 $348 -27.210910531712415 $350 27.210910531712415 $346 $365 forward 7 unknown #
vertex $-1 $347 $366 #
straight-curve $-1 0 -27.210910531712415 -9.4479583181354823 -1 0 0 I I #
vertex $-1 $307 $367 #
straight-curve $-1 0 27.210910531712415 -9.4479583181354823 1 0 0 I I #
point $-1 -45.695613609393888 27.210910531712415 -9.4479583181354823 #
straight-curve $-1 -52.601702932828758 27.210910531712415 0 0 0 -1 I I #
straight-curve $-1 -52.601702932828758 -27.210910531712415 0 0 0 -1 I I #
straight-curve $-1 52.601702932828758 -21.763193950639661 75.685551946817867 0 0 -1 I I #
point $-1 52.601702932828758 -21.763193950639661 9.4479583181354823 #
straight-curve $-1 52.601702932828772 -7.699284289784817 5.3245294403549224 0 1 0 I I #
point $-1 52.601702932828758 -21.763193950639661 5.3245294403549366 #
point $-1 48.416306781739252 -15.398568579569634 5.7127604405029055 #
straight-curve $-1 52.601702932828758 5.4477165810727541 75.685551946817867 0 0 -1 I I #
point $-1 52.601702932828758 5.4477165810727541 9.4479583181354823 #
straight-curve $-1 52.601702932828772 5.9061709760713903 5.3245294403549224 0 1 0 I I #
point $-1 52.601702932828758 5.4477165810727541 5.3245294403549366 #
point $-1 48.416306781739252 11.812341952142781 5.7127604405029055 #
straight-curve $-1 -52.601702932828758 0 -9.4479583181354823 0 1 0 I I #
point $-1 -52.601702932828758 -27.210910531712415 -9.4479583181354823 #
point $-1 -52.601702932828758 27.210910531712415 -9.4479583181354823 #
End-of-ACIS-data 