500 0 11 0           
7 Unknown 11 ACIS 5.0 NT 24 Fri Mar 26 15:40:33 1999 
-1 9.9999999999999995e-007 1e-010 
body $-1 $11 $-1 $12 #
body $-1 $13 $-1 $14 #
body $-1 $15 $-1 $16 #
body $-1 $17 $-1 $18 #
body $-1 $19 $-1 $20 #
body $-1 $21 $-1 $22 #
body $-1 $23 $-1 $24 #
body $-1 $25 $-1 $26 #
body $-1 $27 $-1 $28 #
body $-1 $29 $-1 $30 #
body $-1 $31 $-1 $32 #
lump $-1 $-1 $33 $0 #
transform $-1 1 0 0 0 1 0 0 0 1 59.01425214392529 36.914029766750296 8.5400095843326298 1 rotate no_reflect no_shear #
lump $-1 $-1 $34 $1 #
transform $-1 1 0 0 0 1 0 0 0 1 59.01425214392529 36.914029766750296 8.5400095843326298 1 rotate no_reflect no_shear #
lump $-1 $-1 $35 $2 #
transform $-1 1 0 0 0 1 0 0 0 1 59.01425214392529 36.914029766750296 8.5400095843326298 1 rotate no_reflect no_shear #
lump $-1 $-1 $36 $3 #
transform $-1 1 0 0 0 1 0 0 0 1 59.01425214392529 36.914029766750296 8.5400095843326298 1 rotate no_reflect no_shear #
lump $-1 $-1 $37 $4 #
transform $-1 1 0 0 0 1 0 0 0 1 59.01425214392529 36.914029766750296 8.5400095843326298 1 rotate no_reflect no_shear #
lump $-1 $-1 $38 $5 #
transform $-1 1 0 0 0 1 0 0 0 1 59.01425214392529 36.914029766750296 8.5400095843326298 1 rotate no_reflect no_shear #
lump $-1 $-1 $39 $6 #
transform $-1 1 0 0 0 1 0 0 0 1 59.01425214392529 36.914029766750296 8.5400095843326298 1 rotate no_reflect no_shear #
lump $-1 $-1 $40 $7 #
transform $-1 1 0 0 0 1 0 0 0 1 59.01425214392529 36.914029766750296 8.5400095843326298 1 rotate no_reflect no_shear #
lump $-1 $-1 $41 $8 #
transform $-1 1 0 0 0 1 0 0 0 1 59.01425214392529 36.914029766750296 8.5400095843326298 1 rotate no_reflect no_shear #
lump $-1 $-1 $42 $9 #
transform $-1 1 0 0 0 1 0 0 0 1 59.01425214392529 36.914029766750296 8.5400095843326298 1 rotate no_reflect no_shear #
lump $-1 $-1 $43 $10 #
transform $-1 1 0 0 0 1 0 0 0 1 59.01425214392529 36.914029766750296 8.5400095843326298 1 rotate no_reflect no_shear #
shell $-1 $-1 $-1 $44 $-1 $11 #
shell $-1 $-1 $-1 $45 $-1 $13 #
shell $-1 $-1 $-1 $46 $-1 $15 #
shell $-1 $-1 $-1 $47 $-1 $17 #
shell $-1 $-1 $-1 $48 $-1 $19 #
shell $-1 $-1 $-1 $49 $-1 $21 #
shell $-1 $-1 $-1 $50 $-1 $23 #
shell $-1 $-1 $-1 $51 $-1 $25 #
shell $-1 $-1 $-1 $52 $-1 $27 #
shell $-1 $-1 $-1 $53 $-1 $29 #
shell $-1 $-1 $-1 $54 $-1 $31 #
face $-1 $55 $56 $33 $-1 $57 forward single #
face $-1 $58 $59 $34 $-1 $60 forward single #
face $-1 $61 $62 $35 $-1 $63 forward single #
face $-1 $64 $65 $36 $-1 $66 reversed single #
face $-1 $67 $68 $37 $-1 $69 forward single #
face $-1 $70 $71 $38 $-1 $72 forward single #
face $-1 $73 $74 $39 $-1 $75 forward single #
face $-1 $76 $77 $40 $-1 $78 reversed single #
face $-1 $79 $80 $41 $-1 $81 forward single #
face $-1 $82 $83 $42 $-1 $84 forward single #
face $-1 $85 $86 $43 $-1 $87 forward single #
face $-1 $88 $89 $33 $-1 $90 reversed single #
loop $-1 $-1 $91 $44 #
plane-surface $-1 0 0 8.5400095843326298 0 0 1 1 0 0 forward_v I I I I #
face $-1 $92 $93 $34 $-1 $94 reversed single #
loop $-1 $-1 $95 $45 #
plane-surface $-1 -56.120104482277242 0 -0.1549941657189926 0 0 1 1 0 0 forward_v I I I I #
face $-1 $96 $97 $35 $-1 $98 reversed single #
loop $-1 $-1 $99 $46 #
plane-surface $-1 56.120104482277242 0 -0.1549941657189926 0 0 1 1 0 0 forward_v I I I I #
face $-1 $100 $101 $36 $-1 $102 reversed single #
loop $-1 $-1 $103 $47 #
plane-surface $-1 -23.039930875152383 -112.78129084530025 92.356711494005197 1 0 0 0 0.64278761758704617 -0.76604443648966558 forward_v I I I I #
face $-1 $104 $105 $37 $-1 $106 forward single #
loop $-1 $107 $108 $48 #
cone-surface $-1 -18.018462176805045 -31.954773828934101 4.0163702718285288 0 0.64278761758704617 -0.76604443648966558 2 0 0 1 I I 0 1 2 forward I I I I #
face $-1 $109 $110 $38 $-1 $111 forward single #
loop $-1 $112 $113 $49 #
cone-surface $-1 -10.486259129284029 -31.954773828934101 4.0163702718285288 0 0.64278761758704617 -0.76604443648966558 2 0 0 1 I I 0 1 2 forward I I I I #
face $-1 $114 $115 $39 $-1 $116 forward single #
loop $-1 $117 $118 $50 #
cone-surface $-1 -2.9540560817630137 -31.954773828934101 4.0163702718285288 0 0.64278761758704617 -0.76604443648966558 2 0 0 1 I I 0 1 2 forward I I I I #
face $-1 $119 $120 $40 $-1 $121 reversed single #
loop $-1 $-1 $122 $51 #
plane-surface $-1 36.417911904878849 51.40232937337246 143.84325622393254 -1 0 0 0 0.61566148304635926 0.78801074757464917 forward_v I I I I #
face $-1 $123 $124 $41 $-1 $125 forward single #
loop $-1 $126 $127 $52 #
cone-surface $-1 16.553991966678254 34.485024462893996 6.4386868514122968 0 -0.61566148304635926 -0.78801074757464917 1 0 0 1 I I 0 1 1 forward I I I I #
face $-1 $128 $129 $42 $-1 $130 forward single #
loop $-1 $131 $132 $53 #
cone-surface $-1 24.002961943503479 34.485024462893996 6.4386868514122968 0 -0.61566148304635926 -0.78801074757464917 1 0 0 1 I I 0 1 1 forward I I I I #
face $-1 $133 $134 $43 $-1 $135 forward single #
loop $-1 $136 $137 $54 #
cone-surface $-1 31.451931920328704 34.485024462893996 6.4386868514122968 0 -0.61566148304635926 -0.78801074757464917 1 0 0 1 I I 0 1 1 forward I I I I #
face $-1 $138 $139 $33 $-1 $140 reversed single #
loop $-1 $-1 $141 $55 #
plane-surface $-1 0 0 -8.5400095843326298 0 0 1 1 0 0 forward_v I I I I #
coedge $-1 $142 $143 $144 $145 forward $56 $-1 #
face $-1 $146 $147 $34 $-1 $148 reversed single #
loop $-1 $-1 $149 $58 #
plane-surface $-1 -56.120104482277242 0 -3.1549941657189926 0 0 1 1 0 0 forward_v I I I I #
coedge $-1 $150 $151 $152 $153 forward $59 $-1 #
face $-1 $154 $155 $35 $-1 $156 reversed single #
loop $-1 $-1 $157 $61 #
plane-surface $-1 56.120104482277242 0 -3.1549941657189926 0 0 1 1 0 0 forward_v I I I I #
coedge $-1 $158 $159 $160 $161 reversed $62 $-1 #
face $-1 $162 $163 $36 $-1 $164 reversed single #
loop $-1 $-1 $165 $64 #
plane-surface $-1 -10.486259129284022 -36.914029766750303 1.9416324371006226 0 -0.64278761758704617 0.76604443648966558 1 0 0 forward_v I I I I #
coedge $-1 $166 $167 $168 $169 reversed $65 $-1 #
face $-1 $-1 $170 $37 $-1 $171 forward single #
loop $-1 $172 $173 $67 #
cone-surface $-1 -18.018462176805045 -30.284550026431695 2.0258750964507666 0 0.64278761758704617 -0.76604443648966558 1 0 0 1 I I -0.70710678118654746 0.70710678118654746 1 forward I I I I #
loop $-1 $-1 $174 $48 #
coedge $-1 $108 $108 $175 $176 reversed $68 $-1 #
face $-1 $-1 $177 $38 $-1 $178 forward single #
loop $-1 $179 $180 $70 #
cone-surface $-1 -10.486259129284029 -30.284550026431695 2.0258750964507666 0 0.64278761758704617 -0.76604443648966558 1 0 0 1 I I -0.70710678118654746 0.70710678118654746 1 forward I I I I #
loop $-1 $-1 $181 $49 #
coedge $-1 $113 $113 $182 $183 reversed $71 $-1 #
face $-1 $-1 $184 $39 $-1 $185 forward single #
loop $-1 $186 $187 $73 #
cone-surface $-1 -2.9540560817630137 -30.284550026431695 2.0258750964507666 0 0.64278761758704617 -0.76604443648966558 1 0 0 1 I I -0.70710678118654746 0.70710678118654746 1 forward I I I I #
loop $-1 $-1 $188 $50 #
coedge $-1 $118 $118 $189 $190 reversed $74 $-1 #
face $-1 $191 $192 $40 $-1 $193 reversed single #
loop $-1 $-1 $194 $76 #
plane-surface $-1 24.002961943503479 -21.263274618229197 50.835526324945718 0 0.61566148304635926 0.78801074757464917 1 0 0 forward_v I I I I #
coedge $-1 $195 $196 $197 $198 reversed $77 $-1 #
face $-1 $-1 $199 $41 $-1 $200 forward single #
loop $-1 $201 $202 $79 #
cone-surface $-1 16.553991966678254 33.768944790933752 5.522146685813027 0 -0.61566148304635926 -0.78801074757464917 0.5 0 0 1 I I -0.70710678118654746 0.70710678118654746 0.5 forward I I I I #
loop $-1 $-1 $203 $52 #
coedge $-1 $127 $127 $204 $205 reversed $80 $-1 #
face $-1 $-1 $206 $42 $-1 $207 forward single #
loop $-1 $208 $209 $82 #
cone-surface $-1 24.002961943503479 33.768944790933752 5.522146685813027 0 -0.61566148304635926 -0.78801074757464917 0.5 0 0 1 I I -0.70710678118654746 0.70710678118654746 0.5 forward I I I I #
loop $-1 $-1 $210 $53 #
coedge $-1 $132 $132 $211 $212 reversed $83 $-1 #
face $-1 $-1 $213 $43 $-1 $214 forward single #
loop $-1 $215 $216 $85 #
cone-surface $-1 31.451931920328704 33.768944790933752 5.522146685813027 0 -0.61566148304635926 -0.78801074757464917 0.5 0 0 1 I I -0.70710678118654746 0.70710678118654746 0.5 forward I I I I #
loop $-1 $-1 $217 $54 #
coedge $-1 $137 $137 $218 $219 reversed $86 $-1 #
face $-1 $220 $221 $33 $-1 $222 reversed single #
loop $-1 $-1 $223 $88 #
plane-surface $-1 0 -36.914029766750296 0 0 1 0 0 0 1 forward_v I I I I #
coedge $-1 $224 $225 $226 $227 forward $89 $-1 #
coedge $-1 $228 $91 $229 $230 forward $56 $-1 #
coedge $-1 $91 $228 $231 $232 forward $56 $-1 #
coedge $-1 $233 $234 $91 $145 reversed $235 $-1 #
edge $-1 $236 -36.914029766750296 $237 36.914029766750296 $144 $238 forward 7 unknown #
face $-1 $239 $240 $34 $-1 $241 reversed single #
loop $-1 $-1 $242 $92 #
plane-surface $-1 -53.225956820629193 0 -1.6549941657189926 -1 0 0 0 0 1 forward_v I I I I #
coedge $-1 $243 $244 $245 $246 forward $93 $-1 #
coedge $-1 $247 $95 $248 $249 reversed $59 $-1 #
coedge $-1 $95 $247 $250 $251 reversed $59 $-1 #
coedge $-1 $242 $252 $95 $153 reversed $147 $-1 #
edge $-1 $253 -36.914029766750296 $254 36.914029766750296 $152 $255 forward 7 unknown #
face $-1 $256 $257 $35 $-1 $258 reversed single #
loop $-1 $-1 $259 $96 #
plane-surface $-1 53.225956820629193 0 -1.6549941657189926 1 0 0 0 0 -1 forward_v I I I I #
coedge $-1 $260 $261 $262 $263 reversed $97 $-1 #
coedge $-1 $264 $99 $265 $266 reversed $62 $-1 #
coedge $-1 $99 $264 $267 $268 reversed $62 $-1 #
coedge $-1 $269 $270 $99 $161 forward $271 $-1 #
edge $-1 $272 -36.914029766750296 $273 36.914029766750296 $160 $274 forward 7 unknown #
face $-1 $275 $276 $36 $-1 $277 forward single #
loop $-1 $-1 $278 $100 #
plane-surface $-1 2.0674126165843383 -112.78129084530025 92.356711494005197 -1 0 0 0 -0.64278761758704617 0.76604443648966558 forward_v I I I I #
coedge $-1 $279 $280 $281 $282 reversed $101 $-1 #
coedge $-1 $167 $103 $283 $284 reversed $65 $-1 #
coedge $-1 $103 $166 $279 $285 reversed $65 $-1 #
coedge $-1 $281 $286 $103 $169 forward $287 $-1 #
edge $-1 $288 37.638346162669968 $289 44.236723309901969 $168 $290 forward 7 unknown #
loop $-1 $-1 $175 $104 #
plane-surface $-1 -10.486259129284022 -36.914029766750303 1.9416324371006226 0 -0.64278761758704617 0.76604443648966558 1 0 0 forward_v I I I I #
loop $-1 $-1 $291 $67 #
coedge $-1 $173 $173 $174 $292 reversed $105 $-1 #
coedge $-1 $174 $174 $173 $292 forward $107 $-1 #
coedge $-1 $175 $175 $108 $176 forward $170 $-1 #
edge $-1 $293 7.2335123171640768e-016 $293 6.2831853071796013 $175 $294 forward 7 unknown #
loop $-1 $-1 $182 $109 #
plane-surface $-1 -10.486259129284022 -36.914029766750303 1.9416324371006226 0 -0.64278761758704617 0.76604443648966558 1 0 0 forward_v I I I I #
loop $-1 $-1 $295 $70 #
coedge $-1 $180 $180 $181 $296 reversed $110 $-1 #
coedge $-1 $181 $181 $180 $296 forward $112 $-1 #
coedge $-1 $182 $182 $113 $183 forward $177 $-1 #
edge $-1 $297 7.2335123171640768e-016 $297 6.2831853071796013 $182 $298 forward 7 unknown #
loop $-1 $-1 $189 $114 #
plane-surface $-1 -10.486259129284022 -36.914029766750303 1.9416324371006226 0 -0.64278761758704617 0.76604443648966558 1 0 0 forward_v I I I I #
loop $-1 $-1 $299 $73 #
coedge $-1 $187 $187 $188 $300 reversed $115 $-1 #
coedge $-1 $188 $188 $187 $300 forward $117 $-1 #
coedge $-1 $189 $189 $118 $190 forward $184 $-1 #
edge $-1 $301 7.2335123171640768e-016 $301 6.2831853071796013 $189 $302 forward 7 unknown #
face $-1 $303 $304 $40 $-1 $305 reversed single #
loop $-1 $-1 $306 $119 #
plane-surface $-1 11.588011982128108 51.40232937337246 143.84325622393254 1 0 0 0 -0.61566148304635926 -0.78801074757464917 forward_v I I I I #
coedge $-1 $307 $308 $309 $310 reversed $120 $-1 #
coedge $-1 $196 $122 $311 $312 reversed $77 $-1 #
coedge $-1 $122 $195 $307 $313 reversed $77 $-1 #
coedge $-1 $309 $314 $122 $198 forward $304 $-1 #
edge $-1 $315 63.381618527633641 $316 66.539194409850424 $197 $317 forward 7 unknown #
loop $-1 $-1 $204 $123 #
plane-surface $-1 24.002961943503479 -21.263274618229197 50.835526324945718 0 0.61566148304635926 0.78801074757464917 1 0 0 forward_v I I I I #
loop $-1 $-1 $318 $79 #
coedge $-1 $202 $202 $203 $319 reversed $124 $-1 #
coedge $-1 $203 $203 $202 $319 forward $126 $-1 #
coedge $-1 $204 $204 $127 $205 forward $199 $-1 #
edge $-1 $320 -1.3098069307702156e-016 $320 6.2831853071796004 $204 $321 forward 7 unknown #
loop $-1 $-1 $211 $128 #
plane-surface $-1 24.002961943503479 -21.263274618229197 50.835526324945718 0 0.61566148304635926 0.78801074757464917 1 0 0 forward_v I I I I #
loop $-1 $-1 $322 $82 #
coedge $-1 $209 $209 $210 $323 reversed $129 $-1 #
coedge $-1 $210 $210 $209 $323 forward $131 $-1 #
coedge $-1 $211 $211 $132 $212 forward $206 $-1 #
edge $-1 $324 -1.3098069307702156e-016 $324 6.2831853071796004 $211 $325 forward 7 unknown #
loop $-1 $-1 $218 $133 #
plane-surface $-1 24.002961943503479 -21.263274618229197 50.835526324945718 0 0.61566148304635926 0.78801074757464917 1 0 0 forward_v I I I I #
loop $-1 $-1 $326 $85 #
coedge $-1 $216 $216 $217 $327 reversed $134 $-1 #
coedge $-1 $217 $217 $216 $327 forward $136 $-1 #
coedge $-1 $218 $218 $137 $219 forward $213 $-1 #
edge $-1 $328 -1.3098069307702156e-016 $328 6.2831853071796004 $218 $329 forward 7 unknown #
face $-1 $330 $331 $33 $-1 $332 reversed single #
loop $-1 $-1 $333 $138 #
plane-surface $-1 -59.01425214392529 0 0 1 0 0 0 0 -1 forward_v I I I I #
coedge $-1 $334 $231 $335 $336 forward $139 $-1 #
coedge $-1 $337 $141 $334 $338 forward $89 $-1 #
coedge $-1 $141 $337 $339 $340 forward $89 $-1 #
coedge $-1 $234 $233 $141 $227 reversed $235 $-1 #
edge $-1 $341 -36.914029766750296 $342 36.914029766750296 $226 $343 forward 7 unknown #
coedge $-1 $143 $142 $344 $345 forward $56 $-1 #
coedge $-1 $346 $347 $142 $230 reversed $331 $-1 #
edge $-1 $237 -59.01425214392529 $348 59.01425214392529 $229 $349 forward 7 unknown #
coedge $-1 $223 $350 $143 $232 reversed $139 $-1 #
edge $-1 $351 -59.01425214392529 $236 59.01425214392529 $231 $352 forward 7 unknown #
coedge $-1 $226 $144 $350 $353 forward $235 $-1 #
coedge $-1 $144 $226 $346 $354 reversed $235 $-1 #
loop $-1 $-1 $233 $330 #
vertex $-1 $145 $355 #
vertex $-1 $145 $356 #
straight-curve $-1 59.01425214392529 0 8.5400095843326298 0 1 0 I I #
face $-1 $357 $358 $34 $-1 $359 reversed single #
loop $-1 $-1 $360 $146 #
plane-surface $-1 0 -36.914029766750296 0 0 1 0 0 0 1 forward_v I I I I #
coedge $-1 $245 $152 $361 $362 reversed $147 $-1 #
coedge $-1 $363 $149 $360 $364 reversed $93 $-1 #
coedge $-1 $149 $363 $365 $366 reversed $93 $-1 #
coedge $-1 $252 $242 $149 $246 reversed $147 $-1 #
edge $-1 $367 -36.914029766750296 $368 36.914029766750296 $245 $369 forward 7 unknown #
coedge $-1 $151 $150 $370 $371 reversed $59 $-1 #
coedge $-1 $372 $373 $150 $249 forward $374 $-1 #
edge $-1 $375 -30.954199902786669 $254 -25.165904579490572 $248 $376 forward 7 unknown #
coedge $-1 $377 $361 $151 $251 forward $240 $-1 #
edge $-1 $253 25.165904579490572 $378 30.954199902786669 $250 $379 forward 7 unknown #
coedge $-1 $152 $245 $372 $380 reversed $147 $-1 #
vertex $-1 $251 $381 #
vertex $-1 $249 $382 #
straight-curve $-1 -53.225956820629193 0 -0.1549941657189926 0 1 0 I I #
face $-1 $383 $384 $35 $-1 $385 reversed single #
loop $-1 $-1 $267 $154 #
plane-surface $-1 0 -36.914029766750296 0 0 1 0 0 0 1 forward_v I I I I #
coedge $-1 $386 $387 $388 $389 reversed $155 $-1 #
coedge $-1 $390 $157 $391 $392 reversed $97 $-1 #
coedge $-1 $157 $390 $393 $394 reversed $97 $-1 #
coedge $-1 $270 $269 $157 $263 forward $271 $-1 #
edge $-1 $395 -36.914029766750296 $396 36.914029766750296 $262 $397 forward 7 unknown #
coedge $-1 $159 $158 $387 $398 forward $62 $-1 #
coedge $-1 $399 $388 $158 $266 forward $384 $-1 #
edge $-1 $400 25.165904579490572 $272 30.954199902786669 $265 $401 forward 7 unknown #
coedge $-1 $402 $403 $159 $268 forward $257 $-1 #
edge $-1 $273 -30.954199902786669 $404 -25.165904579490572 $267 $405 forward 7 unknown #
coedge $-1 $262 $160 $403 $406 forward $271 $-1 #
coedge $-1 $160 $262 $399 $407 reversed $271 $-1 #
loop $-1 $-1 $160 $383 #
vertex $-1 $407 $408 #
vertex $-1 $406 $409 #
straight-curve $-1 59.01425214392529 0 -0.1549941657189926 0 -1 0 I I #
face $-1 $-1 $287 $36 $-1 $410 reversed single #
loop $-1 $-1 $411 $162 #
plane-surface $-1 0 0 8.5400095843326298 0 0 1 1 0 0 forward_v I I I I #
coedge $-1 $412 $413 $414 $415 reversed $163 $-1 #
coedge $-1 $416 $165 $167 $285 forward $101 $-1 #
coedge $-1 $165 $416 $412 $417 forward $101 $-1 #
coedge $-1 $414 $168 $165 $282 forward $287 $-1 #
edge $-1 $289 -17.796801310510372 $418 7.3105421812263494 $281 $419 forward 7 unknown #
coedge $-1 $420 $421 $166 $284 forward $276 $-1 #
edge $-1 $422 -27.340255161701485 $288 -19.476615655899828 $283 $423 forward 7 unknown #
edge $-1 $289 9.2967162063127932e-015 $422 10.265252420389782 $167 $424 forward 7 unknown #
coedge $-1 $168 $414 $420 $425 reversed $287 $-1 #
loop $-1 $-1 $414 $275 #
vertex $-1 $425 $426 #
vertex $-1 $169 $427 #
straight-curve $-1 -23.039930875152383 -36.914029766750296 46.178355747002598 0 0 -1 I I #
coedge $-1 $291 $291 $-1 $428 reversed $172 $-1 #
edge $-1 $429 0 $429 6.2831853071796004 $173 $430 forward 7 unknown #
vertex $-1 $176 $431 #
ellipse-curve $-1 -18.018462176805045 -32.982210013849468 5.2408210107166306 0 -0.64278761758704617 0.76604443648966558 2 0 0 1 I I #
coedge $-1 $295 $295 $-1 $432 reversed $179 $-1 #
edge $-1 $433 0 $433 6.2831853071796004 $180 $434 forward 7 unknown #
vertex $-1 $183 $435 #
ellipse-curve $-1 -10.486259129284029 -32.982210013849468 5.2408210107166306 0 -0.64278761758704617 0.76604443648966558 2 0 0 1 I I #
coedge $-1 $299 $299 $-1 $436 reversed $186 $-1 #
edge $-1 $437 0 $437 6.2831853071796004 $187 $438 forward 7 unknown #
vertex $-1 $190 $439 #
ellipse-curve $-1 -2.9540560817630137 -32.982210013849468 5.2408210107166306 0 -0.64278761758704617 0.76604443648966558 2 0 0 1 I I #
face $-1 $-1 $440 $40 $-1 $441 forward single #
loop $-1 $-1 $197 $191 #
plane-surface $-1 0 36.914029766750296 0 0 -1 0 0 0 -1 forward_v I I I I #
coedge $-1 $442 $443 $444 $445 reversed $192 $-1 #
coedge $-1 $446 $194 $196 $313 forward $120 $-1 #
coedge $-1 $194 $446 $442 $447 forward $120 $-1 #
coedge $-1 $444 $197 $194 $310 forward $304 $-1 #
edge $-1 $316 -24.41643093312711 $448 0.41346898962363099 $309 $449 forward 7 unknown #
coedge $-1 $450 $451 $195 $312 forward $440 $-1 #
edge $-1 $452 7.1713523332256237 $315 11.212865080064066 $311 $453 forward 7 unknown #
edge $-1 $316 -73.828059533500578 $452 -68.699306202054942 $196 $454 forward 7 unknown #
coedge $-1 $197 $444 $450 $455 reversed $304 $-1 #
vertex $-1 $455 $456 #
vertex $-1 $198 $457 #
straight-curve $-1 36.417911904878849 36.914029766750296 71.921628111966271 0 0 -1 I I #
coedge $-1 $318 $318 $-1 $458 reversed $201 $-1 #
edge $-1 $459 0 $459 6.2831853071796004 $202 $460 forward 7 unknown #
vertex $-1 $205 $461 #
ellipse-curve $-1 16.553991966678254 34.893273393331064 6.9612216432242491 0 0.61566148304635926 0.78801074757464917 1 0 0 1 I I #
coedge $-1 $322 $322 $-1 $462 reversed $208 $-1 #
edge $-1 $463 0 $463 6.2831853071796004 $209 $464 forward 7 unknown #
vertex $-1 $212 $465 #
ellipse-curve $-1 24.002961943503479 34.893273393331064 6.9612216432242491 0 0.61566148304635926 0.78801074757464917 1 0 0 1 I I #
coedge $-1 $326 $326 $-1 $466 reversed $215 $-1 #
edge $-1 $467 0 $467 6.2831853071796004 $216 $468 forward 7 unknown #
vertex $-1 $219 $469 #
ellipse-curve $-1 31.451931920328704 34.893273393331064 6.9612216432242491 0 0.61566148304635926 0.78801074757464917 1 0 0 1 I I #
face $-1 $-1 $235 $33 $-1 $470 reversed single #
loop $-1 $-1 $346 $220 #
plane-surface $-1 0 36.914029766750296 0 0 -1 0 0 0 -1 forward_v I I I I #
coedge $-1 $471 $344 $347 $472 forward $221 $-1 #
coedge $-1 $350 $223 $224 $338 reversed $139 $-1 #
coedge $-1 $344 $471 $223 $336 reversed $221 $-1 #
edge $-1 $351 -8.5400095843326298 $473 8.5400095843326298 $335 $474 forward 7 unknown #
coedge $-1 $225 $224 $471 $475 forward $89 $-1 #
edge $-1 $342 -59.01425214392529 $473 59.01425214392529 $334 $476 forward 7 unknown #
coedge $-1 $347 $346 $225 $340 reversed $331 $-1 #
edge $-1 $477 -59.01425214392529 $341 59.01425214392529 $339 $478 forward 7 unknown #
vertex $-1 $227 $479 #
vertex $-1 $353 $480 #
straight-curve $-1 59.01425214392529 0 -8.5400095843326298 0 -1 0 I I #
coedge $-1 $333 $335 $228 $345 reversed $221 $-1 #
edge $-1 $348 -36.914029766750296 $351 36.914029766750296 $344 $481 forward 7 unknown #
coedge $-1 $339 $229 $234 $354 forward $331 $-1 #
coedge $-1 $229 $339 $333 $472 reversed $331 $-1 #
vertex $-1 $230 $482 #
straight-curve $-1 0 36.914029766750296 8.5400095843326298 -1 0 0 I I #
coedge $-1 $231 $334 $233 $353 reversed $139 $-1 #
vertex $-1 $345 $483 #
straight-curve $-1 0 -36.914029766750296 8.5400095843326298 1 0 0 I I #
edge $-1 $236 -8.5400095843326298 $342 8.5400095843326298 $233 $484 forward 7 unknown #
edge $-1 $237 -8.5400095843326298 $341 8.5400095843326298 $234 $485 forward 7 unknown #
point $-1 59.01425214392529 -36.914029766750296 8.5400095843326298 #
point $-1 59.01425214392529 36.914029766750296 8.5400095843326298 #
face $-1 $-1 $374 $34 $-1 $486 reversed single #
loop $-1 $-1 $487 $239 #
plane-surface $-1 -59.01425214392529 0 0 1 0 0 0 0 -1 forward_v I I I I #
coedge $-1 $361 $377 $243 $364 forward $240 $-1 #
coedge $-1 $250 $360 $242 $362 forward $240 $-1 #
edge $-1 $368 -2.3274970828594963 $253 0.6725029171405037 $361 $488 forward 7 unknown #
coedge $-1 $244 $243 $487 $489 reversed $93 $-1 #
edge $-1 $490 -30.954199902786669 $368 -25.165904579490572 $360 $491 forward 7 unknown #
coedge $-1 $373 $372 $244 $366 forward $374 $-1 #
edge $-1 $367 25.165904579490572 $492 30.954199902786669 $365 $493 forward 7 unknown #
vertex $-1 $366 $494 #
vertex $-1 $364 $495 #
straight-curve $-1 -53.225956820629193 0 -3.1549941657189926 0 -1 0 I I #
coedge $-1 $496 $497 $247 $371 forward $358 $-1 #
edge $-1 $378 -36.914029766750296 $375 36.914029766750296 $370 $498 forward 7 unknown #
coedge $-1 $365 $248 $252 $380 forward $374 $-1 #
coedge $-1 $248 $365 $496 $499 reversed $374 $-1 #
loop $-1 $-1 $365 $357 #
vertex $-1 $499 $500 #
straight-curve $-1 -28.060052241138621 36.914029766750296 -0.1549941657189926 1 0 0 I I #
coedge $-1 $360 $250 $497 $501 forward $240 $-1 #
vertex $-1 $501 $502 #
straight-curve $-1 -28.060052241138621 -36.914029766750296 -0.1549941657189926 -1 0 0 I I #
edge $-1 $254 -0.6725029171405037 $367 2.3274970828594963 $372 $503 forward 7 unknown #
point $-1 -53.225956820629193 -36.914029766750296 -0.1549941657189926 #
point $-1 -53.225956820629193 36.914029766750296 -0.1549941657189926 #
face $-1 $-1 $271 $35 $-1 $504 reversed single #
loop $-1 $-1 $265 $256 #
plane-surface $-1 0 36.914029766750296 0 0 -1 0 0 0 -1 forward_v I I I I #
coedge $-1 $505 $259 $390 $506 reversed $155 $-1 #
coedge $-1 $259 $505 $264 $398 reversed $155 $-1 #
coedge $-1 $265 $393 $259 $389 forward $384 $-1 #
edge $-1 $507 -2.3274970828594963 $400 0.6725029171405037 $388 $508 forward 7 unknown #
coedge $-1 $261 $260 $386 $506 forward $97 $-1 #
coedge $-1 $403 $402 $260 $392 forward $257 $-1 #
edge $-1 $509 25.165904579490572 $395 30.954199902786669 $391 $510 forward 7 unknown #
coedge $-1 $388 $399 $261 $394 forward $384 $-1 #
edge $-1 $396 -30.954199902786669 $507 -25.165904579490572 $393 $511 forward 7 unknown #
vertex $-1 $263 $512 #
vertex $-1 $263 $513 #
straight-curve $-1 59.01425214392529 0 -3.1549941657189926 0 1 0 I I #
edge $-1 $400 -36.914029766750296 $404 36.914029766750296 $387 $514 forward 7 unknown #
coedge $-1 $393 $265 $270 $407 forward $384 $-1 #
vertex $-1 $266 $515 #
straight-curve $-1 28.060052241138621 36.914029766750296 -0.1549941657189926 1 0 0 I I #
coedge $-1 $391 $267 $505 $516 forward $257 $-1 #
coedge $-1 $267 $391 $269 $406 reversed $257 $-1 #
vertex $-1 $268 $517 #
straight-curve $-1 28.060052241138621 -36.914029766750296 -0.1549941657189926 -1 0 0 I I #
edge $-1 $273 0.1549941657189926 $395 3.1549941657189926 $269 $518 forward 7 unknown #
edge $-1 $272 0.1549941657189926 $396 3.1549941657189926 $270 $519 forward 7 unknown #
point $-1 59.01425214392529 36.914029766750296 -0.1549941657189926 #
point $-1 59.01425214392529 -36.914029766750296 -0.1549941657189926 #
plane-surface $-1 0 -36.914029766750296 0 0 1 0 0 0 1 forward_v I I I I #
coedge $-1 $421 $420 $413 $520 forward $276 $-1 #
coedge $-1 $413 $278 $280 $417 reversed $163 $-1 #
coedge $-1 $278 $412 $411 $520 reversed $163 $-1 #
coedge $-1 $286 $281 $278 $415 forward $287 $-1 #
edge $-1 $418 -44.236723309901969 $521 -37.638346162669968 $414 $522 forward 7 unknown #
coedge $-1 $280 $279 $421 $523 reversed $101 $-1 #
edge $-1 $524 -10.265252420389782 $418 -9.2967162063127932e-015 $412 $525 forward 7 unknown #
vertex $-1 $282 $526 #
straight-curve $-1 -5.2431295646420111 -36.914029766750296 1.9416324371006297 1 0 0 I I #
coedge $-1 $411 $283 $286 $425 forward $276 $-1 #
coedge $-1 $283 $411 $416 $523 forward $276 $-1 #
vertex $-1 $284 $527 #
straight-curve $-1 -23.039930875152383 -56.390645422650124 8.5400095843326298 0 -1 0 I I #
straight-curve $-1 -23.039930875152383 -36.914029766750303 1.9416324371006226 0 0.76604443648966558 0.64278761758704617 I I #
edge $-1 $288 -23.039930875152383 $521 2.0674126165843383 $286 $528 forward 7 unknown #
point $-1 -23.039930875152383 -36.914029766750296 8.5400095843326298 #
point $-1 -23.039930875152383 -36.914029766750296 1.9416324371006286 #
edge $-1 $529 1 $529 0 $291 $-1 forward 7 unknown #
vertex $-1 $292 $530 #
ellipse-curve $-1 -18.018462176805045 -30.927337644018742 2.7919195329404323 0 -0.64278761758704617 0.76604443648966558 2 0 0 1 I I #
point $-1 -16.018462176805045 -32.98221001384946 5.2408210107166244 #
edge $-1 $531 1 $531 0 $295 $-1 forward 7 unknown #
vertex $-1 $296 $532 #
ellipse-curve $-1 -10.486259129284029 -30.927337644018742 2.7919195329404323 0 -0.64278761758704617 0.76604443648966558 2 0 0 1 I I #
point $-1 -8.4862591292840293 -32.98221001384946 5.2408210107166244 #
edge $-1 $533 1 $533 0 $299 $-1 forward 7 unknown #
vertex $-1 $300 $534 #
ellipse-curve $-1 -2.9540560817630137 -30.927337644018742 2.7919195329404323 0 -0.64278761758704617 0.76604443648966558 2 0 0 1 I I #
point $-1 -0.95405608176301371 -32.98221001384946 5.2408210107166244 #
loop $-1 $-1 $311 $303 #
plane-surface $-1 0 0 8.5400095843326298 0 0 1 1 0 0 forward_v I I I I #
coedge $-1 $443 $306 $308 $447 reversed $192 $-1 #
coedge $-1 $306 $442 $535 $536 reversed $192 $-1 #
coedge $-1 $314 $309 $306 $445 forward $304 $-1 #
edge $-1 $448 -66.539194409850424 $537 -63.381618527633641 $444 $538 forward 7 unknown #
coedge $-1 $308 $307 $451 $539 reversed $120 $-1 #
edge $-1 $540 68.699306202054942 $448 73.828059533500578 $442 $541 forward 7 unknown #
vertex $-1 $310 $542 #
straight-curve $-1 12.001480971751739 36.914029766750296 5.3824337021158541 -1 0 0 I I #
coedge $-1 $535 $311 $314 $455 forward $440 $-1 #
coedge $-1 $311 $535 $446 $539 forward $440 $-1 #
vertex $-1 $312 $543 #
straight-curve $-1 36.417911904878849 25.70116468668623 8.5400095843326227 0 1 0 I I #
straight-curve $-1 36.417911904878849 -21.263274618229197 50.835526324945718 0 -0.78801074757464917 0.61566148304635926 I I #
edge $-1 $315 -36.417911904878849 $537 -11.588011982128108 $314 $544 forward 7 unknown #
point $-1 36.417911904878849 36.914029766750296 8.5400095843326298 #
point $-1 36.417911904878849 36.914029766750296 5.382433702115847 #
edge $-1 $545 1 $545 0 $318 $-1 forward 7 unknown #
vertex $-1 $319 $546 #
ellipse-curve $-1 16.553991966678254 34.076775532456928 5.9161520596003516 0 0.61566148304635926 0.78801074757464917 1 0 0 1 I I #
point $-1 17.553991966678254 34.893273393331057 6.9612216432242402 #
edge $-1 $547 1 $547 0 $322 $-1 forward 7 unknown #
vertex $-1 $323 $548 #
ellipse-curve $-1 24.002961943503479 34.076775532456928 5.9161520596003516 0 0.61566148304635926 0.78801074757464917 1 0 0 1 I I #
point $-1 25.002961943503479 34.893273393331057 6.9612216432242402 #
edge $-1 $549 1 $549 0 $326 $-1 forward 7 unknown #
vertex $-1 $327 $550 #
ellipse-curve $-1 31.451931920328704 34.076775532456928 5.9161520596003516 0 0.61566148304635926 0.78801074757464917 1 0 0 1 I I #
point $-1 32.451931920328704 34.893273393331057 6.9612216432242402 #
plane-surface $-1 59.01425214392529 0 0 -1 0 0 0 0 1 forward_v I I I I #
coedge $-1 $335 $333 $337 $475 reversed $221 $-1 #
edge $-1 $348 -8.5400095843326298 $477 8.5400095843326298 $347 $551 forward 7 unknown #
vertex $-1 $475 $552 #
straight-curve $-1 -59.01425214392529 -36.914029766750296 0 0 0 -1 I I #
edge $-1 $473 -36.914029766750296 $477 36.914029766750296 $471 $553 forward 7 unknown #
straight-curve $-1 0 -36.914029766750296 -8.5400095843326298 -1 0 0 I I #
vertex $-1 $340 $554 #
straight-curve $-1 0 36.914029766750296 -8.5400095843326298 1 0 0 I I #
point $-1 59.01425214392529 36.914029766750296 -8.5400095843326298 #
point $-1 59.01425214392529 -36.914029766750296 -8.5400095843326298 #
straight-curve $-1 -59.01425214392529 0 8.5400095843326298 0 -1 0 I I #
point $-1 -59.01425214392529 36.914029766750296 8.5400095843326298 #
point $-1 -59.01425214392529 -36.914029766750296 8.5400095843326298 #
straight-curve $-1 59.01425214392529 -36.914029766750296 0 0 0 -1 I I #
straight-curve $-1 59.01425214392529 36.914029766750296 0 0 0 -1 I I #
plane-surface $-1 0 36.914029766750296 0 0 -1 0 0 0 -1 forward_v I I I I #
coedge $-1 $497 $496 $363 $489 forward $358 $-1 #
straight-curve $-1 -53.225956820629193 -36.914029766750296 -0.8274970828594963 0 0 1 I I #
edge $-1 $492 -36.914029766750296 $490 36.914029766750296 $487 $555 forward 7 unknown #
vertex $-1 $364 $556 #
straight-curve $-1 -28.060052241138621 -36.914029766750296 -3.1549941657189926 1 0 0 I I #
vertex $-1 $366 $557 #
straight-curve $-1 -28.060052241138621 36.914029766750296 -3.1549941657189926 -1 0 0 I I #
point $-1 -53.225956820629193 36.914029766750296 -3.1549941657189926 #
point $-1 -53.225956820629193 -36.914029766750296 -3.1549941657189926 #
coedge $-1 $487 $370 $373 $499 forward $358 $-1 #
coedge $-1 $370 $487 $377 $501 reversed $358 $-1 #
straight-curve $-1 -59.01425214392529 0 -0.1549941657189926 0 1 0 I I #
edge $-1 $375 0.1549941657189926 $492 3.1549941657189926 $373 $558 forward 7 unknown #
point $-1 -59.01425214392529 36.914029766750296 -0.1549941657189926 #
edge $-1 $378 0.1549941657189926 $490 3.1549941657189926 $497 $559 forward 7 unknown #
point $-1 -59.01425214392529 -36.914029766750296 -0.1549941657189926 #
straight-curve $-1 -53.225956820629193 36.914029766750296 -0.8274970828594963 0 0 -1 I I #
plane-surface $-1 59.01425214392529 0 0 -1 0 0 0 0 1 forward_v I I I I #
coedge $-1 $387 $386 $402 $516 reversed $155 $-1 #
edge $-1 $509 -36.914029766750296 $507 36.914029766750296 $386 $560 forward 7 unknown #
vertex $-1 $394 $561 #
straight-curve $-1 53.225956820629193 36.914029766750296 -0.8274970828594963 0 0 1 I I #
vertex $-1 $392 $562 #
straight-curve $-1 28.060052241138621 -36.914029766750296 -3.1549941657189926 1 0 0 I I #
straight-curve $-1 28.060052241138621 36.914029766750296 -3.1549941657189926 -1 0 0 I I #
point $-1 59.01425214392529 -36.914029766750296 -3.1549941657189926 #
point $-1 59.01425214392529 36.914029766750296 -3.1549941657189926 #
straight-curve $-1 53.225956820629193 0 -0.1549941657189926 0 -1 0 I I #
point $-1 53.225956820629193 36.914029766750296 -0.1549941657189926 #
edge $-1 $404 -0.6725029171405037 $509 2.3274970828594963 $402 $563 forward 7 unknown #
point $-1 53.225956820629193 -36.914029766750296 -0.1549941657189926 #
straight-curve $-1 59.01425214392529 -36.914029766750296 0 0 0 -1 I I #
straight-curve $-1 59.01425214392529 36.914029766750296 0 0 0 -1 I I #
edge $-1 $521 19.476615655899828 $524 27.340255161701485 $411 $564 forward 7 unknown #
vertex $-1 $520 $565 #
straight-curve $-1 2.0674126165843383 -36.914029766750296 46.178355747002598 0 0 1 I I #
edge $-1 $524 -7.3105421812263494 $422 17.796801310510372 $421 $566 forward 7 unknown #
vertex $-1 $523 $567 #
straight-curve $-1 2.0674126165843383 -36.914029766750303 1.9416324371006226 0 -0.76604443648966558 -0.64278761758704617 I I #
point $-1 2.0674126165843383 -36.914029766750296 1.9416324371006286 #
point $-1 -23.039930875152383 -29.050390260948639 8.5400095843326298 #
straight-curve $-1 0 -36.914029766750296 8.5400095843326298 1 0 0 I I #
vertex $-1 $428 $568 #
point $-1 -16.018462176805045 -30.927337644018742 2.7919195329404323 #
vertex $-1 $432 $569 #
point $-1 -8.4862591292840293 -30.927337644018742 2.7919195329404323 #
vertex $-1 $436 $570 #
point $-1 -0.95405608176301371 -30.927337644018742 2.7919195329404323 #
coedge $-1 $451 $450 $443 $536 forward $440 $-1 #
edge $-1 $537 -11.212865080064066 $540 -7.1713523332256237 $535 $571 forward 7 unknown #
vertex $-1 $536 $572 #
straight-curve $-1 11.588011982128108 36.914029766750296 71.921628111966271 0 0 1 I I #
edge $-1 $540 -0.41346898962363099 $452 24.41643093312711 $451 $573 forward 7 unknown #
vertex $-1 $539 $574 #
straight-curve $-1 11.588011982128108 -21.263274618229197 50.835526324945718 0 0.78801074757464917 -0.61566148304635926 I I #
point $-1 11.588011982128108 36.914029766750296 5.382433702115847 #
point $-1 36.417911904878849 32.872517019911854 8.5400095843326227 #
straight-curve $-1 0 36.914029766750296 8.5400095843326298 -1 0 0 I I #
vertex $-1 $458 $575 #
point $-1 17.553991966678254 34.076775532456928 5.9161520596003516 #
vertex $-1 $462 $576 #
point $-1 25.002961943503479 34.076775532456928 5.9161520596003516 #
vertex $-1 $466 $577 #
point $-1 32.451931920328704 34.076775532456928 5.9161520596003516 #
straight-curve $-1 -59.01425214392529 36.914029766750296 0 0 0 -1 I I #
point $-1 -59.01425214392529 -36.914029766750296 -8.5400095843326298 #
straight-curve $-1 -59.01425214392529 0 -8.5400095843326298 0 1 0 I I #
point $-1 -59.01425214392529 36.914029766750296 -8.5400095843326298 #
straight-curve $-1 -59.01425214392529 0 -3.1549941657189926 0 -1 0 I I #
point $-1 -59.01425214392529 -36.914029766750296 -3.1549941657189926 #
point $-1 -59.01425214392529 36.914029766750296 -3.1549941657189926 #
straight-curve $-1 -59.01425214392529 36.914029766750296 0 0 0 -1 I I #
straight-curve $-1 -59.01425214392529 -36.914029766750296 0 0 0 -1 I I #
straight-curve $-1 53.225956820629193 0 -3.1549941657189926 0 1 0 I I #
point $-1 53.225956820629193 36.914029766750296 -3.1549941657189926 #
point $-1 53.225956820629193 -36.914029766750296 -3.1549941657189926 #
straight-curve $-1 53.225956820629193 -36.914029766750296 -0.8274970828594963 0 0 -1 I I #
straight-curve $-1 2.0674126165843383 -56.390645422650124 8.5400095843326298 0 1 0 I I #
point $-1 2.0674126165843383 -36.914029766750296 8.5400095843326298 #
straight-curve $-1 -5.2431295646420111 -29.050390260948635 8.5400095843326298 -1 0 0 I I #
point $-1 2.0674126165843383 -29.050390260948639 8.5400095843326298 #
point $-1 -18.018462176805045 -29.641762408844649 1.2598306599611009 #
point $-1 -10.486259129284029 -29.641762408844649 1.2598306599611009 #
point $-1 -2.9540560817630137 -29.641762408844649 1.2598306599611009 #
straight-curve $-1 11.588011982128108 25.70116468668623 8.5400095843326227 0 -1 0 I I #
point $-1 11.588011982128108 36.914029766750296 8.5400095843326298 #
straight-curve $-1 12.001480971751739 32.872517019911847 8.5400095843326262 1 0 0 I I #
point $-1 11.588011982128108 32.872517019911854 8.5400095843326227 #
point $-1 16.553991966678254 33.461114049410575 5.1281413120257024 #
point $-1 24.002961943503479 33.461114049410575 5.1281413120257024 #
point $-1 31.451931920328704 33.461114049410575 5.1281413120257024 #
End-of-ACIS-data 