500 0 12 0           
7 Unknown 11 ACIS 5.0 NT 24 Fri Mar 26 15:47:06 1999 
-1 9.9999999999999995e-007 1e-010 
body $-1 $12 $-1 $13 #
body $-1 $14 $-1 $15 #
body $-1 $16 $-1 $17 #
body $-1 $18 $-1 $19 #
body $-1 $20 $-1 $21 #
body $-1 $22 $-1 $23 #
body $-1 $24 $-1 $25 #
body $-1 $26 $-1 $27 #
body $-1 $28 $-1 $29 #
body $-1 $30 $-1 $31 #
body $-1 $32 $-1 $33 #
body $-1 $34 $-1 $35 #
lump $-1 $-1 $36 $0 #
transform $-1 1 0 0 0 1 0 0 0 1 46.915494247260966 24.326987412870029 10.528009207646253 1 rotate no_reflect no_shear #
lump $-1 $-1 $37 $1 #
transform $-1 1 0 0 0 1 0 0 0 1 46.915494247260966 24.326987412870029 10.528009207646253 1 rotate no_reflect no_shear #
lump $-1 $-1 $38 $2 #
transform $-1 1 0 0 0 1 0 0 0 1 46.915494247260966 24.326987412870029 10.528009207646253 1 rotate no_reflect no_shear #
lump $-1 $-1 $39 $3 #
transform $-1 1 0 0 0 1 0 0 0 1 46.915494247260966 24.326987412870029 10.528009207646253 1 rotate no_reflect no_shear #
lump $-1 $-1 $40 $4 #
transform $-1 1 0 0 0 1 0 0 0 1 46.915494247260966 24.326987412870029 10.528009207646253 1 rotate no_reflect no_shear #
lump $-1 $-1 $41 $5 #
transform $-1 1 0 0 0 1 0 0 0 1 46.915494247260966 24.326987412870029 10.528009207646253 1 rotate no_reflect no_shear #
lump $-1 $-1 $42 $6 #
transform $-1 1 0 0 0 1 0 0 0 1 46.915494247260966 24.326987412870029 10.528009207646253 1 rotate no_reflect no_shear #
lump $-1 $-1 $43 $7 #
transform $-1 1 0 0 0 1 0 0 0 1 46.915494247260966 24.326987412870029 10.528009207646253 1 rotate no_reflect no_shear #
lump $-1 $-1 $44 $8 #
transform $-1 1 0 0 0 1 0 0 0 1 46.915494247260966 24.326987412870029 10.528009207646253 1 rotate no_reflect no_shear #
lump $-1 $-1 $45 $9 #
transform $-1 1 0 0 0 1 0 0 0 1 46.915494247260966 24.326987412870029 10.528009207646253 1 rotate no_reflect no_shear #
lump $-1 $-1 $46 $10 #
transform $-1 1 0 0 0 1 0 0 0 1 46.915494247260966 24.326987412870029 10.528009207646253 1 rotate no_reflect no_shear #
lump $-1 $-1 $47 $11 #
transform $-1 1 0 0 0 1 0 0 0 1 46.915494247260966 24.326987412870029 10.528009207646253 1 rotate no_reflect no_shear #
shell $-1 $-1 $-1 $48 $-1 $12 #
shell $-1 $-1 $-1 $49 $-1 $14 #
shell $-1 $-1 $-1 $50 $-1 $16 #
shell $-1 $-1 $-1 $51 $-1 $18 #
shell $-1 $-1 $-1 $52 $-1 $20 #
shell $-1 $-1 $-1 $53 $-1 $22 #
shell $-1 $-1 $-1 $54 $-1 $24 #
shell $-1 $-1 $-1 $55 $-1 $26 #
shell $-1 $-1 $-1 $56 $-1 $28 #
shell $-1 $-1 $-1 $57 $-1 $30 #
shell $-1 $-1 $-1 $58 $-1 $32 #
shell $-1 $-1 $-1 $59 $-1 $34 #
face $-1 $60 $61 $36 $-1 $62 forward single #
face $-1 $63 $64 $37 $-1 $65 reversed single #
face $-1 $66 $67 $38 $-1 $68 reversed single #
face $-1 $69 $70 $39 $-1 $71 reversed single #
face $-1 $72 $73 $40 $-1 $74 forward single #
face $-1 $75 $76 $41 $-1 $77 forward single #
face $-1 $78 $79 $42 $-1 $80 reversed single #
face $-1 $81 $82 $43 $-1 $83 forward single #
face $-1 $84 $85 $44 $-1 $86 forward single #
face $-1 $87 $88 $45 $-1 $89 reversed single #
face $-1 $90 $91 $46 $-1 $92 forward single #
face $-1 $93 $94 $47 $-1 $95 forward single #
face $-1 $96 $97 $36 $-1 $98 reversed single #
loop $-1 $-1 $99 $48 #
plane-surface $-1 0 0 10.528009207646253 0 0 1 1 0 0 forward_v I I I I #
face $-1 $100 $101 $37 $-1 $102 reversed single #
loop $-1 $-1 $103 $49 #
plane-surface $-1 0 -20.497866251542195 5.5043684970156725 0 0 1 1 0 0 forward_v I I I I #
face $-1 $104 $105 $38 $-1 $106 reversed single #
loop $-1 $-1 $107 $50 #
plane-surface $-1 0 20.497866251542195 5.5043684970156725 0 0 1 1 0 0 forward_v I I I I #
face $-1 $108 $109 $39 $-1 $110 reversed single #
loop $-1 $-1 $111 $51 #
plane-surface $-1 23.872893383593549 -9.7493658713271749 131.52470882475421 0 -1 0 -0.57357644374324357 0 -0.81915203911291934 forward_v I I I I #
face $-1 $112 $113 $40 $-1 $114 forward single #
loop $-1 $115 $116 $52 #
cone-surface $-1 39.713334568151623 -14.691779599103736 5.2762378712089681 -0.57357644374324357 0 -0.81915203911291934 0.40957601955645967 0 -0.28678822187162178 1 I I 0 1 0.5 forward I I I I #
face $-1 $117 $118 $41 $-1 $119 forward single #
loop $-1 $120 $121 $53 #
cone-surface $-1 39.713334568151623 -11.726331362437799 5.2762378712089681 -0.57357644374324357 0 -0.81915203911291934 0.40957601955645967 0 -0.28678822187162178 1 I I 0 1 0.5 forward I I I I #
face $-1 $122 $123 $42 $-1 $124 reversed single #
loop $-1 $-1 $125 $54 #
plane-surface $-1 23.872893383593549 1.3631308554823991 131.52470882475421 0 -1 0 -0.57357644374324357 0 -0.81915203911291934 forward_v I I I I #
face $-1 $126 $127 $43 $-1 $128 forward single #
loop $-1 $129 $130 $55 #
cone-surface $-1 39.713334568151623 -3.5792828722941614 5.2762378712089681 -0.57357644374324357 0 -0.81915203911291934 0.40957601955645967 0 -0.28678822187162178 1 I I 0 1 0.5 forward I I I I #
face $-1 $131 $132 $44 $-1 $133 forward single #
loop $-1 $134 $135 $56 #
cone-surface $-1 39.713334568151623 -0.61383463562822627 5.2762378712089681 -0.57357644374324357 0 -0.81915203911291934 0.40957601955645967 0 -0.28678822187162178 1 I I 0 1 0.5 forward I I I I #
face $-1 $136 $137 $45 $-1 $138 reversed single #
loop $-1 $-1 $139 $57 #
plane-surface $-1 23.872893383593549 12.475627582291974 131.52470882475421 0 -1 0 -0.57357644374324357 0 -0.81915203911291934 forward_v I I I I #
face $-1 $140 $141 $46 $-1 $142 forward single #
loop $-1 $143 $144 $58 #
cone-surface $-1 39.713334568151623 7.533213854515413 5.2762378712089681 -0.57357644374324357 0 -0.81915203911291934 0.40957601955645967 0 -0.28678822187162178 1 I I 0 1 0.5 forward I I I I #
face $-1 $145 $146 $47 $-1 $147 forward single #
loop $-1 $148 $149 $59 #
cone-surface $-1 39.713334568151623 10.498662091181348 5.2762378712089681 -0.57357644374324357 0 -0.81915203911291934 0.40957601955645967 0 -0.28678822187162178 1 I I 0 1 0.5 forward I I I I #
face $-1 $150 $151 $36 $-1 $152 reversed single #
loop $-1 $-1 $153 $60 #
plane-surface $-1 0 0 -10.528009207646253 0 0 1 1 0 0 forward_v I I I I #
coedge $-1 $154 $155 $156 $157 forward $61 $-1 #
face $-1 $158 $159 $37 $-1 $160 reversed single #
loop $-1 $-1 $161 $63 #
plane-surface $-1 0 -16.668745090214362 8.0161888523309628 0 -1 0 0 0 -1 forward_v I I I I #
coedge $-1 $162 $163 $164 $165 reversed $64 $-1 #
face $-1 $166 $167 $38 $-1 $168 forward single #
loop $-1 $-1 $169 $66 #
plane-surface $-1 0 16.668745090214362 8.0161888523309628 0 1 0 0 0 1 forward_v I I I I #
coedge $-1 $170 $171 $172 $173 reversed $67 $-1 #
face $-1 $174 $175 $39 $-1 $176 forward single #
loop $-1 $-1 $177 $69 #
plane-surface $-1 -29.946351310007543 -13.209055480770768 54.662863267485704 0.57357644374324357 0 0.81915203911291934 0.81915203911291934 0 -0.57357644374324357 forward_v I I I I #
coedge $-1 $178 $179 $180 $181 reversed $70 $-1 #
face $-1 $-1 $182 $40 $-1 $183 forward single #
loop $-1 $184 $185 $72 #
cone-surface $-1 39.28315223534419 -14.691779599103736 4.6618738418742787 -0.57357644374324357 0 -0.81915203911291934 0.20478800977822983 0 -0.14339411093581089 1 I I -0.70710678118654746 0.70710678118654746 0.25 forward I I I I #
loop $-1 $-1 $186 $52 #
coedge $-1 $116 $116 $187 $188 reversed $73 $-1 #
face $-1 $-1 $189 $41 $-1 $190 forward single #
loop $-1 $191 $192 $75 #
cone-surface $-1 39.28315223534419 -11.726331362437799 4.6618738418742787 -0.57357644374324357 0 -0.81915203911291934 0.20478800977822983 0 -0.14339411093581089 1 I I -0.70710678118654746 0.70710678118654746 0.25 forward I I I I #
loop $-1 $-1 $193 $53 #
coedge $-1 $121 $121 $194 $195 reversed $76 $-1 #
face $-1 $196 $197 $42 $-1 $198 reversed single #
loop $-1 $-1 $199 $78 #
plane-surface $-1 -29.946351310007543 -2.0965587539611938 54.662863267485704 0.57357644374324357 0 0.81915203911291934 0.81915203911291934 0 -0.57357644374324357 forward_v I I I I #
coedge $-1 $200 $201 $202 $203 reversed $79 $-1 #
face $-1 $-1 $204 $43 $-1 $205 forward single #
loop $-1 $206 $207 $81 #
cone-surface $-1 39.28315223534419 -3.5792828722941614 4.6618738418742787 -0.57357644374324357 0 -0.81915203911291934 0.20478800977822983 0 -0.14339411093581089 1 I I -0.70710678118654746 0.70710678118654746 0.25 forward I I I I #
loop $-1 $-1 $208 $55 #
coedge $-1 $130 $130 $209 $210 reversed $82 $-1 #
face $-1 $-1 $211 $44 $-1 $212 forward single #
loop $-1 $213 $214 $84 #
cone-surface $-1 39.28315223534419 -0.61383463562822627 4.6618738418742787 -0.57357644374324357 0 -0.81915203911291934 0.20478800977822983 0 -0.14339411093581089 1 I I -0.70710678118654746 0.70710678118654746 0.25 forward I I I I #
loop $-1 $-1 $215 $56 #
coedge $-1 $135 $135 $216 $217 reversed $85 $-1 #
face $-1 $218 $219 $45 $-1 $220 reversed single #
loop $-1 $-1 $221 $87 #
plane-surface $-1 -29.946351310007543 9.0159379728483806 54.662863267485704 0.57357644374324357 0 0.81915203911291934 0.81915203911291934 0 -0.57357644374324357 forward_v I I I I #
coedge $-1 $222 $223 $224 $225 reversed $88 $-1 #
face $-1 $-1 $226 $46 $-1 $227 forward single #
loop $-1 $228 $229 $90 #
cone-surface $-1 39.28315223534419 7.533213854515413 4.6618738418742787 -0.57357644374324357 0 -0.81915203911291934 0.20478800977822983 0 -0.14339411093581089 1 I I -0.70710678118654746 0.70710678118654746 0.25 forward I I I I #
loop $-1 $-1 $230 $58 #
coedge $-1 $144 $144 $231 $232 reversed $91 $-1 #
face $-1 $-1 $233 $47 $-1 $234 forward single #
loop $-1 $235 $236 $93 #
cone-surface $-1 39.28315223534419 10.498662091181348 4.6618738418742787 -0.57357644374324357 0 -0.81915203911291934 0.20478800977822983 0 -0.14339411093581089 1 I I -0.70710678118654746 0.70710678118654746 0.25 forward I I I I #
loop $-1 $-1 $237 $59 #
coedge $-1 $149 $149 $238 $239 reversed $94 $-1 #
face $-1 $240 $241 $36 $-1 $242 reversed single #
loop $-1 $-1 $243 $96 #
plane-surface $-1 0 -24.326987412870029 0 0 1 0 0 0 1 forward_v I I I I #
coedge $-1 $244 $245 $246 $247 forward $97 $-1 #
coedge $-1 $248 $99 $249 $250 forward $61 $-1 #
coedge $-1 $99 $248 $251 $252 forward $61 $-1 #
coedge $-1 $253 $254 $99 $157 reversed $255 $-1 #
edge $-1 $256 -24.326987412870029 $257 24.326987412870029 $156 $258 forward 7 unknown #
face $-1 $259 $260 $37 $-1 $261 reversed single #
loop $-1 $-1 $262 $100 #
plane-surface $-1 -46.915494247260966 0 0 1 0 0 0 0 -1 forward_v I I I I #
coedge $-1 $263 $264 $163 $265 reversed $101 $-1 #
coedge $-1 $266 $103 $267 $268 reversed $64 $-1 #
coedge $-1 $103 $266 $161 $265 forward $64 $-1 #
coedge $-1 $269 $270 $103 $165 forward $271 $-1 #
edge $-1 $272 -14.078054287098931 $273 -6.4198119644432641 $164 $274 forward 7 unknown #
face $-1 $275 $276 $38 $-1 $277 reversed single #
loop $-1 $-1 $278 $104 #
plane-surface $-1 0 0 10.528009207646253 0 0 1 1 0 0 forward_v I I I I #
coedge $-1 $279 $280 $281 $282 reversed $105 $-1 #
coedge $-1 $283 $107 $279 $284 forward $67 $-1 #
coedge $-1 $107 $283 $285 $286 reversed $67 $-1 #
coedge $-1 $287 $288 $107 $173 forward $276 $-1 #
edge $-1 $289 6.4198119644432641 $290 14.078054287098931 $172 $291 forward 7 unknown #
face $-1 $292 $293 $39 $-1 $294 forward single #
loop $-1 $-1 $180 $108 #
plane-surface $-1 0 0 10.528009207646253 0 0 1 1 0 0 forward_v I I I I #
coedge $-1 $295 $296 $297 $298 reversed $109 $-1 #
coedge $-1 $179 $111 $299 $300 reversed $70 $-1 #
coedge $-1 $111 $178 $295 $301 reversed $70 $-1 #
coedge $-1 $297 $302 $111 $181 forward $175 $-1 #
edge $-1 $303 -34.979047555464192 $304 -21.148304640988727 $180 $305 forward 7 unknown #
loop $-1 $-1 $187 $112 #
plane-surface $-1 -29.946351310007543 -13.209055480770768 54.662863267485704 0.57357644374324357 0 0.81915203911291934 0.81915203911291934 0 -0.57357644374324357 forward_v I I I I #
loop $-1 $-1 $306 $72 #
coedge $-1 $185 $185 $186 $307 reversed $113 $-1 #
coedge $-1 $186 $186 $185 $307 forward $115 $-1 #
coedge $-1 $187 $187 $116 $188 forward $182 $-1 #
edge $-1 $308 0 $308 6.2831853071796004 $187 $309 forward 7 unknown #
loop $-1 $-1 $194 $117 #
plane-surface $-1 -29.946351310007543 -13.209055480770768 54.662863267485704 0.57357644374324357 0 0.81915203911291934 0.81915203911291934 0 -0.57357644374324357 forward_v I I I I #
loop $-1 $-1 $310 $75 #
coedge $-1 $192 $192 $193 $311 reversed $118 $-1 #
coedge $-1 $193 $193 $192 $311 forward $120 $-1 #
coedge $-1 $194 $194 $121 $195 forward $189 $-1 #
edge $-1 $312 0 $312 6.2831853071796004 $194 $313 forward 7 unknown #
face $-1 $314 $315 $42 $-1 $316 reversed single #
loop $-1 $-1 $317 $122 #
plane-surface $-1 23.872893383593549 -5.5562483634047872 131.52470882475421 0 1 0 0.57357644374324357 0 0.81915203911291934 forward_v I I I I #
coedge $-1 $318 $319 $320 $321 reversed $123 $-1 #
coedge $-1 $201 $125 $322 $323 reversed $79 $-1 #
coedge $-1 $125 $200 $318 $324 reversed $79 $-1 #
coedge $-1 $320 $325 $125 $203 forward $326 $-1 #
edge $-1 $327 -34.979047555464192 $328 -21.148304640988727 $202 $329 forward 7 unknown #
loop $-1 $-1 $209 $126 #
plane-surface $-1 -29.946351310007543 -2.0965587539611938 54.662863267485704 0.57357644374324357 0 0.81915203911291934 0.81915203911291934 0 -0.57357644374324357 forward_v I I I I #
loop $-1 $-1 $330 $81 #
coedge $-1 $207 $207 $208 $331 reversed $127 $-1 #
coedge $-1 $208 $208 $207 $331 forward $129 $-1 #
coedge $-1 $209 $209 $130 $210 forward $204 $-1 #
edge $-1 $332 0 $332 6.2831853071796004 $209 $333 forward 7 unknown #
loop $-1 $-1 $216 $131 #
plane-surface $-1 -29.946351310007543 -2.0965587539611938 54.662863267485704 0.57357644374324357 0 0.81915203911291934 0.81915203911291934 0 -0.57357644374324357 forward_v I I I I #
loop $-1 $-1 $334 $84 #
coedge $-1 $214 $214 $215 $335 reversed $132 $-1 #
coedge $-1 $215 $215 $214 $335 forward $134 $-1 #
coedge $-1 $216 $216 $135 $217 forward $211 $-1 #
edge $-1 $336 0 $336 6.2831853071796004 $216 $337 forward 7 unknown #
face $-1 $338 $339 $45 $-1 $340 reversed single #
loop $-1 $-1 $341 $136 #
plane-surface $-1 23.872893383593549 5.5562483634047872 131.52470882475421 0 1 0 0.57357644374324357 0 0.81915203911291934 forward_v I I I I #
coedge $-1 $342 $343 $344 $345 reversed $137 $-1 #
coedge $-1 $223 $139 $346 $347 reversed $88 $-1 #
coedge $-1 $139 $222 $342 $348 reversed $88 $-1 #
coedge $-1 $344 $349 $139 $225 forward $350 $-1 #
edge $-1 $351 -34.979047555464192 $352 -21.148304640988727 $224 $353 forward 7 unknown #
loop $-1 $-1 $231 $140 #
plane-surface $-1 -29.946351310007543 9.0159379728483806 54.662863267485704 0.57357644374324357 0 0.81915203911291934 0.81915203911291934 0 -0.57357644374324357 forward_v I I I I #
loop $-1 $-1 $354 $90 #
coedge $-1 $229 $229 $230 $355 reversed $141 $-1 #
coedge $-1 $230 $230 $229 $355 forward $143 $-1 #
coedge $-1 $231 $231 $144 $232 forward $226 $-1 #
edge $-1 $356 0 $356 6.2831853071796004 $231 $357 forward 7 unknown #
loop $-1 $-1 $238 $145 #
plane-surface $-1 -29.946351310007543 9.0159379728483806 54.662863267485704 0.57357644374324357 0 0.81915203911291934 0.81915203911291934 0 -0.57357644374324357 forward_v I I I I #
loop $-1 $-1 $358 $93 #
coedge $-1 $236 $236 $237 $359 reversed $146 $-1 #
coedge $-1 $237 $237 $236 $359 forward $148 $-1 #
coedge $-1 $238 $238 $149 $239 forward $233 $-1 #
edge $-1 $360 0 $360 6.2831853071796004 $238 $361 forward 7 unknown #
face $-1 $362 $363 $36 $-1 $364 reversed single #
loop $-1 $-1 $365 $150 #
plane-surface $-1 -46.915494247260966 0 0 1 0 0 0 0 -1 forward_v I I I I #
coedge $-1 $366 $251 $367 $368 forward $151 $-1 #
coedge $-1 $369 $153 $366 $370 forward $97 $-1 #
coedge $-1 $153 $369 $371 $372 forward $97 $-1 #
coedge $-1 $254 $253 $153 $247 reversed $255 $-1 #
edge $-1 $373 -24.326987412870029 $374 24.326987412870029 $246 $375 forward 7 unknown #
coedge $-1 $155 $154 $376 $377 forward $61 $-1 #
coedge $-1 $378 $379 $154 $250 reversed $363 $-1 #
edge $-1 $257 -46.915494247260966 $380 46.915494247260966 $249 $381 forward 7 unknown #
coedge $-1 $243 $382 $155 $252 reversed $151 $-1 #
edge $-1 $383 -46.915494247260966 $256 46.915494247260966 $251 $384 forward 7 unknown #
coedge $-1 $246 $156 $382 $385 forward $255 $-1 #
coedge $-1 $156 $246 $378 $386 reversed $255 $-1 #
loop $-1 $-1 $253 $362 #
vertex $-1 $157 $387 #
vertex $-1 $157 $388 #
straight-curve $-1 46.915494247260966 0 10.528009207646253 0 1 0 I I #
face $-1 $389 $390 $37 $-1 $391 forward single #
loop $-1 $-1 $267 $158 #
plane-surface $-1 0 -24.326987412870029 0 0 1 0 0 0 1 forward_v I I I I #
coedge $-1 $392 $393 $263 $394 forward $159 $-1 #
coedge $-1 $395 $161 $262 $394 reversed $101 $-1 #
coedge $-1 $161 $395 $269 $396 reversed $101 $-1 #
edge $-1 $397 -46.915494247260966 $273 46.915494247260966 $161 $398 forward 7 unknown #
coedge $-1 $163 $162 $392 $399 reversed $64 $-1 #
coedge $-1 $400 $401 $162 $268 forward $260 $-1 #
edge $-1 $402 -46.915494247260966 $272 46.915494247260966 $267 $403 forward 7 unknown #
coedge $-1 $404 $164 $264 $396 forward $271 $-1 #
coedge $-1 $164 $404 $400 $405 forward $271 $-1 #
loop $-1 $-1 $269 $389 #
vertex $-1 $268 $406 #
vertex $-1 $165 $407 #
straight-curve $-1 46.915494247260966 -10.248933125771098 5.5043684970156725 0 1 0 I I #
face $-1 $408 $409 $38 $-1 $410 reversed single #
loop $-1 $-1 $288 $166 #
plane-surface $-1 46.915494247260966 0 0 -1 0 0 0 0 1 forward_v I I I I #
coedge $-1 $411 $412 $280 $413 forward $167 $-1 #
coedge $-1 $414 $169 $170 $284 reversed $105 $-1 #
coedge $-1 $169 $414 $278 $413 reversed $105 $-1 #
coedge $-1 $415 $416 $169 $282 forward $409 $-1 #
edge $-1 $417 1.4962740708501912 $418 6.5199147814807716 $281 $419 forward 7 unknown #
coedge $-1 $171 $170 $416 $420 reversed $67 $-1 #
edge $-1 $289 -46.915494247260966 $417 46.915494247260966 $279 $421 forward 7 unknown #
coedge $-1 $422 $423 $171 $286 forward $424 $-1 #
edge $-1 $290 -46.915494247260966 $425 46.915494247260966 $285 $426 forward 7 unknown #
coedge $-1 $427 $172 $423 $428 reversed $276 $-1 #
coedge $-1 $172 $427 $414 $429 forward $276 $-1 #
vertex $-1 $173 $430 #
vertex $-1 $286 $431 #
straight-curve $-1 46.915494247260966 10.248933125771098 5.5043684970156725 0 1 0 I I #
face $-1 $-1 $432 $39 $-1 $433 reversed single #
loop $-1 $-1 $434 $174 #
plane-surface $-1 0 -16.668745090214362 8.0161888523309628 0 -1 0 0 0 -1 forward_v I I I I #
coedge $-1 $435 $177 $179 $301 forward $109 $-1 #
coedge $-1 $177 $435 $434 $436 forward $109 $-1 #
coedge $-1 $437 $180 $177 $298 forward $175 $-1 #
edge $-1 $304 3.1448381309417908 $438 10.064217349828978 $297 $439 forward 7 unknown #
coedge $-1 $440 $441 $178 $300 forward $432 $-1 #
edge $-1 $442 -64.918735838492495 $303 -55.234345204730857 $299 $443 forward 7 unknown #
edge $-1 $304 76.946768894149415 $442 93.830988494521918 $179 $444 forward 7 unknown #
coedge $-1 $180 $437 $440 $445 forward $175 $-1 #
vertex $-1 $300 $446 #
vertex $-1 $181 $447 #
straight-curve $-1 11.936446691796775 -9.7493658713271749 10.528009207646249 -1 0 0 I I #
coedge $-1 $306 $306 $-1 $448 reversed $184 $-1 #
edge $-1 $449 0 $449 6.2831853071796004 $185 $450 forward 7 unknown #
vertex $-1 $188 $451 #
ellipse-curve $-1 40.000122790023241 -14.691779599103736 5.6858138907654219 0.57357644374324357 0 0.81915203911291934 0.40957601955645967 0 -0.28678822187162178 1 I I #
coedge $-1 $310 $310 $-1 $452 reversed $191 $-1 #
edge $-1 $453 0 $453 6.2831853071796004 $192 $454 forward 7 unknown #
vertex $-1 $195 $455 #
ellipse-curve $-1 40.000122790023241 -11.726331362437799 5.6858138907654219 0.57357644374324357 0 0.81915203911291934 0.40957601955645967 0 -0.28678822187162178 1 I I #
face $-1 $-1 $326 $42 $-1 $456 forward single #
loop $-1 $-1 $457 $196 #
plane-surface $-1 46.915494247260966 0 0 -1 0 0 0 0 1 forward_v I I I I #
coedge $-1 $458 $459 $460 $461 reversed $197 $-1 #
coedge $-1 $462 $199 $201 $324 forward $123 $-1 #
coedge $-1 $199 $462 $458 $463 forward $123 $-1 #
coedge $-1 $460 $202 $199 $321 forward $326 $-1 #
edge $-1 $328 -2.411410232462996 $464 4.5079689864241903 $320 $465 forward 7 unknown #
coedge $-1 $466 $467 $200 $323 forward $315 $-1 #
edge $-1 $468 -64.918735838492495 $327 -55.234345204730857 $322 $469 forward 7 unknown #
edge $-1 $328 76.946768894149415 $468 93.830988494521918 $201 $470 forward 7 unknown #
coedge $-1 $202 $460 $466 $471 forward $326 $-1 #
loop $-1 $-1 $460 $314 #
vertex $-1 $323 $472 #
vertex $-1 $203 $473 #
straight-curve $-1 11.936446691796775 1.3631308554823991 10.528009207646249 -1 0 0 I I #
coedge $-1 $330 $330 $-1 $474 reversed $206 $-1 #
edge $-1 $475 0 $475 6.2831853071796004 $207 $476 forward 7 unknown #
vertex $-1 $210 $477 #
ellipse-curve $-1 40.000122790023241 -3.5792828722941614 5.6858138907654219 0.57357644374324357 0 0.81915203911291934 0.40957601955645967 0 -0.28678822187162178 1 I I #
coedge $-1 $334 $334 $-1 $478 reversed $213 $-1 #
edge $-1 $479 0 $479 6.2831853071796004 $214 $480 forward 7 unknown #
vertex $-1 $217 $481 #
ellipse-curve $-1 40.000122790023241 -0.61383463562822627 5.6858138907654219 0.57357644374324357 0 0.81915203911291934 0.40957601955645967 0 -0.28678822187162178 1 I I #
face $-1 $-1 $350 $45 $-1 $482 forward single #
loop $-1 $-1 $483 $218 #
plane-surface $-1 46.915494247260966 0 0 -1 0 0 0 0 1 forward_v I I I I #
coedge $-1 $484 $485 $486 $487 reversed $219 $-1 #
coedge $-1 $488 $221 $223 $348 forward $137 $-1 #
coedge $-1 $221 $488 $484 $489 forward $137 $-1 #
coedge $-1 $486 $224 $221 $345 forward $350 $-1 #
edge $-1 $352 -7.9676585958677837 $490 -1.0482793769805969 $344 $491 forward 7 unknown #
coedge $-1 $492 $493 $222 $347 forward $339 $-1 #
edge $-1 $494 -64.918735838492495 $351 -55.234345204730857 $346 $495 forward 7 unknown #
edge $-1 $352 76.946768894149415 $494 93.830988494521918 $223 $496 forward 7 unknown #
coedge $-1 $224 $486 $492 $497 forward $350 $-1 #
loop $-1 $-1 $486 $338 #
vertex $-1 $347 $498 #
vertex $-1 $225 $499 #
straight-curve $-1 11.936446691796775 12.475627582291974 10.528009207646249 -1 0 0 I I #
coedge $-1 $354 $354 $-1 $500 reversed $228 $-1 #
edge $-1 $501 0 $501 6.2831853071796004 $229 $502 forward 7 unknown #
vertex $-1 $232 $503 #
ellipse-curve $-1 40.000122790023241 7.533213854515413 5.6858138907654219 0.57357644374324357 0 0.81915203911291934 0.40957601955645967 0 -0.28678822187162178 1 I I #
coedge $-1 $358 $358 $-1 $504 reversed $235 $-1 #
edge $-1 $505 0 $505 6.2831853071796004 $236 $506 forward 7 unknown #
vertex $-1 $239 $507 #
ellipse-curve $-1 40.000122790023241 10.498662091181348 5.6858138907654219 0.57357644374324357 0 0.81915203911291934 0.40957601955645967 0 -0.28678822187162178 1 I I #
face $-1 $-1 $255 $36 $-1 $508 reversed single #
loop $-1 $-1 $378 $240 #
plane-surface $-1 0 24.326987412870029 0 0 -1 0 0 0 -1 forward_v I I I I #
coedge $-1 $509 $376 $379 $510 forward $241 $-1 #
coedge $-1 $382 $243 $244 $370 reversed $151 $-1 #
coedge $-1 $376 $509 $243 $368 reversed $241 $-1 #
edge $-1 $383 -10.528009207646253 $511 10.528009207646253 $367 $512 forward 7 unknown #
coedge $-1 $245 $244 $509 $513 forward $97 $-1 #
edge $-1 $374 -46.915494247260966 $511 46.915494247260966 $366 $514 forward 7 unknown #
coedge $-1 $379 $378 $245 $372 reversed $363 $-1 #
edge $-1 $515 -46.915494247260966 $373 46.915494247260966 $371 $516 forward 7 unknown #
vertex $-1 $247 $517 #
vertex $-1 $385 $518 #
straight-curve $-1 46.915494247260966 0 -10.528009207646253 0 -1 0 I I #
coedge $-1 $365 $367 $248 $377 reversed $241 $-1 #
edge $-1 $380 -24.326987412870029 $383 24.326987412870029 $376 $519 forward 7 unknown #
coedge $-1 $371 $249 $254 $386 forward $363 $-1 #
coedge $-1 $249 $371 $365 $510 reversed $363 $-1 #
vertex $-1 $250 $520 #
straight-curve $-1 0 24.326987412870029 10.528009207646253 -1 0 0 I I #
coedge $-1 $251 $366 $253 $385 reversed $151 $-1 #
vertex $-1 $377 $521 #
straight-curve $-1 0 -24.326987412870029 10.528009207646253 1 0 0 I I #
edge $-1 $256 -10.528009207646253 $374 10.528009207646253 $253 $522 forward 7 unknown #
edge $-1 $257 -10.528009207646253 $373 10.528009207646253 $254 $523 forward 7 unknown #
point $-1 46.915494247260966 -24.326987412870029 10.528009207646253 #
point $-1 46.915494247260966 24.326987412870029 10.528009207646253 #
face $-1 $-1 $271 $37 $-1 $524 reversed single #
loop $-1 $-1 $525 $259 #
plane-surface $-1 0 0 10.528009207646253 0 0 1 1 0 0 forward_v I I I I #
coedge $-1 $526 $262 $266 $399 forward $159 $-1 #
coedge $-1 $262 $526 $527 $528 reversed $159 $-1 #
edge $-1 $529 -6.5199147814807716 $397 -1.4962740708501912 $262 $530 forward 7 unknown #
coedge $-1 $264 $263 $525 $531 reversed $101 $-1 #
edge $-1 $273 1.4962740708501912 $532 6.5199147814807716 $269 $533 forward 7 unknown #
vertex $-1 $399 $534 #
straight-curve $-1 0 -16.668745090214362 5.5043684970156725 1 0 0 I I #
edge $-1 $397 6.4198119644432641 $402 14.078054287098931 $392 $535 forward 7 unknown #
coedge $-1 $536 $267 $270 $405 reversed $260 $-1 #
coedge $-1 $267 $536 $526 $537 forward $260 $-1 #
vertex $-1 $268 $538 #
straight-curve $-1 0 -24.326987412870029 5.5043684970156725 1 0 0 I I #
coedge $-1 $270 $269 $539 $540 reversed $271 $-1 #
edge $-1 $541 -10.528009207646253 $272 -5.5043684970156725 $270 $542 forward 7 unknown #
point $-1 46.915494247260966 -24.326987412870029 5.5043684970156725 #
point $-1 46.915494247260966 -16.668745090214362 5.5043684970156725 #
face $-1 $-1 $424 $38 $-1 $543 reversed single #
loop $-1 $-1 $281 $275 #
plane-surface $-1 -46.915494247260966 0 0 1 0 0 0 0 -1 forward_v I I I I #
coedge $-1 $544 $278 $427 $545 forward $167 $-1 #
coedge $-1 $278 $544 $415 $546 forward $167 $-1 #
edge $-1 $418 -46.915494247260966 $547 46.915494247260966 $278 $548 forward 7 unknown #
coedge $-1 $280 $279 $288 $429 reversed $105 $-1 #
coedge $-1 $549 $281 $412 $546 reversed $409 $-1 #
coedge $-1 $281 $549 $283 $420 forward $409 $-1 #
vertex $-1 $420 $550 #
vertex $-1 $282 $551 #
straight-curve $-1 -46.915494247260966 16.668745090214362 4.0080944261654814 0 0 1 I I #
edge $-1 $425 -14.078054287098931 $417 -6.4198119644432641 $416 $552 forward 7 unknown #
straight-curve $-1 0 16.668745090214362 5.5043684970156725 -1 0 0 I I #
coedge $-1 $553 $285 $549 $554 reversed $424 $-1 #
coedge $-1 $285 $553 $287 $428 forward $424 $-1 #
loop $-1 $-1 $285 $408 #
vertex $-1 $286 $555 #
straight-curve $-1 0 24.326987412870029 5.5043684970156725 -1 0 0 I I #
coedge $-1 $288 $287 $411 $545 reversed $276 $-1 #
edge $-1 $556 -10.528009207646253 $290 -5.5043684970156725 $287 $557 forward 7 unknown #
edge $-1 $547 -6.5199147814807716 $289 -1.4962740708501912 $288 $558 forward 7 unknown #
point $-1 46.915494247260966 16.668745090214362 5.5043684970156725 #
point $-1 46.915494247260966 24.326987412870029 5.5043684970156725 #
loop $-1 $-1 $299 $292 #
plane-surface $-1 46.915494247260966 0 0 -1 0 0 0 0 1 forward_v I I I I #
coedge $-1 $559 $560 $296 $436 reversed $293 $-1 #
coedge $-1 $296 $295 $441 $561 reversed $109 $-1 #
edge $-1 $562 -93.830988494521918 $438 -76.946768894149415 $434 $563 forward 7 unknown #
coedge $-1 $302 $297 $560 $564 forward $175 $-1 #
vertex $-1 $564 $565 #
straight-curve $-1 33.084751332785494 -6.6045277403853841 10.528009207646253 0 -1 0 I I #
coedge $-1 $566 $299 $302 $445 reversed $432 $-1 #
coedge $-1 $299 $566 $435 $561 forward $432 $-1 #
vertex $-1 $300 $567 #
straight-curve $-1 46.915494247260966 -9.7493658713271749 65.762354412377107 0 0 1 I I #
straight-curve $-1 -29.946351310007543 -9.7493658713271749 54.662863267485704 0.81915203911291934 0 -0.57357644374324357 I I #
edge $-1 $568 -16.668745090214362 $303 -9.7493658713271749 $440 $569 forward 7 unknown #
point $-1 46.915494247260966 -9.7493658713271749 10.528009207646253 #
point $-1 33.084751332785501 -9.7493658713271749 10.528009207646249 #
edge $-1 $570 1 $570 0 $306 $-1 forward 7 unknown #
vertex $-1 $307 $571 #
ellipse-curve $-1 39.426546346279999 -14.691779599103736 4.8666618516525082 0.57357644374324357 0 0.81915203911291934 0.40957601955645967 0 -0.28678822187162178 1 I I #
point $-1 40.409698809579702 -14.691779599103736 5.3990256688938061 #
edge $-1 $572 1 $572 0 $310 $-1 forward 7 unknown #
vertex $-1 $311 $573 #
ellipse-curve $-1 39.426546346279999 -11.726331362437799 4.8666618516525082 0.57357644374324357 0 0.81915203911291934 0.40957601955645967 0 -0.28678822187162178 1 I I #
point $-1 40.409698809579702 -11.726331362437799 5.3990256688938061 #
plane-surface $-1 0 0 10.528009207646253 0 0 1 1 0 0 forward_v I I I I #
coedge $-1 $467 $466 $459 $574 forward $315 $-1 #
coedge $-1 $459 $317 $319 $463 reversed $197 $-1 #
coedge $-1 $317 $458 $457 $574 reversed $197 $-1 #
coedge $-1 $325 $320 $317 $461 forward $326 $-1 #
edge $-1 $464 21.148304640988727 $575 34.979047555464192 $460 $576 forward 7 unknown #
coedge $-1 $319 $318 $467 $577 reversed $123 $-1 #
edge $-1 $578 -93.830988494521918 $464 -76.946768894149415 $458 $579 forward 7 unknown #
vertex $-1 $321 $580 #
straight-curve $-1 33.084751332785494 -1.0482793769805969 10.528009207646253 0 -1 0 I I #
coedge $-1 $457 $322 $325 $471 reversed $315 $-1 #
coedge $-1 $322 $457 $462 $577 forward $315 $-1 #
vertex $-1 $323 $581 #
straight-curve $-1 46.915494247260966 1.3631308554823991 65.762354412377107 0 0 1 I I #
straight-curve $-1 -29.946351310007543 1.3631308554823991 54.662863267485704 0.81915203911291934 0 -0.57357644374324357 I I #
edge $-1 $575 -5.5562483634047872 $327 1.3631308554823991 $466 $582 forward 7 unknown #
point $-1 46.915494247260966 1.3631308554823991 10.528009207646253 #
point $-1 33.084751332785501 1.3631308554823991 10.528009207646249 #
edge $-1 $583 1 $583 0 $330 $-1 forward 7 unknown #
vertex $-1 $331 $584 #
ellipse-curve $-1 39.426546346279999 -3.5792828722941614 4.8666618516525082 0.57357644374324357 0 0.81915203911291934 0.40957601955645967 0 -0.28678822187162178 1 I I #
point $-1 40.409698809579702 -3.5792828722941614 5.3990256688938061 #
edge $-1 $585 1 $585 0 $334 $-1 forward 7 unknown #
vertex $-1 $335 $586 #
ellipse-curve $-1 39.426546346279999 -0.61383463562822627 4.8666618516525082 0.57357644374324357 0 0.81915203911291934 0.40957601955645967 0 -0.28678822187162178 1 I I #
point $-1 40.409698809579702 -0.61383463562822627 5.3990256688938061 #
plane-surface $-1 0 0 10.528009207646253 0 0 1 1 0 0 forward_v I I I I #
coedge $-1 $493 $492 $485 $587 forward $339 $-1 #
coedge $-1 $485 $341 $343 $489 reversed $219 $-1 #
coedge $-1 $341 $484 $483 $587 reversed $219 $-1 #
coedge $-1 $349 $344 $341 $487 forward $350 $-1 #
edge $-1 $490 21.148304640988727 $588 34.979047555464192 $486 $589 forward 7 unknown #
coedge $-1 $343 $342 $493 $590 reversed $137 $-1 #
edge $-1 $591 -93.830988494521918 $490 -76.946768894149415 $484 $592 forward 7 unknown #
vertex $-1 $345 $593 #
straight-curve $-1 33.084751332785494 4.5079689864241903 10.528009207646253 0 -1 0 I I #
coedge $-1 $483 $346 $349 $497 reversed $339 $-1 #
coedge $-1 $346 $483 $488 $590 forward $339 $-1 #
vertex $-1 $347 $594 #
straight-curve $-1 46.915494247260966 12.475627582291974 65.762354412377107 0 0 1 I I #
straight-curve $-1 -29.946351310007543 12.475627582291974 54.662863267485704 0.81915203911291934 0 -0.57357644374324357 I I #
edge $-1 $588 5.5562483634047872 $351 12.475627582291974 $492 $595 forward 7 unknown #
point $-1 46.915494247260966 12.475627582291974 10.528009207646253 #
point $-1 33.084751332785501 12.475627582291974 10.528009207646249 #
edge $-1 $596 1 $596 0 $354 $-1 forward 7 unknown #
vertex $-1 $355 $597 #
ellipse-curve $-1 39.426546346279999 7.533213854515413 4.8666618516525082 0.57357644374324357 0 0.81915203911291934 0.40957601955645967 0 -0.28678822187162178 1 I I #
point $-1 40.409698809579702 7.533213854515413 5.3990256688938061 #
edge $-1 $598 1 $598 0 $358 $-1 forward 7 unknown #
vertex $-1 $359 $599 #
ellipse-curve $-1 39.426546346279999 10.498662091181348 4.8666618516525082 0.57357644374324357 0 0.81915203911291934 0.40957601955645967 0 -0.28678822187162178 1 I I #
point $-1 40.409698809579702 10.498662091181348 5.3990256688938061 #
plane-surface $-1 46.915494247260966 0 0 -1 0 0 0 0 1 forward_v I I I I #
coedge $-1 $367 $365 $369 $513 reversed $241 $-1 #
edge $-1 $380 -10.528009207646253 $515 10.528009207646253 $379 $600 forward 7 unknown #
vertex $-1 $513 $601 #
straight-curve $-1 -46.915494247260966 -24.326987412870029 0 0 0 -1 I I #
edge $-1 $511 -24.326987412870029 $515 24.326987412870029 $509 $602 forward 7 unknown #
straight-curve $-1 0 -24.326987412870029 -10.528009207646253 -1 0 0 I I #
vertex $-1 $372 $603 #
straight-curve $-1 0 24.326987412870029 -10.528009207646253 1 0 0 I I #
point $-1 46.915494247260966 24.326987412870029 -10.528009207646253 #
point $-1 46.915494247260966 -24.326987412870029 -10.528009207646253 #
straight-curve $-1 -46.915494247260966 0 10.528009207646253 0 -1 0 I I #
point $-1 -46.915494247260966 24.326987412870029 10.528009207646253 #
point $-1 -46.915494247260966 -24.326987412870029 10.528009207646253 #
straight-curve $-1 46.915494247260966 -24.326987412870029 0 0 0 -1 I I #
straight-curve $-1 46.915494247260966 24.326987412870029 0 0 0 -1 I I #
plane-surface $-1 46.915494247260966 0 0 -1 0 0 0 0 1 forward_v I I I I #
coedge $-1 $527 $539 $395 $531 forward $390 $-1 #
coedge $-1 $393 $392 $401 $537 reversed $159 $-1 #
coedge $-1 $604 $525 $393 $528 forward $390 $-1 #
edge $-1 $529 16.668745090214362 $605 24.326987412870029 $393 $606 forward 7 unknown #
vertex $-1 $528 $607 #
straight-curve $-1 -46.915494247260966 -16.668745090214362 4.0080944261654814 0 0 -1 I I #
edge $-1 $532 -46.915494247260966 $529 46.915494247260966 $525 $608 forward 7 unknown #
vertex $-1 $396 $609 #
straight-curve $-1 46.915494247260966 -16.668745090214362 4.0080944261654814 0 0 1 I I #
point $-1 -46.915494247260966 -16.668745090214362 5.5043684970156725 #
straight-curve $-1 -46.915494247260966 -10.248933125771098 5.5043684970156725 0 -1 0 I I #
coedge $-1 $401 $400 $604 $610 reversed $260 $-1 #
edge $-1 $605 -10.528009207646253 $402 -5.5043684970156725 $526 $611 forward 7 unknown #
point $-1 -46.915494247260966 -24.326987412870029 5.5043684970156725 #
coedge $-1 $525 $604 $404 $540 forward $390 $-1 #
edge $-1 $541 -24.326987412870029 $532 -16.668745090214362 $404 $612 forward 7 unknown #
vertex $-1 $540 $613 #
straight-curve $-1 46.915494247260966 -24.326987412870029 0 0 0 -1 I I #
plane-surface $-1 0 24.326987412870029 0 0 -1 0 0 0 -1 forward_v I I I I #
coedge $-1 $412 $411 $553 $614 forward $167 $-1 #
edge $-1 $547 16.668745090214362 $556 24.326987412870029 $427 $615 forward 7 unknown #
edge $-1 $616 -24.326987412870029 $418 -16.668745090214362 $415 $617 forward 7 unknown #
vertex $-1 $545 $618 #
straight-curve $-1 0 16.668745090214362 10.528009207646253 1 0 0 I I #
coedge $-1 $416 $415 $422 $554 forward $409 $-1 #
point $-1 -46.915494247260966 16.668745090214362 5.5043684970156725 #
point $-1 -46.915494247260966 16.668745090214362 10.528009207646253 #
straight-curve $-1 -46.915494247260966 10.248933125771098 5.5043684970156725 0 -1 0 I I #
coedge $-1 $423 $422 $544 $614 reversed $424 $-1 #
edge $-1 $616 -10.528009207646253 $425 -5.5043684970156725 $422 $619 forward 7 unknown #
point $-1 -46.915494247260966 24.326987412870029 5.5043684970156725 #
vertex $-1 $545 $620 #
straight-curve $-1 46.915494247260966 24.326987412870029 0 0 0 -1 I I #
straight-curve $-1 46.915494247260966 16.668745090214362 4.0080944261654814 0 0 -1 I I #
coedge $-1 $560 $434 $566 $621 reversed $293 $-1 #
coedge $-1 $434 $559 $437 $564 reversed $293 $-1 #
edge $-1 $562 -10.064217349828978 $442 -3.1448381309417908 $441 $622 forward 7 unknown #
vertex $-1 $621 $623 #
straight-curve $-1 -29.946351310007543 -16.668745090214362 54.662863267485704 -0.81915203911291934 0 0.57357644374324357 I I #
edge $-1 $438 33.084751332785501 $568 46.915494247260966 $437 $624 forward 7 unknown #
point $-1 33.084751332785501 -16.668745090214362 10.528009207646249 #
coedge $-1 $441 $440 $559 $621 forward $432 $-1 #
point $-1 46.915494247260966 -9.7493658713271749 0.84361857388461203 #
vertex $-1 $445 $625 #
straight-curve $-1 46.915494247260966 0 10.528009207646253 0 1 0 I I #
vertex $-1 $448 $626 #
point $-1 39.836122365836459 -14.691779599103736 4.5798736297808871 #
vertex $-1 $452 $627 #
point $-1 39.836122365836459 -11.726331362437799 4.5798736297808871 #
edge $-1 $575 55.234345204730857 $578 64.918735838492495 $457 $628 forward 7 unknown #
vertex $-1 $471 $629 #
straight-curve $-1 11.936446691796775 -5.5562483634047872 10.528009207646249 1 0 0 I I #
edge $-1 $578 -4.5079689864241903 $468 2.411410232462996 $467 $630 forward 7 unknown #
vertex $-1 $577 $631 #
straight-curve $-1 -29.946351310007543 -5.5562483634047872 54.662863267485704 -0.81915203911291934 0 0.57357644374324357 I I #
point $-1 33.084751332785501 -5.5562483634047872 10.528009207646249 #
point $-1 46.915494247260966 1.3631308554823991 0.84361857388461203 #
straight-curve $-1 46.915494247260966 0 10.528009207646253 0 1 0 I I #
vertex $-1 $474 $632 #
point $-1 39.836122365836459 -3.5792828722941614 4.5798736297808871 #
vertex $-1 $478 $633 #
point $-1 39.836122365836459 -0.61383463562822627 4.5798736297808871 #
edge $-1 $588 55.234345204730857 $591 64.918735838492495 $483 $634 forward 7 unknown #
vertex $-1 $497 $635 #
straight-curve $-1 11.936446691796775 5.5562483634047872 10.528009207646249 1 0 0 I I #
edge $-1 $591 1.0482793769805969 $494 7.9676585958677837 $493 $636 forward 7 unknown #
vertex $-1 $590 $637 #
straight-curve $-1 -29.946351310007543 5.5562483634047872 54.662863267485704 -0.81915203911291934 0 0.57357644374324357 I I #
point $-1 33.084751332785501 5.5562483634047872 10.528009207646249 #
point $-1 46.915494247260966 12.475627582291974 0.84361857388461203 #
straight-curve $-1 46.915494247260966 0 10.528009207646253 0 1 0 I I #
vertex $-1 $500 $638 #
point $-1 39.836122365836459 7.533213854515413 4.5798736297808871 #
vertex $-1 $504 $639 #
point $-1 39.836122365836459 10.498662091181348 4.5798736297808871 #
straight-curve $-1 -46.915494247260966 24.326987412870029 0 0 0 -1 I I #
point $-1 -46.915494247260966 -24.326987412870029 -10.528009207646253 #
straight-curve $-1 -46.915494247260966 0 -10.528009207646253 0 1 0 I I #
point $-1 -46.915494247260966 24.326987412870029 -10.528009207646253 #
coedge $-1 $539 $527 $536 $610 forward $390 $-1 #
vertex $-1 $528 $640 #
straight-curve $-1 -46.915494247260966 0 10.528009207646253 0 -1 0 I I #
point $-1 -46.915494247260966 -16.668745090214362 10.528009207646253 #
straight-curve $-1 0 -16.668745090214362 10.528009207646253 -1 0 0 I I #
point $-1 46.915494247260966 -16.668745090214362 10.528009207646253 #
edge $-1 $605 -46.915494247260966 $541 46.915494247260966 $536 $641 forward 7 unknown #
straight-curve $-1 -46.915494247260966 -24.326987412870029 0 0 0 -1 I I #
straight-curve $-1 46.915494247260966 0 10.528009207646253 0 1 0 I I #
point $-1 46.915494247260966 -24.326987412870029 10.528009207646253 #
edge $-1 $556 -46.915494247260966 $616 46.915494247260966 $553 $642 forward 7 unknown #
straight-curve $-1 46.915494247260966 0 10.528009207646253 0 1 0 I I #
vertex $-1 $614 $643 #
straight-curve $-1 -46.915494247260966 0 10.528009207646253 0 -1 0 I I #
point $-1 46.915494247260966 16.668745090214362 10.528009207646253 #
straight-curve $-1 -46.915494247260966 24.326987412870029 0 0 0 -1 I I #
point $-1 46.915494247260966 24.326987412870029 10.528009207646253 #
edge $-1 $568 55.234345204730857 $562 64.918735838492495 $566 $644 forward 7 unknown #
straight-curve $-1 46.915494247260973 -6.6045277403853841 0.84361857388461203 0 1 0 I I #
point $-1 46.915494247260966 -16.668745090214362 0.84361857388461203 #
straight-curve $-1 0 -16.668745090214362 10.528009207646253 1 0 0 I I #
point $-1 46.915494247260966 -16.668745090214362 10.528009207646253 #
point $-1 39.139758124408381 -14.691779599103736 4.4570858320960491 #
point $-1 39.139758124408381 -11.726331362437799 4.4570858320960491 #
straight-curve $-1 46.915494247260966 -5.5562483634047872 65.762354412377107 0 0 -1 I I #
point $-1 46.915494247260966 -5.5562483634047872 10.528009207646253 #
straight-curve $-1 46.915494247260973 -1.0482793769805969 0.84361857388461203 0 1 0 I I #
point $-1 46.915494247260966 -5.5562483634047872 0.84361857388461203 #
point $-1 39.139758124408381 -3.5792828722941614 4.4570858320960491 #
point $-1 39.139758124408381 -0.61383463562822627 4.4570858320960491 #
straight-curve $-1 46.915494247260966 5.5562483634047872 65.762354412377107 0 0 -1 I I #
point $-1 46.915494247260966 5.5562483634047872 10.528009207646253 #
straight-curve $-1 46.915494247260973 4.5079689864241903 0.84361857388461203 0 1 0 I I #
point $-1 46.915494247260966 5.5562483634047872 0.84361857388461203 #
point $-1 39.139758124408381 7.533213854515413 4.4570858320960491 #
point $-1 39.139758124408381 10.498662091181348 4.4570858320960491 #
point $-1 -46.915494247260966 -24.326987412870029 10.528009207646253 #
straight-curve $-1 0 -24.326987412870029 10.528009207646253 1 0 0 I I #
straight-curve $-1 0 24.326987412870029 10.528009207646253 -1 0 0 I I #
point $-1 -46.915494247260966 24.326987412870029 10.528009207646253 #
straight-curve $-1 46.915494247260966 -16.668745090214362 65.762354412377107 0 0 -1 I I #
End-of-ACIS-data 