500 0 6 0           
7 Unknown 11 ACIS 5.0 NT 24 Thu Mar 25 20:34:32 1999 
-1 9.9999999999999995e-007 1e-010 
body $-1 $6 $-1 $7 #
body $-1 $8 $-1 $9 #
body $-1 $10 $-1 $11 #
body $-1 $12 $-1 $13 #
body $-1 $14 $-1 $15 #
body $-1 $16 $-1 $17 #
lump $-1 $-1 $18 $0 #
transform $-1 1 0 0 0 1 0 0 0 1 55.273903622547074 25.54826052231093 8.3548979294068726 1 rotate no_reflect no_shear #
lump $-1 $-1 $19 $1 #
transform $-1 1 0 0 0 1 0 0 0 1 55.273903622547074 25.54826052231093 8.3548979294068726 1 rotate no_reflect no_shear #
lump $-1 $-1 $20 $2 #
transform $-1 1 0 0 0 1 0 0 0 1 55.273903622547074 25.54826052231093 8.3548979294068726 1 rotate no_reflect no_shear #
lump $-1 $-1 $21 $3 #
transform $-1 1 0 0 0 1 0 0 0 1 55.273903622547074 25.54826052231093 8.3548979294068726 1 rotate no_reflect no_shear #
lump $-1 $-1 $22 $4 #
transform $-1 1 0 0 0 1 0 0 0 1 55.273903622547074 25.54826052231093 8.3548979294068726 1 rotate no_reflect no_shear #
lump $-1 $-1 $23 $5 #
transform $-1 1 0 0 0 1 0 0 0 1 55.273903622547074 25.54826052231093 8.3548979294068726 1 rotate no_reflect no_shear #
shell $-1 $-1 $-1 $24 $-1 $6 #
shell $-1 $-1 $-1 $25 $-1 $8 #
shell $-1 $-1 $-1 $26 $-1 $10 #
shell $-1 $-1 $-1 $27 $-1 $12 #
shell $-1 $-1 $-1 $28 $-1 $14 #
shell $-1 $-1 $-1 $29 $-1 $16 #
face $-1 $30 $31 $18 $-1 $32 reversed single #
face $-1 $33 $34 $19 $-1 $35 forward single #
face $-1 $36 $37 $20 $-1 $38 reversed single #
face $-1 $39 $40 $21 $-1 $41 forward single #
face $-1 $42 $43 $22 $-1 $44 reversed single #
face $-1 $45 $46 $23 $-1 $47 forward single #
face $-1 $48 $49 $18 $-1 $50 forward single #
loop $-1 $-1 $51 $24 #
plane-surface $-1 0 -25.54826052231093 0 0 1 0 0 0 1 forward_v I I I I #
face $-1 $52 $53 $19 $-1 $54 forward single #
loop $-1 $-1 $55 $25 #
plane-surface $-1 0 -25.54826052231093 0 0 1 0 0 0 1 forward_v I I I I #
face $-1 $56 $57 $20 $-1 $58 reversed single #
loop $-1 $-1 $59 $26 #
plane-surface $-1 -150.03187002349063 -14.845428976788011 57.018366986167848 0 1 0 -0.85716730853699208 0 0.51503806187062418 forward_v I I I I #
face $-1 $60 $61 $21 $-1 $62 forward single #
loop $-1 $63 $64 $27 #
cone-surface $-1 -51.785204998313844 -9.8795948153640474 3.6156362297074951 0.85716730853699208 0 -0.51503806187062418 0.51503806187062418 0 0.85716730853699208 1 I I 0 1 1 forward I I I I #
face $-1 $65 $66 $22 $-1 $67 reversed single #
loop $-1 $-1 $68 $28 #
plane-surface $-1 93.095541635930005 -4.9137606539400842 151.77633338711141 0 -1 0 -0.85716730853699208 0 -0.51503806187062418 forward_v I I I I #
face $-1 $69 $70 $23 $-1 $71 forward single #
loop $-1 $72 $73 $29 #
cone-surface $-1 51.785204998313837 -9.8795948153640474 3.6156362297074809 -0.85716730853699208 0 -0.51503806187062418 0.51503806187062418 0 -0.85716730853699208 1 I I 0 1 1 forward I I I I #
face $-1 $74 $75 $18 $-1 $76 reversed single #
loop $-1 $-1 $77 $30 #
plane-surface $-1 0 0 8.3548979294068726 0 0 1 1 0 0 forward_v I I I I #
coedge $-1 $78 $79 $80 $81 reversed $31 $-1 #
face $-1 $82 $83 $19 $-1 $84 reversed single #
loop $-1 $-1 $85 $33 #
plane-surface $-1 0 0 8.3548979294068726 0 0 1 1 0 0 forward_v I I I I #
coedge $-1 $86 $87 $88 $89 forward $34 $-1 #
face $-1 $90 $91 $20 $-1 $92 reversed single #
loop $-1 $-1 $93 $36 #
plane-surface $-1 -55.273903622547081 -9.8795948153640474 0.082038598607212521 -0.85716730853699208 0 0.51503806187062418 0.51503806187062418 0 0.85716730853699208 forward_v I I I I #
coedge $-1 $94 $95 $96 $97 reversed $37 $-1 #
face $-1 $-1 $98 $21 $-1 $99 forward single #
loop $-1 $100 $101 $39 #
cone-surface $-1 -50.353340323486094 -9.8795948153640474 2.7552851644726406 0.85716730853699208 0 -0.51503806187062418 0.25751903093531209 0 0.42858365426849604 1 I I -0.70710678118654746 0.70710678118654746 0.5 forward I I I I #
loop $-1 $-1 $102 $27 #
coedge $-1 $64 $64 $103 $104 reversed $40 $-1 #
face $-1 $105 $106 $22 $-1 $107 reversed single #
loop $-1 $-1 $108 $42 #
plane-surface $-1 -1.6624247650135402 -9.8795948153640474 94.840004999550771 0.85716730853699208 0 0.51503806187062418 0.51503806187062418 0 -0.85716730853699208 forward_v I I I I #
coedge $-1 $109 $110 $111 $112 reversed $43 $-1 #
face $-1 $-1 $113 $23 $-1 $114 forward single #
loop $-1 $115 $116 $45 #
cone-surface $-1 50.353340323486087 -9.8795948153640474 2.7552851644726264 -0.85716730853699208 0 -0.51503806187062418 0.25751903093531209 0 -0.42858365426849604 1 I I -0.70710678118654746 0.70710678118654746 0.5 forward I I I I #
loop $-1 $-1 $117 $29 #
coedge $-1 $73 $73 $118 $119 reversed $46 $-1 #
face $-1 $120 $121 $18 $-1 $122 reversed single #
loop $-1 $-1 $123 $48 #
plane-surface $-1 0 0 -8.3548979294068726 0 0 1 1 0 0 forward_v I I I I #
coedge $-1 $124 $125 $126 $127 forward $49 $-1 #
coedge $-1 $128 $51 $129 $130 reversed $31 $-1 #
coedge $-1 $51 $128 $131 $132 forward $31 $-1 #
coedge $-1 $133 $123 $51 $81 forward $75 $-1 #
edge $-1 $134 -55.273903622547074 $135 55.273903622547074 $51 $136 forward 7 unknown #
face $-1 $137 $138 $19 $-1 $139 reversed single #
loop $-1 $-1 $140 $52 #
plane-surface $-1 -55.273903622547074 0 0 1 0 0 0 0 -1 forward_v I I I I #
coedge $-1 $141 $142 $87 $143 forward $53 $-1 #
coedge $-1 $144 $55 $145 $146 reversed $34 $-1 #
coedge $-1 $55 $144 $85 $143 reversed $34 $-1 #
coedge $-1 $147 $148 $55 $89 reversed $149 $-1 #
edge $-1 $150 -8.3548979294068726 $151 8.3548979294068726 $88 $152 forward 7 unknown #
face $-1 $153 $154 $20 $-1 $155 reversed single #
loop $-1 $-1 $156 $56 #
plane-surface $-1 -150.03187002349063 -4.9137606539400842 57.018366986167848 0 -1 0 0.85716730853699208 0 -0.51503806187062418 forward_v I I I I #
coedge $-1 $157 $158 $159 $160 reversed $57 $-1 #
coedge $-1 $95 $59 $161 $162 reversed $37 $-1 #
coedge $-1 $59 $94 $157 $163 reversed $37 $-1 #
coedge $-1 $159 $164 $59 $97 forward $165 $-1 #
edge $-1 $166 19.742031389198239 $167 24.712866596546185 $96 $168 forward 7 unknown #
loop $-1 $-1 $103 $60 #
plane-surface $-1 -55.273903622547081 -9.8795948153640474 0.082038598607212521 -0.85716730853699208 0 0.51503806187062418 0.51503806187062418 0 0.85716730853699208 forward_v I I I I #
loop $-1 $-1 $169 $39 #
coedge $-1 $101 $101 $102 $170 reversed $61 $-1 #
coedge $-1 $102 $102 $101 $170 forward $63 $-1 #
coedge $-1 $103 $103 $64 $104 forward $98 $-1 #
edge $-1 $171 0 $171 6.2831853071796004 $103 $172 forward 7 unknown #
face $-1 $173 $174 $22 $-1 $175 forward single #
loop $-1 $-1 $176 $65 #
plane-surface $-1 93.095541635930005 -14.845428976788011 151.77633338711141 0 1 0 0.85716730853699208 0 0.51503806187062418 forward_v I I I I #
coedge $-1 $177 $178 $179 $180 reversed $66 $-1 #
coedge $-1 $110 $68 $181 $182 reversed $43 $-1 #
coedge $-1 $68 $109 $177 $183 reversed $43 $-1 #
coedge $-1 $179 $184 $68 $112 forward $174 $-1 #
edge $-1 $185 -8.7261328045820719 $186 -3.7552975972341471 $111 $187 forward 7 unknown #
loop $-1 $-1 $118 $69 #
plane-surface $-1 -1.6624247650135402 -9.8795948153640474 94.840004999550771 0.85716730853699208 0 0.51503806187062418 0.51503806187062418 0 -0.85716730853699208 forward_v I I I I #
loop $-1 $-1 $188 $45 #
coedge $-1 $116 $116 $117 $189 reversed $70 $-1 #
coedge $-1 $117 $117 $116 $189 forward $72 $-1 #
coedge $-1 $118 $118 $73 $119 forward $113 $-1 #
edge $-1 $190 0 $190 6.2831853071796004 $118 $191 forward 7 unknown #
face $-1 $192 $193 $18 $-1 $194 reversed single #
loop $-1 $-1 $195 $74 #
plane-surface $-1 -55.273903622547074 0 0 1 0 0 0 0 -1 forward_v I I I I #
coedge $-1 $80 $196 $197 $198 forward $75 $-1 #
coedge $-1 $199 $77 $200 $201 forward $49 $-1 #
coedge $-1 $77 $199 $128 $202 forward $49 $-1 #
coedge $-1 $129 $203 $77 $127 reversed $204 $-1 #
edge $-1 $205 -25.54826052231093 $206 25.54826052231093 $126 $207 forward 7 unknown #
coedge $-1 $79 $78 $125 $202 reversed $31 $-1 #
coedge $-1 $197 $126 $78 $130 forward $204 $-1 #
edge $-1 $205 -8.3548979294068726 $134 8.3548979294068726 $129 $208 forward 7 unknown #
coedge $-1 $209 $210 $79 $132 reversed $121 $-1 #
edge $-1 $211 -8.3548979294068726 $135 8.3548979294068726 $131 $212 forward 7 unknown #
coedge $-1 $196 $80 $210 $213 forward $75 $-1 #
vertex $-1 $130 $214 #
vertex $-1 $213 $215 #
straight-curve $-1 0 -25.54826052231093 -8.3548979294068726 -1 0 0 I I #
face $-1 $216 $149 $19 $-1 $217 reversed single #
loop $-1 $-1 $218 $82 #
plane-surface $-1 -52.899105415658532 -36.251092067833852 0 0 1 0 0 0 1 forward_v I I I I #
coedge $-1 $219 $220 $144 $221 forward $83 $-1 #
coedge $-1 $222 $85 $220 $223 forward $53 $-1 #
coedge $-1 $85 $222 $147 $224 forward $53 $-1 #
edge $-1 $150 50.52430720876999 $225 55.273903622547074 $85 $226 forward 7 unknown #
coedge $-1 $87 $86 $140 $221 reversed $34 $-1 #
coedge $-1 $227 $228 $86 $146 forward $229 $-1 #
edge $-1 $230 -55.273903622547074 $151 -50.52430720876999 $145 $231 forward 7 unknown #
coedge $-1 $232 $88 $142 $224 reversed $149 $-1 #
coedge $-1 $88 $232 $227 $233 reversed $149 $-1 #
loop $-1 $-1 $232 $137 #
vertex $-1 $143 $234 #
vertex $-1 $233 $235 #
straight-curve $-1 -50.52430720876999 -25.54826052231093 0 0 0 -1 I I #
face $-1 $-1 $165 $20 $-1 $236 forward single #
loop $-1 $-1 $237 $90 #
plane-surface $-1 -55.273903622547074 0 0 1 0 0 0 0 -1 forward_v I I I I #
coedge $-1 $238 $239 $240 $241 reversed $91 $-1 #
coedge $-1 $242 $93 $95 $163 forward $57 $-1 #
coedge $-1 $93 $242 $238 $243 forward $57 $-1 #
coedge $-1 $240 $96 $93 $160 forward $165 $-1 #
edge $-1 $167 -9.9056315691059869 $244 0.026036753741939478 $159 $245 forward 7 unknown #
coedge $-1 $246 $247 $94 $162 forward $154 $-1 #
edge $-1 $248 -28.427144894476701 $166 -20.15428556367705 $161 $249 forward 7 unknown #
edge $-1 $167 -9.6513938975574423 $248 -1.379460482718971e-014 $95 $250 forward 7 unknown #
coedge $-1 $96 $240 $246 $251 forward $165 $-1 #
loop $-1 $-1 $240 $153 #
vertex $-1 $162 $252 #
vertex $-1 $97 $253 #
straight-curve $-1 -75.015935011745313 -14.845428976788011 8.3548979294068744 1 0 0 I I #
coedge $-1 $169 $169 $-1 $254 reversed $100 $-1 #
edge $-1 $255 0 $255 6.2831853071796004 $101 $256 forward 7 unknown #
vertex $-1 $104 $257 #
ellipse-curve $-1 -52.788486018873101 -9.8795948153640474 4.2184682640070426 -0.85716730853699208 0 0.51503806187062418 0.51503806187062418 0 0.85716730853699208 1 I I #
face $-1 $-1 $258 $22 $-1 $259 reversed single #
loop $-1 $-1 $111 $105 #
plane-surface $-1 0 0 8.3548979294068726 0 0 1 1 0 0 forward_v I I I I #
coedge $-1 $260 $261 $262 $263 reversed $106 $-1 #
coedge $-1 $264 $108 $110 $183 forward $66 $-1 #
coedge $-1 $108 $264 $260 $265 forward $66 $-1 #
coedge $-1 $262 $111 $108 $180 forward $174 $-1 #
edge $-1 $186 -0.026036753741939478 $266 9.9056315691059869 $179 $267 forward 7 unknown #
coedge $-1 $268 $269 $109 $182 forward $258 $-1 #
edge $-1 $270 -75.806128094948434 $185 -67.533268764148829 $181 $271 forward 7 unknown #
edge $-1 $186 100.89641334753675 $270 110.54780724509412 $110 $272 forward 7 unknown #
coedge $-1 $111 $262 $268 $273 forward $174 $-1 #
vertex $-1 $112 $274 #
vertex $-1 $112 $275 #
straight-curve $-1 46.547770817965002 -4.9137606539400842 8.3548979294068744 -1 0 0 I I #
coedge $-1 $188 $188 $-1 $276 reversed $115 $-1 #
edge $-1 $277 0 $277 6.2831853071796004 $116 $278 forward 7 unknown #
vertex $-1 $119 $279 #
ellipse-curve $-1 52.78848601887313 -9.8795948153640474 4.218468264007047 0.85716730853699208 0 0.51503806187062418 0.51503806187062418 0 -0.85716730853699208 1 I I #
face $-1 $-1 $204 $18 $-1 $280 reversed single #
loop $-1 $-1 $281 $120 #
plane-surface $-1 0 25.54826052231093 0 0 -1 0 0 0 -1 forward_v I I I I #
coedge $-1 $210 $209 $282 $283 forward $121 $-1 #
coedge $-1 $123 $133 $284 $285 forward $75 $-1 #
coedge $-1 $203 $129 $123 $198 reversed $204 $-1 #
edge $-1 $286 -25.54826052231093 $134 25.54826052231093 $197 $287 forward 7 unknown #
coedge $-1 $125 $124 $209 $288 forward $49 $-1 #
coedge $-1 $281 $282 $124 $201 reversed $193 $-1 #
edge $-1 $206 -55.273903622547074 $289 55.273903622547074 $200 $290 forward 7 unknown #
edge $-1 $211 -55.273903622547074 $205 55.273903622547074 $128 $291 forward 7 unknown #
coedge $-1 $126 $197 $281 $292 reversed $204 $-1 #
loop $-1 $-1 $129 $192 #
vertex $-1 $127 $293 #
vertex $-1 $127 $294 #
straight-curve $-1 55.273903622547074 0 8.3548979294068726 0 1 0 I I #
straight-curve $-1 55.273903622547074 -25.54826052231093 0 0 0 -1 I I #
coedge $-1 $195 $131 $199 $288 reversed $121 $-1 #
coedge $-1 $131 $195 $133 $213 reversed $121 $-1 #
vertex $-1 $288 $295 #
straight-curve $-1 -55.273903622547074 -25.54826052231093 0 0 0 -1 I I #
edge $-1 $135 -25.54826052231093 $296 25.54826052231093 $210 $297 forward 7 unknown #
point $-1 55.273903622547074 -25.54826052231093 -8.3548979294068726 #
point $-1 -55.273903622547074 -25.54826052231093 -8.3548979294068726 #
face $-1 $-1 $229 $19 $-1 $298 reversed single #
plane-surface $-1 -50.52430720876999 -30.899676295072389 0 -1 0 0 0 0 1 forward_v I I I I #
coedge $-1 $299 $300 $301 $302 forward $138 $-1 #
coedge $-1 $301 $140 $228 $303 reversed $83 $-1 #
coedge $-1 $140 $301 $141 $223 reversed $83 $-1 #
edge $-1 $225 -8.3548979294068726 $230 8.3548979294068726 $140 $304 forward 7 unknown #
coedge $-1 $142 $141 $300 $305 forward $53 $-1 #
edge $-1 $225 25.54826052231093 $306 36.251092067833852 $220 $307 forward 7 unknown #
edge $-1 $308 -5.3514157727614631 $150 5.3514157727614595 $147 $309 forward 7 unknown #
vertex $-1 $223 $310 #
straight-curve $-1 0 -25.54826052231093 8.3548979294068726 -1 0 0 I I #
coedge $-1 $311 $145 $148 $233 forward $229 $-1 #
coedge $-1 $145 $311 $219 $303 forward $229 $-1 #
loop $-1 $-1 $145 $216 #
vertex $-1 $221 $312 #
straight-curve $-1 0 -25.54826052231093 -8.3548979294068726 1 0 0 I I #
coedge $-1 $148 $147 $313 $314 forward $149 $-1 #
edge $-1 $151 -5.3514157727614595 $315 5.3514157727614631 $148 $316 forward 7 unknown #
point $-1 -50.52430720876999 -25.54826052231093 8.3548979294068726 #
point $-1 -50.52430720876999 -25.54826052231093 -8.3548979294068726 #
plane-surface $-1 0 0 8.3548979294068726 0 0 1 1 0 0 forward_v I I I I #
coedge $-1 $247 $246 $239 $317 forward $154 $-1 #
coedge $-1 $239 $156 $158 $243 reversed $91 $-1 #
coedge $-1 $156 $238 $237 $317 reversed $91 $-1 #
coedge $-1 $164 $159 $156 $241 forward $165 $-1 #
edge $-1 $244 -24.712866596546185 $318 -19.742031389198239 $240 $319 forward 7 unknown #
coedge $-1 $158 $157 $247 $320 reversed $57 $-1 #
edge $-1 $321 1.379460482718971e-014 $244 9.6513938975574423 $238 $322 forward 7 unknown #
vertex $-1 $160 $323 #
straight-curve $-1 -50.303068415199128 -4.9397974076820237 8.3548979294068726 0 1 0 I I #
coedge $-1 $237 $161 $164 $251 reversed $154 $-1 #
coedge $-1 $161 $237 $242 $320 forward $154 $-1 #
vertex $-1 $162 $324 #
straight-curve $-1 -55.273903622547074 -14.845428976788011 28.509183493083924 0 0 1 I I #
straight-curve $-1 -55.273903622547081 -14.845428976788011 0.082038598607212521 -0.51503806187062418 0 -0.85716730853699208 I I #
edge $-1 $318 4.9137606539400842 $166 14.845428976788011 $246 $325 forward 7 unknown #
point $-1 -55.273903622547074 -14.845428976788011 8.3548979294068726 #
point $-1 -50.303068415199128 -14.845428976788011 8.3548979294068726 #
edge $-1 $326 1 $326 0 $169 $-1 forward 7 unknown #
vertex $-1 $170 $327 #
ellipse-curve $-1 -50.781923977754587 -9.8795948153640474 3.0128041954079525 -0.85716730853699208 0 0.51503806187062418 0.51503806187062418 0 0.85716730853699208 1 I I #
point $-1 -52.273447957002467 -9.8795948153640474 5.0756355725440301 #
loop $-1 $-1 $181 $173 #
plane-surface $-1 55.273903622547074 0 0 -1 0 0 0 0 1 forward_v I I I I #
coedge $-1 $261 $176 $178 $265 reversed $106 $-1 #
coedge $-1 $176 $260 $328 $329 reversed $106 $-1 #
coedge $-1 $184 $179 $176 $263 forward $174 $-1 #
edge $-1 $266 3.7552975972341471 $330 8.7261328045820719 $262 $331 forward 7 unknown #
coedge $-1 $178 $177 $269 $332 reversed $66 $-1 #
edge $-1 $333 -110.54780724509412 $266 -100.89641334753675 $260 $334 forward 7 unknown #
vertex $-1 $180 $335 #
straight-curve $-1 50.303068415199149 -4.9397974076820237 8.3548979294068744 0 -1 0 I I #
coedge $-1 $328 $181 $184 $273 reversed $258 $-1 #
coedge $-1 $181 $328 $264 $332 forward $258 $-1 #
vertex $-1 $182 $336 #
straight-curve $-1 55.273903622547074 -4.9137606539400842 75.888166693555704 0 0 1 I I #
straight-curve $-1 -1.6624247650135402 -4.9137606539400842 94.840004999550771 0.51503806187062418 0 -0.85716730853699208 I I #
edge $-1 $330 -14.845428976788011 $185 -4.9137606539400842 $268 $337 forward 7 unknown #
point $-1 55.273903622547074 -4.9137606539400842 8.3548979294068726 #
point $-1 50.303068415199149 -4.9137606539400842 8.3548979294068744 #
edge $-1 $338 1 $338 0 $188 $-1 forward 7 unknown #
vertex $-1 $189 $339 #
ellipse-curve $-1 50.78192397775458 -9.8795948153640474 3.0128041954079383 0.85716730853699208 0 0.51503806187062418 0.51503806187062418 0 -0.85716730853699208 1 I I #
point $-1 53.303524080743713 -9.8795948153640474 3.3613009554700315 #
plane-surface $-1 55.273903622547074 0 0 -1 0 0 0 0 1 forward_v I I I I #
coedge $-1 $284 $200 $203 $292 forward $193 $-1 #
coedge $-1 $200 $284 $195 $283 reversed $193 $-1 #
edge $-1 $289 -8.3548979294068726 $296 8.3548979294068726 $282 $340 forward 7 unknown #
coedge $-1 $282 $281 $196 $285 reversed $193 $-1 #
edge $-1 $296 -55.273903622547074 $286 55.273903622547074 $284 $341 forward 7 unknown #
vertex $-1 $198 $342 #
straight-curve $-1 55.273903622547074 0 -8.3548979294068726 0 -1 0 I I #
edge $-1 $289 -25.54826052231093 $211 25.54826052231093 $209 $343 forward 7 unknown #
vertex $-1 $201 $344 #
straight-curve $-1 0 25.54826052231093 8.3548979294068726 -1 0 0 I I #
straight-curve $-1 0 -25.54826052231093 8.3548979294068726 1 0 0 I I #
edge $-1 $206 -8.3548979294068726 $286 8.3548979294068726 $203 $345 forward 7 unknown #
point $-1 55.273903622547074 -25.54826052231093 8.3548979294068726 #
point $-1 55.273903622547074 25.54826052231093 8.3548979294068726 #
point $-1 -55.273903622547074 -25.54826052231093 8.3548979294068726 #
vertex $-1 $285 $346 #
straight-curve $-1 -55.273903622547074 0 -8.3548979294068726 0 1 0 I I #
plane-surface $-1 0 0 -8.3548979294068726 0 0 1 1 0 0 forward_v I I I I #
coedge $-1 $313 $218 $311 $347 reversed $138 $-1 #
coedge $-1 $218 $313 $222 $305 reversed $138 $-1 #
coedge $-1 $220 $219 $218 $302 reversed $83 $-1 #
edge $-1 $306 -8.3548979294068726 $348 8.3548979294068726 $301 $349 forward 7 unknown #
edge $-1 $348 -36.251092067833852 $230 -25.54826052231093 $219 $350 forward 7 unknown #
straight-curve $-1 -55.273903622547074 -25.54826052231093 0 0 0 -1 I I #
edge $-1 $306 -2.374798206888542 $308 2.374798206888542 $300 $351 forward 7 unknown #
vertex $-1 $223 $352 #
straight-curve $-1 -55.273903622547074 0 8.3548979294068726 0 -1 0 I I #
vertex $-1 $224 $353 #
straight-curve $-1 -50.52430720876999 -30.899676295072389 8.3548979294068726 0 1 0 I I #
point $-1 -55.273903622547074 -25.54826052231093 8.3548979294068726 #
coedge $-1 $228 $227 $299 $347 forward $229 $-1 #
point $-1 -55.273903622547074 -25.54826052231093 -8.3548979294068726 #
coedge $-1 $300 $299 $232 $314 reversed $138 $-1 #
edge $-1 $308 -8.3548979294068726 $315 8.3548979294068726 $232 $354 forward 7 unknown #
vertex $-1 $314 $355 #
straight-curve $-1 -50.52430720876999 -30.899676295072389 -8.3548979294068726 0 -1 0 I I #
edge $-1 $318 20.15428556367705 $321 28.427144894476701 $237 $356 forward 7 unknown #
vertex $-1 $251 $357 #
straight-curve $-1 -75.015935011745313 -4.9137606539400842 8.3548979294068744 -1 0 0 I I #
edge $-1 $321 -0.026036753741939478 $248 9.9056315691059869 $247 $358 forward 7 unknown #
vertex $-1 $320 $359 #
straight-curve $-1 -55.273903622547081 -4.9137606539400842 0.082038598607212521 0.51503806187062418 0 0.85716730853699208 I I #
point $-1 -50.303068415199128 -4.9137606539400842 8.3548979294068726 #
point $-1 -55.273903622547074 -14.845428976788011 0.082038598607224344 #
straight-curve $-1 -55.273903622547074 0 8.3548979294068726 0 -1 0 I I #
vertex $-1 $254 $360 #
point $-1 -50.266885915883968 -9.8795948153640474 3.8699715039449449 #
coedge $-1 $269 $268 $261 $329 forward $258 $-1 #
edge $-1 $330 67.533268764148829 $333 75.806128094948434 $328 $361 forward 7 unknown #
vertex $-1 $273 $362 #
straight-curve $-1 46.547770817965002 -14.845428976788011 8.3548979294068744 1 0 0 I I #
edge $-1 $333 -9.9056315691059869 $270 0.026036753741939478 $269 $363 forward 7 unknown #
vertex $-1 $332 $364 #
straight-curve $-1 -1.6624247650135402 -14.845428976788011 94.840004999550771 -0.51503806187062418 0 0.85716730853699208 I I #
point $-1 50.303068415199149 -14.845428976788011 8.3548979294068744 #
point $-1 55.273903622547074 -4.9137606539400842 0.082038598607269364 #
straight-curve $-1 55.273903622547074 0 8.3548979294068726 0 1 0 I I #
vertex $-1 $276 $365 #
point $-1 51.296962039625207 -9.8795948153640474 2.1556368868709463 #
straight-curve $-1 -55.273903622547074 25.54826052231093 0 0 0 -1 I I #
straight-curve $-1 0 25.54826052231093 -8.3548979294068726 1 0 0 I I #
point $-1 55.273903622547074 25.54826052231093 -8.3548979294068726 #
straight-curve $-1 -55.273903622547074 0 8.3548979294068726 0 -1 0 I I #
point $-1 -55.273903622547074 25.54826052231093 8.3548979294068726 #
straight-curve $-1 55.273903622547074 25.54826052231093 0 0 0 -1 I I #
point $-1 -55.273903622547074 25.54826052231093 -8.3548979294068726 #
edge $-1 $315 -2.374798206888542 $348 2.374798206888542 $299 $366 forward 7 unknown #
vertex $-1 $303 $367 #
straight-curve $-1 -55.273903622547074 -36.251092067833852 0 0 0 -1 I I #
straight-curve $-1 -55.273903622547074 0 -8.3548979294068726 0 1 0 I I #
straight-curve $-1 -52.899105415658532 -36.251092067833852 8.3548979294068726 1 0 0 I I #
point $-1 -55.273903622547074 -36.251092067833852 8.3548979294068726 #
point $-1 -50.52430720876999 -36.251092067833852 8.3548979294068726 #
straight-curve $-1 -50.52430720876999 -36.251092067833852 0 0 0 -1 I I #
point $-1 -50.52430720876999 -36.251092067833852 -8.3548979294068726 #
straight-curve $-1 -55.273903622547074 -4.9137606539400842 28.509183493083924 0 0 -1 I I #
point $-1 -55.273903622547074 -4.9137606539400842 8.3548979294068726 #
straight-curve $-1 -55.273903622547074 -4.9397974076820237 0.082038598607232088 0 -1 0 I I #
point $-1 -55.273903622547074 -4.9137606539400842 0.082038598607224344 #
point $-1 -49.924756669217601 -9.8795948153640474 2.4977661335373287 #
straight-curve $-1 55.273903622547074 -14.845428976788011 75.888166693555704 0 0 -1 I I #
point $-1 55.273903622547074 -14.845428976788011 8.3548979294068726 #
straight-curve $-1 55.273903622547074 -4.9397974076820237 0.082038598607269364 0 1 0 I I #
point $-1 55.273903622547074 -14.845428976788011 0.082038598607269364 #
point $-1 49.924756669217594 -9.8795948153640474 2.4977661335373145 #
straight-curve $-1 -52.899105415658532 -36.251092067833852 -8.3548979294068726 -1 0 0 I I #
point $-1 -55.273903622547074 -36.251092067833852 -8.3548979294068726 #
End-of-ACIS-data 