500 0 12 0           
7 Unknown 11 ACIS 5.0 NT 24 Fri Mar 26 17:16:00 1999 
-1 9.9999999999999995e-007 1e-010 
body $-1 $12 $-1 $13 #
body $-1 $14 $-1 $15 #
body $-1 $16 $-1 $17 #
body $-1 $18 $-1 $19 #
body $-1 $20 $-1 $21 #
body $-1 $22 $-1 $23 #
body $-1 $24 $-1 $25 #
body $-1 $26 $-1 $27 #
body $-1 $28 $-1 $29 #
body $-1 $30 $-1 $31 #
body $-1 $32 $-1 $33 #
body $-1 $34 $-1 $35 #
lump $-1 $-1 $36 $0 #
transform $-1 1 0 0 0 1 0 0 0 1 54.579302346873376 37.201107232423936 16.28892379242772 1 rotate no_reflect no_shear #
lump $-1 $-1 $37 $1 #
transform $-1 1 0 0 0 1 0 0 0 1 54.579302346873376 37.201107232423936 16.28892379242772 1 rotate no_reflect no_shear #
lump $-1 $-1 $38 $2 #
transform $-1 1 0 0 0 1 0 0 0 1 54.579302346873376 37.201107232423936 16.28892379242772 1 rotate no_reflect no_shear #
lump $-1 $-1 $39 $3 #
transform $-1 1 0 0 0 1 0 0 0 1 54.579302346873376 37.201107232423936 16.28892379242772 1 rotate no_reflect no_shear #
lump $-1 $-1 $40 $4 #
transform $-1 1 0 0 0 1 0 0 0 1 54.579302346873376 37.201107232423936 16.28892379242772 1 rotate no_reflect no_shear #
lump $-1 $-1 $41 $5 #
transform $-1 1 0 0 0 1 0 0 0 1 54.579302346873376 37.201107232423936 16.28892379242772 1 rotate no_reflect no_shear #
lump $-1 $-1 $42 $6 #
transform $-1 1 0 0 0 1 0 0 0 1 54.579302346873376 37.201107232423936 16.28892379242772 1 rotate no_reflect no_shear #
lump $-1 $-1 $43 $7 #
transform $-1 1 0 0 0 1 0 0 0 1 54.579302346873376 37.201107232423936 16.28892379242772 1 rotate no_reflect no_shear #
lump $-1 $-1 $44 $8 #
transform $-1 1 0 0 0 1 0 0 0 1 54.579302346873376 37.201107232423936 16.28892379242772 1 rotate no_reflect no_shear #
lump $-1 $-1 $45 $9 #
transform $-1 1 0 0 0 1 0 0 0 1 54.579302346873376 37.201107232423936 16.28892379242772 1 rotate no_reflect no_shear #
lump $-1 $-1 $46 $10 #
transform $-1 1 0 0 0 1 0 0 0 1 54.579302346873376 37.201107232423936 16.28892379242772 1 rotate no_reflect no_shear #
lump $-1 $-1 $47 $11 #
transform $-1 1 0 0 0 1 0 0 0 1 54.579302346873376 37.201107232423936 16.28892379242772 1 rotate no_reflect no_shear #
shell $-1 $-1 $-1 $48 $-1 $12 #
shell $-1 $-1 $-1 $49 $-1 $14 #
shell $-1 $-1 $-1 $50 $-1 $16 #
shell $-1 $-1 $-1 $51 $-1 $18 #
shell $-1 $-1 $-1 $52 $-1 $20 #
shell $-1 $-1 $-1 $53 $-1 $22 #
shell $-1 $-1 $-1 $54 $-1 $24 #
shell $-1 $-1 $-1 $55 $-1 $26 #
shell $-1 $-1 $-1 $56 $-1 $28 #
shell $-1 $-1 $-1 $57 $-1 $30 #
shell $-1 $-1 $-1 $58 $-1 $32 #
shell $-1 $-1 $-1 $59 $-1 $34 #
face $-1 $60 $61 $36 $-1 $62 forward single #
face $-1 $63 $64 $37 $-1 $65 reversed single #
face $-1 $66 $67 $38 $-1 $68 forward single #
face $-1 $69 $70 $39 $-1 $71 reversed single #
face $-1 $72 $73 $40 $-1 $74 forward single #
face $-1 $75 $76 $41 $-1 $77 reversed single #
face $-1 $78 $79 $42 $-1 $80 forward single #
face $-1 $81 $82 $43 $-1 $83 reversed single #
face $-1 $84 $85 $44 $-1 $86 forward single #
face $-1 $87 $88 $45 $-1 $89 reversed single #
face $-1 $90 $91 $46 $-1 $92 forward single #
face $-1 $93 $94 $47 $-1 $95 forward single #
face $-1 $96 $97 $36 $-1 $98 reversed single #
loop $-1 $-1 $99 $48 #
plane-surface $-1 0 0 16.28892379242772 0 0 1 1 0 0 forward_v I I I I #
face $-1 $100 $101 $37 $-1 $102 reversed single #
loop $-1 $-1 $103 $49 #
plane-surface $-1 -41.212395293941341 29.646800568822343 134.4774597840258 -1 0 0 0 0.51503808176128008 0.85716729658548041 forward_v I I I I #
face $-1 $104 $105 $38 $-1 $106 forward single #
loop $-1 $107 $108 $50 #
cone-surface $-1 -47.895848820407359 23.489693423007456 5.5913905594357036 0 -0.51503808176128008 -0.85716729658548041 2.5 0 0 1 I I 0 1 2.5 forward I I I I #
face $-1 $109 $110 $39 $-1 $111 reversed single #
loop $-1 $-1 $112 $51 #
plane-surface $-1 -13.92274412050465 29.646800568822343 134.4774597840258 -1 0 0 0 0.51503808176128008 0.85716729658548041 forward_v I I I I #
face $-1 $113 $114 $40 $-1 $115 forward single #
loop $-1 $116 $117 $52 #
cone-surface $-1 -20.606197646970671 23.489693423007456 5.5913905594357036 0 -0.51503808176128008 -0.85716729658548041 2.5 0 0 1 I I 0 1 2.5 forward I I I I #
face $-1 $118 $119 $41 $-1 $120 reversed single #
loop $-1 $-1 $121 $53 #
plane-surface $-1 13.366907052932032 29.646800568822343 134.4774597840258 -1 0 0 0 0.51503808176128008 0.85716729658548041 forward_v I I I I #
face $-1 $122 $123 $42 $-1 $124 forward single #
loop $-1 $125 $126 $54 #
cone-surface $-1 6.6834535264660104 23.489693423007456 5.5913905594357036 0 -0.51503808176128008 -0.85716729658548041 2.5 0 0 1 I I 0 1 2.5 forward I I I I #
face $-1 $127 $128 $43 $-1 $129 reversed single #
loop $-1 $-1 $130 $55 #
plane-surface $-1 40.656558226368709 29.646800568822343 134.4774597840258 -1 0 0 0 0.51503808176128008 0.85716729658548041 forward_v I I I I #
face $-1 $131 $132 $44 $-1 $133 forward single #
loop $-1 $134 $135 $56 #
cone-surface $-1 33.973104699902692 23.489693423007456 5.5913905594357036 0 -0.51503808176128008 -0.85716729658548041 2.5 0 0 1 I I 0 1 2.5 forward I I I I #
face $-1 $136 $137 $45 $-1 $138 reversed single #
loop $-1 $-1 $139 $57 #
plane-surface $-1 27.260842355482822 -107.36690668264356 94.189592681377434 -1 0 0 0 -0.64278761758704617 0.76604443648966558 forward_v I I I I #
face $-1 $140 $141 $46 $-1 $142 forward single #
loop $-1 $143 $144 $58 #
cone-surface $-1 8.0301029017324694 -31.381163159897056 10.554906929654621 0 0.64278761758704617 -0.76604443648966558 2 0 0 1 I I 0 1 2 forward I I I I #
face $-1 $145 $146 $47 $-1 $147 forward single #
loop $-1 $148 $149 $59 #
cone-surface $-1 19.568546573982687 -31.381163159897056 10.554906929654621 0 0.64278761758704617 -0.76604443648966558 2 0 0 1 I I 0 1 2 forward I I I I #
face $-1 $150 $151 $36 $-1 $152 reversed single #
loop $-1 $-1 $153 $60 #
plane-surface $-1 0 0 -16.28892379242772 0 0 1 1 0 0 forward_v I I I I #
coedge $-1 $154 $155 $156 $157 forward $61 $-1 #
face $-1 $158 $159 $37 $-1 $160 reversed single #
loop $-1 $-1 $161 $63 #
plane-surface $-1 -47.895848820407359 -26.574037800382847 40.910273699643767 0 0.51503808176128008 0.85716729658548041 1 0 0 forward_v I I I I #
coedge $-1 $162 $163 $164 $165 reversed $64 $-1 #
face $-1 $-1 $166 $38 $-1 $167 forward single #
loop $-1 $168 $169 $66 #
cone-surface $-1 -47.895848820407359 20.533651159558403 0.67171016048711607 0 -0.51503808176128008 -0.85716729658548041 1.25 0 0 1 I I -0.70710678118654746 0.70710678118654746 1.25 forward I I I I #
loop $-1 $-1 $170 $50 #
coedge $-1 $108 $108 $171 $172 reversed $67 $-1 #
face $-1 $173 $174 $39 $-1 $175 reversed single #
loop $-1 $-1 $176 $69 #
plane-surface $-1 -20.606197646970671 -26.574037800382847 40.910273699643767 0 0.51503808176128008 0.85716729658548041 1 0 0 forward_v I I I I #
coedge $-1 $177 $178 $179 $180 reversed $70 $-1 #
face $-1 $-1 $181 $40 $-1 $182 forward single #
loop $-1 $183 $184 $72 #
cone-surface $-1 -20.606197646970671 20.533651159558403 0.67171016048711607 0 -0.51503808176128008 -0.85716729658548041 1.25 0 0 1 I I -0.70710678118654746 0.70710678118654746 1.25 forward I I I I #
loop $-1 $-1 $185 $52 #
coedge $-1 $117 $117 $186 $187 reversed $73 $-1 #
face $-1 $188 $189 $41 $-1 $190 reversed single #
loop $-1 $-1 $191 $75 #
plane-surface $-1 6.6834535264660104 -26.574037800382847 40.910273699643767 0 0.51503808176128008 0.85716729658548041 1 0 0 forward_v I I I I #
coedge $-1 $192 $193 $194 $195 reversed $76 $-1 #
face $-1 $-1 $196 $42 $-1 $197 forward single #
loop $-1 $198 $199 $78 #
cone-surface $-1 6.6834535264660104 20.533651159558403 0.67171016048711607 0 -0.51503808176128008 -0.85716729658548041 1.25 0 0 1 I I -0.70710678118654746 0.70710678118654746 1.25 forward I I I I #
loop $-1 $-1 $200 $54 #
coedge $-1 $126 $126 $201 $202 reversed $79 $-1 #
face $-1 $203 $204 $43 $-1 $205 reversed single #
loop $-1 $-1 $206 $81 #
plane-surface $-1 33.973104699902692 -26.574037800382847 40.910273699643767 0 0.51503808176128008 0.85716729658548041 1 0 0 forward_v I I I I #
coedge $-1 $207 $208 $209 $210 reversed $82 $-1 #
face $-1 $-1 $211 $44 $-1 $212 forward single #
loop $-1 $213 $214 $84 #
cone-surface $-1 33.973104699902692 20.533651159558403 0.67171016048711607 0 -0.51503808176128008 -0.85716729658548041 1.25 0 0 1 I I -0.70710678118654746 0.70710678118654746 1.25 forward I I I I #
loop $-1 $-1 $215 $56 #
coedge $-1 $135 $135 $216 $217 reversed $85 $-1 #
face $-1 $218 $219 $45 $-1 $220 reversed single #
loop $-1 $-1 $221 $87 #
plane-surface $-1 13.799324737857575 -37.201107232423922 10.569250860758032 0 -0.64278761758704617 0.76604443648966558 1 0 0 forward_v I I I I #
coedge $-1 $222 $223 $224 $225 reversed $88 $-1 #
face $-1 $-1 $226 $46 $-1 $227 forward single #
loop $-1 $228 $229 $90 #
cone-surface $-1 8.0301029017324694 -28.326651780788691 6.9146820962266951 0 0.64278761758704617 -0.76604443648966558 1 0 0 1 I I -0.70710678118654746 0.70710678118654746 1 forward I I I I #
loop $-1 $-1 $230 $58 #
coedge $-1 $144 $144 $231 $232 reversed $91 $-1 #
face $-1 $-1 $233 $47 $-1 $234 forward single #
loop $-1 $235 $236 $93 #
cone-surface $-1 19.568546573982687 -28.326651780788691 6.9146820962266951 0 0.64278761758704617 -0.76604443648966558 1 0 0 1 I I -0.70710678118654746 0.70710678118654746 1 forward I I I I #
loop $-1 $-1 $237 $59 #
coedge $-1 $149 $149 $238 $239 reversed $94 $-1 #
face $-1 $240 $241 $36 $-1 $242 reversed single #
loop $-1 $-1 $243 $96 #
plane-surface $-1 0 -37.201107232423936 0 0 1 0 0 0 1 forward_v I I I I #
coedge $-1 $244 $245 $246 $247 forward $97 $-1 #
coedge $-1 $248 $99 $249 $250 forward $61 $-1 #
coedge $-1 $99 $248 $251 $252 forward $61 $-1 #
coedge $-1 $253 $254 $99 $157 reversed $255 $-1 #
edge $-1 $256 -37.201107232423936 $257 37.201107232423936 $156 $258 forward 7 unknown #
face $-1 $259 $260 $37 $-1 $261 forward single #
loop $-1 $-1 $164 $100 #
plane-surface $-1 0 37.201107232423936 0 0 -1 0 0 0 -1 forward_v I I I I #
coedge $-1 $262 $263 $264 $265 reversed $101 $-1 #
coedge $-1 $163 $103 $266 $267 reversed $64 $-1 #
coedge $-1 $103 $162 $262 $268 reversed $64 $-1 #
coedge $-1 $264 $269 $103 $165 forward $159 $-1 #
edge $-1 $270 50.949806099585174 $271 64.648430009135751 $164 $272 forward 7 unknown #
loop $-1 $-1 $171 $104 #
plane-surface $-1 -47.895848820407359 -26.574037800382847 40.910273699643767 0 0.51503808176128008 0.85716729658548041 1 0 0 forward_v I I I I #
loop $-1 $-1 $273 $66 #
coedge $-1 $169 $169 $170 $274 reversed $105 $-1 #
coedge $-1 $170 $170 $169 $274 forward $107 $-1 #
coedge $-1 $171 $171 $108 $172 forward $166 $-1 #
edge $-1 $275 6.0643314550327531e-016 $275 6.2831853071796013 $171 $276 forward 7 unknown #
face $-1 $277 $278 $39 $-1 $279 forward single #
loop $-1 $-1 $280 $109 #
plane-surface $-1 -27.289651173436692 29.646800568822343 134.4774597840258 1 0 0 0 -0.51503808176128008 -0.85716729658548041 forward_v I I I I #
coedge $-1 $281 $282 $283 $284 reversed $110 $-1 #
coedge $-1 $178 $112 $285 $286 reversed $70 $-1 #
coedge $-1 $112 $177 $281 $287 reversed $70 $-1 #
coedge $-1 $283 $288 $112 $180 forward $289 $-1 #
edge $-1 $290 50.949806099585174 $291 64.648430009135751 $179 $292 forward 7 unknown #
loop $-1 $-1 $186 $113 #
plane-surface $-1 -20.606197646970671 -26.574037800382847 40.910273699643767 0 0.51503808176128008 0.85716729658548041 1 0 0 forward_v I I I I #
loop $-1 $-1 $293 $72 #
coedge $-1 $184 $184 $185 $294 reversed $114 $-1 #
coedge $-1 $185 $185 $184 $294 forward $116 $-1 #
coedge $-1 $186 $186 $117 $187 forward $181 $-1 #
edge $-1 $295 6.0643314550327531e-016 $295 6.2831853071796013 $186 $296 forward 7 unknown #
face $-1 $297 $298 $41 $-1 $299 forward single #
loop $-1 $-1 $300 $118 #
plane-surface $-1 -9.7699626167013776e-015 29.646800568822343 134.4774597840258 1 0 0 0 -0.51503808176128008 -0.85716729658548041 forward_v I I I I #
coedge $-1 $301 $302 $303 $304 reversed $119 $-1 #
coedge $-1 $193 $121 $305 $306 reversed $76 $-1 #
coedge $-1 $121 $192 $301 $307 reversed $76 $-1 #
coedge $-1 $303 $308 $121 $195 forward $309 $-1 #
edge $-1 $310 50.949806099585174 $311 64.648430009135751 $194 $312 forward 7 unknown #
loop $-1 $-1 $201 $122 #
plane-surface $-1 6.6834535264660104 -26.574037800382847 40.910273699643767 0 0.51503808176128008 0.85716729658548041 1 0 0 forward_v I I I I #
loop $-1 $-1 $313 $78 #
coedge $-1 $199 $199 $200 $314 reversed $123 $-1 #
coedge $-1 $200 $200 $199 $314 forward $125 $-1 #
coedge $-1 $201 $201 $126 $202 forward $196 $-1 #
edge $-1 $315 6.0643314550327531e-016 $315 6.2831853071796013 $201 $316 forward 7 unknown #
face $-1 $317 $318 $43 $-1 $319 forward single #
loop $-1 $-1 $320 $127 #
plane-surface $-1 27.28965117343667 29.646800568822343 134.4774597840258 1 0 0 0 -0.51503808176128008 -0.85716729658548041 forward_v I I I I #
coedge $-1 $321 $322 $323 $324 reversed $128 $-1 #
coedge $-1 $208 $130 $325 $326 reversed $82 $-1 #
coedge $-1 $130 $207 $321 $327 reversed $82 $-1 #
coedge $-1 $323 $328 $130 $210 forward $329 $-1 #
edge $-1 $330 50.949806099585174 $331 64.648430009135751 $209 $332 forward 7 unknown #
loop $-1 $-1 $216 $131 #
plane-surface $-1 33.973104699902692 -26.574037800382847 40.910273699643767 0 0.51503808176128008 0.85716729658548041 1 0 0 forward_v I I I I #
loop $-1 $-1 $333 $84 #
coedge $-1 $214 $214 $215 $334 reversed $132 $-1 #
coedge $-1 $215 $215 $214 $334 forward $134 $-1 #
coedge $-1 $216 $216 $135 $217 forward $211 $-1 #
edge $-1 $335 6.0643314550327531e-016 $335 6.2831853071796013 $216 $336 forward 7 unknown #
face $-1 $337 $338 $45 $-1 $339 reversed single #
loop $-1 $-1 $340 $136 #
plane-surface $-1 0.33780712023232695 -107.36690668264356 94.189592681377434 1 0 0 0 0.64278761758704617 -0.76604443648966558 forward_v I I I I #
coedge $-1 $341 $342 $343 $344 reversed $137 $-1 #
coedge $-1 $223 $139 $345 $346 reversed $88 $-1 #
coedge $-1 $139 $222 $341 $347 reversed $88 $-1 #
coedge $-1 $343 $348 $139 $225 forward $349 $-1 #
edge $-1 $350 16.482346108897843 $351 23.298786730908994 $224 $352 forward 7 unknown #
loop $-1 $-1 $231 $140 #
plane-surface $-1 13.799324737857575 -37.201107232423922 10.569250860758032 0 -0.64278761758704617 0.76604443648966558 1 0 0 forward_v I I I I #
loop $-1 $-1 $353 $90 #
coedge $-1 $229 $229 $230 $354 reversed $141 $-1 #
coedge $-1 $230 $230 $229 $354 forward $143 $-1 #
coedge $-1 $231 $231 $144 $232 forward $226 $-1 #
edge $-1 $355 1.8457441750443118e-015 $355 6.2831853071796022 $231 $356 forward 7 unknown #
loop $-1 $-1 $238 $145 #
plane-surface $-1 13.799324737857575 -37.201107232423922 10.569250860758032 0 -0.64278761758704617 0.76604443648966558 1 0 0 forward_v I I I I #
loop $-1 $-1 $357 $93 #
coedge $-1 $236 $236 $237 $358 reversed $146 $-1 #
coedge $-1 $237 $237 $236 $358 forward $148 $-1 #
coedge $-1 $238 $238 $149 $239 forward $233 $-1 #
edge $-1 $359 1.8457441750443118e-015 $359 6.2831853071796022 $238 $360 forward 7 unknown #
face $-1 $361 $362 $36 $-1 $363 reversed single #
loop $-1 $-1 $364 $150 #
plane-surface $-1 -54.579302346873376 0 0 1 0 0 0 0 -1 forward_v I I I I #
coedge $-1 $365 $251 $366 $367 forward $151 $-1 #
coedge $-1 $368 $153 $365 $369 forward $97 $-1 #
coedge $-1 $153 $368 $370 $371 forward $97 $-1 #
coedge $-1 $254 $253 $153 $247 reversed $255 $-1 #
edge $-1 $372 -37.201107232423936 $373 37.201107232423936 $246 $374 forward 7 unknown #
coedge $-1 $155 $154 $375 $376 forward $61 $-1 #
coedge $-1 $377 $378 $154 $250 reversed $362 $-1 #
edge $-1 $257 -54.579302346873376 $379 54.579302346873376 $249 $380 forward 7 unknown #
coedge $-1 $243 $381 $155 $252 reversed $151 $-1 #
edge $-1 $382 -54.579302346873376 $256 54.579302346873376 $251 $383 forward 7 unknown #
coedge $-1 $246 $156 $381 $384 forward $255 $-1 #
coedge $-1 $156 $246 $377 $385 reversed $255 $-1 #
loop $-1 $-1 $253 $361 #
vertex $-1 $157 $386 #
vertex $-1 $157 $387 #
straight-curve $-1 54.579302346873376 0 16.28892379242772 0 1 0 I I #
face $-1 $-1 $388 $37 $-1 $389 reversed single #
loop $-1 $-1 $266 $158 #
plane-surface $-1 0 0 16.28892379242772 0 0 1 1 0 0 forward_v I I I I #
coedge $-1 $390 $161 $163 $268 forward $101 $-1 #
coedge $-1 $161 $390 $391 $392 reversed $101 $-1 #
coedge $-1 $393 $164 $161 $265 forward $159 $-1 #
edge $-1 $271 17.264470883737662 $394 30.631377936669697 $264 $395 forward 7 unknown #
coedge $-1 $396 $397 $162 $267 forward $260 $-1 #
edge $-1 $398 -0.42063134832530125 $270 22.377706948012765 $266 $399 forward 7 unknown #
edge $-1 $271 -74.402214464847873 $398 -47.804911479590416 $163 $400 forward 7 unknown #
coedge $-1 $164 $393 $396 $401 reversed $159 $-1 #
vertex $-1 $401 $402 #
vertex $-1 $165 $403 #
straight-curve $-1 -41.212395293941341 37.201107232423936 67.238729892012898 0 0 -1 I I #
coedge $-1 $273 $273 $-1 $404 reversed $168 $-1 #
edge $-1 $405 0 $405 6.2831853071796004 $169 $406 forward 7 unknown #
vertex $-1 $172 $407 #
ellipse-curve $-1 -47.895848820407359 25.801938084254903 9.4396118376524321 0 0.51503808176128008 0.85716729658548041 2.5 0 0 1 I I #
face $-1 $-1 $289 $39 $-1 $408 reversed single #
loop $-1 $-1 $409 $173 #
plane-surface $-1 0 0 16.28892379242772 0 0 1 1 0 0 forward_v I I I I #
coedge $-1 $410 $411 $412 $413 reversed $174 $-1 #
coedge $-1 $414 $176 $178 $287 forward $110 $-1 #
coedge $-1 $176 $414 $410 $415 forward $110 $-1 #
coedge $-1 $412 $179 $176 $284 forward $289 $-1 #
edge $-1 $291 3.6196452970193143 $416 16.986552349951356 $283 $417 forward 7 unknown #
coedge $-1 $418 $419 $177 $286 forward $278 $-1 #
edge $-1 $420 -0.42063134832530125 $290 22.377706948012765 $285 $421 forward 7 unknown #
edge $-1 $291 -74.402214464847873 $420 -47.804911479590416 $178 $422 forward 7 unknown #
coedge $-1 $179 $412 $418 $423 reversed $289 $-1 #
loop $-1 $-1 $412 $277 #
vertex $-1 $423 $424 #
vertex $-1 $180 $425 #
straight-curve $-1 -13.92274412050465 37.201107232423936 67.238729892012898 0 0 -1 I I #
coedge $-1 $293 $293 $-1 $426 reversed $183 $-1 #
edge $-1 $427 0 $427 6.2831853071796004 $184 $428 forward 7 unknown #
vertex $-1 $187 $429 #
ellipse-curve $-1 -20.606197646970671 25.801938084254903 9.4396118376524321 0 0.51503808176128008 0.85716729658548041 2.5 0 0 1 I I #
face $-1 $-1 $309 $41 $-1 $430 reversed single #
loop $-1 $-1 $431 $188 #
plane-surface $-1 0 0 16.28892379242772 0 0 1 1 0 0 forward_v I I I I #
coedge $-1 $432 $433 $434 $435 reversed $189 $-1 #
coedge $-1 $436 $191 $193 $307 forward $119 $-1 #
coedge $-1 $191 $436 $432 $437 forward $119 $-1 #
coedge $-1 $434 $194 $191 $304 forward $309 $-1 #
edge $-1 $311 -10.025180289699026 $438 3.341726763233015 $303 $439 forward 7 unknown #
coedge $-1 $440 $441 $192 $306 forward $298 $-1 #
edge $-1 $442 -0.42063134832530125 $310 22.377706948012765 $305 $443 forward 7 unknown #
edge $-1 $311 -74.402214464847873 $442 -47.804911479590416 $193 $444 forward 7 unknown #
coedge $-1 $194 $434 $440 $445 reversed $309 $-1 #
loop $-1 $-1 $434 $297 #
vertex $-1 $445 $446 #
vertex $-1 $195 $447 #
straight-curve $-1 13.366907052932032 37.201107232423936 67.238729892012898 0 0 -1 I I #
coedge $-1 $313 $313 $-1 $448 reversed $198 $-1 #
edge $-1 $449 0 $449 6.2831853071796004 $199 $450 forward 7 unknown #
vertex $-1 $202 $451 #
ellipse-curve $-1 6.6834535264660104 25.801938084254903 9.4396118376524321 0 0.51503808176128008 0.85716729658548041 2.5 0 0 1 I I #
face $-1 $-1 $329 $43 $-1 $452 reversed single #
loop $-1 $-1 $453 $203 #
plane-surface $-1 0 0 16.28892379242772 0 0 1 1 0 0 forward_v I I I I #
coedge $-1 $454 $455 $456 $457 reversed $204 $-1 #
coedge $-1 $458 $206 $208 $327 forward $128 $-1 #
coedge $-1 $206 $458 $454 $459 forward $128 $-1 #
coedge $-1 $456 $209 $206 $324 forward $329 $-1 #
edge $-1 $331 -23.670005876417363 $460 -10.303098823485325 $323 $461 forward 7 unknown #
coedge $-1 $462 $463 $207 $326 forward $318 $-1 #
edge $-1 $464 -0.42063134832530125 $330 22.377706948012765 $325 $465 forward 7 unknown #
edge $-1 $331 -74.402214464847873 $464 -47.804911479590416 $208 $466 forward 7 unknown #
coedge $-1 $209 $456 $462 $467 reversed $329 $-1 #
loop $-1 $-1 $456 $317 #
vertex $-1 $467 $468 #
vertex $-1 $210 $469 #
straight-curve $-1 40.656558226368709 37.201107232423936 67.238729892012898 0 0 -1 I I #
coedge $-1 $333 $333 $-1 $470 reversed $213 $-1 #
edge $-1 $471 0 $471 6.2831853071796004 $214 $472 forward 7 unknown #
vertex $-1 $217 $473 #
ellipse-curve $-1 33.973104699902692 25.801938084254903 9.4396118376524321 0 0.51503808176128008 0.85716729658548041 2.5 0 0 1 I I #
face $-1 $-1 $349 $45 $-1 $474 forward single #
loop $-1 $-1 $475 $218 #
plane-surface $-1 0 -37.201107232423936 0 0 1 0 0 0 1 forward_v I I I I #
coedge $-1 $476 $477 $478 $479 reversed $219 $-1 #
coedge $-1 $480 $221 $223 $347 forward $137 $-1 #
coedge $-1 $221 $480 $476 $481 forward $137 $-1 #
coedge $-1 $478 $224 $221 $344 forward $349 $-1 #
edge $-1 $351 -20.361179986554035 $482 6.5618552486964603 $343 $483 forward 7 unknown #
coedge $-1 $484 $485 $222 $346 forward $338 $-1 #
edge $-1 $486 -36.525545479930699 $350 -30.805872548260997 $345 $487 forward 7 unknown #
edge $-1 $351 -8.8982313522788612 $486 1.8878887457821222e-014 $223 $488 forward 7 unknown #
coedge $-1 $224 $478 $484 $489 forward $349 $-1 #
loop $-1 $-1 $478 $337 #
vertex $-1 $346 $490 #
vertex $-1 $225 $491 #
straight-curve $-1 27.260842355482822 -53.68345334132178 16.288923792427717 0 1 0 I I #
coedge $-1 $353 $353 $-1 $492 reversed $228 $-1 #
edge $-1 $493 0 $493 6.2831853071796004 $229 $494 forward 7 unknown #
vertex $-1 $232 $495 #
ellipse-curve $-1 8.0301029017324694 -33.792886921418365 13.429087326592867 0 -0.64278761758704617 0.76604443648966558 2 0 0 1 I I #
coedge $-1 $357 $357 $-1 $496 reversed $235 $-1 #
edge $-1 $497 0 $497 6.2831853071796004 $236 $498 forward 7 unknown #
vertex $-1 $239 $499 #
ellipse-curve $-1 19.568546573982687 -33.792886921418365 13.429087326592867 0 -0.64278761758704617 0.76604443648966558 2 0 0 1 I I #
face $-1 $-1 $255 $36 $-1 $500 reversed single #
loop $-1 $-1 $377 $240 #
plane-surface $-1 0 37.201107232423936 0 0 -1 0 0 0 -1 forward_v I I I I #
coedge $-1 $501 $375 $378 $502 forward $241 $-1 #
coedge $-1 $381 $243 $244 $369 reversed $151 $-1 #
coedge $-1 $375 $501 $243 $367 reversed $241 $-1 #
edge $-1 $382 -16.28892379242772 $503 16.28892379242772 $366 $504 forward 7 unknown #
coedge $-1 $245 $244 $501 $505 forward $97 $-1 #
edge $-1 $373 -54.579302346873376 $503 54.579302346873376 $365 $506 forward 7 unknown #
coedge $-1 $378 $377 $245 $371 reversed $362 $-1 #
edge $-1 $507 -54.579302346873376 $372 54.579302346873376 $370 $508 forward 7 unknown #
vertex $-1 $247 $509 #
vertex $-1 $384 $510 #
straight-curve $-1 54.579302346873376 0 -16.28892379242772 0 -1 0 I I #
coedge $-1 $364 $366 $248 $376 reversed $241 $-1 #
edge $-1 $379 -37.201107232423936 $382 37.201107232423936 $375 $511 forward 7 unknown #
coedge $-1 $370 $249 $254 $385 forward $362 $-1 #
coedge $-1 $249 $370 $364 $502 reversed $362 $-1 #
vertex $-1 $250 $512 #
straight-curve $-1 0 37.201107232423936 16.28892379242772 -1 0 0 I I #
coedge $-1 $251 $365 $253 $384 reversed $151 $-1 #
vertex $-1 $376 $513 #
straight-curve $-1 0 -37.201107232423936 16.28892379242772 1 0 0 I I #
edge $-1 $256 -16.28892379242772 $373 16.28892379242772 $253 $514 forward 7 unknown #
edge $-1 $257 -16.28892379242772 $372 16.28892379242772 $254 $515 forward 7 unknown #
point $-1 54.579302346873376 -37.201107232423936 16.28892379242772 #
point $-1 54.579302346873376 37.201107232423936 16.28892379242772 #
loop $-1 $-1 $391 $259 #
plane-surface $-1 -54.579302346873376 0 0 1 0 0 0 0 -1 forward_v I I I I #
coedge $-1 $263 $262 $397 $516 reversed $101 $-1 #
coedge $-1 $517 $518 $263 $392 forward $388 $-1 #
edge $-1 $394 -52.477841949193873 $519 -25.880538963936417 $391 $520 forward 7 unknown #
coedge $-1 $269 $264 $518 $521 reversed $159 $-1 #
vertex $-1 $265 $522 #
straight-curve $-1 -23.947924410203679 37.201107232423936 2.5902998828771508 -1 0 0 I I #
coedge $-1 $523 $266 $269 $401 forward $260 $-1 #
coedge $-1 $266 $523 $390 $516 forward $260 $-1 #
vertex $-1 $267 $524 #
straight-curve $-1 -41.212395293941341 14.823400284411171 16.288923792427724 0 1 0 I I #
straight-curve $-1 -41.212395293941341 -26.574037800382847 40.910273699643767 0 -0.85716729658548041 0.51503808176128008 I I #
edge $-1 $270 41.212395293941341 $525 54.579302346873376 $269 $526 forward 7 unknown #
point $-1 -41.212395293941341 37.201107232423936 16.28892379242772 #
point $-1 -41.212395293941341 37.201107232423929 2.5902998828771544 #
edge $-1 $527 1 $527 0 $273 $-1 forward 7 unknown #
vertex $-1 $274 $528 #
ellipse-curve $-1 -47.895848820407359 21.177448761760004 1.7431692812189665 0 0.51503808176128008 0.85716729658548041 2.5 0 0 1 I I #
point $-1 -45.395848820407359 25.80193808425491 9.4396118376524409 #
plane-surface $-1 0 37.201107232423936 0 0 -1 0 0 0 -1 forward_v I I I I #
coedge $-1 $419 $418 $411 $529 forward $278 $-1 #
coedge $-1 $411 $280 $282 $415 reversed $174 $-1 #
coedge $-1 $280 $410 $409 $529 reversed $174 $-1 #
coedge $-1 $288 $283 $280 $413 forward $289 $-1 #
edge $-1 $416 -64.648430009135751 $530 -50.949806099585174 $412 $531 forward 7 unknown #
coedge $-1 $282 $281 $419 $532 reversed $110 $-1 #
edge $-1 $533 47.804911479590416 $416 74.402214464847873 $410 $534 forward 7 unknown #
vertex $-1 $284 $535 #
straight-curve $-1 -10.303098823485335 37.201107232423936 2.5902998828771508 -1 0 0 I I #
coedge $-1 $409 $285 $288 $423 forward $278 $-1 #
coedge $-1 $285 $409 $414 $532 forward $278 $-1 #
vertex $-1 $286 $536 #
straight-curve $-1 -13.92274412050465 14.823400284411171 16.288923792427724 0 1 0 I I #
straight-curve $-1 -13.92274412050465 -26.574037800382847 40.910273699643767 0 -0.85716729658548041 0.51503808176128008 I I #
edge $-1 $290 13.92274412050465 $530 27.289651173436692 $288 $537 forward 7 unknown #
point $-1 -13.92274412050465 37.201107232423936 16.28892379242772 #
point $-1 -13.92274412050465 37.201107232423929 2.5902998828771544 #
edge $-1 $538 1 $538 0 $293 $-1 forward 7 unknown #
vertex $-1 $294 $539 #
ellipse-curve $-1 -20.606197646970671 21.177448761760004 1.7431692812189665 0 0.51503808176128008 0.85716729658548041 2.5 0 0 1 I I #
point $-1 -18.106197646970671 25.80193808425491 9.4396118376524409 #
plane-surface $-1 0 37.201107232423936 0 0 -1 0 0 0 -1 forward_v I I I I #
coedge $-1 $441 $440 $433 $540 forward $298 $-1 #
coedge $-1 $433 $300 $302 $437 reversed $189 $-1 #
coedge $-1 $300 $432 $431 $540 reversed $189 $-1 #
coedge $-1 $308 $303 $300 $435 forward $309 $-1 #
edge $-1 $438 -64.648430009135751 $541 -50.949806099585174 $434 $542 forward 7 unknown #
coedge $-1 $302 $301 $441 $543 reversed $119 $-1 #
edge $-1 $544 47.804911479590416 $438 74.402214464847873 $432 $545 forward 7 unknown #
vertex $-1 $304 $546 #
straight-curve $-1 3.3417267632330052 37.201107232423936 2.5902998828771508 -1 0 0 I I #
coedge $-1 $431 $305 $308 $445 forward $298 $-1 #
coedge $-1 $305 $431 $436 $543 forward $298 $-1 #
vertex $-1 $306 $547 #
straight-curve $-1 13.366907052932032 14.823400284411171 16.288923792427724 0 1 0 I I #
straight-curve $-1 13.366907052932032 -26.574037800382847 40.910273699643767 0 -0.85716729658548041 0.51503808176128008 I I #
edge $-1 $310 -13.366907052932032 $541 9.7699626167013776e-015 $308 $548 forward 7 unknown #
point $-1 13.366907052932032 37.201107232423936 16.28892379242772 #
point $-1 13.366907052932032 37.201107232423929 2.5902998828771544 #
edge $-1 $549 1 $549 0 $313 $-1 forward 7 unknown #
vertex $-1 $314 $550 #
ellipse-curve $-1 6.6834535264660104 21.177448761760004 1.7431692812189665 0 0.51503808176128008 0.85716729658548041 2.5 0 0 1 I I #
point $-1 9.1834535264660104 25.80193808425491 9.4396118376524409 #
plane-surface $-1 0 37.201107232423936 0 0 -1 0 0 0 -1 forward_v I I I I #
coedge $-1 $463 $462 $455 $551 forward $318 $-1 #
coedge $-1 $455 $320 $322 $459 reversed $204 $-1 #
coedge $-1 $320 $454 $453 $551 reversed $204 $-1 #
coedge $-1 $328 $323 $320 $457 forward $329 $-1 #
edge $-1 $460 -64.648430009135751 $552 -50.949806099585174 $456 $553 forward 7 unknown #
coedge $-1 $322 $321 $463 $554 reversed $128 $-1 #
edge $-1 $555 47.804911479590416 $460 74.402214464847873 $454 $556 forward 7 unknown #
vertex $-1 $324 $557 #
straight-curve $-1 16.986552349951346 37.201107232423936 2.5902998828771508 -1 0 0 I I #
coedge $-1 $453 $325 $328 $467 forward $318 $-1 #
coedge $-1 $325 $453 $458 $554 forward $318 $-1 #
vertex $-1 $326 $558 #
straight-curve $-1 40.656558226368709 14.823400284411171 16.288923792427724 0 1 0 I I #
straight-curve $-1 40.656558226368709 -26.574037800382847 40.910273699643767 0 -0.85716729658548041 0.51503808176128008 I I #
edge $-1 $330 -40.656558226368709 $552 -27.28965117343667 $328 $559 forward 7 unknown #
point $-1 40.656558226368709 37.201107232423936 16.28892379242772 #
point $-1 40.656558226368709 37.201107232423929 2.5902998828771544 #
edge $-1 $560 1 $560 0 $333 $-1 forward 7 unknown #
vertex $-1 $334 $561 #
ellipse-curve $-1 33.973104699902692 21.177448761760004 1.7431692812189665 0 0.51503808176128008 0.85716729658548041 2.5 0 0 1 I I #
point $-1 36.473104699902692 25.80193808425491 9.4396118376524409 #
plane-surface $-1 0 0 16.28892379242772 0 0 1 1 0 0 forward_v I I I I #
coedge $-1 $485 $484 $477 $562 forward $338 $-1 #
coedge $-1 $477 $340 $342 $481 reversed $219 $-1 #
coedge $-1 $340 $476 $475 $562 reversed $219 $-1 #
coedge $-1 $348 $343 $340 $479 forward $349 $-1 #
edge $-1 $482 -23.298786730908994 $563 -16.482346108897843 $478 $564 forward 7 unknown #
coedge $-1 $342 $341 $485 $565 reversed $137 $-1 #
edge $-1 $566 -1.8878887457821222e-014 $482 8.8982313522788612 $476 $567 forward 7 unknown #
vertex $-1 $344 $568 #
straight-curve $-1 6.8996623689287873 -30.384666610412786 16.28892379242772 -1 0 0 I I #
coedge $-1 $475 $345 $348 $489 reversed $338 $-1 #
coedge $-1 $345 $475 $480 $565 forward $338 $-1 #
vertex $-1 $346 $569 #
straight-curve $-1 27.260842355482822 -37.201107232423936 47.094796340688717 0 0 1 I I #
straight-curve $-1 27.260842355482822 -37.201107232423922 10.569250860758032 0 -0.76604443648966558 -0.64278761758704617 I I #
edge $-1 $563 0.33780712023232695 $350 27.260842355482822 $484 $570 forward 7 unknown #
point $-1 27.260842355482822 -37.201107232423936 16.28892379242772 #
point $-1 27.260842355482822 -30.384666610412786 16.28892379242772 #
edge $-1 $571 1 $571 0 $353 $-1 forward 7 unknown #
vertex $-1 $354 $572 #
ellipse-curve $-1 8.0301029017324694 -28.969439398375737 7.6807265327163607 0 -0.64278761758704617 0.76604443648966558 2 0 0 1 I I #
point $-1 10.030102901732469 -33.792886921418372 13.429087326592882 #
edge $-1 $573 1 $573 0 $357 $-1 forward 7 unknown #
vertex $-1 $358 $574 #
ellipse-curve $-1 19.568546573982687 -28.969439398375737 7.6807265327163607 0 -0.64278761758704617 0.76604443648966558 2 0 0 1 I I #
point $-1 21.568546573982687 -33.792886921418372 13.429087326592882 #
plane-surface $-1 54.579302346873376 0 0 -1 0 0 0 0 1 forward_v I I I I #
coedge $-1 $366 $364 $368 $505 reversed $241 $-1 #
edge $-1 $379 -16.28892379242772 $507 16.28892379242772 $378 $575 forward 7 unknown #
vertex $-1 $505 $576 #
straight-curve $-1 -54.579302346873376 -37.201107232423936 0 0 0 -1 I I #
edge $-1 $503 -37.201107232423936 $507 37.201107232423936 $501 $577 forward 7 unknown #
straight-curve $-1 0 -37.201107232423936 -16.28892379242772 -1 0 0 I I #
vertex $-1 $371 $578 #
straight-curve $-1 0 37.201107232423936 -16.28892379242772 1 0 0 I I #
point $-1 54.579302346873376 37.201107232423936 -16.28892379242772 #
point $-1 54.579302346873376 -37.201107232423936 -16.28892379242772 #
straight-curve $-1 -54.579302346873376 0 16.28892379242772 0 -1 0 I I #
point $-1 -54.579302346873376 37.201107232423936 16.28892379242772 #
point $-1 -54.579302346873376 -37.201107232423936 16.28892379242772 #
straight-curve $-1 54.579302346873376 -37.201107232423936 0 0 0 -1 I I #
straight-curve $-1 54.579302346873376 37.201107232423936 0 0 0 -1 I I #
edge $-1 $519 -30.631377936669697 $398 -17.264470883737662 $397 $579 forward 7 unknown #
coedge $-1 $518 $391 $523 $580 reversed $388 $-1 #
coedge $-1 $391 $517 $393 $521 forward $388 $-1 #
vertex $-1 $392 $581 #
straight-curve $-1 -54.579302346873376 -7.7811826818066967 29.618386935361599 0 -0.85716729658548041 0.51503808176128008 I I #
edge $-1 $525 -16.28892379242772 $394 -2.5902998828771491 $393 $582 forward 7 unknown #
point $-1 -54.579302346873376 37.201107232423936 2.5902998828771491 #
coedge $-1 $397 $396 $517 $580 forward $260 $-1 #
point $-1 -41.212395293941341 14.40276893608587 16.28892379242772 #
vertex $-1 $401 $583 #
straight-curve $-1 0 37.201107232423936 16.28892379242772 -1 0 0 I I #
vertex $-1 $404 $584 #
point $-1 -45.395848820407359 21.177448761760004 1.7431692812189665 #
edge $-1 $530 -22.377706948012765 $533 0.42063134832530125 $409 $585 forward 7 unknown #
vertex $-1 $529 $586 #
straight-curve $-1 -27.289651173436692 37.201107232423936 67.238729892012898 0 0 1 I I #
edge $-1 $533 -16.986552349951356 $420 -3.6196452970193143 $419 $587 forward 7 unknown #
vertex $-1 $532 $588 #
straight-curve $-1 -27.289651173436692 -26.574037800382847 40.910273699643767 0 0.85716729658548041 -0.51503808176128008 I I #
point $-1 -27.289651173436692 37.201107232423929 2.5902998828771544 #
point $-1 -13.92274412050465 14.40276893608587 16.28892379242772 #
straight-curve $-1 0 37.201107232423936 16.28892379242772 -1 0 0 I I #
vertex $-1 $426 $589 #
point $-1 -18.106197646970671 21.177448761760004 1.7431692812189665 #
edge $-1 $541 -22.377706948012765 $544 0.42063134832530125 $431 $590 forward 7 unknown #
vertex $-1 $435 $591 #
straight-curve $-1 -9.7699626167013776e-015 37.201107232423936 67.238729892012898 0 0 1 I I #
edge $-1 $544 -3.341726763233015 $442 10.025180289699026 $441 $592 forward 7 unknown #
vertex $-1 $543 $593 #
straight-curve $-1 -9.7699626167013776e-015 -26.574037800382847 40.910273699643767 0 0.85716729658548041 -0.51503808176128008 I I #
point $-1 -9.7699626167013776e-015 37.201107232423929 2.5902998828771544 #
point $-1 13.366907052932032 14.40276893608587 16.28892379242772 #
straight-curve $-1 0 37.201107232423936 16.28892379242772 -1 0 0 I I #
vertex $-1 $448 $594 #
point $-1 9.1834535264660104 21.177448761760004 1.7431692812189665 #
edge $-1 $552 -22.377706948012765 $555 0.42063134832530125 $453 $595 forward 7 unknown #
vertex $-1 $457 $596 #
straight-curve $-1 27.28965117343667 37.201107232423936 67.238729892012898 0 0 1 I I #
edge $-1 $555 10.303098823485325 $464 23.670005876417363 $463 $597 forward 7 unknown #
vertex $-1 $554 $598 #
straight-curve $-1 27.28965117343667 -26.574037800382847 40.910273699643767 0 0.85716729658548041 -0.51503808176128008 I I #
point $-1 27.28965117343667 37.201107232423929 2.5902998828771544 #
point $-1 40.656558226368709 14.40276893608587 16.28892379242772 #
straight-curve $-1 0 37.201107232423936 16.28892379242772 -1 0 0 I I #
vertex $-1 $470 $599 #
point $-1 36.473104699902692 21.177448761760004 1.7431692812189665 #
edge $-1 $563 30.805872548260997 $566 36.525545479930699 $475 $600 forward 7 unknown #
vertex $-1 $489 $601 #
straight-curve $-1 0.33780712023232695 -53.68345334132178 16.288923792427717 0 -1 0 I I #
edge $-1 $566 -6.5618552486964603 $486 20.361179986554035 $485 $602 forward 7 unknown #
vertex $-1 $565 $603 #
straight-curve $-1 0.33780712023232695 -37.201107232423922 10.569250860758032 0 0.76604443648966558 0.64278761758704617 I I #
point $-1 0.33780712023232695 -30.384666610412786 16.28892379242772 #
point $-1 27.260842355482822 -37.201107232423936 10.56925086075802 #
straight-curve $-1 0 -37.201107232423936 16.28892379242772 1 0 0 I I #
vertex $-1 $492 $604 #
point $-1 10.030102901732469 -28.969439398375737 7.6807265327163607 #
vertex $-1 $496 $605 #
point $-1 21.568546573982687 -28.969439398375737 7.6807265327163607 #
straight-curve $-1 -54.579302346873376 37.201107232423936 0 0 0 -1 I I #
point $-1 -54.579302346873376 -37.201107232423936 -16.28892379242772 #
straight-curve $-1 -54.579302346873376 0 -16.28892379242772 0 1 0 I I #
point $-1 -54.579302346873376 37.201107232423936 -16.28892379242772 #
straight-curve $-1 -23.947924410203679 14.402768936085877 16.28892379242772 1 0 0 I I #
edge $-1 $525 -37.201107232423936 $519 -14.40276893608587 $517 $606 forward 7 unknown #
point $-1 -54.579302346873376 14.40276893608587 16.28892379242772 #
straight-curve $-1 -54.579302346873376 37.201107232423936 0 0 0 -1 I I #
point $-1 -54.579302346873376 37.201107232423936 16.28892379242772 #
point $-1 -47.895848820407359 19.889853557356801 -0.39974896024473439 #
straight-curve $-1 -27.289651173436692 14.823400284411171 16.288923792427724 0 -1 0 I I #
point $-1 -27.289651173436692 37.201107232423936 16.28892379242772 #
straight-curve $-1 -10.303098823485335 14.402768936085877 16.28892379242772 1 0 0 I I #
point $-1 -27.289651173436692 14.40276893608587 16.28892379242772 #
point $-1 -20.606197646970671 19.889853557356801 -0.39974896024473439 #
straight-curve $-1 -9.7699626167013776e-015 14.823400284411171 16.288923792427724 0 -1 0 I I #
point $-1 -9.7699626167013776e-015 37.201107232423936 16.28892379242772 #
straight-curve $-1 3.3417267632330052 14.402768936085877 16.28892379242772 1 0 0 I I #
point $-1 -9.7699626167013776e-015 14.40276893608587 16.28892379242772 #
point $-1 6.6834535264660104 19.889853557356801 -0.39974896024473439 #
straight-curve $-1 27.28965117343667 14.823400284411171 16.288923792427724 0 -1 0 I I #
point $-1 27.28965117343667 37.201107232423936 16.28892379242772 #
straight-curve $-1 16.986552349951346 14.402768936085877 16.28892379242772 1 0 0 I I #
point $-1 27.28965117343667 14.40276893608587 16.28892379242772 #
point $-1 33.973104699902692 19.889853557356801 -0.39974896024473439 #
straight-curve $-1 0.33780712023232695 -37.201107232423936 47.094796340688717 0 0 -1 I I #
point $-1 0.33780712023232695 -37.201107232423936 16.28892379242772 #
straight-curve $-1 6.8996623689287873 -37.201107232423936 10.56925086075802 1 0 0 I I #
point $-1 0.33780712023232695 -37.201107232423936 10.56925086075802 #
point $-1 8.0301029017324694 -27.683864163201644 6.1486376597370294 #
point $-1 19.568546573982687 -27.683864163201644 6.1486376597370294 #
straight-curve $-1 -54.579302346873376 0 16.28892379242772 0 -1 0 I I #
End-of-ACIS-data 