500 0 14 0           
7 Unknown 11 ACIS 5.0 NT 24 Thu Mar 25 20:08:30 1999 
-1 9.9999999999999995e-007 1e-010 
body $-1 $14 $-1 $15 #
body $-1 $16 $-1 $17 #
body $-1 $18 $-1 $19 #
body $-1 $20 $-1 $21 #
body $-1 $22 $-1 $23 #
body $-1 $24 $-1 $25 #
body $-1 $26 $-1 $27 #
body $-1 $28 $-1 $29 #
body $-1 $30 $-1 $31 #
body $-1 $32 $-1 $33 #
body $-1 $34 $-1 $35 #
body $-1 $36 $-1 $37 #
body $-1 $38 $-1 $39 #
body $-1 $40 $-1 $41 #
lump $-1 $-1 $42 $0 #
transform $-1 1 0 0 0 1 0 0 0 1 53.92986846522416 27.295587346252741 13.172222189134072 1 rotate no_reflect no_shear #
lump $-1 $-1 $43 $1 #
transform $-1 1 0 0 0 1 0 0 0 1 53.92986846522416 27.295587346252741 13.172222189134072 1 rotate no_reflect no_shear #
lump $-1 $-1 $44 $2 #
transform $-1 1 0 0 0 1 0 0 0 1 53.92986846522416 27.295587346252741 13.172222189134072 1 rotate no_reflect no_shear #
lump $-1 $-1 $45 $3 #
transform $-1 1 0 0 0 1 0 0 0 1 53.92986846522416 27.295587346252741 13.172222189134072 1 rotate no_reflect no_shear #
lump $-1 $-1 $46 $4 #
transform $-1 1 0 0 0 1 0 0 0 1 53.92986846522416 27.295587346252741 13.172222189134072 1 rotate no_reflect no_shear #
lump $-1 $-1 $47 $5 #
transform $-1 1 0 0 0 1 0 0 0 1 53.92986846522416 27.295587346252741 13.172222189134072 1 rotate no_reflect no_shear #
lump $-1 $-1 $48 $6 #
transform $-1 1 0 0 0 1 0 0 0 1 53.92986846522416 27.295587346252741 13.172222189134072 1 rotate no_reflect no_shear #
lump $-1 $-1 $49 $7 #
transform $-1 1 0 0 0 1 0 0 0 1 53.92986846522416 27.295587346252741 13.172222189134072 1 rotate no_reflect no_shear #
lump $-1 $-1 $50 $8 #
transform $-1 1 0 0 0 1 0 0 0 1 53.92986846522416 27.295587346252741 13.172222189134072 1 rotate no_reflect no_shear #
lump $-1 $-1 $51 $9 #
transform $-1 1 0 0 0 1 0 0 0 1 53.92986846522416 27.295587346252741 13.172222189134072 1 rotate no_reflect no_shear #
lump $-1 $-1 $52 $10 #
transform $-1 1 0 0 0 1 0 0 0 1 53.92986846522416 27.295587346252741 13.172222189134072 1 rotate no_reflect no_shear #
lump $-1 $-1 $53 $11 #
transform $-1 1 0 0 0 1 0 0 0 1 53.92986846522416 27.295587346252741 13.172222189134072 1 rotate no_reflect no_shear #
lump $-1 $-1 $54 $12 #
transform $-1 1 0 0 0 1 0 0 0 1 53.92986846522416 27.295587346252741 13.172222189134072 1 rotate no_reflect no_shear #
lump $-1 $-1 $55 $13 #
transform $-1 1 0 0 0 1 0 0 0 1 53.92986846522416 27.295587346252741 13.172222189134072 1 rotate no_reflect no_shear #
shell $-1 $-1 $-1 $56 $-1 $14 #
shell $-1 $-1 $-1 $57 $-1 $16 #
shell $-1 $-1 $-1 $58 $-1 $18 #
shell $-1 $-1 $-1 $59 $-1 $20 #
shell $-1 $-1 $-1 $60 $-1 $22 #
shell $-1 $-1 $-1 $61 $-1 $24 #
shell $-1 $-1 $-1 $62 $-1 $26 #
shell $-1 $-1 $-1 $63 $-1 $28 #
shell $-1 $-1 $-1 $64 $-1 $30 #
shell $-1 $-1 $-1 $65 $-1 $32 #
shell $-1 $-1 $-1 $66 $-1 $34 #
shell $-1 $-1 $-1 $67 $-1 $36 #
shell $-1 $-1 $-1 $68 $-1 $38 #
shell $-1 $-1 $-1 $69 $-1 $40 #
face $-1 $70 $71 $42 $-1 $72 forward single #
face $-1 $73 $74 $43 $-1 $75 forward single #
face $-1 $76 $77 $44 $-1 $78 reversed single #
face $-1 $79 $80 $45 $-1 $81 forward single #
face $-1 $82 $83 $46 $-1 $84 reversed single #
face $-1 $85 $86 $47 $-1 $87 forward single #
face $-1 $88 $89 $48 $-1 $90 reversed single #
face $-1 $91 $92 $49 $-1 $93 forward single #
face $-1 $94 $95 $50 $-1 $96 forward single #
face $-1 $97 $98 $51 $-1 $99 forward single #
face $-1 $100 $101 $52 $-1 $102 reversed single #
face $-1 $103 $104 $53 $-1 $105 forward single #
face $-1 $106 $107 $54 $-1 $108 forward single #
face $-1 $109 $110 $55 $-1 $111 forward single #
face $-1 $112 $113 $42 $-1 $114 reversed single #
loop $-1 $-1 $115 $56 #
plane-surface $-1 0 0 13.172222189134072 0 0 1 1 0 0 forward_v I I I I #
face $-1 $116 $117 $43 $-1 $118 reversed single #
loop $-1 $-1 $119 $57 #
plane-surface $-1 -47.879429883663711 0 4.7776379917140721 0 0 1 1 0 0 forward_v I I I I #
face $-1 $120 $121 $44 $-1 $122 reversed single #
loop $-1 $-1 $123 $58 #
plane-surface $-1 -9.6940866113615911 -104.88338986302824 82.816769459630549 1 0 0 0 0.71933980857756763 -0.69465836192734942 forward_v I I I I #
face $-1 $124 $125 $45 $-1 $126 forward single #
loop $-1 $127 $128 $59 #
cone-surface $-1 -1.8218240149005709 -23.625686404637936 9.4501469104511813 0 0.71933980857756763 -0.69465836192734942 1.5 0 0 1 I I 0 1 1.5 forward I I I I #
face $-1 $129 $130 $46 $-1 $131 reversed single #
loop $-1 $-1 $132 $60 #
plane-surface $-1 21.79496377448249 -104.88338986302824 82.816769459630549 -1 0 0 0 -0.71933980857756763 0.69465836192734942 forward_v I I I I #
face $-1 $133 $134 $47 $-1 $135 forward single #
loop $-1 $136 $137 $61 #
cone-surface $-1 13.92270117802147 -23.625686404637936 9.4501469104511813 0 0.71933980857756763 -0.69465836192734942 1.5 0 0 1 I I 0 1 1.5 forward I I I I #
face $-1 $138 $139 $48 $-1 $140 reversed single #
loop $-1 $-1 $141 $62 #
plane-surface $-1 -20.767589032012367 74.830410200438905 114.39086210439757 1 0 0 0 -0.7660444514056185 -0.64278759981090561 forward_v I I I I #
face $-1 $142 $143 $49 $-1 $144 forward single #
loop $-1 $145 $146 $63 #
cone-surface $-1 -16.037597586026628 21.02430439783264 6.4405627309331113 0 -0.7660444514056185 -0.64278759981090561 2 0 0 1 I I 0 1 2 forward I I I I #
face $-1 $147 $148 $50 $-1 $149 forward single #
loop $-1 $150 $151 $64 #
cone-surface $-1 -8.9426104170480158 21.02430439783264 6.4405627309331113 0 -0.7660444514056185 -0.64278759981090561 2 0 0 1 I I 0 1 2 forward I I I I #
face $-1 $152 $153 $51 $-1 $154 forward single #
loop $-1 $155 $156 $65 #
cone-surface $-1 -1.8476232480694037 21.02430439783264 6.4405627309331113 0 -0.7660444514056185 -0.64278759981090561 2 0 0 1 I I 0 1 2 forward I I I I #
face $-1 $157 $158 $52 $-1 $159 reversed single #
loop $-1 $-1 $160 $66 #
plane-surface $-1 27.111840851651351 74.830410200438905 114.39086210439757 1 0 0 0 -0.7660444514056185 -0.64278759981090561 forward_v I I I I #
face $-1 $161 $162 $53 $-1 $163 forward single #
loop $-1 $164 $165 $67 #
cone-surface $-1 31.841832297637083 21.02430439783264 6.4405627309331113 0 -0.7660444514056185 -0.64278759981090561 2 0 0 1 I I 0 1 2 forward I I I I #
face $-1 $166 $167 $54 $-1 $168 forward single #
loop $-1 $169 $170 $68 #
cone-surface $-1 38.936819466615702 21.02430439783264 6.4405627309331113 0 -0.7660444514056185 -0.64278759981090561 2 0 0 1 I I 0 1 2 forward I I I I #
face $-1 $171 $172 $55 $-1 $173 forward single #
loop $-1 $174 $175 $69 #
cone-surface $-1 46.031806635594307 21.02430439783264 6.4405627309331113 0 -0.7660444514056185 -0.64278759981090561 2 0 0 1 I I 0 1 2 forward I I I I #
face $-1 $176 $177 $42 $-1 $178 reversed single #
loop $-1 $-1 $179 $70 #
plane-surface $-1 0 0 -13.172222189134072 0 0 1 1 0 0 forward_v I I I I #
coedge $-1 $180 $181 $182 $183 forward $71 $-1 #
face $-1 $184 $185 $43 $-1 $186 reversed single #
loop $-1 $-1 $187 $73 #
plane-surface $-1 -47.879429883663711 0 0.020490772201307017 0 0 1 1 0 0 forward_v I I I I #
coedge $-1 $188 $189 $190 $191 forward $74 $-1 #
face $-1 $192 $193 $44 $-1 $194 reversed single #
loop $-1 $-1 $195 $76 #
plane-surface $-1 -1.8218240149005709 -27.295587346252745 7.891101285610489 0 -0.71933980857756763 0.69465836192734942 1 0 0 forward_v I I I I #
coedge $-1 $196 $197 $198 $199 reversed $77 $-1 #
face $-1 $-1 $200 $45 $-1 $201 forward single #
loop $-1 $202 $203 $79 #
cone-surface $-1 -1.8218240149005709 -21.96624013353193 7.8476383120845661 0 0.71933980857756763 -0.69465836192734942 0.75 0 0 1 I I -0.70710678118654757 0.70710678118654757 0.75 forward I I I I #
loop $-1 $-1 $204 $59 #
coedge $-1 $128 $128 $205 $206 reversed $80 $-1 #
face $-1 $207 $208 $46 $-1 $209 reversed single #
loop $-1 $-1 $210 $82 #
plane-surface $-1 -1.8218240149005709 -27.295587346252745 7.891101285610489 0 -0.71933980857756763 0.69465836192734942 1 0 0 forward_v I I I I #
coedge $-1 $211 $212 $213 $214 reversed $83 $-1 #
face $-1 $-1 $215 $47 $-1 $216 forward single #
loop $-1 $217 $218 $85 #
cone-surface $-1 13.92270117802147 -21.96624013353193 7.8476383120845661 0 0.71933980857756763 -0.69465836192734942 0.75 0 0 1 I I -0.70710678118654757 0.70710678118654757 0.75 forward I I I I #
loop $-1 $-1 $219 $61 #
coedge $-1 $137 $137 $220 $221 reversed $86 $-1 #
face $-1 $222 $223 $48 $-1 $224 reversed single #
loop $-1 $-1 $225 $88 #
plane-surface $-1 -8.9426104170480158 -7.794942805200705 45.059960686639002 0 0.7660444514056185 0.64278759981090561 1 0 0 forward_v I I I I #
coedge $-1 $226 $227 $228 $229 reversed $89 $-1 #
face $-1 $-1 $230 $49 $-1 $231 forward single #
loop $-1 $232 $233 $91 #
cone-surface $-1 -16.037597586026628 18.153747617831716 4.031879658623108 0 -0.7660444514056185 -0.64278759981090561 1 0 0 1 I I -0.70710678118654746 0.70710678118654746 1 forward I I I I #
loop $-1 $-1 $234 $63 #
coedge $-1 $146 $146 $235 $236 reversed $92 $-1 #
face $-1 $-1 $237 $50 $-1 $238 forward single #
loop $-1 $239 $240 $94 #
cone-surface $-1 -8.9426104170480158 18.153747617831716 4.031879658623108 0 -0.7660444514056185 -0.64278759981090561 1 0 0 1 I I -0.70710678118654746 0.70710678118654746 1 forward I I I I #
loop $-1 $-1 $241 $64 #
coedge $-1 $151 $151 $242 $243 reversed $95 $-1 #
face $-1 $-1 $244 $51 $-1 $245 forward single #
loop $-1 $246 $247 $97 #
cone-surface $-1 -1.8476232480694037 18.153747617831716 4.031879658623108 0 -0.7660444514056185 -0.64278759981090561 1 0 0 1 I I -0.70710678118654746 0.70710678118654746 1 forward I I I I #
loop $-1 $-1 $248 $65 #
coedge $-1 $156 $156 $249 $250 reversed $98 $-1 #
face $-1 $251 $252 $52 $-1 $253 reversed single #
loop $-1 $-1 $254 $100 #
plane-surface $-1 38.936819466615702 -7.794942805200705 45.059960686639002 0 0.7660444514056185 0.64278759981090561 1 0 0 forward_v I I I I #
coedge $-1 $255 $256 $257 $258 reversed $101 $-1 #
face $-1 $-1 $259 $53 $-1 $260 forward single #
loop $-1 $261 $262 $103 #
cone-surface $-1 31.841832297637083 18.153747617831716 4.031879658623108 0 -0.7660444514056185 -0.64278759981090561 1 0 0 1 I I -0.70710678118654746 0.70710678118654746 1 forward I I I I #
loop $-1 $-1 $263 $67 #
coedge $-1 $165 $165 $264 $265 reversed $104 $-1 #
face $-1 $-1 $266 $54 $-1 $267 forward single #
loop $-1 $268 $269 $106 #
cone-surface $-1 38.936819466615702 18.153747617831716 4.031879658623108 0 -0.7660444514056185 -0.64278759981090561 1 0 0 1 I I -0.70710678118654746 0.70710678118654746 1 forward I I I I #
loop $-1 $-1 $270 $68 #
coedge $-1 $170 $170 $271 $272 reversed $107 $-1 #
face $-1 $-1 $273 $55 $-1 $274 forward single #
loop $-1 $275 $276 $109 #
cone-surface $-1 46.031806635594307 18.153747617831716 4.031879658623108 0 -0.7660444514056185 -0.64278759981090561 1 0 0 1 I I -0.70710678118654746 0.70710678118654746 1 forward I I I I #
loop $-1 $-1 $277 $69 #
coedge $-1 $175 $175 $278 $279 reversed $110 $-1 #
face $-1 $280 $281 $42 $-1 $282 reversed single #
loop $-1 $-1 $283 $112 #
plane-surface $-1 0 -27.295587346252741 0 0 1 0 0 0 1 forward_v I I I I #
coedge $-1 $284 $285 $286 $287 forward $113 $-1 #
coedge $-1 $288 $115 $289 $290 forward $71 $-1 #
coedge $-1 $115 $288 $291 $292 forward $71 $-1 #
coedge $-1 $293 $294 $115 $183 reversed $295 $-1 #
edge $-1 $296 -27.295587346252741 $297 27.295587346252741 $182 $298 forward 7 unknown #
face $-1 $299 $300 $43 $-1 $301 reversed single #
loop $-1 $-1 $302 $116 #
plane-surface $-1 -41.828991302103262 0 2.3990643819576896 -1 0 0 0 0 1 forward_v I I I I #
coedge $-1 $303 $304 $305 $306 forward $117 $-1 #
coedge $-1 $307 $119 $308 $309 reversed $74 $-1 #
coedge $-1 $119 $307 $310 $311 reversed $74 $-1 #
coedge $-1 $302 $312 $119 $191 reversed $185 $-1 #
edge $-1 $313 -27.295587346252741 $314 27.295587346252741 $190 $315 forward 7 unknown #
face $-1 $316 $317 $44 $-1 $318 forward single #
loop $-1 $-1 $319 $120 #
plane-surface $-1 6.0504385815604493 -104.88338986302824 82.816769459630549 -1 0 0 0 -0.71933980857756763 0.69465836192734942 forward_v I I I I #
coedge $-1 $320 $321 $322 $323 reversed $121 $-1 #
coedge $-1 $197 $123 $324 $325 reversed $77 $-1 #
coedge $-1 $123 $196 $320 $326 reversed $77 $-1 #
coedge $-1 $322 $327 $123 $199 forward $328 $-1 #
edge $-1 $329 28.236162540681203 $330 33.517283444204779 $198 $331 forward 7 unknown #
loop $-1 $-1 $205 $124 #
plane-surface $-1 -1.8218240149005709 -27.295587346252745 7.891101285610489 0 -0.71933980857756763 0.69465836192734942 1 0 0 forward_v I I I I #
loop $-1 $-1 $332 $79 #
coedge $-1 $203 $203 $204 $333 reversed $125 $-1 #
coedge $-1 $204 $204 $203 $333 forward $127 $-1 #
coedge $-1 $205 $205 $128 $206 forward $200 $-1 #
edge $-1 $334 0 $334 6.2831853071796004 $205 $335 forward 7 unknown #
face $-1 $336 $337 $46 $-1 $338 forward single #
loop $-1 $-1 $339 $129 #
plane-surface $-1 0 -27.295587346252741 0 0 1 0 0 0 1 forward_v I I I I #
coedge $-1 $340 $341 $342 $343 reversed $130 $-1 #
coedge $-1 $212 $132 $344 $345 reversed $83 $-1 #
coedge $-1 $132 $211 $346 $347 reversed $83 $-1 #
coedge $-1 $348 $339 $132 $214 forward $208 $-1 #
edge $-1 $349 -33.517283444204779 $350 -28.236162540681203 $213 $351 forward 7 unknown #
loop $-1 $-1 $220 $133 #
plane-surface $-1 -1.8218240149005709 -27.295587346252745 7.891101285610489 0 -0.71933980857756763 0.69465836192734942 1 0 0 forward_v I I I I #
loop $-1 $-1 $352 $85 #
coedge $-1 $218 $218 $219 $353 reversed $134 $-1 #
coedge $-1 $219 $219 $218 $353 forward $136 $-1 #
coedge $-1 $220 $220 $137 $221 forward $215 $-1 #
edge $-1 $354 0 $354 6.2831853071796004 $220 $355 forward 7 unknown #
face $-1 $356 $357 $48 $-1 $358 reversed single #
loop $-1 $-1 $359 $138 #
plane-surface $-1 2.8823681979163354 74.830410200438905 114.39086210439757 -1 0 0 0 0.7660444514056185 0.64278759981090561 forward_v I I I I #
coedge $-1 $360 $361 $362 $363 reversed $139 $-1 #
coedge $-1 $227 $141 $364 $365 reversed $89 $-1 #
coedge $-1 $141 $226 $360 $366 reversed $89 $-1 #
coedge $-1 $362 $367 $141 $229 forward $368 $-1 #
edge $-1 $369 10.119617753966711 $370 18.453158993616295 $228 $371 forward 7 unknown #
loop $-1 $-1 $235 $142 #
plane-surface $-1 -8.9426104170480158 -7.794942805200705 45.059960686639002 0 0.7660444514056185 0.64278759981090561 1 0 0 forward_v I I I I #
loop $-1 $-1 $372 $91 #
coedge $-1 $233 $233 $234 $373 reversed $143 $-1 #
coedge $-1 $234 $234 $233 $373 forward $145 $-1 #
coedge $-1 $235 $235 $146 $236 forward $230 $-1 #
edge $-1 $374 4.3789630266641992e-016 $374 6.2831853071796004 $235 $375 forward 7 unknown #
loop $-1 $-1 $242 $147 #
plane-surface $-1 -8.9426104170480158 -7.794942805200705 45.059960686639002 0 0.7660444514056185 0.64278759981090561 1 0 0 forward_v I I I I #
loop $-1 $-1 $376 $94 #
coedge $-1 $240 $240 $241 $377 reversed $148 $-1 #
coedge $-1 $241 $241 $240 $377 forward $150 $-1 #
coedge $-1 $242 $242 $151 $243 forward $237 $-1 #
edge $-1 $378 4.3789630266641992e-016 $378 6.2831853071796004 $242 $379 forward 7 unknown #
loop $-1 $-1 $249 $152 #
plane-surface $-1 -8.9426104170480158 -7.794942805200705 45.059960686639002 0 0.7660444514056185 0.64278759981090561 1 0 0 forward_v I I I I #
loop $-1 $-1 $380 $97 #
coedge $-1 $247 $247 $248 $381 reversed $153 $-1 #
coedge $-1 $248 $248 $247 $381 forward $155 $-1 #
coedge $-1 $249 $249 $156 $250 forward $244 $-1 #
edge $-1 $382 4.3789630266641992e-016 $382 6.2831853071796004 $249 $383 forward 7 unknown #
face $-1 $384 $385 $52 $-1 $386 forward single #
loop $-1 $-1 $387 $157 #
plane-surface $-1 50.761798081580054 74.830410200438905 114.39086210439757 -1 0 0 0 0.7660444514056185 0.64278759981090561 forward_v I I I I #
coedge $-1 $388 $389 $390 $391 reversed $158 $-1 #
coedge $-1 $256 $160 $392 $393 reversed $101 $-1 #
coedge $-1 $160 $255 $388 $394 reversed $101 $-1 #
coedge $-1 $390 $395 $160 $258 forward $385 $-1 #
edge $-1 $396 10.119617753966711 $397 18.453158993616295 $257 $398 forward 7 unknown #
loop $-1 $-1 $264 $161 #
plane-surface $-1 38.936819466615702 -7.794942805200705 45.059960686639002 0 0.7660444514056185 0.64278759981090561 1 0 0 forward_v I I I I #
loop $-1 $-1 $399 $103 #
coedge $-1 $262 $262 $263 $400 reversed $162 $-1 #
coedge $-1 $263 $263 $262 $400 forward $164 $-1 #
coedge $-1 $264 $264 $165 $265 forward $259 $-1 #
edge $-1 $401 4.3789630266641992e-016 $401 6.2831853071796004 $264 $402 forward 7 unknown #
loop $-1 $-1 $271 $166 #
plane-surface $-1 38.936819466615702 -7.794942805200705 45.059960686639002 0 0.7660444514056185 0.64278759981090561 1 0 0 forward_v I I I I #
loop $-1 $-1 $403 $106 #
coedge $-1 $269 $269 $270 $404 reversed $167 $-1 #
coedge $-1 $270 $270 $269 $404 forward $169 $-1 #
coedge $-1 $271 $271 $170 $272 forward $266 $-1 #
edge $-1 $405 4.3789630266641992e-016 $405 6.2831853071796004 $271 $406 forward 7 unknown #
loop $-1 $-1 $278 $171 #
plane-surface $-1 38.936819466615702 -7.794942805200705 45.059960686639002 0 0.7660444514056185 0.64278759981090561 1 0 0 forward_v I I I I #
loop $-1 $-1 $407 $109 #
coedge $-1 $276 $276 $277 $408 reversed $172 $-1 #
coedge $-1 $277 $277 $276 $408 forward $174 $-1 #
coedge $-1 $278 $278 $175 $279 forward $273 $-1 #
edge $-1 $409 4.3789630266641992e-016 $409 6.2831853071796004 $278 $410 forward 7 unknown #
face $-1 $411 $412 $42 $-1 $413 reversed single #
loop $-1 $-1 $414 $176 #
plane-surface $-1 -53.92986846522416 0 0 1 0 0 0 0 -1 forward_v I I I I #
coedge $-1 $415 $291 $416 $417 forward $177 $-1 #
coedge $-1 $418 $179 $415 $419 forward $113 $-1 #
coedge $-1 $179 $418 $420 $421 forward $113 $-1 #
coedge $-1 $294 $293 $179 $287 reversed $295 $-1 #
edge $-1 $422 -27.295587346252741 $423 27.295587346252741 $286 $424 forward 7 unknown #
coedge $-1 $181 $180 $425 $426 forward $71 $-1 #
coedge $-1 $427 $428 $180 $290 reversed $412 $-1 #
edge $-1 $297 -53.92986846522416 $429 53.92986846522416 $289 $430 forward 7 unknown #
coedge $-1 $283 $431 $181 $292 reversed $177 $-1 #
edge $-1 $432 -53.92986846522416 $296 53.92986846522416 $291 $433 forward 7 unknown #
coedge $-1 $286 $182 $431 $434 forward $295 $-1 #
coedge $-1 $182 $286 $427 $435 reversed $295 $-1 #
loop $-1 $-1 $293 $411 #
vertex $-1 $183 $436 #
vertex $-1 $183 $437 #
straight-curve $-1 53.92986846522416 0 13.172222189134072 0 1 0 I I #
face $-1 $438 $439 $43 $-1 $440 reversed single #
loop $-1 $-1 $441 $184 #
plane-surface $-1 0 -27.295587346252741 0 0 1 0 0 0 1 forward_v I I I I #
coedge $-1 $305 $190 $442 $443 reversed $185 $-1 #
coedge $-1 $444 $187 $441 $445 reversed $117 $-1 #
coedge $-1 $187 $444 $446 $447 reversed $117 $-1 #
coedge $-1 $312 $302 $187 $306 reversed $185 $-1 #
edge $-1 $448 -27.295587346252741 $449 27.295587346252741 $305 $450 forward 7 unknown #
coedge $-1 $189 $188 $451 $452 reversed $74 $-1 #
coedge $-1 $453 $454 $188 $309 forward $455 $-1 #
edge $-1 $456 -29.990153523392305 $314 -17.889276360271406 $308 $457 forward 7 unknown #
coedge $-1 $458 $442 $189 $311 forward $300 $-1 #
edge $-1 $313 17.889276360271406 $459 29.990153523392305 $310 $460 forward 7 unknown #
coedge $-1 $190 $305 $453 $461 reversed $185 $-1 #
vertex $-1 $311 $462 #
vertex $-1 $309 $463 #
straight-curve $-1 -41.828991302103262 0 4.7776379917140721 0 1 0 I I #
face $-1 $-1 $328 $44 $-1 $464 reversed single #
loop $-1 $-1 $465 $192 #
plane-surface $-1 0 0 13.172222189134072 0 0 1 1 0 0 forward_v I I I I #
coedge $-1 $466 $467 $468 $469 reversed $193 $-1 #
coedge $-1 $470 $195 $197 $326 forward $121 $-1 #
coedge $-1 $195 $470 $466 $471 forward $121 $-1 #
coedge $-1 $468 $198 $195 $323 forward $328 $-1 #
edge $-1 $330 -8.7831746039113057 $472 6.9613505890107348 $322 $473 forward 7 unknown #
coedge $-1 $474 $475 $196 $325 forward $317 $-1 #
edge $-1 $476 -30.246026639145335 $329 -25.14610758526138 $324 $477 forward 7 unknown #
edge $-1 $330 5.0235306421517022e-015 $476 7.3416219157487532 $197 $478 forward 7 unknown #
coedge $-1 $198 $468 $474 $479 reversed $328 $-1 #
loop $-1 $-1 $468 $316 #
vertex $-1 $479 $480 #
vertex $-1 $199 $481 #
straight-curve $-1 -9.6940866113615911 -27.295587346252745 41.408384729815275 0 0 -1 I I #
coedge $-1 $332 $332 $-1 $482 reversed $202 $-1 #
edge $-1 $483 0 $483 6.2831853071796004 $203 $484 forward 7 unknown #
vertex $-1 $206 $485 #
ellipse-curve $-1 -1.8218240149005709 -24.745627819310766 10.531661737372282 0 -0.71933980857756763 0.69465836192734942 1.5 0 0 1 I I #
face $-1 $-1 $486 $46 $-1 $487 forward single #
loop $-1 $-1 $488 $207 #
plane-surface $-1 6.0504385815604493 -104.88338986302824 82.816769459630549 -1 0 0 0 -0.71933980857756763 0.69465836192734942 forward_v I I I I #
coedge $-1 $213 $489 $341 $490 forward $208 $-1 #
coedge $-1 $344 $210 $491 $492 reversed $130 $-1 #
coedge $-1 $210 $344 $339 $490 reversed $130 $-1 #
coedge $-1 $488 $493 $210 $343 forward $337 $-1 #
edge $-1 $494 -7.3416219157487532 $495 -5.0235306421517022e-015 $342 $496 forward 7 unknown #
coedge $-1 $341 $340 $211 $345 forward $130 $-1 #
edge $-1 $497 -7.3416219157487532 $349 -5.0235306421517022e-015 $211 $498 forward 7 unknown #
coedge $-1 $491 $499 $212 $347 forward $486 $-1 #
edge $-1 $350 25.14610758526138 $497 30.246026639145335 $346 $500 forward 7 unknown #
coedge $-1 $489 $213 $499 $501 reversed $208 $-1 #
vertex $-1 $214 $502 #
vertex $-1 $347 $503 #
straight-curve $-1 21.79496377448249 -27.295587346252745 41.408384729815275 0 0 1 I I #
coedge $-1 $352 $352 $-1 $504 reversed $217 $-1 #
edge $-1 $505 0 $505 6.2831853071796004 $218 $506 forward 7 unknown #
vertex $-1 $221 $507 #
ellipse-curve $-1 13.92270117802147 -24.745627819310766 10.531661737372282 0 -0.71933980857756763 0.69465836192734942 1.5 0 0 1 I I #
face $-1 $-1 $368 $48 $-1 $508 forward single #
loop $-1 $-1 $509 $222 #
plane-surface $-1 0 27.295587346252741 0 0 -1 0 0 0 -1 forward_v I I I I #
coedge $-1 $510 $511 $512 $513 reversed $223 $-1 #
coedge $-1 $514 $225 $227 $366 forward $139 $-1 #
coedge $-1 $225 $514 $510 $515 forward $139 $-1 #
coedge $-1 $512 $228 $225 $363 forward $368 $-1 #
edge $-1 $370 -16.296283823488359 $516 7.3536734064403433 $362 $517 forward 7 unknown #
coedge $-1 $518 $519 $226 $365 forward $357 $-1 #
edge $-1 $520 -53.954736834468427 $369 -44.02320886306471 $364 $521 forward 7 unknown #
edge $-1 $370 41.626485824672415 $520 54.591174692505497 $227 $522 forward 7 unknown #
coedge $-1 $228 $512 $518 $523 forward $368 $-1 #
loop $-1 $-1 $512 $356 #
vertex $-1 $365 $524 #
vertex $-1 $229 $525 #
straight-curve $-1 -20.767589032012367 37.415205100219453 13.172222189134068 0 -1 0 I I #
coedge $-1 $372 $372 $-1 $526 reversed $232 $-1 #
edge $-1 $527 0 $527 6.2831853071796004 $233 $528 forward 7 unknown #
vertex $-1 $236 $529 #
ellipse-curve $-1 -16.037597586026628 23.128816726427953 8.2064582034322147 0 0.7660444514056185 0.64278759981090561 2 0 0 1 I I #
coedge $-1 $376 $376 $-1 $530 reversed $239 $-1 #
edge $-1 $531 0 $531 6.2831853071796004 $240 $532 forward 7 unknown #
vertex $-1 $243 $533 #
ellipse-curve $-1 -8.9426104170480158 23.128816726427953 8.2064582034322147 0 0.7660444514056185 0.64278759981090561 2 0 0 1 I I #
coedge $-1 $380 $380 $-1 $534 reversed $246 $-1 #
edge $-1 $535 0 $535 6.2831853071796004 $247 $536 forward 7 unknown #
vertex $-1 $250 $537 #
ellipse-curve $-1 -1.8476232480694037 23.128816726427953 8.2064582034322147 0 0.7660444514056185 0.64278759981090561 2 0 0 1 I I #
face $-1 $-1 $538 $52 $-1 $539 reversed single #
loop $-1 $-1 $257 $251 #
plane-surface $-1 0 0 13.172222189134072 0 0 1 1 0 0 forward_v I I I I #
coedge $-1 $540 $541 $542 $543 reversed $252 $-1 #
coedge $-1 $544 $254 $256 $394 forward $158 $-1 #
coedge $-1 $254 $544 $540 $545 forward $158 $-1 #
coedge $-1 $542 $257 $254 $391 forward $385 $-1 #
edge $-1 $397 7.6434311183435 $546 31.293388348272202 $390 $547 forward 7 unknown #
coedge $-1 $548 $549 $255 $393 forward $538 $-1 #
edge $-1 $550 -53.954736834468427 $396 -44.02320886306471 $392 $551 forward 7 unknown #
edge $-1 $397 41.626485824672415 $550 54.591174692505497 $256 $552 forward 7 unknown #
coedge $-1 $257 $542 $548 $553 forward $385 $-1 #
vertex $-1 $258 $554 #
vertex $-1 $258 $555 #
straight-curve $-1 27.111840851651351 37.415205100219453 13.172222189134068 0 -1 0 I I #
coedge $-1 $399 $399 $-1 $556 reversed $261 $-1 #
edge $-1 $557 0 $557 6.2831853071796004 $262 $558 forward 7 unknown #
vertex $-1 $265 $559 #
ellipse-curve $-1 31.841832297637083 23.128816726427953 8.2064582034322147 0 0.7660444514056185 0.64278759981090561 2 0 0 1 I I #
coedge $-1 $403 $403 $-1 $560 reversed $268 $-1 #
edge $-1 $561 0 $561 6.2831853071796004 $269 $562 forward 7 unknown #
vertex $-1 $272 $563 #
ellipse-curve $-1 38.936819466615702 23.128816726427953 8.2064582034322147 0 0.7660444514056185 0.64278759981090561 2 0 0 1 I I #
coedge $-1 $407 $407 $-1 $564 reversed $275 $-1 #
edge $-1 $565 0 $565 6.2831853071796004 $276 $566 forward 7 unknown #
vertex $-1 $279 $567 #
ellipse-curve $-1 46.031806635594307 23.128816726427953 8.2064582034322147 0 0.7660444514056185 0.64278759981090561 2 0 0 1 I I #
face $-1 $-1 $295 $42 $-1 $568 reversed single #
loop $-1 $-1 $427 $280 #
plane-surface $-1 0 27.295587346252741 0 0 -1 0 0 0 -1 forward_v I I I I #
coedge $-1 $569 $425 $428 $570 forward $281 $-1 #
coedge $-1 $431 $283 $284 $419 reversed $177 $-1 #
coedge $-1 $425 $569 $283 $417 reversed $281 $-1 #
edge $-1 $432 -13.172222189134072 $571 13.172222189134072 $416 $572 forward 7 unknown #
coedge $-1 $285 $284 $569 $573 forward $113 $-1 #
edge $-1 $423 -53.92986846522416 $571 53.92986846522416 $415 $574 forward 7 unknown #
coedge $-1 $428 $427 $285 $421 reversed $412 $-1 #
edge $-1 $575 -53.92986846522416 $422 53.92986846522416 $420 $576 forward 7 unknown #
vertex $-1 $287 $577 #
vertex $-1 $434 $578 #
straight-curve $-1 53.92986846522416 0 -13.172222189134072 0 -1 0 I I #
coedge $-1 $414 $416 $288 $426 reversed $281 $-1 #
edge $-1 $429 -27.295587346252741 $432 27.295587346252741 $425 $579 forward 7 unknown #
coedge $-1 $420 $289 $294 $435 forward $412 $-1 #
coedge $-1 $289 $420 $414 $570 reversed $412 $-1 #
vertex $-1 $290 $580 #
straight-curve $-1 0 27.295587346252741 13.172222189134072 -1 0 0 I I #
coedge $-1 $291 $415 $293 $434 reversed $177 $-1 #
vertex $-1 $426 $581 #
straight-curve $-1 0 -27.295587346252741 13.172222189134072 1 0 0 I I #
edge $-1 $296 -13.172222189134072 $423 13.172222189134072 $293 $582 forward 7 unknown #
edge $-1 $297 -13.172222189134072 $422 13.172222189134072 $294 $583 forward 7 unknown #
point $-1 53.92986846522416 -27.295587346252741 13.172222189134072 #
point $-1 53.92986846522416 27.295587346252741 13.172222189134072 #
face $-1 $-1 $455 $43 $-1 $584 reversed single #
loop $-1 $-1 $585 $299 #
plane-surface $-1 -53.92986846522416 0 0 1 0 0 0 0 -1 forward_v I I I I #
coedge $-1 $442 $458 $303 $445 forward $300 $-1 #
coedge $-1 $310 $441 $302 $443 forward $300 $-1 #
edge $-1 $449 -1.1790414187775378 $313 3.5781058007352273 $442 $586 forward 7 unknown #
coedge $-1 $304 $303 $585 $587 reversed $117 $-1 #
edge $-1 $588 -29.990153523392305 $449 -17.889276360271406 $441 $589 forward 7 unknown #
coedge $-1 $454 $453 $304 $447 forward $455 $-1 #
edge $-1 $448 17.889276360271406 $590 29.990153523392305 $446 $591 forward 7 unknown #
vertex $-1 $447 $592 #
vertex $-1 $445 $593 #
straight-curve $-1 -41.828991302103262 0 0.020490772201307017 0 -1 0 I I #
coedge $-1 $594 $595 $307 $452 forward $439 $-1 #
edge $-1 $459 -27.295587346252741 $456 27.295587346252741 $451 $596 forward 7 unknown #
coedge $-1 $446 $308 $312 $461 forward $455 $-1 #
coedge $-1 $308 $446 $594 $597 reversed $455 $-1 #
loop $-1 $-1 $446 $438 #
vertex $-1 $597 $598 #
straight-curve $-1 -23.939714941831856 27.295587346252741 4.7776379917140721 1 0 0 I I #
coedge $-1 $441 $310 $595 $599 forward $300 $-1 #
vertex $-1 $599 $600 #
straight-curve $-1 -23.939714941831856 -27.295587346252741 4.7776379917140721 -1 0 0 I I #
edge $-1 $314 -3.5781058007352273 $448 1.1790414187775378 $453 $601 forward 7 unknown #
point $-1 -41.828991302103262 -27.295587346252741 4.7776379917140721 #
point $-1 -41.828991302103262 27.295587346252741 4.7776379917140721 #
plane-surface $-1 0 -27.295587346252741 0 0 1 0 0 0 1 forward_v I I I I #
coedge $-1 $475 $474 $467 $602 forward $317 $-1 #
coedge $-1 $467 $319 $321 $471 reversed $193 $-1 #
coedge $-1 $319 $466 $465 $602 reversed $193 $-1 #
coedge $-1 $327 $322 $319 $469 forward $328 $-1 #
edge $-1 $472 -33.517283444204779 $603 -28.236162540681203 $468 $604 forward 7 unknown #
coedge $-1 $321 $320 $475 $605 reversed $121 $-1 #
edge $-1 $606 -7.3416219157487532 $472 -5.0235306421517022e-015 $466 $607 forward 7 unknown #
vertex $-1 $323 $608 #
straight-curve $-1 -0.91091200745028544 -27.295587346252741 7.8911012856104961 1 0 0 I I #
coedge $-1 $465 $324 $327 $479 forward $317 $-1 #
coedge $-1 $324 $465 $470 $605 forward $317 $-1 #
vertex $-1 $325 $609 #
straight-curve $-1 -9.6940866113615911 -52.441694931514121 13.172222189134075 0 -1 0 I I #
straight-curve $-1 -9.6940866113615911 -27.295587346252745 7.891101285610489 0 0.69465836192734942 0.71933980857756763 I I #
edge $-1 $329 -9.6940866113615911 $603 6.0504385815604493 $327 $610 forward 7 unknown #
point $-1 -9.6940866113615911 -27.295587346252741 13.172222189134072 #
point $-1 -9.6940866113615911 -27.295587346252741 7.8911012856104925 #
edge $-1 $611 1 $611 0 $332 $-1 forward 7 unknown #
vertex $-1 $333 $612 #
ellipse-curve $-1 -1.8218240149005709 -22.505744989965105 8.3686320835300787 0 -0.71933980857756763 0.69465836192734942 1.5 0 0 1 I I #
point $-1 -0.32182401490057089 -24.745627819310766 10.531661737372282 #
loop $-1 $-1 $491 $336 #
plane-surface $-1 0 0 13.172222189134072 0 0 1 1 0 0 forward_v I I I I #
coedge $-1 $493 $342 $489 $613 reversed $337 $-1 #
coedge $-1 $339 $348 $488 $613 forward $208 $-1 #
edge $-1 $495 6.9613505890107348 $349 22.705875781932775 $339 $614 forward 7 unknown #
coedge $-1 $615 $346 $340 $492 forward $486 $-1 #
edge $-1 $497 -22.705875781932775 $494 -6.9613505890107348 $491 $616 forward 7 unknown #
coedge $-1 $342 $488 $615 $617 reversed $337 $-1 #
vertex $-1 $492 $618 #
vertex $-1 $490 $619 #
straight-curve $-1 6.0504385815604493 -27.295587346252745 7.891101285610489 0 -0.69465836192734942 -0.71933980857756763 I I #
vertex $-1 $347 $620 #
straight-curve $-1 21.79496377448249 -27.295587346252745 7.891101285610489 0 -0.69465836192734942 -0.71933980857756763 I I #
coedge $-1 $346 $615 $348 $501 forward $486 $-1 #
straight-curve $-1 21.79496377448249 -52.441694931514121 13.172222189134075 0 1 0 I I #
edge $-1 $621 6.0504385815604493 $350 21.79496377448249 $348 $622 forward 7 unknown #
point $-1 21.79496377448249 -27.295587346252741 7.8911012856104925 #
point $-1 21.79496377448249 -27.295587346252741 13.172222189134072 #
edge $-1 $623 1 $623 0 $352 $-1 forward 7 unknown #
vertex $-1 $353 $624 #
ellipse-curve $-1 13.92270117802147 -22.505744989965105 8.3686320835300787 0 -0.71933980857756763 0.69465836192734942 1.5 0 0 1 I I #
point $-1 15.42270117802147 -24.745627819310766 10.531661737372282 #
plane-surface $-1 0 0 13.172222189134072 0 0 1 1 0 0 forward_v I I I I #
coedge $-1 $519 $518 $511 $625 forward $357 $-1 #
coedge $-1 $511 $359 $361 $515 reversed $223 $-1 #
coedge $-1 $359 $510 $509 $625 reversed $223 $-1 #
coedge $-1 $367 $362 $359 $513 forward $368 $-1 #
edge $-1 $516 -18.453158993616295 $626 -10.119617753966711 $512 $627 forward 7 unknown #
coedge $-1 $361 $360 $519 $628 reversed $139 $-1 #
edge $-1 $629 -54.591174692505497 $516 -41.626485824672415 $510 $630 forward 7 unknown #
vertex $-1 $363 $631 #
straight-curve $-1 -4.4713052085240079 18.962046106603164 13.172222189134072 1 0 0 I I #
coedge $-1 $509 $364 $367 $523 reversed $357 $-1 #
coedge $-1 $364 $509 $514 $628 forward $357 $-1 #
vertex $-1 $365 $632 #
straight-curve $-1 -20.767589032012367 27.295587346252741 57.195431052198785 0 0 1 I I #
straight-curve $-1 -20.767589032012367 -7.794942805200705 45.059960686639002 0 0.64278759981090561 -0.7660444514056185 I I #
edge $-1 $626 -2.8823681979163354 $369 20.767589032012367 $518 $633 forward 7 unknown #
point $-1 -20.767589032012367 27.295587346252741 13.172222189134072 #
point $-1 -20.767589032012367 18.962046106603157 13.172222189134075 #
edge $-1 $634 1 $634 0 $372 $-1 forward 7 unknown #
vertex $-1 $373 $635 #
ellipse-curve $-1 -16.037597586026628 18.919792069237335 4.6746672584340132 0 0.7660444514056185 0.64278759981090561 2 0 0 1 I I #
point $-1 -14.037597586026628 23.128816726427946 8.2064582034322076 #
edge $-1 $636 1 $636 0 $376 $-1 forward 7 unknown #
vertex $-1 $377 $637 #
ellipse-curve $-1 -8.9426104170480158 18.919792069237335 4.6746672584340132 0 0.7660444514056185 0.64278759981090561 2 0 0 1 I I #
point $-1 -6.9426104170480158 23.128816726427946 8.2064582034322076 #
edge $-1 $638 1 $638 0 $380 $-1 forward 7 unknown #
vertex $-1 $381 $639 #
ellipse-curve $-1 -1.8476232480694037 18.919792069237335 4.6746672584340132 0 0.7660444514056185 0.64278759981090561 2 0 0 1 I I #
point $-1 0.1523767519305963 23.128816726427946 8.2064582034322076 #
loop $-1 $-1 $392 $384 #
plane-surface $-1 0 27.295587346252741 0 0 -1 0 0 0 -1 forward_v I I I I #
coedge $-1 $541 $387 $389 $545 reversed $252 $-1 #
coedge $-1 $387 $540 $640 $641 reversed $252 $-1 #
coedge $-1 $395 $390 $387 $543 forward $385 $-1 #
edge $-1 $546 -18.453158993616295 $642 -10.119617753966711 $542 $643 forward 7 unknown #
coedge $-1 $389 $388 $549 $644 reversed $158 $-1 #
edge $-1 $645 -54.591174692505497 $546 -41.626485824672415 $540 $646 forward 7 unknown #
vertex $-1 $391 $647 #
straight-curve $-1 19.468409733307851 18.962046106603164 13.172222189134072 1 0 0 I I #
coedge $-1 $640 $392 $395 $553 reversed $538 $-1 #
coedge $-1 $392 $640 $544 $644 forward $538 $-1 #
vertex $-1 $393 $648 #
straight-curve $-1 27.111840851651351 27.295587346252741 57.195431052198785 0 0 1 I I #
straight-curve $-1 27.111840851651351 -7.794942805200705 45.059960686639002 0 0.64278759981090561 -0.7660444514056185 I I #
edge $-1 $642 -50.761798081580054 $396 -27.111840851651351 $548 $649 forward 7 unknown #
point $-1 27.111840851651351 27.295587346252741 13.172222189134072 #
point $-1 27.111840851651351 18.962046106603157 13.172222189134075 #
edge $-1 $650 1 $650 0 $399 $-1 forward 7 unknown #
vertex $-1 $400 $651 #
ellipse-curve $-1 31.841832297637083 18.919792069237335 4.6746672584340132 0 0.7660444514056185 0.64278759981090561 2 0 0 1 I I #
point $-1 33.841832297637083 23.128816726427946 8.2064582034322076 #
edge $-1 $652 1 $652 0 $403 $-1 forward 7 unknown #
vertex $-1 $404 $653 #
ellipse-curve $-1 38.936819466615702 18.919792069237335 4.6746672584340132 0 0.7660444514056185 0.64278759981090561 2 0 0 1 I I #
point $-1 40.936819466615702 23.128816726427946 8.2064582034322076 #
edge $-1 $654 1 $654 0 $407 $-1 forward 7 unknown #
vertex $-1 $408 $655 #
ellipse-curve $-1 46.031806635594307 18.919792069237335 4.6746672584340132 0 0.7660444514056185 0.64278759981090561 2 0 0 1 I I #
point $-1 48.031806635594307 23.128816726427946 8.2064582034322076 #
plane-surface $-1 53.92986846522416 0 0 -1 0 0 0 0 1 forward_v I I I I #
coedge $-1 $416 $414 $418 $573 reversed $281 $-1 #
edge $-1 $429 -13.172222189134072 $575 13.172222189134072 $428 $656 forward 7 unknown #
vertex $-1 $573 $657 #
straight-curve $-1 -53.92986846522416 -27.295587346252741 0 0 0 -1 I I #
edge $-1 $571 -27.295587346252741 $575 27.295587346252741 $569 $658 forward 7 unknown #
straight-curve $-1 0 -27.295587346252741 -13.172222189134072 -1 0 0 I I #
vertex $-1 $421 $659 #
straight-curve $-1 0 27.295587346252741 -13.172222189134072 1 0 0 I I #
point $-1 53.92986846522416 27.295587346252741 -13.172222189134072 #
point $-1 53.92986846522416 -27.295587346252741 -13.172222189134072 #
straight-curve $-1 -53.92986846522416 0 13.172222189134072 0 -1 0 I I #
point $-1 -53.92986846522416 27.295587346252741 13.172222189134072 #
point $-1 -53.92986846522416 -27.295587346252741 13.172222189134072 #
straight-curve $-1 53.92986846522416 -27.295587346252741 0 0 0 -1 I I #
straight-curve $-1 53.92986846522416 27.295587346252741 0 0 0 -1 I I #
plane-surface $-1 0 27.295587346252741 0 0 -1 0 0 0 -1 forward_v I I I I #
coedge $-1 $595 $594 $444 $587 forward $439 $-1 #
straight-curve $-1 -41.828991302103262 -27.295587346252741 1.1995321909788448 0 0 1 I I #
edge $-1 $590 -27.295587346252741 $588 27.295587346252741 $585 $660 forward 7 unknown #
vertex $-1 $445 $661 #
straight-curve $-1 -23.939714941831856 -27.295587346252741 0.020490772201307017 1 0 0 I I #
vertex $-1 $447 $662 #
straight-curve $-1 -23.939714941831856 27.295587346252741 0.020490772201307017 -1 0 0 I I #
point $-1 -41.828991302103262 27.295587346252741 0.020490772201307017 #
point $-1 -41.828991302103262 -27.295587346252741 0.020490772201307017 #
coedge $-1 $585 $451 $454 $597 forward $439 $-1 #
coedge $-1 $451 $585 $458 $599 reversed $439 $-1 #
straight-curve $-1 -53.92986846522416 0 4.7776379917140721 0 1 0 I I #
edge $-1 $456 -4.7776379917140721 $590 -0.020490772201307017 $454 $663 forward 7 unknown #
point $-1 -53.92986846522416 27.295587346252741 4.7776379917140721 #
edge $-1 $459 -4.7776379917140721 $588 -0.020490772201307017 $595 $664 forward 7 unknown #
point $-1 -53.92986846522416 -27.295587346252741 4.7776379917140721 #
straight-curve $-1 -41.828991302103262 27.295587346252741 1.1995321909788448 0 0 -1 I I #
edge $-1 $603 25.14610758526138 $606 30.246026639145335 $465 $665 forward 7 unknown #
vertex $-1 $602 $666 #
straight-curve $-1 6.0504385815604493 -27.295587346252745 41.408384729815275 0 0 1 I I #
edge $-1 $606 -6.9613505890107348 $476 8.7831746039113057 $475 $667 forward 7 unknown #
vertex $-1 $605 $668 #
straight-curve $-1 6.0504385815604493 -27.295587346252745 7.891101285610489 0 -0.69465836192734942 -0.71933980857756763 I I #
point $-1 6.0504385815604493 -27.295587346252741 7.8911012856104925 #
point $-1 -9.6940866113615911 -22.195668292368786 13.172222189134072 #
straight-curve $-1 0 -27.295587346252741 13.172222189134072 1 0 0 I I #
vertex $-1 $482 $669 #
point $-1 -0.32182401490057089 -22.505744989965105 8.3686320835300787 #
edge $-1 $621 28.236162540681203 $495 33.517283444204779 $489 $670 forward 7 unknown #
straight-curve $-1 -0.91091200745028544 -27.295587346252741 7.8911012856104961 1 0 0 I I #
coedge $-1 $499 $491 $493 $617 forward $486 $-1 #
straight-curve $-1 -0.91091200745028544 -22.19566829236879 13.172222189134072 -1 0 0 I I #
edge $-1 $494 -30.246026639145335 $621 -25.14610758526138 $615 $671 forward 7 unknown #
point $-1 6.0504385815604493 -22.195668292368786 13.172222189134072 #
point $-1 6.0504385815604493 -27.295587346252741 7.8911012856104925 #
point $-1 21.79496377448249 -22.195668292368786 13.172222189134072 #
vertex $-1 $501 $672 #
straight-curve $-1 0 -27.295587346252741 13.172222189134072 1 0 0 I I #
vertex $-1 $504 $673 #
point $-1 15.42270117802147 -22.505744989965105 8.3686320835300787 #
edge $-1 $626 44.02320886306471 $629 53.954736834468427 $509 $674 forward 7 unknown #
vertex $-1 $523 $675 #
straight-curve $-1 2.8823681979163354 37.415205100219453 13.172222189134068 0 1 0 I I #
edge $-1 $629 -7.3536734064403433 $520 16.296283823488359 $519 $676 forward 7 unknown #
vertex $-1 $628 $677 #
straight-curve $-1 2.8823681979163354 -7.794942805200705 45.059960686639002 0 -0.64278759981090561 0.7660444514056185 I I #
point $-1 2.8823681979163354 18.962046106603157 13.172222189134075 #
point $-1 -20.767589032012367 27.295587346252745 3.2406942177303577 #
straight-curve $-1 0 27.295587346252741 13.172222189134072 -1 0 0 I I #
vertex $-1 $526 $678 #
point $-1 -14.037597586026628 18.919792069237335 4.6746672584340132 #
vertex $-1 $530 $679 #
point $-1 -6.9426104170480158 18.919792069237335 4.6746672584340132 #
vertex $-1 $534 $680 #
point $-1 0.1523767519305963 18.919792069237335 4.6746672584340132 #
coedge $-1 $549 $548 $541 $641 forward $538 $-1 #
edge $-1 $642 44.02320886306471 $645 53.954736834468427 $640 $681 forward 7 unknown #
vertex $-1 $553 $682 #
straight-curve $-1 50.761798081580054 37.415205100219453 13.172222189134068 0 1 0 I I #
edge $-1 $645 -31.293388348272202 $550 -7.6434311183435 $549 $683 forward 7 unknown #
vertex $-1 $644 $684 #
straight-curve $-1 50.761798081580054 -7.794942805200705 45.059960686639002 0 -0.64278759981090561 0.7660444514056185 I I #
point $-1 50.761798081580054 18.962046106603157 13.172222189134075 #
point $-1 27.111840851651351 27.295587346252745 3.2406942177303577 #
straight-curve $-1 0 27.295587346252741 13.172222189134072 -1 0 0 I I #
vertex $-1 $556 $685 #
point $-1 33.841832297637083 18.919792069237335 4.6746672584340132 #
vertex $-1 $560 $686 #
point $-1 40.936819466615702 18.919792069237335 4.6746672584340132 #
vertex $-1 $564 $687 #
point $-1 48.031806635594307 18.919792069237335 4.6746672584340132 #
straight-curve $-1 -53.92986846522416 27.295587346252741 0 0 0 -1 I I #
point $-1 -53.92986846522416 -27.295587346252741 -13.172222189134072 #
straight-curve $-1 -53.92986846522416 0 -13.172222189134072 0 1 0 I I #
point $-1 -53.92986846522416 27.295587346252741 -13.172222189134072 #
straight-curve $-1 -53.92986846522416 0 0.020490772201307017 0 -1 0 I I #
point $-1 -53.92986846522416 -27.295587346252741 0.020490772201307017 #
point $-1 -53.92986846522416 27.295587346252741 0.020490772201307017 #
straight-curve $-1 -53.92986846522416 27.295587346252741 0 0 0 -1 I I #
straight-curve $-1 -53.92986846522416 -27.295587346252741 0 0 0 -1 I I #
straight-curve $-1 6.0504385815604493 -52.441694931514121 13.172222189134075 0 1 0 I I #
point $-1 6.0504385815604493 -27.295587346252741 13.172222189134072 #
straight-curve $-1 -0.91091200745028544 -22.19566829236879 13.172222189134072 -1 0 0 I I #
point $-1 6.0504385815604493 -22.195668292368786 13.172222189134072 #
point $-1 -1.8218240149005709 -21.426735277098754 7.3266445406390543 #
straight-curve $-1 6.0504385815604493 -27.295587346252745 41.408384729815275 0 0 -1 I I #
straight-curve $-1 6.0504385815604493 -52.441694931514121 13.172222189134075 0 -1 0 I I #
point $-1 6.0504385815604493 -27.295587346252741 13.172222189134072 #
point $-1 13.92270117802147 -21.426735277098754 7.3266445406390543 #
straight-curve $-1 2.8823681979163354 27.295587346252741 57.195431052198785 0 0 -1 I I #
point $-1 2.8823681979163354 27.295587346252741 13.172222189134072 #
straight-curve $-1 -4.4713052085240079 27.295587346252738 3.2406942177303613 -1 0 0 I I #
point $-1 2.8823681979163354 27.295587346252745 3.2406942177303577 #
point $-1 -16.037597586026628 17.387703166426096 3.3890920588122024 #
point $-1 -8.9426104170480158 17.387703166426096 3.3890920588122024 #
point $-1 -1.8476232480694037 17.387703166426096 3.3890920588122024 #
straight-curve $-1 50.761798081580054 27.295587346252741 57.195431052198785 0 0 -1 I I #
point $-1 50.761798081580054 27.295587346252741 13.172222189134072 #
straight-curve $-1 19.468409733307851 27.295587346252738 3.2406942177303613 -1 0 0 I I #
point $-1 50.761798081580054 27.295587346252745 3.2406942177303577 #
point $-1 31.841832297637083 17.387703166426096 3.3890920588122024 #
point $-1 38.936819466615702 17.387703166426096 3.3890920588122024 #
point $-1 46.031806635594307 17.387703166426096 3.3890920588122024 #
End-of-ACIS-data 