500 0 5 0           
7 Unknown 11 ACIS 5.0 NT 24 Fri Mar 26 20:33:35 1999 
-1 9.9999999999999995e-007 1e-010 
body $-1 $5 $-1 $6 #
body $-1 $7 $-1 $8 #
body $-1 $9 $-1 $10 #
body $-1 $11 $-1 $12 #
body $-1 $13 $-1 $14 #
lump $-1 $-1 $15 $0 #
transform $-1 1 0 0 0 1 0 0 0 1 79.898678548539692 52.40023903331258 17.708968383040769 1 rotate no_reflect no_shear #
lump $-1 $-1 $16 $1 #
transform $-1 1 0 0 0 1 0 0 0 1 79.898678548539692 52.40023903331258 17.708968383040769 1 rotate no_reflect no_shear #
lump $-1 $-1 $17 $2 #
transform $-1 1 0 0 0 1 0 0 0 1 79.898678548539692 52.40023903331258 17.708968383040769 1 rotate no_reflect no_shear #
lump $-1 $-1 $18 $3 #
transform $-1 1 0 0 0 1 0 0 0 1 79.898678548539692 52.40023903331258 17.708968383040769 1 rotate no_reflect no_shear #
lump $-1 $-1 $19 $4 #
transform $-1 1 0 0 0 1 0 0 0 1 79.898678548539692 52.40023903331258 17.708968383040769 1 rotate no_reflect no_shear #
shell $-1 $-1 $-1 $20 $-1 $5 #
shell $-1 $-1 $-1 $21 $-1 $7 #
shell $-1 $-1 $-1 $22 $-1 $9 #
shell $-1 $-1 $-1 $23 $-1 $11 #
shell $-1 $-1 $-1 $24 $-1 $13 #
face $-1 $25 $26 $15 $-1 $27 forward single #
face $-1 $28 $29 $16 $-1 $30 reversed single #
face $-1 $31 $32 $17 $-1 $33 reversed single #
face $-1 $34 $35 $18 $-1 $36 reversed single #
face $-1 $37 $38 $19 $-1 $39 forward single #
face $-1 $40 $41 $15 $-1 $42 reversed single #
loop $-1 $-1 $43 $20 #
plane-surface $-1 0 0 17.708968383040769 0 0 1 1 0 0 forward_v I I I I #
face $-1 $44 $45 $16 $-1 $46 reversed single #
loop $-1 $-1 $47 $21 #
plane-surface $-1 -53.835413670090617 -41.009092529018972 0 1 0 0 0 0 -1 forward_v I I I I #
face $-1 $48 $49 $17 $-1 $50 reversed single #
loop $-1 $-1 $51 $22 #
plane-surface $-1 -49.158077726274385 29.617946024725356 0 0 1 0 0 0 1 forward_v I I I I #
face $-1 $52 $53 $18 $-1 $54 reversed single #
loop $-1 $-1 $55 $23 #
plane-surface $-1 91.725957944287757 -4.5863438397457195 227.96545430502852 0 -1 0 -0.74314483375859142 0 -0.66913059716165679 forward_v I I I I #
face $-1 $56 $57 $19 $-1 $58 forward single #
loop $-1 $59 $60 $24 #
cone-surface $-1 69.316891117836633 -12.732799183046502 6.7216606374266874 -0.74314483375859142 0 -0.66913059716165679 2.6765223886466272 0 -2.9725793350343657 1 I I 0 1 4 forward I I I I #
face $-1 $61 $62 $15 $-1 $63 reversed single #
loop $-1 $-1 $64 $25 #
plane-surface $-1 0 0 -17.708968383040769 0 0 1 1 0 0 forward_v I I I I #
coedge $-1 $65 $66 $67 $68 forward $26 $-1 #
face $-1 $69 $70 $16 $-1 $71 reversed single #
loop $-1 $-1 $72 $28 #
plane-surface $-1 -49.158077726274385 -29.617946024725363 0 0 -1 0 0 0 -1 forward_v I I I I #
coedge $-1 $73 $74 $75 $76 forward $29 $-1 #
face $-1 $77 $78 $17 $-1 $79 reversed single #
loop $-1 $-1 $80 $31 #
plane-surface $-1 -53.835413670090617 41.009092529018965 0 1 0 0 0 0 -1 forward_v I I I I #
coedge $-1 $81 $82 $83 $84 forward $32 $-1 #
face $-1 $85 $86 $18 $-1 $87 reversed single #
loop $-1 $-1 $88 $34 #
plane-surface $-1 -27.026622430683574 -12.732799183046502 121.04015332580528 0.74314483375859142 0 0.66913059716165679 0.66913059716165679 0 -0.74314483375859142 forward_v I I I I #
coedge $-1 $89 $90 $91 $92 reversed $35 $-1 #
face $-1 $-1 $93 $19 $-1 $94 forward single #
loop $-1 $95 $96 $37 #
cone-surface $-1 64.191557254759857 -12.732799183046502 2.1067894135926934 -0.74314483375859142 0 -0.66913059716165679 1.3382611943233136 0 -1.4862896675171828 1 I I -0.70710678118654746 0.70710678118654746 2 forward I I I I #
loop $-1 $-1 $97 $24 #
coedge $-1 $60 $60 $98 $99 reversed $38 $-1 #
face $-1 $100 $101 $15 $-1 $102 reversed single #
loop $-1 $-1 $103 $40 #
plane-surface $-1 0 -52.40023903331258 0 0 1 0 0 0 1 forward_v I I I I #
coedge $-1 $104 $105 $106 $107 forward $41 $-1 #
coedge $-1 $108 $43 $109 $110 forward $26 $-1 #
coedge $-1 $43 $108 $111 $112 forward $26 $-1 #
coedge $-1 $113 $114 $43 $68 reversed $115 $-1 #
edge $-1 $116 -52.40023903331258 $117 52.40023903331258 $67 $118 forward 7 unknown #
face $-1 $119 $120 $16 $-1 $121 forward single #
loop $-1 $-1 $122 $44 #
plane-surface $-1 -44.480741782458153 -41.009092529018972 0 -1 0 0 0 0 1 forward_v I I I I #
coedge $-1 $123 $124 $125 $126 forward $45 $-1 #
coedge $-1 $127 $47 $128 $129 reversed $29 $-1 #
coedge $-1 $47 $127 $130 $131 reversed $29 $-1 #
coedge $-1 $124 $123 $47 $76 reversed $45 $-1 #
edge $-1 $132 -17.708968383040769 $133 17.708968383040769 $75 $134 forward 7 unknown #
face $-1 $135 $136 $17 $-1 $137 reversed single #
loop $-1 $-1 $138 $48 #
plane-surface $-1 -44.480741782458153 41.009092529018965 0 -1 0 0 0 0 1 forward_v I I I I #
coedge $-1 $139 $140 $141 $142 reversed $49 $-1 #
coedge $-1 $143 $51 $144 $145 reversed $32 $-1 #
coedge $-1 $51 $143 $146 $147 reversed $32 $-1 #
coedge $-1 $140 $139 $51 $84 reversed $49 $-1 #
edge $-1 $148 -17.708968383040769 $149 17.708968383040769 $83 $150 forward 7 unknown #
face $-1 $151 $152 $18 $-1 $153 forward single #
loop $-1 $-1 $154 $52 #
plane-surface $-1 91.725957944287757 -20.879254526347285 227.96545430502852 0 1 0 0.74314483375859142 0 0.66913059716165679 forward_v I I I I #
coedge $-1 $155 $156 $157 $158 reversed $53 $-1 #
coedge $-1 $90 $55 $159 $160 reversed $35 $-1 #
coedge $-1 $55 $89 $155 $161 reversed $35 $-1 #
coedge $-1 $157 $162 $55 $92 forward $152 $-1 #
edge $-1 $163 -34.035699576395814 $164 -20.150213106108794 $91 $165 forward 7 unknown #
loop $-1 $-1 $98 $56 #
plane-surface $-1 -27.026622430683574 -12.732799183046502 121.04015332580528 0.74314483375859142 0 0.66913059716165679 0.66913059716165679 0 -0.74314483375859142 forward_v I I I I #
loop $-1 $-1 $166 $37 #
coedge $-1 $96 $96 $97 $167 reversed $57 $-1 #
coedge $-1 $97 $97 $96 $167 forward $59 $-1 #
coedge $-1 $98 $98 $60 $99 forward $93 $-1 #
edge $-1 $168 0 $168 6.2831853071796004 $98 $169 forward 7 unknown #
face $-1 $170 $171 $15 $-1 $172 reversed single #
loop $-1 $-1 $173 $61 #
plane-surface $-1 -79.898678548539692 0 0 1 0 0 0 0 -1 forward_v I I I I #
coedge $-1 $174 $111 $175 $176 forward $62 $-1 #
coedge $-1 $177 $64 $174 $178 forward $41 $-1 #
coedge $-1 $64 $177 $179 $180 forward $41 $-1 #
coedge $-1 $114 $113 $64 $107 reversed $115 $-1 #
edge $-1 $181 -52.40023903331258 $182 52.40023903331258 $106 $183 forward 7 unknown #
coedge $-1 $66 $65 $184 $185 forward $26 $-1 #
coedge $-1 $186 $187 $65 $110 reversed $171 $-1 #
edge $-1 $117 -79.898678548539692 $188 79.898678548539692 $109 $189 forward 7 unknown #
coedge $-1 $103 $190 $66 $112 reversed $62 $-1 #
edge $-1 $191 -79.898678548539692 $116 79.898678548539692 $111 $192 forward 7 unknown #
coedge $-1 $106 $67 $190 $193 forward $115 $-1 #
coedge $-1 $67 $106 $186 $194 reversed $115 $-1 #
loop $-1 $-1 $113 $170 #
vertex $-1 $68 $195 #
vertex $-1 $68 $196 #
straight-curve $-1 79.898678548539692 0 17.708968383040769 0 1 0 I I #
face $-1 $197 $198 $16 $-1 $199 reversed single #
loop $-1 $-1 $200 $69 #
plane-surface $-1 0 0 17.708968383040769 0 0 1 1 0 0 forward_v I I I I #
coedge $-1 $201 $202 $203 $204 reversed $70 $-1 #
coedge $-1 $75 $72 $205 $206 reversed $45 $-1 #
coedge $-1 $72 $75 $207 $208 reversed $45 $-1 #
coedge $-1 $202 $201 $72 $126 reversed $70 $-1 #
edge $-1 $209 -17.708968383040769 $210 17.708968383040769 $125 $211 forward 7 unknown #
coedge $-1 $74 $73 $212 $213 reversed $29 $-1 #
coedge $-1 $205 $214 $73 $129 forward $198 $-1 #
edge $-1 $215 -31.895692768803094 $133 -9.1133997602158772 $128 $216 forward 7 unknown #
coedge $-1 $217 $207 $74 $131 forward $120 $-1 #
edge $-1 $132 9.1133997602158772 $218 31.895692768803094 $130 $219 forward 7 unknown #
vertex $-1 $131 $220 #
vertex $-1 $129 $221 #
straight-curve $-1 -53.835413670090617 -29.617946024725363 0 0 0 -1 I I #
face $-1 $222 $223 $17 $-1 $224 forward single #
loop $-1 $-1 $225 $77 #
plane-surface $-1 0 0 -17.708968383040769 0 0 1 1 0 0 forward_v I I I I #
coedge $-1 $226 $227 $143 $228 forward $78 $-1 #
coedge $-1 $83 $80 $229 $230 reversed $49 $-1 #
coedge $-1 $80 $83 $231 $232 reversed $49 $-1 #
coedge $-1 $233 $234 $80 $142 forward $235 $-1 #
edge $-1 $236 -17.708968383040769 $237 17.708968383040769 $141 $238 forward 7 unknown #
coedge $-1 $82 $81 $138 $228 reversed $32 $-1 #
coedge $-1 $229 $225 $81 $145 forward $136 $-1 #
edge $-1 $239 19.901702919320961 $149 29.256374806953424 $144 $240 forward 7 unknown #
coedge $-1 $241 $231 $82 $147 forward $223 $-1 #
edge $-1 $148 -29.256374806953424 $242 -19.901702919320961 $146 $243 forward 7 unknown #
vertex $-1 $147 $244 #
vertex $-1 $145 $245 #
straight-curve $-1 -53.835413670090617 29.617946024725356 0 0 0 -1 I I #
face $-1 $-1 $246 $18 $-1 $247 reversed single #
loop $-1 $-1 $91 $85 #
plane-surface $-1 0 0 17.708968383040769 0 0 1 1 0 0 forward_v I I I I #
coedge $-1 $248 $249 $250 $251 reversed $86 $-1 #
coedge $-1 $252 $88 $90 $161 forward $53 $-1 #
coedge $-1 $88 $252 $248 $253 forward $53 $-1 #
coedge $-1 $250 $91 $88 $158 forward $152 $-1 #
edge $-1 $164 -1.7800557517775317 $254 14.512854934824034 $157 $255 forward 7 unknown #
coedge $-1 $256 $257 $89 $160 forward $246 $-1 #
edge $-1 $258 -111.69515420168032 $163 -96.273758769473488 $159 $259 forward 7 unknown #
edge $-1 $164 139.04582289854326 $258 159.79735709707938 $90 $260 forward 7 unknown #
coedge $-1 $91 $250 $256 $261 forward $152 $-1 #
vertex $-1 $92 $262 #
vertex $-1 $92 $263 #
straight-curve $-1 45.862978972143878 -4.5863438397457195 17.708968383040769 -1 0 0 I I #
coedge $-1 $166 $166 $-1 $264 reversed $95 $-1 #
edge $-1 $265 0 $265 6.2831853071796004 $96 $266 forward 7 unknown #
vertex $-1 $99 $267 #
ellipse-curve $-1 72.955935313396196 -12.732799183046502 9.9982706669373513 0.74314483375859142 0 0.66913059716165679 2.6765223886466272 0 -2.9725793350343657 1 I I #
face $-1 $-1 $115 $15 $-1 $268 reversed single #
loop $-1 $-1 $186 $100 #
plane-surface $-1 0 52.40023903331258 0 0 -1 0 0 0 -1 forward_v I I I I #
coedge $-1 $269 $184 $187 $270 forward $101 $-1 #
coedge $-1 $190 $103 $104 $178 reversed $62 $-1 #
coedge $-1 $184 $269 $103 $176 reversed $101 $-1 #
edge $-1 $191 -17.708968383040769 $271 17.708968383040769 $175 $272 forward 7 unknown #
coedge $-1 $105 $104 $269 $273 forward $41 $-1 #
edge $-1 $182 -79.898678548539692 $271 79.898678548539692 $174 $274 forward 7 unknown #
coedge $-1 $187 $186 $105 $180 reversed $171 $-1 #
edge $-1 $275 -79.898678548539692 $181 79.898678548539692 $179 $276 forward 7 unknown #
vertex $-1 $107 $277 #
vertex $-1 $193 $278 #
straight-curve $-1 79.898678548539692 0 -17.708968383040769 0 -1 0 I I #
coedge $-1 $173 $175 $108 $185 reversed $101 $-1 #
edge $-1 $188 -52.40023903331258 $191 52.40023903331258 $184 $279 forward 7 unknown #
coedge $-1 $179 $109 $114 $194 forward $171 $-1 #
coedge $-1 $109 $179 $173 $270 reversed $171 $-1 #
vertex $-1 $110 $280 #
straight-curve $-1 0 52.40023903331258 17.708968383040769 -1 0 0 I I #
coedge $-1 $111 $174 $113 $193 reversed $62 $-1 #
vertex $-1 $185 $281 #
straight-curve $-1 0 -52.40023903331258 17.708968383040769 1 0 0 I I #
edge $-1 $116 -17.708968383040769 $182 17.708968383040769 $113 $282 forward 7 unknown #
edge $-1 $117 -17.708968383040769 $181 17.708968383040769 $114 $283 forward 7 unknown #
point $-1 79.898678548539692 -52.40023903331258 17.708968383040769 #
point $-1 79.898678548539692 52.40023903331258 17.708968383040769 #
face $-1 $-1 $284 $16 $-1 $285 reversed single #
loop $-1 $-1 $286 $119 #
plane-surface $-1 0 0 -17.708968383040769 0 0 1 1 0 0 forward_v I I I I #
coedge $-1 $207 $217 $202 $287 forward $120 $-1 #
coedge $-1 $125 $122 $286 $288 reversed $70 $-1 #
coedge $-1 $122 $125 $200 $287 reversed $70 $-1 #
coedge $-1 $289 $290 $122 $204 forward $284 $-1 #
edge $-1 $291 -17.708968383040769 $292 17.708968383040769 $203 $293 forward 7 unknown #
coedge $-1 $286 $128 $123 $206 forward $198 $-1 #
edge $-1 $133 -29.256374806953424 $210 -19.901702919320961 $205 $294 forward 7 unknown #
coedge $-1 $130 $200 $124 $208 forward $120 $-1 #
edge $-1 $209 19.901702919320961 $132 29.256374806953424 $207 $295 forward 7 unknown #
vertex $-1 $208 $296 #
vertex $-1 $206 $297 #
straight-curve $-1 -44.480741782458153 -29.617946024725363 0 0 0 -1 I I #
coedge $-1 $290 $289 $127 $213 forward $284 $-1 #
edge $-1 $218 -17.708968383040769 $215 17.708968383040769 $212 $298 forward 7 unknown #
coedge $-1 $128 $286 $290 $299 forward $198 $-1 #
vertex $-1 $129 $300 #
straight-curve $-1 -53.835413670090617 -20.504546264509486 -17.708968383040769 0 1 0 I I #
coedge $-1 $200 $130 $289 $301 forward $120 $-1 #
vertex $-1 $301 $302 #
straight-curve $-1 -53.835413670090617 -20.504546264509486 17.708968383040769 0 -1 0 I I #
point $-1 -53.835413670090617 -29.617946024725363 17.708968383040769 #
point $-1 -53.835413670090617 -29.617946024725363 -17.708968383040769 #
face $-1 $-1 $235 $17 $-1 $303 reversed single #
loop $-1 $-1 $241 $135 #
plane-surface $-1 0 0 17.708968383040769 0 0 1 1 0 0 forward_v I I I I #
coedge $-1 $144 $304 $226 $305 forward $136 $-1 #
coedge $-1 $306 $138 $225 $305 reversed $78 $-1 #
coedge $-1 $138 $306 $241 $307 reversed $78 $-1 #
edge $-1 $242 -17.708968383040769 $239 17.708968383040769 $138 $308 forward 7 unknown #
coedge $-1 $304 $144 $139 $230 forward $136 $-1 #
edge $-1 $149 9.1133997602158736 $236 31.895692768803091 $229 $309 forward 7 unknown #
coedge $-1 $146 $310 $140 $232 forward $223 $-1 #
edge $-1 $237 -31.895692768803091 $148 -9.1133997602158736 $231 $311 forward 7 unknown #
coedge $-1 $312 $141 $310 $313 reversed $235 $-1 #
coedge $-1 $141 $312 $304 $314 reversed $235 $-1 #
loop $-1 $-1 $312 $222 #
vertex $-1 $314 $315 #
vertex $-1 $142 $316 #
straight-curve $-1 -53.835413670090617 52.40023903331258 0 0 0 1 I I #
vertex $-1 $145 $317 #
straight-curve $-1 -24.579038863137193 29.617946024725356 -17.708968383040769 -1 0 0 I I #
coedge $-1 $310 $146 $227 $307 forward $223 $-1 #
vertex $-1 $147 $318 #
straight-curve $-1 -24.579038863137193 29.617946024725356 17.708968383040769 1 0 0 I I #
point $-1 -53.835413670090617 29.617946024725356 17.708968383040769 #
point $-1 -53.835413670090617 29.617946024725356 -17.708968383040769 #
loop $-1 $-1 $159 $151 #
plane-surface $-1 79.898678548539692 0 0 -1 0 0 0 0 1 forward_v I I I I #
coedge $-1 $249 $154 $156 $253 reversed $86 $-1 #
coedge $-1 $154 $248 $319 $320 reversed $86 $-1 #
coedge $-1 $162 $157 $154 $251 forward $152 $-1 #
edge $-1 $254 20.150213106108794 $321 34.035699576395814 $250 $322 forward 7 unknown #
coedge $-1 $156 $155 $257 $323 reversed $53 $-1 #
edge $-1 $324 -159.79735709707938 $254 -139.04582289854326 $248 $325 forward 7 unknown #
vertex $-1 $158 $326 #
straight-curve $-1 66.013192078252672 -6.3663995915232512 17.708968383040784 0 -1 0 I I #
coedge $-1 $319 $159 $162 $261 reversed $246 $-1 #
coedge $-1 $159 $319 $252 $323 forward $246 $-1 #
vertex $-1 $160 $327 #
straight-curve $-1 79.898678548539692 -4.5863438397457195 113.98272715251426 0 0 1 I I #
straight-curve $-1 -27.026622430683574 -4.5863438397457195 121.04015332580528 0.66913059716165679 0 -0.74314483375859142 I I #
edge $-1 $321 -20.879254526347285 $163 -4.5863438397457195 $256 $328 forward 7 unknown #
point $-1 79.898678548539692 -4.5863438397457195 17.708968383040769 #
point $-1 66.013192078252672 -4.5863438397457195 17.708968383040784 #
edge $-1 $329 1 $329 0 $166 $-1 forward 7 unknown #
vertex $-1 $167 $330 #
ellipse-curve $-1 65.677846922277041 -12.732799183046502 3.445050607916007 0.74314483375859142 0 0.66913059716165679 2.6765223886466272 0 -2.9725793350343657 1 I I #
point $-1 75.632457702042842 -12.732799183046502 7.025691331903003 #
plane-surface $-1 79.898678548539692 0 0 -1 0 0 0 0 1 forward_v I I I I #
coedge $-1 $175 $173 $177 $273 reversed $101 $-1 #
edge $-1 $188 -17.708968383040769 $275 17.708968383040769 $187 $331 forward 7 unknown #
vertex $-1 $273 $332 #
straight-curve $-1 -79.898678548539692 -52.40023903331258 0 0 0 -1 I I #
edge $-1 $271 -52.40023903331258 $275 52.40023903331258 $269 $333 forward 7 unknown #
straight-curve $-1 0 -52.40023903331258 -17.708968383040769 -1 0 0 I I #
vertex $-1 $180 $334 #
straight-curve $-1 0 52.40023903331258 -17.708968383040769 1 0 0 I I #
point $-1 79.898678548539692 52.40023903331258 -17.708968383040769 #
point $-1 79.898678548539692 -52.40023903331258 -17.708968383040769 #
straight-curve $-1 -79.898678548539692 0 17.708968383040769 0 -1 0 I I #
point $-1 -79.898678548539692 52.40023903331258 17.708968383040769 #
point $-1 -79.898678548539692 -52.40023903331258 17.708968383040769 #
straight-curve $-1 79.898678548539692 -52.40023903331258 0 0 0 -1 I I #
straight-curve $-1 79.898678548539692 52.40023903331258 0 0 0 -1 I I #
loop $-1 $-1 $203 $197 #
plane-surface $-1 0 -52.40023903331258 0 0 1 0 0 0 1 forward_v I I I I #
coedge $-1 $214 $205 $201 $288 forward $198 $-1 #
edge $-1 $292 -31.895692768803094 $209 -9.1133997602158772 $200 $335 forward 7 unknown #
edge $-1 $210 9.1133997602158772 $291 31.895692768803094 $286 $336 forward 7 unknown #
coedge $-1 $212 $203 $217 $301 reversed $284 $-1 #
coedge $-1 $203 $212 $214 $299 reversed $284 $-1 #
vertex $-1 $299 $337 #
vertex $-1 $204 $338 #
straight-curve $-1 -44.480741782458153 -52.40023903331258 0 0 0 1 I I #
straight-curve $-1 -24.579038863137193 -29.617946024725363 -17.708968383040769 1 0 0 I I #
straight-curve $-1 -24.579038863137193 -29.617946024725363 17.708968383040769 -1 0 0 I I #
point $-1 -44.480741782458153 -29.617946024725363 17.708968383040769 #
point $-1 -44.480741782458153 -29.617946024725363 -17.708968383040769 #
straight-curve $-1 -53.835413670090617 -52.40023903331258 0 0 0 -1 I I #
edge $-1 $291 44.480741782458153 $215 53.835413670090617 $290 $339 forward 7 unknown #
point $-1 -53.835413670090617 -52.40023903331258 -17.708968383040769 #
edge $-1 $218 -53.835413670090617 $292 -44.480741782458153 $289 $340 forward 7 unknown #
point $-1 -53.835413670090617 -52.40023903331258 17.708968383040769 #
plane-surface $-1 0 52.40023903331258 0 0 -1 0 0 0 -1 forward_v I I I I #
coedge $-1 $225 $229 $234 $314 forward $136 $-1 #
edge $-1 $341 -31.895692768803091 $239 -9.1133997602158736 $225 $342 forward 7 unknown #
coedge $-1 $227 $226 $312 $343 reversed $78 $-1 #
edge $-1 $242 9.1133997602158736 $344 31.895692768803091 $241 $345 forward 7 unknown #
straight-curve $-1 -44.480741782458153 29.617946024725356 0 0 0 -1 I I #
straight-curve $-1 -53.835413670090617 20.504546264509482 -17.708968383040769 0 1 0 I I #
coedge $-1 $231 $241 $233 $313 forward $223 $-1 #
straight-curve $-1 -53.835413670090617 20.504546264509482 17.708968383040769 0 -1 0 I I #
coedge $-1 $234 $233 $306 $343 forward $235 $-1 #
edge $-1 $344 44.480741782458153 $237 53.835413670090617 $233 $346 forward 7 unknown #
edge $-1 $236 -53.835413670090617 $341 -44.480741782458153 $234 $347 forward 7 unknown #
point $-1 -53.835413670090617 52.400239033312573 -17.708968383040769 #
point $-1 -53.835413670090617 52.400239033312573 17.708968383040769 #
point $-1 -44.480741782458153 29.617946024725356 -17.708968383040769 #
point $-1 -44.480741782458153 29.617946024725356 17.708968383040769 #
coedge $-1 $257 $256 $249 $320 forward $246 $-1 #
edge $-1 $321 96.273758769473488 $324 111.69515420168032 $319 $348 forward 7 unknown #
vertex $-1 $261 $349 #
straight-curve $-1 45.862978972143878 -20.879254526347285 17.708968383040769 1 0 0 I I #
edge $-1 $324 -14.512854934824034 $258 1.7800557517775317 $257 $350 forward 7 unknown #
vertex $-1 $323 $351 #
straight-curve $-1 -27.026622430683574 -20.879254526347285 121.04015332580528 -0.66913059716165679 0 0.74314483375859142 I I #
point $-1 66.013192078252672 -20.879254526347285 17.708968383040784 #
point $-1 79.898678548539692 -4.5863438397457195 2.2875729508339333 #
straight-curve $-1 79.898678548539692 0 17.708968383040769 0 1 0 I I #
vertex $-1 $264 $352 #
point $-1 68.354369310923673 -12.732799183046502 0.47247127288164137 #
straight-curve $-1 -79.898678548539692 52.40023903331258 0 0 0 -1 I I #
point $-1 -79.898678548539692 -52.40023903331258 -17.708968383040769 #
straight-curve $-1 -79.898678548539692 0 -17.708968383040769 0 1 0 I I #
point $-1 -79.898678548539692 52.40023903331258 -17.708968383040769 #
straight-curve $-1 -44.480741782458153 -20.504546264509486 17.708968383040769 0 1 0 I I #
straight-curve $-1 -44.480741782458153 -20.504546264509486 -17.708968383040769 0 -1 0 I I #
point $-1 -44.480741782458153 -52.40023903331258 -17.708968383040769 #
point $-1 -44.480741782458153 -52.40023903331258 17.708968383040769 #
straight-curve $-1 0 -52.40023903331258 -17.708968383040769 -1 0 0 I I #
straight-curve $-1 0 -52.40023903331258 17.708968383040769 1 0 0 I I #
vertex $-1 $343 $353 #
straight-curve $-1 -44.480741782458153 20.504546264509482 -17.708968383040769 0 -1 0 I I #
edge $-1 $344 -17.708968383040769 $341 17.708968383040769 $312 $354 forward 7 unknown #
vertex $-1 $313 $355 #
straight-curve $-1 -44.480741782458153 20.504546264509482 17.708968383040769 0 1 0 I I #
straight-curve $-1 0 52.40023903331258 17.708968383040769 -1 0 0 I I #
straight-curve $-1 0 52.40023903331258 -17.708968383040769 1 0 0 I I #
straight-curve $-1 79.898678548539692 -20.879254526347285 113.98272715251426 0 0 -1 I I #
point $-1 79.898678548539692 -20.879254526347285 17.708968383040769 #
straight-curve $-1 79.898678548539692 -6.3663995915232512 2.2875729508339262 0 1 0 I I #
point $-1 79.898678548539692 -20.879254526347285 2.2875729508339333 #
point $-1 62.705267587242673 -12.732799183046502 0.76852821926937986 #
point $-1 -44.480741782458153 52.400239033312573 -17.708968383040769 #
straight-curve $-1 -44.480741782458153 52.40023903331258 0 0 0 -1 I I #
point $-1 -44.480741782458153 52.400239033312573 17.708968383040769 #
End-of-ACIS-data 