500 0 6 0           
7 Unknown 11 ACIS 5.0 NT 24 Thu Mar 25 15:07:58 1999 
-1 9.9999999999999995e-007 1e-010 
body $-1 $6 $-1 $7 #
body $-1 $8 $-1 $9 #
body $-1 $10 $-1 $11 #
body $-1 $12 $-1 $13 #
body $-1 $14 $-1 $15 #
body $-1 $16 $-1 $17 #
lump $-1 $-1 $18 $0 #
transform $-1 1 0 0 0 1 0 0 0 1 77.459639271217995 45.398057510795972 14.742765287228885 1 rotate no_reflect no_shear #
lump $-1 $-1 $19 $1 #
transform $-1 1 0 0 0 1 0 0 0 1 77.459639271217995 45.398057510795972 14.742765287228885 1 rotate no_reflect no_shear #
lump $-1 $-1 $20 $2 #
transform $-1 1 0 0 0 1 0 0 0 1 77.459639271217995 45.398057510795972 14.742765287228885 1 rotate no_reflect no_shear #
lump $-1 $-1 $21 $3 #
transform $-1 1 0 0 0 1 0 0 0 1 77.459639271217995 45.398057510795972 14.742765287228885 1 rotate no_reflect no_shear #
lump $-1 $-1 $22 $4 #
transform $-1 1 0 0 0 1 0 0 0 1 77.459639271217995 45.398057510795972 14.742765287228885 1 rotate no_reflect no_shear #
lump $-1 $-1 $23 $5 #
transform $-1 1 0 0 0 1 0 0 0 1 77.459639271217995 45.398057510795972 14.742765287228885 1 rotate no_reflect no_shear #
shell $-1 $-1 $-1 $24 $-1 $6 #
shell $-1 $-1 $-1 $25 $-1 $8 #
shell $-1 $-1 $-1 $26 $-1 $10 #
shell $-1 $-1 $-1 $27 $-1 $12 #
shell $-1 $-1 $-1 $28 $-1 $14 #
shell $-1 $-1 $-1 $29 $-1 $16 #
face $-1 $30 $31 $18 $-1 $32 forward single #
face $-1 $33 $34 $19 $-1 $35 reversed single #
face $-1 $36 $37 $20 $-1 $38 reversed single #
face $-1 $39 $40 $21 $-1 $41 forward single #
face $-1 $42 $43 $22 $-1 $44 reversed single #
face $-1 $45 $46 $23 $-1 $47 forward single #
face $-1 $48 $49 $18 $-1 $50 reversed single #
loop $-1 $-1 $51 $24 #
plane-surface $-1 0 0 14.742765287228885 0 0 1 1 0 0 forward_v I I I I #
face $-1 $52 $53 $19 $-1 $54 reversed single #
loop $-1 $-1 $55 $25 #
plane-surface $-1 -64.880268810303093 -37.709228715614273 0 1 0 0 0 0 -1 forward_v I I I I #
face $-1 $56 $57 $20 $-1 $58 reversed single #
loop $-1 $-1 $59 $26 #
plane-surface $-1 -168.51890765759151 -10.722831305823171 134.8668071626154 0 1 0 -0.5877852598018023 0 0.80901698891910034 forward_v I I I I #
face $-1 $60 $61 $21 $-1 $62 forward single #
loop $-1 $63 $64 $27 #
cone-surface $-1 -73.206199182919676 -1.5170012553207357 11.217623648412182 0.5877852598018023 0 -0.80901698891910034 0.80901698891910034 0 0.5877852598018023 1 I I 0 1 1 forward I I I I #
face $-1 $65 $66 $22 $-1 $67 reversed single #
loop $-1 $-1 $68 $28 #
plane-surface $-1 -77.459639271217995 -1.5170012553207357 9.5344789106944461 -0.5877852598018023 0 0.80901698891910034 0.80901698891910034 0 0.5877852598018023 forward_v I I I I #
face $-1 $69 $70 $23 $-1 $71 forward single #
loop $-1 $72 $73 $29 #
cone-surface $-1 -73.206199182919676 16.894658845684134 11.217623648412182 0.5877852598018023 0 -0.80901698891910034 0.80901698891910034 0 0.5877852598018023 1 I I 0 1 1 forward I I I I #
face $-1 $74 $75 $18 $-1 $76 reversed single #
loop $-1 $-1 $77 $30 #
plane-surface $-1 0 0 -14.742765287228885 0 0 1 1 0 0 forward_v I I I I #
coedge $-1 $78 $79 $80 $81 forward $31 $-1 #
face $-1 $82 $83 $19 $-1 $84 reversed single #
loop $-1 $-1 $85 $33 #
plane-surface $-1 -62.615200195980869 -30.020399920432574 0 0 -1 0 0 0 -1 forward_v I I I I #
coedge $-1 $86 $87 $88 $89 forward $34 $-1 #
face $-1 $90 $91 $20 $-1 $92 reversed single #
loop $-1 $-1 $93 $36 #
plane-surface $-1 -77.459639271217995 -1.5170012553207357 9.5344789106944461 -0.5877852598018023 0 0.80901698891910034 0.80901698891910034 0 0.5877852598018023 forward_v I I I I #
coedge $-1 $94 $95 $96 $97 reversed $37 $-1 #
face $-1 $-1 $98 $21 $-1 $99 forward single #
loop $-1 $100 $101 $39 #
cone-surface $-1 -72.243161997406219 -1.5170012553207357 9.8921167034031541 0.5877852598018023 0 -0.80901698891910034 0.40450849445955017 0 0.29389262990090115 1 I I -0.70710678118654746 0.70710678118654746 0.5 forward I I I I #
loop $-1 $-1 $102 $27 #
coedge $-1 $64 $64 $103 $104 reversed $40 $-1 #
face $-1 $105 $106 $22 $-1 $107 reversed single #
loop $-1 $-1 $108 $42 #
plane-surface $-1 -168.51890765759151 26.100488896186569 134.8668071626154 0 -1 0 0.5877852598018023 0 -0.80901698891910034 forward_v I I I I #
coedge $-1 $109 $110 $111 $112 reversed $43 $-1 #
face $-1 $-1 $113 $23 $-1 $114 forward single #
loop $-1 $115 $116 $45 #
cone-surface $-1 -72.243161997406219 16.894658845684134 9.8921167034031541 0.5877852598018023 0 -0.80901698891910034 0.40450849445955017 0 0.29389262990090115 1 I I -0.70710678118654746 0.70710678118654746 0.5 forward I I I I #
loop $-1 $-1 $117 $29 #
coedge $-1 $73 $73 $118 $119 reversed $46 $-1 #
face $-1 $120 $121 $18 $-1 $122 reversed single #
loop $-1 $-1 $123 $48 #
plane-surface $-1 0 -45.398057510795972 0 0 1 0 0 0 1 forward_v I I I I #
coedge $-1 $124 $125 $126 $127 forward $49 $-1 #
coedge $-1 $128 $51 $129 $130 forward $31 $-1 #
coedge $-1 $51 $128 $131 $132 forward $31 $-1 #
coedge $-1 $133 $134 $51 $81 reversed $135 $-1 #
edge $-1 $136 -45.398057510795972 $137 45.398057510795972 $80 $138 forward 7 unknown #
face $-1 $139 $140 $19 $-1 $141 forward single #
loop $-1 $-1 $142 $52 #
plane-surface $-1 -60.350131581658644 -37.709228715614273 0 -1 0 0 0 0 1 forward_v I I I I #
coedge $-1 $143 $144 $145 $146 forward $53 $-1 #
coedge $-1 $147 $55 $148 $149 reversed $34 $-1 #
coedge $-1 $55 $147 $150 $151 reversed $34 $-1 #
coedge $-1 $144 $143 $55 $89 reversed $53 $-1 #
edge $-1 $152 -14.742765287228885 $153 14.742765287228885 $88 $154 forward 7 unknown #
face $-1 $155 $156 $20 $-1 $157 reversed single #
loop $-1 $-1 $158 $56 #
plane-surface $-1 -168.51890765759151 7.6888287951816991 134.8668071626154 0 -1 0 0.5877852598018023 0 -0.80901698891910034 forward_v I I I I #
coedge $-1 $159 $160 $161 $162 reversed $57 $-1 #
coedge $-1 $95 $59 $163 $164 reversed $37 $-1 #
coedge $-1 $59 $94 $159 $165 reversed $37 $-1 #
coedge $-1 $161 $166 $59 $97 forward $167 $-1 #
edge $-1 $168 6.7998145575777613 $169 13.968405622949263 $96 $170 forward 7 unknown #
loop $-1 $-1 $103 $60 #
plane-surface $-1 -77.459639271217995 -1.5170012553207357 9.5344789106944461 -0.5877852598018023 0 0.80901698891910034 0.80901698891910034 0 0.5877852598018023 forward_v I I I I #
loop $-1 $-1 $171 $39 #
coedge $-1 $101 $101 $102 $172 reversed $61 $-1 #
coedge $-1 $102 $102 $101 $172 forward $63 $-1 #
coedge $-1 $103 $103 $64 $104 forward $98 $-1 #
edge $-1 $173 0 $173 6.2831853071796004 $103 $174 forward 7 unknown #
face $-1 $175 $176 $22 $-1 $177 forward single #
loop $-1 $-1 $178 $65 #
plane-surface $-1 -77.459639271217995 0 0 1 0 0 0 0 -1 forward_v I I I I #
coedge $-1 $179 $180 $181 $182 reversed $66 $-1 #
coedge $-1 $183 $68 $184 $185 reversed $43 $-1 #
coedge $-1 $68 $183 $186 $187 reversed $43 $-1 #
coedge $-1 $188 $189 $68 $112 forward $176 $-1 #
edge $-1 $190 0 $191 8.8608659194526993 $111 $192 forward 7 unknown #
loop $-1 $-1 $118 $69 #
plane-surface $-1 -77.459639271217995 -1.5170012553207357 9.5344789106944461 -0.5877852598018023 0 0.80901698891910034 0.80901698891910034 0 0.5877852598018023 forward_v I I I I #
loop $-1 $-1 $193 $45 #
coedge $-1 $116 $116 $117 $194 reversed $70 $-1 #
coedge $-1 $117 $117 $116 $194 forward $72 $-1 #
coedge $-1 $118 $118 $73 $119 forward $113 $-1 #
edge $-1 $195 0 $195 6.2831853071796004 $118 $196 forward 7 unknown #
face $-1 $197 $198 $18 $-1 $199 reversed single #
loop $-1 $-1 $200 $74 #
plane-surface $-1 -77.459639271217995 0 0 1 0 0 0 0 -1 forward_v I I I I #
coedge $-1 $201 $131 $202 $203 forward $75 $-1 #
coedge $-1 $204 $77 $201 $205 forward $49 $-1 #
coedge $-1 $77 $204 $206 $207 forward $49 $-1 #
coedge $-1 $134 $133 $77 $127 reversed $135 $-1 #
edge $-1 $208 -45.398057510795972 $209 45.398057510795972 $126 $210 forward 7 unknown #
coedge $-1 $79 $78 $211 $212 forward $31 $-1 #
coedge $-1 $213 $214 $78 $130 reversed $198 $-1 #
edge $-1 $137 -77.459639271217995 $215 77.459639271217995 $129 $216 forward 7 unknown #
coedge $-1 $123 $217 $79 $132 reversed $75 $-1 #
edge $-1 $218 -77.459639271217995 $136 77.459639271217995 $131 $219 forward 7 unknown #
coedge $-1 $126 $80 $217 $220 forward $135 $-1 #
coedge $-1 $80 $126 $213 $221 reversed $135 $-1 #
loop $-1 $-1 $133 $197 #
vertex $-1 $81 $222 #
vertex $-1 $81 $223 #
straight-curve $-1 77.459639271217995 0 14.742765287228885 0 1 0 I I #
face $-1 $224 $225 $19 $-1 $226 reversed single #
loop $-1 $-1 $227 $82 #
plane-surface $-1 0 0 14.742765287228885 0 0 1 1 0 0 forward_v I I I I #
coedge $-1 $228 $229 $230 $231 reversed $83 $-1 #
coedge $-1 $88 $85 $232 $233 reversed $53 $-1 #
coedge $-1 $85 $88 $234 $235 reversed $53 $-1 #
coedge $-1 $229 $228 $85 $146 reversed $83 $-1 #
edge $-1 $236 -14.742765287228885 $237 14.742765287228885 $145 $238 forward 7 unknown #
coedge $-1 $87 $86 $239 $240 reversed $34 $-1 #
coedge $-1 $232 $241 $86 $149 forward $225 $-1 #
edge $-1 $242 -26.543443152988836 $153 -11.165785562625437 $148 $243 forward 7 unknown #
coedge $-1 $244 $234 $87 $151 forward $140 $-1 #
edge $-1 $152 11.165785562625437 $245 26.543443152988836 $150 $246 forward 7 unknown #
vertex $-1 $151 $247 #
vertex $-1 $149 $248 #
straight-curve $-1 -64.880268810303093 -30.020399920432574 0 0 0 -1 I I #
face $-1 $-1 $167 $20 $-1 $249 forward single #
loop $-1 $-1 $250 $90 #
plane-surface $-1 -77.459639271217995 0 0 1 0 0 0 0 -1 forward_v I I I I #
coedge $-1 $251 $252 $253 $254 reversed $91 $-1 #
coedge $-1 $255 $93 $95 $165 forward $57 $-1 #
coedge $-1 $93 $255 $251 $256 forward $57 $-1 #
coedge $-1 $253 $96 $93 $162 forward $167 $-1 #
edge $-1 $169 -9.9643306781628027 $257 8.447329422842067 $161 $258 forward 7 unknown #
coedge $-1 $259 $260 $94 $164 forward $156 $-1 #
edge $-1 $261 -57.898924670613255 $168 -52.690638294078816 $163 $262 forward 7 unknown #
edge $-1 $169 -8.8608659194526993 $261 0 $95 $263 forward 7 unknown #
coedge $-1 $96 $253 $259 $264 forward $167 $-1 #
loop $-1 $-1 $253 $155 #
vertex $-1 $164 $265 #
vertex $-1 $97 $266 #
straight-curve $-1 -84.259453828795756 -10.722831305823171 14.742765287228885 1 0 0 I I #
coedge $-1 $171 $171 $-1 $267 reversed $100 $-1 #
edge $-1 $268 0 $268 6.2831853071796004 $101 $269 forward 7 unknown #
vertex $-1 $104 $270 #
ellipse-curve $-1 -73.875343738532237 -1.5170012553207357 12.138622098961669 -0.5877852598018023 0 0.80901698891910034 0.80901698891910034 0 0.5877852598018023 1 I I #
face $-1 $-1 $271 $22 $-1 $272 forward single #
loop $-1 $-1 $188 $105 #
plane-surface $-1 -168.51890765759151 7.6888287951816991 134.8668071626154 0 -1 0 0.5877852598018023 0 -0.80901698891910034 forward_v I I I I #
coedge $-1 $184 $273 $180 $274 forward $106 $-1 #
coedge $-1 $180 $108 $183 $275 reversed $66 $-1 #
coedge $-1 $108 $179 $178 $274 reversed $66 $-1 #
coedge $-1 $276 $186 $108 $182 forward $271 $-1 #
edge $-1 $277 -13.968405622949263 $278 -6.7998145575777613 $181 $279 forward 7 unknown #
coedge $-1 $110 $109 $179 $275 forward $43 $-1 #
coedge $-1 $280 $178 $109 $185 forward $106 $-1 #
edge $-1 $281 -26.858989523846937 $190 -8.447329422842067 $184 $282 forward 7 unknown #
coedge $-1 $181 $283 $110 $187 forward $271 $-1 #
edge $-1 $191 8.447329422842067 $277 26.858989523846937 $186 $284 forward 7 unknown #
coedge $-1 $189 $111 $283 $285 reversed $176 $-1 #
coedge $-1 $111 $188 $280 $286 reversed $176 $-1 #
vertex $-1 $185 $287 #
vertex $-1 $187 $288 #
straight-curve $-1 -77.459639271217995 7.6888287951816991 9.5344789106944461 0.80901698891910034 0 0.5877852598018023 I I #
coedge $-1 $193 $193 $-1 $289 reversed $115 $-1 #
edge $-1 $290 0 $290 6.2831853071796004 $116 $291 forward 7 unknown #
vertex $-1 $119 $292 #
ellipse-curve $-1 -73.875343738532237 16.894658845684134 12.138622098961669 -0.5877852598018023 0 0.80901698891910034 0.80901698891910034 0 0.5877852598018023 1 I I #
face $-1 $-1 $135 $18 $-1 $293 reversed single #
loop $-1 $-1 $213 $120 #
plane-surface $-1 0 45.398057510795972 0 0 -1 0 0 0 -1 forward_v I I I I #
coedge $-1 $294 $211 $214 $295 forward $121 $-1 #
coedge $-1 $217 $123 $124 $205 reversed $75 $-1 #
coedge $-1 $211 $294 $123 $203 reversed $121 $-1 #
edge $-1 $218 -14.742765287228885 $296 14.742765287228885 $202 $297 forward 7 unknown #
coedge $-1 $125 $124 $294 $298 forward $49 $-1 #
edge $-1 $209 -77.459639271217995 $296 77.459639271217995 $201 $299 forward 7 unknown #
coedge $-1 $214 $213 $125 $207 reversed $198 $-1 #
edge $-1 $300 -77.459639271217995 $208 77.459639271217995 $206 $301 forward 7 unknown #
vertex $-1 $127 $302 #
vertex $-1 $220 $303 #
straight-curve $-1 77.459639271217995 0 -14.742765287228885 0 -1 0 I I #
coedge $-1 $200 $202 $128 $212 reversed $121 $-1 #
edge $-1 $215 -45.398057510795972 $218 45.398057510795972 $211 $304 forward 7 unknown #
coedge $-1 $206 $129 $134 $221 forward $198 $-1 #
coedge $-1 $129 $206 $200 $295 reversed $198 $-1 #
vertex $-1 $130 $305 #
straight-curve $-1 0 45.398057510795972 14.742765287228885 -1 0 0 I I #
coedge $-1 $131 $201 $133 $220 reversed $75 $-1 #
vertex $-1 $212 $306 #
straight-curve $-1 0 -45.398057510795972 14.742765287228885 1 0 0 I I #
edge $-1 $136 -14.742765287228885 $209 14.742765287228885 $133 $307 forward 7 unknown #
edge $-1 $137 -14.742765287228885 $208 14.742765287228885 $134 $308 forward 7 unknown #
point $-1 77.459639271217995 -45.398057510795972 14.742765287228885 #
point $-1 77.459639271217995 45.398057510795972 14.742765287228885 #
face $-1 $-1 $309 $19 $-1 $310 reversed single #
loop $-1 $-1 $311 $139 #
plane-surface $-1 0 0 -14.742765287228885 0 0 1 1 0 0 forward_v I I I I #
coedge $-1 $234 $244 $229 $312 forward $140 $-1 #
coedge $-1 $145 $142 $311 $313 reversed $83 $-1 #
coedge $-1 $142 $145 $227 $312 reversed $83 $-1 #
coedge $-1 $314 $315 $142 $231 forward $309 $-1 #
edge $-1 $316 -14.742765287228885 $317 14.742765287228885 $230 $318 forward 7 unknown #
coedge $-1 $311 $148 $143 $233 forward $225 $-1 #
edge $-1 $153 -33.572668712312662 $237 -29.04253148366821 $232 $319 forward 7 unknown #
coedge $-1 $150 $227 $144 $235 forward $140 $-1 #
edge $-1 $236 29.04253148366821 $152 33.572668712312662 $234 $320 forward 7 unknown #
vertex $-1 $235 $321 #
vertex $-1 $233 $322 #
straight-curve $-1 -60.350131581658644 -30.020399920432574 0 0 0 -1 I I #
coedge $-1 $315 $314 $147 $240 forward $309 $-1 #
edge $-1 $245 -14.742765287228885 $242 14.742765287228885 $239 $323 forward 7 unknown #
coedge $-1 $148 $311 $315 $324 forward $225 $-1 #
vertex $-1 $149 $325 #
straight-curve $-1 -64.880268810303093 -18.854614357807137 -14.742765287228885 0 1 0 I I #
coedge $-1 $227 $150 $314 $326 forward $140 $-1 #
vertex $-1 $326 $327 #
straight-curve $-1 -64.880268810303093 -18.854614357807137 14.742765287228885 0 -1 0 I I #
point $-1 -64.880268810303093 -30.020399920432574 14.742765287228885 #
point $-1 -64.880268810303093 -30.020399920432574 -14.742765287228885 #
plane-surface $-1 0 0 14.742765287228885 0 0 1 1 0 0 forward_v I I I I #
coedge $-1 $260 $259 $252 $328 forward $156 $-1 #
coedge $-1 $252 $158 $160 $256 reversed $91 $-1 #
coedge $-1 $158 $251 $250 $328 reversed $91 $-1 #
coedge $-1 $166 $161 $158 $254 forward $167 $-1 #
edge $-1 $257 -13.968405622949263 $329 -6.7998145575777613 $253 $330 forward 7 unknown #
coedge $-1 $160 $159 $260 $331 reversed $57 $-1 #
edge $-1 $332 0 $257 8.8608659194526993 $251 $333 forward 7 unknown #
vertex $-1 $162 $334 #
straight-curve $-1 -70.291048205846494 -0.75850062766036785 14.742765287228885 0 1 0 I I #
coedge $-1 $250 $163 $166 $264 reversed $156 $-1 #
coedge $-1 $163 $250 $255 $331 forward $156 $-1 #
vertex $-1 $164 $335 #
straight-curve $-1 -77.459639271217995 -10.722831305823171 67.433403581307701 0 0 1 I I #
straight-curve $-1 -77.459639271217995 -10.722831305823171 9.5344789106944461 -0.80901698891910034 0 -0.5877852598018023 I I #
edge $-1 $329 -7.6888287951816991 $168 10.722831305823171 $259 $336 forward 7 unknown #
point $-1 -77.459639271217995 -10.722831305823171 14.742765287228885 #
point $-1 -70.291048205846494 -10.722831305823171 14.742765287228885 #
edge $-1 $337 1 $337 0 $171 $-1 forward 7 unknown #
vertex $-1 $172 $338 #
ellipse-curve $-1 -72.537054627307114 -1.5170012553207357 10.296625197862705 -0.5877852598018023 0 0.80901698891910034 0.80901698891910034 0 0.5877852598018023 1 I I #
point $-1 -73.06632674961314 -1.5170012553207357 12.726407358763462 #
loop $-1 $-1 $181 $175 #
plane-surface $-1 0 0 14.742765287228885 0 0 1 1 0 0 forward_v I I I I #
coedge $-1 $178 $280 $276 $339 reversed $106 $-1 #
edge $-1 $278 52.690638294078816 $281 57.898924670613255 $178 $340 forward 7 unknown #
edge $-1 $281 0 $277 8.8608659194526993 $179 $341 forward 7 unknown #
coedge $-1 $283 $181 $273 $339 forward $271 $-1 #
vertex $-1 $182 $342 #
vertex $-1 $339 $343 #
straight-curve $-1 -84.259453828795756 26.100488896186569 14.742765287228885 -1 0 0 I I #
coedge $-1 $273 $184 $189 $286 forward $106 $-1 #
vertex $-1 $274 $344 #
straight-curve $-1 -77.459639271217995 -0.75850062766036785 9.5344789106944425 0 -1 0 I I #
coedge $-1 $186 $276 $188 $285 forward $271 $-1 #
straight-curve $-1 -70.291048205846494 -0.75850062766036785 14.742765287228885 0 1 0 I I #
edge $-1 $345 6.7998145575777613 $191 13.968405622949263 $283 $346 forward 7 unknown #
edge $-1 $190 -57.898924670613255 $345 -52.690638294078816 $280 $347 forward 7 unknown #
point $-1 -77.459639271217995 7.6888287951816991 9.5344789106944461 #
point $-1 -70.291048205846494 7.6888287951816991 14.742765287228885 #
edge $-1 $348 1 $348 0 $193 $-1 forward 7 unknown #
vertex $-1 $194 $349 #
ellipse-curve $-1 -72.537054627307114 16.894658845684134 10.296625197862705 -0.5877852598018023 0 0.80901698891910034 0.80901698891910034 0 0.5877852598018023 1 I I #
point $-1 -73.06632674961314 16.894658845684134 12.726407358763462 #
plane-surface $-1 77.459639271217995 0 0 -1 0 0 0 0 1 forward_v I I I I #
coedge $-1 $202 $200 $204 $298 reversed $121 $-1 #
edge $-1 $215 -14.742765287228885 $300 14.742765287228885 $214 $350 forward 7 unknown #
vertex $-1 $298 $351 #
straight-curve $-1 -77.459639271217995 -45.398057510795972 0 0 0 -1 I I #
edge $-1 $296 -45.398057510795972 $300 45.398057510795972 $294 $352 forward 7 unknown #
straight-curve $-1 0 -45.398057510795972 -14.742765287228885 -1 0 0 I I #
vertex $-1 $207 $353 #
straight-curve $-1 0 45.398057510795972 -14.742765287228885 1 0 0 I I #
point $-1 77.459639271217995 45.398057510795972 -14.742765287228885 #
point $-1 77.459639271217995 -45.398057510795972 -14.742765287228885 #
straight-curve $-1 -77.459639271217995 0 14.742765287228885 0 -1 0 I I #
point $-1 -77.459639271217995 45.398057510795972 14.742765287228885 #
point $-1 -77.459639271217995 -45.398057510795972 14.742765287228885 #
straight-curve $-1 77.459639271217995 -45.398057510795972 0 0 0 -1 I I #
straight-curve $-1 77.459639271217995 45.398057510795972 0 0 0 -1 I I #
loop $-1 $-1 $230 $224 #
plane-surface $-1 0 -45.398057510795972 0 0 1 0 0 0 1 forward_v I I I I #
coedge $-1 $241 $232 $228 $313 forward $225 $-1 #
edge $-1 $317 -26.543443152988836 $236 -11.165785562625437 $227 $354 forward 7 unknown #
edge $-1 $237 11.165785562625437 $316 26.543443152988836 $311 $355 forward 7 unknown #
coedge $-1 $239 $230 $244 $326 reversed $309 $-1 #
coedge $-1 $230 $239 $241 $324 reversed $309 $-1 #
vertex $-1 $324 $356 #
vertex $-1 $231 $357 #
straight-curve $-1 -60.350131581658644 -45.398057510795972 0 0 0 1 I I #
straight-curve $-1 -31.307600097990434 -30.020399920432574 -14.742765287228885 1 0 0 I I #
straight-curve $-1 -31.307600097990434 -30.020399920432574 14.742765287228885 -1 0 0 I I #
point $-1 -60.350131581658644 -30.020399920432574 14.742765287228885 #
point $-1 -60.350131581658644 -30.020399920432574 -14.742765287228885 #
straight-curve $-1 -64.880268810303093 -45.398057510795972 0 0 0 -1 I I #
edge $-1 $316 60.350131581658644 $242 64.880268810303093 $315 $358 forward 7 unknown #
point $-1 -64.880268810303093 -45.398057510795972 -14.742765287228885 #
edge $-1 $245 -64.880268810303093 $317 -60.350131581658644 $314 $359 forward 7 unknown #
point $-1 -64.880268810303093 -45.398057510795972 14.742765287228885 #
edge $-1 $329 52.690638294078816 $332 57.898924670613255 $250 $360 forward 7 unknown #
vertex $-1 $264 $361 #
straight-curve $-1 -84.259453828795756 7.6888287951816991 14.742765287228885 -1 0 0 I I #
edge $-1 $332 -8.447329422842067 $261 9.9643306781628027 $260 $362 forward 7 unknown #
vertex $-1 $331 $363 #
straight-curve $-1 -77.459639271217995 7.6888287951816991 9.5344789106944461 0.80901698891910034 0 0.5877852598018023 I I #
point $-1 -70.291048205846494 7.6888287951816991 14.742765287228885 #
point $-1 -77.459639271217995 -10.722831305823171 9.5344789106944461 #
straight-curve $-1 -77.459639271217995 0 14.742765287228885 0 -1 0 I I #
vertex $-1 $267 $364 #
point $-1 -71.728037638388017 -1.5170012553207357 10.884410457664506 #
edge $-1 $278 -26.100488896186569 $345 -7.6888287951816991 $273 $365 forward 7 unknown #
straight-curve $-1 -77.459639271217995 26.100488896186569 67.433403581307701 0 0 -1 I I #
straight-curve $-1 -77.459639271217995 26.100488896186569 9.5344789106944461 0.80901698891910034 0 0.5877852598018023 I I #
point $-1 -70.291048205846494 26.100488896186569 14.742765287228885 #
point $-1 -77.459639271217995 26.100488896186569 14.742765287228885 #
point $-1 -77.459639271217995 26.100488896186569 9.5344789106944461 #
vertex $-1 $286 $366 #
straight-curve $-1 -84.259453828795756 7.6888287951816991 14.742765287228885 1 0 0 I I #
straight-curve $-1 -77.459639271217995 7.6888287951816991 67.433403581307701 0 0 1 I I #
vertex $-1 $289 $367 #
point $-1 -71.728037638388017 16.894658845684134 10.884410457664506 #
straight-curve $-1 -77.459639271217995 45.398057510795972 0 0 0 -1 I I #
point $-1 -77.459639271217995 -45.398057510795972 -14.742765287228885 #
straight-curve $-1 -77.459639271217995 0 -14.742765287228885 0 1 0 I I #
point $-1 -77.459639271217995 45.398057510795972 -14.742765287228885 #
straight-curve $-1 -60.350131581658644 -18.854614357807137 14.742765287228885 0 1 0 I I #
straight-curve $-1 -60.350131581658644 -18.854614357807137 -14.742765287228885 0 -1 0 I I #
point $-1 -60.350131581658644 -45.398057510795972 -14.742765287228885 #
point $-1 -60.350131581658644 -45.398057510795972 14.742765287228885 #
straight-curve $-1 0 -45.398057510795972 -14.742765287228885 -1 0 0 I I #
straight-curve $-1 0 -45.398057510795972 14.742765287228885 1 0 0 I I #
straight-curve $-1 -77.459639271217995 7.6888287951816991 67.433403581307701 0 0 -1 I I #
point $-1 -77.459639271217995 7.6888287951816991 14.742765287228885 #
straight-curve $-1 -77.459639271217995 -0.75850062766036785 9.5344789106944425 0 -1 0 I I #
point $-1 -77.459639271217995 7.6888287951816991 9.5344789106944461 #
point $-1 -71.949269367505323 -1.5170012553207357 9.4876082089436036 #
straight-curve $-1 -77.459639271217995 0 14.742765287228885 0 -1 0 I I #
point $-1 -77.459639271217995 7.6888287951816991 14.742765287228885 #
point $-1 -71.949269367505323 16.894658845684134 9.4876082089436036 #
End-of-ACIS-data 