500 0 6 0           
7 Unknown 11 ACIS 5.0 NT 24 Thu Mar 25 17:41:49 1999 
-1 9.9999999999999995e-007 1e-010 
body $-1 $6 $-1 $7 #
body $-1 $8 $-1 $9 #
body $-1 $10 $-1 $11 #
body $-1 $12 $-1 $13 #
body $-1 $14 $-1 $15 #
body $-1 $16 $-1 $17 #
lump $-1 $-1 $18 $0 #
transform $-1 1 0 0 0 1 0 0 0 1 76.266975920896016 39.068233818470773 10.274920455868269 1 rotate no_reflect no_shear #
lump $-1 $-1 $19 $1 #
transform $-1 1 0 0 0 1 0 0 0 1 76.266975920896016 39.068233818470773 10.274920455868269 1 rotate no_reflect no_shear #
lump $-1 $-1 $20 $2 #
transform $-1 1 0 0 0 1 0 0 0 1 76.266975920896016 39.068233818470773 10.274920455868269 1 rotate no_reflect no_shear #
lump $-1 $-1 $21 $3 #
transform $-1 1 0 0 0 1 0 0 0 1 76.266975920896016 39.068233818470773 10.274920455868269 1 rotate no_reflect no_shear #
lump $-1 $-1 $22 $4 #
transform $-1 1 0 0 0 1 0 0 0 1 76.266975920896016 39.068233818470773 10.274920455868269 1 rotate no_reflect no_shear #
lump $-1 $-1 $23 $5 #
transform $-1 1 0 0 0 1 0 0 0 1 76.266975920896016 39.068233818470773 10.274920455868269 1 rotate no_reflect no_shear #
shell $-1 $-1 $-1 $24 $-1 $6 #
shell $-1 $-1 $-1 $25 $-1 $8 #
shell $-1 $-1 $-1 $26 $-1 $10 #
shell $-1 $-1 $-1 $27 $-1 $12 #
shell $-1 $-1 $-1 $28 $-1 $14 #
shell $-1 $-1 $-1 $29 $-1 $16 #
face $-1 $30 $31 $18 $-1 $32 forward single #
face $-1 $33 $34 $19 $-1 $35 forward single #
face $-1 $36 $37 $20 $-1 $38 forward single #
face $-1 $39 $40 $21 $-1 $41 reversed single #
face $-1 $42 $43 $22 $-1 $44 forward single #
face $-1 $45 $46 $23 $-1 $47 forward single #
face $-1 $48 $49 $18 $-1 $50 reversed single #
loop $-1 $-1 $51 $24 #
plane-surface $-1 0 0 10.274920455868269 0 0 1 1 0 0 forward_v I I I I #
face $-1 $52 $53 $19 $-1 $54 reversed single #
loop $-1 $-1 $55 $25 #
plane-surface $-1 0 -39.068233818470773 0 0 1 0 0 0 1 forward_v I I I I #
face $-1 $56 $57 $20 $-1 $58 reversed single #
loop $-1 $-1 $59 $26 #
plane-surface $-1 0 39.068233818470773 0 0 -1 0 0 0 -1 forward_v I I I I #
face $-1 $60 $61 $21 $-1 $62 reversed single #
loop $-1 $-1 $63 $27 #
plane-surface $-1 106.28878550956804 -7.7551965780527041 214.52498052784847 0 -1 0 -0.79863551827123203 0 -0.60181501223851219 forward_v I I I I #
face $-1 $64 $65 $22 $-1 $66 forward single #
loop $-1 $67 $68 $28 #
cone-surface $-1 72.3386916616424 -12.261210687473081 5.2909160969463924 -0.79863551827123203 0 -0.60181501223851219 0.3009075061192561 0 -0.39931775913561601 1 I I 0 1 0.5 forward I I I I #
face $-1 $69 $70 $23 $-1 $71 forward single #
loop $-1 $72 $73 $29 #
cone-surface $-1 72.3386916616424 -9.5576022218208543 5.2909160969463924 -0.79863551827123203 0 -0.60181501223851219 0.3009075061192561 0 -0.39931775913561601 1 I I 0 1 0.5 forward I I I I #
face $-1 $74 $75 $18 $-1 $76 reversed single #
loop $-1 $-1 $77 $30 #
plane-surface $-1 0 0 -10.274920455868269 0 0 1 1 0 0 forward_v I I I I #
coedge $-1 $78 $79 $80 $81 forward $31 $-1 #
face $-1 $82 $83 $19 $-1 $84 reversed single #
loop $-1 $-1 $85 $33 #
plane-surface $-1 0 0 -10.274920455868269 0 0 1 1 0 0 forward_v I I I I #
coedge $-1 $86 $87 $88 $89 forward $34 $-1 #
face $-1 $90 $91 $20 $-1 $92 forward single #
loop $-1 $-1 $93 $36 #
plane-surface $-1 -76.266975920896016 0 0 1 0 0 0 0 -1 forward_v I I I I #
coedge $-1 $94 $95 $96 $97 forward $37 $-1 #
face $-1 $98 $99 $21 $-1 $100 reversed single #
loop $-1 $-1 $101 $39 #
plane-surface $-1 -15.530246173560684 -10.90940645464697 122.72775843339177 0.79863551827123203 0 0.60181501223851219 0.60181501223851219 0 -0.79863551827123203 forward_v I I I I #
coedge $-1 $102 $103 $104 $105 reversed $40 $-1 #
face $-1 $-1 $106 $22 $-1 $107 forward single #
loop $-1 $108 $109 $42 #
cone-surface $-1 71.739715022938981 -12.261210687473081 4.8395548377675084 -0.79863551827123203 0 -0.60181501223851219 0.15045375305962805 0 -0.19965887956780801 1 I I -0.70710678118654746 0.70710678118654746 0.25 forward I I I I #
loop $-1 $-1 $110 $28 #
coedge $-1 $68 $68 $111 $112 reversed $43 $-1 #
face $-1 $-1 $113 $23 $-1 $114 forward single #
loop $-1 $115 $116 $45 #
cone-surface $-1 71.739715022938981 -9.5576022218208543 4.8395548377675084 -0.79863551827123203 0 -0.60181501223851219 0.15045375305962805 0 -0.19965887956780801 1 I I -0.70710678118654746 0.70710678118654746 0.25 forward I I I I #
loop $-1 $-1 $117 $29 #
coedge $-1 $73 $73 $118 $119 reversed $46 $-1 #
face $-1 $120 $121 $18 $-1 $122 reversed single #
loop $-1 $-1 $123 $48 #
plane-surface $-1 0 -39.068233818470773 0 0 1 0 0 0 1 forward_v I I I I #
coedge $-1 $124 $125 $126 $127 forward $49 $-1 #
coedge $-1 $128 $51 $129 $130 forward $31 $-1 #
coedge $-1 $51 $128 $131 $132 forward $31 $-1 #
coedge $-1 $133 $134 $51 $81 reversed $135 $-1 #
edge $-1 $136 -39.068233818470773 $137 39.068233818470773 $80 $138 forward 7 unknown #
face $-1 $139 $140 $19 $-1 $141 forward single #
loop $-1 $-1 $142 $52 #
plane-surface $-1 76.266975920896016 0 0 -1 0 0 0 0 1 forward_v I I I I #
coedge $-1 $143 $144 $145 $146 forward $53 $-1 #
coedge $-1 $145 $55 $142 $147 reversed $34 $-1 #
coedge $-1 $55 $145 $148 $149 reversed $34 $-1 #
coedge $-1 $150 $151 $55 $89 reversed $140 $-1 #
edge $-1 $152 -76.266975920896016 $153 76.266975920896016 $88 $154 forward 7 unknown #
face $-1 $155 $156 $20 $-1 $157 reversed single #
loop $-1 $-1 $158 $56 #
plane-surface $-1 0 43.832445417643655 -5.0900790065564774 0 0 1 1 0 0 forward_v I I I I #
coedge $-1 $159 $160 $94 $161 forward $57 $-1 #
coedge $-1 $162 $59 $93 $161 reversed $37 $-1 #
coedge $-1 $59 $162 $163 $164 reversed $37 $-1 #
coedge $-1 $158 $165 $59 $97 reversed $91 $-1 #
edge $-1 $166 -76.266975920896016 $167 76.266975920896016 $96 $168 forward 7 unknown #
face $-1 $169 $170 $21 $-1 $171 forward single #
loop $-1 $-1 $172 $60 #
plane-surface $-1 106.28878550956804 -14.063616331241235 214.52498052784847 0 1 0 0.79863551827123203 0 0.60181501223851219 forward_v I I I I #
coedge $-1 $173 $174 $175 $176 reversed $61 $-1 #
coedge $-1 $103 $63 $177 $178 reversed $40 $-1 #
coedge $-1 $63 $102 $173 $179 reversed $40 $-1 #
coedge $-1 $175 $180 $63 $105 forward $170 $-1 #
edge $-1 $181 -23.122583166111994 $182 -16.064650165876031 $104 $183 forward 7 unknown #
loop $-1 $-1 $111 $64 #
plane-surface $-1 -15.530246173560684 -10.90940645464697 122.72775843339177 0.79863551827123203 0 0.60181501223851219 0.60181501223851219 0 -0.79863551827123203 forward_v I I I I #
loop $-1 $-1 $184 $42 #
coedge $-1 $109 $109 $110 $185 reversed $65 $-1 #
coedge $-1 $110 $110 $109 $185 forward $67 $-1 #
coedge $-1 $111 $111 $68 $112 forward $106 $-1 #
edge $-1 $186 0 $186 6.2831853071796004 $111 $187 forward 7 unknown #
loop $-1 $-1 $118 $69 #
plane-surface $-1 -15.530246173560684 -10.90940645464697 122.72775843339177 0.79863551827123203 0 0.60181501223851219 0.60181501223851219 0 -0.79863551827123203 forward_v I I I I #
loop $-1 $-1 $188 $45 #
coedge $-1 $116 $116 $117 $189 reversed $70 $-1 #
coedge $-1 $117 $117 $116 $189 forward $72 $-1 #
coedge $-1 $118 $118 $73 $119 forward $113 $-1 #
edge $-1 $190 0 $190 6.2831853071796004 $118 $191 forward 7 unknown #
face $-1 $192 $193 $18 $-1 $194 reversed single #
loop $-1 $-1 $195 $74 #
plane-surface $-1 -76.266975920896016 0 0 1 0 0 0 0 -1 forward_v I I I I #
coedge $-1 $131 $196 $133 $197 reversed $75 $-1 #
coedge $-1 $198 $77 $196 $199 forward $49 $-1 #
coedge $-1 $77 $198 $200 $201 forward $49 $-1 #
coedge $-1 $134 $133 $77 $127 reversed $135 $-1 #
edge $-1 $202 -39.068233818470773 $203 39.068233818470773 $126 $204 forward 7 unknown #
coedge $-1 $79 $78 $205 $206 forward $31 $-1 #
coedge $-1 $207 $208 $78 $130 reversed $193 $-1 #
edge $-1 $137 -76.266975920896016 $209 76.266975920896016 $129 $210 forward 7 unknown #
coedge $-1 $211 $123 $79 $132 reversed $75 $-1 #
edge $-1 $212 -76.266975920896016 $136 76.266975920896016 $131 $213 forward 7 unknown #
coedge $-1 $126 $80 $123 $197 forward $135 $-1 #
coedge $-1 $80 $126 $207 $214 reversed $135 $-1 #
loop $-1 $-1 $133 $192 #
vertex $-1 $81 $215 #
vertex $-1 $81 $216 #
straight-curve $-1 76.266975920896016 0 10.274920455868269 0 1 0 I I #
face $-1 $217 $218 $19 $-1 $219 reversed single #
loop $-1 $-1 $151 $82 #
plane-surface $-1 0 -43.832445417643655 -5.0900790065564774 0 0 1 1 0 0 forward_v I I I I #
coedge $-1 $220 $221 $86 $147 forward $83 $-1 #
coedge $-1 $222 $85 $221 $223 forward $53 $-1 #
coedge $-1 $85 $222 $224 $225 forward $53 $-1 #
coedge $-1 $87 $86 $85 $146 reversed $34 $-1 #
edge $-1 $226 -76.266975920896016 $227 76.266975920896016 $85 $228 forward 7 unknown #
edge $-1 $227 -10.274920455868269 $153 -5.0900790065564774 $142 $229 forward 7 unknown #
coedge $-1 $224 $230 $87 $149 forward $231 $-1 #
edge $-1 $152 5.0900790065564774 $226 10.274920455868269 $148 $232 forward 7 unknown #
coedge $-1 $233 $88 $230 $234 forward $140 $-1 #
coedge $-1 $88 $233 $220 $235 forward $140 $-1 #
vertex $-1 $149 $236 #
vertex $-1 $235 $237 #
straight-curve $-1 0 -39.068233818470773 -5.0900790065564774 1 0 0 I I #
face $-1 $238 $239 $20 $-1 $240 reversed single #
loop $-1 $-1 $241 $90 #
plane-surface $-1 0 48.596657016816536 -7.6824997312123733 0 -1 0 0 0 -1 forward_v I I I I #
coedge $-1 $242 $96 $243 $244 forward $91 $-1 #
coedge $-1 $245 $93 $165 $246 reversed $57 $-1 #
coedge $-1 $93 $245 $247 $248 reversed $57 $-1 #
edge $-1 $249 -10.274920455868269 $167 -5.0900790065564774 $93 $250 forward 7 unknown #
coedge $-1 $95 $94 $251 $252 reversed $37 $-1 #
coedge $-1 $253 $243 $95 $164 forward $254 $-1 #
edge $-1 $166 5.0900790065564774 $255 10.274920455868269 $163 $256 forward 7 unknown #
coedge $-1 $96 $242 $159 $246 forward $91 $-1 #
vertex $-1 $164 $257 #
vertex $-1 $246 $258 #
straight-curve $-1 0 39.068233818470773 -5.0900790065564774 -1 0 0 I I #
face $-1 $-1 $259 $21 $-1 $260 reversed single #
loop $-1 $-1 $104 $98 #
plane-surface $-1 0 0 10.274920455868269 0 0 1 1 0 0 forward_v I I I I #
coedge $-1 $261 $262 $263 $264 reversed $99 $-1 #
coedge $-1 $265 $101 $103 $179 forward $61 $-1 #
coedge $-1 $101 $265 $261 $266 forward $61 $-1 #
coedge $-1 $263 $104 $101 $176 forward $170 $-1 #
edge $-1 $182 2.3004933507292193 $267 8.6089131039177502 $175 $268 forward 7 unknown #
coedge $-1 $269 $270 $102 $178 forward $259 $-1 #
edge $-1 $271 -106.35376351366119 $181 -96.987569808055966 $177 $272 forward 7 unknown #
edge $-1 $182 140.80620684257164 $271 152.53395184179203 $103 $273 forward 7 unknown #
coedge $-1 $104 $263 $269 $274 forward $170 $-1 #
vertex $-1 $178 $275 #
vertex $-1 $105 $276 #
straight-curve $-1 53.144392754784022 -7.7551965780527041 10.274920455868269 -1 0 0 I I #
coedge $-1 $184 $184 $-1 $277 reversed $108 $-1 #
edge $-1 $278 0 $278 6.2831853071796004 $109 $279 forward 7 unknown #
vertex $-1 $112 $280 #
ellipse-curve $-1 72.738009420778042 -12.261210687473081 5.5918236030656656 0.79863551827123203 0 0.60181501223851219 0.3009075061192561 0 -0.39931775913561601 1 I I #
coedge $-1 $188 $188 $-1 $281 reversed $115 $-1 #
edge $-1 $282 0 $282 6.2831853071796004 $116 $283 forward 7 unknown #
vertex $-1 $119 $284 #
ellipse-curve $-1 72.738009420778042 -9.5576022218208543 5.5918236030656656 0.79863551827123203 0 0.60181501223851219 0.3009075061192561 0 -0.39931775913561601 1 I I #
face $-1 $-1 $135 $18 $-1 $285 reversed single #
loop $-1 $-1 $208 $120 #
plane-surface $-1 0 39.068233818470773 0 0 -1 0 0 0 -1 forward_v I I I I #
coedge $-1 $286 $205 $208 $287 forward $121 $-1 #
coedge $-1 $123 $211 $124 $199 reversed $75 $-1 #
edge $-1 $136 -10.274920455868269 $203 10.274920455868269 $133 $288 forward 7 unknown #
coedge $-1 $125 $124 $286 $289 forward $49 $-1 #
edge $-1 $203 -76.266975920896016 $290 76.266975920896016 $196 $291 forward 7 unknown #
coedge $-1 $208 $207 $125 $201 reversed $193 $-1 #
edge $-1 $292 -76.266975920896016 $202 76.266975920896016 $200 $293 forward 7 unknown #
vertex $-1 $127 $294 #
vertex $-1 $197 $295 #
straight-curve $-1 76.266975920896016 0 -10.274920455868269 0 -1 0 I I #
coedge $-1 $195 $296 $128 $206 reversed $121 $-1 #
edge $-1 $209 -39.068233818470773 $212 39.068233818470773 $205 $297 forward 7 unknown #
coedge $-1 $200 $129 $134 $214 forward $193 $-1 #
coedge $-1 $129 $200 $195 $287 reversed $193 $-1 #
vertex $-1 $130 $298 #
straight-curve $-1 0 39.068233818470773 10.274920455868269 -1 0 0 I I #
coedge $-1 $196 $131 $296 $299 forward $75 $-1 #
vertex $-1 $206 $300 #
straight-curve $-1 0 -39.068233818470773 10.274920455868269 1 0 0 I I #
edge $-1 $137 -10.274920455868269 $202 10.274920455868269 $134 $301 forward 7 unknown #
point $-1 76.266975920896016 -39.068233818470773 10.274920455868269 #
point $-1 76.266975920896016 39.068233818470773 10.274920455868269 #
face $-1 $-1 $231 $19 $-1 $302 reversed single #
loop $-1 $-1 $303 $139 #
plane-surface $-1 0 -48.596657016816536 -7.6824997312123733 0 1 0 0 0 1 forward_v I I I I #
coedge $-1 $304 $142 $151 $235 reversed $83 $-1 #
coedge $-1 $142 $304 $143 $223 reversed $83 $-1 #
coedge $-1 $144 $143 $305 $306 forward $53 $-1 #
edge $-1 $227 39.068233818470773 $307 48.596657016816536 $221 $308 forward 7 unknown #
coedge $-1 $309 $148 $144 $225 reversed $231 $-1 #
edge $-1 $310 -48.596657016816536 $226 -39.068233818470773 $224 $311 forward 7 unknown #
vertex $-1 $149 $312 #
vertex $-1 $223 $313 #
straight-curve $-1 0 -39.068233818470773 -10.274920455868269 1 0 0 I I #
straight-curve $-1 76.266975920896016 -39.068233818470773 0 0 0 1 I I #
coedge $-1 $148 $309 $150 $234 reversed $231 $-1 #
loop $-1 $-1 $148 $217 #
straight-curve $-1 -76.266975920896016 -39.068233818470773 0 0 0 -1 I I #
coedge $-1 $151 $150 $314 $315 forward $140 $-1 #
edge $-1 $152 -4.7642115991728815 $316 4.7642115991728815 $230 $317 forward 7 unknown #
edge $-1 $318 -4.7642115991728815 $153 4.7642115991728815 $220 $319 forward 7 unknown #
point $-1 -76.266975920896016 -39.068233818470773 -5.0900790065564774 #
point $-1 76.266975920896016 -39.068233818470773 -5.0900790065564774 #
face $-1 $-1 $254 $20 $-1 $320 reversed single #
loop $-1 $-1 $251 $155 #
plane-surface $-1 0 0 -10.274920455868269 0 0 1 1 0 0 forward_v I I I I #
coedge $-1 $321 $322 $323 $324 forward $156 $-1 #
coedge $-1 $165 $158 $322 $325 forward $91 $-1 #
coedge $-1 $163 $323 $158 $244 reversed $254 $-1 #
edge $-1 $166 -4.7642115991728815 $326 4.7642115991728815 $243 $327 forward 7 unknown #
coedge $-1 $160 $159 $328 $329 forward $57 $-1 #
edge $-1 $330 -4.7642115991728815 $167 4.7642115991728815 $159 $331 forward 7 unknown #
coedge $-1 $332 $251 $160 $248 forward $239 $-1 #
edge $-1 $249 -4.7642115991728815 $333 4.7642115991728815 $160 $334 forward 7 unknown #
vertex $-1 $248 $335 #
straight-curve $-1 -76.266975920896016 39.068233818470773 0 0 0 1 I I #
coedge $-1 $247 $336 $162 $252 forward $239 $-1 #
edge $-1 $255 -76.266975920896016 $249 76.266975920896016 $251 $337 forward 7 unknown #
coedge $-1 $323 $163 $336 $338 reversed $254 $-1 #
loop $-1 $-1 $163 $238 #
vertex $-1 $164 $339 #
straight-curve $-1 76.266975920896016 39.068233818470773 0 0 0 -1 I I #
point $-1 76.266975920896016 39.068233818470773 -5.0900790065564774 #
point $-1 -76.266975920896016 39.068233818470773 -5.0900790065564774 #
loop $-1 $-1 $177 $169 #
plane-surface $-1 76.266975920896016 0 0 -1 0 0 0 0 1 forward_v I I I I #
coedge $-1 $262 $172 $174 $266 reversed $99 $-1 #
coedge $-1 $172 $261 $340 $341 reversed $99 $-1 #
coedge $-1 $180 $175 $172 $264 forward $170 $-1 #
edge $-1 $267 16.064650165876031 $342 23.122583166111994 $263 $343 forward 7 unknown #
coedge $-1 $174 $173 $270 $344 reversed $61 $-1 #
edge $-1 $345 -152.53395184179203 $267 -140.80620684257164 $261 $346 forward 7 unknown #
vertex $-1 $176 $347 #
straight-curve $-1 69.209042920660039 -5.4547032273234848 10.274920455868269 0 -1 0 I I #
coedge $-1 $340 $177 $180 $274 reversed $259 $-1 #
coedge $-1 $177 $340 $265 $344 forward $259 $-1 #
vertex $-1 $178 $348 #
straight-curve $-1 76.266975920896016 -7.7551965780527041 107.26249026392424 0 0 1 I I #
straight-curve $-1 -15.530246173560684 -7.7551965780527041 122.72775843339177 0.60181501223851219 0 -0.79863551827123203 I I #
edge $-1 $342 -14.063616331241235 $181 -7.7551965780527041 $269 $349 forward 7 unknown #
point $-1 76.266975920896016 -7.7551965780527041 10.274920455868269 #
point $-1 69.209042920660053 -7.7551965780527041 10.274920455868269 #
edge $-1 $350 1 $350 0 $184 $-1 forward 7 unknown #
vertex $-1 $185 $351 #
ellipse-curve $-1 71.939373902506787 -12.261210687473081 4.9900085908271361 0.79863551827123203 0 0.60181501223851219 0.3009075061192561 0 -0.39931775913561601 1 I I #
point $-1 73.038916926897272 -12.261210687473081 5.1925058439300322 #
edge $-1 $352 1 $352 0 $188 $-1 forward 7 unknown #
vertex $-1 $189 $353 #
ellipse-curve $-1 71.939373902506787 -9.5576022218208543 4.9900085908271361 0.79863551827123203 0 0.60181501223851219 0.3009075061192561 0 -0.39931775913561601 1 I I #
point $-1 73.038916926897272 -9.5576022218208543 5.1925058439300322 #
plane-surface $-1 76.266975920896016 0 0 -1 0 0 0 0 1 forward_v I I I I #
coedge $-1 $296 $195 $198 $289 reversed $121 $-1 #
edge $-1 $209 -10.274920455868269 $292 10.274920455868269 $208 $354 forward 7 unknown #
straight-curve $-1 76.266975920896016 -39.068233818470773 0 0 0 -1 I I #
edge $-1 $290 -39.068233818470773 $292 39.068233818470773 $286 $355 forward 7 unknown #
vertex $-1 $289 $356 #
straight-curve $-1 0 -39.068233818470773 -10.274920455868269 -1 0 0 I I #
vertex $-1 $201 $357 #
straight-curve $-1 0 39.068233818470773 -10.274920455868269 1 0 0 I I #
point $-1 76.266975920896016 39.068233818470773 -10.274920455868269 #
point $-1 76.266975920896016 -39.068233818470773 -10.274920455868269 #
coedge $-1 $205 $286 $211 $299 reversed $121 $-1 #
straight-curve $-1 -76.266975920896016 0 10.274920455868269 0 -1 0 I I #
point $-1 -76.266975920896016 39.068233818470773 10.274920455868269 #
edge $-1 $212 -10.274920455868269 $290 10.274920455868269 $296 $358 forward 7 unknown #
point $-1 -76.266975920896016 -39.068233818470773 10.274920455868269 #
straight-curve $-1 76.266975920896016 39.068233818470773 0 0 0 -1 I I #
plane-surface $-1 -76.266975920896016 0 0 1 0 0 0 0 -1 forward_v I I I I #
coedge $-1 $305 $314 $309 $359 forward $218 $-1 #
coedge $-1 $221 $220 $360 $361 forward $83 $-1 #
coedge $-1 $360 $303 $222 $306 reversed $218 $-1 #
edge $-1 $307 -76.266975920896016 $310 76.266975920896016 $305 $362 forward 7 unknown #
vertex $-1 $361 $363 #
straight-curve $-1 76.266975920896016 0 -10.274920455868269 0 -1 0 I I #
coedge $-1 $230 $224 $303 $359 reversed $231 $-1 #
vertex $-1 $225 $364 #
straight-curve $-1 -76.266975920896016 0 -10.274920455868269 0 1 0 I I #
point $-1 -76.266975920896016 -39.068233818470773 -10.274920455868269 #
point $-1 76.266975920896016 -39.068233818470773 -10.274920455868269 #
coedge $-1 $303 $360 $233 $315 reversed $218 $-1 #
edge $-1 $316 -76.266975920896016 $318 76.266975920896016 $314 $365 forward 7 unknown #
vertex $-1 $234 $366 #
straight-curve $-1 -76.266975920896016 -43.832445417643655 -5.0900790065564774 0 -1 0 I I #
vertex $-1 $235 $367 #
straight-curve $-1 76.266975920896016 -43.832445417643655 -5.0900790065564774 0 1 0 I I #
plane-surface $-1 76.266975920896016 0 0 -1 0 0 0 0 1 forward_v I I I I #
coedge $-1 $328 $241 $332 $368 reversed $156 $-1 #
coedge $-1 $241 $328 $242 $325 reversed $156 $-1 #
coedge $-1 $243 $253 $241 $324 reversed $254 $-1 #
edge $-1 $326 -2.5924207246558959 $369 2.5924207246558959 $323 $370 forward 7 unknown #
edge $-1 $326 -76.266975920896016 $330 76.266975920896016 $322 $371 forward 7 unknown #
vertex $-1 $244 $372 #
straight-curve $-1 76.266975920896016 43.832445417643655 -5.0900790065564774 0 1 0 I I #
coedge $-1 $322 $321 $245 $329 reversed $156 $-1 #
edge $-1 $330 -2.5924207246558959 $333 2.5924207246558959 $328 $373 forward 7 unknown #
vertex $-1 $325 $374 #
straight-curve $-1 -76.266975920896016 43.832445417643655 -5.0900790065564774 0 -1 0 I I #
coedge $-1 $336 $247 $321 $368 forward $239 $-1 #
vertex $-1 $368 $375 #
straight-curve $-1 -76.266975920896016 43.832445417643655 -10.274920455868269 0 1 0 I I #
point $-1 -76.266975920896016 39.068233818470773 -10.274920455868269 #
coedge $-1 $251 $332 $253 $338 forward $239 $-1 #
straight-curve $-1 0 39.068233818470773 -10.274920455868269 -1 0 0 I I #
edge $-1 $369 -48.596657016816536 $255 -39.068233818470773 $253 $376 forward 7 unknown #
point $-1 76.266975920896016 39.068233818470773 -10.274920455868269 #
coedge $-1 $270 $269 $262 $341 forward $259 $-1 #
edge $-1 $342 96.987569808055966 $345 106.35376351366119 $340 $377 forward 7 unknown #
vertex $-1 $274 $378 #
straight-curve $-1 53.144392754784022 -14.063616331241235 10.274920455868269 1 0 0 I I #
edge $-1 $345 -8.6089131039177502 $271 -2.3004933507292193 $270 $379 forward 7 unknown #
vertex $-1 $344 $380 #
straight-curve $-1 -15.530246173560684 -14.063616331241235 122.72775843339177 -0.60181501223851219 0 0.79863551827123203 I I #
point $-1 69.209042920660053 -14.063616331241235 10.274920455868269 #
point $-1 76.266975920896016 -7.7551965780527041 0.9087267502630425 #
straight-curve $-1 76.266975920896016 0 10.274920455868269 0 1 0 I I #
vertex $-1 $277 $381 #
point $-1 72.240281408626046 -12.261210687473081 4.5906908316915205 #
vertex $-1 $281 $382 #
point $-1 72.240281408626046 -9.5576022218208543 4.5906908316915205 #
straight-curve $-1 -76.266975920896016 39.068233818470773 0 0 0 -1 I I #
straight-curve $-1 -76.266975920896016 0 -10.274920455868269 0 1 0 I I #
point $-1 -76.266975920896016 -39.068233818470773 -10.274920455868269 #
point $-1 -76.266975920896016 39.068233818470773 -10.274920455868269 #
straight-curve $-1 -76.266975920896016 -39.068233818470773 0 0 0 -1 I I #
edge $-1 $316 -2.5924207246558959 $310 2.5924207246558959 $309 $383 forward 7 unknown #
coedge $-1 $314 $305 $304 $361 reversed $218 $-1 #
edge $-1 $318 -2.5924207246558959 $307 2.5924207246558959 $304 $384 forward 7 unknown #
straight-curve $-1 0 -48.596657016816536 -10.274920455868269 -1 0 0 I I #
point $-1 76.266975920896016 -48.596657016816536 -10.274920455868269 #
point $-1 -76.266975920896016 -48.596657016816536 -10.274920455868269 #
straight-curve $-1 0 -48.596657016816536 -5.0900790065564774 1 0 0 I I #
point $-1 -76.266975920896016 -48.596657016816536 -5.0900790065564774 #
point $-1 76.266975920896016 -48.596657016816536 -5.0900790065564774 #
edge $-1 $333 -76.266975920896016 $369 76.266975920896016 $321 $385 forward 7 unknown #
vertex $-1 $338 $386 #
straight-curve $-1 76.266975920896016 48.596657016816536 -7.6824997312123733 0 0 -1 I I #
straight-curve $-1 0 48.596657016816536 -5.0900790065564774 -1 0 0 I I #
point $-1 76.266975920896016 48.596657016816536 -5.0900790065564774 #
straight-curve $-1 -76.266975920896016 48.596657016816536 -7.6824997312123733 0 0 -1 I I #
point $-1 -76.266975920896016 48.596657016816536 -5.0900790065564774 #
point $-1 -76.266975920896016 48.596657016816536 -10.274920455868269 #
straight-curve $-1 76.266975920896016 0 -10.274920455868269 0 -1 0 I I #
straight-curve $-1 76.266975920896016 -14.063616331241235 107.26249026392424 0 0 -1 I I #
point $-1 76.266975920896016 -14.063616331241235 10.274920455868269 #
straight-curve $-1 76.266975920896016 -5.4547032273234848 0.90872675026304961 0 1 0 I I #
point $-1 76.266975920896016 -14.063616331241235 0.9087267502630425 #
point $-1 71.540056143371174 -12.261210687473081 4.6891010847078807 #
point $-1 71.540056143371174 -9.5576022218208543 4.6891010847078807 #
straight-curve $-1 -76.266975920896016 -48.596657016816536 -7.6824997312123733 0 0 -1 I I #
straight-curve $-1 76.266975920896016 -48.596657016816536 -7.6824997312123733 0 0 -1 I I #
straight-curve $-1 0 48.596657016816536 -10.274920455868269 1 0 0 I I #
point $-1 76.266975920896016 48.596657016816536 -10.274920455868269 #
End-of-ACIS-data 