500 0 15 0           
7 Unknown 11 ACIS 5.0 NT 24 Thu Mar 25 15:45:22 1999 
-1 9.9999999999999995e-007 1e-010 
body $-1 $15 $-1 $16 #
body $-1 $17 $-1 $18 #
body $-1 $19 $-1 $20 #
body $-1 $21 $-1 $22 #
body $-1 $23 $-1 $24 #
body $-1 $25 $-1 $26 #
body $-1 $27 $-1 $28 #
body $-1 $29 $-1 $30 #
body $-1 $31 $-1 $32 #
body $-1 $33 $-1 $34 #
body $-1 $35 $-1 $36 #
body $-1 $37 $-1 $38 #
body $-1 $39 $-1 $40 #
body $-1 $41 $-1 $42 #
body $-1 $43 $-1 $44 #
lump $-1 $-1 $45 $0 #
transform $-1 1 0 0 0 1 0 0 0 1 55.476546525467697 26.939656148073883 6.6981224597417501 1 rotate no_reflect no_shear #
lump $-1 $-1 $46 $1 #
transform $-1 1 0 0 0 1 0 0 0 1 55.476546525467697 26.939656148073883 6.6981224597417501 1 rotate no_reflect no_shear #
lump $-1 $-1 $47 $2 #
transform $-1 1 0 0 0 1 0 0 0 1 55.476546525467697 26.939656148073883 6.6981224597417501 1 rotate no_reflect no_shear #
lump $-1 $-1 $48 $3 #
transform $-1 1 0 0 0 1 0 0 0 1 55.476546525467697 26.939656148073883 6.6981224597417501 1 rotate no_reflect no_shear #
lump $-1 $-1 $49 $4 #
transform $-1 1 0 0 0 1 0 0 0 1 55.476546525467697 26.939656148073883 6.6981224597417501 1 rotate no_reflect no_shear #
lump $-1 $-1 $50 $5 #
transform $-1 1 0 0 0 1 0 0 0 1 55.476546525467697 26.939656148073883 6.6981224597417501 1 rotate no_reflect no_shear #
lump $-1 $-1 $51 $6 #
transform $-1 1 0 0 0 1 0 0 0 1 55.476546525467697 26.939656148073883 6.6981224597417501 1 rotate no_reflect no_shear #
lump $-1 $-1 $52 $7 #
transform $-1 1 0 0 0 1 0 0 0 1 55.476546525467697 26.939656148073883 6.6981224597417501 1 rotate no_reflect no_shear #
lump $-1 $-1 $53 $8 #
transform $-1 1 0 0 0 1 0 0 0 1 55.476546525467697 26.939656148073883 6.6981224597417501 1 rotate no_reflect no_shear #
lump $-1 $-1 $54 $9 #
transform $-1 1 0 0 0 1 0 0 0 1 55.476546525467697 26.939656148073883 6.6981224597417501 1 rotate no_reflect no_shear #
lump $-1 $-1 $55 $10 #
transform $-1 1 0 0 0 1 0 0 0 1 55.476546525467697 26.939656148073883 6.6981224597417501 1 rotate no_reflect no_shear #
lump $-1 $-1 $56 $11 #
transform $-1 1 0 0 0 1 0 0 0 1 55.476546525467697 26.939656148073883 6.6981224597417501 1 rotate no_reflect no_shear #
lump $-1 $-1 $57 $12 #
transform $-1 1 0 0 0 1 0 0 0 1 55.476546525467697 26.939656148073883 6.6981224597417501 1 rotate no_reflect no_shear #
lump $-1 $-1 $58 $13 #
transform $-1 1 0 0 0 1 0 0 0 1 55.476546525467697 26.939656148073883 6.6981224597417501 1 rotate no_reflect no_shear #
lump $-1 $-1 $59 $14 #
transform $-1 1 0 0 0 1 0 0 0 1 55.476546525467697 26.939656148073883 6.6981224597417501 1 rotate no_reflect no_shear #
shell $-1 $-1 $-1 $60 $-1 $15 #
shell $-1 $-1 $-1 $61 $-1 $17 #
shell $-1 $-1 $-1 $62 $-1 $19 #
shell $-1 $-1 $-1 $63 $-1 $21 #
shell $-1 $-1 $-1 $64 $-1 $23 #
shell $-1 $-1 $-1 $65 $-1 $25 #
shell $-1 $-1 $-1 $66 $-1 $27 #
shell $-1 $-1 $-1 $67 $-1 $29 #
shell $-1 $-1 $-1 $68 $-1 $31 #
shell $-1 $-1 $-1 $69 $-1 $33 #
shell $-1 $-1 $-1 $70 $-1 $35 #
shell $-1 $-1 $-1 $71 $-1 $37 #
shell $-1 $-1 $-1 $72 $-1 $39 #
shell $-1 $-1 $-1 $73 $-1 $41 #
shell $-1 $-1 $-1 $74 $-1 $43 #
face $-1 $75 $76 $45 $-1 $77 forward single #
face $-1 $78 $79 $46 $-1 $80 reversed single #
face $-1 $81 $82 $47 $-1 $83 reversed single #
face $-1 $84 $85 $48 $-1 $86 reversed single #
face $-1 $87 $88 $49 $-1 $89 forward single #
face $-1 $90 $91 $50 $-1 $92 forward single #
face $-1 $93 $94 $51 $-1 $95 forward single #
face $-1 $96 $97 $52 $-1 $98 reversed single #
face $-1 $99 $100 $53 $-1 $101 forward single #
face $-1 $102 $103 $54 $-1 $104 forward single #
face $-1 $105 $106 $55 $-1 $107 forward single #
face $-1 $108 $109 $56 $-1 $110 reversed single #
face $-1 $111 $112 $57 $-1 $113 forward single #
face $-1 $114 $115 $58 $-1 $116 forward single #
face $-1 $117 $118 $59 $-1 $119 forward single #
face $-1 $120 $121 $45 $-1 $122 reversed single #
loop $-1 $-1 $123 $60 #
plane-surface $-1 0 0 6.6981224597417501 0 0 1 1 0 0 forward_v I I I I #
face $-1 $124 $125 $46 $-1 $126 reversed single #
loop $-1 $-1 $127 $61 #
plane-surface $-1 -53.695361490128491 -21.049265891079518 0 0 -1 0 0 0 -1 forward_v I I I I #
face $-1 $128 $129 $47 $-1 $130 reversed single #
loop $-1 $-1 $131 $62 #
plane-surface $-1 -53.695361490128491 21.049265891079518 0 0 1 0 0 0 1 forward_v I I I I #
face $-1 $132 $133 $48 $-1 $134 reversed single #
loop $-1 $-1 $135 $63 #
plane-surface $-1 -142.90877791138496 -14.447221256788557 71.735783651724958 0 1 0 -0.78801076186113728 0 0.61566146476048833 forward_v I I I I #
face $-1 $136 $137 $49 $-1 $138 forward single #
loop $-1 $139 $140 $64 #
cone-surface $-1 -53.464905240563866 -12.20249962792089 4.4891051249632765 0.78801076186113728 0 -0.61566146476048833 0.30783073238024417 0 0.39400538093056864 1 I I 0 1 0.5 forward I I I I #
face $-1 $141 $142 $50 $-1 $143 forward single #
loop $-1 $144 $145 $65 #
cone-surface $-1 -53.464905240563866 -8.8354171846193843 4.4891051249632765 0.78801076186113728 0 -0.61566146476048833 0.30783073238024417 0 0.39400538093056864 1 I I 0 1 0.5 forward I I I I #
face $-1 $146 $147 $51 $-1 $148 forward single #
loop $-1 $149 $150 $66 #
cone-surface $-1 -53.464905240563866 -5.4683347413178787 4.4891051249632765 0.78801076186113728 0 -0.61566146476048833 0.30783073238024417 0 0.39400538093056864 1 I I 0 1 0.5 forward I I I I #
face $-1 $151 $152 $52 $-1 $153 reversed single #
loop $-1 $-1 $154 $67 #
plane-surface $-1 80.022894748354602 -8.83546982049549 158.5598246887418 0 -1 0 -0.80901700255871778 0 -0.5877852410284794 forward_v I I I I #
face $-1 $155 $156 $53 $-1 $157 forward single #
loop $-1 $158 $159 $68 #
cone-surface $-1 53.939421073970422 -15.02261703317026 4.8453163004847113 -0.80901700255871778 0 -0.5877852410284794 0.2938926205142397 0 -0.40450850127935889 1 I I 0 1 0.5 forward I I I I #
face $-1 $160 $161 $54 $-1 $162 forward single #
loop $-1 $163 $164 $69 #
cone-surface $-1 53.939421073970422 -12.70243682841722 4.8453163004847113 -0.80901700255871778 0 -0.5877852410284794 0.2938926205142397 0 -0.40450850127935889 1 I I 0 1 0.5 forward I I I I #
face $-1 $165 $166 $55 $-1 $167 forward single #
loop $-1 $168 $169 $70 #
cone-surface $-1 53.939421073970422 -10.38225662366418 4.8453163004847113 -0.80901700255871778 0 -0.5877852410284794 0.2938926205142397 0 -0.40450850127935889 1 I I 0 1 0.5 forward I I I I #
face $-1 $170 $171 $56 $-1 $172 reversed single #
loop $-1 $-1 $173 $71 #
plane-surface $-1 80.022894748354602 16.56940383633895 158.5598246887418 0 -1 0 -0.80901700255871778 0 -0.5877852410284794 forward_v I I I I #
face $-1 $174 $175 $57 $-1 $176 forward single #
loop $-1 $177 $178 $72 #
cone-surface $-1 53.939421073970422 10.38225662366418 4.8453163004847113 -0.80901700255871778 0 -0.5877852410284794 0.2938926205142397 0 -0.40450850127935889 1 I I 0 1 0.5 forward I I I I #
face $-1 $179 $180 $58 $-1 $181 forward single #
loop $-1 $182 $183 $73 #
cone-surface $-1 53.939421073970422 12.702436828417216 4.8453163004847113 -0.80901700255871778 0 -0.5877852410284794 0.2938926205142397 0 -0.40450850127935889 1 I I 0 1 0.5 forward I I I I #
face $-1 $184 $185 $59 $-1 $186 forward single #
loop $-1 $187 $188 $74 #
cone-surface $-1 53.939421073970422 15.02261703317026 4.8453163004847113 -0.80901700255871778 0 -0.5877852410284794 0.2938926205142397 0 -0.40450850127935889 1 I I 0 1 0.5 forward I I I I #
face $-1 $189 $190 $45 $-1 $191 reversed single #
loop $-1 $-1 $192 $75 #
plane-surface $-1 0 0 -6.6981224597417501 0 0 1 1 0 0 forward_v I I I I #
coedge $-1 $193 $194 $195 $196 forward $76 $-1 #
face $-1 $197 $198 $46 $-1 $199 forward single #
loop $-1 $-1 $200 $78 #
plane-surface $-1 -51.914176454789285 -23.994461019576701 0 -1 0 0 0 0 1 forward_v I I I I #
coedge $-1 $201 $202 $203 $204 forward $79 $-1 #
face $-1 $205 $206 $47 $-1 $207 reversed single #
loop $-1 $-1 $208 $81 #
plane-surface $-1 -51.914176454789285 23.994461019576701 0 -1 0 0 0 0 1 forward_v I I I I #
coedge $-1 $209 $210 $211 $212 reversed $82 $-1 #
face $-1 $213 $214 $48 $-1 $215 reversed single #
loop $-1 $-1 $216 $84 #
plane-surface $-1 -55.476546525467697 -8.8354171846193843 3.4262398642793102 -0.78801076186113728 0 0.61566146476048833 0.61566146476048833 0 0.78801076186113728 forward_v I I I I #
coedge $-1 $217 $218 $219 $220 reversed $85 $-1 #
face $-1 $-1 $221 $49 $-1 $222 forward single #
loop $-1 $223 $224 $87 #
cone-surface $-1 -52.5343986515987 -12.20249962792089 3.7621137217259033 0.78801076186113728 0 -0.61566146476048833 0.15391536619012208 0 0.19700269046528432 1 I I -0.70710678118654746 0.70710678118654746 0.25 forward I I I I #
loop $-1 $-1 $225 $64 #
coedge $-1 $140 $140 $226 $227 reversed $88 $-1 #
face $-1 $-1 $228 $50 $-1 $229 forward single #
loop $-1 $230 $231 $90 #
cone-surface $-1 -52.5343986515987 -8.8354171846193843 3.7621137217259033 0.78801076186113728 0 -0.61566146476048833 0.15391536619012208 0 0.19700269046528432 1 I I -0.70710678118654746 0.70710678118654746 0.25 forward I I I I #
loop $-1 $-1 $232 $65 #
coedge $-1 $145 $145 $233 $234 reversed $91 $-1 #
face $-1 $-1 $235 $51 $-1 $236 forward single #
loop $-1 $237 $238 $93 #
cone-surface $-1 -52.5343986515987 -5.4683347413178787 3.7621137217259033 0.78801076186113728 0 -0.61566146476048833 0.15391536619012208 0 0.19700269046528432 1 I I -0.70710678118654746 0.70710678118654746 0.25 forward I I I I #
loop $-1 $-1 $239 $66 #
coedge $-1 $150 $150 $240 $241 reversed $94 $-1 #
face $-1 $242 $243 $52 $-1 $244 reversed single #
loop $-1 $-1 $245 $96 #
plane-surface $-1 -9.7400440163316517 -12.702436828417222 93.343234146942436 0.80901700255871778 0 0.5877852410284794 0.5877852410284794 0 -0.80901700255871778 forward_v I I I I #
coedge $-1 $246 $247 $248 $249 reversed $97 $-1 #
face $-1 $-1 $250 $53 $-1 $251 forward single #
loop $-1 $252 $253 $99 #
cone-surface $-1 53.332658322051387 -15.02261703317026 4.4044773697133515 -0.80901700255871778 0 -0.5877852410284794 0.14694631025711985 0 -0.20225425063967944 1 I I -0.70710678118654746 0.70710678118654746 0.25 forward I I I I #
loop $-1 $-1 $254 $68 #
coedge $-1 $159 $159 $255 $256 reversed $100 $-1 #
face $-1 $-1 $257 $54 $-1 $258 forward single #
loop $-1 $259 $260 $102 #
cone-surface $-1 53.332658322051387 -12.70243682841722 4.4044773697133515 -0.80901700255871778 0 -0.5877852410284794 0.14694631025711985 0 -0.20225425063967944 1 I I -0.70710678118654746 0.70710678118654746 0.25 forward I I I I #
loop $-1 $-1 $261 $69 #
coedge $-1 $164 $164 $262 $263 reversed $103 $-1 #
face $-1 $-1 $264 $55 $-1 $265 forward single #
loop $-1 $266 $267 $105 #
cone-surface $-1 53.332658322051387 -10.38225662366418 4.4044773697133515 -0.80901700255871778 0 -0.5877852410284794 0.14694631025711985 0 -0.20225425063967944 1 I I -0.70710678118654746 0.70710678118654746 0.25 forward I I I I #
loop $-1 $-1 $268 $70 #
coedge $-1 $169 $169 $269 $270 reversed $106 $-1 #
face $-1 $271 $272 $56 $-1 $273 reversed single #
loop $-1 $-1 $274 $108 #
plane-surface $-1 -9.7400440163316517 12.702436828417216 93.343234146942436 0.80901700255871778 0 0.5877852410284794 0.5877852410284794 0 -0.80901700255871778 forward_v I I I I #
coedge $-1 $275 $276 $277 $278 reversed $109 $-1 #
face $-1 $-1 $279 $57 $-1 $280 forward single #
loop $-1 $281 $282 $111 #
cone-surface $-1 53.332658322051387 10.38225662366418 4.4044773697133515 -0.80901700255871778 0 -0.5877852410284794 0.14694631025711985 0 -0.20225425063967944 1 I I -0.70710678118654746 0.70710678118654746 0.25 forward I I I I #
loop $-1 $-1 $283 $72 #
coedge $-1 $178 $178 $284 $285 reversed $112 $-1 #
face $-1 $-1 $286 $58 $-1 $287 forward single #
loop $-1 $288 $289 $114 #
cone-surface $-1 53.332658322051387 12.702436828417216 4.4044773697133515 -0.80901700255871778 0 -0.5877852410284794 0.14694631025711985 0 -0.20225425063967944 1 I I -0.70710678118654746 0.70710678118654746 0.25 forward I I I I #
loop $-1 $-1 $290 $73 #
coedge $-1 $183 $183 $291 $292 reversed $115 $-1 #
face $-1 $-1 $293 $59 $-1 $294 forward single #
loop $-1 $295 $296 $117 #
cone-surface $-1 53.332658322051387 15.02261703317026 4.4044773697133515 -0.80901700255871778 0 -0.5877852410284794 0.14694631025711985 0 -0.20225425063967944 1 I I -0.70710678118654746 0.70710678118654746 0.25 forward I I I I #
loop $-1 $-1 $297 $74 #
coedge $-1 $188 $188 $298 $299 reversed $118 $-1 #
face $-1 $300 $301 $45 $-1 $302 reversed single #
loop $-1 $-1 $303 $120 #
plane-surface $-1 0 -26.939656148073883 0 0 1 0 0 0 1 forward_v I I I I #
coedge $-1 $304 $305 $306 $307 forward $121 $-1 #
coedge $-1 $308 $123 $309 $310 forward $76 $-1 #
coedge $-1 $123 $308 $311 $312 forward $76 $-1 #
coedge $-1 $313 $314 $123 $196 reversed $315 $-1 #
edge $-1 $316 -26.939656148073883 $317 26.939656148073883 $195 $318 forward 7 unknown #
face $-1 $319 $320 $46 $-1 $321 reversed single #
loop $-1 $-1 $322 $124 #
plane-surface $-1 0 0 6.6981224597417501 0 0 1 1 0 0 forward_v I I I I #
coedge $-1 $323 $324 $325 $326 reversed $125 $-1 #
coedge $-1 $327 $127 $328 $329 reversed $79 $-1 #
coedge $-1 $127 $327 $330 $331 reversed $79 $-1 #
coedge $-1 $324 $323 $127 $204 reversed $125 $-1 #
edge $-1 $332 -6.6981224597417501 $333 6.6981224597417501 $203 $334 forward 7 unknown #
face $-1 $335 $336 $47 $-1 $337 reversed single #
loop $-1 $-1 $338 $128 #
plane-surface $-1 0 0 -6.6981224597417501 0 0 1 1 0 0 forward_v I I I I #
coedge $-1 $339 $340 $341 $342 forward $129 $-1 #
coedge $-1 $341 $131 $343 $344 reversed $82 $-1 #
coedge $-1 $131 $341 $345 $346 reversed $82 $-1 #
coedge $-1 $347 $348 $131 $212 forward $336 $-1 #
edge $-1 $349 -6.6981224597417501 $350 6.6981224597417501 $211 $351 forward 7 unknown #
face $-1 $352 $353 $48 $-1 $354 forward single #
loop $-1 $-1 $355 $132 #
plane-surface $-1 -142.90877791138496 -3.2236131124502112 71.735783651724958 0 -1 0 0.78801076186113728 0 -0.61566146476048833 forward_v I I I I #
coedge $-1 $356 $357 $358 $359 reversed $133 $-1 #
coedge $-1 $218 $135 $360 $361 reversed $85 $-1 #
coedge $-1 $135 $217 $356 $362 reversed $85 $-1 #
coedge $-1 $358 $363 $135 $220 forward $353 $-1 #
edge $-1 $364 15.977842430224783 $365 18.534117203032679 $219 $366 forward 7 unknown #
loop $-1 $-1 $226 $136 #
plane-surface $-1 -55.476546525467697 -8.8354171846193843 3.4262398642793102 -0.78801076186113728 0 0.61566146476048833 0.61566146476048833 0 0.78801076186113728 forward_v I I I I #
loop $-1 $-1 $367 $87 #
coedge $-1 $224 $224 $225 $368 reversed $137 $-1 #
coedge $-1 $225 $225 $224 $368 forward $139 $-1 #
coedge $-1 $226 $226 $140 $227 forward $221 $-1 #
edge $-1 $369 0 $369 6.2831853071796004 $226 $370 forward 7 unknown #
loop $-1 $-1 $233 $141 #
plane-surface $-1 -55.476546525467697 -8.8354171846193843 3.4262398642793102 -0.78801076186113728 0 0.61566146476048833 0.61566146476048833 0 0.78801076186113728 forward_v I I I I #
loop $-1 $-1 $371 $90 #
coedge $-1 $231 $231 $232 $372 reversed $142 $-1 #
coedge $-1 $232 $232 $231 $372 forward $144 $-1 #
coedge $-1 $233 $233 $145 $234 forward $228 $-1 #
edge $-1 $373 0 $373 6.2831853071796004 $233 $374 forward 7 unknown #
loop $-1 $-1 $240 $146 #
plane-surface $-1 -55.476546525467697 -8.8354171846193843 3.4262398642793102 -0.78801076186113728 0 0.61566146476048833 0.61566146476048833 0 0.78801076186113728 forward_v I I I I #
loop $-1 $-1 $375 $93 #
coedge $-1 $238 $238 $239 $376 reversed $147 $-1 #
coedge $-1 $239 $239 $238 $376 forward $149 $-1 #
coedge $-1 $240 $240 $150 $241 forward $235 $-1 #
edge $-1 $377 0 $377 6.2831853071796004 $240 $378 forward 7 unknown #
face $-1 $379 $380 $52 $-1 $381 reversed single #
loop $-1 $-1 $382 $151 #
plane-surface $-1 80.022894748354602 -16.569403836338953 158.5598246887418 0 1 0 0.80901700255871778 0 0.5877852410284794 forward_v I I I I #
coedge $-1 $383 $384 $385 $386 reversed $152 $-1 #
coedge $-1 $247 $154 $387 $388 reversed $97 $-1 #
coedge $-1 $154 $246 $383 $389 reversed $97 $-1 #
coedge $-1 $385 $390 $154 $249 forward $391 $-1 #
edge $-1 $392 -15.465099151290396 $393 -13.199865250854593 $248 $394 forward 7 unknown #
loop $-1 $-1 $255 $155 #
plane-surface $-1 -9.7400440163316517 -12.702436828417222 93.343234146942436 0.80901700255871778 0 0.5877852410284794 0.5877852410284794 0 -0.80901700255871778 forward_v I I I I #
loop $-1 $-1 $395 $99 #
coedge $-1 $253 $253 $254 $396 reversed $156 $-1 #
coedge $-1 $254 $254 $253 $396 forward $158 $-1 #
coedge $-1 $255 $255 $159 $256 forward $250 $-1 #
edge $-1 $397 0 $397 6.2831853071796004 $255 $398 forward 7 unknown #
loop $-1 $-1 $262 $160 #
plane-surface $-1 -9.7400440163316517 -12.702436828417222 93.343234146942436 0.80901700255871778 0 0.5877852410284794 0.5877852410284794 0 -0.80901700255871778 forward_v I I I I #
loop $-1 $-1 $399 $102 #
coedge $-1 $260 $260 $261 $400 reversed $161 $-1 #
coedge $-1 $261 $261 $260 $400 forward $163 $-1 #
coedge $-1 $262 $262 $164 $263 forward $257 $-1 #
edge $-1 $401 0 $401 6.2831853071796004 $262 $402 forward 7 unknown #
loop $-1 $-1 $269 $165 #
plane-surface $-1 -9.7400440163316517 -12.702436828417222 93.343234146942436 0.80901700255871778 0 0.5877852410284794 0.5877852410284794 0 -0.80901700255871778 forward_v I I I I #
loop $-1 $-1 $403 $105 #
coedge $-1 $267 $267 $268 $404 reversed $166 $-1 #
coedge $-1 $268 $268 $267 $404 forward $168 $-1 #
coedge $-1 $269 $269 $169 $270 forward $264 $-1 #
edge $-1 $405 0 $405 6.2831853071796004 $269 $406 forward 7 unknown #
face $-1 $407 $408 $56 $-1 $409 reversed single #
loop $-1 $-1 $410 $170 #
plane-surface $-1 80.022894748354602 8.8354698204954847 158.5598246887418 0 1 0 0.80901700255871778 0 0.5877852410284794 forward_v I I I I #
coedge $-1 $411 $412 $413 $414 reversed $171 $-1 #
coedge $-1 $276 $173 $415 $416 reversed $109 $-1 #
coedge $-1 $173 $275 $411 $417 reversed $109 $-1 #
coedge $-1 $413 $418 $173 $278 forward $419 $-1 #
edge $-1 $420 -15.465099151290396 $421 -13.199865250854593 $277 $422 forward 7 unknown #
loop $-1 $-1 $284 $174 #
plane-surface $-1 -9.7400440163316517 12.702436828417216 93.343234146942436 0.80901700255871778 0 0.5877852410284794 0.5877852410284794 0 -0.80901700255871778 forward_v I I I I #
loop $-1 $-1 $423 $111 #
coedge $-1 $282 $282 $283 $424 reversed $175 $-1 #
coedge $-1 $283 $283 $282 $424 forward $177 $-1 #
coedge $-1 $284 $284 $178 $285 forward $279 $-1 #
edge $-1 $425 0 $425 6.2831853071796004 $284 $426 forward 7 unknown #
loop $-1 $-1 $291 $179 #
plane-surface $-1 -9.7400440163316517 12.702436828417216 93.343234146942436 0.80901700255871778 0 0.5877852410284794 0.5877852410284794 0 -0.80901700255871778 forward_v I I I I #
loop $-1 $-1 $427 $114 #
coedge $-1 $289 $289 $290 $428 reversed $180 $-1 #
coedge $-1 $290 $290 $289 $428 forward $182 $-1 #
coedge $-1 $291 $291 $183 $292 forward $286 $-1 #
edge $-1 $429 0 $429 6.2831853071796004 $291 $430 forward 7 unknown #
loop $-1 $-1 $298 $184 #
plane-surface $-1 -9.7400440163316517 12.702436828417216 93.343234146942436 0.80901700255871778 0 0.5877852410284794 0.5877852410284794 0 -0.80901700255871778 forward_v I I I I #
loop $-1 $-1 $431 $117 #
coedge $-1 $296 $296 $297 $432 reversed $185 $-1 #
coedge $-1 $297 $297 $296 $432 forward $187 $-1 #
coedge $-1 $298 $298 $188 $299 forward $293 $-1 #
edge $-1 $433 0 $433 6.2831853071796004 $298 $434 forward 7 unknown #
face $-1 $435 $436 $45 $-1 $437 reversed single #
loop $-1 $-1 $438 $189 #
plane-surface $-1 -55.476546525467697 0 0 1 0 0 0 0 -1 forward_v I I I I #
coedge $-1 $439 $311 $440 $441 forward $190 $-1 #
coedge $-1 $442 $192 $439 $443 forward $121 $-1 #
coedge $-1 $192 $442 $444 $445 forward $121 $-1 #
coedge $-1 $314 $313 $192 $307 reversed $315 $-1 #
edge $-1 $446 -26.939656148073883 $447 26.939656148073883 $306 $448 forward 7 unknown #
coedge $-1 $194 $193 $449 $450 forward $76 $-1 #
coedge $-1 $451 $452 $193 $310 reversed $436 $-1 #
edge $-1 $317 -55.476546525467697 $453 55.476546525467697 $309 $454 forward 7 unknown #
coedge $-1 $303 $455 $194 $312 reversed $190 $-1 #
edge $-1 $456 -55.476546525467697 $316 55.476546525467697 $311 $457 forward 7 unknown #
coedge $-1 $306 $195 $455 $458 forward $315 $-1 #
coedge $-1 $195 $306 $451 $459 reversed $315 $-1 #
loop $-1 $-1 $313 $435 #
vertex $-1 $196 $460 #
vertex $-1 $196 $461 #
straight-curve $-1 55.476546525467697 0 6.6981224597417501 0 1 0 I I #
face $-1 $462 $463 $46 $-1 $464 reversed single #
loop $-1 $-1 $465 $197 #
plane-surface $-1 -55.476546525467697 0 0 1 0 0 0 0 -1 forward_v I I I I #
coedge $-1 $330 $466 $324 $467 forward $198 $-1 #
coedge $-1 $203 $200 $468 $469 reversed $125 $-1 #
coedge $-1 $200 $203 $322 $467 reversed $125 $-1 #
coedge $-1 $470 $471 $200 $326 forward $472 $-1 #
edge $-1 $473 -6.6981224597417501 $474 6.6981224597417501 $325 $475 forward 7 unknown #
coedge $-1 $202 $201 $465 $476 reversed $79 $-1 #
coedge $-1 $468 $477 $201 $329 forward $463 $-1 #
edge $-1 $478 -28.628865780403451 $333 -25.066495709725039 $328 $479 forward 7 unknown #
coedge $-1 $480 $322 $202 $331 forward $198 $-1 #
edge $-1 $332 25.066495709725039 $481 28.628865780403451 $330 $482 forward 7 unknown #
vertex $-1 $331 $483 #
vertex $-1 $329 $484 #
straight-curve $-1 -51.914176454789285 -21.049265891079518 0 0 0 -1 I I #
face $-1 $485 $486 $47 $-1 $487 forward single #
loop $-1 $-1 $211 $205 #
plane-surface $-1 -55.476546525467697 0 0 1 0 0 0 0 -1 forward_v I I I I #
coedge $-1 $343 $488 $339 $489 forward $206 $-1 #
coedge $-1 $490 $208 $338 $489 reversed $129 $-1 #
coedge $-1 $208 $490 $491 $492 reversed $129 $-1 #
coedge $-1 $210 $209 $208 $342 reversed $82 $-1 #
edge $-1 $493 -6.6981224597417501 $494 6.6981224597417501 $208 $495 forward 7 unknown #
coedge $-1 $496 $338 $209 $344 forward $206 $-1 #
edge $-1 $494 25.066495709725039 $349 28.628865780403451 $343 $497 forward 7 unknown #
coedge $-1 $491 $498 $210 $346 forward $486 $-1 #
edge $-1 $350 -28.628865780403451 $493 -25.066495709725039 $345 $499 forward 7 unknown #
coedge $-1 $500 $211 $498 $501 reversed $336 $-1 #
coedge $-1 $211 $500 $496 $502 reversed $336 $-1 #
vertex $-1 $502 $503 #
vertex $-1 $212 $504 #
straight-curve $-1 -55.476546525467697 21.049265891079518 0 0 0 1 I I #
face $-1 $-1 $505 $48 $-1 $506 reversed single #
loop $-1 $-1 $219 $213 #
plane-surface $-1 0 0 6.6981224597417501 0 0 1 1 0 0 forward_v I I I I #
coedge $-1 $507 $508 $509 $510 reversed $214 $-1 #
coedge $-1 $511 $216 $218 $362 forward $133 $-1 #
coedge $-1 $216 $511 $507 $512 forward $133 $-1 #
coedge $-1 $509 $219 $216 $359 forward $353 $-1 #
edge $-1 $365 -10.029512664478865 $513 1.1940954798594809 $358 $514 forward 7 unknown #
coedge $-1 $515 $516 $217 $361 forward $505 $-1 #
edge $-1 $517 -32.441651961583169 $364 -29.169769366120729 $360 $518 forward 7 unknown #
edge $-1 $365 -4.1520785677277461 $517 0 $218 $519 forward 7 unknown #
coedge $-1 $219 $509 $515 $520 forward $353 $-1 #
vertex $-1 $220 $521 #
vertex $-1 $220 $522 #
straight-curve $-1 -71.45438895569248 -14.447221256788557 6.6981224597417537 1 0 0 I I #
coedge $-1 $367 $367 $-1 $523 reversed $223 $-1 #
edge $-1 $524 0 $524 6.2831853071796004 $224 $525 forward 7 unknown #
vertex $-1 $227 $526 #
ellipse-curve $-1 -54.198409139063749 -12.20249962792089 5.0621811620105301 -0.78801076186113728 0 0.61566146476048833 0.30783073238024417 0 0.39400538093056864 1 I I #
coedge $-1 $371 $371 $-1 $527 reversed $230 $-1 #
edge $-1 $528 0 $528 6.2831853071796004 $231 $529 forward 7 unknown #
vertex $-1 $234 $530 #
ellipse-curve $-1 -54.198409139063749 -8.8354171846193843 5.0621811620105301 -0.78801076186113728 0 0.61566146476048833 0.30783073238024417 0 0.39400538093056864 1 I I #
coedge $-1 $375 $375 $-1 $531 reversed $237 $-1 #
edge $-1 $532 0 $532 6.2831853071796004 $238 $533 forward 7 unknown #
vertex $-1 $241 $534 #
ellipse-curve $-1 -54.198409139063749 -5.4683347413178787 5.0621811620105301 -0.78801076186113728 0 0.61566146476048833 0.30783073238024417 0 0.39400538093056864 1 I I #
face $-1 $-1 $391 $52 $-1 $535 forward single #
loop $-1 $-1 $536 $242 #
plane-surface $-1 55.476546525467697 0 0 -1 0 0 0 0 1 forward_v I I I I #
coedge $-1 $537 $538 $539 $540 reversed $243 $-1 #
coedge $-1 $541 $245 $247 $389 forward $152 $-1 #
coedge $-1 $245 $541 $537 $542 forward $152 $-1 #
coedge $-1 $539 $248 $245 $386 forward $391 $-1 #
edge $-1 $393 2.4842514062868792 $543 10.218185422130343 $385 $544 forward 7 unknown #
coedge $-1 $545 $546 $246 $388 forward $380 $-1 #
edge $-1 $547 -75.699616962114689 $392 -72.581789884629146 $387 $548 forward 7 unknown #
edge $-1 $393 107.09924688005806 $547 110.95309305093537 $247 $549 forward 7 unknown #
coedge $-1 $248 $539 $545 $550 forward $391 $-1 #
loop $-1 $-1 $539 $379 #
vertex $-1 $388 $551 #
vertex $-1 $249 $552 #
straight-curve $-1 40.011447374177301 -8.83546982049549 6.6981224597417537 -1 0 0 I I #
coedge $-1 $395 $395 $-1 $553 reversed $252 $-1 #
edge $-1 $554 0 $554 6.2831853071796004 $253 $555 forward 7 unknown #
vertex $-1 $256 $556 #
ellipse-curve $-1 54.343929575249803 -15.02261703317026 5.1392089209989678 0.80901700255871778 0 0.5877852410284794 0.2938926205142397 0 -0.40450850127935889 1 I I #
coedge $-1 $399 $399 $-1 $557 reversed $259 $-1 #
edge $-1 $558 0 $558 6.2831853071796004 $260 $559 forward 7 unknown #
vertex $-1 $263 $560 #
ellipse-curve $-1 54.343929575249803 -12.70243682841722 5.1392089209989678 0.80901700255871778 0 0.5877852410284794 0.2938926205142397 0 -0.40450850127935889 1 I I #
coedge $-1 $403 $403 $-1 $561 reversed $266 $-1 #
edge $-1 $562 0 $562 6.2831853071796004 $267 $563 forward 7 unknown #
vertex $-1 $270 $564 #
ellipse-curve $-1 54.343929575249803 -10.38225662366418 5.1392089209989678 0.80901700255871778 0 0.5877852410284794 0.2938926205142397 0 -0.40450850127935889 1 I I #
face $-1 $-1 $419 $56 $-1 $565 forward single #
loop $-1 $-1 $566 $271 #
plane-surface $-1 55.476546525467697 0 0 -1 0 0 0 0 1 forward_v I I I I #
coedge $-1 $567 $568 $569 $570 reversed $272 $-1 #
coedge $-1 $571 $274 $276 $417 forward $171 $-1 #
coedge $-1 $274 $571 $567 $572 forward $171 $-1 #
coedge $-1 $569 $277 $274 $414 forward $419 $-1 #
edge $-1 $421 -10.218185422130341 $573 -2.4842514062868766 $413 $574 forward 7 unknown #
coedge $-1 $575 $576 $275 $416 forward $408 $-1 #
edge $-1 $577 -75.699616962114689 $420 -72.581789884629146 $415 $578 forward 7 unknown #
edge $-1 $421 107.09924688005806 $577 110.95309305093537 $276 $579 forward 7 unknown #
coedge $-1 $277 $569 $575 $580 forward $419 $-1 #
loop $-1 $-1 $569 $407 #
vertex $-1 $416 $581 #
vertex $-1 $278 $582 #
straight-curve $-1 40.011447374177301 16.56940383633895 6.6981224597417537 -1 0 0 I I #
coedge $-1 $423 $423 $-1 $583 reversed $281 $-1 #
edge $-1 $584 0 $584 6.2831853071796004 $282 $585 forward 7 unknown #
vertex $-1 $285 $586 #
ellipse-curve $-1 54.343929575249803 10.38225662366418 5.1392089209989678 0.80901700255871778 0 0.5877852410284794 0.2938926205142397 0 -0.40450850127935889 1 I I #
coedge $-1 $427 $427 $-1 $587 reversed $288 $-1 #
edge $-1 $588 0 $588 6.2831853071796004 $289 $589 forward 7 unknown #
vertex $-1 $292 $590 #
ellipse-curve $-1 54.343929575249803 12.702436828417216 5.1392089209989678 0.80901700255871778 0 0.5877852410284794 0.2938926205142397 0 -0.40450850127935889 1 I I #
coedge $-1 $431 $431 $-1 $591 reversed $295 $-1 #
edge $-1 $592 0 $592 6.2831853071796004 $296 $593 forward 7 unknown #
vertex $-1 $299 $594 #
ellipse-curve $-1 54.343929575249803 15.02261703317026 5.1392089209989678 0.80901700255871778 0 0.5877852410284794 0.2938926205142397 0 -0.40450850127935889 1 I I #
face $-1 $-1 $315 $45 $-1 $595 reversed single #
loop $-1 $-1 $451 $300 #
plane-surface $-1 0 26.939656148073883 0 0 -1 0 0 0 -1 forward_v I I I I #
coedge $-1 $596 $449 $452 $597 forward $301 $-1 #
coedge $-1 $455 $303 $304 $443 reversed $190 $-1 #
coedge $-1 $449 $596 $303 $441 reversed $301 $-1 #
edge $-1 $456 -6.6981224597417501 $598 6.6981224597417501 $440 $599 forward 7 unknown #
coedge $-1 $305 $304 $596 $600 forward $121 $-1 #
edge $-1 $447 -55.476546525467697 $598 55.476546525467697 $439 $601 forward 7 unknown #
coedge $-1 $452 $451 $305 $445 reversed $436 $-1 #
edge $-1 $602 -55.476546525467697 $446 55.476546525467697 $444 $603 forward 7 unknown #
vertex $-1 $307 $604 #
vertex $-1 $458 $605 #
straight-curve $-1 55.476546525467697 0 -6.6981224597417501 0 -1 0 I I #
coedge $-1 $438 $440 $308 $450 reversed $301 $-1 #
edge $-1 $453 -26.939656148073883 $456 26.939656148073883 $449 $606 forward 7 unknown #
coedge $-1 $444 $309 $314 $459 forward $436 $-1 #
coedge $-1 $309 $444 $438 $597 reversed $436 $-1 #
vertex $-1 $310 $607 #
straight-curve $-1 0 26.939656148073883 6.6981224597417501 -1 0 0 I I #
coedge $-1 $311 $439 $313 $458 reversed $190 $-1 #
vertex $-1 $450 $608 #
straight-curve $-1 0 -26.939656148073883 6.6981224597417501 1 0 0 I I #
edge $-1 $316 -6.6981224597417501 $447 6.6981224597417501 $313 $609 forward 7 unknown #
edge $-1 $317 -6.6981224597417501 $446 6.6981224597417501 $314 $610 forward 7 unknown #
point $-1 55.476546525467697 -26.939656148073883 6.6981224597417501 #
point $-1 55.476546525467697 26.939656148073883 6.6981224597417501 #
face $-1 $-1 $472 $46 $-1 $611 reversed single #
loop $-1 $-1 $468 $319 #
plane-surface $-1 0 0 -6.6981224597417501 0 0 1 1 0 0 forward_v I I I I #
coedge $-1 $612 $613 $327 $476 forward $320 $-1 #
coedge $-1 $322 $480 $470 $614 forward $198 $-1 #
edge $-1 $474 -14.942425638285533 $332 -9.0520353812911676 $322 $615 forward 7 unknown #
coedge $-1 $616 $328 $323 $469 forward $463 $-1 #
edge $-1 $333 9.0520353812911676 $473 14.942425638285533 $468 $617 forward 7 unknown #
coedge $-1 $618 $325 $466 $614 reversed $472 $-1 #
coedge $-1 $325 $618 $616 $619 reversed $472 $-1 #
loop $-1 $-1 $325 $462 #
vertex $-1 $619 $620 #
vertex $-1 $326 $621 #
straight-curve $-1 -51.914176454789285 -26.939656148073883 0 0 0 1 I I #
edge $-1 $481 -6.6981224597417501 $478 6.6981224597417501 $465 $622 forward 7 unknown #
coedge $-1 $328 $616 $612 $623 forward $463 $-1 #
vertex $-1 $329 $624 #
straight-curve $-1 -26.847680745064245 -21.049265891079518 -6.6981224597417501 1 0 0 I I #
coedge $-1 $466 $330 $613 $625 forward $198 $-1 #
vertex $-1 $625 $626 #
straight-curve $-1 -26.847680745064245 -21.049265891079518 6.6981224597417501 -1 0 0 I I #
point $-1 -51.914176454789285 -21.049265891079518 6.6981224597417501 #
point $-1 -51.914176454789285 -21.049265891079518 -6.6981224597417501 #
face $-1 $-1 $627 $47 $-1 $628 reversed single #
loop $-1 $-1 $491 $335 #
plane-surface $-1 0 0 6.6981224597417501 0 0 1 1 0 0 forward_v I I I I #
coedge $-1 $338 $496 $629 $630 forward $206 $-1 #
edge $-1 $631 -14.942425638285533 $494 -9.0520353812911676 $338 $632 forward 7 unknown #
coedge $-1 $340 $339 $633 $634 reversed $129 $-1 #
coedge $-1 $635 $345 $340 $492 forward $486 $-1 #
edge $-1 $493 9.0520353812911676 $636 14.942425638285533 $491 $637 forward 7 unknown #
vertex $-1 $346 $638 #
vertex $-1 $344 $639 #
straight-curve $-1 -51.914176454789285 21.049265891079518 0 0 0 -1 I I #
coedge $-1 $488 $343 $348 $502 forward $206 $-1 #
straight-curve $-1 -26.847680745064245 21.049265891079518 -6.6981224597417501 -1 0 0 I I #
coedge $-1 $345 $635 $347 $501 forward $486 $-1 #
straight-curve $-1 -26.847680745064245 21.049265891079518 6.6981224597417501 1 0 0 I I #
coedge $-1 $348 $347 $640 $641 forward $336 $-1 #
edge $-1 $642 -26.939656148073883 $350 -21.049265891079518 $347 $643 forward 7 unknown #
edge $-1 $349 21.049265891079518 $644 26.939656148073883 $348 $645 forward 7 unknown #
point $-1 -55.476546525467697 21.049265891079518 -6.6981224597417501 #
point $-1 -55.476546525467697 21.049265891079518 6.6981224597417501 #
loop $-1 $-1 $360 $352 #
plane-surface $-1 -55.476546525467697 0 0 1 0 0 0 0 -1 forward_v I I I I #
coedge $-1 $508 $355 $357 $512 reversed $214 $-1 #
coedge $-1 $355 $507 $646 $647 reversed $214 $-1 #
coedge $-1 $363 $358 $355 $510 forward $353 $-1 #
edge $-1 $513 -18.534117203032679 $648 -15.977842430224783 $509 $649 forward 7 unknown #
coedge $-1 $357 $356 $516 $650 reversed $133 $-1 #
edge $-1 $651 0 $513 4.1520785677277461 $507 $652 forward 7 unknown #
vertex $-1 $359 $653 #
straight-curve $-1 -52.920271752659815 -4.4177085923096922 6.6981224597417501 0 1 0 I I #
coedge $-1 $646 $360 $363 $520 reversed $505 $-1 #
coedge $-1 $360 $646 $511 $650 forward $505 $-1 #
vertex $-1 $361 $654 #
straight-curve $-1 -55.476546525467697 -14.447221256788557 35.867891825862479 0 0 1 I I #
straight-curve $-1 -55.476546525467697 -14.447221256788557 3.4262398642793102 -0.61566146476048833 0 -0.78801076186113728 I I #
edge $-1 $648 3.2236131124502112 $364 14.447221256788557 $515 $655 forward 7 unknown #
point $-1 -55.476546525467697 -14.447221256788557 6.6981224597417501 #
point $-1 -52.920271752659801 -14.447221256788557 6.6981224597417501 #
edge $-1 $656 1 $656 0 $367 $-1 forward 7 unknown #
vertex $-1 $368 $657 #
ellipse-curve $-1 -52.731401342063982 -12.20249962792089 3.9160290879160256 -0.78801076186113728 0 0.61566146476048833 0.30783073238024417 0 0.39400538093056864 1 I I #
point $-1 -53.890578406683503 -12.20249962792089 5.4561865429410963 #
edge $-1 $658 1 $658 0 $371 $-1 forward 7 unknown #
vertex $-1 $372 $659 #
ellipse-curve $-1 -52.731401342063982 -8.8354171846193843 3.9160290879160256 -0.78801076186113728 0 0.61566146476048833 0.30783073238024417 0 0.39400538093056864 1 I I #
point $-1 -53.890578406683503 -8.8354171846193843 5.4561865429410963 #
edge $-1 $660 1 $660 0 $375 $-1 forward 7 unknown #
vertex $-1 $376 $661 #
ellipse-curve $-1 -52.731401342063982 -5.4683347413178787 3.9160290879160256 -0.78801076186113728 0 0.61566146476048833 0.30783073238024417 0 0.39400538093056864 1 I I #
point $-1 -53.890578406683503 -5.4683347413178787 5.4561865429410963 #
plane-surface $-1 0 0 6.6981224597417501 0 0 1 1 0 0 forward_v I I I I #
coedge $-1 $546 $545 $538 $662 forward $380 $-1 #
coedge $-1 $538 $382 $384 $542 reversed $243 $-1 #
coedge $-1 $382 $537 $536 $662 reversed $243 $-1 #
coedge $-1 $390 $385 $382 $540 forward $391 $-1 #
edge $-1 $543 13.199865250854593 $663 15.465099151290396 $539 $664 forward 7 unknown #
coedge $-1 $384 $383 $546 $665 reversed $152 $-1 #
edge $-1 $666 -110.95309305093537 $543 -107.09924688005806 $537 $667 forward 7 unknown #
vertex $-1 $386 $668 #
straight-curve $-1 53.211312625031894 -6.3512184142086108 6.6981224597417537 0 -1 0 I I #
coedge $-1 $536 $387 $390 $550 reversed $380 $-1 #
coedge $-1 $387 $536 $541 $665 forward $380 $-1 #
vertex $-1 $388 $669 #
straight-curve $-1 55.476546525467697 -8.83546982049549 79.279912344370899 0 0 1 I I #
straight-curve $-1 -9.7400440163316517 -8.83546982049549 93.343234146942436 0.5877852410284794 0 -0.80901700255871778 I I #
edge $-1 $663 -16.569403836338953 $392 -8.83546982049549 $545 $670 forward 7 unknown #
point $-1 55.476546525467697 -8.83546982049549 6.6981224597417501 #
point $-1 53.211312625031894 -8.83546982049549 6.6981224597417537 #
edge $-1 $671 1 $671 0 $395 $-1 forward 7 unknown #
vertex $-1 $396 $672 #
ellipse-curve $-1 53.534912572691063 -15.02261703317026 4.5514236799704717 0.80901700255871778 0 0.5877852410284794 0.2938926205142397 0 -0.40450850127935889 1 I I #
point $-1 54.637822195764024 -15.02261703317026 4.7347004197195917 #
edge $-1 $673 1 $673 0 $399 $-1 forward 7 unknown #
vertex $-1 $400 $674 #
ellipse-curve $-1 53.534912572691063 -12.70243682841722 4.5514236799704717 0.80901700255871778 0 0.5877852410284794 0.2938926205142397 0 -0.40450850127935889 1 I I #
point $-1 54.637822195764024 -12.70243682841722 4.7347004197195917 #
edge $-1 $675 1 $675 0 $403 $-1 forward 7 unknown #
vertex $-1 $404 $676 #
ellipse-curve $-1 53.534912572691063 -10.38225662366418 4.5514236799704717 0.80901700255871778 0 0.5877852410284794 0.2938926205142397 0 -0.40450850127935889 1 I I #
point $-1 54.637822195764024 -10.38225662366418 4.7347004197195917 #
plane-surface $-1 0 0 6.6981224597417501 0 0 1 1 0 0 forward_v I I I I #
coedge $-1 $576 $575 $568 $677 forward $408 $-1 #
coedge $-1 $568 $410 $412 $572 reversed $272 $-1 #
coedge $-1 $410 $567 $566 $677 reversed $272 $-1 #
coedge $-1 $418 $413 $410 $570 forward $419 $-1 #
edge $-1 $573 13.199865250854593 $678 15.465099151290396 $569 $679 forward 7 unknown #
coedge $-1 $412 $411 $576 $680 reversed $171 $-1 #
edge $-1 $681 -110.95309305093537 $573 -107.09924688005806 $567 $682 forward 7 unknown #
vertex $-1 $414 $683 #
straight-curve $-1 53.211312625031894 6.3512184142086081 6.6981224597417537 0 -1 0 I I #
coedge $-1 $566 $415 $418 $580 reversed $408 $-1 #
coedge $-1 $415 $566 $571 $680 forward $408 $-1 #
vertex $-1 $416 $684 #
straight-curve $-1 55.476546525467697 16.56940383633895 79.279912344370899 0 0 1 I I #
straight-curve $-1 -9.7400440163316517 16.56940383633895 93.343234146942436 0.5877852410284794 0 -0.80901700255871778 I I #
edge $-1 $678 8.8354698204954847 $420 16.56940383633895 $575 $685 forward 7 unknown #
point $-1 55.476546525467697 16.56940383633895 6.6981224597417501 #
point $-1 53.211312625031894 16.56940383633895 6.6981224597417537 #
edge $-1 $686 1 $686 0 $423 $-1 forward 7 unknown #
vertex $-1 $424 $687 #
ellipse-curve $-1 53.534912572691063 10.38225662366418 4.5514236799704717 0.80901700255871778 0 0.5877852410284794 0.2938926205142397 0 -0.40450850127935889 1 I I #
point $-1 54.637822195764024 10.38225662366418 4.7347004197195917 #
edge $-1 $688 1 $688 0 $427 $-1 forward 7 unknown #
vertex $-1 $428 $689 #
ellipse-curve $-1 53.534912572691063 12.702436828417216 4.5514236799704717 0.80901700255871778 0 0.5877852410284794 0.2938926205142397 0 -0.40450850127935889 1 I I #
point $-1 54.637822195764024 12.702436828417216 4.7347004197195917 #
edge $-1 $690 1 $690 0 $431 $-1 forward 7 unknown #
vertex $-1 $432 $691 #
ellipse-curve $-1 53.534912572691063 15.02261703317026 4.5514236799704717 0.80901700255871778 0 0.5877852410284794 0.2938926205142397 0 -0.40450850127935889 1 I I #
point $-1 54.637822195764024 15.02261703317026 4.7347004197195917 #
plane-surface $-1 55.476546525467697 0 0 -1 0 0 0 0 1 forward_v I I I I #
coedge $-1 $440 $438 $442 $600 reversed $301 $-1 #
edge $-1 $453 -6.6981224597417501 $602 6.6981224597417501 $452 $692 forward 7 unknown #
vertex $-1 $600 $693 #
straight-curve $-1 -55.476546525467697 -26.939656148073883 0 0 0 -1 I I #
edge $-1 $598 -26.939656148073883 $602 26.939656148073883 $596 $694 forward 7 unknown #
straight-curve $-1 0 -26.939656148073883 -6.6981224597417501 -1 0 0 I I #
vertex $-1 $445 $695 #
straight-curve $-1 0 26.939656148073883 -6.6981224597417501 1 0 0 I I #
point $-1 55.476546525467697 26.939656148073883 -6.6981224597417501 #
point $-1 55.476546525467697 -26.939656148073883 -6.6981224597417501 #
straight-curve $-1 -55.476546525467697 0 6.6981224597417501 0 -1 0 I I #
point $-1 -55.476546525467697 26.939656148073883 6.6981224597417501 #
point $-1 -55.476546525467697 -26.939656148073883 6.6981224597417501 #
straight-curve $-1 55.476546525467697 -26.939656148073883 0 0 0 -1 I I #
straight-curve $-1 55.476546525467697 26.939656148073883 0 0 0 -1 I I #
plane-surface $-1 0 -26.939656148073883 0 0 1 0 0 0 1 forward_v I I I I #
coedge $-1 $696 $465 $477 $623 reversed $320 $-1 #
coedge $-1 $465 $696 $480 $625 reversed $320 $-1 #
edge $-1 $697 -55.476546525467697 $474 -51.914176454789285 $470 $698 forward 7 unknown #
straight-curve $-1 -51.914176454789285 -11.99723050978835 6.6981224597417501 0 1 0 I I #
coedge $-1 $477 $468 $471 $619 forward $463 $-1 #
straight-curve $-1 -51.914176454789285 -11.99723050978835 -6.6981224597417501 0 -1 0 I I #
coedge $-1 $471 $470 $696 $699 forward $472 $-1 #
edge $-1 $473 51.914176454789285 $700 55.476546525467697 $471 $701 forward 7 unknown #
point $-1 -51.914176454789285 -26.939656148073883 -6.6981224597417501 #
point $-1 -51.914176454789285 -26.939656148073883 6.6981224597417501 #
straight-curve $-1 -55.476546525467697 -21.049265891079518 0 0 0 -1 I I #
edge $-1 $700 -26.939656148073883 $478 -21.049265891079518 $612 $702 forward 7 unknown #
point $-1 -55.476546525467697 -21.049265891079518 -6.6981224597417501 #
edge $-1 $481 21.049265891079518 $697 26.939656148073883 $613 $703 forward 7 unknown #
point $-1 -55.476546525467697 -21.049265891079518 6.6981224597417501 #
loop $-1 $-1 $633 $485 #
plane-surface $-1 0 26.939656148073883 0 0 -1 0 0 0 -1 forward_v I I I I #
coedge $-1 $640 $633 $488 $630 reversed $627 $-1 #
edge $-1 $644 -55.476546525467697 $631 -51.914176454789285 $629 $704 forward 7 unknown #
vertex $-1 $489 $705 #
straight-curve $-1 -51.914176454789285 11.99723050978835 -6.6981224597417501 0 -1 0 I I #
coedge $-1 $629 $706 $490 $634 forward $627 $-1 #
edge $-1 $636 -6.6981224597417501 $631 6.6981224597417501 $633 $707 forward 7 unknown #
coedge $-1 $498 $491 $706 $708 forward $486 $-1 #
vertex $-1 $708 $709 #
straight-curve $-1 -51.914176454789285 11.99723050978835 6.6981224597417501 0 1 0 I I #
point $-1 -51.914176454789285 21.049265891079518 6.6981224597417501 #
point $-1 -51.914176454789285 21.049265891079518 -6.6981224597417501 #
coedge $-1 $706 $629 $500 $641 reversed $627 $-1 #
edge $-1 $642 -6.6981224597417501 $644 6.6981224597417501 $640 $710 forward 7 unknown #
vertex $-1 $708 $711 #
straight-curve $-1 -55.476546525467697 0 6.6981224597417501 0 -1 0 I I #
vertex $-1 $630 $712 #
straight-curve $-1 -55.476546525467697 0 -6.6981224597417501 0 1 0 I I #
coedge $-1 $516 $515 $508 $647 forward $505 $-1 #
edge $-1 $648 29.169769366120729 $651 32.441651961583169 $646 $713 forward 7 unknown #
vertex $-1 $520 $714 #
straight-curve $-1 -71.45438895569248 -3.2236131124502112 6.6981224597417537 -1 0 0 I I #
edge $-1 $651 -1.1940954798594809 $517 10.029512664478865 $516 $715 forward 7 unknown #
vertex $-1 $650 $716 #
straight-curve $-1 -55.476546525467697 -3.2236131124502112 3.4262398642793102 0.61566146476048833 0 0.78801076186113728 I I #
point $-1 -52.920271752659801 -3.2236131124502112 6.6981224597417501 #
point $-1 -55.476546525467697 -14.447221256788557 3.4262398642793102 #
straight-curve $-1 -55.476546525467697 0 6.6981224597417501 0 -1 0 I I #
vertex $-1 $523 $717 #
point $-1 -52.423570609683743 -12.20249962792089 4.3100344688465944 #
vertex $-1 $527 $718 #
point $-1 -52.423570609683743 -8.8354171846193843 4.3100344688465944 #
vertex $-1 $531 $719 #
point $-1 -52.423570609683743 -5.4683347413178787 4.3100344688465944 #
edge $-1 $663 72.581789884629146 $666 75.699616962114689 $536 $720 forward 7 unknown #
vertex $-1 $550 $721 #
straight-curve $-1 40.011447374177301 -16.569403836338953 6.6981224597417537 1 0 0 I I #
edge $-1 $666 -10.218185422130343 $547 -2.4842514062868792 $546 $722 forward 7 unknown #
vertex $-1 $665 $723 #
straight-curve $-1 -9.7400440163316517 -16.569403836338953 93.343234146942436 -0.5877852410284794 0 0.80901700255871778 I I #
point $-1 53.211312625031894 -16.569403836338953 6.6981224597417537 #
point $-1 55.476546525467697 -8.83546982049549 3.5802953822562102 #
straight-curve $-1 55.476546525467697 0 6.6981224597417501 0 1 0 I I #
vertex $-1 $553 $724 #
point $-1 53.828805193205305 -15.02261703317026 4.1469151786911125 #
vertex $-1 $557 $725 #
point $-1 53.828805193205305 -12.70243682841722 4.1469151786911125 #
vertex $-1 $561 $726 #
point $-1 53.828805193205305 -10.38225662366418 4.1469151786911125 #
edge $-1 $678 72.581789884629146 $681 75.699616962114689 $566 $727 forward 7 unknown #
vertex $-1 $580 $728 #
straight-curve $-1 40.011447374177301 8.8354698204954847 6.6981224597417537 1 0 0 I I #
edge $-1 $681 2.4842514062868766 $577 10.218185422130341 $576 $729 forward 7 unknown #
vertex $-1 $680 $730 #
straight-curve $-1 -9.7400440163316517 8.8354698204954847 93.343234146942436 -0.5877852410284794 0 0.80901700255871778 I I #
point $-1 53.211312625031894 8.8354698204954847 6.6981224597417537 #
point $-1 55.476546525467697 16.56940383633895 3.5802953822562102 #
straight-curve $-1 55.476546525467697 0 6.6981224597417501 0 1 0 I I #
vertex $-1 $583 $731 #
point $-1 53.828805193205305 10.38225662366418 4.1469151786911125 #
vertex $-1 $587 $732 #
point $-1 53.828805193205305 12.702436828417216 4.1469151786911125 #
vertex $-1 $591 $733 #
point $-1 53.828805193205305 15.02261703317026 4.1469151786911125 #
straight-curve $-1 -55.476546525467697 26.939656148073883 0 0 0 -1 I I #
point $-1 -55.476546525467697 -26.939656148073883 -6.6981224597417501 #
straight-curve $-1 -55.476546525467697 0 -6.6981224597417501 0 1 0 I I #
point $-1 -55.476546525467697 26.939656148073883 -6.6981224597417501 #
coedge $-1 $613 $612 $618 $699 reversed $320 $-1 #
vertex $-1 $625 $734 #
straight-curve $-1 0 -26.939656148073883 6.6981224597417501 1 0 0 I I #
edge $-1 $697 -6.6981224597417501 $700 6.6981224597417501 $696 $735 forward 7 unknown #
vertex $-1 $623 $736 #
straight-curve $-1 0 -26.939656148073883 -6.6981224597417501 -1 0 0 I I #
straight-curve $-1 -55.476546525467697 0 -6.6981224597417501 0 1 0 I I #
straight-curve $-1 -55.476546525467697 0 6.6981224597417501 0 -1 0 I I #
straight-curve $-1 0 26.939656148073883 -6.6981224597417501 1 0 0 I I #
point $-1 -51.914176454789285 26.939656148073883 -6.6981224597417501 #
coedge $-1 $633 $640 $635 $708 reversed $627 $-1 #
straight-curve $-1 -51.914176454789285 26.939656148073883 0 0 0 -1 I I #
edge $-1 $636 51.914176454789285 $642 55.476546525467697 $706 $737 forward 7 unknown #
point $-1 -51.914176454789285 26.939656148073883 6.6981224597417501 #
straight-curve $-1 -55.476546525467697 26.939656148073883 0 0 0 -1 I I #
point $-1 -55.476546525467697 26.939656148073883 6.6981224597417501 #
point $-1 -55.476546525467697 26.939656148073883 -6.6981224597417501 #
straight-curve $-1 -55.476546525467697 -3.2236131124502112 35.867891825862479 0 0 -1 I I #
point $-1 -55.476546525467697 -3.2236131124502112 6.6981224597417501 #
straight-curve $-1 -55.476546525467697 -4.4177085923096922 3.4262398642793128 0 -1 0 I I #
point $-1 -55.476546525467697 -3.2236131124502112 3.4262398642793102 #
point $-1 -52.337395961133417 -12.20249962792089 3.6081983555357811 #
point $-1 -52.337395961133417 -8.8354171846193843 3.6081983555357811 #
point $-1 -52.337395961133417 -5.4683347413178787 3.6081983555357811 #
straight-curve $-1 55.476546525467697 -16.569403836338953 79.279912344370899 0 0 -1 I I #
point $-1 55.476546525467697 -16.569403836338953 6.6981224597417501 #
straight-curve $-1 55.476546525467697 -6.3512184142086108 3.5802953822562031 0 1 0 I I #
point $-1 55.476546525467697 -16.569403836338953 3.5802953822562102 #
point $-1 53.130404071411711 -15.02261703317026 4.2575310594562312 #
point $-1 53.130404071411711 -12.70243682841722 4.2575310594562312 #
point $-1 53.130404071411711 -10.38225662366418 4.2575310594562312 #
straight-curve $-1 55.476546525467697 8.8354698204954847 79.279912344370899 0 0 -1 I I #
point $-1 55.476546525467697 8.8354698204954847 6.6981224597417501 #
straight-curve $-1 55.476546525467697 6.3512184142086081 3.5802953822562031 0 1 0 I I #
point $-1 55.476546525467697 8.8354698204954847 3.5802953822562102 #
point $-1 53.130404071411711 10.38225662366418 4.2575310594562312 #
point $-1 53.130404071411711 12.702436828417216 4.2575310594562312 #
point $-1 53.130404071411711 15.02261703317026 4.2575310594562312 #
point $-1 -55.476546525467697 -26.939656148073883 6.6981224597417501 #
straight-curve $-1 -55.476546525467697 -26.939656148073883 0 0 0 -1 I I #
point $-1 -55.476546525467697 -26.939656148073883 -6.6981224597417501 #
straight-curve $-1 0 26.939656148073883 6.6981224597417501 -1 0 0 I I #
End-of-ACIS-data 