500 0 8 0           
7 Unknown 11 ACIS 5.0 NT 24 Fri Mar 26 01:19:35 1999 
-1 9.9999999999999995e-007 1e-010 
body $-1 $8 $-1 $9 #
body $-1 $10 $-1 $11 #
body $-1 $12 $-1 $13 #
body $-1 $14 $-1 $15 #
body $-1 $16 $-1 $17 #
body $-1 $18 $-1 $19 #
body $-1 $20 $-1 $21 #
body $-1 $22 $-1 $23 #
lump $-1 $-1 $24 $0 #
transform $-1 1 0 0 0 1 0 0 0 1 67.926877651295513 44.202326774117665 10.105142662808253 1 rotate no_reflect no_shear #
lump $-1 $-1 $25 $1 #
transform $-1 1 0 0 0 1 0 0 0 1 67.926877651295513 44.202326774117665 10.105142662808253 1 rotate no_reflect no_shear #
lump $-1 $-1 $26 $2 #
transform $-1 1 0 0 0 1 0 0 0 1 67.926877651295513 44.202326774117665 10.105142662808253 1 rotate no_reflect no_shear #
lump $-1 $-1 $27 $3 #
transform $-1 1 0 0 0 1 0 0 0 1 67.926877651295513 44.202326774117665 10.105142662808253 1 rotate no_reflect no_shear #
lump $-1 $-1 $28 $4 #
transform $-1 1 0 0 0 1 0 0 0 1 67.926877651295513 44.202326774117665 10.105142662808253 1 rotate no_reflect no_shear #
lump $-1 $-1 $29 $5 #
transform $-1 1 0 0 0 1 0 0 0 1 67.926877651295513 44.202326774117665 10.105142662808253 1 rotate no_reflect no_shear #
lump $-1 $-1 $30 $6 #
transform $-1 1 0 0 0 1 0 0 0 1 67.926877651295513 44.202326774117665 10.105142662808253 1 rotate no_reflect no_shear #
lump $-1 $-1 $31 $7 #
transform $-1 1 0 0 0 1 0 0 0 1 67.926877651295513 44.202326774117665 10.105142662808253 1 rotate no_reflect no_shear #
shell $-1 $-1 $-1 $32 $-1 $8 #
shell $-1 $-1 $-1 $33 $-1 $10 #
shell $-1 $-1 $-1 $34 $-1 $12 #
shell $-1 $-1 $-1 $35 $-1 $14 #
shell $-1 $-1 $-1 $36 $-1 $16 #
shell $-1 $-1 $-1 $37 $-1 $18 #
shell $-1 $-1 $-1 $38 $-1 $20 #
shell $-1 $-1 $-1 $39 $-1 $22 #
face $-1 $40 $41 $24 $-1 $42 forward single #
face $-1 $43 $44 $25 $-1 $45 forward single #
face $-1 $46 $47 $26 $-1 $48 reversed single #
face $-1 $49 $50 $27 $-1 $51 forward single #
face $-1 $52 $53 $28 $-1 $54 forward single #
face $-1 $55 $56 $29 $-1 $57 reversed single #
face $-1 $58 $59 $30 $-1 $60 forward single #
face $-1 $61 $62 $31 $-1 $63 forward single #
face $-1 $64 $65 $24 $-1 $66 reversed single #
loop $-1 $-1 $67 $32 #
plane-surface $-1 0 0 10.105142662808253 0 0 1 1 0 0 forward_v I I I I #
face $-1 $68 $69 $25 $-1 $70 forward single #
loop $-1 $-1 $71 $33 #
plane-surface $-1 0 -44.202326774117665 0 0 1 0 0 0 1 forward_v I I I I #
face $-1 $72 $73 $26 $-1 $74 reversed single #
loop $-1 $-1 $75 $34 #
plane-surface $-1 107.87216833916062 25.781202693121397 192.18152190162874 0 -1 0 -0.83867057594974714 0 -0.54463902268945019 forward_v I I I I #
face $-1 $76 $77 $27 $-1 $78 forward single #
loop $-1 $79 $80 $35 #
cone-surface $-1 64.936654373208441 16.316220157452378 6.471417975823047 -0.83867057594974714 0 -0.54463902268945019 0.54463902268945019 0 -0.83867057594974714 1 I I 0 1 1 forward I I I I #
face $-1 $81 $82 $28 $-1 $83 forward single #
loop $-1 $84 $85 $36 #
cone-surface $-1 64.936654373208441 21.995209678853797 6.471417975823047 -0.83867057594974714 0 -0.54463902268945019 0.54463902268945019 0 -0.83867057594974714 1 I I 0 1 1 forward I I I I #
face $-1 $86 $87 $29 $-1 $88 reversed single #
loop $-1 $-1 $89 $37 #
plane-surface $-1 -168.88589405111986 -23.965139956332209 97.079677848338278 0 1 0 -0.74314483375859142 0 0.66913059716165679 forward_v I I I I #
face $-1 $90 $91 $30 $-1 $92 forward single #
loop $-1 $93 $94 $38 #
cone-surface $-1 -64.978672163687548 -17.793752908167136 7.0787056246319562 0.74314483375859142 0 -0.66913059716165679 0.66913059716165679 0 0.74314483375859142 1 I I 0 1 1 forward I I I I #
face $-1 $95 $96 $31 $-1 $97 forward single #
loop $-1 $98 $99 $39 #
cone-surface $-1 -64.978672163687548 -8.5366723359195333 7.0787056246319562 0.74314483375859142 0 -0.66913059716165679 0.66913059716165679 0 0.74314483375859142 1 I I 0 1 1 forward I I I I #
face $-1 $100 $101 $24 $-1 $102 reversed single #
loop $-1 $-1 $103 $40 #
plane-surface $-1 0 0 -10.105142662808253 0 0 1 1 0 0 forward_v I I I I #
coedge $-1 $104 $105 $106 $107 forward $41 $-1 #
face $-1 $108 $109 $25 $-1 $110 reversed single #
loop $-1 $-1 $111 $43 #
plane-surface $-1 0 0 10.105142662808253 0 0 1 1 0 0 forward_v I I I I #
coedge $-1 $112 $113 $114 $115 forward $44 $-1 #
face $-1 $116 $117 $26 $-1 $118 reversed single #
loop $-1 $-1 $119 $46 #
plane-surface $-1 -6.0643788653994051 19.15571491815308 118.19026538493385 0.83867057594974714 0 0.54463902268945019 0.54463902268945019 0 -0.83867057594974714 forward_v I I I I #
coedge $-1 $120 $121 $122 $123 reversed $47 $-1 #
face $-1 $-1 $124 $27 $-1 $125 forward single #
loop $-1 $126 $127 $49 #
cone-surface $-1 63.427075490972413 16.316220157452378 5.4910860187103285 -0.83867057594974714 0 -0.54463902268945019 0.2723195113447251 0 -0.41933528797487357 1 I I -0.70710678118654746 0.70710678118654746 0.5 forward I I I I #
loop $-1 $-1 $128 $35 #
coedge $-1 $80 $80 $129 $130 reversed $50 $-1 #
face $-1 $-1 $131 $28 $-1 $132 forward single #
loop $-1 $133 $134 $52 #
cone-surface $-1 63.427075490972413 21.995209678853797 5.4910860187103285 -0.83867057594974714 0 -0.54463902268945019 0.2723195113447251 0 -0.41933528797487357 1 I I -0.70710678118654746 0.70710678118654746 0.5 forward I I I I #
loop $-1 $-1 $135 $36 #
coedge $-1 $85 $85 $136 $137 reversed $53 $-1 #
face $-1 $138 $139 $29 $-1 $140 reversed single #
loop $-1 $-1 $141 $55 #
plane-surface $-1 -67.926877651295499 -13.165212622043335 6.1757734360619452 -0.74314483375859142 0 0.66913059716165679 0.66913059716165679 0 0.74314483375859142 forward_v I I I I #
coedge $-1 $142 $143 $144 $145 reversed $56 $-1 #
face $-1 $-1 $146 $30 $-1 $147 forward single #
loop $-1 $148 $149 $58 #
cone-surface $-1 -63.427904186823284 -17.793752908167136 5.682387901247985 0.74314483375859142 0 -0.66913059716165679 0.3345652985808284 0 0.37157241687929571 1 I I -0.70710678118654746 0.70710678118654746 0.5 forward I I I I #
loop $-1 $-1 $150 $38 #
coedge $-1 $94 $94 $151 $152 reversed $59 $-1 #
face $-1 $-1 $153 $31 $-1 $154 forward single #
loop $-1 $155 $156 $61 #
cone-surface $-1 -63.427904186823284 -8.5366723359195333 5.682387901247985 0.74314483375859142 0 -0.66913059716165679 0.3345652985808284 0 0.37157241687929571 1 I I -0.70710678118654746 0.70710678118654746 0.5 forward I I I I #
loop $-1 $-1 $157 $39 #
coedge $-1 $99 $99 $158 $159 reversed $62 $-1 #
face $-1 $160 $161 $24 $-1 $162 reversed single #
loop $-1 $-1 $163 $64 #
plane-surface $-1 0 -44.202326774117665 0 0 1 0 0 0 1 forward_v I I I I #
coedge $-1 $164 $165 $166 $167 forward $65 $-1 #
coedge $-1 $168 $67 $169 $170 forward $41 $-1 #
coedge $-1 $67 $168 $171 $172 forward $41 $-1 #
coedge $-1 $173 $174 $67 $107 reversed $175 $-1 #
edge $-1 $176 -44.202326774117665 $177 44.202326774117665 $106 $178 forward 7 unknown #
face $-1 $179 $180 $25 $-1 $181 reversed single #
loop $-1 $-1 $182 $68 #
plane-surface $-1 -67.926877651295513 0 0 1 0 0 0 0 -1 forward_v I I I I #
coedge $-1 $183 $184 $185 $186 forward $69 $-1 #
coedge $-1 $185 $71 $182 $187 reversed $44 $-1 #
coedge $-1 $71 $185 $188 $189 reversed $44 $-1 #
coedge $-1 $190 $191 $71 $115 reversed $180 $-1 #
edge $-1 $192 -67.926877651295513 $193 67.926877651295513 $114 $194 forward 7 unknown #
face $-1 $195 $196 $26 $-1 $197 reversed single #
loop $-1 $-1 $198 $72 #
plane-surface $-1 107.87216833916062 12.530227143184764 192.18152190162874 0 1 0 0.83867057594974714 0 0.54463902268945019 forward_v I I I I #
coedge $-1 $199 $200 $201 $202 reversed $73 $-1 #
coedge $-1 $121 $75 $203 $204 reversed $47 $-1 #
coedge $-1 $75 $120 $199 $205 reversed $47 $-1 #
coedge $-1 $201 $206 $75 $123 forward $207 $-1 #
edge $-1 $208 -13.990793481715201 $209 -10.190834114063335 $122 $210 forward 7 unknown #
loop $-1 $-1 $129 $76 #
plane-surface $-1 -6.0643788653994051 19.15571491815308 118.19026538493385 0.83867057594974714 0 0.54463902268945019 0.54463902268945019 0 -0.83867057594974714 forward_v I I I I #
loop $-1 $-1 $211 $49 #
coedge $-1 $127 $127 $128 $212 reversed $77 $-1 #
coedge $-1 $128 $128 $127 $212 forward $79 $-1 #
coedge $-1 $129 $129 $80 $130 forward $124 $-1 #
edge $-1 $213 0 $213 6.2831853071796004 $129 $214 forward 7 unknown #
loop $-1 $-1 $136 $81 #
plane-surface $-1 -6.0643788653994051 19.15571491815308 118.19026538493385 0.83867057594974714 0 0.54463902268945019 0.54463902268945019 0 -0.83867057594974714 forward_v I I I I #
loop $-1 $-1 $215 $52 #
coedge $-1 $134 $134 $135 $216 reversed $82 $-1 #
coedge $-1 $135 $135 $134 $216 forward $84 $-1 #
coedge $-1 $136 $136 $85 $137 forward $131 $-1 #
edge $-1 $217 0 $217 6.2831853071796004 $136 $218 forward 7 unknown #
face $-1 $219 $220 $29 $-1 $221 forward single #
loop $-1 $-1 $222 $86 #
plane-surface $-1 -168.88589405111986 -2.3652852877544621 97.079677848338278 0 -1 0 0.74314483375859142 0 -0.66913059716165679 forward_v I I I I #
coedge $-1 $223 $224 $225 $226 reversed $87 $-1 #
coedge $-1 $143 $89 $227 $228 reversed $56 $-1 #
coedge $-1 $89 $142 $223 $229 reversed $56 $-1 #
coedge $-1 $225 $230 $89 $145 forward $220 $-1 #
edge $-1 $231 16.516069374264418 $232 20.054089229510453 $144 $233 forward 7 unknown #
loop $-1 $-1 $151 $90 #
plane-surface $-1 -67.926877651295499 -13.165212622043335 6.1757734360619452 -0.74314483375859142 0 0.66913059716165679 0.66913059716165679 0 0.74314483375859142 forward_v I I I I #
loop $-1 $-1 $234 $58 #
coedge $-1 $149 $149 $150 $235 reversed $91 $-1 #
coedge $-1 $150 $150 $149 $235 forward $93 $-1 #
coedge $-1 $151 $151 $94 $152 forward $146 $-1 #
edge $-1 $236 0 $236 6.2831853071796004 $151 $237 forward 7 unknown #
loop $-1 $-1 $158 $95 #
plane-surface $-1 -67.926877651295499 -13.165212622043335 6.1757734360619452 -0.74314483375859142 0 0.66913059716165679 0.66913059716165679 0 0.74314483375859142 forward_v I I I I #
loop $-1 $-1 $238 $61 #
coedge $-1 $156 $156 $157 $239 reversed $96 $-1 #
coedge $-1 $157 $157 $156 $239 forward $98 $-1 #
coedge $-1 $158 $158 $99 $159 forward $153 $-1 #
edge $-1 $240 0 $240 6.2831853071796004 $158 $241 forward 7 unknown #
face $-1 $242 $243 $24 $-1 $244 reversed single #
loop $-1 $-1 $245 $100 #
plane-surface $-1 -67.926877651295513 0 0 1 0 0 0 0 -1 forward_v I I I I #
coedge $-1 $246 $171 $247 $248 forward $101 $-1 #
coedge $-1 $249 $103 $246 $250 forward $65 $-1 #
coedge $-1 $103 $249 $251 $252 forward $65 $-1 #
coedge $-1 $174 $173 $103 $167 reversed $175 $-1 #
edge $-1 $253 -44.202326774117665 $254 44.202326774117665 $166 $255 forward 7 unknown #
coedge $-1 $105 $104 $256 $257 forward $41 $-1 #
coedge $-1 $258 $259 $104 $170 reversed $243 $-1 #
edge $-1 $177 -67.926877651295513 $260 67.926877651295513 $169 $261 forward 7 unknown #
coedge $-1 $163 $262 $105 $172 reversed $101 $-1 #
edge $-1 $263 -67.926877651295513 $176 67.926877651295513 $171 $264 forward 7 unknown #
coedge $-1 $166 $106 $262 $265 forward $175 $-1 #
coedge $-1 $106 $166 $258 $266 reversed $175 $-1 #
loop $-1 $-1 $173 $242 #
vertex $-1 $107 $267 #
vertex $-1 $107 $268 #
straight-curve $-1 67.926877651295513 0 10.105142662808253 0 1 0 I I #
face $-1 $269 $270 $25 $-1 $271 reversed single #
loop $-1 $-1 $190 $108 #
plane-surface $-1 0 -47.86889577196203 4.214387572035049 0 0 1 1 0 0 forward_v I I I I #
coedge $-1 $272 $273 $112 $187 forward $109 $-1 #
coedge $-1 $274 $111 $273 $275 forward $69 $-1 #
coedge $-1 $111 $274 $276 $277 forward $69 $-1 #
coedge $-1 $113 $112 $111 $186 reversed $44 $-1 #
edge $-1 $278 -67.926877651295513 $279 67.926877651295513 $111 $280 forward 7 unknown #
edge $-1 $279 -10.105142662808253 $193 -4.214387572035049 $182 $281 forward 7 unknown #
coedge $-1 $276 $282 $113 $189 forward $283 $-1 #
edge $-1 $192 4.214387572035049 $278 10.105142662808253 $188 $284 forward 7 unknown #
coedge $-1 $285 $114 $282 $286 forward $180 $-1 #
coedge $-1 $114 $285 $272 $287 forward $180 $-1 #
vertex $-1 $189 $288 #
vertex $-1 $187 $289 #
straight-curve $-1 0 -44.202326774117665 4.214387572035049 -1 0 0 I I #
face $-1 $-1 $207 $26 $-1 $290 forward single #
loop $-1 $-1 $291 $116 #
plane-surface $-1 67.926877651295513 0 0 -1 0 0 0 0 1 forward_v I I I I #
coedge $-1 $292 $293 $294 $295 reversed $117 $-1 #
coedge $-1 $296 $119 $121 $205 forward $73 $-1 #
coedge $-1 $119 $296 $292 $297 forward $73 $-1 #
coedge $-1 $294 $122 $119 $202 forward $207 $-1 #
edge $-1 $209 -16.203345234044857 $298 -2.9523696841082234 $201 $299 forward 7 unknown #
coedge $-1 $300 $301 $120 $204 forward $196 $-1 #
edge $-1 $302 -91.83704277044059 $208 -85.985618288006123 $203 $303 forward 7 unknown #
edge $-1 $209 128.87673160552379 $302 135.85375530259108 $121 $304 forward 7 unknown #
coedge $-1 $122 $294 $300 $305 forward $207 $-1 #
loop $-1 $-1 $294 $195 #
vertex $-1 $204 $306 #
vertex $-1 $123 $307 #
straight-curve $-1 53.936084169580312 25.781202693121397 10.105142662808248 -1 0 0 I I #
coedge $-1 $211 $211 $-1 $308 reversed $126 $-1 #
edge $-1 $309 0 $309 6.2831853071796004 $127 $310 forward 7 unknown #
vertex $-1 $130 $311 #
ellipse-curve $-1 66.02689796746958 16.316220157452378 7.1794304215910234 0.83867057594974714 0 0.54463902268945019 0.54463902268945019 0 -0.83867057594974714 1 I I #
coedge $-1 $215 $215 $-1 $312 reversed $133 $-1 #
edge $-1 $313 0 $313 6.2831853071796004 $134 $314 forward 7 unknown #
vertex $-1 $137 $315 #
ellipse-curve $-1 66.02689796746958 21.995209678853797 7.1794304215910234 0.83867057594974714 0 0.54463902268945019 0.54463902268945019 0 -0.83867057594974714 1 I I #
face $-1 $-1 $316 $29 $-1 $317 reversed single #
loop $-1 $-1 $144 $138 #
plane-surface $-1 0 0 10.105142662808253 0 0 1 1 0 0 forward_v I I I I #
coedge $-1 $318 $319 $320 $321 reversed $139 $-1 #
coedge $-1 $322 $141 $143 $229 forward $87 $-1 #
coedge $-1 $141 $322 $318 $323 forward $87 $-1 #
coedge $-1 $320 $144 $141 $226 forward $220 $-1 #
edge $-1 $232 -17.382533645310541 $324 4.2173210232672051 $225 $325 forward 7 unknown #
coedge $-1 $326 $327 $142 $228 forward $316 $-1 #
edge $-1 $328 -42.364065488107208 $231 -38.434696261360884 $227 $329 forward 7 unknown #
edge $-1 $232 -5.287487779297078 $328 2.1389731374768986e-014 $143 $330 forward 7 unknown #
coedge $-1 $144 $320 $326 $331 forward $220 $-1 #
vertex $-1 $228 $332 #
vertex $-1 $145 $333 #
straight-curve $-1 -84.442947025559931 -23.965139956332209 10.105142662808255 1 0 0 I I #
coedge $-1 $234 $234 $-1 $334 reversed $148 $-1 #
edge $-1 $335 0 $335 6.2831853071796004 $149 $336 forward 7 unknown #
vertex $-1 $152 $337 #
ellipse-curve $-1 -66.157867723672496 -17.793752908167136 8.1404580494350895 -0.74314483375859142 0 0.66913059716165679 0.66913059716165679 0 0.74314483375859142 1 I I #
coedge $-1 $238 $238 $-1 $338 reversed $155 $-1 #
edge $-1 $339 0 $339 6.2831853071796004 $156 $340 forward 7 unknown #
vertex $-1 $159 $341 #
ellipse-curve $-1 -66.157867723672496 -8.5366723359195333 8.1404580494350895 -0.74314483375859142 0 0.66913059716165679 0.66913059716165679 0 0.74314483375859142 1 I I #
face $-1 $-1 $175 $24 $-1 $342 reversed single #
loop $-1 $-1 $258 $160 #
plane-surface $-1 0 44.202326774117665 0 0 -1 0 0 0 -1 forward_v I I I I #
coedge $-1 $343 $256 $259 $344 forward $161 $-1 #
coedge $-1 $262 $163 $164 $250 reversed $101 $-1 #
coedge $-1 $256 $343 $163 $248 reversed $161 $-1 #
edge $-1 $263 -10.105142662808253 $345 10.105142662808253 $247 $346 forward 7 unknown #
coedge $-1 $165 $164 $343 $347 forward $65 $-1 #
edge $-1 $254 -67.926877651295513 $345 67.926877651295513 $246 $348 forward 7 unknown #
coedge $-1 $259 $258 $165 $252 reversed $243 $-1 #
edge $-1 $349 -67.926877651295513 $253 67.926877651295513 $251 $350 forward 7 unknown #
vertex $-1 $167 $351 #
vertex $-1 $265 $352 #
straight-curve $-1 67.926877651295513 0 -10.105142662808253 0 -1 0 I I #
coedge $-1 $245 $247 $168 $257 reversed $161 $-1 #
edge $-1 $260 -44.202326774117665 $263 44.202326774117665 $256 $353 forward 7 unknown #
coedge $-1 $251 $169 $174 $266 forward $243 $-1 #
coedge $-1 $169 $251 $245 $344 reversed $243 $-1 #
vertex $-1 $170 $354 #
straight-curve $-1 0 44.202326774117665 10.105142662808253 -1 0 0 I I #
coedge $-1 $171 $246 $173 $265 reversed $101 $-1 #
vertex $-1 $257 $355 #
straight-curve $-1 0 -44.202326774117665 10.105142662808253 1 0 0 I I #
edge $-1 $176 -10.105142662808253 $254 10.105142662808253 $173 $356 forward 7 unknown #
edge $-1 $177 -10.105142662808253 $253 10.105142662808253 $174 $357 forward 7 unknown #
point $-1 67.926877651295513 -44.202326774117665 10.105142662808253 #
point $-1 67.926877651295513 44.202326774117665 10.105142662808253 #
face $-1 $-1 $283 $25 $-1 $358 reversed single #
loop $-1 $-1 $359 $179 #
plane-surface $-1 0 -51.535464769806396 7.1597651174216512 0 1 0 0 0 1 forward_v I I I I #
coedge $-1 $360 $182 $191 $287 reversed $109 $-1 #
coedge $-1 $182 $360 $183 $275 reversed $109 $-1 #
coedge $-1 $184 $183 $361 $362 forward $69 $-1 #
edge $-1 $279 44.202326774117665 $363 51.535464769806396 $273 $364 forward 7 unknown #
coedge $-1 $365 $188 $184 $277 reversed $283 $-1 #
edge $-1 $366 -51.535464769806396 $278 -44.202326774117665 $276 $367 forward 7 unknown #
vertex $-1 $189 $368 #
vertex $-1 $275 $369 #
straight-curve $-1 0 -44.202326774117665 10.105142662808253 -1 0 0 I I #
straight-curve $-1 -67.926877651295513 -44.202326774117665 0 0 0 -1 I I #
coedge $-1 $188 $365 $190 $286 reversed $283 $-1 #
loop $-1 $-1 $188 $269 #
straight-curve $-1 67.926877651295513 -44.202326774117665 0 0 0 1 I I #
coedge $-1 $191 $190 $370 $371 forward $180 $-1 #
edge $-1 $192 -3.6665689978443652 $372 3.6665689978443652 $282 $373 forward 7 unknown #
edge $-1 $374 -3.6665689978443652 $193 3.6665689978443652 $272 $375 forward 7 unknown #
point $-1 67.926877651295513 -44.202326774117665 4.214387572035049 #
point $-1 -67.926877651295513 -44.202326774117665 4.214387572035049 #
plane-surface $-1 0 0 10.105142662808253 0 0 1 1 0 0 forward_v I I I I #
coedge $-1 $301 $300 $293 $376 forward $196 $-1 #
coedge $-1 $293 $198 $200 $297 reversed $117 $-1 #
coedge $-1 $198 $292 $291 $376 reversed $117 $-1 #
coedge $-1 $206 $201 $198 $295 forward $207 $-1 #
edge $-1 $298 10.190834114063335 $377 13.990793481715201 $294 $378 forward 7 unknown #
coedge $-1 $200 $199 $301 $379 reversed $73 $-1 #
edge $-1 $380 -135.85375530259108 $298 -128.87673160552379 $292 $381 forward 7 unknown #
vertex $-1 $202 $382 #
straight-curve $-1 64.126918283643647 9.5778574590765402 10.105142662808248 0 -1 0 I I #
coedge $-1 $291 $203 $206 $305 reversed $196 $-1 #
coedge $-1 $203 $291 $296 $379 forward $196 $-1 #
vertex $-1 $204 $383 #
straight-curve $-1 67.926877651295513 25.781202693121397 96.090760950814371 0 0 1 I I #
straight-curve $-1 -6.0643788653994051 25.781202693121397 118.19026538493385 0.54463902268945019 0 -0.83867057594974714 I I #
edge $-1 $377 12.530227143184764 $208 25.781202693121397 $300 $384 forward 7 unknown #
point $-1 67.926877651295513 25.781202693121397 10.105142662808253 #
point $-1 64.126918283643647 25.781202693121397 10.105142662808234 #
edge $-1 $385 1 $385 0 $211 $-1 forward 7 unknown #
vertex $-1 $212 $386 #
ellipse-curve $-1 63.846410778947288 16.316220157452378 5.7634055300550537 0.83867057594974714 0 0.54463902268945019 0.54463902268945019 0 -0.83867057594974714 1 I I #
point $-1 66.571536990159061 16.316220157452378 6.3407598456412924 #
edge $-1 $387 1 $387 0 $215 $-1 forward 7 unknown #
vertex $-1 $216 $388 #
ellipse-curve $-1 63.846410778947288 21.995209678853797 5.7634055300550537 0.83867057594974714 0 0.54463902268945019 0.54463902268945019 0 -0.83867057594974714 1 I I #
point $-1 66.571536990159061 21.995209678853797 6.3407598456412924 #
loop $-1 $-1 $227 $219 #
plane-surface $-1 -67.926877651295513 0 0 1 0 0 0 0 -1 forward_v I I I I #
coedge $-1 $319 $222 $224 $323 reversed $139 $-1 #
coedge $-1 $222 $318 $389 $390 reversed $139 $-1 #
coedge $-1 $230 $225 $222 $321 forward $220 $-1 #
edge $-1 $324 -20.054089229510453 $391 -16.516069374264418 $320 $392 forward 7 unknown #
coedge $-1 $224 $223 $327 $393 reversed $87 $-1 #
edge $-1 $394 -2.1389731374768986e-014 $324 5.287487779297078 $318 $395 forward 7 unknown #
vertex $-1 $226 $396 #
straight-curve $-1 -64.388857796049479 -6.5826063110216673 10.105142662808253 0 1 0 I I #
coedge $-1 $389 $227 $230 $331 reversed $316 $-1 #
coedge $-1 $227 $389 $322 $393 forward $316 $-1 #
vertex $-1 $228 $397 #
straight-curve $-1 -67.926877651295513 -23.965139956332209 48.539838924169139 0 0 1 I I #
straight-curve $-1 -67.926877651295499 -23.965139956332209 6.1757734360619452 -0.66913059716165679 0 -0.74314483375859142 I I #
edge $-1 $391 2.3652852877544621 $231 23.965139956332209 $326 $398 forward 7 unknown #
point $-1 -67.926877651295513 -23.965139956332209 10.105142662808253 #
point $-1 -64.388857796049479 -23.965139956332209 10.105142662808253 #
edge $-1 $399 1 $399 0 $234 $-1 forward 7 unknown #
vertex $-1 $235 $400 #
ellipse-curve $-1 -63.79947660370258 -17.793752908167136 6.016953199828813 -0.74314483375859142 0 0.66913059716165679 0.66913059716165679 0 0.74314483375859142 1 I I #
point $-1 -65.488737126510856 -17.793752908167136 8.8836028831936922 #
edge $-1 $401 1 $401 0 $238 $-1 forward 7 unknown #
vertex $-1 $239 $402 #
ellipse-curve $-1 -63.79947660370258 -8.5366723359195333 6.016953199828813 -0.74314483375859142 0 0.66913059716165679 0.66913059716165679 0 0.74314483375859142 1 I I #
point $-1 -65.488737126510856 -8.5366723359195333 8.8836028831936922 #
plane-surface $-1 67.926877651295513 0 0 -1 0 0 0 0 1 forward_v I I I I #
coedge $-1 $247 $245 $249 $347 reversed $161 $-1 #
edge $-1 $260 -10.105142662808253 $349 10.105142662808253 $259 $403 forward 7 unknown #
vertex $-1 $347 $404 #
straight-curve $-1 -67.926877651295513 -44.202326774117665 0 0 0 -1 I I #
edge $-1 $345 -44.202326774117665 $349 44.202326774117665 $343 $405 forward 7 unknown #
straight-curve $-1 0 -44.202326774117665 -10.105142662808253 -1 0 0 I I #
vertex $-1 $252 $406 #
straight-curve $-1 0 44.202326774117665 -10.105142662808253 1 0 0 I I #
point $-1 67.926877651295513 44.202326774117665 -10.105142662808253 #
point $-1 67.926877651295513 -44.202326774117665 -10.105142662808253 #
straight-curve $-1 -67.926877651295513 0 10.105142662808253 0 -1 0 I I #
point $-1 -67.926877651295513 44.202326774117665 10.105142662808253 #
point $-1 -67.926877651295513 -44.202326774117665 10.105142662808253 #
straight-curve $-1 67.926877651295513 -44.202326774117665 0 0 0 -1 I I #
straight-curve $-1 67.926877651295513 44.202326774117665 0 0 0 -1 I I #
plane-surface $-1 67.926877651295513 0 0 -1 0 0 0 0 1 forward_v I I I I #
coedge $-1 $370 $361 $360 $407 forward $270 $-1 #
coedge $-1 $273 $272 $359 $407 reversed $109 $-1 #
coedge $-1 $359 $408 $274 $362 reversed $270 $-1 #
edge $-1 $363 -67.926877651295513 $366 67.926877651295513 $361 $409 forward 7 unknown #
vertex $-1 $275 $410 #
straight-curve $-1 -67.926877651295513 0 10.105142662808253 0 -1 0 I I #
coedge $-1 $282 $276 $408 $411 forward $283 $-1 #
vertex $-1 $277 $412 #
straight-curve $-1 67.926877651295513 0 10.105142662808253 0 1 0 I I #
point $-1 67.926877651295513 -44.202326774117665 10.105142662808253 #
point $-1 -67.926877651295513 -44.202326774117665 10.105142662808253 #
coedge $-1 $408 $359 $285 $371 reversed $270 $-1 #
edge $-1 $372 -67.926877651295513 $374 67.926877651295513 $370 $413 forward 7 unknown #
vertex $-1 $411 $414 #
straight-curve $-1 67.926877651295513 -47.86889577196203 4.214387572035049 0 -1 0 I I #
vertex $-1 $287 $415 #
straight-curve $-1 -67.926877651295513 -47.86889577196203 4.214387572035049 0 1 0 I I #
edge $-1 $377 85.985618288006123 $380 91.83704277044059 $291 $416 forward 7 unknown #
vertex $-1 $305 $417 #
straight-curve $-1 53.936084169580312 12.530227143184764 10.105142662808248 1 0 0 I I #
edge $-1 $380 2.9523696841082234 $302 16.203345234044857 $301 $418 forward 7 unknown #
vertex $-1 $379 $419 #
straight-curve $-1 -6.0643788653994051 12.530227143184764 118.19026538493385 -0.54463902268945019 0 0.83867057594974714 I I #
point $-1 64.126918283643647 12.530227143184764 10.105142662808234 #
point $-1 67.926877651295513 25.781202693121397 4.2537181803737809 #
straight-curve $-1 67.926877651295513 0 10.105142662808253 0 1 0 I I #
vertex $-1 $308 $420 #
point $-1 64.39104980163674 16.316220157452378 4.9247349541053067 #
vertex $-1 $312 $421 #
point $-1 64.39104980163674 21.995209678853797 4.9247349541053067 #
coedge $-1 $327 $326 $319 $390 forward $316 $-1 #
edge $-1 $391 38.434696261360884 $394 42.364065488107208 $389 $422 forward 7 unknown #
vertex $-1 $331 $423 #
straight-curve $-1 -84.442947025559931 -2.3652852877544621 10.105142662808255 -1 0 0 I I #
edge $-1 $394 -4.2173210232672051 $328 17.382533645310541 $327 $424 forward 7 unknown #
vertex $-1 $393 $425 #
straight-curve $-1 -67.926877651295499 -2.3652852877544621 6.1757734360619452 0.66913059716165679 0 0.74314483375859142 I I #
point $-1 -64.388857796049479 -2.3652852877544621 10.105142662808253 #
point $-1 -67.926877651295513 -23.965139956332209 6.1757734360619292 #
straight-curve $-1 -67.926877651295513 0 10.105142662808253 0 -1 0 I I #
vertex $-1 $334 $426 #
point $-1 -63.130346006540925 -17.793752908167136 6.760098033587405 #
vertex $-1 $338 $427 #
point $-1 -63.130346006540925 -8.5366723359195333 6.760098033587405 #
straight-curve $-1 -67.926877651295513 44.202326774117665 0 0 0 -1 I I #
point $-1 -67.926877651295513 -44.202326774117665 -10.105142662808253 #
straight-curve $-1 -67.926877651295513 0 -10.105142662808253 0 1 0 I I #
point $-1 -67.926877651295513 44.202326774117665 -10.105142662808253 #
edge $-1 $363 -2.9453775453866022 $374 2.9453775453866022 $360 $428 forward 7 unknown #
coedge $-1 $361 $370 $365 $411 reversed $270 $-1 #
straight-curve $-1 0 -51.535464769806396 10.105142662808253 1 0 0 I I #
point $-1 -67.926877651295513 -51.535464769806396 10.105142662808253 #
edge $-1 $366 -2.9453775453866022 $372 2.9453775453866022 $365 $429 forward 7 unknown #
point $-1 67.926877651295513 -51.535464769806396 10.105142662808253 #
straight-curve $-1 0 -51.535464769806396 4.214387572035049 -1 0 0 I I #
point $-1 67.926877651295513 -51.535464769806396 4.214387572035049 #
point $-1 -67.926877651295513 -51.535464769806396 4.214387572035049 #
straight-curve $-1 67.926877651295513 12.530227143184764 96.090760950814371 0 0 -1 I I #
point $-1 67.926877651295513 12.530227143184764 10.105142662808253 #
straight-curve $-1 67.926877651295513 9.5778574590765402 4.253718180373788 0 1 0 I I #
point $-1 67.926877651295513 12.530227143184764 4.2537181803737809 #
point $-1 63.007740202997539 16.316220157452378 5.2187665073656033 #
point $-1 63.007740202997539 21.995209678853797 5.2187665073656033 #
straight-curve $-1 -67.926877651295513 -2.3652852877544621 48.539838924169139 0 0 -1 I I #
point $-1 -67.926877651295513 -2.3652852877544621 10.105142662808253 #
straight-curve $-1 -67.926877651295513 -6.5826063110216673 6.1757734360619443 0 -1 0 I I #
point $-1 -67.926877651295513 -2.3652852877544621 6.1757734360619292 #
point $-1 -63.056331769943988 -17.793752908167136 5.3478226026671569 #
point $-1 -63.056331769943988 -8.5366723359195333 5.3478226026671569 #
straight-curve $-1 -67.926877651295513 -51.535464769806396 7.1597651174216512 0 0 -1 I I #
straight-curve $-1 67.926877651295513 -51.535464769806396 7.1597651174216512 0 0 -1 I I #
End-of-ACIS-data 