500 0 4 0           
7 Unknown 11 ACIS 5.0 NT 24 Fri Mar 26 20:18:11 1999 
-1 9.9999999999999995e-007 1e-010 
body $-1 $4 $-1 $5 #
body $-1 $6 $-1 $7 #
body $-1 $8 $-1 $9 #
body $-1 $10 $-1 $11 #
lump $-1 $-1 $12 $0 #
transform $-1 1 0 0 0 1 0 0 0 1 54.01409955137791 24.040205805457624 5.4230044017340795 1 rotate no_reflect no_shear #
lump $-1 $-1 $13 $1 #
transform $-1 1 0 0 0 1 0 0 0 1 54.01409955137791 24.040205805457624 5.4230044017340795 1 rotate no_reflect no_shear #
lump $-1 $-1 $14 $2 #
transform $-1 1 0 0 0 1 0 0 0 1 54.01409955137791 24.040205805457624 5.4230044017340795 1 rotate no_reflect no_shear #
lump $-1 $-1 $15 $3 #
transform $-1 1 0 0 0 1 0 0 0 1 54.01409955137791 24.040205805457624 5.4230044017340795 1 rotate no_reflect no_shear #
shell $-1 $-1 $-1 $16 $-1 $4 #
shell $-1 $-1 $-1 $17 $-1 $6 #
shell $-1 $-1 $-1 $18 $-1 $8 #
shell $-1 $-1 $-1 $19 $-1 $10 #
face $-1 $20 $21 $12 $-1 $22 forward single #
face $-1 $23 $24 $13 $-1 $25 forward single #
face $-1 $26 $27 $14 $-1 $28 reversed single #
face $-1 $29 $30 $15 $-1 $31 forward single #
face $-1 $32 $33 $12 $-1 $34 reversed single #
loop $-1 $-1 $35 $16 #
plane-surface $-1 0 0 5.4230044017340795 0 0 1 1 0 0 forward_v I I I I #
face $-1 $36 $37 $13 $-1 $38 reversed single #
loop $-1 $-1 $39 $17 #
plane-surface $-1 0 -20.918866009139485 -2.4230044017340795 0 0 1 1 0 0 forward_v I I I I #
face $-1 $40 $41 $14 $-1 $42 reversed single #
loop $-1 $-1 $43 $18 #
plane-surface $-1 69.983431701716157 -11.768535418949613 151.97773621120334 0 -1 0 -0.77714596973225614 0 -0.62932038083071107 forward_v I I I I #
face $-1 $44 $45 $15 $-1 $46 forward single #
loop $-1 $47 $48 $19 #
cone-surface $-1 50.712225025417858 -14.78303081588548 1.8225999175420267 -0.77714596973225614 0 -0.62932038083071107 0.62932038083071107 0 -0.77714596973225614 1 I I 0 1 1 forward I I I I #
face $-1 $49 $50 $12 $-1 $51 reversed single #
loop $-1 $-1 $52 $20 #
plane-surface $-1 0 0 -5.4230044017340795 0 0 1 1 0 0 forward_v I I I I #
coedge $-1 $53 $54 $55 $56 forward $21 $-1 #
face $-1 $57 $58 $13 $-1 $59 reversed single #
loop $-1 $-1 $60 $23 #
plane-surface $-1 0 -17.797526212821346 -3.9230044017340795 0 -1 0 0 0 -1 forward_v I I I I #
coedge $-1 $61 $62 $63 $64 reversed $24 $-1 #
face $-1 $65 $66 $14 $-1 $67 reversed single #
loop $-1 $-1 $68 $26 #
plane-surface $-1 -13.970247848424265 -14.78303081588548 83.993388811401161 0.77714596973225614 0 0.62932038083071107 0.62932038083071107 0 -0.77714596973225614 forward_v I I I I #
coedge $-1 $69 $70 $71 $72 reversed $27 $-1 #
face $-1 $-1 $73 $15 $-1 $74 forward single #
loop $-1 $75 $76 $29 #
cone-surface $-1 49.20143068135387 -14.78303081588548 0.59918281317127864 -0.77714596973225614 0 -0.62932038083071107 0.31466019041535553 0 -0.38857298486612807 1 I I -0.70710678118654746 0.70710678118654746 0.5 forward I I I I #
loop $-1 $-1 $77 $19 #
coedge $-1 $48 $48 $78 $79 reversed $30 $-1 #
face $-1 $80 $81 $12 $-1 $82 reversed single #
loop $-1 $-1 $83 $32 #
plane-surface $-1 0 -24.040205805457624 0 0 1 0 0 0 1 forward_v I I I I #
coedge $-1 $84 $85 $86 $87 forward $33 $-1 #
coedge $-1 $88 $35 $89 $90 forward $21 $-1 #
coedge $-1 $35 $88 $91 $92 forward $21 $-1 #
coedge $-1 $93 $94 $35 $56 reversed $95 $-1 #
edge $-1 $96 -24.040205805457624 $97 24.040205805457624 $55 $98 forward 7 unknown #
face $-1 $99 $100 $13 $-1 $101 reversed single #
loop $-1 $-1 $102 $36 #
plane-surface $-1 0 0 -5.4230044017340795 0 0 1 1 0 0 forward_v I I I I #
coedge $-1 $103 $104 $105 $106 reversed $37 $-1 #
coedge $-1 $107 $39 $104 $108 forward $24 $-1 #
coedge $-1 $39 $107 $109 $110 reversed $24 $-1 #
coedge $-1 $111 $105 $39 $64 forward $100 $-1 #
edge $-1 $112 7.3380932082516033 $113 13.580772800887882 $63 $114 forward 7 unknown #
face $-1 $115 $116 $14 $-1 $117 reversed single #
loop $-1 $-1 $118 $40 #
plane-surface $-1 69.983431701716157 -17.797526212821346 151.97773621120334 0 1 0 0.77714596973225614 0 0.62932038083071107 forward_v I I I I #
coedge $-1 $119 $120 $121 $122 reversed $41 $-1 #
coedge $-1 $70 $43 $123 $124 reversed $27 $-1 #
coedge $-1 $43 $69 $119 $125 reversed $27 $-1 #
coedge $-1 $121 $126 $43 $72 forward $127 $-1 #
edge $-1 $128 -19.022383700519832 $129 -14.663077366995424 $71 $130 forward 7 unknown #
loop $-1 $-1 $78 $44 #
plane-surface $-1 -13.970247848424265 -14.78303081588548 83.993388811401161 0.77714596973225614 0 0.62932038083071107 0.62932038083071107 0 -0.77714596973225614 forward_v I I I I #
loop $-1 $-1 $131 $29 #
coedge $-1 $76 $76 $77 $132 reversed $45 $-1 #
coedge $-1 $77 $77 $76 $132 forward $47 $-1 #
coedge $-1 $78 $78 $48 $79 forward $73 $-1 #
edge $-1 $133 0 $133 6.2831853071796004 $78 $134 forward 7 unknown #
face $-1 $135 $136 $12 $-1 $137 reversed single #
loop $-1 $-1 $138 $49 #
plane-surface $-1 -54.01409955137791 0 0 1 0 0 0 0 -1 forward_v I I I I #
coedge $-1 $139 $91 $140 $141 forward $50 $-1 #
coedge $-1 $142 $52 $139 $143 forward $33 $-1 #
coedge $-1 $52 $142 $144 $145 forward $33 $-1 #
coedge $-1 $94 $93 $52 $87 reversed $95 $-1 #
edge $-1 $146 -24.040205805457624 $147 24.040205805457624 $86 $148 forward 7 unknown #
coedge $-1 $54 $53 $149 $150 forward $21 $-1 #
coedge $-1 $151 $152 $53 $90 reversed $136 $-1 #
edge $-1 $97 -54.01409955137791 $153 54.01409955137791 $89 $154 forward 7 unknown #
coedge $-1 $83 $155 $54 $92 reversed $50 $-1 #
edge $-1 $156 -54.01409955137791 $96 54.01409955137791 $91 $157 forward 7 unknown #
coedge $-1 $86 $55 $155 $158 forward $95 $-1 #
coedge $-1 $55 $86 $151 $159 reversed $95 $-1 #
loop $-1 $-1 $93 $135 #
vertex $-1 $56 $160 #
vertex $-1 $56 $161 #
straight-curve $-1 54.01409955137791 0 5.4230044017340795 0 1 0 I I #
face $-1 $162 $163 $13 $-1 $164 reversed single #
loop $-1 $-1 $105 $57 #
plane-surface $-1 54.01409955137791 0 0 -1 0 0 0 0 1 forward_v I I I I #
coedge $-1 $165 $166 $103 $167 forward $58 $-1 #
coedge $-1 $168 $60 $102 $167 reversed $37 $-1 #
coedge $-1 $60 $168 $61 $108 reversed $37 $-1 #
coedge $-1 $63 $169 $60 $106 forward $100 $-1 #
edge $-1 $170 -3.4615022008670397 $112 -0.46150220086703975 $105 $171 forward 7 unknown #
coedge $-1 $62 $61 $172 $173 reversed $24 $-1 #
edge $-1 $112 -54.01409955137791 $174 54.01409955137791 $104 $175 forward 7 unknown #
coedge $-1 $176 $177 $62 $110 forward $163 $-1 #
edge $-1 $113 -54.01409955137791 $178 54.01409955137791 $109 $179 forward 7 unknown #
coedge $-1 $169 $63 $177 $180 forward $100 $-1 #
vertex $-1 $64 $181 #
vertex $-1 $180 $182 #
straight-curve $-1 54.01409955137791 -10.459433004569743 -2.4230044017340795 0 -1 0 I I #
face $-1 $-1 $127 $14 $-1 $183 forward single #
loop $-1 $-1 $184 $65 #
plane-surface $-1 54.01409955137791 0 0 -1 0 0 0 0 1 forward_v I I I I #
coedge $-1 $185 $186 $187 $188 reversed $66 $-1 #
coedge $-1 $189 $68 $70 $125 forward $41 $-1 #
coedge $-1 $68 $189 $185 $190 forward $41 $-1 #
coedge $-1 $187 $71 $68 $122 forward $127 $-1 #
edge $-1 $129 4.3770200110068727 $191 10.406010804878605 $121 $192 forward 7 unknown #
coedge $-1 $193 $194 $69 $124 forward $116 $-1 #
edge $-1 $195 -75.949158844340928 $128 -70.565863703867592 $123 $196 forward 7 unknown #
edge $-1 $129 101.10119265848641 $195 108.02819910275582 $70 $197 forward 7 unknown #
coedge $-1 $71 $187 $193 $198 forward $127 $-1 #
loop $-1 $-1 $187 $115 #
vertex $-1 $124 $199 #
vertex $-1 $72 $200 #
straight-curve $-1 34.991715850858078 -11.768535418949613 5.4230044017340759 -1 0 0 I I #
coedge $-1 $131 $131 $-1 $201 reversed $75 $-1 #
edge $-1 $202 0 $202 6.2831853071796004 $76 $203 forward 7 unknown #
vertex $-1 $79 $204 #
ellipse-curve $-1 51.83444638461571 -14.78303081588548 2.7313568314974113 0.77714596973225614 0 0.62932038083071107 0.62932038083071107 0 -0.77714596973225614 1 I I #
face $-1 $-1 $95 $12 $-1 $205 reversed single #
loop $-1 $-1 $151 $80 #
plane-surface $-1 0 24.040205805457624 0 0 -1 0 0 0 -1 forward_v I I I I #
coedge $-1 $206 $149 $152 $207 forward $81 $-1 #
coedge $-1 $155 $83 $84 $143 reversed $50 $-1 #
coedge $-1 $149 $206 $83 $141 reversed $81 $-1 #
edge $-1 $156 -5.4230044017340795 $208 5.4230044017340795 $140 $209 forward 7 unknown #
coedge $-1 $85 $84 $206 $210 forward $33 $-1 #
edge $-1 $147 -54.01409955137791 $208 54.01409955137791 $139 $211 forward 7 unknown #
coedge $-1 $152 $151 $85 $145 reversed $136 $-1 #
edge $-1 $212 -54.01409955137791 $146 54.01409955137791 $144 $213 forward 7 unknown #
vertex $-1 $87 $214 #
vertex $-1 $158 $215 #
straight-curve $-1 54.01409955137791 0 -5.4230044017340795 0 -1 0 I I #
coedge $-1 $138 $140 $88 $150 reversed $81 $-1 #
edge $-1 $153 -24.040205805457624 $156 24.040205805457624 $149 $216 forward 7 unknown #
coedge $-1 $144 $89 $94 $159 forward $136 $-1 #
coedge $-1 $89 $144 $138 $207 reversed $136 $-1 #
vertex $-1 $90 $217 #
straight-curve $-1 0 24.040205805457624 5.4230044017340795 -1 0 0 I I #
coedge $-1 $91 $139 $93 $158 reversed $50 $-1 #
vertex $-1 $150 $218 #
straight-curve $-1 0 -24.040205805457624 5.4230044017340795 1 0 0 I I #
edge $-1 $96 -5.4230044017340795 $147 5.4230044017340795 $93 $219 forward 7 unknown #
edge $-1 $97 -5.4230044017340795 $146 5.4230044017340795 $94 $220 forward 7 unknown #
point $-1 54.01409955137791 -24.040205805457624 5.4230044017340795 #
point $-1 54.01409955137791 24.040205805457624 5.4230044017340795 #
face $-1 $-1 $221 $13 $-1 $222 reversed single #
loop $-1 $-1 $109 $99 #
plane-surface $-1 0 -24.040205805457624 0 0 1 0 0 0 1 forward_v I I I I #
coedge $-1 $223 $102 $169 $224 forward $58 $-1 #
coedge $-1 $102 $223 $225 $226 forward $58 $-1 #
edge $-1 $227 -54.01409955137791 $170 54.01409955137791 $102 $228 forward 7 unknown #
coedge $-1 $104 $103 $229 $230 reversed $37 $-1 #
coedge $-1 $105 $111 $165 $224 reversed $100 $-1 #
vertex $-1 $224 $231 #
straight-curve $-1 54.01409955137791 -17.797526212821346 -1.9615022008670397 0 0 1 I I #
coedge $-1 $229 $232 $107 $173 forward $221 $-1 #
edge $-1 $178 -13.580772800887882 $174 -7.3380932082516033 $172 $233 forward 7 unknown #
vertex $-1 $173 $234 #
straight-curve $-1 0 -17.797526212821346 -2.4230044017340795 -1 0 0 I I #
coedge $-1 $235 $109 $232 $236 forward $163 $-1 #
coedge $-1 $109 $235 $111 $180 reversed $163 $-1 #
vertex $-1 $236 $237 #
straight-curve $-1 0 -24.040205805457624 -2.4230044017340795 -1 0 0 I I #
edge $-1 $113 2.4230044017340795 $238 5.4230044017340795 $111 $239 forward 7 unknown #
point $-1 54.01409955137791 -17.797526212821346 -2.4230044017340795 #
point $-1 54.01409955137791 -24.040205805457624 -2.4230044017340795 #
plane-surface $-1 0 0 5.4230044017340795 0 0 1 1 0 0 forward_v I I I I #
coedge $-1 $194 $193 $186 $240 forward $116 $-1 #
coedge $-1 $186 $118 $120 $190 reversed $66 $-1 #
coedge $-1 $118 $185 $184 $240 reversed $66 $-1 #
coedge $-1 $126 $121 $118 $188 forward $127 $-1 #
edge $-1 $191 14.663077366995424 $241 19.022383700519832 $187 $242 forward 7 unknown #
coedge $-1 $120 $119 $194 $243 reversed $41 $-1 #
edge $-1 $244 -108.02819910275582 $191 -101.10119265848641 $185 $245 forward 7 unknown #
vertex $-1 $122 $246 #
straight-curve $-1 49.654793217853495 -7.3915154079427401 5.423004401734083 0 -1 0 I I #
coedge $-1 $184 $123 $126 $198 reversed $116 $-1 #
coedge $-1 $123 $184 $189 $243 forward $116 $-1 #
vertex $-1 $124 $247 #
straight-curve $-1 54.01409955137791 -11.768535418949613 75.988868105601668 0 0 1 I I #
straight-curve $-1 -13.970247848424265 -11.768535418949613 83.993388811401161 0.62932038083071107 0 -0.77714596973225614 I I #
edge $-1 $241 -17.797526212821346 $128 -11.768535418949613 $193 $248 forward 7 unknown #
point $-1 54.01409955137791 -11.768535418949613 5.4230044017340795 #
point $-1 49.654793217853502 -11.768535418949613 5.4230044017340759 #
edge $-1 $249 1 $249 0 $131 $-1 forward 7 unknown #
vertex $-1 $132 $250 #
ellipse-curve $-1 49.590003666219999 -14.78303081588548 0.91384300358663417 0.77714596973225614 0 0.62932038083071107 0.62932038083071107 0 -0.77714596973225614 1 I I #
point $-1 52.463766765446429 -14.78303081588548 1.954210861765163 #
plane-surface $-1 54.01409955137791 0 0 -1 0 0 0 0 1 forward_v I I I I #
coedge $-1 $140 $138 $142 $210 reversed $81 $-1 #
edge $-1 $153 -5.4230044017340795 $212 5.4230044017340795 $152 $251 forward 7 unknown #
vertex $-1 $210 $252 #
straight-curve $-1 -54.01409955137791 -24.040205805457624 0 0 0 -1 I I #
edge $-1 $208 -24.040205805457624 $212 24.040205805457624 $206 $253 forward 7 unknown #
straight-curve $-1 0 -24.040205805457624 -5.4230044017340795 -1 0 0 I I #
vertex $-1 $145 $254 #
straight-curve $-1 0 24.040205805457624 -5.4230044017340795 1 0 0 I I #
point $-1 54.01409955137791 24.040205805457624 -5.4230044017340795 #
point $-1 54.01409955137791 -24.040205805457624 -5.4230044017340795 #
straight-curve $-1 -54.01409955137791 0 5.4230044017340795 0 -1 0 I I #
point $-1 -54.01409955137791 24.040205805457624 5.4230044017340795 #
point $-1 -54.01409955137791 -24.040205805457624 5.4230044017340795 #
straight-curve $-1 54.01409955137791 -24.040205805457624 0 0 0 -1 I I #
straight-curve $-1 54.01409955137791 24.040205805457624 0 0 0 -1 I I #
loop $-1 $-1 $229 $162 #
plane-surface $-1 -54.01409955137791 0 0 1 0 0 0 0 -1 forward_v I I I I #
coedge $-1 $166 $165 $235 $255 forward $58 $-1 #
edge $-1 $170 17.797526212821346 $238 24.040205805457624 $169 $256 forward 7 unknown #
coedge $-1 $232 $229 $166 $226 reversed $221 $-1 #
edge $-1 $257 -24.040205805457624 $227 -17.797526212821346 $225 $258 forward 7 unknown #
vertex $-1 $230 $259 #
straight-curve $-1 0 -17.797526212821346 -5.4230044017340795 1 0 0 I I #
coedge $-1 $225 $172 $168 $230 forward $221 $-1 #
edge $-1 $174 0.46150220086703975 $227 3.4615022008670397 $229 $260 forward 7 unknown #
point $-1 54.01409955137791 -17.797526212821346 -5.4230044017340795 #
coedge $-1 $172 $225 $176 $236 reversed $221 $-1 #
straight-curve $-1 -54.01409955137791 -10.459433004569743 -2.4230044017340795 0 1 0 I I #
point $-1 -54.01409955137791 -17.797526212821346 -2.4230044017340795 #
coedge $-1 $177 $176 $223 $255 reversed $163 $-1 #
edge $-1 $178 2.4230044017340795 $257 5.4230044017340795 $232 $261 forward 7 unknown #
point $-1 -54.01409955137791 -24.040205805457624 -2.4230044017340795 #
vertex $-1 $180 $262 #
straight-curve $-1 54.01409955137791 -24.040205805457624 0 0 0 -1 I I #
edge $-1 $241 70.565863703867592 $244 75.949158844340928 $184 $263 forward 7 unknown #
vertex $-1 $198 $264 #
straight-curve $-1 34.991715850858078 -17.797526212821346 5.4230044017340759 1 0 0 I I #
edge $-1 $244 -10.406010804878605 $195 -4.3770200110068727 $194 $265 forward 7 unknown #
vertex $-1 $243 $266 #
straight-curve $-1 -13.970247848424265 -17.797526212821346 83.993388811401161 -0.62932038083071107 0 0.77714596973225614 I I #
point $-1 49.654793217853502 -17.797526212821346 5.4230044017340759 #
point $-1 54.01409955137791 -11.768535418949613 0.039709261260739481 #
straight-curve $-1 54.01409955137791 0 5.4230044017340795 0 1 0 I I #
vertex $-1 $201 $267 #
point $-1 50.219324047050712 -14.78303081588548 0.13669703385437804 #
straight-curve $-1 -54.01409955137791 24.040205805457624 0 0 0 -1 I I #
point $-1 -54.01409955137791 -24.040205805457624 -5.4230044017340795 #
straight-curve $-1 -54.01409955137791 0 -5.4230044017340795 0 1 0 I I #
point $-1 -54.01409955137791 24.040205805457624 -5.4230044017340795 #
edge $-1 $238 -54.01409955137791 $257 54.01409955137791 $235 $268 forward 7 unknown #
straight-curve $-1 54.01409955137791 0 -5.4230044017340795 0 -1 0 I I #
vertex $-1 $226 $269 #
straight-curve $-1 -54.01409955137791 0 -5.4230044017340795 0 1 0 I I #
point $-1 -54.01409955137791 -17.797526212821346 -5.4230044017340795 #
straight-curve $-1 -54.01409955137791 -17.797526212821346 -1.9615022008670397 0 0 -1 I I #
straight-curve $-1 -54.01409955137791 -24.040205805457624 0 0 0 -1 I I #
point $-1 54.01409955137791 -24.040205805457624 -5.4230044017340795 #
straight-curve $-1 54.01409955137791 -17.797526212821346 75.988868105601668 0 0 -1 I I #
point $-1 54.01409955137791 -17.797526212821346 5.4230044017340795 #
straight-curve $-1 54.01409955137791 -7.3915154079427401 0.039709261260739481 0 1 0 I I #
point $-1 54.01409955137791 -17.797526212821346 0.039709261260739481 #
point $-1 48.81285769648774 -14.78303081588548 0.2845226227559231 #
straight-curve $-1 0 -24.040205805457624 -5.4230044017340795 -1 0 0 I I #
point $-1 -54.01409955137791 -24.040205805457624 -5.4230044017340795 #
End-of-ACIS-data 