500 0 10 0           
7 Unknown 11 ACIS 5.0 NT 24 Fri Mar 26 02:26:19 1999 
-1 9.9999999999999995e-007 1e-010 
body $-1 $10 $-1 $11 #
body $-1 $12 $-1 $13 #
body $-1 $14 $-1 $15 #
body $-1 $16 $-1 $17 #
body $-1 $18 $-1 $19 #
body $-1 $20 $-1 $21 #
body $-1 $22 $-1 $23 #
body $-1 $24 $-1 $25 #
body $-1 $26 $-1 $27 #
body $-1 $28 $-1 $29 #
lump $-1 $-1 $30 $0 #
transform $-1 1 0 0 0 1 0 0 0 1 48.414563432721948 33.142411250547795 11.20765148911847 1 rotate no_reflect no_shear #
lump $-1 $-1 $31 $1 #
transform $-1 1 0 0 0 1 0 0 0 1 48.414563432721948 33.142411250547795 11.20765148911847 1 rotate no_reflect no_shear #
lump $-1 $-1 $32 $2 #
transform $-1 1 0 0 0 1 0 0 0 1 48.414563432721948 33.142411250547795 11.20765148911847 1 rotate no_reflect no_shear #
lump $-1 $-1 $33 $3 #
transform $-1 1 0 0 0 1 0 0 0 1 48.414563432721948 33.142411250547795 11.20765148911847 1 rotate no_reflect no_shear #
lump $-1 $-1 $34 $4 #
transform $-1 1 0 0 0 1 0 0 0 1 48.414563432721948 33.142411250547795 11.20765148911847 1 rotate no_reflect no_shear #
lump $-1 $-1 $35 $5 #
transform $-1 1 0 0 0 1 0 0 0 1 48.414563432721948 33.142411250547795 11.20765148911847 1 rotate no_reflect no_shear #
lump $-1 $-1 $36 $6 #
transform $-1 1 0 0 0 1 0 0 0 1 48.414563432721948 33.142411250547795 11.20765148911847 1 rotate no_reflect no_shear #
lump $-1 $-1 $37 $7 #
transform $-1 1 0 0 0 1 0 0 0 1 48.414563432721948 33.142411250547795 11.20765148911847 1 rotate no_reflect no_shear #
lump $-1 $-1 $38 $8 #
transform $-1 1 0 0 0 1 0 0 0 1 48.414563432721948 33.142411250547795 11.20765148911847 1 rotate no_reflect no_shear #
lump $-1 $-1 $39 $9 #
transform $-1 1 0 0 0 1 0 0 0 1 48.414563432721948 33.142411250547795 11.20765148911847 1 rotate no_reflect no_shear #
shell $-1 $-1 $-1 $40 $-1 $10 #
shell $-1 $-1 $-1 $41 $-1 $12 #
shell $-1 $-1 $-1 $42 $-1 $14 #
shell $-1 $-1 $-1 $43 $-1 $16 #
shell $-1 $-1 $-1 $44 $-1 $18 #
shell $-1 $-1 $-1 $45 $-1 $20 #
shell $-1 $-1 $-1 $46 $-1 $22 #
shell $-1 $-1 $-1 $47 $-1 $24 #
shell $-1 $-1 $-1 $48 $-1 $26 #
shell $-1 $-1 $-1 $49 $-1 $28 #
face $-1 $50 $51 $30 $-1 $52 forward single #
face $-1 $53 $54 $31 $-1 $55 forward single #
face $-1 $56 $57 $32 $-1 $58 reversed single #
face $-1 $59 $60 $33 $-1 $61 forward single #
face $-1 $62 $63 $34 $-1 $64 forward single #
face $-1 $65 $66 $35 $-1 $67 forward single #
face $-1 $68 $69 $36 $-1 $70 reversed single #
face $-1 $71 $72 $37 $-1 $73 forward single #
face $-1 $74 $75 $38 $-1 $76 forward single #
face $-1 $77 $78 $39 $-1 $79 forward single #
face $-1 $80 $81 $30 $-1 $82 reversed single #
loop $-1 $-1 $83 $40 #
plane-surface $-1 0 0 11.20765148911847 0 0 1 1 0 0 forward_v I I I I #
face $-1 $84 $85 $31 $-1 $86 reversed single #
loop $-1 $-1 $87 $41 #
plane-surface $-1 -42.714453197846638 0 -6.3688637105770161 0 0 1 1 0 0 forward_v I I I I #
face $-1 $88 $89 $32 $-1 $90 reversed single #
loop $-1 $-1 $91 $42 #
plane-surface $-1 -9.5440597346474938 -111.47882122760704 61.186758289806072 1 0 0 0 0.80901700255871778 -0.5877852410284794 forward_v I I I I #
face $-1 $92 $93 $33 $-1 $94 forward single #
loop $-1 $95 $96 $43 #
cone-surface $-1 -5.5315839046630586 -29.926306991072131 7.2337359949849915 0 0.80901700255871778 -0.5877852410284794 1.5 0 0 1 I I 0 1 1.5 forward I I I I #
face $-1 $97 $98 $34 $-1 $99 forward single #
loop $-1 $100 $101 $44 #
cone-surface $-1 0.48712984031358531 -29.926306991072131 7.2337359949849915 0 0.80901700255871778 -0.5877852410284794 1.5 0 0 1 I I 0 1 1.5 forward I I I I #
face $-1 $102 $103 $35 $-1 $104 forward single #
loop $-1 $105 $106 $45 #
cone-surface $-1 6.5058435852902363 -29.926306991072131 7.2337359949849915 0 0.80901700255871778 -0.5877852410284794 1.5 0 0 1 I I 0 1 1.5 forward I I I I #
face $-1 $107 $108 $36 $-1 $109 reversed single #
loop $-1 $-1 $110 $46 #
plane-surface $-1 13.747431722736259 38.478222568597744 119.26208277324558 1 0 0 0 -0.6018150307709319 -0.79863550430605224 forward_v I I I I #
face $-1 $111 $112 $37 $-1 $113 forward single #
loop $-1 $114 $115 $47 #
cone-surface $-1 17.680858373915271 26.234505287998349 5.5291752450193989 0 -0.6018150307709319 -0.79863550430605224 1 0 0 1 I I 0 1 1 forward I I I I #
face $-1 $116 $117 $38 $-1 $118 forward single #
loop $-1 $119 $120 $48 #
cone-surface $-1 23.580998350683771 26.234505287998349 5.5291752450193989 0 -0.6018150307709319 -0.79863550430605224 1 0 0 1 I I 0 1 1 forward I I I I #
face $-1 $121 $122 $39 $-1 $123 forward single #
loop $-1 $124 $125 $49 #
cone-surface $-1 29.481138327452285 26.234505287998349 5.5291752450193989 0 -0.6018150307709319 -0.79863550430605224 1 0 0 1 I I 0 1 1 forward I I I I #
face $-1 $126 $127 $30 $-1 $128 reversed single #
loop $-1 $-1 $129 $50 #
plane-surface $-1 0 0 -11.20765148911847 0 0 1 1 0 0 forward_v I I I I #
coedge $-1 $130 $131 $132 $133 forward $51 $-1 #
face $-1 $134 $135 $31 $-1 $136 reversed single #
loop $-1 $-1 $137 $53 #
plane-surface $-1 -42.714453197846638 0 -10.707651489118469 0 0 1 1 0 0 forward_v I I I I #
coedge $-1 $138 $139 $140 $141 forward $54 $-1 #
face $-1 $142 $143 $32 $-1 $144 reversed single #
loop $-1 $-1 $145 $56 #
plane-surface $-1 0.48712984031358531 -33.142411250547809 4.2720266166239185 0 -0.80901700255871778 0.5877852410284794 1 0 0 forward_v I I I I #
coedge $-1 $146 $147 $148 $149 reversed $57 $-1 #
face $-1 $-1 $150 $33 $-1 $151 forward single #
loop $-1 $152 $153 $59 #
cone-surface $-1 -5.5315839046630586 -28.622953119987763 6.286794006327435 0 0.80901700255871778 -0.5877852410284794 0.75 0 0 1 I I -0.70710678118654757 0.70710678118654757 0.75 forward I I I I #
loop $-1 $-1 $154 $43 #
coedge $-1 $96 $96 $155 $156 reversed $60 $-1 #
face $-1 $-1 $157 $34 $-1 $158 forward single #
loop $-1 $159 $160 $62 #
cone-surface $-1 0.48712984031358531 -28.622953119987763 6.286794006327435 0 0.80901700255871778 -0.5877852410284794 0.75 0 0 1 I I -0.70710678118654757 0.70710678118654757 0.75 forward I I I I #
loop $-1 $-1 $161 $44 #
coedge $-1 $101 $101 $162 $163 reversed $63 $-1 #
face $-1 $-1 $164 $35 $-1 $165 forward single #
loop $-1 $166 $167 $65 #
cone-surface $-1 6.5058435852902363 -28.622953119987763 6.286794006327435 0 0.80901700255871778 -0.5877852410284794 0.75 0 0 1 I I -0.70710678118654757 0.70710678118654757 0.75 forward I I I I #
loop $-1 $-1 $168 $45 #
coedge $-1 $106 $106 $169 $170 reversed $66 $-1 #
face $-1 $171 $172 $36 $-1 $173 reversed single #
loop $-1 $-1 $174 $68 #
plane-surface $-1 23.580998350683771 -19.795001395451841 41.930904207547087 0 0.6018150307709319 0.79863550430605224 1 0 0 forward_v I I I I #
coedge $-1 $175 $176 $177 $178 reversed $69 $-1 #
face $-1 $-1 $179 $37 $-1 $180 forward single #
loop $-1 $181 $182 $71 #
cone-surface $-1 17.680858373915271 25.108831826026396 4.0353561361242978 0 -0.6018150307709319 -0.79863550430605224 0.5 0 0 1 I I -0.70710678118654746 0.70710678118654746 0.5 forward I I I I #
loop $-1 $-1 $183 $47 #
coedge $-1 $115 $115 $184 $185 reversed $72 $-1 #
face $-1 $-1 $186 $38 $-1 $187 forward single #
loop $-1 $188 $189 $74 #
cone-surface $-1 23.580998350683771 25.108831826026396 4.0353561361242978 0 -0.6018150307709319 -0.79863550430605224 0.5 0 0 1 I I -0.70710678118654746 0.70710678118654746 0.5 forward I I I I #
loop $-1 $-1 $190 $48 #
coedge $-1 $120 $120 $191 $192 reversed $75 $-1 #
face $-1 $-1 $193 $39 $-1 $194 forward single #
loop $-1 $195 $196 $77 #
cone-surface $-1 29.481138327452285 25.108831826026396 4.0353561361242978 0 -0.6018150307709319 -0.79863550430605224 0.5 0 0 1 I I -0.70710678118654746 0.70710678118654746 0.5 forward I I I I #
loop $-1 $-1 $197 $49 #
coedge $-1 $125 $125 $198 $199 reversed $78 $-1 #
face $-1 $200 $201 $30 $-1 $202 reversed single #
loop $-1 $-1 $203 $80 #
plane-surface $-1 0 -33.142411250547795 0 0 1 0 0 0 1 forward_v I I I I #
coedge $-1 $204 $205 $206 $207 forward $81 $-1 #
coedge $-1 $208 $83 $209 $210 forward $51 $-1 #
coedge $-1 $83 $208 $211 $212 forward $51 $-1 #
coedge $-1 $213 $214 $83 $133 reversed $215 $-1 #
edge $-1 $216 -33.142411250547795 $217 33.142411250547795 $132 $218 forward 7 unknown #
face $-1 $219 $220 $31 $-1 $221 reversed single #
loop $-1 $-1 $222 $84 #
plane-surface $-1 -37.014342962971327 0 -8.5382575998477428 -1 0 0 0 0 1 forward_v I I I I #
coedge $-1 $223 $224 $225 $226 forward $85 $-1 #
coedge $-1 $227 $87 $228 $229 reversed $54 $-1 #
coedge $-1 $87 $227 $230 $231 reversed $54 $-1 #
coedge $-1 $222 $232 $87 $141 reversed $135 $-1 #
edge $-1 $233 -33.142411250547795 $234 33.142411250547795 $140 $235 forward 7 unknown #
face $-1 $236 $237 $32 $-1 $238 forward single #
loop $-1 $-1 $239 $88 #
plane-surface $-1 10.518319415274664 -111.47882122760704 61.186758289806072 -1 0 0 0 -0.80901700255871778 0.5877852410284794 forward_v I I I I #
coedge $-1 $240 $241 $242 $243 reversed $89 $-1 #
coedge $-1 $147 $91 $244 $245 reversed $57 $-1 #
coedge $-1 $91 $146 $240 $246 reversed $57 $-1 #
coedge $-1 $242 $247 $91 $149 forward $248 $-1 #
edge $-1 $249 19.385727655784564 $250 26.3213525282791 $148 $251 forward 7 unknown #
loop $-1 $-1 $155 $92 #
plane-surface $-1 0.48712984031358531 -33.142411250547809 4.2720266166239185 0 -0.80901700255871778 0.5877852410284794 1 0 0 forward_v I I I I #
loop $-1 $-1 $252 $59 #
coedge $-1 $153 $153 $154 $253 reversed $93 $-1 #
coedge $-1 $154 $154 $153 $253 forward $95 $-1 #
coedge $-1 $155 $155 $96 $156 forward $150 $-1 #
edge $-1 $254 7.3332971535593224e-016 $254 6.2831853071796013 $155 $255 forward 7 unknown #
loop $-1 $-1 $162 $97 #
plane-surface $-1 0.48712984031358531 -33.142411250547809 4.2720266166239185 0 -0.80901700255871778 0.5877852410284794 1 0 0 forward_v I I I I #
loop $-1 $-1 $256 $62 #
coedge $-1 $160 $160 $161 $257 reversed $98 $-1 #
coedge $-1 $161 $161 $160 $257 forward $100 $-1 #
coedge $-1 $162 $162 $101 $163 forward $157 $-1 #
edge $-1 $258 7.3332971535593224e-016 $258 6.2831853071796013 $162 $259 forward 7 unknown #
loop $-1 $-1 $169 $102 #
plane-surface $-1 0.48712984031358531 -33.142411250547809 4.2720266166239185 0 -0.80901700255871778 0.5877852410284794 1 0 0 forward_v I I I I #
loop $-1 $-1 $260 $65 #
coedge $-1 $167 $167 $168 $261 reversed $103 $-1 #
coedge $-1 $168 $168 $167 $261 forward $105 $-1 #
coedge $-1 $169 $169 $106 $170 forward $164 $-1 #
edge $-1 $262 7.3332971535593224e-016 $262 6.2831853071796013 $169 $263 forward 7 unknown #
face $-1 $264 $265 $36 $-1 $266 reversed single #
loop $-1 $-1 $267 $107 #
plane-surface $-1 33.414564978631283 38.478222568597744 119.26208277324558 -1 0 0 0 0.6018150307709319 0.79863550430605224 forward_v I I I I #
coedge $-1 $268 $269 $270 $271 reversed $108 $-1 #
coedge $-1 $176 $110 $272 $273 reversed $69 $-1 #
coedge $-1 $110 $175 $268 $274 reversed $69 $-1 #
coedge $-1 $270 $275 $110 $178 forward $276 $-1 #
edge $-1 $277 -13.903299966248923 $278 -1.7370199343230226 $177 $279 forward 7 unknown #
loop $-1 $-1 $184 $111 #
plane-surface $-1 23.580998350683771 -19.795001395451841 41.930904207547087 0 0.6018150307709319 0.79863550430605224 1 0 0 forward_v I I I I #
loop $-1 $-1 $280 $71 #
coedge $-1 $182 $182 $183 $281 reversed $112 $-1 #
coedge $-1 $183 $183 $182 $281 forward $114 $-1 #
coedge $-1 $184 $184 $115 $185 forward $179 $-1 #
edge $-1 $282 0 $282 6.2831853071796004 $184 $283 forward 7 unknown #
loop $-1 $-1 $191 $116 #
plane-surface $-1 23.580998350683771 -19.795001395451841 41.930904207547087 0 0.6018150307709319 0.79863550430605224 1 0 0 forward_v I I I I #
loop $-1 $-1 $284 $74 #
coedge $-1 $189 $189 $190 $285 reversed $117 $-1 #
coedge $-1 $190 $190 $189 $285 forward $119 $-1 #
coedge $-1 $191 $191 $120 $192 forward $186 $-1 #
edge $-1 $286 0 $286 6.2831853071796004 $191 $287 forward 7 unknown #
loop $-1 $-1 $198 $121 #
plane-surface $-1 23.580998350683771 -19.795001395451841 41.930904207547087 0 0.6018150307709319 0.79863550430605224 1 0 0 forward_v I I I I #
loop $-1 $-1 $288 $77 #
coedge $-1 $196 $196 $197 $289 reversed $122 $-1 #
coedge $-1 $197 $197 $196 $289 forward $124 $-1 #
coedge $-1 $198 $198 $125 $199 forward $193 $-1 #
edge $-1 $290 0 $290 6.2831853071796004 $198 $291 forward 7 unknown #
face $-1 $292 $293 $30 $-1 $294 reversed single #
loop $-1 $-1 $295 $126 #
plane-surface $-1 -48.414563432721948 0 0 1 0 0 0 0 -1 forward_v I I I I #
coedge $-1 $296 $211 $297 $298 forward $127 $-1 #
coedge $-1 $299 $129 $296 $300 forward $81 $-1 #
coedge $-1 $129 $299 $301 $302 forward $81 $-1 #
coedge $-1 $214 $213 $129 $207 reversed $215 $-1 #
edge $-1 $303 -33.142411250547795 $304 33.142411250547795 $206 $305 forward 7 unknown #
coedge $-1 $131 $130 $306 $307 forward $51 $-1 #
coedge $-1 $308 $309 $130 $210 reversed $293 $-1 #
edge $-1 $217 -48.414563432721948 $310 48.414563432721948 $209 $311 forward 7 unknown #
coedge $-1 $203 $312 $131 $212 reversed $127 $-1 #
edge $-1 $313 -48.414563432721948 $216 48.414563432721948 $211 $314 forward 7 unknown #
coedge $-1 $206 $132 $312 $315 forward $215 $-1 #
coedge $-1 $132 $206 $308 $316 reversed $215 $-1 #
loop $-1 $-1 $213 $292 #
vertex $-1 $133 $317 #
vertex $-1 $133 $318 #
straight-curve $-1 48.414563432721948 0 11.20765148911847 0 1 0 I I #
face $-1 $319 $320 $31 $-1 $321 reversed single #
loop $-1 $-1 $322 $134 #
plane-surface $-1 0 -33.142411250547795 0 0 1 0 0 0 1 forward_v I I I I #
coedge $-1 $225 $140 $323 $324 reversed $135 $-1 #
coedge $-1 $325 $137 $322 $326 reversed $85 $-1 #
coedge $-1 $137 $325 $327 $328 reversed $85 $-1 #
coedge $-1 $232 $222 $137 $226 reversed $135 $-1 #
edge $-1 $329 -33.142411250547795 $330 33.142411250547795 $225 $331 forward 7 unknown #
coedge $-1 $139 $138 $332 $333 reversed $54 $-1 #
coedge $-1 $334 $335 $138 $229 forward $336 $-1 #
edge $-1 $337 -27.05733683379863 $234 -15.657116364048008 $228 $338 forward 7 unknown #
coedge $-1 $339 $323 $139 $231 forward $220 $-1 #
edge $-1 $233 15.657116364048008 $340 27.05733683379863 $230 $341 forward 7 unknown #
coedge $-1 $140 $225 $334 $342 reversed $135 $-1 #
vertex $-1 $231 $343 #
vertex $-1 $229 $344 #
straight-curve $-1 -37.014342962971327 0 -6.3688637105770161 0 1 0 I I #
face $-1 $-1 $248 $32 $-1 $345 reversed single #
loop $-1 $-1 $346 $142 #
plane-surface $-1 0 0 11.20765148911847 0 0 1 1 0 0 forward_v I I I I #
coedge $-1 $347 $348 $349 $350 reversed $143 $-1 #
coedge $-1 $351 $145 $147 $246 forward $89 $-1 #
coedge $-1 $145 $351 $347 $352 forward $89 $-1 #
coedge $-1 $349 $148 $145 $243 forward $248 $-1 #
edge $-1 $250 -9.7876246548042865 $353 10.274754495117872 $242 $354 forward 7 unknown #
coedge $-1 $355 $356 $146 $245 forward $237 $-1 #
edge $-1 $357 -27.636025643876366 $249 -22.596999363255726 $244 $358 forward 7 unknown #
edge $-1 $250 2.4161062406544664e-014 $357 8.5729037221206852 $147 $359 forward 7 unknown #
coedge $-1 $148 $349 $355 $360 reversed $248 $-1 #
loop $-1 $-1 $349 $236 #
vertex $-1 $360 $361 #
vertex $-1 $149 $362 #
straight-curve $-1 -9.5440597346474938 -33.142411250547795 30.593379144903036 0 0 -1 I I #
coedge $-1 $252 $252 $-1 $363 reversed $152 $-1 #
edge $-1 $364 0 $364 6.2831853071796004 $153 $365 forward 7 unknown #
vertex $-1 $156 $366 #
ellipse-curve $-1 -5.5315839046630586 -30.622898110237479 7.7398390528711998 0 -0.80901700255871778 0.5877852410284794 1.5 0 0 1 I I #
coedge $-1 $256 $256 $-1 $367 reversed $159 $-1 #
edge $-1 $368 0 $368 6.2831853071796004 $160 $369 forward 7 unknown #
vertex $-1 $163 $370 #
ellipse-curve $-1 0.48712984031358531 -30.622898110237479 7.7398390528711998 0 -0.80901700255871778 0.5877852410284794 1.5 0 0 1 I I #
coedge $-1 $260 $260 $-1 $371 reversed $166 $-1 #
edge $-1 $372 0 $372 6.2831853071796004 $167 $373 forward 7 unknown #
vertex $-1 $170 $374 #
ellipse-curve $-1 6.5058435852902363 -30.622898110237479 7.7398390528711998 0 -0.80901700255871778 0.5877852410284794 1.5 0 0 1 I I #
face $-1 $-1 $276 $36 $-1 $375 forward single #
loop $-1 $-1 $376 $171 #
plane-surface $-1 0 33.142411250547795 0 0 -1 0 0 0 -1 forward_v I I I I #
coedge $-1 $377 $378 $379 $380 reversed $172 $-1 #
coedge $-1 $381 $174 $176 $274 forward $108 $-1 #
coedge $-1 $174 $381 $377 $382 forward $108 $-1 #
coedge $-1 $379 $177 $174 $271 forward $276 $-1 #
edge $-1 $278 1.9569325473943735 $383 21.624065803289398 $270 $384 forward 7 unknown #
coedge $-1 $385 $386 $175 $273 forward $265 $-1 #
edge $-1 $387 -57.591339672218304 $277 -48.423389897504322 $272 $388 forward 7 unknown #
edge $-1 $278 51.050989336493949 $387 66.28482250109559 $176 $389 forward 7 unknown #
coedge $-1 $177 $379 $385 $390 forward $276 $-1 #
loop $-1 $-1 $379 $264 #
vertex $-1 $273 $391 #
vertex $-1 $178 $392 #
straight-curve $-1 13.747431722736259 19.239111284298872 11.207651489118469 0 -1 0 I I #
coedge $-1 $280 $280 $-1 $393 reversed $181 $-1 #
edge $-1 $394 0 $394 6.2831853071796004 $182 $395 forward 7 unknown #
vertex $-1 $185 $396 #
ellipse-curve $-1 17.680858373915271 27.059271234584838 6.6236766017614741 0 0.6018150307709319 0.79863550430605224 1 0 0 1 I I #
coedge $-1 $284 $284 $-1 $397 reversed $188 $-1 #
edge $-1 $398 0 $398 6.2831853071796004 $189 $399 forward 7 unknown #
vertex $-1 $192 $400 #
ellipse-curve $-1 23.580998350683771 27.059271234584838 6.6236766017614741 0 0.6018150307709319 0.79863550430605224 1 0 0 1 I I #
coedge $-1 $288 $288 $-1 $401 reversed $195 $-1 #
edge $-1 $402 0 $402 6.2831853071796004 $196 $403 forward 7 unknown #
vertex $-1 $199 $404 #
ellipse-curve $-1 29.481138327452285 27.059271234584838 6.6236766017614741 0 0.6018150307709319 0.79863550430605224 1 0 0 1 I I #
face $-1 $-1 $215 $30 $-1 $405 reversed single #
loop $-1 $-1 $308 $200 #
plane-surface $-1 0 33.142411250547795 0 0 -1 0 0 0 -1 forward_v I I I I #
coedge $-1 $406 $306 $309 $407 forward $201 $-1 #
coedge $-1 $312 $203 $204 $300 reversed $127 $-1 #
coedge $-1 $306 $406 $203 $298 reversed $201 $-1 #
edge $-1 $313 -11.20765148911847 $408 11.20765148911847 $297 $409 forward 7 unknown #
coedge $-1 $205 $204 $406 $410 forward $81 $-1 #
edge $-1 $304 -48.414563432721948 $408 48.414563432721948 $296 $411 forward 7 unknown #
coedge $-1 $309 $308 $205 $302 reversed $293 $-1 #
edge $-1 $412 -48.414563432721948 $303 48.414563432721948 $301 $413 forward 7 unknown #
vertex $-1 $207 $414 #
vertex $-1 $315 $415 #
straight-curve $-1 48.414563432721948 0 -11.20765148911847 0 -1 0 I I #
coedge $-1 $295 $297 $208 $307 reversed $201 $-1 #
edge $-1 $310 -33.142411250547795 $313 33.142411250547795 $306 $416 forward 7 unknown #
coedge $-1 $301 $209 $214 $316 forward $293 $-1 #
coedge $-1 $209 $301 $295 $407 reversed $293 $-1 #
vertex $-1 $210 $417 #
straight-curve $-1 0 33.142411250547795 11.20765148911847 -1 0 0 I I #
coedge $-1 $211 $296 $213 $315 reversed $127 $-1 #
vertex $-1 $307 $418 #
straight-curve $-1 0 -33.142411250547795 11.20765148911847 1 0 0 I I #
edge $-1 $216 -11.20765148911847 $304 11.20765148911847 $213 $419 forward 7 unknown #
edge $-1 $217 -11.20765148911847 $303 11.20765148911847 $214 $420 forward 7 unknown #
point $-1 48.414563432721948 -33.142411250547795 11.20765148911847 #
point $-1 48.414563432721948 33.142411250547795 11.20765148911847 #
face $-1 $-1 $336 $31 $-1 $421 reversed single #
loop $-1 $-1 $422 $219 #
plane-surface $-1 -48.414563432721948 0 0 1 0 0 0 0 -1 forward_v I I I I #
coedge $-1 $323 $339 $223 $326 forward $220 $-1 #
coedge $-1 $230 $322 $222 $324 forward $220 $-1 #
edge $-1 $330 -6.4385226891945972 $233 -2.0997349106531447 $323 $423 forward 7 unknown #
coedge $-1 $224 $223 $422 $424 reversed $85 $-1 #
edge $-1 $425 -27.05733683379863 $330 -15.657116364048008 $322 $426 forward 7 unknown #
coedge $-1 $335 $334 $224 $328 forward $336 $-1 #
edge $-1 $329 15.657116364048008 $427 27.05733683379863 $327 $428 forward 7 unknown #
vertex $-1 $328 $429 #
vertex $-1 $326 $430 #
straight-curve $-1 -37.014342962971327 0 -10.707651489118469 0 -1 0 I I #
coedge $-1 $431 $432 $227 $333 forward $320 $-1 #
edge $-1 $340 -33.142411250547795 $337 33.142411250547795 $332 $433 forward 7 unknown #
coedge $-1 $327 $228 $232 $342 forward $336 $-1 #
coedge $-1 $228 $327 $431 $434 reversed $336 $-1 #
loop $-1 $-1 $327 $319 #
vertex $-1 $434 $435 #
straight-curve $-1 -21.357226598923319 33.142411250547795 -6.3688637105770161 1 0 0 I I #
coedge $-1 $322 $230 $432 $436 forward $220 $-1 #
vertex $-1 $436 $437 #
straight-curve $-1 -21.357226598923319 -33.142411250547795 -6.3688637105770161 -1 0 0 I I #
edge $-1 $234 2.0997349106531447 $329 6.4385226891945972 $334 $438 forward 7 unknown #
point $-1 -37.014342962971327 -33.142411250547795 -6.3688637105770161 #
point $-1 -37.014342962971327 33.142411250547795 -6.3688637105770161 #
plane-surface $-1 0 -33.142411250547795 0 0 1 0 0 0 1 forward_v I I I I #
coedge $-1 $356 $355 $348 $439 forward $237 $-1 #
coedge $-1 $348 $239 $241 $352 reversed $143 $-1 #
coedge $-1 $239 $347 $346 $439 reversed $143 $-1 #
coedge $-1 $247 $242 $239 $350 forward $248 $-1 #
edge $-1 $353 -26.3213525282791 $440 -19.385727655784564 $349 $441 forward 7 unknown #
coedge $-1 $241 $240 $356 $442 reversed $89 $-1 #
edge $-1 $443 -8.5729037221206852 $353 -2.4161062406544664e-014 $347 $444 forward 7 unknown #
vertex $-1 $243 $445 #
straight-curve $-1 0.24356492015679265 -33.142411250547795 4.272026616623938 1 0 0 I I #
coedge $-1 $346 $244 $247 $360 forward $237 $-1 #
coedge $-1 $244 $346 $351 $442 forward $237 $-1 #
vertex $-1 $245 $446 #
straight-curve $-1 -9.5440597346474938 -55.739410613803521 11.207651489118469 0 -1 0 I I #
straight-curve $-1 -9.5440597346474938 -33.142411250547809 4.2720266166239185 0 0.5877852410284794 0.80901700255871778 I I #
edge $-1 $249 -9.5440597346474938 $440 10.518319415274664 $247 $447 forward 7 unknown #
point $-1 -9.5440597346474938 -33.142411250547795 11.20765148911847 #
point $-1 -9.5440597346474938 -33.142411250547795 4.272026616623938 #
edge $-1 $448 1 $448 0 $252 $-1 forward 7 unknown #
vertex $-1 $253 $449 #
ellipse-curve $-1 -5.5315839046630586 -29.229715871906802 6.7276329370987948 0 -0.80901700255871778 0.5877852410284794 1.5 0 0 1 I I #
point $-1 -4.0315839046630586 -30.622898110237461 7.7398390528711882 #
edge $-1 $450 1 $450 0 $256 $-1 forward 7 unknown #
vertex $-1 $257 $451 #
ellipse-curve $-1 0.48712984031358531 -29.229715871906802 6.7276329370987948 0 -0.80901700255871778 0.5877852410284794 1.5 0 0 1 I I #
point $-1 1.9871298403135853 -30.622898110237461 7.7398390528711882 #
edge $-1 $452 1 $452 0 $260 $-1 forward 7 unknown #
vertex $-1 $261 $453 #
ellipse-curve $-1 6.5058435852902363 -29.229715871906802 6.7276329370987948 0 -0.80901700255871778 0.5877852410284794 1.5 0 0 1 I I #
point $-1 8.0058435852902363 -30.622898110237461 7.7398390528711882 #
plane-surface $-1 0 0 11.20765148911847 0 0 1 1 0 0 forward_v I I I I #
coedge $-1 $386 $385 $378 $454 forward $265 $-1 #
coedge $-1 $378 $267 $269 $382 reversed $172 $-1 #
coedge $-1 $267 $377 $376 $454 reversed $172 $-1 #
coedge $-1 $275 $270 $267 $380 forward $276 $-1 #
edge $-1 $383 1.7370199343230226 $455 13.903299966248923 $379 $456 forward 7 unknown #
coedge $-1 $269 $268 $386 $457 reversed $108 $-1 #
edge $-1 $458 -66.28482250109559 $383 -51.050989336493949 $377 $459 forward 7 unknown #
vertex $-1 $271 $460 #
straight-curve $-1 11.790499175341886 20.976131218621887 11.207651489118469 1 0 0 I I #
coedge $-1 $376 $272 $275 $390 reversed $265 $-1 #
coedge $-1 $272 $376 $381 $457 forward $265 $-1 #
vertex $-1 $273 $461 #
straight-curve $-1 13.747431722736259 33.142411250547795 59.63104138662279 0 0 1 I I #
straight-curve $-1 13.747431722736259 -19.795001395451841 41.930904207547087 0 0.79863550430605224 -0.6018150307709319 I I #
edge $-1 $455 -33.414564978631283 $277 -13.747431722736259 $385 $462 forward 7 unknown #
point $-1 13.747431722736259 33.142411250547795 11.20765148911847 #
point $-1 13.747431722736259 20.976131218621894 11.207651489118469 #
edge $-1 $463 1 $463 0 $280 $-1 forward 7 unknown #
vertex $-1 $281 $464 #
ellipse-curve $-1 17.680858373915271 25.409739341411861 4.4346738882773238 0 0.6018150307709319 0.79863550430605224 1 0 0 1 I I #
point $-1 18.680858373915271 27.059271234584838 6.6236766017614741 #
edge $-1 $465 1 $465 0 $284 $-1 forward 7 unknown #
vertex $-1 $285 $466 #
ellipse-curve $-1 23.580998350683771 25.409739341411861 4.4346738882773238 0 0.6018150307709319 0.79863550430605224 1 0 0 1 I I #
point $-1 24.580998350683771 27.059271234584838 6.6236766017614741 #
edge $-1 $467 1 $467 0 $288 $-1 forward 7 unknown #
vertex $-1 $289 $468 #
ellipse-curve $-1 29.481138327452285 25.409739341411861 4.4346738882773238 0 0.6018150307709319 0.79863550430605224 1 0 0 1 I I #
point $-1 30.481138327452285 27.059271234584838 6.6236766017614741 #
plane-surface $-1 48.414563432721948 0 0 -1 0 0 0 0 1 forward_v I I I I #
coedge $-1 $297 $295 $299 $410 reversed $201 $-1 #
edge $-1 $310 -11.20765148911847 $412 11.20765148911847 $309 $469 forward 7 unknown #
vertex $-1 $410 $470 #
straight-curve $-1 -48.414563432721948 -33.142411250547795 0 0 0 -1 I I #
edge $-1 $408 -33.142411250547795 $412 33.142411250547795 $406 $471 forward 7 unknown #
straight-curve $-1 0 -33.142411250547795 -11.20765148911847 -1 0 0 I I #
vertex $-1 $302 $472 #
straight-curve $-1 0 33.142411250547795 -11.20765148911847 1 0 0 I I #
point $-1 48.414563432721948 33.142411250547795 -11.20765148911847 #
point $-1 48.414563432721948 -33.142411250547795 -11.20765148911847 #
straight-curve $-1 -48.414563432721948 0 11.20765148911847 0 -1 0 I I #
point $-1 -48.414563432721948 33.142411250547795 11.20765148911847 #
point $-1 -48.414563432721948 -33.142411250547795 11.20765148911847 #
straight-curve $-1 48.414563432721948 -33.142411250547795 0 0 0 -1 I I #
straight-curve $-1 48.414563432721948 33.142411250547795 0 0 0 -1 I I #
plane-surface $-1 0 33.142411250547795 0 0 -1 0 0 0 -1 forward_v I I I I #
coedge $-1 $432 $431 $325 $424 forward $320 $-1 #
straight-curve $-1 -37.014342962971327 -33.142411250547795 -4.2691287999238714 0 0 1 I I #
edge $-1 $427 -33.142411250547795 $425 33.142411250547795 $422 $473 forward 7 unknown #
vertex $-1 $326 $474 #
straight-curve $-1 -21.357226598923319 -33.142411250547795 -10.707651489118469 1 0 0 I I #
vertex $-1 $328 $475 #
straight-curve $-1 -21.357226598923319 33.142411250547795 -10.707651489118469 -1 0 0 I I #
point $-1 -37.014342962971327 33.142411250547795 -10.707651489118469 #
point $-1 -37.014342962971327 -33.142411250547795 -10.707651489118469 #
coedge $-1 $422 $332 $335 $434 forward $320 $-1 #
coedge $-1 $332 $422 $339 $436 reversed $320 $-1 #
straight-curve $-1 -48.414563432721948 0 -6.3688637105770161 0 1 0 I I #
edge $-1 $337 6.3688637105770161 $427 10.707651489118469 $335 $476 forward 7 unknown #
point $-1 -48.414563432721948 33.142411250547795 -6.3688637105770161 #
edge $-1 $340 6.3688637105770161 $425 10.707651489118469 $432 $477 forward 7 unknown #
point $-1 -48.414563432721948 -33.142411250547795 -6.3688637105770161 #
straight-curve $-1 -37.014342962971327 33.142411250547795 -4.2691287999238714 0 0 -1 I I #
edge $-1 $440 22.596999363255726 $443 27.636025643876366 $346 $478 forward 7 unknown #
vertex $-1 $439 $479 #
straight-curve $-1 10.518319415274664 -33.142411250547795 30.593379144903036 0 0 1 I I #
edge $-1 $443 -10.274754495117872 $357 9.7876246548042865 $356 $480 forward 7 unknown #
vertex $-1 $442 $481 #
straight-curve $-1 10.518319415274664 -33.142411250547809 4.2720266166239185 0 -0.5877852410284794 -0.80901700255871778 I I #
point $-1 10.518319415274664 -33.142411250547795 4.272026616623938 #
point $-1 -9.5440597346474938 -28.103384969927156 11.20765148911847 #
straight-curve $-1 0 -33.142411250547795 11.20765148911847 1 0 0 I I #
vertex $-1 $363 $482 #
point $-1 -4.0315839046630586 -29.229715871906802 6.7276329370987948 #
vertex $-1 $367 $483 #
point $-1 1.9871298403135853 -29.229715871906802 6.7276329370987948 #
vertex $-1 $371 $484 #
point $-1 8.0058435852902363 -29.229715871906802 6.7276329370987948 #
edge $-1 $455 48.423389897504322 $458 57.591339672218304 $376 $485 forward 7 unknown #
vertex $-1 $390 $486 #
straight-curve $-1 33.414564978631283 19.239111284298872 11.207651489118469 0 1 0 I I #
edge $-1 $458 -21.624065803289398 $387 -1.9569325473943735 $386 $487 forward 7 unknown #
vertex $-1 $457 $488 #
straight-curve $-1 33.414564978631283 -19.795001395451841 41.930904207547087 0 -0.79863550430605224 0.6018150307709319 I I #
point $-1 33.414564978631283 20.976131218621894 11.207651489118469 #
point $-1 13.747431722736259 33.142411250547795 2.0397017144044867 #
straight-curve $-1 0 33.142411250547795 11.20765148911847 -1 0 0 I I #
vertex $-1 $393 $489 #
point $-1 18.680858373915271 25.409739341411861 4.4346738882773238 #
vertex $-1 $397 $490 #
point $-1 24.580998350683771 25.409739341411861 4.4346738882773238 #
vertex $-1 $401 $491 #
point $-1 30.481138327452285 25.409739341411861 4.4346738882773238 #
straight-curve $-1 -48.414563432721948 33.142411250547795 0 0 0 -1 I I #
point $-1 -48.414563432721948 -33.142411250547795 -11.20765148911847 #
straight-curve $-1 -48.414563432721948 0 -11.20765148911847 0 1 0 I I #
point $-1 -48.414563432721948 33.142411250547795 -11.20765148911847 #
straight-curve $-1 -48.414563432721948 0 -10.707651489118469 0 -1 0 I I #
point $-1 -48.414563432721948 -33.142411250547795 -10.707651489118469 #
point $-1 -48.414563432721948 33.142411250547795 -10.707651489118469 #
straight-curve $-1 -48.414563432721948 33.142411250547795 0 0 0 -1 I I #
straight-curve $-1 -48.414563432721948 -33.142411250547795 0 0 0 -1 I I #
straight-curve $-1 10.518319415274664 -55.739410613803521 11.207651489118469 0 1 0 I I #
point $-1 10.518319415274664 -33.142411250547795 11.20765148911847 #
straight-curve $-1 0.24356492015679265 -28.103384969927152 11.20765148911847 -1 0 0 I I #
point $-1 10.518319415274664 -28.103384969927156 11.20765148911847 #
point $-1 -5.5315839046630586 -28.016190368068724 5.8459550755560752 #
point $-1 0.48712984031358531 -28.016190368068724 5.8459550755560752 #
point $-1 6.5058435852902363 -28.016190368068724 5.8459550755560752 #
straight-curve $-1 33.414564978631283 33.142411250547795 59.63104138662279 0 0 -1 I I #
point $-1 33.414564978631283 33.142411250547795 11.20765148911847 #
straight-curve $-1 11.790499175341886 33.142411250547788 2.0397017144044867 -1 0 0 I I #
point $-1 33.414564978631283 33.142411250547795 2.0397017144044867 #
point $-1 17.680858373915271 24.807924310640932 3.6360383839712718 #
point $-1 23.580998350683771 24.807924310640932 3.6360383839712718 #
point $-1 29.481138327452285 24.807924310640932 3.6360383839712718 #
End-of-ACIS-data 