500 0 6 0           
7 Unknown 11 ACIS 5.0 NT 24 Fri Mar 26 19:47:56 1999 
-1 9.9999999999999995e-007 1e-010 
body $-1 $6 $-1 $7 #
body $-1 $8 $-1 $9 #
body $-1 $10 $-1 $11 #
body $-1 $12 $-1 $13 #
body $-1 $14 $-1 $15 #
body $-1 $16 $-1 $17 #
lump $-1 $-1 $18 $0 #
transform $-1 1 0 0 0 1 0 0 0 1 43.303323465681935 28.989319830271487 6.2724228563084452 1 rotate no_reflect no_shear #
lump $-1 $-1 $19 $1 #
transform $-1 1 0 0 0 1 0 0 0 1 43.303323465681935 28.989319830271487 6.2724228563084452 1 rotate no_reflect no_shear #
lump $-1 $-1 $20 $2 #
transform $-1 1 0 0 0 1 0 0 0 1 43.303323465681935 28.989319830271487 6.2724228563084452 1 rotate no_reflect no_shear #
lump $-1 $-1 $21 $3 #
transform $-1 1 0 0 0 1 0 0 0 1 43.303323465681935 28.989319830271487 6.2724228563084452 1 rotate no_reflect no_shear #
lump $-1 $-1 $22 $4 #
transform $-1 1 0 0 0 1 0 0 0 1 43.303323465681935 28.989319830271487 6.2724228563084452 1 rotate no_reflect no_shear #
lump $-1 $-1 $23 $5 #
transform $-1 1 0 0 0 1 0 0 0 1 43.303323465681935 28.989319830271487 6.2724228563084452 1 rotate no_reflect no_shear #
shell $-1 $-1 $-1 $24 $-1 $6 #
shell $-1 $-1 $-1 $25 $-1 $8 #
shell $-1 $-1 $-1 $26 $-1 $10 #
shell $-1 $-1 $-1 $27 $-1 $12 #
shell $-1 $-1 $-1 $28 $-1 $14 #
shell $-1 $-1 $-1 $29 $-1 $16 #
face $-1 $30 $31 $18 $-1 $32 forward single #
face $-1 $33 $34 $19 $-1 $35 reversed single #
face $-1 $36 $37 $20 $-1 $38 reversed single #
face $-1 $39 $40 $21 $-1 $41 forward single #
face $-1 $42 $43 $22 $-1 $44 reversed single #
face $-1 $45 $46 $23 $-1 $47 forward single #
face $-1 $48 $49 $18 $-1 $50 reversed single #
loop $-1 $-1 $51 $24 #
plane-surface $-1 0 0 6.2724228563084452 0 0 1 1 0 0 forward_v I I I I #
face $-1 $52 $53 $19 $-1 $54 reversed single #
loop $-1 $-1 $55 $25 #
plane-surface $-1 -41.803323465681935 -22.576655193116803 0 0 -1 0 0 0 -1 forward_v I I I I #
face $-1 $56 $57 $20 $-1 $58 reversed single #
loop $-1 $-1 $59 $26 #
plane-surface $-1 -111.55029329630452 -16.368861351369166 56.086359892093355 0 -1 0 0.78801076186113728 0 -0.61566146476048833 forward_v I I I I #
face $-1 $60 $61 $21 $-1 $62 forward single #
loop $-1 $63 $64 $27 #
cone-surface $-1 -41.455941228259107 -19.472758272242984 4.146048187962867 0.78801076186113728 0 -0.61566146476048833 0.30783073238024417 0 0.39400538093056864 1 I I 0 1 0.5 forward I I I I #
face $-1 $65 $66 $22 $-1 $67 reversed single #
loop $-1 $-1 $68 $28 #
plane-surface $-1 58.22991818854657 -16.368861351369166 124.33332972271592 0 -1 0 -0.78801076186113728 0 -0.61566146476048833 forward_v I I I I #
face $-1 $69 $70 $23 $-1 $71 forward single #
loop $-1 $72 $73 $29 #
cone-surface $-1 41.455941228259114 -19.472758272242984 4.1460481879628777 -0.78801076186113728 0 -0.61566146476048833 0.30783073238024417 0 -0.39400538093056864 1 I I 0 1 0.5 forward I I I I #
face $-1 $74 $75 $18 $-1 $76 reversed single #
loop $-1 $-1 $77 $30 #
plane-surface $-1 0 0 -6.2724228563084452 0 0 1 1 0 0 forward_v I I I I #
coedge $-1 $78 $79 $80 $81 forward $31 $-1 #
face $-1 $82 $83 $19 $-1 $84 forward single #
loop $-1 $-1 $85 $33 #
plane-surface $-1 -40.303323465681935 -25.782987511694145 0 -1 0 0 0 0 1 forward_v I I I I #
coedge $-1 $86 $87 $88 $89 reversed $34 $-1 #
face $-1 $90 $91 $20 $-1 $92 reversed single #
loop $-1 $-1 $93 $36 #
plane-surface $-1 -43.303323465681942 -19.472758272242984 2.7659847843354228 -0.78801076186113728 0 0.61566146476048833 0.61566146476048833 0 0.78801076186113728 forward_v I I I I #
coedge $-1 $94 $95 $96 $97 reversed $37 $-1 #
face $-1 $-1 $98 $21 $-1 $99 forward single #
loop $-1 $100 $101 $39 #
cone-surface $-1 -40.781321095450835 -19.472758272242984 3.6189771894136804 0.78801076186113728 0 -0.61566146476048833 0.15391536619012208 0 0.19700269046528432 1 I I -0.70710678118654746 0.70710678118654746 0.25 forward I I I I #
loop $-1 $-1 $102 $27 #
coedge $-1 $64 $64 $103 $104 reversed $40 $-1 #
face $-1 $105 $106 $22 $-1 $107 reversed single #
loop $-1 $-1 $108 $42 #
plane-surface $-1 -10.017051642076005 -19.472758272242984 71.012954614957977 0.78801076186113728 0 0.61566146476048833 0.61566146476048833 0 -0.78801076186113728 forward_v I I I I #
coedge $-1 $109 $110 $111 $112 reversed $43 $-1 #
face $-1 $-1 $113 $23 $-1 $114 forward single #
loop $-1 $115 $116 $45 #
cone-surface $-1 40.781321095450842 -19.472758272242984 3.6189771894136911 -0.78801076186113728 0 -0.61566146476048833 0.15391536619012208 0 -0.19700269046528432 1 I I -0.70710678118654746 0.70710678118654746 0.25 forward I I I I #
loop $-1 $-1 $117 $29 #
coedge $-1 $73 $73 $118 $119 reversed $46 $-1 #
face $-1 $120 $121 $18 $-1 $122 reversed single #
loop $-1 $-1 $123 $48 #
plane-surface $-1 0 -28.989319830271487 0 0 1 0 0 0 1 forward_v I I I I #
coedge $-1 $124 $125 $126 $127 forward $49 $-1 #
coedge $-1 $128 $51 $129 $130 forward $31 $-1 #
coedge $-1 $51 $128 $131 $132 forward $31 $-1 #
coedge $-1 $133 $134 $51 $81 reversed $135 $-1 #
edge $-1 $136 -28.989319830271487 $137 28.989319830271487 $80 $138 forward 7 unknown #
face $-1 $139 $140 $19 $-1 $141 reversed single #
loop $-1 $-1 $142 $52 #
plane-surface $-1 0 0 6.2724228563084452 0 0 1 1 0 0 forward_v I I I I #
coedge $-1 $143 $144 $145 $146 reversed $53 $-1 #
coedge $-1 $147 $55 $148 $149 forward $34 $-1 #
coedge $-1 $55 $147 $150 $151 reversed $34 $-1 #
coedge $-1 $152 $142 $55 $89 forward $83 $-1 #
edge $-1 $153 19.401661732840967 $154 22.401661732840967 $88 $155 forward 7 unknown #
face $-1 $156 $157 $20 $-1 $158 forward single #
loop $-1 $-1 $96 $56 #
plane-surface $-1 -43.303323465681935 0 0 1 0 0 0 0 -1 forward_v I I I I #
coedge $-1 $159 $160 $161 $162 reversed $57 $-1 #
coedge $-1 $95 $59 $163 $164 reversed $37 $-1 #
coedge $-1 $59 $94 $159 $165 reversed $37 $-1 #
coedge $-1 $161 $166 $59 $97 forward $91 $-1 #
edge $-1 $167 21.770757089738233 $168 25.277195161711248 $96 $169 forward 7 unknown #
loop $-1 $-1 $103 $60 #
plane-surface $-1 -43.303323465681942 -19.472758272242984 2.7659847843354228 -0.78801076186113728 0 0.61566146476048833 0.61566146476048833 0 0.78801076186113728 forward_v I I I I #
loop $-1 $-1 $170 $39 #
coedge $-1 $101 $101 $102 $171 reversed $61 $-1 #
coedge $-1 $102 $102 $101 $171 forward $63 $-1 #
coedge $-1 $103 $103 $64 $104 forward $98 $-1 #
edge $-1 $172 0 $172 6.2831853071796004 $103 $173 forward 7 unknown #
face $-1 $174 $175 $22 $-1 $176 reversed single #
loop $-1 $-1 $177 $65 #
plane-surface $-1 58.22991818854657 -22.576655193116803 124.33332972271592 0 1 0 0.78801076186113728 0 0.61566146476048833 forward_v I I I I #
coedge $-1 $178 $179 $180 $181 reversed $66 $-1 #
coedge $-1 $110 $68 $182 $183 reversed $43 $-1 #
coedge $-1 $68 $109 $178 $184 reversed $43 $-1 #
coedge $-1 $180 $185 $68 $112 forward $186 $-1 #
edge $-1 $187 -14.18836437140865 $188 -11.448834781248951 $111 $189 forward 7 unknown #
loop $-1 $-1 $118 $69 #
plane-surface $-1 -10.017051642076005 -19.472758272242984 71.012954614957977 0.78801076186113728 0 0.61566146476048833 0.61566146476048833 0 -0.78801076186113728 forward_v I I I I #
loop $-1 $-1 $190 $45 #
coedge $-1 $116 $116 $117 $191 reversed $70 $-1 #
coedge $-1 $117 $117 $116 $191 forward $72 $-1 #
coedge $-1 $118 $118 $73 $119 forward $113 $-1 #
edge $-1 $192 0 $192 6.2831853071796004 $118 $193 forward 7 unknown #
face $-1 $194 $195 $18 $-1 $196 reversed single #
loop $-1 $-1 $197 $74 #
plane-surface $-1 -43.303323465681935 0 0 1 0 0 0 0 -1 forward_v I I I I #
coedge $-1 $198 $131 $199 $200 forward $75 $-1 #
coedge $-1 $201 $77 $198 $202 forward $49 $-1 #
coedge $-1 $77 $201 $203 $204 forward $49 $-1 #
coedge $-1 $134 $133 $77 $127 reversed $135 $-1 #
edge $-1 $205 -28.989319830271487 $206 28.989319830271487 $126 $207 forward 7 unknown #
coedge $-1 $79 $78 $208 $209 forward $31 $-1 #
coedge $-1 $210 $211 $78 $130 reversed $195 $-1 #
edge $-1 $137 -43.303323465681935 $212 43.303323465681935 $129 $213 forward 7 unknown #
coedge $-1 $123 $214 $79 $132 reversed $75 $-1 #
edge $-1 $215 -43.303323465681935 $136 43.303323465681935 $131 $216 forward 7 unknown #
coedge $-1 $126 $80 $214 $217 forward $135 $-1 #
coedge $-1 $80 $126 $210 $218 reversed $135 $-1 #
loop $-1 $-1 $133 $194 #
vertex $-1 $81 $219 #
vertex $-1 $81 $220 #
straight-curve $-1 43.303323465681935 0 6.2724228563084452 0 1 0 I I #
face $-1 $221 $222 $19 $-1 $223 reversed single #
loop $-1 $-1 $150 $82 #
plane-surface $-1 -43.303323465681935 0 0 1 0 0 0 0 -1 forward_v I I I I #
coedge $-1 $88 $224 $144 $225 forward $83 $-1 #
coedge $-1 $148 $85 $226 $227 reversed $53 $-1 #
coedge $-1 $85 $148 $142 $225 reversed $53 $-1 #
coedge $-1 $228 $229 $85 $146 forward $230 $-1 #
edge $-1 $231 -6.2724228563084452 $232 6.2724228563084452 $145 $233 forward 7 unknown #
coedge $-1 $87 $86 $234 $235 reversed $34 $-1 #
coedge $-1 $144 $143 $86 $149 reversed $53 $-1 #
edge $-1 $153 -6.2724228563084452 $236 6.2724228563084452 $148 $237 forward 7 unknown #
coedge $-1 $238 $239 $87 $151 forward $140 $-1 #
edge $-1 $154 -6.2724228563084452 $240 6.2724228563084452 $150 $241 forward 7 unknown #
coedge $-1 $224 $88 $239 $242 forward $83 $-1 #
vertex $-1 $89 $243 #
vertex $-1 $242 $244 #
straight-curve $-1 -20.901661732840967 -22.576655193116803 6.2724228563084452 -1 0 0 I I #
face $-1 $-1 $245 $20 $-1 $246 forward single #
loop $-1 $-1 $247 $90 #
plane-surface $-1 -41.803323465681935 -22.576655193116803 0 0 -1 0 0 0 -1 forward_v I I I I #
coedge $-1 $248 $93 $95 $165 forward $57 $-1 #
coedge $-1 $93 $248 $247 $249 reversed $57 $-1 #
coedge $-1 $250 $96 $93 $162 forward $91 $-1 #
edge $-1 $168 6.6324822152476735 $251 12.840276056995311 $161 $252 forward 7 unknown #
coedge $-1 $253 $254 $94 $164 forward $245 $-1 #
edge $-1 $255 -15.211352772629994 $167 -12.471823182470324 $163 $256 forward 7 unknown #
edge $-1 $168 1.1373479346495045e-014 $255 4.4497337367467651 $95 $257 forward 7 unknown #
coedge $-1 $96 $250 $253 $258 reversed $91 $-1 #
vertex $-1 $258 $259 #
vertex $-1 $97 $260 #
straight-curve $-1 -43.303323465681935 -16.368861351369166 28.043179946046678 0 0 -1 I I #
coedge $-1 $170 $170 $-1 $261 reversed $100 $-1 #
edge $-1 $262 0 $262 6.2831853071796004 $101 $263 forward 7 unknown #
vertex $-1 $104 $264 #
ellipse-curve $-1 -41.933558670602103 -19.472758272242984 4.5192038203219385 -0.78801076186113728 0 0.61566146476048833 0.30783073238024417 0 0.39400538093056864 1 I I #
face $-1 $-1 $186 $22 $-1 $265 forward single #
loop $-1 $-1 $266 $105 #
plane-surface $-1 43.303323465681935 0 0 -1 0 0 0 0 1 forward_v I I I I #
coedge $-1 $267 $268 $269 $270 reversed $106 $-1 #
coedge $-1 $271 $108 $110 $184 forward $66 $-1 #
coedge $-1 $108 $271 $267 $272 forward $66 $-1 #
coedge $-1 $269 $111 $108 $181 forward $186 $-1 #
edge $-1 $188 6.6324822152476735 $273 12.840276056995311 $180 $274 forward 7 unknown #
coedge $-1 $275 $276 $109 $183 forward $175 $-1 #
edge $-1 $277 -59.400680077022557 $187 -55.894242005049513 $182 $278 forward 7 unknown #
edge $-1 $188 82.156913194617076 $277 86.606646931363883 $110 $279 forward 7 unknown #
coedge $-1 $111 $269 $275 $280 forward $186 $-1 #
loop $-1 $-1 $269 $174 #
vertex $-1 $183 $281 #
vertex $-1 $112 $282 #
straight-curve $-1 29.114959094273285 -16.368861351369166 6.2724228563084452 -1 0 0 I I #
coedge $-1 $190 $190 $-1 $283 reversed $115 $-1 #
edge $-1 $284 0 $284 6.2831853071796004 $116 $285 forward 7 unknown #
vertex $-1 $119 $286 #
ellipse-curve $-1 41.933558670602089 -19.472758272242984 4.5192038203219322 0.78801076186113728 0 0.61566146476048833 0.30783073238024417 0 -0.39400538093056864 1 I I #
face $-1 $-1 $135 $18 $-1 $287 reversed single #
loop $-1 $-1 $210 $120 #
plane-surface $-1 0 28.989319830271487 0 0 -1 0 0 0 -1 forward_v I I I I #
coedge $-1 $288 $208 $211 $289 forward $121 $-1 #
coedge $-1 $214 $123 $124 $202 reversed $75 $-1 #
coedge $-1 $208 $288 $123 $200 reversed $121 $-1 #
edge $-1 $215 -6.2724228563084452 $290 6.2724228563084452 $199 $291 forward 7 unknown #
coedge $-1 $125 $124 $288 $292 forward $49 $-1 #
edge $-1 $206 -43.303323465681935 $290 43.303323465681935 $198 $293 forward 7 unknown #
coedge $-1 $211 $210 $125 $204 reversed $195 $-1 #
edge $-1 $294 -43.303323465681935 $205 43.303323465681935 $203 $295 forward 7 unknown #
vertex $-1 $127 $296 #
vertex $-1 $217 $297 #
straight-curve $-1 43.303323465681935 0 -6.2724228563084452 0 -1 0 I I #
coedge $-1 $197 $199 $128 $209 reversed $121 $-1 #
edge $-1 $212 -28.989319830271487 $215 28.989319830271487 $208 $298 forward 7 unknown #
coedge $-1 $203 $129 $134 $218 forward $195 $-1 #
coedge $-1 $129 $203 $197 $289 reversed $195 $-1 #
vertex $-1 $130 $299 #
straight-curve $-1 0 28.989319830271487 6.2724228563084452 -1 0 0 I I #
coedge $-1 $131 $198 $133 $217 reversed $75 $-1 #
vertex $-1 $209 $300 #
straight-curve $-1 0 -28.989319830271487 6.2724228563084452 1 0 0 I I #
edge $-1 $136 -6.2724228563084452 $206 6.2724228563084452 $133 $301 forward 7 unknown #
edge $-1 $137 -6.2724228563084452 $205 6.2724228563084452 $134 $302 forward 7 unknown #
point $-1 43.303323465681935 -28.989319830271487 6.2724228563084452 #
point $-1 43.303323465681935 28.989319830271487 6.2724228563084452 #
face $-1 $-1 $230 $19 $-1 $303 reversed single #
loop $-1 $-1 $226 $139 #
plane-surface $-1 0 0 -6.2724228563084452 0 0 1 1 0 0 forward_v I I I I #
coedge $-1 $142 $152 $228 $304 forward $83 $-1 #
edge $-1 $232 -16.097826074424415 $153 -9.6851614372697306 $142 $305 forward 7 unknown #
coedge $-1 $306 $234 $143 $227 forward $222 $-1 #
edge $-1 $236 9.6851614372697306 $231 16.097826074424415 $226 $307 forward 7 unknown #
coedge $-1 $308 $145 $224 $304 reversed $230 $-1 #
coedge $-1 $145 $308 $306 $309 reversed $230 $-1 #
loop $-1 $-1 $145 $221 #
vertex $-1 $309 $310 #
vertex $-1 $146 $311 #
straight-curve $-1 -40.303323465681935 -28.989319830271487 0 0 0 1 I I #
coedge $-1 $226 $312 $147 $235 forward $222 $-1 #
edge $-1 $240 -22.401661732840967 $236 -19.401661732840967 $234 $313 forward 7 unknown #
vertex $-1 $235 $314 #
straight-curve $-1 -40.303323465681935 -22.576655193116803 0 0 0 -1 I I #
coedge $-1 $315 $150 $312 $316 reversed $140 $-1 #
coedge $-1 $150 $315 $152 $242 reversed $140 $-1 #
vertex $-1 $235 $317 #
straight-curve $-1 -43.303323465681935 -22.576655193116803 0 0 0 -1 I I #
edge $-1 $154 22.576655193116803 $318 28.989319830271487 $239 $319 forward 7 unknown #
point $-1 -40.303323465681935 -22.576655193116803 6.2724228563084452 #
point $-1 -43.303323465681935 -22.576655193116803 6.2724228563084452 #
loop $-1 $-1 $163 $156 #
plane-surface $-1 0 0 6.2724228563084452 0 0 1 1 0 0 forward_v I I I I #
coedge $-1 $320 $321 $160 $249 forward $157 $-1 #
coedge $-1 $160 $159 $254 $322 reversed $57 $-1 #
edge $-1 $251 0.62806679002988008 $323 5.0778005267766293 $247 $324 forward 7 unknown #
coedge $-1 $166 $161 $321 $325 forward $91 $-1 #
vertex $-1 $325 $326 #
straight-curve $-1 -43.303323465681935 -9.7363791361214922 2.7659847843354388 0 -1 0 I I #
coedge $-1 $327 $163 $166 $258 forward $245 $-1 #
coedge $-1 $163 $327 $248 $322 forward $245 $-1 #
vertex $-1 $164 $328 #
straight-curve $-1 -55.775146648152258 -16.368861351369166 6.2724228563084452 -1 0 0 I I #
straight-curve $-1 -43.303323465681942 -16.368861351369166 2.7659847843354228 0.61566146476048833 0 0.78801076186113728 I I #
edge $-1 $167 16.368861351369166 $329 22.576655193116803 $166 $330 forward 7 unknown #
point $-1 -43.303323465681935 -16.368861351369166 6.2724228563084452 #
point $-1 -43.303323465681935 -16.368861351369166 2.7659847843354317 #
edge $-1 $331 1 $331 0 $170 $-1 forward 7 unknown #
vertex $-1 $171 $332 #
ellipse-curve $-1 -40.978323785916118 -19.472758272242984 3.7728925556038027 -0.78801076186113728 0 0.61566146476048833 0.30783073238024417 0 0.39400538093056864 1 I I #
point $-1 -41.62572793822185 -19.472758272242984 4.913209201252501 #
plane-surface $-1 0 0 6.2724228563084452 0 0 1 1 0 0 forward_v I I I I #
coedge $-1 $276 $275 $268 $333 forward $175 $-1 #
coedge $-1 $268 $177 $179 $272 reversed $106 $-1 #
coedge $-1 $177 $267 $266 $333 reversed $106 $-1 #
coedge $-1 $185 $180 $177 $270 forward $186 $-1 #
edge $-1 $273 11.448834781248951 $334 14.18836437140865 $269 $335 forward 7 unknown #
coedge $-1 $179 $178 $276 $336 reversed $66 $-1 #
edge $-1 $337 -86.606646931363883 $273 -82.156913194617076 $267 $338 forward 7 unknown #
vertex $-1 $181 $339 #
straight-curve $-1 40.563793875522236 -9.7363791361214922 6.2724228563084523 0 -1 0 I I #
coedge $-1 $266 $182 $185 $280 reversed $175 $-1 #
coedge $-1 $182 $266 $271 $336 forward $175 $-1 #
vertex $-1 $183 $340 #
straight-curve $-1 43.303323465681935 -16.368861351369166 62.166664861357958 0 0 1 I I #
straight-curve $-1 -10.017051642076005 -16.368861351369166 71.012954614957977 0.61566146476048833 0 -0.78801076186113728 I I #
edge $-1 $334 -22.576655193116803 $187 -16.368861351369166 $275 $341 forward 7 unknown #
point $-1 43.303323465681935 -16.368861351369166 6.2724228563084452 #
point $-1 40.563793875522236 -16.368861351369166 6.2724228563084523 #
edge $-1 $342 1 $342 0 $190 $-1 forward 7 unknown #
vertex $-1 $191 $343 #
ellipse-curve $-1 40.978323785916125 -19.472758272242984 3.7728925556038133 0.78801076186113728 0 0.61566146476048833 0.30783073238024417 0 -0.39400538093056864 1 I I #
point $-1 42.241389402982342 -19.472758272242984 4.125198439391375 #
plane-surface $-1 43.303323465681935 0 0 -1 0 0 0 0 1 forward_v I I I I #
coedge $-1 $199 $197 $201 $292 reversed $121 $-1 #
edge $-1 $212 -6.2724228563084452 $294 6.2724228563084452 $211 $344 forward 7 unknown #
vertex $-1 $292 $345 #
straight-curve $-1 -43.303323465681935 -28.989319830271487 0 0 0 -1 I I #
edge $-1 $290 -28.989319830271487 $294 28.989319830271487 $288 $346 forward 7 unknown #
straight-curve $-1 0 -28.989319830271487 -6.2724228563084452 -1 0 0 I I #
vertex $-1 $204 $347 #
straight-curve $-1 0 28.989319830271487 -6.2724228563084452 1 0 0 I I #
point $-1 43.303323465681935 28.989319830271487 -6.2724228563084452 #
point $-1 43.303323465681935 -28.989319830271487 -6.2724228563084452 #
straight-curve $-1 -43.303323465681935 0 6.2724228563084452 0 -1 0 I I #
point $-1 -43.303323465681935 28.989319830271487 6.2724228563084452 #
point $-1 -43.303323465681935 -28.989319830271487 6.2724228563084452 #
straight-curve $-1 43.303323465681935 -28.989319830271487 0 0 0 -1 I I #
straight-curve $-1 43.303323465681935 28.989319830271487 0 0 0 -1 I I #
plane-surface $-1 0 -28.989319830271487 0 0 1 0 0 0 1 forward_v I I I I #
edge $-1 $318 -43.303323465681935 $232 -40.303323465681935 $228 $348 forward 7 unknown #
straight-curve $-1 -40.303323465681935 -12.891493755847073 6.2724228563084452 0 1 0 I I #
coedge $-1 $312 $226 $229 $309 forward $222 $-1 #
straight-curve $-1 -40.303323465681935 -12.891493755847073 -6.2724228563084452 0 -1 0 I I #
coedge $-1 $229 $228 $315 $349 forward $230 $-1 #
edge $-1 $231 40.303323465681935 $350 43.303323465681935 $229 $351 forward 7 unknown #
point $-1 -40.303323465681935 -28.989319830271487 -6.2724228563084452 #
point $-1 -40.303323465681935 -28.989319830271487 6.2724228563084452 #
coedge $-1 $234 $306 $238 $316 forward $222 $-1 #
straight-curve $-1 -20.901661732840967 -22.576655193116803 -6.2724228563084452 1 0 0 I I #
point $-1 -40.303323465681935 -22.576655193116803 -6.2724228563084452 #
coedge $-1 $239 $238 $308 $349 reversed $140 $-1 #
edge $-1 $350 -28.989319830271487 $240 -22.576655193116803 $238 $352 forward 7 unknown #
point $-1 -43.303323465681935 -22.576655193116803 -6.2724228563084452 #
vertex $-1 $242 $353 #
straight-curve $-1 -43.303323465681935 0 6.2724228563084452 0 -1 0 I I #
coedge $-1 $321 $247 $327 $354 reversed $157 $-1 #
coedge $-1 $247 $320 $250 $325 reversed $157 $-1 #
edge $-1 $323 -12.840276056995311 $255 -6.6324822152476735 $254 $355 forward 7 unknown #
vertex $-1 $249 $356 #
straight-curve $-1 -43.689999985599151 -22.576655193116803 2.2710613946243088 0.61566146476048833 0 0.78801076186113728 I I #
edge $-1 $251 2.7659847843354317 $329 6.2724228563084452 $250 $357 forward 7 unknown #
point $-1 -43.303323465681935 -22.576655193116803 2.7659847843354317 #
coedge $-1 $254 $253 $320 $354 forward $245 $-1 #
point $-1 -40.563793875522265 -16.368861351369166 6.2724228563084452 #
vertex $-1 $325 $358 #
straight-curve $-1 -43.303323465681935 0 6.2724228563084452 0 -1 0 I I #
vertex $-1 $261 $359 #
point $-1 -40.670493053535878 -19.472758272242984 4.1668979365343715 #
edge $-1 $334 55.894242005049513 $337 59.400680077022557 $266 $360 forward 7 unknown #
vertex $-1 $280 $361 #
straight-curve $-1 29.114959094273285 -22.576655193116803 6.2724228563084452 1 0 0 I I #
edge $-1 $337 -12.840276056995311 $277 -6.6324822152476735 $276 $362 forward 7 unknown #
vertex $-1 $336 $363 #
straight-curve $-1 -10.017051642076005 -22.576655193116803 71.012954614957977 -0.61566146476048833 0 0.78801076186113728 I I #
point $-1 40.563793875522236 -22.576655193116803 6.2724228563084523 #
point $-1 43.303323465681935 -16.368861351369166 2.7659847843354015 #
straight-curve $-1 43.303323465681935 0 6.2724228563084452 0 1 0 I I #
vertex $-1 $283 $364 #
point $-1 41.286154518296371 -19.472758272242984 3.3788871746732445 #
straight-curve $-1 -43.303323465681935 28.989319830271487 0 0 0 -1 I I #
point $-1 -43.303323465681935 -28.989319830271487 -6.2724228563084452 #
straight-curve $-1 -43.303323465681935 0 -6.2724228563084452 0 1 0 I I #
point $-1 -43.303323465681935 28.989319830271487 -6.2724228563084452 #
straight-curve $-1 0 -28.989319830271487 6.2724228563084452 1 0 0 I I #
edge $-1 $318 -6.2724228563084452 $350 6.2724228563084452 $315 $365 forward 7 unknown #
vertex $-1 $316 $366 #
straight-curve $-1 0 -28.989319830271487 -6.2724228563084452 -1 0 0 I I #
straight-curve $-1 -43.303323465681935 0 -6.2724228563084452 0 1 0 I I #
point $-1 -43.303323465681935 -28.989319830271487 6.2724228563084452 #
edge $-1 $329 -22.401661732840967 $323 -19.662132142681305 $327 $367 forward 7 unknown #
straight-curve $-1 -40.563793875522265 -9.7363791361214922 6.2724228563084452 0 1 0 I I #
point $-1 -40.563793875522272 -22.576655193116803 6.2724228563084452 #
straight-curve $-1 -43.303323465681935 -22.576655193116803 0 0 0 1 I I #
point $-1 -43.303323465681935 -22.576655193116803 6.2724228563084452 #
point $-1 -40.584318404985552 -19.472758272242984 3.4650618232235582 #
straight-curve $-1 43.303323465681935 -22.576655193116803 62.166664861357958 0 0 -1 I I #
point $-1 43.303323465681935 -22.576655193116803 6.2724228563084452 #
straight-curve $-1 43.303323465681942 -9.7363791361214922 2.7659847843353944 0 1 0 I I #
point $-1 43.303323465681935 -22.576655193116803 2.7659847843354015 #
point $-1 40.584318404985559 -19.472758272242984 3.4650618232235688 #
straight-curve $-1 -43.303323465681935 -28.989319830271487 0 0 0 -1 I I #
point $-1 -43.303323465681935 -28.989319830271487 -6.2724228563084452 #
straight-curve $-1 -20.901661732840967 -22.576655193116803 6.2724228563084452 1 0 0 I I #
End-of-ACIS-data 