500 0 12 0           
7 Unknown 11 ACIS 5.0 NT 24 Thu Mar 25 22:54:48 1999 
-1 9.9999999999999995e-007 1e-010 
body $-1 $12 $-1 $13 #
body $-1 $14 $-1 $15 #
body $-1 $16 $-1 $17 #
body $-1 $18 $-1 $19 #
body $-1 $20 $-1 $21 #
body $-1 $22 $-1 $23 #
body $-1 $24 $-1 $25 #
body $-1 $26 $-1 $27 #
body $-1 $28 $-1 $29 #
body $-1 $30 $-1 $31 #
body $-1 $32 $-1 $33 #
body $-1 $34 $-1 $35 #
lump $-1 $-1 $36 $0 #
transform $-1 1 0 0 0 1 0 0 0 1 77.270424512466803 46.170063185590188 15.9420365577589 1 rotate no_reflect no_shear #
lump $-1 $-1 $37 $1 #
transform $-1 1 0 0 0 1 0 0 0 1 77.270424512466803 46.170063185590188 15.9420365577589 1 rotate no_reflect no_shear #
lump $-1 $-1 $38 $2 #
transform $-1 1 0 0 0 1 0 0 0 1 77.270424512466803 46.170063185590188 15.9420365577589 1 rotate no_reflect no_shear #
lump $-1 $-1 $39 $3 #
transform $-1 1 0 0 0 1 0 0 0 1 77.270424512466803 46.170063185590188 15.9420365577589 1 rotate no_reflect no_shear #
lump $-1 $-1 $40 $4 #
transform $-1 1 0 0 0 1 0 0 0 1 77.270424512466803 46.170063185590188 15.9420365577589 1 rotate no_reflect no_shear #
lump $-1 $-1 $41 $5 #
transform $-1 1 0 0 0 1 0 0 0 1 77.270424512466803 46.170063185590188 15.9420365577589 1 rotate no_reflect no_shear #
lump $-1 $-1 $42 $6 #
transform $-1 1 0 0 0 1 0 0 0 1 77.270424512466803 46.170063185590188 15.9420365577589 1 rotate no_reflect no_shear #
lump $-1 $-1 $43 $7 #
transform $-1 1 0 0 0 1 0 0 0 1 77.270424512466803 46.170063185590188 15.9420365577589 1 rotate no_reflect no_shear #
lump $-1 $-1 $44 $8 #
transform $-1 1 0 0 0 1 0 0 0 1 77.270424512466803 46.170063185590188 15.9420365577589 1 rotate no_reflect no_shear #
lump $-1 $-1 $45 $9 #
transform $-1 1 0 0 0 1 0 0 0 1 77.270424512466803 46.170063185590188 15.9420365577589 1 rotate no_reflect no_shear #
lump $-1 $-1 $46 $10 #
transform $-1 1 0 0 0 1 0 0 0 1 77.270424512466803 46.170063185590188 15.9420365577589 1 rotate no_reflect no_shear #
lump $-1 $-1 $47 $11 #
transform $-1 1 0 0 0 1 0 0 0 1 77.270424512466803 46.170063185590188 15.9420365577589 1 rotate no_reflect no_shear #
shell $-1 $-1 $-1 $48 $-1 $12 #
shell $-1 $-1 $-1 $49 $-1 $14 #
shell $-1 $-1 $-1 $50 $-1 $16 #
shell $-1 $-1 $-1 $51 $-1 $18 #
shell $-1 $-1 $-1 $52 $-1 $20 #
shell $-1 $-1 $-1 $53 $-1 $22 #
shell $-1 $-1 $-1 $54 $-1 $24 #
shell $-1 $-1 $-1 $55 $-1 $26 #
shell $-1 $-1 $-1 $56 $-1 $28 #
shell $-1 $-1 $-1 $57 $-1 $30 #
shell $-1 $-1 $-1 $58 $-1 $32 #
shell $-1 $-1 $-1 $59 $-1 $34 #
face $-1 $60 $61 $36 $-1 $62 forward single #
face $-1 $63 $64 $37 $-1 $65 forward single #
face $-1 $66 $67 $38 $-1 $68 reversed single #
face $-1 $69 $70 $39 $-1 $71 forward single #
face $-1 $72 $73 $40 $-1 $74 forward single #
face $-1 $75 $76 $41 $-1 $77 reversed single #
face $-1 $78 $79 $42 $-1 $80 forward single #
face $-1 $81 $82 $43 $-1 $83 forward single #
face $-1 $84 $85 $44 $-1 $86 reversed single #
face $-1 $87 $88 $45 $-1 $89 forward single #
face $-1 $90 $91 $46 $-1 $92 reversed single #
face $-1 $93 $94 $47 $-1 $95 forward single #
face $-1 $96 $97 $36 $-1 $98 reversed single #
loop $-1 $-1 $99 $48 #
plane-surface $-1 0 0 15.9420365577589 0 0 1 1 0 0 forward_v I I I I #
face $-1 $100 $101 $37 $-1 $102 reversed single #
loop $-1 $-1 $103 $49 #
plane-surface $-1 -77.270424512466803 0 0 1 0 0 0 0 -1 forward_v I I I I #
face $-1 $104 $105 $38 $-1 $106 reversed single #
loop $-1 $-1 $107 $50 #
plane-surface $-1 -43.143360345680065 -149.57807644453217 115.48134559579755 -1 0 0 0 -0.66913061440640931 0.74314481823134659 forward_v I I I I #
face $-1 $108 $109 $39 $-1 $110 forward single #
loop $-1 $111 $112 $51 #
cone-surface $-1 -54.603361978056412 -36.912878965537189 7.4476699526507844 0 0.66913061440640931 -0.74314481823134659 1 0 0 1 I I 0 1 1 forward I I I I #
face $-1 $113 $114 $40 $-1 $115 forward single #
loop $-1 $116 $117 $52 #
cone-surface $-1 -47.727360998630601 -36.912878965537189 7.4476699526507844 0 0.66913061440640931 -0.74314481823134659 1 0 0 1 I I 0 1 1 forward I I I I #
face $-1 $118 $119 $41 $-1 $120 reversed single #
loop $-1 $-1 $121 $53 #
plane-surface $-1 71.46460391017726 -149.57807644453217 115.48134559579755 -1 0 0 0 -0.66913061440640931 0.74314481823134659 forward_v I I I I #
face $-1 $122 $123 $42 $-1 $124 forward single #
loop $-1 $125 $126 $54 #
cone-surface $-1 60.004602277800927 -36.912878965537189 7.4476699526507844 0 0.66913061440640931 -0.74314481823134659 1 0 0 1 I I 0 1 1 forward I I I I #
face $-1 $127 $128 $43 $-1 $129 forward single #
loop $-1 $130 $131 $55 #
cone-surface $-1 66.880603257226738 -36.912878965537189 7.4476699526507844 0 0.66913061440640931 -0.74314481823134659 1 0 0 1 I I 0 1 1 forward I I I I #
face $-1 $132 $133 $44 $-1 $134 reversed single #
loop $-1 $-1 $135 $56 #
plane-surface $-1 -25.268552782884075 84.033377505005859 176.90906109265933 1 0 0 0 -0.68199836817093118 -0.7313536940579346 forward_v I I I I #
face $-1 $136 $137 $45 $-1 $138 forward single #
loop $-1 $139 $140 $57 #
cone-surface $-1 -17.567292752382812 36.582529720385175 6.7879358523580624 0 -0.68199836817093118 -0.7313536940579346 3 0 0 1 I I 0 1 3 forward I I I I #
face $-1 $141 $142 $46 $-1 $143 reversed single #
loop $-1 $-1 $144 $58 #
plane-surface $-1 45.86325108999759 84.033377505005859 176.90906109265933 1 0 0 0 -0.68199836817093118 -0.7313536940579346 forward_v I I I I #
face $-1 $145 $146 $47 $-1 $147 forward single #
loop $-1 $148 $149 $59 #
cone-surface $-1 53.56451112049885 36.582529720385175 6.7879358523580624 0 -0.68199836817093118 -0.7313536940579346 3 0 0 1 I I 0 1 3 forward I I I I #
face $-1 $150 $151 $36 $-1 $152 reversed single #
loop $-1 $-1 $153 $60 #
plane-surface $-1 0 0 -15.9420365577589 0 0 1 1 0 0 forward_v I I I I #
coedge $-1 $154 $155 $156 $157 forward $61 $-1 #
face $-1 $158 $159 $37 $-1 $160 reversed single #
loop $-1 $-1 $161 $63 #
plane-surface $-1 0 0 -15.9420365577589 0 0 1 1 0 0 forward_v I I I I #
coedge $-1 $162 $163 $164 $165 forward $64 $-1 #
face $-1 $166 $167 $38 $-1 $168 reversed single #
loop $-1 $-1 $169 $66 #
plane-surface $-1 -51.165361488343514 -46.170063185590209 0.63511443784528865 0 -0.66913061440640931 0.74314481823134659 1 0 0 forward_v I I I I #
coedge $-1 $170 $171 $172 $173 reversed $67 $-1 #
face $-1 $-1 $174 $39 $-1 $175 forward single #
loop $-1 $176 $177 $69 #
cone-surface $-1 -54.603361978056412 -35.821158888118411 6.235191998383808 0 0.66913061440640931 -0.74314481823134659 0.5 0 0 1 I I -0.70710678118654746 0.70710678118654746 0.5 forward I I I I #
loop $-1 $-1 $178 $51 #
coedge $-1 $112 $112 $179 $180 reversed $70 $-1 #
face $-1 $-1 $181 $40 $-1 $182 forward single #
loop $-1 $183 $184 $72 #
cone-surface $-1 -47.727360998630601 -35.821158888118411 6.235191998383808 0 0.66913061440640931 -0.74314481823134659 0.5 0 0 1 I I -0.70710678118654746 0.70710678118654746 0.5 forward I I I I #
loop $-1 $-1 $185 $52 #
coedge $-1 $117 $117 $186 $187 reversed $73 $-1 #
face $-1 $188 $189 $41 $-1 $190 reversed single #
loop $-1 $-1 $191 $75 #
plane-surface $-1 63.442602767513819 -46.170063185590209 0.63511443784528865 0 -0.66913061440640931 0.74314481823134659 1 0 0 forward_v I I I I #
coedge $-1 $192 $193 $194 $195 reversed $76 $-1 #
face $-1 $-1 $196 $42 $-1 $197 forward single #
loop $-1 $198 $199 $78 #
cone-surface $-1 60.004602277800927 -35.821158888118411 6.235191998383808 0 0.66913061440640931 -0.74314481823134659 0.5 0 0 1 I I -0.70710678118654746 0.70710678118654746 0.5 forward I I I I #
loop $-1 $-1 $200 $54 #
coedge $-1 $126 $126 $201 $202 reversed $79 $-1 #
face $-1 $-1 $203 $43 $-1 $204 forward single #
loop $-1 $205 $206 $81 #
cone-surface $-1 66.880603257226738 -35.821158888118411 6.235191998383808 0 0.66913061440640931 -0.74314481823134659 0.5 0 0 1 I I -0.70710678118654746 0.70710678118654746 0.5 forward I I I I #
loop $-1 $-1 $207 $55 #
coedge $-1 $131 $131 $208 $209 reversed $82 $-1 #
face $-1 $210 $211 $44 $-1 $212 reversed single #
loop $-1 $-1 $213 $84 #
plane-surface $-1 -17.567292752382812 -21.363229345749104 63.885040275424572 0 0.68199836817093118 0.7313536940579346 1 0 0 forward_v I I I I #
coedge $-1 $214 $215 $216 $217 reversed $85 $-1 #
face $-1 $-1 $218 $45 $-1 $219 forward single #
loop $-1 $220 $221 $87 #
cone-surface $-1 -17.567292752382812 34.032357014279661 4.0532104979587764 0 -0.68199836817093118 -0.7313536940579346 1.5 0 0 1 I I -0.70710678118654757 0.70710678118654757 1.5 forward I I I I #
loop $-1 $-1 $222 $57 #
coedge $-1 $140 $140 $223 $224 reversed $88 $-1 #
face $-1 $225 $226 $46 $-1 $227 reversed single #
loop $-1 $-1 $228 $90 #
plane-surface $-1 53.56451112049885 -21.363229345749104 63.885040275424572 0 0.68199836817093118 0.7313536940579346 1 0 0 forward_v I I I I #
coedge $-1 $229 $230 $231 $232 reversed $91 $-1 #
face $-1 $-1 $233 $47 $-1 $234 forward single #
loop $-1 $235 $236 $93 #
cone-surface $-1 53.56451112049885 34.032357014279661 4.0532104979587764 0 -0.68199836817093118 -0.7313536940579346 1.5 0 0 1 I I -0.70710678118654757 0.70710678118654757 1.5 forward I I I I #
loop $-1 $-1 $237 $59 #
coedge $-1 $149 $149 $238 $239 reversed $94 $-1 #
face $-1 $240 $241 $36 $-1 $242 reversed single #
loop $-1 $-1 $243 $96 #
plane-surface $-1 0 -46.170063185590188 0 0 1 0 0 0 1 forward_v I I I I #
coedge $-1 $244 $245 $246 $247 forward $97 $-1 #
coedge $-1 $248 $99 $249 $250 forward $61 $-1 #
coedge $-1 $99 $248 $251 $252 forward $61 $-1 #
coedge $-1 $253 $254 $99 $157 reversed $255 $-1 #
edge $-1 $256 -46.170063185590188 $257 46.170063185590188 $156 $258 forward 7 unknown #
face $-1 $259 $260 $37 $-1 $261 reversed single #
loop $-1 $-1 $262 $100 #
plane-surface $-1 -83.409045152051959 -38.069324122620408 0 0 1 0 0 0 1 forward_v I I I I #
coedge $-1 $263 $264 $163 $265 forward $101 $-1 #
coedge $-1 $266 $103 $267 $268 reversed $64 $-1 #
coedge $-1 $103 $266 $161 $265 reversed $64 $-1 #
coedge $-1 $269 $270 $103 $165 reversed $271 $-1 #
edge $-1 $272 -15.9420365577589 $273 15.9420365577589 $164 $274 forward 7 unknown #
face $-1 $275 $276 $38 $-1 $277 forward single #
loop $-1 $-1 $278 $104 #
plane-surface $-1 -59.187362631006962 -149.57807644453217 115.48134559579755 1 0 0 0 0.66913061440640931 -0.74314481823134659 forward_v I I I I #
coedge $-1 $279 $280 $281 $282 reversed $105 $-1 #
coedge $-1 $171 $107 $283 $284 reversed $67 $-1 #
coedge $-1 $107 $170 $279 $285 reversed $67 $-1 #
coedge $-1 $281 $286 $107 $173 forward $276 $-1 #
edge $-1 $287 28.618975036675899 $288 45.619033936350732 $172 $289 forward 7 unknown #
loop $-1 $-1 $179 $108 #
plane-surface $-1 -51.165361488343514 -46.170063185590209 0.63511443784528865 0 -0.66913061440640931 0.74314481823134659 1 0 0 forward_v I I I I #
loop $-1 $-1 $290 $69 #
coedge $-1 $177 $177 $178 $291 reversed $109 $-1 #
coedge $-1 $178 $178 $177 $291 forward $111 $-1 #
coedge $-1 $179 $179 $112 $180 forward $174 $-1 #
edge $-1 $292 -1.3680964593538434e-016 $292 6.2831853071796004 $179 $293 forward 7 unknown #
loop $-1 $-1 $186 $113 #
plane-surface $-1 -51.165361488343514 -46.170063185590209 0.63511443784528865 0 -0.66913061440640931 0.74314481823134659 1 0 0 forward_v I I I I #
loop $-1 $-1 $294 $72 #
coedge $-1 $184 $184 $185 $295 reversed $114 $-1 #
coedge $-1 $185 $185 $184 $295 forward $116 $-1 #
coedge $-1 $186 $186 $117 $187 forward $181 $-1 #
edge $-1 $296 -1.3680964593538434e-016 $296 6.2831853071796004 $186 $297 forward 7 unknown #
face $-1 $298 $299 $41 $-1 $300 reversed single #
loop $-1 $-1 $301 $118 #
plane-surface $-1 55.42060162485037 -149.57807644453217 115.48134559579755 1 0 0 0 0.66913061440640931 -0.74314481823134659 forward_v I I I I #
coedge $-1 $302 $303 $304 $305 reversed $119 $-1 #
coedge $-1 $193 $121 $306 $307 reversed $76 $-1 #
coedge $-1 $121 $192 $302 $308 reversed $76 $-1 #
coedge $-1 $304 $309 $121 $195 forward $310 $-1 #
edge $-1 $311 28.618975036675899 $312 45.619033936350732 $194 $313 forward 7 unknown #
loop $-1 $-1 $201 $122 #
plane-surface $-1 63.442602767513819 -46.170063185590209 0.63511443784528865 0 -0.66913061440640931 0.74314481823134659 1 0 0 forward_v I I I I #
loop $-1 $-1 $314 $78 #
coedge $-1 $199 $199 $200 $315 reversed $123 $-1 #
coedge $-1 $200 $200 $199 $315 forward $125 $-1 #
coedge $-1 $201 $201 $126 $202 forward $196 $-1 #
edge $-1 $316 -1.3680964593538434e-016 $316 6.2831853071796004 $201 $317 forward 7 unknown #
loop $-1 $-1 $208 $127 #
plane-surface $-1 63.442602767513819 -46.170063185590209 0.63511443784528865 0 -0.66913061440640931 0.74314481823134659 1 0 0 forward_v I I I I #
loop $-1 $-1 $318 $81 #
coedge $-1 $206 $206 $207 $319 reversed $128 $-1 #
coedge $-1 $207 $207 $206 $319 forward $130 $-1 #
coedge $-1 $208 $208 $131 $209 forward $203 $-1 #
edge $-1 $320 -1.3680964593538434e-016 $320 6.2831853071796004 $208 $321 forward 7 unknown #
face $-1 $322 $323 $44 $-1 $324 reversed single #
loop $-1 $-1 $325 $132 #
plane-surface $-1 -9.8660327218815489 84.033377505005859 176.90906109265933 -1 0 0 0 0.68199836817093118 0.7313536940579346 forward_v I I I I #
coedge $-1 $326 $327 $328 $329 reversed $133 $-1 #
coedge $-1 $215 $135 $330 $331 reversed $85 $-1 #
coedge $-1 $135 $214 $326 $332 reversed $85 $-1 #
coedge $-1 $328 $333 $135 $217 forward $334 $-1 #
edge $-1 $335 -4.153374433087258 $336 11.967342189624532 $216 $337 forward 7 unknown #
loop $-1 $-1 $223 $136 #
plane-surface $-1 -17.567292752382812 -21.363229345749104 63.885040275424572 0 0.68199836817093118 0.7313536940579346 1 0 0 forward_v I I I I #
loop $-1 $-1 $338 $87 #
coedge $-1 $221 $221 $222 $339 reversed $137 $-1 #
coedge $-1 $222 $222 $221 $339 forward $139 $-1 #
coedge $-1 $223 $223 $140 $224 forward $218 $-1 #
edge $-1 $340 -2.4229449315204878e-015 $340 6.2831853071795978 $223 $341 forward 7 unknown #
face $-1 $342 $343 $46 $-1 $344 forward single #
loop $-1 $-1 $345 $141 #
plane-surface $-1 61.265771151000109 84.033377505005859 176.90906109265933 -1 0 0 0 0.68199836817093118 0.7313536940579346 forward_v I I I I #
coedge $-1 $346 $347 $348 $349 reversed $142 $-1 #
coedge $-1 $230 $144 $350 $351 reversed $91 $-1 #
coedge $-1 $144 $229 $346 $352 reversed $91 $-1 #
coedge $-1 $348 $353 $144 $232 forward $343 $-1 #
edge $-1 $354 -4.153374433087258 $355 11.967342189624532 $231 $356 forward 7 unknown #
loop $-1 $-1 $238 $145 #
plane-surface $-1 53.56451112049885 -21.363229345749104 63.885040275424572 0 0.68199836817093118 0.7313536940579346 1 0 0 forward_v I I I I #
loop $-1 $-1 $357 $93 #
coedge $-1 $236 $236 $237 $358 reversed $146 $-1 #
coedge $-1 $237 $237 $236 $358 forward $148 $-1 #
coedge $-1 $238 $238 $149 $239 forward $233 $-1 #
edge $-1 $359 -2.4229449315204878e-015 $359 6.2831853071795978 $238 $360 forward 7 unknown #
face $-1 $361 $362 $36 $-1 $363 reversed single #
loop $-1 $-1 $364 $150 #
plane-surface $-1 -77.270424512466803 0 0 1 0 0 0 0 -1 forward_v I I I I #
coedge $-1 $365 $251 $366 $367 forward $151 $-1 #
coedge $-1 $368 $153 $365 $369 forward $97 $-1 #
coedge $-1 $153 $368 $370 $371 forward $97 $-1 #
coedge $-1 $254 $253 $153 $247 reversed $255 $-1 #
edge $-1 $372 -46.170063185590188 $373 46.170063185590188 $246 $374 forward 7 unknown #
coedge $-1 $155 $154 $375 $376 forward $61 $-1 #
coedge $-1 $377 $378 $154 $250 reversed $362 $-1 #
edge $-1 $257 -77.270424512466803 $379 77.270424512466803 $249 $380 forward 7 unknown #
coedge $-1 $243 $381 $155 $252 reversed $151 $-1 #
edge $-1 $382 -77.270424512466803 $256 77.270424512466803 $251 $383 forward 7 unknown #
coedge $-1 $246 $156 $381 $384 forward $255 $-1 #
coedge $-1 $156 $246 $377 $385 reversed $255 $-1 #
loop $-1 $-1 $253 $361 #
vertex $-1 $157 $386 #
vertex $-1 $157 $387 #
straight-curve $-1 77.270424512466803 0 15.9420365577589 0 1 0 I I #
face $-1 $388 $271 $37 $-1 $389 reversed single #
loop $-1 $-1 $390 $158 #
plane-surface $-1 -89.547665791637115 -33.501855480371049 0 1 0 0 0 0 -1 forward_v I I I I #
coedge $-1 $391 $392 $393 $394 forward $159 $-1 #
coedge $-1 $395 $161 $391 $396 forward $101 $-1 #
coedge $-1 $161 $395 $269 $397 forward $101 $-1 #
edge $-1 $272 28.934386838121689 $398 38.069324122620408 $161 $399 forward 7 unknown #
coedge $-1 $163 $162 $400 $401 forward $64 $-1 #
coedge $-1 $402 $403 $162 $268 forward $404 $-1 #
edge $-1 $405 -38.069324122620408 $273 -28.934386838121689 $267 $406 forward 7 unknown #
coedge $-1 $407 $164 $264 $397 reversed $271 $-1 #
coedge $-1 $164 $407 $402 $408 reversed $271 $-1 #
loop $-1 $-1 $164 $259 #
vertex $-1 $265 $409 #
vertex $-1 $408 $410 #
straight-curve $-1 -77.270424512466803 -28.934386838121689 0 0 0 1 I I #
face $-1 $-1 $411 $38 $-1 $412 reversed single #
loop $-1 $-1 $172 $166 #
plane-surface $-1 0 0 15.9420365577589 0 0 1 1 0 0 forward_v I I I I #
coedge $-1 $413 $414 $415 $416 reversed $167 $-1 #
coedge $-1 $417 $169 $171 $285 forward $105 $-1 #
coedge $-1 $169 $417 $413 $418 forward $105 $-1 #
coedge $-1 $415 $172 $169 $282 forward $276 $-1 #
edge $-1 $288 17.560679601508308 $419 33.604681886835209 $281 $420 forward 7 unknown #
coedge $-1 $421 $422 $170 $284 forward $411 $-1 #
edge $-1 $423 -57.105558360053465 $287 -41.798636240139871 $283 $424 forward 7 unknown #
edge $-1 $288 -22.875835883689902 $423 -2.8692981478864717e-014 $171 $425 forward 7 unknown #
coedge $-1 $172 $415 $421 $426 forward $276 $-1 #
vertex $-1 $173 $427 #
vertex $-1 $173 $428 #
straight-curve $-1 -43.143360345680065 -74.789038222266086 15.942036557758897 0 1 0 I I #
coedge $-1 $290 $290 $-1 $429 reversed $176 $-1 #
edge $-1 $430 0 $430 6.2831853071796004 $177 $431 forward 7 unknown #
vertex $-1 $180 $432 #
ellipse-curve $-1 -54.603361978056412 -37.670033735752774 8.2885754978021033 0 -0.66913061440640931 0.74314481823134659 1 0 0 1 I I #
coedge $-1 $294 $294 $-1 $433 reversed $183 $-1 #
edge $-1 $434 0 $434 6.2831853071796004 $184 $435 forward 7 unknown #
vertex $-1 $187 $436 #
ellipse-curve $-1 -47.727360998630601 -37.670033735752774 8.2885754978021033 0 -0.66913061440640931 0.74314481823134659 1 0 0 1 I I #
face $-1 $-1 $310 $41 $-1 $437 forward single #
loop $-1 $-1 $438 $188 #
plane-surface $-1 0 -46.170063185590188 0 0 1 0 0 0 1 forward_v I I I I #
coedge $-1 $439 $440 $441 $442 reversed $189 $-1 #
coedge $-1 $443 $191 $193 $308 forward $119 $-1 #
coedge $-1 $191 $443 $439 $444 forward $119 $-1 #
coedge $-1 $441 $194 $191 $305 forward $310 $-1 #
edge $-1 $312 -39.743302526420351 $445 -23.699300241093461 $304 $446 forward 7 unknown #
coedge $-1 $447 $448 $192 $307 forward $299 $-1 #
edge $-1 $449 -57.105558360053465 $311 -41.798636240139871 $306 $450 forward 7 unknown #
edge $-1 $312 -22.875835883689902 $449 -2.8692981478864717e-014 $193 $451 forward 7 unknown #
coedge $-1 $194 $441 $447 $452 forward $310 $-1 #
loop $-1 $-1 $441 $298 #
vertex $-1 $307 $453 #
vertex $-1 $195 $454 #
straight-curve $-1 71.46460391017726 -74.789038222266086 15.942036557758897 0 1 0 I I #
coedge $-1 $314 $314 $-1 $455 reversed $198 $-1 #
edge $-1 $456 0 $456 6.2831853071796004 $199 $457 forward 7 unknown #
vertex $-1 $202 $458 #
ellipse-curve $-1 60.004602277800927 -37.670033735752774 8.2885754978021033 0 -0.66913061440640931 0.74314481823134659 1 0 0 1 I I #
coedge $-1 $318 $318 $-1 $459 reversed $205 $-1 #
edge $-1 $460 0 $460 6.2831853071796004 $206 $461 forward 7 unknown #
vertex $-1 $209 $462 #
ellipse-curve $-1 66.880603257226738 -37.670033735752774 8.2885754978021033 0 -0.66913061440640931 0.74314481823134659 1 0 0 1 I I #
face $-1 $-1 $334 $44 $-1 $463 forward single #
loop $-1 $-1 $464 $210 #
plane-surface $-1 0 46.170063185590188 0 0 -1 0 0 0 -1 forward_v I I I I #
coedge $-1 $465 $466 $467 $468 reversed $211 $-1 #
coedge $-1 $469 $213 $215 $332 forward $133 $-1 #
coedge $-1 $213 $469 $465 $470 forward $133 $-1 #
coedge $-1 $467 $216 $213 $329 forward $334 $-1 #
edge $-1 $336 -16.484906406692669 $471 -1.0823863456901428 $328 $472 forward 7 unknown #
coedge $-1 $473 $474 $214 $331 forward $323 $-1 #
edge $-1 $475 -87.545305772747696 $335 -72.512493988570768 $330 $476 forward 7 unknown #
edge $-1 $336 70.297827612469575 $475 92.340126371180418 $215 $477 forward 7 unknown #
coedge $-1 $216 $467 $473 $478 forward $334 $-1 #
loop $-1 $-1 $467 $322 #
vertex $-1 $331 $479 #
vertex $-1 $217 $480 #
straight-curve $-1 -25.268552782884075 42.01668875250293 15.942036557758897 0 -1 0 I I #
coedge $-1 $338 $338 $-1 $481 reversed $220 $-1 #
edge $-1 $482 0 $482 6.2831853071796004 $221 $483 forward 7 unknown #
vertex $-1 $224 $484 #
ellipse-curve $-1 -17.567292752382812 38.109704874234282 8.4256306656704361 0 0.68199836817093118 0.7313536940579346 3 0 0 1 I I #
face $-1 $-1 $485 $46 $-1 $486 reversed single #
loop $-1 $-1 $231 $225 #
plane-surface $-1 0 0 15.9420365577589 0 0 1 1 0 0 forward_v I I I I #
coedge $-1 $487 $488 $489 $490 reversed $226 $-1 #
coedge $-1 $491 $228 $230 $352 forward $142 $-1 #
coedge $-1 $228 $491 $487 $492 forward $142 $-1 #
coedge $-1 $489 $231 $228 $349 forward $343 $-1 #
edge $-1 $355 19.080995529748165 $493 34.483515590750685 $348 $494 forward 7 unknown #
coedge $-1 $495 $496 $229 $351 forward $485 $-1 #
edge $-1 $497 -87.545305772747696 $354 -72.512493988570768 $350 $498 forward 7 unknown #
edge $-1 $355 70.297827612469575 $497 92.340126371180418 $230 $499 forward 7 unknown #
coedge $-1 $231 $489 $495 $500 forward $343 $-1 #
vertex $-1 $232 $501 #
vertex $-1 $232 $502 #
straight-curve $-1 45.86325108999759 42.01668875250293 15.942036557758897 0 -1 0 I I #
coedge $-1 $357 $357 $-1 $503 reversed $235 $-1 #
edge $-1 $504 0 $504 6.2831853071796004 $236 $505 forward 7 unknown #
vertex $-1 $239 $506 #
ellipse-curve $-1 53.56451112049885 38.109704874234282 8.4256306656704361 0 0.68199836817093118 0.7313536940579346 3 0 0 1 I I #
face $-1 $-1 $255 $36 $-1 $507 reversed single #
loop $-1 $-1 $377 $240 #
plane-surface $-1 0 46.170063185590188 0 0 -1 0 0 0 -1 forward_v I I I I #
coedge $-1 $508 $375 $378 $509 forward $241 $-1 #
coedge $-1 $381 $243 $244 $369 reversed $151 $-1 #
coedge $-1 $375 $508 $243 $367 reversed $241 $-1 #
edge $-1 $382 -15.9420365577589 $510 15.9420365577589 $366 $511 forward 7 unknown #
coedge $-1 $245 $244 $508 $512 forward $97 $-1 #
edge $-1 $373 -77.270424512466803 $510 77.270424512466803 $365 $513 forward 7 unknown #
coedge $-1 $378 $377 $245 $371 reversed $362 $-1 #
edge $-1 $514 -77.270424512466803 $372 77.270424512466803 $370 $515 forward 7 unknown #
vertex $-1 $247 $516 #
vertex $-1 $384 $517 #
straight-curve $-1 77.270424512466803 0 -15.9420365577589 0 -1 0 I I #
coedge $-1 $364 $366 $248 $376 reversed $241 $-1 #
edge $-1 $379 -46.170063185590188 $382 46.170063185590188 $375 $518 forward 7 unknown #
coedge $-1 $370 $249 $254 $385 forward $362 $-1 #
coedge $-1 $249 $370 $364 $509 reversed $362 $-1 #
vertex $-1 $250 $519 #
straight-curve $-1 0 46.170063185590188 15.9420365577589 -1 0 0 I I #
coedge $-1 $251 $365 $253 $384 reversed $151 $-1 #
vertex $-1 $376 $520 #
straight-curve $-1 0 -46.170063185590188 15.9420365577589 1 0 0 I I #
edge $-1 $256 -15.9420365577589 $373 15.9420365577589 $253 $521 forward 7 unknown #
edge $-1 $257 -15.9420365577589 $372 15.9420365577589 $254 $522 forward 7 unknown #
point $-1 77.270424512466803 -46.170063185590188 15.9420365577589 #
point $-1 77.270424512466803 46.170063185590188 15.9420365577589 #
face $-1 $-1 $404 $37 $-1 $523 forward single #
plane-surface $-1 -83.409045152051959 -28.934386838121689 0 0 -1 0 0 0 -1 forward_v I I I I #
coedge $-1 $524 $525 $407 $526 forward $260 $-1 #
coedge $-1 $400 $262 $263 $396 reversed $159 $-1 #
coedge $-1 $262 $400 $403 $527 reversed $159 $-1 #
coedge $-1 $525 $524 $262 $394 reversed $260 $-1 #
edge $-1 $528 -15.9420365577589 $529 15.9420365577589 $393 $530 forward 7 unknown #
coedge $-1 $264 $263 $524 $531 forward $101 $-1 #
edge $-1 $398 -6.1386206395851559 $529 6.1386206395851559 $391 $532 forward 7 unknown #
edge $-1 $533 -6.1386206395851559 $272 6.1386206395851559 $269 $534 forward 7 unknown #
vertex $-1 $396 $535 #
straight-curve $-1 -77.270424512466803 0 -15.9420365577589 0 -1 0 I I #
coedge $-1 $392 $391 $266 $401 reversed $159 $-1 #
edge $-1 $405 -15.9420365577589 $398 15.9420365577589 $400 $536 forward 7 unknown #
coedge $-1 $537 $267 $270 $408 forward $404 $-1 #
coedge $-1 $267 $537 $392 $527 forward $404 $-1 #
loop $-1 $-1 $267 $388 #
vertex $-1 $268 $538 #
straight-curve $-1 -77.270424512466803 0 15.9420365577589 0 1 0 I I #
coedge $-1 $270 $269 $390 $526 reversed $271 $-1 #
edge $-1 $273 -6.1386206395851559 $539 6.1386206395851559 $270 $540 forward 7 unknown #
point $-1 -77.270424512466803 -28.934386838121689 -15.9420365577589 #
point $-1 -77.270424512466803 -28.934386838121689 15.9420365577589 #
loop $-1 $-1 $283 $275 #
plane-surface $-1 0 -46.170063185590188 0 0 1 0 0 0 1 forward_v I I I I #
coedge $-1 $414 $278 $280 $418 reversed $167 $-1 #
coedge $-1 $278 $413 $541 $542 reversed $167 $-1 #
coedge $-1 $286 $281 $278 $416 forward $276 $-1 #
edge $-1 $419 -45.619033936350732 $543 -28.618975036675899 $415 $544 forward 7 unknown #
coedge $-1 $280 $279 $422 $545 reversed $105 $-1 #
edge $-1 $546 2.8692981478864717e-014 $419 22.875835883689902 $413 $547 forward 7 unknown #
vertex $-1 $282 $548 #
straight-curve $-1 -25.582680744171757 -29.170004285915354 15.9420365577589 -1 0 0 I I #
coedge $-1 $541 $283 $286 $426 reversed $411 $-1 #
coedge $-1 $283 $541 $417 $545 forward $411 $-1 #
vertex $-1 $284 $549 #
straight-curve $-1 -43.143360345680065 -46.170063185590188 57.740672797898775 0 0 1 I I #
straight-curve $-1 -43.143360345680065 -46.170063185590209 0.63511443784528865 0 -0.74314481823134659 -0.66913061440640931 I I #
edge $-1 $543 -59.187362631006962 $287 -43.143360345680065 $421 $550 forward 7 unknown #
point $-1 -43.143360345680065 -46.170063185590188 15.9420365577589 #
point $-1 -43.143360345680065 -29.170004285915358 15.9420365577589 #
edge $-1 $551 1 $551 0 $290 $-1 forward 7 unknown #
vertex $-1 $291 $552 #
ellipse-curve $-1 -54.603361978056412 -36.155724195321618 6.6067644074994814 0 -0.66913061440640931 0.74314481823134659 1 0 0 1 I I #
point $-1 -53.603361978056412 -37.67003373575276 8.2885754978020874 #
edge $-1 $553 1 $553 0 $294 $-1 forward 7 unknown #
vertex $-1 $295 $554 #
ellipse-curve $-1 -47.727360998630601 -36.155724195321618 6.6067644074994814 0 -0.66913061440640931 0.74314481823134659 1 0 0 1 I I #
point $-1 -46.727360998630601 -37.67003373575276 8.2885754978020874 #
plane-surface $-1 0 0 15.9420365577589 0 0 1 1 0 0 forward_v I I I I #
coedge $-1 $448 $447 $440 $555 forward $299 $-1 #
coedge $-1 $440 $301 $303 $444 reversed $189 $-1 #
coedge $-1 $301 $439 $438 $555 reversed $189 $-1 #
coedge $-1 $309 $304 $301 $442 forward $310 $-1 #
edge $-1 $445 -45.619033936350732 $556 -28.618975036675899 $441 $557 forward 7 unknown #
coedge $-1 $303 $302 $448 $558 reversed $119 $-1 #
edge $-1 $559 2.8692981478864717e-014 $445 22.875835883689902 $439 $560 forward 7 unknown #
vertex $-1 $305 $561 #
straight-curve $-1 31.721301383756909 -29.170004285915354 15.9420365577589 -1 0 0 I I #
coedge $-1 $438 $306 $309 $452 reversed $299 $-1 #
coedge $-1 $306 $438 $443 $558 forward $299 $-1 #
vertex $-1 $307 $562 #
straight-curve $-1 71.46460391017726 -46.170063185590188 57.740672797898775 0 0 1 I I #
straight-curve $-1 71.46460391017726 -46.170063185590209 0.63511443784528865 0 -0.74314481823134659 -0.66913061440640931 I I #
edge $-1 $556 55.42060162485037 $311 71.46460391017726 $447 $563 forward 7 unknown #
point $-1 71.46460391017726 -46.170063185590188 15.9420365577589 #
point $-1 71.46460391017726 -29.170004285915358 15.9420365577589 #
edge $-1 $564 1 $564 0 $314 $-1 forward 7 unknown #
vertex $-1 $315 $565 #
ellipse-curve $-1 60.004602277800927 -36.155724195321618 6.6067644074994814 0 -0.66913061440640931 0.74314481823134659 1 0 0 1 I I #
point $-1 61.004602277800927 -37.67003373575276 8.2885754978020874 #
edge $-1 $566 1 $566 0 $318 $-1 forward 7 unknown #
vertex $-1 $319 $567 #
ellipse-curve $-1 66.880603257226738 -36.155724195321618 6.6067644074994814 0 -0.66913061440640931 0.74314481823134659 1 0 0 1 I I #
point $-1 67.880603257226738 -37.67003373575276 8.2885754978020874 #
plane-surface $-1 0 0 15.9420365577589 0 0 1 1 0 0 forward_v I I I I #
coedge $-1 $474 $473 $466 $568 forward $323 $-1 #
coedge $-1 $466 $325 $327 $470 reversed $211 $-1 #
coedge $-1 $325 $465 $464 $568 reversed $211 $-1 #
coedge $-1 $333 $328 $325 $468 forward $334 $-1 #
edge $-1 $471 -11.967342189624532 $569 4.153374433087258 $467 $570 forward 7 unknown #
coedge $-1 $327 $326 $474 $571 reversed $133 $-1 #
edge $-1 $572 -92.340126371180418 $471 -70.297827612469575 $465 $573 forward 7 unknown #
vertex $-1 $329 $574 #
straight-curve $-1 -8.7836463761914061 30.049346562878402 15.9420365577589 1 0 0 I I #
coedge $-1 $464 $330 $333 $478 reversed $323 $-1 #
coedge $-1 $330 $464 $469 $571 forward $323 $-1 #
vertex $-1 $331 $575 #
straight-curve $-1 -25.268552782884075 46.170063185590188 88.454530546329664 0 0 1 I I #
straight-curve $-1 -25.268552782884075 -21.363229345749104 63.885040275424572 0 0.7313536940579346 -0.68199836817093118 I I #
edge $-1 $569 9.8660327218815489 $335 25.268552782884075 $473 $576 forward 7 unknown #
point $-1 -25.268552782884075 46.170063185590188 15.9420365577589 #
point $-1 -25.268552782884075 30.049346562878398 15.942036557758897 #
edge $-1 $577 1 $577 0 $338 $-1 forward 7 unknown #
vertex $-1 $339 $578 #
ellipse-curve $-1 -17.567292752382812 35.05535456653606 5.1502410390456781 0 0.68199836817093118 0.7313536940579346 3 0 0 1 I I #
point $-1 -14.567292752382812 38.109704874234282 8.4256306656704467 #
loop $-1 $-1 $350 $342 #
plane-surface $-1 0 46.170063185590188 0 0 -1 0 0 0 -1 forward_v I I I I #
coedge $-1 $488 $345 $347 $492 reversed $226 $-1 #
coedge $-1 $345 $487 $579 $580 reversed $226 $-1 #
coedge $-1 $353 $348 $345 $490 forward $343 $-1 #
edge $-1 $493 -11.967342189624532 $581 4.153374433087258 $489 $582 forward 7 unknown #
coedge $-1 $347 $346 $496 $583 reversed $142 $-1 #
edge $-1 $584 -92.340126371180418 $493 -70.297827612469575 $487 $585 forward 7 unknown #
vertex $-1 $349 $586 #
straight-curve $-1 26.782255560249425 30.049346562878402 15.9420365577589 1 0 0 I I #
coedge $-1 $579 $350 $353 $500 reversed $485 $-1 #
coedge $-1 $350 $579 $491 $583 forward $485 $-1 #
vertex $-1 $351 $587 #
straight-curve $-1 45.86325108999759 46.170063185590188 88.454530546329664 0 0 1 I I #
straight-curve $-1 45.86325108999759 -21.363229345749104 63.885040275424572 0 0.7313536940579346 -0.68199836817093118 I I #
edge $-1 $581 -61.265771151000109 $354 -45.86325108999759 $495 $588 forward 7 unknown #
point $-1 45.86325108999759 46.170063185590188 15.9420365577589 #
point $-1 45.86325108999759 30.049346562878398 15.942036557758897 #
edge $-1 $589 1 $589 0 $357 $-1 forward 7 unknown #
vertex $-1 $358 $590 #
ellipse-curve $-1 53.56451112049885 35.05535456653606 5.1502410390456781 0 0.68199836817093118 0.7313536940579346 3 0 0 1 I I #
point $-1 56.56451112049885 38.109704874234282 8.4256306656704467 #
plane-surface $-1 77.270424512466803 0 0 -1 0 0 0 0 1 forward_v I I I I #
coedge $-1 $366 $364 $368 $512 reversed $241 $-1 #
edge $-1 $379 -15.9420365577589 $514 15.9420365577589 $378 $591 forward 7 unknown #
vertex $-1 $512 $592 #
straight-curve $-1 -77.270424512466803 -46.170063185590188 0 0 0 -1 I I #
edge $-1 $510 -46.170063185590188 $514 46.170063185590188 $508 $593 forward 7 unknown #
straight-curve $-1 0 -46.170063185590188 -15.9420365577589 -1 0 0 I I #
vertex $-1 $371 $594 #
straight-curve $-1 0 46.170063185590188 -15.9420365577589 1 0 0 I I #
point $-1 77.270424512466803 46.170063185590188 -15.9420365577589 #
point $-1 77.270424512466803 -46.170063185590188 -15.9420365577589 #
straight-curve $-1 -77.270424512466803 0 15.9420365577589 0 -1 0 I I #
point $-1 -77.270424512466803 46.170063185590188 15.9420365577589 #
point $-1 -77.270424512466803 -46.170063185590188 15.9420365577589 #
straight-curve $-1 77.270424512466803 -46.170063185590188 0 0 0 -1 I I #
straight-curve $-1 77.270424512466803 46.170063185590188 0 0 0 -1 I I #
plane-surface $-1 0 0 15.9420365577589 0 0 1 1 0 0 forward_v I I I I #
coedge $-1 $393 $390 $395 $531 reversed $260 $-1 #
coedge $-1 $390 $393 $537 $595 reversed $260 $-1 #
edge $-1 $539 -15.9420365577589 $533 15.9420365577589 $407 $596 forward 7 unknown #
edge $-1 $528 -6.1386206395851559 $405 6.1386206395851559 $392 $597 forward 7 unknown #
vertex $-1 $595 $598 #
vertex $-1 $531 $599 #
straight-curve $-1 -89.547665791637115 -38.069324122620408 0 0 0 -1 I I #
edge $-1 $529 -4.5674686422493593 $533 4.5674686422493593 $524 $600 forward 7 unknown #
straight-curve $-1 -83.409045152051959 -38.069324122620408 -15.9420365577589 -1 0 0 I I #
vertex $-1 $397 $601 #
straight-curve $-1 -83.409045152051959 -28.934386838121689 -15.9420365577589 1 0 0 I I #
point $-1 -77.270424512466803 -38.069324122620408 -15.9420365577589 #
straight-curve $-1 -77.270424512466803 -38.069324122620408 0 0 0 -1 I I #
coedge $-1 $403 $402 $525 $595 forward $404 $-1 #
point $-1 -77.270424512466803 -38.069324122620408 15.9420365577589 #
vertex $-1 $408 $602 #
straight-curve $-1 -83.409045152051959 -28.934386838121689 15.9420365577589 -1 0 0 I I #
coedge $-1 $422 $421 $414 $542 forward $411 $-1 #
edge $-1 $543 41.798636240139871 $546 57.105558360053465 $541 $603 forward 7 unknown #
vertex $-1 $426 $604 #
straight-curve $-1 -59.187362631006962 -74.789038222266086 15.942036557758897 0 -1 0 I I #
edge $-1 $546 -33.604681886835209 $423 -17.560679601508308 $422 $605 forward 7 unknown #
vertex $-1 $545 $606 #
straight-curve $-1 -59.187362631006962 -46.170063185590209 0.63511443784528865 0 0.74314481823134659 0.66913061440640931 I I #
point $-1 -59.187362631006962 -29.170004285915358 15.9420365577589 #
point $-1 -43.143360345680065 -46.170063185590188 0.63511443784530786 #
straight-curve $-1 0 -46.170063185590188 15.9420365577589 1 0 0 I I #
vertex $-1 $429 $607 #
point $-1 -53.603361978056412 -36.155724195321618 6.6067644074994814 #
vertex $-1 $433 $608 #
point $-1 -46.727360998630601 -36.155724195321618 6.6067644074994814 #
edge $-1 $556 41.798636240139871 $559 57.105558360053465 $438 $609 forward 7 unknown #
vertex $-1 $452 $610 #
straight-curve $-1 55.42060162485037 -74.789038222266086 15.942036557758897 0 -1 0 I I #
edge $-1 $559 23.699300241093461 $449 39.743302526420351 $448 $611 forward 7 unknown #
vertex $-1 $558 $612 #
straight-curve $-1 55.42060162485037 -46.170063185590209 0.63511443784528865 0 0.74314481823134659 0.66913061440640931 I I #
point $-1 55.42060162485037 -29.170004285915358 15.9420365577589 #
point $-1 71.46460391017726 -46.170063185590188 0.63511443784530786 #
straight-curve $-1 0 -46.170063185590188 15.9420365577589 1 0 0 I I #
vertex $-1 $455 $613 #
point $-1 61.004602277800927 -36.155724195321618 6.6067644074994814 #
vertex $-1 $459 $614 #
point $-1 67.880603257226738 -36.155724195321618 6.6067644074994814 #
edge $-1 $569 72.512493988570768 $572 87.545305772747696 $464 $615 forward 7 unknown #
vertex $-1 $478 $616 #
straight-curve $-1 -9.8660327218815489 42.01668875250293 15.942036557758897 0 1 0 I I #
edge $-1 $572 1.0823863456901428 $475 16.484906406692669 $474 $617 forward 7 unknown #
vertex $-1 $571 $618 #
straight-curve $-1 -9.8660327218815489 -21.363229345749104 63.885040275424572 0 -0.7313536940579346 0.68199836817093118 I I #
point $-1 -9.8660327218815489 30.049346562878398 15.942036557758897 #
point $-1 -25.268552782884075 46.170063185590195 0.90922477358196119 #
straight-curve $-1 0 46.170063185590188 15.9420365577589 -1 0 0 I I #
vertex $-1 $481 $619 #
point $-1 -14.567292752382812 35.05535456653606 5.1502410390456781 #
coedge $-1 $496 $495 $488 $580 forward $485 $-1 #
edge $-1 $581 72.512493988570768 $584 87.545305772747696 $579 $620 forward 7 unknown #
vertex $-1 $500 $621 #
straight-curve $-1 61.265771151000109 42.01668875250293 15.942036557758897 0 1 0 I I #
edge $-1 $584 -34.483515590750685 $497 -19.080995529748165 $496 $622 forward 7 unknown #
vertex $-1 $583 $623 #
straight-curve $-1 61.265771151000109 -21.363229345749104 63.885040275424572 0 -0.7313536940579346 0.68199836817093118 I I #
point $-1 61.265771151000109 30.049346562878398 15.942036557758897 #
point $-1 45.86325108999759 46.170063185590195 0.90922477358196119 #
straight-curve $-1 0 46.170063185590188 15.9420365577589 -1 0 0 I I #
vertex $-1 $503 $624 #
point $-1 56.56451112049885 35.05535456653606 5.1502410390456781 #
straight-curve $-1 -77.270424512466803 46.170063185590188 0 0 0 -1 I I #
point $-1 -77.270424512466803 -46.170063185590188 -15.9420365577589 #
straight-curve $-1 -77.270424512466803 0 -15.9420365577589 0 1 0 I I #
point $-1 -77.270424512466803 46.170063185590188 -15.9420365577589 #
edge $-1 $539 -4.5674686422493593 $528 4.5674686422493593 $525 $625 forward 7 unknown #
straight-curve $-1 -89.547665791637115 -28.934386838121689 0 0 0 -1 I I #
straight-curve $-1 -83.409045152051959 -38.069324122620408 15.9420365577589 1 0 0 I I #
point $-1 -89.547665791637115 -38.069324122620408 15.9420365577589 #
point $-1 -89.547665791637115 -38.069324122620408 -15.9420365577589 #
straight-curve $-1 -89.547665791637115 -33.501855480371049 -15.9420365577589 0 1 0 I I #
point $-1 -89.547665791637115 -28.934386838121689 -15.9420365577589 #
point $-1 -89.547665791637115 -28.934386838121689 15.9420365577589 #
straight-curve $-1 -59.187362631006962 -46.170063185590188 57.740672797898775 0 0 -1 I I #
point $-1 -59.187362631006962 -46.170063185590188 15.9420365577589 #
straight-curve $-1 -25.582680744171757 -46.170063185590188 0.63511443784530419 1 0 0 I I #
point $-1 -59.187362631006962 -46.170063185590188 0.63511443784530786 #
point $-1 -54.603361978056412 -35.486593580915205 5.8636195892681346 #
point $-1 -47.727360998630601 -35.486593580915205 5.8636195892681346 #
straight-curve $-1 55.42060162485037 -46.170063185590188 57.740672797898775 0 0 -1 I I #
point $-1 55.42060162485037 -46.170063185590188 15.9420365577589 #
straight-curve $-1 31.721301383756909 -46.170063185590188 0.63511443784530419 1 0 0 I I #
point $-1 55.42060162485037 -46.170063185590188 0.63511443784530786 #
point $-1 60.004602277800927 -35.486593580915205 5.8636195892681346 #
point $-1 66.880603257226738 -35.486593580915205 5.8636195892681346 #
straight-curve $-1 -9.8660327218815489 46.170063185590188 88.454530546329664 0 0 -1 I I #
point $-1 -9.8660327218815489 46.170063185590188 15.9420365577589 #
straight-curve $-1 -8.7836463761914061 46.170063185590188 0.90922477358196474 -1 0 0 I I #
point $-1 -9.8660327218815489 46.170063185590195 0.90922477358196119 #
point $-1 -17.567292752382812 33.009359462023262 2.9561799568718747 #
straight-curve $-1 61.265771151000109 46.170063185590188 88.454530546329664 0 0 -1 I I #
point $-1 61.265771151000109 46.170063185590188 15.9420365577589 #
straight-curve $-1 26.782255560249425 46.170063185590188 0.90922477358196474 -1 0 0 I I #
point $-1 61.265771151000109 46.170063185590195 0.90922477358196119 #
point $-1 53.56451112049885 33.009359462023262 2.9561799568718747 #
straight-curve $-1 -89.547665791637115 -33.501855480371049 15.9420365577589 0 -1 0 I I #
End-of-ACIS-data 