500 0 8 0           
7 Unknown 11 ACIS 5.0 NT 24 Thu Mar 25 22:50:55 1999 
-1 9.9999999999999995e-007 1e-010 
body $-1 $8 $-1 $9 #
body $-1 $10 $-1 $11 #
body $-1 $12 $-1 $13 #
body $-1 $14 $-1 $15 #
body $-1 $16 $-1 $17 #
body $-1 $18 $-1 $19 #
body $-1 $20 $-1 $21 #
body $-1 $22 $-1 $23 #
lump $-1 $-1 $24 $0 #
transform $-1 1 0 0 0 1 0 0 0 1 79.110080263679919 51.201486745321979 13.888795881174516 1 rotate no_reflect no_shear #
lump $-1 $-1 $25 $1 #
transform $-1 1 0 0 0 1 0 0 0 1 79.110080263679919 51.201486745321979 13.888795881174516 1 rotate no_reflect no_shear #
lump $-1 $-1 $26 $2 #
transform $-1 1 0 0 0 1 0 0 0 1 79.110080263679919 51.201486745321979 13.888795881174516 1 rotate no_reflect no_shear #
lump $-1 $-1 $27 $3 #
transform $-1 1 0 0 0 1 0 0 0 1 79.110080263679919 51.201486745321979 13.888795881174516 1 rotate no_reflect no_shear #
lump $-1 $-1 $28 $4 #
transform $-1 1 0 0 0 1 0 0 0 1 79.110080263679919 51.201486745321979 13.888795881174516 1 rotate no_reflect no_shear #
lump $-1 $-1 $29 $5 #
transform $-1 1 0 0 0 1 0 0 0 1 79.110080263679919 51.201486745321979 13.888795881174516 1 rotate no_reflect no_shear #
lump $-1 $-1 $30 $6 #
transform $-1 1 0 0 0 1 0 0 0 1 79.110080263679919 51.201486745321979 13.888795881174516 1 rotate no_reflect no_shear #
lump $-1 $-1 $31 $7 #
transform $-1 1 0 0 0 1 0 0 0 1 79.110080263679919 51.201486745321979 13.888795881174516 1 rotate no_reflect no_shear #
shell $-1 $-1 $-1 $32 $-1 $8 #
shell $-1 $-1 $-1 $33 $-1 $10 #
shell $-1 $-1 $-1 $34 $-1 $12 #
shell $-1 $-1 $-1 $35 $-1 $14 #
shell $-1 $-1 $-1 $36 $-1 $16 #
shell $-1 $-1 $-1 $37 $-1 $18 #
shell $-1 $-1 $-1 $38 $-1 $20 #
shell $-1 $-1 $-1 $39 $-1 $22 #
face $-1 $40 $41 $24 $-1 $42 forward single #
face $-1 $43 $44 $25 $-1 $45 forward single #
face $-1 $46 $47 $26 $-1 $48 reversed single #
face $-1 $49 $50 $27 $-1 $51 forward single #
face $-1 $52 $53 $28 $-1 $54 forward single #
face $-1 $55 $56 $29 $-1 $57 reversed single #
face $-1 $58 $59 $30 $-1 $60 forward single #
face $-1 $61 $62 $31 $-1 $63 forward single #
face $-1 $64 $65 $24 $-1 $66 reversed single #
loop $-1 $-1 $67 $32 #
plane-surface $-1 0 0 13.888795881174516 0 0 1 1 0 0 forward_v I I I I #
face $-1 $68 $69 $25 $-1 $70 reversed single #
loop $-1 $-1 $71 $33 #
plane-surface $-1 0 -43.520779591530442 -7.3681361296924601 0 0 1 1 0 0 forward_v I I I I #
face $-1 $72 $73 $26 $-1 $74 reversed single #
loop $-1 $-1 $75 $34 #
plane-surface $-1 -216.13275989506377 34.214210924534115 82.213187245721286 0 1 0 -0.86602541151947299 0 0.49999998660252726 forward_v I I I I #
face $-1 $76 $77 $27 $-1 $78 forward single #
loop $-1 $79 $80 $35 #
cone-surface $-1 -73.505379547551669 39.067718301902083 7.0576914746911612 0.86602541151947299 0 -0.49999998660252726 0.99999997320505452 0 1.732050823038946 1 I I 0 1 2 forward I I I I #
face $-1 $81 $82 $28 $-1 $83 forward single #
loop $-1 $84 $85 $36 #
cone-surface $-1 -73.505379547551669 46.347979367954018 7.0576914746911612 0.86602541151947299 0 -0.49999998660252726 0.99999997320505452 0 1.732050823038946 1 I I 0 1 2 forward I I I I #
face $-1 $86 $87 $29 $-1 $88 reversed single #
loop $-1 $-1 $89 $37 #
plane-surface $-1 40.255070142687856 -13.483724092130245 222.18941585792186 0 -1 0 -0.57357644374324357 0 -0.81915203911291934 forward_v I I I I #
face $-1 $90 $91 $30 $-1 $92 forward single #
loop $-1 $93 $94 $38 #
cone-surface $-1 68.255678952286019 -29.452544338993569 4.654427414534311 -0.57357644374324357 0 -0.81915203911291934 2.0478800977822984 0 -1.4339411093581089 1 I I 0 1 2.5 forward I I I I #
face $-1 $95 $96 $31 $-1 $97 forward single #
loop $-1 $98 $99 $39 #
cone-surface $-1 68.255678952286019 -19.871252190875573 4.654427414534311 -0.57357644374324357 0 -0.81915203911291934 2.0478800977822984 0 -1.4339411093581089 1 I I 0 1 2.5 forward I I I I #
face $-1 $100 $101 $24 $-1 $102 reversed single #
loop $-1 $-1 $103 $40 #
plane-surface $-1 0 0 -13.888795881174516 0 0 1 1 0 0 forward_v I I I I #
coedge $-1 $104 $105 $106 $107 forward $41 $-1 #
face $-1 $108 $109 $25 $-1 $110 reversed single #
loop $-1 $-1 $111 $43 #
plane-surface $-1 0 -35.840072437738904 -10.628466005433488 0 -1 0 0 0 -1 forward_v I I I I #
coedge $-1 $112 $113 $114 $115 reversed $44 $-1 #
face $-1 $116 $117 $26 $-1 $118 reversed single #
loop $-1 $-1 $119 $46 #
plane-surface $-1 -79.11008026367989 42.707848834928051 3.1031091017916594 -0.86602541151947299 0 0.49999998660252726 0.49999998660252726 0 0.86602541151947299 forward_v I I I I #
coedge $-1 $120 $121 $122 $123 reversed $47 $-1 #
face $-1 $-1 $124 $27 $-1 $125 forward single #
loop $-1 $126 $127 $49 #
cone-surface $-1 -70.148212891402906 39.067718301902083 5.1194304712967025 0.86602541151947299 0 -0.49999998660252726 0.49999998660252726 0 0.86602541151947299 1 I I -0.70710678118654746 0.70710678118654746 1 forward I I I I #
loop $-1 $-1 $128 $35 #
coedge $-1 $80 $80 $129 $130 reversed $50 $-1 #
face $-1 $-1 $131 $28 $-1 $132 forward single #
loop $-1 $133 $134 $52 #
cone-surface $-1 -70.148212891402906 46.347979367954018 5.1194304712967025 0.86602541151947299 0 -0.49999998660252726 0.49999998660252726 0 0.86602541151947299 1 I I -0.70710678118654746 0.70710678118654746 1 forward I I I I #
loop $-1 $-1 $135 $36 #
coedge $-1 $85 $85 $136 $137 reversed $53 $-1 #
face $-1 $138 $139 $29 $-1 $140 reversed single #
loop $-1 $-1 $141 $55 #
plane-surface $-1 -50.496286861080321 -24.661898264934571 92.583048733161604 0.57357644374324357 0 0.81915203911291934 0.81915203911291934 0 -0.57357644374324357 forward_v I I I I #
coedge $-1 $142 $143 $144 $145 reversed $56 $-1 #
face $-1 $-1 $146 $30 $-1 $147 forward single #
loop $-1 $148 $149 $58 #
cone-surface $-1 65.293971551573776 -29.452544338993569 0.42467097489350181 -0.57357644374324357 0 -0.81915203911291934 1.0239400488911492 0 -0.71697055467905446 1 I I -0.70710678118654746 0.70710678118654746 1.25 forward I I I I #
loop $-1 $-1 $150 $38 #
coedge $-1 $94 $94 $151 $152 reversed $59 $-1 #
face $-1 $-1 $153 $31 $-1 $154 forward single #
loop $-1 $155 $156 $61 #
cone-surface $-1 65.293971551573776 -19.871252190875573 0.42467097489350181 -0.57357644374324357 0 -0.81915203911291934 1.0239400488911492 0 -0.71697055467905446 1 I I -0.70710678118654746 0.70710678118654746 1.25 forward I I I I #
loop $-1 $-1 $157 $39 #
coedge $-1 $99 $99 $158 $159 reversed $62 $-1 #
face $-1 $160 $161 $24 $-1 $162 reversed single #
loop $-1 $-1 $163 $64 #
plane-surface $-1 0 -51.201486745321979 0 0 1 0 0 0 1 forward_v I I I I #
coedge $-1 $164 $165 $166 $167 forward $65 $-1 #
coedge $-1 $168 $67 $169 $170 forward $41 $-1 #
coedge $-1 $67 $168 $171 $172 forward $41 $-1 #
coedge $-1 $173 $174 $67 $107 reversed $175 $-1 #
edge $-1 $176 -51.201486745321979 $177 51.201486745321979 $106 $178 forward 7 unknown #
face $-1 $179 $180 $25 $-1 $181 reversed single #
loop $-1 $-1 $182 $68 #
plane-surface $-1 0 0 -13.888795881174516 0 0 1 1 0 0 forward_v I I I I #
coedge $-1 $183 $184 $185 $186 reversed $69 $-1 #
coedge $-1 $187 $71 $184 $188 forward $44 $-1 #
coedge $-1 $71 $187 $189 $190 reversed $44 $-1 #
coedge $-1 $191 $185 $71 $115 forward $180 $-1 #
edge $-1 $192 14.079682641973683 $193 29.441096949556758 $114 $194 forward 7 unknown #
face $-1 $195 $196 $26 $-1 $197 reversed single #
loop $-1 $-1 $198 $72 #
plane-surface $-1 0 51.201486745321979 0 0 -1 0 0 0 -1 forward_v I I I I #
coedge $-1 $199 $200 $201 $202 reversed $73 $-1 #
coedge $-1 $121 $75 $203 $204 reversed $47 $-1 #
coedge $-1 $75 $120 $199 $205 reversed $47 $-1 #
coedge $-1 $201 $206 $75 $123 forward $207 $-1 #
edge $-1 $208 28.956299683851967 $209 35.183418626849914 $122 $210 forward 7 unknown #
loop $-1 $-1 $129 $76 #
plane-surface $-1 -79.11008026367989 42.707848834928051 3.1031091017916594 -0.86602541151947299 0 0.49999998660252726 0.49999998660252726 0 0.86602541151947299 forward_v I I I I #
loop $-1 $-1 $211 $49 #
coedge $-1 $127 $127 $128 $212 reversed $77 $-1 #
coedge $-1 $128 $128 $127 $212 forward $79 $-1 #
coedge $-1 $129 $129 $80 $130 forward $124 $-1 #
edge $-1 $213 0 $213 6.2831853071796004 $129 $214 forward 7 unknown #
loop $-1 $-1 $136 $81 #
plane-surface $-1 -79.11008026367989 42.707848834928051 3.1031091017916594 -0.86602541151947299 0 0.49999998660252726 0.49999998660252726 0 0.86602541151947299 forward_v I I I I #
loop $-1 $-1 $215 $52 #
coedge $-1 $134 $134 $135 $216 reversed $82 $-1 #
coedge $-1 $135 $135 $134 $216 forward $84 $-1 #
coedge $-1 $136 $136 $85 $137 forward $131 $-1 #
edge $-1 $217 0 $217 6.2831853071796004 $136 $218 forward 7 unknown #
face $-1 $219 $220 $29 $-1 $221 forward single #
loop $-1 $-1 $222 $86 #
plane-surface $-1 40.255070142687856 -35.840072437738897 222.18941585792186 0 1 0 0.57357644374324357 0 0.81915203911291934 forward_v I I I I #
coedge $-1 $223 $224 $225 $226 reversed $87 $-1 #
coedge $-1 $143 $89 $227 $228 reversed $56 $-1 #
coedge $-1 $89 $142 $223 $229 reversed $56 $-1 #
coedge $-1 $225 $230 $89 $145 forward $220 $-1 #
edge $-1 $231 -58.982545192335991 $232 -41.763216261614602 $144 $233 forward 7 unknown #
loop $-1 $-1 $151 $90 #
plane-surface $-1 -50.496286861080321 -24.661898264934571 92.583048733161604 0.57357644374324357 0 0.81915203911291934 0.81915203911291934 0 -0.57357644374324357 forward_v I I I I #
loop $-1 $-1 $234 $58 #
coedge $-1 $149 $149 $150 $235 reversed $91 $-1 #
coedge $-1 $150 $150 $149 $235 forward $93 $-1 #
coedge $-1 $151 $151 $94 $152 forward $146 $-1 #
edge $-1 $236 0 $236 6.2831853071796004 $151 $237 forward 7 unknown #
loop $-1 $-1 $158 $95 #
plane-surface $-1 -50.496286861080321 -24.661898264934571 92.583048733161604 0.57357644374324357 0 0.81915203911291934 0.81915203911291934 0 -0.57357644374324357 forward_v I I I I #
loop $-1 $-1 $238 $61 #
coedge $-1 $156 $156 $157 $239 reversed $96 $-1 #
coedge $-1 $157 $157 $156 $239 forward $98 $-1 #
coedge $-1 $158 $158 $99 $159 forward $153 $-1 #
edge $-1 $240 0 $240 6.2831853071796004 $158 $241 forward 7 unknown #
face $-1 $242 $243 $24 $-1 $244 reversed single #
loop $-1 $-1 $245 $100 #
plane-surface $-1 -79.110080263679919 0 0 1 0 0 0 0 -1 forward_v I I I I #
coedge $-1 $246 $171 $247 $248 forward $101 $-1 #
coedge $-1 $249 $103 $246 $250 forward $65 $-1 #
coedge $-1 $103 $249 $251 $252 forward $65 $-1 #
coedge $-1 $174 $173 $103 $167 reversed $175 $-1 #
edge $-1 $253 -51.201486745321979 $254 51.201486745321979 $166 $255 forward 7 unknown #
coedge $-1 $105 $104 $256 $257 forward $41 $-1 #
coedge $-1 $258 $259 $104 $170 reversed $243 $-1 #
edge $-1 $177 -79.110080263679919 $260 79.110080263679919 $169 $261 forward 7 unknown #
coedge $-1 $163 $262 $105 $172 reversed $101 $-1 #
edge $-1 $263 -79.110080263679919 $176 79.110080263679919 $171 $264 forward 7 unknown #
coedge $-1 $166 $106 $262 $265 forward $175 $-1 #
coedge $-1 $106 $166 $258 $266 reversed $175 $-1 #
loop $-1 $-1 $173 $242 #
vertex $-1 $107 $267 #
vertex $-1 $107 $268 #
straight-curve $-1 79.110080263679919 0 13.888795881174516 0 1 0 I I #
face $-1 $269 $270 $25 $-1 $271 reversed single #
loop $-1 $-1 $185 $108 #
plane-surface $-1 79.110080263679919 0 0 -1 0 0 0 0 1 forward_v I I I I #
coedge $-1 $272 $273 $183 $274 forward $109 $-1 #
coedge $-1 $275 $111 $182 $274 reversed $69 $-1 #
coedge $-1 $111 $275 $112 $188 reversed $69 $-1 #
coedge $-1 $114 $276 $111 $186 forward $180 $-1 #
edge $-1 $277 -8.5745628784577725 $192 -2.0539031269757162 $185 $278 forward 7 unknown #
coedge $-1 $113 $112 $279 $280 reversed $44 $-1 #
edge $-1 $192 -79.110080263679919 $281 79.110080263679919 $184 $282 forward 7 unknown #
coedge $-1 $283 $284 $113 $190 forward $270 $-1 #
edge $-1 $193 -79.110080263679919 $285 79.110080263679919 $189 $286 forward 7 unknown #
coedge $-1 $276 $114 $284 $287 forward $180 $-1 #
vertex $-1 $115 $288 #
vertex $-1 $287 $289 #
straight-curve $-1 79.110080263679919 -21.760389795765221 -7.3681361296924601 0 -1 0 I I #
face $-1 $-1 $207 $26 $-1 $290 forward single #
loop $-1 $-1 $291 $116 #
plane-surface $-1 -79.110080263679919 0 0 1 0 0 0 0 -1 forward_v I I I I #
coedge $-1 $292 $293 $200 $294 forward $117 $-1 #
coedge $-1 $295 $119 $121 $205 forward $73 $-1 #
coedge $-1 $119 $295 $198 $294 reversed $73 $-1 #
coedge $-1 $296 $122 $119 $202 forward $207 $-1 #
edge $-1 $209 12.860286507070089 $297 29.847562327857961 $201 $298 forward 7 unknown #
coedge $-1 $299 $291 $120 $204 forward $196 $-1 #
edge $-1 $300 -38.003484521069034 $208 -27.217797741686127 $203 $301 forward 7 unknown #
edge $-1 $209 -12.454238219706481 $300 5.6900626353428066e-014 $121 $302 forward 7 unknown #
coedge $-1 $122 $296 $299 $303 forward $207 $-1 #
loop $-1 $-1 $201 $195 #
vertex $-1 $204 $304 #
vertex $-1 $123 $305 #
straight-curve $-1 -108.06637994753189 34.214210924534115 13.888795881174516 1 0 0 I I #
coedge $-1 $211 $211 $-1 $306 reversed $126 $-1 #
edge $-1 $307 0 $307 6.2831853071796004 $127 $308 forward 7 unknown #
vertex $-1 $130 $309 #
ellipse-curve $-1 -75.996520792180931 39.067718301902083 8.4959524914830773 -0.86602541151947299 0 0.49999998660252726 0.99999997320505452 0 1.732050823038946 1 I I #
coedge $-1 $215 $215 $-1 $310 reversed $133 $-1 #
edge $-1 $311 0 $311 6.2831853071796004 $134 $312 forward 7 unknown #
vertex $-1 $137 $313 #
ellipse-curve $-1 -75.996520792180931 46.347979367954018 8.4959524914830773 -0.86602541151947299 0 0.49999998660252726 0.99999997320505452 0 1.732050823038946 1 I I #
face $-1 $-1 $314 $29 $-1 $315 reversed single #
loop $-1 $-1 $144 $138 #
plane-surface $-1 0 0 13.888795881174516 0 0 1 1 0 0 forward_v I I I I #
coedge $-1 $316 $317 $318 $319 reversed $139 $-1 #
coedge $-1 $320 $141 $143 $229 forward $87 $-1 #
coedge $-1 $141 $320 $316 $321 forward $87 $-1 #
coedge $-1 $318 $144 $141 $226 forward $220 $-1 #
edge $-1 $232 1.1527749596629597 $322 23.509123305271611 $225 $323 forward 7 unknown #
coedge $-1 $324 $325 $142 $228 forward $314 $-1 #
edge $-1 $326 -109.26301619956752 $231 -97.205912047786413 $227 $327 forward 7 unknown #
edge $-1 $232 137.19924120038283 $326 158.22016052735987 $143 $328 forward 7 unknown #
coedge $-1 $144 $318 $324 $329 forward $220 $-1 #
vertex $-1 $228 $330 #
vertex $-1 $145 $331 #
straight-curve $-1 20.127535071343928 -13.483724092130245 13.888795881174516 -1 0 0 I I #
coedge $-1 $234 $234 $-1 $332 reversed $148 $-1 #
edge $-1 $333 0 $333 6.2831853071796004 $149 $334 forward 7 unknown #
vertex $-1 $152 $335 #
ellipse-curve $-1 70.500415798319224 -29.452544338993569 7.8602438052839902 0.57357644374324357 0 0.81915203911291934 2.0478800977822984 0 -1.4339411093581089 1 I I #
coedge $-1 $238 $238 $-1 $336 reversed $155 $-1 #
edge $-1 $337 0 $337 6.2831853071796004 $156 $338 forward 7 unknown #
vertex $-1 $159 $339 #
ellipse-curve $-1 70.500415798319224 -19.871252190875573 7.8602438052839902 0.57357644374324357 0 0.81915203911291934 2.0478800977822984 0 -1.4339411093581089 1 I I #
face $-1 $-1 $175 $24 $-1 $340 reversed single #
loop $-1 $-1 $258 $160 #
plane-surface $-1 0 51.201486745321979 0 0 -1 0 0 0 -1 forward_v I I I I #
coedge $-1 $341 $256 $259 $342 forward $161 $-1 #
coedge $-1 $262 $163 $164 $250 reversed $101 $-1 #
coedge $-1 $256 $341 $163 $248 reversed $161 $-1 #
edge $-1 $263 -13.888795881174516 $343 13.888795881174516 $247 $344 forward 7 unknown #
coedge $-1 $165 $164 $341 $345 forward $65 $-1 #
edge $-1 $254 -79.110080263679919 $343 79.110080263679919 $246 $346 forward 7 unknown #
coedge $-1 $259 $258 $165 $252 reversed $243 $-1 #
edge $-1 $347 -79.110080263679919 $253 79.110080263679919 $251 $348 forward 7 unknown #
vertex $-1 $167 $349 #
vertex $-1 $265 $350 #
straight-curve $-1 79.110080263679919 0 -13.888795881174516 0 -1 0 I I #
coedge $-1 $245 $247 $168 $257 reversed $161 $-1 #
edge $-1 $260 -51.201486745321979 $263 51.201486745321979 $256 $351 forward 7 unknown #
coedge $-1 $251 $169 $174 $266 forward $243 $-1 #
coedge $-1 $169 $251 $245 $342 reversed $243 $-1 #
vertex $-1 $170 $352 #
straight-curve $-1 0 51.201486745321979 13.888795881174516 -1 0 0 I I #
coedge $-1 $171 $246 $173 $265 reversed $101 $-1 #
vertex $-1 $257 $353 #
straight-curve $-1 0 -51.201486745321979 13.888795881174516 1 0 0 I I #
edge $-1 $176 -13.888795881174516 $254 13.888795881174516 $173 $354 forward 7 unknown #
edge $-1 $177 -13.888795881174516 $253 13.888795881174516 $174 $355 forward 7 unknown #
point $-1 79.110080263679919 -51.201486745321979 13.888795881174516 #
point $-1 79.110080263679919 51.201486745321979 13.888795881174516 #
face $-1 $-1 $356 $25 $-1 $357 reversed single #
loop $-1 $-1 $189 $179 #
plane-surface $-1 0 -51.201486745321979 0 0 1 0 0 0 1 forward_v I I I I #
coedge $-1 $358 $182 $276 $359 forward $109 $-1 #
coedge $-1 $182 $358 $360 $361 forward $109 $-1 #
edge $-1 $362 -79.110080263679919 $277 79.110080263679919 $182 $363 forward 7 unknown #
coedge $-1 $184 $183 $364 $365 reversed $69 $-1 #
coedge $-1 $185 $191 $272 $359 reversed $180 $-1 #
vertex $-1 $359 $366 #
straight-curve $-1 79.110080263679919 -35.840072437738904 -5.3142330027167439 0 0 1 I I #
coedge $-1 $364 $367 $187 $280 forward $356 $-1 #
edge $-1 $285 -29.441096949556758 $281 -14.079682641973683 $279 $368 forward 7 unknown #
vertex $-1 $280 $369 #
straight-curve $-1 0 -35.840072437738904 -7.3681361296924601 -1 0 0 I I #
coedge $-1 $370 $189 $367 $371 forward $270 $-1 #
coedge $-1 $189 $370 $191 $287 reversed $270 $-1 #
vertex $-1 $371 $372 #
straight-curve $-1 0 -51.201486745321979 -7.3681361296924601 -1 0 0 I I #
edge $-1 $193 7.3681361296924601 $373 13.888795881174516 $191 $374 forward 7 unknown #
point $-1 79.110080263679919 -35.840072437738904 -7.3681361296924601 #
point $-1 79.110080263679919 -51.201486745321979 -7.3681361296924601 #
plane-surface $-1 0 0 13.888795881174516 0 0 1 1 0 0 forward_v I I I I #
coedge $-1 $203 $375 $295 $376 forward $196 $-1 #
coedge $-1 $293 $198 $375 $377 reversed $117 $-1 #
coedge $-1 $198 $292 $296 $378 reversed $117 $-1 #
edge $-1 $297 5.9795956478414505 $379 18.433833867547989 $198 $380 forward 7 unknown #
coedge $-1 $200 $199 $291 $376 reversed $73 $-1 #
coedge $-1 $206 $201 $293 $378 forward $207 $-1 #
vertex $-1 $378 $381 #
straight-curve $-1 -72.882961320681972 21.353924417464025 13.888795881174516 0 1 0 I I #
coedge $-1 $375 $203 $206 $303 reversed $196 $-1 #
vertex $-1 $204 $382 #
straight-curve $-1 -79.110080263679919 34.214210924534115 41.106593622860643 0 0 1 I I #
straight-curve $-1 -79.11008026367989 34.214210924534115 3.1031091017916594 -0.49999998660252726 0 -0.86602541151947299 I I #
edge $-1 $383 -51.201486745321979 $208 -34.214210924534115 $299 $384 forward 7 unknown #
point $-1 -79.110080263679919 34.214210924534115 13.888795881174516 #
point $-1 -72.882961320681972 34.214210924534115 13.888795881174516 #
edge $-1 $385 1 $385 0 $211 $-1 forward 7 unknown #
vertex $-1 $212 $386 #
ellipse-curve $-1 -71.014238302922379 39.067718301902083 5.61943045789923 -0.86602541151947299 0 0.49999998660252726 0.99999997320505452 0 1.732050823038946 1 I I #
point $-1 -74.99652081897591 39.067718301902083 10.228003314522038 #
edge $-1 $387 1 $387 0 $215 $-1 forward 7 unknown #
vertex $-1 $216 $388 #
ellipse-curve $-1 -71.014238302922379 46.347979367954018 5.61943045789923 -0.86602541151947299 0 0.49999998660252726 0.99999997320505452 0 1.732050823038946 1 I I #
point $-1 -74.99652081897591 46.347979367954018 10.228003314522038 #
loop $-1 $-1 $227 $219 #
plane-surface $-1 79.110080263679919 0 0 -1 0 0 0 0 1 forward_v I I I I #
coedge $-1 $317 $222 $224 $321 reversed $139 $-1 #
coedge $-1 $222 $316 $389 $390 reversed $139 $-1 #
coedge $-1 $230 $225 $222 $319 forward $220 $-1 #
edge $-1 $322 41.763216261614602 $391 58.982545192335991 $318 $392 forward 7 unknown #
coedge $-1 $224 $223 $325 $393 reversed $87 $-1 #
edge $-1 $394 -158.22016052735987 $322 -137.19924120038283 $316 $395 forward 7 unknown #
vertex $-1 $226 $396 #
straight-curve $-1 61.890751332958523 -12.330949132467286 13.888795881174524 0 -1 0 I I #
coedge $-1 $389 $227 $230 $329 reversed $314 $-1 #
coedge $-1 $227 $389 $320 $393 forward $314 $-1 #
vertex $-1 $228 $397 #
straight-curve $-1 79.110080263679919 -13.483724092130245 111.09470792896093 0 0 1 I I #
straight-curve $-1 -50.496286861080321 -13.483724092130245 92.583048733161604 0.81915203911291934 0 -0.57357644374324357 I I #
edge $-1 $391 -35.840072437738897 $231 -13.483724092130245 $324 $398 forward 7 unknown #
point $-1 79.110080263679919 -13.483724092130245 13.888795881174516 #
point $-1 61.89075133295853 -13.483724092130245 13.888795881174516 #
edge $-1 $399 1 $399 0 $234 $-1 forward 7 unknown #
vertex $-1 $235 $400 #
ellipse-curve $-1 66.010942106252827 -29.452544338993569 1.448611023784651 0.57357644374324357 0 0.81915203911291934 2.0478800977822984 0 -1.4339411093581089 1 I I #
point $-1 72.548295896101507 -29.452544338993569 6.4263026959258625 #
edge $-1 $401 1 $401 0 $238 $-1 forward 7 unknown #
vertex $-1 $239 $402 #
ellipse-curve $-1 66.010942106252827 -19.871252190875573 1.448611023784651 0.57357644374324357 0 0.81915203911291934 2.0478800977822984 0 -1.4339411093581089 1 I I #
point $-1 72.548295896101507 -19.871252190875573 6.4263026959258625 #
plane-surface $-1 79.110080263679919 0 0 -1 0 0 0 0 1 forward_v I I I I #
coedge $-1 $247 $245 $249 $345 reversed $161 $-1 #
edge $-1 $260 -13.888795881174516 $347 13.888795881174516 $259 $403 forward 7 unknown #
vertex $-1 $345 $404 #
straight-curve $-1 -79.110080263679919 -51.201486745321979 0 0 0 -1 I I #
edge $-1 $343 -51.201486745321979 $347 51.201486745321979 $341 $405 forward 7 unknown #
straight-curve $-1 0 -51.201486745321979 -13.888795881174516 -1 0 0 I I #
vertex $-1 $252 $406 #
straight-curve $-1 0 51.201486745321979 -13.888795881174516 1 0 0 I I #
point $-1 79.110080263679919 51.201486745321979 -13.888795881174516 #
point $-1 79.110080263679919 -51.201486745321979 -13.888795881174516 #
straight-curve $-1 -79.110080263679919 0 13.888795881174516 0 -1 0 I I #
point $-1 -79.110080263679919 51.201486745321979 13.888795881174516 #
point $-1 -79.110080263679919 -51.201486745321979 13.888795881174516 #
straight-curve $-1 79.110080263679919 -51.201486745321979 0 0 0 -1 I I #
straight-curve $-1 79.110080263679919 51.201486745321979 0 0 0 -1 I I #
loop $-1 $-1 $364 $269 #
plane-surface $-1 -79.110080263679919 0 0 1 0 0 0 0 -1 forward_v I I I I #
coedge $-1 $273 $272 $370 $407 forward $109 $-1 #
edge $-1 $277 35.840072437738904 $373 51.201486745321979 $276 $408 forward 7 unknown #
coedge $-1 $367 $364 $273 $361 reversed $356 $-1 #
edge $-1 $409 -51.201486745321979 $362 -35.840072437738904 $360 $410 forward 7 unknown #
vertex $-1 $365 $411 #
straight-curve $-1 0 -35.840072437738904 -13.888795881174516 1 0 0 I I #
coedge $-1 $360 $279 $275 $365 forward $356 $-1 #
edge $-1 $281 2.0539031269757162 $362 8.5745628784577725 $364 $412 forward 7 unknown #
point $-1 79.110080263679919 -35.840072437738904 -13.888795881174516 #
coedge $-1 $279 $360 $283 $371 reversed $356 $-1 #
straight-curve $-1 -79.110080263679919 -21.760389795765221 -7.3681361296924601 0 1 0 I I #
point $-1 -79.110080263679919 -35.840072437738904 -7.3681361296924601 #
coedge $-1 $284 $283 $358 $407 reversed $270 $-1 #
edge $-1 $285 7.3681361296924601 $409 13.888795881174516 $367 $413 forward 7 unknown #
point $-1 -79.110080263679919 -51.201486745321979 -7.3681361296924601 #
vertex $-1 $287 $414 #
straight-curve $-1 79.110080263679919 -51.201486745321979 0 0 0 -1 I I #
coedge $-1 $291 $299 $292 $377 forward $196 $-1 #
edge $-1 $379 -29.847562327857961 $300 -12.860286507070089 $291 $415 forward 7 unknown #
edge $-1 $383 -13.888795881174516 $379 -3.1031091017916101 $292 $416 forward 7 unknown #
edge $-1 $297 72.882961320681972 $383 79.110080263679919 $293 $417 forward 7 unknown #
vertex $-1 $294 $418 #
straight-curve $-1 -69.893163576872709 51.201486745321979 19.067277662816455 -0.49999998660252726 0 -0.86602541151947299 I I #
point $-1 -72.882961320681972 51.201486745321986 13.888795881174516 #
point $-1 -79.110080263679919 34.214210924534115 3.1031091017916101 #
vertex $-1 $378 $419 #
straight-curve $-1 -79.110080263679919 0 13.888795881174516 0 -1 0 I I #
vertex $-1 $306 $420 #
point $-1 -70.01423832971733 39.067718301902083 7.3514812809381755 #
vertex $-1 $310 $421 #
point $-1 -70.01423832971733 46.347979367954018 7.3514812809381755 #
coedge $-1 $325 $324 $317 $390 forward $314 $-1 #
edge $-1 $391 97.205912047786413 $394 109.26301619956752 $389 $422 forward 7 unknown #
vertex $-1 $329 $423 #
straight-curve $-1 20.127535071343928 -35.840072437738897 13.888795881174516 1 0 0 I I #
edge $-1 $394 -23.509123305271611 $326 -1.1527749596629597 $325 $424 forward 7 unknown #
vertex $-1 $393 $425 #
straight-curve $-1 -50.496286861080321 -35.840072437738897 92.583048733161604 -0.81915203911291934 0 0.57357644374324357 I I #
point $-1 61.89075133295853 -35.840072437738897 13.888795881174516 #
point $-1 79.110080263679933 -13.483724092130245 1.8316917293934125 #
straight-curve $-1 79.110080263679919 0 13.888795881174516 0 1 0 I I #
vertex $-1 $332 $426 #
point $-1 68.058822204035124 -29.452544338993569 0.014669914426542086 #
vertex $-1 $336 $427 #
point $-1 68.058822204035124 -19.871252190875573 0.014669914426542086 #
straight-curve $-1 -79.110080263679919 51.201486745321979 0 0 0 -1 I I #
point $-1 -79.110080263679919 -51.201486745321979 -13.888795881174516 #
straight-curve $-1 -79.110080263679919 0 -13.888795881174516 0 1 0 I I #
point $-1 -79.110080263679919 51.201486745321979 -13.888795881174516 #
edge $-1 $373 -79.110080263679919 $409 79.110080263679919 $370 $428 forward 7 unknown #
straight-curve $-1 79.110080263679919 0 -13.888795881174516 0 -1 0 I I #
vertex $-1 $361 $429 #
straight-curve $-1 -79.110080263679919 0 -13.888795881174516 0 1 0 I I #
point $-1 -79.110080263679919 -35.840072437738904 -13.888795881174516 #
straight-curve $-1 -79.110080263679919 -35.840072437738904 -5.3142330027167439 0 0 -1 I I #
straight-curve $-1 -79.110080263679919 -51.201486745321979 0 0 0 -1 I I #
point $-1 79.110080263679919 -51.201486745321979 -13.888795881174516 #
straight-curve $-1 -79.110080263679919 21.353924417464025 3.1031091017916079 0 -1 0 I I #
straight-curve $-1 -79.110080263679919 51.201486745321979 0 0 0 -1 I I #
straight-curve $-1 0 51.201486745321979 13.888795881174516 -1 0 0 I I #
point $-1 -79.110080263679919 51.201486745321986 3.1031091017916101 #
point $-1 -79.110080263679919 51.201486745321979 13.888795881174516 #
point $-1 -69.282187479883433 39.067718301902083 4.6194304846941749 #
point $-1 -69.282187479883433 46.347979367954018 4.6194304846941749 #
straight-curve $-1 79.110080263679919 -35.840072437738897 111.09470792896093 0 0 -1 I I #
point $-1 79.110080263679919 -35.840072437738897 13.888795881174516 #
straight-curve $-1 79.110080263679933 -12.330949132467286 1.8316917293934196 0 1 0 I I #
point $-1 79.110080263679933 -35.840072437738897 1.8316917293934125 #
point $-1 64.577000996894725 -29.452544338993569 -0.59926907399764739 #
point $-1 64.577000996894725 -19.871252190875573 -0.59926907399764739 #
straight-curve $-1 0 -51.201486745321979 -13.888795881174516 -1 0 0 I I #
point $-1 -79.110080263679919 -51.201486745321979 -13.888795881174516 #
End-of-ACIS-data 