500 0 7 0           
7 Unknown 11 ACIS 5.0 NT 24 Fri Mar 26 00:46:43 1999 
-1 9.9999999999999995e-007 1e-010 
body $-1 $7 $-1 $8 #
body $-1 $9 $-1 $10 #
body $-1 $11 $-1 $12 #
body $-1 $13 $-1 $14 #
body $-1 $15 $-1 $16 #
body $-1 $17 $-1 $18 #
body $-1 $19 $-1 $20 #
lump $-1 $-1 $21 $0 #
transform $-1 1 0 0 0 1 0 0 0 1 72.958769493697929 41.59854447898681 11.268308993667011 1 rotate no_reflect no_shear #
lump $-1 $-1 $22 $1 #
transform $-1 1 0 0 0 1 0 0 0 1 72.958769493697929 41.59854447898681 11.268308993667011 1 rotate no_reflect no_shear #
lump $-1 $-1 $23 $2 #
transform $-1 1 0 0 0 1 0 0 0 1 72.958769493697929 41.59854447898681 11.268308993667011 1 rotate no_reflect no_shear #
lump $-1 $-1 $24 $3 #
transform $-1 1 0 0 0 1 0 0 0 1 72.958769493697929 41.59854447898681 11.268308993667011 1 rotate no_reflect no_shear #
lump $-1 $-1 $25 $4 #
transform $-1 1 0 0 0 1 0 0 0 1 72.958769493697929 41.59854447898681 11.268308993667011 1 rotate no_reflect no_shear #
lump $-1 $-1 $26 $5 #
transform $-1 1 0 0 0 1 0 0 0 1 72.958769493697929 41.59854447898681 11.268308993667011 1 rotate no_reflect no_shear #
lump $-1 $-1 $27 $6 #
transform $-1 1 0 0 0 1 0 0 0 1 72.958769493697929 41.59854447898681 11.268308993667011 1 rotate no_reflect no_shear #
shell $-1 $-1 $-1 $28 $-1 $7 #
shell $-1 $-1 $-1 $29 $-1 $9 #
shell $-1 $-1 $-1 $30 $-1 $11 #
shell $-1 $-1 $-1 $31 $-1 $13 #
shell $-1 $-1 $-1 $32 $-1 $15 #
shell $-1 $-1 $-1 $33 $-1 $17 #
shell $-1 $-1 $-1 $34 $-1 $19 #
face $-1 $35 $36 $21 $-1 $37 forward single #
face $-1 $38 $39 $22 $-1 $40 forward single #
face $-1 $41 $42 $23 $-1 $43 reversed single #
face $-1 $44 $45 $24 $-1 $46 forward single #
face $-1 $47 $48 $25 $-1 $49 reversed single #
face $-1 $50 $51 $26 $-1 $52 forward single #
face $-1 $53 $54 $27 $-1 $55 forward single #
face $-1 $56 $57 $21 $-1 $58 reversed single #
loop $-1 $-1 $59 $28 #
plane-surface $-1 0 0 11.268308993667011 0 0 1 1 0 0 forward_v I I I I #
face $-1 $60 $61 $22 $-1 $62 reversed single #
loop $-1 $-1 $63 $29 #
plane-surface $-1 0 -41.59854447898681 0 0 1 0 0 0 1 forward_v I I I I #
face $-1 $64 $65 $23 $-1 $66 reversed single #
loop $-1 $-1 $67 $30 #
plane-surface $-1 19.549244908406521 32.299688997604804 202.722505019138 0 1 0 0.50000000669873634 0 0.8660253999169214 forward_v I I I I #
face $-1 $68 $69 $24 $-1 $70 forward single #
loop $-1 $71 $72 $31 #
cone-surface $-1 65.663309353592467 36.9491167382958 6.5050706723695626 -0.50000000669873634 0 -0.8660253999169214 0.8660253999169214 0 -0.50000000669873634 1 I I 0 1 1 forward I I I I #
face $-1 $73 $74 $25 $-1 $75 reversed single #
loop $-1 $-1 $76 $32 #
plane-surface $-1 -156.65363258585455 30.258900826784902 120.64170575703861 0 1 0 -0.57357644374324357 0 0.81915203911291934 forward_v I I I I #
face $-1 $77 $78 $26 $-1 $79 forward single #
loop $-1 $80 $81 $33 #
cone-surface $-1 -65.17201395058153 33.498799013128291 5.4264039962009303 0.57357644374324357 0 -0.81915203911291934 0.81915203911291934 0 0.57357644374324357 1 I I 0 1 1 forward I I I I #
face $-1 $82 $83 $27 $-1 $84 forward single #
loop $-1 $85 $86 $34 #
cone-surface $-1 -65.17201395058153 38.358646292643385 5.4264039962009303 0.57357644374324357 0 -0.81915203911291934 0.81915203911291934 0 0.57357644374324357 1 I I 0 1 1 forward I I I I #
face $-1 $87 $88 $21 $-1 $89 reversed single #
loop $-1 $-1 $90 $35 #
plane-surface $-1 0 0 -11.268308993667011 0 0 1 1 0 0 forward_v I I I I #
coedge $-1 $91 $92 $93 $94 forward $36 $-1 #
face $-1 $95 $96 $22 $-1 $97 reversed single #
loop $-1 $-1 $98 $38 #
plane-surface $-1 0 0 -11.268308993667011 0 0 1 1 0 0 forward_v I I I I #
coedge $-1 $99 $100 $101 $102 forward $39 $-1 #
face $-1 $103 $104 $23 $-1 $105 reversed single #
loop $-1 $-1 $106 $41 #
plane-surface $-1 -53.409525562754524 36.9491167382958 76.35420996268553 0.50000000669873634 0 0.8660253999169214 0.8660253999169214 0 -0.50000000669873634 forward_v I I I I #
coedge $-1 $107 $108 $109 $110 reversed $42 $-1 #
face $-1 $-1 $111 $24 $-1 $112 forward single #
loop $-1 $113 $114 $44 #
cone-surface $-1 64.935954077878932 36.9491167382958 5.2452544021849281 -0.50000000669873634 0 -0.8660253999169214 0.4330126999584607 0 -0.25000000334936817 1 I I -0.70710678118654746 0.70710678118654746 0.5 forward I I I I #
loop $-1 $-1 $115 $31 #
coedge $-1 $72 $72 $116 $117 reversed $45 $-1 #
face $-1 $118 $119 $25 $-1 $120 reversed single #
loop $-1 $-1 $121 $47 #
plane-surface $-1 -72.958769493697943 35.928722652885853 1.1130561531743837 -0.57357644374324357 0 0.81915203911291934 0.81915203911291934 0 0.57357644374324357 forward_v I I I I #
coedge $-1 $122 $123 $124 $125 reversed $48 $-1 #
face $-1 $-1 $126 $26 $-1 $127 forward single #
loop $-1 $128 $129 $50 #
cone-surface $-1 -64.350072097369889 33.498799013128291 4.2525493994247014 0.57357644374324357 0 -0.81915203911291934 0.40957601955645967 0 0.28678822187162178 1 I I -0.70710678118654746 0.70710678118654746 0.5 forward I I I I #
loop $-1 $-1 $130 $33 #
coedge $-1 $81 $81 $131 $132 reversed $51 $-1 #
face $-1 $-1 $133 $27 $-1 $134 forward single #
loop $-1 $135 $136 $53 #
cone-surface $-1 -64.350072097369889 38.358646292643385 4.2525493994247014 0.57357644374324357 0 -0.81915203911291934 0.40957601955645967 0 0.28678822187162178 1 I I -0.70710678118654746 0.70710678118654746 0.5 forward I I I I #
loop $-1 $-1 $137 $34 #
coedge $-1 $86 $86 $138 $139 reversed $54 $-1 #
face $-1 $140 $141 $21 $-1 $142 reversed single #
loop $-1 $-1 $143 $56 #
plane-surface $-1 0 -41.59854447898681 0 0 1 0 0 0 1 forward_v I I I I #
coedge $-1 $144 $145 $146 $147 forward $57 $-1 #
coedge $-1 $148 $59 $149 $150 forward $36 $-1 #
coedge $-1 $59 $148 $151 $152 forward $36 $-1 #
coedge $-1 $153 $154 $59 $94 reversed $155 $-1 #
edge $-1 $156 -41.59854447898681 $157 41.59854447898681 $93 $158 forward 7 unknown #
face $-1 $159 $160 $22 $-1 $161 reversed single #
loop $-1 $-1 $162 $60 #
plane-surface $-1 -53.990130209566402 -52.690278689002952 0 0 1 0 0 0 1 forward_v I I I I #
coedge $-1 $163 $164 $100 $165 forward $61 $-1 #
coedge $-1 $166 $63 $167 $168 reversed $39 $-1 #
coedge $-1 $63 $166 $98 $165 reversed $39 $-1 #
coedge $-1 $169 $170 $63 $102 reversed $160 $-1 #
edge $-1 $171 -11.268308993667011 $172 11.268308993667011 $101 $173 forward 7 unknown #
face $-1 $174 $175 $23 $-1 $176 forward single #
loop $-1 $-1 $177 $64 #
plane-surface $-1 0 41.59854447898681 0 0 -1 0 0 0 -1 forward_v I I I I #
coedge $-1 $178 $179 $180 $181 reversed $65 $-1 #
coedge $-1 $108 $67 $182 $183 reversed $42 $-1 #
coedge $-1 $67 $107 $178 $184 reversed $42 $-1 #
coedge $-1 $180 $185 $67 $110 forward $186 $-1 #
edge $-1 $187 90.092943515901993 $188 97.9658130180445 $109 $189 forward 7 unknown #
loop $-1 $-1 $116 $68 #
plane-surface $-1 -53.409525562754524 36.9491167382958 76.35420996268553 0.50000000669873634 0 0.8660253999169214 0.8660253999169214 0 -0.50000000669873634 forward_v I I I I #
loop $-1 $-1 $190 $44 #
coedge $-1 $114 $114 $115 $191 reversed $69 $-1 #
coedge $-1 $115 $115 $114 $191 forward $71 $-1 #
coedge $-1 $116 $116 $72 $117 forward $111 $-1 #
edge $-1 $192 0 $192 6.2831853071796004 $116 $193 forward 7 unknown #
face $-1 $194 $195 $25 $-1 $196 reversed single #
loop $-1 $-1 $197 $73 #
plane-surface $-1 0 41.59854447898681 0 0 -1 0 0 0 -1 forward_v I I I I #
coedge $-1 $198 $199 $200 $201 reversed $74 $-1 #
coedge $-1 $123 $76 $202 $203 reversed $48 $-1 #
coedge $-1 $76 $122 $198 $204 reversed $48 $-1 #
coedge $-1 $200 $205 $76 $125 forward $206 $-1 #
edge $-1 $207 5.3680467992293472 $208 19.871250622782085 $124 $209 forward 7 unknown #
loop $-1 $-1 $131 $77 #
plane-surface $-1 -72.958769493697943 35.928722652885853 1.1130561531743837 -0.57357644374324357 0 0.81915203911291934 0.81915203911291934 0 0.57357644374324357 forward_v I I I I #
loop $-1 $-1 $210 $50 #
coedge $-1 $129 $129 $130 $211 reversed $78 $-1 #
coedge $-1 $130 $130 $129 $211 forward $80 $-1 #
coedge $-1 $131 $131 $81 $132 forward $126 $-1 #
edge $-1 $212 0 $212 6.2831853071796004 $131 $213 forward 7 unknown #
loop $-1 $-1 $138 $82 #
plane-surface $-1 -72.958769493697943 35.928722652885853 1.1130561531743837 -0.57357644374324357 0 0.81915203911291934 0.81915203911291934 0 0.57357644374324357 forward_v I I I I #
loop $-1 $-1 $214 $53 #
coedge $-1 $136 $136 $137 $215 reversed $83 $-1 #
coedge $-1 $137 $137 $136 $215 forward $85 $-1 #
coedge $-1 $138 $138 $86 $139 forward $133 $-1 #
edge $-1 $216 0 $216 6.2831853071796004 $138 $217 forward 7 unknown #
face $-1 $218 $219 $21 $-1 $220 reversed single #
loop $-1 $-1 $221 $87 #
plane-surface $-1 -72.958769493697929 0 0 1 0 0 0 0 -1 forward_v I I I I #
coedge $-1 $222 $151 $223 $224 forward $88 $-1 #
coedge $-1 $225 $90 $222 $226 forward $57 $-1 #
coedge $-1 $90 $225 $227 $228 forward $57 $-1 #
coedge $-1 $154 $153 $90 $147 reversed $155 $-1 #
edge $-1 $229 -41.59854447898681 $230 41.59854447898681 $146 $231 forward 7 unknown #
coedge $-1 $92 $91 $232 $233 forward $36 $-1 #
coedge $-1 $234 $235 $91 $150 reversed $219 $-1 #
edge $-1 $157 -72.958769493697929 $236 72.958769493697929 $149 $237 forward 7 unknown #
coedge $-1 $143 $238 $92 $152 reversed $88 $-1 #
edge $-1 $239 -72.958769493697929 $156 72.958769493697929 $151 $240 forward 7 unknown #
coedge $-1 $146 $93 $238 $241 forward $155 $-1 #
coedge $-1 $93 $146 $234 $242 reversed $155 $-1 #
loop $-1 $-1 $153 $218 #
vertex $-1 $94 $243 #
vertex $-1 $94 $244 #
straight-curve $-1 72.958769493697929 0 11.268308993667011 0 1 0 I I #
face $-1 $245 $246 $22 $-1 $247 reversed single #
loop $-1 $-1 $101 $95 #
plane-surface $-1 -56.403667396683112 -47.144411583994881 0 1 0 0 0 0 -1 forward_v I I I I #
coedge $-1 $248 $249 $250 $251 forward $96 $-1 #
coedge $-1 $252 $98 $253 $254 forward $61 $-1 #
coedge $-1 $98 $252 $169 $255 forward $61 $-1 #
edge $-1 $171 -56.403667396683112 $256 -51.576593022449693 $98 $257 forward 7 unknown #
coedge $-1 $100 $99 $258 $259 forward $39 $-1 #
coedge $-1 $260 $261 $99 $168 forward $262 $-1 #
edge $-1 $263 51.576593022449693 $172 56.403667396683112 $167 $264 forward 7 unknown #
coedge $-1 $250 $101 $164 $255 reversed $160 $-1 #
coedge $-1 $101 $250 $260 $265 reversed $160 $-1 #
vertex $-1 $165 $266 #
vertex $-1 $265 $267 #
straight-curve $-1 -56.403667396683112 -41.59854447898681 0 0 0 1 I I #
face $-1 $-1 $186 $23 $-1 $268 reversed single #
loop $-1 $-1 $269 $103 #
plane-surface $-1 0 0 11.268308993667011 0 0 1 1 0 0 forward_v I I I I #
coedge $-1 $270 $271 $179 $272 forward $104 $-1 #
coedge $-1 $273 $106 $108 $184 forward $65 $-1 #
coedge $-1 $106 $273 $177 $272 reversed $65 $-1 #
coedge $-1 $274 $109 $106 $181 forward $186 $-1 #
edge $-1 $188 13.825130628456904 $275 23.12398610983891 $180 $276 forward 7 unknown #
coedge $-1 $277 $269 $107 $183 forward $175 $-1 #
edge $-1 $278 49.547937304012002 $187 63.184147039494668 $182 $279 forward 7 unknown #
edge $-1 $188 -145.91753898739583 $278 -130.17180019406393 $108 $280 forward 7 unknown #
coedge $-1 $109 $274 $277 $281 reversed $186 $-1 #
loop $-1 $-1 $180 $174 #
vertex $-1 $281 $282 #
vertex $-1 $110 $283 #
straight-curve $-1 72.958769493697929 32.299688997604804 101.361252509569 0 0 -1 I I #
coedge $-1 $190 $190 $-1 $284 reversed $113 $-1 #
edge $-1 $285 0 $285 6.2831853071796004 $114 $286 forward 7 unknown #
vertex $-1 $117 $287 #
ellipse-curve $-1 66.140664625956632 36.9491167382958 7.3318742425957382 0.50000000669873634 0 0.8660253999169214 0.8660253999169214 0 -0.50000000669873634 1 I I #
face $-1 $-1 $206 $25 $-1 $288 forward single #
loop $-1 $-1 $289 $118 #
plane-surface $-1 -72.958769493697929 0 0 1 0 0 0 0 -1 forward_v I I I I #
coedge $-1 $290 $291 $199 $292 forward $119 $-1 #
coedge $-1 $293 $121 $123 $204 forward $74 $-1 #
coedge $-1 $121 $293 $197 $292 reversed $74 $-1 #
coedge $-1 $294 $124 $121 $201 forward $206 $-1 #
edge $-1 $208 12.294539500341976 $295 23.634183152543876 $200 $296 forward 7 unknown #
coedge $-1 $297 $289 $122 $203 forward $195 $-1 #
edge $-1 $298 -59.207796725344913 $207 -49.052543884852291 $202 $299 forward 7 unknown #
edge $-1 $208 -17.705142795296759 $298 -1.7372030585532449e-014 $123 $300 forward 7 unknown #
coedge $-1 $124 $294 $297 $301 forward $206 $-1 #
loop $-1 $-1 $200 $194 #
vertex $-1 $203 $302 #
vertex $-1 $125 $303 #
straight-curve $-1 -78.326816292927276 30.258900826784902 11.268308993667013 1 0 0 I I #
coedge $-1 $210 $210 $-1 $304 reversed $128 $-1 #
edge $-1 $305 0 $305 6.2831853071796004 $129 $306 forward 7 unknown #
vertex $-1 $132 $307 #
ellipse-curve $-1 -65.707167581921553 33.498799013128291 6.1906825734207054 -0.57357644374324357 0 0.81915203911291934 0.81915203911291934 0 0.57357644374324357 1 I I #
coedge $-1 $214 $214 $-1 $308 reversed $135 $-1 #
edge $-1 $309 0 $309 6.2831853071796004 $136 $310 forward 7 unknown #
vertex $-1 $139 $311 #
ellipse-curve $-1 -65.707167581921553 38.358646292643385 6.1906825734207054 -0.57357644374324357 0 0.81915203911291934 0.81915203911291934 0 0.57357644374324357 1 I I #
face $-1 $-1 $155 $21 $-1 $312 reversed single #
loop $-1 $-1 $234 $140 #
plane-surface $-1 0 41.59854447898681 0 0 -1 0 0 0 -1 forward_v I I I I #
coedge $-1 $313 $232 $235 $314 forward $141 $-1 #
coedge $-1 $238 $143 $144 $226 reversed $88 $-1 #
coedge $-1 $232 $313 $143 $224 reversed $141 $-1 #
edge $-1 $239 -11.268308993667011 $315 11.268308993667011 $223 $316 forward 7 unknown #
coedge $-1 $145 $144 $313 $317 forward $57 $-1 #
edge $-1 $230 -72.958769493697929 $315 72.958769493697929 $222 $318 forward 7 unknown #
coedge $-1 $235 $234 $145 $228 reversed $219 $-1 #
edge $-1 $319 -72.958769493697929 $229 72.958769493697929 $227 $320 forward 7 unknown #
vertex $-1 $147 $321 #
vertex $-1 $241 $322 #
straight-curve $-1 72.958769493697929 0 -11.268308993667011 0 -1 0 I I #
coedge $-1 $221 $223 $148 $233 reversed $141 $-1 #
edge $-1 $236 -41.59854447898681 $239 41.59854447898681 $232 $323 forward 7 unknown #
coedge $-1 $227 $149 $154 $242 forward $219 $-1 #
coedge $-1 $149 $227 $221 $314 reversed $219 $-1 #
vertex $-1 $150 $324 #
straight-curve $-1 0 41.59854447898681 11.268308993667011 -1 0 0 I I #
coedge $-1 $151 $222 $153 $241 reversed $88 $-1 #
vertex $-1 $233 $325 #
straight-curve $-1 0 -41.59854447898681 11.268308993667011 1 0 0 I I #
edge $-1 $156 -11.268308993667011 $230 11.268308993667011 $153 $326 forward 7 unknown #
edge $-1 $157 -11.268308993667011 $229 11.268308993667011 $154 $327 forward 7 unknown #
point $-1 72.958769493697929 -41.59854447898681 11.268308993667011 #
point $-1 72.958769493697929 41.59854447898681 11.268308993667011 #
face $-1 $-1 $262 $22 $-1 $328 forward single #
loop $-1 $-1 $329 $159 #
plane-surface $-1 -51.576593022449693 -47.144411583994881 0 -1 0 0 0 0 1 forward_v I I I I #
coedge $-1 $330 $162 $252 $331 reversed $96 $-1 #
coedge $-1 $162 $330 $332 $333 reversed $96 $-1 #
coedge $-1 $170 $169 $162 $251 reversed $160 $-1 #
edge $-1 $334 -11.268308993667011 $335 11.268308993667011 $250 $336 forward 7 unknown #
coedge $-1 $164 $163 $248 $331 forward $61 $-1 #
coedge $-1 $258 $329 $163 $254 reversed $246 $-1 #
edge $-1 $256 -5.545867105008071 $337 5.545867105008071 $253 $338 forward 7 unknown #
edge $-1 $335 -5.545867105008071 $171 5.545867105008071 $169 $339 forward 7 unknown #
vertex $-1 $254 $340 #
straight-curve $-1 0 -41.59854447898681 -11.268308993667011 1 0 0 I I #
coedge $-1 $341 $253 $166 $259 reversed $246 $-1 #
edge $-1 $263 -11.268308993667011 $256 11.268308993667011 $258 $342 forward 7 unknown #
coedge $-1 $332 $167 $170 $265 forward $262 $-1 #
coedge $-1 $167 $332 $341 $343 forward $262 $-1 #
loop $-1 $-1 $167 $245 #
vertex $-1 $168 $344 #
straight-curve $-1 0 -41.59854447898681 11.268308993667011 -1 0 0 I I #
edge $-1 $172 -5.545867105008071 $334 5.545867105008071 $170 $345 forward 7 unknown #
point $-1 -56.403667396683112 -41.59854447898681 -11.268308993667011 #
point $-1 -56.403667396683112 -41.59854447898681 11.268308993667011 #
plane-surface $-1 72.958769493697929 0 0 -1 0 0 0 0 1 forward_v I I I I #
coedge $-1 $182 $346 $273 $347 forward $175 $-1 #
coedge $-1 $271 $177 $346 $348 reversed $104 $-1 #
coedge $-1 $177 $270 $274 $349 forward $104 $-1 #
edge $-1 $275 -103.70198337355734 $350 -87.956244580225416 $177 $351 forward 7 unknown #
coedge $-1 $179 $178 $269 $347 reversed $65 $-1 #
coedge $-1 $185 $180 $271 $349 reversed $186 $-1 #
vertex $-1 $181 $352 #
straight-curve $-1 72.958769493697915 18.4745583691479 3.3954394915244919 0 1 0 I I #
coedge $-1 $346 $182 $185 $281 forward $175 $-1 #
vertex $-1 $183 $353 #
straight-curve $-1 9.7746224542032607 32.299688997604804 11.268308993667006 1 0 0 I I #
straight-curve $-1 -53.409525562754524 32.299688997604804 76.35420996268553 -0.8660253999169214 0 0.50000000669873634 I I #
edge $-1 $187 32.299688997604804 $354 41.59854447898681 $185 $355 forward 7 unknown #
point $-1 72.958769493697929 32.299688997604804 11.268308993667011 #
point $-1 72.958769493697915 32.299688997604804 3.395439491524499 #
edge $-1 $356 1 $356 0 $190 $-1 forward 7 unknown #
vertex $-1 $191 $357 #
ellipse-curve $-1 65.185954081228303 36.9491167382958 5.6782671021433888 0.50000000669873634 0 0.8660253999169214 0.8660253999169214 0 -0.50000000669873634 1 I I #
point $-1 67.006690025873553 36.9491167382958 6.8318742358970006 #
plane-surface $-1 0 0 11.268308993667011 0 0 1 1 0 0 forward_v I I I I #
coedge $-1 $202 $358 $293 $359 forward $195 $-1 #
coedge $-1 $291 $197 $358 $360 reversed $119 $-1 #
coedge $-1 $197 $290 $294 $361 reversed $119 $-1 #
edge $-1 $295 11.857808210657153 $362 29.562951005953892 $197 $363 forward 7 unknown #
coedge $-1 $199 $198 $289 $359 reversed $74 $-1 #
coedge $-1 $205 $200 $291 $361 forward $206 $-1 #
vertex $-1 $361 $364 #
straight-curve $-1 -58.455565670145184 17.964361326442926 11.268308993667011 0 1 0 I I #
coedge $-1 $358 $202 $205 $301 reversed $195 $-1 #
vertex $-1 $203 $365 #
straight-curve $-1 -72.958769493697929 30.258900826784902 60.320852878519304 0 0 1 I I #
straight-curve $-1 -72.958769493697943 30.258900826784902 1.1130561531743837 -0.81915203911291934 0 -0.57357644374324357 I I #
edge $-1 $366 -41.59854447898681 $207 -30.258900826784902 $297 $367 forward 7 unknown #
point $-1 -72.958769493697929 30.258900826784902 11.268308993667011 #
point $-1 -58.455565670145191 30.258900826784902 11.268308993667011 #
edge $-1 $368 1 $368 0 $210 $-1 forward 7 unknown #
vertex $-1 $211 $369 #
ellipse-curve $-1 -64.636860319241507 33.498799013128291 4.6621254189811614 -0.57357644374324357 0 0.81915203911291934 0.81915203911291934 0 0.57357644374324357 1 I I #
point $-1 -64.888015542808631 33.498799013128291 6.7642590171639432 #
edge $-1 $370 1 $370 0 $214 $-1 forward 7 unknown #
vertex $-1 $215 $371 #
ellipse-curve $-1 -64.636860319241507 38.358646292643385 4.6621254189811614 -0.57357644374324357 0 0.81915203911291934 0.81915203911291934 0 0.57357644374324357 1 I I #
point $-1 -64.888015542808631 38.358646292643385 6.7642590171639432 #
plane-surface $-1 72.958769493697929 0 0 -1 0 0 0 0 1 forward_v I I I I #
coedge $-1 $223 $221 $225 $317 reversed $141 $-1 #
edge $-1 $236 -11.268308993667011 $319 11.268308993667011 $235 $372 forward 7 unknown #
vertex $-1 $317 $373 #
straight-curve $-1 -72.958769493697929 -41.59854447898681 0 0 0 -1 I I #
edge $-1 $315 -41.59854447898681 $319 41.59854447898681 $313 $374 forward 7 unknown #
straight-curve $-1 0 -41.59854447898681 -11.268308993667011 -1 0 0 I I #
vertex $-1 $228 $375 #
straight-curve $-1 0 41.59854447898681 -11.268308993667011 1 0 0 I I #
point $-1 72.958769493697929 41.59854447898681 -11.268308993667011 #
point $-1 72.958769493697929 -41.59854447898681 -11.268308993667011 #
straight-curve $-1 -72.958769493697929 0 11.268308993667011 0 -1 0 I I #
point $-1 -72.958769493697929 41.59854447898681 11.268308993667011 #
point $-1 -72.958769493697929 -41.59854447898681 11.268308993667011 #
straight-curve $-1 72.958769493697929 -41.59854447898681 0 0 0 -1 I I #
straight-curve $-1 72.958769493697929 41.59854447898681 0 0 0 -1 I I #
plane-surface $-1 0 0 11.268308993667011 0 0 1 1 0 0 forward_v I I I I #
coedge $-1 $253 $341 $330 $376 forward $246 $-1 #
coedge $-1 $249 $248 $329 $376 reversed $96 $-1 #
edge $-1 $337 -2.4135371871167095 $335 2.4135371871167095 $248 $377 forward 7 unknown #
coedge $-1 $261 $260 $249 $333 forward $262 $-1 #
edge $-1 $334 -2.4135371871167095 $378 2.4135371871167095 $249 $379 forward 7 unknown #
vertex $-1 $265 $380 #
vertex $-1 $255 $381 #
straight-curve $-1 -56.403667396683112 -52.690278689002952 0 0 0 -1 I I #
vertex $-1 $376 $382 #
straight-curve $-1 -51.576593022449693 -47.144411583994881 -11.268308993667011 0 -1 0 I I #
straight-curve $-1 -56.403667396683112 -47.144411583994881 -11.268308993667011 0 1 0 I I #
point $-1 -51.576593022449693 -41.59854447898681 -11.268308993667011 #
coedge $-1 $329 $258 $261 $343 reversed $246 $-1 #
straight-curve $-1 -51.576593022449693 -41.59854447898681 0 0 0 -1 I I #
edge $-1 $378 -5.545867105008071 $263 5.545867105008071 $341 $383 forward 7 unknown #
point $-1 -51.576593022449693 -41.59854447898681 11.268308993667011 #
straight-curve $-1 -56.403667396683112 -47.144411583994881 11.268308993667011 0 -1 0 I I #
coedge $-1 $269 $277 $270 $348 forward $175 $-1 #
edge $-1 $350 -23.123986109838896 $278 -13.825130628456904 $269 $384 forward 7 unknown #
edge $-1 $354 -72.958769493697929 $350 -59.322559758215263 $270 $385 forward 7 unknown #
edge $-1 $354 -11.268308993667011 $275 -3.3954394915244879 $274 $386 forward 7 unknown #
vertex $-1 $347 $387 #
straight-curve $-1 -16.849782129565 41.59854447898681 55.2464318729754 -0.8660253999169214 0 0.50000000669873634 I I #
point $-1 72.958769493697929 41.59854447898681 3.3954394915244879 #
point $-1 59.322559758215263 32.299688997604804 11.268308993667006 #
vertex $-1 $281 $388 #
straight-curve $-1 72.958769493697929 0 11.268308993667011 0 1 0 I I #
vertex $-1 $284 $389 #
point $-1 66.051979481145224 36.9491167382958 5.1782670954446521 #
coedge $-1 $289 $297 $290 $360 forward $195 $-1 #
edge $-1 $362 -23.634183152543876 $298 -12.294539500341976 $289 $390 forward 7 unknown #
edge $-1 $366 -11.268308993667011 $362 -1.1130561531743937 $290 $391 forward 7 unknown #
edge $-1 $295 58.455565670145191 $366 72.958769493697929 $291 $392 forward 7 unknown #
vertex $-1 $359 $393 #
straight-curve $-1 -48.742217894975468 41.59854447898681 18.069668457725175 -0.81915203911291934 0 -0.57357644374324357 I I #
point $-1 -58.455565670145191 41.598544478986803 11.268308993667011 #
point $-1 -72.958769493697929 30.258900826784902 1.1130561531743937 #
vertex $-1 $361 $394 #
straight-curve $-1 -72.958769493697929 0 11.268308993667011 0 -1 0 I I #
vertex $-1 $304 $395 #
point $-1 -63.817708280128592 33.498799013128291 5.2357018627244045 #
vertex $-1 $308 $396 #
point $-1 -63.817708280128592 38.358646292643385 5.2357018627244045 #
straight-curve $-1 -72.958769493697929 41.59854447898681 0 0 0 -1 I I #
point $-1 -72.958769493697929 -41.59854447898681 -11.268308993667011 #
straight-curve $-1 -72.958769493697929 0 -11.268308993667011 0 1 0 I I #
point $-1 -72.958769493697929 41.59854447898681 -11.268308993667011 #
edge $-1 $378 -11.268308993667011 $337 11.268308993667011 $329 $397 forward 7 unknown #
straight-curve $-1 -53.990130209566402 -52.690278689002952 -11.268308993667011 -1 0 0 I I #
vertex $-1 $343 $398 #
straight-curve $-1 -53.990130209566402 -52.690278689002952 11.268308993667011 1 0 0 I I #
point $-1 -56.403667396683112 -52.690278689002952 11.268308993667011 #
point $-1 -56.403667396683112 -52.690278689002952 -11.268308993667011 #
point $-1 -51.576593022449693 -52.690278689002952 -11.268308993667011 #
straight-curve $-1 -51.576593022449693 -47.144411583994881 11.268308993667011 0 1 0 I I #
straight-curve $-1 59.322559758215256 18.4745583691479 11.26830899366702 0 -1 0 I I #
straight-curve $-1 0 41.59854447898681 11.268308993667011 -1 0 0 I I #
straight-curve $-1 72.958769493697929 41.59854447898681 0 0 0 -1 I I #
point $-1 59.322559758215263 41.598544478986796 11.268308993667006 #
point $-1 72.958769493697929 41.59854447898681 11.268308993667011 #
point $-1 64.685954074529562 36.9491167382958 4.8122417022264674 #
straight-curve $-1 -72.958769493697929 17.964361326442926 1.1130561531743841 0 -1 0 I I #
straight-curve $-1 -72.958769493697929 41.59854447898681 0 0 0 -1 I I #
straight-curve $-1 0 41.59854447898681 11.268308993667011 -1 0 0 I I #
point $-1 -72.958769493697929 41.598544478986803 1.1130561531743937 #
point $-1 -72.958769493697929 41.59854447898681 11.268308993667011 #
point $-1 -64.063283875498271 33.498799013128291 3.8429733798682419 #
point $-1 -64.063283875498271 38.358646292643385 3.8429733798682419 #
straight-curve $-1 -51.576593022449693 -52.690278689002952 0 0 0 -1 I I #
point $-1 -51.576593022449693 -52.690278689002952 11.268308993667011 #
End-of-ACIS-data 