500 0 5 0           
7 Unknown 11 ACIS 5.0 NT 24 Fri Mar 26 01:48:06 1999 
-1 9.9999999999999995e-007 1e-010 
body $-1 $5 $-1 $6 #
body $-1 $7 $-1 $8 #
body $-1 $9 $-1 $10 #
body $-1 $11 $-1 $12 #
body $-1 $13 $-1 $14 #
lump $-1 $-1 $15 $0 #
transform $-1 1 0 0 0 1 0 0 0 1 56.555681020538955 27.842199350273628 5.9528452469907833 1 rotate no_reflect no_shear #
lump $-1 $-1 $16 $1 #
transform $-1 1 0 0 0 1 0 0 0 1 56.555681020538955 27.842199350273628 5.9528452469907833 1 rotate no_reflect no_shear #
lump $-1 $-1 $17 $2 #
transform $-1 1 0 0 0 1 0 0 0 1 56.555681020538955 27.842199350273628 5.9528452469907833 1 rotate no_reflect no_shear #
lump $-1 $-1 $18 $3 #
transform $-1 1 0 0 0 1 0 0 0 1 56.555681020538955 27.842199350273628 5.9528452469907833 1 rotate no_reflect no_shear #
lump $-1 $-1 $19 $4 #
transform $-1 1 0 0 0 1 0 0 0 1 56.555681020538955 27.842199350273628 5.9528452469907833 1 rotate no_reflect no_shear #
shell $-1 $-1 $-1 $20 $-1 $5 #
shell $-1 $-1 $-1 $21 $-1 $7 #
shell $-1 $-1 $-1 $22 $-1 $9 #
shell $-1 $-1 $-1 $23 $-1 $11 #
shell $-1 $-1 $-1 $24 $-1 $13 #
face $-1 $25 $26 $15 $-1 $27 forward single #
face $-1 $28 $29 $16 $-1 $30 reversed single #
face $-1 $31 $32 $17 $-1 $33 reversed single #
face $-1 $34 $35 $18 $-1 $36 forward single #
face $-1 $37 $38 $19 $-1 $39 forward single #
face $-1 $40 $41 $15 $-1 $42 reversed single #
loop $-1 $-1 $43 $20 #
plane-surface $-1 0 0 5.9528452469907833 0 0 1 1 0 0 forward_v I I I I #
face $-1 $44 $45 $16 $-1 $46 reversed single #
loop $-1 $-1 $47 $21 #
plane-surface $-1 -52.910794588493651 -27.342199350273628 0 0 1 0 0 0 1 forward_v I I I I #
face $-1 $48 $49 $17 $-1 $50 reversed single #
loop $-1 $-1 $51 $22 #
plane-surface $-1 41.165578412931481 -27.842199350273631 1.7751135494620769 0 -0.77714596973225614 0.62932038083071107 1 0 0 forward_v I I I I #
face $-1 $52 $53 $18 $-1 $54 forward single #
loop $-1 $55 $56 $23 #
cone-surface $-1 34.56982015252828 -25.475181648384918 3.3169803920206742 0 0.77714596973225614 -0.62932038083071107 0.5 0 0 1 I I 0 1 0.5 forward I I I I #
face $-1 $57 $58 $19 $-1 $59 forward single #
loop $-1 $60 $61 $24 #
cone-surface $-1 47.761336673334682 -25.475181648384918 3.3169803920206742 0 0.77714596973225614 -0.62932038083071107 0.5 0 0 1 I I 0 1 0.5 forward I I I I #
face $-1 $62 $63 $15 $-1 $64 reversed single #
loop $-1 $-1 $65 $25 #
plane-surface $-1 0 0 -5.9528452469907833 0 0 1 1 0 0 forward_v I I I I #
coedge $-1 $66 $67 $68 $69 forward $26 $-1 #
face $-1 $70 $71 $16 $-1 $72 reversed single #
loop $-1 $-1 $73 $28 #
plane-surface $-1 -52.910794588493651 -23.968078630211952 0 0 -1 0 0 0 -1 forward_v I I I I #
coedge $-1 $74 $75 $76 $77 reversed $29 $-1 #
face $-1 $78 $79 $17 $-1 $80 reversed single #
loop $-1 $-1 $81 $31 #
plane-surface $-1 25.775475805324007 -115.74623849142343 72.958398985433661 1 0 0 0 0.77714596973225614 -0.62932038083071107 forward_v I I I I #
coedge $-1 $82 $83 $84 $85 reversed $32 $-1 #
face $-1 $-1 $86 $18 $-1 $87 forward single #
loop $-1 $88 $89 $34 #
cone-surface $-1 34.56982015252828 -24.605407620399255 2.6126512906072321 0 0.77714596973225614 -0.62932038083071107 0.25 0 0 1 I I -0.70710678118654746 0.70710678118654746 0.25 forward I I I I #
loop $-1 $-1 $90 $23 #
coedge $-1 $56 $56 $91 $92 reversed $35 $-1 #
face $-1 $-1 $93 $19 $-1 $94 forward single #
loop $-1 $95 $96 $37 #
cone-surface $-1 47.761336673334682 -24.605407620399255 2.6126512906072321 0 0.77714596973225614 -0.62932038083071107 0.25 0 0 1 I I -0.70710678118654746 0.70710678118654746 0.25 forward I I I I #
loop $-1 $-1 $97 $24 #
coedge $-1 $61 $61 $98 $99 reversed $38 $-1 #
face $-1 $100 $101 $15 $-1 $102 reversed single #
loop $-1 $-1 $103 $40 #
plane-surface $-1 0 -27.842199350273628 0 0 1 0 0 0 1 forward_v I I I I #
coedge $-1 $104 $105 $106 $107 forward $41 $-1 #
coedge $-1 $108 $43 $109 $110 forward $26 $-1 #
coedge $-1 $43 $108 $111 $112 forward $26 $-1 #
coedge $-1 $113 $114 $43 $69 reversed $115 $-1 #
edge $-1 $116 -27.842199350273628 $117 27.842199350273628 $68 $118 forward 7 unknown #
face $-1 $119 $120 $16 $-1 $121 reversed single #
loop $-1 $-1 $122 $44 #
plane-surface $-1 -49.265908156448347 -25.65513899024279 0 -1 0 0 0 0 1 forward_v I I I I #
coedge $-1 $123 $124 $125 $126 forward $45 $-1 #
coedge $-1 $127 $47 $128 $129 reversed $29 $-1 #
coedge $-1 $47 $127 $130 $131 reversed $29 $-1 #
coedge $-1 $132 $133 $47 $77 forward $134 $-1 #
edge $-1 $135 -5.9528452469907833 $136 5.9528452469907833 $76 $137 forward 7 unknown #
face $-1 $138 $139 $17 $-1 $140 forward single #
loop $-1 $-1 $141 $48 #
plane-surface $-1 0 -27.842199350273628 0 0 1 0 0 0 1 forward_v I I I I #
coedge $-1 $142 $143 $144 $145 reversed $49 $-1 #
coedge $-1 $146 $51 $147 $148 reversed $32 $-1 #
coedge $-1 $51 $146 $142 $149 forward $32 $-1 #
coedge $-1 $144 $150 $51 $85 forward $139 $-1 #
edge $-1 $151 -35.972891814073215 $152 -5.1926865988582662 $84 $153 forward 7 unknown #
loop $-1 $-1 $91 $52 #
plane-surface $-1 41.165578412931481 -27.842199350273631 1.7751135494620769 0 -0.77714596973225614 0.62932038083071107 1 0 0 forward_v I I I I #
loop $-1 $-1 $154 $34 #
coedge $-1 $89 $89 $90 $155 reversed $53 $-1 #
coedge $-1 $90 $90 $89 $155 forward $55 $-1 #
coedge $-1 $91 $91 $56 $92 forward $86 $-1 #
edge $-1 $156 3.8113411006269834e-015 $156 6.283185307179604 $91 $157 forward 7 unknown #
loop $-1 $-1 $98 $57 #
plane-surface $-1 41.165578412931481 -27.842199350273631 1.7751135494620769 0 -0.77714596973225614 0.62932038083071107 1 0 0 forward_v I I I I #
loop $-1 $-1 $158 $37 #
coedge $-1 $96 $96 $97 $159 reversed $58 $-1 #
coedge $-1 $97 $97 $96 $159 forward $60 $-1 #
coedge $-1 $98 $98 $61 $99 forward $93 $-1 #
edge $-1 $160 3.8113411006269834e-015 $160 6.283185307179604 $98 $161 forward 7 unknown #
face $-1 $162 $163 $15 $-1 $164 reversed single #
loop $-1 $-1 $165 $62 #
plane-surface $-1 -56.555681020538955 0 0 1 0 0 0 0 -1 forward_v I I I I #
coedge $-1 $166 $111 $167 $168 forward $63 $-1 #
coedge $-1 $169 $65 $166 $170 forward $41 $-1 #
coedge $-1 $65 $169 $171 $172 forward $41 $-1 #
coedge $-1 $114 $113 $65 $107 reversed $115 $-1 #
edge $-1 $173 -27.842199350273628 $174 27.842199350273628 $106 $175 forward 7 unknown #
coedge $-1 $67 $66 $176 $177 forward $26 $-1 #
coedge $-1 $178 $179 $66 $110 reversed $163 $-1 #
edge $-1 $117 -56.555681020538955 $180 56.555681020538955 $109 $181 forward 7 unknown #
coedge $-1 $103 $182 $67 $112 reversed $63 $-1 #
edge $-1 $183 -56.555681020538955 $116 56.555681020538955 $111 $184 forward 7 unknown #
coedge $-1 $106 $68 $182 $185 forward $115 $-1 #
coedge $-1 $68 $106 $178 $186 reversed $115 $-1 #
loop $-1 $-1 $113 $162 #
vertex $-1 $69 $187 #
vertex $-1 $69 $188 #
straight-curve $-1 56.555681020538955 0 5.9528452469907833 0 1 0 I I #
face $-1 $189 $190 $16 $-1 $191 forward single #
loop $-1 $-1 $192 $70 #
plane-surface $-1 0 0 -5.9528452469907833 0 0 1 1 0 0 forward_v I I I I #
coedge $-1 $193 $194 $127 $195 forward $71 $-1 #
coedge $-1 $196 $73 $192 $197 reversed $45 $-1 #
coedge $-1 $73 $196 $198 $199 reversed $45 $-1 #
coedge $-1 $194 $193 $73 $126 reversed $71 $-1 #
edge $-1 $200 -5.9528452469907833 $201 5.9528452469907833 $125 $202 forward 7 unknown #
coedge $-1 $75 $74 $122 $195 reversed $29 $-1 #
coedge $-1 $203 $204 $74 $129 forward $120 $-1 #
edge $-1 $205 22.810510862201522 $135 30.10028372629213 $128 $206 forward 7 unknown #
coedge $-1 $207 $208 $75 $131 forward $190 $-1 #
edge $-1 $136 -30.10028372629213 $209 -22.810510862201522 $130 $210 forward 7 unknown #
coedge $-1 $211 $76 $208 $212 reversed $134 $-1 #
coedge $-1 $76 $211 $203 $213 reversed $134 $-1 #
loop $-1 $-1 $211 $189 #
vertex $-1 $213 $214 #
vertex $-1 $77 $215 #
straight-curve $-1 -56.555681020538955 -27.342199350273628 0 0 0 1 I I #
face $-1 $-1 $216 $17 $-1 $217 reversed single #
loop $-1 $-1 $144 $78 #
plane-surface $-1 0 0 5.9528452469907833 0 0 1 1 0 0 forward_v I I I I #
coedge $-1 $218 $219 $143 $220 forward $79 $-1 #
coedge $-1 $143 $81 $83 $149 reversed $49 $-1 #
coedge $-1 $81 $142 $141 $220 reversed $49 $-1 #
coedge $-1 $221 $84 $81 $145 forward $139 $-1 #
edge $-1 $152 -33.413980228110319 $222 -30.030919895438085 $144 $223 forward 7 unknown #
coedge $-1 $83 $82 $218 $224 reversed $32 $-1 #
coedge $-1 $225 $226 $82 $148 forward $216 $-1 #
edge $-1 $227 -8.0710705787485981 $151 -2.695334410460906 $147 $228 forward 7 unknown #
edge $-1 $229 5.6870165216907905e-015 $152 5.3757361682876974 $142 $230 forward 7 unknown #
coedge $-1 $84 $221 $225 $231 forward $139 $-1 #
vertex $-1 $148 $232 #
vertex $-1 $85 $233 #
straight-curve $-1 20.582789206465741 -24.459139017601387 5.9528452469907833 -1 0 0 I I #
coedge $-1 $154 $154 $-1 $234 reversed $88 $-1 #
edge $-1 $235 0 $235 6.2831853071796004 $89 $236 forward 7 unknown #
vertex $-1 $92 $237 #
ellipse-curve $-1 34.56982015252828 -26.150669183937509 3.8639793982264328 0 -0.77714596973225614 0.62932038083071107 0.5 0 0 1 I I #
coedge $-1 $158 $158 $-1 $238 reversed $95 $-1 #
edge $-1 $239 0 $239 6.2831853071796004 $96 $240 forward 7 unknown #
vertex $-1 $99 $241 #
ellipse-curve $-1 47.761336673334682 -26.150669183937509 3.8639793982264328 0 -0.77714596973225614 0.62932038083071107 0.5 0 0 1 I I #
face $-1 $-1 $115 $15 $-1 $242 reversed single #
loop $-1 $-1 $178 $100 #
plane-surface $-1 0 27.842199350273628 0 0 -1 0 0 0 -1 forward_v I I I I #
coedge $-1 $243 $176 $179 $244 forward $101 $-1 #
coedge $-1 $182 $103 $104 $170 reversed $63 $-1 #
coedge $-1 $176 $243 $103 $168 reversed $101 $-1 #
edge $-1 $183 -5.9528452469907833 $245 5.9528452469907833 $167 $246 forward 7 unknown #
coedge $-1 $105 $104 $243 $247 forward $41 $-1 #
edge $-1 $174 -56.555681020538955 $245 56.555681020538955 $166 $248 forward 7 unknown #
coedge $-1 $179 $178 $105 $172 reversed $163 $-1 #
edge $-1 $249 -56.555681020538955 $173 56.555681020538955 $171 $250 forward 7 unknown #
vertex $-1 $107 $251 #
vertex $-1 $185 $252 #
straight-curve $-1 56.555681020538955 0 -5.9528452469907833 0 -1 0 I I #
coedge $-1 $165 $167 $108 $177 reversed $101 $-1 #
edge $-1 $180 -27.842199350273628 $183 27.842199350273628 $176 $253 forward 7 unknown #
coedge $-1 $171 $109 $114 $186 forward $163 $-1 #
coedge $-1 $109 $171 $165 $244 reversed $163 $-1 #
vertex $-1 $110 $254 #
straight-curve $-1 0 27.842199350273628 5.9528452469907833 -1 0 0 I I #
coedge $-1 $111 $166 $113 $185 reversed $63 $-1 #
vertex $-1 $177 $255 #
straight-curve $-1 0 -27.842199350273628 5.9528452469907833 1 0 0 I I #
edge $-1 $116 -5.9528452469907833 $174 5.9528452469907833 $113 $256 forward 7 unknown #
edge $-1 $117 -5.9528452469907833 $173 5.9528452469907833 $114 $257 forward 7 unknown #
point $-1 56.555681020538955 -27.842199350273628 5.9528452469907833 #
point $-1 56.555681020538955 27.842199350273628 5.9528452469907833 #
face $-1 $-1 $134 $16 $-1 $258 reversed single #
loop $-1 $-1 $198 $119 #
plane-surface $-1 0 0 5.9528452469907833 0 0 1 1 0 0 forward_v I I I I #
coedge $-1 $204 $203 $123 $197 forward $120 $-1 #
coedge $-1 $125 $122 $204 $259 reversed $71 $-1 #
coedge $-1 $122 $125 $207 $260 reversed $71 $-1 #
edge $-1 $209 -5.9528452469907833 $205 5.9528452469907833 $122 $261 forward 7 unknown #
coedge $-1 $124 $123 $211 $262 reversed $45 $-1 #
edge $-1 $263 -30.10028372629213 $201 -22.810510862201522 $192 $264 forward 7 unknown #
coedge $-1 $208 $207 $124 $199 forward $190 $-1 #
edge $-1 $200 22.810510862201522 $265 30.10028372629213 $198 $266 forward 7 unknown #
vertex $-1 $199 $267 #
vertex $-1 $197 $268 #
straight-curve $-1 -49.265908156448347 -23.968078630211952 0 0 0 -1 I I #
coedge $-1 $192 $128 $133 $213 forward $120 $-1 #
coedge $-1 $128 $192 $193 $259 forward $120 $-1 #
vertex $-1 $129 $269 #
straight-curve $-1 -26.455397294246826 -27.342199350273628 -5.9528452469907833 -1 0 0 I I #
coedge $-1 $198 $130 $194 $260 forward $190 $-1 #
coedge $-1 $130 $198 $132 $212 forward $190 $-1 #
vertex $-1 $131 $270 #
straight-curve $-1 -26.455397294246826 -27.342199350273628 5.9528452469907833 1 0 0 I I #
coedge $-1 $133 $132 $196 $262 forward $134 $-1 #
edge $-1 $265 23.968078630211952 $136 27.342199350273628 $132 $271 forward 7 unknown #
edge $-1 $135 -27.342199350273628 $263 -23.968078630211952 $133 $272 forward 7 unknown #
point $-1 -56.555681020538955 -27.342199350273628 -5.9528452469907833 #
point $-1 -56.555681020538955 -27.342199350273628 5.9528452469907833 #
loop $-1 $-1 $147 $138 #
plane-surface $-1 56.555681020538955 0 0 -1 0 0 0 0 1 forward_v I I I I #
coedge $-1 $273 $141 $146 $224 forward $79 $-1 #
coedge $-1 $141 $273 $221 $274 reversed $79 $-1 #
edge $-1 $222 30.526354245726047 $229 34.704085943254746 $141 $275 forward 7 unknown #
coedge $-1 $150 $144 $219 $274 forward $139 $-1 #
vertex $-1 $274 $276 #
straight-curve $-1 25.775475805324007 -57.873119245711713 5.9528452469907833 0 -1 0 I I #
edge $-1 $229 5.1926865988582662 $227 35.972891814073215 $218 $277 forward 7 unknown #
coedge $-1 $226 $147 $150 $231 reversed $216 $-1 #
coedge $-1 $147 $225 $273 $278 forward $216 $-1 #
vertex $-1 $224 $279 #
straight-curve $-1 56.555681020538955 -22.762910139944012 8.0475135211611413 0 0.62932038083071107 0.77714596973225614 I I #
vertex $-1 $224 $280 #
straight-curve $-1 25.775475805324007 -27.842199350273631 1.7751135494620769 0 0.62932038083071107 0.77714596973225614 I I #
edge $-1 $281 -27.842199350273628 $151 -24.459139017601391 $225 $282 forward 7 unknown #
point $-1 56.555681020538955 -24.459139017601391 5.9528452469907833 #
point $-1 25.775475805324007 -24.459139017601391 5.9528452469907833 #
edge $-1 $283 1 $283 0 $154 $-1 forward 7 unknown #
vertex $-1 $155 $284 #
ellipse-curve $-1 34.56982015252828 -24.79969411283232 2.7699813858149098 0 -0.77714596973225614 0.62932038083071107 0.5 0 0 1 I I #
point $-1 35.06982015252828 -26.150669183937513 3.8639793982264381 #
edge $-1 $285 1 $285 0 $158 $-1 forward 7 unknown #
vertex $-1 $159 $286 #
ellipse-curve $-1 47.761336673334682 -24.79969411283232 2.7699813858149098 0 -0.77714596973225614 0.62932038083071107 0.5 0 0 1 I I #
point $-1 48.261336673334682 -26.150669183937513 3.8639793982264381 #
plane-surface $-1 56.555681020538955 0 0 -1 0 0 0 0 1 forward_v I I I I #
coedge $-1 $167 $165 $169 $247 reversed $101 $-1 #
edge $-1 $180 -5.9528452469907833 $249 5.9528452469907833 $179 $287 forward 7 unknown #
vertex $-1 $247 $288 #
straight-curve $-1 -56.555681020538955 -27.842199350273628 0 0 0 -1 I I #
edge $-1 $245 -27.842199350273628 $249 27.842199350273628 $243 $289 forward 7 unknown #
straight-curve $-1 0 -27.842199350273628 -5.9528452469907833 -1 0 0 I I #
vertex $-1 $172 $290 #
straight-curve $-1 0 27.842199350273628 -5.9528452469907833 1 0 0 I I #
point $-1 56.555681020538955 27.842199350273628 -5.9528452469907833 #
point $-1 56.555681020538955 -27.842199350273628 -5.9528452469907833 #
straight-curve $-1 -56.555681020538955 0 5.9528452469907833 0 -1 0 I I #
point $-1 -56.555681020538955 27.842199350273628 5.9528452469907833 #
point $-1 -56.555681020538955 -27.842199350273628 5.9528452469907833 #
straight-curve $-1 56.555681020538955 -27.842199350273628 0 0 0 -1 I I #
straight-curve $-1 56.555681020538955 27.842199350273628 0 0 0 -1 I I #
plane-surface $-1 -56.555681020538955 0 0 1 0 0 0 0 -1 forward_v I I I I #
edge $-1 $201 11.140509135090557 $205 14.514629855152233 $204 $291 forward 7 unknown #
edge $-1 $209 -14.514629855152233 $200 -11.140509135090557 $207 $292 forward 7 unknown #
straight-curve $-1 -49.265908156448347 -27.342199350273628 0 0 0 -1 I I #
edge $-1 $265 -5.9528452469907833 $263 5.9528452469907833 $211 $293 forward 7 unknown #
vertex $-1 $262 $294 #
straight-curve $-1 -26.455397294246826 -23.968078630211952 -5.9528452469907833 1 0 0 I I #
vertex $-1 $212 $295 #
straight-curve $-1 -26.455397294246826 -23.968078630211952 5.9528452469907833 -1 0 0 I I #
point $-1 -49.265908156448347 -23.968078630211952 5.9528452469907833 #
point $-1 -49.265908156448347 -23.968078630211952 -5.9528452469907833 #
point $-1 -49.265908156448347 -27.342199350273628 -5.9528452469907833 #
point $-1 -49.265908156448347 -27.342199350273628 5.9528452469907833 #
straight-curve $-1 -56.555681020538955 0 5.9528452469907833 0 -1 0 I I #
straight-curve $-1 -56.555681020538955 0 -5.9528452469907833 0 1 0 I I #
coedge $-1 $219 $218 $226 $278 reversed $79 $-1 #
edge $-1 $222 25.775475805324007 $281 56.555681020538955 $219 $296 forward 7 unknown #
straight-curve $-1 25.775475805324007 -27.842199350273631 36.47919949271683 0 0 -1 I I #
point $-1 25.775475805324007 -27.842199350273628 5.9528452469907833 #
straight-curve $-1 20.582789206465741 -27.842199350273628 1.775113549462084 1 0 0 I I #
edge $-1 $281 -5.9528452469907833 $227 -1.7751135494620813 $226 $297 forward 7 unknown #
point $-1 56.555681020538955 -27.842199350273628 1.7751135494620813 #
point $-1 25.775475805324007 -27.842199350273628 1.7751135494620813 #
vertex $-1 $231 $298 #
straight-curve $-1 56.555681020538955 0 5.9528452469907833 0 1 0 I I #
vertex $-1 $234 $299 #
point $-1 35.06982015252828 -24.79969411283232 2.7699813858149098 #
vertex $-1 $238 $300 #
point $-1 48.261336673334682 -24.79969411283232 2.7699813858149098 #
straight-curve $-1 -56.555681020538955 27.842199350273628 0 0 0 -1 I I #
point $-1 -56.555681020538955 -27.842199350273628 -5.9528452469907833 #
straight-curve $-1 -56.555681020538955 0 -5.9528452469907833 0 1 0 I I #
point $-1 -56.555681020538955 27.842199350273628 -5.9528452469907833 #
straight-curve $-1 -49.265908156448347 -12.827569495121395 -5.9528452469907833 0 -1 0 I I #
straight-curve $-1 -49.265908156448347 -12.827569495121395 5.9528452469907833 0 1 0 I I #
straight-curve $-1 -56.555681020538955 -23.968078630211952 0 0 0 -1 I I #
point $-1 -56.555681020538955 -23.968078630211952 -5.9528452469907833 #
point $-1 -56.555681020538955 -23.968078630211952 5.9528452469907833 #
straight-curve $-1 0 -27.842199350273628 5.9528452469907833 1 0 0 I I #
straight-curve $-1 56.555681020538955 -27.842199350273628 0 0 0 -1 I I #
point $-1 56.555681020538955 -27.842199350273628 5.9528452469907833 #
point $-1 34.56982015252828 -24.41112112796619 2.4553211953995544 #
point $-1 47.761336673334682 -24.41112112796619 2.4553211953995544 #
End-of-ACIS-data 