500 0 7 0           
7 Unknown 11 ACIS 5.0 NT 24 Thu Mar 25 18:42:37 1999 
-1 9.9999999999999995e-007 1e-010 
body $-1 $7 $-1 $8 #
body $-1 $9 $-1 $10 #
body $-1 $11 $-1 $12 #
body $-1 $13 $-1 $14 #
body $-1 $15 $-1 $16 #
body $-1 $17 $-1 $18 #
body $-1 $19 $-1 $20 #
lump $-1 $-1 $21 $0 #
transform $-1 1 0 0 0 1 0 0 0 1 70.893276772362441 35.04010599977029 11.522160408817559 1 rotate no_reflect no_shear #
lump $-1 $-1 $22 $1 #
transform $-1 1 0 0 0 1 0 0 0 1 70.893276772362441 35.04010599977029 11.522160408817559 1 rotate no_reflect no_shear #
lump $-1 $-1 $23 $2 #
transform $-1 1 0 0 0 1 0 0 0 1 70.893276772362441 35.04010599977029 11.522160408817559 1 rotate no_reflect no_shear #
lump $-1 $-1 $24 $3 #
transform $-1 1 0 0 0 1 0 0 0 1 70.893276772362441 35.04010599977029 11.522160408817559 1 rotate no_reflect no_shear #
lump $-1 $-1 $25 $4 #
transform $-1 1 0 0 0 1 0 0 0 1 70.893276772362441 35.04010599977029 11.522160408817559 1 rotate no_reflect no_shear #
lump $-1 $-1 $26 $5 #
transform $-1 1 0 0 0 1 0 0 0 1 70.893276772362441 35.04010599977029 11.522160408817559 1 rotate no_reflect no_shear #
lump $-1 $-1 $27 $6 #
transform $-1 1 0 0 0 1 0 0 0 1 70.893276772362441 35.04010599977029 11.522160408817559 1 rotate no_reflect no_shear #
shell $-1 $-1 $-1 $28 $-1 $7 #
shell $-1 $-1 $-1 $29 $-1 $9 #
shell $-1 $-1 $-1 $30 $-1 $11 #
shell $-1 $-1 $-1 $31 $-1 $13 #
shell $-1 $-1 $-1 $32 $-1 $15 #
shell $-1 $-1 $-1 $33 $-1 $17 #
shell $-1 $-1 $-1 $34 $-1 $19 #
face $-1 $35 $36 $21 $-1 $37 forward single #
face $-1 $38 $39 $22 $-1 $40 reversed single #
face $-1 $41 $42 $23 $-1 $43 reversed single #
face $-1 $44 $45 $24 $-1 $46 reversed single #
face $-1 $47 $48 $25 $-1 $49 forward single #
face $-1 $50 $51 $26 $-1 $52 forward single #
face $-1 $53 $54 $27 $-1 $55 forward single #
face $-1 $56 $57 $21 $-1 $58 reversed single #
loop $-1 $-1 $59 $28 #
plane-surface $-1 0 0 11.522160408817559 0 0 1 1 0 0 forward_v I I I I #
face $-1 $60 $61 $22 $-1 $62 reversed single #
loop $-1 $-1 $63 $29 #
plane-surface $-1 -65.243128174270069 -19.976432177502012 0 0 1 0 0 0 1 forward_v I I I I #
face $-1 $64 $65 $23 $-1 $66 reversed single #
loop $-1 $-1 $67 $30 #
plane-surface $-1 65.243128174270083 -19.976432177502012 0 0 1 0 0 0 1 forward_v I I I I #
face $-1 $68 $69 $24 $-1 $70 reversed single #
loop $-1 $-1 $71 $31 #
plane-surface $-1 -59.59297957617769 61.684070116778031 158.83619045382841 1 0 0 0 -0.5877852598018023 -0.80901698891910034 forward_v I I I I #
face $-1 $72 $73 $25 $-1 $74 forward single #
loop $-1 $75 $76 $32 #
cone-surface $-1 -55.671377049229221 28.452028715631069 6.2941435324355446 0 -0.5877852598018023 -0.80901698891910034 1 0 0 1 I I 0 1 1 forward I I I I #
face $-1 $77 $78 $26 $-1 $79 forward single #
loop $-1 $80 $81 $33 #
cone-surface $-1 -49.788973258806521 28.452028715631069 6.2941435324355446 0 -0.5877852598018023 -0.80901698891910034 1 0 0 1 I I 0 1 1 forward I I I I #
face $-1 $82 $83 $27 $-1 $84 forward single #
loop $-1 $85 $86 $34 #
cone-surface $-1 -43.906569468383822 28.452028715631069 6.2941435324355446 0 -0.5877852598018023 -0.80901698891910034 1 0 0 1 I I 0 1 1 forward I I I I #
face $-1 $87 $88 $21 $-1 $89 reversed single #
loop $-1 $-1 $90 $35 #
plane-surface $-1 0 0 -11.522160408817559 0 0 1 1 0 0 forward_v I I I I #
coedge $-1 $91 $92 $93 $94 forward $36 $-1 #
face $-1 $95 $96 $22 $-1 $97 reversed single #
loop $-1 $-1 $98 $38 #
plane-surface $-1 -65.243128174270069 -16.976432177502012 0 0 -1 0 0 0 -1 forward_v I I I I #
coedge $-1 $99 $100 $101 $102 reversed $39 $-1 #
face $-1 $103 $104 $23 $-1 $105 reversed single #
loop $-1 $-1 $106 $41 #
plane-surface $-1 59.592979576177711 -18.476432177502012 0 1 0 0 0 0 -1 forward_v I I I I #
coedge $-1 $107 $108 $109 $110 forward $42 $-1 #
face $-1 $111 $112 $24 $-1 $113 reversed single #
loop $-1 $-1 $114 $44 #
plane-surface $-1 -49.788973258806521 -21.65597609491023 44.128459835858294 0 0.5877852598018023 0.80901698891910034 1 0 0 forward_v I I I I #
coedge $-1 $115 $116 $117 $118 reversed $45 $-1 #
face $-1 $-1 $119 $25 $-1 $120 forward single #
loop $-1 $121 $122 $47 #
cone-surface $-1 -55.671377049229221 27.478739774510544 4.9545262566312864 0 -0.5877852598018023 -0.80901698891910034 0.5 0 0 1 I I -0.70710678118654746 0.70710678118654746 0.5 forward I I I I #
loop $-1 $-1 $123 $32 #
coedge $-1 $76 $76 $124 $125 reversed $48 $-1 #
face $-1 $-1 $126 $26 $-1 $127 forward single #
loop $-1 $128 $129 $50 #
cone-surface $-1 -49.788973258806521 27.478739774510544 4.9545262566312864 0 -0.5877852598018023 -0.80901698891910034 0.5 0 0 1 I I -0.70710678118654746 0.70710678118654746 0.5 forward I I I I #
loop $-1 $-1 $130 $33 #
coedge $-1 $81 $81 $131 $132 reversed $51 $-1 #
face $-1 $-1 $133 $27 $-1 $134 forward single #
loop $-1 $135 $136 $53 #
cone-surface $-1 -43.906569468383822 27.478739774510544 4.9545262566312864 0 -0.5877852598018023 -0.80901698891910034 0.5 0 0 1 I I -0.70710678118654746 0.70710678118654746 0.5 forward I I I I #
loop $-1 $-1 $137 $34 #
coedge $-1 $86 $86 $138 $139 reversed $54 $-1 #
face $-1 $140 $141 $21 $-1 $142 reversed single #
loop $-1 $-1 $143 $56 #
plane-surface $-1 0 -35.04010599977029 0 0 1 0 0 0 1 forward_v I I I I #
coedge $-1 $144 $145 $146 $147 forward $57 $-1 #
coedge $-1 $148 $59 $149 $150 forward $36 $-1 #
coedge $-1 $59 $148 $151 $152 forward $36 $-1 #
coedge $-1 $153 $154 $59 $94 reversed $155 $-1 #
edge $-1 $156 -35.04010599977029 $157 35.04010599977029 $93 $158 forward 7 unknown #
face $-1 $159 $160 $22 $-1 $161 reversed single #
loop $-1 $-1 $162 $60 #
plane-surface $-1 -59.592979576177697 -18.476432177502012 0 -1 0 0 0 0 1 forward_v I I I I #
coedge $-1 $163 $164 $165 $166 forward $61 $-1 #
coedge $-1 $167 $63 $168 $169 reversed $39 $-1 #
coedge $-1 $63 $167 $170 $171 reversed $39 $-1 #
coedge $-1 $172 $173 $63 $102 forward $174 $-1 #
edge $-1 $175 -11.522160408817559 $176 11.522160408817559 $101 $177 forward 7 unknown #
face $-1 $178 $179 $23 $-1 $180 reversed single #
loop $-1 $-1 $181 $64 #
plane-surface $-1 65.243128174270083 -16.976432177502012 0 0 -1 0 0 0 -1 forward_v I I I I #
coedge $-1 $182 $183 $184 $185 forward $65 $-1 #
coedge $-1 $186 $67 $187 $188 reversed $42 $-1 #
coedge $-1 $67 $186 $189 $190 reversed $42 $-1 #
coedge $-1 $183 $182 $67 $110 reversed $65 $-1 #
edge $-1 $191 -11.522160408817559 $192 11.522160408817559 $109 $193 forward 7 unknown #
face $-1 $194 $195 $24 $-1 $196 reversed single #
loop $-1 $-1 $197 $68 #
plane-surface $-1 -39.984966941435353 61.684070116778031 158.83619045382841 -1 0 0 0 0.5877852598018023 0.80901698891910034 forward_v I I I I #
coedge $-1 $198 $199 $200 $201 reversed $69 $-1 #
coedge $-1 $116 $71 $202 $203 reversed $45 $-1 #
coedge $-1 $71 $115 $198 $204 reversed $45 $-1 #
coedge $-1 $200 $205 $71 $118 forward $206 $-1 #
edge $-1 $207 -4.1980709413812747 $208 7.6192910044579065 $117 $209 forward 7 unknown #
loop $-1 $-1 $124 $72 #
plane-surface $-1 -49.788973258806521 -21.65597609491023 44.128459835858294 0 0.5877852598018023 0.80901698891910034 1 0 0 forward_v I I I I #
loop $-1 $-1 $210 $47 #
coedge $-1 $122 $122 $123 $211 reversed $73 $-1 #
coedge $-1 $123 $123 $122 $211 forward $75 $-1 #
coedge $-1 $124 $124 $76 $125 forward $119 $-1 #
edge $-1 $212 7.8020155930166508e-016 $212 6.2831853071796013 $124 $213 forward 7 unknown #
loop $-1 $-1 $131 $77 #
plane-surface $-1 -49.788973258806521 -21.65597609491023 44.128459835858294 0 0.5877852598018023 0.80901698891910034 1 0 0 forward_v I I I I #
loop $-1 $-1 $214 $50 #
coedge $-1 $129 $129 $130 $215 reversed $78 $-1 #
coedge $-1 $130 $130 $129 $215 forward $80 $-1 #
coedge $-1 $131 $131 $81 $132 forward $126 $-1 #
edge $-1 $216 7.8020155930166508e-016 $216 6.2831853071796013 $131 $217 forward 7 unknown #
loop $-1 $-1 $138 $82 #
plane-surface $-1 -49.788973258806521 -21.65597609491023 44.128459835858294 0 0.5877852598018023 0.80901698891910034 1 0 0 forward_v I I I I #
loop $-1 $-1 $218 $53 #
coedge $-1 $136 $136 $137 $219 reversed $83 $-1 #
coedge $-1 $137 $137 $136 $219 forward $85 $-1 #
coedge $-1 $138 $138 $86 $139 forward $133 $-1 #
edge $-1 $220 7.8020155930166508e-016 $220 6.2831853071796013 $138 $221 forward 7 unknown #
face $-1 $222 $223 $21 $-1 $224 reversed single #
loop $-1 $-1 $225 $87 #
plane-surface $-1 -70.893276772362441 0 0 1 0 0 0 0 -1 forward_v I I I I #
coedge $-1 $226 $151 $227 $228 forward $88 $-1 #
coedge $-1 $229 $90 $226 $230 forward $57 $-1 #
coedge $-1 $90 $229 $231 $232 forward $57 $-1 #
coedge $-1 $154 $153 $90 $147 reversed $155 $-1 #
edge $-1 $233 -35.04010599977029 $234 35.04010599977029 $146 $235 forward 7 unknown #
coedge $-1 $92 $91 $236 $237 forward $36 $-1 #
coedge $-1 $238 $239 $91 $150 reversed $223 $-1 #
edge $-1 $157 -70.893276772362441 $240 70.893276772362441 $149 $241 forward 7 unknown #
coedge $-1 $143 $242 $92 $152 reversed $88 $-1 #
edge $-1 $243 -70.893276772362441 $156 70.893276772362441 $151 $244 forward 7 unknown #
coedge $-1 $146 $93 $242 $245 forward $155 $-1 #
coedge $-1 $93 $146 $238 $246 reversed $155 $-1 #
loop $-1 $-1 $153 $222 #
vertex $-1 $94 $247 #
vertex $-1 $94 $248 #
straight-curve $-1 70.893276772362441 0 11.522160408817559 0 1 0 I I #
face $-1 $249 $250 $22 $-1 $251 forward single #
loop $-1 $-1 $252 $95 #
plane-surface $-1 0 0 -11.522160408817559 0 0 1 1 0 0 forward_v I I I I #
coedge $-1 $253 $254 $167 $255 forward $96 $-1 #
coedge $-1 $256 $98 $252 $257 reversed $61 $-1 #
coedge $-1 $98 $256 $258 $259 reversed $61 $-1 #
coedge $-1 $254 $253 $98 $166 reversed $96 $-1 #
edge $-1 $260 -11.522160408817559 $261 11.522160408817559 $165 $262 forward 7 unknown #
coedge $-1 $100 $99 $162 $255 reversed $39 $-1 #
coedge $-1 $263 $264 $99 $169 forward $160 $-1 #
edge $-1 $265 26.971415489042663 $175 38.271712685227406 $168 $266 forward 7 unknown #
coedge $-1 $267 $268 $100 $171 forward $250 $-1 #
edge $-1 $176 -38.271712685227406 $269 -26.971415489042663 $170 $270 forward 7 unknown #
coedge $-1 $271 $101 $268 $272 reversed $174 $-1 #
coedge $-1 $101 $271 $263 $273 reversed $174 $-1 #
loop $-1 $-1 $271 $249 #
vertex $-1 $273 $274 #
vertex $-1 $102 $275 #
straight-curve $-1 -70.893276772362441 -19.976432177502012 0 0 0 1 I I #
face $-1 $276 $277 $23 $-1 $278 forward single #
loop $-1 $-1 $187 $103 #
plane-surface $-1 0 0 -11.522160408817559 0 0 1 1 0 0 forward_v I I I I #
coedge $-1 $279 $280 $281 $282 reversed $104 $-1 #
coedge $-1 $109 $106 $283 $284 reversed $65 $-1 #
coedge $-1 $106 $109 $285 $286 reversed $65 $-1 #
coedge $-1 $280 $279 $106 $185 reversed $104 $-1 #
edge $-1 $287 -11.522160408817559 $288 11.522160408817559 $184 $289 forward 7 unknown #
coedge $-1 $108 $107 $290 $291 reversed $42 $-1 #
coedge $-1 $283 $292 $107 $188 forward $179 $-1 #
edge $-1 $293 -38.271712685227413 $192 -26.97141548904267 $187 $294 forward 7 unknown #
coedge $-1 $295 $285 $108 $190 forward $277 $-1 #
edge $-1 $191 26.97141548904267 $296 38.271712685227413 $189 $297 forward 7 unknown #
vertex $-1 $190 $298 #
vertex $-1 $188 $299 #
straight-curve $-1 59.592979576177711 -19.976432177502012 0 0 0 -1 I I #
face $-1 $-1 $206 $24 $-1 $300 forward single #
loop $-1 $-1 $301 $111 #
plane-surface $-1 0 35.04010599977029 0 0 -1 0 0 0 -1 forward_v I I I I #
coedge $-1 $302 $303 $304 $305 reversed $112 $-1 #
coedge $-1 $306 $114 $116 $204 forward $69 $-1 #
coedge $-1 $114 $306 $302 $307 forward $69 $-1 #
coedge $-1 $304 $117 $114 $201 forward $206 $-1 #
edge $-1 $208 -34.698492946774429 $308 -15.090480312032092 $200 $309 forward 7 unknown #
coedge $-1 $310 $311 $115 $203 forward $195 $-1 #
edge $-1 $312 -76.481751008171244 $207 -67.895934818096649 $202 $313 forward 7 unknown #
edge $-1 $208 55.473149221257074 $312 70.08021199954058 $116 $314 forward 7 unknown #
coedge $-1 $117 $304 $310 $315 forward $206 $-1 #
loop $-1 $-1 $304 $194 #
vertex $-1 $203 $316 #
vertex $-1 $118 $317 #
straight-curve $-1 -59.59297957617769 30.842035058389015 11.522160408817555 0 -1 0 I I #
coedge $-1 $210 $210 $-1 $318 reversed $121 $-1 #
edge $-1 $319 0 $319 6.2831853071796004 $122 $320 forward 7 unknown #
vertex $-1 $125 $321 #
ellipse-curve $-1 -55.671377049229221 29.1314250268507 7.2292523137802567 0 0.5877852598018023 0.80901698891910034 1 0 0 1 I I #
coedge $-1 $214 $214 $-1 $322 reversed $128 $-1 #
edge $-1 $323 0 $323 6.2831853071796004 $129 $324 forward 7 unknown #
vertex $-1 $132 $325 #
ellipse-curve $-1 -49.788973258806521 29.1314250268507 7.2292523137802567 0 0.5877852598018023 0.80901698891910034 1 0 0 1 I I #
coedge $-1 $218 $218 $-1 $326 reversed $135 $-1 #
edge $-1 $327 0 $327 6.2831853071796004 $136 $328 forward 7 unknown #
vertex $-1 $139 $329 #
ellipse-curve $-1 -43.906569468383822 29.1314250268507 7.2292523137802567 0 0.5877852598018023 0.80901698891910034 1 0 0 1 I I #
face $-1 $-1 $155 $21 $-1 $330 reversed single #
loop $-1 $-1 $238 $140 #
plane-surface $-1 0 35.04010599977029 0 0 -1 0 0 0 -1 forward_v I I I I #
coedge $-1 $331 $236 $239 $332 forward $141 $-1 #
coedge $-1 $242 $143 $144 $230 reversed $88 $-1 #
coedge $-1 $236 $331 $143 $228 reversed $141 $-1 #
edge $-1 $243 -11.522160408817559 $333 11.522160408817559 $227 $334 forward 7 unknown #
coedge $-1 $145 $144 $331 $335 forward $57 $-1 #
edge $-1 $234 -70.893276772362441 $333 70.893276772362441 $226 $336 forward 7 unknown #
coedge $-1 $239 $238 $145 $232 reversed $223 $-1 #
edge $-1 $337 -70.893276772362441 $233 70.893276772362441 $231 $338 forward 7 unknown #
vertex $-1 $147 $339 #
vertex $-1 $245 $340 #
straight-curve $-1 70.893276772362441 0 -11.522160408817559 0 -1 0 I I #
coedge $-1 $225 $227 $148 $237 reversed $141 $-1 #
edge $-1 $240 -35.04010599977029 $243 35.04010599977029 $236 $341 forward 7 unknown #
coedge $-1 $231 $149 $154 $246 forward $223 $-1 #
coedge $-1 $149 $231 $225 $332 reversed $223 $-1 #
vertex $-1 $150 $342 #
straight-curve $-1 0 35.04010599977029 11.522160408817559 -1 0 0 I I #
coedge $-1 $151 $226 $153 $245 reversed $88 $-1 #
vertex $-1 $237 $343 #
straight-curve $-1 0 -35.04010599977029 11.522160408817559 1 0 0 I I #
edge $-1 $156 -11.522160408817559 $234 11.522160408817559 $153 $344 forward 7 unknown #
edge $-1 $157 -11.522160408817559 $233 11.522160408817559 $154 $345 forward 7 unknown #
point $-1 70.893276772362441 -35.04010599977029 11.522160408817559 #
point $-1 70.893276772362441 35.04010599977029 11.522160408817559 #
face $-1 $-1 $174 $22 $-1 $346 reversed single #
loop $-1 $-1 $258 $159 #
plane-surface $-1 0 0 11.522160408817559 0 0 1 1 0 0 forward_v I I I I #
coedge $-1 $264 $263 $163 $257 forward $160 $-1 #
coedge $-1 $165 $162 $264 $347 reversed $96 $-1 #
coedge $-1 $162 $165 $267 $348 reversed $96 $-1 #
edge $-1 $269 -11.522160408817559 $265 11.522160408817559 $162 $349 forward 7 unknown #
coedge $-1 $164 $163 $271 $350 reversed $61 $-1 #
edge $-1 $351 -38.271712685227406 $261 -26.971415489042663 $252 $352 forward 7 unknown #
coedge $-1 $268 $267 $164 $259 forward $250 $-1 #
edge $-1 $260 26.971415489042663 $353 38.271712685227406 $258 $354 forward 7 unknown #
vertex $-1 $259 $355 #
vertex $-1 $257 $356 #
straight-curve $-1 -59.592979576177697 -16.976432177502012 0 0 0 -1 I I #
coedge $-1 $252 $168 $173 $273 forward $160 $-1 #
coedge $-1 $168 $252 $253 $347 forward $160 $-1 #
vertex $-1 $169 $357 #
straight-curve $-1 -32.621564087135035 -19.976432177502012 -11.522160408817559 -1 0 0 I I #
coedge $-1 $258 $170 $254 $348 forward $250 $-1 #
coedge $-1 $170 $258 $172 $272 forward $250 $-1 #
vertex $-1 $171 $358 #
straight-curve $-1 -32.621564087135035 -19.976432177502012 11.522160408817559 1 0 0 I I #
coedge $-1 $173 $172 $256 $350 forward $174 $-1 #
edge $-1 $353 16.976432177502012 $176 19.976432177502012 $172 $359 forward 7 unknown #
edge $-1 $175 -19.976432177502012 $351 -16.976432177502012 $173 $360 forward 7 unknown #
point $-1 -70.893276772362441 -19.976432177502012 -11.522160408817559 #
point $-1 -70.893276772362441 -19.976432177502012 11.522160408817559 #
face $-1 $-1 $361 $23 $-1 $362 reversed single #
loop $-1 $-1 $189 $178 #
plane-surface $-1 0 0 11.522160408817559 0 0 1 1 0 0 forward_v I I I I #
coedge $-1 $184 $181 $363 $364 reversed $104 $-1 #
coedge $-1 $181 $184 $365 $366 reversed $104 $-1 #
coedge $-1 $367 $368 $181 $282 forward $361 $-1 #
edge $-1 $369 -11.522160408817559 $370 11.522160408817559 $281 $371 forward 7 unknown #
coedge $-1 $363 $187 $182 $284 forward $179 $-1 #
edge $-1 $192 -10.738216088751006 $288 -7.7382160887510061 $283 $372 forward 7 unknown #
coedge $-1 $189 $365 $183 $286 forward $277 $-1 #
edge $-1 $287 7.7382160887510061 $191 10.738216088751006 $285 $373 forward 7 unknown #
vertex $-1 $286 $374 #
vertex $-1 $284 $375 #
straight-curve $-1 59.592979576177711 -16.976432177502012 0 0 0 -1 I I #
coedge $-1 $368 $367 $186 $291 forward $361 $-1 #
edge $-1 $296 -11.522160408817559 $293 11.522160408817559 $290 $376 forward 7 unknown #
coedge $-1 $187 $363 $368 $377 forward $179 $-1 #
vertex $-1 $291 $378 #
straight-curve $-1 32.621564087135042 -19.976432177502012 -11.522160408817559 -1 0 0 I I #
coedge $-1 $365 $189 $367 $379 forward $277 $-1 #
vertex $-1 $379 $380 #
straight-curve $-1 32.621564087135042 -19.976432177502012 11.522160408817559 1 0 0 I I #
point $-1 59.592979576177711 -19.976432177502012 11.522160408817559 #
point $-1 59.592979576177711 -19.976432177502012 -11.522160408817559 #
plane-surface $-1 0 0 11.522160408817559 0 0 1 1 0 0 forward_v I I I I #
coedge $-1 $311 $310 $303 $381 forward $195 $-1 #
coedge $-1 $303 $197 $199 $307 reversed $112 $-1 #
coedge $-1 $197 $302 $301 $381 reversed $112 $-1 #
coedge $-1 $205 $200 $197 $305 forward $206 $-1 #
edge $-1 $308 -7.6192910044579065 $382 4.1980709413812747 $304 $383 forward 7 unknown #
coedge $-1 $199 $198 $311 $384 reversed $69 $-1 #
edge $-1 $385 -70.08021199954058 $308 -55.473149221257074 $302 $386 forward 7 unknown #
vertex $-1 $201 $387 #
straight-curve $-1 -24.894486629403261 23.222744053931105 11.522160408817559 1 0 0 I I #
coedge $-1 $301 $202 $205 $315 reversed $195 $-1 #
coedge $-1 $202 $301 $306 $384 forward $195 $-1 #
vertex $-1 $203 $388 #
straight-curve $-1 -59.59297957617769 35.04010599977029 79.418095226914204 0 0 1 I I #
straight-curve $-1 -59.59297957617769 -21.65597609491023 44.128459835858294 0 0.80901698891910034 -0.5877852598018023 I I #
edge $-1 $382 39.984966941435353 $207 59.59297957617769 $310 $389 forward 7 unknown #
point $-1 -59.59297957617769 35.04010599977029 11.522160408817559 #
point $-1 -59.59297957617769 23.222744053931109 11.522160408817555 #
edge $-1 $390 1 $390 0 $210 $-1 forward 7 unknown #
vertex $-1 $211 $391 #
ellipse-curve $-1 -55.671377049229221 27.772632404411446 5.3590347510908369 0 0.5877852598018023 0.80901698891910034 1 0 0 1 I I #
point $-1 -54.671377049229221 29.131425026850696 7.2292523137802505 #
edge $-1 $392 1 $392 0 $214 $-1 forward 7 unknown #
vertex $-1 $215 $393 #
ellipse-curve $-1 -49.788973258806521 27.772632404411446 5.3590347510908369 0 0.5877852598018023 0.80901698891910034 1 0 0 1 I I #
point $-1 -48.788973258806521 29.131425026850696 7.2292523137802505 #
edge $-1 $394 1 $394 0 $218 $-1 forward 7 unknown #
vertex $-1 $219 $395 #
ellipse-curve $-1 -43.906569468383822 27.772632404411446 5.3590347510908369 0 0.5877852598018023 0.80901698891910034 1 0 0 1 I I #
point $-1 -42.906569468383822 29.131425026850696 7.2292523137802505 #
plane-surface $-1 70.893276772362441 0 0 -1 0 0 0 0 1 forward_v I I I I #
coedge $-1 $227 $225 $229 $335 reversed $141 $-1 #
edge $-1 $240 -11.522160408817559 $337 11.522160408817559 $239 $396 forward 7 unknown #
vertex $-1 $335 $397 #
straight-curve $-1 -70.893276772362441 -35.04010599977029 0 0 0 -1 I I #
edge $-1 $333 -35.04010599977029 $337 35.04010599977029 $331 $398 forward 7 unknown #
straight-curve $-1 0 -35.04010599977029 -11.522160408817559 -1 0 0 I I #
vertex $-1 $232 $399 #
straight-curve $-1 0 35.04010599977029 -11.522160408817559 1 0 0 I I #
point $-1 70.893276772362441 35.04010599977029 -11.522160408817559 #
point $-1 70.893276772362441 -35.04010599977029 -11.522160408817559 #
straight-curve $-1 -70.893276772362441 0 11.522160408817559 0 -1 0 I I #
point $-1 -70.893276772362441 35.04010599977029 11.522160408817559 #
point $-1 -70.893276772362441 -35.04010599977029 11.522160408817559 #
straight-curve $-1 70.893276772362441 -35.04010599977029 0 0 0 -1 I I #
straight-curve $-1 70.893276772362441 35.04010599977029 0 0 0 -1 I I #
plane-surface $-1 -70.893276772362441 0 0 1 0 0 0 0 -1 forward_v I I I I #
edge $-1 $261 7.7382160887510061 $265 10.738216088751006 $264 $400 forward 7 unknown #
edge $-1 $269 -10.738216088751006 $260 -7.7382160887510061 $267 $401 forward 7 unknown #
straight-curve $-1 -59.592979576177697 -19.976432177502012 0 0 0 -1 I I #
edge $-1 $353 -11.522160408817559 $351 11.522160408817559 $271 $402 forward 7 unknown #
vertex $-1 $350 $403 #
straight-curve $-1 -32.621564087135035 -16.976432177502012 -11.522160408817559 1 0 0 I I #
vertex $-1 $272 $404 #
straight-curve $-1 -32.621564087135035 -16.976432177502012 11.522160408817559 -1 0 0 I I #
point $-1 -59.592979576177697 -16.976432177502012 11.522160408817559 #
point $-1 -59.592979576177697 -16.976432177502012 -11.522160408817559 #
point $-1 -59.592979576177697 -19.976432177502012 -11.522160408817559 #
point $-1 -59.592979576177697 -19.976432177502012 11.522160408817559 #
straight-curve $-1 -70.893276772362441 0 11.522160408817559 0 -1 0 I I #
straight-curve $-1 -70.893276772362441 0 -11.522160408817559 0 1 0 I I #
loop $-1 $-1 $290 $276 #
plane-surface $-1 70.893276772362441 0 0 -1 0 0 0 0 1 forward_v I I I I #
coedge $-1 $292 $283 $279 $364 forward $179 $-1 #
edge $-1 $288 26.97141548904267 $369 38.271712685227413 $363 $405 forward 7 unknown #
coedge $-1 $285 $295 $280 $366 forward $277 $-1 #
edge $-1 $370 -38.271712685227413 $287 -26.97141548904267 $365 $406 forward 7 unknown #
coedge $-1 $290 $281 $295 $379 reversed $361 $-1 #
coedge $-1 $281 $290 $292 $377 reversed $361 $-1 #
vertex $-1 $377 $407 #
vertex $-1 $282 $408 #
straight-curve $-1 70.893276772362441 -16.976432177502012 0 0 0 1 I I #
straight-curve $-1 59.592979576177711 -9.2382160887510061 -11.522160408817559 0 1 0 I I #
straight-curve $-1 59.592979576177711 -9.2382160887510061 11.522160408817559 0 -1 0 I I #
point $-1 59.592979576177711 -16.976432177502012 11.522160408817559 #
point $-1 59.592979576177711 -16.976432177502012 -11.522160408817559 #
straight-curve $-1 70.893276772362441 -19.976432177502012 0 0 0 -1 I I #
edge $-1 $369 16.976432177502012 $293 19.976432177502012 $368 $409 forward 7 unknown #
point $-1 70.893276772362455 -19.976432177502012 -11.522160408817559 #
edge $-1 $296 -19.976432177502012 $370 -16.976432177502012 $367 $410 forward 7 unknown #
point $-1 70.893276772362455 -19.976432177502012 11.522160408817559 #
edge $-1 $382 67.895934818096649 $385 76.481751008171244 $301 $411 forward 7 unknown #
vertex $-1 $315 $412 #
straight-curve $-1 -39.984966941435353 30.842035058389015 11.522160408817555 0 1 0 I I #
edge $-1 $385 15.090480312032092 $312 34.698492946774429 $311 $413 forward 7 unknown #
vertex $-1 $384 $414 #
straight-curve $-1 -39.984966941435353 -21.65597609491023 44.128459835858294 0 -0.80901698891910034 0.5877852598018023 I I #
point $-1 -39.984966941435353 23.222744053931109 11.522160408817555 #
point $-1 -59.59297957617769 35.040105999770297 2.9363442187429527 #
straight-curve $-1 0 35.04010599977029 11.522160408817559 -1 0 0 I I #
vertex $-1 $318 $415 #
point $-1 -54.671377049229221 27.772632404411446 5.3590347510908369 #
vertex $-1 $322 $416 #
point $-1 -48.788973258806521 27.772632404411446 5.3590347510908369 #
vertex $-1 $326 $417 #
point $-1 -42.906569468383822 27.772632404411446 5.3590347510908369 #
straight-curve $-1 -70.893276772362441 35.04010599977029 0 0 0 -1 I I #
point $-1 -70.893276772362441 -35.04010599977029 -11.522160408817559 #
straight-curve $-1 -70.893276772362441 0 -11.522160408817559 0 1 0 I I #
point $-1 -70.893276772362441 35.04010599977029 -11.522160408817559 #
straight-curve $-1 -59.592979576177697 -9.2382160887510061 -11.522160408817559 0 -1 0 I I #
straight-curve $-1 -59.592979576177697 -9.2382160887510061 11.522160408817559 0 1 0 I I #
straight-curve $-1 -70.893276772362441 -16.976432177502012 0 0 0 -1 I I #
point $-1 -70.893276772362441 -16.976432177502012 -11.522160408817559 #
point $-1 -70.893276772362441 -16.976432177502012 11.522160408817559 #
straight-curve $-1 32.621564087135042 -16.976432177502012 -11.522160408817559 1 0 0 I I #
straight-curve $-1 32.621564087135042 -16.976432177502012 11.522160408817559 -1 0 0 I I #
point $-1 70.893276772362455 -16.976432177502012 -11.522160408817559 #
point $-1 70.893276772362455 -16.976432177502012 11.522160408817559 #
straight-curve $-1 70.893276772362441 0 -11.522160408817559 0 -1 0 I I #
straight-curve $-1 70.893276772362441 0 11.522160408817559 0 1 0 I I #
straight-curve $-1 -39.984966941435353 35.04010599977029 79.418095226914204 0 0 -1 I I #
point $-1 -39.984966941435353 35.04010599977029 11.522160408817559 #
straight-curve $-1 -24.894486629403261 35.04010599977029 2.9363442187429563 -1 0 0 I I #
point $-1 -39.984966941435353 35.040105999770297 2.9363442187429527 #
point $-1 -55.671377049229221 27.184847144609641 4.5500177621717359 #
point $-1 -49.788973258806521 27.184847144609641 4.5500177621717359 #
point $-1 -43.906569468383822 27.184847144609641 4.5500177621717359 #
End-of-ACIS-data 