500 0 9 0           
7 Unknown 11 ACIS 5.0 NT 24 Fri Mar 26 16:31:25 1999 
-1 9.9999999999999995e-007 1e-010 
body $-1 $9 $-1 $10 #
body $-1 $11 $-1 $12 #
body $-1 $13 $-1 $14 #
body $-1 $15 $-1 $16 #
body $-1 $17 $-1 $18 #
body $-1 $19 $-1 $20 #
body $-1 $21 $-1 $22 #
body $-1 $23 $-1 $24 #
body $-1 $25 $-1 $26 #
lump $-1 $-1 $27 $0 #
transform $-1 1 0 0 0 1 0 0 0 1 73.11990722373119 48.518172515962114 10.103868336960073 1 rotate no_reflect no_shear #
lump $-1 $-1 $28 $1 #
transform $-1 1 0 0 0 1 0 0 0 1 73.11990722373119 48.518172515962114 10.103868336960073 1 rotate no_reflect no_shear #
lump $-1 $-1 $29 $2 #
transform $-1 1 0 0 0 1 0 0 0 1 73.11990722373119 48.518172515962114 10.103868336960073 1 rotate no_reflect no_shear #
lump $-1 $-1 $30 $3 #
transform $-1 1 0 0 0 1 0 0 0 1 73.11990722373119 48.518172515962114 10.103868336960073 1 rotate no_reflect no_shear #
lump $-1 $-1 $31 $4 #
transform $-1 1 0 0 0 1 0 0 0 1 73.11990722373119 48.518172515962114 10.103868336960073 1 rotate no_reflect no_shear #
lump $-1 $-1 $32 $5 #
transform $-1 1 0 0 0 1 0 0 0 1 73.11990722373119 48.518172515962114 10.103868336960073 1 rotate no_reflect no_shear #
lump $-1 $-1 $33 $6 #
transform $-1 1 0 0 0 1 0 0 0 1 73.11990722373119 48.518172515962114 10.103868336960073 1 rotate no_reflect no_shear #
lump $-1 $-1 $34 $7 #
transform $-1 1 0 0 0 1 0 0 0 1 73.11990722373119 48.518172515962114 10.103868336960073 1 rotate no_reflect no_shear #
lump $-1 $-1 $35 $8 #
transform $-1 1 0 0 0 1 0 0 0 1 73.11990722373119 48.518172515962114 10.103868336960073 1 rotate no_reflect no_shear #
shell $-1 $-1 $-1 $36 $-1 $9 #
shell $-1 $-1 $-1 $37 $-1 $11 #
shell $-1 $-1 $-1 $38 $-1 $13 #
shell $-1 $-1 $-1 $39 $-1 $15 #
shell $-1 $-1 $-1 $40 $-1 $17 #
shell $-1 $-1 $-1 $41 $-1 $19 #
shell $-1 $-1 $-1 $42 $-1 $21 #
shell $-1 $-1 $-1 $43 $-1 $23 #
shell $-1 $-1 $-1 $44 $-1 $25 #
face $-1 $45 $46 $27 $-1 $47 forward single #
face $-1 $48 $49 $28 $-1 $50 reversed single #
face $-1 $51 $52 $29 $-1 $53 forward single #
face $-1 $54 $55 $30 $-1 $56 forward single #
face $-1 $57 $58 $31 $-1 $59 reversed single #
face $-1 $60 $61 $32 $-1 $62 forward single #
face $-1 $63 $64 $33 $-1 $65 forward single #
face $-1 $66 $67 $34 $-1 $68 reversed single #
face $-1 $69 $70 $35 $-1 $71 forward single #
face $-1 $72 $73 $27 $-1 $74 reversed single #
loop $-1 $-1 $75 $36 #
plane-surface $-1 0 0 10.103868336960073 0 0 1 1 0 0 forward_v I I I I #
face $-1 $76 $77 $28 $-1 $78 reversed single #
loop $-1 $-1 $79 $37 #
plane-surface $-1 -62.628247183786939 77.285597933773118 175.88024120023627 1 0 0 0 -0.68199836817093118 -0.7313536940579346 forward_v I I I I #
face $-1 $80 $81 $29 $-1 $82 forward single #
loop $-1 $83 $84 $38 #
cone-surface $-1 -54.745212903610152 43.719232374863942 5.5091881336127102 0 -0.68199836817093118 -0.7313536940579346 2.5 0 0 1 I I 0 1 2.5 forward I I I I #
face $-1 $85 $86 $30 $-1 $87 forward single #
loop $-1 $88 $89 $39 #
cone-surface $-1 -42.920661483344972 43.719232374863942 5.5091881336127102 0 -0.68199836817093118 -0.7313536940579346 2.5 0 0 1 I I 0 1 2.5 forward I I I I #
face $-1 $90 $91 $31 $-1 $92 reversed single #
loop $-1 $-1 $93 $40 #
plane-surface $-1 10.49166003994425 77.285597933773118 175.88024120023627 1 0 0 0 -0.68199836817093118 -0.7313536940579346 forward_v I I I I #
face $-1 $94 $95 $32 $-1 $96 forward single #
loop $-1 $97 $98 $41 #
cone-surface $-1 18.374694320121037 43.719232374863942 5.5091881336127102 0 -0.68199836817093118 -0.7313536940579346 2.5 0 0 1 I I 0 1 2.5 forward I I I I #
face $-1 $99 $100 $33 $-1 $101 forward single #
loop $-1 $102 $103 $42 #
cone-surface $-1 30.199245740386218 43.719232374863942 5.5091881336127102 0 -0.68199836817093118 -0.7313536940579346 2.5 0 0 1 I I 0 1 2.5 forward I I I I #
face $-1 $104 $105 $34 $-1 $106 reversed single #
loop $-1 $-1 $107 $43 #
plane-surface $-1 52.065361802711443 -142.51931444101814 112.20592301400734 -1 0 0 0 -0.64278761758704617 0.76604443648966558 forward_v I I I I #
face $-1 $108 $109 $35 $-1 $110 forward single #
loop $-1 $111 $112 $44 #
cone-surface $-1 35.848751255954738 -40.433111993657803 2.5539106853551377 0 0.64278761758704617 -0.76604443648966558 2 0 0 1 I I 0 1 2 forward I I I I #
face $-1 $113 $114 $27 $-1 $115 reversed single #
loop $-1 $-1 $116 $45 #
plane-surface $-1 0 0 -10.103868336960073 0 0 1 1 0 0 forward_v I I I I #
coedge $-1 $117 $118 $119 $120 forward $46 $-1 #
face $-1 $121 $122 $28 $-1 $123 reversed single #
loop $-1 $-1 $124 $48 #
plane-surface $-1 -48.832937193477562 -22.449716881015988 68.927212685737743 0 0.68199836817093118 0.7313536940579346 1 0 0 forward_v I I I I #
coedge $-1 $125 $126 $127 $128 reversed $49 $-1 #
face $-1 $-1 $129 $29 $-1 $130 forward single #
loop $-1 $131 $132 $51 #
cone-surface $-1 -54.745212903610152 42.011582723794753 3.6779581208259664 0 -0.68199836817093118 -0.7313536940579346 1.25 0 0 1 I I -0.70710678118654746 0.70710678118654746 1.25 forward I I I I #
loop $-1 $-1 $133 $38 #
coedge $-1 $84 $84 $134 $135 reversed $52 $-1 #
face $-1 $-1 $136 $30 $-1 $137 forward single #
loop $-1 $138 $139 $54 #
cone-surface $-1 -42.920661483344972 42.011582723794753 3.6779581208259664 0 -0.68199836817093118 -0.7313536940579346 1.25 0 0 1 I I -0.70710678118654746 0.70710678118654746 1.25 forward I I I I #
loop $-1 $-1 $140 $39 #
coedge $-1 $89 $89 $141 $142 reversed $55 $-1 #
face $-1 $143 $144 $31 $-1 $145 reversed single #
loop $-1 $-1 $146 $57 #
plane-surface $-1 24.286970030253627 -22.449716881015988 68.927212685737743 0 0.68199836817093118 0.7313536940579346 1 0 0 forward_v I I I I #
coedge $-1 $147 $148 $149 $150 reversed $58 $-1 #
face $-1 $-1 $151 $32 $-1 $152 forward single #
loop $-1 $153 $154 $60 #
cone-surface $-1 18.374694320121037 42.011582723794753 3.6779581208259664 0 -0.68199836817093118 -0.7313536940579346 1.25 0 0 1 I I -0.70710678118654746 0.70710678118654746 1.25 forward I I I I #
loop $-1 $-1 $155 $41 #
coedge $-1 $98 $98 $156 $157 reversed $61 $-1 #
face $-1 $-1 $158 $33 $-1 $159 forward single #
loop $-1 $160 $161 $63 #
cone-surface $-1 30.199245740386218 42.011582723794753 3.6779581208259664 0 -0.68199836817093118 -0.7313536940579346 1.25 0 0 1 I I -0.70710678118654746 0.70710678118654746 1.25 forward I I I I #
loop $-1 $-1 $162 $42 #
coedge $-1 $103 $103 $163 $164 reversed $64 $-1 #
face $-1 $165 $166 $34 $-1 $167 reversed single #
loop $-1 $-1 $168 $66 #
plane-surface $-1 35.848751255954738 -48.518172515962107 0.17972676324777126 0 -0.64278761758704617 0.76604443648966558 1 0 0 forward_v I I I I #
coedge $-1 $169 $170 $171 $172 reversed $67 $-1 #
face $-1 $-1 $173 $35 $-1 $174 forward single #
loop $-1 $175 $176 $69 #
cone-surface $-1 35.848751255954738 -37.61882941684965 -0.80002061588331586 0 0.64278761758704617 -0.76604443648966558 1 0 0 1 I I -0.70710678118654746 0.70710678118654746 1 forward I I I I #
loop $-1 $-1 $177 $44 #
coedge $-1 $112 $112 $178 $179 reversed $70 $-1 #
face $-1 $180 $181 $27 $-1 $182 reversed single #
loop $-1 $-1 $183 $72 #
plane-surface $-1 0 -48.518172515962114 0 0 1 0 0 0 1 forward_v I I I I #
coedge $-1 $184 $185 $186 $187 forward $73 $-1 #
coedge $-1 $188 $75 $189 $190 forward $46 $-1 #
coedge $-1 $75 $188 $191 $192 forward $46 $-1 #
coedge $-1 $193 $194 $75 $120 reversed $195 $-1 #
edge $-1 $196 -48.518172515962114 $197 48.518172515962114 $119 $198 forward 7 unknown #
face $-1 $199 $200 $28 $-1 $201 reversed single #
loop $-1 $-1 $202 $76 #
plane-surface $-1 -35.037627203168185 77.285597933773118 175.88024120023627 -1 0 0 0 0.68199836817093118 0.7313536940579346 forward_v I I I I #
coedge $-1 $203 $204 $205 $206 reversed $77 $-1 #
coedge $-1 $126 $79 $207 $208 reversed $49 $-1 #
coedge $-1 $79 $125 $203 $209 reversed $49 $-1 #
coedge $-1 $205 $210 $79 $128 forward $211 $-1 #
edge $-1 $212 -9.8753735490755545 $213 -1.9877966485902334 $127 $214 forward 7 unknown #
loop $-1 $-1 $134 $80 #
plane-surface $-1 -48.832937193477562 -22.449716881015988 68.927212685737743 0 0.68199836817093118 0.7313536940579346 1 0 0 forward_v I I I I #
loop $-1 $-1 $215 $51 #
coedge $-1 $132 $132 $133 $216 reversed $81 $-1 #
coedge $-1 $133 $133 $132 $216 forward $83 $-1 #
coedge $-1 $134 $134 $84 $135 forward $129 $-1 #
edge $-1 $217 -2.0403644006343549e-016 $217 6.2831853071796004 $134 $218 forward 7 unknown #
loop $-1 $-1 $141 $85 #
plane-surface $-1 -48.832937193477562 -22.449716881015988 68.927212685737743 0 0.68199836817093118 0.7313536940579346 1 0 0 forward_v I I I I #
loop $-1 $-1 $219 $54 #
coedge $-1 $139 $139 $140 $220 reversed $86 $-1 #
coedge $-1 $140 $140 $139 $220 forward $88 $-1 #
coedge $-1 $141 $141 $89 $142 forward $136 $-1 #
edge $-1 $221 -2.0403644006343549e-016 $221 6.2831853071796004 $141 $222 forward 7 unknown #
face $-1 $223 $224 $31 $-1 $225 forward single #
loop $-1 $-1 $226 $90 #
plane-surface $-1 38.082280020563005 77.285597933773118 175.88024120023627 -1 0 0 0 0.68199836817093118 0.7313536940579346 forward_v I I I I #
coedge $-1 $227 $228 $229 $230 reversed $91 $-1 #
coedge $-1 $148 $93 $231 $232 reversed $58 $-1 #
coedge $-1 $93 $147 $227 $233 reversed $58 $-1 #
coedge $-1 $229 $234 $93 $150 forward $224 $-1 #
edge $-1 $235 -9.8753735490755545 $236 -1.9877966485902334 $149 $237 forward 7 unknown #
loop $-1 $-1 $156 $94 #
plane-surface $-1 24.286970030253627 -22.449716881015988 68.927212685737743 0 0.68199836817093118 0.7313536940579346 1 0 0 forward_v I I I I #
loop $-1 $-1 $238 $60 #
coedge $-1 $154 $154 $155 $239 reversed $95 $-1 #
coedge $-1 $155 $155 $154 $239 forward $97 $-1 #
coedge $-1 $156 $156 $98 $157 forward $151 $-1 #
edge $-1 $240 -2.0403644006343549e-016 $240 6.2831853071796004 $156 $241 forward 7 unknown #
loop $-1 $-1 $163 $99 #
plane-surface $-1 24.286970030253627 -22.449716881015988 68.927212685737743 0 0.68199836817093118 0.7313536940579346 1 0 0 forward_v I I I I #
loop $-1 $-1 $242 $63 #
coedge $-1 $161 $161 $162 $243 reversed $100 $-1 #
coedge $-1 $162 $162 $161 $243 forward $102 $-1 #
coedge $-1 $163 $163 $103 $164 forward $158 $-1 #
edge $-1 $244 -2.0403644006343549e-016 $244 6.2831853071796004 $163 $245 forward 7 unknown #
face $-1 $246 $247 $34 $-1 $248 reversed single #
loop $-1 $-1 $249 $104 #
plane-surface $-1 19.632140709198033 -142.51931444101814 112.20592301400734 1 0 0 0 0.64278761758704617 -0.76604443648966558 forward_v I I I I #
coedge $-1 $250 $251 $252 $253 reversed $105 $-1 #
coedge $-1 $170 $107 $254 $255 reversed $67 $-1 #
coedge $-1 $107 $169 $250 $256 reversed $67 $-1 #
coedge $-1 $252 $257 $107 $172 forward $258 $-1 #
edge $-1 $259 22.741484704546956 $260 34.56861583071337 $171 $261 forward 7 unknown #
loop $-1 $-1 $178 $108 #
plane-surface $-1 35.848751255954738 -48.518172515962107 0.17972676324777126 0 -0.64278761758704617 0.76604443648966558 1 0 0 forward_v I I I I #
loop $-1 $-1 $262 $69 #
coedge $-1 $176 $176 $177 $263 reversed $109 $-1 #
coedge $-1 $177 $177 $176 $263 forward $111 $-1 #
coedge $-1 $178 $178 $112 $179 forward $173 $-1 #
edge $-1 $264 -4.3789618652077234e-016 $264 6.2831853071796004 $178 $265 forward 7 unknown #
face $-1 $266 $267 $27 $-1 $268 reversed single #
loop $-1 $-1 $269 $113 #
plane-surface $-1 -73.11990722373119 0 0 1 0 0 0 0 -1 forward_v I I I I #
coedge $-1 $270 $191 $271 $272 forward $114 $-1 #
coedge $-1 $273 $116 $270 $274 forward $73 $-1 #
coedge $-1 $116 $273 $275 $276 forward $73 $-1 #
coedge $-1 $194 $193 $116 $187 reversed $195 $-1 #
edge $-1 $277 -48.518172515962114 $278 48.518172515962114 $186 $279 forward 7 unknown #
coedge $-1 $118 $117 $280 $281 forward $46 $-1 #
coedge $-1 $282 $283 $117 $190 reversed $267 $-1 #
edge $-1 $197 -73.11990722373119 $284 73.11990722373119 $189 $285 forward 7 unknown #
coedge $-1 $183 $286 $118 $192 reversed $114 $-1 #
edge $-1 $287 -73.11990722373119 $196 73.11990722373119 $191 $288 forward 7 unknown #
coedge $-1 $186 $119 $286 $289 forward $195 $-1 #
coedge $-1 $119 $186 $282 $290 reversed $195 $-1 #
loop $-1 $-1 $193 $266 #
vertex $-1 $120 $291 #
vertex $-1 $120 $292 #
straight-curve $-1 73.11990722373119 0 10.103868336960073 0 1 0 I I #
face $-1 $-1 $211 $28 $-1 $293 forward single #
loop $-1 $-1 $294 $121 #
plane-surface $-1 0 48.518172515962114 0 0 -1 0 0 0 -1 forward_v I I I I #
coedge $-1 $295 $296 $297 $298 reversed $122 $-1 #
coedge $-1 $299 $124 $126 $209 forward $77 $-1 #
coedge $-1 $124 $299 $295 $300 forward $77 $-1 #
coedge $-1 $297 $127 $124 $206 forward $211 $-1 #
edge $-1 $213 -38.211778587048158 $301 -10.621158606429404 $205 $302 forward 7 unknown #
coedge $-1 $303 $304 $125 $208 forward $200 $-1 #
edge $-1 $305 -85.191536879424163 $212 -77.836252263158059 $207 $306 forward 7 unknown #
edge $-1 $213 86.251444422862022 $305 97.036345031924242 $126 $307 forward 7 unknown #
coedge $-1 $127 $297 $303 $308 forward $211 $-1 #
loop $-1 $-1 $297 $199 #
vertex $-1 $208 $309 #
vertex $-1 $128 $310 #
straight-curve $-1 -62.628247183786939 38.642798966886559 10.103868336960076 0 -1 0 I I #
coedge $-1 $215 $215 $-1 $311 reversed $131 $-1 #
edge $-1 $312 0 $312 6.2831853071796004 $132 $313 forward 7 unknown #
vertex $-1 $135 $314 #
ellipse-curve $-1 -54.745212903610152 44.57438406571945 6.4262260288270205 0 0.68199836817093118 0.7313536940579346 2.5 0 0 1 I I #
coedge $-1 $219 $219 $-1 $315 reversed $138 $-1 #
edge $-1 $316 0 $316 6.2831853071796004 $139 $317 forward 7 unknown #
vertex $-1 $142 $318 #
ellipse-curve $-1 -42.920661483344972 44.57438406571945 6.4262260288270205 0 0.68199836817093118 0.7313536940579346 2.5 0 0 1 I I #
face $-1 $-1 $319 $31 $-1 $320 reversed single #
loop $-1 $-1 $149 $143 #
plane-surface $-1 0 0 10.103868336960073 0 0 1 1 0 0 forward_v I I I I #
coedge $-1 $321 $322 $323 $324 reversed $144 $-1 #
coedge $-1 $325 $146 $148 $233 forward $91 $-1 #
coedge $-1 $146 $325 $321 $326 forward $91 $-1 #
coedge $-1 $323 $149 $146 $230 forward $224 $-1 #
edge $-1 $236 -1.6518249751825635 $327 25.938795005436191 $229 $328 forward 7 unknown #
coedge $-1 $329 $330 $147 $232 forward $319 $-1 #
edge $-1 $331 -85.191536879424163 $235 -77.836252263158059 $231 $332 forward 7 unknown #
edge $-1 $236 86.251444422862022 $331 97.036345031924242 $148 $333 forward 7 unknown #
coedge $-1 $149 $323 $329 $334 forward $224 $-1 #
vertex $-1 $150 $335 #
vertex $-1 $150 $336 #
straight-curve $-1 10.49166003994425 38.642798966886559 10.103868336960076 0 -1 0 I I #
coedge $-1 $238 $238 $-1 $337 reversed $153 $-1 #
edge $-1 $338 0 $338 6.2831853071796004 $154 $339 forward 7 unknown #
vertex $-1 $157 $340 #
ellipse-curve $-1 18.374694320121037 44.57438406571945 6.4262260288270205 0 0.68199836817093118 0.7313536940579346 2.5 0 0 1 I I #
coedge $-1 $242 $242 $-1 $341 reversed $160 $-1 #
edge $-1 $342 0 $342 6.2831853071796004 $161 $343 forward 7 unknown #
vertex $-1 $164 $344 #
ellipse-curve $-1 30.199245740386218 44.57438406571945 6.4262260288270205 0 0.68199836817093118 0.7313536940579346 2.5 0 0 1 I I #
face $-1 $-1 $258 $34 $-1 $345 forward single #
loop $-1 $-1 $346 $165 #
plane-surface $-1 0 -48.518172515962114 0 0 1 0 0 0 1 forward_v I I I I #
coedge $-1 $347 $348 $349 $350 reversed $166 $-1 #
coedge $-1 $351 $168 $170 $256 forward $105 $-1 #
coedge $-1 $168 $351 $347 $352 forward $105 $-1 #
coedge $-1 $349 $171 $168 $253 forward $258 $-1 #
edge $-1 $260 -34.140986174734074 $353 -1.7077650812206642 $252 $354 forward 7 unknown #
coedge $-1 $355 $356 $169 $255 forward $247 $-1 #
edge $-1 $357 -55.923234743755906 $259 -45.999093170043594 $254 $358 forward 7 unknown #
edge $-1 $260 -15.439223317596618 $357 9.2788752659880663e-015 $170 $359 forward 7 unknown #
coedge $-1 $171 $349 $355 $360 forward $258 $-1 #
loop $-1 $-1 $349 $246 #
vertex $-1 $255 $361 #
vertex $-1 $172 $362 #
straight-curve $-1 52.065361802711443 -71.259657220509069 10.103868336960069 0 1 0 I I #
coedge $-1 $262 $262 $-1 $363 reversed $175 $-1 #
edge $-1 $364 0 $364 6.2831853071796004 $176 $365 forward 7 unknown #
vertex $-1 $179 $366 #
ellipse-curve $-1 35.848751255954738 -42.604606952878903 5.1417975501039184 0 -0.64278761758704617 0.76604443648966558 2 0 0 1 I I #
face $-1 $-1 $195 $27 $-1 $367 reversed single #
loop $-1 $-1 $282 $180 #
plane-surface $-1 0 48.518172515962114 0 0 -1 0 0 0 -1 forward_v I I I I #
coedge $-1 $368 $280 $283 $369 forward $181 $-1 #
coedge $-1 $286 $183 $184 $274 reversed $114 $-1 #
coedge $-1 $280 $368 $183 $272 reversed $181 $-1 #
edge $-1 $287 -10.103868336960073 $370 10.103868336960073 $271 $371 forward 7 unknown #
coedge $-1 $185 $184 $368 $372 forward $73 $-1 #
edge $-1 $278 -73.11990722373119 $370 73.11990722373119 $270 $373 forward 7 unknown #
coedge $-1 $283 $282 $185 $276 reversed $267 $-1 #
edge $-1 $374 -73.11990722373119 $277 73.11990722373119 $275 $375 forward 7 unknown #
vertex $-1 $187 $376 #
vertex $-1 $289 $377 #
straight-curve $-1 73.11990722373119 0 -10.103868336960073 0 -1 0 I I #
coedge $-1 $269 $271 $188 $281 reversed $181 $-1 #
edge $-1 $284 -48.518172515962114 $287 48.518172515962114 $280 $378 forward 7 unknown #
coedge $-1 $275 $189 $194 $290 forward $267 $-1 #
coedge $-1 $189 $275 $269 $369 reversed $267 $-1 #
vertex $-1 $190 $379 #
straight-curve $-1 0 48.518172515962114 10.103868336960073 -1 0 0 I I #
coedge $-1 $191 $270 $193 $289 reversed $114 $-1 #
vertex $-1 $281 $380 #
straight-curve $-1 0 -48.518172515962114 10.103868336960073 1 0 0 I I #
edge $-1 $196 -10.103868336960073 $278 10.103868336960073 $193 $381 forward 7 unknown #
edge $-1 $197 -10.103868336960073 $277 10.103868336960073 $194 $382 forward 7 unknown #
point $-1 73.11990722373119 -48.518172515962114 10.103868336960073 #
point $-1 73.11990722373119 48.518172515962114 10.103868336960073 #
plane-surface $-1 0 0 10.103868336960073 0 0 1 1 0 0 forward_v I I I I #
coedge $-1 $304 $303 $296 $383 forward $200 $-1 #
coedge $-1 $296 $202 $204 $300 reversed $122 $-1 #
coedge $-1 $202 $295 $294 $383 reversed $122 $-1 #
coedge $-1 $210 $205 $202 $298 forward $211 $-1 #
edge $-1 $301 1.9877966485902334 $384 9.8753735490755545 $297 $385 forward 7 unknown #
coedge $-1 $204 $203 $304 $386 reversed $77 $-1 #
edge $-1 $387 -97.036345031924242 $301 -86.251444422862022 $295 $388 forward 7 unknown #
vertex $-1 $206 $389 #
straight-curve $-1 -24.416468596738781 40.6305956154768 10.103868336960076 1 0 0 I I #
coedge $-1 $294 $207 $210 $308 reversed $200 $-1 #
coedge $-1 $207 $294 $299 $386 forward $200 $-1 #
vertex $-1 $208 $390 #
straight-curve $-1 -62.628247183786939 48.518172515962114 87.940120600118135 0 0 1 I I #
straight-curve $-1 -62.628247183786939 -22.449716881015988 68.927212685737743 0 0.7313536940579346 -0.68199836817093118 I I #
edge $-1 $384 35.037627203168185 $212 62.628247183786939 $303 $391 forward 7 unknown #
point $-1 -62.628247183786939 48.518172515962114 10.103868336960073 #
point $-1 -62.628247183786939 40.630595615476793 10.103868336960083 #
edge $-1 $392 1 $392 0 $215 $-1 forward 7 unknown #
vertex $-1 $216 $393 #
ellipse-curve $-1 -54.745212903610152 42.864080684008414 4.5921502383983848 0 0.68199836817093118 0.7313536940579346 2.5 0 0 1 I I #
point $-1 -52.245212903610152 44.574384065719464 6.4262260288270365 #
edge $-1 $394 1 $394 0 $219 $-1 forward 7 unknown #
vertex $-1 $220 $395 #
ellipse-curve $-1 -42.920661483344972 42.864080684008414 4.5921502383983848 0 0.68199836817093118 0.7313536940579346 2.5 0 0 1 I I #
point $-1 -40.420661483344972 44.574384065719464 6.4262260288270365 #
loop $-1 $-1 $231 $223 #
plane-surface $-1 0 48.518172515962114 0 0 -1 0 0 0 -1 forward_v I I I I #
coedge $-1 $322 $226 $228 $326 reversed $144 $-1 #
coedge $-1 $226 $321 $396 $397 reversed $144 $-1 #
coedge $-1 $234 $229 $226 $324 forward $224 $-1 #
edge $-1 $327 1.9877966485902334 $398 9.8753735490755545 $323 $399 forward 7 unknown #
coedge $-1 $228 $227 $330 $400 reversed $91 $-1 #
edge $-1 $401 -97.036345031924242 $327 -86.251444422862022 $321 $402 forward 7 unknown #
vertex $-1 $230 $403 #
straight-curve $-1 12.143485015126814 40.6305956154768 10.103868336960076 1 0 0 I I #
coedge $-1 $396 $231 $234 $334 reversed $319 $-1 #
coedge $-1 $231 $396 $325 $400 forward $319 $-1 #
vertex $-1 $232 $404 #
straight-curve $-1 10.49166003994425 48.518172515962114 87.940120600118135 0 0 1 I I #
straight-curve $-1 10.49166003994425 -22.449716881015988 68.927212685737743 0 0.7313536940579346 -0.68199836817093118 I I #
edge $-1 $398 -38.082280020563005 $235 -10.49166003994425 $329 $405 forward 7 unknown #
point $-1 10.49166003994425 48.518172515962114 10.103868336960073 #
point $-1 10.49166003994425 40.630595615476793 10.103868336960083 #
edge $-1 $406 1 $406 0 $238 $-1 forward 7 unknown #
vertex $-1 $239 $407 #
ellipse-curve $-1 18.374694320121037 42.864080684008414 4.5921502383983848 0 0.68199836817093118 0.7313536940579346 2.5 0 0 1 I I #
point $-1 20.874694320121037 44.574384065719464 6.4262260288270365 #
edge $-1 $408 1 $408 0 $242 $-1 forward 7 unknown #
vertex $-1 $243 $409 #
ellipse-curve $-1 30.199245740386218 42.864080684008414 4.5921502383983848 0 0.68199836817093118 0.7313536940579346 2.5 0 0 1 I I #
point $-1 32.699245740386218 44.574384065719464 6.4262260288270365 #
plane-surface $-1 0 0 10.103868336960073 0 0 1 1 0 0 forward_v I I I I #
coedge $-1 $356 $355 $348 $410 forward $247 $-1 #
coedge $-1 $348 $249 $251 $352 reversed $166 $-1 #
coedge $-1 $249 $347 $346 $410 reversed $166 $-1 #
coedge $-1 $257 $252 $249 $350 forward $258 $-1 #
edge $-1 $353 -34.56861583071337 $411 -22.741484704546956 $349 $412 forward 7 unknown #
coedge $-1 $251 $250 $356 $413 reversed $105 $-1 #
edge $-1 $414 -9.2788752659880663e-015 $353 15.439223317596618 $347 $415 forward 7 unknown #
vertex $-1 $253 $416 #
straight-curve $-1 17.924375627977369 -36.6910413897957 10.103868336960073 -1 0 0 I I #
coedge $-1 $346 $254 $257 $360 reversed $247 $-1 #
coedge $-1 $254 $346 $351 $413 forward $247 $-1 #
vertex $-1 $255 $417 #
straight-curve $-1 52.065361802711443 -48.518172515962114 56.10296150700367 0 0 1 I I #
straight-curve $-1 52.065361802711443 -48.518172515962107 0.17972676324777126 0 -0.76604443648966558 -0.64278761758704617 I I #
edge $-1 $411 19.632140709198033 $259 52.065361802711443 $355 $418 forward 7 unknown #
point $-1 52.065361802711443 -48.518172515962114 10.103868336960073 #
point $-1 52.065361802711443 -36.6910413897957 10.103868336960073 #
edge $-1 $419 1 $419 0 $262 $-1 forward 7 unknown #
vertex $-1 $263 $420 #
ellipse-curve $-1 35.848751255954738 -38.261617034436696 -0.033976179393650274 0 -0.64278761758704617 0.76604443648966558 2 0 0 1 I I #
point $-1 37.848751255954738 -42.60460695287891 5.1417975501039255 #
plane-surface $-1 73.11990722373119 0 0 -1 0 0 0 0 1 forward_v I I I I #
coedge $-1 $271 $269 $273 $372 reversed $181 $-1 #
edge $-1 $284 -10.103868336960073 $374 10.103868336960073 $283 $421 forward 7 unknown #
vertex $-1 $372 $422 #
straight-curve $-1 -73.11990722373119 -48.518172515962114 0 0 0 -1 I I #
edge $-1 $370 -48.518172515962114 $374 48.518172515962114 $368 $423 forward 7 unknown #
straight-curve $-1 0 -48.518172515962114 -10.103868336960073 -1 0 0 I I #
vertex $-1 $276 $424 #
straight-curve $-1 0 48.518172515962114 -10.103868336960073 1 0 0 I I #
point $-1 73.11990722373119 48.518172515962114 -10.103868336960073 #
point $-1 73.11990722373119 -48.518172515962114 -10.103868336960073 #
straight-curve $-1 -73.11990722373119 0 10.103868336960073 0 -1 0 I I #
point $-1 -73.11990722373119 48.518172515962114 10.103868336960073 #
point $-1 -73.11990722373119 -48.518172515962114 10.103868336960073 #
straight-curve $-1 73.11990722373119 -48.518172515962114 0 0 0 -1 I I #
straight-curve $-1 73.11990722373119 48.518172515962114 0 0 0 -1 I I #
edge $-1 $384 77.836252263158059 $387 85.191536879424163 $294 $425 forward 7 unknown #
vertex $-1 $308 $426 #
straight-curve $-1 -35.037627203168185 38.642798966886559 10.103868336960076 0 1 0 I I #
edge $-1 $387 10.621158606429404 $305 38.211778587048158 $304 $427 forward 7 unknown #
vertex $-1 $386 $428 #
straight-curve $-1 -35.037627203168185 -22.449716881015988 68.927212685737743 0 -0.7313536940579346 0.68199836817093118 I I #
point $-1 -35.037627203168185 40.630595615476793 10.103868336960083 #
point $-1 -62.628247183786939 48.518172515962121 2.7485837206939721 #
straight-curve $-1 0 48.518172515962114 10.103868336960073 -1 0 0 I I #
vertex $-1 $311 $429 #
point $-1 -52.245212903610152 42.864080684008414 4.5921502383983848 #
vertex $-1 $315 $430 #
point $-1 -40.420661483344972 42.864080684008414 4.5921502383983848 #
coedge $-1 $330 $329 $322 $397 forward $319 $-1 #
edge $-1 $398 77.836252263158059 $401 85.191536879424163 $396 $431 forward 7 unknown #
vertex $-1 $334 $432 #
straight-curve $-1 38.082280020563005 38.642798966886559 10.103868336960076 0 1 0 I I #
edge $-1 $401 -25.938795005436191 $331 1.6518249751825635 $330 $433 forward 7 unknown #
vertex $-1 $400 $434 #
straight-curve $-1 38.082280020563005 -22.449716881015988 68.927212685737743 0 -0.7313536940579346 0.68199836817093118 I I #
point $-1 38.082280020563005 40.630595615476793 10.103868336960083 #
point $-1 10.49166003994425 48.518172515962121 2.7485837206939721 #
straight-curve $-1 0 48.518172515962114 10.103868336960073 -1 0 0 I I #
vertex $-1 $337 $435 #
point $-1 20.874694320121037 42.864080684008414 4.5921502383983848 #
vertex $-1 $341 $436 #
point $-1 32.699245740386218 42.864080684008414 4.5921502383983848 #
edge $-1 $411 45.999093170043594 $414 55.923234743755906 $346 $437 forward 7 unknown #
vertex $-1 $360 $438 #
straight-curve $-1 19.632140709198033 -71.259657220509069 10.103868336960069 0 -1 0 I I #
edge $-1 $414 1.7077650812206642 $357 34.140986174734074 $356 $439 forward 7 unknown #
vertex $-1 $413 $440 #
straight-curve $-1 19.632140709198033 -48.518172515962107 0.17972676324777126 0 0.76604443648966558 0.64278761758704617 I I #
point $-1 19.632140709198033 -36.6910413897957 10.103868336960073 #
point $-1 52.065361802711443 -48.518172515962114 0.17972676324776529 #
straight-curve $-1 0 -48.518172515962114 10.103868336960073 1 0 0 I I #
vertex $-1 $363 $441 #
point $-1 37.848751255954738 -38.261617034436696 -0.033976179393650274 #
straight-curve $-1 -73.11990722373119 48.518172515962114 0 0 0 -1 I I #
point $-1 -73.11990722373119 -48.518172515962114 -10.103868336960073 #
straight-curve $-1 -73.11990722373119 0 -10.103868336960073 0 1 0 I I #
point $-1 -73.11990722373119 48.518172515962114 -10.103868336960073 #
straight-curve $-1 -35.037627203168185 48.518172515962114 87.940120600118135 0 0 -1 I I #
point $-1 -35.037627203168185 48.518172515962114 10.103868336960073 #
straight-curve $-1 -24.416468596738781 48.518172515962107 2.7485837206939792 -1 0 0 I I #
point $-1 -35.037627203168185 48.518172515962121 2.7485837206939721 #
point $-1 -54.745212903610152 41.159084763581092 2.763766003253548 #
point $-1 -42.920661483344972 41.159084763581092 2.763766003253548 #
straight-curve $-1 38.082280020563005 48.518172515962114 87.940120600118135 0 0 -1 I I #
point $-1 38.082280020563005 48.518172515962114 10.103868336960073 #
straight-curve $-1 12.143485015126814 48.518172515962107 2.7485837206939792 -1 0 0 I I #
point $-1 38.082280020563005 48.518172515962121 2.7485837206939721 #
point $-1 18.374694320121037 41.159084763581092 2.763766003253548 #
point $-1 30.199245740386218 41.159084763581092 2.763766003253548 #
straight-curve $-1 19.632140709198033 -48.518172515962114 56.10296150700367 0 0 -1 I I #
point $-1 19.632140709198033 -48.518172515962114 10.103868336960073 #
straight-curve $-1 17.924375627977369 -48.518172515962114 0.1797267632477641 1 0 0 I I #
point $-1 19.632140709198033 -48.518172515962114 0.17972676324776529 #
point $-1 35.848751255954738 -36.976041799262603 -1.5660650523729815 #
End-of-ACIS-data 