500 0 6 0           
7 Unknown 11 ACIS 5.0 NT 24 Thu Mar 25 17:57:55 1999 
-1 9.9999999999999995e-007 1e-010 
body $-1 $6 $-1 $7 #
body $-1 $8 $-1 $9 #
body $-1 $10 $-1 $11 #
body $-1 $12 $-1 $13 #
body $-1 $14 $-1 $15 #
body $-1 $16 $-1 $17 #
lump $-1 $-1 $18 $0 #
transform $-1 1 0 0 0 1 0 0 0 1 62.979216895046847 36.284501247843053 7.4153618764665987 1 rotate no_reflect no_shear #
lump $-1 $-1 $19 $1 #
transform $-1 1 0 0 0 1 0 0 0 1 62.979216895046847 36.284501247843053 7.4153618764665987 1 rotate no_reflect no_shear #
lump $-1 $-1 $20 $2 #
transform $-1 1 0 0 0 1 0 0 0 1 62.979216895046847 36.284501247843053 7.4153618764665987 1 rotate no_reflect no_shear #
lump $-1 $-1 $21 $3 #
transform $-1 1 0 0 0 1 0 0 0 1 62.979216895046847 36.284501247843053 7.4153618764665987 1 rotate no_reflect no_shear #
lump $-1 $-1 $22 $4 #
transform $-1 1 0 0 0 1 0 0 0 1 62.979216895046847 36.284501247843053 7.4153618764665987 1 rotate no_reflect no_shear #
lump $-1 $-1 $23 $5 #
transform $-1 1 0 0 0 1 0 0 0 1 62.979216895046847 36.284501247843053 7.4153618764665987 1 rotate no_reflect no_shear #
shell $-1 $-1 $-1 $24 $-1 $6 #
shell $-1 $-1 $-1 $25 $-1 $8 #
shell $-1 $-1 $-1 $26 $-1 $10 #
shell $-1 $-1 $-1 $27 $-1 $12 #
shell $-1 $-1 $-1 $28 $-1 $14 #
shell $-1 $-1 $-1 $29 $-1 $16 #
face $-1 $30 $31 $18 $-1 $32 forward single #
face $-1 $33 $34 $19 $-1 $35 reversed single #
face $-1 $36 $37 $20 $-1 $38 reversed single #
face $-1 $39 $40 $21 $-1 $41 reversed single #
face $-1 $42 $43 $22 $-1 $44 forward single #
face $-1 $45 $46 $23 $-1 $47 forward single #
face $-1 $48 $49 $18 $-1 $50 reversed single #
loop $-1 $-1 $51 $24 #
plane-surface $-1 0 0 7.4153618764665987 0 0 1 1 0 0 forward_v I I I I #
face $-1 $52 $53 $19 $-1 $54 reversed single #
loop $-1 $-1 $55 $25 #
plane-surface $-1 -53.180155563383678 -32.824385267376464 0 1 0 0 0 0 -1 forward_v I I I I #
face $-1 $56 $57 $20 $-1 $58 reversed single #
loop $-1 $-1 $59 $26 #
plane-surface $-1 -51.680155563383678 29.364269286909881 0 0 1 0 0 0 1 forward_v I I I I #
face $-1 $60 $61 $21 $-1 $62 reversed single #
loop $-1 $-1 $63 $27 #
plane-surface $-1 62.979218961834007 29.36426928690987 178.45134873490332 0 -1 0 -0.70710678939079041 0 -0.70710677298230451 forward_v I I I I #
face $-1 $64 $65 $22 $-1 $66 forward single #
loop $-1 $67 $68 $28 #
cone-surface $-1 58.305737216219988 20.702769949990646 2.741882141421716 -0.70710678939079041 0 -0.70710677298230451 0.70710677298230451 0 -0.70710678939079041 1 I I 0 1 1 forward I I I I #
face $-1 $69 $70 $23 $-1 $71 forward single #
loop $-1 $72 $73 $29 #
cone-surface $-1 58.305737216219988 25.899669552142186 2.741882141421716 -0.70710678939079041 0 -0.70710677298230451 0.70710677298230451 0 -0.70710678939079041 1 I I 0 1 1 forward I I I I #
face $-1 $74 $75 $18 $-1 $76 reversed single #
loop $-1 $-1 $77 $30 #
plane-surface $-1 0 0 -7.4153618764665987 0 0 1 1 0 0 forward_v I I I I #
coedge $-1 $78 $79 $80 $81 forward $31 $-1 #
face $-1 $82 $83 $19 $-1 $84 reversed single #
loop $-1 $-1 $85 $33 #
plane-surface $-1 -51.680155563383678 -29.364269286909877 0 0 -1 0 0 0 -1 forward_v I I I I #
coedge $-1 $86 $87 $88 $89 forward $34 $-1 #
face $-1 $90 $91 $20 $-1 $92 reversed single #
loop $-1 $-1 $93 $36 #
plane-surface $-1 -53.180155563383678 32.824385267376471 0 1 0 0 0 0 -1 forward_v I I I I #
coedge $-1 $94 $95 $96 $97 forward $37 $-1 #
face $-1 $98 $99 $21 $-1 $100 reversed single #
loop $-1 $-1 $101 $39 #
plane-surface $-1 -26.086844752171586 23.301219751066412 89.385287087684915 0.70710678939079041 0 0.70710677298230451 0.70710677298230451 0 -0.70710678939079041 forward_v I I I I #
coedge $-1 $102 $103 $104 $105 reversed $40 $-1 #
face $-1 $-1 $106 $22 $-1 $107 forward single #
loop $-1 $108 $109 $42 #
cone-surface $-1 56.826773311758089 20.702769949990646 1.2629182712793243 -0.70710678939079041 0 -0.70710677298230451 0.35355338649115226 0 -0.35355339469539521 1 I I -0.70710678118654746 0.70710678118654746 0.5 forward I I I I #
loop $-1 $-1 $110 $28 #
coedge $-1 $68 $68 $111 $112 reversed $43 $-1 #
face $-1 $-1 $113 $23 $-1 $114 forward single #
loop $-1 $115 $116 $45 #
cone-surface $-1 56.826773311758089 25.899669552142186 1.2629182712793243 -0.70710678939079041 0 -0.70710677298230451 0.35355338649115226 0 -0.35355339469539521 1 I I -0.70710678118654746 0.70710678118654746 0.5 forward I I I I #
loop $-1 $-1 $117 $29 #
coedge $-1 $73 $73 $118 $119 reversed $46 $-1 #
face $-1 $120 $121 $18 $-1 $122 reversed single #
loop $-1 $-1 $123 $48 #
plane-surface $-1 0 -36.284501247843053 0 0 1 0 0 0 1 forward_v I I I I #
coedge $-1 $124 $125 $126 $127 forward $49 $-1 #
coedge $-1 $128 $51 $129 $130 forward $31 $-1 #
coedge $-1 $51 $128 $131 $132 forward $31 $-1 #
coedge $-1 $133 $134 $51 $81 reversed $135 $-1 #
edge $-1 $136 -36.284501247843053 $137 36.284501247843053 $80 $138 forward 7 unknown #
face $-1 $139 $140 $19 $-1 $141 forward single #
loop $-1 $-1 $142 $52 #
plane-surface $-1 -50.180155563383678 -32.824385267376464 0 -1 0 0 0 0 1 forward_v I I I I #
coedge $-1 $143 $144 $145 $146 forward $53 $-1 #
coedge $-1 $147 $55 $148 $149 reversed $34 $-1 #
coedge $-1 $55 $147 $150 $151 reversed $34 $-1 #
coedge $-1 $144 $143 $55 $89 reversed $53 $-1 #
edge $-1 $152 -7.4153618764665987 $153 7.4153618764665987 $88 $154 forward 7 unknown #
face $-1 $155 $156 $20 $-1 $157 reversed single #
loop $-1 $-1 $158 $56 #
plane-surface $-1 -50.180155563383678 32.824385267376471 0 -1 0 0 0 0 1 forward_v I I I I #
coedge $-1 $159 $160 $161 $162 reversed $57 $-1 #
coedge $-1 $163 $59 $164 $165 reversed $37 $-1 #
coedge $-1 $59 $163 $166 $167 reversed $37 $-1 #
coedge $-1 $160 $159 $59 $97 reversed $57 $-1 #
edge $-1 $168 -7.4153618764665987 $169 7.4153618764665987 $96 $170 forward 7 unknown #
face $-1 $171 $172 $21 $-1 $173 forward single #
loop $-1 $-1 $174 $60 #
plane-surface $-1 62.979218961834007 17.238170215222954 178.45134873490332 0 1 0 0.70710678939079041 0 0.70710677298230451 forward_v I I I I #
coedge $-1 $175 $176 $177 $178 reversed $61 $-1 #
coedge $-1 $103 $63 $179 $180 reversed $40 $-1 #
coedge $-1 $63 $102 $175 $181 reversed $40 $-1 #
coedge $-1 $177 $182 $63 $105 forward $172 $-1 #
edge $-1 $183 -31.489607414129843 $184 -24.393469076009161 $104 $185 forward 7 unknown #
loop $-1 $-1 $111 $64 #
plane-surface $-1 -26.086844752171586 23.301219751066412 89.385287087684915 0.70710678939079041 0 0.70710677298230451 0.70710677298230451 0 -0.70710678939079041 forward_v I I I I #
loop $-1 $-1 $186 $42 #
coedge $-1 $109 $109 $110 $187 reversed $65 $-1 #
coedge $-1 $110 $110 $109 $187 forward $67 $-1 #
coedge $-1 $111 $111 $68 $112 forward $106 $-1 #
edge $-1 $188 0 $188 6.2831853071796004 $111 $189 forward 7 unknown #
loop $-1 $-1 $118 $69 #
plane-surface $-1 -26.086844752171586 23.301219751066412 89.385287087684915 0.70710678939079041 0 0.70710677298230451 0.70710677298230451 0 -0.70710678939079041 forward_v I I I I #
loop $-1 $-1 $190 $45 #
coedge $-1 $116 $116 $117 $191 reversed $70 $-1 #
coedge $-1 $117 $117 $116 $191 forward $72 $-1 #
coedge $-1 $118 $118 $73 $119 forward $113 $-1 #
edge $-1 $192 0 $192 6.2831853071796004 $118 $193 forward 7 unknown #
face $-1 $194 $195 $18 $-1 $196 reversed single #
loop $-1 $-1 $197 $74 #
plane-surface $-1 -62.979216895046847 0 0 1 0 0 0 0 -1 forward_v I I I I #
coedge $-1 $198 $131 $199 $200 forward $75 $-1 #
coedge $-1 $201 $77 $198 $202 forward $49 $-1 #
coedge $-1 $77 $201 $203 $204 forward $49 $-1 #
coedge $-1 $134 $133 $77 $127 reversed $135 $-1 #
edge $-1 $205 -36.284501247843053 $206 36.284501247843053 $126 $207 forward 7 unknown #
coedge $-1 $79 $78 $208 $209 forward $31 $-1 #
coedge $-1 $210 $211 $78 $130 reversed $195 $-1 #
edge $-1 $137 -62.979216895046847 $212 62.979216895046847 $129 $213 forward 7 unknown #
coedge $-1 $123 $214 $79 $132 reversed $75 $-1 #
edge $-1 $215 -62.979216895046847 $136 62.979216895046847 $131 $216 forward 7 unknown #
coedge $-1 $126 $80 $214 $217 forward $135 $-1 #
coedge $-1 $80 $126 $210 $218 reversed $135 $-1 #
loop $-1 $-1 $133 $194 #
vertex $-1 $81 $219 #
vertex $-1 $81 $220 #
straight-curve $-1 62.979216895046847 0 7.4153618764665987 0 1 0 I I #
face $-1 $221 $222 $19 $-1 $223 reversed single #
loop $-1 $-1 $224 $82 #
plane-surface $-1 0 0 7.4153618764665987 0 0 1 1 0 0 forward_v I I I I #
coedge $-1 $225 $226 $227 $228 reversed $83 $-1 #
coedge $-1 $88 $85 $229 $230 reversed $53 $-1 #
coedge $-1 $85 $88 $231 $232 reversed $53 $-1 #
coedge $-1 $226 $225 $85 $146 reversed $83 $-1 #
edge $-1 $233 -7.4153618764665987 $234 7.4153618764665987 $145 $235 forward 7 unknown #
coedge $-1 $87 $86 $236 $237 reversed $34 $-1 #
coedge $-1 $229 $238 $86 $149 forward $222 $-1 #
edge $-1 $239 -19.872308614154822 $153 -12.952076653221646 $148 $240 forward 7 unknown #
coedge $-1 $241 $231 $87 $151 forward $140 $-1 #
edge $-1 $152 12.952076653221646 $242 19.872308614154822 $150 $243 forward 7 unknown #
vertex $-1 $151 $244 #
vertex $-1 $149 $245 #
straight-curve $-1 -53.180155563383678 -29.364269286909877 0 0 0 -1 I I #
face $-1 $246 $247 $20 $-1 $248 forward single #
loop $-1 $-1 $249 $90 #
plane-surface $-1 0 0 -7.4153618764665987 0 0 1 1 0 0 forward_v I I I I #
coedge $-1 $250 $251 $163 $252 forward $91 $-1 #
coedge $-1 $96 $93 $253 $254 reversed $57 $-1 #
coedge $-1 $93 $96 $255 $256 reversed $57 $-1 #
coedge $-1 $257 $258 $93 $162 forward $259 $-1 #
edge $-1 $260 -7.4153618764665987 $261 7.4153618764665987 $161 $262 forward 7 unknown #
coedge $-1 $95 $94 $158 $252 reversed $37 $-1 #
coedge $-1 $253 $249 $94 $165 forward $156 $-1 #
edge $-1 $263 24.340077781691839 $169 27.340077781691839 $164 $264 forward 7 unknown #
coedge $-1 $265 $255 $95 $167 forward $247 $-1 #
edge $-1 $168 -27.340077781691839 $266 -24.340077781691839 $166 $267 forward 7 unknown #
vertex $-1 $167 $268 #
vertex $-1 $165 $269 #
straight-curve $-1 -53.180155563383678 29.364269286909881 0 0 0 -1 I I #
face $-1 $-1 $270 $21 $-1 $271 reversed single #
loop $-1 $-1 $104 $98 #
plane-surface $-1 0 0 7.4153618764665987 0 0 1 1 0 0 forward_v I I I I #
coedge $-1 $272 $273 $274 $275 reversed $99 $-1 #
coedge $-1 $276 $101 $103 $181 forward $61 $-1 #
coedge $-1 $101 $276 $272 $277 forward $61 $-1 #
coedge $-1 $274 $104 $101 $178 forward $172 $-1 #
edge $-1 $184 -17.713659411376664 $278 -5.5875603396897482 $177 $279 forward 7 unknown #
coedge $-1 $280 $281 $102 $180 forward $270 $-1 #
edge $-1 $282 -88.906450993772353 $183 -81.810312490985055 $179 $283 forward 7 unknown #
edge $-1 $184 115.92297859541091 $282 125.95843379009374 $103 $284 forward 7 unknown #
coedge $-1 $104 $274 $280 $285 forward $172 $-1 #
vertex $-1 $105 $286 #
vertex $-1 $105 $287 #
straight-curve $-1 31.489609480917004 29.36426928690987 7.4153618764666049 -1 0 0 I I #
coedge $-1 $186 $186 $-1 $288 reversed $108 $-1 #
edge $-1 $289 0 $289 6.2831853071796004 $109 $290 forward 7 unknown #
vertex $-1 $112 $291 #
ellipse-curve $-1 59.431147725986506 20.702769949990646 3.867292625072964 0.70710678939079041 0 0.70710677298230451 0.70710677298230451 0 -0.70710678939079041 1 I I #
coedge $-1 $190 $190 $-1 $292 reversed $115 $-1 #
edge $-1 $293 0 $293 6.2831853071796004 $116 $294 forward 7 unknown #
vertex $-1 $119 $295 #
ellipse-curve $-1 59.431147725986506 25.899669552142186 3.867292625072964 0.70710678939079041 0 0.70710677298230451 0.70710677298230451 0 -0.70710678939079041 1 I I #
face $-1 $-1 $135 $18 $-1 $296 reversed single #
loop $-1 $-1 $210 $120 #
plane-surface $-1 0 36.284501247843053 0 0 -1 0 0 0 -1 forward_v I I I I #
coedge $-1 $297 $208 $211 $298 forward $121 $-1 #
coedge $-1 $214 $123 $124 $202 reversed $75 $-1 #
coedge $-1 $208 $297 $123 $200 reversed $121 $-1 #
edge $-1 $215 -7.4153618764665987 $299 7.4153618764665987 $199 $300 forward 7 unknown #
coedge $-1 $125 $124 $297 $301 forward $49 $-1 #
edge $-1 $206 -62.979216895046847 $299 62.979216895046847 $198 $302 forward 7 unknown #
coedge $-1 $211 $210 $125 $204 reversed $195 $-1 #
edge $-1 $303 -62.979216895046847 $205 62.979216895046847 $203 $304 forward 7 unknown #
vertex $-1 $127 $305 #
vertex $-1 $217 $306 #
straight-curve $-1 62.979216895046847 0 -7.4153618764665987 0 -1 0 I I #
coedge $-1 $197 $199 $128 $209 reversed $121 $-1 #
edge $-1 $212 -36.284501247843053 $215 36.284501247843053 $208 $307 forward 7 unknown #
coedge $-1 $203 $129 $134 $218 forward $195 $-1 #
coedge $-1 $129 $203 $197 $298 reversed $195 $-1 #
vertex $-1 $130 $308 #
straight-curve $-1 0 36.284501247843053 7.4153618764665987 -1 0 0 I I #
coedge $-1 $131 $198 $133 $217 reversed $75 $-1 #
vertex $-1 $209 $309 #
straight-curve $-1 0 -36.284501247843053 7.4153618764665987 1 0 0 I I #
edge $-1 $136 -7.4153618764665987 $206 7.4153618764665987 $133 $310 forward 7 unknown #
edge $-1 $137 -7.4153618764665987 $205 7.4153618764665987 $134 $311 forward 7 unknown #
point $-1 62.979216895046847 -36.284501247843053 7.4153618764665987 #
point $-1 62.979216895046847 36.284501247843053 7.4153618764665987 #
face $-1 $-1 $312 $19 $-1 $313 reversed single #
loop $-1 $-1 $314 $139 #
plane-surface $-1 0 0 -7.4153618764665987 0 0 1 1 0 0 forward_v I I I I #
coedge $-1 $231 $241 $226 $315 forward $140 $-1 #
coedge $-1 $145 $142 $314 $316 reversed $83 $-1 #
coedge $-1 $142 $145 $224 $315 reversed $83 $-1 #
coedge $-1 $317 $318 $142 $228 forward $312 $-1 #
edge $-1 $319 -7.4153618764665987 $320 7.4153618764665987 $227 $321 forward 7 unknown #
coedge $-1 $314 $148 $143 $230 forward $222 $-1 #
edge $-1 $153 -27.340077781691839 $234 -24.340077781691839 $229 $322 forward 7 unknown #
coedge $-1 $150 $224 $144 $232 forward $140 $-1 #
edge $-1 $233 24.340077781691839 $152 27.340077781691839 $231 $323 forward 7 unknown #
vertex $-1 $232 $324 #
vertex $-1 $230 $325 #
straight-curve $-1 -50.180155563383678 -29.364269286909877 0 0 0 -1 I I #
coedge $-1 $318 $317 $147 $237 forward $312 $-1 #
edge $-1 $242 -7.4153618764665987 $239 7.4153618764665987 $236 $326 forward 7 unknown #
coedge $-1 $148 $314 $318 $327 forward $222 $-1 #
vertex $-1 $149 $328 #
straight-curve $-1 -53.180155563383678 -16.412192633688232 -7.4153618764665987 0 1 0 I I #
coedge $-1 $224 $150 $317 $329 forward $140 $-1 #
vertex $-1 $329 $330 #
straight-curve $-1 -53.180155563383678 -16.412192633688232 7.4153618764665987 0 -1 0 I I #
point $-1 -53.180155563383678 -29.364269286909877 7.4153618764665987 #
point $-1 -53.180155563383678 -29.364269286909877 -7.4153618764665987 #
face $-1 $-1 $259 $20 $-1 $331 reversed single #
loop $-1 $-1 $265 $155 #
plane-surface $-1 0 0 7.4153618764665987 0 0 1 1 0 0 forward_v I I I I #
coedge $-1 $164 $332 $250 $333 forward $156 $-1 #
coedge $-1 $334 $158 $249 $333 reversed $91 $-1 #
coedge $-1 $158 $334 $265 $335 reversed $91 $-1 #
edge $-1 $266 -7.4153618764665987 $263 7.4153618764665987 $158 $336 forward 7 unknown #
coedge $-1 $332 $164 $159 $254 forward $156 $-1 #
edge $-1 $169 12.952076653221646 $260 19.872308614154825 $253 $337 forward 7 unknown #
coedge $-1 $166 $338 $160 $256 forward $247 $-1 #
edge $-1 $261 -19.872308614154825 $168 -12.952076653221646 $255 $339 forward 7 unknown #
coedge $-1 $340 $161 $338 $341 reversed $259 $-1 #
coedge $-1 $161 $340 $332 $342 reversed $259 $-1 #
loop $-1 $-1 $340 $246 #
vertex $-1 $342 $343 #
vertex $-1 $162 $344 #
straight-curve $-1 -53.180155563383678 36.284501247843053 0 0 0 1 I I #
vertex $-1 $165 $345 #
straight-curve $-1 -25.840077781691839 29.364269286909881 -7.4153618764665987 -1 0 0 I I #
coedge $-1 $338 $166 $251 $335 forward $247 $-1 #
vertex $-1 $167 $346 #
straight-curve $-1 -25.840077781691839 29.364269286909881 7.4153618764665987 1 0 0 I I #
point $-1 -53.180155563383678 29.364269286909881 7.4153618764665987 #
point $-1 -53.180155563383678 29.364269286909881 -7.4153618764665987 #
loop $-1 $-1 $179 $171 #
plane-surface $-1 62.979216895046847 0 0 -1 0 0 0 0 1 forward_v I I I I #
coedge $-1 $273 $174 $176 $277 reversed $99 $-1 #
coedge $-1 $174 $272 $347 $348 reversed $99 $-1 #
coedge $-1 $182 $177 $174 $275 forward $172 $-1 #
edge $-1 $278 24.393469076009161 $349 31.489607414129843 $274 $350 forward 7 unknown #
coedge $-1 $176 $175 $281 $351 reversed $61 $-1 #
edge $-1 $352 -125.95843379009374 $278 -115.92297859541091 $272 $353 forward 7 unknown #
vertex $-1 $178 $354 #
straight-curve $-1 55.883078556926186 11.650609875533206 7.4153618764665978 0 -1 0 I I #
coedge $-1 $347 $179 $182 $285 reversed $270 $-1 #
coedge $-1 $179 $347 $276 $351 forward $270 $-1 #
vertex $-1 $180 $355 #
straight-curve $-1 62.979216895046847 29.36426928690987 89.22567436745166 0 0 1 I I #
straight-curve $-1 -26.086844752171586 29.36426928690987 89.385287087684915 0.70710677298230451 0 -0.70710678939079041 I I #
edge $-1 $349 17.238170215222954 $183 29.36426928690987 $280 $356 forward 7 unknown #
point $-1 62.979216895046847 29.36426928690987 7.4153618764665987 #
point $-1 55.883078556926165 29.36426928690987 7.4153618764666049 #
edge $-1 $357 1 $357 0 $186 $-1 forward 7 unknown #
vertex $-1 $187 $358 #
ellipse-curve $-1 57.180326706453485 20.702769949990646 1.6164716577704765 0.70710678939079041 0 0.70710677298230451 0.70710677298230451 0 -0.70710678939079041 1 I I #
point $-1 60.138254498968799 20.702769949990646 3.160185835682165 #
edge $-1 $359 1 $359 0 $190 $-1 forward 7 unknown #
vertex $-1 $191 $360 #
ellipse-curve $-1 57.180326706453485 25.899669552142186 1.6164716577704765 0.70710678939079041 0 0.70710677298230451 0.70710677298230451 0 -0.70710678939079041 1 I I #
point $-1 60.138254498968799 25.899669552142186 3.160185835682165 #
plane-surface $-1 62.979216895046847 0 0 -1 0 0 0 0 1 forward_v I I I I #
coedge $-1 $199 $197 $201 $301 reversed $121 $-1 #
edge $-1 $212 -7.4153618764665987 $303 7.4153618764665987 $211 $361 forward 7 unknown #
vertex $-1 $301 $362 #
straight-curve $-1 -62.979216895046847 -36.284501247843053 0 0 0 -1 I I #
edge $-1 $299 -36.284501247843053 $303 36.284501247843053 $297 $363 forward 7 unknown #
straight-curve $-1 0 -36.284501247843053 -7.4153618764665987 -1 0 0 I I #
vertex $-1 $204 $364 #
straight-curve $-1 0 36.284501247843053 -7.4153618764665987 1 0 0 I I #
point $-1 62.979216895046847 36.284501247843053 -7.4153618764665987 #
point $-1 62.979216895046847 -36.284501247843053 -7.4153618764665987 #
straight-curve $-1 -62.979216895046847 0 7.4153618764665987 0 -1 0 I I #
point $-1 -62.979216895046847 36.284501247843053 7.4153618764665987 #
point $-1 -62.979216895046847 -36.284501247843053 7.4153618764665987 #
straight-curve $-1 62.979216895046847 -36.284501247843053 0 0 0 -1 I I #
straight-curve $-1 62.979216895046847 36.284501247843053 0 0 0 -1 I I #
loop $-1 $-1 $227 $221 #
plane-surface $-1 0 -36.284501247843053 0 0 1 0 0 0 1 forward_v I I I I #
coedge $-1 $238 $229 $225 $316 forward $222 $-1 #
edge $-1 $320 -19.872308614154822 $233 -12.952076653221646 $224 $365 forward 7 unknown #
edge $-1 $234 12.952076653221646 $319 19.872308614154822 $314 $366 forward 7 unknown #
coedge $-1 $236 $227 $241 $329 reversed $312 $-1 #
coedge $-1 $227 $236 $238 $327 reversed $312 $-1 #
vertex $-1 $327 $367 #
vertex $-1 $228 $368 #
straight-curve $-1 -50.180155563383678 -36.284501247843053 0 0 0 1 I I #
straight-curve $-1 -25.840077781691839 -29.364269286909877 -7.4153618764665987 1 0 0 I I #
straight-curve $-1 -25.840077781691839 -29.364269286909877 7.4153618764665987 -1 0 0 I I #
point $-1 -50.180155563383678 -29.364269286909877 7.4153618764665987 #
point $-1 -50.180155563383678 -29.364269286909877 -7.4153618764665987 #
straight-curve $-1 -53.180155563383678 -36.284501247843053 0 0 0 -1 I I #
edge $-1 $319 50.180155563383678 $239 53.180155563383678 $318 $369 forward 7 unknown #
point $-1 -53.180155563383678 -36.284501247843053 -7.4153618764665987 #
edge $-1 $242 -53.180155563383678 $320 -50.180155563383678 $317 $370 forward 7 unknown #
point $-1 -53.180155563383678 -36.284501247843053 7.4153618764665987 #
plane-surface $-1 0 36.284501247843053 0 0 -1 0 0 0 -1 forward_v I I I I #
coedge $-1 $249 $253 $258 $342 forward $156 $-1 #
edge $-1 $371 -19.872308614154825 $263 -12.952076653221646 $249 $372 forward 7 unknown #
coedge $-1 $251 $250 $340 $373 reversed $91 $-1 #
edge $-1 $266 12.952076653221646 $374 19.872308614154825 $265 $375 forward 7 unknown #
straight-curve $-1 -50.180155563383678 29.364269286909881 0 0 0 -1 I I #
straight-curve $-1 -53.180155563383678 16.412192633688235 -7.4153618764665987 0 1 0 I I #
coedge $-1 $255 $265 $257 $341 forward $247 $-1 #
straight-curve $-1 -53.180155563383678 16.412192633688235 7.4153618764665987 0 -1 0 I I #
coedge $-1 $258 $257 $334 $373 forward $259 $-1 #
edge $-1 $374 50.180155563383678 $261 53.180155563383678 $257 $376 forward 7 unknown #
edge $-1 $260 -53.180155563383678 $371 -50.180155563383678 $258 $377 forward 7 unknown #
point $-1 -53.180155563383678 36.28450124784306 -7.4153618764665987 #
point $-1 -53.180155563383678 36.28450124784306 7.4153618764665987 #
point $-1 -50.180155563383678 29.364269286909881 -7.4153618764665987 #
point $-1 -50.180155563383678 29.364269286909881 7.4153618764665987 #
coedge $-1 $281 $280 $273 $348 forward $270 $-1 #
edge $-1 $349 81.810312490985055 $352 88.906450993772353 $347 $378 forward 7 unknown #
vertex $-1 $285 $379 #
straight-curve $-1 31.489609480917004 17.238170215222954 7.4153618764666049 1 0 0 I I #
edge $-1 $352 5.5875603396897482 $282 17.713659411376664 $281 $380 forward 7 unknown #
vertex $-1 $351 $381 #
straight-curve $-1 -26.086844752171586 17.238170215222954 89.385287087684915 -0.70710677298230451 0 0.70710678939079041 I I #
point $-1 55.883078556926165 17.238170215222954 7.4153618764666049 #
point $-1 62.979216895046847 29.36426928690987 0.31922337367930709 #
straight-curve $-1 62.979216895046847 0 7.4153618764665987 0 1 0 I I #
vertex $-1 $288 $382 #
point $-1 57.887433479435785 20.702769949990646 0.90936486837968622 #
vertex $-1 $292 $383 #
point $-1 57.887433479435785 25.899669552142186 0.90936486837968622 #
straight-curve $-1 -62.979216895046847 36.284501247843053 0 0 0 -1 I I #
point $-1 -62.979216895046847 -36.284501247843053 -7.4153618764665987 #
straight-curve $-1 -62.979216895046847 0 -7.4153618764665987 0 1 0 I I #
point $-1 -62.979216895046847 36.284501247843053 -7.4153618764665987 #
straight-curve $-1 -50.180155563383678 -16.412192633688232 7.4153618764665987 0 1 0 I I #
straight-curve $-1 -50.180155563383678 -16.412192633688232 -7.4153618764665987 0 -1 0 I I #
point $-1 -50.180155563383678 -36.284501247843053 -7.4153618764665987 #
point $-1 -50.180155563383678 -36.284501247843053 7.4153618764665987 #
straight-curve $-1 0 -36.284501247843053 -7.4153618764665987 -1 0 0 I I #
straight-curve $-1 0 -36.284501247843053 7.4153618764665987 1 0 0 I I #
vertex $-1 $373 $384 #
straight-curve $-1 -50.180155563383678 16.412192633688235 -7.4153618764665987 0 -1 0 I I #
edge $-1 $374 -7.4153618764665987 $371 7.4153618764665987 $340 $385 forward 7 unknown #
vertex $-1 $341 $386 #
straight-curve $-1 -50.180155563383678 16.412192633688235 7.4153618764665987 0 1 0 I I #
straight-curve $-1 0 36.284501247843053 7.4153618764665987 -1 0 0 I I #
straight-curve $-1 0 36.284501247843053 -7.4153618764665987 1 0 0 I I #
straight-curve $-1 62.979216895046847 17.238170215222954 89.22567436745166 0 0 -1 I I #
point $-1 62.979216895046847 17.238170215222954 7.4153618764665987 #
straight-curve $-1 62.979216895046847 11.650609875533206 0.31922337367929998 0 1 0 I I #
point $-1 62.979216895046847 17.238170215222954 0.31922337367930709 #
point $-1 56.473219917062693 20.702769949990646 0.90936488478817212 #
point $-1 56.473219917062693 25.899669552142186 0.90936488478817212 #
point $-1 -50.180155563383678 36.28450124784306 -7.4153618764665987 #
straight-curve $-1 -50.180155563383678 36.284501247843053 0 0 0 -1 I I #
point $-1 -50.180155563383678 36.28450124784306 7.4153618764665987 #
End-of-ACIS-data 