500 0 7 0           
7 Unknown 11 ACIS 5.0 NT 24 Thu Mar 25 19:34:40 1999 
-1 9.9999999999999995e-007 1e-010 
body $-1 $7 $-1 $8 #
body $-1 $9 $-1 $10 #
body $-1 $11 $-1 $12 #
body $-1 $13 $-1 $14 #
body $-1 $15 $-1 $16 #
body $-1 $17 $-1 $18 #
body $-1 $19 $-1 $20 #
lump $-1 $-1 $21 $0 #
transform $-1 1 0 0 0 1 0 0 0 1 70.885952330088202 32.80457449684819 13.99052480563387 1 rotate no_reflect no_shear #
lump $-1 $-1 $22 $1 #
transform $-1 1 0 0 0 1 0 0 0 1 70.885952330088202 32.80457449684819 13.99052480563387 1 rotate no_reflect no_shear #
lump $-1 $-1 $23 $2 #
transform $-1 1 0 0 0 1 0 0 0 1 70.885952330088202 32.80457449684819 13.99052480563387 1 rotate no_reflect no_shear #
lump $-1 $-1 $24 $3 #
transform $-1 1 0 0 0 1 0 0 0 1 70.885952330088202 32.80457449684819 13.99052480563387 1 rotate no_reflect no_shear #
lump $-1 $-1 $25 $4 #
transform $-1 1 0 0 0 1 0 0 0 1 70.885952330088202 32.80457449684819 13.99052480563387 1 rotate no_reflect no_shear #
lump $-1 $-1 $26 $5 #
transform $-1 1 0 0 0 1 0 0 0 1 70.885952330088202 32.80457449684819 13.99052480563387 1 rotate no_reflect no_shear #
lump $-1 $-1 $27 $6 #
transform $-1 1 0 0 0 1 0 0 0 1 70.885952330088202 32.80457449684819 13.99052480563387 1 rotate no_reflect no_shear #
shell $-1 $-1 $-1 $28 $-1 $7 #
shell $-1 $-1 $-1 $29 $-1 $9 #
shell $-1 $-1 $-1 $30 $-1 $11 #
shell $-1 $-1 $-1 $31 $-1 $13 #
shell $-1 $-1 $-1 $32 $-1 $15 #
shell $-1 $-1 $-1 $33 $-1 $17 #
shell $-1 $-1 $-1 $34 $-1 $19 #
face $-1 $35 $36 $21 $-1 $37 forward single #
face $-1 $38 $39 $22 $-1 $40 reversed single #
face $-1 $41 $42 $23 $-1 $43 reversed single #
face $-1 $44 $45 $24 $-1 $46 reversed single #
face $-1 $47 $48 $25 $-1 $49 forward single #
face $-1 $50 $51 $26 $-1 $52 reversed single #
face $-1 $53 $54 $27 $-1 $55 forward single #
face $-1 $56 $57 $21 $-1 $58 reversed single #
loop $-1 $-1 $59 $28 #
plane-surface $-1 0 0 13.99052480563387 0 0 1 1 0 0 forward_v I I I I #
face $-1 $60 $61 $22 $-1 $62 reversed single #
loop $-1 $-1 $63 $29 #
plane-surface $-1 -63.667218117889249 -26.317107472043901 0 0 -1 0 0 0 -1 forward_v I I I I #
face $-1 $64 $65 $23 $-1 $66 reversed single #
loop $-1 $-1 $67 $30 #
plane-surface $-1 56.448483905690281 -29.560840984446045 0 1 0 0 0 0 -1 forward_v I I I I #
face $-1 $68 $69 $24 $-1 $70 reversed single #
loop $-1 $-1 $71 $31 #
plane-surface $-1 24.527449398958005 96.757716369280061 143.41242012128157 1 0 0 0 -0.75470958851134928 -0.65605901945558964 forward_v I I I I #
face $-1 $72 $73 $25 $-1 $74 forward single #
loop $-1 $75 $76 $32 #
cone-surface $-1 40.487966652324161 23.296117517007907 4.1239448734537234 0 -0.75470958851134928 -0.65605901945558964 4 0 0 1 I I 0 1 4 forward I I I I #
face $-1 $77 $78 $26 $-1 $79 reversed single #
loop $-1 $-1 $80 $33 #
plane-surface $-1 40.487966652324161 -32.80457449684819 0.88582952396251358 0 -0.75470958851134928 0.65605901945558964 1 0 0 forward_v I I I I #
face $-1 $81 $82 $27 $-1 $83 forward single #
loop $-1 $84 $85 $34 #
cone-surface $-1 40.487966652324161 -23.296117517007907 4.123944873453727 0 0.75470958851134928 -0.65605901945558964 4 0 0 1 I I 0 1 4 forward I I I I #
face $-1 $86 $87 $21 $-1 $88 reversed single #
loop $-1 $-1 $89 $35 #
plane-surface $-1 0 0 -13.99052480563387 0 0 1 1 0 0 forward_v I I I I #
coedge $-1 $90 $91 $92 $93 forward $36 $-1 #
face $-1 $94 $95 $22 $-1 $96 forward single #
loop $-1 $-1 $97 $38 #
plane-surface $-1 -56.448483905690296 -29.560840984446045 0 -1 0 0 0 0 1 forward_v I I I I #
coedge $-1 $98 $99 $100 $101 forward $39 $-1 #
face $-1 $102 $103 $23 $-1 $104 forward single #
loop $-1 $-1 $105 $41 #
plane-surface $-1 63.667218117889234 -26.317107472043901 0 0 -1 0 0 0 -1 forward_v I I I I #
coedge $-1 $106 $107 $108 $109 forward $42 $-1 #
face $-1 $110 $111 $24 $-1 $112 reversed single #
loop $-1 $-1 $113 $44 #
plane-surface $-1 40.487966652324161 -10.23889945927192 50.401683363574904 0 0.75470958851134928 0.65605901945558964 1 0 0 forward_v I I I I #
coedge $-1 $114 $115 $116 $117 reversed $45 $-1 #
face $-1 $-1 $118 $25 $-1 $119 forward single #
loop $-1 $120 $121 $47 #
cone-surface $-1 40.487966652324161 17.974110120548467 -0.5024054568019114 0 -0.75470958851134928 -0.65605901945558964 2 0 0 1 I I -0.70710678118654746 0.70710678118654746 2 forward I I I I #
loop $-1 $-1 $122 $32 #
coedge $-1 $76 $76 $123 $124 reversed $48 $-1 #
face $-1 $125 $126 $26 $-1 $127 forward single #
loop $-1 $-1 $128 $50 #
plane-surface $-1 24.527449398958005 -139.80119032540017 93.89656628166918 1 0 0 0 0.75470958851134928 -0.65605901945558964 forward_v I I I I #
coedge $-1 $129 $130 $131 $132 reversed $51 $-1 #
face $-1 $-1 $133 $27 $-1 $134 forward single #
loop $-1 $135 $136 $53 #
cone-surface $-1 40.487966652324161 -17.974110120548467 -0.50240545680190785 0 0.75470958851134928 -0.65605901945558964 2 0 0 1 I I -0.70710678118654746 0.70710678118654746 2 forward I I I I #
loop $-1 $-1 $137 $34 #
coedge $-1 $85 $85 $138 $139 reversed $54 $-1 #
face $-1 $140 $141 $21 $-1 $142 reversed single #
loop $-1 $-1 $143 $56 #
plane-surface $-1 0 -32.80457449684819 0 0 1 0 0 0 1 forward_v I I I I #
coedge $-1 $144 $145 $146 $147 forward $57 $-1 #
coedge $-1 $148 $59 $149 $150 forward $36 $-1 #
coedge $-1 $59 $148 $151 $152 forward $36 $-1 #
coedge $-1 $153 $154 $59 $93 reversed $155 $-1 #
edge $-1 $156 -32.80457449684819 $157 32.80457449684819 $92 $158 forward 7 unknown #
face $-1 $159 $160 $22 $-1 $161 reversed single #
loop $-1 $-1 $162 $60 #
plane-surface $-1 0 0 13.99052480563387 0 0 1 1 0 0 forward_v I I I I #
coedge $-1 $163 $164 $165 $166 reversed $61 $-1 #
coedge $-1 $167 $63 $168 $169 reversed $39 $-1 #
coedge $-1 $63 $167 $170 $171 reversed $39 $-1 #
coedge $-1 $164 $163 $63 $101 reversed $61 $-1 #
edge $-1 $172 -13.99052480563387 $173 13.99052480563387 $100 $174 forward 7 unknown #
face $-1 $175 $176 $23 $-1 $177 reversed single #
loop $-1 $-1 $178 $64 #
plane-surface $-1 0 0 13.99052480563387 0 0 1 1 0 0 forward_v I I I I #
coedge $-1 $179 $180 $181 $182 reversed $65 $-1 #
coedge $-1 $183 $67 $184 $185 reversed $42 $-1 #
coedge $-1 $67 $183 $186 $187 reversed $42 $-1 #
coedge $-1 $180 $179 $67 $109 reversed $65 $-1 #
edge $-1 $188 -13.99052480563387 $189 13.99052480563387 $108 $190 forward 7 unknown #
face $-1 $191 $192 $24 $-1 $193 reversed single #
loop $-1 $-1 $194 $68 #
plane-surface $-1 56.448483905690317 96.757716369280061 143.41242012128157 -1 0 0 0 0.75470958851134928 0.65605901945558964 forward_v I I I I #
coedge $-1 $195 $196 $197 $198 reversed $69 $-1 #
coedge $-1 $115 $71 $199 $200 reversed $45 $-1 #
coedge $-1 $71 $114 $195 $201 reversed $45 $-1 #
coedge $-1 $197 $202 $71 $117 forward $203 $-1 #
edge $-1 $204 15.574283687791841 $205 26.966021208598892 $116 $206 forward 7 unknown #
loop $-1 $-1 $123 $72 #
plane-surface $-1 40.487966652324161 -10.23889945927192 50.401683363574904 0 0.75470958851134928 0.65605901945558964 1 0 0 forward_v I I I I #
loop $-1 $-1 $207 $47 #
coedge $-1 $121 $121 $122 $208 reversed $73 $-1 #
coedge $-1 $122 $122 $121 $208 forward $75 $-1 #
coedge $-1 $123 $123 $76 $124 forward $118 $-1 #
edge $-1 $209 -4.7975931532603745e-016 $209 6.2831853071795996 $123 $210 forward 7 unknown #
face $-1 $211 $212 $26 $-1 $213 reversed single #
loop $-1 $-1 $214 $77 #
plane-surface $-1 0 0 13.99052480563387 0 0 1 1 0 0 forward_v I I I I #
coedge $-1 $215 $216 $217 $218 reversed $78 $-1 #
coedge $-1 $219 $80 $220 $221 reversed $51 $-1 #
coedge $-1 $80 $219 $215 $222 forward $51 $-1 #
coedge $-1 $217 $214 $80 $132 forward $126 $-1 #
edge $-1 $223 -36.204500579528236 $224 -4.2834660727959246 $131 $225 forward 7 unknown #
loop $-1 $-1 $138 $81 #
plane-surface $-1 40.487966652324161 -32.80457449684819 0.88582952396251358 0 -0.75470958851134928 0.65605901945558964 1 0 0 forward_v I I I I #
loop $-1 $-1 $226 $53 #
coedge $-1 $136 $136 $137 $227 reversed $82 $-1 #
coedge $-1 $137 $137 $136 $227 forward $84 $-1 #
coedge $-1 $138 $138 $85 $139 forward $133 $-1 #
edge $-1 $228 7.2300465248882955e-017 $228 6.2831853071796004 $138 $229 forward 7 unknown #
face $-1 $230 $231 $21 $-1 $232 reversed single #
loop $-1 $-1 $233 $86 #
plane-surface $-1 -70.885952330088202 0 0 1 0 0 0 0 -1 forward_v I I I I #
coedge $-1 $234 $151 $235 $236 forward $87 $-1 #
coedge $-1 $237 $89 $234 $238 forward $57 $-1 #
coedge $-1 $89 $237 $239 $240 forward $57 $-1 #
coedge $-1 $154 $153 $89 $147 reversed $155 $-1 #
edge $-1 $241 -32.80457449684819 $242 32.80457449684819 $146 $243 forward 7 unknown #
coedge $-1 $91 $90 $244 $245 forward $36 $-1 #
coedge $-1 $246 $247 $90 $150 reversed $231 $-1 #
edge $-1 $157 -70.885952330088202 $248 70.885952330088202 $149 $249 forward 7 unknown #
coedge $-1 $143 $250 $91 $152 reversed $87 $-1 #
edge $-1 $251 -70.885952330088202 $156 70.885952330088202 $151 $252 forward 7 unknown #
coedge $-1 $146 $92 $250 $253 forward $155 $-1 #
coedge $-1 $92 $146 $246 $254 reversed $155 $-1 #
loop $-1 $-1 $153 $230 #
vertex $-1 $93 $255 #
vertex $-1 $93 $256 #
straight-curve $-1 70.885952330088202 0 13.99052480563387 0 1 0 I I #
face $-1 $257 $258 $22 $-1 $259 reversed single #
loop $-1 $-1 $260 $94 #
plane-surface $-1 -70.885952330088202 0 0 1 0 0 0 0 -1 forward_v I I I I #
coedge $-1 $170 $261 $164 $262 forward $95 $-1 #
coedge $-1 $100 $97 $263 $264 reversed $61 $-1 #
coedge $-1 $97 $100 $162 $262 reversed $61 $-1 #
coedge $-1 $265 $266 $97 $166 forward $267 $-1 #
edge $-1 $268 -13.99052480563387 $269 13.99052480563387 $165 $270 forward 7 unknown #
coedge $-1 $99 $98 $260 $271 reversed $39 $-1 #
coedge $-1 $263 $272 $98 $169 forward $258 $-1 #
edge $-1 $273 -39.052343271143577 $173 -24.614874846745671 $168 $274 forward 7 unknown #
coedge $-1 $275 $162 $99 $171 forward $95 $-1 #
edge $-1 $172 24.614874846745671 $276 39.052343271143577 $170 $277 forward 7 unknown #
vertex $-1 $171 $278 #
vertex $-1 $169 $279 #
straight-curve $-1 -56.448483905690296 -26.317107472043901 0 0 0 -1 I I #
face $-1 $280 $281 $23 $-1 $282 reversed single #
loop $-1 $-1 $283 $102 #
plane-surface $-1 0 -32.80457449684819 0 0 1 0 0 0 1 forward_v I I I I #
coedge $-1 $186 $284 $180 $285 forward $103 $-1 #
coedge $-1 $108 $105 $286 $287 reversed $65 $-1 #
coedge $-1 $105 $108 $178 $285 reversed $65 $-1 #
coedge $-1 $288 $289 $105 $182 forward $290 $-1 #
edge $-1 $291 -13.99052480563387 $292 13.99052480563387 $181 $293 forward 7 unknown #
coedge $-1 $107 $106 $283 $294 reversed $42 $-1 #
coedge $-1 $286 $295 $106 $185 forward $281 $-1 #
edge $-1 $296 -18.024154004625167 $189 -11.536686979820878 $184 $297 forward 7 unknown #
coedge $-1 $298 $178 $107 $187 forward $103 $-1 #
edge $-1 $188 11.536686979820878 $299 18.024154004625167 $186 $300 forward 7 unknown #
vertex $-1 $187 $301 #
vertex $-1 $185 $302 #
straight-curve $-1 56.448483905690281 -26.317107472043901 0 0 0 -1 I I #
face $-1 $-1 $203 $24 $-1 $303 forward single #
loop $-1 $-1 $304 $110 #
plane-surface $-1 0 32.80457449684819 0 0 -1 0 0 0 -1 forward_v I I I I #
coedge $-1 $305 $306 $307 $308 reversed $111 $-1 #
coedge $-1 $309 $113 $115 $201 forward $69 $-1 #
coedge $-1 $113 $309 $305 $310 forward $69 $-1 #
coedge $-1 $307 $116 $113 $198 forward $203 $-1 #
edge $-1 $205 4.2834660727959246 $311 36.204500579528236 $197 $312 forward 7 unknown #
coedge $-1 $313 $314 $114 $200 forward $192 $-1 #
edge $-1 $315 -70.820380536678257 $204 -57.715685255006917 $199 $316 forward 7 unknown #
edge $-1 $205 48.245257662303437 $315 65.609148993696365 $115 $317 forward 7 unknown #
coedge $-1 $116 $307 $313 $318 forward $203 $-1 #
loop $-1 $-1 $307 $191 #
vertex $-1 $200 $319 #
vertex $-1 $117 $320 #
straight-curve $-1 24.527449398958005 48.378858184640031 13.990524805633868 0 -1 0 I I #
coedge $-1 $207 $207 $-1 $321 reversed $120 $-1 #
edge $-1 $322 0 $322 6.2831853071796004 $121 $323 forward 7 unknown #
vertex $-1 $124 $324 #
ellipse-curve $-1 40.487966652324161 27.108705736444666 7.4381771647981942 0 0.75470958851134928 0.65605901945558964 4 0 0 1 I I #
face $-1 $-1 $325 $26 $-1 $326 forward single #
loop $-1 $-1 $327 $125 #
plane-surface $-1 0 -32.80457449684819 0 0 1 0 0 0 1 forward_v I I I I #
coedge $-1 $131 $328 $329 $330 forward $126 $-1 #
coedge $-1 $216 $128 $130 $222 reversed $78 $-1 #
coedge $-1 $128 $215 $327 $331 reversed $78 $-1 #
coedge $-1 $328 $131 $128 $218 forward $126 $-1 #
edge $-1 $224 -48.487758186658965 $332 -37.096020665851896 $217 $333 forward 7 unknown #
coedge $-1 $130 $129 $334 $335 reversed $51 $-1 #
coedge $-1 $329 $336 $129 $221 forward $325 $-1 #
edge $-1 $337 -0.72976829600041504 $223 16.634123035392534 $220 $338 forward 7 unknown #
edge $-1 $339 0 $224 17.363891331392953 $215 $340 forward 7 unknown #
vertex $-1 $132 $341 #
vertex $-1 $132 $342 #
straight-curve $-1 20.243983326162081 -21.412836976041117 13.99052480563387 -1 0 0 I I #
coedge $-1 $226 $226 $-1 $343 reversed $135 $-1 #
edge $-1 $344 0 $344 6.2831853071796004 $136 $345 forward 7 unknown #
vertex $-1 $139 $346 #
ellipse-curve $-1 40.487966652324161 -27.108705736444655 7.4381771647981907 0 -0.75470958851134928 0.65605901945558964 4 0 0 1 I I #
face $-1 $-1 $155 $21 $-1 $347 reversed single #
loop $-1 $-1 $246 $140 #
plane-surface $-1 0 32.80457449684819 0 0 -1 0 0 0 -1 forward_v I I I I #
coedge $-1 $348 $244 $247 $349 forward $141 $-1 #
coedge $-1 $250 $143 $144 $238 reversed $87 $-1 #
coedge $-1 $244 $348 $143 $236 reversed $141 $-1 #
edge $-1 $251 -13.99052480563387 $350 13.99052480563387 $235 $351 forward 7 unknown #
coedge $-1 $145 $144 $348 $352 forward $57 $-1 #
edge $-1 $242 -70.885952330088202 $350 70.885952330088202 $234 $353 forward 7 unknown #
coedge $-1 $247 $246 $145 $240 reversed $231 $-1 #
edge $-1 $354 -70.885952330088202 $241 70.885952330088202 $239 $355 forward 7 unknown #
vertex $-1 $147 $356 #
vertex $-1 $253 $357 #
straight-curve $-1 70.885952330088202 0 -13.99052480563387 0 -1 0 I I #
coedge $-1 $233 $235 $148 $245 reversed $141 $-1 #
edge $-1 $248 -32.80457449684819 $251 32.80457449684819 $244 $358 forward 7 unknown #
coedge $-1 $239 $149 $154 $254 forward $231 $-1 #
coedge $-1 $149 $239 $233 $349 reversed $231 $-1 #
vertex $-1 $150 $359 #
straight-curve $-1 0 32.80457449684819 13.99052480563387 -1 0 0 I I #
coedge $-1 $151 $234 $153 $253 reversed $87 $-1 #
vertex $-1 $245 $360 #
straight-curve $-1 0 -32.80457449684819 13.99052480563387 1 0 0 I I #
edge $-1 $156 -13.99052480563387 $242 13.99052480563387 $153 $361 forward 7 unknown #
edge $-1 $157 -13.99052480563387 $241 13.99052480563387 $154 $362 forward 7 unknown #
point $-1 70.885952330088202 -32.80457449684819 13.99052480563387 #
point $-1 70.885952330088202 32.80457449684819 13.99052480563387 #
face $-1 $-1 $267 $22 $-1 $363 reversed single #
loop $-1 $-1 $263 $159 #
plane-surface $-1 0 0 -13.99052480563387 0 0 1 1 0 0 forward_v I I I I #
coedge $-1 $364 $365 $167 $271 forward $160 $-1 #
coedge $-1 $162 $275 $265 $366 forward $95 $-1 #
edge $-1 $269 -18.024154004625167 $172 -11.536686979820878 $162 $367 forward 7 unknown #
coedge $-1 $368 $168 $163 $264 forward $258 $-1 #
edge $-1 $173 11.536686979820878 $268 18.024154004625167 $263 $369 forward 7 unknown #
coedge $-1 $370 $165 $261 $366 reversed $267 $-1 #
coedge $-1 $165 $370 $368 $371 reversed $267 $-1 #
loop $-1 $-1 $165 $257 #
vertex $-1 $371 $372 #
vertex $-1 $166 $373 #
straight-curve $-1 -56.448483905690296 -32.80457449684819 0 0 0 1 I I #
edge $-1 $276 -13.99052480563387 $273 13.99052480563387 $260 $374 forward 7 unknown #
coedge $-1 $168 $368 $364 $375 forward $258 $-1 #
vertex $-1 $169 $376 #
straight-curve $-1 -31.833609058944624 -26.317107472043901 -13.99052480563387 1 0 0 I I #
coedge $-1 $261 $170 $365 $377 forward $95 $-1 #
vertex $-1 $377 $378 #
straight-curve $-1 -31.833609058944624 -26.317107472043901 13.99052480563387 -1 0 0 I I #
point $-1 -56.448483905690296 -26.317107472043901 13.99052480563387 #
point $-1 -56.448483905690296 -26.317107472043901 -13.99052480563387 #
face $-1 $-1 $290 $23 $-1 $379 reversed single #
loop $-1 $-1 $286 $175 #
plane-surface $-1 0 0 -13.99052480563387 0 0 1 1 0 0 forward_v I I I I #
coedge $-1 $380 $381 $183 $294 forward $176 $-1 #
coedge $-1 $178 $298 $288 $382 forward $103 $-1 #
edge $-1 $292 -39.05234327114357 $188 -24.614874846745664 $178 $383 forward 7 unknown #
coedge $-1 $384 $184 $179 $287 forward $281 $-1 #
edge $-1 $189 24.614874846745664 $291 39.05234327114357 $286 $385 forward 7 unknown #
coedge $-1 $386 $181 $284 $382 reversed $290 $-1 #
coedge $-1 $181 $386 $384 $387 reversed $290 $-1 #
loop $-1 $-1 $181 $280 #
vertex $-1 $387 $388 #
vertex $-1 $182 $389 #
straight-curve $-1 70.885952330088202 -26.317107472043901 0 0 0 1 I I #
edge $-1 $299 -13.99052480563387 $296 13.99052480563387 $283 $390 forward 7 unknown #
coedge $-1 $184 $384 $380 $391 forward $281 $-1 #
vertex $-1 $185 $392 #
straight-curve $-1 56.448483905690281 -14.780420492223023 -13.99052480563387 0 1 0 I I #
coedge $-1 $284 $186 $381 $393 forward $103 $-1 #
vertex $-1 $393 $394 #
straight-curve $-1 56.448483905690281 -14.780420492223023 13.99052480563387 0 -1 0 I I #
point $-1 56.448483905690281 -26.317107472043901 13.99052480563387 #
point $-1 56.448483905690281 -26.317107472043901 -13.99052480563387 #
plane-surface $-1 0 0 13.99052480563387 0 0 1 1 0 0 forward_v I I I I #
coedge $-1 $314 $313 $306 $395 forward $192 $-1 #
coedge $-1 $306 $194 $196 $310 reversed $111 $-1 #
coedge $-1 $194 $305 $304 $395 reversed $111 $-1 #
coedge $-1 $202 $197 $194 $308 forward $203 $-1 #
edge $-1 $311 -26.966021208598892 $396 -15.574283687791841 $307 $397 forward 7 unknown #
coedge $-1 $196 $195 $314 $398 reversed $69 $-1 #
edge $-1 $399 -65.609148993696365 $311 -48.245257662303437 $305 $400 forward 7 unknown #
vertex $-1 $198 $401 #
straight-curve $-1 20.243983326162081 21.412836976041135 13.990524805633868 1 0 0 I I #
coedge $-1 $304 $199 $202 $318 reversed $192 $-1 #
coedge $-1 $199 $304 $309 $398 forward $192 $-1 #
vertex $-1 $200 $402 #
straight-curve $-1 24.527449398958005 32.80457449684819 71.706210060640785 0 0 1 I I #
straight-curve $-1 24.527449398958005 -10.23889945927192 50.401683363574904 0 0.65605901945558964 -0.75470958851134928 I I #
edge $-1 $396 -56.448483905690317 $204 -24.527449398958005 $313 $403 forward 7 unknown #
point $-1 24.527449398958005 32.80457449684819 13.99052480563387 #
point $-1 24.527449398958005 21.412836976041138 13.990524805633868 #
edge $-1 $404 1 $404 0 $207 $-1 forward 7 unknown #
vertex $-1 $208 $405 #
ellipse-curve $-1 40.487966652324161 19.483529297571167 0.80971258210926789 0 0.75470958851134928 0.65605901945558964 4 0 0 1 I I #
point $-1 44.487966652324161 27.108705736444644 7.4381771647981783 #
loop $-1 $-1 $220 $211 #
plane-surface $-1 56.448483905690281 -29.560840984446045 0 1 0 0 0 0 -1 forward_v I I I I #
coedge $-1 $334 $406 $216 $331 forward $212 $-1 #
coedge $-1 $214 $217 $406 $407 forward $126 $-1 #
coedge $-1 $336 $220 $214 $330 reversed $325 $-1 #
edge $-1 $408 -18.024154004625167 $223 -6.6324164838180977 $214 $409 forward 7 unknown #
edge $-1 $332 32.957758335200722 $339 46.062453616872077 $327 $410 forward 7 unknown #
vertex $-1 $407 $411 #
straight-curve $-1 24.527449398958005 -69.900595162700085 13.990524805633868 0 -1 0 I I #
coedge $-1 $412 $327 $219 $335 forward $212 $-1 #
edge $-1 $339 4.2834660727959246 $337 36.204500579528201 $334 $413 forward 7 unknown #
coedge $-1 $220 $329 $412 $414 reversed $325 $-1 #
vertex $-1 $414 $415 #
straight-curve $-1 56.448483905690281 -32.325803424144382 1.4365926543456164 0 0.65605901945558975 0.75470958851134939 I I #
vertex $-1 $335 $416 #
straight-curve $-1 24.527449398958005 -32.80457449684819 0.88582952396251358 0 0.65605901945558964 0.75470958851134928 I I #
point $-1 56.448483905690317 -21.41283697604112 13.99052480563387 #
point $-1 24.527449398958005 -21.41283697604112 13.99052480563387 #
edge $-1 $417 1 $417 0 $226 $-1 forward 7 unknown #
vertex $-1 $227 $418 #
ellipse-curve $-1 40.487966652324161 -19.483529297571167 0.80971258210927144 0 -0.75470958851134928 0.65605901945558964 4 0 0 1 I I #
point $-1 44.487966652324161 -27.108705736444644 7.4381771647981818 #
plane-surface $-1 70.885952330088202 0 0 -1 0 0 0 0 1 forward_v I I I I #
coedge $-1 $235 $233 $237 $352 reversed $141 $-1 #
edge $-1 $248 -13.99052480563387 $354 13.99052480563387 $247 $419 forward 7 unknown #
vertex $-1 $352 $420 #
straight-curve $-1 -70.885952330088202 -32.80457449684819 0 0 0 -1 I I #
edge $-1 $350 -32.80457449684819 $354 32.80457449684819 $348 $421 forward 7 unknown #
straight-curve $-1 0 -32.80457449684819 -13.99052480563387 -1 0 0 I I #
vertex $-1 $240 $422 #
straight-curve $-1 0 32.80457449684819 -13.99052480563387 1 0 0 I I #
point $-1 70.885952330088202 32.80457449684819 -13.99052480563387 #
point $-1 70.885952330088202 -32.80457449684819 -13.99052480563387 #
straight-curve $-1 -70.885952330088202 0 13.99052480563387 0 -1 0 I I #
point $-1 -70.885952330088202 32.80457449684819 13.99052480563387 #
point $-1 -70.885952330088202 -32.80457449684819 13.99052480563387 #
straight-curve $-1 70.885952330088202 -32.80457449684819 0 0 0 -1 I I #
straight-curve $-1 70.885952330088202 32.80457449684819 0 0 0 -1 I I #
plane-surface $-1 0 -32.80457449684819 0 0 1 0 0 0 1 forward_v I I I I #
coedge $-1 $423 $260 $272 $375 reversed $160 $-1 #
coedge $-1 $260 $423 $275 $377 reversed $160 $-1 #
edge $-1 $424 -70.885952330088202 $269 -56.448483905690296 $265 $425 forward 7 unknown #
straight-curve $-1 -56.448483905690296 -14.780420492223023 13.99052480563387 0 1 0 I I #
coedge $-1 $272 $263 $266 $371 forward $258 $-1 #
straight-curve $-1 -56.448483905690296 -14.780420492223023 -13.99052480563387 0 -1 0 I I #
coedge $-1 $266 $265 $423 $426 forward $267 $-1 #
edge $-1 $268 56.448483905690296 $427 70.885952330088202 $266 $428 forward 7 unknown #
point $-1 -56.448483905690296 -32.80457449684819 -13.99052480563387 #
point $-1 -56.448483905690296 -32.80457449684819 13.99052480563387 #
straight-curve $-1 -70.885952330088202 -26.317107472043901 0 0 0 -1 I I #
edge $-1 $427 -32.80457449684819 $273 -26.317107472043901 $364 $429 forward 7 unknown #
point $-1 -70.885952330088202 -26.317107472043901 -13.99052480563387 #
edge $-1 $276 26.317107472043901 $424 32.80457449684819 $365 $430 forward 7 unknown #
point $-1 -70.885952330088202 -26.317107472043901 13.99052480563387 #
plane-surface $-1 70.885952330088202 0 0 -1 0 0 0 0 1 forward_v I I I I #
coedge $-1 $431 $283 $295 $391 reversed $176 $-1 #
coedge $-1 $283 $431 $298 $393 reversed $176 $-1 #
edge $-1 $432 -32.80457449684819 $292 -26.317107472043901 $288 $433 forward 7 unknown #
straight-curve $-1 31.833609058944617 -26.317107472043901 13.99052480563387 -1 0 0 I I #
coedge $-1 $295 $286 $289 $387 forward $281 $-1 #
straight-curve $-1 31.833609058944617 -26.317107472043901 -13.99052480563387 1 0 0 I I #
coedge $-1 $289 $288 $431 $434 forward $290 $-1 #
edge $-1 $291 26.317107472043901 $435 32.80457449684819 $289 $436 forward 7 unknown #
point $-1 70.885952330088188 -26.317107472043901 -13.99052480563387 #
point $-1 70.885952330088188 -26.317107472043901 13.99052480563387 #
straight-curve $-1 56.448483905690281 -32.80457449684819 0 0 0 -1 I I #
edge $-1 $435 -70.885952330088202 $296 -56.448483905690281 $380 $437 forward 7 unknown #
point $-1 56.448483905690281 -32.80457449684819 -13.99052480563387 #
edge $-1 $299 56.448483905690281 $432 70.885952330088202 $381 $438 forward 7 unknown #
point $-1 56.448483905690281 -32.80457449684819 13.99052480563387 #
edge $-1 $396 57.715685255006917 $399 70.820380536678257 $304 $439 forward 7 unknown #
vertex $-1 $318 $440 #
straight-curve $-1 56.448483905690317 48.378858184640031 13.990524805633868 0 1 0 I I #
edge $-1 $399 -36.204500579528236 $315 -4.2834660727959246 $314 $441 forward 7 unknown #
vertex $-1 $398 $442 #
straight-curve $-1 56.448483905690317 -10.23889945927192 50.401683363574904 0 -0.65605901945558964 0.75470958851134928 I I #
point $-1 56.448483905690317 21.412836976041138 13.990524805633868 #
point $-1 24.527449398958005 32.80457449684819 0.88582952396252779 #
straight-curve $-1 0 32.80457449684819 13.99052480563387 -1 0 0 I I #
vertex $-1 $321 $443 #
point $-1 44.487966652324161 19.483529297571167 0.80971258210926789 #
coedge $-1 $327 $412 $328 $407 reversed $212 $-1 #
edge $-1 $332 24.527449398958005 $408 56.448483905690281 $406 $444 forward 7 unknown #
vertex $-1 $414 $445 #
straight-curve $-1 56.448483905690281 -14.780420492223023 13.99052480563387 0 1 0 I I #
straight-curve $-1 24.527449398958005 -32.80457449684819 46.94828314083459 0 0 -1 I I #
point $-1 24.527449398958005 -32.80457449684819 13.99052480563387 #
coedge $-1 $406 $334 $336 $414 forward $212 $-1 #
straight-curve $-1 20.243983326162081 -32.80457449684819 0.88582952396251124 1 0 0 I I #
edge $-1 $337 0.88582952396251358 $408 13.99052480563387 $412 $446 forward 7 unknown #
point $-1 56.448483905690281 -32.80457449684819 0.88582952396251358 #
point $-1 24.527449398958005 -32.80457449684819 0.88582952396251358 #
vertex $-1 $343 $447 #
point $-1 44.487966652324161 -19.483529297571167 0.80971258210927144 #
straight-curve $-1 -70.885952330088202 32.80457449684819 0 0 0 -1 I I #
point $-1 -70.885952330088202 -32.80457449684819 -13.99052480563387 #
straight-curve $-1 -70.885952330088202 0 -13.99052480563387 0 1 0 I I #
point $-1 -70.885952330088202 32.80457449684819 -13.99052480563387 #
coedge $-1 $365 $364 $370 $426 reversed $160 $-1 #
vertex $-1 $377 $448 #
straight-curve $-1 0 -32.80457449684819 13.99052480563387 1 0 0 I I #
edge $-1 $424 -13.99052480563387 $427 13.99052480563387 $423 $449 forward 7 unknown #
vertex $-1 $375 $450 #
straight-curve $-1 0 -32.80457449684819 -13.99052480563387 -1 0 0 I I #
straight-curve $-1 -70.885952330088202 0 -13.99052480563387 0 1 0 I I #
straight-curve $-1 -70.885952330088202 0 13.99052480563387 0 -1 0 I I #
coedge $-1 $381 $380 $386 $434 reversed $176 $-1 #
vertex $-1 $382 $451 #
straight-curve $-1 70.885952330088202 0 13.99052480563387 0 1 0 I I #
edge $-1 $432 -13.99052480563387 $435 13.99052480563387 $386 $452 forward 7 unknown #
vertex $-1 $434 $453 #
straight-curve $-1 70.885952330088202 0 -13.99052480563387 0 -1 0 I I #
straight-curve $-1 0 -32.80457449684819 -13.99052480563387 -1 0 0 I I #
straight-curve $-1 0 -32.80457449684819 13.99052480563387 1 0 0 I I #
straight-curve $-1 56.448483905690317 32.80457449684819 71.706210060640785 0 0 -1 I I #
point $-1 56.448483905690317 32.80457449684819 13.99052480563387 #
straight-curve $-1 20.243983326162081 32.80457449684819 0.88582952396252068 -1 0 0 I I #
point $-1 56.448483905690317 32.80457449684819 0.88582952396252779 #
point $-1 40.487966652324161 16.464690943525767 -1.8145234957130907 #
straight-curve $-1 0 -32.80457449684819 13.99052480563387 1 0 0 I I #
point $-1 56.448483905690281 -32.80457449684819 13.99052480563387 #
straight-curve $-1 56.448483905690281 -32.80457449684819 0 0 0 1 I I #
point $-1 40.487966652324161 -16.464690943525767 -1.8145234957130871 #
point $-1 -70.885952330088202 -32.80457449684819 13.99052480563387 #
straight-curve $-1 -70.885952330088202 -32.80457449684819 0 0 0 -1 I I #
point $-1 -70.885952330088202 -32.80457449684819 -13.99052480563387 #
point $-1 70.885952330088202 -32.80457449684819 13.99052480563387 #
straight-curve $-1 70.885952330088202 -32.80457449684819 0 0 0 -1 I I #
point $-1 70.885952330088202 -32.80457449684819 -13.99052480563387 #
End-of-ACIS-data 