500 0 17 0           
7 Unknown 11 ACIS 5.0 NT 24 Thu Mar 25 19:01:28 1999 
-1 9.9999999999999995e-007 1e-010 
body $-1 $17 $-1 $18 #
body $-1 $19 $-1 $20 #
body $-1 $21 $-1 $22 #
body $-1 $23 $-1 $24 #
body $-1 $25 $-1 $26 #
body $-1 $27 $-1 $28 #
body $-1 $29 $-1 $30 #
body $-1 $31 $-1 $32 #
body $-1 $33 $-1 $34 #
body $-1 $35 $-1 $36 #
body $-1 $37 $-1 $38 #
body $-1 $39 $-1 $40 #
body $-1 $41 $-1 $42 #
body $-1 $43 $-1 $44 #
body $-1 $45 $-1 $46 #
body $-1 $47 $-1 $48 #
body $-1 $49 $-1 $50 #
lump $-1 $-1 $51 $0 #
transform $-1 1 0 0 0 1 0 0 0 1 59.840693380535299 41.662761018651871 19.684755005415894 1 rotate no_reflect no_shear #
lump $-1 $-1 $52 $1 #
transform $-1 1 0 0 0 1 0 0 0 1 59.840693380535299 41.662761018651871 19.684755005415894 1 rotate no_reflect no_shear #
lump $-1 $-1 $53 $2 #
transform $-1 1 0 0 0 1 0 0 0 1 59.840693380535299 41.662761018651871 19.684755005415894 1 rotate no_reflect no_shear #
lump $-1 $-1 $54 $3 #
transform $-1 1 0 0 0 1 0 0 0 1 59.840693380535299 41.662761018651871 19.684755005415894 1 rotate no_reflect no_shear #
lump $-1 $-1 $55 $4 #
transform $-1 1 0 0 0 1 0 0 0 1 59.840693380535299 41.662761018651871 19.684755005415894 1 rotate no_reflect no_shear #
lump $-1 $-1 $56 $5 #
transform $-1 1 0 0 0 1 0 0 0 1 59.840693380535299 41.662761018651871 19.684755005415894 1 rotate no_reflect no_shear #
lump $-1 $-1 $57 $6 #
transform $-1 1 0 0 0 1 0 0 0 1 59.840693380535299 41.662761018651871 19.684755005415894 1 rotate no_reflect no_shear #
lump $-1 $-1 $58 $7 #
transform $-1 1 0 0 0 1 0 0 0 1 59.840693380535299 41.662761018651871 19.684755005415894 1 rotate no_reflect no_shear #
lump $-1 $-1 $59 $8 #
transform $-1 1 0 0 0 1 0 0 0 1 59.840693380535299 41.662761018651871 19.684755005415894 1 rotate no_reflect no_shear #
lump $-1 $-1 $60 $9 #
transform $-1 1 0 0 0 1 0 0 0 1 59.840693380535299 41.662761018651871 19.684755005415894 1 rotate no_reflect no_shear #
lump $-1 $-1 $61 $10 #
transform $-1 1 0 0 0 1 0 0 0 1 59.840693380535299 41.662761018651871 19.684755005415894 1 rotate no_reflect no_shear #
lump $-1 $-1 $62 $11 #
transform $-1 1 0 0 0 1 0 0 0 1 59.840693380535299 41.662761018651871 19.684755005415894 1 rotate no_reflect no_shear #
lump $-1 $-1 $63 $12 #
transform $-1 1 0 0 0 1 0 0 0 1 59.840693380535299 41.662761018651871 19.684755005415894 1 rotate no_reflect no_shear #
lump $-1 $-1 $64 $13 #
transform $-1 1 0 0 0 1 0 0 0 1 59.840693380535299 41.662761018651871 19.684755005415894 1 rotate no_reflect no_shear #
lump $-1 $-1 $65 $14 #
transform $-1 1 0 0 0 1 0 0 0 1 59.840693380535299 41.662761018651871 19.684755005415894 1 rotate no_reflect no_shear #
lump $-1 $-1 $66 $15 #
transform $-1 1 0 0 0 1 0 0 0 1 59.840693380535299 41.662761018651871 19.684755005415894 1 rotate no_reflect no_shear #
lump $-1 $-1 $67 $16 #
transform $-1 1 0 0 0 1 0 0 0 1 59.840693380535299 41.662761018651871 19.684755005415894 1 rotate no_reflect no_shear #
shell $-1 $-1 $-1 $68 $-1 $17 #
shell $-1 $-1 $-1 $69 $-1 $19 #
shell $-1 $-1 $-1 $70 $-1 $21 #
shell $-1 $-1 $-1 $71 $-1 $23 #
shell $-1 $-1 $-1 $72 $-1 $25 #
shell $-1 $-1 $-1 $73 $-1 $27 #
shell $-1 $-1 $-1 $74 $-1 $29 #
shell $-1 $-1 $-1 $75 $-1 $31 #
shell $-1 $-1 $-1 $76 $-1 $33 #
shell $-1 $-1 $-1 $77 $-1 $35 #
shell $-1 $-1 $-1 $78 $-1 $37 #
shell $-1 $-1 $-1 $79 $-1 $39 #
shell $-1 $-1 $-1 $80 $-1 $41 #
shell $-1 $-1 $-1 $81 $-1 $43 #
shell $-1 $-1 $-1 $82 $-1 $45 #
shell $-1 $-1 $-1 $83 $-1 $47 #
shell $-1 $-1 $-1 $84 $-1 $49 #
face $-1 $85 $86 $51 $-1 $87 forward single #
face $-1 $88 $89 $52 $-1 $90 forward single #
face $-1 $91 $92 $53 $-1 $93 reversed single #
face $-1 $94 $95 $54 $-1 $96 forward single #
face $-1 $97 $98 $55 $-1 $99 forward single #
face $-1 $100 $101 $56 $-1 $102 reversed single #
face $-1 $103 $104 $57 $-1 $105 forward single #
face $-1 $106 $107 $58 $-1 $108 forward single #
face $-1 $109 $110 $59 $-1 $111 reversed single #
face $-1 $112 $113 $60 $-1 $114 forward single #
face $-1 $115 $116 $61 $-1 $117 forward single #
face $-1 $118 $119 $62 $-1 $120 reversed single #
face $-1 $121 $122 $63 $-1 $123 forward single #
face $-1 $124 $125 $64 $-1 $126 forward single #
face $-1 $127 $128 $65 $-1 $129 reversed single #
face $-1 $130 $131 $66 $-1 $132 forward single #
face $-1 $133 $134 $67 $-1 $135 forward single #
face $-1 $136 $137 $51 $-1 $138 reversed single #
loop $-1 $-1 $139 $68 #
plane-surface $-1 0 0 19.684755005415894 0 0 1 1 0 0 forward_v I I I I #
face $-1 $140 $141 $52 $-1 $142 reversed single #
loop $-1 $-1 $143 $69 #
plane-surface $-1 -59.840693380535299 0 0 1 0 0 0 0 -1 forward_v I I I I #
face $-1 $144 $145 $53 $-1 $146 reversed single #
loop $-1 $-1 $147 $70 #
plane-surface $-1 -11.532883020416531 -146.33846137023139 68.437227910352931 -1 0 0 0 -0.87461971476443456 0.48480960649040278 forward_v I I I I #
face $-1 $148 $149 $54 $-1 $150 forward single #
loop $-1 $151 $152 $71 #
cone-surface $-1 -31.052099104500776 -36.454933127857679 13.587078312953047 0 0.87461971476443456 -0.48480960649040278 2.5 0 0 1 I I 0 1 2.5 forward I I I I #
face $-1 $153 $154 $55 $-1 $155 forward single #
loop $-1 $156 $157 $72 #
cone-surface $-1 -19.340569454050225 -36.454933127857679 13.587078312953047 0 0.87461971476443456 -0.48480960649040278 2.5 0 0 1 I I 0 1 2.5 forward I I I I #
face $-1 $158 $159 $56 $-1 $160 reversed single #
loop $-1 $-1 $161 $73 #
plane-surface $-1 -32.94950360986789 67.370241166246217 157.86456512631375 1 0 0 0 -0.70710678939079041 -0.70710677298230451 forward_v I I I I #
face $-1 $162 $163 $57 $-1 $164 forward single #
loop $-1 $165 $166 $74 #
cone-surface $-1 -28.370004323686175 36.941127558598723 14.963121530369506 0 -0.70710678939079041 -0.70710677298230451 1.5 0 0 1 I I 0 1 1.5 forward I I I I #
face $-1 $167 $168 $58 $-1 $169 forward single #
loop $-1 $170 $171 $75 #
cone-surface $-1 -21.500755394413602 36.941127558598723 14.963121530369506 0 -0.70710678939079041 -0.70710677298230451 1.5 0 0 1 I I 0 1 1.5 forward I I I I #
face $-1 $172 $173 $59 $-1 $174 reversed single #
loop $-1 $-1 $175 $76 #
plane-surface $-1 -8.2743838802004426 67.370241166246217 157.86456512631375 1 0 0 0 -0.70710678939079041 -0.70710677298230451 forward_v I I I I #
face $-1 $176 $177 $60 $-1 $178 forward single #
loop $-1 $179 $180 $77 #
cone-surface $-1 -3.6948845940187311 36.941127558598723 14.963121530369506 0 -0.70710678939079041 -0.70710677298230451 1.5 0 0 1 I I 0 1 1.5 forward I I I I #
face $-1 $181 $182 $61 $-1 $183 forward single #
loop $-1 $184 $185 $78 #
cone-surface $-1 3.1743643352538413 36.941127558598723 14.963121530369506 0 -0.70710678939079041 -0.70710677298230451 1.5 0 0 1 I I 0 1 1.5 forward I I I I #
face $-1 $186 $187 $62 $-1 $188 reversed single #
loop $-1 $-1 $189 $79 #
plane-surface $-1 16.400735849467001 67.370241166246217 157.86456512631375 1 0 0 0 -0.70710678939079041 -0.70710677298230451 forward_v I I I I #
face $-1 $190 $191 $63 $-1 $192 forward single #
loop $-1 $193 $194 $80 #
cone-surface $-1 20.980235135648712 36.941127558598723 14.963121530369506 0 -0.70710678939079041 -0.70710677298230451 1.5 0 0 1 I I 0 1 1.5 forward I I I I #
face $-1 $195 $196 $64 $-1 $197 forward single #
loop $-1 $198 $199 $81 #
cone-surface $-1 27.849484064921285 36.941127558598723 14.963121530369506 0 -0.70710678939079041 -0.70710677298230451 1.5 0 0 1 I I 0 1 1.5 forward I I I I #
face $-1 $200 $201 $65 $-1 $202 reversed single #
loop $-1 $-1 $203 $82 #
plane-surface $-1 41.075855579134441 67.370241166246217 157.86456512631375 1 0 0 0 -0.70710678939079041 -0.70710677298230451 forward_v I I I I #
face $-1 $204 $205 $66 $-1 $206 forward single #
loop $-1 $207 $208 $83 #
cone-surface $-1 45.655354865316156 36.941127558598723 14.963121530369506 0 -0.70710678939079041 -0.70710677298230451 1.5 0 0 1 I I 0 1 1.5 forward I I I I #
face $-1 $209 $210 $67 $-1 $211 forward single #
loop $-1 $212 $213 $84 #
cone-surface $-1 52.524603794588728 36.941127558598723 14.963121530369506 0 -0.70710678939079041 -0.70710677298230451 1.5 0 0 1 I I 0 1 1.5 forward I I I I #
face $-1 $214 $215 $51 $-1 $216 reversed single #
loop $-1 $-1 $217 $85 #
plane-surface $-1 0 0 -19.684755005415894 0 0 1 1 0 0 forward_v I I I I #
coedge $-1 $218 $219 $220 $221 forward $86 $-1 #
face $-1 $222 $223 $52 $-1 $224 reversed single #
loop $-1 $-1 $225 $88 #
plane-surface $-1 0 41.662761018651871 0 0 -1 0 0 0 -1 forward_v I I I I #
coedge $-1 $226 $227 $228 $229 forward $89 $-1 #
face $-1 $230 $231 $53 $-1 $232 reversed single #
loop $-1 $-1 $233 $91 #
plane-surface $-1 -25.196334279275504 -41.66276101865185 10.4145418904926 0 -0.87461971476443456 0.48480960649040278 1 0 0 forward_v I I I I #
coedge $-1 $234 $235 $236 $237 reversed $92 $-1 #
face $-1 $-1 $238 $54 $-1 $239 forward single #
loop $-1 $240 $241 $94 #
cone-surface $-1 -31.052099104500776 -32.723112017557206 11.518496169838841 0 0.87461971476443456 -0.48480960649040278 1.25 0 0 1 I I -0.70710678118654746 0.70710678118654746 1.25 forward I I I I #
loop $-1 $-1 $242 $71 #
coedge $-1 $152 $152 $243 $244 reversed $95 $-1 #
face $-1 $-1 $245 $55 $-1 $246 forward single #
loop $-1 $247 $248 $97 #
cone-surface $-1 -19.340569454050225 -32.723112017557206 11.518496169838841 0 0.87461971476443456 -0.48480960649040278 1.25 0 0 1 I I -0.70710678118654746 0.70710678118654746 1.25 forward I I I I #
loop $-1 $-1 $249 $72 #
coedge $-1 $157 $157 $250 $251 reversed $98 $-1 #
face $-1 $252 $253 $56 $-1 $254 reversed single #
loop $-1 $-1 $255 $100 #
plane-surface $-1 -24.935379859049888 -17.257279976211862 73.237045947646024 0 0.70710678939079041 0.70710677298230451 1 0 0 forward_v I I I I #
coedge $-1 $256 $257 $258 $259 reversed $101 $-1 #
face $-1 $-1 $260 $57 $-1 $261 forward single #
loop $-1 $262 $263 $103 #
cone-surface $-1 -28.370004323686175 34.373039654162504 12.39503368552603 0 -0.70710678939079041 -0.70710677298230451 0.75 0 0 1 I I -0.70710678118654757 0.70710678118654757 0.75 forward I I I I #
loop $-1 $-1 $264 $74 #
coedge $-1 $166 $166 $265 $266 reversed $104 $-1 #
face $-1 $-1 $267 $58 $-1 $268 forward single #
loop $-1 $269 $270 $106 #
cone-surface $-1 -21.500755394413602 34.373039654162504 12.39503368552603 0 -0.70710678939079041 -0.70710677298230451 0.75 0 0 1 I I -0.70710678118654757 0.70710678118654757 0.75 forward I I I I #
loop $-1 $-1 $271 $75 #
coedge $-1 $171 $171 $272 $273 reversed $107 $-1 #
face $-1 $274 $275 $59 $-1 $276 reversed single #
loop $-1 $-1 $277 $109 #
plane-surface $-1 -0.26026012938244492 -17.257279976211862 73.237045947646024 0 0.70710678939079041 0.70710677298230451 1 0 0 forward_v I I I I #
coedge $-1 $278 $279 $280 $281 reversed $110 $-1 #
face $-1 $-1 $282 $60 $-1 $283 forward single #
loop $-1 $284 $285 $112 #
cone-surface $-1 -3.6948845940187311 34.373039654162504 12.39503368552603 0 -0.70710678939079041 -0.70710677298230451 0.75 0 0 1 I I -0.70710678118654757 0.70710678118654757 0.75 forward I I I I #
loop $-1 $-1 $286 $77 #
coedge $-1 $180 $180 $287 $288 reversed $113 $-1 #
face $-1 $-1 $289 $61 $-1 $290 forward single #
loop $-1 $291 $292 $115 #
cone-surface $-1 3.1743643352538413 34.373039654162504 12.39503368552603 0 -0.70710678939079041 -0.70710677298230451 0.75 0 0 1 I I -0.70710678118654757 0.70710678118654757 0.75 forward I I I I #
loop $-1 $-1 $293 $78 #
coedge $-1 $185 $185 $294 $295 reversed $116 $-1 #
face $-1 $296 $297 $62 $-1 $298 reversed single #
loop $-1 $-1 $299 $118 #
plane-surface $-1 24.414859600284998 -17.257279976211862 73.237045947646024 0 0.70710678939079041 0.70710677298230451 1 0 0 forward_v I I I I #
coedge $-1 $300 $301 $302 $303 reversed $119 $-1 #
face $-1 $-1 $304 $63 $-1 $305 forward single #
loop $-1 $306 $307 $121 #
cone-surface $-1 20.980235135648712 34.373039654162504 12.39503368552603 0 -0.70710678939079041 -0.70710677298230451 0.75 0 0 1 I I -0.70710678118654757 0.70710678118654757 0.75 forward I I I I #
loop $-1 $-1 $308 $80 #
coedge $-1 $194 $194 $309 $310 reversed $122 $-1 #
face $-1 $-1 $311 $64 $-1 $312 forward single #
loop $-1 $313 $314 $124 #
cone-surface $-1 27.849484064921285 34.373039654162504 12.39503368552603 0 -0.70710678939079041 -0.70710677298230451 0.75 0 0 1 I I -0.70710678118654757 0.70710678118654757 0.75 forward I I I I #
loop $-1 $-1 $315 $81 #
coedge $-1 $199 $199 $316 $317 reversed $125 $-1 #
face $-1 $318 $319 $65 $-1 $320 reversed single #
loop $-1 $-1 $321 $127 #
plane-surface $-1 49.089979329952442 -17.257279976211862 73.237045947646024 0 0.70710678939079041 0.70710677298230451 1 0 0 forward_v I I I I #
coedge $-1 $322 $323 $324 $325 reversed $128 $-1 #
face $-1 $-1 $326 $66 $-1 $327 forward single #
loop $-1 $328 $329 $130 #
cone-surface $-1 45.655354865316156 34.373039654162504 12.39503368552603 0 -0.70710678939079041 -0.70710677298230451 0.75 0 0 1 I I -0.70710678118654757 0.70710678118654757 0.75 forward I I I I #
loop $-1 $-1 $330 $83 #
coedge $-1 $208 $208 $331 $332 reversed $131 $-1 #
face $-1 $-1 $333 $67 $-1 $334 forward single #
loop $-1 $335 $336 $133 #
cone-surface $-1 52.524603794588728 34.373039654162504 12.39503368552603 0 -0.70710678939079041 -0.70710677298230451 0.75 0 0 1 I I -0.70710678118654757 0.70710678118654757 0.75 forward I I I I #
loop $-1 $-1 $337 $84 #
coedge $-1 $213 $213 $338 $339 reversed $134 $-1 #
face $-1 $340 $341 $51 $-1 $342 reversed single #
loop $-1 $-1 $343 $136 #
plane-surface $-1 0 -41.662761018651871 0 0 1 0 0 0 1 forward_v I I I I #
coedge $-1 $344 $345 $346 $347 forward $137 $-1 #
coedge $-1 $348 $139 $349 $350 forward $86 $-1 #
coedge $-1 $139 $348 $351 $352 forward $86 $-1 #
coedge $-1 $353 $354 $139 $221 reversed $355 $-1 #
edge $-1 $356 -41.662761018651871 $357 41.662761018651871 $220 $358 forward 7 unknown #
face $-1 $359 $360 $52 $-1 $361 reversed single #
loop $-1 $-1 $228 $140 #
plane-surface $-1 -70.331147301735712 0 9.8458017741862953 0 0 1 1 0 0 forward_v I I I I #
coedge $-1 $362 $363 $226 $364 forward $141 $-1 #
coedge $-1 $365 $143 $225 $364 reversed $89 $-1 #
coedge $-1 $143 $365 $366 $367 reversed $89 $-1 #
coedge $-1 $368 $369 $143 $229 reversed $223 $-1 #
edge $-1 $370 -41.662761018651871 $371 41.662761018651871 $228 $372 forward 7 unknown #
face $-1 $373 $374 $53 $-1 $375 reversed single #
loop $-1 $-1 $376 $144 #
plane-surface $-1 -38.859785538134474 -146.33846137023139 68.437227910352931 1 0 0 0 0.87461971476443456 -0.48480960649040278 forward_v I I I I #
coedge $-1 $377 $378 $379 $380 reversed $145 $-1 #
coedge $-1 $235 $147 $381 $382 reversed $92 $-1 #
coedge $-1 $147 $234 $377 $383 reversed $92 $-1 #
coedge $-1 $379 $384 $147 $237 forward $385 $-1 #
edge $-1 $386 31.506469666463822 $387 36.64503251436237 $236 $388 forward 7 unknown #
loop $-1 $-1 $243 $148 #
plane-surface $-1 -25.196334279275504 -41.66276101865185 10.4145418904926 0 -0.87461971476443456 0.48480960649040278 1 0 0 forward_v I I I I #
loop $-1 $-1 $389 $94 #
coedge $-1 $241 $241 $242 $390 reversed $149 $-1 #
coedge $-1 $242 $242 $241 $390 forward $151 $-1 #
coedge $-1 $243 $243 $152 $244 forward $238 $-1 #
edge $-1 $391 -4.0500722015098231e-016 $391 6.2831853071796004 $243 $392 forward 7 unknown #
loop $-1 $-1 $250 $153 #
plane-surface $-1 -25.196334279275504 -41.66276101865185 10.4145418904926 0 -0.87461971476443456 0.48480960649040278 1 0 0 forward_v I I I I #
loop $-1 $-1 $393 $97 #
coedge $-1 $248 $248 $249 $394 reversed $154 $-1 #
coedge $-1 $249 $249 $248 $394 forward $156 $-1 #
coedge $-1 $250 $250 $157 $251 forward $245 $-1 #
edge $-1 $395 -4.0500722015098231e-016 $395 6.2831853071796004 $250 $396 forward 7 unknown #
face $-1 $397 $398 $56 $-1 $399 forward single #
loop $-1 $-1 $400 $158 #
plane-surface $-1 -16.921256108231891 67.370241166246217 157.86456512631375 -1 0 0 0 0.70710678939079041 0.70710677298230451 forward_v I I I I #
coedge $-1 $401 $402 $403 $404 reversed $159 $-1 #
coedge $-1 $257 $161 $405 $406 reversed $101 $-1 #
coedge $-1 $161 $256 $401 $407 reversed $101 $-1 #
coedge $-1 $403 $408 $161 $259 forward $398 $-1 #
edge $-1 $409 -7.9776404355287625 $410 -2.609889140208729 $258 $411 forward 7 unknown #
loop $-1 $-1 $265 $162 #
plane-surface $-1 -24.935379859049888 -17.257279976211862 73.237045947646024 0 0.70710678939079041 0.70710677298230451 1 0 0 forward_v I I I I #
loop $-1 $-1 $412 $103 #
coedge $-1 $263 $263 $264 $413 reversed $163 $-1 #
coedge $-1 $264 $264 $263 $413 forward $165 $-1 #
coedge $-1 $265 $265 $166 $266 forward $260 $-1 #
edge $-1 $414 3.3495306173884879e-015 $414 6.283185307179604 $265 $415 forward 7 unknown #
loop $-1 $-1 $272 $167 #
plane-surface $-1 -24.935379859049888 -17.257279976211862 73.237045947646024 0 0.70710678939079041 0.70710677298230451 1 0 0 forward_v I I I I #
loop $-1 $-1 $416 $106 #
coedge $-1 $270 $270 $271 $417 reversed $168 $-1 #
coedge $-1 $271 $271 $270 $417 forward $170 $-1 #
coedge $-1 $272 $272 $171 $273 forward $267 $-1 #
edge $-1 $418 3.3495306173884879e-015 $418 6.283185307179604 $272 $419 forward 7 unknown #
face $-1 $420 $421 $59 $-1 $422 forward single #
loop $-1 $-1 $423 $172 #
plane-surface $-1 7.7538636214355527 67.370241166246217 157.86456512631375 -1 0 0 0 0.70710678939079041 0.70710677298230451 forward_v I I I I #
coedge $-1 $424 $425 $426 $427 reversed $173 $-1 #
coedge $-1 $279 $175 $428 $429 reversed $110 $-1 #
coedge $-1 $175 $278 $424 $430 reversed $110 $-1 #
coedge $-1 $426 $431 $175 $281 forward $421 $-1 #
edge $-1 $432 -7.9776404355287625 $433 -2.609889140208729 $280 $434 forward 7 unknown #
loop $-1 $-1 $287 $176 #
plane-surface $-1 -0.26026012938244492 -17.257279976211862 73.237045947646024 0 0.70710678939079041 0.70710677298230451 1 0 0 forward_v I I I I #
loop $-1 $-1 $435 $112 #
coedge $-1 $285 $285 $286 $436 reversed $177 $-1 #
coedge $-1 $286 $286 $285 $436 forward $179 $-1 #
coedge $-1 $287 $287 $180 $288 forward $282 $-1 #
edge $-1 $437 3.3495306173884879e-015 $437 6.283185307179604 $287 $438 forward 7 unknown #
loop $-1 $-1 $294 $181 #
plane-surface $-1 -0.26026012938244492 -17.257279976211862 73.237045947646024 0 0.70710678939079041 0.70710677298230451 1 0 0 forward_v I I I I #
loop $-1 $-1 $439 $115 #
coedge $-1 $292 $292 $293 $440 reversed $182 $-1 #
coedge $-1 $293 $293 $292 $440 forward $184 $-1 #
coedge $-1 $294 $294 $185 $295 forward $289 $-1 #
edge $-1 $441 3.3495306173884879e-015 $441 6.283185307179604 $294 $442 forward 7 unknown #
face $-1 $443 $444 $62 $-1 $445 forward single #
loop $-1 $-1 $446 $186 #
plane-surface $-1 32.428983351103 67.370241166246217 157.86456512631375 -1 0 0 0 0.70710678939079041 0.70710677298230451 forward_v I I I I #
coedge $-1 $447 $448 $449 $450 reversed $187 $-1 #
coedge $-1 $301 $189 $451 $452 reversed $119 $-1 #
coedge $-1 $189 $300 $447 $453 reversed $119 $-1 #
coedge $-1 $449 $454 $189 $303 forward $444 $-1 #
edge $-1 $455 -7.9776404355287625 $456 -2.609889140208729 $302 $457 forward 7 unknown #
loop $-1 $-1 $309 $190 #
plane-surface $-1 24.414859600284998 -17.257279976211862 73.237045947646024 0 0.70710678939079041 0.70710677298230451 1 0 0 forward_v I I I I #
loop $-1 $-1 $458 $121 #
coedge $-1 $307 $307 $308 $459 reversed $191 $-1 #
coedge $-1 $308 $308 $307 $459 forward $193 $-1 #
coedge $-1 $309 $309 $194 $310 forward $304 $-1 #
edge $-1 $460 3.3495306173884879e-015 $460 6.283185307179604 $309 $461 forward 7 unknown #
loop $-1 $-1 $316 $195 #
plane-surface $-1 24.414859600284998 -17.257279976211862 73.237045947646024 0 0.70710678939079041 0.70710677298230451 1 0 0 forward_v I I I I #
loop $-1 $-1 $462 $124 #
coedge $-1 $314 $314 $315 $463 reversed $196 $-1 #
coedge $-1 $315 $315 $314 $463 forward $198 $-1 #
coedge $-1 $316 $316 $199 $317 forward $311 $-1 #
edge $-1 $464 3.3495306173884879e-015 $464 6.283185307179604 $316 $465 forward 7 unknown #
face $-1 $466 $467 $65 $-1 $468 forward single #
loop $-1 $-1 $469 $200 #
plane-surface $-1 57.104103080770443 67.370241166246217 157.86456512631375 -1 0 0 0 0.70710678939079041 0.70710677298230451 forward_v I I I I #
coedge $-1 $470 $471 $472 $473 reversed $201 $-1 #
coedge $-1 $323 $203 $474 $475 reversed $128 $-1 #
coedge $-1 $203 $322 $470 $476 reversed $128 $-1 #
coedge $-1 $472 $477 $203 $325 forward $467 $-1 #
edge $-1 $478 -7.9776404355287625 $479 -2.609889140208729 $324 $480 forward 7 unknown #
loop $-1 $-1 $331 $204 #
plane-surface $-1 49.089979329952442 -17.257279976211862 73.237045947646024 0 0.70710678939079041 0.70710677298230451 1 0 0 forward_v I I I I #
loop $-1 $-1 $481 $130 #
coedge $-1 $329 $329 $330 $482 reversed $205 $-1 #
coedge $-1 $330 $330 $329 $482 forward $207 $-1 #
coedge $-1 $331 $331 $208 $332 forward $326 $-1 #
edge $-1 $483 3.3495306173884879e-015 $483 6.283185307179604 $331 $484 forward 7 unknown #
loop $-1 $-1 $338 $209 #
plane-surface $-1 49.089979329952442 -17.257279976211862 73.237045947646024 0 0.70710678939079041 0.70710677298230451 1 0 0 forward_v I I I I #
loop $-1 $-1 $485 $133 #
coedge $-1 $336 $336 $337 $486 reversed $210 $-1 #
coedge $-1 $337 $337 $336 $486 forward $212 $-1 #
coedge $-1 $338 $338 $213 $339 forward $333 $-1 #
edge $-1 $487 3.3495306173884879e-015 $487 6.283185307179604 $338 $488 forward 7 unknown #
face $-1 $489 $490 $51 $-1 $491 reversed single #
loop $-1 $-1 $492 $214 #
plane-surface $-1 -59.840693380535299 0 0 1 0 0 0 0 -1 forward_v I I I I #
coedge $-1 $493 $351 $494 $495 forward $215 $-1 #
coedge $-1 $496 $217 $493 $497 forward $137 $-1 #
coedge $-1 $217 $496 $498 $499 forward $137 $-1 #
coedge $-1 $354 $353 $217 $347 reversed $355 $-1 #
edge $-1 $500 -41.662761018651871 $501 41.662761018651871 $346 $502 forward 7 unknown #
coedge $-1 $219 $218 $503 $504 forward $86 $-1 #
coedge $-1 $505 $506 $218 $350 reversed $490 $-1 #
edge $-1 $357 -59.840693380535299 $507 59.840693380535299 $349 $508 forward 7 unknown #
coedge $-1 $343 $509 $219 $352 reversed $215 $-1 #
edge $-1 $510 -59.840693380535299 $356 59.840693380535299 $351 $511 forward 7 unknown #
coedge $-1 $346 $220 $509 $512 forward $355 $-1 #
coedge $-1 $220 $346 $505 $513 reversed $355 $-1 #
loop $-1 $-1 $353 $489 #
vertex $-1 $221 $514 #
vertex $-1 $221 $515 #
straight-curve $-1 59.840693380535299 0 19.684755005415894 0 1 0 I I #
face $-1 $516 $517 $52 $-1 $518 forward single #
loop $-1 $-1 $519 $222 #
plane-surface $-1 -80.821601222936124 0 14.765278389801097 1 0 0 0 0 -1 forward_v I I I I #
coedge $-1 $520 $225 $369 $521 reversed $141 $-1 #
coedge $-1 $225 $520 $522 $523 reversed $141 $-1 #
edge $-1 $524 -19.684755005415894 $371 -9.8458017741862953 $225 $525 forward 7 unknown #
coedge $-1 $227 $226 $526 $527 reversed $89 $-1 #
coedge $-1 $528 $529 $227 $367 forward $530 $-1 #
edge $-1 $370 9.8458017741862953 $531 19.684755005415894 $366 $532 forward 7 unknown #
coedge $-1 $533 $228 $529 $534 forward $223 $-1 #
coedge $-1 $228 $533 $362 $521 forward $223 $-1 #
vertex $-1 $367 $535 #
vertex $-1 $364 $536 #
straight-curve $-1 -59.840693380535299 0 9.8458017741862953 0 1 0 I I #
face $-1 $-1 $385 $53 $-1 $537 forward single #
loop $-1 $-1 $538 $230 #
plane-surface $-1 0 -41.662761018651871 0 0 1 0 0 0 1 forward_v I I I I #
coedge $-1 $539 $540 $541 $542 reversed $231 $-1 #
coedge $-1 $543 $233 $235 $383 forward $145 $-1 #
coedge $-1 $233 $543 $539 $544 forward $145 $-1 #
coedge $-1 $541 $236 $233 $380 forward $385 $-1 #
edge $-1 $387 -1.0652841192212215 $545 26.261618398496722 $379 $546 forward 7 unknown #
coedge $-1 $547 $548 $234 $382 forward $374 $-1 #
edge $-1 $549 -23.804072064683904 $386 -14.533858949760571 $381 $550 forward 7 unknown #
edge $-1 $387 -10.599135782595621 $549 4.4514345991868243e-014 $235 $551 forward 7 unknown #
coedge $-1 $236 $541 $547 $552 forward $385 $-1 #
loop $-1 $-1 $541 $373 #
vertex $-1 $382 $553 #
vertex $-1 $237 $554 #
straight-curve $-1 -11.532883020416531 -73.169230685115693 19.684755005415894 0 1 0 I I #
coedge $-1 $389 $389 $-1 $555 reversed $240 $-1 #
edge $-1 $556 0 $556 6.2831853071796004 $241 $557 forward 7 unknown #
vertex $-1 $244 $558 #
ellipse-curve $-1 -31.052099104500776 -39.093479594702586 15.04964844795424 0 -0.87461971476443456 0.48480960649040278 2.5 0 0 1 I I #
coedge $-1 $393 $393 $-1 $559 reversed $247 $-1 #
edge $-1 $560 0 $560 6.2831853071796004 $248 $561 forward 7 unknown #
vertex $-1 $251 $562 #
ellipse-curve $-1 -19.340569454050225 -39.093479594702586 15.04964844795424 0 -0.87461971476443456 0.48480960649040278 2.5 0 0 1 I I #
face $-1 $-1 $563 $56 $-1 $564 reversed single #
loop $-1 $-1 $258 $252 #
plane-surface $-1 0 0 19.684755005415894 0 0 1 1 0 0 forward_v I I I I #
coedge $-1 $565 $566 $567 $568 reversed $253 $-1 #
coedge $-1 $569 $255 $257 $407 forward $159 $-1 #
coedge $-1 $255 $569 $565 $570 forward $159 $-1 #
coedge $-1 $567 $258 $255 $404 forward $398 $-1 #
edge $-1 $410 -20.481813680342945 $571 -4.4535661787069465 $403 $572 forward 7 unknown #
coedge $-1 $573 $574 $256 $406 forward $563 $-1 #
edge $-1 $575 -64.61527897762025 $409 -59.24752755774098 $405 $576 forward 7 unknown #
edge $-1 $410 75.734375267939726 $575 83.325522037303742 $257 $577 forward 7 unknown #
coedge $-1 $258 $567 $573 $578 forward $398 $-1 #
vertex $-1 $406 $579 #
vertex $-1 $259 $580 #
straight-curve $-1 -32.94950360986789 33.685120583123108 19.684755005415894 0 -1 0 I I #
coedge $-1 $412 $412 $-1 $581 reversed $262 $-1 #
edge $-1 $582 0 $582 6.2831853071796004 $263 $583 forward 7 unknown #
vertex $-1 $266 $584 #
ellipse-curve $-1 -28.370004323686175 38.978885370991854 17.00087929547626 0 0.70710678939079041 0.70710677298230451 1.5 0 0 1 I I #
coedge $-1 $416 $416 $-1 $585 reversed $269 $-1 #
edge $-1 $586 0 $586 6.2831853071796004 $270 $587 forward 7 unknown #
vertex $-1 $273 $588 #
ellipse-curve $-1 -21.500755394413602 38.978885370991854 17.00087929547626 0 0.70710678939079041 0.70710677298230451 1.5 0 0 1 I I #
face $-1 $-1 $589 $59 $-1 $590 reversed single #
loop $-1 $-1 $280 $274 #
plane-surface $-1 0 0 19.684755005415894 0 0 1 1 0 0 forward_v I I I I #
coedge $-1 $591 $592 $593 $594 reversed $275 $-1 #
coedge $-1 $595 $277 $279 $430 forward $173 $-1 #
coedge $-1 $277 $595 $591 $596 forward $173 $-1 #
coedge $-1 $593 $280 $277 $427 forward $421 $-1 #
edge $-1 $433 -8.1442538155092201 $597 7.8839936861267752 $426 $598 forward 7 unknown #
coedge $-1 $599 $600 $278 $429 forward $589 $-1 #
edge $-1 $601 -64.61527897762025 $432 -59.24752755774098 $428 $602 forward 7 unknown #
edge $-1 $433 75.734375267939726 $601 83.325522037303742 $279 $603 forward 7 unknown #
coedge $-1 $280 $593 $599 $604 forward $421 $-1 #
vertex $-1 $281 $605 #
vertex $-1 $281 $606 #
straight-curve $-1 -8.2743838802004426 33.685120583123108 19.684755005415894 0 -1 0 I I #
coedge $-1 $435 $435 $-1 $607 reversed $284 $-1 #
edge $-1 $608 0 $608 6.2831853071796004 $285 $609 forward 7 unknown #
vertex $-1 $288 $610 #
ellipse-curve $-1 -3.6948845940187311 38.978885370991854 17.00087929547626 0 0.70710678939079041 0.70710677298230451 1.5 0 0 1 I I #
coedge $-1 $439 $439 $-1 $611 reversed $291 $-1 #
edge $-1 $612 0 $612 6.2831853071796004 $292 $613 forward 7 unknown #
vertex $-1 $295 $614 #
ellipse-curve $-1 3.1743643352538413 38.978885370991854 17.00087929547626 0 0.70710678939079041 0.70710677298230451 1.5 0 0 1 I I #
face $-1 $-1 $615 $62 $-1 $616 reversed single #
loop $-1 $-1 $302 $296 #
plane-surface $-1 0 0 19.684755005415894 0 0 1 1 0 0 forward_v I I I I #
coedge $-1 $617 $618 $619 $620 reversed $297 $-1 #
coedge $-1 $621 $299 $301 $453 forward $187 $-1 #
coedge $-1 $299 $621 $617 $622 forward $187 $-1 #
coedge $-1 $619 $302 $299 $450 forward $444 $-1 #
edge $-1 $456 4.1933060493245016 $623 20.2215535509605 $449 $624 forward 7 unknown #
coedge $-1 $625 $626 $300 $452 forward $615 $-1 #
edge $-1 $627 -64.61527897762025 $455 -59.24752755774098 $451 $628 forward 7 unknown #
edge $-1 $456 75.734375267939726 $627 83.325522037303742 $301 $629 forward 7 unknown #
coedge $-1 $302 $619 $625 $630 forward $444 $-1 #
vertex $-1 $303 $631 #
vertex $-1 $303 $632 #
straight-curve $-1 16.400735849467001 33.685120583123108 19.684755005415894 0 -1 0 I I #
coedge $-1 $458 $458 $-1 $633 reversed $306 $-1 #
edge $-1 $634 0 $634 6.2831853071796004 $307 $635 forward 7 unknown #
vertex $-1 $310 $636 #
ellipse-curve $-1 20.980235135648712 38.978885370991854 17.00087929547626 0 0.70710678939079041 0.70710677298230451 1.5 0 0 1 I I #
coedge $-1 $462 $462 $-1 $637 reversed $313 $-1 #
edge $-1 $638 0 $638 6.2831853071796004 $314 $639 forward 7 unknown #
vertex $-1 $317 $640 #
ellipse-curve $-1 27.849484064921285 38.978885370991854 17.00087929547626 0 0.70710678939079041 0.70710677298230451 1.5 0 0 1 I I #
face $-1 $-1 $641 $65 $-1 $642 reversed single #
loop $-1 $-1 $324 $318 #
plane-surface $-1 0 0 19.684755005415894 0 0 1 1 0 0 forward_v I I I I #
coedge $-1 $643 $644 $645 $646 reversed $319 $-1 #
coedge $-1 $647 $321 $323 $476 forward $201 $-1 #
coedge $-1 $321 $647 $643 $648 forward $201 $-1 #
coedge $-1 $645 $324 $321 $473 forward $467 $-1 #
edge $-1 $479 16.53086591415822 $649 32.559113415794222 $472 $650 forward 7 unknown #
coedge $-1 $651 $652 $322 $475 forward $641 $-1 #
edge $-1 $653 -64.61527897762025 $478 -59.24752755774098 $474 $654 forward 7 unknown #
edge $-1 $479 75.734375267939726 $653 83.325522037303742 $323 $655 forward 7 unknown #
coedge $-1 $324 $645 $651 $656 forward $467 $-1 #
vertex $-1 $325 $657 #
vertex $-1 $325 $658 #
straight-curve $-1 41.075855579134441 33.685120583123108 19.684755005415894 0 -1 0 I I #
coedge $-1 $481 $481 $-1 $659 reversed $328 $-1 #
edge $-1 $660 0 $660 6.2831853071796004 $329 $661 forward 7 unknown #
vertex $-1 $332 $662 #
ellipse-curve $-1 45.655354865316156 38.978885370991854 17.00087929547626 0 0.70710678939079041 0.70710677298230451 1.5 0 0 1 I I #
coedge $-1 $485 $485 $-1 $663 reversed $335 $-1 #
edge $-1 $664 0 $664 6.2831853071796004 $336 $665 forward 7 unknown #
vertex $-1 $339 $666 #
ellipse-curve $-1 52.524603794588728 38.978885370991854 17.00087929547626 0 0.70710678939079041 0.70710677298230451 1.5 0 0 1 I I #
face $-1 $-1 $355 $51 $-1 $667 reversed single #
loop $-1 $-1 $505 $340 #
plane-surface $-1 0 41.662761018651871 0 0 -1 0 0 0 -1 forward_v I I I I #
coedge $-1 $668 $503 $506 $669 forward $341 $-1 #
coedge $-1 $509 $343 $344 $497 reversed $215 $-1 #
coedge $-1 $503 $668 $343 $495 reversed $341 $-1 #
edge $-1 $510 -19.684755005415894 $670 19.684755005415894 $494 $671 forward 7 unknown #
coedge $-1 $345 $344 $668 $672 forward $137 $-1 #
edge $-1 $501 -59.840693380535299 $670 59.840693380535299 $493 $673 forward 7 unknown #
coedge $-1 $506 $505 $345 $499 reversed $490 $-1 #
edge $-1 $674 -59.840693380535299 $500 59.840693380535299 $498 $675 forward 7 unknown #
vertex $-1 $347 $676 #
vertex $-1 $512 $677 #
straight-curve $-1 59.840693380535299 0 -19.684755005415894 0 -1 0 I I #
coedge $-1 $492 $494 $348 $504 reversed $341 $-1 #
edge $-1 $507 -41.662761018651871 $510 41.662761018651871 $503 $678 forward 7 unknown #
coedge $-1 $498 $349 $354 $513 forward $490 $-1 #
coedge $-1 $349 $498 $492 $669 reversed $490 $-1 #
vertex $-1 $350 $679 #
straight-curve $-1 0 41.662761018651871 19.684755005415894 -1 0 0 I I #
coedge $-1 $351 $493 $353 $512 reversed $215 $-1 #
vertex $-1 $504 $680 #
straight-curve $-1 0 -41.662761018651871 19.684755005415894 1 0 0 I I #
edge $-1 $356 -19.684755005415894 $501 19.684755005415894 $353 $681 forward 7 unknown #
edge $-1 $357 -19.684755005415894 $500 19.684755005415894 $354 $682 forward 7 unknown #
point $-1 59.840693380535299 -41.662761018651871 19.684755005415894 #
point $-1 59.840693380535299 41.662761018651871 19.684755005415894 #
face $-1 $-1 $530 $52 $-1 $683 reversed single #
loop $-1 $-1 $526 $359 #
plane-surface $-1 0 0 19.684755005415894 0 0 1 1 0 0 forward_v I I I I #
coedge $-1 $684 $685 $520 $686 forward $360 $-1 #
coedge $-1 $363 $362 $519 $686 reversed $141 $-1 #
edge $-1 $687 -10.490453921200412 $371 10.490453921200412 $362 $688 forward 7 unknown #
coedge $-1 $689 $526 $363 $523 forward $517 $-1 #
edge $-1 $524 59.840693380535299 $690 80.821601222936124 $363 $691 forward 7 unknown #
vertex $-1 $523 $692 #
straight-curve $-1 -59.840693380535299 41.662761018651871 0 0 0 -1 I I #
coedge $-1 $522 $693 $365 $527 forward $517 $-1 #
edge $-1 $531 -41.662761018651871 $524 41.662761018651871 $526 $694 forward 7 unknown #
coedge $-1 $695 $366 $693 $696 reversed $530 $-1 #
coedge $-1 $366 $695 $368 $534 reversed $530 $-1 #
loop $-1 $-1 $366 $516 #
vertex $-1 $367 $697 #
straight-curve $-1 -59.840693380535299 -41.662761018651871 0 0 0 1 I I #
coedge $-1 $369 $368 $684 $698 forward $223 $-1 #
edge $-1 $370 -10.490453921200412 $699 10.490453921200412 $529 $700 forward 7 unknown #
point $-1 -59.840693380535299 -41.662761018651871 9.8458017741862953 #
point $-1 -59.840693380535299 41.662761018651871 9.8458017741862953 #
plane-surface $-1 0 0 19.684755005415894 0 0 1 1 0 0 forward_v I I I I #
coedge $-1 $548 $547 $540 $701 forward $374 $-1 #
coedge $-1 $540 $376 $378 $544 reversed $231 $-1 #
coedge $-1 $376 $539 $538 $701 reversed $231 $-1 #
coedge $-1 $384 $379 $376 $542 forward $385 $-1 #
edge $-1 $545 -36.64503251436237 $702 -31.506469666463822 $541 $703 forward 7 unknown #
coedge $-1 $378 $377 $548 $704 reversed $145 $-1 #
edge $-1 $705 -4.4514345991868243e-014 $545 10.599135782595621 $539 $706 forward 7 unknown #
vertex $-1 $380 $707 #
straight-curve $-1 -12.598167139637752 -36.524198170753323 19.684755005415894 -1 0 0 I I #
coedge $-1 $538 $381 $384 $552 reversed $374 $-1 #
coedge $-1 $381 $538 $543 $704 forward $374 $-1 #
vertex $-1 $382 $708 #
straight-curve $-1 -11.532883020416531 -41.662761018651871 34.218613955176465 0 0 1 I I #
straight-curve $-1 -11.532883020416531 -41.66276101865185 10.4145418904926 0 -0.48480960649040278 -0.87461971476443456 I I #
edge $-1 $702 -38.859785538134474 $386 -11.532883020416531 $547 $709 forward 7 unknown #
point $-1 -11.532883020416531 -41.662761018651871 19.684755005415894 #
point $-1 -11.532883020416531 -36.524198170753323 19.684755005415894 #
edge $-1 $710 1 $710 0 $389 $-1 forward 7 unknown #
vertex $-1 $390 $711 #
ellipse-curve $-1 -31.052099104500776 -33.81638666101275 12.124508177951844 0 -0.87461971476443456 0.48480960649040278 2.5 0 0 1 I I #
point $-1 -28.552099104500776 -39.093479594702607 15.049648447954251 #
edge $-1 $712 1 $712 0 $393 $-1 forward 7 unknown #
vertex $-1 $394 $713 #
ellipse-curve $-1 -19.340569454050225 -33.81638666101275 12.124508177951844 0 -0.87461971476443456 0.48480960649040278 2.5 0 0 1 I I #
point $-1 -16.840569454050225 -39.093479594702607 15.049648447954251 #
loop $-1 $-1 $405 $397 #
plane-surface $-1 0 41.662761018651871 0 0 -1 0 0 0 -1 forward_v I I I I #
coedge $-1 $566 $400 $402 $570 reversed $253 $-1 #
coedge $-1 $400 $565 $714 $715 reversed $253 $-1 #
coedge $-1 $408 $403 $400 $568 forward $398 $-1 #
edge $-1 $571 2.609889140208729 $716 7.9776404355287625 $567 $717 forward 7 unknown #
coedge $-1 $402 $401 $574 $718 reversed $159 $-1 #
edge $-1 $719 -83.325522037303742 $571 -75.734375267939726 $565 $720 forward 7 unknown #
vertex $-1 $404 $721 #
straight-curve $-1 -12.467689929524944 36.295009723331837 19.684755005415894 1 0 0 I I #
coedge $-1 $714 $405 $408 $578 reversed $563 $-1 #
coedge $-1 $405 $714 $569 $718 forward $563 $-1 #
vertex $-1 $406 $722 #
straight-curve $-1 -32.94950360986789 41.662761018651871 78.932282563156875 0 0 1 I I #
straight-curve $-1 -32.94950360986789 -17.257279976211862 73.237045947646024 0 0.70710677298230451 -0.70710678939079041 I I #
edge $-1 $716 16.921256108231891 $409 32.94950360986789 $573 $723 forward 7 unknown #
point $-1 -32.94950360986789 41.662761018651871 19.684755005415894 #
point $-1 -32.94950360986789 36.295009723331837 19.684755005415894 #
edge $-1 $724 1 $724 0 $412 $-1 forward 7 unknown #
vertex $-1 $413 $725 #
ellipse-curve $-1 -28.370004323686175 34.903369746205598 12.925363765262759 0 0.70710678939079041 0.70710677298230451 1.5 0 0 1 I I #
point $-1 -26.870004323686175 38.978885370991854 17.000879295476253 #
edge $-1 $726 1 $726 0 $416 $-1 forward 7 unknown #
vertex $-1 $417 $727 #
ellipse-curve $-1 -21.500755394413602 34.903369746205598 12.925363765262759 0 0.70710678939079041 0.70710677298230451 1.5 0 0 1 I I #
point $-1 -20.000755394413602 38.978885370991854 17.000879295476253 #
loop $-1 $-1 $428 $420 #
plane-surface $-1 0 41.662761018651871 0 0 -1 0 0 0 -1 forward_v I I I I #
coedge $-1 $592 $423 $425 $596 reversed $275 $-1 #
coedge $-1 $423 $591 $728 $729 reversed $275 $-1 #
coedge $-1 $431 $426 $423 $594 forward $421 $-1 #
edge $-1 $597 2.609889140208729 $730 7.9776404355287625 $593 $731 forward 7 unknown #
coedge $-1 $425 $424 $600 $732 reversed $173 $-1 #
edge $-1 $733 -83.325522037303742 $597 -75.734375267939726 $591 $734 forward 7 unknown #
vertex $-1 $427 $735 #
straight-curve $-1 -0.13013006469122246 36.295009723331837 19.684755005415894 1 0 0 I I #
coedge $-1 $728 $428 $431 $604 reversed $589 $-1 #
coedge $-1 $428 $728 $595 $732 forward $589 $-1 #
vertex $-1 $429 $736 #
straight-curve $-1 -8.2743838802004426 41.662761018651871 78.932282563156875 0 0 1 I I #
straight-curve $-1 -8.2743838802004426 -17.257279976211862 73.237045947646024 0 0.70710677298230451 -0.70710678939079041 I I #
edge $-1 $730 -7.7538636214355527 $432 8.2743838802004426 $599 $737 forward 7 unknown #
point $-1 -8.2743838802004426 41.662761018651871 19.684755005415894 #
point $-1 -8.2743838802004426 36.295009723331837 19.684755005415894 #
edge $-1 $738 1 $738 0 $435 $-1 forward 7 unknown #
vertex $-1 $436 $739 #
ellipse-curve $-1 -3.6948845940187311 34.903369746205598 12.925363765262759 0 0.70710678939079041 0.70710677298230451 1.5 0 0 1 I I #
point $-1 -2.1948845940187311 38.978885370991854 17.000879295476253 #
edge $-1 $740 1 $740 0 $439 $-1 forward 7 unknown #
vertex $-1 $440 $741 #
ellipse-curve $-1 3.1743643352538413 34.903369746205598 12.925363765262759 0 0.70710678939079041 0.70710677298230451 1.5 0 0 1 I I #
point $-1 4.6743643352538413 38.978885370991854 17.000879295476253 #
loop $-1 $-1 $451 $443 #
plane-surface $-1 0 41.662761018651871 0 0 -1 0 0 0 -1 forward_v I I I I #
coedge $-1 $618 $446 $448 $622 reversed $297 $-1 #
coedge $-1 $446 $617 $742 $743 reversed $297 $-1 #
coedge $-1 $454 $449 $446 $620 forward $444 $-1 #
edge $-1 $623 2.609889140208729 $744 7.9776404355287625 $619 $745 forward 7 unknown #
coedge $-1 $448 $447 $626 $746 reversed $187 $-1 #
edge $-1 $747 -83.325522037303742 $623 -75.734375267939726 $617 $748 forward 7 unknown #
vertex $-1 $450 $749 #
straight-curve $-1 12.207429800142499 36.295009723331837 19.684755005415894 1 0 0 I I #
coedge $-1 $742 $451 $454 $630 reversed $615 $-1 #
coedge $-1 $451 $742 $621 $746 forward $615 $-1 #
vertex $-1 $452 $750 #
straight-curve $-1 16.400735849467001 41.662761018651871 78.932282563156875 0 0 1 I I #
straight-curve $-1 16.400735849467001 -17.257279976211862 73.237045947646024 0 0.70710677298230451 -0.70710678939079041 I I #
edge $-1 $744 -32.428983351103 $455 -16.400735849467001 $625 $751 forward 7 unknown #
point $-1 16.400735849467001 41.662761018651871 19.684755005415894 #
point $-1 16.400735849467001 36.295009723331837 19.684755005415894 #
edge $-1 $752 1 $752 0 $458 $-1 forward 7 unknown #
vertex $-1 $459 $753 #
ellipse-curve $-1 20.980235135648712 34.903369746205598 12.925363765262759 0 0.70710678939079041 0.70710677298230451 1.5 0 0 1 I I #
point $-1 22.480235135648712 38.978885370991854 17.000879295476253 #
edge $-1 $754 1 $754 0 $462 $-1 forward 7 unknown #
vertex $-1 $463 $755 #
ellipse-curve $-1 27.849484064921285 34.903369746205598 12.925363765262759 0 0.70710678939079041 0.70710677298230451 1.5 0 0 1 I I #
point $-1 29.349484064921285 38.978885370991854 17.000879295476253 #
loop $-1 $-1 $474 $466 #
plane-surface $-1 0 41.662761018651871 0 0 -1 0 0 0 -1 forward_v I I I I #
coedge $-1 $644 $469 $471 $648 reversed $319 $-1 #
coedge $-1 $469 $643 $756 $757 reversed $319 $-1 #
coedge $-1 $477 $472 $469 $646 forward $467 $-1 #
edge $-1 $649 2.609889140208729 $758 7.9776404355287625 $645 $759 forward 7 unknown #
coedge $-1 $471 $470 $652 $760 reversed $201 $-1 #
edge $-1 $761 -83.325522037303742 $649 -75.734375267939726 $643 $762 forward 7 unknown #
vertex $-1 $473 $763 #
straight-curve $-1 24.544989664976221 36.295009723331837 19.684755005415894 1 0 0 I I #
coedge $-1 $756 $474 $477 $656 reversed $641 $-1 #
coedge $-1 $474 $756 $647 $760 forward $641 $-1 #
vertex $-1 $475 $764 #
straight-curve $-1 41.075855579134441 41.662761018651871 78.932282563156875 0 0 1 I I #
straight-curve $-1 41.075855579134441 -17.257279976211862 73.237045947646024 0 0.70710677298230451 -0.70710678939079041 I I #
edge $-1 $758 -57.104103080770443 $478 -41.075855579134441 $651 $765 forward 7 unknown #
point $-1 41.075855579134441 41.662761018651871 19.684755005415894 #
point $-1 41.075855579134441 36.295009723331837 19.684755005415894 #
edge $-1 $766 1 $766 0 $481 $-1 forward 7 unknown #
vertex $-1 $482 $767 #
ellipse-curve $-1 45.655354865316156 34.903369746205598 12.925363765262759 0 0.70710678939079041 0.70710677298230451 1.5 0 0 1 I I #
point $-1 47.155354865316156 38.978885370991854 17.000879295476253 #
edge $-1 $768 1 $768 0 $485 $-1 forward 7 unknown #
vertex $-1 $486 $769 #
ellipse-curve $-1 52.524603794588728 34.903369746205598 12.925363765262759 0 0.70710678939079041 0.70710677298230451 1.5 0 0 1 I I #
point $-1 54.024603794588728 38.978885370991854 17.000879295476253 #
plane-surface $-1 59.840693380535299 0 0 -1 0 0 0 0 1 forward_v I I I I #
coedge $-1 $494 $492 $496 $672 reversed $341 $-1 #
edge $-1 $507 -19.684755005415894 $674 19.684755005415894 $506 $770 forward 7 unknown #
vertex $-1 $672 $771 #
straight-curve $-1 -59.840693380535299 -41.662761018651871 0 0 0 -1 I I #
edge $-1 $670 -41.662761018651871 $674 41.662761018651871 $668 $772 forward 7 unknown #
straight-curve $-1 0 -41.662761018651871 -19.684755005415894 -1 0 0 I I #
vertex $-1 $499 $773 #
straight-curve $-1 0 41.662761018651871 -19.684755005415894 1 0 0 I I #
point $-1 59.840693380535299 41.662761018651871 -19.684755005415894 #
point $-1 59.840693380535299 -41.662761018651871 -19.684755005415894 #
straight-curve $-1 -59.840693380535299 0 19.684755005415894 0 -1 0 I I #
point $-1 -59.840693380535299 41.662761018651871 19.684755005415894 #
point $-1 -59.840693380535299 -41.662761018651871 19.684755005415894 #
straight-curve $-1 59.840693380535299 -41.662761018651871 0 0 0 -1 I I #
straight-curve $-1 59.840693380535299 41.662761018651871 0 0 0 -1 I I #
plane-surface $-1 0 -41.662761018651871 0 0 1 0 0 0 1 forward_v I I I I #
coedge $-1 $774 $519 $533 $698 reversed $360 $-1 #
coedge $-1 $519 $774 $689 $775 reversed $360 $-1 #
edge $-1 $690 -4.9194766156148013 $687 4.9194766156148013 $520 $776 forward 7 unknown #
vertex $-1 $521 $777 #
straight-curve $-1 -70.331147301735712 41.662761018651871 9.8458017741862953 1 0 0 I I #
coedge $-1 $693 $522 $685 $775 forward $517 $-1 #
vertex $-1 $523 $778 #
straight-curve $-1 0 41.662761018651871 19.684755005415894 -1 0 0 I I #
point $-1 -59.840693380535299 41.662761018651871 19.684755005415894 #
coedge $-1 $526 $689 $528 $696 forward $517 $-1 #
straight-curve $-1 -59.840693380535299 0 19.684755005415894 0 1 0 I I #
coedge $-1 $529 $528 $774 $779 forward $530 $-1 #
edge $-1 $780 -80.821601222936124 $531 -59.840693380535299 $528 $781 forward 7 unknown #
point $-1 -59.840693380535299 -41.662761018651871 19.684755005415894 #
edge $-1 $699 -41.662761018651871 $687 41.662761018651871 $684 $782 forward 7 unknown #
vertex $-1 $698 $783 #
straight-curve $-1 -70.331147301735712 -41.662761018651871 9.8458017741862953 -1 0 0 I I #
edge $-1 $702 14.533858949760571 $705 23.804072064683904 $538 $784 forward 7 unknown #
vertex $-1 $552 $785 #
straight-curve $-1 -38.859785538134474 -73.169230685115693 19.684755005415894 0 -1 0 I I #
edge $-1 $705 -26.261618398496722 $549 1.0652841192212215 $548 $786 forward 7 unknown #
vertex $-1 $704 $787 #
straight-curve $-1 -38.859785538134474 -41.66276101865185 10.4145418904926 0 0.48480960649040278 0.87461971476443456 I I #
point $-1 -38.859785538134474 -36.524198170753323 19.684755005415894 #
point $-1 -11.532883020416531 -41.662761018651871 10.414541890492561 #
straight-curve $-1 0 -41.662761018651871 19.684755005415894 1 0 0 I I #
vertex $-1 $555 $788 #
point $-1 -28.552099104500776 -33.81638666101275 12.124508177951844 #
vertex $-1 $559 $789 #
point $-1 -16.840569454050225 -33.81638666101275 12.124508177951844 #
coedge $-1 $574 $573 $566 $715 forward $563 $-1 #
edge $-1 $716 59.24752755774098 $719 64.61527897762025 $714 $790 forward 7 unknown #
vertex $-1 $578 $791 #
straight-curve $-1 -16.921256108231891 33.685120583123108 19.684755005415894 0 1 0 I I #
edge $-1 $719 4.4535661787069465 $575 20.481813680342945 $574 $792 forward 7 unknown #
vertex $-1 $718 $793 #
straight-curve $-1 -16.921256108231891 -17.257279976211862 73.237045947646024 0 -0.70710677298230451 0.70710678939079041 I I #
point $-1 -16.921256108231891 36.295009723331837 19.684755005415894 #
point $-1 -32.94950360986789 41.662761018651878 14.317003585536632 #
straight-curve $-1 0 41.662761018651871 19.684755005415894 -1 0 0 I I #
vertex $-1 $581 $794 #
point $-1 -26.870004323686175 34.903369746205598 12.925363765262759 #
vertex $-1 $585 $795 #
point $-1 -20.000755394413602 34.903369746205598 12.925363765262759 #
coedge $-1 $600 $599 $592 $729 forward $589 $-1 #
edge $-1 $730 59.24752755774098 $733 64.61527897762025 $728 $796 forward 7 unknown #
vertex $-1 $604 $797 #
straight-curve $-1 7.7538636214355527 33.685120583123108 19.684755005415894 0 1 0 I I #
edge $-1 $733 -7.8839936861267752 $601 8.1442538155092201 $600 $798 forward 7 unknown #
vertex $-1 $732 $799 #
straight-curve $-1 7.7538636214355527 -17.257279976211862 73.237045947646024 0 -0.70710677298230451 0.70710678939079041 I I #
point $-1 7.7538636214355527 36.295009723331837 19.684755005415894 #
point $-1 -8.2743838802004426 41.662761018651878 14.317003585536632 #
straight-curve $-1 0 41.662761018651871 19.684755005415894 -1 0 0 I I #
vertex $-1 $607 $800 #
point $-1 -2.1948845940187311 34.903369746205598 12.925363765262759 #
vertex $-1 $611 $801 #
point $-1 4.6743643352538413 34.903369746205598 12.925363765262759 #
coedge $-1 $626 $625 $618 $743 forward $615 $-1 #
edge $-1 $744 59.24752755774098 $747 64.61527897762025 $742 $802 forward 7 unknown #
vertex $-1 $630 $803 #
straight-curve $-1 32.428983351103 33.685120583123108 19.684755005415894 0 1 0 I I #
edge $-1 $747 -20.2215535509605 $627 -4.1933060493245016 $626 $804 forward 7 unknown #
vertex $-1 $746 $805 #
straight-curve $-1 32.428983351103 -17.257279976211862 73.237045947646024 0 -0.70710677298230451 0.70710678939079041 I I #
point $-1 32.428983351103 36.295009723331837 19.684755005415894 #
point $-1 16.400735849467001 41.662761018651878 14.317003585536632 #
straight-curve $-1 0 41.662761018651871 19.684755005415894 -1 0 0 I I #
vertex $-1 $633 $806 #
point $-1 22.480235135648712 34.903369746205598 12.925363765262759 #
vertex $-1 $637 $807 #
point $-1 29.349484064921285 34.903369746205598 12.925363765262759 #
coedge $-1 $652 $651 $644 $757 forward $641 $-1 #
edge $-1 $758 59.24752755774098 $761 64.61527897762025 $756 $808 forward 7 unknown #
vertex $-1 $656 $809 #
straight-curve $-1 57.104103080770443 33.685120583123108 19.684755005415894 0 1 0 I I #
edge $-1 $761 -32.559113415794222 $653 -16.53086591415822 $652 $810 forward 7 unknown #
vertex $-1 $760 $811 #
straight-curve $-1 57.104103080770443 -17.257279976211862 73.237045947646024 0 -0.70710677298230451 0.70710678939079041 I I #
point $-1 57.104103080770443 36.295009723331837 19.684755005415894 #
point $-1 41.075855579134441 41.662761018651878 14.317003585536632 #
straight-curve $-1 0 41.662761018651871 19.684755005415894 -1 0 0 I I #
vertex $-1 $659 $812 #
point $-1 47.155354865316156 34.903369746205598 12.925363765262759 #
vertex $-1 $663 $813 #
point $-1 54.024603794588728 34.903369746205598 12.925363765262759 #
straight-curve $-1 -59.840693380535299 41.662761018651871 0 0 0 -1 I I #
point $-1 -59.840693380535299 -41.662761018651871 -19.684755005415894 #
straight-curve $-1 -59.840693380535299 0 -19.684755005415894 0 1 0 I I #
point $-1 -59.840693380535299 41.662761018651871 -19.684755005415894 #
coedge $-1 $685 $684 $695 $779 reversed $360 $-1 #
edge $-1 $690 -41.662761018651871 $780 41.662761018651871 $685 $814 forward 7 unknown #
straight-curve $-1 -80.821601222936124 41.662761018651871 14.765278389801097 0 0 -1 I I #
point $-1 -80.821601222936124 41.662761018651871 9.8458017741862953 #
point $-1 -80.821601222936124 41.662761018651871 19.684755005415898 #
edge $-1 $780 -4.9194766156148013 $699 4.9194766156148013 $774 $815 forward 7 unknown #
vertex $-1 $775 $816 #
straight-curve $-1 0 -41.662761018651871 19.684755005415894 1 0 0 I I #
straight-curve $-1 -80.821601222936124 0 9.8458017741862953 0 1 0 I I #
point $-1 -80.821601222936124 -41.662761018651871 9.8458017741862953 #
straight-curve $-1 -38.859785538134474 -41.662761018651871 34.218613955176465 0 0 -1 I I #
point $-1 -38.859785538134474 -41.662761018651871 19.684755005415894 #
straight-curve $-1 -12.598167139637752 -41.662761018651871 10.414541890492574 1 0 0 I I #
point $-1 -38.859785538134474 -41.662761018651871 10.414541890492561 #
point $-1 -31.052099104500776 -31.629837374101662 10.912484161725837 #
point $-1 -19.340569454050225 -31.629837374101662 10.912484161725837 #
straight-curve $-1 -16.921256108231891 41.662761018651871 78.932282563156875 0 0 -1 I I #
point $-1 -16.921256108231891 41.662761018651871 19.684755005415894 #
straight-curve $-1 -12.467689929524944 41.662761018651871 14.317003585536632 -1 0 0 I I #
point $-1 -16.921256108231891 41.662761018651878 14.317003585536632 #
point $-1 -28.370004323686175 33.84270956211941 11.864703605789302 #
point $-1 -21.500755394413602 33.84270956211941 11.864703605789302 #
straight-curve $-1 7.7538636214355527 41.662761018651871 78.932282563156875 0 0 -1 I I #
point $-1 7.7538636214355527 41.662761018651871 19.684755005415894 #
straight-curve $-1 -0.13013006469122246 41.662761018651871 14.317003585536632 -1 0 0 I I #
point $-1 7.7538636214355527 41.662761018651878 14.317003585536632 #
point $-1 -3.6948845940187311 33.84270956211941 11.864703605789302 #
point $-1 3.1743643352538413 33.84270956211941 11.864703605789302 #
straight-curve $-1 32.428983351103 41.662761018651871 78.932282563156875 0 0 -1 I I #
point $-1 32.428983351103 41.662761018651871 19.684755005415894 #
straight-curve $-1 12.207429800142499 41.662761018651871 14.317003585536632 -1 0 0 I I #
point $-1 32.428983351103 41.662761018651878 14.317003585536632 #
point $-1 20.980235135648712 33.84270956211941 11.864703605789302 #
point $-1 27.849484064921285 33.84270956211941 11.864703605789302 #
straight-curve $-1 57.104103080770443 41.662761018651871 78.932282563156875 0 0 -1 I I #
point $-1 57.104103080770443 41.662761018651871 19.684755005415894 #
straight-curve $-1 24.544989664976221 41.662761018651871 14.317003585536632 -1 0 0 I I #
point $-1 57.104103080770443 41.662761018651878 14.317003585536632 #
point $-1 45.655354865316156 33.84270956211941 11.864703605789302 #
point $-1 52.524603794588728 33.84270956211941 11.864703605789302 #
straight-curve $-1 -80.821601222936124 0 19.684755005415898 0 -1 0 I I #
straight-curve $-1 -80.821601222936124 -41.662761018651871 14.765278389801097 0 0 -1 I I #
point $-1 -80.821601222936124 -41.662761018651871 19.684755005415898 #
End-of-ACIS-data 