500 0 5 0           
7 Unknown 11 ACIS 5.0 NT 24 Thu Mar 25 16:29:43 1999 
-1 9.9999999999999995e-007 1e-010 
body $-1 $5 $-1 $6 #
body $-1 $7 $-1 $8 #
body $-1 $9 $-1 $10 #
body $-1 $11 $-1 $12 #
body $-1 $13 $-1 $14 #
lump $-1 $-1 $15 $0 #
transform $-1 1 0 0 0 1 0 0 0 1 55.00045777764214 26.87564713464581 9.0069958020081025 1 rotate no_reflect no_shear #
lump $-1 $-1 $16 $1 #
transform $-1 1 0 0 0 1 0 0 0 1 55.00045777764214 26.87564713464581 9.0069958020081025 1 rotate no_reflect no_shear #
lump $-1 $-1 $17 $2 #
transform $-1 1 0 0 0 1 0 0 0 1 55.00045777764214 26.87564713464581 9.0069958020081025 1 rotate no_reflect no_shear #
lump $-1 $-1 $18 $3 #
transform $-1 1 0 0 0 1 0 0 0 1 55.00045777764214 26.87564713464581 9.0069958020081025 1 rotate no_reflect no_shear #
lump $-1 $-1 $19 $4 #
transform $-1 1 0 0 0 1 0 0 0 1 55.00045777764214 26.87564713464581 9.0069958020081025 1 rotate no_reflect no_shear #
shell $-1 $-1 $-1 $20 $-1 $5 #
shell $-1 $-1 $-1 $21 $-1 $7 #
shell $-1 $-1 $-1 $22 $-1 $9 #
shell $-1 $-1 $-1 $23 $-1 $11 #
shell $-1 $-1 $-1 $24 $-1 $13 #
face $-1 $25 $26 $15 $-1 $27 forward single #
face $-1 $28 $29 $16 $-1 $30 reversed single #
face $-1 $31 $32 $17 $-1 $33 reversed single #
face $-1 $34 $35 $18 $-1 $36 reversed single #
face $-1 $37 $38 $19 $-1 $39 forward single #
face $-1 $40 $41 $15 $-1 $42 reversed single #
loop $-1 $-1 $43 $20 #
plane-surface $-1 0 0 9.0069958020081025 0 0 1 1 0 0 forward_v I I I I #
face $-1 $44 $45 $16 $-1 $46 reversed single #
loop $-1 $-1 $47 $21 #
plane-surface $-1 -41.934252758817912 -23.259929449766076 0 1 0 0 0 0 -1 forward_v I I I I #
face $-1 $48 $49 $17 $-1 $50 reversed single #
loop $-1 $-1 $51 $22 #
plane-surface $-1 0 22.239527838195279 6.0069958020081025 0 0 1 1 0 0 forward_v I I I I #
face $-1 $52 $53 $18 $-1 $54 reversed single #
loop $-1 $-1 $55 $23 #
plane-surface $-1 -132.78285200598665 7.8133746511280826 78.946136719521661 0 1 0 -0.70710678939079041 0 0.70710677298230451 forward_v I I I I #
face $-1 $56 $57 $19 $-1 $58 forward single #
loop $-1 $59 $60 $24 #
cone-surface $-1 -50.012140364868337 12.708391596436414 4.0186783229852638 0.70710678939079041 0 -0.70710677298230451 0.70710677298230451 0 0.70710678939079041 1 I I 0 1 1 forward I I I I #
face $-1 $61 $62 $15 $-1 $63 reversed single #
loop $-1 $-1 $64 $25 #
plane-surface $-1 0 0 -9.0069958020081025 0 0 1 1 0 0 forward_v I I I I #
coedge $-1 $65 $66 $67 $68 forward $26 $-1 #
face $-1 $69 $70 $16 $-1 $71 reversed single #
loop $-1 $-1 $72 $28 #
plane-surface $-1 -39.460359466221924 -19.644211764886343 0 0 -1 0 0 0 -1 forward_v I I I I #
coedge $-1 $73 $74 $75 $76 forward $29 $-1 #
face $-1 $77 $78 $17 $-1 $79 reversed single #
loop $-1 $-1 $80 $31 #
plane-surface $-1 0 17.603408541744745 7.5069958020081025 0 1 0 0 0 1 forward_v I I I I #
coedge $-1 $81 $82 $83 $84 reversed $32 $-1 #
face $-1 $85 $86 $18 $-1 $87 forward single #
loop $-1 $-1 $88 $34 #
plane-surface $-1 -55.000457777642126 12.708391596436407 1.1637442961256141 -0.70710678939079041 0 0.70710677298230451 0.70710677298230451 0 0.70710678939079041 forward_v I I I I #
coedge $-1 $89 $90 $91 $92 reversed $35 $-1 #
face $-1 $-1 $93 $19 $-1 $94 forward single #
loop $-1 $95 $96 $37 #
cone-surface $-1 -48.591895219338667 12.708391596436414 2.5984332104125265 0.70710678939079041 0 -0.70710677298230451 0.35355338649115226 0 0.35355339469539521 1 I I -0.70710678118654746 0.70710678118654746 0.5 forward I I I I #
loop $-1 $-1 $97 $24 #
coedge $-1 $60 $60 $98 $99 reversed $38 $-1 #
face $-1 $100 $101 $15 $-1 $102 reversed single #
loop $-1 $-1 $103 $40 #
plane-surface $-1 0 -26.87564713464581 0 0 1 0 0 0 1 forward_v I I I I #
coedge $-1 $104 $105 $106 $107 forward $41 $-1 #
coedge $-1 $108 $43 $109 $110 forward $26 $-1 #
coedge $-1 $43 $108 $111 $112 forward $26 $-1 #
coedge $-1 $113 $114 $43 $68 reversed $115 $-1 #
edge $-1 $116 -26.87564713464581 $117 26.87564713464581 $67 $118 forward 7 unknown #
face $-1 $119 $120 $16 $-1 $121 forward single #
loop $-1 $-1 $122 $44 #
plane-surface $-1 -36.986466173625935 -23.259929449766076 0 -1 0 0 0 0 1 forward_v I I I I #
coedge $-1 $123 $124 $125 $126 forward $45 $-1 #
coedge $-1 $127 $47 $128 $129 reversed $29 $-1 #
coedge $-1 $47 $127 $130 $131 reversed $29 $-1 #
coedge $-1 $124 $123 $47 $76 reversed $45 $-1 #
edge $-1 $132 -9.0069958020081025 $133 9.0069958020081025 $75 $134 forward 7 unknown #
face $-1 $135 $136 $17 $-1 $137 reversed single #
loop $-1 $-1 $138 $48 #
plane-surface $-1 55.00045777764214 0 0 -1 0 0 0 0 1 forward_v I I I I #
coedge $-1 $139 $140 $81 $141 reversed $49 $-1 #
coedge $-1 $142 $51 $80 $141 forward $32 $-1 #
coedge $-1 $51 $142 $143 $144 reversed $32 $-1 #
coedge $-1 $145 $138 $51 $84 forward $78 $-1 #
edge $-1 $146 6.4836446226471054 $147 15.755883215548174 $83 $148 forward 7 unknown #
face $-1 $149 $150 $18 $-1 $151 forward single #
loop $-1 $-1 $152 $52 #
plane-surface $-1 0 17.603408541744745 7.5069958020081025 0 1 0 0 0 1 forward_v I I I I #
coedge $-1 $153 $154 $155 $156 reversed $53 $-1 #
coedge $-1 $90 $55 $157 $158 reversed $35 $-1 #
coedge $-1 $55 $89 $153 $159 reversed $35 $-1 #
coedge $-1 $155 $160 $55 $92 forward $150 $-1 #
edge $-1 $161 11.390968225351187 $162 19.234219549230232 $91 $163 forward 7 unknown #
loop $-1 $-1 $98 $56 #
plane-surface $-1 -55.000457777642126 12.708391596436407 1.1637442961256141 -0.70710678939079041 0 0.70710677298230451 0.70710677298230451 0 0.70710678939079041 forward_v I I I I #
loop $-1 $-1 $164 $37 #
coedge $-1 $96 $96 $97 $165 reversed $57 $-1 #
coedge $-1 $97 $97 $96 $165 forward $59 $-1 #
coedge $-1 $98 $98 $60 $99 forward $93 $-1 #
edge $-1 $166 0 $166 6.2831853071796004 $98 $167 forward 7 unknown #
face $-1 $168 $169 $15 $-1 $170 reversed single #
loop $-1 $-1 $171 $61 #
plane-surface $-1 -55.00045777764214 0 0 1 0 0 0 0 -1 forward_v I I I I #
coedge $-1 $172 $111 $173 $174 forward $62 $-1 #
coedge $-1 $175 $64 $172 $176 forward $41 $-1 #
coedge $-1 $64 $175 $177 $178 forward $41 $-1 #
coedge $-1 $114 $113 $64 $107 reversed $115 $-1 #
edge $-1 $179 -26.87564713464581 $180 26.87564713464581 $106 $181 forward 7 unknown #
coedge $-1 $66 $65 $182 $183 forward $26 $-1 #
coedge $-1 $184 $185 $65 $110 reversed $169 $-1 #
edge $-1 $117 -55.00045777764214 $186 55.00045777764214 $109 $187 forward 7 unknown #
coedge $-1 $103 $188 $66 $112 reversed $62 $-1 #
edge $-1 $189 -55.00045777764214 $116 55.00045777764214 $111 $190 forward 7 unknown #
coedge $-1 $106 $67 $188 $191 forward $115 $-1 #
coedge $-1 $67 $106 $184 $192 reversed $115 $-1 #
loop $-1 $-1 $113 $168 #
vertex $-1 $68 $193 #
vertex $-1 $68 $194 #
straight-curve $-1 55.00045777764214 0 9.0069958020081025 0 1 0 I I #
face $-1 $195 $196 $16 $-1 $197 reversed single #
loop $-1 $-1 $198 $69 #
plane-surface $-1 0 0 9.0069958020081025 0 0 1 1 0 0 forward_v I I I I #
coedge $-1 $199 $200 $201 $202 reversed $70 $-1 #
coedge $-1 $75 $72 $203 $204 reversed $45 $-1 #
coedge $-1 $72 $75 $205 $206 reversed $45 $-1 #
coedge $-1 $200 $199 $72 $126 reversed $70 $-1 #
edge $-1 $207 -9.0069958020081025 $208 9.0069958020081025 $125 $209 forward 7 unknown #
coedge $-1 $74 $73 $210 $211 reversed $29 $-1 #
coedge $-1 $203 $212 $73 $129 forward $196 $-1 #
edge $-1 $213 -15.245682409762772 $133 -8.0142470400033048 $128 $214 forward 7 unknown #
coedge $-1 $215 $205 $74 $131 forward $120 $-1 #
edge $-1 $132 8.0142470400033048 $216 15.245682409762772 $130 $217 forward 7 unknown #
vertex $-1 $131 $218 #
vertex $-1 $129 $219 #
straight-curve $-1 -41.934252758817912 -19.644211764886343 0 0 0 -1 I I #
face $-1 $220 $221 $17 $-1 $222 forward single #
loop $-1 $-1 $143 $77 #
plane-surface $-1 0 26.87564713464581 0 0 -1 0 0 0 -1 forward_v I I I I #
coedge $-1 $83 $223 $139 $224 forward $78 $-1 #
coedge $-1 $225 $80 $138 $224 reversed $49 $-1 #
coedge $-1 $80 $225 $226 $227 reversed $49 $-1 #
edge $-1 $146 -55.00045777764214 $228 55.00045777764214 $80 $229 forward 7 unknown #
coedge $-1 $82 $81 $230 $231 reversed $32 $-1 #
coedge $-1 $232 $233 $82 $144 forward $136 $-1 #
edge $-1 $147 -55.00045777764214 $234 55.00045777764214 $143 $235 forward 7 unknown #
coedge $-1 $223 $83 $233 $236 reversed $78 $-1 #
vertex $-1 $84 $237 #
vertex $-1 $144 $238 #
straight-curve $-1 55.00045777764214 11.11976391909764 6.0069958020081025 0 1 0 I I #
face $-1 $-1 $239 $18 $-1 $240 reversed single #
loop $-1 $-1 $155 $85 #
plane-surface $-1 0 0 9.0069958020081025 0 0 1 1 0 0 forward_v I I I I #
coedge $-1 $241 $242 $154 $243 reversed $86 $-1 #
coedge $-1 $244 $88 $90 $159 forward $53 $-1 #
coedge $-1 $88 $244 $152 $243 forward $53 $-1 #
coedge $-1 $245 $91 $88 $156 forward $150 $-1 #
edge $-1 $162 1.4591788529098793 $246 11.249212743526542 $155 $247 forward 7 unknown #
coedge $-1 $248 $249 $89 $158 forward $239 $-1 #
edge $-1 $250 -38.309324063635231 $161 -30.466072557752728 $157 $251 forward 7 unknown #
edge $-1 $162 -11.09203252402634 $250 2.0097183471152325e-014 $90 $252 forward 7 unknown #
coedge $-1 $91 $245 $248 $253 forward $150 $-1 #
vertex $-1 $158 $254 #
vertex $-1 $92 $255 #
straight-curve $-1 -66.391426002993327 7.8133746511280826 9.006995802008106 1 0 0 I I #
coedge $-1 $164 $164 $-1 $256 reversed $95 $-1 #
edge $-1 $257 0 $257 6.2831853071796004 $96 $258 forward 7 unknown #
vertex $-1 $99 $259 #
ellipse-curve $-1 -51.078832115702618 12.708391596436414 5.0853700490668521 -0.70710678939079041 0 0.70710677298230451 0.70710677298230451 0 0.70710678939079041 1 I I #
face $-1 $-1 $115 $15 $-1 $260 reversed single #
loop $-1 $-1 $184 $100 #
plane-surface $-1 0 26.87564713464581 0 0 -1 0 0 0 -1 forward_v I I I I #
coedge $-1 $261 $182 $185 $262 forward $101 $-1 #
coedge $-1 $188 $103 $104 $176 reversed $62 $-1 #
coedge $-1 $182 $261 $103 $174 reversed $101 $-1 #
edge $-1 $189 -9.0069958020081025 $263 9.0069958020081025 $173 $264 forward 7 unknown #
coedge $-1 $105 $104 $261 $265 forward $41 $-1 #
edge $-1 $180 -55.00045777764214 $263 55.00045777764214 $172 $266 forward 7 unknown #
coedge $-1 $185 $184 $105 $178 reversed $169 $-1 #
edge $-1 $267 -55.00045777764214 $179 55.00045777764214 $177 $268 forward 7 unknown #
vertex $-1 $107 $269 #
vertex $-1 $191 $270 #
straight-curve $-1 55.00045777764214 0 -9.0069958020081025 0 -1 0 I I #
coedge $-1 $171 $173 $108 $183 reversed $101 $-1 #
edge $-1 $186 -26.87564713464581 $189 26.87564713464581 $182 $271 forward 7 unknown #
coedge $-1 $177 $109 $114 $192 forward $169 $-1 #
coedge $-1 $109 $177 $171 $262 reversed $169 $-1 #
vertex $-1 $110 $272 #
straight-curve $-1 0 26.87564713464581 9.0069958020081025 -1 0 0 I I #
coedge $-1 $111 $172 $113 $191 reversed $62 $-1 #
vertex $-1 $183 $273 #
straight-curve $-1 0 -26.87564713464581 9.0069958020081025 1 0 0 I I #
edge $-1 $116 -9.0069958020081025 $180 9.0069958020081025 $113 $274 forward 7 unknown #
edge $-1 $117 -9.0069958020081025 $179 9.0069958020081025 $114 $275 forward 7 unknown #
point $-1 55.00045777764214 -26.87564713464581 9.0069958020081025 #
point $-1 55.00045777764214 26.87564713464581 9.0069958020081025 #
face $-1 $-1 $276 $16 $-1 $277 reversed single #
loop $-1 $-1 $278 $119 #
plane-surface $-1 0 0 -9.0069958020081025 0 0 1 1 0 0 forward_v I I I I #
coedge $-1 $205 $215 $200 $279 forward $120 $-1 #
coedge $-1 $125 $122 $278 $280 reversed $70 $-1 #
coedge $-1 $122 $125 $198 $279 reversed $70 $-1 #
coedge $-1 $281 $282 $122 $202 forward $276 $-1 #
edge $-1 $283 -9.0069958020081025 $284 9.0069958020081025 $201 $285 forward 7 unknown #
coedge $-1 $278 $128 $123 $204 forward $196 $-1 #
edge $-1 $133 -22.204073025706951 $208 -17.256286440514973 $203 $286 forward 7 unknown #
coedge $-1 $130 $198 $124 $206 forward $120 $-1 #
edge $-1 $207 17.256286440514973 $132 22.204073025706951 $205 $287 forward 7 unknown #
vertex $-1 $206 $288 #
vertex $-1 $204 $289 #
straight-curve $-1 -36.986466173625935 -19.644211764886343 0 0 0 -1 I I #
coedge $-1 $282 $281 $127 $211 forward $276 $-1 #
edge $-1 $216 -9.0069958020081025 $213 9.0069958020081025 $210 $290 forward 7 unknown #
coedge $-1 $128 $278 $282 $291 forward $196 $-1 #
vertex $-1 $129 $292 #
straight-curve $-1 -41.934252758817912 -11.629964724883038 -9.0069958020081025 0 1 0 I I #
coedge $-1 $198 $130 $281 $293 forward $120 $-1 #
vertex $-1 $293 $294 #
straight-curve $-1 -41.934252758817912 -11.629964724883038 9.0069958020081025 0 -1 0 I I #
point $-1 -41.934252758817912 -19.644211764886343 9.0069958020081025 #
point $-1 -41.934252758817912 -19.644211764886343 -9.0069958020081025 #
face $-1 $-1 $295 $17 $-1 $296 reversed single #
loop $-1 $-1 $297 $135 #
plane-surface $-1 0 0 9.0069958020081025 0 0 1 1 0 0 forward_v I I I I #
coedge $-1 $138 $145 $298 $299 reversed $78 $-1 #
edge $-1 $300 -5.2534979010040512 $146 -2.2534979010040512 $138 $301 forward 7 unknown #
coedge $-1 $140 $139 $297 $302 reversed $49 $-1 #
coedge $-1 $303 $230 $140 $227 forward $295 $-1 #
edge $-1 $228 2.2534979010040512 $304 5.2534979010040512 $226 $305 forward 7 unknown #
vertex $-1 $231 $306 #
straight-curve $-1 0 17.603408541744745 6.0069958020081025 -1 0 0 I I #
coedge $-1 $226 $307 $142 $231 forward $295 $-1 #
edge $-1 $234 -15.755883215548174 $228 -6.4836446226471054 $230 $308 forward 7 unknown #
coedge $-1 $309 $143 $307 $310 reversed $136 $-1 #
coedge $-1 $143 $309 $145 $236 forward $136 $-1 #
vertex $-1 $144 $311 #
straight-curve $-1 0 26.87564713464581 6.0069958020081025 -1 0 0 I I #
edge $-1 $312 -9.0069958020081025 $147 -6.0069958020081025 $145 $313 forward 7 unknown #
point $-1 55.00045777764214 17.603408541744745 6.0069958020081025 #
point $-1 55.00045777764214 26.875647134645813 6.0069958020081025 #
loop $-1 $-1 $157 $149 #
plane-surface $-1 -55.00045777764214 0 0 1 0 0 0 0 -1 forward_v I I I I #
coedge $-1 $242 $152 $314 $315 reversed $86 $-1 #
coedge $-1 $152 $241 $245 $316 reversed $86 $-1 #
edge $-1 $317 -2.0097183471152325e-014 $246 11.09203252402634 $152 $318 forward 7 unknown #
coedge $-1 $154 $153 $249 $319 reversed $53 $-1 #
coedge $-1 $160 $155 $242 $316 forward $150 $-1 #
vertex $-1 $316 $320 #
straight-curve $-1 -47.157206453763095 6.3541957982182034 9.0069958020081025 0 1 0 I I #
coedge $-1 $314 $157 $160 $253 reversed $239 $-1 #
coedge $-1 $157 $314 $244 $319 forward $239 $-1 #
vertex $-1 $158 $321 #
straight-curve $-1 -55.00045777764214 7.8133746511280826 39.473068359760831 0 0 1 I I #
straight-curve $-1 -55.000457777642126 7.8133746511280826 1.1637442961256141 -0.70710677298230451 0 -0.70710678939079041 I I #
edge $-1 $322 -17.603408541744745 $161 -7.8133746511280826 $248 $323 forward 7 unknown #
point $-1 -55.00045777764214 7.8133746511280826 9.0069958020081025 #
point $-1 -47.157206453763095 7.8133746511280826 9.0069958020081025 #
edge $-1 $324 1 $324 0 $164 $-1 forward 7 unknown #
vertex $-1 $165 $325 #
ellipse-curve $-1 -48.945448614034063 12.708391596436414 2.9519865969036787 -0.70710678939079041 0 0.70710677298230451 0.70710677298230451 0 0.70710678939079041 1 I I #
point $-1 -50.37172534272031 12.708391596436414 5.7924768384576399 #
plane-surface $-1 55.00045777764214 0 0 -1 0 0 0 0 1 forward_v I I I I #
coedge $-1 $173 $171 $175 $265 reversed $101 $-1 #
edge $-1 $186 -9.0069958020081025 $267 9.0069958020081025 $185 $326 forward 7 unknown #
vertex $-1 $265 $327 #
straight-curve $-1 -55.00045777764214 -26.87564713464581 0 0 0 -1 I I #
edge $-1 $263 -26.87564713464581 $267 26.87564713464581 $261 $328 forward 7 unknown #
straight-curve $-1 0 -26.87564713464581 -9.0069958020081025 -1 0 0 I I #
vertex $-1 $178 $329 #
straight-curve $-1 0 26.87564713464581 -9.0069958020081025 1 0 0 I I #
point $-1 55.00045777764214 26.87564713464581 -9.0069958020081025 #
point $-1 55.00045777764214 -26.87564713464581 -9.0069958020081025 #
straight-curve $-1 -55.00045777764214 0 9.0069958020081025 0 -1 0 I I #
point $-1 -55.00045777764214 26.87564713464581 9.0069958020081025 #
point $-1 -55.00045777764214 -26.87564713464581 9.0069958020081025 #
straight-curve $-1 55.00045777764214 -26.87564713464581 0 0 0 -1 I I #
straight-curve $-1 55.00045777764214 26.87564713464581 0 0 0 -1 I I #
loop $-1 $-1 $201 $195 #
plane-surface $-1 0 -26.87564713464581 0 0 1 0 0 0 1 forward_v I I I I #
coedge $-1 $212 $203 $199 $280 forward $196 $-1 #
edge $-1 $284 -15.245682409762772 $207 -8.0142470400033048 $198 $330 forward 7 unknown #
edge $-1 $208 8.0142470400033048 $283 15.245682409762772 $278 $331 forward 7 unknown #
coedge $-1 $210 $201 $215 $293 reversed $276 $-1 #
coedge $-1 $201 $210 $212 $291 reversed $276 $-1 #
vertex $-1 $291 $332 #
vertex $-1 $202 $333 #
straight-curve $-1 -36.986466173625935 -26.87564713464581 0 0 0 1 I I #
straight-curve $-1 -19.730179733110962 -19.644211764886343 -9.0069958020081025 1 0 0 I I #
straight-curve $-1 -19.730179733110962 -19.644211764886343 9.0069958020081025 -1 0 0 I I #
point $-1 -36.986466173625935 -19.644211764886343 9.0069958020081025 #
point $-1 -36.986466173625935 -19.644211764886343 -9.0069958020081025 #
straight-curve $-1 -41.934252758817912 -26.87564713464581 0 0 0 -1 I I #
edge $-1 $283 36.986466173625935 $213 41.934252758817912 $282 $334 forward 7 unknown #
point $-1 -41.934252758817912 -26.87564713464581 -9.0069958020081025 #
edge $-1 $216 -41.934252758817912 $284 -36.986466173625935 $281 $335 forward 7 unknown #
point $-1 -41.934252758817912 -26.87564713464581 9.0069958020081025 #
loop $-1 $-1 $226 $220 #
plane-surface $-1 -55.00045777764214 0 0 1 0 0 0 0 -1 forward_v I I I I #
coedge $-1 $298 $336 $225 $302 forward $221 $-1 #
coedge $-1 $337 $297 $223 $299 forward $221 $-1 #
edge $-1 $300 17.603408541744745 $312 26.87564713464581 $223 $338 forward 7 unknown #
vertex $-1 $299 $339 #
straight-curve $-1 55.00045777764214 17.603408541744745 3.7534979010040512 0 0 -1 I I #
edge $-1 $304 -55.00045777764214 $300 55.00045777764214 $297 $340 forward 7 unknown #
coedge $-1 $307 $226 $336 $341 reversed $295 $-1 #
vertex $-1 $227 $342 #
straight-curve $-1 -55.00045777764214 17.603408541744745 3.7534979010040512 0 0 1 I I #
point $-1 -55.00045777764214 17.603408541744745 6.0069958020081025 #
coedge $-1 $230 $303 $232 $310 forward $295 $-1 #
straight-curve $-1 -55.00045777764214 11.11976391909764 6.0069958020081025 0 -1 0 I I #
coedge $-1 $233 $232 $337 $343 reversed $136 $-1 #
edge $-1 $344 -9.0069958020081025 $234 -6.0069958020081025 $232 $345 forward 7 unknown #
point $-1 -55.00045777764214 26.875647134645813 6.0069958020081025 #
vertex $-1 $299 $346 #
straight-curve $-1 55.00045777764214 26.87564713464581 0 0 0 -1 I I #
coedge $-1 $249 $248 $241 $315 forward $239 $-1 #
edge $-1 $322 30.466072557752728 $317 38.309324063635231 $314 $347 forward 7 unknown #
edge $-1 $246 47.157206453763095 $322 55.00045777764214 $245 $348 forward 7 unknown #
vertex $-1 $315 $349 #
straight-curve $-1 -55.000457777642126 17.603408541744731 1.1637442961256141 0.70710677298230451 0 0.70710678939079041 I I #
edge $-1 $317 -11.249212743526527 $250 -1.4591788529098793 $249 $350 forward 7 unknown #
point $-1 -47.157206453763095 17.603408541744745 9.0069958020081025 #
point $-1 -55.00045777764214 7.8133746511280826 1.1637442961255999 #
vertex $-1 $253 $351 #
straight-curve $-1 -55.00045777764214 0 9.0069958020081025 0 -1 0 I I #
vertex $-1 $256 $352 #
point $-1 -48.238341841051756 12.708391596436414 3.6590933862944692 #
straight-curve $-1 -55.00045777764214 26.87564713464581 0 0 0 -1 I I #
point $-1 -55.00045777764214 -26.87564713464581 -9.0069958020081025 #
straight-curve $-1 -55.00045777764214 0 -9.0069958020081025 0 1 0 I I #
point $-1 -55.00045777764214 26.87564713464581 -9.0069958020081025 #
straight-curve $-1 -36.986466173625935 -11.629964724883038 9.0069958020081025 0 1 0 I I #
straight-curve $-1 -36.986466173625935 -11.629964724883038 -9.0069958020081025 0 -1 0 I I #
point $-1 -36.986466173625935 -26.87564713464581 -9.0069958020081025 #
point $-1 -36.986466173625935 -26.87564713464581 9.0069958020081025 #
straight-curve $-1 0 -26.87564713464581 -9.0069958020081025 -1 0 0 I I #
straight-curve $-1 0 -26.87564713464581 9.0069958020081025 1 0 0 I I #
coedge $-1 $297 $337 $303 $341 forward $221 $-1 #
coedge $-1 $336 $298 $309 $343 forward $221 $-1 #
straight-curve $-1 55.00045777764214 0 9.0069958020081025 0 1 0 I I #
point $-1 55.00045777764214 17.603408541744745 9.0069958020081025 #
straight-curve $-1 0 17.603408541744745 9.0069958020081025 1 0 0 I I #
edge $-1 $344 -26.87564713464581 $304 -17.603408541744745 $303 $353 forward 7 unknown #
point $-1 -55.00045777764214 17.603408541744745 9.0069958020081025 #
edge $-1 $312 -55.00045777764214 $344 55.00045777764214 $309 $354 forward 7 unknown #
vertex $-1 $343 $355 #
straight-curve $-1 -55.00045777764214 26.87564713464581 0 0 0 -1 I I #
point $-1 55.00045777764214 26.87564713464581 9.0069958020081025 #
straight-curve $-1 -55.00045777764214 17.603408541744731 39.473068359760831 0 0 -1 I I #
straight-curve $-1 0 17.603408541744745 9.0069958020081025 -1 0 0 I I #
point $-1 -55.00045777764214 17.603408541744731 1.1637442961255999 #
straight-curve $-1 -55.00045777764214 6.3541957982182034 1.1637442961255999 0 -1 0 I I #
point $-1 -55.00045777764214 17.603408541744745 9.0069958020081025 #
point $-1 -48.238341824643271 12.708391596436414 2.2448798239213743 #
straight-curve $-1 -55.00045777764214 0 9.0069958020081025 0 -1 0 I I #
straight-curve $-1 0 26.87564713464581 9.0069958020081025 -1 0 0 I I #
point $-1 -55.00045777764214 26.87564713464581 9.0069958020081025 #
End-of-ACIS-data 