500 0 8 0           
7 Unknown 11 ACIS 5.0 NT 24 Thu Mar 25 15:09:56 1999 
-1 9.9999999999999995e-007 1e-010 
body $-1 $8 $-1 $9 #
body $-1 $10 $-1 $11 #
body $-1 $12 $-1 $13 #
body $-1 $14 $-1 $15 #
body $-1 $16 $-1 $17 #
body $-1 $18 $-1 $19 #
body $-1 $20 $-1 $21 #
body $-1 $22 $-1 $23 #
lump $-1 $-1 $24 $0 #
transform $-1 1 0 0 0 1 0 0 0 1 54.47065645313883 33.492463481234608 13.948736599109354 1 rotate no_reflect no_shear #
lump $-1 $-1 $25 $1 #
transform $-1 1 0 0 0 1 0 0 0 1 54.47065645313883 33.492463481234608 13.948736599109354 1 rotate no_reflect no_shear #
lump $-1 $-1 $26 $2 #
transform $-1 1 0 0 0 1 0 0 0 1 54.47065645313883 33.492463481234608 13.948736599109354 1 rotate no_reflect no_shear #
lump $-1 $-1 $27 $3 #
transform $-1 1 0 0 0 1 0 0 0 1 54.47065645313883 33.492463481234608 13.948736599109354 1 rotate no_reflect no_shear #
lump $-1 $-1 $28 $4 #
transform $-1 1 0 0 0 1 0 0 0 1 54.47065645313883 33.492463481234608 13.948736599109354 1 rotate no_reflect no_shear #
lump $-1 $-1 $29 $5 #
transform $-1 1 0 0 0 1 0 0 0 1 54.47065645313883 33.492463481234608 13.948736599109354 1 rotate no_reflect no_shear #
lump $-1 $-1 $30 $6 #
transform $-1 1 0 0 0 1 0 0 0 1 54.47065645313883 33.492463481234608 13.948736599109354 1 rotate no_reflect no_shear #
lump $-1 $-1 $31 $7 #
transform $-1 1 0 0 0 1 0 0 0 1 54.47065645313883 33.492463481234608 13.948736599109354 1 rotate no_reflect no_shear #
shell $-1 $-1 $-1 $32 $-1 $8 #
shell $-1 $-1 $-1 $33 $-1 $10 #
shell $-1 $-1 $-1 $34 $-1 $12 #
shell $-1 $-1 $-1 $35 $-1 $14 #
shell $-1 $-1 $-1 $36 $-1 $16 #
shell $-1 $-1 $-1 $37 $-1 $18 #
shell $-1 $-1 $-1 $38 $-1 $20 #
shell $-1 $-1 $-1 $39 $-1 $22 #
face $-1 $40 $41 $24 $-1 $42 forward single #
face $-1 $43 $44 $25 $-1 $45 forward single #
face $-1 $46 $47 $26 $-1 $48 forward single #
face $-1 $49 $50 $27 $-1 $51 reversed single #
face $-1 $52 $53 $28 $-1 $54 forward single #
face $-1 $55 $56 $29 $-1 $57 forward single #
face $-1 $58 $59 $30 $-1 $60 reversed single #
face $-1 $61 $62 $31 $-1 $63 forward single #
face $-1 $64 $65 $24 $-1 $66 reversed single #
loop $-1 $-1 $67 $32 #
plane-surface $-1 0 0 13.948736599109354 0 0 1 1 0 0 forward_v I I I I #
face $-1 $68 $69 $25 $-1 $70 reversed single #
loop $-1 $-1 $71 $33 #
plane-surface $-1 -45.776396628338581 0 -10.448760325097169 0 0 1 1 0 0 forward_v I I I I #
face $-1 $72 $73 $26 $-1 $74 reversed single #
loop $-1 $-1 $75 $34 #
plane-surface $-1 45.776396628338588 0 -10.448760325097169 0 0 1 1 0 0 forward_v I I I I #
face $-1 $76 $77 $27 $-1 $78 reversed single #
loop $-1 $-1 $79 $35 #
plane-surface $-1 -34.265655804503439 -99.054983060151812 95.662947431987945 1 0 0 0 0.6018150307709319 -0.79863550430605224 forward_v I I I I #
face $-1 $80 $81 $28 $-1 $82 forward single #
loop $-1 $83 $84 $36 #
cone-surface $-1 -28.244216108314561 -29.681396718436762 10.90432407706138 0 0.6018150307709319 -0.79863550430605224 0.5 0 0 1 I I 0 1 0.5 forward I I I I #
face $-1 $85 $86 $29 $-1 $87 forward single #
loop $-1 $88 $89 $37 #
cone-surface $-1 -19.212056564031251 -29.681396718436762 10.90432407706138 0 0.6018150307709319 -0.79863550430605224 0.5 0 0 1 I I 0 1 0.5 forward I I I I #
face $-1 $90 $91 $30 $-1 $92 reversed single #
loop $-1 $-1 $93 $38 #
plane-surface $-1 -19.83995052589664 36.647869364186619 135.0328039769706 -1 0 0 0 0.54463904215088732 0.83867056331134215 forward_v I I I I #
face $-1 $94 $95 $31 $-1 $96 forward single #
loop $-1 $97 $98 $39 #
cone-surface $-1 -25.163314377032357 26.699435918001296 8.1260180160006268 0 -0.54463904215088732 -0.83867056331134215 1.5 0 0 1 I I 0 1 1.5 forward I I I I #
face $-1 $99 $100 $24 $-1 $101 reversed single #
loop $-1 $-1 $102 $40 #
plane-surface $-1 0 0 -13.948736599109354 0 0 1 1 0 0 forward_v I I I I #
coedge $-1 $103 $104 $105 $106 forward $41 $-1 #
face $-1 $107 $108 $25 $-1 $109 reversed single #
loop $-1 $-1 $110 $43 #
plane-surface $-1 -37.082136803538333 0 -12.198748462103261 -1 0 0 0 0 1 forward_v I I I I #
coedge $-1 $111 $112 $113 $114 forward $44 $-1 #
face $-1 $115 $116 $26 $-1 $117 reversed single #
loop $-1 $-1 $118 $46 #
plane-surface $-1 37.08213680353834 0 -12.198748462103261 1 0 0 0 0 -1 forward_v I I I I #
coedge $-1 $119 $120 $121 $122 reversed $47 $-1 #
face $-1 $123 $124 $27 $-1 $125 reversed single #
loop $-1 $-1 $126 $49 #
plane-surface $-1 -23.728136336172909 -33.492463481234608 8.6585470593194458 0 -0.6018150307709319 0.79863550430605224 1 0 0 forward_v I I I I #
coedge $-1 $127 $128 $129 $130 reversed $50 $-1 #
face $-1 $-1 $131 $28 $-1 $132 forward single #
loop $-1 $133 $134 $52 #
cone-surface $-1 -28.244216108314561 -29.230035445358563 10.30534744883184 0 0.6018150307709319 -0.79863550430605224 0.25 0 0 1 I I -0.70710678118654746 0.70710678118654746 0.25 forward I I I I #
loop $-1 $-1 $135 $36 #
coedge $-1 $84 $84 $136 $137 reversed $53 $-1 #
face $-1 $-1 $138 $29 $-1 $139 forward single #
loop $-1 $140 $141 $55 #
cone-surface $-1 -19.212056564031251 -29.230035445358563 10.30534744883184 0 0.6018150307709319 -0.79863550430605224 0.25 0 0 1 I I -0.70710678118654746 0.70710678118654746 0.25 forward I I I I #
loop $-1 $-1 $142 $37 #
coedge $-1 $89 $89 $143 $144 reversed $56 $-1 #
face $-1 $145 $146 $30 $-1 $147 reversed single #
loop $-1 $-1 $148 $58 #
plane-surface $-1 -25.163314377032357 -22.685822947748541 43.66693171398552 0 0.54463904215088732 0.83867056331134215 1 0 0 forward_v I I I I #
coedge $-1 $149 $150 $151 $152 reversed $59 $-1 #
face $-1 $-1 $153 $31 $-1 $154 forward single #
loop $-1 $155 $156 $61 #
cone-surface $-1 -25.163314377032357 24.706068991260722 5.0565021826634986 0 -0.54463904215088732 -0.83867056331134215 0.75 0 0 1 I I -0.70710678118654757 0.70710678118654757 0.75 forward I I I I #
loop $-1 $-1 $157 $39 #
coedge $-1 $98 $98 $158 $159 reversed $62 $-1 #
face $-1 $160 $161 $24 $-1 $162 reversed single #
loop $-1 $-1 $163 $64 #
plane-surface $-1 0 -33.492463481234608 0 0 1 0 0 0 1 forward_v I I I I #
coedge $-1 $164 $165 $166 $167 forward $65 $-1 #
coedge $-1 $168 $67 $169 $170 forward $41 $-1 #
coedge $-1 $67 $168 $171 $172 forward $41 $-1 #
coedge $-1 $173 $174 $67 $106 reversed $175 $-1 #
edge $-1 $176 -33.492463481234608 $177 33.492463481234608 $105 $178 forward 7 unknown #
face $-1 $179 $180 $25 $-1 $181 reversed single #
loop $-1 $-1 $182 $68 #
plane-surface $-1 0 0 -13.948736599109354 0 0 1 1 0 0 forward_v I I I I #
coedge $-1 $183 $113 $184 $185 reversed $69 $-1 #
coedge $-1 $186 $71 $187 $188 reversed $44 $-1 #
coedge $-1 $71 $186 $189 $190 reversed $44 $-1 #
coedge $-1 $110 $191 $71 $114 reversed $69 $-1 #
edge $-1 $192 -33.492463481234608 $193 33.492463481234608 $113 $194 forward 7 unknown #
face $-1 $195 $196 $26 $-1 $197 reversed single #
loop $-1 $-1 $198 $72 #
plane-surface $-1 0 -33.492463481234608 0 0 1 0 0 0 1 forward_v I I I I #
coedge $-1 $199 $200 $201 $202 reversed $73 $-1 #
coedge $-1 $203 $75 $204 $205 reversed $47 $-1 #
coedge $-1 $75 $203 $198 $206 reversed $47 $-1 #
coedge $-1 $207 $208 $75 $122 forward $209 $-1 #
edge $-1 $210 -33.492463481234608 $211 33.492463481234608 $121 $212 forward 7 unknown #
face $-1 $213 $214 $27 $-1 $215 forward single #
loop $-1 $-1 $216 $76 #
plane-surface $-1 -13.190616867842381 -99.054983060151812 95.662947431987945 -1 0 0 0 -0.6018150307709319 0.79863550430605224 forward_v I I I I #
coedge $-1 $217 $218 $219 $220 reversed $77 $-1 #
coedge $-1 $128 $79 $221 $222 reversed $50 $-1 #
coedge $-1 $79 $127 $217 $223 reversed $50 $-1 #
coedge $-1 $219 $224 $79 $130 forward $225 $-1 #
edge $-1 $226 33.88273711688462 $227 39.172926656674527 $129 $228 forward 7 unknown #
loop $-1 $-1 $136 $80 #
plane-surface $-1 -23.728136336172909 -33.492463481234608 8.6585470593194458 0 -0.6018150307709319 0.79863550430605224 1 0 0 forward_v I I I I #
loop $-1 $-1 $229 $52 #
coedge $-1 $134 $134 $135 $230 reversed $81 $-1 #
coedge $-1 $135 $135 $134 $230 forward $83 $-1 #
coedge $-1 $136 $136 $84 $137 forward $131 $-1 #
edge $-1 $231 2.8776594066628411e-015 $231 6.2831853071796031 $136 $232 forward 7 unknown #
loop $-1 $-1 $143 $85 #
plane-surface $-1 -23.728136336172909 -33.492463481234608 8.6585470593194458 0 -0.6018150307709319 0.79863550430605224 1 0 0 forward_v I I I I #
loop $-1 $-1 $233 $55 #
coedge $-1 $141 $141 $142 $234 reversed $86 $-1 #
coedge $-1 $142 $142 $141 $234 forward $88 $-1 #
coedge $-1 $143 $143 $89 $144 forward $138 $-1 #
edge $-1 $235 2.8776594066628411e-015 $235 6.2831853071796031 $143 $236 forward 7 unknown #
face $-1 $237 $238 $30 $-1 $239 reversed single #
loop $-1 $-1 $240 $90 #
plane-surface $-1 -30.486678228168074 36.647869364186619 135.0328039769706 1 0 0 0 -0.54463904215088732 -0.83867056331134215 forward_v I I I I #
coedge $-1 $241 $242 $243 $244 reversed $91 $-1 #
coedge $-1 $150 $93 $245 $246 reversed $59 $-1 #
coedge $-1 $93 $149 $241 $247 reversed $59 $-1 #
coedge $-1 $243 $248 $93 $152 forward $238 $-1 #
edge $-1 $249 53.567665389375946 $250 60.332076733886147 $151 $251 forward 7 unknown #
loop $-1 $-1 $158 $94 #
plane-surface $-1 -25.163314377032357 -22.685822947748541 43.66693171398552 0 0.54463904215088732 0.83867056331134215 1 0 0 forward_v I I I I #
loop $-1 $-1 $252 $61 #
coedge $-1 $156 $156 $157 $253 reversed $95 $-1 #
coedge $-1 $157 $157 $156 $253 forward $97 $-1 #
coedge $-1 $158 $158 $98 $159 forward $153 $-1 #
edge $-1 $254 6.4498219168608663e-016 $254 6.2831853071796013 $158 $255 forward 7 unknown #
face $-1 $256 $257 $24 $-1 $258 reversed single #
loop $-1 $-1 $259 $99 #
plane-surface $-1 -54.47065645313883 0 0 1 0 0 0 0 -1 forward_v I I I I #
coedge $-1 $260 $171 $261 $262 forward $100 $-1 #
coedge $-1 $263 $102 $260 $264 forward $65 $-1 #
coedge $-1 $102 $263 $265 $266 forward $65 $-1 #
coedge $-1 $174 $173 $102 $167 reversed $175 $-1 #
edge $-1 $267 -33.492463481234608 $268 33.492463481234608 $166 $269 forward 7 unknown #
coedge $-1 $104 $103 $270 $271 forward $41 $-1 #
coedge $-1 $272 $273 $103 $170 reversed $257 $-1 #
edge $-1 $177 -54.47065645313883 $274 54.47065645313883 $169 $275 forward 7 unknown #
coedge $-1 $163 $276 $104 $172 reversed $100 $-1 #
edge $-1 $277 -54.47065645313883 $176 54.47065645313883 $171 $278 forward 7 unknown #
coedge $-1 $166 $105 $276 $279 forward $175 $-1 #
coedge $-1 $105 $166 $272 $280 reversed $175 $-1 #
loop $-1 $-1 $173 $256 #
vertex $-1 $106 $281 #
vertex $-1 $106 $282 #
straight-curve $-1 54.47065645313883 0 13.948736599109354 0 1 0 I I #
face $-1 $283 $284 $25 $-1 $285 reversed single #
loop $-1 $-1 $184 $107 #
plane-surface $-1 0 -33.492463481234608 0 0 1 0 0 0 1 forward_v I I I I #
coedge $-1 $286 $287 $183 $288 forward $108 $-1 #
coedge $-1 $191 $110 $182 $288 reversed $69 $-1 #
coedge $-1 $189 $289 $110 $185 forward $180 $-1 #
edge $-1 $290 -7.8493623680577223 $192 -4.3493860940455384 $184 $291 forward 7 unknown #
coedge $-1 $112 $111 $292 $293 reversed $44 $-1 #
coedge $-1 $294 $295 $111 $188 forward $296 $-1 #
edge $-1 $297 -31.582458138969539 $193 -14.193938489369042 $187 $298 forward 7 unknown #
coedge $-1 $299 $184 $112 $190 forward $180 $-1 #
edge $-1 $192 14.193938489369042 $300 31.582458138969539 $189 $301 forward 7 unknown #
coedge $-1 $113 $183 $294 $302 reversed $69 $-1 #
vertex $-1 $190 $303 #
vertex $-1 $188 $304 #
straight-curve $-1 -37.082136803538333 0 -10.448760325097169 0 1 0 I I #
face $-1 $305 $306 $26 $-1 $307 reversed single #
loop $-1 $-1 $308 $115 #
plane-surface $-1 0 0 -13.948736599109354 0 0 1 1 0 0 forward_v I I I I #
coedge $-1 $309 $310 $120 $206 forward $116 $-1 #
coedge $-1 $311 $118 $308 $312 reversed $73 $-1 #
coedge $-1 $118 $311 $203 $313 reversed $73 $-1 #
coedge $-1 $204 $314 $118 $202 forward $306 $-1 #
edge $-1 $315 -7.8493623680577223 $316 -4.3493860940455384 $201 $317 forward 7 unknown #
coedge $-1 $120 $119 $200 $313 forward $47 $-1 #
coedge $-1 $318 $201 $119 $205 forward $306 $-1 #
edge $-1 $316 14.193938489369046 $210 31.582458138969542 $204 $319 forward 7 unknown #
edge $-1 $211 -31.582458138969542 $320 -14.193938489369046 $198 $321 forward 7 unknown #
coedge $-1 $322 $121 $310 $323 forward $209 $-1 #
coedge $-1 $121 $322 $318 $324 reversed $209 $-1 #
loop $-1 $-1 $121 $305 #
vertex $-1 $324 $325 #
vertex $-1 $323 $326 #
straight-curve $-1 54.47065645313883 0 -10.448760325097169 0 -1 0 I I #
face $-1 $-1 $225 $27 $-1 $327 reversed single #
loop $-1 $-1 $328 $123 #
plane-surface $-1 0 0 13.948736599109354 0 0 1 1 0 0 forward_v I I I I #
coedge $-1 $329 $330 $331 $332 reversed $124 $-1 #
coedge $-1 $333 $126 $128 $223 forward $77 $-1 #
coedge $-1 $126 $333 $329 $334 forward $77 $-1 #
coedge $-1 $331 $129 $126 $220 forward $225 $-1 #
edge $-1 $227 -22.401587636416984 $335 -1.3265486997559268 $219 $336 forward 7 unknown #
coedge $-1 $337 $338 $127 $222 forward $214 $-1 #
edge $-1 $339 -23.055346543666076 $226 -16.035028048841298 $221 $340 forward 7 unknown #
edge $-1 $227 0 $339 8.7903911821762186 $128 $341 forward 7 unknown #
coedge $-1 $129 $331 $337 $342 reversed $225 $-1 #
loop $-1 $-1 $331 $213 #
vertex $-1 $342 $343 #
vertex $-1 $130 $344 #
straight-curve $-1 -34.265655804503439 -33.492463481234608 47.831473715993972 0 0 -1 I I #
coedge $-1 $229 $229 $-1 $345 reversed $133 $-1 #
edge $-1 $346 0 $346 6.2831853071796004 $134 $347 forward 7 unknown #
vertex $-1 $137 $348 #
ellipse-curve $-1 -28.244216108314561 -29.982304233822223 11.303641829214399 0 -0.6018150307709319 0.79863550430605224 0.5 0 0 1 I I #
coedge $-1 $233 $233 $-1 $349 reversed $140 $-1 #
edge $-1 $350 0 $350 6.2831853071796004 $141 $351 forward 7 unknown #
vertex $-1 $144 $352 #
ellipse-curve $-1 -19.212056564031251 -29.982304233822223 11.303641829214399 0 -0.6018150307709319 0.79863550430605224 0.5 0 0 1 I I #
face $-1 $-1 $353 $30 $-1 $354 forward single #
loop $-1 $-1 $151 $145 #
plane-surface $-1 0 33.492463481234608 0 0 -1 0 0 0 -1 forward_v I I I I #
coedge $-1 $355 $356 $357 $358 reversed $146 $-1 #
coedge $-1 $359 $148 $150 $247 forward $91 $-1 #
coedge $-1 $148 $359 $355 $360 forward $91 $-1 #
coedge $-1 $357 $151 $148 $244 forward $238 $-1 #
edge $-1 $250 7.2582933373804615 $361 17.905021039651896 $243 $362 forward 7 unknown #
coedge $-1 $363 $364 $149 $246 forward $353 $-1 #
edge $-1 $365 4.7522489629294853 $249 15.168528799141299 $245 $366 forward 7 unknown #
edge $-1 $250 -66.984926962469189 $365 -54.564937169236231 $150 $367 forward 7 unknown #
coedge $-1 $151 $357 $363 $368 reversed $238 $-1 #
vertex $-1 $368 $369 #
vertex $-1 $152 $370 #
straight-curve $-1 -19.83995052589664 33.492463481234608 67.516401988485299 0 0 -1 I I #
coedge $-1 $252 $252 $-1 $371 reversed $155 $-1 #
edge $-1 $372 0 $372 6.2831853071796004 $156 $373 forward 7 unknown #
vertex $-1 $159 $374 #
ellipse-curve $-1 -25.163314377032357 28.284323563128705 10.56653092685425 0 0.54463904215088732 0.83867056331134215 1.5 0 0 1 I I #
face $-1 $-1 $175 $24 $-1 $375 reversed single #
loop $-1 $-1 $272 $160 #
plane-surface $-1 0 33.492463481234608 0 0 -1 0 0 0 -1 forward_v I I I I #
coedge $-1 $376 $270 $273 $377 forward $161 $-1 #
coedge $-1 $276 $163 $164 $264 reversed $100 $-1 #
coedge $-1 $270 $376 $163 $262 reversed $161 $-1 #
edge $-1 $277 -13.948736599109354 $378 13.948736599109354 $261 $379 forward 7 unknown #
coedge $-1 $165 $164 $376 $380 forward $65 $-1 #
edge $-1 $268 -54.47065645313883 $378 54.47065645313883 $260 $381 forward 7 unknown #
coedge $-1 $273 $272 $165 $266 reversed $257 $-1 #
edge $-1 $382 -54.47065645313883 $267 54.47065645313883 $265 $383 forward 7 unknown #
vertex $-1 $167 $384 #
vertex $-1 $279 $385 #
straight-curve $-1 54.47065645313883 0 -13.948736599109354 0 -1 0 I I #
coedge $-1 $259 $261 $168 $271 reversed $161 $-1 #
edge $-1 $274 -33.492463481234608 $277 33.492463481234608 $270 $386 forward 7 unknown #
coedge $-1 $265 $169 $174 $280 forward $257 $-1 #
coedge $-1 $169 $265 $259 $377 reversed $257 $-1 #
vertex $-1 $170 $387 #
straight-curve $-1 0 33.492463481234608 13.948736599109354 -1 0 0 I I #
coedge $-1 $171 $260 $173 $279 reversed $100 $-1 #
vertex $-1 $271 $388 #
straight-curve $-1 0 -33.492463481234608 13.948736599109354 1 0 0 I I #
edge $-1 $176 -13.948736599109354 $268 13.948736599109354 $173 $389 forward 7 unknown #
edge $-1 $177 -13.948736599109354 $267 13.948736599109354 $174 $390 forward 7 unknown #
point $-1 54.47065645313883 -33.492463481234608 13.948736599109354 #
point $-1 54.47065645313883 33.492463481234608 13.948736599109354 #
face $-1 $-1 $296 $25 $-1 $391 reversed single #
loop $-1 $-1 $292 $179 #
plane-surface $-1 -54.47065645313883 0 0 1 0 0 0 0 -1 forward_v I I I I #
coedge $-1 $392 $182 $289 $393 forward $108 $-1 #
coedge $-1 $182 $392 $394 $395 forward $108 $-1 #
edge $-1 $396 -33.492463481234608 $290 33.492463481234608 $182 $397 forward 7 unknown #
coedge $-1 $184 $299 $286 $393 reversed $180 $-1 #
vertex $-1 $393 $398 #
straight-curve $-1 -37.082136803538333 -33.492463481234608 -6.0993742310516303 0 0 1 I I #
coedge $-1 $399 $400 $186 $293 forward $284 $-1 #
edge $-1 $300 -33.492463481234608 $297 33.492463481234608 $292 $401 forward 7 unknown #
coedge $-1 $394 $187 $191 $302 forward $296 $-1 #
coedge $-1 $187 $394 $399 $402 reversed $296 $-1 #
loop $-1 $-1 $294 $283 #
vertex $-1 $402 $403 #
straight-curve $-1 -22.888198314169291 33.492463481234608 -10.448760325097169 1 0 0 I I #
coedge $-1 $289 $189 $400 $404 forward $180 $-1 #
vertex $-1 $404 $405 #
straight-curve $-1 -22.888198314169291 -33.492463481234608 -10.448760325097169 -1 0 0 I I #
edge $-1 $193 4.3493860940455384 $396 7.8493623680577223 $294 $406 forward 7 unknown #
point $-1 -37.082136803538333 -33.492463481234608 -10.448760325097169 #
point $-1 -37.082136803538333 33.492463481234608 -10.448760325097169 #
face $-1 $-1 $209 $26 $-1 $407 reversed single #
loop $-1 $-1 $204 $195 #
plane-surface $-1 0 33.492463481234608 0 0 -1 0 0 0 -1 forward_v I I I I #
coedge $-1 $408 $409 $199 $312 forward $196 $-1 #
coedge $-1 $410 $198 $311 $411 forward $116 $-1 #
coedge $-1 $198 $410 $207 $323 reversed $116 $-1 #
coedge $-1 $200 $199 $309 $411 reversed $73 $-1 #
edge $-1 $412 -33.492463481234608 $315 33.492463481234608 $308 $413 forward 7 unknown #
edge $-1 $316 -33.492463481234608 $320 33.492463481234608 $200 $414 forward 7 unknown #
coedge $-1 $201 $318 $408 $415 reversed $306 $-1 #
vertex $-1 $415 $416 #
vertex $-1 $205 $417 #
straight-curve $-1 37.08213680353834 33.492463481234608 -6.0993742310516303 0 0 1 I I #
coedge $-1 $314 $204 $208 $324 forward $306 $-1 #
straight-curve $-1 22.888198314169294 33.492463481234608 -10.448760325097169 1 0 0 I I #
vertex $-1 $206 $418 #
straight-curve $-1 22.888198314169294 -33.492463481234608 -10.448760325097169 -1 0 0 I I #
coedge $-1 $208 $207 $419 $420 reversed $209 $-1 #
edge $-1 $211 10.448760325097169 $421 13.948736599109354 $207 $422 forward 7 unknown #
edge $-1 $210 10.448760325097169 $423 13.948736599109354 $208 $424 forward 7 unknown #
point $-1 54.470656453138837 33.492463481234608 -10.448760325097169 #
point $-1 54.470656453138837 -33.492463481234608 -10.448760325097169 #
plane-surface $-1 0 -33.492463481234608 0 0 1 0 0 0 1 forward_v I I I I #
coedge $-1 $338 $337 $330 $425 forward $214 $-1 #
coedge $-1 $330 $216 $218 $334 reversed $124 $-1 #
coedge $-1 $216 $329 $328 $425 reversed $124 $-1 #
coedge $-1 $224 $219 $216 $332 forward $225 $-1 #
edge $-1 $335 -39.172926656674527 $426 -33.88273711688462 $331 $427 forward 7 unknown #
coedge $-1 $218 $217 $338 $428 reversed $77 $-1 #
edge $-1 $429 -8.7903911821762186 $335 0 $329 $430 forward 7 unknown #
vertex $-1 $220 $431 #
straight-curve $-1 -11.864068168086455 -33.492463481234608 8.6585470593194458 1 0 0 I I #
coedge $-1 $328 $221 $224 $342 forward $214 $-1 #
coedge $-1 $221 $328 $333 $428 forward $214 $-1 #
vertex $-1 $222 $432 #
straight-curve $-1 -34.265655804503439 -49.527491530075906 13.948736599109353 0 -1 0 I I #
straight-curve $-1 -34.265655804503439 -33.492463481234608 8.6585470593194458 0 0.79863550430605224 0.6018150307709319 I I #
edge $-1 $226 -34.265655804503439 $426 -13.190616867842381 $224 $433 forward 7 unknown #
point $-1 -34.265655804503439 -33.492463481234608 13.948736599109354 #
point $-1 -34.265655804503439 -33.492463481234608 8.6585470593194458 #
edge $-1 $434 1 $434 0 $229 $-1 forward 7 unknown #
vertex $-1 $230 $435 #
ellipse-curve $-1 -28.244216108314561 -29.380489203051297 10.505006324908354 0 -0.6018150307709319 0.79863550430605224 0.5 0 0 1 I I #
point $-1 -27.744216108314561 -29.982304233822227 11.303641829214406 #
edge $-1 $436 1 $436 0 $233 $-1 forward 7 unknown #
vertex $-1 $234 $437 #
ellipse-curve $-1 -19.212056564031251 -29.380489203051297 10.505006324908354 0 -0.6018150307709319 0.79863550430605224 0.5 0 0 1 I I #
point $-1 -18.712056564031251 -29.982304233822227 11.303641829214406 #
loop $-1 $-1 $245 $237 #
plane-surface $-1 0 0 13.948736599109354 0 0 1 1 0 0 forward_v I I I I #
coedge $-1 $356 $240 $242 $360 reversed $146 $-1 #
coedge $-1 $240 $355 $438 $439 reversed $146 $-1 #
coedge $-1 $248 $243 $240 $358 forward $238 $-1 #
edge $-1 $361 -60.332076733886147 $440 -53.567665389375946 $357 $441 forward 7 unknown #
coedge $-1 $242 $241 $364 $442 reversed $91 $-1 #
edge $-1 $443 54.564937169236231 $361 66.984926962469189 $355 $444 forward 7 unknown #
vertex $-1 $244 $445 #
straight-curve $-1 -12.581657188516179 33.492463481234608 7.1843252545991518 -1 0 0 I I #
coedge $-1 $438 $245 $248 $368 forward $353 $-1 #
coedge $-1 $245 $438 $359 $442 forward $353 $-1 #
vertex $-1 $246 $446 #
straight-curve $-1 -19.83995052589664 18.323934682093309 13.948736599109353 0 1 0 I I #
straight-curve $-1 -19.83995052589664 -22.685822947748541 43.66693171398552 0 -0.83867056331134215 0.54463904215088732 I I #
edge $-1 $249 19.83995052589664 $440 30.486678228168074 $248 $447 forward 7 unknown #
point $-1 -19.83995052589664 33.492463481234608 13.948736599109354 #
point $-1 -19.83995052589664 33.492463481234601 7.1843252545991518 #
edge $-1 $448 1 $448 0 $252 $-1 forward 7 unknown #
vertex $-1 $253 $449 #
ellipse-curve $-1 -25.163314377032357 25.114548272873886 5.6855051051470049 0 0.54463904215088732 0.83867056331134215 1.5 0 0 1 I I #
point $-1 -23.663314377032357 28.284323563128705 10.566530926854249 #
plane-surface $-1 54.47065645313883 0 0 -1 0 0 0 0 1 forward_v I I I I #
coedge $-1 $261 $259 $263 $380 reversed $161 $-1 #
edge $-1 $274 -13.948736599109354 $382 13.948736599109354 $273 $450 forward 7 unknown #
vertex $-1 $380 $451 #
straight-curve $-1 -54.47065645313883 -33.492463481234608 0 0 0 -1 I I #
edge $-1 $378 -33.492463481234608 $382 33.492463481234608 $376 $452 forward 7 unknown #
straight-curve $-1 0 -33.492463481234608 -13.948736599109354 -1 0 0 I I #
vertex $-1 $266 $453 #
straight-curve $-1 0 33.492463481234608 -13.948736599109354 1 0 0 I I #
point $-1 54.47065645313883 33.492463481234608 -13.948736599109354 #
point $-1 54.47065645313883 -33.492463481234608 -13.948736599109354 #
straight-curve $-1 -54.47065645313883 0 13.948736599109354 0 -1 0 I I #
point $-1 -54.47065645313883 33.492463481234608 13.948736599109354 #
point $-1 -54.47065645313883 -33.492463481234608 13.948736599109354 #
straight-curve $-1 54.47065645313883 -33.492463481234608 0 0 0 -1 I I #
straight-curve $-1 54.47065645313883 33.492463481234608 0 0 0 -1 I I #
plane-surface $-1 0 33.492463481234608 0 0 -1 0 0 0 -1 forward_v I I I I #
coedge $-1 $287 $286 $454 $455 forward $108 $-1 #
edge $-1 $290 37.082136803538333 $456 54.47065645313883 $289 $457 forward 7 unknown #
coedge $-1 $295 $294 $287 $395 reversed $296 $-1 #
edge $-1 $458 -54.47065645313883 $396 -37.082136803538333 $394 $459 forward 7 unknown #
vertex $-1 $302 $460 #
straight-curve $-1 -37.082136803538333 0 -13.948736599109354 0 -1 0 I I #
point $-1 -37.082136803538333 -33.492463481234608 -13.948736599109353 #
coedge $-1 $454 $292 $295 $402 forward $284 $-1 #
coedge $-1 $292 $454 $299 $404 reversed $284 $-1 #
straight-curve $-1 -54.47065645313883 0 -10.448760325097169 0 1 0 I I #
edge $-1 $297 10.448760325097169 $458 13.948736599109354 $295 $461 forward 7 unknown #
point $-1 -54.47065645313883 33.492463481234608 -10.448760325097169 #
edge $-1 $300 10.448760325097169 $456 13.948736599109354 $400 $462 forward 7 unknown #
point $-1 -54.47065645313883 -33.492463481234608 -10.448760325097169 #
straight-curve $-1 -37.082136803538333 33.492463481234608 -6.0993742310516303 0 0 -1 I I #
plane-surface $-1 54.47065645313883 0 0 -1 0 0 0 0 1 forward_v I I I I #
coedge $-1 $419 $308 $314 $415 forward $196 $-1 #
coedge $-1 $308 $419 $410 $463 forward $196 $-1 #
coedge $-1 $310 $309 $409 $463 reversed $116 $-1 #
edge $-1 $320 4.3493860940455384 $412 7.8493623680577223 $309 $464 forward 7 unknown #
vertex $-1 $312 $465 #
straight-curve $-1 37.08213680353834 0 -13.948736599109354 0 1 0 I I #
straight-curve $-1 37.08213680353834 0 -10.448760325097169 0 -1 0 I I #
edge $-1 $315 37.08213680353834 $423 54.47065645313883 $314 $466 forward 7 unknown #
point $-1 37.08213680353834 33.492463481234608 -13.948736599109353 #
point $-1 37.08213680353834 33.492463481234608 -10.448760325097169 #
point $-1 37.08213680353834 -33.492463481234608 -10.448760325097169 #
coedge $-1 $409 $408 $322 $420 forward $196 $-1 #
edge $-1 $423 -33.492463481234608 $421 33.492463481234608 $322 $467 forward 7 unknown #
vertex $-1 $323 $468 #
straight-curve $-1 54.47065645313883 -33.492463481234608 0 0 0 -1 I I #
vertex $-1 $420 $469 #
straight-curve $-1 54.47065645313883 33.492463481234608 0 0 0 -1 I I #
edge $-1 $426 16.035028048841298 $429 23.055346543666076 $328 $470 forward 7 unknown #
vertex $-1 $425 $471 #
straight-curve $-1 -13.190616867842381 -33.492463481234608 47.831473715993972 0 0 1 I I #
edge $-1 $429 1.3265486997559268 $339 22.401587636416984 $338 $472 forward 7 unknown #
vertex $-1 $428 $473 #
straight-curve $-1 -13.190616867842381 -33.492463481234608 8.6585470593194458 0 -0.79863550430605224 -0.6018150307709319 I I #
point $-1 -13.190616867842381 -33.492463481234608 8.6585470593194458 #
point $-1 -34.265655804503439 -26.47214498640983 13.948736599109354 #
straight-curve $-1 0 -33.492463481234608 13.948736599109354 1 0 0 I I #
vertex $-1 $345 $474 #
point $-1 -27.744216108314561 -29.380489203051297 10.505006324908354 #
vertex $-1 $349 $475 #
point $-1 -18.712056564031251 -29.380489203051297 10.505006324908354 #
coedge $-1 $364 $363 $356 $439 forward $353 $-1 #
edge $-1 $440 -15.168528799141299 $443 -4.7522489629294853 $438 $476 forward 7 unknown #
vertex $-1 $439 $477 #
straight-curve $-1 -30.486678228168074 33.492463481234608 67.516401988485299 0 0 1 I I #
edge $-1 $443 -17.905021039651896 $365 -7.2582933373804615 $364 $478 forward 7 unknown #
vertex $-1 $442 $479 #
straight-curve $-1 -30.486678228168074 -22.685822947748541 43.66693171398552 0 0.83867056331134215 -0.54463904215088732 I I #
point $-1 -30.486678228168074 33.492463481234601 7.1843252545991518 #
point $-1 -19.83995052589664 23.076183645022795 13.948736599109353 #
straight-curve $-1 0 33.492463481234608 13.948736599109354 -1 0 0 I I #
vertex $-1 $371 $480 #
point $-1 -23.663314377032357 25.114548272873886 5.6855051051470049 #
straight-curve $-1 -54.47065645313883 33.492463481234608 0 0 0 -1 I I #
point $-1 -54.47065645313883 -33.492463481234608 -13.948736599109354 #
straight-curve $-1 -54.47065645313883 0 -13.948736599109354 0 1 0 I I #
point $-1 -54.47065645313883 33.492463481234608 -13.948736599109354 #
coedge $-1 $400 $399 $392 $455 reversed $284 $-1 #
edge $-1 $456 -33.492463481234608 $458 33.492463481234608 $454 $481 forward 7 unknown #
vertex $-1 $455 $482 #
straight-curve $-1 0 -33.492463481234608 -13.948736599109354 -1 0 0 I I #
vertex $-1 $395 $483 #
straight-curve $-1 0 33.492463481234608 -13.948736599109354 1 0 0 I I #
point $-1 -37.082136803538333 33.492463481234608 -13.948736599109353 #
straight-curve $-1 -54.47065645313883 33.492463481234608 0 0 0 -1 I I #
straight-curve $-1 -54.47065645313883 -33.492463481234608 0 0 0 -1 I I #
edge $-1 $421 -54.47065645313883 $412 -37.08213680353834 $410 $484 forward 7 unknown #
straight-curve $-1 37.08213680353834 -33.492463481234608 -6.0993742310516303 0 0 -1 I I #
point $-1 37.08213680353834 -33.492463481234608 -13.948736599109353 #
straight-curve $-1 0 33.492463481234608 -13.948736599109354 1 0 0 I I #
straight-curve $-1 54.47065645313883 0 -13.948736599109354 0 -1 0 I I #
point $-1 54.47065645313883 -33.492463481234608 -13.948736599109354 #
point $-1 54.47065645313883 33.492463481234608 -13.948736599109354 #
straight-curve $-1 -13.190616867842381 -49.527491530075906 13.948736599109353 0 1 0 I I #
point $-1 -13.190616867842381 -33.492463481234608 13.948736599109354 #
straight-curve $-1 -11.864068168086455 -26.472144986409827 13.948736599109354 -1 0 0 I I #
point $-1 -13.190616867842381 -26.47214498640983 13.948736599109354 #
point $-1 -28.244216108314561 -29.079581687665829 10.105688572755327 #
point $-1 -19.212056564031251 -29.079581687665829 10.105688572755327 #
straight-curve $-1 -30.486678228168074 18.323934682093309 13.948736599109353 0 -1 0 I I #
point $-1 -30.486678228168074 33.492463481234608 13.948736599109354 #
straight-curve $-1 -12.581657188516179 23.076183645022802 13.948736599109353 1 0 0 I I #
point $-1 -30.486678228168074 23.076183645022795 13.948736599109353 #
point $-1 -25.163314377032357 24.297589709647557 4.4274992601799923 #
straight-curve $-1 -54.47065645313883 0 -13.948736599109354 0 1 0 I I #
point $-1 -54.47065645313883 -33.492463481234608 -13.948736599109354 #
point $-1 -54.47065645313883 33.492463481234608 -13.948736599109354 #
straight-curve $-1 0 -33.492463481234608 -13.948736599109354 -1 0 0 I I #
End-of-ACIS-data 