500 0 6 0           
7 Unknown 11 ACIS 5.0 NT 24 Fri Mar 26 15:26:19 1999 
-1 9.9999999999999995e-007 1e-010 
body $-1 $6 $-1 $7 #
body $-1 $8 $-1 $9 #
body $-1 $10 $-1 $11 #
body $-1 $12 $-1 $13 #
body $-1 $14 $-1 $15 #
body $-1 $16 $-1 $17 #
lump $-1 $-1 $18 $0 #
transform $-1 1 0 0 0 1 0 0 0 1 76.917630542924286 52.176148742351522 11.439358274027326 1 rotate no_reflect no_shear #
lump $-1 $-1 $19 $1 #
transform $-1 1 0 0 0 1 0 0 0 1 76.917630542924286 52.176148742351522 11.439358274027326 1 rotate no_reflect no_shear #
lump $-1 $-1 $20 $2 #
transform $-1 1 0 0 0 1 0 0 0 1 76.917630542924286 52.176148742351522 11.439358274027326 1 rotate no_reflect no_shear #
lump $-1 $-1 $21 $3 #
transform $-1 1 0 0 0 1 0 0 0 1 76.917630542924286 52.176148742351522 11.439358274027326 1 rotate no_reflect no_shear #
lump $-1 $-1 $22 $4 #
transform $-1 1 0 0 0 1 0 0 0 1 76.917630542924286 52.176148742351522 11.439358274027326 1 rotate no_reflect no_shear #
lump $-1 $-1 $23 $5 #
transform $-1 1 0 0 0 1 0 0 0 1 76.917630542924286 52.176148742351522 11.439358274027326 1 rotate no_reflect no_shear #
shell $-1 $-1 $-1 $24 $-1 $6 #
shell $-1 $-1 $-1 $25 $-1 $8 #
shell $-1 $-1 $-1 $26 $-1 $10 #
shell $-1 $-1 $-1 $27 $-1 $12 #
shell $-1 $-1 $-1 $28 $-1 $14 #
shell $-1 $-1 $-1 $29 $-1 $16 #
face $-1 $30 $31 $18 $-1 $32 reversed single #
face $-1 $33 $34 $19 $-1 $35 forward single #
face $-1 $36 $37 $20 $-1 $38 reversed single #
face $-1 $39 $40 $21 $-1 $41 forward single #
face $-1 $42 $43 $22 $-1 $44 forward single #
face $-1 $45 $46 $23 $-1 $47 forward single #
face $-1 $48 $49 $18 $-1 $50 forward single #
loop $-1 $-1 $51 $24 #
plane-surface $-1 0 -52.176148742351522 0 0 1 0 0 0 1 forward_v I I I I #
face $-1 $52 $53 $19 $-1 $54 reversed single #
loop $-1 $-1 $55 $25 #
plane-surface $-1 0 -52.176148742351522 0 0 1 0 0 0 1 forward_v I I I I #
face $-1 $56 $57 $20 $-1 $58 reversed single #
loop $-1 $-1 $59 $26 #
plane-surface $-1 34.542628771789879 96.672713137073742 184.9185883608863 1 0 0 0 -0.74314483375859142 -0.66913059716165679 forward_v I I I I #
face $-1 $60 $61 $21 $-1 $62 forward single #
loop $-1 $63 $64 $27 #
cone-surface $-1 43.017629126016757 48.227145229095761 7.220683069885073 0 -0.74314483375859142 -0.66913059716165679 1.5 0 0 1 I I 0 1 1.5 forward I I I I #
face $-1 $65 $66 $22 $-1 $67 forward single #
loop $-1 $68 $69 $28 #
cone-surface $-1 55.730129657357082 48.227145229095761 7.220683069885073 0 -0.74314483375859142 -0.66913059716165679 1.5 0 0 1 I I 0 1 1.5 forward I I I I #
face $-1 $70 $71 $23 $-1 $72 forward single #
loop $-1 $73 $74 $29 #
cone-surface $-1 68.442630188697393 48.227145229095761 7.220683069885073 0 -0.74314483375859142 -0.66913059716165679 1.5 0 0 1 I I 0 1 1.5 forward I I I I #
face $-1 $75 $76 $18 $-1 $77 reversed single #
loop $-1 $-1 $78 $30 #
plane-surface $-1 0 0 11.439358274027326 0 0 1 1 0 0 forward_v I I I I #
coedge $-1 $79 $80 $81 $82 reversed $31 $-1 #
face $-1 $83 $84 $19 $-1 $85 reversed single #
loop $-1 $-1 $86 $33 #
plane-surface $-1 0 0 -11.439358274027326 0 0 1 1 0 0 forward_v I I I I #
coedge $-1 $87 $88 $89 $90 forward $34 $-1 #
face $-1 $91 $92 $20 $-1 $93 forward single #
loop $-1 $-1 $94 $36 #
plane-surface $-1 55.730129657357082 -17.649166388778696 81.982708245993066 0 0.74314483375859142 0.66913059716165679 1 0 0 forward_v I I I I #
coedge $-1 $95 $96 $97 $98 reversed $37 $-1 #
face $-1 $-1 $99 $21 $-1 $100 forward single #
loop $-1 $101 $102 $39 #
cone-surface $-1 43.017629126016757 46.874682639974559 6.0029203151870423 0 -0.74314483375859142 -0.66913059716165679 0.75 0 0 1 I I -0.70710678118654757 0.70710678118654757 0.75 forward I I I I #
loop $-1 $-1 $103 $27 #
coedge $-1 $64 $64 $104 $105 reversed $40 $-1 #
face $-1 $-1 $106 $22 $-1 $107 forward single #
loop $-1 $108 $109 $42 #
cone-surface $-1 55.730129657357082 46.874682639974559 6.0029203151870423 0 -0.74314483375859142 -0.66913059716165679 0.75 0 0 1 I I -0.70710678118654757 0.70710678118654757 0.75 forward I I I I #
loop $-1 $-1 $110 $28 #
coedge $-1 $69 $69 $111 $112 reversed $43 $-1 #
face $-1 $-1 $113 $23 $-1 $114 forward single #
loop $-1 $115 $116 $45 #
cone-surface $-1 68.442630188697393 46.874682639974559 6.0029203151870423 0 -0.74314483375859142 -0.66913059716165679 0.75 0 0 1 I I -0.70710678118654757 0.70710678118654757 0.75 forward I I I I #
loop $-1 $-1 $117 $29 #
coedge $-1 $74 $74 $118 $119 reversed $46 $-1 #
face $-1 $120 $121 $18 $-1 $122 reversed single #
loop $-1 $-1 $123 $48 #
plane-surface $-1 0 0 -11.439358274027326 0 0 1 1 0 0 forward_v I I I I #
coedge $-1 $124 $125 $126 $127 forward $49 $-1 #
coedge $-1 $128 $51 $129 $130 reversed $31 $-1 #
coedge $-1 $51 $128 $131 $132 forward $31 $-1 #
coedge $-1 $133 $123 $51 $82 forward $76 $-1 #
edge $-1 $134 -76.917630542924286 $135 76.917630542924286 $51 $136 forward 7 unknown #
face $-1 $137 $138 $19 $-1 $139 reversed single #
loop $-1 $-1 $140 $52 #
plane-surface $-1 -61.548919225300764 -66.78025067545812 0 0 1 0 0 0 1 forward_v I I I I #
coedge $-1 $141 $142 $88 $143 forward $53 $-1 #
coedge $-1 $144 $55 $145 $146 reversed $34 $-1 #
coedge $-1 $55 $144 $86 $143 reversed $34 $-1 #
coedge $-1 $147 $148 $55 $90 reversed $138 $-1 #
edge $-1 $149 -11.439358274027326 $150 11.439358274027326 $89 $151 forward 7 unknown #
face $-1 $152 $153 $20 $-1 $154 reversed single #
loop $-1 $-1 $97 $56 #
plane-surface $-1 0 0 11.439358274027326 0 0 1 1 0 0 forward_v I I I I #
coedge $-1 $155 $156 $157 $158 reversed $57 $-1 #
coedge $-1 $96 $59 $159 $160 reversed $37 $-1 #
coedge $-1 $59 $95 $155 $161 reversed $37 $-1 #
coedge $-1 $157 $162 $59 $98 forward $92 $-1 #
edge $-1 $163 -3.8397921738146508 $164 2.4680069250923609 $97 $165 forward 7 unknown #
loop $-1 $-1 $104 $60 #
plane-surface $-1 55.730129657357082 -17.649166388778696 81.982708245993066 0 0.74314483375859142 0.66913059716165679 1 0 0 forward_v I I I I #
loop $-1 $-1 $166 $39 #
coedge $-1 $102 $102 $103 $167 reversed $61 $-1 #
coedge $-1 $103 $103 $102 $167 forward $63 $-1 #
coedge $-1 $104 $104 $64 $105 forward $99 $-1 #
edge $-1 $168 1.0589168353922982e-015 $168 6.2831853071796013 $104 $169 forward 7 unknown #
loop $-1 $-1 $111 $65 #
plane-surface $-1 55.730129657357082 -17.649166388778696 81.982708245993066 0 0.74314483375859142 0.66913059716165679 1 0 0 forward_v I I I I #
loop $-1 $-1 $170 $42 #
coedge $-1 $109 $109 $110 $171 reversed $66 $-1 #
coedge $-1 $110 $110 $109 $171 forward $68 $-1 #
coedge $-1 $111 $111 $69 $112 forward $106 $-1 #
edge $-1 $172 1.0589168353922982e-015 $172 6.2831853071796013 $111 $173 forward 7 unknown #
loop $-1 $-1 $118 $70 #
plane-surface $-1 55.730129657357082 -17.649166388778696 81.982708245993066 0 0.74314483375859142 0.66913059716165679 1 0 0 forward_v I I I I #
loop $-1 $-1 $174 $45 #
coedge $-1 $116 $116 $117 $175 reversed $71 $-1 #
coedge $-1 $117 $117 $116 $175 forward $73 $-1 #
coedge $-1 $118 $118 $74 $119 forward $113 $-1 #
edge $-1 $176 1.0589168353922982e-015 $176 6.2831853071796013 $118 $177 forward 7 unknown #
face $-1 $178 $179 $18 $-1 $180 reversed single #
loop $-1 $-1 $181 $75 #
plane-surface $-1 -76.917630542924286 0 0 1 0 0 0 0 -1 forward_v I I I I #
coedge $-1 $81 $182 $183 $184 forward $76 $-1 #
coedge $-1 $185 $78 $186 $187 forward $49 $-1 #
coedge $-1 $78 $185 $128 $188 forward $49 $-1 #
coedge $-1 $129 $189 $78 $127 reversed $190 $-1 #
edge $-1 $191 -52.176148742351522 $192 52.176148742351522 $126 $193 forward 7 unknown #
coedge $-1 $80 $79 $125 $188 reversed $31 $-1 #
coedge $-1 $183 $126 $79 $130 forward $190 $-1 #
edge $-1 $191 -11.439358274027326 $134 11.439358274027326 $129 $194 forward 7 unknown #
coedge $-1 $195 $196 $80 $132 reversed $121 $-1 #
edge $-1 $197 -11.439358274027326 $135 11.439358274027326 $131 $198 forward 7 unknown #
coedge $-1 $182 $81 $196 $199 forward $76 $-1 #
vertex $-1 $130 $200 #
vertex $-1 $199 $201 #
straight-curve $-1 0 -52.176148742351522 -11.439358274027326 -1 0 0 I I #
face $-1 $202 $203 $19 $-1 $204 reversed single #
loop $-1 $-1 $89 $83 #
plane-surface $-1 -63.718127655601641 -59.478199708904825 0 1 0 0 0 0 -1 forward_v I I I I #
coedge $-1 $205 $206 $207 $208 forward $84 $-1 #
coedge $-1 $209 $86 $210 $211 forward $53 $-1 #
coedge $-1 $86 $209 $147 $212 forward $53 $-1 #
edge $-1 $149 -63.718127655601641 $213 -59.379710794999887 $86 $214 forward 7 unknown #
coedge $-1 $88 $87 $215 $216 forward $34 $-1 #
coedge $-1 $217 $218 $87 $146 forward $219 $-1 #
edge $-1 $220 59.379710794999887 $150 63.718127655601641 $145 $221 forward 7 unknown #
coedge $-1 $207 $89 $142 $212 reversed $138 $-1 #
coedge $-1 $89 $207 $217 $222 reversed $138 $-1 #
vertex $-1 $143 $223 #
vertex $-1 $222 $224 #
straight-curve $-1 -63.718127655601641 -52.176148742351522 0 0 0 1 I I #
face $-1 $-1 $225 $20 $-1 $226 reversed single #
loop $-1 $-1 $227 $91 #
plane-surface $-1 76.917630542924286 0 0 -1 0 0 0 0 1 forward_v I I I I #
coedge $-1 $228 $94 $96 $161 forward $57 $-1 #
coedge $-1 $94 $228 $227 $229 reversed $57 $-1 #
coedge $-1 $230 $97 $94 $158 forward $92 $-1 #
edge $-1 $164 6.6775639431113376 $231 49.052565714245745 $157 $232 forward 7 unknown #
coedge $-1 $233 $234 $95 $160 forward $225 $-1 #
edge $-1 $235 -88.025456701046821 $163 -81.019935906415824 $159 $236 forward 7 unknown #
edge $-1 $164 94.925439520557234 $235 104.35229748470306 $96 $237 forward 7 unknown #
coedge $-1 $97 $230 $233 $238 forward $92 $-1 #
vertex $-1 $160 $239 #
vertex $-1 $98 $240 #
straight-curve $-1 34.542628771789879 48.336356568536871 11.439358274027327 0 -1 0 I I #
coedge $-1 $166 $166 $-1 $241 reversed $101 $-1 #
edge $-1 $242 0 $242 6.2831853071796004 $102 $243 forward 7 unknown #
vertex $-1 $105 $244 #
ellipse-curve $-1 43.017629126016757 49.022249192898009 7.9365978767118506 0 0.74314483375859142 0.66913059716165679 1.5 0 0 1 I I #
coedge $-1 $170 $170 $-1 $245 reversed $108 $-1 #
edge $-1 $246 0 $246 6.2831853071796004 $109 $247 forward 7 unknown #
vertex $-1 $112 $248 #
ellipse-curve $-1 55.730129657357082 49.022249192898009 7.9365978767118506 0 0.74314483375859142 0.66913059716165679 1.5 0 0 1 I I #
coedge $-1 $174 $174 $-1 $249 reversed $115 $-1 #
edge $-1 $250 0 $250 6.2831853071796004 $116 $251 forward 7 unknown #
vertex $-1 $119 $252 #
ellipse-curve $-1 68.442630188697393 49.022249192898009 7.9365978767118506 0 0.74314483375859142 0.66913059716165679 1.5 0 0 1 I I #
face $-1 $-1 $190 $18 $-1 $253 reversed single #
loop $-1 $-1 $254 $120 #
plane-surface $-1 0 52.176148742351522 0 0 -1 0 0 0 -1 forward_v I I I I #
coedge $-1 $196 $195 $255 $256 forward $121 $-1 #
coedge $-1 $123 $133 $257 $258 forward $76 $-1 #
coedge $-1 $189 $129 $123 $184 reversed $190 $-1 #
edge $-1 $259 -52.176148742351522 $134 52.176148742351522 $183 $260 forward 7 unknown #
coedge $-1 $125 $124 $195 $261 forward $49 $-1 #
coedge $-1 $254 $255 $124 $187 reversed $179 $-1 #
edge $-1 $192 -76.917630542924286 $262 76.917630542924286 $186 $263 forward 7 unknown #
edge $-1 $197 -76.917630542924286 $191 76.917630542924286 $128 $264 forward 7 unknown #
coedge $-1 $126 $183 $254 $265 reversed $190 $-1 #
loop $-1 $-1 $129 $178 #
vertex $-1 $127 $266 #
vertex $-1 $127 $267 #
straight-curve $-1 76.917630542924286 0 11.439358274027326 0 1 0 I I #
straight-curve $-1 76.917630542924286 -52.176148742351522 0 0 0 -1 I I #
coedge $-1 $181 $131 $185 $261 reversed $121 $-1 #
coedge $-1 $131 $181 $133 $199 reversed $121 $-1 #
vertex $-1 $261 $268 #
straight-curve $-1 -76.917630542924286 -52.176148742351522 0 0 0 -1 I I #
edge $-1 $135 -52.176148742351522 $269 52.176148742351522 $196 $270 forward 7 unknown #
point $-1 76.917630542924286 -52.176148742351522 -11.439358274027326 #
point $-1 -76.917630542924286 -52.176148742351522 -11.439358274027326 #
face $-1 $-1 $219 $19 $-1 $271 forward single #
loop $-1 $-1 $272 $137 #
plane-surface $-1 -59.379710794999887 -59.478199708904825 0 -1 0 0 0 0 1 forward_v I I I I #
coedge $-1 $273 $140 $209 $274 reversed $84 $-1 #
coedge $-1 $140 $273 $275 $276 reversed $84 $-1 #
coedge $-1 $148 $147 $140 $208 reversed $138 $-1 #
edge $-1 $277 -11.439358274027326 $278 11.439358274027326 $207 $279 forward 7 unknown #
coedge $-1 $142 $141 $205 $274 forward $53 $-1 #
coedge $-1 $215 $272 $141 $211 reversed $203 $-1 #
edge $-1 $213 -7.3020509665533027 $280 7.3020509665532956 $210 $281 forward 7 unknown #
edge $-1 $278 -7.3020509665532956 $149 7.3020509665533027 $147 $282 forward 7 unknown #
vertex $-1 $211 $283 #
straight-curve $-1 0 -52.176148742351522 -11.439358274027326 1 0 0 I I #
coedge $-1 $284 $210 $144 $216 reversed $203 $-1 #
edge $-1 $220 -11.439358274027326 $213 11.439358274027326 $215 $285 forward 7 unknown #
coedge $-1 $275 $145 $148 $222 forward $219 $-1 #
coedge $-1 $145 $275 $284 $286 forward $219 $-1 #
loop $-1 $-1 $145 $202 #
vertex $-1 $146 $287 #
straight-curve $-1 0 -52.176148742351522 11.439358274027326 -1 0 0 I I #
edge $-1 $150 -7.3020509665533027 $277 7.3020509665532956 $148 $288 forward 7 unknown #
point $-1 -63.718127655601641 -52.176148742351522 -11.439358274027326 #
point $-1 -63.718127655601641 -52.176148742351522 11.439358274027326 #
loop $-1 $-1 $159 $152 #
plane-surface $-1 0 52.176148742351522 0 0 -1 0 0 0 -1 forward_v I I I I #
coedge $-1 $289 $290 $156 $229 forward $153 $-1 #
coedge $-1 $156 $155 $234 $291 reversed $57 $-1 #
edge $-1 $231 58.558127852718968 $292 67.984985816864778 $227 $293 forward 7 unknown #
coedge $-1 $162 $157 $290 $294 forward $92 $-1 #
vertex $-1 $294 $295 #
straight-curve $-1 27.865064828678541 45.86834964344451 11.439358274027327 1 0 0 I I #
coedge $-1 $296 $159 $162 $238 reversed $225 $-1 #
coedge $-1 $159 $296 $228 $291 forward $225 $-1 #
vertex $-1 $160 $297 #
straight-curve $-1 34.542628771789879 52.176148742351522 92.459294180443152 0 0 1 I I #
straight-curve $-1 34.542628771789879 -17.649166388778696 81.982708245993066 0 0.66913059716165679 -0.74314483375859142 I I #
edge $-1 $298 -76.917630542924286 $163 -34.542628771789879 $233 $299 forward 7 unknown #
point $-1 34.542628771789879 52.176148742351522 11.439358274027326 #
point $-1 34.542628771789879 45.86834964344451 11.439358274027327 #
edge $-1 $300 1 $300 0 $166 $-1 forward 7 unknown #
vertex $-1 $167 $301 #
ellipse-curve $-1 43.017629126016757 47.432041265293499 6.5047682630582848 0 0.74314483375859142 0.66913059716165679 1.5 0 0 1 I I #
point $-1 44.517629126016757 49.022249192898023 7.9365978767118612 #
edge $-1 $302 1 $302 0 $170 $-1 forward 7 unknown #
vertex $-1 $171 $303 #
ellipse-curve $-1 55.730129657357082 47.432041265293499 6.5047682630582848 0 0.74314483375859142 0.66913059716165679 1.5 0 0 1 I I #
point $-1 57.230129657357082 49.022249192898023 7.9365978767118612 #
edge $-1 $304 1 $304 0 $174 $-1 forward 7 unknown #
vertex $-1 $175 $305 #
ellipse-curve $-1 68.442630188697393 47.432041265293499 6.5047682630582848 0 0.74314483375859142 0.66913059716165679 1.5 0 0 1 I I #
point $-1 69.942630188697393 49.022249192898023 7.9365978767118612 #
plane-surface $-1 76.917630542924286 0 0 -1 0 0 0 0 1 forward_v I I I I #
coedge $-1 $257 $186 $189 $265 forward $179 $-1 #
coedge $-1 $186 $257 $181 $256 reversed $179 $-1 #
edge $-1 $262 -11.439358274027326 $269 11.439358274027326 $255 $306 forward 7 unknown #
coedge $-1 $255 $254 $182 $258 reversed $179 $-1 #
edge $-1 $269 -76.917630542924286 $259 76.917630542924286 $257 $307 forward 7 unknown #
vertex $-1 $184 $308 #
straight-curve $-1 76.917630542924286 0 -11.439358274027326 0 -1 0 I I #
edge $-1 $262 -52.176148742351522 $197 52.176148742351522 $195 $309 forward 7 unknown #
vertex $-1 $187 $310 #
straight-curve $-1 0 52.176148742351522 11.439358274027326 -1 0 0 I I #
straight-curve $-1 0 -52.176148742351522 11.439358274027326 1 0 0 I I #
edge $-1 $192 -11.439358274027326 $259 11.439358274027326 $189 $311 forward 7 unknown #
point $-1 76.917630542924286 -52.176148742351522 11.439358274027326 #
point $-1 76.917630542924286 52.176148742351522 11.439358274027326 #
point $-1 -76.917630542924286 -52.176148742351522 11.439358274027326 #
vertex $-1 $258 $312 #
straight-curve $-1 -76.917630542924286 0 -11.439358274027326 0 1 0 I I #
plane-surface $-1 0 0 11.439358274027326 0 0 1 1 0 0 forward_v I I I I #
coedge $-1 $210 $284 $273 $313 forward $203 $-1 #
coedge $-1 $206 $205 $272 $313 reversed $84 $-1 #
edge $-1 $280 -2.169208430300877 $278 2.169208430300877 $205 $314 forward 7 unknown #
coedge $-1 $218 $217 $206 $276 forward $219 $-1 #
edge $-1 $277 -2.169208430300877 $315 2.169208430300877 $206 $316 forward 7 unknown #
vertex $-1 $222 $317 #
vertex $-1 $212 $318 #
straight-curve $-1 -63.718127655601641 -66.78025067545812 0 0 0 -1 I I #
vertex $-1 $313 $319 #
straight-curve $-1 -59.379710794999887 -59.478199708904825 -11.439358274027326 0 -1 0 I I #
straight-curve $-1 -63.718127655601641 -59.478199708904825 -11.439358274027326 0 1 0 I I #
point $-1 -59.379710794999887 -52.176148742351522 -11.439358274027326 #
coedge $-1 $272 $215 $218 $286 reversed $203 $-1 #
straight-curve $-1 -59.379710794999887 -52.176148742351522 0 0 0 -1 I I #
edge $-1 $315 -7.3020509665532956 $220 7.3020509665533027 $284 $320 forward 7 unknown #
point $-1 -59.379710794999887 -52.176148742351522 11.439358274027326 #
straight-curve $-1 -63.718127655601641 -59.478199708904825 11.439358274027326 0 -1 0 I I #
coedge $-1 $290 $227 $296 $321 reversed $153 $-1 #
coedge $-1 $227 $289 $230 $294 reversed $153 $-1 #
edge $-1 $292 -49.052565714245745 $235 -6.6775639431113376 $234 $322 forward 7 unknown #
vertex $-1 $229 $323 #
straight-curve $-1 76.917630542924286 6.6853145846860187 54.956528462350505 0 0.66913059716165679 -0.74314483375859142 I I #
edge $-1 $231 45.86834964344451 $298 52.176148742351522 $290 $324 forward 7 unknown #
point $-1 76.917630542924286 45.86834964344451 11.439358274027327 #
coedge $-1 $234 $233 $289 $321 forward $225 $-1 #
point $-1 34.542628771789879 52.176148742351529 4.4338374793963311 #
vertex $-1 $294 $325 #
straight-curve $-1 0 52.176148742351522 11.439358274027326 -1 0 0 I I #
vertex $-1 $241 $326 #
point $-1 44.517629126016757 47.432041265293499 6.5047682630582848 #
vertex $-1 $245 $327 #
point $-1 57.230129657357082 47.432041265293499 6.5047682630582848 #
vertex $-1 $249 $328 #
point $-1 69.942630188697393 47.432041265293499 6.5047682630582848 #
straight-curve $-1 -76.917630542924286 52.176148742351522 0 0 0 -1 I I #
straight-curve $-1 0 52.176148742351522 -11.439358274027326 1 0 0 I I #
point $-1 76.917630542924286 52.176148742351522 -11.439358274027326 #
straight-curve $-1 -76.917630542924286 0 11.439358274027326 0 -1 0 I I #
point $-1 -76.917630542924286 52.176148742351522 11.439358274027326 #
straight-curve $-1 76.917630542924286 52.176148742351522 0 0 0 -1 I I #
point $-1 -76.917630542924286 52.176148742351522 -11.439358274027326 #
edge $-1 $315 -11.439358274027326 $280 11.439358274027326 $272 $329 forward 7 unknown #
straight-curve $-1 -61.548919225300764 -66.78025067545812 -11.439358274027326 -1 0 0 I I #
vertex $-1 $286 $330 #
straight-curve $-1 -61.548919225300764 -66.78025067545812 11.439358274027326 1 0 0 I I #
point $-1 -63.718127655601641 -66.78025067545812 11.439358274027326 #
point $-1 -63.718127655601641 -66.78025067545812 -11.439358274027326 #
point $-1 -59.379710794999887 -66.78025067545812 -11.439358274027326 #
straight-curve $-1 -59.379710794999887 -59.478199708904825 11.439358274027326 0 1 0 I I #
edge $-1 $298 -11.439358274027326 $292 -4.4338374793963311 $289 $331 forward 7 unknown #
straight-curve $-1 27.865064828678541 52.176148742351515 4.433837479396324 -1 0 0 I I #
point $-1 76.917630542924286 52.176148742351529 4.4338374793963311 #
straight-curve $-1 76.917630542924286 0 11.439358274027326 0 1 0 I I #
point $-1 76.917630542924286 52.176148742351522 11.439358274027326 #
point $-1 43.017629126016757 46.317324014655618 5.5010723673157997 #
point $-1 55.730129657357082 46.317324014655618 5.5010723673157997 #
point $-1 68.442630188697393 46.317324014655618 5.5010723673157997 #
straight-curve $-1 -59.379710794999887 -66.78025067545812 0 0 0 -1 I I #
point $-1 -59.379710794999887 -66.78025067545812 11.439358274027326 #
straight-curve $-1 76.917630542924286 52.176148742351522 0 0 0 -1 I I #
End-of-ACIS-data 