500 0 9 0           
7 Unknown 11 ACIS 5.0 NT 24 Thu Mar 25 23:10:16 1999 
-1 9.9999999999999995e-007 1e-010 
body $-1 $9 $-1 $10 #
body $-1 $11 $-1 $12 #
body $-1 $13 $-1 $14 #
body $-1 $15 $-1 $16 #
body $-1 $17 $-1 $18 #
body $-1 $19 $-1 $20 #
body $-1 $21 $-1 $22 #
body $-1 $23 $-1 $24 #
body $-1 $25 $-1 $26 #
lump $-1 $-1 $27 $0 #
transform $-1 1 0 0 0 1 0 0 0 1 66.863612781151772 43.359217388845586 14.050493061815283 1 rotate no_reflect no_shear #
lump $-1 $-1 $28 $1 #
transform $-1 1 0 0 0 1 0 0 0 1 66.863612781151772 43.359217388845586 14.050493061815283 1 rotate no_reflect no_shear #
lump $-1 $-1 $29 $2 #
transform $-1 1 0 0 0 1 0 0 0 1 66.863612781151772 43.359217388845586 14.050493061815283 1 rotate no_reflect no_shear #
lump $-1 $-1 $30 $3 #
transform $-1 1 0 0 0 1 0 0 0 1 66.863612781151772 43.359217388845586 14.050493061815283 1 rotate no_reflect no_shear #
lump $-1 $-1 $31 $4 #
transform $-1 1 0 0 0 1 0 0 0 1 66.863612781151772 43.359217388845586 14.050493061815283 1 rotate no_reflect no_shear #
lump $-1 $-1 $32 $5 #
transform $-1 1 0 0 0 1 0 0 0 1 66.863612781151772 43.359217388845586 14.050493061815283 1 rotate no_reflect no_shear #
lump $-1 $-1 $33 $6 #
transform $-1 1 0 0 0 1 0 0 0 1 66.863612781151772 43.359217388845586 14.050493061815283 1 rotate no_reflect no_shear #
lump $-1 $-1 $34 $7 #
transform $-1 1 0 0 0 1 0 0 0 1 66.863612781151772 43.359217388845586 14.050493061815283 1 rotate no_reflect no_shear #
lump $-1 $-1 $35 $8 #
transform $-1 1 0 0 0 1 0 0 0 1 66.863612781151772 43.359217388845586 14.050493061815283 1 rotate no_reflect no_shear #
shell $-1 $-1 $-1 $36 $-1 $9 #
shell $-1 $-1 $-1 $37 $-1 $11 #
shell $-1 $-1 $-1 $38 $-1 $13 #
shell $-1 $-1 $-1 $39 $-1 $15 #
shell $-1 $-1 $-1 $40 $-1 $17 #
shell $-1 $-1 $-1 $41 $-1 $19 #
shell $-1 $-1 $-1 $42 $-1 $21 #
shell $-1 $-1 $-1 $43 $-1 $23 #
shell $-1 $-1 $-1 $44 $-1 $25 #
face $-1 $45 $46 $27 $-1 $47 reversed single #
face $-1 $48 $49 $28 $-1 $50 forward single #
face $-1 $51 $52 $29 $-1 $53 reversed single #
face $-1 $54 $55 $30 $-1 $56 reversed single #
face $-1 $57 $58 $31 $-1 $59 forward single #
face $-1 $60 $61 $32 $-1 $62 forward single #
face $-1 $63 $64 $33 $-1 $65 reversed single #
face $-1 $66 $67 $34 $-1 $68 forward single #
face $-1 $69 $70 $35 $-1 $71 forward single #
face $-1 $72 $73 $27 $-1 $74 forward single #
loop $-1 $-1 $75 $36 #
plane-surface $-1 0 -43.359217388845586 0 0 1 0 0 0 1 forward_v I I I I #
face $-1 $76 $77 $28 $-1 $78 reversed single #
loop $-1 $-1 $79 $37 #
plane-surface $-1 0 -43.359217388845586 0 0 1 0 0 0 1 forward_v I I I I #
face $-1 $80 $81 $29 $-1 $82 reversed single #
loop $-1 $-1 $83 $38 #
plane-surface $-1 0 35.472065493578334 8.7173346278109083 0 0 1 1 0 0 forward_v I I I I #
face $-1 $84 $85 $30 $-1 $86 reversed single #
loop $-1 $-1 $87 $39 #
plane-surface $-1 89.911406110034733 -1.2638597401132046 191.5939127499849 0 -1 0 -0.78801076186113728 0 -0.61566146476048833 forward_v I I I I #
face $-1 $88 $89 $31 $-1 $90 forward single #
loop $-1 $91 $92 $40 #
cone-surface $-1 62.498421433543534 -6.4777068143558623 8.6597759410343382 -0.78801076186113728 0 -0.61566146476048833 0.30783073238024417 0 -0.39400538093056864 1 I I 0 1 0.5 forward I I I I #
face $-1 $93 $94 $32 $-1 $95 forward single #
loop $-1 $96 $97 $41 #
cone-surface $-1 62.498421433543534 -3.3493985698102691 8.6597759410343382 -0.78801076186113728 0 -0.61566146476048833 0.30783073238024417 0 -0.39400538093056864 1 I I 0 1 0.5 forward I I I I #
face $-1 $98 $99 $33 $-1 $100 reversed single #
loop $-1 $-1 $101 $42 #
plane-surface $-1 -176.40654406532212 -2.1172681052325615 79.517089924634632 0 1 0 -0.81915205242281985 0 0.57357642473473569 forward_v I I I I #
face $-1 $102 $103 $34 $-1 $104 forward single #
loop $-1 $105 $106 $43 #
cone-surface $-1 -62.052893523072868 0.59062875443273555 7.8183960056296602 0.81915205242281985 0 -0.57357642473473569 0.57357642473473569 0 0.81915205242281985 1 I I 0 1 1 forward I I I I #
face $-1 $107 $108 $35 $-1 $109 forward single #
loop $-1 $110 $111 $44 #
cone-surface $-1 -62.052893523072868 4.652474043930674 7.8183960056296602 0.81915205242281985 0 -0.57357642473473569 0.57357642473473569 0 0.81915205242281985 1 I I 0 1 1 forward I I I I #
face $-1 $112 $113 $27 $-1 $114 reversed single #
loop $-1 $-1 $115 $45 #
plane-surface $-1 0 0 14.050493061815283 0 0 1 1 0 0 forward_v I I I I #
coedge $-1 $116 $117 $118 $119 reversed $46 $-1 #
face $-1 $120 $121 $28 $-1 $122 reversed single #
loop $-1 $-1 $123 $48 #
plane-surface $-1 0 0 -14.050493061815283 0 0 1 1 0 0 forward_v I I I I #
coedge $-1 $124 $125 $126 $127 forward $49 $-1 #
face $-1 $128 $129 $29 $-1 $130 reversed single #
loop $-1 $-1 $131 $51 #
plane-surface $-1 0 27.58491359831109 11.383913844813096 0 1 0 0 0 1 forward_v I I I I #
coedge $-1 $132 $133 $134 $135 reversed $52 $-1 #
face $-1 $136 $137 $30 $-1 $138 reversed single #
loop $-1 $-1 $139 $54 #
plane-surface $-1 -15.467086786892239 -4.9135526920830657 109.26321318194087 0.78801076186113728 0 0.61566146476048833 0.61566146476048833 0 -0.78801076186113728 forward_v I I I I #
coedge $-1 $140 $141 $142 $143 reversed $55 $-1 #
face $-1 $-1 $144 $31 $-1 $145 forward single #
loop $-1 $146 $147 $57 #
cone-surface $-1 61.907413362147679 -6.4777068143558623 8.1980298424639724 -0.78801076186113728 0 -0.61566146476048833 0.15391536619012208 0 -0.19700269046528432 1 I I -0.70710678118654746 0.70710678118654746 0.25 forward I I I I #
loop $-1 $-1 $148 $40 #
coedge $-1 $92 $92 $149 $150 reversed $58 $-1 #
face $-1 $-1 $151 $32 $-1 $152 forward single #
loop $-1 $153 $154 $60 #
cone-surface $-1 61.907413362147679 -3.3493985698102691 8.1980298424639724 -0.78801076186113728 0 -0.61566146476048833 0.15391536619012208 0 -0.19700269046528432 1 I I -0.70710678118654746 0.70710678118654746 0.25 forward I I I I #
loop $-1 $-1 $155 $41 #
coedge $-1 $97 $97 $156 $157 reversed $61 $-1 #
face $-1 $158 $159 $33 $-1 $160 reversed single #
loop $-1 $-1 $161 $63 #
plane-surface $-1 -66.863612781151801 2.6215513991817048 2.8143059969130064 -0.81915205242281985 0 0.57357642473473569 0.57357642473473569 0 0.81915205242281985 forward_v I I I I #
coedge $-1 $162 $163 $164 $165 reversed $64 $-1 #
face $-1 $-1 $166 $34 $-1 $167 forward single #
loop $-1 $168 $169 $66 #
cone-surface $-1 -60.766429561841193 0.59062875443273555 6.9176042695278053 0.81915205242281985 0 -0.57357642473473569 0.28678821236736785 0 0.40957602621140993 1 I I -0.70710678118654746 0.70710678118654746 0.5 forward I I I I #
loop $-1 $-1 $170 $43 #
coedge $-1 $106 $106 $171 $172 reversed $67 $-1 #
face $-1 $-1 $173 $35 $-1 $174 forward single #
loop $-1 $175 $176 $69 #
cone-surface $-1 -60.766429561841193 4.652474043930674 6.9176042695278053 0.81915205242281985 0 -0.57357642473473569 0.28678821236736785 0 0.40957602621140993 1 I I -0.70710678118654746 0.70710678118654746 0.5 forward I I I I #
loop $-1 $-1 $177 $44 #
coedge $-1 $111 $111 $178 $179 reversed $70 $-1 #
face $-1 $180 $181 $27 $-1 $182 reversed single #
loop $-1 $-1 $183 $72 #
plane-surface $-1 0 0 -14.050493061815283 0 0 1 1 0 0 forward_v I I I I #
coedge $-1 $184 $185 $186 $187 forward $73 $-1 #
coedge $-1 $188 $75 $189 $190 reversed $46 $-1 #
coedge $-1 $75 $188 $191 $192 forward $46 $-1 #
coedge $-1 $193 $183 $75 $119 forward $113 $-1 #
edge $-1 $194 -66.863612781151772 $195 66.863612781151772 $75 $196 forward 7 unknown #
face $-1 $197 $198 $28 $-1 $199 reversed single #
loop $-1 $-1 $200 $76 #
plane-surface $-1 -42.876148951026877 -57.411417075081353 0 0 1 0 0 0 1 forward_v I I I I #
coedge $-1 $201 $202 $125 $203 forward $77 $-1 #
coedge $-1 $204 $79 $205 $206 reversed $49 $-1 #
coedge $-1 $79 $204 $123 $203 reversed $49 $-1 #
coedge $-1 $207 $208 $79 $127 reversed $198 $-1 #
edge $-1 $209 -14.050493061815283 $210 14.050493061815283 $126 $211 forward 7 unknown #
face $-1 $212 $213 $29 $-1 $214 forward single #
loop $-1 $-1 $215 $80 #
plane-surface $-1 -66.863612781151772 0 0 1 0 0 0 0 -1 forward_v I I I I #
coedge $-1 $216 $217 $218 $219 reversed $81 $-1 #
coedge $-1 $220 $83 $216 $221 forward $52 $-1 #
coedge $-1 $83 $220 $222 $223 reversed $52 $-1 #
coedge $-1 $224 $225 $83 $135 forward $226 $-1 #
edge $-1 $227 9.8488808515219226 $228 25.623184642056412 $134 $229 forward 7 unknown #
face $-1 $230 $231 $30 $-1 $232 reversed single #
loop $-1 $-1 $233 $84 #
plane-surface $-1 89.911406110034733 -8.5632456440529268 191.5939127499849 0 1 0 0.78801076186113728 0 0.61566146476048833 forward_v I I I I #
coedge $-1 $234 $235 $236 $237 reversed $85 $-1 #
coedge $-1 $141 $87 $238 $239 reversed $55 $-1 #
coedge $-1 $87 $140 $234 $240 reversed $55 $-1 #
coedge $-1 $236 $241 $87 $143 forward $242 $-1 #
edge $-1 $243 -21.907909726134406 $244 -13.965537792779088 $142 $245 forward 7 unknown #
loop $-1 $-1 $149 $88 #
plane-surface $-1 -15.467086786892239 -4.9135526920830657 109.26321318194087 0.78801076186113728 0 0.61566146476048833 0.61566146476048833 0 -0.78801076186113728 forward_v I I I I #
loop $-1 $-1 $246 $57 #
coedge $-1 $147 $147 $148 $247 reversed $89 $-1 #
coedge $-1 $148 $148 $147 $247 forward $91 $-1 #
coedge $-1 $149 $149 $92 $150 forward $144 $-1 #
edge $-1 $248 0 $248 6.2831853071796004 $149 $249 forward 7 unknown #
loop $-1 $-1 $156 $93 #
plane-surface $-1 -15.467086786892239 -4.9135526920830657 109.26321318194087 0.78801076186113728 0 0.61566146476048833 0.61566146476048833 0 -0.78801076186113728 forward_v I I I I #
loop $-1 $-1 $250 $60 #
coedge $-1 $154 $154 $155 $251 reversed $94 $-1 #
coedge $-1 $155 $155 $154 $251 forward $96 $-1 #
coedge $-1 $156 $156 $97 $157 forward $151 $-1 #
edge $-1 $252 0 $252 6.2831853071796004 $156 $253 forward 7 unknown #
face $-1 $254 $255 $33 $-1 $256 forward single #
loop $-1 $-1 $257 $98 #
plane-surface $-1 -176.40654406532212 7.360370903595971 79.517089924634632 0 -1 0 0.81915205242281985 0 -0.57357642473473569 forward_v I I I I #
coedge $-1 $258 $259 $260 $261 reversed $99 $-1 #
coedge $-1 $163 $101 $262 $263 reversed $64 $-1 #
coedge $-1 $101 $162 $258 $264 reversed $64 $-1 #
coedge $-1 $260 $265 $101 $165 forward $255 $-1 #
edge $-1 $266 21.339659251509289 $267 29.207321897626549 $164 $268 forward 7 unknown #
loop $-1 $-1 $171 $102 #
plane-surface $-1 -66.863612781151801 2.6215513991817048 2.8143059969130064 -0.81915205242281985 0 0.57357642473473569 0.57357642473473569 0 0.81915205242281985 forward_v I I I I #
loop $-1 $-1 $269 $66 #
coedge $-1 $169 $169 $170 $270 reversed $103 $-1 #
coedge $-1 $170 $170 $169 $270 forward $105 $-1 #
coedge $-1 $171 $171 $106 $172 forward $166 $-1 #
edge $-1 $271 0 $271 6.2831853071796004 $171 $272 forward 7 unknown #
loop $-1 $-1 $178 $107 #
plane-surface $-1 -66.863612781151801 2.6215513991817048 2.8143059969130064 -0.81915205242281985 0 0.57357642473473569 0.57357642473473569 0 0.81915205242281985 forward_v I I I I #
loop $-1 $-1 $273 $69 #
coedge $-1 $176 $176 $177 $274 reversed $108 $-1 #
coedge $-1 $177 $177 $176 $274 forward $110 $-1 #
coedge $-1 $178 $178 $111 $179 forward $173 $-1 #
edge $-1 $275 0 $275 6.2831853071796004 $178 $276 forward 7 unknown #
face $-1 $277 $278 $27 $-1 $279 reversed single #
loop $-1 $-1 $280 $112 #
plane-surface $-1 -66.863612781151772 0 0 1 0 0 0 0 -1 forward_v I I I I #
coedge $-1 $118 $281 $282 $283 forward $113 $-1 #
coedge $-1 $284 $115 $285 $286 forward $73 $-1 #
coedge $-1 $115 $284 $188 $287 forward $73 $-1 #
coedge $-1 $189 $288 $115 $187 reversed $289 $-1 #
edge $-1 $290 -43.359217388845586 $291 43.359217388845586 $186 $292 forward 7 unknown #
coedge $-1 $117 $116 $185 $287 reversed $46 $-1 #
coedge $-1 $282 $186 $116 $190 forward $289 $-1 #
edge $-1 $290 -14.050493061815283 $194 14.050493061815283 $189 $293 forward 7 unknown #
coedge $-1 $294 $295 $117 $192 reversed $181 $-1 #
edge $-1 $296 -14.050493061815283 $195 14.050493061815283 $191 $297 forward 7 unknown #
coedge $-1 $281 $118 $295 $298 forward $113 $-1 #
vertex $-1 $190 $299 #
vertex $-1 $298 $300 #
straight-curve $-1 0 -43.359217388845586 -14.050493061815283 -1 0 0 I I #
face $-1 $301 $302 $28 $-1 $303 reversed single #
loop $-1 $-1 $126 $120 #
plane-surface $-1 -46.989671244532545 -50.385317231963469 0 1 0 0 0 0 -1 forward_v I I I I #
coedge $-1 $304 $305 $306 $307 forward $121 $-1 #
coedge $-1 $308 $123 $309 $310 forward $77 $-1 #
coedge $-1 $123 $308 $207 $311 forward $77 $-1 #
edge $-1 $209 -46.989671244532545 $312 -38.76262665752121 $123 $313 forward 7 unknown #
coedge $-1 $125 $124 $314 $315 forward $49 $-1 #
coedge $-1 $316 $317 $124 $206 forward $318 $-1 #
edge $-1 $319 38.76262665752121 $210 46.989671244532545 $205 $320 forward 7 unknown #
coedge $-1 $306 $126 $202 $311 reversed $198 $-1 #
coedge $-1 $126 $306 $316 $321 reversed $198 $-1 #
vertex $-1 $203 $322 #
vertex $-1 $321 $323 #
straight-curve $-1 -46.989671244532545 -43.359217388845586 0 0 0 1 I I #
face $-1 $324 $325 $29 $-1 $326 reversed single #
loop $-1 $-1 $327 $128 #
plane-surface $-1 0 0 14.050493061815283 0 0 1 1 0 0 forward_v I I I I #
coedge $-1 $218 $328 $220 $329 forward $129 $-1 #
coedge $-1 $330 $131 $132 $221 reversed $81 $-1 #
coedge $-1 $131 $330 $327 $331 reversed $81 $-1 #
coedge $-1 $332 $215 $131 $219 forward $129 $-1 #
edge $-1 $333 3.0253777054043605 $334 8.3585361394087343 $218 $335 forward 7 unknown #
coedge $-1 $133 $132 $215 $329 reversed $52 $-1 #
edge $-1 $227 -66.863612781151772 $333 66.863612781151772 $216 $336 forward 7 unknown #
coedge $-1 $337 $338 $133 $223 forward $325 $-1 #
edge $-1 $228 -66.863612781151772 $339 66.863612781151772 $222 $340 forward 7 unknown #
coedge $-1 $341 $134 $338 $342 reversed $226 $-1 #
coedge $-1 $134 $341 $330 $343 forward $226 $-1 #
loop $-1 $-1 $134 $324 #
vertex $-1 $135 $344 #
vertex $-1 $135 $345 #
straight-curve $-1 66.863612781151772 17.736032746789167 8.7173346278109083 0 1 0 I I #
face $-1 $-1 $242 $30 $-1 $346 forward single #
loop $-1 $-1 $347 $136 #
plane-surface $-1 66.863612781151772 0 0 -1 0 0 0 0 1 forward_v I I I I #
coedge $-1 $348 $349 $350 $351 reversed $137 $-1 #
coedge $-1 $352 $139 $141 $240 forward $85 $-1 #
coedge $-1 $139 $352 $348 $353 forward $85 $-1 #
coedge $-1 $350 $142 $139 $237 forward $242 $-1 #
edge $-1 $244 -1.1929166059283283 $354 6.1064692980113939 $236 $355 forward 7 unknown #
coedge $-1 $356 $357 $140 $239 forward $231 $-1 #
edge $-1 $358 -91.912236089978549 $243 -81.746463313177159 $238 $359 forward 7 unknown #
edge $-1 $244 120.82667487338693 $358 133.72722556230354 $141 $360 forward 7 unknown #
coedge $-1 $142 $350 $356 $361 forward $242 $-1 #
loop $-1 $-1 $350 $230 #
vertex $-1 $239 $362 #
vertex $-1 $143 $363 #
straight-curve $-1 44.955703055017366 -1.2638597401132046 14.050493061815288 -1 0 0 I I #
coedge $-1 $246 $246 $-1 $364 reversed $146 $-1 #
edge $-1 $365 0 $365 6.2831853071796004 $147 $366 forward 7 unknown #
vertex $-1 $150 $367 #
ellipse-curve $-1 62.892426814474128 -6.4777068143558623 8.9676066734146005 0.78801076186113728 0 0.61566146476048833 0.30783073238024417 0 -0.39400538093056864 1 I I #
coedge $-1 $250 $250 $-1 $368 reversed $153 $-1 #
edge $-1 $369 0 $369 6.2831853071796004 $154 $370 forward 7 unknown #
vertex $-1 $157 $371 #
ellipse-curve $-1 62.892426814474128 -3.3493985698102691 8.9676066734146005 0.78801076186113728 0 0.61566146476048833 0.30783073238024417 0 -0.39400538093056864 1 I I #
face $-1 $-1 $372 $33 $-1 $373 reversed single #
loop $-1 $-1 $164 $158 #
plane-surface $-1 0 0 14.050493061815283 0 0 1 1 0 0 forward_v I I I I #
coedge $-1 $374 $375 $376 $377 reversed $159 $-1 #
coedge $-1 $378 $161 $163 $264 forward $99 $-1 #
coedge $-1 $161 $378 $374 $379 forward $99 $-1 #
coedge $-1 $376 $164 $161 $261 forward $255 $-1 #
edge $-1 $267 -3.4280438048234139 $380 6.0495952040051186 $260 $381 forward 7 unknown #
coedge $-1 $382 $383 $162 $263 forward $372 $-1 #
edge $-1 $384 -36.944238965404267 $266 -25.708051900502035 $262 $385 forward 7 unknown #
edge $-1 $267 -13.716851507200424 $384 -4.9405691961323804e-014 $163 $386 forward 7 unknown #
coedge $-1 $164 $376 $382 $387 forward $255 $-1 #
vertex $-1 $165 $388 #
vertex $-1 $165 $389 #
straight-curve $-1 -88.203272032661062 -2.1172681052325615 14.050493061815281 1 0 0 I I #
coedge $-1 $269 $269 $-1 $390 reversed $168 $-1 #
edge $-1 $391 0 $391 6.2831853071796004 $169 $392 forward 7 unknown #
vertex $-1 $172 $393 #
ellipse-curve $-1 -62.929781458093146 0.59062875443273555 8.432399529364158 -0.81915205242281985 0 0.57357642473473569 0.57357642473473569 0 0.81915205242281985 1 I I #
coedge $-1 $273 $273 $-1 $394 reversed $175 $-1 #
edge $-1 $395 0 $395 6.2831853071796004 $176 $396 forward 7 unknown #
vertex $-1 $179 $397 #
ellipse-curve $-1 -62.929781458093146 4.652474043930674 8.432399529364158 -0.81915205242281985 0 0.57357642473473569 0.57357642473473569 0 0.81915205242281985 1 I I #
face $-1 $-1 $289 $27 $-1 $398 reversed single #
loop $-1 $-1 $399 $180 #
plane-surface $-1 0 43.359217388845586 0 0 -1 0 0 0 -1 forward_v I I I I #
coedge $-1 $295 $294 $400 $401 forward $181 $-1 #
coedge $-1 $183 $193 $402 $403 forward $113 $-1 #
coedge $-1 $288 $189 $183 $283 reversed $289 $-1 #
edge $-1 $404 -43.359217388845586 $194 43.359217388845586 $282 $405 forward 7 unknown #
coedge $-1 $185 $184 $294 $406 forward $73 $-1 #
coedge $-1 $399 $400 $184 $286 reversed $278 $-1 #
edge $-1 $291 -66.863612781151772 $407 66.863612781151772 $285 $408 forward 7 unknown #
edge $-1 $296 -66.863612781151772 $290 66.863612781151772 $188 $409 forward 7 unknown #
coedge $-1 $186 $282 $399 $410 reversed $289 $-1 #
loop $-1 $-1 $189 $277 #
vertex $-1 $187 $411 #
vertex $-1 $187 $412 #
straight-curve $-1 66.863612781151772 0 14.050493061815283 0 1 0 I I #
straight-curve $-1 66.863612781151772 -43.359217388845586 0 0 0 -1 I I #
coedge $-1 $280 $191 $284 $406 reversed $181 $-1 #
coedge $-1 $191 $280 $193 $298 reversed $181 $-1 #
vertex $-1 $406 $413 #
straight-curve $-1 -66.863612781151772 -43.359217388845586 0 0 0 -1 I I #
edge $-1 $195 -43.359217388845586 $414 43.359217388845586 $295 $415 forward 7 unknown #
point $-1 66.863612781151772 -43.359217388845586 -14.050493061815283 #
point $-1 -66.863612781151772 -43.359217388845586 -14.050493061815283 #
face $-1 $-1 $318 $28 $-1 $416 forward single #
loop $-1 $-1 $417 $197 #
plane-surface $-1 -38.76262665752121 -50.385317231963469 0 -1 0 0 0 0 1 forward_v I I I I #
coedge $-1 $418 $200 $308 $419 reversed $121 $-1 #
coedge $-1 $200 $418 $420 $421 reversed $121 $-1 #
coedge $-1 $208 $207 $200 $307 reversed $198 $-1 #
edge $-1 $422 -14.050493061815283 $423 14.050493061815283 $306 $424 forward 7 unknown #
coedge $-1 $202 $201 $304 $419 forward $77 $-1 #
coedge $-1 $314 $417 $201 $310 reversed $302 $-1 #
edge $-1 $312 -7.0260998431178834 $425 7.0260998431178834 $309 $426 forward 7 unknown #
edge $-1 $423 -7.0260998431178834 $209 7.0260998431178834 $207 $427 forward 7 unknown #
vertex $-1 $310 $428 #
straight-curve $-1 0 -43.359217388845586 -14.050493061815283 1 0 0 I I #
coedge $-1 $429 $309 $204 $315 reversed $302 $-1 #
edge $-1 $319 -14.050493061815283 $312 14.050493061815283 $314 $430 forward 7 unknown #
coedge $-1 $420 $205 $208 $321 forward $318 $-1 #
coedge $-1 $205 $420 $429 $431 forward $318 $-1 #
loop $-1 $-1 $205 $301 #
vertex $-1 $206 $432 #
straight-curve $-1 0 -43.359217388845586 14.050493061815283 -1 0 0 I I #
edge $-1 $210 -7.0260998431178834 $422 7.0260998431178834 $208 $433 forward 7 unknown #
point $-1 -46.989671244532545 -43.359217388845586 -14.050493061815283 #
point $-1 -46.989671244532545 -43.359217388845586 14.050493061815283 #
face $-1 $-1 $226 $29 $-1 $434 reversed single #
loop $-1 $-1 $222 $212 #
plane-surface $-1 0 43.359217388845586 0 0 -1 0 0 0 -1 forward_v I I I I #
coedge $-1 $435 $436 $217 $331 forward $213 $-1 #
coedge $-1 $215 $332 $337 $437 forward $129 $-1 #
edge $-1 $339 -25.623184642056412 $333 -9.8488808515219226 $215 $438 forward 7 unknown #
coedge $-1 $217 $216 $225 $343 reversed $81 $-1 #
edge $-1 $334 -66.863612781151772 $439 66.863612781151772 $327 $440 forward 7 unknown #
coedge $-1 $328 $218 $436 $441 reversed $129 $-1 #
vertex $-1 $329 $442 #
vertex $-1 $331 $443 #
straight-curve $-1 -66.863612781151772 27.58491359831109 5.6919569224065478 0 0 1 I I #
straight-curve $-1 0 27.58491359831109 8.7173346278109083 -1 0 0 I I #
coedge $-1 $444 $222 $328 $437 reversed $325 $-1 #
coedge $-1 $222 $444 $224 $342 forward $325 $-1 #
vertex $-1 $329 $445 #
straight-curve $-1 0 43.359217388845586 8.7173346278109083 -1 0 0 I I #
coedge $-1 $225 $224 $435 $446 reversed $226 $-1 #
edge $-1 $447 -14.050493061815283 $228 -8.7173346278109083 $224 $448 forward 7 unknown #
edge $-1 $439 -8.3585361394087343 $227 -3.0253777054043605 $225 $449 forward 7 unknown #
point $-1 66.863612781151772 27.58491359831109 8.7173346278109083 #
point $-1 66.863612781151772 43.359217388845579 8.7173346278109083 #
plane-surface $-1 0 0 14.050493061815283 0 0 1 1 0 0 forward_v I I I I #
coedge $-1 $357 $356 $349 $450 forward $231 $-1 #
coedge $-1 $349 $233 $235 $353 reversed $137 $-1 #
coedge $-1 $233 $348 $347 $450 reversed $137 $-1 #
coedge $-1 $241 $236 $233 $351 forward $242 $-1 #
edge $-1 $354 13.965537792779088 $451 21.907909726134406 $350 $452 forward 7 unknown #
coedge $-1 $235 $234 $357 $453 reversed $85 $-1 #
edge $-1 $454 -133.72722556230354 $354 -120.82667487338693 $348 $455 forward 7 unknown #
vertex $-1 $237 $456 #
straight-curve $-1 58.921240847796462 -2.4567763460415328 14.050493061815281 0 -1 0 I I #
coedge $-1 $347 $238 $241 $361 reversed $231 $-1 #
coedge $-1 $238 $347 $352 $453 forward $231 $-1 #
vertex $-1 $239 $457 #
straight-curve $-1 66.863612781151772 -1.2638597401132046 95.796956374992448 0 0 1 I I #
straight-curve $-1 -15.467086786892239 -1.2638597401132046 109.26321318194087 0.61566146476048833 0 -0.78801076186113728 I I #
edge $-1 $451 -8.5632456440529268 $243 -1.2638597401132046 $356 $458 forward 7 unknown #
point $-1 66.863612781151772 -1.2638597401132046 14.050493061815283 #
point $-1 58.921240847796454 -1.2638597401132046 14.050493061815288 #
edge $-1 $459 1 $459 0 $246 $-1 forward 7 unknown #
vertex $-1 $247 $460 #
ellipse-curve $-1 62.104416052612962 -6.4777068143558623 8.3519452086540937 0.78801076186113728 0 0.61566146476048833 0.30783073238024417 0 -0.39400538093056864 1 I I #
point $-1 63.200257546854345 -6.4777068143558623 8.5736012924840139 #
edge $-1 $461 1 $461 0 $250 $-1 forward 7 unknown #
vertex $-1 $251 $462 #
ellipse-curve $-1 62.104416052612962 -3.3493985698102691 8.3519452086540937 0.78801076186113728 0 0.61566146476048833 0.30783073238024417 0 -0.39400538093056864 1 I I #
point $-1 63.200257546854345 -3.3493985698102691 8.5736012924840139 #
loop $-1 $-1 $262 $254 #
plane-surface $-1 -66.863612781151772 0 0 1 0 0 0 0 -1 forward_v I I I I #
coedge $-1 $375 $257 $259 $379 reversed $159 $-1 #
coedge $-1 $257 $374 $463 $464 reversed $159 $-1 #
coedge $-1 $265 $260 $257 $377 forward $255 $-1 #
edge $-1 $380 -29.207321897626549 $465 -21.339659251509289 $376 $466 forward 7 unknown #
coedge $-1 $259 $258 $383 $467 reversed $99 $-1 #
edge $-1 $468 4.9405691961323804e-014 $380 13.716851507200424 $374 $469 forward 7 unknown #
vertex $-1 $261 $470 #
straight-curve $-1 -58.995950135034519 1.3107756995908524 14.050493061815283 0 1 0 I I #
coedge $-1 $463 $262 $265 $387 reversed $372 $-1 #
coedge $-1 $262 $463 $378 $467 forward $372 $-1 #
vertex $-1 $263 $471 #
straight-curve $-1 -66.863612781151772 -2.1172681052325615 39.758544962317316 0 0 1 I I #
straight-curve $-1 -66.863612781151801 -2.1172681052325615 2.8143059969130064 -0.57357642473473569 0 -0.81915205242281985 I I #
edge $-1 $465 -7.360370903595971 $266 2.1172681052325615 $382 $472 forward 7 unknown #
point $-1 -66.863612781151772 -2.1172681052325615 14.050493061815283 #
point $-1 -58.995950135034512 -2.1172681052325615 14.050493061815283 #
edge $-1 $473 1 $473 0 $269 $-1 forward 7 unknown #
vertex $-1 $270 $474 #
ellipse-curve $-1 -61.176005588052604 0.59062875443273555 7.204392481895173 -0.81915205242281985 0 0.57357642473473569 0.57357642473473569 0 0.81915205242281985 1 I I #
point $-1 -62.3562050333584 0.59062875443273555 9.251551581786968 #
edge $-1 $475 1 $475 0 $273 $-1 forward 7 unknown #
vertex $-1 $274 $476 #
ellipse-curve $-1 -61.176005588052604 4.652474043930674 7.204392481895173 -0.81915205242281985 0 0.57357642473473569 0.57357642473473569 0 0.81915205242281985 1 I I #
point $-1 -62.3562050333584 4.652474043930674 9.251551581786968 #
plane-surface $-1 66.863612781151772 0 0 -1 0 0 0 0 1 forward_v I I I I #
coedge $-1 $402 $285 $288 $410 forward $278 $-1 #
coedge $-1 $285 $402 $280 $401 reversed $278 $-1 #
edge $-1 $407 -14.050493061815283 $414 14.050493061815283 $400 $477 forward 7 unknown #
coedge $-1 $400 $399 $281 $403 reversed $278 $-1 #
edge $-1 $414 -66.863612781151772 $404 66.863612781151772 $402 $478 forward 7 unknown #
vertex $-1 $283 $479 #
straight-curve $-1 66.863612781151772 0 -14.050493061815283 0 -1 0 I I #
edge $-1 $407 -43.359217388845586 $296 43.359217388845586 $294 $480 forward 7 unknown #
vertex $-1 $286 $481 #
straight-curve $-1 0 43.359217388845586 14.050493061815283 -1 0 0 I I #
straight-curve $-1 0 -43.359217388845586 14.050493061815283 1 0 0 I I #
edge $-1 $291 -14.050493061815283 $404 14.050493061815283 $288 $482 forward 7 unknown #
point $-1 66.863612781151772 -43.359217388845586 14.050493061815283 #
point $-1 66.863612781151772 43.359217388845586 14.050493061815283 #
point $-1 -66.863612781151772 -43.359217388845586 14.050493061815283 #
vertex $-1 $403 $483 #
straight-curve $-1 -66.863612781151772 0 -14.050493061815283 0 1 0 I I #
plane-surface $-1 0 0 14.050493061815283 0 0 1 1 0 0 forward_v I I I I #
coedge $-1 $309 $429 $418 $484 forward $302 $-1 #
coedge $-1 $305 $304 $417 $484 reversed $121 $-1 #
edge $-1 $425 -4.1135222935056674 $423 4.1135222935056674 $304 $485 forward 7 unknown #
coedge $-1 $317 $316 $305 $421 forward $318 $-1 #
edge $-1 $422 -4.1135222935056674 $486 4.1135222935056674 $305 $487 forward 7 unknown #
vertex $-1 $321 $488 #
vertex $-1 $311 $489 #
straight-curve $-1 -46.989671244532545 -57.411417075081353 0 0 0 -1 I I #
vertex $-1 $484 $490 #
straight-curve $-1 -38.76262665752121 -50.385317231963469 -14.050493061815283 0 -1 0 I I #
straight-curve $-1 -46.989671244532545 -50.385317231963469 -14.050493061815283 0 1 0 I I #
point $-1 -38.76262665752121 -43.359217388845586 -14.050493061815283 #
coedge $-1 $417 $314 $317 $431 reversed $302 $-1 #
straight-curve $-1 -38.76262665752121 -43.359217388845586 0 0 0 -1 I I #
edge $-1 $486 -7.0260998431178834 $319 7.0260998431178834 $429 $491 forward 7 unknown #
point $-1 -38.76262665752121 -43.359217388845586 14.050493061815283 #
straight-curve $-1 -46.989671244532545 -50.385317231963469 14.050493061815283 0 -1 0 I I #
plane-surface $-1 66.863612781151772 0 0 -1 0 0 0 0 1 forward_v I I I I #
coedge $-1 $492 $327 $341 $446 forward $213 $-1 #
coedge $-1 $327 $492 $332 $441 forward $213 $-1 #
edge $-1 $493 -14.050493061815283 $339 -8.7173346278109083 $337 $494 forward 7 unknown #
straight-curve $-1 -66.863612781151772 17.736032746789167 8.7173346278109083 0 -1 0 I I #
vertex $-1 $446 $495 #
straight-curve $-1 0 27.58491359831109 14.050493061815283 1 0 0 I I #
edge $-1 $493 -43.359217388845586 $334 -27.58491359831109 $332 $496 forward 7 unknown #
point $-1 -66.863612781151772 27.58491359831109 8.7173346278109083 #
point $-1 -66.863612781151772 27.58491359831109 14.050493061815283 #
coedge $-1 $338 $337 $492 $497 reversed $325 $-1 #
point $-1 -66.863612781151772 43.359217388845579 8.7173346278109083 #
edge $-1 $439 27.58491359831109 $447 43.359217388845586 $341 $498 forward 7 unknown #
vertex $-1 $446 $499 #
straight-curve $-1 66.863612781151772 43.359217388845586 0 0 0 -1 I I #
straight-curve $-1 66.863612781151772 27.58491359831109 5.6919569224065478 0 0 -1 I I #
edge $-1 $451 81.746463313177159 $454 91.912236089978549 $347 $500 forward 7 unknown #
vertex $-1 $361 $501 #
straight-curve $-1 44.955703055017366 -8.5632456440529268 14.050493061815288 1 0 0 I I #
edge $-1 $454 -6.1064692980113939 $358 1.1929166059283283 $357 $502 forward 7 unknown #
vertex $-1 $453 $503 #
straight-curve $-1 -15.467086786892239 -8.5632456440529268 109.26321318194087 -0.61566146476048833 0 0.78801076186113728 I I #
point $-1 58.921240847796454 -8.5632456440529268 14.050493061815288 #
point $-1 66.863612781151787 -1.2638597401132046 3.8847202850138984 #
straight-curve $-1 66.863612781151772 0 14.050493061815283 0 1 0 I I #
vertex $-1 $364 $504 #
point $-1 62.412246784993208 -6.4777068143558623 7.9579398277235258 #
vertex $-1 $368 $505 #
point $-1 62.412246784993208 -3.3493985698102691 7.9579398277235258 #
coedge $-1 $383 $382 $375 $464 forward $372 $-1 #
edge $-1 $465 25.708051900502035 $468 36.944238965404267 $463 $506 forward 7 unknown #
vertex $-1 $387 $507 #
straight-curve $-1 -88.203272032661062 7.360370903595971 14.050493061815281 -1 0 0 I I #
edge $-1 $468 -6.0495952040051186 $384 3.4280438048234139 $383 $508 forward 7 unknown #
vertex $-1 $467 $509 #
straight-curve $-1 -66.863612781151801 7.360370903595971 2.8143059969130064 0.57357642473473569 0 0.81915205242281985 I I #
point $-1 -58.995950135034512 7.360370903595971 14.050493061815283 #
point $-1 -66.863612781151772 -2.1172681052325615 2.8143059969130468 #
straight-curve $-1 -66.863612781151772 0 14.050493061815283 0 -1 0 I I #
vertex $-1 $390 $510 #
point $-1 -60.602429163317865 0.59062875443273555 8.0235445343179936 #
vertex $-1 $394 $511 #
point $-1 -60.602429163317865 4.652474043930674 8.0235445343179936 #
straight-curve $-1 -66.863612781151772 43.359217388845586 0 0 0 -1 I I #
straight-curve $-1 0 43.359217388845586 -14.050493061815283 1 0 0 I I #
point $-1 66.863612781151772 43.359217388845586 -14.050493061815283 #
straight-curve $-1 -66.863612781151772 0 14.050493061815283 0 -1 0 I I #
point $-1 -66.863612781151772 43.359217388845586 14.050493061815283 #
straight-curve $-1 66.863612781151772 43.359217388845586 0 0 0 -1 I I #
point $-1 -66.863612781151772 43.359217388845586 -14.050493061815283 #
edge $-1 $486 -14.050493061815283 $425 14.050493061815283 $417 $512 forward 7 unknown #
straight-curve $-1 -42.876148951026877 -57.411417075081353 -14.050493061815283 -1 0 0 I I #
vertex $-1 $431 $513 #
straight-curve $-1 -42.876148951026877 -57.411417075081353 14.050493061815283 1 0 0 I I #
point $-1 -46.989671244532545 -57.411417075081353 14.050493061815283 #
point $-1 -46.989671244532545 -57.411417075081353 -14.050493061815283 #
point $-1 -38.76262665752121 -57.411417075081353 -14.050493061815283 #
straight-curve $-1 -38.76262665752121 -50.385317231963469 14.050493061815283 0 1 0 I I #
coedge $-1 $436 $435 $444 $497 forward $213 $-1 #
vertex $-1 $497 $514 #
straight-curve $-1 -66.863612781151772 43.359217388845586 0 0 0 -1 I I #
point $-1 66.863612781151772 27.58491359831109 14.050493061815283 #
straight-curve $-1 -66.863612781151772 0 14.050493061815283 0 -1 0 I I #
edge $-1 $447 -66.863612781151772 $493 66.863612781151772 $444 $515 forward 7 unknown #
straight-curve $-1 66.863612781151772 0 14.050493061815283 0 1 0 I I #
point $-1 66.863612781151772 43.359217388845586 14.050493061815283 #
straight-curve $-1 66.863612781151772 -8.5632456440529268 95.796956374992448 0 0 -1 I I #
point $-1 66.863612781151772 -8.5632456440529268 14.050493061815283 #
straight-curve $-1 66.863612781151772 -2.4567763460415328 3.8847202850138913 0 1 0 I I #
point $-1 66.863612781151787 -8.5632456440529268 3.8847202850138984 #
point $-1 61.710410671682396 -6.4777068143558623 8.044114476273851 #
point $-1 61.710410671682396 -3.3493985698102691 8.044114476273851 #
straight-curve $-1 -66.863612781151772 7.360370903595971 39.758544962317316 0 0 -1 I I #
point $-1 -66.863612781151772 7.360370903595971 14.050493061815283 #
straight-curve $-1 -66.863612781151772 1.3107756995908524 2.8143059969130557 0 -1 0 I I #
point $-1 -66.863612781151772 7.360370903595971 2.8143059969130468 #
point $-1 -60.356853535629782 0.59062875443273555 6.6308160571604375 #
point $-1 -60.356853535629782 4.652474043930674 6.6308160571604375 #
straight-curve $-1 -38.76262665752121 -57.411417075081353 0 0 0 -1 I I #
point $-1 -38.76262665752121 -57.411417075081353 14.050493061815283 #
point $-1 -66.863612781151772 43.359217388845586 14.050493061815283 #
straight-curve $-1 0 43.359217388845586 14.050493061815283 -1 0 0 I I #
End-of-ACIS-data 