500 0 10 0           
7 Unknown 11 ACIS 5.0 NT 24 Fri Mar 26 20:00:04 1999 
-1 9.9999999999999995e-007 1e-010 
body $-1 $10 $-1 $11 #
body $-1 $12 $-1 $13 #
body $-1 $14 $-1 $15 #
body $-1 $16 $-1 $17 #
body $-1 $18 $-1 $19 #
body $-1 $20 $-1 $21 #
body $-1 $22 $-1 $23 #
body $-1 $24 $-1 $25 #
body $-1 $26 $-1 $27 #
body $-1 $28 $-1 $29 #
lump $-1 $-1 $30 $0 #
transform $-1 1 0 0 0 1 0 0 0 1 71.275368511001915 28.900381515270659 10.044088706862109 1 rotate no_reflect no_shear #
lump $-1 $-1 $31 $1 #
transform $-1 1 0 0 0 1 0 0 0 1 71.275368511001915 28.900381515270659 10.044088706862109 1 rotate no_reflect no_shear #
lump $-1 $-1 $32 $2 #
transform $-1 1 0 0 0 1 0 0 0 1 71.275368511001915 28.900381515270659 10.044088706862109 1 rotate no_reflect no_shear #
lump $-1 $-1 $33 $3 #
transform $-1 1 0 0 0 1 0 0 0 1 71.275368511001915 28.900381515270659 10.044088706862109 1 rotate no_reflect no_shear #
lump $-1 $-1 $34 $4 #
transform $-1 1 0 0 0 1 0 0 0 1 71.275368511001915 28.900381515270659 10.044088706862109 1 rotate no_reflect no_shear #
lump $-1 $-1 $35 $5 #
transform $-1 1 0 0 0 1 0 0 0 1 71.275368511001915 28.900381515270659 10.044088706862109 1 rotate no_reflect no_shear #
lump $-1 $-1 $36 $6 #
transform $-1 1 0 0 0 1 0 0 0 1 71.275368511001915 28.900381515270659 10.044088706862109 1 rotate no_reflect no_shear #
lump $-1 $-1 $37 $7 #
transform $-1 1 0 0 0 1 0 0 0 1 71.275368511001915 28.900381515270659 10.044088706862109 1 rotate no_reflect no_shear #
lump $-1 $-1 $38 $8 #
transform $-1 1 0 0 0 1 0 0 0 1 71.275368511001915 28.900381515270659 10.044088706862109 1 rotate no_reflect no_shear #
lump $-1 $-1 $39 $9 #
transform $-1 1 0 0 0 1 0 0 0 1 71.275368511001915 28.900381515270659 10.044088706862109 1 rotate no_reflect no_shear #
shell $-1 $-1 $-1 $40 $-1 $10 #
shell $-1 $-1 $-1 $41 $-1 $12 #
shell $-1 $-1 $-1 $42 $-1 $14 #
shell $-1 $-1 $-1 $43 $-1 $16 #
shell $-1 $-1 $-1 $44 $-1 $18 #
shell $-1 $-1 $-1 $45 $-1 $20 #
shell $-1 $-1 $-1 $46 $-1 $22 #
shell $-1 $-1 $-1 $47 $-1 $24 #
shell $-1 $-1 $-1 $48 $-1 $26 #
shell $-1 $-1 $-1 $49 $-1 $28 #
face $-1 $50 $51 $30 $-1 $52 forward single #
face $-1 $53 $54 $31 $-1 $55 reversed single #
face $-1 $56 $57 $32 $-1 $58 reversed single #
face $-1 $59 $60 $33 $-1 $61 forward single #
face $-1 $62 $63 $34 $-1 $64 forward single #
face $-1 $65 $66 $35 $-1 $67 reversed single #
face $-1 $68 $69 $36 $-1 $70 forward single #
face $-1 $71 $72 $37 $-1 $73 forward single #
face $-1 $74 $75 $38 $-1 $76 reversed single #
face $-1 $77 $78 $39 $-1 $79 forward single #
face $-1 $80 $81 $30 $-1 $82 reversed single #
loop $-1 $-1 $83 $40 #
plane-surface $-1 0 0 10.044088706862109 0 0 1 1 0 0 forward_v I I I I #
face $-1 $84 $85 $31 $-1 $86 reversed single #
loop $-1 $-1 $87 $41 #
plane-surface $-1 0 -23.011333705251054 5.9232750186443868 0 0 1 1 0 0 forward_v I I I I #
face $-1 $88 $89 $32 $-1 $90 reversed single #
loop $-1 $-1 $91 $42 #
plane-surface $-1 -159.03836667532033 -6.5949601570442091 115.55441936657489 0 1 0 -0.61566148304635926 0 0.78801074757464917 forward_v I I I I #
face $-1 $92 $93 $33 $-1 $94 forward single #
loop $-1 $95 $96 $43 #
cone-surface $-1 -66.578139709746026 -3.9363753701624233 6.2087216541368644 0.61566148304635926 0 -0.78801074757464917 0.78801074757464917 0 0.61566148304635926 1 I I 0 1 1 forward I I I I #
face $-1 $97 $98 $34 $-1 $99 forward single #
loop $-1 $100 $101 $44 #
cone-surface $-1 -66.578139709746026 0.051501810160253569 6.2087216541368644 0.61566148304635926 0 -0.78801074757464917 0.78801074757464917 0 0.61566148304635926 1 I I 0 1 1 forward I I I I #
face $-1 $102 $103 $35 $-1 $104 reversed single #
loop $-1 $-1 $105 $45 #
plane-surface $-1 -159.03836667532033 9.0680090229971739 115.55441936657489 0 1 0 -0.61566148304635926 0 0.78801074757464917 forward_v I I I I #
face $-1 $106 $107 $36 $-1 $108 forward single #
loop $-1 $109 $110 $46 #
cone-surface $-1 -66.578139709746026 11.726593809878956 6.2087216541368644 0.61566148304635926 0 -0.78801074757464917 0.78801074757464917 0 0.61566148304635926 1 I I 0 1 1 forward I I I I #
face $-1 $111 $112 $37 $-1 $113 forward single #
loop $-1 $114 $115 $47 #
cone-surface $-1 -66.578139709746026 15.71447099020164 6.2087216541368644 0.61566148304635926 0 -0.78801074757464917 0.78801074757464917 0 0.61566148304635926 1 I I 0 1 1 forward I I I I #
face $-1 $116 $117 $38 $-1 $118 reversed single #
loop $-1 $-1 $119 $48 #
plane-surface $-1 32.808813786383112 -3.8279655231503975 201.88042080730671 0 -1 0 -0.55919291073839883 0 -0.82903756765294845 forward_v I I I I #
face $-1 $120 $121 $39 $-1 $122 forward single #
loop $-1 $123 $124 $49 #
cone-surface $-1 65.227657240330146 -10.475125709190923 4.7060591572162611 -0.55919291073839883 0 -0.82903756765294845 1.2435563514794228 0 -0.83878936610759824 1 I I 0 1 1.5 forward I I I I #
face $-1 $125 $126 $30 $-1 $127 reversed single #
loop $-1 $-1 $128 $50 #
plane-surface $-1 0 0 -10.044088706862109 0 0 1 1 0 0 forward_v I I I I #
coedge $-1 $129 $130 $131 $132 forward $51 $-1 #
face $-1 $133 $134 $31 $-1 $135 reversed single #
loop $-1 $-1 $136 $53 #
plane-surface $-1 0 -17.12228589523145 7.9836818627532473 0 -1 0 0 0 -1 forward_v I I I I #
coedge $-1 $137 $138 $139 $140 reversed $54 $-1 #
face $-1 $141 $142 $32 $-1 $143 reversed single #
loop $-1 $-1 $144 $56 #
plane-surface $-1 -71.275368511001901 -1.9424367800010849 3.2229065185484274 -0.61566148304635926 0 0.78801074757464917 0.78801074757464917 0 0.61566148304635926 forward_v I I I I #
coedge $-1 $145 $146 $147 $148 reversed $57 $-1 #
face $-1 $-1 $149 $33 $-1 $150 forward single #
loop $-1 $151 $152 $59 #
cone-surface $-1 -65.93843761060549 -3.9363753701624233 5.3899403217811326 0.61566148304635926 0 -0.78801074757464917 0.39400537378732459 0 0.30783074152317963 1 I I -0.70710678118654746 0.70710678118654746 0.5 forward I I I I #
loop $-1 $-1 $153 $43 #
coedge $-1 $96 $96 $154 $155 reversed $60 $-1 #
face $-1 $-1 $156 $34 $-1 $157 forward single #
loop $-1 $158 $159 $62 #
cone-surface $-1 -65.93843761060549 0.051501810160253569 5.3899403217811326 0.61566148304635926 0 -0.78801074757464917 0.39400537378732459 0 0.30783074152317963 1 I I -0.70710678118654746 0.70710678118654746 0.5 forward I I I I #
loop $-1 $-1 $160 $44 #
coedge $-1 $101 $101 $161 $162 reversed $63 $-1 #
face $-1 $163 $164 $35 $-1 $165 reversed single #
loop $-1 $-1 $166 $65 #
plane-surface $-1 -71.275368511001901 13.720532400040298 3.2229065185484274 -0.61566148304635926 0 0.78801074757464917 0.78801074757464917 0 0.61566148304635926 forward_v I I I I #
coedge $-1 $167 $168 $169 $170 reversed $66 $-1 #
face $-1 $-1 $171 $36 $-1 $172 forward single #
loop $-1 $173 $174 $68 #
cone-surface $-1 -65.93843761060549 11.726593809878956 5.3899403217811326 0.61566148304635926 0 -0.78801074757464917 0.39400537378732459 0 0.30783074152317963 1 I I -0.70710678118654746 0.70710678118654746 0.5 forward I I I I #
loop $-1 $-1 $175 $46 #
coedge $-1 $110 $110 $176 $177 reversed $69 $-1 #
face $-1 $-1 $178 $37 $-1 $179 forward single #
loop $-1 $180 $181 $71 #
cone-surface $-1 -65.93843761060549 15.71447099020164 5.3899403217811326 0.61566148304635926 0 -0.78801074757464917 0.39400537378732459 0 0.30783074152317963 1 I I -0.70710678118654746 0.70710678118654746 0.5 forward I I I I #
loop $-1 $-1 $182 $47 #
coedge $-1 $115 $115 $183 $184 reversed $72 $-1 #
face $-1 $185 $186 $38 $-1 $187 forward single #
loop $-1 $-1 $188 $74 #
plane-surface $-1 -46.904547776855239 -10.475125709190923 83.700504519449538 0.55919291073839883 0 0.82903756765294845 0.82903756765294845 0 -0.55919291073839883 forward_v I I I I #
coedge $-1 $189 $190 $191 $192 reversed $75 $-1 #
face $-1 $-1 $193 $39 $-1 $194 forward single #
loop $-1 $195 $196 $77 #
cone-surface $-1 63.250446880859187 -10.475125709190923 1.7747243071561662 -0.55919291073839883 0 -0.82903756765294845 0.62177817573971139 0 -0.41939468305379912 1 I I -0.70710678118654757 0.70710678118654757 0.75 forward I I I I #
loop $-1 $-1 $197 $49 #
coedge $-1 $124 $124 $198 $199 reversed $78 $-1 #
face $-1 $200 $201 $30 $-1 $202 reversed single #
loop $-1 $-1 $203 $80 #
plane-surface $-1 0 -28.900381515270659 0 0 1 0 0 0 1 forward_v I I I I #
coedge $-1 $204 $205 $206 $207 forward $81 $-1 #
coedge $-1 $208 $83 $209 $210 forward $51 $-1 #
coedge $-1 $83 $208 $211 $212 forward $51 $-1 #
coedge $-1 $213 $214 $83 $132 reversed $215 $-1 #
edge $-1 $216 -28.900381515270659 $217 28.900381515270659 $131 $218 forward 7 unknown #
face $-1 $219 $220 $31 $-1 $221 reversed single #
loop $-1 $-1 $222 $84 #
plane-surface $-1 -71.275368511001915 0 0 1 0 0 0 0 -1 forward_v I I I I #
coedge $-1 $223 $224 $225 $226 reversed $85 $-1 #
coedge $-1 $227 $87 $228 $229 reversed $54 $-1 #
coedge $-1 $87 $227 $223 $230 forward $54 $-1 #
coedge $-1 $225 $231 $87 $140 forward $232 $-1 #
edge $-1 $233 -17.394714662645132 $234 -5.6166190426059224 $139 $235 forward 7 unknown #
face $-1 $236 $237 $32 $-1 $238 forward single #
loop $-1 $-1 $239 $88 #
plane-surface $-1 -159.03836667532033 2.7100865970420394 115.55441936657489 0 -1 0 0.61566148304635926 0 -0.78801074757464917 forward_v I I I I #
coedge $-1 $240 $241 $242 $243 reversed $89 $-1 #
coedge $-1 $146 $91 $244 $245 reversed $57 $-1 #
coedge $-1 $91 $145 $240 $246 reversed $57 $-1 #
coedge $-1 $242 $247 $91 $148 forward $237 $-1 #
edge $-1 $248 8.2438148266582516 $249 16.974529713935368 $147 $250 forward 7 unknown #
loop $-1 $-1 $154 $92 #
plane-surface $-1 -71.275368511001901 -1.9424367800010849 3.2229065185484274 -0.61566148304635926 0 0.78801074757464917 0.78801074757464917 0 0.61566148304635926 forward_v I I I I #
loop $-1 $-1 $251 $59 #
coedge $-1 $152 $152 $153 $252 reversed $93 $-1 #
coedge $-1 $153 $153 $152 $252 forward $95 $-1 #
coedge $-1 $154 $154 $96 $155 forward $149 $-1 #
edge $-1 $253 0 $253 6.2831853071796004 $154 $254 forward 7 unknown #
loop $-1 $-1 $161 $97 #
plane-surface $-1 -71.275368511001901 -1.9424367800010849 3.2229065185484274 -0.61566148304635926 0 0.78801074757464917 0.78801074757464917 0 0.61566148304635926 forward_v I I I I #
loop $-1 $-1 $255 $62 #
coedge $-1 $159 $159 $160 $256 reversed $98 $-1 #
coedge $-1 $160 $160 $159 $256 forward $100 $-1 #
coedge $-1 $161 $161 $101 $162 forward $156 $-1 #
edge $-1 $257 0 $257 6.2831853071796004 $161 $258 forward 7 unknown #
face $-1 $259 $260 $35 $-1 $261 forward single #
loop $-1 $-1 $262 $102 #
plane-surface $-1 -159.03836667532033 18.373055777083422 115.55441936657489 0 -1 0 0.61566148304635926 0 -0.78801074757464917 forward_v I I I I #
coedge $-1 $263 $264 $265 $266 reversed $103 $-1 #
coedge $-1 $168 $105 $267 $268 reversed $66 $-1 #
coedge $-1 $105 $167 $263 $269 reversed $66 $-1 #
coedge $-1 $265 $270 $105 $170 forward $260 $-1 #
edge $-1 $271 8.2438148266582516 $272 16.974529713935368 $169 $273 forward 7 unknown #
loop $-1 $-1 $176 $106 #
plane-surface $-1 -71.275368511001901 13.720532400040298 3.2229065185484274 -0.61566148304635926 0 0.78801074757464917 0.78801074757464917 0 0.61566148304635926 forward_v I I I I #
loop $-1 $-1 $274 $68 #
coedge $-1 $174 $174 $175 $275 reversed $107 $-1 #
coedge $-1 $175 $175 $174 $275 forward $109 $-1 #
coedge $-1 $176 $176 $110 $177 forward $171 $-1 #
edge $-1 $276 0 $276 6.2831853071796004 $176 $277 forward 7 unknown #
loop $-1 $-1 $183 $111 #
plane-surface $-1 -71.275368511001901 13.720532400040298 3.2229065185484274 -0.61566148304635926 0 0.78801074757464917 0.78801074757464917 0 0.61566148304635926 forward_v I I I I #
loop $-1 $-1 $278 $71 #
coedge $-1 $181 $181 $182 $279 reversed $112 $-1 #
coedge $-1 $182 $182 $181 $279 forward $114 $-1 #
coedge $-1 $183 $183 $115 $184 forward $178 $-1 #
edge $-1 $280 0 $280 6.2831853071796004 $183 $281 forward 7 unknown #
face $-1 $282 $283 $38 $-1 $284 forward single #
loop $-1 $-1 $285 $116 #
plane-surface $-1 0 -17.12228589523145 7.9836818627532473 0 -1 0 0 0 -1 forward_v I I I I #
coedge $-1 $286 $287 $288 $289 reversed $117 $-1 #
coedge $-1 $190 $119 $290 $291 reversed $75 $-1 #
coedge $-1 $119 $189 $286 $292 reversed $75 $-1 #
coedge $-1 $288 $293 $119 $192 forward $283 $-1 #
edge $-1 $294 -54.870961617810359 $295 -45.89117042930112 $191 $296 forward 7 unknown #
loop $-1 $-1 $198 $120 #
plane-surface $-1 -46.904547776855239 -10.475125709190923 83.700504519449538 0.55919291073839883 0 0.82903756765294845 0.82903756765294845 0 -0.55919291073839883 forward_v I I I I #
loop $-1 $-1 $297 $77 #
coedge $-1 $196 $196 $197 $298 reversed $121 $-1 #
coedge $-1 $197 $197 $196 $298 forward $123 $-1 #
coedge $-1 $198 $198 $124 $199 forward $193 $-1 #
edge $-1 $299 0 $299 6.2831853071796004 $198 $300 forward 7 unknown #
face $-1 $301 $302 $30 $-1 $303 reversed single #
loop $-1 $-1 $304 $125 #
plane-surface $-1 -71.275368511001915 0 0 1 0 0 0 0 -1 forward_v I I I I #
coedge $-1 $305 $211 $306 $307 forward $126 $-1 #
coedge $-1 $308 $128 $305 $309 forward $81 $-1 #
coedge $-1 $128 $308 $310 $311 forward $81 $-1 #
coedge $-1 $214 $213 $128 $207 reversed $215 $-1 #
edge $-1 $312 -28.900381515270659 $313 28.900381515270659 $206 $314 forward 7 unknown #
coedge $-1 $130 $129 $315 $316 forward $51 $-1 #
coedge $-1 $317 $318 $129 $210 reversed $302 $-1 #
edge $-1 $217 -71.275368511001915 $319 71.275368511001915 $209 $320 forward 7 unknown #
coedge $-1 $203 $321 $130 $212 reversed $126 $-1 #
edge $-1 $322 -71.275368511001915 $216 71.275368511001915 $211 $323 forward 7 unknown #
coedge $-1 $206 $131 $321 $324 forward $215 $-1 #
coedge $-1 $131 $206 $317 $325 reversed $215 $-1 #
loop $-1 $-1 $213 $301 #
vertex $-1 $132 $326 #
vertex $-1 $132 $327 #
straight-curve $-1 71.275368511001915 0 10.044088706862109 0 1 0 I I #
face $-1 $328 $329 $31 $-1 $330 forward single #
loop $-1 $-1 $228 $133 #
plane-surface $-1 0 -28.900381515270659 0 0 1 0 0 0 1 forward_v I I I I #
coedge $-1 $331 $332 $333 $334 forward $134 $-1 #
coedge $-1 $333 $136 $138 $230 reversed $85 $-1 #
coedge $-1 $136 $333 $335 $336 reversed $85 $-1 #
coedge $-1 $337 $139 $136 $226 forward $232 $-1 #
edge $-1 $234 1.9314340872677631 $338 6.0522477754854851 $225 $339 forward 7 unknown #
coedge $-1 $138 $137 $331 $340 reversed $54 $-1 #
coedge $-1 $341 $342 $137 $229 forward $220 $-1 #
edge $-1 $343 -71.275368511001915 $233 71.275368511001915 $228 $344 forward 7 unknown #
edge $-1 $345 -71.275368511001915 $234 71.275368511001915 $223 $346 forward 7 unknown #
coedge $-1 $139 $337 $341 $347 forward $232 $-1 #
loop $-1 $-1 $225 $328 #
vertex $-1 $229 $348 #
vertex $-1 $140 $349 #
straight-curve $-1 71.275368511001915 -11.505666852625527 5.9232750186443868 0 1 0 I I #
face $-1 $-1 $350 $32 $-1 $351 reversed single #
loop $-1 $-1 $147 $141 #
plane-surface $-1 0 0 10.044088706862109 0 0 1 1 0 0 forward_v I I I I #
coedge $-1 $352 $353 $354 $355 reversed $142 $-1 #
coedge $-1 $356 $144 $146 $246 forward $89 $-1 #
coedge $-1 $144 $356 $352 $357 forward $89 $-1 #
coedge $-1 $354 $147 $144 $243 forward $237 $-1 #
edge $-1 $249 -5.6237417670436667 $358 3.6813049870425818 $242 $359 forward 7 unknown #
coedge $-1 $360 $361 $145 $245 forward $350 $-1 #
edge $-1 $362 -54.554303164739032 $248 -47.73312097642534 $244 $363 forward 7 unknown #
edge $-1 $249 -11.07943630737096 $362 1.8033521786330445e-014 $146 $364 forward 7 unknown #
coedge $-1 $147 $354 $360 $365 forward $237 $-1 #
vertex $-1 $245 $366 #
vertex $-1 $148 $367 #
straight-curve $-1 -79.519183337660166 -6.5949601570442091 10.044088706862105 1 0 0 I I #
coedge $-1 $251 $251 $-1 $368 reversed $151 $-1 #
edge $-1 $369 0 $369 6.2831853071796004 $152 $370 forward 7 unknown #
vertex $-1 $155 $371 #
ellipse-curve $-1 -66.910011067363371 -3.9363753701624233 6.6334976127052556 -0.61566148304635926 0 0.78801074757464917 0.78801074757464917 0 0.61566148304635926 1 I I #
coedge $-1 $255 $255 $-1 $372 reversed $158 $-1 #
edge $-1 $373 0 $373 6.2831853071796004 $159 $374 forward 7 unknown #
vertex $-1 $162 $375 #
ellipse-curve $-1 -66.910011067363371 0.051501810160253569 6.6334976127052556 -0.61566148304635926 0 0.78801074757464917 0.78801074757464917 0 0.61566148304635926 1 I I #
face $-1 $-1 $376 $35 $-1 $377 reversed single #
loop $-1 $-1 $169 $163 #
plane-surface $-1 0 0 10.044088706862109 0 0 1 1 0 0 forward_v I I I I #
coedge $-1 $378 $379 $380 $381 reversed $164 $-1 #
coedge $-1 $382 $166 $168 $269 forward $103 $-1 #
coedge $-1 $166 $382 $378 $383 forward $103 $-1 #
coedge $-1 $380 $169 $166 $266 forward $260 $-1 #
edge $-1 $272 2.2077428229770248 $384 11.512789577063273 $265 $385 forward 7 unknown #
coedge $-1 $386 $387 $167 $268 forward $376 $-1 #
edge $-1 $388 -54.554303164739032 $271 -47.73312097642534 $267 $389 forward 7 unknown #
edge $-1 $272 -11.07943630737096 $388 1.8033521786330445e-014 $168 $390 forward 7 unknown #
coedge $-1 $169 $380 $386 $391 forward $260 $-1 #
vertex $-1 $170 $392 #
vertex $-1 $170 $393 #
straight-curve $-1 -79.519183337660166 9.0680090229971739 10.044088706862105 1 0 0 I I #
coedge $-1 $274 $274 $-1 $394 reversed $173 $-1 #
edge $-1 $395 0 $395 6.2831853071796004 $174 $396 forward 7 unknown #
vertex $-1 $177 $397 #
ellipse-curve $-1 -66.910011067363371 11.726593809878956 6.6334976127052556 -0.61566148304635926 0 0.78801074757464917 0.78801074757464917 0 0.61566148304635926 1 I I #
coedge $-1 $278 $278 $-1 $398 reversed $180 $-1 #
edge $-1 $399 0 $399 6.2831853071796004 $181 $400 forward 7 unknown #
vertex $-1 $184 $401 #
ellipse-curve $-1 -66.910011067363371 15.71447099020164 6.6334976127052556 -0.61566148304635926 0 0.78801074757464917 0.78801074757464917 0 0.61566148304635926 1 I I #
face $-1 $-1 $402 $38 $-1 $403 reversed single #
loop $-1 $-1 $288 $185 #
plane-surface $-1 0 0 10.044088706862109 0 0 1 1 0 0 forward_v I I I I #
coedge $-1 $404 $405 $287 $406 reversed $186 $-1 #
coedge $-1 $407 $188 $190 $292 forward $117 $-1 #
coedge $-1 $188 $407 $285 $406 forward $117 $-1 #
coedge $-1 $408 $191 $188 $289 forward $283 $-1 #
edge $-1 $295 -1.4095973314450641 $409 11.884723040635988 $288 $410 forward 7 unknown #
coedge $-1 $411 $412 $189 $291 forward $402 $-1 #
edge $-1 $413 -96.953067447442166 $294 -90.896121696791241 $290 $414 forward 7 unknown #
edge $-1 $295 131.71915165255967 $413 142.55073702200383 $190 $415 forward 7 unknown #
coedge $-1 $191 $408 $411 $416 forward $283 $-1 #
vertex $-1 $291 $417 #
vertex $-1 $192 $418 #
straight-curve $-1 16.404406893191556 -3.8279655231503975 10.044088706862112 -1 0 0 I I #
coedge $-1 $297 $297 $-1 $419 reversed $195 $-1 #
edge $-1 $420 0 $420 6.2831853071796004 $196 $421 forward 7 unknown #
vertex $-1 $199 $422 #
ellipse-curve $-1 66.78547291674731 -10.475125709190923 7.0156158315366497 0.55919291073839883 0 0.82903756765294845 1.2435563514794228 0 -0.83878936610759824 1 I I #
face $-1 $-1 $215 $30 $-1 $423 reversed single #
loop $-1 $-1 $317 $200 #
plane-surface $-1 0 28.900381515270659 0 0 -1 0 0 0 -1 forward_v I I I I #
coedge $-1 $424 $315 $318 $425 forward $201 $-1 #
coedge $-1 $321 $203 $204 $309 reversed $126 $-1 #
coedge $-1 $315 $424 $203 $307 reversed $201 $-1 #
edge $-1 $322 -10.044088706862109 $426 10.044088706862109 $306 $427 forward 7 unknown #
coedge $-1 $205 $204 $424 $428 forward $81 $-1 #
edge $-1 $313 -71.275368511001915 $426 71.275368511001915 $305 $429 forward 7 unknown #
coedge $-1 $318 $317 $205 $311 reversed $302 $-1 #
edge $-1 $430 -71.275368511001915 $312 71.275368511001915 $310 $431 forward 7 unknown #
vertex $-1 $207 $432 #
vertex $-1 $324 $433 #
straight-curve $-1 71.275368511001915 0 -10.044088706862109 0 -1 0 I I #
coedge $-1 $304 $306 $208 $316 reversed $201 $-1 #
edge $-1 $319 -28.900381515270659 $322 28.900381515270659 $315 $434 forward 7 unknown #
coedge $-1 $310 $209 $214 $325 forward $302 $-1 #
coedge $-1 $209 $310 $304 $425 reversed $302 $-1 #
vertex $-1 $210 $435 #
straight-curve $-1 0 28.900381515270659 10.044088706862109 -1 0 0 I I #
coedge $-1 $211 $305 $213 $324 reversed $126 $-1 #
vertex $-1 $316 $436 #
straight-curve $-1 0 -28.900381515270659 10.044088706862109 1 0 0 I I #
edge $-1 $216 -10.044088706862109 $313 10.044088706862109 $213 $437 forward 7 unknown #
edge $-1 $217 -10.044088706862109 $312 10.044088706862109 $214 $438 forward 7 unknown #
point $-1 71.275368511001915 -28.900381515270659 10.044088706862109 #
point $-1 71.275368511001915 28.900381515270659 10.044088706862109 #
face $-1 $-1 $232 $31 $-1 $439 reversed single #
loop $-1 $-1 $335 $219 #
plane-surface $-1 0 0 10.044088706862109 0 0 1 1 0 0 forward_v I I I I #
coedge $-1 $440 $222 $227 $340 forward $134 $-1 #
coedge $-1 $222 $440 $441 $442 reversed $134 $-1 #
coedge $-1 $224 $223 $222 $334 reversed $85 $-1 #
edge $-1 $443 -6.0522477754854851 $345 -1.9314340872677631 $222 $444 forward 7 unknown #
coedge $-1 $441 $445 $224 $336 forward $329 $-1 #
edge $-1 $338 -71.275368511001915 $443 71.275368511001915 $335 $446 forward 7 unknown #
coedge $-1 $231 $225 $445 $447 reversed $232 $-1 #
vertex $-1 $226 $448 #
straight-curve $-1 71.275368511001915 -17.12228589523145 3.9918409313766237 0 0 1 I I #
edge $-1 $345 5.6166190426059224 $343 17.394714662645132 $331 $449 forward 7 unknown #
coedge $-1 $450 $228 $231 $347 reversed $220 $-1 #
coedge $-1 $228 $450 $440 $451 forward $220 $-1 #
vertex $-1 $229 $452 #
straight-curve $-1 0 -28.900381515270659 5.9232750186443868 1 0 0 I I #
vertex $-1 $340 $453 #
straight-curve $-1 0 -17.12228589523145 5.9232750186443868 1 0 0 I I #
edge $-1 $454 -10.044088706862109 $233 -5.9232750186443868 $231 $455 forward 7 unknown #
point $-1 71.275368511001915 -28.900381515270659 5.9232750186443868 #
point $-1 71.275368511001915 -17.12228589523145 5.9232750186443868 #
loop $-1 $-1 $244 $236 #
plane-surface $-1 -71.275368511001915 0 0 1 0 0 0 0 -1 forward_v I I I I #
coedge $-1 $353 $239 $241 $357 reversed $142 $-1 #
coedge $-1 $239 $352 $456 $457 reversed $142 $-1 #
coedge $-1 $247 $242 $239 $355 forward $237 $-1 #
edge $-1 $358 -16.974529713935368 $458 -8.2438148266582516 $354 $459 forward 7 unknown #
coedge $-1 $241 $240 $361 $460 reversed $89 $-1 #
edge $-1 $461 -1.8033521786330445e-014 $358 11.07943630737096 $352 $462 forward 7 unknown #
vertex $-1 $243 $463 #
straight-curve $-1 -62.544653623724805 -0.97121839000054244 10.044088706862109 0 1 0 I I #
coedge $-1 $456 $244 $247 $365 reversed $350 $-1 #
coedge $-1 $244 $456 $356 $460 forward $350 $-1 #
vertex $-1 $245 $464 #
straight-curve $-1 -71.275368511001915 -6.5949601570442091 57.777209683287445 0 0 1 I I #
straight-curve $-1 -71.275368511001901 -6.5949601570442091 3.2229065185484274 -0.78801074757464917 0 -0.61566148304635926 I I #
edge $-1 $458 -2.7100865970420394 $248 6.5949601570442091 $360 $465 forward 7 unknown #
point $-1 -71.275368511001915 -6.5949601570442091 10.044088706862109 #
point $-1 -62.544653623724798 -6.5949601570442091 10.044088706862109 #
edge $-1 $466 1 $466 0 $251 $-1 forward 7 unknown #
vertex $-1 $252 $467 #
ellipse-curve $-1 -66.246268352128666 -3.9363753701624233 5.7839456955684572 -0.61566148304635926 0 0.78801074757464917 0.78801074757464917 0 0.61566148304635926 1 I I #
point $-1 -66.122000319788725 -3.9363753701624233 7.2491590957516312 #
edge $-1 $468 1 $468 0 $255 $-1 forward 7 unknown #
vertex $-1 $256 $469 #
ellipse-curve $-1 -66.246268352128666 0.051501810160253569 5.7839456955684572 -0.61566148304635926 0 0.78801074757464917 0.78801074757464917 0 0.61566148304635926 1 I I #
point $-1 -66.122000319788725 0.051501810160253569 7.2491590957516312 #
loop $-1 $-1 $267 $259 #
plane-surface $-1 -71.275368511001915 0 0 1 0 0 0 0 -1 forward_v I I I I #
coedge $-1 $379 $262 $264 $383 reversed $164 $-1 #
coedge $-1 $262 $378 $470 $471 reversed $164 $-1 #
coedge $-1 $270 $265 $262 $381 forward $260 $-1 #
edge $-1 $384 -16.974529713935368 $472 -8.2438148266582516 $380 $473 forward 7 unknown #
coedge $-1 $264 $263 $387 $474 reversed $103 $-1 #
edge $-1 $475 -1.8033521786330445e-014 $384 11.07943630737096 $378 $476 forward 7 unknown #
vertex $-1 $266 $477 #
straight-curve $-1 -62.544653623724805 6.8602662000201491 10.044088706862109 0 1 0 I I #
coedge $-1 $470 $267 $270 $391 reversed $376 $-1 #
coedge $-1 $267 $470 $382 $474 forward $376 $-1 #
vertex $-1 $268 $478 #
straight-curve $-1 -71.275368511001915 9.0680090229971739 57.777209683287445 0 0 1 I I #
straight-curve $-1 -71.275368511001901 9.0680090229971739 3.2229065185484274 -0.78801074757464917 0 -0.61566148304635926 I I #
edge $-1 $472 -18.373055777083422 $271 -9.0680090229971739 $386 $479 forward 7 unknown #
point $-1 -71.275368511001915 9.0680090229971739 10.044088706862109 #
point $-1 -62.544653623724798 9.0680090229971739 10.044088706862109 #
edge $-1 $480 1 $480 0 $274 $-1 forward 7 unknown #
vertex $-1 $275 $481 #
ellipse-curve $-1 -66.246268352128666 11.726593809878956 5.7839456955684572 -0.61566148304635926 0 0.78801074757464917 0.78801074757464917 0 0.61566148304635926 1 I I #
point $-1 -66.122000319788725 11.726593809878956 7.2491590957516312 #
edge $-1 $482 1 $482 0 $278 $-1 forward 7 unknown #
vertex $-1 $279 $483 #
ellipse-curve $-1 -66.246268352128666 15.71447099020164 5.7839456955684572 -0.61566148304635926 0 0.78801074757464917 0.78801074757464917 0 0.61566148304635926 1 I I #
point $-1 -66.122000319788725 15.71447099020164 7.2491590957516312 #
loop $-1 $-1 $290 $282 #
plane-surface $-1 71.275368511001915 0 0 -1 0 0 0 0 1 forward_v I I I I #
coedge $-1 $405 $285 $484 $485 reversed $186 $-1 #
coedge $-1 $285 $404 $408 $486 reversed $186 $-1 #
edge $-1 $487 -142.55073702200383 $409 -131.71915165255967 $285 $488 forward 7 unknown #
coedge $-1 $287 $286 $412 $489 reversed $117 $-1 #
coedge $-1 $293 $288 $405 $486 forward $283 $-1 #
vertex $-1 $486 $490 #
straight-curve $-1 62.295577322492697 -5.2375628545954616 10.044088706862105 0 -1 0 I I #
coedge $-1 $484 $290 $293 $416 reversed $402 $-1 #
coedge $-1 $290 $484 $407 $489 forward $402 $-1 #
vertex $-1 $291 $491 #
straight-curve $-1 71.275368511001915 -3.8279655231503975 100.94021040365335 0 0 1 I I #
straight-curve $-1 -46.904547776855239 -3.8279655231503975 83.700504519449538 0.82903756765294845 0 -0.55919291073839883 I I #
edge $-1 $492 -17.12228589523145 $294 -3.8279655231503975 $411 $493 forward 7 unknown #
point $-1 71.275368511001915 -3.8279655231503975 10.044088706862109 #
point $-1 62.295577322492676 -3.8279655231503975 10.044088706862112 #
edge $-1 $494 1 $494 0 $297 $-1 forward 7 unknown #
vertex $-1 $298 $495 #
ellipse-curve $-1 63.669841563912989 -10.475125709190923 2.3965024828958779 0.55919291073839883 0 0.82903756765294845 1.2435563514794228 0 -0.83878936610759824 1 I I #
point $-1 68.029029268226722 -10.475125709190923 6.1768264654290466 #
plane-surface $-1 71.275368511001915 0 0 -1 0 0 0 0 1 forward_v I I I I #
coedge $-1 $306 $304 $308 $428 reversed $201 $-1 #
edge $-1 $319 -10.044088706862109 $430 10.044088706862109 $318 $496 forward 7 unknown #
vertex $-1 $428 $497 #
straight-curve $-1 -71.275368511001915 -28.900381515270659 0 0 0 -1 I I #
edge $-1 $426 -28.900381515270659 $430 28.900381515270659 $424 $498 forward 7 unknown #
straight-curve $-1 0 -28.900381515270659 -10.044088706862109 -1 0 0 I I #
vertex $-1 $311 $499 #
straight-curve $-1 0 28.900381515270659 -10.044088706862109 1 0 0 I I #
point $-1 71.275368511001915 28.900381515270659 -10.044088706862109 #
point $-1 71.275368511001915 -28.900381515270659 -10.044088706862109 #
straight-curve $-1 -71.275368511001915 0 10.044088706862109 0 -1 0 I I #
point $-1 -71.275368511001915 28.900381515270659 10.044088706862109 #
point $-1 -71.275368511001915 -28.900381515270659 10.044088706862109 #
straight-curve $-1 71.275368511001915 -28.900381515270659 0 0 0 -1 I I #
straight-curve $-1 71.275368511001915 28.900381515270659 0 0 0 -1 I I #
plane-surface $-1 71.275368511001915 0 0 -1 0 0 0 0 1 forward_v I I I I #
coedge $-1 $332 $331 $342 $451 reversed $134 $-1 #
coedge $-1 $500 $335 $332 $442 forward $329 $-1 #
edge $-1 $443 17.12228589523145 $501 28.900381515270659 $332 $502 forward 7 unknown #
vertex $-1 $442 $503 #
straight-curve $-1 -71.275368511001915 -17.12228589523145 3.9918409313766237 0 0 -1 I I #
coedge $-1 $335 $500 $337 $447 forward $329 $-1 #
straight-curve $-1 0 -17.12228589523145 10.044088706862109 -1 0 0 I I #
edge $-1 $454 -28.900381515270659 $338 -17.12228589523145 $337 $504 forward 7 unknown #
point $-1 71.275368511001915 -17.12228589523145 10.044088706862109 #
straight-curve $-1 -71.275368511001915 -11.505666852625527 5.9232750186443868 0 -1 0 I I #
coedge $-1 $342 $341 $500 $505 reversed $220 $-1 #
edge $-1 $501 -10.044088706862109 $343 -5.9232750186443868 $440 $506 forward 7 unknown #
point $-1 -71.275368511001915 -28.900381515270659 5.9232750186443868 #
point $-1 -71.275368511001915 -17.12228589523145 5.9232750186443868 #
vertex $-1 $447 $507 #
straight-curve $-1 71.275368511001915 -28.900381515270659 0 0 0 -1 I I #
coedge $-1 $361 $360 $353 $457 forward $350 $-1 #
edge $-1 $458 47.73312097642534 $461 54.554303164739032 $456 $508 forward 7 unknown #
vertex $-1 $365 $509 #
straight-curve $-1 -79.519183337660166 2.7100865970420394 10.044088706862105 -1 0 0 I I #
edge $-1 $461 -3.6813049870425818 $362 5.6237417670436667 $361 $510 forward 7 unknown #
vertex $-1 $460 $511 #
straight-curve $-1 -71.275368511001901 2.7100865970420394 3.2229065185484274 0.78801074757464917 0 0.61566148304635926 I I #
point $-1 -62.544653623724798 2.7100865970420394 10.044088706862109 #
point $-1 -71.275368511001915 -6.5949601570442091 3.2229065185484163 #
straight-curve $-1 -71.275368511001915 0 10.044088706862109 0 -1 0 I I #
vertex $-1 $368 $512 #
point $-1 -65.458257604554021 -3.9363753701624233 6.3996071786148168 #
vertex $-1 $372 $513 #
point $-1 -65.458257604554021 0.051501810160253569 6.3996071786148168 #
coedge $-1 $387 $386 $379 $471 forward $376 $-1 #
edge $-1 $472 47.73312097642534 $475 54.554303164739032 $470 $514 forward 7 unknown #
vertex $-1 $391 $515 #
straight-curve $-1 -79.519183337660166 18.373055777083422 10.044088706862105 -1 0 0 I I #
edge $-1 $475 -11.512789577063273 $388 -2.2077428229770248 $387 $516 forward 7 unknown #
vertex $-1 $474 $517 #
straight-curve $-1 -71.275368511001901 18.373055777083422 3.2229065185484274 0.78801074757464917 0 0.61566148304635926 I I #
point $-1 -62.544653623724798 18.373055777083422 10.044088706862109 #
point $-1 -71.275368511001915 9.0680090229971739 3.2229065185484163 #
straight-curve $-1 -71.275368511001915 0 10.044088706862109 0 -1 0 I I #
vertex $-1 $394 $518 #
point $-1 -65.458257604554021 11.726593809878956 6.3996071786148168 #
vertex $-1 $398 $519 #
point $-1 -65.458257604554021 15.71447099020164 6.3996071786148168 #
coedge $-1 $412 $411 $404 $485 forward $402 $-1 #
edge $-1 $492 90.896121696791241 $487 96.953067447442166 $484 $520 forward 7 unknown #
edge $-1 $409 62.295577322492676 $492 71.275368511001915 $408 $521 forward 7 unknown #
vertex $-1 $485 $522 #
straight-curve $-1 -46.904547776855239 -17.12228589523145 83.700504519449538 -0.82903756765294845 0 0.55919291073839883 I I #
edge $-1 $487 -11.884723040635988 $413 1.4095973314450641 $412 $523 forward 7 unknown #
point $-1 62.295577322492676 -17.12228589523145 10.044088706862112 #
point $-1 71.275368511001929 -3.8279655231503975 3.9871429562111871 #
vertex $-1 $416 $524 #
straight-curve $-1 71.275368511001915 0 10.044088706862109 0 1 0 I I #
vertex $-1 $419 $525 #
point $-1 64.913397915392409 -10.475125709190923 1.5577131167882794 #
straight-curve $-1 -71.275368511001915 28.900381515270659 0 0 0 -1 I I #
point $-1 -71.275368511001915 -28.900381515270659 -10.044088706862109 #
straight-curve $-1 -71.275368511001915 0 -10.044088706862109 0 1 0 I I #
point $-1 -71.275368511001915 28.900381515270659 -10.044088706862109 #
coedge $-1 $445 $441 $450 $505 forward $329 $-1 #
vertex $-1 $442 $526 #
straight-curve $-1 -71.275368511001915 0 10.044088706862109 0 -1 0 I I #
point $-1 -71.275368511001915 -17.12228589523145 10.044088706862109 #
straight-curve $-1 71.275368511001915 0 10.044088706862109 0 1 0 I I #
edge $-1 $501 -71.275368511001915 $454 71.275368511001915 $450 $527 forward 7 unknown #
straight-curve $-1 -71.275368511001915 -28.900381515270659 0 0 0 -1 I I #
point $-1 71.275368511001915 -28.900381515270659 10.044088706862109 #
straight-curve $-1 -71.275368511001915 2.7100865970420394 57.777209683287445 0 0 -1 I I #
point $-1 -71.275368511001915 2.7100865970420394 10.044088706862109 #
straight-curve $-1 -71.275368511001915 -0.97121839000054244 3.2229065185484269 0 -1 0 I I #
point $-1 -71.275368511001915 2.7100865970420394 3.2229065185484163 #
point $-1 -65.630606869082314 -3.9363753701624233 4.995934947993808 #
point $-1 -65.630606869082314 0.051501810160253569 4.995934947993808 #
straight-curve $-1 -71.275368511001915 18.373055777083422 57.777209683287445 0 0 -1 I I #
point $-1 -71.275368511001915 18.373055777083422 10.044088706862109 #
straight-curve $-1 -71.275368511001915 6.8602662000201491 3.2229065185484269 0 -1 0 I I #
point $-1 -71.275368511001915 18.373055777083422 3.2229065185484163 #
point $-1 -65.630606869082314 11.726593809878956 4.995934947993808 #
point $-1 -65.630606869082314 15.71447099020164 4.995934947993808 #
straight-curve $-1 71.275368511001915 -17.12228589523145 100.94021040365335 0 0 -1 I I #
straight-curve $-1 0 -17.12228589523145 10.044088706862109 1 0 0 I I #
point $-1 71.275368511001929 -17.12228589523145 3.9871429562111871 #
straight-curve $-1 71.275368511001915 -5.2375628545954616 3.9871429562111871 0 1 0 I I #
point $-1 71.275368511001915 -17.12228589523145 10.044088706862109 #
point $-1 62.831052197805384 -10.475125709190923 1.1529461314164549 #
point $-1 -71.275368511001915 -28.900381515270659 10.044088706862109 #
straight-curve $-1 0 -28.900381515270659 10.044088706862109 1 0 0 I I #
End-of-ACIS-data 