500 0 10 0           
7 Unknown 11 ACIS 5.0 NT 24 Fri Mar 26 17:07:15 1999 
-1 9.9999999999999995e-007 1e-010 
body $-1 $10 $-1 $11 #
body $-1 $12 $-1 $13 #
body $-1 $14 $-1 $15 #
body $-1 $16 $-1 $17 #
body $-1 $18 $-1 $19 #
body $-1 $20 $-1 $21 #
body $-1 $22 $-1 $23 #
body $-1 $24 $-1 $25 #
body $-1 $26 $-1 $27 #
body $-1 $28 $-1 $29 #
lump $-1 $-1 $30 $0 #
transform $-1 1 0 0 0 1 0 0 0 1 77.663502914517665 37.523178198824887 7.800771809759671 1 rotate no_reflect no_shear #
lump $-1 $-1 $31 $1 #
transform $-1 1 0 0 0 1 0 0 0 1 77.663502914517665 37.523178198824887 7.800771809759671 1 rotate no_reflect no_shear #
lump $-1 $-1 $32 $2 #
transform $-1 1 0 0 0 1 0 0 0 1 77.663502914517665 37.523178198824887 7.800771809759671 1 rotate no_reflect no_shear #
lump $-1 $-1 $33 $3 #
transform $-1 1 0 0 0 1 0 0 0 1 77.663502914517665 37.523178198824887 7.800771809759671 1 rotate no_reflect no_shear #
lump $-1 $-1 $34 $4 #
transform $-1 1 0 0 0 1 0 0 0 1 77.663502914517665 37.523178198824887 7.800771809759671 1 rotate no_reflect no_shear #
lump $-1 $-1 $35 $5 #
transform $-1 1 0 0 0 1 0 0 0 1 77.663502914517665 37.523178198824887 7.800771809759671 1 rotate no_reflect no_shear #
lump $-1 $-1 $36 $6 #
transform $-1 1 0 0 0 1 0 0 0 1 77.663502914517665 37.523178198824887 7.800771809759671 1 rotate no_reflect no_shear #
lump $-1 $-1 $37 $7 #
transform $-1 1 0 0 0 1 0 0 0 1 77.663502914517665 37.523178198824887 7.800771809759671 1 rotate no_reflect no_shear #
lump $-1 $-1 $38 $8 #
transform $-1 1 0 0 0 1 0 0 0 1 77.663502914517665 37.523178198824887 7.800771809759671 1 rotate no_reflect no_shear #
lump $-1 $-1 $39 $9 #
transform $-1 1 0 0 0 1 0 0 0 1 77.663502914517665 37.523178198824887 7.800771809759671 1 rotate no_reflect no_shear #
shell $-1 $-1 $-1 $40 $-1 $10 #
shell $-1 $-1 $-1 $41 $-1 $12 #
shell $-1 $-1 $-1 $42 $-1 $14 #
shell $-1 $-1 $-1 $43 $-1 $16 #
shell $-1 $-1 $-1 $44 $-1 $18 #
shell $-1 $-1 $-1 $45 $-1 $20 #
shell $-1 $-1 $-1 $46 $-1 $22 #
shell $-1 $-1 $-1 $47 $-1 $24 #
shell $-1 $-1 $-1 $48 $-1 $26 #
shell $-1 $-1 $-1 $49 $-1 $28 #
face $-1 $50 $51 $30 $-1 $52 forward single #
face $-1 $53 $54 $31 $-1 $55 reversed single #
face $-1 $56 $57 $32 $-1 $58 reversed single #
face $-1 $59 $60 $33 $-1 $61 forward single #
face $-1 $62 $63 $34 $-1 $64 forward single #
face $-1 $65 $66 $35 $-1 $67 forward single #
face $-1 $68 $69 $36 $-1 $70 reversed single #
face $-1 $71 $72 $37 $-1 $73 forward single #
face $-1 $74 $75 $38 $-1 $76 forward single #
face $-1 $77 $78 $39 $-1 $79 forward single #
face $-1 $80 $81 $30 $-1 $82 reversed single #
loop $-1 $-1 $83 $40 #
plane-surface $-1 0 0 7.800771809759671 0 0 1 1 0 0 forward_v I I I I #
face $-1 $84 $85 $31 $-1 $86 reversed single #
loop $-1 $-1 $87 $41 #
plane-surface $-1 -65.940340764982821 -33.366440748647975 0 1 0 0 0 0 -1 forward_v I I I I #
face $-1 $88 $89 $32 $-1 $90 reversed single #
loop $-1 $-1 $91 $42 #
plane-surface $-1 -212.18063705769555 1.7407744528559448 79.596731951109405 0 1 0 -0.86602541151947299 0 0.49999998660252726 forward_v I I I I #
face $-1 $92 $93 $33 $-1 $94 forward single #
loop $-1 $95 $96 $43 #
cone-surface $-1 -74.879685084290472 5.2438281394381434 4.23768692625565 0.86602541151947299 0 -0.49999998660252726 0.49999998660252726 0 0.86602541151947299 1 I I 0 1 1 forward I I I I #
face $-1 $97 $98 $34 $-1 $99 forward single #
loop $-1 $100 $101 $44 #
cone-surface $-1 -74.879685084290472 10.498408669311438 4.23768692625565 0.86602541151947299 0 -0.49999998660252726 0.49999998660252726 0 0.86602541151947299 1 I I 0 1 1 forward I I I I #
face $-1 $102 $103 $35 $-1 $104 forward single #
loop $-1 $105 $106 $45 #
cone-surface $-1 -74.879685084290472 15.752989199184732 4.23768692625565 0.86602541151947299 0 -0.49999998660252726 0.49999998660252726 0 0.86602541151947299 1 I I 0 1 1 forward I I I I #
face $-1 $107 $108 $36 $-1 $109 reversed single #
loop $-1 $-1 $110 $46 #
plane-surface $-1 134.51713622416725 19.256042885766931 214.11386609428729 0 -1 0 -0.86602541151947299 0 -0.49999998660252726 forward_v I I I I #
face $-1 $111 $112 $37 $-1 $113 forward single #
loop $-1 $114 $115 $47 #
cone-surface $-1 74.879685084290486 5.2438281394381434 4.2376869262556678 -0.86602541151947299 0 -0.49999998660252726 0.49999998660252726 0 -0.86602541151947299 1 I I 0 1 1 forward I I I I #
face $-1 $116 $117 $38 $-1 $118 forward single #
loop $-1 $119 $120 $48 #
cone-surface $-1 74.879685084290486 10.498408669311438 4.2376869262556678 -0.86602541151947299 0 -0.49999998660252726 0.49999998660252726 0 -0.86602541151947299 1 I I 0 1 1 forward I I I I #
face $-1 $121 $122 $39 $-1 $123 forward single #
loop $-1 $124 $125 $49 #
cone-surface $-1 74.879685084290486 15.752989199184732 4.2376869262556678 -0.86602541151947299 0 -0.49999998660252726 0.49999998660252726 0 -0.86602541151947299 1 I I 0 1 1 forward I I I I #
face $-1 $126 $127 $30 $-1 $128 reversed single #
loop $-1 $-1 $129 $50 #
plane-surface $-1 0 0 -7.800771809759671 0 0 1 1 0 0 forward_v I I I I #
coedge $-1 $130 $131 $132 $133 forward $51 $-1 #
face $-1 $134 $135 $31 $-1 $136 reversed single #
loop $-1 $-1 $137 $53 #
plane-surface $-1 -64.440340764982821 -29.209703298471066 0 0 -1 0 0 0 -1 forward_v I I I I #
coedge $-1 $138 $139 $140 $141 forward $54 $-1 #
face $-1 $142 $143 $32 $-1 $144 reversed single #
loop $-1 $-1 $145 $56 #
plane-surface $-1 -77.663502914517636 10.498408669311438 1.933231117581073 -0.86602541151947299 0 0.49999998660252726 0.49999998660252726 0 0.86602541151947299 forward_v I I I I #
coedge $-1 $146 $147 $148 $149 reversed $57 $-1 #
face $-1 $-1 $150 $33 $-1 $151 forward single #
loop $-1 $152 $153 $59 #
cone-surface $-1 -73.35666758684458 5.2438281394381434 3.3583723955396669 0.86602541151947299 0 -0.49999998660252726 0.24999999330126363 0 0.43301270575973649 1 I I -0.70710678118654746 0.70710678118654746 0.5 forward I I I I #
loop $-1 $-1 $154 $43 #
coedge $-1 $96 $96 $155 $156 reversed $60 $-1 #
face $-1 $-1 $157 $34 $-1 $158 forward single #
loop $-1 $159 $160 $62 #
cone-surface $-1 -73.35666758684458 10.498408669311438 3.3583723955396669 0.86602541151947299 0 -0.49999998660252726 0.24999999330126363 0 0.43301270575973649 1 I I -0.70710678118654746 0.70710678118654746 0.5 forward I I I I #
loop $-1 $-1 $161 $44 #
coedge $-1 $101 $101 $162 $163 reversed $63 $-1 #
face $-1 $-1 $164 $35 $-1 $165 forward single #
loop $-1 $166 $167 $65 #
cone-surface $-1 -73.35666758684458 15.752989199184732 3.3583723955396669 0.86602541151947299 0 -0.49999998660252726 0.24999999330126363 0 0.43301270575973649 1 I I -0.70710678118654746 0.70710678118654746 0.5 forward I I I I #
loop $-1 $-1 $168 $45 #
coedge $-1 $106 $106 $169 $170 reversed $66 $-1 #
face $-1 $171 $172 $36 $-1 $173 reversed single #
loop $-1 $-1 $174 $68 #
plane-surface $-1 2.080989332853278e-006 10.498408669311438 136.45036526075896 0.86602541151947299 0 0.49999998660252726 0.49999998660252726 0 -0.86602541151947299 forward_v I I I I #
coedge $-1 $175 $176 $177 $178 reversed $69 $-1 #
face $-1 $-1 $179 $37 $-1 $180 forward single #
loop $-1 $181 $182 $71 #
cone-surface $-1 73.356667586844594 5.2438281394381434 3.3583723955396847 -0.86602541151947299 0 -0.49999998660252726 0.24999999330126363 0 -0.43301270575973649 1 I I -0.70710678118654746 0.70710678118654746 0.5 forward I I I I #
loop $-1 $-1 $183 $47 #
coedge $-1 $115 $115 $184 $185 reversed $72 $-1 #
face $-1 $-1 $186 $38 $-1 $187 forward single #
loop $-1 $188 $189 $74 #
cone-surface $-1 73.356667586844594 10.498408669311438 3.3583723955396847 -0.86602541151947299 0 -0.49999998660252726 0.24999999330126363 0 -0.43301270575973649 1 I I -0.70710678118654746 0.70710678118654746 0.5 forward I I I I #
loop $-1 $-1 $190 $48 #
coedge $-1 $120 $120 $191 $192 reversed $75 $-1 #
face $-1 $-1 $193 $39 $-1 $194 forward single #
loop $-1 $195 $196 $77 #
cone-surface $-1 73.356667586844594 15.752989199184732 3.3583723955396847 -0.86602541151947299 0 -0.49999998660252726 0.24999999330126363 0 -0.43301270575973649 1 I I -0.70710678118654746 0.70710678118654746 0.5 forward I I I I #
loop $-1 $-1 $197 $49 #
coedge $-1 $125 $125 $198 $199 reversed $78 $-1 #
face $-1 $200 $201 $30 $-1 $202 reversed single #
loop $-1 $-1 $203 $80 #
plane-surface $-1 0 -37.523178198824887 0 0 1 0 0 0 1 forward_v I I I I #
coedge $-1 $204 $205 $206 $207 forward $81 $-1 #
coedge $-1 $208 $83 $209 $210 forward $51 $-1 #
coedge $-1 $83 $208 $211 $212 forward $51 $-1 #
coedge $-1 $213 $214 $83 $133 reversed $215 $-1 #
edge $-1 $216 -37.523178198824887 $217 37.523178198824887 $132 $218 forward 7 unknown #
face $-1 $219 $220 $31 $-1 $221 forward single #
loop $-1 $-1 $222 $84 #
plane-surface $-1 -62.940340764982821 -33.366440748647975 0 -1 0 0 0 0 1 forward_v I I I I #
coedge $-1 $223 $224 $225 $226 forward $85 $-1 #
coedge $-1 $227 $87 $228 $229 reversed $54 $-1 #
coedge $-1 $87 $227 $230 $231 reversed $54 $-1 #
coedge $-1 $224 $223 $87 $141 reversed $85 $-1 #
edge $-1 $232 -7.800771809759671 $233 7.800771809759671 $140 $234 forward 7 unknown #
face $-1 $235 $236 $32 $-1 $237 reversed single #
loop $-1 $-1 $238 $88 #
plane-surface $-1 -212.18063705769555 19.256042885766931 79.596731951109405 0 -1 0 0.86602541151947299 0 -0.49999998660252726 forward_v I I I I #
coedge $-1 $239 $240 $241 $242 reversed $89 $-1 #
coedge $-1 $147 $91 $243 $244 reversed $57 $-1 #
coedge $-1 $91 $146 $239 $245 reversed $57 $-1 #
coedge $-1 $241 $246 $91 $149 forward $247 $-1 #
edge $-1 $248 28.42681561433011 $249 31.814441691412185 $148 $250 forward 7 unknown #
loop $-1 $-1 $155 $92 #
plane-surface $-1 -77.663502914517636 10.498408669311438 1.933231117581073 -0.86602541151947299 0 0.49999998660252726 0.49999998660252726 0 0.86602541151947299 forward_v I I I I #
loop $-1 $-1 $251 $59 #
coedge $-1 $153 $153 $154 $252 reversed $93 $-1 #
coedge $-1 $154 $154 $153 $252 forward $95 $-1 #
coedge $-1 $155 $155 $96 $156 forward $150 $-1 #
edge $-1 $253 0 $253 6.2831853071796004 $155 $254 forward 7 unknown #
loop $-1 $-1 $162 $97 #
plane-surface $-1 -77.663502914517636 10.498408669311438 1.933231117581073 -0.86602541151947299 0 0.49999998660252726 0.49999998660252726 0 0.86602541151947299 forward_v I I I I #
loop $-1 $-1 $255 $62 #
coedge $-1 $160 $160 $161 $256 reversed $98 $-1 #
coedge $-1 $161 $161 $160 $256 forward $100 $-1 #
coedge $-1 $162 $162 $101 $163 forward $157 $-1 #
edge $-1 $257 0 $257 6.2831853071796004 $162 $258 forward 7 unknown #
loop $-1 $-1 $169 $102 #
plane-surface $-1 -77.663502914517636 10.498408669311438 1.933231117581073 -0.86602541151947299 0 0.49999998660252726 0.49999998660252726 0 0.86602541151947299 forward_v I I I I #
loop $-1 $-1 $259 $65 #
coedge $-1 $167 $167 $168 $260 reversed $103 $-1 #
coedge $-1 $168 $168 $167 $260 forward $105 $-1 #
coedge $-1 $169 $169 $106 $170 forward $164 $-1 #
edge $-1 $261 0 $261 6.2831853071796004 $169 $262 forward 7 unknown #
face $-1 $263 $264 $36 $-1 $265 forward single #
loop $-1 $-1 $266 $107 #
plane-surface $-1 134.51713622416725 1.7407744528559448 214.11386609428729 0 1 0 0.86602541151947299 0 0.49999998660252726 forward_v I I I I #
coedge $-1 $267 $268 $269 $270 reversed $108 $-1 #
coedge $-1 $176 $110 $271 $272 reversed $69 $-1 #
coedge $-1 $110 $175 $267 $273 reversed $69 $-1 #
coedge $-1 $269 $274 $110 $178 forward $264 $-1 #
edge $-1 $275 -10.404934802434042 $276 -7.017308725351981 $177 $277 forward 7 unknown #
loop $-1 $-1 $184 $111 #
plane-surface $-1 2.080989332853278e-006 10.498408669311438 136.45036526075896 0.86602541151947299 0 0.49999998660252726 0.49999998660252726 0 -0.86602541151947299 forward_v I I I I #
loop $-1 $-1 $278 $71 #
coedge $-1 $182 $182 $183 $279 reversed $112 $-1 #
coedge $-1 $183 $183 $182 $279 forward $114 $-1 #
coedge $-1 $184 $184 $115 $185 forward $179 $-1 #
edge $-1 $280 0 $280 6.2831853071796004 $184 $281 forward 7 unknown #
loop $-1 $-1 $191 $116 #
plane-surface $-1 2.080989332853278e-006 10.498408669311438 136.45036526075896 0.86602541151947299 0 0.49999998660252726 0.49999998660252726 0 -0.86602541151947299 forward_v I I I I #
loop $-1 $-1 $282 $74 #
coedge $-1 $189 $189 $190 $283 reversed $117 $-1 #
coedge $-1 $190 $190 $189 $283 forward $119 $-1 #
coedge $-1 $191 $191 $120 $192 forward $186 $-1 #
edge $-1 $284 0 $284 6.2831853071796004 $191 $285 forward 7 unknown #
loop $-1 $-1 $198 $121 #
plane-surface $-1 2.080989332853278e-006 10.498408669311438 136.45036526075896 0.86602541151947299 0 0.49999998660252726 0.49999998660252726 0 -0.86602541151947299 forward_v I I I I #
loop $-1 $-1 $286 $77 #
coedge $-1 $196 $196 $197 $287 reversed $122 $-1 #
coedge $-1 $197 $197 $196 $287 forward $124 $-1 #
coedge $-1 $198 $198 $125 $199 forward $193 $-1 #
edge $-1 $288 0 $288 6.2831853071796004 $198 $289 forward 7 unknown #
face $-1 $290 $291 $30 $-1 $292 reversed single #
loop $-1 $-1 $293 $126 #
plane-surface $-1 -77.663502914517665 0 0 1 0 0 0 0 -1 forward_v I I I I #
coedge $-1 $294 $211 $295 $296 forward $127 $-1 #
coedge $-1 $297 $129 $294 $298 forward $81 $-1 #
coedge $-1 $129 $297 $299 $300 forward $81 $-1 #
coedge $-1 $214 $213 $129 $207 reversed $215 $-1 #
edge $-1 $301 -37.523178198824887 $302 37.523178198824887 $206 $303 forward 7 unknown #
coedge $-1 $131 $130 $304 $305 forward $51 $-1 #
coedge $-1 $306 $307 $130 $210 reversed $291 $-1 #
edge $-1 $217 -77.663502914517665 $308 77.663502914517665 $209 $309 forward 7 unknown #
coedge $-1 $203 $310 $131 $212 reversed $127 $-1 #
edge $-1 $311 -77.663502914517665 $216 77.663502914517665 $211 $312 forward 7 unknown #
coedge $-1 $206 $132 $310 $313 forward $215 $-1 #
coedge $-1 $132 $206 $306 $314 reversed $215 $-1 #
loop $-1 $-1 $213 $290 #
vertex $-1 $133 $315 #
vertex $-1 $133 $316 #
straight-curve $-1 77.663502914517665 0 7.800771809759671 0 1 0 I I #
face $-1 $317 $318 $31 $-1 $319 reversed single #
loop $-1 $-1 $320 $134 #
plane-surface $-1 0 0 7.800771809759671 0 0 1 1 0 0 forward_v I I I I #
coedge $-1 $321 $322 $323 $324 reversed $135 $-1 #
coedge $-1 $140 $137 $325 $326 reversed $85 $-1 #
coedge $-1 $137 $140 $327 $328 reversed $85 $-1 #
coedge $-1 $322 $321 $137 $226 reversed $135 $-1 #
edge $-1 $329 -7.800771809759671 $330 7.800771809759671 $225 $331 forward 7 unknown #
coedge $-1 $139 $138 $332 $333 reversed $54 $-1 #
coedge $-1 $325 $334 $138 $229 forward $318 $-1 #
edge $-1 $335 -20.8399578245009 $233 -12.526482924147079 $228 $336 forward 7 unknown #
coedge $-1 $337 $327 $139 $231 forward $220 $-1 #
edge $-1 $232 12.526482924147079 $338 20.8399578245009 $230 $339 forward 7 unknown #
vertex $-1 $231 $340 #
vertex $-1 $229 $341 #
straight-curve $-1 -65.940340764982821 -29.209703298471066 0 0 0 -1 I I #
face $-1 $-1 $247 $32 $-1 $342 forward single #
loop $-1 $-1 $343 $142 #
plane-surface $-1 -77.663502914517665 0 0 1 0 0 0 0 -1 forward_v I I I I #
coedge $-1 $344 $345 $346 $347 reversed $143 $-1 #
coedge $-1 $348 $145 $147 $245 forward $89 $-1 #
coedge $-1 $145 $348 $344 $349 forward $89 $-1 #
coedge $-1 $346 $148 $145 $242 forward $247 $-1 #
edge $-1 $249 -3.5084298817997741 $350 14.006838551111212 $241 $351 forward 7 unknown #
coedge $-1 $352 $353 $146 $244 forward $236 $-1 #
edge $-1 $354 -37.865134857973679 $248 -31.997594165795032 $243 $355 forward 7 unknown #
edge $-1 $249 -6.775252335706619 $354 5.6900626353428066e-014 $147 $356 forward 7 unknown #
coedge $-1 $148 $346 $352 $357 forward $247 $-1 #
loop $-1 $-1 $346 $235 #
vertex $-1 $244 $358 #
vertex $-1 $149 $359 #
straight-curve $-1 -106.09031852884777 1.7407744528559448 7.8007718097596737 1 0 0 I I #
coedge $-1 $251 $251 $-1 $360 reversed $152 $-1 #
edge $-1 $361 0 $361 6.2831853071796004 $153 $362 forward 7 unknown #
vertex $-1 $156 $363 #
ellipse-curve $-1 -75.969689875976613 5.2438281394381434 4.8670014636703618 -0.86602541151947299 0 0.49999998660252726 0.49999998660252726 0 0.86602541151947299 1 I I #
coedge $-1 $255 $255 $-1 $364 reversed $159 $-1 #
edge $-1 $365 0 $365 6.2831853071796004 $160 $366 forward 7 unknown #
vertex $-1 $163 $367 #
ellipse-curve $-1 -75.969689875976613 10.498408669311438 4.8670014636703618 -0.86602541151947299 0 0.49999998660252726 0.49999998660252726 0 0.86602541151947299 1 I I #
coedge $-1 $259 $259 $-1 $368 reversed $166 $-1 #
edge $-1 $369 0 $369 6.2831853071796004 $167 $370 forward 7 unknown #
vertex $-1 $170 $371 #
ellipse-curve $-1 -75.969689875976613 15.752989199184732 4.8670014636703618 -0.86602541151947299 0 0.49999998660252726 0.49999998660252726 0 0.86602541151947299 1 I I #
face $-1 $-1 $372 $36 $-1 $373 reversed single #
loop $-1 $-1 $177 $171 #
plane-surface $-1 0 0 7.800771809759671 0 0 1 1 0 0 forward_v I I I I #
coedge $-1 $374 $375 $376 $377 reversed $172 $-1 #
coedge $-1 $378 $174 $176 $273 forward $108 $-1 #
coedge $-1 $174 $378 $374 $379 forward $108 $-1 #
coedge $-1 $376 $177 $174 $270 forward $264 $-1 #
edge $-1 $276 -14.006838551111212 $380 3.5084298817997741 $269 $381 forward 7 unknown #
coedge $-1 $382 $383 $175 $272 forward $372 $-1 #
edge $-1 $384 -105.1237019295626 $275 -99.256161237383978 $271 $385 forward 7 unknown #
edge $-1 $276 148.55175349332868 $384 155.32700582903533 $176 $386 forward 7 unknown #
coedge $-1 $177 $376 $382 $387 forward $264 $-1 #
vertex $-1 $272 $388 #
vertex $-1 $178 $389 #
straight-curve $-1 67.258568112083623 19.256042885766931 7.8007718097596666 -1 0 0 I I #
coedge $-1 $278 $278 $-1 $390 reversed $181 $-1 #
edge $-1 $391 0 $391 6.2831853071796004 $182 $392 forward 7 unknown #
vertex $-1 $185 $393 #
ellipse-curve $-1 75.969689875976641 5.2438281394381434 4.867001463670384 0.86602541151947299 0 0.49999998660252726 0.49999998660252726 0 -0.86602541151947299 1 I I #
coedge $-1 $282 $282 $-1 $394 reversed $188 $-1 #
edge $-1 $395 0 $395 6.2831853071796004 $189 $396 forward 7 unknown #
vertex $-1 $192 $397 #
ellipse-curve $-1 75.969689875976641 10.498408669311438 4.867001463670384 0.86602541151947299 0 0.49999998660252726 0.49999998660252726 0 -0.86602541151947299 1 I I #
coedge $-1 $286 $286 $-1 $398 reversed $195 $-1 #
edge $-1 $399 0 $399 6.2831853071796004 $196 $400 forward 7 unknown #
vertex $-1 $199 $401 #
ellipse-curve $-1 75.969689875976641 15.752989199184732 4.867001463670384 0.86602541151947299 0 0.49999998660252726 0.49999998660252726 0 -0.86602541151947299 1 I I #
face $-1 $-1 $215 $30 $-1 $402 reversed single #
loop $-1 $-1 $306 $200 #
plane-surface $-1 0 37.523178198824887 0 0 -1 0 0 0 -1 forward_v I I I I #
coedge $-1 $403 $304 $307 $404 forward $201 $-1 #
coedge $-1 $310 $203 $204 $298 reversed $127 $-1 #
coedge $-1 $304 $403 $203 $296 reversed $201 $-1 #
edge $-1 $311 -7.800771809759671 $405 7.800771809759671 $295 $406 forward 7 unknown #
coedge $-1 $205 $204 $403 $407 forward $81 $-1 #
edge $-1 $302 -77.663502914517665 $405 77.663502914517665 $294 $408 forward 7 unknown #
coedge $-1 $307 $306 $205 $300 reversed $291 $-1 #
edge $-1 $409 -77.663502914517665 $301 77.663502914517665 $299 $410 forward 7 unknown #
vertex $-1 $207 $411 #
vertex $-1 $313 $412 #
straight-curve $-1 77.663502914517665 0 -7.800771809759671 0 -1 0 I I #
coedge $-1 $293 $295 $208 $305 reversed $201 $-1 #
edge $-1 $308 -37.523178198824887 $311 37.523178198824887 $304 $413 forward 7 unknown #
coedge $-1 $299 $209 $214 $314 forward $291 $-1 #
coedge $-1 $209 $299 $293 $404 reversed $291 $-1 #
vertex $-1 $210 $414 #
straight-curve $-1 0 37.523178198824887 7.800771809759671 -1 0 0 I I #
coedge $-1 $211 $294 $213 $313 reversed $127 $-1 #
vertex $-1 $305 $415 #
straight-curve $-1 0 -37.523178198824887 7.800771809759671 1 0 0 I I #
edge $-1 $216 -7.800771809759671 $302 7.800771809759671 $213 $416 forward 7 unknown #
edge $-1 $217 -7.800771809759671 $301 7.800771809759671 $214 $417 forward 7 unknown #
point $-1 77.663502914517665 -37.523178198824887 7.800771809759671 #
point $-1 77.663502914517665 37.523178198824887 7.800771809759671 #
face $-1 $-1 $418 $31 $-1 $419 reversed single #
loop $-1 $-1 $420 $219 #
plane-surface $-1 0 0 -7.800771809759671 0 0 1 1 0 0 forward_v I I I I #
coedge $-1 $327 $337 $322 $421 forward $220 $-1 #
coedge $-1 $225 $222 $420 $422 reversed $135 $-1 #
coedge $-1 $222 $225 $320 $421 reversed $135 $-1 #
coedge $-1 $423 $424 $222 $324 forward $418 $-1 #
edge $-1 $425 -7.800771809759671 $426 7.800771809759671 $323 $427 forward 7 unknown #
coedge $-1 $420 $228 $223 $326 forward $318 $-1 #
edge $-1 $233 -33.720170382491411 $330 -30.720170382491411 $325 $428 forward 7 unknown #
coedge $-1 $230 $320 $224 $328 forward $220 $-1 #
edge $-1 $329 30.720170382491411 $232 33.720170382491411 $327 $429 forward 7 unknown #
vertex $-1 $328 $430 #
vertex $-1 $326 $431 #
straight-curve $-1 -62.940340764982821 -29.209703298471066 0 0 0 -1 I I #
coedge $-1 $424 $423 $227 $333 forward $418 $-1 #
edge $-1 $338 -7.800771809759671 $335 7.800771809759671 $332 $432 forward 7 unknown #
coedge $-1 $228 $420 $424 $433 forward $318 $-1 #
vertex $-1 $229 $434 #
straight-curve $-1 -65.940340764982821 -16.683220374323987 -7.800771809759671 0 1 0 I I #
coedge $-1 $320 $230 $423 $435 forward $220 $-1 #
vertex $-1 $435 $436 #
straight-curve $-1 -65.940340764982821 -16.683220374323987 7.800771809759671 0 -1 0 I I #
point $-1 -65.940340764982821 -29.209703298471066 7.800771809759671 #
point $-1 -65.940340764982821 -29.209703298471066 -7.800771809759671 #
plane-surface $-1 0 0 7.800771809759671 0 0 1 1 0 0 forward_v I I I I #
coedge $-1 $353 $352 $345 $437 forward $236 $-1 #
coedge $-1 $345 $238 $240 $349 reversed $143 $-1 #
coedge $-1 $238 $344 $343 $437 reversed $143 $-1 #
coedge $-1 $246 $241 $238 $347 forward $247 $-1 #
edge $-1 $350 -31.814441691412185 $438 -28.42681561433011 $346 $439 forward 7 unknown #
coedge $-1 $240 $239 $353 $440 reversed $89 $-1 #
edge $-1 $441 -5.6900626353428066e-014 $350 6.775252335706619 $344 $442 forward 7 unknown #
vertex $-1 $242 $443 #
straight-curve $-1 -74.27587683743559 5.2492043346557189 7.8007718097596683 0 1 0 I I #
coedge $-1 $343 $243 $246 $357 reversed $236 $-1 #
coedge $-1 $243 $343 $348 $440 forward $236 $-1 #
vertex $-1 $244 $444 #
straight-curve $-1 -77.663502914517665 1.7407744528559448 39.798365975554702 0 0 1 I I #
straight-curve $-1 -77.663502914517636 1.7407744528559448 1.933231117581073 -0.49999998660252726 0 -0.86602541151947299 I I #
edge $-1 $438 -19.256042885766931 $248 -1.7407744528559448 $352 $445 forward 7 unknown #
point $-1 -77.663502914517665 1.7407744528559448 7.800771809759671 #
point $-1 -74.27587683743559 1.7407744528559448 7.800771809759671 #
edge $-1 $446 1 $446 0 $251 $-1 forward 7 unknown #
vertex $-1 $252 $447 #
ellipse-curve $-1 -73.789680292604316 5.2438281394381434 3.6083723888409307 -0.86602541151947299 0 0.49999998660252726 0.49999998660252726 0 0.86602541151947299 1 I I #
point $-1 -75.469689889374109 5.2438281394381434 5.733026875189843 #
edge $-1 $448 1 $448 0 $255 $-1 forward 7 unknown #
vertex $-1 $256 $449 #
ellipse-curve $-1 -73.789680292604316 10.498408669311438 3.6083723888409307 -0.86602541151947299 0 0.49999998660252726 0.49999998660252726 0 0.86602541151947299 1 I I #
point $-1 -75.469689889374109 10.498408669311438 5.733026875189843 #
edge $-1 $450 1 $450 0 $259 $-1 forward 7 unknown #
vertex $-1 $260 $451 #
ellipse-curve $-1 -73.789680292604316 15.752989199184732 3.6083723888409307 -0.86602541151947299 0 0.49999998660252726 0.49999998660252726 0 0.86602541151947299 1 I I #
point $-1 -75.469689889374109 15.752989199184732 5.733026875189843 #
loop $-1 $-1 $271 $263 #
plane-surface $-1 77.663502914517665 0 0 -1 0 0 0 0 1 forward_v I I I I #
coedge $-1 $375 $266 $268 $379 reversed $172 $-1 #
coedge $-1 $266 $374 $452 $453 reversed $172 $-1 #
coedge $-1 $274 $269 $266 $377 forward $264 $-1 #
edge $-1 $380 7.017308725351981 $454 10.404934802434042 $376 $455 forward 7 unknown #
coedge $-1 $268 $267 $383 $456 reversed $108 $-1 #
edge $-1 $457 -155.32700582903533 $380 -148.55175349332868 $374 $458 forward 7 unknown #
vertex $-1 $270 $459 #
straight-curve $-1 74.275876837435618 5.2492043346557189 7.8007718097596666 0 -1 0 I I #
coedge $-1 $452 $271 $274 $387 reversed $372 $-1 #
coedge $-1 $271 $452 $378 $456 forward $372 $-1 #
vertex $-1 $272 $460 #
straight-curve $-1 77.663502914517665 19.256042885766931 107.05693304714364 0 0 1 I I #
straight-curve $-1 2.080989332853278e-006 19.256042885766931 136.45036526075896 0.49999998660252726 0 -0.86602541151947299 I I #
edge $-1 $454 1.7407744528559448 $275 19.256042885766931 $382 $461 forward 7 unknown #
point $-1 77.663502914517665 19.256042885766931 7.800771809759671 #
point $-1 74.275876837435604 19.256042885766931 7.8007718097596808 #
edge $-1 $462 1 $462 0 $278 $-1 forward 7 unknown #
vertex $-1 $279 $463 #
ellipse-curve $-1 73.789680292604331 5.2438281394381434 3.6083723888409485 0.86602541151947299 0 0.49999998660252726 0.49999998660252726 0 -0.86602541151947299 1 I I #
point $-1 76.469689862579173 5.2438281394381434 4.0009760521509152 #
edge $-1 $464 1 $464 0 $282 $-1 forward 7 unknown #
vertex $-1 $283 $465 #
ellipse-curve $-1 73.789680292604331 10.498408669311438 3.6083723888409485 0.86602541151947299 0 0.49999998660252726 0.49999998660252726 0 -0.86602541151947299 1 I I #
point $-1 76.469689862579173 10.498408669311438 4.0009760521509152 #
edge $-1 $466 1 $466 0 $286 $-1 forward 7 unknown #
vertex $-1 $287 $467 #
ellipse-curve $-1 73.789680292604331 15.752989199184732 3.6083723888409485 0.86602541151947299 0 0.49999998660252726 0.49999998660252726 0 -0.86602541151947299 1 I I #
point $-1 76.469689862579173 15.752989199184732 4.0009760521509152 #
plane-surface $-1 77.663502914517665 0 0 -1 0 0 0 0 1 forward_v I I I I #
coedge $-1 $295 $293 $297 $407 reversed $201 $-1 #
edge $-1 $308 -7.800771809759671 $409 7.800771809759671 $307 $468 forward 7 unknown #
vertex $-1 $407 $469 #
straight-curve $-1 -77.663502914517665 -37.523178198824887 0 0 0 -1 I I #
edge $-1 $405 -37.523178198824887 $409 37.523178198824887 $403 $470 forward 7 unknown #
straight-curve $-1 0 -37.523178198824887 -7.800771809759671 -1 0 0 I I #
vertex $-1 $300 $471 #
straight-curve $-1 0 37.523178198824887 -7.800771809759671 1 0 0 I I #
point $-1 77.663502914517665 37.523178198824887 -7.800771809759671 #
point $-1 77.663502914517665 -37.523178198824887 -7.800771809759671 #
straight-curve $-1 -77.663502914517665 0 7.800771809759671 0 -1 0 I I #
point $-1 -77.663502914517665 37.523178198824887 7.800771809759671 #
point $-1 -77.663502914517665 -37.523178198824887 7.800771809759671 #
straight-curve $-1 77.663502914517665 -37.523178198824887 0 0 0 -1 I I #
straight-curve $-1 77.663502914517665 37.523178198824887 0 0 0 -1 I I #
loop $-1 $-1 $323 $317 #
plane-surface $-1 0 -37.523178198824887 0 0 1 0 0 0 1 forward_v I I I I #
coedge $-1 $334 $325 $321 $422 forward $318 $-1 #
edge $-1 $426 -20.8399578245009 $329 -12.526482924147079 $320 $472 forward 7 unknown #
edge $-1 $330 12.526482924147079 $425 20.8399578245009 $420 $473 forward 7 unknown #
coedge $-1 $332 $323 $337 $435 reversed $418 $-1 #
coedge $-1 $323 $332 $334 $433 reversed $418 $-1 #
vertex $-1 $433 $474 #
vertex $-1 $324 $475 #
straight-curve $-1 -62.940340764982821 -37.523178198824887 0 0 0 1 I I #
straight-curve $-1 -32.220170382491411 -29.209703298471066 -7.800771809759671 1 0 0 I I #
straight-curve $-1 -32.220170382491411 -29.209703298471066 7.800771809759671 -1 0 0 I I #
point $-1 -62.940340764982821 -29.209703298471066 7.800771809759671 #
point $-1 -62.940340764982821 -29.209703298471066 -7.800771809759671 #
straight-curve $-1 -65.940340764982821 -37.523178198824887 0 0 0 -1 I I #
edge $-1 $425 62.940340764982821 $335 65.940340764982821 $424 $476 forward 7 unknown #
point $-1 -65.940340764982821 -37.523178198824887 -7.800771809759671 #
edge $-1 $338 -65.940340764982821 $426 -62.940340764982821 $423 $477 forward 7 unknown #
point $-1 -65.940340764982821 -37.523178198824887 7.800771809759671 #
edge $-1 $438 31.997594165795032 $441 37.865134857973679 $343 $478 forward 7 unknown #
vertex $-1 $357 $479 #
straight-curve $-1 -106.09031852884777 19.256042885766931 7.8007718097596737 -1 0 0 I I #
edge $-1 $441 -14.006838551111212 $354 3.5084298817997741 $353 $480 forward 7 unknown #
vertex $-1 $440 $481 #
straight-curve $-1 -77.663502914517636 19.256042885766931 1.933231117581073 0.49999998660252726 0 0.86602541151947299 I I #
point $-1 -74.27587683743559 19.256042885766931 7.800771809759671 #
point $-1 -77.663502914517665 1.7407744528559448 1.9332311175810237 #
straight-curve $-1 -77.663502914517665 0 7.800771809759671 0 -1 0 I I #
vertex $-1 $360 $482 #
point $-1 -73.289680306001785 5.2438281394381434 4.4743978003604035 #
vertex $-1 $364 $483 #
point $-1 -73.289680306001785 10.498408669311438 4.4743978003604035 #
vertex $-1 $368 $484 #
point $-1 -73.289680306001785 15.752989199184732 4.4743978003604035 #
coedge $-1 $383 $382 $375 $453 forward $372 $-1 #
edge $-1 $454 99.256161237383978 $457 105.1237019295626 $452 $485 forward 7 unknown #
vertex $-1 $387 $486 #
straight-curve $-1 67.258568112083623 1.7407744528559448 7.8007718097596666 1 0 0 I I #
edge $-1 $457 -3.5084298817997741 $384 14.006838551111212 $383 $487 forward 7 unknown #
vertex $-1 $456 $488 #
straight-curve $-1 2.080989332853278e-006 1.7407744528559448 136.45036526075896 -0.49999998660252726 0 0.86602541151947299 I I #
point $-1 74.275876837435604 1.7407744528559448 7.8007718097596808 #
point $-1 77.663502914517665 19.256042885766931 1.9332311175810446 #
straight-curve $-1 77.663502914517665 0 7.800771809759671 0 1 0 I I #
vertex $-1 $390 $489 #
point $-1 74.289680279206863 5.2438281394381434 2.7423469773214753 #
vertex $-1 $394 $490 #
point $-1 74.289680279206863 10.498408669311438 2.7423469773214753 #
vertex $-1 $398 $491 #
point $-1 74.289680279206863 15.752989199184732 2.7423469773214753 #
straight-curve $-1 -77.663502914517665 37.523178198824887 0 0 0 -1 I I #
point $-1 -77.663502914517665 -37.523178198824887 -7.800771809759671 #
straight-curve $-1 -77.663502914517665 0 -7.800771809759671 0 1 0 I I #
point $-1 -77.663502914517665 37.523178198824887 -7.800771809759671 #
straight-curve $-1 -62.940340764982821 -16.683220374323987 7.800771809759671 0 1 0 I I #
straight-curve $-1 -62.940340764982821 -16.683220374323987 -7.800771809759671 0 -1 0 I I #
point $-1 -62.940340764982821 -37.523178198824887 -7.800771809759671 #
point $-1 -62.940340764982821 -37.523178198824887 7.800771809759671 #
straight-curve $-1 0 -37.523178198824887 -7.800771809759671 -1 0 0 I I #
straight-curve $-1 0 -37.523178198824887 7.800771809759671 1 0 0 I I #
straight-curve $-1 -77.663502914517665 19.256042885766931 39.798365975554702 0 0 -1 I I #
point $-1 -77.663502914517665 19.256042885766931 7.800771809759671 #
straight-curve $-1 -77.663502914517665 5.2492043346557189 1.9332311175810144 0 -1 0 I I #
point $-1 -77.663502914517665 19.256042885766931 1.9332311175810237 #
point $-1 -72.923654881084843 5.2438281394381434 3.1083724022384032 #
point $-1 -72.923654881084843 10.498408669311438 3.1083724022384032 #
point $-1 -72.923654881084843 15.752989199184732 3.1083724022384032 #
straight-curve $-1 77.663502914517665 1.7407744528559448 107.05693304714364 0 0 -1 I I #
point $-1 77.663502914517665 1.7407744528559448 7.800771809759671 #
straight-curve $-1 77.663502914517665 5.2492043346557189 1.9332311175810588 0 1 0 I I #
point $-1 77.663502914517665 1.7407744528559448 1.9332311175810446 #
point $-1 72.923654881084857 5.2438281394381434 3.1083724022384209 #
point $-1 72.923654881084857 10.498408669311438 3.1083724022384209 #
point $-1 72.923654881084857 15.752989199184732 3.1083724022384209 #
End-of-ACIS-data 