500 0 10 0           
7 Unknown 11 ACIS 5.0 NT 24 Fri Mar 26 20:02:14 1999 
-1 9.9999999999999995e-007 1e-010 
body $-1 $10 $-1 $11 #
body $-1 $12 $-1 $13 #
body $-1 $14 $-1 $15 #
body $-1 $16 $-1 $17 #
body $-1 $18 $-1 $19 #
body $-1 $20 $-1 $21 #
body $-1 $22 $-1 $23 #
body $-1 $24 $-1 $25 #
body $-1 $26 $-1 $27 #
body $-1 $28 $-1 $29 #
lump $-1 $-1 $30 $0 #
transform $-1 1 0 0 0 1 0 0 0 1 56.135746330149232 37.319898008849478 8.4777569148494241 1 rotate no_reflect no_shear #
lump $-1 $-1 $31 $1 #
transform $-1 1 0 0 0 1 0 0 0 1 56.135746330149232 37.319898008849478 8.4777569148494241 1 rotate no_reflect no_shear #
lump $-1 $-1 $32 $2 #
transform $-1 1 0 0 0 1 0 0 0 1 56.135746330149232 37.319898008849478 8.4777569148494241 1 rotate no_reflect no_shear #
lump $-1 $-1 $33 $3 #
transform $-1 1 0 0 0 1 0 0 0 1 56.135746330149232 37.319898008849478 8.4777569148494241 1 rotate no_reflect no_shear #
lump $-1 $-1 $34 $4 #
transform $-1 1 0 0 0 1 0 0 0 1 56.135746330149232 37.319898008849478 8.4777569148494241 1 rotate no_reflect no_shear #
lump $-1 $-1 $35 $5 #
transform $-1 1 0 0 0 1 0 0 0 1 56.135746330149232 37.319898008849478 8.4777569148494241 1 rotate no_reflect no_shear #
lump $-1 $-1 $36 $6 #
transform $-1 1 0 0 0 1 0 0 0 1 56.135746330149232 37.319898008849478 8.4777569148494241 1 rotate no_reflect no_shear #
lump $-1 $-1 $37 $7 #
transform $-1 1 0 0 0 1 0 0 0 1 56.135746330149232 37.319898008849478 8.4777569148494241 1 rotate no_reflect no_shear #
lump $-1 $-1 $38 $8 #
transform $-1 1 0 0 0 1 0 0 0 1 56.135746330149232 37.319898008849478 8.4777569148494241 1 rotate no_reflect no_shear #
lump $-1 $-1 $39 $9 #
transform $-1 1 0 0 0 1 0 0 0 1 56.135746330149232 37.319898008849478 8.4777569148494241 1 rotate no_reflect no_shear #
shell $-1 $-1 $-1 $40 $-1 $10 #
shell $-1 $-1 $-1 $41 $-1 $12 #
shell $-1 $-1 $-1 $42 $-1 $14 #
shell $-1 $-1 $-1 $43 $-1 $16 #
shell $-1 $-1 $-1 $44 $-1 $18 #
shell $-1 $-1 $-1 $45 $-1 $20 #
shell $-1 $-1 $-1 $46 $-1 $22 #
shell $-1 $-1 $-1 $47 $-1 $24 #
shell $-1 $-1 $-1 $48 $-1 $26 #
shell $-1 $-1 $-1 $49 $-1 $28 #
face $-1 $50 $51 $30 $-1 $52 forward single #
face $-1 $53 $54 $31 $-1 $55 forward single #
face $-1 $56 $57 $32 $-1 $58 forward single #
face $-1 $59 $60 $33 $-1 $61 reversed single #
face $-1 $62 $63 $34 $-1 $64 forward single #
face $-1 $65 $66 $35 $-1 $67 forward single #
face $-1 $68 $69 $36 $-1 $70 forward single #
face $-1 $71 $72 $37 $-1 $73 reversed single #
face $-1 $74 $75 $38 $-1 $76 forward single #
face $-1 $77 $78 $39 $-1 $79 forward single #
face $-1 $80 $81 $30 $-1 $82 reversed single #
loop $-1 $-1 $83 $40 #
plane-surface $-1 0 0 8.4777569148494241 0 0 1 1 0 0 forward_v I I I I #
face $-1 $84 $85 $31 $-1 $86 reversed single #
loop $-1 $-1 $87 $41 #
plane-surface $-1 -56.135746330149232 0 0 1 0 0 0 0 -1 forward_v I I I I #
face $-1 $88 $89 $32 $-1 $90 reversed single #
loop $-1 $-1 $91 $42 #
plane-surface $-1 56.135746330149232 0 0 -1 0 0 0 0 1 forward_v I I I I #
face $-1 $92 $93 $33 $-1 $94 reversed single #
loop $-1 $-1 $95 $43 #
plane-surface $-1 -9.6745832099324076 33.516588995348428 136.7776212305871 1 0 0 0 -0.52991927123019833 -0.84804809178421925 forward_v I I I I #
face $-1 $96 $97 $34 $-1 $98 forward single #
loop $-1 $99 $100 $44 #
cone-surface $-1 -4.1059448184917073 31.269459744042816 3.8410572987507678 0 -0.52991927123019833 -0.84804809178421925 2 0 0 1 I I 0 1 2 forward I I I I #
face $-1 $101 $102 $35 $-1 $103 forward single #
loop $-1 $104 $105 $45 #
cone-surface $-1 4.2470127686693431 31.269459744042816 3.8410572987507678 0 -0.52991927123019833 -0.84804809178421925 2 0 0 1 I I 0 1 2 forward I I I I #
face $-1 $106 $107 $36 $-1 $108 forward single #
loop $-1 $109 $110 $46 #
cone-surface $-1 12.599970355830393 31.269459744042816 3.8410572987507678 0 -0.52991927123019833 -0.84804809178421925 2 0 0 1 I I 0 1 2 forward I I I I #
face $-1 $111 $112 $37 $-1 $113 reversed single #
loop $-1 $-1 $114 $47 #
plane-surface $-1 47.949643709554181 -118.08125204782635 80.668275090099968 -1 0 0 0 -0.71933980857756763 0.69465836192734942 forward_v I I I I #
face $-1 $115 $116 $38 $-1 $117 forward single #
loop $-1 $118 $119 $48 #
cone-surface $-1 34.994173399214944 -32.469102438212516 3.5978133204761171 0 0.71933980857756763 -0.69465836192734942 1.5 0 0 1 I I 0 1 1.5 forward I I I I #
face $-1 $120 $121 $39 $-1 $122 forward single #
loop $-1 $123 $124 $49 #
cone-surface $-1 42.767455585418489 -32.469102438212516 3.5978133204761171 0 0.71933980857756763 -0.69465836192734942 1.5 0 0 1 I I 0 1 1.5 forward I I I I #
face $-1 $125 $126 $30 $-1 $127 reversed single #
loop $-1 $-1 $128 $50 #
plane-surface $-1 0 0 -8.4777569148494241 0 0 1 1 0 0 forward_v I I I I #
coedge $-1 $129 $130 $131 $132 forward $51 $-1 #
face $-1 $133 $134 $31 $-1 $135 forward single #
loop $-1 $-1 $136 $53 #
plane-surface $-1 0 37.319898008849478 0 0 -1 0 0 0 -1 forward_v I I I I #
coedge $-1 $137 $138 $139 $140 forward $54 $-1 #
face $-1 $141 $142 $32 $-1 $143 forward single #
loop $-1 $-1 $144 $56 #
plane-surface $-1 0 37.319898008849478 0 0 -1 0 0 0 -1 forward_v I I I I #
coedge $-1 $145 $146 $147 $148 forward $57 $-1 #
face $-1 $149 $150 $33 $-1 $151 reversed single #
loop $-1 $-1 $152 $59 #
plane-surface $-1 4.2470127686693431 -25.978238575123491 41.565996118255015 0 0.52991927123019833 0.84804809178421925 1 0 0 forward_v I I I I #
coedge $-1 $153 $154 $155 $156 reversed $60 $-1 #
face $-1 $-1 $157 $34 $-1 $158 forward single #
loop $-1 $159 $160 $62 #
cone-surface $-1 -4.1059448184917073 29.862045134890948 1.5887231443999443 0 -0.52991927123019833 -0.84804809178421925 1 0 0 1 I I -0.70710678118654746 0.70710678118654746 1 forward I I I I #
loop $-1 $-1 $161 $44 #
coedge $-1 $100 $100 $162 $163 reversed $63 $-1 #
face $-1 $-1 $164 $35 $-1 $165 forward single #
loop $-1 $166 $167 $65 #
cone-surface $-1 4.2470127686693431 29.862045134890948 1.5887231443999443 0 -0.52991927123019833 -0.84804809178421925 1 0 0 1 I I -0.70710678118654746 0.70710678118654746 1 forward I I I I #
loop $-1 $-1 $168 $45 #
coedge $-1 $105 $105 $169 $170 reversed $66 $-1 #
face $-1 $-1 $171 $36 $-1 $172 forward single #
loop $-1 $173 $174 $68 #
cone-surface $-1 12.599970355830393 29.862045134890948 1.5887231443999443 0 -0.52991927123019833 -0.84804809178421925 1 0 0 1 I I -0.70710678118654746 0.70710678118654746 1 forward I I I I #
loop $-1 $-1 $175 $46 #
coedge $-1 $110 $110 $176 $177 reversed $69 $-1 #
face $-1 $178 $179 $37 $-1 $180 reversed single #
loop $-1 $-1 $181 $71 #
plane-surface $-1 38.880814492316716 -37.319898008849464 2.6779439075585998 0 -0.71933980857756763 0.69465836192734942 1 0 0 forward_v I I I I #
coedge $-1 $182 $183 $184 $185 reversed $72 $-1 #
face $-1 $-1 $186 $38 $-1 $187 forward single #
loop $-1 $188 $189 $74 #
cone-surface $-1 34.994173399214944 -29.879209103234469 1.096782458302707 0 0.71933980857756763 -0.69465836192734942 0.75 0 0 1 I I -0.70710678118654757 0.70710678118654757 0.75 forward I I I I #
loop $-1 $-1 $190 $48 #
coedge $-1 $119 $119 $191 $192 reversed $75 $-1 #
face $-1 $-1 $193 $39 $-1 $194 forward single #
loop $-1 $195 $196 $77 #
cone-surface $-1 42.767455585418489 -29.879209103234469 1.096782458302707 0 0.71933980857756763 -0.69465836192734942 0.75 0 0 1 I I -0.70710678118654757 0.70710678118654757 0.75 forward I I I I #
loop $-1 $-1 $197 $49 #
coedge $-1 $124 $124 $198 $199 reversed $78 $-1 #
face $-1 $200 $201 $30 $-1 $202 reversed single #
loop $-1 $-1 $203 $80 #
plane-surface $-1 0 -37.319898008849478 0 0 1 0 0 0 1 forward_v I I I I #
coedge $-1 $204 $205 $206 $207 forward $81 $-1 #
coedge $-1 $208 $83 $209 $210 forward $51 $-1 #
coedge $-1 $83 $208 $211 $212 forward $51 $-1 #
coedge $-1 $213 $214 $83 $132 reversed $215 $-1 #
edge $-1 $216 -37.319898008849478 $217 37.319898008849478 $131 $218 forward 7 unknown #
face $-1 $219 $220 $31 $-1 $221 reversed single #
loop $-1 $-1 $139 $84 #
plane-surface $-1 -60.228797640446757 0 -5.1118543052714305 0 0 1 1 0 0 forward_v I I I I #
coedge $-1 $222 $223 $138 $224 forward $85 $-1 #
coedge $-1 $225 $87 $226 $227 reversed $54 $-1 #
coedge $-1 $87 $225 $136 $224 reversed $54 $-1 #
coedge $-1 $228 $229 $87 $140 reversed $134 $-1 #
edge $-1 $230 -37.319898008849478 $231 37.319898008849478 $139 $232 forward 7 unknown #
face $-1 $233 $234 $32 $-1 $235 reversed single #
loop $-1 $-1 $236 $88 #
plane-surface $-1 60.228797640446757 0 -5.1118543052714305 0 0 1 1 0 0 forward_v I I I I #
coedge $-1 $237 $238 $145 $239 forward $89 $-1 #
coedge $-1 $240 $91 $144 $239 reversed $57 $-1 #
coedge $-1 $91 $240 $241 $242 reversed $57 $-1 #
coedge $-1 $243 $244 $91 $148 reversed $142 $-1 #
edge $-1 $245 -37.319898008849478 $246 37.319898008849478 $147 $247 forward 7 unknown #
face $-1 $248 $249 $33 $-1 $250 reversed single #
loop $-1 $-1 $251 $92 #
plane-surface $-1 18.168608747271094 33.516588995348428 136.7776212305871 -1 0 0 0 0.52991927123019833 0.84804809178421925 forward_v I I I I #
coedge $-1 $252 $253 $254 $255 reversed $93 $-1 #
coedge $-1 $154 $95 $256 $257 reversed $60 $-1 #
coedge $-1 $95 $153 $252 $258 reversed $60 $-1 #
coedge $-1 $254 $259 $95 $156 forward $260 $-1 #
edge $-1 $261 -20.561603511175264 $262 -10.215717657405285 $155 $263 forward 7 unknown #
loop $-1 $-1 $162 $96 #
plane-surface $-1 4.2470127686693431 -25.978238575123491 41.565996118255015 0 0.52991927123019833 0.84804809178421925 1 0 0 forward_v I I I I #
loop $-1 $-1 $264 $62 #
coedge $-1 $160 $160 $161 $265 reversed $97 $-1 #
coedge $-1 $161 $161 $160 $265 forward $99 $-1 #
coedge $-1 $162 $162 $100 $163 forward $157 $-1 #
edge $-1 $266 4.7066286088987959e-016 $266 6.2831853071796013 $162 $267 forward 7 unknown #
loop $-1 $-1 $169 $101 #
plane-surface $-1 4.2470127686693431 -25.978238575123491 41.565996118255015 0 0.52991927123019833 0.84804809178421925 1 0 0 forward_v I I I I #
loop $-1 $-1 $268 $65 #
coedge $-1 $167 $167 $168 $269 reversed $102 $-1 #
coedge $-1 $168 $168 $167 $269 forward $104 $-1 #
coedge $-1 $169 $169 $105 $170 forward $164 $-1 #
edge $-1 $270 4.7066286088987959e-016 $270 6.2831853071796013 $169 $271 forward 7 unknown #
loop $-1 $-1 $176 $106 #
plane-surface $-1 4.2470127686693431 -25.978238575123491 41.565996118255015 0 0.52991927123019833 0.84804809178421925 1 0 0 forward_v I I I I #
loop $-1 $-1 $272 $68 #
coedge $-1 $174 $174 $175 $273 reversed $107 $-1 #
coedge $-1 $175 $175 $174 $273 forward $109 $-1 #
coedge $-1 $176 $176 $110 $177 forward $171 $-1 #
edge $-1 $274 4.7066286088987959e-016 $274 6.2831853071796013 $176 $275 forward 7 unknown #
face $-1 $276 $277 $37 $-1 $278 forward single #
loop $-1 $-1 $279 $111 #
plane-surface $-1 29.811985275079252 -118.08125204782635 80.668275090099968 1 0 0 0 0.71933980857756763 -0.69465836192734942 forward_v I I I I #
coedge $-1 $280 $281 $282 $283 reversed $112 $-1 #
coedge $-1 $183 $114 $284 $285 reversed $72 $-1 #
coedge $-1 $114 $182 $280 $286 reversed $72 $-1 #
coedge $-1 $282 $287 $114 $185 forward $277 $-1 #
edge $-1 $288 21.720728015063699 $289 27.321542199247901 $184 $290 forward 7 unknown #
loop $-1 $-1 $191 $115 #
plane-surface $-1 38.880814492316716 -37.319898008849464 2.6779439075585998 0 -0.71933980857756763 0.69465836192734942 1 0 0 forward_v I I I I #
loop $-1 $-1 $291 $74 #
coedge $-1 $189 $189 $190 $292 reversed $116 $-1 #
coedge $-1 $190 $190 $189 $292 forward $118 $-1 #
coedge $-1 $191 $191 $119 $192 forward $186 $-1 #
edge $-1 $293 -1.4699092834213325e-015 $293 6.2831853071795987 $191 $294 forward 7 unknown #
loop $-1 $-1 $198 $120 #
plane-surface $-1 38.880814492316716 -37.319898008849464 2.6779439075585998 0 -0.71933980857756763 0.69465836192734942 1 0 0 forward_v I I I I #
loop $-1 $-1 $295 $77 #
coedge $-1 $196 $196 $197 $296 reversed $121 $-1 #
coedge $-1 $197 $197 $196 $296 forward $123 $-1 #
coedge $-1 $198 $198 $124 $199 forward $193 $-1 #
edge $-1 $297 -1.4699092834213325e-015 $297 6.2831853071795987 $198 $298 forward 7 unknown #
face $-1 $299 $300 $30 $-1 $301 reversed single #
loop $-1 $-1 $302 $125 #
plane-surface $-1 -56.135746330149232 0 0 1 0 0 0 0 -1 forward_v I I I I #
coedge $-1 $303 $211 $302 $304 forward $126 $-1 #
coedge $-1 $305 $128 $303 $306 forward $81 $-1 #
coedge $-1 $128 $305 $307 $308 forward $81 $-1 #
coedge $-1 $214 $213 $128 $207 reversed $215 $-1 #
edge $-1 $309 -37.319898008849478 $310 37.319898008849478 $206 $311 forward 7 unknown #
coedge $-1 $130 $129 $312 $313 forward $51 $-1 #
coedge $-1 $314 $315 $129 $210 reversed $300 $-1 #
edge $-1 $217 -56.135746330149232 $316 56.135746330149232 $209 $317 forward 7 unknown #
coedge $-1 $203 $318 $130 $212 reversed $126 $-1 #
edge $-1 $319 -56.135746330149232 $216 56.135746330149232 $211 $320 forward 7 unknown #
coedge $-1 $206 $131 $318 $321 forward $215 $-1 #
coedge $-1 $131 $206 $314 $322 reversed $215 $-1 #
loop $-1 $-1 $214 $299 #
vertex $-1 $132 $323 #
vertex $-1 $132 $324 #
straight-curve $-1 56.135746330149232 0 8.4777569148494241 0 1 0 I I #
face $-1 $325 $326 $31 $-1 $327 reversed single #
loop $-1 $-1 $328 $133 #
plane-surface $-1 -64.321848950744283 0 -6.7948056100604273 1 0 0 0 0 -1 forward_v I I I I #
coedge $-1 $329 $136 $330 $331 reversed $85 $-1 #
coedge $-1 $136 $329 $228 $332 reversed $85 $-1 #
edge $-1 $230 5.1118543052714305 $333 8.4777569148494241 $136 $334 forward 7 unknown #
coedge $-1 $138 $137 $335 $336 reversed $54 $-1 #
coedge $-1 $337 $338 $137 $227 forward $339 $-1 #
edge $-1 $340 -8.4777569148494241 $231 -5.1118543052714305 $226 $341 forward 7 unknown #
coedge $-1 $342 $139 $223 $332 forward $134 $-1 #
coedge $-1 $139 $342 $337 $343 forward $134 $-1 #
vertex $-1 $224 $344 #
vertex $-1 $343 $345 #
straight-curve $-1 -56.135746330149232 0 -5.1118543052714305 0 -1 0 I I #
face $-1 $346 $347 $32 $-1 $348 reversed single #
loop $-1 $-1 $349 $141 #
plane-surface $-1 64.321848950744283 0 -6.7948056100604273 -1 0 0 0 0 1 forward_v I I I I #
coedge $-1 $244 $243 $350 $351 forward $142 $-1 #
coedge $-1 $352 $144 $244 $353 reversed $89 $-1 #
coedge $-1 $144 $352 $354 $355 reversed $89 $-1 #
edge $-1 $356 -8.4777569148494241 $246 -5.1118543052714305 $144 $357 forward 7 unknown #
coedge $-1 $146 $145 $358 $359 reversed $57 $-1 #
coedge $-1 $360 $361 $146 $242 forward $362 $-1 #
edge $-1 $245 5.1118543052714305 $363 8.4777569148494241 $241 $364 forward 7 unknown #
coedge $-1 $236 $147 $361 $365 forward $142 $-1 #
coedge $-1 $147 $236 $237 $353 forward $142 $-1 #
vertex $-1 $242 $366 #
vertex $-1 $353 $367 #
straight-curve $-1 56.135746330149232 0 -5.1118543052714305 0 1 0 I I #
face $-1 $-1 $260 $33 $-1 $368 forward single #
loop $-1 $-1 $369 $149 #
plane-surface $-1 0 37.319898008849478 0 0 -1 0 0 0 -1 forward_v I I I I #
coedge $-1 $370 $371 $372 $373 reversed $150 $-1 #
coedge $-1 $374 $152 $154 $258 forward $93 $-1 #
coedge $-1 $152 $374 $370 $375 forward $93 $-1 #
coedge $-1 $372 $155 $152 $255 forward $260 $-1 #
edge $-1 $262 -11.798089594267079 $376 16.045102362936422 $254 $377 forward 7 unknown #
coedge $-1 $378 $379 $153 $257 forward $249 $-1 #
edge $-1 $380 -66.375880807508224 $261 -59.911053700444128 $256 $381 forward 7 unknown #
edge $-1 $262 62.44015079238735 $380 74.639796017698956 $154 $382 forward 7 unknown #
coedge $-1 $155 $372 $378 $383 forward $260 $-1 #
loop $-1 $-1 $372 $248 #
vertex $-1 $257 $384 #
vertex $-1 $156 $385 #
straight-curve $-1 -9.6745832099324076 16.758294497674214 8.4777569148494223 0 -1 0 I I #
coedge $-1 $264 $264 $-1 $386 reversed $159 $-1 #
edge $-1 $387 0 $387 6.2831853071796004 $160 $388 forward 7 unknown #
vertex $-1 $163 $389 #
ellipse-curve $-1 -4.1059448184917073 32.146955081964485 5.2453433613173752 0 0.52991927123019833 0.84804809178421925 2 0 0 1 I I #
coedge $-1 $268 $268 $-1 $390 reversed $166 $-1 #
edge $-1 $391 0 $391 6.2831853071796004 $167 $392 forward 7 unknown #
vertex $-1 $170 $393 #
ellipse-curve $-1 4.2470127686693431 32.146955081964485 5.2453433613173752 0 0.52991927123019833 0.84804809178421925 2 0 0 1 I I #
coedge $-1 $272 $272 $-1 $394 reversed $173 $-1 #
edge $-1 $395 0 $395 6.2831853071796004 $174 $396 forward 7 unknown #
vertex $-1 $177 $397 #
ellipse-curve $-1 12.599970355830393 32.146955081964485 5.2453433613173752 0 0.52991927123019833 0.84804809178421925 2 0 0 1 I I #
face $-1 $-1 $398 $37 $-1 $399 reversed single #
loop $-1 $-1 $184 $178 #
plane-surface $-1 0 0 8.4777569148494241 0 0 1 1 0 0 forward_v I I I I #
coedge $-1 $400 $401 $402 $403 reversed $179 $-1 #
coedge $-1 $404 $181 $183 $286 forward $112 $-1 #
coedge $-1 $181 $404 $400 $405 forward $112 $-1 #
coedge $-1 $402 $184 $181 $283 forward $277 $-1 #
edge $-1 $289 -28.509236463395823 $406 -10.371578028920894 $282 $407 forward 7 unknown #
coedge $-1 $408 $409 $182 $285 forward $398 $-1 #
edge $-1 $410 -37.656193637491398 $288 -31.856380630200562 $284 $411 forward 7 unknown #
edge $-1 $289 -8.062688785095121 $410 2.0413573615811715e-014 $183 $412 forward 7 unknown #
coedge $-1 $184 $402 $408 $413 forward $277 $-1 #
vertex $-1 $285 $414 #
vertex $-1 $185 $415 #
straight-curve $-1 47.949643709554181 -59.040626023913177 8.4777569148494223 0 1 0 I I #
coedge $-1 $291 $291 $-1 $416 reversed $188 $-1 #
edge $-1 $417 0 $417 6.2831853071796004 $189 $418 forward 7 unknown #
vertex $-1 $192 $419 #
ellipse-curve $-1 34.994173399214944 -34.519490916757377 5.5778504112040057 0 -0.71933980857756763 0.69465836192734942 1.5 0 0 1 I I #
coedge $-1 $295 $295 $-1 $420 reversed $195 $-1 #
edge $-1 $421 0 $421 6.2831853071796004 $196 $422 forward 7 unknown #
vertex $-1 $199 $423 #
ellipse-curve $-1 42.767455585418489 -34.519490916757377 5.5778504112040057 0 -0.71933980857756763 0.69465836192734942 1.5 0 0 1 I I #
face $-1 $-1 $215 $30 $-1 $424 reversed single #
loop $-1 $-1 $314 $200 #
plane-surface $-1 0 37.319898008849478 0 0 -1 0 0 0 -1 forward_v I I I I #
coedge $-1 $312 $425 $203 $304 reversed $201 $-1 #
coedge $-1 $318 $203 $204 $306 reversed $126 $-1 #
edge $-1 $319 -8.4777569148494241 $426 8.4777569148494241 $302 $427 forward 7 unknown #
coedge $-1 $205 $204 $425 $428 forward $81 $-1 #
edge $-1 $310 -56.135746330149232 $426 56.135746330149232 $303 $429 forward 7 unknown #
coedge $-1 $315 $314 $205 $308 reversed $300 $-1 #
edge $-1 $430 -56.135746330149232 $309 56.135746330149232 $307 $431 forward 7 unknown #
vertex $-1 $207 $432 #
vertex $-1 $321 $433 #
straight-curve $-1 56.135746330149232 0 -8.4777569148494241 0 -1 0 I I #
coedge $-1 $434 $302 $208 $313 reversed $201 $-1 #
edge $-1 $316 -37.319898008849478 $319 37.319898008849478 $312 $435 forward 7 unknown #
coedge $-1 $307 $209 $214 $322 forward $300 $-1 #
coedge $-1 $209 $307 $434 $436 reversed $300 $-1 #
vertex $-1 $210 $437 #
straight-curve $-1 0 37.319898008849478 8.4777569148494241 -1 0 0 I I #
coedge $-1 $211 $303 $213 $321 reversed $126 $-1 #
vertex $-1 $313 $438 #
straight-curve $-1 0 -37.319898008849478 8.4777569148494241 1 0 0 I I #
edge $-1 $216 -8.4777569148494241 $310 8.4777569148494241 $213 $439 forward 7 unknown #
edge $-1 $217 -8.4777569148494241 $309 8.4777569148494241 $214 $440 forward 7 unknown #
point $-1 56.135746330149232 -37.319898008849478 8.4777569148494241 #
point $-1 56.135746330149232 37.319898008849478 8.4777569148494241 #
face $-1 $-1 $339 $31 $-1 $441 reversed single #
loop $-1 $-1 $335 $219 #
plane-surface $-1 0 0 -8.4777569148494241 0 0 1 1 0 0 forward_v I I I I #
coedge $-1 $442 $443 $329 $444 forward $220 $-1 #
coedge $-1 $223 $222 $328 $444 reversed $85 $-1 #
coedge $-1 $335 $445 $222 $331 forward $326 $-1 #
edge $-1 $446 -64.321848950744283 $333 -56.135746330149232 $222 $447 forward 7 unknown #
edge $-1 $230 -4.0930513102975254 $448 4.0930513102975254 $223 $449 forward 7 unknown #
vertex $-1 $224 $450 #
straight-curve $-1 -56.135746330149232 37.319898008849478 0 0 0 -1 I I #
coedge $-1 $451 $330 $225 $336 forward $326 $-1 #
edge $-1 $333 -37.319898008849478 $340 37.319898008849478 $335 $452 forward 7 unknown #
coedge $-1 $453 $226 $229 $343 reversed $339 $-1 #
coedge $-1 $226 $453 $451 $454 reversed $339 $-1 #
loop $-1 $-1 $226 $325 #
vertex $-1 $454 $455 #
straight-curve $-1 -56.135746330149232 -37.319898008849478 0 0 0 1 I I #
coedge $-1 $229 $228 $443 $456 forward $134 $-1 #
edge $-1 $457 -4.0930513102975254 $231 4.0930513102975254 $337 $458 forward 7 unknown #
point $-1 -56.135746330149232 37.319898008849478 -5.1118543052714305 #
point $-1 -56.135746330149232 -37.319898008849478 -5.1118543052714305 #
face $-1 $-1 $362 $32 $-1 $459 reversed single #
loop $-1 $-1 $358 $233 #
plane-surface $-1 0 0 -8.4777569148494241 0 0 1 1 0 0 forward_v I I I I #
coedge $-1 $460 $350 $461 $462 forward $234 $-1 #
coedge $-1 $349 $463 $236 $351 reversed $234 $-1 #
edge $-1 $464 -37.319898008849478 $465 37.319898008849478 $350 $466 forward 7 unknown #
coedge $-1 $238 $237 $463 $467 forward $89 $-1 #
edge $-1 $465 -4.0930513102975254 $246 4.0930513102975254 $237 $468 forward 7 unknown #
coedge $-1 $469 $358 $238 $355 forward $347 $-1 #
edge $-1 $356 -4.0930513102975254 $470 4.0930513102975254 $238 $471 forward 7 unknown #
vertex $-1 $355 $472 #
straight-curve $-1 56.135746330149232 37.319898008849478 0 0 0 1 I I #
coedge $-1 $354 $473 $240 $359 forward $347 $-1 #
edge $-1 $363 -37.319898008849478 $356 37.319898008849478 $358 $474 forward 7 unknown #
coedge $-1 $461 $241 $473 $475 reversed $362 $-1 #
coedge $-1 $241 $461 $243 $365 reversed $362 $-1 #
loop $-1 $-1 $241 $346 #
vertex $-1 $242 $476 #
straight-curve $-1 56.135746330149232 -37.319898008849478 0 0 0 -1 I I #
edge $-1 $245 -4.0930513102975254 $464 4.0930513102975254 $361 $477 forward 7 unknown #
point $-1 56.135746330149232 -37.319898008849478 -5.1118543052714305 #
point $-1 56.135746330149232 37.319898008849478 -5.1118543052714305 #
plane-surface $-1 0 0 8.4777569148494241 0 0 1 1 0 0 forward_v I I I I #
coedge $-1 $379 $378 $371 $478 forward $249 $-1 #
coedge $-1 $371 $251 $253 $375 reversed $150 $-1 #
coedge $-1 $251 $370 $369 $478 reversed $150 $-1 #
coedge $-1 $259 $254 $251 $373 forward $260 $-1 #
edge $-1 $376 10.215717657405285 $479 20.561603511175264 $372 $480 forward 7 unknown #
coedge $-1 $253 $252 $379 $481 reversed $93 $-1 #
edge $-1 $482 -74.639796017698956 $376 -62.44015079238735 $370 $483 forward 7 unknown #
vertex $-1 $255 $484 #
straight-curve $-1 2.1235063843346715 26.974012155079507 8.4777569148494223 1 0 0 I I #
coedge $-1 $369 $256 $259 $383 reversed $249 $-1 #
coedge $-1 $256 $369 $374 $481 forward $249 $-1 #
vertex $-1 $257 $485 #
straight-curve $-1 -9.6745832099324076 37.319898008849478 68.388810615293551 0 0 1 I I #
straight-curve $-1 -9.6745832099324076 -25.978238575123491 41.565996118255015 0 0.84804809178421925 -0.52991927123019833 I I #
edge $-1 $479 -18.168608747271094 $261 9.6745832099324076 $378 $486 forward 7 unknown #
point $-1 -9.6745832099324076 37.319898008849478 8.4777569148494241 #
point $-1 -9.6745832099324076 26.9740121550795 8.4777569148494223 #
edge $-1 $487 1 $487 0 $264 $-1 forward 7 unknown #
vertex $-1 $265 $488 #
ellipse-curve $-1 -4.1059448184917073 30.391964406121147 2.4367712361841636 0 0.52991927123019833 0.84804809178421925 2 0 0 1 I I #
point $-1 -2.1059448184917073 32.146955081964485 5.2453433613173734 #
edge $-1 $489 1 $489 0 $268 $-1 forward 7 unknown #
vertex $-1 $269 $490 #
ellipse-curve $-1 4.2470127686693431 30.391964406121147 2.4367712361841636 0 0.52991927123019833 0.84804809178421925 2 0 0 1 I I #
point $-1 6.2470127686693431 32.146955081964485 5.2453433613173734 #
edge $-1 $491 1 $491 0 $272 $-1 forward 7 unknown #
vertex $-1 $273 $492 #
ellipse-curve $-1 12.599970355830393 30.391964406121147 2.4367712361841636 0 0.52991927123019833 0.84804809178421925 2 0 0 1 I I #
point $-1 14.599970355830393 32.146955081964485 5.2453433613173734 #
loop $-1 $-1 $284 $276 #
plane-surface $-1 0 -37.319898008849478 0 0 1 0 0 0 1 forward_v I I I I #
coedge $-1 $401 $279 $281 $405 reversed $179 $-1 #
coedge $-1 $279 $400 $493 $494 reversed $179 $-1 #
coedge $-1 $287 $282 $279 $403 forward $277 $-1 #
edge $-1 $406 -27.321542199247901 $495 -21.720728015063699 $402 $496 forward 7 unknown #
coedge $-1 $281 $280 $409 $497 reversed $112 $-1 #
edge $-1 $498 -2.0413573615811715e-014 $406 8.062688785095121 $400 $499 forward 7 unknown #
vertex $-1 $283 $500 #
straight-curve $-1 19.440407246158358 -31.71908382466528 8.4777569148494241 -1 0 0 I I #
coedge $-1 $493 $284 $287 $413 reversed $398 $-1 #
coedge $-1 $284 $493 $404 $497 forward $398 $-1 #
vertex $-1 $285 $501 #
straight-curve $-1 47.949643709554181 -37.319898008849478 40.334137545049984 0 0 1 I I #
straight-curve $-1 47.949643709554181 -37.319898008849464 2.6779439075585998 0 -0.69465836192734942 -0.71933980857756763 I I #
edge $-1 $495 29.811985275079252 $288 47.949643709554181 $408 $502 forward 7 unknown #
point $-1 47.949643709554181 -37.319898008849478 8.4777569148494241 #
point $-1 47.949643709554181 -31.719083824665276 8.4777569148494241 #
edge $-1 $503 1 $503 0 $291 $-1 forward 7 unknown #
vertex $-1 $292 $504 #
ellipse-curve $-1 34.994173399214944 -30.418713959667645 1.6177762297482192 0 -0.71933980857756763 0.69465836192734942 1.5 0 0 1 I I #
point $-1 36.494173399214944 -34.519490916757391 5.5778504112040164 #
edge $-1 $505 1 $505 0 $295 $-1 forward 7 unknown #
vertex $-1 $296 $506 #
ellipse-curve $-1 42.767455585418489 -30.418713959667645 1.6177762297482192 0 -0.71933980857756763 0.69465836192734942 1.5 0 0 1 I I #
point $-1 44.267455585418489 -34.519490916757391 5.5778504112040164 #
plane-surface $-1 56.135746330149232 0 0 -1 0 0 0 0 1 forward_v I I I I #
coedge $-1 $302 $434 $305 $428 reversed $201 $-1 #
vertex $-1 $428 $507 #
straight-curve $-1 -56.135746330149232 -37.319898008849478 0 0 0 -1 I I #
edge $-1 $426 -37.319898008849478 $430 37.319898008849478 $425 $508 forward 7 unknown #
straight-curve $-1 0 -37.319898008849478 -8.4777569148494241 -1 0 0 I I #
vertex $-1 $308 $509 #
straight-curve $-1 0 37.319898008849478 -8.4777569148494241 1 0 0 I I #
point $-1 56.135746330149232 37.319898008849478 -8.4777569148494241 #
point $-1 56.135746330149232 -37.319898008849478 -8.4777569148494241 #
coedge $-1 $425 $312 $315 $436 forward $201 $-1 #
straight-curve $-1 -56.135746330149232 0 8.4777569148494241 0 -1 0 I I #
edge $-1 $316 -8.4777569148494241 $430 8.4777569148494241 $315 $510 forward 7 unknown #
point $-1 -56.135746330149232 37.319898008849478 8.4777569148494241 #
point $-1 -56.135746330149232 -37.319898008849478 8.4777569148494241 #
straight-curve $-1 56.135746330149232 -37.319898008849478 0 0 0 -1 I I #
straight-curve $-1 56.135746330149232 37.319898008849478 0 0 0 -1 I I #
plane-surface $-1 0 -37.319898008849478 0 0 1 0 0 0 1 forward_v I I I I #
coedge $-1 $511 $328 $445 $512 reversed $220 $-1 #
coedge $-1 $328 $511 $342 $456 reversed $220 $-1 #
edge $-1 $448 -1.6829513047889968 $446 1.6829513047889968 $329 $513 forward 7 unknown #
coedge $-1 $330 $451 $442 $512 forward $326 $-1 #
vertex $-1 $331 $514 #
straight-curve $-1 0 37.319898008849478 -8.4777569148494241 1 0 0 I I #
vertex $-1 $332 $515 #
straight-curve $-1 -60.228797640446757 37.319898008849478 -5.1118543052714305 -1 0 0 I I #
point $-1 -56.135746330149232 37.319898008849478 -8.4777569148494241 #
coedge $-1 $445 $335 $338 $454 forward $326 $-1 #
straight-curve $-1 -56.135746330149232 0 -8.4777569148494241 0 -1 0 I I #
coedge $-1 $338 $337 $511 $516 forward $339 $-1 #
edge $-1 $340 -4.0930513102975254 $517 4.0930513102975254 $338 $518 forward 7 unknown #
point $-1 -56.135746330149232 -37.319898008849478 -8.4777569148494241 #
edge $-1 $448 -37.319898008849478 $457 37.319898008849478 $443 $519 forward 7 unknown #
vertex $-1 $456 $520 #
straight-curve $-1 -60.228797640446757 -37.319898008849478 -5.1118543052714305 1 0 0 I I #
plane-surface $-1 0 -37.319898008849478 0 0 1 0 0 0 1 forward_v I I I I #
coedge $-1 $463 $349 $469 $521 reversed $234 $-1 #
coedge $-1 $361 $360 $349 $462 reversed $362 $-1 #
edge $-1 $464 -1.6829513047889968 $522 1.6829513047889968 $349 $523 forward 7 unknown #
coedge $-1 $350 $460 $352 $467 reversed $234 $-1 #
vertex $-1 $351 $524 #
vertex $-1 $351 $525 #
straight-curve $-1 64.321848950744283 0 -5.1118543052714305 0 1 0 I I #
edge $-1 $465 -1.6829513047889968 $470 1.6829513047889968 $463 $526 forward 7 unknown #
straight-curve $-1 60.228797640446757 37.319898008849478 -5.1118543052714305 -1 0 0 I I #
coedge $-1 $473 $354 $460 $521 forward $347 $-1 #
vertex $-1 $521 $527 #
straight-curve $-1 60.228797640446757 37.319898008849478 -8.4777569148494241 1 0 0 I I #
point $-1 56.135746330149232 37.319898008849478 -8.4777569148494241 #
coedge $-1 $358 $469 $360 $475 forward $347 $-1 #
straight-curve $-1 56.135746330149232 0 -8.4777569148494241 0 1 0 I I #
edge $-1 $522 -4.0930513102975254 $363 4.0930513102975254 $360 $528 forward 7 unknown #
point $-1 56.135746330149232 -37.319898008849478 -8.4777569148494241 #
straight-curve $-1 60.228797640446757 -37.319898008849478 -5.1118543052714305 1 0 0 I I #
edge $-1 $479 59.911053700444128 $482 66.375880807508224 $369 $529 forward 7 unknown #
vertex $-1 $383 $530 #
straight-curve $-1 18.168608747271094 16.758294497674214 8.4777569148494223 0 1 0 I I #
edge $-1 $482 -16.045102362936422 $380 11.798089594267079 $379 $531 forward 7 unknown #
vertex $-1 $481 $532 #
straight-curve $-1 18.168608747271094 -25.978238575123491 41.565996118255015 0 -0.84804809178421925 0.52991927123019833 I I #
point $-1 18.168608747271094 26.9740121550795 8.4777569148494223 #
point $-1 -9.6745832099324076 37.319898008849478 2.0129298077853264 #
straight-curve $-1 0 37.319898008849478 8.4777569148494241 -1 0 0 I I #
vertex $-1 $386 $533 #
point $-1 -2.1059448184917073 30.391964406121147 2.4367712361841636 #
vertex $-1 $390 $534 #
point $-1 6.2470127686693431 30.391964406121147 2.4367712361841636 #
vertex $-1 $394 $535 #
point $-1 14.599970355830393 30.391964406121147 2.4367712361841636 #
coedge $-1 $409 $408 $401 $494 forward $398 $-1 #
edge $-1 $495 31.856380630200562 $498 37.656193637491398 $493 $536 forward 7 unknown #
vertex $-1 $413 $537 #
straight-curve $-1 29.811985275079252 -59.040626023913177 8.4777569148494223 0 -1 0 I I #
edge $-1 $498 10.371578028920894 $410 28.509236463395823 $409 $538 forward 7 unknown #
vertex $-1 $497 $539 #
straight-curve $-1 29.811985275079252 -37.319898008849464 2.6779439075585998 0 0.69465836192734942 0.71933980857756763 I I #
point $-1 29.811985275079252 -31.719083824665276 8.4777569148494241 #
point $-1 47.949643709554181 -37.319898008849478 2.6779439075585851 #
straight-curve $-1 0 -37.319898008849478 8.4777569148494241 1 0 0 I I #
vertex $-1 $416 $540 #
point $-1 36.494173399214944 -30.418713959667645 1.6177762297482192 #
vertex $-1 $420 $541 #
point $-1 44.267455585418489 -30.418713959667645 1.6177762297482192 #
point $-1 -56.135746330149232 -37.319898008849478 -8.4777569148494241 #
straight-curve $-1 -56.135746330149232 0 -8.4777569148494241 0 1 0 I I #
point $-1 -56.135746330149232 37.319898008849478 -8.4777569148494241 #
straight-curve $-1 -56.135746330149232 37.319898008849478 0 0 0 -1 I I #
coedge $-1 $443 $442 $453 $516 reversed $220 $-1 #
edge $-1 $517 -37.319898008849478 $446 37.319898008849478 $442 $542 forward 7 unknown #
straight-curve $-1 -64.321848950744283 37.319898008849478 -6.7948056100604273 0 0 -1 I I #
point $-1 -64.321848950744283 37.319898008849478 -8.4777569148494241 #
point $-1 -64.321848950744283 37.319898008849478 -5.1118543052714305 #
edge $-1 $457 -1.6829513047889968 $517 1.6829513047889968 $511 $543 forward 7 unknown #
vertex $-1 $512 $544 #
straight-curve $-1 -60.228797640446757 -37.319898008849478 -8.4777569148494241 -1 0 0 I I #
straight-curve $-1 -64.321848950744283 0 -5.1118543052714305 0 -1 0 I I #
point $-1 -64.321848950744283 -37.319898008849478 -5.1118543052714305 #
edge $-1 $470 -37.319898008849478 $522 37.319898008849478 $460 $545 forward 7 unknown #
vertex $-1 $462 $546 #
straight-curve $-1 64.321848950744283 -37.319898008849478 -6.7948056100604273 0 0 -1 I I #
point $-1 64.321848950744283 -37.319898008849478 -5.1118543052714305 #
point $-1 64.321848950744283 37.319898008849478 -5.1118543052714305 #
straight-curve $-1 64.321848950744283 37.319898008849478 -6.7948056100604273 0 0 -1 I I #
point $-1 64.321848950744283 37.319898008849478 -8.4777569148494241 #
straight-curve $-1 60.228797640446757 -37.319898008849478 -8.4777569148494241 -1 0 0 I I #
straight-curve $-1 18.168608747271094 37.319898008849478 68.388810615293551 0 0 -1 I I #
point $-1 18.168608747271094 37.319898008849478 8.4777569148494241 #
straight-curve $-1 2.1235063843346715 37.319898008849485 2.0129298077853228 -1 0 0 I I #
point $-1 18.168608747271094 37.319898008849478 2.0129298077853264 #
point $-1 -4.1059448184917073 29.33212586366075 0.74067505261572508 #
point $-1 4.2470127686693431 29.33212586366075 0.74067505261572508 #
point $-1 12.599970355830393 29.33212586366075 0.74067505261572508 #
straight-curve $-1 29.811985275079252 -37.319898008849478 40.334137545049984 0 0 -1 I I #
point $-1 29.811985275079252 -37.319898008849478 8.4777569148494241 #
straight-curve $-1 19.440407246158358 -37.319898008849478 2.6779439075585816 1 0 0 I I #
point $-1 29.811985275079252 -37.319898008849478 2.6779439075585851 #
point $-1 34.994173399214944 -29.339704246801293 0.57578868685719498 #
point $-1 42.767455585418489 -29.339704246801293 0.57578868685719498 #
straight-curve $-1 -64.321848950744283 0 -8.4777569148494241 0 1 0 I I #
straight-curve $-1 -64.321848950744283 -37.319898008849478 -6.7948056100604273 0 0 -1 I I #
point $-1 -64.321848950744283 -37.319898008849478 -8.4777569148494241 #
straight-curve $-1 64.321848950744283 0 -8.4777569148494241 0 -1 0 I I #
point $-1 64.321848950744283 -37.319898008849478 -8.4777569148494241 #
End-of-ACIS-data 