500 0 8 0           
7 Unknown 11 ACIS 5.0 NT 24 Thu Mar 25 21:32:01 1999 
-1 9.9999999999999995e-007 1e-010 
body $-1 $8 $-1 $9 #
body $-1 $10 $-1 $11 #
body $-1 $12 $-1 $13 #
body $-1 $14 $-1 $15 #
body $-1 $16 $-1 $17 #
body $-1 $18 $-1 $19 #
body $-1 $20 $-1 $21 #
body $-1 $22 $-1 $23 #
lump $-1 $-1 $24 $0 #
transform $-1 1 0 0 0 1 0 0 0 1 45.128330332346565 19.814349060287388 5.3078533375523724 1 rotate no_reflect no_shear #
lump $-1 $-1 $25 $1 #
transform $-1 1 0 0 0 1 0 0 0 1 45.128330332346565 19.814349060287388 5.3078533375523724 1 rotate no_reflect no_shear #
lump $-1 $-1 $26 $2 #
transform $-1 1 0 0 0 1 0 0 0 1 45.128330332346565 19.814349060287388 5.3078533375523724 1 rotate no_reflect no_shear #
lump $-1 $-1 $27 $3 #
transform $-1 1 0 0 0 1 0 0 0 1 45.128330332346565 19.814349060287388 5.3078533375523724 1 rotate no_reflect no_shear #
lump $-1 $-1 $28 $4 #
transform $-1 1 0 0 0 1 0 0 0 1 45.128330332346565 19.814349060287388 5.3078533375523724 1 rotate no_reflect no_shear #
lump $-1 $-1 $29 $5 #
transform $-1 1 0 0 0 1 0 0 0 1 45.128330332346565 19.814349060287388 5.3078533375523724 1 rotate no_reflect no_shear #
lump $-1 $-1 $30 $6 #
transform $-1 1 0 0 0 1 0 0 0 1 45.128330332346565 19.814349060287388 5.3078533375523724 1 rotate no_reflect no_shear #
lump $-1 $-1 $31 $7 #
transform $-1 1 0 0 0 1 0 0 0 1 45.128330332346565 19.814349060287388 5.3078533375523724 1 rotate no_reflect no_shear #
shell $-1 $-1 $-1 $32 $-1 $8 #
shell $-1 $-1 $-1 $33 $-1 $10 #
shell $-1 $-1 $-1 $34 $-1 $12 #
shell $-1 $-1 $-1 $35 $-1 $14 #
shell $-1 $-1 $-1 $36 $-1 $16 #
shell $-1 $-1 $-1 $37 $-1 $18 #
shell $-1 $-1 $-1 $38 $-1 $20 #
shell $-1 $-1 $-1 $39 $-1 $22 #
face $-1 $40 $41 $24 $-1 $42 forward single #
face $-1 $43 $44 $25 $-1 $45 forward single #
face $-1 $46 $47 $26 $-1 $48 reversed single #
face $-1 $49 $50 $27 $-1 $51 forward single #
face $-1 $52 $53 $28 $-1 $54 reversed single #
face $-1 $55 $56 $29 $-1 $57 forward single #
face $-1 $58 $59 $30 $-1 $60 reversed single #
face $-1 $61 $62 $31 $-1 $63 forward single #
face $-1 $64 $65 $24 $-1 $66 reversed single #
loop $-1 $-1 $67 $32 #
plane-surface $-1 0 0 5.3078533375523724 0 0 1 1 0 0 forward_v I I I I #
face $-1 $68 $69 $25 $-1 $70 reversed single #
loop $-1 $-1 $71 $33 #
plane-surface $-1 -45.128330332346565 0 0 1 0 0 0 0 -1 forward_v I I I I #
face $-1 $72 $73 $26 $-1 $74 reversed single #
loop $-1 $-1 $75 $34 #
plane-surface $-1 -6.2635256233492456 -74.132164075491247 74.38157517520564 -1 0 0 0 -0.6018150307709319 0.79863550430605224 forward_v I I I I #
face $-1 $76 $77 $27 $-1 $78 forward single #
loop $-1 $79 $80 $35 #
cone-surface $-1 -15.933709564102106 -17.517266347416058 3.4043096507622685 0 0.6018150307709319 -0.79863550430605224 0.5 0 0 1 I I 0 1 0.5 forward I I I I #
face $-1 $81 $82 $28 $-1 $83 reversed single #
loop $-1 $-1 $84 $36 #
plane-surface $-1 32.173310853452733 -74.132164075491247 74.38157517520564 -1 0 0 0 -0.6018150307709319 0.79863550430605224 forward_v I I I I #
face $-1 $85 $86 $29 $-1 $87 forward single #
loop $-1 $88 $89 $37 #
cone-surface $-1 22.503126912699869 -17.517266347416058 3.4043096507622685 0 0.6018150307709319 -0.79863550430605224 0.5 0 0 1 I I 0 1 0.5 forward I I I I #
face $-1 $90 $91 $30 $-1 $92 reversed single #
loop $-1 $-1 $93 $38 #
plane-surface $-1 -23.630239787795773 61.933151459660579 90.300890510578753 1 0 0 0 -0.75470958851134928 -0.65605901945558964 forward_v I I I I #
face $-1 $94 $95 $31 $-1 $96 forward single #
loop $-1 $97 $98 $39 #
cone-surface $-1 -18.937118844301072 17.441632822885214 2.740863738341571 0 -0.75470958851134928 -0.65605901945558964 1 0 0 1 I I 0 1 1 forward I I I I #
face $-1 $99 $100 $24 $-1 $101 reversed single #
loop $-1 $-1 $102 $40 #
plane-surface $-1 0 0 -5.3078533375523724 0 0 1 1 0 0 forward_v I I I I #
coedge $-1 $103 $104 $105 $106 forward $41 $-1 #
face $-1 $107 $108 $25 $-1 $109 forward single #
loop $-1 $-1 $110 $43 #
plane-surface $-1 0 19.814349060287388 0 0 -1 0 0 0 -1 forward_v I I I I #
coedge $-1 $111 $112 $113 $114 forward $44 $-1 #
face $-1 $115 $116 $26 $-1 $117 reversed single #
loop $-1 $-1 $118 $46 #
plane-surface $-1 -15.933709564102106 -19.814349060287391 2.2994014682782193 0 -0.6018150307709319 0.79863550430605224 1 0 0 forward_v I I I I #
coedge $-1 $119 $120 $121 $122 reversed $47 $-1 #
face $-1 $-1 $123 $27 $-1 $124 forward single #
loop $-1 $125 $126 $49 #
cone-surface $-1 -15.933709564102106 -17.065905074337859 2.8053330225327295 0 0.6018150307709319 -0.79863550430605224 0.25 0 0 1 I I -0.70710678118654746 0.70710678118654746 0.25 forward I I I I #
loop $-1 $-1 $127 $35 #
coedge $-1 $80 $80 $128 $129 reversed $50 $-1 #
face $-1 $130 $131 $28 $-1 $132 reversed single #
loop $-1 $-1 $133 $52 #
plane-surface $-1 22.503126912699869 -19.814349060287391 2.2994014682782193 0 -0.6018150307709319 0.79863550430605224 1 0 0 forward_v I I I I #
coedge $-1 $134 $135 $136 $137 reversed $53 $-1 #
face $-1 $-1 $138 $29 $-1 $139 forward single #
loop $-1 $140 $141 $55 #
cone-surface $-1 22.503126912699869 -17.065905074337859 2.8053330225327295 0 0.6018150307709319 -0.79863550430605224 0.25 0 0 1 I I -0.70710678118654746 0.70710678118654746 0.25 forward I I I I #
loop $-1 $-1 $142 $37 #
coedge $-1 $89 $89 $143 $144 reversed $56 $-1 #
face $-1 $145 $146 $30 $-1 $147 reversed single #
loop $-1 $-1 $148 $58 #
plane-surface $-1 -18.937118844301068 -6.1844157709984557 31.087194215564288 0 0.75470958851134928 0.65605901945558964 1 0 0 forward_v I I I I #
coedge $-1 $149 $150 $151 $152 reversed $59 $-1 #
face $-1 $-1 $153 $31 $-1 $154 forward single #
loop $-1 $155 $156 $61 #
cone-surface $-1 -18.937118844301072 16.486124925323846 1.9102534163067455 0 -0.75470958851134928 -0.65605901945558964 0.5 0 0 1 I I -0.70710678118654746 0.70710678118654746 0.5 forward I I I I #
loop $-1 $-1 $157 $39 #
coedge $-1 $98 $98 $158 $159 reversed $62 $-1 #
face $-1 $160 $161 $24 $-1 $162 reversed single #
loop $-1 $-1 $163 $64 #
plane-surface $-1 0 -19.814349060287388 0 0 1 0 0 0 1 forward_v I I I I #
coedge $-1 $164 $165 $166 $167 forward $65 $-1 #
coedge $-1 $168 $67 $169 $170 forward $41 $-1 #
coedge $-1 $67 $168 $171 $172 forward $41 $-1 #
coedge $-1 $173 $174 $67 $106 reversed $175 $-1 #
edge $-1 $176 -19.814349060287388 $177 19.814349060287388 $105 $178 forward 7 unknown #
face $-1 $179 $180 $25 $-1 $181 reversed single #
loop $-1 $-1 $113 $68 #
plane-surface $-1 -48.413039006645448 0 1.9305580802524345 0 0 1 1 0 0 forward_v I I I I #
coedge $-1 $182 $183 $112 $184 forward $69 $-1 #
coedge $-1 $185 $71 $186 $187 reversed $44 $-1 #
coedge $-1 $71 $185 $110 $184 reversed $44 $-1 #
coedge $-1 $188 $189 $71 $114 reversed $108 $-1 #
edge $-1 $190 -19.814349060287388 $191 19.814349060287388 $113 $192 forward 7 unknown #
face $-1 $193 $194 $26 $-1 $195 reversed single #
loop $-1 $-1 $196 $72 #
plane-surface $-1 -25.603893504854966 -74.132164075491247 74.38157517520564 1 0 0 0 0.6018150307709319 -0.79863550430605224 forward_v I I I I #
coedge $-1 $197 $198 $199 $200 reversed $73 $-1 #
coedge $-1 $120 $75 $201 $202 reversed $47 $-1 #
coedge $-1 $75 $119 $197 $203 reversed $47 $-1 #
coedge $-1 $199 $204 $75 $122 forward $205 $-1 #
edge $-1 $206 17.251732977458236 $207 21.244083372429955 $121 $208 forward 7 unknown #
loop $-1 $-1 $128 $76 #
plane-surface $-1 -15.933709564102106 -19.814349060287391 2.2994014682782193 0 -0.6018150307709319 0.79863550430605224 1 0 0 forward_v I I I I #
loop $-1 $-1 $209 $49 #
coedge $-1 $126 $126 $127 $210 reversed $77 $-1 #
coedge $-1 $127 $127 $126 $210 forward $79 $-1 #
coedge $-1 $128 $128 $80 $129 forward $123 $-1 #
edge $-1 $211 8.6397445421051915e-016 $211 6.2831853071796013 $128 $212 forward 7 unknown #
face $-1 $213 $214 $28 $-1 $215 reversed single #
loop $-1 $-1 $216 $81 #
plane-surface $-1 12.832942971947009 -74.132164075491247 74.38157517520564 1 0 0 0 0.6018150307709319 -0.79863550430605224 forward_v I I I I #
coedge $-1 $217 $218 $219 $220 reversed $82 $-1 #
coedge $-1 $135 $84 $221 $222 reversed $53 $-1 #
coedge $-1 $84 $134 $217 $223 reversed $53 $-1 #
coedge $-1 $219 $224 $84 $137 forward $225 $-1 #
edge $-1 $226 17.251732977458236 $227 21.244083372429955 $136 $228 forward 7 unknown #
loop $-1 $-1 $143 $85 #
plane-surface $-1 22.503126912699869 -19.814349060287391 2.2994014682782193 0 -0.6018150307709319 0.79863550430605224 1 0 0 forward_v I I I I #
loop $-1 $-1 $229 $55 #
coedge $-1 $141 $141 $142 $230 reversed $86 $-1 #
coedge $-1 $142 $142 $141 $230 forward $88 $-1 #
coedge $-1 $143 $143 $89 $144 forward $138 $-1 #
edge $-1 $231 8.6397445421051915e-016 $231 6.2831853071796013 $143 $232 forward 7 unknown #
face $-1 $233 $234 $30 $-1 $235 forward single #
loop $-1 $-1 $236 $90 #
plane-surface $-1 -14.243997900806361 61.933151459660579 90.300890510578753 -1 0 0 0 0.75470958851134928 0.65605901945558964 forward_v I I I I #
coedge $-1 $237 $238 $239 $240 reversed $91 $-1 #
coedge $-1 $150 $93 $241 $242 reversed $59 $-1 #
coedge $-1 $93 $149 $237 $243 reversed $59 $-1 #
coedge $-1 $239 $244 $93 $152 forward $234 $-1 #
edge $-1 $245 11.152226669542902 $246 14.741352937735858 $151 $247 forward 7 unknown #
loop $-1 $-1 $158 $94 #
plane-surface $-1 -18.937118844301068 -6.1844157709984557 31.087194215564288 0 0.75470958851134928 0.65605901945558964 1 0 0 forward_v I I I I #
loop $-1 $-1 $248 $61 #
coedge $-1 $156 $156 $157 $249 reversed $95 $-1 #
coedge $-1 $157 $157 $156 $249 forward $97 $-1 #
coedge $-1 $158 $158 $98 $159 forward $153 $-1 #
edge $-1 $250 -3.198395435506915e-016 $250 6.2831853071796004 $158 $251 forward 7 unknown #
face $-1 $252 $253 $24 $-1 $254 reversed single #
loop $-1 $-1 $255 $99 #
plane-surface $-1 -45.128330332346565 0 0 1 0 0 0 0 -1 forward_v I I I I #
coedge $-1 $256 $171 $257 $258 forward $100 $-1 #
coedge $-1 $259 $102 $256 $260 forward $65 $-1 #
coedge $-1 $102 $259 $261 $262 forward $65 $-1 #
coedge $-1 $174 $173 $102 $167 reversed $175 $-1 #
edge $-1 $263 -19.814349060287388 $264 19.814349060287388 $166 $265 forward 7 unknown #
coedge $-1 $104 $103 $266 $267 forward $41 $-1 #
coedge $-1 $268 $269 $103 $170 reversed $253 $-1 #
edge $-1 $177 -45.128330332346565 $270 45.128330332346565 $169 $271 forward 7 unknown #
coedge $-1 $163 $272 $104 $172 reversed $100 $-1 #
edge $-1 $273 -45.128330332346565 $176 45.128330332346565 $171 $274 forward 7 unknown #
coedge $-1 $166 $105 $272 $275 forward $175 $-1 #
coedge $-1 $105 $166 $268 $276 reversed $175 $-1 #
loop $-1 $-1 $173 $252 #
vertex $-1 $106 $277 #
vertex $-1 $106 $278 #
straight-curve $-1 45.128330332346565 0 5.3078533375523724 0 1 0 I I #
face $-1 $279 $280 $25 $-1 $281 reversed single #
loop $-1 $-1 $282 $107 #
plane-surface $-1 -48.413039006645448 0 -1.0694419197475655 0 0 1 1 0 0 forward_v I I I I #
coedge $-1 $283 $110 $284 $285 reversed $69 $-1 #
coedge $-1 $110 $283 $188 $286 reversed $69 $-1 #
edge $-1 $190 -1.9305580802524345 $287 1.0694419197475655 $110 $288 forward 7 unknown #
coedge $-1 $112 $111 $282 $289 forward $44 $-1 #
coedge $-1 $290 $291 $111 $187 forward $292 $-1 #
edge $-1 $293 -1.0694419197475655 $191 1.9305580802524345 $186 $294 forward 7 unknown #
coedge $-1 $295 $113 $183 $286 forward $108 $-1 #
coedge $-1 $113 $295 $290 $296 forward $108 $-1 #
vertex $-1 $184 $297 #
vertex $-1 $296 $298 #
straight-curve $-1 -45.128330332346565 0 1.9305580802524345 0 -1 0 I I #
face $-1 $-1 $205 $26 $-1 $299 forward single #
loop $-1 $-1 $300 $115 #
plane-surface $-1 0 -19.814349060287388 0 0 1 0 0 0 1 forward_v I I I I #
coedge $-1 $301 $302 $303 $304 reversed $116 $-1 #
coedge $-1 $305 $118 $120 $203 forward $73 $-1 #
coedge $-1 $118 $305 $301 $306 forward $73 $-1 #
coedge $-1 $303 $121 $118 $200 forward $205 $-1 #
edge $-1 $207 -1.7033291587018073 $307 17.637038722803915 $199 $308 forward 7 unknown #
coedge $-1 $309 $310 $119 $202 forward $194 $-1 #
edge $-1 $311 -34.891386119324601 $206 -31.882934250050447 $201 $312 forward 7 unknown #
edge $-1 $207 -4.9989643253347991 $311 -4.4408806494695735e-015 $120 $313 forward 7 unknown #
coedge $-1 $121 $303 $309 $314 forward $205 $-1 #
loop $-1 $-1 $303 $193 #
vertex $-1 $202 $315 #
vertex $-1 $122 $316 #
straight-curve $-1 -6.2635256233492456 -37.066082037745623 5.3078533375523733 0 1 0 I I #
coedge $-1 $209 $209 $-1 $317 reversed $125 $-1 #
edge $-1 $318 0 $318 6.2831853071796004 $126 $319 forward 7 unknown #
vertex $-1 $129 $320 #
ellipse-curve $-1 -15.933709564102106 -17.818173862801526 3.8036274029152985 0 -0.6018150307709319 0.79863550430605224 0.5 0 0 1 I I #
face $-1 $-1 $225 $28 $-1 $321 forward single #
loop $-1 $-1 $322 $130 #
plane-surface $-1 0 -19.814349060287388 0 0 1 0 0 0 1 forward_v I I I I #
coedge $-1 $323 $324 $325 $326 reversed $131 $-1 #
coedge $-1 $327 $133 $135 $223 forward $82 $-1 #
coedge $-1 $133 $327 $323 $328 forward $82 $-1 #
coedge $-1 $325 $136 $133 $220 forward $225 $-1 #
edge $-1 $227 -20.921747397102799 $329 -1.5813795155970745 $219 $330 forward 7 unknown #
coedge $-1 $331 $332 $134 $222 forward $214 $-1 #
edge $-1 $333 -34.891386119324601 $226 -31.882934250050447 $221 $334 forward 7 unknown #
edge $-1 $227 -4.9989643253347991 $333 -4.4408806494695735e-015 $135 $335 forward 7 unknown #
coedge $-1 $136 $325 $331 $336 forward $225 $-1 #
loop $-1 $-1 $325 $213 #
vertex $-1 $222 $337 #
vertex $-1 $137 $338 #
straight-curve $-1 32.173310853452733 -37.066082037745623 5.3078533375523733 0 1 0 I I #
coedge $-1 $229 $229 $-1 $339 reversed $140 $-1 #
edge $-1 $340 0 $340 6.2831853071796004 $141 $341 forward 7 unknown #
vertex $-1 $144 $342 #
ellipse-curve $-1 22.503126912699869 -17.818173862801526 3.8036274029152985 0 -0.6018150307709319 0.79863550430605224 0.5 0 0 1 I I #
face $-1 $-1 $343 $30 $-1 $344 reversed single #
loop $-1 $-1 $151 $145 #
plane-surface $-1 0 0 5.3078533375523724 0 0 1 1 0 0 forward_v I I I I #
coedge $-1 $345 $346 $347 $348 reversed $146 $-1 #
coedge $-1 $349 $148 $150 $243 forward $91 $-1 #
coedge $-1 $148 $349 $345 $350 forward $91 $-1 #
coedge $-1 $347 $151 $148 $240 forward $234 $-1 #
edge $-1 $246 -14.161680365645239 $351 -4.7754384786558273 $239 $352 forward 7 unknown #
coedge $-1 $353 $354 $149 $242 forward $343 $-1 #
edge $-1 $355 -43.971409491544549 $245 -39.842591917737003 $241 $356 forward 7 unknown #
edge $-1 $246 34.157961248195079 $355 39.628698120574768 $150 $357 forward 7 unknown #
coedge $-1 $151 $347 $353 $358 forward $234 $-1 #
vertex $-1 $152 $359 #
vertex $-1 $152 $360 #
straight-curve $-1 -23.630239787795773 30.966575729830289 5.3078533375523733 0 -1 0 I I #
coedge $-1 $248 $248 $-1 $361 reversed $155 $-1 #
edge $-1 $362 0 $362 6.2831853071796004 $156 $363 forward 7 unknown #
vertex $-1 $159 $364 #
ellipse-curve $-1 -18.937118844301072 18.019785926190909 3.2434445506486043 0 0.75470958851134928 0.65605901945558964 1 0 0 1 I I #
face $-1 $-1 $175 $24 $-1 $365 reversed single #
loop $-1 $-1 $268 $160 #
plane-surface $-1 0 19.814349060287388 0 0 -1 0 0 0 -1 forward_v I I I I #
coedge $-1 $366 $266 $269 $367 forward $161 $-1 #
coedge $-1 $272 $163 $164 $260 reversed $100 $-1 #
coedge $-1 $266 $366 $163 $258 reversed $161 $-1 #
edge $-1 $273 -5.3078533375523724 $368 5.3078533375523724 $257 $369 forward 7 unknown #
coedge $-1 $165 $164 $366 $370 forward $65 $-1 #
edge $-1 $264 -45.128330332346565 $368 45.128330332346565 $256 $371 forward 7 unknown #
coedge $-1 $269 $268 $165 $262 reversed $253 $-1 #
edge $-1 $372 -45.128330332346565 $263 45.128330332346565 $261 $373 forward 7 unknown #
vertex $-1 $167 $374 #
vertex $-1 $275 $375 #
straight-curve $-1 45.128330332346565 0 -5.3078533375523724 0 -1 0 I I #
coedge $-1 $255 $257 $168 $267 reversed $161 $-1 #
edge $-1 $270 -19.814349060287388 $273 19.814349060287388 $266 $376 forward 7 unknown #
coedge $-1 $261 $169 $174 $276 forward $253 $-1 #
coedge $-1 $169 $261 $255 $367 reversed $253 $-1 #
vertex $-1 $170 $377 #
straight-curve $-1 0 19.814349060287388 5.3078533375523724 -1 0 0 I I #
coedge $-1 $171 $256 $173 $275 reversed $100 $-1 #
vertex $-1 $267 $378 #
straight-curve $-1 0 -19.814349060287388 5.3078533375523724 1 0 0 I I #
edge $-1 $176 -5.3078533375523724 $264 5.3078533375523724 $173 $379 forward 7 unknown #
edge $-1 $177 -5.3078533375523724 $263 5.3078533375523724 $174 $380 forward 7 unknown #
point $-1 45.128330332346565 -19.814349060287388 5.3078533375523724 #
point $-1 45.128330332346565 19.814349060287388 5.3078533375523724 #
face $-1 $-1 $292 $25 $-1 $381 reversed single #
loop $-1 $-1 $382 $179 #
plane-surface $-1 -51.697747680944332 0 0.43055808025243447 1 0 0 0 0 -1 forward_v I I I I #
coedge $-1 $383 $284 $185 $289 reversed $180 $-1 #
coedge $-1 $183 $182 $382 $384 reversed $69 $-1 #
coedge $-1 $282 $385 $182 $285 forward $180 $-1 #
edge $-1 $386 -3.2847086742988836 $287 3.2847086742988836 $182 $387 forward 7 unknown #
edge $-1 $190 -3.2847086742988836 $388 3.2847086742988836 $183 $389 forward 7 unknown #
vertex $-1 $184 $390 #
straight-curve $-1 -45.128330332346565 19.814349060287388 0 0 0 -1 I I #
edge $-1 $293 -19.814349060287388 $287 19.814349060287388 $282 $391 forward 7 unknown #
coedge $-1 $392 $186 $189 $296 reversed $292 $-1 #
coedge $-1 $186 $392 $383 $393 reversed $292 $-1 #
loop $-1 $-1 $186 $279 #
vertex $-1 $187 $394 #
straight-curve $-1 -45.128330332346565 -19.814349060287388 0 0 0 1 I I #
coedge $-1 $189 $188 $395 $396 forward $108 $-1 #
edge $-1 $397 -3.2847086742988836 $191 3.2847086742988836 $290 $398 forward 7 unknown #
point $-1 -45.128330332346565 19.814349060287388 1.9305580802524345 #
point $-1 -45.128330332346565 -19.814349060287388 1.9305580802524345 #
plane-surface $-1 0 0 5.3078533375523724 0 0 1 1 0 0 forward_v I I I I #
coedge $-1 $310 $309 $302 $399 forward $194 $-1 #
coedge $-1 $302 $196 $198 $306 reversed $116 $-1 #
coedge $-1 $196 $301 $300 $399 reversed $116 $-1 #
coedge $-1 $204 $199 $196 $304 forward $205 $-1 #
edge $-1 $307 -21.244083372429955 $400 -17.251732977458236 $303 $401 forward 7 unknown #
coedge $-1 $198 $197 $310 $402 reversed $73 $-1 #
edge $-1 $403 4.4408806494695735e-015 $307 4.9989643253347991 $301 $404 forward 7 unknown #
vertex $-1 $200 $405 #
straight-curve $-1 -7.9668547820510529 -15.821998665315668 5.3078533375523724 -1 0 0 I I #
coedge $-1 $300 $201 $204 $314 reversed $194 $-1 #
coedge $-1 $201 $300 $305 $402 forward $194 $-1 #
vertex $-1 $202 $406 #
straight-curve $-1 -6.2635256233492456 -19.814349060287388 37.19078758760282 0 0 1 I I #
straight-curve $-1 -6.2635256233492456 -19.814349060287391 2.2994014682782193 0 -0.79863550430605224 -0.6018150307709319 I I #
edge $-1 $400 -25.603893504854966 $206 -6.2635256233492456 $309 $407 forward 7 unknown #
point $-1 -6.2635256233492456 -19.814349060287388 5.3078533375523724 #
point $-1 -6.2635256233492456 -15.82199866531567 5.3078533375523724 #
edge $-1 $408 1 $408 0 $209 $-1 forward 7 unknown #
vertex $-1 $210 $409 #
ellipse-curve $-1 -15.933709564102106 -17.216358832030593 3.0049918986092425 0 -0.6018150307709319 0.79863550430605224 0.5 0 0 1 I I #
point $-1 -15.433709564102106 -17.818173862801522 3.8036274029152946 #
plane-surface $-1 0 0 5.3078533375523724 0 0 1 1 0 0 forward_v I I I I #
coedge $-1 $332 $331 $324 $410 forward $214 $-1 #
coedge $-1 $324 $216 $218 $328 reversed $131 $-1 #
coedge $-1 $216 $323 $322 $410 reversed $131 $-1 #
coedge $-1 $224 $219 $216 $326 forward $225 $-1 #
edge $-1 $329 -21.244083372429955 $411 -17.251732977458236 $325 $412 forward 7 unknown #
coedge $-1 $218 $217 $332 $413 reversed $82 $-1 #
edge $-1 $414 4.4408806494695735e-015 $329 4.9989643253347991 $323 $415 forward 7 unknown #
vertex $-1 $220 $416 #
straight-curve $-1 11.251563456349935 -15.821998665315668 5.3078533375523724 -1 0 0 I I #
coedge $-1 $322 $221 $224 $336 reversed $214 $-1 #
coedge $-1 $221 $322 $327 $413 forward $214 $-1 #
vertex $-1 $222 $417 #
straight-curve $-1 32.173310853452733 -19.814349060287388 37.19078758760282 0 0 1 I I #
straight-curve $-1 32.173310853452733 -19.814349060287391 2.2994014682782193 0 -0.79863550430605224 -0.6018150307709319 I I #
edge $-1 $411 12.832942971947009 $226 32.173310853452733 $331 $418 forward 7 unknown #
point $-1 32.173310853452733 -19.814349060287388 5.3078533375523724 #
point $-1 32.173310853452733 -15.82199866531567 5.3078533375523724 #
edge $-1 $419 1 $419 0 $229 $-1 forward 7 unknown #
vertex $-1 $230 $420 #
ellipse-curve $-1 22.503126912699869 -17.216358832030593 3.0049918986092425 0 -0.6018150307709319 0.79863550430605224 0.5 0 0 1 I I #
point $-1 23.003126912699869 -17.818173862801522 3.8036274029152946 #
loop $-1 $-1 $241 $233 #
plane-surface $-1 0 19.814349060287388 0 0 -1 0 0 0 -1 forward_v I I I I #
coedge $-1 $346 $236 $238 $350 reversed $146 $-1 #
coedge $-1 $236 $345 $421 $422 reversed $146 $-1 #
coedge $-1 $244 $239 $236 $348 forward $234 $-1 #
edge $-1 $351 -14.741352937735858 $423 -11.152226669542902 $347 $424 forward 7 unknown #
coedge $-1 $238 $237 $354 $425 reversed $91 $-1 #
edge $-1 $426 -39.628698120574768 $351 -34.157961248195079 $345 $427 forward 7 unknown #
vertex $-1 $240 $428 #
straight-curve $-1 -9.468559422150534 16.225222792094431 5.3078533375523698 1 0 0 I I #
coedge $-1 $421 $241 $244 $358 reversed $343 $-1 #
coedge $-1 $241 $421 $349 $425 forward $343 $-1 #
vertex $-1 $242 $429 #
straight-curve $-1 -23.630239787795773 19.814349060287388 45.150445255289377 0 0 1 I I #
straight-curve $-1 -23.630239787795773 -6.1844157709984557 31.087194215564288 0 0.65605901945558964 -0.75470958851134928 I I #
edge $-1 $423 14.243997900806361 $245 23.630239787795773 $353 $430 forward 7 unknown #
point $-1 -23.630239787795773 19.814349060287388 5.3078533375523724 #
point $-1 -23.630239787795773 16.225222792094431 5.3078533375523733 #
edge $-1 $431 1 $431 0 $248 $-1 forward 7 unknown #
vertex $-1 $249 $432 #
ellipse-curve $-1 -18.937118844301072 16.863479719579519 2.2382829260345405 0 0.75470958851134928 0.65605901945558964 1 0 0 1 I I #
point $-1 -17.937118844301072 18.019785926190906 3.2434445506486016 #
plane-surface $-1 45.128330332346565 0 0 -1 0 0 0 0 1 forward_v I I I I #
coedge $-1 $257 $255 $259 $370 reversed $161 $-1 #
edge $-1 $270 -5.3078533375523724 $372 5.3078533375523724 $269 $433 forward 7 unknown #
vertex $-1 $370 $434 #
straight-curve $-1 -45.128330332346565 -19.814349060287388 0 0 0 -1 I I #
edge $-1 $368 -19.814349060287388 $372 19.814349060287388 $366 $435 forward 7 unknown #
straight-curve $-1 0 -19.814349060287388 -5.3078533375523724 -1 0 0 I I #
vertex $-1 $262 $436 #
straight-curve $-1 0 19.814349060287388 -5.3078533375523724 1 0 0 I I #
point $-1 45.128330332346565 19.814349060287388 -5.3078533375523724 #
point $-1 45.128330332346565 -19.814349060287388 -5.3078533375523724 #
straight-curve $-1 -45.128330332346565 0 5.3078533375523724 0 -1 0 I I #
point $-1 -45.128330332346565 19.814349060287388 5.3078533375523724 #
point $-1 -45.128330332346565 -19.814349060287388 5.3078533375523724 #
straight-curve $-1 45.128330332346565 -19.814349060287388 0 0 0 -1 I I #
straight-curve $-1 45.128330332346565 19.814349060287388 0 0 0 -1 I I #
plane-surface $-1 0 -19.814349060287388 0 0 1 0 0 0 1 forward_v I I I I #
coedge $-1 $437 $395 $283 $384 forward $280 $-1 #
coedge $-1 $385 $282 $291 $393 forward $180 $-1 #
edge $-1 $388 -1.5 $386 1.5 $283 $438 forward 7 unknown #
coedge $-1 $284 $383 $437 $439 forward $180 $-1 #
vertex $-1 $285 $440 #
straight-curve $-1 -48.413039006645448 19.814349060287388 -1.0694419197475655 1 0 0 I I #
vertex $-1 $286 $441 #
straight-curve $-1 -48.413039006645448 19.814349060287388 1.9305580802524345 -1 0 0 I I #
point $-1 -45.128330332346565 19.814349060287388 -1.0694419197475655 #
straight-curve $-1 -45.128330332346565 0 -1.0694419197475655 0 1 0 I I #
coedge $-1 $291 $290 $442 $443 forward $292 $-1 #
edge $-1 $293 -3.2847086742988836 $444 3.2847086742988836 $291 $445 forward 7 unknown #
point $-1 -45.128330332346565 -19.814349060287388 -1.0694419197475655 #
coedge $-1 $382 $442 $295 $396 reversed $280 $-1 #
edge $-1 $388 -19.814349060287388 $397 19.814349060287388 $395 $446 forward 7 unknown #
vertex $-1 $396 $447 #
straight-curve $-1 -48.413039006645448 -19.814349060287388 1.9305580802524345 1 0 0 I I #
edge $-1 $400 31.882934250050447 $403 34.891386119324601 $300 $448 forward 7 unknown #
vertex $-1 $314 $449 #
straight-curve $-1 -25.603893504854966 -37.066082037745623 5.3078533375523733 0 -1 0 I I #
edge $-1 $403 -17.637038722803915 $311 1.7033291587018073 $310 $450 forward 7 unknown #
vertex $-1 $402 $451 #
straight-curve $-1 -25.603893504854966 -19.814349060287391 2.2994014682782193 0 0.79863550430605224 0.6018150307709319 I I #
point $-1 -25.603893504854966 -15.82199866531567 5.3078533375523724 #
point $-1 -6.2635256233492456 -19.814349060287388 2.299401468278222 #
straight-curve $-1 0 -19.814349060287388 5.3078533375523724 1 0 0 I I #
vertex $-1 $317 $452 #
point $-1 -15.433709564102106 -17.216358832030593 3.0049918986092425 #
edge $-1 $411 31.882934250050447 $414 34.891386119324601 $322 $453 forward 7 unknown #
vertex $-1 $336 $454 #
straight-curve $-1 12.832942971947009 -37.066082037745623 5.3078533375523733 0 -1 0 I I #
edge $-1 $414 1.5813795155970745 $333 20.921747397102799 $332 $455 forward 7 unknown #
vertex $-1 $413 $456 #
straight-curve $-1 12.832942971947009 -19.814349060287391 2.2994014682782193 0 0.79863550430605224 0.6018150307709319 I I #
point $-1 12.832942971947009 -15.82199866531567 5.3078533375523724 #
point $-1 32.173310853452733 -19.814349060287388 2.299401468278222 #
straight-curve $-1 0 -19.814349060287388 5.3078533375523724 1 0 0 I I #
vertex $-1 $339 $457 #
point $-1 23.003126912699869 -17.216358832030593 3.0049918986092425 #
coedge $-1 $354 $353 $346 $422 forward $343 $-1 #
edge $-1 $423 39.842591917737003 $426 43.971409491544549 $421 $458 forward 7 unknown #
vertex $-1 $358 $459 #
straight-curve $-1 -14.243997900806361 30.966575729830289 5.3078533375523733 0 1 0 I I #
edge $-1 $426 4.7754384786558273 $355 14.161680365645239 $354 $460 forward 7 unknown #
vertex $-1 $425 $461 #
straight-curve $-1 -14.243997900806361 -6.1844157709984557 31.087194215564288 0 -0.65605901945558964 0.75470958851134928 I I #
point $-1 -14.243997900806361 16.225222792094431 5.3078533375523733 #
point $-1 -23.630239787795773 19.814349060287391 1.1790357637448317 #
straight-curve $-1 0 19.814349060287388 5.3078533375523724 -1 0 0 I I #
vertex $-1 $361 $462 #
point $-1 -17.937118844301072 16.863479719579519 2.2382829260345405 #
straight-curve $-1 -45.128330332346565 19.814349060287388 0 0 0 -1 I I #
point $-1 -45.128330332346565 -19.814349060287388 -5.3078533375523724 #
straight-curve $-1 -45.128330332346565 0 -5.3078533375523724 0 1 0 I I #
point $-1 -45.128330332346565 19.814349060287388 -5.3078533375523724 #
coedge $-1 $442 $382 $385 $439 reversed $280 $-1 #
straight-curve $-1 -51.697747680944332 19.814349060287388 0.43055808025243447 0 0 -1 I I #
edge $-1 $444 -19.814349060287388 $386 19.814349060287388 $437 $463 forward 7 unknown #
point $-1 -51.697747680944332 19.814349060287388 -1.0694419197475655 #
point $-1 -51.697747680944332 19.814349060287388 1.9305580802524345 #
coedge $-1 $395 $437 $392 $443 reversed $280 $-1 #
edge $-1 $397 -1.5 $444 1.5 $442 $464 forward 7 unknown #
vertex $-1 $439 $465 #
straight-curve $-1 -48.413039006645448 -19.814349060287388 -1.0694419197475655 -1 0 0 I I #
straight-curve $-1 -51.697747680944332 0 1.9305580802524345 0 -1 0 I I #
point $-1 -51.697747680944332 -19.814349060287388 1.9305580802524345 #
straight-curve $-1 -25.603893504854966 -19.814349060287388 37.19078758760282 0 0 -1 I I #
point $-1 -25.603893504854966 -19.814349060287388 5.3078533375523724 #
straight-curve $-1 -7.9668547820510529 -19.814349060287388 2.2994014682782242 1 0 0 I I #
point $-1 -25.603893504854966 -19.814349060287388 2.299401468278222 #
point $-1 -15.933709564102106 -16.915451316645125 2.6056741464562165 #
straight-curve $-1 12.832942971947009 -19.814349060287388 37.19078758760282 0 0 -1 I I #
point $-1 12.832942971947009 -19.814349060287388 5.3078533375523724 #
straight-curve $-1 11.251563456349935 -19.814349060287388 2.2994014682782242 1 0 0 I I #
point $-1 12.832942971947009 -19.814349060287388 2.299401468278222 #
point $-1 22.503126912699869 -16.915451316645125 2.6056741464562165 #
straight-curve $-1 -14.243997900806361 19.814349060287388 45.150445255289377 0 0 -1 I I #
point $-1 -14.243997900806361 19.814349060287388 5.3078533375523724 #
straight-curve $-1 -9.468559422150534 19.814349060287388 1.1790357637448334 -1 0 0 I I #
point $-1 -14.243997900806361 19.814349060287391 1.1790357637448317 #
point $-1 -18.937118844301072 16.108770131068173 1.5822239065789507 #
straight-curve $-1 -51.697747680944332 0 -1.0694419197475655 0 1 0 I I #
straight-curve $-1 -51.697747680944332 -19.814349060287388 0.43055808025243447 0 0 -1 I I #
point $-1 -51.697747680944332 -19.814349060287388 -1.0694419197475655 #
End-of-ACIS-data 