500 0 12 0           
7 Unknown 11 ACIS 5.0 NT 24 Thu Mar 25 21:49:15 1999 
-1 9.9999999999999995e-007 1e-010 
body $-1 $12 $-1 $13 #
body $-1 $14 $-1 $15 #
body $-1 $16 $-1 $17 #
body $-1 $18 $-1 $19 #
body $-1 $20 $-1 $21 #
body $-1 $22 $-1 $23 #
body $-1 $24 $-1 $25 #
body $-1 $26 $-1 $27 #
body $-1 $28 $-1 $29 #
body $-1 $30 $-1 $31 #
body $-1 $32 $-1 $33 #
body $-1 $34 $-1 $35 #
lump $-1 $-1 $36 $0 #
transform $-1 1 0 0 0 1 0 0 0 1 73.846247749259931 32.801373256367036 13.267503298763577 1 rotate no_reflect no_shear #
lump $-1 $-1 $37 $1 #
transform $-1 1 0 0 0 1 0 0 0 1 73.846247749259931 32.801373256367036 13.267503298763577 1 rotate no_reflect no_shear #
lump $-1 $-1 $38 $2 #
transform $-1 1 0 0 0 1 0 0 0 1 73.846247749259931 32.801373256367036 13.267503298763577 1 rotate no_reflect no_shear #
lump $-1 $-1 $39 $3 #
transform $-1 1 0 0 0 1 0 0 0 1 73.846247749259931 32.801373256367036 13.267503298763577 1 rotate no_reflect no_shear #
lump $-1 $-1 $40 $4 #
transform $-1 1 0 0 0 1 0 0 0 1 73.846247749259931 32.801373256367036 13.267503298763577 1 rotate no_reflect no_shear #
lump $-1 $-1 $41 $5 #
transform $-1 1 0 0 0 1 0 0 0 1 73.846247749259931 32.801373256367036 13.267503298763577 1 rotate no_reflect no_shear #
lump $-1 $-1 $42 $6 #
transform $-1 1 0 0 0 1 0 0 0 1 73.846247749259931 32.801373256367036 13.267503298763577 1 rotate no_reflect no_shear #
lump $-1 $-1 $43 $7 #
transform $-1 1 0 0 0 1 0 0 0 1 73.846247749259931 32.801373256367036 13.267503298763577 1 rotate no_reflect no_shear #
lump $-1 $-1 $44 $8 #
transform $-1 1 0 0 0 1 0 0 0 1 73.846247749259931 32.801373256367036 13.267503298763577 1 rotate no_reflect no_shear #
lump $-1 $-1 $45 $9 #
transform $-1 1 0 0 0 1 0 0 0 1 73.846247749259931 32.801373256367036 13.267503298763577 1 rotate no_reflect no_shear #
lump $-1 $-1 $46 $10 #
transform $-1 1 0 0 0 1 0 0 0 1 73.846247749259931 32.801373256367036 13.267503298763577 1 rotate no_reflect no_shear #
lump $-1 $-1 $47 $11 #
transform $-1 1 0 0 0 1 0 0 0 1 73.846247749259931 32.801373256367036 13.267503298763577 1 rotate no_reflect no_shear #
shell $-1 $-1 $-1 $48 $-1 $12 #
shell $-1 $-1 $-1 $49 $-1 $14 #
shell $-1 $-1 $-1 $50 $-1 $16 #
shell $-1 $-1 $-1 $51 $-1 $18 #
shell $-1 $-1 $-1 $52 $-1 $20 #
shell $-1 $-1 $-1 $53 $-1 $22 #
shell $-1 $-1 $-1 $54 $-1 $24 #
shell $-1 $-1 $-1 $55 $-1 $26 #
shell $-1 $-1 $-1 $56 $-1 $28 #
shell $-1 $-1 $-1 $57 $-1 $30 #
shell $-1 $-1 $-1 $58 $-1 $32 #
shell $-1 $-1 $-1 $59 $-1 $34 #
face $-1 $60 $61 $36 $-1 $62 forward single #
face $-1 $63 $64 $37 $-1 $65 reversed single #
face $-1 $66 $67 $38 $-1 $68 reversed single #
face $-1 $69 $70 $39 $-1 $71 reversed single #
face $-1 $72 $73 $40 $-1 $74 forward single #
face $-1 $75 $76 $41 $-1 $77 forward single #
face $-1 $78 $79 $42 $-1 $80 reversed single #
face $-1 $81 $82 $43 $-1 $83 forward single #
face $-1 $84 $85 $44 $-1 $86 forward single #
face $-1 $87 $88 $45 $-1 $89 reversed single #
face $-1 $90 $91 $46 $-1 $92 forward single #
face $-1 $93 $94 $47 $-1 $95 forward single #
face $-1 $96 $97 $36 $-1 $98 reversed single #
loop $-1 $-1 $99 $48 #
plane-surface $-1 0 0 13.267503298763577 0 0 1 1 0 0 forward_v I I I I #
face $-1 $100 $101 $37 $-1 $102 reversed single #
loop $-1 $-1 $103 $49 #
plane-surface $-1 -72.204886681045025 -16.414939759233754 0 0 -1 0 0 0 -1 forward_v I I I I #
face $-1 $104 $105 $38 $-1 $106 reversed single #
loop $-1 $-1 $107 $50 #
plane-surface $-1 -72.204886681045025 16.414939759233754 0 0 1 0 0 0 1 forward_v I I I I #
face $-1 $108 $109 $39 $-1 $110 reversed single #
loop $-1 $-1 $111 $51 #
plane-surface $-1 33.992216972608176 -4.2409540963834136 211.85658934903685 0 -1 0 -0.55919291073839883 0 -0.82903756765294845 forward_v I I I I #
face $-1 $112 $113 $40 $-1 $114 forward single #
loop $-1 $115 $116 $52 #
cone-surface $-1 68.791220481847276 -8.9664896896784576 9.6319156997126729 -0.55919291073839883 0 -0.82903756765294845 0.20725939191323711 0 -0.13979822768459971 1 I I 0 1 0.25 forward I I I I #
face $-1 $117 $118 $41 $-1 $119 forward single #
loop $-1 $120 $121 $53 #
cone-surface $-1 68.791220481847276 -6.1311683337014315 9.6319156997126729 -0.55919291073839883 0 -0.82903756765294845 0.20725939191323711 0 -0.13979822768459971 1 I I 0 1 0.25 forward I I I I #
face $-1 $122 $123 $42 $-1 $124 reversed single #
loop $-1 $-1 $125 $54 #
plane-surface $-1 33.992216972608176 12.17398566285034 211.85658934903685 0 -1 0 -0.55919291073839883 0 -0.82903756765294845 forward_v I I I I #
face $-1 $126 $127 $43 $-1 $128 forward single #
loop $-1 $129 $130 $55 #
cone-surface $-1 68.791220481847276 7.4484500695552995 9.6319156997126729 -0.55919291073839883 0 -0.82903756765294845 0.20725939191323711 0 -0.13979822768459971 1 I I 0 1 0.25 forward I I I I #
face $-1 $131 $132 $44 $-1 $133 forward single #
loop $-1 $134 $135 $56 #
cone-surface $-1 68.791220481847276 10.283771425532322 9.6319156997126729 -0.55919291073839883 0 -0.82903756765294845 0.20725939191323711 0 -0.13979822768459971 1 I I 0 1 0.25 forward I I I I #
face $-1 $136 $137 $45 $-1 $138 reversed single #
loop $-1 $-1 $139 $57 #
plane-surface $-1 -188.62487538563403 -6.2811337870582804 99.019539178054458 0 1 0 -0.77714596973225614 0 0.62932038083071107 forward_v I I I I #
face $-1 $140 $141 $46 $-1 $142 forward single #
loop $-1 $143 $144 $58 #
cone-surface $-1 -70.339776807441993 -4.435019185481238 9.1897762819800235 0.77714596973225614 0 -0.62932038083071107 0.31466019041535553 0 0.38857298486612807 1 I I 0 1 0.5 forward I I I I #
face $-1 $145 $146 $47 $-1 $147 forward single #
loop $-1 $148 $149 $59 #
cone-surface $-1 -70.339776807441993 -1.6658472831156779 9.1897762819800235 0.77714596973225614 0 -0.62932038083071107 0.31466019041535553 0 0.38857298486612807 1 I I 0 1 0.5 forward I I I I #
face $-1 $150 $151 $36 $-1 $152 reversed single #
loop $-1 $-1 $153 $60 #
plane-surface $-1 0 0 -13.267503298763577 0 0 1 1 0 0 forward_v I I I I #
coedge $-1 $154 $155 $156 $157 forward $61 $-1 #
face $-1 $158 $159 $37 $-1 $160 forward single #
loop $-1 $-1 $161 $63 #
plane-surface $-1 -70.563525612830119 -24.608156507800395 0 -1 0 0 0 0 1 forward_v I I I I #
coedge $-1 $162 $163 $164 $165 forward $64 $-1 #
face $-1 $166 $167 $38 $-1 $168 reversed single #
loop $-1 $-1 $169 $66 #
plane-surface $-1 -70.563525612830119 24.608156507800395 0 -1 0 0 0 0 1 forward_v I I I I #
coedge $-1 $170 $171 $172 $173 reversed $67 $-1 #
face $-1 $174 $175 $39 $-1 $176 reversed single #
loop $-1 $-1 $177 $69 #
plane-surface $-1 -48.596379479427014 -7.5488290116899464 89.413962120349908 0.55919291073839883 0 0.82903756765294845 0.82903756765294845 0 -0.55919291073839883 forward_v I I I I #
coedge $-1 $178 $179 $180 $181 reversed $70 $-1 #
face $-1 $-1 $182 $40 $-1 $183 forward single #
loop $-1 $184 $185 $72 #
cone-surface $-1 68.441724912635777 -8.9664896896784576 9.1137672199295796 -0.55919291073839883 0 -0.82903756765294845 0.10362969595661856 0 -0.069899113842299854 1 I I -0.70710678118654746 0.70710678118654746 0.125 forward I I I I #
loop $-1 $-1 $186 $52 #
coedge $-1 $116 $116 $187 $188 reversed $73 $-1 #
face $-1 $-1 $189 $41 $-1 $190 forward single #
loop $-1 $191 $192 $75 #
cone-surface $-1 68.441724912635777 -6.1311683337014315 9.1137672199295796 -0.55919291073839883 0 -0.82903756765294845 0.10362969595661856 0 -0.069899113842299854 1 I I -0.70710678118654746 0.70710678118654746 0.125 forward I I I I #
loop $-1 $-1 $193 $53 #
coedge $-1 $121 $121 $194 $195 reversed $76 $-1 #
face $-1 $196 $197 $42 $-1 $198 reversed single #
loop $-1 $-1 $199 $78 #
plane-surface $-1 -48.596379479427014 8.8661107475438072 89.413962120349908 0.55919291073839883 0 0.82903756765294845 0.82903756765294845 0 -0.55919291073839883 forward_v I I I I #
coedge $-1 $200 $201 $202 $203 reversed $79 $-1 #
face $-1 $-1 $204 $43 $-1 $205 forward single #
loop $-1 $206 $207 $81 #
cone-surface $-1 68.441724912635777 7.4484500695552995 9.1137672199295796 -0.55919291073839883 0 -0.82903756765294845 0.10362969595661856 0 -0.069899113842299854 1 I I -0.70710678118654746 0.70710678118654746 0.125 forward I I I I #
loop $-1 $-1 $208 $55 #
coedge $-1 $130 $130 $209 $210 reversed $82 $-1 #
face $-1 $-1 $211 $44 $-1 $212 forward single #
loop $-1 $213 $214 $84 #
cone-surface $-1 68.441724912635777 10.283771425532322 9.1137672199295796 -0.55919291073839883 0 -0.82903756765294845 0.10362969595661856 0 -0.069899113842299854 1 I I -0.70710678118654746 0.70710678118654746 0.125 forward I I I I #
loop $-1 $-1 $215 $56 #
coedge $-1 $135 $135 $216 $217 reversed $85 $-1 #
face $-1 $218 $219 $45 $-1 $220 reversed single #
loop $-1 $-1 $221 $87 #
plane-surface $-1 -73.846247749259931 -3.0504332342984597 6.0736416650878624 -0.77714596973225614 0 0.62932038083071107 0.62932038083071107 0 0.77714596973225614 forward_v I I I I #
coedge $-1 $222 $223 $224 $225 reversed $88 $-1 #
face $-1 $-1 $226 $46 $-1 $227 forward single #
loop $-1 $228 $229 $90 #
cone-surface $-1 -69.551756438859613 -4.435019185481238 8.5516499868266447 0.77714596973225614 0 -0.62932038083071107 0.15733009520767777 0 0.19428649243306403 1 I I -0.70710678118654746 0.70710678118654746 0.25 forward I I I I #
loop $-1 $-1 $230 $58 #
coedge $-1 $144 $144 $231 $232 reversed $91 $-1 #
face $-1 $-1 $233 $47 $-1 $234 forward single #
loop $-1 $235 $236 $93 #
cone-surface $-1 -69.551756438859613 -1.6658472831156779 8.5516499868266447 0.77714596973225614 0 -0.62932038083071107 0.15733009520767777 0 0.19428649243306403 1 I I -0.70710678118654746 0.70710678118654746 0.25 forward I I I I #
loop $-1 $-1 $237 $59 #
coedge $-1 $149 $149 $238 $239 reversed $94 $-1 #
face $-1 $240 $241 $36 $-1 $242 reversed single #
loop $-1 $-1 $243 $96 #
plane-surface $-1 0 -32.801373256367036 0 0 1 0 0 0 1 forward_v I I I I #
coedge $-1 $244 $245 $246 $247 forward $97 $-1 #
coedge $-1 $248 $99 $249 $250 forward $61 $-1 #
coedge $-1 $99 $248 $251 $252 forward $61 $-1 #
coedge $-1 $253 $254 $99 $157 reversed $255 $-1 #
edge $-1 $256 -32.801373256367036 $257 32.801373256367036 $156 $258 forward 7 unknown #
face $-1 $259 $260 $37 $-1 $261 reversed single #
loop $-1 $-1 $262 $100 #
plane-surface $-1 0 0 13.267503298763577 0 0 1 1 0 0 forward_v I I I I #
coedge $-1 $263 $264 $265 $266 reversed $101 $-1 #
coedge $-1 $267 $103 $268 $269 reversed $64 $-1 #
coedge $-1 $103 $267 $270 $271 reversed $64 $-1 #
coedge $-1 $264 $263 $103 $165 reversed $101 $-1 #
edge $-1 $272 -13.267503298763577 $273 13.267503298763577 $164 $274 forward 7 unknown #
face $-1 $275 $276 $38 $-1 $277 reversed single #
loop $-1 $-1 $278 $104 #
plane-surface $-1 0 0 -13.267503298763577 0 0 1 1 0 0 forward_v I I I I #
coedge $-1 $279 $280 $281 $282 forward $105 $-1 #
coedge $-1 $281 $107 $283 $284 reversed $67 $-1 #
coedge $-1 $107 $281 $285 $286 reversed $67 $-1 #
coedge $-1 $287 $288 $107 $173 forward $276 $-1 #
edge $-1 $289 -13.267503298763577 $290 13.267503298763577 $172 $291 forward 7 unknown #
face $-1 $292 $293 $39 $-1 $294 reversed single #
loop $-1 $-1 $295 $108 #
plane-surface $-1 33.992216972608176 -10.856703926996479 211.85658934903685 0 1 0 0.55919291073839883 0 0.82903756765294845 forward_v I I I I #
coedge $-1 $296 $297 $298 $299 reversed $109 $-1 #
coedge $-1 $179 $111 $300 $301 reversed $70 $-1 #
coedge $-1 $111 $178 $296 $302 reversed $70 $-1 #
coedge $-1 $298 $303 $111 $181 forward $304 $-1 #
edge $-1 $305 -56.850139262955842 $306 -47.299277638868894 $180 $307 forward 7 unknown #
loop $-1 $-1 $187 $112 #
plane-surface $-1 -48.596379479427014 -7.5488290116899464 89.413962120349908 0.55919291073839883 0 0.82903756765294845 0.82903756765294845 0 -0.55919291073839883 forward_v I I I I #
loop $-1 $-1 $308 $72 #
coedge $-1 $185 $185 $186 $309 reversed $113 $-1 #
coedge $-1 $186 $186 $185 $309 forward $115 $-1 #
coedge $-1 $187 $187 $116 $188 forward $182 $-1 #
edge $-1 $310 0 $310 6.2831853071796004 $187 $311 forward 7 unknown #
loop $-1 $-1 $194 $117 #
plane-surface $-1 -48.596379479427014 -7.5488290116899464 89.413962120349908 0.55919291073839883 0 0.82903756765294845 0.82903756765294845 0 -0.55919291073839883 forward_v I I I I #
loop $-1 $-1 $312 $75 #
coedge $-1 $192 $192 $193 $313 reversed $118 $-1 #
coedge $-1 $193 $193 $192 $313 forward $120 $-1 #
coedge $-1 $194 $194 $121 $195 forward $189 $-1 #
edge $-1 $314 0 $314 6.2831853071796004 $194 $315 forward 7 unknown #
face $-1 $316 $317 $42 $-1 $318 reversed single #
loop $-1 $-1 $319 $122 #
plane-surface $-1 33.992216972608176 5.5582358322372745 211.85658934903685 0 1 0 0.55919291073839883 0 0.82903756765294845 forward_v I I I I #
coedge $-1 $320 $321 $322 $323 reversed $123 $-1 #
coedge $-1 $201 $125 $324 $325 reversed $79 $-1 #
coedge $-1 $125 $200 $320 $326 reversed $79 $-1 #
coedge $-1 $322 $327 $125 $203 forward $328 $-1 #
edge $-1 $329 -56.850139262955842 $330 -47.299277638868894 $202 $331 forward 7 unknown #
loop $-1 $-1 $209 $126 #
plane-surface $-1 -48.596379479427014 8.8661107475438072 89.413962120349908 0.55919291073839883 0 0.82903756765294845 0.82903756765294845 0 -0.55919291073839883 forward_v I I I I #
loop $-1 $-1 $332 $81 #
coedge $-1 $207 $207 $208 $333 reversed $127 $-1 #
coedge $-1 $208 $208 $207 $333 forward $129 $-1 #
coedge $-1 $209 $209 $130 $210 forward $204 $-1 #
edge $-1 $334 0 $334 6.2831853071796004 $209 $335 forward 7 unknown #
loop $-1 $-1 $216 $131 #
plane-surface $-1 -48.596379479427014 8.8661107475438072 89.413962120349908 0.55919291073839883 0 0.82903756765294845 0.82903756765294845 0 -0.55919291073839883 forward_v I I I I #
loop $-1 $-1 $336 $84 #
coedge $-1 $214 $214 $215 $337 reversed $132 $-1 #
coedge $-1 $215 $215 $214 $337 forward $134 $-1 #
coedge $-1 $216 $216 $135 $217 forward $211 $-1 #
edge $-1 $338 0 $338 6.2831853071796004 $216 $339 forward 7 unknown #
face $-1 $340 $341 $45 $-1 $342 forward single #
loop $-1 $-1 $343 $136 #
plane-surface $-1 -188.62487538563403 0.18026731846136101 99.019539178054458 0 -1 0 0.77714596973225614 0 -0.62932038083071107 forward_v I I I I #
coedge $-1 $344 $345 $346 $347 reversed $137 $-1 #
coedge $-1 $223 $139 $348 $349 reversed $88 $-1 #
coedge $-1 $139 $222 $344 $350 reversed $88 $-1 #
coedge $-1 $346 $351 $139 $225 forward $341 $-1 #
edge $-1 $352 20.466189943557083 $353 26.291664074894314 $224 $354 forward 7 unknown #
loop $-1 $-1 $231 $140 #
plane-surface $-1 -73.846247749259931 -3.0504332342984597 6.0736416650878624 -0.77714596973225614 0 0.62932038083071107 0.62932038083071107 0 0.77714596973225614 forward_v I I I I #
loop $-1 $-1 $355 $90 #
coedge $-1 $229 $229 $230 $356 reversed $141 $-1 #
coedge $-1 $230 $230 $229 $356 forward $143 $-1 #
coedge $-1 $231 $231 $144 $232 forward $226 $-1 #
edge $-1 $357 0 $357 6.2831853071796004 $231 $358 forward 7 unknown #
loop $-1 $-1 $238 $145 #
plane-surface $-1 -73.846247749259931 -3.0504332342984597 6.0736416650878624 -0.77714596973225614 0 0.62932038083071107 0.62932038083071107 0 0.77714596973225614 forward_v I I I I #
loop $-1 $-1 $359 $93 #
coedge $-1 $236 $236 $237 $360 reversed $146 $-1 #
coedge $-1 $237 $237 $236 $360 forward $148 $-1 #
coedge $-1 $238 $238 $149 $239 forward $233 $-1 #
edge $-1 $361 0 $361 6.2831853071796004 $238 $362 forward 7 unknown #
face $-1 $363 $364 $36 $-1 $365 reversed single #
loop $-1 $-1 $366 $150 #
plane-surface $-1 -73.846247749259931 0 0 1 0 0 0 0 -1 forward_v I I I I #
coedge $-1 $367 $251 $368 $369 forward $151 $-1 #
coedge $-1 $370 $153 $367 $371 forward $97 $-1 #
coedge $-1 $153 $370 $372 $373 forward $97 $-1 #
coedge $-1 $254 $253 $153 $247 reversed $255 $-1 #
edge $-1 $374 -32.801373256367036 $375 32.801373256367036 $246 $376 forward 7 unknown #
coedge $-1 $155 $154 $377 $378 forward $61 $-1 #
coedge $-1 $379 $380 $154 $250 reversed $364 $-1 #
edge $-1 $257 -73.846247749259931 $381 73.846247749259931 $249 $382 forward 7 unknown #
coedge $-1 $243 $383 $155 $252 reversed $151 $-1 #
edge $-1 $384 -73.846247749259931 $256 73.846247749259931 $251 $385 forward 7 unknown #
coedge $-1 $246 $156 $383 $386 forward $255 $-1 #
coedge $-1 $156 $246 $379 $387 reversed $255 $-1 #
loop $-1 $-1 $253 $363 #
vertex $-1 $157 $388 #
vertex $-1 $157 $389 #
straight-curve $-1 73.846247749259931 0 13.267503298763577 0 1 0 I I #
face $-1 $390 $391 $37 $-1 $392 reversed single #
loop $-1 $-1 $393 $158 #
plane-surface $-1 -73.846247749259931 0 0 1 0 0 0 0 -1 forward_v I I I I #
coedge $-1 $270 $394 $264 $395 forward $159 $-1 #
coedge $-1 $164 $161 $396 $397 reversed $101 $-1 #
coedge $-1 $161 $164 $262 $395 reversed $101 $-1 #
coedge $-1 $398 $399 $161 $266 forward $400 $-1 #
edge $-1 $401 -13.267503298763577 $402 13.267503298763577 $265 $403 forward 7 unknown #
coedge $-1 $163 $162 $393 $404 reversed $64 $-1 #
coedge $-1 $396 $405 $162 $269 forward $391 $-1 #
edge $-1 $406 -37.743804408737418 $273 -34.461082272307607 $268 $407 forward 7 unknown #
coedge $-1 $408 $262 $163 $271 forward $159 $-1 #
edge $-1 $272 34.461082272307607 $409 37.743804408737418 $270 $410 forward 7 unknown #
vertex $-1 $271 $411 #
vertex $-1 $269 $412 #
straight-curve $-1 -70.563525612830119 -16.414939759233754 0 0 0 -1 I I #
face $-1 $413 $414 $38 $-1 $415 forward single #
loop $-1 $-1 $172 $166 #
plane-surface $-1 -73.846247749259931 0 0 1 0 0 0 0 -1 forward_v I I I I #
coedge $-1 $283 $416 $279 $417 forward $167 $-1 #
coedge $-1 $418 $169 $278 $417 reversed $105 $-1 #
coedge $-1 $169 $418 $419 $420 reversed $105 $-1 #
coedge $-1 $171 $170 $169 $282 reversed $67 $-1 #
edge $-1 $421 -13.267503298763577 $422 13.267503298763577 $169 $423 forward 7 unknown #
coedge $-1 $424 $278 $170 $284 forward $167 $-1 #
edge $-1 $422 34.461082272307607 $289 37.743804408737418 $283 $425 forward 7 unknown #
coedge $-1 $419 $426 $171 $286 forward $414 $-1 #
edge $-1 $290 -37.743804408737418 $421 -34.461082272307607 $285 $427 forward 7 unknown #
coedge $-1 $428 $172 $426 $429 reversed $276 $-1 #
coedge $-1 $172 $428 $424 $430 reversed $276 $-1 #
vertex $-1 $430 $431 #
vertex $-1 $173 $432 #
straight-curve $-1 -73.846247749259931 16.414939759233754 0 0 0 1 I I #
face $-1 $-1 $304 $39 $-1 $433 forward single #
loop $-1 $-1 $434 $174 #
plane-surface $-1 73.846247749259931 0 0 -1 0 0 0 0 1 forward_v I I I I #
coedge $-1 $435 $436 $437 $438 reversed $175 $-1 #
coedge $-1 $439 $177 $179 $302 forward $109 $-1 #
coedge $-1 $177 $439 $435 $440 forward $109 $-1 #
coedge $-1 $437 $180 $177 $299 forward $304 $-1 #
edge $-1 $306 0.46653959053844041 $441 7.0822894211515059 $298 $442 forward 7 unknown #
coedge $-1 $443 $444 $178 $301 forward $293 $-1 #
edge $-1 $445 -99.102929006203709 $305 -92.660791375754854 $300 $446 forward 7 unknown #
edge $-1 $306 136.17207471574886 $445 147.69249549851986 $179 $447 forward 7 unknown #
coedge $-1 $180 $437 $443 $448 forward $304 $-1 #
loop $-1 $-1 $437 $292 #
vertex $-1 $301 $449 #
vertex $-1 $181 $450 #
straight-curve $-1 16.996108486304088 -4.2409540963834136 13.267503298763572 -1 0 0 I I #
coedge $-1 $308 $308 $-1 $451 reversed $184 $-1 #
edge $-1 $452 0 $452 6.2831853071796004 $185 $453 forward 7 unknown #
vertex $-1 $188 $454 #
ellipse-curve $-1 69.070816937216478 -8.9664896896784576 10.046434483539148 0.55919291073839883 0 0.82903756765294845 0.20725939191323711 0 -0.13979822768459971 1 I I #
coedge $-1 $312 $312 $-1 $455 reversed $191 $-1 #
edge $-1 $456 0 $456 6.2831853071796004 $192 $457 forward 7 unknown #
vertex $-1 $195 $458 #
ellipse-curve $-1 69.070816937216478 -6.1311683337014315 10.046434483539148 0.55919291073839883 0 0.82903756765294845 0.20725939191323711 0 -0.13979822768459971 1 I I #
face $-1 $-1 $328 $42 $-1 $459 forward single #
loop $-1 $-1 $460 $196 #
plane-surface $-1 73.846247749259931 0 0 -1 0 0 0 0 1 forward_v I I I I #
coedge $-1 $461 $462 $463 $464 reversed $197 $-1 #
coedge $-1 $465 $199 $201 $326 forward $123 $-1 #
coedge $-1 $199 $465 $461 $466 forward $123 $-1 #
coedge $-1 $463 $202 $199 $323 forward $328 $-1 #
edge $-1 $330 -7.7409302890784364 $467 -1.1251804584653708 $322 $468 forward 7 unknown #
coedge $-1 $469 $470 $200 $325 forward $317 $-1 #
edge $-1 $471 -99.102929006203709 $329 -92.660791375754854 $324 $472 forward 7 unknown #
edge $-1 $330 136.17207471574886 $471 147.69249549851986 $201 $473 forward 7 unknown #
coedge $-1 $202 $463 $469 $474 forward $328 $-1 #
loop $-1 $-1 $463 $316 #
vertex $-1 $325 $475 #
vertex $-1 $203 $476 #
straight-curve $-1 16.996108486304088 12.17398566285034 13.267503298763572 -1 0 0 I I #
coedge $-1 $332 $332 $-1 $477 reversed $206 $-1 #
edge $-1 $478 0 $478 6.2831853071796004 $207 $479 forward 7 unknown #
vertex $-1 $210 $480 #
ellipse-curve $-1 69.070816937216478 7.4484500695552995 10.046434483539148 0.55919291073839883 0 0.82903756765294845 0.20725939191323711 0 -0.13979822768459971 1 I I #
coedge $-1 $336 $336 $-1 $481 reversed $213 $-1 #
edge $-1 $482 0 $482 6.2831853071796004 $214 $483 forward 7 unknown #
vertex $-1 $217 $484 #
ellipse-curve $-1 69.070816937216478 10.283771425532322 10.046434483539148 0.55919291073839883 0 0.82903756765294845 0.20725939191323711 0 -0.13979822768459971 1 I I #
face $-1 $-1 $485 $45 $-1 $486 reversed single #
loop $-1 $-1 $224 $218 #
plane-surface $-1 0 0 13.267503298763577 0 0 1 1 0 0 forward_v I I I I #
coedge $-1 $487 $488 $489 $490 reversed $219 $-1 #
coedge $-1 $491 $221 $223 $350 forward $137 $-1 #
coedge $-1 $221 $491 $487 $492 forward $137 $-1 #
coedge $-1 $489 $224 $221 $347 forward $341 $-1 #
edge $-1 $353 -4.7559171699090506 $493 1.7054839356105909 $346 $494 forward 7 unknown #
coedge $-1 $495 $496 $222 $349 forward $485 $-1 #
edge $-1 $497 -43.436127923939367 $352 -36.24226629026365 $348 $498 forward 7 unknown #
edge $-1 $353 -9.2567701742751876 $497 0 $223 $499 forward 7 unknown #
coedge $-1 $224 $489 $495 $500 forward $341 $-1 #
vertex $-1 $225 $501 #
vertex $-1 $225 $502 #
straight-curve $-1 -94.312437692817014 -6.2811337870582804 13.267503298763579 1 0 0 I I #
coedge $-1 $355 $355 $-1 $503 reversed $228 $-1 #
edge $-1 $504 0 $504 6.2831853071796004 $229 $505 forward 7 unknown #
vertex $-1 $232 $506 #
ellipse-curve $-1 -70.933510683591308 -4.435019185481238 9.6705724819257242 -0.77714596973225614 0 0.62932038083071107 0.31466019041535553 0 0.38857298486612807 1 I I #
coedge $-1 $359 $359 $-1 $507 reversed $235 $-1 #
edge $-1 $508 0 $508 6.2831853071796004 $236 $509 forward 7 unknown #
vertex $-1 $239 $510 #
ellipse-curve $-1 -70.933510683591308 -1.6658472831156779 9.6705724819257242 -0.77714596973225614 0 0.62932038083071107 0.31466019041535553 0 0.38857298486612807 1 I I #
face $-1 $-1 $255 $36 $-1 $511 reversed single #
loop $-1 $-1 $379 $240 #
plane-surface $-1 0 32.801373256367036 0 0 -1 0 0 0 -1 forward_v I I I I #
coedge $-1 $512 $377 $380 $513 forward $241 $-1 #
coedge $-1 $383 $243 $244 $371 reversed $151 $-1 #
coedge $-1 $377 $512 $243 $369 reversed $241 $-1 #
edge $-1 $384 -13.267503298763577 $514 13.267503298763577 $368 $515 forward 7 unknown #
coedge $-1 $245 $244 $512 $516 forward $97 $-1 #
edge $-1 $375 -73.846247749259931 $514 73.846247749259931 $367 $517 forward 7 unknown #
coedge $-1 $380 $379 $245 $373 reversed $364 $-1 #
edge $-1 $518 -73.846247749259931 $374 73.846247749259931 $372 $519 forward 7 unknown #
vertex $-1 $247 $520 #
vertex $-1 $386 $521 #
straight-curve $-1 73.846247749259931 0 -13.267503298763577 0 -1 0 I I #
coedge $-1 $366 $368 $248 $378 reversed $241 $-1 #
edge $-1 $381 -32.801373256367036 $384 32.801373256367036 $377 $522 forward 7 unknown #
coedge $-1 $372 $249 $254 $387 forward $364 $-1 #
coedge $-1 $249 $372 $366 $513 reversed $364 $-1 #
vertex $-1 $250 $523 #
straight-curve $-1 0 32.801373256367036 13.267503298763577 -1 0 0 I I #
coedge $-1 $251 $367 $253 $386 reversed $151 $-1 #
vertex $-1 $378 $524 #
straight-curve $-1 0 -32.801373256367036 13.267503298763577 1 0 0 I I #
edge $-1 $256 -13.267503298763577 $375 13.267503298763577 $253 $525 forward 7 unknown #
edge $-1 $257 -13.267503298763577 $374 13.267503298763577 $254 $526 forward 7 unknown #
point $-1 73.846247749259931 -32.801373256367036 13.267503298763577 #
point $-1 73.846247749259931 32.801373256367036 13.267503298763577 #
face $-1 $-1 $400 $37 $-1 $527 reversed single #
loop $-1 $-1 $396 $259 #
plane-surface $-1 0 0 -13.267503298763577 0 0 1 1 0 0 forward_v I I I I #
coedge $-1 $528 $529 $267 $404 forward $260 $-1 #
coedge $-1 $262 $408 $398 $530 forward $159 $-1 #
edge $-1 $402 -20.497295002466839 $272 -4.1108615053335562 $262 $531 forward 7 unknown #
coedge $-1 $532 $268 $263 $397 forward $391 $-1 #
edge $-1 $273 4.1108615053335562 $401 20.497295002466839 $396 $533 forward 7 unknown #
coedge $-1 $534 $265 $394 $530 reversed $400 $-1 #
coedge $-1 $265 $534 $532 $535 reversed $400 $-1 #
loop $-1 $-1 $265 $390 #
vertex $-1 $535 $536 #
vertex $-1 $266 $537 #
straight-curve $-1 -70.563525612830119 -32.801373256367036 0 0 0 1 I I #
edge $-1 $409 -13.267503298763577 $406 13.267503298763577 $393 $538 forward 7 unknown #
coedge $-1 $268 $532 $528 $539 forward $391 $-1 #
vertex $-1 $269 $540 #
straight-curve $-1 -36.102443340522512 -16.414939759233754 -13.267503298763577 1 0 0 I I #
coedge $-1 $394 $270 $529 $541 forward $159 $-1 #
vertex $-1 $541 $542 #
straight-curve $-1 -36.102443340522512 -16.414939759233754 13.267503298763577 -1 0 0 I I #
point $-1 -70.563525612830119 -16.414939759233754 13.267503298763577 #
point $-1 -70.563525612830119 -16.414939759233754 -13.267503298763577 #
face $-1 $-1 $543 $38 $-1 $544 reversed single #
loop $-1 $-1 $419 $275 #
plane-surface $-1 0 0 13.267503298763577 0 0 1 1 0 0 forward_v I I I I #
coedge $-1 $278 $424 $545 $546 forward $167 $-1 #
edge $-1 $547 -20.497295002466839 $422 -4.1108615053335562 $278 $548 forward 7 unknown #
coedge $-1 $280 $279 $549 $550 reversed $105 $-1 #
coedge $-1 $551 $285 $280 $420 forward $414 $-1 #
edge $-1 $421 4.1108615053335562 $552 20.497295002466839 $419 $553 forward 7 unknown #
vertex $-1 $286 $554 #
vertex $-1 $284 $555 #
straight-curve $-1 -70.563525612830119 16.414939759233754 0 0 0 -1 I I #
coedge $-1 $416 $283 $288 $430 forward $167 $-1 #
straight-curve $-1 -36.102443340522512 16.414939759233754 -13.267503298763577 -1 0 0 I I #
coedge $-1 $285 $551 $287 $429 forward $414 $-1 #
straight-curve $-1 -36.102443340522512 16.414939759233754 13.267503298763577 1 0 0 I I #
coedge $-1 $288 $287 $556 $557 forward $276 $-1 #
edge $-1 $558 -32.801373256367036 $290 -16.414939759233754 $287 $559 forward 7 unknown #
edge $-1 $289 16.414939759233754 $560 32.801373256367036 $288 $561 forward 7 unknown #
point $-1 -73.846247749259931 16.414939759233754 -13.267503298763577 #
point $-1 -73.846247749259931 16.414939759233754 13.267503298763577 #
plane-surface $-1 0 0 13.267503298763577 0 0 1 1 0 0 forward_v I I I I #
coedge $-1 $444 $443 $436 $562 forward $293 $-1 #
coedge $-1 $436 $295 $297 $440 reversed $175 $-1 #
coedge $-1 $295 $435 $434 $562 reversed $175 $-1 #
coedge $-1 $303 $298 $295 $438 forward $304 $-1 #
edge $-1 $441 47.299277638868894 $563 56.850139262955842 $437 $564 forward 7 unknown #
coedge $-1 $297 $296 $444 $565 reversed $109 $-1 #
edge $-1 $566 -147.69249549851986 $441 -136.17207471574886 $435 $567 forward 7 unknown #
vertex $-1 $299 $568 #
straight-curve $-1 64.295386125172996 -3.7744145058449732 13.267503298763579 0 -1 0 I I #
coedge $-1 $434 $300 $303 $448 reversed $293 $-1 #
coedge $-1 $300 $434 $439 $565 forward $293 $-1 #
vertex $-1 $301 $569 #
straight-curve $-1 73.846247749259931 -4.2409540963834136 105.92829467451843 0 0 1 I I #
straight-curve $-1 -48.596379479427014 -4.2409540963834136 89.413962120349908 0.82903756765294845 0 -0.55919291073839883 I I #
edge $-1 $563 -10.856703926996479 $305 -4.2409540963834136 $443 $570 forward 7 unknown #
point $-1 73.846247749259931 -4.2409540963834136 13.267503298763577 #
point $-1 64.295386125172982 -4.2409540963834136 13.267503298763572 #
edge $-1 $571 1 $571 0 $308 $-1 forward 7 unknown #
vertex $-1 $309 $572 #
ellipse-curve $-1 68.511624026478074 -8.9664896896784576 9.2173969158861979 0.55919291073839883 0 0.82903756765294845 0.20725939191323711 0 -0.13979822768459971 1 I I #
point $-1 69.278076329129718 -8.9664896896784576 9.9066362558545471 #
edge $-1 $573 1 $573 0 $312 $-1 forward 7 unknown #
vertex $-1 $313 $574 #
ellipse-curve $-1 68.511624026478074 -6.1311683337014315 9.2173969158861979 0.55919291073839883 0 0.82903756765294845 0.20725939191323711 0 -0.13979822768459971 1 I I #
point $-1 69.278076329129718 -6.1311683337014315 9.9066362558545471 #
plane-surface $-1 0 0 13.267503298763577 0 0 1 1 0 0 forward_v I I I I #
coedge $-1 $470 $469 $462 $575 forward $317 $-1 #
coedge $-1 $462 $319 $321 $466 reversed $197 $-1 #
coedge $-1 $319 $461 $460 $575 reversed $197 $-1 #
coedge $-1 $327 $322 $319 $464 forward $328 $-1 #
edge $-1 $467 47.299277638868894 $576 56.850139262955842 $463 $577 forward 7 unknown #
coedge $-1 $321 $320 $470 $578 reversed $123 $-1 #
edge $-1 $579 -147.69249549851986 $467 -136.17207471574886 $461 $580 forward 7 unknown #
vertex $-1 $323 $581 #
straight-curve $-1 64.295386125172996 4.4330553737719036 13.267503298763579 0 -1 0 I I #
coedge $-1 $460 $324 $327 $474 reversed $317 $-1 #
coedge $-1 $324 $460 $465 $578 forward $317 $-1 #
vertex $-1 $325 $582 #
straight-curve $-1 73.846247749259931 12.17398566285034 105.92829467451843 0 0 1 I I #
straight-curve $-1 -48.596379479427014 12.17398566285034 89.413962120349908 0.82903756765294845 0 -0.55919291073839883 I I #
edge $-1 $576 5.5582358322372745 $329 12.17398566285034 $469 $583 forward 7 unknown #
point $-1 73.846247749259931 12.17398566285034 13.267503298763577 #
point $-1 64.295386125172982 12.17398566285034 13.267503298763572 #
edge $-1 $584 1 $584 0 $332 $-1 forward 7 unknown #
vertex $-1 $333 $585 #
ellipse-curve $-1 68.511624026478074 7.4484500695552995 9.2173969158861979 0.55919291073839883 0 0.82903756765294845 0.20725939191323711 0 -0.13979822768459971 1 I I #
point $-1 69.278076329129718 7.4484500695552995 9.9066362558545471 #
edge $-1 $586 1 $586 0 $336 $-1 forward 7 unknown #
vertex $-1 $337 $587 #
ellipse-curve $-1 68.511624026478074 10.283771425532322 9.2173969158861979 0.55919291073839883 0 0.82903756765294845 0.20725939191323711 0 -0.13979822768459971 1 I I #
point $-1 69.278076329129718 10.283771425532322 9.9066362558545471 #
loop $-1 $-1 $348 $340 #
plane-surface $-1 -73.846247749259931 0 0 1 0 0 0 0 -1 forward_v I I I I #
coedge $-1 $488 $343 $345 $492 reversed $219 $-1 #
coedge $-1 $343 $487 $588 $589 reversed $219 $-1 #
coedge $-1 $351 $346 $343 $490 forward $341 $-1 #
edge $-1 $493 -26.291664074894314 $590 -20.466189943557083 $489 $591 forward 7 unknown #
coedge $-1 $345 $344 $496 $592 reversed $137 $-1 #
edge $-1 $593 0 $493 9.2567701742751876 $487 $594 forward 7 unknown #
vertex $-1 $347 $595 #
straight-curve $-1 -68.020773617922714 -1.5252166171492298 13.267503298763577 0 1 0 I I #
coedge $-1 $588 $348 $351 $500 reversed $485 $-1 #
coedge $-1 $348 $588 $491 $592 forward $485 $-1 #
vertex $-1 $349 $596 #
straight-curve $-1 -73.846247749259931 -6.2811337870582804 49.509769589027229 0 0 1 I I #
straight-curve $-1 -73.846247749259931 -6.2811337870582804 6.0736416650878624 -0.62932038083071107 0 -0.77714596973225614 I I #
edge $-1 $590 -0.18026731846136101 $352 6.2811337870582804 $495 $597 forward 7 unknown #
point $-1 -73.846247749259931 -6.2811337870582804 13.267503298763577 #
point $-1 -68.0207736179227 -6.2811337870582804 13.267503298763577 #
edge $-1 $598 1 $598 0 $355 $-1 forward 7 unknown #
vertex $-1 $356 $599 #
ellipse-curve $-1 -69.746042931292678 -4.435019185481238 8.7089800820343228 -0.77714596973225614 0 0.62932038083071107 0.31466019041535553 0 0.38857298486612807 1 I I #
point $-1 -70.61885049317597 -4.435019185481238 10.059145466791854 #
edge $-1 $600 1 $600 0 $359 $-1 forward 7 unknown #
vertex $-1 $360 $601 #
ellipse-curve $-1 -69.746042931292678 -1.6658472831156779 8.7089800820343228 -0.77714596973225614 0 0.62932038083071107 0.31466019041535553 0 0.38857298486612807 1 I I #
point $-1 -70.61885049317597 -1.6658472831156779 10.059145466791854 #
plane-surface $-1 73.846247749259931 0 0 -1 0 0 0 0 1 forward_v I I I I #
coedge $-1 $368 $366 $370 $516 reversed $241 $-1 #
edge $-1 $381 -13.267503298763577 $518 13.267503298763577 $380 $602 forward 7 unknown #
vertex $-1 $516 $603 #
straight-curve $-1 -73.846247749259931 -32.801373256367036 0 0 0 -1 I I #
edge $-1 $514 -32.801373256367036 $518 32.801373256367036 $512 $604 forward 7 unknown #
straight-curve $-1 0 -32.801373256367036 -13.267503298763577 -1 0 0 I I #
vertex $-1 $373 $605 #
straight-curve $-1 0 32.801373256367036 -13.267503298763577 1 0 0 I I #
point $-1 73.846247749259931 32.801373256367036 -13.267503298763577 #
point $-1 73.846247749259931 -32.801373256367036 -13.267503298763577 #
straight-curve $-1 -73.846247749259931 0 13.267503298763577 0 -1 0 I I #
point $-1 -73.846247749259931 32.801373256367036 13.267503298763577 #
point $-1 -73.846247749259931 -32.801373256367036 13.267503298763577 #
straight-curve $-1 73.846247749259931 -32.801373256367036 0 0 0 -1 I I #
straight-curve $-1 73.846247749259931 32.801373256367036 0 0 0 -1 I I #
plane-surface $-1 0 -32.801373256367036 0 0 1 0 0 0 1 forward_v I I I I #
coedge $-1 $606 $393 $405 $539 reversed $260 $-1 #
coedge $-1 $393 $606 $408 $541 reversed $260 $-1 #
edge $-1 $607 -73.846247749259931 $402 -70.563525612830119 $398 $608 forward 7 unknown #
straight-curve $-1 -70.563525612830119 -12.304078253900197 13.267503298763577 0 1 0 I I #
coedge $-1 $405 $396 $399 $535 forward $391 $-1 #
straight-curve $-1 -70.563525612830119 -12.304078253900197 -13.267503298763577 0 -1 0 I I #
coedge $-1 $399 $398 $606 $609 forward $400 $-1 #
edge $-1 $401 70.563525612830119 $610 73.846247749259931 $399 $611 forward 7 unknown #
point $-1 -70.563525612830119 -32.801373256367036 -13.267503298763577 #
point $-1 -70.563525612830119 -32.801373256367036 13.267503298763577 #
straight-curve $-1 -73.846247749259931 -16.414939759233754 0 0 0 -1 I I #
edge $-1 $610 -32.801373256367036 $406 -16.414939759233754 $528 $612 forward 7 unknown #
point $-1 -73.846247749259931 -16.414939759233754 -13.267503298763577 #
edge $-1 $409 16.414939759233754 $607 32.801373256367036 $529 $613 forward 7 unknown #
point $-1 -73.846247749259931 -16.414939759233754 13.267503298763577 #
loop $-1 $-1 $549 $413 #
plane-surface $-1 0 32.801373256367036 0 0 -1 0 0 0 -1 forward_v I I I I #
coedge $-1 $556 $549 $416 $546 reversed $543 $-1 #
edge $-1 $560 -73.846247749259931 $547 -70.563525612830119 $545 $614 forward 7 unknown #
vertex $-1 $417 $615 #
straight-curve $-1 -70.563525612830119 12.304078253900197 -13.267503298763577 0 -1 0 I I #
coedge $-1 $545 $616 $418 $550 forward $543 $-1 #
edge $-1 $552 -13.267503298763577 $547 13.267503298763577 $549 $617 forward 7 unknown #
coedge $-1 $426 $419 $616 $618 forward $414 $-1 #
vertex $-1 $618 $619 #
straight-curve $-1 -70.563525612830119 12.304078253900197 13.267503298763577 0 1 0 I I #
point $-1 -70.563525612830119 16.414939759233754 13.267503298763577 #
point $-1 -70.563525612830119 16.414939759233754 -13.267503298763577 #
coedge $-1 $616 $545 $428 $557 reversed $543 $-1 #
edge $-1 $558 -13.267503298763577 $560 13.267503298763577 $556 $620 forward 7 unknown #
vertex $-1 $618 $621 #
straight-curve $-1 -73.846247749259931 0 13.267503298763577 0 -1 0 I I #
vertex $-1 $546 $622 #
straight-curve $-1 -73.846247749259931 0 -13.267503298763577 0 1 0 I I #
edge $-1 $563 92.660791375754854 $566 99.102929006203709 $434 $623 forward 7 unknown #
vertex $-1 $448 $624 #
straight-curve $-1 16.996108486304088 -10.856703926996479 13.267503298763572 1 0 0 I I #
edge $-1 $566 -7.0822894211515059 $445 -0.46653959053844041 $444 $625 forward 7 unknown #
vertex $-1 $565 $626 #
straight-curve $-1 -48.596379479427014 -10.856703926996479 89.413962120349908 -0.82903756765294845 0 0.55919291073839883 I I #
point $-1 64.295386125172982 -10.856703926996479 13.267503298763572 #
point $-1 73.846247749259931 -4.2409540963834136 6.825365668314717 #
straight-curve $-1 73.846247749259931 0 13.267503298763577 0 1 0 I I #
vertex $-1 $451 $627 #
point $-1 68.718883418391314 -8.9664896896784576 9.0775986882015989 #
vertex $-1 $455 $628 #
point $-1 68.718883418391314 -6.1311683337014315 9.0775986882015989 #
edge $-1 $576 92.660791375754854 $579 99.102929006203709 $460 $629 forward 7 unknown #
vertex $-1 $474 $630 #
straight-curve $-1 16.996108486304088 5.5582358322372745 13.267503298763572 1 0 0 I I #
edge $-1 $579 1.1251804584653708 $471 7.7409302890784364 $470 $631 forward 7 unknown #
vertex $-1 $578 $632 #
straight-curve $-1 -48.596379479427014 5.5582358322372745 89.413962120349908 -0.82903756765294845 0 0.55919291073839883 I I #
point $-1 64.295386125172982 5.5582358322372745 13.267503298763572 #
point $-1 73.846247749259931 12.17398566285034 6.825365668314717 #
straight-curve $-1 73.846247749259931 0 13.267503298763577 0 1 0 I I #
vertex $-1 $477 $633 #
point $-1 68.718883418391314 7.4484500695552995 9.0775986882015989 #
vertex $-1 $481 $634 #
point $-1 68.718883418391314 10.283771425532322 9.0775986882015989 #
coedge $-1 $496 $495 $488 $589 forward $485 $-1 #
edge $-1 $590 36.24226629026365 $593 43.436127923939367 $588 $635 forward 7 unknown #
vertex $-1 $500 $636 #
straight-curve $-1 -94.312437692817014 0.18026731846136101 13.267503298763579 -1 0 0 I I #
edge $-1 $593 -1.7054839356105909 $497 4.7559171699090506 $496 $637 forward 7 unknown #
vertex $-1 $592 $638 #
straight-curve $-1 -73.846247749259931 0.18026731846136101 6.0736416650878624 0.62932038083071107 0 0.77714596973225614 I I #
point $-1 -68.0207736179227 0.18026731846136101 13.267503298763577 #
point $-1 -73.846247749259931 -6.2811337870582804 6.0736416650878624 #
straight-curve $-1 -73.846247749259931 0 13.267503298763577 0 -1 0 I I #
vertex $-1 $503 $639 #
point $-1 -69.431382740877325 -4.435019185481238 9.097553066900451 #
vertex $-1 $507 $640 #
point $-1 -69.431382740877325 -1.6658472831156779 9.097553066900451 #
straight-curve $-1 -73.846247749259931 32.801373256367036 0 0 0 -1 I I #
point $-1 -73.846247749259931 -32.801373256367036 -13.267503298763577 #
straight-curve $-1 -73.846247749259931 0 -13.267503298763577 0 1 0 I I #
point $-1 -73.846247749259931 32.801373256367036 -13.267503298763577 #
coedge $-1 $529 $528 $534 $609 reversed $260 $-1 #
vertex $-1 $541 $641 #
straight-curve $-1 0 -32.801373256367036 13.267503298763577 1 0 0 I I #
edge $-1 $607 -13.267503298763577 $610 13.267503298763577 $606 $642 forward 7 unknown #
vertex $-1 $539 $643 #
straight-curve $-1 0 -32.801373256367036 -13.267503298763577 -1 0 0 I I #
straight-curve $-1 -73.846247749259931 0 -13.267503298763577 0 1 0 I I #
straight-curve $-1 -73.846247749259931 0 13.267503298763577 0 -1 0 I I #
straight-curve $-1 0 32.801373256367036 -13.267503298763577 1 0 0 I I #
point $-1 -70.563525612830119 32.801373256367036 -13.267503298763577 #
coedge $-1 $549 $556 $551 $618 reversed $543 $-1 #
straight-curve $-1 -70.563525612830119 32.801373256367036 0 0 0 -1 I I #
edge $-1 $552 70.563525612830119 $558 73.846247749259931 $616 $644 forward 7 unknown #
point $-1 -70.563525612830119 32.801373256367036 13.267503298763577 #
straight-curve $-1 -73.846247749259931 32.801373256367036 0 0 0 -1 I I #
point $-1 -73.846247749259931 32.801373256367036 13.267503298763577 #
point $-1 -73.846247749259931 32.801373256367036 -13.267503298763577 #
straight-curve $-1 73.846247749259931 -10.856703926996479 105.92829467451843 0 0 -1 I I #
point $-1 73.846247749259931 -10.856703926996479 13.267503298763577 #
straight-curve $-1 73.846247749259931 -3.7744145058449732 6.825365668314717 0 1 0 I I #
point $-1 73.846247749259931 -10.856703926996479 6.825365668314717 #
point $-1 68.371825798793481 -8.9664896896784576 9.0101375239729613 #
point $-1 68.371825798793481 -6.1311683337014315 9.0101375239729613 #
straight-curve $-1 73.846247749259931 5.5582358322372745 105.92829467451843 0 0 -1 I I #
point $-1 73.846247749259931 5.5582358322372745 13.267503298763577 #
straight-curve $-1 73.846247749259931 4.4330553737719036 6.825365668314717 0 1 0 I I #
point $-1 73.846247749259931 5.5582358322372745 6.825365668314717 #
point $-1 68.371825798793481 7.4484500695552995 9.0101375239729613 #
point $-1 68.371825798793481 10.283771425532322 9.0101375239729613 #
straight-curve $-1 -73.846247749259931 0.18026731846136101 49.509769589027229 0 0 -1 I I #
point $-1 -73.846247749259931 0.18026731846136101 13.267503298763577 #
straight-curve $-1 -73.846247749259931 -1.5252166171492298 6.073641665087866 0 -1 0 I I #
point $-1 -73.846247749259931 0.18026731846136101 6.0736416650878624 #
point $-1 -69.357469946426548 -4.435019185481238 8.3943198916189665 #
point $-1 -69.357469946426548 -1.6658472831156779 8.3943198916189665 #
point $-1 -73.846247749259931 -32.801373256367036 13.267503298763577 #
straight-curve $-1 -73.846247749259931 -32.801373256367036 0 0 0 -1 I I #
point $-1 -73.846247749259931 -32.801373256367036 -13.267503298763577 #
straight-curve $-1 0 32.801373256367036 13.267503298763577 -1 0 0 I I #
End-of-ACIS-data 