500 0 10 0           
7 Unknown 11 ACIS 5.0 NT 24 Thu Mar 25 15:34:58 1999 
-1 9.9999999999999995e-007 1e-010 
body $-1 $10 $-1 $11 #
body $-1 $12 $-1 $13 #
body $-1 $14 $-1 $15 #
body $-1 $16 $-1 $17 #
body $-1 $18 $-1 $19 #
body $-1 $20 $-1 $21 #
body $-1 $22 $-1 $23 #
body $-1 $24 $-1 $25 #
body $-1 $26 $-1 $27 #
body $-1 $28 $-1 $29 #
lump $-1 $-1 $30 $0 #
transform $-1 1 0 0 0 1 0 0 0 1 63.750724814600055 29.428410089439907 11.437087042603272 1 rotate no_reflect no_shear #
lump $-1 $-1 $31 $1 #
transform $-1 1 0 0 0 1 0 0 0 1 63.750724814600055 29.428410089439907 11.437087042603272 1 rotate no_reflect no_shear #
lump $-1 $-1 $32 $2 #
transform $-1 1 0 0 0 1 0 0 0 1 63.750724814600055 29.428410089439907 11.437087042603272 1 rotate no_reflect no_shear #
lump $-1 $-1 $33 $3 #
transform $-1 1 0 0 0 1 0 0 0 1 63.750724814600055 29.428410089439907 11.437087042603272 1 rotate no_reflect no_shear #
lump $-1 $-1 $34 $4 #
transform $-1 1 0 0 0 1 0 0 0 1 63.750724814600055 29.428410089439907 11.437087042603272 1 rotate no_reflect no_shear #
lump $-1 $-1 $35 $5 #
transform $-1 1 0 0 0 1 0 0 0 1 63.750724814600055 29.428410089439907 11.437087042603272 1 rotate no_reflect no_shear #
lump $-1 $-1 $36 $6 #
transform $-1 1 0 0 0 1 0 0 0 1 63.750724814600055 29.428410089439907 11.437087042603272 1 rotate no_reflect no_shear #
lump $-1 $-1 $37 $7 #
transform $-1 1 0 0 0 1 0 0 0 1 63.750724814600055 29.428410089439907 11.437087042603272 1 rotate no_reflect no_shear #
lump $-1 $-1 $38 $8 #
transform $-1 1 0 0 0 1 0 0 0 1 63.750724814600055 29.428410089439907 11.437087042603272 1 rotate no_reflect no_shear #
lump $-1 $-1 $39 $9 #
transform $-1 1 0 0 0 1 0 0 0 1 63.750724814600055 29.428410089439907 11.437087042603272 1 rotate no_reflect no_shear #
shell $-1 $-1 $-1 $40 $-1 $10 #
shell $-1 $-1 $-1 $41 $-1 $12 #
shell $-1 $-1 $-1 $42 $-1 $14 #
shell $-1 $-1 $-1 $43 $-1 $16 #
shell $-1 $-1 $-1 $44 $-1 $18 #
shell $-1 $-1 $-1 $45 $-1 $20 #
shell $-1 $-1 $-1 $46 $-1 $22 #
shell $-1 $-1 $-1 $47 $-1 $24 #
shell $-1 $-1 $-1 $48 $-1 $26 #
shell $-1 $-1 $-1 $49 $-1 $28 #
face $-1 $50 $51 $30 $-1 $52 forward single #
face $-1 $53 $54 $31 $-1 $55 forward single #
face $-1 $56 $57 $32 $-1 $58 forward single #
face $-1 $59 $60 $33 $-1 $61 reversed single #
face $-1 $62 $63 $34 $-1 $64 forward single #
face $-1 $65 $66 $35 $-1 $67 forward single #
face $-1 $68 $69 $36 $-1 $70 reversed single #
face $-1 $71 $72 $37 $-1 $73 forward single #
face $-1 $74 $75 $38 $-1 $76 forward single #
face $-1 $77 $78 $39 $-1 $79 forward single #
face $-1 $80 $81 $30 $-1 $82 reversed single #
loop $-1 $-1 $83 $40 #
plane-surface $-1 0 0 11.437087042603272 0 0 1 1 0 0 forward_v I I I I #
face $-1 $84 $85 $31 $-1 $86 reversed single #
loop $-1 $-1 $87 $41 #
plane-surface $-1 -63.750724814600055 0 0 1 0 0 0 0 -1 forward_v I I I I #
face $-1 $88 $89 $32 $-1 $90 reversed single #
loop $-1 $-1 $91 $42 #
plane-surface $-1 63.750724814600055 0 0 -1 0 0 0 0 1 forward_v I I I I #
face $-1 $92 $93 $33 $-1 $94 reversed single #
loop $-1 $-1 $95 $43 #
plane-surface $-1 -42.199884696635635 110.41949617299004 117.51930978904163 1 0 0 0 -0.86602541151947299 -0.49999998660252726 forward_v I I I I #
face $-1 $96 $97 $34 $-1 $98 forward single #
loop $-1 $99 $100 $44 #
cone-surface $-1 -34.509895451545617 26.501243652833253 6.8670859112487523 0 -0.86602541151947299 -0.49999998660252726 0.5 0 0 1 I I 0 1 0.5 forward I I I I #
face $-1 $101 $102 $35 $-1 $103 forward single #
loop $-1 $104 $105 $45 #
cone-surface $-1 -22.974911583910604 26.501243652833253 6.8670859112487523 0 -0.86602541151947299 -0.49999998660252726 0.5 0 0 1 I I 0 1 0.5 forward I I I I #
face $-1 $106 $107 $36 $-1 $108 reversed single #
loop $-1 $-1 $109 $46 #
plane-surface $-1 -11.457031996894099 -119.58555077941519 95.165781963228568 -1 0 0 0 -0.70710678939079041 0.70710677298230451 forward_v I I I I #
face $-1 $110 $111 $37 $-1 $112 forward single #
loop $-1 $113 $114 $47 #
cone-surface $-1 -37.778276474748878 -25.680367693391435 7.6890445843558108 0 0.70710678939079041 -0.70710677298230451 1 0 0 1 I I 0 1 1 forward I I I I #
face $-1 $115 $116 $38 $-1 $117 forward single #
loop $-1 $118 $119 $48 #
cone-surface $-1 -27.907809795553341 -25.680367693391435 7.6890445843558108 0 0.70710678939079041 -0.70710677298230451 1 0 0 1 I I 0 1 1 forward I I I I #
face $-1 $120 $121 $39 $-1 $122 forward single #
loop $-1 $123 $124 $49 #
cone-surface $-1 -18.037343116357796 -25.680367693391435 7.6890445843558108 0 0.70710678939079041 -0.70710677298230451 1 0 0 1 I I 0 1 1 forward I I I I #
face $-1 $125 $126 $30 $-1 $127 reversed single #
loop $-1 $-1 $128 $50 #
plane-surface $-1 0 0 -11.437087042603272 0 0 1 1 0 0 forward_v I I I I #
coedge $-1 $129 $130 $131 $132 forward $51 $-1 #
face $-1 $133 $134 $31 $-1 $135 forward single #
loop $-1 $-1 $136 $53 #
plane-surface $-1 0 29.428410089439907 0 0 -1 0 0 0 -1 forward_v I I I I #
coedge $-1 $137 $138 $139 $140 forward $54 $-1 #
face $-1 $141 $142 $32 $-1 $143 forward single #
loop $-1 $-1 $144 $56 #
plane-surface $-1 0 -29.428410089439907 0 0 1 0 0 0 1 forward_v I I I I #
coedge $-1 $145 $146 $147 $148 forward $57 $-1 #
face $-1 $149 $150 $33 $-1 $151 reversed single #
loop $-1 $-1 $152 $59 #
plane-surface $-1 -28.742403517728114 7.8853264540157397e-007 53.768586682638762 0 0.86602541151947299 0.49999998660252726 1 0 0 forward_v I I I I #
coedge $-1 $153 $154 $155 $156 reversed $60 $-1 #
face $-1 $-1 $157 $34 $-1 $158 forward single #
loop $-1 $159 $160 $62 #
cone-surface $-1 -34.509895451545617 25.851724594193648 6.4920859212968569 0 -0.86602541151947299 -0.49999998660252726 0.25 0 0 1 I I -0.70710678118654746 0.70710678118654746 0.25 forward I I I I #
loop $-1 $-1 $161 $44 #
coedge $-1 $100 $100 $162 $163 reversed $63 $-1 #
face $-1 $-1 $164 $35 $-1 $165 forward single #
loop $-1 $166 $167 $65 #
cone-surface $-1 -22.974911583910604 25.851724594193648 6.4920859212968569 0 -0.86602541151947299 -0.49999998660252726 0.25 0 0 1 I I -0.70710678118654746 0.70710678118654746 0.25 forward I I I I #
loop $-1 $-1 $168 $45 #
coedge $-1 $105 $105 $169 $170 reversed $66 $-1 #
face $-1 $171 $172 $36 $-1 $173 reversed single #
loop $-1 $-1 $174 $68 #
plane-surface $-1 -27.907809795553341 -29.428410089439907 5.0086433653590205 0 -0.70710678939079041 0.70710677298230451 1 0 0 forward_v I I I I #
coedge $-1 $175 $176 $177 $178 reversed $69 $-1 #
face $-1 $-1 $179 $37 $-1 $180 forward single #
loop $-1 $181 $182 $71 #
cone-surface $-1 -37.778276474748878 -24.792993666683344 6.8016705782393263 0 0.70710678939079041 -0.70710677298230451 0.5 0 0 1 I I -0.70710678118654746 0.70710678118654746 0.5 forward I I I I #
loop $-1 $-1 $183 $47 #
coedge $-1 $114 $114 $184 $185 reversed $72 $-1 #
face $-1 $-1 $186 $38 $-1 $187 forward single #
loop $-1 $188 $189 $74 #
cone-surface $-1 -27.907809795553341 -24.792993666683344 6.8016705782393263 0 0.70710678939079041 -0.70710677298230451 0.5 0 0 1 I I -0.70710678118654746 0.70710678118654746 0.5 forward I I I I #
loop $-1 $-1 $190 $48 #
coedge $-1 $119 $119 $191 $192 reversed $75 $-1 #
face $-1 $-1 $193 $39 $-1 $194 forward single #
loop $-1 $195 $196 $77 #
cone-surface $-1 -18.037343116357796 -24.792993666683344 6.8016705782393263 0 0.70710678939079041 -0.70710677298230451 0.5 0 0 1 I I -0.70710678118654746 0.70710678118654746 0.5 forward I I I I #
loop $-1 $-1 $197 $49 #
coedge $-1 $124 $124 $198 $199 reversed $78 $-1 #
face $-1 $200 $201 $30 $-1 $202 reversed single #
loop $-1 $-1 $203 $80 #
plane-surface $-1 0 -29.428410089439907 0 0 1 0 0 0 1 forward_v I I I I #
coedge $-1 $204 $205 $206 $207 forward $81 $-1 #
coedge $-1 $208 $83 $209 $210 forward $51 $-1 #
coedge $-1 $83 $208 $211 $212 forward $51 $-1 #
coedge $-1 $213 $214 $83 $132 reversed $215 $-1 #
edge $-1 $216 -29.428410089439907 $217 29.428410089439907 $131 $218 forward 7 unknown #
face $-1 $219 $220 $31 $-1 $221 reversed single #
loop $-1 $-1 $139 $84 #
plane-surface $-1 -67.900694204203148 0 -1.4201290775109148 0 0 1 1 0 0 forward_v I I I I #
coedge $-1 $222 $223 $138 $224 forward $85 $-1 #
coedge $-1 $225 $87 $226 $227 reversed $54 $-1 #
coedge $-1 $87 $225 $136 $224 reversed $54 $-1 #
coedge $-1 $228 $229 $87 $140 reversed $134 $-1 #
edge $-1 $230 -29.428410089439907 $231 29.428410089439907 $139 $232 forward 7 unknown #
face $-1 $233 $234 $32 $-1 $235 reversed single #
loop $-1 $-1 $236 $88 #
plane-surface $-1 67.900694204203148 0 -1.4201290775109148 0 0 1 1 0 0 forward_v I I I I #
coedge $-1 $237 $238 $146 $239 forward $89 $-1 #
coedge $-1 $240 $91 $241 $242 reversed $57 $-1 #
coedge $-1 $91 $240 $144 $239 reversed $57 $-1 #
coedge $-1 $243 $244 $91 $148 reversed $142 $-1 #
edge $-1 $245 -29.428410089439907 $246 29.428410089439907 $147 $247 forward 7 unknown #
face $-1 $248 $249 $33 $-1 $250 reversed single #
loop $-1 $-1 $251 $92 #
plane-surface $-1 -15.284922338820596 110.41949617299004 117.51930978904163 -1 0 0 0 0.86602541151947299 0.49999998660252726 forward_v I I I I #
coedge $-1 $252 $253 $254 $255 reversed $93 $-1 #
coedge $-1 $154 $95 $256 $257 reversed $60 $-1 #
coedge $-1 $95 $153 $252 $258 reversed $60 $-1 #
coedge $-1 $254 $259 $95 $156 forward $260 $-1 #
edge $-1 $261 25.781337997055111 $262 30.769645458748954 $155 $263 forward 7 unknown #
loop $-1 $-1 $162 $96 #
plane-surface $-1 -28.742403517728114 7.8853264540157397e-007 53.768586682638762 0 0.86602541151947299 0.49999998660252726 1 0 0 forward_v I I I I #
loop $-1 $-1 $264 $62 #
coedge $-1 $160 $160 $161 $265 reversed $97 $-1 #
coedge $-1 $161 $161 $160 $265 forward $99 $-1 #
coedge $-1 $162 $162 $100 $163 forward $157 $-1 #
edge $-1 $266 4.7597325791166719e-016 $266 6.2831853071796013 $162 $267 forward 7 unknown #
loop $-1 $-1 $169 $101 #
plane-surface $-1 -28.742403517728114 7.8853264540157397e-007 53.768586682638762 0 0.86602541151947299 0.49999998660252726 1 0 0 forward_v I I I I #
loop $-1 $-1 $268 $65 #
coedge $-1 $167 $167 $168 $269 reversed $102 $-1 #
coedge $-1 $168 $168 $167 $269 forward $104 $-1 #
coedge $-1 $169 $169 $105 $170 forward $164 $-1 #
edge $-1 $270 4.7597325791166719e-016 $270 6.2831853071796013 $169 $271 forward 7 unknown #
face $-1 $272 $273 $36 $-1 $274 forward single #
loop $-1 $-1 $275 $106 #
plane-surface $-1 -44.35858759421258 -119.58555077941519 95.165781963228568 1 0 0 0 0.70710678939079041 -0.70710677298230451 forward_v I I I I #
coedge $-1 $276 $277 $278 $279 reversed $107 $-1 #
coedge $-1 $176 $109 $280 $281 reversed $69 $-1 #
coedge $-1 $109 $175 $276 $282 reversed $69 $-1 #
coedge $-1 $278 $283 $109 $178 forward $273 $-1 #
edge $-1 $284 30.364365300267686 $285 36.79280882833924 $177 $286 forward 7 unknown #
loop $-1 $-1 $184 $110 #
plane-surface $-1 -27.907809795553341 -29.428410089439907 5.0086433653590205 0 -0.70710678939079041 0.70710677298230451 1 0 0 forward_v I I I I #
loop $-1 $-1 $287 $71 #
coedge $-1 $182 $182 $183 $288 reversed $111 $-1 #
coedge $-1 $183 $183 $182 $288 forward $113 $-1 #
coedge $-1 $184 $184 $114 $185 forward $179 $-1 #
edge $-1 $289 -1.256073981520683e-015 $289 6.2831853071795996 $184 $290 forward 7 unknown #
loop $-1 $-1 $191 $115 #
plane-surface $-1 -27.907809795553341 -29.428410089439907 5.0086433653590205 0 -0.70710678939079041 0.70710677298230451 1 0 0 forward_v I I I I #
loop $-1 $-1 $291 $74 #
coedge $-1 $189 $189 $190 $292 reversed $116 $-1 #
coedge $-1 $190 $190 $189 $292 forward $118 $-1 #
coedge $-1 $191 $191 $119 $192 forward $186 $-1 #
edge $-1 $293 -1.256073981520683e-015 $293 6.2831853071795996 $191 $294 forward 7 unknown #
loop $-1 $-1 $198 $120 #
plane-surface $-1 -27.907809795553341 -29.428410089439907 5.0086433653590205 0 -0.70710678939079041 0.70710677298230451 1 0 0 forward_v I I I I #
loop $-1 $-1 $295 $77 #
coedge $-1 $196 $196 $197 $296 reversed $121 $-1 #
coedge $-1 $197 $197 $196 $296 forward $123 $-1 #
coedge $-1 $198 $198 $124 $199 forward $193 $-1 #
edge $-1 $297 -1.256073981520683e-015 $297 6.2831853071795996 $198 $298 forward 7 unknown #
face $-1 $299 $300 $30 $-1 $301 reversed single #
loop $-1 $-1 $302 $125 #
plane-surface $-1 -63.750724814600055 0 0 1 0 0 0 0 -1 forward_v I I I I #
coedge $-1 $303 $211 $304 $305 forward $126 $-1 #
coedge $-1 $306 $128 $303 $307 forward $81 $-1 #
coedge $-1 $128 $306 $308 $309 forward $81 $-1 #
coedge $-1 $214 $213 $128 $207 reversed $215 $-1 #
edge $-1 $310 -29.428410089439907 $311 29.428410089439907 $206 $312 forward 7 unknown #
coedge $-1 $130 $129 $313 $314 forward $51 $-1 #
coedge $-1 $315 $316 $129 $210 reversed $300 $-1 #
edge $-1 $217 -63.750724814600055 $317 63.750724814600055 $209 $318 forward 7 unknown #
coedge $-1 $203 $319 $130 $212 reversed $126 $-1 #
edge $-1 $320 -63.750724814600055 $216 63.750724814600055 $211 $321 forward 7 unknown #
coedge $-1 $206 $131 $319 $322 forward $215 $-1 #
coedge $-1 $131 $206 $315 $323 reversed $215 $-1 #
loop $-1 $-1 $213 $299 #
vertex $-1 $132 $324 #
vertex $-1 $132 $325 #
straight-curve $-1 63.750724814600055 0 11.437087042603272 0 1 0 I I #
face $-1 $326 $327 $31 $-1 $328 reversed single #
loop $-1 $-1 $329 $133 #
plane-surface $-1 -67.900694204203148 0 -7.3258642788854331 0 0 1 1 0 0 forward_v I I I I #
coedge $-1 $330 $136 $331 $332 reversed $85 $-1 #
coedge $-1 $136 $330 $228 $333 reversed $85 $-1 #
edge $-1 $230 1.4201290775109148 $334 7.3258642788854331 $136 $335 forward 7 unknown #
coedge $-1 $138 $137 $329 $336 forward $54 $-1 #
coedge $-1 $337 $338 $137 $227 forward $339 $-1 #
edge $-1 $340 -7.3258642788854331 $231 -1.4201290775109148 $226 $341 forward 7 unknown #
coedge $-1 $342 $139 $223 $333 forward $134 $-1 #
coedge $-1 $139 $342 $337 $343 forward $134 $-1 #
vertex $-1 $224 $344 #
vertex $-1 $343 $345 #
straight-curve $-1 -63.750724814600055 0 -1.4201290775109148 0 -1 0 I I #
face $-1 $346 $347 $32 $-1 $348 reversed single #
loop $-1 $-1 $349 $141 #
plane-surface $-1 67.900694204203148 0 -7.3258642788854331 0 0 1 1 0 0 forward_v I I I I #
coedge $-1 $244 $243 $350 $351 forward $142 $-1 #
coedge $-1 $352 $144 $353 $354 reversed $89 $-1 #
coedge $-1 $144 $352 $243 $355 reversed $89 $-1 #
edge $-1 $245 1.4201290775109148 $356 7.3258642788854331 $144 $357 forward 7 unknown #
coedge $-1 $146 $145 $358 $359 forward $57 $-1 #
coedge $-1 $360 $361 $145 $242 forward $362 $-1 #
edge $-1 $363 -7.3258642788854331 $246 -1.4201290775109148 $241 $364 forward 7 unknown #
coedge $-1 $236 $147 $238 $355 forward $142 $-1 #
coedge $-1 $147 $236 $360 $365 forward $142 $-1 #
vertex $-1 $239 $366 #
vertex $-1 $365 $367 #
straight-curve $-1 63.750724814600055 0 -1.4201290775109148 0 1 0 I I #
face $-1 $-1 $260 $33 $-1 $368 forward single #
loop $-1 $-1 $369 $149 #
plane-surface $-1 0 29.428410089439907 0 0 -1 0 0 0 -1 forward_v I I I I #
coedge $-1 $370 $371 $372 $373 reversed $150 $-1 #
coedge $-1 $374 $152 $154 $258 forward $93 $-1 #
coedge $-1 $152 $374 $370 $375 forward $93 $-1 #
coedge $-1 $372 $155 $152 $255 forward $260 $-1 #
edge $-1 $262 -27.828682937771578 $376 -0.91372057995653932 $254 $377 forward 7 unknown #
coedge $-1 $378 $379 $153 $257 forward $249 $-1 #
edge $-1 $380 -55.962570128024062 $261 -47.32256785191754 $256 $381 forward 7 unknown #
edge $-1 $262 48.880204988169268 $380 58.856820178879815 $154 $382 forward 7 unknown #
coedge $-1 $155 $372 $378 $383 forward $260 $-1 #
loop $-1 $-1 $372 $248 #
vertex $-1 $257 $384 #
vertex $-1 $156 $385 #
straight-curve $-1 -42.199884696635635 55.209748086495019 11.437087042603274 0 -1 0 I I #
coedge $-1 $264 $264 $-1 $386 reversed $159 $-1 #
edge $-1 $387 0 $387 6.2831853071796004 $160 $388 forward 7 unknown #
vertex $-1 $163 $389 #
ellipse-curve $-1 -34.509895451545617 26.934256358592986 7.1170859045500139 0 0.86602541151947299 0.49999998660252726 0.5 0 0 1 I I #
coedge $-1 $268 $268 $-1 $390 reversed $166 $-1 #
edge $-1 $391 0 $391 6.2831853071796004 $167 $392 forward 7 unknown #
vertex $-1 $170 $393 #
ellipse-curve $-1 -22.974911583910604 26.934256358592986 7.1170859045500139 0 0.86602541151947299 0.49999998660252726 0.5 0 0 1 I I #
face $-1 $-1 $394 $36 $-1 $395 reversed single #
loop $-1 $-1 $177 $171 #
plane-surface $-1 0 0 11.437087042603272 0 0 1 1 0 0 forward_v I I I I #
coedge $-1 $396 $397 $398 $399 reversed $172 $-1 #
coedge $-1 $400 $174 $176 $282 forward $107 $-1 #
coedge $-1 $174 $400 $396 $401 forward $107 $-1 #
coedge $-1 $398 $177 $174 $279 forward $273 $-1 #
edge $-1 $285 -2.4968729008825719 $402 30.404682696435909 $278 $403 forward 7 unknown #
coedge $-1 $404 $405 $175 $281 forward $394 $-1 #
edge $-1 $406 -42.574247616255263 $284 -36.14580393901101 $280 $407 forward 7 unknown #
edge $-1 $285 -9.0911921278293697 $406 0 $176 $408 forward 7 unknown #
coedge $-1 $177 $398 $404 $409 forward $273 $-1 #
vertex $-1 $281 $410 #
vertex $-1 $178 $411 #
straight-curve $-1 -11.457031996894099 -59.792775389707593 11.437087042603274 0 1 0 I I #
coedge $-1 $287 $287 $-1 $412 reversed $181 $-1 #
edge $-1 $413 0 $413 6.2831853071796004 $182 $414 forward 7 unknown #
vertex $-1 $185 $415 #
ellipse-curve $-1 -37.778276474748878 -26.21418832540413 8.2228652039811454 0 -0.70710678939079041 0.70710677298230451 1 0 0 1 I I #
coedge $-1 $291 $291 $-1 $416 reversed $188 $-1 #
edge $-1 $417 0 $417 6.2831853071796004 $189 $418 forward 7 unknown #
vertex $-1 $192 $419 #
ellipse-curve $-1 -27.907809795553341 -26.21418832540413 8.2228652039811454 0 -0.70710678939079041 0.70710677298230451 1 0 0 1 I I #
coedge $-1 $295 $295 $-1 $420 reversed $195 $-1 #
edge $-1 $421 0 $421 6.2831853071796004 $196 $422 forward 7 unknown #
vertex $-1 $199 $423 #
ellipse-curve $-1 -18.037343116357796 -26.21418832540413 8.2228652039811454 0 -0.70710678939079041 0.70710677298230451 1 0 0 1 I I #
face $-1 $-1 $215 $30 $-1 $424 reversed single #
loop $-1 $-1 $315 $200 #
plane-surface $-1 0 29.428410089439907 0 0 -1 0 0 0 -1 forward_v I I I I #
coedge $-1 $425 $313 $316 $426 forward $201 $-1 #
coedge $-1 $319 $203 $204 $307 reversed $126 $-1 #
coedge $-1 $313 $425 $203 $305 reversed $201 $-1 #
edge $-1 $320 -11.437087042603272 $427 11.437087042603272 $304 $428 forward 7 unknown #
coedge $-1 $205 $204 $425 $429 forward $81 $-1 #
edge $-1 $311 -63.750724814600055 $427 63.750724814600055 $303 $430 forward 7 unknown #
coedge $-1 $316 $315 $205 $309 reversed $300 $-1 #
edge $-1 $431 -63.750724814600055 $310 63.750724814600055 $308 $432 forward 7 unknown #
vertex $-1 $207 $433 #
vertex $-1 $322 $434 #
straight-curve $-1 63.750724814600055 0 -11.437087042603272 0 -1 0 I I #
coedge $-1 $302 $304 $208 $314 reversed $201 $-1 #
edge $-1 $317 -29.428410089439907 $320 29.428410089439907 $313 $435 forward 7 unknown #
coedge $-1 $308 $209 $214 $323 forward $300 $-1 #
coedge $-1 $209 $308 $302 $426 reversed $300 $-1 #
vertex $-1 $210 $436 #
straight-curve $-1 0 29.428410089439907 11.437087042603272 -1 0 0 I I #
coedge $-1 $211 $303 $213 $322 reversed $126 $-1 #
vertex $-1 $314 $437 #
straight-curve $-1 0 -29.428410089439907 11.437087042603272 1 0 0 I I #
edge $-1 $216 -11.437087042603272 $311 11.437087042603272 $213 $438 forward 7 unknown #
edge $-1 $217 -11.437087042603272 $310 11.437087042603272 $214 $439 forward 7 unknown #
point $-1 63.750724814600055 -29.428410089439907 11.437087042603272 #
point $-1 63.750724814600055 29.428410089439907 11.437087042603272 #
face $-1 $-1 $339 $31 $-1 $440 reversed single #
loop $-1 $-1 $441 $219 #
plane-surface $-1 -72.050663593806249 0 -4.3729966781981737 1 0 0 0 0 -1 forward_v I I I I #
coedge $-1 $442 $331 $225 $336 reversed $220 $-1 #
coedge $-1 $223 $222 $441 $443 reversed $85 $-1 #
coedge $-1 $329 $444 $222 $332 forward $220 $-1 #
edge $-1 $445 -4.1499693896031005 $334 4.1499693896030934 $222 $446 forward 7 unknown #
edge $-1 $230 -4.1499693896030934 $447 4.1499693896031005 $223 $448 forward 7 unknown #
vertex $-1 $224 $449 #
straight-curve $-1 -63.750724814600055 29.428410089439907 0 0 0 -1 I I #
edge $-1 $340 -29.428410089439907 $334 29.428410089439907 $329 $450 forward 7 unknown #
coedge $-1 $451 $226 $229 $343 reversed $339 $-1 #
coedge $-1 $226 $451 $442 $452 reversed $339 $-1 #
loop $-1 $-1 $226 $326 #
vertex $-1 $227 $453 #
straight-curve $-1 -63.750724814600055 -29.428410089439907 0 0 0 1 I I #
coedge $-1 $229 $228 $454 $455 forward $134 $-1 #
edge $-1 $456 -4.1499693896031005 $231 4.1499693896030934 $337 $457 forward 7 unknown #
point $-1 -63.750724814600055 29.428410089439907 -1.4201290775109148 #
point $-1 -63.750724814600055 -29.428410089439907 -1.4201290775109148 #
face $-1 $-1 $362 $32 $-1 $458 reversed single #
loop $-1 $-1 $459 $233 #
plane-surface $-1 72.050663593806235 0 -4.3729966781981737 -1 0 0 0 0 1 forward_v I I I I #
coedge $-1 $353 $460 $461 $462 forward $234 $-1 #
coedge $-1 $459 $463 $236 $351 reversed $347 $-1 #
edge $-1 $464 -29.428410089439907 $465 29.428410089439907 $350 $466 forward 7 unknown #
coedge $-1 $238 $237 $459 $467 reversed $89 $-1 #
coedge $-1 $358 $349 $237 $354 forward $234 $-1 #
edge $-1 $468 -4.1499693896030863 $356 4.1499693896030934 $237 $469 forward 7 unknown #
edge $-1 $245 -4.1499693896030934 $464 4.1499693896030863 $238 $470 forward 7 unknown #
vertex $-1 $239 $471 #
straight-curve $-1 63.750724814600055 -29.428410089439907 0 0 0 -1 I I #
coedge $-1 $460 $353 $240 $359 reversed $234 $-1 #
edge $-1 $363 -29.428410089439907 $356 29.428410089439907 $358 $472 forward 7 unknown #
coedge $-1 $473 $241 $244 $365 reversed $362 $-1 #
coedge $-1 $241 $473 $460 $474 reversed $362 $-1 #
loop $-1 $-1 $241 $346 #
vertex $-1 $242 $475 #
straight-curve $-1 63.750724814600055 29.428410089439907 0 0 0 1 I I #
edge $-1 $465 -4.1499693896030863 $246 4.1499693896030934 $360 $476 forward 7 unknown #
point $-1 63.750724814600055 -29.428410089439907 -1.4201290775109148 #
point $-1 63.750724814600055 29.428410089439907 -1.4201290775109148 #
plane-surface $-1 0 0 11.437087042603272 0 0 1 1 0 0 forward_v I I I I #
coedge $-1 $379 $378 $371 $477 forward $249 $-1 #
coedge $-1 $371 $251 $253 $375 reversed $150 $-1 #
coedge $-1 $251 $370 $369 $477 reversed $150 $-1 #
coedge $-1 $259 $254 $251 $373 forward $260 $-1 #
edge $-1 $376 -30.769645458748954 $478 -25.781337997055111 $372 $479 forward 7 unknown #
coedge $-1 $253 $252 $379 $480 reversed $93 $-1 #
edge $-1 $481 -58.856820178879815 $376 -48.880204988169268 $370 $482 forward 7 unknown #
vertex $-1 $255 $483 #
straight-curve $-1 -14.371201758864057 24.440102627746064 11.437087042603274 1 0 0 I I #
coedge $-1 $369 $256 $259 $383 reversed $249 $-1 #
coedge $-1 $256 $369 $374 $480 forward $249 $-1 #
vertex $-1 $257 $484 #
straight-curve $-1 -42.199884696635635 29.428410089439907 58.759654894520814 0 0 1 I I #
straight-curve $-1 -42.199884696635635 7.8853264540157397e-007 53.768586682638762 0 0.49999998660252726 -0.86602541151947299 I I #
edge $-1 $478 15.284922338820596 $261 42.199884696635635 $378 $485 forward 7 unknown #
point $-1 -42.199884696635635 29.428410089439907 11.437087042603272 #
point $-1 -42.199884696635635 24.440102627746064 11.437087042603274 #
edge $-1 $486 1 $486 0 $264 $-1 forward 7 unknown #
vertex $-1 $265 $487 #
ellipse-curve $-1 -34.509895451545617 26.068230947073516 6.617085917947489 0 0.86602541151947299 0.49999998660252726 0.5 0 0 1 I I #
point $-1 -34.009895451545617 26.934256358592989 7.1170859045500157 #
edge $-1 $488 1 $488 0 $268 $-1 forward 7 unknown #
vertex $-1 $269 $489 #
ellipse-curve $-1 -22.974911583910604 26.068230947073516 6.617085917947489 0 0.86602541151947299 0.49999998660252726 0.5 0 0 1 I I #
point $-1 -22.474911583910604 26.934256358592989 7.1170859045500157 #
loop $-1 $-1 $280 $272 #
plane-surface $-1 0 -29.428410089439907 0 0 1 0 0 0 1 forward_v I I I I #
coedge $-1 $397 $275 $277 $401 reversed $172 $-1 #
coedge $-1 $275 $396 $490 $491 reversed $172 $-1 #
coedge $-1 $283 $278 $275 $399 forward $273 $-1 #
edge $-1 $402 -36.79280882833924 $492 -30.364365300267686 $398 $493 forward 7 unknown #
coedge $-1 $277 $276 $405 $494 reversed $107 $-1 #
edge $-1 $495 0 $402 9.0911921278293697 $396 $496 forward 7 unknown #
vertex $-1 $279 $497 #
straight-curve $-1 -13.95390489777667 -22.999966561368353 11.437087042603272 -1 0 0 I I #
coedge $-1 $490 $280 $283 $409 reversed $394 $-1 #
coedge $-1 $280 $490 $400 $494 forward $394 $-1 #
vertex $-1 $281 $498 #
straight-curve $-1 -11.457031996894099 -29.428410089439907 47.582890981614284 0 0 1 I I #
straight-curve $-1 -11.457031996894099 -29.428410089439907 5.0086433653590205 0 -0.70710677298230451 -0.70710678939079041 I I #
edge $-1 $492 -44.35858759421258 $284 -11.457031996894099 $404 $499 forward 7 unknown #
point $-1 -11.457031996894099 -29.428410089439907 11.437087042603272 #
point $-1 -11.457031996894099 -22.999966561368353 11.437087042603272 #
edge $-1 $500 1 $500 0 $287 $-1 forward 7 unknown #
vertex $-1 $288 $501 #
ellipse-curve $-1 -37.778276474748878 -25.14654706137874 7.1552239647304789 0 -0.70710678939079041 0.70710677298230451 1 0 0 1 I I #
point $-1 -36.778276474748878 -26.21418832540413 8.2228652039811436 #
edge $-1 $502 1 $502 0 $291 $-1 forward 7 unknown #
vertex $-1 $292 $503 #
ellipse-curve $-1 -27.907809795553341 -25.14654706137874 7.1552239647304789 0 -0.70710678939079041 0.70710677298230451 1 0 0 1 I I #
point $-1 -26.907809795553341 -26.21418832540413 8.2228652039811436 #
edge $-1 $504 1 $504 0 $295 $-1 forward 7 unknown #
vertex $-1 $296 $505 #
ellipse-curve $-1 -18.037343116357796 -25.14654706137874 7.1552239647304789 0 -0.70710678939079041 0.70710677298230451 1 0 0 1 I I #
point $-1 -17.037343116357796 -26.21418832540413 8.2228652039811436 #
plane-surface $-1 63.750724814600055 0 0 -1 0 0 0 0 1 forward_v I I I I #
coedge $-1 $304 $302 $306 $429 reversed $201 $-1 #
edge $-1 $317 -11.437087042603272 $431 11.437087042603272 $316 $506 forward 7 unknown #
vertex $-1 $429 $507 #
straight-curve $-1 -63.750724814600055 -29.428410089439907 0 0 0 -1 I I #
edge $-1 $427 -29.428410089439907 $431 29.428410089439907 $425 $508 forward 7 unknown #
straight-curve $-1 0 -29.428410089439907 -11.437087042603272 -1 0 0 I I #
vertex $-1 $309 $509 #
straight-curve $-1 0 29.428410089439907 -11.437087042603272 1 0 0 I I #
point $-1 63.750724814600055 29.428410089439907 -11.437087042603272 #
point $-1 63.750724814600055 -29.428410089439907 -11.437087042603272 #
straight-curve $-1 -63.750724814600055 0 11.437087042603272 0 -1 0 I I #
point $-1 -63.750724814600055 29.428410089439907 11.437087042603272 #
point $-1 -63.750724814600055 -29.428410089439907 11.437087042603272 #
straight-curve $-1 63.750724814600055 -29.428410089439907 0 0 0 -1 I I #
straight-curve $-1 63.750724814600055 29.428410089439907 0 0 0 -1 I I #
plane-surface $-1 0 -29.428410089439907 0 0 1 0 0 0 1 forward_v I I I I #
coedge $-1 $510 $454 $330 $443 forward $327 $-1 #
coedge $-1 $444 $329 $338 $452 forward $220 $-1 #
edge $-1 $447 -2.952867600687259 $445 2.9528676006872594 $330 $511 forward 7 unknown #
coedge $-1 $331 $442 $510 $512 forward $220 $-1 #
vertex $-1 $332 $513 #
straight-curve $-1 -67.900694204203148 29.428410089439907 -7.3258642788854331 1 0 0 I I #
vertex $-1 $333 $514 #
straight-curve $-1 -67.900694204203148 29.428410089439907 -1.4201290775109148 -1 0 0 I I #
point $-1 -63.750724814600055 29.428410089439907 -7.3258642788854331 #
straight-curve $-1 -63.750724814600055 0 -7.3258642788854331 0 1 0 I I #
coedge $-1 $338 $337 $515 $516 forward $339 $-1 #
edge $-1 $340 -4.1499693896030934 $517 4.1499693896031005 $338 $518 forward 7 unknown #
point $-1 -63.750724814600055 -29.428410089439907 -7.3258642788854331 #
coedge $-1 $441 $515 $342 $455 reversed $327 $-1 #
edge $-1 $447 -29.428410089439907 $456 29.428410089439907 $454 $519 forward 7 unknown #
vertex $-1 $455 $520 #
straight-curve $-1 -67.900694204203148 -29.428410089439907 -1.4201290775109148 1 0 0 I I #
plane-surface $-1 0 29.428410089439907 0 0 -1 0 0 0 -1 forward_v I I I I #
coedge $-1 $461 $350 $352 $467 forward $347 $-1 #
coedge $-1 $349 $358 $361 $474 forward $234 $-1 #
coedge $-1 $463 $459 $349 $462 reversed $347 $-1 #
edge $-1 $521 -29.428410089439907 $468 29.428410089439907 $461 $522 forward 7 unknown #
coedge $-1 $350 $461 $473 $523 reversed $347 $-1 #
vertex $-1 $351 $524 #
vertex $-1 $351 $525 #
straight-curve $-1 72.050663593806235 0 -1.4201290775109148 0 1 0 I I #
edge $-1 $464 -2.952867600687259 $468 2.9528676006872594 $459 $526 forward 7 unknown #
vertex $-1 $467 $527 #
straight-curve $-1 67.900694204203148 -29.428410089439907 -7.3258642788854331 -1 0 0 I I #
straight-curve $-1 67.900694204203148 -29.428410089439907 -1.4201290775109148 1 0 0 I I #
point $-1 63.750724814600055 -29.428410089439907 -7.3258642788854331 #
straight-curve $-1 63.750724814600055 0 -7.3258642788854331 0 -1 0 I I #
coedge $-1 $361 $360 $463 $523 forward $362 $-1 #
edge $-1 $363 -4.1499693896030934 $521 4.1499693896030863 $361 $528 forward 7 unknown #
point $-1 63.750724814600055 29.428410089439907 -7.3258642788854331 #
straight-curve $-1 67.900694204203148 29.428410089439907 -1.4201290775109148 -1 0 0 I I #
edge $-1 $478 47.32256785191754 $481 55.962570128024062 $369 $529 forward 7 unknown #
vertex $-1 $383 $530 #
straight-curve $-1 -15.284922338820596 55.209748086495019 11.437087042603274 0 1 0 I I #
edge $-1 $481 0.91372057995653932 $380 27.828682937771578 $379 $531 forward 7 unknown #
vertex $-1 $480 $532 #
straight-curve $-1 -15.284922338820596 7.8853264540157397e-007 53.768586682638762 0 -0.49999998660252726 0.86602541151947299 I I #
point $-1 -15.284922338820596 24.440102627746064 11.437087042603274 #
point $-1 -42.199884696635635 29.428410089439907 2.7970847664967522 #
straight-curve $-1 0 29.428410089439907 11.437087042603272 -1 0 0 I I #
vertex $-1 $386 $533 #
point $-1 -34.009895451545617 26.068230947073516 6.617085917947489 #
vertex $-1 $390 $534 #
point $-1 -22.474911583910604 26.068230947073516 6.617085917947489 #
coedge $-1 $405 $404 $397 $491 forward $394 $-1 #
edge $-1 $492 36.14580393901101 $495 42.574247616255263 $490 $535 forward 7 unknown #
vertex $-1 $409 $536 #
straight-curve $-1 -44.35858759421258 -59.792775389707593 11.437087042603274 0 -1 0 I I #
edge $-1 $495 -30.404682696435909 $406 2.4968729008825719 $405 $537 forward 7 unknown #
vertex $-1 $494 $538 #
straight-curve $-1 -44.35858759421258 -29.428410089439907 5.0086433653590205 0 0.70710677298230451 0.70710678939079041 I I #
point $-1 -44.35858759421258 -22.999966561368353 11.437087042603272 #
point $-1 -11.457031996894099 -29.428410089439907 5.0086433653590205 #
straight-curve $-1 0 -29.428410089439907 11.437087042603272 1 0 0 I I #
vertex $-1 $412 $539 #
point $-1 -36.778276474748878 -25.14654706137874 7.1552239647304789 #
vertex $-1 $416 $540 #
point $-1 -26.907809795553341 -25.14654706137874 7.1552239647304789 #
vertex $-1 $420 $541 #
point $-1 -17.037343116357796 -25.14654706137874 7.1552239647304789 #
straight-curve $-1 -63.750724814600055 29.428410089439907 0 0 0 -1 I I #
point $-1 -63.750724814600055 -29.428410089439907 -11.437087042603272 #
straight-curve $-1 -63.750724814600055 0 -11.437087042603272 0 1 0 I I #
point $-1 -63.750724814600055 29.428410089439907 -11.437087042603272 #
coedge $-1 $515 $441 $444 $512 reversed $327 $-1 #
straight-curve $-1 -72.050663593806249 29.428410089439907 -4.3729966781981737 0 0 -1 I I #
edge $-1 $517 -29.428410089439907 $445 29.428410089439907 $510 $542 forward 7 unknown #
point $-1 -72.050663593806249 29.428410089439907 -7.3258642788854331 #
point $-1 -72.050663593806249 29.428410089439907 -1.4201290775109148 #
coedge $-1 $454 $510 $451 $516 reversed $327 $-1 #
edge $-1 $456 -2.952867600687259 $517 2.9528676006872594 $515 $543 forward 7 unknown #
vertex $-1 $512 $544 #
straight-curve $-1 -67.900694204203148 -29.428410089439907 -7.3258642788854331 -1 0 0 I I #
straight-curve $-1 -72.050663593806249 0 -1.4201290775109148 0 -1 0 I I #
point $-1 -72.050663593806249 -29.428410089439907 -1.4201290775109148 #
vertex $-1 $462 $545 #
straight-curve $-1 72.050663593806235 0 -7.3258642788854331 0 -1 0 I I #
edge $-1 $465 -2.952867600687259 $521 2.9528676006872594 $463 $546 forward 7 unknown #
point $-1 72.050663593806235 -29.428410089439907 -1.4201290775109148 #
point $-1 72.050663593806235 29.428410089439907 -1.4201290775109148 #
straight-curve $-1 72.050663593806235 -29.428410089439907 -4.3729966781981737 0 0 -1 I I #
point $-1 72.050663593806235 -29.428410089439907 -7.3258642788854331 #
straight-curve $-1 67.900694204203148 29.428410089439907 -7.3258642788854331 1 0 0 I I #
straight-curve $-1 -15.284922338820596 29.428410089439907 58.759654894520814 0 0 -1 I I #
point $-1 -15.284922338820596 29.428410089439907 11.437087042603272 #
straight-curve $-1 -14.371201758864057 29.428410089439907 2.7970847664967522 -1 0 0 I I #
point $-1 -15.284922338820596 29.428410089439907 2.7970847664967522 #
point $-1 -34.509895451545617 25.63521824131378 6.3670859246462248 #
point $-1 -22.974911583910604 25.63521824131378 6.3670859246462248 #
straight-curve $-1 -44.35858759421258 -29.428410089439907 47.582890981614284 0 0 -1 I I #
point $-1 -44.35858759421258 -29.428410089439907 11.437087042603272 #
straight-curve $-1 -13.95390489777667 -29.428410089439907 5.0086433653590205 1 0 0 I I #
point $-1 -44.35858759421258 -29.428410089439907 5.0086433653590205 #
point $-1 -37.778276474748878 -24.439440271987948 6.4481171917481737 #
point $-1 -27.907809795553341 -24.439440271987948 6.4481171917481737 #
point $-1 -18.037343116357796 -24.439440271987948 6.4481171917481737 #
straight-curve $-1 -72.050663593806249 0 -7.3258642788854331 0 1 0 I I #
straight-curve $-1 -72.050663593806249 -29.428410089439907 -4.3729966781981737 0 0 -1 I I #
point $-1 -72.050663593806249 -29.428410089439907 -7.3258642788854331 #
point $-1 72.050663593806235 29.428410089439907 -7.3258642788854331 #
straight-curve $-1 72.050663593806235 29.428410089439907 -4.3729966781981737 0 0 -1 I I #
End-of-ACIS-data 