500 0 17 0           
7 Unknown 11 ACIS 5.0 NT 24 Fri Mar 26 14:37:20 1999 
-1 9.9999999999999995e-007 1e-010 
body $-1 $17 $-1 $18 #
body $-1 $19 $-1 $20 #
body $-1 $21 $-1 $22 #
body $-1 $23 $-1 $24 #
body $-1 $25 $-1 $26 #
body $-1 $27 $-1 $28 #
body $-1 $29 $-1 $30 #
body $-1 $31 $-1 $32 #
body $-1 $33 $-1 $34 #
body $-1 $35 $-1 $36 #
body $-1 $37 $-1 $38 #
body $-1 $39 $-1 $40 #
body $-1 $41 $-1 $42 #
body $-1 $43 $-1 $44 #
body $-1 $45 $-1 $46 #
body $-1 $47 $-1 $48 #
body $-1 $49 $-1 $50 #
lump $-1 $-1 $51 $0 #
transform $-1 1 0 0 0 1 0 0 0 1 62.345652638325149 30.648062654571675 10.125355920920445 1 rotate no_reflect no_shear #
lump $-1 $-1 $52 $1 #
transform $-1 1 0 0 0 1 0 0 0 1 62.345652638325149 30.648062654571675 10.125355920920445 1 rotate no_reflect no_shear #
lump $-1 $-1 $53 $2 #
transform $-1 1 0 0 0 1 0 0 0 1 62.345652638325149 30.648062654571675 10.125355920920445 1 rotate no_reflect no_shear #
lump $-1 $-1 $54 $3 #
transform $-1 1 0 0 0 1 0 0 0 1 62.345652638325149 30.648062654571675 10.125355920920445 1 rotate no_reflect no_shear #
lump $-1 $-1 $55 $4 #
transform $-1 1 0 0 0 1 0 0 0 1 62.345652638325149 30.648062654571675 10.125355920920445 1 rotate no_reflect no_shear #
lump $-1 $-1 $56 $5 #
transform $-1 1 0 0 0 1 0 0 0 1 62.345652638325149 30.648062654571675 10.125355920920445 1 rotate no_reflect no_shear #
lump $-1 $-1 $57 $6 #
transform $-1 1 0 0 0 1 0 0 0 1 62.345652638325149 30.648062654571675 10.125355920920445 1 rotate no_reflect no_shear #
lump $-1 $-1 $58 $7 #
transform $-1 1 0 0 0 1 0 0 0 1 62.345652638325149 30.648062654571675 10.125355920920445 1 rotate no_reflect no_shear #
lump $-1 $-1 $59 $8 #
transform $-1 1 0 0 0 1 0 0 0 1 62.345652638325149 30.648062654571675 10.125355920920445 1 rotate no_reflect no_shear #
lump $-1 $-1 $60 $9 #
transform $-1 1 0 0 0 1 0 0 0 1 62.345652638325149 30.648062654571675 10.125355920920445 1 rotate no_reflect no_shear #
lump $-1 $-1 $61 $10 #
transform $-1 1 0 0 0 1 0 0 0 1 62.345652638325149 30.648062654571675 10.125355920920445 1 rotate no_reflect no_shear #
lump $-1 $-1 $62 $11 #
transform $-1 1 0 0 0 1 0 0 0 1 62.345652638325149 30.648062654571675 10.125355920920445 1 rotate no_reflect no_shear #
lump $-1 $-1 $63 $12 #
transform $-1 1 0 0 0 1 0 0 0 1 62.345652638325149 30.648062654571675 10.125355920920445 1 rotate no_reflect no_shear #
lump $-1 $-1 $64 $13 #
transform $-1 1 0 0 0 1 0 0 0 1 62.345652638325149 30.648062654571675 10.125355920920445 1 rotate no_reflect no_shear #
lump $-1 $-1 $65 $14 #
transform $-1 1 0 0 0 1 0 0 0 1 62.345652638325149 30.648062654571675 10.125355920920445 1 rotate no_reflect no_shear #
lump $-1 $-1 $66 $15 #
transform $-1 1 0 0 0 1 0 0 0 1 62.345652638325149 30.648062654571675 10.125355920920445 1 rotate no_reflect no_shear #
lump $-1 $-1 $67 $16 #
transform $-1 1 0 0 0 1 0 0 0 1 62.345652638325149 30.648062654571675 10.125355920920445 1 rotate no_reflect no_shear #
shell $-1 $-1 $-1 $68 $-1 $17 #
shell $-1 $-1 $-1 $69 $-1 $19 #
shell $-1 $-1 $-1 $70 $-1 $21 #
shell $-1 $-1 $-1 $71 $-1 $23 #
shell $-1 $-1 $-1 $72 $-1 $25 #
shell $-1 $-1 $-1 $73 $-1 $27 #
shell $-1 $-1 $-1 $74 $-1 $29 #
shell $-1 $-1 $-1 $75 $-1 $31 #
shell $-1 $-1 $-1 $76 $-1 $33 #
shell $-1 $-1 $-1 $77 $-1 $35 #
shell $-1 $-1 $-1 $78 $-1 $37 #
shell $-1 $-1 $-1 $79 $-1 $39 #
shell $-1 $-1 $-1 $80 $-1 $41 #
shell $-1 $-1 $-1 $81 $-1 $43 #
shell $-1 $-1 $-1 $82 $-1 $45 #
shell $-1 $-1 $-1 $83 $-1 $47 #
shell $-1 $-1 $-1 $84 $-1 $49 #
face $-1 $85 $86 $51 $-1 $87 forward single #
face $-1 $88 $89 $52 $-1 $90 forward single #
face $-1 $91 $92 $53 $-1 $93 reversed single #
face $-1 $94 $95 $54 $-1 $96 forward single #
face $-1 $97 $98 $55 $-1 $99 forward single #
face $-1 $100 $101 $56 $-1 $102 reversed single #
face $-1 $103 $104 $57 $-1 $105 forward single #
face $-1 $106 $107 $58 $-1 $108 forward single #
face $-1 $109 $110 $59 $-1 $111 reversed single #
face $-1 $112 $113 $60 $-1 $114 forward single #
face $-1 $115 $116 $61 $-1 $117 forward single #
face $-1 $118 $119 $62 $-1 $120 reversed single #
face $-1 $121 $122 $63 $-1 $123 forward single #
face $-1 $124 $125 $64 $-1 $126 forward single #
face $-1 $127 $128 $65 $-1 $129 reversed single #
face $-1 $130 $131 $66 $-1 $132 forward single #
face $-1 $133 $134 $67 $-1 $135 forward single #
face $-1 $136 $137 $51 $-1 $138 reversed single #
loop $-1 $-1 $139 $68 #
plane-surface $-1 0 0 10.125355920920445 0 0 1 1 0 0 forward_v I I I I #
face $-1 $140 $141 $52 $-1 $142 reversed single #
loop $-1 $-1 $143 $69 #
plane-surface $-1 0 -26.297768854376731 5.6825569188847185 0 0 1 1 0 0 forward_v I I I I #
face $-1 $144 $145 $53 $-1 $146 reversed single #
loop $-1 $-1 $147 $70 #
plane-surface $-1 -163.22303867837482 -16.973170113562876 77.705180521729858 0 1 0 -0.80901700255871778 0 0.5877852410284794 forward_v I I I I #
face $-1 $148 $149 $54 $-1 $150 forward single #
loop $-1 $151 $152 $71 #
cone-surface $-1 -58.690764259528486 -13.281059777748762 6.1215310876756446 0.80901700255871778 0 -0.5877852410284794 0.5877852410284794 0 0.80901700255871778 1 I I 0 1 1 forward I I I I #
face $-1 $153 $154 $55 $-1 $155 forward single #
loop $-1 $156 $157 $72 #
cone-surface $-1 -58.690764259528486 -7.7428942740275915 6.1215310876756446 0.80901700255871778 0 -0.5877852410284794 0.5877852410284794 0 0.80901700255871778 1 I I 0 1 1 forward I I I I #
face $-1 $158 $159 $56 $-1 $160 reversed single #
loop $-1 $-1 $161 $73 #
plane-surface $-1 83.836111457318268 -12.910930661033255 175.15054142705105 0 -1 0 -0.78801076186113728 0 -0.61566146476048833 forward_v I I I I #
face $-1 $162 $163 $57 $-1 $164 forward single #
loop $-1 $165 $166 $74 #
cone-surface $-1 57.842205118296192 -19.365605227567919 4.658808653202172 -0.78801076186113728 0 -0.61566146476048833 0.61566146476048833 0 -0.78801076186113728 1 I I 0 1 1 forward I I I I #
face $-1 $167 $168 $58 $-1 $169 forward single #
loop $-1 $170 $171 $75 #
cone-surface $-1 57.842205118296192 -15.49280048764712 4.658808653202172 -0.78801076186113728 0 -0.61566146476048833 0.61566146476048833 0 -0.78801076186113728 1 I I 0 1 1 forward I I I I #
face $-1 $172 $173 $59 $-1 $174 reversed single #
loop $-1 $-1 $175 $76 #
plane-surface $-1 83.836111457318268 1.608733777501719 175.15054142705105 0 -1 0 -0.78801076186113728 0 -0.61566146476048833 forward_v I I I I #
face $-1 $176 $177 $60 $-1 $178 forward single #
loop $-1 $179 $180 $77 #
cone-surface $-1 57.842205118296192 -4.8459407890329445 4.658808653202172 -0.78801076186113728 0 -0.61566146476048833 0.61566146476048833 0 -0.78801076186113728 1 I I 0 1 1 forward I I I I #
face $-1 $181 $182 $61 $-1 $183 forward single #
loop $-1 $184 $185 $78 #
cone-surface $-1 57.842205118296192 -0.97313604911214213 4.658808653202172 -0.78801076186113728 0 -0.61566146476048833 0.61566146476048833 0 -0.78801076186113728 1 I I 0 1 1 forward I I I I #
face $-1 $186 $187 $62 $-1 $188 reversed single #
loop $-1 $-1 $189 $79 #
plane-surface $-1 83.836111457318268 16.128398216036693 175.15054142705105 0 -1 0 -0.78801076186113728 0 -0.61566146476048833 forward_v I I I I #
face $-1 $190 $191 $63 $-1 $192 forward single #
loop $-1 $193 $194 $80 #
cone-surface $-1 57.842205118296192 9.6737236495020298 4.658808653202172 -0.78801076186113728 0 -0.61566146476048833 0.61566146476048833 0 -0.78801076186113728 1 I I 0 1 1 forward I I I I #
face $-1 $195 $196 $64 $-1 $197 forward single #
loop $-1 $198 $199 $81 #
cone-surface $-1 57.842205118296192 13.546528389422832 4.658808653202172 -0.78801076186113728 0 -0.61566146476048833 0.61566146476048833 0 -0.78801076186113728 1 I I 0 1 1 forward I I I I #
face $-1 $200 $201 $65 $-1 $202 reversed single #
loop $-1 $-1 $203 $82 #
plane-surface $-1 -14.42197901119458 26.129790457997402 98.382909777531324 0.78801076186113728 0 0.61566146476048833 0.61566146476048833 0 -0.78801076186113728 forward_v I I I I #
face $-1 $204 $205 $66 $-1 $206 forward single #
loop $-1 $207 $208 $83 #
cone-surface $-1 57.842205118296192 24.193388088037004 4.658808653202172 -0.78801076186113728 0 -0.61566146476048833 0.61566146476048833 0 -0.78801076186113728 1 I I 0 1 1 forward I I I I #
face $-1 $209 $210 $67 $-1 $211 forward single #
loop $-1 $212 $213 $84 #
cone-surface $-1 57.842205118296192 28.066192827957806 4.658808653202172 -0.78801076186113728 0 -0.61566146476048833 0.61566146476048833 0 -0.78801076186113728 1 I I 0 1 1 forward I I I I #
face $-1 $214 $215 $51 $-1 $216 reversed single #
loop $-1 $-1 $217 $85 #
plane-surface $-1 0 0 -10.125355920920445 0 0 1 1 0 0 forward_v I I I I #
coedge $-1 $218 $219 $220 $221 forward $86 $-1 #
face $-1 $222 $223 $52 $-1 $224 reversed single #
loop $-1 $-1 $225 $88 #
plane-surface $-1 0 -26.297768854376731 0.6995110340133861 0 0 1 1 0 0 forward_v I I I I #
coedge $-1 $226 $227 $228 $229 reversed $89 $-1 #
face $-1 $230 $231 $53 $-1 $232 reversed single #
loop $-1 $-1 $233 $91 #
plane-surface $-1 -62.345652638325149 -10.511977025888179 4.4134715955382546 -0.80901700255871778 0 0.5877852410284794 0.5877852410284794 0 0.80901700255871778 forward_v I I I I #
coedge $-1 $234 $235 $236 $237 reversed $92 $-1 #
face $-1 $-1 $238 $54 $-1 $239 forward single #
loop $-1 $240 $241 $94 #
cone-surface $-1 -56.706330757417994 -13.281059777748762 4.6797557966077097 0.80901700255871778 0 -0.5877852410284794 0.2938926205142397 0 0.40450850127935889 1 I I -0.70710678118654746 0.70710678118654746 0.5 forward I I I I #
loop $-1 $-1 $242 $71 #
coedge $-1 $152 $152 $243 $244 reversed $95 $-1 #
face $-1 $-1 $245 $55 $-1 $246 forward single #
loop $-1 $247 $248 $97 #
cone-surface $-1 -56.706330757417994 -7.7428942740275915 4.6797557966077097 0.80901700255871778 0 -0.5877852410284794 0.2938926205142397 0 0.40450850127935889 1 I I -0.70710678118654746 0.70710678118654746 0.5 forward I I I I #
loop $-1 $-1 $249 $72 #
coedge $-1 $157 $157 $250 $251 reversed $98 $-1 #
face $-1 $252 $253 $56 $-1 $254 forward single #
loop $-1 $-1 $255 $100 #
plane-surface $-1 -14.42197901119458 -17.429202857607521 98.382909777531324 0.78801076186113728 0 0.61566146476048833 0.61566146476048833 0 -0.78801076186113728 forward_v I I I I #
coedge $-1 $256 $257 $258 $259 reversed $101 $-1 #
face $-1 $-1 $260 $57 $-1 $261 forward single #
loop $-1 $262 $263 $103 #
cone-surface $-1 56.85138986549066 -19.365605227567919 3.8846989590546421 -0.78801076186113728 0 -0.61566146476048833 0.30783073238024417 0 -0.39400538093056864 1 I I -0.70710678118654746 0.70710678118654746 0.5 forward I I I I #
loop $-1 $-1 $264 $74 #
coedge $-1 $166 $166 $265 $266 reversed $104 $-1 #
face $-1 $-1 $267 $58 $-1 $268 forward single #
loop $-1 $269 $270 $106 #
cone-surface $-1 56.85138986549066 -15.49280048764712 3.8846989590546421 -0.78801076186113728 0 -0.61566146476048833 0.30783073238024417 0 -0.39400538093056864 1 I I -0.70710678118654746 0.70710678118654746 0.5 forward I I I I #
loop $-1 $-1 $271 $75 #
coedge $-1 $171 $171 $272 $273 reversed $107 $-1 #
face $-1 $274 $275 $59 $-1 $276 reversed single #
loop $-1 $-1 $277 $109 #
plane-surface $-1 -14.42197901119458 -2.9095384190725468 98.382909777531324 0.78801076186113728 0 0.61566146476048833 0.61566146476048833 0 -0.78801076186113728 forward_v I I I I #
coedge $-1 $278 $279 $280 $281 reversed $110 $-1 #
face $-1 $-1 $282 $60 $-1 $283 forward single #
loop $-1 $284 $285 $112 #
cone-surface $-1 56.85138986549066 -4.8459407890329445 3.8846989590546421 -0.78801076186113728 0 -0.61566146476048833 0.30783073238024417 0 -0.39400538093056864 1 I I -0.70710678118654746 0.70710678118654746 0.5 forward I I I I #
loop $-1 $-1 $286 $77 #
coedge $-1 $180 $180 $287 $288 reversed $113 $-1 #
face $-1 $-1 $289 $61 $-1 $290 forward single #
loop $-1 $291 $292 $115 #
cone-surface $-1 56.85138986549066 -0.97313604911214213 3.8846989590546421 -0.78801076186113728 0 -0.61566146476048833 0.30783073238024417 0 -0.39400538093056864 1 I I -0.70710678118654746 0.70710678118654746 0.5 forward I I I I #
loop $-1 $-1 $293 $78 #
coedge $-1 $185 $185 $294 $295 reversed $116 $-1 #
face $-1 $296 $297 $62 $-1 $298 reversed single #
loop $-1 $-1 $299 $118 #
plane-surface $-1 -14.42197901119458 11.610126019462427 98.382909777531324 0.78801076186113728 0 0.61566146476048833 0.61566146476048833 0 -0.78801076186113728 forward_v I I I I #
coedge $-1 $300 $301 $302 $303 reversed $119 $-1 #
face $-1 $-1 $304 $63 $-1 $305 forward single #
loop $-1 $306 $307 $121 #
cone-surface $-1 56.85138986549066 9.6737236495020298 3.8846989590546421 -0.78801076186113728 0 -0.61566146476048833 0.30783073238024417 0 -0.39400538093056864 1 I I -0.70710678118654746 0.70710678118654746 0.5 forward I I I I #
loop $-1 $-1 $308 $80 #
coedge $-1 $194 $194 $309 $310 reversed $122 $-1 #
face $-1 $-1 $311 $64 $-1 $312 forward single #
loop $-1 $313 $314 $124 #
cone-surface $-1 56.85138986549066 13.546528389422832 3.8846989590546421 -0.78801076186113728 0 -0.61566146476048833 0.30783073238024417 0 -0.39400538093056864 1 I I -0.70710678118654746 0.70710678118654746 0.5 forward I I I I #
loop $-1 $-1 $315 $81 #
coedge $-1 $199 $199 $316 $317 reversed $125 $-1 #
face $-1 $318 $319 $65 $-1 $320 reversed single #
loop $-1 $-1 $321 $127 #
plane-surface $-1 83.836111457318268 21.611518261423136 175.15054142705105 0 1 0 0.78801076186113728 0 0.61566146476048833 forward_v I I I I #
coedge $-1 $322 $323 $324 $325 reversed $128 $-1 #
face $-1 $-1 $326 $66 $-1 $327 forward single #
loop $-1 $328 $329 $130 #
cone-surface $-1 56.85138986549066 24.193388088037004 3.8846989590546421 -0.78801076186113728 0 -0.61566146476048833 0.30783073238024417 0 -0.39400538093056864 1 I I -0.70710678118654746 0.70710678118654746 0.5 forward I I I I #
loop $-1 $-1 $330 $83 #
coedge $-1 $208 $208 $331 $332 reversed $131 $-1 #
face $-1 $-1 $333 $67 $-1 $334 forward single #
loop $-1 $335 $336 $133 #
cone-surface $-1 56.85138986549066 28.066192827957806 3.8846989590546421 -0.78801076186113728 0 -0.61566146476048833 0.30783073238024417 0 -0.39400538093056864 1 I I -0.70710678118654746 0.70710678118654746 0.5 forward I I I I #
loop $-1 $-1 $337 $84 #
coedge $-1 $213 $213 $338 $339 reversed $134 $-1 #
face $-1 $340 $341 $51 $-1 $342 reversed single #
loop $-1 $-1 $343 $136 #
plane-surface $-1 0 -30.648062654571675 0 0 1 0 0 0 1 forward_v I I I I #
coedge $-1 $344 $345 $346 $347 forward $137 $-1 #
coedge $-1 $348 $139 $349 $350 forward $86 $-1 #
coedge $-1 $139 $348 $351 $352 forward $86 $-1 #
coedge $-1 $353 $354 $139 $221 reversed $355 $-1 #
edge $-1 $356 -30.648062654571675 $357 30.648062654571675 $220 $358 forward 7 unknown #
face $-1 $359 $360 $52 $-1 $361 reversed single #
loop $-1 $-1 $362 $140 #
plane-surface $-1 0 -21.947475054181787 3.1910339764490523 0 -1 0 0 0 -1 forward_v I I I I #
coedge $-1 $363 $364 $365 $366 reversed $141 $-1 #
coedge $-1 $367 $143 $368 $369 forward $89 $-1 #
coedge $-1 $143 $367 $370 $371 reversed $89 $-1 #
coedge $-1 $372 $373 $143 $229 forward $374 $-1 #
edge $-1 $375 8.7985906269934215 $376 17.499178227383311 $228 $377 forward 7 unknown #
face $-1 $378 $379 $53 $-1 $380 reversed single #
loop $-1 $-1 $381 $144 #
plane-surface $-1 -163.22303867837482 -4.050783938213482 77.705180521729858 0 -1 0 0.80901700255871778 0 -0.5877852410284794 forward_v I I I I #
coedge $-1 $382 $383 $384 $385 reversed $145 $-1 #
coedge $-1 $235 $147 $386 $387 reversed $92 $-1 #
coedge $-1 $147 $234 $382 $388 reversed $92 $-1 #
coedge $-1 $384 $389 $147 $237 forward $390 $-1 #
edge $-1 $391 19.265866700862261 $392 23.415793456793317 $236 $393 forward 7 unknown #
loop $-1 $-1 $243 $148 #
plane-surface $-1 -62.345652638325149 -10.511977025888179 4.4134715955382546 -0.80901700255871778 0 0.5877852410284794 0.5877852410284794 0 0.80901700255871778 forward_v I I I I #
loop $-1 $-1 $394 $94 #
coedge $-1 $241 $241 $242 $395 reversed $149 $-1 #
coedge $-1 $242 $242 $241 $395 forward $151 $-1 #
coedge $-1 $243 $243 $152 $244 forward $238 $-1 #
edge $-1 $396 0 $396 6.2831853071796004 $243 $397 forward 7 unknown #
loop $-1 $-1 $250 $153 #
plane-surface $-1 -62.345652638325149 -10.511977025888179 4.4134715955382546 -0.80901700255871778 0 0.5877852410284794 0.5877852410284794 0 0.80901700255871778 forward_v I I I I #
loop $-1 $-1 $398 $97 #
coedge $-1 $248 $248 $249 $399 reversed $154 $-1 #
coedge $-1 $249 $249 $248 $399 forward $156 $-1 #
coedge $-1 $250 $250 $157 $251 forward $245 $-1 #
edge $-1 $400 0 $400 6.2831853071796004 $250 $401 forward 7 unknown #
face $-1 $402 $403 $56 $-1 $404 reversed single #
loop $-1 $-1 $258 $158 #
plane-surface $-1 0 0 10.125355920920445 0 0 1 1 0 0 forward_v I I I I #
coedge $-1 $405 $406 $407 $408 reversed $159 $-1 #
coedge $-1 $257 $161 $409 $410 reversed $101 $-1 #
coedge $-1 $161 $256 $405 $411 reversed $101 $-1 #
coedge $-1 $407 $412 $161 $259 forward $253 $-1 #
edge $-1 $413 -20.427596909666015 $414 -12.614321613358037 $258 $415 forward 7 unknown #
loop $-1 $-1 $265 $162 #
plane-surface $-1 -14.42197901119458 -17.429202857607521 98.382909777531324 0.78801076186113728 0 0.61566146476048833 0.61566146476048833 0 -0.78801076186113728 forward_v I I I I #
loop $-1 $-1 $416 $103 #
coedge $-1 $263 $263 $264 $417 reversed $163 $-1 #
coedge $-1 $264 $264 $263 $417 forward $165 $-1 #
coedge $-1 $265 $265 $166 $266 forward $260 $-1 #
edge $-1 $418 0 $418 6.2831853071796004 $265 $419 forward 7 unknown #
loop $-1 $-1 $272 $167 #
plane-surface $-1 -14.42197901119458 -17.429202857607521 98.382909777531324 0.78801076186113728 0 0.61566146476048833 0.61566146476048833 0 -0.78801076186113728 forward_v I I I I #
loop $-1 $-1 $420 $106 #
coedge $-1 $270 $270 $271 $421 reversed $168 $-1 #
coedge $-1 $271 $271 $270 $421 forward $170 $-1 #
coedge $-1 $272 $272 $171 $273 forward $267 $-1 #
edge $-1 $422 0 $422 6.2831853071796004 $272 $423 forward 7 unknown #
face $-1 $424 $425 $59 $-1 $426 forward single #
loop $-1 $-1 $427 $172 #
plane-surface $-1 83.836111457318268 -7.4278106156468127 175.15054142705105 0 1 0 0.78801076186113728 0 0.61566146476048833 forward_v I I I I #
coedge $-1 $428 $429 $430 $431 reversed $173 $-1 #
coedge $-1 $279 $175 $432 $433 reversed $110 $-1 #
coedge $-1 $175 $278 $428 $434 reversed $110 $-1 #
coedge $-1 $430 $435 $175 $281 forward $425 $-1 #
edge $-1 $436 -20.427596909666015 $437 -12.614321613358037 $280 $438 forward 7 unknown #
loop $-1 $-1 $287 $176 #
plane-surface $-1 -14.42197901119458 -2.9095384190725468 98.382909777531324 0.78801076186113728 0 0.61566146476048833 0.61566146476048833 0 -0.78801076186113728 forward_v I I I I #
loop $-1 $-1 $439 $112 #
coedge $-1 $285 $285 $286 $440 reversed $177 $-1 #
coedge $-1 $286 $286 $285 $440 forward $179 $-1 #
coedge $-1 $287 $287 $180 $288 forward $282 $-1 #
edge $-1 $441 0 $441 6.2831853071796004 $287 $442 forward 7 unknown #
loop $-1 $-1 $294 $181 #
plane-surface $-1 -14.42197901119458 -2.9095384190725468 98.382909777531324 0.78801076186113728 0 0.61566146476048833 0.61566146476048833 0 -0.78801076186113728 forward_v I I I I #
loop $-1 $-1 $443 $115 #
coedge $-1 $292 $292 $293 $444 reversed $182 $-1 #
coedge $-1 $293 $293 $292 $444 forward $184 $-1 #
coedge $-1 $294 $294 $185 $295 forward $289 $-1 #
edge $-1 $445 0 $445 6.2831853071796004 $294 $446 forward 7 unknown #
face $-1 $447 $448 $62 $-1 $449 reversed single #
loop $-1 $-1 $450 $186 #
plane-surface $-1 83.836111457318268 7.0918538228881616 175.15054142705105 0 1 0 0.78801076186113728 0 0.61566146476048833 forward_v I I I I #
coedge $-1 $451 $452 $453 $454 reversed $187 $-1 #
coedge $-1 $301 $189 $455 $456 reversed $119 $-1 #
coedge $-1 $189 $300 $451 $457 reversed $119 $-1 #
coedge $-1 $453 $458 $189 $303 forward $459 $-1 #
edge $-1 $460 -20.427596909666015 $461 -12.614321613358037 $302 $462 forward 7 unknown #
loop $-1 $-1 $309 $190 #
plane-surface $-1 -14.42197901119458 11.610126019462427 98.382909777531324 0.78801076186113728 0 0.61566146476048833 0.61566146476048833 0 -0.78801076186113728 forward_v I I I I #
loop $-1 $-1 $463 $121 #
coedge $-1 $307 $307 $308 $464 reversed $191 $-1 #
coedge $-1 $308 $308 $307 $464 forward $193 $-1 #
coedge $-1 $309 $309 $194 $310 forward $304 $-1 #
edge $-1 $465 0 $465 6.2831853071796004 $309 $466 forward 7 unknown #
loop $-1 $-1 $316 $195 #
plane-surface $-1 -14.42197901119458 11.610126019462427 98.382909777531324 0.78801076186113728 0 0.61566146476048833 0.61566146476048833 0 -0.78801076186113728 forward_v I I I I #
loop $-1 $-1 $467 $124 #
coedge $-1 $314 $314 $315 $468 reversed $196 $-1 #
coedge $-1 $315 $315 $314 $468 forward $198 $-1 #
coedge $-1 $316 $316 $199 $317 forward $311 $-1 #
edge $-1 $469 0 $469 6.2831853071796004 $316 $470 forward 7 unknown #
face $-1 $471 $472 $65 $-1 $473 forward single #
loop $-1 $-1 $474 $200 #
plane-surface $-1 62.345652638325149 0 0 -1 0 0 0 0 1 forward_v I I I I #
coedge $-1 $475 $476 $477 $478 reversed $201 $-1 #
coedge $-1 $479 $203 $480 $481 reversed $128 $-1 #
coedge $-1 $203 $479 $475 $482 forward $128 $-1 #
coedge $-1 $477 $483 $203 $325 forward $472 $-1 #
edge $-1 $484 -17.583167425572967 $485 -8.546623032424435 $324 $486 forward 7 unknown #
loop $-1 $-1 $331 $204 #
plane-surface $-1 -14.42197901119458 26.129790457997402 98.382909777531324 0.78801076186113728 0 0.61566146476048833 0.61566146476048833 0 -0.78801076186113728 forward_v I I I I #
loop $-1 $-1 $487 $130 #
coedge $-1 $329 $329 $330 $488 reversed $205 $-1 #
coedge $-1 $330 $330 $329 $488 forward $207 $-1 #
coedge $-1 $331 $331 $208 $332 forward $326 $-1 #
edge $-1 $489 0 $489 6.2831853071796004 $331 $490 forward 7 unknown #
loop $-1 $-1 $338 $209 #
plane-surface $-1 -14.42197901119458 26.129790457997402 98.382909777531324 0.78801076186113728 0 0.61566146476048833 0.61566146476048833 0 -0.78801076186113728 forward_v I I I I #
loop $-1 $-1 $491 $133 #
coedge $-1 $336 $336 $337 $492 reversed $210 $-1 #
coedge $-1 $337 $337 $336 $492 forward $212 $-1 #
coedge $-1 $338 $338 $213 $339 forward $333 $-1 #
edge $-1 $493 0 $493 6.2831853071796004 $338 $494 forward 7 unknown #
face $-1 $495 $496 $51 $-1 $497 reversed single #
loop $-1 $-1 $498 $214 #
plane-surface $-1 -62.345652638325149 0 0 1 0 0 0 0 -1 forward_v I I I I #
coedge $-1 $499 $351 $500 $501 forward $215 $-1 #
coedge $-1 $502 $217 $499 $503 forward $137 $-1 #
coedge $-1 $217 $502 $504 $505 forward $137 $-1 #
coedge $-1 $354 $353 $217 $347 reversed $355 $-1 #
edge $-1 $506 -30.648062654571675 $507 30.648062654571675 $346 $508 forward 7 unknown #
coedge $-1 $219 $218 $509 $510 forward $86 $-1 #
coedge $-1 $511 $512 $218 $350 reversed $496 $-1 #
edge $-1 $357 -62.345652638325149 $513 62.345652638325149 $349 $514 forward 7 unknown #
coedge $-1 $343 $515 $219 $352 reversed $215 $-1 #
edge $-1 $516 -62.345652638325149 $356 62.345652638325149 $351 $517 forward 7 unknown #
coedge $-1 $346 $220 $515 $518 forward $355 $-1 #
coedge $-1 $220 $346 $511 $519 reversed $355 $-1 #
loop $-1 $-1 $353 $495 #
vertex $-1 $221 $520 #
vertex $-1 $221 $521 #
straight-curve $-1 62.345652638325149 0 10.125355920920445 0 1 0 I I #
face $-1 $522 $523 $52 $-1 $524 reversed single #
loop $-1 $-1 $525 $222 #
plane-surface $-1 -62.345652638325149 0 0 1 0 0 0 0 -1 forward_v I I I I #
coedge $-1 $526 $368 $373 $527 reversed $223 $-1 #
coedge $-1 $528 $225 $529 $530 reversed $141 $-1 #
coedge $-1 $225 $528 $526 $531 forward $141 $-1 #
coedge $-1 $373 $372 $225 $366 forward $374 $-1 #
edge $-1 $532 -17.499178227383311 $533 -8.7985906269934215 $365 $534 forward 7 unknown #
coedge $-1 $227 $226 $525 $535 reversed $89 $-1 #
coedge $-1 $362 $536 $226 $369 reversed $223 $-1 #
edge $-1 $375 -62.345652638325149 $537 62.345652638325149 $368 $538 forward 7 unknown #
coedge $-1 $539 $540 $227 $371 forward $523 $-1 #
edge $-1 $376 -62.345652638325149 $541 62.345652638325149 $370 $542 forward 7 unknown #
coedge $-1 $365 $228 $540 $543 forward $374 $-1 #
coedge $-1 $228 $365 $362 $527 forward $374 $-1 #
loop $-1 $-1 $228 $522 #
vertex $-1 $229 $544 #
vertex $-1 $543 $545 #
straight-curve $-1 62.345652638325149 -13.148884427188365 5.6825569188847185 0 -1 0 I I #
face $-1 $-1 $390 $53 $-1 $546 forward single #
loop $-1 $-1 $547 $230 #
plane-surface $-1 -62.345652638325149 0 0 1 0 0 0 0 -1 forward_v I I I I #
coedge $-1 $548 $549 $550 $551 reversed $231 $-1 #
coedge $-1 $552 $233 $235 $388 forward $145 $-1 #
coedge $-1 $233 $552 $548 $553 forward $145 $-1 #
coedge $-1 $550 $236 $233 $385 forward $390 $-1 #
edge $-1 $392 -11.717181600618787 $554 1.2052045747306073 $384 $555 forward 7 unknown #
coedge $-1 $556 $557 $234 $387 forward $379 $-1 #
edge $-1 $558 -34.439118665326674 $391 -28.727234339944484 $386 $559 forward 7 unknown #
edge $-1 $392 -7.0602772343682947 $558 0 $235 $560 forward 7 unknown #
coedge $-1 $236 $550 $556 $561 forward $390 $-1 #
loop $-1 $-1 $550 $378 #
vertex $-1 $387 $562 #
vertex $-1 $237 $563 #
straight-curve $-1 -81.61151933918741 -16.973170113562876 10.125355920920441 1 0 0 I I #
coedge $-1 $394 $394 $-1 $564 reversed $240 $-1 #
edge $-1 $565 0 $565 6.2831853071796004 $241 $566 forward 7 unknown #
vertex $-1 $244 $567 #
ellipse-curve $-1 -60.270689260359624 -13.281059777748762 7.2694137582293461 -0.80901700255871778 0 0.5877852410284794 0.5877852410284794 0 0.80901700255871778 1 I I #
coedge $-1 $398 $398 $-1 $568 reversed $247 $-1 #
edge $-1 $569 0 $569 6.2831853071796004 $248 $570 forward 7 unknown #
vertex $-1 $251 $571 #
ellipse-curve $-1 -60.270689260359624 -7.7428942740275915 7.2694137582293461 -0.80901700255871778 0 0.5877852410284794 0.5877852410284794 0 0.80901700255871778 1 I I #
face $-1 $-1 $572 $56 $-1 $573 forward single #
loop $-1 $-1 $574 $252 #
plane-surface $-1 62.345652638325149 0 0 -1 0 0 0 0 1 forward_v I I I I #
coedge $-1 $575 $255 $257 $411 forward $159 $-1 #
coedge $-1 $255 $575 $576 $577 forward $159 $-1 #
coedge $-1 $578 $258 $255 $408 forward $253 $-1 #
edge $-1 $414 4.1963292322294947 $579 13.232873625378026 $407 $580 forward 7 unknown #
coedge $-1 $581 $582 $256 $410 forward $403 $-1 #
edge $-1 $583 -87.450451404507049 $413 -77.449914792605085 $409 $584 forward 7 unknown #
edge $-1 $414 112.00044228858332 $583 124.6913052766503 $257 $585 forward 7 unknown #
coedge $-1 $258 $578 $581 $586 forward $253 $-1 #
vertex $-1 $410 $587 #
vertex $-1 $259 $588 #
straight-curve $-1 41.918055728659134 -12.910930661033255 10.125355920920441 -1 0 0 I I #
coedge $-1 $416 $416 $-1 $589 reversed $262 $-1 #
edge $-1 $590 0 $590 6.2831853071796004 $263 $591 forward 7 unknown #
vertex $-1 $266 $592 #
ellipse-curve $-1 58.43901499017116 -19.365605227567919 5.1250876149694617 0.78801076186113728 0 0.61566146476048833 0.61566146476048833 0 -0.78801076186113728 1 I I #
coedge $-1 $420 $420 $-1 $593 reversed $269 $-1 #
edge $-1 $594 0 $594 6.2831853071796004 $270 $595 forward 7 unknown #
vertex $-1 $273 $596 #
ellipse-curve $-1 58.43901499017116 -15.49280048764712 5.1250876149694617 0.78801076186113728 0 0.61566146476048833 0.61566146476048833 0 -0.78801076186113728 1 I I #
face $-1 $-1 $597 $59 $-1 $598 reversed single #
loop $-1 $-1 $280 $274 #
plane-surface $-1 0 0 10.125355920920445 0 0 1 1 0 0 forward_v I I I I #
coedge $-1 $599 $600 $601 $602 reversed $275 $-1 #
coedge $-1 $603 $277 $279 $434 forward $173 $-1 #
coedge $-1 $277 $603 $599 $604 forward $173 $-1 #
coedge $-1 $601 $280 $277 $431 forward $425 $-1 #
edge $-1 $437 -3.0635029870379924 $605 5.9730414061105392 $430 $606 forward 7 unknown #
coedge $-1 $607 $608 $278 $433 forward $597 $-1 #
edge $-1 $609 -87.450451404507049 $436 -77.449914792605085 $432 $610 forward 7 unknown #
edge $-1 $437 112.00044228858332 $609 124.6913052766503 $279 $611 forward 7 unknown #
coedge $-1 $280 $601 $607 $612 forward $425 $-1 #
vertex $-1 $281 $613 #
vertex $-1 $281 $614 #
straight-curve $-1 41.918055728659134 1.608733777501719 10.125355920920441 -1 0 0 I I #
coedge $-1 $439 $439 $-1 $615 reversed $284 $-1 #
edge $-1 $616 0 $616 6.2831853071796004 $285 $617 forward 7 unknown #
vertex $-1 $288 $618 #
ellipse-curve $-1 58.43901499017116 -4.8459407890329445 5.1250876149694617 0.78801076186113728 0 0.61566146476048833 0.61566146476048833 0 -0.78801076186113728 1 I I #
coedge $-1 $443 $443 $-1 $619 reversed $291 $-1 #
edge $-1 $620 0 $620 6.2831853071796004 $292 $621 forward 7 unknown #
vertex $-1 $295 $622 #
ellipse-curve $-1 58.43901499017116 -0.97313604911214213 5.1250876149694617 0.78801076186113728 0 0.61566146476048833 0.61566146476048833 0 -0.78801076186113728 1 I I #
face $-1 $-1 $459 $62 $-1 $623 forward single #
loop $-1 $-1 $624 $296 #
plane-surface $-1 62.345652638325149 0 0 -1 0 0 0 0 1 forward_v I I I I #
coedge $-1 $625 $626 $627 $628 reversed $297 $-1 #
coedge $-1 $629 $299 $301 $457 forward $187 $-1 #
coedge $-1 $299 $629 $625 $630 forward $187 $-1 #
coedge $-1 $627 $302 $299 $454 forward $459 $-1 #
edge $-1 $461 -10.32333520630548 $631 -1.2867908131569479 $453 $632 forward 7 unknown #
coedge $-1 $633 $634 $300 $456 forward $448 $-1 #
edge $-1 $635 -87.450451404507049 $460 -77.449914792605085 $455 $636 forward 7 unknown #
edge $-1 $461 112.00044228858332 $635 124.6913052766503 $301 $637 forward 7 unknown #
coedge $-1 $302 $627 $633 $638 forward $459 $-1 #
loop $-1 $-1 $627 $447 #
vertex $-1 $456 $639 #
vertex $-1 $303 $640 #
straight-curve $-1 41.918055728659134 16.128398216036693 10.125355920920441 -1 0 0 I I #
coedge $-1 $463 $463 $-1 $641 reversed $306 $-1 #
edge $-1 $642 0 $642 6.2831853071796004 $307 $643 forward 7 unknown #
vertex $-1 $310 $644 #
ellipse-curve $-1 58.43901499017116 9.6737236495020298 5.1250876149694617 0.78801076186113728 0 0.61566146476048833 0.61566146476048833 0 -0.78801076186113728 1 I I #
coedge $-1 $467 $467 $-1 $645 reversed $313 $-1 #
edge $-1 $646 0 $646 6.2831853071796004 $314 $647 forward 7 unknown #
vertex $-1 $317 $648 #
ellipse-curve $-1 58.43901499017116 13.546528389422832 5.1250876149694617 0.78801076186113728 0 0.61566146476048833 0.61566146476048833 0 -0.78801076186113728 1 I I #
face $-1 $-1 $649 $65 $-1 $650 reversed single #
loop $-1 $-1 $477 $318 #
plane-surface $-1 0 0 10.125355920920445 0 0 1 1 0 0 forward_v I I I I #
coedge $-1 $651 $652 $476 $653 forward $319 $-1 #
coedge $-1 $476 $321 $323 $482 reversed $201 $-1 #
coedge $-1 $321 $475 $474 $653 reversed $201 $-1 #
coedge $-1 $654 $324 $321 $478 forward $472 $-1 #
edge $-1 $485 12.614321613358037 $655 20.427596909666015 $477 $656 forward 7 unknown #
coedge $-1 $323 $322 $651 $657 reversed $128 $-1 #
coedge $-1 $658 $659 $322 $481 forward $649 $-1 #
edge $-1 $660 -81.488381071307771 $484 -68.797518083240803 $480 $661 forward 7 unknown #
edge $-1 $662 -124.6913052766503 $485 -112.00044228858332 $475 $663 forward 7 unknown #
coedge $-1 $324 $654 $658 $664 forward $472 $-1 #
vertex $-1 $481 $665 #
vertex $-1 $325 $666 #
straight-curve $-1 54.53237734201717 13.064895228998701 10.125355920920441 0 -1 0 I I #
coedge $-1 $487 $487 $-1 $667 reversed $328 $-1 #
edge $-1 $668 0 $668 6.2831853071796004 $329 $669 forward 7 unknown #
vertex $-1 $332 $670 #
ellipse-curve $-1 58.43901499017116 24.193388088037004 5.1250876149694617 0.78801076186113728 0 0.61566146476048833 0.61566146476048833 0 -0.78801076186113728 1 I I #
coedge $-1 $491 $491 $-1 $671 reversed $335 $-1 #
edge $-1 $672 0 $672 6.2831853071796004 $336 $673 forward 7 unknown #
vertex $-1 $339 $674 #
ellipse-curve $-1 58.43901499017116 28.066192827957806 5.1250876149694617 0.78801076186113728 0 0.61566146476048833 0.61566146476048833 0 -0.78801076186113728 1 I I #
face $-1 $-1 $355 $51 $-1 $675 reversed single #
loop $-1 $-1 $511 $340 #
plane-surface $-1 0 30.648062654571675 0 0 -1 0 0 0 -1 forward_v I I I I #
coedge $-1 $676 $509 $512 $677 forward $341 $-1 #
coedge $-1 $515 $343 $344 $503 reversed $215 $-1 #
coedge $-1 $509 $676 $343 $501 reversed $341 $-1 #
edge $-1 $516 -10.125355920920445 $678 10.125355920920445 $500 $679 forward 7 unknown #
coedge $-1 $345 $344 $676 $680 forward $137 $-1 #
edge $-1 $507 -62.345652638325149 $678 62.345652638325149 $499 $681 forward 7 unknown #
coedge $-1 $512 $511 $345 $505 reversed $496 $-1 #
edge $-1 $682 -62.345652638325149 $506 62.345652638325149 $504 $683 forward 7 unknown #
vertex $-1 $347 $684 #
vertex $-1 $518 $685 #
straight-curve $-1 62.345652638325149 0 -10.125355920920445 0 -1 0 I I #
coedge $-1 $498 $500 $348 $510 reversed $341 $-1 #
edge $-1 $513 -30.648062654571675 $516 30.648062654571675 $509 $686 forward 7 unknown #
coedge $-1 $504 $349 $354 $519 forward $496 $-1 #
coedge $-1 $349 $504 $498 $677 reversed $496 $-1 #
vertex $-1 $350 $687 #
straight-curve $-1 0 30.648062654571675 10.125355920920445 -1 0 0 I I #
coedge $-1 $351 $499 $353 $518 reversed $215 $-1 #
vertex $-1 $510 $688 #
straight-curve $-1 0 -30.648062654571675 10.125355920920445 1 0 0 I I #
edge $-1 $356 -10.125355920920445 $507 10.125355920920445 $353 $689 forward 7 unknown #
edge $-1 $357 -10.125355920920445 $506 10.125355920920445 $354 $690 forward 7 unknown #
point $-1 62.345652638325149 -30.648062654571675 10.125355920920445 #
point $-1 62.345652638325149 30.648062654571675 10.125355920920445 #
face $-1 $-1 $374 $52 $-1 $691 reversed single #
loop $-1 $-1 $370 $359 #
plane-surface $-1 0 -30.648062654571675 0 0 1 0 0 0 1 forward_v I I I I #
coedge $-1 $692 $693 $367 $535 forward $360 $-1 #
coedge $-1 $536 $362 $364 $531 reversed $223 $-1 #
edge $-1 $533 -0.89600595421114004 $375 4.0870399306601923 $373 $694 forward 7 unknown #
coedge $-1 $364 $363 $695 $696 reversed $141 $-1 #
coedge $-1 $540 $539 $363 $530 forward $523 $-1 #
edge $-1 $697 -62.345652638325149 $532 62.345652638325149 $529 $698 forward 7 unknown #
edge $-1 $699 -62.345652638325149 $533 62.345652638325149 $526 $700 forward 7 unknown #
vertex $-1 $530 $701 #
vertex $-1 $366 $702 #
straight-curve $-1 62.345652638325149 -13.148884427188365 0.6995110340133861 0 1 0 I I #
edge $-1 $541 -17.499178227383311 $537 -8.7985906269934215 $525 $703 forward 7 unknown #
coedge $-1 $368 $526 $692 $704 reversed $223 $-1 #
vertex $-1 $535 $705 #
straight-curve $-1 0 -21.947475054181787 5.6825569188847185 -1 0 0 I I #
coedge $-1 $529 $370 $693 $706 forward $523 $-1 #
coedge $-1 $370 $529 $372 $543 reversed $523 $-1 #
vertex $-1 $706 $707 #
straight-curve $-1 0 -30.648062654571675 5.6825569188847185 -1 0 0 I I #
edge $-1 $376 -5.6825569188847185 $532 -0.6995110340133861 $372 $708 forward 7 unknown #
point $-1 62.345652638325149 -21.947475054181787 5.6825569188847185 #
point $-1 62.345652638325149 -30.648062654571675 5.6825569188847185 #
plane-surface $-1 0 0 10.125355920920445 0 0 1 1 0 0 forward_v I I I I #
coedge $-1 $557 $556 $549 $709 forward $379 $-1 #
coedge $-1 $549 $381 $383 $553 reversed $231 $-1 #
coedge $-1 $381 $548 $547 $709 reversed $231 $-1 #
coedge $-1 $389 $384 $381 $551 forward $390 $-1 #
edge $-1 $554 -23.415793456793317 $710 -19.265866700862261 $550 $711 forward 7 unknown #
coedge $-1 $383 $382 $557 $712 reversed $145 $-1 #
edge $-1 $713 0 $554 7.0602772343682947 $548 $714 forward 7 unknown #
vertex $-1 $385 $715 #
straight-curve $-1 -58.1957258823941 -5.2559885129440893 10.125355920920445 0 1 0 I I #
coedge $-1 $547 $386 $389 $561 reversed $379 $-1 #
coedge $-1 $386 $547 $552 $712 forward $379 $-1 #
vertex $-1 $387 $716 #
straight-curve $-1 -62.345652638325149 -16.973170113562876 38.852590260864929 0 0 1 I I #
straight-curve $-1 -62.345652638325149 -16.973170113562876 4.4134715955382546 -0.5877852410284794 0 -0.80901700255871778 I I #
edge $-1 $710 4.050783938213482 $391 16.973170113562876 $556 $717 forward 7 unknown #
point $-1 -62.345652638325149 -16.973170113562876 10.125355920920445 #
point $-1 -58.195725882394093 -16.973170113562876 10.125355920920445 #
edge $-1 $718 1 $718 0 $394 $-1 forward 7 unknown #
vertex $-1 $395 $719 #
ellipse-curve $-1 -57.110839258697354 -13.281059777748762 4.9736484171219493 -0.80901700255871778 0 0.5877852410284794 0.5877852410284794 0 0.80901700255871778 1 I I #
point $-1 -59.682904019331133 -13.281059777748762 8.0784307607880574 #
edge $-1 $720 1 $720 0 $398 $-1 forward 7 unknown #
vertex $-1 $399 $721 #
ellipse-curve $-1 -57.110839258697354 -7.7428942740275915 4.9736484171219493 -0.80901700255871778 0 0.5877852410284794 0.5877852410284794 0 0.80901700255871778 1 I I #
point $-1 -59.682904019331133 -7.7428942740275915 8.0784307607880574 #
loop $-1 $-1 $576 $402 #
plane-surface $-1 0 -21.947475054181787 3.1910339764490523 0 -1 0 0 0 -1 forward_v I I I I #
coedge $-1 $582 $581 $722 $723 forward $403 $-1 #
coedge $-1 $406 $405 $582 $724 reversed $159 $-1 #
coedge $-1 $722 $725 $406 $577 reversed $572 $-1 #
edge $-1 $726 -124.6913052766503 $579 -112.00044228858332 $576 $727 forward 7 unknown #
coedge $-1 $412 $407 $725 $728 forward $253 $-1 #
vertex $-1 $728 $729 #
straight-curve $-1 54.53237734201717 -8.7146014288037605 10.125355920920441 0 -1 0 I I #
coedge $-1 $574 $409 $412 $586 reversed $403 $-1 #
coedge $-1 $409 $574 $575 $724 forward $403 $-1 #
vertex $-1 $410 $730 #
straight-curve $-1 62.345652638325149 -12.910930661033255 87.575270713525526 0 0 1 I I #
straight-curve $-1 -14.42197901119458 -12.910930661033255 98.382909777531324 0.61566146476048833 0 -0.78801076186113728 I I #
edge $-1 $731 -21.947475054181787 $413 -12.910930661033255 $581 $732 forward 7 unknown #
point $-1 62.345652638325149 -12.910930661033255 10.125355920920445 #
point $-1 54.53237734201717 -12.910930661033255 10.125355920920441 #
edge $-1 $733 1 $733 0 $416 $-1 forward 7 unknown #
vertex $-1 $417 $734 #
ellipse-curve $-1 57.245395246421225 -19.365605227567919 4.1925296914348866 0.78801076186113728 0 0.61566146476048833 0.61566146476048833 0 -0.78801076186113728 1 I I #
point $-1 59.054676454931645 -19.365605227567919 4.3370768531083206 #
edge $-1 $735 1 $735 0 $420 $-1 forward 7 unknown #
vertex $-1 $421 $736 #
ellipse-curve $-1 57.245395246421225 -15.49280048764712 4.1925296914348866 0.78801076186113728 0 0.61566146476048833 0.61566146476048833 0 -0.78801076186113728 1 I I #
point $-1 59.054676454931645 -15.49280048764712 4.3370768531083206 #
loop $-1 $-1 $432 $424 #
plane-surface $-1 62.345652638325149 0 0 -1 0 0 0 0 1 forward_v I I I I #
coedge $-1 $600 $427 $429 $604 reversed $275 $-1 #
coedge $-1 $427 $599 $737 $738 reversed $275 $-1 #
coedge $-1 $435 $430 $427 $602 forward $425 $-1 #
edge $-1 $605 12.614321613358037 $739 20.427596909666015 $601 $740 forward 7 unknown #
coedge $-1 $429 $428 $608 $741 reversed $173 $-1 #
edge $-1 $742 -124.6913052766503 $605 -112.00044228858332 $599 $743 forward 7 unknown #
vertex $-1 $431 $744 #
straight-curve $-1 54.53237734201717 -1.4547692095362734 10.125355920920441 0 -1 0 I I #
coedge $-1 $737 $432 $435 $612 reversed $597 $-1 #
coedge $-1 $432 $737 $603 $741 forward $597 $-1 #
vertex $-1 $433 $745 #
straight-curve $-1 62.345652638325149 1.608733777501719 87.575270713525526 0 0 1 I I #
straight-curve $-1 -14.42197901119458 1.608733777501719 98.382909777531324 0.61566146476048833 0 -0.78801076186113728 I I #
edge $-1 $739 -7.4278106156468127 $436 1.608733777501719 $607 $746 forward 7 unknown #
point $-1 62.345652638325149 1.608733777501719 10.125355920920445 #
point $-1 54.53237734201717 1.608733777501719 10.125355920920441 #
edge $-1 $747 1 $747 0 $439 $-1 forward 7 unknown #
vertex $-1 $440 $748 #
ellipse-curve $-1 57.245395246421225 -4.8459407890329445 4.1925296914348866 0.78801076186113728 0 0.61566146476048833 0.61566146476048833 0 -0.78801076186113728 1 I I #
point $-1 59.054676454931645 -4.8459407890329445 4.3370768531083206 #
edge $-1 $749 1 $749 0 $443 $-1 forward 7 unknown #
vertex $-1 $444 $750 #
ellipse-curve $-1 57.245395246421225 -0.97313604911214213 4.1925296914348866 0.78801076186113728 0 0.61566146476048833 0.61566146476048833 0 -0.78801076186113728 1 I I #
point $-1 59.054676454931645 -0.97313604911214213 4.3370768531083206 #
plane-surface $-1 0 0 10.125355920920445 0 0 1 1 0 0 forward_v I I I I #
coedge $-1 $634 $633 $626 $751 forward $448 $-1 #
coedge $-1 $626 $450 $452 $630 reversed $297 $-1 #
coedge $-1 $450 $625 $624 $751 reversed $297 $-1 #
coedge $-1 $458 $453 $450 $628 forward $459 $-1 #
edge $-1 $631 12.614321613358037 $752 20.427596909666015 $627 $753 forward 7 unknown #
coedge $-1 $452 $451 $634 $754 reversed $187 $-1 #
edge $-1 $755 -124.6913052766503 $631 -112.00044228858332 $625 $756 forward 7 unknown #
vertex $-1 $454 $757 #
straight-curve $-1 54.53237734201717 5.8050630097312137 10.125355920920441 0 -1 0 I I #
coedge $-1 $624 $455 $458 $638 reversed $448 $-1 #
coedge $-1 $455 $624 $629 $754 forward $448 $-1 #
vertex $-1 $456 $758 #
straight-curve $-1 62.345652638325149 16.128398216036693 87.575270713525526 0 0 1 I I #
straight-curve $-1 -14.42197901119458 16.128398216036693 98.382909777531324 0.61566146476048833 0 -0.78801076186113728 I I #
edge $-1 $752 7.0918538228881616 $460 16.128398216036693 $633 $759 forward 7 unknown #
point $-1 62.345652638325149 16.128398216036693 10.125355920920445 #
point $-1 54.53237734201717 16.128398216036693 10.125355920920441 #
edge $-1 $760 1 $760 0 $463 $-1 forward 7 unknown #
vertex $-1 $464 $761 #
ellipse-curve $-1 57.245395246421225 9.6737236495020298 4.1925296914348866 0.78801076186113728 0 0.61566146476048833 0.61566146476048833 0 -0.78801076186113728 1 I I #
point $-1 59.054676454931645 9.6737236495020298 4.3370768531083206 #
edge $-1 $762 1 $762 0 $467 $-1 forward 7 unknown #
vertex $-1 $468 $763 #
ellipse-curve $-1 57.245395246421225 13.546528389422832 4.1925296914348866 0.78801076186113728 0 0.61566146476048833 0.61566146476048833 0 -0.78801076186113728 1 I I #
point $-1 59.054676454931645 13.546528389422832 4.3370768531083206 #
loop $-1 $-1 $480 $471 #
plane-surface $-1 0 30.648062654571675 0 0 -1 0 0 0 -1 forward_v I I I I #
coedge $-1 $764 $474 $479 $657 forward $319 $-1 #
coedge $-1 $474 $764 $654 $765 reversed $319 $-1 #
edge $-1 $655 77.449914792605085 $662 87.450451404507049 $474 $766 forward 7 unknown #
coedge $-1 $483 $477 $652 $765 forward $472 $-1 #
vertex $-1 $765 $767 #
straight-curve $-1 41.918055728659134 21.611518261423136 10.125355920920441 1 0 0 I I #
edge $-1 $662 8.546623032424435 $660 17.583167425572967 $651 $768 forward 7 unknown #
coedge $-1 $659 $480 $483 $664 reversed $649 $-1 #
coedge $-1 $480 $658 $764 $769 forward $649 $-1 #
vertex $-1 $481 $770 #
straight-curve $-1 12.176396587002959 30.648062654571675 64.338540559850387 -0.61566146476048833 0 0.78801076186113728 I I #
vertex $-1 $657 $771 #
straight-curve $-1 -14.42197901119458 21.611518261423136 98.382909777531324 -0.61566146476048833 0 0.78801076186113728 I I #
edge $-1 $772 -62.345652638325149 $484 -54.53237734201717 $658 $773 forward 7 unknown #
point $-1 54.53237734201717 30.648062654571667 10.125355920920441 #
point $-1 54.53237734201717 21.611518261423136 10.125355920920441 #
edge $-1 $774 1 $774 0 $487 $-1 forward 7 unknown #
vertex $-1 $488 $775 #
ellipse-curve $-1 57.245395246421225 24.193388088037004 4.1925296914348866 0.78801076186113728 0 0.61566146476048833 0.61566146476048833 0 -0.78801076186113728 1 I I #
point $-1 59.054676454931645 24.193388088037004 4.3370768531083206 #
edge $-1 $776 1 $776 0 $491 $-1 forward 7 unknown #
vertex $-1 $492 $777 #
ellipse-curve $-1 57.245395246421225 28.066192827957806 4.1925296914348866 0.78801076186113728 0 0.61566146476048833 0.61566146476048833 0 -0.78801076186113728 1 I I #
point $-1 59.054676454931645 28.066192827957806 4.3370768531083206 #
plane-surface $-1 62.345652638325149 0 0 -1 0 0 0 0 1 forward_v I I I I #
coedge $-1 $500 $498 $502 $680 reversed $341 $-1 #
edge $-1 $513 -10.125355920920445 $682 10.125355920920445 $512 $778 forward 7 unknown #
vertex $-1 $680 $779 #
straight-curve $-1 -62.345652638325149 -30.648062654571675 0 0 0 -1 I I #
edge $-1 $678 -30.648062654571675 $682 30.648062654571675 $676 $780 forward 7 unknown #
straight-curve $-1 0 -30.648062654571675 -10.125355920920445 -1 0 0 I I #
vertex $-1 $505 $781 #
straight-curve $-1 0 30.648062654571675 -10.125355920920445 1 0 0 I I #
point $-1 62.345652638325149 30.648062654571675 -10.125355920920445 #
point $-1 62.345652638325149 -30.648062654571675 -10.125355920920445 #
straight-curve $-1 -62.345652638325149 0 10.125355920920445 0 -1 0 I I #
point $-1 -62.345652638325149 30.648062654571675 10.125355920920445 #
point $-1 -62.345652638325149 -30.648062654571675 10.125355920920445 #
straight-curve $-1 62.345652638325149 -30.648062654571675 0 0 0 -1 I I #
straight-curve $-1 62.345652638325149 30.648062654571675 0 0 0 -1 I I #
plane-surface $-1 62.345652638325149 0 0 -1 0 0 0 0 1 forward_v I I I I #
coedge $-1 $695 $525 $536 $704 forward $360 $-1 #
coedge $-1 $525 $695 $539 $706 reversed $360 $-1 #
straight-curve $-1 62.345652638325149 -21.947475054181787 1.5955169882245261 0 0 1 I I #
coedge $-1 $693 $692 $528 $696 forward $360 $-1 #
edge $-1 $699 8.7985906269934215 $697 17.499178227383311 $695 $782 forward 7 unknown #
vertex $-1 $530 $783 #
straight-curve $-1 0 -30.648062654571675 0.6995110340133861 1 0 0 I I #
vertex $-1 $696 $784 #
straight-curve $-1 0 -21.947475054181787 0.6995110340133861 1 0 0 I I #
point $-1 62.345652638325149 -30.648062654571675 0.6995110340133861 #
point $-1 62.345652638325149 -21.947475054181787 0.6995110340133861 #
straight-curve $-1 -62.345652638325149 -13.148884427188365 5.6825569188847185 0 1 0 I I #
edge $-1 $537 -4.0870399306601923 $699 0.89600595421114004 $692 $785 forward 7 unknown #
point $-1 -62.345652638325149 -21.947475054181787 5.6825569188847185 #
edge $-1 $541 -5.6825569188847185 $697 -0.6995110340133861 $693 $786 forward 7 unknown #
point $-1 -62.345652638325149 -30.648062654571675 5.6825569188847185 #
straight-curve $-1 62.345652638325149 -30.648062654571675 0 0 0 -1 I I #
edge $-1 $710 28.727234339944484 $713 34.439118665326674 $547 $787 forward 7 unknown #
vertex $-1 $561 $788 #
straight-curve $-1 -81.61151933918741 -4.050783938213482 10.125355920920441 -1 0 0 I I #
edge $-1 $713 -1.2052045747306073 $558 11.717181600618787 $557 $789 forward 7 unknown #
vertex $-1 $712 $790 #
straight-curve $-1 -62.345652638325149 -4.050783938213482 4.4134715955382546 0.5877852410284794 0 0.80901700255871778 I I #
point $-1 -58.195725882394093 -4.050783938213482 10.125355920920445 #
point $-1 -62.345652638325149 -16.973170113562876 4.4134715955382546 #
straight-curve $-1 -62.345652638325149 0 10.125355920920445 0 -1 0 I I #
vertex $-1 $564 $791 #
point $-1 -56.523054017668876 -13.281059777748762 5.7826654196806668 #
vertex $-1 $568 $792 #
point $-1 -56.523054017668876 -7.7428942740275915 5.7826654196806668 #
coedge $-1 $725 $576 $574 $723 reversed $572 $-1 #
edge $-1 $731 77.449914792605085 $726 87.450451404507049 $574 $793 forward 7 unknown #
edge $-1 $726 -13.232873625378026 $583 -4.1963292322294947 $582 $794 forward 7 unknown #
coedge $-1 $576 $722 $578 $728 reversed $572 $-1 #
vertex $-1 $723 $795 #
straight-curve $-1 -14.42197901119458 -21.947475054181787 98.382909777531324 -0.61566146476048833 0 0.78801076186113728 I I #
edge $-1 $579 12.614321613358037 $731 20.427596909666015 $578 $796 forward 7 unknown #
point $-1 54.53237734201717 -21.947475054181787 10.125355920920441 #
point $-1 62.345652638325149 -12.910930661033255 0.12481930901847704 #
vertex $-1 $586 $797 #
straight-curve $-1 62.345652638325149 0 10.125355920920445 0 1 0 I I #
vertex $-1 $589 $798 #
point $-1 57.861056711181718 -19.365605227567919 3.404518929573749 #
vertex $-1 $593 $799 #
point $-1 57.861056711181718 -15.49280048764712 3.404518929573749 #
coedge $-1 $608 $607 $600 $738 forward $597 $-1 #
edge $-1 $739 77.449914792605085 $742 87.450451404507049 $737 $800 forward 7 unknown #
vertex $-1 $612 $801 #
straight-curve $-1 41.918055728659134 -7.4278106156468127 10.125355920920441 1 0 0 I I #
edge $-1 $742 -5.9730414061105392 $609 3.0635029870379924 $608 $802 forward 7 unknown #
vertex $-1 $741 $803 #
straight-curve $-1 -14.42197901119458 -7.4278106156468127 98.382909777531324 -0.61566146476048833 0 0.78801076186113728 I I #
point $-1 54.53237734201717 -7.4278106156468127 10.125355920920441 #
point $-1 62.345652638325149 1.608733777501719 0.12481930901847704 #
straight-curve $-1 62.345652638325149 0 10.125355920920445 0 1 0 I I #
vertex $-1 $615 $804 #
point $-1 57.861056711181718 -4.8459407890329445 3.404518929573749 #
vertex $-1 $619 $805 #
point $-1 57.861056711181718 -0.97313604911214213 3.404518929573749 #
edge $-1 $752 77.449914792605085 $755 87.450451404507049 $624 $806 forward 7 unknown #
vertex $-1 $638 $807 #
straight-curve $-1 41.918055728659134 7.0918538228881616 10.125355920920441 1 0 0 I I #
edge $-1 $755 1.2867908131569479 $635 10.32333520630548 $634 $808 forward 7 unknown #
vertex $-1 $754 $809 #
straight-curve $-1 -14.42197901119458 7.0918538228881616 98.382909777531324 -0.61566146476048833 0 0.78801076186113728 I I #
point $-1 54.53237734201717 7.0918538228881616 10.125355920920441 #
point $-1 62.345652638325149 16.128398216036693 0.12481930901847704 #
straight-curve $-1 62.345652638325149 0 10.125355920920445 0 1 0 I I #
vertex $-1 $641 $810 #
point $-1 57.861056711181718 9.6737236495020298 3.404518929573749 #
vertex $-1 $645 $811 #
point $-1 57.861056711181718 13.546528389422832 3.404518929573749 #
coedge $-1 $652 $651 $659 $769 reversed $319 $-1 #
edge $-1 $655 21.611518261423136 $772 30.648062654571675 $652 $812 forward 7 unknown #
straight-curve $-1 62.345652638325149 21.611518261423136 87.575270713525526 0 0 -1 I I #
point $-1 62.345652638325149 21.611518261423136 10.125355920920445 #
straight-curve $-1 62.345652638325149 13.064895228998701 0.12481930901847704 0 1 0 I I #
edge $-1 $772 -10.125355920920445 $660 -0.12481930901847704 $764 $813 forward 7 unknown #
point $-1 62.345652638325149 30.648062654571667 0.12481930901847704 #
point $-1 62.345652638325149 21.611518261423136 0.12481930901847704 #
vertex $-1 $765 $814 #
straight-curve $-1 0 30.648062654571675 10.125355920920445 -1 0 0 I I #
vertex $-1 $667 $815 #
point $-1 57.861056711181718 24.193388088037004 3.404518929573749 #
vertex $-1 $671 $816 #
point $-1 57.861056711181718 28.066192827957806 3.404518929573749 #
straight-curve $-1 -62.345652638325149 30.648062654571675 0 0 0 -1 I I #
point $-1 -62.345652638325149 -30.648062654571675 -10.125355920920445 #
straight-curve $-1 -62.345652638325149 0 -10.125355920920445 0 1 0 I I #
point $-1 -62.345652638325149 30.648062654571675 -10.125355920920445 #
straight-curve $-1 -62.345652638325149 -13.148884427188365 0.6995110340133861 0 -1 0 I I #
point $-1 -62.345652638325149 -30.648062654571675 0.6995110340133861 #
point $-1 -62.345652638325149 -21.947475054181787 0.6995110340133861 #
straight-curve $-1 -62.345652638325149 -21.947475054181787 1.5955169882245261 0 0 -1 I I #
straight-curve $-1 -62.345652638325149 -30.648062654571675 0 0 0 -1 I I #
straight-curve $-1 -62.345652638325149 -4.050783938213482 38.852590260864929 0 0 -1 I I #
point $-1 -62.345652638325149 -4.050783938213482 10.125355920920445 #
straight-curve $-1 -62.345652638325149 -5.2559885129440893 4.4134715955382591 0 -1 0 I I #
point $-1 -62.345652638325149 -4.050783938213482 4.4134715955382546 #
point $-1 -56.301822256138635 -13.281059777748762 4.3858631760934701 #
point $-1 -56.301822256138635 -7.7428942740275915 4.3858631760934701 #
straight-curve $-1 62.345652638325149 -21.947475054181787 87.575270713525526 0 0 -1 I I #
straight-curve $-1 62.345652638325149 -8.7146014288037605 0.12481930901847704 0 1 0 I I #
point $-1 62.345652638325149 -21.947475054181787 0.12481930901847704 #
straight-curve $-1 41.918055728659134 -21.947475054181787 10.125355920920441 1 0 0 I I #
point $-1 62.345652638325149 -21.947475054181787 10.125355920920445 #
point $-1 56.457384484560095 -19.365605227567919 3.5768682266743981 #
point $-1 56.457384484560095 -15.49280048764712 3.5768682266743981 #
straight-curve $-1 62.345652638325149 -7.4278106156468127 87.575270713525526 0 0 -1 I I #
point $-1 62.345652638325149 -7.4278106156468127 10.125355920920445 #
straight-curve $-1 62.345652638325149 -1.4547692095362734 0.12481930901847704 0 1 0 I I #
point $-1 62.345652638325149 -7.4278106156468127 0.12481930901847704 #
point $-1 56.457384484560095 -4.8459407890329445 3.5768682266743981 #
point $-1 56.457384484560095 -0.97313604911214213 3.5768682266743981 #
straight-curve $-1 62.345652638325149 7.0918538228881616 87.575270713525526 0 0 -1 I I #
point $-1 62.345652638325149 7.0918538228881616 10.125355920920445 #
straight-curve $-1 62.345652638325149 5.8050630097312137 0.12481930901847704 0 1 0 I I #
point $-1 62.345652638325149 7.0918538228881616 0.12481930901847704 #
point $-1 56.457384484560095 9.6737236495020298 3.5768682266743981 #
point $-1 56.457384484560095 13.546528389422832 3.5768682266743981 #
straight-curve $-1 62.345652638325149 0 10.125355920920445 0 1 0 I I #
straight-curve $-1 62.345652638325149 30.648062654571675 0 0 0 -1 I I #
point $-1 62.345652638325149 30.648062654571675 10.125355920920445 #
point $-1 56.457384484560095 24.193388088037004 3.5768682266743981 #
point $-1 56.457384484560095 28.066192827957806 3.5768682266743981 #
End-of-ACIS-data 