500 0 11 0           
7 Unknown 11 ACIS 5.0 NT 24 Thu Mar 25 17:58:13 1999 
-1 9.9999999999999995e-007 1e-010 
body $-1 $11 $-1 $12 #
body $-1 $13 $-1 $14 #
body $-1 $15 $-1 $16 #
body $-1 $17 $-1 $18 #
body $-1 $19 $-1 $20 #
body $-1 $21 $-1 $22 #
body $-1 $23 $-1 $24 #
body $-1 $25 $-1 $26 #
body $-1 $27 $-1 $28 #
body $-1 $29 $-1 $30 #
body $-1 $31 $-1 $32 #
lump $-1 $-1 $33 $0 #
transform $-1 1 0 0 0 1 0 0 0 1 61.539963988158817 37.479147110046682 14.853486873106061 1 rotate no_reflect no_shear #
lump $-1 $-1 $34 $1 #
transform $-1 1 0 0 0 1 0 0 0 1 61.539963988158817 37.479147110046682 14.853486873106061 1 rotate no_reflect no_shear #
lump $-1 $-1 $35 $2 #
transform $-1 1 0 0 0 1 0 0 0 1 61.539963988158817 37.479147110046682 14.853486873106061 1 rotate no_reflect no_shear #
lump $-1 $-1 $36 $3 #
transform $-1 1 0 0 0 1 0 0 0 1 61.539963988158817 37.479147110046682 14.853486873106061 1 rotate no_reflect no_shear #
lump $-1 $-1 $37 $4 #
transform $-1 1 0 0 0 1 0 0 0 1 61.539963988158817 37.479147110046682 14.853486873106061 1 rotate no_reflect no_shear #
lump $-1 $-1 $38 $5 #
transform $-1 1 0 0 0 1 0 0 0 1 61.539963988158817 37.479147110046682 14.853486873106061 1 rotate no_reflect no_shear #
lump $-1 $-1 $39 $6 #
transform $-1 1 0 0 0 1 0 0 0 1 61.539963988158817 37.479147110046682 14.853486873106061 1 rotate no_reflect no_shear #
lump $-1 $-1 $40 $7 #
transform $-1 1 0 0 0 1 0 0 0 1 61.539963988158817 37.479147110046682 14.853486873106061 1 rotate no_reflect no_shear #
lump $-1 $-1 $41 $8 #
transform $-1 1 0 0 0 1 0 0 0 1 61.539963988158817 37.479147110046682 14.853486873106061 1 rotate no_reflect no_shear #
lump $-1 $-1 $42 $9 #
transform $-1 1 0 0 0 1 0 0 0 1 61.539963988158817 37.479147110046682 14.853486873106061 1 rotate no_reflect no_shear #
lump $-1 $-1 $43 $10 #
transform $-1 1 0 0 0 1 0 0 0 1 61.539963988158817 37.479147110046682 14.853486873106061 1 rotate no_reflect no_shear #
shell $-1 $-1 $-1 $44 $-1 $11 #
shell $-1 $-1 $-1 $45 $-1 $13 #
shell $-1 $-1 $-1 $46 $-1 $15 #
shell $-1 $-1 $-1 $47 $-1 $17 #
shell $-1 $-1 $-1 $48 $-1 $19 #
shell $-1 $-1 $-1 $49 $-1 $21 #
shell $-1 $-1 $-1 $50 $-1 $23 #
shell $-1 $-1 $-1 $51 $-1 $25 #
shell $-1 $-1 $-1 $52 $-1 $27 #
shell $-1 $-1 $-1 $53 $-1 $29 #
shell $-1 $-1 $-1 $54 $-1 $31 #
face $-1 $55 $56 $33 $-1 $57 forward single #
face $-1 $58 $59 $34 $-1 $60 reversed single #
face $-1 $61 $62 $35 $-1 $63 reversed single #
face $-1 $64 $65 $36 $-1 $66 reversed single #
face $-1 $67 $68 $37 $-1 $69 forward single #
face $-1 $70 $71 $38 $-1 $72 reversed single #
face $-1 $73 $74 $39 $-1 $75 forward single #
face $-1 $76 $77 $40 $-1 $78 reversed single #
face $-1 $79 $80 $41 $-1 $81 forward single #
face $-1 $82 $83 $42 $-1 $84 forward single #
face $-1 $85 $86 $43 $-1 $87 forward single #
face $-1 $88 $89 $33 $-1 $90 reversed single #
loop $-1 $-1 $91 $44 #
plane-surface $-1 0 0 14.853486873106061 0 0 1 1 0 0 forward_v I I I I #
face $-1 $92 $93 $34 $-1 $94 reversed single #
loop $-1 $-1 $95 $45 #
plane-surface $-1 -55.841142495410317 0 8.2790045733713775 0 0 1 1 0 0 forward_v I I I I #
face $-1 $96 $97 $35 $-1 $98 reversed single #
loop $-1 $-1 $99 $46 #
plane-surface $-1 55.841142495410324 0 8.2790045733713775 0 0 1 1 0 0 forward_v I I I I #
face $-1 $100 $101 $36 $-1 $102 reversed single #
loop $-1 $-1 $103 $47 #
plane-surface $-1 -28.104066374409967 97.600887536655222 135.05391493530206 1 0 0 0 -0.82903758062907751 -0.55919289150049634 forward_v I I I I #
face $-1 $104 $105 $37 $-1 $106 forward single #
loop $-1 $107 $108 $48 #
cone-surface $-1 -17.181695596720559 30.508238470411847 7.2169994082005617 0 -0.82903758062907751 -0.55919289150049634 3 0 0 1 I I 0 1 3 forward I I I I #
face $-1 $109 $110 $38 $-1 $111 reversed single #
loop $-1 $-1 $112 $49 #
plane-surface $-1 6.2593248190311357 97.600887536655222 135.05391493530206 1 0 0 0 -0.82903758062907751 -0.55919289150049634 forward_v I I I I #
face $-1 $113 $114 $39 $-1 $115 forward single #
loop $-1 $116 $117 $50 #
cone-surface $-1 17.181695596720544 30.508238470411847 7.2169994082005617 0 -0.82903758062907751 -0.55919289150049634 3 0 0 1 I I 0 1 3 forward I I I I #
face $-1 $118 $119 $40 $-1 $120 reversed single #
loop $-1 $-1 $121 $51 #
plane-surface $-1 -10.603947799967145 -145.12727860992075 69.329438263812364 -1 0 0 0 -0.87461971476443456 0.48480960649040278 forward_v I I I I #
face $-1 $122 $123 $41 $-1 $124 forward single #
loop $-1 $125 $126 $52 #
cone-surface $-1 -32.444190364783879 -35.375975901348042 11.8884987665027 0 0.87461971476443456 -0.48480960649040278 1 0 0 1 I I 0 1 1 forward I I I I #
face $-1 $127 $128 $42 $-1 $129 forward single #
loop $-1 $130 $131 $53 #
cone-surface $-1 -24.254099402977602 -35.375975901348042 11.8884987665027 0 0.87461971476443456 -0.48480960649040278 1 0 0 1 I I 0 1 1 forward I I I I #
face $-1 $132 $133 $43 $-1 $134 forward single #
loop $-1 $135 $136 $54 #
cone-surface $-1 -16.064008441171325 -35.375975901348042 11.8884987665027 0 0.87461971476443456 -0.48480960649040278 1 0 0 1 I I 0 1 1 forward I I I I #
face $-1 $137 $138 $33 $-1 $139 reversed single #
loop $-1 $-1 $140 $55 #
plane-surface $-1 0 0 -14.853486873106061 0 0 1 1 0 0 forward_v I I I I #
coedge $-1 $141 $142 $143 $144 forward $56 $-1 #
face $-1 $145 $146 $34 $-1 $147 reversed single #
loop $-1 $-1 $148 $58 #
plane-surface $-1 -50.142321002661816 0 11.566245723238719 -1 0 0 0 0 1 forward_v I I I I #
coedge $-1 $149 $150 $151 $152 forward $59 $-1 #
face $-1 $153 $154 $35 $-1 $155 forward single #
loop $-1 $-1 $156 $61 #
plane-surface $-1 50.142321002661824 0 11.566245723238719 1 0 0 0 0 -1 forward_v I I I I #
coedge $-1 $157 $158 $159 $160 reversed $62 $-1 #
face $-1 $161 $162 $36 $-1 $163 reversed single #
loop $-1 $-1 $164 $64 #
plane-surface $-1 -17.181695596720559 -4.4369981768322759 66.228494124552157 0 0.82903758062907751 0.55919289150049634 1 0 0 forward_v I I I I #
coedge $-1 $165 $166 $167 $168 reversed $65 $-1 #
face $-1 $-1 $169 $37 $-1 $170 forward single #
loop $-1 $171 $172 $67 #
cone-surface $-1 -17.181695596720559 25.925406670939928 4.1258404244756655 0 -0.82903758062907751 -0.55919289150049634 1.5 0 0 1 I I -0.70710678118654757 0.70710678118654757 1.5 forward I I I I #
loop $-1 $-1 $173 $48 #
coedge $-1 $108 $108 $174 $175 reversed $68 $-1 #
face $-1 $176 $177 $38 $-1 $178 reversed single #
loop $-1 $-1 $179 $70 #
plane-surface $-1 17.181695596720544 -4.4369981768322759 66.228494124552157 0 0.82903758062907751 0.55919289150049634 1 0 0 forward_v I I I I #
coedge $-1 $180 $181 $182 $183 reversed $71 $-1 #
face $-1 $-1 $184 $39 $-1 $185 forward single #
loop $-1 $186 $187 $73 #
cone-surface $-1 17.181695596720544 25.925406670939928 4.1258404244756655 0 -0.82903758062907751 -0.55919289150049634 1.5 0 0 1 I I -0.70710678118654757 0.70710678118654757 1.5 forward I I I I #
loop $-1 $-1 $188 $50 #
coedge $-1 $117 $117 $189 $190 reversed $74 $-1 #
face $-1 $191 $192 $40 $-1 $193 reversed single #
loop $-1 $-1 $194 $76 #
plane-surface $-1 -24.254099402977602 -37.479147110046668 9.6591068147466927 0 -0.87461971476443456 0.48480960649040278 1 0 0 forward_v I I I I #
coedge $-1 $195 $196 $197 $198 reversed $77 $-1 #
face $-1 $-1 $199 $41 $-1 $200 forward single #
loop $-1 $201 $202 $79 #
cone-surface $-1 -32.444190364783879 -34.275140723385007 11.27829588583382 0 0.87461971476443456 -0.48480960649040278 0.5 0 0 1 I I -0.70710678118654746 0.70710678118654746 0.5 forward I I I I #
loop $-1 $-1 $203 $52 #
coedge $-1 $126 $126 $204 $205 reversed $80 $-1 #
face $-1 $-1 $206 $42 $-1 $207 forward single #
loop $-1 $208 $209 $82 #
cone-surface $-1 -24.254099402977602 -34.275140723385007 11.27829588583382 0 0.87461971476443456 -0.48480960649040278 0.5 0 0 1 I I -0.70710678118654746 0.70710678118654746 0.5 forward I I I I #
loop $-1 $-1 $210 $53 #
coedge $-1 $131 $131 $211 $212 reversed $83 $-1 #
face $-1 $-1 $213 $43 $-1 $214 forward single #
loop $-1 $215 $216 $85 #
cone-surface $-1 -16.064008441171325 -34.275140723385007 11.27829588583382 0 0.87461971476443456 -0.48480960649040278 0.5 0 0 1 I I -0.70710678118654746 0.70710678118654746 0.5 forward I I I I #
loop $-1 $-1 $217 $54 #
coedge $-1 $136 $136 $218 $219 reversed $86 $-1 #
face $-1 $220 $221 $33 $-1 $222 reversed single #
loop $-1 $-1 $223 $88 #
plane-surface $-1 0 -37.479147110046682 0 0 1 0 0 0 1 forward_v I I I I #
coedge $-1 $224 $225 $226 $227 forward $89 $-1 #
coedge $-1 $228 $91 $229 $230 forward $56 $-1 #
coedge $-1 $91 $228 $231 $232 forward $56 $-1 #
coedge $-1 $233 $234 $91 $144 reversed $235 $-1 #
edge $-1 $236 -37.479147110046682 $237 37.479147110046682 $143 $238 forward 7 unknown #
face $-1 $239 $240 $34 $-1 $241 reversed single #
loop $-1 $-1 $242 $92 #
plane-surface $-1 0 37.479147110046682 0 0 -1 0 0 0 -1 forward_v I I I I #
coedge $-1 $151 $243 $244 $245 reversed $93 $-1 #
coedge $-1 $246 $95 $247 $248 reversed $59 $-1 #
coedge $-1 $95 $246 $249 $250 reversed $59 $-1 #
coedge $-1 $251 $148 $95 $152 reversed $93 $-1 #
edge $-1 $252 -37.479147110046682 $253 37.479147110046682 $151 $254 forward 7 unknown #
face $-1 $255 $256 $35 $-1 $257 reversed single #
loop $-1 $-1 $258 $96 #
plane-surface $-1 0 0 14.853486873106061 0 0 1 1 0 0 forward_v I I I I #
coedge $-1 $259 $260 $261 $262 reversed $97 $-1 #
coedge $-1 $263 $99 $264 $265 reversed $62 $-1 #
coedge $-1 $99 $263 $266 $267 reversed $62 $-1 #
coedge $-1 $268 $269 $99 $160 forward $270 $-1 #
edge $-1 $271 -37.479147110046682 $272 37.479147110046682 $159 $273 forward 7 unknown #
face $-1 $274 $275 $36 $-1 $276 reversed single #
loop $-1 $-1 $277 $100 #
plane-surface $-1 -6.2593248190311499 97.600887536655222 135.05391493530206 -1 0 0 0 0.82903758062907751 0.55919289150049634 forward_v I I I I #
coedge $-1 $278 $279 $280 $281 reversed $101 $-1 #
coedge $-1 $166 $103 $282 $283 reversed $65 $-1 #
coedge $-1 $103 $165 $278 $284 reversed $65 $-1 #
coedge $-1 $280 $285 $103 $168 forward $286 $-1 #
edge $-1 $287 11.321296658280929 $288 18.584563080493993 $167 $289 forward 7 unknown #
loop $-1 $-1 $174 $104 #
plane-surface $-1 -17.181695596720559 -4.4369981768322759 66.228494124552157 0 0.82903758062907751 0.55919289150049634 1 0 0 forward_v I I I I #
loop $-1 $-1 $290 $67 #
coedge $-1 $172 $172 $173 $291 reversed $105 $-1 #
coedge $-1 $173 $173 $172 $291 forward $107 $-1 #
coedge $-1 $174 $174 $108 $175 forward $169 $-1 #
edge $-1 $292 4.9088885882343278e-016 $292 6.2831853071796013 $174 $293 forward 7 unknown #
face $-1 $294 $295 $38 $-1 $296 forward single #
loop $-1 $-1 $297 $109 #
plane-surface $-1 28.104066374409953 97.600887536655222 135.05391493530206 -1 0 0 0 0.82903758062907751 0.55919289150049634 forward_v I I I I #
coedge $-1 $298 $299 $300 $301 reversed $110 $-1 #
coedge $-1 $181 $112 $302 $303 reversed $71 $-1 #
coedge $-1 $112 $180 $298 $304 reversed $71 $-1 #
coedge $-1 $300 $305 $112 $183 forward $295 $-1 #
edge $-1 $306 11.321296658280929 $307 18.584563080493993 $182 $308 forward 7 unknown #
loop $-1 $-1 $189 $113 #
plane-surface $-1 17.181695596720544 -4.4369981768322759 66.228494124552157 0 0.82903758062907751 0.55919289150049634 1 0 0 forward_v I I I I #
loop $-1 $-1 $309 $73 #
coedge $-1 $187 $187 $188 $310 reversed $114 $-1 #
coedge $-1 $188 $188 $187 $310 forward $116 $-1 #
coedge $-1 $189 $189 $117 $190 forward $184 $-1 #
edge $-1 $311 4.9088885882343278e-016 $311 6.2831853071796013 $189 $312 forward 7 unknown #
face $-1 $313 $314 $40 $-1 $315 forward single #
loop $-1 $-1 $316 $118 #
plane-surface $-1 -37.904251005988058 -145.12727860992075 69.329438263812364 1 0 0 0 0.87461971476443456 -0.48480960649040278 forward_v I I I I #
coedge $-1 $317 $318 $319 $320 reversed $119 $-1 #
coedge $-1 $196 $121 $321 $322 reversed $77 $-1 #
coedge $-1 $121 $195 $317 $323 reversed $77 $-1 #
coedge $-1 $319 $324 $121 $198 forward $314 $-1 #
edge $-1 $325 35.084492194913693 $326 37.963783971149354 $197 $327 forward 7 unknown #
loop $-1 $-1 $204 $122 #
plane-surface $-1 -24.254099402977602 -37.479147110046668 9.6591068147466927 0 -0.87461971476443456 0.48480960649040278 1 0 0 forward_v I I I I #
loop $-1 $-1 $328 $79 #
coedge $-1 $202 $202 $203 $329 reversed $123 $-1 #
coedge $-1 $203 $203 $202 $329 forward $125 $-1 #
coedge $-1 $204 $204 $126 $205 forward $199 $-1 #
edge $-1 $330 2.7697674075997137e-015 $330 6.2831853071796031 $204 $331 forward 7 unknown #
loop $-1 $-1 $211 $127 #
plane-surface $-1 -24.254099402977602 -37.479147110046668 9.6591068147466927 0 -0.87461971476443456 0.48480960649040278 1 0 0 forward_v I I I I #
loop $-1 $-1 $332 $82 #
coedge $-1 $209 $209 $210 $333 reversed $128 $-1 #
coedge $-1 $210 $210 $209 $333 forward $130 $-1 #
coedge $-1 $211 $211 $131 $212 forward $206 $-1 #
edge $-1 $334 2.7697674075997137e-015 $334 6.2831853071796031 $211 $335 forward 7 unknown #
loop $-1 $-1 $218 $132 #
plane-surface $-1 -24.254099402977602 -37.479147110046668 9.6591068147466927 0 -0.87461971476443456 0.48480960649040278 1 0 0 forward_v I I I I #
loop $-1 $-1 $336 $85 #
coedge $-1 $216 $216 $217 $337 reversed $133 $-1 #
coedge $-1 $217 $217 $216 $337 forward $135 $-1 #
coedge $-1 $218 $218 $136 $219 forward $213 $-1 #
edge $-1 $338 2.7697674075997137e-015 $338 6.2831853071796031 $218 $339 forward 7 unknown #
face $-1 $340 $341 $33 $-1 $342 reversed single #
loop $-1 $-1 $343 $137 #
plane-surface $-1 -61.539963988158817 0 0 1 0 0 0 0 -1 forward_v I I I I #
coedge $-1 $344 $231 $345 $346 forward $138 $-1 #
coedge $-1 $347 $140 $344 $348 forward $89 $-1 #
coedge $-1 $140 $347 $349 $350 forward $89 $-1 #
coedge $-1 $234 $233 $140 $227 reversed $235 $-1 #
edge $-1 $351 -37.479147110046682 $352 37.479147110046682 $226 $353 forward 7 unknown #
coedge $-1 $142 $141 $354 $355 forward $56 $-1 #
coedge $-1 $356 $357 $141 $230 reversed $341 $-1 #
edge $-1 $237 -61.539963988158817 $358 61.539963988158817 $229 $359 forward 7 unknown #
coedge $-1 $223 $360 $142 $232 reversed $138 $-1 #
edge $-1 $361 -61.539963988158817 $236 61.539963988158817 $231 $362 forward 7 unknown #
coedge $-1 $226 $143 $360 $363 forward $235 $-1 #
coedge $-1 $143 $226 $356 $364 reversed $235 $-1 #
loop $-1 $-1 $233 $340 #
vertex $-1 $144 $365 #
vertex $-1 $144 $366 #
straight-curve $-1 61.539963988158817 0 14.853486873106061 0 1 0 I I #
face $-1 $367 $368 $34 $-1 $369 forward single #
loop $-1 $-1 $370 $145 #
plane-surface $-1 -61.539963988158817 0 0 1 0 0 0 0 -1 forward_v I I I I #
coedge $-1 $249 $371 $251 $372 forward $146 $-1 #
coedge $-1 $148 $251 $373 $374 reversed $93 $-1 #
coedge $-1 $375 $247 $148 $245 forward $376 $-1 #
edge $-1 $253 2.495881711752018 $377 9.070364011486701 $244 $378 forward 7 unknown #
coedge $-1 $150 $149 $370 $379 reversed $59 $-1 #
coedge $-1 $244 $380 $149 $248 forward $376 $-1 #
edge $-1 $381 -33.619392740453662 $253 -22.221749754956658 $247 $382 forward 7 unknown #
coedge $-1 $383 $242 $150 $250 forward $146 $-1 #
edge $-1 $252 22.221749754956658 $384 33.619392740453662 $249 $385 forward 7 unknown #
coedge $-1 $243 $151 $242 $372 reversed $93 $-1 #
vertex $-1 $250 $386 #
vertex $-1 $248 $387 #
straight-curve $-1 -50.142321002661816 0 8.2790045733713775 0 -1 0 I I #
face $-1 $388 $389 $35 $-1 $390 reversed single #
loop $-1 $-1 $391 $153 #
plane-surface $-1 0 -37.479147110046682 0 0 1 0 0 0 1 forward_v I I I I #
coedge $-1 $392 $393 $260 $394 forward $154 $-1 #
coedge $-1 $395 $156 $263 $396 reversed $97 $-1 #
coedge $-1 $156 $395 $258 $394 reversed $97 $-1 #
coedge $-1 $397 $266 $156 $262 forward $389 $-1 #
edge $-1 $398 2.495881711752018 $399 9.070364011486701 $261 $400 forward 7 unknown #
coedge $-1 $158 $157 $259 $396 forward $62 $-1 #
coedge $-1 $401 $391 $157 $265 forward $256 $-1 #
edge $-1 $402 22.221749754956662 $271 33.619392740453662 $264 $403 forward 7 unknown #
coedge $-1 $261 $404 $158 $267 forward $389 $-1 #
edge $-1 $272 -33.619392740453662 $398 -22.221749754956662 $266 $405 forward 7 unknown #
coedge $-1 $406 $159 $404 $407 reversed $270 $-1 #
coedge $-1 $159 $406 $401 $408 forward $270 $-1 #
loop $-1 $-1 $159 $388 #
vertex $-1 $265 $409 #
vertex $-1 $160 $410 #
straight-curve $-1 61.539963988158817 0 8.2790045733713775 0 1 0 I I #
face $-1 $-1 $286 $36 $-1 $411 forward single #
loop $-1 $-1 $412 $161 #
plane-surface $-1 0 37.479147110046682 0 0 -1 0 0 0 -1 forward_v I I I I #
coedge $-1 $413 $414 $415 $416 reversed $162 $-1 #
coedge $-1 $417 $164 $166 $284 forward $101 $-1 #
coedge $-1 $164 $417 $413 $418 forward $101 $-1 #
coedge $-1 $415 $167 $164 $281 forward $286 $-1 #
edge $-1 $288 -19.513218576049688 $419 2.3315229793291294 $280 $420 forward 7 unknown #
coedge $-1 $421 $422 $165 $283 forward $275 $-1 #
edge $-1 $423 -63.44170623140765 $287 -52.673470594544966 $282 $424 forward 7 unknown #
edge $-1 $288 61.96945524768914 $423 74.958294220093379 $166 $425 forward 7 unknown #
coedge $-1 $167 $415 $421 $426 forward $286 $-1 #
loop $-1 $-1 $415 $274 #
vertex $-1 $283 $427 #
vertex $-1 $168 $428 #
straight-curve $-1 -28.104066374409967 48.800443768327611 14.853486873106064 0 -1 0 I I #
coedge $-1 $290 $290 $-1 $429 reversed $171 $-1 #
edge $-1 $430 0 $430 6.2831853071796004 $172 $431 forward 7 unknown #
vertex $-1 $175 $432 #
ellipse-curve $-1 -17.181695596720559 33.84751389894015 9.4693690546747149 0 0.82903758062907751 0.55919289150049634 3 0 0 1 I I #
face $-1 $-1 $433 $38 $-1 $434 reversed single #
loop $-1 $-1 $182 $176 #
plane-surface $-1 0 0 14.853486873106061 0 0 1 1 0 0 forward_v I I I I #
coedge $-1 $435 $436 $437 $438 reversed $177 $-1 #
coedge $-1 $439 $179 $181 $304 forward $110 $-1 #
coedge $-1 $179 $439 $435 $440 forward $110 $-1 #
coedge $-1 $437 $182 $179 $301 forward $295 $-1 #
edge $-1 $307 -2.3315229793291365 $441 19.513218576049681 $300 $442 forward 7 unknown #
coedge $-1 $443 $444 $180 $303 forward $433 $-1 #
edge $-1 $445 -63.44170623140765 $306 -52.673470594544966 $302 $446 forward 7 unknown #
edge $-1 $307 61.96945524768914 $445 74.958294220093379 $181 $447 forward 7 unknown #
coedge $-1 $182 $437 $443 $448 forward $295 $-1 #
vertex $-1 $183 $449 #
vertex $-1 $183 $450 #
straight-curve $-1 6.2593248190311357 48.800443768327611 14.853486873106064 0 -1 0 I I #
coedge $-1 $309 $309 $-1 $451 reversed $186 $-1 #
edge $-1 $452 0 $452 6.2831853071796004 $187 $453 forward 7 unknown #
vertex $-1 $190 $454 #
ellipse-curve $-1 17.181695596720544 33.84751389894015 9.4693690546747149 0 0.82903758062907751 0.55919289150049634 3 0 0 1 I I #
face $-1 $-1 $455 $40 $-1 $456 reversed single #
loop $-1 $-1 $197 $191 #
plane-surface $-1 0 0 14.853486873106061 0 0 1 1 0 0 forward_v I I I I #
coedge $-1 $457 $458 $459 $460 reversed $192 $-1 #
coedge $-1 $461 $194 $196 $323 forward $119 $-1 #
coedge $-1 $194 $461 $457 $462 forward $119 $-1 #
coedge $-1 $459 $197 $194 $320 forward $314 $-1 #
edge $-1 $326 -1.523101901521656 $463 25.777201304499258 $319 $464 forward 7 unknown #
coedge $-1 $465 $466 $195 $322 forward $455 $-1 #
edge $-1 $467 -25.005612317159514 $325 -19.811232258800121 $321 $468 forward 7 unknown #
edge $-1 $326 -5.9390155180281941 $467 2.8640472853114764e-014 $196 $469 forward 7 unknown #
coedge $-1 $197 $459 $465 $470 forward $314 $-1 #
vertex $-1 $322 $471 #
vertex $-1 $198 $472 #
straight-curve $-1 -10.603947799967145 -72.563639304960375 14.853486873106061 0 1 0 I I #
coedge $-1 $328 $328 $-1 $473 reversed $201 $-1 #
edge $-1 $474 0 $474 6.2831853071796004 $202 $475 forward 7 unknown #
vertex $-1 $205 $476 #
ellipse-curve $-1 -32.444190364783879 -36.039501221928852 12.256296843926371 0 -0.87461971476443456 0.48480960649040278 1 0 0 1 I I #
coedge $-1 $332 $332 $-1 $477 reversed $208 $-1 #
edge $-1 $478 0 $478 6.2831853071796004 $209 $479 forward 7 unknown #
vertex $-1 $212 $480 #
ellipse-curve $-1 -24.254099402977602 -36.039501221928852 12.256296843926371 0 -0.87461971476443456 0.48480960649040278 1 0 0 1 I I #
coedge $-1 $336 $336 $-1 $481 reversed $215 $-1 #
edge $-1 $482 0 $482 6.2831853071796004 $216 $483 forward 7 unknown #
vertex $-1 $219 $484 #
ellipse-curve $-1 -16.064008441171325 -36.039501221928852 12.256296843926371 0 -0.87461971476443456 0.48480960649040278 1 0 0 1 I I #
face $-1 $-1 $235 $33 $-1 $485 reversed single #
loop $-1 $-1 $356 $220 #
plane-surface $-1 0 37.479147110046682 0 0 -1 0 0 0 -1 forward_v I I I I #
coedge $-1 $486 $354 $357 $487 forward $221 $-1 #
coedge $-1 $360 $223 $224 $348 reversed $138 $-1 #
coedge $-1 $354 $486 $223 $346 reversed $221 $-1 #
edge $-1 $361 -14.853486873106061 $488 14.853486873106061 $345 $489 forward 7 unknown #
coedge $-1 $225 $224 $486 $490 forward $89 $-1 #
edge $-1 $352 -61.539963988158817 $488 61.539963988158817 $344 $491 forward 7 unknown #
coedge $-1 $357 $356 $225 $350 reversed $341 $-1 #
edge $-1 $492 -61.539963988158817 $351 61.539963988158817 $349 $493 forward 7 unknown #
vertex $-1 $227 $494 #
vertex $-1 $363 $495 #
straight-curve $-1 61.539963988158817 0 -14.853486873106061 0 -1 0 I I #
coedge $-1 $343 $345 $228 $355 reversed $221 $-1 #
edge $-1 $358 -37.479147110046682 $361 37.479147110046682 $354 $496 forward 7 unknown #
coedge $-1 $349 $229 $234 $364 forward $341 $-1 #
coedge $-1 $229 $349 $343 $487 reversed $341 $-1 #
vertex $-1 $230 $497 #
straight-curve $-1 0 37.479147110046682 14.853486873106061 -1 0 0 I I #
coedge $-1 $231 $344 $233 $363 reversed $138 $-1 #
vertex $-1 $355 $498 #
straight-curve $-1 0 -37.479147110046682 14.853486873106061 1 0 0 I I #
edge $-1 $236 -14.853486873106061 $352 14.853486873106061 $233 $499 forward 7 unknown #
edge $-1 $237 -14.853486873106061 $351 14.853486873106061 $234 $500 forward 7 unknown #
point $-1 61.539963988158817 -37.479147110046682 14.853486873106061 #
point $-1 61.539963988158817 37.479147110046682 14.853486873106061 #
face $-1 $-1 $376 $34 $-1 $501 reversed single #
loop $-1 $-1 $373 $239 #
plane-surface $-1 0 0 14.853486873106061 0 0 1 1 0 0 forward_v I I I I #
coedge $-1 $502 $503 $246 $379 forward $240 $-1 #
coedge $-1 $242 $383 $504 $505 reversed $146 $-1 #
edge $-1 $506 -9.070364011486701 $252 -2.495881711752018 $242 $507 forward 7 unknown #
coedge $-1 $504 $508 $243 $374 forward $368 $-1 #
edge $-1 $377 -37.479147110046682 $506 37.479147110046682 $373 $509 forward 7 unknown #
coedge $-1 $380 $244 $508 $510 reversed $376 $-1 #
loop $-1 $-1 $244 $367 #
vertex $-1 $245 $511 #
straight-curve $-1 -50.142321002661816 -37.479147110046682 5.7831228616193595 0 0 1 I I #
edge $-1 $384 -37.479147110046682 $381 37.479147110046682 $370 $512 forward 7 unknown #
coedge $-1 $247 $375 $502 $513 forward $376 $-1 #
vertex $-1 $379 $514 #
straight-curve $-1 -27.920571247705158 -37.479147110046682 8.2790045733713775 1 0 0 I I #
coedge $-1 $371 $249 $503 $515 reversed $146 $-1 #
vertex $-1 $379 $516 #
straight-curve $-1 -27.920571247705158 37.479147110046682 8.2790045733713775 -1 0 0 I I #
point $-1 -50.142321002661816 37.479147110046682 8.2790045733713775 #
point $-1 -50.142321002661816 -37.479147110046682 8.2790045733713775 #
face $-1 $-1 $270 $35 $-1 $517 reversed single #
loop $-1 $-1 $261 $255 #
plane-surface $-1 0 37.479147110046682 0 0 -1 0 0 0 -1 forward_v I I I I #
coedge $-1 $264 $518 $395 $519 forward $256 $-1 #
coedge $-1 $520 $258 $518 $521 forward $154 $-1 #
coedge $-1 $258 $520 $397 $522 forward $154 $-1 #
edge $-1 $399 -37.479147110046682 $523 37.479147110046682 $258 $524 forward 7 unknown #
coedge $-1 $260 $259 $391 $519 reversed $97 $-1 #
edge $-1 $402 -37.479147110046682 $398 37.479147110046682 $259 $525 forward 7 unknown #
coedge $-1 $404 $261 $393 $522 reversed $389 $-1 #
vertex $-1 $267 $526 #
vertex $-1 $262 $527 #
straight-curve $-1 50.142321002661824 37.479147110046682 5.7831228616193595 0 0 1 I I #
coedge $-1 $518 $264 $269 $408 reversed $256 $-1 #
vertex $-1 $265 $528 #
straight-curve $-1 27.920571247705162 -37.479147110046682 8.2790045733713775 1 0 0 I I #
coedge $-1 $266 $397 $268 $407 forward $389 $-1 #
straight-curve $-1 27.920571247705162 37.479147110046682 8.2790045733713775 -1 0 0 I I #
coedge $-1 $269 $268 $520 $529 reversed $270 $-1 #
edge $-1 $530 -14.853486873106061 $272 -8.2790045733713775 $268 $531 forward 7 unknown #
edge $-1 $532 -14.853486873106061 $271 -8.2790045733713775 $269 $533 forward 7 unknown #
point $-1 61.539963988158824 -37.479147110046682 8.2790045733713775 #
point $-1 61.539963988158824 37.479147110046682 8.2790045733713775 #
plane-surface $-1 0 0 14.853486873106061 0 0 1 1 0 0 forward_v I I I I #
coedge $-1 $422 $421 $414 $534 forward $275 $-1 #
coedge $-1 $414 $277 $279 $418 reversed $162 $-1 #
coedge $-1 $277 $413 $412 $534 reversed $162 $-1 #
coedge $-1 $285 $280 $277 $416 forward $286 $-1 #
edge $-1 $419 -18.584563080493993 $535 -11.321296658280929 $415 $536 forward 7 unknown #
coedge $-1 $279 $278 $422 $537 reversed $101 $-1 #
edge $-1 $538 -74.958294220093379 $419 -61.96945524768914 $413 $539 forward 7 unknown #
vertex $-1 $281 $540 #
straight-curve $-1 -8.5908477983602793 30.215880687833625 14.853486873106057 1 0 0 I I #
coedge $-1 $412 $282 $285 $426 reversed $275 $-1 #
coedge $-1 $282 $412 $417 $537 forward $275 $-1 #
vertex $-1 $283 $541 #
straight-curve $-1 -28.104066374409967 37.479147110046682 67.52695746765103 0 0 1 I I #
straight-curve $-1 -28.104066374409967 -4.4369981768322759 66.228494124552157 0 0.55919289150049634 -0.82903758062907751 I I #
edge $-1 $535 6.2593248190311499 $287 28.104066374409967 $421 $542 forward 7 unknown #
point $-1 -28.104066374409967 37.479147110046682 14.853486873106061 #
point $-1 -28.104066374409967 30.215880687833618 14.853486873106064 #
edge $-1 $543 1 $543 0 $290 $-1 forward 7 unknown #
vertex $-1 $291 $544 #
ellipse-curve $-1 -17.181695596720559 27.168963041883543 4.9646297617264104 0 0.82903758062907751 0.55919289150049634 3 0 0 1 I I #
point $-1 -14.181695596720559 33.84751389894015 9.4693690546747131 #
loop $-1 $-1 $302 $294 #
plane-surface $-1 0 37.479147110046682 0 0 -1 0 0 0 -1 forward_v I I I I #
coedge $-1 $436 $297 $299 $440 reversed $177 $-1 #
coedge $-1 $297 $435 $545 $546 reversed $177 $-1 #
coedge $-1 $305 $300 $297 $438 forward $295 $-1 #
edge $-1 $441 -18.584563080493993 $547 -11.321296658280929 $437 $548 forward 7 unknown #
coedge $-1 $299 $298 $444 $549 reversed $110 $-1 #
edge $-1 $550 -74.958294220093379 $441 -61.96945524768914 $435 $551 forward 7 unknown #
vertex $-1 $301 $552 #
straight-curve $-1 8.5908477983602722 30.215880687833625 14.853486873106057 1 0 0 I I #
coedge $-1 $545 $302 $305 $448 reversed $433 $-1 #
coedge $-1 $302 $545 $439 $549 forward $433 $-1 #
vertex $-1 $303 $553 #
straight-curve $-1 6.2593248190311357 37.479147110046682 67.52695746765103 0 0 1 I I #
straight-curve $-1 6.2593248190311357 -4.4369981768322759 66.228494124552157 0 0.55919289150049634 -0.82903758062907751 I I #
edge $-1 $547 -28.104066374409953 $306 -6.2593248190311357 $443 $554 forward 7 unknown #
point $-1 6.2593248190311357 37.479147110046682 14.853486873106061 #
point $-1 6.2593248190311357 30.215880687833618 14.853486873106064 #
edge $-1 $555 1 $555 0 $309 $-1 forward 7 unknown #
vertex $-1 $310 $556 #
ellipse-curve $-1 17.181695596720544 27.168963041883543 4.9646297617264104 0 0.82903758062907751 0.55919289150049634 3 0 0 1 I I #
point $-1 20.181695596720544 33.84751389894015 9.4693690546747131 #
loop $-1 $-1 $321 $313 #
plane-surface $-1 0 -37.479147110046682 0 0 1 0 0 0 1 forward_v I I I I #
coedge $-1 $458 $316 $318 $462 reversed $192 $-1 #
coedge $-1 $316 $457 $557 $558 reversed $192 $-1 #
coedge $-1 $324 $319 $316 $460 forward $314 $-1 #
edge $-1 $463 -37.963783971149354 $559 -35.084492194913693 $459 $560 forward 7 unknown #
coedge $-1 $318 $317 $466 $561 reversed $119 $-1 #
edge $-1 $562 -2.8640472853114764e-014 $463 5.9390155180281941 $457 $563 forward 7 unknown #
vertex $-1 $320 $564 #
straight-curve $-1 -12.127049701488801 -34.599855333811021 14.853486873106061 -1 0 0 I I #
coedge $-1 $557 $321 $324 $470 reversed $455 $-1 #
coedge $-1 $321 $557 $461 $561 forward $455 $-1 #
vertex $-1 $322 $565 #
straight-curve $-1 -10.603947799967145 -37.479147110046682 34.664719131906182 0 0 1 I I #
straight-curve $-1 -10.603947799967145 -37.479147110046668 9.6591068147466927 0 -0.48480960649040278 -0.87461971476443456 I I #
edge $-1 $559 -37.904251005988058 $325 -10.603947799967145 $465 $566 forward 7 unknown #
point $-1 -10.603947799967145 -37.479147110046682 14.853486873106061 #
point $-1 -10.603947799967145 -34.599855333811021 14.853486873106061 #
edge $-1 $567 1 $567 0 $328 $-1 forward 7 unknown #
vertex $-1 $329 $568 #
ellipse-curve $-1 -32.444190364783879 -34.712450580767225 11.520700689079021 0 -0.87461971476443456 0.48480960649040278 1 0 0 1 I I #
point $-1 -31.444190364783879 -36.039501221928859 12.256296843926378 #
edge $-1 $569 1 $569 0 $332 $-1 forward 7 unknown #
vertex $-1 $333 $570 #
ellipse-curve $-1 -24.254099402977602 -34.712450580767225 11.520700689079021 0 -0.87461971476443456 0.48480960649040278 1 0 0 1 I I #
point $-1 -23.254099402977602 -36.039501221928859 12.256296843926378 #
edge $-1 $571 1 $571 0 $336 $-1 forward 7 unknown #
vertex $-1 $337 $572 #
ellipse-curve $-1 -16.064008441171325 -34.712450580767225 11.520700689079021 0 -0.87461971476443456 0.48480960649040278 1 0 0 1 I I #
point $-1 -15.064008441171325 -36.039501221928859 12.256296843926378 #
plane-surface $-1 61.539963988158817 0 0 -1 0 0 0 0 1 forward_v I I I I #
coedge $-1 $345 $343 $347 $490 reversed $221 $-1 #
edge $-1 $358 -14.853486873106061 $492 14.853486873106061 $357 $573 forward 7 unknown #
vertex $-1 $490 $574 #
straight-curve $-1 -61.539963988158817 -37.479147110046682 0 0 0 -1 I I #
edge $-1 $488 -37.479147110046682 $492 37.479147110046682 $486 $575 forward 7 unknown #
straight-curve $-1 0 -37.479147110046682 -14.853486873106061 -1 0 0 I I #
vertex $-1 $350 $576 #
straight-curve $-1 0 37.479147110046682 -14.853486873106061 1 0 0 I I #
point $-1 61.539963988158817 37.479147110046682 -14.853486873106061 #
point $-1 61.539963988158817 -37.479147110046682 -14.853486873106061 #
straight-curve $-1 -61.539963988158817 0 14.853486873106061 0 -1 0 I I #
point $-1 -61.539963988158817 37.479147110046682 14.853486873106061 #
point $-1 -61.539963988158817 -37.479147110046682 14.853486873106061 #
straight-curve $-1 61.539963988158817 -37.479147110046682 0 0 0 -1 I I #
straight-curve $-1 61.539963988158817 37.479147110046682 0 0 0 -1 I I #
plane-surface $-1 0 -37.479147110046682 0 0 1 0 0 0 1 forward_v I I I I #
coedge $-1 $577 $370 $380 $513 reversed $240 $-1 #
coedge $-1 $370 $577 $383 $515 forward $240 $-1 #
coedge $-1 $578 $373 $371 $505 forward $368 $-1 #
edge $-1 $506 50.142321002661816 $579 61.539963988158817 $371 $580 forward 7 unknown #
vertex $-1 $505 $581 #
straight-curve $-1 -50.142321002661816 37.479147110046682 5.7831228616193595 0 0 -1 I I #
coedge $-1 $373 $578 $375 $510 forward $368 $-1 #
straight-curve $-1 -50.142321002661816 0 14.853486873106061 0 1 0 I I #
edge $-1 $582 -61.539963988158817 $377 -50.142321002661816 $375 $583 forward 7 unknown #
point $-1 -50.142321002661816 -37.479147110046682 14.853486873106061 #
straight-curve $-1 -61.539963988158817 0 8.2790045733713775 0 -1 0 I I #
edge $-1 $582 -14.853486873106061 $381 -8.2790045733713775 $502 $584 forward 7 unknown #
point $-1 -61.539963988158817 -37.479147110046682 8.2790045733713775 #
edge $-1 $579 -14.853486873106061 $384 -8.2790045733713775 $383 $585 forward 7 unknown #
point $-1 -61.539963988158817 37.479147110046682 8.2790045733713775 #
plane-surface $-1 61.539963988158817 0 0 -1 0 0 0 0 1 forward_v I I I I #
coedge $-1 $391 $401 $392 $521 reversed $256 $-1 #
edge $-1 $523 -9.070364011486701 $402 -2.495881711752018 $391 $586 forward 7 unknown #
coedge $-1 $393 $392 $406 $529 forward $154 $-1 #
edge $-1 $523 50.142321002661824 $532 61.539963988158817 $518 $587 forward 7 unknown #
edge $-1 $530 -61.539963988158817 $399 -50.142321002661824 $397 $588 forward 7 unknown #
vertex $-1 $521 $589 #
straight-curve $-1 50.142321002661824 0 14.853486873106061 0 -1 0 I I #
straight-curve $-1 50.142321002661824 0 8.2790045733713775 0 1 0 I I #
point $-1 50.142321002661824 37.479147110046682 8.2790045733713775 #
point $-1 50.142321002661824 37.479147110046682 14.853486873106061 #
point $-1 50.142321002661824 -37.479147110046682 8.2790045733713775 #
edge $-1 $532 -37.479147110046682 $530 37.479147110046682 $406 $590 forward 7 unknown #
vertex $-1 $529 $591 #
straight-curve $-1 61.539963988158817 37.479147110046682 0 0 0 -1 I I #
vertex $-1 $529 $592 #
straight-curve $-1 61.539963988158817 -37.479147110046682 0 0 0 -1 I I #
edge $-1 $535 52.673470594544966 $538 63.44170623140765 $412 $593 forward 7 unknown #
vertex $-1 $426 $594 #
straight-curve $-1 -6.2593248190311499 48.800443768327611 14.853486873106064 0 1 0 I I #
edge $-1 $538 -2.3315229793291294 $423 19.513218576049688 $422 $595 forward 7 unknown #
vertex $-1 $537 $596 #
straight-curve $-1 -6.2593248190311499 -4.4369981768322759 66.228494124552157 0 -0.55919289150049634 0.82903758062907751 I I #
point $-1 -6.2593248190311499 30.215880687833618 14.853486873106064 #
point $-1 -28.104066374409967 37.479147110046682 4.0852512362433799 #
straight-curve $-1 0 37.479147110046682 14.853486873106061 -1 0 0 I I #
vertex $-1 $429 $597 #
point $-1 -14.181695596720559 27.168963041883543 4.9646297617264104 #
coedge $-1 $444 $443 $436 $546 forward $433 $-1 #
edge $-1 $547 52.673470594544966 $550 63.44170623140765 $545 $598 forward 7 unknown #
vertex $-1 $448 $599 #
straight-curve $-1 28.104066374409953 48.800443768327611 14.853486873106064 0 1 0 I I #
edge $-1 $550 -19.513218576049681 $445 2.3315229793291365 $444 $600 forward 7 unknown #
vertex $-1 $549 $601 #
straight-curve $-1 28.104066374409953 -4.4369981768322759 66.228494124552157 0 -0.55919289150049634 0.82903758062907751 I I #
point $-1 28.104066374409953 30.215880687833618 14.853486873106064 #
point $-1 6.2593248190311357 37.479147110046682 4.0852512362433799 #
straight-curve $-1 0 37.479147110046682 14.853486873106061 -1 0 0 I I #
vertex $-1 $451 $602 #
point $-1 20.181695596720544 27.168963041883543 4.9646297617264104 #
coedge $-1 $466 $465 $458 $558 forward $455 $-1 #
edge $-1 $559 19.811232258800121 $562 25.005612317159514 $557 $603 forward 7 unknown #
vertex $-1 $470 $604 #
straight-curve $-1 -37.904251005988058 -72.563639304960375 14.853486873106061 0 -1 0 I I #
edge $-1 $562 -25.777201304499258 $467 1.523101901521656 $466 $605 forward 7 unknown #
vertex $-1 $561 $606 #
straight-curve $-1 -37.904251005988058 -37.479147110046668 9.6591068147466927 0 0.48480960649040278 0.87461971476443456 I I #
point $-1 -37.904251005988058 -34.599855333811021 14.853486873106061 #
point $-1 -10.603947799967145 -37.479147110046682 9.6591068147466679 #
straight-curve $-1 0 -37.479147110046682 14.853486873106061 1 0 0 I I #
vertex $-1 $473 $607 #
point $-1 -31.444190364783879 -34.712450580767225 11.520700689079021 #
vertex $-1 $477 $608 #
point $-1 -23.254099402977602 -34.712450580767225 11.520700689079021 #
vertex $-1 $481 $609 #
point $-1 -15.064008441171325 -34.712450580767225 11.520700689079021 #
straight-curve $-1 -61.539963988158817 37.479147110046682 0 0 0 -1 I I #
point $-1 -61.539963988158817 -37.479147110046682 -14.853486873106061 #
straight-curve $-1 -61.539963988158817 0 -14.853486873106061 0 1 0 I I #
point $-1 -61.539963988158817 37.479147110046682 -14.853486873106061 #
coedge $-1 $503 $502 $578 $610 reversed $240 $-1 #
coedge $-1 $508 $504 $577 $610 forward $368 $-1 #
vertex $-1 $505 $611 #
straight-curve $-1 0 37.479147110046682 14.853486873106061 -1 0 0 I I #
point $-1 -50.142321002661816 37.479147110046682 14.853486873106061 #
vertex $-1 $610 $612 #
straight-curve $-1 0 -37.479147110046682 14.853486873106061 1 0 0 I I #
straight-curve $-1 -61.539963988158817 -37.479147110046682 0 0 0 -1 I I #
straight-curve $-1 -61.539963988158817 37.479147110046682 0 0 0 -1 I I #
straight-curve $-1 50.142321002661824 -37.479147110046682 5.7831228616193595 0 0 -1 I I #
straight-curve $-1 0 -37.479147110046682 14.853486873106061 1 0 0 I I #
straight-curve $-1 0 37.479147110046682 14.853486873106061 -1 0 0 I I #
point $-1 50.142321002661824 -37.479147110046682 14.853486873106061 #
straight-curve $-1 61.539963988158817 0 14.853486873106061 0 1 0 I I #
point $-1 61.539963988158817 37.479147110046682 14.853486873106061 #
point $-1 61.539963988158817 -37.479147110046682 14.853486873106061 #
straight-curve $-1 -6.2593248190311499 37.479147110046682 67.52695746765103 0 0 -1 I I #
point $-1 -6.2593248190311499 37.479147110046682 14.853486873106061 #
straight-curve $-1 -8.5908477983602793 37.479147110046682 4.0852512362433764 -1 0 0 I I #
point $-1 -6.2593248190311499 37.479147110046682 4.0852512362433799 #
point $-1 -17.181695596720559 24.681850299996313 3.287051087224921 #
straight-curve $-1 28.104066374409953 37.479147110046682 67.52695746765103 0 0 -1 I I #
point $-1 28.104066374409953 37.479147110046682 14.853486873106061 #
straight-curve $-1 8.5908477983602722 37.479147110046682 4.0852512362433764 -1 0 0 I I #
point $-1 28.104066374409953 37.479147110046682 4.0852512362433799 #
point $-1 17.181695596720544 24.681850299996313 3.287051087224921 #
straight-curve $-1 -37.904251005988058 -37.479147110046682 34.664719131906182 0 0 -1 I I #
point $-1 -37.904251005988058 -37.479147110046682 14.853486873106061 #
straight-curve $-1 -12.127049701488801 -37.479147110046682 9.6591068147466679 1 0 0 I I #
point $-1 -37.904251005988058 -37.479147110046682 9.6591068147466679 #
point $-1 -32.444190364783879 -33.83783086600279 11.03589108258862 #
point $-1 -24.254099402977602 -33.83783086600279 11.03589108258862 #
point $-1 -16.064008441171325 -33.83783086600279 11.03589108258862 #
edge $-1 $579 -37.479147110046682 $582 37.479147110046682 $577 $613 forward 7 unknown #
point $-1 -61.539963988158817 37.479147110046682 14.853486873106061 #
point $-1 -61.539963988158817 -37.479147110046682 14.853486873106061 #
straight-curve $-1 -61.539963988158817 0 14.853486873106061 0 -1 0 I I #
End-of-ACIS-data 