500 0 5 0           
7 Unknown 11 ACIS 5.0 NT 24 Fri Mar 26 19:53:41 1999 
-1 9.9999999999999995e-007 1e-010 
body $-1 $5 $-1 $6 #
body $-1 $7 $-1 $8 #
body $-1 $9 $-1 $10 #
body $-1 $11 $-1 $12 #
body $-1 $13 $-1 $14 #
lump $-1 $-1 $15 $0 #
transform $-1 1 0 0 0 1 0 0 0 1 41.630909146397293 21.558196645618576 10.610340809469612 1 rotate no_reflect no_shear #
lump $-1 $-1 $16 $1 #
transform $-1 1 0 0 0 1 0 0 0 1 41.630909146397293 21.558196645618576 10.610340809469612 1 rotate no_reflect no_shear #
lump $-1 $-1 $17 $2 #
transform $-1 1 0 0 0 1 0 0 0 1 41.630909146397293 21.558196645618576 10.610340809469612 1 rotate no_reflect no_shear #
lump $-1 $-1 $18 $3 #
transform $-1 1 0 0 0 1 0 0 0 1 41.630909146397293 21.558196645618576 10.610340809469612 1 rotate no_reflect no_shear #
lump $-1 $-1 $19 $4 #
transform $-1 1 0 0 0 1 0 0 0 1 41.630909146397293 21.558196645618576 10.610340809469612 1 rotate no_reflect no_shear #
shell $-1 $-1 $-1 $20 $-1 $5 #
shell $-1 $-1 $-1 $21 $-1 $7 #
shell $-1 $-1 $-1 $22 $-1 $9 #
shell $-1 $-1 $-1 $23 $-1 $11 #
shell $-1 $-1 $-1 $24 $-1 $13 #
face $-1 $25 $26 $15 $-1 $27 forward single #
face $-1 $28 $29 $16 $-1 $30 reversed single #
face $-1 $31 $32 $17 $-1 $33 forward single #
face $-1 $34 $35 $18 $-1 $36 reversed single #
face $-1 $37 $38 $19 $-1 $39 forward single #
face $-1 $40 $41 $15 $-1 $42 reversed single #
loop $-1 $-1 $43 $20 #
plane-surface $-1 0 0 10.610340809469612 0 0 1 1 0 0 forward_v I I I I #
face $-1 $44 $45 $16 $-1 $46 reversed single #
loop $-1 $-1 $47 $21 #
plane-surface $-1 0 -16.085042400381784 7.270740330195224 0 0 1 1 0 0 forward_v I I I I #
face $-1 $48 $49 $17 $-1 $50 forward single #
loop $-1 $-1 $51 $22 #
plane-surface $-1 0 21.558196645618576 0 0 -1 0 0 0 -1 forward_v I I I I #
face $-1 $52 $53 $18 $-1 $54 reversed single #
loop $-1 $-1 $55 $23 #
plane-surface $-1 29.322684541683863 -4.7911407166296867 117.23106114927077 0 -1 0 -0.62932039886446345 0 -0.77714595512881146 forward_v I I I I #
face $-1 $56 $57 $19 $-1 $58 forward single #
loop $-1 $59 $60 $24 #
cone-surface $-1 34.392553661568407 -7.70151443588734 4.4236732061444171 -0.62932039886446345 0 -0.77714595512881146 0.77714595512881146 0 -0.62932039886446345 1 I I 0 1 1 forward I I I I #
face $-1 $61 $62 $15 $-1 $63 reversed single #
loop $-1 $-1 $64 $25 #
plane-surface $-1 0 0 -10.610340809469612 0 0 1 1 0 0 forward_v I I I I #
coedge $-1 $65 $66 $67 $68 forward $26 $-1 #
face $-1 $69 $70 $16 $-1 $71 reversed single #
loop $-1 $-1 $72 $28 #
plane-surface $-1 0 -10.611888155144992 8.9405405698324181 0 -1 0 0 0 -1 forward_v I I I I #
coedge $-1 $73 $74 $75 $76 reversed $29 $-1 #
face $-1 $77 $78 $17 $-1 $79 reversed single #
loop $-1 $-1 $80 $31 #
plane-surface $-1 0 0 10.610340809469612 0 0 1 1 0 0 forward_v I I I I #
coedge $-1 $81 $82 $83 $84 forward $32 $-1 #
face $-1 $85 $86 $18 $-1 $87 forward single #
loop $-1 $-1 $88 $34 #
plane-surface $-1 -23.075676156518107 -7.70151443588734 52.524475846355372 0.62932039886446345 0 0.77714595512881146 0.77714595512881146 0 -0.62932039886446345 forward_v I I I I #
coedge $-1 $89 $90 $91 $92 reversed $35 $-1 #
face $-1 $-1 $93 $19 $-1 $94 forward single #
loop $-1 $95 $96 $37 #
cone-surface $-1 33.313008073025891 -7.70151443588734 3.090545455912924 -0.62932039886446345 0 -0.77714595512881146 0.38857297756440573 0 -0.31466019943223172 1 I I -0.70710678118654746 0.70710678118654746 0.5 forward I I I I #
loop $-1 $-1 $97 $24 #
coedge $-1 $60 $60 $98 $99 reversed $38 $-1 #
face $-1 $100 $101 $15 $-1 $102 reversed single #
loop $-1 $-1 $103 $40 #
plane-surface $-1 0 -21.558196645618576 0 0 1 0 0 0 1 forward_v I I I I #
coedge $-1 $104 $105 $106 $107 forward $41 $-1 #
coedge $-1 $108 $43 $109 $110 forward $26 $-1 #
coedge $-1 $43 $108 $111 $112 forward $26 $-1 #
coedge $-1 $113 $114 $43 $68 reversed $115 $-1 #
edge $-1 $116 -21.558196645618576 $117 21.558196645618576 $67 $118 forward 7 unknown #
face $-1 $119 $120 $16 $-1 $121 reversed single #
loop $-1 $-1 $122 $44 #
plane-surface $-1 -41.630909146397293 0 0 1 0 0 0 0 -1 forward_v I I I I #
coedge $-1 $123 $124 $74 $125 reversed $45 $-1 #
coedge $-1 $126 $47 $127 $128 reversed $29 $-1 #
coedge $-1 $47 $126 $72 $125 forward $29 $-1 #
coedge $-1 $129 $130 $47 $76 forward $131 $-1 #
edge $-1 $132 -13.515675445427684 $133 -2.5693669549541003 $75 $134 forward 7 unknown #
face $-1 $135 $136 $17 $-1 $137 reversed single #
loop $-1 $-1 $138 $48 #
plane-surface $-1 41.630909146397293 0 0 -1 0 0 0 0 1 forward_v I I I I #
coedge $-1 $139 $140 $141 $142 forward $49 $-1 #
coedge $-1 $141 $51 $138 $143 reversed $32 $-1 #
coedge $-1 $51 $141 $144 $145 reversed $32 $-1 #
coedge $-1 $146 $147 $51 $84 reversed $136 $-1 #
edge $-1 $148 -41.630909146397293 $149 41.630909146397293 $83 $150 forward 7 unknown #
face $-1 $151 $152 $18 $-1 $153 forward single #
loop $-1 $-1 $91 $52 #
plane-surface $-1 0 0 10.610340809469612 0 0 1 1 0 0 forward_v I I I I #
coedge $-1 $154 $155 $156 $157 reversed $53 $-1 #
coedge $-1 $90 $55 $158 $159 reversed $35 $-1 #
coedge $-1 $55 $89 $154 $160 reversed $35 $-1 #
coedge $-1 $156 $161 $55 $92 forward $86 $-1 #
edge $-1 $162 -26.969566875555362 $163 -14.022626684118205 $91 $164 forward 7 unknown #
loop $-1 $-1 $98 $56 #
plane-surface $-1 -23.075676156518107 -7.70151443588734 52.524475846355372 0.62932039886446345 0 0.77714595512881146 0.77714595512881146 0 -0.62932039886446345 forward_v I I I I #
loop $-1 $-1 $165 $37 #
coedge $-1 $96 $96 $97 $166 reversed $57 $-1 #
coedge $-1 $97 $97 $96 $166 forward $59 $-1 #
coedge $-1 $98 $98 $60 $99 forward $93 $-1 #
edge $-1 $167 0 $167 6.2831853071796004 $98 $168 forward 7 unknown #
face $-1 $169 $170 $15 $-1 $171 reversed single #
loop $-1 $-1 $172 $61 #
plane-surface $-1 -41.630909146397293 0 0 1 0 0 0 0 -1 forward_v I I I I #
coedge $-1 $173 $111 $174 $175 forward $62 $-1 #
coedge $-1 $176 $64 $173 $177 forward $41 $-1 #
coedge $-1 $64 $176 $178 $179 forward $41 $-1 #
coedge $-1 $114 $113 $64 $107 reversed $115 $-1 #
edge $-1 $180 -21.558196645618576 $181 21.558196645618576 $106 $182 forward 7 unknown #
coedge $-1 $66 $65 $183 $184 forward $26 $-1 #
coedge $-1 $185 $186 $65 $110 reversed $170 $-1 #
edge $-1 $117 -41.630909146397293 $187 41.630909146397293 $109 $188 forward 7 unknown #
coedge $-1 $103 $189 $66 $112 reversed $62 $-1 #
edge $-1 $190 -41.630909146397293 $116 41.630909146397293 $111 $191 forward 7 unknown #
coedge $-1 $106 $67 $189 $192 forward $115 $-1 #
coedge $-1 $67 $106 $185 $193 reversed $115 $-1 #
loop $-1 $-1 $113 $169 #
vertex $-1 $68 $194 #
vertex $-1 $68 $195 #
straight-curve $-1 41.630909146397293 0 10.610340809469612 0 1 0 I I #
face $-1 $196 $197 $16 $-1 $198 forward single #
loop $-1 $-1 $127 $69 #
plane-surface $-1 0 -21.558196645618576 0 0 1 0 0 0 1 forward_v I I I I #
coedge $-1 $199 $200 $123 $201 forward $70 $-1 #
coedge $-1 $202 $72 $122 $201 reversed $45 $-1 #
coedge $-1 $72 $202 $129 $203 reversed $45 $-1 #
edge $-1 $204 -41.630909146397293 $133 41.630909146397293 $72 $205 forward 7 unknown #
coedge $-1 $74 $73 $199 $206 reversed $29 $-1 #
coedge $-1 $207 $208 $73 $128 forward $120 $-1 #
edge $-1 $209 -41.630909146397293 $132 41.630909146397293 $127 $210 forward 7 unknown #
coedge $-1 $211 $75 $124 $203 forward $131 $-1 #
coedge $-1 $75 $211 $207 $212 forward $131 $-1 #
loop $-1 $-1 $129 $196 #
vertex $-1 $128 $213 #
vertex $-1 $76 $214 #
straight-curve $-1 41.630909146397293 -8.0425212001908921 7.270740330195224 0 1 0 I I #
face $-1 $215 $216 $17 $-1 $217 reversed single #
loop $-1 $-1 $147 $77 #
plane-surface $-1 0 28.33929145903706 4.3170587381160548 0 0 1 1 0 0 forward_v I I I I #
coedge $-1 $218 $219 $81 $143 forward $78 $-1 #
coedge $-1 $220 $80 $219 $221 forward $49 $-1 #
coedge $-1 $80 $220 $222 $223 forward $49 $-1 #
coedge $-1 $82 $81 $80 $142 reversed $32 $-1 #
edge $-1 $224 -41.630909146397293 $225 41.630909146397293 $80 $226 forward 7 unknown #
edge $-1 $225 -10.610340809469612 $149 -4.3170587381160548 $138 $227 forward 7 unknown #
coedge $-1 $222 $228 $82 $145 forward $229 $-1 #
edge $-1 $148 4.3170587381160548 $224 10.610340809469612 $144 $230 forward 7 unknown #
coedge $-1 $231 $83 $228 $232 forward $136 $-1 #
coedge $-1 $83 $231 $218 $233 forward $136 $-1 #
vertex $-1 $145 $234 #
vertex $-1 $143 $235 #
straight-curve $-1 0 21.558196645618576 4.3170587381160548 1 0 0 I I #
face $-1 $-1 $236 $18 $-1 $237 reversed single #
loop $-1 $-1 $238 $85 #
plane-surface $-1 0 -10.611888155144992 8.9405405698324181 0 -1 0 0 0 -1 forward_v I I I I #
coedge $-1 $239 $88 $90 $160 forward $53 $-1 #
coedge $-1 $88 $239 $238 $240 forward $53 $-1 #
coedge $-1 $241 $91 $88 $157 forward $86 $-1 #
edge $-1 $163 0.94038349868601667 $242 6.7611309372013224 $156 $243 forward 7 unknown #
coedge $-1 $244 $245 $89 $159 forward $236 $-1 #
edge $-1 $246 -58.489415426481983 $162 -48.005189765165774 $158 $247 forward 7 unknown #
edge $-1 $163 66.602219016760003 $246 83.261818292794601 $90 $248 forward 7 unknown #
coedge $-1 $91 $241 $244 $249 forward $86 $-1 #
vertex $-1 $159 $250 #
vertex $-1 $92 $251 #
straight-curve $-1 14.661342270841931 -4.7911407166296867 10.610340809469612 -1 0 0 I I #
coedge $-1 $165 $165 $-1 $252 reversed $95 $-1 #
edge $-1 $253 0 $253 6.2831853071796004 $96 $254 forward 7 unknown #
vertex $-1 $99 $255 #
ellipse-curve $-1 35.157439050678704 -7.70151443588734 5.3682279788115173 0.62932039886446345 0 0.77714595512881146 0.77714595512881146 0 -0.62932039886446345 1 I I #
face $-1 $-1 $115 $15 $-1 $256 reversed single #
loop $-1 $-1 $185 $100 #
plane-surface $-1 0 21.558196645618576 0 0 -1 0 0 0 -1 forward_v I I I I #
coedge $-1 $257 $183 $186 $258 forward $101 $-1 #
coedge $-1 $189 $103 $104 $177 reversed $62 $-1 #
coedge $-1 $183 $257 $103 $175 reversed $101 $-1 #
edge $-1 $190 -10.610340809469612 $259 10.610340809469612 $174 $260 forward 7 unknown #
coedge $-1 $105 $104 $257 $261 forward $41 $-1 #
edge $-1 $181 -41.630909146397293 $259 41.630909146397293 $173 $262 forward 7 unknown #
coedge $-1 $186 $185 $105 $179 reversed $170 $-1 #
edge $-1 $263 -41.630909146397293 $180 41.630909146397293 $178 $264 forward 7 unknown #
vertex $-1 $107 $265 #
vertex $-1 $192 $266 #
straight-curve $-1 41.630909146397293 0 -10.610340809469612 0 -1 0 I I #
coedge $-1 $172 $174 $108 $184 reversed $101 $-1 #
edge $-1 $187 -21.558196645618576 $190 21.558196645618576 $183 $267 forward 7 unknown #
coedge $-1 $178 $109 $114 $193 forward $170 $-1 #
coedge $-1 $109 $178 $172 $258 reversed $170 $-1 #
vertex $-1 $110 $268 #
straight-curve $-1 0 21.558196645618576 10.610340809469612 -1 0 0 I I #
coedge $-1 $111 $173 $113 $192 reversed $62 $-1 #
vertex $-1 $184 $269 #
straight-curve $-1 0 -21.558196645618576 10.610340809469612 1 0 0 I I #
edge $-1 $116 -10.610340809469612 $181 10.610340809469612 $113 $270 forward 7 unknown #
edge $-1 $117 -10.610340809469612 $180 10.610340809469612 $114 $271 forward 7 unknown #
point $-1 41.630909146397293 -21.558196645618576 10.610340809469612 #
point $-1 41.630909146397293 21.558196645618576 10.610340809469612 #
face $-1 $-1 $131 $16 $-1 $272 reversed single #
loop $-1 $-1 $273 $119 #
plane-surface $-1 0 0 10.610340809469612 0 0 1 1 0 0 forward_v I I I I #
coedge $-1 $274 $122 $126 $206 forward $70 $-1 #
coedge $-1 $122 $274 $275 $276 reversed $70 $-1 #
edge $-1 $277 -6.1400705245534031 $204 -2.800470045279015 $122 $278 forward 7 unknown #
coedge $-1 $124 $123 $273 $279 reversed $45 $-1 #
edge $-1 $133 2.800470045279015 $280 6.1400705245534031 $129 $281 forward 7 unknown #
vertex $-1 $206 $282 #
straight-curve $-1 0 -10.611888155144992 7.270740330195224 1 0 0 I I #
edge $-1 $204 2.5693669549541003 $209 13.515675445427684 $199 $283 forward 7 unknown #
coedge $-1 $284 $127 $130 $212 reversed $120 $-1 #
coedge $-1 $127 $284 $274 $285 forward $120 $-1 #
vertex $-1 $128 $286 #
straight-curve $-1 0 -21.558196645618576 7.270740330195224 1 0 0 I I #
coedge $-1 $130 $129 $287 $288 reversed $131 $-1 #
edge $-1 $289 -10.610340809469612 $132 -7.270740330195224 $130 $290 forward 7 unknown #
point $-1 41.630909146397293 -21.558196645618576 7.270740330195224 #
point $-1 41.630909146397293 -10.611888155144992 7.270740330195224 #
face $-1 $-1 $229 $17 $-1 $291 reversed single #
loop $-1 $-1 $292 $135 #
plane-surface $-1 0 35.120386272455548 7.4636997737928326 0 -1 0 0 0 -1 forward_v I I I I #
coedge $-1 $293 $138 $147 $233 reversed $78 $-1 #
coedge $-1 $138 $293 $139 $221 reversed $78 $-1 #
coedge $-1 $140 $139 $294 $295 forward $49 $-1 #
edge $-1 $225 21.558196645618576 $296 35.120386272455548 $219 $297 forward 7 unknown #
coedge $-1 $298 $144 $140 $223 reversed $229 $-1 #
edge $-1 $299 -35.120386272455548 $224 -21.558196645618576 $222 $300 forward 7 unknown #
vertex $-1 $145 $301 #
vertex $-1 $221 $302 #
straight-curve $-1 0 21.558196645618576 10.610340809469612 1 0 0 I I #
straight-curve $-1 41.630909146397293 21.558196645618576 0 0 0 -1 I I #
coedge $-1 $144 $298 $146 $232 reversed $229 $-1 #
loop $-1 $-1 $144 $215 #
straight-curve $-1 -41.630909146397293 21.558196645618576 0 0 0 1 I I #
coedge $-1 $147 $146 $303 $304 forward $136 $-1 #
edge $-1 $148 -6.7810948134184876 $305 6.7810948134184876 $228 $306 forward 7 unknown #
edge $-1 $307 -6.7810948134184876 $149 6.7810948134184876 $218 $308 forward 7 unknown #
point $-1 -41.630909146397293 21.558196645618573 4.3170587381160548 #
point $-1 41.630909146397293 21.558196645618573 4.3170587381160548 #
loop $-1 $-1 $158 $151 #
plane-surface $-1 41.630909146397293 0 0 -1 0 0 0 0 1 forward_v I I I I #
coedge $-1 $309 $310 $155 $240 reversed $152 $-1 #
coedge $-1 $155 $154 $245 $311 reversed $53 $-1 #
edge $-1 $312 -83.261818292794601 $242 -66.602219016760003 $238 $313 forward 7 unknown #
coedge $-1 $161 $156 $310 $314 forward $86 $-1 #
vertex $-1 $314 $315 #
straight-curve $-1 28.683968954960147 -3.85075721794367 10.610340809469609 0 -1 0 I I #
coedge $-1 $316 $158 $161 $249 reversed $236 $-1 #
coedge $-1 $158 $316 $239 $311 forward $236 $-1 #
vertex $-1 $159 $317 #
straight-curve $-1 41.630909146397293 -4.7911407166296867 58.615530574635386 0 0 1 I I #
straight-curve $-1 -23.075676156518107 -4.7911407166296867 52.524475846355372 0.77714595512881146 0 -0.62932039886446345 I I #
edge $-1 $318 -10.611888155144992 $162 -4.7911407166296867 $244 $319 forward 7 unknown #
point $-1 41.630909146397293 -4.7911407166296867 10.610340809469612 #
point $-1 28.683968954960136 -4.7911407166296867 10.610340809469612 #
edge $-1 $320 1 $320 0 $165 $-1 forward 7 unknown #
vertex $-1 $166 $321 #
ellipse-curve $-1 33.627668272458124 -7.70151443588734 3.4791184334773297 0.62932039886446345 0 0.77714595512881146 0.77714595512881146 0 -0.62932039886446345 1 I I #
point $-1 35.934585005807506 -7.70151443588734 4.7389075799470426 #
plane-surface $-1 41.630909146397293 0 0 -1 0 0 0 0 1 forward_v I I I I #
coedge $-1 $174 $172 $176 $261 reversed $101 $-1 #
edge $-1 $187 -10.610340809469612 $263 10.610340809469612 $186 $322 forward 7 unknown #
vertex $-1 $261 $323 #
straight-curve $-1 -41.630909146397293 -21.558196645618576 0 0 0 -1 I I #
edge $-1 $259 -21.558196645618576 $263 21.558196645618576 $257 $324 forward 7 unknown #
straight-curve $-1 0 -21.558196645618576 -10.610340809469612 -1 0 0 I I #
vertex $-1 $179 $325 #
straight-curve $-1 0 21.558196645618576 -10.610340809469612 1 0 0 I I #
point $-1 41.630909146397293 21.558196645618576 -10.610340809469612 #
point $-1 41.630909146397293 -21.558196645618576 -10.610340809469612 #
straight-curve $-1 -41.630909146397293 0 10.610340809469612 0 -1 0 I I #
point $-1 -41.630909146397293 21.558196645618576 10.610340809469612 #
point $-1 -41.630909146397293 -21.558196645618576 10.610340809469612 #
straight-curve $-1 41.630909146397293 -21.558196645618576 0 0 0 -1 I I #
straight-curve $-1 41.630909146397293 21.558196645618576 0 0 0 -1 I I #
plane-surface $-1 41.630909146397293 0 0 -1 0 0 0 0 1 forward_v I I I I #
coedge $-1 $275 $287 $202 $279 forward $197 $-1 #
coedge $-1 $200 $199 $208 $285 reversed $70 $-1 #
coedge $-1 $326 $273 $200 $276 forward $197 $-1 #
edge $-1 $277 10.611888155144992 $327 21.558196645618576 $200 $328 forward 7 unknown #
vertex $-1 $276 $329 #
straight-curve $-1 -41.630909146397293 -10.611888155144992 4.470270284916209 0 0 -1 I I #
edge $-1 $280 -41.630909146397293 $277 41.630909146397293 $273 $330 forward 7 unknown #
vertex $-1 $203 $331 #
straight-curve $-1 41.630909146397293 -10.611888155144992 4.470270284916209 0 0 1 I I #
point $-1 -41.630909146397293 -10.611888155144992 7.270740330195224 #
straight-curve $-1 -41.630909146397293 -8.0425212001908921 7.270740330195224 0 -1 0 I I #
coedge $-1 $208 $207 $326 $332 reversed $120 $-1 #
edge $-1 $327 -10.610340809469612 $209 -7.270740330195224 $274 $333 forward 7 unknown #
point $-1 -41.630909146397293 -21.558196645618576 7.270740330195224 #
coedge $-1 $273 $326 $211 $288 forward $197 $-1 #
edge $-1 $289 -21.558196645618576 $280 -10.611888155144992 $211 $334 forward 7 unknown #
vertex $-1 $288 $335 #
straight-curve $-1 41.630909146397293 -21.558196645618576 0 0 0 -1 I I #
plane-surface $-1 -41.630909146397293 0 0 1 0 0 0 0 -1 forward_v I I I I #
coedge $-1 $303 $294 $293 $336 forward $216 $-1 #
coedge $-1 $219 $218 $292 $336 reversed $78 $-1 #
coedge $-1 $292 $337 $220 $295 reversed $216 $-1 #
edge $-1 $296 -41.630909146397293 $299 41.630909146397293 $294 $338 forward 7 unknown #
vertex $-1 $221 $339 #
straight-curve $-1 41.630909146397293 0 10.610340809469612 0 1 0 I I #
coedge $-1 $228 $222 $337 $340 forward $229 $-1 #
vertex $-1 $295 $341 #
straight-curve $-1 -41.630909146397293 0 10.610340809469612 0 -1 0 I I #
point $-1 -41.630909146397293 21.558196645618576 10.610340809469612 #
point $-1 41.630909146397293 21.558196645618576 10.610340809469612 #
coedge $-1 $337 $292 $231 $304 reversed $216 $-1 #
edge $-1 $305 -41.630909146397293 $307 41.630909146397293 $303 $342 forward 7 unknown #
vertex $-1 $304 $343 #
straight-curve $-1 -41.630909146397293 28.33929145903706 4.3170587381160548 0 1 0 I I #
vertex $-1 $233 $344 #
straight-curve $-1 41.630909146397293 28.33929145903706 4.3170587381160548 0 -1 0 I I #
coedge $-1 $310 $238 $316 $345 reversed $152 $-1 #
coedge $-1 $238 $309 $241 $314 reversed $152 $-1 #
edge $-1 $312 -6.7611309372013224 $246 -0.94038349868601667 $245 $346 forward 7 unknown #
vertex $-1 $345 $347 #
straight-curve $-1 -23.075676156518107 -10.611888155144992 52.524475846355372 -0.77714595512881146 0 0.62932039886446345 I I #
edge $-1 $242 28.683968954960136 $318 41.630909146397293 $241 $348 forward 7 unknown #
point $-1 28.683968954960136 -10.611888155144992 10.610340809469612 #
coedge $-1 $245 $244 $309 $345 forward $236 $-1 #
point $-1 41.630909146397293 -4.7911407166296867 0.12611514815340286 #
vertex $-1 $249 $349 #
straight-curve $-1 41.630909146397293 0 10.610340809469612 0 1 0 I I #
vertex $-1 $252 $350 #
point $-1 34.404814227586932 -7.70151443588734 2.8497980346128662 #
straight-curve $-1 -41.630909146397293 21.558196645618576 0 0 0 -1 I I #
point $-1 -41.630909146397293 -21.558196645618576 -10.610340809469612 #
straight-curve $-1 -41.630909146397293 0 -10.610340809469612 0 1 0 I I #
point $-1 -41.630909146397293 21.558196645618576 -10.610340809469612 #
coedge $-1 $287 $275 $284 $332 forward $197 $-1 #
vertex $-1 $276 $351 #
straight-curve $-1 -41.630909146397293 0 10.610340809469612 0 -1 0 I I #
point $-1 -41.630909146397293 -10.611888155144992 10.610340809469612 #
straight-curve $-1 0 -10.611888155144992 10.610340809469612 -1 0 0 I I #
point $-1 41.630909146397293 -10.611888155144992 10.610340809469612 #
edge $-1 $327 -41.630909146397293 $289 41.630909146397293 $284 $352 forward 7 unknown #
straight-curve $-1 -41.630909146397293 -21.558196645618576 0 0 0 -1 I I #
straight-curve $-1 41.630909146397293 0 10.610340809469612 0 1 0 I I #
point $-1 41.630909146397293 -21.558196645618576 10.610340809469612 #
edge $-1 $296 -3.1466410356767778 $307 3.1466410356767778 $293 $353 forward 7 unknown #
coedge $-1 $294 $303 $298 $340 reversed $216 $-1 #
straight-curve $-1 0 35.120386272455548 10.61034080946961 -1 0 0 I I #
point $-1 41.630909146397293 35.120386272455548 10.61034080946961 #
edge $-1 $299 -3.1466410356767778 $305 3.1466410356767778 $337 $354 forward 7 unknown #
point $-1 -41.630909146397293 35.120386272455548 10.61034080946961 #
straight-curve $-1 0 35.120386272455548 4.3170587381160548 1 0 0 I I #
point $-1 -41.630909146397293 35.120386272455548 4.3170587381160548 #
point $-1 41.630909146397293 35.120386272455548 4.3170587381160548 #
edge $-1 $318 48.005189765165774 $312 58.489415426481983 $316 $355 forward 7 unknown #
straight-curve $-1 41.630909146397293 -3.85075721794367 0.12611514815340286 0 1 0 I I #
point $-1 41.630909146397293 -10.611888155144992 0.12611514815340286 #
straight-curve $-1 0 -10.611888155144992 10.610340809469612 1 0 0 I I #
point $-1 41.630909146397293 -10.611888155144992 10.610340809469612 #
point $-1 32.998347873593659 -7.70151443588734 2.7019724783485182 #
point $-1 -41.630909146397293 -21.558196645618576 10.610340809469612 #
straight-curve $-1 0 -21.558196645618576 10.610340809469612 1 0 0 I I #
straight-curve $-1 41.630909146397293 35.120386272455548 7.4636997737928326 0 0 -1 I I #
straight-curve $-1 -41.630909146397293 35.120386272455548 7.4636997737928326 0 0 -1 I I #
straight-curve $-1 41.630909146397293 -10.611888155144992 58.615530574635386 0 0 -1 I I #
End-of-ACIS-data 