500 0 8 0           
7 Unknown 11 ACIS 5.0 NT 24 Fri Mar 26 03:06:48 1999 
-1 9.9999999999999995e-007 1e-010 
body $-1 $8 $-1 $9 #
body $-1 $10 $-1 $11 #
body $-1 $12 $-1 $13 #
body $-1 $14 $-1 $15 #
body $-1 $16 $-1 $17 #
body $-1 $18 $-1 $19 #
body $-1 $20 $-1 $21 #
body $-1 $22 $-1 $23 #
lump $-1 $-1 $24 $0 #
transform $-1 1 0 0 0 1 0 0 0 1 73.748588518936742 33.610108403912051 9.0096056452101774 1 rotate no_reflect no_shear #
lump $-1 $-1 $25 $1 #
transform $-1 1 0 0 0 1 0 0 0 1 73.748588518936742 33.610108403912051 9.0096056452101774 1 rotate no_reflect no_shear #
lump $-1 $-1 $26 $2 #
transform $-1 1 0 0 0 1 0 0 0 1 73.748588518936742 33.610108403912051 9.0096056452101774 1 rotate no_reflect no_shear #
lump $-1 $-1 $27 $3 #
transform $-1 1 0 0 0 1 0 0 0 1 73.748588518936742 33.610108403912051 9.0096056452101774 1 rotate no_reflect no_shear #
lump $-1 $-1 $28 $4 #
transform $-1 1 0 0 0 1 0 0 0 1 73.748588518936742 33.610108403912051 9.0096056452101774 1 rotate no_reflect no_shear #
lump $-1 $-1 $29 $5 #
transform $-1 1 0 0 0 1 0 0 0 1 73.748588518936742 33.610108403912051 9.0096056452101774 1 rotate no_reflect no_shear #
lump $-1 $-1 $30 $6 #
transform $-1 1 0 0 0 1 0 0 0 1 73.748588518936742 33.610108403912051 9.0096056452101774 1 rotate no_reflect no_shear #
lump $-1 $-1 $31 $7 #
transform $-1 1 0 0 0 1 0 0 0 1 73.748588518936742 33.610108403912051 9.0096056452101774 1 rotate no_reflect no_shear #
shell $-1 $-1 $-1 $32 $-1 $8 #
shell $-1 $-1 $-1 $33 $-1 $10 #
shell $-1 $-1 $-1 $34 $-1 $12 #
shell $-1 $-1 $-1 $35 $-1 $14 #
shell $-1 $-1 $-1 $36 $-1 $16 #
shell $-1 $-1 $-1 $37 $-1 $18 #
shell $-1 $-1 $-1 $38 $-1 $20 #
shell $-1 $-1 $-1 $39 $-1 $22 #
face $-1 $40 $41 $24 $-1 $42 forward single #
face $-1 $43 $44 $25 $-1 $45 reversed single #
face $-1 $46 $47 $26 $-1 $48 forward single #
face $-1 $49 $50 $27 $-1 $51 forward single #
face $-1 $52 $53 $28 $-1 $54 reversed single #
face $-1 $55 $56 $29 $-1 $57 forward single #
face $-1 $58 $59 $30 $-1 $60 reversed single #
face $-1 $61 $62 $31 $-1 $63 forward single #
face $-1 $64 $65 $24 $-1 $66 reversed single #
loop $-1 $-1 $67 $32 #
plane-surface $-1 0 0 9.0096056452101774 0 0 1 1 0 0 forward_v I I I I #
face $-1 $68 $69 $25 $-1 $70 reversed single #
loop $-1 $-1 $71 $33 #
plane-surface $-1 30.324991066278443 74.193171093686729 158.41858012799915 1 0 0 0 -0.62932039886446345 -0.77714595512881146 forward_v I I I I #
face $-1 $72 $73 $26 $-1 $74 forward single #
loop $-1 $75 $76 $34 #
cone-surface $-1 42.73173319560938 28.316613942564558 4.4468150298572944 0 -0.62932039886446345 -0.77714595512881146 2 0 0 1 I I 0 1 2 forward I I I I #
face $-1 $77 $78 $27 $-1 $79 forward single #
loop $-1 $80 $81 $35 #
cone-surface $-1 61.341846389605792 28.316613942564558 4.4468150298572944 0 -0.62932039886446345 -0.77714595512881146 2 0 0 1 I I 0 1 2 forward I I I I #
face $-1 $82 $83 $28 $-1 $84 reversed single #
loop $-1 $-1 $85 $36 #
plane-surface $-1 -12.017069150971906 -116.08948415741743 126.42948744986435 -1 0 0 0 -0.55919291073839883 0.82903756765294845 forward_v I I I I #
face $-1 $86 $87 $29 $-1 $88 forward single #
loop $-1 $89 $90 $37 #
cone-surface $-1 -29.998450138700882 -28.975651297925879 5.0503394542459743 0 0.55919291073839883 -0.82903756765294845 1.5 0 0 1 I I 0 1 1.5 forward I I I I #
face $-1 $91 $92 $30 $-1 $93 reversed single #
loop $-1 $-1 $94 $38 #
plane-surface $-1 61.731519367964829 -116.08948415741743 126.42948744986435 -1 0 0 0 -0.55919291073839883 0.82903756765294845 forward_v I I I I #
face $-1 $95 $96 $31 $-1 $97 forward single #
loop $-1 $98 $99 $39 #
cone-surface $-1 43.750138380235853 -28.975651297925879 5.0503394542459743 0 0.55919291073839883 -0.82903756765294845 1.5 0 0 1 I I 0 1 1.5 forward I I I I #
face $-1 $100 $101 $24 $-1 $102 reversed single #
loop $-1 $-1 $103 $40 #
plane-surface $-1 0 0 -9.0096056452101774 0 0 1 1 0 0 forward_v I I I I #
coedge $-1 $104 $105 $106 $107 forward $41 $-1 #
face $-1 $108 $109 $25 $-1 $110 forward single #
loop $-1 $-1 $111 $43 #
plane-surface $-1 52.036789792607593 -18.629811191170191 43.791745600097556 0 0.62932039886446345 0.77714595512881146 1 0 0 forward_v I I I I #
coedge $-1 $112 $113 $114 $115 reversed $44 $-1 #
face $-1 $-1 $116 $26 $-1 $117 forward single #
loop $-1 $118 $119 $46 #
cone-surface $-1 42.73173319560938 27.037576457204963 2.8673353085596975 0 -0.62932039886446345 -0.77714595512881146 1 0 0 1 I I -0.70710678118654746 0.70710678118654746 1 forward I I I I #
loop $-1 $-1 $120 $34 #
coedge $-1 $76 $76 $121 $122 reversed $47 $-1 #
face $-1 $-1 $123 $27 $-1 $124 forward single #
loop $-1 $125 $126 $49 #
cone-surface $-1 61.341846389605792 27.037576457204963 2.8673353085596975 0 -0.62932039886446345 -0.77714595512881146 1 0 0 1 I I -0.70710678118654746 0.70710678118654746 1 forward I I I I #
loop $-1 $-1 $127 $35 #
coedge $-1 $81 $81 $128 $129 reversed $50 $-1 #
face $-1 $130 $131 $28 $-1 $132 reversed single #
loop $-1 $-1 $133 $52 #
plane-surface $-1 -29.998450138700882 -33.610108403912037 4.1487865627094038 0 -0.55919291073839883 0.82903756765294845 1 0 0 forward_v I I I I #
coedge $-1 $134 $135 $136 $137 reversed $53 $-1 #
face $-1 $-1 $138 $29 $-1 $139 forward single #
loop $-1 $140 $141 $55 #
cone-surface $-1 -29.998450138700882 -27.525029764108766 2.899704628792442 0 0.55919291073839883 -0.82903756765294845 0.75 0 0 1 I I -0.70710678118654757 0.70710678118654757 0.75 forward I I I I #
loop $-1 $-1 $142 $37 #
coedge $-1 $90 $90 $143 $144 reversed $56 $-1 #
face $-1 $145 $146 $30 $-1 $147 reversed single #
loop $-1 $-1 $148 $58 #
plane-surface $-1 43.750138380235853 -33.610108403912037 4.1487865627094038 0 -0.55919291073839883 0.82903756765294845 1 0 0 forward_v I I I I #
coedge $-1 $149 $150 $151 $152 reversed $59 $-1 #
face $-1 $-1 $153 $31 $-1 $154 forward single #
loop $-1 $155 $156 $61 #
cone-surface $-1 43.750138380235853 -27.525029764108766 2.899704628792442 0 0.55919291073839883 -0.82903756765294845 0.75 0 0 1 I I -0.70710678118654757 0.70710678118654757 0.75 forward I I I I #
loop $-1 $-1 $157 $39 #
coedge $-1 $99 $99 $158 $159 reversed $62 $-1 #
face $-1 $160 $161 $24 $-1 $162 reversed single #
loop $-1 $-1 $163 $64 #
plane-surface $-1 0 -33.610108403912051 0 0 1 0 0 0 1 forward_v I I I I #
coedge $-1 $164 $165 $166 $167 forward $65 $-1 #
coedge $-1 $168 $67 $169 $170 forward $41 $-1 #
coedge $-1 $67 $168 $171 $172 forward $41 $-1 #
coedge $-1 $173 $174 $67 $107 reversed $175 $-1 #
edge $-1 $176 -33.610108403912051 $177 33.610108403912051 $106 $178 forward 7 unknown #
face $-1 $179 $180 $25 $-1 $181 reversed single #
loop $-1 $-1 $114 $68 #
plane-surface $-1 0 0 9.0096056452101774 0 0 1 1 0 0 forward_v I I I I #
coedge $-1 $182 $183 $184 $185 reversed $69 $-1 #
coedge $-1 $113 $71 $186 $187 reversed $44 $-1 #
coedge $-1 $71 $112 $182 $188 reversed $44 $-1 #
coedge $-1 $184 $189 $71 $115 forward $109 $-1 #
edge $-1 $190 3.4864771429313137 $191 12.774031892636025 $114 $192 forward 7 unknown #
loop $-1 $-1 $121 $72 #
plane-surface $-1 52.036789792607593 -18.629811191170191 43.791745600097556 0 0.62932039886446345 0.77714595512881146 1 0 0 forward_v I I I I #
loop $-1 $-1 $193 $46 #
coedge $-1 $119 $119 $120 $194 reversed $73 $-1 #
coedge $-1 $120 $120 $119 $194 forward $75 $-1 #
coedge $-1 $121 $121 $76 $122 forward $116 $-1 #
edge $-1 $195 -2.4570747714239655e-016 $195 6.2831853071796004 $121 $196 forward 7 unknown #
loop $-1 $-1 $128 $77 #
plane-surface $-1 52.036789792607593 -18.629811191170191 43.791745600097556 0 0.62932039886446345 0.77714595512881146 1 0 0 forward_v I I I I #
loop $-1 $-1 $197 $49 #
coedge $-1 $126 $126 $127 $198 reversed $78 $-1 #
coedge $-1 $127 $127 $126 $198 forward $80 $-1 #
coedge $-1 $128 $128 $81 $129 forward $123 $-1 #
edge $-1 $199 -2.4570747714239655e-016 $199 6.2831853071796004 $128 $200 forward 7 unknown #
face $-1 $201 $202 $28 $-1 $203 reversed single #
loop $-1 $-1 $204 $82 #
plane-surface $-1 -47.979831126429858 -116.08948415741743 126.42948744986435 1 0 0 0 0.55919291073839883 -0.82903756765294845 forward_v I I I I #
coedge $-1 $205 $206 $207 $208 reversed $83 $-1 #
coedge $-1 $135 $85 $209 $210 reversed $53 $-1 #
coedge $-1 $85 $134 $205 $211 reversed $53 $-1 #
coedge $-1 $207 $212 $85 $137 forward $213 $-1 #
edge $-1 $214 24.434633674796665 $215 31.641094185242416 $136 $216 forward 7 unknown #
loop $-1 $-1 $143 $86 #
plane-surface $-1 -29.998450138700882 -33.610108403912037 4.1487865627094038 0 -0.55919291073839883 0.82903756765294845 1 0 0 forward_v I I I I #
loop $-1 $-1 $217 $55 #
coedge $-1 $141 $141 $142 $218 reversed $87 $-1 #
coedge $-1 $142 $142 $141 $218 forward $89 $-1 #
coedge $-1 $143 $143 $90 $144 forward $138 $-1 #
edge $-1 $219 6.9290695525479981e-017 $219 6.2831853071796004 $143 $220 forward 7 unknown #
face $-1 $221 $222 $30 $-1 $223 reversed single #
loop $-1 $-1 $224 $91 #
plane-surface $-1 25.768757392506878 -116.08948415741743 126.42948744986435 1 0 0 0 0.55919291073839883 -0.82903756765294845 forward_v I I I I #
coedge $-1 $225 $226 $227 $228 reversed $92 $-1 #
coedge $-1 $150 $94 $229 $230 reversed $59 $-1 #
coedge $-1 $94 $149 $225 $231 reversed $59 $-1 #
coedge $-1 $227 $232 $94 $152 forward $233 $-1 #
edge $-1 $234 24.434633674796665 $235 31.641094185242416 $151 $236 forward 7 unknown #
loop $-1 $-1 $158 $95 #
plane-surface $-1 43.750138380235853 -33.610108403912037 4.1487865627094038 0 -0.55919291073839883 0.82903756765294845 1 0 0 forward_v I I I I #
loop $-1 $-1 $237 $61 #
coedge $-1 $156 $156 $157 $238 reversed $96 $-1 #
coedge $-1 $157 $157 $156 $238 forward $98 $-1 #
coedge $-1 $158 $158 $99 $159 forward $153 $-1 #
edge $-1 $239 6.9290695525479981e-017 $239 6.2831853071796004 $158 $240 forward 7 unknown #
face $-1 $241 $242 $24 $-1 $243 reversed single #
loop $-1 $-1 $244 $100 #
plane-surface $-1 -73.748588518936742 0 0 1 0 0 0 0 -1 forward_v I I I I #
coedge $-1 $245 $171 $246 $247 forward $101 $-1 #
coedge $-1 $248 $103 $245 $249 forward $65 $-1 #
coedge $-1 $103 $248 $250 $251 forward $65 $-1 #
coedge $-1 $174 $173 $103 $167 reversed $175 $-1 #
edge $-1 $252 -33.610108403912051 $253 33.610108403912051 $166 $254 forward 7 unknown #
coedge $-1 $105 $104 $255 $256 forward $41 $-1 #
coedge $-1 $257 $258 $104 $170 reversed $242 $-1 #
edge $-1 $177 -73.748588518936742 $259 73.748588518936742 $169 $260 forward 7 unknown #
coedge $-1 $163 $261 $105 $172 reversed $101 $-1 #
edge $-1 $262 -73.748588518936742 $176 73.748588518936742 $171 $263 forward 7 unknown #
coedge $-1 $166 $106 $261 $264 forward $175 $-1 #
coedge $-1 $106 $166 $257 $265 reversed $175 $-1 #
loop $-1 $-1 $173 $241 #
vertex $-1 $107 $266 #
vertex $-1 $107 $267 #
straight-curve $-1 73.748588518936742 0 9.0096056452101774 0 1 0 I I #
face $-1 $-1 $268 $25 $-1 $269 reversed single #
loop $-1 $-1 $186 $108 #
plane-surface $-1 0 33.610108403912051 0 0 -1 0 0 0 -1 forward_v I I I I #
coedge $-1 $270 $111 $113 $188 forward $69 $-1 #
coedge $-1 $111 $270 $271 $272 reversed $69 $-1 #
coedge $-1 $273 $114 $111 $185 forward $109 $-1 #
edge $-1 $191 4.3065961699746467 $274 47.730193622632946 $184 $275 forward 7 unknown #
coedge $-1 $276 $277 $112 $187 forward $180 $-1 #
edge $-1 $278 -77.720598117157579 $190 -70.199684418789403 $186 $279 forward 7 unknown #
edge $-1 $191 55.269366792571418 $278 67.220216807824087 $113 $280 forward 7 unknown #
coedge $-1 $114 $273 $276 $281 forward $109 $-1 #
vertex $-1 $187 $282 #
vertex $-1 $115 $283 #
straight-curve $-1 30.324991066278443 37.096585546843365 9.009605645210172 0 -1 0 I I #
coedge $-1 $193 $193 $-1 $284 reversed $118 $-1 #
edge $-1 $285 0 $285 6.2831853071796004 $119 $286 forward 7 unknown #
vertex $-1 $122 $287 #
ellipse-curve $-1 42.73173319560938 28.966331029059695 5.2491487960260867 0 0.62932039886446345 0.77714595512881146 2 0 0 1 I I #
coedge $-1 $197 $197 $-1 $288 reversed $125 $-1 #
edge $-1 $289 0 $289 6.2831853071796004 $126 $290 forward 7 unknown #
vertex $-1 $129 $291 #
ellipse-curve $-1 61.341846389605792 28.966331029059695 5.2491487960260867 0 0.62932039886446345 0.77714595512881146 2 0 0 1 I I #
face $-1 $-1 $213 $28 $-1 $292 forward single #
loop $-1 $-1 $293 $130 #
plane-surface $-1 0 -33.610108403912051 0 0 1 0 0 0 1 forward_v I I I I #
coedge $-1 $294 $295 $296 $297 reversed $131 $-1 #
coedge $-1 $298 $133 $135 $211 forward $83 $-1 #
coedge $-1 $133 $298 $294 $299 forward $83 $-1 #
coedge $-1 $296 $136 $133 $208 forward $213 $-1 #
edge $-1 $215 -2.9821559183785347 $300 32.980606057079413 $207 $301 forward 7 unknown #
coedge $-1 $302 $303 $134 $210 forward $202 $-1 #
edge $-1 $304 -59.06595716222278 $214 -54.205138079721998 $209 $305 forward 7 unknown #
edge $-1 $215 -8.6925620642833188 $304 1.7244626260799089e-014 $135 $306 forward 7 unknown #
coedge $-1 $136 $296 $302 $307 forward $213 $-1 #
loop $-1 $-1 $296 $201 #
vertex $-1 $210 $308 #
vertex $-1 $137 $309 #
straight-curve $-1 -12.017069150971906 -58.044742078708715 9.0096056452101791 0 1 0 I I #
coedge $-1 $217 $217 $-1 $310 reversed $140 $-1 #
edge $-1 $311 0 $311 6.2831853071796004 $141 $312 forward 7 unknown #
vertex $-1 $144 $313 #
ellipse-curve $-1 -29.998450138700882 -30.006878148689182 6.5791961039597808 0 -0.55919291073839883 0.82903756765294845 1.5 0 0 1 I I #
face $-1 $-1 $233 $30 $-1 $314 forward single #
loop $-1 $-1 $315 $145 #
plane-surface $-1 0 -33.610108403912051 0 0 1 0 0 0 1 forward_v I I I I #
coedge $-1 $316 $317 $318 $319 reversed $146 $-1 #
coedge $-1 $320 $148 $150 $231 forward $92 $-1 #
coedge $-1 $148 $320 $316 $321 forward $92 $-1 #
coedge $-1 $318 $151 $148 $228 forward $233 $-1 #
edge $-1 $235 -39.856450177846902 $322 -3.893688202388951 $227 $323 forward 7 unknown #
coedge $-1 $324 $325 $149 $230 forward $222 $-1 #
edge $-1 $326 -59.06595716222278 $234 -54.205138079721998 $229 $327 forward 7 unknown #
edge $-1 $235 -8.6925620642833188 $326 1.7244626260799089e-014 $150 $328 forward 7 unknown #
coedge $-1 $151 $318 $324 $329 forward $233 $-1 #
loop $-1 $-1 $318 $221 #
vertex $-1 $230 $330 #
vertex $-1 $152 $331 #
straight-curve $-1 61.731519367964829 -58.044742078708715 9.0096056452101791 0 1 0 I I #
coedge $-1 $237 $237 $-1 $332 reversed $155 $-1 #
edge $-1 $333 0 $333 6.2831853071796004 $156 $334 forward 7 unknown #
vertex $-1 $159 $335 #
ellipse-curve $-1 43.750138380235853 -30.006878148689182 6.5791961039597808 0 -0.55919291073839883 0.82903756765294845 1.5 0 0 1 I I #
face $-1 $-1 $175 $24 $-1 $336 reversed single #
loop $-1 $-1 $257 $160 #
plane-surface $-1 0 33.610108403912051 0 0 -1 0 0 0 -1 forward_v I I I I #
coedge $-1 $337 $255 $258 $338 forward $161 $-1 #
coedge $-1 $261 $163 $164 $249 reversed $101 $-1 #
coedge $-1 $255 $337 $163 $247 reversed $161 $-1 #
edge $-1 $262 -9.0096056452101774 $339 9.0096056452101774 $246 $340 forward 7 unknown #
coedge $-1 $165 $164 $337 $341 forward $65 $-1 #
edge $-1 $253 -73.748588518936742 $339 73.748588518936742 $245 $342 forward 7 unknown #
coedge $-1 $258 $257 $165 $251 reversed $242 $-1 #
edge $-1 $343 -73.748588518936742 $252 73.748588518936742 $250 $344 forward 7 unknown #
vertex $-1 $167 $345 #
vertex $-1 $264 $346 #
straight-curve $-1 73.748588518936742 0 -9.0096056452101774 0 -1 0 I I #
coedge $-1 $244 $246 $168 $256 reversed $161 $-1 #
edge $-1 $259 -33.610108403912051 $262 33.610108403912051 $255 $347 forward 7 unknown #
coedge $-1 $250 $169 $174 $265 forward $242 $-1 #
coedge $-1 $169 $250 $244 $338 reversed $242 $-1 #
vertex $-1 $170 $348 #
straight-curve $-1 0 33.610108403912051 9.0096056452101774 -1 0 0 I I #
coedge $-1 $171 $245 $173 $264 reversed $101 $-1 #
vertex $-1 $256 $349 #
straight-curve $-1 0 -33.610108403912051 9.0096056452101774 1 0 0 I I #
edge $-1 $176 -9.0096056452101774 $253 9.0096056452101774 $173 $350 forward 7 unknown #
edge $-1 $177 -9.0096056452101774 $252 9.0096056452101774 $174 $351 forward 7 unknown #
point $-1 73.748588518936742 -33.610108403912051 9.0096056452101774 #
point $-1 73.748588518936742 33.610108403912051 9.0096056452101774 #
loop $-1 $-1 $271 $179 #
plane-surface $-1 73.748588518936742 0 0 -1 0 0 0 0 1 forward_v I I I I #
coedge $-1 $183 $182 $277 $352 reversed $69 $-1 #
coedge $-1 $353 $354 $183 $272 forward $268 $-1 #
edge $-1 $274 34.250806182543478 $355 46.20165619779614 $271 $356 forward 7 unknown #
coedge $-1 $189 $184 $354 $357 forward $109 $-1 #
vertex $-1 $357 $358 #
straight-curve $-1 26.018394896303796 24.32255365420734 9.0096056452101791 1 0 0 I I #
coedge $-1 $359 $186 $189 $281 reversed $180 $-1 #
coedge $-1 $186 $359 $270 $352 forward $180 $-1 #
vertex $-1 $187 $360 #
straight-curve $-1 30.324991066278443 33.610108403912051 79.209290063999575 0 0 1 I I #
straight-curve $-1 30.324991066278443 -18.629811191170191 43.791745600097556 0 0.77714595512881146 -0.62932039886446345 I I #
edge $-1 $361 -73.748588518936742 $190 -30.324991066278443 $276 $362 forward 7 unknown #
point $-1 30.324991066278443 33.610108403912051 9.0096056452101774 #
point $-1 30.324991066278443 24.32255365420734 9.0096056452101791 #
edge $-1 $363 1 $363 0 $193 $-1 forward 7 unknown #
vertex $-1 $194 $364 #
ellipse-curve $-1 42.73173319560938 27.666896856069428 3.6444812636885091 0 0.62932039886446345 0.77714595512881146 2 0 0 1 I I #
point $-1 44.73173319560938 28.966331029059688 5.2491487960260788 #
edge $-1 $365 1 $365 0 $197 $-1 forward 7 unknown #
vertex $-1 $198 $366 #
ellipse-curve $-1 61.341846389605792 27.666896856069428 3.6444812636885091 0 0.62932039886446345 0.77714595512881146 2 0 0 1 I I #
point $-1 63.341846389605792 28.966331029059688 5.2491487960260788 #
plane-surface $-1 0 0 9.0096056452101774 0 0 1 1 0 0 forward_v I I I I #
coedge $-1 $303 $302 $295 $367 forward $202 $-1 #
coedge $-1 $295 $204 $206 $299 reversed $131 $-1 #
coedge $-1 $204 $294 $293 $367 reversed $131 $-1 #
coedge $-1 $212 $207 $204 $297 forward $213 $-1 #
edge $-1 $300 -31.641094185242416 $368 -24.434633674796665 $296 $369 forward 7 unknown #
coedge $-1 $206 $205 $303 $370 reversed $83 $-1 #
edge $-1 $371 -1.7244626260799089e-014 $300 8.6925620642833188 $294 $372 forward 7 unknown #
vertex $-1 $208 $373 #
straight-curve $-1 -14.999225069350441 -26.403647893466299 9.0096056452101774 -1 0 0 I I #
coedge $-1 $293 $209 $212 $307 reversed $202 $-1 #
coedge $-1 $209 $293 $298 $370 forward $202 $-1 #
vertex $-1 $210 $374 #
straight-curve $-1 -12.017069150971906 -33.610108403912051 63.214743724932177 0 0 1 I I #
straight-curve $-1 -12.017069150971906 -33.610108403912037 4.1487865627094038 0 -0.82903756765294845 -0.55919291073839883 I I #
edge $-1 $368 -47.979831126429858 $214 -12.017069150971906 $302 $375 forward 7 unknown #
point $-1 -12.017069150971906 -33.610108403912051 9.0096056452101774 #
point $-1 -12.017069150971906 -26.403647893466299 9.0096056452101774 #
edge $-1 $376 1 $376 0 $217 $-1 forward 7 unknown #
vertex $-1 $218 $377 #
ellipse-curve $-1 -29.998450138700882 -27.944424447162564 3.5214828045321536 0 -0.55919291073839883 0.82903756765294845 1.5 0 0 1 I I #
point $-1 -28.498450138700882 -30.006878148689193 6.5791961039597968 #
plane-surface $-1 0 0 9.0096056452101774 0 0 1 1 0 0 forward_v I I I I #
coedge $-1 $325 $324 $317 $378 forward $222 $-1 #
coedge $-1 $317 $224 $226 $321 reversed $146 $-1 #
coedge $-1 $224 $316 $315 $378 reversed $146 $-1 #
coedge $-1 $232 $227 $224 $319 forward $233 $-1 #
edge $-1 $322 -31.641094185242416 $379 -24.434633674796665 $318 $380 forward 7 unknown #
coedge $-1 $226 $225 $325 $381 reversed $92 $-1 #
edge $-1 $382 -1.7244626260799089e-014 $322 8.6925620642833188 $316 $383 forward 7 unknown #
vertex $-1 $228 $384 #
straight-curve $-1 21.875069190117927 -26.403647893466299 9.0096056452101774 -1 0 0 I I #
coedge $-1 $315 $229 $232 $329 reversed $222 $-1 #
coedge $-1 $229 $315 $320 $381 forward $222 $-1 #
vertex $-1 $230 $385 #
straight-curve $-1 61.731519367964829 -33.610108403912051 63.214743724932177 0 0 1 I I #
straight-curve $-1 61.731519367964829 -33.610108403912037 4.1487865627094038 0 -0.82903756765294845 -0.55919291073839883 I I #
edge $-1 $379 25.768757392506878 $234 61.731519367964829 $324 $386 forward 7 unknown #
point $-1 61.731519367964829 -33.610108403912051 9.0096056452101774 #
point $-1 61.731519367964829 -26.403647893466299 9.0096056452101774 #
edge $-1 $387 1 $387 0 $237 $-1 forward 7 unknown #
vertex $-1 $238 $388 #
ellipse-curve $-1 43.750138380235853 -27.944424447162564 3.5214828045321536 0 -0.55919291073839883 0.82903756765294845 1.5 0 0 1 I I #
point $-1 45.250138380235853 -30.006878148689193 6.5791961039597968 #
plane-surface $-1 73.748588518936742 0 0 -1 0 0 0 0 1 forward_v I I I I #
coedge $-1 $246 $244 $248 $341 reversed $161 $-1 #
edge $-1 $259 -9.0096056452101774 $343 9.0096056452101774 $258 $389 forward 7 unknown #
vertex $-1 $341 $390 #
straight-curve $-1 -73.748588518936742 -33.610108403912051 0 0 0 -1 I I #
edge $-1 $339 -33.610108403912051 $343 33.610108403912051 $337 $391 forward 7 unknown #
straight-curve $-1 0 -33.610108403912051 -9.0096056452101774 -1 0 0 I I #
vertex $-1 $251 $392 #
straight-curve $-1 0 33.610108403912051 -9.0096056452101774 1 0 0 I I #
point $-1 73.748588518936742 33.610108403912051 -9.0096056452101774 #
point $-1 73.748588518936742 -33.610108403912051 -9.0096056452101774 #
straight-curve $-1 -73.748588518936742 0 9.0096056452101774 0 -1 0 I I #
point $-1 -73.748588518936742 33.610108403912051 9.0096056452101774 #
point $-1 -73.748588518936742 -33.610108403912051 9.0096056452101774 #
straight-curve $-1 73.748588518936742 -33.610108403912051 0 0 0 -1 I I #
straight-curve $-1 73.748588518936742 33.610108403912051 0 0 0 -1 I I #
edge $-1 $355 -47.730193622632946 $278 -4.3065961699746467 $277 $393 forward 7 unknown #
coedge $-1 $354 $271 $359 $394 reversed $268 $-1 #
coedge $-1 $271 $353 $273 $357 reversed $268 $-1 #
vertex $-1 $272 $395 #
straight-curve $-1 73.748588518936742 -2.2953218304572118 30.56433665343787 0 0.77714595512881146 -0.62932039886446345 I I #
edge $-1 $274 24.32255365420734 $361 33.610108403912051 $354 $396 forward 7 unknown #
point $-1 73.748588518936742 24.32255365420734 9.0096056452101791 #
coedge $-1 $277 $276 $353 $394 forward $180 $-1 #
point $-1 30.324991066278443 33.610108403912044 1.488691946841989 #
vertex $-1 $357 $397 #
straight-curve $-1 0 33.610108403912051 9.0096056452101774 -1 0 0 I I #
vertex $-1 $284 $398 #
point $-1 44.73173319560938 27.666896856069428 3.6444812636885091 #
vertex $-1 $288 $399 #
point $-1 63.341846389605792 27.666896856069428 3.6444812636885091 #
edge $-1 $368 54.205138079721998 $371 59.06595716222278 $293 $400 forward 7 unknown #
vertex $-1 $307 $401 #
straight-curve $-1 -47.979831126429858 -58.044742078708715 9.0096056452101791 0 -1 0 I I #
edge $-1 $371 -32.980606057079413 $304 2.9821559183785347 $303 $402 forward 7 unknown #
vertex $-1 $370 $403 #
straight-curve $-1 -47.979831126429858 -33.610108403912037 4.1487865627094038 0 0.82903756765294845 0.55919291073839883 I I #
point $-1 -47.979831126429858 -26.403647893466299 9.0096056452101774 #
point $-1 -12.017069150971906 -33.610108403912051 4.1487865627093941 #
straight-curve $-1 0 -33.610108403912051 9.0096056452101774 1 0 0 I I #
vertex $-1 $310 $404 #
point $-1 -28.498450138700882 -27.944424447162564 3.5214828045321536 #
edge $-1 $379 54.205138079721998 $382 59.06595716222278 $315 $405 forward 7 unknown #
vertex $-1 $329 $406 #
straight-curve $-1 25.768757392506878 -58.044742078708715 9.0096056452101791 0 -1 0 I I #
edge $-1 $382 3.893688202388951 $326 39.856450177846902 $325 $407 forward 7 unknown #
vertex $-1 $381 $408 #
straight-curve $-1 25.768757392506878 -33.610108403912037 4.1487865627094038 0 0.82903756765294845 0.55919291073839883 I I #
point $-1 25.768757392506878 -26.403647893466299 9.0096056452101774 #
point $-1 61.731519367964829 -33.610108403912051 4.1487865627093941 #
straight-curve $-1 0 -33.610108403912051 9.0096056452101774 1 0 0 I I #
vertex $-1 $332 $409 #
point $-1 45.250138380235853 -27.944424447162564 3.5214828045321536 #
straight-curve $-1 -73.748588518936742 33.610108403912051 0 0 0 -1 I I #
point $-1 -73.748588518936742 -33.610108403912051 -9.0096056452101774 #
straight-curve $-1 -73.748588518936742 0 -9.0096056452101774 0 1 0 I I #
point $-1 -73.748588518936742 33.610108403912051 -9.0096056452101774 #
straight-curve $-1 26.018394896303796 33.610108403912051 1.4886919468419819 -1 0 0 I I #
edge $-1 $361 -9.0096056452101774 $355 -1.488691946841989 $353 $410 forward 7 unknown #
point $-1 73.748588518936742 33.610108403912044 1.488691946841989 #
straight-curve $-1 73.748588518936742 0 9.0096056452101774 0 1 0 I I #
point $-1 73.748588518936742 33.610108403912051 9.0096056452101774 #
point $-1 42.73173319560938 26.408256058340498 2.090189353430886 #
point $-1 61.341846389605792 26.408256058340498 2.090189353430886 #
straight-curve $-1 -47.979831126429858 -33.610108403912051 63.214743724932177 0 0 -1 I I #
point $-1 -47.979831126429858 -33.610108403912051 9.0096056452101774 #
straight-curve $-1 -14.999225069350441 -33.610108403912051 4.1487865627093932 1 0 0 I I #
point $-1 -47.979831126429858 -33.610108403912051 4.1487865627093941 #
point $-1 -29.998450138700882 -27.105635081054967 2.2779264530527303 #
straight-curve $-1 25.768757392506878 -33.610108403912051 63.214743724932177 0 0 -1 I I #
point $-1 25.768757392506878 -33.610108403912051 9.0096056452101774 #
straight-curve $-1 21.875069190117927 -33.610108403912051 4.1487865627093932 1 0 0 I I #
point $-1 25.768757392506878 -33.610108403912051 4.1487865627093941 #
point $-1 43.750138380235853 -27.105635081054967 2.2779264530527303 #
straight-curve $-1 73.748588518936742 33.610108403912051 0 0 0 -1 I I #
End-of-ACIS-data 