500 0 14 0           
7 Unknown 11 ACIS 5.0 NT 24 Fri Mar 26 19:42:12 1999 
-1 9.9999999999999995e-007 1e-010 
body $-1 $14 $-1 $15 #
body $-1 $16 $-1 $17 #
body $-1 $18 $-1 $19 #
body $-1 $20 $-1 $21 #
body $-1 $22 $-1 $23 #
body $-1 $24 $-1 $25 #
body $-1 $26 $-1 $27 #
body $-1 $28 $-1 $29 #
body $-1 $30 $-1 $31 #
body $-1 $32 $-1 $33 #
body $-1 $34 $-1 $35 #
body $-1 $36 $-1 $37 #
body $-1 $38 $-1 $39 #
body $-1 $40 $-1 $41 #
lump $-1 $-1 $42 $0 #
transform $-1 1 0 0 0 1 0 0 0 1 58.243964964751122 31.611575589148547 14.447822347652506 1 rotate no_reflect no_shear #
lump $-1 $-1 $43 $1 #
transform $-1 1 0 0 0 1 0 0 0 1 58.243964964751122 31.611575589148547 14.447822347652506 1 rotate no_reflect no_shear #
lump $-1 $-1 $44 $2 #
transform $-1 1 0 0 0 1 0 0 0 1 58.243964964751122 31.611575589148547 14.447822347652506 1 rotate no_reflect no_shear #
lump $-1 $-1 $45 $3 #
transform $-1 1 0 0 0 1 0 0 0 1 58.243964964751122 31.611575589148547 14.447822347652506 1 rotate no_reflect no_shear #
lump $-1 $-1 $46 $4 #
transform $-1 1 0 0 0 1 0 0 0 1 58.243964964751122 31.611575589148547 14.447822347652506 1 rotate no_reflect no_shear #
lump $-1 $-1 $47 $5 #
transform $-1 1 0 0 0 1 0 0 0 1 58.243964964751122 31.611575589148547 14.447822347652506 1 rotate no_reflect no_shear #
lump $-1 $-1 $48 $6 #
transform $-1 1 0 0 0 1 0 0 0 1 58.243964964751122 31.611575589148547 14.447822347652506 1 rotate no_reflect no_shear #
lump $-1 $-1 $49 $7 #
transform $-1 1 0 0 0 1 0 0 0 1 58.243964964751122 31.611575589148547 14.447822347652506 1 rotate no_reflect no_shear #
lump $-1 $-1 $50 $8 #
transform $-1 1 0 0 0 1 0 0 0 1 58.243964964751122 31.611575589148547 14.447822347652506 1 rotate no_reflect no_shear #
lump $-1 $-1 $51 $9 #
transform $-1 1 0 0 0 1 0 0 0 1 58.243964964751122 31.611575589148547 14.447822347652506 1 rotate no_reflect no_shear #
lump $-1 $-1 $52 $10 #
transform $-1 1 0 0 0 1 0 0 0 1 58.243964964751122 31.611575589148547 14.447822347652506 1 rotate no_reflect no_shear #
lump $-1 $-1 $53 $11 #
transform $-1 1 0 0 0 1 0 0 0 1 58.243964964751122 31.611575589148547 14.447822347652506 1 rotate no_reflect no_shear #
lump $-1 $-1 $54 $12 #
transform $-1 1 0 0 0 1 0 0 0 1 58.243964964751122 31.611575589148547 14.447822347652506 1 rotate no_reflect no_shear #
lump $-1 $-1 $55 $13 #
transform $-1 1 0 0 0 1 0 0 0 1 58.243964964751122 31.611575589148547 14.447822347652506 1 rotate no_reflect no_shear #
shell $-1 $-1 $-1 $56 $-1 $14 #
shell $-1 $-1 $-1 $57 $-1 $16 #
shell $-1 $-1 $-1 $58 $-1 $18 #
shell $-1 $-1 $-1 $59 $-1 $20 #
shell $-1 $-1 $-1 $60 $-1 $22 #
shell $-1 $-1 $-1 $61 $-1 $24 #
shell $-1 $-1 $-1 $62 $-1 $26 #
shell $-1 $-1 $-1 $63 $-1 $28 #
shell $-1 $-1 $-1 $64 $-1 $30 #
shell $-1 $-1 $-1 $65 $-1 $32 #
shell $-1 $-1 $-1 $66 $-1 $34 #
shell $-1 $-1 $-1 $67 $-1 $36 #
shell $-1 $-1 $-1 $68 $-1 $38 #
shell $-1 $-1 $-1 $69 $-1 $40 #
face $-1 $70 $71 $42 $-1 $72 forward single #
face $-1 $73 $74 $43 $-1 $75 forward single #
face $-1 $76 $77 $44 $-1 $78 reversed single #
face $-1 $79 $80 $45 $-1 $81 forward single #
face $-1 $82 $83 $46 $-1 $84 forward single #
face $-1 $85 $86 $47 $-1 $87 forward single #
face $-1 $88 $89 $48 $-1 $90 reversed single #
face $-1 $91 $92 $49 $-1 $93 forward single #
face $-1 $94 $95 $50 $-1 $96 forward single #
face $-1 $97 $98 $51 $-1 $99 forward single #
face $-1 $100 $101 $52 $-1 $102 reversed single #
face $-1 $103 $104 $53 $-1 $105 forward single #
face $-1 $106 $107 $54 $-1 $108 reversed single #
face $-1 $109 $110 $55 $-1 $111 forward single #
face $-1 $112 $113 $42 $-1 $114 reversed single #
loop $-1 $-1 $115 $56 #
plane-surface $-1 0 0 14.447822347652506 0 0 1 1 0 0 forward_v I I I I #
face $-1 $116 $117 $43 $-1 $118 reversed single #
loop $-1 $-1 $119 $57 #
plane-surface $-1 -49.747166558516632 0 6.4033280403574224 0 0 1 1 0 0 forward_v I I I I #
face $-1 $120 $121 $44 $-1 $122 reversed single #
loop $-1 $-1 $123 $58 #
plane-surface $-1 -36.354496815578507 64.817668548448012 138.51742474060265 1 0 0 0 -0.68199836817093118 -0.7313536940579346 forward_v I I I I #
face $-1 $124 $125 $45 $-1 $126 forward single #
loop $-1 $127 $128 $59 #
cone-surface $-1 -32.625744228797657 27.363526888403758 10.210471169336627 0 -0.68199836817093118 -0.7313536940579346 1.5 0 0 1 I I 0 1 1.5 forward I I I I #
face $-1 $129 $130 $46 $-1 $131 forward single #
loop $-1 $132 $133 $60 #
cone-surface $-1 -27.03261534862639 27.363526888403758 10.210471169336627 0 -0.68199836817093118 -0.7313536940579346 1.5 0 0 1 I I 0 1 1.5 forward I I I I #
face $-1 $134 $135 $47 $-1 $136 forward single #
loop $-1 $137 $138 $61 #
cone-surface $-1 -21.439486468455122 27.363526888403758 10.210471169336627 0 -0.68199836817093118 -0.7313536940579346 1.5 0 0 1 I I 0 1 1.5 forward I I I I #
face $-1 $139 $140 $48 $-1 $141 reversed single #
loop $-1 $-1 $142 $62 #
plane-surface $-1 34.704330694143245 64.817668548448012 138.51742474060265 1 0 0 0 -0.68199836817093118 -0.7313536940579346 forward_v I I I I #
face $-1 $143 $144 $49 $-1 $145 forward single #
loop $-1 $146 $147 $63 #
cone-surface $-1 38.433083280924087 27.363526888403758 10.210471169336627 0 -0.68199836817093118 -0.7313536940579346 1.5 0 0 1 I I 0 1 1.5 forward I I I I #
face $-1 $148 $149 $50 $-1 $150 forward single #
loop $-1 $151 $152 $64 #
cone-surface $-1 44.026212161095366 27.363526888403758 10.210471169336627 0 -0.68199836817093118 -0.7313536940579346 1.5 0 0 1 I I 0 1 1.5 forward I I I I #
face $-1 $153 $154 $51 $-1 $155 forward single #
loop $-1 $156 $157 $65 #
cone-surface $-1 49.61934104126663 27.363526888403758 10.210471169336627 0 -0.68199836817093118 -0.7313536940579346 1.5 0 0 1 I I 0 1 1.5 forward I I I I #
face $-1 $158 $159 $52 $-1 $160 reversed single #
loop $-1 $-1 $161 $66 #
plane-surface $-1 -18.100711617223652 -91.607295568381772 102.12369640295985 -1 0 0 0 -0.51503808176128008 0.85716729658548041 forward_v I I I I #
face $-1 $162 $163 $53 $-1 $164 forward single #
loop $-1 $165 $166 $67 #
cone-surface $-1 -29.675539884752897 -19.662325666778006 5.333659078742083 0 0.51503808176128008 -0.85716729658548041 4 0 0 1 I I 0 1 4 forward I I I I #
face $-1 $167 $168 $54 $-1 $169 reversed single #
loop $-1 $-1 $170 $68 #
plane-surface $-1 31.646454941292983 -91.607295568381772 102.12369640295985 -1 0 0 0 -0.51503808176128008 0.85716729658548041 forward_v I I I I #
face $-1 $171 $172 $55 $-1 $173 forward single #
loop $-1 $174 $175 $69 #
cone-surface $-1 20.071626673763738 -19.662325666778006 5.333659078742083 0 0.51503808176128008 -0.85716729658548041 4 0 0 1 I I 0 1 4 forward I I I I #
face $-1 $176 $177 $42 $-1 $178 reversed single #
loop $-1 $-1 $179 $70 #
plane-surface $-1 0 0 -14.447822347652506 0 0 1 1 0 0 forward_v I I I I #
coedge $-1 $180 $181 $182 $183 forward $71 $-1 #
face $-1 $184 $185 $43 $-1 $186 reversed single #
loop $-1 $-1 $187 $73 #
plane-surface $-1 -49.747166558516632 0 1.9825157468293746 0 0 1 1 0 0 forward_v I I I I #
coedge $-1 $188 $189 $190 $191 forward $74 $-1 #
face $-1 $192 $193 $44 $-1 $194 reversed single #
loop $-1 $-1 $195 $76 #
plane-surface $-1 -27.032615348626386 -14.626909575082308 53.323546873499339 0 0.68199836817093118 0.7313536940579346 1 0 0 forward_v I I I I #
coedge $-1 $196 $197 $198 $199 reversed $77 $-1 #
face $-1 $-1 $200 $45 $-1 $201 forward single #
loop $-1 $202 $203 $79 #
cone-surface $-1 -32.625744228797657 24.87866717644847 7.5457854246652314 0 -0.68199836817093118 -0.7313536940579346 0.75 0 0 1 I I -0.70710678118654757 0.70710678118654757 0.75 forward I I I I #
loop $-1 $-1 $204 $59 #
coedge $-1 $128 $128 $205 $206 reversed $80 $-1 #
face $-1 $-1 $207 $46 $-1 $208 forward single #
loop $-1 $209 $210 $82 #
cone-surface $-1 -27.03261534862639 24.87866717644847 7.5457854246652314 0 -0.68199836817093118 -0.7313536940579346 0.75 0 0 1 I I -0.70710678118654757 0.70710678118654757 0.75 forward I I I I #
loop $-1 $-1 $211 $60 #
coedge $-1 $133 $133 $212 $213 reversed $83 $-1 #
face $-1 $-1 $214 $47 $-1 $215 forward single #
loop $-1 $216 $217 $85 #
cone-surface $-1 -21.439486468455122 24.87866717644847 7.5457854246652314 0 -0.68199836817093118 -0.7313536940579346 0.75 0 0 1 I I -0.70710678118654757 0.70710678118654757 0.75 forward I I I I #
loop $-1 $-1 $218 $61 #
coedge $-1 $138 $138 $219 $220 reversed $86 $-1 #
face $-1 $221 $222 $48 $-1 $223 reversed single #
loop $-1 $-1 $224 $88 #
plane-surface $-1 44.026212161095366 -14.626909575082308 53.323546873499339 0 0.68199836817093118 0.7313536940579346 1 0 0 forward_v I I I I #
coedge $-1 $225 $226 $227 $228 reversed $89 $-1 #
face $-1 $-1 $229 $49 $-1 $230 forward single #
loop $-1 $231 $232 $91 #
cone-surface $-1 38.433083280924087 24.87866717644847 7.5457854246652314 0 -0.68199836817093118 -0.7313536940579346 0.75 0 0 1 I I -0.70710678118654757 0.70710678118654757 0.75 forward I I I I #
loop $-1 $-1 $233 $63 #
coedge $-1 $147 $147 $234 $235 reversed $92 $-1 #
face $-1 $-1 $236 $50 $-1 $237 forward single #
loop $-1 $238 $239 $94 #
cone-surface $-1 44.026212161095366 24.87866717644847 7.5457854246652314 0 -0.68199836817093118 -0.7313536940579346 0.75 0 0 1 I I -0.70710678118654757 0.70710678118654757 0.75 forward I I I I #
loop $-1 $-1 $240 $64 #
coedge $-1 $152 $152 $241 $242 reversed $95 $-1 #
face $-1 $-1 $243 $51 $-1 $244 forward single #
loop $-1 $245 $246 $97 #
cone-surface $-1 49.61934104126663 24.87866717644847 7.5457854246652314 0 -0.68199836817093118 -0.7313536940579346 0.75 0 0 1 I I -0.70710678118654757 0.70710678118654757 0.75 forward I I I I #
loop $-1 $-1 $247 $65 #
coedge $-1 $157 $157 $248 $249 reversed $98 $-1 #
face $-1 $250 $251 $52 $-1 $252 forward single #
loop $-1 $-1 $253 $100 #
plane-surface $-1 -29.675539884752897 -31.611575589148529 2.2740524204495358 0 -0.51503808176128008 0.85716729658548041 1 0 0 forward_v I I I I #
coedge $-1 $254 $255 $256 $257 reversed $101 $-1 #
face $-1 $-1 $258 $53 $-1 $259 forward single #
loop $-1 $260 $261 $103 #
cone-surface $-1 -29.675539884752897 -16.813277153826373 0.59204618026217837 0 0.51503808176128008 -0.85716729658548041 2 0 0 1 I I -0.70710678118654746 0.70710678118654746 2 forward I I I I #
loop $-1 $-1 $262 $67 #
coedge $-1 $166 $166 $263 $264 reversed $104 $-1 #
face $-1 $265 $266 $54 $-1 $267 reversed single #
loop $-1 $-1 $268 $106 #
plane-surface $-1 20.071626673763738 -31.611575589148529 2.2740524204495358 0 -0.51503808176128008 0.85716729658548041 1 0 0 forward_v I I I I #
coedge $-1 $269 $270 $271 $272 reversed $107 $-1 #
face $-1 $-1 $273 $55 $-1 $274 forward single #
loop $-1 $275 $276 $109 #
cone-surface $-1 20.071626673763738 -16.813277153826373 0.59204618026217837 0 0.51503808176128008 -0.85716729658548041 2 0 0 1 I I -0.70710678118654746 0.70710678118654746 2 forward I I I I #
loop $-1 $-1 $277 $69 #
coedge $-1 $175 $175 $278 $279 reversed $110 $-1 #
face $-1 $280 $281 $42 $-1 $282 reversed single #
loop $-1 $-1 $283 $112 #
plane-surface $-1 0 -31.611575589148547 0 0 1 0 0 0 1 forward_v I I I I #
coedge $-1 $284 $285 $286 $287 forward $113 $-1 #
coedge $-1 $288 $115 $289 $290 forward $71 $-1 #
coedge $-1 $115 $288 $291 $292 forward $71 $-1 #
coedge $-1 $293 $294 $115 $183 reversed $295 $-1 #
edge $-1 $296 -31.611575589148547 $297 31.611575589148547 $182 $298 forward 7 unknown #
face $-1 $299 $300 $43 $-1 $301 reversed single #
loop $-1 $-1 $302 $116 #
plane-surface $-1 -41.250368152282142 0 4.1929218935933985 -1 0 0 0 0 1 forward_v I I I I #
coedge $-1 $303 $304 $305 $306 forward $117 $-1 #
coedge $-1 $307 $119 $308 $309 reversed $74 $-1 #
coedge $-1 $119 $307 $310 $311 reversed $74 $-1 #
coedge $-1 $302 $312 $119 $191 reversed $185 $-1 #
edge $-1 $313 -31.611575589148547 $314 31.611575589148547 $190 $315 forward 7 unknown #
face $-1 $316 $317 $44 $-1 $318 forward single #
loop $-1 $-1 $319 $120 #
plane-surface $-1 -17.710733881674265 64.817668548448012 138.51742474060265 -1 0 0 0 0.68199836817093118 0.7313536940579346 forward_v I I I I #
coedge $-1 $320 $321 $322 $323 reversed $121 $-1 #
coedge $-1 $197 $123 $324 $325 reversed $77 $-1 #
coedge $-1 $123 $196 $320 $326 reversed $77 $-1 #
coedge $-1 $322 $327 $123 $199 forward $317 $-1 #
edge $-1 $328 0.79725868507545883 $329 5.3466342149108854 $198 $330 forward 7 unknown #
loop $-1 $-1 $205 $124 #
plane-surface $-1 -27.032615348626386 -14.626909575082308 53.323546873499339 0 0.68199836817093118 0.7313536940579346 1 0 0 forward_v I I I I #
loop $-1 $-1 $331 $79 #
coedge $-1 $203 $203 $204 $332 reversed $125 $-1 #
coedge $-1 $204 $204 $203 $332 forward $127 $-1 #
coedge $-1 $205 $205 $128 $206 forward $200 $-1 #
edge $-1 $333 -1.4983997267467158e-015 $333 6.2831853071795987 $205 $334 forward 7 unknown #
loop $-1 $-1 $212 $129 #
plane-surface $-1 -27.032615348626386 -14.626909575082308 53.323546873499339 0 0.68199836817093118 0.7313536940579346 1 0 0 forward_v I I I I #
loop $-1 $-1 $335 $82 #
coedge $-1 $210 $210 $211 $336 reversed $130 $-1 #
coedge $-1 $211 $211 $210 $336 forward $132 $-1 #
coedge $-1 $212 $212 $133 $213 forward $207 $-1 #
edge $-1 $337 -1.4983997267467158e-015 $337 6.2831853071795987 $212 $338 forward 7 unknown #
loop $-1 $-1 $219 $134 #
plane-surface $-1 -27.032615348626386 -14.626909575082308 53.323546873499339 0 0.68199836817093118 0.7313536940579346 1 0 0 forward_v I I I I #
loop $-1 $-1 $339 $85 #
coedge $-1 $217 $217 $218 $340 reversed $135 $-1 #
coedge $-1 $218 $218 $217 $340 forward $137 $-1 #
coedge $-1 $219 $219 $138 $220 forward $214 $-1 #
edge $-1 $341 -1.4983997267467158e-015 $341 6.2831853071795987 $219 $342 forward 7 unknown #
face $-1 $343 $344 $48 $-1 $345 forward single #
loop $-1 $-1 $346 $139 #
plane-surface $-1 53.348093628047486 64.817668548448012 138.51742474060265 -1 0 0 0 0.68199836817093118 0.7313536940579346 forward_v I I I I #
coedge $-1 $347 $348 $349 $350 reversed $140 $-1 #
coedge $-1 $226 $142 $351 $352 reversed $89 $-1 #
coedge $-1 $142 $225 $347 $353 reversed $89 $-1 #
coedge $-1 $349 $354 $142 $228 forward $344 $-1 #
edge $-1 $355 0.79725868507545883 $356 5.3466342149108854 $227 $357 forward 7 unknown #
loop $-1 $-1 $234 $143 #
plane-surface $-1 44.026212161095366 -14.626909575082308 53.323546873499339 0 0.68199836817093118 0.7313536940579346 1 0 0 forward_v I I I I #
loop $-1 $-1 $358 $91 #
coedge $-1 $232 $232 $233 $359 reversed $144 $-1 #
coedge $-1 $233 $233 $232 $359 forward $146 $-1 #
coedge $-1 $234 $234 $147 $235 forward $229 $-1 #
edge $-1 $360 -1.4983997267467158e-015 $360 6.2831853071795987 $234 $361 forward 7 unknown #
loop $-1 $-1 $241 $148 #
plane-surface $-1 44.026212161095366 -14.626909575082308 53.323546873499339 0 0.68199836817093118 0.7313536940579346 1 0 0 forward_v I I I I #
loop $-1 $-1 $362 $94 #
coedge $-1 $239 $239 $240 $363 reversed $149 $-1 #
coedge $-1 $240 $240 $239 $363 forward $151 $-1 #
coedge $-1 $241 $241 $152 $242 forward $236 $-1 #
edge $-1 $364 -1.4983997267467158e-015 $364 6.2831853071795987 $241 $365 forward 7 unknown #
loop $-1 $-1 $248 $153 #
plane-surface $-1 44.026212161095366 -14.626909575082308 53.323546873499339 0 0.68199836817093118 0.7313536940579346 1 0 0 forward_v I I I I #
loop $-1 $-1 $366 $97 #
coedge $-1 $246 $246 $247 $367 reversed $154 $-1 #
coedge $-1 $247 $247 $246 $367 forward $156 $-1 #
coedge $-1 $248 $248 $157 $249 forward $243 $-1 #
edge $-1 $368 -1.4983997267467158e-015 $368 6.2831853071795987 $248 $369 forward 7 unknown #
face $-1 $370 $371 $52 $-1 $372 forward single #
loop $-1 $-1 $256 $158 #
plane-surface $-1 0 0 14.447822347652506 0 0 1 1 0 0 forward_v I I I I #
coedge $-1 $373 $374 $375 $376 reversed $159 $-1 #
coedge $-1 $255 $161 $377 $378 reversed $101 $-1 #
coedge $-1 $161 $254 $373 $379 reversed $101 $-1 #
coedge $-1 $375 $380 $161 $257 forward $251 $-1 #
edge $-1 $381 14.192072195042339 $382 34.452627340925318 $256 $383 forward 7 unknown #
loop $-1 $-1 $263 $162 #
plane-surface $-1 -29.675539884752897 -31.611575589148529 2.2740524204495358 0 -0.51503808176128008 0.85716729658548041 1 0 0 forward_v I I I I #
loop $-1 $-1 $384 $103 #
coedge $-1 $261 $261 $262 $385 reversed $163 $-1 #
coedge $-1 $262 $262 $261 $385 forward $165 $-1 #
coedge $-1 $263 $263 $166 $264 forward $258 $-1 #
edge $-1 $386 3.2760630208265009e-018 $386 6.2831853071796004 $263 $387 forward 7 unknown #
face $-1 $388 $389 $54 $-1 $390 forward single #
loop $-1 $-1 $391 $167 #
plane-surface $-1 8.4967984062344932 -91.607295568381772 102.12369640295985 1 0 0 0 0.51503808176128008 -0.85716729658548041 forward_v I I I I #
coedge $-1 $392 $393 $394 $395 reversed $168 $-1 #
coedge $-1 $270 $170 $396 $397 reversed $107 $-1 #
coedge $-1 $170 $269 $392 $398 reversed $107 $-1 #
coedge $-1 $394 $399 $170 $272 forward $389 $-1 #
edge $-1 $400 14.192072195042339 $401 34.452627340925318 $271 $402 forward 7 unknown #
loop $-1 $-1 $278 $171 #
plane-surface $-1 20.071626673763738 -31.611575589148529 2.2740524204495358 0 -0.51503808176128008 0.85716729658548041 1 0 0 forward_v I I I I #
loop $-1 $-1 $403 $109 #
coedge $-1 $276 $276 $277 $404 reversed $172 $-1 #
coedge $-1 $277 $277 $276 $404 forward $174 $-1 #
coedge $-1 $278 $278 $175 $279 forward $273 $-1 #
edge $-1 $405 3.2760630208265009e-018 $405 6.2831853071796004 $278 $406 forward 7 unknown #
face $-1 $407 $408 $42 $-1 $409 reversed single #
loop $-1 $-1 $410 $176 #
plane-surface $-1 -58.243964964751122 0 0 1 0 0 0 0 -1 forward_v I I I I #
coedge $-1 $411 $291 $412 $413 forward $177 $-1 #
coedge $-1 $414 $179 $411 $415 forward $113 $-1 #
coedge $-1 $179 $414 $416 $417 forward $113 $-1 #
coedge $-1 $294 $293 $179 $287 reversed $295 $-1 #
edge $-1 $418 -31.611575589148547 $419 31.611575589148547 $286 $420 forward 7 unknown #
coedge $-1 $181 $180 $421 $422 forward $71 $-1 #
coedge $-1 $423 $424 $180 $290 reversed $408 $-1 #
edge $-1 $297 -58.243964964751122 $425 58.243964964751122 $289 $426 forward 7 unknown #
coedge $-1 $283 $427 $181 $292 reversed $177 $-1 #
edge $-1 $428 -58.243964964751122 $296 58.243964964751122 $291 $429 forward 7 unknown #
coedge $-1 $286 $182 $427 $430 forward $295 $-1 #
coedge $-1 $182 $286 $423 $431 reversed $295 $-1 #
loop $-1 $-1 $293 $407 #
vertex $-1 $183 $432 #
vertex $-1 $183 $433 #
straight-curve $-1 58.243964964751122 0 14.447822347652506 0 1 0 I I #
face $-1 $434 $435 $43 $-1 $436 reversed single #
loop $-1 $-1 $437 $184 #
plane-surface $-1 0 -31.611575589148547 0 0 1 0 0 0 1 forward_v I I I I #
coedge $-1 $305 $190 $438 $439 reversed $185 $-1 #
coedge $-1 $440 $187 $437 $441 reversed $117 $-1 #
coedge $-1 $187 $440 $442 $443 reversed $117 $-1 #
coedge $-1 $312 $302 $187 $306 reversed $185 $-1 #
edge $-1 $444 -31.611575589148547 $445 31.611575589148547 $305 $446 forward 7 unknown #
coedge $-1 $189 $188 $447 $448 reversed $74 $-1 #
coedge $-1 $449 $450 $188 $309 forward $451 $-1 #
edge $-1 $452 -33.370381685492802 $314 -16.376784873023826 $308 $453 forward 7 unknown #
coedge $-1 $454 $438 $189 $311 forward $300 $-1 #
edge $-1 $313 16.376784873023826 $455 33.370381685492802 $310 $456 forward 7 unknown #
coedge $-1 $190 $305 $449 $457 reversed $185 $-1 #
vertex $-1 $311 $458 #
vertex $-1 $309 $459 #
straight-curve $-1 -41.250368152282142 0 6.4033280403574224 0 1 0 I I #
face $-1 $-1 $460 $44 $-1 $461 reversed single #
loop $-1 $-1 $198 $192 #
plane-surface $-1 0 0 14.447822347652506 0 0 1 1 0 0 forward_v I I I I #
coedge $-1 $462 $463 $464 $465 reversed $193 $-1 #
coedge $-1 $466 $195 $197 $326 forward $121 $-1 #
coedge $-1 $195 $466 $462 $467 forward $121 $-1 #
coedge $-1 $464 $198 $195 $323 forward $317 $-1 #
edge $-1 $329 -22.838189141265314 $468 -4.1944262073610723 $322 $469 forward 7 unknown #
coedge $-1 $470 $471 $196 $325 forward $460 $-1 #
edge $-1 $472 -59.053251431024698 $328 -54.81089002264882 $324 $473 forward 7 unknown #
edge $-1 $329 57.002665021191518 $472 63.223151178297108 $197 $474 forward 7 unknown #
coedge $-1 $198 $464 $470 $475 forward $317 $-1 #
vertex $-1 $325 $476 #
vertex $-1 $199 $477 #
straight-curve $-1 -36.354496815578507 32.408834274224006 14.447822347652505 0 -1 0 I I #
coedge $-1 $331 $331 $-1 $478 reversed $202 $-1 #
edge $-1 $479 0 $479 6.2831853071796004 $203 $480 forward 7 unknown #
vertex $-1 $206 $481 #
ellipse-curve $-1 -32.625744228797657 29.336887824230839 12.326641643464562 0 0.68199836817093118 0.7313536940579346 1.5 0 0 1 I I #
coedge $-1 $335 $335 $-1 $482 reversed $209 $-1 #
edge $-1 $483 0 $483 6.2831853071796004 $210 $484 forward 7 unknown #
vertex $-1 $213 $485 #
ellipse-curve $-1 -27.03261534862639 29.336887824230839 12.326641643464562 0 0.68199836817093118 0.7313536940579346 1.5 0 0 1 I I #
coedge $-1 $339 $339 $-1 $486 reversed $216 $-1 #
edge $-1 $487 0 $487 6.2831853071796004 $217 $488 forward 7 unknown #
vertex $-1 $220 $489 #
ellipse-curve $-1 -21.439486468455122 29.336887824230839 12.326641643464562 0 0.68199836817093118 0.7313536940579346 1.5 0 0 1 I I #
face $-1 $-1 $490 $48 $-1 $491 reversed single #
loop $-1 $-1 $227 $221 #
plane-surface $-1 0 0 14.447822347652506 0 0 1 1 0 0 forward_v I I I I #
coedge $-1 $492 $493 $494 $495 reversed $222 $-1 #
coedge $-1 $496 $224 $226 $353 forward $140 $-1 #
coedge $-1 $224 $496 $492 $497 forward $140 $-1 #
coedge $-1 $494 $227 $224 $350 forward $344 $-1 #
edge $-1 $356 12.691224613595562 $498 31.334987547499804 $349 $499 forward 7 unknown #
coedge $-1 $500 $501 $225 $352 forward $490 $-1 #
edge $-1 $502 -59.053251431024698 $355 -54.81089002264882 $351 $503 forward 7 unknown #
edge $-1 $356 57.002665021191518 $502 63.223151178297108 $226 $504 forward 7 unknown #
coedge $-1 $227 $494 $500 $505 forward $344 $-1 #
vertex $-1 $228 $506 #
vertex $-1 $228 $507 #
straight-curve $-1 34.704330694143245 32.408834274224006 14.447822347652505 0 -1 0 I I #
coedge $-1 $358 $358 $-1 $508 reversed $231 $-1 #
edge $-1 $509 0 $509 6.2831853071796004 $232 $510 forward 7 unknown #
vertex $-1 $235 $511 #
ellipse-curve $-1 38.433083280924087 29.336887824230839 12.326641643464562 0 0.68199836817093118 0.7313536940579346 1.5 0 0 1 I I #
coedge $-1 $362 $362 $-1 $512 reversed $238 $-1 #
edge $-1 $513 0 $513 6.2831853071796004 $239 $514 forward 7 unknown #
vertex $-1 $242 $515 #
ellipse-curve $-1 44.026212161095366 29.336887824230839 12.326641643464562 0 0.68199836817093118 0.7313536940579346 1.5 0 0 1 I I #
coedge $-1 $366 $366 $-1 $516 reversed $245 $-1 #
edge $-1 $517 0 $517 6.2831853071796004 $246 $518 forward 7 unknown #
vertex $-1 $249 $519 #
ellipse-curve $-1 49.61934104126663 29.336887824230839 12.326641643464562 0 0.68199836817093118 0.7313536940579346 1.5 0 0 1 I I #
face $-1 $-1 $520 $52 $-1 $521 reversed single #
loop $-1 $-1 $522 $250 #
plane-surface $-1 -41.250368152282142 0 4.1929218935933985 -1 0 0 0 0 1 forward_v I I I I #
coedge $-1 $523 $253 $255 $379 forward $159 $-1 #
coedge $-1 $253 $523 $522 $524 reversed $159 $-1 #
coedge $-1 $525 $256 $253 $376 forward $251 $-1 #
edge $-1 $382 3.2629416748472035 $526 26.412598209905696 $375 $527 forward 7 unknown #
coedge $-1 $528 $529 $254 $378 forward $520 $-1 #
edge $-1 $530 -48.787795781030397 $381 -36.614025853827421 $377 $531 forward 7 unknown #
edge $-1 $382 -23.636640392827317 $530 2.0715698412527822e-014 $255 $532 forward 7 unknown #
coedge $-1 $256 $525 $528 $533 forward $251 $-1 #
vertex $-1 $378 $534 #
vertex $-1 $257 $535 #
straight-curve $-1 -18.100711617223652 -45.803647784190886 14.447822347652505 0 1 0 I I #
coedge $-1 $384 $384 $-1 $536 reversed $260 $-1 #
edge $-1 $537 0 $537 6.2831853071796004 $261 $538 forward 7 unknown #
vertex $-1 $264 $539 #
ellipse-curve $-1 -29.675539884752897 -21.481298016207067 8.3609373840510095 0 -0.51503808176128008 0.85716729658548041 4 0 0 1 I I #
face $-1 $-1 $540 $54 $-1 $541 reversed single #
loop $-1 $-1 $271 $265 #
plane-surface $-1 0 0 14.447822347652506 0 0 1 1 0 0 forward_v I I I I #
coedge $-1 $542 $543 $544 $545 reversed $266 $-1 #
coedge $-1 $546 $268 $270 $398 forward $168 $-1 #
coedge $-1 $268 $546 $542 $547 forward $168 $-1 #
coedge $-1 $544 $271 $268 $395 forward $389 $-1 #
edge $-1 $401 -21.610641604411114 $548 1.5390149306473759 $394 $549 forward 7 unknown #
coedge $-1 $550 $551 $269 $397 forward $540 $-1 #
edge $-1 $552 -48.787795781030397 $400 -36.614025853827421 $396 $553 forward 7 unknown #
edge $-1 $401 -23.636640392827317 $552 2.0715698412527822e-014 $270 $554 forward 7 unknown #
coedge $-1 $271 $544 $550 $555 forward $389 $-1 #
vertex $-1 $397 $556 #
vertex $-1 $272 $557 #
straight-curve $-1 31.646454941292983 -45.803647784190886 14.447822347652505 0 1 0 I I #
coedge $-1 $403 $403 $-1 $558 reversed $275 $-1 #
edge $-1 $559 0 $559 6.2831853071796004 $276 $560 forward 7 unknown #
vertex $-1 $279 $561 #
ellipse-curve $-1 20.071626673763738 -21.481298016207067 8.3609373840510095 0 -0.51503808176128008 0.85716729658548041 4 0 0 1 I I #
face $-1 $-1 $295 $42 $-1 $562 reversed single #
loop $-1 $-1 $423 $280 #
plane-surface $-1 0 31.611575589148547 0 0 -1 0 0 0 -1 forward_v I I I I #
coedge $-1 $563 $421 $424 $564 forward $281 $-1 #
coedge $-1 $427 $283 $284 $415 reversed $177 $-1 #
coedge $-1 $421 $563 $283 $413 reversed $281 $-1 #
edge $-1 $428 -14.447822347652506 $565 14.447822347652506 $412 $566 forward 7 unknown #
coedge $-1 $285 $284 $563 $567 forward $113 $-1 #
edge $-1 $419 -58.243964964751122 $565 58.243964964751122 $411 $568 forward 7 unknown #
coedge $-1 $424 $423 $285 $417 reversed $408 $-1 #
edge $-1 $569 -58.243964964751122 $418 58.243964964751122 $416 $570 forward 7 unknown #
vertex $-1 $287 $571 #
vertex $-1 $430 $572 #
straight-curve $-1 58.243964964751122 0 -14.447822347652506 0 -1 0 I I #
coedge $-1 $410 $412 $288 $422 reversed $281 $-1 #
edge $-1 $425 -31.611575589148547 $428 31.611575589148547 $421 $573 forward 7 unknown #
coedge $-1 $416 $289 $294 $431 forward $408 $-1 #
coedge $-1 $289 $416 $410 $564 reversed $408 $-1 #
vertex $-1 $290 $574 #
straight-curve $-1 0 31.611575589148547 14.447822347652506 -1 0 0 I I #
coedge $-1 $291 $411 $293 $430 reversed $177 $-1 #
vertex $-1 $422 $575 #
straight-curve $-1 0 -31.611575589148547 14.447822347652506 1 0 0 I I #
edge $-1 $296 -14.447822347652506 $419 14.447822347652506 $293 $576 forward 7 unknown #
edge $-1 $297 -14.447822347652506 $418 14.447822347652506 $294 $577 forward 7 unknown #
point $-1 58.243964964751122 -31.611575589148547 14.447822347652506 #
point $-1 58.243964964751122 31.611575589148547 14.447822347652506 #
face $-1 $-1 $451 $43 $-1 $578 reversed single #
loop $-1 $-1 $579 $299 #
plane-surface $-1 -58.243964964751122 0 0 1 0 0 0 0 -1 forward_v I I I I #
coedge $-1 $438 $454 $303 $441 forward $300 $-1 #
coedge $-1 $310 $437 $302 $439 forward $300 $-1 #
edge $-1 $445 -0.11394519996732466 $313 4.3068670935607232 $438 $580 forward 7 unknown #
coedge $-1 $304 $303 $579 $581 reversed $117 $-1 #
edge $-1 $582 -33.370381685492802 $445 -16.376784873023826 $437 $583 forward 7 unknown #
coedge $-1 $450 $449 $304 $443 forward $451 $-1 #
edge $-1 $444 16.376784873023826 $584 33.370381685492802 $442 $585 forward 7 unknown #
vertex $-1 $443 $586 #
vertex $-1 $441 $587 #
straight-curve $-1 -41.250368152282142 0 1.9825157468293746 0 -1 0 I I #
coedge $-1 $588 $589 $307 $448 forward $435 $-1 #
edge $-1 $455 -31.611575589148547 $452 31.611575589148547 $447 $590 forward 7 unknown #
coedge $-1 $442 $308 $312 $457 forward $451 $-1 #
coedge $-1 $308 $442 $588 $591 reversed $451 $-1 #
loop $-1 $-1 $442 $434 #
vertex $-1 $591 $592 #
straight-curve $-1 -24.873583279258316 31.611575589148547 6.4033280403574224 1 0 0 I I #
coedge $-1 $437 $310 $589 $593 forward $300 $-1 #
vertex $-1 $593 $594 #
straight-curve $-1 -24.873583279258316 -31.611575589148547 6.4033280403574224 -1 0 0 I I #
edge $-1 $314 -4.3068670935607232 $444 0.11394519996732466 $449 $595 forward 7 unknown #
point $-1 -41.250368152282142 -31.611575589148547 6.4033280403574224 #
point $-1 -41.250368152282142 31.611575589148547 6.4033280403574224 #
loop $-1 $-1 $324 $316 #
plane-surface $-1 0 31.611575589148547 0 0 -1 0 0 0 -1 forward_v I I I I #
coedge $-1 $463 $319 $321 $467 reversed $193 $-1 #
coedge $-1 $319 $462 $596 $597 reversed $193 $-1 #
coedge $-1 $327 $322 $319 $465 forward $317 $-1 #
edge $-1 $468 -5.3466342149108854 $598 -0.79725868507545883 $464 $599 forward 7 unknown #
coedge $-1 $321 $320 $471 $600 reversed $121 $-1 #
edge $-1 $601 -63.223151178297108 $468 -57.002665021191518 $462 $602 forward 7 unknown #
vertex $-1 $323 $603 #
straight-curve $-1 -13.516307674313193 27.062200059313124 14.447822347652508 1 0 0 I I #
coedge $-1 $596 $324 $327 $475 reversed $460 $-1 #
coedge $-1 $324 $596 $466 $600 forward $460 $-1 #
vertex $-1 $325 $604 #
straight-curve $-1 -36.354496815578507 31.611575589148547 69.258712370301325 0 0 1 I I #
straight-curve $-1 -36.354496815578507 -14.626909575082308 53.323546873499339 0 0.7313536940579346 -0.68199836817093118 I I #
edge $-1 $598 17.710733881674265 $328 36.354496815578507 $470 $605 forward 7 unknown #
point $-1 -36.354496815578507 31.611575589148547 14.447822347652506 #
point $-1 -36.354496815578507 27.06220005931312 14.447822347652505 #
edge $-1 $606 1 $606 0 $331 $-1 forward 7 unknown #
vertex $-1 $332 $607 #
ellipse-curve $-1 -32.625744228797657 25.39016595257667 8.0943006952086822 0 0.68199836817093118 0.7313536940579346 1.5 0 0 1 I I #
point $-1 -31.125744228797657 29.336887824230843 12.326641643464569 #
edge $-1 $608 1 $608 0 $335 $-1 forward 7 unknown #
vertex $-1 $336 $609 #
ellipse-curve $-1 -27.03261534862639 25.39016595257667 8.0943006952086822 0 0.68199836817093118 0.7313536940579346 1.5 0 0 1 I I #
point $-1 -25.53261534862639 29.336887824230843 12.326641643464569 #
edge $-1 $610 1 $610 0 $339 $-1 forward 7 unknown #
vertex $-1 $340 $611 #
ellipse-curve $-1 -21.439486468455122 25.39016595257667 8.0943006952086822 0 0.68199836817093118 0.7313536940579346 1.5 0 0 1 I I #
point $-1 -19.939486468455122 29.336887824230843 12.326641643464569 #
loop $-1 $-1 $351 $343 #
plane-surface $-1 0 31.611575589148547 0 0 -1 0 0 0 -1 forward_v I I I I #
coedge $-1 $493 $346 $348 $497 reversed $222 $-1 #
coedge $-1 $346 $492 $612 $613 reversed $222 $-1 #
coedge $-1 $354 $349 $346 $495 forward $344 $-1 #
edge $-1 $498 -5.3466342149108854 $614 -0.79725868507545883 $494 $615 forward 7 unknown #
coedge $-1 $348 $347 $501 $616 reversed $140 $-1 #
edge $-1 $617 -63.223151178297108 $498 -57.002665021191518 $492 $618 forward 7 unknown #
vertex $-1 $350 $619 #
straight-curve $-1 22.013106080547683 27.062200059313124 14.447822347652508 1 0 0 I I #
coedge $-1 $612 $351 $354 $505 reversed $490 $-1 #
coedge $-1 $351 $612 $496 $616 forward $490 $-1 #
vertex $-1 $352 $620 #
straight-curve $-1 34.704330694143245 31.611575589148547 69.258712370301325 0 0 1 I I #
straight-curve $-1 34.704330694143245 -14.626909575082308 53.323546873499339 0 0.7313536940579346 -0.68199836817093118 I I #
edge $-1 $614 -53.348093628047486 $355 -34.704330694143245 $500 $621 forward 7 unknown #
point $-1 34.704330694143245 31.611575589148547 14.447822347652506 #
point $-1 34.704330694143245 27.06220005931312 14.447822347652505 #
edge $-1 $622 1 $622 0 $358 $-1 forward 7 unknown #
vertex $-1 $359 $623 #
ellipse-curve $-1 38.433083280924087 25.39016595257667 8.0943006952086822 0 0.68199836817093118 0.7313536940579346 1.5 0 0 1 I I #
point $-1 39.933083280924087 29.336887824230843 12.326641643464569 #
edge $-1 $624 1 $624 0 $362 $-1 forward 7 unknown #
vertex $-1 $363 $625 #
ellipse-curve $-1 44.026212161095366 25.39016595257667 8.0943006952086822 0 0.68199836817093118 0.7313536940579346 1.5 0 0 1 I I #
point $-1 45.526212161095366 29.336887824230843 12.326641643464569 #
edge $-1 $626 1 $626 0 $366 $-1 forward 7 unknown #
vertex $-1 $367 $627 #
ellipse-curve $-1 49.61934104126663 25.39016595257667 8.0943006952086822 0 0.68199836817093118 0.7313536940579346 1.5 0 0 1 I I #
point $-1 51.11934104126663 29.336887824230843 12.326641643464569 #
loop $-1 $-1 $377 $370 #
plane-surface $-1 0 -31.611575589148547 0 0 1 0 0 0 1 forward_v I I I I #
coedge $-1 $628 $629 $374 $524 forward $371 $-1 #
coedge $-1 $374 $373 $529 $630 reversed $159 $-1 #
edge $-1 $526 -9.5942905722491663 $631 14.042349820578172 $522 $632 forward 7 unknown #
coedge $-1 $380 $375 $629 $633 forward $251 $-1 #
vertex $-1 $376 $634 #
straight-curve $-1 -14.837769942376449 -11.351020443265568 14.447822347652506 -1 0 0 I I #
coedge $-1 $635 $377 $380 $533 reversed $520 $-1 #
coedge $-1 $377 $635 $523 $630 forward $520 $-1 #
vertex $-1 $378 $636 #
straight-curve $-1 -18.100711617223652 -31.611575589148547 51.061848201479926 0 0 1 I I #
straight-curve $-1 -18.100711617223652 -31.611575589148529 2.2740524204495358 0 -0.85716729658548041 -0.51503808176128008 I I #
edge $-1 $637 -41.250368152282142 $381 -18.100711617223652 $528 $638 forward 7 unknown #
point $-1 -18.100711617223652 -31.611575589148547 14.447822347652506 #
point $-1 -18.100711617223652 -11.351020443265568 14.447822347652506 #
edge $-1 $639 1 $639 0 $384 $-1 forward 7 unknown #
vertex $-1 $385 $640 #
ellipse-curve $-1 -29.675539884752897 -17.843353317348935 2.3063807734331392 0 -0.51503808176128008 0.85716729658548041 4 0 0 1 I I #
point $-1 -25.675539884752897 -21.481298016207077 8.3609373840510273 #
loop $-1 $-1 $396 $388 #
plane-surface $-1 0 -31.611575589148547 0 0 1 0 0 0 1 forward_v I I I I #
coedge $-1 $543 $391 $393 $547 reversed $266 $-1 #
coedge $-1 $391 $542 $641 $642 reversed $266 $-1 #
coedge $-1 $399 $394 $391 $545 forward $389 $-1 #
edge $-1 $548 -34.452627340925318 $643 -14.192072195042339 $544 $644 forward 7 unknown #
coedge $-1 $393 $392 $551 $645 reversed $168 $-1 #
edge $-1 $646 -2.0715698412527822e-014 $548 23.636640392827317 $542 $647 forward 7 unknown #
vertex $-1 $395 $648 #
straight-curve $-1 10.035813336881869 -11.351020443265568 14.447822347652506 -1 0 0 I I #
coedge $-1 $641 $396 $399 $555 reversed $540 $-1 #
coedge $-1 $396 $641 $546 $645 forward $540 $-1 #
vertex $-1 $397 $649 #
straight-curve $-1 31.646454941292983 -31.611575589148547 51.061848201479926 0 0 1 I I #
straight-curve $-1 31.646454941292983 -31.611575589148529 2.2740524204495358 0 -0.85716729658548041 -0.51503808176128008 I I #
edge $-1 $643 8.4967984062344932 $400 31.646454941292983 $550 $650 forward 7 unknown #
point $-1 31.646454941292983 -31.611575589148547 14.447822347652506 #
point $-1 31.646454941292983 -11.351020443265568 14.447822347652506 #
edge $-1 $651 1 $651 0 $403 $-1 forward 7 unknown #
vertex $-1 $404 $652 #
ellipse-curve $-1 20.071626673763738 -17.843353317348935 2.3063807734331392 0 -0.51503808176128008 0.85716729658548041 4 0 0 1 I I #
point $-1 24.071626673763738 -21.481298016207077 8.3609373840510273 #
plane-surface $-1 58.243964964751122 0 0 -1 0 0 0 0 1 forward_v I I I I #
coedge $-1 $412 $410 $414 $567 reversed $281 $-1 #
edge $-1 $425 -14.447822347652506 $569 14.447822347652506 $424 $653 forward 7 unknown #
vertex $-1 $567 $654 #
straight-curve $-1 -58.243964964751122 -31.611575589148547 0 0 0 -1 I I #
edge $-1 $565 -31.611575589148547 $569 31.611575589148547 $563 $655 forward 7 unknown #
straight-curve $-1 0 -31.611575589148547 -14.447822347652506 -1 0 0 I I #
vertex $-1 $417 $656 #
straight-curve $-1 0 31.611575589148547 -14.447822347652506 1 0 0 I I #
point $-1 58.243964964751122 31.611575589148547 -14.447822347652506 #
point $-1 58.243964964751122 -31.611575589148547 -14.447822347652506 #
straight-curve $-1 -58.243964964751122 0 14.447822347652506 0 -1 0 I I #
point $-1 -58.243964964751122 31.611575589148547 14.447822347652506 #
point $-1 -58.243964964751122 -31.611575589148547 14.447822347652506 #
straight-curve $-1 58.243964964751122 -31.611575589148547 0 0 0 -1 I I #
straight-curve $-1 58.243964964751122 31.611575589148547 0 0 0 -1 I I #
plane-surface $-1 0 31.611575589148547 0 0 -1 0 0 0 -1 forward_v I I I I #
coedge $-1 $589 $588 $440 $581 forward $435 $-1 #
straight-curve $-1 -41.250368152282142 -31.611575589148547 2.0964609467966993 0 0 1 I I #
edge $-1 $584 -31.611575589148547 $582 31.611575589148547 $579 $657 forward 7 unknown #
vertex $-1 $441 $658 #
straight-curve $-1 -24.873583279258316 -31.611575589148547 1.9825157468293746 1 0 0 I I #
vertex $-1 $443 $659 #
straight-curve $-1 -24.873583279258316 31.611575589148547 1.9825157468293746 -1 0 0 I I #
point $-1 -41.250368152282142 31.611575589148547 1.9825157468293746 #
point $-1 -41.250368152282142 -31.611575589148547 1.9825157468293746 #
coedge $-1 $579 $447 $450 $591 forward $435 $-1 #
coedge $-1 $447 $579 $454 $593 reversed $435 $-1 #
straight-curve $-1 -58.243964964751122 0 6.4033280403574224 0 1 0 I I #
edge $-1 $452 -6.4033280403574224 $584 -1.9825157468293746 $450 $660 forward 7 unknown #
point $-1 -58.243964964751122 31.611575589148547 6.4033280403574224 #
edge $-1 $455 -6.4033280403574224 $582 -1.9825157468293746 $589 $661 forward 7 unknown #
point $-1 -58.243964964751122 -31.611575589148547 6.4033280403574224 #
straight-curve $-1 -41.250368152282142 31.611575589148547 2.0964609467966993 0 0 -1 I I #
coedge $-1 $471 $470 $463 $597 forward $460 $-1 #
edge $-1 $598 54.81089002264882 $601 59.053251431024698 $596 $662 forward 7 unknown #
vertex $-1 $475 $663 #
straight-curve $-1 -17.710733881674265 32.408834274224006 14.447822347652505 0 1 0 I I #
edge $-1 $601 4.1944262073610723 $472 22.838189141265314 $471 $664 forward 7 unknown #
vertex $-1 $600 $665 #
straight-curve $-1 -17.710733881674265 -14.626909575082308 53.323546873499339 0 -0.7313536940579346 0.68199836817093118 I I #
point $-1 -17.710733881674265 27.06220005931312 14.447822347652505 #
point $-1 -36.354496815578507 31.611575589148543 10.205460939276627 #
straight-curve $-1 0 31.611575589148547 14.447822347652506 -1 0 0 I I #
vertex $-1 $478 $666 #
point $-1 -31.125744228797657 25.39016595257667 8.0943006952086822 #
vertex $-1 $482 $667 #
point $-1 -25.53261534862639 25.39016595257667 8.0943006952086822 #
vertex $-1 $486 $668 #
point $-1 -19.939486468455122 25.39016595257667 8.0943006952086822 #
coedge $-1 $501 $500 $493 $613 forward $490 $-1 #
edge $-1 $614 54.81089002264882 $617 59.053251431024698 $612 $669 forward 7 unknown #
vertex $-1 $505 $670 #
straight-curve $-1 53.348093628047486 32.408834274224006 14.447822347652505 0 1 0 I I #
edge $-1 $617 -31.334987547499804 $502 -12.691224613595562 $501 $671 forward 7 unknown #
vertex $-1 $616 $672 #
straight-curve $-1 53.348093628047486 -14.626909575082308 53.323546873499339 0 -0.7313536940579346 0.68199836817093118 I I #
point $-1 53.348093628047486 27.06220005931312 14.447822347652505 #
point $-1 34.704330694143245 31.611575589148543 10.205460939276627 #
straight-curve $-1 0 31.611575589148547 14.447822347652506 -1 0 0 I I #
vertex $-1 $508 $673 #
point $-1 39.933083280924087 25.39016595257667 8.0943006952086822 #
vertex $-1 $512 $674 #
point $-1 45.526212161095366 25.39016595257667 8.0943006952086822 #
vertex $-1 $516 $675 #
point $-1 51.11934104126663 25.39016595257667 8.0943006952086822 #
coedge $-1 $629 $522 $635 $676 reversed $371 $-1 #
coedge $-1 $522 $628 $525 $633 reversed $371 $-1 #
edge $-1 $631 -26.412598209905696 $530 -3.2629416748472035 $529 $677 forward 7 unknown #
vertex $-1 $524 $678 #
straight-curve $-1 -41.250368152282142 -19.574932555735948 9.5063973354609619 0 -0.85716729658548041 -0.51503808176128008 I I #
edge $-1 $526 -34.452627340925318 $637 -14.192072195042339 $525 $679 forward 7 unknown #
point $-1 -41.250368152282142 -11.351020443265568 14.447822347652506 #
coedge $-1 $529 $528 $628 $676 forward $520 $-1 #
point $-1 -18.100711617223652 -31.611575589148547 2.2740524204495252 #
vertex $-1 $533 $680 #
straight-curve $-1 0 -31.611575589148547 14.447822347652506 1 0 0 I I #
vertex $-1 $536 $681 #
point $-1 -25.675539884752897 -17.843353317348935 2.3063807734331392 #
coedge $-1 $551 $550 $543 $642 forward $540 $-1 #
edge $-1 $643 36.614025853827421 $646 48.787795781030397 $641 $682 forward 7 unknown #
vertex $-1 $555 $683 #
straight-curve $-1 8.4967984062344932 -45.803647784190886 14.447822347652505 0 -1 0 I I #
edge $-1 $646 -1.5390149306473759 $552 21.610641604411114 $551 $684 forward 7 unknown #
vertex $-1 $645 $685 #
straight-curve $-1 8.4967984062344932 -31.611575589148529 2.2740524204495358 0 0.85716729658548041 0.51503808176128008 I I #
point $-1 8.4967984062344932 -11.351020443265568 14.447822347652506 #
point $-1 31.646454941292983 -31.611575589148547 2.2740524204495252 #
straight-curve $-1 0 -31.611575589148547 14.447822347652506 1 0 0 I I #
vertex $-1 $558 $686 #
point $-1 24.071626673763738 -17.843353317348935 2.3063807734331392 #
straight-curve $-1 -58.243964964751122 31.611575589148547 0 0 0 -1 I I #
point $-1 -58.243964964751122 -31.611575589148547 -14.447822347652506 #
straight-curve $-1 -58.243964964751122 0 -14.447822347652506 0 1 0 I I #
point $-1 -58.243964964751122 31.611575589148547 -14.447822347652506 #
straight-curve $-1 -58.243964964751122 0 1.9825157468293746 0 -1 0 I I #
point $-1 -58.243964964751122 -31.611575589148547 1.9825157468293746 #
point $-1 -58.243964964751122 31.611575589148547 1.9825157468293746 #
straight-curve $-1 -58.243964964751122 31.611575589148547 0 0 0 -1 I I #
straight-curve $-1 -58.243964964751122 -31.611575589148547 0 0 0 -1 I I #
straight-curve $-1 -17.710733881674265 31.611575589148547 69.258712370301325 0 0 -1 I I #
point $-1 -17.710733881674265 31.611575589148547 14.447822347652506 #
straight-curve $-1 -13.516307674313193 31.611575589148551 10.205460939276623 -1 0 0 I I #
point $-1 -17.710733881674265 31.611575589148543 10.205460939276627 #
point $-1 -32.625744228797657 24.367168400320271 6.9972701541217805 #
point $-1 -27.03261534862639 24.367168400320271 6.9972701541217805 #
point $-1 -21.439486468455122 24.367168400320271 6.9972701541217805 #
straight-curve $-1 53.348093628047486 31.611575589148547 69.258712370301325 0 0 -1 I I #
point $-1 53.348093628047486 31.611575589148547 14.447822347652506 #
straight-curve $-1 22.013106080547683 31.611575589148551 10.205460939276623 -1 0 0 I I #
point $-1 53.348093628047486 31.611575589148543 10.205460939276627 #
point $-1 38.433083280924087 24.367168400320271 6.9972701541217805 #
point $-1 44.026212161095366 24.367168400320271 6.9972701541217805 #
point $-1 49.61934104126663 24.367168400320271 6.9972701541217805 #
edge $-1 $637 36.614025853827421 $631 48.787795781030397 $635 $687 forward 7 unknown #
straight-curve $-1 -14.837769942376449 -31.611575589148547 2.2740524204495229 1 0 0 I I #
point $-1 -41.250368152282142 -31.611575589148547 2.2740524204495252 #
straight-curve $-1 -41.250368152282142 -45.803647784190886 14.447822347652505 0 -1 0 I I #
point $-1 -41.250368152282142 -31.611575589148547 14.447822347652506 #
point $-1 -29.675539884752897 -15.783200990303813 -1.1222884129087825 #
straight-curve $-1 8.4967984062344932 -31.611575589148547 51.061848201479926 0 0 -1 I I #
point $-1 8.4967984062344932 -31.611575589148547 14.447822347652506 #
straight-curve $-1 10.035813336881869 -31.611575589148547 2.2740524204495229 1 0 0 I I #
point $-1 8.4967984062344932 -31.611575589148547 2.2740524204495252 #
point $-1 20.071626673763738 -15.783200990303813 -1.1222884129087825 #
straight-curve $-1 -41.250368152282142 -31.611575589148547 51.061848201479926 0 0 -1 I I #
End-of-ACIS-data 