500 0 6 0           
7 Unknown 11 ACIS 5.0 NT 24 Fri Mar 26 00:32:49 1999 
-1 9.9999999999999995e-007 1e-010 
body $-1 $6 $-1 $7 #
body $-1 $8 $-1 $9 #
body $-1 $10 $-1 $11 #
body $-1 $12 $-1 $13 #
body $-1 $14 $-1 $15 #
body $-1 $16 $-1 $17 #
lump $-1 $-1 $18 $0 #
transform $-1 1 0 0 0 1 0 0 0 1 43.364360484633927 23.509552566825846 5.6918128442605713 1 rotate no_reflect no_shear #
lump $-1 $-1 $19 $1 #
transform $-1 1 0 0 0 0.76604443648966558 -0.64278761758704617 0 0.64278761758704617 0.76604443648966558 82.054284564721343 66.748529165502518 102.83924783172769 1 rotate no_reflect no_shear #
lump $-1 $-1 $20 $2 #
transform $-1 1 0 0 0 -0.76604443648966558 0.64278761758704617 0 -0.64278761758704617 -0.76604443648966558 80.050954677058556 42.149224865251469 6.6738517965779813 1 rotate no_reflect no_shear #
lump $-1 $-1 $21 $3 #
transform $-1 1 0 0 0 -0.76604443648966558 0.64278761758704617 0 -0.64278761758704617 -0.76604443648966558 84.057614452384144 42.149224865251469 6.6738517965779813 1 rotate no_reflect no_shear #
lump $-1 $-1 $22 $4 #
transform $-1 1 0 0 0 0.51503806187062418 0.85716730853699208 0 -0.85716730853699208 0.51503806187062418 46.387695008519955 -74.341024326083101 52.746455314061372 1 rotate no_reflect no_shear #
lump $-1 $-1 $23 $5 #
transform $-1 1 0 0 0 -0.51503806187062418 -0.85716730853699208 0 0.85716730853699208 -0.51503806187062418 46.387695008519955 2.6486336387564018 8.7360302061728969 1 rotate no_reflect no_shear #
shell $-1 $-1 $-1 $24 $-1 $6 #
shell $-1 $-1 $-1 $25 $-1 $8 #
shell $-1 $-1 $-1 $26 $-1 $10 #
shell $-1 $-1 $-1 $27 $-1 $12 #
shell $-1 $-1 $-1 $28 $-1 $14 #
shell $-1 $-1 $-1 $29 $-1 $16 #
face $-1 $30 $31 $18 $-1 $32 forward single #
face $-1 $33 $34 $19 $-1 $35 forward single #
face $-1 $36 $37 $20 $-1 $38 forward single #
face $-1 $39 $40 $21 $-1 $41 forward single #
face $-1 $42 $43 $22 $-1 $44 forward single #
face $-1 $45 $46 $23 $-1 $47 forward single #
face $-1 $48 $49 $18 $-1 $50 reversed single #
loop $-1 $-1 $51 $24 #
plane-surface $-1 0 0 5.6918128442605713 0 0 1 1 0 0 forward_v I I I I #
face $-1 $52 $53 $19 $-1 $54 reversed single #
loop $-1 $-1 $55 $25 #
plane-surface $-1 0 0 86.728720969267854 0 0 1 1 0 0 forward_v I I I I #
face $-1 $56 $57 $20 $-1 $58 forward single #
loop $-1 $59 $60 $26 #
cone-surface $-1 0 0 -1.6251869258705405 0 0 1 1 0 0 1 I I 0 1 1 forward I I I I #
face $-1 $61 $62 $21 $-1 $63 forward single #
loop $-1 $64 $65 $27 #
cone-surface $-1 0 0 -1.6251869258705405 0 0 1 1 0 0 1 I I 0 1 1 forward I I I I #
face $-1 $66 $67 $22 $-1 $68 reversed single #
loop $-1 $-1 $69 $28 #
plane-surface $-1 0 0 86.728720969267854 0 0 1 1 0 0 forward_v I I I I #
face $-1 $70 $71 $23 $-1 $72 forward single #
loop $-1 $73 $74 $29 #
cone-surface $-1 0 0 -1.0906704916531877 0 0 1 0.5 0 0 1 I I 0 1 0.5 forward I I I I #
face $-1 $75 $76 $18 $-1 $77 reversed single #
loop $-1 $-1 $78 $30 #
plane-surface $-1 0 0 -5.6918128442605713 0 0 1 1 0 0 forward_v I I I I #
coedge $-1 $79 $80 $81 $82 forward $31 $-1 #
face $-1 $83 $84 $19 $-1 $85 reversed single #
loop $-1 $-1 $86 $33 #
plane-surface $-1 0 0 -86.728720969267854 0 0 1 1 0 0 forward_v I I I I #
coedge $-1 $87 $88 $89 $90 forward $34 $-1 #
face $-1 $-1 $91 $20 $-1 $92 forward single #
loop $-1 $-1 $93 $36 #
plane-surface $-1 0 0 -2.750373851741081 0 0 -1 -1 0 0 forward_v I I I I #
loop $-1 $-1 $94 $26 #
coedge $-1 $60 $60 $93 $95 reversed $37 $-1 #
face $-1 $-1 $96 $21 $-1 $97 forward single #
loop $-1 $-1 $98 $39 #
plane-surface $-1 0 0 -2.750373851741081 0 0 -1 -1 0 0 forward_v I I I I #
loop $-1 $-1 $99 $27 #
coedge $-1 $65 $65 $98 $100 reversed $40 $-1 #
face $-1 $101 $102 $22 $-1 $103 reversed single #
loop $-1 $-1 $104 $42 #
plane-surface $-1 0 0 -86.728720969267854 0 0 1 1 0 0 forward_v I I I I #
coedge $-1 $105 $106 $107 $108 forward $43 $-1 #
face $-1 $-1 $109 $23 $-1 $110 forward single #
loop $-1 $-1 $111 $45 #
plane-surface $-1 0 0 -1.9313409833063755 0 0 -1 -1 0 0 forward_v I I I I #
loop $-1 $-1 $112 $29 #
coedge $-1 $74 $74 $111 $113 reversed $46 $-1 #
face $-1 $114 $115 $18 $-1 $116 reversed single #
loop $-1 $-1 $117 $48 #
plane-surface $-1 0 -23.509552566825846 0 0 1 0 0 0 1 forward_v I I I I #
coedge $-1 $118 $119 $120 $121 forward $49 $-1 #
coedge $-1 $122 $51 $123 $124 forward $31 $-1 #
coedge $-1 $51 $122 $125 $126 forward $31 $-1 #
coedge $-1 $127 $128 $51 $82 reversed $129 $-1 #
edge $-1 $130 -23.509552566825846 $131 23.509552566825846 $81 $132 forward 7 unknown #
face $-1 $133 $134 $19 $-1 $135 reversed single #
loop $-1 $-1 $136 $52 #
plane-surface $-1 0 -173.45744193853571 0 0 1 0 0 0 1 forward_v I I I I #
coedge $-1 $137 $138 $139 $140 forward $53 $-1 #
coedge $-1 $141 $55 $142 $143 forward $34 $-1 #
coedge $-1 $55 $141 $144 $145 forward $34 $-1 #
coedge $-1 $146 $147 $55 $90 reversed $148 $-1 #
edge $-1 $149 -173.45744193853571 $150 173.45744193853571 $89 $151 forward 7 unknown #
loop $-1 $152 $153 $56 #
cone-surface $-1 0 0 0 0 0 1 0.5 0 0 1 I I -0.70710678118654746 0.70710678118654746 0.5 forward I I I I #
coedge $-1 $93 $93 $60 $95 forward $57 $-1 #
coedge $-1 $94 $94 $153 $154 forward $59 $-1 #
edge $-1 $155 0 $155 6.2831853071796004 $93 $156 forward 7 unknown #
loop $-1 $157 $158 $61 #
cone-surface $-1 0 0 0 0 0 1 0.5 0 0 1 I I -0.70710678118654746 0.70710678118654746 0.5 forward I I I I #
coedge $-1 $98 $98 $65 $100 forward $62 $-1 #
coedge $-1 $99 $99 $158 $159 forward $64 $-1 #
edge $-1 $160 0 $160 6.2831853071796004 $98 $161 forward 7 unknown #
face $-1 $162 $163 $22 $-1 $164 reversed single #
loop $-1 $-1 $165 $66 #
plane-surface $-1 0 -173.45744193853571 0 0 1 0 0 0 1 forward_v I I I I #
coedge $-1 $166 $167 $168 $169 forward $67 $-1 #
coedge $-1 $170 $69 $171 $172 forward $43 $-1 #
coedge $-1 $69 $170 $173 $174 forward $43 $-1 #
coedge $-1 $175 $176 $69 $108 reversed $177 $-1 #
edge $-1 $178 -173.45744193853571 $179 173.45744193853571 $107 $180 forward 7 unknown #
loop $-1 $181 $182 $70 #
cone-surface $-1 0 0 0 0 0 1 0.25 0 0 1 I I -0.70710678118654746 0.70710678118654746 0.25 forward I I I I #
coedge $-1 $111 $111 $74 $113 forward $71 $-1 #
coedge $-1 $112 $112 $182 $183 forward $73 $-1 #
edge $-1 $184 0 $184 6.2831853071796004 $111 $185 forward 7 unknown #
face $-1 $186 $187 $18 $-1 $188 reversed single #
loop $-1 $-1 $189 $75 #
plane-surface $-1 -43.364360484633927 0 0 1 0 0 0 0 -1 forward_v I I I I #
coedge $-1 $190 $125 $191 $192 forward $76 $-1 #
coedge $-1 $193 $78 $190 $194 forward $49 $-1 #
coedge $-1 $78 $193 $195 $196 forward $49 $-1 #
coedge $-1 $128 $127 $78 $121 reversed $129 $-1 #
edge $-1 $197 -23.509552566825846 $198 23.509552566825846 $120 $199 forward 7 unknown #
coedge $-1 $80 $79 $200 $201 forward $31 $-1 #
coedge $-1 $202 $203 $79 $124 reversed $187 $-1 #
edge $-1 $131 -43.364360484633927 $204 43.364360484633927 $123 $205 forward 7 unknown #
coedge $-1 $117 $206 $80 $126 reversed $76 $-1 #
edge $-1 $207 -43.364360484633927 $130 43.364360484633927 $125 $208 forward 7 unknown #
coedge $-1 $120 $81 $206 $209 forward $129 $-1 #
coedge $-1 $81 $120 $202 $210 reversed $129 $-1 #
loop $-1 $-1 $127 $186 #
vertex $-1 $82 $211 #
vertex $-1 $82 $212 #
straight-curve $-1 43.364360484633927 0 5.6918128442605713 0 1 0 I I #
face $-1 $213 $214 $19 $-1 $215 reversed single #
loop $-1 $-1 $216 $83 #
plane-surface $-1 -4.6744364045465119 0 0 1 0 0 0 0 -1 forward_v I I I I #
coedge $-1 $217 $144 $218 $219 forward $84 $-1 #
coedge $-1 $220 $86 $217 $221 forward $53 $-1 #
coedge $-1 $86 $220 $222 $223 forward $53 $-1 #
coedge $-1 $147 $146 $86 $140 reversed $148 $-1 #
edge $-1 $224 -173.45744193853571 $225 173.45744193853571 $139 $226 forward 7 unknown #
coedge $-1 $88 $87 $227 $228 forward $34 $-1 #
coedge $-1 $229 $230 $87 $143 reversed $214 $-1 #
edge $-1 $150 -4.6744364045465119 $231 4.6744364045465119 $142 $232 forward 7 unknown #
coedge $-1 $136 $233 $88 $145 reversed $84 $-1 #
edge $-1 $234 -4.6744364045465119 $149 4.6744364045465119 $144 $235 forward 7 unknown #
coedge $-1 $139 $89 $233 $236 forward $148 $-1 #
coedge $-1 $89 $139 $229 $237 reversed $148 $-1 #
loop $-1 $-1 $146 $213 #
vertex $-1 $90 $238 #
vertex $-1 $90 $239 #
straight-curve $-1 4.6744364045465119 0 86.728720969267854 0 1 0 I I #
loop $-1 $-1 $240 $56 #
coedge $-1 $153 $153 $94 $154 reversed $91 $-1 #
edge $-1 $241 0 $241 6.2831853071796004 $153 $242 forward 7 unknown #
vertex $-1 $95 $243 #
ellipse-curve $-1 0 0 -2.750373851741081 0 0 -1 1 0 0 1 I I #
loop $-1 $-1 $244 $61 #
coedge $-1 $158 $158 $99 $159 reversed $96 $-1 #
edge $-1 $245 0 $245 6.2831853071796004 $158 $246 forward 7 unknown #
vertex $-1 $100 $247 #
ellipse-curve $-1 0 0 -2.750373851741081 0 0 -1 1 0 0 1 I I #
face $-1 $248 $249 $22 $-1 $250 reversed single #
loop $-1 $-1 $251 $101 #
plane-surface $-1 -12.541083689704166 0 0 1 0 0 0 0 -1 forward_v I I I I #
coedge $-1 $252 $173 $253 $254 forward $102 $-1 #
coedge $-1 $255 $104 $252 $256 forward $67 $-1 #
coedge $-1 $104 $255 $257 $258 forward $67 $-1 #
coedge $-1 $176 $175 $104 $169 reversed $177 $-1 #
edge $-1 $259 -173.45744193853571 $260 173.45744193853571 $168 $261 forward 7 unknown #
coedge $-1 $106 $105 $262 $263 forward $43 $-1 #
coedge $-1 $264 $265 $105 $172 reversed $249 $-1 #
edge $-1 $179 -12.541083689704166 $266 12.541083689704166 $171 $267 forward 7 unknown #
coedge $-1 $165 $268 $106 $174 reversed $102 $-1 #
edge $-1 $269 -12.541083689704166 $178 12.541083689704166 $173 $270 forward 7 unknown #
coedge $-1 $168 $107 $268 $271 forward $177 $-1 #
coedge $-1 $107 $168 $264 $272 reversed $177 $-1 #
loop $-1 $-1 $175 $248 #
vertex $-1 $108 $273 #
vertex $-1 $108 $274 #
straight-curve $-1 12.541083689704166 0 86.728720969267854 0 1 0 I I #
loop $-1 $-1 $275 $70 #
coedge $-1 $182 $182 $112 $183 reversed $109 $-1 #
edge $-1 $276 0 $276 6.2831853071796004 $182 $277 forward 7 unknown #
vertex $-1 $113 $278 #
ellipse-curve $-1 0 0 -1.9313409833063755 0 0 -1 0.5 0 0 1 I I #
face $-1 $-1 $129 $18 $-1 $279 reversed single #
loop $-1 $-1 $202 $114 #
plane-surface $-1 0 23.509552566825846 0 0 -1 0 0 0 -1 forward_v I I I I #
coedge $-1 $280 $200 $203 $281 forward $115 $-1 #
coedge $-1 $206 $117 $118 $194 reversed $76 $-1 #
coedge $-1 $200 $280 $117 $192 reversed $115 $-1 #
edge $-1 $207 -5.6918128442605713 $282 5.6918128442605713 $191 $283 forward 7 unknown #
coedge $-1 $119 $118 $280 $284 forward $49 $-1 #
edge $-1 $198 -43.364360484633927 $282 43.364360484633927 $190 $285 forward 7 unknown #
coedge $-1 $203 $202 $119 $196 reversed $187 $-1 #
edge $-1 $286 -43.364360484633927 $197 43.364360484633927 $195 $287 forward 7 unknown #
vertex $-1 $121 $288 #
vertex $-1 $209 $289 #
straight-curve $-1 43.364360484633927 0 -5.6918128442605713 0 -1 0 I I #
coedge $-1 $189 $191 $122 $201 reversed $115 $-1 #
edge $-1 $204 -23.509552566825846 $207 23.509552566825846 $200 $290 forward 7 unknown #
coedge $-1 $195 $123 $128 $210 forward $187 $-1 #
coedge $-1 $123 $195 $189 $281 reversed $187 $-1 #
vertex $-1 $124 $291 #
straight-curve $-1 0 23.509552566825846 5.6918128442605713 -1 0 0 I I #
coedge $-1 $125 $190 $127 $209 reversed $76 $-1 #
vertex $-1 $201 $292 #
straight-curve $-1 0 -23.509552566825846 5.6918128442605713 1 0 0 I I #
edge $-1 $130 -5.6918128442605713 $198 5.6918128442605713 $127 $293 forward 7 unknown #
edge $-1 $131 -5.6918128442605713 $197 5.6918128442605713 $128 $294 forward 7 unknown #
point $-1 43.364360484633927 -23.509552566825846 5.6918128442605713 #
point $-1 43.364360484633927 23.509552566825846 5.6918128442605713 #
face $-1 $-1 $148 $19 $-1 $295 reversed single #
loop $-1 $-1 $229 $133 #
plane-surface $-1 0 173.45744193853571 0 0 -1 0 0 0 -1 forward_v I I I I #
coedge $-1 $296 $227 $230 $297 forward $134 $-1 #
coedge $-1 $233 $136 $137 $221 reversed $84 $-1 #
coedge $-1 $227 $296 $136 $219 reversed $134 $-1 #
edge $-1 $234 -86.728720969267854 $298 86.728720969267854 $218 $299 forward 7 unknown #
coedge $-1 $138 $137 $296 $300 forward $53 $-1 #
edge $-1 $225 -4.6744364045465119 $298 4.6744364045465119 $217 $301 forward 7 unknown #
coedge $-1 $230 $229 $138 $223 reversed $214 $-1 #
edge $-1 $302 -4.6744364045465119 $224 4.6744364045465119 $222 $303 forward 7 unknown #
vertex $-1 $140 $304 #
vertex $-1 $236 $305 #
straight-curve $-1 4.6744364045465119 0 -86.728720969267854 0 -1 0 I I #
coedge $-1 $216 $218 $141 $228 reversed $134 $-1 #
edge $-1 $231 -173.45744193853571 $234 173.45744193853571 $227 $306 forward 7 unknown #
coedge $-1 $222 $142 $147 $237 forward $214 $-1 #
coedge $-1 $142 $222 $216 $297 reversed $214 $-1 #
vertex $-1 $143 $307 #
straight-curve $-1 0 173.45744193853571 86.728720969267854 -1 0 0 I I #
coedge $-1 $144 $217 $146 $236 reversed $84 $-1 #
vertex $-1 $228 $308 #
straight-curve $-1 0 -173.45744193853571 86.728720969267854 1 0 0 I I #
edge $-1 $149 -86.728720969267854 $225 86.728720969267854 $146 $309 forward 7 unknown #
edge $-1 $150 -86.728720969267854 $224 86.728720969267854 $147 $310 forward 7 unknown #
point $-1 4.6744364045465119 -173.45744193853571 86.728720969267854 #
point $-1 4.6744364045465119 173.45744193853571 86.728720969267854 #
coedge $-1 $240 $240 $-1 $311 reversed $152 $-1 #
vertex $-1 $154 $312 #
ellipse-curve $-1 0 0 -0.5 0 0 -1 1 0 0 1 I I #
point $-1 1 0 -2.750373851741081 #
coedge $-1 $244 $244 $-1 $313 reversed $157 $-1 #
vertex $-1 $159 $314 #
ellipse-curve $-1 0 0 -0.5 0 0 -1 1 0 0 1 I I #
point $-1 1 0 -2.750373851741081 #
face $-1 $-1 $177 $22 $-1 $315 reversed single #
loop $-1 $-1 $264 $162 #
plane-surface $-1 0 173.45744193853571 0 0 -1 0 0 0 -1 forward_v I I I I #
coedge $-1 $316 $262 $265 $317 forward $163 $-1 #
coedge $-1 $268 $165 $166 $256 reversed $102 $-1 #
coedge $-1 $262 $316 $165 $254 reversed $163 $-1 #
edge $-1 $269 -86.728720969267854 $318 86.728720969267854 $253 $319 forward 7 unknown #
coedge $-1 $167 $166 $316 $320 forward $67 $-1 #
edge $-1 $260 -12.541083689704166 $318 12.541083689704166 $252 $321 forward 7 unknown #
coedge $-1 $265 $264 $167 $258 reversed $249 $-1 #
edge $-1 $322 -12.541083689704166 $259 12.541083689704166 $257 $323 forward 7 unknown #
vertex $-1 $169 $324 #
vertex $-1 $271 $325 #
straight-curve $-1 12.541083689704166 0 -86.728720969267854 0 -1 0 I I #
coedge $-1 $251 $253 $170 $263 reversed $163 $-1 #
edge $-1 $266 -173.45744193853571 $269 173.45744193853571 $262 $326 forward 7 unknown #
coedge $-1 $257 $171 $176 $272 forward $249 $-1 #
coedge $-1 $171 $257 $251 $317 reversed $249 $-1 #
vertex $-1 $172 $327 #
straight-curve $-1 0 173.45744193853571 86.728720969267854 -1 0 0 I I #
coedge $-1 $173 $252 $175 $271 reversed $102 $-1 #
vertex $-1 $263 $328 #
straight-curve $-1 0 -173.45744193853571 86.728720969267854 1 0 0 I I #
edge $-1 $178 -86.728720969267854 $260 86.728720969267854 $175 $329 forward 7 unknown #
edge $-1 $179 -86.728720969267854 $259 86.728720969267854 $176 $330 forward 7 unknown #
point $-1 12.541083689704166 -173.45744193853571 86.728720969267854 #
point $-1 12.541083689704166 173.45744193853571 86.728720969267854 #
coedge $-1 $275 $275 $-1 $331 reversed $181 $-1 #
vertex $-1 $183 $332 #
ellipse-curve $-1 0 0 -0.25 0 0 -1 0.5 0 0 1 I I #
point $-1 0.5 0 -1.9313409833063755 #
plane-surface $-1 43.364360484633927 0 0 -1 0 0 0 0 1 forward_v I I I I #
coedge $-1 $191 $189 $193 $284 reversed $115 $-1 #
edge $-1 $204 -5.6918128442605713 $286 5.6918128442605713 $203 $333 forward 7 unknown #
vertex $-1 $284 $334 #
straight-curve $-1 -43.364360484633927 -23.509552566825846 0 0 0 -1 I I #
edge $-1 $282 -23.509552566825846 $286 23.509552566825846 $280 $335 forward 7 unknown #
straight-curve $-1 0 -23.509552566825846 -5.6918128442605713 -1 0 0 I I #
vertex $-1 $196 $336 #
straight-curve $-1 0 23.509552566825846 -5.6918128442605713 1 0 0 I I #
point $-1 43.364360484633927 23.509552566825846 -5.6918128442605713 #
point $-1 43.364360484633927 -23.509552566825846 -5.6918128442605713 #
straight-curve $-1 -43.364360484633927 0 5.6918128442605713 0 -1 0 I I #
point $-1 -43.364360484633927 23.509552566825846 5.6918128442605713 #
point $-1 -43.364360484633927 -23.509552566825846 5.6918128442605713 #
straight-curve $-1 43.364360484633927 -23.509552566825846 0 0 0 -1 I I #
straight-curve $-1 43.364360484633927 23.509552566825846 0 0 0 -1 I I #
plane-surface $-1 4.6744364045465119 0 0 -1 0 0 0 0 1 forward_v I I I I #
coedge $-1 $218 $216 $220 $300 reversed $134 $-1 #
edge $-1 $231 -86.728720969267854 $302 86.728720969267854 $230 $337 forward 7 unknown #
vertex $-1 $300 $338 #
straight-curve $-1 -4.6744364045465119 -173.45744193853571 0 0 0 -1 I I #
edge $-1 $298 -173.45744193853571 $302 173.45744193853571 $296 $339 forward 7 unknown #
straight-curve $-1 0 -173.45744193853571 -86.728720969267854 -1 0 0 I I #
vertex $-1 $223 $340 #
straight-curve $-1 0 173.45744193853571 -86.728720969267854 1 0 0 I I #
point $-1 4.6744364045465119 173.45744193853571 -86.728720969267854 #
point $-1 4.6744364045465119 -173.45744193853571 -86.728720969267854 #
straight-curve $-1 -4.6744364045465119 0 86.728720969267854 0 -1 0 I I #
point $-1 -4.6744364045465119 173.45744193853571 86.728720969267854 #
point $-1 -4.6744364045465119 -173.45744193853571 86.728720969267854 #
straight-curve $-1 4.6744364045465119 -173.45744193853571 0 0 0 -1 I I #
straight-curve $-1 4.6744364045465119 173.45744193853571 0 0 0 -1 I I #
edge $-1 $341 1 $341 0 $240 $-1 forward 7 unknown #
point $-1 1 0 -0.5 #
edge $-1 $342 1 $342 0 $244 $-1 forward 7 unknown #
point $-1 1 0 -0.5 #
plane-surface $-1 12.541083689704166 0 0 -1 0 0 0 0 1 forward_v I I I I #
coedge $-1 $253 $251 $255 $320 reversed $163 $-1 #
edge $-1 $266 -86.728720969267854 $322 86.728720969267854 $265 $343 forward 7 unknown #
vertex $-1 $320 $344 #
straight-curve $-1 -12.541083689704166 -173.45744193853571 0 0 0 -1 I I #
edge $-1 $318 -173.45744193853571 $322 173.45744193853571 $316 $345 forward 7 unknown #
straight-curve $-1 0 -173.45744193853571 -86.728720969267854 -1 0 0 I I #
vertex $-1 $258 $346 #
straight-curve $-1 0 173.45744193853571 -86.728720969267854 1 0 0 I I #
point $-1 12.541083689704166 173.45744193853571 -86.728720969267854 #
point $-1 12.541083689704166 -173.45744193853571 -86.728720969267854 #
straight-curve $-1 -12.541083689704166 0 86.728720969267854 0 -1 0 I I #
point $-1 -12.541083689704166 173.45744193853571 86.728720969267854 #
point $-1 -12.541083689704166 -173.45744193853571 86.728720969267854 #
straight-curve $-1 12.541083689704166 -173.45744193853571 0 0 0 -1 I I #
straight-curve $-1 12.541083689704166 173.45744193853571 0 0 0 -1 I I #
edge $-1 $347 1 $347 0 $275 $-1 forward 7 unknown #
point $-1 0.5 0 -0.25 #
straight-curve $-1 -43.364360484633927 23.509552566825846 0 0 0 -1 I I #
point $-1 -43.364360484633927 -23.509552566825846 -5.6918128442605713 #
straight-curve $-1 -43.364360484633927 0 -5.6918128442605713 0 1 0 I I #
point $-1 -43.364360484633927 23.509552566825846 -5.6918128442605713 #
straight-curve $-1 -4.6744364045465119 173.45744193853571 0 0 0 -1 I I #
point $-1 -4.6744364045465119 -173.45744193853571 -86.728720969267854 #
straight-curve $-1 -4.6744364045465119 0 -86.728720969267854 0 1 0 I I #
point $-1 -4.6744364045465119 173.45744193853571 -86.728720969267854 #
vertex $-1 $311 $348 #
vertex $-1 $313 $349 #
straight-curve $-1 -12.541083689704166 173.45744193853571 0 0 0 -1 I I #
point $-1 -12.541083689704166 -173.45744193853571 -86.728720969267854 #
straight-curve $-1 -12.541083689704166 0 -86.728720969267854 0 1 0 I I #
point $-1 -12.541083689704166 173.45744193853571 -86.728720969267854 #
vertex $-1 $331 $350 #
point $-1 0 0 0.5 #
point $-1 0 0 0.5 #
point $-1 0 0 0.25 #
End-of-ACIS-data 