500 0 2 0           
7 Unknown 11 ACIS 5.0 NT 24 Fri Mar 26 16:34:20 1999 
-1 9.9999999999999995e-007 1e-010 
body $-1 $2 $-1 $3 #
body $-1 $4 $-1 $5 #
lump $-1 $-1 $6 $0 #
transform $-1 1 0 0 0 1 0 0 0 1 76.413464766380812 37.258530998443241 13.133441716916995 1 rotate no_reflect no_shear #
lump $-1 $-1 $7 $1 #
transform $-1 1 0 0 0 1 0 0 0 1 76.413464766380812 37.258530998443241 13.133441716916995 1 rotate no_reflect no_shear #
shell $-1 $-1 $-1 $8 $-1 $2 #
shell $-1 $-1 $-1 $9 $-1 $4 #
face $-1 $10 $11 $6 $-1 $12 forward single #
face $-1 $13 $14 $7 $-1 $15 reversed single #
face $-1 $16 $17 $6 $-1 $18 reversed single #
loop $-1 $-1 $19 $8 #
plane-surface $-1 0 0 13.133441716916995 0 0 1 1 0 0 forward_v I I I I #
face $-1 $20 $21 $7 $-1 $22 reversed single #
loop $-1 $-1 $23 $9 #
plane-surface $-1 -81.277631925903364 -24.076590014989399 0 0 1 0 0 0 1 forward_v I I I I #
face $-1 $24 $25 $6 $-1 $26 reversed single #
loop $-1 $-1 $27 $10 #
plane-surface $-1 0 0 -13.133441716916995 0 0 1 1 0 0 forward_v I I I I #
coedge $-1 $28 $29 $30 $31 forward $11 $-1 #
face $-1 $32 $33 $7 $-1 $34 reversed single #
loop $-1 $-1 $35 $13 #
plane-surface $-1 -86.141799085425916 -22.359065948057392 0 1 0 0 0 0 -1 forward_v I I I I #
coedge $-1 $36 $37 $38 $39 forward $14 $-1 #
face $-1 $40 $41 $6 $-1 $42 reversed single #
loop $-1 $-1 $43 $16 #
plane-surface $-1 0 -37.258530998443241 0 0 1 0 0 0 1 forward_v I I I I #
coedge $-1 $44 $45 $46 $47 forward $17 $-1 #
coedge $-1 $48 $19 $49 $50 forward $11 $-1 #
coedge $-1 $19 $48 $51 $52 forward $11 $-1 #
coedge $-1 $53 $54 $19 $31 reversed $55 $-1 #
edge $-1 $56 -37.258530998443241 $57 37.258530998443241 $30 $58 forward 7 unknown #
face $-1 $59 $60 $7 $-1 $61 reversed single #
loop $-1 $-1 $62 $20 #
plane-surface $-1 -81.277631925903364 -20.641541881125384 0 0 -1 0 0 0 -1 forward_v I I I I #
coedge $-1 $63 $64 $65 $66 forward $21 $-1 #
coedge $-1 $67 $23 $68 $69 reversed $14 $-1 #
coedge $-1 $23 $67 $70 $71 reversed $14 $-1 #
coedge $-1 $64 $63 $23 $39 reversed $21 $-1 #
edge $-1 $72 -13.133441716916995 $73 13.133441716916995 $38 $74 forward 7 unknown #
face $-1 $75 $76 $6 $-1 $77 reversed single #
loop $-1 $-1 $78 $24 #
plane-surface $-1 -76.413464766380812 0 0 1 0 0 0 0 -1 forward_v I I I I #
coedge $-1 $79 $51 $80 $81 forward $25 $-1 #
coedge $-1 $82 $27 $79 $83 forward $17 $-1 #
coedge $-1 $27 $82 $84 $85 forward $17 $-1 #
coedge $-1 $54 $53 $27 $47 reversed $55 $-1 #
edge $-1 $86 -37.258530998443241 $87 37.258530998443241 $46 $88 forward 7 unknown #
coedge $-1 $29 $28 $89 $90 forward $11 $-1 #
coedge $-1 $91 $92 $28 $50 reversed $76 $-1 #
edge $-1 $57 -76.413464766380812 $93 76.413464766380812 $49 $94 forward 7 unknown #
coedge $-1 $43 $95 $29 $52 reversed $25 $-1 #
edge $-1 $96 -76.413464766380812 $56 76.413464766380812 $51 $97 forward 7 unknown #
coedge $-1 $46 $30 $95 $98 forward $55 $-1 #
coedge $-1 $30 $46 $91 $99 reversed $55 $-1 #
loop $-1 $-1 $53 $75 #
vertex $-1 $31 $100 #
vertex $-1 $31 $101 #
straight-curve $-1 76.413464766380812 0 13.133441716916995 0 1 0 I I #
face $-1 $102 $103 $7 $-1 $61 reversed single #
loop $-1 $-1 $104 $32 #
plane-surface $-1 -76.413464766380812 0 0 1 0 0 0 0 -1 forward_v I I I I #
coedge $-1 $105 $106 $104 $107 reversed $33 $-1 #
coedge $-1 $38 $35 $108 $109 reversed $21 $-1 #
coedge $-1 $35 $38 $110 $111 reversed $21 $-1 #
coedge $-1 $106 $105 $35 $66 reversed $33 $-1 #
edge $-1 $112 -13.133441716916995 $113 13.133441716916995 $65 $114 forward 7 unknown #
coedge $-1 $37 $36 $115 $116 reversed $14 $-1 #
coedge $-1 $108 $117 $36 $69 forward $118 $-1 #
edge $-1 $119 -4.8641671595225517 $73 4.8641671595225517 $36 $120 forward 7 unknown #
coedge $-1 $121 $110 $37 $71 forward $122 $-1 #
edge $-1 $72 -4.8641671595225517 $123 4.8641671595225517 $37 $124 forward 7 unknown #
vertex $-1 $111 $125 #
vertex $-1 $109 $126 #
straight-curve $-1 -86.141799085425916 -24.076590014989399 0 0 0 -1 I I #
face $-1 $-1 $55 $6 $-1 $127 reversed single #
loop $-1 $-1 $91 $40 #
plane-surface $-1 0 37.258530998443241 0 0 -1 0 0 0 -1 forward_v I I I I #
coedge $-1 $128 $89 $92 $129 forward $41 $-1 #
coedge $-1 $95 $43 $44 $83 reversed $25 $-1 #
coedge $-1 $89 $128 $43 $81 reversed $41 $-1 #
edge $-1 $96 -13.133441716916995 $130 13.133441716916995 $80 $131 forward 7 unknown #
coedge $-1 $45 $44 $128 $132 forward $17 $-1 #
edge $-1 $87 -76.413464766380812 $130 76.413464766380812 $79 $133 forward 7 unknown #
coedge $-1 $92 $91 $45 $85 reversed $76 $-1 #
edge $-1 $134 -76.413464766380812 $86 76.413464766380812 $84 $135 forward 7 unknown #
vertex $-1 $47 $136 #
vertex $-1 $98 $137 #
straight-curve $-1 76.413464766380812 0 -13.133441716916995 0 -1 0 I I #
coedge $-1 $78 $80 $48 $90 reversed $41 $-1 #
edge $-1 $93 -37.258530998443241 $96 37.258530998443241 $89 $138 forward 7 unknown #
coedge $-1 $84 $49 $54 $99 forward $76 $-1 #
coedge $-1 $49 $84 $78 $129 reversed $76 $-1 #
vertex $-1 $50 $139 #
straight-curve $-1 0 37.258530998443241 13.133441716916995 -1 0 0 I I #
coedge $-1 $51 $79 $53 $98 reversed $25 $-1 #
vertex $-1 $90 $140 #
straight-curve $-1 0 -37.258530998443241 13.133441716916995 1 0 0 I I #
edge $-1 $56 -13.133441716916995 $87 13.133441716916995 $53 $141 forward 7 unknown #
edge $-1 $57 -13.133441716916995 $86 13.133441716916995 $54 $142 forward 7 unknown #
point $-1 76.413464766380812 -37.258530998443241 13.133441716916995 #
point $-1 76.413464766380812 37.258530998443241 13.133441716916995 #
face $-1 $143 $122 $7 $-1 $144 forward single #
loop $-1 $-1 $115 $59 #
coedge $-1 $145 $146 $62 $107 forward $60 $-1 #
coedge $-1 $65 $62 $147 $148 reversed $33 $-1 #
coedge $-1 $62 $65 $149 $150 reversed $33 $-1 #
edge $-1 $151 -13.133441716916995 $152 13.133441716916995 $104 $153 forward 7 unknown #
coedge $-1 $147 $68 $63 $109 forward $118 $-1 #
edge $-1 $73 -1.7175240669320075 $113 1.7175240669320075 $63 $154 forward 7 unknown #
coedge $-1 $70 $149 $64 $111 forward $122 $-1 #
edge $-1 $112 -1.7175240669320075 $72 1.7175240669320075 $64 $155 forward 7 unknown #
vertex $-1 $150 $156 #
vertex $-1 $148 $157 #
straight-curve $-1 -86.141799085425916 -20.641541881125384 0 0 0 -1 I I #
coedge $-1 $158 $159 $67 $116 forward $103 $-1 #
edge $-1 $123 -13.133441716916995 $119 13.133441716916995 $115 $160 forward 7 unknown #
coedge $-1 $68 $161 $158 $162 forward $118 $-1 #
loop $-1 $-1 $163 $143 #
vertex $-1 $69 $164 #
straight-curve $-1 -81.277631925903364 -24.076590014989399 -13.133441716916995 -1 0 0 I I #
coedge $-1 $165 $70 $159 $166 forward $122 $-1 #
loop $-1 $-1 $167 $102 #
vertex $-1 $166 $168 #
straight-curve $-1 -81.277631925903364 -24.076590014989399 13.133441716916995 1 0 0 I I #
point $-1 -86.141799085425916 -24.076590014989399 13.133441716916995 #
point $-1 -86.141799085425916 -24.076590014989399 -13.133441716916995 #
plane-surface $-1 76.413464766380812 0 0 -1 0 0 0 0 1 forward_v I I I I #
coedge $-1 $80 $78 $82 $132 reversed $41 $-1 #
edge $-1 $93 -13.133441716916995 $134 13.133441716916995 $92 $169 forward 7 unknown #
vertex $-1 $132 $170 #
straight-curve $-1 -76.413464766380812 -37.258530998443241 0 0 0 -1 I I #
edge $-1 $130 -37.258530998443241 $134 37.258530998443241 $128 $171 forward 7 unknown #
straight-curve $-1 0 -37.258530998443241 -13.133441716916995 -1 0 0 I I #
vertex $-1 $85 $172 #
straight-curve $-1 0 37.258530998443241 -13.133441716916995 1 0 0 I I #
point $-1 76.413464766380812 37.258530998443241 -13.133441716916995 #
point $-1 76.413464766380812 -37.258530998443241 -13.133441716916995 #
straight-curve $-1 -76.413464766380812 0 13.133441716916995 0 -1 0 I I #
point $-1 -76.413464766380812 37.258530998443241 13.133441716916995 #
point $-1 -76.413464766380812 -37.258530998443241 13.133441716916995 #
straight-curve $-1 76.413464766380812 -37.258530998443241 0 0 0 -1 I I #
straight-curve $-1 76.413464766380812 37.258530998443241 0 0 0 -1 I I #
face $-1 $173 $118 $7 $-1 $174 reversed single #
plane-surface $-1 0 0 13.133441716916995 0 0 1 1 0 0 forward_v I I I I #
coedge $-1 $175 $104 $176 $177 reversed $60 $-1 #
coedge $-1 $104 $175 $178 $179 reversed $60 $-1 #
coedge $-1 $178 $108 $105 $148 forward $118 $-1 #
edge $-1 $113 -4.8641671595225517 $151 4.8641671595225517 $105 $180 forward 7 unknown #
coedge $-1 $110 $176 $106 $150 forward $122 $-1 #
edge $-1 $152 -4.8641671595225517 $112 4.8641671595225517 $106 $181 forward 7 unknown #
vertex $-1 $179 $182 #
vertex $-1 $150 $183 #
straight-curve $-1 -76.413464766380812 -20.641541881125384 0 0 0 1 I I #
straight-curve $-1 -86.141799085425916 -22.359065948057392 -13.133441716916995 0 1 0 I I #
straight-curve $-1 -86.141799085425916 -22.359065948057392 13.133441716916995 0 -1 0 I I #
point $-1 -86.141799085425916 -20.641541881125384 13.133441716916995 #
point $-1 -86.141799085425916 -20.641541881125384 -13.133441716916995 #
coedge $-1 $184 $115 $117 $162 reversed $103 $-1 #
coedge $-1 $115 $184 $121 $166 reversed $103 $-1 #
straight-curve $-1 -76.413464766380812 -24.076590014989399 0 0 0 -1 I I #
coedge $-1 $117 $163 $185 $186 forward $118 $-1 #
edge $-1 $187 -37.258530998443241 $119 -24.076590014989399 $158 $188 forward 7 unknown #
coedge $-1 $161 $189 $190 $191 forward $118 $-1 #
point $-1 -76.413464766380812 -24.076590014989399 -13.133441716916995 #
coedge $-1 $167 $121 $192 $193 forward $122 $-1 #
edge $-1 $123 24.076590014989399 $194 37.258530998443241 $159 $195 forward 7 unknown #
coedge $-1 $196 $165 $197 $198 forward $122 $-1 #
point $-1 -76.413464766380812 -24.076590014989399 13.133441716916995 #
straight-curve $-1 -76.413464766380812 37.258530998443241 0 0 0 -1 I I #
point $-1 -76.413464766380812 -37.258530998443241 -13.133441716916995 #
straight-curve $-1 -76.413464766380812 0 -13.133441716916995 0 1 0 I I #
point $-1 -76.413464766380812 37.258530998443241 -13.133441716916995 #
face $-1 $199 $200 $7 $-1 $201 reversed single #
plane-surface $-1 0 0 -13.133441716916995 0 0 1 1 0 0 forward_v I I I I #
coedge $-1 $146 $145 $202 $203 forward $60 $-1 #
coedge $-1 $149 $196 $145 $177 forward $122 $-1 #
edge $-1 $204 -37.258530998443241 $152 20.641541881125384 $145 $195 forward 7 unknown #
coedge $-1 $189 $147 $146 $179 forward $118 $-1 #
edge $-1 $151 -20.641541881125384 $205 37.258530998443241 $146 $188 forward 7 unknown #
straight-curve $-1 -81.277631925903364 -20.641541881125384 -13.133441716916995 1 0 0 I I #
straight-curve $-1 -81.277631925903364 -20.641541881125384 13.133441716916995 -1 0 0 I I #
point $-1 -76.413464766380812 -20.641541881125384 -13.133441716916995 #
point $-1 -76.413464766380812 -20.641541881125384 13.133441716916995 #
coedge $-1 $159 $158 $206 $207 reversed $103 $-1 #
coedge $-1 $208 $206 $161 $186 reversed $200 $-1 #
edge $-1 $209 -76.413464766380812 $187 76.413464766380812 $185 $210 forward 7 unknown #
vertex $-1 $162 $211 #
straight-curve $-1 -76.413464766380812 0 -13.133441716916995 0 1 0 I I #
coedge $-1 $163 $178 $212 $213 forward $118 $-1 #
coedge $-1 $214 $215 $163 $191 reversed $216 $-1 #
edge $-1 $217 -37.258530998443241 $209 37.258530998443241 $190 $218 forward 7 unknown #
coedge $-1 $206 $208 $165 $193 reversed $200 $-1 #
edge $-1 $194 -76.413464766380812 $219 76.413464766380812 $192 $220 forward 7 unknown #
vertex $-1 $166 $221 #
straight-curve $-1 -76.413464766380812 0 13.133441716916995 0 -1 0 I I #
coedge $-1 $176 $167 $222 $223 forward $122 $-1 #
coedge $-1 $215 $214 $167 $198 reversed $216 $-1 #
edge $-1 $219 -37.258530998443241 $224 37.258530998443241 $197 $225 forward 7 unknown #
face $-1 $226 $227 $7 $-1 $228 reversed single #
loop $-1 $-1 $206 $173 #
plane-surface $-1 0 -37.258530998443241 0 0 1 0 0 0 1 forward_v I I I I #
coedge $-1 $222 $212 $175 $203 reversed $227 $-1 #
edge $-1 $204 -13.133441716916995 $205 13.133441716916995 $202 $229 forward 7 unknown #
vertex $-1 $223 $230 #
vertex $-1 $213 $231 #
coedge $-1 $185 $192 $184 $207 forward $200 $-1 #
edge $-1 $194 -13.133441716916995 $187 13.133441716916995 $184 $232 forward 7 unknown #
coedge $-1 $192 $185 $215 $233 reversed $200 $-1 #
vertex $-1 $233 $234 #
straight-curve $-1 0 -37.258530998443241 -13.133441716916995 -1 0 0 I I #
point $-1 -76.413464766380812 -37.258530998443241 -13.133441716916995 #
coedge $-1 $202 $235 $189 $213 reversed $227 $-1 #
edge $-1 $205 -76.413464766380812 $217 76.413464766380812 $212 $236 forward 7 unknown #
coedge $-1 $197 $190 $235 $237 reversed $216 $-1 #
coedge $-1 $190 $197 $208 $233 forward $216 $-1 #
loop $-1 $-1 $215 $226 #
vertex $-1 $191 $238 #
straight-curve $-1 76.413464766380812 0 -13.133441716916995 0 -1 0 I I #
vertex $-1 $198 $239 #
straight-curve $-1 0 -37.258530998443241 13.133441716916995 1 0 0 I I #
point $-1 -76.413464766380812 -37.258530998443241 13.133441716916995 #
coedge $-1 $235 $202 $196 $223 reversed $227 $-1 #
edge $-1 $224 -76.413464766380812 $204 76.413464766380812 $222 $240 forward 7 unknown #
vertex $-1 $198 $241 #
straight-curve $-1 76.413464766380812 0 13.133441716916995 0 1 0 I I #
face $-1 $-1 $216 $7 $-1 $242 reversed single #
loop $-1 $-1 $235 $199 #
plane-surface $-1 0 37.258530998443241 0 0 -1 0 0 0 -1 forward_v I I I I #
straight-curve $-1 -76.413464766380812 37.258530998443241 0 0 0 -1 I I #
point $-1 -76.413464766380812 37.258530998443241 13.133441716916995 #
point $-1 -76.413464766380812 37.258530998443241 -13.133441716916995 #
straight-curve $-1 -76.413464766380812 -37.258530998443241 0 0 0 -1 I I #
edge $-1 $219 -13.133441716916995 $209 13.133441716916995 $215 $243 forward 7 unknown #
point $-1 76.413464766380812 -37.258530998443241 -13.133441716916995 #
coedge $-1 $212 $222 $214 $237 forward $227 $-1 #
straight-curve $-1 0 37.258530998443241 -13.133441716916995 1 0 0 I I #
edge $-1 $224 -13.133441716916995 $217 13.133441716916995 $214 $244 forward 7 unknown #
point $-1 76.413464766380812 37.258530998443241 -13.133441716916995 #
point $-1 76.413464766380812 -37.258530998443241 13.133441716916995 #
straight-curve $-1 0 37.258530998443241 13.133441716916995 -1 0 0 I I #
point $-1 76.413464766380812 37.258530998443241 13.133441716916995 #
plane-surface $-1 76.413464766380812 0 0 -1 0 0 0 0 1 forward_v I I I I #
straight-curve $-1 76.413464766380812 -37.258530998443241 0 0 0 -1 I I #
straight-curve $-1 76.413464766380812 37.258530998443241 0 0 0 -1 I I #
End-of-ACIS-data 