500 0 12 0           
7 Unknown 11 ACIS 5.0 NT 24 Fri Mar 26 19:05:01 1999 
-1 9.9999999999999995e-007 1e-010 
body $-1 $12 $-1 $13 #
body $-1 $14 $-1 $15 #
body $-1 $16 $-1 $17 #
body $-1 $18 $-1 $19 #
body $-1 $20 $-1 $21 #
body $-1 $22 $-1 $23 #
body $-1 $24 $-1 $25 #
body $-1 $26 $-1 $27 #
body $-1 $28 $-1 $29 #
body $-1 $30 $-1 $31 #
body $-1 $32 $-1 $33 #
body $-1 $34 $-1 $35 #
lump $-1 $-1 $36 $0 #
transform $-1 1 0 0 0 1 0 0 0 1 55.967284157841732 30.984665006418897 7.0993246091705418 1 rotate no_reflect no_shear #
lump $-1 $-1 $37 $1 #
transform $-1 1 0 0 0 1 0 0 0 1 55.967284157841732 30.984665006418897 7.0993246091705418 1 rotate no_reflect no_shear #
lump $-1 $-1 $38 $2 #
transform $-1 1 0 0 0 1 0 0 0 1 55.967284157841732 30.984665006418897 7.0993246091705418 1 rotate no_reflect no_shear #
lump $-1 $-1 $39 $3 #
transform $-1 1 0 0 0 1 0 0 0 1 55.967284157841732 30.984665006418897 7.0993246091705418 1 rotate no_reflect no_shear #
lump $-1 $-1 $40 $4 #
transform $-1 1 0 0 0 1 0 0 0 1 55.967284157841732 30.984665006418897 7.0993246091705418 1 rotate no_reflect no_shear #
lump $-1 $-1 $41 $5 #
transform $-1 1 0 0 0 1 0 0 0 1 55.967284157841732 30.984665006418897 7.0993246091705418 1 rotate no_reflect no_shear #
lump $-1 $-1 $42 $6 #
transform $-1 1 0 0 0 1 0 0 0 1 55.967284157841732 30.984665006418897 7.0993246091705418 1 rotate no_reflect no_shear #
lump $-1 $-1 $43 $7 #
transform $-1 1 0 0 0 1 0 0 0 1 55.967284157841732 30.984665006418897 7.0993246091705418 1 rotate no_reflect no_shear #
lump $-1 $-1 $44 $8 #
transform $-1 1 0 0 0 1 0 0 0 1 55.967284157841732 30.984665006418897 7.0993246091705418 1 rotate no_reflect no_shear #
lump $-1 $-1 $45 $9 #
transform $-1 1 0 0 0 1 0 0 0 1 55.967284157841732 30.984665006418897 7.0993246091705418 1 rotate no_reflect no_shear #
lump $-1 $-1 $46 $10 #
transform $-1 1 0 0 0 1 0 0 0 1 55.967284157841732 30.984665006418897 7.0993246091705418 1 rotate no_reflect no_shear #
lump $-1 $-1 $47 $11 #
transform $-1 1 0 0 0 1 0 0 0 1 55.967284157841732 30.984665006418897 7.0993246091705418 1 rotate no_reflect no_shear #
shell $-1 $-1 $-1 $48 $-1 $12 #
shell $-1 $-1 $-1 $49 $-1 $14 #
shell $-1 $-1 $-1 $50 $-1 $16 #
shell $-1 $-1 $-1 $51 $-1 $18 #
shell $-1 $-1 $-1 $52 $-1 $20 #
shell $-1 $-1 $-1 $53 $-1 $22 #
shell $-1 $-1 $-1 $54 $-1 $24 #
shell $-1 $-1 $-1 $55 $-1 $26 #
shell $-1 $-1 $-1 $56 $-1 $28 #
shell $-1 $-1 $-1 $57 $-1 $30 #
shell $-1 $-1 $-1 $58 $-1 $32 #
shell $-1 $-1 $-1 $59 $-1 $34 #
face $-1 $60 $61 $36 $-1 $62 forward single #
face $-1 $63 $64 $37 $-1 $65 forward single #
face $-1 $66 $67 $38 $-1 $68 reversed single #
face $-1 $69 $70 $39 $-1 $71 forward single #
face $-1 $72 $73 $40 $-1 $74 forward single #
face $-1 $75 $76 $41 $-1 $77 forward single #
face $-1 $78 $79 $42 $-1 $80 reversed single #
face $-1 $81 $82 $43 $-1 $83 forward single #
face $-1 $84 $85 $44 $-1 $86 forward single #
face $-1 $87 $88 $45 $-1 $89 forward single #
face $-1 $90 $91 $46 $-1 $92 reversed single #
face $-1 $93 $94 $47 $-1 $95 forward single #
face $-1 $96 $97 $36 $-1 $98 reversed single #
loop $-1 $-1 $99 $48 #
plane-surface $-1 0 0 7.0993246091705418 0 0 1 1 0 0 forward_v I I I I #
face $-1 $100 $101 $37 $-1 $102 reversed single #
loop $-1 $-1 $103 $49 #
plane-surface $-1 -52.913029784356198 0 2.560897208881932 0 0 1 1 0 0 forward_v I I I I #
face $-1 $104 $105 $38 $-1 $106 reversed single #
loop $-1 $-1 $107 $50 #
plane-surface $-1 -36.381480496509681 46.643913552335405 130.0419514403186 1 0 0 0 -0.5877852598018023 -0.80901698891910034 forward_v I I I I #
face $-1 $108 $109 $39 $-1 $110 forward single #
loop $-1 $111 $112 $51 #
cone-surface $-1 -31.359336849244347 27.189214607782297 3.6816306633693019 0 -0.5877852598018023 -0.80901698891910034 1 0 0 1 I I 0 1 1 forward I I I I #
face $-1 $113 $114 $40 $-1 $115 forward single #
loop $-1 $116 $117 $52 #
cone-surface $-1 -23.826121378346336 27.189214607782297 3.6816306633693019 0 -0.5877852598018023 -0.80901698891910034 1 0 0 1 I I 0 1 1 forward I I I I #
face $-1 $118 $119 $41 $-1 $120 forward single #
loop $-1 $121 $122 $53 #
cone-surface $-1 -16.292905907448322 27.189214607782297 3.6816306633693019 0 -0.5877852598018023 -0.80901698891910034 1 0 0 1 I I 0 1 1 forward I I I I #
face $-1 $123 $124 $42 $-1 $125 reversed single #
loop $-1 $-1 $126 $54 #
plane-surface $-1 17.37927100715407 46.643913552335405 130.0419514403186 1 0 0 0 -0.5877852598018023 -0.80901698891910034 forward_v I I I I #
face $-1 $127 $128 $43 $-1 $129 forward single #
loop $-1 $130 $131 $55 #
cone-surface $-1 22.401414654419398 27.189214607782297 3.6816306633693019 0 -0.5877852598018023 -0.80901698891910034 1 0 0 1 I I 0 1 1 forward I I I I #
face $-1 $132 $133 $44 $-1 $134 forward single #
loop $-1 $135 $136 $56 #
cone-surface $-1 29.934630125317412 27.189214607782297 3.6816306633693019 0 -0.5877852598018023 -0.80901698891910034 1 0 0 1 I I 0 1 1 forward I I I I #
face $-1 $137 $138 $45 $-1 $139 forward single #
loop $-1 $140 $141 $57 #
cone-surface $-1 37.467845596215426 27.189214607782297 3.6816306633693019 0 -0.5877852598018023 -0.80901698891910034 1 0 0 1 I I 0 1 1 forward I I I I #
face $-1 $142 $143 $46 $-1 $144 reversed single #
loop $-1 $-1 $145 $58 #
plane-surface $-1 -2.7137770197140192 -114.16826116921717 74.968778389909517 -1 0 0 0 -0.74314483375859142 0.66913059716165679 forward_v I I I I #
face $-1 $146 $147 $47 $-1 $148 forward single #
loop $-1 $149 $150 $59 #
cone-surface $-1 -17.582940719514838 -26.533718836760485 2.4264392533337871 0 0.74314483375859142 -0.66913059716165679 2 0 0 1 I I 0 1 2 forward I I I I #
face $-1 $151 $152 $36 $-1 $153 reversed single #
loop $-1 $-1 $154 $60 #
plane-surface $-1 0 0 -7.0993246091705418 0 0 1 1 0 0 forward_v I I I I #
coedge $-1 $155 $156 $157 $158 forward $61 $-1 #
face $-1 $159 $160 $37 $-1 $161 reversed single #
loop $-1 $-1 $162 $63 #
plane-surface $-1 -52.913029784356198 0 -0.61643350169535527 0 0 1 1 0 0 forward_v I I I I #
coedge $-1 $163 $164 $165 $166 forward $64 $-1 #
face $-1 $167 $168 $38 $-1 $169 reversed single #
loop $-1 $-1 $170 $66 #
plane-surface $-1 -23.826121378346329 -19.14957576590119 39.48498402560503 0 0.5877852598018023 0.80901698891910034 1 0 0 forward_v I I I I #
coedge $-1 $171 $172 $173 $174 reversed $67 $-1 #
face $-1 $-1 $175 $39 $-1 $176 forward single #
loop $-1 $177 $178 $69 #
cone-surface $-1 -31.359336849244347 25.879474348785781 1.878927885560997 0 -0.5877852598018023 -0.80901698891910034 0.5 0 0 1 I I -0.70710678118654746 0.70710678118654746 0.5 forward I I I I #
loop $-1 $-1 $179 $51 #
coedge $-1 $112 $112 $180 $181 reversed $70 $-1 #
face $-1 $-1 $182 $40 $-1 $183 forward single #
loop $-1 $184 $185 $72 #
cone-surface $-1 -23.826121378346336 25.879474348785781 1.878927885560997 0 -0.5877852598018023 -0.80901698891910034 0.5 0 0 1 I I -0.70710678118654746 0.70710678118654746 0.5 forward I I I I #
loop $-1 $-1 $186 $52 #
coedge $-1 $117 $117 $187 $188 reversed $73 $-1 #
face $-1 $-1 $189 $41 $-1 $190 forward single #
loop $-1 $191 $192 $75 #
cone-surface $-1 -16.292905907448322 25.879474348785781 1.878927885560997 0 -0.5877852598018023 -0.80901698891910034 0.5 0 0 1 I I -0.70710678118654746 0.70710678118654746 0.5 forward I I I I #
loop $-1 $-1 $193 $53 #
coedge $-1 $122 $122 $194 $195 reversed $76 $-1 #
face $-1 $196 $197 $42 $-1 $198 reversed single #
loop $-1 $-1 $199 $78 #
plane-surface $-1 29.934630125317426 -19.14957576590119 39.48498402560503 0 0.5877852598018023 0.80901698891910034 1 0 0 forward_v I I I I #
coedge $-1 $200 $201 $202 $203 reversed $79 $-1 #
face $-1 $-1 $204 $43 $-1 $205 forward single #
loop $-1 $206 $207 $81 #
cone-surface $-1 22.401414654419398 25.879474348785781 1.878927885560997 0 -0.5877852598018023 -0.80901698891910034 0.5 0 0 1 I I -0.70710678118654746 0.70710678118654746 0.5 forward I I I I #
loop $-1 $-1 $208 $55 #
coedge $-1 $131 $131 $209 $210 reversed $82 $-1 #
face $-1 $-1 $211 $44 $-1 $212 forward single #
loop $-1 $213 $214 $84 #
cone-surface $-1 29.934630125317412 25.879474348785781 1.878927885560997 0 -0.5877852598018023 -0.80901698891910034 0.5 0 0 1 I I -0.70710678118654746 0.70710678118654746 0.5 forward I I I I #
loop $-1 $-1 $215 $56 #
coedge $-1 $136 $136 $216 $217 reversed $85 $-1 #
face $-1 $-1 $218 $45 $-1 $219 forward single #
loop $-1 $220 $221 $87 #
cone-surface $-1 37.467845596215426 25.879474348785781 1.878927885560997 0 -0.5877852598018023 -0.80901698891910034 0.5 0 0 1 I I -0.70710678118654746 0.70710678118654746 0.5 forward I I I I #
loop $-1 $-1 $222 $57 #
coedge $-1 $141 $141 $223 $224 reversed $88 $-1 #
face $-1 $225 $226 $46 $-1 $227 reversed single #
loop $-1 $-1 $228 $90 #
plane-surface $-1 -17.582940719514838 -30.984665006418894 0.069933849803973658 0 -0.74314483375859142 0.66913059716165679 1 0 0 forward_v I I I I #
coedge $-1 $229 $230 $231 $232 reversed $91 $-1 #
face $-1 $-1 $233 $47 $-1 $234 forward single #
loop $-1 $235 $236 $93 #
cone-surface $-1 -17.582940719514838 -24.504273688922108 0.59911868001866697 0 0.74314483375859142 -0.66913059716165679 1 0 0 1 I I -0.70710678118654746 0.70710678118654746 1 forward I I I I #
loop $-1 $-1 $237 $59 #
coedge $-1 $150 $150 $238 $239 reversed $94 $-1 #
face $-1 $240 $241 $36 $-1 $242 reversed single #
loop $-1 $-1 $243 $96 #
plane-surface $-1 0 -30.984665006418897 0 0 1 0 0 0 1 forward_v I I I I #
coedge $-1 $244 $245 $246 $247 forward $97 $-1 #
coedge $-1 $248 $99 $249 $250 forward $61 $-1 #
coedge $-1 $99 $248 $251 $252 forward $61 $-1 #
coedge $-1 $253 $254 $99 $158 reversed $255 $-1 #
edge $-1 $256 -30.984665006418897 $257 30.984665006418897 $157 $258 forward 7 unknown #
face $-1 $259 $260 $37 $-1 $261 reversed single #
loop $-1 $-1 $262 $100 #
plane-surface $-1 -49.858775410870663 0 0.97223185359328834 -1 0 0 0 0 1 forward_v I I I I #
coedge $-1 $263 $264 $265 $266 forward $101 $-1 #
coedge $-1 $267 $103 $268 $269 reversed $64 $-1 #
coedge $-1 $103 $267 $270 $271 reversed $64 $-1 #
coedge $-1 $262 $272 $103 $166 reversed $160 $-1 #
edge $-1 $273 -30.984665006418897 $274 30.984665006418897 $165 $275 forward 7 unknown #
face $-1 $276 $277 $38 $-1 $278 forward single #
loop $-1 $-1 $279 $104 #
plane-surface $-1 -11.270762260182973 46.643913552335405 130.0419514403186 -1 0 0 0 0.5877852598018023 0.80901698891910034 forward_v I I I I #
coedge $-1 $280 $281 $282 $283 reversed $105 $-1 #
coedge $-1 $172 $107 $284 $285 reversed $67 $-1 #
coedge $-1 $107 $171 $280 $286 reversed $67 $-1 #
coedge $-1 $282 $287 $107 $174 forward $277 $-1 #
edge $-1 $288 -7.6627082302511944 $289 -2.1035026911691901 $173 $290 forward 7 unknown #
loop $-1 $-1 $180 $108 #
plane-surface $-1 -23.826121378346329 -19.14957576590119 39.48498402560503 0 0.5877852598018023 0.80901698891910034 1 0 0 forward_v I I I I #
loop $-1 $-1 $291 $69 #
coedge $-1 $178 $178 $179 $292 reversed $109 $-1 #
coedge $-1 $179 $179 $178 $292 forward $111 $-1 #
coedge $-1 $180 $180 $112 $181 forward $175 $-1 #
edge $-1 $293 -7.6865869746557252e-016 $293 6.2831853071795996 $180 $294 forward 7 unknown #
loop $-1 $-1 $187 $113 #
plane-surface $-1 -23.826121378346329 -19.14957576590119 39.48498402560503 0 0.5877852598018023 0.80901698891910034 1 0 0 forward_v I I I I #
loop $-1 $-1 $295 $72 #
coedge $-1 $185 $185 $186 $296 reversed $114 $-1 #
coedge $-1 $186 $186 $185 $296 forward $116 $-1 #
coedge $-1 $187 $187 $117 $188 forward $182 $-1 #
edge $-1 $297 -7.6865869746557252e-016 $297 6.2831853071795996 $187 $298 forward 7 unknown #
loop $-1 $-1 $194 $118 #
plane-surface $-1 -23.826121378346329 -19.14957576590119 39.48498402560503 0 0.5877852598018023 0.80901698891910034 1 0 0 forward_v I I I I #
loop $-1 $-1 $299 $75 #
coedge $-1 $192 $192 $193 $300 reversed $119 $-1 #
coedge $-1 $193 $193 $192 $300 forward $121 $-1 #
coedge $-1 $194 $194 $122 $195 forward $189 $-1 #
edge $-1 $301 -7.6865869746557252e-016 $301 6.2831853071795996 $194 $302 forward 7 unknown #
face $-1 $303 $304 $42 $-1 $305 forward single #
loop $-1 $-1 $306 $123 #
plane-surface $-1 42.489989243480778 46.643913552335405 130.0419514403186 -1 0 0 0 0.5877852598018023 0.80901698891910034 forward_v I I I I #
coedge $-1 $307 $308 $309 $310 reversed $124 $-1 #
coedge $-1 $201 $126 $311 $312 reversed $79 $-1 #
coedge $-1 $126 $200 $307 $313 reversed $79 $-1 #
coedge $-1 $309 $314 $126 $203 forward $304 $-1 #
edge $-1 $315 -7.6627082302511944 $316 -2.1035026911691901 $202 $317 forward 7 unknown #
loop $-1 $-1 $209 $127 #
plane-surface $-1 29.934630125317426 -19.14957576590119 39.48498402560503 0 0.5877852598018023 0.80901698891910034 1 0 0 forward_v I I I I #
loop $-1 $-1 $318 $81 #
coedge $-1 $207 $207 $208 $319 reversed $128 $-1 #
coedge $-1 $208 $208 $207 $319 forward $130 $-1 #
coedge $-1 $209 $209 $131 $210 forward $204 $-1 #
edge $-1 $320 -7.6865869746557252e-016 $320 6.2831853071795996 $209 $321 forward 7 unknown #
loop $-1 $-1 $216 $132 #
plane-surface $-1 29.934630125317426 -19.14957576590119 39.48498402560503 0 0.5877852598018023 0.80901698891910034 1 0 0 forward_v I I I I #
loop $-1 $-1 $322 $84 #
coedge $-1 $214 $214 $215 $323 reversed $133 $-1 #
coedge $-1 $215 $215 $214 $323 forward $135 $-1 #
coedge $-1 $216 $216 $136 $217 forward $211 $-1 #
edge $-1 $324 -7.6865869746557252e-016 $324 6.2831853071795996 $216 $325 forward 7 unknown #
loop $-1 $-1 $223 $137 #
plane-surface $-1 29.934630125317426 -19.14957576590119 39.48498402560503 0 0.5877852598018023 0.80901698891910034 1 0 0 forward_v I I I I #
loop $-1 $-1 $326 $87 #
coedge $-1 $221 $221 $222 $327 reversed $138 $-1 #
coedge $-1 $222 $222 $221 $327 forward $140 $-1 #
coedge $-1 $223 $223 $141 $224 forward $218 $-1 #
edge $-1 $328 -7.6865869746557252e-016 $328 6.2831853071795996 $223 $329 forward 7 unknown #
face $-1 $330 $331 $46 $-1 $332 reversed single #
loop $-1 $-1 $333 $142 #
plane-surface $-1 -32.45210441931566 -114.16826116921717 74.968778389909517 1 0 0 0 0.74314483375859142 -0.66913059716165679 forward_v I I I I #
coedge $-1 $334 $335 $336 $337 reversed $143 $-1 #
coedge $-1 $230 $145 $338 $339 reversed $91 $-1 #
coedge $-1 $145 $229 $334 $340 reversed $91 $-1 #
coedge $-1 $336 $341 $145 $232 forward $342 $-1 #
edge $-1 $343 26.09946557818969 $344 32.42875728934694 $231 $345 forward 7 unknown #
loop $-1 $-1 $238 $146 #
plane-surface $-1 -17.582940719514838 -30.984665006418894 0.069933849803973658 0 -0.74314483375859142 0.66913059716165679 1 0 0 forward_v I I I I #
loop $-1 $-1 $346 $93 #
coedge $-1 $236 $236 $237 $347 reversed $147 $-1 #
coedge $-1 $237 $237 $236 $347 forward $149 $-1 #
coedge $-1 $238 $238 $150 $239 forward $233 $-1 #
edge $-1 $348 1.2221503183421342e-015 $348 6.2831853071796013 $238 $349 forward 7 unknown #
face $-1 $350 $351 $36 $-1 $352 reversed single #
loop $-1 $-1 $353 $151 #
plane-surface $-1 -55.967284157841732 0 0 1 0 0 0 0 -1 forward_v I I I I #
coedge $-1 $354 $251 $355 $356 forward $152 $-1 #
coedge $-1 $357 $154 $354 $358 forward $97 $-1 #
coedge $-1 $154 $357 $359 $360 forward $97 $-1 #
coedge $-1 $254 $253 $154 $247 reversed $255 $-1 #
edge $-1 $361 -30.984665006418897 $362 30.984665006418897 $246 $363 forward 7 unknown #
coedge $-1 $156 $155 $364 $365 forward $61 $-1 #
coedge $-1 $366 $367 $155 $250 reversed $351 $-1 #
edge $-1 $257 -55.967284157841732 $368 55.967284157841732 $249 $369 forward 7 unknown #
coedge $-1 $243 $370 $156 $252 reversed $152 $-1 #
edge $-1 $371 -55.967284157841732 $256 55.967284157841732 $251 $372 forward 7 unknown #
coedge $-1 $246 $157 $370 $373 forward $255 $-1 #
coedge $-1 $157 $246 $366 $374 reversed $255 $-1 #
loop $-1 $-1 $253 $350 #
vertex $-1 $158 $375 #
vertex $-1 $158 $376 #
straight-curve $-1 55.967284157841732 0 7.0993246091705418 0 1 0 I I #
face $-1 $377 $378 $37 $-1 $379 reversed single #
loop $-1 $-1 $380 $159 #
plane-surface $-1 0 -30.984665006418897 0 0 1 0 0 0 1 forward_v I I I I #
coedge $-1 $265 $165 $381 $382 reversed $160 $-1 #
coedge $-1 $383 $162 $380 $384 reversed $101 $-1 #
coedge $-1 $162 $383 $385 $386 reversed $101 $-1 #
coedge $-1 $272 $262 $162 $266 reversed $160 $-1 #
edge $-1 $387 -30.984665006418897 $388 30.984665006418897 $265 $389 forward 7 unknown #
coedge $-1 $164 $163 $390 $391 reversed $64 $-1 #
coedge $-1 $392 $393 $163 $269 forward $394 $-1 #
edge $-1 $395 -29.510769265663633 $274 -23.402260518692565 $268 $396 forward 7 unknown #
coedge $-1 $397 $381 $164 $271 forward $260 $-1 #
edge $-1 $273 23.402260518692565 $398 29.510769265663633 $270 $399 forward 7 unknown #
coedge $-1 $165 $265 $392 $400 reversed $160 $-1 #
vertex $-1 $271 $401 #
vertex $-1 $269 $402 #
straight-curve $-1 -49.858775410870663 0 2.560897208881932 0 1 0 I I #
face $-1 $-1 $403 $38 $-1 $404 reversed single #
loop $-1 $-1 $173 $167 #
plane-surface $-1 0 0 7.0993246091705418 0 0 1 1 0 0 forward_v I I I I #
coedge $-1 $405 $406 $407 $408 reversed $168 $-1 #
coedge $-1 $409 $170 $172 $286 forward $105 $-1 #
coedge $-1 $170 $409 $405 $410 forward $105 $-1 #
coedge $-1 $407 $173 $170 $283 forward $277 $-1 #
edge $-1 $289 -24.468419807336517 $411 0.64229842899019118 $282 $412 forward 7 unknown #
coedge $-1 $413 $414 $171 $285 forward $403 $-1 #
edge $-1 $415 -61.960650435893768 $288 -57.921651110988755 $284 $416 forward 7 unknown #
edge $-1 $289 55.097774019298711 $415 61.969330012837816 $172 $417 forward 7 unknown #
coedge $-1 $173 $407 $413 $418 forward $277 $-1 #
vertex $-1 $285 $419 #
vertex $-1 $174 $420 #
straight-curve $-1 -36.381480496509681 23.321956776167703 7.0993246091705444 0 -1 0 I I #
coedge $-1 $291 $291 $-1 $421 reversed $177 $-1 #
edge $-1 $422 0 $422 6.2831853071796004 $178 $423 forward 7 unknown #
vertex $-1 $181 $424 #
ellipse-curve $-1 -31.359336849244347 28.205062236877897 5.0798249467180314 0 0.5877852598018023 0.80901698891910034 1 0 0 1 I I #
coedge $-1 $295 $295 $-1 $425 reversed $184 $-1 #
edge $-1 $426 0 $426 6.2831853071796004 $185 $427 forward 7 unknown #
vertex $-1 $188 $428 #
ellipse-curve $-1 -23.826121378346336 28.205062236877897 5.0798249467180314 0 0.5877852598018023 0.80901698891910034 1 0 0 1 I I #
coedge $-1 $299 $299 $-1 $429 reversed $191 $-1 #
edge $-1 $430 0 $430 6.2831853071796004 $192 $431 forward 7 unknown #
vertex $-1 $195 $432 #
ellipse-curve $-1 -16.292905907448322 28.205062236877897 5.0798249467180314 0 0.5877852598018023 0.80901698891910034 1 0 0 1 I I #
face $-1 $-1 $433 $42 $-1 $434 reversed single #
loop $-1 $-1 $202 $196 #
plane-surface $-1 0 0 7.0993246091705418 0 0 1 1 0 0 forward_v I I I I #
coedge $-1 $435 $436 $437 $438 reversed $197 $-1 #
coedge $-1 $439 $199 $201 $313 forward $124 $-1 #
coedge $-1 $199 $439 $435 $440 forward $124 $-1 #
coedge $-1 $437 $202 $199 $310 forward $304 $-1 #
edge $-1 $316 2.4119559444953573 $441 27.522674180822065 $309 $442 forward 7 unknown #
coedge $-1 $443 $444 $200 $312 forward $433 $-1 #
edge $-1 $445 -61.960650435893768 $315 -57.921651110988755 $311 $446 forward 7 unknown #
edge $-1 $316 55.097774019298711 $445 61.969330012837816 $201 $447 forward 7 unknown #
coedge $-1 $202 $437 $443 $448 forward $304 $-1 #
vertex $-1 $203 $449 #
vertex $-1 $203 $450 #
straight-curve $-1 17.37927100715407 23.321956776167703 7.0993246091705444 0 -1 0 I I #
coedge $-1 $318 $318 $-1 $451 reversed $206 $-1 #
edge $-1 $452 0 $452 6.2831853071796004 $207 $453 forward 7 unknown #
vertex $-1 $210 $454 #
ellipse-curve $-1 22.401414654419398 28.205062236877897 5.0798249467180314 0 0.5877852598018023 0.80901698891910034 1 0 0 1 I I #
coedge $-1 $322 $322 $-1 $455 reversed $213 $-1 #
edge $-1 $456 0 $456 6.2831853071796004 $214 $457 forward 7 unknown #
vertex $-1 $217 $458 #
ellipse-curve $-1 29.934630125317412 28.205062236877897 5.0798249467180314 0 0.5877852598018023 0.80901698891910034 1 0 0 1 I I #
coedge $-1 $326 $326 $-1 $459 reversed $220 $-1 #
edge $-1 $460 0 $460 6.2831853071796004 $221 $461 forward 7 unknown #
vertex $-1 $224 $462 #
ellipse-curve $-1 37.467845596215426 28.205062236877897 5.0798249467180314 0 0.5877852598018023 0.80901698891910034 1 0 0 1 I I #
face $-1 $-1 $342 $46 $-1 $463 forward single #
loop $-1 $-1 $464 $225 #
plane-surface $-1 0 -30.984665006418897 0 0 1 0 0 0 1 forward_v I I I I #
coedge $-1 $465 $466 $467 $468 reversed $226 $-1 #
coedge $-1 $469 $228 $230 $340 forward $143 $-1 #
coedge $-1 $228 $469 $465 $470 forward $143 $-1 #
coedge $-1 $467 $231 $228 $337 forward $342 $-1 #
edge $-1 $344 -6.0776933400433997 $471 23.660634059558241 $336 $472 forward 7 unknown #
coedge $-1 $473 $474 $229 $339 forward $331 $-1 #
edge $-1 $475 -37.414455345150792 $343 -30.385064585784217 $338 $476 forward 7 unknown #
edge $-1 $344 -9.458978169590619 $475 5.3061800184387454e-015 $230 $477 forward 7 unknown #
coedge $-1 $231 $467 $473 $478 forward $342 $-1 #
loop $-1 $-1 $467 $330 #
vertex $-1 $339 $479 #
vertex $-1 $232 $480 #
straight-curve $-1 -2.7137770197140192 -57.084130584608587 7.0993246091705444 0 1 0 I I #
coedge $-1 $346 $346 $-1 $481 reversed $235 $-1 #
edge $-1 $482 0 $482 6.2831853071796004 $236 $483 forward 7 unknown #
vertex $-1 $239 $484 #
ellipse-curve $-1 -17.582940719514838 -27.820019150840274 3.5846292294872537 0 -0.74314483375859142 0.66913059716165679 2 0 0 1 I I #
face $-1 $-1 $255 $36 $-1 $485 reversed single #
loop $-1 $-1 $366 $240 #
plane-surface $-1 0 30.984665006418897 0 0 -1 0 0 0 -1 forward_v I I I I #
coedge $-1 $486 $364 $367 $487 forward $241 $-1 #
coedge $-1 $370 $243 $244 $358 reversed $152 $-1 #
coedge $-1 $364 $486 $243 $356 reversed $241 $-1 #
edge $-1 $371 -7.0993246091705418 $488 7.0993246091705418 $355 $489 forward 7 unknown #
coedge $-1 $245 $244 $486 $490 forward $97 $-1 #
edge $-1 $362 -55.967284157841732 $488 55.967284157841732 $354 $491 forward 7 unknown #
coedge $-1 $367 $366 $245 $360 reversed $351 $-1 #
edge $-1 $492 -55.967284157841732 $361 55.967284157841732 $359 $493 forward 7 unknown #
vertex $-1 $247 $494 #
vertex $-1 $373 $495 #
straight-curve $-1 55.967284157841732 0 -7.0993246091705418 0 -1 0 I I #
coedge $-1 $353 $355 $248 $365 reversed $241 $-1 #
edge $-1 $368 -30.984665006418897 $371 30.984665006418897 $364 $496 forward 7 unknown #
coedge $-1 $359 $249 $254 $374 forward $351 $-1 #
coedge $-1 $249 $359 $353 $487 reversed $351 $-1 #
vertex $-1 $250 $497 #
straight-curve $-1 0 30.984665006418897 7.0993246091705418 -1 0 0 I I #
coedge $-1 $251 $354 $253 $373 reversed $152 $-1 #
vertex $-1 $365 $498 #
straight-curve $-1 0 -30.984665006418897 7.0993246091705418 1 0 0 I I #
edge $-1 $256 -7.0993246091705418 $362 7.0993246091705418 $253 $499 forward 7 unknown #
edge $-1 $257 -7.0993246091705418 $361 7.0993246091705418 $254 $500 forward 7 unknown #
point $-1 55.967284157841732 -30.984665006418897 7.0993246091705418 #
point $-1 55.967284157841732 30.984665006418897 7.0993246091705418 #
face $-1 $-1 $394 $37 $-1 $501 reversed single #
loop $-1 $-1 $502 $259 #
plane-surface $-1 -55.967284157841732 0 0 1 0 0 0 0 -1 forward_v I I I I #
coedge $-1 $381 $397 $263 $384 forward $260 $-1 #
coedge $-1 $270 $380 $262 $382 forward $260 $-1 #
edge $-1 $388 -1.1025494284919994 $273 2.0747812820852878 $381 $503 forward 7 unknown #
coedge $-1 $264 $263 $502 $504 reversed $101 $-1 #
edge $-1 $505 -29.510769265663633 $388 -23.402260518692565 $380 $506 forward 7 unknown #
coedge $-1 $393 $392 $264 $386 forward $394 $-1 #
edge $-1 $387 23.402260518692565 $507 29.510769265663633 $385 $508 forward 7 unknown #
vertex $-1 $386 $509 #
vertex $-1 $384 $510 #
straight-curve $-1 -49.858775410870663 0 -0.61643350169535527 0 -1 0 I I #
coedge $-1 $511 $512 $267 $391 forward $378 $-1 #
edge $-1 $398 -30.984665006418897 $395 30.984665006418897 $390 $513 forward 7 unknown #
coedge $-1 $385 $268 $272 $400 forward $394 $-1 #
coedge $-1 $268 $385 $511 $514 reversed $394 $-1 #
loop $-1 $-1 $385 $377 #
vertex $-1 $514 $515 #
straight-curve $-1 -26.456514892178099 30.984665006418897 2.560897208881932 1 0 0 I I #
coedge $-1 $380 $270 $512 $516 forward $260 $-1 #
vertex $-1 $516 $517 #
straight-curve $-1 -26.456514892178099 -30.984665006418897 2.560897208881932 -1 0 0 I I #
edge $-1 $274 -2.0747812820852878 $387 1.1025494284919994 $392 $518 forward 7 unknown #
point $-1 -49.858775410870663 -30.984665006418897 2.560897208881932 #
point $-1 -49.858775410870663 30.984665006418897 2.560897208881932 #
loop $-1 $-1 $284 $276 #
plane-surface $-1 0 30.984665006418897 0 0 -1 0 0 0 -1 forward_v I I I I #
coedge $-1 $406 $279 $281 $410 reversed $168 $-1 #
coedge $-1 $279 $405 $519 $520 reversed $168 $-1 #
coedge $-1 $287 $282 $279 $408 forward $277 $-1 #
edge $-1 $411 2.1035026911691901 $521 7.6627082302511944 $407 $522 forward 7 unknown #
coedge $-1 $281 $280 $414 $523 reversed $105 $-1 #
edge $-1 $524 -61.969330012837816 $411 -55.097774019298711 $405 $525 forward 7 unknown #
vertex $-1 $283 $526 #
straight-curve $-1 -11.913060689173165 25.4254594673369 7.0993246091705409 1 0 0 I I #
coedge $-1 $519 $284 $287 $418 reversed $403 $-1 #
coedge $-1 $284 $519 $409 $523 forward $403 $-1 #
vertex $-1 $285 $527 #
straight-curve $-1 -36.381480496509681 30.984665006418897 65.020975720159299 0 0 1 I I #
straight-curve $-1 -36.381480496509681 -19.14957576590119 39.48498402560503 0 0.80901698891910034 -0.5877852598018023 I I #
edge $-1 $521 11.270762260182973 $288 36.381480496509681 $413 $528 forward 7 unknown #
point $-1 -36.381480496509681 30.984665006418897 7.0993246091705418 #
point $-1 -36.381480496509681 25.425459467336893 7.0993246091705444 #
edge $-1 $529 1 $529 0 $291 $-1 forward 7 unknown #
vertex $-1 $292 $530 #
ellipse-curve $-1 -31.359336849244347 26.173366978686683 2.2834363800205471 0 0.5877852598018023 0.80901698891910034 1 0 0 1 I I #
point $-1 -30.359336849244347 28.205062236877914 5.0798249467180572 #
edge $-1 $531 1 $531 0 $295 $-1 forward 7 unknown #
vertex $-1 $296 $532 #
ellipse-curve $-1 -23.826121378346336 26.173366978686683 2.2834363800205471 0 0.5877852598018023 0.80901698891910034 1 0 0 1 I I #
point $-1 -22.826121378346336 28.205062236877914 5.0798249467180572 #
edge $-1 $533 1 $533 0 $299 $-1 forward 7 unknown #
vertex $-1 $300 $534 #
ellipse-curve $-1 -16.292905907448322 26.173366978686683 2.2834363800205471 0 0.5877852598018023 0.80901698891910034 1 0 0 1 I I #
point $-1 -15.292905907448322 28.205062236877914 5.0798249467180572 #
loop $-1 $-1 $311 $303 #
plane-surface $-1 0 30.984665006418897 0 0 -1 0 0 0 -1 forward_v I I I I #
coedge $-1 $436 $306 $308 $440 reversed $197 $-1 #
coedge $-1 $306 $435 $535 $536 reversed $197 $-1 #
coedge $-1 $314 $309 $306 $438 forward $304 $-1 #
edge $-1 $441 2.1035026911691901 $537 7.6627082302511944 $437 $538 forward 7 unknown #
coedge $-1 $308 $307 $444 $539 reversed $124 $-1 #
edge $-1 $540 -61.969330012837816 $441 -55.097774019298711 $435 $541 forward 7 unknown #
vertex $-1 $310 $542 #
straight-curve $-1 14.967315062658713 25.4254594673369 7.0993246091705409 1 0 0 I I #
coedge $-1 $535 $311 $314 $448 reversed $433 $-1 #
coedge $-1 $311 $535 $439 $539 forward $433 $-1 #
vertex $-1 $312 $543 #
straight-curve $-1 17.37927100715407 30.984665006418897 65.020975720159299 0 0 1 I I #
straight-curve $-1 17.37927100715407 -19.14957576590119 39.48498402560503 0 0.80901698891910034 -0.5877852598018023 I I #
edge $-1 $537 -42.489989243480778 $315 -17.37927100715407 $443 $544 forward 7 unknown #
point $-1 17.37927100715407 30.984665006418897 7.0993246091705418 #
point $-1 17.37927100715407 25.425459467336893 7.0993246091705444 #
edge $-1 $545 1 $545 0 $318 $-1 forward 7 unknown #
vertex $-1 $319 $546 #
ellipse-curve $-1 22.401414654419398 26.173366978686683 2.2834363800205471 0 0.5877852598018023 0.80901698891910034 1 0 0 1 I I #
point $-1 23.401414654419398 28.205062236877914 5.0798249467180572 #
edge $-1 $547 1 $547 0 $322 $-1 forward 7 unknown #
vertex $-1 $323 $548 #
ellipse-curve $-1 29.934630125317412 26.173366978686683 2.2834363800205471 0 0.5877852598018023 0.80901698891910034 1 0 0 1 I I #
point $-1 30.934630125317412 28.205062236877914 5.0798249467180572 #
edge $-1 $549 1 $549 0 $326 $-1 forward 7 unknown #
vertex $-1 $327 $550 #
ellipse-curve $-1 37.467845596215426 26.173366978686683 2.2834363800205471 0 0.5877852598018023 0.80901698891910034 1 0 0 1 I I #
point $-1 38.467845596215426 28.205062236877914 5.0798249467180572 #
plane-surface $-1 0 0 7.0993246091705418 0 0 1 1 0 0 forward_v I I I I #
coedge $-1 $474 $473 $466 $551 forward $331 $-1 #
coedge $-1 $466 $333 $335 $470 reversed $226 $-1 #
coedge $-1 $333 $465 $464 $551 reversed $226 $-1 #
coedge $-1 $341 $336 $333 $468 forward $342 $-1 #
edge $-1 $471 -32.42875728934694 $552 -26.09946557818969 $467 $553 forward 7 unknown #
coedge $-1 $335 $334 $474 $554 reversed $143 $-1 #
edge $-1 $555 -5.3061800184387454e-015 $471 9.458978169590619 $465 $556 forward 7 unknown #
vertex $-1 $337 $557 #
straight-curve $-1 -8.7914703597574189 -24.655373295261644 7.0993246091705418 -1 0 0 I I #
coedge $-1 $464 $338 $341 $478 reversed $331 $-1 #
coedge $-1 $338 $464 $469 $554 forward $331 $-1 #
vertex $-1 $339 $558 #
straight-curve $-1 -2.7137770197140192 -30.984665006418894 37.484389194954758 0 0 1 I I #
straight-curve $-1 -2.7137770197140192 -30.984665006418894 0.069933849803973658 0 -0.66913059716165679 -0.74314483375859142 I I #
edge $-1 $552 -32.45210441931566 $343 -2.7137770197140192 $473 $559 forward 7 unknown #
point $-1 -2.7137770197140192 -30.984665006418897 7.0993246091705418 #
point $-1 -2.7137770197140192 -24.655373295261647 7.0993246091705418 #
edge $-1 $560 1 $560 0 $346 $-1 forward 7 unknown #
vertex $-1 $347 $561 #
ellipse-curve $-1 -17.582940719514838 -25.2474185226807 1.2682492771803238 0 -0.74314483375859142 0.66913059716165679 2 0 0 1 I I #
point $-1 -15.582940719514838 -27.820019150840267 3.5846292294872506 #
plane-surface $-1 55.967284157841732 0 0 -1 0 0 0 0 1 forward_v I I I I #
coedge $-1 $355 $353 $357 $490 reversed $241 $-1 #
edge $-1 $368 -7.0993246091705418 $492 7.0993246091705418 $367 $562 forward 7 unknown #
vertex $-1 $490 $563 #
straight-curve $-1 -55.967284157841732 -30.984665006418897 0 0 0 -1 I I #
edge $-1 $488 -30.984665006418897 $492 30.984665006418897 $486 $564 forward 7 unknown #
straight-curve $-1 0 -30.984665006418897 -7.0993246091705418 -1 0 0 I I #
vertex $-1 $360 $565 #
straight-curve $-1 0 30.984665006418897 -7.0993246091705418 1 0 0 I I #
point $-1 55.967284157841732 30.984665006418897 -7.0993246091705418 #
point $-1 55.967284157841732 -30.984665006418897 -7.0993246091705418 #
straight-curve $-1 -55.967284157841732 0 7.0993246091705418 0 -1 0 I I #
point $-1 -55.967284157841732 30.984665006418897 7.0993246091705418 #
point $-1 -55.967284157841732 -30.984665006418897 7.0993246091705418 #
straight-curve $-1 55.967284157841732 -30.984665006418897 0 0 0 -1 I I #
straight-curve $-1 55.967284157841732 30.984665006418897 0 0 0 -1 I I #
plane-surface $-1 0 30.984665006418897 0 0 -1 0 0 0 -1 forward_v I I I I #
coedge $-1 $512 $511 $383 $504 forward $378 $-1 #
straight-curve $-1 -49.858775410870663 -30.984665006418897 0.48611592679664417 0 0 1 I I #
edge $-1 $507 -30.984665006418897 $505 30.984665006418897 $502 $566 forward 7 unknown #
vertex $-1 $384 $567 #
straight-curve $-1 -26.456514892178099 -30.984665006418897 -0.61643350169535527 1 0 0 I I #
vertex $-1 $386 $568 #
straight-curve $-1 -26.456514892178099 30.984665006418897 -0.61643350169535527 -1 0 0 I I #
point $-1 -49.858775410870663 30.984665006418897 -0.61643350169535527 #
point $-1 -49.858775410870663 -30.984665006418897 -0.61643350169535527 #
coedge $-1 $502 $390 $393 $514 forward $378 $-1 #
coedge $-1 $390 $502 $397 $516 reversed $378 $-1 #
straight-curve $-1 -55.967284157841732 0 2.560897208881932 0 1 0 I I #
edge $-1 $395 -2.560897208881932 $507 0.61643350169535527 $393 $569 forward 7 unknown #
point $-1 -55.967284157841732 30.984665006418897 2.560897208881932 #
edge $-1 $398 -2.560897208881932 $505 0.61643350169535527 $512 $570 forward 7 unknown #
point $-1 -55.967284157841732 -30.984665006418897 2.560897208881932 #
straight-curve $-1 -49.858775410870663 30.984665006418897 0.48611592679664417 0 0 -1 I I #
coedge $-1 $414 $413 $406 $520 forward $403 $-1 #
edge $-1 $521 57.921651110988755 $524 61.960650435893768 $519 $571 forward 7 unknown #
vertex $-1 $418 $572 #
straight-curve $-1 -11.270762260182973 23.321956776167703 7.0993246091705444 0 1 0 I I #
edge $-1 $524 -0.64229842899019118 $415 24.468419807336517 $414 $573 forward 7 unknown #
vertex $-1 $523 $574 #
straight-curve $-1 -11.270762260182973 -19.14957576590119 39.48498402560503 0 -0.80901698891910034 0.5877852598018023 I I #
point $-1 -11.270762260182973 25.425459467336893 7.0993246091705444 #
point $-1 -36.381480496509681 30.984665006418894 3.0603252842655309 #
straight-curve $-1 0 30.984665006418897 7.0993246091705418 -1 0 0 I I #
vertex $-1 $421 $575 #
point $-1 -30.359336849244347 26.173366978686683 2.2834363800205471 #
vertex $-1 $425 $576 #
point $-1 -22.826121378346336 26.173366978686683 2.2834363800205471 #
vertex $-1 $429 $577 #
point $-1 -15.292905907448322 26.173366978686683 2.2834363800205471 #
coedge $-1 $444 $443 $436 $536 forward $433 $-1 #
edge $-1 $537 57.921651110988755 $540 61.960650435893768 $535 $578 forward 7 unknown #
vertex $-1 $448 $579 #
straight-curve $-1 42.489989243480778 23.321956776167703 7.0993246091705444 0 1 0 I I #
edge $-1 $540 -27.522674180822065 $445 -2.4119559444953573 $444 $580 forward 7 unknown #
vertex $-1 $539 $581 #
straight-curve $-1 42.489989243480778 -19.14957576590119 39.48498402560503 0 -0.80901698891910034 0.5877852598018023 I I #
point $-1 42.489989243480778 25.425459467336893 7.0993246091705444 #
point $-1 17.37927100715407 30.984665006418894 3.0603252842655309 #
straight-curve $-1 0 30.984665006418897 7.0993246091705418 -1 0 0 I I #
vertex $-1 $451 $582 #
point $-1 23.401414654419398 26.173366978686683 2.2834363800205471 #
vertex $-1 $455 $583 #
point $-1 30.934630125317412 26.173366978686683 2.2834363800205471 #
vertex $-1 $459 $584 #
point $-1 38.467845596215426 26.173366978686683 2.2834363800205471 #
edge $-1 $552 30.385064585784217 $555 37.414455345150792 $464 $585 forward 7 unknown #
vertex $-1 $478 $586 #
straight-curve $-1 -32.45210441931566 -57.084130584608587 7.0993246091705444 0 -1 0 I I #
edge $-1 $555 -23.660634059558241 $475 6.0776933400433997 $474 $587 forward 7 unknown #
vertex $-1 $554 $588 #
straight-curve $-1 -32.45210441931566 -30.984665006418894 0.069933849803973658 0 0.66913059716165679 0.74314483375859142 I I #
point $-1 -32.45210441931566 -24.655373295261647 7.0993246091705418 #
point $-1 -2.7137770197140192 -30.984665006418897 0.069933849803969717 #
straight-curve $-1 0 -30.984665006418897 7.0993246091705418 1 0 0 I I #
vertex $-1 $481 $589 #
point $-1 -15.582940719514838 -25.2474185226807 1.2682492771803238 #
straight-curve $-1 -55.967284157841732 30.984665006418897 0 0 0 -1 I I #
point $-1 -55.967284157841732 -30.984665006418897 -7.0993246091705418 #
straight-curve $-1 -55.967284157841732 0 -7.0993246091705418 0 1 0 I I #
point $-1 -55.967284157841732 30.984665006418897 -7.0993246091705418 #
straight-curve $-1 -55.967284157841732 0 -0.61643350169535527 0 -1 0 I I #
point $-1 -55.967284157841732 -30.984665006418897 -0.61643350169535527 #
point $-1 -55.967284157841732 30.984665006418897 -0.61643350169535527 #
straight-curve $-1 -55.967284157841732 30.984665006418897 0 0 0 -1 I I #
straight-curve $-1 -55.967284157841732 -30.984665006418897 0 0 0 -1 I I #
straight-curve $-1 -11.270762260182973 30.984665006418897 65.020975720159299 0 0 -1 I I #
point $-1 -11.270762260182973 30.984665006418897 7.0993246091705418 #
straight-curve $-1 -11.913060689173165 30.984665006418897 3.0603252842655309 -1 0 0 I I #
point $-1 -11.270762260182973 30.984665006418894 3.0603252842655309 #
point $-1 -31.359336849244347 25.585581718884878 1.4744193911014469 #
point $-1 -23.826121378346336 25.585581718884878 1.4744193911014469 #
point $-1 -16.292905907448322 25.585581718884878 1.4744193911014469 #
straight-curve $-1 42.489989243480778 30.984665006418897 65.020975720159299 0 0 -1 I I #
point $-1 42.489989243480778 30.984665006418897 7.0993246091705418 #
straight-curve $-1 14.967315062658713 30.984665006418897 3.0603252842655309 -1 0 0 I I #
point $-1 42.489989243480778 30.984665006418894 3.0603252842655309 #
point $-1 22.401414654419398 25.585581718884878 1.4744193911014469 #
point $-1 29.934630125317412 25.585581718884878 1.4744193911014469 #
point $-1 37.467845596215426 25.585581718884878 1.4744193911014469 #
straight-curve $-1 -32.45210441931566 -30.984665006418894 37.484389194954758 0 0 -1 I I #
point $-1 -32.45210441931566 -30.984665006418897 7.0993246091705418 #
straight-curve $-1 -8.7914703597574189 -30.984665006418897 0.069933849803967926 1 0 0 I I #
point $-1 -32.45210441931566 -30.984665006418897 0.069933849803969717 #
point $-1 -17.582940719514838 -23.761128855163516 -0.070011917142989821 #
End-of-ACIS-data 