500 0 9 0           
7 Unknown 11 ACIS 5.0 NT 24 Thu Mar 25 17:13:24 1999 
-1 9.9999999999999995e-007 1e-010 
body $-1 $9 $-1 $10 #
body $-1 $11 $-1 $12 #
body $-1 $13 $-1 $14 #
body $-1 $15 $-1 $16 #
body $-1 $17 $-1 $18 #
body $-1 $19 $-1 $20 #
body $-1 $21 $-1 $22 #
body $-1 $23 $-1 $24 #
body $-1 $25 $-1 $26 #
lump $-1 $-1 $27 $0 #
transform $-1 1 0 0 0 1 0 0 0 1 72.593768120365013 45.178194452983782 18.590936629709692 1 rotate no_reflect no_shear #
lump $-1 $-1 $28 $1 #
transform $-1 1 0 0 0 1 0 0 0 1 72.593768120365013 45.178194452983782 18.590936629709692 1 rotate no_reflect no_shear #
lump $-1 $-1 $29 $2 #
transform $-1 1 0 0 0 1 0 0 0 1 72.593768120365013 45.178194452983782 18.590936629709692 1 rotate no_reflect no_shear #
lump $-1 $-1 $30 $3 #
transform $-1 1 0 0 0 1 0 0 0 1 72.593768120365013 45.178194452983782 18.590936629709692 1 rotate no_reflect no_shear #
lump $-1 $-1 $31 $4 #
transform $-1 1 0 0 0 1 0 0 0 1 72.593768120365013 45.178194452983782 18.590936629709692 1 rotate no_reflect no_shear #
lump $-1 $-1 $32 $5 #
transform $-1 1 0 0 0 1 0 0 0 1 72.593768120365013 45.178194452983782 18.590936629709692 1 rotate no_reflect no_shear #
lump $-1 $-1 $33 $6 #
transform $-1 1 0 0 0 1 0 0 0 1 72.593768120365013 45.178194452983782 18.590936629709692 1 rotate no_reflect no_shear #
lump $-1 $-1 $34 $7 #
transform $-1 1 0 0 0 1 0 0 0 1 72.593768120365013 45.178194452983782 18.590936629709692 1 rotate no_reflect no_shear #
lump $-1 $-1 $35 $8 #
transform $-1 1 0 0 0 1 0 0 0 1 72.593768120365013 45.178194452983782 18.590936629709692 1 rotate no_reflect no_shear #
shell $-1 $-1 $-1 $36 $-1 $9 #
shell $-1 $-1 $-1 $37 $-1 $11 #
shell $-1 $-1 $-1 $38 $-1 $13 #
shell $-1 $-1 $-1 $39 $-1 $15 #
shell $-1 $-1 $-1 $40 $-1 $17 #
shell $-1 $-1 $-1 $41 $-1 $19 #
shell $-1 $-1 $-1 $42 $-1 $21 #
shell $-1 $-1 $-1 $43 $-1 $23 #
shell $-1 $-1 $-1 $44 $-1 $25 #
face $-1 $45 $46 $27 $-1 $47 forward single #
face $-1 $48 $49 $28 $-1 $50 reversed single #
face $-1 $51 $52 $29 $-1 $53 forward single #
face $-1 $54 $55 $30 $-1 $56 reversed single #
face $-1 $57 $58 $31 $-1 $59 forward single #
face $-1 $60 $61 $32 $-1 $62 forward single #
face $-1 $63 $64 $33 $-1 $65 reversed single #
face $-1 $66 $67 $34 $-1 $68 forward single #
face $-1 $69 $70 $35 $-1 $71 forward single #
face $-1 $72 $73 $27 $-1 $74 reversed single #
loop $-1 $-1 $75 $36 #
plane-surface $-1 0 0 18.590936629709692 0 0 1 1 0 0 forward_v I I I I #
face $-1 $76 $77 $28 $-1 $78 reversed single #
loop $-1 $-1 $79 $37 #
plane-surface $-1 66.193988312585589 -156.39830100344716 105.04875925145595 -1 0 0 0 -0.7660444514056185 0.64278759981090561 forward_v I I I I #
face $-1 $80 $81 $29 $-1 $82 forward single #
loop $-1 $83 $84 $38 #
cone-surface $-1 58.665655433475138 -40.443843926196408 13.602342679398866 0 0.7660444514056185 -0.64278759981090561 1.5 0 0 1 I I 0 1 1.5 forward I I I I #
face $-1 $85 $86 $30 $-1 $87 reversed single #
loop $-1 $-1 $88 $39 #
plane-surface $-1 -65.117568184747071 81.036986930890407 174.14952146740012 1 0 0 0 -0.69465837861970381 -0.71933979245794832 forward_v I I I I #
face $-1 $89 $90 $31 $-1 $91 forward single #
loop $-1 $92 $93 $40 #
cone-surface $-1 -56.383553807027255 37.715791308505409 11.284579846439804 0 -0.69465837861970381 -0.71933979245794832 2 0 0 1 I I 0 1 2 forward I I I I #
face $-1 $94 $95 $32 $-1 $96 forward single #
loop $-1 $97 $98 $41 #
cone-surface $-1 -43.282532240447523 37.715791308505409 11.284579846439804 0 -0.69465837861970381 -0.71933979245794832 2 0 0 1 I I 0 1 2 forward I I I I #
face $-1 $99 $100 $33 $-1 $101 reversed single #
loop $-1 $-1 $102 $42 #
plane-surface $-1 34.548517862727707 81.036986930890407 174.14952146740012 1 0 0 0 -0.69465837861970381 -0.71933979245794832 forward_v I I I I #
face $-1 $103 $104 $34 $-1 $105 forward single #
loop $-1 $106 $107 $43 #
cone-surface $-1 43.282532240447523 37.715791308505409 11.284579846439804 0 -0.69465837861970381 -0.71933979245794832 2 0 0 1 I I 0 1 2 forward I I I I #
face $-1 $108 $109 $35 $-1 $110 forward single #
loop $-1 $111 $112 $44 #
cone-surface $-1 56.383553807027255 37.715791308505409 11.284579846439804 0 -0.69465837861970381 -0.71933979245794832 2 0 0 1 I I 0 1 2 forward I I I I #
face $-1 $113 $114 $27 $-1 $115 reversed single #
loop $-1 $-1 $116 $45 #
plane-surface $-1 0 0 -18.590936629709692 0 0 1 1 0 0 forward_v I I I I #
coedge $-1 $117 $118 $119 $120 forward $46 $-1 #
face $-1 $121 $122 $28 $-1 $123 reversed single #
loop $-1 $-1 $124 $48 #
plane-surface $-1 58.665655433475138 -45.178194452983774 11.72401130881822 0 -0.7660444514056185 0.64278759981090561 1 0 0 forward_v I I I I #
coedge $-1 $125 $126 $127 $128 reversed $49 $-1 #
face $-1 $-1 $129 $29 $-1 $130 forward single #
loop $-1 $131 $132 $51 #
cone-surface $-1 58.665655433475138 -38.015977237467311 11.565120689675592 0 0.7660444514056185 -0.64278759981090561 0.75 0 0 1 I I -0.70710678118654757 0.70710678118654757 0.75 forward I I I I #
loop $-1 $-1 $133 $38 #
coedge $-1 $84 $84 $134 $135 reversed $52 $-1 #
face $-1 $136 $137 $30 $-1 $138 reversed single #
loop $-1 $-1 $139 $54 #
plane-surface $-1 -49.833043023737389 -19.818751589884599 69.710349280512531 0 0.69465837861970381 0.71933979245794832 1 0 0 forward_v I I I I #
coedge $-1 $140 $141 $142 $143 reversed $55 $-1 #
face $-1 $-1 $144 $31 $-1 $145 forward single #
loop $-1 $146 $147 $57 #
cone-surface $-1 -56.383553807027255 35.589352696210391 9.0825882529859605 0 -0.69465837861970381 -0.71933979245794832 1 0 0 1 I I -0.70710678118654746 0.70710678118654746 1 forward I I I I #
loop $-1 $-1 $148 $40 #
coedge $-1 $93 $93 $149 $150 reversed $58 $-1 #
face $-1 $-1 $151 $32 $-1 $152 forward single #
loop $-1 $153 $154 $60 #
cone-surface $-1 -43.282532240447523 35.589352696210391 9.0825882529859605 0 -0.69465837861970381 -0.71933979245794832 1 0 0 1 I I -0.70710678118654746 0.70710678118654746 1 forward I I I I #
loop $-1 $-1 $155 $41 #
coedge $-1 $98 $98 $156 $157 reversed $61 $-1 #
face $-1 $158 $159 $33 $-1 $160 reversed single #
loop $-1 $-1 $161 $63 #
plane-surface $-1 49.833043023737389 -19.818751589884599 69.710349280512531 0 0.69465837861970381 0.71933979245794832 1 0 0 forward_v I I I I #
coedge $-1 $162 $163 $164 $165 reversed $64 $-1 #
face $-1 $-1 $166 $34 $-1 $167 forward single #
loop $-1 $168 $169 $66 #
cone-surface $-1 43.282532240447523 35.589352696210391 9.0825882529859605 0 -0.69465837861970381 -0.71933979245794832 1 0 0 1 I I -0.70710678118654746 0.70710678118654746 1 forward I I I I #
loop $-1 $-1 $170 $43 #
coedge $-1 $107 $107 $171 $172 reversed $67 $-1 #
face $-1 $-1 $173 $35 $-1 $174 forward single #
loop $-1 $175 $176 $69 #
cone-surface $-1 56.383553807027255 35.589352696210391 9.0825882529859605 0 -0.69465837861970381 -0.71933979245794832 1 0 0 1 I I -0.70710678118654746 0.70710678118654746 1 forward I I I I #
loop $-1 $-1 $177 $44 #
coedge $-1 $112 $112 $178 $179 reversed $70 $-1 #
face $-1 $180 $181 $27 $-1 $182 reversed single #
loop $-1 $-1 $183 $72 #
plane-surface $-1 0 -45.178194452983782 0 0 1 0 0 0 1 forward_v I I I I #
coedge $-1 $184 $185 $186 $187 forward $73 $-1 #
coedge $-1 $188 $75 $189 $190 forward $46 $-1 #
coedge $-1 $75 $188 $191 $192 forward $46 $-1 #
coedge $-1 $193 $194 $75 $120 reversed $195 $-1 #
edge $-1 $196 -45.178194452983782 $197 45.178194452983782 $119 $198 forward 7 unknown #
face $-1 $199 $200 $28 $-1 $201 reversed single #
loop $-1 $-1 $202 $76 #
plane-surface $-1 51.137322554364687 -156.39830100344716 105.04875925145595 1 0 0 0 0.7660444514056185 -0.64278759981090561 forward_v I I I I #
coedge $-1 $203 $204 $205 $206 reversed $77 $-1 #
coedge $-1 $126 $79 $207 $208 reversed $49 $-1 #
coedge $-1 $79 $125 $203 $209 reversed $49 $-1 #
coedge $-1 $205 $210 $79 $128 forward $211 $-1 #
edge $-1 $212 33.020956048739798 $213 38.782990401964788 $127 $214 forward 7 unknown #
loop $-1 $-1 $134 $80 #
plane-surface $-1 58.665655433475138 -45.178194452983774 11.72401130881822 0 -0.7660444514056185 0.64278759981090561 1 0 0 forward_v I I I I #
loop $-1 $-1 $215 $51 #
coedge $-1 $132 $132 $133 $216 reversed $81 $-1 #
coedge $-1 $133 $133 $132 $216 forward $83 $-1 #
coedge $-1 $134 $134 $84 $135 forward $129 $-1 #
edge $-1 $217 5.838617368885599e-016 $217 6.2831853071796013 $134 $218 forward 7 unknown #
face $-1 $219 $220 $30 $-1 $221 reversed single #
loop $-1 $-1 $222 $85 #
plane-surface $-1 -34.548517862727707 81.036986930890407 174.14952146740012 -1 0 0 0 0.69465837861970381 0.71933979245794832 forward_v I I I I #
coedge $-1 $223 $224 $225 $226 reversed $86 $-1 #
coedge $-1 $141 $88 $227 $228 reversed $55 $-1 #
coedge $-1 $88 $140 $223 $229 reversed $55 $-1 #
coedge $-1 $225 $230 $88 $143 forward $231 $-1 #
edge $-1 $232 -4.659700987538578 $233 7.4015448340675505 $142 $234 forward 7 unknown #
loop $-1 $-1 $149 $89 #
plane-surface $-1 -49.833043023737389 -19.818751589884599 69.710349280512531 0 0.69465837861970381 0.71933979245794832 1 0 0 forward_v I I I I #
loop $-1 $-1 $235 $57 #
coedge $-1 $147 $147 $148 $236 reversed $90 $-1 #
coedge $-1 $148 $148 $147 $236 forward $92 $-1 #
coedge $-1 $149 $149 $93 $150 forward $144 $-1 #
edge $-1 $237 8.7685996555267595e-017 $237 6.2831853071796004 $149 $238 forward 7 unknown #
loop $-1 $-1 $156 $94 #
plane-surface $-1 -49.833043023737389 -19.818751589884599 69.710349280512531 0 0.69465837861970381 0.71933979245794832 1 0 0 forward_v I I I I #
loop $-1 $-1 $239 $60 #
coedge $-1 $154 $154 $155 $240 reversed $95 $-1 #
coedge $-1 $155 $155 $154 $240 forward $97 $-1 #
coedge $-1 $156 $156 $98 $157 forward $151 $-1 #
edge $-1 $241 8.7685996555267595e-017 $241 6.2831853071796004 $156 $242 forward 7 unknown #
face $-1 $243 $244 $33 $-1 $245 forward single #
loop $-1 $-1 $246 $99 #
plane-surface $-1 65.117568184747071 81.036986930890407 174.14952146740012 -1 0 0 0 0.69465837861970381 0.71933979245794832 forward_v I I I I #
coedge $-1 $247 $248 $249 $250 reversed $100 $-1 #
coedge $-1 $163 $102 $251 $252 reversed $64 $-1 #
coedge $-1 $102 $162 $247 $253 reversed $64 $-1 #
coedge $-1 $249 $254 $102 $165 forward $244 $-1 #
edge $-1 $255 -4.659700987538578 $256 7.4015448340675505 $164 $257 forward 7 unknown #
loop $-1 $-1 $171 $103 #
plane-surface $-1 49.833043023737389 -19.818751589884599 69.710349280512531 0 0.69465837861970381 0.71933979245794832 1 0 0 forward_v I I I I #
loop $-1 $-1 $258 $66 #
coedge $-1 $169 $169 $170 $259 reversed $104 $-1 #
coedge $-1 $170 $170 $169 $259 forward $106 $-1 #
coedge $-1 $171 $171 $107 $172 forward $166 $-1 #
edge $-1 $260 8.7685996555267595e-017 $260 6.2831853071796004 $171 $261 forward 7 unknown #
loop $-1 $-1 $178 $108 #
plane-surface $-1 49.833043023737389 -19.818751589884599 69.710349280512531 0 0.69465837861970381 0.71933979245794832 1 0 0 forward_v I I I I #
loop $-1 $-1 $262 $69 #
coedge $-1 $176 $176 $177 $263 reversed $109 $-1 #
coedge $-1 $177 $177 $176 $263 forward $111 $-1 #
coedge $-1 $178 $178 $112 $179 forward $173 $-1 #
edge $-1 $264 8.7685996555267595e-017 $264 6.2831853071796004 $178 $265 forward 7 unknown #
face $-1 $266 $267 $27 $-1 $268 reversed single #
loop $-1 $-1 $269 $113 #
plane-surface $-1 -72.593768120365013 0 0 1 0 0 0 0 -1 forward_v I I I I #
coedge $-1 $270 $191 $271 $272 forward $114 $-1 #
coedge $-1 $273 $116 $270 $274 forward $73 $-1 #
coedge $-1 $116 $273 $275 $276 forward $73 $-1 #
coedge $-1 $194 $193 $116 $187 reversed $195 $-1 #
edge $-1 $277 -45.178194452983782 $278 45.178194452983782 $186 $279 forward 7 unknown #
coedge $-1 $118 $117 $280 $281 forward $46 $-1 #
coedge $-1 $282 $283 $117 $190 reversed $267 $-1 #
edge $-1 $197 -72.593768120365013 $284 72.593768120365013 $189 $285 forward 7 unknown #
coedge $-1 $183 $286 $118 $192 reversed $114 $-1 #
edge $-1 $287 -72.593768120365013 $196 72.593768120365013 $191 $288 forward 7 unknown #
coedge $-1 $186 $119 $286 $289 forward $195 $-1 #
coedge $-1 $119 $186 $282 $290 reversed $195 $-1 #
loop $-1 $-1 $193 $266 #
vertex $-1 $120 $291 #
vertex $-1 $120 $292 #
straight-curve $-1 72.593768120365013 0 18.590936629709692 0 1 0 I I #
face $-1 $-1 $211 $28 $-1 $293 forward single #
loop $-1 $-1 $294 $121 #
plane-surface $-1 0 -45.178194452983782 0 0 1 0 0 0 1 forward_v I I I I #
coedge $-1 $295 $296 $297 $298 reversed $122 $-1 #
coedge $-1 $299 $124 $126 $209 forward $77 $-1 #
coedge $-1 $124 $299 $295 $300 forward $77 $-1 #
coedge $-1 $297 $127 $124 $206 forward $211 $-1 #
edge $-1 $213 -36.86116059584802 $301 -21.804494837627118 $205 $302 forward 7 unknown #
coedge $-1 $303 $304 $125 $208 forward $200 $-1 #
edge $-1 $305 -40.800368316909761 $212 -33.933442996018286 $207 $306 forward 7 unknown #
edge $-1 $213 -8.9641342722231325 $305 1.1371122099518014e-014 $126 $307 forward 7 unknown #
coedge $-1 $127 $297 $303 $308 forward $211 $-1 #
loop $-1 $-1 $297 $199 #
vertex $-1 $208 $309 #
vertex $-1 $128 $310 #
straight-curve $-1 66.193988312585589 -78.19915050172358 18.590936629709688 0 1 0 I I #
coedge $-1 $215 $215 $-1 $311 reversed $131 $-1 #
edge $-1 $312 0 $312 6.2831853071796004 $132 $313 forward 7 unknown #
vertex $-1 $135 $314 #
ellipse-curve $-1 58.665655433475138 -42.297177276371286 15.157473969263954 0 -0.7660444514056185 0.64278759981090561 1.5 0 0 1 I I #
face $-1 $-1 $231 $30 $-1 $315 forward single #
loop $-1 $-1 $316 $136 #
plane-surface $-1 0 45.178194452983782 0 0 -1 0 0 0 -1 forward_v I I I I #
coedge $-1 $317 $318 $319 $320 reversed $137 $-1 #
coedge $-1 $321 $139 $141 $229 forward $86 $-1 #
coedge $-1 $139 $321 $317 $322 forward $86 $-1 #
coedge $-1 $319 $142 $139 $226 forward $231 $-1 #
edge $-1 $233 -40.201046672878377 $323 -9.6319963508590121 $225 $324 forward 7 unknown #
coedge $-1 $325 $326 $140 $228 forward $220 $-1 #
edge $-1 $327 -80.131234068538362 $232 -68.483824103990372 $227 $328 forward 7 unknown #
edge $-1 $233 73.589283918777227 $327 90.356388905967577 $141 $329 forward 7 unknown #
coedge $-1 $142 $319 $325 $330 forward $231 $-1 #
loop $-1 $-1 $319 $219 #
vertex $-1 $228 $331 #
vertex $-1 $143 $332 #
straight-curve $-1 -65.117568184747071 40.518493465445204 18.590936629709688 0 -1 0 I I #
coedge $-1 $235 $235 $-1 $333 reversed $146 $-1 #
edge $-1 $334 0 $334 6.2831853071796004 $147 $335 forward 7 unknown #
vertex $-1 $150 $336 #
ellipse-curve $-1 -56.383553807027255 39.147571542180714 12.767231647435691 0 0.69465837861970381 0.71933979245794832 2 0 0 1 I I #
coedge $-1 $239 $239 $-1 $337 reversed $153 $-1 #
edge $-1 $338 0 $338 6.2831853071796004 $154 $339 forward 7 unknown #
vertex $-1 $157 $340 #
ellipse-curve $-1 -43.282532240447523 39.147571542180714 12.767231647435691 0 0.69465837861970381 0.71933979245794832 2 0 0 1 I I #
face $-1 $-1 $341 $33 $-1 $342 reversed single #
loop $-1 $-1 $164 $158 #
plane-surface $-1 0 0 18.590936629709692 0 0 1 1 0 0 forward_v I I I I #
coedge $-1 $343 $344 $345 $346 reversed $159 $-1 #
coedge $-1 $347 $161 $163 $253 forward $100 $-1 #
coedge $-1 $161 $347 $343 $348 forward $100 $-1 #
coedge $-1 $345 $164 $161 $250 forward $244 $-1 #
edge $-1 $256 9.6319963508590121 $349 40.201046672878377 $249 $350 forward 7 unknown #
coedge $-1 $351 $352 $162 $252 forward $341 $-1 #
edge $-1 $353 -80.131234068538362 $255 -68.483824103990372 $251 $354 forward 7 unknown #
edge $-1 $256 73.589283918777227 $353 90.356388905967577 $163 $355 forward 7 unknown #
coedge $-1 $164 $345 $351 $356 forward $244 $-1 #
vertex $-1 $165 $357 #
vertex $-1 $165 $358 #
straight-curve $-1 34.548517862727707 40.518493465445204 18.590936629709688 0 -1 0 I I #
coedge $-1 $258 $258 $-1 $359 reversed $168 $-1 #
edge $-1 $360 0 $360 6.2831853071796004 $169 $361 forward 7 unknown #
vertex $-1 $172 $362 #
ellipse-curve $-1 43.282532240447523 39.147571542180714 12.767231647435691 0 0.69465837861970381 0.71933979245794832 2 0 0 1 I I #
coedge $-1 $262 $262 $-1 $363 reversed $175 $-1 #
edge $-1 $364 0 $364 6.2831853071796004 $176 $365 forward 7 unknown #
vertex $-1 $179 $366 #
ellipse-curve $-1 56.383553807027255 39.147571542180714 12.767231647435691 0 0.69465837861970381 0.71933979245794832 2 0 0 1 I I #
face $-1 $-1 $195 $27 $-1 $367 reversed single #
loop $-1 $-1 $282 $180 #
plane-surface $-1 0 45.178194452983782 0 0 -1 0 0 0 -1 forward_v I I I I #
coedge $-1 $368 $280 $283 $369 forward $181 $-1 #
coedge $-1 $286 $183 $184 $274 reversed $114 $-1 #
coedge $-1 $280 $368 $183 $272 reversed $181 $-1 #
edge $-1 $287 -18.590936629709692 $370 18.590936629709692 $271 $371 forward 7 unknown #
coedge $-1 $185 $184 $368 $372 forward $73 $-1 #
edge $-1 $278 -72.593768120365013 $370 72.593768120365013 $270 $373 forward 7 unknown #
coedge $-1 $283 $282 $185 $276 reversed $267 $-1 #
edge $-1 $374 -72.593768120365013 $277 72.593768120365013 $275 $375 forward 7 unknown #
vertex $-1 $187 $376 #
vertex $-1 $289 $377 #
straight-curve $-1 72.593768120365013 0 -18.590936629709692 0 -1 0 I I #
coedge $-1 $269 $271 $188 $281 reversed $181 $-1 #
edge $-1 $284 -45.178194452983782 $287 45.178194452983782 $280 $378 forward 7 unknown #
coedge $-1 $275 $189 $194 $290 forward $267 $-1 #
coedge $-1 $189 $275 $269 $369 reversed $267 $-1 #
vertex $-1 $190 $379 #
straight-curve $-1 0 45.178194452983782 18.590936629709692 -1 0 0 I I #
coedge $-1 $191 $270 $193 $289 reversed $114 $-1 #
vertex $-1 $281 $380 #
straight-curve $-1 0 -45.178194452983782 18.590936629709692 1 0 0 I I #
edge $-1 $196 -18.590936629709692 $278 18.590936629709692 $193 $381 forward 7 unknown #
edge $-1 $197 -18.590936629709692 $277 18.590936629709692 $194 $382 forward 7 unknown #
point $-1 72.593768120365013 -45.178194452983782 18.590936629709692 #
point $-1 72.593768120365013 45.178194452983782 18.590936629709692 #
plane-surface $-1 0 0 18.590936629709692 0 0 1 1 0 0 forward_v I I I I #
coedge $-1 $304 $303 $296 $383 forward $200 $-1 #
coedge $-1 $296 $202 $204 $300 reversed $122 $-1 #
coedge $-1 $202 $295 $294 $383 reversed $122 $-1 #
coedge $-1 $210 $205 $202 $298 forward $211 $-1 #
edge $-1 $301 -38.782990401964788 $384 -33.020956048739798 $297 $385 forward 7 unknown #
coedge $-1 $204 $203 $304 $386 reversed $77 $-1 #
edge $-1 $387 -1.1371122099518014e-014 $301 8.9641342722231325 $295 $388 forward 7 unknown #
vertex $-1 $206 $389 #
straight-curve $-1 29.332827716737569 -39.416160099758784 18.590936629709692 -1 0 0 I I #
coedge $-1 $294 $207 $210 $308 reversed $200 $-1 #
coedge $-1 $207 $294 $299 $386 forward $200 $-1 #
vertex $-1 $208 $390 #
straight-curve $-1 66.193988312585589 -45.178194452983782 52.524379625727974 0 0 1 I I #
straight-curve $-1 66.193988312585589 -45.178194452983774 11.72401130881822 0 -0.64278759981090561 -0.7660444514056185 I I #
edge $-1 $384 51.137322554364687 $212 66.193988312585589 $303 $391 forward 7 unknown #
point $-1 66.193988312585589 -45.178194452983782 18.590936629709692 #
point $-1 66.193988312585589 -39.416160099758791 18.590936629709692 #
edge $-1 $392 1 $392 0 $215 $-1 forward 7 unknown #
vertex $-1 $216 $393 #
ellipse-curve $-1 58.665655433475138 -38.590510576021522 12.047211389533771 0 -0.7660444514056185 0.64278759981090561 1.5 0 0 1 I I #
point $-1 60.165655433475138 -42.297177276371293 15.157473969263961 #
plane-surface $-1 0 0 18.590936629709692 0 0 1 1 0 0 forward_v I I I I #
coedge $-1 $326 $325 $318 $394 forward $220 $-1 #
coedge $-1 $318 $222 $224 $322 reversed $137 $-1 #
coedge $-1 $222 $317 $316 $394 reversed $137 $-1 #
coedge $-1 $230 $225 $222 $320 forward $231 $-1 #
edge $-1 $323 -7.4015448340675505 $395 4.659700987538578 $319 $396 forward 7 unknown #
coedge $-1 $224 $223 $326 $397 reversed $86 $-1 #
edge $-1 $398 -90.356388905967577 $323 -73.589283918777227 $317 $399 forward 7 unknown #
vertex $-1 $226 $400 #
straight-curve $-1 -24.916521511868694 33.11694863137766 18.590936629709681 1 0 0 I I #
coedge $-1 $316 $227 $230 $330 reversed $220 $-1 #
coedge $-1 $227 $316 $321 $397 forward $220 $-1 #
vertex $-1 $228 $401 #
straight-curve $-1 -65.117568184747071 45.178194452983782 87.07476073370006 0 0 1 I I #
straight-curve $-1 -65.117568184747071 -19.818751589884599 69.710349280512531 0 0.71933979245794832 -0.69465837861970381 I I #
edge $-1 $395 34.548517862727707 $232 65.117568184747071 $325 $402 forward 7 unknown #
point $-1 -65.117568184747071 45.178194452983782 18.590936629709692 #
point $-1 -65.117568184747071 33.116948631377653 18.590936629709688 #
edge $-1 $403 1 $403 0 $235 $-1 forward 7 unknown #
vertex $-1 $236 $404 #
ellipse-curve $-1 -56.383553807027255 36.284011074830097 9.8019280454439084 0 0.69465837861970381 0.71933979245794832 2 0 0 1 I I #
point $-1 -54.383553807027255 39.147571542180721 12.767231647435699 #
edge $-1 $405 1 $405 0 $239 $-1 forward 7 unknown #
vertex $-1 $240 $406 #
ellipse-curve $-1 -43.282532240447523 36.284011074830097 9.8019280454439084 0 0.69465837861970381 0.71933979245794832 2 0 0 1 I I #
point $-1 -41.282532240447523 39.147571542180721 12.767231647435699 #
loop $-1 $-1 $251 $243 #
plane-surface $-1 0 45.178194452983782 0 0 -1 0 0 0 -1 forward_v I I I I #
coedge $-1 $344 $246 $248 $348 reversed $159 $-1 #
coedge $-1 $246 $343 $407 $408 reversed $159 $-1 #
coedge $-1 $254 $249 $246 $346 forward $244 $-1 #
edge $-1 $349 -7.4015448340675505 $409 4.659700987538578 $345 $410 forward 7 unknown #
coedge $-1 $248 $247 $352 $411 reversed $100 $-1 #
edge $-1 $412 -90.356388905967577 $349 -73.589283918777227 $343 $413 forward 7 unknown #
vertex $-1 $250 $414 #
straight-curve $-1 24.916521511868694 33.11694863137766 18.590936629709681 1 0 0 I I #
coedge $-1 $407 $251 $254 $356 reversed $341 $-1 #
coedge $-1 $251 $407 $347 $411 forward $341 $-1 #
vertex $-1 $252 $415 #
straight-curve $-1 34.548517862727707 45.178194452983782 87.07476073370006 0 0 1 I I #
straight-curve $-1 34.548517862727707 -19.818751589884599 69.710349280512531 0 0.71933979245794832 -0.69465837861970381 I I #
edge $-1 $409 -65.117568184747071 $255 -34.548517862727707 $351 $416 forward 7 unknown #
point $-1 34.548517862727707 45.178194452983782 18.590936629709692 #
point $-1 34.548517862727707 33.116948631377653 18.590936629709688 #
edge $-1 $417 1 $417 0 $258 $-1 forward 7 unknown #
vertex $-1 $259 $418 #
ellipse-curve $-1 43.282532240447523 36.284011074830097 9.8019280454439084 0 0.69465837861970381 0.71933979245794832 2 0 0 1 I I #
point $-1 45.282532240447523 39.147571542180721 12.767231647435699 #
edge $-1 $419 1 $419 0 $262 $-1 forward 7 unknown #
vertex $-1 $263 $420 #
ellipse-curve $-1 56.383553807027255 36.284011074830097 9.8019280454439084 0 0.69465837861970381 0.71933979245794832 2 0 0 1 I I #
point $-1 58.383553807027255 39.147571542180721 12.767231647435699 #
plane-surface $-1 72.593768120365013 0 0 -1 0 0 0 0 1 forward_v I I I I #
coedge $-1 $271 $269 $273 $372 reversed $181 $-1 #
edge $-1 $284 -18.590936629709692 $374 18.590936629709692 $283 $421 forward 7 unknown #
vertex $-1 $372 $422 #
straight-curve $-1 -72.593768120365013 -45.178194452983782 0 0 0 -1 I I #
edge $-1 $370 -45.178194452983782 $374 45.178194452983782 $368 $423 forward 7 unknown #
straight-curve $-1 0 -45.178194452983782 -18.590936629709692 -1 0 0 I I #
vertex $-1 $276 $424 #
straight-curve $-1 0 45.178194452983782 -18.590936629709692 1 0 0 I I #
point $-1 72.593768120365013 45.178194452983782 -18.590936629709692 #
point $-1 72.593768120365013 -45.178194452983782 -18.590936629709692 #
straight-curve $-1 -72.593768120365013 0 18.590936629709692 0 -1 0 I I #
point $-1 -72.593768120365013 45.178194452983782 18.590936629709692 #
point $-1 -72.593768120365013 -45.178194452983782 18.590936629709692 #
straight-curve $-1 72.593768120365013 -45.178194452983782 0 0 0 -1 I I #
straight-curve $-1 72.593768120365013 45.178194452983782 0 0 0 -1 I I #
edge $-1 $384 33.933442996018286 $387 40.800368316909761 $294 $425 forward 7 unknown #
vertex $-1 $308 $426 #
straight-curve $-1 51.137322554364687 -78.19915050172358 18.590936629709688 0 -1 0 I I #
edge $-1 $387 21.804494837627118 $305 36.86116059584802 $304 $427 forward 7 unknown #
vertex $-1 $386 $428 #
straight-curve $-1 51.137322554364687 -45.178194452983774 11.72401130881822 0 0.64278759981090561 0.7660444514056185 I I #
point $-1 51.137322554364687 -39.416160099758791 18.590936629709692 #
point $-1 66.193988312585589 -45.178194452983782 11.724011308818211 #
straight-curve $-1 0 -45.178194452983782 18.590936629709692 1 0 0 I I #
vertex $-1 $311 $429 #
point $-1 60.165655433475138 -38.590510576021522 12.047211389533771 #
edge $-1 $395 68.483824103990372 $398 80.131234068538362 $316 $430 forward 7 unknown #
vertex $-1 $330 $431 #
straight-curve $-1 -34.548517862727707 40.518493465445204 18.590936629709688 0 1 0 I I #
edge $-1 $398 9.6319963508590121 $327 40.201046672878377 $326 $432 forward 7 unknown #
vertex $-1 $397 $433 #
straight-curve $-1 -34.548517862727707 -19.818751589884599 69.710349280512531 0 -0.71933979245794832 0.69465837861970381 I I #
point $-1 -34.548517862727707 33.116948631377653 18.590936629709688 #
point $-1 -65.117568184747071 45.178194452983789 6.9435266651616914 #
straight-curve $-1 0 45.178194452983782 18.590936629709692 -1 0 0 I I #
vertex $-1 $333 $434 #
point $-1 -54.383553807027255 36.284011074830097 9.8019280454439084 #
vertex $-1 $337 $435 #
point $-1 -41.282532240447523 36.284011074830097 9.8019280454439084 #
coedge $-1 $352 $351 $344 $408 forward $341 $-1 #
edge $-1 $409 68.483824103990372 $412 80.131234068538362 $407 $436 forward 7 unknown #
vertex $-1 $356 $437 #
straight-curve $-1 65.117568184747071 40.518493465445204 18.590936629709688 0 1 0 I I #
edge $-1 $412 -40.201046672878377 $353 -9.6319963508590121 $352 $438 forward 7 unknown #
vertex $-1 $411 $439 #
straight-curve $-1 65.117568184747071 -19.818751589884599 69.710349280512531 0 -0.71933979245794832 0.69465837861970381 I I #
point $-1 65.117568184747071 33.116948631377653 18.590936629709688 #
point $-1 34.548517862727707 45.178194452983789 6.9435266651616914 #
straight-curve $-1 0 45.178194452983782 18.590936629709692 -1 0 0 I I #
vertex $-1 $359 $440 #
point $-1 45.282532240447523 36.284011074830097 9.8019280454439084 #
vertex $-1 $363 $441 #
point $-1 58.383553807027255 36.284011074830097 9.8019280454439084 #
straight-curve $-1 -72.593768120365013 45.178194452983782 0 0 0 -1 I I #
point $-1 -72.593768120365013 -45.178194452983782 -18.590936629709692 #
straight-curve $-1 -72.593768120365013 0 -18.590936629709692 0 1 0 I I #
point $-1 -72.593768120365013 45.178194452983782 -18.590936629709692 #
straight-curve $-1 51.137322554364687 -45.178194452983782 52.524379625727974 0 0 -1 I I #
point $-1 51.137322554364687 -45.178194452983782 18.590936629709692 #
straight-curve $-1 29.332827716737569 -45.178194452983782 11.724011308818206 1 0 0 I I #
point $-1 51.137322554364687 -45.178194452983782 11.724011308818211 #
point $-1 58.665655433475138 -37.4414438989131 11.083029989817412 #
straight-curve $-1 -34.548517862727707 45.178194452983782 87.07476073370006 0 0 -1 I I #
point $-1 -34.548517862727707 45.178194452983782 18.590936629709692 #
straight-curve $-1 -24.916521511868694 45.178194452983774 6.943526665161702 -1 0 0 I I #
point $-1 -34.548517862727707 45.178194452983789 6.9435266651616914 #
point $-1 -56.383553807027255 34.894694317590684 8.3632484605280126 #
point $-1 -43.282532240447523 34.894694317590684 8.3632484605280126 #
straight-curve $-1 65.117568184747071 45.178194452983782 87.07476073370006 0 0 -1 I I #
point $-1 65.117568184747071 45.178194452983782 18.590936629709692 #
straight-curve $-1 24.916521511868694 45.178194452983774 6.943526665161702 -1 0 0 I I #
point $-1 65.117568184747071 45.178194452983789 6.9435266651616914 #
point $-1 43.282532240447523 34.894694317590684 8.3632484605280126 #
point $-1 56.383553807027255 34.894694317590684 8.3632484605280126 #
End-of-ACIS-data 