500 0 10 0           
7 Unknown 11 ACIS 5.0 NT 24 Thu Mar 25 21:10:35 1999 
-1 9.9999999999999995e-007 1e-010 
body $-1 $10 $-1 $11 #
body $-1 $12 $-1 $13 #
body $-1 $14 $-1 $15 #
body $-1 $16 $-1 $17 #
body $-1 $18 $-1 $19 #
body $-1 $20 $-1 $21 #
body $-1 $22 $-1 $23 #
body $-1 $24 $-1 $25 #
body $-1 $26 $-1 $27 #
body $-1 $28 $-1 $29 #
lump $-1 $-1 $30 $0 #
transform $-1 1 0 0 0 1 0 0 0 1 78.028504287850581 50.60934455636469 16.600983248242883 1 rotate no_reflect no_shear #
lump $-1 $-1 $31 $1 #
transform $-1 1 0 0 0 1 0 0 0 1 78.028504287850581 50.60934455636469 16.600983248242883 1 rotate no_reflect no_shear #
lump $-1 $-1 $32 $2 #
transform $-1 1 0 0 0 1 0 0 0 1 78.028504287850581 50.60934455636469 16.600983248242883 1 rotate no_reflect no_shear #
lump $-1 $-1 $33 $3 #
transform $-1 1 0 0 0 1 0 0 0 1 78.028504287850581 50.60934455636469 16.600983248242883 1 rotate no_reflect no_shear #
lump $-1 $-1 $34 $4 #
transform $-1 1 0 0 0 1 0 0 0 1 78.028504287850581 50.60934455636469 16.600983248242883 1 rotate no_reflect no_shear #
lump $-1 $-1 $35 $5 #
transform $-1 1 0 0 0 1 0 0 0 1 78.028504287850581 50.60934455636469 16.600983248242883 1 rotate no_reflect no_shear #
lump $-1 $-1 $36 $6 #
transform $-1 1 0 0 0 1 0 0 0 1 78.028504287850581 50.60934455636469 16.600983248242883 1 rotate no_reflect no_shear #
lump $-1 $-1 $37 $7 #
transform $-1 1 0 0 0 1 0 0 0 1 78.028504287850581 50.60934455636469 16.600983248242883 1 rotate no_reflect no_shear #
lump $-1 $-1 $38 $8 #
transform $-1 1 0 0 0 1 0 0 0 1 78.028504287850581 50.60934455636469 16.600983248242883 1 rotate no_reflect no_shear #
lump $-1 $-1 $39 $9 #
transform $-1 1 0 0 0 1 0 0 0 1 78.028504287850581 50.60934455636469 16.600983248242883 1 rotate no_reflect no_shear #
shell $-1 $-1 $-1 $40 $-1 $10 #
shell $-1 $-1 $-1 $41 $-1 $12 #
shell $-1 $-1 $-1 $42 $-1 $14 #
shell $-1 $-1 $-1 $43 $-1 $16 #
shell $-1 $-1 $-1 $44 $-1 $18 #
shell $-1 $-1 $-1 $45 $-1 $20 #
shell $-1 $-1 $-1 $46 $-1 $22 #
shell $-1 $-1 $-1 $47 $-1 $24 #
shell $-1 $-1 $-1 $48 $-1 $26 #
shell $-1 $-1 $-1 $49 $-1 $28 #
face $-1 $50 $51 $30 $-1 $52 forward single #
face $-1 $53 $54 $31 $-1 $55 forward single #
face $-1 $56 $57 $32 $-1 $58 forward single #
face $-1 $59 $60 $33 $-1 $61 reversed single #
face $-1 $62 $63 $34 $-1 $64 forward single #
face $-1 $65 $66 $35 $-1 $67 reversed single #
face $-1 $68 $69 $36 $-1 $70 forward single #
face $-1 $71 $72 $37 $-1 $73 reversed single #
face $-1 $74 $75 $38 $-1 $76 forward single #
face $-1 $77 $78 $39 $-1 $79 forward single #
face $-1 $80 $81 $30 $-1 $82 reversed single #
loop $-1 $-1 $83 $40 #
plane-surface $-1 0 0 16.600983248242883 0 0 1 1 0 0 forward_v I I I I #
face $-1 $84 $85 $31 $-1 $86 forward single #
loop $-1 $-1 $87 $41 #
plane-surface $-1 0 -50.60934455636469 0 0 1 0 0 0 1 forward_v I I I I #
face $-1 $88 $89 $32 $-1 $90 reversed single #
loop $-1 $-1 $91 $42 #
plane-surface $-1 0 50.60934455636469 0 0 -1 0 0 0 -1 forward_v I I I I #
face $-1 $92 $93 $33 $-1 $94 reversed single #
loop $-1 $-1 $95 $43 #
plane-surface $-1 -208.90892555102852 -37.857740580616223 91.469596636625212 0 1 0 -0.83867057594974714 0 0.54463902268945019 forward_v I I I I #
face $-1 $96 $97 $34 $-1 $98 forward single #
loop $-1 $99 $100 $44 #
cone-surface $-1 -72.332986308381706 -30.711076771830289 9.9744550865361852 0.83867057594974714 0 -0.54463902268945019 1.3615975567236256 0 2.096676439874368 1 I I 0 1 2.5 forward I I I I #
face $-1 $101 $102 $35 $-1 $103 reversed single #
loop $-1 $-1 $104 $45 #
plane-surface $-1 -208.90892555102852 23.564412963044344 91.469596636625212 0 1 0 -0.83867057594974714 0 0.54463902268945019 forward_v I I I I #
face $-1 $105 $106 $36 $-1 $107 forward single #
loop $-1 $108 $109 $46 #
cone-surface $-1 -72.332986308381706 30.711076771830278 9.9744550865361852 0.83867057594974714 0 -0.54463902268945019 1.3615975567236256 0 2.096676439874368 1 I I 0 1 2.5 forward I I I I #
face $-1 $110 $111 $37 $-1 $112 reversed single #
loop $-1 $-1 $113 $47 #
plane-surface $-1 54.95929018619745 22.788157854955578 231.43705964147961 0 -1 0 -0.62932039886446345 0 -0.77714595512881146 forward_v I I I I #
face $-1 $114 $115 $38 $-1 $116 forward single #
loop $-1 $117 $118 $48 #
cone-surface $-1 73.490452037807387 14.872113856041452 12.218262463400844 -0.62932039886446345 0 -0.77714595512881146 1.1657189326932171 0 -0.94398059829669512 1 I I 0 1 1.5 forward I I I I #
face $-1 $119 $120 $39 $-1 $121 forward single #
loop $-1 $122 $123 $49 #
cone-surface $-1 73.490452037807387 19.621740255389923 12.218262463400844 -0.62932039886446345 0 -0.77714595512881146 1.1657189326932171 0 -0.94398059829669512 1 I I 0 1 1.5 forward I I I I #
face $-1 $124 $125 $30 $-1 $126 reversed single #
loop $-1 $-1 $127 $50 #
plane-surface $-1 0 0 -16.600983248242883 0 0 1 1 0 0 forward_v I I I I #
coedge $-1 $128 $129 $130 $131 forward $51 $-1 #
face $-1 $132 $133 $31 $-1 $134 reversed single #
loop $-1 $-1 $135 $53 #
plane-surface $-1 0 0 16.600983248242883 0 0 1 1 0 0 forward_v I I I I #
coedge $-1 $136 $137 $138 $139 forward $54 $-1 #
face $-1 $140 $141 $32 $-1 $142 reversed single #
loop $-1 $-1 $143 $56 #
plane-surface $-1 78.028504287850581 0 0 -1 0 0 0 0 1 forward_v I I I I #
coedge $-1 $144 $145 $146 $147 forward $57 $-1 #
face $-1 $148 $149 $33 $-1 $150 reversed single #
loop $-1 $-1 $151 $59 #
plane-surface $-1 -78.028504287850609 -30.711076771830289 6.4748600021161877 -0.83867057594974714 0 0.54463902268945019 0.54463902268945019 0 0.83867057594974714 forward_v I I I I #
coedge $-1 $152 $153 $154 $155 reversed $60 $-1 #
face $-1 $-1 $156 $34 $-1 $157 forward single #
loop $-1 $158 $159 $62 #
cone-surface $-1 -68.877120666029498 -30.711076771830289 7.7301897695310302 0.83867057594974714 0 -0.54463902268945019 0.6807987783618128 0 1.048338219937184 1 I I -0.70710678118654746 0.70710678118654746 1.25 forward I I I I #
loop $-1 $-1 $160 $44 #
coedge $-1 $100 $100 $161 $162 reversed $63 $-1 #
face $-1 $163 $164 $35 $-1 $165 reversed single #
loop $-1 $-1 $166 $65 #
plane-surface $-1 -78.028504287850609 30.711076771830278 6.4748600021161877 -0.83867057594974714 0 0.54463902268945019 0.54463902268945019 0 0.83867057594974714 forward_v I I I I #
coedge $-1 $167 $168 $169 $170 reversed $66 $-1 #
face $-1 $-1 $171 $36 $-1 $172 forward single #
loop $-1 $173 $174 $68 #
cone-surface $-1 -68.877120666029498 30.711076771830278 7.7301897695310302 0.83867057594974714 0 -0.54463902268945019 0.6807987783618128 0 1.048338219937184 1 I I -0.70710678118654746 0.70710678118654746 1.25 forward I I I I #
loop $-1 $-1 $175 $46 #
coedge $-1 $109 $109 $176 $177 reversed $69 $-1 #
face $-1 $178 $179 $37 $-1 $180 reversed single #
loop $-1 $-1 $181 $71 #
plane-surface $-1 -43.250568696257801 17.246927055715688 110.15798665737121 0.62932039886446345 0 0.77714595512881146 0.77714595512881146 0 -0.62932039886446345 forward_v I I I I #
coedge $-1 $182 $183 $184 $185 reversed $72 $-1 #
face $-1 $-1 $186 $38 $-1 $187 forward single #
loop $-1 $188 $189 $74 #
cone-surface $-1 71.353308426437934 14.872113856041452 9.5791099488756402 -0.62932039886446345 0 -0.77714595512881146 0.58285946634660857 0 -0.47199029914834756 1 I I -0.70710678118654757 0.70710678118654757 0.75 forward I I I I #
loop $-1 $-1 $190 $48 #
coedge $-1 $118 $118 $191 $192 reversed $75 $-1 #
face $-1 $-1 $193 $39 $-1 $194 forward single #
loop $-1 $195 $196 $77 #
cone-surface $-1 71.353308426437934 19.621740255389923 9.5791099488756402 -0.62932039886446345 0 -0.77714595512881146 0.58285946634660857 0 -0.47199029914834756 1 I I -0.70710678118654757 0.70710678118654757 0.75 forward I I I I #
loop $-1 $-1 $197 $49 #
coedge $-1 $123 $123 $198 $199 reversed $78 $-1 #
face $-1 $200 $201 $30 $-1 $202 reversed single #
loop $-1 $-1 $203 $80 #
plane-surface $-1 0 -50.60934455636469 0 0 1 0 0 0 1 forward_v I I I I #
coedge $-1 $204 $205 $206 $207 forward $81 $-1 #
coedge $-1 $208 $83 $209 $210 forward $51 $-1 #
coedge $-1 $83 $208 $211 $212 forward $51 $-1 #
coedge $-1 $213 $214 $83 $131 reversed $215 $-1 #
edge $-1 $216 -50.60934455636469 $217 50.60934455636469 $130 $218 forward 7 unknown #
face $-1 $219 $220 $31 $-1 $221 reversed single #
loop $-1 $-1 $222 $84 #
plane-surface $-1 -78.028504287850581 0 0 1 0 0 0 0 -1 forward_v I I I I #
coedge $-1 $223 $224 $225 $226 forward $85 $-1 #
coedge $-1 $225 $87 $222 $227 reversed $54 $-1 #
coedge $-1 $87 $225 $228 $229 reversed $54 $-1 #
coedge $-1 $230 $231 $87 $139 reversed $220 $-1 #
edge $-1 $232 -78.028504287850581 $233 78.028504287850581 $138 $234 forward 7 unknown #
face $-1 $235 $236 $32 $-1 $237 reversed single #
loop $-1 $-1 $238 $88 #
plane-surface $-1 0 56.98514654423893 7.5075536413392214 0 0 1 1 0 0 forward_v I I I I #
coedge $-1 $239 $240 $144 $241 forward $89 $-1 #
coedge $-1 $242 $91 $143 $241 reversed $57 $-1 #
coedge $-1 $91 $242 $243 $244 reversed $57 $-1 #
coedge $-1 $245 $238 $91 $147 reversed $141 $-1 #
edge $-1 $246 -78.028504287850581 $247 78.028504287850581 $146 $248 forward 7 unknown #
face $-1 $249 $250 $33 $-1 $251 reversed single #
loop $-1 $-1 $252 $92 #
plane-surface $-1 -208.90892555102852 -23.564412963044354 91.469596636625212 0 -1 0 0.83867057594974714 0 -0.54463902268945019 forward_v I I I I #
coedge $-1 $253 $254 $255 $256 reversed $93 $-1 #
coedge $-1 $153 $95 $257 $258 reversed $60 $-1 #
coedge $-1 $95 $152 $253 $259 reversed $60 $-1 #
coedge $-1 $255 $260 $95 $155 forward $261 $-1 #
edge $-1 $262 26.425958487663678 $263 33.001939601771355 $154 $264 forward 7 unknown #
loop $-1 $-1 $161 $96 #
plane-surface $-1 -78.028504287850609 -30.711076771830289 6.4748600021161877 -0.83867057594974714 0 0.54463902268945019 0.54463902268945019 0 0.83867057594974714 forward_v I I I I #
loop $-1 $-1 $265 $62 #
coedge $-1 $159 $159 $160 $266 reversed $97 $-1 #
coedge $-1 $160 $160 $159 $266 forward $99 $-1 #
coedge $-1 $161 $161 $100 $162 forward $156 $-1 #
edge $-1 $267 0 $267 6.2831853071796004 $161 $268 forward 7 unknown #
face $-1 $269 $270 $35 $-1 $271 forward single #
loop $-1 $-1 $272 $101 #
plane-surface $-1 -208.90892555102852 37.857740580616209 91.469596636625212 0 -1 0 0.83867057594974714 0 -0.54463902268945019 forward_v I I I I #
coedge $-1 $273 $274 $275 $276 reversed $102 $-1 #
coedge $-1 $168 $104 $277 $278 reversed $66 $-1 #
coedge $-1 $104 $167 $273 $279 reversed $66 $-1 #
coedge $-1 $275 $280 $104 $170 forward $270 $-1 #
edge $-1 $281 26.425958487663678 $282 33.001939601771355 $169 $283 forward 7 unknown #
loop $-1 $-1 $176 $105 #
plane-surface $-1 -78.028504287850609 30.711076771830278 6.4748600021161877 -0.83867057594974714 0 0.54463902268945019 0.54463902268945019 0 0.83867057594974714 forward_v I I I I #
loop $-1 $-1 $284 $68 #
coedge $-1 $174 $174 $175 $285 reversed $106 $-1 #
coedge $-1 $175 $175 $174 $285 forward $108 $-1 #
coedge $-1 $176 $176 $109 $177 forward $171 $-1 #
edge $-1 $286 0 $286 6.2831853071796004 $176 $287 forward 7 unknown #
face $-1 $288 $289 $37 $-1 $290 forward single #
loop $-1 $-1 $291 $110 #
plane-surface $-1 54.95929018619745 11.705696256475797 231.43705964147961 0 1 0 0.62932039886446345 0 0.77714595512881146 forward_v I I I I #
coedge $-1 $292 $293 $294 $295 reversed $111 $-1 #
coedge $-1 $183 $113 $296 $297 reversed $72 $-1 #
coedge $-1 $113 $182 $292 $298 reversed $72 $-1 #
coedge $-1 $294 $299 $113 $185 forward $289 $-1 #
edge $-1 $300 -50.548859194751856 $301 -44.803061319107726 $184 $302 forward 7 unknown #
loop $-1 $-1 $191 $114 #
plane-surface $-1 -43.250568696257801 17.246927055715688 110.15798665737121 0.62932039886446345 0 0.77714595512881146 0.77714595512881146 0 -0.62932039886446345 forward_v I I I I #
loop $-1 $-1 $303 $74 #
coedge $-1 $189 $189 $190 $304 reversed $115 $-1 #
coedge $-1 $190 $190 $189 $304 forward $117 $-1 #
coedge $-1 $191 $191 $118 $192 forward $186 $-1 #
edge $-1 $305 0 $305 6.2831853071796004 $191 $306 forward 7 unknown #
loop $-1 $-1 $198 $119 #
plane-surface $-1 -43.250568696257801 17.246927055715688 110.15798665737121 0.62932039886446345 0 0.77714595512881146 0.77714595512881146 0 -0.62932039886446345 forward_v I I I I #
loop $-1 $-1 $307 $77 #
coedge $-1 $196 $196 $197 $308 reversed $120 $-1 #
coedge $-1 $197 $197 $196 $308 forward $122 $-1 #
coedge $-1 $198 $198 $123 $199 forward $193 $-1 #
edge $-1 $309 0 $309 6.2831853071796004 $198 $310 forward 7 unknown #
face $-1 $311 $312 $30 $-1 $313 reversed single #
loop $-1 $-1 $314 $124 #
plane-surface $-1 -78.028504287850581 0 0 1 0 0 0 0 -1 forward_v I I I I #
coedge $-1 $315 $211 $316 $317 forward $125 $-1 #
coedge $-1 $318 $127 $315 $319 forward $81 $-1 #
coedge $-1 $127 $318 $320 $321 forward $81 $-1 #
coedge $-1 $214 $213 $127 $207 reversed $215 $-1 #
edge $-1 $322 -50.60934455636469 $323 50.60934455636469 $206 $324 forward 7 unknown #
coedge $-1 $129 $128 $325 $326 forward $51 $-1 #
coedge $-1 $327 $328 $128 $210 reversed $312 $-1 #
edge $-1 $217 -78.028504287850581 $329 78.028504287850581 $209 $330 forward 7 unknown #
coedge $-1 $203 $331 $129 $212 reversed $125 $-1 #
edge $-1 $332 -78.028504287850581 $216 78.028504287850581 $211 $333 forward 7 unknown #
coedge $-1 $206 $130 $331 $334 forward $215 $-1 #
coedge $-1 $130 $206 $327 $335 reversed $215 $-1 #
loop $-1 $-1 $213 $311 #
vertex $-1 $131 $336 #
vertex $-1 $131 $337 #
straight-curve $-1 78.028504287850581 0 16.600983248242883 0 1 0 I I #
face $-1 $338 $339 $31 $-1 $340 reversed single #
loop $-1 $-1 $230 $132 #
plane-surface $-1 0 -56.985146544238923 7.5075536413392214 0 0 1 1 0 0 forward_v I I I I #
coedge $-1 $341 $342 $136 $227 forward $133 $-1 #
coedge $-1 $343 $135 $342 $344 forward $85 $-1 #
coedge $-1 $135 $343 $345 $346 forward $85 $-1 #
coedge $-1 $137 $136 $135 $226 reversed $54 $-1 #
edge $-1 $347 -78.028504287850581 $348 78.028504287850581 $135 $349 forward 7 unknown #
edge $-1 $348 -16.600983248242883 $233 -7.5075536413392214 $222 $350 forward 7 unknown #
coedge $-1 $345 $351 $137 $229 forward $352 $-1 #
edge $-1 $232 7.5075536413392214 $347 16.600983248242883 $228 $353 forward 7 unknown #
coedge $-1 $354 $138 $351 $355 forward $220 $-1 #
coedge $-1 $138 $354 $341 $356 forward $220 $-1 #
vertex $-1 $229 $357 #
vertex $-1 $227 $358 #
straight-curve $-1 0 -50.60934455636469 7.5075536413392214 -1 0 0 I I #
face $-1 $359 $360 $32 $-1 $361 forward single #
loop $-1 $-1 $362 $140 #
plane-surface $-1 0 63.360948532113163 12.054268444791052 0 -1 0 0 0 -1 forward_v I I I I #
coedge $-1 $146 $363 $239 $364 forward $141 $-1 #
coedge $-1 $365 $143 $238 $364 reversed $89 $-1 #
coedge $-1 $143 $365 $366 $367 reversed $89 $-1 #
edge $-1 $368 -16.600983248242883 $247 -7.5075536413392214 $143 $369 forward 7 unknown #
coedge $-1 $145 $144 $370 $371 reversed $57 $-1 #
coedge $-1 $372 $373 $145 $244 forward $374 $-1 #
edge $-1 $246 7.5075536413392214 $375 16.600983248242883 $243 $376 forward 7 unknown #
coedge $-1 $363 $146 $373 $377 forward $141 $-1 #
vertex $-1 $244 $378 #
vertex $-1 $241 $379 #
straight-curve $-1 0 50.60934455636469 7.5075536413392214 1 0 0 I I #
face $-1 $-1 $261 $33 $-1 $380 forward single #
loop $-1 $-1 $381 $148 #
plane-surface $-1 -78.028504287850581 0 0 1 0 0 0 0 -1 forward_v I I I I #
coedge $-1 $382 $383 $384 $385 reversed $149 $-1 #
coedge $-1 $386 $151 $153 $259 forward $93 $-1 #
coedge $-1 $151 $386 $382 $387 forward $93 $-1 #
coedge $-1 $384 $154 $151 $256 forward $261 $-1 #
edge $-1 $263 -22.502202194701077 $388 -8.20887457712921 $255 $389 forward 7 unknown #
coedge $-1 $390 $391 $152 $258 forward $250 $-1 #
edge $-1 $392 -39.259938316196376 $262 -29.133815070069723 $257 $393 forward 7 unknown #
edge $-1 $263 -12.074017542179101 $392 -5.1979138280344745e-014 $153 $394 forward 7 unknown #
coedge $-1 $154 $384 $390 $395 forward $261 $-1 #
loop $-1 $-1 $384 $249 #
vertex $-1 $258 $396 #
vertex $-1 $155 $397 #
straight-curve $-1 -104.45446277551426 -37.857740580616223 16.600983248242883 1 0 0 I I #
coedge $-1 $265 $265 $-1 $398 reversed $158 $-1 #
edge $-1 $399 0 $399 6.2831853071796004 $159 $400 forward 7 unknown #
vertex $-1 $162 $401 #
ellipse-curve $-1 -74.740513730796749 -30.711076771830289 11.537921625179543 -0.83867057594974714 0 0.54463902268945019 1.3615975567236256 0 2.096676439874368 1 I I #
face $-1 $-1 $402 $35 $-1 $403 reversed single #
loop $-1 $-1 $169 $163 #
plane-surface $-1 0 0 16.600983248242883 0 0 1 1 0 0 forward_v I I I I #
coedge $-1 $404 $405 $406 $407 reversed $164 $-1 #
coedge $-1 $408 $166 $168 $279 forward $102 $-1 #
coedge $-1 $166 $408 $404 $409 forward $102 $-1 #
coedge $-1 $406 $169 $166 $276 forward $270 $-1 #
edge $-1 $282 8.2088745771292047 $410 22.50220219470107 $275 $411 forward 7 unknown #
coedge $-1 $412 $413 $167 $278 forward $402 $-1 #
edge $-1 $414 -39.259938316196376 $281 -29.133815070069723 $277 $415 forward 7 unknown #
edge $-1 $282 -12.074017542179101 $414 -5.1979138280344745e-014 $168 $416 forward 7 unknown #
coedge $-1 $169 $406 $412 $417 forward $270 $-1 #
vertex $-1 $170 $418 #
vertex $-1 $170 $419 #
straight-curve $-1 -104.45446277551426 23.564412963044344 16.600983248242883 1 0 0 I I #
coedge $-1 $284 $284 $-1 $420 reversed $173 $-1 #
edge $-1 $421 0 $421 6.2831853071796004 $174 $422 forward 7 unknown #
vertex $-1 $177 $423 #
ellipse-curve $-1 -74.740513730796749 30.711076771830278 11.537921625179543 -0.83867057594974714 0 0.54463902268945019 1.3615975567236256 0 2.096676439874368 1 I I #
face $-1 $-1 $424 $37 $-1 $425 reversed single #
loop $-1 $-1 $184 $178 #
plane-surface $-1 0 0 16.600983248242883 0 0 1 1 0 0 forward_v I I I I #
coedge $-1 $426 $427 $428 $429 reversed $179 $-1 #
coedge $-1 $430 $181 $183 $298 forward $111 $-1 #
coedge $-1 $181 $430 $426 $431 forward $111 $-1 #
coedge $-1 $428 $184 $181 $295 forward $289 $-1 #
edge $-1 $301 -14.164694327097735 $432 -3.0822327286179529 $294 $433 forward 7 unknown #
coedge $-1 $434 $435 $182 $297 forward $424 $-1 #
edge $-1 $436 -103.77040204582383 $300 -99.11754657249692 $296 $437 forward 7 unknown #
edge $-1 $301 148.66354813532379 $436 156.05700857570113 $183 $438 forward 7 unknown #
coedge $-1 $184 $428 $434 $439 forward $289 $-1 #
vertex $-1 $297 $440 #
vertex $-1 $185 $441 #
straight-curve $-1 27.479645093098725 22.788157854955578 16.600983248242883 -1 0 0 I I #
coedge $-1 $303 $303 $-1 $442 reversed $188 $-1 #
edge $-1 $443 0 $443 6.2831853071796004 $189 $444 forward 7 unknown #
vertex $-1 $192 $445 #
ellipse-curve $-1 75.155605350028495 14.872113856041452 14.274555511579434 0.62932039886446345 0 0.77714595512881146 1.1657189326932171 0 -0.94398059829669512 1 I I #
coedge $-1 $307 $307 $-1 $446 reversed $195 $-1 #
edge $-1 $447 0 $447 6.2831853071796004 $196 $448 forward 7 unknown #
vertex $-1 $199 $449 #
ellipse-curve $-1 75.155605350028495 19.621740255389923 14.274555511579434 0.62932039886446345 0 0.77714595512881146 1.1657189326932171 0 -0.94398059829669512 1 I I #
face $-1 $-1 $215 $30 $-1 $450 reversed single #
loop $-1 $-1 $327 $200 #
plane-surface $-1 0 50.60934455636469 0 0 -1 0 0 0 -1 forward_v I I I I #
coedge $-1 $451 $325 $328 $452 forward $201 $-1 #
coedge $-1 $331 $203 $204 $319 reversed $125 $-1 #
coedge $-1 $325 $451 $203 $317 reversed $201 $-1 #
edge $-1 $332 -16.600983248242883 $453 16.600983248242883 $316 $454 forward 7 unknown #
coedge $-1 $205 $204 $451 $455 forward $81 $-1 #
edge $-1 $323 -78.028504287850581 $453 78.028504287850581 $315 $456 forward 7 unknown #
coedge $-1 $328 $327 $205 $321 reversed $312 $-1 #
edge $-1 $457 -78.028504287850581 $322 78.028504287850581 $320 $458 forward 7 unknown #
vertex $-1 $207 $459 #
vertex $-1 $334 $460 #
straight-curve $-1 78.028504287850581 0 -16.600983248242883 0 -1 0 I I #
coedge $-1 $314 $316 $208 $326 reversed $201 $-1 #
edge $-1 $329 -50.60934455636469 $332 50.60934455636469 $325 $461 forward 7 unknown #
coedge $-1 $320 $209 $214 $335 forward $312 $-1 #
coedge $-1 $209 $320 $314 $452 reversed $312 $-1 #
vertex $-1 $210 $462 #
straight-curve $-1 0 50.60934455636469 16.600983248242883 -1 0 0 I I #
coedge $-1 $211 $315 $213 $334 reversed $125 $-1 #
vertex $-1 $326 $463 #
straight-curve $-1 0 -50.60934455636469 16.600983248242883 1 0 0 I I #
edge $-1 $216 -16.600983248242883 $323 16.600983248242883 $213 $464 forward 7 unknown #
edge $-1 $217 -16.600983248242883 $322 16.600983248242883 $214 $465 forward 7 unknown #
point $-1 78.028504287850581 -50.60934455636469 16.600983248242883 #
point $-1 78.028504287850581 50.60934455636469 16.600983248242883 #
face $-1 $-1 $352 $31 $-1 $466 reversed single #
loop $-1 $-1 $467 $219 #
plane-surface $-1 0 -63.360948532113156 12.054268444791052 0 1 0 0 0 1 forward_v I I I I #
coedge $-1 $468 $222 $231 $356 reversed $133 $-1 #
coedge $-1 $222 $468 $223 $344 reversed $133 $-1 #
coedge $-1 $224 $223 $469 $470 forward $85 $-1 #
edge $-1 $348 50.60934455636469 $471 63.360948532113156 $342 $472 forward 7 unknown #
coedge $-1 $473 $228 $224 $346 reversed $352 $-1 #
edge $-1 $474 -63.360948532113156 $347 -50.60934455636469 $345 $475 forward 7 unknown #
vertex $-1 $229 $476 #
vertex $-1 $344 $477 #
straight-curve $-1 0 -50.60934455636469 16.600983248242883 -1 0 0 I I #
straight-curve $-1 -78.028504287850581 -50.60934455636469 0 0 0 -1 I I #
coedge $-1 $228 $473 $230 $355 reversed $352 $-1 #
loop $-1 $-1 $228 $338 #
straight-curve $-1 78.028504287850581 -50.60934455636469 0 0 0 1 I I #
coedge $-1 $231 $230 $478 $479 forward $220 $-1 #
edge $-1 $232 -6.3758019878742331 $480 6.3758019878742331 $351 $481 forward 7 unknown #
edge $-1 $482 -6.3758019878742331 $233 6.3758019878742331 $341 $483 forward 7 unknown #
point $-1 78.028504287850581 -50.60934455636469 7.5075536413392214 #
point $-1 -78.028504287850581 -50.60934455636469 7.5075536413392214 #
face $-1 $-1 $374 $32 $-1 $484 reversed single #
loop $-1 $-1 $370 $235 #
plane-surface $-1 0 0 16.600983248242883 0 0 1 1 0 0 forward_v I I I I #
coedge $-1 $485 $486 $365 $487 forward $236 $-1 #
coedge $-1 $238 $245 $485 $488 forward $141 $-1 #
edge $-1 $489 -6.3758019878742331 $247 6.3758019878742331 $239 $490 forward 7 unknown #
coedge $-1 $240 $239 $362 $487 reversed $89 $-1 #
coedge $-1 $491 $370 $240 $367 forward $360 $-1 #
edge $-1 $368 50.60934455636469 $492 63.360948532113163 $240 $493 forward 7 unknown #
vertex $-1 $367 $494 #
straight-curve $-1 78.028504287850581 50.60934455636469 0 0 0 -1 I I #
coedge $-1 $366 $495 $242 $371 forward $360 $-1 #
edge $-1 $375 -78.028504287850581 $368 78.028504287850581 $370 $496 forward 7 unknown #
coedge $-1 $497 $243 $495 $498 reversed $374 $-1 #
coedge $-1 $243 $497 $245 $377 reversed $374 $-1 #
loop $-1 $-1 $243 $359 #
vertex $-1 $244 $499 #
straight-curve $-1 -78.028504287850581 50.60934455636469 0 0 0 1 I I #
edge $-1 $246 -6.3758019878742331 $500 6.3758019878742331 $373 $501 forward 7 unknown #
point $-1 -78.028504287850581 50.609344556364697 7.5075536413392214 #
point $-1 78.028504287850581 50.609344556364697 7.5075536413392214 #
plane-surface $-1 0 0 16.600983248242883 0 0 1 1 0 0 forward_v I I I I #
coedge $-1 $391 $390 $383 $502 forward $250 $-1 #
coedge $-1 $383 $252 $254 $387 reversed $149 $-1 #
coedge $-1 $252 $382 $381 $502 reversed $149 $-1 #
coedge $-1 $260 $255 $252 $385 forward $261 $-1 #
edge $-1 $388 -33.001939601771355 $503 -26.425958487663678 $384 $504 forward 7 unknown #
coedge $-1 $254 $253 $391 $505 reversed $93 $-1 #
edge $-1 $506 5.1979138280344745e-014 $388 12.074017542179101 $382 $507 forward 7 unknown #
vertex $-1 $256 $508 #
straight-curve $-1 -71.452523173742918 -15.355538385915144 16.600983248242883 0 1 0 I I #
coedge $-1 $381 $257 $260 $395 reversed $250 $-1 #
coedge $-1 $257 $381 $386 $505 forward $250 $-1 #
vertex $-1 $258 $509 #
straight-curve $-1 -78.028504287850581 -37.857740580616223 45.734798318312606 0 0 1 I I #
straight-curve $-1 -78.028504287850609 -37.857740580616223 6.4748600021161877 -0.54463902268945019 0 -0.83867057594974714 I I #
edge $-1 $503 23.564412963044354 $262 37.857740580616223 $390 $510 forward 7 unknown #
point $-1 -78.028504287850581 -37.857740580616223 16.600983248242883 #
point $-1 -71.452523173742904 -37.857740580616223 16.600983248242883 #
edge $-1 $511 1 $511 0 $265 $-1 forward 7 unknown #
vertex $-1 $266 $512 #
ellipse-curve $-1 -69.925458885966677 -30.711076771830289 8.4109885478928437 -0.83867057594974714 0 0.54463902268945019 1.3615975567236256 0 2.096676439874368 1 I I #
point $-1 -73.378916174073112 -30.711076771830289 13.634598065053897 #
loop $-1 $-1 $277 $269 #
plane-surface $-1 -78.028504287850581 0 0 1 0 0 0 0 -1 forward_v I I I I #
coedge $-1 $405 $272 $274 $409 reversed $164 $-1 #
coedge $-1 $272 $404 $513 $514 reversed $164 $-1 #
coedge $-1 $280 $275 $272 $407 forward $270 $-1 #
edge $-1 $410 -33.001939601771355 $515 -26.425958487663678 $406 $516 forward 7 unknown #
coedge $-1 $274 $273 $413 $517 reversed $102 $-1 #
edge $-1 $518 5.1979138280344745e-014 $410 12.074017542179101 $404 $519 forward 7 unknown #
vertex $-1 $276 $520 #
straight-curve $-1 -71.452523173742918 15.355538385915139 16.600983248242883 0 1 0 I I #
coedge $-1 $513 $277 $280 $417 reversed $402 $-1 #
coedge $-1 $277 $513 $408 $517 forward $402 $-1 #
vertex $-1 $278 $521 #
straight-curve $-1 -78.028504287850581 23.564412963044344 45.734798318312606 0 0 1 I I #
straight-curve $-1 -78.028504287850609 23.564412963044344 6.4748600021161877 -0.54463902268945019 0 -0.83867057594974714 I I #
edge $-1 $515 -37.857740580616209 $281 -23.564412963044344 $412 $522 forward 7 unknown #
point $-1 -78.028504287850581 23.564412963044344 16.600983248242883 #
point $-1 -71.452523173742904 23.564412963044344 16.600983248242883 #
edge $-1 $523 1 $523 0 $284 $-1 forward 7 unknown #
vertex $-1 $285 $524 #
ellipse-curve $-1 -69.925458885966677 30.711076771830278 8.4109885478928437 -0.83867057594974714 0 0.54463902268945019 1.3615975567236256 0 2.096676439874368 1 I I #
point $-1 -73.378916174073112 30.711076771830278 13.634598065053897 #
loop $-1 $-1 $296 $288 #
plane-surface $-1 78.028504287850581 0 0 -1 0 0 0 0 1 forward_v I I I I #
coedge $-1 $427 $291 $293 $431 reversed $179 $-1 #
coedge $-1 $291 $426 $525 $526 reversed $179 $-1 #
coedge $-1 $299 $294 $291 $429 forward $289 $-1 #
edge $-1 $432 44.803061319107726 $527 50.548859194751856 $428 $528 forward 7 unknown #
coedge $-1 $293 $292 $435 $529 reversed $111 $-1 #
edge $-1 $530 -156.05700857570113 $432 -148.66354813532379 $426 $531 forward 7 unknown #
vertex $-1 $295 $532 #
straight-curve $-1 72.282706412206466 8.6234635278578438 16.600983248242869 0 -1 0 I I #
coedge $-1 $525 $296 $299 $439 reversed $424 $-1 #
coedge $-1 $296 $525 $430 $529 forward $424 $-1 #
vertex $-1 $297 $533 #
straight-curve $-1 78.028504287850581 22.788157854955578 115.7185298207398 0 0 1 I I #
straight-curve $-1 -43.250568696257801 22.788157854955578 110.15798665737121 0.77714595512881146 0 -0.62932039886446345 I I #
edge $-1 $527 11.705696256475797 $300 22.788157854955578 $434 $534 forward 7 unknown #
point $-1 78.028504287850581 22.788157854955578 16.600983248242883 #
point $-1 72.282706412206451 22.788157854955578 16.600983248242883 #
edge $-1 $535 1 $535 0 $303 $-1 forward 7 unknown #
vertex $-1 $304 $536 #
ellipse-curve $-1 71.825298725586279 14.872113856041452 10.161969415222249 0.62932039886446345 0 0.77714595512881146 1.1657189326932171 0 -0.94398059829669512 1 I I #
point $-1 76.321324282721719 14.872113856041452 13.330574913282742 #
edge $-1 $537 1 $537 0 $307 $-1 forward 7 unknown #
vertex $-1 $308 $538 #
ellipse-curve $-1 71.825298725586279 19.621740255389923 10.161969415222249 0.62932039886446345 0 0.77714595512881146 1.1657189326932171 0 -0.94398059829669512 1 I I #
point $-1 76.321324282721719 19.621740255389923 13.330574913282742 #
plane-surface $-1 78.028504287850581 0 0 -1 0 0 0 0 1 forward_v I I I I #
coedge $-1 $316 $314 $318 $455 reversed $201 $-1 #
edge $-1 $329 -16.600983248242883 $457 16.600983248242883 $328 $539 forward 7 unknown #
vertex $-1 $455 $540 #
straight-curve $-1 -78.028504287850581 -50.60934455636469 0 0 0 -1 I I #
edge $-1 $453 -50.60934455636469 $457 50.60934455636469 $451 $541 forward 7 unknown #
straight-curve $-1 0 -50.60934455636469 -16.600983248242883 -1 0 0 I I #
vertex $-1 $321 $542 #
straight-curve $-1 0 50.60934455636469 -16.600983248242883 1 0 0 I I #
point $-1 78.028504287850581 50.60934455636469 -16.600983248242883 #
point $-1 78.028504287850581 -50.60934455636469 -16.600983248242883 #
straight-curve $-1 -78.028504287850581 0 16.600983248242883 0 -1 0 I I #
point $-1 -78.028504287850581 50.60934455636469 16.600983248242883 #
point $-1 -78.028504287850581 -50.60934455636469 16.600983248242883 #
straight-curve $-1 78.028504287850581 -50.60934455636469 0 0 0 -1 I I #
straight-curve $-1 78.028504287850581 50.60934455636469 0 0 0 -1 I I #
plane-surface $-1 78.028504287850581 0 0 -1 0 0 0 0 1 forward_v I I I I #
coedge $-1 $478 $469 $468 $543 forward $339 $-1 #
coedge $-1 $342 $341 $467 $543 reversed $133 $-1 #
coedge $-1 $467 $544 $343 $470 reversed $339 $-1 #
edge $-1 $471 -78.028504287850581 $474 78.028504287850581 $469 $545 forward 7 unknown #
vertex $-1 $344 $546 #
straight-curve $-1 -78.028504287850581 0 16.600983248242883 0 -1 0 I I #
coedge $-1 $351 $345 $544 $547 forward $352 $-1 #
vertex $-1 $346 $548 #
straight-curve $-1 78.028504287850581 0 16.600983248242883 0 1 0 I I #
point $-1 78.028504287850581 -50.60934455636469 16.600983248242883 #
point $-1 -78.028504287850581 -50.60934455636469 16.600983248242883 #
coedge $-1 $544 $467 $354 $479 reversed $339 $-1 #
edge $-1 $480 -78.028504287850581 $482 78.028504287850581 $478 $549 forward 7 unknown #
vertex $-1 $547 $550 #
straight-curve $-1 78.028504287850581 -56.985146544238923 7.5075536413392214 0 -1 0 I I #
vertex $-1 $356 $551 #
straight-curve $-1 -78.028504287850581 -56.985146544238923 7.5075536413392214 0 1 0 I I #
plane-surface $-1 -78.028504287850581 0 0 1 0 0 0 0 -1 forward_v I I I I #
coedge $-1 $552 $362 $363 $488 reversed $236 $-1 #
coedge $-1 $362 $552 $491 $553 reversed $236 $-1 #
edge $-1 $492 -4.546714803451831 $489 4.546714803451831 $365 $554 forward 7 unknown #
edge $-1 $500 -78.028504287850581 $489 78.028504287850581 $485 $555 forward 7 unknown #
vertex $-1 $364 $556 #
straight-curve $-1 78.028504287850581 56.98514654423893 7.5075536413392214 0 -1 0 I I #
coedge $-1 $495 $366 $486 $553 forward $360 $-1 #
vertex $-1 $367 $557 #
straight-curve $-1 78.028504287850581 0 16.600983248242883 0 1 0 I I #
point $-1 78.028504287850581 50.60934455636469 16.600983248242883 #
coedge $-1 $370 $491 $372 $498 forward $360 $-1 #
straight-curve $-1 0 50.60934455636469 16.600983248242883 1 0 0 I I #
coedge $-1 $373 $372 $552 $558 forward $374 $-1 #
edge $-1 $559 -63.360948532113163 $375 -50.60934455636469 $372 $560 forward 7 unknown #
point $-1 -78.028504287850581 50.60934455636469 16.600983248242883 #
vertex $-1 $488 $561 #
straight-curve $-1 -78.028504287850581 56.98514654423893 7.5075536413392214 0 1 0 I I #
edge $-1 $503 29.133815070069723 $506 39.259938316196376 $381 $562 forward 7 unknown #
vertex $-1 $395 $563 #
straight-curve $-1 -104.45446277551426 -23.564412963044354 16.600983248242883 -1 0 0 I I #
edge $-1 $506 8.20887457712921 $392 22.502202194701077 $391 $564 forward 7 unknown #
vertex $-1 $505 $565 #
straight-curve $-1 -78.028504287850609 -23.564412963044354 6.4748600021161877 0.54463902268945019 0 0.83867057594974714 I I #
point $-1 -71.452523173742904 -23.564412963044354 16.600983248242883 #
point $-1 -78.028504287850581 -37.857740580616223 6.4748600021162313 #
straight-curve $-1 -78.028504287850581 0 16.600983248242883 0 -1 0 I I #
vertex $-1 $398 $566 #
point $-1 -68.563861329243053 -30.711076771830289 10.50766498776721 #
coedge $-1 $413 $412 $405 $514 forward $402 $-1 #
edge $-1 $515 29.133815070069723 $518 39.259938316196376 $513 $567 forward 7 unknown #
vertex $-1 $417 $568 #
straight-curve $-1 -104.45446277551426 37.857740580616209 16.600983248242883 -1 0 0 I I #
edge $-1 $518 -22.50220219470107 $414 -8.2088745771292047 $413 $569 forward 7 unknown #
vertex $-1 $517 $570 #
straight-curve $-1 -78.028504287850609 37.857740580616209 6.4748600021161877 0.54463902268945019 0 0.83867057594974714 I I #
point $-1 -71.452523173742904 37.857740580616209 16.600983248242883 #
point $-1 -78.028504287850581 23.564412963044344 6.4748600021162313 #
straight-curve $-1 -78.028504287850581 0 16.600983248242883 0 -1 0 I I #
vertex $-1 $420 $571 #
point $-1 -68.563861329243053 30.711076771830278 10.50766498776721 #
coedge $-1 $435 $434 $427 $526 forward $424 $-1 #
edge $-1 $527 99.11754657249692 $530 103.77040204582383 $525 $572 forward 7 unknown #
vertex $-1 $439 $573 #
straight-curve $-1 27.479645093098725 11.705696256475797 16.600983248242883 1 0 0 I I #
edge $-1 $530 3.0822327286179529 $436 14.164694327097735 $435 $574 forward 7 unknown #
vertex $-1 $529 $575 #
straight-curve $-1 -43.250568696257801 11.705696256475797 110.15798665737121 -0.77714595512881146 0 0.62932039886446345 I I #
point $-1 72.282706412206451 11.705696256475797 16.600983248242883 #
point $-1 78.028504287850581 22.788157854955578 11.948127774915974 #
straight-curve $-1 78.028504287850581 0 16.600983248242883 0 1 0 I I #
vertex $-1 $442 $576 #
point $-1 72.991017658279503 14.872113856041452 9.2179888169255531 #
vertex $-1 $446 $577 #
point $-1 72.991017658279503 19.621740255389923 9.2179888169255531 #
straight-curve $-1 -78.028504287850581 50.60934455636469 0 0 0 -1 I I #
point $-1 -78.028504287850581 -50.60934455636469 -16.600983248242883 #
straight-curve $-1 -78.028504287850581 0 -16.600983248242883 0 1 0 I I #
point $-1 -78.028504287850581 50.60934455636469 -16.600983248242883 #
edge $-1 $471 -4.546714803451831 $482 4.546714803451831 $468 $578 forward 7 unknown #
coedge $-1 $469 $478 $473 $547 reversed $339 $-1 #
straight-curve $-1 0 -63.360948532113156 16.600983248242883 1 0 0 I I #
point $-1 -78.028504287850581 -63.360948532113156 16.600983248242883 #
edge $-1 $474 -4.546714803451831 $480 4.546714803451831 $473 $579 forward 7 unknown #
point $-1 78.028504287850581 -63.360948532113156 16.600983248242883 #
straight-curve $-1 0 -63.360948532113156 7.5075536413392214 -1 0 0 I I #
point $-1 78.028504287850581 -63.360948532113156 7.5075536413392214 #
point $-1 -78.028504287850581 -63.360948532113156 7.5075536413392214 #
coedge $-1 $486 $485 $497 $558 reversed $236 $-1 #
edge $-1 $492 -78.028504287850581 $559 78.028504287850581 $486 $580 forward 7 unknown #
straight-curve $-1 78.028504287850581 63.360948532113163 12.054268444791052 0 0 -1 I I #
straight-curve $-1 0 63.360948532113163 7.5075536413392214 1 0 0 I I #
point $-1 78.028504287850581 63.360948532113163 7.5075536413392214 #
point $-1 78.028504287850581 63.360948532113163 16.600983248242883 #
edge $-1 $559 -4.546714803451831 $500 4.546714803451831 $552 $581 forward 7 unknown #
vertex $-1 $553 $582 #
straight-curve $-1 -78.028504287850581 0 16.600983248242883 0 -1 0 I I #
point $-1 -78.028504287850581 63.360948532113163 7.5075536413392214 #
straight-curve $-1 -78.028504287850581 -23.564412963044354 45.734798318312606 0 0 -1 I I #
point $-1 -78.028504287850581 -23.564412963044354 16.600983248242883 #
straight-curve $-1 -78.028504287850581 -15.355538385915144 6.4748600021162419 0 -1 0 I I #
point $-1 -78.028504287850581 -23.564412963044354 6.4748600021162313 #
point $-1 -67.828782446092319 -30.711076771830289 7.0493909911692176 #
straight-curve $-1 -78.028504287850581 37.857740580616209 45.734798318312606 0 0 -1 I I #
point $-1 -78.028504287850581 37.857740580616209 16.600983248242883 #
straight-curve $-1 -78.028504287850581 15.355538385915139 6.4748600021162419 0 -1 0 I I #
point $-1 -78.028504287850581 37.857740580616209 6.4748600021162313 #
point $-1 -67.828782446092319 30.711076771830278 7.0493909911692176 #
straight-curve $-1 78.028504287850581 11.705696256475797 115.7185298207398 0 0 -1 I I #
point $-1 78.028504287850581 11.705696256475797 16.600983248242883 #
straight-curve $-1 78.028504287850581 8.6234635278578438 11.948127774915974 0 1 0 I I #
point $-1 78.028504287850581 11.705696256475797 11.948127774915974 #
point $-1 70.881318127289589 14.872113856041452 8.9962504825290317 #
point $-1 70.881318127289589 19.621740255389923 8.9962504825290317 #
straight-curve $-1 -78.028504287850581 -63.360948532113156 12.054268444791052 0 0 -1 I I #
straight-curve $-1 78.028504287850581 -63.360948532113156 12.054268444791052 0 0 -1 I I #
straight-curve $-1 0 63.360948532113163 16.600983248242883 -1 0 0 I I #
straight-curve $-1 -78.028504287850581 63.360948532113163 12.054268444791052 0 0 -1 I I #
point $-1 -78.028504287850581 63.360948532113163 16.600983248242883 #
End-of-ACIS-data 