500 0 15 0           
7 Unknown 11 ACIS 5.0 NT 24 Fri Mar 26 17:09:17 1999 
-1 9.9999999999999995e-007 1e-010 
body $-1 $15 $-1 $16 #
body $-1 $17 $-1 $18 #
body $-1 $19 $-1 $20 #
body $-1 $21 $-1 $22 #
body $-1 $23 $-1 $24 #
body $-1 $25 $-1 $26 #
body $-1 $27 $-1 $28 #
body $-1 $29 $-1 $30 #
body $-1 $31 $-1 $32 #
body $-1 $33 $-1 $34 #
body $-1 $35 $-1 $36 #
body $-1 $37 $-1 $38 #
body $-1 $39 $-1 $40 #
body $-1 $41 $-1 $42 #
body $-1 $43 $-1 $44 #
lump $-1 $-1 $45 $0 #
transform $-1 1 0 0 0 1 0 0 0 1 42.116763817255162 27.822873763769962 12.223061315251471 1 rotate no_reflect no_shear #
lump $-1 $-1 $46 $1 #
transform $-1 1 0 0 0 1 0 0 0 1 42.116763817255162 27.822873763769962 12.223061315251471 1 rotate no_reflect no_shear #
lump $-1 $-1 $47 $2 #
transform $-1 1 0 0 0 1 0 0 0 1 42.116763817255162 27.822873763769962 12.223061315251471 1 rotate no_reflect no_shear #
lump $-1 $-1 $48 $3 #
transform $-1 1 0 0 0 1 0 0 0 1 42.116763817255162 27.822873763769962 12.223061315251471 1 rotate no_reflect no_shear #
lump $-1 $-1 $49 $4 #
transform $-1 1 0 0 0 1 0 0 0 1 42.116763817255162 27.822873763769962 12.223061315251471 1 rotate no_reflect no_shear #
lump $-1 $-1 $50 $5 #
transform $-1 1 0 0 0 1 0 0 0 1 42.116763817255162 27.822873763769962 12.223061315251471 1 rotate no_reflect no_shear #
lump $-1 $-1 $51 $6 #
transform $-1 1 0 0 0 1 0 0 0 1 42.116763817255162 27.822873763769962 12.223061315251471 1 rotate no_reflect no_shear #
lump $-1 $-1 $52 $7 #
transform $-1 1 0 0 0 1 0 0 0 1 42.116763817255162 27.822873763769962 12.223061315251471 1 rotate no_reflect no_shear #
lump $-1 $-1 $53 $8 #
transform $-1 1 0 0 0 1 0 0 0 1 42.116763817255162 27.822873763769962 12.223061315251471 1 rotate no_reflect no_shear #
lump $-1 $-1 $54 $9 #
transform $-1 1 0 0 0 1 0 0 0 1 42.116763817255162 27.822873763769962 12.223061315251471 1 rotate no_reflect no_shear #
lump $-1 $-1 $55 $10 #
transform $-1 1 0 0 0 1 0 0 0 1 42.116763817255162 27.822873763769962 12.223061315251471 1 rotate no_reflect no_shear #
lump $-1 $-1 $56 $11 #
transform $-1 1 0 0 0 1 0 0 0 1 42.116763817255162 27.822873763769962 12.223061315251471 1 rotate no_reflect no_shear #
lump $-1 $-1 $57 $12 #
transform $-1 1 0 0 0 1 0 0 0 1 42.116763817255162 27.822873763769962 12.223061315251471 1 rotate no_reflect no_shear #
lump $-1 $-1 $58 $13 #
transform $-1 1 0 0 0 1 0 0 0 1 42.116763817255162 27.822873763769962 12.223061315251471 1 rotate no_reflect no_shear #
lump $-1 $-1 $59 $14 #
transform $-1 1 0 0 0 1 0 0 0 1 42.116763817255162 27.822873763769962 12.223061315251471 1 rotate no_reflect no_shear #
shell $-1 $-1 $-1 $60 $-1 $15 #
shell $-1 $-1 $-1 $61 $-1 $17 #
shell $-1 $-1 $-1 $62 $-1 $19 #
shell $-1 $-1 $-1 $63 $-1 $21 #
shell $-1 $-1 $-1 $64 $-1 $23 #
shell $-1 $-1 $-1 $65 $-1 $25 #
shell $-1 $-1 $-1 $66 $-1 $27 #
shell $-1 $-1 $-1 $67 $-1 $29 #
shell $-1 $-1 $-1 $68 $-1 $31 #
shell $-1 $-1 $-1 $69 $-1 $33 #
shell $-1 $-1 $-1 $70 $-1 $35 #
shell $-1 $-1 $-1 $71 $-1 $37 #
shell $-1 $-1 $-1 $72 $-1 $39 #
shell $-1 $-1 $-1 $73 $-1 $41 #
shell $-1 $-1 $-1 $74 $-1 $43 #
face $-1 $75 $76 $45 $-1 $77 forward single #
face $-1 $78 $79 $46 $-1 $80 forward single #
face $-1 $81 $82 $47 $-1 $83 forward single #
face $-1 $84 $85 $48 $-1 $86 reversed single #
face $-1 $87 $88 $49 $-1 $89 forward single #
face $-1 $90 $91 $50 $-1 $92 forward single #
face $-1 $93 $94 $51 $-1 $95 reversed single #
face $-1 $96 $97 $52 $-1 $98 forward single #
face $-1 $99 $100 $53 $-1 $101 forward single #
face $-1 $102 $103 $54 $-1 $104 reversed single #
face $-1 $105 $106 $55 $-1 $107 forward single #
face $-1 $108 $109 $56 $-1 $110 forward single #
face $-1 $111 $112 $57 $-1 $113 reversed single #
face $-1 $114 $115 $58 $-1 $116 forward single #
face $-1 $117 $118 $59 $-1 $119 forward single #
face $-1 $120 $121 $45 $-1 $122 reversed single #
loop $-1 $-1 $123 $60 #
plane-surface $-1 0 0 12.223061315251471 0 0 1 1 0 0 forward_v I I I I #
face $-1 $124 $125 $46 $-1 $126 reversed single #
loop $-1 $-1 $127 $61 #
plane-surface $-1 -42.116763817255162 0 0 1 0 0 0 0 -1 forward_v I I I I #
face $-1 $128 $129 $47 $-1 $130 reversed single #
loop $-1 $-1 $131 $62 #
plane-surface $-1 42.116763817255162 0 0 -1 0 0 0 0 1 forward_v I I I I #
face $-1 $132 $133 $48 $-1 $134 reversed single #
loop $-1 $-1 $135 $63 #
plane-surface $-1 -23.318535964812533 34.075207149932837 109.26113189775263 1 0 0 0 -0.6018150307709319 -0.79863550430605224 forward_v I I I I #
face $-1 $136 $137 $49 $-1 $138 forward single #
loop $-1 $139 $140 $64 #
cone-surface $-1 -21.105148337434176 24.931677484751177 9.8027243493860095 0 -0.6018150307709319 -0.79863550430605224 0.5 0 0 1 I I 0 1 0.5 forward I I I I #
face $-1 $141 $142 $50 $-1 $143 forward single #
loop $-1 $144 $145 $65 #
cone-surface $-1 -17.785066896366647 24.931677484751177 9.8027243493860095 0 -0.6018150307709319 -0.79863550430605224 0.5 0 0 1 I I 0 1 0.5 forward I I I I #
face $-1 $146 $147 $51 $-1 $148 reversed single #
loop $-1 $-1 $149 $66 #
plane-surface $-1 -10.355130886878923 34.075207149932837 109.26113189775263 1 0 0 0 -0.6018150307709319 -0.79863550430605224 forward_v I I I I #
face $-1 $150 $151 $52 $-1 $152 forward single #
loop $-1 $153 $154 $67 #
cone-surface $-1 -8.1417432595005721 24.931677484751177 9.8027243493860095 0 -0.6018150307709319 -0.79863550430605224 0.5 0 0 1 I I 0 1 0.5 forward I I I I #
face $-1 $155 $156 $53 $-1 $157 forward single #
loop $-1 $158 $159 $68 #
cone-surface $-1 -4.8216618184330429 24.931677484751177 9.8027243493860095 0 -0.6018150307709319 -0.79863550430605224 0.5 0 0 1 I I 0 1 0.5 forward I I I I #
face $-1 $160 $161 $54 $-1 $162 reversed single #
loop $-1 $-1 $163 $69 #
plane-surface $-1 2.6082741910546847 34.075207149932837 109.26113189775263 1 0 0 0 -0.6018150307709319 -0.79863550430605224 forward_v I I I I #
face $-1 $164 $165 $55 $-1 $166 forward single #
loop $-1 $167 $168 $70 #
cone-surface $-1 4.8216618184330358 24.931677484751177 9.8027243493860095 0 -0.6018150307709319 -0.79863550430605224 0.5 0 0 1 I I 0 1 0.5 forward I I I I #
face $-1 $169 $170 $56 $-1 $171 forward single #
loop $-1 $172 $173 $71 #
cone-surface $-1 8.141743259500565 24.931677484751177 9.8027243493860095 0 -0.6018150307709319 -0.79863550430605224 0.5 0 0 1 I I 0 1 0.5 forward I I I I #
face $-1 $174 $175 $57 $-1 $176 reversed single #
loop $-1 $-1 $177 $72 #
plane-surface $-1 15.571679268988293 34.075207149932837 109.26113189775263 1 0 0 0 -0.6018150307709319 -0.79863550430605224 forward_v I I I I #
face $-1 $178 $179 $58 $-1 $180 forward single #
loop $-1 $181 $182 $73 #
cone-surface $-1 17.785066896366644 24.931677484751177 9.8027243493860095 0 -0.6018150307709319 -0.79863550430605224 0.5 0 0 1 I I 0 1 0.5 forward I I I I #
face $-1 $183 $184 $59 $-1 $185 forward single #
loop $-1 $186 $187 $74 #
cone-surface $-1 21.105148337434173 24.931677484751177 9.8027243493860095 0 -0.6018150307709319 -0.79863550430605224 0.5 0 0 1 I I 0 1 0.5 forward I I I I #
face $-1 $188 $189 $45 $-1 $190 reversed single #
loop $-1 $-1 $191 $75 #
plane-surface $-1 0 0 -12.223061315251471 0 0 1 1 0 0 forward_v I I I I #
coedge $-1 $192 $193 $194 $195 forward $76 $-1 #
face $-1 $196 $197 $46 $-1 $198 forward single #
loop $-1 $-1 $199 $78 #
plane-surface $-1 0 27.822873763769962 0 0 -1 0 0 0 -1 forward_v I I I I #
coedge $-1 $200 $201 $202 $203 forward $79 $-1 #
face $-1 $204 $205 $47 $-1 $206 forward single #
loop $-1 $-1 $207 $81 #
plane-surface $-1 0 -27.822873763769962 0 0 1 0 0 0 1 forward_v I I I I #
coedge $-1 $208 $209 $210 $211 forward $82 $-1 #
face $-1 $212 $213 $48 $-1 $214 reversed single #
loop $-1 $-1 $215 $84 #
plane-surface $-1 -19.445107616900415 -16.617795875374135 41.989246075887692 0 0.6018150307709319 0.79863550430605224 1 0 0 forward_v I I I I #
coedge $-1 $216 $217 $218 $219 reversed $85 $-1 #
face $-1 $-1 $220 $49 $-1 $221 forward single #
loop $-1 $222 $223 $87 #
cone-surface $-1 -21.105148337434176 24.359831986633843 9.0438597574048991 0 -0.6018150307709319 -0.79863550430605224 0.25 0 0 1 I I -0.70710678118654746 0.70710678118654746 0.25 forward I I I I #
loop $-1 $-1 $224 $64 #
coedge $-1 $140 $140 $225 $226 reversed $88 $-1 #
face $-1 $-1 $227 $50 $-1 $228 forward single #
loop $-1 $229 $230 $90 #
cone-surface $-1 -17.785066896366647 24.359831986633843 9.0438597574048991 0 -0.6018150307709319 -0.79863550430605224 0.25 0 0 1 I I -0.70710678118654746 0.70710678118654746 0.25 forward I I I I #
loop $-1 $-1 $231 $65 #
coedge $-1 $145 $145 $232 $233 reversed $91 $-1 #
face $-1 $234 $235 $51 $-1 $236 reversed single #
loop $-1 $-1 $237 $93 #
plane-surface $-1 -6.4817025389668075 -16.617795875374135 41.989246075887692 0 0.6018150307709319 0.79863550430605224 1 0 0 forward_v I I I I #
coedge $-1 $238 $239 $240 $241 reversed $94 $-1 #
face $-1 $-1 $242 $52 $-1 $243 forward single #
loop $-1 $244 $245 $96 #
cone-surface $-1 -8.1417432595005721 24.359831986633843 9.0438597574048991 0 -0.6018150307709319 -0.79863550430605224 0.25 0 0 1 I I -0.70710678118654746 0.70710678118654746 0.25 forward I I I I #
loop $-1 $-1 $246 $67 #
coedge $-1 $154 $154 $247 $248 reversed $97 $-1 #
face $-1 $-1 $249 $53 $-1 $250 forward single #
loop $-1 $251 $252 $99 #
cone-surface $-1 -4.8216618184330429 24.359831986633843 9.0438597574048991 0 -0.6018150307709319 -0.79863550430605224 0.25 0 0 1 I I -0.70710678118654746 0.70710678118654746 0.25 forward I I I I #
loop $-1 $-1 $253 $68 #
coedge $-1 $159 $159 $254 $255 reversed $100 $-1 #
face $-1 $256 $257 $54 $-1 $258 reversed single #
loop $-1 $-1 $259 $102 #
plane-surface $-1 6.4817025389668004 -16.617795875374135 41.989246075887692 0 0.6018150307709319 0.79863550430605224 1 0 0 forward_v I I I I #
coedge $-1 $260 $261 $262 $263 reversed $103 $-1 #
face $-1 $-1 $264 $55 $-1 $265 forward single #
loop $-1 $266 $267 $105 #
cone-surface $-1 4.8216618184330358 24.359831986633843 9.0438597574048991 0 -0.6018150307709319 -0.79863550430605224 0.25 0 0 1 I I -0.70710678118654746 0.70710678118654746 0.25 forward I I I I #
loop $-1 $-1 $268 $70 #
coedge $-1 $168 $168 $269 $270 reversed $106 $-1 #
face $-1 $-1 $271 $56 $-1 $272 forward single #
loop $-1 $273 $274 $108 #
cone-surface $-1 8.141743259500565 24.359831986633843 9.0438597574048991 0 -0.6018150307709319 -0.79863550430605224 0.25 0 0 1 I I -0.70710678118654746 0.70710678118654746 0.25 forward I I I I #
loop $-1 $-1 $275 $71 #
coedge $-1 $173 $173 $276 $277 reversed $109 $-1 #
face $-1 $278 $279 $57 $-1 $280 reversed single #
loop $-1 $-1 $281 $111 #
plane-surface $-1 19.445107616900408 -16.617795875374135 41.989246075887692 0 0.6018150307709319 0.79863550430605224 1 0 0 forward_v I I I I #
coedge $-1 $282 $283 $284 $285 reversed $112 $-1 #
face $-1 $-1 $286 $58 $-1 $287 forward single #
loop $-1 $288 $289 $114 #
cone-surface $-1 17.785066896366644 24.359831986633843 9.0438597574048991 0 -0.6018150307709319 -0.79863550430605224 0.25 0 0 1 I I -0.70710678118654746 0.70710678118654746 0.25 forward I I I I #
loop $-1 $-1 $290 $73 #
coedge $-1 $182 $182 $291 $292 reversed $115 $-1 #
face $-1 $-1 $293 $59 $-1 $294 forward single #
loop $-1 $295 $296 $117 #
cone-surface $-1 21.105148337434173 24.359831986633843 9.0438597574048991 0 -0.6018150307709319 -0.79863550430605224 0.25 0 0 1 I I -0.70710678118654746 0.70710678118654746 0.25 forward I I I I #
loop $-1 $-1 $297 $74 #
coedge $-1 $187 $187 $298 $299 reversed $118 $-1 #
face $-1 $300 $301 $45 $-1 $302 reversed single #
loop $-1 $-1 $303 $120 #
plane-surface $-1 0 -27.822873763769962 0 0 1 0 0 0 1 forward_v I I I I #
coedge $-1 $304 $305 $306 $307 forward $121 $-1 #
coedge $-1 $308 $123 $309 $310 forward $76 $-1 #
coedge $-1 $123 $308 $311 $312 forward $76 $-1 #
coedge $-1 $313 $314 $123 $195 reversed $315 $-1 #
edge $-1 $316 -27.822873763769962 $317 27.822873763769962 $194 $318 forward 7 unknown #
face $-1 $319 $320 $46 $-1 $321 reversed single #
loop $-1 $-1 $202 $124 #
plane-surface $-1 -49.763229264113065 0 -4.2540103029471092 0 0 1 1 0 0 forward_v I I I I #
coedge $-1 $322 $323 $201 $324 forward $125 $-1 #
coedge $-1 $325 $127 $326 $327 reversed $79 $-1 #
coedge $-1 $127 $325 $199 $324 reversed $79 $-1 #
coedge $-1 $328 $329 $127 $203 reversed $197 $-1 #
edge $-1 $330 -27.822873763769962 $331 27.822873763769962 $202 $332 forward 7 unknown #
face $-1 $333 $334 $47 $-1 $335 reversed single #
loop $-1 $-1 $336 $128 #
plane-surface $-1 49.763229264113065 0 -4.2540103029471092 0 0 1 1 0 0 forward_v I I I I #
coedge $-1 $337 $338 $209 $339 forward $129 $-1 #
coedge $-1 $340 $131 $341 $342 reversed $82 $-1 #
coedge $-1 $131 $340 $207 $339 reversed $82 $-1 #
coedge $-1 $343 $344 $131 $211 reversed $205 $-1 #
edge $-1 $345 -27.822873763769962 $346 27.822873763769962 $210 $347 forward 7 unknown #
face $-1 $348 $349 $48 $-1 $350 reversed single #
loop $-1 $-1 $351 $132 #
plane-surface $-1 -15.5716792689883 34.075207149932837 109.26113189775263 -1 0 0 0 0.6018150307709319 0.79863550430605224 forward_v I I I I #
coedge $-1 $352 $353 $354 $355 reversed $133 $-1 #
coedge $-1 $217 $135 $356 $357 reversed $85 $-1 #
coedge $-1 $135 $216 $352 $358 reversed $85 $-1 #
coedge $-1 $354 $359 $135 $219 forward $360 $-1 #
edge $-1 $361 -10.785270188803544 $362 -5.8456611116151862 $218 $363 forward 7 unknown #
loop $-1 $-1 $225 $136 #
plane-surface $-1 -19.445107616900415 -16.617795875374135 41.989246075887692 0 0.6018150307709319 0.79863550430605224 1 0 0 forward_v I I I I #
loop $-1 $-1 $364 $87 #
coedge $-1 $223 $223 $224 $365 reversed $137 $-1 #
coedge $-1 $224 $224 $223 $365 forward $139 $-1 #
coedge $-1 $225 $225 $140 $226 forward $220 $-1 #
edge $-1 $366 -1.398493577192428e-015 $366 6.2831853071795987 $225 $367 forward 7 unknown #
loop $-1 $-1 $232 $141 #
plane-surface $-1 -19.445107616900415 -16.617795875374135 41.989246075887692 0 0.6018150307709319 0.79863550430605224 1 0 0 forward_v I I I I #
loop $-1 $-1 $368 $90 #
coedge $-1 $230 $230 $231 $369 reversed $142 $-1 #
coedge $-1 $231 $231 $230 $369 forward $144 $-1 #
coedge $-1 $232 $232 $145 $233 forward $227 $-1 #
edge $-1 $370 -1.398493577192428e-015 $370 6.2831853071795987 $232 $371 forward 7 unknown #
face $-1 $372 $373 $51 $-1 $374 forward single #
loop $-1 $-1 $375 $146 #
plane-surface $-1 -2.6082741910546918 34.075207149932837 109.26113189775263 -1 0 0 0 0.6018150307709319 0.79863550430605224 forward_v I I I I #
coedge $-1 $376 $377 $378 $379 reversed $147 $-1 #
coedge $-1 $239 $149 $380 $381 reversed $94 $-1 #
coedge $-1 $149 $238 $376 $382 reversed $94 $-1 #
coedge $-1 $378 $383 $149 $241 forward $373 $-1 #
edge $-1 $384 -10.785270188803544 $385 -5.8456611116151862 $240 $386 forward 7 unknown #
loop $-1 $-1 $247 $150 #
plane-surface $-1 -6.4817025389668075 -16.617795875374135 41.989246075887692 0 0.6018150307709319 0.79863550430605224 1 0 0 forward_v I I I I #
loop $-1 $-1 $387 $96 #
coedge $-1 $245 $245 $246 $388 reversed $151 $-1 #
coedge $-1 $246 $246 $245 $388 forward $153 $-1 #
coedge $-1 $247 $247 $154 $248 forward $242 $-1 #
edge $-1 $389 -1.398493577192428e-015 $389 6.2831853071795987 $247 $390 forward 7 unknown #
loop $-1 $-1 $254 $155 #
plane-surface $-1 -6.4817025389668075 -16.617795875374135 41.989246075887692 0 0.6018150307709319 0.79863550430605224 1 0 0 forward_v I I I I #
loop $-1 $-1 $391 $99 #
coedge $-1 $252 $252 $253 $392 reversed $156 $-1 #
coedge $-1 $253 $253 $252 $392 forward $158 $-1 #
coedge $-1 $254 $254 $159 $255 forward $249 $-1 #
edge $-1 $393 -1.398493577192428e-015 $393 6.2831853071795987 $254 $394 forward 7 unknown #
face $-1 $395 $396 $54 $-1 $397 forward single #
loop $-1 $-1 $398 $160 #
plane-surface $-1 10.355130886878916 34.075207149932837 109.26113189775263 -1 0 0 0 0.6018150307709319 0.79863550430605224 forward_v I I I I #
coedge $-1 $399 $400 $401 $402 reversed $161 $-1 #
coedge $-1 $261 $163 $403 $404 reversed $103 $-1 #
coedge $-1 $163 $260 $399 $405 reversed $103 $-1 #
coedge $-1 $401 $406 $163 $263 forward $396 $-1 #
edge $-1 $407 -10.785270188803544 $408 -5.8456611116151862 $262 $409 forward 7 unknown #
loop $-1 $-1 $269 $164 #
plane-surface $-1 6.4817025389668004 -16.617795875374135 41.989246075887692 0 0.6018150307709319 0.79863550430605224 1 0 0 forward_v I I I I #
loop $-1 $-1 $410 $105 #
coedge $-1 $267 $267 $268 $411 reversed $165 $-1 #
coedge $-1 $268 $268 $267 $411 forward $167 $-1 #
coedge $-1 $269 $269 $168 $270 forward $264 $-1 #
edge $-1 $412 -1.398493577192428e-015 $412 6.2831853071795987 $269 $413 forward 7 unknown #
loop $-1 $-1 $276 $169 #
plane-surface $-1 6.4817025389668004 -16.617795875374135 41.989246075887692 0 0.6018150307709319 0.79863550430605224 1 0 0 forward_v I I I I #
loop $-1 $-1 $414 $108 #
coedge $-1 $274 $274 $275 $415 reversed $170 $-1 #
coedge $-1 $275 $275 $274 $415 forward $172 $-1 #
coedge $-1 $276 $276 $173 $277 forward $271 $-1 #
edge $-1 $416 -1.398493577192428e-015 $416 6.2831853071795987 $276 $417 forward 7 unknown #
face $-1 $418 $419 $57 $-1 $420 forward single #
loop $-1 $-1 $421 $174 #
plane-surface $-1 23.318535964812526 34.075207149932837 109.26113189775263 -1 0 0 0 0.6018150307709319 0.79863550430605224 forward_v I I I I #
coedge $-1 $422 $423 $424 $425 reversed $175 $-1 #
coedge $-1 $283 $177 $426 $427 reversed $112 $-1 #
coedge $-1 $177 $282 $422 $428 reversed $112 $-1 #
coedge $-1 $424 $429 $177 $285 forward $419 $-1 #
edge $-1 $430 -10.785270188803544 $431 -5.8456611116151862 $284 $432 forward 7 unknown #
loop $-1 $-1 $291 $178 #
plane-surface $-1 19.445107616900408 -16.617795875374135 41.989246075887692 0 0.6018150307709319 0.79863550430605224 1 0 0 forward_v I I I I #
loop $-1 $-1 $433 $114 #
coedge $-1 $289 $289 $290 $434 reversed $179 $-1 #
coedge $-1 $290 $290 $289 $434 forward $181 $-1 #
coedge $-1 $291 $291 $182 $292 forward $286 $-1 #
edge $-1 $435 -1.398493577192428e-015 $435 6.2831853071795987 $291 $436 forward 7 unknown #
loop $-1 $-1 $298 $183 #
plane-surface $-1 19.445107616900408 -16.617795875374135 41.989246075887692 0 0.6018150307709319 0.79863550430605224 1 0 0 forward_v I I I I #
loop $-1 $-1 $437 $117 #
coedge $-1 $296 $296 $297 $438 reversed $184 $-1 #
coedge $-1 $297 $297 $296 $438 forward $186 $-1 #
coedge $-1 $298 $298 $187 $299 forward $293 $-1 #
edge $-1 $439 -1.398493577192428e-015 $439 6.2831853071795987 $298 $440 forward 7 unknown #
face $-1 $441 $442 $45 $-1 $443 reversed single #
loop $-1 $-1 $444 $188 #
plane-surface $-1 -42.116763817255162 0 0 1 0 0 0 0 -1 forward_v I I I I #
coedge $-1 $445 $311 $446 $447 forward $189 $-1 #
coedge $-1 $448 $191 $445 $449 forward $121 $-1 #
coedge $-1 $191 $448 $450 $451 forward $121 $-1 #
coedge $-1 $314 $313 $191 $307 reversed $315 $-1 #
edge $-1 $452 -27.822873763769962 $453 27.822873763769962 $306 $454 forward 7 unknown #
coedge $-1 $193 $192 $455 $456 forward $76 $-1 #
coedge $-1 $457 $458 $192 $310 reversed $442 $-1 #
edge $-1 $317 -42.116763817255162 $459 42.116763817255162 $309 $460 forward 7 unknown #
coedge $-1 $303 $461 $193 $312 reversed $189 $-1 #
edge $-1 $462 -42.116763817255162 $316 42.116763817255162 $311 $463 forward 7 unknown #
coedge $-1 $306 $194 $461 $464 forward $315 $-1 #
coedge $-1 $194 $306 $457 $465 reversed $315 $-1 #
loop $-1 $-1 $313 $441 #
vertex $-1 $195 $466 #
vertex $-1 $195 $467 #
straight-curve $-1 42.116763817255162 0 12.223061315251471 0 1 0 I I #
face $-1 $468 $469 $46 $-1 $470 reversed single #
loop $-1 $-1 $471 $196 #
plane-surface $-1 -49.763229264113065 0 -8.592717726809223 0 0 1 1 0 0 forward_v I I I I #
coedge $-1 $472 $199 $473 $474 reversed $125 $-1 #
coedge $-1 $199 $472 $328 $475 reversed $125 $-1 #
edge $-1 $330 4.2540103029471092 $476 8.592717726809223 $199 $477 forward 7 unknown #
coedge $-1 $201 $200 $471 $478 forward $79 $-1 #
coedge $-1 $479 $480 $200 $327 forward $481 $-1 #
edge $-1 $482 -8.592717726809223 $331 -4.2540103029471092 $326 $483 forward 7 unknown #
coedge $-1 $484 $202 $323 $475 forward $197 $-1 #
coedge $-1 $202 $484 $479 $485 forward $197 $-1 #
vertex $-1 $324 $486 #
vertex $-1 $485 $487 #
straight-curve $-1 -42.116763817255162 0 -4.2540103029471092 0 -1 0 I I #
face $-1 $488 $489 $47 $-1 $490 reversed single #
loop $-1 $-1 $491 $204 #
plane-surface $-1 49.763229264113065 0 -8.592717726809223 0 0 1 1 0 0 forward_v I I I I #
coedge $-1 $344 $343 $492 $493 forward $205 $-1 #
coedge $-1 $494 $207 $495 $496 reversed $129 $-1 #
coedge $-1 $207 $494 $343 $497 reversed $129 $-1 #
edge $-1 $345 4.2540103029471092 $498 8.592717726809223 $207 $499 forward 7 unknown #
coedge $-1 $209 $208 $500 $501 forward $82 $-1 #
coedge $-1 $502 $503 $208 $342 forward $504 $-1 #
edge $-1 $505 -8.592717726809223 $346 -4.2540103029471092 $341 $506 forward 7 unknown #
coedge $-1 $336 $210 $338 $497 forward $205 $-1 #
coedge $-1 $210 $336 $502 $507 forward $205 $-1 #
vertex $-1 $339 $508 #
vertex $-1 $507 $509 #
straight-curve $-1 42.116763817255162 0 -4.2540103029471092 0 1 0 I I #
face $-1 $-1 $360 $48 $-1 $510 forward single #
loop $-1 $-1 $511 $212 #
plane-surface $-1 0 27.822873763769962 0 0 -1 0 0 0 -1 forward_v I I I I #
coedge $-1 $512 $513 $514 $515 reversed $213 $-1 #
coedge $-1 $516 $215 $217 $358 forward $133 $-1 #
coedge $-1 $215 $516 $512 $517 forward $133 $-1 #
coedge $-1 $514 $218 $215 $355 forward $360 $-1 #
edge $-1 $362 -13.595982156362325 $518 -5.849125460538092 $354 $519 forward 7 unknown #
coedge $-1 $520 $521 $216 $357 forward $349 $-1 #
edge $-1 $522 -46.129767133546565 $361 -42.407504633624846 $356 $523 forward 7 unknown #
edge $-1 $362 49.46068682017696 $522 55.645747527539918 $217 $524 forward 7 unknown #
coedge $-1 $218 $514 $520 $525 forward $360 $-1 #
loop $-1 $-1 $514 $348 #
vertex $-1 $357 $526 #
vertex $-1 $219 $527 #
straight-curve $-1 -23.318535964812533 17.037603574966418 12.223061315251471 0 -1 0 I I #
coedge $-1 $364 $364 $-1 $528 reversed $222 $-1 #
edge $-1 $529 0 $529 6.2831853071796004 $223 $530 forward 7 unknown #
vertex $-1 $226 $531 #
ellipse-curve $-1 -21.105148337434176 25.35306922517578 10.361930065290609 0 0.6018150307709319 0.79863550430605224 0.5 0 0 1 I I #
coedge $-1 $368 $368 $-1 $532 reversed $229 $-1 #
edge $-1 $533 0 $533 6.2831853071796004 $230 $534 forward 7 unknown #
vertex $-1 $233 $535 #
ellipse-curve $-1 -17.785066896366647 25.35306922517578 10.361930065290609 0 0.6018150307709319 0.79863550430605224 0.5 0 0 1 I I #
face $-1 $-1 $536 $51 $-1 $537 reversed single #
loop $-1 $-1 $240 $234 #
plane-surface $-1 0 0 12.223061315251471 0 0 1 1 0 0 forward_v I I I I #
coedge $-1 $538 $539 $540 $541 reversed $235 $-1 #
coedge $-1 $542 $237 $239 $382 forward $147 $-1 #
coedge $-1 $237 $542 $538 $543 forward $147 $-1 #
coedge $-1 $540 $240 $237 $379 forward $373 $-1 #
edge $-1 $385 -7.1142796173955194 $544 0.63257707842871191 $378 $545 forward 7 unknown #
coedge $-1 $546 $547 $238 $381 forward $536 $-1 #
edge $-1 $548 -46.129767133546565 $384 -42.407504633624846 $380 $549 forward 7 unknown #
edge $-1 $385 49.46068682017696 $548 55.645747527539918 $239 $550 forward 7 unknown #
coedge $-1 $240 $540 $546 $551 forward $373 $-1 #
vertex $-1 $241 $552 #
vertex $-1 $241 $553 #
straight-curve $-1 -10.355130886878923 17.037603574966418 12.223061315251471 0 -1 0 I I #
coedge $-1 $387 $387 $-1 $554 reversed $244 $-1 #
edge $-1 $555 0 $555 6.2831853071796004 $245 $556 forward 7 unknown #
vertex $-1 $248 $557 #
ellipse-curve $-1 -8.1417432595005721 25.35306922517578 10.361930065290609 0 0.6018150307709319 0.79863550430605224 0.5 0 0 1 I I #
coedge $-1 $391 $391 $-1 $558 reversed $251 $-1 #
edge $-1 $559 0 $559 6.2831853071796004 $252 $560 forward 7 unknown #
vertex $-1 $255 $561 #
ellipse-curve $-1 -4.8216618184330429 25.35306922517578 10.361930065290609 0 0.6018150307709319 0.79863550430605224 0.5 0 0 1 I I #
face $-1 $-1 $562 $54 $-1 $563 reversed single #
loop $-1 $-1 $262 $256 #
plane-surface $-1 0 0 12.223061315251471 0 0 1 1 0 0 forward_v I I I I #
coedge $-1 $564 $565 $566 $567 reversed $257 $-1 #
coedge $-1 $568 $259 $261 $405 forward $161 $-1 #
coedge $-1 $259 $568 $564 $569 forward $161 $-1 #
coedge $-1 $566 $262 $259 $402 forward $396 $-1 #
edge $-1 $408 -0.63257707842871547 $570 7.1142796173955158 $401 $571 forward 7 unknown #
coedge $-1 $572 $573 $260 $404 forward $562 $-1 #
edge $-1 $574 -46.129767133546565 $407 -42.407504633624846 $403 $575 forward 7 unknown #
edge $-1 $408 49.46068682017696 $574 55.645747527539918 $261 $576 forward 7 unknown #
coedge $-1 $262 $566 $572 $577 forward $396 $-1 #
vertex $-1 $263 $578 #
vertex $-1 $263 $579 #
straight-curve $-1 2.6082741910546847 17.037603574966418 12.223061315251471 0 -1 0 I I #
coedge $-1 $410 $410 $-1 $580 reversed $266 $-1 #
edge $-1 $581 0 $581 6.2831853071796004 $267 $582 forward 7 unknown #
vertex $-1 $270 $583 #
ellipse-curve $-1 4.8216618184330358 25.35306922517578 10.361930065290609 0 0.6018150307709319 0.79863550430605224 0.5 0 0 1 I I #
coedge $-1 $414 $414 $-1 $584 reversed $273 $-1 #
edge $-1 $585 0 $585 6.2831853071796004 $274 $586 forward 7 unknown #
vertex $-1 $277 $587 #
ellipse-curve $-1 8.141743259500565 25.35306922517578 10.361930065290609 0 0.6018150307709319 0.79863550430605224 0.5 0 0 1 I I #
face $-1 $-1 $588 $57 $-1 $589 reversed single #
loop $-1 $-1 $284 $278 #
plane-surface $-1 0 0 12.223061315251471 0 0 1 1 0 0 forward_v I I I I #
coedge $-1 $590 $591 $592 $593 reversed $279 $-1 #
coedge $-1 $594 $281 $283 $428 forward $175 $-1 #
coedge $-1 $281 $594 $590 $595 forward $175 $-1 #
coedge $-1 $592 $284 $281 $425 forward $419 $-1 #
edge $-1 $431 5.8491254605380885 $596 13.595982156362322 $424 $597 forward 7 unknown #
coedge $-1 $598 $599 $282 $427 forward $588 $-1 #
edge $-1 $600 -46.129767133546565 $430 -42.407504633624846 $426 $601 forward 7 unknown #
edge $-1 $431 49.46068682017696 $600 55.645747527539918 $283 $602 forward 7 unknown #
coedge $-1 $284 $592 $598 $603 forward $419 $-1 #
vertex $-1 $285 $604 #
vertex $-1 $285 $605 #
straight-curve $-1 15.571679268988293 17.037603574966418 12.223061315251471 0 -1 0 I I #
coedge $-1 $433 $433 $-1 $606 reversed $288 $-1 #
edge $-1 $607 0 $607 6.2831853071796004 $289 $608 forward 7 unknown #
vertex $-1 $292 $609 #
ellipse-curve $-1 17.785066896366644 25.35306922517578 10.361930065290609 0 0.6018150307709319 0.79863550430605224 0.5 0 0 1 I I #
coedge $-1 $437 $437 $-1 $610 reversed $295 $-1 #
edge $-1 $611 0 $611 6.2831853071796004 $296 $612 forward 7 unknown #
vertex $-1 $299 $613 #
ellipse-curve $-1 21.105148337434173 25.35306922517578 10.361930065290609 0 0.6018150307709319 0.79863550430605224 0.5 0 0 1 I I #
face $-1 $-1 $315 $45 $-1 $614 reversed single #
loop $-1 $-1 $457 $300 #
plane-surface $-1 0 27.822873763769962 0 0 -1 0 0 0 -1 forward_v I I I I #
coedge $-1 $615 $455 $458 $616 forward $301 $-1 #
coedge $-1 $461 $303 $304 $449 reversed $189 $-1 #
coedge $-1 $455 $615 $303 $447 reversed $301 $-1 #
edge $-1 $462 -12.223061315251471 $617 12.223061315251471 $446 $618 forward 7 unknown #
coedge $-1 $305 $304 $615 $619 forward $121 $-1 #
edge $-1 $453 -42.116763817255162 $617 42.116763817255162 $445 $620 forward 7 unknown #
coedge $-1 $458 $457 $305 $451 reversed $442 $-1 #
edge $-1 $621 -42.116763817255162 $452 42.116763817255162 $450 $622 forward 7 unknown #
vertex $-1 $307 $623 #
vertex $-1 $464 $624 #
straight-curve $-1 42.116763817255162 0 -12.223061315251471 0 -1 0 I I #
coedge $-1 $444 $446 $308 $456 reversed $301 $-1 #
edge $-1 $459 -27.822873763769962 $462 27.822873763769962 $455 $625 forward 7 unknown #
coedge $-1 $450 $309 $314 $465 forward $442 $-1 #
coedge $-1 $309 $450 $444 $616 reversed $442 $-1 #
vertex $-1 $310 $626 #
straight-curve $-1 0 27.822873763769962 12.223061315251471 -1 0 0 I I #
coedge $-1 $311 $445 $313 $464 reversed $189 $-1 #
vertex $-1 $456 $627 #
straight-curve $-1 0 -27.822873763769962 12.223061315251471 1 0 0 I I #
edge $-1 $316 -12.223061315251471 $453 12.223061315251471 $313 $628 forward 7 unknown #
edge $-1 $317 -12.223061315251471 $452 12.223061315251471 $314 $629 forward 7 unknown #
point $-1 42.116763817255162 -27.822873763769962 12.223061315251471 #
point $-1 42.116763817255162 27.822873763769962 12.223061315251471 #
face $-1 $-1 $481 $46 $-1 $630 reversed single #
loop $-1 $-1 $631 $319 #
plane-surface $-1 -57.409694710970967 0 -6.4233640148781657 1 0 0 0 0 -1 forward_v I I I I #
coedge $-1 $632 $473 $325 $478 reversed $320 $-1 #
coedge $-1 $323 $322 $631 $633 reversed $125 $-1 #
coedge $-1 $471 $634 $322 $474 forward $320 $-1 #
edge $-1 $635 -7.6464654468579027 $476 7.6464654468579027 $322 $636 forward 7 unknown #
edge $-1 $330 -7.6464654468579027 $637 7.6464654468579027 $323 $638 forward 7 unknown #
vertex $-1 $324 $639 #
straight-curve $-1 -42.116763817255162 27.822873763769962 0 0 0 -1 I I #
edge $-1 $482 -27.822873763769962 $476 27.822873763769962 $471 $640 forward 7 unknown #
coedge $-1 $641 $326 $329 $485 reversed $481 $-1 #
coedge $-1 $326 $641 $632 $642 reversed $481 $-1 #
loop $-1 $-1 $326 $468 #
vertex $-1 $327 $643 #
straight-curve $-1 -42.116763817255162 -27.822873763769962 0 0 0 1 I I #
coedge $-1 $329 $328 $644 $645 forward $197 $-1 #
edge $-1 $646 -7.6464654468579027 $331 7.6464654468579027 $479 $647 forward 7 unknown #
point $-1 -42.116763817255162 27.822873763769962 -4.2540103029471092 #
point $-1 -42.116763817255162 -27.822873763769962 -4.2540103029471092 #
face $-1 $-1 $504 $47 $-1 $648 reversed single #
loop $-1 $-1 $649 $333 #
plane-surface $-1 57.409694710970967 0 -6.4233640148781657 -1 0 0 0 0 1 forward_v I I I I #
coedge $-1 $495 $650 $651 $652 forward $334 $-1 #
coedge $-1 $649 $653 $336 $493 reversed $489 $-1 #
edge $-1 $654 -27.822873763769962 $655 27.822873763769962 $492 $656 forward 7 unknown #
coedge $-1 $338 $337 $649 $657 reversed $129 $-1 #
coedge $-1 $500 $491 $337 $496 forward $334 $-1 #
edge $-1 $658 -7.6464654468579027 $498 7.6464654468579027 $337 $659 forward 7 unknown #
edge $-1 $345 -7.6464654468579027 $654 7.6464654468579027 $338 $660 forward 7 unknown #
vertex $-1 $339 $661 #
straight-curve $-1 42.116763817255162 -27.822873763769962 0 0 0 -1 I I #
coedge $-1 $650 $495 $340 $501 reversed $334 $-1 #
edge $-1 $505 -27.822873763769962 $498 27.822873763769962 $500 $662 forward 7 unknown #
coedge $-1 $663 $341 $344 $507 reversed $504 $-1 #
coedge $-1 $341 $663 $650 $664 reversed $504 $-1 #
loop $-1 $-1 $341 $488 #
vertex $-1 $342 $665 #
straight-curve $-1 42.116763817255162 27.822873763769962 0 0 0 1 I I #
edge $-1 $655 -7.6464654468579027 $346 7.6464654468579027 $502 $666 forward 7 unknown #
point $-1 42.116763817255162 -27.822873763769962 -4.2540103029471092 #
point $-1 42.116763817255162 27.822873763769962 -4.2540103029471092 #
plane-surface $-1 0 0 12.223061315251471 0 0 1 1 0 0 forward_v I I I I #
coedge $-1 $521 $520 $513 $667 forward $349 $-1 #
coedge $-1 $513 $351 $353 $517 reversed $213 $-1 #
coedge $-1 $351 $512 $511 $667 reversed $213 $-1 #
coedge $-1 $359 $354 $351 $515 forward $360 $-1 #
edge $-1 $518 5.8456611116151862 $668 10.785270188803544 $514 $669 forward 7 unknown #
coedge $-1 $353 $352 $521 $670 reversed $133 $-1 #
edge $-1 $671 -55.645747527539918 $518 -49.46068682017696 $512 $672 forward 7 unknown #
vertex $-1 $355 $673 #
straight-curve $-1 -9.7225538084502077 22.883264686581605 12.223061315251471 1 0 0 I I #
coedge $-1 $511 $356 $359 $525 reversed $349 $-1 #
coedge $-1 $356 $511 $516 $670 forward $349 $-1 #
vertex $-1 $357 $674 #
straight-curve $-1 -23.318535964812533 27.822873763769962 54.630565948876317 0 0 1 I I #
straight-curve $-1 -23.318535964812533 -16.617795875374135 41.989246075887692 0 0.79863550430605224 -0.6018150307709319 I I #
edge $-1 $668 15.5716792689883 $361 23.318535964812533 $520 $675 forward 7 unknown #
point $-1 -23.318535964812533 27.822873763769962 12.223061315251471 #
point $-1 -23.318535964812533 22.883264686581605 12.223061315251471 #
edge $-1 $676 1 $676 0 $364 $-1 forward 7 unknown #
vertex $-1 $365 $677 #
ellipse-curve $-1 -21.105148337434176 24.510285744326577 9.243518633481413 0 0.6018150307709319 0.79863550430605224 0.5 0 0 1 I I #
point $-1 -20.605148337434176 25.353069225175776 10.361930065290606 #
edge $-1 $678 1 $678 0 $368 $-1 forward 7 unknown #
vertex $-1 $369 $679 #
ellipse-curve $-1 -17.785066896366647 24.510285744326577 9.243518633481413 0 0.6018150307709319 0.79863550430605224 0.5 0 0 1 I I #
point $-1 -17.285066896366647 25.353069225175776 10.361930065290606 #
loop $-1 $-1 $380 $372 #
plane-surface $-1 0 27.822873763769962 0 0 -1 0 0 0 -1 forward_v I I I I #
coedge $-1 $539 $375 $377 $543 reversed $235 $-1 #
coedge $-1 $375 $538 $680 $681 reversed $235 $-1 #
coedge $-1 $383 $378 $375 $541 forward $373 $-1 #
edge $-1 $544 5.8456611116151862 $682 10.785270188803544 $540 $683 forward 7 unknown #
coedge $-1 $377 $376 $547 $684 reversed $147 $-1 #
edge $-1 $685 -55.645747527539918 $544 -49.46068682017696 $538 $686 forward 7 unknown #
vertex $-1 $379 $687 #
straight-curve $-1 -3.2408512694834037 22.883264686581605 12.223061315251471 1 0 0 I I #
coedge $-1 $680 $380 $383 $551 reversed $536 $-1 #
coedge $-1 $380 $680 $542 $684 forward $536 $-1 #
vertex $-1 $381 $688 #
straight-curve $-1 -10.355130886878923 27.822873763769962 54.630565948876317 0 0 1 I I #
straight-curve $-1 -10.355130886878923 -16.617795875374135 41.989246075887692 0 0.79863550430605224 -0.6018150307709319 I I #
edge $-1 $682 2.6082741910546918 $384 10.355130886878923 $546 $689 forward 7 unknown #
point $-1 -10.355130886878923 27.822873763769962 12.223061315251471 #
point $-1 -10.355130886878923 22.883264686581605 12.223061315251471 #
edge $-1 $690 1 $690 0 $387 $-1 forward 7 unknown #
vertex $-1 $388 $691 #
ellipse-curve $-1 -8.1417432595005721 24.510285744326577 9.243518633481413 0 0.6018150307709319 0.79863550430605224 0.5 0 0 1 I I #
point $-1 -7.6417432595005721 25.353069225175776 10.361930065290606 #
edge $-1 $692 1 $692 0 $391 $-1 forward 7 unknown #
vertex $-1 $392 $693 #
ellipse-curve $-1 -4.8216618184330429 24.510285744326577 9.243518633481413 0 0.6018150307709319 0.79863550430605224 0.5 0 0 1 I I #
point $-1 -4.3216618184330429 25.353069225175776 10.361930065290606 #
loop $-1 $-1 $403 $395 #
plane-surface $-1 0 27.822873763769962 0 0 -1 0 0 0 -1 forward_v I I I I #
coedge $-1 $565 $398 $400 $569 reversed $257 $-1 #
coedge $-1 $398 $564 $694 $695 reversed $257 $-1 #
coedge $-1 $406 $401 $398 $567 forward $396 $-1 #
edge $-1 $570 5.8456611116151862 $696 10.785270188803544 $566 $697 forward 7 unknown #
coedge $-1 $400 $399 $573 $698 reversed $161 $-1 #
edge $-1 $699 -55.645747527539918 $570 -49.46068682017696 $564 $700 forward 7 unknown #
vertex $-1 $402 $701 #
straight-curve $-1 3.2408512694834002 22.883264686581605 12.223061315251471 1 0 0 I I #
coedge $-1 $694 $403 $406 $577 reversed $562 $-1 #
coedge $-1 $403 $694 $568 $698 forward $562 $-1 #
vertex $-1 $404 $702 #
straight-curve $-1 2.6082741910546847 27.822873763769962 54.630565948876317 0 0 1 I I #
straight-curve $-1 2.6082741910546847 -16.617795875374135 41.989246075887692 0 0.79863550430605224 -0.6018150307709319 I I #
edge $-1 $696 -10.355130886878916 $407 -2.6082741910546847 $572 $703 forward 7 unknown #
point $-1 2.6082741910546847 27.822873763769962 12.223061315251471 #
point $-1 2.6082741910546847 22.883264686581605 12.223061315251471 #
edge $-1 $704 1 $704 0 $410 $-1 forward 7 unknown #
vertex $-1 $411 $705 #
ellipse-curve $-1 4.8216618184330358 24.510285744326577 9.243518633481413 0 0.6018150307709319 0.79863550430605224 0.5 0 0 1 I I #
point $-1 5.3216618184330358 25.353069225175776 10.361930065290606 #
edge $-1 $706 1 $706 0 $414 $-1 forward 7 unknown #
vertex $-1 $415 $707 #
ellipse-curve $-1 8.141743259500565 24.510285744326577 9.243518633481413 0 0.6018150307709319 0.79863550430605224 0.5 0 0 1 I I #
point $-1 8.641743259500565 25.353069225175776 10.361930065290606 #
loop $-1 $-1 $426 $418 #
plane-surface $-1 0 27.822873763769962 0 0 -1 0 0 0 -1 forward_v I I I I #
coedge $-1 $591 $421 $423 $595 reversed $279 $-1 #
coedge $-1 $421 $590 $708 $709 reversed $279 $-1 #
coedge $-1 $429 $424 $421 $593 forward $419 $-1 #
edge $-1 $596 5.8456611116151862 $710 10.785270188803544 $592 $711 forward 7 unknown #
coedge $-1 $423 $422 $599 $712 reversed $175 $-1 #
edge $-1 $713 -55.645747527539918 $596 -49.46068682017696 $590 $714 forward 7 unknown #
vertex $-1 $425 $715 #
straight-curve $-1 9.7225538084502041 22.883264686581605 12.223061315251471 1 0 0 I I #
coedge $-1 $708 $426 $429 $603 reversed $588 $-1 #
coedge $-1 $426 $708 $594 $712 forward $588 $-1 #
vertex $-1 $427 $716 #
straight-curve $-1 15.571679268988293 27.822873763769962 54.630565948876317 0 0 1 I I #
straight-curve $-1 15.571679268988293 -16.617795875374135 41.989246075887692 0 0.79863550430605224 -0.6018150307709319 I I #
edge $-1 $710 -23.318535964812526 $430 -15.571679268988293 $598 $717 forward 7 unknown #
point $-1 15.571679268988293 27.822873763769962 12.223061315251471 #
point $-1 15.571679268988293 22.883264686581605 12.223061315251471 #
edge $-1 $718 1 $718 0 $433 $-1 forward 7 unknown #
vertex $-1 $434 $719 #
ellipse-curve $-1 17.785066896366644 24.510285744326577 9.243518633481413 0 0.6018150307709319 0.79863550430605224 0.5 0 0 1 I I #
point $-1 18.285066896366644 25.353069225175776 10.361930065290606 #
edge $-1 $720 1 $720 0 $437 $-1 forward 7 unknown #
vertex $-1 $438 $721 #
ellipse-curve $-1 21.105148337434173 24.510285744326577 9.243518633481413 0 0.6018150307709319 0.79863550430605224 0.5 0 0 1 I I #
point $-1 21.605148337434173 25.353069225175776 10.361930065290606 #
plane-surface $-1 42.116763817255162 0 0 -1 0 0 0 0 1 forward_v I I I I #
coedge $-1 $446 $444 $448 $619 reversed $301 $-1 #
edge $-1 $459 -12.223061315251471 $621 12.223061315251471 $458 $722 forward 7 unknown #
vertex $-1 $619 $723 #
straight-curve $-1 -42.116763817255162 -27.822873763769962 0 0 0 -1 I I #
edge $-1 $617 -27.822873763769962 $621 27.822873763769962 $615 $724 forward 7 unknown #
straight-curve $-1 0 -27.822873763769962 -12.223061315251471 -1 0 0 I I #
vertex $-1 $451 $725 #
straight-curve $-1 0 27.822873763769962 -12.223061315251471 1 0 0 I I #
point $-1 42.116763817255162 27.822873763769962 -12.223061315251471 #
point $-1 42.116763817255162 -27.822873763769962 -12.223061315251471 #
straight-curve $-1 -42.116763817255162 0 12.223061315251471 0 -1 0 I I #
point $-1 -42.116763817255162 27.822873763769962 12.223061315251471 #
point $-1 -42.116763817255162 -27.822873763769962 12.223061315251471 #
straight-curve $-1 42.116763817255162 -27.822873763769962 0 0 0 -1 I I #
straight-curve $-1 42.116763817255162 27.822873763769962 0 0 0 -1 I I #
plane-surface $-1 0 -27.822873763769962 0 0 1 0 0 0 1 forward_v I I I I #
coedge $-1 $726 $644 $472 $633 forward $469 $-1 #
coedge $-1 $634 $471 $480 $642 forward $320 $-1 #
edge $-1 $637 -2.1693537119310564 $635 2.1693537119310573 $472 $727 forward 7 unknown #
coedge $-1 $473 $632 $726 $728 forward $320 $-1 #
vertex $-1 $474 $729 #
straight-curve $-1 -49.763229264113065 27.822873763769962 -8.592717726809223 1 0 0 I I #
vertex $-1 $475 $730 #
straight-curve $-1 -49.763229264113065 27.822873763769962 -4.2540103029471092 -1 0 0 I I #
point $-1 -42.116763817255162 27.822873763769962 -8.592717726809223 #
straight-curve $-1 -42.116763817255162 0 -8.592717726809223 0 1 0 I I #
coedge $-1 $480 $479 $731 $732 forward $481 $-1 #
edge $-1 $482 -7.6464654468579027 $733 7.6464654468579027 $480 $734 forward 7 unknown #
point $-1 -42.116763817255162 -27.822873763769962 -8.592717726809223 #
coedge $-1 $631 $731 $484 $645 reversed $469 $-1 #
edge $-1 $637 -27.822873763769962 $646 27.822873763769962 $644 $735 forward 7 unknown #
vertex $-1 $645 $736 #
straight-curve $-1 -49.763229264113065 -27.822873763769962 -4.2540103029471092 1 0 0 I I #
plane-surface $-1 0 27.822873763769962 0 0 -1 0 0 0 -1 forward_v I I I I #
coedge $-1 $651 $492 $494 $657 forward $489 $-1 #
coedge $-1 $491 $500 $503 $664 forward $334 $-1 #
coedge $-1 $653 $649 $491 $652 reversed $489 $-1 #
edge $-1 $737 -27.822873763769962 $658 27.822873763769962 $651 $738 forward 7 unknown #
coedge $-1 $492 $651 $663 $739 reversed $489 $-1 #
vertex $-1 $493 $740 #
vertex $-1 $493 $741 #
straight-curve $-1 57.409694710970967 0 -4.2540103029471092 0 1 0 I I #
edge $-1 $654 -2.1693537119310564 $658 2.1693537119310573 $649 $742 forward 7 unknown #
vertex $-1 $657 $743 #
straight-curve $-1 49.763229264113065 -27.822873763769962 -8.592717726809223 -1 0 0 I I #
straight-curve $-1 49.763229264113065 -27.822873763769962 -4.2540103029471092 1 0 0 I I #
point $-1 42.116763817255162 -27.822873763769962 -8.592717726809223 #
straight-curve $-1 42.116763817255162 0 -8.592717726809223 0 -1 0 I I #
coedge $-1 $503 $502 $653 $739 forward $504 $-1 #
edge $-1 $505 -7.6464654468579027 $737 7.6464654468579027 $503 $744 forward 7 unknown #
point $-1 42.116763817255162 27.822873763769962 -8.592717726809223 #
straight-curve $-1 49.763229264113065 27.822873763769962 -4.2540103029471092 -1 0 0 I I #
edge $-1 $668 42.407504633624846 $671 46.129767133546565 $511 $745 forward 7 unknown #
vertex $-1 $525 $746 #
straight-curve $-1 -15.5716792689883 17.037603574966418 12.223061315251471 0 1 0 I I #
edge $-1 $671 5.849125460538092 $522 13.595982156362325 $521 $747 forward 7 unknown #
vertex $-1 $670 $748 #
straight-curve $-1 -15.5716792689883 -16.617795875374135 41.989246075887692 0 -0.79863550430605224 0.6018150307709319 I I #
point $-1 -15.5716792689883 22.883264686581605 12.223061315251471 #
point $-1 -23.318535964812533 27.822873763769962 8.5007988153297518 #
straight-curve $-1 0 27.822873763769962 12.223061315251471 -1 0 0 I I #
vertex $-1 $528 $749 #
point $-1 -20.605148337434176 24.510285744326577 9.243518633481413 #
vertex $-1 $532 $750 #
point $-1 -17.285066896366647 24.510285744326577 9.243518633481413 #
coedge $-1 $547 $546 $539 $681 forward $536 $-1 #
edge $-1 $682 42.407504633624846 $685 46.129767133546565 $680 $751 forward 7 unknown #
vertex $-1 $551 $752 #
straight-curve $-1 -2.6082741910546918 17.037603574966418 12.223061315251471 0 1 0 I I #
edge $-1 $685 -0.63257707842871191 $548 7.1142796173955194 $547 $753 forward 7 unknown #
vertex $-1 $684 $754 #
straight-curve $-1 -2.6082741910546918 -16.617795875374135 41.989246075887692 0 -0.79863550430605224 0.6018150307709319 I I #
point $-1 -2.6082741910546918 22.883264686581605 12.223061315251471 #
point $-1 -10.355130886878923 27.822873763769962 8.5007988153297518 #
straight-curve $-1 0 27.822873763769962 12.223061315251471 -1 0 0 I I #
vertex $-1 $554 $755 #
point $-1 -7.6417432595005721 24.510285744326577 9.243518633481413 #
vertex $-1 $558 $756 #
point $-1 -4.3216618184330429 24.510285744326577 9.243518633481413 #
coedge $-1 $573 $572 $565 $695 forward $562 $-1 #
edge $-1 $696 42.407504633624846 $699 46.129767133546565 $694 $757 forward 7 unknown #
vertex $-1 $577 $758 #
straight-curve $-1 10.355130886878916 17.037603574966418 12.223061315251471 0 1 0 I I #
edge $-1 $699 -7.1142796173955158 $574 0.63257707842871547 $573 $759 forward 7 unknown #
vertex $-1 $698 $760 #
straight-curve $-1 10.355130886878916 -16.617795875374135 41.989246075887692 0 -0.79863550430605224 0.6018150307709319 I I #
point $-1 10.355130886878916 22.883264686581605 12.223061315251471 #
point $-1 2.6082741910546847 27.822873763769962 8.5007988153297518 #
straight-curve $-1 0 27.822873763769962 12.223061315251471 -1 0 0 I I #
vertex $-1 $580 $761 #
point $-1 5.3216618184330358 24.510285744326577 9.243518633481413 #
vertex $-1 $584 $762 #
point $-1 8.641743259500565 24.510285744326577 9.243518633481413 #
coedge $-1 $599 $598 $591 $709 forward $588 $-1 #
edge $-1 $710 42.407504633624846 $713 46.129767133546565 $708 $763 forward 7 unknown #
vertex $-1 $603 $764 #
straight-curve $-1 23.318535964812526 17.037603574966418 12.223061315251471 0 1 0 I I #
edge $-1 $713 -13.595982156362322 $600 -5.8491254605380885 $599 $765 forward 7 unknown #
vertex $-1 $712 $766 #
straight-curve $-1 23.318535964812526 -16.617795875374135 41.989246075887692 0 -0.79863550430605224 0.6018150307709319 I I #
point $-1 23.318535964812526 22.883264686581605 12.223061315251471 #
point $-1 15.571679268988293 27.822873763769962 8.5007988153297518 #
straight-curve $-1 0 27.822873763769962 12.223061315251471 -1 0 0 I I #
vertex $-1 $606 $767 #
point $-1 18.285066896366644 24.510285744326577 9.243518633481413 #
vertex $-1 $610 $768 #
point $-1 21.605148337434173 24.510285744326577 9.243518633481413 #
straight-curve $-1 -42.116763817255162 27.822873763769962 0 0 0 -1 I I #
point $-1 -42.116763817255162 -27.822873763769962 -12.223061315251471 #
straight-curve $-1 -42.116763817255162 0 -12.223061315251471 0 1 0 I I #
point $-1 -42.116763817255162 27.822873763769962 -12.223061315251471 #
coedge $-1 $731 $631 $634 $728 reversed $469 $-1 #
straight-curve $-1 -57.409694710970967 27.822873763769962 -6.4233640148781657 0 0 -1 I I #
edge $-1 $733 -27.822873763769962 $635 27.822873763769962 $726 $769 forward 7 unknown #
point $-1 -57.409694710970967 27.822873763769962 -8.592717726809223 #
point $-1 -57.409694710970967 27.822873763769962 -4.2540103029471092 #
coedge $-1 $644 $726 $641 $732 reversed $469 $-1 #
edge $-1 $646 -2.1693537119310564 $733 2.1693537119310573 $731 $770 forward 7 unknown #
vertex $-1 $728 $771 #
straight-curve $-1 -49.763229264113065 -27.822873763769962 -8.592717726809223 -1 0 0 I I #
straight-curve $-1 -57.409694710970967 0 -4.2540103029471092 0 -1 0 I I #
point $-1 -57.409694710970967 -27.822873763769962 -4.2540103029471092 #
vertex $-1 $652 $772 #
straight-curve $-1 57.409694710970967 0 -8.592717726809223 0 -1 0 I I #
edge $-1 $655 -2.1693537119310564 $737 2.1693537119310573 $653 $773 forward 7 unknown #
point $-1 57.409694710970967 -27.822873763769962 -4.2540103029471092 #
point $-1 57.409694710970967 27.822873763769962 -4.2540103029471092 #
straight-curve $-1 57.409694710970967 -27.822873763769962 -6.4233640148781657 0 0 -1 I I #
point $-1 57.409694710970967 -27.822873763769962 -8.592717726809223 #
straight-curve $-1 49.763229264113065 27.822873763769962 -8.592717726809223 1 0 0 I I #
straight-curve $-1 -15.5716792689883 27.822873763769962 54.630565948876317 0 0 -1 I I #
point $-1 -15.5716792689883 27.822873763769962 12.223061315251471 #
straight-curve $-1 -9.7225538084502077 27.822873763769962 8.5007988153297536 -1 0 0 I I #
point $-1 -15.5716792689883 27.822873763769962 8.5007988153297518 #
point $-1 -21.105148337434176 24.209378228941109 8.8442008813283852 #
point $-1 -17.785066896366647 24.209378228941109 8.8442008813283852 #
straight-curve $-1 -2.6082741910546918 27.822873763769962 54.630565948876317 0 0 -1 I I #
point $-1 -2.6082741910546918 27.822873763769962 12.223061315251471 #
straight-curve $-1 -3.2408512694834037 27.822873763769962 8.5007988153297536 -1 0 0 I I #
point $-1 -2.6082741910546918 27.822873763769962 8.5007988153297518 #
point $-1 -8.1417432595005721 24.209378228941109 8.8442008813283852 #
point $-1 -4.8216618184330429 24.209378228941109 8.8442008813283852 #
straight-curve $-1 10.355130886878916 27.822873763769962 54.630565948876317 0 0 -1 I I #
point $-1 10.355130886878916 27.822873763769962 12.223061315251471 #
straight-curve $-1 3.2408512694834002 27.822873763769962 8.5007988153297536 -1 0 0 I I #
point $-1 10.355130886878916 27.822873763769962 8.5007988153297518 #
point $-1 4.8216618184330358 24.209378228941109 8.8442008813283852 #
point $-1 8.141743259500565 24.209378228941109 8.8442008813283852 #
straight-curve $-1 23.318535964812526 27.822873763769962 54.630565948876317 0 0 -1 I I #
point $-1 23.318535964812526 27.822873763769962 12.223061315251471 #
straight-curve $-1 9.7225538084502041 27.822873763769962 8.5007988153297536 -1 0 0 I I #
point $-1 23.318535964812526 27.822873763769962 8.5007988153297518 #
point $-1 17.785066896366644 24.209378228941109 8.8442008813283852 #
point $-1 21.105148337434173 24.209378228941109 8.8442008813283852 #
straight-curve $-1 -57.409694710970967 0 -8.592717726809223 0 1 0 I I #
straight-curve $-1 -57.409694710970967 -27.822873763769962 -6.4233640148781657 0 0 -1 I I #
point $-1 -57.409694710970967 -27.822873763769962 -8.592717726809223 #
point $-1 57.409694710970967 27.822873763769962 -8.592717726809223 #
straight-curve $-1 57.409694710970967 27.822873763769962 -6.4233640148781657 0 0 -1 I I #
End-of-ACIS-data 