500 0 19 0           
7 Unknown 11 ACIS 5.0 NT 24 Thu Mar 25 15:56:00 1999 
-1 9.9999999999999995e-007 1e-010 
body $-1 $19 $-1 $20 #
body $-1 $21 $-1 $22 #
body $-1 $23 $-1 $24 #
body $-1 $25 $-1 $26 #
body $-1 $27 $-1 $28 #
body $-1 $29 $-1 $30 #
body $-1 $31 $-1 $32 #
body $-1 $33 $-1 $34 #
body $-1 $35 $-1 $36 #
body $-1 $37 $-1 $38 #
body $-1 $39 $-1 $40 #
body $-1 $41 $-1 $42 #
body $-1 $43 $-1 $44 #
body $-1 $45 $-1 $46 #
body $-1 $47 $-1 $48 #
body $-1 $49 $-1 $50 #
body $-1 $51 $-1 $52 #
body $-1 $53 $-1 $54 #
body $-1 $55 $-1 $56 #
lump $-1 $-1 $57 $0 #
transform $-1 1 0 0 0 1 0 0 0 1 64.348887600329604 43.43407535192388 11.168232016055772 1 rotate no_reflect no_shear #
lump $-1 $-1 $58 $1 #
transform $-1 1 0 0 0 1 0 0 0 1 64.348887600329604 43.43407535192388 11.168232016055772 1 rotate no_reflect no_shear #
lump $-1 $-1 $59 $2 #
transform $-1 1 0 0 0 1 0 0 0 1 64.348887600329604 43.43407535192388 11.168232016055772 1 rotate no_reflect no_shear #
lump $-1 $-1 $60 $3 #
transform $-1 1 0 0 0 1 0 0 0 1 64.348887600329604 43.43407535192388 11.168232016055772 1 rotate no_reflect no_shear #
lump $-1 $-1 $61 $4 #
transform $-1 1 0 0 0 1 0 0 0 1 64.348887600329604 43.43407535192388 11.168232016055772 1 rotate no_reflect no_shear #
lump $-1 $-1 $62 $5 #
transform $-1 1 0 0 0 1 0 0 0 1 64.348887600329604 43.43407535192388 11.168232016055772 1 rotate no_reflect no_shear #
lump $-1 $-1 $63 $6 #
transform $-1 1 0 0 0 1 0 0 0 1 64.348887600329604 43.43407535192388 11.168232016055772 1 rotate no_reflect no_shear #
lump $-1 $-1 $64 $7 #
transform $-1 1 0 0 0 1 0 0 0 1 64.348887600329604 43.43407535192388 11.168232016055772 1 rotate no_reflect no_shear #
lump $-1 $-1 $65 $8 #
transform $-1 1 0 0 0 1 0 0 0 1 64.348887600329604 43.43407535192388 11.168232016055772 1 rotate no_reflect no_shear #
lump $-1 $-1 $66 $9 #
transform $-1 1 0 0 0 1 0 0 0 1 64.348887600329604 43.43407535192388 11.168232016055772 1 rotate no_reflect no_shear #
lump $-1 $-1 $67 $10 #
transform $-1 1 0 0 0 1 0 0 0 1 64.348887600329604 43.43407535192388 11.168232016055772 1 rotate no_reflect no_shear #
lump $-1 $-1 $68 $11 #
transform $-1 1 0 0 0 1 0 0 0 1 64.348887600329604 43.43407535192388 11.168232016055772 1 rotate no_reflect no_shear #
lump $-1 $-1 $69 $12 #
transform $-1 1 0 0 0 1 0 0 0 1 64.348887600329604 43.43407535192388 11.168232016055772 1 rotate no_reflect no_shear #
lump $-1 $-1 $70 $13 #
transform $-1 1 0 0 0 1 0 0 0 1 64.348887600329604 43.43407535192388 11.168232016055772 1 rotate no_reflect no_shear #
lump $-1 $-1 $71 $14 #
transform $-1 1 0 0 0 1 0 0 0 1 64.348887600329604 43.43407535192388 11.168232016055772 1 rotate no_reflect no_shear #
lump $-1 $-1 $72 $15 #
transform $-1 1 0 0 0 1 0 0 0 1 64.348887600329604 43.43407535192388 11.168232016055772 1 rotate no_reflect no_shear #
lump $-1 $-1 $73 $16 #
transform $-1 1 0 0 0 1 0 0 0 1 64.348887600329604 43.43407535192388 11.168232016055772 1 rotate no_reflect no_shear #
lump $-1 $-1 $74 $17 #
transform $-1 1 0 0 0 1 0 0 0 1 64.348887600329604 43.43407535192388 11.168232016055772 1 rotate no_reflect no_shear #
lump $-1 $-1 $75 $18 #
transform $-1 1 0 0 0 1 0 0 0 1 64.348887600329604 43.43407535192388 11.168232016055772 1 rotate no_reflect no_shear #
shell $-1 $-1 $-1 $76 $-1 $19 #
shell $-1 $-1 $-1 $77 $-1 $21 #
shell $-1 $-1 $-1 $78 $-1 $23 #
shell $-1 $-1 $-1 $79 $-1 $25 #
shell $-1 $-1 $-1 $80 $-1 $27 #
shell $-1 $-1 $-1 $81 $-1 $29 #
shell $-1 $-1 $-1 $82 $-1 $31 #
shell $-1 $-1 $-1 $83 $-1 $33 #
shell $-1 $-1 $-1 $84 $-1 $35 #
shell $-1 $-1 $-1 $85 $-1 $37 #
shell $-1 $-1 $-1 $86 $-1 $39 #
shell $-1 $-1 $-1 $87 $-1 $41 #
shell $-1 $-1 $-1 $88 $-1 $43 #
shell $-1 $-1 $-1 $89 $-1 $45 #
shell $-1 $-1 $-1 $90 $-1 $47 #
shell $-1 $-1 $-1 $91 $-1 $49 #
shell $-1 $-1 $-1 $92 $-1 $51 #
shell $-1 $-1 $-1 $93 $-1 $53 #
shell $-1 $-1 $-1 $94 $-1 $55 #
face $-1 $95 $96 $57 $-1 $97 forward single #
face $-1 $98 $99 $58 $-1 $100 reversed single #
face $-1 $101 $102 $59 $-1 $103 forward single #
face $-1 $104 $105 $60 $-1 $106 forward single #
face $-1 $107 $108 $61 $-1 $109 forward single #
face $-1 $110 $111 $62 $-1 $112 reversed single #
face $-1 $113 $114 $63 $-1 $115 forward single #
face $-1 $116 $117 $64 $-1 $118 forward single #
face $-1 $119 $120 $65 $-1 $121 forward single #
face $-1 $122 $123 $66 $-1 $124 reversed single #
face $-1 $125 $126 $67 $-1 $127 forward single #
face $-1 $128 $129 $68 $-1 $130 forward single #
face $-1 $131 $132 $69 $-1 $133 forward single #
face $-1 $134 $135 $70 $-1 $136 reversed single #
face $-1 $137 $138 $71 $-1 $139 forward single #
face $-1 $140 $141 $72 $-1 $142 forward single #
face $-1 $143 $144 $73 $-1 $145 forward single #
face $-1 $146 $147 $74 $-1 $148 reversed single #
face $-1 $149 $150 $75 $-1 $151 forward single #
face $-1 $152 $153 $57 $-1 $154 reversed single #
loop $-1 $-1 $155 $76 #
plane-surface $-1 0 0 11.168232016055772 0 0 1 1 0 0 forward_v I I I I #
face $-1 $156 $157 $58 $-1 $158 reversed single #
loop $-1 $-1 $159 $77 #
plane-surface $-1 -152.12056027440852 -35.540664187966122 94.170458376082379 0 1 0 -0.68199836817093118 0 0.7313536940579346 forward_v I I I I #
face $-1 $160 $161 $59 $-1 $162 forward single #
loop $-1 $163 $164 $78 #
cone-surface $-1 -57.910912678051425 -32.775938885565282 5.0983105819202299 0.68199836817093118 0 -0.7313536940579346 0.7313536940579346 0 0.68199836817093118 1 I I 0 1 1 forward I I I I #
face $-1 $165 $166 $60 $-1 $167 forward single #
loop $-1 $168 $169 $79 #
cone-surface $-1 -57.910912678051425 -28.628850931964031 5.0983105819202299 0.68199836817093118 0 -0.7313536940579346 0.7313536940579346 0 0.68199836817093118 1 I I 0 1 1 forward I I I I #
face $-1 $170 $171 $61 $-1 $172 forward single #
loop $-1 $173 $174 $80 #
cone-surface $-1 -57.910912678051425 -24.481762978362774 5.0983105819202299 0.68199836817093118 0 -0.7313536940579346 0.7313536940579346 0 0.68199836817093118 1 I I 0 1 1 forward I I I I #
face $-1 $175 $176 $62 $-1 $177 reversed single #
loop $-1 $-1 $178 $81 #
plane-surface $-1 -152.12056027440852 -13.82362651200418 94.170458376082379 0 1 0 -0.68199836817093118 0 0.7313536940579346 forward_v I I I I #
face $-1 $179 $180 $63 $-1 $181 forward single #
loop $-1 $182 $183 $82 #
cone-surface $-1 -57.910912678051425 -11.058901209603341 5.0983105819202299 0.68199836817093118 0 -0.7313536940579346 0.7313536940579346 0 0.68199836817093118 1 I I 0 1 1 forward I I I I #
face $-1 $184 $185 $64 $-1 $186 forward single #
loop $-1 $187 $188 $83 #
cone-surface $-1 -57.910912678051425 -6.9118132560020911 5.0983105819202299 0.68199836817093118 0 -0.7313536940579346 0.7313536940579346 0 0.68199836817093118 1 I I 0 1 1 forward I I I I #
face $-1 $189 $190 $65 $-1 $191 forward single #
loop $-1 $192 $193 $84 #
cone-surface $-1 -57.910912678051425 -2.7647253024008336 5.0983105819202299 0.68199836817093118 0 -0.7313536940579346 0.7313536940579346 0 0.68199836817093118 1 I I 0 1 1 forward I I I I #
face $-1 $194 $195 $66 $-1 $196 reversed single #
loop $-1 $-1 $197 $85 #
plane-surface $-1 -152.12056027440852 7.8934111639577598 94.170458376082379 0 1 0 -0.68199836817093118 0 0.7313536940579346 forward_v I I I I #
face $-1 $198 $199 $67 $-1 $200 forward single #
loop $-1 $201 $202 $86 #
cone-surface $-1 -57.910912678051425 10.658136466358599 5.0983105819202299 0.68199836817093118 0 -0.7313536940579346 0.7313536940579346 0 0.68199836817093118 1 I I 0 1 1 forward I I I I #
face $-1 $203 $204 $68 $-1 $205 forward single #
loop $-1 $206 $207 $87 #
cone-surface $-1 -57.910912678051425 14.805224419959849 5.0983105819202299 0.68199836817093118 0 -0.7313536940579346 0.7313536940579346 0 0.68199836817093118 1 I I 0 1 1 forward I I I I #
face $-1 $208 $209 $69 $-1 $210 forward single #
loop $-1 $211 $212 $88 #
cone-surface $-1 -57.910912678051425 18.952312373561107 5.0983105819202299 0.68199836817093118 0 -0.7313536940579346 0.7313536940579346 0 0.68199836817093118 1 I I 0 1 1 forward I I I I #
face $-1 $213 $214 $70 $-1 $215 reversed single #
loop $-1 $-1 $216 $89 #
plane-surface $-1 -152.12056027440852 29.610448839919698 94.170458376082379 0 1 0 -0.68199836817093118 0 0.7313536940579346 forward_v I I I I #
face $-1 $217 $218 $71 $-1 $219 forward single #
loop $-1 $220 $221 $90 #
cone-surface $-1 -57.910912678051425 32.375174142320546 5.0983105819202299 0.68199836817093118 0 -0.7313536940579346 0.7313536940579346 0 0.68199836817093118 1 I I 0 1 1 forward I I I I #
face $-1 $222 $223 $72 $-1 $224 forward single #
loop $-1 $225 $226 $91 #
cone-surface $-1 -57.910912678051425 36.522262095921789 5.0983105819202299 0.68199836817093118 0 -0.7313536940579346 0.7313536940579346 0 0.68199836817093118 1 I I 0 1 1 forward I I I I #
face $-1 $227 $228 $73 $-1 $229 forward single #
loop $-1 $230 $231 $92 #
cone-surface $-1 -57.910912678051425 40.669350049523047 5.0983105819202299 0.68199836817093118 0 -0.7313536940579346 0.7313536940579346 0 0.68199836817093118 1 I I 0 1 1 forward I I I I #
face $-1 $232 $233 $74 $-1 $234 reversed single #
loop $-1 $-1 $235 $93 #
plane-surface $-1 54.823424234812052 -0.27251874965996592 188.48583164440234 0 -1 0 -0.66913061440640931 0 -0.74314481823134659 forward_v I I I I #
face $-1 $236 $237 $75 $-1 $238 forward single #
loop $-1 $239 $240 $94 #
cone-surface $-1 60.124499792769818 -12.191671011294055 6.9947512877121891 -0.66913061440640931 0 -0.74314481823134659 1.1147172273470198 0 -1.003695921609614 1 I I 0 1 1.5 forward I I I I #
face $-1 $241 $242 $57 $-1 $243 reversed single #
loop $-1 $-1 $244 $95 #
plane-surface $-1 0 0 -11.168232016055772 0 0 1 1 0 0 forward_v I I I I #
coedge $-1 $245 $246 $247 $248 forward $96 $-1 #
face $-1 $249 $250 $58 $-1 $251 reversed single #
loop $-1 $-1 $252 $98 #
plane-surface $-1 -64.348887600329604 -28.628850931964031 0.046865066042627745 -0.68199836817093118 0 0.7313536940579346 0.7313536940579346 0 0.68199836817093118 forward_v I I I I #
coedge $-1 $253 $254 $255 $256 reversed $99 $-1 #
face $-1 $-1 $257 $59 $-1 $258 forward single #
loop $-1 $259 $260 $101 #
cone-surface $-1 -57.095041404088832 -32.775938885565282 4.2233957757622971 0.68199836817093118 0 -0.7313536940579346 0.3656768470289673 0 0.34099918408546559 1 I I -0.70710678118654746 0.70710678118654746 0.5 forward I I I I #
loop $-1 $-1 $261 $78 #
coedge $-1 $164 $164 $262 $263 reversed $102 $-1 #
face $-1 $-1 $264 $60 $-1 $265 forward single #
loop $-1 $266 $267 $104 #
cone-surface $-1 -57.095041404088832 -28.628850931964031 4.2233957757622971 0.68199836817093118 0 -0.7313536940579346 0.3656768470289673 0 0.34099918408546559 1 I I -0.70710678118654746 0.70710678118654746 0.5 forward I I I I #
loop $-1 $-1 $268 $79 #
coedge $-1 $169 $169 $269 $270 reversed $105 $-1 #
face $-1 $-1 $271 $61 $-1 $272 forward single #
loop $-1 $273 $274 $107 #
cone-surface $-1 -57.095041404088832 -24.481762978362774 4.2233957757622971 0.68199836817093118 0 -0.7313536940579346 0.3656768470289673 0 0.34099918408546559 1 I I -0.70710678118654746 0.70710678118654746 0.5 forward I I I I #
loop $-1 $-1 $275 $80 #
coedge $-1 $174 $174 $276 $277 reversed $108 $-1 #
face $-1 $278 $279 $62 $-1 $280 reversed single #
loop $-1 $-1 $281 $110 #
plane-surface $-1 -64.348887600329604 -6.9118132560020911 0.046865066042627745 -0.68199836817093118 0 0.7313536940579346 0.7313536940579346 0 0.68199836817093118 forward_v I I I I #
coedge $-1 $282 $283 $284 $285 reversed $111 $-1 #
face $-1 $-1 $286 $63 $-1 $287 forward single #
loop $-1 $288 $289 $113 #
cone-surface $-1 -57.095041404088832 -11.058901209603341 4.2233957757622971 0.68199836817093118 0 -0.7313536940579346 0.3656768470289673 0 0.34099918408546559 1 I I -0.70710678118654746 0.70710678118654746 0.5 forward I I I I #
loop $-1 $-1 $290 $82 #
coedge $-1 $183 $183 $291 $292 reversed $114 $-1 #
face $-1 $-1 $293 $64 $-1 $294 forward single #
loop $-1 $295 $296 $116 #
cone-surface $-1 -57.095041404088832 -6.9118132560020911 4.2233957757622971 0.68199836817093118 0 -0.7313536940579346 0.3656768470289673 0 0.34099918408546559 1 I I -0.70710678118654746 0.70710678118654746 0.5 forward I I I I #
loop $-1 $-1 $297 $83 #
coedge $-1 $188 $188 $298 $299 reversed $117 $-1 #
face $-1 $-1 $300 $65 $-1 $301 forward single #
loop $-1 $302 $303 $119 #
cone-surface $-1 -57.095041404088832 -2.7647253024008336 4.2233957757622971 0.68199836817093118 0 -0.7313536940579346 0.3656768470289673 0 0.34099918408546559 1 I I -0.70710678118654746 0.70710678118654746 0.5 forward I I I I #
loop $-1 $-1 $304 $84 #
coedge $-1 $193 $193 $305 $306 reversed $120 $-1 #
face $-1 $307 $308 $66 $-1 $309 reversed single #
loop $-1 $-1 $310 $122 #
plane-surface $-1 -64.348887600329604 14.805224419959849 0.046865066042627745 -0.68199836817093118 0 0.7313536940579346 0.7313536940579346 0 0.68199836817093118 forward_v I I I I #
coedge $-1 $311 $312 $313 $314 reversed $123 $-1 #
face $-1 $-1 $315 $67 $-1 $316 forward single #
loop $-1 $317 $318 $125 #
cone-surface $-1 -57.095041404088832 10.658136466358599 4.2233957757622971 0.68199836817093118 0 -0.7313536940579346 0.3656768470289673 0 0.34099918408546559 1 I I -0.70710678118654746 0.70710678118654746 0.5 forward I I I I #
loop $-1 $-1 $319 $86 #
coedge $-1 $202 $202 $320 $321 reversed $126 $-1 #
face $-1 $-1 $322 $68 $-1 $323 forward single #
loop $-1 $324 $325 $128 #
cone-surface $-1 -57.095041404088832 14.805224419959849 4.2233957757622971 0.68199836817093118 0 -0.7313536940579346 0.3656768470289673 0 0.34099918408546559 1 I I -0.70710678118654746 0.70710678118654746 0.5 forward I I I I #
loop $-1 $-1 $326 $87 #
coedge $-1 $207 $207 $327 $328 reversed $129 $-1 #
face $-1 $-1 $329 $69 $-1 $330 forward single #
loop $-1 $331 $332 $131 #
cone-surface $-1 -57.095041404088832 18.952312373561107 4.2233957757622971 0.68199836817093118 0 -0.7313536940579346 0.3656768470289673 0 0.34099918408546559 1 I I -0.70710678118654746 0.70710678118654746 0.5 forward I I I I #
loop $-1 $-1 $333 $88 #
coedge $-1 $212 $212 $334 $335 reversed $132 $-1 #
face $-1 $336 $337 $70 $-1 $338 forward single #
loop $-1 $-1 $339 $134 #
plane-surface $-1 -64.348887600329604 36.522262095921789 0.046865066042627745 -0.68199836817093118 0 0.7313536940579346 0.7313536940579346 0 0.68199836817093118 forward_v I I I I #
coedge $-1 $340 $341 $342 $343 reversed $135 $-1 #
face $-1 $-1 $344 $71 $-1 $345 forward single #
loop $-1 $346 $347 $137 #
cone-surface $-1 -57.095041404088832 32.375174142320546 4.2233957757622971 0.68199836817093118 0 -0.7313536940579346 0.3656768470289673 0 0.34099918408546559 1 I I -0.70710678118654746 0.70710678118654746 0.5 forward I I I I #
loop $-1 $-1 $348 $90 #
coedge $-1 $221 $221 $349 $350 reversed $138 $-1 #
face $-1 $-1 $351 $72 $-1 $352 forward single #
loop $-1 $353 $354 $140 #
cone-surface $-1 -57.095041404088832 36.522262095921789 4.2233957757622971 0.68199836817093118 0 -0.7313536940579346 0.3656768470289673 0 0.34099918408546559 1 I I -0.70710678118654746 0.70710678118654746 0.5 forward I I I I #
loop $-1 $-1 $355 $91 #
coedge $-1 $226 $226 $356 $357 reversed $141 $-1 #
face $-1 $-1 $358 $73 $-1 $359 forward single #
loop $-1 $360 $361 $143 #
cone-surface $-1 -57.095041404088832 40.669350049523047 4.2233957757622971 0.68199836817093118 0 -0.7313536940579346 0.3656768470289673 0 0.34099918408546559 1 I I -0.70710678118654746 0.70710678118654746 0.5 forward I I I I #
loop $-1 $-1 $362 $92 #
coedge $-1 $231 $231 $363 $364 reversed $144 $-1 #
face $-1 $365 $366 $74 $-1 $367 reversed single #
loop $-1 $-1 $368 $146 #
plane-surface $-1 -31.292197157942994 -12.191671011294055 92.844746886129741 0.66913061440640931 0 0.74314481823134659 0.74314481823134659 0 -0.66913061440640931 forward_v I I I I #
coedge $-1 $369 $370 $371 $372 reversed $147 $-1 #
face $-1 $-1 $373 $75 $-1 $374 forward single #
loop $-1 $375 $376 $149 #
cone-surface $-1 57.863327600097307 -12.191671011294055 4.4834652070356036 -0.66913061440640931 0 -0.74314481823134659 0.55735861367350992 0 -0.50184796080480698 1 I I -0.70710678118654757 0.70710678118654757 0.75 forward I I I I #
loop $-1 $-1 $377 $94 #
coedge $-1 $240 $240 $378 $379 reversed $150 $-1 #
face $-1 $380 $381 $57 $-1 $382 reversed single #
loop $-1 $-1 $383 $152 #
plane-surface $-1 0 -43.43407535192388 0 0 1 0 0 0 1 forward_v I I I I #
coedge $-1 $384 $385 $386 $387 forward $153 $-1 #
coedge $-1 $388 $155 $389 $390 forward $96 $-1 #
coedge $-1 $155 $388 $391 $392 forward $96 $-1 #
coedge $-1 $393 $394 $155 $248 reversed $395 $-1 #
edge $-1 $396 -43.43407535192388 $397 43.43407535192388 $247 $398 forward 7 unknown #
face $-1 $399 $400 $58 $-1 $401 reversed single #
loop $-1 $-1 $402 $156 #
plane-surface $-1 -152.12056027440852 -21.71703767596194 94.170458376082379 0 -1 0 0.68199836817093118 0 -0.7313536940579346 forward_v I I I I #
coedge $-1 $403 $404 $405 $406 reversed $157 $-1 #
coedge $-1 $254 $159 $407 $408 reversed $99 $-1 #
coedge $-1 $159 $253 $403 $409 reversed $99 $-1 #
coedge $-1 $405 $410 $159 $256 forward $411 $-1 #
edge $-1 $412 11.711392536874655 $413 23.637598201676738 $255 $414 forward 7 unknown #
loop $-1 $-1 $262 $160 #
plane-surface $-1 -64.348887600329604 -28.628850931964031 0.046865066042627745 -0.68199836817093118 0 0.7313536940579346 0.7313536940579346 0 0.68199836817093118 forward_v I I I I #
loop $-1 $-1 $415 $101 #
coedge $-1 $260 $260 $261 $416 reversed $161 $-1 #
coedge $-1 $261 $261 $260 $416 forward $163 $-1 #
coedge $-1 $262 $262 $164 $263 forward $257 $-1 #
edge $-1 $417 0 $417 6.2831853071796004 $262 $418 forward 7 unknown #
loop $-1 $-1 $269 $165 #
plane-surface $-1 -64.348887600329604 -28.628850931964031 0.046865066042627745 -0.68199836817093118 0 0.7313536940579346 0.7313536940579346 0 0.68199836817093118 forward_v I I I I #
loop $-1 $-1 $419 $104 #
coedge $-1 $267 $267 $268 $420 reversed $166 $-1 #
coedge $-1 $268 $268 $267 $420 forward $168 $-1 #
coedge $-1 $269 $269 $169 $270 forward $264 $-1 #
edge $-1 $421 0 $421 6.2831853071796004 $269 $422 forward 7 unknown #
loop $-1 $-1 $276 $170 #
plane-surface $-1 -64.348887600329604 -28.628850931964031 0.046865066042627745 -0.68199836817093118 0 0.7313536940579346 0.7313536940579346 0 0.68199836817093118 forward_v I I I I #
loop $-1 $-1 $423 $107 #
coedge $-1 $274 $274 $275 $424 reversed $171 $-1 #
coedge $-1 $275 $275 $274 $424 forward $173 $-1 #
coedge $-1 $276 $276 $174 $277 forward $271 $-1 #
edge $-1 $425 0 $425 6.2831853071796004 $276 $426 forward 7 unknown #
face $-1 $427 $428 $62 $-1 $429 forward single #
loop $-1 $-1 $430 $175 #
plane-surface $-1 -152.12056027440852 -1.7763568394002505e-015 94.170458376082379 0 -1 0 0.68199836817093118 0 -0.7313536940579346 forward_v I I I I #
coedge $-1 $431 $432 $433 $434 reversed $176 $-1 #
coedge $-1 $283 $178 $435 $436 reversed $111 $-1 #
coedge $-1 $178 $282 $431 $437 reversed $111 $-1 #
coedge $-1 $433 $438 $178 $285 forward $428 $-1 #
edge $-1 $439 11.711392536874655 $440 23.637598201676738 $284 $441 forward 7 unknown #
loop $-1 $-1 $291 $179 #
plane-surface $-1 -64.348887600329604 -6.9118132560020911 0.046865066042627745 -0.68199836817093118 0 0.7313536940579346 0.7313536940579346 0 0.68199836817093118 forward_v I I I I #
loop $-1 $-1 $442 $113 #
coedge $-1 $289 $289 $290 $443 reversed $180 $-1 #
coedge $-1 $290 $290 $289 $443 forward $182 $-1 #
coedge $-1 $291 $291 $183 $292 forward $286 $-1 #
edge $-1 $444 0 $444 6.2831853071796004 $291 $445 forward 7 unknown #
loop $-1 $-1 $298 $184 #
plane-surface $-1 -64.348887600329604 -6.9118132560020911 0.046865066042627745 -0.68199836817093118 0 0.7313536940579346 0.7313536940579346 0 0.68199836817093118 forward_v I I I I #
loop $-1 $-1 $446 $116 #
coedge $-1 $296 $296 $297 $447 reversed $185 $-1 #
coedge $-1 $297 $297 $296 $447 forward $187 $-1 #
coedge $-1 $298 $298 $188 $299 forward $293 $-1 #
edge $-1 $448 0 $448 6.2831853071796004 $298 $449 forward 7 unknown #
loop $-1 $-1 $305 $189 #
plane-surface $-1 -64.348887600329604 -6.9118132560020911 0.046865066042627745 -0.68199836817093118 0 0.7313536940579346 0.7313536940579346 0 0.68199836817093118 forward_v I I I I #
loop $-1 $-1 $450 $119 #
coedge $-1 $303 $303 $304 $451 reversed $190 $-1 #
coedge $-1 $304 $304 $303 $451 forward $192 $-1 #
coedge $-1 $305 $305 $193 $306 forward $300 $-1 #
edge $-1 $452 0 $452 6.2831853071796004 $305 $453 forward 7 unknown #
face $-1 $454 $455 $66 $-1 $456 forward single #
loop $-1 $-1 $457 $194 #
plane-surface $-1 -152.12056027440852 21.71703767596194 94.170458376082379 0 -1 0 0.68199836817093118 0 -0.7313536940579346 forward_v I I I I #
coedge $-1 $458 $459 $460 $461 reversed $195 $-1 #
coedge $-1 $312 $197 $462 $463 reversed $123 $-1 #
coedge $-1 $197 $311 $458 $464 reversed $123 $-1 #
coedge $-1 $460 $465 $197 $314 forward $455 $-1 #
edge $-1 $466 11.711392536874655 $467 23.637598201676738 $313 $468 forward 7 unknown #
loop $-1 $-1 $320 $198 #
plane-surface $-1 -64.348887600329604 14.805224419959849 0.046865066042627745 -0.68199836817093118 0 0.7313536940579346 0.7313536940579346 0 0.68199836817093118 forward_v I I I I #
loop $-1 $-1 $469 $125 #
coedge $-1 $318 $318 $319 $470 reversed $199 $-1 #
coedge $-1 $319 $319 $318 $470 forward $201 $-1 #
coedge $-1 $320 $320 $202 $321 forward $315 $-1 #
edge $-1 $471 0 $471 6.2831853071796004 $320 $472 forward 7 unknown #
loop $-1 $-1 $327 $203 #
plane-surface $-1 -64.348887600329604 14.805224419959849 0.046865066042627745 -0.68199836817093118 0 0.7313536940579346 0.7313536940579346 0 0.68199836817093118 forward_v I I I I #
loop $-1 $-1 $473 $128 #
coedge $-1 $325 $325 $326 $474 reversed $204 $-1 #
coedge $-1 $326 $326 $325 $474 forward $206 $-1 #
coedge $-1 $327 $327 $207 $328 forward $322 $-1 #
edge $-1 $475 0 $475 6.2831853071796004 $327 $476 forward 7 unknown #
loop $-1 $-1 $334 $208 #
plane-surface $-1 -64.348887600329604 14.805224419959849 0.046865066042627745 -0.68199836817093118 0 0.7313536940579346 0.7313536940579346 0 0.68199836817093118 forward_v I I I I #
loop $-1 $-1 $477 $131 #
coedge $-1 $332 $332 $333 $478 reversed $209 $-1 #
coedge $-1 $333 $333 $332 $478 forward $211 $-1 #
coedge $-1 $334 $334 $212 $335 forward $329 $-1 #
edge $-1 $479 0 $479 6.2831853071796004 $334 $480 forward 7 unknown #
face $-1 $481 $482 $70 $-1 $483 reversed single #
loop $-1 $-1 $342 $213 #
plane-surface $-1 0 0 11.168232016055772 0 0 1 1 0 0 forward_v I I I I #
coedge $-1 $484 $485 $486 $487 reversed $214 $-1 #
coedge $-1 $341 $216 $488 $489 reversed $135 $-1 #
coedge $-1 $216 $340 $484 $490 reversed $135 $-1 #
coedge $-1 $486 $491 $216 $343 forward $337 $-1 #
edge $-1 $492 11.711392536874655 $493 23.637598201676738 $342 $494 forward 7 unknown #
loop $-1 $-1 $349 $217 #
plane-surface $-1 -64.348887600329604 36.522262095921789 0.046865066042627745 -0.68199836817093118 0 0.7313536940579346 0.7313536940579346 0 0.68199836817093118 forward_v I I I I #
loop $-1 $-1 $495 $137 #
coedge $-1 $347 $347 $348 $496 reversed $218 $-1 #
coedge $-1 $348 $348 $347 $496 forward $220 $-1 #
coedge $-1 $349 $349 $221 $350 forward $344 $-1 #
edge $-1 $497 0 $497 6.2831853071796004 $349 $498 forward 7 unknown #
loop $-1 $-1 $356 $222 #
plane-surface $-1 -64.348887600329604 36.522262095921789 0.046865066042627745 -0.68199836817093118 0 0.7313536940579346 0.7313536940579346 0 0.68199836817093118 forward_v I I I I #
loop $-1 $-1 $499 $140 #
coedge $-1 $354 $354 $355 $500 reversed $223 $-1 #
coedge $-1 $355 $355 $354 $500 forward $225 $-1 #
coedge $-1 $356 $356 $226 $357 forward $351 $-1 #
edge $-1 $501 0 $501 6.2831853071796004 $356 $502 forward 7 unknown #
loop $-1 $-1 $363 $227 #
plane-surface $-1 -64.348887600329604 36.522262095921789 0.046865066042627745 -0.68199836817093118 0 0.7313536940579346 0.7313536940579346 0 0.68199836817093118 forward_v I I I I #
loop $-1 $-1 $503 $143 #
coedge $-1 $361 $361 $362 $504 reversed $228 $-1 #
coedge $-1 $362 $362 $361 $504 forward $230 $-1 #
coedge $-1 $363 $363 $231 $364 forward $358 $-1 #
edge $-1 $505 0 $505 6.2831853071796004 $363 $506 forward 7 unknown #
face $-1 $507 $508 $74 $-1 $509 forward single #
loop $-1 $-1 $510 $232 #
plane-surface $-1 54.823424234812052 -24.110823272928144 188.48583164440234 0 1 0 0.66913061440640931 0 0.74314481823134659 forward_v I I I I #
coedge $-1 $511 $512 $513 $514 reversed $233 $-1 #
coedge $-1 $370 $235 $515 $516 reversed $147 $-1 #
coedge $-1 $235 $369 $511 $517 reversed $147 $-1 #
coedge $-1 $513 $518 $235 $372 forward $508 $-1 #
edge $-1 $519 -36.937175482923578 $520 -32.007048331539409 $371 $521 forward 7 unknown #
loop $-1 $-1 $378 $236 #
plane-surface $-1 -31.292197157942994 -12.191671011294055 92.844746886129741 0.66913061440640931 0 0.74314481823134659 0.74314481823134659 0 -0.66913061440640931 forward_v I I I I #
loop $-1 $-1 $522 $149 #
coedge $-1 $376 $376 $377 $523 reversed $237 $-1 #
coedge $-1 $377 $377 $376 $523 forward $239 $-1 #
coedge $-1 $378 $378 $240 $379 forward $373 $-1 #
edge $-1 $524 0 $524 6.2831853071796004 $378 $525 forward 7 unknown #
face $-1 $526 $527 $57 $-1 $528 reversed single #
loop $-1 $-1 $529 $241 #
plane-surface $-1 -64.348887600329604 0 0 1 0 0 0 0 -1 forward_v I I I I #
coedge $-1 $530 $391 $531 $532 forward $242 $-1 #
coedge $-1 $533 $244 $530 $534 forward $153 $-1 #
coedge $-1 $244 $533 $535 $536 forward $153 $-1 #
coedge $-1 $394 $393 $244 $387 reversed $395 $-1 #
edge $-1 $537 -43.43407535192388 $538 43.43407535192388 $386 $539 forward 7 unknown #
coedge $-1 $246 $245 $540 $541 forward $96 $-1 #
coedge $-1 $542 $543 $245 $390 reversed $527 $-1 #
edge $-1 $397 -64.348887600329604 $544 64.348887600329604 $389 $545 forward 7 unknown #
coedge $-1 $383 $546 $246 $392 reversed $242 $-1 #
edge $-1 $547 -64.348887600329604 $396 64.348887600329604 $391 $548 forward 7 unknown #
coedge $-1 $386 $247 $546 $549 forward $395 $-1 #
coedge $-1 $247 $386 $542 $550 reversed $395 $-1 #
loop $-1 $-1 $393 $526 #
vertex $-1 $248 $551 #
vertex $-1 $248 $552 #
straight-curve $-1 64.348887600329604 0 11.168232016055772 0 1 0 I I #
face $-1 $-1 $411 $58 $-1 $553 forward single #
loop $-1 $-1 $554 $249 #
plane-surface $-1 -64.348887600329604 0 0 1 0 0 0 0 -1 forward_v I I I I #
coedge $-1 $555 $556 $557 $558 reversed $250 $-1 #
coedge $-1 $559 $252 $254 $409 forward $157 $-1 #
coedge $-1 $252 $559 $555 $560 forward $157 $-1 #
coedge $-1 $557 $255 $252 $406 forward $411 $-1 #
edge $-1 $413 -21.226238721984107 $561 -7.4026122099799245 $405 $562 forward 7 unknown #
coedge $-1 $563 $564 $253 $408 forward $400 $-1 #
edge $-1 $565 -47.038364121998562 $412 -35.916997171985415 $407 $566 forward 7 unknown #
edge $-1 $413 -16.307028680786761 $565 0 $254 $567 forward 7 unknown #
coedge $-1 $255 $557 $563 $568 forward $411 $-1 #
loop $-1 $-1 $557 $399 #
vertex $-1 $408 $569 #
vertex $-1 $256 $570 #
straight-curve $-1 -76.060280137204259 -35.540664187966122 11.168232016055768 1 0 0 I I #
coedge $-1 $415 $415 $-1 $571 reversed $259 $-1 #
edge $-1 $572 0 $572 6.2831853071796004 $260 $573 forward 7 unknown #
vertex $-1 $263 $574 #
ellipse-curve $-1 -58.385784767928563 -32.775938885565282 5.6075485410492014 -0.68199836817093118 0 0.7313536940579346 0.7313536940579346 0 0.68199836817093118 1 I I #
coedge $-1 $419 $419 $-1 $575 reversed $266 $-1 #
edge $-1 $576 0 $576 6.2831853071796004 $267 $577 forward 7 unknown #
vertex $-1 $270 $578 #
ellipse-curve $-1 -58.385784767928563 -28.628850931964031 5.6075485410492014 -0.68199836817093118 0 0.7313536940579346 0.7313536940579346 0 0.68199836817093118 1 I I #
coedge $-1 $423 $423 $-1 $579 reversed $273 $-1 #
edge $-1 $580 0 $580 6.2831853071796004 $274 $581 forward 7 unknown #
vertex $-1 $277 $582 #
ellipse-curve $-1 -58.385784767928563 -24.481762978362774 5.6075485410492014 -0.68199836817093118 0 0.7313536940579346 0.7313536940579346 0 0.68199836817093118 1 I I #
face $-1 $-1 $583 $62 $-1 $584 reversed single #
loop $-1 $-1 $284 $278 #
plane-surface $-1 0 0 11.168232016055772 0 0 1 1 0 0 forward_v I I I I #
coedge $-1 $585 $586 $587 $588 reversed $279 $-1 #
coedge $-1 $589 $281 $283 $437 forward $176 $-1 #
coedge $-1 $281 $589 $585 $590 forward $176 $-1 #
coedge $-1 $587 $284 $281 $434 forward $428 $-1 #
edge $-1 $440 -10.367719884003135 $591 3.4559066280010438 $433 $592 forward 7 unknown #
coedge $-1 $593 $594 $282 $436 forward $583 $-1 #
edge $-1 $595 -47.038364121998562 $439 -35.916997171985415 $435 $596 forward 7 unknown #
edge $-1 $440 -16.307028680786761 $595 0 $283 $597 forward 7 unknown #
coedge $-1 $284 $587 $593 $598 forward $428 $-1 #
vertex $-1 $285 $599 #
vertex $-1 $285 $600 #
straight-curve $-1 -76.060280137204259 -13.82362651200418 11.168232016055768 1 0 0 I I #
coedge $-1 $442 $442 $-1 $601 reversed $288 $-1 #
edge $-1 $602 0 $602 6.2831853071796004 $289 $603 forward 7 unknown #
vertex $-1 $292 $604 #
ellipse-curve $-1 -58.385784767928563 -11.058901209603341 5.6075485410492014 -0.68199836817093118 0 0.7313536940579346 0.7313536940579346 0 0.68199836817093118 1 I I #
coedge $-1 $446 $446 $-1 $605 reversed $295 $-1 #
edge $-1 $606 0 $606 6.2831853071796004 $296 $607 forward 7 unknown #
vertex $-1 $299 $608 #
ellipse-curve $-1 -58.385784767928563 -6.9118132560020911 5.6075485410492014 -0.68199836817093118 0 0.7313536940579346 0.7313536940579346 0 0.68199836817093118 1 I I #
coedge $-1 $450 $450 $-1 $609 reversed $302 $-1 #
edge $-1 $610 0 $610 6.2831853071796004 $303 $611 forward 7 unknown #
vertex $-1 $306 $612 #
ellipse-curve $-1 -58.385784767928563 -2.7647253024008336 5.6075485410492014 -0.68199836817093118 0 0.7313536940579346 0.7313536940579346 0 0.68199836817093118 1 I I #
face $-1 $-1 $613 $66 $-1 $614 reversed single #
loop $-1 $-1 $313 $307 #
plane-surface $-1 0 0 11.168232016055772 0 0 1 1 0 0 forward_v I I I I #
coedge $-1 $615 $616 $617 $618 reversed $308 $-1 #
coedge $-1 $619 $310 $312 $464 forward $195 $-1 #
coedge $-1 $310 $619 $615 $620 forward $195 $-1 #
coedge $-1 $617 $313 $310 $461 forward $455 $-1 #
edge $-1 $467 0.49079895397783524 $621 14.314425465982016 $460 $622 forward 7 unknown #
coedge $-1 $623 $624 $311 $463 forward $613 $-1 #
edge $-1 $625 -47.038364121998562 $466 -35.916997171985415 $462 $626 forward 7 unknown #
edge $-1 $467 -16.307028680786761 $625 0 $312 $627 forward 7 unknown #
coedge $-1 $313 $617 $623 $628 forward $455 $-1 #
vertex $-1 $314 $629 #
vertex $-1 $314 $630 #
straight-curve $-1 -76.060280137204259 7.8934111639577598 11.168232016055768 1 0 0 I I #
coedge $-1 $469 $469 $-1 $631 reversed $317 $-1 #
edge $-1 $632 0 $632 6.2831853071796004 $318 $633 forward 7 unknown #
vertex $-1 $321 $634 #
ellipse-curve $-1 -58.385784767928563 10.658136466358599 5.6075485410492014 -0.68199836817093118 0 0.7313536940579346 0.7313536940579346 0 0.68199836817093118 1 I I #
coedge $-1 $473 $473 $-1 $635 reversed $324 $-1 #
edge $-1 $636 0 $636 6.2831853071796004 $325 $637 forward 7 unknown #
vertex $-1 $328 $638 #
ellipse-curve $-1 -58.385784767928563 14.805224419959849 5.6075485410492014 -0.68199836817093118 0 0.7313536940579346 0.7313536940579346 0 0.68199836817093118 1 I I #
coedge $-1 $477 $477 $-1 $639 reversed $331 $-1 #
edge $-1 $640 0 $640 6.2831853071796004 $332 $641 forward 7 unknown #
vertex $-1 $335 $642 #
ellipse-curve $-1 -58.385784767928563 18.952312373561107 5.6075485410492014 -0.68199836817093118 0 0.7313536940579346 0.7313536940579346 0 0.68199836817093118 1 I I #
face $-1 $-1 $643 $70 $-1 $644 reversed single #
loop $-1 $-1 $645 $336 #
plane-surface $-1 0 43.43407535192388 0 0 -1 0 0 0 -1 forward_v I I I I #
coedge $-1 $646 $339 $341 $490 forward $214 $-1 #
coedge $-1 $339 $646 $645 $647 reversed $214 $-1 #
coedge $-1 $648 $342 $339 $487 forward $337 $-1 #
edge $-1 $493 11.349317791958804 $649 25.172944303962986 $486 $650 forward 7 unknown #
coedge $-1 $651 $652 $340 $489 forward $643 $-1 #
edge $-1 $653 -47.038364121998562 $492 -35.916997171985415 $488 $654 forward 7 unknown #
edge $-1 $493 -16.307028680786761 $653 0 $341 $655 forward 7 unknown #
coedge $-1 $342 $648 $651 $656 forward $337 $-1 #
vertex $-1 $489 $657 #
vertex $-1 $343 $658 #
straight-curve $-1 -76.060280137204259 29.610448839919698 11.168232016055768 1 0 0 I I #
coedge $-1 $495 $495 $-1 $659 reversed $346 $-1 #
edge $-1 $660 0 $660 6.2831853071796004 $347 $661 forward 7 unknown #
vertex $-1 $350 $662 #
ellipse-curve $-1 -58.385784767928563 32.375174142320546 5.6075485410492014 -0.68199836817093118 0 0.7313536940579346 0.7313536940579346 0 0.68199836817093118 1 I I #
coedge $-1 $499 $499 $-1 $663 reversed $353 $-1 #
edge $-1 $664 0 $664 6.2831853071796004 $354 $665 forward 7 unknown #
vertex $-1 $357 $666 #
ellipse-curve $-1 -58.385784767928563 36.522262095921789 5.6075485410492014 -0.68199836817093118 0 0.7313536940579346 0.7313536940579346 0 0.68199836817093118 1 I I #
coedge $-1 $503 $503 $-1 $667 reversed $360 $-1 #
edge $-1 $668 0 $668 6.2831853071796004 $361 $669 forward 7 unknown #
vertex $-1 $364 $670 #
ellipse-curve $-1 -58.385784767928563 40.669350049523047 5.6075485410492014 -0.68199836817093118 0 0.7313536940579346 0.7313536940579346 0 0.68199836817093118 1 I I #
face $-1 $-1 $671 $74 $-1 $672 reversed single #
loop $-1 $-1 $371 $365 #
plane-surface $-1 0 0 11.168232016055772 0 0 1 1 0 0 forward_v I I I I #
coedge $-1 $673 $674 $675 $676 reversed $366 $-1 #
coedge $-1 $677 $368 $370 $517 forward $233 $-1 #
coedge $-1 $368 $677 $673 $678 forward $233 $-1 #
coedge $-1 $675 $371 $368 $514 forward $508 $-1 #
edge $-1 $520 -5.8233167559870616 $679 18.014987767281117 $513 $680 forward 7 unknown #
coedge $-1 $681 $682 $369 $516 forward $671 $-1 #
edge $-1 $683 -87.513790328826474 $519 -83.074683806145401 $515 $684 forward 7 unknown #
edge $-1 $520 122.06363467994932 $683 128.69777520065921 $370 $685 forward 7 unknown #
coedge $-1 $371 $675 $681 $686 forward $508 $-1 #
vertex $-1 $516 $687 #
vertex $-1 $372 $688 #
straight-curve $-1 27.411712117406026 -0.27251874965996592 11.168232016055768 -1 0 0 I I #
coedge $-1 $522 $522 $-1 $689 reversed $375 $-1 #
edge $-1 $690 0 $690 6.2831853071796004 $376 $691 forward 7 unknown #
vertex $-1 $379 $692 #
ellipse-curve $-1 61.883824024637505 -12.191671011294055 8.948678754715246 0.66913061440640931 0 0.74314481823134659 1.1147172273470198 0 -1.003695921609614 1 I I #
face $-1 $-1 $395 $57 $-1 $693 reversed single #
loop $-1 $-1 $542 $380 #
plane-surface $-1 0 43.43407535192388 0 0 -1 0 0 0 -1 forward_v I I I I #
coedge $-1 $694 $540 $543 $695 forward $381 $-1 #
coedge $-1 $546 $383 $384 $534 reversed $242 $-1 #
coedge $-1 $540 $694 $383 $532 reversed $381 $-1 #
edge $-1 $547 -11.168232016055772 $696 11.168232016055772 $531 $697 forward 7 unknown #
coedge $-1 $385 $384 $694 $698 forward $153 $-1 #
edge $-1 $538 -64.348887600329604 $696 64.348887600329604 $530 $699 forward 7 unknown #
coedge $-1 $543 $542 $385 $536 reversed $527 $-1 #
edge $-1 $700 -64.348887600329604 $537 64.348887600329604 $535 $701 forward 7 unknown #
vertex $-1 $387 $702 #
vertex $-1 $549 $703 #
straight-curve $-1 64.348887600329604 0 -11.168232016055772 0 -1 0 I I #
coedge $-1 $529 $531 $388 $541 reversed $381 $-1 #
edge $-1 $544 -43.43407535192388 $547 43.43407535192388 $540 $704 forward 7 unknown #
coedge $-1 $535 $389 $394 $550 forward $527 $-1 #
coedge $-1 $389 $535 $529 $695 reversed $527 $-1 #
vertex $-1 $390 $705 #
straight-curve $-1 0 43.43407535192388 11.168232016055772 -1 0 0 I I #
coedge $-1 $391 $530 $393 $549 reversed $242 $-1 #
vertex $-1 $541 $706 #
straight-curve $-1 0 -43.43407535192388 11.168232016055772 1 0 0 I I #
edge $-1 $396 -11.168232016055772 $538 11.168232016055772 $393 $707 forward 7 unknown #
edge $-1 $397 -11.168232016055772 $537 11.168232016055772 $394 $708 forward 7 unknown #
point $-1 64.348887600329604 -43.43407535192388 11.168232016055772 #
point $-1 64.348887600329604 43.43407535192388 11.168232016055772 #
plane-surface $-1 0 0 11.168232016055772 0 0 1 1 0 0 forward_v I I I I #
coedge $-1 $564 $563 $556 $709 forward $400 $-1 #
coedge $-1 $556 $402 $404 $560 reversed $250 $-1 #
coedge $-1 $402 $555 $554 $709 reversed $250 $-1 #
coedge $-1 $410 $405 $402 $558 forward $411 $-1 #
edge $-1 $561 -23.637598201676738 $710 -11.711392536874655 $557 $711 forward 7 unknown #
coedge $-1 $404 $403 $564 $712 reversed $157 $-1 #
edge $-1 $713 0 $561 16.307028680786761 $555 $714 forward 7 unknown #
vertex $-1 $406 $715 #
straight-curve $-1 -52.422681935527514 -14.314425465982016 11.168232016055772 0 1 0 I I #
coedge $-1 $554 $407 $410 $568 reversed $400 $-1 #
coedge $-1 $407 $554 $559 $712 forward $400 $-1 #
vertex $-1 $408 $716 #
straight-curve $-1 -64.348887600329604 -35.540664187966122 47.08522918804119 0 0 1 I I #
straight-curve $-1 -64.348887600329604 -35.540664187966122 0.046865066042627745 -0.7313536940579346 0 -0.68199836817093118 I I #
edge $-1 $710 21.71703767596194 $412 35.540664187966122 $563 $717 forward 7 unknown #
point $-1 -64.348887600329604 -35.540664187966122 11.168232016055772 #
point $-1 -52.422681935527521 -35.540664187966122 11.168232016055772 #
edge $-1 $718 1 $718 0 $415 $-1 forward 7 unknown #
vertex $-1 $416 $719 #
ellipse-curve $-1 -57.436040588174301 -32.775938885565282 4.5890726227912646 -0.68199836817093118 0 0.7313536940579346 0.7313536940579346 0 0.68199836817093118 1 I I #
point $-1 -57.654431073870619 -32.775938885565282 6.2895469092201264 #
edge $-1 $720 1 $720 0 $419 $-1 forward 7 unknown #
vertex $-1 $420 $721 #
ellipse-curve $-1 -57.436040588174301 -28.628850931964031 4.5890726227912646 -0.68199836817093118 0 0.7313536940579346 0.7313536940579346 0 0.68199836817093118 1 I I #
point $-1 -57.654431073870619 -28.628850931964031 6.2895469092201264 #
edge $-1 $722 1 $722 0 $423 $-1 forward 7 unknown #
vertex $-1 $424 $723 #
ellipse-curve $-1 -57.436040588174301 -24.481762978362774 4.5890726227912646 -0.68199836817093118 0 0.7313536940579346 0.7313536940579346 0 0.68199836817093118 1 I I #
point $-1 -57.654431073870619 -24.481762978362774 6.2895469092201264 #
loop $-1 $-1 $435 $427 #
plane-surface $-1 -64.348887600329604 0 0 1 0 0 0 0 -1 forward_v I I I I #
coedge $-1 $586 $430 $432 $590 reversed $279 $-1 #
coedge $-1 $430 $585 $724 $725 reversed $279 $-1 #
coedge $-1 $438 $433 $430 $588 forward $428 $-1 #
edge $-1 $591 -23.637598201676738 $726 -11.711392536874655 $587 $727 forward 7 unknown #
coedge $-1 $432 $431 $594 $728 reversed $176 $-1 #
edge $-1 $729 0 $591 16.307028680786761 $585 $730 forward 7 unknown #
vertex $-1 $434 $731 #
straight-curve $-1 -52.422681935527514 -3.4559066280010455 11.168232016055772 0 1 0 I I #
coedge $-1 $724 $435 $438 $598 reversed $583 $-1 #
coedge $-1 $435 $724 $589 $728 forward $583 $-1 #
vertex $-1 $436 $732 #
straight-curve $-1 -64.348887600329604 -13.82362651200418 47.08522918804119 0 0 1 I I #
straight-curve $-1 -64.348887600329604 -13.82362651200418 0.046865066042627745 -0.7313536940579346 0 -0.68199836817093118 I I #
edge $-1 $726 1.7763568394002505e-015 $439 13.82362651200418 $593 $733 forward 7 unknown #
point $-1 -64.348887600329604 -13.82362651200418 11.168232016055772 #
point $-1 -52.422681935527521 -13.82362651200418 11.168232016055772 #
edge $-1 $734 1 $734 0 $442 $-1 forward 7 unknown #
vertex $-1 $443 $735 #
ellipse-curve $-1 -57.436040588174301 -11.058901209603341 4.5890726227912646 -0.68199836817093118 0 0.7313536940579346 0.7313536940579346 0 0.68199836817093118 1 I I #
point $-1 -57.654431073870619 -11.058901209603341 6.2895469092201264 #
edge $-1 $736 1 $736 0 $446 $-1 forward 7 unknown #
vertex $-1 $447 $737 #
ellipse-curve $-1 -57.436040588174301 -6.9118132560020911 4.5890726227912646 -0.68199836817093118 0 0.7313536940579346 0.7313536940579346 0 0.68199836817093118 1 I I #
point $-1 -57.654431073870619 -6.9118132560020911 6.2895469092201264 #
edge $-1 $738 1 $738 0 $450 $-1 forward 7 unknown #
vertex $-1 $451 $739 #
ellipse-curve $-1 -57.436040588174301 -2.7647253024008336 4.5890726227912646 -0.68199836817093118 0 0.7313536940579346 0.7313536940579346 0 0.68199836817093118 1 I I #
point $-1 -57.654431073870619 -2.7647253024008336 6.2895469092201264 #
loop $-1 $-1 $462 $454 #
plane-surface $-1 -64.348887600329604 0 0 1 0 0 0 0 -1 forward_v I I I I #
coedge $-1 $616 $457 $459 $620 reversed $308 $-1 #
coedge $-1 $457 $615 $740 $741 reversed $308 $-1 #
coedge $-1 $465 $460 $457 $618 forward $455 $-1 #
edge $-1 $621 -23.637598201676738 $742 -11.711392536874655 $617 $743 forward 7 unknown #
coedge $-1 $459 $458 $624 $744 reversed $195 $-1 #
edge $-1 $745 0 $621 16.307028680786761 $615 $746 forward 7 unknown #
vertex $-1 $461 $747 #
straight-curve $-1 -52.422681935527514 7.4026122099799245 11.168232016055772 0 1 0 I I #
coedge $-1 $740 $462 $465 $628 reversed $613 $-1 #
coedge $-1 $462 $740 $619 $744 forward $613 $-1 #
vertex $-1 $463 $748 #
straight-curve $-1 -64.348887600329604 7.8934111639577598 47.08522918804119 0 0 1 I I #
straight-curve $-1 -64.348887600329604 7.8934111639577598 0.046865066042627745 -0.7313536940579346 0 -0.68199836817093118 I I #
edge $-1 $742 -21.71703767596194 $466 -7.8934111639577598 $623 $749 forward 7 unknown #
point $-1 -64.348887600329604 7.8934111639577598 11.168232016055772 #
point $-1 -52.422681935527521 7.8934111639577598 11.168232016055772 #
edge $-1 $750 1 $750 0 $469 $-1 forward 7 unknown #
vertex $-1 $470 $751 #
ellipse-curve $-1 -57.436040588174301 10.658136466358599 4.5890726227912646 -0.68199836817093118 0 0.7313536940579346 0.7313536940579346 0 0.68199836817093118 1 I I #
point $-1 -57.654431073870619 10.658136466358599 6.2895469092201264 #
edge $-1 $752 1 $752 0 $473 $-1 forward 7 unknown #
vertex $-1 $474 $753 #
ellipse-curve $-1 -57.436040588174301 14.805224419959849 4.5890726227912646 -0.68199836817093118 0 0.7313536940579346 0.7313536940579346 0 0.68199836817093118 1 I I #
point $-1 -57.654431073870619 14.805224419959849 6.2895469092201264 #
edge $-1 $754 1 $754 0 $477 $-1 forward 7 unknown #
vertex $-1 $478 $755 #
ellipse-curve $-1 -57.436040588174301 18.952312373561107 4.5890726227912646 -0.68199836817093118 0 0.7313536940579346 0.7313536940579346 0 0.68199836817093118 1 I I #
point $-1 -57.654431073870619 18.952312373561107 6.2895469092201264 #
loop $-1 $-1 $488 $481 #
plane-surface $-1 -64.348887600329604 0 0 1 0 0 0 0 -1 forward_v I I I I #
coedge $-1 $756 $757 $485 $647 forward $482 $-1 #
coedge $-1 $485 $484 $652 $758 reversed $214 $-1 #
edge $-1 $649 7.2078886974405343 $759 23.514917378227295 $645 $760 forward 7 unknown #
coedge $-1 $491 $486 $757 $761 forward $337 $-1 #
vertex $-1 $761 $762 #
straight-curve $-1 -52.422681935527514 18.261131047960895 11.168232016055772 0 1 0 I I #
coedge $-1 $763 $488 $491 $656 reversed $643 $-1 #
coedge $-1 $488 $763 $646 $758 forward $643 $-1 #
vertex $-1 $489 $764 #
straight-curve $-1 -64.348887600329604 29.610448839919698 47.08522918804119 0 0 1 I I #
straight-curve $-1 -64.348887600329604 29.610448839919698 0.046865066042627745 -0.7313536940579346 0 -0.68199836817093118 I I #
edge $-1 $765 -43.43407535192388 $492 -29.610448839919698 $651 $766 forward 7 unknown #
point $-1 -64.348887600329604 29.610448839919698 11.168232016055772 #
point $-1 -52.422681935527521 29.610448839919698 11.168232016055772 #
edge $-1 $767 1 $767 0 $495 $-1 forward 7 unknown #
vertex $-1 $496 $768 #
ellipse-curve $-1 -57.436040588174301 32.375174142320546 4.5890726227912646 -0.68199836817093118 0 0.7313536940579346 0.7313536940579346 0 0.68199836817093118 1 I I #
point $-1 -57.654431073870619 32.375174142320546 6.2895469092201264 #
edge $-1 $769 1 $769 0 $499 $-1 forward 7 unknown #
vertex $-1 $500 $770 #
ellipse-curve $-1 -57.436040588174301 36.522262095921789 4.5890726227912646 -0.68199836817093118 0 0.7313536940579346 0.7313536940579346 0 0.68199836817093118 1 I I #
point $-1 -57.654431073870619 36.522262095921789 6.2895469092201264 #
edge $-1 $771 1 $771 0 $503 $-1 forward 7 unknown #
vertex $-1 $504 $772 #
ellipse-curve $-1 -57.436040588174301 40.669350049523047 4.5890726227912646 -0.68199836817093118 0 0.7313536940579346 0.7313536940579346 0 0.68199836817093118 1 I I #
point $-1 -57.654431073870619 40.669350049523047 6.2895469092201264 #
loop $-1 $-1 $515 $507 #
plane-surface $-1 64.348887600329604 0 0 -1 0 0 0 0 1 forward_v I I I I #
coedge $-1 $674 $510 $512 $678 reversed $366 $-1 #
coedge $-1 $510 $673 $773 $774 reversed $366 $-1 #
coedge $-1 $518 $513 $510 $676 forward $508 $-1 #
edge $-1 $679 32.007048331539409 $775 36.937175482923578 $675 $776 forward 7 unknown #
coedge $-1 $512 $511 $682 $777 reversed $233 $-1 #
edge $-1 $778 -128.69777520065921 $679 -122.06363467994932 $673 $779 forward 7 unknown #
vertex $-1 $514 $780 #
straight-curve $-1 59.418760448945442 -6.0958355056470275 11.168232016055754 0 -1 0 I I #
coedge $-1 $773 $515 $518 $686 reversed $671 $-1 #
coedge $-1 $515 $773 $677 $777 forward $671 $-1 #
vertex $-1 $516 $781 #
straight-curve $-1 64.348887600329604 -0.27251874965996592 94.242915822201169 0 0 1 I I #
straight-curve $-1 -31.292197157942994 -0.27251874965996592 92.844746886129741 0.74314481823134659 0 -0.66913061440640931 I I #
edge $-1 $775 -24.110823272928144 $519 -0.27251874965996592 $681 $782 forward 7 unknown #
point $-1 64.348887600329604 -0.27251874965996592 11.168232016055772 #
point $-1 59.418760448945434 -0.27251874965996592 11.168232016055768 #
edge $-1 $783 1 $783 0 $522 $-1 forward 7 unknown #
vertex $-1 $523 $784 #
ellipse-curve $-1 58.365175560902117 -12.191671011294055 5.0408238207091136 0.66913061440640931 0 0.74314481823134659 1.1147172273470198 0 -1.003695921609614 1 I I #
point $-1 62.998541251984534 -12.191671011294055 7.9449828331056498 #
plane-surface $-1 64.348887600329604 0 0 -1 0 0 0 0 1 forward_v I I I I #
coedge $-1 $531 $529 $533 $698 reversed $381 $-1 #
edge $-1 $544 -11.168232016055772 $700 11.168232016055772 $543 $785 forward 7 unknown #
vertex $-1 $698 $786 #
straight-curve $-1 -64.348887600329604 -43.43407535192388 0 0 0 -1 I I #
edge $-1 $696 -43.43407535192388 $700 43.43407535192388 $694 $787 forward 7 unknown #
straight-curve $-1 0 -43.43407535192388 -11.168232016055772 -1 0 0 I I #
vertex $-1 $536 $788 #
straight-curve $-1 0 43.43407535192388 -11.168232016055772 1 0 0 I I #
point $-1 64.348887600329604 43.43407535192388 -11.168232016055772 #
point $-1 64.348887600329604 -43.43407535192388 -11.168232016055772 #
straight-curve $-1 -64.348887600329604 0 11.168232016055772 0 -1 0 I I #
point $-1 -64.348887600329604 43.43407535192388 11.168232016055772 #
point $-1 -64.348887600329604 -43.43407535192388 11.168232016055772 #
straight-curve $-1 64.348887600329604 -43.43407535192388 0 0 0 -1 I I #
straight-curve $-1 64.348887600329604 43.43407535192388 0 0 0 -1 I I #
edge $-1 $710 35.916997171985415 $713 47.038364121998562 $554 $789 forward 7 unknown #
vertex $-1 $568 $790 #
straight-curve $-1 -76.060280137204259 -21.71703767596194 11.168232016055768 -1 0 0 I I #
edge $-1 $713 7.4026122099799245 $565 21.226238721984107 $564 $791 forward 7 unknown #
vertex $-1 $712 $792 #
straight-curve $-1 -64.348887600329604 -21.71703767596194 0.046865066042627745 0.7313536940579346 0 0.68199836817093118 I I #
point $-1 -52.422681935527521 -21.71703767596194 11.168232016055772 #
point $-1 -64.348887600329604 -35.540664187966122 0.046865066042627745 #
straight-curve $-1 -64.348887600329604 0 11.168232016055772 0 -1 0 I I #
vertex $-1 $571 $793 #
point $-1 -56.704686894116364 -32.775938885565282 5.2710709909621958 #
vertex $-1 $575 $794 #
point $-1 -56.704686894116364 -28.628850931964031 5.2710709909621958 #
vertex $-1 $579 $795 #
point $-1 -56.704686894116364 -24.481762978362774 5.2710709909621958 #
coedge $-1 $594 $593 $586 $725 forward $583 $-1 #
edge $-1 $726 35.916997171985415 $729 47.038364121998562 $724 $796 forward 7 unknown #
vertex $-1 $598 $797 #
straight-curve $-1 -76.060280137204259 -1.7763568394002505e-015 11.168232016055768 -1 0 0 I I #
edge $-1 $729 -3.4559066280010438 $595 10.367719884003135 $594 $798 forward 7 unknown #
vertex $-1 $728 $799 #
straight-curve $-1 -64.348887600329604 -1.7763568394002505e-015 0.046865066042627745 0.7313536940579346 0 0.68199836817093118 I I #
point $-1 -52.422681935527521 -1.7763568394002505e-015 11.168232016055772 #
point $-1 -64.348887600329604 -13.82362651200418 0.046865066042627745 #
straight-curve $-1 -64.348887600329604 0 11.168232016055772 0 -1 0 I I #
vertex $-1 $601 $800 #
point $-1 -56.704686894116364 -11.058901209603341 5.2710709909621958 #
vertex $-1 $605 $801 #
point $-1 -56.704686894116364 -6.9118132560020911 5.2710709909621958 #
vertex $-1 $609 $802 #
point $-1 -56.704686894116364 -2.7647253024008336 5.2710709909621958 #
coedge $-1 $624 $623 $616 $741 forward $613 $-1 #
edge $-1 $742 35.916997171985415 $745 47.038364121998562 $740 $803 forward 7 unknown #
vertex $-1 $628 $804 #
straight-curve $-1 -76.060280137204259 21.71703767596194 11.168232016055768 -1 0 0 I I #
edge $-1 $745 -14.314425465982016 $625 -0.49079895397783524 $624 $805 forward 7 unknown #
vertex $-1 $744 $806 #
straight-curve $-1 -64.348887600329604 21.71703767596194 0.046865066042627745 0.7313536940579346 0 0.68199836817093118 I I #
point $-1 -52.422681935527521 21.71703767596194 11.168232016055772 #
point $-1 -64.348887600329604 7.8934111639577598 0.046865066042627745 #
straight-curve $-1 -64.348887600329604 0 11.168232016055772 0 -1 0 I I #
vertex $-1 $631 $807 #
point $-1 -56.704686894116364 10.658136466358599 5.2710709909621958 #
vertex $-1 $635 $808 #
point $-1 -56.704686894116364 14.805224419959849 5.2710709909621958 #
vertex $-1 $639 $809 #
point $-1 -56.704686894116364 18.952312373561107 5.2710709909621958 #
coedge $-1 $757 $645 $763 $810 reversed $482 $-1 #
coedge $-1 $645 $756 $648 $761 reversed $482 $-1 #
edge $-1 $759 -25.172944303962986 $653 -11.349317791958804 $652 $811 forward 7 unknown #
vertex $-1 $647 $812 #
straight-curve $-1 -47.151165910295951 43.43407535192388 16.084000345667913 -0.7313536940579346 0 -0.68199836817093118 I I #
edge $-1 $649 52.422681935527521 $765 64.348887600329604 $757 $813 forward 7 unknown #
point $-1 -52.422681935527521 43.43407535192388 11.168232016055772 #
coedge $-1 $652 $651 $756 $810 forward $643 $-1 #
point $-1 -64.348887600329604 29.610448839919698 0.046865066042627745 #
vertex $-1 $761 $814 #
straight-curve $-1 -64.348887600329604 0 11.168232016055772 0 -1 0 I I #
vertex $-1 $659 $815 #
point $-1 -56.704686894116364 32.375174142320546 5.2710709909621958 #
vertex $-1 $663 $816 #
point $-1 -56.704686894116364 36.522262095921789 5.2710709909621958 #
vertex $-1 $667 $817 #
point $-1 -56.704686894116364 40.669350049523047 5.2710709909621958 #
coedge $-1 $682 $681 $674 $774 forward $671 $-1 #
edge $-1 $775 83.074683806145401 $778 87.513790328826474 $773 $818 forward 7 unknown #
vertex $-1 $686 $819 #
straight-curve $-1 27.411712117406026 -24.110823272928144 11.168232016055768 1 0 0 I I #
edge $-1 $778 -18.014987767281117 $683 5.8233167559870616 $682 $820 forward 7 unknown #
vertex $-1 $777 $821 #
straight-curve $-1 -31.292197157942994 -24.110823272928144 92.844746886129741 -0.74314481823134659 0 0.66913061440640931 I I #
point $-1 59.418760448945434 -24.110823272928144 11.168232016055768 #
point $-1 64.348887600329604 -0.27251874965996592 6.7291254933746956 #
straight-curve $-1 64.348887600329604 0 11.168232016055772 0 1 0 I I #
vertex $-1 $689 $822 #
point $-1 59.479892788249131 -12.191671011294055 4.0371278990994997 #
straight-curve $-1 -64.348887600329604 43.43407535192388 0 0 0 -1 I I #
point $-1 -64.348887600329604 -43.43407535192388 -11.168232016055772 #
straight-curve $-1 -64.348887600329604 0 -11.168232016055772 0 1 0 I I #
point $-1 -64.348887600329604 43.43407535192388 -11.168232016055772 #
straight-curve $-1 -64.348887600329604 -21.71703767596194 47.08522918804119 0 0 -1 I I #
point $-1 -64.348887600329604 -21.71703767596194 11.168232016055772 #
straight-curve $-1 -64.348887600329604 -14.314425465982016 0.046865066042632617 0 -1 0 I I #
point $-1 -64.348887600329604 -21.71703767596194 0.046865066042627745 #
point $-1 -56.754042220003363 -32.775938885565282 3.8577189287333296 #
point $-1 -56.754042220003363 -28.628850931964031 3.8577189287333296 #
point $-1 -56.754042220003363 -24.481762978362774 3.8577189287333296 #
straight-curve $-1 -64.348887600329604 -1.7763568394002505e-015 47.08522918804119 0 0 -1 I I #
point $-1 -64.348887600329604 -1.7763568394002505e-015 11.168232016055772 #
straight-curve $-1 -64.348887600329604 -3.4559066280010455 0.046865066042632617 0 -1 0 I I #
point $-1 -64.348887600329604 -1.7763568394002505e-015 0.046865066042627745 #
point $-1 -56.754042220003363 -11.058901209603341 3.8577189287333296 #
point $-1 -56.754042220003363 -6.9118132560020911 3.8577189287333296 #
point $-1 -56.754042220003363 -2.7647253024008336 3.8577189287333296 #
straight-curve $-1 -64.348887600329604 21.71703767596194 47.08522918804119 0 0 -1 I I #
point $-1 -64.348887600329604 21.71703767596194 11.168232016055772 #
straight-curve $-1 -64.348887600329604 7.4026122099799245 0.046865066042632617 0 -1 0 I I #
point $-1 -64.348887600329604 21.71703767596194 0.046865066042627745 #
point $-1 -56.754042220003363 10.658136466358599 3.8577189287333296 #
point $-1 -56.754042220003363 14.805224419959849 3.8577189287333296 #
point $-1 -56.754042220003363 18.952312373561107 3.8577189287333296 #
edge $-1 $765 -11.168232016055772 $759 -0.046865066042627745 $756 $823 forward 7 unknown #
straight-curve $-1 -64.348887600329604 18.261131047960895 0.046865066042632617 0 -1 0 I I #
point $-1 -64.348887600329604 43.43407535192388 0.046865066042627745 #
straight-curve $-1 0 43.43407535192388 11.168232016055772 -1 0 0 I I #
point $-1 -64.348887600329604 43.43407535192388 11.168232016055772 #
point $-1 -56.754042220003363 32.375174142320546 3.8577189287333296 #
point $-1 -56.754042220003363 36.522262095921789 3.8577189287333296 #
point $-1 -56.754042220003363 40.669350049523047 3.8577189287333296 #
straight-curve $-1 64.348887600329604 -24.110823272928144 94.242915822201169 0 0 -1 I I #
point $-1 64.348887600329604 -24.110823272928144 11.168232016055772 #
straight-curve $-1 64.348887600329604 -6.0958355056470275 6.7291254933746956 0 1 0 I I #
point $-1 64.348887600329604 -24.110823272928144 6.7291254933746956 #
point $-1 57.361479639292497 -12.191671011294055 3.9261065933620936 #
straight-curve $-1 -64.348887600329604 43.43407535192388 0 0 0 -1 I I #
End-of-ACIS-data 