500 0 8 0           
7 Unknown 11 ACIS 5.0 NT 24 Fri Mar 26 20:44:59 1999 
-1 9.9999999999999995e-007 1e-010 
body $-1 $8 $-1 $9 #
body $-1 $10 $-1 $11 #
body $-1 $12 $-1 $13 #
body $-1 $14 $-1 $15 #
body $-1 $16 $-1 $17 #
body $-1 $18 $-1 $19 #
body $-1 $20 $-1 $21 #
body $-1 $22 $-1 $23 #
lump $-1 $-1 $24 $0 #
transform $-1 1 0 0 0 1 0 0 0 1 48.961455122531817 21.955029523800913 10.437600738942031 1 rotate no_reflect no_shear #
lump $-1 $-1 $25 $1 #
transform $-1 1 0 0 0 1 0 0 0 1 48.961455122531817 21.955029523800913 10.437600738942031 1 rotate no_reflect no_shear #
lump $-1 $-1 $26 $2 #
transform $-1 1 0 0 0 1 0 0 0 1 48.961455122531817 21.955029523800913 10.437600738942031 1 rotate no_reflect no_shear #
lump $-1 $-1 $27 $3 #
transform $-1 1 0 0 0 1 0 0 0 1 48.961455122531817 21.955029523800913 10.437600738942031 1 rotate no_reflect no_shear #
lump $-1 $-1 $28 $4 #
transform $-1 1 0 0 0 1 0 0 0 1 48.961455122531817 21.955029523800913 10.437600738942031 1 rotate no_reflect no_shear #
lump $-1 $-1 $29 $5 #
transform $-1 1 0 0 0 1 0 0 0 1 48.961455122531817 21.955029523800913 10.437600738942031 1 rotate no_reflect no_shear #
lump $-1 $-1 $30 $6 #
transform $-1 1 0 0 0 1 0 0 0 1 48.961455122531817 21.955029523800913 10.437600738942031 1 rotate no_reflect no_shear #
lump $-1 $-1 $31 $7 #
transform $-1 1 0 0 0 1 0 0 0 1 48.961455122531817 21.955029523800913 10.437600738942031 1 rotate no_reflect no_shear #
shell $-1 $-1 $-1 $32 $-1 $8 #
shell $-1 $-1 $-1 $33 $-1 $10 #
shell $-1 $-1 $-1 $34 $-1 $12 #
shell $-1 $-1 $-1 $35 $-1 $14 #
shell $-1 $-1 $-1 $36 $-1 $16 #
shell $-1 $-1 $-1 $37 $-1 $18 #
shell $-1 $-1 $-1 $38 $-1 $20 #
shell $-1 $-1 $-1 $39 $-1 $22 #
face $-1 $40 $41 $24 $-1 $42 forward single #
face $-1 $43 $44 $25 $-1 $45 reversed single #
face $-1 $46 $47 $26 $-1 $48 reversed single #
face $-1 $49 $50 $27 $-1 $51 forward single #
face $-1 $52 $53 $28 $-1 $54 forward single #
face $-1 $55 $56 $29 $-1 $57 reversed single #
face $-1 $58 $59 $30 $-1 $60 forward single #
face $-1 $61 $62 $31 $-1 $63 forward single #
face $-1 $64 $65 $24 $-1 $66 reversed single #
loop $-1 $-1 $67 $32 #
plane-surface $-1 0 0 10.437600738942031 0 0 1 1 0 0 forward_v I I I I #
face $-1 $68 $69 $25 $-1 $70 reversed single #
loop $-1 $-1 $71 $33 #
plane-surface $-1 -45.335297501148119 0 4.2778650130831632 0 0 1 1 0 0 forward_v I I I I #
face $-1 $72 $73 $26 $-1 $74 reversed single #
loop $-1 $-1 $75 $34 #
plane-surface $-1 13.090575990196694 45.818376614523075 105.60829552058703 1 0 0 0 -0.6018150307709319 -0.79863550430605224 forward_v I I I I #
face $-1 $76 $77 $27 $-1 $78 forward single #
loop $-1 $79 $80 $35 #
cone-surface $-1 18.374136709743325 14.950532155593505 4.7419809397303103 0 -0.6018150307709319 -0.79863550430605224 1.5 0 0 1 I I 0 1 1.5 forward I I I I #
face $-1 $81 $82 $28 $-1 $83 forward single #
loop $-1 $84 $85 $36 #
cone-surface $-1 26.299477789063275 14.950532155593505 4.7419809397303103 0 -0.6018150307709319 -0.79863550430605224 1.5 0 0 1 I I 0 1 1.5 forward I I I I #
face $-1 $86 $87 $29 $-1 $88 reversed single #
loop $-1 $-1 $89 $37 #
plane-surface $-1 35.826850802098164 -21.955029523800903 3.4238340264962162 0 -0.84804810408105047 0.52991925155115449 1 0 0 forward_v I I I I #
face $-1 $90 $91 $30 $-1 $92 forward single #
loop $-1 $93 $94 $38 #
cone-surface $-1 30.197734664769456 -18.087336786743329 5.8832183793858981 0 0.84804810408105047 -0.52991925155115449 2 0 0 1 I I 0 1 2 forward I I I I #
face $-1 $95 $96 $31 $-1 $97 forward single #
loop $-1 $98 $99 $39 #
cone-surface $-1 41.455966939426872 -18.087336786743329 5.8832183793858981 0 0.84804810408105047 -0.52991925155115449 2 0 0 1 I I 0 1 2 forward I I I I #
face $-1 $100 $101 $24 $-1 $102 reversed single #
loop $-1 $-1 $103 $40 #
plane-surface $-1 0 0 -10.437600738942031 0 0 1 1 0 0 forward_v I I I I #
coedge $-1 $104 $105 $106 $107 forward $41 $-1 #
face $-1 $108 $109 $25 $-1 $110 reversed single #
loop $-1 $-1 $111 $43 #
plane-surface $-1 -41.709139879764422 0 7.357732876012598 -1 0 0 0 0 1 forward_v I I I I #
coedge $-1 $112 $113 $114 $115 forward $44 $-1 #
face $-1 $116 $117 $26 $-1 $118 reversed single #
loop $-1 $-1 $119 $46 #
plane-surface $-1 22.336807249403293 -13.113102627789097 27.403582713904356 0 0.6018150307709319 0.79863550430605224 1 0 0 forward_v I I I I #
coedge $-1 $120 $121 $122 $123 reversed $47 $-1 #
face $-1 $-1 $124 $27 $-1 $125 forward single #
loop $-1 $126 $127 $49 #
cone-surface $-1 18.374136709743325 13.771430551755873 3.1772602932508605 0 -0.6018150307709319 -0.79863550430605224 0.75 0 0 1 I I -0.70710678118654768 0.70710678118654735 0.75 forward I I I I #
loop $-1 $-1 $128 $35 #
coedge $-1 $80 $80 $129 $130 reversed $50 $-1 #
face $-1 $-1 $131 $28 $-1 $132 forward single #
loop $-1 $133 $134 $52 #
cone-surface $-1 26.299477789063275 13.771430551755873 3.1772602932508605 0 -0.6018150307709319 -0.79863550430605224 0.75 0 0 1 I I -0.70710678118654768 0.70710678118654735 0.75 forward I I I I #
loop $-1 $-1 $135 $36 #
coedge $-1 $85 $85 $136 $137 reversed $53 $-1 #
face $-1 $138 $139 $29 $-1 $140 reversed single #
loop $-1 $-1 $141 $55 #
plane-surface $-1 22.692246481664512 -104.998367903226 55.315069333271218 1 0 0 0 0.84804810408105047 -0.52991925155115449 forward_v I I I I #
coedge $-1 $142 $143 $144 $145 reversed $56 $-1 #
face $-1 $-1 $146 $30 $-1 $147 forward single #
loop $-1 $148 $149 $58 #
cone-surface $-1 30.197734664769456 -15.562939802708859 4.3058001245015181 0 0.84804810408105047 -0.52991925155115449 1 0 0 1 I I -0.70710678118654746 0.70710678118654746 1 forward I I I I #
loop $-1 $-1 $150 $38 #
coedge $-1 $94 $94 $151 $152 reversed $59 $-1 #
face $-1 $-1 $153 $31 $-1 $154 forward single #
loop $-1 $155 $156 $61 #
cone-surface $-1 41.455966939426872 -15.562939802708859 4.3058001245015181 0 0.84804810408105047 -0.52991925155115449 1 0 0 1 I I -0.70710678118654746 0.70710678118654746 1 forward I I I I #
loop $-1 $-1 $157 $39 #
coedge $-1 $99 $99 $158 $159 reversed $62 $-1 #
face $-1 $160 $161 $24 $-1 $162 reversed single #
loop $-1 $-1 $163 $64 #
plane-surface $-1 0 -21.955029523800913 0 0 1 0 0 0 1 forward_v I I I I #
coedge $-1 $164 $165 $166 $167 forward $65 $-1 #
coedge $-1 $168 $67 $169 $170 forward $41 $-1 #
coedge $-1 $67 $168 $171 $172 forward $41 $-1 #
coedge $-1 $173 $174 $67 $107 reversed $175 $-1 #
edge $-1 $176 -21.955029523800913 $177 21.955029523800913 $106 $178 forward 7 unknown #
face $-1 $179 $180 $25 $-1 $181 reversed single #
loop $-1 $-1 $182 $68 #
plane-surface $-1 0 21.955029523800913 0 0 -1 0 0 0 -1 forward_v I I I I #
coedge $-1 $114 $183 $184 $185 reversed $69 $-1 #
coedge $-1 $186 $71 $187 $188 reversed $44 $-1 #
coedge $-1 $71 $186 $189 $190 reversed $44 $-1 #
coedge $-1 $191 $111 $71 $115 reversed $69 $-1 #
edge $-1 $192 -21.955029523800913 $193 21.955029523800913 $114 $194 forward 7 unknown #
face $-1 $195 $196 $26 $-1 $197 forward single #
loop $-1 $-1 $198 $72 #
plane-surface $-1 31.583038508609892 45.818376614523075 105.60829552058703 -1 0 0 0 0.6018150307709319 0.79863550430605224 forward_v I I I I #
coedge $-1 $199 $200 $201 $202 reversed $73 $-1 #
coedge $-1 $121 $75 $203 $204 reversed $47 $-1 #
coedge $-1 $75 $120 $199 $205 reversed $47 $-1 #
coedge $-1 $201 $206 $75 $123 forward $196 $-1 #
edge $-1 $207 0.95415878346062399 $208 13.50767285835655 $122 $209 forward 7 unknown #
loop $-1 $-1 $129 $76 #
plane-surface $-1 22.336807249403293 -13.113102627789097 27.403582713904356 0 0.6018150307709319 0.79863550430605224 1 0 0 forward_v I I I I #
loop $-1 $-1 $210 $49 #
coedge $-1 $127 $127 $128 $211 reversed $77 $-1 #
coedge $-1 $128 $128 $127 $211 forward $79 $-1 #
coedge $-1 $129 $129 $80 $130 forward $124 $-1 #
edge $-1 $212 -2.1963688748574075e-016 $212 6.2831853071796004 $129 $213 forward 7 unknown #
loop $-1 $-1 $136 $81 #
plane-surface $-1 22.336807249403293 -13.113102627789097 27.403582713904356 0 0.6018150307709319 0.79863550430605224 1 0 0 forward_v I I I I #
loop $-1 $-1 $214 $52 #
coedge $-1 $134 $134 $135 $215 reversed $82 $-1 #
coedge $-1 $135 $135 $134 $215 forward $84 $-1 #
coedge $-1 $136 $136 $85 $137 forward $131 $-1 #
edge $-1 $216 -2.1963688748574075e-016 $216 6.2831853071796004 $136 $217 forward 7 unknown #
face $-1 $218 $219 $29 $-1 $220 forward single #
loop $-1 $-1 $221 $86 #
plane-surface $-1 48.961455122531817 0 0 -1 0 0 0 0 1 forward_v I I I I #
coedge $-1 $222 $223 $224 $225 reversed $87 $-1 #
coedge $-1 $226 $89 $221 $227 reversed $56 $-1 #
coedge $-1 $89 $226 $222 $228 forward $56 $-1 #
coedge $-1 $224 $229 $89 $145 forward $219 $-1 #
edge $-1 $230 -31.048029721482735 $231 -4.7788210806154297 $144 $232 forward 7 unknown #
loop $-1 $-1 $151 $90 #
plane-surface $-1 35.826850802098164 -21.955029523800903 3.4238340264962162 0 -0.84804810408105047 0.52991925155115449 1 0 0 forward_v I I I I #
loop $-1 $-1 $233 $58 #
coedge $-1 $149 $149 $150 $234 reversed $91 $-1 #
coedge $-1 $150 $150 $149 $234 forward $93 $-1 #
coedge $-1 $151 $151 $94 $152 forward $146 $-1 #
edge $-1 $235 3.7700270109167406e-016 $235 6.2831853071796004 $151 $236 forward 7 unknown #
loop $-1 $-1 $158 $95 #
plane-surface $-1 35.826850802098164 -21.955029523800903 3.4238340264962162 0 -0.84804810408105047 0.52991925155115449 1 0 0 forward_v I I I I #
loop $-1 $-1 $237 $61 #
coedge $-1 $156 $156 $157 $238 reversed $96 $-1 #
coedge $-1 $157 $157 $156 $238 forward $98 $-1 #
coedge $-1 $158 $158 $99 $159 forward $153 $-1 #
edge $-1 $239 3.7700270109167406e-016 $239 6.2831853071796004 $158 $240 forward 7 unknown #
face $-1 $241 $242 $24 $-1 $243 reversed single #
loop $-1 $-1 $244 $100 #
plane-surface $-1 -48.961455122531817 0 0 1 0 0 0 0 -1 forward_v I I I I #
coedge $-1 $245 $171 $246 $247 forward $101 $-1 #
coedge $-1 $248 $103 $245 $249 forward $65 $-1 #
coedge $-1 $103 $248 $250 $251 forward $65 $-1 #
coedge $-1 $174 $173 $103 $167 reversed $175 $-1 #
edge $-1 $252 -21.955029523800913 $253 21.955029523800913 $166 $254 forward 7 unknown #
coedge $-1 $105 $104 $255 $256 forward $41 $-1 #
coedge $-1 $257 $258 $104 $170 reversed $242 $-1 #
edge $-1 $177 -48.961455122531817 $259 48.961455122531817 $169 $260 forward 7 unknown #
coedge $-1 $163 $261 $105 $172 reversed $101 $-1 #
edge $-1 $262 -48.961455122531817 $176 48.961455122531817 $171 $263 forward 7 unknown #
coedge $-1 $166 $106 $261 $264 forward $175 $-1 #
coedge $-1 $106 $166 $257 $265 reversed $175 $-1 #
loop $-1 $-1 $173 $241 #
vertex $-1 $107 $266 #
vertex $-1 $107 $267 #
straight-curve $-1 48.961455122531817 0 10.437600738942031 0 1 0 I I #
face $-1 $268 $269 $25 $-1 $270 forward single #
loop $-1 $-1 $271 $108 #
plane-surface $-1 -48.961455122531817 0 0 1 0 0 0 0 -1 forward_v I I I I #
coedge $-1 $189 $272 $191 $273 forward $109 $-1 #
coedge $-1 $111 $191 $274 $275 reversed $69 $-1 #
coedge $-1 $276 $187 $111 $185 forward $277 $-1 #
edge $-1 $193 0.59899857507686427 $278 6.7587343009357337 $184 $279 forward 7 unknown #
coedge $-1 $113 $112 $271 $280 reversed $44 $-1 #
coedge $-1 $184 $281 $112 $188 forward $277 $-1 #
edge $-1 $282 -26.293806371957757 $193 -19.041491129190362 $187 $283 forward 7 unknown #
coedge $-1 $284 $182 $113 $190 forward $109 $-1 #
edge $-1 $192 19.041491129190362 $285 26.293806371957757 $189 $286 forward 7 unknown #
coedge $-1 $183 $114 $182 $273 reversed $69 $-1 #
vertex $-1 $190 $287 #
vertex $-1 $188 $288 #
straight-curve $-1 -41.709139879764422 0 4.2778650130831632 0 -1 0 I I #
face $-1 $-1 $289 $26 $-1 $290 reversed single #
loop $-1 $-1 $122 $116 #
plane-surface $-1 0 0 10.437600738942031 0 0 1 1 0 0 forward_v I I I I #
coedge $-1 $291 $292 $293 $294 reversed $117 $-1 #
coedge $-1 $295 $119 $121 $205 forward $73 $-1 #
coedge $-1 $119 $295 $291 $296 forward $73 $-1 #
coedge $-1 $293 $122 $119 $202 forward $196 $-1 #
edge $-1 $208 1.9221723654950473 $297 20.414634883908246 $201 $298 forward 7 unknown #
coedge $-1 $299 $300 $120 $204 forward $289 $-1 #
edge $-1 $301 -51.826298583275083 $207 -42.366547021351487 $203 $302 forward 7 unknown #
edge $-1 $208 28.191356326259768 $301 43.91005904760182 $121 $303 forward 7 unknown #
coedge $-1 $122 $293 $299 $304 forward $196 $-1 #
vertex $-1 $204 $305 #
vertex $-1 $123 $306 #
straight-curve $-1 13.090575990196694 22.909188307261537 10.437600738942031 0 -1 0 I I #
coedge $-1 $210 $210 $-1 $307 reversed $126 $-1 #
edge $-1 $308 0 $308 6.2831853071796004 $127 $309 forward 7 unknown #
vertex $-1 $130 $310 #
ellipse-curve $-1 18.374136709743325 15.678272486352945 5.7077249579802292 0 0.6018150307709319 0.79863550430605224 1.5 0 0 1 I I #
coedge $-1 $214 $214 $-1 $311 reversed $133 $-1 #
edge $-1 $312 0 $312 6.2831853071796004 $134 $313 forward 7 unknown #
vertex $-1 $137 $314 #
ellipse-curve $-1 26.299477789063275 15.678272486352945 5.7077249579802292 0 0.6018150307709319 0.79863550430605224 1.5 0 0 1 I I #
face $-1 $-1 $315 $29 $-1 $316 reversed single #
loop $-1 $-1 $144 $138 #
plane-surface $-1 0 0 10.437600738942031 0 0 1 1 0 0 forward_v I I I I #
coedge $-1 $317 $318 $142 $227 forward $139 $-1 #
coedge $-1 $223 $141 $143 $228 reversed $87 $-1 #
coedge $-1 $141 $222 $319 $320 reversed $87 $-1 #
coedge $-1 $321 $144 $141 $225 forward $219 $-1 #
edge $-1 $231 -34.926842142020426 $322 -30.544154427812085 $224 $323 forward 7 unknown #
coedge $-1 $143 $142 $324 $325 reversed $56 $-1 #
edge $-1 $326 -4.3654084290889053 $230 3.9050737271632894 $221 $327 forward 7 unknown #
edge $-1 $328 -1.9959096594272027e-014 $231 8.2704821562521751 $222 $329 forward 7 unknown #
coedge $-1 $144 $321 $317 $330 forward $219 $-1 #
vertex $-1 $145 $331 #
vertex $-1 $145 $332 #
straight-curve $-1 17.913425401049082 -17.572341809592572 10.437600738942031 -1 0 0 I I #
coedge $-1 $233 $233 $-1 $333 reversed $148 $-1 #
edge $-1 $334 0 $334 6.2831853071796004 $149 $335 forward 7 unknown #
vertex $-1 $152 $336 #
ellipse-curve $-1 30.197734664769456 -19.763685666696741 6.9307173827191191 0 -0.84804810408105047 0.52991925155115449 2 0 0 1 I I #
coedge $-1 $237 $237 $-1 $337 reversed $155 $-1 #
edge $-1 $338 0 $338 6.2831853071796004 $156 $339 forward 7 unknown #
vertex $-1 $159 $340 #
ellipse-curve $-1 41.455966939426872 -19.763685666696741 6.9307173827191191 0 -0.84804810408105047 0.52991925155115449 2 0 0 1 I I #
face $-1 $-1 $175 $24 $-1 $341 reversed single #
loop $-1 $-1 $257 $160 #
plane-surface $-1 0 21.955029523800913 0 0 -1 0 0 0 -1 forward_v I I I I #
coedge $-1 $342 $255 $258 $343 forward $161 $-1 #
coedge $-1 $261 $163 $164 $249 reversed $101 $-1 #
coedge $-1 $255 $342 $163 $247 reversed $161 $-1 #
edge $-1 $262 -10.437600738942031 $344 10.437600738942031 $246 $345 forward 7 unknown #
coedge $-1 $165 $164 $342 $346 forward $65 $-1 #
edge $-1 $253 -48.961455122531817 $344 48.961455122531817 $245 $347 forward 7 unknown #
coedge $-1 $258 $257 $165 $251 reversed $242 $-1 #
edge $-1 $348 -48.961455122531817 $252 48.961455122531817 $250 $349 forward 7 unknown #
vertex $-1 $167 $350 #
vertex $-1 $264 $351 #
straight-curve $-1 48.961455122531817 0 -10.437600738942031 0 -1 0 I I #
coedge $-1 $244 $246 $168 $256 reversed $161 $-1 #
edge $-1 $259 -21.955029523800913 $262 21.955029523800913 $255 $352 forward 7 unknown #
coedge $-1 $250 $169 $174 $265 forward $242 $-1 #
coedge $-1 $169 $250 $244 $343 reversed $242 $-1 #
vertex $-1 $170 $353 #
straight-curve $-1 0 21.955029523800913 10.437600738942031 -1 0 0 I I #
coedge $-1 $171 $245 $173 $264 reversed $101 $-1 #
vertex $-1 $256 $354 #
straight-curve $-1 0 -21.955029523800913 10.437600738942031 1 0 0 I I #
edge $-1 $176 -10.437600738942031 $253 10.437600738942031 $173 $355 forward 7 unknown #
edge $-1 $177 -10.437600738942031 $252 10.437600738942031 $174 $356 forward 7 unknown #
point $-1 48.961455122531817 -21.955029523800913 10.437600738942031 #
point $-1 48.961455122531817 21.955029523800913 10.437600738942031 #
face $-1 $-1 $277 $25 $-1 $357 reversed single #
loop $-1 $-1 $274 $179 #
plane-surface $-1 0 0 10.437600738942031 0 0 1 1 0 0 forward_v I I I I #
coedge $-1 $358 $359 $186 $280 forward $180 $-1 #
coedge $-1 $182 $284 $360 $361 reversed $109 $-1 #
edge $-1 $362 -6.7587343009357337 $192 -0.59899857507686427 $182 $363 forward 7 unknown #
coedge $-1 $360 $364 $183 $275 forward $269 $-1 #
edge $-1 $278 -21.955029523800913 $362 21.955029523800913 $274 $365 forward 7 unknown #
coedge $-1 $281 $184 $364 $366 reversed $277 $-1 #
loop $-1 $-1 $184 $268 #
vertex $-1 $185 $367 #
straight-curve $-1 -41.709139879764422 -21.955029523800913 3.678866438006299 0 0 1 I I #
edge $-1 $285 -21.955029523800913 $282 21.955029523800913 $271 $368 forward 7 unknown #
coedge $-1 $187 $276 $358 $369 forward $277 $-1 #
vertex $-1 $280 $370 #
straight-curve $-1 -22.66764875057406 -21.955029523800913 4.2778650130831632 1 0 0 I I #
coedge $-1 $272 $189 $359 $371 reversed $109 $-1 #
vertex $-1 $280 $372 #
straight-curve $-1 -22.66764875057406 21.955029523800913 4.2778650130831632 -1 0 0 I I #
point $-1 -41.709139879764422 21.955029523800913 4.2778650130831632 #
point $-1 -41.709139879764422 -21.955029523800913 4.2778650130831632 #
loop $-1 $-1 $203 $195 #
plane-surface $-1 0 21.955029523800913 0 0 -1 0 0 0 -1 forward_v I I I I #
coedge $-1 $292 $198 $200 $296 reversed $117 $-1 #
coedge $-1 $198 $291 $373 $374 reversed $117 $-1 #
coedge $-1 $206 $201 $198 $294 forward $196 $-1 #
edge $-1 $297 -13.50767285835655 $375 -0.95415878346062399 $293 $376 forward 7 unknown #
coedge $-1 $200 $199 $300 $377 reversed $73 $-1 #
edge $-1 $378 -43.91005904760182 $297 -28.191356326259768 $291 $379 forward 7 unknown #
vertex $-1 $202 $380 #
straight-curve $-1 11.168403624701646 9.4015154489049877 10.437600738942031 1 0 0 I I #
coedge $-1 $373 $203 $206 $304 reversed $289 $-1 #
coedge $-1 $203 $373 $295 $377 forward $289 $-1 #
vertex $-1 $204 $381 #
straight-curve $-1 13.090575990196694 21.955029523800913 52.804147760293517 0 0 1 I I #
straight-curve $-1 13.090575990196694 -13.113102627789097 27.403582713904356 0 0.79863550430605224 -0.6018150307709319 I I #
edge $-1 $375 -31.583038508609892 $207 -13.090575990196694 $299 $382 forward 7 unknown #
point $-1 13.090575990196694 21.955029523800913 10.437600738942031 #
point $-1 13.090575990196694 9.4015154489049877 10.437600738942031 #
edge $-1 $383 1 $383 0 $210 $-1 forward 7 unknown #
vertex $-1 $211 $384 #
ellipse-curve $-1 18.374136709743325 14.222791824834072 3.7762369214803995 0 0.6018150307709319 0.79863550430605224 1.5 0 0 1 I I #
point $-1 19.874136709743325 15.678272486352938 5.7077249579802203 #
edge $-1 $385 1 $385 0 $214 $-1 forward 7 unknown #
vertex $-1 $215 $386 #
ellipse-curve $-1 26.299477789063275 14.222791824834072 3.7762369214803995 0 0.6018150307709319 0.79863550430605224 1.5 0 0 1 I I #
point $-1 27.799477789063275 15.678272486352938 5.7077249579802203 #
loop $-1 $-1 $324 $218 #
plane-surface $-1 0 -21.955029523800913 0 0 1 0 0 0 1 forward_v I I I I #
coedge $-1 $318 $221 $229 $330 reversed $139 $-1 #
coedge $-1 $221 $317 $387 $388 forward $139 $-1 #
coedge $-1 $324 $389 $223 $320 forward $315 $-1 #
edge $-1 $322 17.219933927693578 $328 24.233700640139411 $319 $390 forward 7 unknown #
coedge $-1 $229 $224 $389 $391 forward $219 $-1 #
vertex $-1 $391 $392 #
straight-curve $-1 22.692246481664512 -52.499183951612999 10.437600738942031 0 -1 0 I I #
coedge $-1 $387 $319 $226 $325 forward $315 $-1 #
edge $-1 $328 4.7788210806154297 $326 31.048029721482735 $324 $393 forward 7 unknown #
vertex $-1 $325 $394 #
straight-curve $-1 48.961455122531817 -19.641715556343019 7.1259103683244813 0 0.52991925155115449 0.84804810408105047 I I #
vertex $-1 $325 $395 #
straight-curve $-1 22.692246481664512 -21.955029523800903 3.4238340264962162 0 0.52991925155115449 0.84804810408105047 I I #
edge $-1 $396 -21.955029523800913 $230 -17.572341809592572 $317 $397 forward 7 unknown #
point $-1 48.961455122531817 -17.572341809592572 10.437600738942031 #
point $-1 22.692246481664512 -17.572341809592572 10.437600738942031 #
edge $-1 $398 1 $398 0 $233 $-1 forward 7 unknown #
vertex $-1 $234 $399 #
ellipse-curve $-1 30.197734664769456 -16.410987906789909 4.8357193760526727 0 -0.84804810408105047 0.52991925155115449 2 0 0 1 I I #
point $-1 32.197734664769456 -19.763685666696748 6.9307173827191244 #
edge $-1 $400 1 $400 0 $237 $-1 forward 7 unknown #
vertex $-1 $238 $401 #
ellipse-curve $-1 41.455966939426872 -16.410987906789909 4.8357193760526727 0 -0.84804810408105047 0.52991925155115449 2 0 0 1 I I #
point $-1 43.455966939426872 -19.763685666696748 6.9307173827191244 #
plane-surface $-1 48.961455122531817 0 0 -1 0 0 0 0 1 forward_v I I I I #
coedge $-1 $246 $244 $248 $346 reversed $161 $-1 #
edge $-1 $259 -10.437600738942031 $348 10.437600738942031 $258 $402 forward 7 unknown #
vertex $-1 $346 $403 #
straight-curve $-1 -48.961455122531817 -21.955029523800913 0 0 0 -1 I I #
edge $-1 $344 -21.955029523800913 $348 21.955029523800913 $342 $404 forward 7 unknown #
straight-curve $-1 0 -21.955029523800913 -10.437600738942031 -1 0 0 I I #
vertex $-1 $251 $405 #
straight-curve $-1 0 21.955029523800913 -10.437600738942031 1 0 0 I I #
point $-1 48.961455122531817 21.955029523800913 -10.437600738942031 #
point $-1 48.961455122531817 -21.955029523800913 -10.437600738942031 #
straight-curve $-1 -48.961455122531817 0 10.437600738942031 0 -1 0 I I #
point $-1 -48.961455122531817 21.955029523800913 10.437600738942031 #
point $-1 -48.961455122531817 -21.955029523800913 10.437600738942031 #
straight-curve $-1 48.961455122531817 -21.955029523800913 0 0 0 -1 I I #
straight-curve $-1 48.961455122531817 21.955029523800913 0 0 0 -1 I I #
plane-surface $-1 0 -21.955029523800913 0 0 1 0 0 0 1 forward_v I I I I #
coedge $-1 $406 $271 $281 $369 reversed $180 $-1 #
coedge $-1 $271 $406 $284 $371 forward $180 $-1 #
coedge $-1 $407 $274 $272 $361 forward $269 $-1 #
edge $-1 $362 41.709139879764422 $408 48.961455122531817 $272 $409 forward 7 unknown #
vertex $-1 $361 $410 #
straight-curve $-1 -41.709139879764422 21.955029523800913 3.678866438006299 0 0 -1 I I #
coedge $-1 $274 $407 $276 $366 forward $269 $-1 #
straight-curve $-1 -41.709139879764422 0 10.437600738942031 0 1 0 I I #
edge $-1 $411 -48.961455122531817 $278 -41.709139879764422 $276 $412 forward 7 unknown #
point $-1 -41.709139879764422 -21.955029523800913 10.437600738942033 #
straight-curve $-1 -48.961455122531817 0 4.2778650130831632 0 -1 0 I I #
edge $-1 $411 -10.437600738942031 $282 -4.2778650130831632 $358 $413 forward 7 unknown #
point $-1 -48.961455122531817 -21.955029523800913 4.2778650130831632 #
edge $-1 $408 -10.437600738942031 $285 -4.2778650130831632 $284 $414 forward 7 unknown #
point $-1 -48.961455122531817 21.955029523800913 4.2778650130831632 #
coedge $-1 $300 $299 $292 $374 forward $289 $-1 #
edge $-1 $375 42.366547021351487 $378 51.826298583275083 $373 $415 forward 7 unknown #
vertex $-1 $304 $416 #
straight-curve $-1 31.583038508609892 22.909188307261537 10.437600738942031 0 1 0 I I #
edge $-1 $378 -20.414634883908246 $301 -1.9221723654950473 $300 $417 forward 7 unknown #
vertex $-1 $377 $418 #
straight-curve $-1 31.583038508609892 -13.113102627789097 27.403582713904356 0 -0.79863550430605224 0.6018150307709319 I I #
point $-1 31.583038508609892 9.4015154489049877 10.437600738942031 #
point $-1 13.090575990196694 21.95502952380091 0.97784917701843455 #
straight-curve $-1 0 21.955029523800913 10.437600738942031 -1 0 0 I I #
vertex $-1 $307 $419 #
point $-1 19.874136709743325 14.222791824834072 3.7762369214803995 #
vertex $-1 $311 $420 #
point $-1 27.799477789063275 14.222791824834072 3.7762369214803995 #
coedge $-1 $389 $324 $318 $388 reversed $315 $-1 #
edge $-1 $396 -10.437600738942031 $326 -3.4238340264961993 $318 $421 forward 7 unknown #
coedge $-1 $319 $387 $321 $391 reversed $315 $-1 #
straight-curve $-1 22.692246481664512 -21.955029523800917 27.657534666635609 0 0 -1 I I #
edge $-1 $322 22.692246481664512 $396 48.961455122531817 $389 $422 forward 7 unknown #
point $-1 22.692246481664512 -21.955029523800913 10.437600738942031 #
straight-curve $-1 17.913425401049082 -21.955029523800913 3.4238340264962042 1 0 0 I I #
point $-1 48.961455122531817 -21.955029523800913 3.4238340264961993 #
point $-1 22.692246481664512 -21.955029523800913 3.4238340264961993 #
vertex $-1 $330 $423 #
straight-curve $-1 48.961455122531817 0 10.437600738942031 0 1 0 I I #
vertex $-1 $333 $424 #
point $-1 32.197734664769456 -16.410987906789909 4.8357193760526727 #
vertex $-1 $337 $425 #
point $-1 43.455966939426872 -16.410987906789909 4.8357193760526727 #
straight-curve $-1 -48.961455122531817 21.955029523800913 0 0 0 -1 I I #
point $-1 -48.961455122531817 -21.955029523800913 -10.437600738942031 #
straight-curve $-1 -48.961455122531817 0 -10.437600738942031 0 1 0 I I #
point $-1 -48.961455122531817 21.955029523800913 -10.437600738942031 #
coedge $-1 $359 $358 $407 $426 reversed $180 $-1 #
coedge $-1 $364 $360 $406 $426 forward $269 $-1 #
vertex $-1 $361 $427 #
straight-curve $-1 0 21.955029523800913 10.437600738942031 -1 0 0 I I #
point $-1 -41.709139879764422 21.955029523800913 10.437600738942033 #
vertex $-1 $426 $428 #
straight-curve $-1 0 -21.955029523800913 10.437600738942031 1 0 0 I I #
straight-curve $-1 -48.961455122531817 -21.955029523800913 0 0 0 -1 I I #
straight-curve $-1 -48.961455122531817 21.955029523800913 0 0 0 -1 I I #
straight-curve $-1 31.583038508609892 21.955029523800913 52.804147760293517 0 0 -1 I I #
point $-1 31.583038508609892 21.955029523800913 10.437600738942031 #
straight-curve $-1 11.168403624701646 21.95502952380091 0.97784917701843455 -1 0 0 I I #
point $-1 31.583038508609892 21.95502952380091 0.97784917701843455 #
point $-1 18.374136709743325 13.320069278677675 2.5782836650213214 #
point $-1 26.299477789063275 13.320069278677675 2.5782836650213214 #
straight-curve $-1 48.961455122531817 -21.955029523800913 0 0 0 -1 I I #
straight-curve $-1 0 -21.955029523800913 10.437600738942031 1 0 0 I I #
point $-1 48.961455122531817 -21.955029523800913 10.437600738942031 #
point $-1 30.197734664769456 -14.71489169862781 3.7758808729503635 #
point $-1 41.455966939426872 -14.71489169862781 3.7758808729503635 #
edge $-1 $408 -21.955029523800913 $411 21.955029523800913 $406 $429 forward 7 unknown #
point $-1 -48.961455122531817 21.955029523800913 10.437600738942031 #
point $-1 -48.961455122531817 -21.955029523800913 10.437600738942031 #
straight-curve $-1 -48.961455122531817 0 10.437600738942031 0 -1 0 I I #
End-of-ACIS-data 