500 0 7 0           
7 Unknown 11 ACIS 5.0 NT 24 Thu Mar 25 18:26:12 1999 
-1 9.9999999999999995e-007 1e-010 
body $-1 $7 $-1 $8 #
body $-1 $9 $-1 $10 #
body $-1 $11 $-1 $12 #
body $-1 $13 $-1 $14 #
body $-1 $15 $-1 $16 #
body $-1 $17 $-1 $18 #
body $-1 $19 $-1 $20 #
lump $-1 $-1 $21 $0 #
transform $-1 1 0 0 0 1 0 0 0 1 40.332041383098847 18.732052729535503 5.0496565131156368 1 rotate no_reflect no_shear #
lump $-1 $-1 $22 $1 #
transform $-1 1 0 0 0 1 0 0 0 1 40.332041383098847 18.732052729535503 5.0496565131156368 1 rotate no_reflect no_shear #
lump $-1 $-1 $23 $2 #
transform $-1 1 0 0 0 1 0 0 0 1 40.332041383098847 18.732052729535503 5.0496565131156368 1 rotate no_reflect no_shear #
lump $-1 $-1 $24 $3 #
transform $-1 1 0 0 0 1 0 0 0 1 40.332041383098847 18.732052729535503 5.0496565131156368 1 rotate no_reflect no_shear #
lump $-1 $-1 $25 $4 #
transform $-1 1 0 0 0 1 0 0 0 1 40.332041383098847 18.732052729535503 5.0496565131156368 1 rotate no_reflect no_shear #
lump $-1 $-1 $26 $5 #
transform $-1 1 0 0 0 1 0 0 0 1 40.332041383098847 18.732052729535503 5.0496565131156368 1 rotate no_reflect no_shear #
lump $-1 $-1 $27 $6 #
transform $-1 1 0 0 0 1 0 0 0 1 40.332041383098847 18.732052729535503 5.0496565131156368 1 rotate no_reflect no_shear #
shell $-1 $-1 $-1 $28 $-1 $7 #
shell $-1 $-1 $-1 $29 $-1 $9 #
shell $-1 $-1 $-1 $30 $-1 $11 #
shell $-1 $-1 $-1 $31 $-1 $13 #
shell $-1 $-1 $-1 $32 $-1 $15 #
shell $-1 $-1 $-1 $33 $-1 $17 #
shell $-1 $-1 $-1 $34 $-1 $19 #
face $-1 $35 $36 $21 $-1 $37 forward single #
face $-1 $38 $39 $22 $-1 $40 forward single #
face $-1 $41 $42 $23 $-1 $43 reversed single #
face $-1 $44 $45 $24 $-1 $46 forward single #
face $-1 $47 $48 $25 $-1 $49 forward single #
face $-1 $50 $51 $26 $-1 $52 reversed single #
face $-1 $53 $54 $27 $-1 $55 forward single #
face $-1 $56 $57 $21 $-1 $58 reversed single #
loop $-1 $-1 $59 $28 #
plane-surface $-1 0 0 5.0496565131156368 0 0 1 1 0 0 forward_v I I I I #
face $-1 $60 $61 $22 $-1 $62 reversed single #
loop $-1 $-1 $63 $29 #
plane-surface $-1 0 -16.180218588784491 2.242387038312371 0 0 1 1 0 0 forward_v I I I I #
face $-1 $64 $65 $23 $-1 $66 reversed single #
loop $-1 $-1 $67 $30 #
plane-surface $-1 48.289599050345139 9.6118222489306326 115.65103456816412 0 1 0 0.75470958851134928 0 0.65605901945558964 forward_v I I I I #
face $-1 $68 $69 $24 $-1 $70 forward single #
loop $-1 $71 $72 $31 #
cone-surface $-1 38.469792211195696 12.217602386246313 3.0402523122140384 -0.75470958851134928 0 -0.65605901945558964 0.32802950972779482 0 -0.37735479425567464 1 I I 0 1 0.5 forward I I I I #
face $-1 $73 $74 $25 $-1 $75 forward single #
loop $-1 $76 $77 $32 #
cone-surface $-1 38.469792211195696 16.126272592219827 3.0402523122140384 -0.75470958851134928 0 -0.65605901945558964 0.32802950972779482 0 -0.37735479425567464 1 I I 0 1 0.5 forward I I I I #
face $-1 $78 $79 $26 $-1 $80 reversed single #
loop $-1 $-1 $81 $33 #
plane-surface $-1 -40.33204138309884 -9.5419281616180207 0.067243896346909082 -0.57357644374324357 0 0.81915203911291934 0.81915203911291934 0 0.57357644374324357 forward_v I I I I #
face $-1 $82 $83 $27 $-1 $84 forward single #
loop $-1 $85 $86 $34 #
cone-surface $-1 -35.032792738608464 -9.5419281616180207 0.071419916358532731 0.57357644374324357 0 -0.81915203911291934 1.6383040782258387 0 1.1471528874864871 1 I I 0 1 2 forward I I I I #
face $-1 $87 $88 $21 $-1 $89 reversed single #
loop $-1 $-1 $90 $35 #
plane-surface $-1 0 0 -5.0496565131156368 0 0 1 1 0 0 forward_v I I I I #
coedge $-1 $91 $92 $93 $94 forward $36 $-1 #
face $-1 $95 $96 $22 $-1 $97 reversed single #
loop $-1 $-1 $98 $38 #
plane-surface $-1 0 -16.180218588784491 -0.75761296168762904 0 0 1 1 0 0 forward_v I I I I #
coedge $-1 $99 $100 $101 $102 reversed $39 $-1 #
face $-1 $103 $104 $23 $-1 $105 forward single #
loop $-1 $-1 $106 $41 #
plane-surface $-1 -12.588357661777344 14.171937489233066 62.730635523287937 0.75470958851134928 0 0.65605901945558964 0.65605901945558964 0 -0.75470958851134928 forward_v I I I I #
coedge $-1 $107 $108 $109 $110 reversed $42 $-1 #
face $-1 $-1 $111 $24 $-1 $112 forward single #
loop $-1 $113 $114 $44 #
cone-surface $-1 37.808410765408674 12.217602386246313 2.4653222074236316 -0.75470958851134928 0 -0.65605901945558964 0.16401475486389741 0 -0.18867739712783732 1 I I -0.70710678118654746 0.70710678118654746 0.25 forward I I I I #
loop $-1 $-1 $115 $31 #
coedge $-1 $72 $72 $116 $117 reversed $45 $-1 #
face $-1 $-1 $118 $25 $-1 $119 forward single #
loop $-1 $120 $121 $47 #
cone-surface $-1 37.808410765408674 16.126272592219827 2.4653222074236316 -0.75470958851134928 0 -0.65605901945558964 0.16401475486389741 0 -0.18867739712783732 1 I I -0.70710678118654746 0.70710678118654746 0.25 forward I I I I #
loop $-1 $-1 $122 $32 #
coedge $-1 $77 $77 $123 $124 reversed $48 $-1 #
face $-1 $125 $126 $26 $-1 $127 reversed single #
loop $-1 $-1 $128 $50 #
plane-surface $-1 -86.599059113945174 -5.4554718752025622 66.143391777451043 0 -1 0 0.57357644374324357 0 -0.81915203911291934 forward_v I I I I #
coedge $-1 $129 $130 $131 $132 reversed $51 $-1 #
face $-1 $-1 $133 $27 $-1 $134 forward single #
loop $-1 $135 $136 $53 #
cone-surface $-1 -32.717778905743458 -9.5419281616180207 -3.2347624111271296 0.57357644374324357 0 -0.81915203911291934 0.81915203911291934 0 0.57357644374324357 1 I I -0.70710678118654746 0.70710678118654746 1 forward I I I I #
loop $-1 $-1 $137 $34 #
coedge $-1 $86 $86 $138 $139 reversed $54 $-1 #
face $-1 $140 $141 $21 $-1 $142 reversed single #
loop $-1 $-1 $143 $56 #
plane-surface $-1 0 -18.732052729535503 0 0 1 0 0 0 1 forward_v I I I I #
coedge $-1 $144 $145 $146 $147 forward $57 $-1 #
coedge $-1 $148 $59 $149 $150 forward $36 $-1 #
coedge $-1 $59 $148 $151 $152 forward $36 $-1 #
coedge $-1 $153 $154 $59 $94 reversed $155 $-1 #
edge $-1 $156 -18.732052729535503 $157 18.732052729535503 $93 $158 forward 7 unknown #
face $-1 $159 $160 $22 $-1 $161 reversed single #
loop $-1 $-1 $162 $60 #
plane-surface $-1 0 -13.628384448033479 0.74238703831237096 0 -1 0 0 0 -1 forward_v I I I I #
coedge $-1 $163 $164 $165 $166 reversed $61 $-1 #
coedge $-1 $167 $63 $168 $169 forward $39 $-1 #
coedge $-1 $63 $167 $170 $171 reversed $39 $-1 #
coedge $-1 $172 $173 $63 $102 forward $174 $-1 #
edge $-1 $175 5.5382751536412336 $176 10.641943435143258 $101 $177 forward 7 unknown #
face $-1 $178 $179 $23 $-1 $180 reversed single #
loop $-1 $-1 $181 $64 #
plane-surface $-1 0 0 5.0496565131156368 0 0 1 1 0 0 forward_v I I I I #
coedge $-1 $182 $183 $184 $185 reversed $65 $-1 #
coedge $-1 $108 $67 $186 $187 reversed $42 $-1 #
coedge $-1 $67 $107 $182 $188 reversed $42 $-1 #
coedge $-1 $184 $189 $67 $110 forward $179 $-1 #
edge $-1 $190 52.775860770966425 $191 55.972838472916614 $109 $192 forward 7 unknown #
loop $-1 $-1 $116 $68 #
plane-surface $-1 -12.588357661777344 14.171937489233066 62.730635523287937 0.75470958851134928 0 0.65605901945558964 0.65605901945558964 0 -0.75470958851134928 forward_v I I I I #
loop $-1 $-1 $193 $44 #
coedge $-1 $114 $114 $115 $194 reversed $69 $-1 #
coedge $-1 $115 $115 $114 $194 forward $71 $-1 #
coedge $-1 $116 $116 $72 $117 forward $111 $-1 #
edge $-1 $195 0 $195 6.2831853071796004 $116 $196 forward 7 unknown #
loop $-1 $-1 $123 $73 #
plane-surface $-1 -12.588357661777344 14.171937489233066 62.730635523287937 0.75470958851134928 0 0.65605901945558964 0.65605901945558964 0 -0.75470958851134928 forward_v I I I I #
loop $-1 $-1 $197 $47 #
coedge $-1 $121 $121 $122 $198 reversed $74 $-1 #
coedge $-1 $122 $122 $121 $198 forward $76 $-1 #
coedge $-1 $123 $123 $77 $124 forward $118 $-1 #
edge $-1 $199 0 $199 6.2831853071796004 $123 $200 forward 7 unknown #
face $-1 $201 $202 $26 $-1 $203 forward single #
loop $-1 $-1 $204 $78 #
plane-surface $-1 -40.332041383098847 0 0 1 0 0 0 0 -1 forward_v I I I I #
coedge $-1 $205 $206 $207 $208 reversed $79 $-1 #
coedge $-1 $209 $81 $210 $211 forward $51 $-1 #
coedge $-1 $81 $209 $205 $212 forward $51 $-1 #
coedge $-1 $207 $213 $81 $132 forward $214 $-1 #
edge $-1 $215 -8.8574203672244689 $216 -0.68450779439355181 $131 $217 forward 7 unknown #
loop $-1 $-1 $138 $82 #
plane-surface $-1 -40.33204138309884 -9.5419281616180207 0.067243896346909082 -0.57357644374324357 0 0.81915203911291934 0.81915203911291934 0 0.57357644374324357 forward_v I I I I #
loop $-1 $-1 $218 $53 #
coedge $-1 $136 $136 $137 $219 reversed $83 $-1 #
coedge $-1 $137 $137 $136 $219 forward $85 $-1 #
coedge $-1 $138 $138 $86 $139 forward $133 $-1 #
edge $-1 $220 0 $220 6.2831853071796004 $138 $221 forward 7 unknown #
face $-1 $222 $223 $21 $-1 $224 reversed single #
loop $-1 $-1 $225 $87 #
plane-surface $-1 -40.332041383098847 0 0 1 0 0 0 0 -1 forward_v I I I I #
coedge $-1 $226 $151 $227 $228 forward $88 $-1 #
coedge $-1 $229 $90 $226 $230 forward $57 $-1 #
coedge $-1 $90 $229 $231 $232 forward $57 $-1 #
coedge $-1 $154 $153 $90 $147 reversed $155 $-1 #
edge $-1 $233 -18.732052729535503 $234 18.732052729535503 $146 $235 forward 7 unknown #
coedge $-1 $92 $91 $236 $237 forward $36 $-1 #
coedge $-1 $238 $239 $91 $150 reversed $223 $-1 #
edge $-1 $157 -40.332041383098847 $240 40.332041383098847 $149 $241 forward 7 unknown #
coedge $-1 $143 $242 $92 $152 reversed $88 $-1 #
edge $-1 $243 -40.332041383098847 $156 40.332041383098847 $151 $244 forward 7 unknown #
coedge $-1 $146 $93 $242 $245 forward $155 $-1 #
coedge $-1 $93 $146 $238 $246 reversed $155 $-1 #
loop $-1 $-1 $153 $222 #
vertex $-1 $94 $247 #
vertex $-1 $94 $248 #
straight-curve $-1 40.332041383098847 0 5.0496565131156368 0 1 0 I I #
face $-1 $249 $250 $22 $-1 $251 reversed single #
loop $-1 $-1 $252 $95 #
plane-surface $-1 -40.332041383098847 0 0 1 0 0 0 0 -1 forward_v I I I I #
coedge $-1 $253 $168 $173 $254 reversed $96 $-1 #
coedge $-1 $255 $98 $256 $257 reversed $61 $-1 #
coedge $-1 $98 $255 $253 $258 forward $61 $-1 #
coedge $-1 $173 $172 $98 $166 forward $174 $-1 #
edge $-1 $259 -10.641943435143258 $260 -5.5382751536412336 $165 $261 forward 7 unknown #
coedge $-1 $100 $99 $252 $262 reversed $39 $-1 #
coedge $-1 $162 $263 $99 $169 reversed $96 $-1 #
edge $-1 $175 -40.332041383098847 $264 40.332041383098847 $168 $265 forward 7 unknown #
coedge $-1 $266 $267 $100 $171 forward $250 $-1 #
edge $-1 $176 -40.332041383098847 $268 40.332041383098847 $170 $269 forward 7 unknown #
coedge $-1 $165 $101 $267 $270 forward $174 $-1 #
coedge $-1 $101 $165 $162 $254 forward $174 $-1 #
loop $-1 $-1 $101 $249 #
vertex $-1 $102 $271 #
vertex $-1 $270 $272 #
straight-curve $-1 40.332041383098847 -8.0901092943922457 2.242387038312371 0 -1 0 I I #
face $-1 $-1 $273 $23 $-1 $274 reversed single #
loop $-1 $-1 $109 $103 #
plane-surface $-1 40.332041383098847 0 0 -1 0 0 0 0 1 forward_v I I I I #
coedge $-1 $186 $275 $276 $277 forward $104 $-1 #
coedge $-1 $276 $106 $108 $188 forward $65 $-1 #
coedge $-1 $106 $276 $278 $279 reversed $65 $-1 #
coedge $-1 $280 $109 $106 $185 forward $179 $-1 #
edge $-1 $191 2.5258535043140995 $281 11.646083984918967 $184 $282 forward 7 unknown #
coedge $-1 $283 $181 $107 $187 forward $104 $-1 #
edge $-1 $284 13.408151611438331 $190 16.187241857926278 $186 $285 forward 7 unknown #
edge $-1 $191 -80.664082766197723 $284 -76.42804581818946 $108 $286 forward 7 unknown #
coedge $-1 $109 $280 $283 $287 reversed $179 $-1 #
vertex $-1 $287 $288 #
vertex $-1 $110 $289 #
straight-curve $-1 40.332041383098847 9.6118222489306326 57.825517284082061 0 0 -1 I I #
coedge $-1 $193 $193 $-1 $290 reversed $113 $-1 #
edge $-1 $291 0 $291 6.2831853071796004 $114 $292 forward 7 unknown #
vertex $-1 $117 $293 #
ellipse-curve $-1 38.94249625985487 12.217602386246313 3.4511676621405405 0.75470958851134928 0 0.65605901945558964 0.32802950972779482 0 -0.37735479425567464 1 I I #
coedge $-1 $197 $197 $-1 $294 reversed $120 $-1 #
edge $-1 $295 0 $295 6.2831853071796004 $121 $296 forward 7 unknown #
vertex $-1 $124 $297 #
ellipse-curve $-1 38.94249625985487 16.126272592219827 3.4511676621405405 0.75470958851134928 0 0.65605901945558964 0.32802950972779482 0 -0.37735479425567464 1 I I #
face $-1 $-1 $214 $26 $-1 $298 forward single #
loop $-1 $-1 $210 $125 #
plane-surface $-1 0 -13.628384448033479 0.74238703831237096 0 -1 0 0 0 -1 forward_v I I I I #
coedge $-1 $299 $300 $206 $301 forward $126 $-1 #
coedge $-1 $206 $128 $130 $212 reversed $79 $-1 #
coedge $-1 $128 $205 $204 $301 reversed $79 $-1 #
coedge $-1 $302 $131 $128 $208 forward $214 $-1 #
edge $-1 $216 -10.083110684610993 $303 -2.9674881738737398 $207 $304 forward 7 unknown #
coedge $-1 $130 $129 $299 $305 reversed $51 $-1 #
coedge $-1 $306 $307 $129 $211 reversed $202 $-1 #
edge $-1 $215 -8.6865711992158818 $308 8.6860152927662243e-015 $210 $309 forward 7 unknown #
edge $-1 $310 -8.6780553205883961e-015 $216 8.6865711992158818 $205 $311 forward 7 unknown #
coedge $-1 $131 $302 $306 $312 forward $214 $-1 #
loop $-1 $-1 $207 $201 #
vertex $-1 $132 $313 #
vertex $-1 $132 $314 #
straight-curve $-1 -33.216418872361594 -4.7709640808090104 5.0496565131156377 0 1 0 I I #
coedge $-1 $218 $218 $-1 $315 reversed $135 $-1 #
edge $-1 $316 0 $316 6.2831853071796004 $136 $317 forward 7 unknown #
vertex $-1 $139 $318 #
ellipse-curve $-1 -36.77423012773022 -9.5419281616180207 2.5584502047312685 -0.57357644374324357 0 0.81915203911291934 1.6383040782258387 0 1.1471528874864871 1 I I #
face $-1 $-1 $155 $21 $-1 $319 reversed single #
loop $-1 $-1 $238 $140 #
plane-surface $-1 0 18.732052729535503 0 0 -1 0 0 0 -1 forward_v I I I I #
coedge $-1 $320 $236 $239 $321 forward $141 $-1 #
coedge $-1 $242 $143 $144 $230 reversed $88 $-1 #
coedge $-1 $236 $320 $143 $228 reversed $141 $-1 #
edge $-1 $243 -5.0496565131156368 $322 5.0496565131156368 $227 $323 forward 7 unknown #
coedge $-1 $145 $144 $320 $324 forward $57 $-1 #
edge $-1 $234 -40.332041383098847 $322 40.332041383098847 $226 $325 forward 7 unknown #
coedge $-1 $239 $238 $145 $232 reversed $223 $-1 #
edge $-1 $326 -40.332041383098847 $233 40.332041383098847 $231 $327 forward 7 unknown #
vertex $-1 $147 $328 #
vertex $-1 $245 $329 #
straight-curve $-1 40.332041383098847 0 -5.0496565131156368 0 -1 0 I I #
coedge $-1 $225 $227 $148 $237 reversed $141 $-1 #
edge $-1 $240 -18.732052729535503 $243 18.732052729535503 $236 $330 forward 7 unknown #
coedge $-1 $231 $149 $154 $246 forward $223 $-1 #
coedge $-1 $149 $231 $225 $321 reversed $223 $-1 #
vertex $-1 $150 $331 #
straight-curve $-1 0 18.732052729535503 5.0496565131156368 -1 0 0 I I #
coedge $-1 $151 $226 $153 $245 reversed $88 $-1 #
vertex $-1 $237 $332 #
straight-curve $-1 0 -18.732052729535503 5.0496565131156368 1 0 0 I I #
edge $-1 $156 -5.0496565131156368 $234 5.0496565131156368 $153 $333 forward 7 unknown #
edge $-1 $157 -5.0496565131156368 $233 5.0496565131156368 $154 $334 forward 7 unknown #
point $-1 40.332041383098847 -18.732052729535503 5.0496565131156368 #
point $-1 40.332041383098847 18.732052729535503 5.0496565131156368 #
face $-1 $-1 $174 $22 $-1 $335 reversed single #
loop $-1 $-1 $170 $159 #
plane-surface $-1 0 -18.732052729535503 0 0 1 0 0 0 1 forward_v I I I I #
coedge $-1 $336 $337 $167 $262 forward $160 $-1 #
coedge $-1 $263 $162 $164 $258 reversed $96 $-1 #
edge $-1 $260 -1.1288064808438145 $175 1.8711935191561855 $173 $338 forward 7 unknown #
coedge $-1 $164 $163 $339 $340 reversed $61 $-1 #
coedge $-1 $267 $266 $163 $257 forward $250 $-1 #
edge $-1 $341 -40.332041383098847 $259 40.332041383098847 $256 $342 forward 7 unknown #
edge $-1 $343 -40.332041383098847 $260 40.332041383098847 $253 $344 forward 7 unknown #
vertex $-1 $257 $345 #
vertex $-1 $166 $346 #
straight-curve $-1 40.332041383098847 -8.0901092943922457 -0.75761296168762904 0 1 0 I I #
edge $-1 $268 -10.641943435143258 $264 -5.5382751536412336 $252 $347 forward 7 unknown #
coedge $-1 $168 $253 $336 $348 reversed $96 $-1 #
vertex $-1 $262 $349 #
straight-curve $-1 0 -13.628384448033479 2.242387038312371 -1 0 0 I I #
coedge $-1 $256 $170 $337 $350 forward $250 $-1 #
coedge $-1 $170 $256 $172 $270 reversed $250 $-1 #
vertex $-1 $350 $351 #
straight-curve $-1 0 -18.732052729535503 2.242387038312371 -1 0 0 I I #
edge $-1 $176 -2.242387038312371 $259 0.75761296168762904 $172 $352 forward 7 unknown #
point $-1 40.332041383098847 -13.628384448033479 2.242387038312371 #
point $-1 40.332041383098847 -18.732052729535503 2.242387038312371 #
loop $-1 $-1 $278 $178 #
plane-surface $-1 0 18.732052729535503 0 0 -1 0 0 0 -1 forward_v I I I I #
coedge $-1 $181 $283 $353 $354 forward $104 $-1 #
coedge $-1 $183 $182 $181 $277 reversed $65 $-1 #
edge $-1 $355 -11.646083984918967 $284 -2.5258535043140995 $181 $356 forward 7 unknown #
coedge $-1 $353 $357 $183 $279 forward $273 $-1 #
edge $-1 $281 -52.863023912708719 $355 -48.626986964700457 $278 $358 forward 7 unknown #
coedge $-1 $189 $184 $357 $359 reversed $179 $-1 #
vertex $-1 $279 $360 #
straight-curve $-1 40.332041383098847 7.0859687446165331 1.8526788111654504 0 1 0 I I #
coedge $-1 $275 $186 $189 $287 forward $104 $-1 #
vertex $-1 $187 $361 #
straight-curve $-1 24.144799525172569 9.6118222489306326 5.0496565131156359 1 0 0 I I #
straight-curve $-1 -12.588357661777344 9.6118222489306326 62.730635523287937 -0.65605901945558964 0 0.75470958851134928 I I #
edge $-1 $190 9.6118222489306326 $362 18.732052729535503 $189 $363 forward 7 unknown #
point $-1 40.332041383098847 9.6118222489306326 5.0496565131156368 #
point $-1 40.332041383098854 9.6118222489306326 1.8526788111654469 #
edge $-1 $364 1 $364 0 $193 $-1 forward 7 unknown #
vertex $-1 $194 $365 #
ellipse-curve $-1 37.997088162536514 12.217602386246313 2.6293369622875291 0.75470958851134928 0 0.65605901945558964 0.32802950972779482 0 -0.37735479425567464 1 I I #
point $-1 39.270525769582676 12.217602386246313 3.0738128678848731 #
edge $-1 $366 1 $366 0 $197 $-1 forward 7 unknown #
vertex $-1 $198 $367 #
ellipse-curve $-1 37.997088162536514 16.126272592219827 2.6293369622875291 0.75470958851134928 0 0.65605901945558964 0.32802950972779482 0 -0.37735479425567464 1 I I #
point $-1 39.270525769582676 16.126272592219827 3.0738128678848731 #
plane-surface $-1 0 0 5.0496565131156368 0 0 1 1 0 0 forward_v I I I I #
coedge $-1 $368 $204 $209 $305 forward $126 $-1 #
coedge $-1 $204 $368 $302 $369 reversed $126 $-1 #
edge $-1 $303 28.022039375609886 $310 33.00445199237862 $204 $370 forward 7 unknown #
coedge $-1 $213 $207 $300 $369 forward $214 $-1 #
vertex $-1 $369 $371 #
straight-curve $-1 -43.299529556972587 -5.4554718752025622 5.0496565131156359 -1 0 0 I I #
edge $-1 $310 0.68450779439355181 $308 8.8574203672244689 $299 $372 forward 7 unknown #
coedge $-1 $307 $210 $213 $312 reversed $202 $-1 #
coedge $-1 $210 $306 $368 $373 reversed $202 $-1 #
vertex $-1 $373 $374 #
straight-curve $-1 -40.33204138309884 -13.628384448033479 0.067243896346909082 -0.81915203911291934 0 -0.57357644374324357 I I #
vertex $-1 $305 $375 #
straight-curve $-1 -40.33204138309884 -5.4554718752025622 0.067243896346909082 0.81915203911291934 0 0.57357644374324357 I I #
edge $-1 $376 2.9674881738737398 $215 10.083110684610993 $213 $377 forward 7 unknown #
point $-1 -33.216418872361594 -13.628384448033479 5.0496565131156368 #
point $-1 -33.216418872361594 -5.4554718752025622 5.0496565131156368 #
edge $-1 $378 1 $378 0 $218 $-1 forward 7 unknown #
vertex $-1 $219 $379 #
ellipse-curve $-1 -33.2913553494867 -9.5419281616180207 -2.4156103720142101 -0.57357644374324357 0 0.81915203911291934 1.6383040782258387 0 1.1471528874864871 1 I I #
point $-1 -35.135926049504391 -9.5419281616180207 3.7056030922177623 #
plane-surface $-1 40.332041383098847 0 0 -1 0 0 0 0 1 forward_v I I I I #
coedge $-1 $227 $225 $229 $324 reversed $141 $-1 #
edge $-1 $240 -5.0496565131156368 $326 5.0496565131156368 $239 $380 forward 7 unknown #
vertex $-1 $324 $381 #
straight-curve $-1 -40.332041383098847 -18.732052729535503 0 0 0 -1 I I #
edge $-1 $322 -18.732052729535503 $326 18.732052729535503 $320 $382 forward 7 unknown #
straight-curve $-1 0 -18.732052729535503 -5.0496565131156368 -1 0 0 I I #
vertex $-1 $232 $383 #
straight-curve $-1 0 18.732052729535503 -5.0496565131156368 1 0 0 I I #
point $-1 40.332041383098847 18.732052729535503 -5.0496565131156368 #
point $-1 40.332041383098847 -18.732052729535503 -5.0496565131156368 #
straight-curve $-1 -40.332041383098847 0 5.0496565131156368 0 -1 0 I I #
point $-1 -40.332041383098847 18.732052729535503 5.0496565131156368 #
point $-1 -40.332041383098847 -18.732052729535503 5.0496565131156368 #
straight-curve $-1 40.332041383098847 -18.732052729535503 0 0 0 -1 I I #
straight-curve $-1 40.332041383098847 18.732052729535503 0 0 0 -1 I I #
plane-surface $-1 40.332041383098847 0 0 -1 0 0 0 0 1 forward_v I I I I #
coedge $-1 $339 $252 $263 $348 forward $160 $-1 #
coedge $-1 $252 $339 $266 $350 reversed $160 $-1 #
straight-curve $-1 40.332041383098847 -13.628384448033479 0.37119351915618548 0 0 1 I I #
coedge $-1 $337 $336 $255 $340 forward $160 $-1 #
edge $-1 $343 5.5382751536412336 $341 10.641943435143258 $339 $384 forward 7 unknown #
vertex $-1 $257 $385 #
straight-curve $-1 0 -18.732052729535503 -0.75761296168762904 1 0 0 I I #
vertex $-1 $340 $386 #
straight-curve $-1 0 -13.628384448033479 -0.75761296168762904 1 0 0 I I #
point $-1 40.332041383098847 -18.732052729535503 -0.75761296168762904 #
point $-1 40.332041383098847 -13.628384448033479 -0.75761296168762904 #
straight-curve $-1 -40.332041383098847 -8.0901092943922457 2.242387038312371 0 1 0 I I #
edge $-1 $264 -1.8711935191561855 $343 1.1288064808438145 $336 $387 forward 7 unknown #
point $-1 -40.332041383098847 -13.628384448033479 2.242387038312371 #
edge $-1 $268 -2.242387038312371 $341 0.75761296168762904 $337 $388 forward 7 unknown #
point $-1 -40.332041383098847 -18.732052729535503 2.242387038312371 #
straight-curve $-1 40.332041383098847 -18.732052729535503 0 0 0 -1 I I #
coedge $-1 $357 $278 $275 $354 reversed $273 $-1 #
edge $-1 $362 -40.332041383098847 $355 -37.552951136610901 $353 $389 forward 7 unknown #
vertex $-1 $279 $390 #
straight-curve $-1 37.552951136610901 7.0859687446165331 5.0496565131156288 0 -1 0 I I #
coedge $-1 $278 $353 $280 $359 forward $273 $-1 #
straight-curve $-1 5.6507777494697802 18.732052729535503 41.748909835791459 -0.65605901945558975 0 0.75470958851134939 I I #
edge $-1 $362 -5.0496565131156368 $281 -1.8526788111654469 $280 $391 forward 7 unknown #
point $-1 40.332041383098854 18.7320527295355 1.8526788111654469 #
point $-1 37.552951136610901 9.6118222489306326 5.0496565131156359 #
vertex $-1 $287 $392 #
straight-curve $-1 40.332041383098847 0 5.0496565131156368 0 1 0 I I #
vertex $-1 $290 $393 #
point $-1 38.325117672264305 12.217602386246313 2.2519821680318546 #
vertex $-1 $294 $394 #
point $-1 38.325117672264305 16.126272592219827 2.2519821680318546 #
coedge $-1 $300 $299 $307 $373 forward $126 $-1 #
edge $-1 $303 5.4554718752025622 $376 13.628384448033479 $300 $395 forward 7 unknown #
straight-curve $-1 -40.332041383098847 -5.4554718752025622 33.071695888725522 0 0 -1 I I #
point $-1 -40.332041383098847 -5.4554718752025622 5.0496565131156368 #
straight-curve $-1 -40.332041383098847 -4.7709640808090104 0.067243896346900256 0 -1 0 I I #
edge $-1 $308 -33.00445199237862 $376 -28.022039375609886 $368 $396 forward 7 unknown #
point $-1 -40.332041383098847 -13.628384448033479 0.067243896346904086 #
point $-1 -40.332041383098847 -5.4554718752025622 0.0672438963469041 #
vertex $-1 $373 $397 #
straight-curve $-1 -43.299529556972587 -13.628384448033479 5.0496565131156359 1 0 0 I I #
vertex $-1 $315 $398 #
point $-1 -31.653051271260864 -9.5419281616180207 -1.268457484527723 #
straight-curve $-1 -40.332041383098847 18.732052729535503 0 0 0 -1 I I #
point $-1 -40.332041383098847 -18.732052729535503 -5.0496565131156368 #
straight-curve $-1 -40.332041383098847 0 -5.0496565131156368 0 1 0 I I #
point $-1 -40.332041383098847 18.732052729535503 -5.0496565131156368 #
straight-curve $-1 -40.332041383098847 -8.0901092943922457 -0.75761296168762904 0 -1 0 I I #
point $-1 -40.332041383098847 -18.732052729535503 -0.75761296168762904 #
point $-1 -40.332041383098847 -13.628384448033479 -0.75761296168762904 #
straight-curve $-1 -40.332041383098847 -13.628384448033479 0.37119351915618548 0 0 -1 I I #
straight-curve $-1 -40.332041383098847 -18.732052729535503 0 0 0 -1 I I #
straight-curve $-1 0 18.732052729535503 5.0496565131156368 -1 0 0 I I #
point $-1 37.552951136610901 18.7320527295355 5.0496565131156359 #
straight-curve $-1 40.332041383098847 18.732052729535503 0 0 0 -1 I I #
point $-1 40.332041383098847 18.732052729535503 5.0496565131156368 #
point $-1 37.619733368280833 12.217602386246313 2.3013074525597341 #
point $-1 37.619733368280833 16.126272592219827 2.3013074525597341 #
straight-curve $-1 -40.332041383098847 0 5.0496565131156368 0 -1 0 I I #
straight-curve $-1 -40.332041383098847 -13.628384448033479 33.071695888725522 0 0 1 I I #
point $-1 -40.332041383098847 -13.628384448033479 5.0496565131156368 #
point $-1 -32.144202462000216 -9.5419281616180207 -4.0539144502400486 #
End-of-ACIS-data 