500 0 10 0           
7 Unknown 11 ACIS 5.0 NT 24 Fri Mar 26 16:45:10 1999 
-1 9.9999999999999995e-007 1e-010 
body $-1 $10 $-1 $11 #
body $-1 $12 $-1 $13 #
body $-1 $14 $-1 $15 #
body $-1 $16 $-1 $17 #
body $-1 $18 $-1 $19 #
body $-1 $20 $-1 $21 #
body $-1 $22 $-1 $23 #
body $-1 $24 $-1 $25 #
body $-1 $26 $-1 $27 #
body $-1 $28 $-1 $29 #
lump $-1 $-1 $30 $0 #
transform $-1 1 0 0 0 1 0 0 0 1 64.989776299325541 40.069855453425212 13.729676049616574 1 rotate no_reflect no_shear #
lump $-1 $-1 $31 $1 #
transform $-1 1 0 0 0 1 0 0 0 1 64.989776299325541 40.069855453425212 13.729676049616574 1 rotate no_reflect no_shear #
lump $-1 $-1 $32 $2 #
transform $-1 1 0 0 0 1 0 0 0 1 64.989776299325541 40.069855453425212 13.729676049616574 1 rotate no_reflect no_shear #
lump $-1 $-1 $33 $3 #
transform $-1 1 0 0 0 1 0 0 0 1 64.989776299325541 40.069855453425212 13.729676049616574 1 rotate no_reflect no_shear #
lump $-1 $-1 $34 $4 #
transform $-1 1 0 0 0 1 0 0 0 1 64.989776299325541 40.069855453425212 13.729676049616574 1 rotate no_reflect no_shear #
lump $-1 $-1 $35 $5 #
transform $-1 1 0 0 0 1 0 0 0 1 64.989776299325541 40.069855453425212 13.729676049616574 1 rotate no_reflect no_shear #
lump $-1 $-1 $36 $6 #
transform $-1 1 0 0 0 1 0 0 0 1 64.989776299325541 40.069855453425212 13.729676049616574 1 rotate no_reflect no_shear #
lump $-1 $-1 $37 $7 #
transform $-1 1 0 0 0 1 0 0 0 1 64.989776299325541 40.069855453425212 13.729676049616574 1 rotate no_reflect no_shear #
lump $-1 $-1 $38 $8 #
transform $-1 1 0 0 0 1 0 0 0 1 64.989776299325541 40.069855453425212 13.729676049616574 1 rotate no_reflect no_shear #
lump $-1 $-1 $39 $9 #
transform $-1 1 0 0 0 1 0 0 0 1 64.989776299325541 40.069855453425212 13.729676049616574 1 rotate no_reflect no_shear #
shell $-1 $-1 $-1 $40 $-1 $10 #
shell $-1 $-1 $-1 $41 $-1 $12 #
shell $-1 $-1 $-1 $42 $-1 $14 #
shell $-1 $-1 $-1 $43 $-1 $16 #
shell $-1 $-1 $-1 $44 $-1 $18 #
shell $-1 $-1 $-1 $45 $-1 $20 #
shell $-1 $-1 $-1 $46 $-1 $22 #
shell $-1 $-1 $-1 $47 $-1 $24 #
shell $-1 $-1 $-1 $48 $-1 $26 #
shell $-1 $-1 $-1 $49 $-1 $28 #
face $-1 $50 $51 $30 $-1 $52 forward single #
face $-1 $53 $54 $31 $-1 $55 forward single #
face $-1 $56 $57 $32 $-1 $58 reversed single #
face $-1 $59 $60 $33 $-1 $61 forward single #
face $-1 $62 $63 $34 $-1 $64 reversed single #
face $-1 $65 $66 $35 $-1 $67 forward single #
face $-1 $68 $69 $36 $-1 $70 reversed single #
face $-1 $71 $72 $37 $-1 $73 forward single #
face $-1 $74 $75 $38 $-1 $76 forward single #
face $-1 $77 $78 $39 $-1 $79 forward single #
face $-1 $80 $81 $30 $-1 $82 reversed single #
loop $-1 $-1 $83 $40 #
plane-surface $-1 0 0 13.729676049616574 0 0 1 1 0 0 forward_v I I I I #
face $-1 $84 $85 $31 $-1 $86 forward single #
loop $-1 $-1 $87 $41 #
plane-surface $-1 0 -40.069855453425212 0 0 1 0 0 0 1 forward_v I I I I #
face $-1 $88 $89 $32 $-1 $90 reversed single #
loop $-1 $-1 $91 $42 #
plane-surface $-1 61.781697171128371 -15.601077803989313 186.22121116326846 0 -1 0 -0.69465837861970381 0 -0.71933979245794832 forward_v I I I I #
face $-1 $92 $93 $33 $-1 $94 forward single #
loop $-1 $95 $96 $43 #
cone-surface $-1 57.937666564269847 -19.980865907265112 6.8356028700687057 -0.69465837861970381 0 -0.71933979245794832 1.0790096886869225 0 -1.0419875679295556 1 I I 0 1 1.5 forward I I I I #
face $-1 $97 $98 $34 $-1 $99 reversed single #
loop $-1 $-1 $100 $44 #
plane-surface $-1 61.781697171128371 31.310279246873613 186.22121116326846 0 1 0 0.69465837861970381 0 0.71933979245794832 forward_v I I I I #
face $-1 $101 $102 $35 $-1 $103 forward single #
loop $-1 $104 $105 $45 #
cone-surface $-1 57.937666564269847 35.690067350149413 6.8356028700687057 -0.69465837861970381 0 -0.71933979245794832 1.0790096886869225 0 -1.0419875679295556 1 I I 0 1 1.5 forward I I I I #
face $-1 $106 $107 $36 $-1 $108 reversed single #
loop $-1 $-1 $109 $46 #
plane-surface $-1 -146.78856018493315 -8.9044882264810248 108.30580535394829 0 1 0 -0.62932039886446345 0 0.77714595512881146 forward_v I I I I #
face $-1 $110 $111 $37 $-1 $112 forward single #
loop $-1 $113 $114 $47 #
cone-surface $-1 -60.700627933326672 -7.5698660763430112 10.122625948470889 0.62932039886446345 0 -0.77714595512881146 0.38857297756440573 0 0.31466019943223172 1 I I 0 1 0.5 forward I I I I #
face $-1 $115 $116 $38 $-1 $117 forward single #
loop $-1 $118 $119 $48 #
cone-surface $-1 -60.700627933326672 -5.5679328511359856 10.122625948470889 0.62932039886446345 0 -0.77714595512881146 0.38857297756440573 0 0.31466019943223172 1 I I 0 1 0.5 forward I I I I #
face $-1 $120 $121 $39 $-1 $122 forward single #
loop $-1 $123 $124 $49 #
cone-surface $-1 -60.700627933326672 -3.5659996259289599 10.122625948470889 0.62932039886446345 0 -0.77714595512881146 0.38857297756440573 0 0.31466019943223172 1 I I 0 1 0.5 forward I I I I #
face $-1 $125 $126 $30 $-1 $127 reversed single #
loop $-1 $-1 $128 $50 #
plane-surface $-1 0 0 -13.729676049616574 0 0 1 1 0 0 forward_v I I I I #
coedge $-1 $129 $130 $131 $132 forward $51 $-1 #
face $-1 $133 $134 $31 $-1 $135 reversed single #
loop $-1 $-1 $136 $53 #
plane-surface $-1 0 0 13.729676049616574 0 0 1 1 0 0 forward_v I I I I #
coedge $-1 $137 $138 $139 $140 forward $54 $-1 #
face $-1 $141 $142 $32 $-1 $143 reversed single #
loop $-1 $-1 $144 $56 #
plane-surface $-1 -28.509688090765096 -19.980865907265112 92.721746773177813 0.69465837861970381 0 0.71933979245794832 0.71933979245794832 0 -0.69465837861970381 forward_v I I I I #
coedge $-1 $145 $146 $147 $148 reversed $57 $-1 #
face $-1 $-1 $149 $33 $-1 $150 forward single #
loop $-1 $151 $152 $59 #
cone-surface $-1 56.214954277175153 -19.980865907265112 5.0516821153434943 -0.69465837861970381 0 -0.71933979245794832 0.53950484434346124 0 -0.5209937839647778 1 I I -0.70710678118654757 0.70710678118654757 0.75 forward I I I I #
loop $-1 $-1 $153 $43 #
coedge $-1 $96 $96 $154 $155 reversed $60 $-1 #
face $-1 $156 $157 $34 $-1 $158 reversed single #
loop $-1 $-1 $159 $62 #
plane-surface $-1 -28.509688090765096 35.690067350149413 92.721746773177813 0.69465837861970381 0 0.71933979245794832 0.71933979245794832 0 -0.69465837861970381 forward_v I I I I #
coedge $-1 $160 $161 $162 $163 reversed $63 $-1 #
face $-1 $-1 $164 $35 $-1 $165 forward single #
loop $-1 $166 $167 $65 #
cone-surface $-1 56.214954277175153 35.690067350149413 5.0516821153434943 -0.69465837861970381 0 -0.71933979245794832 0.53950484434346124 0 -0.5209937839647778 1 I I -0.70710678118654757 0.70710678118654757 0.75 forward I I I I #
loop $-1 $-1 $168 $45 #
coedge $-1 $105 $105 $169 $170 reversed $66 $-1 #
face $-1 $171 $172 $36 $-1 $173 reversed single #
loop $-1 $-1 $174 $68 #
plane-surface $-1 -64.989776299325541 -5.5679328511359856 7.2927218024539968 -0.62932039886446345 0 0.77714595512881146 0.77714595512881146 0 0.62932039886446345 forward_v I I I I #
coedge $-1 $175 $176 $177 $178 reversed $69 $-1 #
face $-1 $-1 $179 $37 $-1 $180 forward single #
loop $-1 $181 $182 $71 #
cone-surface $-1 -60.228637634178327 -7.5698660763430112 9.5397664821242802 0.62932039886446345 0 -0.77714595512881146 0.19428648878220287 0 0.15733009971611586 1 I I -0.70710678118654746 0.70710678118654746 0.25 forward I I I I #
loop $-1 $-1 $183 $47 #
coedge $-1 $114 $114 $184 $185 reversed $72 $-1 #
face $-1 $-1 $186 $38 $-1 $187 forward single #
loop $-1 $188 $189 $74 #
cone-surface $-1 -60.228637634178327 -5.5679328511359856 9.5397664821242802 0.62932039886446345 0 -0.77714595512881146 0.19428648878220287 0 0.15733009971611586 1 I I -0.70710678118654746 0.70710678118654746 0.25 forward I I I I #
loop $-1 $-1 $190 $48 #
coedge $-1 $119 $119 $191 $192 reversed $75 $-1 #
face $-1 $-1 $193 $39 $-1 $194 forward single #
loop $-1 $195 $196 $77 #
cone-surface $-1 -60.228637634178327 -3.5659996259289599 9.5397664821242802 0.62932039886446345 0 -0.77714595512881146 0.19428648878220287 0 0.15733009971611586 1 I I -0.70710678118654746 0.70710678118654746 0.25 forward I I I I #
loop $-1 $-1 $197 $49 #
coedge $-1 $124 $124 $198 $199 reversed $78 $-1 #
face $-1 $200 $201 $30 $-1 $202 reversed single #
loop $-1 $-1 $203 $80 #
plane-surface $-1 0 -40.069855453425212 0 0 1 0 0 0 1 forward_v I I I I #
coedge $-1 $204 $205 $206 $207 forward $81 $-1 #
coedge $-1 $208 $83 $209 $210 forward $51 $-1 #
coedge $-1 $83 $208 $211 $212 forward $51 $-1 #
coedge $-1 $213 $214 $83 $132 reversed $215 $-1 #
edge $-1 $216 -40.069855453425212 $217 40.069855453425212 $131 $218 forward 7 unknown #
face $-1 $219 $220 $31 $-1 $221 reversed single #
loop $-1 $-1 $222 $84 #
plane-surface $-1 -64.989776299325541 0 0 1 0 0 0 0 -1 forward_v I I I I #
coedge $-1 $223 $224 $225 $226 forward $85 $-1 #
coedge $-1 $225 $87 $222 $227 reversed $54 $-1 #
coedge $-1 $87 $225 $228 $229 reversed $54 $-1 #
coedge $-1 $230 $231 $87 $140 reversed $220 $-1 #
edge $-1 $232 -64.989776299325541 $233 64.989776299325541 $139 $234 forward 7 unknown #
face $-1 $235 $236 $32 $-1 $237 reversed single #
loop $-1 $-1 $238 $88 #
plane-surface $-1 61.781697171128371 -24.360654010540912 186.22121116326846 0 1 0 0.69465837861970381 0 0.71933979245794832 forward_v I I I I #
coedge $-1 $239 $240 $241 $242 reversed $89 $-1 #
coedge $-1 $146 $91 $243 $244 reversed $57 $-1 #
coedge $-1 $91 $145 $239 $245 reversed $57 $-1 #
coedge $-1 $241 $246 $91 $148 forward $247 $-1 #
edge $-1 $248 -34.098927713761356 $249 -22.398145249909803 $147 $250 forward 7 unknown #
loop $-1 $-1 $154 $92 #
plane-surface $-1 -28.509688090765096 -19.980865907265112 92.721746773177813 0.69465837861970381 0 0.71933979245794832 0.71933979245794832 0 -0.69465837861970381 forward_v I I I I #
loop $-1 $-1 $251 $59 #
coedge $-1 $152 $152 $153 $252 reversed $93 $-1 #
coedge $-1 $153 $153 $152 $252 forward $95 $-1 #
coedge $-1 $154 $154 $96 $155 forward $149 $-1 #
edge $-1 $253 0 $253 6.2831853071796004 $154 $254 forward 7 unknown #
face $-1 $255 $256 $34 $-1 $257 forward single #
loop $-1 $-1 $162 $97 #
plane-surface $-1 64.989776299325541 0 0 -1 0 0 0 0 1 forward_v I I I I #
coedge $-1 $258 $259 $260 $261 reversed $98 $-1 #
coedge $-1 $161 $100 $262 $263 reversed $63 $-1 #
coedge $-1 $100 $160 $258 $264 reversed $63 $-1 #
coedge $-1 $260 $265 $100 $163 forward $157 $-1 #
edge $-1 $266 79.38092953201766 $267 90.680244070349872 $162 $268 forward 7 unknown #
loop $-1 $-1 $169 $101 #
plane-surface $-1 -28.509688090765096 35.690067350149413 92.721746773177813 0.69465837861970381 0 0.71933979245794832 0.71933979245794832 0 -0.69465837861970381 forward_v I I I I #
loop $-1 $-1 $269 $65 #
coedge $-1 $167 $167 $168 $270 reversed $102 $-1 #
coedge $-1 $168 $168 $167 $270 forward $104 $-1 #
coedge $-1 $169 $169 $105 $170 forward $164 $-1 #
edge $-1 $271 0 $271 6.2831853071796004 $169 $272 forward 7 unknown #
face $-1 $273 $274 $36 $-1 $275 forward single #
loop $-1 $-1 $276 $106 #
plane-surface $-1 -146.78856018493315 -2.2313774757909464 108.30580535394829 0 -1 0 0.62932039886446345 0 -0.77714595512881146 forward_v I I I I #
coedge $-1 $277 $278 $279 $280 reversed $107 $-1 #
coedge $-1 $176 $109 $281 $282 reversed $69 $-1 #
coedge $-1 $109 $175 $277 $283 reversed $69 $-1 #
coedge $-1 $279 $284 $109 $178 forward $274 $-1 #
edge $-1 $285 8.404503793141032 $286 16.35348012627432 $177 $287 forward 7 unknown #
loop $-1 $-1 $184 $110 #
plane-surface $-1 -64.989776299325541 -5.5679328511359856 7.2927218024539968 -0.62932039886446345 0 0.77714595512881146 0.77714595512881146 0 0.62932039886446345 forward_v I I I I #
loop $-1 $-1 $288 $71 #
coedge $-1 $182 $182 $183 $289 reversed $111 $-1 #
coedge $-1 $183 $183 $182 $289 forward $113 $-1 #
coedge $-1 $184 $184 $114 $185 forward $179 $-1 #
edge $-1 $290 0 $290 6.2831853071796004 $184 $291 forward 7 unknown #
loop $-1 $-1 $191 $115 #
plane-surface $-1 -64.989776299325541 -5.5679328511359856 7.2927218024539968 -0.62932039886446345 0 0.77714595512881146 0.77714595512881146 0 0.62932039886446345 forward_v I I I I #
loop $-1 $-1 $292 $74 #
coedge $-1 $189 $189 $190 $293 reversed $116 $-1 #
coedge $-1 $190 $190 $189 $293 forward $118 $-1 #
coedge $-1 $191 $191 $119 $192 forward $186 $-1 #
edge $-1 $294 0 $294 6.2831853071796004 $191 $295 forward 7 unknown #
loop $-1 $-1 $198 $120 #
plane-surface $-1 -64.989776299325541 -5.5679328511359856 7.2927218024539968 -0.62932039886446345 0 0.77714595512881146 0.77714595512881146 0 0.62932039886446345 forward_v I I I I #
loop $-1 $-1 $296 $77 #
coedge $-1 $196 $196 $197 $297 reversed $121 $-1 #
coedge $-1 $197 $197 $196 $297 forward $123 $-1 #
coedge $-1 $198 $198 $124 $199 forward $193 $-1 #
edge $-1 $298 0 $298 6.2831853071796004 $198 $299 forward 7 unknown #
face $-1 $300 $301 $30 $-1 $302 reversed single #
loop $-1 $-1 $303 $125 #
plane-surface $-1 -64.989776299325541 0 0 1 0 0 0 0 -1 forward_v I I I I #
coedge $-1 $304 $211 $305 $306 forward $126 $-1 #
coedge $-1 $307 $128 $304 $308 forward $81 $-1 #
coedge $-1 $128 $307 $309 $310 forward $81 $-1 #
coedge $-1 $214 $213 $128 $207 reversed $215 $-1 #
edge $-1 $311 -40.069855453425212 $312 40.069855453425212 $206 $313 forward 7 unknown #
coedge $-1 $130 $129 $314 $315 forward $51 $-1 #
coedge $-1 $316 $317 $129 $210 reversed $301 $-1 #
edge $-1 $217 -64.989776299325541 $318 64.989776299325541 $209 $319 forward 7 unknown #
coedge $-1 $203 $320 $130 $212 reversed $126 $-1 #
edge $-1 $321 -64.989776299325541 $216 64.989776299325541 $211 $322 forward 7 unknown #
coedge $-1 $206 $131 $320 $323 forward $215 $-1 #
coedge $-1 $131 $206 $316 $324 reversed $215 $-1 #
loop $-1 $-1 $213 $300 #
vertex $-1 $132 $325 #
vertex $-1 $132 $326 #
straight-curve $-1 64.989776299325541 0 13.729676049616574 0 1 0 I I #
face $-1 $327 $328 $31 $-1 $329 reversed single #
loop $-1 $-1 $230 $133 #
plane-surface $-1 0 -47.924456174867359 8.7088558270714671 0 0 1 1 0 0 forward_v I I I I #
coedge $-1 $330 $331 $137 $227 forward $134 $-1 #
coedge $-1 $332 $136 $331 $333 forward $85 $-1 #
coedge $-1 $136 $332 $334 $335 forward $85 $-1 #
coedge $-1 $138 $137 $136 $226 reversed $54 $-1 #
edge $-1 $336 -64.989776299325541 $337 64.989776299325541 $136 $338 forward 7 unknown #
edge $-1 $337 -13.729676049616574 $233 -8.7088558270714671 $222 $339 forward 7 unknown #
coedge $-1 $334 $340 $138 $229 forward $341 $-1 #
edge $-1 $232 8.7088558270714671 $336 13.729676049616574 $228 $342 forward 7 unknown #
coedge $-1 $343 $139 $340 $344 forward $220 $-1 #
coedge $-1 $139 $343 $330 $345 forward $220 $-1 #
vertex $-1 $229 $346 #
vertex $-1 $227 $347 #
straight-curve $-1 0 -40.069855453425212 8.7088558270714671 -1 0 0 I I #
face $-1 $-1 $247 $32 $-1 $348 forward single #
loop $-1 $-1 $349 $141 #
plane-surface $-1 64.989776299325541 0 0 -1 0 0 0 0 1 forward_v I I I I #
coedge $-1 $350 $351 $352 $353 reversed $142 $-1 #
coedge $-1 $354 $144 $146 $245 forward $89 $-1 #
coedge $-1 $144 $354 $350 $355 forward $89 $-1 #
coedge $-1 $352 $147 $144 $242 forward $247 $-1 #
edge $-1 $249 5.6106448503567563 $356 14.370221056908356 $241 $357 forward 7 unknown #
coedge $-1 $358 $359 $145 $244 forward $236 $-1 #
edge $-1 $360 -90.680244070349872 $248 -79.38092953201766 $243 $361 forward 7 unknown #
edge $-1 $249 113.71355065279658 $360 129.97955259865105 $146 $362 forward 7 unknown #
coedge $-1 $147 $352 $358 $363 forward $247 $-1 #
loop $-1 $-1 $352 $235 #
vertex $-1 $244 $364 #
vertex $-1 $148 $365 #
straight-curve $-1 30.890848585564186 -15.601077803989313 13.729676049616572 -1 0 0 I I #
coedge $-1 $251 $251 $-1 $366 reversed $151 $-1 #
edge $-1 $367 0 $367 6.2831853071796004 $152 $368 forward 7 unknown #
vertex $-1 $155 $369 #
ellipse-curve $-1 59.139385067399765 -19.980865907265112 8.0800187804504553 0.69465837861970381 0 0.71933979245794832 1.0790096886869225 0 -1.0419875679295556 1 I I #
face $-1 $-1 $370 $34 $-1 $371 reversed single #
loop $-1 $-1 $262 $156 #
plane-surface $-1 0 0 13.729676049616574 0 0 1 1 0 0 forward_v I I I I #
coedge $-1 $372 $159 $161 $264 forward $98 $-1 #
coedge $-1 $159 $372 $373 $374 reversed $98 $-1 #
coedge $-1 $375 $162 $159 $261 forward $157 $-1 #
edge $-1 $267 13.465245571798906 $376 22.224821778350506 $260 $377 forward 7 unknown #
coedge $-1 $378 $379 $160 $263 forward $256 $-1 #
edge $-1 $380 22.398145249909803 $266 34.098927713761356 $262 $381 forward 7 unknown #
edge $-1 $267 -129.97955259865105 $380 -113.71355065279658 $161 $382 forward 7 unknown #
coedge $-1 $162 $375 $378 $383 reversed $157 $-1 #
vertex $-1 $383 $384 #
vertex $-1 $163 $385 #
straight-curve $-1 64.989776299325541 31.310279246873613 93.110605581634232 0 0 -1 I I #
coedge $-1 $269 $269 $-1 $386 reversed $166 $-1 #
edge $-1 $387 0 $387 6.2831853071796004 $167 $388 forward 7 unknown #
vertex $-1 $170 $389 #
ellipse-curve $-1 59.139385067399765 35.690067350149413 8.0800187804504553 0.69465837861970381 0 0.71933979245794832 1.0790096886869225 0 -1.0419875679295556 1 I I #
face $-1 $-1 $390 $36 $-1 $391 reversed single #
loop $-1 $-1 $177 $171 #
plane-surface $-1 0 0 13.729676049616574 0 0 1 1 0 0 forward_v I I I I #
coedge $-1 $392 $393 $394 $395 reversed $172 $-1 #
coedge $-1 $396 $174 $176 $283 forward $107 $-1 #
coedge $-1 $174 $396 $392 $397 forward $107 $-1 #
coedge $-1 $394 $177 $174 $280 forward $274 $-1 #
edge $-1 $286 -6.120521800913032 $398 0.55258894977704642 $279 $399 forward 7 unknown #
coedge $-1 $400 $401 $175 $282 forward $390 $-1 #
edge $-1 $402 -46.860180874520147 $285 -40.423226627357572 $281 $403 forward 7 unknown #
edge $-1 $286 -10.228421419005841 $402 0 $176 $404 forward 7 unknown #
coedge $-1 $177 $394 $400 $405 forward $274 $-1 #
vertex $-1 $282 $406 #
vertex $-1 $178 $407 #
straight-curve $-1 -73.394280092466573 -8.9044882264810248 13.729676049616572 1 0 0 I I #
coedge $-1 $288 $288 $-1 $408 reversed $181 $-1 #
edge $-1 $409 0 $409 6.2831853071796004 $182 $410 forward 7 unknown #
vertex $-1 $185 $411 #
ellipse-curve $-1 -61.015288132758897 -7.5698660763430112 10.511198926035286 -0.62932039886446345 0 0.77714595512881146 0.38857297756440573 0 0.31466019943223172 1 I I #
coedge $-1 $292 $292 $-1 $412 reversed $188 $-1 #
edge $-1 $413 0 $413 6.2831853071796004 $189 $414 forward 7 unknown #
vertex $-1 $192 $415 #
ellipse-curve $-1 -61.015288132758897 -5.5679328511359856 10.511198926035286 -0.62932039886446345 0 0.77714595512881146 0.38857297756440573 0 0.31466019943223172 1 I I #
coedge $-1 $296 $296 $-1 $416 reversed $195 $-1 #
edge $-1 $417 0 $417 6.2831853071796004 $196 $418 forward 7 unknown #
vertex $-1 $199 $419 #
ellipse-curve $-1 -61.015288132758897 -3.5659996259289599 10.511198926035286 -0.62932039886446345 0 0.77714595512881146 0.38857297756440573 0 0.31466019943223172 1 I I #
face $-1 $-1 $215 $30 $-1 $420 reversed single #
loop $-1 $-1 $316 $200 #
plane-surface $-1 0 40.069855453425212 0 0 -1 0 0 0 -1 forward_v I I I I #
coedge $-1 $421 $314 $317 $422 forward $201 $-1 #
coedge $-1 $320 $203 $204 $308 reversed $126 $-1 #
coedge $-1 $314 $421 $203 $306 reversed $201 $-1 #
edge $-1 $321 -13.729676049616574 $423 13.729676049616574 $305 $424 forward 7 unknown #
coedge $-1 $205 $204 $421 $425 forward $81 $-1 #
edge $-1 $312 -64.989776299325541 $423 64.989776299325541 $304 $426 forward 7 unknown #
coedge $-1 $317 $316 $205 $310 reversed $301 $-1 #
edge $-1 $427 -64.989776299325541 $311 64.989776299325541 $309 $428 forward 7 unknown #
vertex $-1 $207 $429 #
vertex $-1 $323 $430 #
straight-curve $-1 64.989776299325541 0 -13.729676049616574 0 -1 0 I I #
coedge $-1 $303 $305 $208 $315 reversed $201 $-1 #
edge $-1 $318 -40.069855453425212 $321 40.069855453425212 $314 $431 forward 7 unknown #
coedge $-1 $309 $209 $214 $324 forward $301 $-1 #
coedge $-1 $209 $309 $303 $422 reversed $301 $-1 #
vertex $-1 $210 $432 #
straight-curve $-1 0 40.069855453425212 13.729676049616574 -1 0 0 I I #
coedge $-1 $211 $304 $213 $323 reversed $126 $-1 #
vertex $-1 $315 $433 #
straight-curve $-1 0 -40.069855453425212 13.729676049616574 1 0 0 I I #
edge $-1 $216 -13.729676049616574 $312 13.729676049616574 $213 $434 forward 7 unknown #
edge $-1 $217 -13.729676049616574 $311 13.729676049616574 $214 $435 forward 7 unknown #
point $-1 64.989776299325541 -40.069855453425212 13.729676049616574 #
point $-1 64.989776299325541 40.069855453425212 13.729676049616574 #
face $-1 $-1 $341 $31 $-1 $436 reversed single #
loop $-1 $-1 $437 $219 #
plane-surface $-1 0 -55.779056896309513 11.219265938344021 0 1 0 0 0 1 forward_v I I I I #
coedge $-1 $438 $222 $231 $345 reversed $134 $-1 #
coedge $-1 $222 $438 $223 $333 reversed $134 $-1 #
coedge $-1 $224 $223 $439 $440 forward $85 $-1 #
edge $-1 $337 40.069855453425212 $441 55.779056896309513 $331 $442 forward 7 unknown #
coedge $-1 $443 $228 $224 $335 reversed $341 $-1 #
edge $-1 $444 -55.779056896309513 $336 -40.069855453425212 $334 $445 forward 7 unknown #
vertex $-1 $229 $446 #
vertex $-1 $333 $447 #
straight-curve $-1 0 -40.069855453425212 13.729676049616574 -1 0 0 I I #
straight-curve $-1 -64.989776299325541 -40.069855453425212 0 0 0 -1 I I #
coedge $-1 $228 $443 $230 $344 reversed $341 $-1 #
loop $-1 $-1 $228 $327 #
straight-curve $-1 64.989776299325541 -40.069855453425212 0 0 0 1 I I #
coedge $-1 $231 $230 $448 $449 forward $220 $-1 #
edge $-1 $232 -7.8546007214421536 $450 7.8546007214421536 $340 $451 forward 7 unknown #
edge $-1 $452 -7.8546007214421536 $233 7.8546007214421536 $330 $453 forward 7 unknown #
point $-1 64.989776299325541 -40.069855453425205 8.7088558270714671 #
point $-1 -64.989776299325541 -40.069855453425205 8.7088558270714671 #
plane-surface $-1 0 0 13.729676049616574 0 0 1 1 0 0 forward_v I I I I #
coedge $-1 $359 $358 $351 $454 forward $236 $-1 #
coedge $-1 $351 $238 $240 $355 reversed $142 $-1 #
coedge $-1 $238 $350 $349 $454 reversed $142 $-1 #
coedge $-1 $246 $241 $238 $353 forward $247 $-1 #
edge $-1 $356 22.398145249909803 $455 34.098927713761356 $352 $456 forward 7 unknown #
coedge $-1 $240 $239 $359 $457 reversed $89 $-1 #
edge $-1 $458 -129.97955259865105 $356 -113.71355065279658 $350 $459 forward 7 unknown #
vertex $-1 $242 $460 #
straight-curve $-1 53.288993835473988 -9.9904329536325562 13.729676049616572 0 -1 0 I I #
coedge $-1 $349 $243 $246 $363 reversed $236 $-1 #
coedge $-1 $243 $349 $354 $457 forward $236 $-1 #
vertex $-1 $244 $461 #
straight-curve $-1 64.989776299325541 -15.601077803989313 93.110605581634232 0 0 1 I I #
straight-curve $-1 -28.509688090765096 -15.601077803989313 92.721746773177813 0.71933979245794832 0 -0.69465837861970381 I I #
edge $-1 $455 -24.360654010540912 $248 -15.601077803989313 $358 $462 forward 7 unknown #
point $-1 64.989776299325541 -15.601077803989313 13.729676049616574 #
point $-1 53.288993835473988 -15.601077803989313 13.729676049616572 #
edge $-1 $463 1 $463 0 $251 $-1 forward 7 unknown #
vertex $-1 $252 $464 #
ellipse-curve $-1 56.735948061139929 -19.980865907265112 5.5911869596869552 0.69465837861970381 0 0.71933979245794832 1.0790096886869225 0 -1.0419875679295556 1 I I #
point $-1 60.218394756086681 -19.980865907265112 7.0380312125209006 #
loop $-1 $-1 $373 $255 #
plane-surface $-1 0 40.069855453425212 0 0 -1 0 0 0 -1 forward_v I I I I #
coedge $-1 $259 $258 $379 $465 reversed $98 $-1 #
coedge $-1 $466 $467 $259 $374 forward $370 $-1 #
edge $-1 $376 -87.520506903403927 $468 -71.254504957549443 $373 $469 forward 7 unknown #
coedge $-1 $265 $260 $467 $470 reversed $157 $-1 #
vertex $-1 $261 $471 #
straight-curve $-1 64.989776299325541 17.845033675074706 2.4303615112843673 0 1 0 I I #
coedge $-1 $472 $262 $265 $383 forward $256 $-1 #
coedge $-1 $262 $472 $372 $465 forward $256 $-1 #
vertex $-1 $263 $473 #
straight-curve $-1 30.890848585564186 31.310279246873613 13.729676049616572 1 0 0 I I #
straight-curve $-1 -28.509688090765096 31.310279246873613 92.721746773177813 -0.71933979245794832 0 0.69465837861970381 I I #
edge $-1 $266 31.310279246873613 $474 40.069855453425212 $265 $475 forward 7 unknown #
point $-1 64.989776299325541 31.310279246873613 13.729676049616574 #
point $-1 64.989776299325527 31.310279246873613 2.4303615112843602 #
edge $-1 $476 1 $476 0 $269 $-1 forward 7 unknown #
vertex $-1 $270 $477 #
ellipse-curve $-1 56.735948061139929 35.690067350149413 5.5911869596869552 0.69465837861970381 0 0.71933979245794832 1.0790096886869225 0 -1.0419875679295556 1 I I #
point $-1 60.218394756086681 35.690067350149413 7.0380312125209006 #
loop $-1 $-1 $281 $273 #
plane-surface $-1 -64.989776299325541 0 0 1 0 0 0 0 -1 forward_v I I I I #
coedge $-1 $393 $276 $278 $397 reversed $172 $-1 #
coedge $-1 $276 $392 $478 $479 reversed $172 $-1 #
coedge $-1 $284 $279 $276 $395 forward $274 $-1 #
edge $-1 $398 -16.35348012627432 $480 -8.404503793141032 $394 $481 forward 7 unknown #
coedge $-1 $278 $277 $401 $482 reversed $107 $-1 #
edge $-1 $483 0 $398 10.228421419005841 $392 $484 forward 7 unknown #
vertex $-1 $280 $485 #
straight-curve $-1 -57.040799966192253 -2.7839664255679928 13.729676049616572 0 1 0 I I #
coedge $-1 $478 $281 $284 $405 reversed $390 $-1 #
coedge $-1 $281 $478 $396 $482 forward $390 $-1 #
vertex $-1 $282 $486 #
straight-curve $-1 -64.989776299325541 -8.9044882264810248 54.152902676974144 0 0 1 I I #
straight-curve $-1 -64.989776299325541 -8.9044882264810248 7.2927218024539968 -0.77714595512881146 0 -0.62932039886446345 I I #
edge $-1 $480 2.2313774757909464 $285 8.9044882264810248 $400 $487 forward 7 unknown #
point $-1 -64.989776299325541 -8.9044882264810248 13.729676049616574 #
point $-1 -57.040799966192253 -8.9044882264810248 13.729676049616574 #
edge $-1 $488 1 $488 0 $288 $-1 forward 7 unknown #
vertex $-1 $289 $489 #
ellipse-curve $-1 -60.385967733894439 -7.5698660763430112 9.7340529709064825 -0.62932039886446345 0 0.77714595512881146 0.38857297756440573 0 0.31466019943223172 1 I I #
point $-1 -60.626715155194503 -7.5698660763430112 10.825859125467526 #
edge $-1 $490 1 $490 0 $292 $-1 forward 7 unknown #
vertex $-1 $293 $491 #
ellipse-curve $-1 -60.385967733894439 -5.5679328511359856 9.7340529709064825 -0.62932039886446345 0 0.77714595512881146 0.38857297756440573 0 0.31466019943223172 1 I I #
point $-1 -60.626715155194503 -5.5679328511359856 10.825859125467526 #
edge $-1 $492 1 $492 0 $296 $-1 forward 7 unknown #
vertex $-1 $297 $493 #
ellipse-curve $-1 -60.385967733894439 -3.5659996259289599 9.7340529709064825 -0.62932039886446345 0 0.77714595512881146 0.38857297756440573 0 0.31466019943223172 1 I I #
point $-1 -60.626715155194503 -3.5659996259289599 10.825859125467526 #
plane-surface $-1 64.989776299325541 0 0 -1 0 0 0 0 1 forward_v I I I I #
coedge $-1 $305 $303 $307 $425 reversed $201 $-1 #
edge $-1 $318 -13.729676049616574 $427 13.729676049616574 $317 $494 forward 7 unknown #
vertex $-1 $425 $495 #
straight-curve $-1 -64.989776299325541 -40.069855453425212 0 0 0 -1 I I #
edge $-1 $423 -40.069855453425212 $427 40.069855453425212 $421 $496 forward 7 unknown #
straight-curve $-1 0 -40.069855453425212 -13.729676049616574 -1 0 0 I I #
vertex $-1 $310 $497 #
straight-curve $-1 0 40.069855453425212 -13.729676049616574 1 0 0 I I #
point $-1 64.989776299325541 40.069855453425212 -13.729676049616574 #
point $-1 64.989776299325541 -40.069855453425212 -13.729676049616574 #
straight-curve $-1 -64.989776299325541 0 13.729676049616574 0 -1 0 I I #
point $-1 -64.989776299325541 40.069855453425212 13.729676049616574 #
point $-1 -64.989776299325541 -40.069855453425212 13.729676049616574 #
straight-curve $-1 64.989776299325541 -40.069855453425212 0 0 0 -1 I I #
straight-curve $-1 64.989776299325541 40.069855453425212 0 0 0 -1 I I #
plane-surface $-1 64.989776299325541 0 0 -1 0 0 0 0 1 forward_v I I I I #
coedge $-1 $448 $439 $438 $498 forward $328 $-1 #
coedge $-1 $331 $330 $437 $498 reversed $134 $-1 #
coedge $-1 $437 $499 $332 $440 reversed $328 $-1 #
edge $-1 $441 -64.989776299325541 $444 64.989776299325541 $439 $500 forward 7 unknown #
vertex $-1 $333 $501 #
straight-curve $-1 -64.989776299325541 0 13.729676049616574 0 -1 0 I I #
coedge $-1 $340 $334 $499 $502 forward $341 $-1 #
vertex $-1 $335 $503 #
straight-curve $-1 64.989776299325541 0 13.729676049616574 0 1 0 I I #
point $-1 64.989776299325541 -40.069855453425212 13.729676049616574 #
point $-1 -64.989776299325541 -40.069855453425212 13.729676049616574 #
coedge $-1 $499 $437 $343 $449 reversed $328 $-1 #
edge $-1 $450 -64.989776299325541 $452 64.989776299325541 $448 $504 forward 7 unknown #
vertex $-1 $502 $505 #
straight-curve $-1 64.989776299325541 -47.924456174867359 8.7088558270714671 0 -1 0 I I #
vertex $-1 $345 $506 #
straight-curve $-1 -64.989776299325541 -47.924456174867359 8.7088558270714671 0 1 0 I I #
edge $-1 $455 79.38092953201766 $458 90.680244070349872 $349 $507 forward 7 unknown #
vertex $-1 $363 $508 #
straight-curve $-1 30.890848585564186 -24.360654010540912 13.729676049616572 1 0 0 I I #
edge $-1 $458 -14.370221056908356 $360 -5.6106448503567563 $359 $509 forward 7 unknown #
vertex $-1 $457 $510 #
straight-curve $-1 -28.509688090765096 -24.360654010540912 92.721746773177813 -0.71933979245794832 0 0.69465837861970381 I I #
point $-1 53.288993835473988 -24.360654010540912 13.729676049616572 #
point $-1 64.989776299325527 -15.601077803989313 2.4303615112843602 #
straight-curve $-1 64.989776299325541 0 13.729676049616574 0 1 0 I I #
vertex $-1 $366 $511 #
point $-1 57.814957749826853 -19.980865907265112 4.5491993917573996 #
edge $-1 $468 -22.224821778350506 $380 -13.465245571798906 $379 $512 forward 7 unknown #
coedge $-1 $467 $373 $472 $513 reversed $370 $-1 #
coedge $-1 $373 $466 $375 $470 forward $370 $-1 #
vertex $-1 $374 $514 #
straight-curve $-1 2.0327930276165169 40.069855453425212 63.227214932777528 -0.71933979245794832 0 0.69465837861970381 I I #
edge $-1 $474 -13.729676049616574 $376 -2.430361511284362 $375 $515 forward 7 unknown #
point $-1 64.989776299325541 40.069855453425212 2.430361511284362 #
coedge $-1 $379 $378 $466 $513 forward $256 $-1 #
point $-1 53.288993835473988 31.310279246873613 13.729676049616572 #
vertex $-1 $383 $516 #
straight-curve $-1 64.989776299325541 0 13.729676049616574 0 1 0 I I #
vertex $-1 $386 $517 #
point $-1 57.814957749826853 35.690067350149413 4.5491993917573996 #
coedge $-1 $401 $400 $393 $479 forward $390 $-1 #
edge $-1 $480 40.423226627357572 $483 46.860180874520147 $478 $518 forward 7 unknown #
vertex $-1 $405 $519 #
straight-curve $-1 -73.394280092466573 -2.2313774757909464 13.729676049616572 -1 0 0 I I #
edge $-1 $483 -0.55258894977704642 $402 6.120521800913032 $401 $520 forward 7 unknown #
vertex $-1 $482 $521 #
straight-curve $-1 -64.989776299325541 -2.2313774757909464 7.2927218024539968 0.77714595512881146 0 0.62932039886446345 I I #
point $-1 -57.040799966192253 -2.2313774757909464 13.729676049616574 #
point $-1 -64.989776299325541 -8.9044882264810248 7.2927218024539968 #
straight-curve $-1 -64.989776299325541 0 13.729676049616574 0 -1 0 I I #
vertex $-1 $408 $522 #
point $-1 -59.997394756330038 -7.5698660763430112 10.048713170338715 #
vertex $-1 $412 $523 #
point $-1 -59.997394756330038 -5.5679328511359856 10.048713170338715 #
vertex $-1 $416 $524 #
point $-1 -59.997394756330038 -3.5659996259289599 10.048713170338715 #
straight-curve $-1 -64.989776299325541 40.069855453425212 0 0 0 -1 I I #
point $-1 -64.989776299325541 -40.069855453425212 -13.729676049616574 #
straight-curve $-1 -64.989776299325541 0 -13.729676049616574 0 1 0 I I #
point $-1 -64.989776299325541 40.069855453425212 -13.729676049616574 #
edge $-1 $441 -2.5104101112725541 $452 2.5104101112725541 $438 $525 forward 7 unknown #
coedge $-1 $439 $448 $443 $502 reversed $328 $-1 #
straight-curve $-1 0 -55.779056896309513 13.729676049616575 1 0 0 I I #
point $-1 -64.989776299325541 -55.779056896309513 13.729676049616575 #
edge $-1 $444 -2.5104101112725541 $450 2.5104101112725541 $443 $526 forward 7 unknown #
point $-1 64.989776299325541 -55.779056896309513 13.729676049616575 #
straight-curve $-1 0 -55.779056896309513 8.7088558270714671 -1 0 0 I I #
point $-1 64.989776299325541 -55.779056896309513 8.7088558270714671 #
point $-1 -64.989776299325541 -55.779056896309513 8.7088558270714671 #
straight-curve $-1 64.989776299325541 -24.360654010540912 93.110605581634232 0 0 -1 I I #
point $-1 64.989776299325541 -24.360654010540912 13.729676049616574 #
straight-curve $-1 64.989776299325541 -9.9904329536325562 2.4303615112843673 0 1 0 I I #
point $-1 64.989776299325527 -24.360654010540912 2.4303615112843602 #
point $-1 55.693960493210376 -19.980865907265112 4.5121772710000334 #
straight-curve $-1 53.288993835473988 17.845033675074706 13.729676049616572 0 -1 0 I I #
edge $-1 $474 -64.989776299325541 $468 -53.288993835473988 $466 $527 forward 7 unknown #
point $-1 53.288993835473988 40.069855453425212 13.729676049616572 #
straight-curve $-1 64.989776299325541 40.069855453425212 0 0 0 -1 I I #
point $-1 64.989776299325541 40.069855453425212 13.729676049616574 #
point $-1 55.693960493210376 35.690067350149413 4.5121772710000334 #
straight-curve $-1 -64.989776299325541 -2.2313774757909464 54.152902676974144 0 0 -1 I I #
point $-1 -64.989776299325541 -2.2313774757909464 13.729676049616574 #
straight-curve $-1 -64.989776299325541 -2.7839664255679928 7.2927218024540004 0 -1 0 I I #
point $-1 -64.989776299325541 -2.2313774757909464 7.2927218024539968 #
point $-1 -60.071307534462214 -7.5698660763430112 9.345479993342078 #
point $-1 -60.071307534462214 -5.5679328511359856 9.345479993342078 #
point $-1 -60.071307534462214 -3.5659996259289599 9.345479993342078 #
straight-curve $-1 -64.989776299325541 -55.779056896309513 11.219265938344021 0 0 -1 I I #
straight-curve $-1 64.989776299325541 -55.779056896309513 11.219265938344021 0 0 -1 I I #
straight-curve $-1 0 40.069855453425212 13.729676049616574 -1 0 0 I I #
End-of-ACIS-data 