500 0 9 0           
7 Unknown 11 ACIS 5.0 NT 24 Fri Mar 26 00:11:39 1999 
-1 9.9999999999999995e-007 1e-010 
body $-1 $9 $-1 $10 #
body $-1 $11 $-1 $12 #
body $-1 $13 $-1 $14 #
body $-1 $15 $-1 $16 #
body $-1 $17 $-1 $18 #
body $-1 $19 $-1 $20 #
body $-1 $21 $-1 $22 #
body $-1 $23 $-1 $24 #
body $-1 $25 $-1 $26 #
lump $-1 $-1 $27 $0 #
transform $-1 1 0 0 0 1 0 0 0 1 79.47019867549669 44.07276987002551 17.697435738451727 1 rotate no_reflect no_shear #
lump $-1 $-1 $28 $1 #
transform $-1 1 0 0 0 1 0 0 0 1 79.47019867549669 44.07276987002551 17.697435738451727 1 rotate no_reflect no_shear #
lump $-1 $-1 $29 $2 #
transform $-1 1 0 0 0 1 0 0 0 1 79.47019867549669 44.07276987002551 17.697435738451727 1 rotate no_reflect no_shear #
lump $-1 $-1 $30 $3 #
transform $-1 1 0 0 0 1 0 0 0 1 79.47019867549669 44.07276987002551 17.697435738451727 1 rotate no_reflect no_shear #
lump $-1 $-1 $31 $4 #
transform $-1 1 0 0 0 1 0 0 0 1 79.47019867549669 44.07276987002551 17.697435738451727 1 rotate no_reflect no_shear #
lump $-1 $-1 $32 $5 #
transform $-1 1 0 0 0 1 0 0 0 1 79.47019867549669 44.07276987002551 17.697435738451727 1 rotate no_reflect no_shear #
lump $-1 $-1 $33 $6 #
transform $-1 1 0 0 0 1 0 0 0 1 79.47019867549669 44.07276987002551 17.697435738451727 1 rotate no_reflect no_shear #
lump $-1 $-1 $34 $7 #
transform $-1 1 0 0 0 1 0 0 0 1 79.47019867549669 44.07276987002551 17.697435738451727 1 rotate no_reflect no_shear #
lump $-1 $-1 $35 $8 #
transform $-1 1 0 0 0 1 0 0 0 1 79.47019867549669 44.07276987002551 17.697435738451727 1 rotate no_reflect no_shear #
shell $-1 $-1 $-1 $36 $-1 $9 #
shell $-1 $-1 $-1 $37 $-1 $11 #
shell $-1 $-1 $-1 $38 $-1 $13 #
shell $-1 $-1 $-1 $39 $-1 $15 #
shell $-1 $-1 $-1 $40 $-1 $17 #
shell $-1 $-1 $-1 $41 $-1 $19 #
shell $-1 $-1 $-1 $42 $-1 $21 #
shell $-1 $-1 $-1 $43 $-1 $23 #
shell $-1 $-1 $-1 $44 $-1 $25 #
face $-1 $45 $46 $27 $-1 $47 forward single #
face $-1 $48 $49 $28 $-1 $50 forward single #
face $-1 $51 $52 $29 $-1 $53 reversed single #
face $-1 $54 $55 $30 $-1 $56 forward single #
face $-1 $57 $58 $31 $-1 $59 forward single #
face $-1 $60 $61 $32 $-1 $62 reversed single #
face $-1 $63 $64 $33 $-1 $65 forward single #
face $-1 $66 $67 $34 $-1 $68 reversed single #
face $-1 $69 $70 $35 $-1 $71 forward single #
face $-1 $72 $73 $27 $-1 $74 reversed single #
loop $-1 $-1 $75 $36 #
plane-surface $-1 0 0 17.697435738451727 0 0 1 1 0 0 forward_v I I I I #
face $-1 $76 $77 $28 $-1 $78 forward single #
loop $-1 $-1 $79 $37 #
plane-surface $-1 0 -44.07276987002551 0 0 1 0 0 0 1 forward_v I I I I #
face $-1 $80 $81 $29 $-1 $82 reversed single #
loop $-1 $-1 $83 $38 #
plane-surface $-1 -191.85803275085411 28.503367040701889 123.04299019314439 0 1 0 -0.70710678939079041 0 0.70710677298230451 forward_v I I I I #
face $-1 $84 $85 $30 $-1 $86 forward single #
loop $-1 $87 $88 $39 #
cone-surface $-1 -75.242838235122903 32.951767849080071 13.470075232757511 0.70710678939079041 0 -0.70710677298230451 0.70710677298230451 0 0.70710678939079041 1 I I 0 1 1 forward I I I I #
face $-1 $89 $90 $31 $-1 $91 forward single #
loop $-1 $92 $93 $40 #
cone-surface $-1 -75.242838235122903 39.624369061647343 13.470075232757511 0.70710678939079041 0 -0.70710677298230451 0.70710677298230451 0 0.70710678939079041 1 I I 0 1 1 forward I I I I #
face $-1 $94 $95 $32 $-1 $96 reversed single #
loop $-1 $-1 $97 $41 #
plane-surface $-1 133.84835708604521 -9.5891654640513906 222.77314209153329 0 -1 0 -0.85716730853699208 0 -0.51503806187062418 forward_v I I I I #
face $-1 $98 $99 $33 $-1 $100 forward single #
loop $-1 $101 $102 $42 #
cone-surface $-1 73.350114521611019 -17.067313629965781 9.8594364113290496 -0.85716730853699208 0 -0.51503806187062418 1.2875951546765605 0 -2.1429182713424804 1 I I 0 1 2.5 forward I I I I #
face $-1 $103 $104 $34 $-1 $105 reversed single #
loop $-1 $-1 $106 $43 #
plane-surface $-1 133.84835708604521 40.516902008669803 222.77314209153329 0 -1 0 -0.85716730853699208 0 -0.51503806187062418 forward_v I I I I #
face $-1 $107 $108 $35 $-1 $109 forward single #
loop $-1 $110 $111 $44 #
cone-surface $-1 73.350114521611019 33.038753842755412 9.8594364113290496 -0.85716730853699208 0 -0.51503806187062418 1.2875951546765605 0 -2.1429182713424804 1 I I 0 1 2.5 forward I I I I #
face $-1 $112 $113 $27 $-1 $114 reversed single #
loop $-1 $-1 $115 $45 #
plane-surface $-1 0 0 -17.697435738451727 0 0 1 1 0 0 forward_v I I I I #
coedge $-1 $116 $117 $118 $119 forward $46 $-1 #
face $-1 $120 $121 $28 $-1 $122 reversed single #
loop $-1 $-1 $123 $48 #
plane-surface $-1 0 0 17.697435738451727 0 0 1 1 0 0 forward_v I I I I #
coedge $-1 $124 $125 $126 $127 forward $49 $-1 #
face $-1 $128 $129 $29 $-1 $130 reversed single #
loop $-1 $-1 $131 $51 #
plane-surface $-1 -79.47019867549669 36.2880684553637 10.655158725758241 -0.70710678939079041 0 0.70710677298230451 0.70710677298230451 0 0.70710678939079041 forward_v I I I I #
coedge $-1 $132 $133 $134 $135 reversed $52 $-1 #
face $-1 $-1 $136 $30 $-1 $137 forward single #
loop $-1 $138 $139 $54 #
cone-surface $-1 -74.183062824692072 32.951767849080071 12.410299846918878 0.70710678939079041 0 -0.70710677298230451 0.35355338649115226 0 0.35355339469539521 1 I I -0.70710678118654746 0.70710678118654746 0.5 forward I I I I #
loop $-1 $-1 $140 $39 #
coedge $-1 $88 $88 $141 $142 reversed $55 $-1 #
face $-1 $-1 $143 $31 $-1 $144 forward single #
loop $-1 $145 $146 $57 #
cone-surface $-1 -74.183062824692072 39.624369061647343 12.410299846918878 0.70710678939079041 0 -0.70710677298230451 0.35355338649115226 0 0.35355339469539521 1 I I -0.70710678118654746 0.70710678118654746 0.5 forward I I I I #
loop $-1 $-1 $147 $40 #
coedge $-1 $93 $93 $148 $149 reversed $58 $-1 #
face $-1 $150 $151 $32 $-1 $152 reversed single #
loop $-1 $-1 $153 $60 #
plane-surface $-1 -2.3901555291058401 -17.067313629965785 140.91278788693077 0.85716730853699208 0 0.51503806187062418 0.51503806187062418 0 -0.85716730853699208 forward_v I I I I #
coedge $-1 $154 $155 $156 $157 reversed $61 $-1 #
face $-1 $-1 $158 $33 $-1 $159 forward single #
loop $-1 $160 $161 $63 #
cone-surface $-1 70.071123227085891 -17.067313629965781 7.8892197402041155 -0.85716730853699208 0 -0.51503806187062418 0.64379757733828025 0 -1.0714591356712402 1 I I -0.70710678118654746 0.70710678118654746 1.25 forward I I I I #
loop $-1 $-1 $162 $42 #
coedge $-1 $102 $102 $163 $164 reversed $64 $-1 #
face $-1 $165 $166 $34 $-1 $167 reversed single #
loop $-1 $-1 $168 $66 #
plane-surface $-1 -2.3901555291058401 33.038753842755412 140.91278788693077 0.85716730853699208 0 0.51503806187062418 0.51503806187062418 0 -0.85716730853699208 forward_v I I I I #
coedge $-1 $169 $170 $171 $172 reversed $67 $-1 #
face $-1 $-1 $173 $35 $-1 $174 forward single #
loop $-1 $175 $176 $69 #
cone-surface $-1 70.071123227085891 33.038753842755412 7.8892197402041155 -0.85716730853699208 0 -0.51503806187062418 0.64379757733828025 0 -1.0714591356712402 1 I I -0.70710678118654746 0.70710678118654746 1.25 forward I I I I #
loop $-1 $-1 $177 $44 #
coedge $-1 $111 $111 $178 $179 reversed $70 $-1 #
face $-1 $180 $181 $27 $-1 $182 reversed single #
loop $-1 $-1 $183 $72 #
plane-surface $-1 0 -44.07276987002551 0 0 1 0 0 0 1 forward_v I I I I #
coedge $-1 $184 $185 $186 $187 forward $73 $-1 #
coedge $-1 $188 $75 $189 $190 forward $46 $-1 #
coedge $-1 $75 $188 $191 $192 forward $46 $-1 #
coedge $-1 $193 $194 $75 $119 reversed $195 $-1 #
edge $-1 $196 -44.07276987002551 $197 44.07276987002551 $118 $198 forward 7 unknown #
face $-1 $199 $200 $28 $-1 $201 reversed single #
loop $-1 $-1 $202 $76 #
plane-surface $-1 -79.47019867549669 0 0 1 0 0 0 0 -1 forward_v I I I I #
coedge $-1 $203 $204 $125 $205 forward $77 $-1 #
coedge $-1 $206 $79 $207 $208 reversed $49 $-1 #
coedge $-1 $79 $206 $123 $205 reversed $49 $-1 #
coedge $-1 $209 $210 $79 $127 reversed $211 $-1 #
edge $-1 $212 -17.697435738451727 $213 17.697435738451727 $126 $214 forward 7 unknown #
face $-1 $215 $216 $29 $-1 $217 reversed single #
loop $-1 $-1 $218 $80 #
plane-surface $-1 0 44.07276987002551 0 0 -1 0 0 0 -1 forward_v I I I I #
coedge $-1 $219 $220 $221 $222 reversed $81 $-1 #
coedge $-1 $133 $83 $223 $224 reversed $52 $-1 #
coedge $-1 $83 $132 $219 $225 reversed $52 $-1 #
coedge $-1 $221 $226 $83 $135 forward $227 $-1 #
edge $-1 $228 16.458817699930364 $229 23.501094549207082 $134 $230 forward 7 unknown #
loop $-1 $-1 $141 $84 #
plane-surface $-1 -79.47019867549669 36.2880684553637 10.655158725758241 -0.70710678939079041 0 0.70710677298230451 0.70710677298230451 0 0.70710678939079041 forward_v I I I I #
loop $-1 $-1 $231 $54 #
coedge $-1 $139 $139 $140 $232 reversed $85 $-1 #
coedge $-1 $140 $140 $139 $232 forward $87 $-1 #
coedge $-1 $141 $141 $88 $142 forward $136 $-1 #
edge $-1 $233 0 $233 6.2831853071796004 $141 $234 forward 7 unknown #
loop $-1 $-1 $148 $89 #
plane-surface $-1 -79.47019867549669 36.2880684553637 10.655158725758241 -0.70710678939079041 0 0.70710677298230451 0.70710677298230451 0 0.70710678939079041 forward_v I I I I #
loop $-1 $-1 $235 $57 #
coedge $-1 $146 $146 $147 $236 reversed $90 $-1 #
coedge $-1 $147 $147 $146 $236 forward $92 $-1 #
coedge $-1 $148 $148 $93 $149 forward $143 $-1 #
edge $-1 $237 0 $237 6.2831853071796004 $148 $238 forward 7 unknown #
face $-1 $239 $240 $32 $-1 $241 reversed single #
loop $-1 $-1 $242 $94 #
plane-surface $-1 133.84835708604521 -24.545461795880179 222.77314209153329 0 1 0 0.85716730853699208 0 0.51503806187062418 forward_v I I I I #
coedge $-1 $243 $244 $245 $246 reversed $95 $-1 #
coedge $-1 $155 $97 $247 $248 reversed $61 $-1 #
coedge $-1 $97 $154 $243 $249 reversed $61 $-1 #
coedge $-1 $245 $250 $97 $157 forward $251 $-1 #
edge $-1 $252 -12.546020132474084 $253 -4.7209161424104735 $156 $254 forward 7 unknown #
loop $-1 $-1 $163 $98 #
plane-surface $-1 -2.3901555291058401 -17.067313629965785 140.91278788693077 0.85716730853699208 0 0.51503806187062418 0.51503806187062418 0 -0.85716730853699208 forward_v I I I I #
loop $-1 $-1 $255 $63 #
coedge $-1 $161 $161 $162 $256 reversed $99 $-1 #
coedge $-1 $162 $162 $161 $256 forward $101 $-1 #
coedge $-1 $163 $163 $102 $164 forward $158 $-1 #
edge $-1 $257 0 $257 6.2831853071796004 $163 $258 forward 7 unknown #
face $-1 $259 $260 $34 $-1 $261 reversed single #
loop $-1 $-1 $262 $103 #
plane-surface $-1 133.84835708604521 25.560605676841018 222.77314209153329 0 1 0 0.85716730853699208 0 0.51503806187062418 forward_v I I I I #
coedge $-1 $263 $264 $265 $266 reversed $104 $-1 #
coedge $-1 $170 $106 $267 $268 reversed $67 $-1 #
coedge $-1 $106 $169 $263 $269 reversed $67 $-1 #
coedge $-1 $265 $270 $106 $172 forward $271 $-1 #
edge $-1 $272 -12.546020132474084 $273 -4.7209161424104735 $171 $274 forward 7 unknown #
loop $-1 $-1 $178 $107 #
plane-surface $-1 -2.3901555291058401 33.038753842755412 140.91278788693077 0.85716730853699208 0 0.51503806187062418 0.51503806187062418 0 -0.85716730853699208 forward_v I I I I #
loop $-1 $-1 $275 $69 #
coedge $-1 $176 $176 $177 $276 reversed $108 $-1 #
coedge $-1 $177 $177 $176 $276 forward $110 $-1 #
coedge $-1 $178 $178 $111 $179 forward $173 $-1 #
edge $-1 $277 0 $277 6.2831853071796004 $178 $278 forward 7 unknown #
face $-1 $279 $280 $27 $-1 $281 reversed single #
loop $-1 $-1 $282 $112 #
plane-surface $-1 -79.47019867549669 0 0 1 0 0 0 0 -1 forward_v I I I I #
coedge $-1 $283 $191 $284 $285 forward $113 $-1 #
coedge $-1 $286 $115 $283 $287 forward $73 $-1 #
coedge $-1 $115 $286 $288 $289 forward $73 $-1 #
coedge $-1 $194 $193 $115 $187 reversed $195 $-1 #
edge $-1 $290 -44.07276987002551 $291 44.07276987002551 $186 $292 forward 7 unknown #
coedge $-1 $117 $116 $293 $294 forward $46 $-1 #
coedge $-1 $295 $296 $116 $190 reversed $280 $-1 #
edge $-1 $197 -79.47019867549669 $297 79.47019867549669 $189 $298 forward 7 unknown #
coedge $-1 $183 $299 $117 $192 reversed $113 $-1 #
edge $-1 $300 -79.47019867549669 $196 79.47019867549669 $191 $301 forward 7 unknown #
coedge $-1 $186 $118 $299 $302 forward $195 $-1 #
coedge $-1 $118 $186 $295 $303 reversed $195 $-1 #
loop $-1 $-1 $193 $279 #
vertex $-1 $119 $304 #
vertex $-1 $119 $305 #
straight-curve $-1 79.47019867549669 0 17.697435738451727 0 1 0 I I #
face $-1 $306 $211 $28 $-1 $307 reversed single #
loop $-1 $-1 $308 $120 #
plane-surface $-1 -75.696146375634655 -60.044210082815127 0 0 1 0 0 0 1 forward_v I I I I #
coedge $-1 $309 $310 $206 $311 forward $121 $-1 #
coedge $-1 $312 $123 $310 $313 forward $77 $-1 #
coedge $-1 $123 $312 $209 $314 forward $77 $-1 #
edge $-1 $212 71.92209407577262 $315 79.47019867549669 $123 $316 forward 7 unknown #
coedge $-1 $125 $124 $202 $311 reversed $49 $-1 #
coedge $-1 $317 $318 $124 $208 forward $319 $-1 #
edge $-1 $320 -79.47019867549669 $213 -71.92209407577262 $207 $321 forward 7 unknown #
coedge $-1 $322 $126 $204 $314 reversed $211 $-1 #
coedge $-1 $126 $322 $317 $323 reversed $211 $-1 #
loop $-1 $-1 $322 $199 #
vertex $-1 $205 $324 #
vertex $-1 $323 $325 #
straight-curve $-1 -71.92209407577262 -44.07276987002551 0 0 0 -1 I I #
face $-1 $-1 $227 $29 $-1 $326 forward single #
loop $-1 $-1 $327 $128 #
plane-surface $-1 -79.47019867549669 0 0 1 0 0 0 0 -1 forward_v I I I I #
coedge $-1 $328 $329 $220 $330 forward $129 $-1 #
coedge $-1 $331 $131 $133 $225 forward $81 $-1 #
coedge $-1 $131 $331 $218 $330 reversed $81 $-1 #
coedge $-1 $332 $134 $131 $222 forward $227 $-1 #
edge $-1 $229 10.359332813020039 $333 25.928735642343661 $221 $334 forward 7 unknown #
coedge $-1 $335 $327 $132 $224 forward $216 $-1 #
edge $-1 $336 -50.866336370813954 $228 -43.824059358120465 $223 $337 forward 7 unknown #
edge $-1 $229 -9.9592835457863114 $336 0 $133 $338 forward 7 unknown #
coedge $-1 $134 $332 $335 $339 forward $227 $-1 #
loop $-1 $-1 $221 $215 #
vertex $-1 $224 $340 #
vertex $-1 $135 $341 #
straight-curve $-1 -95.929016375427054 28.503367040701889 17.69743573845173 1 0 0 I I #
coedge $-1 $231 $231 $-1 $342 reversed $138 $-1 #
edge $-1 $343 0 $343 6.2831853071796004 $139 $344 forward 7 unknown #
vertex $-1 $142 $345 #
ellipse-curve $-1 -75.949060250858324 32.951767849080071 14.176297232104982 -0.70710678939079041 0 0.70710677298230451 0.70710677298230451 0 0.70710678939079041 1 I I #
coedge $-1 $235 $235 $-1 $346 reversed $145 $-1 #
edge $-1 $347 0 $347 6.2831853071796004 $146 $348 forward 7 unknown #
vertex $-1 $149 $349 #
ellipse-curve $-1 -75.949060250858324 39.624369061647343 14.176297232104982 -0.70710678939079041 0 0.70710677298230451 0.70710677298230451 0 0.70710678939079041 1 I I #
face $-1 $-1 $251 $32 $-1 $350 forward single #
loop $-1 $-1 $351 $150 #
plane-surface $-1 79.47019867549669 0 0 -1 0 0 0 0 1 forward_v I I I I #
coedge $-1 $352 $353 $354 $355 reversed $151 $-1 #
coedge $-1 $356 $153 $155 $249 forward $95 $-1 #
coedge $-1 $153 $356 $352 $357 forward $95 $-1 #
coedge $-1 $354 $156 $153 $246 forward $251 $-1 #
edge $-1 $253 1.0555086490684982 $358 16.011804980897288 $245 $359 forward 7 unknown #
coedge $-1 $360 $361 $154 $248 forward $240 $-1 #
edge $-1 $362 -106.71229577398695 $252 -93.689135307314913 $247 $363 forward 7 unknown #
edge $-1 $253 143.74714355215232 $362 158.94039735099344 $155 $364 forward 7 unknown #
coedge $-1 $156 $354 $360 $365 forward $251 $-1 #
loop $-1 $-1 $354 $239 #
vertex $-1 $248 $366 #
vertex $-1 $157 $367 #
straight-curve $-1 66.924178543022606 -9.5891654640513906 17.69743573845173 -1 0 0 I I #
coedge $-1 $255 $255 $-1 $368 reversed $160 $-1 #
edge $-1 $369 0 $369 6.2831853071796004 $161 $370 forward 7 unknown #
vertex $-1 $164 $371 #
ellipse-curve $-1 75.557646680464899 -17.067313629965781 11.185855505115695 0.85716730853699208 0 0.51503806187062418 1.2875951546765605 0 -2.1429182713424804 1 I I #
face $-1 $-1 $271 $34 $-1 $372 forward single #
loop $-1 $-1 $373 $165 #
plane-surface $-1 79.47019867549669 0 0 -1 0 0 0 0 1 forward_v I I I I #
coedge $-1 $374 $375 $376 $377 reversed $166 $-1 #
coedge $-1 $378 $168 $170 $269 forward $104 $-1 #
coedge $-1 $168 $378 $374 $379 forward $104 $-1 #
coedge $-1 $376 $171 $168 $266 forward $271 $-1 #
edge $-1 $273 -23.997525087292097 $380 -9.0412287554633117 $265 $381 forward 7 unknown #
coedge $-1 $382 $383 $169 $268 forward $260 $-1 #
edge $-1 $384 -106.71229577398695 $272 -93.689135307314913 $267 $385 forward 7 unknown #
edge $-1 $273 143.74714355215232 $384 158.94039735099344 $170 $386 forward 7 unknown #
coedge $-1 $171 $376 $382 $387 forward $271 $-1 #
loop $-1 $-1 $376 $259 #
vertex $-1 $268 $388 #
vertex $-1 $172 $389 #
straight-curve $-1 66.924178543022606 40.516902008669803 17.69743573845173 -1 0 0 I I #
coedge $-1 $275 $275 $-1 $390 reversed $175 $-1 #
edge $-1 $391 0 $391 6.2831853071796004 $176 $392 forward 7 unknown #
vertex $-1 $179 $393 #
ellipse-curve $-1 75.557646680464899 33.038753842755412 11.185855505115695 0.85716730853699208 0 0.51503806187062418 1.2875951546765605 0 -2.1429182713424804 1 I I #
face $-1 $-1 $195 $27 $-1 $394 reversed single #
loop $-1 $-1 $295 $180 #
plane-surface $-1 0 44.07276987002551 0 0 -1 0 0 0 -1 forward_v I I I I #
coedge $-1 $395 $293 $296 $396 forward $181 $-1 #
coedge $-1 $299 $183 $184 $287 reversed $113 $-1 #
coedge $-1 $293 $395 $183 $285 reversed $181 $-1 #
edge $-1 $300 -17.697435738451727 $397 17.697435738451727 $284 $398 forward 7 unknown #
coedge $-1 $185 $184 $395 $399 forward $73 $-1 #
edge $-1 $291 -79.47019867549669 $397 79.47019867549669 $283 $400 forward 7 unknown #
coedge $-1 $296 $295 $185 $289 reversed $280 $-1 #
edge $-1 $401 -79.47019867549669 $290 79.47019867549669 $288 $402 forward 7 unknown #
vertex $-1 $187 $403 #
vertex $-1 $302 $404 #
straight-curve $-1 79.47019867549669 0 -17.697435738451727 0 -1 0 I I #
coedge $-1 $282 $284 $188 $294 reversed $181 $-1 #
edge $-1 $297 -44.07276987002551 $300 44.07276987002551 $293 $405 forward 7 unknown #
coedge $-1 $288 $189 $194 $303 forward $280 $-1 #
coedge $-1 $189 $288 $282 $396 reversed $280 $-1 #
vertex $-1 $190 $406 #
straight-curve $-1 0 44.07276987002551 17.697435738451727 -1 0 0 I I #
coedge $-1 $191 $283 $193 $302 reversed $113 $-1 #
vertex $-1 $294 $407 #
straight-curve $-1 0 -44.07276987002551 17.697435738451727 1 0 0 I I #
edge $-1 $196 -17.697435738451727 $291 17.697435738451727 $193 $408 forward 7 unknown #
edge $-1 $197 -17.697435738451727 $290 17.697435738451727 $194 $409 forward 7 unknown #
point $-1 79.47019867549669 -44.07276987002551 17.697435738451727 #
point $-1 79.47019867549669 44.07276987002551 17.697435738451727 #
face $-1 $-1 $319 $28 $-1 $410 reversed single #
plane-surface $-1 -71.92209407577262 -52.058489976420319 0 -1 0 0 0 0 1 forward_v I I I I #
coedge $-1 $411 $412 $413 $414 forward $200 $-1 #
coedge $-1 $413 $202 $318 $415 reversed $121 $-1 #
coedge $-1 $202 $413 $203 $313 reversed $121 $-1 #
edge $-1 $315 -17.697435738451727 $320 17.697435738451727 $202 $416 forward 7 unknown #
coedge $-1 $204 $203 $412 $417 forward $77 $-1 #
edge $-1 $315 44.07276987002551 $418 60.044210082815127 $310 $419 forward 7 unknown #
edge $-1 $420 -7.9857201063948082 $212 7.9857201063948082 $209 $421 forward 7 unknown #
vertex $-1 $313 $422 #
straight-curve $-1 0 -44.07276987002551 17.697435738451727 -1 0 0 I I #
coedge $-1 $423 $207 $210 $323 forward $319 $-1 #
coedge $-1 $207 $423 $309 $415 forward $319 $-1 #
loop $-1 $-1 $207 $306 #
vertex $-1 $311 $424 #
straight-curve $-1 0 -44.07276987002551 -17.697435738451727 1 0 0 I I #
coedge $-1 $210 $209 $425 $426 forward $211 $-1 #
edge $-1 $213 -7.9857201063948082 $427 7.9857201063948082 $210 $428 forward 7 unknown #
point $-1 -71.92209407577262 -44.07276987002551 17.697435738451727 #
point $-1 -71.92209407577262 -44.07276987002551 -17.697435738451727 #
plane-surface $-1 0 0 17.697435738451727 0 0 1 1 0 0 forward_v I I I I #
coedge $-1 $223 $429 $331 $430 forward $216 $-1 #
coedge $-1 $329 $218 $429 $431 reversed $129 $-1 #
coedge $-1 $218 $328 $332 $432 reversed $129 $-1 #
edge $-1 $333 14.370506782550144 $433 24.329790328336451 $218 $434 forward 7 unknown #
coedge $-1 $220 $219 $327 $430 reversed $81 $-1 #
coedge $-1 $226 $221 $329 $432 forward $227 $-1 #
vertex $-1 $432 $435 #
straight-curve $-1 -72.427921826219972 18.14403422768185 17.697435738451723 0 1 0 I I #
coedge $-1 $429 $223 $226 $339 reversed $216 $-1 #
vertex $-1 $224 $436 #
straight-curve $-1 -79.47019867549669 28.503367040701889 61.521495096572195 0 0 1 I I #
straight-curve $-1 -79.47019867549669 28.503367040701889 10.655158725758241 -0.70710677298230451 0 -0.70710678939079041 I I #
edge $-1 $437 -44.07276987002551 $228 -28.503367040701889 $335 $438 forward 7 unknown #
point $-1 -79.47019867549669 28.503367040701889 17.697435738451727 #
point $-1 -72.427921826219972 28.503367040701889 17.697435738451727 #
edge $-1 $439 1 $439 0 $231 $-1 forward 7 unknown #
vertex $-1 $232 $440 #
ellipse-curve $-1 -74.536616219387469 32.951767849080071 12.76385323341003 -0.70710678939079041 0 0.70710677298230451 0.70710677298230451 0 0.70710678939079041 1 I I #
point $-1 -75.241953477876038 32.951767849080071 14.883404021495782 #
edge $-1 $441 1 $441 0 $235 $-1 forward 7 unknown #
vertex $-1 $236 $442 #
ellipse-curve $-1 -74.536616219387469 39.624369061647343 12.76385323341003 -0.70710678939079041 0 0.70710677298230451 0.70710677298230451 0 0.70710678939079041 1 I I #
point $-1 -75.241953477876038 39.624369061647343 14.883404021495782 #
plane-surface $-1 0 0 17.697435738451727 0 0 1 1 0 0 forward_v I I I I #
coedge $-1 $361 $360 $353 $443 forward $240 $-1 #
coedge $-1 $353 $242 $244 $357 reversed $151 $-1 #
coedge $-1 $242 $352 $351 $443 reversed $151 $-1 #
coedge $-1 $250 $245 $242 $355 forward $251 $-1 #
edge $-1 $358 4.7209161424104735 $444 12.546020132474084 $354 $445 forward 7 unknown #
coedge $-1 $244 $243 $361 $446 reversed $95 $-1 #
edge $-1 $447 -158.94039735099344 $358 -143.74714355215232 $352 $448 forward 7 unknown #
vertex $-1 $246 $449 #
straight-curve $-1 71.645094685433079 -8.5336568149828924 17.697435738451716 0 -1 0 I I #
coedge $-1 $351 $247 $250 $365 reversed $240 $-1 #
coedge $-1 $247 $351 $356 $446 forward $240 $-1 #
vertex $-1 $248 $450 #
straight-curve $-1 79.47019867549669 -9.5891654640513906 111.38657104576664 0 0 1 I I #
straight-curve $-1 -2.3901555291058401 -9.5891654640513906 140.91278788693077 0.51503806187062418 0 -0.85716730853699208 I I #
edge $-1 $444 -24.545461795880179 $252 -9.5891654640513906 $360 $451 forward 7 unknown #
point $-1 79.47019867549669 -9.5891654640513906 17.697435738451727 #
point $-1 71.645094685433079 -9.5891654640513906 17.697435738451745 #
edge $-1 $452 1 $452 0 $255 $-1 forward 7 unknown #
vertex $-1 $256 $453 #
ellipse-curve $-1 71.142582362757125 -17.067313629965781 8.5330173175423951 0.85716730853699208 0 0.51503806187062418 1.2875951546765605 0 -2.1429182713424804 1 I I #
point $-1 76.845241835141465 -17.067313629965781 9.0429372337732232 #
plane-surface $-1 0 0 17.697435738451727 0 0 1 1 0 0 forward_v I I I I #
coedge $-1 $383 $382 $375 $454 forward $260 $-1 #
coedge $-1 $375 $262 $264 $379 reversed $166 $-1 #
coedge $-1 $262 $374 $373 $454 reversed $166 $-1 #
coedge $-1 $270 $265 $262 $377 forward $271 $-1 #
edge $-1 $380 4.7209161424104735 $455 12.546020132474084 $376 $456 forward 7 unknown #
coedge $-1 $264 $263 $383 $457 reversed $104 $-1 #
edge $-1 $458 -158.94039735099344 $380 -143.74714355215232 $374 $459 forward 7 unknown #
vertex $-1 $266 $460 #
straight-curve $-1 71.645094685433079 16.519376921377706 17.697435738451716 0 -1 0 I I #
coedge $-1 $373 $267 $270 $387 reversed $260 $-1 #
coedge $-1 $267 $373 $378 $457 forward $260 $-1 #
vertex $-1 $268 $461 #
straight-curve $-1 79.47019867549669 40.516902008669803 111.38657104576664 0 0 1 I I #
straight-curve $-1 -2.3901555291058401 40.516902008669803 140.91278788693077 0.51503806187062418 0 -0.85716730853699208 I I #
edge $-1 $455 25.560605676841018 $272 40.516902008669803 $382 $462 forward 7 unknown #
point $-1 79.47019867549669 40.516902008669803 17.697435738451727 #
point $-1 71.645094685433079 40.516902008669803 17.697435738451745 #
edge $-1 $463 1 $463 0 $275 $-1 forward 7 unknown #
vertex $-1 $276 $464 #
ellipse-curve $-1 71.142582362757125 33.038753842755412 8.5330173175423951 0.85716730853699208 0 0.51503806187062418 1.2875951546765605 0 -2.1429182713424804 1 I I #
point $-1 76.845241835141465 33.038753842755412 9.0429372337732232 #
plane-surface $-1 79.47019867549669 0 0 -1 0 0 0 0 1 forward_v I I I I #
coedge $-1 $284 $282 $286 $399 reversed $181 $-1 #
edge $-1 $297 -17.697435738451727 $401 17.697435738451727 $296 $465 forward 7 unknown #
vertex $-1 $399 $466 #
straight-curve $-1 -79.47019867549669 -44.07276987002551 0 0 0 -1 I I #
edge $-1 $397 -44.07276987002551 $401 44.07276987002551 $395 $467 forward 7 unknown #
straight-curve $-1 0 -44.07276987002551 -17.697435738451727 -1 0 0 I I #
vertex $-1 $289 $468 #
straight-curve $-1 0 44.07276987002551 -17.697435738451727 1 0 0 I I #
point $-1 79.47019867549669 44.07276987002551 -17.697435738451727 #
point $-1 79.47019867549669 -44.07276987002551 -17.697435738451727 #
straight-curve $-1 -79.47019867549669 0 17.697435738451727 0 -1 0 I I #
point $-1 -79.47019867549669 44.07276987002551 17.697435738451727 #
point $-1 -79.47019867549669 -44.07276987002551 17.697435738451727 #
straight-curve $-1 79.47019867549669 -44.07276987002551 0 0 0 -1 I I #
straight-curve $-1 79.47019867549669 44.07276987002551 0 0 0 -1 I I #
plane-surface $-1 0 0 -17.697435738451727 0 0 1 1 0 0 forward_v I I I I #
coedge $-1 $425 $308 $423 $469 reversed $200 $-1 #
coedge $-1 $308 $425 $312 $417 reversed $200 $-1 #
coedge $-1 $310 $309 $308 $414 reversed $121 $-1 #
edge $-1 $418 -17.697435738451727 $470 17.697435738451727 $413 $471 forward 7 unknown #
edge $-1 $470 -60.044210082815127 $320 -44.07276987002551 $309 $472 forward 7 unknown #
straight-curve $-1 -79.47019867549669 -44.07276987002551 0 0 0 -1 I I #
edge $-1 $418 -3.7740522998620349 $420 3.7740522998620349 $412 $473 forward 7 unknown #
vertex $-1 $313 $474 #
straight-curve $-1 -79.47019867549669 0 17.697435738451727 0 -1 0 I I #
vertex $-1 $314 $475 #
straight-curve $-1 -71.92209407577262 -52.058489976420319 17.697435738451727 0 1 0 I I #
point $-1 -79.47019867549669 -44.07276987002551 17.697435738451727 #
coedge $-1 $318 $317 $411 $469 forward $319 $-1 #
point $-1 -79.47019867549669 -44.07276987002551 -17.697435738451727 #
coedge $-1 $412 $411 $322 $426 reversed $200 $-1 #
edge $-1 $420 -17.697435738451727 $427 17.697435738451727 $322 $476 forward 7 unknown #
vertex $-1 $426 $477 #
straight-curve $-1 -71.92209407577262 -52.058489976420319 -17.697435738451727 0 -1 0 I I #
coedge $-1 $327 $335 $328 $431 forward $216 $-1 #
edge $-1 $433 -25.928735642343661 $336 -10.359332813020039 $327 $478 forward 7 unknown #
edge $-1 $437 -17.697435738451727 $433 -10.655158725758241 $328 $479 forward 7 unknown #
edge $-1 $333 72.427921826219972 $437 79.47019867549669 $329 $480 forward 7 unknown #
vertex $-1 $430 $481 #
straight-curve $-1 -62.266439149090616 44.07276987002551 27.85891865137933 -0.70710677298230462 0 -0.70710678939079052 I I #
point $-1 -72.427921826219972 44.07276987002551 17.697435738451727 #
point $-1 -79.47019867549669 28.503367040701889 10.655158725758241 #
vertex $-1 $432 $482 #
straight-curve $-1 -79.47019867549669 0 17.697435738451727 0 -1 0 I I #
vertex $-1 $342 $483 #
point $-1 -73.829509446405169 32.951767849080071 13.470960022800821 #
vertex $-1 $346 $484 #
point $-1 -73.829509446405169 39.624369061647343 13.470960022800821 #
edge $-1 $444 93.689135307314913 $447 106.71229577398695 $351 $485 forward 7 unknown #
vertex $-1 $365 $486 #
straight-curve $-1 66.924178543022606 -24.545461795880179 17.69743573845173 1 0 0 I I #
edge $-1 $447 -16.011804980897288 $362 -1.0555086490684982 $361 $487 forward 7 unknown #
vertex $-1 $446 $488 #
straight-curve $-1 -2.3901555291058401 -24.545461795880179 140.91278788693077 -0.51503806187062418 0 0.85716730853699208 I I #
point $-1 71.645094685433079 -24.545461795880179 17.697435738451745 #
point $-1 79.47019867549669 -9.5891654640513906 4.6742752717796918 #
straight-curve $-1 79.47019867549669 0 17.697435738451727 0 1 0 I I #
vertex $-1 $368 $489 #
point $-1 72.430177517433691 -17.067313629965781 6.3900990461999152 #
edge $-1 $455 93.689135307314913 $458 106.71229577398695 $373 $490 forward 7 unknown #
vertex $-1 $387 $491 #
straight-curve $-1 66.924178543022606 25.560605676841018 17.69743573845173 1 0 0 I I #
edge $-1 $458 9.0412287554633117 $384 23.997525087292097 $383 $492 forward 7 unknown #
vertex $-1 $457 $493 #
straight-curve $-1 -2.3901555291058401 25.560605676841018 140.91278788693077 -0.51503806187062418 0 0.85716730853699208 I I #
point $-1 71.645094685433079 25.560605676841018 17.697435738451745 #
point $-1 79.47019867549669 40.516902008669803 4.6742752717796918 #
straight-curve $-1 79.47019867549669 0 17.697435738451727 0 1 0 I I #
vertex $-1 $390 $494 #
point $-1 72.430177517433691 33.038753842755412 6.3900990461999152 #
straight-curve $-1 -79.47019867549669 44.07276987002551 0 0 0 -1 I I #
point $-1 -79.47019867549669 -44.07276987002551 -17.697435738451727 #
straight-curve $-1 -79.47019867549669 0 -17.697435738451727 0 1 0 I I #
point $-1 -79.47019867549669 44.07276987002551 -17.697435738451727 #
edge $-1 $427 -3.7740522998620349 $470 3.7740522998620349 $411 $495 forward 7 unknown #
vertex $-1 $415 $496 #
straight-curve $-1 -79.47019867549669 -60.044210082815127 0 0 0 -1 I I #
straight-curve $-1 -79.47019867549669 0 -17.697435738451727 0 1 0 I I #
straight-curve $-1 -75.696146375634655 -60.044210082815127 17.697435738451727 1 0 0 I I #
point $-1 -79.47019867549669 -60.044210082815127 17.697435738451727 #
point $-1 -71.92209407577262 -60.044210082815127 17.697435738451727 #
straight-curve $-1 -71.92209407577262 -60.044210082815127 0 0 0 -1 I I #
point $-1 -71.92209407577262 -60.044210082815127 -17.697435738451727 #
straight-curve $-1 -79.47019867549669 18.14403422768185 10.655158725758234 0 -1 0 I I #
straight-curve $-1 -79.47019867549669 44.07276987002551 0 0 0 -1 I I #
straight-curve $-1 0 44.07276987002551 17.697435738451727 -1 0 0 I I #
point $-1 -79.47019867549669 44.07276987002551 10.655158725758241 #
point $-1 -79.47019867549669 44.07276987002551 17.697435738451727 #
point $-1 -73.829509429996676 32.951767849080071 12.056746460427727 #
point $-1 -73.829509429996676 39.624369061647343 12.056746460427727 #
straight-curve $-1 79.47019867549669 -24.545461795880179 111.38657104576664 0 0 -1 I I #
point $-1 79.47019867549669 -24.545461795880179 17.697435738451727 #
straight-curve $-1 79.470198675496704 -8.5336568149828924 4.6742752717796918 0 1 0 I I #
point $-1 79.47019867549669 -24.545461795880179 4.6742752717796918 #
point $-1 68.999664091414658 -17.067313629965781 7.2454221628658351 #
straight-curve $-1 79.47019867549669 25.560605676841018 111.38657104576664 0 0 -1 I I #
point $-1 79.47019867549669 25.560605676841018 17.697435738451727 #
straight-curve $-1 79.470198675496704 16.519376921377706 4.6742752717796918 0 1 0 I I #
point $-1 79.47019867549669 25.560605676841018 4.6742752717796918 #
point $-1 68.999664091414658 33.038753842755412 7.2454221628658351 #
straight-curve $-1 -75.696146375634655 -60.044210082815127 -17.697435738451727 -1 0 0 I I #
point $-1 -79.47019867549669 -60.044210082815127 -17.697435738451727 #
End-of-ACIS-data 