500 0 10 0           
7 Unknown 11 ACIS 5.0 NT 24 Fri Mar 26 01:41:36 1999 
-1 9.9999999999999995e-007 1e-010 
body $-1 $10 $-1 $11 #
body $-1 $12 $-1 $13 #
body $-1 $14 $-1 $15 #
body $-1 $16 $-1 $17 #
body $-1 $18 $-1 $19 #
body $-1 $20 $-1 $21 #
body $-1 $22 $-1 $23 #
body $-1 $24 $-1 $25 #
body $-1 $26 $-1 $27 #
body $-1 $28 $-1 $29 #
lump $-1 $-1 $30 $0 #
transform $-1 1 0 0 0 1 0 0 0 1 63.856929227576529 41.72049704266125 14.805193260364414 1 rotate no_reflect no_shear #
lump $-1 $-1 $31 $1 #
transform $-1 1 0 0 0 1 0 0 0 1 63.856929227576529 41.72049704266125 14.805193260364414 1 rotate no_reflect no_shear #
lump $-1 $-1 $32 $2 #
transform $-1 1 0 0 0 1 0 0 0 1 63.856929227576529 41.72049704266125 14.805193260364414 1 rotate no_reflect no_shear #
lump $-1 $-1 $33 $3 #
transform $-1 1 0 0 0 1 0 0 0 1 63.856929227576529 41.72049704266125 14.805193260364414 1 rotate no_reflect no_shear #
lump $-1 $-1 $34 $4 #
transform $-1 1 0 0 0 1 0 0 0 1 63.856929227576529 41.72049704266125 14.805193260364414 1 rotate no_reflect no_shear #
lump $-1 $-1 $35 $5 #
transform $-1 1 0 0 0 1 0 0 0 1 63.856929227576529 41.72049704266125 14.805193260364414 1 rotate no_reflect no_shear #
lump $-1 $-1 $36 $6 #
transform $-1 1 0 0 0 1 0 0 0 1 63.856929227576529 41.72049704266125 14.805193260364414 1 rotate no_reflect no_shear #
lump $-1 $-1 $37 $7 #
transform $-1 1 0 0 0 1 0 0 0 1 63.856929227576529 41.72049704266125 14.805193260364414 1 rotate no_reflect no_shear #
lump $-1 $-1 $38 $8 #
transform $-1 1 0 0 0 1 0 0 0 1 63.856929227576529 41.72049704266125 14.805193260364414 1 rotate no_reflect no_shear #
lump $-1 $-1 $39 $9 #
transform $-1 1 0 0 0 1 0 0 0 1 63.856929227576529 41.72049704266125 14.805193260364414 1 rotate no_reflect no_shear #
shell $-1 $-1 $-1 $40 $-1 $10 #
shell $-1 $-1 $-1 $41 $-1 $12 #
shell $-1 $-1 $-1 $42 $-1 $14 #
shell $-1 $-1 $-1 $43 $-1 $16 #
shell $-1 $-1 $-1 $44 $-1 $18 #
shell $-1 $-1 $-1 $45 $-1 $20 #
shell $-1 $-1 $-1 $46 $-1 $22 #
shell $-1 $-1 $-1 $47 $-1 $24 #
shell $-1 $-1 $-1 $48 $-1 $26 #
shell $-1 $-1 $-1 $49 $-1 $28 #
face $-1 $50 $51 $30 $-1 $52 forward single #
face $-1 $53 $54 $31 $-1 $55 reversed single #
face $-1 $56 $57 $32 $-1 $58 reversed single #
face $-1 $59 $60 $33 $-1 $61 forward single #
face $-1 $62 $63 $34 $-1 $64 forward single #
face $-1 $65 $66 $35 $-1 $67 forward single #
face $-1 $68 $69 $36 $-1 $70 reversed single #
face $-1 $71 $72 $37 $-1 $73 forward single #
face $-1 $74 $75 $38 $-1 $76 forward single #
face $-1 $77 $78 $39 $-1 $79 forward single #
face $-1 $80 $81 $30 $-1 $82 reversed single #
loop $-1 $-1 $83 $40 #
plane-surface $-1 0 0 14.805193260364414 0 0 1 1 0 0 forward_v I I I I #
face $-1 $84 $85 $31 $-1 $86 reversed single #
loop $-1 $-1 $87 $41 #
plane-surface $-1 0 -33.666904764491726 9.084904319818575 0 0 1 1 0 0 forward_v I I I I #
face $-1 $88 $89 $32 $-1 $90 reversed single #
loop $-1 $-1 $91 $42 #
plane-surface $-1 70.160292520546193 13.437209976718609 182.13093501388008 0 -1 0 -0.73135370988377701 0 -0.68199835119979291 forward_v I I I I #
face $-1 $92 $93 $33 $-1 $94 forward single #
loop $-1 $95 $96 $43 #
cone-surface $-1 56.325887534557069 -1.9933228491585808 6.9230157742970633 -0.73135370988377701 0 -0.68199835119979291 1.0229975267996894 0 -1.0970305648256655 1 I I 0 1 1.5 forward I I I I #
face $-1 $97 $98 $34 $-1 $99 forward single #
loop $-1 $100 $101 $44 #
cone-surface $-1 56.325887534557069 3.793126960545365 6.9230157742970633 -0.73135370988377701 0 -0.68199835119979291 1.0229975267996894 0 -1.0970305648256655 1 I I 0 1 1.5 forward I I I I #
face $-1 $102 $103 $35 $-1 $104 forward single #
loop $-1 $105 $106 $45 #
cone-surface $-1 56.325887534557069 9.5795767702493109 6.9230157742970633 -0.73135370988377701 0 -0.68199835119979291 1.0229975267996894 0 -1.0970305648256655 1 I I 0 1 1.5 forward I I I I #
face $-1 $107 $108 $36 $-1 $109 reversed single #
loop $-1 $-1 $110 $46 #
plane-surface $-1 -157.26093341232428 -5.8509560556278792 88.7269308291323 0 1 0 -0.73135370988377701 0 0.68199835119979291 forward_v I I I I #
face $-1 $111 $112 $37 $-1 $113 forward single #
loop $-1 $114 $115 $47 #
cone-surface $-1 -56.325887534557069 -1.9933228491585808 6.9230157742970526 0.73135370988377701 0 -0.68199835119979291 1.0229975267996894 0 1.0970305648256655 1 I I 0 1 1.5 forward I I I I #
face $-1 $116 $117 $38 $-1 $118 forward single #
loop $-1 $119 $120 $48 #
cone-surface $-1 -56.325887534557069 3.793126960545365 6.9230157742970526 0.73135370988377701 0 -0.68199835119979291 1.0229975267996894 0 1.0970305648256655 1 I I 0 1 1.5 forward I I I I #
face $-1 $121 $122 $39 $-1 $123 forward single #
loop $-1 $124 $125 $49 #
cone-surface $-1 -56.325887534557069 9.5795767702493109 6.9230157742970526 0.73135370988377701 0 -0.68199835119979291 1.0229975267996894 0 1.0970305648256655 1 I I 0 1 1.5 forward I I I I #
face $-1 $126 $127 $30 $-1 $128 reversed single #
loop $-1 $-1 $129 $50 #
plane-surface $-1 0 0 -14.805193260364414 0 0 1 1 0 0 forward_v I I I I #
coedge $-1 $130 $131 $132 $133 forward $51 $-1 #
face $-1 $134 $135 $31 $-1 $136 reversed single #
loop $-1 $-1 $137 $53 #
plane-surface $-1 0 -25.613312486322201 11.945048790091496 0 -1 0 0 0 -1 forward_v I I I I #
coedge $-1 $138 $139 $140 $141 reversed $54 $-1 #
face $-1 $142 $143 $32 $-1 $144 reversed single #
loop $-1 $-1 $145 $56 #
plane-surface $-1 -23.24371166420157 3.793126960545365 95.030294122101964 0.73135370988377701 0 0.68199835119979291 0.68199835119979291 0 -0.73135370988377701 forward_v I I I I #
coedge $-1 $146 $147 $148 $149 reversed $57 $-1 #
face $-1 $-1 $150 $33 $-1 $151 forward single #
loop $-1 $152 $153 $59 #
cone-surface $-1 54.391093493562309 -1.9933228491585808 5.1187911863349651 -0.73135370988377701 0 -0.68199835119979291 0.51149876339984468 0 -0.54851528241283276 1 I I -0.70710678118654757 0.70710678118654757 0.75 forward I I I I #
loop $-1 $-1 $154 $43 #
coedge $-1 $96 $96 $155 $156 reversed $60 $-1 #
face $-1 $-1 $157 $34 $-1 $158 forward single #
loop $-1 $159 $160 $62 #
cone-surface $-1 54.391093493562309 3.793126960545365 5.1187911863349651 -0.73135370988377701 0 -0.68199835119979291 0.51149876339984468 0 -0.54851528241283276 1 I I -0.70710678118654757 0.70710678118654757 0.75 forward I I I I #
loop $-1 $-1 $161 $44 #
coedge $-1 $101 $101 $162 $163 reversed $63 $-1 #
face $-1 $-1 $164 $35 $-1 $165 forward single #
loop $-1 $166 $167 $65 #
cone-surface $-1 54.391093493562309 9.5795767702493109 5.1187911863349651 -0.73135370988377701 0 -0.68199835119979291 0.51149876339984468 0 -0.54851528241283276 1 I I -0.70710678118654757 0.70710678118654757 0.75 forward I I I I #
loop $-1 $-1 $168 $45 #
coedge $-1 $106 $106 $169 $170 reversed $66 $-1 #
face $-1 $171 $172 $36 $-1 $173 reversed single #
loop $-1 $-1 $174 $68 #
plane-surface $-1 -63.856929227576515 3.793126960545365 1.626289937354187 -0.73135370988377701 0 0.68199835119979291 0.68199835119979291 0 0.73135370988377701 forward_v I I I I #
coedge $-1 $175 $176 $177 $178 reversed $69 $-1 #
face $-1 $-1 $179 $37 $-1 $180 forward single #
loop $-1 $181 $182 $71 #
cone-surface $-1 -54.391093493562309 -1.9933228491585808 5.1187911863349544 0.73135370988377701 0 -0.68199835119979291 0.51149876339984468 0 0.54851528241283276 1 I I -0.70710678118654757 0.70710678118654757 0.75 forward I I I I #
loop $-1 $-1 $183 $47 #
coedge $-1 $115 $115 $184 $185 reversed $72 $-1 #
face $-1 $-1 $186 $38 $-1 $187 forward single #
loop $-1 $188 $189 $74 #
cone-surface $-1 -54.391093493562309 3.793126960545365 5.1187911863349544 0.73135370988377701 0 -0.68199835119979291 0.51149876339984468 0 0.54851528241283276 1 I I -0.70710678118654757 0.70710678118654757 0.75 forward I I I I #
loop $-1 $-1 $190 $48 #
coedge $-1 $120 $120 $191 $192 reversed $75 $-1 #
face $-1 $-1 $193 $39 $-1 $194 forward single #
loop $-1 $195 $196 $77 #
cone-surface $-1 -54.391093493562309 9.5795767702493109 5.1187911863349544 0.73135370988377701 0 -0.68199835119979291 0.51149876339984468 0 0.54851528241283276 1 I I -0.70710678118654757 0.70710678118654757 0.75 forward I I I I #
loop $-1 $-1 $197 $49 #
coedge $-1 $125 $125 $198 $199 reversed $78 $-1 #
face $-1 $200 $201 $30 $-1 $202 reversed single #
loop $-1 $-1 $203 $80 #
plane-surface $-1 0 -41.72049704266125 0 0 1 0 0 0 1 forward_v I I I I #
coedge $-1 $204 $205 $206 $207 forward $81 $-1 #
coedge $-1 $208 $83 $209 $210 forward $51 $-1 #
coedge $-1 $83 $208 $211 $212 forward $51 $-1 #
coedge $-1 $213 $214 $83 $133 reversed $215 $-1 #
edge $-1 $216 -41.72049704266125 $217 41.72049704266125 $132 $218 forward 7 unknown #
face $-1 $219 $220 $31 $-1 $221 reversed single #
loop $-1 $-1 $222 $84 #
plane-surface $-1 -63.856929227576529 0 0 1 0 0 0 0 -1 forward_v I I I I #
coedge $-1 $223 $224 $225 $226 reversed $85 $-1 #
coedge $-1 $227 $87 $228 $229 reversed $54 $-1 #
coedge $-1 $87 $227 $223 $230 forward $54 $-1 #
coedge $-1 $225 $231 $87 $141 forward $232 $-1 #
edge $-1 $233 -24.887044660415388 $234 -8.779860104076338 $140 $235 forward 7 unknown #
face $-1 $236 $237 $32 $-1 $238 reversed single #
loop $-1 $-1 $239 $88 #
plane-surface $-1 70.160292520546193 -5.8509560556278792 182.13093501388008 0 1 0 0.73135370988377701 0 0.68199835119979291 forward_v I I I I #
coedge $-1 $240 $241 $242 $243 reversed $89 $-1 #
coedge $-1 $147 $91 $244 $245 reversed $57 $-1 #
coedge $-1 $91 $146 $240 $246 reversed $57 $-1 #
coedge $-1 $242 $247 $91 $149 forward $248 $-1 #
edge $-1 $249 -28.776782967303433 $250 -16.487257098428358 $148 $251 forward 7 unknown #
loop $-1 $-1 $155 $92 #
plane-surface $-1 -23.24371166420157 3.793126960545365 95.030294122101964 0.73135370988377701 0 0.68199835119979291 0.68199835119979291 0 -0.73135370988377701 forward_v I I I I #
loop $-1 $-1 $252 $59 #
coedge $-1 $153 $153 $154 $253 reversed $93 $-1 #
coedge $-1 $154 $154 $153 $253 forward $95 $-1 #
coedge $-1 $155 $155 $96 $156 forward $150 $-1 #
edge $-1 $254 0 $254 6.2831853071796004 $155 $255 forward 7 unknown #
loop $-1 $-1 $162 $97 #
plane-surface $-1 -23.24371166420157 3.793126960545365 95.030294122101964 0.73135370988377701 0 0.68199835119979291 0.68199835119979291 0 -0.73135370988377701 forward_v I I I I #
loop $-1 $-1 $256 $62 #
coedge $-1 $160 $160 $161 $257 reversed $98 $-1 #
coedge $-1 $161 $161 $160 $257 forward $100 $-1 #
coedge $-1 $162 $162 $101 $163 forward $157 $-1 #
edge $-1 $258 0 $258 6.2831853071796004 $162 $259 forward 7 unknown #
loop $-1 $-1 $169 $102 #
plane-surface $-1 -23.24371166420157 3.793126960545365 95.030294122101964 0.73135370988377701 0 0.68199835119979291 0.68199835119979291 0 -0.73135370988377701 forward_v I I I I #
loop $-1 $-1 $260 $65 #
coedge $-1 $167 $167 $168 $261 reversed $103 $-1 #
coedge $-1 $168 $168 $167 $261 forward $105 $-1 #
coedge $-1 $169 $169 $106 $170 forward $164 $-1 #
edge $-1 $262 0 $262 6.2831853071796004 $169 $263 forward 7 unknown #
face $-1 $264 $265 $36 $-1 $266 forward single #
loop $-1 $-1 $267 $107 #
plane-surface $-1 -157.26093341232428 13.437209976718609 88.7269308291323 0 -1 0 0.73135370988377701 0 -0.68199835119979291 forward_v I I I I #
coedge $-1 $268 $269 $270 $271 reversed $108 $-1 #
coedge $-1 $176 $110 $272 $273 reversed $69 $-1 #
coedge $-1 $110 $175 $268 $274 reversed $69 $-1 #
coedge $-1 $270 $275 $110 $178 forward $265 $-1 #
edge $-1 $276 14.77353747858561 $277 27.063063347460712 $177 $278 forward 7 unknown #
loop $-1 $-1 $184 $111 #
plane-surface $-1 -63.856929227576515 3.793126960545365 1.626289937354187 -0.73135370988377701 0 0.68199835119979291 0.68199835119979291 0 0.73135370988377701 forward_v I I I I #
loop $-1 $-1 $279 $71 #
coedge $-1 $182 $182 $183 $280 reversed $112 $-1 #
coedge $-1 $183 $183 $182 $280 forward $114 $-1 #
coedge $-1 $184 $184 $115 $185 forward $179 $-1 #
edge $-1 $281 0 $281 6.2831853071796004 $184 $282 forward 7 unknown #
loop $-1 $-1 $191 $116 #
plane-surface $-1 -63.856929227576515 3.793126960545365 1.626289937354187 -0.73135370988377701 0 0.68199835119979291 0.68199835119979291 0 0.73135370988377701 forward_v I I I I #
loop $-1 $-1 $283 $74 #
coedge $-1 $189 $189 $190 $284 reversed $117 $-1 #
coedge $-1 $190 $190 $189 $284 forward $119 $-1 #
coedge $-1 $191 $191 $120 $192 forward $186 $-1 #
edge $-1 $285 0 $285 6.2831853071796004 $191 $286 forward 7 unknown #
loop $-1 $-1 $198 $121 #
plane-surface $-1 -63.856929227576515 3.793126960545365 1.626289937354187 -0.73135370988377701 0 0.68199835119979291 0.68199835119979291 0 0.73135370988377701 forward_v I I I I #
loop $-1 $-1 $287 $77 #
coedge $-1 $196 $196 $197 $288 reversed $122 $-1 #
coedge $-1 $197 $197 $196 $288 forward $124 $-1 #
coedge $-1 $198 $198 $125 $199 forward $193 $-1 #
edge $-1 $289 0 $289 6.2831853071796004 $198 $290 forward 7 unknown #
face $-1 $291 $292 $30 $-1 $293 reversed single #
loop $-1 $-1 $294 $126 #
plane-surface $-1 -63.856929227576529 0 0 1 0 0 0 0 -1 forward_v I I I I #
coedge $-1 $295 $211 $296 $297 forward $127 $-1 #
coedge $-1 $298 $129 $295 $299 forward $81 $-1 #
coedge $-1 $129 $298 $300 $301 forward $81 $-1 #
coedge $-1 $214 $213 $129 $207 reversed $215 $-1 #
edge $-1 $302 -41.72049704266125 $303 41.72049704266125 $206 $304 forward 7 unknown #
coedge $-1 $131 $130 $305 $306 forward $51 $-1 #
coedge $-1 $307 $308 $130 $210 reversed $292 $-1 #
edge $-1 $217 -63.856929227576529 $309 63.856929227576529 $209 $310 forward 7 unknown #
coedge $-1 $203 $311 $131 $212 reversed $127 $-1 #
edge $-1 $312 -63.856929227576529 $216 63.856929227576529 $211 $313 forward 7 unknown #
coedge $-1 $206 $132 $311 $314 forward $215 $-1 #
coedge $-1 $132 $206 $307 $315 reversed $215 $-1 #
loop $-1 $-1 $213 $291 #
vertex $-1 $133 $316 #
vertex $-1 $133 $317 #
straight-curve $-1 63.856929227576529 0 14.805193260364414 0 1 0 I I #
face $-1 $318 $319 $31 $-1 $320 forward single #
loop $-1 $-1 $228 $134 #
plane-surface $-1 0 -41.72049704266125 0 0 1 0 0 0 1 forward_v I I I I #
coedge $-1 $321 $322 $323 $324 forward $135 $-1 #
coedge $-1 $323 $137 $139 $230 reversed $85 $-1 #
coedge $-1 $137 $323 $325 $326 reversed $85 $-1 #
coedge $-1 $327 $140 $137 $226 forward $232 $-1 #
edge $-1 $234 3.112379924772827 $328 8.83266886531867 $225 $329 forward 7 unknown #
coedge $-1 $139 $138 $321 $330 reversed $54 $-1 #
coedge $-1 $331 $332 $138 $229 forward $220 $-1 #
edge $-1 $333 -63.856929227576529 $233 63.856929227576529 $228 $334 forward 7 unknown #
edge $-1 $335 -63.856929227576529 $234 63.856929227576529 $223 $336 forward 7 unknown #
coedge $-1 $140 $327 $331 $337 forward $232 $-1 #
loop $-1 $-1 $225 $318 #
vertex $-1 $229 $338 #
vertex $-1 $141 $339 #
straight-curve $-1 63.856929227576529 -16.833452382245863 9.084904319818575 0 1 0 I I #
face $-1 $-1 $248 $32 $-1 $340 forward single #
loop $-1 $-1 $341 $142 #
plane-surface $-1 63.856929227576529 0 0 -1 0 0 0 0 1 forward_v I I I I #
coedge $-1 $342 $343 $344 $345 reversed $143 $-1 #
coedge $-1 $346 $145 $147 $246 forward $89 $-1 #
coedge $-1 $145 $346 $342 $347 forward $89 $-1 #
coedge $-1 $344 $148 $145 $243 forward $248 $-1 #
edge $-1 $250 -11.540646496445927 $348 7.7475195359005617 $242 $349 forward 7 unknown #
coedge $-1 $350 $351 $146 $245 forward $237 $-1 #
edge $-1 $352 -89.439177569585823 $249 -76.260274246575619 $244 $353 forward 7 unknown #
edge $-1 $250 109.69398223806986 $352 127.71385845515303 $147 $354 forward 7 unknown #
coedge $-1 $148 $344 $350 $355 forward $248 $-1 #
loop $-1 $-1 $344 $236 #
vertex $-1 $245 $356 #
vertex $-1 $149 $357 #
straight-curve $-1 35.080146260273096 13.437209976718609 14.805193260364419 -1 0 0 I I #
coedge $-1 $252 $252 $-1 $358 reversed $152 $-1 #
edge $-1 $359 0 $359 6.2831853071796004 $153 $360 forward 7 unknown #
vertex $-1 $156 $361 #
ellipse-curve $-1 57.712166293138992 -1.9933228491585808 8.2157415988593172 0.73135370988377701 0 0.68199835119979291 1.0229975267996894 0 -1.0970305648256655 1 I I #
coedge $-1 $256 $256 $-1 $362 reversed $159 $-1 #
edge $-1 $363 0 $363 6.2831853071796004 $160 $364 forward 7 unknown #
vertex $-1 $163 $365 #
ellipse-curve $-1 57.712166293138992 3.793126960545365 8.2157415988593172 0.73135370988377701 0 0.68199835119979291 1.0229975267996894 0 -1.0970305648256655 1 I I #
coedge $-1 $260 $260 $-1 $366 reversed $166 $-1 #
edge $-1 $367 0 $367 6.2831853071796004 $167 $368 forward 7 unknown #
vertex $-1 $170 $369 #
ellipse-curve $-1 57.712166293138992 9.5795767702493109 8.2157415988593172 0.73135370988377701 0 0.68199835119979291 1.0229975267996894 0 -1.0970305648256655 1 I I #
face $-1 $-1 $370 $36 $-1 $371 reversed single #
loop $-1 $-1 $177 $171 #
plane-surface $-1 0 0 14.805193260364414 0 0 1 1 0 0 forward_v I I I I #
coedge $-1 $372 $373 $374 $375 reversed $172 $-1 #
coedge $-1 $376 $174 $176 $274 forward $108 $-1 #
coedge $-1 $174 $376 $372 $377 forward $108 $-1 #
coedge $-1 $374 $177 $174 $271 forward $265 $-1 #
edge $-1 $277 -7.7475195359005617 $378 11.540646496445927 $270 $379 forward 7 unknown #
coedge $-1 $380 $381 $175 $273 forward $370 $-1 #
edge $-1 $382 -42.737175477211977 $276 -29.558272154201738 $272 $383 forward 7 unknown #
edge $-1 $277 -18.01987621708318 $382 2.0896906529347916e-014 $176 $384 forward 7 unknown #
coedge $-1 $177 $374 $380 $385 forward $265 $-1 #
vertex $-1 $273 $386 #
vertex $-1 $178 $387 #
straight-curve $-1 -78.630466706162139 -5.8509560556278792 14.805193260364412 1 0 0 I I #
coedge $-1 $279 $279 $-1 $388 reversed $181 $-1 #
edge $-1 $389 0 $389 6.2831853071796004 $182 $390 forward 7 unknown #
vertex $-1 $185 $391 #
ellipse-curve $-1 -57.712166293138978 -1.9933228491585808 8.2157415988592923 -0.73135370988377701 0 0.68199835119979291 1.0229975267996894 0 1.0970305648256655 1 I I #
coedge $-1 $283 $283 $-1 $392 reversed $188 $-1 #
edge $-1 $393 0 $393 6.2831853071796004 $189 $394 forward 7 unknown #
vertex $-1 $192 $395 #
ellipse-curve $-1 -57.712166293138978 3.793126960545365 8.2157415988592923 -0.73135370988377701 0 0.68199835119979291 1.0229975267996894 0 1.0970305648256655 1 I I #
coedge $-1 $287 $287 $-1 $396 reversed $195 $-1 #
edge $-1 $397 0 $397 6.2831853071796004 $196 $398 forward 7 unknown #
vertex $-1 $199 $399 #
ellipse-curve $-1 -57.712166293138978 9.5795767702493109 8.2157415988592923 -0.73135370988377701 0 0.68199835119979291 1.0229975267996894 0 1.0970305648256655 1 I I #
face $-1 $-1 $215 $30 $-1 $400 reversed single #
loop $-1 $-1 $307 $200 #
plane-surface $-1 0 41.72049704266125 0 0 -1 0 0 0 -1 forward_v I I I I #
coedge $-1 $401 $305 $308 $402 forward $201 $-1 #
coedge $-1 $311 $203 $204 $299 reversed $127 $-1 #
coedge $-1 $305 $401 $203 $297 reversed $201 $-1 #
edge $-1 $312 -14.805193260364414 $403 14.805193260364414 $296 $404 forward 7 unknown #
coedge $-1 $205 $204 $401 $405 forward $81 $-1 #
edge $-1 $303 -63.856929227576529 $403 63.856929227576529 $295 $406 forward 7 unknown #
coedge $-1 $308 $307 $205 $301 reversed $292 $-1 #
edge $-1 $407 -63.856929227576529 $302 63.856929227576529 $300 $408 forward 7 unknown #
vertex $-1 $207 $409 #
vertex $-1 $314 $410 #
straight-curve $-1 63.856929227576529 0 -14.805193260364414 0 -1 0 I I #
coedge $-1 $294 $296 $208 $306 reversed $201 $-1 #
edge $-1 $309 -41.72049704266125 $312 41.72049704266125 $305 $411 forward 7 unknown #
coedge $-1 $300 $209 $214 $315 forward $292 $-1 #
coedge $-1 $209 $300 $294 $402 reversed $292 $-1 #
vertex $-1 $210 $412 #
straight-curve $-1 0 41.72049704266125 14.805193260364414 -1 0 0 I I #
coedge $-1 $211 $295 $213 $314 reversed $127 $-1 #
vertex $-1 $306 $413 #
straight-curve $-1 0 -41.72049704266125 14.805193260364414 1 0 0 I I #
edge $-1 $216 -14.805193260364414 $303 14.805193260364414 $213 $414 forward 7 unknown #
edge $-1 $217 -14.805193260364414 $302 14.805193260364414 $214 $415 forward 7 unknown #
point $-1 63.856929227576529 -41.72049704266125 14.805193260364414 #
point $-1 63.856929227576529 41.72049704266125 14.805193260364414 #
face $-1 $-1 $232 $31 $-1 $416 reversed single #
loop $-1 $-1 $325 $219 #
plane-surface $-1 0 0 14.805193260364414 0 0 1 1 0 0 forward_v I I I I #
coedge $-1 $417 $222 $227 $330 forward $135 $-1 #
coedge $-1 $222 $417 $418 $419 reversed $135 $-1 #
coedge $-1 $224 $223 $222 $324 reversed $85 $-1 #
edge $-1 $420 -8.83266886531867 $335 -3.112379924772827 $222 $421 forward 7 unknown #
coedge $-1 $418 $422 $224 $326 forward $319 $-1 #
edge $-1 $328 -63.856929227576529 $420 63.856929227576529 $325 $423 forward 7 unknown #
coedge $-1 $231 $225 $422 $424 reversed $232 $-1 #
vertex $-1 $226 $425 #
straight-curve $-1 63.856929227576529 -25.613312486322201 5.9725243950457481 0 0 1 I I #
edge $-1 $335 8.779860104076338 $333 24.887044660415388 $321 $426 forward 7 unknown #
coedge $-1 $427 $228 $231 $337 reversed $220 $-1 #
coedge $-1 $228 $427 $417 $428 forward $220 $-1 #
vertex $-1 $229 $429 #
straight-curve $-1 0 -41.72049704266125 9.084904319818575 1 0 0 I I #
vertex $-1 $330 $430 #
straight-curve $-1 0 -25.613312486322201 9.084904319818575 1 0 0 I I #
edge $-1 $431 -14.805193260364414 $233 -9.084904319818575 $231 $432 forward 7 unknown #
point $-1 63.856929227576529 -41.72049704266125 9.084904319818575 #
point $-1 63.856929227576529 -25.613312486322201 9.084904319818575 #
plane-surface $-1 0 0 14.805193260364414 0 0 1 1 0 0 forward_v I I I I #
coedge $-1 $351 $350 $343 $433 forward $237 $-1 #
coedge $-1 $343 $239 $241 $347 reversed $143 $-1 #
coedge $-1 $239 $342 $341 $433 reversed $143 $-1 #
coedge $-1 $247 $242 $239 $345 forward $248 $-1 #
edge $-1 $348 16.487257098428358 $434 28.776782967303433 $344 $435 forward 7 unknown #
coedge $-1 $241 $240 $351 $436 reversed $89 $-1 #
edge $-1 $437 -127.71385845515303 $348 -109.69398223806986 $342 $438 forward 7 unknown #
vertex $-1 $243 $439 #
straight-curve $-1 51.567403358701462 1.8965634802726825 14.805193260364412 0 -1 0 I I #
coedge $-1 $341 $244 $247 $355 reversed $237 $-1 #
coedge $-1 $244 $341 $346 $436 forward $237 $-1 #
vertex $-1 $245 $440 #
straight-curve $-1 63.856929227576529 13.437209976718609 91.065467506940038 0 0 1 I I #
straight-curve $-1 -23.24371166420157 13.437209976718609 95.030294122101964 0.68199835119979291 0 -0.73135370988377701 I I #
edge $-1 $434 -5.8509560556278792 $249 13.437209976718609 $350 $441 forward 7 unknown #
point $-1 63.856929227576529 13.437209976718609 14.805193260364414 #
point $-1 51.567403358701455 13.437209976718609 14.805193260364419 #
edge $-1 $442 1 $442 0 $252 $-1 forward 7 unknown #
vertex $-1 $253 $443 #
ellipse-curve $-1 54.939608775975145 -1.9933228491585808 5.6302899497348093 0.73135370988377701 0 0.68199835119979291 1.0229975267996894 0 -1.0970305648256655 1 I I #
point $-1 58.735163819938677 -1.9933228491585808 7.1187110340336508 #
edge $-1 $444 1 $444 0 $256 $-1 forward 7 unknown #
vertex $-1 $257 $445 #
ellipse-curve $-1 54.939608775975145 3.793126960545365 5.6302899497348093 0.73135370988377701 0 0.68199835119979291 1.0229975267996894 0 -1.0970305648256655 1 I I #
point $-1 58.735163819938677 3.793126960545365 7.1187110340336508 #
edge $-1 $446 1 $446 0 $260 $-1 forward 7 unknown #
vertex $-1 $261 $447 #
ellipse-curve $-1 54.939608775975145 9.5795767702493109 5.6302899497348093 0.73135370988377701 0 0.68199835119979291 1.0229975267996894 0 -1.0970305648256655 1 I I #
point $-1 58.735163819938677 9.5795767702493109 7.1187110340336508 #
loop $-1 $-1 $272 $264 #
plane-surface $-1 -63.856929227576529 0 0 1 0 0 0 0 -1 forward_v I I I I #
coedge $-1 $373 $267 $269 $377 reversed $172 $-1 #
coedge $-1 $267 $372 $448 $449 reversed $172 $-1 #
coedge $-1 $275 $270 $267 $375 forward $265 $-1 #
edge $-1 $378 -27.063063347460712 $450 -14.77353747858561 $374 $451 forward 7 unknown #
coedge $-1 $269 $268 $381 $452 reversed $108 $-1 #
edge $-1 $453 -2.0896906529347916e-014 $378 18.01987621708318 $372 $454 forward 7 unknown #
vertex $-1 $271 $455 #
straight-curve $-1 -51.567403358701419 1.8965634802726825 14.805193260364414 0 1 0 I I #
coedge $-1 $448 $272 $275 $385 reversed $370 $-1 #
coedge $-1 $272 $448 $376 $452 forward $370 $-1 #
vertex $-1 $273 $456 #
straight-curve $-1 -63.856929227576529 -5.8509560556278792 44.36346541456615 0 0 1 I I #
straight-curve $-1 -63.856929227576515 -5.8509560556278792 1.626289937354187 -0.68199835119979291 0 -0.73135370988377701 I I #
edge $-1 $450 -13.437209976718609 $276 5.8509560556278792 $380 $457 forward 7 unknown #
point $-1 -63.856929227576529 -5.8509560556278792 14.805193260364414 #
point $-1 -51.567403358701426 -5.8509560556278792 14.805193260364415 #
edge $-1 $458 1 $458 0 $279 $-1 forward 7 unknown #
vertex $-1 $280 $459 #
ellipse-curve $-1 -54.939608775975145 -1.9933228491585808 5.6302899497347987 -0.73135370988377701 0 0.68199835119979291 1.0229975267996894 0 1.0970305648256655 1 I I #
point $-1 -56.6891687663393 -1.9933228491585808 9.3127721636849721 #
edge $-1 $460 1 $460 0 $283 $-1 forward 7 unknown #
vertex $-1 $284 $461 #
ellipse-curve $-1 -54.939608775975145 3.793126960545365 5.6302899497347987 -0.73135370988377701 0 0.68199835119979291 1.0229975267996894 0 1.0970305648256655 1 I I #
point $-1 -56.6891687663393 3.793126960545365 9.3127721636849721 #
edge $-1 $462 1 $462 0 $287 $-1 forward 7 unknown #
vertex $-1 $288 $463 #
ellipse-curve $-1 -54.939608775975145 9.5795767702493109 5.6302899497347987 -0.73135370988377701 0 0.68199835119979291 1.0229975267996894 0 1.0970305648256655 1 I I #
point $-1 -56.6891687663393 9.5795767702493109 9.3127721636849721 #
plane-surface $-1 63.856929227576529 0 0 -1 0 0 0 0 1 forward_v I I I I #
coedge $-1 $296 $294 $298 $405 reversed $201 $-1 #
edge $-1 $309 -14.805193260364414 $407 14.805193260364414 $308 $464 forward 7 unknown #
vertex $-1 $405 $465 #
straight-curve $-1 -63.856929227576529 -41.72049704266125 0 0 0 -1 I I #
edge $-1 $403 -41.72049704266125 $407 41.72049704266125 $401 $466 forward 7 unknown #
straight-curve $-1 0 -41.72049704266125 -14.805193260364414 -1 0 0 I I #
vertex $-1 $301 $467 #
straight-curve $-1 0 41.72049704266125 -14.805193260364414 1 0 0 I I #
point $-1 63.856929227576529 41.72049704266125 -14.805193260364414 #
point $-1 63.856929227576529 -41.72049704266125 -14.805193260364414 #
straight-curve $-1 -63.856929227576529 0 14.805193260364414 0 -1 0 I I #
point $-1 -63.856929227576529 41.72049704266125 14.805193260364414 #
point $-1 -63.856929227576529 -41.72049704266125 14.805193260364414 #
straight-curve $-1 63.856929227576529 -41.72049704266125 0 0 0 -1 I I #
straight-curve $-1 63.856929227576529 41.72049704266125 0 0 0 -1 I I #
plane-surface $-1 63.856929227576529 0 0 -1 0 0 0 0 1 forward_v I I I I #
coedge $-1 $322 $321 $332 $428 reversed $135 $-1 #
coedge $-1 $468 $325 $322 $419 forward $319 $-1 #
edge $-1 $420 25.613312486322201 $469 41.72049704266125 $322 $470 forward 7 unknown #
vertex $-1 $419 $471 #
straight-curve $-1 -63.856929227576529 -25.613312486322201 5.9725243950457481 0 0 -1 I I #
coedge $-1 $325 $468 $327 $424 forward $319 $-1 #
straight-curve $-1 0 -25.613312486322201 14.805193260364414 -1 0 0 I I #
edge $-1 $431 -41.72049704266125 $328 -25.613312486322201 $327 $472 forward 7 unknown #
point $-1 63.856929227576529 -25.613312486322201 14.805193260364417 #
straight-curve $-1 -63.856929227576529 -16.833452382245863 9.084904319818575 0 -1 0 I I #
coedge $-1 $332 $331 $468 $473 reversed $220 $-1 #
edge $-1 $469 -14.805193260364414 $333 -9.084904319818575 $417 $474 forward 7 unknown #
point $-1 -63.856929227576529 -41.72049704266125 9.084904319818575 #
point $-1 -63.856929227576529 -25.613312486322201 9.084904319818575 #
vertex $-1 $424 $475 #
straight-curve $-1 63.856929227576529 -41.72049704266125 0 0 0 -1 I I #
edge $-1 $434 76.260274246575619 $437 89.439177569585823 $341 $476 forward 7 unknown #
vertex $-1 $355 $477 #
straight-curve $-1 35.080146260273096 -5.8509560556278792 14.805193260364419 1 0 0 I I #
edge $-1 $437 -7.7475195359005617 $352 11.540646496445927 $351 $478 forward 7 unknown #
vertex $-1 $436 $479 #
straight-curve $-1 -23.24371166420157 -5.8509560556278792 95.030294122101964 -0.68199835119979291 0 0.73135370988377701 I I #
point $-1 51.567403358701455 -5.8509560556278792 14.805193260364419 #
point $-1 63.856929227576529 13.437209976718609 1.6262899373542155 #
straight-curve $-1 63.856929227576529 0 14.805193260364414 0 1 0 I I #
vertex $-1 $358 $480 #
point $-1 55.96260630277483 -1.9933228491585808 4.5332593849091438 #
vertex $-1 $362 $481 #
point $-1 55.96260630277483 3.793126960545365 4.5332593849091438 #
vertex $-1 $366 $482 #
point $-1 55.96260630277483 9.5795767702493109 4.5332593849091438 #
coedge $-1 $381 $380 $373 $449 forward $370 $-1 #
edge $-1 $450 29.558272154201738 $453 42.737175477211977 $448 $483 forward 7 unknown #
vertex $-1 $385 $484 #
straight-curve $-1 -78.630466706162139 13.437209976718609 14.805193260364412 -1 0 0 I I #
edge $-1 $453 -11.540646496445927 $382 7.7475195359005617 $381 $485 forward 7 unknown #
vertex $-1 $452 $486 #
straight-curve $-1 -63.856929227576515 13.437209976718609 1.626289937354187 0.68199835119979291 0 0.73135370988377701 I I #
point $-1 -51.567403358701426 13.437209976718609 14.805193260364415 #
point $-1 -63.856929227576529 -5.8509560556278792 1.6262899373541717 #
straight-curve $-1 -63.856929227576529 0 14.805193260364414 0 -1 0 I I #
vertex $-1 $388 $487 #
point $-1 -53.916611249175453 -1.9933228491585808 6.7273205145604642 #
vertex $-1 $392 $488 #
point $-1 -53.916611249175453 3.793126960545365 6.7273205145604642 #
vertex $-1 $396 $489 #
point $-1 -53.916611249175453 9.5795767702493109 6.7273205145604642 #
straight-curve $-1 -63.856929227576529 41.72049704266125 0 0 0 -1 I I #
point $-1 -63.856929227576529 -41.72049704266125 -14.805193260364414 #
straight-curve $-1 -63.856929227576529 0 -14.805193260364414 0 1 0 I I #
point $-1 -63.856929227576529 41.72049704266125 -14.805193260364414 #
coedge $-1 $422 $418 $427 $473 forward $319 $-1 #
vertex $-1 $419 $490 #
straight-curve $-1 -63.856929227576529 0 14.805193260364414 0 -1 0 I I #
point $-1 -63.856929227576529 -25.613312486322201 14.805193260364417 #
straight-curve $-1 63.856929227576529 0 14.805193260364414 0 1 0 I I #
edge $-1 $469 -63.856929227576529 $431 63.856929227576529 $427 $491 forward 7 unknown #
straight-curve $-1 -63.856929227576529 -41.72049704266125 0 0 0 -1 I I #
point $-1 63.856929227576529 -41.72049704266125 14.805193260364414 #
straight-curve $-1 63.856929227576529 -5.8509560556278792 91.065467506940038 0 0 -1 I I #
point $-1 63.856929227576529 -5.8509560556278792 14.805193260364414 #
straight-curve $-1 63.856929227576522 1.8965634802726825 1.6262899373542155 0 1 0 I I #
point $-1 63.856929227576529 -5.8509560556278792 1.6262899373542155 #
point $-1 53.842578211149473 -1.9933228491585808 4.6072924229351209 #
point $-1 53.842578211149473 3.793126960545365 4.6072924229351209 #
point $-1 53.842578211149473 9.5795767702493109 4.6072924229351209 #
straight-curve $-1 -63.856929227576529 13.437209976718609 44.36346541456615 0 0 -1 I I #
point $-1 -63.856929227576529 13.437209976718609 14.805193260364414 #
straight-curve $-1 -63.856929227576529 1.8965634802726825 1.6262899373541668 0 -1 0 I I #
point $-1 -63.856929227576529 13.437209976718609 1.6262899373541717 #
point $-1 -53.842578211149473 -1.9933228491585808 4.6072924229351102 #
point $-1 -53.842578211149473 3.793126960545365 4.6072924229351102 #
point $-1 -53.842578211149473 9.5795767702493109 4.6072924229351102 #
point $-1 -63.856929227576529 -41.72049704266125 14.805193260364414 #
straight-curve $-1 0 -41.72049704266125 14.805193260364414 1 0 0 I I #
End-of-ACIS-data 