500 0 16 0           
7 Unknown 11 ACIS 5.0 NT 24 Thu Mar 25 22:04:38 1999 
-1 9.9999999999999995e-007 1e-010 
body $-1 $16 $-1 $17 #
body $-1 $18 $-1 $19 #
body $-1 $20 $-1 $21 #
body $-1 $22 $-1 $23 #
body $-1 $24 $-1 $25 #
body $-1 $26 $-1 $27 #
body $-1 $28 $-1 $29 #
body $-1 $30 $-1 $31 #
body $-1 $32 $-1 $33 #
body $-1 $34 $-1 $35 #
body $-1 $36 $-1 $37 #
body $-1 $38 $-1 $39 #
body $-1 $40 $-1 $41 #
body $-1 $42 $-1 $43 #
body $-1 $44 $-1 $45 #
body $-1 $46 $-1 $47 #
lump $-1 $-1 $48 $0 #
transform $-1 1 0 0 0 1 0 0 0 1 43.697622608111821 19.050547150529468 5.7241757568667548 1 rotate no_reflect no_shear #
lump $-1 $-1 $49 $1 #
transform $-1 1 0 0 0 1 0 0 0 1 43.697622608111821 3.721921372749851 3.0155311806917195 1 rotate no_reflect no_shear #
lump $-1 $-1 $50 $2 #
transform $-1 0.79863550430605224 0 0.6018150307709319 0 1 0 -0.6018150307709319 0 0.79863550430605224 -52.595772189034776 18.70588391732144 77.993140353132262 1 rotate no_reflect no_shear #
lump $-1 $-1 $51 $3 #
transform $-1 0.79863550430605224 0 0.6018150307709319 0 -1 0 0.6018150307709319 0 -0.79863550430605224 4.1596159790263467 18.70588391732144 7.1658783487703266 1 rotate no_reflect no_shear #
lump $-1 $-1 $52 $4 #
transform $-1 0.57357642473473569 0 -0.81915205242281985 0 1 0 0.81915205242281985 0 0.57357642473473569 108.85738741715181 12.51411017875833 128.69316304382122 1 rotate no_reflect no_shear #
lump $-1 $-1 $53 $5 #
transform $-1 0.57357642473473569 0 -0.81915205242281985 0 -1 0 -0.81915205242281985 0 -0.57357642473473569 84.023325602839179 10.681876429871227 7.9473339226826312 1 rotate no_reflect no_shear #
lump $-1 $-1 $54 $6 #
transform $-1 0.57357642473473569 0 -0.81915205242281985 0 -1 0 -0.81915205242281985 0 -0.57357642473473569 84.023325602839179 12.51411017875833 7.9473339226826312 1 rotate no_reflect no_shear #
lump $-1 $-1 $55 $7 #
transform $-1 0.57357642473473569 0 -0.81915205242281985 0 -1 0 -0.81915205242281985 0 -0.57357642473473569 84.023325602839179 14.346343927645432 7.9473339226826312 1 rotate no_reflect no_shear #
lump $-1 $-1 $56 $8 #
transform $-1 0.57357642473473569 0 -0.81915205242281985 0 1 0 0.81915205242281985 0 0.57357642473473569 108.85738741715181 22.772468523279318 128.69316304382122 1 rotate no_reflect no_shear #
lump $-1 $-1 $57 $9 #
transform $-1 0.57357642473473569 0 -0.81915205242281985 0 -1 0 -0.81915205242281985 0 -0.57357642473473569 84.023325602839179 20.940234774392216 7.9473339226826312 1 rotate no_reflect no_shear #
lump $-1 $-1 $58 $10 #
transform $-1 0.57357642473473569 0 -0.81915205242281985 0 -1 0 -0.81915205242281985 0 -0.57357642473473569 84.023325602839179 22.772468523279318 7.9473339226826312 1 rotate no_reflect no_shear #
lump $-1 $-1 $59 $11 #
transform $-1 0.57357642473473569 0 -0.81915205242281985 0 -1 0 -0.81915205242281985 0 -0.57357642473473569 84.023325602839179 24.604702272166421 7.9473339226826312 1 rotate no_reflect no_shear #
lump $-1 $-1 $60 $12 #
transform $-1 0.57357642473473569 0 -0.81915205242281985 0 1 0 0.81915205242281985 0 0.57357642473473569 108.85738741715181 33.030826867800307 128.69316304382122 1 rotate no_reflect no_shear #
lump $-1 $-1 $61 $13 #
transform $-1 0.57357642473473569 0 -0.81915205242281985 0 -1 0 -0.81915205242281985 0 -0.57357642473473569 84.023325602839179 31.198593118913205 7.9473339226826312 1 rotate no_reflect no_shear #
lump $-1 $-1 $62 $14 #
transform $-1 0.57357642473473569 0 -0.81915205242281985 0 -1 0 -0.81915205242281985 0 -0.57357642473473569 84.023325602839179 33.030826867800307 7.9473339226826312 1 rotate no_reflect no_shear #
lump $-1 $-1 $63 $15 #
transform $-1 0.57357642473473569 0 -0.81915205242281985 0 -1 0 -0.81915205242281985 0 -0.57357642473473569 84.023325602839179 34.863060616687406 7.9473339226826312 1 rotate no_reflect no_shear #
shell $-1 $-1 $-1 $64 $-1 $16 #
shell $-1 $-1 $-1 $65 $-1 $18 #
shell $-1 $-1 $-1 $66 $-1 $20 #
shell $-1 $-1 $-1 $67 $-1 $22 #
shell $-1 $-1 $-1 $68 $-1 $24 #
shell $-1 $-1 $-1 $69 $-1 $26 #
shell $-1 $-1 $-1 $70 $-1 $28 #
shell $-1 $-1 $-1 $71 $-1 $30 #
shell $-1 $-1 $-1 $72 $-1 $32 #
shell $-1 $-1 $-1 $73 $-1 $34 #
shell $-1 $-1 $-1 $74 $-1 $36 #
shell $-1 $-1 $-1 $75 $-1 $38 #
shell $-1 $-1 $-1 $76 $-1 $40 #
shell $-1 $-1 $-1 $77 $-1 $42 #
shell $-1 $-1 $-1 $78 $-1 $44 #
shell $-1 $-1 $-1 $79 $-1 $46 #
face $-1 $80 $81 $48 $-1 $82 forward single #
face $-1 $83 $84 $49 $-1 $85 forward single #
face $-1 $86 $87 $50 $-1 $88 forward single #
face $-1 $89 $90 $51 $-1 $91 forward single #
face $-1 $92 $93 $52 $-1 $94 forward single #
face $-1 $95 $96 $53 $-1 $97 forward single #
face $-1 $98 $99 $54 $-1 $100 forward single #
face $-1 $101 $102 $55 $-1 $103 forward single #
face $-1 $104 $105 $56 $-1 $106 forward single #
face $-1 $107 $108 $57 $-1 $109 forward single #
face $-1 $110 $111 $58 $-1 $112 forward single #
face $-1 $113 $114 $59 $-1 $115 forward single #
face $-1 $116 $117 $60 $-1 $118 forward single #
face $-1 $119 $120 $61 $-1 $121 forward single #
face $-1 $122 $123 $62 $-1 $124 forward single #
face $-1 $125 $126 $63 $-1 $127 forward single #
face $-1 $128 $129 $48 $-1 $130 reversed single #
loop $-1 $-1 $131 $64 #
plane-surface $-1 0 0 5.7241757568667548 0 0 1 1 0 0 forward_v I I I I #
face $-1 $132 $133 $49 $-1 $134 reversed single #
loop $-1 $-1 $135 $65 #
plane-surface $-1 0 0 1.5 0 0 1 1 0 0 forward_v I I I I #
face $-1 $136 $137 $50 $-1 $138 reversed single #
loop $-1 $-1 $139 $66 #
plane-surface $-1 0 0 87.395245216223643 0 0 1 1 0 0 forward_v I I I I #
face $-1 $140 $141 $51 $-1 $142 forward single #
loop $-1 $143 $144 $67 #
cone-surface $-1 0 0 -1.9130832850123598 0 0 1 1 0 0 1 I I 0 1 1 forward I I I I #
face $-1 $145 $146 $52 $-1 $147 reversed single #
loop $-1 $-1 $148 $68 #
plane-surface $-1 0 0 87.395245216223643 0 0 1 1 0 0 forward_v I I I I #
face $-1 $149 $150 $53 $-1 $151 forward single #
loop $-1 $152 $153 $69 #
cone-surface $-1 0 0 -1.2272942289498587 0 0 1 0.5 0 0 1 I I 0 1 0.5 forward I I I I #
face $-1 $154 $155 $54 $-1 $156 forward single #
loop $-1 $157 $158 $70 #
cone-surface $-1 0 0 -1.2272942289498587 0 0 1 0.5 0 0 1 I I 0 1 0.5 forward I I I I #
face $-1 $159 $160 $55 $-1 $161 forward single #
loop $-1 $162 $163 $71 #
cone-surface $-1 0 0 -1.2272942289498587 0 0 1 0.5 0 0 1 I I 0 1 0.5 forward I I I I #
face $-1 $164 $165 $56 $-1 $166 reversed single #
loop $-1 $-1 $167 $72 #
plane-surface $-1 0 0 87.395245216223643 0 0 1 1 0 0 forward_v I I I I #
face $-1 $168 $169 $57 $-1 $170 forward single #
loop $-1 $171 $172 $73 #
cone-surface $-1 0 0 -1.2272942289498587 0 0 1 0.5 0 0 1 I I 0 1 0.5 forward I I I I #
face $-1 $173 $174 $58 $-1 $175 forward single #
loop $-1 $176 $177 $74 #
cone-surface $-1 0 0 -1.2272942289498587 0 0 1 0.5 0 0 1 I I 0 1 0.5 forward I I I I #
face $-1 $178 $179 $59 $-1 $180 forward single #
loop $-1 $181 $182 $75 #
cone-surface $-1 0 0 -1.2272942289498587 0 0 1 0.5 0 0 1 I I 0 1 0.5 forward I I I I #
face $-1 $183 $184 $60 $-1 $185 reversed single #
loop $-1 $-1 $186 $76 #
plane-surface $-1 0 0 87.395245216223643 0 0 1 1 0 0 forward_v I I I I #
face $-1 $187 $188 $61 $-1 $189 forward single #
loop $-1 $190 $191 $77 #
cone-surface $-1 0 0 -1.2272942289498587 0 0 1 0.5 0 0 1 I I 0 1 0.5 forward I I I I #
face $-1 $192 $193 $62 $-1 $194 forward single #
loop $-1 $195 $196 $78 #
cone-surface $-1 0 0 -1.2272942289498587 0 0 1 0.5 0 0 1 I I 0 1 0.5 forward I I I I #
face $-1 $197 $198 $63 $-1 $199 forward single #
loop $-1 $200 $201 $79 #
cone-surface $-1 0 0 -1.2272942289498587 0 0 1 0.5 0 0 1 I I 0 1 0.5 forward I I I I #
face $-1 $202 $203 $48 $-1 $204 reversed single #
loop $-1 $-1 $205 $80 #
plane-surface $-1 0 0 -5.7241757568667548 0 0 1 1 0 0 forward_v I I I I #
coedge $-1 $206 $207 $208 $209 forward $81 $-1 #
face $-1 $210 $211 $49 $-1 $212 reversed single #
loop $-1 $-1 $213 $83 #
plane-surface $-1 0 0 -1.5 0 0 1 1 0 0 forward_v I I I I #
coedge $-1 $214 $215 $216 $217 forward $84 $-1 #
face $-1 $218 $219 $50 $-1 $220 reversed single #
loop $-1 $-1 $221 $86 #
plane-surface $-1 0 0 -87.395245216223643 0 0 1 1 0 0 forward_v I I I I #
coedge $-1 $222 $223 $224 $225 forward $87 $-1 #
face $-1 $-1 $226 $51 $-1 $227 forward single #
loop $-1 $-1 $228 $89 #
plane-surface $-1 0 0 -3.3261665700247196 0 0 -1 -1 0 0 forward_v I I I I #
loop $-1 $-1 $229 $67 #
coedge $-1 $144 $144 $228 $230 reversed $90 $-1 #
face $-1 $231 $232 $52 $-1 $233 reversed single #
loop $-1 $-1 $234 $92 #
plane-surface $-1 0 0 -87.395245216223643 0 0 1 1 0 0 forward_v I I I I #
coedge $-1 $235 $236 $237 $238 forward $93 $-1 #
face $-1 $-1 $239 $53 $-1 $240 forward single #
loop $-1 $-1 $241 $95 #
plane-surface $-1 0 0 -2.204588457899717 0 0 -1 -1 0 0 forward_v I I I I #
loop $-1 $-1 $242 $69 #
coedge $-1 $153 $153 $241 $243 reversed $96 $-1 #
face $-1 $-1 $244 $54 $-1 $245 forward single #
loop $-1 $-1 $246 $98 #
plane-surface $-1 0 0 -2.204588457899717 0 0 -1 -1 0 0 forward_v I I I I #
loop $-1 $-1 $247 $70 #
coedge $-1 $158 $158 $246 $248 reversed $99 $-1 #
face $-1 $-1 $249 $55 $-1 $250 forward single #
loop $-1 $-1 $251 $101 #
plane-surface $-1 0 0 -2.204588457899717 0 0 -1 -1 0 0 forward_v I I I I #
loop $-1 $-1 $252 $71 #
coedge $-1 $163 $163 $251 $253 reversed $102 $-1 #
face $-1 $254 $255 $56 $-1 $256 reversed single #
loop $-1 $-1 $257 $104 #
plane-surface $-1 0 0 -87.395245216223643 0 0 1 1 0 0 forward_v I I I I #
coedge $-1 $258 $259 $260 $261 forward $105 $-1 #
face $-1 $-1 $262 $57 $-1 $263 forward single #
loop $-1 $-1 $264 $107 #
plane-surface $-1 0 0 -2.204588457899717 0 0 -1 -1 0 0 forward_v I I I I #
loop $-1 $-1 $265 $73 #
coedge $-1 $172 $172 $264 $266 reversed $108 $-1 #
face $-1 $-1 $267 $58 $-1 $268 forward single #
loop $-1 $-1 $269 $110 #
plane-surface $-1 0 0 -2.204588457899717 0 0 -1 -1 0 0 forward_v I I I I #
loop $-1 $-1 $270 $74 #
coedge $-1 $177 $177 $269 $271 reversed $111 $-1 #
face $-1 $-1 $272 $59 $-1 $273 forward single #
loop $-1 $-1 $274 $113 #
plane-surface $-1 0 0 -2.204588457899717 0 0 -1 -1 0 0 forward_v I I I I #
loop $-1 $-1 $275 $75 #
coedge $-1 $182 $182 $274 $276 reversed $114 $-1 #
face $-1 $277 $278 $60 $-1 $279 reversed single #
loop $-1 $-1 $280 $116 #
plane-surface $-1 0 0 -87.395245216223643 0 0 1 1 0 0 forward_v I I I I #
coedge $-1 $281 $282 $283 $284 forward $117 $-1 #
face $-1 $-1 $285 $61 $-1 $286 forward single #
loop $-1 $-1 $287 $119 #
plane-surface $-1 0 0 -2.204588457899717 0 0 -1 -1 0 0 forward_v I I I I #
loop $-1 $-1 $288 $77 #
coedge $-1 $191 $191 $287 $289 reversed $120 $-1 #
face $-1 $-1 $290 $62 $-1 $291 forward single #
loop $-1 $-1 $292 $122 #
plane-surface $-1 0 0 -2.204588457899717 0 0 -1 -1 0 0 forward_v I I I I #
loop $-1 $-1 $293 $78 #
coedge $-1 $196 $196 $292 $294 reversed $123 $-1 #
face $-1 $-1 $295 $63 $-1 $296 forward single #
loop $-1 $-1 $297 $125 #
plane-surface $-1 0 0 -2.204588457899717 0 0 -1 -1 0 0 forward_v I I I I #
loop $-1 $-1 $298 $79 #
coedge $-1 $201 $201 $297 $299 reversed $126 $-1 #
face $-1 $300 $301 $48 $-1 $302 reversed single #
loop $-1 $-1 $303 $128 #
plane-surface $-1 0 -19.050547150529468 0 0 1 0 0 0 1 forward_v I I I I #
coedge $-1 $304 $305 $306 $307 forward $129 $-1 #
coedge $-1 $308 $131 $309 $310 forward $81 $-1 #
coedge $-1 $131 $308 $311 $312 forward $81 $-1 #
coedge $-1 $313 $314 $131 $209 reversed $315 $-1 #
edge $-1 $316 -19.050547150529468 $317 19.050547150529468 $208 $318 forward 7 unknown #
face $-1 $319 $320 $49 $-1 $321 reversed single #
loop $-1 $-1 $322 $132 #
plane-surface $-1 0 -3.721921372749851 0 0 1 0 0 0 1 forward_v I I I I #
coedge $-1 $323 $324 $325 $326 forward $133 $-1 #
coedge $-1 $327 $135 $328 $329 forward $84 $-1 #
coedge $-1 $135 $327 $330 $331 forward $84 $-1 #
coedge $-1 $332 $333 $135 $217 reversed $334 $-1 #
edge $-1 $335 -3.721921372749851 $336 3.721921372749851 $216 $337 forward 7 unknown #
face $-1 $338 $339 $50 $-1 $340 reversed single #
loop $-1 $-1 $341 $136 #
plane-surface $-1 0 -4.1231143592357959 0 0 1 0 0 0 1 forward_v I I I I #
coedge $-1 $342 $343 $344 $345 forward $137 $-1 #
coedge $-1 $346 $139 $347 $348 forward $87 $-1 #
coedge $-1 $139 $346 $349 $350 forward $87 $-1 #
coedge $-1 $351 $352 $139 $225 reversed $353 $-1 #
edge $-1 $354 -4.1231143592357959 $355 4.1231143592357959 $224 $356 forward 7 unknown #
loop $-1 $357 $358 $140 #
cone-surface $-1 0 0 0 0 0 1 0.5 0 0 1 I I -0.70710678118654746 0.70710678118654746 0.5 forward I I I I #
coedge $-1 $228 $228 $144 $230 forward $141 $-1 #
coedge $-1 $229 $229 $358 $359 forward $143 $-1 #
edge $-1 $360 0 $360 6.2831853071796004 $228 $361 forward 7 unknown #
face $-1 $362 $363 $52 $-1 $364 reversed single #
loop $-1 $-1 $365 $145 #
plane-surface $-1 0 -3.0537229148118374 0 0 1 0 0 0 1 forward_v I I I I #
coedge $-1 $366 $367 $368 $369 forward $146 $-1 #
coedge $-1 $370 $148 $371 $372 forward $93 $-1 #
coedge $-1 $148 $370 $373 $374 forward $93 $-1 #
coedge $-1 $375 $376 $148 $238 reversed $377 $-1 #
edge $-1 $378 -3.0537229148118374 $379 3.0537229148118374 $237 $380 forward 7 unknown #
loop $-1 $381 $382 $149 #
cone-surface $-1 0 0 0 0 0 1 0.25 0 0 1 I I -0.70710678118654746 0.70710678118654746 0.25 forward I I I I #
coedge $-1 $241 $241 $153 $243 forward $150 $-1 #
coedge $-1 $242 $242 $382 $383 forward $152 $-1 #
edge $-1 $384 0 $384 6.2831853071796004 $241 $385 forward 7 unknown #
loop $-1 $386 $387 $154 #
cone-surface $-1 0 0 0 0 0 1 0.25 0 0 1 I I -0.70710678118654746 0.70710678118654746 0.25 forward I I I I #
coedge $-1 $246 $246 $158 $248 forward $155 $-1 #
coedge $-1 $247 $247 $387 $388 forward $157 $-1 #
edge $-1 $389 0 $389 6.2831853071796004 $246 $390 forward 7 unknown #
loop $-1 $391 $392 $159 #
cone-surface $-1 0 0 0 0 0 1 0.25 0 0 1 I I -0.70710678118654746 0.70710678118654746 0.25 forward I I I I #
coedge $-1 $251 $251 $163 $253 forward $160 $-1 #
coedge $-1 $252 $252 $392 $393 forward $162 $-1 #
edge $-1 $394 0 $394 6.2831853071796004 $251 $395 forward 7 unknown #
face $-1 $396 $397 $56 $-1 $398 reversed single #
loop $-1 $-1 $399 $164 #
plane-surface $-1 0 -3.0537229148118374 0 0 1 0 0 0 1 forward_v I I I I #
coedge $-1 $400 $401 $402 $403 forward $165 $-1 #
coedge $-1 $404 $167 $405 $406 forward $105 $-1 #
coedge $-1 $167 $404 $407 $408 forward $105 $-1 #
coedge $-1 $409 $410 $167 $261 reversed $411 $-1 #
edge $-1 $412 -3.0537229148118374 $413 3.0537229148118374 $260 $414 forward 7 unknown #
loop $-1 $415 $416 $168 #
cone-surface $-1 0 0 0 0 0 1 0.25 0 0 1 I I -0.70710678118654746 0.70710678118654746 0.25 forward I I I I #
coedge $-1 $264 $264 $172 $266 forward $169 $-1 #
coedge $-1 $265 $265 $416 $417 forward $171 $-1 #
edge $-1 $418 0 $418 6.2831853071796004 $264 $419 forward 7 unknown #
loop $-1 $420 $421 $173 #
cone-surface $-1 0 0 0 0 0 1 0.25 0 0 1 I I -0.70710678118654746 0.70710678118654746 0.25 forward I I I I #
coedge $-1 $269 $269 $177 $271 forward $174 $-1 #
coedge $-1 $270 $270 $421 $422 forward $176 $-1 #
edge $-1 $423 0 $423 6.2831853071796004 $269 $424 forward 7 unknown #
loop $-1 $425 $426 $178 #
cone-surface $-1 0 0 0 0 0 1 0.25 0 0 1 I I -0.70710678118654746 0.70710678118654746 0.25 forward I I I I #
coedge $-1 $274 $274 $182 $276 forward $179 $-1 #
coedge $-1 $275 $275 $426 $427 forward $181 $-1 #
edge $-1 $428 0 $428 6.2831853071796004 $274 $429 forward 7 unknown #
face $-1 $430 $431 $60 $-1 $432 reversed single #
loop $-1 $-1 $433 $183 #
plane-surface $-1 0 -3.0537229148118374 0 0 1 0 0 0 1 forward_v I I I I #
coedge $-1 $434 $435 $436 $437 forward $184 $-1 #
coedge $-1 $438 $186 $439 $440 forward $117 $-1 #
coedge $-1 $186 $438 $441 $442 forward $117 $-1 #
coedge $-1 $443 $444 $186 $284 reversed $445 $-1 #
edge $-1 $446 -3.0537229148118374 $447 3.0537229148118374 $283 $448 forward 7 unknown #
loop $-1 $449 $450 $187 #
cone-surface $-1 0 0 0 0 0 1 0.25 0 0 1 I I -0.70710678118654746 0.70710678118654746 0.25 forward I I I I #
coedge $-1 $287 $287 $191 $289 forward $188 $-1 #
coedge $-1 $288 $288 $450 $451 forward $190 $-1 #
edge $-1 $452 0 $452 6.2831853071796004 $287 $453 forward 7 unknown #
loop $-1 $454 $455 $192 #
cone-surface $-1 0 0 0 0 0 1 0.25 0 0 1 I I -0.70710678118654746 0.70710678118654746 0.25 forward I I I I #
coedge $-1 $292 $292 $196 $294 forward $193 $-1 #
coedge $-1 $293 $293 $455 $456 forward $195 $-1 #
edge $-1 $457 0 $457 6.2831853071796004 $292 $458 forward 7 unknown #
loop $-1 $459 $460 $197 #
cone-surface $-1 0 0 0 0 0 1 0.25 0 0 1 I I -0.70710678118654746 0.70710678118654746 0.25 forward I I I I #
coedge $-1 $297 $297 $201 $299 forward $198 $-1 #
coedge $-1 $298 $298 $460 $461 forward $200 $-1 #
edge $-1 $462 0 $462 6.2831853071796004 $297 $463 forward 7 unknown #
face $-1 $464 $465 $48 $-1 $466 reversed single #
loop $-1 $-1 $467 $202 #
plane-surface $-1 -43.697622608111821 0 0 1 0 0 0 0 -1 forward_v I I I I #
coedge $-1 $468 $311 $469 $470 forward $203 $-1 #
coedge $-1 $471 $205 $468 $472 forward $129 $-1 #
coedge $-1 $205 $471 $473 $474 forward $129 $-1 #
coedge $-1 $314 $313 $205 $307 reversed $315 $-1 #
edge $-1 $475 -19.050547150529468 $476 19.050547150529468 $306 $477 forward 7 unknown #
coedge $-1 $207 $206 $478 $479 forward $81 $-1 #
coedge $-1 $480 $481 $206 $310 reversed $465 $-1 #
edge $-1 $317 -43.697622608111821 $482 43.697622608111821 $309 $483 forward 7 unknown #
coedge $-1 $303 $484 $207 $312 reversed $203 $-1 #
edge $-1 $485 -43.697622608111821 $316 43.697622608111821 $311 $486 forward 7 unknown #
coedge $-1 $306 $208 $484 $487 forward $315 $-1 #
coedge $-1 $208 $306 $480 $488 reversed $315 $-1 #
loop $-1 $-1 $313 $464 #
vertex $-1 $209 $489 #
vertex $-1 $209 $490 #
straight-curve $-1 43.697622608111821 0 5.7241757568667548 0 1 0 I I #
face $-1 $491 $492 $49 $-1 $493 reversed single #
loop $-1 $-1 $494 $210 #
plane-surface $-1 -43.697622608111821 0 0 1 0 0 0 0 -1 forward_v I I I I #
coedge $-1 $495 $330 $496 $497 forward $211 $-1 #
coedge $-1 $498 $213 $495 $499 forward $133 $-1 #
coedge $-1 $213 $498 $500 $501 forward $133 $-1 #
coedge $-1 $333 $332 $213 $326 reversed $334 $-1 #
edge $-1 $502 -3.721921372749851 $503 3.721921372749851 $325 $504 forward 7 unknown #
coedge $-1 $215 $214 $505 $506 forward $84 $-1 #
coedge $-1 $507 $508 $214 $329 reversed $492 $-1 #
edge $-1 $336 -43.697622608111821 $509 43.697622608111821 $328 $510 forward 7 unknown #
coedge $-1 $322 $511 $215 $331 reversed $211 $-1 #
edge $-1 $512 -43.697622608111821 $335 43.697622608111821 $330 $513 forward 7 unknown #
coedge $-1 $325 $216 $511 $514 forward $334 $-1 #
coedge $-1 $216 $325 $507 $515 reversed $334 $-1 #
loop $-1 $-1 $332 $491 #
vertex $-1 $217 $516 #
vertex $-1 $217 $517 #
straight-curve $-1 43.697622608111821 0 1.5 0 1 0 I I #
face $-1 $518 $519 $50 $-1 $520 reversed single #
loop $-1 $-1 $521 $218 #
plane-surface $-1 -174.79049043244729 0 0 1 0 0 0 0 -1 forward_v I I I I #
coedge $-1 $522 $349 $523 $524 forward $219 $-1 #
coedge $-1 $525 $221 $522 $526 forward $137 $-1 #
coedge $-1 $221 $525 $527 $528 forward $137 $-1 #
coedge $-1 $352 $351 $221 $345 reversed $353 $-1 #
edge $-1 $529 -4.1231143592357959 $530 4.1231143592357959 $344 $531 forward 7 unknown #
coedge $-1 $223 $222 $532 $533 forward $87 $-1 #
coedge $-1 $534 $535 $222 $348 reversed $519 $-1 #
edge $-1 $355 -174.79049043244729 $536 174.79049043244729 $347 $537 forward 7 unknown #
coedge $-1 $341 $538 $223 $350 reversed $219 $-1 #
edge $-1 $539 -174.79049043244729 $354 174.79049043244729 $349 $540 forward 7 unknown #
coedge $-1 $344 $224 $538 $541 forward $353 $-1 #
coedge $-1 $224 $344 $534 $542 reversed $353 $-1 #
loop $-1 $-1 $351 $518 #
vertex $-1 $225 $543 #
vertex $-1 $225 $544 #
straight-curve $-1 174.79049043244729 0 87.395245216223643 0 1 0 I I #
loop $-1 $-1 $545 $140 #
coedge $-1 $358 $358 $229 $359 reversed $226 $-1 #
edge $-1 $546 0 $546 6.2831853071796004 $358 $547 forward 7 unknown #
vertex $-1 $230 $548 #
ellipse-curve $-1 0 0 -3.3261665700247196 0 0 -1 1 0 0 1 I I #
face $-1 $549 $550 $52 $-1 $551 reversed single #
loop $-1 $-1 $552 $231 #
plane-surface $-1 -174.79049043244729 0 0 1 0 0 0 0 -1 forward_v I I I I #
coedge $-1 $553 $373 $554 $555 forward $232 $-1 #
coedge $-1 $556 $234 $553 $557 forward $146 $-1 #
coedge $-1 $234 $556 $558 $559 forward $146 $-1 #
coedge $-1 $376 $375 $234 $369 reversed $377 $-1 #
edge $-1 $560 -3.0537229148118374 $561 3.0537229148118374 $368 $562 forward 7 unknown #
coedge $-1 $236 $235 $563 $564 forward $93 $-1 #
coedge $-1 $565 $566 $235 $372 reversed $550 $-1 #
edge $-1 $379 -174.79049043244729 $567 174.79049043244729 $371 $568 forward 7 unknown #
coedge $-1 $365 $569 $236 $374 reversed $232 $-1 #
edge $-1 $570 -174.79049043244729 $378 174.79049043244729 $373 $571 forward 7 unknown #
coedge $-1 $368 $237 $569 $572 forward $377 $-1 #
coedge $-1 $237 $368 $565 $573 reversed $377 $-1 #
loop $-1 $-1 $375 $549 #
vertex $-1 $238 $574 #
vertex $-1 $238 $575 #
straight-curve $-1 174.79049043244729 0 87.395245216223643 0 1 0 I I #
loop $-1 $-1 $576 $149 #
coedge $-1 $382 $382 $242 $383 reversed $239 $-1 #
edge $-1 $577 0 $577 6.2831853071796004 $382 $578 forward 7 unknown #
vertex $-1 $243 $579 #
ellipse-curve $-1 0 0 -2.204588457899717 0 0 -1 0.5 0 0 1 I I #
loop $-1 $-1 $580 $154 #
coedge $-1 $387 $387 $247 $388 reversed $244 $-1 #
edge $-1 $581 0 $581 6.2831853071796004 $387 $582 forward 7 unknown #
vertex $-1 $248 $583 #
ellipse-curve $-1 0 0 -2.204588457899717 0 0 -1 0.5 0 0 1 I I #
loop $-1 $-1 $584 $159 #
coedge $-1 $392 $392 $252 $393 reversed $249 $-1 #
edge $-1 $585 0 $585 6.2831853071796004 $392 $586 forward 7 unknown #
vertex $-1 $253 $587 #
ellipse-curve $-1 0 0 -2.204588457899717 0 0 -1 0.5 0 0 1 I I #
face $-1 $588 $589 $56 $-1 $590 reversed single #
loop $-1 $-1 $591 $254 #
plane-surface $-1 -174.79049043244729 0 0 1 0 0 0 0 -1 forward_v I I I I #
coedge $-1 $592 $407 $593 $594 forward $255 $-1 #
coedge $-1 $595 $257 $592 $596 forward $165 $-1 #
coedge $-1 $257 $595 $597 $598 forward $165 $-1 #
coedge $-1 $410 $409 $257 $403 reversed $411 $-1 #
edge $-1 $599 -3.0537229148118374 $600 3.0537229148118374 $402 $601 forward 7 unknown #
coedge $-1 $259 $258 $602 $603 forward $105 $-1 #
coedge $-1 $604 $605 $258 $406 reversed $589 $-1 #
edge $-1 $413 -174.79049043244729 $606 174.79049043244729 $405 $607 forward 7 unknown #
coedge $-1 $399 $608 $259 $408 reversed $255 $-1 #
edge $-1 $609 -174.79049043244729 $412 174.79049043244729 $407 $610 forward 7 unknown #
coedge $-1 $402 $260 $608 $611 forward $411 $-1 #
coedge $-1 $260 $402 $604 $612 reversed $411 $-1 #
loop $-1 $-1 $409 $588 #
vertex $-1 $261 $613 #
vertex $-1 $261 $614 #
straight-curve $-1 174.79049043244729 0 87.395245216223643 0 1 0 I I #
loop $-1 $-1 $615 $168 #
coedge $-1 $416 $416 $265 $417 reversed $262 $-1 #
edge $-1 $616 0 $616 6.2831853071796004 $416 $617 forward 7 unknown #
vertex $-1 $266 $618 #
ellipse-curve $-1 0 0 -2.204588457899717 0 0 -1 0.5 0 0 1 I I #
loop $-1 $-1 $619 $173 #
coedge $-1 $421 $421 $270 $422 reversed $267 $-1 #
edge $-1 $620 0 $620 6.2831853071796004 $421 $621 forward 7 unknown #
vertex $-1 $271 $622 #
ellipse-curve $-1 0 0 -2.204588457899717 0 0 -1 0.5 0 0 1 I I #
loop $-1 $-1 $623 $178 #
coedge $-1 $426 $426 $275 $427 reversed $272 $-1 #
edge $-1 $624 0 $624 6.2831853071796004 $426 $625 forward 7 unknown #
vertex $-1 $276 $626 #
ellipse-curve $-1 0 0 -2.204588457899717 0 0 -1 0.5 0 0 1 I I #
face $-1 $627 $628 $60 $-1 $629 reversed single #
loop $-1 $-1 $630 $277 #
plane-surface $-1 -174.79049043244729 0 0 1 0 0 0 0 -1 forward_v I I I I #
coedge $-1 $631 $441 $632 $633 forward $278 $-1 #
coedge $-1 $634 $280 $631 $635 forward $184 $-1 #
coedge $-1 $280 $634 $636 $637 forward $184 $-1 #
coedge $-1 $444 $443 $280 $437 reversed $445 $-1 #
edge $-1 $638 -3.0537229148118374 $639 3.0537229148118374 $436 $640 forward 7 unknown #
coedge $-1 $282 $281 $641 $642 forward $117 $-1 #
coedge $-1 $643 $644 $281 $440 reversed $628 $-1 #
edge $-1 $447 -174.79049043244729 $645 174.79049043244729 $439 $646 forward 7 unknown #
coedge $-1 $433 $647 $282 $442 reversed $278 $-1 #
edge $-1 $648 -174.79049043244729 $446 174.79049043244729 $441 $649 forward 7 unknown #
coedge $-1 $436 $283 $647 $650 forward $445 $-1 #
coedge $-1 $283 $436 $643 $651 reversed $445 $-1 #
loop $-1 $-1 $443 $627 #
vertex $-1 $284 $652 #
vertex $-1 $284 $653 #
straight-curve $-1 174.79049043244729 0 87.395245216223643 0 1 0 I I #
loop $-1 $-1 $654 $187 #
coedge $-1 $450 $450 $288 $451 reversed $285 $-1 #
edge $-1 $655 0 $655 6.2831853071796004 $450 $656 forward 7 unknown #
vertex $-1 $289 $657 #
ellipse-curve $-1 0 0 -2.204588457899717 0 0 -1 0.5 0 0 1 I I #
loop $-1 $-1 $658 $192 #
coedge $-1 $455 $455 $293 $456 reversed $290 $-1 #
edge $-1 $659 0 $659 6.2831853071796004 $455 $660 forward 7 unknown #
vertex $-1 $294 $661 #
ellipse-curve $-1 0 0 -2.204588457899717 0 0 -1 0.5 0 0 1 I I #
loop $-1 $-1 $662 $197 #
coedge $-1 $460 $460 $298 $461 reversed $295 $-1 #
edge $-1 $663 0 $663 6.2831853071796004 $460 $664 forward 7 unknown #
vertex $-1 $299 $665 #
ellipse-curve $-1 0 0 -2.204588457899717 0 0 -1 0.5 0 0 1 I I #
face $-1 $-1 $315 $48 $-1 $666 reversed single #
loop $-1 $-1 $480 $300 #
plane-surface $-1 0 19.050547150529468 0 0 -1 0 0 0 -1 forward_v I I I I #
coedge $-1 $667 $478 $481 $668 forward $301 $-1 #
coedge $-1 $484 $303 $304 $472 reversed $203 $-1 #
coedge $-1 $478 $667 $303 $470 reversed $301 $-1 #
edge $-1 $485 -5.7241757568667548 $669 5.7241757568667548 $469 $670 forward 7 unknown #
coedge $-1 $305 $304 $667 $671 forward $129 $-1 #
edge $-1 $476 -43.697622608111821 $669 43.697622608111821 $468 $672 forward 7 unknown #
coedge $-1 $481 $480 $305 $474 reversed $465 $-1 #
edge $-1 $673 -43.697622608111821 $475 43.697622608111821 $473 $674 forward 7 unknown #
vertex $-1 $307 $675 #
vertex $-1 $487 $676 #
straight-curve $-1 43.697622608111821 0 -5.7241757568667548 0 -1 0 I I #
coedge $-1 $467 $469 $308 $479 reversed $301 $-1 #
edge $-1 $482 -19.050547150529468 $485 19.050547150529468 $478 $677 forward 7 unknown #
coedge $-1 $473 $309 $314 $488 forward $465 $-1 #
coedge $-1 $309 $473 $467 $668 reversed $465 $-1 #
vertex $-1 $310 $678 #
straight-curve $-1 0 19.050547150529468 5.7241757568667548 -1 0 0 I I #
coedge $-1 $311 $468 $313 $487 reversed $203 $-1 #
vertex $-1 $479 $679 #
straight-curve $-1 0 -19.050547150529468 5.7241757568667548 1 0 0 I I #
edge $-1 $316 -5.7241757568667548 $476 5.7241757568667548 $313 $680 forward 7 unknown #
edge $-1 $317 -5.7241757568667548 $475 5.7241757568667548 $314 $681 forward 7 unknown #
point $-1 43.697622608111821 -19.050547150529468 5.7241757568667548 #
point $-1 43.697622608111821 19.050547150529468 5.7241757568667548 #
face $-1 $-1 $334 $49 $-1 $682 reversed single #
loop $-1 $-1 $507 $319 #
plane-surface $-1 0 3.721921372749851 0 0 -1 0 0 0 -1 forward_v I I I I #
coedge $-1 $683 $505 $508 $684 forward $320 $-1 #
coedge $-1 $511 $322 $323 $499 reversed $211 $-1 #
coedge $-1 $505 $683 $322 $497 reversed $320 $-1 #
edge $-1 $512 -1.5 $685 1.5 $496 $686 forward 7 unknown #
coedge $-1 $324 $323 $683 $687 forward $133 $-1 #
edge $-1 $503 -43.697622608111821 $685 43.697622608111821 $495 $688 forward 7 unknown #
coedge $-1 $508 $507 $324 $501 reversed $492 $-1 #
edge $-1 $689 -43.697622608111821 $502 43.697622608111821 $500 $690 forward 7 unknown #
vertex $-1 $326 $691 #
vertex $-1 $514 $692 #
straight-curve $-1 43.697622608111821 0 -1.5 0 -1 0 I I #
coedge $-1 $494 $496 $327 $506 reversed $320 $-1 #
edge $-1 $509 -3.721921372749851 $512 3.721921372749851 $505 $693 forward 7 unknown #
coedge $-1 $500 $328 $333 $515 forward $492 $-1 #
coedge $-1 $328 $500 $494 $684 reversed $492 $-1 #
vertex $-1 $329 $694 #
straight-curve $-1 0 3.721921372749851 1.5 -1 0 0 I I #
coedge $-1 $330 $495 $332 $514 reversed $211 $-1 #
vertex $-1 $506 $695 #
straight-curve $-1 0 -3.721921372749851 1.5 1 0 0 I I #
edge $-1 $335 -1.5 $503 1.5 $332 $696 forward 7 unknown #
edge $-1 $336 -1.5 $502 1.5 $333 $697 forward 7 unknown #
point $-1 43.697622608111821 -3.721921372749851 1.5 #
point $-1 43.697622608111821 3.721921372749851 1.5 #
face $-1 $-1 $353 $50 $-1 $698 reversed single #
loop $-1 $-1 $534 $338 #
plane-surface $-1 0 4.1231143592357959 0 0 -1 0 0 0 -1 forward_v I I I I #
coedge $-1 $699 $532 $535 $700 forward $339 $-1 #
coedge $-1 $538 $341 $342 $526 reversed $219 $-1 #
coedge $-1 $532 $699 $341 $524 reversed $339 $-1 #
edge $-1 $539 -87.395245216223643 $701 87.395245216223643 $523 $702 forward 7 unknown #
coedge $-1 $343 $342 $699 $703 forward $137 $-1 #
edge $-1 $530 -174.79049043244729 $701 174.79049043244729 $522 $704 forward 7 unknown #
coedge $-1 $535 $534 $343 $528 reversed $519 $-1 #
edge $-1 $705 -174.79049043244729 $529 174.79049043244729 $527 $706 forward 7 unknown #
vertex $-1 $345 $707 #
vertex $-1 $541 $708 #
straight-curve $-1 174.79049043244729 0 -87.395245216223643 0 -1 0 I I #
coedge $-1 $521 $523 $346 $533 reversed $339 $-1 #
edge $-1 $536 -4.1231143592357959 $539 4.1231143592357959 $532 $709 forward 7 unknown #
coedge $-1 $527 $347 $352 $542 forward $519 $-1 #
coedge $-1 $347 $527 $521 $700 reversed $519 $-1 #
vertex $-1 $348 $710 #
straight-curve $-1 0 4.1231143592357959 87.395245216223643 -1 0 0 I I #
coedge $-1 $349 $522 $351 $541 reversed $219 $-1 #
vertex $-1 $533 $711 #
straight-curve $-1 0 -4.1231143592357959 87.395245216223643 1 0 0 I I #
edge $-1 $354 -87.395245216223643 $530 87.395245216223643 $351 $712 forward 7 unknown #
edge $-1 $355 -87.395245216223643 $529 87.395245216223643 $352 $713 forward 7 unknown #
point $-1 174.79049043244729 -4.1231143592357959 87.395245216223643 #
point $-1 174.79049043244729 4.1231143592357959 87.395245216223643 #
coedge $-1 $545 $545 $-1 $714 reversed $357 $-1 #
vertex $-1 $359 $715 #
ellipse-curve $-1 0 0 -0.5 0 0 -1 1 0 0 1 I I #
point $-1 1 0 -3.3261665700247196 #
face $-1 $-1 $377 $52 $-1 $716 reversed single #
loop $-1 $-1 $565 $362 #
plane-surface $-1 0 3.0537229148118374 0 0 -1 0 0 0 -1 forward_v I I I I #
coedge $-1 $717 $563 $566 $718 forward $363 $-1 #
coedge $-1 $569 $365 $366 $557 reversed $232 $-1 #
coedge $-1 $563 $717 $365 $555 reversed $363 $-1 #
edge $-1 $570 -87.395245216223643 $719 87.395245216223643 $554 $720 forward 7 unknown #
coedge $-1 $367 $366 $717 $721 forward $146 $-1 #
edge $-1 $561 -174.79049043244729 $719 174.79049043244729 $553 $722 forward 7 unknown #
coedge $-1 $566 $565 $367 $559 reversed $550 $-1 #
edge $-1 $723 -174.79049043244729 $560 174.79049043244729 $558 $724 forward 7 unknown #
vertex $-1 $369 $725 #
vertex $-1 $572 $726 #
straight-curve $-1 174.79049043244729 0 -87.395245216223643 0 -1 0 I I #
coedge $-1 $552 $554 $370 $564 reversed $363 $-1 #
edge $-1 $567 -3.0537229148118374 $570 3.0537229148118374 $563 $727 forward 7 unknown #
coedge $-1 $558 $371 $376 $573 forward $550 $-1 #
coedge $-1 $371 $558 $552 $718 reversed $550 $-1 #
vertex $-1 $372 $728 #
straight-curve $-1 0 3.0537229148118374 87.395245216223643 -1 0 0 I I #
coedge $-1 $373 $553 $375 $572 reversed $232 $-1 #
vertex $-1 $564 $729 #
straight-curve $-1 0 -3.0537229148118374 87.395245216223643 1 0 0 I I #
edge $-1 $378 -87.395245216223643 $561 87.395245216223643 $375 $730 forward 7 unknown #
edge $-1 $379 -87.395245216223643 $560 87.395245216223643 $376 $731 forward 7 unknown #
point $-1 174.79049043244729 -3.0537229148118374 87.395245216223643 #
point $-1 174.79049043244729 3.0537229148118374 87.395245216223643 #
coedge $-1 $576 $576 $-1 $732 reversed $381 $-1 #
vertex $-1 $383 $733 #
ellipse-curve $-1 0 0 -0.25 0 0 -1 0.5 0 0 1 I I #
point $-1 0.5 0 -2.204588457899717 #
coedge $-1 $580 $580 $-1 $734 reversed $386 $-1 #
vertex $-1 $388 $735 #
ellipse-curve $-1 0 0 -0.25 0 0 -1 0.5 0 0 1 I I #
point $-1 0.5 0 -2.204588457899717 #
coedge $-1 $584 $584 $-1 $736 reversed $391 $-1 #
vertex $-1 $393 $737 #
ellipse-curve $-1 0 0 -0.25 0 0 -1 0.5 0 0 1 I I #
point $-1 0.5 0 -2.204588457899717 #
face $-1 $-1 $411 $56 $-1 $738 reversed single #
loop $-1 $-1 $604 $396 #
plane-surface $-1 0 3.0537229148118374 0 0 -1 0 0 0 -1 forward_v I I I I #
coedge $-1 $739 $602 $605 $740 forward $397 $-1 #
coedge $-1 $608 $399 $400 $596 reversed $255 $-1 #
coedge $-1 $602 $739 $399 $594 reversed $397 $-1 #
edge $-1 $609 -87.395245216223643 $741 87.395245216223643 $593 $742 forward 7 unknown #
coedge $-1 $401 $400 $739 $743 forward $165 $-1 #
edge $-1 $600 -174.79049043244729 $741 174.79049043244729 $592 $744 forward 7 unknown #
coedge $-1 $605 $604 $401 $598 reversed $589 $-1 #
edge $-1 $745 -174.79049043244729 $599 174.79049043244729 $597 $746 forward 7 unknown #
vertex $-1 $403 $747 #
vertex $-1 $611 $748 #
straight-curve $-1 174.79049043244729 0 -87.395245216223643 0 -1 0 I I #
coedge $-1 $591 $593 $404 $603 reversed $397 $-1 #
edge $-1 $606 -3.0537229148118374 $609 3.0537229148118374 $602 $749 forward 7 unknown #
coedge $-1 $597 $405 $410 $612 forward $589 $-1 #
coedge $-1 $405 $597 $591 $740 reversed $589 $-1 #
vertex $-1 $406 $750 #
straight-curve $-1 0 3.0537229148118374 87.395245216223643 -1 0 0 I I #
coedge $-1 $407 $592 $409 $611 reversed $255 $-1 #
vertex $-1 $603 $751 #
straight-curve $-1 0 -3.0537229148118374 87.395245216223643 1 0 0 I I #
edge $-1 $412 -87.395245216223643 $600 87.395245216223643 $409 $752 forward 7 unknown #
edge $-1 $413 -87.395245216223643 $599 87.395245216223643 $410 $753 forward 7 unknown #
point $-1 174.79049043244729 -3.0537229148118374 87.395245216223643 #
point $-1 174.79049043244729 3.0537229148118374 87.395245216223643 #
coedge $-1 $615 $615 $-1 $754 reversed $415 $-1 #
vertex $-1 $417 $755 #
ellipse-curve $-1 0 0 -0.25 0 0 -1 0.5 0 0 1 I I #
point $-1 0.5 0 -2.204588457899717 #
coedge $-1 $619 $619 $-1 $756 reversed $420 $-1 #
vertex $-1 $422 $757 #
ellipse-curve $-1 0 0 -0.25 0 0 -1 0.5 0 0 1 I I #
point $-1 0.5 0 -2.204588457899717 #
coedge $-1 $623 $623 $-1 $758 reversed $425 $-1 #
vertex $-1 $427 $759 #
ellipse-curve $-1 0 0 -0.25 0 0 -1 0.5 0 0 1 I I #
point $-1 0.5 0 -2.204588457899717 #
face $-1 $-1 $445 $60 $-1 $760 reversed single #
loop $-1 $-1 $643 $430 #
plane-surface $-1 0 3.0537229148118374 0 0 -1 0 0 0 -1 forward_v I I I I #
coedge $-1 $761 $641 $644 $762 forward $431 $-1 #
coedge $-1 $647 $433 $434 $635 reversed $278 $-1 #
coedge $-1 $641 $761 $433 $633 reversed $431 $-1 #
edge $-1 $648 -87.395245216223643 $763 87.395245216223643 $632 $764 forward 7 unknown #
coedge $-1 $435 $434 $761 $765 forward $184 $-1 #
edge $-1 $639 -174.79049043244729 $763 174.79049043244729 $631 $766 forward 7 unknown #
coedge $-1 $644 $643 $435 $637 reversed $628 $-1 #
edge $-1 $767 -174.79049043244729 $638 174.79049043244729 $636 $768 forward 7 unknown #
vertex $-1 $437 $769 #
vertex $-1 $650 $770 #
straight-curve $-1 174.79049043244729 0 -87.395245216223643 0 -1 0 I I #
coedge $-1 $630 $632 $438 $642 reversed $431 $-1 #
edge $-1 $645 -3.0537229148118374 $648 3.0537229148118374 $641 $771 forward 7 unknown #
coedge $-1 $636 $439 $444 $651 forward $628 $-1 #
coedge $-1 $439 $636 $630 $762 reversed $628 $-1 #
vertex $-1 $440 $772 #
straight-curve $-1 0 3.0537229148118374 87.395245216223643 -1 0 0 I I #
coedge $-1 $441 $631 $443 $650 reversed $278 $-1 #
vertex $-1 $642 $773 #
straight-curve $-1 0 -3.0537229148118374 87.395245216223643 1 0 0 I I #
edge $-1 $446 -87.395245216223643 $639 87.395245216223643 $443 $774 forward 7 unknown #
edge $-1 $447 -87.395245216223643 $638 87.395245216223643 $444 $775 forward 7 unknown #
point $-1 174.79049043244729 -3.0537229148118374 87.395245216223643 #
point $-1 174.79049043244729 3.0537229148118374 87.395245216223643 #
coedge $-1 $654 $654 $-1 $776 reversed $449 $-1 #
vertex $-1 $451 $777 #
ellipse-curve $-1 0 0 -0.25 0 0 -1 0.5 0 0 1 I I #
point $-1 0.5 0 -2.204588457899717 #
coedge $-1 $658 $658 $-1 $778 reversed $454 $-1 #
vertex $-1 $456 $779 #
ellipse-curve $-1 0 0 -0.25 0 0 -1 0.5 0 0 1 I I #
point $-1 0.5 0 -2.204588457899717 #
coedge $-1 $662 $662 $-1 $780 reversed $459 $-1 #
vertex $-1 $461 $781 #
ellipse-curve $-1 0 0 -0.25 0 0 -1 0.5 0 0 1 I I #
point $-1 0.5 0 -2.204588457899717 #
plane-surface $-1 43.697622608111821 0 0 -1 0 0 0 0 1 forward_v I I I I #
coedge $-1 $469 $467 $471 $671 reversed $301 $-1 #
edge $-1 $482 -5.7241757568667548 $673 5.7241757568667548 $481 $782 forward 7 unknown #
vertex $-1 $671 $783 #
straight-curve $-1 -43.697622608111821 -19.050547150529468 0 0 0 -1 I I #
edge $-1 $669 -19.050547150529468 $673 19.050547150529468 $667 $784 forward 7 unknown #
straight-curve $-1 0 -19.050547150529468 -5.7241757568667548 -1 0 0 I I #
vertex $-1 $474 $785 #
straight-curve $-1 0 19.050547150529468 -5.7241757568667548 1 0 0 I I #
point $-1 43.697622608111821 19.050547150529468 -5.7241757568667548 #
point $-1 43.697622608111821 -19.050547150529468 -5.7241757568667548 #
straight-curve $-1 -43.697622608111821 0 5.7241757568667548 0 -1 0 I I #
point $-1 -43.697622608111821 19.050547150529468 5.7241757568667548 #
point $-1 -43.697622608111821 -19.050547150529468 5.7241757568667548 #
straight-curve $-1 43.697622608111821 -19.050547150529468 0 0 0 -1 I I #
straight-curve $-1 43.697622608111821 19.050547150529468 0 0 0 -1 I I #
plane-surface $-1 43.697622608111821 0 0 -1 0 0 0 0 1 forward_v I I I I #
coedge $-1 $496 $494 $498 $687 reversed $320 $-1 #
edge $-1 $509 -1.5 $689 1.5 $508 $786 forward 7 unknown #
vertex $-1 $687 $787 #
straight-curve $-1 -43.697622608111821 -3.721921372749851 0 0 0 -1 I I #
edge $-1 $685 -3.721921372749851 $689 3.721921372749851 $683 $788 forward 7 unknown #
straight-curve $-1 0 -3.721921372749851 -1.5 -1 0 0 I I #
vertex $-1 $501 $789 #
straight-curve $-1 0 3.721921372749851 -1.5 1 0 0 I I #
point $-1 43.697622608111821 3.721921372749851 -1.5 #
point $-1 43.697622608111821 -3.721921372749851 -1.5 #
straight-curve $-1 -43.697622608111821 0 1.5 0 -1 0 I I #
point $-1 -43.697622608111821 3.721921372749851 1.5 #
point $-1 -43.697622608111821 -3.721921372749851 1.5 #
straight-curve $-1 43.697622608111821 -3.721921372749851 0 0 0 -1 I I #
straight-curve $-1 43.697622608111821 3.721921372749851 0 0 0 -1 I I #
plane-surface $-1 174.79049043244729 0 0 -1 0 0 0 0 1 forward_v I I I I #
coedge $-1 $523 $521 $525 $703 reversed $339 $-1 #
edge $-1 $536 -87.395245216223643 $705 87.395245216223643 $535 $790 forward 7 unknown #
vertex $-1 $703 $791 #
straight-curve $-1 -174.79049043244729 -4.1231143592357959 0 0 0 -1 I I #
edge $-1 $701 -4.1231143592357959 $705 4.1231143592357959 $699 $792 forward 7 unknown #
straight-curve $-1 0 -4.1231143592357959 -87.395245216223643 -1 0 0 I I #
vertex $-1 $528 $793 #
straight-curve $-1 0 4.1231143592357959 -87.395245216223643 1 0 0 I I #
point $-1 174.79049043244729 4.1231143592357959 -87.395245216223643 #
point $-1 174.79049043244729 -4.1231143592357959 -87.395245216223643 #
straight-curve $-1 -174.79049043244729 0 87.395245216223643 0 -1 0 I I #
point $-1 -174.79049043244729 4.1231143592357959 87.395245216223643 #
point $-1 -174.79049043244729 -4.1231143592357959 87.395245216223643 #
straight-curve $-1 174.79049043244729 -4.1231143592357959 0 0 0 -1 I I #
straight-curve $-1 174.79049043244729 4.1231143592357959 0 0 0 -1 I I #
edge $-1 $794 1 $794 0 $545 $-1 forward 7 unknown #
point $-1 1 0 -0.5 #
plane-surface $-1 174.79049043244729 0 0 -1 0 0 0 0 1 forward_v I I I I #
coedge $-1 $554 $552 $556 $721 reversed $363 $-1 #
edge $-1 $567 -87.395245216223643 $723 87.395245216223643 $566 $795 forward 7 unknown #
vertex $-1 $721 $796 #
straight-curve $-1 -174.79049043244729 -3.0537229148118374 0 0 0 -1 I I #
edge $-1 $719 -3.0537229148118374 $723 3.0537229148118374 $717 $797 forward 7 unknown #
straight-curve $-1 0 -3.0537229148118374 -87.395245216223643 -1 0 0 I I #
vertex $-1 $559 $798 #
straight-curve $-1 0 3.0537229148118374 -87.395245216223643 1 0 0 I I #
point $-1 174.79049043244729 3.0537229148118374 -87.395245216223643 #
point $-1 174.79049043244729 -3.0537229148118374 -87.395245216223643 #
straight-curve $-1 -174.79049043244729 0 87.395245216223643 0 -1 0 I I #
point $-1 -174.79049043244729 3.0537229148118374 87.395245216223643 #
point $-1 -174.79049043244729 -3.0537229148118374 87.395245216223643 #
straight-curve $-1 174.79049043244729 -3.0537229148118374 0 0 0 -1 I I #
straight-curve $-1 174.79049043244729 3.0537229148118374 0 0 0 -1 I I #
edge $-1 $799 1 $799 0 $576 $-1 forward 7 unknown #
point $-1 0.5 0 -0.25 #
edge $-1 $800 1 $800 0 $580 $-1 forward 7 unknown #
point $-1 0.5 0 -0.25 #
edge $-1 $801 1 $801 0 $584 $-1 forward 7 unknown #
point $-1 0.5 0 -0.25 #
plane-surface $-1 174.79049043244729 0 0 -1 0 0 0 0 1 forward_v I I I I #
coedge $-1 $593 $591 $595 $743 reversed $397 $-1 #
edge $-1 $606 -87.395245216223643 $745 87.395245216223643 $605 $802 forward 7 unknown #
vertex $-1 $743 $803 #
straight-curve $-1 -174.79049043244729 -3.0537229148118374 0 0 0 -1 I I #
edge $-1 $741 -3.0537229148118374 $745 3.0537229148118374 $739 $804 forward 7 unknown #
straight-curve $-1 0 -3.0537229148118374 -87.395245216223643 -1 0 0 I I #
vertex $-1 $598 $805 #
straight-curve $-1 0 3.0537229148118374 -87.395245216223643 1 0 0 I I #
point $-1 174.79049043244729 3.0537229148118374 -87.395245216223643 #
point $-1 174.79049043244729 -3.0537229148118374 -87.395245216223643 #
straight-curve $-1 -174.79049043244729 0 87.395245216223643 0 -1 0 I I #
point $-1 -174.79049043244729 3.0537229148118374 87.395245216223643 #
point $-1 -174.79049043244729 -3.0537229148118374 87.395245216223643 #
straight-curve $-1 174.79049043244729 -3.0537229148118374 0 0 0 -1 I I #
straight-curve $-1 174.79049043244729 3.0537229148118374 0 0 0 -1 I I #
edge $-1 $806 1 $806 0 $615 $-1 forward 7 unknown #
point $-1 0.5 0 -0.25 #
edge $-1 $807 1 $807 0 $619 $-1 forward 7 unknown #
point $-1 0.5 0 -0.25 #
edge $-1 $808 1 $808 0 $623 $-1 forward 7 unknown #
point $-1 0.5 0 -0.25 #
plane-surface $-1 174.79049043244729 0 0 -1 0 0 0 0 1 forward_v I I I I #
coedge $-1 $632 $630 $634 $765 reversed $431 $-1 #
edge $-1 $645 -87.395245216223643 $767 87.395245216223643 $644 $809 forward 7 unknown #
vertex $-1 $765 $810 #
straight-curve $-1 -174.79049043244729 -3.0537229148118374 0 0 0 -1 I I #
edge $-1 $763 -3.0537229148118374 $767 3.0537229148118374 $761 $811 forward 7 unknown #
straight-curve $-1 0 -3.0537229148118374 -87.395245216223643 -1 0 0 I I #
vertex $-1 $637 $812 #
straight-curve $-1 0 3.0537229148118374 -87.395245216223643 1 0 0 I I #
point $-1 174.79049043244729 3.0537229148118374 -87.395245216223643 #
point $-1 174.79049043244729 -3.0537229148118374 -87.395245216223643 #
straight-curve $-1 -174.79049043244729 0 87.395245216223643 0 -1 0 I I #
point $-1 -174.79049043244729 3.0537229148118374 87.395245216223643 #
point $-1 -174.79049043244729 -3.0537229148118374 87.395245216223643 #
straight-curve $-1 174.79049043244729 -3.0537229148118374 0 0 0 -1 I I #
straight-curve $-1 174.79049043244729 3.0537229148118374 0 0 0 -1 I I #
edge $-1 $813 1 $813 0 $654 $-1 forward 7 unknown #
point $-1 0.5 0 -0.25 #
edge $-1 $814 1 $814 0 $658 $-1 forward 7 unknown #
point $-1 0.5 0 -0.25 #
edge $-1 $815 1 $815 0 $662 $-1 forward 7 unknown #
point $-1 0.5 0 -0.25 #
straight-curve $-1 -43.697622608111821 19.050547150529468 0 0 0 -1 I I #
point $-1 -43.697622608111821 -19.050547150529468 -5.7241757568667548 #
straight-curve $-1 -43.697622608111821 0 -5.7241757568667548 0 1 0 I I #
point $-1 -43.697622608111821 19.050547150529468 -5.7241757568667548 #
straight-curve $-1 -43.697622608111821 3.721921372749851 0 0 0 -1 I I #
point $-1 -43.697622608111821 -3.721921372749851 -1.5 #
straight-curve $-1 -43.697622608111821 0 -1.5 0 1 0 I I #
point $-1 -43.697622608111821 3.721921372749851 -1.5 #
straight-curve $-1 -174.79049043244729 4.1231143592357959 0 0 0 -1 I I #
point $-1 -174.79049043244729 -4.1231143592357959 -87.395245216223643 #
straight-curve $-1 -174.79049043244729 0 -87.395245216223643 0 1 0 I I #
point $-1 -174.79049043244729 4.1231143592357959 -87.395245216223643 #
vertex $-1 $714 $816 #
straight-curve $-1 -174.79049043244729 3.0537229148118374 0 0 0 -1 I I #
point $-1 -174.79049043244729 -3.0537229148118374 -87.395245216223643 #
straight-curve $-1 -174.79049043244729 0 -87.395245216223643 0 1 0 I I #
point $-1 -174.79049043244729 3.0537229148118374 -87.395245216223643 #
vertex $-1 $732 $817 #
vertex $-1 $734 $818 #
vertex $-1 $736 $819 #
straight-curve $-1 -174.79049043244729 3.0537229148118374 0 0 0 -1 I I #
point $-1 -174.79049043244729 -3.0537229148118374 -87.395245216223643 #
straight-curve $-1 -174.79049043244729 0 -87.395245216223643 0 1 0 I I #
point $-1 -174.79049043244729 3.0537229148118374 -87.395245216223643 #
vertex $-1 $754 $820 #
vertex $-1 $756 $821 #
vertex $-1 $758 $822 #
straight-curve $-1 -174.79049043244729 3.0537229148118374 0 0 0 -1 I I #
point $-1 -174.79049043244729 -3.0537229148118374 -87.395245216223643 #
straight-curve $-1 -174.79049043244729 0 -87.395245216223643 0 1 0 I I #
point $-1 -174.79049043244729 3.0537229148118374 -87.395245216223643 #
vertex $-1 $776 $823 #
vertex $-1 $778 $824 #
vertex $-1 $780 $825 #
point $-1 0 0 0.5 #
point $-1 0 0 0.25 #
point $-1 0 0 0.25 #
point $-1 0 0 0.25 #
point $-1 0 0 0.25 #
point $-1 0 0 0.25 #
point $-1 0 0 0.25 #
point $-1 0 0 0.25 #
point $-1 0 0 0.25 #
point $-1 0 0 0.25 #
End-of-ACIS-data 