500 0 13 0           
7 Unknown 11 ACIS 5.0 NT 24 Fri Mar 26 18:42:08 1999 
-1 9.9999999999999995e-007 1e-010 
body $-1 $13 $-1 $14 #
body $-1 $15 $-1 $16 #
body $-1 $17 $-1 $18 #
body $-1 $19 $-1 $20 #
body $-1 $21 $-1 $22 #
body $-1 $23 $-1 $24 #
body $-1 $25 $-1 $26 #
body $-1 $27 $-1 $28 #
body $-1 $29 $-1 $30 #
body $-1 $31 $-1 $32 #
body $-1 $33 $-1 $34 #
body $-1 $35 $-1 $36 #
body $-1 $37 $-1 $38 #
lump $-1 $-1 $39 $0 #
transform $-1 1 0 0 0 1 0 0 0 1 63.983886226996674 41.174285915519555 18.264610145550702 1 rotate no_reflect no_shear #
lump $-1 $-1 $40 $1 #
transform $-1 1 0 0 0 1 0 0 0 1 63.983886226996674 41.174285915519555 18.264610145550702 1 rotate no_reflect no_shear #
lump $-1 $-1 $41 $2 #
transform $-1 1 0 0 0 1 0 0 0 1 63.983886226996674 41.174285915519555 18.264610145550702 1 rotate no_reflect no_shear #
lump $-1 $-1 $42 $3 #
transform $-1 1 0 0 0 1 0 0 0 1 63.983886226996674 41.174285915519555 18.264610145550702 1 rotate no_reflect no_shear #
lump $-1 $-1 $43 $4 #
transform $-1 1 0 0 0 1 0 0 0 1 63.983886226996674 41.174285915519555 18.264610145550702 1 rotate no_reflect no_shear #
lump $-1 $-1 $44 $5 #
transform $-1 1 0 0 0 1 0 0 0 1 63.983886226996674 41.174285915519555 18.264610145550702 1 rotate no_reflect no_shear #
lump $-1 $-1 $45 $6 #
transform $-1 1 0 0 0 1 0 0 0 1 63.983886226996674 41.174285915519555 18.264610145550702 1 rotate no_reflect no_shear #
lump $-1 $-1 $46 $7 #
transform $-1 1 0 0 0 1 0 0 0 1 63.983886226996674 41.174285915519555 18.264610145550702 1 rotate no_reflect no_shear #
lump $-1 $-1 $47 $8 #
transform $-1 1 0 0 0 1 0 0 0 1 63.983886226996674 41.174285915519555 18.264610145550702 1 rotate no_reflect no_shear #
lump $-1 $-1 $48 $9 #
transform $-1 1 0 0 0 1 0 0 0 1 63.983886226996674 41.174285915519555 18.264610145550702 1 rotate no_reflect no_shear #
lump $-1 $-1 $49 $10 #
transform $-1 1 0 0 0 1 0 0 0 1 63.983886226996674 41.174285915519555 18.264610145550702 1 rotate no_reflect no_shear #
lump $-1 $-1 $50 $11 #
transform $-1 1 0 0 0 1 0 0 0 1 63.983886226996674 41.174285915519555 18.264610145550702 1 rotate no_reflect no_shear #
lump $-1 $-1 $51 $12 #
transform $-1 1 0 0 0 1 0 0 0 1 63.983886226996674 41.174285915519555 18.264610145550702 1 rotate no_reflect no_shear #
shell $-1 $-1 $-1 $52 $-1 $13 #
shell $-1 $-1 $-1 $53 $-1 $15 #
shell $-1 $-1 $-1 $54 $-1 $17 #
shell $-1 $-1 $-1 $55 $-1 $19 #
shell $-1 $-1 $-1 $56 $-1 $21 #
shell $-1 $-1 $-1 $57 $-1 $23 #
shell $-1 $-1 $-1 $58 $-1 $25 #
shell $-1 $-1 $-1 $59 $-1 $27 #
shell $-1 $-1 $-1 $60 $-1 $29 #
shell $-1 $-1 $-1 $61 $-1 $31 #
shell $-1 $-1 $-1 $62 $-1 $33 #
shell $-1 $-1 $-1 $63 $-1 $35 #
shell $-1 $-1 $-1 $64 $-1 $37 #
face $-1 $65 $66 $39 $-1 $67 forward single #
face $-1 $68 $69 $40 $-1 $70 reversed single #
face $-1 $71 $72 $41 $-1 $73 reversed single #
face $-1 $74 $75 $42 $-1 $76 forward single #
face $-1 $77 $78 $43 $-1 $79 forward single #
face $-1 $80 $81 $44 $-1 $82 reversed single #
face $-1 $83 $84 $45 $-1 $85 forward single #
face $-1 $86 $87 $46 $-1 $88 forward single #
face $-1 $89 $90 $47 $-1 $91 forward single #
face $-1 $92 $93 $48 $-1 $94 reversed single #
face $-1 $95 $96 $49 $-1 $97 forward single #
face $-1 $98 $99 $50 $-1 $100 forward single #
face $-1 $101 $102 $51 $-1 $103 forward single #
face $-1 $104 $105 $39 $-1 $106 reversed single #
loop $-1 $-1 $107 $52 #
plane-surface $-1 0 0 18.264610145550702 0 0 1 1 0 0 forward_v I I I I #
face $-1 $108 $109 $40 $-1 $110 reversed single #
loop $-1 $-1 $111 $53 #
plane-surface $-1 -54.51808354229216 -17.510825307442424 0 0 1 0 0 0 1 forward_v I I I I #
face $-1 $112 $113 $41 $-1 $114 reversed single #
loop $-1 $-1 $115 $54 #
plane-surface $-1 27.809308469069229 86.270647127508312 150.76641888455606 1 0 0 0 -0.7660444514056185 -0.64278759981090561 forward_v I I I I #
face $-1 $116 $117 $42 $-1 $118 forward single #
loop $-1 $119 $120 $55 #
cone-surface $-1 34.924618479090825 32.861229892700194 9.3898245459368646 0 -0.7660444514056185 -0.64278759981090561 2.5 0 0 1 I I 0 1 2.5 forward I I I I #
face $-1 $121 $122 $43 $-1 $123 forward single #
loop $-1 $124 $125 $56 #
cone-surface $-1 45.597583494123199 32.861229892700194 9.3898245459368646 0 -0.7660444514056185 -0.64278759981090561 2.5 0 0 1 I I 0 1 2.5 forward I I I I #
face $-1 $126 $127 $44 $-1 $128 reversed single #
loop $-1 $-1 $129 $57 #
plane-surface $-1 -29.737236593843907 -112.7329570747772 106.37752220638862 -1 0 0 0 -0.55919291073839883 0.82903756765294845 forward_v I I I I #
face $-1 $130 $131 $45 $-1 $132 forward single #
loop $-1 $133 $134 $58 #
cone-surface $-1 -41.989272004838895 -26.758694994279274 7.6608308135665677 0 0.55919291073839883 -0.82903756765294845 1 0 0 1 I I 0 1 1 forward I I I I #
face $-1 $135 $136 $46 $-1 $137 forward single #
loop $-1 $138 $139 $59 #
cone-surface $-1 -37.394758725715775 -26.758694994279274 7.6608308135665677 0 0.55919291073839883 -0.82903756765294845 1 0 0 1 I I 0 1 1 forward I I I I #
face $-1 $140 $141 $47 $-1 $142 forward single #
loop $-1 $143 $144 $60 #
cone-surface $-1 -32.800245446592655 -26.758694994279274 7.6608308135665677 0 0.55919291073839883 -0.82903756765294845 1 0 0 1 I I 0 1 1 forward I I I I #
face $-1 $145 $146 $48 $-1 $147 reversed single #
loop $-1 $-1 $148 $61 #
plane-surface $-1 48.668841963252945 -112.7329570747772 106.37752220638862 1 0 0 0 0.55919291073839883 -0.82903756765294845 forward_v I I I I #
face $-1 $149 $150 $49 $-1 $151 forward single #
loop $-1 $152 $153 $62 #
cone-surface $-1 51.731850816001696 -26.758694994279274 7.6608308135665677 0 0.55919291073839883 -0.82903756765294845 1 0 0 1 I I 0 1 1 forward I I I I #
face $-1 $154 $155 $50 $-1 $156 forward single #
loop $-1 $157 $158 $63 #
cone-surface $-1 56.326364095124816 -26.758694994279274 7.6608308135665677 0 0.55919291073839883 -0.82903756765294845 1 0 0 1 I I 0 1 1 forward I I I I #
face $-1 $159 $160 $51 $-1 $161 forward single #
loop $-1 $162 $163 $64 #
cone-surface $-1 60.920877374247937 -26.758694994279274 7.6608308135665677 0 0.55919291073839883 -0.82903756765294845 1 0 0 1 I I 0 1 1 forward I I I I #
face $-1 $164 $165 $39 $-1 $166 reversed single #
loop $-1 $-1 $167 $65 #
plane-surface $-1 0 0 -18.264610145550702 0 0 1 1 0 0 forward_v I I I I #
coedge $-1 $168 $169 $170 $171 forward $66 $-1 #
face $-1 $172 $173 $40 $-1 $174 reversed single #
loop $-1 $-1 $175 $68 #
plane-surface $-1 -54.51808354229216 -12.330380537682634 0 0 -1 0 0 0 -1 forward_v I I I I #
coedge $-1 $176 $177 $178 $179 reversed $69 $-1 #
face $-1 $180 $181 $41 $-1 $182 reversed single #
loop $-1 $-1 $183 $71 #
plane-surface $-1 40.261100986607005 -11.758354919610042 68.510321575705561 0 0.7660444514056185 0.64278759981090561 1 0 0 forward_v I I I I #
coedge $-1 $184 $185 $186 $187 reversed $72 $-1 #
face $-1 $-1 $188 $42 $-1 $189 forward single #
loop $-1 $190 $191 $74 #
cone-surface $-1 34.924618479090825 28.976360310461963 6.1300319976542106 0 -0.7660444514056185 -0.64278759981090561 1.25 0 0 1 I I -0.70710678118654746 0.70710678118654746 1.25 forward I I I I #
loop $-1 $-1 $192 $55 #
coedge $-1 $120 $120 $193 $194 reversed $75 $-1 #
face $-1 $-1 $195 $43 $-1 $196 forward single #
loop $-1 $197 $198 $77 #
cone-surface $-1 45.597583494123199 28.976360310461963 6.1300319976542106 0 -0.7660444514056185 -0.64278759981090561 1.25 0 0 1 I I -0.70710678118654746 0.70710678118654746 1.25 forward I I I I #
loop $-1 $-1 $199 $56 #
coedge $-1 $125 $125 $200 $201 reversed $78 $-1 #
face $-1 $202 $203 $44 $-1 $204 reversed single #
loop $-1 $-1 $205 $80 #
plane-surface $-1 -37.394758725715775 -41.174285915519562 0.28743139316398469 0 -0.55919291073839883 0.82903756765294845 1 0 0 forward_v I I I I #
coedge $-1 $206 $207 $208 $209 reversed $81 $-1 #
face $-1 $-1 $210 $45 $-1 $211 forward single #
loop $-1 $212 $213 $83 #
cone-surface $-1 -41.989272004838895 -25.389639136809528 5.6311220739493102 0 0.55919291073839883 -0.82903756765294845 0.5 0 0 1 I I -0.70710678118654746 0.70710678118654746 0.5 forward I I I I #
loop $-1 $-1 $214 $58 #
coedge $-1 $134 $134 $215 $216 reversed $84 $-1 #
face $-1 $-1 $217 $46 $-1 $218 forward single #
loop $-1 $219 $220 $86 #
cone-surface $-1 -37.394758725715775 -25.389639136809528 5.6311220739493102 0 0.55919291073839883 -0.82903756765294845 0.5 0 0 1 I I -0.70710678118654746 0.70710678118654746 0.5 forward I I I I #
loop $-1 $-1 $221 $59 #
coedge $-1 $139 $139 $222 $223 reversed $87 $-1 #
face $-1 $-1 $224 $47 $-1 $225 forward single #
loop $-1 $226 $227 $89 #
cone-surface $-1 -32.800245446592655 -25.389639136809528 5.6311220739493102 0 0.55919291073839883 -0.82903756765294845 0.5 0 0 1 I I -0.70710678118654746 0.70710678118654746 0.5 forward I I I I #
loop $-1 $-1 $228 $60 #
coedge $-1 $144 $144 $229 $230 reversed $90 $-1 #
face $-1 $231 $232 $48 $-1 $233 forward single #
loop $-1 $-1 $234 $92 #
plane-surface $-1 56.326364095124816 -41.174285915519562 0.28743139316398469 0 -0.55919291073839883 0.82903756765294845 1 0 0 forward_v I I I I #
coedge $-1 $235 $236 $237 $238 reversed $93 $-1 #
face $-1 $-1 $239 $49 $-1 $240 forward single #
loop $-1 $241 $242 $95 #
cone-surface $-1 51.731850816001696 -25.389639136809528 5.6311220739493102 0 0.55919291073839883 -0.82903756765294845 0.5 0 0 1 I I -0.70710678118654746 0.70710678118654746 0.5 forward I I I I #
loop $-1 $-1 $243 $62 #
coedge $-1 $153 $153 $244 $245 reversed $96 $-1 #
face $-1 $-1 $246 $50 $-1 $247 forward single #
loop $-1 $248 $249 $98 #
cone-surface $-1 56.326364095124816 -25.389639136809528 5.6311220739493102 0 0.55919291073839883 -0.82903756765294845 0.5 0 0 1 I I -0.70710678118654746 0.70710678118654746 0.5 forward I I I I #
loop $-1 $-1 $250 $63 #
coedge $-1 $158 $158 $251 $252 reversed $99 $-1 #
face $-1 $-1 $253 $51 $-1 $254 forward single #
loop $-1 $255 $256 $101 #
cone-surface $-1 60.920877374247937 -25.389639136809528 5.6311220739493102 0 0.55919291073839883 -0.82903756765294845 0.5 0 0 1 I I -0.70710678118654746 0.70710678118654746 0.5 forward I I I I #
loop $-1 $-1 $257 $64 #
coedge $-1 $163 $163 $258 $259 reversed $102 $-1 #
face $-1 $260 $261 $39 $-1 $262 reversed single #
loop $-1 $-1 $263 $104 #
plane-surface $-1 0 -41.174285915519555 0 0 1 0 0 0 1 forward_v I I I I #
coedge $-1 $264 $265 $266 $267 forward $105 $-1 #
coedge $-1 $268 $107 $269 $270 forward $66 $-1 #
coedge $-1 $107 $268 $271 $272 forward $66 $-1 #
coedge $-1 $273 $274 $107 $171 reversed $275 $-1 #
edge $-1 $276 -41.174285915519555 $277 41.174285915519555 $170 $278 forward 7 unknown #
face $-1 $279 $280 $40 $-1 $281 reversed single #
loop $-1 $-1 $282 $108 #
plane-surface $-1 -45.052280857587647 -14.92060292256253 0 -1 0 0 0 0 1 forward_v I I I I #
coedge $-1 $283 $284 $285 $286 forward $109 $-1 #
coedge $-1 $287 $111 $288 $289 reversed $69 $-1 #
coedge $-1 $111 $287 $290 $291 reversed $69 $-1 #
coedge $-1 $292 $293 $111 $179 forward $294 $-1 #
edge $-1 $295 -18.264610145550702 $296 18.264610145550702 $178 $297 forward 7 unknown #
face $-1 $298 $299 $41 $-1 $300 reversed single #
loop $-1 $-1 $301 $112 #
plane-surface $-1 52.71289350414478 86.270647127508312 150.76641888455606 -1 0 0 0 0.7660444514056185 0.64278759981090561 forward_v I I I I #
coedge $-1 $302 $303 $304 $305 reversed $113 $-1 #
coedge $-1 $185 $115 $306 $307 reversed $72 $-1 #
coedge $-1 $115 $184 $302 $308 reversed $72 $-1 #
coedge $-1 $304 $309 $115 $187 forward $310 $-1 #
edge $-1 $311 1.9610376482346012 $312 12.732521657910887 $186 $313 forward 7 unknown #
loop $-1 $-1 $193 $116 #
plane-surface $-1 40.261100986607005 -11.758354919610042 68.510321575705561 0 0.7660444514056185 0.64278759981090561 1 0 0 forward_v I I I I #
loop $-1 $-1 $314 $74 #
coedge $-1 $191 $191 $192 $315 reversed $117 $-1 #
coedge $-1 $192 $192 $191 $315 forward $119 $-1 #
coedge $-1 $193 $193 $120 $194 forward $188 $-1 #
edge $-1 $316 -3.5031704213313593e-016 $316 6.2831853071796004 $193 $317 forward 7 unknown #
loop $-1 $-1 $200 $121 #
plane-surface $-1 40.261100986607005 -11.758354919610042 68.510321575705561 0 0.7660444514056185 0.64278759981090561 1 0 0 forward_v I I I I #
loop $-1 $-1 $318 $77 #
coedge $-1 $198 $198 $199 $319 reversed $122 $-1 #
coedge $-1 $199 $199 $198 $319 forward $124 $-1 #
coedge $-1 $200 $200 $125 $201 forward $195 $-1 #
edge $-1 $320 -3.5031704213313593e-016 $320 6.2831853071796004 $200 $321 forward 7 unknown #
face $-1 $322 $323 $44 $-1 $324 forward single #
loop $-1 $-1 $325 $126 #
plane-surface $-1 0 -41.174285915519555 0 0 1 0 0 0 1 forward_v I I I I #
coedge $-1 $326 $327 $328 $329 reversed $127 $-1 #
coedge $-1 $207 $129 $330 $331 reversed $81 $-1 #
coedge $-1 $129 $206 $326 $332 reversed $81 $-1 #
coedge $-1 $328 $333 $129 $209 forward $323 $-1 #
edge $-1 $334 15.192192621869047 $335 41.844455660148533 $208 $336 forward 7 unknown #
loop $-1 $-1 $215 $130 #
plane-surface $-1 -37.394758725715775 -41.174285915519562 0.28743139316398469 0 -0.55919291073839883 0.82903756765294845 1 0 0 forward_v I I I I #
loop $-1 $-1 $337 $83 #
coedge $-1 $213 $213 $214 $338 reversed $131 $-1 #
coedge $-1 $214 $214 $213 $338 forward $133 $-1 #
coedge $-1 $215 $215 $134 $216 forward $210 $-1 #
edge $-1 $339 -1.9173616075430972e-015 $339 6.2831853071795987 $215 $340 forward 7 unknown #
loop $-1 $-1 $222 $135 #
plane-surface $-1 -37.394758725715775 -41.174285915519562 0.28743139316398469 0 -0.55919291073839883 0.82903756765294845 1 0 0 forward_v I I I I #
loop $-1 $-1 $341 $86 #
coedge $-1 $220 $220 $221 $342 reversed $136 $-1 #
coedge $-1 $221 $221 $220 $342 forward $138 $-1 #
coedge $-1 $222 $222 $139 $223 forward $217 $-1 #
edge $-1 $343 -1.9173616075430972e-015 $343 6.2831853071795987 $222 $344 forward 7 unknown #
loop $-1 $-1 $229 $140 #
plane-surface $-1 -37.394758725715775 -41.174285915519562 0.28743139316398469 0 -0.55919291073839883 0.82903756765294845 1 0 0 forward_v I I I I #
loop $-1 $-1 $345 $89 #
coedge $-1 $227 $227 $228 $346 reversed $141 $-1 #
coedge $-1 $228 $228 $227 $346 forward $143 $-1 #
coedge $-1 $229 $229 $144 $230 forward $224 $-1 #
edge $-1 $347 -1.9173616075430972e-015 $347 6.2831853071795987 $229 $348 forward 7 unknown #
face $-1 $349 $350 $48 $-1 $351 reversed single #
loop $-1 $-1 $352 $145 #
plane-surface $-1 0 0 18.264610145550702 0 0 1 1 0 0 forward_v I I I I #
coedge $-1 $353 $354 $355 $356 reversed $146 $-1 #
coedge $-1 $236 $148 $357 $358 reversed $93 $-1 #
coedge $-1 $148 $235 $353 $359 reversed $93 $-1 #
coedge $-1 $355 $360 $148 $238 forward $350 $-1 #
edge $-1 $361 34.924150957643604 $362 52.901329710030318 $237 $363 forward 7 unknown #
loop $-1 $-1 $244 $149 #
plane-surface $-1 56.326364095124816 -41.174285915519562 0.28743139316398469 0 -0.55919291073839883 0.82903756765294845 1 0 0 forward_v I I I I #
loop $-1 $-1 $364 $95 #
coedge $-1 $242 $242 $243 $365 reversed $150 $-1 #
coedge $-1 $243 $243 $242 $365 forward $152 $-1 #
coedge $-1 $244 $244 $153 $245 forward $239 $-1 #
edge $-1 $366 -1.9173616075430972e-015 $366 6.2831853071795987 $244 $367 forward 7 unknown #
loop $-1 $-1 $251 $154 #
plane-surface $-1 56.326364095124816 -41.174285915519562 0.28743139316398469 0 -0.55919291073839883 0.82903756765294845 1 0 0 forward_v I I I I #
loop $-1 $-1 $368 $98 #
coedge $-1 $249 $249 $250 $369 reversed $155 $-1 #
coedge $-1 $250 $250 $249 $369 forward $157 $-1 #
coedge $-1 $251 $251 $158 $252 forward $246 $-1 #
edge $-1 $370 -1.9173616075430972e-015 $370 6.2831853071795987 $251 $371 forward 7 unknown #
loop $-1 $-1 $258 $159 #
plane-surface $-1 56.326364095124816 -41.174285915519562 0.28743139316398469 0 -0.55919291073839883 0.82903756765294845 1 0 0 forward_v I I I I #
loop $-1 $-1 $372 $101 #
coedge $-1 $256 $256 $257 $373 reversed $160 $-1 #
coedge $-1 $257 $257 $256 $373 forward $162 $-1 #
coedge $-1 $258 $258 $163 $259 forward $253 $-1 #
edge $-1 $374 -1.9173616075430972e-015 $374 6.2831853071795987 $258 $375 forward 7 unknown #
face $-1 $376 $377 $39 $-1 $378 reversed single #
loop $-1 $-1 $379 $164 #
plane-surface $-1 -63.983886226996674 0 0 1 0 0 0 0 -1 forward_v I I I I #
coedge $-1 $380 $271 $381 $382 forward $165 $-1 #
coedge $-1 $383 $167 $380 $384 forward $105 $-1 #
coedge $-1 $167 $383 $385 $386 forward $105 $-1 #
coedge $-1 $274 $273 $167 $267 reversed $275 $-1 #
edge $-1 $387 -41.174285915519555 $388 41.174285915519555 $266 $389 forward 7 unknown #
coedge $-1 $169 $168 $390 $391 forward $66 $-1 #
coedge $-1 $392 $393 $168 $270 reversed $377 $-1 #
edge $-1 $277 -63.983886226996674 $394 63.983886226996674 $269 $395 forward 7 unknown #
coedge $-1 $263 $396 $169 $272 reversed $165 $-1 #
edge $-1 $397 -63.983886226996674 $276 63.983886226996674 $271 $398 forward 7 unknown #
coedge $-1 $266 $170 $396 $399 forward $275 $-1 #
coedge $-1 $170 $266 $392 $400 reversed $275 $-1 #
loop $-1 $-1 $273 $376 #
vertex $-1 $171 $401 #
vertex $-1 $171 $402 #
straight-curve $-1 63.983886226996674 0 18.264610145550702 0 1 0 I I #
face $-1 $403 $404 $40 $-1 $405 forward single #
loop $-1 $-1 $406 $172 #
plane-surface $-1 0 0 -18.264610145550702 0 0 1 1 0 0 forward_v I I I I #
coedge $-1 $407 $408 $287 $409 forward $173 $-1 #
coedge $-1 $410 $175 $406 $411 reversed $109 $-1 #
coedge $-1 $175 $410 $412 $413 reversed $109 $-1 #
coedge $-1 $408 $407 $175 $286 reversed $173 $-1 #
edge $-1 $414 -18.264610145550702 $415 18.264610145550702 $285 $416 forward 7 unknown #
coedge $-1 $177 $176 $282 $409 reversed $69 $-1 #
coedge $-1 $417 $418 $176 $289 forward $280 $-1 #
edge $-1 $419 17.793239086441567 $295 36.724844455850594 $288 $420 forward 7 unknown #
coedge $-1 $421 $422 $177 $291 forward $404 $-1 #
edge $-1 $296 -36.724844455850594 $423 -17.793239086441567 $290 $424 forward 7 unknown #
coedge $-1 $425 $178 $422 $426 reversed $294 $-1 #
coedge $-1 $178 $425 $417 $427 reversed $294 $-1 #
loop $-1 $-1 $425 $403 #
vertex $-1 $427 $428 #
vertex $-1 $179 $429 #
straight-curve $-1 -63.983886226996674 -17.510825307442424 0 0 0 1 I I #
face $-1 $-1 $310 $41 $-1 $430 forward single #
loop $-1 $-1 $431 $180 #
plane-surface $-1 0 41.174285915519555 0 0 -1 0 0 0 -1 forward_v I I I I #
coedge $-1 $432 $433 $434 $435 reversed $181 $-1 #
coedge $-1 $436 $183 $185 $308 forward $113 $-1 #
coedge $-1 $183 $436 $432 $437 forward $113 $-1 #
coedge $-1 $434 $186 $183 $305 forward $310 $-1 #
edge $-1 $312 7.6787579757657269 $438 32.582343010841278 $304 $439 forward 7 unknown #
coedge $-1 $440 $441 $184 $307 forward $299 $-1 #
edge $-1 $442 -69.955554398917016 $311 -57.118599296727325 $306 $443 forward 7 unknown #
edge $-1 $312 65.59111724908233 $442 82.348571831039166 $185 $444 forward 7 unknown #
coedge $-1 $186 $434 $440 $445 forward $310 $-1 #
loop $-1 $-1 $434 $298 #
vertex $-1 $307 $446 #
vertex $-1 $187 $447 #
straight-curve $-1 27.809308469069229 43.135323563754156 18.264610145550705 0 -1 0 I I #
coedge $-1 $314 $314 $-1 $448 reversed $190 $-1 #
edge $-1 $449 0 $449 6.2831853071796004 $191 $450 forward 7 unknown #
vertex $-1 $194 $451 #
ellipse-curve $-1 34.924618479090825 35.788543910681398 11.846132594455881 0 0.7660444514056185 0.64278759981090561 2.5 0 0 1 I I #
coedge $-1 $318 $318 $-1 $452 reversed $197 $-1 #
edge $-1 $453 0 $453 6.2831853071796004 $198 $454 forward 7 unknown #
vertex $-1 $201 $455 #
ellipse-curve $-1 45.597583494123199 35.788543910681398 11.846132594455881 0 0.7660444514056185 0.64278759981090561 2.5 0 0 1 I I #
face $-1 $-1 $456 $44 $-1 $457 forward single #
loop $-1 $-1 $458 $202 #
plane-surface $-1 0 0 18.264610145550702 0 0 1 1 0 0 forward_v I I I I #
coedge $-1 $459 $460 $461 $462 forward $203 $-1 #
coedge $-1 $463 $205 $207 $332 forward $127 $-1 #
coedge $-1 $205 $463 $464 $465 reversed $127 $-1 #
coedge $-1 $458 $208 $205 $329 forward $323 $-1 #
edge $-1 $335 11.039857230986019 $466 26.354901494729759 $328 $467 forward 7 unknown #
coedge $-1 $460 $459 $206 $331 forward $203 $-1 #
edge $-1 $468 -52.901329710030318 $334 -34.924150957643604 $330 $469 forward 7 unknown #
edge $-1 $335 -32.148438235113439 $468 -8.5602302459286524e-015 $207 $470 forward 7 unknown #
coedge $-1 $208 $458 $460 $471 forward $323 $-1 #
vertex $-1 $209 $472 #
vertex $-1 $209 $473 #
straight-curve $-1 -29.737236593843907 -56.366478537388602 18.264610145550705 0 1 0 I I #
coedge $-1 $337 $337 $-1 $474 reversed $212 $-1 #
edge $-1 $475 0 $475 6.2831853071796004 $213 $476 forward 7 unknown #
vertex $-1 $216 $477 #
ellipse-curve $-1 -41.989272004838895 -27.848154396379815 9.2760207693573431 0 -0.55919291073839883 0.82903756765294845 1 0 0 1 I I #
coedge $-1 $341 $341 $-1 $478 reversed $219 $-1 #
edge $-1 $479 0 $479 6.2831853071796004 $220 $480 forward 7 unknown #
vertex $-1 $223 $481 #
ellipse-curve $-1 -37.394758725715775 -27.848154396379815 9.2760207693573431 0 -0.55919291073839883 0.82903756765294845 1 0 0 1 I I #
coedge $-1 $345 $345 $-1 $482 reversed $226 $-1 #
edge $-1 $483 0 $483 6.2831853071796004 $227 $484 forward 7 unknown #
vertex $-1 $230 $485 #
ellipse-curve $-1 -32.800245446592655 -27.848154396379815 9.2760207693573431 0 -0.55919291073839883 0.82903756765294845 1 0 0 1 I I #
face $-1 $-1 $486 $48 $-1 $487 reversed single #
loop $-1 $-1 $355 $231 #
plane-surface $-1 0 -41.174285915519555 0 0 1 0 0 0 1 forward_v I I I I #
coedge $-1 $357 $488 $489 $490 forward $232 $-1 #
coedge $-1 $489 $234 $236 $359 forward $146 $-1 #
coedge $-1 $234 $489 $491 $492 reversed $146 $-1 #
coedge $-1 $493 $237 $234 $356 forward $350 $-1 #
edge $-1 $362 20.505659915690536 $494 35.82070417943428 $355 $495 forward 7 unknown #
coedge $-1 $496 $352 $235 $358 forward $232 $-1 #
edge $-1 $497 -41.844455660148533 $361 -15.192192621869047 $357 $498 forward 7 unknown #
edge $-1 $362 8.5602302459286524e-015 $497 32.148438235113439 $236 $499 forward 7 unknown #
coedge $-1 $237 $493 $496 $500 reversed $350 $-1 #
vertex $-1 $500 $501 #
vertex $-1 $238 $502 #
straight-curve $-1 48.668841963252945 -41.174285915519555 53.188761103194309 0 0 -1 I I #
coedge $-1 $364 $364 $-1 $503 reversed $241 $-1 #
edge $-1 $504 0 $504 6.2831853071796004 $242 $505 forward 7 unknown #
vertex $-1 $245 $506 #
ellipse-curve $-1 51.731850816001696 -27.848154396379815 9.2760207693573431 0 -0.55919291073839883 0.82903756765294845 1 0 0 1 I I #
coedge $-1 $368 $368 $-1 $507 reversed $248 $-1 #
edge $-1 $508 0 $508 6.2831853071796004 $249 $509 forward 7 unknown #
vertex $-1 $252 $510 #
ellipse-curve $-1 56.326364095124816 -27.848154396379815 9.2760207693573431 0 -0.55919291073839883 0.82903756765294845 1 0 0 1 I I #
coedge $-1 $372 $372 $-1 $511 reversed $255 $-1 #
edge $-1 $512 0 $512 6.2831853071796004 $256 $513 forward 7 unknown #
vertex $-1 $259 $514 #
ellipse-curve $-1 60.920877374247937 -27.848154396379815 9.2760207693573431 0 -0.55919291073839883 0.82903756765294845 1 0 0 1 I I #
face $-1 $-1 $275 $39 $-1 $515 reversed single #
loop $-1 $-1 $392 $260 #
plane-surface $-1 0 41.174285915519555 0 0 -1 0 0 0 -1 forward_v I I I I #
coedge $-1 $516 $390 $393 $517 forward $261 $-1 #
coedge $-1 $396 $263 $264 $384 reversed $165 $-1 #
coedge $-1 $390 $516 $263 $382 reversed $261 $-1 #
edge $-1 $397 -18.264610145550702 $518 18.264610145550702 $381 $519 forward 7 unknown #
coedge $-1 $265 $264 $516 $520 forward $105 $-1 #
edge $-1 $388 -63.983886226996674 $518 63.983886226996674 $380 $521 forward 7 unknown #
coedge $-1 $393 $392 $265 $386 reversed $377 $-1 #
edge $-1 $522 -63.983886226996674 $387 63.983886226996674 $385 $523 forward 7 unknown #
vertex $-1 $267 $524 #
vertex $-1 $399 $525 #
straight-curve $-1 63.983886226996674 0 -18.264610145550702 0 -1 0 I I #
coedge $-1 $379 $381 $268 $391 reversed $261 $-1 #
edge $-1 $394 -41.174285915519555 $397 41.174285915519555 $390 $526 forward 7 unknown #
coedge $-1 $385 $269 $274 $400 forward $377 $-1 #
coedge $-1 $269 $385 $379 $517 reversed $377 $-1 #
vertex $-1 $270 $527 #
straight-curve $-1 0 41.174285915519555 18.264610145550702 -1 0 0 I I #
coedge $-1 $271 $380 $273 $399 reversed $165 $-1 #
vertex $-1 $391 $528 #
straight-curve $-1 0 -41.174285915519555 18.264610145550702 1 0 0 I I #
edge $-1 $276 -18.264610145550702 $388 18.264610145550702 $273 $529 forward 7 unknown #
edge $-1 $277 -18.264610145550702 $387 18.264610145550702 $274 $530 forward 7 unknown #
point $-1 63.983886226996674 -41.174285915519555 18.264610145550702 #
point $-1 63.983886226996674 41.174285915519555 18.264610145550702 #
face $-1 $-1 $294 $40 $-1 $531 reversed single #
loop $-1 $-1 $412 $279 #
plane-surface $-1 0 0 18.264610145550702 0 0 1 1 0 0 forward_v I I I I #
coedge $-1 $418 $417 $283 $411 forward $280 $-1 #
coedge $-1 $285 $282 $418 $532 reversed $173 $-1 #
coedge $-1 $282 $285 $421 $533 reversed $173 $-1 #
edge $-1 $423 -18.264610145550702 $419 18.264610145550702 $282 $534 forward 7 unknown #
coedge $-1 $284 $283 $425 $535 reversed $109 $-1 #
edge $-1 $536 -36.724844455850594 $415 -17.793239086441567 $406 $537 forward 7 unknown #
coedge $-1 $422 $421 $284 $413 forward $404 $-1 #
edge $-1 $414 17.793239086441567 $538 36.724844455850594 $412 $539 forward 7 unknown #
vertex $-1 $413 $540 #
vertex $-1 $411 $541 #
straight-curve $-1 -45.052280857587647 -12.330380537682634 0 0 0 -1 I I #
coedge $-1 $406 $288 $293 $427 forward $280 $-1 #
coedge $-1 $288 $406 $407 $532 forward $280 $-1 #
vertex $-1 $289 $542 #
straight-curve $-1 -27.25904177114608 -17.510825307442424 -18.264610145550702 -1 0 0 I I #
coedge $-1 $412 $290 $408 $533 forward $404 $-1 #
coedge $-1 $290 $412 $292 $426 forward $404 $-1 #
vertex $-1 $291 $543 #
straight-curve $-1 -27.25904177114608 -17.510825307442424 18.264610145550702 1 0 0 I I #
coedge $-1 $293 $292 $410 $535 forward $294 $-1 #
edge $-1 $538 12.330380537682634 $296 17.510825307442424 $292 $544 forward 7 unknown #
edge $-1 $295 -17.510825307442424 $536 -12.330380537682634 $293 $545 forward 7 unknown #
point $-1 -63.983886226996674 -17.510825307442424 -18.264610145550702 #
point $-1 -63.983886226996674 -17.510825307442424 18.264610145550702 #
plane-surface $-1 0 0 18.264610145550702 0 0 1 1 0 0 forward_v I I I I #
coedge $-1 $441 $440 $433 $546 forward $299 $-1 #
coedge $-1 $433 $301 $303 $437 reversed $181 $-1 #
coedge $-1 $301 $432 $431 $546 reversed $181 $-1 #
coedge $-1 $309 $304 $301 $435 forward $310 $-1 #
edge $-1 $438 -12.732521657910887 $547 -1.9610376482346012 $434 $548 forward 7 unknown #
coedge $-1 $303 $302 $441 $549 reversed $113 $-1 #
edge $-1 $550 -82.348571831039166 $438 -65.59111724908233 $432 $551 forward 7 unknown #
vertex $-1 $305 $552 #
straight-curve $-1 20.130550493303502 30.402801905843276 18.264610145550698 1 0 0 I I #
coedge $-1 $431 $306 $309 $445 reversed $299 $-1 #
coedge $-1 $306 $431 $436 $549 forward $299 $-1 #
vertex $-1 $307 $553 #
straight-curve $-1 27.809308469069229 41.174285915519555 75.38320944227803 0 0 1 I I #
straight-curve $-1 27.809308469069229 -11.758354919610042 68.510321575705561 0 0.64278759981090561 -0.7660444514056185 I I #
edge $-1 $547 -52.71289350414478 $311 -27.809308469069229 $440 $554 forward 7 unknown #
point $-1 27.809308469069229 41.174285915519555 18.264610145550702 #
point $-1 27.809308469069229 30.402801905843269 18.264610145550698 #
edge $-1 $555 1 $555 0 $314 $-1 forward 7 unknown #
vertex $-1 $315 $556 #
ellipse-curve $-1 34.924618479090825 29.933915874718988 6.9335164974178429 0 0.7660444514056185 0.64278759981090561 2.5 0 0 1 I I #
point $-1 37.424618479090825 35.788543910681405 11.846132594455888 #
edge $-1 $557 1 $557 0 $318 $-1 forward 7 unknown #
vertex $-1 $319 $558 #
ellipse-curve $-1 45.597583494123199 29.933915874718988 6.9335164974178429 0 0.7660444514056185 0.64278759981090561 2.5 0 0 1 I I #
point $-1 48.097583494123199 35.788543910681405 11.846132594455888 #
loop $-1 $-1 $464 $322 #
plane-surface $-1 -45.052280857587647 -14.92060292256253 0 -1 0 0 0 0 1 forward_v I I I I #
coedge $-1 $333 $328 $559 $560 forward $323 $-1 #
coedge $-1 $330 $325 $463 $561 forward $203 $-1 #
coedge $-1 $325 $330 $333 $471 reversed $203 $-1 #
coedge $-1 $559 $464 $325 $462 reversed $456 $-1 #
edge $-1 $562 34.924150957643604 $563 52.901329710030318 $325 $564 forward 7 unknown #
coedge $-1 $327 $326 $459 $561 reversed $127 $-1 #
coedge $-1 $461 $559 $327 $465 forward $456 $-1 #
edge $-1 $466 -21.346158288597579 $563 10.802279946515851 $464 $565 forward 7 unknown #
vertex $-1 $560 $566 #
straight-curve $-1 -18.697379362857887 -14.522022877240071 18.264610145550702 -1 0 0 I I #
vertex $-1 $331 $567 #
straight-curve $-1 -29.737236593843907 -41.174285915519555 53.188761103194309 0 0 1 I I #
straight-curve $-1 -29.737236593843907 -41.174285915519562 0.28743139316398469 0 -0.82903756765294845 -0.55919291073839883 I I #
edge $-1 $562 -45.052280857587647 $334 -29.737236593843907 $460 $568 forward 7 unknown #
point $-1 -29.737236593843907 -41.174285915519555 18.264610145550702 #
point $-1 -29.737236593843907 -14.522022877240069 18.264610145550702 #
edge $-1 $569 1 $569 0 $337 $-1 forward 7 unknown #
vertex $-1 $338 $570 #
ellipse-curve $-1 -41.989272004838895 -25.669235592178726 6.0456408577757843 0 -0.55919291073839883 0.82903756765294845 1 0 0 1 I I #
point $-1 -40.989272004838895 -27.848154396379822 9.2760207693573502 #
edge $-1 $571 1 $571 0 $341 $-1 forward 7 unknown #
vertex $-1 $342 $572 #
ellipse-curve $-1 -37.394758725715775 -25.669235592178726 6.0456408577757843 0 -0.55919291073839883 0.82903756765294845 1 0 0 1 I I #
point $-1 -36.394758725715775 -27.848154396379822 9.2760207693573502 #
edge $-1 $573 1 $573 0 $345 $-1 forward 7 unknown #
vertex $-1 $346 $574 #
ellipse-curve $-1 -32.800245446592655 -25.669235592178726 6.0456408577757843 0 -0.55919291073839883 0.82903756765294845 1 0 0 1 I I #
point $-1 -31.800245446592655 -27.848154396379822 9.2760207693573502 #
loop $-1 $-1 $491 $349 #
plane-surface $-1 63.983886226996674 0 0 -1 0 0 0 0 1 forward_v I I I I #
coedge $-1 $352 $496 $575 $576 forward $232 $-1 #
coedge $-1 $354 $353 $352 $490 reversed $146 $-1 #
edge $-1 $577 -35.82070417943428 $497 -20.505659915690536 $352 $578 forward 7 unknown #
coedge $-1 $575 $579 $354 $492 forward $486 $-1 #
edge $-1 $494 -16.987150123934207 $577 15.161288111179221 $491 $580 forward 7 unknown #
coedge $-1 $360 $355 $579 $581 reversed $350 $-1 #
vertex $-1 $356 $582 #
straight-curve $-1 28.163182047562408 -41.174285915519555 0.28743139316399008 1 0 0 I I #
coedge $-1 $488 $357 $360 $500 forward $232 $-1 #
vertex $-1 $358 $583 #
straight-curve $-1 48.668841963252945 -56.366478537388602 18.264610145550705 0 -1 0 I I #
straight-curve $-1 48.668841963252945 -41.174285915519562 0.28743139316398469 0 0.82903756765294845 0.55919291073839883 I I #
edge $-1 $361 48.668841963252945 $584 63.983886226996674 $360 $585 forward 7 unknown #
point $-1 48.668841963252945 -41.174285915519555 18.264610145550702 #
point $-1 48.668841963252945 -41.174285915519555 0.28743139316398947 #
edge $-1 $586 1 $586 0 $364 $-1 forward 7 unknown #
vertex $-1 $365 $587 #
ellipse-curve $-1 51.731850816001696 -25.669235592178726 6.0456408577757843 0 -0.55919291073839883 0.82903756765294845 1 0 0 1 I I #
point $-1 52.731850816001696 -27.848154396379822 9.2760207693573502 #
edge $-1 $588 1 $588 0 $368 $-1 forward 7 unknown #
vertex $-1 $369 $589 #
ellipse-curve $-1 56.326364095124816 -25.669235592178726 6.0456408577757843 0 -0.55919291073839883 0.82903756765294845 1 0 0 1 I I #
point $-1 57.326364095124816 -27.848154396379822 9.2760207693573502 #
edge $-1 $590 1 $590 0 $372 $-1 forward 7 unknown #
vertex $-1 $373 $591 #
ellipse-curve $-1 60.920877374247937 -25.669235592178726 6.0456408577757843 0 -0.55919291073839883 0.82903756765294845 1 0 0 1 I I #
point $-1 61.920877374247937 -27.848154396379822 9.2760207693573502 #
plane-surface $-1 63.983886226996674 0 0 -1 0 0 0 0 1 forward_v I I I I #
coedge $-1 $381 $379 $383 $520 reversed $261 $-1 #
edge $-1 $394 -18.264610145550702 $522 18.264610145550702 $393 $592 forward 7 unknown #
vertex $-1 $520 $593 #
straight-curve $-1 -63.983886226996674 -41.174285915519555 0 0 0 -1 I I #
edge $-1 $518 -41.174285915519555 $522 41.174285915519555 $516 $594 forward 7 unknown #
straight-curve $-1 0 -41.174285915519555 -18.264610145550702 -1 0 0 I I #
vertex $-1 $386 $595 #
straight-curve $-1 0 41.174285915519555 -18.264610145550702 1 0 0 I I #
point $-1 63.983886226996674 41.174285915519555 -18.264610145550702 #
point $-1 63.983886226996674 -41.174285915519555 -18.264610145550702 #
straight-curve $-1 -63.983886226996674 0 18.264610145550702 0 -1 0 I I #
point $-1 -63.983886226996674 41.174285915519555 18.264610145550702 #
point $-1 -63.983886226996674 -41.174285915519555 18.264610145550702 #
straight-curve $-1 63.983886226996674 -41.174285915519555 0 0 0 -1 I I #
straight-curve $-1 63.983886226996674 41.174285915519555 0 0 0 -1 I I #
plane-surface $-1 -63.983886226996674 0 0 1 0 0 0 0 -1 forward_v I I I I #
edge $-1 $415 4.8700790764013693 $419 10.050523846161159 $418 $596 forward 7 unknown #
edge $-1 $423 -10.050523846161159 $414 -4.8700790764013693 $421 $597 forward 7 unknown #
straight-curve $-1 -45.052280857587647 -17.510825307442424 0 0 0 -1 I I #
edge $-1 $538 -18.264610145550702 $536 18.264610145550702 $425 $598 forward 7 unknown #
vertex $-1 $535 $599 #
straight-curve $-1 -27.25904177114608 -12.330380537682634 -18.264610145550702 1 0 0 I I #
vertex $-1 $426 $600 #
straight-curve $-1 -27.25904177114608 -12.330380537682634 18.264610145550702 -1 0 0 I I #
point $-1 -45.052280857587647 -12.330380537682634 18.264610145550702 #
point $-1 -45.052280857587647 -12.330380537682634 -18.264610145550702 #
point $-1 -45.052280857587647 -17.510825307442424 -18.264610145550702 #
point $-1 -45.052280857587647 -17.510825307442424 18.264610145550702 #
straight-curve $-1 -63.983886226996674 0 18.264610145550702 0 -1 0 I I #
straight-curve $-1 -63.983886226996674 0 -18.264610145550702 0 1 0 I I #
edge $-1 $547 57.118599296727325 $550 69.955554398917016 $431 $601 forward 7 unknown #
vertex $-1 $445 $602 #
straight-curve $-1 52.71289350414478 43.135323563754156 18.264610145550705 0 1 0 I I #
edge $-1 $550 -32.582343010841278 $442 -7.6787579757657269 $441 $603 forward 7 unknown #
vertex $-1 $549 $604 #
straight-curve $-1 52.71289350414478 -11.758354919610042 68.510321575705561 0 -0.64278759981090561 0.7660444514056185 I I #
point $-1 52.71289350414478 30.402801905843269 18.264610145550698 #
point $-1 27.809308469069229 41.174285915519555 5.427655043361014 #
straight-curve $-1 0 41.174285915519555 18.264610145550702 -1 0 0 I I #
vertex $-1 $448 $605 #
point $-1 37.424618479090825 29.933915874718988 6.9335164974178429 #
vertex $-1 $452 $606 #
point $-1 48.097583494123199 29.933915874718988 6.9335164974178429 #
coedge $-1 $464 $461 $458 $560 reversed $456 $-1 #
edge $-1 $466 -41.844455660148533 $562 -15.192192621869047 $458 $607 forward 7 unknown #
edge $-1 $563 -26.354901494729759 $468 -11.039857230986019 $459 $608 forward 7 unknown #
vertex $-1 $471 $609 #
vertex $-1 $462 $610 #
straight-curve $-1 -45.052280857587647 -41.174285915519555 53.188761103194309 0 0 -1 I I #
straight-curve $-1 -45.052280857587647 -32.218790023553829 6.3279897590672221 0 -0.82903756765294845 -0.55919291073839883 I I #
point $-1 -45.052280857587647 -14.522022877240069 18.264610145550702 #
point $-1 -29.737236593843907 -41.174285915519555 0.28743139316398947 #
straight-curve $-1 0 -41.174285915519555 18.264610145550702 1 0 0 I I #
vertex $-1 $474 $611 #
point $-1 -40.989272004838895 -25.669235592178726 6.0456408577757843 #
vertex $-1 $478 $612 #
point $-1 -36.394758725715775 -25.669235592178726 6.0456408577757843 #
vertex $-1 $482 $613 #
point $-1 -31.800245446592655 -25.669235592178726 6.0456408577757843 #
coedge $-1 $579 $491 $488 $576 reversed $486 $-1 #
edge $-1 $584 -41.174285915519555 $577 -14.522022877240069 $575 $614 forward 7 unknown #
vertex $-1 $492 $615 #
straight-curve $-1 28.163182047562408 -14.522022877240071 18.264610145550702 -1 0 0 I I #
coedge $-1 $491 $575 $493 $581 forward $486 $-1 #
straight-curve $-1 63.983886226996674 -27.091300295417657 9.7865253161169115 0 0.82903756765294845 0.55919291073839883 I I #
edge $-1 $584 -18.264610145550702 $494 -0.28743139316398947 $579 $616 forward 7 unknown #
point $-1 63.983886226996688 -41.174285915519555 0.28743139316398947 #
point $-1 48.668841963252945 -14.522022877240069 18.264610145550702 #
vertex $-1 $576 $617 #
straight-curve $-1 0 -41.174285915519555 18.264610145550702 1 0 0 I I #
vertex $-1 $503 $618 #
point $-1 52.731850816001696 -25.669235592178726 6.0456408577757843 #
vertex $-1 $507 $619 #
point $-1 57.326364095124816 -25.669235592178726 6.0456408577757843 #
vertex $-1 $511 $620 #
point $-1 61.920877374247937 -25.669235592178726 6.0456408577757843 #
straight-curve $-1 -63.983886226996674 41.174285915519555 0 0 0 -1 I I #
point $-1 -63.983886226996674 -41.174285915519555 -18.264610145550702 #
straight-curve $-1 -63.983886226996674 0 -18.264610145550702 0 1 0 I I #
point $-1 -63.983886226996674 41.174285915519555 -18.264610145550702 #
straight-curve $-1 -45.052280857587647 -7.460301461281265 -18.264610145550702 0 -1 0 I I #
straight-curve $-1 -45.052280857587647 -7.460301461281265 18.264610145550702 0 1 0 I I #
straight-curve $-1 -63.983886226996674 -12.330380537682634 0 0 0 -1 I I #
point $-1 -63.983886226996674 -12.330380537682634 -18.264610145550702 #
point $-1 -63.983886226996674 -12.330380537682634 18.264610145550702 #
straight-curve $-1 52.71289350414478 41.174285915519555 75.38320944227803 0 0 -1 I I #
point $-1 52.71289350414478 41.174285915519555 18.264610145550702 #
straight-curve $-1 20.130550493303502 41.174285915519555 5.4276550433610211 -1 0 0 I I #
point $-1 52.71289350414478 41.174285915519555 5.427655043361014 #
point $-1 34.924618479090825 28.018804746204939 5.3265474978905782 #
point $-1 45.597583494123199 28.018804746204939 5.3265474978905782 #
straight-curve $-1 -45.052280857587647 -56.366478537388602 18.264610145550705 0 -1 0 I I #
straight-curve $-1 -18.697379362857887 -41.174285915519555 0.28743139316399008 1 0 0 I I #
point $-1 -45.052280857587647 -41.174285915519555 18.264610145550702 #
point $-1 -45.052280857587647 -41.174285915519555 0.28743139316398947 #
point $-1 -41.989272004838895 -25.11004268144033 5.2166032901228361 #
point $-1 -37.394758725715775 -25.11004268144033 5.2166032901228361 #
point $-1 -32.800245446592655 -25.11004268144033 5.2166032901228361 #
straight-curve $-1 63.983886226996674 0 18.264610145550702 0 1 0 I I #
point $-1 63.983886226996688 -14.522022877240069 18.264610145550702 #
straight-curve $-1 63.983886226996674 -41.174285915519555 0 0 0 -1 I I #
point $-1 63.983886226996674 -41.174285915519555 18.264610145550702 #
point $-1 51.731850816001696 -25.11004268144033 5.2166032901228361 #
point $-1 56.326364095124816 -25.11004268144033 5.2166032901228361 #
point $-1 60.920877374247937 -25.11004268144033 5.2166032901228361 #
End-of-ACIS-data 