500 0 7 0           
7 Unknown 11 ACIS 5.0 NT 24 Fri Mar 26 14:49:21 1999 
-1 9.9999999999999995e-007 1e-010 
body $-1 $7 $-1 $8 #
body $-1 $9 $-1 $10 #
body $-1 $11 $-1 $12 #
body $-1 $13 $-1 $14 #
body $-1 $15 $-1 $16 #
body $-1 $17 $-1 $18 #
body $-1 $19 $-1 $20 #
lump $-1 $-1 $21 $0 #
transform $-1 1 0 0 0 1 0 0 0 1 77.127597888119141 53.583284687774267 22.811038944522526 1 rotate no_reflect no_shear #
lump $-1 $-1 $22 $1 #
transform $-1 1 0 0 0 1 0 0 0 1 77.127597888119141 53.583284687774267 22.811038944522526 1 rotate no_reflect no_shear #
lump $-1 $-1 $23 $2 #
transform $-1 1 0 0 0 1 0 0 0 1 77.127597888119141 53.583284687774267 22.811038944522526 1 rotate no_reflect no_shear #
lump $-1 $-1 $24 $3 #
transform $-1 1 0 0 0 1 0 0 0 1 77.127597888119141 53.583284687774267 22.811038944522526 1 rotate no_reflect no_shear #
lump $-1 $-1 $25 $4 #
transform $-1 1 0 0 0 1 0 0 0 1 77.127597888119141 53.583284687774267 22.811038944522526 1 rotate no_reflect no_shear #
lump $-1 $-1 $26 $5 #
transform $-1 1 0 0 0 1 0 0 0 1 77.127597888119141 53.583284687774267 22.811038944522526 1 rotate no_reflect no_shear #
lump $-1 $-1 $27 $6 #
transform $-1 1 0 0 0 1 0 0 0 1 77.127597888119141 53.583284687774267 22.811038944522526 1 rotate no_reflect no_shear #
shell $-1 $-1 $-1 $28 $-1 $7 #
shell $-1 $-1 $-1 $29 $-1 $9 #
shell $-1 $-1 $-1 $30 $-1 $11 #
shell $-1 $-1 $-1 $31 $-1 $13 #
shell $-1 $-1 $-1 $32 $-1 $15 #
shell $-1 $-1 $-1 $33 $-1 $17 #
shell $-1 $-1 $-1 $34 $-1 $19 #
face $-1 $35 $36 $21 $-1 $37 forward single #
face $-1 $38 $39 $22 $-1 $40 forward single #
face $-1 $41 $42 $23 $-1 $43 forward single #
face $-1 $44 $45 $24 $-1 $46 reversed single #
face $-1 $47 $48 $25 $-1 $49 forward single #
face $-1 $50 $51 $26 $-1 $52 reversed single #
face $-1 $53 $54 $27 $-1 $55 forward single #
face $-1 $56 $57 $21 $-1 $58 reversed single #
loop $-1 $-1 $59 $28 #
plane-surface $-1 0 0 22.811038944522526 0 0 1 1 0 0 forward_v I I I I #
face $-1 $60 $61 $22 $-1 $62 reversed single #
loop $-1 $-1 $63 $29 #
plane-surface $-1 0 -53.583284687774267 0 0 1 0 0 0 1 forward_v I I I I #
face $-1 $64 $65 $23 $-1 $66 reversed single #
loop $-1 $-1 $67 $30 #
plane-surface $-1 0 53.583284687774267 0 0 -1 0 0 0 -1 forward_v I I I I #
face $-1 $68 $69 $24 $-1 $70 reversed single #
loop $-1 $-1 $71 $31 #
plane-surface $-1 126.20062631718829 6.9142533034362934 226.24382171712801 0 -1 0 -0.84804810408105047 0 -0.52991925155115449 forward_v I I I I #
face $-1 $72 $73 $25 $-1 $74 forward single #
loop $-1 $75 $76 $32 #
cone-surface $-1 71.288931777763992 1.2749951012186642 16.381360530867013 -0.84804810408105047 0 -0.52991925155115449 1.059838503102309 0 -1.6960962081621009 1 I I 0 1 2 forward I I I I #
face $-1 $77 $78 $26 $-1 $79 reversed single #
loop $-1 $-1 $80 $33 #
plane-surface $-1 -193.54547321814158 3.6300167881247631 116.2726701408701 0 1 0 -0.75470958851134928 0 0.65605901945558964 forward_v I I I I #
face $-1 $81 $82 $27 $-1 $83 forward single #
loop $-1 $84 $85 $34 #
cone-surface $-1 -72.544344714604009 10.718624658957381 17.881416374168918 0.75470958851134928 0 -0.65605901945558964 1.3121180389111793 0 1.5094191770226986 1 I I 0 1 2 forward I I I I #
face $-1 $86 $87 $21 $-1 $88 reversed single #
loop $-1 $-1 $89 $35 #
plane-surface $-1 0 0 -22.811038944522526 0 0 1 1 0 0 forward_v I I I I #
coedge $-1 $90 $91 $92 $93 forward $36 $-1 #
face $-1 $94 $95 $22 $-1 $96 reversed single #
loop $-1 $-1 $97 $38 #
plane-surface $-1 0 0 -22.811038944522526 0 0 1 1 0 0 forward_v I I I I #
coedge $-1 $98 $99 $100 $101 forward $39 $-1 #
face $-1 $102 $103 $23 $-1 $104 forward single #
loop $-1 $-1 $105 $41 #
plane-surface $-1 -77.127597888119141 0 0 1 0 0 0 0 -1 forward_v I I I I #
coedge $-1 $106 $107 $108 $109 forward $42 $-1 #
face $-1 $110 $111 $24 $-1 $112 reversed single #
loop $-1 $-1 $113 $44 #
plane-surface $-1 -4.6152000055018334 1.2749951012186642 144.50102382350701 0.84804810408105047 0 0.52991925155115449 0.52991925155115449 0 -0.84804810408105047 forward_v I I I I #
coedge $-1 $114 $115 $116 $117 reversed $45 $-1 #
face $-1 $-1 $118 $25 $-1 $119 forward single #
loop $-1 $120 $121 $47 #
cone-surface $-1 67.453446782726445 1.2749951012186642 13.984683587513185 -0.84804810408105047 0 -0.52991925155115449 0.52991925155115449 0 -0.84804810408105047 1 I I -0.70710678118654746 0.70710678118654746 1 forward I I I I #
loop $-1 $-1 $122 $32 #
coedge $-1 $76 $76 $123 $124 reversed $48 $-1 #
face $-1 $125 $126 $26 $-1 $127 reversed single #
loop $-1 $-1 $128 $50 #
plane-surface $-1 -77.127597888119169 10.718624658957381 15.072157653981208 -0.75470958851134928 0 0.65605901945558964 0.65605901945558964 0 0.75470958851134928 forward_v I I I I #
coedge $-1 $129 $130 $131 $132 reversed $51 $-1 #
face $-1 $-1 $133 $27 $-1 $134 forward single #
loop $-1 $135 $136 $53 #
cone-surface $-1 -70.570035302451046 10.718624658957381 16.165175429630377 0.75470958851134928 0 -0.65605901945558964 0.65605901945558964 0 0.75470958851134928 1 I I -0.70710678118654746 0.70710678118654746 1 forward I I I I #
loop $-1 $-1 $137 $34 #
coedge $-1 $85 $85 $138 $139 reversed $54 $-1 #
face $-1 $140 $141 $21 $-1 $142 reversed single #
loop $-1 $-1 $143 $56 #
plane-surface $-1 0 -53.583284687774267 0 0 1 0 0 0 1 forward_v I I I I #
coedge $-1 $144 $145 $146 $147 forward $57 $-1 #
coedge $-1 $148 $59 $149 $150 forward $36 $-1 #
coedge $-1 $59 $148 $151 $152 forward $36 $-1 #
coedge $-1 $153 $154 $59 $93 reversed $155 $-1 #
edge $-1 $156 -53.583284687774267 $157 53.583284687774267 $92 $158 forward 7 unknown #
face $-1 $159 $160 $22 $-1 $161 forward single #
loop $-1 $-1 $162 $60 #
plane-surface $-1 77.127597888119141 0 0 -1 0 0 0 0 1 forward_v I I I I #
coedge $-1 $163 $164 $165 $166 forward $61 $-1 #
coedge $-1 $165 $63 $162 $167 reversed $39 $-1 #
coedge $-1 $63 $165 $168 $169 reversed $39 $-1 #
coedge $-1 $170 $171 $63 $101 reversed $160 $-1 #
edge $-1 $172 -77.127597888119141 $173 77.127597888119141 $100 $174 forward 7 unknown #
face $-1 $175 $176 $23 $-1 $177 reversed single #
loop $-1 $-1 $178 $64 #
plane-surface $-1 0 67.745140933160783 -13.513836725701811 0 0 1 1 0 0 forward_v I I I I #
coedge $-1 $179 $180 $106 $181 forward $65 $-1 #
coedge $-1 $182 $67 $105 $181 reversed $42 $-1 #
coedge $-1 $67 $182 $183 $184 reversed $42 $-1 #
coedge $-1 $178 $185 $67 $109 reversed $103 $-1 #
edge $-1 $186 -77.127597888119141 $187 77.127597888119141 $108 $188 forward 7 unknown #
face $-1 $189 $190 $24 $-1 $191 forward single #
loop $-1 $-1 $192 $68 #
plane-surface $-1 126.20062631718829 -4.364263100998965 226.24382171712801 0 1 0 0.84804810408105047 0 0.52991925155115449 forward_v I I I I #
coedge $-1 $193 $194 $195 $196 reversed $69 $-1 #
coedge $-1 $115 $71 $197 $198 reversed $45 $-1 #
coedge $-1 $71 $114 $193 $199 reversed $45 $-1 #
coedge $-1 $195 $200 $71 $117 forward $190 $-1 #
edge $-1 $201 -14.027284729524993 $202 -8.3248262907277564 $116 $203 forward 7 unknown #
loop $-1 $-1 $123 $72 #
plane-surface $-1 -4.6152000055018334 1.2749951012186642 144.50102382350701 0.84804810408105047 0 0.52991925155115449 0.52991925155115449 0 -0.84804810408105047 forward_v I I I I #
loop $-1 $-1 $204 $47 #
coedge $-1 $121 $121 $122 $205 reversed $73 $-1 #
coedge $-1 $122 $122 $121 $205 forward $75 $-1 #
coedge $-1 $123 $123 $76 $124 forward $118 $-1 #
edge $-1 $206 0 $206 6.2831853071796004 $123 $207 forward 7 unknown #
face $-1 $208 $209 $26 $-1 $210 reversed single #
loop $-1 $-1 $211 $77 #
plane-surface $-1 -193.54547321814158 17.807232529789999 116.2726701408701 0 -1 0 0.75470958851134928 0 -0.65605901945558964 forward_v I I I I #
coedge $-1 $212 $213 $214 $215 reversed $78 $-1 #
coedge $-1 $130 $80 $216 $217 reversed $51 $-1 #
coedge $-1 $80 $129 $212 $218 reversed $51 $-1 #
coedge $-1 $214 $219 $80 $132 forward $220 $-1 #
edge $-1 $221 19.64513872095165 $222 26.372445420698682 $131 $223 forward 7 unknown #
loop $-1 $-1 $138 $81 #
plane-surface $-1 -77.127597888119169 10.718624658957381 15.072157653981208 -0.75470958851134928 0 0.65605901945558964 0.65605901945558964 0 0.75470958851134928 forward_v I I I I #
loop $-1 $-1 $224 $53 #
coedge $-1 $136 $136 $137 $225 reversed $82 $-1 #
coedge $-1 $137 $137 $136 $225 forward $84 $-1 #
coedge $-1 $138 $138 $85 $139 forward $133 $-1 #
edge $-1 $226 0 $226 6.2831853071796004 $138 $227 forward 7 unknown #
face $-1 $228 $229 $21 $-1 $230 reversed single #
loop $-1 $-1 $231 $86 #
plane-surface $-1 -77.127597888119141 0 0 1 0 0 0 0 -1 forward_v I I I I #
coedge $-1 $151 $232 $153 $233 reversed $87 $-1 #
coedge $-1 $234 $89 $232 $235 forward $57 $-1 #
coedge $-1 $89 $234 $236 $237 forward $57 $-1 #
coedge $-1 $154 $153 $89 $147 reversed $155 $-1 #
edge $-1 $238 -53.583284687774267 $239 53.583284687774267 $146 $240 forward 7 unknown #
coedge $-1 $91 $90 $241 $242 forward $36 $-1 #
coedge $-1 $243 $244 $90 $150 reversed $229 $-1 #
edge $-1 $157 -77.127597888119141 $245 77.127597888119141 $149 $246 forward 7 unknown #
coedge $-1 $247 $143 $91 $152 reversed $87 $-1 #
edge $-1 $248 -77.127597888119141 $156 77.127597888119141 $151 $249 forward 7 unknown #
coedge $-1 $146 $92 $143 $233 forward $155 $-1 #
coedge $-1 $92 $146 $243 $250 reversed $155 $-1 #
loop $-1 $-1 $153 $228 #
vertex $-1 $93 $251 #
vertex $-1 $93 $252 #
straight-curve $-1 77.127597888119141 0 22.811038944522526 0 1 0 I I #
face $-1 $253 $254 $22 $-1 $255 reversed single #
loop $-1 $-1 $171 $94 #
plane-surface $-1 0 -67.745140933160783 -13.513836725701811 0 0 1 1 0 0 forward_v I I I I #
coedge $-1 $256 $257 $98 $167 forward $95 $-1 #
coedge $-1 $258 $97 $257 $259 forward $61 $-1 #
coedge $-1 $97 $258 $260 $261 forward $61 $-1 #
coedge $-1 $99 $98 $97 $166 reversed $39 $-1 #
edge $-1 $262 -77.127597888119141 $263 77.127597888119141 $97 $264 forward 7 unknown #
edge $-1 $263 -22.811038944522526 $173 -13.513836725701811 $162 $265 forward 7 unknown #
coedge $-1 $260 $266 $99 $169 forward $267 $-1 #
edge $-1 $172 13.513836725701811 $262 22.811038944522526 $168 $268 forward 7 unknown #
coedge $-1 $269 $100 $266 $270 forward $160 $-1 #
coedge $-1 $100 $269 $256 $271 forward $160 $-1 #
vertex $-1 $169 $272 #
vertex $-1 $271 $273 #
straight-curve $-1 0 -53.583284687774267 -13.513836725701811 1 0 0 I I #
face $-1 $274 $275 $23 $-1 $276 reversed single #
loop $-1 $-1 $277 $102 #
plane-surface $-1 0 81.9069971785473 -18.162437835112168 0 -1 0 0 0 -1 forward_v I I I I #
coedge $-1 $278 $108 $279 $280 forward $103 $-1 #
coedge $-1 $281 $105 $185 $282 reversed $65 $-1 #
coedge $-1 $105 $281 $283 $284 reversed $65 $-1 #
edge $-1 $285 -22.811038944522526 $187 -13.513836725701811 $105 $286 forward 7 unknown #
coedge $-1 $107 $106 $287 $288 reversed $42 $-1 #
coedge $-1 $289 $279 $107 $184 forward $290 $-1 #
edge $-1 $186 13.513836725701811 $291 22.811038944522526 $183 $292 forward 7 unknown #
coedge $-1 $108 $278 $179 $282 forward $103 $-1 #
vertex $-1 $184 $293 #
vertex $-1 $282 $294 #
straight-curve $-1 0 53.583284687774267 -13.513836725701811 -1 0 0 I I #
face $-1 $-1 $295 $24 $-1 $296 reversed single #
loop $-1 $-1 $116 $110 #
plane-surface $-1 0 0 22.811038944522526 0 0 1 1 0 0 forward_v I I I I #
coedge $-1 $297 $298 $299 $300 reversed $111 $-1 #
coedge $-1 $301 $113 $115 $199 forward $69 $-1 #
coedge $-1 $113 $301 $297 $302 forward $69 $-1 #
coedge $-1 $299 $116 $113 $196 forward $190 $-1 #
edge $-1 $202 -6.2767557528269613 $303 5.0017606516082971 $195 $304 forward 7 unknown #
coedge $-1 $305 $306 $114 $198 forward $295 $-1 #
edge $-1 $307 -99.436713357747095 $201 -90.310871914041485 $197 $308 forward 7 unknown #
edge $-1 $202 143.49420073387043 $307 154.25519577623822 $115 $309 forward 7 unknown #
coedge $-1 $116 $299 $305 $310 forward $190 $-1 #
vertex $-1 $198 $311 #
vertex $-1 $117 $312 #
straight-curve $-1 63.100313158594147 6.9142533034362934 22.811038944522522 -1 0 0 I I #
coedge $-1 $204 $204 $-1 $313 reversed $120 $-1 #
edge $-1 $314 0 $314 6.2831853071796004 $121 $315 forward 7 unknown #
vertex $-1 $124 $316 #
ellipse-curve $-1 74.276368668720522 1.2749951012186642 18.24811822266971 0.84804810408105047 0 0.52991925155115449 1.059838503102309 0 -1.6960962081621009 1 I I #
face $-1 $-1 $220 $26 $-1 $317 forward single #
loop $-1 $-1 $318 $125 #
plane-surface $-1 -77.127597888119141 0 0 1 0 0 0 0 -1 forward_v I I I I #
coedge $-1 $319 $320 $321 $322 reversed $126 $-1 #
coedge $-1 $323 $128 $130 $218 forward $78 $-1 #
coedge $-1 $128 $323 $319 $324 forward $78 $-1 #
coedge $-1 $321 $131 $128 $215 forward $220 $-1 #
edge $-1 $222 -1.7292955413539275 $325 12.447920200311309 $214 $326 forward 7 unknown #
coedge $-1 $327 $328 $129 $217 forward $209 $-1 #
edge $-1 $329 -43.064177416453816 $221 -35.32529612591253 $216 $330 forward 7 unknown #
edge $-1 $222 -10.254118151335698 $329 -4.2777722527798062e-014 $130 $331 forward 7 unknown #
coedge $-1 $131 $321 $327 $332 forward $220 $-1 #
loop $-1 $-1 $321 $208 #
vertex $-1 $217 $333 #
vertex $-1 $132 $334 #
straight-curve $-1 -96.77273660907079 3.6300167881247631 22.811038944522522 1 0 0 I I #
coedge $-1 $224 $224 $-1 $335 reversed $135 $-1 #
edge $-1 $336 0 $336 6.2831853071796004 $136 $337 forward 7 unknown #
vertex $-1 $139 $338 #
ellipse-curve $-1 -73.763944538245624 10.718624658957381 18.941598299251879 -0.75470958851134928 0 0.65605901945558964 1.3121180389111793 0 1.5094191770226986 1 I I #
face $-1 $-1 $155 $21 $-1 $339 reversed single #
loop $-1 $-1 $244 $140 #
plane-surface $-1 0 53.583284687774267 0 0 -1 0 0 0 -1 forward_v I I I I #
coedge $-1 $340 $241 $244 $341 forward $141 $-1 #
coedge $-1 $143 $247 $144 $235 reversed $87 $-1 #
edge $-1 $156 -22.811038944522526 $239 22.811038944522526 $153 $342 forward 7 unknown #
coedge $-1 $145 $144 $340 $343 forward $57 $-1 #
edge $-1 $239 -77.127597888119141 $344 77.127597888119141 $232 $345 forward 7 unknown #
coedge $-1 $244 $243 $145 $237 reversed $229 $-1 #
edge $-1 $346 -77.127597888119141 $238 77.127597888119141 $236 $347 forward 7 unknown #
vertex $-1 $147 $348 #
vertex $-1 $233 $349 #
straight-curve $-1 77.127597888119141 0 -22.811038944522526 0 -1 0 I I #
coedge $-1 $231 $350 $148 $242 reversed $141 $-1 #
edge $-1 $245 -53.583284687774267 $248 53.583284687774267 $241 $351 forward 7 unknown #
coedge $-1 $236 $149 $154 $250 forward $229 $-1 #
coedge $-1 $149 $236 $231 $341 reversed $229 $-1 #
vertex $-1 $150 $352 #
straight-curve $-1 0 53.583284687774267 22.811038944522526 -1 0 0 I I #
coedge $-1 $232 $151 $350 $353 forward $87 $-1 #
vertex $-1 $242 $354 #
straight-curve $-1 0 -53.583284687774267 22.811038944522526 1 0 0 I I #
edge $-1 $157 -22.811038944522526 $238 22.811038944522526 $154 $355 forward 7 unknown #
point $-1 77.127597888119141 -53.583284687774267 22.811038944522526 #
point $-1 77.127597888119141 53.583284687774267 22.811038944522526 #
face $-1 $-1 $267 $22 $-1 $356 reversed single #
loop $-1 $-1 $357 $159 #
plane-surface $-1 0 -81.9069971785473 -18.162437835112168 0 1 0 0 0 1 forward_v I I I I #
coedge $-1 $358 $162 $171 $271 reversed $95 $-1 #
coedge $-1 $162 $358 $163 $259 reversed $95 $-1 #
coedge $-1 $164 $163 $359 $360 forward $61 $-1 #
edge $-1 $263 53.583284687774267 $361 81.9069971785473 $257 $362 forward 7 unknown #
coedge $-1 $363 $168 $164 $261 reversed $267 $-1 #
edge $-1 $364 -81.9069971785473 $262 -53.583284687774267 $260 $365 forward 7 unknown #
vertex $-1 $169 $366 #
vertex $-1 $259 $367 #
straight-curve $-1 0 -53.583284687774267 -22.811038944522526 1 0 0 I I #
straight-curve $-1 77.127597888119141 -53.583284687774267 0 0 0 1 I I #
coedge $-1 $168 $363 $170 $270 reversed $267 $-1 #
loop $-1 $-1 $168 $253 #
straight-curve $-1 -77.127597888119141 -53.583284687774267 0 0 0 -1 I I #
coedge $-1 $171 $170 $368 $369 forward $160 $-1 #
edge $-1 $172 -14.161856245386517 $370 14.161856245386517 $266 $371 forward 7 unknown #
edge $-1 $372 -14.161856245386517 $173 14.161856245386517 $256 $373 forward 7 unknown #
point $-1 -77.127597888119141 -53.583284687774267 -13.513836725701811 #
point $-1 77.127597888119141 -53.583284687774267 -13.513836725701811 #
face $-1 $-1 $290 $23 $-1 $374 reversed single #
loop $-1 $-1 $287 $175 #
plane-surface $-1 0 0 -22.811038944522526 0 0 1 1 0 0 forward_v I I I I #
coedge $-1 $375 $376 $377 $378 forward $176 $-1 #
coedge $-1 $185 $178 $376 $379 forward $103 $-1 #
coedge $-1 $183 $377 $178 $280 reversed $290 $-1 #
edge $-1 $186 -14.161856245386517 $380 14.161856245386517 $279 $381 forward 7 unknown #
coedge $-1 $180 $179 $382 $383 forward $65 $-1 #
edge $-1 $384 -14.161856245386517 $187 14.161856245386517 $179 $385 forward 7 unknown #
coedge $-1 $386 $287 $180 $284 forward $275 $-1 #
edge $-1 $285 -14.161856245386517 $387 14.161856245386517 $180 $388 forward 7 unknown #
vertex $-1 $284 $389 #
straight-curve $-1 -77.127597888119141 53.583284687774267 0 0 0 1 I I #
coedge $-1 $283 $390 $182 $288 forward $275 $-1 #
edge $-1 $291 -77.127597888119141 $285 77.127597888119141 $287 $391 forward 7 unknown #
coedge $-1 $377 $183 $390 $392 reversed $290 $-1 #
loop $-1 $-1 $183 $274 #
vertex $-1 $184 $393 #
straight-curve $-1 77.127597888119141 53.583284687774267 0 0 0 -1 I I #
point $-1 77.127597888119141 53.583284687774267 -13.513836725701811 #
point $-1 -77.127597888119141 53.583284687774267 -13.513836725701811 #
loop $-1 $-1 $197 $189 #
plane-surface $-1 77.127597888119141 0 0 -1 0 0 0 0 1 forward_v I I I I #
coedge $-1 $298 $192 $194 $302 reversed $111 $-1 #
coedge $-1 $192 $297 $394 $395 reversed $111 $-1 #
coedge $-1 $200 $195 $192 $300 forward $190 $-1 #
edge $-1 $303 8.3248262907277564 $396 14.027284729524993 $299 $397 forward 7 unknown #
coedge $-1 $194 $193 $306 $398 reversed $69 $-1 #
edge $-1 $399 -154.25519577623822 $303 -143.49420073387043 $297 $400 forward 7 unknown #
vertex $-1 $196 $401 #
straight-curve $-1 71.425139449321904 0.63749755060933211 22.811038944522537 0 -1 0 I I #
coedge $-1 $394 $197 $200 $310 reversed $295 $-1 #
coedge $-1 $197 $394 $301 $398 forward $295 $-1 #
vertex $-1 $198 $402 #
straight-curve $-1 77.127597888119141 6.9142533034362934 113.12191085856401 0 0 1 I I #
straight-curve $-1 -4.6152000055018334 6.9142533034362934 144.50102382350701 0.52991925155115449 0 -0.84804810408105047 I I #
edge $-1 $396 -4.364263100998965 $201 6.9142533034362934 $305 $403 forward 7 unknown #
point $-1 77.127597888119141 6.9142533034362934 22.811038944522526 #
point $-1 71.425139449321904 6.9142533034362934 22.811038944522508 #
edge $-1 $404 1 $404 0 $204 $-1 forward 7 unknown #
vertex $-1 $205 $405 #
ellipse-curve $-1 68.30149488680749 1.2749951012186642 14.51460283906434 0.84804810408105047 0 0.52991925155115449 1.059838503102309 0 -1.6960962081621009 1 I I #
point $-1 75.336207171822792 1.2749951012186642 16.552022014507585 #
plane-surface $-1 0 0 22.811038944522526 0 0 1 1 0 0 forward_v I I I I #
coedge $-1 $328 $327 $320 $406 forward $209 $-1 #
coedge $-1 $320 $211 $213 $324 reversed $126 $-1 #
coedge $-1 $211 $319 $318 $406 reversed $126 $-1 #
coedge $-1 $219 $214 $211 $322 forward $220 $-1 #
edge $-1 $325 -26.372445420698682 $407 -19.64513872095165 $321 $408 forward 7 unknown #
coedge $-1 $213 $212 $328 $409 reversed $78 $-1 #
edge $-1 $410 4.2777722527798062e-014 $325 10.254118151335698 $319 $411 forward 7 unknown #
vertex $-1 $215 $412 #
straight-curve $-1 -70.400291188372108 5.3593123294786906 22.811038944522526 0 1 0 I I #
coedge $-1 $318 $216 $219 $332 reversed $209 $-1 #
coedge $-1 $216 $318 $323 $409 forward $209 $-1 #
vertex $-1 $217 $413 #
straight-curve $-1 -77.127597888119141 3.6300167881247631 58.136335070435052 0 0 1 I I #
straight-curve $-1 -77.127597888119169 3.6300167881247631 15.072157653981208 -0.65605901945558964 0 -0.75470958851134928 I I #
edge $-1 $407 -17.807232529789999 $221 -3.6300167881247631 $327 $414 forward 7 unknown #
point $-1 -77.127597888119141 3.6300167881247631 22.811038944522526 #
point $-1 -70.400291188372108 3.6300167881247631 22.811038944522526 #
edge $-1 $415 1 $415 0 $224 $-1 forward 7 unknown #
vertex $-1 $225 $416 #
ellipse-curve $-1 -71.324744890962393 10.718624658957381 16.821234449085967 -0.75470958851134928 0 0.65605901945558964 1.3121180389111793 0 1.5094191770226986 1 I I #
point $-1 -72.45182649933443 10.718624658957381 20.451017476274561 #
plane-surface $-1 77.127597888119141 0 0 -1 0 0 0 0 1 forward_v I I I I #
coedge $-1 $350 $231 $234 $343 reversed $141 $-1 #
edge $-1 $245 -22.811038944522526 $346 22.811038944522526 $244 $417 forward 7 unknown #
straight-curve $-1 77.127597888119141 -53.583284687774267 0 0 0 -1 I I #
edge $-1 $344 -53.583284687774267 $346 53.583284687774267 $340 $418 forward 7 unknown #
vertex $-1 $343 $419 #
straight-curve $-1 0 -53.583284687774267 -22.811038944522526 -1 0 0 I I #
vertex $-1 $237 $420 #
straight-curve $-1 0 53.583284687774267 -22.811038944522526 1 0 0 I I #
point $-1 77.127597888119141 53.583284687774267 -22.811038944522526 #
point $-1 77.127597888119141 -53.583284687774267 -22.811038944522526 #
coedge $-1 $241 $340 $247 $353 reversed $141 $-1 #
straight-curve $-1 -77.127597888119141 0 22.811038944522526 0 -1 0 I I #
point $-1 -77.127597888119141 53.583284687774267 22.811038944522526 #
edge $-1 $248 -22.811038944522526 $344 22.811038944522526 $350 $421 forward 7 unknown #
point $-1 -77.127597888119141 -53.583284687774267 22.811038944522526 #
straight-curve $-1 77.127597888119141 53.583284687774267 0 0 0 -1 I I #
plane-surface $-1 -77.127597888119141 0 0 1 0 0 0 0 -1 forward_v I I I I #
coedge $-1 $359 $368 $363 $422 forward $254 $-1 #
coedge $-1 $257 $256 $423 $424 forward $95 $-1 #
coedge $-1 $423 $357 $258 $360 reversed $254 $-1 #
edge $-1 $361 -77.127597888119141 $364 77.127597888119141 $359 $425 forward 7 unknown #
vertex $-1 $424 $426 #
straight-curve $-1 77.127597888119141 0 -22.811038944522526 0 -1 0 I I #
coedge $-1 $266 $260 $357 $422 reversed $267 $-1 #
vertex $-1 $261 $427 #
straight-curve $-1 -77.127597888119141 0 -22.811038944522526 0 1 0 I I #
point $-1 -77.127597888119141 -53.583284687774267 -22.811038944522526 #
point $-1 77.127597888119141 -53.583284687774267 -22.811038944522526 #
coedge $-1 $357 $423 $269 $369 reversed $254 $-1 #
edge $-1 $370 -77.127597888119141 $372 77.127597888119141 $368 $428 forward 7 unknown #
vertex $-1 $270 $429 #
straight-curve $-1 -77.127597888119141 -67.745140933160783 -13.513836725701811 0 -1 0 I I #
vertex $-1 $271 $430 #
straight-curve $-1 77.127597888119141 -67.745140933160783 -13.513836725701811 0 1 0 I I #
plane-surface $-1 77.127597888119141 0 0 -1 0 0 0 0 1 forward_v I I I I #
coedge $-1 $382 $277 $386 $431 reversed $176 $-1 #
coedge $-1 $277 $382 $278 $379 reversed $176 $-1 #
coedge $-1 $279 $289 $277 $378 reversed $290 $-1 #
edge $-1 $380 -4.6486011094103574 $432 4.6486011094103574 $377 $433 forward 7 unknown #
edge $-1 $380 -77.127597888119141 $384 77.127597888119141 $376 $434 forward 7 unknown #
vertex $-1 $280 $435 #
straight-curve $-1 77.127597888119141 67.745140933160783 -13.513836725701811 0 1 0 I I #
coedge $-1 $376 $375 $281 $383 reversed $176 $-1 #
edge $-1 $384 -4.6486011094103574 $387 4.6486011094103574 $382 $436 forward 7 unknown #
vertex $-1 $379 $437 #
straight-curve $-1 -77.127597888119141 67.745140933160783 -13.513836725701811 0 -1 0 I I #
coedge $-1 $390 $283 $375 $431 forward $275 $-1 #
vertex $-1 $431 $438 #
straight-curve $-1 -77.127597888119141 67.745140933160783 -22.811038944522526 0 1 0 I I #
point $-1 -77.127597888119141 53.583284687774267 -22.811038944522526 #
coedge $-1 $287 $386 $289 $392 forward $275 $-1 #
straight-curve $-1 0 53.583284687774267 -22.811038944522526 -1 0 0 I I #
edge $-1 $432 -81.9069971785473 $291 -53.583284687774267 $289 $439 forward 7 unknown #
point $-1 77.127597888119141 53.583284687774267 -22.811038944522526 #
coedge $-1 $306 $305 $298 $395 forward $295 $-1 #
edge $-1 $396 90.310871914041485 $399 99.436713357747095 $394 $440 forward 7 unknown #
vertex $-1 $310 $441 #
straight-curve $-1 63.100313158594147 -4.364263100998965 22.811038944522522 1 0 0 I I #
edge $-1 $399 -5.0017606516082971 $307 6.2767557528269613 $306 $442 forward 7 unknown #
vertex $-1 $398 $443 #
straight-curve $-1 -4.6152000055018334 -4.364263100998965 144.50102382350701 -0.52991925155115449 0 0.84804810408105047 I I #
point $-1 71.425139449321904 -4.364263100998965 22.811038944522508 #
point $-1 77.127597888119141 6.9142533034362934 13.685197500816912 #
straight-curve $-1 77.127597888119141 0 22.811038944522526 0 1 0 I I #
vertex $-1 $313 $444 #
point $-1 69.361333389909802 1.2749951012186642 12.818506630902238 #
edge $-1 $407 35.32529612591253 $410 43.064177416453816 $318 $445 forward 7 unknown #
vertex $-1 $332 $446 #
straight-curve $-1 -96.77273660907079 17.807232529789999 22.811038944522522 -1 0 0 I I #
edge $-1 $410 -12.447920200311309 $329 1.7292955413539275 $328 $447 forward 7 unknown #
vertex $-1 $409 $448 #
straight-curve $-1 -77.127597888119169 17.807232529789999 15.072157653981208 0.65605901945558964 0 0.75470958851134928 I I #
point $-1 -70.400291188372108 17.807232529789999 22.811038944522526 #
point $-1 -77.127597888119141 3.6300167881247631 15.07215765398124 #
straight-curve $-1 -77.127597888119141 0 22.811038944522526 0 -1 0 I I #
vertex $-1 $335 $449 #
point $-1 -70.012626852051213 10.718624658957381 18.330653626108663 #
straight-curve $-1 -77.127597888119141 53.583284687774267 0 0 0 -1 I I #
straight-curve $-1 -77.127597888119141 0 -22.811038944522526 0 1 0 I I #
point $-1 -77.127597888119141 -53.583284687774267 -22.811038944522526 #
point $-1 -77.127597888119141 53.583284687774267 -22.811038944522526 #
straight-curve $-1 -77.127597888119141 -53.583284687774267 0 0 0 -1 I I #
edge $-1 $370 -4.6486011094103574 $364 4.6486011094103574 $363 $450 forward 7 unknown #
coedge $-1 $368 $359 $358 $424 reversed $254 $-1 #
edge $-1 $372 -4.6486011094103574 $361 4.6486011094103574 $358 $451 forward 7 unknown #
straight-curve $-1 0 -81.9069971785473 -22.811038944522526 -1 0 0 I I #
point $-1 77.127597888119141 -81.9069971785473 -22.811038944522526 #
point $-1 -77.127597888119141 -81.9069971785473 -22.811038944522526 #
straight-curve $-1 0 -81.9069971785473 -13.513836725701811 1 0 0 I I #
point $-1 -77.127597888119141 -81.9069971785473 -13.513836725701811 #
point $-1 77.127597888119141 -81.9069971785473 -13.513836725701811 #
edge $-1 $387 -77.127597888119141 $432 77.127597888119141 $375 $452 forward 7 unknown #
vertex $-1 $392 $453 #
straight-curve $-1 77.127597888119141 81.9069971785473 -18.162437835112168 0 0 -1 I I #
straight-curve $-1 0 81.9069971785473 -13.513836725701811 -1 0 0 I I #
point $-1 77.127597888119141 81.9069971785473 -13.513836725701811 #
straight-curve $-1 -77.127597888119141 81.9069971785473 -18.162437835112168 0 0 -1 I I #
point $-1 -77.127597888119141 81.9069971785473 -13.513836725701811 #
point $-1 -77.127597888119141 81.9069971785473 -22.811038944522526 #
straight-curve $-1 77.127597888119141 0 -22.811038944522526 0 -1 0 I I #
straight-curve $-1 77.127597888119141 -4.364263100998965 113.12191085856401 0 0 -1 I I #
point $-1 77.127597888119141 -4.364263100998965 22.811038944522526 #
straight-curve $-1 77.127597888119141 0.63749755060933211 13.685197500816912 0 1 0 I I #
point $-1 77.127597888119141 -4.364263100998965 13.685197500816912 #
point $-1 66.6053986786454 1.2749951012186642 13.454764335962031 #
straight-curve $-1 -77.127597888119141 17.807232529789999 58.136335070435052 0 0 -1 I I #
point $-1 -77.127597888119141 17.807232529789999 22.811038944522526 #
straight-curve $-1 -77.127597888119141 5.3593123294786906 15.072157653981243 0 -1 0 I I #
point $-1 -77.127597888119141 17.807232529789999 15.07215765398124 #
point $-1 -69.8153257139397 10.718624658957381 15.509116410174787 #
straight-curve $-1 -77.127597888119141 -81.9069971785473 -18.162437835112168 0 0 -1 I I #
straight-curve $-1 77.127597888119141 -81.9069971785473 -18.162437835112168 0 0 -1 I I #
straight-curve $-1 0 81.9069971785473 -22.811038944522526 1 0 0 I I #
point $-1 77.127597888119141 81.9069971785473 -22.811038944522526 #
End-of-ACIS-data 