500 0 13 0           
7 Unknown 11 ACIS 5.0 NT 24 Fri Mar 26 00:23:12 1999 
-1 9.9999999999999995e-007 1e-010 
body $-1 $13 $-1 $14 #
body $-1 $15 $-1 $16 #
body $-1 $17 $-1 $18 #
body $-1 $19 $-1 $20 #
body $-1 $21 $-1 $22 #
body $-1 $23 $-1 $24 #
body $-1 $25 $-1 $26 #
body $-1 $27 $-1 $28 #
body $-1 $29 $-1 $30 #
body $-1 $31 $-1 $32 #
body $-1 $33 $-1 $34 #
body $-1 $35 $-1 $36 #
body $-1 $37 $-1 $38 #
lump $-1 $-1 $39 $0 #
transform $-1 1 0 0 0 1 0 0 0 1 79.697256385998116 39.927189592616593 13.22896592703639 1 rotate no_reflect no_shear #
lump $-1 $-1 $40 $1 #
transform $-1 1 0 0 0 1 0 0 0 1 79.697256385998116 39.927189592616593 13.22896592703639 1 rotate no_reflect no_shear #
lump $-1 $-1 $41 $2 #
transform $-1 1 0 0 0 1 0 0 0 1 79.697256385998116 39.927189592616593 13.22896592703639 1 rotate no_reflect no_shear #
lump $-1 $-1 $42 $3 #
transform $-1 1 0 0 0 1 0 0 0 1 79.697256385998116 39.927189592616593 13.22896592703639 1 rotate no_reflect no_shear #
lump $-1 $-1 $43 $4 #
transform $-1 1 0 0 0 1 0 0 0 1 79.697256385998116 39.927189592616593 13.22896592703639 1 rotate no_reflect no_shear #
lump $-1 $-1 $44 $5 #
transform $-1 1 0 0 0 1 0 0 0 1 79.697256385998116 39.927189592616593 13.22896592703639 1 rotate no_reflect no_shear #
lump $-1 $-1 $45 $6 #
transform $-1 1 0 0 0 1 0 0 0 1 79.697256385998116 39.927189592616593 13.22896592703639 1 rotate no_reflect no_shear #
lump $-1 $-1 $46 $7 #
transform $-1 1 0 0 0 1 0 0 0 1 79.697256385998116 39.927189592616593 13.22896592703639 1 rotate no_reflect no_shear #
lump $-1 $-1 $47 $8 #
transform $-1 1 0 0 0 1 0 0 0 1 79.697256385998116 39.927189592616593 13.22896592703639 1 rotate no_reflect no_shear #
lump $-1 $-1 $48 $9 #
transform $-1 1 0 0 0 1 0 0 0 1 79.697256385998116 39.927189592616593 13.22896592703639 1 rotate no_reflect no_shear #
lump $-1 $-1 $49 $10 #
transform $-1 1 0 0 0 1 0 0 0 1 79.697256385998116 39.927189592616593 13.22896592703639 1 rotate no_reflect no_shear #
lump $-1 $-1 $50 $11 #
transform $-1 1 0 0 0 1 0 0 0 1 79.697256385998116 39.927189592616593 13.22896592703639 1 rotate no_reflect no_shear #
lump $-1 $-1 $51 $12 #
transform $-1 1 0 0 0 1 0 0 0 1 79.697256385998116 39.927189592616593 13.22896592703639 1 rotate no_reflect no_shear #
shell $-1 $-1 $-1 $52 $-1 $13 #
shell $-1 $-1 $-1 $53 $-1 $15 #
shell $-1 $-1 $-1 $54 $-1 $17 #
shell $-1 $-1 $-1 $55 $-1 $19 #
shell $-1 $-1 $-1 $56 $-1 $21 #
shell $-1 $-1 $-1 $57 $-1 $23 #
shell $-1 $-1 $-1 $58 $-1 $25 #
shell $-1 $-1 $-1 $59 $-1 $27 #
shell $-1 $-1 $-1 $60 $-1 $29 #
shell $-1 $-1 $-1 $61 $-1 $31 #
shell $-1 $-1 $-1 $62 $-1 $33 #
shell $-1 $-1 $-1 $63 $-1 $35 #
shell $-1 $-1 $-1 $64 $-1 $37 #
face $-1 $65 $66 $39 $-1 $67 forward single #
face $-1 $68 $69 $40 $-1 $70 reversed single #
face $-1 $71 $72 $41 $-1 $73 forward single #
face $-1 $74 $75 $42 $-1 $76 reversed single #
face $-1 $77 $78 $43 $-1 $79 forward single #
face $-1 $80 $81 $44 $-1 $82 reversed single #
face $-1 $83 $84 $45 $-1 $85 forward single #
face $-1 $86 $87 $46 $-1 $88 reversed single #
face $-1 $89 $90 $47 $-1 $91 forward single #
face $-1 $92 $93 $48 $-1 $94 reversed single #
face $-1 $95 $96 $49 $-1 $97 forward single #
face $-1 $98 $99 $50 $-1 $100 forward single #
face $-1 $101 $102 $51 $-1 $103 forward single #
face $-1 $104 $105 $39 $-1 $106 reversed single #
loop $-1 $-1 $107 $52 #
plane-surface $-1 0 0 13.22896592703639 0 0 1 1 0 0 forward_v I I I I #
face $-1 $108 $109 $40 $-1 $110 reversed single #
loop $-1 $-1 $111 $53 #
plane-surface $-1 -39.848628192999058 -165.53178103856212 101.17299787181433 -1 0 0 0 -0.78801076186113728 0.61566146476048833 forward_v I I I I #
face $-1 $112 $113 $41 $-1 $114 forward single #
loop $-1 $115 $116 $54 #
cone-surface $-1 -53.613777204313401 -34.290941277975705 6.8406604046072115 0 0.78801076186113728 -0.61566146476048833 2.5 0 0 1 I I 0 1 2.5 forward I I I I #
face $-1 $117 $118 $42 $-1 $119 reversed single #
loop $-1 $-1 $120 $55 #
plane-surface $-1 -8.8817841970012523e-015 -165.53178103856212 101.17299787181433 -1 0 0 0 -0.78801076186113728 0.61566146476048833 forward_v I I I I #
face $-1 $121 $122 $43 $-1 $123 forward single #
loop $-1 $124 $125 $56 #
cone-surface $-1 -13.76514901131435 -34.290941277975705 6.8406604046072115 0 0.78801076186113728 -0.61566146476048833 2.5 0 0 1 I I 0 1 2.5 forward I I I I #
face $-1 $126 $127 $44 $-1 $128 reversed single #
loop $-1 $-1 $129 $57 #
plane-surface $-1 39.848628192999051 -165.53178103856212 101.17299787181433 -1 0 0 0 -0.78801076186113728 0.61566146476048833 forward_v I I I I #
face $-1 $130 $131 $45 $-1 $132 forward single #
loop $-1 $133 $134 $58 #
cone-surface $-1 26.083479181684709 -34.290941277975705 6.8406604046072115 0 0.78801076186113728 -0.61566146476048833 2.5 0 0 1 I I 0 1 2.5 forward I I I I #
face $-1 $135 $136 $46 $-1 $137 reversed single #
loop $-1 $-1 $138 $59 #
plane-surface $-1 65.932107374683767 -39.927189592616585 3.0399386638227668 0 -0.78801076186113728 0.61566146476048833 1 0 0 forward_v I I I I #
face $-1 $139 $140 $47 $-1 $141 forward single #
loop $-1 $142 $143 $60 #
cone-surface $-1 65.932107374683767 -34.290941277975705 6.8406604046072115 0 0.78801076186113728 -0.61566146476048833 2.5 0 0 1 I I 0 1 2.5 forward I I I I #
face $-1 $144 $145 $48 $-1 $146 reversed single #
loop $-1 $-1 $147 $61 #
plane-surface $-1 -55.643357434297641 107.83457103023792 169.16641267603546 1 0 0 0 -0.75470958851134928 -0.65605901945558964 forward_v I I I I #
face $-1 $148 $149 $49 $-1 $150 forward single #
loop $-1 $151 $152 $62 #
cone-surface $-1 -50.704447896732162 34.958003990764475 7.8218044691791597 0 -0.75470958851134928 -0.65605901945558964 1 0 0 1 I I 0 1 1 forward I I I I #
face $-1 $153 $154 $50 $-1 $155 forward single #
loop $-1 $156 $157 $63 #
cone-surface $-1 -43.296083590383958 34.958003990764475 7.8218044691791597 0 -0.75470958851134928 -0.65605901945558964 1 0 0 1 I I 0 1 1 forward I I I I #
face $-1 $158 $159 $51 $-1 $160 forward single #
loop $-1 $161 $162 $64 #
cone-surface $-1 -35.887719284035754 34.958003990764475 7.8218044691791597 0 -0.75470958851134928 -0.65605901945558964 1 0 0 1 I I 0 1 1 forward I I I I #
face $-1 $163 $164 $39 $-1 $165 reversed single #
loop $-1 $-1 $166 $65 #
plane-surface $-1 0 0 -13.22896592703639 0 0 1 1 0 0 forward_v I I I I #
coedge $-1 $167 $168 $169 $170 forward $66 $-1 #
face $-1 $171 $172 $40 $-1 $173 reversed single #
loop $-1 $-1 $174 $68 #
plane-surface $-1 -53.613777204313401 -39.927189592616585 3.0399386638227668 0 -0.78801076186113728 0.61566146476048833 1 0 0 forward_v I I I I #
coedge $-1 $175 $176 $177 $178 reversed $69 $-1 #
face $-1 $-1 $179 $41 $-1 $180 forward single #
loop $-1 $181 $182 $71 #
cone-surface $-1 -53.613777204313401 -31.649949675427855 4.7772916828342407 0 0.78801076186113728 -0.61566146476048833 1.25 0 0 1 I I -0.70710678118654746 0.70710678118654746 1.25 forward I I I I #
loop $-1 $-1 $183 $54 #
coedge $-1 $116 $116 $184 $185 reversed $72 $-1 #
face $-1 $186 $187 $42 $-1 $188 reversed single #
loop $-1 $-1 $189 $74 #
plane-surface $-1 -13.76514901131435 -39.927189592616585 3.0399386638227668 0 -0.78801076186113728 0.61566146476048833 1 0 0 forward_v I I I I #
coedge $-1 $190 $191 $192 $193 reversed $75 $-1 #
face $-1 $-1 $194 $43 $-1 $195 forward single #
loop $-1 $196 $197 $77 #
cone-surface $-1 -13.76514901131435 -31.649949675427855 4.7772916828342407 0 0.78801076186113728 -0.61566146476048833 1.25 0 0 1 I I -0.70710678118654746 0.70710678118654746 1.25 forward I I I I #
loop $-1 $-1 $198 $56 #
coedge $-1 $125 $125 $199 $200 reversed $78 $-1 #
face $-1 $201 $202 $44 $-1 $203 reversed single #
loop $-1 $-1 $204 $80 #
plane-surface $-1 26.083479181684709 -39.927189592616585 3.0399386638227668 0 -0.78801076186113728 0.61566146476048833 1 0 0 forward_v I I I I #
coedge $-1 $205 $206 $207 $208 reversed $81 $-1 #
face $-1 $-1 $209 $45 $-1 $210 forward single #
loop $-1 $211 $212 $83 #
cone-surface $-1 26.083479181684709 -31.649949675427855 4.7772916828342407 0 0.78801076186113728 -0.61566146476048833 1.25 0 0 1 I I -0.70710678118654746 0.70710678118654746 1.25 forward I I I I #
loop $-1 $-1 $213 $58 #
coedge $-1 $134 $134 $214 $215 reversed $84 $-1 #
face $-1 $216 $217 $46 $-1 $218 reversed single #
loop $-1 $-1 $219 $86 #
plane-surface $-1 52.166958363369424 -165.53178103856212 101.17299787181433 1 0 0 0 0.78801076186113728 -0.61566146476048833 forward_v I I I I #
coedge $-1 $220 $221 $222 $223 reversed $87 $-1 #
face $-1 $-1 $224 $47 $-1 $225 forward single #
loop $-1 $226 $227 $89 #
cone-surface $-1 65.932107374683767 -31.649949675427855 4.7772916828342407 0 0.78801076186113728 -0.61566146476048833 1.25 0 0 1 I I -0.70710678118654746 0.70710678118654746 1.25 forward I I I I #
loop $-1 $-1 $228 $60 #
coedge $-1 $143 $143 $229 $230 reversed $90 $-1 #
face $-1 $231 $232 $48 $-1 $233 reversed single #
loop $-1 $-1 $234 $92 #
plane-surface $-1 -43.296083590383958 -12.461996114882353 64.594204920238155 0 0.75470958851134928 0.65605901945558964 1 0 0 forward_v I I I I #
coedge $-1 $235 $236 $237 $238 reversed $93 $-1 #
face $-1 $-1 $239 $49 $-1 $240 forward single #
loop $-1 $241 $242 $95 #
cone-surface $-1 -50.704447896732162 33.48049649729176 6.5374268328515459 0 -0.75470958851134928 -0.65605901945558964 0.5 0 0 1 I I -0.70710678118654746 0.70710678118654746 0.5 forward I I I I #
loop $-1 $-1 $243 $62 #
coedge $-1 $152 $152 $244 $245 reversed $96 $-1 #
face $-1 $-1 $246 $50 $-1 $247 forward single #
loop $-1 $248 $249 $98 #
cone-surface $-1 -43.296083590383958 33.48049649729176 6.5374268328515459 0 -0.75470958851134928 -0.65605901945558964 0.5 0 0 1 I I -0.70710678118654746 0.70710678118654746 0.5 forward I I I I #
loop $-1 $-1 $250 $63 #
coedge $-1 $157 $157 $251 $252 reversed $99 $-1 #
face $-1 $-1 $253 $51 $-1 $254 forward single #
loop $-1 $255 $256 $101 #
cone-surface $-1 -35.887719284035754 33.48049649729176 6.5374268328515459 0 -0.75470958851134928 -0.65605901945558964 0.5 0 0 1 I I -0.70710678118654746 0.70710678118654746 0.5 forward I I I I #
loop $-1 $-1 $257 $64 #
coedge $-1 $162 $162 $258 $259 reversed $102 $-1 #
face $-1 $260 $261 $39 $-1 $262 reversed single #
loop $-1 $-1 $263 $104 #
plane-surface $-1 0 -39.927189592616593 0 0 1 0 0 0 1 forward_v I I I I #
coedge $-1 $264 $265 $266 $267 forward $105 $-1 #
coedge $-1 $268 $107 $269 $270 forward $66 $-1 #
coedge $-1 $107 $268 $271 $272 forward $66 $-1 #
coedge $-1 $273 $274 $107 $170 reversed $275 $-1 #
edge $-1 $276 -39.927189592616593 $277 39.927189592616593 $169 $278 forward 7 unknown #
face $-1 $279 $280 $40 $-1 $281 reversed single #
loop $-1 $-1 $282 $108 #
plane-surface $-1 -67.378926215627743 -165.53178103856212 101.17299787181433 1 0 0 0 0.78801076186113728 -0.61566146476048833 forward_v I I I I #
coedge $-1 $283 $284 $285 $286 reversed $109 $-1 #
coedge $-1 $176 $111 $287 $288 reversed $69 $-1 #
coedge $-1 $111 $175 $283 $289 reversed $69 $-1 #
coedge $-1 $285 $290 $111 $178 forward $291 $-1 #
edge $-1 $292 42.838700926664465 $293 50.799241255503375 $177 $294 forward 7 unknown #
loop $-1 $-1 $184 $112 #
plane-surface $-1 -53.613777204313401 -39.927189592616585 3.0399386638227668 0 -0.78801076186113728 0.61566146476048833 1 0 0 forward_v I I I I #
loop $-1 $-1 $295 $71 #
coedge $-1 $182 $182 $183 $296 reversed $113 $-1 #
coedge $-1 $183 $183 $182 $296 forward $115 $-1 #
coedge $-1 $184 $184 $116 $185 forward $179 $-1 #
edge $-1 $297 6.2998448080952484e-016 $297 6.2831853071796013 $184 $298 forward 7 unknown #
face $-1 $299 $300 $42 $-1 $301 reversed single #
loop $-1 $-1 $302 $117 #
plane-surface $-1 -27.530298022628692 -165.53178103856212 101.17299787181433 1 0 0 0 0.78801076186113728 -0.61566146476048833 forward_v I I I I #
coedge $-1 $303 $304 $305 $306 reversed $118 $-1 #
coedge $-1 $191 $120 $307 $308 reversed $75 $-1 #
coedge $-1 $120 $190 $303 $309 reversed $75 $-1 #
coedge $-1 $305 $310 $120 $193 forward $311 $-1 #
edge $-1 $312 42.838700926664465 $313 50.799241255503375 $192 $314 forward 7 unknown #
loop $-1 $-1 $199 $121 #
plane-surface $-1 -13.76514901131435 -39.927189592616585 3.0399386638227668 0 -0.78801076186113728 0.61566146476048833 1 0 0 forward_v I I I I #
loop $-1 $-1 $315 $77 #
coedge $-1 $197 $197 $198 $316 reversed $122 $-1 #
coedge $-1 $198 $198 $197 $316 forward $124 $-1 #
coedge $-1 $199 $199 $125 $200 forward $194 $-1 #
edge $-1 $317 6.2998448080952484e-016 $317 6.2831853071796013 $199 $318 forward 7 unknown #
face $-1 $319 $320 $44 $-1 $321 reversed single #
loop $-1 $-1 $322 $126 #
plane-surface $-1 12.318330170370368 -165.53178103856212 101.17299787181433 1 0 0 0 0.78801076186113728 -0.61566146476048833 forward_v I I I I #
coedge $-1 $323 $324 $325 $326 reversed $127 $-1 #
coedge $-1 $206 $129 $327 $328 reversed $81 $-1 #
coedge $-1 $129 $205 $323 $329 reversed $81 $-1 #
coedge $-1 $325 $330 $129 $208 forward $331 $-1 #
edge $-1 $332 42.838700926664465 $333 50.799241255503375 $207 $334 forward 7 unknown #
loop $-1 $-1 $214 $130 #
plane-surface $-1 26.083479181684709 -39.927189592616585 3.0399386638227668 0 -0.78801076186113728 0.61566146476048833 1 0 0 forward_v I I I I #
loop $-1 $-1 $335 $83 #
coedge $-1 $212 $212 $213 $336 reversed $131 $-1 #
coedge $-1 $213 $213 $212 $336 forward $133 $-1 #
coedge $-1 $214 $214 $134 $215 forward $209 $-1 #
edge $-1 $337 6.2998448080952484e-016 $337 6.2831853071796013 $214 $338 forward 7 unknown #
face $-1 $339 $340 $46 $-1 $341 forward single #
loop $-1 $-1 $342 $135 #
plane-surface $-1 0 -39.927189592616593 0 0 1 0 0 0 1 forward_v I I I I #
coedge $-1 $343 $344 $345 $346 reversed $136 $-1 #
coedge $-1 $347 $138 $348 $349 reversed $87 $-1 #
coedge $-1 $138 $347 $343 $350 forward $87 $-1 #
coedge $-1 $345 $351 $138 $223 forward $340 $-1 #
edge $-1 $352 -46.731202698656219 $353 -19.200904676027541 $222 $354 forward 7 unknown #
loop $-1 $-1 $229 $139 #
plane-surface $-1 65.932107374683767 -39.927189592616585 3.0399386638227668 0 -0.78801076186113728 0.61566146476048833 1 0 0 forward_v I I I I #
loop $-1 $-1 $355 $89 #
coedge $-1 $227 $227 $228 $356 reversed $140 $-1 #
coedge $-1 $228 $228 $227 $356 forward $142 $-1 #
coedge $-1 $229 $229 $143 $230 forward $224 $-1 #
edge $-1 $357 6.2998448080952484e-016 $357 6.2831853071796013 $229 $358 forward 7 unknown #
face $-1 $359 $360 $48 $-1 $361 forward single #
loop $-1 $-1 $362 $144 #
plane-surface $-1 -30.948809746470278 107.83457103023792 169.16641267603546 -1 0 0 0 0.75470958851134928 0.65605901945558964 forward_v I I I I #
coedge $-1 $363 $364 $365 $366 reversed $145 $-1 #
coedge $-1 $236 $147 $367 $368 reversed $93 $-1 #
coedge $-1 $147 $235 $363 $369 reversed $93 $-1 #
coedge $-1 $365 $370 $147 $238 forward $360 $-1 #
edge $-1 $371 13.99009592250237 $372 21.72816172777258 $237 $373 forward 7 unknown #
loop $-1 $-1 $244 $148 #
plane-surface $-1 -43.296083590383958 -12.461996114882353 64.594204920238155 0 0.75470958851134928 0.65605901945558964 1 0 0 forward_v I I I I #
loop $-1 $-1 $374 $95 #
coedge $-1 $242 $242 $243 $375 reversed $149 $-1 #
coedge $-1 $243 $243 $242 $375 forward $151 $-1 #
coedge $-1 $244 $244 $152 $245 forward $239 $-1 #
edge $-1 $376 -6.1275365110318934e-017 $376 6.2831853071796004 $244 $377 forward 7 unknown #
loop $-1 $-1 $251 $153 #
plane-surface $-1 -43.296083590383958 -12.461996114882353 64.594204920238155 0 0.75470958851134928 0.65605901945558964 1 0 0 forward_v I I I I #
loop $-1 $-1 $378 $98 #
coedge $-1 $249 $249 $250 $379 reversed $154 $-1 #
coedge $-1 $250 $250 $249 $379 forward $156 $-1 #
coedge $-1 $251 $251 $157 $252 forward $246 $-1 #
edge $-1 $380 -6.1275365110318934e-017 $380 6.2831853071796004 $251 $381 forward 7 unknown #
loop $-1 $-1 $258 $158 #
plane-surface $-1 -43.296083590383958 -12.461996114882353 64.594204920238155 0 0.75470958851134928 0.65605901945558964 1 0 0 forward_v I I I I #
loop $-1 $-1 $382 $101 #
coedge $-1 $256 $256 $257 $383 reversed $159 $-1 #
coedge $-1 $257 $257 $256 $383 forward $161 $-1 #
coedge $-1 $258 $258 $162 $259 forward $253 $-1 #
edge $-1 $384 -6.1275365110318934e-017 $384 6.2831853071796004 $258 $385 forward 7 unknown #
face $-1 $386 $387 $39 $-1 $388 reversed single #
loop $-1 $-1 $389 $163 #
plane-surface $-1 -79.697256385998116 0 0 1 0 0 0 0 -1 forward_v I I I I #
coedge $-1 $390 $271 $391 $392 forward $164 $-1 #
coedge $-1 $393 $166 $390 $394 forward $105 $-1 #
coedge $-1 $166 $393 $395 $396 forward $105 $-1 #
coedge $-1 $274 $273 $166 $267 reversed $275 $-1 #
edge $-1 $397 -39.927189592616593 $398 39.927189592616593 $266 $399 forward 7 unknown #
coedge $-1 $168 $167 $400 $401 forward $66 $-1 #
coedge $-1 $402 $403 $167 $270 reversed $387 $-1 #
edge $-1 $277 -79.697256385998116 $404 79.697256385998116 $269 $405 forward 7 unknown #
coedge $-1 $263 $406 $168 $272 reversed $164 $-1 #
edge $-1 $407 -79.697256385998116 $276 79.697256385998116 $271 $408 forward 7 unknown #
coedge $-1 $266 $169 $406 $409 forward $275 $-1 #
coedge $-1 $169 $266 $402 $410 reversed $275 $-1 #
loop $-1 $-1 $273 $386 #
vertex $-1 $170 $411 #
vertex $-1 $170 $412 #
straight-curve $-1 79.697256385998116 0 13.22896592703639 0 1 0 I I #
face $-1 $-1 $291 $40 $-1 $413 forward single #
loop $-1 $-1 $414 $171 #
plane-surface $-1 0 -39.927189592616593 0 0 1 0 0 0 1 forward_v I I I I #
coedge $-1 $415 $416 $417 $418 reversed $172 $-1 #
coedge $-1 $419 $174 $176 $289 forward $109 $-1 #
coedge $-1 $174 $419 $415 $420 forward $109 $-1 #
coedge $-1 $417 $177 $174 $286 forward $291 $-1 #
edge $-1 $293 13.041739590842358 $421 40.572037613471039 $285 $422 forward 7 unknown #
coedge $-1 $423 $424 $175 $288 forward $280 $-1 #
edge $-1 $425 -47.546560272084406 $292 -37.357533008870774 $287 $426 forward 7 unknown #
edge $-1 $293 -12.93006105544676 $425 1.1373479346495045e-014 $176 $427 forward 7 unknown #
coedge $-1 $177 $417 $423 $428 forward $291 $-1 #
loop $-1 $-1 $417 $279 #
vertex $-1 $288 $429 #
vertex $-1 $178 $430 #
straight-curve $-1 -39.848628192999058 -82.765890519281058 13.228965927036391 0 1 0 I I #
coedge $-1 $295 $295 $-1 $431 reversed $181 $-1 #
edge $-1 $432 0 $432 6.2831853071796004 $182 $433 forward 7 unknown #
vertex $-1 $185 $434 #
ellipse-curve $-1 -53.613777204313401 -35.946919428197141 8.1344522954295755 0 -0.78801076186113728 0.61566146476048833 2.5 0 0 1 I I #
face $-1 $-1 $311 $42 $-1 $435 forward single #
loop $-1 $-1 $436 $186 #
plane-surface $-1 0 -39.927189592616593 0 0 1 0 0 0 1 forward_v I I I I #
coedge $-1 $437 $438 $439 $440 reversed $187 $-1 #
coedge $-1 $441 $189 $191 $309 forward $118 $-1 #
coedge $-1 $189 $441 $437 $442 forward $118 $-1 #
coedge $-1 $439 $192 $189 $306 forward $311 $-1 #
edge $-1 $313 -6.8825745056571659 $443 20.647723516971517 $305 $444 forward 7 unknown #
coedge $-1 $445 $446 $190 $308 forward $300 $-1 #
edge $-1 $447 -47.546560272084406 $312 -37.357533008870774 $307 $448 forward 7 unknown #
edge $-1 $313 -12.93006105544676 $447 1.1373479346495045e-014 $191 $449 forward 7 unknown #
coedge $-1 $192 $439 $445 $450 forward $311 $-1 #
loop $-1 $-1 $439 $299 #
vertex $-1 $308 $451 #
vertex $-1 $193 $452 #
straight-curve $-1 -8.8817841970012523e-015 -82.765890519281058 13.228965927036391 0 1 0 I I #
coedge $-1 $315 $315 $-1 $453 reversed $196 $-1 #
edge $-1 $454 0 $454 6.2831853071796004 $197 $455 forward 7 unknown #
vertex $-1 $200 $456 #
ellipse-curve $-1 -13.76514901131435 -35.946919428197141 8.1344522954295755 0 -0.78801076186113728 0.61566146476048833 2.5 0 0 1 I I #
face $-1 $-1 $331 $44 $-1 $457 forward single #
loop $-1 $-1 $458 $201 #
plane-surface $-1 0 -39.927189592616593 0 0 1 0 0 0 1 forward_v I I I I #
coedge $-1 $459 $460 $461 $462 reversed $202 $-1 #
coedge $-1 $463 $204 $206 $329 forward $127 $-1 #
coedge $-1 $204 $463 $459 $464 forward $127 $-1 #
coedge $-1 $461 $207 $204 $326 forward $331 $-1 #
edge $-1 $333 -26.806888602156697 $465 0.72340942047198631 $325 $466 forward 7 unknown #
coedge $-1 $467 $468 $205 $328 forward $320 $-1 #
edge $-1 $469 -47.546560272084406 $332 -37.357533008870774 $327 $470 forward 7 unknown #
edge $-1 $333 -12.93006105544676 $469 1.1373479346495045e-014 $206 $471 forward 7 unknown #
coedge $-1 $207 $461 $467 $472 forward $331 $-1 #
loop $-1 $-1 $461 $319 #
vertex $-1 $328 $473 #
vertex $-1 $208 $474 #
straight-curve $-1 39.848628192999051 -82.765890519281058 13.228965927036391 0 1 0 I I #
coedge $-1 $335 $335 $-1 $475 reversed $211 $-1 #
edge $-1 $476 0 $476 6.2831853071796004 $212 $477 forward 7 unknown #
vertex $-1 $215 $478 #
ellipse-curve $-1 26.083479181684709 -35.946919428197141 8.1344522954295755 0 -0.78801076186113728 0.61566146476048833 2.5 0 0 1 I I #
face $-1 $-1 $479 $46 $-1 $480 reversed single #
loop $-1 $-1 $345 $216 #
plane-surface $-1 0 0 13.22896592703639 0 0 1 1 0 0 forward_v I I I I #
coedge $-1 $481 $482 $344 $483 forward $217 $-1 #
coedge $-1 $344 $219 $221 $350 reversed $136 $-1 #
coedge $-1 $219 $343 $342 $483 reversed $136 $-1 #
coedge $-1 $484 $222 $219 $346 forward $340 $-1 #
edge $-1 $353 -50.799241255503375 $485 -42.838700926664465 $345 $486 forward 7 unknown #
coedge $-1 $221 $220 $481 $487 reversed $87 $-1 #
coedge $-1 $488 $489 $220 $349 forward $479 $-1 #
edge $-1 $490 -11.093063822934987 $352 1.8369972325117863 $348 $491 forward 7 unknown #
edge $-1 $492 -1.1373479346495045e-014 $353 12.93006105544676 $343 $493 forward 7 unknown #
coedge $-1 $222 $484 $488 $494 forward $340 $-1 #
vertex $-1 $349 $495 #
vertex $-1 $223 $496 #
straight-curve $-1 32.966053687341883 -31.96664926377769 13.22896592703639 -1 0 0 I I #
coedge $-1 $355 $355 $-1 $497 reversed $226 $-1 #
edge $-1 $498 0 $498 6.2831853071796004 $227 $499 forward 7 unknown #
vertex $-1 $230 $500 #
ellipse-curve $-1 65.932107374683767 -35.946919428197141 8.1344522954295755 0 -0.78801076186113728 0.61566146476048833 2.5 0 0 1 I I #
face $-1 $-1 $501 $48 $-1 $502 reversed single #
loop $-1 $-1 $237 $231 #
plane-surface $-1 0 0 13.22896592703639 0 0 1 1 0 0 forward_v I I I I #
coedge $-1 $503 $504 $505 $506 reversed $232 $-1 #
coedge $-1 $507 $234 $236 $369 forward $145 $-1 #
coedge $-1 $234 $507 $503 $508 forward $145 $-1 #
coedge $-1 $505 $237 $234 $366 forward $360 $-1 #
edge $-1 $372 -33.995315639105662 $509 -9.3007679512782993 $365 $510 forward 7 unknown #
coedge $-1 $511 $512 $235 $368 forward $501 $-1 #
edge $-1 $513 -80.255867073496191 $371 -71.354240410981348 $367 $514 forward 7 unknown #
edge $-1 $372 68.059608324996589 $513 79.854379185233228 $236 $515 forward 7 unknown #
coedge $-1 $237 $505 $511 $516 forward $360 $-1 #
vertex $-1 $368 $517 #
vertex $-1 $238 $518 #
straight-curve $-1 -55.643357434297641 53.917285515118962 13.228965927036384 0 -1 0 I I #
coedge $-1 $374 $374 $-1 $519 reversed $241 $-1 #
edge $-1 $520 0 $520 6.2831853071796004 $242 $521 forward 7 unknown #
vertex $-1 $245 $522 #
ellipse-curve $-1 -50.704447896732162 36.058156689981494 8.7781525957789643 0 0.75470958851134928 0.65605901945558964 1 0 0 1 I I #
coedge $-1 $378 $378 $-1 $523 reversed $248 $-1 #
edge $-1 $524 0 $524 6.2831853071796004 $249 $525 forward 7 unknown #
vertex $-1 $252 $526 #
ellipse-curve $-1 -43.296083590383958 36.058156689981494 8.7781525957789643 0 0.75470958851134928 0.65605901945558964 1 0 0 1 I I #
coedge $-1 $382 $382 $-1 $527 reversed $255 $-1 #
edge $-1 $528 0 $528 6.2831853071796004 $256 $529 forward 7 unknown #
vertex $-1 $259 $530 #
ellipse-curve $-1 -35.887719284035754 36.058156689981494 8.7781525957789643 0 0.75470958851134928 0.65605901945558964 1 0 0 1 I I #
face $-1 $-1 $275 $39 $-1 $531 reversed single #
loop $-1 $-1 $402 $260 #
plane-surface $-1 0 39.927189592616593 0 0 -1 0 0 0 -1 forward_v I I I I #
coedge $-1 $532 $400 $403 $533 forward $261 $-1 #
coedge $-1 $406 $263 $264 $394 reversed $164 $-1 #
coedge $-1 $400 $532 $263 $392 reversed $261 $-1 #
edge $-1 $407 -13.22896592703639 $534 13.22896592703639 $391 $535 forward 7 unknown #
coedge $-1 $265 $264 $532 $536 forward $105 $-1 #
edge $-1 $398 -79.697256385998116 $534 79.697256385998116 $390 $537 forward 7 unknown #
coedge $-1 $403 $402 $265 $396 reversed $387 $-1 #
edge $-1 $538 -79.697256385998116 $397 79.697256385998116 $395 $539 forward 7 unknown #
vertex $-1 $267 $540 #
vertex $-1 $409 $541 #
straight-curve $-1 79.697256385998116 0 -13.22896592703639 0 -1 0 I I #
coedge $-1 $389 $391 $268 $401 reversed $261 $-1 #
edge $-1 $404 -39.927189592616593 $407 39.927189592616593 $400 $542 forward 7 unknown #
coedge $-1 $395 $269 $274 $410 forward $387 $-1 #
coedge $-1 $269 $395 $389 $533 reversed $387 $-1 #
vertex $-1 $270 $543 #
straight-curve $-1 0 39.927189592616593 13.22896592703639 -1 0 0 I I #
coedge $-1 $271 $390 $273 $409 reversed $164 $-1 #
vertex $-1 $401 $544 #
straight-curve $-1 0 -39.927189592616593 13.22896592703639 1 0 0 I I #
edge $-1 $276 -13.22896592703639 $398 13.22896592703639 $273 $545 forward 7 unknown #
edge $-1 $277 -13.22896592703639 $397 13.22896592703639 $274 $546 forward 7 unknown #
point $-1 79.697256385998116 -39.927189592616593 13.22896592703639 #
point $-1 79.697256385998116 39.927189592616593 13.22896592703639 #
plane-surface $-1 0 0 13.22896592703639 0 0 1 1 0 0 forward_v I I I I #
coedge $-1 $424 $423 $416 $547 forward $280 $-1 #
coedge $-1 $416 $282 $284 $420 reversed $172 $-1 #
coedge $-1 $282 $415 $414 $547 reversed $172 $-1 #
coedge $-1 $290 $285 $282 $418 forward $291 $-1 #
edge $-1 $421 -50.799241255503375 $548 -42.838700926664465 $417 $549 forward 7 unknown #
coedge $-1 $284 $283 $424 $550 reversed $109 $-1 #
edge $-1 $551 -1.1373479346495045e-014 $421 12.93006105544676 $415 $552 forward 7 unknown #
vertex $-1 $286 $553 #
straight-curve $-1 -26.8068886021567 -31.96664926377769 13.22896592703639 -1 0 0 I I #
coedge $-1 $414 $287 $290 $428 reversed $280 $-1 #
coedge $-1 $287 $414 $419 $550 forward $280 $-1 #
vertex $-1 $288 $554 #
straight-curve $-1 -39.848628192999058 -39.927189592616593 50.586498935907166 0 0 1 I I #
straight-curve $-1 -39.848628192999058 -39.927189592616585 3.0399386638227668 0 -0.61566146476048833 -0.78801076186113728 I I #
edge $-1 $548 -67.378926215627743 $292 -39.848628192999058 $423 $555 forward 7 unknown #
point $-1 -39.848628192999058 -39.927189592616593 13.22896592703639 #
point $-1 -39.848628192999058 -31.966649263777686 13.22896592703639 #
edge $-1 $556 1 $556 0 $295 $-1 forward 7 unknown #
vertex $-1 $296 $557 #
ellipse-curve $-1 -53.613777204313401 -32.634963127754276 5.546868513784851 0 -0.78801076186113728 0.61566146476048833 2.5 0 0 1 I I #
point $-1 -51.113777204313401 -35.946919428197134 8.1344522954295719 #
plane-surface $-1 0 0 13.22896592703639 0 0 1 1 0 0 forward_v I I I I #
coedge $-1 $446 $445 $438 $558 forward $300 $-1 #
coedge $-1 $438 $302 $304 $442 reversed $187 $-1 #
coedge $-1 $302 $437 $436 $558 reversed $187 $-1 #
coedge $-1 $310 $305 $302 $440 forward $311 $-1 #
edge $-1 $443 -50.799241255503375 $559 -42.838700926664465 $439 $560 forward 7 unknown #
coedge $-1 $304 $303 $446 $561 reversed $118 $-1 #
edge $-1 $562 -1.1373479346495045e-014 $443 12.93006105544676 $437 $563 forward 7 unknown #
vertex $-1 $306 $564 #
straight-curve $-1 -6.8825745056571748 -31.96664926377769 13.22896592703639 -1 0 0 I I #
coedge $-1 $436 $307 $310 $450 reversed $300 $-1 #
coedge $-1 $307 $436 $441 $561 forward $300 $-1 #
vertex $-1 $308 $565 #
straight-curve $-1 -8.8817841970012523e-015 -39.927189592616593 50.586498935907166 0 0 1 I I #
straight-curve $-1 -8.8817841970012523e-015 -39.927189592616585 3.0399386638227668 0 -0.61566146476048833 -0.78801076186113728 I I #
edge $-1 $559 -27.530298022628692 $312 -8.8817841970012523e-015 $445 $566 forward 7 unknown #
point $-1 -8.8817841970012523e-015 -39.927189592616593 13.22896592703639 #
point $-1 -8.8817841970012523e-015 -31.966649263777686 13.22896592703639 #
edge $-1 $567 1 $567 0 $315 $-1 forward 7 unknown #
vertex $-1 $316 $568 #
ellipse-curve $-1 -13.76514901131435 -32.634963127754276 5.546868513784851 0 -0.78801076186113728 0.61566146476048833 2.5 0 0 1 I I #
point $-1 -11.26514901131435 -35.946919428197134 8.1344522954295719 #
plane-surface $-1 0 0 13.22896592703639 0 0 1 1 0 0 forward_v I I I I #
coedge $-1 $468 $467 $460 $569 forward $320 $-1 #
coedge $-1 $460 $322 $324 $464 reversed $202 $-1 #
coedge $-1 $322 $459 $458 $569 reversed $202 $-1 #
coedge $-1 $330 $325 $322 $462 forward $331 $-1 #
edge $-1 $465 -50.799241255503375 $570 -42.838700926664465 $461 $571 forward 7 unknown #
coedge $-1 $324 $323 $468 $572 reversed $127 $-1 #
edge $-1 $573 -1.1373479346495045e-014 $465 12.93006105544676 $459 $574 forward 7 unknown #
vertex $-1 $326 $575 #
straight-curve $-1 13.041739590842354 -31.96664926377769 13.22896592703639 -1 0 0 I I #
coedge $-1 $458 $327 $330 $472 reversed $320 $-1 #
coedge $-1 $327 $458 $463 $572 forward $320 $-1 #
vertex $-1 $328 $576 #
straight-curve $-1 39.848628192999051 -39.927189592616593 50.586498935907166 0 0 1 I I #
straight-curve $-1 39.848628192999051 -39.927189592616585 3.0399386638227668 0 -0.61566146476048833 -0.78801076186113728 I I #
edge $-1 $570 12.318330170370368 $332 39.848628192999051 $467 $577 forward 7 unknown #
point $-1 39.848628192999051 -39.927189592616593 13.22896592703639 #
point $-1 39.848628192999051 -31.966649263777686 13.22896592703639 #
edge $-1 $578 1 $578 0 $335 $-1 forward 7 unknown #
vertex $-1 $336 $579 #
ellipse-curve $-1 26.083479181684709 -32.634963127754276 5.546868513784851 0 -0.78801076186113728 0.61566146476048833 2.5 0 0 1 I I #
point $-1 28.583479181684709 -35.946919428197134 8.1344522954295719 #
loop $-1 $-1 $348 $339 #
plane-surface $-1 79.697256385998116 0 0 -1 0 0 0 0 1 forward_v I I I I #
coedge $-1 $580 $342 $347 $487 forward $217 $-1 #
coedge $-1 $342 $580 $484 $581 reversed $217 $-1 #
edge $-1 $485 37.357533008870774 $492 47.546560272084406 $342 $582 forward 7 unknown #
coedge $-1 $351 $345 $482 $581 forward $340 $-1 #
vertex $-1 $581 $583 #
straight-curve $-1 52.166958363369424 -82.765890519281058 13.228965927036391 0 -1 0 I I #
edge $-1 $492 19.200904676027541 $490 46.731202698656219 $481 $584 forward 7 unknown #
coedge $-1 $489 $348 $351 $494 reversed $479 $-1 #
coedge $-1 $348 $488 $580 $585 forward $479 $-1 #
vertex $-1 $487 $586 #
straight-curve $-1 79.697256385998116 -33.097617670706853 11.781392338307974 0 0.61566146476048833 0.78801076186113728 I I #
vertex $-1 $487 $587 #
straight-curve $-1 52.166958363369424 -39.927189592616585 3.0399386638227668 0 0.61566146476048833 0.78801076186113728 I I #
edge $-1 $588 -39.927189592616593 $352 -31.966649263777686 $488 $589 forward 7 unknown #
point $-1 79.697256385998102 -31.966649263777686 13.22896592703639 #
point $-1 52.166958363369424 -31.966649263777686 13.22896592703639 #
edge $-1 $590 1 $590 0 $355 $-1 forward 7 unknown #
vertex $-1 $356 $591 #
ellipse-curve $-1 65.932107374683767 -32.634963127754276 5.546868513784851 0 -0.78801076186113728 0.61566146476048833 2.5 0 0 1 I I #
point $-1 68.432107374683767 -35.946919428197134 8.1344522954295719 #
loop $-1 $-1 $367 $359 #
plane-surface $-1 0 39.927189592616593 0 0 -1 0 0 0 -1 forward_v I I I I #
coedge $-1 $504 $362 $364 $508 reversed $232 $-1 #
coedge $-1 $362 $503 $592 $593 reversed $232 $-1 #
coedge $-1 $370 $365 $362 $506 forward $360 $-1 #
edge $-1 $509 -21.72816172777258 $594 -13.99009592250237 $505 $595 forward 7 unknown #
coedge $-1 $364 $363 $512 $596 reversed $145 $-1 #
edge $-1 $597 -79.854379185233228 $509 -68.059608324996589 $503 $598 forward 7 unknown #
vertex $-1 $366 $599 #
straight-curve $-1 -21.648041795191979 32.189123787346375 13.228965927036384 1 0 0 I I #
coedge $-1 $592 $367 $370 $516 reversed $501 $-1 #
coedge $-1 $367 $592 $507 $596 forward $501 $-1 #
vertex $-1 $368 $600 #
straight-curve $-1 -55.643357434297641 39.927189592616593 84.583206338017732 0 0 1 I I #
straight-curve $-1 -55.643357434297641 -12.461996114882353 64.594204920238155 0 0.65605901945558964 -0.75470958851134928 I I #
edge $-1 $594 30.948809746470278 $371 55.643357434297641 $511 $601 forward 7 unknown #
point $-1 -55.643357434297641 39.927189592616593 13.22896592703639 #
point $-1 -55.643357434297641 32.189123787346382 13.228965927036391 #
edge $-1 $602 1 $602 0 $374 $-1 forward 7 unknown #
vertex $-1 $375 $603 #
ellipse-curve $-1 -50.704447896732162 33.857851291547433 6.8654563425793409 0 0.75470958851134928 0.65605901945558964 1 0 0 1 I I #
point $-1 -49.704447896732162 36.058156689981509 8.7781525957789768 #
edge $-1 $604 1 $604 0 $378 $-1 forward 7 unknown #
vertex $-1 $379 $605 #
ellipse-curve $-1 -43.296083590383958 33.857851291547433 6.8654563425793409 0 0.75470958851134928 0.65605901945558964 1 0 0 1 I I #
point $-1 -42.296083590383958 36.058156689981509 8.7781525957789768 #
edge $-1 $606 1 $606 0 $382 $-1 forward 7 unknown #
vertex $-1 $383 $607 #
ellipse-curve $-1 -35.887719284035754 33.857851291547433 6.8654563425793409 0 0.75470958851134928 0.65605901945558964 1 0 0 1 I I #
point $-1 -34.887719284035754 36.058156689981509 8.7781525957789768 #
plane-surface $-1 79.697256385998116 0 0 -1 0 0 0 0 1 forward_v I I I I #
coedge $-1 $391 $389 $393 $536 reversed $261 $-1 #
edge $-1 $404 -13.22896592703639 $538 13.22896592703639 $403 $608 forward 7 unknown #
vertex $-1 $536 $609 #
straight-curve $-1 -79.697256385998116 -39.927189592616593 0 0 0 -1 I I #
edge $-1 $534 -39.927189592616593 $538 39.927189592616593 $532 $610 forward 7 unknown #
straight-curve $-1 0 -39.927189592616593 -13.22896592703639 -1 0 0 I I #
vertex $-1 $396 $611 #
straight-curve $-1 0 39.927189592616593 -13.22896592703639 1 0 0 I I #
point $-1 79.697256385998116 39.927189592616593 -13.22896592703639 #
point $-1 79.697256385998116 -39.927189592616593 -13.22896592703639 #
straight-curve $-1 -79.697256385998116 0 13.22896592703639 0 -1 0 I I #
point $-1 -79.697256385998116 39.927189592616593 13.22896592703639 #
point $-1 -79.697256385998116 -39.927189592616593 13.22896592703639 #
straight-curve $-1 79.697256385998116 -39.927189592616593 0 0 0 -1 I I #
straight-curve $-1 79.697256385998116 39.927189592616593 0 0 0 -1 I I #
edge $-1 $548 37.357533008870774 $551 47.546560272084406 $414 $612 forward 7 unknown #
vertex $-1 $428 $613 #
straight-curve $-1 -67.378926215627743 -82.765890519281058 13.228965927036391 0 -1 0 I I #
edge $-1 $551 -40.572037613471039 $425 -13.041739590842358 $424 $614 forward 7 unknown #
vertex $-1 $550 $615 #
straight-curve $-1 -67.378926215627743 -39.927189592616585 3.0399386638227668 0 0.61566146476048833 0.78801076186113728 I I #
point $-1 -67.378926215627743 -31.966649263777686 13.22896592703639 #
point $-1 -39.848628192999058 -39.927189592616593 3.0399386638227579 #
straight-curve $-1 0 -39.927189592616593 13.22896592703639 1 0 0 I I #
vertex $-1 $431 $616 #
point $-1 -51.113777204313401 -32.634963127754276 5.546868513784851 #
edge $-1 $559 37.357533008870774 $562 47.546560272084406 $436 $617 forward 7 unknown #
vertex $-1 $450 $618 #
straight-curve $-1 -27.530298022628692 -82.765890519281058 13.228965927036391 0 -1 0 I I #
edge $-1 $562 -20.647723516971517 $447 6.8825745056571659 $446 $619 forward 7 unknown #
vertex $-1 $561 $620 #
straight-curve $-1 -27.530298022628692 -39.927189592616585 3.0399386638227668 0 0.61566146476048833 0.78801076186113728 I I #
point $-1 -27.530298022628692 -31.966649263777686 13.22896592703639 #
point $-1 -8.8817841970012523e-015 -39.927189592616593 3.0399386638227579 #
straight-curve $-1 0 -39.927189592616593 13.22896592703639 1 0 0 I I #
vertex $-1 $453 $621 #
point $-1 -11.26514901131435 -32.634963127754276 5.546868513784851 #
edge $-1 $570 37.357533008870774 $573 47.546560272084406 $458 $622 forward 7 unknown #
vertex $-1 $472 $623 #
straight-curve $-1 12.318330170370368 -82.765890519281058 13.228965927036391 0 -1 0 I I #
edge $-1 $573 -0.72340942047198631 $469 26.806888602156697 $468 $624 forward 7 unknown #
vertex $-1 $572 $625 #
straight-curve $-1 12.318330170370368 -39.927189592616585 3.0399386638227668 0 0.61566146476048833 0.78801076186113728 I I #
point $-1 12.318330170370368 -31.966649263777686 13.22896592703639 #
point $-1 39.848628192999051 -39.927189592616593 3.0399386638227579 #
straight-curve $-1 0 -39.927189592616593 13.22896592703639 1 0 0 I I #
vertex $-1 $475 $626 #
point $-1 28.583479181684709 -32.634963127754276 5.546868513784851 #
coedge $-1 $482 $481 $489 $585 reversed $217 $-1 #
edge $-1 $485 52.166958363369424 $588 79.697256385998116 $482 $627 forward 7 unknown #
straight-curve $-1 52.166958363369424 -39.927189592616593 50.586498935907166 0 0 -1 I I #
point $-1 52.166958363369424 -39.927189592616593 13.22896592703639 #
straight-curve $-1 32.966053687341883 -39.927189592616593 3.0399386638227526 1 0 0 I I #
edge $-1 $588 -13.22896592703639 $490 -3.0399386638227579 $489 $628 forward 7 unknown #
point $-1 79.697256385998102 -39.927189592616593 3.0399386638227579 #
point $-1 52.166958363369424 -39.927189592616593 3.0399386638227579 #
vertex $-1 $494 $629 #
straight-curve $-1 79.697256385998116 0 13.22896592703639 0 1 0 I I #
vertex $-1 $497 $630 #
point $-1 68.432107374683767 -32.634963127754276 5.546868513784851 #
coedge $-1 $512 $511 $504 $593 forward $501 $-1 #
edge $-1 $594 71.354240410981348 $597 80.255867073496191 $592 $631 forward 7 unknown #
vertex $-1 $516 $632 #
straight-curve $-1 -30.948809746470278 53.917285515118962 13.228965927036384 0 1 0 I I #
edge $-1 $597 9.3007679512782993 $513 33.995315639105662 $512 $633 forward 7 unknown #
vertex $-1 $596 $634 #
straight-curve $-1 -30.948809746470278 -12.461996114882353 64.594204920238155 0 -0.65605901945558964 0.75470958851134928 I I #
point $-1 -30.948809746470278 32.189123787346382 13.228965927036391 #
point $-1 -55.643357434297641 39.927189592616593 4.3273392645215409 #
straight-curve $-1 0 39.927189592616593 13.22896592703639 -1 0 0 I I #
vertex $-1 $519 $635 #
point $-1 -49.704447896732162 33.857851291547433 6.8654563425793409 #
vertex $-1 $523 $636 #
point $-1 -42.296083590383958 33.857851291547433 6.8654563425793409 #
vertex $-1 $527 $637 #
point $-1 -34.887719284035754 33.857851291547433 6.8654563425793409 #
straight-curve $-1 -79.697256385998116 39.927189592616593 0 0 0 -1 I I #
point $-1 -79.697256385998116 -39.927189592616593 -13.22896592703639 #
straight-curve $-1 -79.697256385998116 0 -13.22896592703639 0 1 0 I I #
point $-1 -79.697256385998116 39.927189592616593 -13.22896592703639 #
straight-curve $-1 -67.378926215627743 -39.927189592616593 50.586498935907166 0 0 -1 I I #
point $-1 -67.378926215627743 -39.927189592616593 13.22896592703639 #
straight-curve $-1 -26.8068886021567 -39.927189592616593 3.0399386638227526 1 0 0 I I #
point $-1 -67.378926215627743 -39.927189592616593 3.0399386638227579 #
point $-1 -53.613777204313401 -30.664936223101435 4.0077148518836303 #
straight-curve $-1 -27.530298022628692 -39.927189592616593 50.586498935907166 0 0 -1 I I #
point $-1 -27.530298022628692 -39.927189592616593 13.22896592703639 #
straight-curve $-1 -6.8825745056571748 -39.927189592616593 3.0399386638227526 1 0 0 I I #
point $-1 -27.530298022628692 -39.927189592616593 3.0399386638227579 #
point $-1 -13.76514901131435 -30.664936223101435 4.0077148518836303 #
straight-curve $-1 12.318330170370368 -39.927189592616593 50.586498935907166 0 0 -1 I I #
point $-1 12.318330170370368 -39.927189592616593 13.22896592703639 #
straight-curve $-1 13.041739590842354 -39.927189592616593 3.0399386638227526 1 0 0 I I #
point $-1 12.318330170370368 -39.927189592616593 3.0399386638227579 #
point $-1 26.083479181684709 -30.664936223101435 4.0077148518836303 #
straight-curve $-1 0 -39.927189592616593 13.22896592703639 1 0 0 I I #
straight-curve $-1 79.697256385998116 -39.927189592616593 0 0 0 -1 I I #
point $-1 79.697256385998116 -39.927189592616593 13.22896592703639 #
point $-1 65.932107374683767 -30.664936223101435 4.0077148518836303 #
straight-curve $-1 -30.948809746470278 39.927189592616593 84.583206338017732 0 0 -1 I I #
point $-1 -30.948809746470278 39.927189592616593 13.22896592703639 #
straight-curve $-1 -21.648041795191979 39.927189592616585 4.3273392645215445 -1 0 0 I I #
point $-1 -30.948809746470278 39.927189592616593 4.3273392645215409 #
point $-1 -50.704447896732162 33.103141703036087 6.2093973231237509 #
point $-1 -43.296083590383958 33.103141703036087 6.2093973231237509 #
point $-1 -35.887719284035754 33.103141703036087 6.2093973231237509 #
End-of-ACIS-data 