500 0 5 0           
7 Unknown 11 ACIS 5.0 NT 24 Fri Mar 26 16:55:11 1999 
-1 9.9999999999999995e-007 1e-010 
body $-1 $5 $-1 $6 #
body $-1 $7 $-1 $8 #
body $-1 $9 $-1 $10 #
body $-1 $11 $-1 $12 #
body $-1 $13 $-1 $14 #
lump $-1 $-1 $15 $0 #
transform $-1 1 0 0 0 1 0 0 0 1 69.793389690847505 41.669850760763147 20.52132373245518 1 rotate no_reflect no_shear #
lump $-1 $-1 $16 $1 #
transform $-1 1 0 0 0 1 0 0 0 1 69.793389690847505 41.669850760763147 20.52132373245518 1 rotate no_reflect no_shear #
lump $-1 $-1 $17 $2 #
transform $-1 1 0 0 0 1 0 0 0 1 69.793389690847505 41.669850760763147 20.52132373245518 1 rotate no_reflect no_shear #
lump $-1 $-1 $18 $3 #
transform $-1 1 0 0 0 1 0 0 0 1 69.793389690847505 41.669850760763147 20.52132373245518 1 rotate no_reflect no_shear #
lump $-1 $-1 $19 $4 #
transform $-1 1 0 0 0 1 0 0 0 1 69.793389690847505 41.669850760763147 20.52132373245518 1 rotate no_reflect no_shear #
shell $-1 $-1 $-1 $20 $-1 $5 #
shell $-1 $-1 $-1 $21 $-1 $7 #
shell $-1 $-1 $-1 $22 $-1 $9 #
shell $-1 $-1 $-1 $23 $-1 $11 #
shell $-1 $-1 $-1 $24 $-1 $13 #
face $-1 $25 $26 $15 $-1 $27 forward single #
face $-1 $28 $29 $16 $-1 $30 reversed single #
face $-1 $31 $32 $17 $-1 $33 forward single #
face $-1 $34 $35 $18 $-1 $36 reversed single #
face $-1 $37 $38 $19 $-1 $39 reversed single #
face $-1 $40 $41 $15 $-1 $42 reversed single #
loop $-1 $-1 $43 $20 #
plane-surface $-1 0 0 20.52132373245518 0 0 1 1 0 0 forward_v I I I I #
face $-1 $44 $45 $16 $-1 $46 reversed single #
loop $-1 $-1 $47 $21 #
plane-surface $-1 -82.264006543943424 -18.673808376401194 0 0 1 0 0 0 1 forward_v I I I I #
face $-1 $48 $49 $17 $-1 $50 forward single #
loop $-1 $-1 $51 $22 #
plane-surface $-1 -25.40456369675772 -31.982154111377561 116.08533173873185 0.73135370988377701 0 0.68199835119979291 0.68199835119979291 0 -0.73135370988377701 forward_v I I I I #
face $-1 $52 $53 $18 $-1 $54 reversed single #
loop $-1 $55 $56 $23 #
cone-surface $-1 65.402936121988702 -36.134024103971385 16.00178935670835 -0.73135370988377701 0 -0.68199835119979291 1.0229975267996894 0 -1.0970305648256655 1 I I 0 1 1.5 forward I I I I #
face $-1 $57 $58 $19 $-1 $59 reversed single #
loop $-1 $60 $61 $24 #
cone-surface $-1 65.402936121988702 -27.830284118783737 16.00178935670835 -0.73135370988377701 0 -0.68199835119979291 1.0229975267996894 0 -1.0970305648256655 1 I I 0 1 1.5 forward I I I I #
face $-1 $62 $63 $15 $-1 $64 reversed single #
loop $-1 $-1 $65 $25 #
plane-surface $-1 0 0 -20.52132373245518 0 0 1 1 0 0 forward_v I I I I #
coedge $-1 $66 $67 $68 $69 forward $26 $-1 #
face $-1 $70 $71 $16 $-1 $72 reversed single #
loop $-1 $-1 $73 $28 #
plane-surface $-1 -94.734623397039343 -15.753776884272764 0 1 0 0 0 0 -1 forward_v I I I I #
coedge $-1 $74 $75 $76 $77 forward $29 $-1 #
face $-1 $78 $79 $17 $-1 $80 reversed single #
loop $-1 $-1 $81 $31 #
plane-surface $-1 76.682745254773238 -22.294457461991975 211.28328512633709 0 -1 0 -0.73135370988377701 0 -0.68199835119979291 forward_v I I I I #
coedge $-1 $82 $83 $84 $85 reversed $32 $-1 #
face $-1 $86 $87 $18 $-1 $88 forward single #
loop $-1 $89 $90 $34 #
cone-surface $-1 63.505505468253858 -36.134024103971385 14.232406690188817 -0.73135370988377701 0 -0.68199835119979291 0.51149876339984468 0 -0.54851528241283276 1 I I -0.70710678118654757 0.70710678118654757 0.75 forward I I I I #
loop $-1 $-1 $91 $23 #
coedge $-1 $56 $56 $92 $93 reversed $35 $-1 #
face $-1 $94 $95 $19 $-1 $96 reversed single #
loop $-1 $97 $98 $37 #
cone-surface $-1 63.505505468253858 -27.830284118783737 14.232406690188817 -0.73135370988377701 0 -0.68199835119979291 0.51149876339984468 0 -0.54851528241283276 1 I I -0.70710678118654757 0.70710678118654757 0.75 forward I I I I #
loop $-1 $-1 $99 $24 #
coedge $-1 $61 $61 $100 $101 reversed $38 $-1 #
face $-1 $102 $103 $15 $-1 $104 reversed single #
loop $-1 $-1 $105 $40 #
plane-surface $-1 0 -41.669850760763147 0 0 1 0 0 0 1 forward_v I I I I #
coedge $-1 $106 $107 $108 $109 forward $41 $-1 #
coedge $-1 $110 $43 $111 $112 forward $26 $-1 #
coedge $-1 $43 $110 $113 $114 forward $26 $-1 #
coedge $-1 $115 $116 $43 $69 reversed $117 $-1 #
edge $-1 $118 -41.669850760763147 $119 41.669850760763147 $68 $120 forward 7 unknown #
face $-1 $121 $122 $16 $-1 $123 reversed single #
loop $-1 $-1 $124 $44 #
plane-surface $-1 -82.264006543943424 -12.833745392144333 0 0 -1 0 0 0 -1 forward_v I I I I #
coedge $-1 $125 $126 $127 $128 forward $45 $-1 #
coedge $-1 $129 $47 $130 $131 reversed $29 $-1 #
coedge $-1 $47 $129 $132 $133 reversed $29 $-1 #
coedge $-1 $126 $125 $47 $77 reversed $45 $-1 #
edge $-1 $134 -20.52132373245518 $135 20.52132373245518 $76 $136 forward 7 unknown #
face $-1 $137 $138 $17 $-1 $139 reversed single #
loop $-1 $-1 $140 $48 #
plane-surface $-1 69.793389690847505 0 0 -1 0 0 0 0 1 forward_v I I I I #
coedge $-1 $141 $142 $140 $143 reversed $49 $-1 #
coedge $-1 $144 $51 $142 $145 reversed $32 $-1 #
coedge $-1 $51 $144 $146 $147 reversed $32 $-1 #
coedge $-1 $148 $140 $51 $85 forward $79 $-1 #
edge $-1 $149 6.3033804063031944 $150 25.678773705074367 $84 $151 forward 7 unknown #
face $-1 $152 $153 $18 $-1 $154 forward single #
loop $-1 $155 $92 $52 #
plane-surface $-1 -25.40456369675772 -31.982154111377561 116.08533173873185 0.73135370988377701 0 0.68199835119979291 0.68199835119979291 0 -0.73135370988377701 forward_v I I I I #
loop $-1 $-1 $156 $34 #
coedge $-1 $90 $90 $91 $157 forward $53 $-1 #
coedge $-1 $91 $91 $90 $157 reversed $55 $-1 #
coedge $-1 $92 $92 $56 $93 forward $87 $-1 #
edge $-1 $158 0 $158 6.2831853071796004 $92 $159 forward 7 unknown #
face $-1 $160 $161 $19 $-1 $162 reversed single #
loop $-1 $163 $164 $57 #
cone-surface $-1 65.402936121988702 -36.134024103971385 16.00178935670835 -0.73135370988377701 0 -0.68199835119979291 1.0229975267996894 0 -1.0970305648256655 1 I I 0 1 1.5 forward I I I I #
loop $-1 $-1 $165 $37 #
coedge $-1 $98 $98 $99 $166 forward $58 $-1 #
coedge $-1 $99 $99 $98 $166 reversed $60 $-1 #
coedge $-1 $100 $100 $61 $101 forward $167 $-1 #
edge $-1 $168 0 $168 6.2831853071796004 $100 $169 forward 7 unknown #
face $-1 $170 $171 $15 $-1 $172 reversed single #
loop $-1 $-1 $173 $62 #
plane-surface $-1 -69.793389690847505 0 0 1 0 0 0 0 -1 forward_v I I I I #
coedge $-1 $174 $113 $175 $176 forward $63 $-1 #
coedge $-1 $177 $65 $174 $178 forward $41 $-1 #
coedge $-1 $65 $177 $179 $180 forward $41 $-1 #
coedge $-1 $116 $115 $65 $109 reversed $117 $-1 #
edge $-1 $181 -41.669850760763147 $182 41.669850760763147 $108 $183 forward 7 unknown #
coedge $-1 $67 $66 $184 $185 forward $26 $-1 #
coedge $-1 $186 $187 $66 $112 reversed $171 $-1 #
edge $-1 $119 -69.793389690847505 $188 69.793389690847505 $111 $189 forward 7 unknown #
coedge $-1 $105 $190 $67 $114 reversed $63 $-1 #
edge $-1 $191 -69.793389690847505 $118 69.793389690847505 $113 $192 forward 7 unknown #
coedge $-1 $108 $68 $190 $193 forward $117 $-1 #
coedge $-1 $68 $108 $186 $194 reversed $117 $-1 #
loop $-1 $-1 $115 $170 #
vertex $-1 $69 $195 #
vertex $-1 $69 $196 #
straight-curve $-1 69.793389690847505 0 20.52132373245518 0 1 0 I I #
face $-1 $197 $198 $16 $-1 $123 reversed single #
loop $-1 $-1 $199 $70 #
plane-surface $-1 -69.793389690847505 0 0 1 0 0 0 0 -1 forward_v I I I I #
coedge $-1 $200 $201 $199 $202 reversed $71 $-1 #
coedge $-1 $76 $73 $203 $204 reversed $45 $-1 #
coedge $-1 $73 $76 $205 $206 reversed $45 $-1 #
coedge $-1 $201 $200 $73 $128 reversed $71 $-1 #
edge $-1 $207 -20.52132373245518 $208 20.52132373245518 $127 $209 forward 7 unknown #
coedge $-1 $75 $74 $210 $211 reversed $29 $-1 #
coedge $-1 $203 $212 $74 $131 forward $213 $-1 #
edge $-1 $214 -12.470616853095919 $135 12.470616853095919 $74 $215 forward 7 unknown #
coedge $-1 $216 $205 $75 $133 forward $217 $-1 #
edge $-1 $134 -12.470616853095919 $218 12.470616853095919 $75 $219 forward 7 unknown #
vertex $-1 $206 $220 #
vertex $-1 $204 $221 #
straight-curve $-1 -94.734623397039343 -18.673808376401194 0 0 0 -1 I I #
face $-1 $222 $223 $17 $-1 $224 reversed single #
loop $-1 $-1 $146 $78 #
plane-surface $-1 0 -41.669850760763147 0 0 1 0 0 0 1 forward_v I I I I #
coedge $-1 $84 $225 $81 $143 forward $79 $-1 #
coedge $-1 $142 $81 $226 $227 reversed $49 $-1 #
coedge $-1 $81 $141 $82 $145 forward $49 $-1 #
edge $-1 $228 85.120318830713359 $149 91.643619775967636 $140 $229 forward 7 unknown #
coedge $-1 $83 $82 $230 $231 reversed $32 $-1 #
edge $-1 $232 130.6672909630324 $149 139.58677938169495 $142 $233 forward 7 unknown #
coedge $-1 $234 $235 $83 $147 forward $138 $-1 #
edge $-1 $150 -88.474125089520271 $236 -79.554636670857704 $146 $237 forward 7 unknown #
coedge $-1 $238 $84 $235 $239 forward $79 $-1 #
vertex $-1 $85 $240 #
vertex $-1 $239 $241 #
straight-curve $-1 69.793389690847505 -15.99107705568878 13.998022787200931 0 -1 0 I I #
face $-1 $242 $243 $18 $-1 $244 reversed single #
loop $-1 $-1 $245 $86 #
plane-surface $-1 76.682745254773238 -22.294457461991975 211.28328512633709 0 -1 0 -0.73135370988377701 0 -0.68199835119979291 forward_v I I I I #
loop $-1 $-1 $246 $52 #
coedge $-1 $156 $156 $-1 $247 forward $89 $-1 #
edge $-1 $248 0 $248 6.2831853071796004 $90 $249 forward 7 unknown #
vertex $-1 $93 $250 #
ellipse-curve $-1 66.751851493310724 -36.134024103971385 17.259673259828048 -0.73135370988377701 0 -0.68199835119979291 1.0229975267996894 0 -1.0970305648256655 1 I I #
face $-1 $251 $167 $19 $-1 $252 forward single #
loop $-1 $253 $254 $94 #
cone-surface $-1 63.505505468253858 -36.134024103971385 14.232406690188817 -0.73135370988377701 0 -0.68199835119979291 0.51149876339984468 0 -0.54851528241283276 1 I I -0.70710678118654757 0.70710678118654757 0.75 forward I I I I #
loop $-1 $-1 $255 $57 #
coedge $-1 $164 $164 $256 $257 reversed $95 $-1 #
coedge $-1 $165 $165 $-1 $258 forward $97 $-1 #
edge $-1 $259 0 $259 6.2831853071796004 $98 $260 forward 7 unknown #
loop $-1 $261 $100 $160 #
vertex $-1 $101 $262 #
ellipse-curve $-1 66.751851493310724 -27.830284118783737 17.259673259828048 -0.73135370988377701 0 -0.68199835119979291 1.0229975267996894 0 -1.0970305648256655 1 I I #
face $-1 $-1 $117 $15 $-1 $263 reversed single #
loop $-1 $-1 $186 $102 #
plane-surface $-1 0 41.669850760763147 0 0 -1 0 0 0 -1 forward_v I I I I #
coedge $-1 $264 $184 $187 $265 forward $103 $-1 #
coedge $-1 $190 $105 $106 $178 reversed $63 $-1 #
coedge $-1 $184 $264 $105 $176 reversed $103 $-1 #
edge $-1 $191 -20.52132373245518 $266 20.52132373245518 $175 $267 forward 7 unknown #
coedge $-1 $107 $106 $264 $268 forward $41 $-1 #
edge $-1 $182 -69.793389690847505 $266 69.793389690847505 $174 $269 forward 7 unknown #
coedge $-1 $187 $186 $107 $180 reversed $171 $-1 #
edge $-1 $270 -69.793389690847505 $181 69.793389690847505 $179 $271 forward 7 unknown #
vertex $-1 $109 $272 #
vertex $-1 $193 $273 #
straight-curve $-1 69.793389690847505 0 -20.52132373245518 0 -1 0 I I #
coedge $-1 $173 $175 $110 $185 reversed $103 $-1 #
edge $-1 $188 -41.669850760763147 $191 41.669850760763147 $184 $274 forward 7 unknown #
coedge $-1 $179 $111 $116 $194 forward $171 $-1 #
coedge $-1 $111 $179 $173 $265 reversed $171 $-1 #
vertex $-1 $112 $275 #
straight-curve $-1 0 41.669850760763147 20.52132373245518 -1 0 0 I I #
coedge $-1 $113 $174 $115 $193 reversed $63 $-1 #
vertex $-1 $185 $276 #
straight-curve $-1 0 -41.669850760763147 20.52132373245518 1 0 0 I I #
edge $-1 $118 -20.52132373245518 $182 20.52132373245518 $115 $277 forward 7 unknown #
edge $-1 $119 -20.52132373245518 $181 20.52132373245518 $116 $278 forward 7 unknown #
point $-1 69.793389690847505 -41.669850760763147 20.52132373245518 #
point $-1 69.793389690847505 41.669850760763147 20.52132373245518 #
face $-1 $279 $217 $16 $-1 $280 forward single #
loop $-1 $-1 $210 $121 #
coedge $-1 $281 $282 $124 $202 forward $122 $-1 #
coedge $-1 $127 $124 $283 $284 reversed $71 $-1 #
coedge $-1 $124 $127 $285 $286 reversed $71 $-1 #
edge $-1 $287 -20.52132373245518 $288 20.52132373245518 $199 $289 forward 7 unknown #
coedge $-1 $283 $130 $125 $204 forward $213 $-1 #
edge $-1 $135 -2.9200314921284303 $208 2.9200314921284303 $125 $290 forward 7 unknown #
coedge $-1 $132 $285 $126 $206 forward $217 $-1 #
edge $-1 $207 -2.9200314921284303 $134 2.9200314921284303 $126 $291 forward 7 unknown #
vertex $-1 $286 $292 #
vertex $-1 $284 $293 #
straight-curve $-1 -94.734623397039343 -12.833745392144333 0 0 0 -1 I I #
coedge $-1 $294 $295 $129 $211 forward $198 $-1 #
edge $-1 $218 -20.52132373245518 $214 20.52132373245518 $210 $296 forward 7 unknown #
coedge $-1 $130 $297 $294 $298 forward $213 $-1 #
loop $-1 $-1 $299 $279 #
vertex $-1 $131 $300 #
straight-curve $-1 -82.264006543943424 -18.673808376401194 -20.52132373245518 -1 0 0 I I #
coedge $-1 $301 $132 $295 $302 forward $217 $-1 #
loop $-1 $-1 $303 $197 #
vertex $-1 $302 $304 #
straight-curve $-1 -82.264006543943424 -18.673808376401194 20.52132373245518 1 0 0 I I #
point $-1 -94.734623397039343 -18.673808376401194 20.52132373245518 #
point $-1 -94.734623397039343 -18.673808376401194 -20.52132373245518 #
face $-1 $305 $306 $17 $-1 $307 reversed single #
loop $-1 $-1 $308 $137 #
plane-surface $-1 -82.264006543943424 -18.673808376401194 0 0 1 0 0 0 1 forward_v I I I I #
coedge $-1 $140 $309 $310 $311 reversed $79 $-1 #
coedge $-1 $310 $230 $141 $227 forward $312 $-1 #
edge $-1 $232 25.368940668387353 $228 31.452017063460886 $226 $313 forward 7 unknown #
vertex $-1 $311 $314 #
straight-curve $-1 69.793389690847505 -22.294457461991975 105.64164256316855 0 0 -1 I I #
coedge $-1 $226 $315 $144 $231 forward $312 $-1 #
edge $-1 $236 -25.678773705074367 $232 -6.3033804063031944 $230 $316 forward 7 unknown #
vertex $-1 $231 $317 #
straight-curve $-1 -25.40456369675772 -22.294457461991975 116.08533173873185 0.68199835119979291 0 -0.73135370988377701 I I #
coedge $-1 $318 $146 $315 $319 reversed $138 $-1 #
coedge $-1 $146 $320 $148 $239 reversed $138 $-1 #
vertex $-1 $231 $321 #
straight-curve $-1 9.4541822559504425 -41.669850760763147 78.703902400142937 -0.68199835119979291 0 0.73135370988377701 I I #
coedge $-1 $309 $148 $322 $323 reversed $79 $-1 #
edge $-1 $150 -13.998022787200927 $324 20.52132373245518 $148 $325 forward 7 unknown #
point $-1 69.793389690847505 -22.294457461991975 13.99802278720091 #
point $-1 69.793389690847505 -41.669850760763147 13.998022787200927 #
face $-1 $326 $327 $18 $-1 $328 reversed single #
loop $-1 $-1 $329 $152 #
plane-surface $-1 69.793389690847505 0 0 -1 0 0 0 0 1 forward_v I I I I #
coedge $-1 $330 $331 $329 $332 reversed $153 $-1 #
coedge $-1 $333 $334 $335 $336 reversed $155 $-1 #
edge $-1 $337 1 $337 0 $156 $-1 forward 7 unknown #
vertex $-1 $157 $338 #
ellipse-curve $-1 64.054020750666695 -36.134024103971385 14.743905453588662 0.73135370988377701 0 0.68199835119979291 1.0229975267996894 0 -1.0970305648256655 1 I I #
point $-1 67.774849020110409 -36.134024103971385 16.162642695002376 #
face $-1 $339 $340 $19 $-1 $341 forward single #
plane-surface $-1 -25.40456369675772 -31.982154111377561 116.08533173873185 0.73135370988377701 0 0.68199835119979291 0.68199835119979291 0 -0.73135370988377701 forward_v I I I I #
loop $-1 $-1 $342 $94 #
coedge $-1 $254 $254 $255 $343 forward $161 $-1 #
coedge $-1 $255 $255 $254 $343 reversed $163 $-1 #
coedge $-1 $256 $256 $164 $257 forward $261 $-1 #
edge $-1 $344 0 $344 6.2831853071796004 $256 $345 forward 7 unknown #
edge $-1 $346 1 $346 0 $165 $-1 forward 7 unknown #
vertex $-1 $166 $347 #
ellipse-curve $-1 64.054020750666695 -27.830284118783737 14.743905453588662 0.73135370988377701 0 0.68199835119979291 1.0229975267996894 0 -1.0970305648256655 1 I I #
loop $-1 $348 $256 $160 #
point $-1 67.774849020110409 -27.830284118783737 16.162642695002376 #
plane-surface $-1 69.793389690847505 0 0 -1 0 0 0 0 1 forward_v I I I I #
coedge $-1 $175 $173 $177 $268 reversed $103 $-1 #
edge $-1 $188 -20.52132373245518 $270 20.52132373245518 $187 $349 forward 7 unknown #
vertex $-1 $268 $350 #
straight-curve $-1 -69.793389690847505 -41.669850760763147 0 0 0 -1 I I #
edge $-1 $266 -41.669850760763147 $270 41.669850760763147 $264 $351 forward 7 unknown #
straight-curve $-1 0 -41.669850760763147 -20.52132373245518 -1 0 0 I I #
vertex $-1 $180 $352 #
straight-curve $-1 0 41.669850760763147 -20.52132373245518 1 0 0 I I #
point $-1 69.793389690847505 41.669850760763147 -20.52132373245518 #
point $-1 69.793389690847505 -41.669850760763147 -20.52132373245518 #
straight-curve $-1 -69.793389690847505 0 20.52132373245518 0 -1 0 I I #
point $-1 -69.793389690847505 41.669850760763147 20.52132373245518 #
point $-1 -69.793389690847505 -41.669850760763147 20.52132373245518 #
straight-curve $-1 69.793389690847505 -41.669850760763147 0 0 0 -1 I I #
straight-curve $-1 69.793389690847505 41.669850760763147 0 0 0 -1 I I #
face $-1 $353 $213 $16 $-1 $354 reversed single #
plane-surface $-1 0 0 20.52132373245518 0 0 1 1 0 0 forward_v I I I I #
coedge $-1 $355 $199 $356 $357 reversed $122 $-1 #
coedge $-1 $199 $355 $358 $359 reversed $122 $-1 #
coedge $-1 $358 $203 $200 $284 forward $213 $-1 #
edge $-1 $208 -12.470616853095919 $287 12.470616853095919 $200 $360 forward 7 unknown #
coedge $-1 $205 $356 $201 $286 forward $217 $-1 #
edge $-1 $288 -12.470616853095919 $207 12.470616853095919 $201 $361 forward 7 unknown #
vertex $-1 $359 $362 #
vertex $-1 $286 $363 #
straight-curve $-1 -69.793389690847505 -12.833745392144333 0 0 0 1 I I #
straight-curve $-1 -94.734623397039343 -15.753776884272764 -20.52132373245518 0 1 0 I I #
straight-curve $-1 -94.734623397039343 -15.753776884272764 20.52132373245518 0 -1 0 I I #
point $-1 -94.734623397039343 -12.833745392144333 20.52132373245518 #
point $-1 -94.734623397039343 -12.833745392144333 -20.52132373245518 #
coedge $-1 $364 $210 $212 $298 reversed $198 $-1 #
coedge $-1 $210 $364 $216 $302 reversed $198 $-1 #
straight-curve $-1 -69.793389690847505 -18.673808376401194 0 0 0 -1 I I #
coedge $-1 $212 $299 $365 $366 forward $213 $-1 #
edge $-1 $367 -41.669850760763147 $214 -18.673808376401194 $294 $368 forward 7 unknown #
coedge $-1 $297 $369 $370 $371 forward $213 $-1 #
point $-1 -69.793389690847505 -18.673808376401194 -20.52132373245518 #
coedge $-1 $303 $216 $372 $373 forward $217 $-1 #
edge $-1 $218 18.673808376401194 $374 41.669850760763147 $295 $375 forward 7 unknown #
coedge $-1 $376 $301 $377 $378 forward $217 $-1 #
point $-1 -69.793389690847505 -18.673808376401194 20.52132373245518 #
face $-1 $379 $380 $17 $-1 $381 reversed single #
loop $-1 $-1 $382 $222 #
plane-surface $-1 -94.734623397039343 -15.753776884272764 0 1 0 0 0 0 -1 forward_v I I I I #
coedge $-1 $383 $384 $385 $386 forward $223 $-1 #
coedge $-1 $225 $238 $387 $388 reversed $79 $-1 #
coedge $-1 $389 $226 $225 $311 forward $312 $-1 #
edge $-1 $228 -22.294457461991975 $390 41.669850760763147 $225 $391 forward 7 unknown #
loop $-1 $-1 $226 $392 #
straight-curve $-1 38.341372627386619 -22.294457461991975 20.521323732455187 1 0 0 I I #
point $-1 69.793389690847505 -22.294457461991975 20.52132373245518 #
coedge $-1 $230 $393 $234 $319 forward $312 $-1 #
straight-curve $-1 63.710313295773972 -15.99107705568878 20.52132373245518 0 1 0 I I #
point $-1 63.710313295773972 -22.294457461991975 20.521323732455173 #
coedge $-1 $320 $234 $394 $395 forward $138 $-1 #
edge $-1 $396 -69.793389690847505 $236 63.710313295773972 $234 $397 forward 7 unknown #
coedge $-1 $235 $318 $398 $399 reversed $138 $-1 #
point $-1 63.710313295773972 -41.669850760763147 20.521323732455173 #
coedge $-1 $398 $400 $238 $323 forward $401 $-1 #
edge $-1 $402 -41.669850760763147 $324 41.669850760763147 $238 $403 forward 7 unknown #
vertex $-1 $239 $404 #
straight-curve $-1 69.793389690847505 -41.669850760763147 0 0 0 -1 I I #
face $-1 $405 $406 $18 $-1 $407 reversed single #
loop $-1 $-1 $408 $242 #
plane-surface $-1 0 -41.669850760763147 0 0 1 0 0 0 1 forward_v I I I I #
coedge $-1 $335 $409 $245 $332 forward $243 $-1 #
coedge $-1 $331 $245 $410 $411 reversed $153 $-1 #
coedge $-1 $245 $330 $333 $412 forward $153 $-1 #
edge $-1 $413 85.120318830713359 $414 91.643619775967636 $329 $415 forward 7 unknown #
coedge $-1 $416 $246 $331 $412 reversed $155 $-1 #
coedge $-1 $246 $416 $408 $417 reversed $155 $-1 #
coedge $-1 $418 $329 $246 $336 forward $243 $-1 #
edge $-1 $414 6.3033804063031944 $419 25.678773705074367 $335 $420 forward 7 unknown #
vertex $-1 $247 $421 #
point $-1 65.077018277466379 -36.134024103971385 13.646874888762996 #
face $-1 $422 $423 $19 $-1 $424 reversed single #
loop $-1 $-1 $425 $251 #
plane-surface $-1 76.682745254773238 -22.294457461991975 211.28328512633709 0 -1 0 -0.73135370988377701 0 -0.68199835119979291 forward_v I I I I #
coedge $-1 $342 $342 $-1 $426 forward $253 $-1 #
edge $-1 $427 0 $427 6.2831853071796004 $254 $428 forward 7 unknown #
vertex $-1 $257 $429 #
ellipse-curve $-1 66.751851493310724 -36.134024103971385 17.259673259828048 -0.73135370988377701 0 -0.68199835119979291 1.0229975267996894 0 -1.0970305648256655 1 I I #
vertex $-1 $258 $430 #
point $-1 65.077018277466379 -27.830284118783737 13.646874888762996 #
loop $-1 $-1 $431 $160 #
straight-curve $-1 -69.793389690847505 41.669850760763147 0 0 0 -1 I I #
point $-1 -69.793389690847505 -41.669850760763147 -20.52132373245518 #
straight-curve $-1 -69.793389690847505 0 -20.52132373245518 0 1 0 I I #
point $-1 -69.793389690847505 41.669850760763147 -20.52132373245518 #
face $-1 $432 $433 $16 $-1 $434 reversed single #
plane-surface $-1 0 0 -20.52132373245518 0 0 1 1 0 0 forward_v I I I I #
coedge $-1 $282 $281 $435 $436 forward $122 $-1 #
coedge $-1 $285 $376 $281 $357 forward $217 $-1 #
edge $-1 $437 -41.669850760763147 $288 12.833745392144333 $281 $375 forward 7 unknown #
coedge $-1 $369 $283 $282 $359 forward $213 $-1 #
edge $-1 $287 -12.833745392144333 $438 41.669850760763147 $282 $368 forward 7 unknown #
straight-curve $-1 -82.264006543943424 -12.833745392144333 -20.52132373245518 1 0 0 I I #
straight-curve $-1 -82.264006543943424 -12.833745392144333 20.52132373245518 -1 0 0 I I #
point $-1 -69.793389690847505 -12.833745392144333 -20.52132373245518 #
point $-1 -69.793389690847505 -12.833745392144333 20.52132373245518 #
coedge $-1 $295 $294 $439 $440 reversed $198 $-1 #
coedge $-1 $441 $439 $297 $366 reversed $433 $-1 #
edge $-1 $442 -69.793389690847505 $367 69.793389690847505 $365 $443 forward 7 unknown #
vertex $-1 $298 $444 #
straight-curve $-1 -69.793389690847505 0 -20.52132373245518 0 1 0 I I #
coedge $-1 $299 $358 $445 $446 forward $213 $-1 #
coedge $-1 $447 $448 $299 $371 reversed $449 $-1 #
edge $-1 $450 -41.669850760763147 $442 41.669850760763147 $370 $451 forward 7 unknown #
coedge $-1 $439 $441 $301 $373 reversed $433 $-1 #
edge $-1 $374 -69.793389690847505 $452 69.793389690847505 $372 $453 forward 7 unknown #
vertex $-1 $302 $454 #
straight-curve $-1 -69.793389690847505 0 20.52132373245518 0 -1 0 I I #
coedge $-1 $356 $303 $455 $456 forward $217 $-1 #
coedge $-1 $448 $447 $303 $378 reversed $449 $-1 #
edge $-1 $452 -41.669850760763147 $457 41.669850760763147 $377 $458 forward 7 unknown #
face $-1 $459 $460 $17 $-1 $461 reversed single #
loop $-1 $-1 $462 $305 #
plane-surface $-1 -82.264006543943424 -12.833745392144333 0 0 -1 0 0 0 -1 forward_v I I I I #
coedge $-1 $463 $464 $465 $466 forward $306 $-1 #
coedge $-1 $467 $308 $468 $469 reversed $223 $-1 #
coedge $-1 $308 $467 $470 $471 reversed $223 $-1 #
coedge $-1 $464 $463 $308 $386 reversed $306 $-1 #
edge $-1 $472 -20.52132373245518 $473 20.52132373245518 $385 $474 forward 7 unknown #
coedge $-1 $475 $476 $309 $388 forward $477 $-1 #
edge $-1 $390 -20.52132373245518 $402 20.52132373245518 $309 $478 forward 7 unknown #
coedge $-1 $479 $310 $476 $480 forward $312 $-1 #
vertex $-1 $311 $481 #
straight-curve $-1 69.793389690847505 0 20.52132373245518 0 1 0 I I #
face $-1 $482 $312 $17 $-1 $483 forward single #
coedge $-1 $315 $470 $484 $485 forward $312 $-1 #
coedge $-1 $484 $486 $318 $395 reversed $487 $-1 #
edge $-1 $396 -20.52132373245518 $488 20.52132373245518 $394 $489 forward 7 unknown #
vertex $-1 $485 $490 #
straight-curve $-1 0 -41.669850760763147 20.52132373245518 1 0 0 I I #
coedge $-1 $491 $322 $320 $399 forward $401 $-1 #
edge $-1 $324 -69.793389690847505 $488 69.793389690847505 $320 $492 forward 7 unknown #
coedge $-1 $322 $493 $475 $494 forward $401 $-1 #
loop $-1 $-1 $322 $482 #
vertex $-1 $323 $495 #
straight-curve $-1 69.793389690847505 0 -20.52132373245518 0 -1 0 I I #
point $-1 69.793389690847505 -41.669850760763147 -20.52132373245518 #
face $-1 $496 $497 $18 $-1 $498 reversed single #
loop $-1 $-1 $499 $326 #
plane-surface $-1 -82.264006543943424 -18.673808376401194 0 0 1 0 0 0 1 forward_v I I I I #
coedge $-1 $500 $501 $334 $417 forward $327 $-1 #
coedge $-1 $329 $502 $503 $504 reversed $243 $-1 #
coedge $-1 $503 $505 $330 $411 forward $506 $-1 #
edge $-1 $507 25.368940668387353 $413 31.452017063460886 $410 $508 forward 7 unknown #
edge $-1 $507 130.6672909630324 $414 139.58677938169495 $331 $509 forward 7 unknown #
vertex $-1 $504 $510 #
vertex $-1 $336 $511 #
straight-curve $-1 69.793389690847505 -22.294457461991975 105.64164256316855 0 0 -1 I I #
coedge $-1 $334 $333 $505 $512 reversed $155 $-1 #
edge $-1 $419 -88.474125089520271 $513 -79.554636670857704 $408 $514 forward 7 unknown #
coedge $-1 $515 $335 $501 $516 forward $243 $-1 #
vertex $-1 $516 $517 #
straight-curve $-1 69.793389690847505 -15.99107705568878 13.998022787200931 0 -1 0 I I #
point $-1 62.956990185841022 -36.134024103971385 13.720907926788973 #
face $-1 $518 $519 $19 $-1 $520 reversed single #
loop $-1 $-1 $521 $339 #
plane-surface $-1 69.793389690847505 0 0 -1 0 0 0 0 1 forward_v I I I I #
coedge $-1 $522 $523 $521 $524 reversed $340 $-1 #
edge $-1 $525 1 $525 0 $342 $-1 forward 7 unknown #
vertex $-1 $343 $526 #
ellipse-curve $-1 64.054020750666695 -36.134024103971385 14.743905453588662 0.73135370988377701 0 0.68199835119979291 1.0229975267996894 0 -1.0970305648256655 1 I I #
point $-1 67.774849020110409 -36.134024103971385 16.162642695002376 #
point $-1 62.956990185841022 -27.830284118783737 13.720907926788973 #
coedge $-1 $527 $528 $529 $530 reversed $348 $-1 #
face $-1 $531 $532 $16 $-1 $533 reversed single #
loop $-1 $-1 $439 $353 #
plane-surface $-1 0 -41.669850760763147 0 0 1 0 0 0 1 forward_v I I I I #
coedge $-1 $455 $445 $355 $436 reversed $532 $-1 #
edge $-1 $437 -20.52132373245518 $438 20.52132373245518 $435 $534 forward 7 unknown #
vertex $-1 $456 $535 #
vertex $-1 $446 $536 #
coedge $-1 $365 $372 $364 $440 forward $433 $-1 #
edge $-1 $374 -20.52132373245518 $367 20.52132373245518 $364 $537 forward 7 unknown #
coedge $-1 $372 $365 $448 $538 reversed $433 $-1 #
vertex $-1 $538 $539 #
straight-curve $-1 0 -41.669850760763147 -20.52132373245518 -1 0 0 I I #
point $-1 -69.793389690847505 -41.669850760763147 -20.52132373245518 #
coedge $-1 $435 $540 $369 $446 reversed $532 $-1 #
edge $-1 $438 -69.793389690847505 $450 69.793389690847505 $445 $541 forward 7 unknown #
coedge $-1 $377 $370 $540 $542 reversed $449 $-1 #
coedge $-1 $370 $377 $441 $538 forward $449 $-1 #
loop $-1 $-1 $448 $531 #
vertex $-1 $371 $543 #
straight-curve $-1 69.793389690847505 0 -20.52132373245518 0 -1 0 I I #
vertex $-1 $378 $544 #
straight-curve $-1 0 -41.669850760763147 20.52132373245518 1 0 0 I I #
point $-1 -69.793389690847505 -41.669850760763147 20.52132373245518 #
coedge $-1 $540 $435 $376 $456 reversed $532 $-1 #
edge $-1 $457 -69.793389690847505 $437 69.793389690847505 $455 $545 forward 7 unknown #
vertex $-1 $378 $546 #
straight-curve $-1 69.793389690847505 0 20.52132373245518 0 1 0 I I #
face $-1 $392 $487 $17 $-1 $461 reversed single #
loop $-1 $-1 $547 $379 #
plane-surface $-1 -69.793389690847505 0 0 1 0 0 0 0 -1 forward_v I I I I #
coedge $-1 $548 $549 $547 $550 reversed $380 $-1 #
coedge $-1 $385 $382 $551 $552 reversed $306 $-1 #
coedge $-1 $382 $385 $553 $554 reversed $306 $-1 #
coedge $-1 $549 $548 $382 $466 reversed $380 $-1 #
edge $-1 $555 -20.52132373245518 $556 20.52132373245518 $465 $557 forward 7 unknown #
coedge $-1 $384 $383 $558 $559 reversed $223 $-1 #
coedge $-1 $551 $491 $383 $469 forward $401 $-1 #
edge $-1 $560 -12.470616853095919 $473 12.470616853095919 $383 $561 forward 7 unknown #
coedge $-1 $393 $553 $384 $471 forward $312 $-1 #
edge $-1 $472 -12.470616853095919 $562 12.470616853095919 $384 $563 forward 7 unknown #
vertex $-1 $554 $564 #
vertex $-1 $552 $565 #
straight-curve $-1 -94.734623397039343 -18.673808376401194 0 0 0 -1 I I #
coedge $-1 $566 $387 $400 $494 reversed $477 $-1 #
coedge $-1 $387 $566 $389 $480 reversed $477 $-1 #
loop $-1 $-1 $387 $567 #
straight-curve $-1 69.793389690847505 41.669850760763147 0 0 0 -1 I I #
coedge $-1 $568 $389 $569 $570 forward $312 $-1 #
edge $-1 $390 -69.793389690847505 $571 69.793389690847505 $476 $572 forward 7 unknown #
point $-1 69.793389690847505 41.669850760763147 20.52132373245518 #
face $-1 $567 $401 $17 $-1 $573 reversed single #
plane-surface $-1 0 0 20.52132373245518 0 0 1 1 0 0 forward_v I I I I #
coedge $-1 $558 $394 $393 $485 reversed $487 $-1 #
edge $-1 $562 18.673808376401194 $396 41.669850760763147 $484 $574 forward 7 unknown #
coedge $-1 $394 $558 $491 $575 reversed $487 $-1 #
loop $-1 $-1 $558 $459 #
vertex $-1 $575 $576 #
straight-curve $-1 -69.793389690847505 -41.669850760763147 0 0 0 -1 I I #
point $-1 -69.793389690847505 -41.669850760763147 20.52132373245518 #
coedge $-1 $468 $398 $486 $575 forward $401 $-1 #
straight-curve $-1 0 -41.669850760763147 -20.52132373245518 -1 0 0 I I #
coedge $-1 $400 $577 $578 $579 forward $401 $-1 #
edge $-1 $580 -69.793389690847505 $402 69.793389690847505 $475 $581 forward 7 unknown #
point $-1 69.793389690847505 41.669850760763147 -20.52132373245518 #
face $-1 $582 $583 $18 $-1 $584 reversed single #
loop $-1 $-1 $585 $405 #
plane-surface $-1 -94.734623397039343 -15.753776884272764 0 1 0 0 0 0 -1 forward_v I I I I #
coedge $-1 $586 $587 $588 $589 forward $406 $-1 #
coedge $-1 $590 $408 $591 $592 reversed $327 $-1 #
coedge $-1 $408 $593 $418 $516 reversed $327 $-1 #
coedge $-1 $409 $515 $594 $595 reversed $243 $-1 #
coedge $-1 $596 $410 $409 $504 forward $506 $-1 #
edge $-1 $413 -22.294457461991975 $597 41.669850760763147 $409 $598 forward 7 unknown #
coedge $-1 $410 $591 $416 $512 forward $506 $-1 #
loop $-1 $-1 $410 $599 #
vertex $-1 $512 $600 #
straight-curve $-1 38.341372627386619 -22.294457461991975 20.521323732455187 1 0 0 I I #
straight-curve $-1 -25.40456369675772 -22.294457461991975 116.08533173873185 0.68199835119979291 0 -0.73135370988377701 I I #
point $-1 69.793389690847505 -22.294457461991975 20.52132373245518 #
point $-1 69.793389690847505 -22.294457461991975 13.99802278720091 #
edge $-1 $513 -25.678773705074367 $507 -6.3033804063031944 $505 $601 forward 7 unknown #
vertex $-1 $512 $602 #
straight-curve $-1 9.4541822559504425 -41.669850760763147 78.703902400142937 -0.68199835119979291 0 0.73135370988377701 I I #
coedge $-1 $502 $418 $603 $604 reversed $243 $-1 #
edge $-1 $419 -13.998022787200927 $605 20.52132373245518 $418 $606 forward 7 unknown #
point $-1 69.793389690847505 -41.669850760763147 13.998022787200927 #
face $-1 $607 $608 $19 $-1 $609 reversed single #
loop $-1 $-1 $610 $422 #
plane-surface $-1 0 -41.669850760763147 0 0 1 0 0 0 1 forward_v I I I I #
coedge $-1 $529 $611 $425 $524 forward $423 $-1 #
coedge $-1 $523 $425 $612 $613 reversed $340 $-1 #
coedge $-1 $425 $522 $527 $614 forward $340 $-1 #
edge $-1 $615 85.120318830713359 $616 91.643619775967636 $521 $617 forward 7 unknown #
vertex $-1 $426 $618 #
point $-1 65.077018277466379 -36.134024103971385 13.646874888762996 #
coedge $-1 $619 $431 $523 $614 reversed $348 $-1 #
coedge $-1 $431 $619 $610 $620 reversed $348 $-1 #
coedge $-1 $621 $521 $431 $530 forward $423 $-1 #
edge $-1 $616 6.3033804063031944 $622 25.678773705074367 $529 $623 forward 7 unknown #
face $-1 $-1 $449 $16 $-1 $624 reversed single #
loop $-1 $-1 $540 $432 #
plane-surface $-1 0 41.669850760763147 0 0 -1 0 0 0 -1 forward_v I I I I #
straight-curve $-1 -69.793389690847505 41.669850760763147 0 0 0 -1 I I #
point $-1 -69.793389690847505 41.669850760763147 20.52132373245518 #
point $-1 -69.793389690847505 41.669850760763147 -20.52132373245518 #
straight-curve $-1 -69.793389690847505 -41.669850760763147 0 0 0 -1 I I #
edge $-1 $452 -20.52132373245518 $442 20.52132373245518 $448 $625 forward 7 unknown #
point $-1 69.793389690847505 -41.669850760763147 -20.52132373245518 #
coedge $-1 $445 $455 $447 $542 forward $532 $-1 #
straight-curve $-1 0 41.669850760763147 -20.52132373245518 1 0 0 I I #
edge $-1 $457 -20.52132373245518 $450 20.52132373245518 $447 $626 forward 7 unknown #
point $-1 69.793389690847505 41.669850760763147 -20.52132373245518 #
point $-1 69.793389690847505 -41.669850760763147 20.52132373245518 #
straight-curve $-1 0 41.669850760763147 20.52132373245518 -1 0 0 I I #
point $-1 69.793389690847505 41.669850760763147 20.52132373245518 #
coedge $-1 $569 $578 $462 $550 forward $460 $-1 #
coedge $-1 $465 $462 $577 $627 reversed $380 $-1 #
coedge $-1 $462 $465 $568 $628 reversed $380 $-1 #
edge $-1 $629 -20.52132373245518 $630 20.52132373245518 $547 $631 forward 7 unknown #
coedge $-1 $577 $468 $463 $552 forward $401 $-1 #
edge $-1 $473 -2.9200314921284303 $556 2.9200314921284303 $463 $632 forward 7 unknown #
coedge $-1 $470 $568 $464 $554 forward $312 $-1 #
edge $-1 $555 -2.9200314921284303 $472 2.9200314921284303 $464 $633 forward 7 unknown #
vertex $-1 $628 $634 #
vertex $-1 $627 $635 #
straight-curve $-1 -94.734623397039343 -12.833745392144333 0 0 0 -1 I I #
coedge $-1 $486 $484 $467 $559 forward $487 $-1 #
edge $-1 $562 -20.52132373245518 $560 20.52132373245518 $558 $636 forward 7 unknown #
vertex $-1 $469 $637 #
straight-curve $-1 -82.264006543943424 -18.673808376401194 -20.52132373245518 -1 0 0 I I #
vertex $-1 $485 $638 #
straight-curve $-1 -82.264006543943424 -18.673808376401194 20.52132373245518 1 0 0 I I #
point $-1 -94.734623397039343 -18.673808376401194 20.52132373245518 #
point $-1 -94.734623397039343 -18.673808376401194 -20.52132373245518 #
coedge $-1 $476 $475 $639 $640 reversed $477 $-1 #
face $-1 $-1 $477 $17 $-1 $641 reversed single #
coedge $-1 $553 $479 $549 $628 forward $312 $-1 #
coedge $-1 $639 $547 $479 $570 reversed $460 $-1 #
edge $-1 $571 -41.669850760763147 $630 12.833745392144333 $569 $574 forward 7 unknown #
vertex $-1 $480 $642 #
straight-curve $-1 0 41.669850760763147 20.52132373245518 -1 0 0 I I #
plane-surface $-1 0 0 -20.52132373245518 0 0 1 1 0 0 forward_v I I I I #
straight-curve $-1 -69.793389690847505 0 20.52132373245518 0 -1 0 I I #
edge $-1 $488 -41.669850760763147 $560 -18.673808376401194 $486 $643 forward 7 unknown #
point $-1 -69.793389690847505 -41.669850760763147 -20.52132373245518 #
coedge $-1 $493 $551 $548 $627 forward $401 $-1 #
coedge $-1 $547 $639 $493 $579 reversed $460 $-1 #
edge $-1 $629 -12.833745392144333 $580 41.669850760763147 $578 $643 forward 7 unknown #
vertex $-1 $494 $644 #
straight-curve $-1 0 41.669850760763147 -20.52132373245518 1 0 0 I I #
face $-1 $645 $646 $18 $-1 $647 reversed single #
loop $-1 $-1 $648 $496 #
plane-surface $-1 -82.264006543943424 -12.833745392144333 0 0 -1 0 0 0 -1 forward_v I I I I #
coedge $-1 $649 $650 $651 $652 forward $497 $-1 #
coedge $-1 $653 $499 $654 $655 reversed $406 $-1 #
coedge $-1 $499 $653 $656 $657 reversed $406 $-1 #
coedge $-1 $650 $649 $499 $589 reversed $497 $-1 #
edge $-1 $658 -20.52132373245518 $659 20.52132373245518 $588 $660 forward 7 unknown #
coedge $-1 $593 $500 $661 $662 forward $327 $-1 #
coedge $-1 $505 $663 $500 $592 forward $506 $-1 #
edge $-1 $664 -69.793389690847505 $513 63.710313295773972 $500 $665 forward 7 unknown #
coedge $-1 $501 $590 $666 $667 reversed $327 $-1 #
coedge $-1 $668 $669 $502 $595 forward $670 $-1 #
edge $-1 $597 -20.52132373245518 $671 20.52132373245518 $502 $672 forward 7 unknown #
coedge $-1 $673 $503 $669 $674 forward $506 $-1 #
vertex $-1 $504 $675 #
straight-curve $-1 69.793389690847505 0 20.52132373245518 0 1 0 I I #
face $-1 $676 $506 $18 $-1 $677 forward single #
point $-1 63.710313295773972 -22.294457461991975 20.521323732455173 #
straight-curve $-1 63.710313295773972 -15.99107705568878 20.52132373245518 0 1 0 I I #
point $-1 63.710313295773972 -41.669850760763147 20.521323732455173 #
coedge $-1 $666 $678 $515 $604 forward $679 $-1 #
edge $-1 $671 -41.669850760763147 $605 41.669850760763147 $515 $680 forward 7 unknown #
vertex $-1 $516 $681 #
straight-curve $-1 69.793389690847505 -41.669850760763147 0 0 0 -1 I I #
face $-1 $682 $683 $19 $-1 $684 reversed single #
loop $-1 $-1 $685 $518 #
plane-surface $-1 -82.264006543943424 -18.673808376401194 0 0 1 0 0 0 1 forward_v I I I I #
coedge $-1 $686 $687 $528 $620 forward $519 $-1 #
coedge $-1 $521 $688 $689 $690 reversed $423 $-1 #
coedge $-1 $689 $691 $522 $613 forward $692 $-1 #
edge $-1 $693 25.368940668387353 $615 31.452017063460886 $612 $694 forward 7 unknown #
edge $-1 $693 130.6672909630324 $616 139.58677938169495 $523 $695 forward 7 unknown #
vertex $-1 $690 $696 #
vertex $-1 $530 $697 #
straight-curve $-1 69.793389690847505 -22.294457461991975 105.64164256316855 0 0 -1 I I #
point $-1 62.956990185841022 -36.134024103971385 13.720907926788973 #
coedge $-1 $528 $527 $691 $698 reversed $348 $-1 #
edge $-1 $622 -88.474125089520271 $699 -79.554636670857704 $610 $700 forward 7 unknown #
coedge $-1 $701 $529 $687 $702 forward $423 $-1 #
vertex $-1 $702 $703 #
straight-curve $-1 69.793389690847505 -15.99107705568878 13.998022787200931 0 -1 0 I I #
plane-surface $-1 69.793389690847505 0 0 -1 0 0 0 0 1 forward_v I I I I #
straight-curve $-1 69.793389690847505 -41.669850760763147 0 0 0 -1 I I #
straight-curve $-1 69.793389690847505 41.669850760763147 0 0 0 -1 I I #
edge $-1 $556 -12.470616853095919 $629 12.470616853095919 $548 $704 forward 7 unknown #
edge $-1 $630 -12.470616853095919 $555 12.470616853095919 $549 $705 forward 7 unknown #
vertex $-1 $579 $706 #
vertex $-1 $628 $707 #
straight-curve $-1 -69.793389690847505 -12.833745392144333 0 0 0 1 I I #
straight-curve $-1 -94.734623397039343 -15.753776884272764 -20.52132373245518 0 1 0 I I #
straight-curve $-1 -94.734623397039343 -15.753776884272764 20.52132373245518 0 -1 0 I I #
point $-1 -94.734623397039343 -12.833745392144333 20.52132373245518 #
point $-1 -94.734623397039343 -12.833745392144333 -20.52132373245518 #
straight-curve $-1 -69.793389690847505 -18.673808376401194 0 0 0 -1 I I #
point $-1 -69.793389690847505 -18.673808376401194 -20.52132373245518 #
point $-1 -69.793389690847505 -18.673808376401194 20.52132373245518 #
coedge $-1 $578 $569 $566 $640 forward $460 $-1 #
edge $-1 $571 -20.52132373245518 $580 20.52132373245518 $566 $708 forward 7 unknown #
plane-surface $-1 0 41.669850760763147 0 0 -1 0 0 0 -1 forward_v I I I I #
point $-1 -69.793389690847505 41.669850760763147 20.52132373245518 #
straight-curve $-1 -69.793389690847505 0 -20.52132373245518 0 1 0 I I #
point $-1 -69.793389690847505 41.669850760763147 -20.52132373245518 #
face $-1 $599 $709 $18 $-1 $647 reversed single #
loop $-1 $-1 $710 $582 #
plane-surface $-1 -69.793389690847505 0 0 1 0 0 0 0 -1 forward_v I I I I #
coedge $-1 $711 $712 $710 $713 reversed $583 $-1 #
coedge $-1 $588 $585 $714 $715 reversed $497 $-1 #
coedge $-1 $585 $588 $716 $717 reversed $497 $-1 #
coedge $-1 $712 $711 $585 $652 reversed $583 $-1 #
edge $-1 $718 -20.52132373245518 $719 20.52132373245518 $651 $720 forward 7 unknown #
coedge $-1 $587 $586 $721 $722 reversed $406 $-1 #
coedge $-1 $714 $723 $586 $655 forward $679 $-1 #
edge $-1 $724 -12.470616853095919 $659 12.470616853095919 $586 $725 forward 7 unknown #
coedge $-1 $663 $716 $587 $657 forward $506 $-1 #
edge $-1 $658 -12.470616853095919 $726 12.470616853095919 $587 $727 forward 7 unknown #
vertex $-1 $717 $728 #
vertex $-1 $715 $729 #
straight-curve $-1 -94.734623397039343 -18.673808376401194 0 0 0 -1 I I #
coedge $-1 $730 $731 $590 $662 reversed $709 $-1 #
edge $-1 $664 -20.52132373245518 $732 20.52132373245518 $661 $733 forward 7 unknown #
coedge $-1 $591 $656 $730 $734 forward $506 $-1 #
vertex $-1 $734 $735 #
straight-curve $-1 0 -41.669850760763147 20.52132373245518 1 0 0 I I #
coedge $-1 $723 $603 $593 $667 forward $679 $-1 #
edge $-1 $605 -69.793389690847505 $732 69.793389690847505 $593 $736 forward 7 unknown #
coedge $-1 $737 $594 $678 $738 reversed $670 $-1 #
coedge $-1 $594 $737 $596 $674 reversed $670 $-1 #
loop $-1 $-1 $594 $739 #
vertex $-1 $604 $740 #
straight-curve $-1 69.793389690847505 41.669850760763147 0 0 0 -1 I I #
coedge $-1 $741 $596 $742 $743 forward $506 $-1 #
edge $-1 $597 -69.793389690847505 $744 69.793389690847505 $669 $745 forward 7 unknown #
point $-1 69.793389690847505 41.669850760763147 20.52132373245518 #
face $-1 $739 $679 $18 $-1 $746 reversed single #
plane-surface $-1 0 0 20.52132373245518 0 0 1 1 0 0 forward_v I I I I #
coedge $-1 $603 $747 $668 $738 forward $679 $-1 #
loop $-1 $-1 $603 $676 #
straight-curve $-1 69.793389690847505 0 -20.52132373245518 0 -1 0 I I #
point $-1 69.793389690847505 -41.669850760763147 -20.52132373245518 #
face $-1 $748 $749 $19 $-1 $750 reversed single #
loop $-1 $-1 $751 $607 #
plane-surface $-1 -94.734623397039343 -15.753776884272764 0 1 0 0 0 0 -1 forward_v I I I I #
coedge $-1 $752 $753 $754 $755 forward $608 $-1 #
coedge $-1 $756 $610 $757 $758 reversed $519 $-1 #
coedge $-1 $610 $759 $621 $702 reversed $519 $-1 #
coedge $-1 $611 $701 $760 $761 reversed $423 $-1 #
coedge $-1 $762 $612 $611 $690 forward $692 $-1 #
edge $-1 $615 -22.294457461991975 $763 41.669850760763147 $611 $764 forward 7 unknown #
coedge $-1 $612 $757 $619 $698 forward $692 $-1 #
loop $-1 $-1 $612 $765 #
vertex $-1 $698 $766 #
straight-curve $-1 38.341372627386619 -22.294457461991975 20.521323732455187 1 0 0 I I #
straight-curve $-1 -25.40456369675772 -22.294457461991975 116.08533173873185 0.68199835119979291 0 -0.73135370988377701 I I #
point $-1 69.793389690847505 -22.294457461991975 20.52132373245518 #
point $-1 69.793389690847505 -22.294457461991975 13.99802278720091 #
edge $-1 $699 -25.678773705074367 $693 -6.3033804063031944 $691 $767 forward 7 unknown #
vertex $-1 $698 $768 #
straight-curve $-1 9.4541822559504425 -41.669850760763147 78.703902400142937 -0.68199835119979291 0 0.73135370988377701 I I #
coedge $-1 $688 $621 $769 $770 reversed $423 $-1 #
edge $-1 $622 -13.998022787200927 $771 20.52132373245518 $621 $772 forward 7 unknown #
point $-1 69.793389690847505 -41.669850760763147 13.998022787200927 #
straight-curve $-1 -82.264006543943424 -12.833745392144333 -20.52132373245518 1 0 0 I I #
straight-curve $-1 -82.264006543943424 -12.833745392144333 20.52132373245518 -1 0 0 I I #
point $-1 -69.793389690847505 -12.833745392144333 -20.52132373245518 #
point $-1 -69.793389690847505 -12.833745392144333 20.52132373245518 #
straight-curve $-1 -69.793389690847505 41.669850760763147 0 0 0 -1 I I #
loop $-1 $-1 $721 $645 #
coedge $-1 $742 $773 $648 $713 forward $646 $-1 #
coedge $-1 $651 $648 $774 $775 reversed $583 $-1 #
coedge $-1 $648 $651 $741 $776 reversed $583 $-1 #
edge $-1 $777 -20.52132373245518 $778 20.52132373245518 $710 $779 forward 7 unknown #
coedge $-1 $774 $654 $649 $715 forward $679 $-1 #
edge $-1 $659 -2.9200314921284303 $719 2.9200314921284303 $649 $780 forward 7 unknown #
coedge $-1 $656 $741 $650 $717 forward $506 $-1 #
edge $-1 $718 -2.9200314921284303 $658 2.9200314921284303 $650 $781 forward 7 unknown #
vertex $-1 $776 $782 #
vertex $-1 $775 $783 #
straight-curve $-1 -94.734623397039343 -12.833745392144333 0 0 0 -1 I I #
coedge $-1 $731 $730 $653 $722 forward $709 $-1 #
edge $-1 $726 -20.52132373245518 $724 20.52132373245518 $721 $784 forward 7 unknown #
coedge $-1 $654 $666 $731 $785 forward $679 $-1 #
vertex $-1 $655 $786 #
straight-curve $-1 -82.264006543943424 -18.673808376401194 -20.52132373245518 -1 0 0 I I #
vertex $-1 $734 $787 #
straight-curve $-1 -82.264006543943424 -18.673808376401194 20.52132373245518 1 0 0 I I #
point $-1 -94.734623397039343 -18.673808376401194 20.52132373245518 #
point $-1 -94.734623397039343 -18.673808376401194 -20.52132373245518 #
coedge $-1 $721 $661 $663 $734 reversed $709 $-1 #
coedge $-1 $661 $721 $723 $785 reversed $709 $-1 #
vertex $-1 $785 $788 #
straight-curve $-1 -69.793389690847505 -41.669850760763147 0 0 0 -1 I I #
edge $-1 $726 18.673808376401194 $664 41.669850760763147 $730 $789 forward 7 unknown #
point $-1 -69.793389690847505 -41.669850760763147 20.52132373245518 #
straight-curve $-1 0 -41.669850760763147 -20.52132373245518 -1 0 0 I I #
coedge $-1 $669 $668 $790 $791 reversed $670 $-1 #
edge $-1 $792 -69.793389690847505 $671 69.793389690847505 $668 $793 forward 7 unknown #
face $-1 $-1 $670 $18 $-1 $794 reversed single #
point $-1 69.793389690847505 41.669850760763147 -20.52132373245518 #
coedge $-1 $716 $673 $712 $776 forward $506 $-1 #
coedge $-1 $790 $710 $673 $743 reversed $646 $-1 #
edge $-1 $744 -41.669850760763147 $778 12.833745392144333 $742 $789 forward 7 unknown #
vertex $-1 $674 $795 #
straight-curve $-1 0 41.669850760763147 20.52132373245518 -1 0 0 I I #
plane-surface $-1 0 0 -20.52132373245518 0 0 1 1 0 0 forward_v I I I I #
coedge $-1 $678 $774 $773 $796 forward $679 $-1 #
face $-1 $797 $798 $19 $-1 $799 reversed single #
loop $-1 $-1 $800 $682 #
plane-surface $-1 -82.264006543943424 -12.833745392144333 0 0 -1 0 0 0 -1 forward_v I I I I #
coedge $-1 $801 $802 $803 $804 forward $683 $-1 #
coedge $-1 $805 $685 $806 $807 reversed $608 $-1 #
coedge $-1 $685 $805 $808 $809 reversed $608 $-1 #
coedge $-1 $802 $801 $685 $755 reversed $683 $-1 #
edge $-1 $810 -20.52132373245518 $811 20.52132373245518 $754 $812 forward 7 unknown #
coedge $-1 $759 $686 $813 $814 forward $519 $-1 #
coedge $-1 $691 $815 $686 $758 forward $692 $-1 #
edge $-1 $816 -69.793389690847505 $699 63.710313295773972 $686 $817 forward 7 unknown #
coedge $-1 $687 $756 $818 $819 reversed $519 $-1 #
coedge $-1 $820 $821 $688 $761 forward $822 $-1 #
edge $-1 $763 -20.52132373245518 $823 20.52132373245518 $688 $824 forward 7 unknown #
coedge $-1 $825 $689 $821 $826 forward $692 $-1 #
vertex $-1 $690 $827 #
straight-curve $-1 69.793389690847505 0 20.52132373245518 0 1 0 I I #
face $-1 $828 $692 $19 $-1 $829 forward single #
point $-1 63.710313295773972 -22.294457461991975 20.521323732455173 #
straight-curve $-1 63.710313295773972 -15.99107705568878 20.52132373245518 0 1 0 I I #
point $-1 63.710313295773972 -41.669850760763147 20.521323732455173 #
coedge $-1 $818 $830 $701 $770 forward $831 $-1 #
edge $-1 $823 -41.669850760763147 $771 41.669850760763147 $701 $832 forward 7 unknown #
vertex $-1 $702 $833 #
straight-curve $-1 69.793389690847505 -41.669850760763147 0 0 0 -1 I I #
coedge $-1 $710 $790 $747 $796 reversed $646 $-1 #
coedge $-1 $747 $714 $711 $775 forward $679 $-1 #
edge $-1 $719 -12.470616853095919 $777 12.470616853095919 $711 $834 forward 7 unknown #
edge $-1 $778 -12.470616853095919 $718 12.470616853095919 $712 $835 forward 7 unknown #
vertex $-1 $796 $836 #
vertex $-1 $776 $837 #
straight-curve $-1 -69.793389690847505 -12.833745392144333 0 0 0 1 I I #
straight-curve $-1 -94.734623397039343 -15.753776884272764 -20.52132373245518 0 1 0 I I #
straight-curve $-1 -94.734623397039343 -15.753776884272764 20.52132373245518 0 -1 0 I I #
point $-1 -94.734623397039343 -12.833745392144333 20.52132373245518 #
point $-1 -94.734623397039343 -12.833745392144333 -20.52132373245518 #
straight-curve $-1 -69.793389690847505 -18.673808376401194 0 0 0 -1 I I #
edge $-1 $732 -41.669850760763147 $724 -18.673808376401194 $731 $838 forward 7 unknown #
point $-1 -69.793389690847505 -18.673808376401194 -20.52132373245518 #
point $-1 -69.793389690847505 -18.673808376401194 20.52132373245518 #
point $-1 -69.793389690847505 -41.669850760763147 -20.52132373245518 #
straight-curve $-1 -69.793389690847505 0 20.52132373245518 0 -1 0 I I #
coedge $-1 $773 $742 $737 $791 forward $646 $-1 #
edge $-1 $744 -20.52132373245518 $792 20.52132373245518 $737 $839 forward 7 unknown #
vertex $-1 $738 $840 #
straight-curve $-1 0 41.669850760763147 -20.52132373245518 1 0 0 I I #
plane-surface $-1 0 41.669850760763147 0 0 -1 0 0 0 -1 forward_v I I I I #
point $-1 -69.793389690847505 41.669850760763147 20.52132373245518 #
edge $-1 $777 -12.833745392144333 $792 41.669850760763147 $773 $838 forward 7 unknown #
face $-1 $765 $841 $19 $-1 $799 reversed single #
loop $-1 $-1 $842 $748 #
plane-surface $-1 -69.793389690847505 0 0 1 0 0 0 0 -1 forward_v I I I I #
coedge $-1 $843 $844 $842 $845 reversed $749 $-1 #
coedge $-1 $754 $751 $846 $847 reversed $683 $-1 #
coedge $-1 $751 $754 $848 $849 reversed $683 $-1 #
coedge $-1 $844 $843 $751 $804 reversed $749 $-1 #
edge $-1 $850 -20.52132373245518 $851 20.52132373245518 $803 $852 forward 7 unknown #
coedge $-1 $753 $752 $853 $854 reversed $608 $-1 #
coedge $-1 $846 $855 $752 $807 forward $831 $-1 #
edge $-1 $856 -12.470616853095919 $811 12.470616853095919 $752 $857 forward 7 unknown #
coedge $-1 $815 $848 $753 $809 forward $692 $-1 #
edge $-1 $810 -12.470616853095919 $858 12.470616853095919 $753 $859 forward 7 unknown #
vertex $-1 $849 $860 #
vertex $-1 $847 $861 #
straight-curve $-1 -94.734623397039343 -18.673808376401194 0 0 0 -1 I I #
coedge $-1 $862 $863 $756 $814 reversed $841 $-1 #
edge $-1 $816 -20.52132373245518 $864 20.52132373245518 $813 $865 forward 7 unknown #
coedge $-1 $757 $808 $862 $866 forward $692 $-1 #
vertex $-1 $866 $867 #
straight-curve $-1 0 -41.669850760763147 20.52132373245518 1 0 0 I I #
coedge $-1 $855 $769 $759 $819 forward $831 $-1 #
edge $-1 $771 -69.793389690847505 $864 69.793389690847505 $759 $868 forward 7 unknown #
coedge $-1 $869 $760 $830 $870 reversed $822 $-1 #
coedge $-1 $760 $869 $762 $826 reversed $822 $-1 #
loop $-1 $-1 $760 $871 #
vertex $-1 $770 $872 #
straight-curve $-1 69.793389690847505 41.669850760763147 0 0 0 -1 I I #
coedge $-1 $873 $762 $874 $875 forward $692 $-1 #
edge $-1 $763 -69.793389690847505 $876 69.793389690847505 $821 $877 forward 7 unknown #
point $-1 69.793389690847505 41.669850760763147 20.52132373245518 #
face $-1 $871 $831 $19 $-1 $878 reversed single #
plane-surface $-1 0 0 20.52132373245518 0 0 1 1 0 0 forward_v I I I I #
coedge $-1 $769 $879 $820 $870 forward $831 $-1 #
loop $-1 $-1 $769 $828 #
straight-curve $-1 69.793389690847505 0 -20.52132373245518 0 -1 0 I I #
point $-1 69.793389690847505 -41.669850760763147 -20.52132373245518 #
straight-curve $-1 -82.264006543943424 -12.833745392144333 -20.52132373245518 1 0 0 I I #
straight-curve $-1 -82.264006543943424 -12.833745392144333 20.52132373245518 -1 0 0 I I #
point $-1 -69.793389690847505 -12.833745392144333 -20.52132373245518 #
point $-1 -69.793389690847505 -12.833745392144333 20.52132373245518 #
straight-curve $-1 -69.793389690847505 0 -20.52132373245518 0 1 0 I I #
straight-curve $-1 -69.793389690847505 41.669850760763147 0 0 0 -1 I I #
point $-1 -69.793389690847505 41.669850760763147 -20.52132373245518 #
loop $-1 $-1 $853 $797 #
coedge $-1 $874 $880 $800 $845 forward $798 $-1 #
coedge $-1 $803 $800 $881 $882 reversed $749 $-1 #
coedge $-1 $800 $803 $873 $883 reversed $749 $-1 #
edge $-1 $884 -20.52132373245518 $885 20.52132373245518 $842 $886 forward 7 unknown #
coedge $-1 $881 $806 $801 $847 forward $831 $-1 #
edge $-1 $811 -2.9200314921284303 $851 2.9200314921284303 $801 $887 forward 7 unknown #
coedge $-1 $808 $873 $802 $849 forward $692 $-1 #
edge $-1 $850 -2.9200314921284303 $810 2.9200314921284303 $802 $888 forward 7 unknown #
vertex $-1 $883 $889 #
vertex $-1 $882 $890 #
straight-curve $-1 -94.734623397039343 -12.833745392144333 0 0 0 -1 I I #
coedge $-1 $863 $862 $805 $854 forward $841 $-1 #
edge $-1 $858 -20.52132373245518 $856 20.52132373245518 $853 $891 forward 7 unknown #
coedge $-1 $806 $818 $863 $892 forward $831 $-1 #
vertex $-1 $807 $893 #
straight-curve $-1 -82.264006543943424 -18.673808376401194 -20.52132373245518 -1 0 0 I I #
vertex $-1 $866 $894 #
straight-curve $-1 -82.264006543943424 -18.673808376401194 20.52132373245518 1 0 0 I I #
point $-1 -94.734623397039343 -18.673808376401194 20.52132373245518 #
point $-1 -94.734623397039343 -18.673808376401194 -20.52132373245518 #
coedge $-1 $853 $813 $815 $866 reversed $841 $-1 #
coedge $-1 $813 $853 $855 $892 reversed $841 $-1 #
vertex $-1 $892 $895 #
straight-curve $-1 -69.793389690847505 -41.669850760763147 0 0 0 -1 I I #
edge $-1 $858 18.673808376401194 $816 41.669850760763147 $862 $896 forward 7 unknown #
point $-1 -69.793389690847505 -41.669850760763147 20.52132373245518 #
straight-curve $-1 0 -41.669850760763147 -20.52132373245518 -1 0 0 I I #
coedge $-1 $821 $820 $897 $898 reversed $822 $-1 #
edge $-1 $899 -69.793389690847505 $823 69.793389690847505 $820 $900 forward 7 unknown #
face $-1 $-1 $822 $19 $-1 $901 reversed single #
point $-1 69.793389690847505 41.669850760763147 -20.52132373245518 #
coedge $-1 $848 $825 $844 $883 forward $692 $-1 #
coedge $-1 $897 $842 $825 $875 reversed $798 $-1 #
edge $-1 $876 -41.669850760763147 $885 12.833745392144333 $874 $896 forward 7 unknown #
vertex $-1 $826 $902 #
straight-curve $-1 0 41.669850760763147 20.52132373245518 -1 0 0 I I #
plane-surface $-1 0 0 -20.52132373245518 0 0 1 1 0 0 forward_v I I I I #
coedge $-1 $830 $881 $880 $903 forward $831 $-1 #
coedge $-1 $842 $897 $879 $903 reversed $798 $-1 #
coedge $-1 $879 $846 $843 $882 forward $831 $-1 #
edge $-1 $851 -12.470616853095919 $884 12.470616853095919 $843 $904 forward 7 unknown #
edge $-1 $885 -12.470616853095919 $850 12.470616853095919 $844 $905 forward 7 unknown #
vertex $-1 $903 $906 #
vertex $-1 $883 $907 #
straight-curve $-1 -69.793389690847505 -12.833745392144333 0 0 0 1 I I #
straight-curve $-1 -94.734623397039343 -15.753776884272764 -20.52132373245518 0 1 0 I I #
straight-curve $-1 -94.734623397039343 -15.753776884272764 20.52132373245518 0 -1 0 I I #
point $-1 -94.734623397039343 -12.833745392144333 20.52132373245518 #
point $-1 -94.734623397039343 -12.833745392144333 -20.52132373245518 #
straight-curve $-1 -69.793389690847505 -18.673808376401194 0 0 0 -1 I I #
edge $-1 $864 -41.669850760763147 $856 -18.673808376401194 $863 $908 forward 7 unknown #
point $-1 -69.793389690847505 -18.673808376401194 -20.52132373245518 #
point $-1 -69.793389690847505 -18.673808376401194 20.52132373245518 #
point $-1 -69.793389690847505 -41.669850760763147 -20.52132373245518 #
straight-curve $-1 -69.793389690847505 0 20.52132373245518 0 -1 0 I I #
coedge $-1 $880 $874 $869 $898 forward $798 $-1 #
edge $-1 $876 -20.52132373245518 $899 20.52132373245518 $869 $909 forward 7 unknown #
vertex $-1 $870 $910 #
straight-curve $-1 0 41.669850760763147 -20.52132373245518 1 0 0 I I #
plane-surface $-1 0 41.669850760763147 0 0 -1 0 0 0 -1 forward_v I I I I #
point $-1 -69.793389690847505 41.669850760763147 20.52132373245518 #
edge $-1 $884 -12.833745392144333 $899 41.669850760763147 $880 $908 forward 7 unknown #
straight-curve $-1 -82.264006543943424 -12.833745392144333 -20.52132373245518 1 0 0 I I #
straight-curve $-1 -82.264006543943424 -12.833745392144333 20.52132373245518 -1 0 0 I I #
point $-1 -69.793389690847505 -12.833745392144333 -20.52132373245518 #
point $-1 -69.793389690847505 -12.833745392144333 20.52132373245518 #
straight-curve $-1 -69.793389690847505 0 -20.52132373245518 0 1 0 I I #
straight-curve $-1 -69.793389690847505 41.669850760763147 0 0 0 -1 I I #
point $-1 -69.793389690847505 41.669850760763147 -20.52132373245518 #
End-of-ACIS-data 