500 0 8 0           
7 Unknown 11 ACIS 5.0 NT 24 Thu Mar 25 15:50:26 1999 
-1 9.9999999999999995e-007 1e-010 
body $-1 $8 $-1 $9 #
body $-1 $10 $-1 $11 #
body $-1 $12 $-1 $13 #
body $-1 $14 $-1 $15 #
body $-1 $16 $-1 $17 #
body $-1 $18 $-1 $19 #
body $-1 $20 $-1 $21 #
body $-1 $22 $-1 $23 #
lump $-1 $-1 $24 $0 #
transform $-1 1 0 0 0 1 0 0 0 1 58.953215124973298 25.240475325426512 8.5796201719596077 1 rotate no_reflect no_shear #
lump $-1 $-1 $25 $1 #
transform $-1 1 0 0 0 1 0 0 0 1 58.953215124973298 25.240475325426512 8.5796201719596077 1 rotate no_reflect no_shear #
lump $-1 $-1 $26 $2 #
transform $-1 1 0 0 0 1 0 0 0 1 58.953215124973298 25.240475325426512 8.5796201719596077 1 rotate no_reflect no_shear #
lump $-1 $-1 $27 $3 #
transform $-1 1 0 0 0 1 0 0 0 1 58.953215124973298 25.240475325426512 8.5796201719596077 1 rotate no_reflect no_shear #
lump $-1 $-1 $28 $4 #
transform $-1 1 0 0 0 1 0 0 0 1 58.953215124973298 25.240475325426512 8.5796201719596077 1 rotate no_reflect no_shear #
lump $-1 $-1 $29 $5 #
transform $-1 1 0 0 0 1 0 0 0 1 58.953215124973298 25.240475325426512 8.5796201719596077 1 rotate no_reflect no_shear #
lump $-1 $-1 $30 $6 #
transform $-1 1 0 0 0 1 0 0 0 1 58.953215124973298 25.240475325426512 8.5796201719596077 1 rotate no_reflect no_shear #
lump $-1 $-1 $31 $7 #
transform $-1 1 0 0 0 1 0 0 0 1 58.953215124973298 25.240475325426512 8.5796201719596077 1 rotate no_reflect no_shear #
shell $-1 $-1 $-1 $32 $-1 $8 #
shell $-1 $-1 $-1 $33 $-1 $10 #
shell $-1 $-1 $-1 $34 $-1 $12 #
shell $-1 $-1 $-1 $35 $-1 $14 #
shell $-1 $-1 $-1 $36 $-1 $16 #
shell $-1 $-1 $-1 $37 $-1 $18 #
shell $-1 $-1 $-1 $38 $-1 $20 #
shell $-1 $-1 $-1 $39 $-1 $22 #
face $-1 $40 $41 $24 $-1 $42 forward single #
face $-1 $43 $44 $25 $-1 $45 reversed single #
face $-1 $46 $47 $26 $-1 $48 reversed single #
face $-1 $49 $50 $27 $-1 $51 forward single #
face $-1 $52 $53 $28 $-1 $54 forward single #
face $-1 $55 $56 $29 $-1 $57 reversed single #
face $-1 $58 $59 $30 $-1 $60 forward single #
face $-1 $61 $62 $31 $-1 $63 forward single #
face $-1 $64 $65 $24 $-1 $66 reversed single #
loop $-1 $-1 $67 $32 #
plane-surface $-1 0 0 8.5796201719596077 0 0 1 1 0 0 forward_v I I I I #
face $-1 $68 $69 $25 $-1 $70 reversed single #
loop $-1 $-1 $71 $33 #
plane-surface $-1 -54.261353988422982 0 5.443491058899852 0 0 1 1 0 0 forward_v I I I I #
face $-1 $72 $73 $26 $-1 $74 reversed single #
loop $-1 $-1 $75 $34 #
plane-surface $-1 6.2269928643398735 -101.02926872398291 94.469967477673066 -1 0 0 0 -0.64278761758704617 0.76604443648966558 forward_v I I I I #
face $-1 $76 $77 $27 $-1 $78 forward single #
loop $-1 $79 $80 $35 #
cone-surface $-1 -14.889772003923056 -21.500438217225248 5.0535860660299452 0 0.64278761758704617 -0.76604443648966558 1 0 0 1 I I 0 1 1 forward I I I I #
face $-1 $81 $82 $28 $-1 $83 forward single #
loop $-1 $84 $85 $36 #
cone-surface $-1 -2.2197130829652991 -21.500438217225248 5.0535860660299452 0 0.64278761758704617 -0.76604443648966558 1 0 0 1 I I 0 1 1 forward I I I I #
face $-1 $86 $87 $29 $-1 $88 reversed single #
loop $-1 $-1 $89 $37 #
plane-surface $-1 -23.336477951228229 62.358617329187595 126.91849748006412 1 0 0 0 -0.64278761758704617 -0.76604443648966558 forward_v I I I I #
face $-1 $90 $91 $30 $-1 $92 forward single #
loop $-1 $93 $94 $38 #
cone-surface $-1 -14.889772003923056 21.500438217225255 5.0535860660299488 0 -0.64278761758704617 -0.76604443648966558 1 0 0 1 I I 0 1 1 forward I I I I #
face $-1 $95 $96 $31 $-1 $97 forward single #
loop $-1 $98 $99 $39 #
cone-surface $-1 -2.2197130829652991 21.500438217225255 5.0535860660299488 0 -0.64278761758704617 -0.76604443648966558 1 0 0 1 I I 0 1 1 forward I I I I #
face $-1 $100 $101 $24 $-1 $102 reversed single #
loop $-1 $-1 $103 $40 #
plane-surface $-1 0 0 -8.5796201719596077 0 0 1 1 0 0 forward_v I I I I #
coedge $-1 $104 $105 $106 $107 forward $41 $-1 #
face $-1 $108 $109 $25 $-1 $110 reversed single #
loop $-1 $-1 $111 $43 #
plane-surface $-1 -49.569492851872667 0 7.0115556154297298 -1 0 0 0 0 1 forward_v I I I I #
coedge $-1 $112 $113 $114 $115 forward $44 $-1 #
face $-1 $116 $117 $26 $-1 $118 reversed single #
loop $-1 $-1 $119 $46 #
plane-surface $-1 -8.5547425434441777 -25.240475325426502 4.1484025583446709 0 -0.64278761758704617 0.76604443648966558 1 0 0 forward_v I I I I #
coedge $-1 $120 $121 $122 $123 reversed $47 $-1 #
face $-1 $-1 $124 $27 $-1 $125 forward single #
loop $-1 $126 $127 $49 #
cone-surface $-1 -14.889772003923056 -20.079467000222312 3.3601385486629169 0 0.64278761758704617 -0.76604443648966558 0.5 0 0 1 I I -0.70710678118654746 0.70710678118654746 0.5 forward I I I I #
loop $-1 $-1 $128 $35 #
coedge $-1 $80 $80 $129 $130 reversed $50 $-1 #
face $-1 $-1 $131 $28 $-1 $132 forward single #
loop $-1 $133 $134 $52 #
cone-surface $-1 -2.2197130829652991 -20.079467000222312 3.3601385486629169 0 0.64278761758704617 -0.76604443648966558 0.5 0 0 1 I I -0.70710678118654746 0.70710678118654746 0.5 forward I I I I #
loop $-1 $-1 $135 $36 #
coedge $-1 $85 $85 $136 $137 reversed $53 $-1 #
face $-1 $138 $139 $29 $-1 $140 reversed single #
loop $-1 $-1 $141 $55 #
plane-surface $-1 -8.5547425434441777 -13.430176069368812 36.596932560735723 0 0.64278761758704617 0.76604443648966558 1 0 0 forward_v I I I I #
coedge $-1 $142 $143 $144 $145 reversed $56 $-1 #
face $-1 $-1 $146 $30 $-1 $147 forward single #
loop $-1 $148 $149 $58 #
cone-surface $-1 -14.889772003923056 20.079467000222319 3.3601385486629205 0 -0.64278761758704617 -0.76604443648966558 0.5 0 0 1 I I -0.70710678118654746 0.70710678118654746 0.5 forward I I I I #
loop $-1 $-1 $150 $38 #
coedge $-1 $94 $94 $151 $152 reversed $59 $-1 #
face $-1 $-1 $153 $31 $-1 $154 forward single #
loop $-1 $155 $156 $61 #
cone-surface $-1 -2.2197130829652991 20.079467000222319 3.3601385486629205 0 -0.64278761758704617 -0.76604443648966558 0.5 0 0 1 I I -0.70710678118654746 0.70710678118654746 0.5 forward I I I I #
loop $-1 $-1 $157 $39 #
coedge $-1 $99 $99 $158 $159 reversed $62 $-1 #
face $-1 $160 $161 $24 $-1 $162 reversed single #
loop $-1 $-1 $163 $64 #
plane-surface $-1 0 -25.240475325426512 0 0 1 0 0 0 1 forward_v I I I I #
coedge $-1 $164 $165 $166 $167 forward $65 $-1 #
coedge $-1 $168 $67 $169 $170 forward $41 $-1 #
coedge $-1 $67 $168 $171 $172 forward $41 $-1 #
coedge $-1 $173 $174 $67 $107 reversed $175 $-1 #
edge $-1 $176 -25.240475325426512 $177 25.240475325426512 $106 $178 forward 7 unknown #
face $-1 $179 $180 $25 $-1 $181 reversed single #
loop $-1 $-1 $182 $68 #
plane-surface $-1 0 25.240475325426512 0 0 -1 0 0 0 -1 forward_v I I I I #
coedge $-1 $114 $183 $184 $185 reversed $69 $-1 #
coedge $-1 $186 $71 $187 $188 reversed $44 $-1 #
coedge $-1 $71 $186 $189 $190 reversed $44 $-1 #
coedge $-1 $191 $111 $71 $115 reversed $69 $-1 #
edge $-1 $192 -25.240475325426512 $193 25.240475325426512 $114 $194 forward 7 unknown #
face $-1 $195 $196 $26 $-1 $197 reversed single #
loop $-1 $-1 $198 $72 #
plane-surface $-1 -23.336477951228229 -101.02926872398291 94.469967477673066 1 0 0 0 0.64278761758704617 -0.76604443648966558 forward_v I I I I #
coedge $-1 $199 $200 $201 $202 reversed $73 $-1 #
coedge $-1 $121 $75 $203 $204 reversed $47 $-1 #
coedge $-1 $75 $120 $199 $205 reversed $47 $-1 #
coedge $-1 $201 $206 $75 $123 forward $207 $-1 #
edge $-1 $208 25.274159036564942 $209 30.555078436548651 $122 $210 forward 7 unknown #
loop $-1 $-1 $129 $76 #
plane-surface $-1 -8.5547425434441777 -25.240475325426502 4.1484025583446709 0 -0.64278761758704617 0.76604443648966558 1 0 0 forward_v I I I I #
loop $-1 $-1 $211 $49 #
coedge $-1 $127 $127 $128 $212 reversed $77 $-1 #
coedge $-1 $128 $128 $127 $212 forward $79 $-1 #
coedge $-1 $129 $129 $80 $130 forward $124 $-1 #
edge $-1 $213 -8.7579237304154467e-016 $213 6.2831853071795996 $129 $214 forward 7 unknown #
loop $-1 $-1 $136 $81 #
plane-surface $-1 -8.5547425434441777 -25.240475325426502 4.1484025583446709 0 -0.64278761758704617 0.76604443648966558 1 0 0 forward_v I I I I #
loop $-1 $-1 $215 $52 #
coedge $-1 $134 $134 $135 $216 reversed $82 $-1 #
coedge $-1 $135 $135 $134 $216 forward $84 $-1 #
coedge $-1 $136 $136 $85 $137 forward $131 $-1 #
edge $-1 $217 -8.7579237304154467e-016 $217 6.2831853071795996 $136 $218 forward 7 unknown #
face $-1 $219 $220 $29 $-1 $221 forward single #
loop $-1 $-1 $222 $86 #
plane-surface $-1 6.2269928643398735 62.358617329187595 126.91849748006412 -1 0 0 0 0.64278761758704617 0.76604443648966558 forward_v I I I I #
coedge $-1 $223 $224 $225 $226 reversed $87 $-1 #
coedge $-1 $143 $89 $227 $228 reversed $56 $-1 #
coedge $-1 $89 $142 $223 $229 reversed $56 $-1 #
coedge $-1 $225 $230 $89 $145 forward $220 $-1 #
edge $-1 $231 5.9388333391672852 $232 11.219752739150998 $144 $233 forward 7 unknown #
loop $-1 $-1 $151 $90 #
plane-surface $-1 -8.5547425434441777 -13.430176069368812 36.596932560735723 0 0.64278761758704617 0.76604443648966558 1 0 0 forward_v I I I I #
loop $-1 $-1 $234 $58 #
coedge $-1 $149 $149 $150 $235 reversed $91 $-1 #
coedge $-1 $150 $150 $149 $235 forward $93 $-1 #
coedge $-1 $151 $151 $94 $152 forward $146 $-1 #
edge $-1 $236 -3.990417116114967e-016 $236 6.2831853071796004 $151 $237 forward 7 unknown #
loop $-1 $-1 $158 $95 #
plane-surface $-1 -8.5547425434441777 -13.430176069368812 36.596932560735723 0 0.64278761758704617 0.76604443648966558 1 0 0 forward_v I I I I #
loop $-1 $-1 $238 $61 #
coedge $-1 $156 $156 $157 $239 reversed $96 $-1 #
coedge $-1 $157 $157 $156 $239 forward $98 $-1 #
coedge $-1 $158 $158 $99 $159 forward $153 $-1 #
edge $-1 $240 -3.990417116114967e-016 $240 6.2831853071796004 $158 $241 forward 7 unknown #
face $-1 $242 $243 $24 $-1 $244 reversed single #
loop $-1 $-1 $245 $100 #
plane-surface $-1 -58.953215124973298 0 0 1 0 0 0 0 -1 forward_v I I I I #
coedge $-1 $246 $171 $247 $248 forward $101 $-1 #
coedge $-1 $249 $103 $246 $250 forward $65 $-1 #
coedge $-1 $103 $249 $251 $252 forward $65 $-1 #
coedge $-1 $174 $173 $103 $167 reversed $175 $-1 #
edge $-1 $253 -25.240475325426512 $254 25.240475325426512 $166 $255 forward 7 unknown #
coedge $-1 $105 $104 $256 $257 forward $41 $-1 #
coedge $-1 $258 $259 $104 $170 reversed $243 $-1 #
edge $-1 $177 -58.953215124973298 $260 58.953215124973298 $169 $261 forward 7 unknown #
coedge $-1 $163 $262 $105 $172 reversed $101 $-1 #
edge $-1 $263 -58.953215124973298 $176 58.953215124973298 $171 $264 forward 7 unknown #
coedge $-1 $166 $106 $262 $265 forward $175 $-1 #
coedge $-1 $106 $166 $258 $266 reversed $175 $-1 #
loop $-1 $-1 $173 $242 #
vertex $-1 $107 $267 #
vertex $-1 $107 $268 #
straight-curve $-1 58.953215124973298 0 8.5796201719596077 0 1 0 I I #
face $-1 $269 $270 $25 $-1 $271 forward single #
loop $-1 $-1 $272 $108 #
plane-surface $-1 -58.953215124973298 0 0 1 0 0 0 0 -1 forward_v I I I I #
coedge $-1 $189 $273 $191 $274 forward $109 $-1 #
coedge $-1 $111 $191 $275 $276 reversed $69 $-1 #
coedge $-1 $277 $187 $111 $185 forward $278 $-1 #
edge $-1 $193 1.9377132511849871 $279 5.0738423642447428 $184 $280 forward 7 unknown #
coedge $-1 $113 $112 $272 $281 reversed $44 $-1 #
coedge $-1 $184 $282 $112 $188 forward $278 $-1 #
edge $-1 $283 -31.822538130761806 $193 -22.438815857661176 $187 $284 forward 7 unknown #
coedge $-1 $285 $182 $113 $190 forward $109 $-1 #
edge $-1 $192 22.438815857661176 $286 31.822538130761806 $189 $287 forward 7 unknown #
coedge $-1 $183 $114 $182 $274 reversed $69 $-1 #
vertex $-1 $190 $288 #
vertex $-1 $188 $289 #
straight-curve $-1 -49.569492851872667 0 5.443491058899852 0 -1 0 I I #
face $-1 $-1 $207 $26 $-1 $290 forward single #
loop $-1 $-1 $291 $116 #
plane-surface $-1 0 -25.240475325426512 0 0 1 0 0 0 1 forward_v I I I I #
coedge $-1 $292 $293 $294 $295 reversed $117 $-1 #
coedge $-1 $296 $119 $121 $205 forward $73 $-1 #
coedge $-1 $119 $296 $292 $297 forward $73 $-1 #
coedge $-1 $294 $122 $119 $202 forward $207 $-1 #
edge $-1 $209 -10.504364136061962 $298 19.05910667950614 $201 $299 forward 7 unknown #
coedge $-1 $300 $301 $120 $204 forward $196 $-1 #
edge $-1 $302 -43.086581180491869 $208 -38.655363566876929 $203 $303 forward 7 unknown #
edge $-1 $209 -6.8937507387731563 $302 1.3873710548170279e-014 $121 $304 forward 7 unknown #
coedge $-1 $122 $294 $300 $305 forward $207 $-1 #
loop $-1 $-1 $294 $195 #
vertex $-1 $204 $306 #
vertex $-1 $123 $307 #
straight-curve $-1 6.2269928643398735 -50.514634361991455 8.5796201719596112 0 1 0 I I #
coedge $-1 $211 $211 $-1 $308 reversed $126 $-1 #
edge $-1 $309 0 $309 6.2831853071796004 $127 $310 forward 7 unknown #
vertex $-1 $130 $311 #
ellipse-curve $-1 -14.889772003923056 -22.600015625434658 6.3640113651521339 0 -0.64278761758704617 0.76604443648966558 1 0 0 1 I I #
coedge $-1 $215 $215 $-1 $312 reversed $133 $-1 #
edge $-1 $313 0 $313 6.2831853071796004 $134 $314 forward 7 unknown #
vertex $-1 $137 $315 #
ellipse-curve $-1 -2.2197130829652991 -22.600015625434658 6.3640113651521339 0 -0.64278761758704617 0.76604443648966558 1 0 0 1 I I #
face $-1 $-1 $316 $29 $-1 $317 reversed single #
loop $-1 $-1 $144 $138 #
plane-surface $-1 0 0 8.5796201719596077 0 0 1 1 0 0 forward_v I I I I #
coedge $-1 $318 $319 $320 $321 reversed $139 $-1 #
coedge $-1 $322 $141 $143 $229 forward $87 $-1 #
coedge $-1 $141 $322 $318 $323 forward $87 $-1 #
coedge $-1 $320 $144 $141 $226 forward $220 $-1 #
edge $-1 $232 -19.05910667950614 $324 10.504364136061962 $225 $325 forward 7 unknown #
coedge $-1 $326 $327 $142 $228 forward $316 $-1 #
edge $-1 $328 -59.310846181687403 $231 -54.879628568072448 $227 $329 forward 7 unknown #
edge $-1 $232 43.587199912079853 $328 50.480950650853032 $143 $330 forward 7 unknown #
coedge $-1 $144 $320 $326 $331 forward $220 $-1 #
vertex $-1 $228 $332 #
vertex $-1 $145 $333 #
straight-curve $-1 -23.336477951228229 31.179308664593798 8.5796201719596041 0 -1 0 I I #
coedge $-1 $234 $234 $-1 $334 reversed $148 $-1 #
edge $-1 $335 0 $335 6.2831853071796004 $149 $336 forward 7 unknown #
vertex $-1 $152 $337 #
ellipse-curve $-1 -14.889772003923056 22.600015625434661 6.3640113651521313 0 0.64278761758704617 0.76604443648966558 1 0 0 1 I I #
coedge $-1 $238 $238 $-1 $338 reversed $155 $-1 #
edge $-1 $339 0 $339 6.2831853071796004 $156 $340 forward 7 unknown #
vertex $-1 $159 $341 #
ellipse-curve $-1 -2.2197130829652991 22.600015625434661 6.3640113651521313 0 0.64278761758704617 0.76604443648966558 1 0 0 1 I I #
face $-1 $-1 $175 $24 $-1 $342 reversed single #
loop $-1 $-1 $258 $160 #
plane-surface $-1 0 25.240475325426512 0 0 -1 0 0 0 -1 forward_v I I I I #
coedge $-1 $343 $256 $259 $344 forward $161 $-1 #
coedge $-1 $262 $163 $164 $250 reversed $101 $-1 #
coedge $-1 $256 $343 $163 $248 reversed $161 $-1 #
edge $-1 $263 -8.5796201719596077 $345 8.5796201719596077 $247 $346 forward 7 unknown #
coedge $-1 $165 $164 $343 $347 forward $65 $-1 #
edge $-1 $254 -58.953215124973298 $345 58.953215124973298 $246 $348 forward 7 unknown #
coedge $-1 $259 $258 $165 $252 reversed $243 $-1 #
edge $-1 $349 -58.953215124973298 $253 58.953215124973298 $251 $350 forward 7 unknown #
vertex $-1 $167 $351 #
vertex $-1 $265 $352 #
straight-curve $-1 58.953215124973298 0 -8.5796201719596077 0 -1 0 I I #
coedge $-1 $245 $247 $168 $257 reversed $161 $-1 #
edge $-1 $260 -25.240475325426512 $263 25.240475325426512 $256 $353 forward 7 unknown #
coedge $-1 $251 $169 $174 $266 forward $243 $-1 #
coedge $-1 $169 $251 $245 $344 reversed $243 $-1 #
vertex $-1 $170 $354 #
straight-curve $-1 0 25.240475325426512 8.5796201719596077 -1 0 0 I I #
coedge $-1 $171 $246 $173 $265 reversed $101 $-1 #
vertex $-1 $257 $355 #
straight-curve $-1 0 -25.240475325426512 8.5796201719596077 1 0 0 I I #
edge $-1 $176 -8.5796201719596077 $254 8.5796201719596077 $173 $356 forward 7 unknown #
edge $-1 $177 -8.5796201719596077 $253 8.5796201719596077 $174 $357 forward 7 unknown #
point $-1 58.953215124973298 -25.240475325426512 8.5796201719596077 #
point $-1 58.953215124973298 25.240475325426512 8.5796201719596077 #
face $-1 $-1 $278 $25 $-1 $358 reversed single #
loop $-1 $-1 $275 $179 #
plane-surface $-1 0 0 8.5796201719596077 0 0 1 1 0 0 forward_v I I I I #
coedge $-1 $359 $360 $186 $281 forward $180 $-1 #
coedge $-1 $182 $285 $361 $362 reversed $109 $-1 #
edge $-1 $363 -5.0738423642447428 $192 -1.9377132511849871 $182 $364 forward 7 unknown #
coedge $-1 $361 $365 $183 $276 forward $270 $-1 #
edge $-1 $279 -25.240475325426512 $363 25.240475325426512 $275 $366 forward 7 unknown #
coedge $-1 $282 $184 $365 $367 reversed $278 $-1 #
loop $-1 $-1 $184 $269 #
vertex $-1 $185 $368 #
straight-curve $-1 -49.569492851872667 -25.240475325426512 3.5057778077148649 0 0 1 I I #
edge $-1 $286 -25.240475325426512 $283 25.240475325426512 $272 $369 forward 7 unknown #
coedge $-1 $187 $277 $359 $370 forward $278 $-1 #
vertex $-1 $281 $371 #
straight-curve $-1 -27.130676994211491 -25.240475325426512 5.443491058899852 1 0 0 I I #
coedge $-1 $273 $189 $360 $372 reversed $109 $-1 #
vertex $-1 $281 $373 #
straight-curve $-1 -27.130676994211491 25.240475325426512 5.443491058899852 -1 0 0 I I #
point $-1 -49.569492851872667 25.240475325426512 5.443491058899852 #
point $-1 -49.569492851872667 -25.240475325426512 5.443491058899852 #
plane-surface $-1 0 0 8.5796201719596077 0 0 1 1 0 0 forward_v I I I I #
coedge $-1 $301 $300 $293 $374 forward $196 $-1 #
coedge $-1 $293 $198 $200 $297 reversed $117 $-1 #
coedge $-1 $198 $292 $291 $374 reversed $117 $-1 #
coedge $-1 $206 $201 $198 $295 forward $207 $-1 #
edge $-1 $298 -30.555078436548651 $375 -25.274159036564942 $294 $376 forward 7 unknown #
coedge $-1 $200 $199 $301 $377 reversed $73 $-1 #
edge $-1 $378 -1.3873710548170279e-014 $298 6.8937507387731563 $292 $379 forward 7 unknown #
vertex $-1 $202 $380 #
straight-curve $-1 -4.2773712717220889 -19.959555925442803 8.5796201719596077 -1 0 0 I I #
coedge $-1 $291 $203 $206 $305 reversed $196 $-1 #
coedge $-1 $203 $291 $296 $377 forward $196 $-1 #
vertex $-1 $204 $381 #
straight-curve $-1 6.2269928643398735 -25.240475325426509 47.234983738836533 0 0 1 I I #
straight-curve $-1 6.2269928643398735 -25.240475325426502 4.1484025583446709 0 -0.76604443648966558 -0.64278761758704617 I I #
edge $-1 $375 -23.336477951228229 $208 6.2269928643398735 $300 $382 forward 7 unknown #
point $-1 6.2269928643398735 -25.240475325426512 8.5796201719596077 #
point $-1 6.2269928643398735 -19.959555925442803 8.5796201719596077 #
edge $-1 $383 1 $383 0 $211 $-1 forward 7 unknown #
vertex $-1 $212 $384 #
ellipse-curve $-1 -14.889772003923056 -20.400860809015835 3.7431607669077498 0 -0.64278761758704617 0.76604443648966558 1 0 0 1 I I #
point $-1 -13.889772003923056 -22.600015625434665 6.3640113651521411 #
edge $-1 $385 1 $385 0 $215 $-1 forward 7 unknown #
vertex $-1 $216 $386 #
ellipse-curve $-1 -2.2197130829652991 -20.400860809015835 3.7431607669077498 0 -0.64278761758704617 0.76604443648966558 1 0 0 1 I I #
point $-1 -1.2197130829652991 -22.600015625434665 6.3640113651521411 #
loop $-1 $-1 $227 $219 #
plane-surface $-1 0 25.240475325426512 0 0 -1 0 0 0 -1 forward_v I I I I #
coedge $-1 $319 $222 $224 $323 reversed $139 $-1 #
coedge $-1 $222 $318 $387 $388 reversed $139 $-1 #
coedge $-1 $230 $225 $222 $321 forward $220 $-1 #
edge $-1 $324 -11.219752739150998 $389 -5.9388333391672852 $320 $390 forward 7 unknown #
coedge $-1 $224 $223 $327 $391 reversed $87 $-1 #
edge $-1 $392 -50.480950650853032 $324 -43.587199912079853 $318 $393 forward 7 unknown #
vertex $-1 $226 $394 #
straight-curve $-1 -4.2773712717220889 19.959555925442793 8.5796201719596077 1 0 0 I I #
coedge $-1 $387 $227 $230 $331 reversed $316 $-1 #
coedge $-1 $227 $387 $322 $391 forward $316 $-1 #
vertex $-1 $228 $395 #
straight-curve $-1 -23.336477951228229 25.240475325426512 63.459248740032059 0 0 1 I I #
straight-curve $-1 -23.336477951228229 -13.430176069368812 36.596932560735723 0 0.76604443648966558 -0.64278761758704617 I I #
edge $-1 $389 -6.2269928643398735 $231 23.336477951228229 $326 $396 forward 7 unknown #
point $-1 -23.336477951228229 25.240475325426512 8.5796201719596077 #
point $-1 -23.336477951228229 19.9595559254428 8.5796201719596077 #
edge $-1 $397 1 $397 0 $234 $-1 forward 7 unknown #
vertex $-1 $235 $398 #
ellipse-curve $-1 -14.889772003923056 20.400860809015843 3.7431607669077533 0 0.64278761758704617 0.76604443648966558 1 0 0 1 I I #
point $-1 -13.889772003923056 22.600015625434672 6.3640113651521446 #
edge $-1 $399 1 $399 0 $238 $-1 forward 7 unknown #
vertex $-1 $239 $400 #
ellipse-curve $-1 -2.2197130829652991 20.400860809015843 3.7431607669077533 0 0.64278761758704617 0.76604443648966558 1 0 0 1 I I #
point $-1 -1.2197130829652991 22.600015625434672 6.3640113651521446 #
plane-surface $-1 58.953215124973298 0 0 -1 0 0 0 0 1 forward_v I I I I #
coedge $-1 $247 $245 $249 $347 reversed $161 $-1 #
edge $-1 $260 -8.5796201719596077 $349 8.5796201719596077 $259 $401 forward 7 unknown #
vertex $-1 $347 $402 #
straight-curve $-1 -58.953215124973298 -25.240475325426512 0 0 0 -1 I I #
edge $-1 $345 -25.240475325426512 $349 25.240475325426512 $343 $403 forward 7 unknown #
straight-curve $-1 0 -25.240475325426512 -8.5796201719596077 -1 0 0 I I #
vertex $-1 $252 $404 #
straight-curve $-1 0 25.240475325426512 -8.5796201719596077 1 0 0 I I #
point $-1 58.953215124973298 25.240475325426512 -8.5796201719596077 #
point $-1 58.953215124973298 -25.240475325426512 -8.5796201719596077 #
straight-curve $-1 -58.953215124973298 0 8.5796201719596077 0 -1 0 I I #
point $-1 -58.953215124973298 25.240475325426512 8.5796201719596077 #
point $-1 -58.953215124973298 -25.240475325426512 8.5796201719596077 #
straight-curve $-1 58.953215124973298 -25.240475325426512 0 0 0 -1 I I #
straight-curve $-1 58.953215124973298 25.240475325426512 0 0 0 -1 I I #
plane-surface $-1 0 -25.240475325426512 0 0 1 0 0 0 1 forward_v I I I I #
coedge $-1 $405 $272 $282 $370 reversed $180 $-1 #
coedge $-1 $272 $405 $285 $372 forward $180 $-1 #
coedge $-1 $406 $275 $273 $362 forward $270 $-1 #
edge $-1 $363 49.569492851872667 $407 58.953215124973298 $273 $408 forward 7 unknown #
vertex $-1 $362 $409 #
straight-curve $-1 -49.569492851872667 25.240475325426512 3.5057778077148649 0 0 -1 I I #
coedge $-1 $275 $406 $277 $367 forward $270 $-1 #
straight-curve $-1 -49.569492851872667 0 8.5796201719596077 0 1 0 I I #
edge $-1 $410 -58.953215124973298 $279 -49.569492851872667 $277 $411 forward 7 unknown #
point $-1 -49.569492851872667 -25.240475325426512 8.5796201719596077 #
straight-curve $-1 -58.953215124973298 0 5.443491058899852 0 -1 0 I I #
edge $-1 $410 -8.5796201719596077 $283 -5.443491058899852 $359 $412 forward 7 unknown #
point $-1 -58.953215124973298 -25.240475325426512 5.443491058899852 #
edge $-1 $407 -8.5796201719596077 $286 -5.443491058899852 $285 $413 forward 7 unknown #
point $-1 -58.953215124973298 25.240475325426512 5.443491058899852 #
edge $-1 $375 38.655363566876929 $378 43.086581180491869 $291 $414 forward 7 unknown #
vertex $-1 $305 $415 #
straight-curve $-1 -23.336477951228229 -50.514634361991455 8.5796201719596112 0 -1 0 I I #
edge $-1 $378 -19.05910667950614 $302 10.504364136061962 $301 $416 forward 7 unknown #
vertex $-1 $377 $417 #
straight-curve $-1 -23.336477951228229 -25.240475325426502 4.1484025583446709 0 0.76604443648966558 0.64278761758704617 I I #
point $-1 -23.336477951228229 -19.959555925442803 8.5796201719596077 #
point $-1 6.2269928643398735 -25.240475325426512 4.148402558344662 #
straight-curve $-1 0 -25.240475325426512 8.5796201719596077 1 0 0 I I #
vertex $-1 $308 $418 #
point $-1 -13.889772003923056 -20.400860809015835 3.7431607669077498 #
vertex $-1 $312 $419 #
point $-1 -1.2197130829652991 -20.400860809015835 3.7431607669077498 #
coedge $-1 $327 $326 $319 $388 forward $316 $-1 #
edge $-1 $389 54.879628568072448 $392 59.310846181687403 $387 $420 forward 7 unknown #
vertex $-1 $331 $421 #
straight-curve $-1 6.2269928643398735 31.179308664593798 8.5796201719596041 0 1 0 I I #
edge $-1 $392 -10.504364136061962 $328 19.05910667950614 $327 $422 forward 7 unknown #
vertex $-1 $391 $423 #
straight-curve $-1 6.2269928643398735 -13.430176069368812 36.596932560735723 0 -0.76604443648966558 0.64278761758704617 I I #
point $-1 6.2269928643398735 19.9595559254428 8.5796201719596077 #
point $-1 -23.336477951228229 25.240475325426516 4.1484025583446567 #
straight-curve $-1 0 25.240475325426512 8.5796201719596077 -1 0 0 I I #
vertex $-1 $334 $424 #
point $-1 -13.889772003923056 20.400860809015843 3.7431607669077533 #
vertex $-1 $338 $425 #
point $-1 -1.2197130829652991 20.400860809015843 3.7431607669077533 #
straight-curve $-1 -58.953215124973298 25.240475325426512 0 0 0 -1 I I #
point $-1 -58.953215124973298 -25.240475325426512 -8.5796201719596077 #
straight-curve $-1 -58.953215124973298 0 -8.5796201719596077 0 1 0 I I #
point $-1 -58.953215124973298 25.240475325426512 -8.5796201719596077 #
coedge $-1 $360 $359 $406 $426 reversed $180 $-1 #
coedge $-1 $365 $361 $405 $426 forward $270 $-1 #
vertex $-1 $362 $427 #
straight-curve $-1 0 25.240475325426512 8.5796201719596077 -1 0 0 I I #
point $-1 -49.569492851872667 25.240475325426512 8.5796201719596077 #
vertex $-1 $426 $428 #
straight-curve $-1 0 -25.240475325426512 8.5796201719596077 1 0 0 I I #
straight-curve $-1 -58.953215124973298 -25.240475325426512 0 0 0 -1 I I #
straight-curve $-1 -58.953215124973298 25.240475325426512 0 0 0 -1 I I #
straight-curve $-1 -23.336477951228229 -25.240475325426509 47.234983738836533 0 0 -1 I I #
point $-1 -23.336477951228229 -25.240475325426512 8.5796201719596077 #
straight-curve $-1 -4.2773712717220889 -25.240475325426512 4.1484025583446646 1 0 0 I I #
point $-1 -23.336477951228229 -25.240475325426512 4.148402558344662 #
point $-1 -14.889772003923056 -19.758073191428789 2.9771163304180841 #
point $-1 -2.2197130829652991 -19.758073191428789 2.9771163304180841 #
straight-curve $-1 6.2269928643398735 25.240475325426512 63.459248740032059 0 0 -1 I I #
point $-1 6.2269928643398735 25.240475325426512 8.5796201719596077 #
straight-curve $-1 -4.2773712717220889 25.240475325426509 4.148402558344662 -1 0 0 I I #
point $-1 6.2269928643398735 25.240475325426516 4.1484025583446567 #
point $-1 -14.889772003923056 19.758073191428796 2.9771163304180877 #
point $-1 -2.2197130829652991 19.758073191428796 2.9771163304180877 #
edge $-1 $407 -25.240475325426512 $410 25.240475325426512 $405 $429 forward 7 unknown #
point $-1 -58.953215124973298 25.240475325426512 8.5796201719596077 #
point $-1 -58.953215124973298 -25.240475325426512 8.5796201719596077 #
straight-curve $-1 -58.953215124973298 0 8.5796201719596077 0 -1 0 I I #
End-of-ACIS-data 