500 0 8 0           
7 Unknown 11 ACIS 5.0 NT 24 Thu Mar 25 16:06:59 1999 
-1 9.9999999999999995e-007 1e-010 
body $-1 $8 $-1 $9 #
body $-1 $10 $-1 $11 #
body $-1 $12 $-1 $13 #
body $-1 $14 $-1 $15 #
body $-1 $16 $-1 $17 #
body $-1 $18 $-1 $19 #
body $-1 $20 $-1 $21 #
body $-1 $22 $-1 $23 #
lump $-1 $-1 $24 $0 #
transform $-1 1 0 0 0 1 0 0 0 1 41.954405346842861 28.874494971733515 12.776525624734246 1 rotate no_reflect no_shear #
lump $-1 $-1 $25 $1 #
transform $-1 1 0 0 0 1 0 0 0 1 41.954405346842861 28.874494971733515 12.776525624734246 1 rotate no_reflect no_shear #
lump $-1 $-1 $26 $2 #
transform $-1 1 0 0 0 1 0 0 0 1 41.954405346842861 28.874494971733515 12.776525624734246 1 rotate no_reflect no_shear #
lump $-1 $-1 $27 $3 #
transform $-1 1 0 0 0 1 0 0 0 1 41.954405346842861 28.874494971733515 12.776525624734246 1 rotate no_reflect no_shear #
lump $-1 $-1 $28 $4 #
transform $-1 1 0 0 0 1 0 0 0 1 41.954405346842861 28.874494971733515 12.776525624734246 1 rotate no_reflect no_shear #
lump $-1 $-1 $29 $5 #
transform $-1 1 0 0 0 1 0 0 0 1 41.954405346842861 28.874494971733515 12.776525624734246 1 rotate no_reflect no_shear #
lump $-1 $-1 $30 $6 #
transform $-1 1 0 0 0 1 0 0 0 1 41.954405346842861 28.874494971733515 12.776525624734246 1 rotate no_reflect no_shear #
lump $-1 $-1 $31 $7 #
transform $-1 1 0 0 0 1 0 0 0 1 41.954405346842861 28.874494971733515 12.776525624734246 1 rotate no_reflect no_shear #
shell $-1 $-1 $-1 $32 $-1 $8 #
shell $-1 $-1 $-1 $33 $-1 $10 #
shell $-1 $-1 $-1 $34 $-1 $12 #
shell $-1 $-1 $-1 $35 $-1 $14 #
shell $-1 $-1 $-1 $36 $-1 $16 #
shell $-1 $-1 $-1 $37 $-1 $18 #
shell $-1 $-1 $-1 $38 $-1 $20 #
shell $-1 $-1 $-1 $39 $-1 $22 #
face $-1 $40 $41 $24 $-1 $42 forward single #
face $-1 $43 $44 $25 $-1 $45 reversed single #
face $-1 $46 $47 $26 $-1 $48 reversed single #
face $-1 $49 $50 $27 $-1 $51 forward single #
face $-1 $52 $53 $28 $-1 $54 reversed single #
face $-1 $55 $56 $29 $-1 $57 forward single #
face $-1 $58 $59 $30 $-1 $60 reversed single #
face $-1 $61 $62 $31 $-1 $63 forward single #
face $-1 $64 $65 $24 $-1 $66 reversed single #
loop $-1 $-1 $67 $32 #
plane-surface $-1 0 0 12.776525624734246 0 0 1 1 0 0 forward_v I I I I #
face $-1 $68 $69 $25 $-1 $70 reversed single #
loop $-1 $-1 $71 $33 #
plane-surface $-1 -21.168444370602799 -23.243344729049387 0 1 0 0 0 0 -1 forward_v I I I I #
face $-1 $72 $73 $26 $-1 $74 reversed single #
loop $-1 $-1 $75 $34 #
plane-surface $-1 -90.082522583252171 -13.906656489163606 70.803532949363131 0 1 0 -0.57357644374324357 0 0.81915203911291934 forward_v I I I I #
face $-1 $76 $77 $27 $-1 $78 forward single #
loop $-1 $79 $80 $35 #
cone-surface $-1 -33.129669010112416 -8.9281682019325856 5.7390647980225413 0.57357644374324357 0 -0.81915203911291934 1.228728058669379 0 0.86036466561486535 1 I I 0 1 1.5 forward I I I I #
face $-1 $81 $82 $28 $-1 $83 reversed single #
loop $-1 $-1 $84 $36 #
plane-surface $-1 -90.082522583252171 9.3366882398857811 70.803532949363131 0 1 0 -0.57357644374324357 0 0.81915203911291934 forward_v I I I I #
face $-1 $85 $86 $29 $-1 $87 forward single #
loop $-1 $88 $89 $37 #
cone-surface $-1 -33.129669010112416 14.315176527116801 5.7390647980225413 0.57357644374324357 0 -0.81915203911291934 1.228728058669379 0 0.86036466561486535 1 I I 0 1 1.5 forward I I I I #
face $-1 $90 $91 $30 $-1 $92 reversed single #
loop $-1 $-1 $93 $38 #
plane-surface $-1 64.596752283629456 -1.9904549847379904 116.76612607062167 0 -1 0 -0.82903758062907751 0 -0.55919289150049634 forward_v I I I I #
face $-1 $94 $95 $31 $-1 $96 forward single #
loop $-1 $97 $98 $39 #
cone-surface $-1 36.2527726178714 -5.2291965152854765 5.5255535676954928 -0.82903758062907751 0 -0.55919289150049634 0.83878933725074445 0 -1.2435563709436162 1 I I 0 1 1.5 forward I I I I #
face $-1 $99 $100 $24 $-1 $101 reversed single #
loop $-1 $-1 $102 $40 #
plane-surface $-1 0 0 -12.776525624734246 0 0 1 1 0 0 forward_v I I I I #
coedge $-1 $103 $104 $105 $106 forward $41 $-1 #
face $-1 $107 $108 $25 $-1 $109 reversed single #
loop $-1 $-1 $110 $43 #
plane-surface $-1 -18.784899233988583 -17.612194486365258 0 0 -1 0 0 0 -1 forward_v I I I I #
coedge $-1 $111 $112 $113 $114 forward $44 $-1 #
face $-1 $115 $116 $26 $-1 $117 reversed single #
loop $-1 $-1 $118 $46 #
plane-surface $-1 -41.954405346842869 -8.9281682019325856 2.0694595700905438 -0.57357644374324357 0 0.81915203911291934 0.81915203911291934 0 0.57357644374324357 forward_v I I I I #
coedge $-1 $119 $120 $121 $122 reversed $47 $-1 #
face $-1 $-1 $123 $27 $-1 $124 forward single #
loop $-1 $125 $126 $49 #
cone-surface $-1 -31.520387715724702 -8.9281682019325856 3.4407729692980045 0.57357644374324357 0 -0.81915203911291934 0.61436402933468948 0 0.43018233280743268 1 I I -0.70710678118654757 0.70710678118654757 0.75 forward I I I I #
loop $-1 $-1 $127 $35 #
coedge $-1 $80 $80 $128 $129 reversed $50 $-1 #
face $-1 $130 $131 $28 $-1 $132 reversed single #
loop $-1 $-1 $133 $52 #
plane-surface $-1 -41.954405346842869 14.315176527116801 2.0694595700905438 -0.57357644374324357 0 0.81915203911291934 0.81915203911291934 0 0.57357644374324357 forward_v I I I I #
coedge $-1 $134 $135 $136 $137 reversed $53 $-1 #
face $-1 $-1 $138 $29 $-1 $139 forward single #
loop $-1 $140 $141 $55 #
cone-surface $-1 -31.520387715724702 14.315176527116801 3.4407729692980045 0.57357644374324357 0 -0.81915203911291934 0.61436402933468948 0 0.43018233280743268 1 I I -0.70710678118654757 0.70710678118654757 0.75 forward I I I I #
loop $-1 $-1 $142 $37 #
coedge $-1 $89 $89 $143 $144 reversed $56 $-1 #
face $-1 $145 $146 $30 $-1 $147 reversed single #
loop $-1 $-1 $148 $58 #
plane-surface $-1 -4.9668051273270208 -5.2291965152854765 69.844915596451784 0.82903758062907751 0 0.55919289150049634 0.55919289150049634 0 -0.82903758062907751 forward_v I I I I #
coedge $-1 $149 $150 $151 $152 reversed $59 $-1 #
face $-1 $-1 $153 $31 $-1 $154 forward single #
loop $-1 $155 $156 $61 #
cone-surface $-1 34.143410000749554 -5.2291965152854765 4.1027705616508445 -0.82903758062907751 0 -0.55919289150049634 0.41939466862537222 0 -0.62177818547180808 1 I I -0.70710678118654724 0.70710678118654768 0.75 forward I I I I #
loop $-1 $-1 $157 $39 #
coedge $-1 $98 $98 $158 $159 reversed $62 $-1 #
face $-1 $160 $161 $24 $-1 $162 reversed single #
loop $-1 $-1 $163 $64 #
plane-surface $-1 0 -28.874494971733515 0 0 1 0 0 0 1 forward_v I I I I #
coedge $-1 $164 $165 $166 $167 forward $65 $-1 #
coedge $-1 $168 $67 $169 $170 forward $41 $-1 #
coedge $-1 $67 $168 $171 $172 forward $41 $-1 #
coedge $-1 $173 $174 $67 $106 reversed $175 $-1 #
edge $-1 $176 -28.874494971733515 $177 28.874494971733515 $105 $178 forward 7 unknown #
face $-1 $179 $180 $25 $-1 $181 forward single #
loop $-1 $-1 $182 $68 #
plane-surface $-1 -16.401354097374366 -23.243344729049387 0 -1 0 0 0 0 1 forward_v I I I I #
coedge $-1 $183 $184 $185 $186 forward $69 $-1 #
coedge $-1 $187 $71 $188 $189 reversed $44 $-1 #
coedge $-1 $71 $187 $190 $191 reversed $44 $-1 #
coedge $-1 $184 $183 $71 $114 reversed $69 $-1 #
edge $-1 $192 -12.776525624734246 $193 12.776525624734246 $113 $194 forward 7 unknown #
face $-1 $195 $196 $26 $-1 $197 reversed single #
loop $-1 $-1 $198 $72 #
plane-surface $-1 -90.082522583252171 -3.9496799147015667 70.803532949363131 0 -1 0 0.57357644374324357 0 -0.81915203911291934 forward_v I I I I #
coedge $-1 $199 $200 $201 $202 reversed $73 $-1 #
coedge $-1 $120 $75 $203 $204 reversed $47 $-1 #
coedge $-1 $75 $119 $199 $205 reversed $47 $-1 #
coedge $-1 $201 $206 $75 $122 forward $207 $-1 #
edge $-1 $208 3.086855944783224 $209 18.378130695083531 $121 $210 forward 7 unknown #
loop $-1 $-1 $128 $76 #
plane-surface $-1 -41.954405346842869 -8.9281682019325856 2.0694595700905438 -0.57357644374324357 0 0.81915203911291934 0.81915203911291934 0 0.57357644374324357 forward_v I I I I #
loop $-1 $-1 $211 $49 #
coedge $-1 $126 $126 $127 $212 reversed $77 $-1 #
coedge $-1 $127 $127 $126 $212 forward $79 $-1 #
coedge $-1 $128 $128 $80 $129 forward $123 $-1 #
edge $-1 $213 0 $213 6.2831853071796004 $128 $214 forward 7 unknown #
face $-1 $215 $216 $28 $-1 $217 forward single #
loop $-1 $-1 $218 $81 #
plane-surface $-1 -90.082522583252171 19.293664814347821 70.803532949363131 0 -1 0 0.57357644374324357 0 -0.81915203911291934 forward_v I I I I #
coedge $-1 $219 $220 $221 $222 reversed $82 $-1 #
coedge $-1 $135 $84 $223 $224 reversed $53 $-1 #
coedge $-1 $84 $134 $219 $225 reversed $53 $-1 #
coedge $-1 $221 $226 $84 $137 forward $216 $-1 #
edge $-1 $227 3.086855944783224 $228 18.378130695083531 $136 $229 forward 7 unknown #
loop $-1 $-1 $143 $85 #
plane-surface $-1 -41.954405346842869 14.315176527116801 2.0694595700905438 -0.57357644374324357 0 0.81915203911291934 0.81915203911291934 0 0.57357644374324357 forward_v I I I I #
loop $-1 $-1 $230 $55 #
coedge $-1 $141 $141 $142 $231 reversed $86 $-1 #
coedge $-1 $142 $142 $141 $231 forward $88 $-1 #
coedge $-1 $143 $143 $89 $144 forward $138 $-1 #
edge $-1 $232 0 $232 6.2831853071796004 $143 $233 forward 7 unknown #
face $-1 $234 $235 $30 $-1 $236 forward single #
loop $-1 $-1 $237 $90 #
plane-surface $-1 64.596752283629456 -8.4679380458329625 116.76612607062167 0 1 0 0.82903758062907751 0 0.55919289150049634 forward_v I I I I #
coedge $-1 $238 $239 $240 $241 reversed $91 $-1 #
coedge $-1 $150 $93 $242 $243 reversed $59 $-1 #
coedge $-1 $93 $149 $238 $244 reversed $59 $-1 #
coedge $-1 $240 $245 $93 $152 forward $235 $-1 #
edge $-1 $246 -9.6560292050281333 $247 -1.2279326103852881 $151 $248 forward 7 unknown #
loop $-1 $-1 $158 $94 #
plane-surface $-1 -4.9668051273270208 -5.2291965152854765 69.844915596451784 0.82903758062907751 0 0.55919289150049634 0.55919289150049634 0 -0.82903758062907751 forward_v I I I I #
loop $-1 $-1 $249 $61 #
coedge $-1 $156 $156 $157 $250 reversed $95 $-1 #
coedge $-1 $157 $157 $156 $250 forward $97 $-1 #
coedge $-1 $158 $158 $98 $159 forward $153 $-1 #
edge $-1 $251 0 $251 6.2831853071796004 $158 $252 forward 7 unknown #
face $-1 $253 $254 $24 $-1 $255 reversed single #
loop $-1 $-1 $256 $99 #
plane-surface $-1 -41.954405346842861 0 0 1 0 0 0 0 -1 forward_v I I I I #
coedge $-1 $257 $171 $258 $259 forward $100 $-1 #
coedge $-1 $260 $102 $257 $261 forward $65 $-1 #
coedge $-1 $102 $260 $262 $263 forward $65 $-1 #
coedge $-1 $174 $173 $102 $167 reversed $175 $-1 #
edge $-1 $264 -28.874494971733515 $265 28.874494971733515 $166 $266 forward 7 unknown #
coedge $-1 $104 $103 $267 $268 forward $41 $-1 #
coedge $-1 $269 $270 $103 $170 reversed $254 $-1 #
edge $-1 $177 -41.954405346842861 $271 41.954405346842861 $169 $272 forward 7 unknown #
coedge $-1 $163 $273 $104 $172 reversed $100 $-1 #
edge $-1 $274 -41.954405346842861 $176 41.954405346842861 $171 $275 forward 7 unknown #
coedge $-1 $166 $105 $273 $276 forward $175 $-1 #
coedge $-1 $105 $166 $269 $277 reversed $175 $-1 #
loop $-1 $-1 $173 $253 #
vertex $-1 $106 $278 #
vertex $-1 $106 $279 #
straight-curve $-1 41.954405346842861 0 12.776525624734246 0 1 0 I I #
face $-1 $280 $281 $25 $-1 $282 reversed single #
loop $-1 $-1 $283 $107 #
plane-surface $-1 0 0 12.776525624734246 0 0 1 1 0 0 forward_v I I I I #
coedge $-1 $284 $285 $286 $287 reversed $108 $-1 #
coedge $-1 $113 $110 $288 $289 reversed $69 $-1 #
coedge $-1 $110 $113 $290 $291 reversed $69 $-1 #
coedge $-1 $285 $284 $110 $186 reversed $108 $-1 #
edge $-1 $292 -12.776525624734246 $293 12.776525624734246 $185 $294 forward 7 unknown #
coedge $-1 $112 $111 $295 $296 reversed $44 $-1 #
coedge $-1 $288 $297 $111 $189 forward $281 $-1 #
edge $-1 $298 -17.25282260720882 $193 -5.9905221218405647 $188 $299 forward 7 unknown #
coedge $-1 $300 $290 $112 $191 forward $180 $-1 #
edge $-1 $192 5.9905221218405647 $301 17.25282260720882 $190 $302 forward 7 unknown #
vertex $-1 $191 $303 #
vertex $-1 $189 $304 #
straight-curve $-1 -21.168444370602799 -17.612194486365258 0 0 0 -1 I I #
face $-1 $-1 $207 $26 $-1 $305 forward single #
loop $-1 $-1 $306 $115 #
plane-surface $-1 -41.954405346842861 0 0 1 0 0 0 0 -1 forward_v I I I I #
coedge $-1 $307 $308 $309 $310 reversed $116 $-1 #
coedge $-1 $311 $118 $120 $205 forward $73 $-1 #
coedge $-1 $118 $311 $307 $312 forward $73 $-1 #
coedge $-1 $309 $121 $118 $202 forward $207 $-1 #
edge $-1 $209 -9.4425723881973127 $313 0.51440418626472617 $201 $314 forward 7 unknown #
coedge $-1 $315 $316 $119 $204 forward $196 $-1 #
edge $-1 $317 -33.332306904591015 $208 -22.625240849947318 $203 $318 forward 7 unknown #
edge $-1 $209 -18.667199762890935 $317 -8.6223355153435888e-015 $120 $319 forward 7 unknown #
coedge $-1 $121 $309 $315 $320 forward $207 $-1 #
loop $-1 $-1 $309 $195 #
vertex $-1 $204 $321 #
vertex $-1 $122 $322 #
straight-curve $-1 -45.041261291626085 -13.906656489163606 12.776525624734248 1 0 0 I I #
coedge $-1 $211 $211 $-1 $323 reversed $125 $-1 #
edge $-1 $324 0 $324 6.2831853071796004 $126 $325 forward 7 unknown #
vertex $-1 $129 $326 #
ellipse-curve $-1 -34.308767971692703 -8.9281682019325856 7.4229925974123994 -0.57357644374324357 0 0.81915203911291934 1.228728058669379 0 0.86036466561486535 1 I I #
face $-1 $-1 $327 $28 $-1 $328 reversed single #
loop $-1 $-1 $136 $130 #
plane-surface $-1 0 0 12.776525624734246 0 0 1 1 0 0 forward_v I I I I #
coedge $-1 $329 $330 $331 $332 reversed $131 $-1 #
coedge $-1 $333 $133 $135 $225 forward $82 $-1 #
coedge $-1 $133 $333 $329 $334 forward $82 $-1 #
coedge $-1 $331 $136 $133 $222 forward $216 $-1 #
edge $-1 $228 2.1790999763273806 $335 12.13607655078942 $221 $336 forward 7 unknown #
coedge $-1 $337 $338 $134 $224 forward $327 $-1 #
edge $-1 $339 -33.332306904591015 $227 -22.625240849947318 $223 $340 forward 7 unknown #
edge $-1 $228 -18.667199762890935 $339 -8.6223355153435888e-015 $135 $341 forward 7 unknown #
coedge $-1 $136 $331 $337 $342 forward $216 $-1 #
vertex $-1 $224 $343 #
vertex $-1 $137 $344 #
straight-curve $-1 -45.041261291626085 9.3366882398857811 12.776525624734248 1 0 0 I I #
coedge $-1 $230 $230 $-1 $345 reversed $140 $-1 #
edge $-1 $346 0 $346 6.2831853071796004 $141 $347 forward 7 unknown #
vertex $-1 $144 $348 #
ellipse-curve $-1 -34.308767971692703 14.315176527116801 7.4229925974123994 -0.57357644374324357 0 0.81915203911291934 1.228728058669379 0 0.86036466561486535 1 I I #
face $-1 $-1 $349 $30 $-1 $350 reversed single #
loop $-1 $-1 $151 $145 #
plane-surface $-1 0 0 12.776525624734246 0 0 1 1 0 0 forward_v I I I I #
coedge $-1 $351 $352 $353 $354 reversed $146 $-1 #
coedge $-1 $355 $148 $150 $244 forward $91 $-1 #
coedge $-1 $148 $355 $351 $356 forward $91 $-1 #
coedge $-1 $353 $151 $148 $241 forward $235 $-1 #
edge $-1 $247 -0.6241432729047478 $357 5.8533397881902243 $240 $358 forward 7 unknown #
coedge $-1 $359 $360 $149 $243 forward $349 $-1 #
edge $-1 $361 -58.101704849815512 $246 -45.606537410576586 $242 $362 forward 7 unknown #
edge $-1 $247 68.836915605700028 $361 83.908810693685709 $150 $363 forward 7 unknown #
coedge $-1 $151 $353 $359 $364 forward $235 $-1 #
vertex $-1 $243 $365 #
vertex $-1 $152 $366 #
straight-curve $-1 32.298376141814728 -1.9904549847379904 12.776525624734248 -1 0 0 I I #
coedge $-1 $249 $249 $-1 $367 reversed $155 $-1 #
edge $-1 $368 0 $368 6.2831853071796004 $156 $369 forward 7 unknown #
vertex $-1 $159 $370 #
ellipse-curve $-1 37.74035704952145 -5.2291965152854765 6.5289419051147721 0.82903758062907751 0 0.55919289150049634 0.83878933725074445 0 -1.2435563709436162 1 I I #
face $-1 $-1 $175 $24 $-1 $371 reversed single #
loop $-1 $-1 $269 $160 #
plane-surface $-1 0 28.874494971733515 0 0 -1 0 0 0 -1 forward_v I I I I #
coedge $-1 $372 $267 $270 $373 forward $161 $-1 #
coedge $-1 $273 $163 $164 $261 reversed $100 $-1 #
coedge $-1 $267 $372 $163 $259 reversed $161 $-1 #
edge $-1 $274 -12.776525624734246 $374 12.776525624734246 $258 $375 forward 7 unknown #
coedge $-1 $165 $164 $372 $376 forward $65 $-1 #
edge $-1 $265 -41.954405346842861 $374 41.954405346842861 $257 $377 forward 7 unknown #
coedge $-1 $270 $269 $165 $263 reversed $254 $-1 #
edge $-1 $378 -41.954405346842861 $264 41.954405346842861 $262 $379 forward 7 unknown #
vertex $-1 $167 $380 #
vertex $-1 $276 $381 #
straight-curve $-1 41.954405346842861 0 -12.776525624734246 0 -1 0 I I #
coedge $-1 $256 $258 $168 $268 reversed $161 $-1 #
edge $-1 $271 -28.874494971733515 $274 28.874494971733515 $267 $382 forward 7 unknown #
coedge $-1 $262 $169 $174 $277 forward $254 $-1 #
coedge $-1 $169 $262 $256 $373 reversed $254 $-1 #
vertex $-1 $170 $383 #
straight-curve $-1 0 28.874494971733515 12.776525624734246 -1 0 0 I I #
coedge $-1 $171 $257 $173 $276 reversed $100 $-1 #
vertex $-1 $268 $384 #
straight-curve $-1 0 -28.874494971733515 12.776525624734246 1 0 0 I I #
edge $-1 $176 -12.776525624734246 $265 12.776525624734246 $173 $385 forward 7 unknown #
edge $-1 $177 -12.776525624734246 $264 12.776525624734246 $174 $386 forward 7 unknown #
point $-1 41.954405346842861 -28.874494971733515 12.776525624734246 #
point $-1 41.954405346842861 28.874494971733515 12.776525624734246 #
face $-1 $-1 $387 $25 $-1 $388 reversed single #
loop $-1 $-1 $389 $179 #
plane-surface $-1 0 0 -12.776525624734246 0 0 1 1 0 0 forward_v I I I I #
coedge $-1 $290 $300 $285 $390 forward $180 $-1 #
coedge $-1 $185 $182 $389 $391 reversed $108 $-1 #
coedge $-1 $182 $185 $283 $390 reversed $108 $-1 #
coedge $-1 $392 $393 $182 $287 forward $387 $-1 #
edge $-1 $394 -12.776525624734246 $395 12.776525624734246 $286 $396 forward 7 unknown #
coedge $-1 $389 $188 $183 $289 forward $281 $-1 #
edge $-1 $193 -11.775994753608508 $293 -7.0089044803800746 $288 $397 forward 7 unknown #
coedge $-1 $190 $283 $184 $291 forward $180 $-1 #
edge $-1 $292 7.0089044803800746 $192 11.775994753608508 $290 $398 forward 7 unknown #
vertex $-1 $291 $399 #
vertex $-1 $289 $400 #
straight-curve $-1 -16.401354097374366 -17.612194486365258 0 0 0 -1 I I #
coedge $-1 $393 $392 $187 $296 forward $387 $-1 #
edge $-1 $301 -12.776525624734246 $298 12.776525624734246 $295 $401 forward 7 unknown #
coedge $-1 $188 $389 $393 $402 forward $281 $-1 #
vertex $-1 $189 $403 #
straight-curve $-1 -21.168444370602799 -11.621672364524693 -12.776525624734246 0 1 0 I I #
coedge $-1 $283 $190 $392 $404 forward $180 $-1 #
vertex $-1 $404 $405 #
straight-curve $-1 -21.168444370602799 -11.621672364524693 12.776525624734246 0 -1 0 I I #
point $-1 -21.168444370602799 -17.612194486365258 12.776525624734246 #
point $-1 -21.168444370602799 -17.612194486365258 -12.776525624734246 #
plane-surface $-1 0 0 12.776525624734246 0 0 1 1 0 0 forward_v I I I I #
coedge $-1 $316 $315 $308 $406 forward $196 $-1 #
coedge $-1 $308 $198 $200 $312 reversed $116 $-1 #
coedge $-1 $198 $307 $306 $406 reversed $116 $-1 #
coedge $-1 $206 $201 $198 $310 forward $207 $-1 #
edge $-1 $313 -18.378130695083531 $407 -3.086855944783224 $309 $408 forward 7 unknown #
coedge $-1 $200 $199 $316 $409 reversed $73 $-1 #
edge $-1 $410 8.6223355153435888e-015 $313 18.667199762890935 $307 $411 forward 7 unknown #
vertex $-1 $202 $412 #
straight-curve $-1 -26.663130596542551 -4.4640841009662928 12.776525624734246 0 1 0 I I #
coedge $-1 $306 $203 $206 $320 reversed $196 $-1 #
coedge $-1 $203 $306 $311 $409 forward $196 $-1 #
vertex $-1 $204 $413 #
straight-curve $-1 -41.954405346842861 -13.906656489163606 35.401766474681565 0 0 1 I I #
straight-curve $-1 -41.954405346842869 -13.906656489163606 2.0694595700905438 -0.81915203911291934 0 -0.57357644374324357 I I #
edge $-1 $407 3.9496799147015667 $208 13.906656489163606 $315 $414 forward 7 unknown #
point $-1 -41.954405346842861 -13.906656489163606 12.776525624734246 #
point $-1 -26.663130596542555 -13.906656489163606 12.776525624734246 #
edge $-1 $415 1 $415 0 $211 $-1 forward 7 unknown #
vertex $-1 $212 $416 #
ellipse-curve $-1 -31.950570048532136 -8.9281682019325856 4.0551369986326939 -0.57357644374324357 0 0.81915203911291934 1.228728058669379 0 0.86036466561486535 1 I I #
point $-1 -33.08003991302332 -8.9281682019325856 8.2833572630272556 #
loop $-1 $-1 $223 $215 #
plane-surface $-1 -41.954405346842861 0 0 1 0 0 0 0 -1 forward_v I I I I #
coedge $-1 $330 $218 $220 $334 reversed $131 $-1 #
coedge $-1 $218 $329 $417 $418 reversed $131 $-1 #
coedge $-1 $226 $221 $218 $332 forward $216 $-1 #
edge $-1 $335 -18.378130695083531 $419 -3.086855944783224 $331 $420 forward 7 unknown #
coedge $-1 $220 $219 $338 $421 reversed $82 $-1 #
edge $-1 $422 8.6223355153435888e-015 $335 18.667199762890935 $329 $423 forward 7 unknown #
vertex $-1 $222 $424 #
straight-curve $-1 -26.663130596542551 7.1575882635584005 12.776525624734246 0 1 0 I I #
coedge $-1 $417 $223 $226 $342 reversed $327 $-1 #
coedge $-1 $223 $417 $333 $421 forward $327 $-1 #
vertex $-1 $224 $425 #
straight-curve $-1 -41.954405346842861 9.3366882398857811 35.401766474681565 0 0 1 I I #
straight-curve $-1 -41.954405346842869 9.3366882398857811 2.0694595700905438 -0.81915203911291934 0 -0.57357644374324357 I I #
edge $-1 $419 -19.293664814347821 $227 -9.3366882398857811 $337 $426 forward 7 unknown #
point $-1 -41.954405346842861 9.3366882398857811 12.776525624734246 #
point $-1 -26.663130596542555 9.3366882398857811 12.776525624734246 #
edge $-1 $427 1 $427 0 $230 $-1 forward 7 unknown #
vertex $-1 $231 $428 #
ellipse-curve $-1 -31.950570048532136 14.315176527116801 4.0551369986326939 -0.57357644374324357 0 0.81915203911291934 1.228728058669379 0 0.86036466561486535 1 I I #
point $-1 -33.08003991302332 14.315176527116801 8.2833572630272556 #
loop $-1 $-1 $242 $234 #
plane-surface $-1 41.954405346842861 0 0 -1 0 0 0 0 1 forward_v I I I I #
coedge $-1 $352 $237 $239 $356 reversed $146 $-1 #
coedge $-1 $237 $351 $429 $430 reversed $146 $-1 #
coedge $-1 $245 $240 $237 $354 forward $235 $-1 #
edge $-1 $357 1.2279326103852881 $431 9.6560292050281333 $353 $432 forward 7 unknown #
coedge $-1 $239 $238 $360 $433 reversed $91 $-1 #
edge $-1 $434 -83.908810693685709 $357 -68.836915605700028 $351 $435 forward 7 unknown #
vertex $-1 $241 $436 #
straight-curve $-1 33.526308752200009 -2.6145982576427382 12.776525624734255 0 -1 0 I I #
coedge $-1 $429 $242 $245 $364 reversed $349 $-1 #
coedge $-1 $242 $429 $355 $433 forward $349 $-1 #
vertex $-1 $243 $437 #
straight-curve $-1 41.954405346842861 -1.9904549847379904 58.383063035310833 0 0 1 I I #
straight-curve $-1 -4.9668051273270208 -1.9904549847379904 69.844915596451784 0.55919289150049634 0 -0.82903758062907751 I I #
edge $-1 $431 -8.4679380458329625 $246 -1.9904549847379904 $359 $438 forward 7 unknown #
point $-1 41.954405346842861 -1.9904549847379904 12.776525624734246 #
point $-1 33.526308752200016 -1.9904549847379904 12.776525624734241 #
edge $-1 $439 1 $439 0 $249 $-1 forward 7 unknown #
vertex $-1 $250 $440 #
ellipse-curve $-1 34.765188186221366 -5.2291965152854765 4.522165230276217 0.82903758062907751 0 0.55919289150049634 0.83878933725074445 0 -1.2435563709436162 1 I I #
point $-1 38.579146386772187 -5.2291965152854765 5.2853855341711533 #
plane-surface $-1 41.954405346842861 0 0 -1 0 0 0 0 1 forward_v I I I I #
coedge $-1 $258 $256 $260 $376 reversed $161 $-1 #
edge $-1 $271 -12.776525624734246 $378 12.776525624734246 $270 $441 forward 7 unknown #
vertex $-1 $376 $442 #
straight-curve $-1 -41.954405346842861 -28.874494971733515 0 0 0 -1 I I #
edge $-1 $374 -28.874494971733515 $378 28.874494971733515 $372 $443 forward 7 unknown #
straight-curve $-1 0 -28.874494971733515 -12.776525624734246 -1 0 0 I I #
vertex $-1 $263 $444 #
straight-curve $-1 0 28.874494971733515 -12.776525624734246 1 0 0 I I #
point $-1 41.954405346842861 28.874494971733515 -12.776525624734246 #
point $-1 41.954405346842861 -28.874494971733515 -12.776525624734246 #
straight-curve $-1 -41.954405346842861 0 12.776525624734246 0 -1 0 I I #
point $-1 -41.954405346842861 28.874494971733515 12.776525624734246 #
point $-1 -41.954405346842861 -28.874494971733515 12.776525624734246 #
straight-curve $-1 41.954405346842861 -28.874494971733515 0 0 0 -1 I I #
straight-curve $-1 41.954405346842861 28.874494971733515 0 0 0 -1 I I #
loop $-1 $-1 $286 $280 #
plane-surface $-1 0 -28.874494971733515 0 0 1 0 0 0 1 forward_v I I I I #
coedge $-1 $297 $288 $284 $391 forward $281 $-1 #
edge $-1 $395 -17.25282260720882 $292 -5.9905221218405647 $283 $445 forward 7 unknown #
edge $-1 $293 5.9905221218405647 $394 17.25282260720882 $389 $446 forward 7 unknown #
coedge $-1 $295 $286 $300 $404 reversed $387 $-1 #
coedge $-1 $286 $295 $297 $402 reversed $387 $-1 #
vertex $-1 $402 $447 #
vertex $-1 $287 $448 #
straight-curve $-1 -16.401354097374366 -28.874494971733515 0 0 0 1 I I #
straight-curve $-1 -9.3924496169942913 -17.612194486365258 -12.776525624734246 1 0 0 I I #
straight-curve $-1 -9.3924496169942913 -17.612194486365258 12.776525624734246 -1 0 0 I I #
point $-1 -16.401354097374366 -17.612194486365258 12.776525624734246 #
point $-1 -16.401354097374366 -17.612194486365258 -12.776525624734246 #
straight-curve $-1 -21.168444370602799 -28.874494971733515 0 0 0 -1 I I #
edge $-1 $394 16.401354097374366 $298 21.168444370602799 $393 $449 forward 7 unknown #
point $-1 -21.168444370602799 -28.874494971733515 -12.776525624734246 #
edge $-1 $301 -21.168444370602799 $395 -16.401354097374366 $392 $450 forward 7 unknown #
point $-1 -21.168444370602799 -28.874494971733515 12.776525624734246 #
edge $-1 $407 22.625240849947318 $410 33.332306904591015 $306 $451 forward 7 unknown #
vertex $-1 $320 $452 #
straight-curve $-1 -45.041261291626085 -3.9496799147015667 12.776525624734248 -1 0 0 I I #
edge $-1 $410 -0.51440418626472617 $317 9.4425723881973127 $316 $453 forward 7 unknown #
vertex $-1 $409 $454 #
straight-curve $-1 -41.954405346842869 -3.9496799147015667 2.0694595700905438 0.81915203911291934 0 0.57357644374324357 I I #
point $-1 -26.663130596542555 -3.9496799147015667 12.776525624734246 #
point $-1 -41.954405346842861 -13.906656489163606 2.0694595700905487 #
straight-curve $-1 -41.954405346842861 0 12.776525624734246 0 -1 0 I I #
vertex $-1 $323 $455 #
point $-1 -30.721841989862757 -8.9281682019325856 4.9155016642475591 #
coedge $-1 $338 $337 $330 $418 forward $327 $-1 #
edge $-1 $419 22.625240849947318 $422 33.332306904591015 $417 $456 forward 7 unknown #
vertex $-1 $342 $457 #
straight-curve $-1 -45.041261291626085 19.293664814347821 12.776525624734248 -1 0 0 I I #
edge $-1 $422 -12.13607655078942 $339 -2.1790999763273806 $338 $458 forward 7 unknown #
vertex $-1 $421 $459 #
straight-curve $-1 -41.954405346842869 19.293664814347821 2.0694595700905438 0.81915203911291934 0 0.57357644374324357 I I #
point $-1 -26.663130596542555 19.293664814347821 12.776525624734246 #
point $-1 -41.954405346842861 9.3366882398857811 2.0694595700905487 #
straight-curve $-1 -41.954405346842861 0 12.776525624734246 0 -1 0 I I #
vertex $-1 $345 $460 #
point $-1 -30.721841989862757 14.315176527116801 4.9155016642475591 #
coedge $-1 $360 $359 $352 $430 forward $349 $-1 #
edge $-1 $431 45.606537410576586 $434 58.101704849815512 $429 $461 forward 7 unknown #
vertex $-1 $364 $462 #
straight-curve $-1 32.298376141814728 -8.4679380458329625 12.776525624734248 1 0 0 I I #
edge $-1 $434 -5.8533397881902243 $361 0.6241432729047478 $360 $463 forward 7 unknown #
vertex $-1 $433 $464 #
straight-curve $-1 -4.9668051273270208 -8.4679380458329625 69.844915596451784 -0.55919289150049634 0 0.82903758062907751 I I #
point $-1 33.526308752200016 -8.4679380458329625 12.776525624734241 #
point $-1 41.954405346842861 -1.9904549847379904 0.28135818549532132 #
straight-curve $-1 41.954405346842861 0 12.776525624734246 0 1 0 I I #
vertex $-1 $367 $465 #
point $-1 35.603977523472111 -5.2291965152854765 3.2786088593326008 #
straight-curve $-1 -41.954405346842861 28.874494971733515 0 0 0 -1 I I #
point $-1 -41.954405346842861 -28.874494971733515 -12.776525624734246 #
straight-curve $-1 -41.954405346842861 0 -12.776525624734246 0 1 0 I I #
point $-1 -41.954405346842861 28.874494971733515 -12.776525624734246 #
straight-curve $-1 -16.401354097374366 -11.621672364524693 12.776525624734246 0 1 0 I I #
straight-curve $-1 -16.401354097374366 -11.621672364524693 -12.776525624734246 0 -1 0 I I #
point $-1 -16.401354097374366 -28.874494971733515 -12.776525624734246 #
point $-1 -16.401354097374366 -28.874494971733515 12.776525624734246 #
straight-curve $-1 0 -28.874494971733515 -12.776525624734246 -1 0 0 I I #
straight-curve $-1 0 -28.874494971733515 12.776525624734246 1 0 0 I I #
straight-curve $-1 -41.954405346842861 -3.9496799147015667 35.401766474681565 0 0 -1 I I #
point $-1 -41.954405346842861 -3.9496799147015667 12.776525624734246 #
straight-curve $-1 -41.954405346842861 -4.4640841009662928 2.0694595700905465 0 -1 0 I I #
point $-1 -41.954405346842861 -3.9496799147015667 2.0694595700905487 #
point $-1 -31.090205382917269 -8.9281682019325856 2.826408939963315 #
straight-curve $-1 -41.954405346842861 19.293664814347821 35.401766474681565 0 0 -1 I I #
point $-1 -41.954405346842861 19.293664814347821 12.776525624734246 #
straight-curve $-1 -41.954405346842861 7.1575882635584005 2.0694595700905465 0 -1 0 I I #
point $-1 -41.954405346842861 19.293664814347821 2.0694595700905487 #
point $-1 -31.090205382917269 14.315176527116801 2.826408939963315 #
straight-curve $-1 41.954405346842861 -8.4679380458329625 58.383063035310833 0 0 -1 I I #
point $-1 41.954405346842861 -8.4679380458329625 12.776525624734246 #
straight-curve $-1 41.954405346842861 -2.6145982576427382 0.28135818549531422 0 1 0 I I #
point $-1 41.954405346842861 -8.4679380458329625 0.28135818549532132 #
point $-1 33.521631815277743 -5.2291965152854765 3.6833758930254721 #
End-of-ACIS-data 