500 0 11 0           
7 Unknown 11 ACIS 5.0 NT 24 Fri Mar 26 14:21:48 1999 
-1 9.9999999999999995e-007 1e-010 
body $-1 $11 $-1 $12 #
body $-1 $13 $-1 $14 #
body $-1 $15 $-1 $16 #
body $-1 $17 $-1 $18 #
body $-1 $19 $-1 $20 #
body $-1 $21 $-1 $22 #
body $-1 $23 $-1 $24 #
body $-1 $25 $-1 $26 #
body $-1 $27 $-1 $28 #
body $-1 $29 $-1 $30 #
body $-1 $31 $-1 $32 #
lump $-1 $-1 $33 $0 #
transform $-1 1 0 0 0 1 0 0 0 1 72.708517715994759 44.228444653675311 14.782048670316472 1 rotate no_reflect no_shear #
lump $-1 $-1 $34 $1 #
transform $-1 1 0 0 0 1 0 0 0 1 72.708517715994759 44.228444653675311 14.782048670316472 1 rotate no_reflect no_shear #
lump $-1 $-1 $35 $2 #
transform $-1 1 0 0 0 1 0 0 0 1 72.708517715994759 44.228444653675311 14.782048670316472 1 rotate no_reflect no_shear #
lump $-1 $-1 $36 $3 #
transform $-1 1 0 0 0 1 0 0 0 1 72.708517715994759 44.228444653675311 14.782048670316472 1 rotate no_reflect no_shear #
lump $-1 $-1 $37 $4 #
transform $-1 1 0 0 0 1 0 0 0 1 72.708517715994759 44.228444653675311 14.782048670316472 1 rotate no_reflect no_shear #
lump $-1 $-1 $38 $5 #
transform $-1 1 0 0 0 1 0 0 0 1 72.708517715994759 44.228444653675311 14.782048670316472 1 rotate no_reflect no_shear #
lump $-1 $-1 $39 $6 #
transform $-1 1 0 0 0 1 0 0 0 1 72.708517715994759 44.228444653675311 14.782048670316472 1 rotate no_reflect no_shear #
lump $-1 $-1 $40 $7 #
transform $-1 1 0 0 0 1 0 0 0 1 72.708517715994759 44.228444653675311 14.782048670316472 1 rotate no_reflect no_shear #
lump $-1 $-1 $41 $8 #
transform $-1 1 0 0 0 1 0 0 0 1 72.708517715994759 44.228444653675311 14.782048670316472 1 rotate no_reflect no_shear #
lump $-1 $-1 $42 $9 #
transform $-1 1 0 0 0 1 0 0 0 1 72.708517715994759 44.228444653675311 14.782048670316472 1 rotate no_reflect no_shear #
lump $-1 $-1 $43 $10 #
transform $-1 1 0 0 0 1 0 0 0 1 72.708517715994759 44.228444653675311 14.782048670316472 1 rotate no_reflect no_shear #
shell $-1 $-1 $-1 $44 $-1 $11 #
shell $-1 $-1 $-1 $45 $-1 $13 #
shell $-1 $-1 $-1 $46 $-1 $15 #
shell $-1 $-1 $-1 $47 $-1 $17 #
shell $-1 $-1 $-1 $48 $-1 $19 #
shell $-1 $-1 $-1 $49 $-1 $21 #
shell $-1 $-1 $-1 $50 $-1 $23 #
shell $-1 $-1 $-1 $51 $-1 $25 #
shell $-1 $-1 $-1 $52 $-1 $27 #
shell $-1 $-1 $-1 $53 $-1 $29 #
shell $-1 $-1 $-1 $54 $-1 $31 #
face $-1 $55 $56 $33 $-1 $57 forward single #
face $-1 $58 $59 $34 $-1 $60 forward single #
face $-1 $61 $62 $35 $-1 $63 forward single #
face $-1 $64 $65 $36 $-1 $66 reversed single #
face $-1 $67 $68 $37 $-1 $69 forward single #
face $-1 $70 $71 $38 $-1 $72 reversed single #
face $-1 $73 $74 $39 $-1 $75 forward single #
face $-1 $76 $77 $40 $-1 $78 reversed single #
face $-1 $79 $80 $41 $-1 $81 forward single #
face $-1 $82 $83 $42 $-1 $84 reversed single #
face $-1 $85 $86 $43 $-1 $87 forward single #
face $-1 $88 $89 $33 $-1 $90 reversed single #
loop $-1 $-1 $91 $44 #
plane-surface $-1 0 0 14.782048670316472 0 0 1 1 0 0 forward_v I I I I #
face $-1 $92 $93 $34 $-1 $94 reversed single #
loop $-1 $-1 $95 $45 #
plane-surface $-1 -64.460881622767218 0 11.964033905641395 0 0 1 1 0 0 forward_v I I I I #
face $-1 $96 $97 $35 $-1 $98 reversed single #
loop $-1 $-1 $99 $46 #
plane-surface $-1 64.460881622767232 0 11.964033905641395 0 0 1 1 0 0 forward_v I I I I #
face $-1 $100 $101 $36 $-1 $102 reversed single #
loop $-1 $-1 $103 $47 #
plane-surface $-1 -20.363512815809674 -168.87517353034218 82.781409701330006 1 0 0 0 0.85716730853699208 -0.51503806187062418 forward_v I I I I #
face $-1 $104 $105 $37 $-1 $106 forward single #
loop $-1 $107 $108 $48 #
cone-surface $-1 -10.181756407904835 -39.358127101878623 9.6525270306051549 0 0.85716730853699208 -0.51503806187062418 2 0 0 1 I I 0 1 2 forward I I I I #
face $-1 $109 $110 $38 $-1 $111 reversed single #
loop $-1 $-1 $112 $49 #
plane-surface $-1 20.363512815809703 -168.87517353034218 82.781409701330006 -1 0 0 0 -0.85716730853699208 0.51503806187062418 forward_v I I I I #
face $-1 $113 $114 $39 $-1 $115 forward single #
loop $-1 $116 $117 $50 #
cone-surface $-1 10.181756407904857 -39.358127101878623 9.6525270306051549 0 0.85716730853699208 -0.51503806187062418 2 0 0 1 I I 0 1 2 forward I I I I #
face $-1 $118 $119 $40 $-1 $120 reversed single #
loop $-1 $-1 $121 $51 #
plane-surface $-1 1.7763568394002505e-014 123.31650870237995 158.60376343046639 -1 0 0 0 0.85716730853699208 0.51503806187062418 forward_v I I I I #
face $-1 $122 $123 $41 $-1 $124 forward single #
loop $-1 $125 $126 $52 #
cone-surface $-1 -10.181756407904835 39.358127101878637 9.6525270306051372 0 -0.85716730853699208 -0.51503806187062418 2 0 0 1 I I 0 1 2 forward I I I I #
face $-1 $127 $128 $42 $-1 $129 reversed single #
loop $-1 $-1 $130 $53 #
plane-surface $-1 -10.181756407904828 -1.3302201742869215 83.708455338602619 0 0.85716730853699208 0.51503806187062418 1 0 0 forward_v I I I I #
face $-1 $131 $132 $43 $-1 $133 forward single #
loop $-1 $134 $135 $54 #
cone-surface $-1 10.181756407904857 39.358127101878637 9.6525270306051372 0 -0.85716730853699208 -0.51503806187062418 2 0 0 1 I I 0 1 2 forward I I I I #
face $-1 $136 $137 $33 $-1 $138 reversed single #
loop $-1 $-1 $139 $55 #
plane-surface $-1 0 0 -14.782048670316472 0 0 1 1 0 0 forward_v I I I I #
coedge $-1 $140 $141 $142 $143 forward $56 $-1 #
face $-1 $144 $145 $34 $-1 $146 reversed single #
loop $-1 $-1 $147 $58 #
plane-surface $-1 -64.460881622767218 0 6.6356031776352911 0 0 1 1 0 0 forward_v I I I I #
coedge $-1 $148 $149 $150 $151 forward $59 $-1 #
face $-1 $152 $153 $35 $-1 $154 reversed single #
loop $-1 $-1 $155 $61 #
plane-surface $-1 64.460881622767232 0 6.6356031776352911 0 0 1 1 0 0 forward_v I I I I #
coedge $-1 $156 $157 $158 $159 reversed $62 $-1 #
face $-1 $160 $161 $36 $-1 $162 reversed single #
loop $-1 $-1 $163 $64 #
plane-surface $-1 -10.181756407904828 -44.228444653675311 7.8861016094662375 0 -0.85716730853699208 0.51503806187062418 1 0 0 forward_v I I I I #
coedge $-1 $164 $165 $166 $167 reversed $65 $-1 #
face $-1 $-1 $168 $37 $-1 $169 forward single #
loop $-1 $170 $171 $67 #
cone-surface $-1 -10.181756407904835 -35.702393680038739 7.4559408594483205 0 0.85716730853699208 -0.51503806187062418 1 0 0 1 I I -0.70710678118654746 0.70710678118654746 1 forward I I I I #
loop $-1 $-1 $172 $48 #
coedge $-1 $108 $108 $173 $174 reversed $68 $-1 #
face $-1 $175 $176 $38 $-1 $177 reversed single #
loop $-1 $-1 $178 $70 #
plane-surface $-1 -10.181756407904828 -44.228444653675311 7.8861016094662375 0 -0.85716730853699208 0.51503806187062418 1 0 0 forward_v I I I I #
coedge $-1 $179 $180 $181 $182 reversed $71 $-1 #
face $-1 $-1 $183 $39 $-1 $184 forward single #
loop $-1 $185 $186 $73 #
cone-surface $-1 10.181756407904857 -35.702393680038739 7.4559408594483205 0 0.85716730853699208 -0.51503806187062418 1 0 0 1 I I -0.70710678118654746 0.70710678118654746 1 forward I I I I #
loop $-1 $-1 $187 $50 #
coedge $-1 $117 $117 $188 $189 reversed $74 $-1 #
face $-1 $190 $191 $40 $-1 $192 reversed single #
loop $-1 $-1 $193 $76 #
plane-surface $-1 -10.181756407904828 -1.3302201742869215 83.708455338602619 0 0.85716730853699208 0.51503806187062418 1 0 0 forward_v I I I I #
coedge $-1 $194 $195 $196 $197 reversed $77 $-1 #
face $-1 $-1 $198 $41 $-1 $199 forward single #
loop $-1 $200 $201 $79 #
cone-surface $-1 -10.181756407904835 35.702393680038753 7.4559408594483028 0 -0.85716730853699208 -0.51503806187062418 1 0 0 1 I I -0.70710678118654746 0.70710678118654746 1 forward I I I I #
loop $-1 $-1 $202 $52 #
coedge $-1 $126 $126 $203 $204 reversed $80 $-1 #
face $-1 $205 $206 $42 $-1 $207 reversed single #
loop $-1 $-1 $208 $82 #
plane-surface $-1 20.363512815809703 123.31650870237995 158.60376343046639 -1 0 0 0 0.85716730853699208 0.51503806187062418 forward_v I I I I #
coedge $-1 $209 $210 $211 $212 reversed $83 $-1 #
face $-1 $-1 $213 $43 $-1 $214 forward single #
loop $-1 $215 $216 $85 #
cone-surface $-1 10.181756407904857 35.702393680038753 7.4559408594483028 0 -0.85716730853699208 -0.51503806187062418 1 0 0 1 I I -0.70710678118654746 0.70710678118654746 1 forward I I I I #
loop $-1 $-1 $217 $54 #
coedge $-1 $135 $135 $218 $219 reversed $86 $-1 #
face $-1 $220 $221 $33 $-1 $222 reversed single #
loop $-1 $-1 $223 $88 #
plane-surface $-1 0 -44.228444653675311 0 0 1 0 0 0 1 forward_v I I I I #
coedge $-1 $224 $225 $226 $227 forward $89 $-1 #
coedge $-1 $228 $91 $229 $230 forward $56 $-1 #
coedge $-1 $91 $228 $231 $232 forward $56 $-1 #
coedge $-1 $233 $234 $91 $143 reversed $235 $-1 #
edge $-1 $236 -44.228444653675311 $237 44.228444653675311 $142 $238 forward 7 unknown #
face $-1 $239 $240 $34 $-1 $241 reversed single #
loop $-1 $-1 $242 $92 #
plane-surface $-1 -56.213245529539677 0 9.2998185416383432 -1 0 0 0 0 1 forward_v I I I I #
coedge $-1 $243 $244 $245 $246 forward $93 $-1 #
coedge $-1 $247 $95 $248 $249 reversed $59 $-1 #
coedge $-1 $95 $247 $250 $251 reversed $59 $-1 #
coedge $-1 $242 $252 $95 $151 reversed $145 $-1 #
edge $-1 $253 -44.228444653675311 $254 44.228444653675311 $150 $255 forward 7 unknown #
face $-1 $256 $257 $35 $-1 $258 reversed single #
loop $-1 $-1 $259 $96 #
plane-surface $-1 56.213245529539691 0 9.2998185416383432 1 0 0 0 0 -1 forward_v I I I I #
coedge $-1 $260 $261 $262 $263 reversed $97 $-1 #
coedge $-1 $264 $99 $265 $266 reversed $62 $-1 #
coedge $-1 $99 $264 $267 $268 reversed $62 $-1 #
coedge $-1 $269 $270 $99 $159 forward $271 $-1 #
edge $-1 $272 -44.228444653675311 $273 44.228444653675311 $158 $274 forward 7 unknown #
face $-1 $275 $276 $36 $-1 $277 forward single #
loop $-1 $-1 $278 $100 #
plane-surface $-1 1.7763568394002505e-014 -168.87517353034218 82.781409701330006 -1 0 0 0 -0.85716730853699208 0.51503806187062418 forward_v I I I I #
coedge $-1 $279 $280 $281 $282 reversed $101 $-1 #
coedge $-1 $165 $103 $283 $284 reversed $65 $-1 #
coedge $-1 $103 $164 $279 $285 reversed $65 $-1 #
coedge $-1 $281 $286 $103 $167 forward $287 $-1 #
edge $-1 $288 26.608656180348532 $289 33.504603241198765 $166 $290 forward 7 unknown #
loop $-1 $-1 $173 $104 #
plane-surface $-1 -10.181756407904828 -44.228444653675311 7.8861016094662375 0 -0.85716730853699208 0.51503806187062418 1 0 0 forward_v I I I I #
loop $-1 $-1 $291 $67 #
coedge $-1 $171 $171 $172 $292 reversed $105 $-1 #
coedge $-1 $172 $172 $171 $292 forward $107 $-1 #
coedge $-1 $173 $173 $108 $174 forward $168 $-1 #
edge $-1 $293 -1.0684652619956698e-015 $293 6.2831853071795996 $173 $294 forward 7 unknown #
face $-1 $295 $296 $38 $-1 $297 forward single #
loop $-1 $-1 $298 $109 #
plane-surface $-1 0 -44.228444653675311 0 0 1 0 0 0 1 forward_v I I I I #
coedge $-1 $299 $300 $301 $302 reversed $110 $-1 #
coedge $-1 $180 $112 $303 $304 reversed $71 $-1 #
coedge $-1 $112 $179 $305 $306 reversed $71 $-1 #
coedge $-1 $307 $298 $112 $182 forward $176 $-1 #
edge $-1 $308 -33.504603241198765 $309 -26.608656180348532 $181 $310 forward 7 unknown #
loop $-1 $-1 $188 $113 #
plane-surface $-1 -10.181756407904828 -44.228444653675311 7.8861016094662375 0 -0.85716730853699208 0.51503806187062418 1 0 0 forward_v I I I I #
loop $-1 $-1 $311 $73 #
coedge $-1 $186 $186 $187 $312 reversed $114 $-1 #
coedge $-1 $187 $187 $186 $312 forward $116 $-1 #
coedge $-1 $188 $188 $117 $189 forward $183 $-1 #
edge $-1 $313 -1.0684652619956698e-015 $313 6.2831853071795996 $188 $314 forward 7 unknown #
face $-1 $315 $316 $40 $-1 $317 reversed single #
loop $-1 $-1 $318 $118 #
plane-surface $-1 -20.363512815809674 123.31650870237995 158.60376343046639 1 0 0 0 -0.85716730853699208 -0.51503806187062418 forward_v I I I I #
coedge $-1 $319 $320 $321 $322 reversed $119 $-1 #
coedge $-1 $195 $121 $323 $324 reversed $77 $-1 #
coedge $-1 $121 $194 $319 $325 reversed $77 $-1 #
coedge $-1 $321 $326 $121 $197 forward $316 $-1 #
edge $-1 $327 64.519833044916723 $328 71.415780105766984 $196 $329 forward 7 unknown #
loop $-1 $-1 $203 $122 #
plane-surface $-1 -10.181756407904828 -1.3302201742869215 83.708455338602619 0 0.85716730853699208 0.51503806187062418 1 0 0 forward_v I I I I #
loop $-1 $-1 $330 $79 #
coedge $-1 $201 $201 $202 $331 reversed $123 $-1 #
coedge $-1 $202 $202 $201 $331 forward $125 $-1 #
coedge $-1 $203 $203 $126 $204 forward $198 $-1 #
edge $-1 $332 1.2285910259226982e-015 $332 6.2831853071796013 $203 $333 forward 7 unknown #
face $-1 $334 $335 $42 $-1 $336 forward single #
loop $-1 $-1 $337 $127 #
plane-surface $-1 0 44.228444653675311 0 0 -1 0 0 0 -1 forward_v I I I I #
coedge $-1 $338 $339 $340 $341 reversed $128 $-1 #
coedge $-1 $342 $130 $343 $344 reversed $83 $-1 #
coedge $-1 $130 $342 $345 $346 reversed $83 $-1 #
coedge $-1 $347 $348 $130 $212 forward $335 $-1 #
edge $-1 $349 -88.456889307350693 $350 -80.411847234269047 $211 $351 forward 7 unknown #
loop $-1 $-1 $218 $131 #
plane-surface $-1 -10.181756407904828 -1.3302201742869215 83.708455338602619 0 0.85716730853699208 0.51503806187062418 1 0 0 forward_v I I I I #
loop $-1 $-1 $352 $85 #
coedge $-1 $216 $216 $217 $353 reversed $132 $-1 #
coedge $-1 $217 $217 $216 $353 forward $134 $-1 #
coedge $-1 $218 $218 $135 $219 forward $213 $-1 #
edge $-1 $354 1.2285910259226982e-015 $354 6.2831853071796013 $218 $355 forward 7 unknown #
face $-1 $356 $357 $33 $-1 $358 reversed single #
loop $-1 $-1 $359 $136 #
plane-surface $-1 -72.708517715994759 0 0 1 0 0 0 0 -1 forward_v I I I I #
coedge $-1 $360 $231 $361 $362 forward $137 $-1 #
coedge $-1 $363 $139 $360 $364 forward $89 $-1 #
coedge $-1 $139 $363 $365 $366 forward $89 $-1 #
coedge $-1 $234 $233 $139 $227 reversed $235 $-1 #
edge $-1 $367 -44.228444653675311 $368 44.228444653675311 $226 $369 forward 7 unknown #
coedge $-1 $141 $140 $370 $371 forward $56 $-1 #
coedge $-1 $372 $373 $140 $230 reversed $357 $-1 #
edge $-1 $237 -72.708517715994759 $374 72.708517715994759 $229 $375 forward 7 unknown #
coedge $-1 $223 $376 $141 $232 reversed $137 $-1 #
edge $-1 $377 -72.708517715994759 $236 72.708517715994759 $231 $378 forward 7 unknown #
coedge $-1 $226 $142 $376 $379 forward $235 $-1 #
coedge $-1 $142 $226 $372 $380 reversed $235 $-1 #
loop $-1 $-1 $233 $356 #
vertex $-1 $143 $381 #
vertex $-1 $143 $382 #
straight-curve $-1 72.708517715994759 0 14.782048670316472 0 1 0 I I #
face $-1 $383 $384 $34 $-1 $385 reversed single #
loop $-1 $-1 $386 $144 #
plane-surface $-1 0 -44.228444653675311 0 0 1 0 0 0 1 forward_v I I I I #
coedge $-1 $245 $150 $387 $388 reversed $145 $-1 #
coedge $-1 $389 $147 $386 $390 reversed $93 $-1 #
coedge $-1 $147 $389 $391 $392 reversed $93 $-1 #
coedge $-1 $252 $242 $147 $246 reversed $145 $-1 #
edge $-1 $393 -44.228444653675311 $394 44.228444653675311 $245 $395 forward 7 unknown #
coedge $-1 $149 $148 $396 $397 reversed $59 $-1 #
coedge $-1 $398 $399 $148 $249 forward $400 $-1 #
edge $-1 $401 -40.47807690461115 $254 -23.982804718156068 $248 $402 forward 7 unknown #
coedge $-1 $403 $387 $149 $251 forward $240 $-1 #
edge $-1 $253 23.982804718156068 $404 40.47807690461115 $250 $405 forward 7 unknown #
coedge $-1 $150 $245 $398 $406 reversed $145 $-1 #
vertex $-1 $251 $407 #
vertex $-1 $249 $408 #
straight-curve $-1 -56.213245529539677 0 11.964033905641395 0 1 0 I I #
face $-1 $409 $410 $35 $-1 $411 reversed single #
loop $-1 $-1 $267 $152 #
plane-surface $-1 0 -44.228444653675311 0 0 1 0 0 0 1 forward_v I I I I #
coedge $-1 $412 $413 $414 $415 reversed $153 $-1 #
coedge $-1 $416 $155 $417 $418 reversed $97 $-1 #
coedge $-1 $155 $416 $419 $420 reversed $97 $-1 #
coedge $-1 $270 $269 $155 $263 forward $271 $-1 #
edge $-1 $421 -44.228444653675311 $422 44.228444653675311 $262 $423 forward 7 unknown #
coedge $-1 $157 $156 $413 $424 forward $62 $-1 #
coedge $-1 $425 $414 $156 $266 forward $410 $-1 #
edge $-1 $426 23.982804718156075 $272 40.478076904611157 $265 $427 forward 7 unknown #
coedge $-1 $428 $429 $157 $268 forward $257 $-1 #
edge $-1 $273 -40.478076904611157 $430 -23.982804718156075 $267 $431 forward 7 unknown #
coedge $-1 $262 $158 $429 $432 forward $271 $-1 #
coedge $-1 $158 $262 $425 $433 reversed $271 $-1 #
loop $-1 $-1 $158 $409 #
vertex $-1 $433 $434 #
vertex $-1 $432 $435 #
straight-curve $-1 72.708517715994759 0 11.964033905641395 0 -1 0 I I #
face $-1 $-1 $287 $36 $-1 $436 reversed single #
loop $-1 $-1 $437 $160 #
plane-surface $-1 0 0 14.782048670316472 0 0 1 1 0 0 forward_v I I I I #
coedge $-1 $438 $439 $440 $441 reversed $161 $-1 #
coedge $-1 $442 $163 $165 $285 forward $101 $-1 #
coedge $-1 $163 $442 $438 $443 forward $101 $-1 #
coedge $-1 $440 $166 $163 $282 forward $287 $-1 #
edge $-1 $289 -15.27263461185726 $444 5.0908782039524318 $281 $445 forward 7 unknown #
coedge $-1 $446 $447 $164 $284 forward $276 $-1 #
edge $-1 $448 -44.352644988483362 $288 -40.20914211149578 $283 $449 forward 7 unknown #
edge $-1 $289 0 $448 8.0450420730816194 $165 $450 forward 7 unknown #
coedge $-1 $166 $440 $446 $451 reversed $287 $-1 #
loop $-1 $-1 $440 $275 #
vertex $-1 $451 $452 #
vertex $-1 $167 $453 #
straight-curve $-1 -20.363512815809674 -44.228444653675311 41.390704850665003 0 0 -1 I I #
coedge $-1 $291 $291 $-1 $454 reversed $170 $-1 #
edge $-1 $455 0 $455 6.2831853071796004 $171 $456 forward 7 unknown #
vertex $-1 $174 $457 #
ellipse-curve $-1 -10.181756407904835 -42.156693215181512 11.334075139891363 0 -0.85716730853699208 0.51503806187062418 2 0 0 1 I I #
face $-1 $-1 $458 $38 $-1 $459 forward single #
loop $-1 $-1 $460 $175 #
plane-surface $-1 1.7763568394002505e-014 -168.87517353034218 82.781409701330006 -1 0 0 0 -0.85716730853699208 0.51503806187062418 forward_v I I I I #
coedge $-1 $181 $461 $300 $462 forward $176 $-1 #
coedge $-1 $303 $178 $463 $464 reversed $110 $-1 #
coedge $-1 $178 $303 $298 $462 reversed $110 $-1 #
coedge $-1 $460 $465 $178 $302 forward $296 $-1 #
edge $-1 $466 -8.0450420730816194 $467 0 $301 $468 forward 7 unknown #
coedge $-1 $300 $299 $179 $304 forward $110 $-1 #
edge $-1 $469 -8.0450420730816194 $308 0 $179 $470 forward 7 unknown #
coedge $-1 $463 $471 $180 $306 forward $458 $-1 #
edge $-1 $309 40.20914211149578 $469 44.352644988483362 $305 $472 forward 7 unknown #
coedge $-1 $461 $181 $471 $473 reversed $176 $-1 #
vertex $-1 $182 $474 #
vertex $-1 $306 $475 #
straight-curve $-1 20.363512815809703 -44.228444653675311 41.390704850665003 0 0 1 I I #
coedge $-1 $311 $311 $-1 $476 reversed $185 $-1 #
edge $-1 $477 0 $477 6.2831853071796004 $186 $478 forward 7 unknown #
vertex $-1 $189 $479 #
ellipse-curve $-1 10.181756407904857 -42.156693215181512 11.334075139891363 0 -0.85716730853699208 0.51503806187062418 2 0 0 1 I I #
face $-1 $-1 $480 $40 $-1 $481 forward single #
loop $-1 $-1 $196 $190 #
plane-surface $-1 0 44.228444653675311 0 0 -1 0 0 0 -1 forward_v I I I I #
coedge $-1 $482 $483 $484 $485 reversed $191 $-1 #
coedge $-1 $486 $193 $195 $325 forward $119 $-1 #
coedge $-1 $193 $486 $482 $487 forward $119 $-1 #
coedge $-1 $484 $196 $193 $322 forward $316 $-1 #
edge $-1 $328 -5.0908782039524318 $488 15.27263461185726 $321 $489 forward 7 unknown #
coedge $-1 $490 $491 $194 $324 forward $480 $-1 #
edge $-1 $492 -21.57331257450226 $327 -17.429809697514663 $323 $493 forward 7 unknown #
edge $-1 $328 -88.456889307350693 $492 -80.411847234269047 $195 $494 forward 7 unknown #
coedge $-1 $196 $484 $490 $495 reversed $316 $-1 #
vertex $-1 $495 $496 #
vertex $-1 $197 $497 #
straight-curve $-1 1.7763568394002505e-014 44.228444653675311 79.301881715233193 0 0 -1 I I #
coedge $-1 $330 $330 $-1 $498 reversed $200 $-1 #
edge $-1 $499 0 $499 6.2831853071796004 $201 $500 forward 7 unknown #
vertex $-1 $204 $501 #
ellipse-curve $-1 -10.181756407904835 42.156693215181505 11.334075139891333 0 0.85716730853699208 0.51503806187062418 2 0 0 1 I I #
face $-1 $-1 $502 $42 $-1 $503 forward single #
loop $-1 $-1 $348 $205 #
plane-surface $-1 1.7763568394002505e-014 123.31650870237995 158.60376343046639 -1 0 0 0 0.85716730853699208 0.51503806187062418 forward_v I I I I #
coedge $-1 $343 $504 $339 $505 forward $206 $-1 #
coedge $-1 $339 $208 $342 $506 reversed $128 $-1 #
coedge $-1 $208 $338 $337 $505 reversed $128 $-1 #
coedge $-1 $507 $345 $208 $341 forward $502 $-1 #
edge $-1 $508 -21.57331257450226 $509 -17.429809697514663 $340 $510 forward 7 unknown #
coedge $-1 $210 $209 $338 $506 forward $83 $-1 #
coedge $-1 $511 $337 $209 $344 forward $206 $-1 #
edge $-1 $512 -25.454391019762117 $349 -5.0908782039524318 $343 $513 forward 7 unknown #
coedge $-1 $340 $514 $210 $346 forward $502 $-1 #
edge $-1 $350 5.0908782039524318 $508 25.454391019762117 $345 $515 forward 7 unknown #
coedge $-1 $348 $211 $514 $516 reversed $335 $-1 #
coedge $-1 $211 $347 $511 $517 reversed $335 $-1 #
vertex $-1 $344 $518 #
vertex $-1 $346 $519 #
straight-curve $-1 1.7763568394002505e-014 -1.3302201742869215 83.708455338602619 0 -0.51503806187062418 0.85716730853699208 I I #
coedge $-1 $352 $352 $-1 $520 reversed $215 $-1 #
edge $-1 $521 0 $521 6.2831853071796004 $216 $522 forward 7 unknown #
vertex $-1 $219 $523 #
ellipse-curve $-1 10.181756407904857 42.156693215181505 11.334075139891333 0 0.85716730853699208 0.51503806187062418 2 0 0 1 I I #
face $-1 $-1 $235 $33 $-1 $524 reversed single #
loop $-1 $-1 $372 $220 #
plane-surface $-1 0 44.228444653675311 0 0 -1 0 0 0 -1 forward_v I I I I #
coedge $-1 $525 $370 $373 $526 forward $221 $-1 #
coedge $-1 $376 $223 $224 $364 reversed $137 $-1 #
coedge $-1 $370 $525 $223 $362 reversed $221 $-1 #
edge $-1 $377 -14.782048670316472 $527 14.782048670316472 $361 $528 forward 7 unknown #
coedge $-1 $225 $224 $525 $529 forward $89 $-1 #
edge $-1 $368 -72.708517715994759 $527 72.708517715994759 $360 $530 forward 7 unknown #
coedge $-1 $373 $372 $225 $366 reversed $357 $-1 #
edge $-1 $531 -72.708517715994759 $367 72.708517715994759 $365 $532 forward 7 unknown #
vertex $-1 $227 $533 #
vertex $-1 $379 $534 #
straight-curve $-1 72.708517715994759 0 -14.782048670316472 0 -1 0 I I #
coedge $-1 $359 $361 $228 $371 reversed $221 $-1 #
edge $-1 $374 -44.228444653675311 $377 44.228444653675311 $370 $535 forward 7 unknown #
coedge $-1 $365 $229 $234 $380 forward $357 $-1 #
coedge $-1 $229 $365 $359 $526 reversed $357 $-1 #
vertex $-1 $230 $536 #
straight-curve $-1 0 44.228444653675311 14.782048670316472 -1 0 0 I I #
coedge $-1 $231 $360 $233 $379 reversed $137 $-1 #
vertex $-1 $371 $537 #
straight-curve $-1 0 -44.228444653675311 14.782048670316472 1 0 0 I I #
edge $-1 $236 -14.782048670316472 $368 14.782048670316472 $233 $538 forward 7 unknown #
edge $-1 $237 -14.782048670316472 $367 14.782048670316472 $234 $539 forward 7 unknown #
point $-1 72.708517715994759 -44.228444653675311 14.782048670316472 #
point $-1 72.708517715994759 44.228444653675311 14.782048670316472 #
face $-1 $-1 $400 $34 $-1 $540 reversed single #
loop $-1 $-1 $541 $239 #
plane-surface $-1 -72.708517715994759 0 0 1 0 0 0 0 -1 forward_v I I I I #
coedge $-1 $387 $403 $243 $390 forward $240 $-1 #
coedge $-1 $250 $386 $242 $388 forward $240 $-1 #
edge $-1 $394 1.9856939068161195 $253 7.3141246348222237 $387 $542 forward 7 unknown #
coedge $-1 $244 $243 $541 $543 reversed $93 $-1 #
edge $-1 $544 -40.47807690461115 $394 -23.982804718156068 $386 $545 forward 7 unknown #
coedge $-1 $399 $398 $244 $392 forward $400 $-1 #
edge $-1 $393 23.982804718156068 $546 40.47807690461115 $391 $547 forward 7 unknown #
vertex $-1 $392 $548 #
vertex $-1 $390 $549 #
straight-curve $-1 -56.213245529539677 0 6.6356031776352911 0 -1 0 I I #
coedge $-1 $550 $551 $247 $397 forward $384 $-1 #
edge $-1 $404 -44.228444653675311 $401 44.228444653675311 $396 $552 forward 7 unknown #
coedge $-1 $391 $248 $252 $406 forward $400 $-1 #
coedge $-1 $248 $391 $550 $553 reversed $400 $-1 #
loop $-1 $-1 $391 $383 #
vertex $-1 $553 $554 #
straight-curve $-1 -32.230440811383609 44.228444653675311 11.964033905641395 1 0 0 I I #
coedge $-1 $386 $250 $551 $555 forward $240 $-1 #
vertex $-1 $555 $556 #
straight-curve $-1 -32.230440811383609 -44.228444653675311 11.964033905641395 -1 0 0 I I #
edge $-1 $254 -7.3141246348222237 $393 -1.9856939068161195 $398 $557 forward 7 unknown #
point $-1 -56.213245529539677 -44.228444653675311 11.964033905641395 #
point $-1 -56.213245529539677 44.228444653675311 11.964033905641395 #
face $-1 $-1 $271 $35 $-1 $558 reversed single #
loop $-1 $-1 $265 $256 #
plane-surface $-1 0 44.228444653675311 0 0 -1 0 0 0 -1 forward_v I I I I #
coedge $-1 $559 $259 $416 $560 reversed $153 $-1 #
coedge $-1 $259 $559 $264 $424 reversed $153 $-1 #
coedge $-1 $265 $419 $259 $415 forward $410 $-1 #
edge $-1 $561 1.9856939068161195 $426 7.3141246348222237 $414 $562 forward 7 unknown #
coedge $-1 $261 $260 $412 $560 forward $97 $-1 #
coedge $-1 $429 $428 $260 $418 forward $257 $-1 #
edge $-1 $563 23.982804718156075 $421 40.478076904611157 $417 $564 forward 7 unknown #
coedge $-1 $414 $425 $261 $420 forward $410 $-1 #
edge $-1 $422 -40.478076904611157 $561 -23.982804718156075 $419 $565 forward 7 unknown #
vertex $-1 $263 $566 #
vertex $-1 $263 $567 #
straight-curve $-1 72.708517715994759 0 6.6356031776352911 0 1 0 I I #
edge $-1 $426 -44.228444653675311 $430 44.228444653675311 $413 $568 forward 7 unknown #
coedge $-1 $419 $265 $270 $433 forward $410 $-1 #
vertex $-1 $266 $569 #
straight-curve $-1 32.230440811383616 44.228444653675311 11.964033905641395 1 0 0 I I #
coedge $-1 $417 $267 $559 $570 forward $257 $-1 #
coedge $-1 $267 $417 $269 $432 reversed $257 $-1 #
vertex $-1 $268 $571 #
straight-curve $-1 32.230440811383616 -44.228444653675311 11.964033905641395 -1 0 0 I I #
edge $-1 $273 -11.964033905641395 $421 -6.6356031776352911 $269 $572 forward 7 unknown #
edge $-1 $272 -11.964033905641395 $422 -6.6356031776352911 $270 $573 forward 7 unknown #
point $-1 72.708517715994773 44.228444653675311 11.964033905641395 #
point $-1 72.708517715994773 -44.228444653675311 11.964033905641395 #
plane-surface $-1 0 -44.228444653675311 0 0 1 0 0 0 1 forward_v I I I I #
coedge $-1 $447 $446 $439 $574 forward $276 $-1 #
coedge $-1 $439 $278 $280 $443 reversed $161 $-1 #
coedge $-1 $278 $438 $437 $574 reversed $161 $-1 #
coedge $-1 $286 $281 $278 $441 forward $287 $-1 #
edge $-1 $444 -33.504603241198765 $575 -26.608656180348532 $440 $576 forward 7 unknown #
coedge $-1 $280 $279 $447 $577 reversed $101 $-1 #
edge $-1 $578 -8.0450420730816194 $444 0 $438 $579 forward 7 unknown #
vertex $-1 $282 $580 #
straight-curve $-1 -5.0908782039524141 -44.228444653675311 7.8861016094662419 1 0 0 I I #
coedge $-1 $437 $283 $286 $451 forward $276 $-1 #
coedge $-1 $283 $437 $442 $577 forward $276 $-1 #
vertex $-1 $284 $581 #
straight-curve $-1 -20.363512815809674 -84.437586765171091 14.78204867031647 0 -1 0 I I #
straight-curve $-1 -20.363512815809674 -44.228444653675311 7.8861016094662375 0 0.51503806187062418 0.85716730853699208 I I #
edge $-1 $288 -20.363512815809674 $575 1.7763568394002505e-014 $286 $582 forward 7 unknown #
point $-1 -20.363512815809674 -44.228444653675311 14.782048670316472 #
point $-1 -20.363512815809674 -44.228444653675311 7.8861016094662375 #
edge $-1 $583 1 $583 0 $291 $-1 forward 7 unknown #
vertex $-1 $292 $584 #
ellipse-curve $-1 -10.181756407904835 -36.559560988575733 7.9709789213189444 0 -0.85716730853699208 0.51503806187062418 2 0 0 1 I I #
point $-1 -8.1817564079048353 -42.156693215181519 11.334075139891365 #
loop $-1 $-1 $463 $295 #
plane-surface $-1 0 0 14.782048670316472 0 0 1 1 0 0 forward_v I I I I #
coedge $-1 $465 $301 $461 $585 reversed $296 $-1 #
coedge $-1 $298 $307 $460 $585 forward $176 $-1 #
edge $-1 $467 5.0908782039524318 $308 25.454391019762117 $298 $586 forward 7 unknown #
coedge $-1 $587 $305 $299 $464 forward $458 $-1 #
edge $-1 $469 -25.454391019762117 $466 -5.0908782039524318 $463 $588 forward 7 unknown #
coedge $-1 $301 $460 $587 $589 reversed $296 $-1 #
vertex $-1 $464 $590 #
vertex $-1 $462 $591 #
straight-curve $-1 1.7763568394002505e-014 -44.228444653675311 7.8861016094662375 0 -0.51503806187062418 -0.85716730853699208 I I #
vertex $-1 $306 $592 #
straight-curve $-1 20.363512815809703 -44.228444653675311 7.8861016094662375 0 -0.51503806187062418 -0.85716730853699208 I I #
coedge $-1 $305 $587 $307 $473 forward $458 $-1 #
straight-curve $-1 20.363512815809703 -84.437586765171091 14.78204867031647 0 1 0 I I #
edge $-1 $593 1.7763568394002505e-014 $309 20.363512815809703 $307 $594 forward 7 unknown #
point $-1 20.363512815809703 -44.228444653675311 7.8861016094662375 #
point $-1 20.363512815809703 -44.228444653675311 14.782048670316472 #
edge $-1 $595 1 $595 0 $311 $-1 forward 7 unknown #
vertex $-1 $312 $596 #
ellipse-curve $-1 10.181756407904857 -36.559560988575733 7.9709789213189444 0 -0.85716730853699208 0.51503806187062418 2 0 0 1 I I #
point $-1 12.181756407904857 -42.156693215181519 11.334075139891365 #
loop $-1 $-1 $323 $315 #
plane-surface $-1 0 0 14.782048670316472 0 0 1 1 0 0 forward_v I I I I #
coedge $-1 $483 $318 $320 $487 reversed $191 $-1 #
coedge $-1 $318 $482 $597 $598 reversed $191 $-1 #
coedge $-1 $326 $321 $318 $485 forward $316 $-1 #
edge $-1 $488 -71.415780105766984 $599 -64.519833044916723 $484 $600 forward 7 unknown #
coedge $-1 $320 $319 $491 $601 reversed $119 $-1 #
edge $-1 $602 80.411847234269047 $488 88.456889307350693 $482 $603 forward 7 unknown #
vertex $-1 $322 $604 #
straight-curve $-1 -5.0908782039524141 44.228444653675311 7.886101609466202 -1 0 0 I I #
coedge $-1 $597 $323 $326 $495 forward $480 $-1 #
coedge $-1 $323 $597 $486 $601 forward $480 $-1 #
vertex $-1 $324 $605 #
straight-curve $-1 1.7763568394002505e-014 61.658254351189974 14.78204867031647 0 1 0 I I #
straight-curve $-1 1.7763568394002505e-014 -1.3302201742869215 83.708455338602619 0 -0.51503806187062418 0.85716730853699208 I I #
edge $-1 $327 -1.7763568394002505e-014 $599 20.363512815809674 $326 $606 forward 7 unknown #
point $-1 1.7763568394002505e-014 44.228444653675311 14.782048670316472 #
point $-1 1.7763568394002505e-014 44.228444653675311 7.8861016094662091 #
edge $-1 $607 1 $607 0 $330 $-1 forward 7 unknown #
vertex $-1 $331 $608 #
ellipse-curve $-1 -10.181756407904835 36.559560988575747 7.9709789213189266 0 0.85716730853699208 0.51503806187062418 2 0 0 1 I I #
point $-1 -8.1817564079048353 42.156693215181534 11.334075139891347 #
loop $-1 $-1 $340 $334 #
plane-surface $-1 0 0 14.782048670316472 0 0 1 1 0 0 forward_v I I I I #
coedge $-1 $337 $511 $507 $609 reversed $206 $-1 #
edge $-1 $509 64.519833044916723 $512 71.415780105766984 $337 $610 forward 7 unknown #
edge $-1 $512 -88.456889307350693 $508 -80.411847234269047 $338 $611 forward 7 unknown #
coedge $-1 $514 $340 $504 $609 forward $502 $-1 #
vertex $-1 $341 $612 #
vertex $-1 $609 $613 #
straight-curve $-1 20.363512815809703 61.658254351189974 14.78204867031647 0 1 0 I I #
coedge $-1 $504 $343 $348 $517 forward $206 $-1 #
vertex $-1 $505 $614 #
straight-curve $-1 -5.0908782039524141 44.228444653675311 7.886101609466202 -1 0 0 I I #
coedge $-1 $345 $507 $347 $516 forward $502 $-1 #
straight-curve $-1 -5.0908782039524141 40.0849417766877 14.78204867031647 1 0 0 I I #
edge $-1 $615 17.429809697514663 $350 21.57331257450226 $514 $616 forward 7 unknown #
edge $-1 $349 -71.415780105766984 $615 -64.519833044916723 $511 $617 forward 7 unknown #
point $-1 1.7763568394002505e-014 44.228444653675311 7.8861016094662091 #
point $-1 1.7763568394002505e-014 40.084941776687714 14.78204867031647 #
edge $-1 $618 1 $618 0 $352 $-1 forward 7 unknown #
vertex $-1 $353 $619 #
ellipse-curve $-1 10.181756407904857 36.559560988575747 7.9709789213189266 0 0.85716730853699208 0.51503806187062418 2 0 0 1 I I #
point $-1 12.181756407904857 42.156693215181534 11.334075139891347 #
plane-surface $-1 72.708517715994759 0 0 -1 0 0 0 0 1 forward_v I I I I #
coedge $-1 $361 $359 $363 $529 reversed $221 $-1 #
edge $-1 $374 -14.782048670316472 $531 14.782048670316472 $373 $620 forward 7 unknown #
vertex $-1 $529 $621 #
straight-curve $-1 -72.708517715994759 -44.228444653675311 0 0 0 -1 I I #
edge $-1 $527 -44.228444653675311 $531 44.228444653675311 $525 $622 forward 7 unknown #
straight-curve $-1 0 -44.228444653675311 -14.782048670316472 -1 0 0 I I #
vertex $-1 $366 $623 #
straight-curve $-1 0 44.228444653675311 -14.782048670316472 1 0 0 I I #
point $-1 72.708517715994759 44.228444653675311 -14.782048670316472 #
point $-1 72.708517715994759 -44.228444653675311 -14.782048670316472 #
straight-curve $-1 -72.708517715994759 0 14.782048670316472 0 -1 0 I I #
point $-1 -72.708517715994759 44.228444653675311 14.782048670316472 #
point $-1 -72.708517715994759 -44.228444653675311 14.782048670316472 #
straight-curve $-1 72.708517715994759 -44.228444653675311 0 0 0 -1 I I #
straight-curve $-1 72.708517715994759 44.228444653675311 0 0 0 -1 I I #
plane-surface $-1 0 44.228444653675311 0 0 -1 0 0 0 -1 forward_v I I I I #
coedge $-1 $551 $550 $389 $543 forward $384 $-1 #
straight-curve $-1 -56.213245529539677 -44.228444653675311 4.6499092708191716 0 0 1 I I #
edge $-1 $546 -44.228444653675311 $544 44.228444653675311 $541 $624 forward 7 unknown #
vertex $-1 $390 $625 #
straight-curve $-1 -32.230440811383609 -44.228444653675311 6.6356031776352911 1 0 0 I I #
vertex $-1 $392 $626 #
straight-curve $-1 -32.230440811383609 44.228444653675311 6.6356031776352911 -1 0 0 I I #
point $-1 -56.213245529539677 44.228444653675311 6.6356031776352911 #
point $-1 -56.213245529539677 -44.228444653675311 6.6356031776352911 #
coedge $-1 $541 $396 $399 $553 forward $384 $-1 #
coedge $-1 $396 $541 $403 $555 reversed $384 $-1 #
straight-curve $-1 -72.708517715994759 0 11.964033905641395 0 1 0 I I #
edge $-1 $401 -11.964033905641395 $546 -6.6356031776352911 $399 $627 forward 7 unknown #
point $-1 -72.708517715994759 44.228444653675311 11.964033905641395 #
edge $-1 $404 -11.964033905641395 $544 -6.6356031776352911 $551 $628 forward 7 unknown #
point $-1 -72.708517715994759 -44.228444653675311 11.964033905641395 #
straight-curve $-1 -56.213245529539677 44.228444653675311 4.6499092708191716 0 0 -1 I I #
plane-surface $-1 72.708517715994759 0 0 -1 0 0 0 0 1 forward_v I I I I #
coedge $-1 $413 $412 $428 $570 reversed $153 $-1 #
edge $-1 $563 -44.228444653675311 $561 44.228444653675311 $412 $629 forward 7 unknown #
vertex $-1 $420 $630 #
straight-curve $-1 56.213245529539691 44.228444653675311 4.6499092708191716 0 0 1 I I #
vertex $-1 $418 $631 #
straight-curve $-1 32.230440811383616 -44.228444653675311 6.6356031776352911 1 0 0 I I #
straight-curve $-1 32.230440811383616 44.228444653675311 6.6356031776352911 -1 0 0 I I #
point $-1 72.708517715994773 -44.228444653675311 6.6356031776352911 #
point $-1 72.708517715994773 44.228444653675311 6.6356031776352911 #
straight-curve $-1 56.213245529539691 0 11.964033905641395 0 -1 0 I I #
point $-1 56.213245529539691 44.228444653675311 11.964033905641395 #
edge $-1 $430 -7.3141246348222237 $563 -1.9856939068161195 $428 $632 forward 7 unknown #
point $-1 56.213245529539691 -44.228444653675311 11.964033905641395 #
straight-curve $-1 72.708517715994759 -44.228444653675311 0 0 0 -1 I I #
straight-curve $-1 72.708517715994759 44.228444653675311 0 0 0 -1 I I #
edge $-1 $575 40.20914211149578 $578 44.352644988483362 $437 $633 forward 7 unknown #
vertex $-1 $574 $634 #
straight-curve $-1 1.7763568394002505e-014 -44.228444653675311 41.390704850665003 0 0 1 I I #
edge $-1 $578 -5.0908782039524318 $448 15.27263461185726 $447 $635 forward 7 unknown #
vertex $-1 $577 $636 #
straight-curve $-1 1.7763568394002505e-014 -44.228444653675311 7.8861016094662375 0 -0.51503806187062418 -0.85716730853699208 I I #
point $-1 1.7763568394002505e-014 -44.228444653675311 7.8861016094662375 #
point $-1 -20.363512815809674 -40.084941776687728 14.782048670316472 #
straight-curve $-1 0 -44.228444653675311 14.782048670316472 1 0 0 I I #
vertex $-1 $454 $637 #
point $-1 -8.1817564079048353 -36.559560988575733 7.9709789213189444 #
edge $-1 $593 26.608656180348532 $467 33.504603241198765 $461 $638 forward 7 unknown #
straight-curve $-1 -5.0908782039524141 -44.228444653675311 7.8861016094662419 1 0 0 I I #
coedge $-1 $471 $463 $465 $589 forward $458 $-1 #
straight-curve $-1 -5.0908782039524141 -40.084941776687728 14.782048670316472 -1 0 0 I I #
edge $-1 $466 -44.352644988483362 $593 -40.20914211149578 $587 $639 forward 7 unknown #
point $-1 1.7763568394002505e-014 -40.084941776687728 14.782048670316472 #
point $-1 1.7763568394002505e-014 -44.228444653675311 7.8861016094662375 #
point $-1 20.363512815809703 -40.084941776687728 14.782048670316472 #
vertex $-1 $473 $640 #
straight-curve $-1 0 -44.228444653675311 14.782048670316472 1 0 0 I I #
vertex $-1 $476 $641 #
point $-1 12.181756407904857 -36.559560988575733 7.9709789213189444 #
coedge $-1 $491 $490 $483 $598 forward $480 $-1 #
edge $-1 $599 17.429809697514663 $602 21.57331257450226 $597 $642 forward 7 unknown #
vertex $-1 $598 $643 #
straight-curve $-1 -20.363512815809674 44.228444653675311 79.301881715233193 0 0 1 I I #
edge $-1 $602 -15.27263461185726 $492 5.0908782039524318 $491 $644 forward 7 unknown #
vertex $-1 $601 $645 #
straight-curve $-1 -20.363512815809674 -1.3302201742869215 83.708455338602619 0 0.51503806187062418 -0.85716730853699208 I I #
point $-1 -20.363512815809674 44.228444653675311 7.8861016094662091 #
point $-1 1.7763568394002505e-014 40.084941776687714 14.78204867031647 #
straight-curve $-1 0 44.228444653675311 14.782048670316472 -1 0 0 I I #
vertex $-1 $498 $646 #
point $-1 -8.1817564079048353 36.559560988575747 7.9709789213189266 #
edge $-1 $509 -20.363512815809703 $615 -1.7763568394002505e-014 $504 $647 forward 7 unknown #
straight-curve $-1 20.363512815809703 44.228444653675311 79.301881715233193 0 0 -1 I I #
straight-curve $-1 20.363512815809703 -1.3302201742869215 83.708455338602619 0 -0.51503806187062418 0.85716730853699208 I I #
point $-1 20.363512815809703 40.084941776687714 14.78204867031647 #
point $-1 20.363512815809703 44.228444653675311 14.782048670316472 #
point $-1 20.363512815809703 44.228444653675311 7.8861016094662091 #
vertex $-1 $516 $648 #
straight-curve $-1 1.7763568394002505e-014 61.658254351189974 14.78204867031647 0 -1 0 I I #
straight-curve $-1 1.7763568394002505e-014 44.228444653675311 79.301881715233193 0 0 1 I I #
vertex $-1 $520 $649 #
point $-1 12.181756407904857 36.559560988575747 7.9709789213189266 #
straight-curve $-1 -72.708517715994759 44.228444653675311 0 0 0 -1 I I #
point $-1 -72.708517715994759 -44.228444653675311 -14.782048670316472 #
straight-curve $-1 -72.708517715994759 0 -14.782048670316472 0 1 0 I I #
point $-1 -72.708517715994759 44.228444653675311 -14.782048670316472 #
straight-curve $-1 -72.708517715994759 0 6.6356031776352911 0 -1 0 I I #
point $-1 -72.708517715994759 -44.228444653675311 6.6356031776352911 #
point $-1 -72.708517715994759 44.228444653675311 6.6356031776352911 #
straight-curve $-1 -72.708517715994759 44.228444653675311 0 0 0 -1 I I #
straight-curve $-1 -72.708517715994759 -44.228444653675311 0 0 0 -1 I I #
straight-curve $-1 56.213245529539691 0 6.6356031776352911 0 1 0 I I #
point $-1 56.213245529539691 44.228444653675311 6.6356031776352911 #
point $-1 56.213245529539691 -44.228444653675311 6.6356031776352911 #
straight-curve $-1 56.213245529539691 -44.228444653675311 4.6499092708191716 0 0 -1 I I #
straight-curve $-1 1.7763568394002505e-014 -84.437586765171091 14.78204867031647 0 1 0 I I #
point $-1 1.7763568394002505e-014 -44.228444653675311 14.782048670316472 #
straight-curve $-1 -5.0908782039524141 -40.084941776687728 14.782048670316472 -1 0 0 I I #
point $-1 1.7763568394002505e-014 -40.084941776687728 14.782048670316472 #
point $-1 -10.181756407904835 -34.845226371501745 6.9409027975776967 #
straight-curve $-1 1.7763568394002505e-014 -44.228444653675311 41.390704850665003 0 0 -1 I I #
straight-curve $-1 1.7763568394002505e-014 -84.437586765171091 14.78204867031647 0 -1 0 I I #
point $-1 1.7763568394002505e-014 -44.228444653675311 14.782048670316472 #
point $-1 10.181756407904857 -34.845226371501745 6.9409027975776967 #
straight-curve $-1 -20.363512815809674 61.658254351189974 14.78204867031647 0 -1 0 I I #
point $-1 -20.363512815809674 44.228444653675311 14.782048670316472 #
straight-curve $-1 -5.0908782039524141 40.0849417766877 14.78204867031647 1 0 0 I I #
point $-1 -20.363512815809674 40.084941776687714 14.78204867031647 #
point $-1 -10.181756407904835 34.845226371501759 6.9409027975776789 #
straight-curve $-1 0 44.228444653675311 14.782048670316472 -1 0 0 I I #
point $-1 1.7763568394002505e-014 44.228444653675311 14.782048670316472 #
point $-1 10.181756407904857 34.845226371501759 6.9409027975776789 #
End-of-ACIS-data 