500 0 8 0           
7 Unknown 11 ACIS 5.0 NT 24 Fri Mar 26 15:00:55 1999 
-1 9.9999999999999995e-007 1e-010 
body $-1 $8 $-1 $9 #
body $-1 $10 $-1 $11 #
body $-1 $12 $-1 $13 #
body $-1 $14 $-1 $15 #
body $-1 $16 $-1 $17 #
body $-1 $18 $-1 $19 #
body $-1 $20 $-1 $21 #
body $-1 $22 $-1 $23 #
lump $-1 $-1 $24 $0 #
transform $-1 1 0 0 0 1 0 0 0 1 71.71971800897245 33.983637736830012 16.3138470068297 1 rotate no_reflect no_shear #
lump $-1 $-1 $25 $1 #
transform $-1 1 0 0 0 1 0 0 0 1 71.71971800897245 33.983637736830012 16.3138470068297 1 rotate no_reflect no_shear #
lump $-1 $-1 $26 $2 #
transform $-1 1 0 0 0 1 0 0 0 1 71.71971800897245 33.983637736830012 16.3138470068297 1 rotate no_reflect no_shear #
lump $-1 $-1 $27 $3 #
transform $-1 1 0 0 0 1 0 0 0 1 71.71971800897245 33.983637736830012 16.3138470068297 1 rotate no_reflect no_shear #
lump $-1 $-1 $28 $4 #
transform $-1 1 0 0 0 1 0 0 0 1 71.71971800897245 33.983637736830012 16.3138470068297 1 rotate no_reflect no_shear #
lump $-1 $-1 $29 $5 #
transform $-1 1 0 0 0 1 0 0 0 1 71.71971800897245 33.983637736830012 16.3138470068297 1 rotate no_reflect no_shear #
lump $-1 $-1 $30 $6 #
transform $-1 1 0 0 0 1 0 0 0 1 71.71971800897245 33.983637736830012 16.3138470068297 1 rotate no_reflect no_shear #
lump $-1 $-1 $31 $7 #
transform $-1 1 0 0 0 1 0 0 0 1 71.71971800897245 33.983637736830012 16.3138470068297 1 rotate no_reflect no_shear #
shell $-1 $-1 $-1 $32 $-1 $8 #
shell $-1 $-1 $-1 $33 $-1 $10 #
shell $-1 $-1 $-1 $34 $-1 $12 #
shell $-1 $-1 $-1 $35 $-1 $14 #
shell $-1 $-1 $-1 $36 $-1 $16 #
shell $-1 $-1 $-1 $37 $-1 $18 #
shell $-1 $-1 $-1 $38 $-1 $20 #
shell $-1 $-1 $-1 $39 $-1 $22 #
face $-1 $40 $41 $24 $-1 $42 reversed single #
face $-1 $43 $44 $25 $-1 $45 forward single #
face $-1 $46 $47 $26 $-1 $48 reversed single #
face $-1 $49 $50 $27 $-1 $51 forward single #
face $-1 $52 $53 $28 $-1 $54 reversed single #
face $-1 $55 $56 $29 $-1 $57 forward single #
face $-1 $58 $59 $30 $-1 $60 reversed single #
face $-1 $61 $62 $31 $-1 $63 forward single #
face $-1 $64 $65 $24 $-1 $66 forward single #
loop $-1 $-1 $67 $32 #
plane-surface $-1 0 -33.983637736830012 0 0 1 0 0 0 1 forward_v I I I I #
face $-1 $68 $69 $25 $-1 $70 forward single #
loop $-1 $-1 $71 $33 #
plane-surface $-1 0 -33.983637736830012 0 0 1 0 0 0 1 forward_v I I I I #
face $-1 $72 $73 $26 $-1 $74 reversed single #
loop $-1 $-1 $75 $34 #
plane-surface $-1 75.260010796586755 6.4390231865821939 210.67317866752228 0 -1 0 -0.71933980857756763 0 -0.69465836192734942 forward_v I I I I #
face $-1 $76 $77 $27 $-1 $78 forward single #
loop $-1 $79 $80 $35 #
cone-surface $-1 66.421109781387059 0.5912091924680638 10.911620217052835 -0.71933980857756763 0 -0.69465836192734942 1.7366459048183736 0 -1.7983495214439191 1 I I 0 1 2.5 forward I I I I #
face $-1 $81 $82 $28 $-1 $83 reversed single #
loop $-1 $-1 $84 $36 #
plane-surface $-1 75.260010796586755 18.134651174810447 210.67317866752228 0 -1 0 -0.71933980857756763 0 -0.69465836192734942 forward_v I I I I #
face $-1 $85 $86 $29 $-1 $87 forward single #
loop $-1 $88 $89 $37 #
cone-surface $-1 66.421109781387059 12.286837180696317 10.911620217052835 -0.71933980857756763 0 -0.69465836192734942 1.7366459048183736 0 -1.7983495214439191 1 I I 0 1 2.5 forward I I I I #
face $-1 $90 $91 $30 $-1 $92 reversed single #
loop $-1 $-1 $93 $38 #
plane-surface $-1 -192.01815242804923 -11.085976958380819 84.846883507133896 0 1 0 -0.83867057594974714 0 0.54463902268945019 forward_v I I I I #
face $-1 $94 $95 $31 $-1 $96 forward single #
loop $-1 $97 $98 $39 #
cone-surface $-1 -67.273490079932529 -6.5569338427113131 10.653722380786744 0.83867057594974714 0 -0.54463902268945019 0.54463902268945019 0 0.83867057594974714 1 I I 0 1 1 forward I I I I #
face $-1 $99 $100 $24 $-1 $101 reversed single #
loop $-1 $-1 $102 $40 #
plane-surface $-1 0 0 16.3138470068297 0 0 1 1 0 0 forward_v I I I I #
coedge $-1 $103 $104 $105 $106 reversed $41 $-1 #
face $-1 $107 $108 $25 $-1 $109 reversed single #
loop $-1 $-1 $110 $43 #
plane-surface $-1 0 0 16.3138470068297 0 0 1 1 0 0 forward_v I I I I #
coedge $-1 $111 $112 $113 $114 forward $44 $-1 #
face $-1 $115 $116 $26 $-1 $117 reversed single #
loop $-1 $-1 $118 $46 #
plane-surface $-1 -27.921685651035986 0.5912091924680638 111.03177500751383 0.71933980857756763 0 0.69465836192734942 0.69465836192734942 0 -0.71933980857756763 forward_v I I I I #
coedge $-1 $119 $120 $121 $122 reversed $47 $-1 #
face $-1 $-1 $123 $27 $-1 $124 forward single #
loop $-1 $125 $126 $49 #
cone-surface $-1 64.310009786968862 0.5912091924680638 8.8729546983361054 -0.71933980857756763 0 -0.69465836192734942 0.86832295240918678 0 -0.89917476072195957 1 I I -0.70710678118654746 0.70710678118654746 1.25 forward I I I I #
loop $-1 $-1 $127 $35 #
coedge $-1 $80 $80 $128 $129 reversed $50 $-1 #
face $-1 $130 $131 $28 $-1 $132 reversed single #
loop $-1 $-1 $133 $52 #
plane-surface $-1 -27.921685651035986 0.5912091924680638 111.03177500751383 0.71933980857756763 0 0.69465836192734942 0.69465836192734942 0 -0.71933980857756763 forward_v I I I I #
coedge $-1 $134 $135 $136 $137 reversed $53 $-1 #
face $-1 $-1 $138 $29 $-1 $139 forward single #
loop $-1 $140 $141 $55 #
cone-surface $-1 64.310009786968862 12.286837180696317 8.8729546983361054 -0.71933980857756763 0 -0.69465836192734942 0.86832295240918678 0 -0.89917476072195957 1 I I -0.70710678118654746 0.70710678118654746 1.25 forward I I I I #
loop $-1 $-1 $142 $37 #
coedge $-1 $89 $89 $143 $144 reversed $56 $-1 #
face $-1 $145 $146 $30 $-1 $147 reversed single #
loop $-1 $-1 $148 $58 #
plane-surface $-1 -71.719718008972478 -6.5569338427113131 6.7241692591944684 -0.83867057594974714 0 0.54463902268945019 0.54463902268945019 0 0.83867057594974714 forward_v I I I I #
coedge $-1 $149 $150 $151 $152 reversed $59 $-1 #
face $-1 $-1 $153 $31 $-1 $154 forward single #
loop $-1 $155 $156 $61 #
cone-surface $-1 -65.521731535547488 -6.5569338427113131 9.516117117216691 0.83867057594974714 0 -0.54463902268945019 0.2723195113447251 0 0.41933528797487357 1 I I -0.70710678118654746 0.70710678118654746 0.5 forward I I I I #
loop $-1 $-1 $157 $39 #
coedge $-1 $98 $98 $158 $159 reversed $62 $-1 #
face $-1 $160 $161 $24 $-1 $162 reversed single #
loop $-1 $-1 $163 $64 #
plane-surface $-1 0 0 -16.3138470068297 0 0 1 1 0 0 forward_v I I I I #
coedge $-1 $164 $165 $166 $167 forward $65 $-1 #
coedge $-1 $168 $67 $169 $170 reversed $41 $-1 #
coedge $-1 $67 $168 $171 $172 forward $41 $-1 #
coedge $-1 $173 $163 $67 $106 forward $100 $-1 #
edge $-1 $174 -71.71971800897245 $175 71.71971800897245 $67 $176 forward 7 unknown #
face $-1 $177 $178 $25 $-1 $179 reversed single #
loop $-1 $-1 $180 $68 #
plane-surface $-1 -71.71971800897245 0 0 1 0 0 0 0 -1 forward_v I I I I #
coedge $-1 $181 $182 $112 $183 forward $69 $-1 #
coedge $-1 $184 $71 $185 $186 reversed $44 $-1 #
coedge $-1 $71 $184 $110 $183 reversed $44 $-1 #
coedge $-1 $187 $188 $71 $114 reversed $189 $-1 #
edge $-1 $190 -16.3138470068297 $191 16.3138470068297 $113 $192 forward 7 unknown #
face $-1 $193 $194 $26 $-1 $195 forward single #
loop $-1 $-1 $196 $72 #
plane-surface $-1 75.260010796586755 -5.2566048016460662 210.67317866752228 0 1 0 0.71933980857756763 0 0.69465836192734942 forward_v I I I I #
coedge $-1 $197 $198 $199 $200 reversed $73 $-1 #
coedge $-1 $120 $75 $201 $202 reversed $47 $-1 #
coedge $-1 $75 $119 $197 $203 reversed $47 $-1 #
coedge $-1 $199 $204 $75 $122 forward $194 $-1 #
edge $-1 $205 -34.089712610679072 $206 -25.916346622900889 $121 $207 forward 7 unknown #
loop $-1 $-1 $128 $76 #
plane-surface $-1 -27.921685651035986 0.5912091924680638 111.03177500751383 0.71933980857756763 0 0.69465836192734942 0.69465836192734942 0 -0.71933980857756763 forward_v I I I I #
loop $-1 $-1 $208 $49 #
coedge $-1 $126 $126 $127 $209 reversed $77 $-1 #
coedge $-1 $127 $127 $126 $209 forward $79 $-1 #
coedge $-1 $128 $128 $80 $129 forward $123 $-1 #
edge $-1 $210 0 $210 6.2831853071796004 $128 $211 forward 7 unknown #
face $-1 $212 $213 $28 $-1 $214 forward single #
loop $-1 $-1 $215 $81 #
plane-surface $-1 71.71971800897245 0 0 -1 0 0 0 0 1 forward_v I I I I #
coedge $-1 $216 $217 $218 $219 reversed $82 $-1 #
coedge $-1 $135 $84 $220 $221 reversed $53 $-1 #
coedge $-1 $84 $134 $222 $223 reversed $53 $-1 #
coedge $-1 $224 $215 $84 $137 forward $131 $-1 #
edge $-1 $225 -97.486510773870037 $226 -89.022742326931436 $136 $227 forward 7 unknown #
loop $-1 $-1 $143 $85 #
plane-surface $-1 -27.921685651035986 0.5912091924680638 111.03177500751383 0.71933980857756763 0 0.69465836192734942 0.69465836192734942 0 -0.71933980857756763 forward_v I I I I #
loop $-1 $-1 $228 $55 #
coedge $-1 $141 $141 $142 $229 reversed $86 $-1 #
coedge $-1 $142 $142 $141 $229 forward $88 $-1 #
coedge $-1 $143 $143 $89 $144 forward $138 $-1 #
edge $-1 $230 0 $230 6.2831853071796004 $143 $231 forward 7 unknown #
face $-1 $232 $233 $30 $-1 $234 reversed single #
loop $-1 $-1 $235 $90 #
plane-surface $-1 -192.01815242804923 -2.0278907270418074 84.846883507133896 0 -1 0 0.83867057594974714 0 -0.54463902268945019 forward_v I I I I #
coedge $-1 $236 $237 $238 $239 reversed $91 $-1 #
coedge $-1 $150 $93 $240 $241 reversed $59 $-1 #
coedge $-1 $93 $149 $236 $242 reversed $59 $-1 #
coedge $-1 $238 $243 $93 $152 forward $244 $-1 #
edge $-1 $245 24.289358205052167 $246 30.516967550311648 $151 $247 forward 7 unknown #
loop $-1 $-1 $158 $94 #
plane-surface $-1 -71.719718008972478 -6.5569338427113131 6.7241692591944684 -0.83867057594974714 0 0.54463902268945019 0.54463902268945019 0 0.83867057594974714 forward_v I I I I #
loop $-1 $-1 $248 $61 #
coedge $-1 $156 $156 $157 $249 reversed $95 $-1 #
coedge $-1 $157 $157 $156 $249 forward $97 $-1 #
coedge $-1 $158 $158 $98 $159 forward $153 $-1 #
edge $-1 $250 0 $250 6.2831853071796004 $158 $251 forward 7 unknown #
face $-1 $252 $253 $24 $-1 $254 reversed single #
loop $-1 $-1 $255 $99 #
plane-surface $-1 -71.71971800897245 0 0 1 0 0 0 0 -1 forward_v I I I I #
coedge $-1 $105 $256 $257 $258 forward $100 $-1 #
coedge $-1 $259 $102 $260 $261 forward $65 $-1 #
coedge $-1 $102 $259 $168 $262 forward $65 $-1 #
coedge $-1 $169 $263 $102 $167 reversed $264 $-1 #
edge $-1 $265 -33.983637736830012 $266 33.983637736830012 $166 $267 forward 7 unknown #
coedge $-1 $104 $103 $165 $262 reversed $41 $-1 #
coedge $-1 $257 $166 $103 $170 forward $264 $-1 #
edge $-1 $265 -16.3138470068297 $174 16.3138470068297 $169 $268 forward 7 unknown #
coedge $-1 $269 $270 $104 $172 reversed $161 $-1 #
edge $-1 $271 -16.3138470068297 $175 16.3138470068297 $171 $272 forward 7 unknown #
coedge $-1 $256 $105 $270 $273 forward $100 $-1 #
vertex $-1 $170 $274 #
vertex $-1 $273 $275 #
straight-curve $-1 0 -33.983637736830012 -16.3138470068297 -1 0 0 I I #
face $-1 $276 $189 $25 $-1 $277 reversed single #
loop $-1 $-1 $278 $107 #
plane-surface $-1 -68.802124855961111 -46.8616841099944 0 0 1 0 0 0 1 forward_v I I I I #
coedge $-1 $279 $280 $184 $281 forward $108 $-1 #
coedge $-1 $282 $110 $280 $283 forward $69 $-1 #
coedge $-1 $110 $282 $187 $284 forward $69 $-1 #
edge $-1 $190 65.884531702949772 $285 71.71971800897245 $110 $286 forward 7 unknown #
coedge $-1 $112 $111 $180 $281 reversed $44 $-1 #
coedge $-1 $287 $288 $111 $186 forward $289 $-1 #
edge $-1 $290 -71.71971800897245 $191 -65.884531702949772 $185 $291 forward 7 unknown #
coedge $-1 $292 $113 $182 $284 reversed $189 $-1 #
coedge $-1 $113 $292 $287 $293 reversed $189 $-1 #
loop $-1 $-1 $292 $177 #
vertex $-1 $183 $294 #
vertex $-1 $293 $295 #
straight-curve $-1 -65.884531702949772 -33.983637736830012 0 0 0 -1 I I #
face $-1 $-1 $296 $26 $-1 $297 reversed single #
loop $-1 $-1 $121 $115 #
plane-surface $-1 0 0 16.3138470068297 0 0 1 1 0 0 forward_v I I I I #
coedge $-1 $298 $299 $300 $301 reversed $116 $-1 #
coedge $-1 $302 $118 $120 $203 forward $73 $-1 #
coedge $-1 $118 $302 $298 $303 forward $73 $-1 #
coedge $-1 $300 $121 $118 $200 forward $194 $-1 #
edge $-1 $206 -6.143418590348162 $304 5.5522093978800982 $199 $305 forward 7 unknown #
coedge $-1 $306 $307 $119 $202 forward $296 $-1 #
edge $-1 $308 -97.486510773870037 $205 -89.022742326931436 $201 $309 forward 7 unknown #
edge $-1 $206 131.67341341497649 $308 143.43943601794487 $120 $310 forward 7 unknown #
coedge $-1 $121 $300 $306 $311 forward $194 $-1 #
vertex $-1 $202 $312 #
vertex $-1 $122 $313 #
straight-curve $-1 37.630005398293378 6.4390231865821939 16.313847006829704 -1 0 0 I I #
coedge $-1 $208 $208 $-1 $314 reversed $125 $-1 #
edge $-1 $315 0 $315 6.2831853071796004 $126 $316 forward 7 unknown #
vertex $-1 $129 $317 #
ellipse-curve $-1 67.633035015083337 0.5912091924680638 12.081962783360416 0.71933980857756763 0 0.69465836192734942 1.7366459048183736 0 -1.7983495214439191 1 I I #
face $-1 $-1 $318 $28 $-1 $319 forward single #
loop $-1 $-1 $320 $130 #
plane-surface $-1 75.260010796586755 6.4390231865821939 210.67317866752228 0 -1 0 -0.71933980857756763 0 -0.69465836192734942 forward_v I I I I #
coedge $-1 $136 $321 $217 $322 forward $131 $-1 #
coedge $-1 $220 $133 $323 $324 reversed $82 $-1 #
coedge $-1 $133 $220 $215 $322 reversed $82 $-1 #
coedge $-1 $325 $320 $133 $219 forward $213 $-1 #
edge $-1 $326 131.67341341497649 $327 143.43943601794487 $218 $328 forward 7 unknown #
coedge $-1 $217 $216 $134 $221 forward $82 $-1 #
edge $-1 $329 131.67341341497649 $225 143.43943601794487 $134 $330 forward 7 unknown #
coedge $-1 $323 $331 $135 $223 forward $318 $-1 #
edge $-1 $226 -34.089712610679072 $329 -25.916346622900889 $222 $332 forward 7 unknown #
coedge $-1 $321 $136 $331 $333 reversed $131 $-1 #
vertex $-1 $137 $334 #
vertex $-1 $137 $335 #
straight-curve $-1 71.71971800897245 18.134651174810447 105.33658933376114 0 0 1 I I #
coedge $-1 $228 $228 $-1 $336 reversed $140 $-1 #
edge $-1 $337 0 $337 6.2831853071796004 $141 $338 forward 7 unknown #
vertex $-1 $144 $339 #
ellipse-curve $-1 67.633035015083337 12.286837180696317 12.081962783360416 0.71933980857756763 0 0.69465836192734942 1.7366459048183736 0 -1.7983495214439191 1 I I #
face $-1 $-1 $244 $30 $-1 $340 forward single #
loop $-1 $-1 $341 $145 #
plane-surface $-1 -71.71971800897245 0 0 1 0 0 0 0 -1 forward_v I I I I #
coedge $-1 $342 $343 $344 $345 reversed $146 $-1 #
coedge $-1 $346 $148 $150 $242 forward $91 $-1 #
coedge $-1 $148 $346 $342 $347 forward $91 $-1 #
coedge $-1 $344 $151 $148 $239 forward $244 $-1 #
edge $-1 $246 -7.8075100370251622 $348 1.2505761943138491 $238 $349 forward 7 unknown #
coedge $-1 $350 $351 $149 $241 forward $233 $-1 #
edge $-1 $352 -35.699272494372437 $245 -26.109594746737248 $240 $353 forward 7 unknown #
edge $-1 $246 -11.43437962727554 $352 -5.1979138280344745e-014 $150 $354 forward 7 unknown #
coedge $-1 $151 $344 $350 $355 forward $244 $-1 #
loop $-1 $-1 $344 $232 #
vertex $-1 $241 $356 #
vertex $-1 $152 $357 #
straight-curve $-1 -96.009076214024617 -11.085976958380819 16.313847006829697 1 0 0 I I #
coedge $-1 $248 $248 $-1 $358 reversed $155 $-1 #
edge $-1 $359 0 $359 6.2831853071796004 $156 $360 forward 7 unknown #
vertex $-1 $159 $361 #
ellipse-curve $-1 -68.605913336342724 -6.5569338427113131 11.51900813301209 -0.83867057594974714 0 0.54463902268945019 0.54463902268945019 0 0.83867057594974714 1 I I #
face $-1 $-1 $264 $24 $-1 $362 reversed single #
loop $-1 $-1 $363 $160 #
plane-surface $-1 0 33.983637736830012 0 0 -1 0 0 0 -1 forward_v I I I I #
coedge $-1 $270 $269 $364 $365 forward $161 $-1 #
coedge $-1 $163 $173 $366 $367 forward $100 $-1 #
coedge $-1 $263 $169 $163 $258 reversed $264 $-1 #
edge $-1 $368 -33.983637736830012 $174 33.983637736830012 $257 $369 forward 7 unknown #
coedge $-1 $165 $164 $269 $370 forward $65 $-1 #
coedge $-1 $363 $364 $164 $261 reversed $253 $-1 #
edge $-1 $266 -71.71971800897245 $371 71.71971800897245 $260 $372 forward 7 unknown #
edge $-1 $271 -71.71971800897245 $265 71.71971800897245 $168 $373 forward 7 unknown #
coedge $-1 $166 $257 $363 $374 reversed $264 $-1 #
loop $-1 $-1 $169 $252 #
vertex $-1 $167 $375 #
vertex $-1 $167 $376 #
straight-curve $-1 71.71971800897245 0 16.3138470068297 0 1 0 I I #
straight-curve $-1 71.71971800897245 -33.983637736830012 0 0 0 -1 I I #
coedge $-1 $255 $171 $259 $370 reversed $161 $-1 #
coedge $-1 $171 $255 $173 $273 reversed $161 $-1 #
vertex $-1 $370 $377 #
straight-curve $-1 -71.71971800897245 -33.983637736830012 0 0 0 -1 I I #
edge $-1 $175 -33.983637736830012 $378 33.983637736830012 $270 $379 forward 7 unknown #
point $-1 71.71971800897245 -33.983637736830012 -16.3138470068297 #
point $-1 -71.71971800897245 -33.983637736830012 -16.3138470068297 #
face $-1 $-1 $289 $25 $-1 $380 reversed single #
plane-surface $-1 -65.884531702949772 -40.422660923412209 0 -1 0 0 0 0 1 forward_v I I I I #
coedge $-1 $381 $382 $383 $384 forward $178 $-1 #
coedge $-1 $383 $180 $288 $385 reversed $108 $-1 #
coedge $-1 $180 $383 $181 $283 reversed $108 $-1 #
edge $-1 $285 -16.3138470068297 $290 16.3138470068297 $180 $386 forward 7 unknown #
coedge $-1 $182 $181 $382 $387 forward $69 $-1 #
edge $-1 $285 33.983637736830012 $388 46.8616841099944 $280 $389 forward 7 unknown #
edge $-1 $390 -6.4390231865821903 $190 6.4390231865821903 $187 $391 forward 7 unknown #
vertex $-1 $283 $392 #
straight-curve $-1 0 -33.983637736830012 16.3138470068297 -1 0 0 I I #
coedge $-1 $393 $185 $188 $293 forward $289 $-1 #
coedge $-1 $185 $393 $279 $385 forward $289 $-1 #
loop $-1 $-1 $185 $276 #
vertex $-1 $281 $394 #
straight-curve $-1 0 -33.983637736830012 -16.3138470068297 1 0 0 I I #
coedge $-1 $188 $187 $395 $396 forward $189 $-1 #
edge $-1 $191 -6.4390231865821903 $397 6.4390231865821903 $188 $398 forward 7 unknown #
point $-1 -65.884531702949772 -33.983637736830019 16.3138470068297 #
point $-1 -65.884531702949772 -33.983637736830019 -16.3138470068297 #
loop $-1 $-1 $201 $193 #
plane-surface $-1 71.71971800897245 0 0 -1 0 0 0 0 1 forward_v I I I I #
coedge $-1 $299 $196 $198 $303 reversed $116 $-1 #
coedge $-1 $196 $298 $399 $400 reversed $116 $-1 #
coedge $-1 $204 $199 $196 $301 forward $194 $-1 #
edge $-1 $304 25.916346622900889 $401 34.089712610679072 $300 $402 forward 7 unknown #
coedge $-1 $198 $197 $307 $403 reversed $73 $-1 #
edge $-1 $404 -143.43943601794487 $304 -131.67341341497649 $298 $405 forward 7 unknown #
vertex $-1 $200 $406 #
straight-curve $-1 63.546352021194259 0.2956045962340319 16.313847006829718 0 -1 0 I I #
coedge $-1 $399 $201 $204 $311 reversed $296 $-1 #
coedge $-1 $201 $399 $302 $403 forward $296 $-1 #
vertex $-1 $202 $407 #
straight-curve $-1 71.71971800897245 6.4390231865821939 105.33658933376114 0 0 1 I I #
straight-curve $-1 -27.921685651035986 6.4390231865821939 111.03177500751383 0.69465836192734942 0 -0.71933980857756763 I I #
edge $-1 $401 -5.2566048016460662 $205 6.4390231865821939 $306 $408 forward 7 unknown #
point $-1 71.71971800897245 6.4390231865821939 16.3138470068297 #
point $-1 63.546352021194267 6.4390231865821939 16.313847006829718 #
edge $-1 $409 1 $409 0 $208 $-1 forward 7 unknown #
vertex $-1 $209 $410 #
ellipse-curve $-1 65.209184547690825 0.5912091924680638 9.7412776507452925 0.71933980857756763 0 0.69465836192734942 1.7366459048183736 0 -1.7983495214439191 1 I I #
point $-1 69.369680919901668 0.5912091924680638 10.283613261916461 #
loop $-1 $-1 $323 $212 #
plane-surface $-1 0 0 16.3138470068297 0 0 1 1 0 0 forward_v I I I I #
coedge $-1 $218 $325 $411 $412 reversed $213 $-1 #
coedge $-1 $215 $224 $325 $413 forward $131 $-1 #
edge $-1 $327 6.143418590348162 $225 17.839046578576415 $215 $414 forward 7 unknown #
coedge $-1 $411 $222 $216 $324 forward $318 $-1 #
edge $-1 $329 -17.839046578576415 $326 -6.143418590348162 $323 $415 forward 7 unknown #
coedge $-1 $320 $218 $321 $413 reversed $213 $-1 #
vertex $-1 $324 $416 #
vertex $-1 $322 $417 #
straight-curve $-1 -27.921685651035986 6.4390231865821939 111.03177500751383 0.69465836192734942 0 -0.71933980857756763 I I #
vertex $-1 $223 $418 #
straight-curve $-1 -27.921685651035986 18.134651174810447 111.03177500751383 0.69465836192734942 0 -0.71933980857756763 I I #
coedge $-1 $222 $411 $224 $333 forward $318 $-1 #
straight-curve $-1 37.630005398293378 18.134651174810447 16.313847006829704 -1 0 0 I I #
edge $-1 $419 6.4390231865821939 $226 18.134651174810447 $224 $420 forward 7 unknown #
point $-1 71.719718008972436 18.134651174810447 7.8500785598911023 #
point $-1 71.71971800897245 18.134651174810447 16.3138470068297 #
edge $-1 $421 1 $421 0 $228 $-1 forward 7 unknown #
vertex $-1 $229 $422 #
ellipse-curve $-1 65.209184547690825 12.286837180696317 9.7412776507452925 0.71933980857756763 0 0.69465836192734942 1.7366459048183736 0 -1.7983495214439191 1 I I #
point $-1 69.369680919901668 12.286837180696317 10.283613261916461 #
plane-surface $-1 0 0 16.3138470068297 0 0 1 1 0 0 forward_v I I I I #
coedge $-1 $351 $350 $343 $423 forward $233 $-1 #
coedge $-1 $343 $235 $237 $347 reversed $146 $-1 #
coedge $-1 $235 $342 $341 $423 reversed $146 $-1 #
coedge $-1 $243 $238 $235 $345 forward $244 $-1 #
edge $-1 $348 -30.516967550311648 $424 -24.289358205052167 $344 $425 forward 7 unknown #
coedge $-1 $237 $236 $351 $426 reversed $91 $-1 #
edge $-1 $427 5.1979138280344745e-014 $348 11.43437962727554 $342 $428 forward 7 unknown #
vertex $-1 $239 $429 #
straight-curve $-1 -65.492108663712969 -3.2784669213556565 16.3138470068297 0 1 0 I I #
coedge $-1 $341 $240 $243 $355 reversed $233 $-1 #
coedge $-1 $240 $341 $346 $426 forward $233 $-1 #
vertex $-1 $241 $430 #
straight-curve $-1 -71.71971800897245 -11.085976958380819 42.423441753566948 0 0 1 I I #
straight-curve $-1 -71.719718008972478 -11.085976958380819 6.7241692591944684 -0.54463902268945019 0 -0.83867057594974714 I I #
edge $-1 $424 2.0278907270418074 $245 11.085976958380819 $350 $431 forward 7 unknown #
point $-1 -71.71971800897245 -11.085976958380819 16.3138470068297 #
point $-1 -65.492108663712969 -11.085976958380819 16.3138470068297 #
edge $-1 $432 1 $432 0 $248 $-1 forward 7 unknown #
vertex $-1 $249 $433 #
ellipse-curve $-1 -65.941066823522362 -6.5569338427113131 9.7884366285614153 -0.83867057594974714 0 0.54463902268945019 0.54463902268945019 0 0.83867057594974714 1 I I #
point $-1 -68.061274313653243 -6.5569338427113131 12.357678708961823 #
plane-surface $-1 71.71971800897245 0 0 -1 0 0 0 0 1 forward_v I I I I #
coedge $-1 $366 $260 $263 $374 forward $253 $-1 #
coedge $-1 $260 $366 $255 $365 reversed $253 $-1 #
edge $-1 $371 -16.3138470068297 $378 16.3138470068297 $364 $434 forward 7 unknown #
coedge $-1 $364 $363 $256 $367 reversed $253 $-1 #
edge $-1 $378 -71.71971800897245 $368 71.71971800897245 $366 $435 forward 7 unknown #
vertex $-1 $258 $436 #
straight-curve $-1 71.71971800897245 0 -16.3138470068297 0 -1 0 I I #
edge $-1 $371 -33.983637736830012 $271 33.983637736830012 $269 $437 forward 7 unknown #
vertex $-1 $261 $438 #
straight-curve $-1 0 33.983637736830012 16.3138470068297 -1 0 0 I I #
straight-curve $-1 0 -33.983637736830012 16.3138470068297 1 0 0 I I #
edge $-1 $266 -16.3138470068297 $368 16.3138470068297 $263 $439 forward 7 unknown #
point $-1 71.71971800897245 -33.983637736830012 16.3138470068297 #
point $-1 71.71971800897245 33.983637736830012 16.3138470068297 #
point $-1 -71.71971800897245 -33.983637736830012 16.3138470068297 #
vertex $-1 $367 $440 #
straight-curve $-1 -71.71971800897245 0 -16.3138470068297 0 1 0 I I #
plane-surface $-1 0 0 -16.3138470068297 0 0 1 1 0 0 forward_v I I I I #
coedge $-1 $395 $278 $393 $441 reversed $178 $-1 #
coedge $-1 $278 $395 $282 $387 reversed $178 $-1 #
coedge $-1 $280 $279 $278 $384 reversed $108 $-1 #
edge $-1 $388 -16.3138470068297 $442 16.3138470068297 $383 $443 forward 7 unknown #
edge $-1 $442 -46.8616841099944 $290 -33.983637736830012 $279 $444 forward 7 unknown #
straight-curve $-1 -71.71971800897245 -33.983637736830012 0 0 0 -1 I I #
edge $-1 $388 -2.9175931530113388 $390 2.9175931530113388 $382 $445 forward 7 unknown #
vertex $-1 $283 $446 #
straight-curve $-1 -71.71971800897245 0 16.3138470068297 0 -1 0 I I #
vertex $-1 $284 $447 #
straight-curve $-1 -65.884531702949772 -40.422660923412209 16.3138470068297 0 1 0 I I #
point $-1 -71.71971800897245 -33.983637736830012 16.3138470068297 #
coedge $-1 $288 $287 $381 $441 forward $289 $-1 #
point $-1 -71.71971800897245 -33.983637736830012 -16.3138470068297 #
coedge $-1 $382 $381 $292 $396 reversed $178 $-1 #
edge $-1 $390 -16.3138470068297 $397 16.3138470068297 $292 $448 forward 7 unknown #
vertex $-1 $396 $449 #
straight-curve $-1 -65.884531702949772 -40.422660923412209 -16.3138470068297 0 -1 0 I I #
coedge $-1 $307 $306 $299 $400 forward $296 $-1 #
edge $-1 $401 89.022742326931436 $404 97.486510773870037 $399 $450 forward 7 unknown #
vertex $-1 $311 $451 #
straight-curve $-1 37.630005398293378 -5.2566048016460662 16.313847006829704 1 0 0 I I #
edge $-1 $404 -5.5522093978800982 $308 6.143418590348162 $307 $452 forward 7 unknown #
vertex $-1 $403 $453 #
straight-curve $-1 -27.921685651035986 -5.2566048016460662 111.03177500751383 -0.69465836192734942 0 0.71933980857756763 I I #
point $-1 63.546352021194267 -5.2566048016460662 16.313847006829718 #
point $-1 71.719718008972436 6.4390231865821939 7.8500785598911023 #
straight-curve $-1 71.71971800897245 0 16.3138470068297 0 1 0 I I #
vertex $-1 $314 $454 #
point $-1 66.945830452509199 0.5912091924680638 7.9429281293013734 #
coedge $-1 $331 $323 $320 $412 forward $318 $-1 #
edge $-1 $326 25.916346622900889 $419 34.089712610679072 $411 $455 forward 7 unknown #
edge $-1 $419 89.022742326931436 $327 97.486510773870037 $321 $456 forward 7 unknown #
straight-curve $-1 71.71971800897245 0.2956045962340319 7.8500785598911023 0 1 0 I I #
straight-curve $-1 63.546352021194259 0.2956045962340319 16.313847006829718 0 -1 0 I I #
point $-1 63.546352021194267 6.4390231865821939 16.313847006829718 #
point $-1 71.719718008972436 6.4390231865821939 7.8500785598911023 #
point $-1 63.546352021194267 18.134651174810447 16.313847006829718 #
vertex $-1 $333 $457 #
straight-curve $-1 71.71971800897245 0 16.3138470068297 0 1 0 I I #
vertex $-1 $336 $458 #
point $-1 66.945830452509199 12.286837180696317 7.9429281293013734 #
edge $-1 $424 26.109594746737248 $427 35.699272494372437 $341 $459 forward 7 unknown #
vertex $-1 $355 $460 #
straight-curve $-1 -96.009076214024617 -2.0278907270418074 16.313847006829697 -1 0 0 I I #
edge $-1 $427 -1.2505761943138491 $352 7.8075100370251622 $351 $461 forward 7 unknown #
vertex $-1 $426 $462 #
straight-curve $-1 -71.719718008972478 -2.0278907270418074 6.7241692591944684 0.54463902268945019 0 0.83867057594974714 I I #
point $-1 -65.492108663712969 -2.0278907270418074 16.3138470068297 #
point $-1 -71.71971800897245 -11.085976958380819 6.7241692591945119 #
straight-curve $-1 -71.71971800897245 0 16.3138470068297 0 -1 0 I I #
vertex $-1 $358 $463 #
point $-1 -65.39642780083291 -6.5569338427113131 10.627107204511162 #
straight-curve $-1 -71.71971800897245 33.983637736830012 0 0 0 -1 I I #
straight-curve $-1 0 33.983637736830012 -16.3138470068297 1 0 0 I I #
point $-1 71.71971800897245 33.983637736830012 -16.3138470068297 #
straight-curve $-1 -71.71971800897245 0 16.3138470068297 0 -1 0 I I #
point $-1 -71.71971800897245 33.983637736830012 16.3138470068297 #
straight-curve $-1 71.71971800897245 33.983637736830012 0 0 0 -1 I I #
point $-1 -71.71971800897245 33.983637736830012 -16.3138470068297 #
edge $-1 $397 -2.9175931530113388 $442 2.9175931530113388 $381 $464 forward 7 unknown #
vertex $-1 $385 $465 #
straight-curve $-1 -71.71971800897245 -46.8616841099944 0 0 0 -1 I I #
straight-curve $-1 -71.71971800897245 0 -16.3138470068297 0 1 0 I I #
straight-curve $-1 -68.802124855961111 -46.8616841099944 16.3138470068297 1 0 0 I I #
point $-1 -71.71971800897245 -46.8616841099944 16.3138470068297 #
point $-1 -65.884531702949772 -46.8616841099944 16.3138470068297 #
straight-curve $-1 -65.884531702949772 -46.8616841099944 0 0 0 -1 I I #
point $-1 -65.884531702949772 -46.8616841099944 -16.3138470068297 #
straight-curve $-1 71.71971800897245 -5.2566048016460662 105.33658933376114 0 0 -1 I I #
point $-1 71.71971800897245 -5.2566048016460662 16.3138470068297 #
straight-curve $-1 71.71971800897245 0.2956045962340319 7.8500785598911023 0 1 0 I I #
point $-1 71.719718008972436 -5.2566048016460662 7.8500785598911023 #
point $-1 63.4108350262469 0.5912091924680638 8.0046317459269183 #
straight-curve $-1 37.630005398293378 6.4390231865821939 16.313847006829704 1 0 0 I I #
straight-curve $-1 71.71971800897245 6.4390231865821939 105.33658933376114 0 0 -1 I I #
point $-1 71.71971800897245 6.4390231865821939 16.3138470068297 #
point $-1 63.4108350262469 12.286837180696317 8.0046317459269183 #
straight-curve $-1 -71.71971800897245 -2.0278907270418074 42.423441753566948 0 0 -1 I I #
point $-1 -71.71971800897245 -2.0278907270418074 16.3138470068297 #
straight-curve $-1 -71.71971800897245 -3.2784669213556565 6.7241692591945021 0 -1 0 I I #
point $-1 -71.71971800897245 -2.0278907270418074 6.7241692591945119 #
point $-1 -65.102396247572614 -6.5569338427113131 9.2437976058719666 #
straight-curve $-1 -68.802124855961111 -46.8616841099944 -16.3138470068297 -1 0 0 I I #
point $-1 -71.71971800897245 -46.8616841099944 -16.3138470068297 #
End-of-ACIS-data 