500 0 5 0           
7 Unknown 11 ACIS 5.0 NT 24 Fri Mar 26 19:53:41 1999 
-1 9.9999999999999995e-007 1e-010 
body $-1 $5 $-1 $6 #
body $-1 $7 $-1 $8 #
body $-1 $9 $-1 $10 #
body $-1 $11 $-1 $12 #
body $-1 $13 $-1 $14 #
lump $-1 $-1 $15 $0 #
transform $-1 1 0 0 0 1 0 0 0 1 41.630909146397293 21.558196645618576 10.610340809469612 1 rotate no_reflect no_shear #
lump $-1 $-1 $16 $1 #
transform $-1 1 0 0 0 1 0 0 0 1 41.630909146397293 21.558196645618576 10.610340809469612 1 rotate no_reflect no_shear #
lump $-1 $-1 $17 $2 #
transform $-1 1 0 0 0 1 0 0 0 1 41.630909146397293 21.558196645618576 10.610340809469612 1 rotate no_reflect no_shear #
lump $-1 $-1 $18 $3 #
transform $-1 1 0 0 0 1 0 0 0 1 41.630909146397293 21.558196645618576 10.610340809469612 1 rotate no_reflect no_shear #
lump $-1 $-1 $19 $4 #
transform $-1 1 0 0 0 1 0 0 0 1 41.630909146397293 21.558196645618576 10.610340809469612 1 rotate no_reflect no_shear #
shell $-1 $-1 $-1 $20 $-1 $5 #
shell $-1 $-1 $-1 $21 $-1 $7 #
shell $-1 $-1 $-1 $22 $-1 $9 #
shell $-1 $-1 $-1 $23 $-1 $11 #
shell $-1 $-1 $-1 $24 $-1 $13 #
face $-1 $25 $26 $15 $-1 $27 forward single #
face $-1 $28 $29 $16 $-1 $30 reversed single #
face $-1 $31 $32 $17 $-1 $33 forward single #
face $-1 $34 $35 $18 $-1 $36 reversed single #
face $-1 $37 $38 $19 $-1 $39 forward single #
face $-1 $40 $41 $15 $-1 $42 reversed single #
loop $-1 $-1 $43 $20 #
plane-surface $-1 0 0 10.610340809469612 0 0 1 1 0 0 forward_v I I I I #
face $-1 $44 $45 $16 $-1 $46 reversed single #
loop $-1 $-1 $47 $21 #
plane-surface $-1 0 -16.085042400381784 7.270740330195224 0 0 1 1 0 0 forward_v I I I I #
face $-1 $48 $49 $17 $-1 $50 forward single #
loop $-1 $-1 $51 $22 #
plane-surface $-1 0 21.558196645618576 0 0 -1 0 0 0 -1 forward_v I I I I #
face $-1 $52 $53 $18 $-1 $54 reversed single #
loop $-1 $-1 $55 $23 #
plane-surface $-1 29.322684541683863 -4.7911407166296867 117.23106114927077 0 -1 0 -0.62932039886446345 0 -0.77714595512881146 forward_v I I I I #
face $-1 $56 $57 $19 $-1 $58 forward single #
loop $-1 $59 $60 $24 #
cone-surface $-1 34.392553661568407 -7.70151443588734 4.4236732061444171 -0.62932039886446345 0 -0.77714595512881146 0.77714595512881146 0 -0.62932039886446345 1 I I 0 1 1 forward I I I I #
face $-1 $61 $62 $15 $-1 $63 reversed single #
loop $-1 $-1 $64 $25 #
plane-surface $-1 0 0 -10.610340809469612 0 0 1 1 0 0 forward_v I I I I #
coedge $-1 $65 $66 $67 $68 forward $26 $-1 #
face $-1 $69 $70 $16 $-1 $71 reversed single #
loop $-1 $-1 $72 $28 #
plane-surface $-1 0 -10.611888155144992 8.9405405698324181 0 -1 0 0 0 -1 forward_v I I I I #
coedge $-1 $73 $74 $75 $76 reversed $29 $-1 #
face $-1 $77 $78 $17 $-1 $79 reversed single #
loop $-1 $-1 $80 $31 #
plane-surface $-1 0 0 10.610340809469612 0 0 1 1 0 0 forward_v I I I I #
coedge $-1 $81 $82 $83 $84 forward $32 $-1 #
face $-1 $85 $86 $18 $-1 $87 forward single #
loop $-1 $-1 $88 $34 #
plane-surface $-1 -23.075676156518107 -7.70151443588734 52.524475846355372 0.62932039886446345 0 0.77714595512881146 0.77714595512881146 0 -0.62932039886446345 forward_v I I I I #
coedge $-1 $89 $90 $91 $92 reversed $35 $-1 #
face $-1 $-1 $93 $19 $-1 $94 forward single #
loop $-1 $95 $96 $37 #
cone-surface $-1 33.313008073025891 -7.70151443588734 3.090545455912924 -0.62932039886446345 0 -0.77714595512881146 0.38857297756440573 0 -0.31466019943223172 1 I I -0.70710678118654746 0.70710678118654746 0.5 forward I I I I #
loop $-1 $-1 $97 $24 #
coedge $-1 $60 $60 $98 $99 reversed $38 $-1 #
face $-1 $100 $101 $15 $-1 $102 reversed single #
loop $-1 $-1 $103 $40 #
plane-surface $-1 0 -21.558196645618576 0 0 1 0 0 0 1 forward_v I I I I #
coedge $-1 $104 $105 $106 $107 forward $41 $-1 #
coedge $-1 $108 $43 $109 $110 forward $26 $-1 #
coedge $-1 $43 $108 $111 $112 forward $26 $-1 #
coedge $-1 $113 $114 $43 $68 reversed $115 $-1 #
edge $-1 $116 -21.558196645618576 $117 21.558196645618576 $67 $118 forward 7 unknown #
face $-1 $119 $120 $16 $-1 $121 reversed single #
loop $-1 $-1 $122 $44 #
plane-surface $-1 -41.630909146397293 0 0 1 0 0 0 0 -1 forward_v I I I I #
coedge $-1 $123 $124 $125 $126 reversed $45 $-1 #
coedge $-1 $127 $47 $128 $129 reversed $29 $-1 #
coedge $-1 $47 $127 $123 $130 forward $29 $-1 #
coedge $-1 $125 $131 $47 $76 forward $132 $-1 #
edge $-1 $133 -13.515675445427684 $134 -2.5693669549541003 $75 $135 forward 7 unknown #
face $-1 $136 $137 $17 $-1 $138 reversed single #
loop $-1 $-1 $139 $48 #
plane-surface $-1 41.630909146397293 0 0 -1 0 0 0 0 1 forward_v I I I I #
coedge $-1 $140 $141 $142 $143 forward $49 $-1 #
coedge $-1 $142 $51 $139 $144 reversed $32 $-1 #
coedge $-1 $51 $142 $145 $146 reversed $32 $-1 #
coedge $-1 $147 $148 $51 $84 reversed $137 $-1 #
edge $-1 $149 -41.630909146397293 $150 41.630909146397293 $83 $151 forward 7 unknown #
face $-1 $152 $153 $18 $-1 $154 forward single #
loop $-1 $-1 $91 $52 #
plane-surface $-1 0 0 10.610340809469612 0 0 1 1 0 0 forward_v I I I I #
coedge $-1 $155 $156 $157 $158 reversed $53 $-1 #
coedge $-1 $90 $55 $159 $160 reversed $35 $-1 #
coedge $-1 $55 $89 $155 $161 reversed $35 $-1 #
coedge $-1 $157 $162 $55 $92 forward $86 $-1 #
edge $-1 $163 -26.969566875555362 $164 -14.022626684118205 $91 $165 forward 7 unknown #
loop $-1 $-1 $98 $56 #
plane-surface $-1 -23.075676156518107 -7.70151443588734 52.524475846355372 0.62932039886446345 0 0.77714595512881146 0.77714595512881146 0 -0.62932039886446345 forward_v I I I I #
loop $-1 $-1 $166 $37 #
coedge $-1 $96 $96 $97 $167 reversed $57 $-1 #
coedge $-1 $97 $97 $96 $167 forward $59 $-1 #
coedge $-1 $98 $98 $60 $99 forward $93 $-1 #
edge $-1 $168 0 $168 6.2831853071796004 $98 $169 forward 7 unknown #
face $-1 $170 $171 $15 $-1 $172 reversed single #
loop $-1 $-1 $173 $61 #
plane-surface $-1 -41.630909146397293 0 0 1 0 0 0 0 -1 forward_v I I I I #
coedge $-1 $174 $111 $175 $176 forward $62 $-1 #
coedge $-1 $177 $64 $174 $178 forward $41 $-1 #
coedge $-1 $64 $177 $179 $180 forward $41 $-1 #
coedge $-1 $114 $113 $64 $107 reversed $115 $-1 #
edge $-1 $181 -21.558196645618576 $182 21.558196645618576 $106 $183 forward 7 unknown #
coedge $-1 $66 $65 $184 $185 forward $26 $-1 #
coedge $-1 $186 $187 $65 $110 reversed $171 $-1 #
edge $-1 $117 -41.630909146397293 $188 41.630909146397293 $109 $189 forward 7 unknown #
coedge $-1 $103 $190 $66 $112 reversed $62 $-1 #
edge $-1 $191 -41.630909146397293 $116 41.630909146397293 $111 $192 forward 7 unknown #
coedge $-1 $106 $67 $190 $193 forward $115 $-1 #
coedge $-1 $67 $106 $186 $194 reversed $115 $-1 #
loop $-1 $-1 $113 $170 #
vertex $-1 $68 $195 #
vertex $-1 $68 $196 #
straight-curve $-1 41.630909146397293 0 10.610340809469612 0 1 0 I I #
face $-1 $197 $198 $16 $-1 $199 forward single #
loop $-1 $-1 $128 $69 #
plane-surface $-1 0 -21.558196645618576 0 0 1 0 0 0 1 forward_v I I I I #
coedge $-1 $200 $201 $202 $203 forward $70 $-1 #
coedge $-1 $202 $72 $74 $130 reversed $45 $-1 #
coedge $-1 $72 $202 $204 $205 reversed $45 $-1 #
coedge $-1 $206 $75 $72 $126 forward $132 $-1 #
edge $-1 $134 2.800470045279015 $207 6.1400705245534031 $125 $208 forward 7 unknown #
coedge $-1 $74 $73 $200 $209 reversed $29 $-1 #
coedge $-1 $210 $211 $73 $129 forward $120 $-1 #
edge $-1 $212 -41.630909146397293 $133 41.630909146397293 $128 $213 forward 7 unknown #
edge $-1 $214 -41.630909146397293 $134 41.630909146397293 $123 $215 forward 7 unknown #
coedge $-1 $75 $206 $210 $216 forward $132 $-1 #
loop $-1 $-1 $125 $197 #
vertex $-1 $129 $217 #
vertex $-1 $76 $218 #
straight-curve $-1 41.630909146397293 -8.0425212001908921 7.270740330195224 0 1 0 I I #
face $-1 $219 $220 $17 $-1 $221 reversed single #
loop $-1 $-1 $148 $77 #
plane-surface $-1 0 28.33929145903706 4.3170587381160548 0 0 1 1 0 0 forward_v I I I I #
coedge $-1 $222 $223 $81 $144 forward $78 $-1 #
coedge $-1 $224 $80 $223 $225 forward $49 $-1 #
coedge $-1 $80 $224 $226 $227 forward $49 $-1 #
coedge $-1 $82 $81 $80 $143 reversed $32 $-1 #
edge $-1 $228 -41.630909146397293 $229 41.630909146397293 $80 $230 forward 7 unknown #
edge $-1 $229 -10.610340809469612 $150 -4.3170587381160548 $139 $231 forward 7 unknown #
coedge $-1 $226 $232 $82 $146 forward $233 $-1 #
edge $-1 $149 4.3170587381160548 $228 10.610340809469612 $145 $234 forward 7 unknown #
coedge $-1 $235 $83 $232 $236 forward $137 $-1 #
coedge $-1 $83 $235 $222 $237 forward $137 $-1 #
vertex $-1 $146 $238 #
vertex $-1 $144 $239 #
straight-curve $-1 0 21.558196645618576 4.3170587381160548 1 0 0 I I #
face $-1 $-1 $240 $18 $-1 $241 reversed single #
loop $-1 $-1 $242 $85 #
plane-surface $-1 0 -10.611888155144992 8.9405405698324181 0 -1 0 0 0 -1 forward_v I I I I #
coedge $-1 $243 $88 $90 $161 forward $53 $-1 #
coedge $-1 $88 $243 $242 $244 forward $53 $-1 #
coedge $-1 $245 $91 $88 $158 forward $86 $-1 #
edge $-1 $164 0.94038349868601667 $246 6.7611309372013224 $157 $247 forward 7 unknown #
coedge $-1 $248 $249 $89 $160 forward $240 $-1 #
edge $-1 $250 -58.489415426481983 $163 -48.005189765165774 $159 $251 forward 7 unknown #
edge $-1 $164 66.602219016760003 $250 83.261818292794601 $90 $252 forward 7 unknown #
coedge $-1 $91 $245 $248 $253 forward $86 $-1 #
vertex $-1 $160 $254 #
vertex $-1 $92 $255 #
straight-curve $-1 14.661342270841931 -4.7911407166296867 10.610340809469612 -1 0 0 I I #
coedge $-1 $166 $166 $-1 $256 reversed $95 $-1 #
edge $-1 $257 0 $257 6.2831853071796004 $96 $258 forward 7 unknown #
vertex $-1 $99 $259 #
ellipse-curve $-1 35.157439050678704 -7.70151443588734 5.3682279788115173 0.62932039886446345 0 0.77714595512881146 0.77714595512881146 0 -0.62932039886446345 1 I I #
face $-1 $-1 $115 $15 $-1 $260 reversed single #
loop $-1 $-1 $186 $100 #
plane-surface $-1 0 21.558196645618576 0 0 -1 0 0 0 -1 forward_v I I I I #
coedge $-1 $261 $184 $187 $262 forward $101 $-1 #
coedge $-1 $190 $103 $104 $178 reversed $62 $-1 #
coedge $-1 $184 $261 $103 $176 reversed $101 $-1 #
edge $-1 $191 -10.610340809469612 $263 10.610340809469612 $175 $264 forward 7 unknown #
coedge $-1 $105 $104 $261 $265 forward $41 $-1 #
edge $-1 $182 -41.630909146397293 $263 41.630909146397293 $174 $266 forward 7 unknown #
coedge $-1 $187 $186 $105 $180 reversed $171 $-1 #
edge $-1 $267 -41.630909146397293 $181 41.630909146397293 $179 $268 forward 7 unknown #
vertex $-1 $107 $269 #
vertex $-1 $193 $270 #
straight-curve $-1 41.630909146397293 0 -10.610340809469612 0 -1 0 I I #
coedge $-1 $173 $175 $108 $185 reversed $101 $-1 #
edge $-1 $188 -21.558196645618576 $191 21.558196645618576 $184 $271 forward 7 unknown #
coedge $-1 $179 $109 $114 $194 forward $171 $-1 #
coedge $-1 $109 $179 $173 $262 reversed $171 $-1 #
vertex $-1 $110 $272 #
straight-curve $-1 0 21.558196645618576 10.610340809469612 -1 0 0 I I #
coedge $-1 $111 $174 $113 $193 reversed $62 $-1 #
vertex $-1 $185 $273 #
straight-curve $-1 0 -21.558196645618576 10.610340809469612 1 0 0 I I #
edge $-1 $116 -10.610340809469612 $182 10.610340809469612 $113 $274 forward 7 unknown #
edge $-1 $117 -10.610340809469612 $181 10.610340809469612 $114 $275 forward 7 unknown #
point $-1 41.630909146397293 -21.558196645618576 10.610340809469612 #
point $-1 41.630909146397293 21.558196645618576 10.610340809469612 #
face $-1 $-1 $132 $16 $-1 $276 reversed single #
loop $-1 $-1 $204 $119 #
plane-surface $-1 0 0 10.610340809469612 0 0 1 1 0 0 forward_v I I I I #
coedge $-1 $277 $122 $127 $209 forward $70 $-1 #
coedge $-1 $122 $277 $278 $279 reversed $70 $-1 #
coedge $-1 $124 $123 $122 $203 reversed $45 $-1 #
edge $-1 $280 -6.1400705245534031 $214 -2.800470045279015 $122 $281 forward 7 unknown #
coedge $-1 $278 $282 $124 $205 forward $198 $-1 #
edge $-1 $207 -41.630909146397293 $280 41.630909146397293 $204 $283 forward 7 unknown #
coedge $-1 $131 $125 $282 $284 reversed $132 $-1 #
vertex $-1 $126 $285 #
straight-curve $-1 41.630909146397293 -10.611888155144992 4.470270284916209 0 0 1 I I #
edge $-1 $214 2.5693669549541003 $212 13.515675445427684 $200 $286 forward 7 unknown #
coedge $-1 $287 $128 $131 $216 reversed $120 $-1 #
coedge $-1 $128 $287 $277 $288 forward $120 $-1 #
vertex $-1 $129 $289 #
straight-curve $-1 0 -21.558196645618576 7.270740330195224 1 0 0 I I #
vertex $-1 $209 $290 #
straight-curve $-1 0 -10.611888155144992 7.270740330195224 1 0 0 I I #
edge $-1 $291 -10.610340809469612 $133 -7.270740330195224 $131 $292 forward 7 unknown #
point $-1 41.630909146397293 -21.558196645618576 7.270740330195224 #
point $-1 41.630909146397293 -10.611888155144992 7.270740330195224 #
face $-1 $-1 $233 $17 $-1 $293 reversed single #
loop $-1 $-1 $294 $136 #
plane-surface $-1 0 35.120386272455548 7.4636997737928326 0 -1 0 0 0 -1 forward_v I I I I #
coedge $-1 $295 $139 $148 $237 reversed $78 $-1 #
coedge $-1 $139 $295 $140 $225 reversed $78 $-1 #
coedge $-1 $141 $140 $296 $297 forward $49 $-1 #
edge $-1 $229 21.558196645618576 $298 35.120386272455548 $223 $299 forward 7 unknown #
coedge $-1 $300 $145 $141 $227 reversed $233 $-1 #
edge $-1 $301 -35.120386272455548 $228 -21.558196645618576 $226 $302 forward 7 unknown #
vertex $-1 $146 $303 #
vertex $-1 $225 $304 #
straight-curve $-1 0 21.558196645618576 10.610340809469612 1 0 0 I I #
straight-curve $-1 41.630909146397293 21.558196645618576 0 0 0 -1 I I #
coedge $-1 $145 $300 $147 $236 reversed $233 $-1 #
loop $-1 $-1 $145 $219 #
straight-curve $-1 -41.630909146397293 21.558196645618576 0 0 0 1 I I #
coedge $-1 $148 $147 $305 $306 forward $137 $-1 #
edge $-1 $149 -6.7810948134184876 $307 6.7810948134184876 $232 $308 forward 7 unknown #
edge $-1 $309 -6.7810948134184876 $150 6.7810948134184876 $222 $310 forward 7 unknown #
point $-1 -41.630909146397293 21.558196645618573 4.3170587381160548 #
point $-1 41.630909146397293 21.558196645618573 4.3170587381160548 #
loop $-1 $-1 $159 $152 #
plane-surface $-1 41.630909146397293 0 0 -1 0 0 0 0 1 forward_v I I I I #
coedge $-1 $311 $312 $156 $244 reversed $153 $-1 #
coedge $-1 $156 $155 $249 $313 reversed $53 $-1 #
edge $-1 $314 -83.261818292794601 $246 -66.602219016760003 $242 $315 forward 7 unknown #
coedge $-1 $162 $157 $312 $316 forward $86 $-1 #
vertex $-1 $316 $317 #
straight-curve $-1 28.683968954960147 -3.85075721794367 10.610340809469609 0 -1 0 I I #
coedge $-1 $318 $159 $162 $253 reversed $240 $-1 #
coedge $-1 $159 $318 $243 $313 forward $240 $-1 #
vertex $-1 $160 $319 #
straight-curve $-1 41.630909146397293 -4.7911407166296867 58.615530574635386 0 0 1 I I #
straight-curve $-1 -23.075676156518107 -4.7911407166296867 52.524475846355372 0.77714595512881146 0 -0.62932039886446345 I I #
edge $-1 $320 -10.611888155144992 $163 -4.7911407166296867 $248 $321 forward 7 unknown #
point $-1 41.630909146397293 -4.7911407166296867 10.610340809469612 #
point $-1 28.683968954960136 -4.7911407166296867 10.610340809469612 #
edge $-1 $322 1 $322 0 $166 $-1 forward 7 unknown #
vertex $-1 $167 $323 #
ellipse-curve $-1 33.627668272458124 -7.70151443588734 3.4791184334773297 0.62932039886446345 0 0.77714595512881146 0.77714595512881146 0 -0.62932039886446345 1 I I #
point $-1 35.934585005807506 -7.70151443588734 4.7389075799470426 #
plane-surface $-1 41.630909146397293 0 0 -1 0 0 0 0 1 forward_v I I I I #
coedge $-1 $175 $173 $177 $265 reversed $101 $-1 #
edge $-1 $188 -10.610340809469612 $267 10.610340809469612 $187 $324 forward 7 unknown #
vertex $-1 $265 $325 #
straight-curve $-1 -41.630909146397293 -21.558196645618576 0 0 0 -1 I I #
edge $-1 $263 -21.558196645618576 $267 21.558196645618576 $261 $326 forward 7 unknown #
straight-curve $-1 0 -21.558196645618576 -10.610340809469612 -1 0 0 I I #
vertex $-1 $180 $327 #
straight-curve $-1 0 21.558196645618576 -10.610340809469612 1 0 0 I I #
point $-1 41.630909146397293 21.558196645618576 -10.610340809469612 #
point $-1 41.630909146397293 -21.558196645618576 -10.610340809469612 #
straight-curve $-1 -41.630909146397293 0 10.610340809469612 0 -1 0 I I #
point $-1 -41.630909146397293 21.558196645618576 10.610340809469612 #
point $-1 -41.630909146397293 -21.558196645618576 10.610340809469612 #
straight-curve $-1 41.630909146397293 -21.558196645618576 0 0 0 -1 I I #
straight-curve $-1 41.630909146397293 21.558196645618576 0 0 0 -1 I I #
plane-surface $-1 41.630909146397293 0 0 -1 0 0 0 0 1 forward_v I I I I #
coedge $-1 $201 $200 $211 $288 reversed $70 $-1 #
coedge $-1 $328 $204 $201 $279 forward $198 $-1 #
edge $-1 $280 10.611888155144992 $329 21.558196645618576 $201 $330 forward 7 unknown #
vertex $-1 $279 $331 #
straight-curve $-1 -41.630909146397293 -10.611888155144992 4.470270284916209 0 0 -1 I I #
coedge $-1 $204 $328 $206 $284 forward $198 $-1 #
straight-curve $-1 0 -10.611888155144992 10.610340809469612 -1 0 0 I I #
edge $-1 $291 -21.558196645618576 $207 -10.611888155144992 $206 $332 forward 7 unknown #
point $-1 41.630909146397293 -10.611888155144992 10.610340809469612 #
straight-curve $-1 -41.630909146397293 -8.0425212001908921 7.270740330195224 0 -1 0 I I #
coedge $-1 $211 $210 $328 $333 reversed $120 $-1 #
edge $-1 $329 -10.610340809469612 $212 -7.270740330195224 $277 $334 forward 7 unknown #
point $-1 -41.630909146397293 -21.558196645618576 7.270740330195224 #
point $-1 -41.630909146397293 -10.611888155144992 7.270740330195224 #
vertex $-1 $284 $335 #
straight-curve $-1 41.630909146397293 -21.558196645618576 0 0 0 -1 I I #
plane-surface $-1 -41.630909146397293 0 0 1 0 0 0 0 -1 forward_v I I I I #
coedge $-1 $305 $296 $295 $336 forward $220 $-1 #
coedge $-1 $223 $222 $294 $336 reversed $78 $-1 #
coedge $-1 $294 $337 $224 $297 reversed $220 $-1 #
edge $-1 $298 -41.630909146397293 $301 41.630909146397293 $296 $338 forward 7 unknown #
vertex $-1 $225 $339 #
straight-curve $-1 41.630909146397293 0 10.610340809469612 0 1 0 I I #
coedge $-1 $232 $226 $337 $340 forward $233 $-1 #
vertex $-1 $297 $341 #
straight-curve $-1 -41.630909146397293 0 10.610340809469612 0 -1 0 I I #
point $-1 -41.630909146397293 21.558196645618576 10.610340809469612 #
point $-1 41.630909146397293 21.558196645618576 10.610340809469612 #
coedge $-1 $337 $294 $235 $306 reversed $220 $-1 #
edge $-1 $307 -41.630909146397293 $309 41.630909146397293 $305 $342 forward 7 unknown #
vertex $-1 $306 $343 #
straight-curve $-1 -41.630909146397293 28.33929145903706 4.3170587381160548 0 1 0 I I #
vertex $-1 $237 $344 #
straight-curve $-1 41.630909146397293 28.33929145903706 4.3170587381160548 0 -1 0 I I #
coedge $-1 $312 $242 $318 $345 reversed $153 $-1 #
coedge $-1 $242 $311 $245 $316 reversed $153 $-1 #
edge $-1 $314 -6.7611309372013224 $250 -0.94038349868601667 $249 $346 forward 7 unknown #
vertex $-1 $345 $347 #
straight-curve $-1 -23.075676156518107 -10.611888155144992 52.524475846355372 -0.77714595512881146 0 0.62932039886446345 I I #
edge $-1 $246 28.683968954960136 $320 41.630909146397293 $245 $348 forward 7 unknown #
point $-1 28.683968954960136 -10.611888155144992 10.610340809469612 #
coedge $-1 $249 $248 $311 $345 forward $240 $-1 #
point $-1 41.630909146397293 -4.7911407166296867 0.12611514815340286 #
vertex $-1 $253 $349 #
straight-curve $-1 41.630909146397293 0 10.610340809469612 0 1 0 I I #
vertex $-1 $256 $350 #
point $-1 34.404814227586932 -7.70151443588734 2.8497980346128662 #
straight-curve $-1 -41.630909146397293 21.558196645618576 0 0 0 -1 I I #
point $-1 -41.630909146397293 -21.558196645618576 -10.610340809469612 #
straight-curve $-1 -41.630909146397293 0 -10.610340809469612 0 1 0 I I #
point $-1 -41.630909146397293 21.558196645618576 -10.610340809469612 #
coedge $-1 $282 $278 $287 $333 forward $198 $-1 #
vertex $-1 $279 $351 #
straight-curve $-1 -41.630909146397293 0 10.610340809469612 0 -1 0 I I #
point $-1 -41.630909146397293 -10.611888155144992 10.610340809469612 #
straight-curve $-1 41.630909146397293 0 10.610340809469612 0 1 0 I I #
edge $-1 $329 -41.630909146397293 $291 41.630909146397293 $287 $352 forward 7 unknown #
straight-curve $-1 -41.630909146397293 -21.558196645618576 0 0 0 -1 I I #
point $-1 41.630909146397293 -21.558196645618576 10.610340809469612 #
edge $-1 $298 -3.1466410356767778 $309 3.1466410356767778 $295 $353 forward 7 unknown #
coedge $-1 $296 $305 $300 $340 reversed $220 $-1 #
straight-curve $-1 0 35.120386272455548 10.61034080946961 -1 0 0 I I #
point $-1 41.630909146397293 35.120386272455548 10.61034080946961 #
edge $-1 $301 -3.1466410356767778 $307 3.1466410356767778 $337 $354 forward 7 unknown #
point $-1 -41.630909146397293 35.120386272455548 10.61034080946961 #
straight-curve $-1 0 35.120386272455548 4.3170587381160548 1 0 0 I I #
point $-1 -41.630909146397293 35.120386272455548 4.3170587381160548 #
point $-1 41.630909146397293 35.120386272455548 4.3170587381160548 #
edge $-1 $320 48.005189765165774 $314 58.489415426481983 $318 $355 forward 7 unknown #
straight-curve $-1 41.630909146397293 -3.85075721794367 0.12611514815340286 0 1 0 I I #
point $-1 41.630909146397293 -10.611888155144992 0.12611514815340286 #
straight-curve $-1 0 -10.611888155144992 10.610340809469612 1 0 0 I I #
point $-1 41.630909146397293 -10.611888155144992 10.610340809469612 #
point $-1 32.998347873593659 -7.70151443588734 2.7019724783485182 #
point $-1 -41.630909146397293 -21.558196645618576 10.610340809469612 #
straight-curve $-1 0 -21.558196645618576 10.610340809469612 1 0 0 I I #
straight-curve $-1 41.630909146397293 35.120386272455548 7.4636997737928326 0 0 -1 I I #
straight-curve $-1 -41.630909146397293 35.120386272455548 7.4636997737928326 0 0 -1 I I #
straight-curve $-1 41.630909146397293 -10.611888155144992 58.615530574635386 0 0 -1 I I #
End-of-ACIS-data 