500 0 9 0           
7 Unknown 11 ACIS 5.0 NT 24 Thu Mar 25 20:56:16 1999 
-1 9.9999999999999995e-007 1e-010 
body $-1 $9 $-1 $10 #
body $-1 $11 $-1 $12 #
body $-1 $13 $-1 $14 #
body $-1 $15 $-1 $16 #
body $-1 $17 $-1 $18 #
body $-1 $19 $-1 $20 #
body $-1 $21 $-1 $22 #
body $-1 $23 $-1 $24 #
body $-1 $25 $-1 $26 #
lump $-1 $-1 $27 $0 #
transform $-1 1 0 0 0 1 0 0 0 1 51.750846888637959 29.254461406849597 14.059408276752952 1 rotate no_reflect no_shear #
lump $-1 $-1 $28 $1 #
transform $-1 1 0 0 0 1 0 0 0 1 51.750846888637959 29.254461406849597 14.059408276752952 1 rotate no_reflect no_shear #
lump $-1 $-1 $29 $2 #
transform $-1 1 0 0 0 1 0 0 0 1 51.750846888637959 29.254461406849597 14.059408276752952 1 rotate no_reflect no_shear #
lump $-1 $-1 $30 $3 #
transform $-1 1 0 0 0 1 0 0 0 1 51.750846888637959 29.254461406849597 14.059408276752952 1 rotate no_reflect no_shear #
lump $-1 $-1 $31 $4 #
transform $-1 1 0 0 0 1 0 0 0 1 51.750846888637959 29.254461406849597 14.059408276752952 1 rotate no_reflect no_shear #
lump $-1 $-1 $32 $5 #
transform $-1 1 0 0 0 1 0 0 0 1 51.750846888637959 29.254461406849597 14.059408276752952 1 rotate no_reflect no_shear #
lump $-1 $-1 $33 $6 #
transform $-1 1 0 0 0 1 0 0 0 1 51.750846888637959 29.254461406849597 14.059408276752952 1 rotate no_reflect no_shear #
lump $-1 $-1 $34 $7 #
transform $-1 1 0 0 0 1 0 0 0 1 51.750846888637959 29.254461406849597 14.059408276752952 1 rotate no_reflect no_shear #
lump $-1 $-1 $35 $8 #
transform $-1 1 0 0 0 1 0 0 0 1 51.750846888637959 29.254461406849597 14.059408276752952 1 rotate no_reflect no_shear #
shell $-1 $-1 $-1 $36 $-1 $9 #
shell $-1 $-1 $-1 $37 $-1 $11 #
shell $-1 $-1 $-1 $38 $-1 $13 #
shell $-1 $-1 $-1 $39 $-1 $15 #
shell $-1 $-1 $-1 $40 $-1 $17 #
shell $-1 $-1 $-1 $41 $-1 $19 #
shell $-1 $-1 $-1 $42 $-1 $21 #
shell $-1 $-1 $-1 $43 $-1 $23 #
shell $-1 $-1 $-1 $44 $-1 $25 #
face $-1 $45 $46 $27 $-1 $47 forward single #
face $-1 $48 $49 $28 $-1 $50 forward single #
face $-1 $51 $52 $29 $-1 $53 reversed single #
face $-1 $54 $55 $30 $-1 $56 forward single #
face $-1 $57 $58 $31 $-1 $59 forward single #
face $-1 $60 $61 $32 $-1 $62 reversed single #
face $-1 $63 $64 $33 $-1 $65 forward single #
face $-1 $66 $67 $34 $-1 $68 forward single #
face $-1 $69 $70 $35 $-1 $71 forward single #
face $-1 $72 $73 $27 $-1 $74 reversed single #
loop $-1 $-1 $75 $36 #
plane-surface $-1 0 0 14.059408276752952 0 0 1 1 0 0 forward_v I I I I #
face $-1 $76 $77 $28 $-1 $78 reversed single #
loop $-1 $-1 $79 $37 #
plane-surface $-1 0 -20.918408385593416 12.096770755434145 0 0 1 1 0 0 forward_v I I I I #
face $-1 $80 $81 $29 $-1 $82 reversed single #
loop $-1 $-1 $83 $38 #
plane-surface $-1 -128.6675959044843 -2.681757550629646 78.390700950345519 0 -1 0 0.74314483375859142 0 -0.66913059716165679 forward_v I I I I #
face $-1 $84 $85 $30 $-1 $86 forward single #
loop $-1 $87 $88 $39 #
cone-surface $-1 -48.339808174295271 -9.7536131318493524 10.522025015064346 0.74314483375859142 0 -0.66913059716165679 0.66913059716165679 0 0.74314483375859142 1 I I 0 1 1 forward I I I I #
face $-1 $89 $90 $31 $-1 $91 forward single #
loop $-1 $92 $93 $40 #
cone-surface $-1 -48.339808174295271 -5.5104997831175275 10.522025015064346 0.74314483375859142 0 -0.66913059716165679 0.66913059716165679 0 0.74314483375859142 1 I I 0 1 1 forward I I I I #
face $-1 $94 $95 $32 $-1 $96 reversed single #
loop $-1 $-1 $97 $41 #
plane-surface $-1 36.450651431709936 1.9365808606355586 148.63731366816307 0 1 0 0.62932039886446345 0 0.77714595512881146 forward_v I I I I #
face $-1 $98 $99 $33 $-1 $100 forward single #
loop $-1 $101 $102 $42 #
cone-surface $-1 44.504781139928319 3.8302515000225306 7.9969605753372637 -0.62932039886446345 0 -0.77714595512881146 0.38857297756440573 0 -0.31466019943223172 1 I I 0 1 0.5 forward I I I I #
face $-1 $103 $104 $34 $-1 $105 forward single #
loop $-1 $106 $107 $43 #
cone-surface $-1 44.504781139928319 6.6707574591029903 7.9969605753372637 -0.62932039886446345 0 -0.77714595512881146 0.38857297756440573 0 -0.31466019943223172 1 I I 0 1 0.5 forward I I I I #
face $-1 $108 $109 $35 $-1 $110 forward single #
loop $-1 $111 $112 $44 #
cone-surface $-1 44.504781139928319 9.5112634181834501 7.9969605753372637 -0.62932039886446345 0 -0.77714595512881146 0.38857297756440573 0 -0.31466019943223172 1 I I 0 1 0.5 forward I I I I #
face $-1 $113 $114 $27 $-1 $115 reversed single #
loop $-1 $-1 $116 $45 #
plane-surface $-1 0 0 -14.059408276752952 0 0 1 1 0 0 forward_v I I I I #
coedge $-1 $117 $118 $119 $120 forward $46 $-1 #
face $-1 $121 $122 $28 $-1 $123 reversed single #
loop $-1 $-1 $124 $48 #
plane-surface $-1 0 -20.918408385593416 6.2690265281165996 0 0 1 1 0 0 forward_v I I I I #
coedge $-1 $125 $126 $127 $128 reversed $49 $-1 #
face $-1 $129 $130 $29 $-1 $131 forward single #
loop $-1 $-1 $132 $51 #
plane-surface $-1 -51.750846888637952 -7.63205645748344 9.1345507859139445 -0.74314483375859142 0 0.66913059716165679 0.66913059716165679 0 0.74314483375859142 forward_v I I I I #
coedge $-1 $133 $134 $135 $136 reversed $52 $-1 #
face $-1 $-1 $137 $30 $-1 $138 forward single #
loop $-1 $139 $140 $54 #
cone-surface $-1 -46.774377789062072 -9.7536131318493524 9.1125052002144162 0.74314483375859142 0 -0.66913059716165679 0.3345652985808284 0 0.37157241687929571 1 I I -0.70710678118654746 0.70710678118654746 0.5 forward I I I I #
loop $-1 $-1 $141 $39 #
coedge $-1 $88 $88 $142 $143 reversed $55 $-1 #
face $-1 $-1 $144 $31 $-1 $145 forward single #
loop $-1 $146 $147 $57 #
cone-surface $-1 -46.774377789062072 -5.5104997831175275 9.1125052002144162 0.74314483375859142 0 -0.66913059716165679 0.3345652985808284 0 0.37157241687929571 1 I I -0.70710678118654746 0.70710678118654746 0.5 forward I I I I #
loop $-1 $-1 $148 $40 #
coedge $-1 $93 $93 $149 $150 reversed $58 $-1 #
face $-1 $151 $152 $32 $-1 $153 reversed single #
loop $-1 $-1 $154 $60 #
plane-surface $-1 -28.685075779352893 6.6707574591029903 68.201391000172222 0.62932039886446345 0 0.77714595512881146 0.77714595512881146 0 -0.62932039886446345 forward_v I I I I #
coedge $-1 $155 $156 $157 $158 reversed $61 $-1 #
face $-1 $-1 $159 $33 $-1 $160 forward single #
loop $-1 $161 $162 $63 #
cone-surface $-1 43.889457055669176 3.8302515000225306 7.2370986289611654 -0.62932039886446345 0 -0.77714595512881146 0.19428648878220287 0 -0.15733009971611586 1 I I -0.70710678118654746 0.70710678118654746 0.25 forward I I I I #
loop $-1 $-1 $163 $42 #
coedge $-1 $102 $102 $164 $165 reversed $64 $-1 #
face $-1 $-1 $166 $34 $-1 $167 forward single #
loop $-1 $168 $169 $66 #
cone-surface $-1 43.889457055669176 6.6707574591029903 7.2370986289611654 -0.62932039886446345 0 -0.77714595512881146 0.19428648878220287 0 -0.15733009971611586 1 I I -0.70710678118654746 0.70710678118654746 0.25 forward I I I I #
loop $-1 $-1 $170 $43 #
coedge $-1 $107 $107 $171 $172 reversed $67 $-1 #
face $-1 $-1 $173 $35 $-1 $174 forward single #
loop $-1 $175 $176 $69 #
cone-surface $-1 43.889457055669176 9.5112634181834501 7.2370986289611654 -0.62932039886446345 0 -0.77714595512881146 0.19428648878220287 0 -0.15733009971611586 1 I I -0.70710678118654746 0.70710678118654746 0.25 forward I I I I #
loop $-1 $-1 $177 $44 #
coedge $-1 $112 $112 $178 $179 reversed $70 $-1 #
face $-1 $180 $181 $27 $-1 $182 reversed single #
loop $-1 $-1 $183 $72 #
plane-surface $-1 0 -29.254461406849597 0 0 1 0 0 0 1 forward_v I I I I #
coedge $-1 $184 $185 $186 $187 forward $73 $-1 #
coedge $-1 $188 $75 $189 $190 forward $46 $-1 #
coedge $-1 $75 $188 $191 $192 forward $46 $-1 #
coedge $-1 $193 $194 $75 $120 reversed $195 $-1 #
edge $-1 $196 -29.254461406849597 $197 29.254461406849597 $119 $198 forward 7 unknown #
face $-1 $199 $200 $28 $-1 $201 reversed single #
loop $-1 $-1 $202 $76 #
plane-surface $-1 0 -12.582355364337236 9.1828986417753722 0 -1 0 0 0 -1 forward_v I I I I #
coedge $-1 $203 $204 $205 $206 reversed $77 $-1 #
coedge $-1 $207 $79 $202 $208 forward $49 $-1 #
coedge $-1 $79 $207 $209 $210 reversed $49 $-1 #
coedge $-1 $211 $212 $79 $128 forward $213 $-1 #
edge $-1 $214 2.1231511715405276 $215 18.795257214052889 $127 $216 forward 7 unknown #
face $-1 $217 $218 $29 $-1 $219 forward single #
loop $-1 $-1 $220 $80 #
plane-surface $-1 0 -12.582355364337236 9.1828986417753722 0 -1 0 0 0 -1 forward_v I I I I #
coedge $-1 $221 $222 $223 $224 reversed $81 $-1 #
coedge $-1 $134 $83 $225 $226 reversed $52 $-1 #
coedge $-1 $83 $133 $221 $227 reversed $52 $-1 #
coedge $-1 $223 $228 $83 $136 forward $229 $-1 #
edge $-1 $230 25.135942198419805 $231 30.060799689258822 $135 $232 forward 7 unknown #
loop $-1 $-1 $142 $84 #
plane-surface $-1 -51.750846888637952 -7.63205645748344 9.1345507859139445 -0.74314483375859142 0 0.66913059716165679 0.66913059716165679 0 0.74314483375859142 forward_v I I I I #
loop $-1 $-1 $233 $54 #
coedge $-1 $140 $140 $141 $234 reversed $85 $-1 #
coedge $-1 $141 $141 $140 $234 forward $87 $-1 #
coedge $-1 $142 $142 $88 $143 forward $137 $-1 #
edge $-1 $235 0 $235 6.2831853071796004 $142 $236 forward 7 unknown #
loop $-1 $-1 $149 $89 #
plane-surface $-1 -51.750846888637952 -7.63205645748344 9.1345507859139445 -0.74314483375859142 0 0.66913059716165679 0.66913059716165679 0 0.74314483375859142 forward_v I I I I #
loop $-1 $-1 $237 $57 #
coedge $-1 $147 $147 $148 $238 reversed $90 $-1 #
coedge $-1 $148 $148 $147 $238 forward $92 $-1 #
coedge $-1 $149 $149 $93 $150 forward $144 $-1 #
edge $-1 $239 0 $239 6.2831853071796004 $149 $240 forward 7 unknown #
face $-1 $241 $242 $32 $-1 $243 forward single #
loop $-1 $-1 $244 $94 #
plane-surface $-1 36.450651431709936 11.404934057570422 148.63731366816307 0 -1 0 -0.62932039886446345 0 -0.77714595512881146 forward_v I I I I #
coedge $-1 $245 $246 $247 $248 reversed $95 $-1 #
coedge $-1 $156 $97 $249 $250 reversed $61 $-1 #
coedge $-1 $97 $155 $245 $251 reversed $61 $-1 #
coedge $-1 $247 $252 $97 $158 forward $253 $-1 #
edge $-1 $254 60.259248557328583 $255 71.252993044972143 $157 $256 forward 7 unknown #
loop $-1 $-1 $164 $98 #
plane-surface $-1 -28.685075779352893 6.6707574591029903 68.201391000172222 0.62932039886446345 0 0.77714595512881146 0.77714595512881146 0 -0.62932039886446345 forward_v I I I I #
loop $-1 $-1 $257 $63 #
coedge $-1 $162 $162 $163 $258 reversed $99 $-1 #
coedge $-1 $163 $163 $162 $258 forward $101 $-1 #
coedge $-1 $164 $164 $102 $165 forward $159 $-1 #
edge $-1 $259 0 $259 6.2831853071796004 $164 $260 forward 7 unknown #
loop $-1 $-1 $171 $103 #
plane-surface $-1 -28.685075779352893 6.6707574591029903 68.201391000172222 0.62932039886446345 0 0.77714595512881146 0.77714595512881146 0 -0.62932039886446345 forward_v I I I I #
loop $-1 $-1 $261 $66 #
coedge $-1 $169 $169 $170 $262 reversed $104 $-1 #
coedge $-1 $170 $170 $169 $262 forward $106 $-1 #
coedge $-1 $171 $171 $107 $172 forward $166 $-1 #
edge $-1 $263 0 $263 6.2831853071796004 $171 $264 forward 7 unknown #
loop $-1 $-1 $178 $108 #
plane-surface $-1 -28.685075779352893 6.6707574591029903 68.201391000172222 0.62932039886446345 0 0.77714595512881146 0.77714595512881146 0 -0.62932039886446345 forward_v I I I I #
loop $-1 $-1 $265 $69 #
coedge $-1 $176 $176 $177 $266 reversed $109 $-1 #
coedge $-1 $177 $177 $176 $266 forward $111 $-1 #
coedge $-1 $178 $178 $112 $179 forward $173 $-1 #
edge $-1 $267 0 $267 6.2831853071796004 $178 $268 forward 7 unknown #
face $-1 $269 $270 $27 $-1 $271 reversed single #
loop $-1 $-1 $272 $113 #
plane-surface $-1 -51.750846888637959 0 0 1 0 0 0 0 -1 forward_v I I I I #
coedge $-1 $273 $191 $274 $275 forward $114 $-1 #
coedge $-1 $276 $116 $273 $277 forward $73 $-1 #
coedge $-1 $116 $276 $278 $279 forward $73 $-1 #
coedge $-1 $194 $193 $116 $187 reversed $195 $-1 #
edge $-1 $280 -29.254461406849597 $281 29.254461406849597 $186 $282 forward 7 unknown #
coedge $-1 $118 $117 $283 $284 forward $46 $-1 #
coedge $-1 $285 $286 $117 $190 reversed $270 $-1 #
edge $-1 $197 -51.750846888637959 $287 51.750846888637959 $189 $288 forward 7 unknown #
coedge $-1 $183 $289 $118 $192 reversed $114 $-1 #
edge $-1 $290 -51.750846888637959 $196 51.750846888637959 $191 $291 forward 7 unknown #
coedge $-1 $186 $119 $289 $292 forward $195 $-1 #
coedge $-1 $119 $186 $285 $293 reversed $195 $-1 #
loop $-1 $-1 $193 $269 #
vertex $-1 $120 $294 #
vertex $-1 $120 $295 #
straight-curve $-1 51.750846888637959 0 14.059408276752952 0 1 0 I I #
face $-1 $296 $297 $28 $-1 $298 reversed single #
loop $-1 $-1 $299 $121 #
plane-surface $-1 -51.750846888637959 0 0 1 0 0 0 0 -1 forward_v I I I I #
coedge $-1 $300 $301 $125 $208 reversed $122 $-1 #
coedge $-1 $302 $124 $303 $304 reversed $77 $-1 #
coedge $-1 $124 $302 $305 $306 forward $77 $-1 #
coedge $-1 $212 $211 $124 $206 forward $213 $-1 #
edge $-1 $307 -18.795257214052889 $308 -2.1231511715405276 $205 $309 forward 7 unknown #
coedge $-1 $126 $125 $299 $310 reversed $49 $-1 #
edge $-1 $214 -51.750846888637959 $311 51.750846888637959 $202 $312 forward 7 unknown #
coedge $-1 $313 $314 $126 $210 forward $297 $-1 #
edge $-1 $215 -51.750846888637959 $315 51.750846888637959 $209 $316 forward 7 unknown #
coedge $-1 $205 $127 $314 $317 forward $213 $-1 #
coedge $-1 $127 $205 $300 $318 forward $213 $-1 #
loop $-1 $-1 $127 $296 #
vertex $-1 $128 $319 #
vertex $-1 $317 $320 #
straight-curve $-1 51.750846888637959 -10.459204192796708 12.096770755434145 0 -1 0 I I #
face $-1 $-1 $229 $29 $-1 $321 reversed single #
loop $-1 $-1 $225 $129 #
plane-surface $-1 0 0 14.059408276752952 0 0 1 1 0 0 forward_v I I I I #
coedge $-1 $322 $323 $222 $324 reversed $130 $-1 #
coedge $-1 $325 $132 $134 $227 forward $81 $-1 #
coedge $-1 $132 $325 $220 $324 forward $81 $-1 #
coedge $-1 $326 $135 $132 $224 forward $229 $-1 #
edge $-1 $231 -1.1342706781120739 $327 8.7663271355955157 $223 $328 forward 7 unknown #
coedge $-1 $329 $330 $133 $226 forward $218 $-1 #
edge $-1 $331 -17.017312555581761 $230 -12.582951063604192 $225 $332 forward 7 unknown #
edge $-1 $231 -1.0034820483328475e-014 $331 6.6270493544719091 $134 $333 forward 7 unknown #
coedge $-1 $135 $326 $329 $334 reversed $229 $-1 #
loop $-1 $-1 $223 $217 #
vertex $-1 $334 $335 #
vertex $-1 $136 $336 #
straight-curve $-1 -51.750846888637959 -2.681757550629646 39.195350475172759 0 0 -1 I I #
coedge $-1 $233 $233 $-1 $337 reversed $139 $-1 #
edge $-1 $338 0 $338 6.2831853071796004 $140 $339 forward 7 unknown #
vertex $-1 $143 $340 #
ellipse-curve $-1 -49.533666142649174 -9.7536131318493524 11.596979531333448 -0.74314483375859142 0 0.66913059716165679 0.66913059716165679 0 0.74314483375859142 1 I I #
coedge $-1 $237 $237 $-1 $341 reversed $146 $-1 #
edge $-1 $342 0 $342 6.2831853071796004 $147 $343 forward 7 unknown #
vertex $-1 $150 $344 #
ellipse-curve $-1 -49.533666142649174 -5.5104997831175275 11.596979531333448 -0.74314483375859142 0 0.66913059716165679 0.66913059716165679 0 0.74314483375859142 1 I I #
face $-1 $-1 $253 $32 $-1 $345 reversed single #
loop $-1 $-1 $346 $151 #
plane-surface $-1 0 0 14.059408276752952 0 0 1 1 0 0 forward_v I I I I #
coedge $-1 $347 $348 $349 $350 reversed $152 $-1 #
coedge $-1 $351 $154 $156 $251 forward $95 $-1 #
coedge $-1 $154 $351 $347 $352 forward $95 $-1 #
coedge $-1 $349 $157 $154 $248 forward $253 $-1 #
edge $-1 $255 -1.3987978689159366 $353 8.0695553280189269 $247 $354 forward 7 unknown #
coedge $-1 $355 $356 $155 $250 forward $242 $-1 #
edge $-1 $357 19.949377644449772 $254 33.525521172782987 $249 $358 forward 7 unknown #
edge $-1 $255 -103.5016937772759 $357 -86.03246108200571 $156 $359 forward 7 unknown #
coedge $-1 $157 $349 $355 $360 reversed $253 $-1 #
loop $-1 $-1 $349 $241 #
vertex $-1 $360 $361 #
vertex $-1 $158 $362 #
straight-curve $-1 51.750846888637959 1.9365808606355586 74.318656834081537 0 0 -1 I I #
coedge $-1 $257 $257 $-1 $363 reversed $161 $-1 #
edge $-1 $364 0 $364 6.2831853071796004 $162 $365 forward 7 unknown #
vertex $-1 $165 $366 #
ellipse-curve $-1 44.962775124471356 3.8302515000225306 8.5625360329311722 0.62932039886446345 0 0.77714595512881146 0.38857297756440573 0 -0.31466019943223172 1 I I #
coedge $-1 $261 $261 $-1 $367 reversed $168 $-1 #
edge $-1 $368 0 $368 6.2831853071796004 $169 $369 forward 7 unknown #
vertex $-1 $172 $370 #
ellipse-curve $-1 44.962775124471356 6.6707574591029903 8.5625360329311722 0.62932039886446345 0 0.77714595512881146 0.38857297756440573 0 -0.31466019943223172 1 I I #
coedge $-1 $265 $265 $-1 $371 reversed $175 $-1 #
edge $-1 $372 0 $372 6.2831853071796004 $176 $373 forward 7 unknown #
vertex $-1 $179 $374 #
ellipse-curve $-1 44.962775124471356 9.5112634181834501 8.5625360329311722 0.62932039886446345 0 0.77714595512881146 0.38857297756440573 0 -0.31466019943223172 1 I I #
face $-1 $-1 $195 $27 $-1 $375 reversed single #
loop $-1 $-1 $285 $180 #
plane-surface $-1 0 29.254461406849597 0 0 -1 0 0 0 -1 forward_v I I I I #
coedge $-1 $376 $283 $286 $377 forward $181 $-1 #
coedge $-1 $289 $183 $184 $277 reversed $114 $-1 #
coedge $-1 $283 $376 $183 $275 reversed $181 $-1 #
edge $-1 $290 -14.059408276752952 $378 14.059408276752952 $274 $379 forward 7 unknown #
coedge $-1 $185 $184 $376 $380 forward $73 $-1 #
edge $-1 $281 -51.750846888637959 $378 51.750846888637959 $273 $381 forward 7 unknown #
coedge $-1 $286 $285 $185 $279 reversed $270 $-1 #
edge $-1 $382 -51.750846888637959 $280 51.750846888637959 $278 $383 forward 7 unknown #
vertex $-1 $187 $384 #
vertex $-1 $292 $385 #
straight-curve $-1 51.750846888637959 0 -14.059408276752952 0 -1 0 I I #
coedge $-1 $272 $274 $188 $284 reversed $181 $-1 #
edge $-1 $287 -29.254461406849597 $290 29.254461406849597 $283 $386 forward 7 unknown #
coedge $-1 $278 $189 $194 $293 forward $270 $-1 #
coedge $-1 $189 $278 $272 $377 reversed $270 $-1 #
vertex $-1 $190 $387 #
straight-curve $-1 0 29.254461406849597 14.059408276752952 -1 0 0 I I #
coedge $-1 $191 $273 $193 $292 reversed $114 $-1 #
vertex $-1 $284 $388 #
straight-curve $-1 0 -29.254461406849597 14.059408276752952 1 0 0 I I #
edge $-1 $196 -14.059408276752952 $281 14.059408276752952 $193 $389 forward 7 unknown #
edge $-1 $197 -14.059408276752952 $280 14.059408276752952 $194 $390 forward 7 unknown #
point $-1 51.750846888637959 -29.254461406849597 14.059408276752952 #
point $-1 51.750846888637959 29.254461406849597 14.059408276752952 #
face $-1 $-1 $213 $28 $-1 $391 reversed single #
loop $-1 $-1 $209 $199 #
plane-surface $-1 0 -29.254461406849597 0 0 1 0 0 0 1 forward_v I I I I #
coedge $-1 $392 $393 $207 $310 forward $200 $-1 #
coedge $-1 $305 $202 $212 $318 reversed $122 $-1 #
coedge $-1 $202 $305 $392 $394 reversed $122 $-1 #
coedge $-1 $204 $203 $395 $396 reversed $77 $-1 #
coedge $-1 $314 $313 $203 $304 forward $297 $-1 #
edge $-1 $397 -51.750846888637959 $307 51.750846888637959 $303 $398 forward 7 unknown #
coedge $-1 $301 $300 $204 $306 reversed $122 $-1 #
edge $-1 $399 -51.750846888637959 $308 51.750846888637959 $305 $400 forward 7 unknown #
vertex $-1 $304 $401 #
vertex $-1 $206 $402 #
straight-curve $-1 51.750846888637959 -10.459204192796708 6.2690265281165996 0 1 0 I I #
edge $-1 $315 -18.795257214052889 $311 -2.1231511715405276 $299 $403 forward 7 unknown #
vertex $-1 $310 $404 #
straight-curve $-1 0 -12.582355364337236 12.096770755434145 -1 0 0 I I #
coedge $-1 $303 $209 $393 $405 forward $297 $-1 #
coedge $-1 $209 $303 $211 $317 reversed $297 $-1 #
vertex $-1 $405 $406 #
straight-curve $-1 0 -29.254461406849597 12.096770755434145 -1 0 0 I I #
edge $-1 $215 -12.096770755434145 $307 -6.2690265281165996 $211 $407 forward 7 unknown #
edge $-1 $308 1.6775772072289135 $214 7.5053214345464587 $212 $408 forward 7 unknown #
point $-1 51.750846888637959 -12.582355364337236 12.096770755434145 #
point $-1 51.750846888637959 -29.254461406849597 12.096770755434145 #
plane-surface $-1 -51.750846888637959 0 0 1 0 0 0 0 -1 forward_v I I I I #
coedge $-1 $323 $220 $409 $410 reversed $130 $-1 #
coedge $-1 $220 $322 $326 $411 reversed $130 $-1 #
edge $-1 $412 -6.6270493544719091 $327 1.0034820483328475e-014 $220 $413 forward 7 unknown #
coedge $-1 $222 $221 $330 $414 reversed $81 $-1 #
coedge $-1 $228 $223 $323 $411 forward $229 $-1 #
vertex $-1 $411 $415 #
straight-curve $-1 -51.750846888637959 -3.81602822874172 9.1345507859139357 0 -1 0 I I #
coedge $-1 $409 $225 $228 $334 forward $218 $-1 #
coedge $-1 $225 $409 $325 $414 forward $218 $-1 #
vertex $-1 $226 $416 #
straight-curve $-1 -64.333797952242151 -2.681757550629646 14.059408276752954 -1 0 0 I I #
straight-curve $-1 -51.750846888637952 -2.681757550629646 9.1345507859139445 0.66913059716165679 0 0.74314483375859142 I I #
edge $-1 $230 2.681757550629646 $417 12.582355364337234 $228 $418 forward 7 unknown #
point $-1 -51.750846888637959 -2.681757550629646 14.059408276752952 #
point $-1 -51.750846888637959 -2.681757550629646 9.1345507859139374 #
edge $-1 $419 1 $419 0 $233 $-1 forward 7 unknown #
vertex $-1 $234 $420 #
ellipse-curve $-1 -47.145950205941368 -9.7536131318493524 9.4470704987952452 -0.74314483375859142 0 0.66913059716165679 0.66913059716165679 0 0.74314483375859142 1 I I #
point $-1 -48.864535545487513 -9.7536131318493524 12.340124365092038 #
edge $-1 $421 1 $421 0 $237 $-1 forward 7 unknown #
vertex $-1 $238 $422 #
ellipse-curve $-1 -47.145950205941368 -5.5104997831175275 9.4470704987952452 -0.74314483375859142 0 0.66913059716165679 0.66913059716165679 0 0.74314483375859142 1 I I #
point $-1 -48.864535545487513 -5.5104997831175275 12.340124365092038 #
plane-surface $-1 51.750846888637959 0 0 -1 0 0 0 0 1 forward_v I I I I #
coedge $-1 $356 $355 $348 $423 forward $242 $-1 #
coedge $-1 $348 $244 $246 $352 reversed $152 $-1 #
coedge $-1 $244 $347 $346 $423 reversed $152 $-1 #
coedge $-1 $252 $247 $244 $350 forward $253 $-1 #
edge $-1 $353 -71.252993044972143 $424 -60.259248557328583 $349 $425 forward 7 unknown #
coedge $-1 $246 $245 $356 $426 reversed $95 $-1 #
edge $-1 $427 86.03246108200571 $353 103.5016937772759 $347 $428 forward 7 unknown #
vertex $-1 $248 $429 #
straight-curve $-1 51.750846888637952 3.3353787295514952 3.0656637891093936 0 1 0 I I #
coedge $-1 $346 $249 $252 $360 forward $242 $-1 #
coedge $-1 $249 $346 $351 $426 forward $242 $-1 #
vertex $-1 $250 $430 #
straight-curve $-1 18.225325715854968 1.9365808606355586 14.059408276752947 1 0 0 I I #
straight-curve $-1 -28.685075779352893 1.9365808606355586 68.201391000172222 -0.77714595512881146 0 0.62932039886446345 I I #
edge $-1 $254 1.9365808606355586 $424 11.404934057570422 $252 $431 forward 7 unknown #
point $-1 51.750846888637959 1.9365808606355586 14.059408276752952 #
point $-1 51.750846888637959 1.9365808606355586 3.0656637891093936 #
edge $-1 $432 1 $432 0 $257 $-1 forward 7 unknown #
vertex $-1 $258 $433 #
ellipse-curve $-1 44.046787155385289 3.8302515000225306 7.4313851177433685 0.62932039886446345 0 0.77714595512881146 0.38857297756440573 0 -0.31466019943223172 1 I I #
point $-1 45.351348102035757 3.8302515000225306 8.2478758334989273 #
edge $-1 $434 1 $434 0 $261 $-1 forward 7 unknown #
vertex $-1 $262 $435 #
ellipse-curve $-1 44.046787155385289 6.6707574591029903 7.4313851177433685 0.62932039886446345 0 0.77714595512881146 0.38857297756440573 0 -0.31466019943223172 1 I I #
point $-1 45.351348102035757 6.6707574591029903 8.2478758334989273 #
edge $-1 $436 1 $436 0 $265 $-1 forward 7 unknown #
vertex $-1 $266 $437 #
ellipse-curve $-1 44.046787155385289 9.5112634181834501 7.4313851177433685 0.62932039886446345 0 0.77714595512881146 0.38857297756440573 0 -0.31466019943223172 1 I I #
point $-1 45.351348102035757 9.5112634181834501 8.2478758334989273 #
plane-surface $-1 51.750846888637959 0 0 -1 0 0 0 0 1 forward_v I I I I #
coedge $-1 $274 $272 $276 $380 reversed $181 $-1 #
edge $-1 $287 -14.059408276752952 $382 14.059408276752952 $286 $438 forward 7 unknown #
vertex $-1 $380 $439 #
straight-curve $-1 -51.750846888637959 -29.254461406849597 0 0 0 -1 I I #
edge $-1 $378 -29.254461406849597 $382 29.254461406849597 $376 $440 forward 7 unknown #
straight-curve $-1 0 -29.254461406849597 -14.059408276752952 -1 0 0 I I #
vertex $-1 $279 $441 #
straight-curve $-1 0 29.254461406849597 -14.059408276752952 1 0 0 I I #
point $-1 51.750846888637959 29.254461406849597 -14.059408276752952 #
point $-1 51.750846888637959 -29.254461406849597 -14.059408276752952 #
straight-curve $-1 -51.750846888637959 0 14.059408276752952 0 -1 0 I I #
point $-1 -51.750846888637959 29.254461406849597 14.059408276752952 #
point $-1 -51.750846888637959 -29.254461406849597 14.059408276752952 #
straight-curve $-1 51.750846888637959 -29.254461406849597 0 0 0 -1 I I #
straight-curve $-1 51.750846888637959 29.254461406849597 0 0 0 -1 I I #
plane-surface $-1 51.750846888637959 0 0 -1 0 0 0 0 1 forward_v I I I I #
coedge $-1 $395 $299 $301 $394 forward $200 $-1 #
coedge $-1 $299 $395 $313 $405 reversed $200 $-1 #
edge $-1 $311 -7.5053214345464587 $399 -1.6775772072289135 $392 $442 forward 7 unknown #
coedge $-1 $393 $392 $302 $396 forward $200 $-1 #
edge $-1 $399 2.1231511715405276 $397 18.795257214052889 $395 $443 forward 7 unknown #
vertex $-1 $304 $444 #
straight-curve $-1 0 -29.254461406849597 6.2690265281165996 1 0 0 I I #
vertex $-1 $396 $445 #
straight-curve $-1 0 -12.582355364337236 6.2690265281165996 1 0 0 I I #
point $-1 51.750846888637959 -29.254461406849597 6.2690265281165996 #
point $-1 51.750846888637959 -12.582355364337236 6.2690265281165996 #
straight-curve $-1 -51.750846888637959 -10.459204192796708 12.096770755434145 0 1 0 I I #
point $-1 -51.750846888637959 -12.582355364337236 12.096770755434145 #
edge $-1 $315 -12.096770755434145 $397 -6.2690265281165996 $393 $446 forward 7 unknown #
point $-1 -51.750846888637959 -29.254461406849597 12.096770755434145 #
straight-curve $-1 51.750846888637959 -29.254461406849597 0 0 0 -1 I I #
straight-curve $-1 51.750846888637959 -12.582355364337236 4.5914493208876861 0 0 1 I I #
coedge $-1 $330 $329 $322 $410 forward $218 $-1 #
edge $-1 $417 12.582951063604192 $412 17.017312555581761 $409 $447 forward 7 unknown #
edge $-1 $327 -30.060799689258822 $417 -25.135942198419805 $326 $448 forward 7 unknown #
vertex $-1 $414 $449 #
straight-curve $-1 -51.750846888637952 -12.582355364337234 9.1345507859139445 -0.66913059716165679 0 -0.74314483375859142 I I #
edge $-1 $412 -8.7663271355955139 $331 1.1342706781120739 $330 $450 forward 7 unknown #
point $-1 -51.750846888637959 -12.582355364337236 9.1345507859139374 #
point $-1 -47.31648539666039 -2.681757550629646 14.059408276752952 #
vertex $-1 $411 $451 #
straight-curve $-1 -51.750846888637959 0 14.059408276752952 0 -1 0 I I #
vertex $-1 $337 $452 #
point $-1 -46.476819608779714 -9.7536131318493524 10.190215332553835 #
vertex $-1 $341 $453 #
point $-1 -46.476819608779714 -5.5104997831175275 10.190215332553835 #
edge $-1 $424 -33.525521172782987 $427 -19.949377644449772 $346 $454 forward 7 unknown #
vertex $-1 $350 $455 #
straight-curve $-1 51.750846888637959 11.404934057570422 74.318656834081537 0 0 1 I I #
edge $-1 $427 -8.0695553280189269 $357 1.3987978689159366 $356 $456 forward 7 unknown #
vertex $-1 $426 $457 #
straight-curve $-1 -28.685075779352893 11.404934057570422 68.201391000172222 0.77714595512881146 0 -0.62932039886446345 I I #
point $-1 51.750846888637959 11.404934057570422 3.0656637891093936 #
point $-1 38.17470336030474 1.9365808606355586 14.059408276752954 #
straight-curve $-1 51.750846888637959 0 14.059408276752952 0 1 0 I I #
vertex $-1 $363 $458 #
point $-1 44.435360132949697 3.8302515000225306 7.116724918311137 #
vertex $-1 $367 $459 #
point $-1 44.435360132949697 6.6707574591029903 7.116724918311137 #
vertex $-1 $371 $460 #
point $-1 44.435360132949697 9.5112634181834501 7.116724918311137 #
straight-curve $-1 -51.750846888637959 29.254461406849597 0 0 0 -1 I I #
point $-1 -51.750846888637959 -29.254461406849597 -14.059408276752952 #
straight-curve $-1 -51.750846888637959 0 -14.059408276752952 0 1 0 I I #
point $-1 -51.750846888637959 29.254461406849597 -14.059408276752952 #
straight-curve $-1 -51.750846888637959 -12.582355364337236 4.5914493208876861 0 0 -1 I I #
straight-curve $-1 -51.750846888637959 -10.459204192796708 6.2690265281165996 0 -1 0 I I #
point $-1 -51.750846888637959 -29.254461406849597 6.2690265281165996 #
point $-1 -51.750846888637959 -12.582355364337236 6.2690265281165996 #
straight-curve $-1 -51.750846888637959 -29.254461406849597 0 0 0 -1 I I #
straight-curve $-1 -64.333797952242151 -12.582355364337234 14.059408276752954 1 0 0 I I #
straight-curve $-1 -51.750846888637959 -12.582355364337234 39.195350475172759 0 0 1 I I #
point $-1 -47.31648539666039 -12.582355364337234 14.059408276752952 #
straight-curve $-1 -47.31648539666039 -3.81602822874172 14.059408276752952 0 1 0 I I #
point $-1 -51.750846888637959 -12.582355364337234 14.059408276752952 #
point $-1 -46.402805372182776 -9.7536131318493524 8.7779399016335873 #
point $-1 -46.402805372182776 -5.5104997831175275 8.7779399016335873 #
straight-curve $-1 18.225325715854968 11.404934057570422 14.059408276752947 -1 0 0 I I #
point $-1 51.750846888637959 11.404934057570422 14.059408276752952 #
straight-curve $-1 38.174703360304747 3.3353787295514952 14.059408276752954 0 -1 0 I I #
point $-1 38.17470336030474 11.404934057570422 14.059408276752954 #
point $-1 43.732126955953063 3.8302515000225306 7.0428121401789623 #
point $-1 43.732126955953063 6.6707574591029903 7.0428121401789623 #
point $-1 43.732126955953063 9.5112634181834501 7.0428121401789623 #
End-of-ACIS-data 