500 0 5 0           
7 Unknown 11 ACIS 5.0 NT 24 Thu Mar 25 19:48:38 1999 
-1 9.9999999999999995e-007 1e-010 
body $-1 $5 $-1 $6 #
body $-1 $7 $-1 $8 #
body $-1 $9 $-1 $10 #
body $-1 $11 $-1 $12 #
body $-1 $13 $-1 $14 #
lump $-1 $-1 $15 $0 #
transform $-1 1 0 0 0 1 0 0 0 1 60.541398358104189 40.173459052703357 17.409438882307722 1 rotate no_reflect no_shear #
lump $-1 $-1 $16 $1 #
transform $-1 1 0 0 0 1 0 0 0 1 60.541398358104189 40.173459052703357 17.409438882307722 1 rotate no_reflect no_shear #
lump $-1 $-1 $17 $2 #
transform $-1 1 0 0 0 1 0 0 0 1 60.541398358104189 40.173459052703357 17.409438882307722 1 rotate no_reflect no_shear #
lump $-1 $-1 $18 $3 #
transform $-1 1 0 0 0 1 0 0 0 1 60.541398358104189 40.173459052703357 17.409438882307722 1 rotate no_reflect no_shear #
lump $-1 $-1 $19 $4 #
transform $-1 1 0 0 0 1 0 0 0 1 60.541398358104189 40.173459052703357 17.409438882307722 1 rotate no_reflect no_shear #
shell $-1 $-1 $-1 $20 $-1 $5 #
shell $-1 $-1 $-1 $21 $-1 $7 #
shell $-1 $-1 $-1 $22 $-1 $9 #
shell $-1 $-1 $-1 $23 $-1 $11 #
shell $-1 $-1 $-1 $24 $-1 $13 #
face $-1 $25 $26 $15 $-1 $27 forward single #
face $-1 $28 $29 $16 $-1 $30 forward single #
face $-1 $31 $32 $17 $-1 $33 reversed single #
face $-1 $34 $35 $18 $-1 $36 forward single #
face $-1 $37 $38 $19 $-1 $39 forward single #
face $-1 $40 $41 $15 $-1 $42 reversed single #
loop $-1 $-1 $43 $20 #
plane-surface $-1 0 0 17.409438882307722 0 0 1 1 0 0 forward_v I I I I #
face $-1 $44 $45 $16 $-1 $46 reversed single #
loop $-1 $-1 $47 $21 #
plane-surface $-1 -60.541398358104189 0 0 1 0 0 0 0 -1 forward_v I I I I #
face $-1 $48 $49 $17 $-1 $50 reversed single #
loop $-1 $-1 $51 $22 #
plane-surface $-1 16.222020078096463 12.006995543320432 170.21924847476282 0 -1 0 -0.50000000669873634 0 -0.8660253999169214 forward_v I I I I #
face $-1 $52 $53 $18 $-1 $54 forward single #
loop $-1 $55 $56 $23 #
cone-surface $-1 48.624384952707913 1.040821192170938 9.3609329095369205 -0.50000000669873634 0 -0.8660253999169214 1.7320507998338428 0 -1.0000000133974727 1 I I 0 1 2 forward I I I I #
face $-1 $57 $58 $19 $-1 $59 forward single #
loop $-1 $60 $61 $24 #
cone-surface $-1 48.624384952707913 7.6205258028606409 9.3609329095369205 -0.50000000669873634 0 -0.8660253999169214 1.7320507998338428 0 -1.0000000133974727 1 I I 0 1 2 forward I I I I #
face $-1 $62 $63 $15 $-1 $64 reversed single #
loop $-1 $-1 $65 $25 #
plane-surface $-1 0 0 -17.409438882307722 0 0 1 1 0 0 forward_v I I I I #
coedge $-1 $66 $67 $68 $69 forward $26 $-1 #
face $-1 $70 $71 $16 $-1 $72 reversed single #
loop $-1 $-1 $73 $28 #
plane-surface $-1 0 40.173459052703357 0 0 -1 0 0 0 -1 forward_v I I I I #
coedge $-1 $74 $75 $76 $77 forward $29 $-1 #
face $-1 $78 $79 $17 $-1 $80 reversed single #
loop $-1 $-1 $81 $31 #
plane-surface $-1 -44.319379091109454 4.3306734975157823 65.358471025549164 0.50000000669873634 0 0.8660253999169214 0.8660253999169214 0 -0.50000000669873634 forward_v I I I I #
coedge $-1 $82 $83 $84 $85 reversed $32 $-1 #
face $-1 $-1 $86 $18 $-1 $87 forward single #
loop $-1 $88 $89 $34 #
cone-surface $-1 47.112681084070857 1.040821192170938 6.7425850498314368 -0.50000000669873634 0 -0.8660253999169214 0.8660253999169214 0 -0.50000000669873634 1 I I -0.70710678118654746 0.70710678118654746 1 forward I I I I #
loop $-1 $-1 $90 $23 #
coedge $-1 $56 $56 $91 $92 reversed $35 $-1 #
face $-1 $-1 $93 $19 $-1 $94 forward single #
loop $-1 $95 $96 $37 #
cone-surface $-1 47.112681084070857 7.6205258028606409 6.7425850498314368 -0.50000000669873634 0 -0.8660253999169214 0.8660253999169214 0 -0.50000000669873634 1 I I -0.70710678118654746 0.70710678118654746 1 forward I I I I #
loop $-1 $-1 $97 $24 #
coedge $-1 $61 $61 $98 $99 reversed $38 $-1 #
face $-1 $100 $101 $15 $-1 $102 reversed single #
loop $-1 $-1 $103 $40 #
plane-surface $-1 0 -40.173459052703357 0 0 1 0 0 0 1 forward_v I I I I #
coedge $-1 $104 $105 $106 $107 forward $41 $-1 #
coedge $-1 $108 $43 $109 $110 forward $26 $-1 #
coedge $-1 $43 $108 $111 $112 forward $26 $-1 #
coedge $-1 $113 $114 $43 $69 reversed $115 $-1 #
edge $-1 $116 -40.173459052703357 $117 40.173459052703357 $68 $118 forward 7 unknown #
face $-1 $119 $120 $16 $-1 $121 reversed single #
loop $-1 $-1 $76 $44 #
plane-surface $-1 -67.760532183545806 0 9.4670963402359654 0 0 1 1 0 0 forward_v I I I I #
coedge $-1 $122 $123 $74 $124 forward $45 $-1 #
coedge $-1 $125 $47 $73 $124 reversed $29 $-1 #
coedge $-1 $47 $125 $126 $127 reversed $29 $-1 #
coedge $-1 $128 $129 $47 $77 reversed $71 $-1 #
edge $-1 $130 -40.173459052703357 $131 40.173459052703357 $76 $132 forward 7 unknown #
face $-1 $133 $134 $17 $-1 $135 forward single #
loop $-1 $-1 $136 $48 #
plane-surface $-1 16.222020078096463 -3.3456485482888674 170.21924847476282 0 1 0 0.50000000669873634 0 0.8660253999169214 forward_v I I I I #
coedge $-1 $137 $138 $139 $140 reversed $49 $-1 #
coedge $-1 $83 $51 $141 $142 reversed $32 $-1 #
coedge $-1 $51 $82 $137 $143 reversed $32 $-1 #
coedge $-1 $139 $144 $51 $85 forward $134 $-1 #
edge $-1 $145 -52.430388319055957 $146 -30.619769232140065 $84 $147 forward 7 unknown #
loop $-1 $-1 $91 $52 #
plane-surface $-1 -44.319379091109454 4.3306734975157823 65.358471025549164 0.50000000669873634 0 0.8660253999169214 0.8660253999169214 0 -0.50000000669873634 forward_v I I I I #
loop $-1 $-1 $148 $34 #
coedge $-1 $89 $89 $90 $149 reversed $53 $-1 #
coedge $-1 $90 $90 $89 $149 forward $55 $-1 #
coedge $-1 $91 $91 $56 $92 forward $86 $-1 #
edge $-1 $150 0 $150 6.2831853071796004 $91 $151 forward 7 unknown #
loop $-1 $-1 $98 $57 #
plane-surface $-1 -44.319379091109454 4.3306734975157823 65.358471025549164 0.50000000669873634 0 0.8660253999169214 0.8660253999169214 0 -0.50000000669873634 forward_v I I I I #
loop $-1 $-1 $152 $37 #
coedge $-1 $96 $96 $97 $153 reversed $58 $-1 #
coedge $-1 $97 $97 $96 $153 forward $60 $-1 #
coedge $-1 $98 $98 $61 $99 forward $93 $-1 #
edge $-1 $154 0 $154 6.2831853071796004 $98 $155 forward 7 unknown #
face $-1 $156 $157 $15 $-1 $158 reversed single #
loop $-1 $-1 $159 $62 #
plane-surface $-1 -60.541398358104189 0 0 1 0 0 0 0 -1 forward_v I I I I #
coedge $-1 $160 $111 $161 $162 forward $63 $-1 #
coedge $-1 $163 $65 $160 $164 forward $41 $-1 #
coedge $-1 $65 $163 $165 $166 forward $41 $-1 #
coedge $-1 $114 $113 $65 $107 reversed $115 $-1 #
edge $-1 $167 -40.173459052703357 $168 40.173459052703357 $106 $169 forward 7 unknown #
coedge $-1 $67 $66 $170 $171 forward $26 $-1 #
coedge $-1 $172 $173 $66 $110 reversed $157 $-1 #
edge $-1 $117 -60.541398358104189 $174 60.541398358104189 $109 $175 forward 7 unknown #
coedge $-1 $103 $176 $67 $112 reversed $63 $-1 #
edge $-1 $177 -60.541398358104189 $116 60.541398358104189 $111 $178 forward 7 unknown #
coedge $-1 $106 $68 $176 $179 forward $115 $-1 #
coedge $-1 $68 $106 $172 $180 reversed $115 $-1 #
loop $-1 $-1 $113 $156 #
vertex $-1 $69 $181 #
vertex $-1 $69 $182 #
straight-curve $-1 60.541398358104189 0 17.409438882307722 0 1 0 I I #
face $-1 $183 $184 $16 $-1 $185 forward single #
loop $-1 $-1 $186 $70 #
plane-surface $-1 -74.979666008987422 0 13.438267611271844 1 0 0 0 0 -1 forward_v I I I I #
coedge $-1 $187 $73 $129 $188 reversed $45 $-1 #
coedge $-1 $73 $187 $189 $190 reversed $45 $-1 #
edge $-1 $191 -17.409438882307722 $131 -9.4670963402359654 $73 $192 forward 7 unknown #
coedge $-1 $75 $74 $193 $194 reversed $29 $-1 #
coedge $-1 $195 $196 $75 $127 forward $197 $-1 #
edge $-1 $130 9.4670963402359654 $198 17.409438882307722 $126 $199 forward 7 unknown #
coedge $-1 $200 $76 $196 $201 forward $71 $-1 #
coedge $-1 $76 $200 $122 $188 forward $71 $-1 #
vertex $-1 $127 $202 #
vertex $-1 $124 $203 #
straight-curve $-1 -60.541398358104189 0 9.4670963402359654 0 1 0 I I #
face $-1 $-1 $204 $17 $-1 $205 reversed single #
loop $-1 $-1 $84 $78 #
plane-surface $-1 0 0 17.409438882307722 0 0 1 1 0 0 forward_v I I I I #
coedge $-1 $206 $207 $208 $209 reversed $79 $-1 #
coedge $-1 $210 $81 $83 $143 forward $49 $-1 #
coedge $-1 $81 $210 $206 $211 forward $49 $-1 #
coedge $-1 $208 $84 $81 $140 forward $134 $-1 #
edge $-1 $146 -9.8416587945625409 $212 5.5109852970467585 $139 $213 forward 7 unknown #
coedge $-1 $214 $215 $82 $142 forward $204 $-1 #
edge $-1 $216 -80.292552381038149 $145 -67.700185355073685 $141 $217 forward 7 unknown #
edge $-1 $146 95.898063001691213 $216 121.08279671620836 $83 $218 forward 7 unknown #
coedge $-1 $84 $208 $214 $219 forward $134 $-1 #
vertex $-1 $142 $220 #
vertex $-1 $85 $221 #
straight-curve $-1 8.1110100390482316 12.006995543320432 17.409438882307725 -1 0 0 I I #
coedge $-1 $148 $148 $-1 $222 reversed $88 $-1 #
edge $-1 $223 0 $223 6.2831853071796004 $89 $224 forward 7 unknown #
vertex $-1 $92 $225 #
ellipse-curve $-1 49.636088814646243 1.040821192170938 11.113255369325493 0.50000000669873634 0 0.8660253999169214 1.7320507998338428 0 -1.0000000133974727 1 I I #
coedge $-1 $152 $152 $-1 $226 reversed $95 $-1 #
edge $-1 $227 0 $227 6.2831853071796004 $96 $228 forward 7 unknown #
vertex $-1 $99 $229 #
ellipse-curve $-1 49.636088814646243 7.6205258028606409 11.113255369325493 0.50000000669873634 0 0.8660253999169214 1.7320507998338428 0 -1.0000000133974727 1 I I #
face $-1 $-1 $115 $15 $-1 $230 reversed single #
loop $-1 $-1 $172 $100 #
plane-surface $-1 0 40.173459052703357 0 0 -1 0 0 0 -1 forward_v I I I I #
coedge $-1 $231 $170 $173 $232 forward $101 $-1 #
coedge $-1 $176 $103 $104 $164 reversed $63 $-1 #
coedge $-1 $170 $231 $103 $162 reversed $101 $-1 #
edge $-1 $177 -17.409438882307722 $233 17.409438882307722 $161 $234 forward 7 unknown #
coedge $-1 $105 $104 $231 $235 forward $41 $-1 #
edge $-1 $168 -60.541398358104189 $233 60.541398358104189 $160 $236 forward 7 unknown #
coedge $-1 $173 $172 $105 $166 reversed $157 $-1 #
edge $-1 $237 -60.541398358104189 $167 60.541398358104189 $165 $238 forward 7 unknown #
vertex $-1 $107 $239 #
vertex $-1 $179 $240 #
straight-curve $-1 60.541398358104189 0 -17.409438882307722 0 -1 0 I I #
coedge $-1 $159 $161 $108 $171 reversed $101 $-1 #
edge $-1 $174 -40.173459052703357 $177 40.173459052703357 $170 $241 forward 7 unknown #
coedge $-1 $165 $109 $114 $180 forward $157 $-1 #
coedge $-1 $109 $165 $159 $232 reversed $157 $-1 #
vertex $-1 $110 $242 #
straight-curve $-1 0 40.173459052703357 17.409438882307722 -1 0 0 I I #
coedge $-1 $111 $160 $113 $179 reversed $63 $-1 #
vertex $-1 $171 $243 #
straight-curve $-1 0 -40.173459052703357 17.409438882307722 1 0 0 I I #
edge $-1 $116 -17.409438882307722 $168 17.409438882307722 $113 $244 forward 7 unknown #
edge $-1 $117 -17.409438882307722 $167 17.409438882307722 $114 $245 forward 7 unknown #
point $-1 60.541398358104189 -40.173459052703357 17.409438882307722 #
point $-1 60.541398358104189 40.173459052703357 17.409438882307722 #
face $-1 $-1 $197 $16 $-1 $246 reversed single #
loop $-1 $-1 $193 $119 #
plane-surface $-1 0 0 17.409438882307722 0 0 1 1 0 0 forward_v I I I I #
coedge $-1 $247 $248 $187 $249 forward $120 $-1 #
coedge $-1 $123 $122 $186 $249 reversed $45 $-1 #
edge $-1 $250 -7.2191338254416166 $131 7.2191338254416237 $122 $251 forward 7 unknown #
coedge $-1 $252 $193 $123 $190 forward $184 $-1 #
edge $-1 $191 60.541398358104189 $253 74.979666008987422 $123 $254 forward 7 unknown #
vertex $-1 $190 $255 #
straight-curve $-1 -60.541398358104189 40.173459052703357 0 0 0 -1 I I #
coedge $-1 $189 $256 $125 $194 forward $184 $-1 #
edge $-1 $198 -40.173459052703357 $191 40.173459052703357 $193 $257 forward 7 unknown #
coedge $-1 $258 $126 $256 $259 reversed $197 $-1 #
coedge $-1 $126 $258 $128 $201 reversed $197 $-1 #
loop $-1 $-1 $126 $183 #
vertex $-1 $127 $260 #
straight-curve $-1 -60.541398358104189 -40.173459052703357 0 0 0 1 I I #
coedge $-1 $129 $128 $247 $261 forward $71 $-1 #
edge $-1 $130 -7.2191338254416237 $262 7.2191338254416166 $196 $263 forward 7 unknown #
point $-1 -60.541398358104182 -40.173459052703357 9.4670963402359654 #
point $-1 -60.541398358104182 40.173459052703357 9.4670963402359654 #
loop $-1 $-1 $141 $133 #
plane-surface $-1 60.541398358104189 0 0 -1 0 0 0 0 1 forward_v I I I I #
coedge $-1 $207 $136 $138 $211 reversed $79 $-1 #
coedge $-1 $136 $206 $264 $265 reversed $79 $-1 #
coedge $-1 $144 $139 $136 $209 forward $134 $-1 #
edge $-1 $212 30.619769232140065 $266 52.430388319055957 $208 $267 forward 7 unknown #
coedge $-1 $138 $137 $215 $268 reversed $49 $-1 #
edge $-1 $269 -121.08279671620836 $212 -95.898063001691213 $206 $270 forward 7 unknown #
vertex $-1 $140 $271 #
straight-curve $-1 38.730779271188297 2.1653367487578912 17.409438882307718 0 -1 0 I I #
coedge $-1 $264 $141 $144 $219 reversed $204 $-1 #
coedge $-1 $141 $264 $210 $268 forward $204 $-1 #
vertex $-1 $142 $272 #
straight-curve $-1 60.541398358104189 12.006995543320432 85.109624237381411 0 0 1 I I #
straight-curve $-1 -44.319379091109454 12.006995543320432 65.358471025549164 0.8660253999169214 0 -0.50000000669873634 I I #
edge $-1 $266 -3.3456485482888674 $145 12.006995543320432 $214 $273 forward 7 unknown #
point $-1 60.541398358104189 12.006995543320432 17.409438882307722 #
point $-1 38.730779271188297 12.006995543320432 17.409438882307725 #
edge $-1 $274 1 $274 0 $148 $-1 forward 7 unknown #
vertex $-1 $149 $275 #
ellipse-curve $-1 47.612681090769591 1.040821192170938 7.6086104497483582 0.50000000669873634 0 0.8660253999169214 1.7320507998338428 0 -1.0000000133974727 1 I I #
point $-1 51.368139614480071 1.040821192170938 10.113255355928008 #
edge $-1 $276 1 $276 0 $152 $-1 forward 7 unknown #
vertex $-1 $153 $277 #
ellipse-curve $-1 47.612681090769591 7.6205258028606409 7.6086104497483582 0.50000000669873634 0 0.8660253999169214 1.7320507998338428 0 -1.0000000133974727 1 I I #
point $-1 51.368139614480071 7.6205258028606409 10.113255355928008 #
plane-surface $-1 60.541398358104189 0 0 -1 0 0 0 0 1 forward_v I I I I #
coedge $-1 $161 $159 $163 $235 reversed $101 $-1 #
edge $-1 $174 -17.409438882307722 $237 17.409438882307722 $173 $278 forward 7 unknown #
vertex $-1 $235 $279 #
straight-curve $-1 -60.541398358104189 -40.173459052703357 0 0 0 -1 I I #
edge $-1 $233 -40.173459052703357 $237 40.173459052703357 $231 $280 forward 7 unknown #
straight-curve $-1 0 -40.173459052703357 -17.409438882307722 -1 0 0 I I #
vertex $-1 $166 $281 #
straight-curve $-1 0 40.173459052703357 -17.409438882307722 1 0 0 I I #
point $-1 60.541398358104189 40.173459052703357 -17.409438882307722 #
point $-1 60.541398358104189 -40.173459052703357 -17.409438882307722 #
straight-curve $-1 -60.541398358104189 0 17.409438882307722 0 -1 0 I I #
point $-1 -60.541398358104189 40.173459052703357 17.409438882307722 #
point $-1 -60.541398358104189 -40.173459052703357 17.409438882307722 #
straight-curve $-1 60.541398358104189 -40.173459052703357 0 0 0 -1 I I #
straight-curve $-1 60.541398358104189 40.173459052703357 0 0 0 -1 I I #
plane-surface $-1 0 -40.173459052703357 0 0 1 0 0 0 1 forward_v I I I I #
coedge $-1 $282 $186 $200 $261 reversed $120 $-1 #
coedge $-1 $186 $282 $252 $283 reversed $120 $-1 #
edge $-1 $253 -3.9711712710358782 $250 3.9711712710358782 $187 $284 forward 7 unknown #
vertex $-1 $188 $285 #
straight-curve $-1 -67.760532183545806 40.173459052703357 9.4670963402359654 1 0 0 I I #
coedge $-1 $256 $189 $248 $283 forward $184 $-1 #
vertex $-1 $190 $286 #
straight-curve $-1 0 40.173459052703357 17.409438882307722 -1 0 0 I I #
point $-1 -60.541398358104189 40.173459052703357 17.409438882307722 #
coedge $-1 $193 $252 $195 $259 forward $184 $-1 #
straight-curve $-1 -60.541398358104189 0 17.409438882307722 0 1 0 I I #
coedge $-1 $196 $195 $282 $287 forward $197 $-1 #
edge $-1 $288 -74.979666008987422 $198 -60.541398358104189 $195 $289 forward 7 unknown #
point $-1 -60.541398358104189 -40.173459052703357 17.409438882307722 #
edge $-1 $262 -40.173459052703357 $250 40.173459052703357 $247 $290 forward 7 unknown #
vertex $-1 $261 $291 #
straight-curve $-1 -67.760532183545806 -40.173459052703357 9.4670963402359654 -1 0 0 I I #
coedge $-1 $215 $214 $207 $265 forward $204 $-1 #
edge $-1 $266 67.700185355073685 $269 80.292552381038149 $264 $292 forward 7 unknown #
vertex $-1 $219 $293 #
straight-curve $-1 8.1110100390482316 -3.3456485482888674 17.409438882307725 1 0 0 I I #
edge $-1 $269 -5.5109852970467585 $216 9.8416587945625409 $215 $294 forward 7 unknown #
vertex $-1 $268 $295 #
straight-curve $-1 -44.319379091109454 -3.3456485482888674 65.358471025549164 -0.8660253999169214 0 0.50000000669873634 I I #
point $-1 38.730779271188297 -3.3456485482888674 17.409438882307725 #
point $-1 60.541398358104189 12.006995543320432 4.8170718563432544 #
straight-curve $-1 60.541398358104189 0 17.409438882307722 0 1 0 I I #
vertex $-1 $222 $296 #
point $-1 49.344731890603434 1.040821192170938 6.6086104363508857 #
vertex $-1 $226 $297 #
point $-1 49.344731890603434 7.6205258028606409 6.6086104363508857 #
straight-curve $-1 -60.541398358104189 40.173459052703357 0 0 0 -1 I I #
point $-1 -60.541398358104189 -40.173459052703357 -17.409438882307722 #
straight-curve $-1 -60.541398358104189 0 -17.409438882307722 0 1 0 I I #
point $-1 -60.541398358104189 40.173459052703357 -17.409438882307722 #
coedge $-1 $248 $247 $258 $287 reversed $120 $-1 #
edge $-1 $253 -40.173459052703357 $288 40.173459052703357 $248 $298 forward 7 unknown #
straight-curve $-1 -74.979666008987422 40.173459052703357 13.438267611271844 0 0 -1 I I #
point $-1 -74.979666008987422 40.173459052703357 9.4670963402359654 #
point $-1 -74.979666008987422 40.173459052703357 17.409438882307722 #
edge $-1 $288 -3.9711712710358782 $262 3.9711712710358782 $282 $299 forward 7 unknown #
vertex $-1 $283 $300 #
straight-curve $-1 0 -40.173459052703357 17.409438882307722 1 0 0 I I #
straight-curve $-1 -74.979666008987422 0 9.4670963402359654 0 1 0 I I #
point $-1 -74.979666008987422 -40.173459052703357 9.4670963402359654 #
straight-curve $-1 60.541398358104189 -3.3456485482888674 85.109624237381411 0 0 -1 I I #
point $-1 60.541398358104189 -3.3456485482888674 17.409438882307722 #
straight-curve $-1 60.541398358104182 2.1653367487578912 4.8170718563432544 0 1 0 I I #
point $-1 60.541398358104189 -3.3456485482888674 4.8170718563432544 #
point $-1 46.612681077372123 1.040821192170938 5.8765596499145154 #
point $-1 46.612681077372123 7.6205258028606409 5.8765596499145154 #
straight-curve $-1 -74.979666008987422 0 17.409438882307722 0 -1 0 I I #
straight-curve $-1 -74.979666008987422 -40.173459052703357 13.438267611271844 0 0 -1 I I #
point $-1 -74.979666008987422 -40.173459052703357 17.409438882307722 #
End-of-ACIS-data 