500 0 6 0           
7 Unknown 11 ACIS 5.0 NT 24 Thu Mar 25 20:29:10 1999 
-1 9.9999999999999995e-007 1e-010 
body $-1 $6 $-1 $7 #
body $-1 $8 $-1 $9 #
body $-1 $10 $-1 $11 #
body $-1 $12 $-1 $13 #
body $-1 $14 $-1 $15 #
body $-1 $16 $-1 $17 #
lump $-1 $-1 $18 $0 #
transform $-1 1 0 0 0 1 0 0 0 1 65.490279854731895 44.20868706731774 20.902626026079297 1 rotate no_reflect no_shear #
lump $-1 $-1 $19 $1 #
transform $-1 1 0 0 0 1 0 0 0 1 65.490279854731895 44.20868706731774 20.902626026079297 1 rotate no_reflect no_shear #
lump $-1 $-1 $20 $2 #
transform $-1 1 0 0 0 1 0 0 0 1 65.490279854731895 44.20868706731774 20.902626026079297 1 rotate no_reflect no_shear #
lump $-1 $-1 $21 $3 #
transform $-1 1 0 0 0 1 0 0 0 1 65.490279854731895 44.20868706731774 20.902626026079297 1 rotate no_reflect no_shear #
lump $-1 $-1 $22 $4 #
transform $-1 1 0 0 0 1 0 0 0 1 65.490279854731895 44.20868706731774 20.902626026079297 1 rotate no_reflect no_shear #
lump $-1 $-1 $23 $5 #
transform $-1 1 0 0 0 1 0 0 0 1 65.490279854731895 44.20868706731774 20.902626026079297 1 rotate no_reflect no_shear #
shell $-1 $-1 $-1 $24 $-1 $6 #
shell $-1 $-1 $-1 $25 $-1 $8 #
shell $-1 $-1 $-1 $26 $-1 $10 #
shell $-1 $-1 $-1 $27 $-1 $12 #
shell $-1 $-1 $-1 $28 $-1 $14 #
shell $-1 $-1 $-1 $29 $-1 $16 #
face $-1 $30 $31 $18 $-1 $32 forward single #
face $-1 $33 $34 $19 $-1 $35 forward single #
face $-1 $36 $37 $20 $-1 $38 reversed single #
face $-1 $39 $40 $21 $-1 $41 forward single #
face $-1 $42 $43 $22 $-1 $44 reversed single #
face $-1 $45 $46 $23 $-1 $47 forward single #
face $-1 $48 $49 $18 $-1 $50 reversed single #
loop $-1 $-1 $51 $24 #
plane-surface $-1 0 0 20.902626026079297 0 0 1 1 0 0 forward_v I I I I #
face $-1 $52 $53 $19 $-1 $54 reversed single #
loop $-1 $-1 $55 $25 #
plane-surface $-1 0 -36.864533752192663 -8.5645840804184061 0 0 1 1 0 0 forward_v I I I I #
face $-1 $56 $57 $20 $-1 $58 reversed single #
loop $-1 $-1 $59 $26 #
plane-surface $-1 78.411586605312422 -29.520380437067587 190.99211354647031 0 1 0 0.75470958851134928 0 0.65605901945558964 forward_v I I I I #
face $-1 $60 $61 $21 $-1 $62 forward single #
loop $-1 $63 $64 $27 #
cone-surface $-1 58.062677405296469 -23.663254390517999 12.650767020419323 -0.75470958851134928 0 -0.65605901945558964 1.3121180389111793 0 -1.5094191770226986 1 I I 0 1 2 forward I I I I #
face $-1 $65 $66 $22 $-1 $67 reversed single #
loop $-1 $-1 $68 $28 #
plane-surface $-1 -164.34256417604757 -29.520380437067587 92.139829225154699 0 1 0 -0.75470958851134928 0 0.65605901945558964 forward_v I I I I #
face $-1 $69 $70 $23 $-1 $71 forward single #
loop $-1 $72 $73 $29 #
cone-surface $-1 -58.062677405296469 -23.663254390517999 12.650767020419309 0.75470958851134928 0 -0.65605901945558964 1.3121180389111793 0 1.5094191770226986 1 I I 0 1 2 forward I I I I #
face $-1 $74 $75 $18 $-1 $76 reversed single #
loop $-1 $-1 $77 $30 #
plane-surface $-1 0 0 -20.902626026079297 0 0 1 1 0 0 forward_v I I I I #
coedge $-1 $78 $79 $80 $81 forward $31 $-1 #
face $-1 $82 $83 $19 $-1 $84 reversed single #
loop $-1 $-1 $85 $33 #
plane-surface $-1 0 -36.864533752192663 -18.809658530445528 0 0 1 1 0 0 forward_v I I I I #
coedge $-1 $86 $87 $88 $89 reversed $34 $-1 #
face $-1 $90 $91 $20 $-1 $92 reversed single #
loop $-1 $-1 $93 $36 #
plane-surface $-1 -20.440697716003214 -23.663254390518002 105.06113597573518 0.75470958851134928 0 0.65605901945558964 0.65605901945558964 0 -0.75470958851134928 forward_v I I I I #
coedge $-1 $94 $95 $96 $97 reversed $37 $-1 #
face $-1 $-1 $98 $21 $-1 $99 forward single #
loop $-1 $100 $101 $39 #
cone-surface $-1 56.266916799263697 -23.663254390517999 11.089736181133624 -0.75470958851134928 0 -0.65605901945558964 0.65605901945558964 0 -0.75470958851134928 1 I I -0.70710678118654746 0.70710678118654746 1 forward I I I I #
loop $-1 $-1 $102 $27 #
coedge $-1 $64 $64 $103 $104 reversed $40 $-1 #
face $-1 $105 $106 $22 $-1 $107 reversed single #
loop $-1 $-1 $108 $42 #
plane-surface $-1 -65.490279854731938 -23.663254390518002 6.2088516544195755 -0.75470958851134928 0 0.65605901945558964 0.65605901945558964 0 0.75470958851134928 forward_v I I I I #
coedge $-1 $109 $110 $111 $112 reversed $43 $-1 #
face $-1 $-1 $113 $23 $-1 $114 forward single #
loop $-1 $115 $116 $45 #
cone-surface $-1 -56.266916799263697 -23.663254390517999 11.08973618113361 0.75470958851134928 0 -0.65605901945558964 0.65605901945558964 0 0.75470958851134928 1 I I -0.70710678118654746 0.70710678118654746 1 forward I I I I #
loop $-1 $-1 $117 $29 #
coedge $-1 $73 $73 $118 $119 reversed $46 $-1 #
face $-1 $120 $121 $18 $-1 $122 reversed single #
loop $-1 $-1 $123 $48 #
plane-surface $-1 0 -44.20868706731774 0 0 1 0 0 0 1 forward_v I I I I #
coedge $-1 $124 $125 $126 $127 forward $49 $-1 #
coedge $-1 $128 $51 $129 $130 forward $31 $-1 #
coedge $-1 $51 $128 $131 $132 forward $31 $-1 #
coedge $-1 $133 $134 $51 $81 reversed $135 $-1 #
edge $-1 $136 -44.20868706731774 $137 44.20868706731774 $80 $138 forward 7 unknown #
face $-1 $139 $140 $19 $-1 $141 reversed single #
loop $-1 $-1 $142 $52 #
plane-surface $-1 0 -29.520380437067587 -13.687121305431967 0 -1 0 0 0 -1 forward_v I I I I #
coedge $-1 $143 $144 $145 $146 reversed $53 $-1 #
coedge $-1 $147 $55 $148 $149 forward $34 $-1 #
coedge $-1 $55 $147 $150 $151 reversed $34 $-1 #
coedge $-1 $152 $153 $55 $89 forward $154 $-1 #
edge $-1 $155 11.088113560971255 $156 25.776420191221408 $88 $157 forward 7 unknown #
face $-1 $158 $159 $20 $-1 $160 forward single #
loop $-1 $-1 $161 $56 #
plane-surface $-1 78.411586605312422 -17.806128343968417 190.99211354647031 0 -1 0 -0.75470958851134928 0 -0.65605901945558964 forward_v I I I I #
coedge $-1 $162 $163 $164 $165 reversed $57 $-1 #
coedge $-1 $95 $59 $166 $167 reversed $37 $-1 #
coedge $-1 $59 $94 $162 $168 reversed $37 $-1 #
coedge $-1 $164 $169 $59 $97 forward $170 $-1 #
edge $-1 $171 74.59343074715585 $172 89.287205118815578 $96 $173 forward 7 unknown #
loop $-1 $-1 $103 $60 #
plane-surface $-1 -20.440697716003214 -23.663254390518002 105.06113597573518 0.75470958851134928 0 0.65605901945558964 0.65605901945558964 0 -0.75470958851134928 forward_v I I I I #
loop $-1 $-1 $174 $39 #
coedge $-1 $101 $101 $102 $175 reversed $61 $-1 #
coedge $-1 $102 $102 $101 $175 forward $63 $-1 #
coedge $-1 $103 $103 $64 $104 forward $98 $-1 #
edge $-1 $176 0 $176 6.2831853071796004 $103 $177 forward 7 unknown #
face $-1 $178 $179 $22 $-1 $180 reversed single #
loop $-1 $-1 $181 $65 #
plane-surface $-1 -164.34256417604757 -17.806128343968417 92.139829225154699 0 -1 0 0.75470958851134928 0 -0.65605901945558964 forward_v I I I I #
coedge $-1 $182 $183 $184 $185 reversed $66 $-1 #
coedge $-1 $110 $68 $186 $187 reversed $43 $-1 #
coedge $-1 $68 $109 $182 $188 reversed $43 $-1 #
coedge $-1 $184 $189 $68 $112 forward $190 $-1 #
edge $-1 $191 16.681002233291892 $192 29.454105097119822 $111 $193 forward 7 unknown #
loop $-1 $-1 $118 $69 #
plane-surface $-1 -65.490279854731938 -23.663254390518002 6.2088516544195755 -0.75470958851134928 0 0.65605901945558964 0.65605901945558964 0 0.75470958851134928 forward_v I I I I #
loop $-1 $-1 $194 $45 #
coedge $-1 $116 $116 $117 $195 reversed $70 $-1 #
coedge $-1 $117 $117 $116 $195 forward $72 $-1 #
coedge $-1 $118 $118 $73 $119 forward $113 $-1 #
edge $-1 $196 0 $196 6.2831853071796004 $118 $197 forward 7 unknown #
face $-1 $198 $199 $18 $-1 $200 reversed single #
loop $-1 $-1 $201 $74 #
plane-surface $-1 -65.490279854731895 0 0 1 0 0 0 0 -1 forward_v I I I I #
coedge $-1 $202 $131 $203 $204 forward $75 $-1 #
coedge $-1 $205 $77 $202 $206 forward $49 $-1 #
coedge $-1 $77 $205 $207 $208 forward $49 $-1 #
coedge $-1 $134 $133 $77 $127 reversed $135 $-1 #
edge $-1 $209 -44.20868706731774 $210 44.20868706731774 $126 $211 forward 7 unknown #
coedge $-1 $79 $78 $212 $213 forward $31 $-1 #
coedge $-1 $214 $215 $78 $130 reversed $199 $-1 #
edge $-1 $137 -65.490279854731895 $216 65.490279854731895 $129 $217 forward 7 unknown #
coedge $-1 $123 $218 $79 $132 reversed $75 $-1 #
edge $-1 $219 -65.490279854731895 $136 65.490279854731895 $131 $220 forward 7 unknown #
coedge $-1 $126 $80 $218 $221 forward $135 $-1 #
coedge $-1 $80 $126 $214 $222 reversed $135 $-1 #
loop $-1 $-1 $133 $198 #
vertex $-1 $81 $223 #
vertex $-1 $81 $224 #
straight-curve $-1 65.490279854731895 0 20.902626026079297 0 1 0 I I #
face $-1 $225 $226 $19 $-1 $227 reversed single #
loop $-1 $-1 $228 $82 #
plane-surface $-1 -65.490279854731895 0 0 1 0 0 0 0 -1 forward_v I I I I #
coedge $-1 $229 $148 $153 $230 reversed $83 $-1 #
coedge $-1 $231 $85 $232 $233 reversed $53 $-1 #
coedge $-1 $85 $231 $229 $234 forward $53 $-1 #
coedge $-1 $153 $152 $85 $146 forward $154 $-1 #
edge $-1 $235 -25.776420191221408 $236 -11.088113560971255 $145 $237 forward 7 unknown #
coedge $-1 $87 $86 $228 $238 reversed $34 $-1 #
coedge $-1 $142 $239 $86 $149 reversed $83 $-1 #
edge $-1 $155 -65.490279854731895 $240 65.490279854731895 $148 $241 forward 7 unknown #
coedge $-1 $242 $243 $87 $151 forward $226 $-1 #
edge $-1 $156 -65.490279854731895 $244 65.490279854731895 $150 $245 forward 7 unknown #
coedge $-1 $145 $88 $243 $246 forward $154 $-1 #
coedge $-1 $88 $145 $142 $230 forward $154 $-1 #
loop $-1 $-1 $88 $225 #
vertex $-1 $89 $247 #
vertex $-1 $246 $248 #
straight-curve $-1 65.490279854731895 -18.432266876096332 -8.5645840804184061 0 -1 0 I I #
face $-1 $-1 $170 $20 $-1 $249 reversed single #
loop $-1 $-1 $250 $90 #
plane-surface $-1 0 0 20.902626026079297 0 0 1 1 0 0 forward_v I I I I #
coedge $-1 $251 $252 $253 $254 reversed $91 $-1 #
coedge $-1 $255 $93 $95 $168 forward $57 $-1 #
coedge $-1 $93 $255 $251 $256 forward $57 $-1 #
coedge $-1 $253 $96 $93 $165 forward $170 $-1 #
edge $-1 $172 -17.688753241808584 $257 -5.9745011487094164 $164 $258 forward 7 unknown #
coedge $-1 $259 $260 $94 $167 forward $159 $-1 #
edge $-1 $261 13.511383688247712 $171 26.284486552075684 $166 $262 forward 7 unknown #
edge $-1 $172 -130.98055970946379 $261 -111.5111179595015 $95 $263 forward 7 unknown #
coedge $-1 $96 $253 $259 $264 reversed $170 $-1 #
loop $-1 $-1 $253 $158 #
vertex $-1 $264 $265 #
vertex $-1 $97 $266 #
straight-curve $-1 65.490279854731895 -29.520380437067587 95.496056773235154 0 0 -1 I I #
coedge $-1 $174 $174 $-1 $267 reversed $100 $-1 #
edge $-1 $268 0 $268 6.2831853071796004 $101 $269 forward 7 unknown #
vertex $-1 $104 $270 #
ellipse-curve $-1 59.103728422817902 -23.663254390517999 13.55573884024944 0.75470958851134928 0 0.65605901945558964 1.3121180389111793 0 -1.5094191770226986 1 I I #
face $-1 $-1 $190 $22 $-1 $271 forward single #
loop $-1 $-1 $272 $105 #
plane-surface $-1 -65.490279854731895 0 0 1 0 0 0 0 -1 forward_v I I I I #
coedge $-1 $273 $274 $275 $276 reversed $106 $-1 #
coedge $-1 $277 $108 $110 $188 forward $66 $-1 #
coedge $-1 $108 $277 $273 $278 forward $66 $-1 #
coedge $-1 $275 $111 $108 $185 forward $190 $-1 #
edge $-1 $192 -17.688753241808584 $279 -5.9745011487094164 $184 $280 forward 7 unknown #
coedge $-1 $281 $282 $109 $187 forward $179 $-1 #
edge $-1 $283 -39.861062958157724 $191 -25.167288586498053 $186 $284 forward 7 unknown #
edge $-1 $192 -19.469441749962289 $283 -6.4836900561353642e-014 $110 $285 forward 7 unknown #
coedge $-1 $111 $275 $281 $286 forward $190 $-1 #
loop $-1 $-1 $275 $178 #
vertex $-1 $187 $287 #
vertex $-1 $112 $288 #
straight-curve $-1 -82.171282088023787 -29.520380437067587 20.902626026079297 1 0 0 I I #
coedge $-1 $194 $194 $-1 $289 reversed $115 $-1 #
edge $-1 $290 0 $290 6.2831853071796004 $116 $291 forward 7 unknown #
vertex $-1 $119 $292 #
ellipse-curve $-1 -59.10372842281793 -23.663254390517999 13.555738840249454 -0.75470958851134928 0 0.65605901945558964 1.3121180389111793 0 1.5094191770226986 1 I I #
face $-1 $-1 $135 $18 $-1 $293 reversed single #
loop $-1 $-1 $214 $120 #
plane-surface $-1 0 44.20868706731774 0 0 -1 0 0 0 -1 forward_v I I I I #
coedge $-1 $294 $212 $215 $295 forward $121 $-1 #
coedge $-1 $218 $123 $124 $206 reversed $75 $-1 #
coedge $-1 $212 $294 $123 $204 reversed $121 $-1 #
edge $-1 $219 -20.902626026079297 $296 20.902626026079297 $203 $297 forward 7 unknown #
coedge $-1 $125 $124 $294 $298 forward $49 $-1 #
edge $-1 $210 -65.490279854731895 $296 65.490279854731895 $202 $299 forward 7 unknown #
coedge $-1 $215 $214 $125 $208 reversed $199 $-1 #
edge $-1 $300 -65.490279854731895 $209 65.490279854731895 $207 $301 forward 7 unknown #
vertex $-1 $127 $302 #
vertex $-1 $221 $303 #
straight-curve $-1 65.490279854731895 0 -20.902626026079297 0 -1 0 I I #
coedge $-1 $201 $203 $128 $213 reversed $121 $-1 #
edge $-1 $216 -44.20868706731774 $219 44.20868706731774 $212 $304 forward 7 unknown #
coedge $-1 $207 $129 $134 $222 forward $199 $-1 #
coedge $-1 $129 $207 $201 $295 reversed $199 $-1 #
vertex $-1 $130 $305 #
straight-curve $-1 0 44.20868706731774 20.902626026079297 -1 0 0 I I #
coedge $-1 $131 $202 $133 $221 reversed $75 $-1 #
vertex $-1 $213 $306 #
straight-curve $-1 0 -44.20868706731774 20.902626026079297 1 0 0 I I #
edge $-1 $136 -20.902626026079297 $210 20.902626026079297 $133 $307 forward 7 unknown #
edge $-1 $137 -20.902626026079297 $209 20.902626026079297 $134 $308 forward 7 unknown #
point $-1 65.490279854731895 -44.20868706731774 20.902626026079297 #
point $-1 65.490279854731895 44.20868706731774 20.902626026079297 #
face $-1 $-1 $154 $19 $-1 $309 reversed single #
loop $-1 $-1 $150 $139 #
plane-surface $-1 0 -44.20868706731774 0 0 1 0 0 0 1 forward_v I I I I #
coedge $-1 $310 $311 $147 $238 forward $140 $-1 #
coedge $-1 $239 $142 $144 $234 reversed $83 $-1 #
edge $-1 $236 -11.966097877729545 $155 -1.7210234277024226 $153 $312 forward 7 unknown #
coedge $-1 $144 $143 $313 $314 reversed $53 $-1 #
coedge $-1 $243 $242 $143 $233 forward $226 $-1 #
edge $-1 $315 -65.490279854731895 $235 65.490279854731895 $232 $316 forward 7 unknown #
edge $-1 $317 -65.490279854731895 $236 65.490279854731895 $229 $318 forward 7 unknown #
vertex $-1 $233 $319 #
vertex $-1 $146 $320 #
straight-curve $-1 65.490279854731895 -18.432266876096332 -18.809658530445528 0 1 0 I I #
edge $-1 $244 -25.776420191221408 $240 -11.088113560971255 $228 $321 forward 7 unknown #
coedge $-1 $148 $229 $310 $322 reversed $83 $-1 #
vertex $-1 $238 $323 #
straight-curve $-1 0 -29.520380437067587 -8.5645840804184061 -1 0 0 I I #
coedge $-1 $232 $150 $311 $324 forward $226 $-1 #
coedge $-1 $150 $232 $152 $246 reversed $226 $-1 #
vertex $-1 $324 $325 #
straight-curve $-1 0 -44.20868706731774 -8.5645840804184061 -1 0 0 I I #
edge $-1 $156 8.5645840804184061 $235 18.809658530445528 $152 $326 forward 7 unknown #
point $-1 65.490279854731895 -29.520380437067587 -8.5645840804184061 #
point $-1 65.490279854731895 -44.20868706731774 -8.5645840804184061 #
plane-surface $-1 65.490279854731895 0 0 -1 0 0 0 0 1 forward_v I I I I #
coedge $-1 $260 $259 $252 $327 forward $159 $-1 #
coedge $-1 $252 $161 $163 $256 reversed $91 $-1 #
coedge $-1 $161 $251 $250 $327 reversed $91 $-1 #
coedge $-1 $169 $164 $161 $254 forward $170 $-1 #
edge $-1 $257 -89.287205118815578 $328 -74.59343074715585 $253 $329 forward 7 unknown #
coedge $-1 $163 $162 $260 $330 reversed $57 $-1 #
edge $-1 $331 111.5111179595015 $257 130.98055970946379 $251 $332 forward 7 unknown #
vertex $-1 $165 $333 #
straight-curve $-1 65.490279854731895 -11.831627195259001 6.2088516544195613 0 1 0 I I #
coedge $-1 $250 $166 $169 $264 forward $159 $-1 #
coedge $-1 $166 $250 $255 $330 forward $159 $-1 #
vertex $-1 $167 $334 #
straight-curve $-1 39.205793302656211 -29.520380437067587 20.902626026079304 1 0 0 I I #
straight-curve $-1 -20.440697716003214 -29.520380437067587 105.06113597573518 -0.65605901945558964 0 0.75470958851134928 I I #
edge $-1 $171 -29.520380437067587 $328 -17.806128343968417 $169 $335 forward 7 unknown #
point $-1 65.490279854731895 -29.520380437067587 20.902626026079297 #
point $-1 65.490279854731895 -29.520380437067587 6.2088516544195755 #
edge $-1 $336 1 $336 0 $174 $-1 forward 7 unknown #
vertex $-1 $175 $337 #
ellipse-curve $-1 57.021626387775044 -23.663254390517999 11.745795200589214 0.75470958851134928 0 0.65605901945558964 1.3121180389111793 0 -1.5094191770226986 1 I I #
point $-1 60.415846461729075 -23.663254390517999 12.046319663226733 #
plane-surface $-1 0 0 20.902626026079297 0 0 1 1 0 0 forward_v I I I I #
coedge $-1 $282 $281 $274 $338 forward $179 $-1 #
coedge $-1 $274 $181 $183 $278 reversed $106 $-1 #
coedge $-1 $181 $273 $272 $338 reversed $106 $-1 #
coedge $-1 $189 $184 $181 $276 forward $190 $-1 #
edge $-1 $279 -29.454105097119822 $339 -16.681002233291892 $275 $340 forward 7 unknown #
coedge $-1 $183 $182 $282 $341 reversed $66 $-1 #
edge $-1 $342 6.4836900561353642e-014 $279 19.469441749962289 $273 $343 forward 7 unknown #
vertex $-1 $185 $344 #
straight-curve $-1 -52.717176990903958 -11.831627195259001 20.902626026079297 0 1 0 I I #
coedge $-1 $272 $186 $189 $286 reversed $179 $-1 #
coedge $-1 $186 $272 $277 $341 forward $179 $-1 #
vertex $-1 $187 $345 #
straight-curve $-1 -65.490279854731895 -29.520380437067587 46.06991461257735 0 0 1 I I #
straight-curve $-1 -65.490279854731938 -29.520380437067587 6.2088516544195755 -0.65605901945558964 0 -0.75470958851134928 I I #
edge $-1 $339 17.806128343968417 $191 29.520380437067587 $281 $346 forward 7 unknown #
point $-1 -65.490279854731895 -29.520380437067587 20.902626026079297 #
point $-1 -52.717176990903965 -29.520380437067587 20.902626026079297 #
edge $-1 $347 1 $347 0 $194 $-1 forward 7 unknown #
vertex $-1 $195 $348 #
ellipse-curve $-1 -57.021626387775044 -23.663254390517999 11.7457952005892 -0.75470958851134928 0 0.65605901945558964 1.3121180389111793 0 1.5094191770226986 1 I I #
point $-1 -57.791610383906715 -23.663254390517999 15.065158017272116 #
plane-surface $-1 65.490279854731895 0 0 -1 0 0 0 0 1 forward_v I I I I #
coedge $-1 $203 $201 $205 $298 reversed $121 $-1 #
edge $-1 $216 -20.902626026079297 $300 20.902626026079297 $215 $349 forward 7 unknown #
vertex $-1 $298 $350 #
straight-curve $-1 -65.490279854731895 -44.20868706731774 0 0 0 -1 I I #
edge $-1 $296 -44.20868706731774 $300 44.20868706731774 $294 $351 forward 7 unknown #
straight-curve $-1 0 -44.20868706731774 -20.902626026079297 -1 0 0 I I #
vertex $-1 $208 $352 #
straight-curve $-1 0 44.20868706731774 -20.902626026079297 1 0 0 I I #
point $-1 65.490279854731895 44.20868706731774 -20.902626026079297 #
point $-1 65.490279854731895 -44.20868706731774 -20.902626026079297 #
straight-curve $-1 -65.490279854731895 0 20.902626026079297 0 -1 0 I I #
point $-1 -65.490279854731895 44.20868706731774 20.902626026079297 #
point $-1 -65.490279854731895 -44.20868706731774 20.902626026079297 #
straight-curve $-1 65.490279854731895 -44.20868706731774 0 0 0 -1 I I #
straight-curve $-1 65.490279854731895 44.20868706731774 0 0 0 -1 I I #
plane-surface $-1 65.490279854731895 0 0 -1 0 0 0 0 1 forward_v I I I I #
coedge $-1 $313 $228 $239 $322 forward $140 $-1 #
coedge $-1 $228 $313 $242 $324 reversed $140 $-1 #
straight-curve $-1 65.490279854731895 -29.520380437067587 -6.8435606527159836 0 0 1 I I #
coedge $-1 $311 $310 $231 $314 forward $140 $-1 #
edge $-1 $317 11.088113560971255 $315 25.776420191221408 $313 $353 forward 7 unknown #
vertex $-1 $233 $354 #
straight-curve $-1 0 -44.20868706731774 -18.809658530445528 1 0 0 I I #
vertex $-1 $314 $355 #
straight-curve $-1 0 -29.520380437067587 -18.809658530445528 1 0 0 I I #
point $-1 65.490279854731895 -44.20868706731774 -18.809658530445528 #
point $-1 65.490279854731895 -29.520380437067587 -18.809658530445528 #
straight-curve $-1 -65.490279854731895 -18.432266876096332 -8.5645840804184061 0 1 0 I I #
edge $-1 $240 1.7210234277024226 $317 11.966097877729545 $310 $356 forward 7 unknown #
point $-1 -65.490279854731895 -29.520380437067587 -8.5645840804184061 #
edge $-1 $244 8.5645840804184061 $315 18.809658530445528 $311 $357 forward 7 unknown #
point $-1 -65.490279854731895 -44.20868706731774 -8.5645840804184061 #
straight-curve $-1 65.490279854731895 -44.20868706731774 0 0 0 -1 I I #
edge $-1 $328 -26.284486552075684 $331 -13.511383688247712 $250 $358 forward 7 unknown #
vertex $-1 $327 $359 #
straight-curve $-1 65.490279854731895 -17.806128343968417 95.496056773235154 0 0 1 I I #
edge $-1 $331 5.9745011487094164 $261 17.688753241808584 $260 $360 forward 7 unknown #
vertex $-1 $330 $361 #
straight-curve $-1 -20.440697716003214 -17.806128343968417 105.06113597573518 0.65605901945558964 0 -0.75470958851134928 I I #
point $-1 65.490279854731895 -17.806128343968417 6.2088516544195755 #
point $-1 52.717176990903923 -29.520380437067587 20.90262602607929 #
straight-curve $-1 65.490279854731895 0 20.902626026079297 0 1 0 I I #
vertex $-1 $267 $362 #
point $-1 58.333744426686224 -23.663254390517999 10.236376023566516 #
edge $-1 $339 25.167288586498053 $342 39.861062958157724 $272 $363 forward 7 unknown #
vertex $-1 $286 $364 #
straight-curve $-1 -82.171282088023787 -17.806128343968417 20.902626026079297 -1 0 0 I I #
edge $-1 $342 5.9745011487094164 $283 17.688753241808584 $282 $365 forward 7 unknown #
vertex $-1 $341 $366 #
straight-curve $-1 -65.490279854731938 -17.806128343968417 6.2088516544195755 0.65605901945558964 0 0.75470958851134928 I I #
point $-1 -52.717176990903965 -17.806128343968417 20.902626026079297 #
point $-1 -65.490279854731895 -29.520380437067587 6.2088516544196244 #
straight-curve $-1 -65.490279854731895 0 20.902626026079297 0 -1 0 I I #
vertex $-1 $289 $367 #
point $-1 -55.709508348863864 -23.663254390517999 13.255214377611898 #
straight-curve $-1 -65.490279854731895 44.20868706731774 0 0 0 -1 I I #
point $-1 -65.490279854731895 -44.20868706731774 -20.902626026079297 #
straight-curve $-1 -65.490279854731895 0 -20.902626026079297 0 1 0 I I #
point $-1 -65.490279854731895 44.20868706731774 -20.902626026079297 #
straight-curve $-1 -65.490279854731895 -18.432266876096332 -18.809658530445528 0 -1 0 I I #
point $-1 -65.490279854731895 -44.20868706731774 -18.809658530445528 #
point $-1 -65.490279854731895 -29.520380437067587 -18.809658530445528 #
straight-curve $-1 -65.490279854731895 -29.520380437067587 -6.8435606527159836 0 0 -1 I I #
straight-curve $-1 -65.490279854731895 -44.20868706731774 0 0 0 -1 I I #
straight-curve $-1 39.205793302656211 -17.806128343968417 20.902626026079304 -1 0 0 I I #
point $-1 65.490279854731895 -17.806128343968417 20.902626026079297 #
straight-curve $-1 52.717176990903916 -11.831627195259001 20.902626026079297 0 -1 0 I I #
point $-1 52.717176990903923 -17.806128343968417 20.90262602607929 #
point $-1 55.512207210752351 -23.663254390517999 10.433677161678034 #
straight-curve $-1 -65.490279854731895 -17.806128343968417 46.06991461257735 0 0 -1 I I #
point $-1 -65.490279854731895 -17.806128343968417 20.902626026079297 #
straight-curve $-1 -65.490279854731895 -11.831627195259001 6.2088516544196111 0 -1 0 I I #
point $-1 -65.490279854731895 -17.806128343968417 6.2088516544196244 #
point $-1 -55.512207210752351 -23.663254390517999 10.43367716167802 #
End-of-ACIS-data 