500 0 6 0           
7 Unknown 11 ACIS 5.0 NT 24 Fri Mar 26 19:41:17 1999 
-1 9.9999999999999995e-007 1e-010 
body $-1 $6 $-1 $7 #
body $-1 $8 $-1 $9 #
body $-1 $10 $-1 $11 #
body $-1 $12 $-1 $13 #
body $-1 $14 $-1 $15 #
body $-1 $16 $-1 $17 #
lump $-1 $-1 $18 $0 #
transform $-1 1 0 0 0 1 0 0 0 1 63.441877498702965 28.599281622023415 6.9740806260144632 1 rotate no_reflect no_shear #
lump $-1 $-1 $19 $1 #
transform $-1 1 0 0 0 1 0 0 0 1 63.441877498702965 28.599281622023415 6.9740806260144632 1 rotate no_reflect no_shear #
lump $-1 $-1 $20 $2 #
transform $-1 1 0 0 0 1 0 0 0 1 63.441877498702965 28.599281622023415 6.9740806260144632 1 rotate no_reflect no_shear #
lump $-1 $-1 $21 $3 #
transform $-1 1 0 0 0 1 0 0 0 1 63.441877498702965 28.599281622023415 6.9740806260144632 1 rotate no_reflect no_shear #
lump $-1 $-1 $22 $4 #
transform $-1 1 0 0 0 1 0 0 0 1 63.441877498702965 28.599281622023415 6.9740806260144632 1 rotate no_reflect no_shear #
lump $-1 $-1 $23 $5 #
transform $-1 1 0 0 0 1 0 0 0 1 63.441877498702965 28.599281622023415 6.9740806260144632 1 rotate no_reflect no_shear #
shell $-1 $-1 $-1 $24 $-1 $6 #
shell $-1 $-1 $-1 $25 $-1 $8 #
shell $-1 $-1 $-1 $26 $-1 $10 #
shell $-1 $-1 $-1 $27 $-1 $12 #
shell $-1 $-1 $-1 $28 $-1 $14 #
shell $-1 $-1 $-1 $29 $-1 $16 #
face $-1 $30 $31 $18 $-1 $32 forward single #
face $-1 $33 $34 $19 $-1 $35 reversed single #
face $-1 $36 $37 $20 $-1 $38 reversed single #
face $-1 $39 $40 $21 $-1 $41 reversed single #
face $-1 $42 $43 $22 $-1 $44 forward single #
face $-1 $45 $46 $23 $-1 $47 forward single #
face $-1 $48 $49 $18 $-1 $50 reversed single #
loop $-1 $-1 $51 $24 #
plane-surface $-1 0 0 6.9740806260144632 0 0 1 1 0 0 forward_v I I I I #
face $-1 $52 $53 $19 $-1 $54 reversed single #
loop $-1 $-1 $55 $25 #
plane-surface $-1 -59.696363927446939 0 3.2775433325028827 0 0 1 1 0 0 forward_v I I I I #
face $-1 $56 $57 $20 $-1 $58 reversed single #
loop $-1 $-1 $59 $26 #
plane-surface $-1 59.696363927446939 0 3.2775433325028827 0 0 1 1 0 0 forward_v I I I I #
face $-1 $60 $61 $21 $-1 $62 reversed single #
loop $-1 $-1 $63 $27 #
plane-surface $-1 49.251672182954309 -28.599281622023412 0.13159207370907211 0 -0.64278761758704617 0.76604443648966558 1 0 0 forward_v I I I I #
face $-1 $64 $65 $22 $-1 $66 forward single #
loop $-1 $67 $68 $28 #
cone-surface $-1 46.380595822995758 -23.673917960574407 2.542129706304832 0 0.64278761758704617 -0.76604443648966558 1.5 0 0 1 I I 0 1 1.5 forward I I I I #
face $-1 $69 $70 $23 $-1 $71 forward single #
loop $-1 $72 $73 $29 #
cone-surface $-1 52.122748542912845 -23.673917960574407 2.542129706304832 0 0.64278761758704617 -0.76604443648966558 1.5 0 0 1 I I 0 1 1.5 forward I I I I #
face $-1 $74 $75 $18 $-1 $76 reversed single #
loop $-1 $-1 $77 $30 #
plane-surface $-1 0 0 -6.9740806260144632 0 0 1 1 0 0 forward_v I I I I #
coedge $-1 $78 $79 $80 $81 forward $31 $-1 #
face $-1 $82 $83 $19 $-1 $84 reversed single #
loop $-1 $-1 $85 $33 #
plane-surface $-1 -55.950850356190912 0 5.1258119792586738 -1 0 0 0 0 1 forward_v I I I I #
coedge $-1 $86 $87 $88 $89 forward $34 $-1 #
face $-1 $90 $91 $20 $-1 $92 forward single #
loop $-1 $-1 $93 $36 #
plane-surface $-1 55.950850356190912 0 5.1258119792586738 1 0 0 0 0 -1 forward_v I I I I #
coedge $-1 $94 $95 $96 $97 reversed $37 $-1 #
face $-1 $98 $99 $21 $-1 $100 forward single #
loop $-1 $-1 $101 $39 #
plane-surface $-1 42.552494009717705 -110.15858820730442 97.330186670389679 1 0 0 0 0.64278761758704617 -0.76604443648966558 forward_v I I I I #
coedge $-1 $102 $103 $104 $105 reversed $40 $-1 #
face $-1 $-1 $106 $22 $-1 $107 forward single #
loop $-1 $108 $109 $42 #
cone-surface $-1 46.380595822995758 -22.343743657783989 0.95688973538064026 0 0.64278761758704617 -0.76604443648966558 0.75 0 0 1 I I -0.70710678118654757 0.70710678118654757 0.75 forward I I I I #
loop $-1 $-1 $110 $28 #
coedge $-1 $68 $68 $111 $112 reversed $43 $-1 #
face $-1 $-1 $113 $23 $-1 $114 forward single #
loop $-1 $115 $116 $45 #
cone-surface $-1 52.122748542912845 -22.343743657783989 0.95688973538064026 0 0.64278761758704617 -0.76604443648966558 0.75 0 0 1 I I -0.70710678118654757 0.70710678118654757 0.75 forward I I I I #
loop $-1 $-1 $117 $29 #
coedge $-1 $73 $73 $118 $119 reversed $46 $-1 #
face $-1 $120 $121 $18 $-1 $122 reversed single #
loop $-1 $-1 $123 $48 #
plane-surface $-1 0 -28.599281622023415 0 0 1 0 0 0 1 forward_v I I I I #
coedge $-1 $124 $125 $126 $127 forward $49 $-1 #
coedge $-1 $128 $51 $129 $130 forward $31 $-1 #
coedge $-1 $51 $128 $131 $132 forward $31 $-1 #
coedge $-1 $133 $134 $51 $81 reversed $135 $-1 #
edge $-1 $136 -28.599281622023415 $137 28.599281622023415 $80 $138 forward 7 unknown #
face $-1 $139 $140 $19 $-1 $141 reversed single #
loop $-1 $-1 $142 $52 #
plane-surface $-1 0 28.599281622023415 0 0 -1 0 0 0 -1 forward_v I I I I #
coedge $-1 $88 $143 $144 $145 reversed $53 $-1 #
coedge $-1 $146 $55 $147 $148 reversed $34 $-1 #
coedge $-1 $55 $146 $149 $150 reversed $34 $-1 #
coedge $-1 $151 $85 $55 $89 reversed $53 $-1 #
edge $-1 $152 -28.599281622023415 $153 28.599281622023415 $88 $154 forward 7 unknown #
face $-1 $155 $156 $20 $-1 $157 reversed single #
loop $-1 $-1 $158 $56 #
plane-surface $-1 0 0 6.9740806260144632 0 0 1 1 0 0 forward_v I I I I #
coedge $-1 $159 $160 $158 $161 reversed $57 $-1 #
coedge $-1 $162 $59 $163 $164 reversed $37 $-1 #
coedge $-1 $59 $162 $165 $166 reversed $37 $-1 #
coedge $-1 $167 $168 $59 $97 forward $169 $-1 #
edge $-1 $170 -28.599281622023415 $171 28.599281622023415 $96 $172 forward 7 unknown #
face $-1 $173 $174 $21 $-1 $175 reversed single #
loop $-1 $-1 $104 $60 #
plane-surface $-1 0 0 6.9740806260144632 0 0 1 1 0 0 forward_v I I I I #
coedge $-1 $176 $177 $178 $179 reversed $61 $-1 #
coedge $-1 $180 $63 $181 $182 reversed $40 $-1 #
coedge $-1 $63 $180 $176 $183 forward $40 $-1 #
coedge $-1 $178 $184 $63 $105 forward $99 $-1 #
edge $-1 $185 -31.325014264713758 $186 -17.926657918240551 $104 $187 forward 7 unknown #
loop $-1 $-1 $111 $64 #
plane-surface $-1 49.251672182954309 -28.599281622023412 0.13159207370907211 0 -0.64278761758704617 0.76604443648966558 1 0 0 forward_v I I I I #
loop $-1 $-1 $188 $42 #
coedge $-1 $109 $109 $110 $189 reversed $65 $-1 #
coedge $-1 $110 $110 $109 $189 forward $67 $-1 #
coedge $-1 $111 $111 $68 $112 forward $106 $-1 #
edge $-1 $190 1.3191720526098735e-015 $190 6.2831853071796013 $111 $191 forward 7 unknown #
loop $-1 $-1 $118 $69 #
plane-surface $-1 49.251672182954309 -28.599281622023412 0.13159207370907211 0 -0.64278761758704617 0.76604443648966558 1 0 0 forward_v I I I I #
loop $-1 $-1 $192 $45 #
coedge $-1 $116 $116 $117 $193 reversed $70 $-1 #
coedge $-1 $117 $117 $116 $193 forward $72 $-1 #
coedge $-1 $118 $118 $73 $119 forward $113 $-1 #
edge $-1 $194 1.3191720526098735e-015 $194 6.2831853071796013 $118 $195 forward 7 unknown #
face $-1 $196 $197 $18 $-1 $198 reversed single #
loop $-1 $-1 $199 $74 #
plane-surface $-1 -63.441877498702965 0 0 1 0 0 0 0 -1 forward_v I I I I #
coedge $-1 $200 $131 $201 $202 forward $75 $-1 #
coedge $-1 $203 $77 $200 $204 forward $49 $-1 #
coedge $-1 $77 $203 $205 $206 forward $49 $-1 #
coedge $-1 $134 $133 $77 $127 reversed $135 $-1 #
edge $-1 $207 -28.599281622023415 $208 28.599281622023415 $126 $209 forward 7 unknown #
coedge $-1 $79 $78 $210 $211 forward $31 $-1 #
coedge $-1 $212 $213 $78 $130 reversed $197 $-1 #
edge $-1 $137 -63.441877498702965 $214 63.441877498702965 $129 $215 forward 7 unknown #
coedge $-1 $123 $216 $79 $132 reversed $75 $-1 #
edge $-1 $217 -63.441877498702965 $136 63.441877498702965 $131 $218 forward 7 unknown #
coedge $-1 $126 $80 $216 $219 forward $135 $-1 #
coedge $-1 $80 $126 $212 $220 reversed $135 $-1 #
loop $-1 $-1 $133 $196 #
vertex $-1 $81 $221 #
vertex $-1 $81 $222 #
straight-curve $-1 63.441877498702965 0 6.9740806260144632 0 1 0 I I #
face $-1 $223 $224 $19 $-1 $225 forward single #
loop $-1 $-1 $226 $82 #
plane-surface $-1 -63.441877498702965 0 0 1 0 0 0 0 -1 forward_v I I I I #
coedge $-1 $149 $227 $151 $228 forward $83 $-1 #
coedge $-1 $85 $151 $229 $230 reversed $53 $-1 #
coedge $-1 $231 $147 $85 $145 forward $232 $-1 #
edge $-1 $153 0.71463734287354574 $233 4.4111746363851285 $144 $234 forward 7 unknown #
coedge $-1 $87 $86 $226 $235 reversed $34 $-1 #
coedge $-1 $144 $236 $86 $148 forward $232 $-1 #
edge $-1 $237 -33.593695534979496 $153 -26.102668392467443 $147 $238 forward 7 unknown #
coedge $-1 $239 $142 $87 $150 forward $83 $-1 #
edge $-1 $152 26.102668392467443 $240 33.593695534979496 $149 $241 forward 7 unknown #
coedge $-1 $143 $88 $142 $228 reversed $53 $-1 #
vertex $-1 $150 $242 #
vertex $-1 $148 $243 #
straight-curve $-1 -55.950850356190912 0 3.2775433325028827 0 -1 0 I I #
face $-1 $244 $245 $20 $-1 $246 reversed single #
loop $-1 $-1 $247 $90 #
plane-surface $-1 0 -28.599281622023415 0 0 1 0 0 0 1 forward_v I I I I #
coedge $-1 $248 $249 $93 $161 forward $91 $-1 #
coedge $-1 $250 $93 $251 $252 reversed $57 $-1 #
coedge $-1 $93 $250 $247 $253 reversed $57 $-1 #
edge $-1 $254 -28.599281622023415 $255 28.599281622023415 $158 $256 forward 7 unknown #
coedge $-1 $95 $94 $250 $257 forward $37 $-1 #
coedge $-1 $258 $247 $94 $164 forward $156 $-1 #
edge $-1 $259 26.102668392467443 $170 33.593695534979496 $163 $260 forward 7 unknown #
coedge $-1 $251 $261 $95 $166 forward $245 $-1 #
edge $-1 $171 -33.593695534979496 $262 -26.102668392467443 $165 $263 forward 7 unknown #
coedge $-1 $264 $96 $261 $265 reversed $169 $-1 #
coedge $-1 $96 $264 $258 $266 forward $169 $-1 #
loop $-1 $-1 $96 $244 #
vertex $-1 $164 $267 #
vertex $-1 $97 $268 #
straight-curve $-1 63.441877498702965 0 3.2775433325028827 0 1 0 I I #
face $-1 $-1 $269 $21 $-1 $270 forward single #
loop $-1 $-1 $271 $98 #
plane-surface $-1 0 -28.599281622023415 0 0 1 0 0 0 1 forward_v I I I I #
coedge $-1 $177 $101 $103 $183 reversed $61 $-1 #
coedge $-1 $101 $176 $271 $272 reversed $61 $-1 #
coedge $-1 $273 $104 $101 $179 forward $99 $-1 #
edge $-1 $186 -34.63457262532657 $274 -26.480012481628794 $178 $275 forward 7 unknown #
coedge $-1 $103 $102 $276 $277 reversed $40 $-1 #
coedge $-1 $278 $279 $102 $182 forward $269 $-1 #
edge $-1 $280 -12.559271644473107 $185 -1.9142492994700362 $181 $281 forward 7 unknown #
edge $-1 $282 -4.6305171628316697e-015 $186 10.645022345003065 $176 $283 forward 7 unknown #
coedge $-1 $104 $273 $278 $284 forward $99 $-1 #
vertex $-1 $182 $285 #
vertex $-1 $105 $286 #
straight-curve $-1 24.625836091477154 -20.444721478325643 6.9740806260144632 -1 0 0 I I #
coedge $-1 $188 $188 $-1 $287 reversed $108 $-1 #
edge $-1 $288 0 $288 6.2831853071796004 $109 $289 forward 7 unknown #
vertex $-1 $112 $290 #
ellipse-curve $-1 46.380595822995758 -24.522001550174533 3.5528363498617637 0 -0.64278761758704617 0.76604443648966558 1.5 0 0 1 I I #
coedge $-1 $192 $192 $-1 $291 reversed $115 $-1 #
edge $-1 $292 0 $292 6.2831853071796004 $116 $293 forward 7 unknown #
vertex $-1 $119 $294 #
ellipse-curve $-1 52.122748542912845 -24.522001550174533 3.5528363498617637 0 -0.64278761758704617 0.76604443648966558 1.5 0 0 1 I I #
face $-1 $-1 $135 $18 $-1 $295 reversed single #
loop $-1 $-1 $212 $120 #
plane-surface $-1 0 28.599281622023415 0 0 -1 0 0 0 -1 forward_v I I I I #
coedge $-1 $296 $210 $213 $297 forward $121 $-1 #
coedge $-1 $216 $123 $124 $204 reversed $75 $-1 #
coedge $-1 $210 $296 $123 $202 reversed $121 $-1 #
edge $-1 $217 -6.9740806260144632 $298 6.9740806260144632 $201 $299 forward 7 unknown #
coedge $-1 $125 $124 $296 $300 forward $49 $-1 #
edge $-1 $208 -63.441877498702965 $298 63.441877498702965 $200 $301 forward 7 unknown #
coedge $-1 $213 $212 $125 $206 reversed $197 $-1 #
edge $-1 $302 -63.441877498702965 $207 63.441877498702965 $205 $303 forward 7 unknown #
vertex $-1 $127 $304 #
vertex $-1 $219 $305 #
straight-curve $-1 63.441877498702965 0 -6.9740806260144632 0 -1 0 I I #
coedge $-1 $199 $201 $128 $211 reversed $121 $-1 #
edge $-1 $214 -28.599281622023415 $217 28.599281622023415 $210 $306 forward 7 unknown #
coedge $-1 $205 $129 $134 $220 forward $197 $-1 #
coedge $-1 $129 $205 $199 $297 reversed $197 $-1 #
vertex $-1 $130 $307 #
straight-curve $-1 0 28.599281622023415 6.9740806260144632 -1 0 0 I I #
coedge $-1 $131 $200 $133 $219 reversed $75 $-1 #
vertex $-1 $211 $308 #
straight-curve $-1 0 -28.599281622023415 6.9740806260144632 1 0 0 I I #
edge $-1 $136 -6.9740806260144632 $208 6.9740806260144632 $133 $309 forward 7 unknown #
edge $-1 $137 -6.9740806260144632 $207 6.9740806260144632 $134 $310 forward 7 unknown #
point $-1 63.441877498702965 -28.599281622023415 6.9740806260144632 #
point $-1 63.441877498702965 28.599281622023415 6.9740806260144632 #
face $-1 $-1 $232 $19 $-1 $311 reversed single #
loop $-1 $-1 $229 $139 #
plane-surface $-1 0 0 6.9740806260144632 0 0 1 1 0 0 forward_v I I I I #
coedge $-1 $312 $313 $146 $235 forward $140 $-1 #
coedge $-1 $142 $239 $314 $315 reversed $83 $-1 #
edge $-1 $316 -4.4111746363851285 $152 -0.71463734287354574 $142 $317 forward 7 unknown #
coedge $-1 $314 $318 $143 $230 forward $224 $-1 #
edge $-1 $233 -28.599281622023415 $316 28.599281622023415 $229 $319 forward 7 unknown #
coedge $-1 $236 $144 $318 $320 reversed $232 $-1 #
loop $-1 $-1 $144 $223 #
vertex $-1 $145 $321 #
straight-curve $-1 -55.950850356190912 -28.599281622023415 2.5629059896293369 0 0 1 I I #
edge $-1 $240 -28.599281622023415 $237 28.599281622023415 $226 $322 forward 7 unknown #
coedge $-1 $147 $231 $312 $323 forward $232 $-1 #
vertex $-1 $235 $324 #
straight-curve $-1 -29.848181963723469 -28.599281622023415 3.2775433325028827 1 0 0 I I #
coedge $-1 $227 $149 $313 $325 reversed $83 $-1 #
vertex $-1 $235 $326 #
straight-curve $-1 -29.848181963723469 28.599281622023415 3.2775433325028827 -1 0 0 I I #
point $-1 -55.950850356190912 28.599281622023415 3.2775433325028827 #
point $-1 -55.950850356190912 -28.599281622023415 3.2775433325028827 #
face $-1 $-1 $169 $20 $-1 $327 reversed single #
loop $-1 $-1 $251 $155 #
plane-surface $-1 0 28.599281622023415 0 0 -1 0 0 0 -1 forward_v I I I I #
coedge $-1 $163 $328 $160 $253 forward $156 $-1 #
coedge $-1 $329 $158 $328 $330 forward $91 $-1 #
coedge $-1 $158 $329 $331 $332 forward $91 $-1 #
coedge $-1 $160 $159 $162 $257 reversed $57 $-1 #
coedge $-1 $331 $165 $159 $252 forward $245 $-1 #
edge $-1 $262 0.71463734287354574 $254 4.4111746363851285 $251 $333 forward 7 unknown #
edge $-1 $255 -4.4111746363851285 $259 -0.71463734287354574 $247 $334 forward 7 unknown #
vertex $-1 $252 $335 #
vertex $-1 $330 $336 #
straight-curve $-1 55.950850356190912 0 6.9740806260144632 0 -1 0 I I #
edge $-1 $259 -28.599281622023415 $262 28.599281622023415 $250 $337 forward 7 unknown #
coedge $-1 $328 $163 $168 $266 reversed $156 $-1 #
vertex $-1 $164 $338 #
straight-curve $-1 29.848181963723469 -28.599281622023415 3.2775433325028827 1 0 0 I I #
coedge $-1 $165 $331 $167 $265 forward $245 $-1 #
vertex $-1 $166 $339 #
straight-curve $-1 29.848181963723469 28.599281622023415 3.2775433325028827 -1 0 0 I I #
coedge $-1 $168 $167 $329 $340 reversed $169 $-1 #
edge $-1 $341 -6.9740806260144632 $171 -3.2775433325028827 $167 $342 forward 7 unknown #
edge $-1 $343 -6.9740806260144632 $170 -3.2775433325028827 $168 $344 forward 7 unknown #
point $-1 63.441877498702965 -28.599281622023415 3.2775433325028827 #
point $-1 63.441877498702965 28.599281622023415 3.2775433325028827 #
loop $-1 $-1 $181 $173 #
plane-surface $-1 55.950850356190912 0 5.1258119792586738 1 0 0 0 0 -1 forward_v I I I I #
coedge $-1 $276 $345 $177 $272 forward $174 $-1 #
edge $-1 $274 41.691012709180377 $282 48.533501261485767 $271 $346 forward 7 unknown #
coedge $-1 $184 $178 $345 $347 forward $99 $-1 #
vertex $-1 $347 $348 #
straight-curve $-1 42.552494009717705 -55.079294103652209 6.9740806260144623 0 -1 0 I I #
coedge $-1 $349 $271 $180 $277 forward $174 $-1 #
edge $-1 $282 17.926657918240551 $280 31.325014264713758 $276 $350 forward 7 unknown #
coedge $-1 $279 $181 $184 $284 reversed $269 $-1 #
coedge $-1 $181 $278 $349 $351 reversed $269 $-1 #
vertex $-1 $351 $352 #
straight-curve $-1 55.950850356190912 -18.978321452412381 8.2045363726884819 0 0.76604443648966558 0.64278761758704617 I I #
vertex $-1 $277 $353 #
straight-curve $-1 42.552494009717705 -28.599281622023412 0.13159207370907211 0 0.76604443648966558 0.64278761758704617 I I #
edge $-1 $354 -28.599281622023415 $185 -20.44472147832564 $184 $355 forward 7 unknown #
point $-1 55.950850356190912 -20.44472147832564 6.9740806260144632 #
point $-1 42.552494009717705 -20.44472147832564 6.9740806260144623 #
edge $-1 $356 1 $356 0 $188 $-1 forward 7 unknown #
vertex $-1 $189 $357 #
ellipse-curve $-1 46.380595822995758 -22.825834370974274 1.5314230627478893 0 -0.64278761758704617 0.76604443648966558 1.5 0 0 1 I I #
point $-1 47.880595822995758 -24.52200155017454 3.5528363498617752 #
edge $-1 $358 1 $358 0 $192 $-1 forward 7 unknown #
vertex $-1 $193 $359 #
ellipse-curve $-1 52.122748542912845 -22.825834370974274 1.5314230627478893 0 -0.64278761758704617 0.76604443648966558 1.5 0 0 1 I I #
point $-1 53.622748542912845 -24.52200155017454 3.5528363498617752 #
plane-surface $-1 63.441877498702965 0 0 -1 0 0 0 0 1 forward_v I I I I #
coedge $-1 $201 $199 $203 $300 reversed $121 $-1 #
edge $-1 $214 -6.9740806260144632 $302 6.9740806260144632 $213 $360 forward 7 unknown #
vertex $-1 $300 $361 #
straight-curve $-1 -63.441877498702965 -28.599281622023415 0 0 0 -1 I I #
edge $-1 $298 -28.599281622023415 $302 28.599281622023415 $296 $362 forward 7 unknown #
straight-curve $-1 0 -28.599281622023415 -6.9740806260144632 -1 0 0 I I #
vertex $-1 $206 $363 #
straight-curve $-1 0 28.599281622023415 -6.9740806260144632 1 0 0 I I #
point $-1 63.441877498702965 28.599281622023415 -6.9740806260144632 #
point $-1 63.441877498702965 -28.599281622023415 -6.9740806260144632 #
straight-curve $-1 -63.441877498702965 0 6.9740806260144632 0 -1 0 I I #
point $-1 -63.441877498702965 28.599281622023415 6.9740806260144632 #
point $-1 -63.441877498702965 -28.599281622023415 6.9740806260144632 #
straight-curve $-1 63.441877498702965 -28.599281622023415 0 0 0 -1 I I #
straight-curve $-1 63.441877498702965 28.599281622023415 0 0 0 -1 I I #
plane-surface $-1 0 -28.599281622023415 0 0 1 0 0 0 1 forward_v I I I I #
coedge $-1 $364 $226 $236 $323 reversed $140 $-1 #
coedge $-1 $226 $364 $239 $325 forward $140 $-1 #
coedge $-1 $365 $229 $227 $315 forward $224 $-1 #
edge $-1 $316 55.950850356190912 $366 63.441877498702965 $227 $367 forward 7 unknown #
vertex $-1 $315 $368 #
straight-curve $-1 -55.950850356190912 28.599281622023415 2.5629059896293369 0 0 -1 I I #
coedge $-1 $229 $365 $231 $320 forward $224 $-1 #
straight-curve $-1 -55.950850356190912 0 6.9740806260144632 0 1 0 I I #
edge $-1 $369 -63.441877498702965 $233 -55.950850356190912 $231 $370 forward 7 unknown #
point $-1 -55.950850356190912 -28.599281622023415 6.974080626014465 #
straight-curve $-1 -63.441877498702965 0 3.2775433325028827 0 -1 0 I I #
edge $-1 $369 -6.9740806260144632 $237 -3.2775433325028827 $312 $371 forward 7 unknown #
point $-1 -63.441877498702965 -28.599281622023415 3.2775433325028827 #
edge $-1 $366 -6.9740806260144632 $240 -3.2775433325028827 $239 $372 forward 7 unknown #
point $-1 -63.441877498702965 28.599281622023415 3.2775433325028827 #
plane-surface $-1 63.441877498702965 0 0 -1 0 0 0 0 1 forward_v I I I I #
coedge $-1 $247 $258 $248 $330 reversed $156 $-1 #
coedge $-1 $249 $248 $264 $340 forward $91 $-1 #
edge $-1 $255 55.950850356190912 $343 63.441877498702965 $328 $373 forward 7 unknown #
coedge $-1 $261 $251 $249 $332 reversed $245 $-1 #
edge $-1 $341 -63.441877498702965 $254 -55.950850356190912 $331 $374 forward 7 unknown #
straight-curve $-1 55.950850356190912 28.599281622023415 2.5629059896293369 0 0 1 I I #
straight-curve $-1 55.950850356190912 -28.599281622023415 2.5629059896293369 0 0 -1 I I #
point $-1 55.950850356190912 28.599281622023415 6.974080626014465 #
point $-1 55.950850356190912 -28.599281622023415 6.974080626014465 #
straight-curve $-1 55.950850356190912 0 3.2775433325028827 0 1 0 I I #
point $-1 55.950850356190912 -28.599281622023415 3.2775433325028827 #
point $-1 55.950850356190912 28.599281622023415 3.2775433325028827 #
edge $-1 $343 -28.599281622023415 $341 28.599281622023415 $264 $375 forward 7 unknown #
vertex $-1 $340 $376 #
straight-curve $-1 63.441877498702965 28.599281622023415 0 0 0 -1 I I #
vertex $-1 $340 $377 #
straight-curve $-1 63.441877498702965 -28.599281622023415 0 0 0 -1 I I #
coedge $-1 $271 $349 $273 $347 reversed $174 $-1 #
straight-curve $-1 42.552494009717705 -28.599281622023412 48.66509333519484 0 0 -1 I I #
edge $-1 $274 42.552494009717705 $354 55.950850356190912 $345 $378 forward 7 unknown #
point $-1 42.552494009717705 -28.599281622023415 6.9740806260144632 #
coedge $-1 $345 $276 $279 $351 forward $174 $-1 #
straight-curve $-1 24.625836091477154 -28.599281622023415 0.13159207370906806 1 0 0 I I #
edge $-1 $280 -48.533501261485767 $354 -41.691012709180377 $349 $379 forward 7 unknown #
point $-1 55.950850356190912 -28.599281622023415 0.13159207370906914 #
point $-1 42.552494009717705 -28.599281622023415 0.13159207370906914 #
vertex $-1 $284 $380 #
straight-curve $-1 55.950850356190912 0 6.9740806260144632 0 1 0 I I #
vertex $-1 $287 $381 #
point $-1 47.880595822995758 -22.825834370974274 1.5314230627478893 #
vertex $-1 $291 $382 #
point $-1 53.622748542912845 -22.825834370974274 1.5314230627478893 #
straight-curve $-1 -63.441877498702965 28.599281622023415 0 0 0 -1 I I #
point $-1 -63.441877498702965 -28.599281622023415 -6.9740806260144632 #
straight-curve $-1 -63.441877498702965 0 -6.9740806260144632 0 1 0 I I #
point $-1 -63.441877498702965 28.599281622023415 -6.9740806260144632 #
coedge $-1 $313 $312 $365 $383 reversed $140 $-1 #
coedge $-1 $318 $314 $364 $383 forward $224 $-1 #
vertex $-1 $315 $384 #
straight-curve $-1 0 28.599281622023415 6.9740806260144632 -1 0 0 I I #
point $-1 -55.950850356190912 28.599281622023415 6.974080626014465 #
vertex $-1 $383 $385 #
straight-curve $-1 0 -28.599281622023415 6.9740806260144632 1 0 0 I I #
straight-curve $-1 -63.441877498702965 -28.599281622023415 0 0 0 -1 I I #
straight-curve $-1 -63.441877498702965 28.599281622023415 0 0 0 -1 I I #
straight-curve $-1 0 -28.599281622023415 6.9740806260144632 1 0 0 I I #
straight-curve $-1 0 28.599281622023415 6.9740806260144632 -1 0 0 I I #
straight-curve $-1 63.441877498702965 0 6.9740806260144632 0 1 0 I I #
point $-1 63.441877498702965 28.599281622023415 6.9740806260144632 #
point $-1 63.441877498702965 -28.599281622023415 6.9740806260144632 #
straight-curve $-1 0 -28.599281622023415 6.9740806260144632 1 0 0 I I #
straight-curve $-1 55.950850356190912 -28.599281622023412 48.66509333519484 0 0 1 I I #
point $-1 55.950850356190912 -28.599281622023415 6.974080626014465 #
point $-1 46.380595822995758 -21.861652944593704 0.3823564080133911 #
point $-1 52.122748542912845 -21.861652944593704 0.3823564080133911 #
edge $-1 $366 -28.599281622023415 $369 28.599281622023415 $364 $386 forward 7 unknown #
point $-1 -63.441877498702965 28.599281622023415 6.9740806260144632 #
point $-1 -63.441877498702965 -28.599281622023415 6.9740806260144632 #
straight-curve $-1 -63.441877498702965 0 6.9740806260144632 0 -1 0 I I #
End-of-ACIS-data 