500 0 9 0           
7 Unknown 11 ACIS 5.0 NT 24 Fri Mar 26 00:40:23 1999 
-1 9.9999999999999995e-007 1e-010 
body $-1 $9 $-1 $10 #
body $-1 $11 $-1 $12 #
body $-1 $13 $-1 $14 #
body $-1 $15 $-1 $16 #
body $-1 $17 $-1 $18 #
body $-1 $19 $-1 $20 #
body $-1 $21 $-1 $22 #
body $-1 $23 $-1 $24 #
body $-1 $25 $-1 $26 #
lump $-1 $-1 $27 $0 #
transform $-1 1 0 0 0 1 0 0 0 1 57.58354441969054 31.244173596535482 10.112329777702509 1 rotate no_reflect no_shear #
lump $-1 $-1 $28 $1 #
transform $-1 1 0 0 0 1 0 0 0 1 57.58354441969054 31.244173596535482 10.112329777702509 1 rotate no_reflect no_shear #
lump $-1 $-1 $29 $2 #
transform $-1 1 0 0 0 1 0 0 0 1 57.58354441969054 31.244173596535482 10.112329777702509 1 rotate no_reflect no_shear #
lump $-1 $-1 $30 $3 #
transform $-1 1 0 0 0 1 0 0 0 1 57.58354441969054 31.244173596535482 10.112329777702509 1 rotate no_reflect no_shear #
lump $-1 $-1 $31 $4 #
transform $-1 1 0 0 0 1 0 0 0 1 57.58354441969054 31.244173596535482 10.112329777702509 1 rotate no_reflect no_shear #
lump $-1 $-1 $32 $5 #
transform $-1 1 0 0 0 1 0 0 0 1 57.58354441969054 31.244173596535482 10.112329777702509 1 rotate no_reflect no_shear #
lump $-1 $-1 $33 $6 #
transform $-1 1 0 0 0 1 0 0 0 1 57.58354441969054 31.244173596535482 10.112329777702509 1 rotate no_reflect no_shear #
lump $-1 $-1 $34 $7 #
transform $-1 1 0 0 0 1 0 0 0 1 57.58354441969054 31.244173596535482 10.112329777702509 1 rotate no_reflect no_shear #
lump $-1 $-1 $35 $8 #
transform $-1 1 0 0 0 1 0 0 0 1 57.58354441969054 31.244173596535482 10.112329777702509 1 rotate no_reflect no_shear #
shell $-1 $-1 $-1 $36 $-1 $9 #
shell $-1 $-1 $-1 $37 $-1 $11 #
shell $-1 $-1 $-1 $38 $-1 $13 #
shell $-1 $-1 $-1 $39 $-1 $15 #
shell $-1 $-1 $-1 $40 $-1 $17 #
shell $-1 $-1 $-1 $41 $-1 $19 #
shell $-1 $-1 $-1 $42 $-1 $21 #
shell $-1 $-1 $-1 $43 $-1 $23 #
shell $-1 $-1 $-1 $44 $-1 $25 #
face $-1 $45 $46 $27 $-1 $47 forward single #
face $-1 $48 $49 $28 $-1 $50 reversed single #
face $-1 $51 $52 $29 $-1 $53 reversed single #
face $-1 $54 $55 $30 $-1 $56 forward single #
face $-1 $57 $58 $31 $-1 $59 forward single #
face $-1 $60 $61 $32 $-1 $62 forward single #
face $-1 $63 $64 $33 $-1 $65 reversed single #
face $-1 $66 $67 $34 $-1 $68 forward single #
face $-1 $69 $70 $35 $-1 $71 forward single #
face $-1 $72 $73 $27 $-1 $74 reversed single #
loop $-1 $-1 $75 $36 #
plane-surface $-1 0 0 10.112329777702509 0 0 1 1 0 0 forward_v I I I I #
face $-1 $76 $77 $28 $-1 $78 reversed single #
loop $-1 $-1 $79 $37 #
plane-surface $-1 -52.532875932503792 0 5.7250223468795944 0 0 1 1 0 0 forward_v I I I I #
face $-1 $80 $81 $29 $-1 $82 reversed single #
loop $-1 $-1 $83 $38 #
plane-surface $-1 -9.6666516011493719 -103.72117188099389 90.183415502861322 -1 0 0 0 -0.62932039886446345 0.77714595512881146 forward_v I I I I #
face $-1 $84 $85 $30 $-1 $86 forward single #
loop $-1 $87 $88 $39 #
cone-surface $-1 -30.290282410670521 -23.123328694430629 2.5593043833781715 0 0.62932039886446345 -0.77714595512881146 2.5 0 0 1 I I 0 1 2.5 forward I I I I #
face $-1 $89 $90 $31 $-1 $91 forward single #
loop $-1 $92 $93 $40 #
cone-surface $-1 -22.556420857100086 -23.123328694430629 2.5593043833781715 0 0.62932039886446345 -0.77714595512881146 2.5 0 0 1 I I 0 1 2.5 forward I I I I #
face $-1 $94 $95 $32 $-1 $96 forward single #
loop $-1 $97 $98 $41 #
cone-surface $-1 -14.822559303529651 -23.123328694430629 2.5593043833781715 0 0.62932039886446345 -0.77714595512881146 2.5 0 0 1 I I 0 1 2.5 forward I I I I #
face $-1 $99 $100 $33 $-1 $101 reversed single #
loop $-1 $-1 $102 $42 #
plane-surface $-1 11.229616908017064 83.525411650837412 122.18837579349631 1 0 0 0 -0.78801076186113728 -0.61566146476048833 forward_v I I I I #
face $-1 $103 $104 $34 $-1 $105 forward single #
loop $-1 $106 $107 $43 #
cone-surface $-1 17.103375507326447 26.260169661932576 4.6465125400244318 0 -0.78801076186113728 -0.61566146476048833 2 0 0 1 I I 0 1 2 forward I I I I #
face $-1 $108 $109 $35 $-1 $110 forward single #
loop $-1 $111 $112 $44 #
cone-surface $-1 25.914013406290508 26.260169661932576 4.6465125400244318 0 -0.78801076186113728 -0.61566146476048833 2 0 0 1 I I 0 1 2 forward I I I I #
face $-1 $113 $114 $27 $-1 $115 reversed single #
loop $-1 $-1 $116 $45 #
plane-surface $-1 0 0 -10.112329777702509 0 0 1 1 0 0 forward_v I I I I #
coedge $-1 $117 $118 $119 $120 forward $46 $-1 #
face $-1 $121 $122 $28 $-1 $123 reversed single #
loop $-1 $-1 $124 $48 #
plane-surface $-1 -47.482207445317044 0 7.9186760622910519 -1 0 0 0 0 1 forward_v I I I I #
coedge $-1 $125 $126 $127 $128 forward $49 $-1 #
face $-1 $129 $130 $29 $-1 $131 reversed single #
loop $-1 $-1 $132 $51 #
plane-surface $-1 -22.556420857100093 -31.244173596535489 0.68177824737583137 0 -0.62932039886446345 0.77714595512881146 1 0 0 forward_v I I I I #
coedge $-1 $133 $134 $135 $136 reversed $52 $-1 #
face $-1 $-1 $137 $30 $-1 $138 forward single #
loop $-1 $139 $140 $54 #
cone-surface $-1 -30.290282410670521 -20.038713808703395 -1.2498776896938395 0 0.62932039886446345 -0.77714595512881146 1.25 0 0 1 I I -0.70710678118654746 0.70710678118654746 1.25 forward I I I I #
loop $-1 $-1 $141 $39 #
coedge $-1 $88 $88 $142 $143 reversed $55 $-1 #
face $-1 $-1 $144 $31 $-1 $145 forward single #
loop $-1 $146 $147 $57 #
cone-surface $-1 -22.556420857100086 -20.038713808703395 -1.2498776896938395 0 0.62932039886446345 -0.77714595512881146 1.25 0 0 1 I I -0.70710678118654746 0.70710678118654746 1.25 forward I I I I #
loop $-1 $-1 $148 $40 #
coedge $-1 $93 $93 $149 $150 reversed $58 $-1 #
face $-1 $-1 $151 $32 $-1 $152 forward single #
loop $-1 $153 $154 $60 #
cone-surface $-1 -14.822559303529651 -20.038713808703395 -1.2498776896938395 0 0.62932039886446345 -0.77714595512881146 1.25 0 0 1 I I -0.70710678118654746 0.70710678118654746 1.25 forward I I I I #
loop $-1 $-1 $155 $41 #
coedge $-1 $98 $98 $156 $157 reversed $61 $-1 #
face $-1 $158 $159 $33 $-1 $160 reversed single #
loop $-1 $-1 $161 $63 #
plane-surface $-1 21.50869445680847 -7.2274937668125574 51.284437186441664 0 0.78801076186113728 0.61566146476048833 1 0 0 forward_v I I I I #
coedge $-1 $162 $163 $164 $165 reversed $64 $-1 #
face $-1 $-1 $166 $34 $-1 $167 forward single #
loop $-1 $168 $169 $66 #
cone-surface $-1 17.103375507326447 23.640401225904164 2.5997251727438204 0 -0.78801076186113728 -0.61566146476048833 1 0 0 1 I I -0.70710678118654746 0.70710678118654746 1 forward I I I I #
loop $-1 $-1 $170 $43 #
coedge $-1 $107 $107 $171 $172 reversed $67 $-1 #
face $-1 $-1 $173 $35 $-1 $174 forward single #
loop $-1 $175 $176 $69 #
cone-surface $-1 25.914013406290508 23.640401225904164 2.5997251727438204 0 -0.78801076186113728 -0.61566146476048833 1 0 0 1 I I -0.70710678118654746 0.70710678118654746 1 forward I I I I #
loop $-1 $-1 $177 $44 #
coedge $-1 $112 $112 $178 $179 reversed $70 $-1 #
face $-1 $180 $181 $27 $-1 $182 reversed single #
loop $-1 $-1 $183 $72 #
plane-surface $-1 0 -31.244173596535482 0 0 1 0 0 0 1 forward_v I I I I #
coedge $-1 $184 $185 $186 $187 forward $73 $-1 #
coedge $-1 $188 $75 $189 $190 forward $46 $-1 #
coedge $-1 $75 $188 $191 $192 forward $46 $-1 #
coedge $-1 $193 $194 $75 $120 reversed $195 $-1 #
edge $-1 $196 -31.244173596535482 $197 31.244173596535482 $119 $198 forward 7 unknown #
face $-1 $199 $200 $28 $-1 $201 reversed single #
loop $-1 $-1 $202 $76 #
plane-surface $-1 0 31.244173596535482 0 0 -1 0 0 0 -1 forward_v I I I I #
coedge $-1 $127 $203 $204 $205 reversed $77 $-1 #
coedge $-1 $206 $79 $207 $208 reversed $49 $-1 #
coedge $-1 $79 $206 $209 $210 reversed $49 $-1 #
coedge $-1 $211 $124 $79 $128 reversed $77 $-1 #
edge $-1 $212 -31.244173596535482 $213 31.244173596535482 $127 $214 forward 7 unknown #
face $-1 $215 $216 $29 $-1 $217 reversed single #
loop $-1 $-1 $218 $80 #
plane-surface $-1 -35.446190113050818 -103.72117188099389 90.183415502861322 1 0 0 0 0.62932039886446345 -0.77714595512881146 forward_v I I I I #
coedge $-1 $219 $220 $221 $222 reversed $81 $-1 #
coedge $-1 $134 $83 $223 $224 reversed $52 $-1 #
coedge $-1 $83 $133 $219 $225 reversed $52 $-1 #
coedge $-1 $221 $226 $83 $136 forward $227 $-1 #
edge $-1 $228 20.616412343961464 $229 32.262173373877836 $135 $230 forward 7 unknown #
loop $-1 $-1 $142 $84 #
plane-surface $-1 -22.556420857100093 -31.244173596535489 0.68177824737583137 0 -0.62932039886446345 0.77714595512881146 1 0 0 forward_v I I I I #
loop $-1 $-1 $231 $54 #
coedge $-1 $140 $140 $141 $232 reversed $85 $-1 #
coedge $-1 $141 $141 $140 $232 forward $87 $-1 #
coedge $-1 $142 $142 $88 $143 forward $137 $-1 #
edge $-1 $233 1.9656598171391728e-016 $233 6.2831853071796004 $142 $234 forward 7 unknown #
loop $-1 $-1 $149 $89 #
plane-surface $-1 -22.556420857100093 -31.244173596535489 0.68177824737583137 0 -0.62932039886446345 0.77714595512881146 1 0 0 forward_v I I I I #
loop $-1 $-1 $235 $57 #
coedge $-1 $147 $147 $148 $236 reversed $90 $-1 #
coedge $-1 $148 $148 $147 $236 forward $92 $-1 #
coedge $-1 $149 $149 $93 $150 forward $144 $-1 #
edge $-1 $237 1.9656598171391728e-016 $237 6.2831853071796004 $149 $238 forward 7 unknown #
loop $-1 $-1 $156 $94 #
plane-surface $-1 -22.556420857100093 -31.244173596535489 0.68177824737583137 0 -0.62932039886446345 0.77714595512881146 1 0 0 forward_v I I I I #
loop $-1 $-1 $239 $60 #
coedge $-1 $154 $154 $155 $240 reversed $95 $-1 #
coedge $-1 $155 $155 $154 $240 forward $97 $-1 #
coedge $-1 $156 $156 $98 $157 forward $151 $-1 #
edge $-1 $241 1.9656598171391728e-016 $241 6.2831853071796004 $156 $242 forward 7 unknown #
face $-1 $243 $244 $33 $-1 $245 forward single #
loop $-1 $-1 $246 $99 #
plane-surface $-1 31.787772005599876 83.525411650837412 122.18837579349631 -1 0 0 0 0.78801076186113728 0.61566146476048833 forward_v I I I I #
coedge $-1 $247 $248 $249 $250 reversed $100 $-1 #
coedge $-1 $163 $102 $251 $252 reversed $64 $-1 #
coedge $-1 $102 $162 $247 $253 reversed $64 $-1 #
coedge $-1 $249 $254 $102 $165 forward $244 $-1 #
edge $-1 $255 10.518532228883224 $256 16.823024749754531 $164 $257 forward 7 unknown #
loop $-1 $-1 $171 $103 #
plane-surface $-1 21.50869445680847 -7.2274937668125574 51.284437186441664 0 0.78801076186113728 0.61566146476048833 1 0 0 forward_v I I I I #
loop $-1 $-1 $258 $66 #
coedge $-1 $169 $169 $170 $259 reversed $104 $-1 #
coedge $-1 $170 $170 $169 $259 forward $106 $-1 #
coedge $-1 $171 $171 $107 $172 forward $166 $-1 #
edge $-1 $260 -6.5570221450552126e-016 $260 6.2831853071795996 $171 $261 forward 7 unknown #
loop $-1 $-1 $178 $108 #
plane-surface $-1 21.50869445680847 -7.2274937668125574 51.284437186441664 0 0.78801076186113728 0.61566146476048833 1 0 0 forward_v I I I I #
loop $-1 $-1 $262 $69 #
coedge $-1 $176 $176 $177 $263 reversed $109 $-1 #
coedge $-1 $177 $177 $176 $263 forward $111 $-1 #
coedge $-1 $178 $178 $112 $179 forward $173 $-1 #
edge $-1 $264 -6.5570221450552126e-016 $264 6.2831853071795996 $178 $265 forward 7 unknown #
face $-1 $266 $267 $27 $-1 $268 reversed single #
loop $-1 $-1 $269 $113 #
plane-surface $-1 -57.58354441969054 0 0 1 0 0 0 0 -1 forward_v I I I I #
coedge $-1 $270 $191 $271 $272 forward $114 $-1 #
coedge $-1 $273 $116 $270 $274 forward $73 $-1 #
coedge $-1 $116 $273 $275 $276 forward $73 $-1 #
coedge $-1 $194 $193 $116 $187 reversed $195 $-1 #
edge $-1 $277 -31.244173596535482 $278 31.244173596535482 $186 $279 forward 7 unknown #
coedge $-1 $118 $117 $280 $281 forward $46 $-1 #
coedge $-1 $282 $283 $117 $190 reversed $267 $-1 #
edge $-1 $197 -57.58354441969054 $284 57.58354441969054 $189 $285 forward 7 unknown #
coedge $-1 $183 $286 $118 $192 reversed $114 $-1 #
edge $-1 $287 -57.58354441969054 $196 57.58354441969054 $191 $288 forward 7 unknown #
coedge $-1 $186 $119 $286 $289 forward $195 $-1 #
coedge $-1 $119 $186 $282 $290 reversed $195 $-1 #
loop $-1 $-1 $193 $266 #
vertex $-1 $120 $291 #
vertex $-1 $120 $292 #
straight-curve $-1 57.58354441969054 0 10.112329777702509 0 1 0 I I #
face $-1 $293 $294 $28 $-1 $295 forward single #
loop $-1 $-1 $296 $121 #
plane-surface $-1 -57.58354441969054 0 0 1 0 0 0 0 -1 forward_v I I I I #
coedge $-1 $209 $297 $211 $298 forward $122 $-1 #
coedge $-1 $124 $211 $299 $300 reversed $77 $-1 #
coedge $-1 $301 $207 $124 $205 forward $302 $-1 #
edge $-1 $213 1.7656843157340685 $303 6.1529917465569834 $204 $304 forward 7 unknown #
coedge $-1 $126 $125 $296 $305 reversed $49 $-1 #
coedge $-1 $204 $306 $125 $208 forward $302 $-1 #
edge $-1 $307 -31.317106453438644 $213 -21.215769479065148 $207 $308 forward 7 unknown #
coedge $-1 $309 $202 $126 $210 forward $122 $-1 #
edge $-1 $212 21.215769479065148 $310 31.317106453438644 $209 $311 forward 7 unknown #
coedge $-1 $203 $127 $202 $298 reversed $77 $-1 #
vertex $-1 $210 $312 #
vertex $-1 $208 $313 #
straight-curve $-1 -47.482207445317044 0 5.7250223468795944 0 -1 0 I I #
face $-1 $-1 $227 $29 $-1 $314 forward single #
loop $-1 $-1 $315 $129 #
plane-surface $-1 0 -31.244173596535482 0 0 1 0 0 0 1 forward_v I I I I #
coedge $-1 $316 $317 $318 $319 reversed $130 $-1 #
coedge $-1 $320 $132 $134 $225 forward $81 $-1 #
coedge $-1 $132 $320 $316 $321 forward $81 $-1 #
coedge $-1 $318 $135 $132 $222 forward $227 $-1 #
edge $-1 $229 -1.6115588274006747 $322 24.167979684500771 $221 $323 forward 7 unknown #
coedge $-1 $324 $325 $133 $224 forward $216 $-1 #
edge $-1 $326 -44.409929504054823 $228 -34.979377973728148 $223 $327 forward 7 unknown #
edge $-1 $229 -14.985294529373316 $326 -9.1551213131864128e-015 $134 $328 forward 7 unknown #
coedge $-1 $135 $318 $324 $329 forward $227 $-1 #
loop $-1 $-1 $318 $215 #
vertex $-1 $224 $330 #
vertex $-1 $136 $331 #
straight-curve $-1 -9.6666516011493719 -51.860585940496946 10.112329777702513 0 1 0 I I #
coedge $-1 $231 $231 $-1 $332 reversed $139 $-1 #
edge $-1 $333 0 $333 6.2831853071796004 $140 $334 forward 7 unknown #
vertex $-1 $143 $335 #
ellipse-curve $-1 -30.290282410670521 -25.421293081577293 5.3970540125391766 0 -0.62932039886446345 0.77714595512881146 2.5 0 0 1 I I #
coedge $-1 $235 $235 $-1 $336 reversed $146 $-1 #
edge $-1 $337 0 $337 6.2831853071796004 $147 $338 forward 7 unknown #
vertex $-1 $150 $339 #
ellipse-curve $-1 -22.556420857100086 -25.421293081577293 5.3970540125391766 0 -0.62932039886446345 0.77714595512881146 2.5 0 0 1 I I #
coedge $-1 $239 $239 $-1 $340 reversed $153 $-1 #
edge $-1 $341 0 $341 6.2831853071796004 $154 $342 forward 7 unknown #
vertex $-1 $157 $343 #
ellipse-curve $-1 -14.822559303529651 -25.421293081577293 5.3970540125391766 0 -0.62932039886446345 0.77714595512881146 2.5 0 0 1 I I #
face $-1 $-1 $344 $33 $-1 $345 reversed single #
loop $-1 $-1 $164 $158 #
plane-surface $-1 0 0 10.112329777702509 0 0 1 1 0 0 forward_v I I I I #
coedge $-1 $346 $347 $348 $349 reversed $159 $-1 #
coedge $-1 $350 $161 $163 $253 forward $100 $-1 #
coedge $-1 $161 $350 $346 $351 forward $100 $-1 #
coedge $-1 $348 $164 $161 $250 forward $244 $-1 #
edge $-1 $256 0.47526967961282907 $352 21.033424777195641 $249 $353 forward 7 unknown #
coedge $-1 $354 $355 $162 $252 forward $344 $-1 #
edge $-1 $356 -59.051240789361628 $255 -50.98185811904564 $251 $357 forward 7 unknown #
edge $-1 $256 52.248153707315069 $356 62.488347193071007 $163 $358 forward 7 unknown #
coedge $-1 $164 $348 $354 $359 forward $244 $-1 #
vertex $-1 $252 $360 #
vertex $-1 $165 $361 #
straight-curve $-1 11.229616908017064 41.762705825418706 10.112329777702513 0 -1 0 I I #
coedge $-1 $258 $258 $-1 $362 reversed $168 $-1 #
edge $-1 $363 0 $363 6.2831853071796004 $169 $364 forward 7 unknown #
vertex $-1 $172 $365 #
ellipse-curve $-1 17.103375507326447 28.091927336099818 6.0776384425445293 0 0.78801076186113728 0.61566146476048833 2 0 0 1 I I #
coedge $-1 $262 $262 $-1 $366 reversed $175 $-1 #
edge $-1 $367 0 $367 6.2831853071796004 $176 $368 forward 7 unknown #
vertex $-1 $179 $369 #
ellipse-curve $-1 25.914013406290508 28.091927336099818 6.0776384425445293 0 0.78801076186113728 0.61566146476048833 2 0 0 1 I I #
face $-1 $-1 $195 $27 $-1 $370 reversed single #
loop $-1 $-1 $282 $180 #
plane-surface $-1 0 31.244173596535482 0 0 -1 0 0 0 -1 forward_v I I I I #
coedge $-1 $371 $280 $283 $372 forward $181 $-1 #
coedge $-1 $286 $183 $184 $274 reversed $114 $-1 #
coedge $-1 $280 $371 $183 $272 reversed $181 $-1 #
edge $-1 $287 -10.112329777702509 $373 10.112329777702509 $271 $374 forward 7 unknown #
coedge $-1 $185 $184 $371 $375 forward $73 $-1 #
edge $-1 $278 -57.58354441969054 $373 57.58354441969054 $270 $376 forward 7 unknown #
coedge $-1 $283 $282 $185 $276 reversed $267 $-1 #
edge $-1 $377 -57.58354441969054 $277 57.58354441969054 $275 $378 forward 7 unknown #
vertex $-1 $187 $379 #
vertex $-1 $289 $380 #
straight-curve $-1 57.58354441969054 0 -10.112329777702509 0 -1 0 I I #
coedge $-1 $269 $271 $188 $281 reversed $181 $-1 #
edge $-1 $284 -31.244173596535482 $287 31.244173596535482 $280 $381 forward 7 unknown #
coedge $-1 $275 $189 $194 $290 forward $267 $-1 #
coedge $-1 $189 $275 $269 $372 reversed $267 $-1 #
vertex $-1 $190 $382 #
straight-curve $-1 0 31.244173596535482 10.112329777702509 -1 0 0 I I #
coedge $-1 $191 $270 $193 $289 reversed $114 $-1 #
vertex $-1 $281 $383 #
straight-curve $-1 0 -31.244173596535482 10.112329777702509 1 0 0 I I #
edge $-1 $196 -10.112329777702509 $278 10.112329777702509 $193 $384 forward 7 unknown #
edge $-1 $197 -10.112329777702509 $277 10.112329777702509 $194 $385 forward 7 unknown #
point $-1 57.58354441969054 -31.244173596535482 10.112329777702509 #
point $-1 57.58354441969054 31.244173596535482 10.112329777702509 #
face $-1 $-1 $302 $28 $-1 $386 reversed single #
loop $-1 $-1 $299 $199 #
plane-surface $-1 0 0 10.112329777702509 0 0 1 1 0 0 forward_v I I I I #
coedge $-1 $387 $388 $206 $305 forward $200 $-1 #
coedge $-1 $202 $309 $389 $390 reversed $122 $-1 #
edge $-1 $391 -6.1529917465569834 $212 -1.7656843157340685 $202 $392 forward 7 unknown #
coedge $-1 $389 $393 $203 $300 forward $294 $-1 #
edge $-1 $303 -31.244173596535482 $391 31.244173596535482 $299 $394 forward 7 unknown #
coedge $-1 $306 $204 $393 $395 reversed $302 $-1 #
loop $-1 $-1 $204 $293 #
vertex $-1 $205 $396 #
straight-curve $-1 -47.482207445317044 -31.244173596535482 3.959338031145526 0 0 1 I I #
edge $-1 $310 -31.244173596535482 $307 31.244173596535482 $296 $397 forward 7 unknown #
coedge $-1 $207 $301 $387 $398 forward $302 $-1 #
vertex $-1 $305 $399 #
straight-curve $-1 -26.266437966251896 -31.244173596535482 5.7250223468795944 1 0 0 I I #
coedge $-1 $297 $209 $388 $400 reversed $122 $-1 #
vertex $-1 $305 $401 #
straight-curve $-1 -26.266437966251896 31.244173596535482 5.7250223468795944 -1 0 0 I I #
point $-1 -47.482207445317044 31.244173596535482 5.7250223468795944 #
point $-1 -47.482207445317044 -31.244173596535482 5.7250223468795944 #
plane-surface $-1 0 0 10.112329777702509 0 0 1 1 0 0 forward_v I I I I #
coedge $-1 $325 $324 $317 $402 forward $216 $-1 #
coedge $-1 $317 $218 $220 $321 reversed $130 $-1 #
coedge $-1 $218 $316 $315 $402 reversed $130 $-1 #
coedge $-1 $226 $221 $218 $319 forward $227 $-1 #
edge $-1 $322 -32.262173373877836 $403 -20.616412343961464 $318 $404 forward 7 unknown #
coedge $-1 $220 $219 $325 $405 reversed $81 $-1 #
edge $-1 $406 9.1551213131864128e-015 $322 14.985294529373316 $316 $407 forward 7 unknown #
vertex $-1 $222 $408 #
straight-curve $-1 -11.278210428550047 -19.59841256661911 10.112329777702509 -1 0 0 I I #
coedge $-1 $315 $223 $226 $329 reversed $216 $-1 #
coedge $-1 $223 $315 $320 $405 forward $216 $-1 #
vertex $-1 $224 $409 #
straight-curve $-1 -9.6666516011493719 -31.244173596535482 45.091707751430661 0 0 1 I I #
straight-curve $-1 -9.6666516011493719 -31.244173596535489 0.68177824737583137 0 -0.77714595512881146 -0.62932039886446345 I I #
edge $-1 $403 -35.446190113050818 $228 -9.6666516011493719 $324 $410 forward 7 unknown #
point $-1 -9.6666516011493719 -31.244173596535482 10.112329777702509 #
point $-1 -9.6666516011493719 -19.59841256661911 10.112329777702509 #
edge $-1 $411 1 $411 0 $231 $-1 forward 7 unknown #
vertex $-1 $232 $412 #
ellipse-curve $-1 -30.290282410670521 -20.825364307283976 -0.27844524578282515 0 -0.62932039886446345 0.77714595512881146 2.5 0 0 1 I I #
point $-1 -27.790282410670521 -25.421293081577286 5.3970540125391686 #
edge $-1 $413 1 $413 0 $235 $-1 forward 7 unknown #
vertex $-1 $236 $414 #
ellipse-curve $-1 -22.556420857100086 -20.825364307283976 -0.27844524578282515 0 -0.62932039886446345 0.77714595512881146 2.5 0 0 1 I I #
point $-1 -20.056420857100086 -25.421293081577286 5.3970540125391686 #
edge $-1 $415 1 $415 0 $239 $-1 forward 7 unknown #
vertex $-1 $240 $416 #
ellipse-curve $-1 -14.822559303529651 -20.825364307283976 -0.27844524578282515 0 -0.62932039886446345 0.77714595512881146 2.5 0 0 1 I I #
point $-1 -12.322559303529651 -25.421293081577286 5.3970540125391686 #
loop $-1 $-1 $251 $243 #
plane-surface $-1 0 31.244173596535482 0 0 -1 0 0 0 -1 forward_v I I I I #
coedge $-1 $347 $246 $248 $351 reversed $159 $-1 #
coedge $-1 $246 $346 $417 $418 reversed $159 $-1 #
coedge $-1 $254 $249 $246 $349 forward $244 $-1 #
edge $-1 $352 -16.823024749754531 $419 -10.518532228883224 $348 $420 forward 7 unknown #
coedge $-1 $248 $247 $355 $421 reversed $100 $-1 #
edge $-1 $422 -62.488347193071007 $352 -52.248153707315069 $346 $423 forward 7 unknown #
vertex $-1 $250 $424 #
straight-curve $-1 10.754347228404235 24.939681075664179 10.112329777702509 1 0 0 I I #
coedge $-1 $417 $251 $254 $359 reversed $344 $-1 #
coedge $-1 $251 $417 $350 $421 forward $344 $-1 #
vertex $-1 $252 $425 #
straight-curve $-1 11.229616908017064 31.244173596535482 61.094187896748153 0 0 1 I I #
straight-curve $-1 11.229616908017064 -7.2274937668125574 51.284437186441664 0 0.61566146476048833 -0.78801076186113728 I I #
edge $-1 $419 -31.787772005599876 $255 -11.229616908017064 $354 $426 forward 7 unknown #
point $-1 11.229616908017064 31.244173596535482 10.112329777702509 #
point $-1 11.229616908017064 24.939681075664176 10.112329777702513 #
edge $-1 $427 1 $427 0 $258 $-1 forward 7 unknown #
vertex $-1 $259 $428 #
ellipse-curve $-1 17.103375507326447 24.428411987765301 3.2153866375043085 0 0.78801076186113728 0.61566146476048833 2 0 0 1 I I #
point $-1 19.103375507326447 28.09192733609985 6.077638442544556 #
edge $-1 $429 1 $429 0 $262 $-1 forward 7 unknown #
vertex $-1 $263 $430 #
ellipse-curve $-1 25.914013406290508 24.428411987765301 3.2153866375043085 0 0.78801076186113728 0.61566146476048833 2 0 0 1 I I #
point $-1 27.914013406290508 28.09192733609985 6.077638442544556 #
plane-surface $-1 57.58354441969054 0 0 -1 0 0 0 0 1 forward_v I I I I #
coedge $-1 $271 $269 $273 $375 reversed $181 $-1 #
edge $-1 $284 -10.112329777702509 $377 10.112329777702509 $283 $431 forward 7 unknown #
vertex $-1 $375 $432 #
straight-curve $-1 -57.58354441969054 -31.244173596535482 0 0 0 -1 I I #
edge $-1 $373 -31.244173596535482 $377 31.244173596535482 $371 $433 forward 7 unknown #
straight-curve $-1 0 -31.244173596535482 -10.112329777702509 -1 0 0 I I #
vertex $-1 $276 $434 #
straight-curve $-1 0 31.244173596535482 -10.112329777702509 1 0 0 I I #
point $-1 57.58354441969054 31.244173596535482 -10.112329777702509 #
point $-1 57.58354441969054 -31.244173596535482 -10.112329777702509 #
straight-curve $-1 -57.58354441969054 0 10.112329777702509 0 -1 0 I I #
point $-1 -57.58354441969054 31.244173596535482 10.112329777702509 #
point $-1 -57.58354441969054 -31.244173596535482 10.112329777702509 #
straight-curve $-1 57.58354441969054 -31.244173596535482 0 0 0 -1 I I #
straight-curve $-1 57.58354441969054 31.244173596535482 0 0 0 -1 I I #
plane-surface $-1 0 -31.244173596535482 0 0 1 0 0 0 1 forward_v I I I I #
coedge $-1 $435 $296 $306 $398 reversed $200 $-1 #
coedge $-1 $296 $435 $309 $400 forward $200 $-1 #
coedge $-1 $436 $299 $297 $390 forward $294 $-1 #
edge $-1 $391 47.482207445317044 $437 57.58354441969054 $297 $438 forward 7 unknown #
vertex $-1 $390 $439 #
straight-curve $-1 -47.482207445317044 31.244173596535482 3.959338031145526 0 0 -1 I I #
coedge $-1 $299 $436 $301 $395 forward $294 $-1 #
straight-curve $-1 -47.482207445317044 0 10.112329777702509 0 1 0 I I #
edge $-1 $440 -57.58354441969054 $303 -47.482207445317044 $301 $441 forward 7 unknown #
point $-1 -47.482207445317044 -31.244173596535482 10.112329777702509 #
straight-curve $-1 -57.58354441969054 0 5.7250223468795944 0 -1 0 I I #
edge $-1 $440 -10.112329777702509 $307 -5.7250223468795944 $387 $442 forward 7 unknown #
point $-1 -57.58354441969054 -31.244173596535482 5.7250223468795944 #
edge $-1 $437 -10.112329777702509 $310 -5.7250223468795944 $309 $443 forward 7 unknown #
point $-1 -57.58354441969054 31.244173596535482 5.7250223468795944 #
edge $-1 $403 34.979377973728148 $406 44.409929504054823 $315 $444 forward 7 unknown #
vertex $-1 $329 $445 #
straight-curve $-1 -35.446190113050818 -51.860585940496946 10.112329777702513 0 -1 0 I I #
edge $-1 $406 -24.167979684500771 $326 1.6115588274006747 $325 $446 forward 7 unknown #
vertex $-1 $405 $447 #
straight-curve $-1 -35.446190113050818 -31.244173596535489 0.68177824737583137 0 0.77714595512881146 0.62932039886446345 I I #
point $-1 -35.446190113050818 -19.59841256661911 10.112329777702509 #
point $-1 -9.6666516011493719 -31.244173596535482 0.68177824737583714 #
straight-curve $-1 0 -31.244173596535482 10.112329777702509 1 0 0 I I #
vertex $-1 $332 $448 #
point $-1 -27.790282410670521 -20.825364307283976 -0.27844524578282515 #
vertex $-1 $336 $449 #
point $-1 -20.056420857100086 -20.825364307283976 -0.27844524578282515 #
vertex $-1 $340 $450 #
point $-1 -12.322559303529651 -20.825364307283976 -0.27844524578282515 #
coedge $-1 $355 $354 $347 $418 forward $344 $-1 #
edge $-1 $419 50.98185811904564 $422 59.051240789361628 $417 $451 forward 7 unknown #
vertex $-1 $359 $452 #
straight-curve $-1 31.787772005599876 41.762705825418706 10.112329777702513 0 1 0 I I #
edge $-1 $422 -21.033424777195641 $356 -0.47526967961282907 $355 $453 forward 7 unknown #
vertex $-1 $421 $454 #
straight-curve $-1 31.787772005599876 -7.2274937668125574 51.284437186441664 0 -0.61566146476048833 0.78801076186113728 I I #
point $-1 31.787772005599876 24.939681075664176 10.112329777702513 #
point $-1 11.229616908017064 31.244173596535482 2.0429471073865244 #
straight-curve $-1 0 31.244173596535482 10.112329777702509 -1 0 0 I I #
vertex $-1 $362 $455 #
point $-1 19.103375507326447 24.428411987765301 3.2153866375043085 #
vertex $-1 $366 $456 #
point $-1 27.914013406290508 24.428411987765301 3.2153866375043085 #
straight-curve $-1 -57.58354441969054 31.244173596535482 0 0 0 -1 I I #
point $-1 -57.58354441969054 -31.244173596535482 -10.112329777702509 #
straight-curve $-1 -57.58354441969054 0 -10.112329777702509 0 1 0 I I #
point $-1 -57.58354441969054 31.244173596535482 -10.112329777702509 #
coedge $-1 $388 $387 $436 $457 reversed $200 $-1 #
coedge $-1 $393 $389 $435 $457 forward $294 $-1 #
vertex $-1 $390 $458 #
straight-curve $-1 0 31.244173596535482 10.112329777702509 -1 0 0 I I #
point $-1 -47.482207445317044 31.244173596535482 10.112329777702509 #
vertex $-1 $457 $459 #
straight-curve $-1 0 -31.244173596535482 10.112329777702509 1 0 0 I I #
straight-curve $-1 -57.58354441969054 -31.244173596535482 0 0 0 -1 I I #
straight-curve $-1 -57.58354441969054 31.244173596535482 0 0 0 -1 I I #
straight-curve $-1 -35.446190113050818 -31.244173596535482 45.091707751430661 0 0 -1 I I #
point $-1 -35.446190113050818 -31.244173596535482 10.112329777702509 #
straight-curve $-1 -11.278210428550047 -31.244173596535482 0.68177824737583648 1 0 0 I I #
point $-1 -35.446190113050818 -31.244173596535482 0.68177824737583714 #
point $-1 -30.290282410670521 -19.252063310122814 -2.2213101336048537 #
point $-1 -22.556420857100086 -19.252063310122814 -2.2213101336048537 #
point $-1 -14.822559303529651 -19.252063310122814 -2.2213101336048537 #
straight-curve $-1 31.787772005599876 31.244173596535482 61.094187896748153 0 0 -1 I I #
point $-1 31.787772005599876 31.244173596535482 10.112329777702509 #
straight-curve $-1 10.754347228404235 31.244173596535482 2.042947107386528 -1 0 0 I I #
point $-1 31.787772005599876 31.244173596535482 2.0429471073865244 #
point $-1 17.103375507326447 22.852390464043026 1.9840637079833321 #
point $-1 25.914013406290508 22.852390464043026 1.9840637079833321 #
edge $-1 $437 -31.244173596535482 $440 31.244173596535482 $435 $460 forward 7 unknown #
point $-1 -57.58354441969054 31.244173596535482 10.112329777702509 #
point $-1 -57.58354441969054 -31.244173596535482 10.112329777702509 #
straight-curve $-1 -57.58354441969054 0 10.112329777702509 0 -1 0 I I #
End-of-ACIS-data 