500 0 8 0           
7 Unknown 11 ACIS 5.0 NT 24 Fri Mar 26 20:32:03 1999 
-1 9.9999999999999995e-007 1e-010 
body $-1 $8 $-1 $9 #
body $-1 $10 $-1 $11 #
body $-1 $12 $-1 $13 #
body $-1 $14 $-1 $15 #
body $-1 $16 $-1 $17 #
body $-1 $18 $-1 $19 #
body $-1 $20 $-1 $21 #
body $-1 $22 $-1 $23 #
lump $-1 $-1 $24 $0 #
transform $-1 1 0 0 0 1 0 0 0 1 70.852992339854126 47.96561837457137 10.160507740650651 1 rotate no_reflect no_shear #
lump $-1 $-1 $25 $1 #
transform $-1 1 0 0 0 1 0 0 0 1 70.852992339854126 47.96561837457137 10.160507740650651 1 rotate no_reflect no_shear #
lump $-1 $-1 $26 $2 #
transform $-1 1 0 0 0 1 0 0 0 1 70.852992339854126 47.96561837457137 10.160507740650651 1 rotate no_reflect no_shear #
lump $-1 $-1 $27 $3 #
transform $-1 1 0 0 0 1 0 0 0 1 70.852992339854126 47.96561837457137 10.160507740650651 1 rotate no_reflect no_shear #
lump $-1 $-1 $28 $4 #
transform $-1 1 0 0 0 1 0 0 0 1 70.852992339854126 47.96561837457137 10.160507740650651 1 rotate no_reflect no_shear #
lump $-1 $-1 $29 $5 #
transform $-1 1 0 0 0 1 0 0 0 1 70.852992339854126 47.96561837457137 10.160507740650651 1 rotate no_reflect no_shear #
lump $-1 $-1 $30 $6 #
transform $-1 1 0 0 0 1 0 0 0 1 70.852992339854126 47.96561837457137 10.160507740650651 1 rotate no_reflect no_shear #
lump $-1 $-1 $31 $7 #
transform $-1 1 0 0 0 1 0 0 0 1 70.852992339854126 47.96561837457137 10.160507740650651 1 rotate no_reflect no_shear #
shell $-1 $-1 $-1 $32 $-1 $8 #
shell $-1 $-1 $-1 $33 $-1 $10 #
shell $-1 $-1 $-1 $34 $-1 $12 #
shell $-1 $-1 $-1 $35 $-1 $14 #
shell $-1 $-1 $-1 $36 $-1 $16 #
shell $-1 $-1 $-1 $37 $-1 $18 #
shell $-1 $-1 $-1 $38 $-1 $20 #
shell $-1 $-1 $-1 $39 $-1 $22 #
face $-1 $40 $41 $24 $-1 $42 forward single #
face $-1 $43 $44 $25 $-1 $45 forward single #
face $-1 $46 $47 $26 $-1 $48 reversed single #
face $-1 $49 $50 $27 $-1 $51 forward single #
face $-1 $52 $53 $28 $-1 $54 forward single #
face $-1 $55 $56 $29 $-1 $57 reversed single #
face $-1 $58 $59 $30 $-1 $60 forward single #
face $-1 $61 $62 $31 $-1 $63 forward single #
face $-1 $64 $65 $24 $-1 $66 reversed single #
loop $-1 $-1 $67 $32 #
plane-surface $-1 0 0 10.160507740650651 0 0 1 1 0 0 forward_v I I I I #
face $-1 $68 $69 $25 $-1 $70 reversed single #
loop $-1 $-1 $71 $33 #
plane-surface $-1 0 -43.955810134961553 -6.4395671361931264 0 0 1 1 0 0 forward_v I I I I #
face $-1 $72 $73 $26 $-1 $74 reversed single #
loop $-1 $-1 $75 $34 #
plane-surface $-1 -49.168984233427537 106.22120423002556 166.21204482165393 1 0 0 0 -0.80901700255871778 -0.5877852410284794 forward_v I I I I #
face $-1 $76 $77 $27 $-1 $78 forward single #
loop $-1 $79 $80 $35 #
cone-surface $-1 -44.396850521106032 44.784030461074202 6.7037474294824531 0 -0.80901700255871778 -0.5877852410284794 1 0 0 1 I I 0 1 1 forward I I I I #
face $-1 $81 $82 $28 $-1 $83 forward single #
loop $-1 $84 $85 $36 #
cone-surface $-1 -37.238649952623788 44.784030461074202 6.7037474294824531 0 -0.80901700255871778 -0.5877852410284794 1 0 0 1 I I 0 1 1 forward I I I I #
face $-1 $86 $87 $29 $-1 $88 reversed single #
loop $-1 $-1 $89 $37 #
plane-surface $-1 32.466516240302283 106.22120423002556 166.21204482165393 1 0 0 0 -0.80901700255871778 -0.5877852410284794 forward_v I I I I #
face $-1 $90 $91 $30 $-1 $92 forward single #
loop $-1 $93 $94 $38 #
cone-surface $-1 37.238649952623788 44.784030461074202 6.7037474294824531 0 -0.80901700255871778 -0.5877852410284794 1 0 0 1 I I 0 1 1 forward I I I I #
face $-1 $95 $96 $31 $-1 $97 forward single #
loop $-1 $98 $99 $39 #
cone-surface $-1 44.396850521106032 44.784030461074202 6.7037474294824531 0 -0.80901700255871778 -0.5877852410284794 1 0 0 1 I I 0 1 1 forward I I I I #
face $-1 $100 $101 $24 $-1 $102 reversed single #
loop $-1 $-1 $103 $40 #
plane-surface $-1 0 0 -10.160507740650651 0 0 1 1 0 0 forward_v I I I I #
coedge $-1 $104 $105 $106 $107 forward $41 $-1 #
face $-1 $108 $109 $25 $-1 $110 reversed single #
loop $-1 $-1 $111 $43 #
plane-surface $-1 0 -39.946001895351728 -8.3000374384218887 0 -1 0 0 0 -1 forward_v I I I I #
coedge $-1 $112 $113 $114 $115 reversed $44 $-1 #
face $-1 $116 $117 $26 $-1 $118 reversed single #
loop $-1 $-1 $119 $46 #
plane-surface $-1 -40.81775023686491 -8.4213467401835942 82.91935846151361 0 0.80901700255871778 0.5877852410284794 1 0 0 forward_v I I I I #
coedge $-1 $120 $121 $122 $123 reversed $47 $-1 #
face $-1 $-1 $124 $27 $-1 $125 forward single #
loop $-1 $126 $127 $49 #
cone-surface $-1 -44.396850521106032 42.960217708807939 5.3786699406396465 0 -0.80901700255871778 -0.5877852410284794 0.5 0 0 1 I I -0.70710678118654746 0.70710678118654746 0.5 forward I I I I #
loop $-1 $-1 $128 $35 #
coedge $-1 $80 $80 $129 $130 reversed $50 $-1 #
face $-1 $-1 $131 $28 $-1 $132 forward single #
loop $-1 $133 $134 $52 #
cone-surface $-1 -37.238649952623788 42.960217708807939 5.3786699406396465 0 -0.80901700255871778 -0.5877852410284794 0.5 0 0 1 I I -0.70710678118654746 0.70710678118654746 0.5 forward I I I I #
loop $-1 $-1 $135 $36 #
coedge $-1 $85 $85 $136 $137 reversed $53 $-1 #
face $-1 $138 $139 $29 $-1 $140 reversed single #
loop $-1 $-1 $141 $55 #
plane-surface $-1 40.81775023686491 -8.4213467401835942 82.91935846151361 0 0.80901700255871778 0.5877852410284794 1 0 0 forward_v I I I I #
coedge $-1 $142 $143 $144 $145 reversed $56 $-1 #
face $-1 $-1 $146 $30 $-1 $147 forward single #
loop $-1 $148 $149 $58 #
cone-surface $-1 37.238649952623788 42.960217708807939 5.3786699406396465 0 -0.80901700255871778 -0.5877852410284794 0.5 0 0 1 I I -0.70710678118654746 0.70710678118654746 0.5 forward I I I I #
loop $-1 $-1 $150 $38 #
coedge $-1 $94 $94 $151 $152 reversed $59 $-1 #
face $-1 $-1 $153 $31 $-1 $154 forward single #
loop $-1 $155 $156 $61 #
cone-surface $-1 44.396850521106032 42.960217708807939 5.3786699406396465 0 -0.80901700255871778 -0.5877852410284794 0.5 0 0 1 I I -0.70710678118654746 0.70710678118654746 0.5 forward I I I I #
loop $-1 $-1 $157 $39 #
coedge $-1 $99 $99 $158 $159 reversed $62 $-1 #
face $-1 $160 $161 $24 $-1 $162 reversed single #
loop $-1 $-1 $163 $64 #
plane-surface $-1 0 -47.96561837457137 0 0 1 0 0 0 1 forward_v I I I I #
coedge $-1 $164 $165 $166 $167 forward $65 $-1 #
coedge $-1 $168 $67 $169 $170 forward $41 $-1 #
coedge $-1 $67 $168 $171 $172 forward $41 $-1 #
coedge $-1 $173 $174 $67 $107 reversed $175 $-1 #
edge $-1 $176 -47.96561837457137 $177 47.96561837457137 $106 $178 forward 7 unknown #
face $-1 $179 $180 $25 $-1 $181 reversed single #
loop $-1 $-1 $182 $68 #
plane-surface $-1 0 0 -10.160507740650651 0 0 1 1 0 0 forward_v I I I I #
coedge $-1 $183 $184 $185 $186 reversed $69 $-1 #
coedge $-1 $187 $71 $184 $188 forward $44 $-1 #
coedge $-1 $71 $187 $189 $190 reversed $44 $-1 #
coedge $-1 $191 $185 $71 $115 forward $180 $-1 #
edge $-1 $192 17.968096827870951 $193 25.987713307090601 $114 $194 forward 7 unknown #
face $-1 $195 $196 $26 $-1 $197 reversed single #
loop $-1 $-1 $198 $72 #
plane-surface $-1 -32.466516240302283 106.22120423002556 166.21204482165393 -1 0 0 0 0.80901700255871778 0.5877852410284794 forward_v I I I I #
coedge $-1 $199 $200 $201 $202 reversed $73 $-1 #
coedge $-1 $121 $75 $203 $204 reversed $47 $-1 #
coedge $-1 $75 $120 $199 $205 reversed $47 $-1 #
coedge $-1 $201 $206 $75 $123 forward $207 $-1 #
edge $-1 $208 5.1449837404414112 $209 8.6695510654618815 $122 $210 forward 7 unknown #
loop $-1 $-1 $129 $76 #
plane-surface $-1 -40.81775023686491 -8.4213467401835942 82.91935846151361 0 0.80901700255871778 0.5877852410284794 1 0 0 forward_v I I I I #
loop $-1 $-1 $211 $49 #
coedge $-1 $127 $127 $128 $212 reversed $77 $-1 #
coedge $-1 $128 $128 $127 $212 forward $79 $-1 #
coedge $-1 $129 $129 $80 $130 forward $124 $-1 #
edge $-1 $213 -1.3465943781637119e-015 $213 6.2831853071795987 $129 $214 forward 7 unknown #
loop $-1 $-1 $136 $81 #
plane-surface $-1 -40.81775023686491 -8.4213467401835942 82.91935846151361 0 0.80901700255871778 0.5877852410284794 1 0 0 forward_v I I I I #
loop $-1 $-1 $215 $52 #
coedge $-1 $134 $134 $135 $216 reversed $82 $-1 #
coedge $-1 $135 $135 $134 $216 forward $84 $-1 #
coedge $-1 $136 $136 $85 $137 forward $131 $-1 #
edge $-1 $217 -1.3465943781637119e-015 $217 6.2831853071795987 $136 $218 forward 7 unknown #
face $-1 $219 $220 $29 $-1 $221 forward single #
loop $-1 $-1 $222 $86 #
plane-surface $-1 49.168984233427537 106.22120423002556 166.21204482165393 -1 0 0 0 0.80901700255871778 0.5877852410284794 forward_v I I I I #
coedge $-1 $223 $224 $225 $226 reversed $87 $-1 #
coedge $-1 $143 $89 $227 $228 reversed $56 $-1 #
coedge $-1 $89 $142 $223 $229 reversed $56 $-1 #
coedge $-1 $225 $230 $89 $145 forward $220 $-1 #
edge $-1 $231 5.1449837404414112 $232 8.6695510654618815 $144 $233 forward 7 unknown #
loop $-1 $-1 $151 $90 #
plane-surface $-1 40.81775023686491 -8.4213467401835942 82.91935846151361 0 0.80901700255871778 0.5877852410284794 1 0 0 forward_v I I I I #
loop $-1 $-1 $234 $58 #
coedge $-1 $149 $149 $150 $235 reversed $91 $-1 #
coedge $-1 $150 $150 $149 $235 forward $93 $-1 #
coedge $-1 $151 $151 $94 $152 forward $146 $-1 #
edge $-1 $236 -1.3465943781637119e-015 $236 6.2831853071795987 $151 $237 forward 7 unknown #
loop $-1 $-1 $158 $95 #
plane-surface $-1 40.81775023686491 -8.4213467401835942 82.91935846151361 0 0.80901700255871778 0.5877852410284794 1 0 0 forward_v I I I I #
loop $-1 $-1 $238 $61 #
coedge $-1 $156 $156 $157 $239 reversed $96 $-1 #
coedge $-1 $157 $157 $156 $239 forward $98 $-1 #
coedge $-1 $158 $158 $99 $159 forward $153 $-1 #
edge $-1 $240 -1.3465943781637119e-015 $240 6.2831853071795987 $158 $241 forward 7 unknown #
face $-1 $242 $243 $24 $-1 $244 reversed single #
loop $-1 $-1 $245 $100 #
plane-surface $-1 -70.852992339854126 0 0 1 0 0 0 0 -1 forward_v I I I I #
coedge $-1 $246 $171 $247 $248 forward $101 $-1 #
coedge $-1 $249 $103 $246 $250 forward $65 $-1 #
coedge $-1 $103 $249 $251 $252 forward $65 $-1 #
coedge $-1 $174 $173 $103 $167 reversed $175 $-1 #
edge $-1 $253 -47.96561837457137 $254 47.96561837457137 $166 $255 forward 7 unknown #
coedge $-1 $105 $104 $256 $257 forward $41 $-1 #
coedge $-1 $258 $259 $104 $170 reversed $243 $-1 #
edge $-1 $177 -70.852992339854126 $260 70.852992339854126 $169 $261 forward 7 unknown #
coedge $-1 $163 $262 $105 $172 reversed $101 $-1 #
edge $-1 $263 -70.852992339854126 $176 70.852992339854126 $171 $264 forward 7 unknown #
coedge $-1 $166 $106 $262 $265 forward $175 $-1 #
coedge $-1 $106 $166 $258 $266 reversed $175 $-1 #
loop $-1 $-1 $173 $242 #
vertex $-1 $107 $267 #
vertex $-1 $107 $268 #
straight-curve $-1 70.852992339854126 0 10.160507740650651 0 1 0 I I #
face $-1 $269 $270 $25 $-1 $271 reversed single #
loop $-1 $-1 $185 $108 #
plane-surface $-1 70.852992339854126 0 0 -1 0 0 0 0 1 forward_v I I I I #
coedge $-1 $272 $273 $183 $274 forward $109 $-1 #
coedge $-1 $275 $111 $182 $274 reversed $69 $-1 #
coedge $-1 $111 $275 $112 $188 reversed $69 $-1 #
coedge $-1 $114 $276 $111 $186 forward $180 $-1 #
edge $-1 $277 -6.0104890214397066 $192 -2.289548416982182 $185 $278 forward 7 unknown #
coedge $-1 $113 $112 $279 $280 reversed $44 $-1 #
edge $-1 $192 -70.852992339854126 $281 70.852992339854126 $184 $282 forward 7 unknown #
coedge $-1 $283 $284 $113 $190 forward $270 $-1 #
edge $-1 $193 -70.852992339854126 $285 70.852992339854126 $189 $286 forward 7 unknown #
coedge $-1 $276 $114 $284 $287 forward $180 $-1 #
vertex $-1 $115 $288 #
vertex $-1 $287 $289 #
straight-curve $-1 70.852992339854126 -21.977905067480776 -6.4395671361931264 0 -1 0 I I #
face $-1 $-1 $207 $26 $-1 $290 forward single #
loop $-1 $-1 $291 $116 #
plane-surface $-1 0 47.96561837457137 0 0 -1 0 0 0 -1 forward_v I I I I #
coedge $-1 $292 $293 $294 $295 reversed $117 $-1 #
coedge $-1 $296 $119 $121 $205 forward $73 $-1 #
coedge $-1 $119 $296 $292 $297 forward $73 $-1 #
coedge $-1 $294 $122 $119 $202 forward $207 $-1 #
edge $-1 $209 -28.760109114995082 $298 -12.057641121869828 $201 $299 forward 7 unknown #
coedge $-1 $300 $301 $120 $204 forward $196 $-1 #
edge $-1 $302 -77.796665555855498 $208 -72.945514670176323 $203 $303 forward 7 unknown #
edge $-1 $209 89.934884545992205 $302 95.931236749142698 $121 $304 forward 7 unknown #
coedge $-1 $122 $294 $300 $305 forward $207 $-1 #
loop $-1 $-1 $294 $195 #
vertex $-1 $204 $306 #
vertex $-1 $123 $307 #
straight-curve $-1 -49.168984233427537 53.110602115012782 10.160507740650644 0 -1 0 I I #
coedge $-1 $211 $211 $-1 $308 reversed $126 $-1 #
edge $-1 $309 0 $309 6.2831853071796004 $127 $310 forward 7 unknown #
vertex $-1 $130 $311 #
ellipse-curve $-1 -44.396850521106032 46.20333471206115 7.7349322978110484 0 0.80901700255871778 0.5877852410284794 1 0 0 1 I I #
coedge $-1 $215 $215 $-1 $312 reversed $133 $-1 #
edge $-1 $313 0 $313 6.2831853071796004 $134 $314 forward 7 unknown #
vertex $-1 $137 $315 #
ellipse-curve $-1 -37.238649952623788 46.20333471206115 7.7349322978110484 0 0.80901700255871778 0.5877852410284794 1 0 0 1 I I #
face $-1 $-1 $316 $29 $-1 $317 reversed single #
loop $-1 $-1 $144 $138 #
plane-surface $-1 0 0 10.160507740650651 0 0 1 1 0 0 forward_v I I I I #
coedge $-1 $318 $319 $320 $321 reversed $139 $-1 #
coedge $-1 $322 $141 $143 $229 forward $87 $-1 #
coedge $-1 $141 $322 $318 $323 forward $87 $-1 #
coedge $-1 $320 $144 $141 $226 forward $220 $-1 #
edge $-1 $232 12.057641121869828 $324 28.760109114995082 $225 $325 forward 7 unknown #
coedge $-1 $326 $327 $142 $228 forward $316 $-1 #
edge $-1 $328 -77.796665555855498 $231 -72.945514670176323 $227 $329 forward 7 unknown #
edge $-1 $232 89.934884545992205 $328 95.931236749142698 $143 $330 forward 7 unknown #
coedge $-1 $144 $320 $326 $331 forward $220 $-1 #
vertex $-1 $145 $332 #
vertex $-1 $145 $333 #
straight-curve $-1 32.466516240302283 53.110602115012782 10.160507740650644 0 -1 0 I I #
coedge $-1 $234 $234 $-1 $334 reversed $148 $-1 #
edge $-1 $335 0 $335 6.2831853071796004 $149 $336 forward 7 unknown #
vertex $-1 $152 $337 #
ellipse-curve $-1 37.238649952623788 46.20333471206115 7.7349322978110484 0 0.80901700255871778 0.5877852410284794 1 0 0 1 I I #
coedge $-1 $238 $238 $-1 $338 reversed $155 $-1 #
edge $-1 $339 0 $339 6.2831853071796004 $156 $340 forward 7 unknown #
vertex $-1 $159 $341 #
ellipse-curve $-1 44.396850521106032 46.20333471206115 7.7349322978110484 0 0.80901700255871778 0.5877852410284794 1 0 0 1 I I #
face $-1 $-1 $175 $24 $-1 $342 reversed single #
loop $-1 $-1 $258 $160 #
plane-surface $-1 0 47.96561837457137 0 0 -1 0 0 0 -1 forward_v I I I I #
coedge $-1 $343 $256 $259 $344 forward $161 $-1 #
coedge $-1 $262 $163 $164 $250 reversed $101 $-1 #
coedge $-1 $256 $343 $163 $248 reversed $161 $-1 #
edge $-1 $263 -10.160507740650651 $345 10.160507740650651 $247 $346 forward 7 unknown #
coedge $-1 $165 $164 $343 $347 forward $65 $-1 #
edge $-1 $254 -70.852992339854126 $345 70.852992339854126 $246 $348 forward 7 unknown #
coedge $-1 $259 $258 $165 $252 reversed $243 $-1 #
edge $-1 $349 -70.852992339854126 $253 70.852992339854126 $251 $350 forward 7 unknown #
vertex $-1 $167 $351 #
vertex $-1 $265 $352 #
straight-curve $-1 70.852992339854126 0 -10.160507740650651 0 -1 0 I I #
coedge $-1 $245 $247 $168 $257 reversed $161 $-1 #
edge $-1 $260 -47.96561837457137 $263 47.96561837457137 $256 $353 forward 7 unknown #
coedge $-1 $251 $169 $174 $266 forward $243 $-1 #
coedge $-1 $169 $251 $245 $344 reversed $243 $-1 #
vertex $-1 $170 $354 #
straight-curve $-1 0 47.96561837457137 10.160507740650651 -1 0 0 I I #
coedge $-1 $171 $246 $173 $265 reversed $101 $-1 #
vertex $-1 $257 $355 #
straight-curve $-1 0 -47.96561837457137 10.160507740650651 1 0 0 I I #
edge $-1 $176 -10.160507740650651 $254 10.160507740650651 $173 $356 forward 7 unknown #
edge $-1 $177 -10.160507740650651 $253 10.160507740650651 $174 $357 forward 7 unknown #
point $-1 70.852992339854126 -47.96561837457137 10.160507740650651 #
point $-1 70.852992339854126 47.96561837457137 10.160507740650651 #
face $-1 $-1 $358 $25 $-1 $359 reversed single #
loop $-1 $-1 $189 $179 #
plane-surface $-1 0 -47.96561837457137 0 0 1 0 0 0 1 forward_v I I I I #
coedge $-1 $360 $182 $276 $361 forward $109 $-1 #
coedge $-1 $182 $360 $362 $363 forward $109 $-1 #
edge $-1 $364 -70.852992339854126 $277 70.852992339854126 $182 $365 forward 7 unknown #
coedge $-1 $184 $183 $366 $367 reversed $69 $-1 #
coedge $-1 $185 $191 $272 $361 reversed $180 $-1 #
vertex $-1 $361 $368 #
straight-curve $-1 70.852992339854126 -39.946001895351728 -4.1500187192109443 0 0 1 I I #
coedge $-1 $366 $369 $187 $280 forward $358 $-1 #
edge $-1 $285 -25.987713307090601 $281 -17.968096827870951 $279 $370 forward 7 unknown #
vertex $-1 $280 $371 #
straight-curve $-1 0 -39.946001895351728 -6.4395671361931264 -1 0 0 I I #
coedge $-1 $372 $189 $369 $373 forward $270 $-1 #
coedge $-1 $189 $372 $191 $287 reversed $270 $-1 #
vertex $-1 $373 $374 #
straight-curve $-1 0 -47.96561837457137 -6.4395671361931264 -1 0 0 I I #
edge $-1 $193 6.4395671361931264 $375 10.160507740650651 $191 $376 forward 7 unknown #
point $-1 70.852992339854126 -39.946001895351728 -6.4395671361931264 #
point $-1 70.852992339854126 -47.965618374571378 -6.4395671361931264 #
plane-surface $-1 0 0 10.160507740650651 0 0 1 1 0 0 forward_v I I I I #
coedge $-1 $301 $300 $293 $377 forward $196 $-1 #
coedge $-1 $293 $198 $200 $297 reversed $117 $-1 #
coedge $-1 $198 $292 $291 $377 reversed $117 $-1 #
coedge $-1 $206 $201 $198 $295 forward $207 $-1 #
edge $-1 $298 -8.6695510654618815 $378 -5.1449837404414112 $294 $379 forward 7 unknown #
coedge $-1 $200 $199 $301 $380 reversed $73 $-1 #
edge $-1 $381 -95.931236749142698 $298 -89.934884545992205 $292 $382 forward 7 unknown #
vertex $-1 $202 $383 #
straight-curve $-1 -20.408875118432455 44.4410510495509 10.160507740650651 1 0 0 I I #
coedge $-1 $291 $203 $206 $305 reversed $196 $-1 #
coedge $-1 $203 $291 $296 $380 forward $196 $-1 #
vertex $-1 $204 $384 #
straight-curve $-1 -49.168984233427537 47.96561837457137 83.106022410826967 0 0 1 I I #
straight-curve $-1 -49.168984233427537 -8.4213467401835942 82.91935846151361 0 0.5877852410284794 -0.80901700255871778 I I #
edge $-1 $378 32.466516240302283 $208 49.168984233427537 $300 $385 forward 7 unknown #
point $-1 -49.168984233427537 47.96561837457137 10.160507740650651 #
point $-1 -49.168984233427537 44.4410510495509 10.160507740650644 #
edge $-1 $386 1 $386 0 $211 $-1 forward 7 unknown #
vertex $-1 $212 $387 #
ellipse-curve $-1 -44.396850521106032 43.364726210087298 5.6725625611538861 0 0.80901700255871778 0.5877852410284794 1 0 0 1 I I #
point $-1 -43.396850521106032 46.203334712061107 7.7349322978110191 #
edge $-1 $388 1 $388 0 $215 $-1 forward 7 unknown #
vertex $-1 $216 $389 #
ellipse-curve $-1 -37.238649952623788 43.364726210087298 5.6725625611538861 0 0.80901700255871778 0.5877852410284794 1 0 0 1 I I #
point $-1 -36.238649952623788 46.203334712061107 7.7349322978110191 #
loop $-1 $-1 $227 $219 #
plane-surface $-1 0 47.96561837457137 0 0 -1 0 0 0 -1 forward_v I I I I #
coedge $-1 $319 $222 $224 $323 reversed $139 $-1 #
coedge $-1 $222 $318 $390 $391 reversed $139 $-1 #
coedge $-1 $230 $225 $222 $321 forward $220 $-1 #
edge $-1 $324 -8.6695510654618815 $392 -5.1449837404414112 $320 $393 forward 7 unknown #
coedge $-1 $224 $223 $327 $394 reversed $87 $-1 #
edge $-1 $395 -95.931236749142698 $324 -89.934884545992205 $318 $396 forward 7 unknown #
vertex $-1 $226 $397 #
straight-curve $-1 20.408875118432455 44.4410510495509 10.160507740650651 1 0 0 I I #
coedge $-1 $390 $227 $230 $331 reversed $316 $-1 #
coedge $-1 $227 $390 $322 $394 forward $316 $-1 #
vertex $-1 $228 $398 #
straight-curve $-1 32.466516240302283 47.96561837457137 83.106022410826967 0 0 1 I I #
straight-curve $-1 32.466516240302283 -8.4213467401835942 82.91935846151361 0 0.5877852410284794 -0.80901700255871778 I I #
edge $-1 $392 -49.168984233427537 $231 -32.466516240302283 $326 $399 forward 7 unknown #
point $-1 32.466516240302283 47.96561837457137 10.160507740650651 #
point $-1 32.466516240302283 44.4410510495509 10.160507740650644 #
edge $-1 $400 1 $400 0 $234 $-1 forward 7 unknown #
vertex $-1 $235 $401 #
ellipse-curve $-1 37.238649952623788 43.364726210087298 5.6725625611538861 0 0.80901700255871778 0.5877852410284794 1 0 0 1 I I #
point $-1 38.238649952623788 46.203334712061107 7.7349322978110191 #
edge $-1 $402 1 $402 0 $238 $-1 forward 7 unknown #
vertex $-1 $239 $403 #
ellipse-curve $-1 44.396850521106032 43.364726210087298 5.6725625611538861 0 0.80901700255871778 0.5877852410284794 1 0 0 1 I I #
point $-1 45.396850521106032 46.203334712061107 7.7349322978110191 #
plane-surface $-1 70.852992339854126 0 0 -1 0 0 0 0 1 forward_v I I I I #
coedge $-1 $247 $245 $249 $347 reversed $161 $-1 #
edge $-1 $260 -10.160507740650651 $349 10.160507740650651 $259 $404 forward 7 unknown #
vertex $-1 $347 $405 #
straight-curve $-1 -70.852992339854126 -47.96561837457137 0 0 0 -1 I I #
edge $-1 $345 -47.96561837457137 $349 47.96561837457137 $343 $406 forward 7 unknown #
straight-curve $-1 0 -47.96561837457137 -10.160507740650651 -1 0 0 I I #
vertex $-1 $252 $407 #
straight-curve $-1 0 47.96561837457137 -10.160507740650651 1 0 0 I I #
point $-1 70.852992339854126 47.96561837457137 -10.160507740650651 #
point $-1 70.852992339854126 -47.96561837457137 -10.160507740650651 #
straight-curve $-1 -70.852992339854126 0 10.160507740650651 0 -1 0 I I #
point $-1 -70.852992339854126 47.96561837457137 10.160507740650651 #
point $-1 -70.852992339854126 -47.96561837457137 10.160507740650651 #
straight-curve $-1 70.852992339854126 -47.96561837457137 0 0 0 -1 I I #
straight-curve $-1 70.852992339854126 47.96561837457137 0 0 0 -1 I I #
loop $-1 $-1 $366 $269 #
plane-surface $-1 -70.852992339854126 0 0 1 0 0 0 0 -1 forward_v I I I I #
coedge $-1 $273 $272 $372 $408 forward $109 $-1 #
edge $-1 $277 39.946001895351728 $375 47.96561837457137 $276 $409 forward 7 unknown #
coedge $-1 $369 $366 $273 $363 reversed $358 $-1 #
edge $-1 $410 -47.96561837457137 $364 -39.946001895351728 $362 $411 forward 7 unknown #
vertex $-1 $367 $412 #
straight-curve $-1 0 -39.946001895351728 -10.160507740650651 1 0 0 I I #
coedge $-1 $362 $279 $275 $367 forward $358 $-1 #
edge $-1 $281 2.289548416982182 $364 6.0104890214397066 $366 $413 forward 7 unknown #
point $-1 70.852992339854126 -39.946001895351728 -10.160507740650651 #
coedge $-1 $279 $362 $283 $373 reversed $358 $-1 #
straight-curve $-1 -70.852992339854126 -21.977905067480776 -6.4395671361931264 0 1 0 I I #
point $-1 -70.852992339854126 -39.946001895351728 -6.4395671361931264 #
coedge $-1 $284 $283 $360 $408 reversed $270 $-1 #
edge $-1 $285 6.4395671361931264 $410 10.160507740650651 $369 $414 forward 7 unknown #
point $-1 -70.852992339854126 -47.965618374571378 -6.4395671361931264 #
vertex $-1 $287 $415 #
straight-curve $-1 70.852992339854126 -47.96561837457137 0 0 0 -1 I I #
edge $-1 $378 72.945514670176323 $381 77.796665555855498 $291 $416 forward 7 unknown #
vertex $-1 $305 $417 #
straight-curve $-1 -32.466516240302283 53.110602115012782 10.160507740650644 0 1 0 I I #
edge $-1 $381 12.057641121869828 $302 28.760109114995082 $301 $418 forward 7 unknown #
vertex $-1 $380 $419 #
straight-curve $-1 -32.466516240302283 -8.4213467401835942 82.91935846151361 0 -0.5877852410284794 0.80901700255871778 I I #
point $-1 -32.466516240302283 44.4410510495509 10.160507740650644 #
point $-1 -49.168984233427537 47.96561837457137 5.3093568549714689 #
straight-curve $-1 0 47.96561837457137 10.160507740650651 -1 0 0 I I #
vertex $-1 $308 $420 #
point $-1 -43.396850521106032 43.364726210087298 5.6725625611538861 #
vertex $-1 $312 $421 #
point $-1 -36.238649952623788 43.364726210087298 5.6725625611538861 #
coedge $-1 $327 $326 $319 $391 forward $316 $-1 #
edge $-1 $392 72.945514670176323 $395 77.796665555855498 $390 $422 forward 7 unknown #
vertex $-1 $331 $423 #
straight-curve $-1 49.168984233427537 53.110602115012782 10.160507740650644 0 1 0 I I #
edge $-1 $395 -28.760109114995082 $328 -12.057641121869828 $327 $424 forward 7 unknown #
vertex $-1 $394 $425 #
straight-curve $-1 49.168984233427537 -8.4213467401835942 82.91935846151361 0 -0.5877852410284794 0.80901700255871778 I I #
point $-1 49.168984233427537 44.4410510495509 10.160507740650644 #
point $-1 32.466516240302283 47.96561837457137 5.3093568549714689 #
straight-curve $-1 0 47.96561837457137 10.160507740650651 -1 0 0 I I #
vertex $-1 $334 $426 #
point $-1 38.238649952623788 43.364726210087298 5.6725625611538861 #
vertex $-1 $338 $427 #
point $-1 45.396850521106032 43.364726210087298 5.6725625611538861 #
straight-curve $-1 -70.852992339854126 47.96561837457137 0 0 0 -1 I I #
point $-1 -70.852992339854126 -47.96561837457137 -10.160507740650651 #
straight-curve $-1 -70.852992339854126 0 -10.160507740650651 0 1 0 I I #
point $-1 -70.852992339854126 47.96561837457137 -10.160507740650651 #
edge $-1 $375 -70.852992339854126 $410 70.852992339854126 $372 $428 forward 7 unknown #
straight-curve $-1 70.852992339854126 0 -10.160507740650651 0 -1 0 I I #
vertex $-1 $363 $429 #
straight-curve $-1 -70.852992339854126 0 -10.160507740650651 0 1 0 I I #
point $-1 -70.852992339854126 -39.946001895351728 -10.160507740650651 #
straight-curve $-1 -70.852992339854126 -39.946001895351728 -4.1500187192109443 0 0 -1 I I #
straight-curve $-1 -70.852992339854126 -47.96561837457137 0 0 0 -1 I I #
point $-1 70.852992339854126 -47.96561837457137 -10.160507740650651 #
straight-curve $-1 -32.466516240302283 47.96561837457137 83.106022410826967 0 0 -1 I I #
point $-1 -32.466516240302283 47.96561837457137 10.160507740650651 #
straight-curve $-1 -20.408875118432455 47.96561837457137 5.3093568549714689 -1 0 0 I I #
point $-1 -32.466516240302283 47.96561837457137 5.3093568549714689 #
point $-1 -44.396850521106032 42.555709207528579 5.084777320125407 #
point $-1 -37.238649952623788 42.555709207528579 5.084777320125407 #
straight-curve $-1 49.168984233427537 47.96561837457137 83.106022410826967 0 0 -1 I I #
point $-1 49.168984233427537 47.96561837457137 10.160507740650651 #
straight-curve $-1 20.408875118432455 47.96561837457137 5.3093568549714689 -1 0 0 I I #
point $-1 49.168984233427537 47.96561837457137 5.3093568549714689 #
point $-1 37.238649952623788 42.555709207528579 5.084777320125407 #
point $-1 44.396850521106032 42.555709207528579 5.084777320125407 #
straight-curve $-1 0 -47.96561837457137 -10.160507740650651 -1 0 0 I I #
point $-1 -70.852992339854126 -47.96561837457137 -10.160507740650651 #
End-of-ACIS-data 