500 0 7 0           
7 Unknown 11 ACIS 5.0 NT 24 Thu Mar 25 15:13:44 1999 
-1 9.9999999999999995e-007 1e-010 
body $-1 $7 $-1 $8 #
body $-1 $9 $-1 $10 #
body $-1 $11 $-1 $12 #
body $-1 $13 $-1 $14 #
body $-1 $15 $-1 $16 #
body $-1 $17 $-1 $18 #
body $-1 $19 $-1 $20 #
lump $-1 $-1 $21 $0 #
transform $-1 1 0 0 0 1 0 0 0 1 52.035279396954252 21.58446955886906 5.2941136935842383 1 rotate no_reflect no_shear #
lump $-1 $-1 $22 $1 #
transform $-1 1 0 0 0 1 0 0 0 1 52.035279396954252 21.58446955886906 5.2941136935842383 1 rotate no_reflect no_shear #
lump $-1 $-1 $23 $2 #
transform $-1 1 0 0 0 1 0 0 0 1 52.035279396954252 21.58446955886906 5.2941136935842383 1 rotate no_reflect no_shear #
lump $-1 $-1 $24 $3 #
transform $-1 1 0 0 0 1 0 0 0 1 52.035279396954252 21.58446955886906 5.2941136935842383 1 rotate no_reflect no_shear #
lump $-1 $-1 $25 $4 #
transform $-1 1 0 0 0 1 0 0 0 1 52.035279396954252 21.58446955886906 5.2941136935842383 1 rotate no_reflect no_shear #
lump $-1 $-1 $26 $5 #
transform $-1 1 0 0 0 1 0 0 0 1 52.035279396954252 21.58446955886906 5.2941136935842383 1 rotate no_reflect no_shear #
lump $-1 $-1 $27 $6 #
transform $-1 1 0 0 0 1 0 0 0 1 52.035279396954252 21.58446955886906 5.2941136935842383 1 rotate no_reflect no_shear #
shell $-1 $-1 $-1 $28 $-1 $7 #
shell $-1 $-1 $-1 $29 $-1 $9 #
shell $-1 $-1 $-1 $30 $-1 $11 #
shell $-1 $-1 $-1 $31 $-1 $13 #
shell $-1 $-1 $-1 $32 $-1 $15 #
shell $-1 $-1 $-1 $33 $-1 $17 #
shell $-1 $-1 $-1 $34 $-1 $19 #
face $-1 $35 $36 $21 $-1 $37 forward single #
face $-1 $38 $39 $22 $-1 $40 reversed single #
face $-1 $41 $42 $23 $-1 $43 reversed single #
face $-1 $44 $45 $24 $-1 $46 reversed single #
face $-1 $47 $48 $25 $-1 $49 forward single #
face $-1 $50 $51 $26 $-1 $52 reversed single #
face $-1 $53 $54 $27 $-1 $55 forward single #
face $-1 $56 $57 $21 $-1 $58 reversed single #
loop $-1 $-1 $59 $28 #
plane-surface $-1 0 0 5.2941136935842383 0 0 1 1 0 0 forward_v I I I I #
face $-1 $60 $61 $22 $-1 $62 reversed single #
loop $-1 $-1 $63 $29 #
plane-surface $-1 0 -19.633258982342831 2.2941136935842383 0 0 1 1 0 0 forward_v I I I I #
face $-1 $64 $65 $23 $-1 $66 reversed single #
loop $-1 $-1 $67 $30 #
plane-surface $-1 0 19.633258982342831 2.2941136935842383 0 0 1 1 0 0 forward_v I I I I #
face $-1 $68 $69 $24 $-1 $70 reversed single #
loop $-1 $-1 $71 $31 #
plane-surface $-1 -52.035279396954266 -12.871737020117759 0.95203582889366345 -0.83867057594974714 0 0.54463902268945019 0.54463902268945019 0 0.83867057594974714 forward_v I I I I #
face $-1 $72 $73 $25 $-1 $74 forward single #
loop $-1 $75 $76 $32 #
cone-surface $-1 -49.924830188635823 -12.871737020117759 2.6681257366095044 0.83867057594974714 0 -0.54463902268945019 0.54463902268945019 0 0.83867057594974714 1 I I 0 1 1 forward I I I I #
face $-1 $77 $78 $26 $-1 $79 reversed single #
loop $-1 $-1 $80 $33 #
plane-surface $-1 82.635307447794219 -8.0614256344189137 144.91383874425222 0 -1 0 -0.83867057594974714 0 -0.54463902268945019 forward_v I I I I #
face $-1 $81 $82 $27 $-1 $83 forward single #
loop $-1 $84 $85 $34 #
cone-surface $-1 49.924830188635823 -12.871737020117759 2.6681257366095008 -0.83867057594974714 0 -0.54463902268945019 0.54463902268945019 0 -0.83867057594974714 1 I I 0 1 1 forward I I I I #
face $-1 $86 $87 $21 $-1 $88 reversed single #
loop $-1 $-1 $89 $35 #
plane-surface $-1 0 0 -5.2941136935842383 0 0 1 1 0 0 forward_v I I I I #
coedge $-1 $90 $91 $92 $93 forward $36 $-1 #
face $-1 $94 $95 $22 $-1 $96 reversed single #
loop $-1 $-1 $97 $38 #
plane-surface $-1 0 -17.682048405816602 3.7941136935842383 0 -1 0 0 0 -1 forward_v I I I I #
coedge $-1 $98 $99 $100 $101 reversed $39 $-1 #
face $-1 $102 $103 $23 $-1 $104 forward single #
loop $-1 $-1 $105 $41 #
plane-surface $-1 0 17.682048405816602 3.7941136935842383 0 1 0 0 0 1 forward_v I I I I #
coedge $-1 $106 $107 $108 $109 reversed $42 $-1 #
face $-1 $110 $111 $24 $-1 $112 reversed single #
loop $-1 $-1 $113 $44 #
plane-surface $-1 -139.31619488005353 -8.0614256344189137 57.63292326115296 0 -1 0 0.83867057594974714 0 -0.54463902268945019 forward_v I I I I #
coedge $-1 $114 $115 $116 $117 reversed $45 $-1 #
face $-1 $-1 $118 $25 $-1 $119 forward single #
loop $-1 $120 $121 $47 #
cone-surface $-1 -48.804934814772082 -12.871737020117759 1.9408572006353371 0.83867057594974714 0 -0.54463902268945019 0.2723195113447251 0 0.41933528797487357 1 I I -0.70710678118654735 0.70710678118654768 0.5 forward I I I I #
loop $-1 $-1 $122 $32 #
coedge $-1 $76 $76 $123 $124 reversed $48 $-1 #
face $-1 $125 $126 $26 $-1 $127 forward single #
loop $-1 $-1 $128 $50 #
plane-surface $-1 -4.6456080353050453 -12.871737020117759 88.23295131199292 0.83867057594974714 0 0.54463902268945019 0.54463902268945019 0 -0.83867057594974714 forward_v I I I I #
coedge $-1 $129 $130 $131 $132 reversed $51 $-1 #
face $-1 $-1 $133 $27 $-1 $134 forward single #
loop $-1 $135 $136 $53 #
cone-surface $-1 48.804934814772082 -12.871737020117759 1.9408572006353335 -0.83867057594974714 0 -0.54463902268945019 0.2723195113447251 0 -0.41933528797487357 1 I I -0.70710678118654735 0.70710678118654768 0.5 forward I I I I #
loop $-1 $-1 $137 $34 #
coedge $-1 $85 $85 $138 $139 reversed $54 $-1 #
face $-1 $140 $141 $21 $-1 $142 reversed single #
loop $-1 $-1 $143 $56 #
plane-surface $-1 0 -21.58446955886906 0 0 1 0 0 0 1 forward_v I I I I #
coedge $-1 $144 $145 $146 $147 forward $57 $-1 #
coedge $-1 $148 $59 $149 $150 forward $36 $-1 #
coedge $-1 $59 $148 $151 $152 forward $36 $-1 #
coedge $-1 $153 $154 $59 $93 reversed $155 $-1 #
edge $-1 $156 -21.58446955886906 $157 21.58446955886906 $92 $158 forward 7 unknown #
face $-1 $159 $160 $22 $-1 $161 reversed single #
loop $-1 $-1 $162 $60 #
plane-surface $-1 -52.035279396954252 0 0 1 0 0 0 0 -1 forward_v I I I I #
coedge $-1 $163 $164 $165 $166 reversed $61 $-1 #
coedge $-1 $167 $63 $168 $169 reversed $39 $-1 #
coedge $-1 $63 $167 $163 $170 forward $39 $-1 #
coedge $-1 $165 $171 $63 $101 forward $172 $-1 #
edge $-1 $173 -11.767840067697644 $174 -7.8654189146451863 $100 $175 forward 7 unknown #
face $-1 $176 $177 $23 $-1 $178 reversed single #
loop $-1 $-1 $179 $64 #
plane-surface $-1 0 0 5.2941136935842383 0 0 1 1 0 0 forward_v I I I I #
coedge $-1 $180 $181 $182 $183 reversed $65 $-1 #
coedge $-1 $184 $67 $180 $185 forward $42 $-1 #
coedge $-1 $67 $184 $186 $187 reversed $42 $-1 #
coedge $-1 $188 $189 $67 $109 forward $177 $-1 #
edge $-1 $190 7.8654189146451863 $191 11.767840067697644 $108 $192 forward 7 unknown #
face $-1 $193 $194 $24 $-1 $195 forward single #
loop $-1 $-1 $196 $68 #
plane-surface $-1 -52.035279396954252 0 0 1 0 0 0 0 -1 forward_v I I I I #
coedge $-1 $197 $198 $199 $200 reversed $69 $-1 #
coedge $-1 $201 $71 $202 $203 reversed $45 $-1 #
coedge $-1 $71 $201 $197 $204 forward $45 $-1 #
coedge $-1 $199 $205 $71 $117 forward $194 $-1 #
edge $-1 $206 -11.246179895757725 $207 -1.625557124360034 $116 $208 forward 7 unknown #
loop $-1 $-1 $123 $72 #
plane-surface $-1 -52.035279396954266 -12.871737020117759 0.95203582889366345 -0.83867057594974714 0 0.54463902268945019 0.54463902268945019 0 0.83867057594974714 forward_v I I I I #
loop $-1 $-1 $209 $47 #
coedge $-1 $121 $121 $122 $210 reversed $73 $-1 #
coedge $-1 $122 $122 $121 $210 forward $75 $-1 #
coedge $-1 $123 $123 $76 $124 forward $118 $-1 #
edge $-1 $211 0 $211 6.2831853071796004 $123 $212 forward 7 unknown #
face $-1 $213 $214 $26 $-1 $215 forward single #
loop $-1 $-1 $131 $77 #
plane-surface $-1 0 0 5.2941136935842383 0 0 1 1 0 0 forward_v I I I I #
coedge $-1 $216 $217 $218 $219 reversed $78 $-1 #
coedge $-1 $130 $80 $220 $221 reversed $51 $-1 #
coedge $-1 $80 $129 $216 $222 reversed $51 $-1 #
coedge $-1 $218 $223 $80 $132 forward $126 $-1 #
edge $-1 $224 -10.717625673057142 $225 -7.8978474281980056 $131 $226 forward 7 unknown #
loop $-1 $-1 $138 $81 #
plane-surface $-1 -4.6456080353050453 -12.871737020117759 88.23295131199292 0.83867057594974714 0 0.54463902268945019 0.54463902268945019 0 -0.83867057594974714 forward_v I I I I #
loop $-1 $-1 $227 $53 #
coedge $-1 $136 $136 $137 $228 reversed $82 $-1 #
coedge $-1 $137 $137 $136 $228 forward $84 $-1 #
coedge $-1 $138 $138 $85 $139 forward $133 $-1 #
edge $-1 $229 0 $229 6.2831853071796004 $138 $230 forward 7 unknown #
face $-1 $231 $232 $21 $-1 $233 reversed single #
loop $-1 $-1 $234 $86 #
plane-surface $-1 -52.035279396954252 0 0 1 0 0 0 0 -1 forward_v I I I I #
coedge $-1 $235 $151 $236 $237 forward $87 $-1 #
coedge $-1 $238 $89 $235 $239 forward $57 $-1 #
coedge $-1 $89 $238 $240 $241 forward $57 $-1 #
coedge $-1 $154 $153 $89 $147 reversed $155 $-1 #
edge $-1 $242 -21.58446955886906 $243 21.58446955886906 $146 $244 forward 7 unknown #
coedge $-1 $91 $90 $245 $246 forward $36 $-1 #
coedge $-1 $247 $248 $90 $150 reversed $232 $-1 #
edge $-1 $157 -52.035279396954252 $249 52.035279396954252 $149 $250 forward 7 unknown #
coedge $-1 $143 $251 $91 $152 reversed $87 $-1 #
edge $-1 $252 -52.035279396954252 $156 52.035279396954252 $151 $253 forward 7 unknown #
coedge $-1 $146 $92 $251 $254 forward $155 $-1 #
coedge $-1 $92 $146 $247 $255 reversed $155 $-1 #
loop $-1 $-1 $153 $231 #
vertex $-1 $93 $256 #
vertex $-1 $93 $257 #
straight-curve $-1 52.035279396954252 0 5.2941136935842383 0 1 0 I I #
face $-1 $258 $259 $22 $-1 $260 forward single #
loop $-1 $-1 $168 $94 #
plane-surface $-1 0 -21.58446955886906 0 0 1 0 0 0 1 forward_v I I I I #
coedge $-1 $261 $262 $263 $264 forward $95 $-1 #
coedge $-1 $263 $97 $99 $170 reversed $61 $-1 #
coedge $-1 $97 $263 $265 $266 reversed $61 $-1 #
coedge $-1 $267 $100 $97 $166 forward $172 $-1 #
edge $-1 $174 0.39705684679211917 $268 3.3970568467921192 $165 $269 forward 7 unknown #
coedge $-1 $99 $98 $261 $270 reversed $39 $-1 #
coedge $-1 $271 $272 $98 $169 forward $160 $-1 #
edge $-1 $273 -52.035279396954252 $173 52.035279396954252 $168 $274 forward 7 unknown #
edge $-1 $275 -52.035279396954252 $174 52.035279396954252 $163 $276 forward 7 unknown #
coedge $-1 $100 $267 $271 $277 forward $172 $-1 #
loop $-1 $-1 $165 $258 #
vertex $-1 $169 $278 #
vertex $-1 $101 $279 #
straight-curve $-1 52.035279396954252 -9.8166294911714154 2.2941136935842383 0 1 0 I I #
face $-1 $280 $281 $23 $-1 $282 reversed single #
loop $-1 $-1 $189 $102 #
plane-surface $-1 52.035279396954252 0 0 -1 0 0 0 0 1 forward_v I I I I #
coedge $-1 $283 $284 $181 $285 forward $103 $-1 #
coedge $-1 $286 $105 $106 $185 reversed $65 $-1 #
coedge $-1 $105 $286 $179 $285 reversed $65 $-1 #
coedge $-1 $287 $288 $105 $183 forward $281 $-1 #
edge $-1 $289 0.39705684679211917 $290 3.3970568467921192 $182 $291 forward 7 unknown #
coedge $-1 $107 $106 $288 $292 reversed $42 $-1 #
edge $-1 $190 -52.035279396954252 $289 52.035279396954252 $180 $293 forward 7 unknown #
coedge $-1 $294 $295 $107 $187 forward $296 $-1 #
edge $-1 $191 -52.035279396954252 $297 52.035279396954252 $186 $298 forward 7 unknown #
coedge $-1 $299 $108 $295 $300 reversed $177 $-1 #
coedge $-1 $108 $299 $286 $301 forward $177 $-1 #
vertex $-1 $109 $302 #
vertex $-1 $187 $303 #
straight-curve $-1 52.035279396954252 9.8166294911714154 2.2941136935842383 0 1 0 I I #
face $-1 $-1 $304 $24 $-1 $305 forward single #
loop $-1 $-1 $199 $110 #
plane-surface $-1 0 0 5.2941136935842383 0 0 1 1 0 0 forward_v I I I I #
coedge $-1 $306 $307 $198 $308 forward $111 $-1 #
coedge $-1 $198 $113 $115 $204 reversed $69 $-1 #
coedge $-1 $113 $197 $196 $308 reversed $69 $-1 #
coedge $-1 $309 $116 $113 $200 forward $194 $-1 #
edge $-1 $207 -20.442596287931622 $310 -17.622818043072513 $199 $311 forward 7 unknown #
coedge $-1 $115 $114 $306 $312 reversed $45 $-1 #
coedge $-1 $313 $314 $114 $203 forward $304 $-1 #
edge $-1 $315 -15.362005397901836 $206 -10.184671186822124 $202 $316 forward 7 unknown #
edge $-1 $317 2.6082680278521875e-014 $207 5.1773342110797387 $197 $318 forward 7 unknown #
coedge $-1 $116 $309 $313 $319 forward $194 $-1 #
vertex $-1 $203 $320 #
vertex $-1 $117 $321 #
straight-curve $-1 -49.215501152095143 -6.4358685100588797 5.2941136935842383 0 1 0 I I #
coedge $-1 $209 $209 $-1 $322 reversed $120 $-1 #
edge $-1 $323 0 $323 6.2831853071796004 $121 $324 forward 7 unknown #
vertex $-1 $124 $325 #
ellipse-curve $-1 -50.625390274524705 -12.871737020117759 3.1230747612389536 -0.83867057594974714 0 0.54463902268945019 0.54463902268945019 0 0.83867057594974714 1 I I #
face $-1 $-1 $326 $26 $-1 $327 reversed single #
loop $-1 $-1 $328 $125 #
plane-surface $-1 0 -17.682048405816602 3.7941136935842383 0 -1 0 0 0 -1 forward_v I I I I #
coedge $-1 $329 $128 $130 $222 forward $78 $-1 #
coedge $-1 $128 $329 $328 $330 forward $78 $-1 #
coedge $-1 $331 $131 $128 $219 forward $126 $-1 #
edge $-1 $225 1.625557124360034 $332 11.246179895757722 $218 $333 forward 7 unknown #
coedge $-1 $334 $335 $129 $221 forward $326 $-1 #
edge $-1 $336 -71.504883543232452 $224 -67.162805678541872 $220 $337 forward 7 unknown #
edge $-1 $225 98.893224582828751 $336 104.0705587939085 $130 $338 forward 7 unknown #
coedge $-1 $131 $331 $334 $339 forward $126 $-1 #
vertex $-1 $221 $340 #
vertex $-1 $132 $341 #
straight-curve $-1 41.317653723897109 -8.0614256344189137 5.2941136935842366 -1 0 0 I I #
coedge $-1 $227 $227 $-1 $342 reversed $135 $-1 #
edge $-1 $343 0 $343 6.2831853071796004 $136 $344 forward 7 unknown #
vertex $-1 $139 $345 #
ellipse-curve $-1 50.625390274524683 -12.871737020117759 3.123074761238938 0.83867057594974714 0 0.54463902268945019 0.54463902268945019 0 -0.83867057594974714 1 I I #
face $-1 $-1 $155 $21 $-1 $346 reversed single #
loop $-1 $-1 $247 $140 #
plane-surface $-1 0 21.58446955886906 0 0 -1 0 0 0 -1 forward_v I I I I #
coedge $-1 $347 $245 $248 $348 forward $141 $-1 #
coedge $-1 $251 $143 $144 $239 reversed $87 $-1 #
coedge $-1 $245 $347 $143 $237 reversed $141 $-1 #
edge $-1 $252 -5.2941136935842383 $349 5.2941136935842383 $236 $350 forward 7 unknown #
coedge $-1 $145 $144 $347 $351 forward $57 $-1 #
edge $-1 $243 -52.035279396954252 $349 52.035279396954252 $235 $352 forward 7 unknown #
coedge $-1 $248 $247 $145 $241 reversed $232 $-1 #
edge $-1 $353 -52.035279396954252 $242 52.035279396954252 $240 $354 forward 7 unknown #
vertex $-1 $147 $355 #
vertex $-1 $254 $356 #
straight-curve $-1 52.035279396954252 0 -5.2941136935842383 0 -1 0 I I #
coedge $-1 $234 $236 $148 $246 reversed $141 $-1 #
edge $-1 $249 -21.58446955886906 $252 21.58446955886906 $245 $357 forward 7 unknown #
coedge $-1 $240 $149 $154 $255 forward $232 $-1 #
coedge $-1 $149 $240 $234 $348 reversed $232 $-1 #
vertex $-1 $150 $358 #
straight-curve $-1 0 21.58446955886906 5.2941136935842383 -1 0 0 I I #
coedge $-1 $151 $235 $153 $254 reversed $87 $-1 #
vertex $-1 $246 $359 #
straight-curve $-1 0 -21.58446955886906 5.2941136935842383 1 0 0 I I #
edge $-1 $156 -5.2941136935842383 $243 5.2941136935842383 $153 $360 forward 7 unknown #
edge $-1 $157 -5.2941136935842383 $242 5.2941136935842383 $154 $361 forward 7 unknown #
point $-1 52.035279396954252 -21.58446955886906 5.2941136935842383 #
point $-1 52.035279396954252 21.58446955886906 5.2941136935842383 #
face $-1 $-1 $172 $22 $-1 $362 reversed single #
loop $-1 $-1 $265 $159 #
plane-surface $-1 0 0 5.2941136935842383 0 0 1 1 0 0 forward_v I I I I #
coedge $-1 $363 $162 $167 $270 forward $95 $-1 #
coedge $-1 $162 $363 $364 $365 reversed $95 $-1 #
coedge $-1 $164 $163 $162 $264 reversed $61 $-1 #
edge $-1 $366 -3.3970568467921192 $275 -0.39705684679211917 $162 $367 forward 7 unknown #
coedge $-1 $364 $368 $164 $266 forward $259 $-1 #
edge $-1 $268 -52.035279396954252 $366 52.035279396954252 $265 $369 forward 7 unknown #
coedge $-1 $171 $165 $368 $370 reversed $172 $-1 #
vertex $-1 $166 $371 #
straight-curve $-1 52.035279396954252 -17.682048405816602 1.8970568467921192 0 0 1 I I #
edge $-1 $275 7.8654189146451863 $273 11.767840067697644 $261 $372 forward 7 unknown #
coedge $-1 $373 $168 $171 $277 reversed $160 $-1 #
coedge $-1 $168 $373 $363 $374 forward $160 $-1 #
vertex $-1 $169 $375 #
straight-curve $-1 0 -21.58446955886906 2.2941136935842383 1 0 0 I I #
vertex $-1 $270 $376 #
straight-curve $-1 0 -17.682048405816602 2.2941136935842383 1 0 0 I I #
edge $-1 $377 -5.2941136935842383 $173 -2.2941136935842383 $171 $378 forward 7 unknown #
point $-1 52.035279396954252 -21.58446955886906 2.2941136935842383 #
point $-1 52.035279396954252 -17.682048405816602 2.2941136935842383 #
face $-1 $-1 $296 $23 $-1 $379 reversed single #
loop $-1 $-1 $182 $176 #
plane-surface $-1 -52.035279396954252 0 0 1 0 0 0 0 -1 forward_v I I I I #
coedge $-1 $380 $179 $299 $381 forward $103 $-1 #
coedge $-1 $179 $380 $287 $382 forward $103 $-1 #
edge $-1 $290 -52.035279396954252 $383 52.035279396954252 $179 $384 forward 7 unknown #
coedge $-1 $181 $180 $189 $301 reversed $65 $-1 #
coedge $-1 $385 $182 $284 $382 reversed $281 $-1 #
coedge $-1 $182 $385 $184 $292 forward $281 $-1 #
vertex $-1 $292 $386 #
vertex $-1 $183 $387 #
straight-curve $-1 -52.035279396954252 17.682048405816602 1.8970568467921192 0 0 1 I I #
edge $-1 $297 -11.767840067697644 $289 -7.8654189146451863 $288 $388 forward 7 unknown #
straight-curve $-1 0 17.682048405816602 2.2941136935842383 -1 0 0 I I #
coedge $-1 $389 $186 $385 $390 reversed $296 $-1 #
coedge $-1 $186 $389 $188 $300 forward $296 $-1 #
loop $-1 $-1 $186 $280 #
vertex $-1 $187 $391 #
straight-curve $-1 0 21.58446955886906 2.2941136935842383 -1 0 0 I I #
coedge $-1 $189 $188 $283 $381 reversed $177 $-1 #
edge $-1 $392 -5.2941136935842383 $191 -2.2941136935842383 $188 $393 forward 7 unknown #
edge $-1 $383 -3.3970568467921192 $190 -0.39705684679211917 $189 $394 forward 7 unknown #
point $-1 52.035279396954252 17.682048405816602 2.2941136935842383 #
point $-1 52.035279396954252 21.58446955886906 2.2941136935842383 #
loop $-1 $-1 $202 $193 #
plane-surface $-1 0 -17.682048405816602 3.7941136935842383 0 -1 0 0 0 -1 forward_v I I I I #
coedge $-1 $395 $196 $201 $312 forward $111 $-1 #
coedge $-1 $196 $395 $309 $396 reversed $111 $-1 #
edge $-1 $310 23.52234793699224 $317 27.864425801682795 $196 $397 forward 7 unknown #
coedge $-1 $205 $199 $307 $396 forward $194 $-1 #
vertex $-1 $396 $398 #
straight-curve $-1 -69.658097440026765 -8.0614256344189137 5.2941136935842401 -1 0 0 I I #
edge $-1 $317 1.625557124360034 $315 11.246179895757725 $306 $399 forward 7 unknown #
coedge $-1 $314 $202 $205 $319 reversed $304 $-1 #
coedge $-1 $202 $313 $395 $400 reversed $304 $-1 #
vertex $-1 $400 $401 #
straight-curve $-1 -43.668531790490938 -17.682048405816602 13.835697743695142 0.54463902268945019 0 0.83867057594974714 I I #
vertex $-1 $312 $402 #
straight-curve $-1 -52.035279396954266 -8.0614256344189137 0.95203582889366345 0.54463902268945019 0 0.83867057594974714 I I #
edge $-1 $403 -52.035279396954252 $206 -49.215501152095143 $205 $404 forward 7 unknown #
point $-1 -49.215501152095143 -17.682048405816605 5.2941136935842383 #
point $-1 -49.215501152095143 -8.0614256344189137 5.2941136935842383 #
edge $-1 $405 1 $405 0 $209 $-1 forward 7 unknown #
vertex $-1 $210 $406 #
ellipse-curve $-1 -49.224270102746956 -12.871737020117759 2.2131767119800623 -0.83867057594974714 0 0.54463902268945019 0.54463902268945019 0 0.83867057594974714 1 I I #
point $-1 -50.080751251835238 -12.871737020117759 3.9617453371886939 #
loop $-1 $-1 $220 $213 #
plane-surface $-1 52.035279396954252 0 0 -1 0 0 0 0 1 forward_v I I I I #
coedge $-1 $407 $408 $217 $330 reversed $214 $-1 #
coedge $-1 $217 $216 $335 $409 reversed $78 $-1 #
edge $-1 $410 -104.0705587939085 $332 -98.893224582828765 $328 $411 forward 7 unknown #
coedge $-1 $223 $218 $408 $412 forward $126 $-1 #
vertex $-1 $412 $413 #
straight-curve $-1 49.215501152095115 -6.4358685100588797 5.2941136935842366 0 -1 0 I I #
coedge $-1 $414 $220 $223 $339 reversed $326 $-1 #
coedge $-1 $220 $414 $329 $409 forward $326 $-1 #
vertex $-1 $221 $415 #
straight-curve $-1 52.035279396954252 -8.0614256344189137 72.456919372126109 0 0 1 I I #
straight-curve $-1 -4.6456080353050453 -8.0614256344189137 88.23295131199292 0.54463902268945019 0 -0.83867057594974714 I I #
edge $-1 $416 -17.682048405816602 $224 -8.0614256344189137 $334 $417 forward 7 unknown #
point $-1 52.035279396954252 -8.0614256344189137 5.2941136935842383 #
point $-1 49.215501152095115 -8.0614256344189137 5.2941136935842366 #
edge $-1 $418 1 $418 0 $227 $-1 forward 7 unknown #
vertex $-1 $228 $419 #
ellipse-curve $-1 49.224270102746956 -12.871737020117759 2.2131767119800587 0.83867057594974714 0 0.54463902268945019 0.54463902268945019 0 -0.83867057594974714 1 I I #
point $-1 51.170029297214143 -12.871737020117759 2.2844041852891959 #
plane-surface $-1 52.035279396954252 0 0 -1 0 0 0 0 1 forward_v I I I I #
coedge $-1 $236 $234 $238 $351 reversed $141 $-1 #
edge $-1 $249 -5.2941136935842383 $353 5.2941136935842383 $248 $420 forward 7 unknown #
vertex $-1 $351 $421 #
straight-curve $-1 -52.035279396954252 -21.58446955886906 0 0 0 -1 I I #
edge $-1 $349 -21.58446955886906 $353 21.58446955886906 $347 $422 forward 7 unknown #
straight-curve $-1 0 -21.58446955886906 -5.2941136935842383 -1 0 0 I I #
vertex $-1 $241 $423 #
straight-curve $-1 0 21.58446955886906 -5.2941136935842383 1 0 0 I I #
point $-1 52.035279396954252 21.58446955886906 -5.2941136935842383 #
point $-1 52.035279396954252 -21.58446955886906 -5.2941136935842383 #
straight-curve $-1 -52.035279396954252 0 5.2941136935842383 0 -1 0 I I #
point $-1 -52.035279396954252 21.58446955886906 5.2941136935842383 #
point $-1 -52.035279396954252 -21.58446955886906 5.2941136935842383 #
straight-curve $-1 52.035279396954252 -21.58446955886906 0 0 0 -1 I I #
straight-curve $-1 52.035279396954252 21.58446955886906 0 0 0 -1 I I #
plane-surface $-1 52.035279396954252 0 0 -1 0 0 0 0 1 forward_v I I I I #
coedge $-1 $262 $261 $272 $374 reversed $95 $-1 #
coedge $-1 $424 $265 $262 $365 forward $259 $-1 #
edge $-1 $366 17.682048405816602 $425 21.58446955886906 $262 $426 forward 7 unknown #
vertex $-1 $365 $427 #
straight-curve $-1 -52.035279396954252 -17.682048405816602 1.8970568467921192 0 0 -1 I I #
coedge $-1 $265 $424 $267 $370 forward $259 $-1 #
straight-curve $-1 0 -17.682048405816602 5.2941136935842383 -1 0 0 I I #
edge $-1 $377 -21.58446955886906 $268 -17.682048405816602 $267 $428 forward 7 unknown #
point $-1 52.035279396954252 -17.682048405816602 5.2941136935842383 #
straight-curve $-1 -52.035279396954252 -9.8166294911714154 2.2941136935842383 0 -1 0 I I #
coedge $-1 $272 $271 $424 $429 reversed $160 $-1 #
edge $-1 $425 -5.2941136935842383 $273 -2.2941136935842383 $363 $430 forward 7 unknown #
point $-1 -52.035279396954252 -21.58446955886906 2.2941136935842383 #
point $-1 -52.035279396954252 -17.682048405816602 2.2941136935842383 #
vertex $-1 $370 $431 #
straight-curve $-1 52.035279396954252 -21.58446955886906 0 0 0 -1 I I #
plane-surface $-1 0 21.58446955886906 0 0 -1 0 0 0 -1 forward_v I I I I #
coedge $-1 $284 $283 $389 $432 forward $103 $-1 #
edge $-1 $383 17.682048405816602 $392 21.58446955886906 $299 $433 forward 7 unknown #
edge $-1 $434 -21.58446955886906 $290 -17.682048405816602 $287 $435 forward 7 unknown #
vertex $-1 $381 $436 #
straight-curve $-1 0 17.682048405816602 5.2941136935842383 1 0 0 I I #
coedge $-1 $288 $287 $294 $390 forward $281 $-1 #
point $-1 -52.035279396954252 17.682048405816602 2.2941136935842383 #
point $-1 -52.035279396954252 17.682048405816602 5.2941136935842383 #
straight-curve $-1 -52.035279396954252 9.8166294911714154 2.2941136935842383 0 -1 0 I I #
coedge $-1 $295 $294 $380 $432 reversed $296 $-1 #
edge $-1 $434 -5.2941136935842383 $297 -2.2941136935842383 $294 $437 forward 7 unknown #
point $-1 -52.035279396954252 21.58446955886906 2.2941136935842383 #
vertex $-1 $381 $438 #
straight-curve $-1 52.035279396954252 21.58446955886906 0 0 0 -1 I I #
straight-curve $-1 52.035279396954252 17.682048405816602 1.8970568467921192 0 0 -1 I I #
coedge $-1 $307 $306 $314 $400 forward $111 $-1 #
edge $-1 $310 8.0614256344189137 $403 17.682048405816602 $307 $439 forward 7 unknown #
straight-curve $-1 -52.035279396954252 -8.0614256344189137 28.81646163057648 0 0 -1 I I #
point $-1 -52.035279396954252 -8.0614256344189137 5.2941136935842383 #
straight-curve $-1 -52.035279396954252 -6.4358685100588797 0.95203582889368088 0 -1 0 I I #
edge $-1 $315 -27.864425801682795 $403 -23.52234793699224 $395 $440 forward 7 unknown #
point $-1 -52.035279396954252 -17.682048405816605 0.95203582889368532 #
point $-1 -52.035279396954252 -8.0614256344189137 0.95203582889368532 #
vertex $-1 $400 $441 #
straight-curve $-1 0 -17.682048405816602 5.2941136935842383 1 0 0 I I #
vertex $-1 $322 $442 #
point $-1 -48.679631080057504 -12.871737020117759 3.0518472879298093 #
coedge $-1 $408 $328 $414 $443 reversed $214 $-1 #
coedge $-1 $328 $407 $331 $412 reversed $214 $-1 #
edge $-1 $410 -11.246179895757725 $336 -1.625557124360034 $335 $444 forward 7 unknown #
vertex $-1 $443 $445 #
straight-curve $-1 -4.6456080353050453 -17.682048405816605 88.23295131199292 -0.54463902268945019 0 0.83867057594974714 I I #
edge $-1 $332 49.215501152095122 $416 52.035279396954252 $331 $446 forward 7 unknown #
point $-1 49.215501152095122 -17.682048405816602 5.2941136935842383 #
coedge $-1 $335 $334 $407 $443 forward $326 $-1 #
point $-1 52.035279396954252 -8.0614256344189137 0.95203582889365634 #
vertex $-1 $339 $447 #
straight-curve $-1 52.035279396954252 0 5.2941136935842383 0 1 0 I I #
vertex $-1 $342 $448 #
point $-1 49.768909125436409 -12.871737020117759 1.3745061360303117 #
straight-curve $-1 -52.035279396954252 21.58446955886906 0 0 0 -1 I I #
point $-1 -52.035279396954252 -21.58446955886906 -5.2941136935842383 #
straight-curve $-1 -52.035279396954252 0 -5.2941136935842383 0 1 0 I I #
point $-1 -52.035279396954252 21.58446955886906 -5.2941136935842383 #
coedge $-1 $368 $364 $373 $429 forward $259 $-1 #
vertex $-1 $365 $449 #
straight-curve $-1 -52.035279396954252 0 5.2941136935842383 0 -1 0 I I #
point $-1 -52.035279396954252 -17.682048405816602 5.2941136935842383 #
straight-curve $-1 52.035279396954252 0 5.2941136935842383 0 1 0 I I #
edge $-1 $425 -52.035279396954252 $377 52.035279396954252 $373 $450 forward 7 unknown #
straight-curve $-1 -52.035279396954252 -21.58446955886906 0 0 0 -1 I I #
point $-1 52.035279396954252 -21.58446955886906 5.2941136935842383 #
edge $-1 $392 -52.035279396954252 $434 52.035279396954252 $389 $451 forward 7 unknown #
straight-curve $-1 52.035279396954252 0 5.2941136935842383 0 1 0 I I #
vertex $-1 $432 $452 #
straight-curve $-1 -52.035279396954252 0 5.2941136935842383 0 -1 0 I I #
point $-1 52.035279396954252 17.682048405816602 5.2941136935842383 #
straight-curve $-1 -52.035279396954252 21.58446955886906 0 0 0 -1 I I #
point $-1 52.035279396954252 21.58446955886906 5.2941136935842383 #
straight-curve $-1 -52.035279396954252 0 5.2941136935842383 0 -1 0 I I #
straight-curve $-1 -52.035279396954252 -17.682048405816605 28.81646163057648 0 0 1 I I #
point $-1 -52.035279396954252 -17.682048405816602 5.2941136935842383 #
point $-1 -48.385599526797208 -12.871737020117759 1.6685376892906119 #
edge $-1 $416 67.162805678541872 $410 71.504883543232452 $414 $453 forward 7 unknown #
straight-curve $-1 52.035279396954252 -6.4358685100588797 0.95203582889364213 0 1 0 I I #
point $-1 52.035279396954252 -17.682048405816605 0.95203582889365634 #
straight-curve $-1 0 -17.682048405816602 5.2941136935842383 1 0 0 I I #
point $-1 52.035279396954252 -17.682048405816602 5.2941136935842383 #
point $-1 48.385599526797208 -12.871737020117759 1.6685376892906083 #
point $-1 -52.035279396954252 -21.58446955886906 5.2941136935842383 #
straight-curve $-1 0 -21.58446955886906 5.2941136935842383 1 0 0 I I #
straight-curve $-1 0 21.58446955886906 5.2941136935842383 -1 0 0 I I #
point $-1 -52.035279396954252 21.58446955886906 5.2941136935842383 #
straight-curve $-1 52.035279396954252 -17.682048405816605 72.456919372126109 0 0 -1 I I #
End-of-ACIS-data 