500 0 7 0           
7 Unknown 11 ACIS 5.0 NT 24 Fri Mar 26 17:18:26 1999 
-1 9.9999999999999995e-007 1e-010 
body $-1 $7 $-1 $8 #
body $-1 $9 $-1 $10 #
body $-1 $11 $-1 $12 #
body $-1 $13 $-1 $14 #
body $-1 $15 $-1 $16 #
body $-1 $17 $-1 $18 #
body $-1 $19 $-1 $20 #
lump $-1 $-1 $21 $0 #
transform $-1 1 0 0 0 1 0 0 0 1 41.804254280220952 27.458353902420953 11.093536987408653 1 rotate no_reflect no_shear #
lump $-1 $-1 $22 $1 #
transform $-1 1 0 0 0 1 0 0 0 1 41.804254280220952 27.458353902420953 11.093536987408653 1 rotate no_reflect no_shear #
lump $-1 $-1 $23 $2 #
transform $-1 1 0 0 0 1 0 0 0 1 41.804254280220952 27.458353902420953 11.093536987408653 1 rotate no_reflect no_shear #
lump $-1 $-1 $24 $3 #
transform $-1 1 0 0 0 1 0 0 0 1 41.804254280220952 27.458353902420953 11.093536987408653 1 rotate no_reflect no_shear #
lump $-1 $-1 $25 $4 #
transform $-1 1 0 0 0 1 0 0 0 1 41.804254280220952 27.458353902420953 11.093536987408653 1 rotate no_reflect no_shear #
lump $-1 $-1 $26 $5 #
transform $-1 1 0 0 0 1 0 0 0 1 41.804254280220952 27.458353902420953 11.093536987408653 1 rotate no_reflect no_shear #
lump $-1 $-1 $27 $6 #
transform $-1 1 0 0 0 1 0 0 0 1 41.804254280220952 27.458353902420953 11.093536987408653 1 rotate no_reflect no_shear #
shell $-1 $-1 $-1 $28 $-1 $7 #
shell $-1 $-1 $-1 $29 $-1 $9 #
shell $-1 $-1 $-1 $30 $-1 $11 #
shell $-1 $-1 $-1 $31 $-1 $13 #
shell $-1 $-1 $-1 $32 $-1 $15 #
shell $-1 $-1 $-1 $33 $-1 $17 #
shell $-1 $-1 $-1 $34 $-1 $19 #
face $-1 $35 $36 $21 $-1 $37 forward single #
face $-1 $38 $39 $22 $-1 $40 forward single #
face $-1 $41 $42 $23 $-1 $43 reversed single #
face $-1 $44 $45 $24 $-1 $46 forward single #
face $-1 $47 $48 $25 $-1 $49 forward single #
face $-1 $50 $51 $26 $-1 $52 reversed single #
face $-1 $53 $54 $27 $-1 $55 forward single #
face $-1 $56 $57 $21 $-1 $58 reversed single #
loop $-1 $-1 $59 $28 #
plane-surface $-1 0 0 11.093536987408653 0 0 1 1 0 0 forward_v I I I I #
face $-1 $60 $61 $22 $-1 $62 reversed single #
loop $-1 $-1 $63 $29 #
plane-surface $-1 -36.228434106201384 0 -5.1517726258125567 0 0 1 1 0 0 forward_v I I I I #
face $-1 $64 $65 $23 $-1 $66 reversed single #
loop $-1 $-1 $67 $30 #
plane-surface $-1 34.130464499114915 -93.342758431208182 57.465833980053645 1 0 0 0 0.78801076186113728 -0.61566146476048833 forward_v I I I I #
face $-1 $68 $69 $24 $-1 $70 forward single #
loop $-1 $71 $72 $31 #
cone-surface $-1 36.322975865145203 -25.025225747141391 8.1986710201943609 0 0.78801076186113728 -0.61566146476048833 0.5 0 0 1 I I 0 1 0.5 forward I I I I #
face $-1 $73 $74 $25 $-1 $75 forward single #
loop $-1 $76 $77 $32 #
cone-surface $-1 39.61174291419065 -25.025225747141391 8.1986710201943609 0 0.78801076186113728 -0.61566146476048833 0.5 0 0 1 I I 0 1 0.5 forward I I I I #
face $-1 $78 $79 $26 $-1 $80 reversed single #
loop $-1 $-1 $81 $33 #
plane-surface $-1 -27.634414791720225 42.592299765579767 101.95708678683673 1 0 0 0 -0.66913061440640931 -0.74314481823134659 forward_v I I I I #
face $-1 $82 $83 $27 $-1 $84 forward single #
loop $-1 $85 $86 $34 #
cone-surface $-1 -19.635014675695636 22.251609241843973 6.2465846671078094 0 -0.66913061440640931 -0.74314481823134659 1.5 0 0 1 I I 0 1 1.5 forward I I I I #
face $-1 $87 $88 $21 $-1 $89 reversed single #
loop $-1 $-1 $90 $35 #
plane-surface $-1 0 0 -11.093536987408653 0 0 1 1 0 0 forward_v I I I I #
coedge $-1 $91 $92 $93 $94 forward $36 $-1 #
face $-1 $95 $96 $22 $-1 $97 reversed single #
loop $-1 $-1 $98 $38 #
plane-surface $-1 -30.652613932181815 0 -8.1226548066106048 -1 0 0 0 0 1 forward_v I I I I #
coedge $-1 $99 $100 $101 $102 forward $39 $-1 #
face $-1 $103 $104 $23 $-1 $105 forward single #
loop $-1 $-1 $106 $41 #
plane-surface $-1 37.967359389667926 -27.458353902420939 5.9912971332921572 0 -0.78801076186113728 0.61566146476048833 1 0 0 forward_v I I I I #
coedge $-1 $107 $108 $109 $110 reversed $42 $-1 #
face $-1 $-1 $111 $24 $-1 $112 forward single #
loop $-1 $113 $114 $44 #
cone-surface $-1 36.322975865145203 -24.388248176819864 7.7010096138481945 0 0.78801076186113728 -0.61566146476048833 0.25 0 0 1 I I -0.70710678118654746 0.70710678118654746 0.25 forward I I I I #
loop $-1 $-1 $115 $31 #
coedge $-1 $72 $72 $116 $117 reversed $45 $-1 #
face $-1 $-1 $118 $25 $-1 $119 forward single #
loop $-1 $120 $121 $47 #
cone-surface $-1 39.61174291419065 -24.388248176819864 7.7010096138481945 0 0.78801076186113728 -0.61566146476048833 0.25 0 0 1 I I -0.70710678118654746 0.70710678118654746 0.25 forward I I I I #
loop $-1 $-1 $122 $32 #
coedge $-1 $77 $77 $123 $124 reversed $48 $-1 #
face $-1 $125 $126 $26 $-1 $127 reversed single #
loop $-1 $-1 $128 $50 #
plane-surface $-1 -19.635014675695636 -13.352712937072255 39.82385689009314 0 0.66913061440640931 0.74314481823134659 1 0 0 forward_v I I I I #
coedge $-1 $129 $130 $131 $132 reversed $51 $-1 #
face $-1 $-1 $133 $27 $-1 $134 forward single #
loop $-1 $135 $136 $53 #
cone-surface $-1 -19.635014675695636 20.994423968164277 4.8503389991067696 0 -0.66913061440640931 -0.74314481823134659 0.75 0 0 1 I I -0.70710678118654757 0.70710678118654757 0.75 forward I I I I #
loop $-1 $-1 $137 $34 #
coedge $-1 $86 $86 $138 $139 reversed $54 $-1 #
face $-1 $140 $141 $21 $-1 $142 reversed single #
loop $-1 $-1 $143 $56 #
plane-surface $-1 0 -27.458353902420953 0 0 1 0 0 0 1 forward_v I I I I #
coedge $-1 $144 $145 $146 $147 forward $57 $-1 #
coedge $-1 $148 $59 $149 $150 forward $36 $-1 #
coedge $-1 $59 $148 $151 $152 forward $36 $-1 #
coedge $-1 $153 $154 $59 $94 reversed $155 $-1 #
edge $-1 $156 -27.458353902420953 $157 27.458353902420953 $93 $158 forward 7 unknown #
face $-1 $159 $160 $22 $-1 $161 reversed single #
loop $-1 $-1 $162 $60 #
plane-surface $-1 0 0 -11.093536987408653 0 0 1 1 0 0 forward_v I I I I #
coedge $-1 $163 $101 $164 $165 reversed $61 $-1 #
coedge $-1 $166 $63 $167 $168 reversed $39 $-1 #
coedge $-1 $63 $166 $169 $170 reversed $39 $-1 #
coedge $-1 $98 $171 $63 $102 reversed $61 $-1 #
edge $-1 $172 -27.458353902420953 $173 27.458353902420953 $101 $174 forward 7 unknown #
face $-1 $175 $176 $23 $-1 $177 reversed single #
loop $-1 $-1 $178 $64 #
plane-surface $-1 0 0 11.093536987408653 0 0 1 1 0 0 forward_v I I I I #
coedge $-1 $179 $180 $181 $182 reversed $65 $-1 #
coedge $-1 $108 $67 $183 $184 reversed $42 $-1 #
coedge $-1 $67 $107 $179 $185 reversed $42 $-1 #
coedge $-1 $181 $186 $67 $110 forward $176 $-1 #
edge $-1 $187 17.639380002618168 $188 22.741619856734683 $109 $189 forward 7 unknown #
loop $-1 $-1 $116 $68 #
plane-surface $-1 37.967359389667926 -27.458353902420939 5.9912971332921572 0 -0.78801076186113728 0.61566146476048833 1 0 0 forward_v I I I I #
loop $-1 $-1 $190 $44 #
coedge $-1 $114 $114 $115 $191 reversed $69 $-1 #
coedge $-1 $115 $115 $114 $191 forward $71 $-1 #
coedge $-1 $116 $116 $72 $117 forward $111 $-1 #
edge $-1 $192 2.4492308213645081e-015 $192 6.2831853071796031 $116 $193 forward 7 unknown #
loop $-1 $-1 $123 $73 #
plane-surface $-1 37.967359389667926 -27.458353902420939 5.9912971332921572 0 -0.78801076186113728 0.61566146476048833 1 0 0 forward_v I I I I #
loop $-1 $-1 $194 $47 #
coedge $-1 $121 $121 $122 $195 reversed $74 $-1 #
coedge $-1 $122 $122 $121 $195 forward $76 $-1 #
coedge $-1 $123 $123 $77 $124 forward $118 $-1 #
edge $-1 $196 2.4492308213645081e-015 $196 6.2831853071796031 $123 $197 forward 7 unknown #
face $-1 $198 $199 $26 $-1 $200 reversed single #
loop $-1 $-1 $201 $78 #
plane-surface $-1 -11.635614559671048 42.592299765579767 101.95708678683673 -1 0 0 0 0.66913061440640931 0.74314481823134659 forward_v I I I I #
coedge $-1 $202 $203 $204 $205 reversed $79 $-1 #
coedge $-1 $130 $81 $206 $207 reversed $51 $-1 #
coedge $-1 $81 $129 $202 $208 reversed $51 $-1 #
coedge $-1 $204 $209 $81 $132 forward $210 $-1 #
edge $-1 $211 -6.1622040196310692 $212 2.7406106757731372 $131 $213 forward 7 unknown #
loop $-1 $-1 $138 $82 #
plane-surface $-1 -19.635014675695636 -13.352712937072255 39.82385689009314 0 0.66913061440640931 0.74314481823134659 1 0 0 forward_v I I I I #
loop $-1 $-1 $214 $53 #
coedge $-1 $136 $136 $137 $215 reversed $83 $-1 #
coedge $-1 $137 $137 $136 $215 forward $85 $-1 #
coedge $-1 $138 $138 $86 $139 forward $133 $-1 #
edge $-1 $216 1.5392164424920941e-015 $216 6.2831853071796022 $138 $217 forward 7 unknown #
face $-1 $218 $219 $21 $-1 $220 reversed single #
loop $-1 $-1 $221 $87 #
plane-surface $-1 -41.804254280220952 0 0 1 0 0 0 0 -1 forward_v I I I I #
coedge $-1 $222 $151 $223 $224 forward $88 $-1 #
coedge $-1 $225 $90 $222 $226 forward $57 $-1 #
coedge $-1 $90 $225 $227 $228 forward $57 $-1 #
coedge $-1 $154 $153 $90 $147 reversed $155 $-1 #
edge $-1 $229 -27.458353902420953 $230 27.458353902420953 $146 $231 forward 7 unknown #
coedge $-1 $92 $91 $232 $233 forward $36 $-1 #
coedge $-1 $234 $235 $91 $150 reversed $219 $-1 #
edge $-1 $157 -41.804254280220952 $236 41.804254280220952 $149 $237 forward 7 unknown #
coedge $-1 $143 $238 $92 $152 reversed $88 $-1 #
edge $-1 $239 -41.804254280220952 $156 41.804254280220952 $151 $240 forward 7 unknown #
coedge $-1 $146 $93 $238 $241 forward $155 $-1 #
coedge $-1 $93 $146 $234 $242 reversed $155 $-1 #
loop $-1 $-1 $153 $218 #
vertex $-1 $94 $243 #
vertex $-1 $94 $244 #
straight-curve $-1 41.804254280220952 0 11.093536987408653 0 1 0 I I #
face $-1 $245 $246 $22 $-1 $247 reversed single #
loop $-1 $-1 $164 $95 #
plane-surface $-1 0 -27.458353902420953 0 0 1 0 0 0 1 forward_v I I I I #
coedge $-1 $248 $249 $163 $250 forward $96 $-1 #
coedge $-1 $171 $98 $162 $250 reversed $61 $-1 #
coedge $-1 $169 $251 $98 $165 forward $160 $-1 #
edge $-1 $252 -7.0322095841033505 $172 -1.0904452225072543 $164 $253 forward 7 unknown #
coedge $-1 $100 $99 $254 $255 reversed $39 $-1 #
coedge $-1 $256 $257 $99 $168 forward $258 $-1 #
edge $-1 $259 -23.690037227120261 $173 -12.538396879081123 $167 $260 forward 7 unknown #
coedge $-1 $261 $164 $100 $170 forward $160 $-1 #
edge $-1 $172 12.538396879081123 $262 23.690037227120261 $169 $263 forward 7 unknown #
coedge $-1 $101 $163 $256 $264 reversed $61 $-1 #
vertex $-1 $170 $265 #
vertex $-1 $168 $266 #
straight-curve $-1 -30.652613932181815 0 -5.1517726258125567 0 1 0 I I #
face $-1 $-1 $267 $23 $-1 $268 reversed single #
loop $-1 $-1 $181 $103 #
plane-surface $-1 0 -27.458353902420953 0 0 1 0 0 0 1 forward_v I I I I #
coedge $-1 $183 $269 $270 $271 forward $104 $-1 #
coedge $-1 $270 $106 $108 $185 forward $65 $-1 #
coedge $-1 $106 $270 $272 $273 reversed $65 $-1 #
coedge $-1 $274 $109 $106 $182 forward $176 $-1 #
edge $-1 $188 15.146784804280951 $275 22.820574585386975 $181 $276 forward 7 unknown #
coedge $-1 $277 $178 $107 $184 forward $104 $-1 #
edge $-1 $278 -23.199331864029791 $187 -19.213025313183138 $183 $279 forward 7 unknown #
edge $-1 $188 -2.274695869299009e-014 $278 6.4748352447191699 $108 $280 forward 7 unknown #
coedge $-1 $109 $274 $277 $281 reversed $176 $-1 #
vertex $-1 $281 $282 #
vertex $-1 $110 $283 #
straight-curve $-1 34.130464499114915 -27.458353902420953 28.732916990026823 0 0 -1 I I #
coedge $-1 $190 $190 $-1 $284 reversed $113 $-1 #
edge $-1 $285 0 $285 6.2831853071796004 $114 $286 forward 7 unknown #
vertex $-1 $117 $287 #
ellipse-curve $-1 36.322975865145203 -25.465200626997625 8.5424170603503988 0 -0.78801076186113728 0.61566146476048833 0.5 0 0 1 I I #
coedge $-1 $194 $194 $-1 $288 reversed $120 $-1 #
edge $-1 $289 0 $289 6.2831853071796004 $121 $290 forward 7 unknown #
vertex $-1 $124 $291 #
ellipse-curve $-1 39.61174291419065 -25.465200626997625 8.5424170603503988 0 -0.78801076186113728 0.61566146476048833 0.5 0 0 1 I I #
face $-1 $-1 $210 $26 $-1 $292 forward single #
loop $-1 $-1 $293 $125 #
plane-surface $-1 0 27.458353902420953 0 0 -1 0 0 0 -1 forward_v I I I I #
coedge $-1 $294 $295 $296 $297 reversed $126 $-1 #
coedge $-1 $298 $128 $130 $208 forward $79 $-1 #
coedge $-1 $128 $298 $294 $299 forward $79 $-1 #
coedge $-1 $296 $131 $128 $205 forward $210 $-1 #
edge $-1 $212 -17.816907453872407 $300 -1.8181072218232295 $204 $301 forward 7 unknown #
coedge $-1 $302 $303 $129 $207 forward $199 $-1 #
edge $-1 $304 -47.901136937956338 $211 -39.885006406009708 $206 $305 forward 7 unknown #
edge $-1 $212 42.936788848274958 $304 54.916707804841899 $130 $306 forward 7 unknown #
coedge $-1 $131 $296 $302 $307 forward $210 $-1 #
loop $-1 $-1 $296 $198 #
vertex $-1 $207 $308 #
vertex $-1 $132 $309 #
straight-curve $-1 -27.634414791720225 21.296149882789884 11.093536987408655 0 -1 0 I I #
coedge $-1 $214 $214 $-1 $310 reversed $135 $-1 #
edge $-1 $311 0 $311 6.2831853071796004 $136 $312 forward 7 unknown #
vertex $-1 $139 $313 #
ellipse-curve $-1 -19.635014675695636 23.006946554718855 7.0854717214353338 0 0.66913061440640931 0.74314481823134659 1.5 0 0 1 I I #
face $-1 $-1 $155 $21 $-1 $314 reversed single #
loop $-1 $-1 $234 $140 #
plane-surface $-1 0 27.458353902420953 0 0 -1 0 0 0 -1 forward_v I I I I #
coedge $-1 $315 $232 $235 $316 forward $141 $-1 #
coedge $-1 $238 $143 $144 $226 reversed $88 $-1 #
coedge $-1 $232 $315 $143 $224 reversed $141 $-1 #
edge $-1 $239 -11.093536987408653 $317 11.093536987408653 $223 $318 forward 7 unknown #
coedge $-1 $145 $144 $315 $319 forward $57 $-1 #
edge $-1 $230 -41.804254280220952 $317 41.804254280220952 $222 $320 forward 7 unknown #
coedge $-1 $235 $234 $145 $228 reversed $219 $-1 #
edge $-1 $321 -41.804254280220952 $229 41.804254280220952 $227 $322 forward 7 unknown #
vertex $-1 $147 $323 #
vertex $-1 $241 $324 #
straight-curve $-1 41.804254280220952 0 -11.093536987408653 0 -1 0 I I #
coedge $-1 $221 $223 $148 $233 reversed $141 $-1 #
edge $-1 $236 -27.458353902420953 $239 27.458353902420953 $232 $325 forward 7 unknown #
coedge $-1 $227 $149 $154 $242 forward $219 $-1 #
coedge $-1 $149 $227 $221 $316 reversed $219 $-1 #
vertex $-1 $150 $326 #
straight-curve $-1 0 27.458353902420953 11.093536987408653 -1 0 0 I I #
coedge $-1 $151 $222 $153 $241 reversed $88 $-1 #
vertex $-1 $233 $327 #
straight-curve $-1 0 -27.458353902420953 11.093536987408653 1 0 0 I I #
edge $-1 $156 -11.093536987408653 $230 11.093536987408653 $153 $328 forward 7 unknown #
edge $-1 $157 -11.093536987408653 $229 11.093536987408653 $154 $329 forward 7 unknown #
point $-1 41.804254280220952 -27.458353902420953 11.093536987408653 #
point $-1 41.804254280220952 27.458353902420953 11.093536987408653 #
face $-1 $-1 $258 $22 $-1 $330 reversed single #
loop $-1 $-1 $254 $159 #
plane-surface $-1 -41.804254280220952 0 0 1 0 0 0 0 -1 forward_v I I I I #
coedge $-1 $331 $162 $251 $332 forward $96 $-1 #
coedge $-1 $162 $331 $333 $334 forward $96 $-1 #
edge $-1 $335 -27.458353902420953 $252 27.458353902420953 $162 $336 forward 7 unknown #
coedge $-1 $164 $261 $248 $332 reversed $160 $-1 #
vertex $-1 $332 $337 #
straight-curve $-1 -30.652613932181815 -27.458353902420953 -4.0613274033053024 0 0 1 I I #
coedge $-1 $338 $339 $166 $255 forward $246 $-1 #
edge $-1 $262 -27.458353902420953 $259 27.458353902420953 $254 $340 forward 7 unknown #
coedge $-1 $333 $167 $171 $264 forward $258 $-1 #
coedge $-1 $167 $333 $338 $341 reversed $258 $-1 #
loop $-1 $-1 $256 $245 #
vertex $-1 $341 $342 #
straight-curve $-1 -18.114217053100692 27.458353902420953 -5.1517726258125567 1 0 0 I I #
coedge $-1 $251 $169 $339 $343 forward $160 $-1 #
vertex $-1 $343 $344 #
straight-curve $-1 -18.114217053100692 -27.458353902420953 -5.1517726258125567 -1 0 0 I I #
edge $-1 $173 1.0904452225072543 $335 7.0322095841033505 $256 $345 forward 7 unknown #
point $-1 -30.652613932181815 -27.458353902420953 -5.1517726258125567 #
point $-1 -30.652613932181815 27.458353902420953 -5.1517726258125567 #
loop $-1 $-1 $272 $175 #
plane-surface $-1 41.804254280220952 0 0 -1 0 0 0 0 1 forward_v I I I I #
coedge $-1 $178 $277 $346 $347 forward $104 $-1 #
coedge $-1 $180 $179 $178 $271 reversed $65 $-1 #
edge $-1 $348 -22.820574585386975 $278 -15.146784804280951 $178 $349 forward 7 unknown #
coedge $-1 $346 $350 $180 $273 forward $267 $-1 #
edge $-1 $275 -6.0919218824671955 $348 0.38291336225199674 $272 $351 forward 7 unknown #
coedge $-1 $186 $181 $350 $352 reversed $176 $-1 #
vertex $-1 $182 $353 #
straight-curve $-1 18.983679694833963 -27.458353902420953 5.9912971332921376 1 0 0 I I #
coedge $-1 $269 $183 $186 $281 forward $104 $-1 #
vertex $-1 $184 $354 #
straight-curve $-1 34.130464499114915 -46.671379215604091 11.093536987408655 0 -1 0 I I #
straight-curve $-1 34.130464499114915 -27.458353902420939 5.9912971332921572 0 0.61566146476048833 0.78801076186113728 I I #
edge $-1 $187 34.130464499114915 $355 41.804254280220952 $186 $356 forward 7 unknown #
point $-1 34.130464499114915 -27.458353902420953 11.093536987408653 #
point $-1 34.130464499114915 -27.458353902420953 5.9912971332921394 #
edge $-1 $357 1 $357 0 $190 $-1 forward 7 unknown #
vertex $-1 $191 $358 #
ellipse-curve $-1 36.322975865145203 -24.585250867285147 7.8549249800383167 0 -0.78801076186113728 0.61566146476048833 0.5 0 0 1 I I #
point $-1 36.822975865145203 -25.465200626997632 8.5424170603504059 #
edge $-1 $359 1 $359 0 $194 $-1 forward 7 unknown #
vertex $-1 $195 $360 #
ellipse-curve $-1 39.61174291419065 -24.585250867285147 7.8549249800383167 0 -0.78801076186113728 0.61566146476048833 0.5 0 0 1 I I #
point $-1 40.11174291419065 -25.465200626997632 8.5424170603504059 #
plane-surface $-1 0 0 11.093536987408653 0 0 1 1 0 0 forward_v I I I I #
coedge $-1 $303 $302 $295 $361 forward $199 $-1 #
coedge $-1 $295 $201 $203 $299 reversed $126 $-1 #
coedge $-1 $201 $294 $293 $361 reversed $126 $-1 #
coedge $-1 $209 $204 $201 $297 forward $210 $-1 #
edge $-1 $300 -2.7406106757731372 $362 6.1622040196310692 $296 $363 forward 7 unknown #
coedge $-1 $203 $202 $303 $364 reversed $79 $-1 #
edge $-1 $365 -54.916707804841899 $300 -42.936788848274958 $294 $366 forward 7 unknown #
vertex $-1 $205 $367 #
straight-curve $-1 -9.8175073378478181 18.55553920701675 11.093536987408648 1 0 0 I I #
coedge $-1 $293 $206 $209 $307 reversed $199 $-1 #
coedge $-1 $206 $293 $298 $364 forward $199 $-1 #
vertex $-1 $207 $368 #
straight-curve $-1 -27.634414791720225 27.458353902420953 50.978543393418363 0 0 1 I I #
straight-curve $-1 -27.634414791720225 -13.352712937072255 39.82385689009314 0 0.74314481823134659 -0.66913061440640931 I I #
edge $-1 $362 11.635614559671048 $211 27.634414791720225 $302 $369 forward 7 unknown #
point $-1 -27.634414791720225 27.458353902420953 11.093536987408653 #
point $-1 -27.634414791720225 18.555539207016746 11.093536987408655 #
edge $-1 $370 1 $370 0 $214 $-1 forward 7 unknown #
vertex $-1 $215 $371 #
ellipse-curve $-1 -19.635014675695636 21.496271928969083 5.4076976127802796 0 0.66913061440640931 0.74314481823134659 1.5 0 0 1 I I #
point $-1 -18.135014675695636 23.006946554718862 7.0854717214353382 #
plane-surface $-1 41.804254280220952 0 0 -1 0 0 0 0 1 forward_v I I I I #
coedge $-1 $223 $221 $225 $319 reversed $141 $-1 #
edge $-1 $236 -11.093536987408653 $321 11.093536987408653 $235 $372 forward 7 unknown #
vertex $-1 $319 $373 #
straight-curve $-1 -41.804254280220952 -27.458353902420953 0 0 0 -1 I I #
edge $-1 $317 -27.458353902420953 $321 27.458353902420953 $315 $374 forward 7 unknown #
straight-curve $-1 0 -27.458353902420953 -11.093536987408653 -1 0 0 I I #
vertex $-1 $228 $375 #
straight-curve $-1 0 27.458353902420953 -11.093536987408653 1 0 0 I I #
point $-1 41.804254280220952 27.458353902420953 -11.093536987408653 #
point $-1 41.804254280220952 -27.458353902420953 -11.093536987408653 #
straight-curve $-1 -41.804254280220952 0 11.093536987408653 0 -1 0 I I #
point $-1 -41.804254280220952 27.458353902420953 11.093536987408653 #
point $-1 -41.804254280220952 -27.458353902420953 11.093536987408653 #
straight-curve $-1 41.804254280220952 -27.458353902420953 0 0 0 -1 I I #
straight-curve $-1 41.804254280220952 27.458353902420953 0 0 0 -1 I I #
plane-surface $-1 0 27.458353902420953 0 0 -1 0 0 0 -1 forward_v I I I I #
coedge $-1 $249 $248 $376 $377 forward $96 $-1 #
edge $-1 $252 30.652613932181815 $378 41.804254280220952 $251 $379 forward 7 unknown #
coedge $-1 $257 $256 $249 $334 reversed $258 $-1 #
edge $-1 $380 -41.804254280220952 $335 -30.652613932181815 $333 $381 forward 7 unknown #
vertex $-1 $264 $382 #
straight-curve $-1 -30.652613932181815 0 -11.093536987408653 0 -1 0 I I #
point $-1 -30.652613932181815 -27.458353902420953 -11.093536987408653 #
coedge $-1 $376 $254 $257 $341 forward $246 $-1 #
coedge $-1 $254 $376 $261 $343 reversed $246 $-1 #
straight-curve $-1 -41.804254280220952 0 -5.1517726258125567 0 1 0 I I #
edge $-1 $259 5.1517726258125567 $380 11.093536987408653 $257 $383 forward 7 unknown #
point $-1 -41.804254280220952 27.458353902420953 -5.1517726258125567 #
edge $-1 $262 5.1517726258125567 $378 11.093536987408653 $339 $384 forward 7 unknown #
point $-1 -41.804254280220952 -27.458353902420953 -5.1517726258125567 #
straight-curve $-1 -30.652613932181815 27.458353902420953 -4.0613274033053024 0 0 -1 I I #
coedge $-1 $350 $272 $269 $347 reversed $267 $-1 #
edge $-1 $355 -27.458353902420953 $348 -23.4720473515743 $346 $385 forward 7 unknown #
vertex $-1 $271 $386 #
straight-curve $-1 18.983679694833963 -23.472047351574297 11.093536987408653 -1 0 0 I I #
coedge $-1 $272 $346 $274 $352 forward $267 $-1 #
straight-curve $-1 41.804254280220952 -23.707792353054728 10.791797137093647 0 0.61566146476048833 0.78801076186113728 I I #
edge $-1 $355 -11.093536987408653 $275 -5.9912971332921394 $350 $387 forward 7 unknown #
point $-1 41.804254280220938 -27.458353902420953 5.9912971332921394 #
point $-1 34.130464499114915 -23.4720473515743 11.093536987408653 #
vertex $-1 $347 $388 #
straight-curve $-1 0 -27.458353902420953 11.093536987408653 1 0 0 I I #
vertex $-1 $284 $389 #
point $-1 36.822975865145203 -24.585250867285147 7.8549249800383167 #
vertex $-1 $288 $390 #
point $-1 40.11174291419065 -24.585250867285147 7.8549249800383167 #
edge $-1 $362 39.885006406009708 $365 47.901136937956338 $293 $391 forward 7 unknown #
vertex $-1 $307 $392 #
straight-curve $-1 -11.635614559671048 21.296149882789884 11.093536987408655 0 1 0 I I #
edge $-1 $365 1.8181072218232295 $304 17.816907453872407 $303 $393 forward 7 unknown #
vertex $-1 $364 $394 #
straight-curve $-1 -11.635614559671048 -13.352712937072255 39.82385689009314 0 -0.74314481823134659 0.66913061440640931 I I #
point $-1 -11.635614559671048 18.555539207016746 11.093536987408655 #
point $-1 -27.634414791720225 27.458353902420953 3.0774064554620253 #
straight-curve $-1 0 27.458353902420953 11.093536987408653 -1 0 0 I I #
vertex $-1 $310 $395 #
point $-1 -18.135014675695636 21.496271928969083 5.4076976127802796 #
straight-curve $-1 -41.804254280220952 27.458353902420953 0 0 0 -1 I I #
point $-1 -41.804254280220952 -27.458353902420953 -11.093536987408653 #
straight-curve $-1 -41.804254280220952 0 -11.093536987408653 0 1 0 I I #
point $-1 -41.804254280220952 27.458353902420953 -11.093536987408653 #
coedge $-1 $339 $338 $331 $377 reversed $246 $-1 #
edge $-1 $378 -27.458353902420953 $380 27.458353902420953 $376 $396 forward 7 unknown #
vertex $-1 $377 $397 #
straight-curve $-1 0 -27.458353902420953 -11.093536987408653 -1 0 0 I I #
vertex $-1 $334 $398 #
straight-curve $-1 0 27.458353902420953 -11.093536987408653 1 0 0 I I #
point $-1 -30.652613932181815 27.458353902420953 -11.093536987408653 #
straight-curve $-1 -41.804254280220952 27.458353902420953 0 0 0 -1 I I #
straight-curve $-1 -41.804254280220952 -27.458353902420953 0 0 0 -1 I I #
straight-curve $-1 41.804254280220952 0 11.093536987408653 0 1 0 I I #
point $-1 41.804254280220938 -23.4720473515743 11.093536987408653 #
straight-curve $-1 41.804254280220952 -27.458353902420953 0 0 0 -1 I I #
point $-1 41.804254280220952 -27.458353902420953 11.093536987408653 #
point $-1 36.322975865145203 -24.191245486354582 7.5470942476580722 #
point $-1 39.61174291419065 -24.191245486354582 7.5470942476580722 #
straight-curve $-1 -11.635614559671048 27.458353902420953 50.978543393418363 0 0 -1 I I #
point $-1 -11.635614559671048 27.458353902420953 11.093536987408653 #
straight-curve $-1 -9.8175073378478181 27.458353902420949 3.0774064554620253 -1 0 0 I I #
point $-1 -11.635614559671048 27.458353902420953 3.0774064554620253 #
point $-1 -19.635014675695636 20.492576007359471 4.2929803854332595 #
straight-curve $-1 -41.804254280220952 0 -11.093536987408653 0 1 0 I I #
point $-1 -41.804254280220952 -27.458353902420953 -11.093536987408653 #
point $-1 -41.804254280220952 27.458353902420953 -11.093536987408653 #
End-of-ACIS-data 