500 0 10 0           
7 Unknown 11 ACIS 5.0 NT 24 Fri Mar 26 00:53:26 1999 
-1 9.9999999999999995e-007 1e-010 
body $-1 $10 $-1 $11 #
body $-1 $12 $-1 $13 #
body $-1 $14 $-1 $15 #
body $-1 $16 $-1 $17 #
body $-1 $18 $-1 $19 #
body $-1 $20 $-1 $21 #
body $-1 $22 $-1 $23 #
body $-1 $24 $-1 $25 #
body $-1 $26 $-1 $27 #
body $-1 $28 $-1 $29 #
lump $-1 $-1 $30 $0 #
transform $-1 1 0 0 0 1 0 0 0 1 40.162358470412308 22.374087465761292 7.5741547228983599 1 rotate no_reflect no_shear #
lump $-1 $-1 $31 $1 #
transform $-1 1 0 0 0 1 0 0 0 1 40.162358470412308 22.374087465761292 7.5741547228983599 1 rotate no_reflect no_shear #
lump $-1 $-1 $32 $2 #
transform $-1 1 0 0 0 1 0 0 0 1 40.162358470412308 22.374087465761292 7.5741547228983599 1 rotate no_reflect no_shear #
lump $-1 $-1 $33 $3 #
transform $-1 1 0 0 0 1 0 0 0 1 40.162358470412308 22.374087465761292 7.5741547228983599 1 rotate no_reflect no_shear #
lump $-1 $-1 $34 $4 #
transform $-1 1 0 0 0 1 0 0 0 1 40.162358470412308 22.374087465761292 7.5741547228983599 1 rotate no_reflect no_shear #
lump $-1 $-1 $35 $5 #
transform $-1 1 0 0 0 1 0 0 0 1 40.162358470412308 22.374087465761292 7.5741547228983599 1 rotate no_reflect no_shear #
lump $-1 $-1 $36 $6 #
transform $-1 1 0 0 0 1 0 0 0 1 40.162358470412308 22.374087465761292 7.5741547228983599 1 rotate no_reflect no_shear #
lump $-1 $-1 $37 $7 #
transform $-1 1 0 0 0 1 0 0 0 1 40.162358470412308 22.374087465761292 7.5741547228983599 1 rotate no_reflect no_shear #
lump $-1 $-1 $38 $8 #
transform $-1 1 0 0 0 1 0 0 0 1 40.162358470412308 22.374087465761292 7.5741547228983599 1 rotate no_reflect no_shear #
lump $-1 $-1 $39 $9 #
transform $-1 1 0 0 0 1 0 0 0 1 40.162358470412308 22.374087465761292 7.5741547228983599 1 rotate no_reflect no_shear #
shell $-1 $-1 $-1 $40 $-1 $10 #
shell $-1 $-1 $-1 $41 $-1 $12 #
shell $-1 $-1 $-1 $42 $-1 $14 #
shell $-1 $-1 $-1 $43 $-1 $16 #
shell $-1 $-1 $-1 $44 $-1 $18 #
shell $-1 $-1 $-1 $45 $-1 $20 #
shell $-1 $-1 $-1 $46 $-1 $22 #
shell $-1 $-1 $-1 $47 $-1 $24 #
shell $-1 $-1 $-1 $48 $-1 $26 #
shell $-1 $-1 $-1 $49 $-1 $28 #
face $-1 $50 $51 $30 $-1 $52 forward single #
face $-1 $53 $54 $31 $-1 $55 reversed single #
face $-1 $56 $57 $32 $-1 $58 reversed single #
face $-1 $59 $60 $33 $-1 $61 forward single #
face $-1 $62 $63 $34 $-1 $64 forward single #
face $-1 $65 $66 $35 $-1 $67 reversed single #
face $-1 $68 $69 $36 $-1 $70 forward single #
face $-1 $71 $72 $37 $-1 $73 forward single #
face $-1 $74 $75 $38 $-1 $76 reversed single #
face $-1 $77 $78 $39 $-1 $79 forward single #
face $-1 $80 $81 $30 $-1 $82 reversed single #
loop $-1 $-1 $83 $40 #
plane-surface $-1 0 0 7.5741547228983599 0 0 1 1 0 0 forward_v I I I I #
face $-1 $84 $85 $31 $-1 $86 reversed single #
loop $-1 $-1 $87 $41 #
plane-surface $-1 -37.75842651306052 -18.836214981376131 0 1 0 0 0 0 -1 forward_v I I I I #
face $-1 $88 $89 $32 $-1 $90 reversed single #
loop $-1 $-1 $91 $42 #
plane-surface $-1 -85.079370740790011 -6.8115257609894275 69.879563207864436 0 1 0 -0.55919291073839883 0 0.82903756765294845 forward_v I I I I #
face $-1 $92 $93 $33 $-1 $94 forward single #
loop $-1 $95 $96 $43 #
cone-surface $-1 -36.695996448954745 -4.7287379298974557 5.0028266788803943 0.55919291073839883 0 -0.82903756765294845 0.41451878382647422 0 0.27959645536919941 1 I I 0 1 0.5 forward I I I I #
face $-1 $97 $98 $34 $-1 $99 forward single #
loop $-1 $100 $101 $44 #
cone-surface $-1 -36.695996448954745 -1.604556183259497 5.0028266788803943 0.55919291073839883 0 -0.82903756765294845 0.41451878382647422 0 0.27959645536919941 1 I I 0 1 0.5 forward I I I I #
face $-1 $102 $103 $35 $-1 $104 reversed single #
loop $-1 $-1 $105 $45 #
plane-surface $-1 -85.079370740790011 6.5975133209378551 69.879563207864436 0 1 0 -0.55919291073839883 0 0.82903756765294845 forward_v I I I I #
face $-1 $106 $107 $36 $-1 $108 forward single #
loop $-1 $109 $110 $46 #
cone-surface $-1 -36.695996448954745 8.6803011520298234 5.0028266788803943 0.55919291073839883 0 -0.82903756765294845 0.41451878382647422 0 0.27959645536919941 1 I I 0 1 0.5 forward I I I I #
face $-1 $111 $112 $37 $-1 $113 forward single #
loop $-1 $114 $115 $47 #
cone-surface $-1 -36.695996448954745 11.804482898667786 5.0028266788803943 0.55919291073839883 0 -0.82903756765294845 0.41451878382647422 0 0.27959645536919941 1 I I 0 1 0.5 forward I I I I #
face $-1 $116 $117 $38 $-1 $118 reversed single #
loop $-1 $-1 $119 $48 #
plane-surface $-1 57.932737093648733 4.6839858207432972 115.51413613920712 0 -1 0 -0.80901700255871778 0 -0.5877852410284794 forward_v I I I I #
face $-1 $120 $121 $39 $-1 $122 forward single #
loop $-1 $123 $124 $49 #
cone-surface $-1 37.26666060975446 0.21766546913244866 4.4651854749321309 -0.80901700255871778 0 -0.5877852410284794 0.5877852410284794 0 -0.80901700255871778 1 I I 0 1 1 forward I I I I #
face $-1 $125 $126 $30 $-1 $127 reversed single #
loop $-1 $-1 $128 $50 #
plane-surface $-1 0 0 -7.5741547228983599 0 0 1 1 0 0 forward_v I I I I #
coedge $-1 $129 $130 $131 $132 forward $51 $-1 #
face $-1 $133 $134 $31 $-1 $135 reversed single #
loop $-1 $-1 $136 $53 #
plane-surface $-1 -36.25842651306052 -15.298342496990969 0 0 -1 0 0 0 -1 forward_v I I I I #
coedge $-1 $137 $138 $139 $140 forward $54 $-1 #
face $-1 $141 $142 $32 $-1 $143 reversed single #
loop $-1 $-1 $144 $56 #
plane-surface $-1 -40.162358470412322 -3.1666470565784763 3.2873552528316168 -0.55919291073839883 0 0.82903756765294845 0.82903756765294845 0 0.55919291073839883 forward_v I I I I #
coedge $-1 $145 $146 $147 $148 reversed $57 $-1 #
face $-1 $-1 $149 $33 $-1 $150 forward single #
loop $-1 $151 $152 $59 #
cone-surface $-1 -36.267556926803948 -4.7287379298974557 4.3676389779825655 0.55919291073839883 0 -0.82903756765294845 0.20725939191323711 0 0.13979822768459971 1 I I -0.70710678118654746 0.70710678118654746 0.25 forward I I I I #
loop $-1 $-1 $153 $43 #
coedge $-1 $96 $96 $154 $155 reversed $60 $-1 #
face $-1 $-1 $156 $34 $-1 $157 forward single #
loop $-1 $158 $159 $62 #
cone-surface $-1 -36.267556926803948 -1.604556183259497 4.3676389779825655 0.55919291073839883 0 -0.82903756765294845 0.20725939191323711 0 0.13979822768459971 1 I I -0.70710678118654746 0.70710678118654746 0.25 forward I I I I #
loop $-1 $-1 $160 $44 #
coedge $-1 $101 $101 $161 $162 reversed $63 $-1 #
face $-1 $163 $164 $35 $-1 $165 reversed single #
loop $-1 $-1 $166 $65 #
plane-surface $-1 -40.162358470412322 10.242392025348806 3.2873552528316168 -0.55919291073839883 0 0.82903756765294845 0.82903756765294845 0 0.55919291073839883 forward_v I I I I #
coedge $-1 $167 $168 $169 $170 reversed $66 $-1 #
face $-1 $-1 $171 $36 $-1 $172 forward single #
loop $-1 $173 $174 $68 #
cone-surface $-1 -36.267556926803948 8.6803011520298234 4.3676389779825655 0.55919291073839883 0 -0.82903756765294845 0.20725939191323711 0 0.13979822768459971 1 I I -0.70710678118654746 0.70710678118654746 0.25 forward I I I I #
loop $-1 $-1 $175 $46 #
coedge $-1 $110 $110 $176 $177 reversed $69 $-1 #
face $-1 $-1 $178 $37 $-1 $179 forward single #
loop $-1 $180 $181 $71 #
cone-surface $-1 -36.267556926803948 11.804482898667786 4.3676389779825655 0.55919291073839883 0 -0.82903756765294845 0.20725939191323711 0 0.13979822768459971 1 I I -0.70710678118654746 0.70710678118654746 0.25 forward I I I I #
loop $-1 $-1 $182 $47 #
coedge $-1 $115 $115 $183 $184 reversed $72 $-1 #
face $-1 $185 $186 $38 $-1 $187 reversed single #
loop $-1 $-1 $188 $74 #
plane-surface $-1 -7.0513246371946607 0.21766546913244866 68.300453031600142 0.80901700255871778 0 0.5877852410284794 0.5877852410284794 0 -0.80901700255871778 forward_v I I I I #
coedge $-1 $189 $190 $191 $192 reversed $75 $-1 #
face $-1 $-1 $193 $39 $-1 $194 forward single #
loop $-1 $195 $196 $77 #
cone-surface $-1 35.513177302716279 0.21766546913244866 3.1912053175224635 -0.80901700255871778 0 -0.5877852410284794 0.2938926205142397 0 -0.40450850127935889 1 I I -0.70710678118654746 0.70710678118654746 0.5 forward I I I I #
loop $-1 $-1 $197 $49 #
coedge $-1 $124 $124 $198 $199 reversed $78 $-1 #
face $-1 $200 $201 $30 $-1 $202 reversed single #
loop $-1 $-1 $203 $80 #
plane-surface $-1 0 -22.374087465761292 0 0 1 0 0 0 1 forward_v I I I I #
coedge $-1 $204 $205 $206 $207 forward $81 $-1 #
coedge $-1 $208 $83 $209 $210 forward $51 $-1 #
coedge $-1 $83 $208 $211 $212 forward $51 $-1 #
coedge $-1 $213 $214 $83 $132 reversed $215 $-1 #
edge $-1 $216 -22.374087465761292 $217 22.374087465761292 $131 $218 forward 7 unknown #
face $-1 $219 $220 $31 $-1 $221 forward single #
loop $-1 $-1 $222 $84 #
plane-surface $-1 -34.75842651306052 -18.836214981376131 0 -1 0 0 0 0 1 forward_v I I I I #
coedge $-1 $223 $224 $225 $226 forward $85 $-1 #
coedge $-1 $227 $87 $228 $229 reversed $54 $-1 #
coedge $-1 $87 $227 $230 $231 reversed $54 $-1 #
coedge $-1 $224 $223 $87 $140 reversed $85 $-1 #
edge $-1 $232 -7.5741547228983599 $233 7.5741547228983599 $139 $234 forward 7 unknown #
face $-1 $235 $236 $32 $-1 $237 reversed single #
loop $-1 $-1 $238 $88 #
plane-surface $-1 -85.079370740790011 0.47823164783247485 69.879563207864436 0 -1 0 0.55919291073839883 0 -0.82903756765294845 forward_v I I I I #
coedge $-1 $239 $240 $241 $242 reversed $89 $-1 #
coedge $-1 $146 $91 $243 $244 reversed $57 $-1 #
coedge $-1 $91 $145 $239 $245 reversed $57 $-1 #
coedge $-1 $241 $246 $91 $148 forward $247 $-1 #
edge $-1 $248 2.3773268999826982 $249 8.7327683539654117 $147 $250 forward 7 unknown #
loop $-1 $-1 $154 $92 #
plane-surface $-1 -40.162358470412322 -3.1666470565784763 3.2873552528316168 -0.55919291073839883 0 0.82903756765294845 0.82903756765294845 0 0.55919291073839883 forward_v I I I I #
loop $-1 $-1 $251 $59 #
coedge $-1 $152 $152 $153 $252 reversed $93 $-1 #
coedge $-1 $153 $153 $152 $252 forward $95 $-1 #
coedge $-1 $154 $154 $96 $155 forward $149 $-1 #
edge $-1 $253 0 $253 6.2831853071796004 $154 $254 forward 7 unknown #
loop $-1 $-1 $161 $97 #
plane-surface $-1 -40.162358470412322 -3.1666470565784763 3.2873552528316168 -0.55919291073839883 0 0.82903756765294845 0.82903756765294845 0 0.55919291073839883 forward_v I I I I #
loop $-1 $-1 $255 $62 #
coedge $-1 $159 $159 $160 $256 reversed $98 $-1 #
coedge $-1 $160 $160 $159 $256 forward $100 $-1 #
coedge $-1 $161 $161 $101 $162 forward $156 $-1 #
edge $-1 $257 0 $257 6.2831853071796004 $161 $258 forward 7 unknown #
face $-1 $259 $260 $35 $-1 $261 forward single #
loop $-1 $-1 $262 $102 #
plane-surface $-1 -85.079370740790011 13.887270729759758 69.879563207864436 0 -1 0 0.55919291073839883 0 -0.82903756765294845 forward_v I I I I #
coedge $-1 $263 $264 $265 $266 reversed $103 $-1 #
coedge $-1 $168 $105 $267 $268 reversed $66 $-1 #
coedge $-1 $105 $167 $263 $269 reversed $66 $-1 #
coedge $-1 $265 $270 $105 $170 forward $260 $-1 #
edge $-1 $271 2.3773268999826982 $272 8.7327683539654117 $169 $273 forward 7 unknown #
loop $-1 $-1 $176 $106 #
plane-surface $-1 -40.162358470412322 10.242392025348806 3.2873552528316168 -0.55919291073839883 0 0.82903756765294845 0.82903756765294845 0 0.55919291073839883 forward_v I I I I #
loop $-1 $-1 $274 $68 #
coedge $-1 $174 $174 $175 $275 reversed $107 $-1 #
coedge $-1 $175 $175 $174 $275 forward $109 $-1 #
coedge $-1 $176 $176 $110 $177 forward $171 $-1 #
edge $-1 $276 0 $276 6.2831853071796004 $176 $277 forward 7 unknown #
loop $-1 $-1 $183 $111 #
plane-surface $-1 -40.162358470412322 10.242392025348806 3.2873552528316168 -0.55919291073839883 0 0.82903756765294845 0.82903756765294845 0 0.55919291073839883 forward_v I I I I #
loop $-1 $-1 $278 $71 #
coedge $-1 $181 $181 $182 $279 reversed $112 $-1 #
coedge $-1 $182 $182 $181 $279 forward $114 $-1 #
coedge $-1 $183 $183 $115 $184 forward $178 $-1 #
edge $-1 $280 0 $280 6.2831853071796004 $183 $281 forward 7 unknown #
face $-1 $282 $283 $38 $-1 $284 forward single #
loop $-1 $-1 $285 $116 #
plane-surface $-1 57.932737093648733 -4.2486548824783998 115.51413613920712 0 1 0 0.80901700255871778 0 0.5877852410284794 forward_v I I I I #
coedge $-1 $286 $287 $288 $289 reversed $117 $-1 #
coedge $-1 $190 $119 $290 $291 reversed $75 $-1 #
coedge $-1 $119 $189 $286 $292 reversed $75 $-1 #
coedge $-1 $288 $293 $119 $192 forward $283 $-1 #
edge $-1 $294 -11.195989923587941 $295 -8.1025438137899037 $191 $296 forward 7 unknown #
loop $-1 $-1 $198 $120 #
plane-surface $-1 -7.0513246371946607 0.21766546913244866 68.300453031600142 0.80901700255871778 0 0.5877852410284794 0.5877852410284794 0 -0.80901700255871778 forward_v I I I I #
loop $-1 $-1 $297 $77 #
coedge $-1 $196 $196 $197 $298 reversed $121 $-1 #
coedge $-1 $197 $197 $196 $298 forward $123 $-1 #
coedge $-1 $198 $198 $124 $199 forward $193 $-1 #
edge $-1 $299 0 $299 6.2831853071796004 $198 $300 forward 7 unknown #
face $-1 $301 $302 $30 $-1 $303 reversed single #
loop $-1 $-1 $304 $125 #
plane-surface $-1 -40.162358470412308 0 0 1 0 0 0 0 -1 forward_v I I I I #
coedge $-1 $305 $211 $306 $307 forward $126 $-1 #
coedge $-1 $308 $128 $305 $309 forward $81 $-1 #
coedge $-1 $128 $308 $310 $311 forward $81 $-1 #
coedge $-1 $214 $213 $128 $207 reversed $215 $-1 #
edge $-1 $312 -22.374087465761292 $313 22.374087465761292 $206 $314 forward 7 unknown #
coedge $-1 $130 $129 $315 $316 forward $51 $-1 #
coedge $-1 $317 $318 $129 $210 reversed $302 $-1 #
edge $-1 $217 -40.162358470412308 $319 40.162358470412308 $209 $320 forward 7 unknown #
coedge $-1 $203 $321 $130 $212 reversed $126 $-1 #
edge $-1 $322 -40.162358470412308 $216 40.162358470412308 $211 $323 forward 7 unknown #
coedge $-1 $206 $131 $321 $324 forward $215 $-1 #
coedge $-1 $131 $206 $317 $325 reversed $215 $-1 #
loop $-1 $-1 $213 $301 #
vertex $-1 $132 $326 #
vertex $-1 $132 $327 #
straight-curve $-1 40.162358470412308 0 7.5741547228983599 0 1 0 I I #
face $-1 $328 $329 $31 $-1 $330 reversed single #
loop $-1 $-1 $331 $133 #
plane-surface $-1 0 0 7.5741547228983599 0 0 1 1 0 0 forward_v I I I I #
coedge $-1 $332 $333 $334 $335 reversed $134 $-1 #
coedge $-1 $139 $136 $336 $337 reversed $85 $-1 #
coedge $-1 $136 $139 $338 $339 reversed $85 $-1 #
coedge $-1 $333 $332 $136 $226 reversed $134 $-1 #
edge $-1 $340 -7.5741547228983599 $341 7.5741547228983599 $225 $342 forward 7 unknown #
coedge $-1 $138 $137 $343 $344 reversed $54 $-1 #
coedge $-1 $336 $345 $137 $229 forward $329 $-1 #
edge $-1 $346 -12.955979975073227 $233 -5.8802350063029039 $228 $347 forward 7 unknown #
coedge $-1 $348 $338 $138 $231 forward $220 $-1 #
edge $-1 $232 5.8802350063029039 $349 12.955979975073227 $230 $350 forward 7 unknown #
vertex $-1 $231 $351 #
vertex $-1 $229 $352 #
straight-curve $-1 -37.75842651306052 -15.298342496990969 0 0 0 -1 I I #
face $-1 $-1 $247 $32 $-1 $353 forward single #
loop $-1 $-1 $354 $141 #
plane-surface $-1 -40.162358470412308 0 0 1 0 0 0 0 -1 forward_v I I I I #
coedge $-1 $355 $356 $357 $358 reversed $142 $-1 #
coedge $-1 $359 $144 $146 $245 forward $89 $-1 #
coedge $-1 $144 $359 $355 $360 forward $89 $-1 #
coedge $-1 $357 $147 $144 $242 forward $247 $-1 #
edge $-1 $249 -5.2282022327001894 $361 2.061555176121713 $241 $362 forward 7 unknown #
coedge $-1 $363 $364 $145 $244 forward $236 $-1 #
edge $-1 $365 -31.652426351100591 $248 -27.365626881033858 $243 $366 forward 7 unknown #
edge $-1 $249 -7.6660475977890066 $365 -1.7244626260799089e-014 $146 $367 forward 7 unknown #
coedge $-1 $147 $357 $363 $368 forward $247 $-1 #
loop $-1 $-1 $357 $235 #
vertex $-1 $244 $369 #
vertex $-1 $148 $370 #
straight-curve $-1 -42.539685370395006 -6.8115257609894275 7.5741547228983599 1 0 0 I I #
coedge $-1 $251 $251 $-1 $371 reversed $151 $-1 #
edge $-1 $372 0 $372 6.2831853071796004 $152 $373 forward 7 unknown #
vertex $-1 $155 $374 #
ellipse-curve $-1 -36.984637743420947 -4.7287379298974557 5.4307549878649954 -0.55919291073839883 0 0.82903756765294845 0.41451878382647422 0 0.27959645536919941 1 I I #
coedge $-1 $255 $255 $-1 $375 reversed $158 $-1 #
edge $-1 $376 0 $376 6.2831853071796004 $159 $377 forward 7 unknown #
vertex $-1 $162 $378 #
ellipse-curve $-1 -36.984637743420947 -1.604556183259497 5.4307549878649954 -0.55919291073839883 0 0.82903756765294845 0.41451878382647422 0 0.27959645536919941 1 I I #
face $-1 $-1 $379 $35 $-1 $380 reversed single #
loop $-1 $-1 $169 $163 #
plane-surface $-1 0 0 7.5741547228983599 0 0 1 1 0 0 forward_v I I I I #
coedge $-1 $381 $382 $383 $384 reversed $164 $-1 #
coedge $-1 $385 $166 $168 $269 forward $103 $-1 #
coedge $-1 $166 $385 $381 $386 forward $103 $-1 #
coedge $-1 $383 $169 $166 $266 forward $260 $-1 #
edge $-1 $272 1.476317308263452 $387 8.7660747170853544 $265 $388 forward 7 unknown #
coedge $-1 $389 $390 $167 $268 forward $379 $-1 #
edge $-1 $391 -31.652426351100591 $271 -27.365626881033858 $267 $392 forward 7 unknown #
edge $-1 $272 -7.6660475977890066 $391 -1.7244626260799089e-014 $168 $393 forward 7 unknown #
coedge $-1 $169 $383 $389 $394 forward $260 $-1 #
vertex $-1 $268 $395 #
vertex $-1 $170 $396 #
straight-curve $-1 -42.539685370395006 6.5975133209378551 7.5741547228983599 1 0 0 I I #
coedge $-1 $274 $274 $-1 $397 reversed $173 $-1 #
edge $-1 $398 0 $398 6.2831853071796004 $174 $399 forward 7 unknown #
vertex $-1 $177 $400 #
ellipse-curve $-1 -36.984637743420947 8.6803011520298234 5.4307549878649954 -0.55919291073839883 0 0.82903756765294845 0.41451878382647422 0 0.27959645536919941 1 I I #
coedge $-1 $278 $278 $-1 $401 reversed $180 $-1 #
edge $-1 $402 0 $402 6.2831853071796004 $181 $403 forward 7 unknown #
vertex $-1 $184 $404 #
ellipse-curve $-1 -36.984637743420947 11.804482898667786 5.4307549878649954 -0.55919291073839883 0 0.82903756765294845 0.41451878382647422 0 0.27959645536919941 1 I I #
face $-1 $-1 $405 $38 $-1 $406 reversed single #
loop $-1 $-1 $191 $185 #
plane-surface $-1 0 0 7.5741547228983599 0 0 1 1 0 0 forward_v I I I I #
coedge $-1 $407 $408 $409 $410 reversed $186 $-1 #
coedge $-1 $411 $188 $190 $292 forward $117 $-1 #
coedge $-1 $188 $411 $407 $412 forward $117 $-1 #
coedge $-1 $409 $191 $188 $289 forward $283 $-1 #
edge $-1 $295 -4.5751530861770728 $413 4.3574876170446242 $288 $414 forward 7 unknown #
coedge $-1 $415 $416 $189 $291 forward $405 $-1 #
edge $-1 $417 -54.440676768846799 $294 -50.182913346705206 $290 $418 forward 7 unknown #
edge $-1 $295 75.061831972183214 $417 80.324716940824601 $190 $419 forward 7 unknown #
coedge $-1 $191 $409 $415 $420 forward $283 $-1 #
vertex $-1 $291 $421 #
vertex $-1 $192 $422 #
straight-curve $-1 28.966368546824366 4.6839858207432972 7.5741547228983563 -1 0 0 I I #
coedge $-1 $297 $297 $-1 $423 reversed $195 $-1 #
edge $-1 $424 0 $424 6.2831853071796004 $196 $425 forward 7 unknown #
vertex $-1 $199 $426 #
ellipse-curve $-1 38.615635415513289 0.21766546913244866 5.4452730118275614 0.80901700255871778 0 0.5877852410284794 0.5877852410284794 0 -0.80901700255871778 1 I I #
face $-1 $-1 $215 $30 $-1 $427 reversed single #
loop $-1 $-1 $317 $200 #
plane-surface $-1 0 22.374087465761292 0 0 -1 0 0 0 -1 forward_v I I I I #
coedge $-1 $428 $315 $318 $429 forward $201 $-1 #
coedge $-1 $321 $203 $204 $309 reversed $126 $-1 #
coedge $-1 $315 $428 $203 $307 reversed $201 $-1 #
edge $-1 $322 -7.5741547228983599 $430 7.5741547228983599 $306 $431 forward 7 unknown #
coedge $-1 $205 $204 $428 $432 forward $81 $-1 #
edge $-1 $313 -40.162358470412308 $430 40.162358470412308 $305 $433 forward 7 unknown #
coedge $-1 $318 $317 $205 $311 reversed $302 $-1 #
edge $-1 $434 -40.162358470412308 $312 40.162358470412308 $310 $435 forward 7 unknown #
vertex $-1 $207 $436 #
vertex $-1 $324 $437 #
straight-curve $-1 40.162358470412308 0 -7.5741547228983599 0 -1 0 I I #
coedge $-1 $304 $306 $208 $316 reversed $201 $-1 #
edge $-1 $319 -22.374087465761292 $322 22.374087465761292 $315 $438 forward 7 unknown #
coedge $-1 $310 $209 $214 $325 forward $302 $-1 #
coedge $-1 $209 $310 $304 $429 reversed $302 $-1 #
vertex $-1 $210 $439 #
straight-curve $-1 0 22.374087465761292 7.5741547228983599 -1 0 0 I I #
coedge $-1 $211 $305 $213 $324 reversed $126 $-1 #
vertex $-1 $316 $440 #
straight-curve $-1 0 -22.374087465761292 7.5741547228983599 1 0 0 I I #
edge $-1 $216 -7.5741547228983599 $313 7.5741547228983599 $213 $441 forward 7 unknown #
edge $-1 $217 -7.5741547228983599 $312 7.5741547228983599 $214 $442 forward 7 unknown #
point $-1 40.162358470412308 -22.374087465761292 7.5741547228983599 #
point $-1 40.162358470412308 22.374087465761292 7.5741547228983599 #
face $-1 $-1 $443 $31 $-1 $444 reversed single #
loop $-1 $-1 $445 $219 #
plane-surface $-1 0 0 -7.5741547228983599 0 0 1 1 0 0 forward_v I I I I #
coedge $-1 $338 $348 $333 $446 forward $220 $-1 #
coedge $-1 $225 $222 $445 $447 reversed $134 $-1 #
coedge $-1 $222 $225 $331 $446 reversed $134 $-1 #
coedge $-1 $448 $449 $222 $335 forward $443 $-1 #
edge $-1 $450 -7.5741547228983599 $451 7.5741547228983599 $334 $452 forward 7 unknown #
coedge $-1 $445 $228 $223 $337 forward $329 $-1 #
edge $-1 $233 -19.62921325653026 $341 -16.62921325653026 $336 $453 forward 7 unknown #
coedge $-1 $230 $331 $224 $339 forward $220 $-1 #
edge $-1 $340 16.62921325653026 $232 19.62921325653026 $338 $454 forward 7 unknown #
vertex $-1 $339 $455 #
vertex $-1 $337 $456 #
straight-curve $-1 -34.75842651306052 -15.298342496990969 0 0 0 -1 I I #
coedge $-1 $449 $448 $227 $344 forward $443 $-1 #
edge $-1 $349 -7.5741547228983599 $346 7.5741547228983599 $343 $457 forward 7 unknown #
coedge $-1 $228 $445 $449 $458 forward $329 $-1 #
vertex $-1 $229 $459 #
straight-curve $-1 -37.75842651306052 -9.4181074906880653 -7.5741547228983599 0 1 0 I I #
coedge $-1 $331 $230 $448 $460 forward $220 $-1 #
vertex $-1 $460 $461 #
straight-curve $-1 -37.75842651306052 -9.4181074906880653 7.5741547228983599 0 -1 0 I I #
point $-1 -37.75842651306052 -15.298342496990969 7.5741547228983599 #
point $-1 -37.75842651306052 -15.298342496990969 -7.5741547228983599 #
plane-surface $-1 0 0 7.5741547228983599 0 0 1 1 0 0 forward_v I I I I #
coedge $-1 $364 $363 $356 $462 forward $236 $-1 #
coedge $-1 $356 $238 $240 $360 reversed $142 $-1 #
coedge $-1 $238 $355 $354 $462 reversed $142 $-1 #
coedge $-1 $246 $241 $238 $358 forward $247 $-1 #
edge $-1 $361 -8.7327683539654117 $463 -2.3773268999826982 $357 $464 forward 7 unknown #
coedge $-1 $240 $239 $364 $465 reversed $89 $-1 #
edge $-1 $466 1.7244626260799089e-014 $361 7.6660475977890066 $355 $467 forward 7 unknown #
vertex $-1 $242 $468 #
straight-curve $-1 -33.806917016429594 -1.5833235282892382 7.5741547228983599 0 1 0 I I #
coedge $-1 $354 $243 $246 $368 reversed $236 $-1 #
coedge $-1 $243 $354 $359 $465 forward $236 $-1 #
vertex $-1 $244 $469 #
straight-curve $-1 -40.162358470412308 -6.8115257609894275 34.939781603932218 0 0 1 I I #
straight-curve $-1 -40.162358470412322 -6.8115257609894275 3.2873552528316168 -0.82903756765294845 0 -0.55919291073839883 I I #
edge $-1 $463 -0.47823164783247485 $248 6.8115257609894275 $363 $470 forward 7 unknown #
point $-1 -40.162358470412308 -6.8115257609894275 7.5741547228983599 #
point $-1 -33.806917016429594 -6.8115257609894275 7.5741547228983599 #
edge $-1 $471 1 $471 0 $251 $-1 forward 7 unknown #
vertex $-1 $252 $472 #
ellipse-curve $-1 -36.407355154488549 -4.7287379298974557 4.574898369895803 -0.55919291073839883 0 0.82903756765294845 0.41451878382647422 0 0.27959645536919941 1 I I #
point $-1 -36.570118959594467 -4.7287379298974557 5.7103514432341864 #
edge $-1 $473 1 $473 0 $255 $-1 forward 7 unknown #
vertex $-1 $256 $474 #
ellipse-curve $-1 -36.407355154488549 -1.604556183259497 4.574898369895803 -0.55919291073839883 0 0.82903756765294845 0.41451878382647422 0 0.27959645536919941 1 I I #
point $-1 -36.570118959594467 -1.604556183259497 5.7103514432341864 #
loop $-1 $-1 $267 $259 #
plane-surface $-1 -40.162358470412308 0 0 1 0 0 0 0 -1 forward_v I I I I #
coedge $-1 $382 $262 $264 $386 reversed $164 $-1 #
coedge $-1 $262 $381 $475 $476 reversed $164 $-1 #
coedge $-1 $270 $265 $262 $384 forward $260 $-1 #
edge $-1 $387 -8.7327683539654117 $477 -2.3773268999826982 $383 $478 forward 7 unknown #
coedge $-1 $264 $263 $390 $479 reversed $103 $-1 #
edge $-1 $480 1.7244626260799089e-014 $387 7.6660475977890066 $381 $481 forward 7 unknown #
vertex $-1 $266 $482 #
straight-curve $-1 -33.806917016429594 5.1211960126744032 7.5741547228983599 0 1 0 I I #
coedge $-1 $475 $267 $270 $394 reversed $379 $-1 #
coedge $-1 $267 $475 $385 $479 forward $379 $-1 #
vertex $-1 $268 $483 #
straight-curve $-1 -40.162358470412308 6.5975133209378551 34.939781603932218 0 0 1 I I #
straight-curve $-1 -40.162358470412322 6.5975133209378551 3.2873552528316168 -0.82903756765294845 0 -0.55919291073839883 I I #
edge $-1 $477 -13.887270729759758 $271 -6.5975133209378551 $389 $484 forward 7 unknown #
point $-1 -40.162358470412308 6.5975133209378551 7.5741547228983599 #
point $-1 -33.806917016429594 6.5975133209378551 7.5741547228983599 #
edge $-1 $485 1 $485 0 $274 $-1 forward 7 unknown #
vertex $-1 $275 $486 #
ellipse-curve $-1 -36.407355154488549 8.6803011520298234 4.574898369895803 -0.55919291073839883 0 0.82903756765294845 0.41451878382647422 0 0.27959645536919941 1 I I #
point $-1 -36.570118959594467 8.6803011520298234 5.7103514432341864 #
edge $-1 $487 1 $487 0 $278 $-1 forward 7 unknown #
vertex $-1 $279 $488 #
ellipse-curve $-1 -36.407355154488549 11.804482898667786 4.574898369895803 -0.55919291073839883 0 0.82903756765294845 0.41451878382647422 0 0.27959645536919941 1 I I #
point $-1 -36.570118959594467 11.804482898667786 5.7103514432341864 #
loop $-1 $-1 $290 $282 #
plane-surface $-1 40.162358470412308 0 0 -1 0 0 0 0 1 forward_v I I I I #
coedge $-1 $408 $285 $287 $412 reversed $186 $-1 #
coedge $-1 $285 $407 $489 $490 reversed $186 $-1 #
coedge $-1 $293 $288 $285 $410 forward $283 $-1 #
edge $-1 $413 8.1025438137899037 $491 11.195989923587941 $409 $492 forward 7 unknown #
coedge $-1 $287 $286 $416 $493 reversed $117 $-1 #
edge $-1 $494 -80.324716940824601 $413 -75.061831972183214 $407 $495 forward 7 unknown #
vertex $-1 $289 $496 #
straight-curve $-1 37.068912360614263 0.10883273456622433 7.5741547228983706 0 -1 0 I I #
coedge $-1 $489 $290 $293 $420 reversed $405 $-1 #
coedge $-1 $290 $489 $411 $493 forward $405 $-1 #
vertex $-1 $291 $497 #
straight-curve $-1 40.162358470412308 4.6839858207432972 57.757068069603562 0 0 1 I I #
straight-curve $-1 -7.0513246371946607 4.6839858207432972 68.300453031600142 0.5877852410284794 0 -0.80901700255871778 I I #
edge $-1 $491 -4.2486548824783998 $294 4.6839858207432972 $415 $498 forward 7 unknown #
point $-1 40.162358470412308 4.6839858207432972 7.5741547228983599 #
point $-1 37.06891236061427 4.6839858207432972 7.5741547228983492 #
edge $-1 $499 1 $499 0 $297 $-1 forward 7 unknown #
vertex $-1 $298 $500 #
ellipse-curve $-1 35.917685803995639 0.21766546913244866 3.4850979380367031 0.80901700255871778 0 0.5877852410284794 0.5877852410284794 0 -0.80901700255871778 1 I I #
point $-1 39.203420656541766 0.21766546913244866 4.6362560092688421 #
plane-surface $-1 40.162358470412308 0 0 -1 0 0 0 0 1 forward_v I I I I #
coedge $-1 $306 $304 $308 $432 reversed $201 $-1 #
edge $-1 $319 -7.5741547228983599 $434 7.5741547228983599 $318 $501 forward 7 unknown #
vertex $-1 $432 $502 #
straight-curve $-1 -40.162358470412308 -22.374087465761292 0 0 0 -1 I I #
edge $-1 $430 -22.374087465761292 $434 22.374087465761292 $428 $503 forward 7 unknown #
straight-curve $-1 0 -22.374087465761292 -7.5741547228983599 -1 0 0 I I #
vertex $-1 $311 $504 #
straight-curve $-1 0 22.374087465761292 -7.5741547228983599 1 0 0 I I #
point $-1 40.162358470412308 22.374087465761292 -7.5741547228983599 #
point $-1 40.162358470412308 -22.374087465761292 -7.5741547228983599 #
straight-curve $-1 -40.162358470412308 0 7.5741547228983599 0 -1 0 I I #
point $-1 -40.162358470412308 22.374087465761292 7.5741547228983599 #
point $-1 -40.162358470412308 -22.374087465761292 7.5741547228983599 #
straight-curve $-1 40.162358470412308 -22.374087465761292 0 0 0 -1 I I #
straight-curve $-1 40.162358470412308 22.374087465761292 0 0 0 -1 I I #
loop $-1 $-1 $334 $328 #
plane-surface $-1 0 -22.374087465761292 0 0 1 0 0 0 1 forward_v I I I I #
coedge $-1 $345 $336 $332 $447 forward $329 $-1 #
edge $-1 $451 -12.955979975073227 $340 -5.8802350063029039 $331 $505 forward 7 unknown #
edge $-1 $341 5.8802350063029039 $450 12.955979975073227 $445 $506 forward 7 unknown #
coedge $-1 $343 $334 $348 $460 reversed $443 $-1 #
coedge $-1 $334 $343 $345 $458 reversed $443 $-1 #
vertex $-1 $458 $507 #
vertex $-1 $335 $508 #
straight-curve $-1 -34.75842651306052 -22.374087465761292 0 0 0 1 I I #
straight-curve $-1 -18.12921325653026 -15.298342496990969 -7.5741547228983599 1 0 0 I I #
straight-curve $-1 -18.12921325653026 -15.298342496990969 7.5741547228983599 -1 0 0 I I #
point $-1 -34.75842651306052 -15.298342496990969 7.5741547228983599 #
point $-1 -34.75842651306052 -15.298342496990969 -7.5741547228983599 #
straight-curve $-1 -37.75842651306052 -22.374087465761292 0 0 0 -1 I I #
edge $-1 $450 34.75842651306052 $346 37.75842651306052 $449 $509 forward 7 unknown #
point $-1 -37.75842651306052 -22.374087465761292 -7.5741547228983599 #
edge $-1 $349 -37.75842651306052 $451 -34.75842651306052 $448 $510 forward 7 unknown #
point $-1 -37.75842651306052 -22.374087465761292 7.5741547228983599 #
edge $-1 $463 27.365626881033858 $466 31.652426351100591 $354 $511 forward 7 unknown #
vertex $-1 $368 $512 #
straight-curve $-1 -42.539685370395006 0.47823164783247485 7.5741547228983599 -1 0 0 I I #
edge $-1 $466 -2.061555176121713 $365 5.2282022327001894 $364 $513 forward 7 unknown #
vertex $-1 $465 $514 #
straight-curve $-1 -40.162358470412322 0.47823164783247485 3.2873552528316168 0.82903756765294845 0 0.55919291073839883 I I #
point $-1 -33.806917016429594 0.47823164783247485 7.5741547228983599 #
point $-1 -40.162358470412308 -6.8115257609894275 3.2873552528316266 #
straight-curve $-1 -40.162358470412308 0 7.5741547228983599 0 -1 0 I I #
vertex $-1 $371 $515 #
point $-1 -35.992836370662076 -4.7287379298974557 4.854494825265002 #
vertex $-1 $375 $516 #
point $-1 -35.992836370662076 -1.604556183259497 4.854494825265002 #
coedge $-1 $390 $389 $382 $476 forward $379 $-1 #
edge $-1 $477 27.365626881033858 $480 31.652426351100591 $475 $517 forward 7 unknown #
vertex $-1 $394 $518 #
straight-curve $-1 -42.539685370395006 13.887270729759758 7.5741547228983599 -1 0 0 I I #
edge $-1 $480 -8.7660747170853544 $391 -1.476317308263452 $390 $519 forward 7 unknown #
vertex $-1 $479 $520 #
straight-curve $-1 -40.162358470412322 13.887270729759758 3.2873552528316168 0.82903756765294845 0 0.55919291073839883 I I #
point $-1 -33.806917016429594 13.887270729759758 7.5741547228983599 #
point $-1 -40.162358470412308 6.5975133209378551 3.2873552528316266 #
straight-curve $-1 -40.162358470412308 0 7.5741547228983599 0 -1 0 I I #
vertex $-1 $397 $521 #
point $-1 -35.992836370662076 8.6803011520298234 4.854494825265002 #
vertex $-1 $401 $522 #
point $-1 -35.992836370662076 11.804482898667786 4.854494825265002 #
coedge $-1 $416 $415 $408 $490 forward $405 $-1 #
edge $-1 $491 50.182913346705206 $494 54.440676768846799 $489 $523 forward 7 unknown #
vertex $-1 $420 $524 #
straight-curve $-1 28.966368546824366 -4.2486548824783998 7.5741547228983563 1 0 0 I I #
edge $-1 $494 -4.3574876170446242 $417 4.5751530861770728 $416 $525 forward 7 unknown #
vertex $-1 $493 $526 #
straight-curve $-1 -7.0513246371946607 -4.2486548824783998 68.300453031600142 -0.5877852410284794 0 0.80901700255871778 I I #
point $-1 37.06891236061427 -4.2486548824783998 7.5741547228983492 #
point $-1 40.162358470412308 4.6839858207432972 3.3163913007567629 #
straight-curve $-1 40.162358470412308 0 7.5741547228983599 0 1 0 I I #
vertex $-1 $423 $527 #
point $-1 36.505471045024116 0.21766546913244866 2.6760809354779855 #
straight-curve $-1 -40.162358470412308 22.374087465761292 0 0 0 -1 I I #
point $-1 -40.162358470412308 -22.374087465761292 -7.5741547228983599 #
straight-curve $-1 -40.162358470412308 0 -7.5741547228983599 0 1 0 I I #
point $-1 -40.162358470412308 22.374087465761292 -7.5741547228983599 #
straight-curve $-1 -34.75842651306052 -9.4181074906880653 7.5741547228983599 0 1 0 I I #
straight-curve $-1 -34.75842651306052 -9.4181074906880653 -7.5741547228983599 0 -1 0 I I #
point $-1 -34.75842651306052 -22.374087465761292 -7.5741547228983599 #
point $-1 -34.75842651306052 -22.374087465761292 7.5741547228983599 #
straight-curve $-1 0 -22.374087465761292 -7.5741547228983599 -1 0 0 I I #
straight-curve $-1 0 -22.374087465761292 7.5741547228983599 1 0 0 I I #
straight-curve $-1 -40.162358470412308 0.47823164783247485 34.939781603932218 0 0 -1 I I #
point $-1 -40.162358470412308 0.47823164783247485 7.5741547228983599 #
straight-curve $-1 -40.162358470412308 -1.5833235282892382 3.2873552528316239 0 -1 0 I I #
point $-1 -40.162358470412308 0.47823164783247485 3.2873552528316266 #
point $-1 -36.127758699119347 -4.7287379298974557 4.160379586069328 #
point $-1 -36.127758699119347 -1.604556183259497 4.160379586069328 #
straight-curve $-1 -40.162358470412308 13.887270729759758 34.939781603932218 0 0 -1 I I #
point $-1 -40.162358470412308 13.887270729759758 7.5741547228983599 #
straight-curve $-1 -40.162358470412308 5.1211960126744032 3.2873552528316239 0 -1 0 I I #
point $-1 -40.162358470412308 13.887270729759758 3.2873552528316266 #
point $-1 -36.127758699119347 8.6803011520298234 4.160379586069328 #
point $-1 -36.127758699119347 11.804482898667786 4.160379586069328 #
straight-curve $-1 40.162358470412308 -4.2486548824783998 57.757068069603562 0 0 -1 I I #
point $-1 40.162358470412308 -4.2486548824783998 7.5741547228983599 #
straight-curve $-1 40.162358470412308 0.10883273456622433 3.3163913007567665 0 1 0 I I #
point $-1 40.162358470412308 -4.2486548824783998 3.3163913007567629 #
point $-1 35.10866880143692 0.21766546913244866 2.8973126970082239 #
End-of-ACIS-data 