500 0 10 0           
7 Unknown 11 ACIS 5.0 NT 24 Fri Mar 26 20:36:03 1999 
-1 9.9999999999999995e-007 1e-010 
body $-1 $10 $-1 $11 #
body $-1 $12 $-1 $13 #
body $-1 $14 $-1 $15 #
body $-1 $16 $-1 $17 #
body $-1 $18 $-1 $19 #
body $-1 $20 $-1 $21 #
body $-1 $22 $-1 $23 #
body $-1 $24 $-1 $25 #
body $-1 $26 $-1 $27 #
body $-1 $28 $-1 $29 #
lump $-1 $-1 $30 $0 #
transform $-1 1 0 0 0 1 0 0 0 1 40.952177495651114 20.581696798558994 9.0254952024443558 1 rotate no_reflect no_shear #
lump $-1 $-1 $31 $1 #
transform $-1 1 0 0 0 1 0 0 0 1 40.952177495651114 20.581696798558994 9.0254952024443558 1 rotate no_reflect no_shear #
lump $-1 $-1 $32 $2 #
transform $-1 1 0 0 0 1 0 0 0 1 40.952177495651114 20.581696798558994 9.0254952024443558 1 rotate no_reflect no_shear #
lump $-1 $-1 $33 $3 #
transform $-1 1 0 0 0 1 0 0 0 1 40.952177495651114 20.581696798558994 9.0254952024443558 1 rotate no_reflect no_shear #
lump $-1 $-1 $34 $4 #
transform $-1 1 0 0 0 1 0 0 0 1 40.952177495651114 20.581696798558994 9.0254952024443558 1 rotate no_reflect no_shear #
lump $-1 $-1 $35 $5 #
transform $-1 1 0 0 0 1 0 0 0 1 40.952177495651114 20.581696798558994 9.0254952024443558 1 rotate no_reflect no_shear #
lump $-1 $-1 $36 $6 #
transform $-1 1 0 0 0 1 0 0 0 1 40.952177495651114 20.581696798558994 9.0254952024443558 1 rotate no_reflect no_shear #
lump $-1 $-1 $37 $7 #
transform $-1 1 0 0 0 1 0 0 0 1 40.952177495651114 20.581696798558994 9.0254952024443558 1 rotate no_reflect no_shear #
lump $-1 $-1 $38 $8 #
transform $-1 1 0 0 0 1 0 0 0 1 40.952177495651114 20.581696798558994 9.0254952024443558 1 rotate no_reflect no_shear #
lump $-1 $-1 $39 $9 #
transform $-1 1 0 0 0 1 0 0 0 1 40.952177495651114 20.581696798558994 9.0254952024443558 1 rotate no_reflect no_shear #
shell $-1 $-1 $-1 $40 $-1 $10 #
shell $-1 $-1 $-1 $41 $-1 $12 #
shell $-1 $-1 $-1 $42 $-1 $14 #
shell $-1 $-1 $-1 $43 $-1 $16 #
shell $-1 $-1 $-1 $44 $-1 $18 #
shell $-1 $-1 $-1 $45 $-1 $20 #
shell $-1 $-1 $-1 $46 $-1 $22 #
shell $-1 $-1 $-1 $47 $-1 $24 #
shell $-1 $-1 $-1 $48 $-1 $26 #
shell $-1 $-1 $-1 $49 $-1 $28 #
face $-1 $50 $51 $30 $-1 $52 forward single #
face $-1 $53 $54 $31 $-1 $55 forward single #
face $-1 $56 $57 $32 $-1 $58 reversed single #
face $-1 $59 $60 $33 $-1 $61 forward single #
face $-1 $62 $63 $34 $-1 $64 forward single #
face $-1 $65 $66 $35 $-1 $67 forward single #
face $-1 $68 $69 $36 $-1 $70 reversed single #
face $-1 $71 $72 $37 $-1 $73 forward single #
face $-1 $74 $75 $38 $-1 $76 forward single #
face $-1 $77 $78 $39 $-1 $79 forward single #
face $-1 $80 $81 $30 $-1 $82 reversed single #
loop $-1 $-1 $83 $40 #
plane-surface $-1 0 0 9.0254952024443558 0 0 1 1 0 0 forward_v I I I I #
face $-1 $84 $85 $31 $-1 $86 reversed single #
loop $-1 $-1 $87 $41 #
plane-surface $-1 -36.281448609191898 0 -1.6203947311831848 0 0 1 1 0 0 forward_v I I I I #
face $-1 $88 $89 $32 $-1 $90 reversed single #
loop $-1 $-1 $91 $42 #
plane-surface $-1 -12.718921354798292 56.864754515239085 84.660411438933295 1 0 0 0 -0.7660444514056185 -0.64278759981090561 forward_v I I I I #
face $-1 $92 $93 $33 $-1 $94 forward single #
loop $-1 $95 $96 $43 #
cone-surface $-1 -9.2024100168985683 15.924500074040118 3.8533337326917532 0 -0.7660444514056185 -0.64278759981090561 1 0 0 1 I I 0 1 1 forward I I I I #
face $-1 $97 $98 $34 $-1 $99 forward single #
loop $-1 $100 $101 $44 #
cone-surface $-1 -3.9276430100489819 15.924500074040118 3.8533337326917532 0 -0.7660444514056185 -0.64278759981090561 1 0 0 1 I I 0 1 1 forward I I I I #
face $-1 $102 $103 $35 $-1 $104 forward single #
loop $-1 $105 $106 $45 #
cone-surface $-1 1.3471239968006046 15.924500074040118 3.8533337326917532 0 -0.7660444514056185 -0.64278759981090561 1 0 0 1 I I 0 1 1 forward I I I I #
face $-1 $107 $108 $36 $-1 $109 reversed single #
loop $-1 $-1 $110 $46 #
plane-surface $-1 -4.1363294614386295 -79.498759839671493 58.444443235460433 -1 0 0 0 -0.71933980857756763 0.69465836192734942 forward_v I I I I #
face $-1 $111 $112 $37 $-1 $113 forward single #
loop $-1 $114 $115 $47 #
cone-surface $-1 -20.922857859237681 -16.2233240088968 4.5645332027027825 0 0.71933980857756763 -0.69465836192734942 1 0 0 1 I I 0 1 1 forward I I I I #
face $-1 $116 $117 $38 $-1 $118 forward single #
loop $-1 $119 $120 $48 #
cone-surface $-1 -14.627909710063037 -16.2233240088968 4.5645332027027825 0 0.71933980857756763 -0.69465836192734942 1 0 0 1 I I 0 1 1 forward I I I I #
face $-1 $121 $122 $39 $-1 $123 forward single #
loop $-1 $124 $125 $49 #
cone-surface $-1 -8.3329615608883927 -16.2233240088968 4.5645332027027825 0 0.71933980857756763 -0.69465836192734942 1 0 0 1 I I 0 1 1 forward I I I I #
face $-1 $126 $127 $30 $-1 $128 reversed single #
loop $-1 $-1 $129 $50 #
plane-surface $-1 0 0 -9.0254952024443558 0 0 1 1 0 0 forward_v I I I I #
coedge $-1 $130 $131 $132 $133 forward $51 $-1 #
face $-1 $134 $135 $31 $-1 $136 reversed single #
loop $-1 $-1 $137 $53 #
plane-surface $-1 -36.281448609191898 0 -5.7308554052173388 0 0 1 1 0 0 forward_v I I I I #
coedge $-1 $138 $139 $140 $141 forward $54 $-1 #
face $-1 $142 $143 $32 $-1 $144 reversed single #
loop $-1 $-1 $145 $56 #
plane-surface $-1 -3.9276430100489748 -5.8776221718040631 32.013307680013767 0 0.7660444514056185 0.64278759981090561 1 0 0 forward_v I I I I #
coedge $-1 $146 $147 $148 $149 reversed $57 $-1 #
face $-1 $-1 $150 $33 $-1 $151 forward single #
loop $-1 $152 $153 $59 #
cone-surface $-1 -9.2024100168985683 14.469408375754909 2.6323668572978907 0 -0.7660444514056185 -0.64278759981090561 0.5 0 0 1 I I -0.70710678118654746 0.70710678118654746 0.5 forward I I I I #
loop $-1 $-1 $154 $43 #
coedge $-1 $96 $96 $155 $156 reversed $60 $-1 #
face $-1 $-1 $157 $34 $-1 $158 forward single #
loop $-1 $159 $160 $62 #
cone-surface $-1 -3.9276430100489819 14.469408375754909 2.6323668572978907 0 -0.7660444514056185 -0.64278759981090561 0.5 0 0 1 I I -0.70710678118654746 0.70710678118654746 0.5 forward I I I I #
loop $-1 $-1 $161 $44 #
coedge $-1 $101 $101 $162 $163 reversed $63 $-1 #
face $-1 $-1 $164 $35 $-1 $165 forward single #
loop $-1 $166 $167 $65 #
cone-surface $-1 1.3471239968006046 14.469408375754909 2.6323668572978907 0 -0.7660444514056185 -0.64278759981090561 0.5 0 0 1 I I -0.70710678118654746 0.70710678118654746 0.5 forward I I I I #
loop $-1 $-1 $168 $45 #
coedge $-1 $106 $106 $169 $170 reversed $66 $-1 #
face $-1 $171 $172 $36 $-1 $173 reversed single #
loop $-1 $-1 $174 $68 #
plane-surface $-1 -14.627909710063037 -20.581696798559001 1.548898162486303 0 -0.71933980857756763 0.69465836192734942 1 0 0 forward_v I I I I #
coedge $-1 $175 $176 $177 $178 reversed $69 $-1 #
face $-1 $-1 $179 $37 $-1 $180 forward single #
loop $-1 $181 $182 $71 #
cone-surface $-1 -20.922857859237681 -15.115314146882493 3.4945405419765567 0 0.71933980857756763 -0.69465836192734942 0.5 0 0 1 I I -0.70710678118654746 0.70710678118654746 0.5 forward I I I I #
loop $-1 $-1 $183 $47 #
coedge $-1 $115 $115 $184 $185 reversed $72 $-1 #
face $-1 $-1 $186 $38 $-1 $187 forward single #
loop $-1 $188 $189 $74 #
cone-surface $-1 -14.627909710063037 -15.115314146882493 3.4945405419765567 0 0.71933980857756763 -0.69465836192734942 0.5 0 0 1 I I -0.70710678118654746 0.70710678118654746 0.5 forward I I I I #
loop $-1 $-1 $190 $48 #
coedge $-1 $120 $120 $191 $192 reversed $75 $-1 #
face $-1 $-1 $193 $39 $-1 $194 forward single #
loop $-1 $195 $196 $77 #
cone-surface $-1 -8.3329615608883927 -15.115314146882493 3.4945405419765567 0 0.71933980857756763 -0.69465836192734942 0.5 0 0 1 I I -0.70710678118654746 0.70710678118654746 0.5 forward I I I I #
loop $-1 $-1 $197 $49 #
coedge $-1 $125 $125 $198 $199 reversed $78 $-1 #
face $-1 $200 $201 $30 $-1 $202 reversed single #
loop $-1 $-1 $203 $80 #
plane-surface $-1 0 -20.581696798558994 0 0 1 0 0 0 1 forward_v I I I I #
coedge $-1 $204 $205 $206 $207 forward $81 $-1 #
coedge $-1 $208 $83 $209 $210 forward $51 $-1 #
coedge $-1 $83 $208 $211 $212 forward $51 $-1 #
coedge $-1 $213 $214 $83 $133 reversed $215 $-1 #
edge $-1 $216 -20.581696798558994 $217 20.581696798558994 $132 $218 forward 7 unknown #
face $-1 $219 $220 $31 $-1 $221 reversed single #
loop $-1 $-1 $222 $84 #
plane-surface $-1 -31.610719722732682 0 -3.6756250682002616 -1 0 0 0 0 1 forward_v I I I I #
coedge $-1 $223 $224 $225 $226 forward $85 $-1 #
coedge $-1 $227 $87 $228 $229 reversed $54 $-1 #
coedge $-1 $87 $227 $230 $231 reversed $54 $-1 #
coedge $-1 $222 $232 $87 $141 reversed $135 $-1 #
edge $-1 $233 -20.581696798558994 $234 20.581696798558994 $140 $235 forward 7 unknown #
face $-1 $236 $237 $32 $-1 $238 forward single #
loop $-1 $-1 $239 $88 #
plane-surface $-1 4.8636353347003425 56.864754515239085 84.660411438933295 -1 0 0 0 0.7660444514056185 0.64278759981090561 forward_v I I I I #
coedge $-1 $240 $241 $242 $243 reversed $89 $-1 #
coedge $-1 $147 $91 $244 $245 reversed $57 $-1 #
coedge $-1 $91 $146 $240 $246 reversed $57 $-1 #
coedge $-1 $242 $247 $91 $149 forward $237 $-1 #
edge $-1 $248 7.8506804590605483 $249 15.020934962933488 $148 $250 forward 7 unknown #
loop $-1 $-1 $155 $92 #
plane-surface $-1 -3.9276430100489748 -5.8776221718040631 32.013307680013767 0 0.7660444514056185 0.64278759981090561 1 0 0 forward_v I I I I #
loop $-1 $-1 $251 $59 #
coedge $-1 $153 $153 $154 $252 reversed $93 $-1 #
coedge $-1 $154 $154 $153 $252 forward $95 $-1 #
coedge $-1 $155 $155 $96 $156 forward $150 $-1 #
edge $-1 $253 1.9540845506334825e-016 $253 6.2831853071796004 $155 $254 forward 7 unknown #
loop $-1 $-1 $162 $97 #
plane-surface $-1 -3.9276430100489748 -5.8776221718040631 32.013307680013767 0 0.7660444514056185 0.64278759981090561 1 0 0 forward_v I I I I #
loop $-1 $-1 $255 $62 #
coedge $-1 $160 $160 $161 $256 reversed $98 $-1 #
coedge $-1 $161 $161 $160 $256 forward $100 $-1 #
coedge $-1 $162 $162 $101 $163 forward $157 $-1 #
edge $-1 $257 1.9540845506334825e-016 $257 6.2831853071796004 $162 $258 forward 7 unknown #
loop $-1 $-1 $169 $102 #
plane-surface $-1 -3.9276430100489748 -5.8776221718040631 32.013307680013767 0 0.7660444514056185 0.64278759981090561 1 0 0 forward_v I I I I #
loop $-1 $-1 $259 $65 #
coedge $-1 $167 $167 $168 $260 reversed $103 $-1 #
coedge $-1 $168 $168 $167 $260 forward $105 $-1 #
coedge $-1 $169 $169 $106 $170 forward $164 $-1 #
edge $-1 $261 1.9540845506334825e-016 $261 6.2831853071796004 $169 $262 forward 7 unknown #
face $-1 $263 $264 $36 $-1 $265 reversed single #
loop $-1 $-1 $266 $107 #
plane-surface $-1 -25.119489958687446 -79.498759839671493 58.444443235460433 1 0 0 0 0.71933980857756763 -0.69465836192734942 forward_v I I I I #
coedge $-1 $267 $268 $269 $270 reversed $108 $-1 #
coedge $-1 $176 $110 $271 $272 reversed $69 $-1 #
coedge $-1 $110 $175 $267 $273 reversed $69 $-1 #
coedge $-1 $269 $274 $110 $178 forward $275 $-1 #
edge $-1 $276 19.167683121276752 $277 26.387748785150105 $177 $278 forward 7 unknown #
loop $-1 $-1 $184 $111 #
plane-surface $-1 -14.627909710063037 -20.581696798559001 1.548898162486303 0 -0.71933980857756763 0.69465836192734942 1 0 0 forward_v I I I I #
loop $-1 $-1 $279 $71 #
coedge $-1 $182 $182 $183 $280 reversed $112 $-1 #
coedge $-1 $183 $183 $182 $280 forward $114 $-1 #
coedge $-1 $184 $184 $115 $185 forward $179 $-1 #
edge $-1 $281 0 $281 6.2831853071796004 $184 $282 forward 7 unknown #
loop $-1 $-1 $191 $116 #
plane-surface $-1 -14.627909710063037 -20.581696798559001 1.548898162486303 0 -0.71933980857756763 0.69465836192734942 1 0 0 forward_v I I I I #
loop $-1 $-1 $283 $74 #
coedge $-1 $189 $189 $190 $284 reversed $117 $-1 #
coedge $-1 $190 $190 $189 $284 forward $119 $-1 #
coedge $-1 $191 $191 $120 $192 forward $186 $-1 #
edge $-1 $285 0 $285 6.2831853071796004 $191 $286 forward 7 unknown #
loop $-1 $-1 $198 $121 #
plane-surface $-1 -14.627909710063037 -20.581696798559001 1.548898162486303 0 -0.71933980857756763 0.69465836192734942 1 0 0 forward_v I I I I #
loop $-1 $-1 $287 $77 #
coedge $-1 $196 $196 $197 $288 reversed $122 $-1 #
coedge $-1 $197 $197 $196 $288 forward $124 $-1 #
coedge $-1 $198 $198 $125 $199 forward $193 $-1 #
edge $-1 $289 0 $289 6.2831853071796004 $198 $290 forward 7 unknown #
face $-1 $291 $292 $30 $-1 $293 reversed single #
loop $-1 $-1 $294 $126 #
plane-surface $-1 -40.952177495651114 0 0 1 0 0 0 0 -1 forward_v I I I I #
coedge $-1 $295 $211 $296 $297 forward $127 $-1 #
coedge $-1 $298 $129 $295 $299 forward $81 $-1 #
coedge $-1 $129 $298 $300 $301 forward $81 $-1 #
coedge $-1 $214 $213 $129 $207 reversed $215 $-1 #
edge $-1 $302 -20.581696798558994 $303 20.581696798558994 $206 $304 forward 7 unknown #
coedge $-1 $131 $130 $305 $306 forward $51 $-1 #
coedge $-1 $307 $308 $130 $210 reversed $292 $-1 #
edge $-1 $217 -40.952177495651114 $309 40.952177495651114 $209 $310 forward 7 unknown #
coedge $-1 $203 $311 $131 $212 reversed $127 $-1 #
edge $-1 $312 -40.952177495651114 $216 40.952177495651114 $211 $313 forward 7 unknown #
coedge $-1 $206 $132 $311 $314 forward $215 $-1 #
coedge $-1 $132 $206 $307 $315 reversed $215 $-1 #
loop $-1 $-1 $213 $291 #
vertex $-1 $133 $316 #
vertex $-1 $133 $317 #
straight-curve $-1 40.952177495651114 0 9.0254952024443558 0 1 0 I I #
face $-1 $318 $319 $31 $-1 $320 reversed single #
loop $-1 $-1 $321 $134 #
plane-surface $-1 0 -20.581696798558994 0 0 1 0 0 0 1 forward_v I I I I #
coedge $-1 $225 $140 $322 $323 reversed $135 $-1 #
coedge $-1 $324 $137 $321 $325 reversed $85 $-1 #
coedge $-1 $137 $324 $326 $327 reversed $85 $-1 #
coedge $-1 $232 $222 $137 $226 reversed $135 $-1 #
edge $-1 $328 -20.581696798558994 $329 20.581696798558994 $225 $330 forward 7 unknown #
coedge $-1 $139 $138 $331 $332 reversed $54 $-1 #
coedge $-1 $333 $334 $138 $229 forward $335 $-1 #
edge $-1 $336 -22.811453191055165 $234 -13.469995418136733 $228 $337 forward 7 unknown #
coedge $-1 $338 $322 $139 $231 forward $220 $-1 #
edge $-1 $233 13.469995418136733 $339 22.811453191055165 $230 $340 forward 7 unknown #
coedge $-1 $140 $225 $333 $341 reversed $135 $-1 #
vertex $-1 $231 $342 #
vertex $-1 $229 $343 #
straight-curve $-1 -31.610719722732682 0 -1.6203947311831848 0 1 0 I I #
face $-1 $-1 $344 $32 $-1 $345 reversed single #
loop $-1 $-1 $148 $142 #
plane-surface $-1 0 0 9.0254952024443558 0 0 1 1 0 0 forward_v I I I I #
coedge $-1 $346 $347 $348 $349 reversed $143 $-1 #
coedge $-1 $350 $145 $147 $246 forward $89 $-1 #
coedge $-1 $145 $350 $346 $351 forward $89 $-1 #
coedge $-1 $348 $148 $145 $243 forward $237 $-1 #
edge $-1 $249 -10.755099849773805 $352 6.8274568397248299 $242 $353 forward 7 unknown #
coedge $-1 $354 $355 $146 $245 forward $344 $-1 #
edge $-1 $356 -41.849887305550666 $248 -33.304710517022293 $244 $357 forward 7 unknown #
edge $-1 $249 30.008457649407912 $356 41.163393597117981 $147 $358 forward 7 unknown #
coedge $-1 $148 $348 $354 $359 forward $237 $-1 #
vertex $-1 $245 $360 #
vertex $-1 $149 $361 #
straight-curve $-1 -12.718921354798292 28.432377257619542 9.025495202444354 0 -1 0 I I #
coedge $-1 $251 $251 $-1 $362 reversed $152 $-1 #
edge $-1 $363 0 $363 6.2831853071796004 $153 $364 forward 7 unknown #
vertex $-1 $156 $365 #
ellipse-curve $-1 -9.2024100168985683 16.996569546622524 4.7529068081801684 0 0.7660444514056185 0.64278759981090561 1 0 0 1 I I #
coedge $-1 $255 $255 $-1 $366 reversed $159 $-1 #
edge $-1 $367 0 $367 6.2831853071796004 $160 $368 forward 7 unknown #
vertex $-1 $163 $369 #
ellipse-curve $-1 -3.9276430100489819 16.996569546622524 4.7529068081801684 0 0.7660444514056185 0.64278759981090561 1 0 0 1 I I #
coedge $-1 $259 $259 $-1 $370 reversed $166 $-1 #
edge $-1 $371 0 $371 6.2831853071796004 $167 $372 forward 7 unknown #
vertex $-1 $170 $373 #
ellipse-curve $-1 1.3471239968006046 16.996569546622524 4.7529068081801684 0 0.7660444514056185 0.64278759981090561 1 0 0 1 I I #
face $-1 $-1 $275 $36 $-1 $374 forward single #
loop $-1 $-1 $375 $171 #
plane-surface $-1 0 -20.581696798558994 0 0 1 0 0 0 1 forward_v I I I I #
coedge $-1 $376 $377 $378 $379 reversed $172 $-1 #
coedge $-1 $380 $174 $176 $273 forward $108 $-1 #
coedge $-1 $174 $380 $376 $381 forward $108 $-1 #
coedge $-1 $378 $177 $174 $270 forward $275 $-1 #
edge $-1 $277 -3.1776253935928889 $382 17.805535103655927 $269 $383 forward 7 unknown #
coedge $-1 $384 $385 $175 $272 forward $264 $-1 #
edge $-1 $386 -27.673323455243906 $276 -20.196726415285859 $271 $387 forward 7 unknown #
edge $-1 $277 -10.393692870609204 $386 -1.0206786807905858e-014 $176 $388 forward 7 unknown #
coedge $-1 $177 $378 $384 $389 forward $275 $-1 #
loop $-1 $-1 $378 $263 #
vertex $-1 $272 $390 #
vertex $-1 $178 $391 #
straight-curve $-1 -4.1363294614386295 -39.749379919835746 9.025495202444354 0 1 0 I I #
coedge $-1 $279 $279 $-1 $392 reversed $181 $-1 #
edge $-1 $393 0 $393 6.2831853071796004 $182 $394 forward 7 unknown #
vertex $-1 $185 $395 #
ellipse-curve $-1 -20.922857859237681 -16.971663966622319 5.287196682465332 0 -0.71933980857756763 0.69465836192734942 1 0 0 1 I I #
coedge $-1 $283 $283 $-1 $396 reversed $188 $-1 #
edge $-1 $397 0 $397 6.2831853071796004 $189 $398 forward 7 unknown #
vertex $-1 $192 $399 #
ellipse-curve $-1 -14.627909710063037 -16.971663966622319 5.287196682465332 0 -0.71933980857756763 0.69465836192734942 1 0 0 1 I I #
coedge $-1 $287 $287 $-1 $400 reversed $195 $-1 #
edge $-1 $401 0 $401 6.2831853071796004 $196 $402 forward 7 unknown #
vertex $-1 $199 $403 #
ellipse-curve $-1 -8.3329615608883927 -16.971663966622319 5.287196682465332 0 -0.71933980857756763 0.69465836192734942 1 0 0 1 I I #
face $-1 $-1 $215 $30 $-1 $404 reversed single #
loop $-1 $-1 $307 $200 #
plane-surface $-1 0 20.581696798558994 0 0 -1 0 0 0 -1 forward_v I I I I #
coedge $-1 $405 $305 $308 $406 forward $201 $-1 #
coedge $-1 $311 $203 $204 $299 reversed $127 $-1 #
coedge $-1 $305 $405 $203 $297 reversed $201 $-1 #
edge $-1 $312 -9.0254952024443558 $407 9.0254952024443558 $296 $408 forward 7 unknown #
coedge $-1 $205 $204 $405 $409 forward $81 $-1 #
edge $-1 $303 -40.952177495651114 $407 40.952177495651114 $295 $410 forward 7 unknown #
coedge $-1 $308 $307 $205 $301 reversed $292 $-1 #
edge $-1 $411 -40.952177495651114 $302 40.952177495651114 $300 $412 forward 7 unknown #
vertex $-1 $207 $413 #
vertex $-1 $314 $414 #
straight-curve $-1 40.952177495651114 0 -9.0254952024443558 0 -1 0 I I #
coedge $-1 $294 $296 $208 $306 reversed $201 $-1 #
edge $-1 $309 -20.581696798558994 $312 20.581696798558994 $305 $415 forward 7 unknown #
coedge $-1 $300 $209 $214 $315 forward $292 $-1 #
coedge $-1 $209 $300 $294 $406 reversed $292 $-1 #
vertex $-1 $210 $416 #
straight-curve $-1 0 20.581696798558994 9.0254952024443558 -1 0 0 I I #
coedge $-1 $211 $295 $213 $314 reversed $127 $-1 #
vertex $-1 $306 $417 #
straight-curve $-1 0 -20.581696798558994 9.0254952024443558 1 0 0 I I #
edge $-1 $216 -9.0254952024443558 $303 9.0254952024443558 $213 $418 forward 7 unknown #
edge $-1 $217 -9.0254952024443558 $302 9.0254952024443558 $214 $419 forward 7 unknown #
point $-1 40.952177495651114 -20.581696798558994 9.0254952024443558 #
point $-1 40.952177495651114 20.581696798558994 9.0254952024443558 #
face $-1 $-1 $335 $31 $-1 $420 reversed single #
loop $-1 $-1 $421 $219 #
plane-surface $-1 -40.952177495651114 0 0 1 0 0 0 0 -1 forward_v I I I I #
coedge $-1 $322 $338 $223 $325 forward $220 $-1 #
coedge $-1 $230 $321 $222 $323 forward $220 $-1 #
edge $-1 $329 -3.893042871117208 $233 0.21741780291694601 $322 $422 forward 7 unknown #
coedge $-1 $224 $223 $421 $423 reversed $85 $-1 #
edge $-1 $424 -22.811453191055165 $329 -13.469995418136733 $321 $425 forward 7 unknown #
coedge $-1 $334 $333 $224 $327 forward $335 $-1 #
edge $-1 $328 13.469995418136733 $426 22.811453191055165 $326 $427 forward 7 unknown #
vertex $-1 $327 $428 #
vertex $-1 $325 $429 #
straight-curve $-1 -31.610719722732682 0 -5.7308554052173388 0 -1 0 I I #
coedge $-1 $430 $431 $227 $332 forward $319 $-1 #
edge $-1 $339 -20.581696798558994 $336 20.581696798558994 $331 $432 forward 7 unknown #
coedge $-1 $326 $228 $232 $341 forward $335 $-1 #
coedge $-1 $228 $326 $430 $433 reversed $335 $-1 #
loop $-1 $-1 $326 $318 #
vertex $-1 $433 $434 #
straight-curve $-1 -18.140724304595949 20.581696798558994 -1.6203947311831848 1 0 0 I I #
coedge $-1 $321 $230 $431 $435 forward $220 $-1 #
vertex $-1 $435 $436 #
straight-curve $-1 -18.140724304595949 -20.581696798558994 -1.6203947311831848 -1 0 0 I I #
edge $-1 $234 -0.21741780291694601 $328 3.893042871117208 $333 $437 forward 7 unknown #
point $-1 -31.610719722732682 -20.581696798558994 -1.6203947311831848 #
point $-1 -31.610719722732682 20.581696798558994 -1.6203947311831848 #
loop $-1 $-1 $244 $236 #
plane-surface $-1 0 20.581696798558994 0 0 -1 0 0 0 -1 forward_v I I I I #
coedge $-1 $347 $239 $241 $351 reversed $143 $-1 #
coedge $-1 $239 $346 $438 $439 reversed $143 $-1 #
coedge $-1 $247 $242 $239 $349 forward $237 $-1 #
edge $-1 $352 -15.020934962933488 $440 -7.8506804590605483 $348 $441 forward 7 unknown #
coedge $-1 $241 $240 $355 $442 reversed $89 $-1 #
edge $-1 $443 -41.163393597117981 $352 -30.008457649407912 $346 $444 forward 7 unknown #
vertex $-1 $243 $445 #
straight-curve $-1 -1.9638215050244874 13.411442294686051 9.0254952024443558 1 0 0 I I #
coedge $-1 $438 $244 $247 $359 reversed $344 $-1 #
coedge $-1 $244 $438 $350 $442 forward $344 $-1 #
vertex $-1 $245 $446 #
straight-curve $-1 -12.718921354798292 20.581696798558994 42.330205719466647 0 0 1 I I #
straight-curve $-1 -12.718921354798292 -5.8776221718040631 32.013307680013767 0 0.64278759981090561 -0.7660444514056185 I I #
edge $-1 $440 -4.8636353347003425 $248 12.718921354798292 $354 $447 forward 7 unknown #
point $-1 -12.718921354798292 20.581696798558994 9.0254952024443558 #
point $-1 -12.718921354798292 13.411442294686054 9.025495202444354 #
edge $-1 $448 1 $448 0 $251 $-1 forward 7 unknown #
vertex $-1 $252 $449 #
ellipse-curve $-1 -9.2024100168985683 14.852430601457719 2.9537606572033432 0 0.7660444514056185 0.64278759981090561 1 0 0 1 I I #
point $-1 -8.2024100168985683 16.996569546622517 4.7529068081801622 #
edge $-1 $450 1 $450 0 $255 $-1 forward 7 unknown #
vertex $-1 $256 $451 #
ellipse-curve $-1 -3.9276430100489819 14.852430601457719 2.9537606572033432 0 0.7660444514056185 0.64278759981090561 1 0 0 1 I I #
point $-1 -2.9276430100489819 16.996569546622517 4.7529068081801622 #
edge $-1 $452 1 $452 0 $259 $-1 forward 7 unknown #
vertex $-1 $260 $453 #
ellipse-curve $-1 1.3471239968006046 14.852430601457719 2.9537606572033432 0 0.7660444514056185 0.64278759981090561 1 0 0 1 I I #
point $-1 2.3471239968006046 16.996569546622517 4.7529068081801622 #
plane-surface $-1 0 0 9.0254952024443558 0 0 1 1 0 0 forward_v I I I I #
coedge $-1 $385 $384 $377 $454 forward $264 $-1 #
coedge $-1 $377 $266 $268 $381 reversed $172 $-1 #
coedge $-1 $266 $376 $375 $454 reversed $172 $-1 #
coedge $-1 $274 $269 $266 $379 forward $275 $-1 #
edge $-1 $382 -26.387748785150105 $455 -19.167683121276752 $378 $456 forward 7 unknown #
coedge $-1 $268 $267 $385 $457 reversed $108 $-1 #
edge $-1 $458 1.0206786807905858e-014 $382 10.393692870609204 $376 $459 forward 7 unknown #
vertex $-1 $270 $460 #
straight-curve $-1 -7.3139548550315183 -13.361631134685643 9.0254952024443558 -1 0 0 I I #
coedge $-1 $375 $271 $274 $389 reversed $264 $-1 #
coedge $-1 $271 $375 $380 $457 forward $264 $-1 #
vertex $-1 $272 $461 #
straight-curve $-1 -4.1363294614386295 -20.581696798558994 29.222221617730217 0 0 1 I I #
straight-curve $-1 -4.1363294614386295 -20.581696798559001 1.548898162486303 0 -0.69465836192734942 -0.71933980857756763 I I #
edge $-1 $455 -25.119489958687446 $276 -4.1363294614386295 $384 $462 forward 7 unknown #
point $-1 -4.1363294614386295 -20.581696798558994 9.0254952024443558 #
point $-1 -4.1363294614386295 -13.361631134685641 9.0254952024443558 #
edge $-1 $463 1 $463 0 $279 $-1 forward 7 unknown #
vertex $-1 $280 $464 #
ellipse-curve $-1 -20.922857859237681 -15.474984051171278 3.8418697229402312 0 -0.71933980857756763 0.69465836192734942 1 0 0 1 I I #
point $-1 -19.922857859237681 -16.971663966622319 5.287196682465332 #
edge $-1 $465 1 $465 0 $283 $-1 forward 7 unknown #
vertex $-1 $284 $466 #
ellipse-curve $-1 -14.627909710063037 -15.474984051171278 3.8418697229402312 0 -0.71933980857756763 0.69465836192734942 1 0 0 1 I I #
point $-1 -13.627909710063037 -16.971663966622319 5.287196682465332 #
edge $-1 $467 1 $467 0 $287 $-1 forward 7 unknown #
vertex $-1 $288 $468 #
ellipse-curve $-1 -8.3329615608883927 -15.474984051171278 3.8418697229402312 0 -0.71933980857756763 0.69465836192734942 1 0 0 1 I I #
point $-1 -7.3329615608883927 -16.971663966622319 5.287196682465332 #
plane-surface $-1 40.952177495651114 0 0 -1 0 0 0 0 1 forward_v I I I I #
coedge $-1 $296 $294 $298 $409 reversed $201 $-1 #
edge $-1 $309 -9.0254952024443558 $411 9.0254952024443558 $308 $469 forward 7 unknown #
vertex $-1 $409 $470 #
straight-curve $-1 -40.952177495651114 -20.581696798558994 0 0 0 -1 I I #
edge $-1 $407 -20.581696798558994 $411 20.581696798558994 $405 $471 forward 7 unknown #
straight-curve $-1 0 -20.581696798558994 -9.0254952024443558 -1 0 0 I I #
vertex $-1 $301 $472 #
straight-curve $-1 0 20.581696798558994 -9.0254952024443558 1 0 0 I I #
point $-1 40.952177495651114 20.581696798558994 -9.0254952024443558 #
point $-1 40.952177495651114 -20.581696798558994 -9.0254952024443558 #
straight-curve $-1 -40.952177495651114 0 9.0254952024443558 0 -1 0 I I #
point $-1 -40.952177495651114 20.581696798558994 9.0254952024443558 #
point $-1 -40.952177495651114 -20.581696798558994 9.0254952024443558 #
straight-curve $-1 40.952177495651114 -20.581696798558994 0 0 0 -1 I I #
straight-curve $-1 40.952177495651114 20.581696798558994 0 0 0 -1 I I #
plane-surface $-1 0 20.581696798558994 0 0 -1 0 0 0 -1 forward_v I I I I #
coedge $-1 $431 $430 $324 $423 forward $319 $-1 #
straight-curve $-1 -31.610719722732682 -20.581696798558994 -1.8378125341001308 0 0 1 I I #
edge $-1 $426 -20.581696798558994 $424 20.581696798558994 $421 $473 forward 7 unknown #
vertex $-1 $325 $474 #
straight-curve $-1 -18.140724304595949 -20.581696798558994 -5.7308554052173388 1 0 0 I I #
vertex $-1 $327 $475 #
straight-curve $-1 -18.140724304595949 20.581696798558994 -5.7308554052173388 -1 0 0 I I #
point $-1 -31.610719722732682 20.581696798558994 -5.7308554052173388 #
point $-1 -31.610719722732682 -20.581696798558994 -5.7308554052173388 #
coedge $-1 $421 $331 $334 $433 forward $319 $-1 #
coedge $-1 $331 $421 $338 $435 reversed $319 $-1 #
straight-curve $-1 -40.952177495651114 0 -1.6203947311831848 0 1 0 I I #
edge $-1 $336 1.6203947311831848 $426 5.7308554052173388 $334 $476 forward 7 unknown #
point $-1 -40.952177495651114 20.581696798558994 -1.6203947311831848 #
edge $-1 $339 1.6203947311831848 $424 5.7308554052173388 $431 $477 forward 7 unknown #
point $-1 -40.952177495651114 -20.581696798558994 -1.6203947311831848 #
straight-curve $-1 -31.610719722732682 20.581696798558994 -1.8378125341001308 0 0 -1 I I #
coedge $-1 $355 $354 $347 $439 forward $344 $-1 #
edge $-1 $440 33.304710517022293 $443 41.849887305550666 $438 $478 forward 7 unknown #
vertex $-1 $359 $479 #
straight-curve $-1 4.8636353347003425 28.432377257619542 9.025495202444354 0 1 0 I I #
edge $-1 $443 -6.8274568397248299 $356 10.755099849773805 $355 $480 forward 7 unknown #
vertex $-1 $442 $481 #
straight-curve $-1 4.8636353347003425 -5.8776221718040631 32.013307680013767 0 -0.64278759981090561 0.7660444514056185 I I #
point $-1 4.8636353347003425 13.411442294686054 9.025495202444354 #
point $-1 -12.718921354798292 20.581696798558994 0.48031841391598462 #
straight-curve $-1 0 20.581696798558994 9.0254952024443558 -1 0 0 I I #
vertex $-1 $362 $482 #
point $-1 -8.2024100168985683 14.852430601457719 2.9537606572033432 #
vertex $-1 $366 $483 #
point $-1 -2.9276430100489819 14.852430601457719 2.9537606572033432 #
vertex $-1 $370 $484 #
point $-1 2.3471239968006046 14.852430601457719 2.9537606572033432 #
edge $-1 $455 20.196726415285859 $458 27.673323455243906 $375 $485 forward 7 unknown #
vertex $-1 $389 $486 #
straight-curve $-1 -25.119489958687446 -39.749379919835746 9.025495202444354 0 -1 0 I I #
edge $-1 $458 -17.805535103655927 $386 3.1776253935928889 $385 $487 forward 7 unknown #
vertex $-1 $457 $488 #
straight-curve $-1 -25.119489958687446 -20.581696798559001 1.548898162486303 0 0.69465836192734942 0.71933980857756763 I I #
point $-1 -25.119489958687446 -13.361631134685641 9.0254952024443558 #
point $-1 -4.1363294614386295 -20.581696798558994 1.5488981624863103 #
straight-curve $-1 0 -20.581696798558994 9.0254952024443558 1 0 0 I I #
vertex $-1 $392 $489 #
point $-1 -19.922857859237681 -15.474984051171278 3.8418697229402312 #
vertex $-1 $396 $490 #
point $-1 -13.627909710063037 -15.474984051171278 3.8418697229402312 #
vertex $-1 $400 $491 #
point $-1 -7.3329615608883927 -15.474984051171278 3.8418697229402312 #
straight-curve $-1 -40.952177495651114 20.581696798558994 0 0 0 -1 I I #
point $-1 -40.952177495651114 -20.581696798558994 -9.0254952024443558 #
straight-curve $-1 -40.952177495651114 0 -9.0254952024443558 0 1 0 I I #
point $-1 -40.952177495651114 20.581696798558994 -9.0254952024443558 #
straight-curve $-1 -40.952177495651114 0 -5.7308554052173388 0 -1 0 I I #
point $-1 -40.952177495651114 -20.581696798558994 -5.7308554052173388 #
point $-1 -40.952177495651114 20.581696798558994 -5.7308554052173388 #
straight-curve $-1 -40.952177495651114 20.581696798558994 0 0 0 -1 I I #
straight-curve $-1 -40.952177495651114 -20.581696798558994 0 0 0 -1 I I #
straight-curve $-1 4.8636353347003425 20.581696798558994 42.330205719466647 0 0 -1 I I #
point $-1 4.8636353347003425 20.581696798558994 9.0254952024443558 #
straight-curve $-1 -1.9638215050244874 20.581696798558994 0.48031841391598462 -1 0 0 I I #
point $-1 4.8636353347003425 20.581696798558994 0.48031841391598462 #
point $-1 -9.2024100168985683 14.0863861500521 2.3109730573924381 #
point $-1 -3.9276430100489819 14.0863861500521 2.3109730573924381 #
point $-1 1.3471239968006046 14.0863861500521 2.3109730573924381 #
straight-curve $-1 -25.119489958687446 -20.581696798558994 29.222221617730217 0 0 -1 I I #
point $-1 -25.119489958687446 -20.581696798558994 9.0254952024443558 #
straight-curve $-1 -7.3139548550315183 -20.581696798558994 1.5488981624863096 1 0 0 I I #
point $-1 -25.119489958687446 -20.581696798558994 1.5488981624863103 #
point $-1 -20.922857859237681 -14.755644242593709 3.1472113610128822 #
point $-1 -14.627909710063037 -14.755644242593709 3.1472113610128822 #
point $-1 -8.3329615608883927 -14.755644242593709 3.1472113610128822 #
End-of-ACIS-data 