500 0 14 0           
7 Unknown 11 ACIS 5.0 NT 24 Thu Mar 25 19:30:44 1999 
-1 9.9999999999999995e-007 1e-010 
body $-1 $14 $-1 $15 #
body $-1 $16 $-1 $17 #
body $-1 $18 $-1 $19 #
body $-1 $20 $-1 $21 #
body $-1 $22 $-1 $23 #
body $-1 $24 $-1 $25 #
body $-1 $26 $-1 $27 #
body $-1 $28 $-1 $29 #
body $-1 $30 $-1 $31 #
body $-1 $32 $-1 $33 #
body $-1 $34 $-1 $35 #
body $-1 $36 $-1 $37 #
body $-1 $38 $-1 $39 #
body $-1 $40 $-1 $41 #
lump $-1 $-1 $42 $0 #
transform $-1 1 0 0 0 1 0 0 0 1 45.131992553483684 24.510003793145138 10.817478617368909 1 rotate no_reflect no_shear #
lump $-1 $-1 $43 $1 #
transform $-1 1 0 0 0 1 0 0 0 1 45.131992553483684 24.510003793145138 10.817478617368909 1 rotate no_reflect no_shear #
lump $-1 $-1 $44 $2 #
transform $-1 1 0 0 0 1 0 0 0 1 45.131992553483684 24.510003793145138 10.817478617368909 1 rotate no_reflect no_shear #
lump $-1 $-1 $45 $3 #
transform $-1 1 0 0 0 1 0 0 0 1 45.131992553483684 24.510003793145138 10.817478617368909 1 rotate no_reflect no_shear #
lump $-1 $-1 $46 $4 #
transform $-1 1 0 0 0 1 0 0 0 1 45.131992553483684 24.510003793145138 10.817478617368909 1 rotate no_reflect no_shear #
lump $-1 $-1 $47 $5 #
transform $-1 1 0 0 0 1 0 0 0 1 45.131992553483684 24.510003793145138 10.817478617368909 1 rotate no_reflect no_shear #
lump $-1 $-1 $48 $6 #
transform $-1 1 0 0 0 1 0 0 0 1 45.131992553483684 24.510003793145138 10.817478617368909 1 rotate no_reflect no_shear #
lump $-1 $-1 $49 $7 #
transform $-1 1 0 0 0 1 0 0 0 1 45.131992553483684 24.510003793145138 10.817478617368909 1 rotate no_reflect no_shear #
lump $-1 $-1 $50 $8 #
transform $-1 1 0 0 0 1 0 0 0 1 45.131992553483684 24.510003793145138 10.817478617368909 1 rotate no_reflect no_shear #
lump $-1 $-1 $51 $9 #
transform $-1 1 0 0 0 1 0 0 0 1 45.131992553483684 24.510003793145138 10.817478617368909 1 rotate no_reflect no_shear #
lump $-1 $-1 $52 $10 #
transform $-1 1 0 0 0 1 0 0 0 1 45.131992553483684 24.510003793145138 10.817478617368909 1 rotate no_reflect no_shear #
lump $-1 $-1 $53 $11 #
transform $-1 1 0 0 0 1 0 0 0 1 45.131992553483684 24.510003793145138 10.817478617368909 1 rotate no_reflect no_shear #
lump $-1 $-1 $54 $12 #
transform $-1 1 0 0 0 1 0 0 0 1 45.131992553483684 24.510003793145138 10.817478617368909 1 rotate no_reflect no_shear #
lump $-1 $-1 $55 $13 #
transform $-1 1 0 0 0 1 0 0 0 1 45.131992553483684 24.510003793145138 10.817478617368909 1 rotate no_reflect no_shear #
shell $-1 $-1 $-1 $56 $-1 $14 #
shell $-1 $-1 $-1 $57 $-1 $16 #
shell $-1 $-1 $-1 $58 $-1 $18 #
shell $-1 $-1 $-1 $59 $-1 $20 #
shell $-1 $-1 $-1 $60 $-1 $22 #
shell $-1 $-1 $-1 $61 $-1 $24 #
shell $-1 $-1 $-1 $62 $-1 $26 #
shell $-1 $-1 $-1 $63 $-1 $28 #
shell $-1 $-1 $-1 $64 $-1 $30 #
shell $-1 $-1 $-1 $65 $-1 $32 #
shell $-1 $-1 $-1 $66 $-1 $34 #
shell $-1 $-1 $-1 $67 $-1 $36 #
shell $-1 $-1 $-1 $68 $-1 $38 #
shell $-1 $-1 $-1 $69 $-1 $40 #
face $-1 $70 $71 $42 $-1 $72 forward single #
face $-1 $73 $74 $43 $-1 $75 forward single #
face $-1 $76 $77 $44 $-1 $78 forward single #
face $-1 $79 $80 $45 $-1 $81 reversed single #
face $-1 $82 $83 $46 $-1 $84 forward single #
face $-1 $85 $86 $47 $-1 $87 reversed single #
face $-1 $88 $89 $48 $-1 $90 forward single #
face $-1 $91 $92 $49 $-1 $93 reversed single #
face $-1 $94 $95 $50 $-1 $96 forward single #
face $-1 $97 $98 $51 $-1 $99 reversed single #
face $-1 $100 $101 $52 $-1 $102 forward single #
face $-1 $103 $104 $53 $-1 $105 reversed single #
face $-1 $106 $107 $54 $-1 $108 forward single #
face $-1 $109 $110 $55 $-1 $111 forward single #
face $-1 $112 $113 $42 $-1 $114 reversed single #
loop $-1 $-1 $115 $56 #
plane-surface $-1 0 0 10.817478617368909 0 0 1 1 0 0 forward_v I I I I #
face $-1 $116 $117 $43 $-1 $118 reversed single #
loop $-1 $-1 $119 $57 #
plane-surface $-1 -39.870651171160596 0 -6.1254790004847983 0 0 1 1 0 0 forward_v I I I I #
face $-1 $120 $121 $44 $-1 $122 reversed single #
loop $-1 $-1 $123 $58 #
plane-surface $-1 39.870651171160603 0 -6.1254790004847983 0 0 1 1 0 0 forward_v I I I I #
face $-1 $124 $125 $45 $-1 $126 reversed single #
loop $-1 $-1 $127 $59 #
plane-surface $-1 -25.0920400586581 -92.633098850619035 63.311303639160499 1 0 0 0 0.75470958851134928 -0.65605901945558964 forward_v I I I I #
face $-1 $128 $129 $46 $-1 $130 forward single #
loop $-1 $131 $132 $60 #
cone-surface $-1 -21.198347476538427 -20.202740850393837 6.2516763899952199 0 0.75470958851134928 -0.65605901945558964 1.5 0 0 1 I I 0 1 1.5 forward I I I I #
face $-1 $133 $134 $47 $-1 $135 reversed single #
loop $-1 $-1 $136 $61 #
plane-surface $-1 -10.959808407632483 -92.633098850619035 63.311303639160499 1 0 0 0 0.75470958851134928 -0.65605901945558964 forward_v I I I I #
face $-1 $137 $138 $48 $-1 $139 forward single #
loop $-1 $140 $141 $62 #
cone-surface $-1 -7.06611582551281 -20.202740850393837 6.2516763899952199 0 0.75470958851134928 -0.65605901945558964 1.5 0 0 1 I I 0 1 1.5 forward I I I I #
face $-1 $142 $143 $49 $-1 $144 reversed single #
loop $-1 $-1 $145 $63 #
plane-surface $-1 3.172423243393137 -92.633098850619035 63.311303639160499 1 0 0 0 0.75470958851134928 -0.65605901945558964 forward_v I I I I #
face $-1 $146 $147 $50 $-1 $148 forward single #
loop $-1 $149 $150 $64 #
cone-surface $-1 7.06611582551281 -20.202740850393837 6.2516763899952199 0 0.75470958851134928 -0.65605901945558964 1.5 0 0 1 I I 0 1 1.5 forward I I I I #
face $-1 $151 $152 $51 $-1 $153 reversed single #
loop $-1 $-1 $154 $65 #
plane-surface $-1 17.304654894418757 -92.633098850619035 63.311303639160499 1 0 0 0 0.75470958851134928 -0.65605901945558964 forward_v I I I I #
face $-1 $155 $156 $52 $-1 $157 forward single #
loop $-1 $158 $159 $66 #
cone-surface $-1 21.19834747653843 -20.202740850393837 6.2516763899952199 0 0.75470958851134928 -0.65605901945558964 1.5 0 0 1 I I 0 1 1.5 forward I I I I #
face $-1 $160 $161 $53 $-1 $162 reversed single #
loop $-1 $-1 $163 $67 #
plane-surface $-1 27.025838258883084 73.513543146298304 96.839064709385525 -1 0 0 0 0.83867057594974714 0.54463902268945019 forward_v I I I I #
face $-1 $164 $165 $54 $-1 $166 forward single #
loop $-1 $167 $168 $68 #
cone-surface $-1 13.160476829020872 22.545269719574126 8.3123545009399571 0 -0.83867057594974714 -0.54463902268945019 1 0 0 1 I I 0 1 1 forward I I I I #
face $-1 $169 $170 $55 $-1 $171 forward single #
loop $-1 $172 $173 $69 #
cone-surface $-1 21.479693686938205 22.545269719574126 8.3123545009399571 0 -0.83867057594974714 -0.54463902268945019 1 0 0 1 I I 0 1 1 forward I I I I #
face $-1 $174 $175 $42 $-1 $176 reversed single #
loop $-1 $-1 $177 $70 #
plane-surface $-1 0 0 -10.817478617368909 0 0 1 1 0 0 forward_v I I I I #
coedge $-1 $178 $179 $180 $181 forward $71 $-1 #
face $-1 $182 $183 $43 $-1 $184 reversed single #
loop $-1 $-1 $185 $73 #
plane-surface $-1 -39.870651171160596 0 -9.205292777194126 0 0 1 1 0 0 forward_v I I I I #
coedge $-1 $186 $187 $188 $189 forward $74 $-1 #
face $-1 $190 $191 $44 $-1 $192 reversed single #
loop $-1 $-1 $193 $76 #
plane-surface $-1 39.870651171160603 0 -9.205292777194126 0 0 1 1 0 0 forward_v I I I I #
coedge $-1 $194 $195 $196 $197 reversed $77 $-1 #
face $-1 $198 $199 $45 $-1 $200 reversed single #
loop $-1 $-1 $201 $79 #
plane-surface $-1 -21.198347476538427 -24.510003793145131 4.0928020777295444 0 -0.75470958851134928 0.65605901945558964 1 0 0 forward_v I I I I #
coedge $-1 $202 $203 $204 $205 reversed $80 $-1 #
face $-1 $-1 $206 $46 $-1 $207 forward single #
loop $-1 $208 $209 $82 #
cone-surface $-1 -21.198347476538427 -18.25228170768586 4.5561681678495258 0 0.75470958851134928 -0.65605901945558964 0.75 0 0 1 I I -0.70710678118654757 0.70710678118654757 0.75 forward I I I I #
loop $-1 $-1 $210 $60 #
coedge $-1 $132 $132 $211 $212 reversed $83 $-1 #
face $-1 $213 $214 $47 $-1 $215 reversed single #
loop $-1 $-1 $216 $85 #
plane-surface $-1 -7.06611582551281 -24.510003793145131 4.0928020777295444 0 -0.75470958851134928 0.65605901945558964 1 0 0 forward_v I I I I #
coedge $-1 $217 $218 $219 $220 reversed $86 $-1 #
face $-1 $-1 $221 $48 $-1 $222 forward single #
loop $-1 $223 $224 $88 #
cone-surface $-1 -7.06611582551281 -18.25228170768586 4.5561681678495258 0 0.75470958851134928 -0.65605901945558964 0.75 0 0 1 I I -0.70710678118654757 0.70710678118654757 0.75 forward I I I I #
loop $-1 $-1 $225 $62 #
coedge $-1 $141 $141 $226 $227 reversed $89 $-1 #
face $-1 $228 $229 $49 $-1 $230 reversed single #
loop $-1 $-1 $231 $91 #
plane-surface $-1 7.06611582551281 -24.510003793145131 4.0928020777295444 0 -0.75470958851134928 0.65605901945558964 1 0 0 forward_v I I I I #
coedge $-1 $232 $233 $234 $235 reversed $92 $-1 #
face $-1 $-1 $236 $50 $-1 $237 forward single #
loop $-1 $238 $239 $94 #
cone-surface $-1 7.06611582551281 -18.25228170768586 4.5561681678495258 0 0.75470958851134928 -0.65605901945558964 0.75 0 0 1 I I -0.70710678118654757 0.70710678118654757 0.75 forward I I I I #
loop $-1 $-1 $240 $64 #
coedge $-1 $150 $150 $241 $242 reversed $95 $-1 #
face $-1 $243 $244 $51 $-1 $245 reversed single #
loop $-1 $-1 $246 $97 #
plane-surface $-1 21.19834747653843 -24.510003793145131 4.0928020777295444 0 -0.75470958851134928 0.65605901945558964 1 0 0 forward_v I I I I #
coedge $-1 $247 $248 $249 $250 reversed $98 $-1 #
face $-1 $-1 $251 $52 $-1 $252 forward single #
loop $-1 $253 $254 $100 #
cone-surface $-1 21.19834747653843 -18.25228170768586 4.5561681678495258 0 0.75470958851134928 -0.65605901945558964 0.75 0 0 1 I I -0.70710678118654757 0.70710678118654757 0.75 forward I I I I #
loop $-1 $-1 $255 $66 #
coedge $-1 $159 $159 $256 $257 reversed $101 $-1 #
face $-1 $258 $259 $53 $-1 $260 reversed single #
loop $-1 $-1 $261 $103 #
plane-surface $-1 17.320085257979535 -2.1882052308814224 47.677776076671734 0 0.83867057594974714 0.54463902268945019 1 0 0 forward_v I I I I #
coedge $-1 $262 $263 $264 $265 reversed $104 $-1 #
face $-1 $-1 $266 $54 $-1 $267 forward single #
loop $-1 $268 $269 $106 #
cone-surface $-1 13.160476829020872 21.541626726336126 7.6605811412423925 0 -0.83867057594974714 -0.54463902268945019 0.5 0 0 1 I I -0.70710678118654746 0.70710678118654746 0.5 forward I I I I #
loop $-1 $-1 $270 $68 #
coedge $-1 $168 $168 $271 $272 reversed $107 $-1 #
face $-1 $-1 $273 $55 $-1 $274 forward single #
loop $-1 $275 $276 $109 #
cone-surface $-1 21.479693686938205 21.541626726336126 7.6605811412423925 0 -0.83867057594974714 -0.54463902268945019 0.5 0 0 1 I I -0.70710678118654746 0.70710678118654746 0.5 forward I I I I #
loop $-1 $-1 $277 $69 #
coedge $-1 $173 $173 $278 $279 reversed $110 $-1 #
face $-1 $280 $281 $42 $-1 $282 reversed single #
loop $-1 $-1 $283 $112 #
plane-surface $-1 0 -24.510003793145138 0 0 1 0 0 0 1 forward_v I I I I #
coedge $-1 $284 $285 $286 $287 forward $113 $-1 #
coedge $-1 $288 $115 $289 $290 forward $71 $-1 #
coedge $-1 $115 $288 $291 $292 forward $71 $-1 #
coedge $-1 $293 $294 $115 $181 reversed $295 $-1 #
edge $-1 $296 -24.510003793145138 $297 24.510003793145138 $180 $298 forward 7 unknown #
face $-1 $299 $300 $43 $-1 $301 reversed single #
loop $-1 $-1 $302 $116 #
plane-surface $-1 -34.609309788837507 0 -7.6653858888394621 -1 0 0 0 0 1 forward_v I I I I #
coedge $-1 $303 $304 $305 $306 forward $117 $-1 #
coedge $-1 $307 $119 $308 $309 reversed $74 $-1 #
coedge $-1 $119 $307 $310 $311 reversed $74 $-1 #
coedge $-1 $302 $312 $119 $189 reversed $183 $-1 #
edge $-1 $313 -24.510003793145138 $314 24.510003793145138 $188 $315 forward 7 unknown #
face $-1 $316 $317 $44 $-1 $318 reversed single #
loop $-1 $-1 $319 $120 #
plane-surface $-1 34.609309788837514 0 -7.6653858888394621 1 0 0 0 0 -1 forward_v I I I I #
coedge $-1 $320 $321 $322 $323 reversed $121 $-1 #
coedge $-1 $324 $123 $325 $326 reversed $77 $-1 #
coedge $-1 $123 $324 $327 $328 reversed $77 $-1 #
coedge $-1 $329 $330 $123 $197 forward $331 $-1 #
edge $-1 $332 -24.510003793145138 $333 24.510003793145138 $196 $334 forward 7 unknown #
face $-1 $335 $336 $45 $-1 $337 forward single #
loop $-1 $-1 $338 $124 #
plane-surface $-1 -17.304654894418753 -92.633098850619035 63.311303639160499 -1 0 0 0 -0.75470958851134928 0.65605901945558964 forward_v I I I I #
coedge $-1 $339 $340 $341 $342 reversed $125 $-1 #
coedge $-1 $203 $127 $343 $344 reversed $80 $-1 #
coedge $-1 $127 $202 $339 $345 reversed $80 $-1 #
coedge $-1 $341 $346 $127 $205 forward $347 $-1 #
edge $-1 $348 20.83817320221134 $349 27.562849741850712 $204 $350 forward 7 unknown #
loop $-1 $-1 $211 $128 #
plane-surface $-1 -21.198347476538427 -24.510003793145131 4.0928020777295444 0 -0.75470958851134928 0.65605901945558964 1 0 0 forward_v I I I I #
loop $-1 $-1 $351 $82 #
coedge $-1 $209 $209 $210 $352 reversed $129 $-1 #
coedge $-1 $210 $210 $209 $352 forward $131 $-1 #
coedge $-1 $211 $211 $132 $212 forward $206 $-1 #
edge $-1 $353 -4.4687784643769473e-016 $353 6.2831853071795996 $211 $354 forward 7 unknown #
face $-1 $355 $356 $47 $-1 $357 reversed single #
loop $-1 $-1 $358 $133 #
plane-surface $-1 -3.172423243393137 -92.633098850619035 63.311303639160499 -1 0 0 0 -0.75470958851134928 0.65605901945558964 forward_v I I I I #
coedge $-1 $359 $360 $361 $362 reversed $134 $-1 #
coedge $-1 $218 $136 $363 $364 reversed $86 $-1 #
coedge $-1 $136 $217 $359 $365 reversed $86 $-1 #
coedge $-1 $361 $366 $136 $220 forward $356 $-1 #
edge $-1 $367 20.83817320221134 $368 27.562849741850712 $219 $369 forward 7 unknown #
loop $-1 $-1 $226 $137 #
plane-surface $-1 -7.06611582551281 -24.510003793145131 4.0928020777295444 0 -0.75470958851134928 0.65605901945558964 1 0 0 forward_v I I I I #
loop $-1 $-1 $370 $88 #
coedge $-1 $224 $224 $225 $371 reversed $138 $-1 #
coedge $-1 $225 $225 $224 $371 forward $140 $-1 #
coedge $-1 $226 $226 $141 $227 forward $221 $-1 #
edge $-1 $372 -4.4687784643769473e-016 $372 6.2831853071795996 $226 $373 forward 7 unknown #
face $-1 $374 $375 $49 $-1 $376 reversed single #
loop $-1 $-1 $377 $142 #
plane-surface $-1 10.959808407632483 -92.633098850619035 63.311303639160499 -1 0 0 0 -0.75470958851134928 0.65605901945558964 forward_v I I I I #
coedge $-1 $378 $379 $380 $381 reversed $143 $-1 #
coedge $-1 $233 $145 $382 $383 reversed $92 $-1 #
coedge $-1 $145 $232 $378 $384 reversed $92 $-1 #
coedge $-1 $380 $385 $145 $235 forward $375 $-1 #
edge $-1 $386 20.83817320221134 $387 27.562849741850712 $234 $388 forward 7 unknown #
loop $-1 $-1 $241 $146 #
plane-surface $-1 7.06611582551281 -24.510003793145131 4.0928020777295444 0 -0.75470958851134928 0.65605901945558964 1 0 0 forward_v I I I I #
loop $-1 $-1 $389 $94 #
coedge $-1 $239 $239 $240 $390 reversed $147 $-1 #
coedge $-1 $240 $240 $239 $390 forward $149 $-1 #
coedge $-1 $241 $241 $150 $242 forward $236 $-1 #
edge $-1 $391 -4.4687784643769473e-016 $391 6.2831853071795996 $241 $392 forward 7 unknown #
face $-1 $393 $394 $51 $-1 $395 reversed single #
loop $-1 $-1 $396 $151 #
plane-surface $-1 25.092040058658103 -92.633098850619035 63.311303639160499 -1 0 0 0 -0.75470958851134928 0.65605901945558964 forward_v I I I I #
coedge $-1 $397 $398 $399 $400 reversed $152 $-1 #
coedge $-1 $248 $154 $401 $402 reversed $98 $-1 #
coedge $-1 $154 $247 $397 $403 reversed $98 $-1 #
coedge $-1 $399 $404 $154 $250 forward $394 $-1 #
edge $-1 $405 20.83817320221134 $406 27.562849741850712 $249 $407 forward 7 unknown #
loop $-1 $-1 $256 $155 #
plane-surface $-1 21.19834747653843 -24.510003793145131 4.0928020777295444 0 -0.75470958851134928 0.65605901945558964 1 0 0 forward_v I I I I #
loop $-1 $-1 $408 $100 #
coedge $-1 $254 $254 $255 $409 reversed $156 $-1 #
coedge $-1 $255 $255 $254 $409 forward $158 $-1 #
coedge $-1 $256 $256 $159 $257 forward $251 $-1 #
edge $-1 $410 -4.4687784643769473e-016 $410 6.2831853071795996 $256 $411 forward 7 unknown #
face $-1 $412 $413 $53 $-1 $414 reversed single #
loop $-1 $-1 $415 $160 #
plane-surface $-1 7.6143322570759864 73.513543146298304 96.839064709385525 1 0 0 0 -0.83867057594974714 -0.54463902268945019 forward_v I I I I #
coedge $-1 $416 $417 $418 $419 reversed $161 $-1 #
coedge $-1 $263 $163 $420 $421 reversed $104 $-1 #
coedge $-1 $163 $262 $416 $422 reversed $104 $-1 #
coedge $-1 $418 $423 $163 $265 forward $413 $-1 #
edge $-1 $424 37.602053737323857 $425 41.853394273476049 $264 $426 forward 7 unknown #
loop $-1 $-1 $271 $164 #
plane-surface $-1 17.320085257979535 -2.1882052308814224 47.677776076671734 0 0.83867057594974714 0.54463902268945019 1 0 0 forward_v I I I I #
loop $-1 $-1 $427 $106 #
coedge $-1 $269 $269 $270 $428 reversed $165 $-1 #
coedge $-1 $270 $270 $269 $428 forward $167 $-1 #
coedge $-1 $271 $271 $168 $272 forward $266 $-1 #
edge $-1 $429 1.5427333661628378e-016 $429 6.2831853071796004 $271 $430 forward 7 unknown #
loop $-1 $-1 $278 $169 #
plane-surface $-1 17.320085257979535 -2.1882052308814224 47.677776076671734 0 0.83867057594974714 0.54463902268945019 1 0 0 forward_v I I I I #
loop $-1 $-1 $431 $109 #
coedge $-1 $276 $276 $277 $432 reversed $170 $-1 #
coedge $-1 $277 $277 $276 $432 forward $172 $-1 #
coedge $-1 $278 $278 $173 $279 forward $273 $-1 #
edge $-1 $433 1.5427333661628378e-016 $433 6.2831853071796004 $278 $434 forward 7 unknown #
face $-1 $435 $436 $42 $-1 $437 reversed single #
loop $-1 $-1 $438 $174 #
plane-surface $-1 -45.131992553483684 0 0 1 0 0 0 0 -1 forward_v I I I I #
coedge $-1 $439 $291 $440 $441 forward $175 $-1 #
coedge $-1 $442 $177 $439 $443 forward $113 $-1 #
coedge $-1 $177 $442 $444 $445 forward $113 $-1 #
coedge $-1 $294 $293 $177 $287 reversed $295 $-1 #
edge $-1 $446 -24.510003793145138 $447 24.510003793145138 $286 $448 forward 7 unknown #
coedge $-1 $179 $178 $449 $450 forward $71 $-1 #
coedge $-1 $451 $452 $178 $290 reversed $436 $-1 #
edge $-1 $297 -45.131992553483684 $453 45.131992553483684 $289 $454 forward 7 unknown #
coedge $-1 $283 $455 $179 $292 reversed $175 $-1 #
edge $-1 $456 -45.131992553483684 $296 45.131992553483684 $291 $457 forward 7 unknown #
coedge $-1 $286 $180 $455 $458 forward $295 $-1 #
coedge $-1 $180 $286 $451 $459 reversed $295 $-1 #
loop $-1 $-1 $293 $435 #
vertex $-1 $181 $460 #
vertex $-1 $181 $461 #
straight-curve $-1 45.131992553483684 0 10.817478617368909 0 1 0 I I #
face $-1 $462 $463 $43 $-1 $464 reversed single #
loop $-1 $-1 $465 $182 #
plane-surface $-1 0 -24.510003793145138 0 0 1 0 0 0 1 forward_v I I I I #
coedge $-1 $305 $188 $466 $467 reversed $183 $-1 #
coedge $-1 $468 $185 $465 $469 reversed $117 $-1 #
coedge $-1 $185 $468 $470 $471 reversed $117 $-1 #
coedge $-1 $312 $302 $185 $306 reversed $183 $-1 #
edge $-1 $472 -24.510003793145138 $473 24.510003793145138 $305 $474 forward 7 unknown #
coedge $-1 $187 $186 $475 $476 reversed $74 $-1 #
coedge $-1 $477 $478 $186 $309 forward $479 $-1 #
edge $-1 $480 -25.196666967903386 $314 -14.673984203257209 $308 $481 forward 7 unknown #
coedge $-1 $482 $466 $187 $311 forward $300 $-1 #
edge $-1 $313 14.673984203257209 $483 25.196666967903386 $310 $484 forward 7 unknown #
coedge $-1 $188 $305 $477 $485 reversed $183 $-1 #
vertex $-1 $311 $486 #
vertex $-1 $309 $487 #
straight-curve $-1 -34.609309788837507 0 -6.1254790004847983 0 1 0 I I #
face $-1 $488 $489 $44 $-1 $490 reversed single #
loop $-1 $-1 $327 $190 #
plane-surface $-1 0 -24.510003793145138 0 0 1 0 0 0 1 forward_v I I I I #
coedge $-1 $491 $492 $493 $494 reversed $191 $-1 #
coedge $-1 $495 $193 $496 $497 reversed $121 $-1 #
coedge $-1 $193 $495 $498 $499 reversed $121 $-1 #
coedge $-1 $330 $329 $193 $323 forward $331 $-1 #
edge $-1 $500 -24.510003793145138 $501 24.510003793145138 $322 $502 forward 7 unknown #
coedge $-1 $195 $194 $492 $503 forward $77 $-1 #
coedge $-1 $504 $493 $194 $326 forward $489 $-1 #
edge $-1 $505 14.673984203257213 $332 25.19666696790339 $325 $506 forward 7 unknown #
coedge $-1 $507 $508 $195 $328 forward $317 $-1 #
edge $-1 $333 -25.19666696790339 $509 -14.673984203257213 $327 $510 forward 7 unknown #
coedge $-1 $322 $196 $508 $511 forward $331 $-1 #
coedge $-1 $196 $322 $504 $512 reversed $331 $-1 #
loop $-1 $-1 $196 $488 #
vertex $-1 $512 $513 #
vertex $-1 $511 $514 #
straight-curve $-1 45.131992553483684 0 -6.1254790004847983 0 -1 0 I I #
face $-1 $-1 $347 $45 $-1 $515 reversed single #
loop $-1 $-1 $516 $198 #
plane-surface $-1 0 0 10.817478617368909 0 0 1 1 0 0 forward_v I I I I #
coedge $-1 $517 $518 $519 $520 reversed $199 $-1 #
coedge $-1 $521 $201 $203 $345 forward $125 $-1 #
coedge $-1 $201 $521 $517 $522 forward $125 $-1 #
coedge $-1 $519 $204 $201 $342 forward $347 $-1 #
edge $-1 $349 -14.492866320388886 $523 -6.7054811561495402 $341 $524 forward 7 unknown #
coedge $-1 $525 $526 $202 $344 forward $336 $-1 #
edge $-1 $527 -27.652217615018046 $348 -21.806545632164379 $343 $528 forward 7 unknown #
edge $-1 $349 -1.0694430631949516e-014 $527 8.9102836932331364 $203 $529 forward 7 unknown #
coedge $-1 $204 $519 $525 $530 reversed $347 $-1 #
loop $-1 $-1 $519 $335 #
vertex $-1 $530 $531 #
vertex $-1 $205 $532 #
straight-curve $-1 -25.0920400586581 -24.510003793145138 31.65565181958025 0 0 -1 I I #
coedge $-1 $351 $351 $-1 $533 reversed $208 $-1 #
edge $-1 $534 0 $534 6.2831853071796004 $209 $535 forward 7 unknown #
vertex $-1 $212 $536 #
ellipse-curve $-1 -21.198347476538427 -21.587167801718305 7.4551403475492224 0 -0.75470958851134928 0.65605901945558964 1.5 0 0 1 I I #
face $-1 $-1 $537 $47 $-1 $538 forward single #
loop $-1 $-1 $219 $213 #
plane-surface $-1 0 -24.510003793145138 0 0 1 0 0 0 1 forward_v I I I I #
coedge $-1 $539 $540 $541 $542 reversed $214 $-1 #
coedge $-1 $543 $216 $218 $365 forward $134 $-1 #
coedge $-1 $216 $543 $539 $544 forward $134 $-1 #
coedge $-1 $541 $219 $216 $362 forward $356 $-1 #
edge $-1 $368 -7.4267504948760781 $545 0.36063466936326805 $361 $546 forward 7 unknown #
coedge $-1 $547 $548 $217 $364 forward $537 $-1 #
edge $-1 $549 -27.652217615018046 $367 -21.806545632164379 $363 $550 forward 7 unknown #
edge $-1 $368 -1.0694430631949516e-014 $549 8.9102836932331364 $218 $551 forward 7 unknown #
coedge $-1 $219 $541 $547 $552 reversed $356 $-1 #
vertex $-1 $552 $553 #
vertex $-1 $220 $554 #
straight-curve $-1 -10.959808407632483 -24.510003793145138 31.65565181958025 0 0 -1 I I #
coedge $-1 $370 $370 $-1 $555 reversed $223 $-1 #
edge $-1 $556 0 $556 6.2831853071796004 $224 $557 forward 7 unknown #
vertex $-1 $227 $558 #
ellipse-curve $-1 -7.06611582551281 -21.587167801718305 7.4551403475492224 0 -0.75470958851134928 0.65605901945558964 1.5 0 0 1 I I #
face $-1 $-1 $559 $49 $-1 $560 forward single #
loop $-1 $-1 $234 $228 #
plane-surface $-1 0 -24.510003793145138 0 0 1 0 0 0 1 forward_v I I I I #
coedge $-1 $561 $562 $563 $564 reversed $229 $-1 #
coedge $-1 $565 $231 $233 $384 forward $143 $-1 #
coedge $-1 $231 $565 $561 $566 forward $143 $-1 #
coedge $-1 $563 $234 $231 $381 forward $375 $-1 #
edge $-1 $387 -0.36063466936326805 $567 7.4267504948760781 $380 $568 forward 7 unknown #
coedge $-1 $569 $570 $232 $383 forward $559 $-1 #
edge $-1 $571 -27.652217615018046 $386 -21.806545632164379 $382 $572 forward 7 unknown #
edge $-1 $387 -1.0694430631949516e-014 $571 8.9102836932331364 $233 $573 forward 7 unknown #
coedge $-1 $234 $563 $569 $574 reversed $375 $-1 #
vertex $-1 $574 $575 #
vertex $-1 $235 $576 #
straight-curve $-1 3.172423243393137 -24.510003793145138 31.65565181958025 0 0 -1 I I #
coedge $-1 $389 $389 $-1 $577 reversed $238 $-1 #
edge $-1 $578 0 $578 6.2831853071796004 $239 $579 forward 7 unknown #
vertex $-1 $242 $580 #
ellipse-curve $-1 7.06611582551281 -21.587167801718305 7.4551403475492224 0 -0.75470958851134928 0.65605901945558964 1.5 0 0 1 I I #
face $-1 $-1 $581 $51 $-1 $582 forward single #
loop $-1 $-1 $249 $243 #
plane-surface $-1 0 -24.510003793145138 0 0 1 0 0 0 1 forward_v I I I I #
coedge $-1 $583 $584 $585 $586 reversed $244 $-1 #
coedge $-1 $587 $246 $248 $403 forward $152 $-1 #
coedge $-1 $246 $587 $583 $588 forward $152 $-1 #
coedge $-1 $585 $249 $246 $400 forward $394 $-1 #
edge $-1 $406 6.705481156149542 $589 14.492866320388888 $399 $590 forward 7 unknown #
coedge $-1 $591 $592 $247 $402 forward $581 $-1 #
edge $-1 $593 -27.652217615018046 $405 -21.806545632164379 $401 $594 forward 7 unknown #
edge $-1 $406 -1.0694430631949516e-014 $593 8.9102836932331364 $248 $595 forward 7 unknown #
coedge $-1 $249 $585 $591 $596 reversed $394 $-1 #
vertex $-1 $596 $597 #
vertex $-1 $250 $598 #
straight-curve $-1 17.304654894418757 -24.510003793145138 31.65565181958025 0 0 -1 I I #
coedge $-1 $408 $408 $-1 $599 reversed $253 $-1 #
edge $-1 $600 0 $600 6.2831853071796004 $254 $601 forward 7 unknown #
vertex $-1 $257 $602 #
ellipse-curve $-1 21.19834747653843 -21.587167801718305 7.4551403475492224 0 -0.75470958851134928 0.65605901945558964 1.5 0 0 1 I I #
face $-1 $-1 $603 $53 $-1 $604 forward single #
loop $-1 $-1 $264 $258 #
plane-surface $-1 0 24.510003793145138 0 0 -1 0 0 0 -1 forward_v I I I I #
coedge $-1 $605 $606 $607 $608 reversed $259 $-1 #
coedge $-1 $609 $261 $263 $422 forward $161 $-1 #
coedge $-1 $261 $609 $605 $610 forward $161 $-1 #
coedge $-1 $607 $264 $261 $419 forward $413 $-1 #
edge $-1 $425 -18.365795629893316 $611 1.0457103719137812 $418 $612 forward 7 unknown #
coedge $-1 $613 $614 $262 $421 forward $603 $-1 #
edge $-1 $615 -15.007620516619774 $424 -12.246767780004014 $420 $616 forward 7 unknown #
edge $-1 $425 -49.020007586290248 $615 -43.950865234017087 $263 $617 forward 7 unknown #
coedge $-1 $264 $607 $613 $618 reversed $413 $-1 #
vertex $-1 $618 $619 #
vertex $-1 $265 $620 #
straight-curve $-1 27.025838258883084 24.510003793145138 48.419532354692763 0 0 -1 I I #
coedge $-1 $427 $427 $-1 $621 reversed $268 $-1 #
edge $-1 $622 0 $622 6.2831853071796004 $269 $623 forward 7 unknown #
vertex $-1 $272 $624 #
ellipse-curve $-1 13.160476829020872 23.129577424837258 8.6918083492928027 0 0.83867057594974714 0.54463902268945019 1 0 0 1 I I #
coedge $-1 $431 $431 $-1 $625 reversed $275 $-1 #
edge $-1 $626 0 $626 6.2831853071796004 $276 $627 forward 7 unknown #
vertex $-1 $279 $628 #
ellipse-curve $-1 21.479693686938205 23.129577424837258 8.6918083492928027 0 0.83867057594974714 0.54463902268945019 1 0 0 1 I I #
face $-1 $-1 $295 $42 $-1 $629 reversed single #
loop $-1 $-1 $451 $280 #
plane-surface $-1 0 24.510003793145138 0 0 -1 0 0 0 -1 forward_v I I I I #
coedge $-1 $630 $449 $452 $631 forward $281 $-1 #
coedge $-1 $455 $283 $284 $443 reversed $175 $-1 #
coedge $-1 $449 $630 $283 $441 reversed $281 $-1 #
edge $-1 $456 -10.817478617368909 $632 10.817478617368909 $440 $633 forward 7 unknown #
coedge $-1 $285 $284 $630 $634 forward $113 $-1 #
edge $-1 $447 -45.131992553483684 $632 45.131992553483684 $439 $635 forward 7 unknown #
coedge $-1 $452 $451 $285 $445 reversed $436 $-1 #
edge $-1 $636 -45.131992553483684 $446 45.131992553483684 $444 $637 forward 7 unknown #
vertex $-1 $287 $638 #
vertex $-1 $458 $639 #
straight-curve $-1 45.131992553483684 0 -10.817478617368909 0 -1 0 I I #
coedge $-1 $438 $440 $288 $450 reversed $281 $-1 #
edge $-1 $453 -24.510003793145138 $456 24.510003793145138 $449 $640 forward 7 unknown #
coedge $-1 $444 $289 $294 $459 forward $436 $-1 #
coedge $-1 $289 $444 $438 $631 reversed $436 $-1 #
vertex $-1 $290 $641 #
straight-curve $-1 0 24.510003793145138 10.817478617368909 -1 0 0 I I #
coedge $-1 $291 $439 $293 $458 reversed $175 $-1 #
vertex $-1 $450 $642 #
straight-curve $-1 0 -24.510003793145138 10.817478617368909 1 0 0 I I #
edge $-1 $296 -10.817478617368909 $447 10.817478617368909 $293 $643 forward 7 unknown #
edge $-1 $297 -10.817478617368909 $446 10.817478617368909 $294 $644 forward 7 unknown #
point $-1 45.131992553483684 -24.510003793145138 10.817478617368909 #
point $-1 45.131992553483684 24.510003793145138 10.817478617368909 #
face $-1 $-1 $479 $43 $-1 $645 reversed single #
loop $-1 $-1 $646 $299 #
plane-surface $-1 -45.131992553483684 0 0 1 0 0 0 0 -1 forward_v I I I I #
coedge $-1 $466 $482 $303 $469 forward $300 $-1 #
coedge $-1 $310 $465 $302 $467 forward $300 $-1 #
edge $-1 $473 -5.3725998327743945 $313 -2.2927860560650672 $466 $647 forward 7 unknown #
coedge $-1 $304 $303 $646 $648 reversed $117 $-1 #
edge $-1 $649 -25.196666967903386 $473 -14.673984203257209 $465 $650 forward 7 unknown #
coedge $-1 $478 $477 $304 $471 forward $479 $-1 #
edge $-1 $472 14.673984203257209 $651 25.196666967903386 $470 $652 forward 7 unknown #
vertex $-1 $471 $653 #
vertex $-1 $469 $654 #
straight-curve $-1 -34.609309788837507 0 -9.205292777194126 0 -1 0 I I #
coedge $-1 $655 $656 $307 $476 forward $463 $-1 #
edge $-1 $483 -24.510003793145138 $480 24.510003793145138 $475 $657 forward 7 unknown #
coedge $-1 $470 $308 $312 $485 forward $479 $-1 #
coedge $-1 $308 $470 $655 $658 reversed $479 $-1 #
loop $-1 $-1 $470 $462 #
vertex $-1 $658 $659 #
straight-curve $-1 -19.935325585580298 24.510003793145138 -6.1254790004847983 1 0 0 I I #
coedge $-1 $465 $310 $656 $660 forward $300 $-1 #
vertex $-1 $660 $661 #
straight-curve $-1 -19.935325585580298 -24.510003793145138 -6.1254790004847983 -1 0 0 I I #
edge $-1 $314 2.2927860560650672 $472 5.3725998327743945 $477 $662 forward 7 unknown #
point $-1 -34.609309788837507 -24.510003793145138 -6.1254790004847983 #
point $-1 -34.609309788837507 24.510003793145138 -6.1254790004847983 #
face $-1 $-1 $331 $44 $-1 $663 reversed single #
loop $-1 $-1 $325 $316 #
plane-surface $-1 0 24.510003793145138 0 0 -1 0 0 0 -1 forward_v I I I I #
coedge $-1 $664 $319 $495 $665 reversed $191 $-1 #
coedge $-1 $319 $664 $324 $503 reversed $191 $-1 #
coedge $-1 $325 $498 $319 $494 forward $489 $-1 #
edge $-1 $666 -5.3725998327743945 $505 -2.2927860560650672 $493 $667 forward 7 unknown #
coedge $-1 $321 $320 $491 $665 forward $121 $-1 #
coedge $-1 $508 $507 $320 $497 forward $317 $-1 #
edge $-1 $668 14.673984203257213 $500 25.19666696790339 $496 $669 forward 7 unknown #
coedge $-1 $493 $504 $321 $499 forward $489 $-1 #
edge $-1 $501 -25.19666696790339 $666 -14.673984203257213 $498 $670 forward 7 unknown #
vertex $-1 $323 $671 #
vertex $-1 $323 $672 #
straight-curve $-1 45.131992553483684 0 -9.205292777194126 0 1 0 I I #
edge $-1 $505 -24.510003793145138 $509 24.510003793145138 $492 $673 forward 7 unknown #
coedge $-1 $498 $325 $330 $512 forward $489 $-1 #
vertex $-1 $326 $674 #
straight-curve $-1 19.935325585580301 24.510003793145138 -6.1254790004847983 1 0 0 I I #
coedge $-1 $496 $327 $664 $675 forward $317 $-1 #
coedge $-1 $327 $496 $329 $511 reversed $317 $-1 #
vertex $-1 $328 $676 #
straight-curve $-1 19.935325585580301 -24.510003793145138 -6.1254790004847983 -1 0 0 I I #
edge $-1 $333 6.1254790004847983 $500 9.205292777194126 $329 $677 forward 7 unknown #
edge $-1 $332 6.1254790004847983 $501 9.205292777194126 $330 $678 forward 7 unknown #
point $-1 45.131992553483691 24.510003793145138 -6.1254790004847983 #
point $-1 45.131992553483691 -24.510003793145138 -6.1254790004847983 #
plane-surface $-1 0 -24.510003793145138 0 0 1 0 0 0 1 forward_v I I I I #
coedge $-1 $526 $525 $518 $679 forward $336 $-1 #
coedge $-1 $518 $338 $340 $522 reversed $199 $-1 #
coedge $-1 $338 $517 $516 $679 reversed $199 $-1 #
coedge $-1 $346 $341 $338 $520 forward $347 $-1 #
edge $-1 $523 -27.562849741850712 $680 -20.83817320221134 $519 $681 forward 7 unknown #
coedge $-1 $340 $339 $526 $682 reversed $125 $-1 #
edge $-1 $683 -8.9102836932331364 $523 1.0694430631949516e-014 $517 $684 forward 7 unknown #
vertex $-1 $342 $685 #
straight-curve $-1 -10.599173738269213 -24.510003793145138 4.0928020777295355 1 0 0 I I #
coedge $-1 $516 $343 $346 $530 forward $336 $-1 #
coedge $-1 $343 $516 $521 $682 forward $336 $-1 #
vertex $-1 $344 $686 #
straight-curve $-1 -25.0920400586581 -46.316549425309518 10.817478617368909 0 -1 0 I I #
straight-curve $-1 -25.0920400586581 -24.510003793145131 4.0928020777295444 0 0.65605901945558964 0.75470958851134928 I I #
edge $-1 $348 -25.0920400586581 $680 -17.304654894418753 $346 $687 forward 7 unknown #
point $-1 -25.0920400586581 -24.510003793145138 10.817478617368909 #
point $-1 -25.0920400586581 -24.510003793145138 4.0928020777295364 #
edge $-1 $688 1 $688 0 $351 $-1 forward 7 unknown #
vertex $-1 $352 $689 #
ellipse-curve $-1 -21.198347476538427 -18.818313899069373 5.0482124324412183 0 -0.75470958851134928 0.65605901945558964 1.5 0 0 1 I I #
point $-1 -19.698347476538427 -21.587167801718305 7.4551403475492215 #
loop $-1 $-1 $363 $355 #
plane-surface $-1 0 0 10.817478617368909 0 0 1 1 0 0 forward_v I I I I #
coedge $-1 $540 $358 $360 $544 reversed $214 $-1 #
coedge $-1 $358 $539 $690 $691 reversed $214 $-1 #
coedge $-1 $366 $361 $358 $542 forward $356 $-1 #
edge $-1 $545 -27.562849741850712 $692 -20.83817320221134 $541 $693 forward 7 unknown #
coedge $-1 $360 $359 $548 $694 reversed $134 $-1 #
edge $-1 $695 -8.9102836932331364 $545 1.0694430631949516e-014 $539 $696 forward 7 unknown #
vertex $-1 $362 $697 #
straight-curve $-1 -3.533057912756405 -24.510003793145138 4.0928020777295355 1 0 0 I I #
coedge $-1 $690 $363 $366 $552 forward $537 $-1 #
coedge $-1 $363 $690 $543 $694 forward $537 $-1 #
vertex $-1 $364 $698 #
straight-curve $-1 -10.959808407632483 -46.316549425309518 10.817478617368909 0 -1 0 I I #
straight-curve $-1 -10.959808407632483 -24.510003793145131 4.0928020777295444 0 0.65605901945558964 0.75470958851134928 I I #
edge $-1 $367 -10.959808407632483 $692 -3.172423243393137 $366 $699 forward 7 unknown #
point $-1 -10.959808407632483 -24.510003793145138 10.817478617368909 #
point $-1 -10.959808407632483 -24.510003793145138 4.0928020777295364 #
edge $-1 $700 1 $700 0 $370 $-1 forward 7 unknown #
vertex $-1 $371 $701 #
ellipse-curve $-1 -7.06611582551281 -18.818313899069373 5.0482124324412183 0 -0.75470958851134928 0.65605901945558964 1.5 0 0 1 I I #
point $-1 -5.56611582551281 -21.587167801718305 7.4551403475492215 #
loop $-1 $-1 $382 $374 #
plane-surface $-1 0 0 10.817478617368909 0 0 1 1 0 0 forward_v I I I I #
coedge $-1 $562 $377 $379 $566 reversed $229 $-1 #
coedge $-1 $377 $561 $702 $703 reversed $229 $-1 #
coedge $-1 $385 $380 $377 $564 forward $375 $-1 #
edge $-1 $567 -27.562849741850712 $704 -20.83817320221134 $563 $705 forward 7 unknown #
coedge $-1 $379 $378 $570 $706 reversed $143 $-1 #
edge $-1 $707 -8.9102836932331364 $567 1.0694430631949516e-014 $561 $708 forward 7 unknown #
vertex $-1 $381 $709 #
straight-curve $-1 3.533057912756405 -24.510003793145138 4.0928020777295355 1 0 0 I I #
coedge $-1 $702 $382 $385 $574 forward $559 $-1 #
coedge $-1 $382 $702 $565 $706 forward $559 $-1 #
vertex $-1 $383 $710 #
straight-curve $-1 3.172423243393137 -46.316549425309518 10.817478617368909 0 -1 0 I I #
straight-curve $-1 3.172423243393137 -24.510003793145131 4.0928020777295444 0 0.65605901945558964 0.75470958851134928 I I #
edge $-1 $386 3.172423243393137 $704 10.959808407632483 $385 $711 forward 7 unknown #
point $-1 3.172423243393137 -24.510003793145138 10.817478617368909 #
point $-1 3.172423243393137 -24.510003793145138 4.0928020777295364 #
edge $-1 $712 1 $712 0 $389 $-1 forward 7 unknown #
vertex $-1 $390 $713 #
ellipse-curve $-1 7.06611582551281 -18.818313899069373 5.0482124324412183 0 -0.75470958851134928 0.65605901945558964 1.5 0 0 1 I I #
point $-1 8.56611582551281 -21.587167801718305 7.4551403475492215 #
loop $-1 $-1 $401 $393 #
plane-surface $-1 0 0 10.817478617368909 0 0 1 1 0 0 forward_v I I I I #
coedge $-1 $584 $396 $398 $588 reversed $244 $-1 #
coedge $-1 $396 $583 $714 $715 reversed $244 $-1 #
coedge $-1 $404 $399 $396 $586 forward $394 $-1 #
edge $-1 $589 -27.562849741850712 $716 -20.83817320221134 $585 $717 forward 7 unknown #
coedge $-1 $398 $397 $592 $718 reversed $152 $-1 #
edge $-1 $719 -8.9102836932331364 $589 1.0694430631949516e-014 $583 $720 forward 7 unknown #
vertex $-1 $400 $721 #
straight-curve $-1 10.599173738269215 -24.510003793145138 4.0928020777295355 1 0 0 I I #
coedge $-1 $714 $401 $404 $596 forward $581 $-1 #
coedge $-1 $401 $714 $587 $718 forward $581 $-1 #
vertex $-1 $402 $722 #
straight-curve $-1 17.304654894418757 -46.316549425309518 10.817478617368909 0 -1 0 I I #
straight-curve $-1 17.304654894418757 -24.510003793145131 4.0928020777295444 0 0.65605901945558964 0.75470958851134928 I I #
edge $-1 $405 17.304654894418757 $716 25.092040058658103 $404 $723 forward 7 unknown #
point $-1 17.304654894418757 -24.510003793145138 10.817478617368909 #
point $-1 17.304654894418757 -24.510003793145138 4.0928020777295364 #
edge $-1 $724 1 $724 0 $408 $-1 forward 7 unknown #
vertex $-1 $409 $725 #
ellipse-curve $-1 21.19834747653843 -18.818313899069373 5.0482124324412183 0 -0.75470958851134928 0.65605901945558964 1.5 0 0 1 I I #
point $-1 22.69834747653843 -21.587167801718305 7.4551403475492215 #
loop $-1 $-1 $420 $412 #
plane-surface $-1 0 0 10.817478617368909 0 0 1 1 0 0 forward_v I I I I #
coedge $-1 $606 $415 $417 $610 reversed $259 $-1 #
coedge $-1 $415 $605 $726 $727 reversed $259 $-1 #
coedge $-1 $423 $418 $415 $608 forward $413 $-1 #
edge $-1 $611 -41.853394273476049 $728 -37.602053737323857 $607 $729 forward 7 unknown #
coedge $-1 $417 $416 $614 $730 reversed $161 $-1 #
edge $-1 $731 43.950865234017087 $611 49.020007586290248 $605 $732 forward 7 unknown #
vertex $-1 $419 $733 #
straight-curve $-1 8.6600426289897676 24.510003793145138 6.5661380812167138 -1 0 0 I I #
coedge $-1 $726 $420 $423 $618 forward $603 $-1 #
coedge $-1 $420 $726 $609 $730 forward $603 $-1 #
vertex $-1 $421 $734 #
straight-curve $-1 27.025838258883084 36.756771573149152 10.817478617368913 0 1 0 I I #
straight-curve $-1 27.025838258883084 -2.1882052308814224 47.677776076671734 0 -0.54463902268945019 0.83867057594974714 I I #
edge $-1 $424 -27.025838258883084 $728 -7.6143322570759864 $423 $735 forward 7 unknown #
point $-1 27.025838258883084 24.510003793145138 10.817478617368909 #
point $-1 27.025838258883084 24.510003793145135 6.5661380812167138 #
edge $-1 $736 1 $736 0 $427 $-1 forward 7 unknown #
vertex $-1 $428 $737 #
ellipse-curve $-1 13.160476829020872 21.960962014311001 7.9329006525871177 0 0.83867057594974714 0.54463902268945019 1 0 0 1 I I #
point $-1 14.160476829020872 23.129577424837247 8.6918083492927956 #
edge $-1 $738 1 $738 0 $431 $-1 forward 7 unknown #
vertex $-1 $432 $739 #
ellipse-curve $-1 21.479693686938205 21.960962014311001 7.9329006525871177 0 0.83867057594974714 0.54463902268945019 1 0 0 1 I I #
point $-1 22.479693686938205 23.129577424837247 8.6918083492927956 #
plane-surface $-1 45.131992553483684 0 0 -1 0 0 0 0 1 forward_v I I I I #
coedge $-1 $440 $438 $442 $634 reversed $281 $-1 #
edge $-1 $453 -10.817478617368909 $636 10.817478617368909 $452 $740 forward 7 unknown #
vertex $-1 $634 $741 #
straight-curve $-1 -45.131992553483684 -24.510003793145138 0 0 0 -1 I I #
edge $-1 $632 -24.510003793145138 $636 24.510003793145138 $630 $742 forward 7 unknown #
straight-curve $-1 0 -24.510003793145138 -10.817478617368909 -1 0 0 I I #
vertex $-1 $445 $743 #
straight-curve $-1 0 24.510003793145138 -10.817478617368909 1 0 0 I I #
point $-1 45.131992553483684 24.510003793145138 -10.817478617368909 #
point $-1 45.131992553483684 -24.510003793145138 -10.817478617368909 #
straight-curve $-1 -45.131992553483684 0 10.817478617368909 0 -1 0 I I #
point $-1 -45.131992553483684 24.510003793145138 10.817478617368909 #
point $-1 -45.131992553483684 -24.510003793145138 10.817478617368909 #
straight-curve $-1 45.131992553483684 -24.510003793145138 0 0 0 -1 I I #
straight-curve $-1 45.131992553483684 24.510003793145138 0 0 0 -1 I I #
plane-surface $-1 0 24.510003793145138 0 0 -1 0 0 0 -1 forward_v I I I I #
coedge $-1 $656 $655 $468 $648 forward $463 $-1 #
straight-curve $-1 -34.609309788837507 -24.510003793145138 -3.8326929444197311 0 0 1 I I #
edge $-1 $651 -24.510003793145138 $649 24.510003793145138 $646 $744 forward 7 unknown #
vertex $-1 $469 $745 #
straight-curve $-1 -19.935325585580298 -24.510003793145138 -9.205292777194126 1 0 0 I I #
vertex $-1 $471 $746 #
straight-curve $-1 -19.935325585580298 24.510003793145138 -9.205292777194126 -1 0 0 I I #
point $-1 -34.609309788837507 24.510003793145138 -9.205292777194126 #
point $-1 -34.609309788837507 -24.510003793145138 -9.205292777194126 #
coedge $-1 $646 $475 $478 $658 forward $463 $-1 #
coedge $-1 $475 $646 $482 $660 reversed $463 $-1 #
straight-curve $-1 -45.131992553483684 0 -6.1254790004847983 0 1 0 I I #
edge $-1 $480 6.1254790004847983 $651 9.205292777194126 $478 $747 forward 7 unknown #
point $-1 -45.131992553483684 24.510003793145138 -6.1254790004847983 #
edge $-1 $483 6.1254790004847983 $649 9.205292777194126 $656 $748 forward 7 unknown #
point $-1 -45.131992553483684 -24.510003793145138 -6.1254790004847983 #
straight-curve $-1 -34.609309788837507 24.510003793145138 -3.8326929444197311 0 0 -1 I I #
plane-surface $-1 45.131992553483684 0 0 -1 0 0 0 0 1 forward_v I I I I #
coedge $-1 $492 $491 $507 $675 reversed $191 $-1 #
edge $-1 $668 -24.510003793145138 $666 24.510003793145138 $491 $749 forward 7 unknown #
vertex $-1 $499 $750 #
straight-curve $-1 34.609309788837514 24.510003793145138 -3.8326929444197311 0 0 1 I I #
vertex $-1 $497 $751 #
straight-curve $-1 19.935325585580301 -24.510003793145138 -9.205292777194126 1 0 0 I I #
straight-curve $-1 19.935325585580301 24.510003793145138 -9.205292777194126 -1 0 0 I I #
point $-1 45.131992553483691 -24.510003793145138 -9.205292777194126 #
point $-1 45.131992553483691 24.510003793145138 -9.205292777194126 #
straight-curve $-1 34.609309788837514 0 -6.1254790004847983 0 -1 0 I I #
point $-1 34.609309788837514 24.510003793145138 -6.1254790004847983 #
edge $-1 $509 2.2927860560650672 $668 5.3725998327743945 $507 $752 forward 7 unknown #
point $-1 34.609309788837514 -24.510003793145138 -6.1254790004847983 #
straight-curve $-1 45.131992553483684 -24.510003793145138 0 0 0 -1 I I #
straight-curve $-1 45.131992553483684 24.510003793145138 0 0 0 -1 I I #
edge $-1 $680 21.806545632164379 $683 27.652217615018046 $516 $753 forward 7 unknown #
vertex $-1 $679 $754 #
straight-curve $-1 -17.304654894418753 -24.510003793145138 31.65565181958025 0 0 1 I I #
edge $-1 $683 6.7054811561495402 $527 14.492866320388886 $526 $755 forward 7 unknown #
vertex $-1 $682 $756 #
straight-curve $-1 -17.304654894418753 -24.510003793145131 4.0928020777295444 0 -0.65605901945558964 -0.75470958851134928 I I #
point $-1 -17.304654894418753 -24.510003793145138 4.0928020777295364 #
point $-1 -25.0920400586581 -18.664331810291472 10.817478617368909 #
straight-curve $-1 0 -24.510003793145138 10.817478617368909 1 0 0 I I #
vertex $-1 $533 $757 #
point $-1 -19.698347476538427 -18.818313899069373 5.0482124324412183 #
coedge $-1 $548 $547 $540 $691 forward $537 $-1 #
edge $-1 $692 21.806545632164379 $695 27.652217615018046 $690 $758 forward 7 unknown #
vertex $-1 $691 $759 #
straight-curve $-1 -3.172423243393137 -24.510003793145138 31.65565181958025 0 0 1 I I #
edge $-1 $695 -0.36063466936326805 $549 7.4267504948760781 $548 $760 forward 7 unknown #
vertex $-1 $694 $761 #
straight-curve $-1 -3.172423243393137 -24.510003793145131 4.0928020777295444 0 -0.65605901945558964 -0.75470958851134928 I I #
point $-1 -3.172423243393137 -24.510003793145138 4.0928020777295364 #
point $-1 -10.959808407632483 -18.664331810291472 10.817478617368909 #
straight-curve $-1 0 -24.510003793145138 10.817478617368909 1 0 0 I I #
vertex $-1 $555 $762 #
point $-1 -5.56611582551281 -18.818313899069373 5.0482124324412183 #
coedge $-1 $570 $569 $562 $703 forward $559 $-1 #
edge $-1 $704 21.806545632164379 $707 27.652217615018046 $702 $763 forward 7 unknown #
vertex $-1 $703 $764 #
straight-curve $-1 10.959808407632483 -24.510003793145138 31.65565181958025 0 0 1 I I #
edge $-1 $707 -7.4267504948760781 $571 0.36063466936326805 $570 $765 forward 7 unknown #
vertex $-1 $706 $766 #
straight-curve $-1 10.959808407632483 -24.510003793145131 4.0928020777295444 0 -0.65605901945558964 -0.75470958851134928 I I #
point $-1 10.959808407632483 -24.510003793145138 4.0928020777295364 #
point $-1 3.172423243393137 -18.664331810291472 10.817478617368909 #
straight-curve $-1 0 -24.510003793145138 10.817478617368909 1 0 0 I I #
vertex $-1 $577 $767 #
point $-1 8.56611582551281 -18.818313899069373 5.0482124324412183 #
coedge $-1 $592 $591 $584 $715 forward $581 $-1 #
edge $-1 $716 21.806545632164379 $719 27.652217615018046 $714 $768 forward 7 unknown #
vertex $-1 $715 $769 #
straight-curve $-1 25.092040058658103 -24.510003793145138 31.65565181958025 0 0 1 I I #
edge $-1 $719 -14.492866320388888 $593 -6.705481156149542 $592 $770 forward 7 unknown #
vertex $-1 $718 $771 #
straight-curve $-1 25.092040058658103 -24.510003793145131 4.0928020777295444 0 -0.65605901945558964 -0.75470958851134928 I I #
point $-1 25.092040058658103 -24.510003793145138 4.0928020777295364 #
point $-1 17.304654894418757 -18.664331810291472 10.817478617368909 #
straight-curve $-1 0 -24.510003793145138 10.817478617368909 1 0 0 I I #
vertex $-1 $599 $772 #
point $-1 22.69834747653843 -18.818313899069373 5.0482124324412183 #
coedge $-1 $614 $613 $606 $727 forward $603 $-1 #
edge $-1 $728 12.246767780004014 $731 15.007620516619774 $726 $773 forward 7 unknown #
vertex $-1 $727 $774 #
straight-curve $-1 7.6143322570759864 24.510003793145138 48.419532354692763 0 0 1 I I #
edge $-1 $731 -1.0457103719137812 $615 18.365795629893316 $614 $775 forward 7 unknown #
vertex $-1 $730 $776 #
straight-curve $-1 7.6143322570759864 -2.1882052308814224 47.677776076671734 0 0.54463902268945019 -0.83867057594974714 I I #
point $-1 7.6143322570759864 24.510003793145135 6.5661380812167138 #
point $-1 27.025838258883084 21.749151056529378 10.817478617368906 #
straight-curve $-1 0 24.510003793145138 10.817478617368909 -1 0 0 I I #
vertex $-1 $621 $777 #
point $-1 14.160476829020872 21.960962014311001 7.9329006525871177 #
vertex $-1 $625 $778 #
point $-1 22.479693686938205 21.960962014311001 7.9329006525871177 #
straight-curve $-1 -45.131992553483684 24.510003793145138 0 0 0 -1 I I #
point $-1 -45.131992553483684 -24.510003793145138 -10.817478617368909 #
straight-curve $-1 -45.131992553483684 0 -10.817478617368909 0 1 0 I I #
point $-1 -45.131992553483684 24.510003793145138 -10.817478617368909 #
straight-curve $-1 -45.131992553483684 0 -9.205292777194126 0 -1 0 I I #
point $-1 -45.131992553483684 -24.510003793145138 -9.205292777194126 #
point $-1 -45.131992553483684 24.510003793145138 -9.205292777194126 #
straight-curve $-1 -45.131992553483684 24.510003793145138 0 0 0 -1 I I #
straight-curve $-1 -45.131992553483684 -24.510003793145138 0 0 0 -1 I I #
straight-curve $-1 34.609309788837514 0 -9.205292777194126 0 1 0 I I #
point $-1 34.609309788837514 24.510003793145138 -9.205292777194126 #
point $-1 34.609309788837514 -24.510003793145138 -9.205292777194126 #
straight-curve $-1 34.609309788837514 -24.510003793145138 -3.8326929444197311 0 0 -1 I I #
straight-curve $-1 -17.304654894418753 -46.316549425309518 10.817478617368909 0 1 0 I I #
point $-1 -17.304654894418753 -24.510003793145138 10.817478617368909 #
straight-curve $-1 -10.599173738269213 -18.664331810291472 10.817478617368909 -1 0 0 I I #
point $-1 -17.304654894418753 -18.664331810291472 10.817478617368909 #
point $-1 -21.198347476538427 -17.686249516302347 4.0641239032578333 #
straight-curve $-1 -3.172423243393137 -46.316549425309518 10.817478617368909 0 1 0 I I #
point $-1 -3.172423243393137 -24.510003793145138 10.817478617368909 #
straight-curve $-1 -3.533057912756405 -18.664331810291472 10.817478617368909 -1 0 0 I I #
point $-1 -3.172423243393137 -18.664331810291472 10.817478617368909 #
point $-1 -7.06611582551281 -17.686249516302347 4.0641239032578333 #
straight-curve $-1 10.959808407632483 -46.316549425309518 10.817478617368909 0 1 0 I I #
point $-1 10.959808407632483 -24.510003793145138 10.817478617368909 #
straight-curve $-1 3.533057912756405 -18.664331810291472 10.817478617368909 -1 0 0 I I #
point $-1 10.959808407632483 -18.664331810291472 10.817478617368909 #
point $-1 7.06611582551281 -17.686249516302347 4.0641239032578333 #
straight-curve $-1 25.092040058658103 -46.316549425309518 10.817478617368909 0 1 0 I I #
point $-1 25.092040058658103 -24.510003793145138 10.817478617368909 #
straight-curve $-1 10.599173738269215 -18.664331810291472 10.817478617368909 -1 0 0 I I #
point $-1 25.092040058658103 -18.664331810291472 10.817478617368909 #
point $-1 21.19834747653843 -17.686249516302347 4.0641239032578333 #
straight-curve $-1 7.6143322570759864 36.756771573149152 10.817478617368913 0 -1 0 I I #
point $-1 7.6143322570759864 24.510003793145138 10.817478617368909 #
straight-curve $-1 8.6600426289897676 21.749151056529374 10.817478617368909 1 0 0 I I #
point $-1 7.6143322570759864 21.749151056529378 10.817478617368906 #
point $-1 13.160476829020872 21.122291438361252 7.3882616298976673 #
point $-1 21.479693686938205 21.122291438361252 7.3882616298976673 #
End-of-ACIS-data 