500 0 11 0           
7 Unknown 11 ACIS 5.0 NT 24 Fri Mar 26 19:23:52 1999 
-1 9.9999999999999995e-007 1e-010 
body $-1 $11 $-1 $12 #
body $-1 $13 $-1 $14 #
body $-1 $15 $-1 $16 #
body $-1 $17 $-1 $18 #
body $-1 $19 $-1 $20 #
body $-1 $21 $-1 $22 #
body $-1 $23 $-1 $24 #
body $-1 $25 $-1 $26 #
body $-1 $27 $-1 $28 #
body $-1 $29 $-1 $30 #
body $-1 $31 $-1 $32 #
lump $-1 $-1 $33 $0 #
transform $-1 1 0 0 0 1 0 0 0 1 79.968260750144964 32.133002873829881 7.6004402439445515 1 rotate no_reflect no_shear #
lump $-1 $-1 $34 $1 #
transform $-1 1 0 0 0 1 0 0 0 1 79.968260750144964 32.133002873829881 7.6004402439445515 1 rotate no_reflect no_shear #
lump $-1 $-1 $35 $2 #
transform $-1 1 0 0 0 1 0 0 0 1 79.968260750144964 32.133002873829881 7.6004402439445515 1 rotate no_reflect no_shear #
lump $-1 $-1 $36 $3 #
transform $-1 1 0 0 0 1 0 0 0 1 79.968260750144964 32.133002873829881 7.6004402439445515 1 rotate no_reflect no_shear #
lump $-1 $-1 $37 $4 #
transform $-1 1 0 0 0 1 0 0 0 1 79.968260750144964 32.133002873829881 7.6004402439445515 1 rotate no_reflect no_shear #
lump $-1 $-1 $38 $5 #
transform $-1 1 0 0 0 1 0 0 0 1 79.968260750144964 32.133002873829881 7.6004402439445515 1 rotate no_reflect no_shear #
lump $-1 $-1 $39 $6 #
transform $-1 1 0 0 0 1 0 0 0 1 79.968260750144964 32.133002873829881 7.6004402439445515 1 rotate no_reflect no_shear #
lump $-1 $-1 $40 $7 #
transform $-1 1 0 0 0 1 0 0 0 1 79.968260750144964 32.133002873829881 7.6004402439445515 1 rotate no_reflect no_shear #
lump $-1 $-1 $41 $8 #
transform $-1 1 0 0 0 1 0 0 0 1 79.968260750144964 32.133002873829881 7.6004402439445515 1 rotate no_reflect no_shear #
lump $-1 $-1 $42 $9 #
transform $-1 1 0 0 0 1 0 0 0 1 79.968260750144964 32.133002873829881 7.6004402439445515 1 rotate no_reflect no_shear #
lump $-1 $-1 $43 $10 #
transform $-1 1 0 0 0 1 0 0 0 1 79.968260750144964 32.133002873829881 7.6004402439445515 1 rotate no_reflect no_shear #
shell $-1 $-1 $-1 $44 $-1 $11 #
shell $-1 $-1 $-1 $45 $-1 $13 #
shell $-1 $-1 $-1 $46 $-1 $15 #
shell $-1 $-1 $-1 $47 $-1 $17 #
shell $-1 $-1 $-1 $48 $-1 $19 #
shell $-1 $-1 $-1 $49 $-1 $21 #
shell $-1 $-1 $-1 $50 $-1 $23 #
shell $-1 $-1 $-1 $51 $-1 $25 #
shell $-1 $-1 $-1 $52 $-1 $27 #
shell $-1 $-1 $-1 $53 $-1 $29 #
shell $-1 $-1 $-1 $54 $-1 $31 #
face $-1 $55 $56 $33 $-1 $57 forward single #
face $-1 $58 $59 $34 $-1 $60 forward single #
face $-1 $61 $62 $35 $-1 $63 forward single #
face $-1 $64 $65 $36 $-1 $66 reversed single #
face $-1 $67 $68 $37 $-1 $69 forward single #
face $-1 $70 $71 $38 $-1 $72 forward single #
face $-1 $73 $74 $39 $-1 $75 forward single #
face $-1 $76 $77 $40 $-1 $78 reversed single #
face $-1 $79 $80 $41 $-1 $81 forward single #
face $-1 $82 $83 $42 $-1 $84 forward single #
face $-1 $85 $86 $43 $-1 $87 forward single #
face $-1 $88 $89 $33 $-1 $90 reversed single #
loop $-1 $-1 $91 $44 #
plane-surface $-1 0 0 7.6004402439445515 0 0 1 1 0 0 forward_v I I I I #
face $-1 $92 $93 $34 $-1 $94 reversed single #
loop $-1 $-1 $95 $45 #
plane-surface $-1 -79.968260750144964 0 0 1 0 0 0 0 -1 forward_v I I I I #
face $-1 $96 $97 $35 $-1 $98 reversed single #
loop $-1 $-1 $99 $46 #
plane-surface $-1 79.968260750144964 0 0 -1 0 0 0 0 1 forward_v I I I I #
face $-1 $100 $101 $36 $-1 $102 reversed single #
loop $-1 $-1 $103 $47 #
plane-surface $-1 -12.69156792437316 -134.93821849416059 126.37031750657124 -1 0 0 0 -0.64278761758704617 0.76604443648966558 forward_v I I I I #
face $-1 $104 $105 $37 $-1 $106 forward single #
loop $-1 $107 $108 $48 #
cone-surface $-1 -43.339097928428423 -29.388991300669733 5.1179801273949703 0 0.64278761758704617 -0.76604443648966558 1 0 0 1 I I 0 1 1 forward I I I I #
face $-1 $109 $110 $38 $-1 $111 forward single #
loop $-1 $112 $113 $49 #
cone-surface $-1 -31.846274176907698 -29.388991300669733 5.1179801273949703 0 0.64278761758704617 -0.76604443648966558 1 0 0 1 I I 0 1 1 forward I I I I #
face $-1 $114 $115 $39 $-1 $116 forward single #
loop $-1 $117 $118 $50 #
cone-surface $-1 -20.353450425386974 -29.388991300669733 5.1179801273949703 0 0.64278761758704617 -0.76604443648966558 1 0 0 1 I I 0 1 1 forward I I I I #
face $-1 $119 $120 $40 $-1 $121 reversed single #
loop $-1 $-1 $122 $51 #
plane-surface $-1 -51.000980429442237 85.707602335752981 167.67971023294487 1 0 0 0 -0.64278761758704617 -0.76604443648966558 forward_v I I I I #
face $-1 $123 $124 $41 $-1 $125 forward single #
loop $-1 $126 $127 $52 #
cone-surface $-1 -43.339097928428423 29.388991300669733 5.1179801273949668 0 -0.64278761758704617 -0.76604443648966558 1 0 0 1 I I 0 1 1 forward I I I I #
face $-1 $128 $129 $42 $-1 $130 forward single #
loop $-1 $131 $132 $53 #
cone-surface $-1 -31.846274176907698 29.388991300669733 5.1179801273949668 0 -0.64278761758704617 -0.76604443648966558 1 0 0 1 I I 0 1 1 forward I I I I #
face $-1 $133 $134 $43 $-1 $135 forward single #
loop $-1 $136 $137 $54 #
cone-surface $-1 -20.353450425386974 29.388991300669733 5.1179801273949668 0 -0.64278761758704617 -0.76604443648966558 1 0 0 1 I I 0 1 1 forward I I I I #
face $-1 $138 $139 $33 $-1 $140 reversed single #
loop $-1 $-1 $141 $55 #
plane-surface $-1 0 0 -7.6004402439445515 0 0 1 1 0 0 forward_v I I I I #
coedge $-1 $142 $143 $144 $145 forward $56 $-1 #
face $-1 $146 $147 $34 $-1 $148 forward single #
loop $-1 $-1 $149 $58 #
plane-surface $-1 0 32.133002873829881 0 0 -1 0 0 0 -1 forward_v I I I I #
coedge $-1 $150 $151 $152 $153 forward $59 $-1 #
face $-1 $154 $155 $35 $-1 $156 forward single #
loop $-1 $-1 $157 $61 #
plane-surface $-1 0 32.133002873829881 0 0 -1 0 0 0 -1 forward_v I I I I #
coedge $-1 $158 $159 $160 $161 forward $62 $-1 #
face $-1 $162 $163 $36 $-1 $164 reversed single #
loop $-1 $-1 $165 $64 #
plane-surface $-1 -31.846274176907698 -32.133002873829838 3.8518350197643656 0 -0.64278761758704617 0.76604443648966558 1 0 0 forward_v I I I I #
coedge $-1 $166 $167 $168 $169 reversed $65 $-1 #
face $-1 $-1 $170 $37 $-1 $171 forward single #
loop $-1 $172 $173 $67 #
cone-surface $-1 -43.339097928428423 -28.557292743498252 4.1268004046906546 0 0.64278761758704617 -0.76604443648966558 0.5 0 0 1 I I -0.70710678118654746 0.70710678118654746 0.5 forward I I I I #
loop $-1 $-1 $174 $48 #
coedge $-1 $108 $108 $175 $176 reversed $68 $-1 #
face $-1 $-1 $177 $38 $-1 $178 forward single #
loop $-1 $179 $180 $70 #
cone-surface $-1 -31.846274176907698 -28.557292743498252 4.1268004046906546 0 0.64278761758704617 -0.76604443648966558 0.5 0 0 1 I I -0.70710678118654746 0.70710678118654746 0.5 forward I I I I #
loop $-1 $-1 $181 $49 #
coedge $-1 $113 $113 $182 $183 reversed $71 $-1 #
face $-1 $-1 $184 $39 $-1 $185 forward single #
loop $-1 $186 $187 $73 #
cone-surface $-1 -20.353450425386974 -28.557292743498252 4.1268004046906546 0 0.64278761758704617 -0.76604443648966558 0.5 0 0 1 I I -0.70710678118654746 0.70710678118654746 0.5 forward I I I I #
loop $-1 $-1 $188 $50 #
coedge $-1 $118 $118 $189 $190 reversed $74 $-1 #
face $-1 $191 $192 $40 $-1 $193 reversed single #
loop $-1 $-1 $194 $76 #
plane-surface $-1 -31.846274176907698 -17.097613284577776 45.161227746137996 0 0.64278761758704617 0.76604443648966558 1 0 0 forward_v I I I I #
coedge $-1 $195 $196 $197 $198 reversed $77 $-1 #
face $-1 $-1 $199 $41 $-1 $200 forward single #
loop $-1 $201 $202 $79 #
cone-surface $-1 -43.339097928428423 28.557292743498252 4.126800404690651 0 -0.64278761758704617 -0.76604443648966558 0.5 0 0 1 I I -0.70710678118654746 0.70710678118654746 0.5 forward I I I I #
loop $-1 $-1 $203 $52 #
coedge $-1 $127 $127 $204 $205 reversed $80 $-1 #
face $-1 $-1 $206 $42 $-1 $207 forward single #
loop $-1 $208 $209 $82 #
cone-surface $-1 -31.846274176907698 28.557292743498252 4.126800404690651 0 -0.64278761758704617 -0.76604443648966558 0.5 0 0 1 I I -0.70710678118654746 0.70710678118654746 0.5 forward I I I I #
loop $-1 $-1 $210 $53 #
coedge $-1 $132 $132 $211 $212 reversed $83 $-1 #
face $-1 $-1 $213 $43 $-1 $214 forward single #
loop $-1 $215 $216 $85 #
cone-surface $-1 -20.353450425386974 28.557292743498252 4.126800404690651 0 -0.64278761758704617 -0.76604443648966558 0.5 0 0 1 I I -0.70710678118654746 0.70710678118654746 0.5 forward I I I I #
loop $-1 $-1 $217 $54 #
coedge $-1 $137 $137 $218 $219 reversed $86 $-1 #
face $-1 $220 $221 $33 $-1 $222 reversed single #
loop $-1 $-1 $223 $88 #
plane-surface $-1 0 -32.133002873829881 0 0 1 0 0 0 1 forward_v I I I I #
coedge $-1 $224 $225 $226 $227 forward $89 $-1 #
coedge $-1 $228 $91 $229 $230 forward $56 $-1 #
coedge $-1 $91 $228 $231 $232 forward $56 $-1 #
coedge $-1 $233 $234 $91 $145 reversed $235 $-1 #
edge $-1 $236 -32.133002873829881 $237 32.133002873829881 $144 $238 forward 7 unknown #
face $-1 $239 $240 $34 $-1 $241 reversed single #
loop $-1 $-1 $152 $92 #
plane-surface $-1 -84.862309176898634 0 -4.6004402439445515 0 0 1 1 0 0 forward_v I I I I #
coedge $-1 $242 $243 $151 $244 forward $93 $-1 #
coedge $-1 $245 $95 $246 $247 reversed $59 $-1 #
coedge $-1 $95 $245 $149 $244 reversed $59 $-1 #
coedge $-1 $248 $249 $95 $153 reversed $147 $-1 #
edge $-1 $250 -32.133002873829881 $251 32.133002873829881 $152 $252 forward 7 unknown #
face $-1 $253 $254 $35 $-1 $255 reversed single #
loop $-1 $-1 $256 $96 #
plane-surface $-1 84.862309176898634 0 -4.6004402439445515 0 0 1 1 0 0 forward_v I I I I #
coedge $-1 $257 $258 $158 $259 forward $97 $-1 #
coedge $-1 $260 $99 $157 $259 reversed $62 $-1 #
coedge $-1 $99 $260 $261 $262 reversed $62 $-1 #
coedge $-1 $263 $264 $99 $161 reversed $155 $-1 #
edge $-1 $265 -32.133002873829881 $266 32.133002873829881 $160 $267 forward 7 unknown #
face $-1 $268 $269 $36 $-1 $270 forward single #
loop $-1 $-1 $271 $100 #
plane-surface $-1 -51.000980429442237 -134.93821849416059 126.37031750657124 1 0 0 0 0.64278761758704617 -0.76604443648966558 forward_v I I I I #
coedge $-1 $272 $273 $274 $275 reversed $101 $-1 #
coedge $-1 $167 $103 $276 $277 reversed $65 $-1 #
coedge $-1 $103 $166 $272 $278 reversed $65 $-1 #
coedge $-1 $274 $279 $103 $169 forward $269 $-1 #
edge $-1 $280 35.336106373250416 $281 39.803520022814823 $168 $282 forward 7 unknown #
loop $-1 $-1 $175 $104 #
plane-surface $-1 -31.846274176907698 -32.133002873829838 3.8518350197643656 0 -0.64278761758704617 0.76604443648966558 1 0 0 forward_v I I I I #
loop $-1 $-1 $283 $67 #
coedge $-1 $173 $173 $174 $284 reversed $105 $-1 #
coedge $-1 $174 $174 $173 $284 forward $107 $-1 #
coedge $-1 $175 $175 $108 $176 forward $170 $-1 #
edge $-1 $285 -6.0976456530054579e-016 $285 6.2831853071795996 $175 $286 forward 7 unknown #
loop $-1 $-1 $182 $109 #
plane-surface $-1 -31.846274176907698 -32.133002873829838 3.8518350197643656 0 -0.64278761758704617 0.76604443648966558 1 0 0 forward_v I I I I #
loop $-1 $-1 $287 $70 #
coedge $-1 $180 $180 $181 $288 reversed $110 $-1 #
coedge $-1 $181 $181 $180 $288 forward $112 $-1 #
coedge $-1 $182 $182 $113 $183 forward $177 $-1 #
edge $-1 $289 -6.0976456530054579e-016 $289 6.2831853071795996 $182 $290 forward 7 unknown #
loop $-1 $-1 $189 $114 #
plane-surface $-1 -31.846274176907698 -32.133002873829838 3.8518350197643656 0 -0.64278761758704617 0.76604443648966558 1 0 0 forward_v I I I I #
loop $-1 $-1 $291 $73 #
coedge $-1 $187 $187 $188 $292 reversed $115 $-1 #
coedge $-1 $188 $188 $187 $292 forward $117 $-1 #
coedge $-1 $189 $189 $118 $190 forward $184 $-1 #
edge $-1 $293 -6.0976456530054579e-016 $293 6.2831853071795996 $189 $294 forward 7 unknown #
face $-1 $295 $296 $40 $-1 $297 reversed single #
loop $-1 $-1 $298 $119 #
plane-surface $-1 -12.69156792437316 85.707602335752981 167.67971023294487 -1 0 0 0 0.64278761758704617 0.76604443648966558 forward_v I I I I #
coedge $-1 $299 $300 $301 $302 reversed $120 $-1 #
coedge $-1 $196 $122 $303 $304 reversed $77 $-1 #
coedge $-1 $122 $195 $299 $305 reversed $77 $-1 #
coedge $-1 $301 $306 $122 $198 forward $307 $-1 #
edge $-1 $308 10.72079829404661 $309 15.188211943611002 $197 $310 forward 7 unknown #
loop $-1 $-1 $204 $123 #
plane-surface $-1 -31.846274176907698 -17.097613284577776 45.161227746137996 0 0.64278761758704617 0.76604443648966558 1 0 0 forward_v I I I I #
loop $-1 $-1 $311 $79 #
coedge $-1 $202 $202 $203 $312 reversed $124 $-1 #
coedge $-1 $203 $203 $202 $312 forward $126 $-1 #
coedge $-1 $204 $204 $127 $205 forward $199 $-1 #
edge $-1 $313 4.3789618652077234e-016 $313 6.2831853071796004 $204 $314 forward 7 unknown #
loop $-1 $-1 $211 $128 #
plane-surface $-1 -31.846274176907698 -17.097613284577776 45.161227746137996 0 0.64278761758704617 0.76604443648966558 1 0 0 forward_v I I I I #
loop $-1 $-1 $315 $82 #
coedge $-1 $209 $209 $210 $316 reversed $129 $-1 #
coedge $-1 $210 $210 $209 $316 forward $131 $-1 #
coedge $-1 $211 $211 $132 $212 forward $206 $-1 #
edge $-1 $317 4.3789618652077234e-016 $317 6.2831853071796004 $211 $318 forward 7 unknown #
loop $-1 $-1 $218 $133 #
plane-surface $-1 -31.846274176907698 -17.097613284577776 45.161227746137996 0 0.64278761758704617 0.76604443648966558 1 0 0 forward_v I I I I #
loop $-1 $-1 $319 $85 #
coedge $-1 $216 $216 $217 $320 reversed $134 $-1 #
coedge $-1 $217 $217 $216 $320 forward $136 $-1 #
coedge $-1 $218 $218 $137 $219 forward $213 $-1 #
edge $-1 $321 4.3789618652077234e-016 $321 6.2831853071796004 $218 $322 forward 7 unknown #
face $-1 $323 $324 $33 $-1 $325 reversed single #
loop $-1 $-1 $326 $138 #
plane-surface $-1 -79.968260750144964 0 0 1 0 0 0 0 -1 forward_v I I I I #
coedge $-1 $327 $231 $328 $329 forward $139 $-1 #
coedge $-1 $330 $141 $327 $331 forward $89 $-1 #
coedge $-1 $141 $330 $332 $333 forward $89 $-1 #
coedge $-1 $234 $233 $141 $227 reversed $235 $-1 #
edge $-1 $334 -32.133002873829881 $335 32.133002873829881 $226 $336 forward 7 unknown #
coedge $-1 $143 $142 $337 $338 forward $56 $-1 #
coedge $-1 $339 $340 $142 $230 reversed $324 $-1 #
edge $-1 $237 -79.968260750144964 $341 79.968260750144964 $229 $342 forward 7 unknown #
coedge $-1 $223 $343 $143 $232 reversed $139 $-1 #
edge $-1 $344 -79.968260750144964 $236 79.968260750144964 $231 $345 forward 7 unknown #
coedge $-1 $226 $144 $343 $346 forward $235 $-1 #
coedge $-1 $144 $226 $339 $347 reversed $235 $-1 #
loop $-1 $-1 $233 $323 #
vertex $-1 $145 $348 #
vertex $-1 $145 $349 #
straight-curve $-1 79.968260750144964 0 7.6004402439445515 0 1 0 I I #
face $-1 $350 $351 $34 $-1 $352 reversed single #
loop $-1 $-1 $353 $146 #
plane-surface $-1 -89.756357603652305 0 -6.1004402439445515 1 0 0 0 0 -1 forward_v I I I I #
coedge $-1 $354 $149 $355 $356 reversed $93 $-1 #
coedge $-1 $149 $354 $248 $357 reversed $93 $-1 #
edge $-1 $250 4.6004402439445515 $358 7.6004402439445515 $149 $359 forward 7 unknown #
coedge $-1 $151 $150 $360 $361 reversed $59 $-1 #
coedge $-1 $362 $363 $150 $247 forward $364 $-1 #
edge $-1 $365 -7.6004402439445515 $251 -4.6004402439445515 $246 $366 forward 7 unknown #
coedge $-1 $367 $152 $243 $357 forward $147 $-1 #
coedge $-1 $152 $367 $362 $368 forward $147 $-1 #
vertex $-1 $244 $369 #
vertex $-1 $368 $370 #
straight-curve $-1 -79.968260750144964 0 -4.6004402439445515 0 -1 0 I I #
face $-1 $371 $372 $35 $-1 $373 reversed single #
loop $-1 $-1 $374 $154 #
plane-surface $-1 89.756357603652305 0 -6.1004402439445515 -1 0 0 0 0 1 forward_v I I I I #
coedge $-1 $264 $263 $375 $376 forward $155 $-1 #
coedge $-1 $377 $157 $264 $378 reversed $97 $-1 #
coedge $-1 $157 $377 $379 $380 reversed $97 $-1 #
edge $-1 $381 -7.6004402439445515 $266 -4.6004402439445515 $157 $382 forward 7 unknown #
coedge $-1 $159 $158 $383 $384 reversed $62 $-1 #
coedge $-1 $385 $386 $159 $262 forward $387 $-1 #
edge $-1 $265 4.6004402439445515 $388 7.6004402439445515 $261 $389 forward 7 unknown #
coedge $-1 $256 $160 $386 $390 forward $155 $-1 #
coedge $-1 $160 $256 $257 $378 forward $155 $-1 #
vertex $-1 $262 $391 #
vertex $-1 $378 $392 #
straight-curve $-1 79.968260750144964 0 -4.6004402439445515 0 1 0 I I #
face $-1 $-1 $393 $36 $-1 $394 reversed single #
loop $-1 $-1 $168 $162 #
plane-surface $-1 0 0 7.6004402439445515 0 0 1 1 0 0 forward_v I I I I #
coedge $-1 $395 $396 $397 $398 reversed $163 $-1 #
coedge $-1 $399 $165 $167 $278 forward $101 $-1 #
coedge $-1 $165 $399 $395 $400 forward $101 $-1 #
coedge $-1 $397 $168 $165 $275 forward $269 $-1 #
edge $-1 $281 -3.2315691640806889 $401 35.077843340988387 $274 $402 forward 7 unknown #
coedge $-1 $403 $404 $166 $277 forward $393 $-1 #
edge $-1 $405 -59.33332373352129 $280 -55.584718509341066 $276 $406 forward 7 unknown #
edge $-1 $281 -5.8317943930719096 $405 5.5780297237876759e-014 $167 $407 forward 7 unknown #
coedge $-1 $168 $397 $403 $408 forward $269 $-1 #
vertex $-1 $277 $409 #
vertex $-1 $169 $410 #
straight-curve $-1 -12.69156792437316 -67.469109247080297 7.6004402439445542 0 1 0 I I #
coedge $-1 $283 $283 $-1 $411 reversed $172 $-1 #
edge $-1 $412 0 $412 6.2831853071796004 $173 $413 forward 7 unknown #
vertex $-1 $176 $414 #
ellipse-curve $-1 -43.339097928428423 -29.899296049047681 5.7261376318544386 0 -0.64278761758704617 0.76604443648966558 1 0 0 1 I I #
coedge $-1 $287 $287 $-1 $415 reversed $179 $-1 #
edge $-1 $416 0 $416 6.2831853071796004 $180 $417 forward 7 unknown #
vertex $-1 $183 $418 #
ellipse-curve $-1 -31.846274176907698 -29.899296049047681 5.7261376318544386 0 -0.64278761758704617 0.76604443648966558 1 0 0 1 I I #
coedge $-1 $291 $291 $-1 $419 reversed $186 $-1 #
edge $-1 $420 0 $420 6.2831853071796004 $187 $421 forward 7 unknown #
vertex $-1 $190 $422 #
ellipse-curve $-1 -20.353450425386974 -29.899296049047681 5.7261376318544386 0 -0.64278761758704617 0.76604443648966558 1 0 0 1 I I #
face $-1 $-1 $307 $40 $-1 $423 forward single #
loop $-1 $-1 $424 $191 #
plane-surface $-1 0 32.133002873829881 0 0 -1 0 0 0 -1 forward_v I I I I #
coedge $-1 $425 $426 $427 $428 reversed $192 $-1 #
coedge $-1 $429 $194 $196 $305 forward $120 $-1 #
coedge $-1 $194 $429 $425 $430 forward $120 $-1 #
coedge $-1 $427 $197 $194 $302 forward $307 $-1 #
edge $-1 $309 -35.077843340988387 $431 3.2315691640806889 $301 $432 forward 7 unknown #
coedge $-1 $433 $434 $195 $304 forward $296 $-1 #
edge $-1 $435 -79.988020096708084 $308 -76.239414872527888 $303 $436 forward 7 unknown #
edge $-1 $309 58.434211354587845 $435 64.26600574765979 $196 $437 forward 7 unknown #
coedge $-1 $197 $427 $433 $438 forward $307 $-1 #
loop $-1 $-1 $427 $295 #
vertex $-1 $304 $439 #
vertex $-1 $198 $440 #
straight-curve $-1 -51.000980429442237 42.85380116787649 7.6004402439445471 0 -1 0 I I #
coedge $-1 $311 $311 $-1 $441 reversed $201 $-1 #
edge $-1 $442 0 $442 6.2831853071796004 $202 $443 forward 7 unknown #
vertex $-1 $205 $444 #
ellipse-curve $-1 -43.339097928428423 29.899296049047692 5.7261376318544475 0 0.64278761758704617 0.76604443648966558 1 0 0 1 I I #
coedge $-1 $315 $315 $-1 $445 reversed $208 $-1 #
edge $-1 $446 0 $446 6.2831853071796004 $209 $447 forward 7 unknown #
vertex $-1 $212 $448 #
ellipse-curve $-1 -31.846274176907698 29.899296049047692 5.7261376318544475 0 0.64278761758704617 0.76604443648966558 1 0 0 1 I I #
coedge $-1 $319 $319 $-1 $449 reversed $215 $-1 #
edge $-1 $450 0 $450 6.2831853071796004 $216 $451 forward 7 unknown #
vertex $-1 $219 $452 #
ellipse-curve $-1 -20.353450425386974 29.899296049047692 5.7261376318544475 0 0.64278761758704617 0.76604443648966558 1 0 0 1 I I #
face $-1 $-1 $235 $33 $-1 $453 reversed single #
loop $-1 $-1 $339 $220 #
plane-surface $-1 0 32.133002873829881 0 0 -1 0 0 0 -1 forward_v I I I I #
coedge $-1 $454 $337 $340 $455 forward $221 $-1 #
coedge $-1 $343 $223 $224 $331 reversed $139 $-1 #
coedge $-1 $337 $454 $223 $329 reversed $221 $-1 #
edge $-1 $344 -7.6004402439445515 $456 7.6004402439445515 $328 $457 forward 7 unknown #
coedge $-1 $225 $224 $454 $458 forward $89 $-1 #
edge $-1 $335 -79.968260750144964 $456 79.968260750144964 $327 $459 forward 7 unknown #
coedge $-1 $340 $339 $225 $333 reversed $324 $-1 #
edge $-1 $460 -79.968260750144964 $334 79.968260750144964 $332 $461 forward 7 unknown #
vertex $-1 $227 $462 #
vertex $-1 $346 $463 #
straight-curve $-1 79.968260750144964 0 -7.6004402439445515 0 -1 0 I I #
coedge $-1 $326 $328 $228 $338 reversed $221 $-1 #
edge $-1 $341 -32.133002873829881 $344 32.133002873829881 $337 $464 forward 7 unknown #
coedge $-1 $332 $229 $234 $347 forward $324 $-1 #
coedge $-1 $229 $332 $326 $455 reversed $324 $-1 #
vertex $-1 $230 $465 #
straight-curve $-1 0 32.133002873829881 7.6004402439445515 -1 0 0 I I #
coedge $-1 $231 $327 $233 $346 reversed $139 $-1 #
vertex $-1 $338 $466 #
straight-curve $-1 0 -32.133002873829881 7.6004402439445515 1 0 0 I I #
edge $-1 $236 -7.6004402439445515 $335 7.6004402439445515 $233 $467 forward 7 unknown #
edge $-1 $237 -7.6004402439445515 $334 7.6004402439445515 $234 $468 forward 7 unknown #
point $-1 79.968260750144964 -32.133002873829881 7.6004402439445515 #
point $-1 79.968260750144964 32.133002873829881 7.6004402439445515 #
face $-1 $-1 $364 $34 $-1 $469 reversed single #
loop $-1 $-1 $360 $239 #
plane-surface $-1 0 0 -7.6004402439445515 0 0 1 1 0 0 forward_v I I I I #
coedge $-1 $470 $471 $354 $472 forward $240 $-1 #
coedge $-1 $243 $242 $353 $472 reversed $93 $-1 #
coedge $-1 $360 $473 $242 $356 forward $351 $-1 #
edge $-1 $474 -89.756357603652305 $358 -79.968260750144964 $242 $475 forward 7 unknown #
edge $-1 $250 -4.8940484267536704 $476 4.8940484267536704 $243 $477 forward 7 unknown #
vertex $-1 $244 $478 #
straight-curve $-1 -79.968260750144964 32.133002873829881 0 0 0 -1 I I #
coedge $-1 $479 $355 $245 $361 forward $351 $-1 #
edge $-1 $358 -32.133002873829881 $365 32.133002873829881 $360 $480 forward 7 unknown #
coedge $-1 $481 $246 $249 $368 reversed $364 $-1 #
coedge $-1 $246 $481 $479 $482 reversed $364 $-1 #
loop $-1 $-1 $246 $350 #
vertex $-1 $482 $483 #
straight-curve $-1 -79.968260750144964 -32.133002873829881 0 0 0 1 I I #
coedge $-1 $249 $248 $471 $484 forward $147 $-1 #
edge $-1 $485 -4.8940484267536704 $251 4.8940484267536704 $362 $486 forward 7 unknown #
point $-1 -79.968260750144964 32.133002873829881 -4.6004402439445515 #
point $-1 -79.968260750144964 -32.133002873829881 -4.6004402439445515 #
face $-1 $-1 $387 $35 $-1 $487 reversed single #
loop $-1 $-1 $383 $253 #
plane-surface $-1 0 0 -7.6004402439445515 0 0 1 1 0 0 forward_v I I I I #
coedge $-1 $488 $375 $489 $490 forward $254 $-1 #
coedge $-1 $374 $491 $256 $376 reversed $254 $-1 #
edge $-1 $492 -32.133002873829881 $493 32.133002873829881 $375 $494 forward 7 unknown #
coedge $-1 $258 $257 $491 $495 forward $97 $-1 #
edge $-1 $493 -4.8940484267536704 $266 4.8940484267536704 $257 $496 forward 7 unknown #
coedge $-1 $497 $383 $258 $380 forward $372 $-1 #
edge $-1 $381 -4.8940484267536704 $498 4.8940484267536704 $258 $499 forward 7 unknown #
vertex $-1 $380 $500 #
straight-curve $-1 79.968260750144964 32.133002873829881 0 0 0 1 I I #
coedge $-1 $379 $501 $260 $384 forward $372 $-1 #
edge $-1 $388 -32.133002873829881 $381 32.133002873829881 $383 $502 forward 7 unknown #
coedge $-1 $489 $261 $501 $503 reversed $387 $-1 #
coedge $-1 $261 $489 $263 $390 reversed $387 $-1 #
loop $-1 $-1 $261 $371 #
vertex $-1 $262 $504 #
straight-curve $-1 79.968260750144964 -32.133002873829881 0 0 0 -1 I I #
edge $-1 $265 -4.8940484267536704 $492 4.8940484267536704 $386 $505 forward 7 unknown #
point $-1 79.968260750144964 -32.133002873829881 -4.6004402439445515 #
point $-1 79.968260750144964 32.133002873829881 -4.6004402439445515 #
loop $-1 $-1 $276 $268 #
plane-surface $-1 0 -32.133002873829881 0 0 1 0 0 0 1 forward_v I I I I #
coedge $-1 $396 $271 $273 $400 reversed $163 $-1 #
coedge $-1 $271 $395 $506 $507 reversed $163 $-1 #
coedge $-1 $279 $274 $271 $398 forward $269 $-1 #
edge $-1 $401 -39.803520022814823 $508 -35.336106373250416 $397 $509 forward 7 unknown #
coedge $-1 $273 $272 $404 $510 reversed $101 $-1 #
edge $-1 $511 -5.5780297237876759e-014 $401 5.8317943930719096 $395 $512 forward 7 unknown #
vertex $-1 $275 $513 #
straight-curve $-1 -15.923137088453849 -27.665589224265478 7.6004402439445515 -1 0 0 I I #
coedge $-1 $506 $276 $279 $408 reversed $393 $-1 #
coedge $-1 $276 $506 $399 $510 forward $393 $-1 #
vertex $-1 $277 $514 #
straight-curve $-1 -12.69156792437316 -32.133002873829881 63.18515875328562 0 0 1 I I #
straight-curve $-1 -12.69156792437316 -32.133002873829838 3.8518350197643656 0 -0.76604443648966558 -0.64278761758704617 I I #
edge $-1 $508 -51.000980429442237 $280 -12.69156792437316 $403 $515 forward 7 unknown #
point $-1 -12.69156792437316 -32.133002873829881 7.6004402439445515 #
point $-1 -12.69156792437316 -27.665589224265474 7.6004402439445515 #
edge $-1 $516 1 $516 0 $283 $-1 forward 7 unknown #
vertex $-1 $284 $517 #
ellipse-curve $-1 -43.339097928428423 -28.878686552291775 4.509822622935487 0 -0.64278761758704617 0.76604443648966558 1 0 0 1 I I #
point $-1 -42.339097928428423 -29.899296049047695 5.7261376318544546 #
edge $-1 $518 1 $518 0 $287 $-1 forward 7 unknown #
vertex $-1 $288 $519 #
ellipse-curve $-1 -31.846274176907698 -28.878686552291775 4.509822622935487 0 -0.64278761758704617 0.76604443648966558 1 0 0 1 I I #
point $-1 -30.846274176907698 -29.899296049047695 5.7261376318544546 #
edge $-1 $520 1 $520 0 $291 $-1 forward 7 unknown #
vertex $-1 $292 $521 #
ellipse-curve $-1 -20.353450425386974 -28.878686552291775 4.509822622935487 0 -0.64278761758704617 0.76604443648966558 1 0 0 1 I I #
point $-1 -19.353450425386974 -29.899296049047695 5.7261376318544546 #
plane-surface $-1 0 0 7.6004402439445515 0 0 1 1 0 0 forward_v I I I I #
coedge $-1 $434 $433 $426 $522 forward $296 $-1 #
coedge $-1 $426 $298 $300 $430 reversed $192 $-1 #
coedge $-1 $298 $425 $424 $522 reversed $192 $-1 #
coedge $-1 $306 $301 $298 $428 forward $307 $-1 #
edge $-1 $431 -15.188211943611002 $523 -10.72079829404661 $427 $524 forward 7 unknown #
coedge $-1 $300 $299 $434 $525 reversed $120 $-1 #
edge $-1 $526 -64.26600574765979 $431 -58.434211354587845 $425 $527 forward 7 unknown #
vertex $-1 $302 $528 #
straight-curve $-1 -15.923137088453849 27.665589224265482 7.6004402439445542 1 0 0 I I #
coedge $-1 $424 $303 $306 $438 reversed $296 $-1 #
coedge $-1 $303 $424 $429 $525 forward $296 $-1 #
vertex $-1 $304 $529 #
straight-curve $-1 -51.000980429442237 32.133002873829881 83.839855116472435 0 0 1 I I #
straight-curve $-1 -51.000980429442237 -17.097613284577776 45.161227746137996 0 0.76604443648966558 -0.64278761758704617 I I #
edge $-1 $523 12.69156792437316 $308 51.000980429442237 $433 $530 forward 7 unknown #
point $-1 -51.000980429442237 32.133002873829881 7.6004402439445515 #
point $-1 -51.000980429442237 27.665589224265489 7.6004402439445542 #
edge $-1 $531 1 $531 0 $311 $-1 forward 7 unknown #
vertex $-1 $312 $532 #
ellipse-curve $-1 -43.339097928428423 28.878686552291775 4.5098226229354834 0 0.64278761758704617 0.76604443648966558 1 0 0 1 I I #
point $-1 -42.339097928428423 29.899296049047695 5.726137631854451 #
edge $-1 $533 1 $533 0 $315 $-1 forward 7 unknown #
vertex $-1 $316 $534 #
ellipse-curve $-1 -31.846274176907698 28.878686552291775 4.5098226229354834 0 0.64278761758704617 0.76604443648966558 1 0 0 1 I I #
point $-1 -30.846274176907698 29.899296049047695 5.726137631854451 #
edge $-1 $535 1 $535 0 $319 $-1 forward 7 unknown #
vertex $-1 $320 $536 #
ellipse-curve $-1 -20.353450425386974 28.878686552291775 4.5098226229354834 0 0.64278761758704617 0.76604443648966558 1 0 0 1 I I #
point $-1 -19.353450425386974 29.899296049047695 5.726137631854451 #
plane-surface $-1 79.968260750144964 0 0 -1 0 0 0 0 1 forward_v I I I I #
coedge $-1 $328 $326 $330 $458 reversed $221 $-1 #
edge $-1 $341 -7.6004402439445515 $460 7.6004402439445515 $340 $537 forward 7 unknown #
vertex $-1 $458 $538 #
straight-curve $-1 -79.968260750144964 -32.133002873829881 0 0 0 -1 I I #
edge $-1 $456 -32.133002873829881 $460 32.133002873829881 $454 $539 forward 7 unknown #
straight-curve $-1 0 -32.133002873829881 -7.6004402439445515 -1 0 0 I I #
vertex $-1 $333 $540 #
straight-curve $-1 0 32.133002873829881 -7.6004402439445515 1 0 0 I I #
point $-1 79.968260750144964 32.133002873829881 -7.6004402439445515 #
point $-1 79.968260750144964 -32.133002873829881 -7.6004402439445515 #
straight-curve $-1 -79.968260750144964 0 7.6004402439445515 0 -1 0 I I #
point $-1 -79.968260750144964 32.133002873829881 7.6004402439445515 #
point $-1 -79.968260750144964 -32.133002873829881 7.6004402439445515 #
straight-curve $-1 79.968260750144964 -32.133002873829881 0 0 0 -1 I I #
straight-curve $-1 79.968260750144964 32.133002873829881 0 0 0 -1 I I #
plane-surface $-1 0 -32.133002873829881 0 0 1 0 0 0 1 forward_v I I I I #
coedge $-1 $541 $353 $473 $542 reversed $240 $-1 #
coedge $-1 $353 $541 $367 $484 reversed $240 $-1 #
edge $-1 $476 -1.5 $474 1.5 $354 $543 forward 7 unknown #
coedge $-1 $355 $479 $470 $542 forward $351 $-1 #
vertex $-1 $356 $544 #
straight-curve $-1 0 32.133002873829881 -7.6004402439445515 1 0 0 I I #
vertex $-1 $357 $545 #
straight-curve $-1 -84.862309176898634 32.133002873829881 -4.6004402439445515 -1 0 0 I I #
point $-1 -79.968260750144964 32.133002873829881 -7.6004402439445515 #
coedge $-1 $473 $360 $363 $482 forward $351 $-1 #
straight-curve $-1 -79.968260750144964 0 -7.6004402439445515 0 -1 0 I I #
coedge $-1 $363 $362 $541 $546 forward $364 $-1 #
edge $-1 $365 -4.8940484267536704 $547 4.8940484267536704 $363 $548 forward 7 unknown #
point $-1 -79.968260750144964 -32.133002873829881 -7.6004402439445515 #
edge $-1 $476 -32.133002873829881 $485 32.133002873829881 $471 $549 forward 7 unknown #
vertex $-1 $484 $550 #
straight-curve $-1 -84.862309176898634 -32.133002873829881 -4.6004402439445515 1 0 0 I I #
plane-surface $-1 0 -32.133002873829881 0 0 1 0 0 0 1 forward_v I I I I #
coedge $-1 $491 $374 $497 $551 reversed $254 $-1 #
coedge $-1 $386 $385 $374 $490 reversed $387 $-1 #
edge $-1 $492 -1.5 $552 1.5 $374 $553 forward 7 unknown #
coedge $-1 $375 $488 $377 $495 reversed $254 $-1 #
vertex $-1 $376 $554 #
vertex $-1 $376 $555 #
straight-curve $-1 89.756357603652305 0 -4.6004402439445515 0 1 0 I I #
edge $-1 $493 -1.5 $498 1.5 $491 $556 forward 7 unknown #
straight-curve $-1 84.862309176898634 32.133002873829881 -4.6004402439445515 -1 0 0 I I #
coedge $-1 $501 $379 $488 $551 forward $372 $-1 #
vertex $-1 $551 $557 #
straight-curve $-1 84.862309176898634 32.133002873829881 -7.6004402439445515 1 0 0 I I #
point $-1 79.968260750144964 32.133002873829881 -7.6004402439445515 #
coedge $-1 $383 $497 $385 $503 forward $372 $-1 #
straight-curve $-1 79.968260750144964 0 -7.6004402439445515 0 1 0 I I #
edge $-1 $552 -4.8940484267536704 $388 4.8940484267536704 $385 $558 forward 7 unknown #
point $-1 79.968260750144964 -32.133002873829881 -7.6004402439445515 #
straight-curve $-1 84.862309176898634 -32.133002873829881 -4.6004402439445515 1 0 0 I I #
coedge $-1 $404 $403 $396 $507 forward $393 $-1 #
edge $-1 $508 55.584718509341066 $511 59.33332373352129 $506 $559 forward 7 unknown #
vertex $-1 $408 $560 #
straight-curve $-1 -51.000980429442237 -67.469109247080297 7.6004402439445542 0 -1 0 I I #
edge $-1 $511 -35.077843340988387 $405 3.2315691640806889 $404 $561 forward 7 unknown #
vertex $-1 $510 $562 #
straight-curve $-1 -51.000980429442237 -32.133002873829838 3.8518350197643656 0 0.76604443648966558 0.64278761758704617 I I #
point $-1 -51.000980429442237 -27.665589224265474 7.6004402439445515 #
point $-1 -12.69156792437316 -32.133002873829881 3.8518350197643296 #
straight-curve $-1 0 -32.133002873829881 7.6004402439445515 1 0 0 I I #
vertex $-1 $411 $563 #
point $-1 -42.339097928428423 -28.878686552291775 4.509822622935487 #
vertex $-1 $415 $564 #
point $-1 -30.846274176907698 -28.878686552291775 4.509822622935487 #
vertex $-1 $419 $565 #
point $-1 -19.353450425386974 -28.878686552291775 4.509822622935487 #
edge $-1 $523 76.239414872527888 $526 79.988020096708084 $424 $566 forward 7 unknown #
vertex $-1 $438 $567 #
straight-curve $-1 -12.69156792437316 42.85380116787649 7.6004402439445471 0 1 0 I I #
edge $-1 $526 -3.2315691640806889 $435 35.077843340988387 $434 $568 forward 7 unknown #
vertex $-1 $525 $569 #
straight-curve $-1 -12.69156792437316 -17.097613284577776 45.161227746137996 0 -0.76604443648966558 0.64278761758704617 I I #
point $-1 -12.69156792437316 27.665589224265489 7.6004402439445542 #
point $-1 -51.000980429442237 32.133002873829881 3.8518350197643443 #
straight-curve $-1 0 32.133002873829881 7.6004402439445515 -1 0 0 I I #
vertex $-1 $441 $570 #
point $-1 -42.339097928428423 28.878686552291775 4.5098226229354834 #
vertex $-1 $445 $571 #
point $-1 -30.846274176907698 28.878686552291775 4.5098226229354834 #
vertex $-1 $449 $572 #
point $-1 -19.353450425386974 28.878686552291775 4.5098226229354834 #
straight-curve $-1 -79.968260750144964 32.133002873829881 0 0 0 -1 I I #
point $-1 -79.968260750144964 -32.133002873829881 -7.6004402439445515 #
straight-curve $-1 -79.968260750144964 0 -7.6004402439445515 0 1 0 I I #
point $-1 -79.968260750144964 32.133002873829881 -7.6004402439445515 #
coedge $-1 $471 $470 $481 $546 reversed $240 $-1 #
edge $-1 $547 -32.133002873829881 $474 32.133002873829881 $470 $573 forward 7 unknown #
straight-curve $-1 -89.756357603652305 32.133002873829881 -6.1004402439445515 0 0 -1 I I #
point $-1 -89.756357603652305 32.133002873829881 -7.6004402439445515 #
point $-1 -89.756357603652305 32.133002873829881 -4.6004402439445515 #
edge $-1 $485 -1.5 $547 1.5 $541 $574 forward 7 unknown #
vertex $-1 $542 $575 #
straight-curve $-1 -84.862309176898634 -32.133002873829881 -7.6004402439445515 -1 0 0 I I #
straight-curve $-1 -89.756357603652305 0 -4.6004402439445515 0 -1 0 I I #
point $-1 -89.756357603652305 -32.133002873829881 -4.6004402439445515 #
edge $-1 $498 -32.133002873829881 $552 32.133002873829881 $488 $576 forward 7 unknown #
vertex $-1 $490 $577 #
straight-curve $-1 89.756357603652305 -32.133002873829881 -6.1004402439445515 0 0 -1 I I #
point $-1 89.756357603652305 -32.133002873829881 -4.6004402439445515 #
point $-1 89.756357603652305 32.133002873829881 -4.6004402439445515 #
straight-curve $-1 89.756357603652305 32.133002873829881 -6.1004402439445515 0 0 -1 I I #
point $-1 89.756357603652305 32.133002873829881 -7.6004402439445515 #
straight-curve $-1 84.862309176898634 -32.133002873829881 -7.6004402439445515 -1 0 0 I I #
straight-curve $-1 -51.000980429442237 -32.133002873829881 63.18515875328562 0 0 -1 I I #
point $-1 -51.000980429442237 -32.133002873829881 7.6004402439445515 #
straight-curve $-1 -15.923137088453849 -32.133002873829881 3.8518350197643287 1 0 0 I I #
point $-1 -51.000980429442237 -32.133002873829881 3.8518350197643296 #
point $-1 -43.339097928428423 -28.235898934704728 3.7437781864458217 #
point $-1 -31.846274176907698 -28.235898934704728 3.7437781864458217 #
point $-1 -20.353450425386974 -28.235898934704728 3.7437781864458217 #
straight-curve $-1 -12.69156792437316 32.133002873829881 83.839855116472435 0 0 -1 I I #
point $-1 -12.69156792437316 32.133002873829881 7.6004402439445515 #
straight-curve $-1 -15.923137088453849 32.133002873829881 3.8518350197643443 -1 0 0 I I #
point $-1 -12.69156792437316 32.133002873829881 3.8518350197643443 #
point $-1 -43.339097928428423 28.235898934704728 3.7437781864458182 #
point $-1 -31.846274176907698 28.235898934704728 3.7437781864458182 #
point $-1 -20.353450425386974 28.235898934704728 3.7437781864458182 #
straight-curve $-1 -89.756357603652305 0 -7.6004402439445515 0 1 0 I I #
straight-curve $-1 -89.756357603652305 -32.133002873829881 -6.1004402439445515 0 0 -1 I I #
point $-1 -89.756357603652305 -32.133002873829881 -7.6004402439445515 #
straight-curve $-1 89.756357603652305 0 -7.6004402439445515 0 -1 0 I I #
point $-1 89.756357603652305 -32.133002873829881 -7.6004402439445515 #
End-of-ACIS-data 