500 0 8 0           
7 Unknown 11 ACIS 5.0 NT 24 Fri Mar 26 01:18:16 1999 
-1 9.9999999999999995e-007 1e-010 
body $-1 $8 $-1 $9 #
body $-1 $10 $-1 $11 #
body $-1 $12 $-1 $13 #
body $-1 $14 $-1 $15 #
body $-1 $16 $-1 $17 #
body $-1 $18 $-1 $19 #
body $-1 $20 $-1 $21 #
body $-1 $22 $-1 $23 #
lump $-1 $-1 $24 $0 #
transform $-1 1 0 0 0 1 0 0 0 1 67.029633472701192 42.47392140742339 16.072737464258136 1 rotate no_reflect no_shear #
lump $-1 $-1 $25 $1 #
transform $-1 1 0 0 0 1 0 0 0 1 67.029633472701192 42.47392140742339 16.072737464258136 1 rotate no_reflect no_shear #
lump $-1 $-1 $26 $2 #
transform $-1 1 0 0 0 1 0 0 0 1 67.029633472701192 42.47392140742339 16.072737464258136 1 rotate no_reflect no_shear #
lump $-1 $-1 $27 $3 #
transform $-1 1 0 0 0 1 0 0 0 1 67.029633472701192 42.47392140742339 16.072737464258136 1 rotate no_reflect no_shear #
lump $-1 $-1 $28 $4 #
transform $-1 1 0 0 0 1 0 0 0 1 67.029633472701192 42.47392140742339 16.072737464258136 1 rotate no_reflect no_shear #
lump $-1 $-1 $29 $5 #
transform $-1 1 0 0 0 1 0 0 0 1 67.029633472701192 42.47392140742339 16.072737464258136 1 rotate no_reflect no_shear #
lump $-1 $-1 $30 $6 #
transform $-1 1 0 0 0 1 0 0 0 1 67.029633472701192 42.47392140742339 16.072737464258136 1 rotate no_reflect no_shear #
lump $-1 $-1 $31 $7 #
transform $-1 1 0 0 0 1 0 0 0 1 67.029633472701192 42.47392140742339 16.072737464258136 1 rotate no_reflect no_shear #
shell $-1 $-1 $-1 $32 $-1 $8 #
shell $-1 $-1 $-1 $33 $-1 $10 #
shell $-1 $-1 $-1 $34 $-1 $12 #
shell $-1 $-1 $-1 $35 $-1 $14 #
shell $-1 $-1 $-1 $36 $-1 $16 #
shell $-1 $-1 $-1 $37 $-1 $18 #
shell $-1 $-1 $-1 $38 $-1 $20 #
shell $-1 $-1 $-1 $39 $-1 $22 #
face $-1 $40 $41 $24 $-1 $42 forward single #
face $-1 $43 $44 $25 $-1 $45 forward single #
face $-1 $46 $47 $26 $-1 $48 forward single #
face $-1 $49 $50 $27 $-1 $51 reversed single #
face $-1 $52 $53 $28 $-1 $54 forward single #
face $-1 $55 $56 $29 $-1 $57 forward single #
face $-1 $58 $59 $30 $-1 $60 reversed single #
face $-1 $61 $62 $31 $-1 $63 forward single #
face $-1 $64 $65 $24 $-1 $66 reversed single #
loop $-1 $-1 $67 $32 #
plane-surface $-1 0 0 16.072737464258136 0 0 1 1 0 0 forward_v I I I I #
face $-1 $68 $69 $25 $-1 $70 reversed single #
loop $-1 $-1 $71 $33 #
plane-surface $-1 -67.029633472701192 0 0 1 0 0 0 0 -1 forward_v I I I I #
face $-1 $72 $73 $26 $-1 $74 reversed single #
loop $-1 $-1 $75 $34 #
plane-surface $-1 67.029633472701192 0 0 -1 0 0 0 0 1 forward_v I I I I #
face $-1 $76 $77 $27 $-1 $78 reversed single #
loop $-1 $-1 $79 $35 #
plane-surface $-1 -25.71092468259226 87.918937137945207 154.36174978132442 1 0 0 0 -0.75470958851134928 -0.65605901945558964 forward_v I I I I #
face $-1 $80 $81 $28 $-1 $82 forward single #
loop $-1 $83 $84 $36 #
cone-surface $-1 -22.859100930839425 36.110340825885231 8.8583427546356557 0 -0.75470958851134928 -0.65605901945558964 0.5 0 0 1 I I 0 1 0.5 forward I I I I #
face $-1 $85 $86 $29 $-1 $87 forward single #
loop $-1 $88 $89 $37 #
cone-surface $-1 -18.581365303210177 36.110340825885231 8.8583427546356557 0 -0.75470958851134928 -0.65605901945558964 0.5 0 0 1 I I 0 1 0.5 forward I I I I #
face $-1 $90 $91 $30 $-1 $92 reversed single #
loop $-1 $-1 $93 $38 #
plane-surface $-1 -20.281613414820157 -157.3851424394561 70.820600119596307 -1 0 0 0 -0.85716730853699208 0.51503806187062418 forward_v I I I I #
face $-1 $94 $95 $31 $-1 $96 forward single #
loop $-1 $97 $98 $39 #
cone-surface $-1 -31.836696941648874 -36.445558701526814 7.8826359569817104 0 0.85716730853699208 -0.51503806187062418 1.5 0 0 1 I I 0 1 1.5 forward I I I I #
face $-1 $99 $100 $24 $-1 $101 reversed single #
loop $-1 $-1 $102 $40 #
plane-surface $-1 0 0 -16.072737464258136 0 0 1 1 0 0 forward_v I I I I #
coedge $-1 $103 $104 $105 $106 forward $41 $-1 #
face $-1 $107 $108 $25 $-1 $109 forward single #
loop $-1 $-1 $110 $43 #
plane-surface $-1 0 42.47392140742339 0 0 -1 0 0 0 -1 forward_v I I I I #
coedge $-1 $111 $112 $113 $114 forward $44 $-1 #
face $-1 $115 $116 $26 $-1 $117 forward single #
loop $-1 $-1 $118 $46 #
plane-surface $-1 0 42.47392140742339 0 0 -1 0 0 0 -1 forward_v I I I I #
coedge $-1 $119 $120 $121 $122 forward $47 $-1 #
face $-1 $123 $124 $27 $-1 $125 reversed single #
loop $-1 $-1 $126 $49 #
plane-surface $-1 -20.720233117024804 -13.256877054552561 66.41095856018859 0 0.75470958851134928 0.65605901945558964 1 0 0 forward_v I I I I #
coedge $-1 $127 $128 $129 $130 reversed $50 $-1 #
face $-1 $-1 $131 $28 $-1 $132 forward single #
loop $-1 $133 $134 $52 #
cone-surface $-1 -22.859100930839425 35.544308634501718 8.3662984900439632 0 -0.75470958851134928 -0.65605901945558964 0.25 0 0 1 I I -0.70710678118654746 0.70710678118654746 0.25 forward I I I I #
loop $-1 $-1 $135 $36 #
coedge $-1 $84 $84 $136 $137 reversed $53 $-1 #
face $-1 $-1 $138 $29 $-1 $139 forward single #
loop $-1 $140 $141 $55 #
cone-surface $-1 -18.581365303210177 35.544308634501718 8.3662984900439632 0 -0.75470958851134928 -0.65605901945558964 0.25 0 0 1 I I -0.70710678118654746 0.70710678118654746 0.25 forward I I I I #
loop $-1 $-1 $142 $37 #
coedge $-1 $89 $89 $143 $144 reversed $56 $-1 #
face $-1 $145 $146 $30 $-1 $147 reversed single #
loop $-1 $-1 $148 $58 #
plane-surface $-1 -31.836696941648874 -42.47392140742339 1.7749750962396291 0 -0.85716730853699208 0.51503806187062418 1 0 0 forward_v I I I I #
coedge $-1 $149 $150 $151 $152 reversed $59 $-1 #
face $-1 $-1 $153 $31 $-1 $154 forward single #
loop $-1 $155 $156 $61 #
cone-surface $-1 -31.836696941648874 -34.069801539792763 6.4551370873115594 0 0.85716730853699208 -0.51503806187062418 0.75 0 0 1 I I -0.70710678118654757 0.70710678118654757 0.75 forward I I I I #
loop $-1 $-1 $157 $39 #
coedge $-1 $98 $98 $158 $159 reversed $62 $-1 #
face $-1 $160 $161 $24 $-1 $162 reversed single #
loop $-1 $-1 $163 $64 #
plane-surface $-1 0 -42.47392140742339 0 0 1 0 0 0 1 forward_v I I I I #
coedge $-1 $164 $165 $166 $167 forward $65 $-1 #
coedge $-1 $168 $67 $169 $170 forward $41 $-1 #
coedge $-1 $67 $168 $171 $172 forward $41 $-1 #
coedge $-1 $173 $174 $67 $106 reversed $175 $-1 #
edge $-1 $176 -42.47392140742339 $177 42.47392140742339 $105 $178 forward 7 unknown #
face $-1 $179 $180 $25 $-1 $181 reversed single #
loop $-1 $-1 $113 $68 #
plane-surface $-1 -76.195861642757038 0 -10.381672838023945 0 0 1 1 0 0 forward_v I I I I #
coedge $-1 $182 $183 $112 $184 forward $69 $-1 #
coedge $-1 $185 $71 $186 $187 reversed $44 $-1 #
coedge $-1 $71 $185 $110 $184 reversed $44 $-1 #
coedge $-1 $188 $189 $71 $114 reversed $108 $-1 #
edge $-1 $190 -42.47392140742339 $191 42.47392140742339 $113 $192 forward 7 unknown #
face $-1 $193 $194 $26 $-1 $195 reversed single #
loop $-1 $-1 $196 $72 #
plane-surface $-1 76.195861642757023 0 -10.381672838023945 0 0 1 1 0 0 forward_v I I I I #
coedge $-1 $197 $198 $119 $199 forward $73 $-1 #
coedge $-1 $200 $75 $118 $199 reversed $47 $-1 #
coedge $-1 $75 $200 $201 $202 reversed $47 $-1 #
coedge $-1 $203 $204 $75 $122 reversed $116 $-1 #
edge $-1 $205 -42.47392140742339 $206 42.47392140742339 $121 $207 forward 7 unknown #
face $-1 $208 $209 $27 $-1 $210 reversed single #
loop $-1 $-1 $211 $76 #
plane-surface $-1 -15.729541551457348 87.918937137945207 154.36174978132442 -1 0 0 0 0.75470958851134928 0.65605901945558964 forward_v I I I I #
coedge $-1 $212 $213 $214 $215 reversed $77 $-1 #
coedge $-1 $128 $79 $216 $217 reversed $50 $-1 #
coedge $-1 $79 $127 $212 $218 reversed $50 $-1 #
coedge $-1 $214 $219 $79 $130 forward $220 $-1 #
edge $-1 $221 1.4855471615492135 $222 13.457998736114206 $129 $223 forward 7 unknown #
loop $-1 $-1 $136 $80 #
plane-surface $-1 -20.720233117024804 -13.256877054552561 66.41095856018859 0 0.75470958851134928 0.65605901945558964 1 0 0 forward_v I I I I #
loop $-1 $-1 $224 $52 #
coedge $-1 $134 $134 $135 $225 reversed $81 $-1 #
coedge $-1 $135 $135 $134 $225 forward $83 $-1 #
coedge $-1 $136 $136 $84 $137 forward $131 $-1 #
edge $-1 $226 1.279358174202766e-015 $226 6.2831853071796013 $136 $227 forward 7 unknown #
loop $-1 $-1 $143 $85 #
plane-surface $-1 -20.720233117024804 -13.256877054552561 66.41095856018859 0 0.75470958851134928 0.65605901945558964 1 0 0 forward_v I I I I #
loop $-1 $-1 $228 $55 #
coedge $-1 $141 $141 $142 $229 reversed $86 $-1 #
coedge $-1 $142 $142 $141 $229 forward $88 $-1 #
coedge $-1 $143 $143 $89 $144 forward $138 $-1 #
edge $-1 $230 1.279358174202766e-015 $230 6.2831853071796013 $143 $231 forward 7 unknown #
face $-1 $232 $233 $30 $-1 $234 forward single #
loop $-1 $-1 $235 $90 #
plane-surface $-1 -43.391780468477592 -157.3851424394561 70.820600119596307 1 0 0 0 0.85716730853699208 -0.51503806187062418 forward_v I I I I #
coedge $-1 $236 $237 $238 $239 reversed $91 $-1 #
coedge $-1 $150 $93 $240 $241 reversed $59 $-1 #
coedge $-1 $93 $149 $236 $242 reversed $59 $-1 #
coedge $-1 $238 $243 $93 $152 forward $233 $-1 #
edge $-1 $244 36.218649812304662 $245 44.809611863435194 $151 $246 forward 7 unknown #
loop $-1 $-1 $158 $94 #
plane-surface $-1 -31.836696941648874 -42.47392140742339 1.7749750962396291 0 -0.85716730853699208 0.51503806187062418 1 0 0 forward_v I I I I #
loop $-1 $-1 $247 $61 #
coedge $-1 $156 $156 $157 $248 reversed $95 $-1 #
coedge $-1 $157 $157 $156 $248 forward $97 $-1 #
coedge $-1 $158 $158 $98 $159 forward $153 $-1 #
edge $-1 $249 -4.0953034197423279e-016 $249 6.2831853071796004 $158 $250 forward 7 unknown #
face $-1 $251 $252 $24 $-1 $253 reversed single #
loop $-1 $-1 $254 $99 #
plane-surface $-1 -67.029633472701192 0 0 1 0 0 0 0 -1 forward_v I I I I #
coedge $-1 $255 $171 $254 $256 forward $100 $-1 #
coedge $-1 $257 $102 $255 $258 forward $65 $-1 #
coedge $-1 $102 $257 $259 $260 forward $65 $-1 #
coedge $-1 $174 $173 $102 $167 reversed $175 $-1 #
edge $-1 $261 -42.47392140742339 $262 42.47392140742339 $166 $263 forward 7 unknown #
coedge $-1 $104 $103 $264 $265 forward $41 $-1 #
coedge $-1 $266 $267 $103 $170 reversed $252 $-1 #
edge $-1 $177 -67.029633472701192 $268 67.029633472701192 $169 $269 forward 7 unknown #
coedge $-1 $163 $270 $104 $172 reversed $100 $-1 #
edge $-1 $271 -67.029633472701192 $176 67.029633472701192 $171 $272 forward 7 unknown #
coedge $-1 $166 $105 $270 $273 forward $175 $-1 #
coedge $-1 $105 $166 $266 $274 reversed $175 $-1 #
loop $-1 $-1 $174 $251 #
vertex $-1 $106 $275 #
vertex $-1 $106 $276 #
straight-curve $-1 67.029633472701192 0 16.072737464258136 0 1 0 I I #
face $-1 $277 $278 $25 $-1 $279 reversed single #
loop $-1 $-1 $280 $107 #
plane-surface $-1 -85.362089812812883 0 -13.227205151141041 1 0 0 0 0 -1 forward_v I I I I #
coedge $-1 $281 $110 $282 $283 reversed $69 $-1 #
coedge $-1 $110 $281 $188 $284 reversed $69 $-1 #
edge $-1 $190 10.381672838023945 $285 16.072737464258136 $110 $286 forward 7 unknown #
coedge $-1 $112 $111 $287 $288 reversed $44 $-1 #
coedge $-1 $289 $290 $111 $187 forward $291 $-1 #
edge $-1 $292 -16.072737464258136 $191 -10.381672838023945 $186 $293 forward 7 unknown #
coedge $-1 $294 $113 $183 $284 forward $108 $-1 #
coedge $-1 $113 $294 $289 $295 forward $108 $-1 #
vertex $-1 $184 $296 #
vertex $-1 $295 $297 #
straight-curve $-1 -67.029633472701192 0 -10.381672838023945 0 -1 0 I I #
face $-1 $298 $299 $26 $-1 $300 reversed single #
loop $-1 $-1 $301 $115 #
plane-surface $-1 85.362089812812869 0 -13.227205151141041 -1 0 0 0 0 1 forward_v I I I I #
coedge $-1 $204 $203 $302 $303 forward $116 $-1 #
coedge $-1 $304 $118 $204 $305 reversed $73 $-1 #
coedge $-1 $118 $304 $306 $307 reversed $73 $-1 #
edge $-1 $308 -16.072737464258136 $206 -10.381672838023945 $118 $309 forward 7 unknown #
coedge $-1 $120 $119 $310 $311 reversed $47 $-1 #
coedge $-1 $312 $313 $120 $202 forward $314 $-1 #
edge $-1 $205 10.381672838023945 $315 16.072737464258136 $201 $316 forward 7 unknown #
coedge $-1 $196 $121 $313 $317 forward $116 $-1 #
coedge $-1 $121 $196 $197 $305 forward $116 $-1 #
vertex $-1 $202 $318 #
vertex $-1 $305 $319 #
straight-curve $-1 67.029633472701192 0 -10.381672838023945 0 1 0 I I #
face $-1 $-1 $220 $27 $-1 $320 forward single #
loop $-1 $-1 $321 $123 #
plane-surface $-1 0 42.47392140742339 0 0 -1 0 0 0 -1 forward_v I I I I #
coedge $-1 $322 $323 $324 $325 reversed $124 $-1 #
coedge $-1 $326 $126 $128 $218 forward $77 $-1 #
coedge $-1 $126 $326 $322 $327 forward $77 $-1 #
coedge $-1 $324 $129 $126 $215 forward $220 $-1 #
edge $-1 $222 -15.350808124079858 $328 -5.3694249929449462 $214 $329 forward 7 unknown #
coedge $-1 $330 $331 $127 $217 forward $209 $-1 #
edge $-1 $332 -74.880867826193438 $221 -61.10813742640407 $216 $333 forward 7 unknown #
edge $-1 $222 66.698796281655405 $332 84.947842814846823 $128 $334 forward 7 unknown #
coedge $-1 $129 $324 $330 $335 forward $220 $-1 #
loop $-1 $-1 $324 $208 #
vertex $-1 $217 $336 #
vertex $-1 $130 $337 #
straight-curve $-1 -25.71092468259226 43.959468568972603 16.07273746425814 0 -1 0 I I #
coedge $-1 $224 $224 $-1 $338 reversed $133 $-1 #
edge $-1 $339 0 $339 6.2831853071796004 $134 $340 forward 7 unknown #
vertex $-1 $137 $341 #
ellipse-curve $-1 -22.859100930839425 36.487695620140897 9.1863722643634453 0 0.75470958851134928 0.65605901945558964 0.5 0 0 1 I I #
coedge $-1 $228 $228 $-1 $342 reversed $140 $-1 #
edge $-1 $343 0 $343 6.2831853071796004 $141 $344 forward 7 unknown #
vertex $-1 $144 $345 #
ellipse-curve $-1 -18.581365303210177 36.487695620140897 9.1863722643634453 0 0.75470958851134928 0.65605901945558964 0.5 0 0 1 I I #
face $-1 $-1 $346 $30 $-1 $347 reversed single #
loop $-1 $-1 $151 $145 #
plane-surface $-1 0 0 16.072737464258136 0 0 1 1 0 0 forward_v I I I I #
coedge $-1 $348 $349 $350 $351 reversed $146 $-1 #
coedge $-1 $352 $148 $150 $242 forward $91 $-1 #
coedge $-1 $148 $352 $348 $353 forward $91 $-1 #
coedge $-1 $350 $151 $148 $239 forward $233 $-1 #
edge $-1 $245 4.3632649439957198 $354 27.473431997653154 $238 $355 forward 7 unknown #
coedge $-1 $356 $357 $149 $241 forward $346 $-1 #
edge $-1 $358 -33.635324963558524 $244 -19.337562595540017 $240 $359 forward 7 unknown #
edge $-1 $245 -16.680246931514269 $358 0 $150 $360 forward 7 unknown #
coedge $-1 $151 $350 $356 $361 forward $233 $-1 #
vertex $-1 $241 $362 #
vertex $-1 $152 $363 #
straight-curve $-1 -20.281613414820157 -78.692571219728052 16.072737464258136 0 1 0 I I #
coedge $-1 $247 $247 $-1 $364 reversed $155 $-1 #
edge $-1 $365 0 $365 6.2831853071796004 $156 $366 forward 7 unknown #
vertex $-1 $159 $367 #
ellipse-curve $-1 -31.836696941648874 -38.178440381858117 8.9238562802488897 0 -0.85716730853699208 0.51503806187062418 1.5 0 0 1 I I #
face $-1 $-1 $175 $24 $-1 $368 reversed single #
loop $-1 $-1 $266 $160 #
plane-surface $-1 0 42.47392140742339 0 0 -1 0 0 0 -1 forward_v I I I I #
coedge $-1 $264 $369 $163 $256 reversed $161 $-1 #
coedge $-1 $270 $163 $164 $258 reversed $100 $-1 #
edge $-1 $271 -16.072737464258136 $370 16.072737464258136 $254 $371 forward 7 unknown #
coedge $-1 $165 $164 $369 $372 forward $65 $-1 #
edge $-1 $262 -67.029633472701192 $370 67.029633472701192 $255 $373 forward 7 unknown #
coedge $-1 $267 $266 $165 $260 reversed $252 $-1 #
edge $-1 $374 -67.029633472701192 $261 67.029633472701192 $259 $375 forward 7 unknown #
vertex $-1 $167 $376 #
vertex $-1 $273 $377 #
straight-curve $-1 67.029633472701192 0 -16.072737464258136 0 -1 0 I I #
coedge $-1 $378 $254 $168 $265 reversed $161 $-1 #
edge $-1 $268 -42.47392140742339 $271 42.47392140742339 $264 $379 forward 7 unknown #
coedge $-1 $259 $169 $174 $274 forward $252 $-1 #
coedge $-1 $169 $259 $378 $380 reversed $252 $-1 #
vertex $-1 $170 $381 #
straight-curve $-1 0 42.47392140742339 16.072737464258136 -1 0 0 I I #
coedge $-1 $171 $255 $173 $273 reversed $100 $-1 #
vertex $-1 $265 $382 #
straight-curve $-1 0 -42.47392140742339 16.072737464258136 1 0 0 I I #
edge $-1 $176 -16.072737464258136 $262 16.072737464258136 $173 $383 forward 7 unknown #
edge $-1 $177 -16.072737464258136 $261 16.072737464258136 $174 $384 forward 7 unknown #
point $-1 67.029633472701192 -42.47392140742339 16.072737464258136 #
point $-1 67.029633472701192 42.47392140742339 16.072737464258136 #
face $-1 $-1 $291 $25 $-1 $385 reversed single #
loop $-1 $-1 $287 $179 #
plane-surface $-1 0 0 -16.072737464258136 0 0 1 1 0 0 forward_v I I I I #
coedge $-1 $386 $387 $281 $388 forward $180 $-1 #
coedge $-1 $183 $182 $280 $388 reversed $69 $-1 #
coedge $-1 $287 $389 $182 $283 forward $278 $-1 #
edge $-1 $390 -85.362089812812883 $285 -67.029633472701192 $182 $391 forward 7 unknown #
edge $-1 $190 -9.1662281700558452 $392 9.1662281700558452 $183 $393 forward 7 unknown #
vertex $-1 $184 $394 #
straight-curve $-1 -67.029633472701192 42.47392140742339 0 0 0 -1 I I #
coedge $-1 $395 $282 $185 $288 forward $278 $-1 #
edge $-1 $285 -42.47392140742339 $292 42.47392140742339 $287 $396 forward 7 unknown #
coedge $-1 $397 $186 $189 $295 reversed $291 $-1 #
coedge $-1 $186 $397 $395 $398 reversed $291 $-1 #
loop $-1 $-1 $186 $277 #
vertex $-1 $398 $399 #
straight-curve $-1 -67.029633472701192 -42.47392140742339 0 0 0 1 I I #
coedge $-1 $189 $188 $387 $400 forward $108 $-1 #
edge $-1 $401 -9.1662281700558452 $191 9.1662281700558452 $289 $402 forward 7 unknown #
point $-1 -67.029633472701192 42.47392140742339 -10.381672838023945 #
point $-1 -67.029633472701192 -42.47392140742339 -10.381672838023945 #
face $-1 $-1 $314 $26 $-1 $403 reversed single #
loop $-1 $-1 $310 $193 #
plane-surface $-1 0 0 -16.072737464258136 0 0 1 1 0 0 forward_v I I I I #
coedge $-1 $404 $302 $405 $406 forward $194 $-1 #
coedge $-1 $301 $407 $196 $303 reversed $194 $-1 #
edge $-1 $408 -42.47392140742339 $409 42.47392140742339 $302 $410 forward 7 unknown #
coedge $-1 $198 $197 $407 $411 forward $73 $-1 #
edge $-1 $409 -9.1662281700558452 $206 9.1662281700558452 $197 $412 forward 7 unknown #
coedge $-1 $413 $310 $198 $307 forward $299 $-1 #
edge $-1 $308 -9.166228170055831 $414 9.1662281700558452 $198 $415 forward 7 unknown #
vertex $-1 $307 $416 #
straight-curve $-1 67.029633472701192 42.47392140742339 0 0 0 1 I I #
coedge $-1 $306 $417 $200 $311 forward $299 $-1 #
edge $-1 $315 -42.47392140742339 $308 42.47392140742339 $310 $418 forward 7 unknown #
coedge $-1 $405 $201 $417 $419 reversed $314 $-1 #
coedge $-1 $201 $405 $203 $317 reversed $314 $-1 #
loop $-1 $-1 $201 $298 #
vertex $-1 $202 $420 #
straight-curve $-1 67.029633472701192 -42.47392140742339 0 0 0 -1 I I #
edge $-1 $205 -9.1662281700558452 $408 9.1662281700558452 $313 $421 forward 7 unknown #
point $-1 67.029633472701178 -42.47392140742339 -10.381672838023945 #
point $-1 67.029633472701178 42.47392140742339 -10.381672838023945 #
plane-surface $-1 0 0 16.072737464258136 0 0 1 1 0 0 forward_v I I I I #
coedge $-1 $331 $330 $323 $422 forward $209 $-1 #
coedge $-1 $323 $211 $213 $327 reversed $124 $-1 #
coedge $-1 $211 $322 $321 $422 reversed $124 $-1 #
coedge $-1 $219 $214 $211 $325 forward $220 $-1 #
edge $-1 $328 -13.457998736114206 $423 -1.4855471615492135 $324 $424 forward 7 unknown #
coedge $-1 $213 $212 $331 $425 reversed $77 $-1 #
edge $-1 $426 -84.947842814846823 $328 -66.698796281655405 $322 $427 forward 7 unknown #
vertex $-1 $215 $428 #
straight-curve $-1 -10.360116558512402 30.501469832858405 16.072737464258125 1 0 0 I I #
coedge $-1 $321 $216 $219 $335 reversed $209 $-1 #
coedge $-1 $216 $321 $326 $425 forward $209 $-1 #
vertex $-1 $217 $429 #
straight-curve $-1 -25.71092468259226 42.47392140742339 77.18087489066221 0 0 1 I I #
straight-curve $-1 -25.71092468259226 -13.256877054552561 66.41095856018859 0 0.65605901945558964 -0.75470958851134928 I I #
edge $-1 $423 15.729541551457348 $221 25.71092468259226 $330 $430 forward 7 unknown #
point $-1 -25.71092468259226 42.47392140742339 16.072737464258136 #
point $-1 -25.71092468259226 30.501469832858398 16.07273746425814 #
edge $-1 $431 1 $431 0 $224 $-1 forward 7 unknown #
vertex $-1 $225 $432 #
ellipse-curve $-1 -22.859100930839425 35.732986031629558 8.5303132449078607 0 0.75470958851134928 0.65605901945558964 0.5 0 0 1 I I #
point $-1 -22.359100930839425 36.487695620140904 9.1863722643634507 #
edge $-1 $433 1 $433 0 $228 $-1 forward 7 unknown #
vertex $-1 $229 $434 #
ellipse-curve $-1 -18.581365303210177 35.732986031629558 8.5303132449078607 0 0.75470958851134928 0.65605901945558964 0.5 0 0 1 I I #
point $-1 -18.081365303210177 36.487695620140904 9.1863722643634507 #
loop $-1 $-1 $240 $232 #
plane-surface $-1 0 -42.47392140742339 0 0 1 0 0 0 1 forward_v I I I I #
coedge $-1 $349 $235 $237 $353 reversed $146 $-1 #
coedge $-1 $235 $348 $435 $436 reversed $146 $-1 #
coedge $-1 $243 $238 $235 $351 forward $233 $-1 #
edge $-1 $354 -44.809611863435194 $437 -36.218649812304662 $350 $438 forward 7 unknown #
coedge $-1 $237 $236 $357 $439 reversed $91 $-1 #
edge $-1 $440 0 $354 16.680246931514269 $348 $441 forward 7 unknown #
vertex $-1 $239 $442 #
straight-curve $-1 -15.918348470824437 -33.882959356292851 16.072737464258136 -1 0 0 I I #
coedge $-1 $435 $240 $243 $361 reversed $346 $-1 #
coedge $-1 $240 $435 $352 $439 forward $346 $-1 #
vertex $-1 $241 $443 #
straight-curve $-1 -20.281613414820157 -42.47392140742339 35.410300059798153 0 0 1 I I #
straight-curve $-1 -20.281613414820157 -42.47392140742339 1.7749750962396291 0 -0.51503806187062418 -0.85716730853699208 I I #
edge $-1 $437 -43.391780468477592 $244 -20.281613414820157 $356 $444 forward 7 unknown #
point $-1 -20.281613414820157 -42.47392140742339 16.072737464258136 #
point $-1 -20.281613414820157 -33.882959356292858 16.072737464258132 #
edge $-1 $445 1 $445 0 $247 $-1 forward 7 unknown #
vertex $-1 $248 $446 #
ellipse-curve $-1 -31.836696941648874 -34.71267702119551 6.8414156337145275 0 -0.85716730853699208 0.51503806187062418 1.5 0 0 1 I I #
point $-1 -30.336696941648874 -38.178440381858124 8.9238562802488932 #
plane-surface $-1 67.029633472701192 0 0 -1 0 0 0 0 1 forward_v I I I I #
coedge $-1 $254 $378 $257 $372 reversed $161 $-1 #
vertex $-1 $372 $447 #
straight-curve $-1 -67.029633472701192 -42.47392140742339 0 0 0 -1 I I #
edge $-1 $370 -42.47392140742339 $374 42.47392140742339 $369 $448 forward 7 unknown #
straight-curve $-1 0 -42.47392140742339 -16.072737464258136 -1 0 0 I I #
vertex $-1 $260 $449 #
straight-curve $-1 0 42.47392140742339 -16.072737464258136 1 0 0 I I #
point $-1 67.029633472701192 42.47392140742339 -16.072737464258136 #
point $-1 67.029633472701192 -42.47392140742339 -16.072737464258136 #
coedge $-1 $369 $264 $267 $380 forward $161 $-1 #
straight-curve $-1 -67.029633472701192 0 16.072737464258136 0 -1 0 I I #
edge $-1 $268 -16.072737464258136 $374 16.072737464258136 $267 $450 forward 7 unknown #
point $-1 -67.029633472701192 42.47392140742339 16.072737464258136 #
point $-1 -67.029633472701192 -42.47392140742339 16.072737464258136 #
straight-curve $-1 67.029633472701192 -42.47392140742339 0 0 0 -1 I I #
straight-curve $-1 67.029633472701192 42.47392140742339 0 0 0 -1 I I #
plane-surface $-1 0 -42.47392140742339 0 0 1 0 0 0 1 forward_v I I I I #
coedge $-1 $451 $280 $389 $452 reversed $180 $-1 #
coedge $-1 $280 $451 $294 $400 reversed $180 $-1 #
edge $-1 $392 -2.8455323131170953 $390 2.8455323131170953 $281 $453 forward 7 unknown #
coedge $-1 $282 $395 $386 $452 forward $278 $-1 #
vertex $-1 $283 $454 #
straight-curve $-1 0 42.47392140742339 -16.072737464258136 1 0 0 I I #
vertex $-1 $284 $455 #
straight-curve $-1 -76.195861642757038 42.47392140742339 -10.381672838023945 -1 0 0 I I #
point $-1 -67.029633472701192 42.47392140742339 -16.072737464258136 #
coedge $-1 $389 $287 $290 $398 forward $278 $-1 #
straight-curve $-1 -67.029633472701192 0 -16.072737464258136 0 -1 0 I I #
coedge $-1 $290 $289 $451 $456 forward $291 $-1 #
edge $-1 $292 -9.1662281700558452 $457 9.1662281700558452 $290 $458 forward 7 unknown #
point $-1 -67.029633472701192 -42.47392140742339 -16.072737464258136 #
edge $-1 $392 -42.47392140742339 $401 42.47392140742339 $387 $459 forward 7 unknown #
vertex $-1 $400 $460 #
straight-curve $-1 -76.195861642757038 -42.47392140742339 -10.381672838023945 1 0 0 I I #
plane-surface $-1 0 -42.47392140742339 0 0 1 0 0 0 1 forward_v I I I I #
coedge $-1 $407 $301 $413 $461 reversed $194 $-1 #
coedge $-1 $313 $312 $301 $406 reversed $314 $-1 #
edge $-1 $408 -2.8455323131170953 $462 2.8455323131170953 $301 $463 forward 7 unknown #
coedge $-1 $302 $404 $304 $411 reversed $194 $-1 #
vertex $-1 $303 $464 #
vertex $-1 $303 $465 #
straight-curve $-1 85.362089812812869 0 -10.381672838023945 0 1 0 I I #
edge $-1 $409 -2.8455323131170953 $414 2.8455323131170953 $407 $466 forward 7 unknown #
straight-curve $-1 76.195861642757023 42.47392140742339 -10.381672838023945 -1 0 0 I I #
coedge $-1 $417 $306 $404 $461 forward $299 $-1 #
vertex $-1 $461 $467 #
straight-curve $-1 76.195861642757023 42.47392140742339 -16.072737464258136 1 0 0 I I #
point $-1 67.029633472701192 42.47392140742339 -16.072737464258136 #
coedge $-1 $310 $413 $312 $419 forward $299 $-1 #
straight-curve $-1 67.029633472701192 0 -16.072737464258136 0 1 0 I I #
edge $-1 $462 -9.1662281700558452 $315 9.166228170055831 $312 $468 forward 7 unknown #
point $-1 67.029633472701192 -42.47392140742339 -16.072737464258136 #
straight-curve $-1 76.195861642757023 -42.47392140742339 -10.381672838023945 1 0 0 I I #
edge $-1 $423 61.10813742640407 $426 74.880867826193438 $321 $469 forward 7 unknown #
vertex $-1 $335 $470 #
straight-curve $-1 -15.729541551457348 43.959468568972603 16.07273746425814 0 1 0 I I #
edge $-1 $426 5.3694249929449462 $332 15.350808124079858 $331 $471 forward 7 unknown #
vertex $-1 $425 $472 #
straight-curve $-1 -15.729541551457348 -13.256877054552561 66.41095856018859 0 -0.65605901945558964 0.75470958851134928 I I #
point $-1 -15.729541551457348 30.501469832858398 16.07273746425814 #
point $-1 -25.71092468259226 42.47392140742339 2.3000070644687725 #
straight-curve $-1 0 42.47392140742339 16.072737464258136 -1 0 0 I I #
vertex $-1 $338 $473 #
point $-1 -22.359100930839425 35.732986031629558 8.5303132449078607 #
vertex $-1 $342 $474 #
point $-1 -18.081365303210177 35.732986031629558 8.5303132449078607 #
coedge $-1 $357 $356 $349 $436 forward $346 $-1 #
edge $-1 $437 19.337562595540017 $440 33.635324963558524 $435 $475 forward 7 unknown #
vertex $-1 $361 $476 #
straight-curve $-1 -43.391780468477592 -78.692571219728052 16.072737464258136 0 -1 0 I I #
edge $-1 $440 -27.473431997653154 $358 -4.3632649439957198 $357 $477 forward 7 unknown #
vertex $-1 $439 $478 #
straight-curve $-1 -43.391780468477592 -42.47392140742339 1.7749750962396291 0 0.51503806187062418 0.85716730853699208 I I #
point $-1 -43.391780468477592 -33.882959356292858 16.072737464258132 #
point $-1 -20.281613414820157 -42.47392140742339 1.7749750962396291 #
straight-curve $-1 0 -42.47392140742339 16.072737464258136 1 0 0 I I #
vertex $-1 $364 $479 #
point $-1 -30.336696941648874 -34.71267702119551 6.8414156337145275 #
point $-1 -67.029633472701192 -42.47392140742339 -16.072737464258136 #
straight-curve $-1 -67.029633472701192 0 -16.072737464258136 0 1 0 I I #
point $-1 -67.029633472701192 42.47392140742339 -16.072737464258136 #
straight-curve $-1 -67.029633472701192 42.47392140742339 0 0 0 -1 I I #
coedge $-1 $387 $386 $397 $456 reversed $180 $-1 #
edge $-1 $457 -42.47392140742339 $390 42.47392140742339 $386 $480 forward 7 unknown #
straight-curve $-1 -85.362089812812883 42.47392140742339 -13.227205151141041 0 0 -1 I I #
point $-1 -85.362089812812883 42.47392140742339 -16.072737464258136 #
point $-1 -85.362089812812883 42.47392140742339 -10.381672838023945 #
edge $-1 $401 -2.8455323131170953 $457 2.8455323131170953 $451 $481 forward 7 unknown #
vertex $-1 $452 $482 #
straight-curve $-1 -76.195861642757038 -42.47392140742339 -16.072737464258136 -1 0 0 I I #
straight-curve $-1 -85.362089812812883 0 -10.381672838023945 0 -1 0 I I #
point $-1 -85.362089812812883 -42.47392140742339 -10.381672838023945 #
edge $-1 $414 -42.47392140742339 $462 42.47392140742339 $404 $483 forward 7 unknown #
vertex $-1 $406 $484 #
straight-curve $-1 85.362089812812869 -42.47392140742339 -13.227205151141041 0 0 -1 I I #
point $-1 85.362089812812869 -42.47392140742339 -10.381672838023945 #
point $-1 85.362089812812869 42.47392140742339 -10.381672838023945 #
straight-curve $-1 85.362089812812869 42.47392140742339 -13.227205151141041 0 0 -1 I I #
point $-1 85.362089812812869 42.47392140742339 -16.072737464258136 #
straight-curve $-1 76.195861642757023 -42.47392140742339 -16.072737464258136 -1 0 0 I I #
straight-curve $-1 -15.729541551457348 42.47392140742339 77.18087489066221 0 0 -1 I I #
point $-1 -15.729541551457348 42.47392140742339 16.072737464258136 #
straight-curve $-1 -10.360116558512402 42.47392140742339 2.3000070644687725 -1 0 0 I I #
point $-1 -15.729541551457348 42.47392140742339 2.3000070644687725 #
point $-1 -22.859100930839425 35.355631237373878 8.2022837351800657 #
point $-1 -18.581365303210177 35.355631237373878 8.2022837351800657 #
straight-curve $-1 -43.391780468477592 -42.47392140742339 35.410300059798153 0 0 -1 I I #
point $-1 -43.391780468477592 -42.47392140742339 16.072737464258136 #
straight-curve $-1 -15.918348470824437 -42.47392140742339 1.7749750962396291 1 0 0 I I #
point $-1 -43.391780468477592 -42.47392140742339 1.7749750962396291 #
point $-1 -31.836696941648874 -33.426926058390016 6.0688585409085913 #
straight-curve $-1 -85.362089812812883 0 -16.072737464258136 0 1 0 I I #
straight-curve $-1 -85.362089812812883 -42.47392140742339 -13.227205151141041 0 0 -1 I I #
point $-1 -85.362089812812883 -42.47392140742339 -16.072737464258136 #
straight-curve $-1 85.362089812812869 0 -16.072737464258136 0 -1 0 I I #
point $-1 85.362089812812869 -42.47392140742339 -16.072737464258136 #
End-of-ACIS-data 