500 0 6 0           
7 Unknown 11 ACIS 5.0 NT 24 Fri Mar 26 20:01:15 1999 
-1 9.9999999999999995e-007 1e-010 
body $-1 $6 $-1 $7 #
body $-1 $8 $-1 $9 #
body $-1 $10 $-1 $11 #
body $-1 $12 $-1 $13 #
body $-1 $14 $-1 $15 #
body $-1 $16 $-1 $17 #
lump $-1 $-1 $18 $0 #
transform $-1 1 0 0 0 1 0 0 0 1 79.031952879421368 50.517787709103438 23.722870663701787 1 rotate no_reflect no_shear #
lump $-1 $-1 $19 $1 #
transform $-1 1 0 0 0 1 0 0 0 1 79.031952879421368 50.517787709103438 23.722870663701787 1 rotate no_reflect no_shear #
lump $-1 $-1 $20 $2 #
transform $-1 1 0 0 0 1 0 0 0 1 79.031952879421368 50.517787709103438 23.722870663701787 1 rotate no_reflect no_shear #
lump $-1 $-1 $21 $3 #
transform $-1 1 0 0 0 1 0 0 0 1 79.031952879421368 50.517787709103438 23.722870663701787 1 rotate no_reflect no_shear #
lump $-1 $-1 $22 $4 #
transform $-1 1 0 0 0 1 0 0 0 1 79.031952879421368 50.517787709103438 23.722870663701787 1 rotate no_reflect no_shear #
lump $-1 $-1 $23 $5 #
transform $-1 1 0 0 0 1 0 0 0 1 79.031952879421368 50.517787709103438 23.722870663701787 1 rotate no_reflect no_shear #
shell $-1 $-1 $-1 $24 $-1 $6 #
shell $-1 $-1 $-1 $25 $-1 $8 #
shell $-1 $-1 $-1 $26 $-1 $10 #
shell $-1 $-1 $-1 $27 $-1 $12 #
shell $-1 $-1 $-1 $28 $-1 $14 #
shell $-1 $-1 $-1 $29 $-1 $16 #
face $-1 $30 $31 $18 $-1 $32 reversed single #
face $-1 $33 $34 $19 $-1 $35 forward single #
face $-1 $36 $37 $20 $-1 $38 forward single #
face $-1 $39 $40 $21 $-1 $41 reversed single #
face $-1 $42 $43 $22 $-1 $44 forward single #
face $-1 $45 $46 $23 $-1 $47 forward single #
face $-1 $48 $49 $18 $-1 $50 reversed single #
loop $-1 $-1 $51 $24 #
plane-surface $-1 79.031952879421368 0 0 -1 0 0 0 0 1 forward_v I I I I #
face $-1 $52 $53 $19 $-1 $54 reversed single #
loop $-1 $-1 $55 $25 #
plane-surface $-1 -79.031952879421368 0 0 1 0 0 0 0 -1 forward_v I I I I #
face $-1 $56 $57 $20 $-1 $58 reversed single #
loop $-1 $-1 $59 $26 #
plane-surface $-1 79.031952879421368 0 0 -1 0 0 0 0 1 forward_v I I I I #
face $-1 $60 $61 $21 $-1 $62 reversed single #
loop $-1 $-1 $63 $27 #
plane-surface $-1 -21.673380023306965 -178.39417495884601 99.213601688947819 -1 0 0 0 -0.80901700255871778 0.5877852410284794 forward_v I I I I #
face $-1 $64 $65 $22 $-1 $66 forward single #
loop $-1 $67 $68 $28 #
cone-surface $-1 -39.896443387999774 -43.017521900555074 14.162036134588847 0 0.80901700255871778 -0.5877852410284794 1 0 0 1 I I 0 1 1 forward I I I I #
face $-1 $69 $70 $23 $-1 $71 forward single #
loop $-1 $72 $73 $29 #
cone-surface $-1 -28.962605369184089 -43.017521900555074 14.162036134588847 0 0.80901700255871778 -0.5877852410284794 1 0 0 1 I I 0 1 1 forward I I I I #
face $-1 $74 $75 $18 $-1 $76 forward single #
loop $-1 $-1 $77 $30 #
plane-surface $-1 -79.031952879421368 0 0 1 0 0 0 0 -1 forward_v I I I I #
coedge $-1 $78 $79 $80 $81 reversed $31 $-1 #
face $-1 $82 $83 $19 $-1 $84 reversed single #
loop $-1 $-1 $85 $33 #
plane-surface $-1 0 0 -23.722870663701787 0 0 1 1 0 0 forward_v I I I I #
coedge $-1 $86 $87 $88 $89 forward $34 $-1 #
face $-1 $90 $91 $20 $-1 $92 reversed single #
loop $-1 $-1 $93 $36 #
plane-surface $-1 0 0 -23.722870663701787 0 0 1 1 0 0 forward_v I I I I #
coedge $-1 $94 $95 $96 $97 forward $37 $-1 #
face $-1 $98 $99 $21 $-1 $100 reversed single #
loop $-1 $-1 $101 $39 #
plane-surface $-1 -34.429524378591935 -50.517787709103402 6.3059707445835897 0 -0.80901700255871778 0.5877852410284794 1 0 0 forward_v I I I I #
coedge $-1 $102 $103 $104 $105 reversed $40 $-1 #
face $-1 $-1 $106 $22 $-1 $107 forward single #
loop $-1 $108 $109 $42 #
cone-surface $-1 -39.896443387999774 -41.439806654102711 13.015758944520766 0 0.80901700255871778 -0.5877852410284794 0.5 0 0 1 I I -0.70710678118654746 0.70710678118654746 0.5 forward I I I I #
loop $-1 $-1 $110 $28 #
coedge $-1 $68 $68 $111 $112 reversed $43 $-1 #
face $-1 $-1 $113 $23 $-1 $114 forward single #
loop $-1 $115 $116 $45 #
cone-surface $-1 -28.962605369184089 -41.439806654102711 13.015758944520766 0 0.80901700255871778 -0.5877852410284794 0.5 0 0 1 I I -0.70710678118654746 0.70710678118654746 0.5 forward I I I I #
loop $-1 $-1 $117 $29 #
coedge $-1 $73 $73 $118 $119 reversed $46 $-1 #
face $-1 $120 $121 $18 $-1 $122 reversed single #
loop $-1 $-1 $123 $48 #
plane-surface $-1 0 0 23.722870663701787 0 0 1 1 0 0 forward_v I I I I #
coedge $-1 $124 $125 $126 $127 reversed $49 $-1 #
coedge $-1 $128 $51 $129 $130 reversed $31 $-1 #
coedge $-1 $51 $128 $131 $132 forward $31 $-1 #
coedge $-1 $133 $134 $51 $81 forward $121 $-1 #
edge $-1 $135 -50.517787709103438 $136 50.517787709103438 $51 $137 forward 7 unknown #
face $-1 $138 $139 $19 $-1 $140 reversed single #
loop $-1 $-1 $141 $52 #
plane-surface $-1 -87.883058947349255 -10.098336850501582 0 0 1 0 0 0 1 forward_v I I I I #
coedge $-1 $142 $143 $87 $144 forward $53 $-1 #
coedge $-1 $145 $55 $146 $147 reversed $34 $-1 #
coedge $-1 $55 $145 $85 $144 reversed $34 $-1 #
coedge $-1 $148 $149 $55 $89 reversed $150 $-1 #
edge $-1 $151 -23.722870663701787 $152 23.722870663701787 $88 $153 forward 7 unknown #
face $-1 $154 $155 $20 $-1 $156 reversed single #
loop $-1 $-1 $96 $56 #
plane-surface $-1 87.883058947349269 -10.098336850501582 0 0 1 0 0 0 1 forward_v I I I I #
coedge $-1 $157 $158 $95 $159 forward $57 $-1 #
coedge $-1 $160 $59 $161 $162 reversed $37 $-1 #
coedge $-1 $59 $160 $93 $159 reversed $37 $-1 #
coedge $-1 $163 $164 $59 $97 reversed $91 $-1 #
edge $-1 $165 -23.722870663701787 $166 23.722870663701787 $96 $167 forward 7 unknown #
face $-1 $168 $169 $21 $-1 $170 forward single #
loop $-1 $-1 $171 $60 #
plane-surface $-1 -47.185668733876909 -178.39417495884601 99.213601688947819 1 0 0 0 0.80901700255871778 -0.5877852410284794 forward_v I I I I #
coedge $-1 $172 $173 $174 $175 reversed $61 $-1 #
coedge $-1 $103 $63 $176 $177 reversed $40 $-1 #
coedge $-1 $63 $102 $172 $178 reversed $40 $-1 #
coedge $-1 $174 $179 $63 $105 forward $169 $-1 #
edge $-1 $180 38.679299770319567 $181 51.333417897070305 $104 $182 forward 7 unknown #
loop $-1 $-1 $111 $64 #
plane-surface $-1 -34.429524378591935 -50.517787709103402 6.3059707445835897 0 -0.80901700255871778 0.5877852410284794 1 0 0 forward_v I I I I #
loop $-1 $-1 $183 $42 #
coedge $-1 $109 $109 $110 $184 reversed $65 $-1 #
coedge $-1 $110 $110 $109 $184 forward $67 $-1 #
coedge $-1 $111 $111 $68 $112 forward $106 $-1 #
edge $-1 $185 4.0452997518284518e-016 $185 6.2831853071796004 $111 $186 forward 7 unknown #
loop $-1 $-1 $118 $69 #
plane-surface $-1 -34.429524378591935 -50.517787709103402 6.3059707445835897 0 -0.80901700255871778 0.5877852410284794 1 0 0 forward_v I I I I #
loop $-1 $-1 $187 $45 #
coedge $-1 $116 $116 $117 $188 reversed $70 $-1 #
coedge $-1 $117 $117 $116 $188 forward $72 $-1 #
coedge $-1 $118 $118 $73 $119 forward $113 $-1 #
edge $-1 $189 4.0452997518284518e-016 $189 6.2831853071796004 $118 $190 forward 7 unknown #
face $-1 $191 $192 $18 $-1 $193 reversed single #
loop $-1 $-1 $80 $74 #
plane-surface $-1 0 0 -23.722870663701787 0 0 1 1 0 0 forward_v I I I I #
coedge $-1 $194 $195 $128 $196 forward $75 $-1 #
coedge $-1 $197 $77 $198 $199 reversed $49 $-1 #
coedge $-1 $77 $197 $200 $201 forward $49 $-1 #
coedge $-1 $134 $133 $77 $127 forward $121 $-1 #
edge $-1 $202 -50.517787709103438 $203 50.517787709103438 $77 $204 forward 7 unknown #
coedge $-1 $79 $78 $123 $196 reversed $31 $-1 #
coedge $-1 $205 $206 $78 $130 forward $207 $-1 #
edge $-1 $208 -23.722870663701787 $135 23.722870663701787 $78 $209 forward 7 unknown #
coedge $-1 $210 $211 $79 $132 reversed $192 $-1 #
edge $-1 $212 -23.722870663701787 $136 23.722870663701787 $79 $213 forward 7 unknown #
coedge $-1 $126 $80 $211 $214 forward $121 $-1 #
coedge $-1 $80 $126 $205 $215 forward $121 $-1 #
vertex $-1 $81 $216 #
vertex $-1 $132 $217 #
straight-curve $-1 79.031952879421368 0 -23.722870663701787 0 -1 0 I I #
face $-1 $218 $150 $19 $-1 $219 reversed single #
loop $-1 $-1 $220 $82 #
plane-surface $-1 -96.734165015277142 -6.5851916161007225 0 1 0 0 0 0 -1 forward_v I I I I #
coedge $-1 $221 $222 $223 $224 forward $83 $-1 #
coedge $-1 $225 $85 $221 $226 forward $53 $-1 #
coedge $-1 $85 $225 $148 $227 forward $53 $-1 #
edge $-1 $151 3.0720463816998631 $228 10.098336850501582 $85 $229 forward 7 unknown #
coedge $-1 $87 $86 $230 $231 forward $34 $-1 #
coedge $-1 $232 $233 $86 $147 forward $234 $-1 #
edge $-1 $235 -10.098336850501582 $152 -3.0720463816998631 $146 $236 forward 7 unknown #
coedge $-1 $237 $88 $143 $227 reversed $150 $-1 #
coedge $-1 $88 $237 $232 $238 reversed $150 $-1 #
loop $-1 $-1 $88 $138 #
vertex $-1 $144 $239 #
vertex $-1 $238 $240 #
straight-curve $-1 -79.031952879421368 -3.0720463816998631 0 0 0 1 I I #
face $-1 $241 $242 $20 $-1 $243 reversed single #
loop $-1 $-1 $244 $90 #
plane-surface $-1 87.883058947349269 -3.0720463816998631 0 0 -1 0 0 0 -1 forward_v I I I I #
coedge $-1 $245 $93 $246 $247 forward $57 $-1 #
coedge $-1 $93 $245 $163 $248 forward $57 $-1 #
edge $-1 $165 -10.098336850501582 $249 -3.0720463816998631 $93 $250 forward 7 unknown #
coedge $-1 $95 $94 $251 $252 forward $37 $-1 #
coedge $-1 $253 $254 $94 $162 forward $255 $-1 #
edge $-1 $256 3.0720463816998631 $166 10.098336850501582 $161 $257 forward 7 unknown #
coedge $-1 $258 $96 $158 $248 reversed $91 $-1 #
coedge $-1 $96 $258 $253 $259 reversed $91 $-1 #
vertex $-1 $159 $260 #
vertex $-1 $259 $261 #
straight-curve $-1 79.031952879421368 -10.098336850501582 0 0 0 1 I I #
face $-1 $-1 $262 $21 $-1 $263 reversed single #
loop $-1 $-1 $104 $98 #
plane-surface $-1 0 0 23.722870663701787 0 0 1 1 0 0 forward_v I I I I #
coedge $-1 $264 $265 $266 $267 reversed $99 $-1 #
coedge $-1 $268 $101 $103 $178 forward $61 $-1 #
coedge $-1 $101 $268 $264 $269 forward $61 $-1 #
coedge $-1 $266 $104 $101 $175 forward $169 $-1 #
edge $-1 $181 4.4586178340109974 $270 29.970906544580941 $174 $271 forward 7 unknown #
coedge $-1 $272 $273 $102 $177 forward $262 $-1 #
edge $-1 $274 -43.300830099890369 $180 -25.883930180772122 $176 $275 forward 7 unknown #
edge $-1 $181 -21.528472039565187 $274 6.0402656016361658e-014 $103 $276 forward 7 unknown #
coedge $-1 $104 $266 $272 $277 forward $169 $-1 #
vertex $-1 $105 $278 #
vertex $-1 $105 $279 #
straight-curve $-1 -21.673380023306965 -89.197087479423004 23.722870663701791 0 1 0 I I #
coedge $-1 $183 $183 $-1 $280 reversed $108 $-1 #
edge $-1 $281 0 $281 6.2831853071796004 $109 $282 forward 7 unknown #
vertex $-1 $112 $283 #
ellipse-curve $-1 -39.896443387999774 -44.190728645728058 15.014420704142674 0 -0.80901700255871778 0.5877852410284794 1 0 0 1 I I #
coedge $-1 $187 $187 $-1 $284 reversed $115 $-1 #
edge $-1 $285 0 $285 6.2831853071796004 $116 $286 forward 7 unknown #
vertex $-1 $119 $287 #
ellipse-curve $-1 -28.962605369184089 -44.190728645728058 15.014420704142674 0 -0.80901700255871778 0.5877852410284794 1 0 0 1 I I #
face $-1 $-1 $207 $18 $-1 $288 reversed single #
loop $-1 $-1 $198 $120 #
plane-surface $-1 0 -50.517787709103438 0 0 1 0 0 0 1 forward_v I I I I #
coedge $-1 $289 $123 $206 $290 forward $75 $-1 #
coedge $-1 $123 $289 $210 $291 forward $75 $-1 #
edge $-1 $212 -50.517787709103438 $208 50.517787709103438 $128 $292 forward 7 unknown #
coedge $-1 $125 $124 $289 $293 reversed $49 $-1 #
coedge $-1 $211 $210 $124 $199 forward $192 $-1 #
edge $-1 $294 -23.722870663701787 $202 23.722870663701787 $124 $295 forward 7 unknown #
coedge $-1 $206 $205 $125 $201 reversed $207 $-1 #
edge $-1 $296 -23.722870663701787 $203 23.722870663701787 $200 $297 forward 7 unknown #
vertex $-1 $127 $298 #
vertex $-1 $215 $299 #
straight-curve $-1 -79.031952879421368 0 -23.722870663701787 0 1 0 I I #
coedge $-1 $200 $129 $134 $215 reversed $207 $-1 #
coedge $-1 $129 $200 $194 $290 reversed $207 $-1 #
loop $-1 $-1 $129 $191 #
vertex $-1 $196 $300 #
straight-curve $-1 79.031952879421368 50.517787709103438 0 0 0 -1 I I #
coedge $-1 $198 $131 $195 $291 reversed $192 $-1 #
coedge $-1 $131 $198 $133 $214 reversed $192 $-1 #
vertex $-1 $196 $301 #
straight-curve $-1 79.031952879421368 -50.517787709103438 0 0 0 -1 I I #
edge $-1 $136 -79.031952879421368 $202 79.031952879421368 $211 $302 forward 7 unknown #
edge $-1 $203 -79.031952879421368 $135 79.031952879421368 $205 $303 forward 7 unknown #
point $-1 79.031952879421368 50.517787709103438 -23.722870663701787 #
point $-1 79.031952879421368 -50.517787709103438 -23.722870663701787 #
face $-1 $-1 $234 $19 $-1 $304 forward single #
plane-surface $-1 -87.883058947349255 -3.0720463816998631 0 0 -1 0 0 0 -1 forward_v I I I I #
coedge $-1 $305 $306 $237 $307 forward $139 $-1 #
coedge $-1 $230 $141 $142 $226 reversed $83 $-1 #
coedge $-1 $141 $230 $233 $308 reversed $83 $-1 #
coedge $-1 $306 $305 $141 $224 reversed $139 $-1 #
edge $-1 $309 -23.722870663701787 $310 23.722870663701787 $223 $311 forward 7 unknown #
coedge $-1 $143 $142 $305 $312 forward $53 $-1 #
edge $-1 $228 -8.851106067927887 $310 8.851106067927887 $221 $313 forward 7 unknown #
edge $-1 $314 -8.851106067927887 $151 8.851106067927887 $148 $315 forward 7 unknown #
vertex $-1 $226 $316 #
straight-curve $-1 -79.031952879421368 0 -23.722870663701787 0 -1 0 I I #
coedge $-1 $222 $221 $145 $231 reversed $83 $-1 #
edge $-1 $235 -23.722870663701787 $228 23.722870663701787 $230 $317 forward 7 unknown #
coedge $-1 $318 $146 $149 $238 forward $234 $-1 #
coedge $-1 $146 $318 $222 $308 forward $234 $-1 #
loop $-1 $-1 $146 $218 #
vertex $-1 $147 $319 #
straight-curve $-1 -79.031952879421368 0 23.722870663701787 0 1 0 I I #
coedge $-1 $149 $148 $220 $307 reversed $150 $-1 #
edge $-1 $152 -8.851106067927887 $320 8.851106067927887 $149 $321 forward 7 unknown #
point $-1 -79.031952879421368 -3.0720463816998631 -23.722870663701787 #
point $-1 -79.031952879421368 -3.0720463816998631 23.722870663701787 #
face $-1 $-1 $255 $20 $-1 $322 forward single #
loop $-1 $-1 $323 $154 #
plane-surface $-1 96.734165015277156 -6.5851916161007225 0 -1 0 0 0 0 1 forward_v I I I I #
coedge $-1 $246 $324 $325 $326 forward $155 $-1 #
coedge $-1 $158 $157 $327 $328 forward $57 $-1 #
coedge $-1 $251 $244 $157 $247 reversed $155 $-1 #
edge $-1 $249 -8.851106067927887 $329 8.851106067927887 $246 $330 forward 7 unknown #
edge $-1 $331 -8.851106067927887 $165 8.851106067927887 $163 $332 forward 7 unknown #
vertex $-1 $247 $333 #
straight-curve $-1 79.031952879421368 0 -23.722870663701787 0 1 0 I I #
coedge $-1 $324 $246 $160 $252 reversed $155 $-1 #
edge $-1 $256 -23.722870663701787 $249 23.722870663701787 $251 $334 forward 7 unknown #
coedge $-1 $335 $161 $164 $259 forward $255 $-1 #
coedge $-1 $161 $335 $324 $336 forward $255 $-1 #
loop $-1 $-1 $161 $241 #
vertex $-1 $162 $337 #
straight-curve $-1 79.031952879421368 0 23.722870663701787 0 -1 0 I I #
coedge $-1 $164 $163 $323 $338 reversed $91 $-1 #
edge $-1 $166 -8.851106067927887 $339 8.851106067927887 $164 $340 forward 7 unknown #
point $-1 79.031952879421382 -10.098336850501582 -23.722870663701787 #
point $-1 79.031952879421382 -10.098336850501582 23.722870663701787 #
loop $-1 $-1 $176 $168 #
plane-surface $-1 0 -50.517787709103438 0 0 1 0 0 0 1 forward_v I I I I #
coedge $-1 $265 $171 $173 $269 reversed $99 $-1 #
coedge $-1 $171 $264 $341 $342 reversed $99 $-1 #
coedge $-1 $179 $174 $171 $267 forward $169 $-1 #
edge $-1 $270 -51.333417897070305 $343 -38.679299770319567 $266 $344 forward 7 unknown #
coedge $-1 $173 $172 $273 $345 reversed $61 $-1 #
edge $-1 $346 -6.0402656016361658e-014 $270 21.528472039565187 $264 $347 forward 7 unknown #
vertex $-1 $175 $348 #
straight-curve $-1 -17.214762189295968 -37.863669582352699 23.722870663701787 -1 0 0 I I #
coedge $-1 $341 $176 $179 $277 reversed $262 $-1 #
coedge $-1 $176 $341 $268 $345 forward $262 $-1 #
vertex $-1 $177 $349 #
straight-curve $-1 -21.673380023306965 -50.517787709103438 49.606800844473909 0 0 1 I I #
straight-curve $-1 -21.673380023306965 -50.517787709103402 6.3059707445835897 0 -0.5877852410284794 -0.80901700255871778 I I #
edge $-1 $343 -47.185668733876909 $180 -21.673380023306965 $272 $350 forward 7 unknown #
point $-1 -21.673380023306965 -50.517787709103438 23.722870663701787 #
point $-1 -21.673380023306965 -37.863669582352699 23.722870663701787 #
edge $-1 $351 1 $351 0 $183 $-1 forward 7 unknown #
vertex $-1 $184 $352 #
ellipse-curve $-1 -39.896443387999774 -41.84431515538207 13.309651565035006 0 -0.80901700255871778 0.5877852410284794 1 0 0 1 I I #
point $-1 -38.896443387999774 -44.190728645728079 15.01442070414269 #
edge $-1 $353 1 $353 0 $187 $-1 forward 7 unknown #
vertex $-1 $188 $354 #
ellipse-curve $-1 -28.962605369184089 -41.84431515538207 13.309651565035006 0 -0.80901700255871778 0.5877852410284794 1 0 0 1 I I #
point $-1 -27.962605369184089 -44.190728645728079 15.01442070414269 #
plane-surface $-1 0 50.517787709103438 0 0 -1 0 0 0 -1 forward_v I I I I #
coedge $-1 $195 $194 $197 $293 forward $75 $-1 #
edge $-1 $208 -79.031952879421368 $296 79.031952879421368 $206 $355 forward 7 unknown #
edge $-1 $294 -79.031952879421368 $212 79.031952879421368 $210 $356 forward 7 unknown #
straight-curve $-1 79.031952879421368 0 23.722870663701787 0 1 0 I I #
edge $-1 $296 -50.517787709103438 $294 50.517787709103438 $197 $357 forward 7 unknown #
vertex $-1 $293 $358 #
straight-curve $-1 -79.031952879421368 -50.517787709103438 0 0 0 -1 I I #
vertex $-1 $290 $359 #
straight-curve $-1 -79.031952879421368 50.517787709103438 0 0 0 -1 I I #
point $-1 -79.031952879421368 -50.517787709103438 -23.722870663701787 #
point $-1 -79.031952879421368 50.517787709103438 -23.722870663701787 #
point $-1 79.031952879421368 50.517787709103438 23.722870663701787 #
point $-1 79.031952879421368 -50.517787709103438 23.722870663701787 #
straight-curve $-1 0 -50.517787709103438 -23.722870663701787 -1 0 0 I I #
straight-curve $-1 0 50.517787709103438 -23.722870663701787 1 0 0 I I #
plane-surface $-1 0 0 23.722870663701787 0 0 1 1 0 0 forward_v I I I I #
coedge $-1 $223 $220 $225 $312 reversed $139 $-1 #
coedge $-1 $220 $223 $318 $360 reversed $139 $-1 #
edge $-1 $320 -23.722870663701787 $314 23.722870663701787 $237 $361 forward 7 unknown #
edge $-1 $309 -8.851106067927887 $235 8.851106067927887 $222 $362 forward 7 unknown #
vertex $-1 $360 $363 #
vertex $-1 $312 $364 #
straight-curve $-1 -96.734165015277142 -10.098336850501582 0 0 0 -1 I I #
edge $-1 $310 -3.5131452344008594 $314 3.5131452344008594 $305 $365 forward 7 unknown #
straight-curve $-1 -87.883058947349255 -10.098336850501582 -23.722870663701787 -1 0 0 I I #
vertex $-1 $227 $366 #
straight-curve $-1 -87.883058947349255 -3.0720463816998631 -23.722870663701787 1 0 0 I I #
point $-1 -79.031952879421368 -10.098336850501582 -23.722870663701787 #
straight-curve $-1 -79.031952879421368 -10.098336850501582 0 0 0 -1 I I #
coedge $-1 $233 $232 $306 $360 forward $234 $-1 #
point $-1 -79.031952879421368 -10.098336850501582 23.722870663701787 #
vertex $-1 $238 $367 #
straight-curve $-1 -87.883058947349255 -3.0720463816998631 23.722870663701787 -1 0 0 I I #
plane-surface $-1 0 0 23.722870663701787 0 0 1 1 0 0 forward_v I I I I #
coedge $-1 $327 $368 $258 $338 forward $242 $-1 #
coedge $-1 $244 $251 $254 $336 reversed $155 $-1 #
coedge $-1 $368 $327 $244 $326 reversed $242 $-1 #
edge $-1 $369 -23.722870663701787 $329 23.722870663701787 $325 $370 forward 7 unknown #
coedge $-1 $325 $323 $245 $328 reversed $242 $-1 #
edge $-1 $329 -3.5131452344008594 $331 3.5131452344008594 $327 $371 forward 7 unknown #
vertex $-1 $328 $372 #
straight-curve $-1 87.883058947349269 -3.0720463816998631 -23.722870663701787 1 0 0 I I #
vertex $-1 $338 $373 #
straight-curve $-1 87.883058947349269 -10.098336850501582 -23.722870663701787 -1 0 0 I I #
point $-1 79.031952879421382 -3.0720463816998631 -23.722870663701787 #
straight-curve $-1 79.031952879421368 -3.0720463816998631 0 0 0 -1 I I #
coedge $-1 $254 $253 $368 $374 forward $255 $-1 #
edge $-1 $369 -8.851106067927887 $256 8.851106067927887 $324 $375 forward 7 unknown #
point $-1 79.031952879421382 -3.0720463816998631 23.722870663701787 #
edge $-1 $339 -23.722870663701787 $331 23.722870663701787 $323 $376 forward 7 unknown #
vertex $-1 $374 $377 #
straight-curve $-1 87.883058947349269 -10.098336850501582 23.722870663701787 1 0 0 I I #
coedge $-1 $273 $272 $265 $342 forward $262 $-1 #
edge $-1 $343 25.883930180772122 $346 43.300830099890369 $341 $378 forward 7 unknown #
vertex $-1 $277 $379 #
straight-curve $-1 -47.185668733876909 -89.197087479423004 23.722870663701791 0 -1 0 I I #
edge $-1 $346 -29.970906544580941 $274 -4.4586178340109974 $273 $380 forward 7 unknown #
vertex $-1 $345 $381 #
straight-curve $-1 -47.185668733876909 -50.517787709103402 6.3059707445835897 0 0.5877852410284794 0.80901700255871778 I I #
point $-1 -47.185668733876909 -37.863669582352699 23.722870663701787 #
point $-1 -21.673380023306965 -50.517787709103438 6.3059707445835409 #
straight-curve $-1 0 -50.517787709103438 23.722870663701787 1 0 0 I I #
vertex $-1 $280 $382 #
point $-1 -38.896443387999774 -41.84431515538207 13.309651565035006 #
vertex $-1 $284 $383 #
point $-1 -27.962605369184089 -41.84431515538207 13.309651565035006 #
straight-curve $-1 0 50.517787709103438 23.722870663701787 -1 0 0 I I #
straight-curve $-1 0 -50.517787709103438 23.722870663701787 1 0 0 I I #
straight-curve $-1 -79.031952879421368 0 23.722870663701787 0 -1 0 I I #
point $-1 -79.031952879421368 -50.517787709103438 23.722870663701787 #
point $-1 -79.031952879421368 50.517787709103438 23.722870663701787 #
edge $-1 $320 -3.5131452344008594 $309 3.5131452344008594 $306 $384 forward 7 unknown #
straight-curve $-1 -96.734165015277142 -3.0720463816998631 0 0 0 -1 I I #
straight-curve $-1 -87.883058947349255 -10.098336850501582 23.722870663701787 1 0 0 I I #
point $-1 -96.734165015277142 -10.098336850501582 23.722870663701787 #
point $-1 -96.734165015277142 -10.098336850501582 -23.722870663701787 #
straight-curve $-1 -96.734165015277142 -6.5851916161007225 -23.722870663701787 0 1 0 I I #
point $-1 -96.734165015277142 -3.0720463816998631 -23.722870663701787 #
point $-1 -96.734165015277142 -3.0720463816998631 23.722870663701787 #
coedge $-1 $323 $325 $335 $374 reversed $242 $-1 #
vertex $-1 $374 $385 #
straight-curve $-1 96.734165015277156 -3.0720463816998631 0 0 0 -1 I I #
straight-curve $-1 96.734165015277156 -6.5851916161007225 -23.722870663701787 0 -1 0 I I #
point $-1 96.734165015277156 -3.0720463816998631 -23.722870663701787 #
point $-1 96.734165015277156 -10.098336850501582 -23.722870663701787 #
edge $-1 $339 -3.5131452344008594 $369 3.5131452344008594 $368 $386 forward 7 unknown #
straight-curve $-1 87.883058947349269 -3.0720463816998631 23.722870663701787 -1 0 0 I I #
straight-curve $-1 96.734165015277156 -10.098336850501582 0 0 0 -1 I I #
point $-1 96.734165015277156 -10.098336850501582 23.722870663701787 #
straight-curve $-1 -47.185668733876909 -50.517787709103438 49.606800844473909 0 0 -1 I I #
point $-1 -47.185668733876909 -50.517787709103438 23.722870663701787 #
straight-curve $-1 -17.214762189295968 -50.517787709103438 6.3059707445835338 1 0 0 I I #
point $-1 -47.185668733876909 -50.517787709103438 6.3059707445835409 #
point $-1 -39.896443387999774 -41.035298152823351 12.721866324006525 #
point $-1 -28.962605369184089 -41.035298152823351 12.721866324006525 #
straight-curve $-1 -96.734165015277142 -6.5851916161007225 23.722870663701787 0 -1 0 I I #
point $-1 96.734165015277156 -3.0720463816998631 23.722870663701787 #
straight-curve $-1 96.734165015277156 -6.5851916161007225 23.722870663701787 0 1 0 I I #
End-of-ACIS-data 