500 0 10 0           
7 Unknown 11 ACIS 5.0 NT 24 Thu Mar 25 22:33:21 1999 
-1 9.9999999999999995e-007 1e-010 
body $-1 $10 $-1 $11 #
body $-1 $12 $-1 $13 #
body $-1 $14 $-1 $15 #
body $-1 $16 $-1 $17 #
body $-1 $18 $-1 $19 #
body $-1 $20 $-1 $21 #
body $-1 $22 $-1 $23 #
body $-1 $24 $-1 $25 #
body $-1 $26 $-1 $27 #
body $-1 $28 $-1 $29 #
lump $-1 $-1 $30 $0 #
transform $-1 1 0 0 0 1 0 0 0 1 76.891994994964449 45.297685079082527 21.365682308503803 1 rotate no_reflect no_shear #
lump $-1 $-1 $31 $1 #
transform $-1 1 0 0 0 1 0 0 0 1 76.891994994964449 45.297685079082527 21.365682308503803 1 rotate no_reflect no_shear #
lump $-1 $-1 $32 $2 #
transform $-1 1 0 0 0 1 0 0 0 1 76.891994994964449 45.297685079082527 21.365682308503803 1 rotate no_reflect no_shear #
lump $-1 $-1 $33 $3 #
transform $-1 1 0 0 0 1 0 0 0 1 76.891994994964449 45.297685079082527 21.365682308503803 1 rotate no_reflect no_shear #
lump $-1 $-1 $34 $4 #
transform $-1 1 0 0 0 1 0 0 0 1 76.891994994964449 45.297685079082527 21.365682308503803 1 rotate no_reflect no_shear #
lump $-1 $-1 $35 $5 #
transform $-1 1 0 0 0 1 0 0 0 1 76.891994994964449 45.297685079082527 21.365682308503803 1 rotate no_reflect no_shear #
lump $-1 $-1 $36 $6 #
transform $-1 1 0 0 0 1 0 0 0 1 76.891994994964449 45.297685079082527 21.365682308503803 1 rotate no_reflect no_shear #
lump $-1 $-1 $37 $7 #
transform $-1 1 0 0 0 1 0 0 0 1 76.891994994964449 45.297685079082527 21.365682308503803 1 rotate no_reflect no_shear #
lump $-1 $-1 $38 $8 #
transform $-1 1 0 0 0 1 0 0 0 1 76.891994994964449 45.297685079082527 21.365682308503803 1 rotate no_reflect no_shear #
lump $-1 $-1 $39 $9 #
transform $-1 1 0 0 0 1 0 0 0 1 76.891994994964449 45.297685079082527 21.365682308503803 1 rotate no_reflect no_shear #
shell $-1 $-1 $-1 $40 $-1 $10 #
shell $-1 $-1 $-1 $41 $-1 $12 #
shell $-1 $-1 $-1 $42 $-1 $14 #
shell $-1 $-1 $-1 $43 $-1 $16 #
shell $-1 $-1 $-1 $44 $-1 $18 #
shell $-1 $-1 $-1 $45 $-1 $20 #
shell $-1 $-1 $-1 $46 $-1 $22 #
shell $-1 $-1 $-1 $47 $-1 $24 #
shell $-1 $-1 $-1 $48 $-1 $26 #
shell $-1 $-1 $-1 $49 $-1 $28 #
face $-1 $50 $51 $30 $-1 $52 forward single #
face $-1 $53 $54 $31 $-1 $55 forward single #
face $-1 $56 $57 $32 $-1 $58 reversed single #
face $-1 $59 $60 $33 $-1 $61 forward single #
face $-1 $62 $63 $34 $-1 $64 reversed single #
face $-1 $65 $66 $35 $-1 $67 forward single #
face $-1 $68 $69 $36 $-1 $70 reversed single #
face $-1 $71 $72 $37 $-1 $73 forward single #
face $-1 $74 $75 $38 $-1 $76 reversed single #
face $-1 $77 $78 $39 $-1 $79 forward single #
face $-1 $80 $81 $30 $-1 $82 reversed single #
loop $-1 $-1 $83 $40 #
plane-surface $-1 0 0 21.365682308503803 0 0 1 1 0 0 forward_v I I I I #
face $-1 $84 $85 $31 $-1 $86 reversed single #
loop $-1 $-1 $87 $41 #
plane-surface $-1 0 -45.297685079082527 0 0 1 0 0 0 1 forward_v I I I I #
face $-1 $88 $89 $32 $-1 $90 reversed single #
loop $-1 $-1 $91 $42 #
plane-surface $-1 -173.67139691439516 -8.4752806726904026 120.0209731615985 0 1 0 -0.62932039886446345 0 0.77714595512881146 forward_v I I I I #
face $-1 $92 $93 $33 $-1 $94 forward single #
loop $-1 $95 $96 $43 #
cone-surface $-1 -62.986869678336937 -0.77672550057092593 9.6690248978919904 0.62932039886446345 0 -0.77714595512881146 1.1657189326932171 0 0.94398059829669512 1 I I 0 1 1.5 forward I I I I #
face $-1 $97 $98 $34 $-1 $99 reversed single #
loop $-1 $-1 $100 $44 #
plane-surface $-1 -173.67139691439516 23.865145389134291 120.0209731615985 0 1 0 -0.62932039886446345 0 0.77714595512881146 forward_v I I I I #
face $-1 $101 $102 $35 $-1 $103 forward single #
loop $-1 $104 $105 $45 #
cone-surface $-1 -62.986869678336937 31.563700561253768 9.6690248978919904 0.62932039886446345 0 -0.77714595512881146 1.1657189326932171 0 0.94398059829669512 1 I I 0 1 1.5 forward I I I I #
face $-1 $106 $107 $36 $-1 $108 reversed single #
loop $-1 $-1 $109 $46 #
plane-surface $-1 54.158791130152309 6.9218296715485508 216.80037508102922 0 -1 0 -0.62932039886446345 0 -0.77714595512881146 forward_v I I I I #
face $-1 $110 $111 $37 $-1 $112 forward single #
loop $-1 $113 $114 $47 #
cone-surface $-1 62.986869678336937 -0.77672550057092593 9.6690248978919904 -0.62932039886446345 0 -0.77714595512881146 1.1657189326932171 0 -0.94398059829669512 1 I I 0 1 1.5 forward I I I I #
face $-1 $115 $116 $38 $-1 $117 reversed single #
loop $-1 $-1 $118 $48 #
plane-surface $-1 54.158791130152309 39.262255733373244 216.80037508102922 0 -1 0 -0.62932039886446345 0 -0.77714595512881146 forward_v I I I I #
face $-1 $119 $120 $39 $-1 $121 forward single #
loop $-1 $122 $123 $49 #
cone-surface $-1 62.986869678336937 31.563700561253768 9.6690248978919904 -0.62932039886446345 0 -0.77714595512881146 1.1657189326932171 0 -0.94398059829669512 1 I I 0 1 1.5 forward I I I I #
face $-1 $124 $125 $30 $-1 $126 reversed single #
loop $-1 $-1 $127 $50 #
plane-surface $-1 0 0 -21.365682308503803 0 0 1 1 0 0 forward_v I I I I #
coedge $-1 $128 $129 $130 $131 forward $51 $-1 #
face $-1 $132 $133 $31 $-1 $134 reversed single #
loop $-1 $-1 $135 $53 #
plane-surface $-1 0 0 -21.365682308503803 0 0 1 1 0 0 forward_v I I I I #
coedge $-1 $136 $137 $138 $139 forward $54 $-1 #
face $-1 $140 $141 $32 $-1 $142 reversed single #
loop $-1 $-1 $143 $56 #
plane-surface $-1 -76.891994994964449 -0.77672550057092593 0.50836737735562565 -0.62932039886446345 0 0.77714595512881146 0.77714595512881146 0 0.62932039886446345 forward_v I I I I #
coedge $-1 $144 $145 $146 $147 reversed $57 $-1 #
face $-1 $-1 $148 $33 $-1 $149 forward single #
loop $-1 $150 $151 $59 #
cone-surface $-1 -61.48807324849335 -0.77672550057092593 7.8181654865076418 0.62932039886446345 0 -0.77714595512881146 0.58285946634660857 0 0.47199029914834756 1 I I -0.70710678118654757 0.70710678118654757 0.75 forward I I I I #
loop $-1 $-1 $152 $43 #
coedge $-1 $96 $96 $153 $154 reversed $60 $-1 #
face $-1 $155 $156 $34 $-1 $157 reversed single #
loop $-1 $-1 $158 $62 #
plane-surface $-1 -76.891994994964449 31.563700561253768 0.50836737735562565 -0.62932039886446345 0 0.77714595512881146 0.77714595512881146 0 0.62932039886446345 forward_v I I I I #
coedge $-1 $159 $160 $161 $162 reversed $63 $-1 #
face $-1 $-1 $163 $35 $-1 $164 forward single #
loop $-1 $165 $166 $65 #
cone-surface $-1 -61.48807324849335 31.563700561253768 7.8181654865076418 0.62932039886446345 0 -0.77714595512881146 0.58285946634660857 0 0.47199029914834756 1 I I -0.70710678118654757 0.70710678118654757 0.75 forward I I I I #
loop $-1 $-1 $167 $45 #
coedge $-1 $105 $105 $168 $169 reversed $66 $-1 #
face $-1 $170 $171 $36 $-1 $172 reversed single #
loop $-1 $-1 $173 $68 #
plane-surface $-1 -42.620610789278402 -0.77672550057092593 97.287769296786337 0.62932039886446345 0 0.77714595512881146 0.77714595512881146 0 -0.62932039886446345 forward_v I I I I #
coedge $-1 $174 $175 $176 $177 reversed $69 $-1 #
face $-1 $-1 $178 $37 $-1 $179 forward single #
loop $-1 $180 $181 $71 #
cone-surface $-1 61.48807324849335 -0.77672550057092593 7.8181654865076418 -0.62932039886446345 0 -0.77714595512881146 0.58285946634660857 0 -0.47199029914834756 1 I I -0.70710678118654757 0.70710678118654757 0.75 forward I I I I #
loop $-1 $-1 $182 $47 #
coedge $-1 $114 $114 $183 $184 reversed $72 $-1 #
face $-1 $185 $186 $38 $-1 $187 reversed single #
loop $-1 $-1 $188 $74 #
plane-surface $-1 -42.620610789278402 31.563700561253768 97.287769296786337 0.62932039886446345 0 0.77714595512881146 0.77714595512881146 0 -0.62932039886446345 forward_v I I I I #
coedge $-1 $189 $190 $191 $192 reversed $75 $-1 #
face $-1 $-1 $193 $39 $-1 $194 forward single #
loop $-1 $195 $196 $77 #
cone-surface $-1 61.48807324849335 31.563700561253768 7.8181654865076418 -0.62932039886446345 0 -0.77714595512881146 0.58285946634660857 0 -0.47199029914834756 1 I I -0.70710678118654757 0.70710678118654757 0.75 forward I I I I #
loop $-1 $-1 $197 $49 #
coedge $-1 $123 $123 $198 $199 reversed $78 $-1 #
face $-1 $200 $201 $30 $-1 $202 reversed single #
loop $-1 $-1 $203 $80 #
plane-surface $-1 0 -45.297685079082527 0 0 1 0 0 0 1 forward_v I I I I #
coedge $-1 $204 $205 $206 $207 forward $81 $-1 #
coedge $-1 $208 $83 $209 $210 forward $51 $-1 #
coedge $-1 $83 $208 $211 $212 forward $51 $-1 #
coedge $-1 $213 $214 $83 $131 reversed $215 $-1 #
edge $-1 $216 -45.297685079082527 $217 45.297685079082527 $130 $218 forward 7 unknown #
face $-1 $219 $220 $31 $-1 $221 forward single #
loop $-1 $-1 $222 $84 #
plane-surface $-1 76.891994994964449 0 0 -1 0 0 0 0 1 forward_v I I I I #
coedge $-1 $223 $224 $225 $226 forward $85 $-1 #
coedge $-1 $225 $87 $222 $227 reversed $54 $-1 #
coedge $-1 $87 $225 $228 $229 reversed $54 $-1 #
coedge $-1 $230 $231 $87 $139 reversed $220 $-1 #
edge $-1 $232 -76.891994994964449 $233 76.891994994964449 $138 $234 forward 7 unknown #
face $-1 $235 $236 $32 $-1 $237 forward single #
loop $-1 $-1 $238 $88 #
plane-surface $-1 -173.67139691439516 6.9218296715485508 120.0209731615985 0 -1 0 0.62932039886446345 0 -0.77714595512881146 forward_v I I I I #
coedge $-1 $239 $240 $241 $242 reversed $89 $-1 #
coedge $-1 $145 $91 $243 $244 reversed $57 $-1 #
coedge $-1 $91 $144 $239 $245 reversed $57 $-1 #
coedge $-1 $241 $246 $91 $147 forward $236 $-1 #
edge $-1 $247 9.9437034622331311 $248 35.700341834097728 $146 $249 forward 7 unknown #
loop $-1 $-1 $153 $92 #
plane-surface $-1 -76.891994994964449 -0.77672550057092593 0.50836737735562565 -0.62932039886446345 0 0.77714595512881146 0.77714595512881146 0 0.62932039886446345 forward_v I I I I #
loop $-1 $-1 $250 $59 #
coedge $-1 $151 $151 $152 $251 reversed $93 $-1 #
coedge $-1 $152 $152 $151 $251 forward $95 $-1 #
coedge $-1 $153 $153 $96 $154 forward $148 $-1 #
edge $-1 $252 0 $252 6.2831853071796004 $153 $253 forward 7 unknown #
face $-1 $254 $255 $34 $-1 $256 forward single #
loop $-1 $-1 $257 $97 #
plane-surface $-1 -173.67139691439516 39.262255733373244 120.0209731615985 0 -1 0 0.62932039886446345 0 -0.77714595512881146 forward_v I I I I #
coedge $-1 $258 $259 $260 $261 reversed $98 $-1 #
coedge $-1 $160 $100 $262 $263 reversed $63 $-1 #
coedge $-1 $100 $159 $258 $264 reversed $63 $-1 #
coedge $-1 $260 $265 $100 $162 forward $255 $-1 #
edge $-1 $266 9.9437034622331311 $267 35.700341834097728 $161 $268 forward 7 unknown #
loop $-1 $-1 $168 $101 #
plane-surface $-1 -76.891994994964449 31.563700561253768 0.50836737735562565 -0.62932039886446345 0 0.77714595512881146 0.77714595512881146 0 0.62932039886446345 forward_v I I I I #
loop $-1 $-1 $269 $65 #
coedge $-1 $166 $166 $167 $270 reversed $102 $-1 #
coedge $-1 $167 $167 $166 $270 forward $104 $-1 #
coedge $-1 $168 $168 $105 $169 forward $163 $-1 #
edge $-1 $271 0 $271 6.2831853071796004 $168 $272 forward 7 unknown #
face $-1 $273 $274 $36 $-1 $275 reversed single #
loop $-1 $-1 $276 $106 #
plane-surface $-1 54.158791130152309 -8.4752806726904026 216.80037508102922 0 1 0 0.62932039886446345 0 0.77714595512881146 forward_v I I I I #
coedge $-1 $277 $278 $279 $280 reversed $107 $-1 #
coedge $-1 $175 $109 $281 $282 reversed $69 $-1 #
coedge $-1 $109 $174 $277 $283 reversed $69 $-1 #
coedge $-1 $279 $284 $109 $177 forward $285 $-1 #
edge $-1 $286 -49.812599429888294 $287 -24.055961058023726 $176 $288 forward 7 unknown #
loop $-1 $-1 $183 $110 #
plane-surface $-1 -42.620610789278402 -0.77672550057092593 97.287769296786337 0.62932039886446345 0 0.77714595512881146 0.77714595512881146 0 -0.62932039886446345 forward_v I I I I #
loop $-1 $-1 $289 $71 #
coedge $-1 $181 $181 $182 $290 reversed $111 $-1 #
coedge $-1 $182 $182 $181 $290 forward $113 $-1 #
coedge $-1 $183 $183 $114 $184 forward $178 $-1 #
edge $-1 $291 0 $291 6.2831853071796004 $183 $292 forward 7 unknown #
face $-1 $293 $294 $38 $-1 $295 reversed single #
loop $-1 $-1 $296 $115 #
plane-surface $-1 54.158791130152309 23.865145389134291 216.80037508102922 0 1 0 0.62932039886446345 0 0.77714595512881146 forward_v I I I I #
coedge $-1 $297 $298 $299 $300 reversed $116 $-1 #
coedge $-1 $190 $118 $301 $302 reversed $75 $-1 #
coedge $-1 $118 $189 $297 $303 reversed $75 $-1 #
coedge $-1 $299 $304 $118 $192 forward $305 $-1 #
edge $-1 $306 -49.812599429888294 $307 -24.055961058023726 $191 $308 forward 7 unknown #
loop $-1 $-1 $198 $119 #
plane-surface $-1 -42.620610789278402 31.563700561253768 97.287769296786337 0.62932039886446345 0 0.77714595512881146 0.77714595512881146 0 -0.62932039886446345 forward_v I I I I #
loop $-1 $-1 $309 $77 #
coedge $-1 $196 $196 $197 $310 reversed $120 $-1 #
coedge $-1 $197 $197 $196 $310 forward $122 $-1 #
coedge $-1 $198 $198 $123 $199 forward $193 $-1 #
edge $-1 $311 0 $311 6.2831853071796004 $198 $312 forward 7 unknown #
face $-1 $313 $314 $30 $-1 $315 reversed single #
loop $-1 $-1 $316 $124 #
plane-surface $-1 -76.891994994964449 0 0 1 0 0 0 0 -1 forward_v I I I I #
coedge $-1 $317 $211 $318 $319 forward $125 $-1 #
coedge $-1 $320 $127 $317 $321 forward $81 $-1 #
coedge $-1 $127 $320 $322 $323 forward $81 $-1 #
coedge $-1 $214 $213 $127 $207 reversed $215 $-1 #
edge $-1 $324 -45.297685079082527 $325 45.297685079082527 $206 $326 forward 7 unknown #
coedge $-1 $129 $128 $327 $328 forward $51 $-1 #
coedge $-1 $329 $330 $128 $210 reversed $314 $-1 #
edge $-1 $217 -76.891994994964449 $331 76.891994994964449 $209 $332 forward 7 unknown #
coedge $-1 $203 $333 $129 $212 reversed $125 $-1 #
edge $-1 $334 -76.891994994964449 $216 76.891994994964449 $211 $335 forward 7 unknown #
coedge $-1 $206 $130 $333 $336 forward $215 $-1 #
coedge $-1 $130 $206 $329 $337 reversed $215 $-1 #
loop $-1 $-1 $213 $313 #
vertex $-1 $131 $338 #
vertex $-1 $131 $339 #
straight-curve $-1 76.891994994964449 0 21.365682308503803 0 1 0 I I #
face $-1 $340 $341 $31 $-1 $342 reversed single #
loop $-1 $-1 $231 $132 #
plane-surface $-1 0 -58.254944096340353 -13.28718917843462 0 0 1 1 0 0 forward_v I I I I #
coedge $-1 $343 $344 $136 $227 forward $133 $-1 #
coedge $-1 $345 $135 $344 $346 forward $85 $-1 #
coedge $-1 $135 $345 $347 $348 forward $85 $-1 #
coedge $-1 $137 $136 $135 $226 reversed $54 $-1 #
edge $-1 $349 -76.891994994964449 $350 76.891994994964449 $135 $351 forward 7 unknown #
edge $-1 $350 -21.365682308503803 $233 -13.28718917843462 $222 $352 forward 7 unknown #
coedge $-1 $347 $353 $137 $229 forward $354 $-1 #
edge $-1 $232 13.28718917843462 $349 21.365682308503803 $228 $355 forward 7 unknown #
coedge $-1 $356 $138 $353 $357 forward $220 $-1 #
coedge $-1 $138 $356 $343 $358 forward $220 $-1 #
vertex $-1 $229 $359 #
vertex $-1 $358 $360 #
straight-curve $-1 0 -45.297685079082527 -13.28718917843462 1 0 0 I I #
face $-1 $-1 $361 $32 $-1 $362 reversed single #
loop $-1 $-1 $146 $140 #
plane-surface $-1 0 0 21.365682308503803 0 0 1 1 0 0 forward_v I I I I #
coedge $-1 $363 $364 $365 $366 reversed $141 $-1 #
coedge $-1 $367 $143 $145 $245 forward $89 $-1 #
coedge $-1 $143 $367 $363 $368 forward $89 $-1 #
coedge $-1 $365 $146 $143 $242 forward $236 $-1 #
edge $-1 $248 -8.0869179224049397 $369 7.3101924218340137 $241 $370 forward 7 unknown #
coedge $-1 $371 $372 $144 $244 forward $361 $-1 #
edge $-1 $373 -59.502119203443627 $247 -38.644804272295445 $243 $374 forward 7 unknown #
edge $-1 $248 -33.142601080122006 $373 0 $145 $375 forward 7 unknown #
coedge $-1 $146 $365 $371 $376 forward $236 $-1 #
vertex $-1 $244 $377 #
vertex $-1 $147 $378 #
straight-curve $-1 -86.83569845719758 -8.4752806726904026 21.365682308503807 1 0 0 I I #
coedge $-1 $250 $250 $-1 $379 reversed $150 $-1 #
edge $-1 $380 0 $380 6.2831853071796004 $151 $381 forward 7 unknown #
vertex $-1 $154 $382 #
ellipse-curve $-1 -64.013675809032151 -0.77672550057092593 10.937024842929709 -0.62932039886446345 0 0.77714595512881146 1.1657189326932171 0 0.94398059829669512 1 I I #
face $-1 $-1 $383 $34 $-1 $384 reversed single #
loop $-1 $-1 $161 $155 #
plane-surface $-1 0 0 21.365682308503803 0 0 1 1 0 0 forward_v I I I I #
coedge $-1 $385 $386 $387 $388 reversed $156 $-1 #
coedge $-1 $389 $158 $160 $264 forward $98 $-1 #
coedge $-1 $158 $389 $385 $390 forward $98 $-1 #
coedge $-1 $387 $161 $158 $261 forward $255 $-1 #
edge $-1 $267 8.0832951085074072 $391 23.480405452746361 $260 $392 forward 7 unknown #
coedge $-1 $393 $394 $159 $263 forward $383 $-1 #
edge $-1 $395 -59.502119203443627 $266 -38.644804272295445 $262 $396 forward 7 unknown #
edge $-1 $267 -33.142601080122006 $395 0 $160 $397 forward 7 unknown #
coedge $-1 $161 $387 $393 $398 forward $255 $-1 #
vertex $-1 $162 $399 #
vertex $-1 $162 $400 #
straight-curve $-1 -86.83569845719758 23.865145389134291 21.365682308503807 1 0 0 I I #
coedge $-1 $269 $269 $-1 $401 reversed $165 $-1 #
edge $-1 $402 0 $402 6.2831853071796004 $166 $403 forward 7 unknown #
vertex $-1 $169 $404 #
ellipse-curve $-1 -64.013675809032151 31.563700561253768 10.937024842929709 -0.62932039886446345 0 0.77714595512881146 1.1657189326932171 0 0.94398059829669512 1 I I #
face $-1 $-1 $285 $36 $-1 $405 forward single #
loop $-1 $-1 $406 $170 #
plane-surface $-1 76.891994994964449 0 0 -1 0 0 0 0 1 forward_v I I I I #
coedge $-1 $407 $408 $409 $410 reversed $171 $-1 #
coedge $-1 $411 $173 $175 $283 forward $107 $-1 #
coedge $-1 $173 $411 $407 $412 forward $107 $-1 #
coedge $-1 $409 $176 $173 $280 forward $285 $-1 #
edge $-1 $287 -7.3101924218340137 $413 8.0869179224049397 $279 $414 forward 7 unknown #
coedge $-1 $415 $416 $174 $282 forward $274 $-1 #
edge $-1 $417 -107.89182016315897 $286 -87.034505232010801 $281 $418 forward 7 unknown #
edge $-1 $287 120.64138890980689 $417 153.78398998992887 $175 $419 forward 7 unknown #
coedge $-1 $176 $409 $415 $420 forward $285 $-1 #
loop $-1 $-1 $409 $273 #
vertex $-1 $282 $421 #
vertex $-1 $177 $422 #
straight-curve $-1 27.079395565076155 6.9218296715485508 21.365682308503807 -1 0 0 I I #
coedge $-1 $289 $289 $-1 $423 reversed $180 $-1 #
edge $-1 $424 0 $424 6.2831853071796004 $181 $425 forward 7 unknown #
vertex $-1 $184 $426 #
ellipse-curve $-1 64.013675809032165 -0.77672550057092593 10.937024842929716 0.62932039886446345 0 0.77714595512881146 1.1657189326932171 0 -0.94398059829669512 1 I I #
face $-1 $-1 $305 $38 $-1 $427 forward single #
loop $-1 $-1 $428 $185 #
plane-surface $-1 76.891994994964449 0 0 -1 0 0 0 0 1 forward_v I I I I #
coedge $-1 $429 $430 $431 $432 reversed $186 $-1 #
coedge $-1 $433 $188 $190 $303 forward $116 $-1 #
coedge $-1 $188 $433 $429 $434 forward $116 $-1 #
coedge $-1 $431 $191 $188 $300 forward $305 $-1 #
edge $-1 $307 -23.480405452746361 $435 -8.0832951085074072 $299 $436 forward 7 unknown #
coedge $-1 $437 $438 $189 $302 forward $294 $-1 #
edge $-1 $439 -107.89182016315897 $306 -87.034505232010801 $301 $440 forward 7 unknown #
edge $-1 $307 120.64138890980689 $439 153.78398998992887 $190 $441 forward 7 unknown #
coedge $-1 $191 $431 $437 $442 forward $305 $-1 #
loop $-1 $-1 $431 $293 #
vertex $-1 $302 $443 #
vertex $-1 $192 $444 #
straight-curve $-1 27.079395565076155 39.262255733373244 21.365682308503807 -1 0 0 I I #
coedge $-1 $309 $309 $-1 $445 reversed $195 $-1 #
edge $-1 $446 0 $446 6.2831853071796004 $196 $447 forward 7 unknown #
vertex $-1 $199 $448 #
ellipse-curve $-1 64.013675809032165 31.563700561253768 10.937024842929716 0.62932039886446345 0 0.77714595512881146 1.1657189326932171 0 -0.94398059829669512 1 I I #
face $-1 $-1 $215 $30 $-1 $449 reversed single #
loop $-1 $-1 $329 $200 #
plane-surface $-1 0 45.297685079082527 0 0 -1 0 0 0 -1 forward_v I I I I #
coedge $-1 $450 $327 $330 $451 forward $201 $-1 #
coedge $-1 $333 $203 $204 $321 reversed $125 $-1 #
coedge $-1 $327 $450 $203 $319 reversed $201 $-1 #
edge $-1 $334 -21.365682308503803 $452 21.365682308503803 $318 $453 forward 7 unknown #
coedge $-1 $205 $204 $450 $454 forward $81 $-1 #
edge $-1 $325 -76.891994994964449 $452 76.891994994964449 $317 $455 forward 7 unknown #
coedge $-1 $330 $329 $205 $323 reversed $314 $-1 #
edge $-1 $456 -76.891994994964449 $324 76.891994994964449 $322 $457 forward 7 unknown #
vertex $-1 $207 $458 #
vertex $-1 $336 $459 #
straight-curve $-1 76.891994994964449 0 -21.365682308503803 0 -1 0 I I #
coedge $-1 $316 $318 $208 $328 reversed $201 $-1 #
edge $-1 $331 -45.297685079082527 $334 45.297685079082527 $327 $460 forward 7 unknown #
coedge $-1 $322 $209 $214 $337 forward $314 $-1 #
coedge $-1 $209 $322 $316 $451 reversed $314 $-1 #
vertex $-1 $210 $461 #
straight-curve $-1 0 45.297685079082527 21.365682308503803 -1 0 0 I I #
coedge $-1 $211 $317 $213 $336 reversed $125 $-1 #
vertex $-1 $328 $462 #
straight-curve $-1 0 -45.297685079082527 21.365682308503803 1 0 0 I I #
edge $-1 $216 -21.365682308503803 $325 21.365682308503803 $213 $463 forward 7 unknown #
edge $-1 $217 -21.365682308503803 $324 21.365682308503803 $214 $464 forward 7 unknown #
point $-1 76.891994994964449 -45.297685079082527 21.365682308503803 #
point $-1 76.891994994964449 45.297685079082527 21.365682308503803 #
face $-1 $-1 $354 $31 $-1 $465 reversed single #
loop $-1 $-1 $466 $219 #
plane-surface $-1 0 -71.212203113598179 -17.326435743469212 0 1 0 0 0 1 forward_v I I I I #
coedge $-1 $467 $222 $231 $358 reversed $133 $-1 #
coedge $-1 $222 $467 $223 $346 reversed $133 $-1 #
coedge $-1 $224 $223 $468 $469 forward $85 $-1 #
edge $-1 $350 45.297685079082527 $470 71.212203113598179 $344 $471 forward 7 unknown #
coedge $-1 $472 $228 $224 $348 reversed $354 $-1 #
edge $-1 $473 -71.212203113598179 $349 -45.297685079082527 $347 $474 forward 7 unknown #
vertex $-1 $229 $475 #
vertex $-1 $346 $476 #
straight-curve $-1 0 -45.297685079082527 -21.365682308503803 1 0 0 I I #
straight-curve $-1 76.891994994964449 -45.297685079082527 0 0 0 1 I I #
coedge $-1 $228 $472 $230 $357 reversed $354 $-1 #
loop $-1 $-1 $228 $340 #
straight-curve $-1 -76.891994994964449 -45.297685079082527 0 0 0 -1 I I #
coedge $-1 $231 $230 $477 $478 forward $220 $-1 #
edge $-1 $232 -12.957259017257826 $479 12.957259017257826 $353 $480 forward 7 unknown #
edge $-1 $481 -12.957259017257826 $233 12.957259017257826 $343 $482 forward 7 unknown #
point $-1 -76.891994994964449 -45.297685079082527 -13.28718917843462 #
point $-1 76.891994994964449 -45.297685079082527 -13.28718917843462 #
loop $-1 $-1 $243 $235 #
plane-surface $-1 -76.891994994964449 0 0 1 0 0 0 0 -1 forward_v I I I I #
coedge $-1 $364 $238 $240 $368 reversed $141 $-1 #
coedge $-1 $238 $363 $483 $484 reversed $141 $-1 #
coedge $-1 $246 $241 $238 $366 forward $236 $-1 #
edge $-1 $369 -35.700341834097728 $485 -9.9437034622331311 $365 $486 forward 7 unknown #
coedge $-1 $240 $239 $372 $487 reversed $89 $-1 #
edge $-1 $488 0 $369 33.142601080122006 $363 $489 forward 7 unknown #
vertex $-1 $242 $490 #
straight-curve $-1 -51.135356623099852 -0.38836275028546297 21.365682308503803 0 1 0 I I #
coedge $-1 $483 $243 $246 $376 reversed $361 $-1 #
coedge $-1 $243 $483 $367 $487 forward $361 $-1 #
vertex $-1 $244 $491 #
straight-curve $-1 -76.891994994964449 -8.4752806726904026 60.010486580799252 0 0 1 I I #
straight-curve $-1 -76.891994994964449 -8.4752806726904026 0.50836737735562565 -0.77714595512881146 0 -0.62932039886446345 I I #
edge $-1 $485 -6.9218296715485508 $247 8.4752806726904026 $371 $492 forward 7 unknown #
point $-1 -76.891994994964449 -8.4752806726904026 21.365682308503803 #
point $-1 -51.135356623099852 -8.4752806726904026 21.365682308503803 #
edge $-1 $493 1 $493 0 $250 $-1 forward 7 unknown #
vertex $-1 $251 $494 #
ellipse-curve $-1 -61.960063547641695 -0.77672550057092593 8.4010249528542502 -0.62932039886446345 0 0.77714595512881146 1.1657189326932171 0 0.94398059829669512 1 I I #
point $-1 -62.847956876338955 -0.77672550057092593 11.881005441226426 #
loop $-1 $-1 $262 $254 #
plane-surface $-1 -76.891994994964449 0 0 1 0 0 0 0 -1 forward_v I I I I #
coedge $-1 $386 $257 $259 $390 reversed $156 $-1 #
coedge $-1 $257 $385 $495 $496 reversed $156 $-1 #
coedge $-1 $265 $260 $257 $388 forward $255 $-1 #
edge $-1 $391 -35.700341834097728 $497 -9.9437034622331311 $387 $498 forward 7 unknown #
coedge $-1 $259 $258 $394 $499 reversed $98 $-1 #
edge $-1 $500 0 $391 33.142601080122006 $385 $501 forward 7 unknown #
vertex $-1 $261 $502 #
straight-curve $-1 -51.135356623099852 15.781850280626884 21.365682308503803 0 1 0 I I #
coedge $-1 $495 $262 $265 $398 reversed $383 $-1 #
coedge $-1 $262 $495 $389 $499 forward $383 $-1 #
vertex $-1 $263 $503 #
straight-curve $-1 -76.891994994964449 23.865145389134291 60.010486580799252 0 0 1 I I #
straight-curve $-1 -76.891994994964449 23.865145389134291 0.50836737735562565 -0.77714595512881146 0 -0.62932039886446345 I I #
edge $-1 $497 -39.262255733373244 $266 -23.865145389134291 $393 $504 forward 7 unknown #
point $-1 -76.891994994964449 23.865145389134291 21.365682308503803 #
point $-1 -51.135356623099852 23.865145389134291 21.365682308503803 #
edge $-1 $505 1 $505 0 $269 $-1 forward 7 unknown #
vertex $-1 $270 $506 #
ellipse-curve $-1 -61.960063547641695 31.563700561253768 8.4010249528542502 -0.62932039886446345 0 0.77714595512881146 1.1657189326932171 0 0.94398059829669512 1 I I #
point $-1 -62.847956876338955 31.563700561253768 11.881005441226426 #
plane-surface $-1 0 0 21.365682308503803 0 0 1 1 0 0 forward_v I I I I #
coedge $-1 $416 $415 $408 $507 forward $274 $-1 #
coedge $-1 $408 $276 $278 $412 reversed $171 $-1 #
coedge $-1 $276 $407 $406 $507 reversed $171 $-1 #
coedge $-1 $284 $279 $276 $410 forward $285 $-1 #
edge $-1 $413 24.055961058023726 $508 49.812599429888294 $409 $509 forward 7 unknown #
coedge $-1 $278 $277 $416 $510 reversed $107 $-1 #
edge $-1 $511 -153.78398998992887 $413 -120.64138890980689 $407 $512 forward 7 unknown #
vertex $-1 $280 $513 #
straight-curve $-1 51.135356623099874 -0.38836275028546297 21.3656823085038 0 -1 0 I I #
coedge $-1 $406 $281 $284 $420 reversed $274 $-1 #
coedge $-1 $281 $406 $411 $510 forward $274 $-1 #
vertex $-1 $282 $514 #
straight-curve $-1 76.891994994964449 6.9218296715485508 108.40018754051461 0 0 1 I I #
straight-curve $-1 -42.620610789278402 6.9218296715485508 97.287769296786337 0.77714595512881146 0 -0.62932039886446345 I I #
edge $-1 $508 -8.4752806726904026 $286 6.9218296715485508 $415 $515 forward 7 unknown #
point $-1 76.891994994964449 6.9218296715485508 21.365682308503803 #
point $-1 51.135356623099881 6.9218296715485508 21.365682308503807 #
edge $-1 $516 1 $516 0 $289 $-1 forward 7 unknown #
vertex $-1 $290 $517 #
ellipse-curve $-1 61.960063547641695 -0.77672550057092593 8.4010249528542502 0.62932039886446345 0 0.77714595512881146 1.1657189326932171 0 -0.94398059829669512 1 I I #
point $-1 65.179394741725389 -0.77672550057092593 9.9930442446330368 #
plane-surface $-1 0 0 21.365682308503803 0 0 1 1 0 0 forward_v I I I I #
coedge $-1 $438 $437 $430 $518 forward $294 $-1 #
coedge $-1 $430 $296 $298 $434 reversed $186 $-1 #
coedge $-1 $296 $429 $428 $518 reversed $186 $-1 #
coedge $-1 $304 $299 $296 $432 forward $305 $-1 #
edge $-1 $435 24.055961058023726 $519 49.812599429888294 $431 $520 forward 7 unknown #
coedge $-1 $298 $297 $438 $521 reversed $116 $-1 #
edge $-1 $522 -153.78398998992887 $435 -120.64138890980689 $429 $523 forward 7 unknown #
vertex $-1 $300 $524 #
straight-curve $-1 51.135356623099874 15.781850280626884 21.3656823085038 0 -1 0 I I #
coedge $-1 $428 $301 $304 $442 reversed $294 $-1 #
coedge $-1 $301 $428 $433 $521 forward $294 $-1 #
vertex $-1 $302 $525 #
straight-curve $-1 76.891994994964449 39.262255733373244 108.40018754051461 0 0 1 I I #
straight-curve $-1 -42.620610789278402 39.262255733373244 97.287769296786337 0.77714595512881146 0 -0.62932039886446345 I I #
edge $-1 $519 23.865145389134291 $306 39.262255733373244 $437 $526 forward 7 unknown #
point $-1 76.891994994964449 39.262255733373244 21.365682308503803 #
point $-1 51.135356623099881 39.262255733373244 21.365682308503807 #
edge $-1 $527 1 $527 0 $309 $-1 forward 7 unknown #
vertex $-1 $310 $528 #
ellipse-curve $-1 61.960063547641695 31.563700561253768 8.4010249528542502 0.62932039886446345 0 0.77714595512881146 1.1657189326932171 0 -0.94398059829669512 1 I I #
point $-1 65.179394741725389 31.563700561253768 9.9930442446330368 #
plane-surface $-1 76.891994994964449 0 0 -1 0 0 0 0 1 forward_v I I I I #
coedge $-1 $318 $316 $320 $454 reversed $201 $-1 #
edge $-1 $331 -21.365682308503803 $456 21.365682308503803 $330 $529 forward 7 unknown #
vertex $-1 $454 $530 #
straight-curve $-1 -76.891994994964449 -45.297685079082527 0 0 0 -1 I I #
edge $-1 $452 -45.297685079082527 $456 45.297685079082527 $450 $531 forward 7 unknown #
straight-curve $-1 0 -45.297685079082527 -21.365682308503803 -1 0 0 I I #
vertex $-1 $323 $532 #
straight-curve $-1 0 45.297685079082527 -21.365682308503803 1 0 0 I I #
point $-1 76.891994994964449 45.297685079082527 -21.365682308503803 #
point $-1 76.891994994964449 -45.297685079082527 -21.365682308503803 #
straight-curve $-1 -76.891994994964449 0 21.365682308503803 0 -1 0 I I #
point $-1 -76.891994994964449 45.297685079082527 21.365682308503803 #
point $-1 -76.891994994964449 -45.297685079082527 21.365682308503803 #
straight-curve $-1 76.891994994964449 -45.297685079082527 0 0 0 -1 I I #
straight-curve $-1 76.891994994964449 45.297685079082527 0 0 0 -1 I I #
plane-surface $-1 -76.891994994964449 0 0 1 0 0 0 0 -1 forward_v I I I I #
coedge $-1 $468 $477 $472 $533 forward $341 $-1 #
coedge $-1 $344 $343 $534 $535 forward $133 $-1 #
coedge $-1 $534 $466 $345 $469 reversed $341 $-1 #
edge $-1 $470 -76.891994994964449 $473 76.891994994964449 $468 $536 forward 7 unknown #
vertex $-1 $535 $537 #
straight-curve $-1 76.891994994964449 0 -21.365682308503803 0 -1 0 I I #
coedge $-1 $353 $347 $466 $533 reversed $354 $-1 #
vertex $-1 $348 $538 #
straight-curve $-1 -76.891994994964449 0 -21.365682308503803 0 1 0 I I #
point $-1 -76.891994994964449 -45.297685079082527 -21.365682308503803 #
point $-1 76.891994994964449 -45.297685079082527 -21.365682308503803 #
coedge $-1 $466 $534 $356 $478 reversed $341 $-1 #
edge $-1 $479 -76.891994994964449 $481 76.891994994964449 $477 $539 forward 7 unknown #
vertex $-1 $357 $540 #
straight-curve $-1 -76.891994994964449 -58.254944096340353 -13.28718917843462 0 -1 0 I I #
vertex $-1 $358 $541 #
straight-curve $-1 76.891994994964449 -58.254944096340353 -13.28718917843462 0 1 0 I I #
coedge $-1 $372 $371 $364 $484 forward $361 $-1 #
edge $-1 $485 38.644804272295445 $488 59.502119203443627 $483 $542 forward 7 unknown #
vertex $-1 $376 $543 #
straight-curve $-1 -86.83569845719758 6.9218296715485508 21.365682308503807 -1 0 0 I I #
edge $-1 $488 -7.3101924218340137 $373 8.0869179224049397 $372 $544 forward 7 unknown #
vertex $-1 $487 $545 #
straight-curve $-1 -76.891994994964449 6.9218296715485508 0.50836737735562565 0.77714595512881146 0 0.62932039886446345 I I #
point $-1 -51.135356623099852 6.9218296715485508 21.365682308503803 #
point $-1 -76.891994994964449 -8.4752806726904026 0.50836737735562565 #
straight-curve $-1 -76.891994994964449 0 21.365682308503803 0 -1 0 I I #
vertex $-1 $379 $546 #
point $-1 -60.794344614948479 -0.77672550057092593 9.3450055511509458 #
coedge $-1 $394 $393 $386 $496 forward $383 $-1 #
edge $-1 $497 38.644804272295445 $500 59.502119203443627 $495 $547 forward 7 unknown #
vertex $-1 $398 $548 #
straight-curve $-1 -86.83569845719758 39.262255733373244 21.365682308503807 -1 0 0 I I #
edge $-1 $500 -23.480405452746361 $395 -8.0832951085074072 $394 $549 forward 7 unknown #
vertex $-1 $499 $550 #
straight-curve $-1 -76.891994994964449 39.262255733373244 0.50836737735562565 0.77714595512881146 0 0.62932039886446345 I I #
point $-1 -51.135356623099852 39.262255733373244 21.365682308503803 #
point $-1 -76.891994994964449 23.865145389134291 0.50836737735562565 #
straight-curve $-1 -76.891994994964449 0 21.365682308503803 0 -1 0 I I #
vertex $-1 $401 $551 #
point $-1 -60.794344614948479 31.563700561253768 9.3450055511509458 #
edge $-1 $508 87.034505232010801 $511 107.89182016315897 $406 $552 forward 7 unknown #
vertex $-1 $420 $553 #
straight-curve $-1 27.079395565076155 -8.4752806726904026 21.365682308503807 1 0 0 I I #
edge $-1 $511 -8.0869179224049397 $417 7.3101924218340137 $416 $554 forward 7 unknown #
vertex $-1 $510 $555 #
straight-curve $-1 -42.620610789278402 -8.4752806726904026 97.287769296786337 -0.77714595512881146 0 0.62932039886446345 I I #
point $-1 51.135356623099881 -8.4752806726904026 21.365682308503807 #
point $-1 76.891994994964449 6.9218296715485508 0.50836737735563986 #
straight-curve $-1 76.891994994964449 0 21.365682308503803 0 1 0 I I #
vertex $-1 $423 $556 #
point $-1 63.125782480334912 -0.77672550057092593 7.4570443545575555 #
edge $-1 $519 87.034505232010801 $522 107.89182016315897 $428 $557 forward 7 unknown #
vertex $-1 $442 $558 #
straight-curve $-1 27.079395565076155 23.865145389134291 21.365682308503807 1 0 0 I I #
edge $-1 $522 8.0832951085074072 $439 23.480405452746361 $438 $559 forward 7 unknown #
vertex $-1 $521 $560 #
straight-curve $-1 -42.620610789278402 23.865145389134291 97.287769296786337 -0.77714595512881146 0 0.62932039886446345 I I #
point $-1 51.135356623099881 23.865145389134291 21.365682308503807 #
point $-1 76.891994994964449 39.262255733373244 0.50836737735563986 #
straight-curve $-1 76.891994994964449 0 21.365682308503803 0 1 0 I I #
vertex $-1 $445 $561 #
point $-1 63.125782480334912 31.563700561253768 7.4570443545575555 #
straight-curve $-1 -76.891994994964449 45.297685079082527 0 0 0 -1 I I #
point $-1 -76.891994994964449 -45.297685079082527 -21.365682308503803 #
straight-curve $-1 -76.891994994964449 0 -21.365682308503803 0 1 0 I I #
point $-1 -76.891994994964449 45.297685079082527 -21.365682308503803 #
edge $-1 $479 -4.0392465650345919 $473 4.0392465650345919 $472 $562 forward 7 unknown #
coedge $-1 $477 $468 $467 $535 reversed $341 $-1 #
edge $-1 $481 -4.0392465650345919 $470 4.0392465650345919 $467 $563 forward 7 unknown #
straight-curve $-1 0 -71.212203113598179 -21.365682308503803 -1 0 0 I I #
point $-1 76.891994994964449 -71.212203113598179 -21.365682308503803 #
point $-1 -76.891994994964449 -71.212203113598179 -21.365682308503803 #
straight-curve $-1 0 -71.212203113598179 -13.28718917843462 1 0 0 I I #
point $-1 -76.891994994964449 -71.212203113598179 -13.28718917843462 #
point $-1 76.891994994964449 -71.212203113598179 -13.28718917843462 #
straight-curve $-1 -76.891994994964449 6.9218296715485508 60.010486580799252 0 0 -1 I I #
point $-1 -76.891994994964449 6.9218296715485508 21.365682308503803 #
straight-curve $-1 -76.891994994964449 -0.38836275028546297 0.50836737735563009 0 -1 0 I I #
point $-1 -76.891994994964449 6.9218296715485508 0.50836737735562565 #
point $-1 -61.016082949345005 -0.77672550057092593 7.2353060201610333 #
straight-curve $-1 -76.891994994964449 39.262255733373244 60.010486580799252 0 0 -1 I I #
point $-1 -76.891994994964449 39.262255733373244 21.365682308503803 #
straight-curve $-1 -76.891994994964449 15.781850280626884 0.50836737735563009 0 -1 0 I I #
point $-1 -76.891994994964449 39.262255733373244 0.50836737735562565 #
point $-1 -61.016082949345005 31.563700561253768 7.2353060201610333 #
straight-curve $-1 76.891994994964449 -8.4752806726904026 108.40018754051461 0 0 -1 I I #
point $-1 76.891994994964449 -8.4752806726904026 21.365682308503803 #
straight-curve $-1 76.891994994964449 -0.38836275028546297 0.50836737735564697 0 1 0 I I #
point $-1 76.891994994964449 -8.4752806726904026 0.50836737735563986 #
point $-1 61.016082949345005 -0.77672550057092593 7.2353060201610333 #
straight-curve $-1 76.891994994964449 23.865145389134291 108.40018754051461 0 0 -1 I I #
point $-1 76.891994994964449 23.865145389134291 21.365682308503803 #
straight-curve $-1 76.891994994964449 15.781850280626884 0.50836737735564697 0 1 0 I I #
point $-1 76.891994994964449 23.865145389134291 0.50836737735563986 #
point $-1 61.016082949345005 31.563700561253768 7.2353060201610333 #
straight-curve $-1 -76.891994994964449 -71.212203113598179 -17.326435743469212 0 0 -1 I I #
straight-curve $-1 76.891994994964449 -71.212203113598179 -17.326435743469212 0 0 -1 I I #
End-of-ACIS-data 