500 0 12 0           
7 Unknown 11 ACIS 5.0 NT 24 Thu Mar 25 22:54:02 1999 
-1 9.9999999999999995e-007 1e-010 
body $-1 $12 $-1 $13 #
body $-1 $14 $-1 $15 #
body $-1 $16 $-1 $17 #
body $-1 $18 $-1 $19 #
body $-1 $20 $-1 $21 #
body $-1 $22 $-1 $23 #
body $-1 $24 $-1 $25 #
body $-1 $26 $-1 $27 #
body $-1 $28 $-1 $29 #
body $-1 $30 $-1 $31 #
body $-1 $32 $-1 $33 #
body $-1 $34 $-1 $35 #
lump $-1 $-1 $36 $0 #
transform $-1 1 0 0 0 1 0 0 0 1 43.139744254890594 25.270197613537878 5.563037307824767 1 rotate no_reflect no_shear #
lump $-1 $-1 $37 $1 #
transform $-1 1 0 0 0 1 0 0 0 1 43.139744254890594 25.270197613537878 5.563037307824767 1 rotate no_reflect no_shear #
lump $-1 $-1 $38 $2 #
transform $-1 1 0 0 0 1 0 0 0 1 43.139744254890594 25.270197613537878 5.563037307824767 1 rotate no_reflect no_shear #
lump $-1 $-1 $39 $3 #
transform $-1 1 0 0 0 1 0 0 0 1 43.139744254890594 25.270197613537878 5.563037307824767 1 rotate no_reflect no_shear #
lump $-1 $-1 $40 $4 #
transform $-1 1 0 0 0 1 0 0 0 1 43.139744254890594 25.270197613537878 5.563037307824767 1 rotate no_reflect no_shear #
lump $-1 $-1 $41 $5 #
transform $-1 1 0 0 0 1 0 0 0 1 43.139744254890594 25.270197613537878 5.563037307824767 1 rotate no_reflect no_shear #
lump $-1 $-1 $42 $6 #
transform $-1 1 0 0 0 1 0 0 0 1 43.139744254890594 25.270197613537878 5.563037307824767 1 rotate no_reflect no_shear #
lump $-1 $-1 $43 $7 #
transform $-1 1 0 0 0 1 0 0 0 1 43.139744254890594 25.270197613537878 5.563037307824767 1 rotate no_reflect no_shear #
lump $-1 $-1 $44 $8 #
transform $-1 1 0 0 0 1 0 0 0 1 43.139744254890594 25.270197613537878 5.563037307824767 1 rotate no_reflect no_shear #
lump $-1 $-1 $45 $9 #
transform $-1 1 0 0 0 1 0 0 0 1 43.139744254890594 25.270197613537878 5.563037307824767 1 rotate no_reflect no_shear #
lump $-1 $-1 $46 $10 #
transform $-1 1 0 0 0 1 0 0 0 1 43.139744254890594 25.270197613537878 5.563037307824767 1 rotate no_reflect no_shear #
lump $-1 $-1 $47 $11 #
transform $-1 1 0 0 0 1 0 0 0 1 43.139744254890594 25.270197613537878 5.563037307824767 1 rotate no_reflect no_shear #
shell $-1 $-1 $-1 $48 $-1 $12 #
shell $-1 $-1 $-1 $49 $-1 $14 #
shell $-1 $-1 $-1 $50 $-1 $16 #
shell $-1 $-1 $-1 $51 $-1 $18 #
shell $-1 $-1 $-1 $52 $-1 $20 #
shell $-1 $-1 $-1 $53 $-1 $22 #
shell $-1 $-1 $-1 $54 $-1 $24 #
shell $-1 $-1 $-1 $55 $-1 $26 #
shell $-1 $-1 $-1 $56 $-1 $28 #
shell $-1 $-1 $-1 $57 $-1 $30 #
shell $-1 $-1 $-1 $58 $-1 $32 #
shell $-1 $-1 $-1 $59 $-1 $34 #
face $-1 $60 $61 $36 $-1 $62 forward single #
face $-1 $63 $64 $37 $-1 $65 forward single #
face $-1 $66 $67 $38 $-1 $68 reversed single #
face $-1 $69 $70 $39 $-1 $71 forward single #
face $-1 $72 $73 $40 $-1 $74 forward single #
face $-1 $75 $76 $41 $-1 $77 reversed single #
face $-1 $78 $79 $42 $-1 $80 forward single #
face $-1 $81 $82 $43 $-1 $83 forward single #
face $-1 $84 $85 $44 $-1 $86 reversed single #
face $-1 $87 $88 $45 $-1 $89 forward single #
face $-1 $90 $91 $46 $-1 $92 reversed single #
face $-1 $93 $94 $47 $-1 $95 forward single #
face $-1 $96 $97 $36 $-1 $98 reversed single #
loop $-1 $-1 $99 $48 #
plane-surface $-1 0 0 5.563037307824767 0 0 1 1 0 0 forward_v I I I I #
face $-1 $100 $101 $37 $-1 $102 reversed single #
loop $-1 $-1 $103 $49 #
plane-surface $-1 0 -22.235944200327413 -2.563037307824767 0 0 1 1 0 0 forward_v I I I I #
face $-1 $104 $105 $38 $-1 $106 reversed single #
loop $-1 $-1 $107 $50 #
plane-surface $-1 -111.12890972847251 -11.451106738730076 54.109222466833501 0 1 0 -0.78801076186113728 0 0.61566146476048833 forward_v I I I I #
face $-1 $108 $109 $39 $-1 $110 forward single #
loop $-1 $111 $112 $51 #
cone-surface $-1 -39.801896426340541 -8.5223544423530129 2.0644654884952107 0.78801076186113728 0 -0.61566146476048833 0.61566146476048833 0 0.78801076186113728 1 I I 0 1 1 forward I I I I #
face $-1 $113 $114 $40 $-1 $115 forward single #
loop $-1 $116 $117 $52 #
cone-surface $-1 -39.801896426340541 -4.1292259977874188 2.0644654884952107 0.78801076186113728 0 -0.61566146476048833 0.61566146476048833 0 0.78801076186113728 1 I I 0 1 1 forward I I I I #
face $-1 $118 $119 $41 $-1 $120 reversed single #
loop $-1 $-1 $121 $53 #
plane-surface $-1 -111.12890972847251 7.2689805278312924 54.109222466833501 0 1 0 -0.78801076186113728 0 0.61566146476048833 forward_v I I I I #
face $-1 $122 $123 $42 $-1 $124 forward single #
loop $-1 $125 $126 $54 #
cone-surface $-1 -39.801896426340541 10.197732824208355 2.0644654884952107 0.78801076186113728 0 -0.61566146476048833 0.61566146476048833 0 0.78801076186113728 1 I I 0 1 1 forward I I I I #
face $-1 $127 $128 $43 $-1 $129 forward single #
loop $-1 $130 $131 $55 #
cone-surface $-1 -39.801896426340541 14.590861268773946 2.0644654884952107 0.78801076186113728 0 -0.61566146476048833 0.61566146476048833 0 0.78801076186113728 1 I I 0 1 1 forward I I I I #
face $-1 $132 $133 $44 $-1 $134 reversed single #
loop $-1 $-1 $135 $56 #
plane-surface $-1 43.139745670606381 -9.1224098600674957 123.09627768581586 0 -1 0 -0.70710678939079041 0 -0.70710677298230451 forward_v I I I I #
face $-1 $136 $137 $45 $-1 $138 forward single #
loop $-1 $139 $140 $57 #
cone-surface $-1 39.839773818598367 -12.228542922052457 2.2630668440481312 -0.70710678939079041 0 -0.70710677298230451 1.0606601594734568 0 -1.0606601840861856 1 I I 0 1 1.5 forward I I I I #
face $-1 $141 $142 $46 $-1 $143 reversed single #
loop $-1 $-1 $144 $58 #
plane-surface $-1 43.139745670606381 21.403182810458347 123.09627768581586 0 -1 0 -0.70710678939079041 0 -0.70710677298230451 forward_v I I I I #
face $-1 $145 $146 $47 $-1 $147 forward single #
loop $-1 $148 $149 $59 #
cone-surface $-1 39.839773818598367 18.297049748473388 2.2630668440481312 -0.70710678939079041 0 -0.70710677298230451 1.0606601594734568 0 -1.0606601840861856 1 I I 0 1 1.5 forward I I I I #
face $-1 $150 $151 $36 $-1 $152 reversed single #
loop $-1 $-1 $153 $60 #
plane-surface $-1 0 0 -5.563037307824767 0 0 1 1 0 0 forward_v I I I I #
coedge $-1 $154 $155 $156 $157 forward $61 $-1 #
face $-1 $158 $159 $37 $-1 $160 reversed single #
loop $-1 $-1 $161 $63 #
plane-surface $-1 0 -19.201690787116949 -4.063037307824767 0 -1 0 0 0 -1 forward_v I I I I #
coedge $-1 $162 $163 $164 $165 reversed $64 $-1 #
face $-1 $166 $167 $38 $-1 $168 reversed single #
loop $-1 $-1 $169 $66 #
plane-surface $-1 -43.139744254890587 -6.3257902200702176 0.99026619211588951 -0.78801076186113728 0 0.61566146476048833 0.61566146476048833 0 0.78801076186113728 forward_v I I I I #
coedge $-1 $170 $171 $172 $173 reversed $67 $-1 #
face $-1 $-1 $174 $39 $-1 $175 forward single #
loop $-1 $176 $177 $69 #
cone-surface $-1 -37.85636334049795 -8.5223544423530129 0.54444849463984557 0.78801076186113728 0 -0.61566146476048833 0.30783073238024417 0 0.39400538093056864 1 I I -0.70710678118654746 0.70710678118654746 0.5 forward I I I I #
loop $-1 $-1 $178 $51 #
coedge $-1 $112 $112 $179 $180 reversed $70 $-1 #
face $-1 $-1 $181 $40 $-1 $182 forward single #
loop $-1 $183 $184 $72 #
cone-surface $-1 -37.85636334049795 -4.1292259977874188 0.54444849463984557 0.78801076186113728 0 -0.61566146476048833 0.30783073238024417 0 0.39400538093056864 1 I I -0.70710678118654746 0.70710678118654746 0.5 forward I I I I #
loop $-1 $-1 $185 $52 #
coedge $-1 $117 $117 $186 $187 reversed $73 $-1 #
face $-1 $188 $189 $41 $-1 $190 reversed single #
loop $-1 $-1 $191 $75 #
plane-surface $-1 -43.139744254890587 12.39429704649115 0.99026619211588951 -0.78801076186113728 0 0.61566146476048833 0.61566146476048833 0 0.78801076186113728 forward_v I I I I #
coedge $-1 $192 $193 $194 $195 reversed $76 $-1 #
face $-1 $-1 $196 $42 $-1 $197 forward single #
loop $-1 $198 $199 $78 #
cone-surface $-1 -37.85636334049795 10.197732824208355 0.54444849463984557 0.78801076186113728 0 -0.61566146476048833 0.30783073238024417 0 0.39400538093056864 1 I I -0.70710678118654746 0.70710678118654746 0.5 forward I I I I #
loop $-1 $-1 $200 $54 #
coedge $-1 $126 $126 $201 $202 reversed $79 $-1 #
face $-1 $-1 $203 $43 $-1 $204 forward single #
loop $-1 $205 $206 $81 #
cone-surface $-1 -37.85636334049795 14.590861268773946 0.54444849463984557 0.78801076186113728 0 -0.61566146476048833 0.30783073238024417 0 0.39400538093056864 1 I I -0.70710678118654746 0.70710678118654746 0.5 forward I I I I #
loop $-1 $-1 $207 $55 #
coedge $-1 $131 $131 $208 $209 reversed $82 $-1 #
face $-1 $210 $211 $44 $-1 $212 reversed single #
loop $-1 $-1 $213 $84 #
plane-surface $-1 -17.869066439824586 -12.228542922052457 62.087466991100669 0.70710678939079041 0 0.70710677298230451 0.70710677298230451 0 -0.70710678939079041 forward_v I I I I #
coedge $-1 $214 $215 $216 $217 reversed $85 $-1 #
face $-1 $-1 $218 $45 $-1 $219 forward single #
loop $-1 $220 $221 $87 #
cone-surface $-1 38.251664451810306 -12.228542922052457 0.67495751411231186 -0.70710678939079041 0 -0.70710677298230451 0.53033007973672841 0 -0.53033009204309278 1 I I -0.70710678118654757 0.70710678118654757 0.75 forward I I I I #
loop $-1 $-1 $222 $57 #
coedge $-1 $140 $140 $223 $224 reversed $88 $-1 #
face $-1 $225 $226 $46 $-1 $227 reversed single #
loop $-1 $-1 $228 $90 #
plane-surface $-1 -17.869066439824586 18.297049748473388 62.087466991100669 0.70710678939079041 0 0.70710677298230451 0.70710677298230451 0 -0.70710678939079041 forward_v I I I I #
coedge $-1 $229 $230 $231 $232 reversed $91 $-1 #
face $-1 $-1 $233 $47 $-1 $234 forward single #
loop $-1 $235 $236 $93 #
cone-surface $-1 38.251664451810306 18.297049748473388 0.67495751411231186 -0.70710678939079041 0 -0.70710677298230451 0.53033007973672841 0 -0.53033009204309278 1 I I -0.70710678118654757 0.70710678118654757 0.75 forward I I I I #
loop $-1 $-1 $237 $59 #
coedge $-1 $149 $149 $238 $239 reversed $94 $-1 #
face $-1 $240 $241 $36 $-1 $242 reversed single #
loop $-1 $-1 $243 $96 #
plane-surface $-1 0 -25.270197613537878 0 0 1 0 0 0 1 forward_v I I I I #
coedge $-1 $244 $245 $246 $247 forward $97 $-1 #
coedge $-1 $248 $99 $249 $250 forward $61 $-1 #
coedge $-1 $99 $248 $251 $252 forward $61 $-1 #
coedge $-1 $253 $254 $99 $157 reversed $255 $-1 #
edge $-1 $256 -25.270197613537878 $257 25.270197613537878 $156 $258 forward 7 unknown #
face $-1 $259 $260 $37 $-1 $261 reversed single #
loop $-1 $-1 $262 $100 #
plane-surface $-1 0 0 -5.563037307824767 0 0 1 1 0 0 forward_v I I I I #
coedge $-1 $263 $264 $265 $266 reversed $101 $-1 #
coedge $-1 $267 $103 $264 $268 forward $64 $-1 #
coedge $-1 $103 $267 $269 $270 reversed $64 $-1 #
coedge $-1 $271 $265 $103 $165 forward $260 $-1 #
edge $-1 $272 8.083718686953242 $273 14.152225513374171 $164 $274 forward 7 unknown #
face $-1 $275 $276 $38 $-1 $277 forward single #
loop $-1 $-1 $278 $104 #
plane-surface $-1 -111.12890972847251 -1.2004737014103597 54.109222466833501 0 -1 0 0.78801076186113728 0 -0.61566146476048833 forward_v I I I I #
coedge $-1 $279 $280 $281 $282 reversed $105 $-1 #
coedge $-1 $171 $107 $283 $284 reversed $67 $-1 #
coedge $-1 $107 $170 $279 $285 reversed $67 $-1 #
coedge $-1 $281 $286 $107 $173 forward $276 $-1 #
edge $-1 $287 12.424710609345659 $288 15.997350856621736 $172 $289 forward 7 unknown #
loop $-1 $-1 $179 $108 #
plane-surface $-1 -43.139744254890587 -6.3257902200702176 0.99026619211588951 -0.78801076186113728 0 0.61566146476048833 0.61566146476048833 0 0.78801076186113728 forward_v I I I I #
loop $-1 $-1 $290 $69 #
coedge $-1 $177 $177 $178 $291 reversed $109 $-1 #
coedge $-1 $178 $178 $177 $291 forward $111 $-1 #
coedge $-1 $179 $179 $112 $180 forward $174 $-1 #
edge $-1 $292 0 $292 6.2831853071796004 $179 $293 forward 7 unknown #
loop $-1 $-1 $186 $113 #
plane-surface $-1 -43.139744254890587 -6.3257902200702176 0.99026619211588951 -0.78801076186113728 0 0.61566146476048833 0.61566146476048833 0 0.78801076186113728 forward_v I I I I #
loop $-1 $-1 $294 $72 #
coedge $-1 $184 $184 $185 $295 reversed $114 $-1 #
coedge $-1 $185 $185 $184 $295 forward $116 $-1 #
coedge $-1 $186 $186 $117 $187 forward $181 $-1 #
edge $-1 $296 0 $296 6.2831853071796004 $186 $297 forward 7 unknown #
face $-1 $298 $299 $41 $-1 $300 forward single #
loop $-1 $-1 $301 $118 #
plane-surface $-1 -111.12890972847251 17.519613565151008 54.109222466833501 0 -1 0 0.78801076186113728 0 -0.61566146476048833 forward_v I I I I #
coedge $-1 $302 $303 $304 $305 reversed $119 $-1 #
coedge $-1 $193 $121 $306 $307 reversed $76 $-1 #
coedge $-1 $121 $192 $302 $308 reversed $76 $-1 #
coedge $-1 $304 $309 $121 $195 forward $299 $-1 #
edge $-1 $310 12.424710609345659 $311 15.997350856621736 $194 $312 forward 7 unknown #
loop $-1 $-1 $201 $122 #
plane-surface $-1 -43.139744254890587 12.39429704649115 0.99026619211588951 -0.78801076186113728 0 0.61566146476048833 0.61566146476048833 0 0.78801076186113728 forward_v I I I I #
loop $-1 $-1 $313 $78 #
coedge $-1 $199 $199 $200 $314 reversed $123 $-1 #
coedge $-1 $200 $200 $199 $314 forward $125 $-1 #
coedge $-1 $201 $201 $126 $202 forward $196 $-1 #
edge $-1 $315 0 $315 6.2831853071796004 $201 $316 forward 7 unknown #
loop $-1 $-1 $208 $127 #
plane-surface $-1 -43.139744254890587 12.39429704649115 0.99026619211588951 -0.78801076186113728 0 0.61566146476048833 0.61566146476048833 0 0.78801076186113728 forward_v I I I I #
loop $-1 $-1 $317 $81 #
coedge $-1 $206 $206 $207 $318 reversed $128 $-1 #
coedge $-1 $207 $207 $206 $318 forward $130 $-1 #
coedge $-1 $208 $208 $131 $209 forward $203 $-1 #
edge $-1 $319 0 $319 6.2831853071796004 $208 $320 forward 7 unknown #
face $-1 $321 $322 $44 $-1 $323 reversed single #
loop $-1 $-1 $324 $132 #
plane-surface $-1 43.139745670606381 -15.334675984037418 123.09627768581586 0 1 0 0.70710678939079041 0 0.70710677298230451 forward_v I I I I #
coedge $-1 $325 $326 $327 $328 reversed $133 $-1 #
coedge $-1 $215 $135 $329 $330 reversed $85 $-1 #
coedge $-1 $135 $214 $325 $331 reversed $85 $-1 #
coedge $-1 $327 $332 $135 $217 forward $333 $-1 #
edge $-1 $334 -21.569871419587404 $335 -17.08548909649291 $216 $336 forward 7 unknown #
loop $-1 $-1 $223 $136 #
plane-surface $-1 -17.869066439824586 -12.228542922052457 62.087466991100669 0.70710678939079041 0 0.70710677298230451 0.70710677298230451 0 -0.70710678939079041 forward_v I I I I #
loop $-1 $-1 $337 $87 #
coedge $-1 $221 $221 $222 $338 reversed $137 $-1 #
coedge $-1 $222 $222 $221 $338 forward $139 $-1 #
coedge $-1 $223 $223 $140 $224 forward $218 $-1 #
edge $-1 $339 0 $339 6.2831853071796004 $223 $340 forward 7 unknown #
face $-1 $341 $342 $46 $-1 $343 reversed single #
loop $-1 $-1 $344 $141 #
plane-surface $-1 43.139745670606381 15.190916686488427 123.09627768581586 0 1 0 0.70710678939079041 0 0.70710677298230451 forward_v I I I I #
coedge $-1 $345 $346 $347 $348 reversed $142 $-1 #
coedge $-1 $230 $144 $349 $350 reversed $91 $-1 #
coedge $-1 $144 $229 $345 $351 reversed $91 $-1 #
coedge $-1 $347 $352 $144 $232 forward $353 $-1 #
edge $-1 $354 -21.569871419587404 $355 -17.08548909649291 $231 $356 forward 7 unknown #
loop $-1 $-1 $238 $145 #
plane-surface $-1 -17.869066439824586 18.297049748473388 62.087466991100669 0.70710678939079041 0 0.70710677298230451 0.70710677298230451 0 -0.70710678939079041 forward_v I I I I #
loop $-1 $-1 $357 $93 #
coedge $-1 $236 $236 $237 $358 reversed $146 $-1 #
coedge $-1 $237 $237 $236 $358 forward $148 $-1 #
coedge $-1 $238 $238 $149 $239 forward $233 $-1 #
edge $-1 $359 0 $359 6.2831853071796004 $238 $360 forward 7 unknown #
face $-1 $361 $362 $36 $-1 $363 reversed single #
loop $-1 $-1 $364 $150 #
plane-surface $-1 -43.139744254890594 0 0 1 0 0 0 0 -1 forward_v I I I I #
coedge $-1 $365 $251 $366 $367 forward $151 $-1 #
coedge $-1 $368 $153 $365 $369 forward $97 $-1 #
coedge $-1 $153 $368 $370 $371 forward $97 $-1 #
coedge $-1 $254 $253 $153 $247 reversed $255 $-1 #
edge $-1 $372 -25.270197613537878 $373 25.270197613537878 $246 $374 forward 7 unknown #
coedge $-1 $155 $154 $375 $376 forward $61 $-1 #
coedge $-1 $377 $378 $154 $250 reversed $362 $-1 #
edge $-1 $257 -43.139744254890594 $379 43.139744254890594 $249 $380 forward 7 unknown #
coedge $-1 $243 $381 $155 $252 reversed $151 $-1 #
edge $-1 $382 -43.139744254890594 $256 43.139744254890594 $251 $383 forward 7 unknown #
coedge $-1 $246 $156 $381 $384 forward $255 $-1 #
coedge $-1 $156 $246 $377 $385 reversed $255 $-1 #
loop $-1 $-1 $253 $361 #
vertex $-1 $157 $386 #
vertex $-1 $157 $387 #
straight-curve $-1 43.139744254890594 0 5.563037307824767 0 1 0 I I #
face $-1 $388 $389 $37 $-1 $390 reversed single #
loop $-1 $-1 $265 $158 #
plane-surface $-1 43.139744254890594 0 0 -1 0 0 0 0 1 forward_v I I I I #
coedge $-1 $391 $392 $263 $393 forward $159 $-1 #
coedge $-1 $394 $161 $262 $393 reversed $101 $-1 #
coedge $-1 $161 $394 $162 $268 reversed $101 $-1 #
coedge $-1 $164 $395 $161 $266 forward $260 $-1 #
edge $-1 $396 -3.5315186539123835 $272 -0.53151865391238351 $265 $397 forward 7 unknown #
coedge $-1 $163 $162 $398 $399 reversed $64 $-1 #
edge $-1 $272 -43.139744254890594 $400 43.139744254890594 $264 $401 forward 7 unknown #
coedge $-1 $402 $403 $163 $270 forward $389 $-1 #
edge $-1 $273 -43.139744254890594 $404 43.139744254890594 $269 $405 forward 7 unknown #
coedge $-1 $395 $164 $403 $406 forward $260 $-1 #
vertex $-1 $165 $407 #
vertex $-1 $406 $408 #
straight-curve $-1 43.139744254890594 -11.117972100163707 -2.563037307824767 0 -1 0 I I #
face $-1 $-1 $409 $38 $-1 $410 reversed single #
loop $-1 $-1 $172 $166 #
plane-surface $-1 0 0 5.563037307824767 0 0 1 1 0 0 forward_v I I I I #
coedge $-1 $411 $412 $413 $414 reversed $167 $-1 #
coedge $-1 $415 $169 $171 $285 forward $105 $-1 #
coedge $-1 $169 $415 $411 $416 forward $105 $-1 #
coedge $-1 $413 $172 $169 $282 forward $276 $-1 #
edge $-1 $288 -8.2882116286949667 $417 1.9624214086247491 $281 $418 forward 7 unknown #
coedge $-1 $419 $420 $170 $284 forward $409 $-1 #
edge $-1 $421 -26.064345041300871 $287 -21.491573925591982 $283 $422 forward 7 unknown #
edge $-1 $288 -5.8029297784066127 $421 1.1548452884789174e-014 $171 $423 forward 7 unknown #
coedge $-1 $172 $413 $419 $424 forward $276 $-1 #
vertex $-1 $284 $425 #
vertex $-1 $173 $426 #
straight-curve $-1 -55.564454864236254 -11.451106738730076 5.5630373078247679 1 0 0 I I #
coedge $-1 $290 $290 $-1 $427 reversed $176 $-1 #
edge $-1 $428 0 $428 6.2831853071796004 $177 $429 forward 7 unknown #
vertex $-1 $180 $430 #
ellipse-curve $-1 -41.353424131252552 -8.5223544423530129 3.2766517499703247 -0.78801076186113728 0 0.61566146476048833 0.61566146476048833 0 0.78801076186113728 1 I I #
coedge $-1 $294 $294 $-1 $431 reversed $183 $-1 #
edge $-1 $432 0 $432 6.2831853071796004 $184 $433 forward 7 unknown #
vertex $-1 $187 $434 #
ellipse-curve $-1 -41.353424131252552 -4.1292259977874188 3.2766517499703247 -0.78801076186113728 0 0.61566146476048833 0.61566146476048833 0 0.78801076186113728 1 I I #
face $-1 $-1 $435 $41 $-1 $436 reversed single #
loop $-1 $-1 $194 $188 #
plane-surface $-1 0 0 5.563037307824767 0 0 1 1 0 0 forward_v I I I I #
coedge $-1 $437 $438 $439 $440 reversed $189 $-1 #
coedge $-1 $441 $191 $193 $308 forward $119 $-1 #
coedge $-1 $191 $441 $437 $442 forward $119 $-1 #
coedge $-1 $439 $194 $191 $305 forward $299 $-1 #
edge $-1 $311 1.0718320045857173 $443 11.322465041905433 $304 $444 forward 7 unknown #
coedge $-1 $445 $446 $192 $307 forward $435 $-1 #
edge $-1 $447 -26.064345041300871 $310 -21.491573925591982 $306 $448 forward 7 unknown #
edge $-1 $311 -5.8029297784066127 $447 1.1548452884789174e-014 $193 $449 forward 7 unknown #
coedge $-1 $194 $439 $445 $450 forward $299 $-1 #
vertex $-1 $195 $451 #
vertex $-1 $195 $452 #
straight-curve $-1 -55.564454864236254 7.2689805278312924 5.5630373078247679 1 0 0 I I #
coedge $-1 $313 $313 $-1 $453 reversed $198 $-1 #
edge $-1 $454 0 $454 6.2831853071796004 $199 $455 forward 7 unknown #
vertex $-1 $202 $456 #
ellipse-curve $-1 -41.353424131252552 10.197732824208355 3.2766517499703247 -0.78801076186113728 0 0.61566146476048833 0.61566146476048833 0 0.78801076186113728 1 I I #
coedge $-1 $317 $317 $-1 $457 reversed $205 $-1 #
edge $-1 $458 0 $458 6.2831853071796004 $206 $459 forward 7 unknown #
vertex $-1 $209 $460 #
ellipse-curve $-1 -41.353424131252552 14.590861268773946 3.2766517499703247 -0.78801076186113728 0 0.61566146476048833 0.61566146476048833 0 0.78801076186113728 1 I I #
face $-1 $-1 $333 $44 $-1 $461 forward single #
loop $-1 $-1 $462 $210 #
plane-surface $-1 43.139744254890594 0 0 -1 0 0 0 0 1 forward_v I I I I #
coedge $-1 $463 $464 $465 $466 reversed $211 $-1 #
coedge $-1 $467 $213 $215 $331 forward $133 $-1 #
coedge $-1 $213 $467 $463 $468 forward $133 $-1 #
coedge $-1 $465 $216 $213 $328 forward $333 $-1 #
edge $-1 $335 3.0081383990412673 $469 9.2204045230111902 $327 $470 forward 7 unknown #
coedge $-1 $471 $472 $214 $330 forward $322 $-1 #
edge $-1 $473 -60.469483962238208 $334 -55.985101535083167 $329 $474 forward 7 unknown #
edge $-1 $335 79.937614136012868 $473 86.279488509781189 $215 $475 forward 7 unknown #
coedge $-1 $216 $465 $471 $476 forward $333 $-1 #
loop $-1 $-1 $465 $321 #
vertex $-1 $330 $477 #
vertex $-1 $217 $478 #
straight-curve $-1 21.56987283530319 -9.1224098600674957 5.5630373078247644 -1 0 0 I I #
coedge $-1 $337 $337 $-1 $479 reversed $220 $-1 #
edge $-1 $480 0 $480 6.2831853071796004 $221 $481 forward 7 unknown #
vertex $-1 $224 $482 #
ellipse-curve $-1 40.897553093343348 -12.228542922052457 3.3208460942472375 0.70710678939079041 0 0.70710677298230451 1.0606601594734568 0 -1.0606601840861856 1 I I #
face $-1 $-1 $353 $46 $-1 $483 forward single #
loop $-1 $-1 $484 $225 #
plane-surface $-1 43.139744254890594 0 0 -1 0 0 0 0 1 forward_v I I I I #
coedge $-1 $485 $486 $487 $488 reversed $226 $-1 #
coedge $-1 $489 $228 $230 $351 forward $142 $-1 #
coedge $-1 $228 $489 $485 $490 forward $142 $-1 #
coedge $-1 $487 $231 $228 $348 forward $353 $-1 #
edge $-1 $355 -12.254657936221653 $491 -6.0423918122517328 $347 $492 forward 7 unknown #
coedge $-1 $493 $494 $229 $350 forward $342 $-1 #
edge $-1 $495 -60.469483962238208 $354 -55.985101535083167 $349 $496 forward 7 unknown #
edge $-1 $355 79.937614136012868 $495 86.279488509781189 $230 $497 forward 7 unknown #
coedge $-1 $231 $487 $493 $498 forward $353 $-1 #
loop $-1 $-1 $487 $341 #
vertex $-1 $350 $499 #
vertex $-1 $232 $500 #
straight-curve $-1 21.56987283530319 21.403182810458347 5.5630373078247644 -1 0 0 I I #
coedge $-1 $357 $357 $-1 $501 reversed $235 $-1 #
edge $-1 $502 0 $502 6.2831853071796004 $236 $503 forward 7 unknown #
vertex $-1 $239 $504 #
ellipse-curve $-1 40.897553093343348 18.297049748473388 3.3208460942472375 0.70710678939079041 0 0.70710677298230451 1.0606601594734568 0 -1.0606601840861856 1 I I #
face $-1 $-1 $255 $36 $-1 $505 reversed single #
loop $-1 $-1 $377 $240 #
plane-surface $-1 0 25.270197613537878 0 0 -1 0 0 0 -1 forward_v I I I I #
coedge $-1 $506 $375 $378 $507 forward $241 $-1 #
coedge $-1 $381 $243 $244 $369 reversed $151 $-1 #
coedge $-1 $375 $506 $243 $367 reversed $241 $-1 #
edge $-1 $382 -5.563037307824767 $508 5.563037307824767 $366 $509 forward 7 unknown #
coedge $-1 $245 $244 $506 $510 forward $97 $-1 #
edge $-1 $373 -43.139744254890594 $508 43.139744254890594 $365 $511 forward 7 unknown #
coedge $-1 $378 $377 $245 $371 reversed $362 $-1 #
edge $-1 $512 -43.139744254890594 $372 43.139744254890594 $370 $513 forward 7 unknown #
vertex $-1 $247 $514 #
vertex $-1 $384 $515 #
straight-curve $-1 43.139744254890594 0 -5.563037307824767 0 -1 0 I I #
coedge $-1 $364 $366 $248 $376 reversed $241 $-1 #
edge $-1 $379 -25.270197613537878 $382 25.270197613537878 $375 $516 forward 7 unknown #
coedge $-1 $370 $249 $254 $385 forward $362 $-1 #
coedge $-1 $249 $370 $364 $507 reversed $362 $-1 #
vertex $-1 $250 $517 #
straight-curve $-1 0 25.270197613537878 5.563037307824767 -1 0 0 I I #
coedge $-1 $251 $365 $253 $384 reversed $151 $-1 #
vertex $-1 $376 $518 #
straight-curve $-1 0 -25.270197613537878 5.563037307824767 1 0 0 I I #
edge $-1 $256 -5.563037307824767 $373 5.563037307824767 $253 $519 forward 7 unknown #
edge $-1 $257 -5.563037307824767 $372 5.563037307824767 $254 $520 forward 7 unknown #
point $-1 43.139744254890594 -25.270197613537878 5.563037307824767 #
point $-1 43.139744254890594 25.270197613537878 5.563037307824767 #
face $-1 $-1 $521 $37 $-1 $522 reversed single #
loop $-1 $-1 $269 $259 #
plane-surface $-1 0 -25.270197613537878 0 0 1 0 0 0 1 forward_v I I I I #
coedge $-1 $523 $262 $395 $524 forward $159 $-1 #
coedge $-1 $262 $523 $525 $526 forward $159 $-1 #
edge $-1 $527 -43.139744254890594 $396 43.139744254890594 $262 $528 forward 7 unknown #
coedge $-1 $264 $263 $529 $530 reversed $101 $-1 #
coedge $-1 $265 $271 $391 $524 reversed $260 $-1 #
vertex $-1 $524 $531 #
straight-curve $-1 43.139744254890594 -19.201690787116949 -2.0315186539123835 0 0 1 I I #
coedge $-1 $529 $532 $267 $399 forward $521 $-1 #
edge $-1 $404 -14.152225513374171 $400 -8.083718686953242 $398 $533 forward 7 unknown #
vertex $-1 $399 $534 #
straight-curve $-1 0 -19.201690787116949 -2.563037307824767 -1 0 0 I I #
coedge $-1 $535 $269 $532 $536 forward $389 $-1 #
coedge $-1 $269 $535 $271 $406 reversed $389 $-1 #
vertex $-1 $536 $537 #
straight-curve $-1 0 -25.270197613537878 -2.563037307824767 -1 0 0 I I #
edge $-1 $273 2.563037307824767 $538 5.563037307824767 $271 $539 forward 7 unknown #
point $-1 43.139744254890594 -19.201690787116949 -2.563037307824767 #
point $-1 43.139744254890594 -25.270197613537878 -2.563037307824767 #
loop $-1 $-1 $283 $275 #
plane-surface $-1 -43.139744254890594 0 0 1 0 0 0 0 -1 forward_v I I I I #
coedge $-1 $412 $278 $280 $416 reversed $167 $-1 #
coedge $-1 $278 $411 $540 $541 reversed $167 $-1 #
coedge $-1 $286 $281 $278 $414 forward $276 $-1 #
edge $-1 $417 -15.997350856621736 $542 -12.424710609345659 $413 $543 forward 7 unknown #
coedge $-1 $280 $279 $420 $544 reversed $105 $-1 #
edge $-1 $545 -1.1548452884789174e-014 $417 5.8029297784066127 $411 $546 forward 7 unknown #
vertex $-1 $282 $547 #
straight-curve $-1 -39.567104007614518 -3.1628951100351088 5.5630373078247679 0 1 0 I I #
coedge $-1 $540 $283 $286 $424 reversed $409 $-1 #
coedge $-1 $283 $540 $415 $544 forward $409 $-1 #
vertex $-1 $284 $548 #
straight-curve $-1 -43.139744254890594 -11.451106738730076 27.05461123341675 0 0 1 I I #
straight-curve $-1 -43.139744254890587 -11.451106738730076 0.99026619211588951 -0.61566146476048833 0 -0.78801076186113728 I I #
edge $-1 $542 1.2004737014103597 $287 11.451106738730076 $419 $549 forward 7 unknown #
point $-1 -43.139744254890594 -11.451106738730076 5.563037307824767 #
point $-1 -39.567104007614518 -11.451106738730076 5.563037307824767 #
edge $-1 $550 1 $550 0 $290 $-1 forward 7 unknown #
vertex $-1 $291 $551 #
ellipse-curve $-1 -38.250368721428515 -8.5223544423530129 0.85227922702008974 -0.78801076186113728 0 0.61566146476048833 0.61566146476048833 0 0.78801076186113728 1 I I #
point $-1 -40.737762666492074 -8.5223544423530129 4.0646625118314681 #
edge $-1 $552 1 $552 0 $294 $-1 forward 7 unknown #
vertex $-1 $295 $553 #
ellipse-curve $-1 -38.250368721428515 -4.1292259977874188 0.85227922702008974 -0.78801076186113728 0 0.61566146476048833 0.61566146476048833 0 0.78801076186113728 1 I I #
point $-1 -40.737762666492074 -4.1292259977874188 4.0646625118314681 #
loop $-1 $-1 $306 $298 #
plane-surface $-1 -43.139744254890594 0 0 1 0 0 0 0 -1 forward_v I I I I #
coedge $-1 $438 $301 $303 $442 reversed $189 $-1 #
coedge $-1 $301 $437 $554 $555 reversed $189 $-1 #
coedge $-1 $309 $304 $301 $440 forward $299 $-1 #
edge $-1 $443 -15.997350856621736 $556 -12.424710609345659 $439 $557 forward 7 unknown #
coedge $-1 $303 $302 $446 $558 reversed $119 $-1 #
edge $-1 $559 -1.1548452884789174e-014 $443 5.8029297784066127 $437 $560 forward 7 unknown #
vertex $-1 $305 $561 #
straight-curve $-1 -39.567104007614518 6.1971485232455752 5.5630373078247679 0 1 0 I I #
coedge $-1 $554 $306 $309 $450 reversed $435 $-1 #
coedge $-1 $306 $554 $441 $558 forward $435 $-1 #
vertex $-1 $307 $562 #
straight-curve $-1 -43.139744254890594 7.2689805278312924 27.05461123341675 0 0 1 I I #
straight-curve $-1 -43.139744254890587 7.2689805278312924 0.99026619211588951 -0.61566146476048833 0 -0.78801076186113728 I I #
edge $-1 $556 -17.519613565151008 $310 -7.2689805278312924 $445 $563 forward 7 unknown #
point $-1 -43.139744254890594 7.2689805278312924 5.563037307824767 #
point $-1 -39.567104007614518 7.2689805278312924 5.563037307824767 #
edge $-1 $564 1 $564 0 $313 $-1 forward 7 unknown #
vertex $-1 $314 $565 #
ellipse-curve $-1 -38.250368721428515 10.197732824208355 0.85227922702008974 -0.78801076186113728 0 0.61566146476048833 0.61566146476048833 0 0.78801076186113728 1 I I #
point $-1 -40.737762666492074 10.197732824208355 4.0646625118314681 #
edge $-1 $566 1 $566 0 $317 $-1 forward 7 unknown #
vertex $-1 $318 $567 #
ellipse-curve $-1 -38.250368721428515 14.590861268773946 0.85227922702008974 -0.78801076186113728 0 0.61566146476048833 0.61566146476048833 0 0.78801076186113728 1 I I #
point $-1 -40.737762666492074 14.590861268773946 4.0646625118314681 #
plane-surface $-1 0 0 5.563037307824767 0 0 1 1 0 0 forward_v I I I I #
coedge $-1 $472 $471 $464 $568 forward $322 $-1 #
coedge $-1 $464 $324 $326 $468 reversed $211 $-1 #
coedge $-1 $324 $463 $462 $568 reversed $211 $-1 #
coedge $-1 $332 $327 $324 $466 forward $333 $-1 #
edge $-1 $469 17.08548909649291 $569 21.569871419587404 $465 $570 forward 7 unknown #
coedge $-1 $326 $325 $472 $571 reversed $133 $-1 #
edge $-1 $572 -86.279488509781189 $469 -79.937614136012868 $463 $573 forward 7 unknown #
vertex $-1 $328 $574 #
straight-curve $-1 38.655361931796122 -6.1142714610262283 5.5630373078247572 0 -1 0 I I #
coedge $-1 $462 $329 $332 $476 reversed $322 $-1 #
coedge $-1 $329 $462 $467 $571 forward $322 $-1 #
vertex $-1 $330 $575 #
straight-curve $-1 43.139744254890594 -9.1224098600674957 61.548138842907932 0 0 1 I I #
straight-curve $-1 -17.869066439824586 -9.1224098600674957 62.087466991100669 0.70710677298230451 0 -0.70710678939079041 I I #
edge $-1 $569 -15.334675984037418 $334 -9.1224098600674957 $471 $576 forward 7 unknown #
point $-1 43.139744254890594 -9.1224098600674957 5.563037307824767 #
point $-1 38.655361931796101 -9.1224098600674957 5.5630373078247715 #
edge $-1 $577 1 $577 0 $337 $-1 forward 7 unknown #
vertex $-1 $338 $578 #
ellipse-curve $-1 38.781994543853401 -12.228542922052457 1.2052875938490404 0.70710678939079041 0 0.70710677298230451 1.0606601594734568 0 -1.0606601840861856 1 I I #
point $-1 41.95821325281679 -12.228542922052457 2.2601859101610371 #
plane-surface $-1 0 0 5.563037307824767 0 0 1 1 0 0 forward_v I I I I #
coedge $-1 $494 $493 $486 $579 forward $342 $-1 #
coedge $-1 $486 $344 $346 $490 reversed $226 $-1 #
coedge $-1 $344 $485 $484 $579 reversed $226 $-1 #
coedge $-1 $352 $347 $344 $488 forward $353 $-1 #
edge $-1 $491 17.08548909649291 $580 21.569871419587404 $487 $581 forward 7 unknown #
coedge $-1 $346 $345 $494 $582 reversed $142 $-1 #
edge $-1 $583 -86.279488509781189 $491 -79.937614136012868 $485 $584 forward 7 unknown #
vertex $-1 $348 $585 #
straight-curve $-1 38.655361931796122 9.1485248742366938 5.5630373078247572 0 -1 0 I I #
coedge $-1 $484 $349 $352 $498 reversed $342 $-1 #
coedge $-1 $349 $484 $489 $582 forward $342 $-1 #
vertex $-1 $350 $586 #
straight-curve $-1 43.139744254890594 21.403182810458347 61.548138842907932 0 0 1 I I #
straight-curve $-1 -17.869066439824586 21.403182810458347 62.087466991100669 0.70710677298230451 0 -0.70710678939079041 I I #
edge $-1 $580 15.190916686488427 $354 21.403182810458347 $493 $587 forward 7 unknown #
point $-1 43.139744254890594 21.403182810458347 5.563037307824767 #
point $-1 38.655361931796101 21.403182810458347 5.5630373078247715 #
edge $-1 $588 1 $588 0 $357 $-1 forward 7 unknown #
vertex $-1 $358 $589 #
ellipse-curve $-1 38.781994543853401 18.297049748473388 1.2052875938490404 0.70710678939079041 0 0.70710677298230451 1.0606601594734568 0 -1.0606601840861856 1 I I #
point $-1 41.95821325281679 18.297049748473388 2.2601859101610371 #
plane-surface $-1 43.139744254890594 0 0 -1 0 0 0 0 1 forward_v I I I I #
coedge $-1 $366 $364 $368 $510 reversed $241 $-1 #
edge $-1 $379 -5.563037307824767 $512 5.563037307824767 $378 $590 forward 7 unknown #
vertex $-1 $510 $591 #
straight-curve $-1 -43.139744254890594 -25.270197613537878 0 0 0 -1 I I #
edge $-1 $508 -25.270197613537878 $512 25.270197613537878 $506 $592 forward 7 unknown #
straight-curve $-1 0 -25.270197613537878 -5.563037307824767 -1 0 0 I I #
vertex $-1 $371 $593 #
straight-curve $-1 0 25.270197613537878 -5.563037307824767 1 0 0 I I #
point $-1 43.139744254890594 25.270197613537878 -5.563037307824767 #
point $-1 43.139744254890594 -25.270197613537878 -5.563037307824767 #
straight-curve $-1 -43.139744254890594 0 5.563037307824767 0 -1 0 I I #
point $-1 -43.139744254890594 25.270197613537878 5.563037307824767 #
point $-1 -43.139744254890594 -25.270197613537878 5.563037307824767 #
straight-curve $-1 43.139744254890594 -25.270197613537878 0 0 0 -1 I I #
straight-curve $-1 43.139744254890594 25.270197613537878 0 0 0 -1 I I #
loop $-1 $-1 $529 $388 #
plane-surface $-1 -43.139744254890594 0 0 1 0 0 0 0 -1 forward_v I I I I #
coedge $-1 $392 $391 $535 $594 forward $159 $-1 #
edge $-1 $396 19.201690787116949 $538 25.270197613537878 $395 $595 forward 7 unknown #
coedge $-1 $532 $529 $392 $526 reversed $521 $-1 #
edge $-1 $596 -25.270197613537878 $527 -19.201690787116949 $525 $597 forward 7 unknown #
vertex $-1 $530 $598 #
straight-curve $-1 0 -19.201690787116949 -5.563037307824767 1 0 0 I I #
coedge $-1 $525 $398 $394 $530 forward $521 $-1 #
edge $-1 $400 0.53151865391238351 $527 3.5315186539123835 $529 $599 forward 7 unknown #
point $-1 43.139744254890594 -19.201690787116949 -5.563037307824767 #
coedge $-1 $398 $525 $402 $536 reversed $521 $-1 #
straight-curve $-1 -43.139744254890594 -11.117972100163707 -2.563037307824767 0 1 0 I I #
point $-1 -43.139744254890594 -19.201690787116949 -2.563037307824767 #
coedge $-1 $403 $402 $523 $594 reversed $389 $-1 #
edge $-1 $404 2.563037307824767 $596 5.563037307824767 $532 $600 forward 7 unknown #
point $-1 -43.139744254890594 -25.270197613537878 -2.563037307824767 #
vertex $-1 $406 $601 #
straight-curve $-1 43.139744254890594 -25.270197613537878 0 0 0 -1 I I #
coedge $-1 $420 $419 $412 $541 forward $409 $-1 #
edge $-1 $542 21.491573925591982 $545 26.064345041300871 $540 $602 forward 7 unknown #
vertex $-1 $424 $603 #
straight-curve $-1 -55.564454864236254 -1.2004737014103597 5.5630373078247679 -1 0 0 I I #
edge $-1 $545 -1.9624214086247491 $421 8.2882116286949667 $420 $604 forward 7 unknown #
vertex $-1 $544 $605 #
straight-curve $-1 -43.139744254890587 -1.2004737014103597 0.99026619211588951 0.61566146476048833 0 0.78801076186113728 I I #
point $-1 -39.567104007614518 -1.2004737014103597 5.563037307824767 #
point $-1 -43.139744254890594 -11.451106738730076 0.99026619211588041 #
straight-curve $-1 -43.139744254890594 0 5.563037307824767 0 -1 0 I I #
vertex $-1 $427 $606 #
point $-1 -37.63470725666803 -8.5223544423530129 1.640289988881227 #
vertex $-1 $431 $607 #
point $-1 -37.63470725666803 -4.1292259977874188 1.640289988881227 #
coedge $-1 $446 $445 $438 $555 forward $435 $-1 #
edge $-1 $556 21.491573925591982 $559 26.064345041300871 $554 $608 forward 7 unknown #
vertex $-1 $450 $609 #
straight-curve $-1 -55.564454864236254 17.519613565151008 5.5630373078247679 -1 0 0 I I #
edge $-1 $559 -11.322465041905433 $447 -1.0718320045857173 $446 $610 forward 7 unknown #
vertex $-1 $558 $611 #
straight-curve $-1 -43.139744254890587 17.519613565151008 0.99026619211588951 0.61566146476048833 0 0.78801076186113728 I I #
point $-1 -39.567104007614518 17.519613565151008 5.563037307824767 #
point $-1 -43.139744254890594 7.2689805278312924 0.99026619211588041 #
straight-curve $-1 -43.139744254890594 0 5.563037307824767 0 -1 0 I I #
vertex $-1 $453 $612 #
point $-1 -37.63470725666803 10.197732824208355 1.640289988881227 #
vertex $-1 $457 $613 #
point $-1 -37.63470725666803 14.590861268773946 1.640289988881227 #
edge $-1 $569 55.985101535083167 $572 60.469483962238208 $462 $614 forward 7 unknown #
vertex $-1 $476 $615 #
straight-curve $-1 21.56987283530319 -15.334675984037418 5.5630373078247644 1 0 0 I I #
edge $-1 $572 -9.2204045230111902 $473 -3.0081383990412673 $472 $616 forward 7 unknown #
vertex $-1 $571 $617 #
straight-curve $-1 -17.869066439824586 -15.334675984037418 62.087466991100669 -0.70710677298230451 0 0.70710678939079041 I I #
point $-1 38.655361931796101 -15.334675984037418 5.5630373078247715 #
point $-1 43.139744254890594 -9.1224098600674957 1.078654880669724 #
straight-curve $-1 43.139744254890594 0 5.563037307824767 0 1 0 I I #
vertex $-1 $479 $618 #
point $-1 39.842654703326858 -12.228542922052457 0.14462740976285471 #
edge $-1 $580 55.985101535083167 $583 60.469483962238208 $484 $619 forward 7 unknown #
vertex $-1 $498 $620 #
straight-curve $-1 21.56987283530319 15.190916686488427 5.5630373078247644 1 0 0 I I #
edge $-1 $583 6.0423918122517328 $495 12.254657936221653 $494 $621 forward 7 unknown #
vertex $-1 $582 $622 #
straight-curve $-1 -17.869066439824586 15.190916686488427 62.087466991100669 -0.70710677298230451 0 0.70710678939079041 I I #
point $-1 38.655361931796101 15.190916686488427 5.5630373078247715 #
point $-1 43.139744254890594 21.403182810458347 1.078654880669724 #
straight-curve $-1 43.139744254890594 0 5.563037307824767 0 1 0 I I #
vertex $-1 $501 $623 #
point $-1 39.842654703326858 18.297049748473388 0.14462740976285471 #
straight-curve $-1 -43.139744254890594 25.270197613537878 0 0 0 -1 I I #
point $-1 -43.139744254890594 -25.270197613537878 -5.563037307824767 #
straight-curve $-1 -43.139744254890594 0 -5.563037307824767 0 1 0 I I #
point $-1 -43.139744254890594 25.270197613537878 -5.563037307824767 #
edge $-1 $538 -43.139744254890594 $596 43.139744254890594 $535 $624 forward 7 unknown #
straight-curve $-1 43.139744254890594 0 -5.563037307824767 0 -1 0 I I #
vertex $-1 $526 $625 #
straight-curve $-1 -43.139744254890594 0 -5.563037307824767 0 1 0 I I #
point $-1 -43.139744254890594 -19.201690787116949 -5.563037307824767 #
straight-curve $-1 -43.139744254890594 -19.201690787116949 -2.0315186539123835 0 0 -1 I I #
straight-curve $-1 -43.139744254890594 -25.270197613537878 0 0 0 -1 I I #
point $-1 43.139744254890594 -25.270197613537878 -5.563037307824767 #
straight-curve $-1 -43.139744254890594 -1.2004737014103597 27.05461123341675 0 0 -1 I I #
point $-1 -43.139744254890594 -1.2004737014103597 5.563037307824767 #
straight-curve $-1 -43.139744254890594 -3.1628951100351088 0.99026619211587197 0 -1 0 I I #
point $-1 -43.139744254890594 -1.2004737014103597 0.99026619211588041 #
point $-1 -37.462357959567385 -8.5223544423530129 0.23661776225960141 #
point $-1 -37.462357959567385 -4.1292259977874188 0.23661776225960141 #
straight-curve $-1 -43.139744254890594 17.519613565151008 27.05461123341675 0 0 -1 I I #
point $-1 -43.139744254890594 17.519613565151008 5.563037307824767 #
straight-curve $-1 -43.139744254890594 6.1971485232455752 0.99026619211587197 0 -1 0 I I #
point $-1 -43.139744254890594 17.519613565151008 0.99026619211588041 #
point $-1 -37.462357959567385 10.197732824208355 0.23661776225960141 #
point $-1 -37.462357959567385 14.590861268773946 0.23661776225960141 #
straight-curve $-1 43.139744254890594 -15.334675984037418 61.548138842907932 0 0 -1 I I #
point $-1 43.139744254890594 -15.334675984037418 5.563037307824767 #
straight-curve $-1 43.139744254890587 -6.1142714610262283 1.0786548806697205 0 1 0 I I #
point $-1 43.139744254890594 -15.334675984037418 1.078654880669724 #
point $-1 37.721334359767212 -12.228542922052457 0.14462743437558345 #
straight-curve $-1 43.139744254890594 15.190916686488427 61.548138842907932 0 0 -1 I I #
point $-1 43.139744254890594 15.190916686488427 5.563037307824767 #
straight-curve $-1 43.139744254890587 9.1485248742366938 1.0786548806697205 0 1 0 I I #
point $-1 43.139744254890594 15.190916686488427 1.078654880669724 #
point $-1 37.721334359767212 18.297049748473388 0.14462743437558345 #
straight-curve $-1 0 -25.270197613537878 -5.563037307824767 -1 0 0 I I #
point $-1 -43.139744254890594 -25.270197613537878 -5.563037307824767 #
End-of-ACIS-data 