500 0 7 0           
7 Unknown 11 ACIS 5.0 NT 24 Fri Mar 26 03:28:26 1999 
-1 9.9999999999999995e-007 1e-010 
body $-1 $7 $-1 $8 #
body $-1 $9 $-1 $10 #
body $-1 $11 $-1 $12 #
body $-1 $13 $-1 $14 #
body $-1 $15 $-1 $16 #
body $-1 $17 $-1 $18 #
body $-1 $19 $-1 $20 #
lump $-1 $-1 $21 $0 #
transform $-1 1 0 0 0 1 0 0 0 1 60.819727164525283 25.57465165368852 8.8704633780735325 1 rotate no_reflect no_shear #
lump $-1 $-1 $22 $1 #
transform $-1 1 0 0 0 1 0 0 0 1 60.819727164525283 25.57465165368852 8.8704633780735325 1 rotate no_reflect no_shear #
lump $-1 $-1 $23 $2 #
transform $-1 1 0 0 0 1 0 0 0 1 60.819727164525283 25.57465165368852 8.8704633780735325 1 rotate no_reflect no_shear #
lump $-1 $-1 $24 $3 #
transform $-1 1 0 0 0 1 0 0 0 1 60.819727164525283 25.57465165368852 8.8704633780735325 1 rotate no_reflect no_shear #
lump $-1 $-1 $25 $4 #
transform $-1 1 0 0 0 1 0 0 0 1 60.819727164525283 25.57465165368852 8.8704633780735325 1 rotate no_reflect no_shear #
lump $-1 $-1 $26 $5 #
transform $-1 1 0 0 0 1 0 0 0 1 60.819727164525283 25.57465165368852 8.8704633780735325 1 rotate no_reflect no_shear #
lump $-1 $-1 $27 $6 #
transform $-1 1 0 0 0 1 0 0 0 1 60.819727164525283 25.57465165368852 8.8704633780735325 1 rotate no_reflect no_shear #
shell $-1 $-1 $-1 $28 $-1 $7 #
shell $-1 $-1 $-1 $29 $-1 $9 #
shell $-1 $-1 $-1 $30 $-1 $11 #
shell $-1 $-1 $-1 $31 $-1 $13 #
shell $-1 $-1 $-1 $32 $-1 $15 #
shell $-1 $-1 $-1 $33 $-1 $17 #
shell $-1 $-1 $-1 $34 $-1 $19 #
face $-1 $35 $36 $21 $-1 $37 forward single #
face $-1 $38 $39 $22 $-1 $40 reversed single #
face $-1 $41 $42 $23 $-1 $43 forward single #
face $-1 $44 $45 $24 $-1 $46 forward single #
face $-1 $47 $48 $25 $-1 $49 reversed single #
face $-1 $50 $51 $26 $-1 $52 forward single #
face $-1 $53 $54 $27 $-1 $55 forward single #
face $-1 $56 $57 $21 $-1 $58 reversed single #
loop $-1 $-1 $59 $28 #
plane-surface $-1 0 0 8.8704633780735325 0 0 1 1 0 0 forward_v I I I I #
face $-1 $60 $61 $22 $-1 $62 reversed single #
loop $-1 $-1 $63 $29 #
plane-surface $-1 -38.06421343710084 48.926832529438613 130.21319957490869 1 0 0 0 -0.54463904215088732 -0.83867056331134215 forward_v I I I I #
face $-1 $64 $65 $23 $-1 $66 forward single #
loop $-1 $67 $68 $30 #
cone-surface $-1 -32.105142871944949 17.130234926411564 1.7157140732550666 0 -0.54463904215088732 -0.83867056331134215 2.5 0 0 1 I I 0 1 2.5 forward I I I I #
face $-1 $69 $70 $24 $-1 $71 forward single #
loop $-1 $72 $73 $31 #
cone-surface $-1 -23.166537024211102 17.130234926411564 1.7157140732550666 0 -0.54463904215088732 -0.83867056331134215 2.5 0 0 1 I I 0 1 2.5 forward I I I I #
face $-1 $74 $75 $25 $-1 $76 reversed single #
loop $-1 $-1 $77 $32 #
plane-surface $-1 22.75551372742445 48.926832529438613 130.21319957490869 1 0 0 0 -0.54463904215088732 -0.83867056331134215 forward_v I I I I #
face $-1 $78 $79 $26 $-1 $80 forward single #
loop $-1 $81 $82 $33 #
cone-surface $-1 28.714584292580334 17.130234926411564 1.7157140732550666 0 -0.54463904215088732 -0.83867056331134215 2.5 0 0 1 I I 0 1 2.5 forward I I I I #
face $-1 $83 $84 $27 $-1 $85 forward single #
loop $-1 $86 $87 $34 #
cone-surface $-1 37.653190140314173 17.130234926411564 1.7157140732550666 0 -0.54463904215088732 -0.83867056331134215 2.5 0 0 1 I I 0 1 2.5 forward I I I I #
face $-1 $88 $89 $21 $-1 $90 reversed single #
loop $-1 $-1 $91 $35 #
plane-surface $-1 0 0 -8.8704633780735325 0 0 1 1 0 0 forward_v I I I I #
coedge $-1 $92 $93 $94 $95 forward $36 $-1 #
face $-1 $96 $97 $22 $-1 $98 reversed single #
loop $-1 $-1 $99 $38 #
plane-surface $-1 -27.635839948078022 -17.322763364092097 28.197769891879574 0 0.54463904215088732 0.83867056331134215 1 0 0 forward_v I I I I #
coedge $-1 $100 $101 $102 $103 reversed $39 $-1 #
face $-1 $-1 $104 $23 $-1 $105 forward single #
loop $-1 $106 $107 $41 #
cone-surface $-1 -32.105142871944949 14.573006109769395 -2.2220729125980778 0 -0.54463904215088732 -0.83867056331134215 1.25 0 0 1 I I -0.70710678118654746 0.70710678118654746 1.25 forward I I I I #
loop $-1 $-1 $108 $30 #
coedge $-1 $68 $68 $109 $110 reversed $42 $-1 #
face $-1 $-1 $111 $24 $-1 $112 forward single #
loop $-1 $113 $114 $44 #
cone-surface $-1 -23.166537024211102 14.573006109769395 -2.2220729125980778 0 -0.54463904215088732 -0.83867056331134215 1.25 0 0 1 I I -0.70710678118654746 0.70710678118654746 1.25 forward I I I I #
loop $-1 $-1 $115 $31 #
coedge $-1 $73 $73 $116 $117 reversed $45 $-1 #
face $-1 $118 $119 $25 $-1 $120 reversed single #
loop $-1 $-1 $121 $47 #
plane-surface $-1 33.183887216447268 -17.322763364092097 28.197769891879574 0 0.54463904215088732 0.83867056331134215 1 0 0 forward_v I I I I #
coedge $-1 $122 $123 $124 $125 reversed $48 $-1 #
face $-1 $-1 $126 $26 $-1 $127 forward single #
loop $-1 $128 $129 $50 #
cone-surface $-1 28.714584292580334 14.573006109769395 -2.2220729125980778 0 -0.54463904215088732 -0.83867056331134215 1.25 0 0 1 I I -0.70710678118654746 0.70710678118654746 1.25 forward I I I I #
loop $-1 $-1 $130 $33 #
coedge $-1 $82 $82 $131 $132 reversed $51 $-1 #
face $-1 $-1 $133 $27 $-1 $134 forward single #
loop $-1 $135 $136 $53 #
cone-surface $-1 37.653190140314173 14.573006109769395 -2.2220729125980778 0 -0.54463904215088732 -0.83867056331134215 1.25 0 0 1 I I -0.70710678118654746 0.70710678118654746 1.25 forward I I I I #
loop $-1 $-1 $137 $34 #
coedge $-1 $87 $87 $138 $139 reversed $54 $-1 #
face $-1 $140 $141 $21 $-1 $142 reversed single #
loop $-1 $-1 $143 $56 #
plane-surface $-1 0 -25.57465165368852 0 0 1 0 0 0 1 forward_v I I I I #
coedge $-1 $144 $145 $146 $147 forward $57 $-1 #
coedge $-1 $148 $59 $149 $150 forward $36 $-1 #
coedge $-1 $59 $148 $151 $152 forward $36 $-1 #
coedge $-1 $153 $154 $59 $95 reversed $155 $-1 #
edge $-1 $156 -25.57465165368852 $157 25.57465165368852 $94 $158 forward 7 unknown #
face $-1 $159 $160 $22 $-1 $161 reversed single #
loop $-1 $-1 $162 $60 #
plane-surface $-1 -17.207466459055205 48.926832529438613 130.21319957490869 -1 0 0 0 0.54463904215088732 0.83867056331134215 forward_v I I I I #
coedge $-1 $163 $164 $165 $166 reversed $61 $-1 #
coedge $-1 $101 $63 $167 $168 reversed $39 $-1 #
coedge $-1 $63 $100 $163 $169 reversed $39 $-1 #
coedge $-1 $165 $170 $63 $103 forward $171 $-1 #
edge $-1 $172 -1.111235388969213 $173 12.024738037677611 $102 $174 forward 7 unknown #
loop $-1 $-1 $109 $64 #
plane-surface $-1 -27.635839948078022 -17.322763364092097 28.197769891879574 0 0.54463904215088732 0.83867056331134215 1 0 0 forward_v I I I I #
loop $-1 $-1 $175 $41 #
coedge $-1 $107 $107 $108 $176 reversed $65 $-1 #
coedge $-1 $108 $108 $107 $176 forward $67 $-1 #
coedge $-1 $109 $109 $68 $110 forward $104 $-1 #
edge $-1 $177 6.7304779615284247e-016 $177 6.2831853071796013 $109 $178 forward 7 unknown #
loop $-1 $-1 $116 $69 #
plane-surface $-1 -27.635839948078022 -17.322763364092097 28.197769891879574 0 0.54463904215088732 0.83867056331134215 1 0 0 forward_v I I I I #
loop $-1 $-1 $179 $44 #
coedge $-1 $114 $114 $115 $180 reversed $70 $-1 #
coedge $-1 $115 $115 $114 $180 forward $72 $-1 #
coedge $-1 $116 $116 $73 $117 forward $111 $-1 #
edge $-1 $181 6.7304779615284247e-016 $181 6.2831853071796013 $116 $182 forward 7 unknown #
face $-1 $183 $184 $25 $-1 $185 forward single #
loop $-1 $-1 $186 $74 #
plane-surface $-1 43.612260705470085 48.926832529438613 130.21319957490869 -1 0 0 0 0.54463904215088732 0.83867056331134215 forward_v I I I I #
coedge $-1 $187 $188 $189 $190 reversed $75 $-1 #
coedge $-1 $123 $77 $191 $192 reversed $48 $-1 #
coedge $-1 $77 $122 $187 $193 reversed $48 $-1 #
coedge $-1 $189 $194 $77 $125 forward $184 $-1 #
edge $-1 $195 -1.111235388969213 $196 12.024738037677611 $124 $197 forward 7 unknown #
loop $-1 $-1 $131 $78 #
plane-surface $-1 33.183887216447268 -17.322763364092097 28.197769891879574 0 0.54463904215088732 0.83867056331134215 1 0 0 forward_v I I I I #
loop $-1 $-1 $198 $50 #
coedge $-1 $129 $129 $130 $199 reversed $79 $-1 #
coedge $-1 $130 $130 $129 $199 forward $81 $-1 #
coedge $-1 $131 $131 $82 $132 forward $126 $-1 #
edge $-1 $200 6.7304779615284247e-016 $200 6.2831853071796013 $131 $201 forward 7 unknown #
loop $-1 $-1 $138 $83 #
plane-surface $-1 33.183887216447268 -17.322763364092097 28.197769891879574 0 0.54463904215088732 0.83867056331134215 1 0 0 forward_v I I I I #
loop $-1 $-1 $202 $53 #
coedge $-1 $136 $136 $137 $203 reversed $84 $-1 #
coedge $-1 $137 $137 $136 $203 forward $86 $-1 #
coedge $-1 $138 $138 $87 $139 forward $133 $-1 #
edge $-1 $204 6.7304779615284247e-016 $204 6.2831853071796013 $138 $205 forward 7 unknown #
face $-1 $206 $207 $21 $-1 $208 reversed single #
loop $-1 $-1 $209 $88 #
plane-surface $-1 -60.819727164525283 0 0 1 0 0 0 0 -1 forward_v I I I I #
coedge $-1 $210 $151 $211 $212 forward $89 $-1 #
coedge $-1 $213 $91 $210 $214 forward $57 $-1 #
coedge $-1 $91 $213 $215 $216 forward $57 $-1 #
coedge $-1 $154 $153 $91 $147 reversed $155 $-1 #
edge $-1 $217 -25.57465165368852 $218 25.57465165368852 $146 $219 forward 7 unknown #
coedge $-1 $93 $92 $220 $221 forward $36 $-1 #
coedge $-1 $222 $223 $92 $150 reversed $207 $-1 #
edge $-1 $157 -60.819727164525283 $224 60.819727164525283 $149 $225 forward 7 unknown #
coedge $-1 $143 $226 $93 $152 reversed $89 $-1 #
edge $-1 $227 -60.819727164525283 $156 60.819727164525283 $151 $228 forward 7 unknown #
coedge $-1 $146 $94 $226 $229 forward $155 $-1 #
coedge $-1 $94 $146 $222 $230 reversed $155 $-1 #
loop $-1 $-1 $153 $206 #
vertex $-1 $95 $231 #
vertex $-1 $95 $232 #
straight-curve $-1 60.819727164525283 0 8.8704633780735325 0 1 0 I I #
face $-1 $-1 $171 $22 $-1 $233 forward single #
loop $-1 $-1 $234 $96 #
plane-surface $-1 0 25.57465165368852 0 0 -1 0 0 0 -1 forward_v I I I I #
coedge $-1 $235 $236 $237 $238 reversed $97 $-1 #
coedge $-1 $239 $99 $101 $169 forward $61 $-1 #
coedge $-1 $99 $239 $235 $240 forward $61 $-1 #
coedge $-1 $237 $102 $99 $166 forward $171 $-1 #
edge $-1 $173 -24.246293463061829 $241 -3.3895464850161936 $165 $242 forward 7 unknown #
coedge $-1 $243 $244 $100 $168 forward $160 $-1 #
edge $-1 $245 -64.766737455589819 $172 -56.236136409380812 $167 $246 forward 7 unknown #
edge $-1 $173 35.486450691229713 $245 51.14930330737706 $101 $247 forward 7 unknown #
coedge $-1 $102 $237 $243 $248 forward $171 $-1 #
loop $-1 $-1 $237 $159 #
vertex $-1 $168 $249 #
vertex $-1 $103 $250 #
straight-curve $-1 -38.06421343710084 24.463416264719307 8.8704633780735307 0 -1 0 I I #
coedge $-1 $175 $175 $-1 $251 reversed $106 $-1 #
edge $-1 $252 0 $252 6.2831853071796004 $107 $253 forward 7 unknown #
vertex $-1 $110 $254 #
ellipse-curve $-1 -32.105142871944949 19.006664940365116 4.60516285496902 0 0.54463904215088732 0.83867056331134215 2.5 0 0 1 I I #
coedge $-1 $179 $179 $-1 $255 reversed $113 $-1 #
edge $-1 $256 0 $256 6.2831853071796004 $114 $257 forward 7 unknown #
vertex $-1 $117 $258 #
ellipse-curve $-1 -23.166537024211102 19.006664940365116 4.60516285496902 0 0.54463904215088732 0.83867056331134215 2.5 0 0 1 I I #
face $-1 $-1 $259 $25 $-1 $260 reversed single #
loop $-1 $-1 $124 $118 #
plane-surface $-1 0 0 8.8704633780735325 0 0 1 1 0 0 forward_v I I I I #
coedge $-1 $261 $262 $263 $264 reversed $119 $-1 #
coedge $-1 $265 $121 $123 $193 forward $75 $-1 #
coedge $-1 $121 $265 $261 $266 forward $75 $-1 #
coedge $-1 $263 $124 $121 $190 forward $184 $-1 #
edge $-1 $196 6.1635701192008163 $267 27.020317097246451 $189 $268 forward 7 unknown #
coedge $-1 $269 $270 $122 $192 forward $259 $-1 #
edge $-1 $271 -64.766737455589819 $195 -56.236136409380812 $191 $272 forward 7 unknown #
edge $-1 $196 35.486450691229713 $271 51.14930330737706 $123 $273 forward 7 unknown #
coedge $-1 $124 $263 $269 $274 forward $184 $-1 #
vertex $-1 $125 $275 #
vertex $-1 $125 $276 #
straight-curve $-1 22.75551372742445 24.463416264719307 8.8704633780735307 0 -1 0 I I #
coedge $-1 $198 $198 $-1 $277 reversed $128 $-1 #
edge $-1 $278 0 $278 6.2831853071796004 $129 $279 forward 7 unknown #
vertex $-1 $132 $280 #
ellipse-curve $-1 28.714584292580334 19.006664940365116 4.60516285496902 0 0.54463904215088732 0.83867056331134215 2.5 0 0 1 I I #
coedge $-1 $202 $202 $-1 $281 reversed $135 $-1 #
edge $-1 $282 0 $282 6.2831853071796004 $136 $283 forward 7 unknown #
vertex $-1 $139 $284 #
ellipse-curve $-1 37.653190140314173 19.006664940365116 4.60516285496902 0 0.54463904215088732 0.83867056331134215 2.5 0 0 1 I I #
face $-1 $-1 $155 $21 $-1 $285 reversed single #
loop $-1 $-1 $222 $140 #
plane-surface $-1 0 25.57465165368852 0 0 -1 0 0 0 -1 forward_v I I I I #
coedge $-1 $286 $220 $223 $287 forward $141 $-1 #
coedge $-1 $226 $143 $144 $214 reversed $89 $-1 #
coedge $-1 $220 $286 $143 $212 reversed $141 $-1 #
edge $-1 $227 -8.8704633780735325 $288 8.8704633780735325 $211 $289 forward 7 unknown #
coedge $-1 $145 $144 $286 $290 forward $57 $-1 #
edge $-1 $218 -60.819727164525283 $288 60.819727164525283 $210 $291 forward 7 unknown #
coedge $-1 $223 $222 $145 $216 reversed $207 $-1 #
edge $-1 $292 -60.819727164525283 $217 60.819727164525283 $215 $293 forward 7 unknown #
vertex $-1 $147 $294 #
vertex $-1 $229 $295 #
straight-curve $-1 60.819727164525283 0 -8.8704633780735325 0 -1 0 I I #
coedge $-1 $209 $211 $148 $221 reversed $141 $-1 #
edge $-1 $224 -25.57465165368852 $227 25.57465165368852 $220 $296 forward 7 unknown #
coedge $-1 $215 $149 $154 $230 forward $207 $-1 #
coedge $-1 $149 $215 $209 $287 reversed $207 $-1 #
vertex $-1 $150 $297 #
straight-curve $-1 0 25.57465165368852 8.8704633780735325 -1 0 0 I I #
coedge $-1 $151 $210 $153 $229 reversed $89 $-1 #
vertex $-1 $221 $298 #
straight-curve $-1 0 -25.57465165368852 8.8704633780735325 1 0 0 I I #
edge $-1 $156 -8.8704633780735325 $218 8.8704633780735325 $153 $299 forward 7 unknown #
edge $-1 $157 -8.8704633780735325 $217 8.8704633780735325 $154 $300 forward 7 unknown #
point $-1 60.819727164525283 -25.57465165368852 8.8704633780735325 #
point $-1 60.819727164525283 25.57465165368852 8.8704633780735325 #
plane-surface $-1 0 0 8.8704633780735325 0 0 1 1 0 0 forward_v I I I I #
coedge $-1 $244 $243 $236 $301 forward $160 $-1 #
coedge $-1 $236 $162 $164 $240 reversed $97 $-1 #
coedge $-1 $162 $235 $234 $301 reversed $97 $-1 #
coedge $-1 $170 $165 $162 $238 forward $171 $-1 #
edge $-1 $241 -12.024738037677611 $302 1.111235388969213 $237 $303 forward 7 unknown #
coedge $-1 $164 $163 $244 $304 reversed $61 $-1 #
edge $-1 $305 -51.14930330737706 $241 -35.486450691229713 $235 $306 forward 7 unknown #
vertex $-1 $166 $307 #
straight-curve $-1 -13.817919974039011 12.43867822704169 8.8704633780735307 1 0 0 I I #
coedge $-1 $234 $167 $170 $248 reversed $160 $-1 #
coedge $-1 $167 $234 $239 $304 forward $160 $-1 #
vertex $-1 $168 $308 #
straight-curve $-1 -38.06421343710084 25.57465165368852 65.106599787454343 0 0 1 I I #
straight-curve $-1 -38.06421343710084 -17.322763364092097 28.197769891879574 0 0.83867056331134215 -0.54463904215088732 I I #
edge $-1 $302 17.207466459055205 $172 38.06421343710084 $243 $309 forward 7 unknown #
point $-1 -38.06421343710084 25.57465165368852 8.8704633780735325 #
point $-1 -38.06421343710084 12.438678227041695 8.8704633780735307 #
edge $-1 $310 1 $310 0 $175 $-1 forward 7 unknown #
vertex $-1 $176 $311 #
ellipse-curve $-1 -32.105142871944949 15.253804912458005 -1.1737347084589 0 0.54463904215088732 0.83867056331134215 2.5 0 0 1 I I #
point $-1 -29.605142871944949 19.006664940365127 4.6051628549690333 #
edge $-1 $312 1 $312 0 $179 $-1 forward 7 unknown #
vertex $-1 $180 $313 #
ellipse-curve $-1 -23.166537024211102 15.253804912458005 -1.1737347084589 0 0.54463904215088732 0.83867056331134215 2.5 0 0 1 I I #
point $-1 -20.666537024211102 19.006664940365127 4.6051628549690333 #
loop $-1 $-1 $191 $183 #
plane-surface $-1 0 25.57465165368852 0 0 -1 0 0 0 -1 forward_v I I I I #
coedge $-1 $262 $186 $188 $266 reversed $119 $-1 #
coedge $-1 $186 $261 $314 $315 reversed $119 $-1 #
coedge $-1 $194 $189 $186 $264 forward $184 $-1 #
edge $-1 $267 -12.024738037677611 $316 1.111235388969213 $263 $317 forward 7 unknown #
coedge $-1 $188 $187 $270 $318 reversed $75 $-1 #
edge $-1 $319 -51.14930330737706 $267 -35.486450691229713 $261 $320 forward 7 unknown #
vertex $-1 $190 $321 #
straight-curve $-1 16.591943608223634 12.43867822704169 8.8704633780735307 1 0 0 I I #
coedge $-1 $314 $191 $194 $274 reversed $259 $-1 #
coedge $-1 $191 $314 $265 $318 forward $259 $-1 #
vertex $-1 $192 $322 #
straight-curve $-1 22.75551372742445 25.57465165368852 65.106599787454343 0 0 1 I I #
straight-curve $-1 22.75551372742445 -17.322763364092097 28.197769891879574 0 0.83867056331134215 -0.54463904215088732 I I #
edge $-1 $316 -43.612260705470085 $195 -22.75551372742445 $269 $323 forward 7 unknown #
point $-1 22.75551372742445 25.57465165368852 8.8704633780735325 #
point $-1 22.75551372742445 12.438678227041695 8.8704633780735307 #
edge $-1 $324 1 $324 0 $198 $-1 forward 7 unknown #
vertex $-1 $199 $325 #
ellipse-curve $-1 28.714584292580334 15.253804912458005 -1.1737347084589 0 0.54463904215088732 0.83867056331134215 2.5 0 0 1 I I #
point $-1 31.214584292580334 19.006664940365127 4.6051628549690333 #
edge $-1 $326 1 $326 0 $202 $-1 forward 7 unknown #
vertex $-1 $203 $327 #
ellipse-curve $-1 37.653190140314173 15.253804912458005 -1.1737347084589 0 0.54463904215088732 0.83867056331134215 2.5 0 0 1 I I #
point $-1 40.153190140314173 19.006664940365127 4.6051628549690333 #
plane-surface $-1 60.819727164525283 0 0 -1 0 0 0 0 1 forward_v I I I I #
coedge $-1 $211 $209 $213 $290 reversed $141 $-1 #
edge $-1 $224 -8.8704633780735325 $292 8.8704633780735325 $223 $328 forward 7 unknown #
vertex $-1 $290 $329 #
straight-curve $-1 -60.819727164525283 -25.57465165368852 0 0 0 -1 I I #
edge $-1 $288 -25.57465165368852 $292 25.57465165368852 $286 $330 forward 7 unknown #
straight-curve $-1 0 -25.57465165368852 -8.8704633780735325 -1 0 0 I I #
vertex $-1 $216 $331 #
straight-curve $-1 0 25.57465165368852 -8.8704633780735325 1 0 0 I I #
point $-1 60.819727164525283 25.57465165368852 -8.8704633780735325 #
point $-1 60.819727164525283 -25.57465165368852 -8.8704633780735325 #
straight-curve $-1 -60.819727164525283 0 8.8704633780735325 0 -1 0 I I #
point $-1 -60.819727164525283 25.57465165368852 8.8704633780735325 #
point $-1 -60.819727164525283 -25.57465165368852 8.8704633780735325 #
straight-curve $-1 60.819727164525283 -25.57465165368852 0 0 0 -1 I I #
straight-curve $-1 60.819727164525283 25.57465165368852 0 0 0 -1 I I #
edge $-1 $302 56.236136409380812 $305 64.766737455589819 $234 $332 forward 7 unknown #
vertex $-1 $248 $333 #
straight-curve $-1 -17.207466459055205 24.463416264719307 8.8704633780735307 0 1 0 I I #
edge $-1 $305 3.3895464850161936 $245 24.246293463061829 $244 $334 forward 7 unknown #
vertex $-1 $304 $335 #
straight-curve $-1 -17.207466459055205 -17.322763364092097 28.197769891879574 0 -0.83867056331134215 0.54463904215088732 I I #
point $-1 -17.207466459055205 12.438678227041695 8.8704633780735307 #
point $-1 -38.06421343710084 25.57465165368852 0.33986233186451997 #
straight-curve $-1 0 25.57465165368852 8.8704633780735325 -1 0 0 I I #
vertex $-1 $251 $336 #
point $-1 -29.605142871944949 15.253804912458005 -1.1737347084589 #
vertex $-1 $255 $337 #
point $-1 -20.666537024211102 15.253804912458005 -1.1737347084589 #
coedge $-1 $270 $269 $262 $315 forward $259 $-1 #
edge $-1 $316 56.236136409380812 $319 64.766737455589819 $314 $338 forward 7 unknown #
vertex $-1 $274 $339 #
straight-curve $-1 43.612260705470085 24.463416264719307 8.8704633780735307 0 1 0 I I #
edge $-1 $319 -27.020317097246451 $271 -6.1635701192008163 $270 $340 forward 7 unknown #
vertex $-1 $318 $341 #
straight-curve $-1 43.612260705470085 -17.322763364092097 28.197769891879574 0 -0.83867056331134215 0.54463904215088732 I I #
point $-1 43.612260705470085 12.438678227041695 8.8704633780735307 #
point $-1 22.75551372742445 25.57465165368852 0.33986233186451997 #
straight-curve $-1 0 25.57465165368852 8.8704633780735325 -1 0 0 I I #
vertex $-1 $277 $342 #
point $-1 31.214584292580334 15.253804912458005 -1.1737347084589 #
vertex $-1 $281 $343 #
point $-1 40.153190140314173 15.253804912458005 -1.1737347084589 #
straight-curve $-1 -60.819727164525283 25.57465165368852 0 0 0 -1 I I #
point $-1 -60.819727164525283 -25.57465165368852 -8.8704633780735325 #
straight-curve $-1 -60.819727164525283 0 -8.8704633780735325 0 1 0 I I #
point $-1 -60.819727164525283 25.57465165368852 -8.8704633780735325 #
straight-curve $-1 -17.207466459055205 25.57465165368852 65.106599787454343 0 0 -1 I I #
point $-1 -17.207466459055205 25.57465165368852 8.8704633780735325 #
straight-curve $-1 -13.817919974039011 25.57465165368852 0.33986233186451997 -1 0 0 I I #
point $-1 -17.207466459055205 25.57465165368852 0.33986233186451997 #
point $-1 -32.105142871944949 13.892207307080785 -3.2704111167372556 #
point $-1 -23.166537024211102 13.892207307080785 -3.2704111167372556 #
straight-curve $-1 43.612260705470085 25.57465165368852 65.106599787454343 0 0 -1 I I #
point $-1 43.612260705470085 25.57465165368852 8.8704633780735325 #
straight-curve $-1 16.591943608223634 25.57465165368852 0.33986233186451997 -1 0 0 I I #
point $-1 43.612260705470085 25.57465165368852 0.33986233186451997 #
point $-1 28.714584292580334 13.892207307080785 -3.2704111167372556 #
point $-1 37.653190140314173 13.892207307080785 -3.2704111167372556 #
End-of-ACIS-data 