500 0 4 0           
7 Unknown 11 ACIS 5.0 NT 24 Thu Mar 25 16:24:36 1999 
-1 9.9999999999999995e-007 1e-010 
body $-1 $4 $-1 $5 #
body $-1 $6 $-1 $7 #
body $-1 $8 $-1 $9 #
body $-1 $10 $-1 $11 #
lump $-1 $-1 $12 $0 #
transform $-1 1 0 0 0 1 0 0 0 1 71.561021759697255 46.000456478367845 22.556747169769071 1 rotate no_reflect no_shear #
lump $-1 $-1 $13 $1 #
transform $-1 1 0 0 0 1 0 0 0 1 71.561021759697255 46.000456478367845 22.556747169769071 1 rotate no_reflect no_shear #
lump $-1 $-1 $14 $2 #
transform $-1 1 0 0 0 1 0 0 0 1 71.561021759697255 46.000456478367845 22.556747169769071 1 rotate no_reflect no_shear #
lump $-1 $-1 $15 $3 #
transform $-1 1 0 0 0 1 0 0 0 1 71.561021759697255 46.000456478367845 22.556747169769071 1 rotate no_reflect no_shear #
shell $-1 $-1 $-1 $16 $-1 $4 #
shell $-1 $-1 $-1 $17 $-1 $6 #
shell $-1 $-1 $-1 $18 $-1 $8 #
shell $-1 $-1 $-1 $19 $-1 $10 #
face $-1 $20 $21 $12 $-1 $22 forward single #
face $-1 $23 $24 $13 $-1 $25 reversed single #
face $-1 $26 $27 $14 $-1 $28 forward single #
face $-1 $29 $30 $15 $-1 $31 forward single #
face $-1 $32 $33 $12 $-1 $34 reversed single #
loop $-1 $-1 $35 $16 #
plane-surface $-1 0 0 22.556747169769071 0 0 1 1 0 0 forward_v I I I I #
face $-1 $36 $37 $13 $-1 $38 reversed single #
loop $-1 $-1 $39 $17 #
plane-surface $-1 -38.805043459425789 -150.6732939724244 112.60765660667565 -1 0 0 0 -0.73135370988377701 0.68199835119979291 forward_v I I I I #
face $-1 $40 $41 $14 $-1 $42 forward single #
loop $-1 $43 $44 $18 #
cone-surface $-1 -62.202170816762546 -41.5394992807582 17.903990864509876 0 0.73135370988377701 -0.68199835119979291 1 0 0 1 I I 0 1 1 forward I I I I #
face $-1 $45 $46 $15 $-1 $47 forward single #
loop $-1 $48 $49 $19 #
cone-surface $-1 -48.163894402360491 -41.5394992807582 17.903990864509876 0 0.73135370988377701 -0.68199835119979291 1 0 0 1 I I 0 1 1 forward I I I I #
face $-1 $50 $51 $12 $-1 $52 reversed single #
loop $-1 $-1 $53 $20 #
plane-surface $-1 0 0 -22.556747169769071 0 0 1 1 0 0 forward_v I I I I #
coedge $-1 $54 $55 $56 $57 forward $21 $-1 #
face $-1 $58 $59 $13 $-1 $60 forward single #
loop $-1 $-1 $61 $23 #
plane-surface $-1 -55.183032609561522 -46.000456478367838 14.998658906103586 0 -0.73135370988377701 0.68199835119979291 1 0 0 forward_v I I I I #
coedge $-1 $62 $63 $64 $65 reversed $24 $-1 #
face $-1 $-1 $66 $14 $-1 $67 forward single #
loop $-1 $68 $69 $26 #
cone-surface $-1 -62.202170816762546 -40.23688080670253 16.689279515483516 0 0.73135370988377701 -0.68199835119979291 0.5 0 0 1 I I -0.70710678118654746 0.70710678118654746 0.5 forward I I I I #
loop $-1 $-1 $70 $18 #
coedge $-1 $44 $44 $71 $72 reversed $27 $-1 #
face $-1 $-1 $73 $15 $-1 $74 forward single #
loop $-1 $75 $76 $29 #
cone-surface $-1 -48.163894402360491 -40.23688080670253 16.689279515483516 0 0.73135370988377701 -0.68199835119979291 0.5 0 0 1 I I -0.70710678118654746 0.70710678118654746 0.5 forward I I I I #
loop $-1 $-1 $77 $19 #
coedge $-1 $49 $49 $78 $79 reversed $30 $-1 #
face $-1 $80 $81 $12 $-1 $82 reversed single #
loop $-1 $-1 $83 $32 #
plane-surface $-1 0 -46.000456478367845 0 0 1 0 0 0 1 forward_v I I I I #
coedge $-1 $84 $85 $86 $87 forward $33 $-1 #
coedge $-1 $88 $35 $89 $90 forward $21 $-1 #
coedge $-1 $35 $88 $91 $92 forward $21 $-1 #
coedge $-1 $93 $94 $35 $57 reversed $95 $-1 #
edge $-1 $96 -46.000456478367845 $97 46.000456478367845 $56 $98 forward 7 unknown #
face $-1 $99 $100 $13 $-1 $101 reversed single #
loop $-1 $-1 $64 $36 #
plane-surface $-1 0 0 22.556747169769071 0 0 1 1 0 0 forward_v I I I I #
coedge $-1 $102 $103 $104 $105 reversed $37 $-1 #
coedge $-1 $63 $39 $106 $107 reversed $24 $-1 #
coedge $-1 $39 $62 $102 $108 reversed $24 $-1 #
coedge $-1 $104 $109 $39 $65 forward $59 $-1 #
edge $-1 $110 29.336190507844357 $111 36.384221664836119 $64 $112 forward 7 unknown #
loop $-1 $-1 $71 $40 #
plane-surface $-1 -55.183032609561522 -46.000456478367838 14.998658906103586 0 -0.73135370988377701 0.68199835119979291 1 0 0 forward_v I I I I #
loop $-1 $-1 $113 $26 #
coedge $-1 $69 $69 $70 $114 reversed $41 $-1 #
coedge $-1 $70 $70 $69 $114 forward $43 $-1 #
coedge $-1 $71 $71 $44 $72 forward $66 $-1 #
edge $-1 $115 2.9489812449829778e-015 $115 6.2831853071796031 $71 $116 forward 7 unknown #
loop $-1 $-1 $78 $45 #
plane-surface $-1 -55.183032609561522 -46.000456478367838 14.998658906103586 0 -0.73135370988377701 0.68199835119979291 1 0 0 forward_v I I I I #
loop $-1 $-1 $117 $29 #
coedge $-1 $76 $76 $77 $118 reversed $46 $-1 #
coedge $-1 $77 $77 $76 $118 forward $48 $-1 #
coedge $-1 $78 $78 $49 $79 forward $73 $-1 #
edge $-1 $119 2.9489812449829778e-015 $119 6.2831853071796031 $78 $120 forward 7 unknown #
face $-1 $121 $122 $12 $-1 $123 reversed single #
loop $-1 $-1 $124 $50 #
plane-surface $-1 -71.561021759697255 0 0 1 0 0 0 0 -1 forward_v I I I I #
coedge $-1 $125 $91 $126 $127 forward $51 $-1 #
coedge $-1 $128 $53 $125 $129 forward $33 $-1 #
coedge $-1 $53 $128 $130 $131 forward $33 $-1 #
coedge $-1 $94 $93 $53 $87 reversed $95 $-1 #
edge $-1 $132 -46.000456478367845 $133 46.000456478367845 $86 $134 forward 7 unknown #
coedge $-1 $55 $54 $135 $136 forward $21 $-1 #
coedge $-1 $137 $138 $54 $90 reversed $122 $-1 #
edge $-1 $97 -71.561021759697255 $139 71.561021759697255 $89 $140 forward 7 unknown #
coedge $-1 $83 $141 $55 $92 reversed $51 $-1 #
edge $-1 $142 -71.561021759697255 $96 71.561021759697255 $91 $143 forward 7 unknown #
coedge $-1 $86 $56 $141 $144 forward $95 $-1 #
coedge $-1 $56 $86 $137 $145 reversed $95 $-1 #
loop $-1 $-1 $93 $121 #
vertex $-1 $57 $146 #
vertex $-1 $57 $147 #
straight-curve $-1 71.561021759697255 0 22.556747169769071 0 1 0 I I #
face $-1 $-1 $148 $13 $-1 $149 reversed single #
loop $-1 $-1 $150 $58 #
plane-surface $-1 -71.561021759697255 0 0 1 0 0 0 0 -1 forward_v I I I I #
coedge $-1 $151 $61 $63 $108 forward $37 $-1 #
coedge $-1 $61 $151 $150 $152 reversed $37 $-1 #
coedge $-1 $153 $64 $61 $105 forward $59 $-1 #
edge $-1 $111 11.213527154645028 $154 43.969505454916494 $104 $155 forward 7 unknown #
coedge $-1 $156 $157 $62 $107 forward $148 $-1 #
edge $-1 $158 -41.305169397234245 $110 -33.747081133568756 $106 $159 forward 7 unknown #
edge $-1 $111 -10.334381519533935 $158 1.004247040074496e-014 $63 $160 forward 7 unknown #
coedge $-1 $64 $153 $156 $161 forward $59 $-1 #
vertex $-1 $107 $162 #
vertex $-1 $65 $163 #
straight-curve $-1 -38.805043459425789 -75.336646986212202 22.556747169769068 0 1 0 I I #
coedge $-1 $113 $113 $-1 $164 reversed $68 $-1 #
edge $-1 $165 0 $165 6.2831853071796004 $69 $166 forward 7 unknown #
vertex $-1 $72 $167 #
ellipse-curve $-1 -62.202170816762546 -42.476440899871967 18.777703037936327 0 -0.73135370988377701 0.68199835119979291 1 0 0 1 I I #
coedge $-1 $117 $117 $-1 $168 reversed $75 $-1 #
edge $-1 $169 0 $169 6.2831853071796004 $76 $170 forward 7 unknown #
vertex $-1 $79 $171 #
ellipse-curve $-1 -48.163894402360491 -42.476440899871967 18.777703037936327 0 -0.73135370988377701 0.68199835119979291 1 0 0 1 I I #
face $-1 $-1 $95 $12 $-1 $172 reversed single #
loop $-1 $-1 $137 $80 #
plane-surface $-1 0 46.000456478367845 0 0 -1 0 0 0 -1 forward_v I I I I #
coedge $-1 $173 $135 $138 $174 forward $81 $-1 #
coedge $-1 $141 $83 $84 $129 reversed $51 $-1 #
coedge $-1 $135 $173 $83 $127 reversed $81 $-1 #
edge $-1 $142 -22.556747169769071 $175 22.556747169769071 $126 $176 forward 7 unknown #
coedge $-1 $85 $84 $173 $177 forward $33 $-1 #
edge $-1 $133 -71.561021759697255 $175 71.561021759697255 $125 $178 forward 7 unknown #
coedge $-1 $138 $137 $85 $131 reversed $122 $-1 #
edge $-1 $179 -71.561021759697255 $132 71.561021759697255 $130 $180 forward 7 unknown #
vertex $-1 $87 $181 #
vertex $-1 $144 $182 #
straight-curve $-1 71.561021759697255 0 -22.556747169769071 0 -1 0 I I #
coedge $-1 $124 $126 $88 $136 reversed $81 $-1 #
edge $-1 $139 -46.000456478367845 $142 46.000456478367845 $135 $183 forward 7 unknown #
coedge $-1 $130 $89 $94 $145 forward $122 $-1 #
coedge $-1 $89 $130 $124 $174 reversed $122 $-1 #
vertex $-1 $90 $184 #
straight-curve $-1 0 46.000456478367845 22.556747169769071 -1 0 0 I I #
coedge $-1 $91 $125 $93 $144 reversed $51 $-1 #
vertex $-1 $136 $185 #
straight-curve $-1 0 -46.000456478367845 22.556747169769071 1 0 0 I I #
edge $-1 $96 -22.556747169769071 $133 22.556747169769071 $93 $186 forward 7 unknown #
edge $-1 $97 -22.556747169769071 $132 22.556747169769071 $94 $187 forward 7 unknown #
point $-1 71.561021759697255 -46.000456478367845 22.556747169769071 #
point $-1 71.561021759697255 46.000456478367845 22.556747169769071 #
loop $-1 $-1 $106 $99 #
plane-surface $-1 0 -46.000456478367845 0 0 1 0 0 0 1 forward_v I I I I #
coedge $-1 $188 $189 $103 $152 forward $100 $-1 #
coedge $-1 $103 $102 $157 $190 reversed $37 $-1 #
edge $-1 $154 -0.13292620032169311 $191 10.201455319212251 $150 $192 forward 7 unknown #
coedge $-1 $109 $104 $189 $193 forward $59 $-1 #
vertex $-1 $193 $194 #
straight-curve $-1 -27.591516304780761 -38.952425321376083 22.556747169769071 -1 0 0 I I #
coedge $-1 $195 $106 $109 $161 reversed $148 $-1 #
coedge $-1 $106 $195 $151 $190 forward $148 $-1 #
vertex $-1 $107 $196 #
straight-curve $-1 -38.805043459425789 -46.000456478367845 56.303828303337824 0 0 1 I I #
straight-curve $-1 -38.805043459425789 -46.000456478367838 14.998658906103586 0 -0.68199835119979291 -0.73135370988377701 I I #
edge $-1 $197 -71.561021759697255 $110 -38.805043459425789 $156 $198 forward 7 unknown #
point $-1 -38.805043459425789 -46.000456478367845 22.556747169769071 #
point $-1 -38.805043459425789 -38.952425321376083 22.556747169769071 #
edge $-1 $199 1 $199 0 $113 $-1 forward 7 unknown #
vertex $-1 $114 $200 #
ellipse-curve $-1 -62.202170816762546 -40.602557661644418 17.030278691083414 0 -0.73135370988377701 0.68199835119979291 1 0 0 1 I I #
point $-1 -61.202170816762546 -42.476440899871974 18.777703037936337 #
edge $-1 $201 1 $201 0 $117 $-1 forward 7 unknown #
vertex $-1 $118 $202 #
ellipse-curve $-1 -48.163894402360491 -40.602557661644418 17.030278691083414 0 -0.73135370988377701 0.68199835119979291 1 0 0 1 I I #
point $-1 -47.163894402360491 -42.476440899871974 18.777703037936337 #
plane-surface $-1 71.561021759697255 0 0 -1 0 0 0 0 1 forward_v I I I I #
coedge $-1 $126 $124 $128 $177 reversed $81 $-1 #
edge $-1 $139 -22.556747169769071 $179 22.556747169769071 $138 $203 forward 7 unknown #
vertex $-1 $177 $204 #
straight-curve $-1 -71.561021759697255 -46.000456478367845 0 0 0 -1 I I #
edge $-1 $175 -46.000456478367845 $179 46.000456478367845 $173 $205 forward 7 unknown #
straight-curve $-1 0 -46.000456478367845 -22.556747169769071 -1 0 0 I I #
vertex $-1 $131 $206 #
straight-curve $-1 0 46.000456478367845 -22.556747169769071 1 0 0 I I #
point $-1 71.561021759697255 46.000456478367845 -22.556747169769071 #
point $-1 71.561021759697255 -46.000456478367845 -22.556747169769071 #
straight-curve $-1 -71.561021759697255 0 22.556747169769071 0 -1 0 I I #
point $-1 -71.561021759697255 46.000456478367845 22.556747169769071 #
point $-1 -71.561021759697255 -46.000456478367845 22.556747169769071 #
straight-curve $-1 71.561021759697255 -46.000456478367845 0 0 0 -1 I I #
straight-curve $-1 71.561021759697255 46.000456478367845 0 0 0 -1 I I #
coedge $-1 $189 $150 $195 $207 reversed $100 $-1 #
coedge $-1 $150 $188 $153 $193 reversed $100 $-1 #
edge $-1 $191 -43.969505454916494 $158 -11.213527154645028 $157 $208 forward 7 unknown #
vertex $-1 $152 $209 #
straight-curve $-1 -71.561021759697255 -39.043080770826734 22.45953110002305 0 -0.68199835119979291 -0.73135370988377701 I I #
edge $-1 $154 38.952425321376083 $197 46.000456478367845 $189 $210 forward 7 unknown #
point $-1 -71.561021759697255 -38.952425321376083 22.556747169769071 #
coedge $-1 $157 $156 $188 $207 forward $148 $-1 #
point $-1 -38.805043459425789 -46.000456478367845 14.998658906103579 #
vertex $-1 $193 $211 #
straight-curve $-1 0 -46.000456478367845 22.556747169769071 1 0 0 I I #
vertex $-1 $164 $212 #
point $-1 -61.202170816762546 -40.602557661644418 17.030278691083414 #
vertex $-1 $168 $213 #
point $-1 -47.163894402360491 -40.602557661644418 17.030278691083414 #
straight-curve $-1 -71.561021759697255 46.000456478367845 0 0 0 -1 I I #
point $-1 -71.561021759697255 -46.000456478367845 -22.556747169769071 #
straight-curve $-1 -71.561021759697255 0 -22.556747169769071 0 1 0 I I #
point $-1 -71.561021759697255 46.000456478367845 -22.556747169769071 #
edge $-1 $197 -22.556747169769071 $191 -14.998658906103579 $188 $214 forward 7 unknown #
straight-curve $-1 -27.591516304780761 -46.000456478367845 14.998658906103572 1 0 0 I I #
point $-1 -71.561021759697255 -46.000456478367845 14.998658906103579 #
straight-curve $-1 -71.561021759697255 0 22.556747169769071 0 -1 0 I I #
point $-1 -71.561021759697255 -46.000456478367845 22.556747169769071 #
point $-1 -62.202170816762546 -39.871203951760641 16.348280339883619 #
point $-1 -48.163894402360491 -39.871203951760641 16.348280339883619 #
straight-curve $-1 -71.561021759697255 -46.000456478367845 0 0 0 -1 I I #
End-of-ACIS-data 