500 0 6 0           
7 Unknown 11 ACIS 5.0 NT 24 Fri Mar 26 17:53:06 1999 
-1 9.9999999999999995e-007 1e-010 
body $-1 $6 $-1 $7 #
body $-1 $8 $-1 $9 #
body $-1 $10 $-1 $11 #
body $-1 $12 $-1 $13 #
body $-1 $14 $-1 $15 #
body $-1 $16 $-1 $17 #
lump $-1 $-1 $18 $0 #
transform $-1 1 0 0 0 1 0 0 0 1 54.889370403149513 23.069884953005609 10.18420623936357 1 rotate no_reflect no_shear #
lump $-1 $-1 $19 $1 #
transform $-1 1 0 0 0 1 0 0 0 1 54.889370403149513 23.069884953005609 10.18420623936357 1 rotate no_reflect no_shear #
lump $-1 $-1 $20 $2 #
transform $-1 1 0 0 0 1 0 0 0 1 54.889370403149513 23.069884953005609 10.18420623936357 1 rotate no_reflect no_shear #
lump $-1 $-1 $21 $3 #
transform $-1 1 0 0 0 1 0 0 0 1 54.889370403149513 23.069884953005609 10.18420623936357 1 rotate no_reflect no_shear #
lump $-1 $-1 $22 $4 #
transform $-1 1 0 0 0 1 0 0 0 1 54.889370403149513 23.069884953005609 10.18420623936357 1 rotate no_reflect no_shear #
lump $-1 $-1 $23 $5 #
transform $-1 1 0 0 0 1 0 0 0 1 54.889370403149513 23.069884953005609 10.18420623936357 1 rotate no_reflect no_shear #
shell $-1 $-1 $-1 $24 $-1 $6 #
shell $-1 $-1 $-1 $25 $-1 $8 #
shell $-1 $-1 $-1 $26 $-1 $10 #
shell $-1 $-1 $-1 $27 $-1 $12 #
shell $-1 $-1 $-1 $28 $-1 $14 #
shell $-1 $-1 $-1 $29 $-1 $16 #
face $-1 $30 $31 $18 $-1 $32 forward single #
face $-1 $33 $34 $19 $-1 $35 forward single #
face $-1 $36 $37 $20 $-1 $38 forward single #
face $-1 $39 $40 $21 $-1 $41 reversed single #
face $-1 $42 $43 $22 $-1 $44 forward single #
face $-1 $45 $46 $23 $-1 $47 forward single #
face $-1 $48 $49 $18 $-1 $50 reversed single #
loop $-1 $-1 $51 $24 #
plane-surface $-1 0 0 10.18420623936357 0 0 1 1 0 0 forward_v I I I I #
face $-1 $52 $53 $19 $-1 $54 reversed single #
loop $-1 $-1 $55 $25 #
plane-surface $-1 -54.889370403149513 0 0 1 0 0 0 0 -1 forward_v I I I I #
face $-1 $56 $57 $20 $-1 $58 forward single #
loop $-1 $-1 $59 $26 #
plane-surface $-1 54.889370403149513 0 0 -1 0 0 0 0 1 forward_v I I I I #
face $-1 $60 $61 $21 $-1 $62 reversed single #
loop $-1 $-1 $63 $27 #
plane-surface $-1 39.917146605556411 -107.16528022996654 75.469941142958618 -1 0 0 0 -0.7660444514056185 0.64278759981090561 forward_v I I I I #
face $-1 $64 $65 $22 $-1 $66 forward single #
loop $-1 $67 $68 $28 #
cone-surface $-1 30.110192258125068 -19.379902326780279 6.3069315238656642 0 0.7660444514056185 -0.64278759981090561 1 0 0 1 I I 0 1 1 forward I I I I #
face $-1 $69 $70 $23 $-1 $71 forward single #
loop $-1 $72 $73 $29 #
cone-surface $-1 35.994364866583865 -19.379902326780279 6.3069315238656642 0 0.7660444514056185 -0.64278759981090561 1 0 0 1 I I 0 1 1 forward I I I I #
face $-1 $74 $75 $18 $-1 $76 reversed single #
loop $-1 $-1 $77 $30 #
plane-surface $-1 0 0 -10.18420623936357 0 0 1 1 0 0 forward_v I I I I #
coedge $-1 $78 $79 $80 $81 forward $31 $-1 #
face $-1 $82 $83 $19 $-1 $84 reversed single #
loop $-1 $-1 $85 $33 #
plane-surface $-1 0 23.069884953005609 0 0 -1 0 0 0 -1 forward_v I I I I #
coedge $-1 $86 $87 $88 $89 forward $34 $-1 #
face $-1 $90 $91 $20 $-1 $92 reversed single #
loop $-1 $-1 $93 $36 #
plane-surface $-1 0 0 10.18420623936357 0 0 1 1 0 0 forward_v I I I I #
coedge $-1 $94 $95 $96 $97 forward $37 $-1 #
face $-1 $98 $99 $21 $-1 $100 reversed single #
loop $-1 $-1 $101 $39 #
plane-surface $-1 33.052278562354473 -23.069884953005612 4.9055278298141474 0 -0.7660444514056185 0.64278759981090561 1 0 0 forward_v I I I I #
coedge $-1 $102 $103 $104 $105 reversed $40 $-1 #
face $-1 $-1 $106 $22 $-1 $107 forward single #
loop $-1 $108 $109 $42 #
cone-surface $-1 30.110192258125068 -17.521565970147655 4.7476022132370126 0 0.7660444514056185 -0.64278759981090561 0.5 0 0 1 I I -0.70710678118654746 0.70710678118654746 0.5 forward I I I I #
loop $-1 $-1 $110 $28 #
coedge $-1 $68 $68 $111 $112 reversed $43 $-1 #
face $-1 $-1 $113 $23 $-1 $114 forward single #
loop $-1 $115 $116 $45 #
cone-surface $-1 35.994364866583865 -17.521565970147655 4.7476022132370126 0 0.7660444514056185 -0.64278759981090561 0.5 0 0 1 I I -0.70710678118654746 0.70710678118654746 0.5 forward I I I I #
loop $-1 $-1 $117 $29 #
coedge $-1 $73 $73 $118 $119 reversed $46 $-1 #
face $-1 $120 $121 $18 $-1 $122 reversed single #
loop $-1 $-1 $123 $48 #
plane-surface $-1 0 -23.069884953005609 0 0 1 0 0 0 1 forward_v I I I I #
coedge $-1 $124 $125 $126 $127 forward $49 $-1 #
coedge $-1 $128 $51 $129 $130 forward $31 $-1 #
coedge $-1 $51 $128 $131 $132 forward $31 $-1 #
coedge $-1 $133 $134 $51 $81 reversed $135 $-1 #
edge $-1 $136 -23.069884953005609 $137 23.069884953005609 $80 $138 forward 7 unknown #
face $-1 $139 $140 $19 $-1 $141 reversed single #
loop $-1 $-1 $88 $52 #
plane-surface $-1 -59.842191673957558 0 7.1144918516045994 0 0 1 1 0 0 forward_v I I I I #
coedge $-1 $142 $143 $86 $144 forward $53 $-1 #
coedge $-1 $145 $55 $85 $144 reversed $34 $-1 #
coedge $-1 $55 $145 $146 $147 reversed $34 $-1 #
coedge $-1 $148 $149 $55 $89 reversed $83 $-1 #
edge $-1 $150 -23.069884953005609 $151 23.069884953005609 $88 $152 forward 7 unknown #
face $-1 $153 $154 $20 $-1 $155 reversed single #
loop $-1 $-1 $156 $56 #
plane-surface $-1 0 -23.069884953005609 0 0 1 0 0 0 1 forward_v I I I I #
coedge $-1 $157 $158 $159 $160 forward $57 $-1 #
coedge $-1 $159 $59 $156 $161 reversed $37 $-1 #
coedge $-1 $59 $159 $162 $163 reversed $37 $-1 #
coedge $-1 $164 $165 $59 $97 reversed $154 $-1 #
edge $-1 $166 -23.069884953005609 $167 23.069884953005609 $96 $168 forward 7 unknown #
face $-1 $169 $170 $21 $-1 $171 reversed single #
loop $-1 $-1 $172 $60 #
plane-surface $-1 26.187410519152536 -107.16528022996654 75.469941142958618 1 0 0 0 0.7660444514056185 -0.64278759981090561 forward_v I I I I #
coedge $-1 $173 $174 $175 $176 reversed $61 $-1 #
coedge $-1 $103 $63 $177 $178 reversed $40 $-1 #
coedge $-1 $63 $102 $173 $179 reversed $40 $-1 #
coedge $-1 $175 $180 $63 $105 forward $181 $-1 #
edge $-1 $182 30.512755161977662 $183 34.942092152568691 $104 $184 forward 7 unknown #
loop $-1 $-1 $111 $64 #
plane-surface $-1 33.052278562354473 -23.069884953005612 4.9055278298141474 0 -0.7660444514056185 0.64278759981090561 1 0 0 forward_v I I I I #
loop $-1 $-1 $185 $42 #
coedge $-1 $109 $109 $110 $186 reversed $65 $-1 #
coedge $-1 $110 $110 $109 $186 forward $67 $-1 #
coedge $-1 $111 $111 $68 $112 forward $106 $-1 #
edge $-1 $187 2.0411524508084747e-015 $187 6.2831853071796022 $111 $188 forward 7 unknown #
loop $-1 $-1 $118 $69 #
plane-surface $-1 33.052278562354473 -23.069884953005612 4.9055278298141474 0 -0.7660444514056185 0.64278759981090561 1 0 0 forward_v I I I I #
loop $-1 $-1 $189 $45 #
coedge $-1 $116 $116 $117 $190 reversed $70 $-1 #
coedge $-1 $117 $117 $116 $190 forward $72 $-1 #
coedge $-1 $118 $118 $73 $119 forward $113 $-1 #
edge $-1 $191 2.0411524508084747e-015 $191 6.2831853071796022 $118 $192 forward 7 unknown #
face $-1 $193 $194 $18 $-1 $195 reversed single #
loop $-1 $-1 $196 $74 #
plane-surface $-1 -54.889370403149513 0 0 1 0 0 0 0 -1 forward_v I I I I #
coedge $-1 $197 $131 $198 $199 forward $75 $-1 #
coedge $-1 $200 $77 $197 $201 forward $49 $-1 #
coedge $-1 $77 $200 $202 $203 forward $49 $-1 #
coedge $-1 $134 $133 $77 $127 reversed $135 $-1 #
edge $-1 $204 -23.069884953005609 $205 23.069884953005609 $126 $206 forward 7 unknown #
coedge $-1 $79 $78 $207 $208 forward $31 $-1 #
coedge $-1 $209 $210 $78 $130 reversed $194 $-1 #
edge $-1 $137 -54.889370403149513 $211 54.889370403149513 $129 $212 forward 7 unknown #
coedge $-1 $123 $213 $79 $132 reversed $75 $-1 #
edge $-1 $214 -54.889370403149513 $136 54.889370403149513 $131 $215 forward 7 unknown #
coedge $-1 $126 $80 $213 $216 forward $135 $-1 #
coedge $-1 $80 $126 $209 $217 reversed $135 $-1 #
loop $-1 $-1 $133 $193 #
vertex $-1 $81 $218 #
vertex $-1 $81 $219 #
straight-curve $-1 54.889370403149513 0 10.18420623936357 0 1 0 I I #
face $-1 $220 $221 $19 $-1 $222 forward single #
loop $-1 $-1 $223 $82 #
plane-surface $-1 -64.795012944765602 0 8.6493490454840849 1 0 0 0 0 -1 forward_v I I I I #
coedge $-1 $224 $85 $149 $225 reversed $53 $-1 #
coedge $-1 $85 $224 $226 $227 reversed $53 $-1 #
edge $-1 $228 -10.18420623936357 $151 -7.1144918516045994 $85 $229 forward 7 unknown #
coedge $-1 $87 $86 $230 $231 reversed $34 $-1 #
coedge $-1 $232 $233 $87 $147 forward $234 $-1 #
edge $-1 $150 7.1144918516045994 $235 10.18420623936357 $146 $236 forward 7 unknown #
coedge $-1 $237 $88 $233 $238 forward $83 $-1 #
coedge $-1 $88 $237 $142 $225 forward $83 $-1 #
vertex $-1 $147 $239 #
vertex $-1 $144 $240 #
straight-curve $-1 -54.889370403149513 0 7.1144918516045994 0 1 0 I I #
face $-1 $241 $242 $20 $-1 $243 reversed single #
loop $-1 $-1 $244 $90 #
plane-surface $-1 59.842191673957558 0 7.1144918516045994 0 0 1 1 0 0 forward_v I I I I #
coedge $-1 $245 $246 $94 $161 forward $91 $-1 #
coedge $-1 $247 $93 $246 $248 forward $57 $-1 #
coedge $-1 $93 $247 $249 $250 forward $57 $-1 #
coedge $-1 $95 $94 $93 $160 reversed $37 $-1 #
edge $-1 $251 -23.069884953005609 $252 23.069884953005609 $93 $253 forward 7 unknown #
edge $-1 $252 -10.18420623936357 $167 -7.1144918516045994 $156 $254 forward 7 unknown #
coedge $-1 $249 $255 $95 $163 forward $256 $-1 #
edge $-1 $166 7.1144918516045994 $251 10.18420623936357 $162 $257 forward 7 unknown #
coedge $-1 $244 $96 $255 $258 forward $154 $-1 #
coedge $-1 $96 $244 $245 $259 forward $154 $-1 #
vertex $-1 $163 $260 #
vertex $-1 $161 $261 #
straight-curve $-1 54.889370403149513 0 7.1144918516045994 0 -1 0 I I #
face $-1 $-1 $181 $21 $-1 $262 forward single #
loop $-1 $-1 $263 $98 #
plane-surface $-1 0 -23.069884953005609 0 0 1 0 0 0 1 forward_v I I I I #
coedge $-1 $264 $265 $266 $267 reversed $99 $-1 #
coedge $-1 $268 $101 $103 $179 forward $61 $-1 #
coedge $-1 $101 $268 $264 $269 forward $61 $-1 #
coedge $-1 $266 $104 $101 $176 forward $181 $-1 #
edge $-1 $183 -23.391007324379174 $270 -9.6612712379752992 $175 $271 forward 7 unknown #
coedge $-1 $272 $273 $102 $178 forward $170 $-1 #
edge $-1 $274 -32.829442741665154 $182 -27.55076433211574 $177 $275 forward 7 unknown #
edge $-1 $183 -6.8908251993256417 $274 -5.6855610497590068e-015 $103 $276 forward 7 unknown #
coedge $-1 $104 $266 $272 $277 forward $181 $-1 #
loop $-1 $-1 $266 $169 #
vertex $-1 $178 $278 #
vertex $-1 $105 $279 #
straight-curve $-1 39.917146605556411 -53.582640114983271 10.184206239363569 0 1 0 I I #
coedge $-1 $185 $185 $-1 $280 reversed $108 $-1 #
edge $-1 $281 0 $281 6.2831853071796004 $109 $282 forward 7 unknown #
vertex $-1 $112 $283 #
ellipse-curve $-1 30.110192258125068 -20.855216457710092 7.5448670345888624 0 -0.7660444514056185 0.64278759981090561 1 0 0 1 I I #
coedge $-1 $189 $189 $-1 $284 reversed $115 $-1 #
edge $-1 $285 0 $285 6.2831853071796004 $116 $286 forward 7 unknown #
vertex $-1 $119 $287 #
ellipse-curve $-1 35.994364866583865 -20.855216457710092 7.5448670345888624 0 -0.7660444514056185 0.64278759981090561 1 0 0 1 I I #
face $-1 $-1 $135 $18 $-1 $288 reversed single #
loop $-1 $-1 $209 $120 #
plane-surface $-1 0 23.069884953005609 0 0 -1 0 0 0 -1 forward_v I I I I #
coedge $-1 $289 $207 $210 $290 forward $121 $-1 #
coedge $-1 $213 $123 $124 $201 reversed $75 $-1 #
coedge $-1 $207 $289 $123 $199 reversed $121 $-1 #
edge $-1 $214 -10.18420623936357 $291 10.18420623936357 $198 $292 forward 7 unknown #
coedge $-1 $125 $124 $289 $293 forward $49 $-1 #
edge $-1 $205 -54.889370403149513 $291 54.889370403149513 $197 $294 forward 7 unknown #
coedge $-1 $210 $209 $125 $203 reversed $194 $-1 #
edge $-1 $295 -54.889370403149513 $204 54.889370403149513 $202 $296 forward 7 unknown #
vertex $-1 $127 $297 #
vertex $-1 $216 $298 #
straight-curve $-1 54.889370403149513 0 -10.18420623936357 0 -1 0 I I #
coedge $-1 $196 $198 $128 $208 reversed $121 $-1 #
edge $-1 $211 -23.069884953005609 $214 23.069884953005609 $207 $299 forward 7 unknown #
coedge $-1 $202 $129 $134 $217 forward $194 $-1 #
coedge $-1 $129 $202 $196 $290 reversed $194 $-1 #
vertex $-1 $130 $300 #
straight-curve $-1 0 23.069884953005609 10.18420623936357 -1 0 0 I I #
coedge $-1 $131 $197 $133 $216 reversed $75 $-1 #
vertex $-1 $208 $301 #
straight-curve $-1 0 -23.069884953005609 10.18420623936357 1 0 0 I I #
edge $-1 $136 -10.18420623936357 $205 10.18420623936357 $133 $302 forward 7 unknown #
edge $-1 $137 -10.18420623936357 $204 10.18420623936357 $134 $303 forward 7 unknown #
point $-1 54.889370403149513 -23.069884953005609 10.18420623936357 #
point $-1 54.889370403149513 23.069884953005609 10.18420623936357 #
face $-1 $-1 $234 $19 $-1 $304 reversed single #
loop $-1 $-1 $230 $139 #
plane-surface $-1 0 0 10.18420623936357 0 0 1 1 0 0 forward_v I I I I #
coedge $-1 $305 $306 $224 $307 forward $140 $-1 #
coedge $-1 $143 $142 $223 $307 reversed $53 $-1 #
edge $-1 $308 -4.9528212708080446 $151 4.9528212708080446 $142 $309 forward 7 unknown #
coedge $-1 $310 $230 $143 $227 forward $221 $-1 #
edge $-1 $228 54.889370403149513 $311 64.795012944765602 $143 $312 forward 7 unknown #
vertex $-1 $227 $313 #
straight-curve $-1 -54.889370403149513 23.069884953005609 0 0 0 -1 I I #
coedge $-1 $226 $314 $145 $231 forward $221 $-1 #
edge $-1 $235 -23.069884953005609 $228 23.069884953005609 $230 $315 forward 7 unknown #
coedge $-1 $316 $146 $314 $317 reversed $234 $-1 #
coedge $-1 $146 $316 $148 $238 reversed $234 $-1 #
loop $-1 $-1 $146 $220 #
vertex $-1 $147 $318 #
straight-curve $-1 -54.889370403149513 -23.069884953005609 0 0 0 1 I I #
coedge $-1 $149 $148 $305 $319 forward $83 $-1 #
edge $-1 $150 -4.9528212708080446 $320 4.9528212708080446 $233 $321 forward 7 unknown #
point $-1 -54.889370403149513 -23.069884953005609 7.1144918516045994 #
point $-1 -54.889370403149513 23.069884953005609 7.1144918516045994 #
face $-1 $-1 $256 $20 $-1 $322 reversed single #
loop $-1 $-1 $323 $153 #
plane-surface $-1 64.795012944765602 0 8.6493490454840849 -1 0 0 0 0 1 forward_v I I I I #
coedge $-1 $165 $164 $324 $325 forward $154 $-1 #
coedge $-1 $326 $156 $165 $259 reversed $91 $-1 #
coedge $-1 $156 $326 $157 $248 reversed $91 $-1 #
coedge $-1 $158 $157 $327 $328 forward $57 $-1 #
edge $-1 $252 -4.9528212708080446 $329 4.9528212708080446 $246 $330 forward 7 unknown #
coedge $-1 $331 $162 $158 $250 reversed $256 $-1 #
edge $-1 $332 -64.795012944765602 $251 -54.889370403149513 $249 $333 forward 7 unknown #
vertex $-1 $163 $334 #
vertex $-1 $248 $335 #
straight-curve $-1 54.889370403149513 0 10.18420623936357 0 -1 0 I I #
straight-curve $-1 54.889370403149513 -23.069884953005609 0 0 0 -1 I I #
coedge $-1 $162 $331 $164 $258 reversed $256 $-1 #
loop $-1 $-1 $162 $241 #
straight-curve $-1 54.889370403149513 23.069884953005609 0 0 0 1 I I #
edge $-1 $166 -4.9528212708080446 $336 4.9528212708080446 $255 $337 forward 7 unknown #
edge $-1 $338 -4.9528212708080446 $167 4.9528212708080446 $245 $339 forward 7 unknown #
point $-1 54.889370403149513 23.069884953005609 7.1144918516045994 #
point $-1 54.889370403149513 -23.069884953005609 7.1144918516045994 #
plane-surface $-1 0 0 10.18420623936357 0 0 1 1 0 0 forward_v I I I I #
coedge $-1 $273 $272 $265 $340 forward $170 $-1 #
coedge $-1 $265 $172 $174 $269 reversed $99 $-1 #
coedge $-1 $172 $264 $263 $340 reversed $99 $-1 #
coedge $-1 $180 $175 $172 $267 forward $181 $-1 #
edge $-1 $270 -34.942092152568691 $341 -30.512755161977662 $266 $342 forward 7 unknown #
coedge $-1 $174 $173 $273 $343 reversed $61 $-1 #
edge $-1 $344 5.6855610497590068e-015 $270 6.8908251993256417 $264 $345 forward 7 unknown #
vertex $-1 $176 $346 #
straight-curve $-1 16.526139281177237 -18.640547962414576 10.18420623936357 -1 0 0 I I #
coedge $-1 $263 $177 $180 $277 reversed $170 $-1 #
coedge $-1 $177 $263 $268 $343 forward $170 $-1 #
vertex $-1 $178 $347 #
straight-curve $-1 39.917146605556411 -23.069884953005612 37.734970571479309 0 0 1 I I #
straight-curve $-1 39.917146605556411 -23.069884953005612 4.9055278298141474 0 -0.64278759981090561 -0.7660444514056185 I I #
edge $-1 $341 -33.654781154805022 $182 -19.925045068401147 $272 $348 forward 7 unknown #
point $-1 39.917146605556411 -23.069884953005609 10.18420623936357 #
point $-1 39.917146605556411 -18.64054796241458 10.18420623936357 #
edge $-1 $349 1 $349 0 $185 $-1 forward 7 unknown #
vertex $-1 $186 $350 #
ellipse-curve $-1 30.110192258125068 -17.904588195850465 5.0689960131424652 0 -0.7660444514056185 0.64278759981090561 1 0 0 1 I I #
point $-1 31.110192258125068 -20.855216457710092 7.5448670345888651 #
edge $-1 $351 1 $351 0 $189 $-1 forward 7 unknown #
vertex $-1 $190 $352 #
ellipse-curve $-1 35.994364866583865 -17.904588195850465 5.0689960131424652 0 -0.7660444514056185 0.64278759981090561 1 0 0 1 I I #
point $-1 36.994364866583865 -20.855216457710092 7.5448670345888651 #
plane-surface $-1 54.889370403149513 0 0 -1 0 0 0 0 1 forward_v I I I I #
coedge $-1 $198 $196 $200 $293 reversed $121 $-1 #
edge $-1 $211 -10.18420623936357 $295 10.18420623936357 $210 $353 forward 7 unknown #
vertex $-1 $293 $354 #
straight-curve $-1 -54.889370403149513 -23.069884953005609 0 0 0 -1 I I #
edge $-1 $291 -23.069884953005609 $295 23.069884953005609 $289 $355 forward 7 unknown #
straight-curve $-1 0 -23.069884953005609 -10.18420623936357 -1 0 0 I I #
vertex $-1 $203 $356 #
straight-curve $-1 0 23.069884953005609 -10.18420623936357 1 0 0 I I #
point $-1 54.889370403149513 23.069884953005609 -10.18420623936357 #
point $-1 54.889370403149513 -23.069884953005609 -10.18420623936357 #
straight-curve $-1 -54.889370403149513 0 10.18420623936357 0 -1 0 I I #
point $-1 -54.889370403149513 23.069884953005609 10.18420623936357 #
point $-1 -54.889370403149513 -23.069884953005609 10.18420623936357 #
straight-curve $-1 54.889370403149513 -23.069884953005609 0 0 0 -1 I I #
straight-curve $-1 54.889370403149513 23.069884953005609 0 0 0 -1 I I #
plane-surface $-1 0 -23.069884953005609 0 0 1 0 0 0 1 forward_v I I I I #
coedge $-1 $357 $223 $237 $319 reversed $140 $-1 #
coedge $-1 $223 $357 $310 $358 reversed $140 $-1 #
edge $-1 $311 -1.5348571938794855 $308 1.5348571938794855 $224 $359 forward 7 unknown #
vertex $-1 $225 $360 #
straight-curve $-1 -59.842191673957558 23.069884953005609 7.1144918516045994 1 0 0 I I #
coedge $-1 $314 $226 $306 $358 forward $221 $-1 #
vertex $-1 $227 $361 #
straight-curve $-1 0 23.069884953005609 10.18420623936357 -1 0 0 I I #
point $-1 -54.889370403149513 23.069884953005609 10.18420623936357 #
coedge $-1 $230 $310 $232 $317 forward $221 $-1 #
straight-curve $-1 -54.889370403149513 0 10.18420623936357 0 1 0 I I #
coedge $-1 $233 $232 $357 $362 forward $234 $-1 #
edge $-1 $363 -64.795012944765602 $235 -54.889370403149513 $232 $364 forward 7 unknown #
point $-1 -54.889370403149513 -23.069884953005609 10.18420623936357 #
edge $-1 $320 -23.069884953005609 $308 23.069884953005609 $305 $365 forward 7 unknown #
vertex $-1 $319 $366 #
straight-curve $-1 -59.842191673957558 -23.069884953005609 7.1144918516045994 -1 0 0 I I #
plane-surface $-1 0 23.069884953005609 0 0 -1 0 0 0 -1 forward_v I I I I #
coedge $-1 $324 $327 $326 $367 forward $242 $-1 #
coedge $-1 $368 $323 $244 $325 reversed $242 $-1 #
edge $-1 $336 -23.069884953005609 $338 23.069884953005609 $324 $369 forward 7 unknown #
coedge $-1 $246 $245 $323 $367 reversed $91 $-1 #
coedge $-1 $323 $368 $247 $328 reversed $242 $-1 #
edge $-1 $329 -23.069884953005609 $332 23.069884953005609 $327 $370 forward 7 unknown #
vertex $-1 $328 $371 #
straight-curve $-1 59.842191673957558 -23.069884953005609 10.18420623936357 1 0 0 I I #
coedge $-1 $255 $249 $368 $372 forward $256 $-1 #
vertex $-1 $328 $373 #
straight-curve $-1 0 23.069884953005609 10.18420623936357 -1 0 0 I I #
point $-1 54.889370403149513 23.069884953005609 10.18420623936357 #
point $-1 54.889370403149513 -23.069884953005609 10.18420623936357 #
vertex $-1 $325 $374 #
straight-curve $-1 59.842191673957558 23.069884953005609 7.1144918516045994 1 0 0 I I #
vertex $-1 $367 $375 #
straight-curve $-1 59.842191673957558 -23.069884953005609 7.1144918516045994 -1 0 0 I I #
edge $-1 $341 27.55076433211574 $344 32.829442741665154 $263 $376 forward 7 unknown #
vertex $-1 $277 $377 #
straight-curve $-1 26.187410519152536 -53.582640114983271 10.184206239363569 0 -1 0 I I #
edge $-1 $344 9.6612712379752992 $274 23.391007324379174 $273 $378 forward 7 unknown #
vertex $-1 $343 $379 #
straight-curve $-1 26.187410519152536 -23.069884953005612 4.9055278298141474 0 0.64278759981090561 0.7660444514056185 I I #
point $-1 26.187410519152536 -18.64054796241458 10.18420623936357 #
point $-1 39.917146605556411 -23.069884953005609 4.9055278298141518 #
straight-curve $-1 59.842191673957558 -23.069884953005609 10.18420623936357 1 0 0 I I #
vertex $-1 $280 $380 #
point $-1 31.110192258125068 -17.904588195850465 5.0689960131424652 #
vertex $-1 $284 $381 #
point $-1 36.994364866583865 -17.904588195850465 5.0689960131424652 #
straight-curve $-1 -54.889370403149513 23.069884953005609 0 0 0 -1 I I #
point $-1 -54.889370403149513 -23.069884953005609 -10.18420623936357 #
straight-curve $-1 -54.889370403149513 0 -10.18420623936357 0 1 0 I I #
point $-1 -54.889370403149513 23.069884953005609 -10.18420623936357 #
coedge $-1 $306 $305 $316 $362 reversed $140 $-1 #
edge $-1 $311 -23.069884953005609 $363 23.069884953005609 $306 $382 forward 7 unknown #
straight-curve $-1 -64.795012944765602 23.069884953005609 8.6493490454840849 0 0 -1 I I #
point $-1 -64.795012944765602 23.069884953005609 7.1144918516045994 #
point $-1 -64.795012944765602 23.069884953005609 10.18420623936357 #
edge $-1 $363 -1.5348571938794855 $320 1.5348571938794855 $357 $383 forward 7 unknown #
vertex $-1 $358 $384 #
straight-curve $-1 0 -23.069884953005609 10.18420623936357 1 0 0 I I #
straight-curve $-1 -64.795012944765602 0 7.1144918516045994 0 1 0 I I #
point $-1 -64.795012944765602 -23.069884953005609 7.1144918516045994 #
edge $-1 $329 -1.5348571938794855 $338 1.5348571938794855 $323 $385 forward 7 unknown #
coedge $-1 $327 $324 $331 $372 reversed $242 $-1 #
straight-curve $-1 64.795012944765602 0 7.1144918516045994 0 -1 0 I I #
straight-curve $-1 64.795012944765602 0 10.18420623936357 0 1 0 I I #
point $-1 64.795012944765602 -23.069884953005609 10.18420623936357 #
edge $-1 $332 -1.5348571938794855 $336 1.5348571938794855 $368 $386 forward 7 unknown #
point $-1 64.795012944765602 23.069884953005609 10.18420623936357 #
point $-1 64.795012944765602 23.069884953005609 7.1144918516045994 #
point $-1 64.795012944765602 -23.069884953005609 7.1144918516045994 #
straight-curve $-1 26.187410519152536 -23.069884953005612 37.734970571479309 0 0 -1 I I #
point $-1 26.187410519152536 -23.069884953005609 10.18420623936357 #
straight-curve $-1 16.526139281177237 -23.069884953005609 4.9055278298141545 1 0 0 I I #
point $-1 26.187410519152536 -23.069884953005609 4.9055278298141518 #
point $-1 30.110192258125068 -17.138543744444846 4.42620841333156 #
point $-1 35.994364866583865 -17.138543744444846 4.42620841333156 #
straight-curve $-1 -64.795012944765602 0 10.18420623936357 0 -1 0 I I #
straight-curve $-1 -64.795012944765602 -23.069884953005609 8.6493490454840849 0 0 -1 I I #
point $-1 -64.795012944765602 -23.069884953005609 10.18420623936357 #
straight-curve $-1 64.795012944765602 -23.069884953005609 8.6493490454840849 0 0 -1 I I #
straight-curve $-1 64.795012944765602 23.069884953005609 8.6493490454840849 0 0 -1 I I #
End-of-ACIS-data 