500 0 8 0           
7 Unknown 11 ACIS 5.0 NT 24 Thu Mar 25 18:57:19 1999 
-1 9.9999999999999995e-007 1e-010 
body $-1 $8 $-1 $9 #
body $-1 $10 $-1 $11 #
body $-1 $12 $-1 $13 #
body $-1 $14 $-1 $15 #
body $-1 $16 $-1 $17 #
body $-1 $18 $-1 $19 #
body $-1 $20 $-1 $21 #
body $-1 $22 $-1 $23 #
lump $-1 $-1 $24 $0 #
transform $-1 1 0 0 0 1 0 0 0 1 59.594103823969235 24.376165475700468 7.3404492319050165 1 rotate no_reflect no_shear #
lump $-1 $-1 $25 $1 #
transform $-1 1 0 0 0 1 0 0 0 1 59.594103823969235 24.376165475700468 7.3404492319050165 1 rotate no_reflect no_shear #
lump $-1 $-1 $26 $2 #
transform $-1 1 0 0 0 1 0 0 0 1 59.594103823969235 24.376165475700468 7.3404492319050165 1 rotate no_reflect no_shear #
lump $-1 $-1 $27 $3 #
transform $-1 1 0 0 0 1 0 0 0 1 59.594103823969235 24.376165475700468 7.3404492319050165 1 rotate no_reflect no_shear #
lump $-1 $-1 $28 $4 #
transform $-1 1 0 0 0 1 0 0 0 1 59.594103823969235 24.376165475700468 7.3404492319050165 1 rotate no_reflect no_shear #
lump $-1 $-1 $29 $5 #
transform $-1 1 0 0 0 1 0 0 0 1 59.594103823969235 24.376165475700468 7.3404492319050165 1 rotate no_reflect no_shear #
lump $-1 $-1 $30 $6 #
transform $-1 1 0 0 0 1 0 0 0 1 59.594103823969235 24.376165475700468 7.3404492319050165 1 rotate no_reflect no_shear #
lump $-1 $-1 $31 $7 #
transform $-1 1 0 0 0 1 0 0 0 1 59.594103823969235 24.376165475700468 7.3404492319050165 1 rotate no_reflect no_shear #
shell $-1 $-1 $-1 $32 $-1 $8 #
shell $-1 $-1 $-1 $33 $-1 $10 #
shell $-1 $-1 $-1 $34 $-1 $12 #
shell $-1 $-1 $-1 $35 $-1 $14 #
shell $-1 $-1 $-1 $36 $-1 $16 #
shell $-1 $-1 $-1 $37 $-1 $18 #
shell $-1 $-1 $-1 $38 $-1 $20 #
shell $-1 $-1 $-1 $39 $-1 $22 #
face $-1 $40 $41 $24 $-1 $42 forward single #
face $-1 $43 $44 $25 $-1 $45 reversed single #
face $-1 $46 $47 $26 $-1 $48 reversed single #
face $-1 $49 $50 $27 $-1 $51 reversed single #
face $-1 $52 $53 $28 $-1 $54 forward single #
face $-1 $55 $56 $29 $-1 $57 reversed single #
face $-1 $58 $59 $30 $-1 $60 forward single #
face $-1 $61 $62 $31 $-1 $63 forward single #
face $-1 $64 $65 $24 $-1 $66 reversed single #
loop $-1 $-1 $67 $32 #
plane-surface $-1 0 0 7.3404492319050165 0 0 1 1 0 0 forward_v I I I I #
face $-1 $68 $69 $25 $-1 $70 reversed single #
loop $-1 $-1 $71 $33 #
plane-surface $-1 -55.526522256523336 -13.35095275778616 0 0 1 0 0 0 1 forward_v I I I I #
face $-1 $72 $73 $26 $-1 $74 reversed single #
loop $-1 $-1 $75 $34 #
plane-surface $-1 55.526522256523336 -13.35095275778616 0 0 1 0 0 0 1 forward_v I I I I #
face $-1 $76 $77 $27 $-1 $78 reversed single #
loop $-1 $-1 $79 $35 #
plane-surface $-1 51.45894068907743 -110.11298794987192 85.812880868154181 -1 0 0 0 -0.71933980857756763 0.69465836192734942 forward_v I I I I #
face $-1 $80 $81 $28 $-1 $82 forward single #
loop $-1 $83 $84 $36 #
cone-surface $-1 38.708298721589145 -21.558636264129063 4.4738217764392498 0 0.71933980857756763 -0.69465836192734942 1 0 0 1 I I 0 1 1 forward I I I I #
face $-1 $85 $86 $29 $-1 $87 reversed single #
loop $-1 $-1 $88 $37 #
plane-surface $-1 -51.458940689077444 50.60785236668287 128.6539915943504 1 0 0 0 -0.55919291073839883 -0.82903756765294845 forward_v I I I I #
face $-1 $89 $90 $30 $-1 $91 forward single #
loop $-1 $92 $93 $38 #
cone-surface $-1 -48.282952007211733 20.42017540871969 4.3266122328285634 0 -0.55919291073839883 -0.82903756765294845 1 0 0 1 I I 0 1 1 forward I I I I #
face $-1 $94 $95 $31 $-1 $96 forward single #
loop $-1 $97 $98 $39 #
cone-surface $-1 -43.518968984413171 20.42017540871969 4.3266122328285634 0 -0.55919291073839883 -0.82903756765294845 1 0 0 1 I I 0 1 1 forward I I I I #
face $-1 $99 $100 $24 $-1 $101 reversed single #
loop $-1 $-1 $102 $40 #
plane-surface $-1 0 0 -7.3404492319050165 0 0 1 1 0 0 forward_v I I I I #
coedge $-1 $103 $104 $105 $106 forward $41 $-1 #
face $-1 $107 $108 $25 $-1 $109 reversed single #
loop $-1 $-1 $110 $43 #
plane-surface $-1 -55.526522256523336 -9.6952670118904365 0 0 -1 0 0 0 -1 forward_v I I I I #
coedge $-1 $111 $112 $113 $114 reversed $44 $-1 #
face $-1 $115 $116 $26 $-1 $117 reversed single #
loop $-1 $-1 $118 $46 #
plane-surface $-1 51.458940689077437 -11.523109884838298 0 1 0 0 0 0 -1 forward_v I I I I #
coedge $-1 $119 $120 $121 $122 forward $47 $-1 #
face $-1 $123 $124 $27 $-1 $125 reversed single #
loop $-1 $-1 $126 $49 #
plane-surface $-1 38.708298721589145 -24.376165475700475 3.0177957823804604 0 -0.71933980857756763 0.69465836192734942 1 0 0 forward_v I I I I #
coedge $-1 $127 $128 $129 $130 reversed $50 $-1 #
face $-1 $-1 $131 $28 $-1 $132 forward single #
loop $-1 $133 $134 $52 #
cone-surface $-1 38.708298721589145 -20.468606055522915 3.4211918647720934 0 0.71933980857756763 -0.69465836192734942 0.5 0 0 1 I I -0.70710678118654779 0.70710678118654713 0.5 forward I I I I #
loop $-1 $-1 $135 $36 #
coedge $-1 $84 $84 $136 $137 reversed $53 $-1 #
face $-1 $138 $139 $29 $-1 $140 reversed single #
loop $-1 $-1 $141 $55 #
plane-surface $-1 -45.900960495812456 -16.041348393660535 29.842489832988946 0 0.55919291073839883 0.82903756765294845 1 0 0 forward_v I I I I #
coedge $-1 $142 $143 $144 $145 reversed $56 $-1 #
face $-1 $-1 $146 $30 $-1 $147 forward single #
loop $-1 $148 $149 $58 #
cone-surface $-1 -48.282952007211733 19.713022582941711 3.2782150743814915 0 -0.55919291073839883 -0.82903756765294845 0.5 0 0 1 I I -0.70710678118654724 0.70710678118654791 0.5 forward I I I I #
loop $-1 $-1 $150 $38 #
coedge $-1 $93 $93 $151 $152 reversed $59 $-1 #
face $-1 $-1 $153 $31 $-1 $154 forward single #
loop $-1 $155 $156 $61 #
cone-surface $-1 -43.518968984413171 19.713022582941711 3.2782150743814915 0 -0.55919291073839883 -0.82903756765294845 0.5 0 0 1 I I -0.70710678118654724 0.70710678118654791 0.5 forward I I I I #
loop $-1 $-1 $157 $39 #
coedge $-1 $98 $98 $158 $159 reversed $62 $-1 #
face $-1 $160 $161 $24 $-1 $162 reversed single #
loop $-1 $-1 $163 $64 #
plane-surface $-1 0 -24.376165475700468 0 0 1 0 0 0 1 forward_v I I I I #
coedge $-1 $164 $165 $166 $167 forward $65 $-1 #
coedge $-1 $168 $67 $169 $170 forward $41 $-1 #
coedge $-1 $67 $168 $171 $172 forward $41 $-1 #
coedge $-1 $173 $174 $67 $106 reversed $175 $-1 #
edge $-1 $176 -24.376165475700468 $177 24.376165475700468 $105 $178 forward 7 unknown #
face $-1 $179 $180 $25 $-1 $181 reversed single #
loop $-1 $-1 $182 $68 #
plane-surface $-1 -51.458940689077437 -11.523109884838298 0 -1 0 0 0 0 1 forward_v I I I I #
coedge $-1 $183 $184 $185 $186 forward $69 $-1 #
coedge $-1 $187 $71 $188 $189 reversed $44 $-1 #
coedge $-1 $71 $187 $190 $191 reversed $44 $-1 #
coedge $-1 $192 $193 $71 $114 forward $194 $-1 #
edge $-1 $195 -7.3404492319050165 $196 7.3404492319050165 $113 $197 forward 7 unknown #
face $-1 $198 $199 $26 $-1 $200 reversed single #
loop $-1 $-1 $201 $72 #
plane-surface $-1 55.526522256523336 -9.6952670118904365 0 0 -1 0 0 0 -1 forward_v I I I I #
coedge $-1 $202 $203 $204 $205 forward $73 $-1 #
coedge $-1 $206 $75 $207 $208 reversed $47 $-1 #
coedge $-1 $75 $206 $209 $210 reversed $47 $-1 #
coedge $-1 $203 $202 $75 $122 reversed $73 $-1 #
edge $-1 $211 -7.3404492319050165 $212 7.3404492319050165 $121 $213 forward 7 unknown #
face $-1 $214 $215 $27 $-1 $216 forward single #
loop $-1 $-1 $217 $76 #
plane-surface $-1 25.95765675410086 -110.11298794987192 85.812880868154181 1 0 0 0 0.71933980857756763 -0.69465836192734942 forward_v I I I I #
coedge $-1 $218 $219 $220 $221 reversed $77 $-1 #
coedge $-1 $128 $79 $222 $223 reversed $50 $-1 #
coedge $-1 $79 $127 $218 $224 reversed $50 $-1 #
coedge $-1 $220 $225 $79 $130 forward $215 $-1 #
edge $-1 $226 30.680328499235493 $227 34.85466631374355 $129 $228 forward 7 unknown #
loop $-1 $-1 $136 $80 #
plane-surface $-1 38.708298721589145 -24.376165475700475 3.0177957823804604 0 -0.71933980857756763 0.69465836192734942 1 0 0 forward_v I I I I #
loop $-1 $-1 $229 $52 #
coedge $-1 $134 $134 $135 $230 reversed $81 $-1 #
coedge $-1 $135 $135 $134 $230 forward $83 $-1 #
coedge $-1 $136 $136 $84 $137 forward $131 $-1 #
edge $-1 $231 3.7584375502937015e-016 $231 6.2831853071796004 $136 $232 forward 7 unknown #
face $-1 $233 $234 $29 $-1 $235 reversed single #
loop $-1 $-1 $236 $85 #
plane-surface $-1 -40.342980302547467 50.60785236668287 128.6539915943504 -1 0 0 0 0.55919291073839883 0.82903756765294845 forward_v I I I I #
coedge $-1 $237 $238 $239 $240 reversed $86 $-1 #
coedge $-1 $143 $88 $241 $242 reversed $56 $-1 #
coedge $-1 $88 $142 $237 $243 reversed $56 $-1 #
coedge $-1 $239 $244 $88 $145 forward $245 $-1 #
edge $-1 $246 0.9277607076409673 $247 7.9846281007849349 $144 $248 forward 7 unknown #
loop $-1 $-1 $151 $89 #
plane-surface $-1 -45.900960495812456 -16.041348393660535 29.842489832988946 0 0.55919291073839883 0.82903756765294845 1 0 0 forward_v I I I I #
loop $-1 $-1 $249 $58 #
coedge $-1 $149 $149 $150 $250 reversed $90 $-1 #
coedge $-1 $150 $150 $149 $250 forward $92 $-1 #
coedge $-1 $151 $151 $93 $152 forward $146 $-1 #
edge $-1 $251 5.3130842352988438e-016 $251 6.2831853071796013 $151 $252 forward 7 unknown #
loop $-1 $-1 $158 $94 #
plane-surface $-1 -45.900960495812456 -16.041348393660535 29.842489832988946 0 0.55919291073839883 0.82903756765294845 1 0 0 forward_v I I I I #
loop $-1 $-1 $253 $61 #
coedge $-1 $156 $156 $157 $254 reversed $95 $-1 #
coedge $-1 $157 $157 $156 $254 forward $97 $-1 #
coedge $-1 $158 $158 $98 $159 forward $153 $-1 #
edge $-1 $255 5.3130842352988438e-016 $255 6.2831853071796013 $158 $256 forward 7 unknown #
face $-1 $257 $258 $24 $-1 $259 reversed single #
loop $-1 $-1 $260 $99 #
plane-surface $-1 -59.594103823969235 0 0 1 0 0 0 0 -1 forward_v I I I I #
coedge $-1 $261 $171 $262 $263 forward $100 $-1 #
coedge $-1 $264 $102 $261 $265 forward $65 $-1 #
coedge $-1 $102 $264 $266 $267 forward $65 $-1 #
coedge $-1 $174 $173 $102 $167 reversed $175 $-1 #
edge $-1 $268 -24.376165475700468 $269 24.376165475700468 $166 $270 forward 7 unknown #
coedge $-1 $104 $103 $271 $272 forward $41 $-1 #
coedge $-1 $273 $274 $103 $170 reversed $258 $-1 #
edge $-1 $177 -59.594103823969235 $275 59.594103823969235 $169 $276 forward 7 unknown #
coedge $-1 $163 $277 $104 $172 reversed $100 $-1 #
edge $-1 $278 -59.594103823969235 $176 59.594103823969235 $171 $279 forward 7 unknown #
coedge $-1 $166 $105 $277 $280 forward $175 $-1 #
coedge $-1 $105 $166 $273 $281 reversed $175 $-1 #
loop $-1 $-1 $173 $257 #
vertex $-1 $106 $282 #
vertex $-1 $106 $283 #
straight-curve $-1 59.594103823969235 0 7.3404492319050165 0 1 0 I I #
face $-1 $284 $285 $25 $-1 $286 forward single #
loop $-1 $-1 $287 $107 #
plane-surface $-1 0 0 -7.3404492319050165 0 0 1 1 0 0 forward_v I I I I #
coedge $-1 $288 $289 $187 $290 forward $108 $-1 #
coedge $-1 $291 $110 $287 $292 reversed $69 $-1 #
coedge $-1 $110 $291 $293 $294 reversed $69 $-1 #
coedge $-1 $289 $288 $110 $186 reversed $108 $-1 #
edge $-1 $295 -7.3404492319050165 $296 7.3404492319050165 $185 $297 forward 7 unknown #
coedge $-1 $112 $111 $182 $290 reversed $44 $-1 #
coedge $-1 $298 $299 $111 $189 forward $180 $-1 #
edge $-1 $300 23.695679560815769 $195 31.830842695707567 $188 $301 forward 7 unknown #
coedge $-1 $302 $303 $112 $191 forward $285 $-1 #
edge $-1 $196 -31.830842695707567 $304 -23.695679560815769 $190 $305 forward 7 unknown #
coedge $-1 $306 $113 $303 $307 reversed $194 $-1 #
coedge $-1 $113 $306 $298 $308 reversed $194 $-1 #
loop $-1 $-1 $306 $284 #
vertex $-1 $308 $309 #
vertex $-1 $114 $310 #
straight-curve $-1 -59.594103823969235 -13.35095275778616 0 0 0 1 I I #
face $-1 $311 $312 $26 $-1 $313 forward single #
loop $-1 $-1 $207 $115 #
plane-surface $-1 0 0 -7.3404492319050165 0 0 1 1 0 0 forward_v I I I I #
coedge $-1 $314 $315 $316 $317 reversed $116 $-1 #
coedge $-1 $121 $118 $318 $319 reversed $73 $-1 #
coedge $-1 $118 $121 $320 $321 reversed $73 $-1 #
coedge $-1 $315 $314 $118 $205 reversed $116 $-1 #
edge $-1 $322 -7.3404492319050165 $323 7.3404492319050165 $204 $324 forward 7 unknown #
coedge $-1 $120 $119 $325 $326 reversed $47 $-1 #
coedge $-1 $318 $327 $119 $208 forward $199 $-1 #
edge $-1 $328 -31.830842695707567 $212 -23.695679560815769 $207 $329 forward 7 unknown #
coedge $-1 $330 $320 $120 $210 forward $312 $-1 #
edge $-1 $211 23.695679560815769 $331 31.830842695707567 $209 $332 forward 7 unknown #
vertex $-1 $210 $333 #
vertex $-1 $208 $334 #
straight-curve $-1 51.458940689077437 -13.35095275778616 0 0 0 -1 I I #
face $-1 $-1 $335 $27 $-1 $336 reversed single #
loop $-1 $-1 $129 $123 #
plane-surface $-1 0 0 7.3404492319050165 0 0 1 1 0 0 forward_v I I I I #
coedge $-1 $337 $338 $339 $340 reversed $124 $-1 #
coedge $-1 $341 $126 $128 $224 forward $77 $-1 #
coedge $-1 $126 $341 $337 $342 forward $77 $-1 #
coedge $-1 $339 $129 $126 $221 forward $215 $-1 #
edge $-1 $227 -32.104791328282857 $343 -6.6035073933062876 $220 $344 forward 7 unknown #
coedge $-1 $345 $346 $127 $223 forward $335 $-1 #
edge $-1 $347 -39.888644651696623 $226 -35.565991202172071 $222 $348 forward 7 unknown #
edge $-1 $227 -6.0091953732857224 $347 -1.0366512331508311e-014 $128 $349 forward 7 unknown #
coedge $-1 $129 $339 $345 $350 forward $215 $-1 #
vertex $-1 $130 $351 #
vertex $-1 $130 $352 #
straight-curve $-1 51.45894068907743 -55.056493974935961 7.3404492319050192 0 1 0 I I #
coedge $-1 $229 $229 $-1 $353 reversed $133 $-1 #
edge $-1 $354 0 $354 6.2831853071796004 $134 $355 forward 7 unknown #
vertex $-1 $137 $356 #
ellipse-curve $-1 38.708298721589145 -22.288996568446439 5.1791225071427416 0 -0.71933980857756763 0.69465836192734942 1 0 0 1 I I #
face $-1 $-1 $245 $29 $-1 $357 forward single #
loop $-1 $-1 $358 $138 #
plane-surface $-1 0 24.376165475700468 0 0 -1 0 0 0 -1 forward_v I I I I #
coedge $-1 $359 $360 $361 $362 reversed $139 $-1 #
coedge $-1 $363 $141 $143 $243 forward $86 $-1 #
coedge $-1 $141 $363 $359 $364 forward $86 $-1 #
coedge $-1 $361 $144 $141 $240 forward $245 $-1 #
edge $-1 $247 -28.508460441171216 $365 -17.392500054641239 $239 $366 forward 7 unknown #
coedge $-1 $367 $368 $142 $242 forward $234 $-1 #
edge $-1 $369 -61.746463814181894 $246 -56.986546565270181 $241 $370 forward 7 unknown #
edge $-1 $247 40.240210791246625 $369 48.752330951400957 $143 $371 forward 7 unknown #
coedge $-1 $144 $361 $367 $372 forward $245 $-1 #
loop $-1 $-1 $361 $233 #
vertex $-1 $242 $373 #
vertex $-1 $145 $374 #
straight-curve $-1 -51.458940689077444 25.303926183341435 7.3404492319050192 0 -1 0 I I #
coedge $-1 $249 $249 $-1 $375 reversed $148 $-1 #
edge $-1 $376 0 $376 6.2831853071796004 $149 $377 forward 7 unknown #
vertex $-1 $152 $378 #
ellipse-curve $-1 -48.282952007211733 20.847731779128473 4.9604906074491675 0 0.55919291073839883 0.82903756765294845 1 0 0 1 I I #
coedge $-1 $253 $253 $-1 $379 reversed $155 $-1 #
edge $-1 $380 0 $380 6.2831853071796004 $156 $381 forward 7 unknown #
vertex $-1 $159 $382 #
ellipse-curve $-1 -43.518968984413171 20.847731779128473 4.9604906074491675 0 0.55919291073839883 0.82903756765294845 1 0 0 1 I I #
face $-1 $-1 $175 $24 $-1 $383 reversed single #
loop $-1 $-1 $273 $160 #
plane-surface $-1 0 24.376165475700468 0 0 -1 0 0 0 -1 forward_v I I I I #
coedge $-1 $384 $271 $274 $385 forward $161 $-1 #
coedge $-1 $277 $163 $164 $265 reversed $100 $-1 #
coedge $-1 $271 $384 $163 $263 reversed $161 $-1 #
edge $-1 $278 -7.3404492319050165 $386 7.3404492319050165 $262 $387 forward 7 unknown #
coedge $-1 $165 $164 $384 $388 forward $65 $-1 #
edge $-1 $269 -59.594103823969235 $386 59.594103823969235 $261 $389 forward 7 unknown #
coedge $-1 $274 $273 $165 $267 reversed $258 $-1 #
edge $-1 $390 -59.594103823969235 $268 59.594103823969235 $266 $391 forward 7 unknown #
vertex $-1 $167 $392 #
vertex $-1 $280 $393 #
straight-curve $-1 59.594103823969235 0 -7.3404492319050165 0 -1 0 I I #
coedge $-1 $260 $262 $168 $272 reversed $161 $-1 #
edge $-1 $275 -24.376165475700468 $278 24.376165475700468 $271 $394 forward 7 unknown #
coedge $-1 $266 $169 $174 $281 forward $258 $-1 #
coedge $-1 $169 $266 $260 $385 reversed $258 $-1 #
vertex $-1 $170 $395 #
straight-curve $-1 0 24.376165475700468 7.3404492319050165 -1 0 0 I I #
coedge $-1 $171 $261 $173 $280 reversed $100 $-1 #
vertex $-1 $272 $396 #
straight-curve $-1 0 -24.376165475700468 7.3404492319050165 1 0 0 I I #
edge $-1 $176 -7.3404492319050165 $269 7.3404492319050165 $173 $397 forward 7 unknown #
edge $-1 $177 -7.3404492319050165 $268 7.3404492319050165 $174 $398 forward 7 unknown #
point $-1 59.594103823969235 -24.376165475700468 7.3404492319050165 #
point $-1 59.594103823969235 24.376165475700468 7.3404492319050165 #
face $-1 $-1 $194 $25 $-1 $399 reversed single #
loop $-1 $-1 $293 $179 #
plane-surface $-1 0 0 7.3404492319050165 0 0 1 1 0 0 forward_v I I I I #
coedge $-1 $299 $298 $183 $292 forward $180 $-1 #
coedge $-1 $185 $182 $299 $400 reversed $108 $-1 #
coedge $-1 $182 $185 $302 $401 reversed $108 $-1 #
edge $-1 $304 -7.3404492319050165 $300 7.3404492319050165 $182 $402 forward 7 unknown #
coedge $-1 $184 $183 $306 $403 reversed $69 $-1 #
edge $-1 $404 -31.830842695707567 $296 -23.695679560815769 $287 $405 forward 7 unknown #
coedge $-1 $303 $302 $184 $294 forward $285 $-1 #
edge $-1 $295 23.695679560815769 $406 31.830842695707567 $293 $407 forward 7 unknown #
vertex $-1 $294 $408 #
vertex $-1 $292 $409 #
straight-curve $-1 -51.458940689077437 -9.6952670118904365 0 0 0 -1 I I #
coedge $-1 $287 $188 $193 $308 forward $180 $-1 #
coedge $-1 $188 $287 $288 $400 forward $180 $-1 #
vertex $-1 $189 $410 #
straight-curve $-1 -27.763261128261668 -13.35095275778616 -7.3404492319050165 -1 0 0 I I #
coedge $-1 $293 $190 $289 $401 forward $285 $-1 #
coedge $-1 $190 $293 $192 $307 forward $285 $-1 #
vertex $-1 $191 $411 #
straight-curve $-1 -27.763261128261668 -13.35095275778616 7.3404492319050165 1 0 0 I I #
coedge $-1 $193 $192 $291 $403 forward $194 $-1 #
edge $-1 $406 9.6952670118904365 $196 13.35095275778616 $192 $412 forward 7 unknown #
edge $-1 $195 -13.35095275778616 $404 -9.6952670118904365 $193 $413 forward 7 unknown #
point $-1 -59.594103823969235 -13.35095275778616 -7.3404492319050165 #
point $-1 -59.594103823969235 -13.35095275778616 7.3404492319050165 #
face $-1 $-1 $414 $26 $-1 $415 reversed single #
loop $-1 $-1 $209 $198 #
plane-surface $-1 0 0 7.3404492319050165 0 0 1 1 0 0 forward_v I I I I #
coedge $-1 $204 $201 $416 $417 reversed $116 $-1 #
coedge $-1 $201 $204 $418 $419 reversed $116 $-1 #
coedge $-1 $420 $421 $201 $317 forward $414 $-1 #
edge $-1 $422 -7.3404492319050165 $423 7.3404492319050165 $316 $424 forward 7 unknown #
coedge $-1 $416 $207 $202 $319 forward $199 $-1 #
edge $-1 $212 -7.5893978153670112 $323 -3.9337120694712873 $318 $425 forward 7 unknown #
coedge $-1 $209 $418 $203 $321 forward $312 $-1 #
edge $-1 $322 3.9337120694712873 $211 7.5893978153670112 $320 $426 forward 7 unknown #
vertex $-1 $321 $427 #
vertex $-1 $319 $428 #
straight-curve $-1 51.458940689077437 -9.6952670118904365 0 0 0 -1 I I #
coedge $-1 $421 $420 $206 $326 forward $414 $-1 #
edge $-1 $331 -7.3404492319050165 $328 7.3404492319050165 $325 $429 forward 7 unknown #
coedge $-1 $207 $416 $421 $430 forward $199 $-1 #
vertex $-1 $326 $431 #
straight-curve $-1 27.763261128261668 -13.35095275778616 -7.3404492319050165 -1 0 0 I I #
coedge $-1 $418 $209 $420 $432 forward $312 $-1 #
vertex $-1 $432 $433 #
straight-curve $-1 27.763261128261668 -13.35095275778616 7.3404492319050165 1 0 0 I I #
point $-1 51.458940689077437 -13.35095275778616 7.3404492319050165 #
point $-1 51.458940689077437 -13.35095275778616 -7.3404492319050165 #
loop $-1 $-1 $222 $214 #
plane-surface $-1 0 -24.376165475700468 0 0 1 0 0 0 1 forward_v I I I I #
coedge $-1 $338 $217 $219 $342 reversed $124 $-1 #
coedge $-1 $217 $337 $434 $435 reversed $124 $-1 #
coedge $-1 $225 $220 $217 $340 forward $215 $-1 #
edge $-1 $343 -34.85466631374355 $436 -30.680328499235493 $339 $437 forward 7 unknown #
coedge $-1 $219 $218 $346 $438 reversed $77 $-1 #
edge $-1 $439 1.0366512331508311e-014 $343 6.0091953732857224 $337 $440 forward 7 unknown #
vertex $-1 $221 $441 #
straight-curve $-1 19.354149360794572 -20.201827661192411 7.3404492319050174 -1 0 0 I I #
coedge $-1 $434 $222 $225 $350 reversed $335 $-1 #
coedge $-1 $222 $434 $341 $438 forward $335 $-1 #
vertex $-1 $223 $442 #
straight-curve $-1 51.45894068907743 -24.376165475700468 42.906440434077091 0 0 1 I I #
straight-curve $-1 51.45894068907743 -24.376165475700475 3.0177957823804604 0 -0.69465836192734942 -0.71933980857756763 I I #
edge $-1 $436 25.95765675410086 $226 51.45894068907743 $345 $443 forward 7 unknown #
point $-1 51.45894068907743 -24.376165475700468 7.3404492319050165 #
point $-1 51.45894068907743 -20.201827661192407 7.3404492319050165 #
edge $-1 $444 1 $444 0 $229 $-1 forward 7 unknown #
vertex $-1 $230 $445 #
ellipse-curve $-1 38.708298721589145 -20.828275959811698 3.7685210457357678 0 -0.71933980857756763 0.69465836192734942 1 0 0 1 I I #
point $-1 39.708298721589145 -22.288996568446429 5.1791225071427318 #
plane-surface $-1 0 0 7.3404492319050165 0 0 1 1 0 0 forward_v I I I I #
coedge $-1 $368 $367 $360 $446 forward $234 $-1 #
coedge $-1 $360 $236 $238 $364 reversed $139 $-1 #
coedge $-1 $236 $359 $358 $446 reversed $139 $-1 #
coedge $-1 $244 $239 $236 $362 forward $245 $-1 #
edge $-1 $365 -7.9846281007849349 $447 -0.9277607076409673 $361 $448 forward 7 unknown #
coedge $-1 $238 $237 $368 $449 reversed $86 $-1 #
edge $-1 $450 -48.752330951400957 $365 -40.240210791246625 $359 $451 forward 7 unknown #
vertex $-1 $240 $452 #
straight-curve $-1 -22.950480247906228 17.3192980825565 7.3404492319050156 1 0 0 I I #
coedge $-1 $358 $241 $244 $372 reversed $234 $-1 #
coedge $-1 $241 $358 $363 $449 forward $234 $-1 #
vertex $-1 $242 $453 #
straight-curve $-1 -51.458940689077444 24.376165475700468 64.326995797175201 0 0 1 I I #
straight-curve $-1 -51.458940689077444 -16.041348393660535 29.842489832988946 0 0.82903756765294845 -0.55919291073839883 I I #
edge $-1 $447 40.342980302547467 $246 51.458940689077444 $367 $454 forward 7 unknown #
point $-1 -51.458940689077444 24.376165475700468 7.3404492319050165 #
point $-1 -51.458940689077444 17.3192980825565 7.3404492319050156 #
edge $-1 $455 1 $455 0 $249 $-1 forward 7 unknown #
vertex $-1 $250 $456 #
ellipse-curve $-1 -48.282952007211733 19.992619038310909 3.6927338582079661 0 0.55919291073839883 0.82903756765294845 1 0 0 1 I I #
point $-1 -47.282952007211733 20.84773177912847 4.9604906074491613 #
edge $-1 $457 1 $457 0 $253 $-1 forward 7 unknown #
vertex $-1 $254 $458 #
ellipse-curve $-1 -43.518968984413171 19.992619038310909 3.6927338582079661 0 0.55919291073839883 0.82903756765294845 1 0 0 1 I I #
point $-1 -42.518968984413171 20.84773177912847 4.9604906074491613 #
plane-surface $-1 59.594103823969235 0 0 -1 0 0 0 0 1 forward_v I I I I #
coedge $-1 $262 $260 $264 $388 reversed $161 $-1 #
edge $-1 $275 -7.3404492319050165 $390 7.3404492319050165 $274 $459 forward 7 unknown #
vertex $-1 $388 $460 #
straight-curve $-1 -59.594103823969235 -24.376165475700468 0 0 0 -1 I I #
edge $-1 $386 -24.376165475700468 $390 24.376165475700468 $384 $461 forward 7 unknown #
straight-curve $-1 0 -24.376165475700468 -7.3404492319050165 -1 0 0 I I #
vertex $-1 $267 $462 #
straight-curve $-1 0 24.376165475700468 -7.3404492319050165 1 0 0 I I #
point $-1 59.594103823969235 24.376165475700468 -7.3404492319050165 #
point $-1 59.594103823969235 -24.376165475700468 -7.3404492319050165 #
straight-curve $-1 -59.594103823969235 0 7.3404492319050165 0 -1 0 I I #
point $-1 -59.594103823969235 24.376165475700468 7.3404492319050165 #
point $-1 -59.594103823969235 -24.376165475700468 7.3404492319050165 #
straight-curve $-1 59.594103823969235 -24.376165475700468 0 0 0 -1 I I #
straight-curve $-1 59.594103823969235 24.376165475700468 0 0 0 -1 I I #
plane-surface $-1 -59.594103823969235 0 0 1 0 0 0 0 -1 forward_v I I I I #
edge $-1 $296 3.9337120694712873 $300 7.5893978153670112 $299 $463 forward 7 unknown #
edge $-1 $304 -7.5893978153670112 $295 -3.9337120694712873 $302 $464 forward 7 unknown #
straight-curve $-1 -51.458940689077437 -13.35095275778616 0 0 0 -1 I I #
edge $-1 $406 -7.3404492319050165 $404 7.3404492319050165 $306 $465 forward 7 unknown #
vertex $-1 $403 $466 #
straight-curve $-1 -27.763261128261668 -9.6952670118904365 -7.3404492319050165 1 0 0 I I #
vertex $-1 $307 $467 #
straight-curve $-1 -27.763261128261668 -9.6952670118904365 7.3404492319050165 -1 0 0 I I #
point $-1 -51.458940689077437 -9.6952670118904365 7.3404492319050165 #
point $-1 -51.458940689077437 -9.6952670118904365 -7.3404492319050165 #
point $-1 -51.458940689077437 -13.35095275778616 -7.3404492319050165 #
point $-1 -51.458940689077437 -13.35095275778616 7.3404492319050165 #
straight-curve $-1 -59.594103823969235 0 7.3404492319050165 0 -1 0 I I #
straight-curve $-1 -59.594103823969235 0 -7.3404492319050165 0 1 0 I I #
loop $-1 $-1 $325 $311 #
plane-surface $-1 59.594103823969235 0 0 -1 0 0 0 0 1 forward_v I I I I #
coedge $-1 $327 $318 $314 $417 forward $199 $-1 #
edge $-1 $323 23.695679560815769 $422 31.830842695707567 $416 $468 forward 7 unknown #
coedge $-1 $320 $330 $315 $419 forward $312 $-1 #
edge $-1 $423 -31.830842695707567 $322 -23.695679560815769 $418 $469 forward 7 unknown #
coedge $-1 $325 $316 $330 $432 reversed $414 $-1 #
coedge $-1 $316 $325 $327 $430 reversed $414 $-1 #
vertex $-1 $430 $470 #
vertex $-1 $317 $471 #
straight-curve $-1 59.594103823969235 -9.6952670118904365 0 0 0 1 I I #
straight-curve $-1 51.458940689077437 -5.7615549424191492 -7.3404492319050165 0 1 0 I I #
straight-curve $-1 51.458940689077437 -5.7615549424191492 7.3404492319050165 0 -1 0 I I #
point $-1 51.458940689077437 -9.6952670118904365 7.3404492319050165 #
point $-1 51.458940689077437 -9.6952670118904365 -7.3404492319050165 #
straight-curve $-1 59.594103823969235 -13.35095275778616 0 0 0 -1 I I #
edge $-1 $422 9.6952670118904365 $328 13.35095275778616 $421 $472 forward 7 unknown #
point $-1 59.594103823969235 -13.35095275778616 -7.3404492319050165 #
edge $-1 $331 -13.35095275778616 $423 -9.6952670118904365 $420 $473 forward 7 unknown #
point $-1 59.594103823969235 -13.35095275778616 7.3404492319050165 #
coedge $-1 $346 $345 $338 $435 forward $335 $-1 #
edge $-1 $436 35.565991202172071 $439 39.888644651696623 $434 $474 forward 7 unknown #
vertex $-1 $350 $475 #
straight-curve $-1 25.95765675410086 -55.056493974935961 7.3404492319050192 0 -1 0 I I #
edge $-1 $439 6.6035073933062876 $347 32.104791328282857 $346 $476 forward 7 unknown #
vertex $-1 $438 $477 #
straight-curve $-1 25.95765675410086 -24.376165475700475 3.0177957823804604 0 0.69465836192734942 0.71933980857756763 I I #
point $-1 25.95765675410086 -20.201827661192407 7.3404492319050165 #
point $-1 51.45894068907743 -24.376165475700468 3.017795782380468 #
straight-curve $-1 0 -24.376165475700468 7.3404492319050165 1 0 0 I I #
vertex $-1 $353 $478 #
point $-1 39.708298721589145 -20.828275959811698 3.7685210457357678 #
edge $-1 $447 56.986546565270181 $450 61.746463814181894 $358 $479 forward 7 unknown #
vertex $-1 $372 $480 #
straight-curve $-1 -40.342980302547467 25.303926183341435 7.3404492319050192 0 1 0 I I #
edge $-1 $450 17.392500054641239 $369 28.508460441171216 $368 $481 forward 7 unknown #
vertex $-1 $449 $482 #
straight-curve $-1 -40.342980302547467 -16.041348393660535 29.842489832988946 0 -0.82903756765294845 0.55919291073839883 I I #
point $-1 -40.342980302547467 17.3192980825565 7.3404492319050156 #
point $-1 -51.458940689077444 24.376165475700468 2.5805319829933104 #
straight-curve $-1 0 24.376165475700468 7.3404492319050165 -1 0 0 I I #
vertex $-1 $375 $483 #
point $-1 -47.282952007211733 19.992619038310909 3.6927338582079661 #
vertex $-1 $379 $484 #
point $-1 -42.518968984413171 19.992619038310909 3.6927338582079661 #
straight-curve $-1 -59.594103823969235 24.376165475700468 0 0 0 -1 I I #
point $-1 -59.594103823969235 -24.376165475700468 -7.3404492319050165 #
straight-curve $-1 -59.594103823969235 0 -7.3404492319050165 0 1 0 I I #
point $-1 -59.594103823969235 24.376165475700468 -7.3404492319050165 #
straight-curve $-1 -51.458940689077437 -5.7615549424191492 -7.3404492319050165 0 -1 0 I I #
straight-curve $-1 -51.458940689077437 -5.7615549424191492 7.3404492319050165 0 1 0 I I #
straight-curve $-1 -59.594103823969235 -9.6952670118904365 0 0 0 -1 I I #
point $-1 -59.594103823969235 -9.6952670118904365 -7.3404492319050165 #
point $-1 -59.594103823969235 -9.6952670118904365 7.3404492319050165 #
straight-curve $-1 27.763261128261668 -9.6952670118904365 -7.3404492319050165 1 0 0 I I #
straight-curve $-1 27.763261128261668 -9.6952670118904365 7.3404492319050165 -1 0 0 I I #
point $-1 59.594103823969235 -9.6952670118904365 -7.3404492319050165 #
point $-1 59.594103823969235 -9.6952670118904365 7.3404492319050165 #
straight-curve $-1 59.594103823969235 0 -7.3404492319050165 0 -1 0 I I #
straight-curve $-1 59.594103823969235 0 7.3404492319050165 0 1 0 I I #
straight-curve $-1 25.95765675410086 -24.376165475700468 42.906440434077091 0 0 -1 I I #
point $-1 25.95765675410086 -24.376165475700468 7.3404492319050165 #
straight-curve $-1 19.354149360794572 -24.376165475700468 3.0177957823804689 1 0 0 I I #
point $-1 25.95765675410086 -24.376165475700468 3.017795782380468 #
point $-1 38.708298721589145 -20.108936151234133 3.0738626838084189 #
straight-curve $-1 -40.342980302547467 24.376165475700468 64.326995797175201 0 0 -1 I I #
point $-1 -40.342980302547467 24.376165475700468 7.3404492319050165 #
straight-curve $-1 -22.950480247906228 24.376165475700468 2.580531982993314 -1 0 0 I I #
point $-1 -40.342980302547467 24.376165475700468 2.5805319829933104 #
point $-1 -48.282952007211733 19.433426127572513 2.863696290555017 #
point $-1 -43.518968984413171 19.433426127572513 2.863696290555017 #
End-of-ACIS-data 