500 0 9 0           
7 Unknown 11 ACIS 5.0 NT 24 Fri Mar 26 20:00:08 1999 
-1 9.9999999999999995e-007 1e-010 
body $-1 $9 $-1 $10 #
body $-1 $11 $-1 $12 #
body $-1 $13 $-1 $14 #
body $-1 $15 $-1 $16 #
body $-1 $17 $-1 $18 #
body $-1 $19 $-1 $20 #
body $-1 $21 $-1 $22 #
body $-1 $23 $-1 $24 #
body $-1 $25 $-1 $26 #
lump $-1 $-1 $27 $0 #
transform $-1 1 0 0 0 1 0 0 0 1 58.462477492599263 35.246270649458289 10.451470672058218 1 rotate no_reflect no_shear #
lump $-1 $-1 $28 $1 #
transform $-1 1 0 0 0 1 0 0 0 1 58.462477492599263 35.246270649458289 10.451470672058218 1 rotate no_reflect no_shear #
lump $-1 $-1 $29 $2 #
transform $-1 1 0 0 0 1 0 0 0 1 58.462477492599263 35.246270649458289 10.451470672058218 1 rotate no_reflect no_shear #
lump $-1 $-1 $30 $3 #
transform $-1 1 0 0 0 1 0 0 0 1 58.462477492599263 35.246270649458289 10.451470672058218 1 rotate no_reflect no_shear #
lump $-1 $-1 $31 $4 #
transform $-1 1 0 0 0 1 0 0 0 1 58.462477492599263 35.246270649458289 10.451470672058218 1 rotate no_reflect no_shear #
lump $-1 $-1 $32 $5 #
transform $-1 1 0 0 0 1 0 0 0 1 58.462477492599263 35.246270649458289 10.451470672058218 1 rotate no_reflect no_shear #
lump $-1 $-1 $33 $6 #
transform $-1 1 0 0 0 1 0 0 0 1 58.462477492599263 35.246270649458289 10.451470672058218 1 rotate no_reflect no_shear #
lump $-1 $-1 $34 $7 #
transform $-1 1 0 0 0 1 0 0 0 1 58.462477492599263 35.246270649458289 10.451470672058218 1 rotate no_reflect no_shear #
lump $-1 $-1 $35 $8 #
transform $-1 1 0 0 0 1 0 0 0 1 58.462477492599263 35.246270649458289 10.451470672058218 1 rotate no_reflect no_shear #
shell $-1 $-1 $-1 $36 $-1 $9 #
shell $-1 $-1 $-1 $37 $-1 $11 #
shell $-1 $-1 $-1 $38 $-1 $13 #
shell $-1 $-1 $-1 $39 $-1 $15 #
shell $-1 $-1 $-1 $40 $-1 $17 #
shell $-1 $-1 $-1 $41 $-1 $19 #
shell $-1 $-1 $-1 $42 $-1 $21 #
shell $-1 $-1 $-1 $43 $-1 $23 #
shell $-1 $-1 $-1 $44 $-1 $25 #
face $-1 $45 $46 $27 $-1 $47 forward single #
face $-1 $48 $49 $28 $-1 $50 reversed single #
face $-1 $51 $52 $29 $-1 $53 reversed single #
face $-1 $54 $55 $30 $-1 $56 forward single #
face $-1 $57 $58 $31 $-1 $59 forward single #
face $-1 $60 $61 $32 $-1 $62 reversed single #
face $-1 $63 $64 $33 $-1 $65 forward single #
face $-1 $66 $67 $34 $-1 $68 forward single #
face $-1 $69 $70 $35 $-1 $71 forward single #
face $-1 $72 $73 $27 $-1 $74 reversed single #
loop $-1 $-1 $75 $36 #
plane-surface $-1 0 0 10.451470672058218 0 0 1 1 0 0 forward_v I I I I #
face $-1 $76 $77 $28 $-1 $78 reversed single #
loop $-1 $-1 $79 $37 #
plane-surface $-1 -54.896550653668747 0 4.7360947638474453 0 0 1 1 0 0 forward_v I I I I #
face $-1 $80 $81 $29 $-1 $82 reversed single #
loop $-1 $-1 $83 $38 #
plane-surface $-1 41.942034905662069 -98.928166136132432 103.51111786213819 -1 0 0 0 -0.54463904215088732 0.83867056331134215 forward_v I I I I #
face $-1 $84 $85 $30 $-1 $86 forward single #
loop $-1 $87 $88 $39 #
cone-surface $-1 22.079674071384929 -30.835752400676554 7.0891108392425544 0 0.54463904215088732 -0.83867056331134215 1 0 0 1 I I 0 1 1 forward I I I I #
face $-1 $89 $90 $31 $-1 $91 forward single #
loop $-1 $92 $93 $40 #
cone-surface $-1 33.997090571951219 -30.835752400676554 7.0891108392425544 0 0.54463904215088732 -0.83867056331134215 1 0 0 1 I I 0 1 1 forward I I I I #
face $-1 $94 $95 $32 $-1 $96 reversed single #
loop $-1 $-1 $97 $41 #
plane-surface $-1 -39.930965633862407 -8.1532705813218911 56.624519965918424 0 0.78801076186113728 0.61566146476048833 1 0 0 forward_v I I I I #
face $-1 $98 $99 $33 $-1 $100 forward single #
loop $-1 $101 $102 $42 #
cone-surface $-1 -46.770760542387904 30.247728192010069 4.719803090492686 0 -0.78801076186113728 -0.61566146476048833 1.5 0 0 1 I I 0 1 1.5 forward I I I I #
face $-1 $103 $104 $34 $-1 $105 forward single #
loop $-1 $106 $107 $43 #
cone-surface $-1 -39.930965633862407 30.247728192010069 4.719803090492686 0 -0.78801076186113728 -0.61566146476048833 1.5 0 0 1 I I 0 1 1.5 forward I I I I #
face $-1 $108 $109 $35 $-1 $110 forward single #
loop $-1 $111 $112 $44 #
cone-surface $-1 -33.091170725336909 30.247728192010069 4.719803090492686 0 -0.78801076186113728 -0.61566146476048833 1.5 0 0 1 I I 0 1 1.5 forward I I I I #
face $-1 $113 $114 $27 $-1 $115 reversed single #
loop $-1 $-1 $116 $45 #
plane-surface $-1 0 0 -10.451470672058218 0 0 1 1 0 0 forward_v I I I I #
coedge $-1 $117 $118 $119 $120 forward $46 $-1 #
face $-1 $121 $122 $28 $-1 $123 reversed single #
loop $-1 $-1 $124 $48 #
plane-surface $-1 -51.330623814738232 0 7.5937827179528306 -1 0 0 0 0 1 forward_v I I I I #
coedge $-1 $125 $126 $127 $128 forward $49 $-1 #
face $-1 $129 $130 $29 $-1 $131 reversed single #
loop $-1 $-1 $132 $51 #
plane-surface $-1 28.038382321668067 -35.246270649458289 5.4495999995484254 0 -0.54463904215088732 0.83867056331134215 1 0 0 forward_v I I I I #
coedge $-1 $133 $134 $135 $136 reversed $52 $-1 #
face $-1 $-1 $137 $30 $-1 $138 forward single #
loop $-1 $139 $140 $54 #
cone-surface $-1 22.079674071384929 -30.004017260147688 5.8083510610261193 0 0.54463904215088732 -0.83867056331134215 0.5 0 0 1 I I -0.70710678118654746 0.70710678118654746 0.5 forward I I I I #
loop $-1 $-1 $141 $39 #
coedge $-1 $88 $88 $142 $143 reversed $55 $-1 #
face $-1 $-1 $144 $31 $-1 $145 forward single #
loop $-1 $146 $147 $57 #
cone-surface $-1 33.997090571951219 -30.004017260147688 5.8083510610261193 0 0.54463904215088732 -0.83867056331134215 0.5 0 0 1 I I -0.70710678118654746 0.70710678118654746 0.5 forward I I I I #
loop $-1 $-1 $148 $40 #
coedge $-1 $93 $93 $149 $150 reversed $58 $-1 #
face $-1 $151 $152 $32 $-1 $153 forward single #
loop $-1 $-1 $154 $60 #
plane-surface $-1 -28.531307452986582 83.984852277143574 128.61070901915991 -1 0 0 0 0.78801076186113728 0.61566146476048833 forward_v I I I I #
coedge $-1 $155 $156 $157 $158 reversed $61 $-1 #
face $-1 $-1 $159 $33 $-1 $160 forward single #
loop $-1 $161 $162 $63 #
cone-surface $-1 -46.770760542387904 28.32077890438606 3.2143053506701484 0 -0.78801076186113728 -0.61566146476048833 0.75 0 0 1 I I -0.70710678118654757 0.70710678118654757 0.75 forward I I I I #
loop $-1 $-1 $163 $42 #
coedge $-1 $102 $102 $164 $165 reversed $64 $-1 #
face $-1 $-1 $166 $34 $-1 $167 forward single #
loop $-1 $168 $169 $66 #
cone-surface $-1 -39.930965633862407 28.32077890438606 3.2143053506701484 0 -0.78801076186113728 -0.61566146476048833 0.75 0 0 1 I I -0.70710678118654757 0.70710678118654757 0.75 forward I I I I #
loop $-1 $-1 $170 $43 #
coedge $-1 $107 $107 $171 $172 reversed $67 $-1 #
face $-1 $-1 $173 $35 $-1 $174 forward single #
loop $-1 $175 $176 $69 #
cone-surface $-1 -33.091170725336909 28.32077890438606 3.2143053506701484 0 -0.78801076186113728 -0.61566146476048833 0.75 0 0 1 I I -0.70710678118654757 0.70710678118654757 0.75 forward I I I I #
loop $-1 $-1 $177 $44 #
coedge $-1 $112 $112 $178 $179 reversed $70 $-1 #
face $-1 $180 $181 $27 $-1 $182 reversed single #
loop $-1 $-1 $183 $72 #
plane-surface $-1 0 -35.246270649458289 0 0 1 0 0 0 1 forward_v I I I I #
coedge $-1 $184 $185 $186 $187 forward $73 $-1 #
coedge $-1 $188 $75 $189 $190 forward $46 $-1 #
coedge $-1 $75 $188 $191 $192 forward $46 $-1 #
coedge $-1 $193 $194 $75 $120 reversed $195 $-1 #
edge $-1 $196 -35.246270649458289 $197 35.246270649458289 $119 $198 forward 7 unknown #
face $-1 $199 $200 $28 $-1 $201 reversed single #
loop $-1 $-1 $202 $76 #
plane-surface $-1 0 35.246270649458289 0 0 -1 0 0 0 -1 forward_v I I I I #
coedge $-1 $203 $204 $205 $206 reversed $77 $-1 #
coedge $-1 $207 $79 $208 $209 reversed $49 $-1 #
coedge $-1 $79 $207 $210 $211 reversed $49 $-1 #
coedge $-1 $204 $203 $79 $128 reversed $77 $-1 #
edge $-1 $212 -35.246270649458289 $213 35.246270649458289 $127 $214 forward 7 unknown #
face $-1 $215 $216 $29 $-1 $217 reversed single #
loop $-1 $-1 $218 $80 #
plane-surface $-1 14.134729737674064 -98.928166136132432 103.51111786213819 1 0 0 0 0.54463904215088732 -0.83867056331134215 forward_v I I I I #
coedge $-1 $219 $220 $221 $222 reversed $81 $-1 #
coedge $-1 $134 $83 $223 $224 reversed $52 $-1 #
coedge $-1 $83 $133 $219 $225 reversed $52 $-1 #
coedge $-1 $221 $226 $83 $136 forward $227 $-1 #
edge $-1 $228 14.217812418607927 $229 21.92001767726455 $135 $230 forward 7 unknown #
loop $-1 $-1 $142 $84 #
plane-surface $-1 28.038382321668067 -35.246270649458289 5.4495999995484254 0 -0.54463904215088732 0.83867056331134215 1 0 0 forward_v I I I I #
loop $-1 $-1 $231 $54 #
coedge $-1 $140 $140 $141 $232 reversed $85 $-1 #
coedge $-1 $141 $141 $140 $232 forward $87 $-1 #
coedge $-1 $142 $142 $88 $143 forward $137 $-1 #
edge $-1 $233 1.0446098072252668e-015 $233 6.2831853071796013 $142 $234 forward 7 unknown #
loop $-1 $-1 $149 $89 #
plane-surface $-1 28.038382321668067 -35.246270649458289 5.4495999995484254 0 -0.54463904215088732 0.83867056331134215 1 0 0 forward_v I I I I #
loop $-1 $-1 $235 $57 #
coedge $-1 $147 $147 $148 $236 reversed $90 $-1 #
coedge $-1 $148 $148 $147 $236 forward $92 $-1 #
coedge $-1 $149 $149 $93 $150 forward $144 $-1 #
edge $-1 $237 1.0446098072252668e-015 $237 6.2831853071796013 $149 $238 forward 7 unknown #
face $-1 $239 $240 $32 $-1 $241 reversed single #
loop $-1 $-1 $157 $94 #
plane-surface $-1 0 0 10.451470672058218 0 0 1 1 0 0 forward_v I I I I #
coedge $-1 $242 $243 $244 $245 reversed $95 $-1 #
coedge $-1 $246 $97 $247 $248 reversed $61 $-1 #
coedge $-1 $97 $246 $242 $249 forward $61 $-1 #
coedge $-1 $244 $250 $97 $158 forward $152 $-1 #
edge $-1 $251 -31.365140997807028 $252 -8.5658246360553782 $157 $253 forward 7 unknown #
loop $-1 $-1 $164 $98 #
plane-surface $-1 -39.930965633862407 -8.1532705813218911 56.624519965918424 0 0.78801076186113728 0.61566146476048833 1 0 0 forward_v I I I I #
loop $-1 $-1 $254 $63 #
coedge $-1 $162 $162 $163 $255 reversed $99 $-1 #
coedge $-1 $163 $163 $162 $255 forward $101 $-1 #
coedge $-1 $164 $164 $102 $165 forward $159 $-1 #
edge $-1 $256 2.3329805105883887e-015 $256 6.2831853071796031 $164 $257 forward 7 unknown #
loop $-1 $-1 $171 $103 #
plane-surface $-1 -39.930965633862407 -8.1532705813218911 56.624519965918424 0 0.78801076186113728 0.61566146476048833 1 0 0 forward_v I I I I #
loop $-1 $-1 $258 $66 #
coedge $-1 $169 $169 $170 $259 reversed $104 $-1 #
coedge $-1 $170 $170 $169 $259 forward $106 $-1 #
coedge $-1 $171 $171 $107 $172 forward $166 $-1 #
edge $-1 $260 2.3329805105883887e-015 $260 6.2831853071796031 $171 $261 forward 7 unknown #
loop $-1 $-1 $178 $108 #
plane-surface $-1 -39.930965633862407 -8.1532705813218911 56.624519965918424 0 0.78801076186113728 0.61566146476048833 1 0 0 forward_v I I I I #
loop $-1 $-1 $262 $69 #
coedge $-1 $176 $176 $177 $263 reversed $109 $-1 #
coedge $-1 $177 $177 $176 $263 forward $111 $-1 #
coedge $-1 $178 $178 $112 $179 forward $173 $-1 #
edge $-1 $264 2.3329805105883887e-015 $264 6.2831853071796031 $178 $265 forward 7 unknown #
face $-1 $266 $267 $27 $-1 $268 reversed single #
loop $-1 $-1 $269 $113 #
plane-surface $-1 -58.462477492599263 0 0 1 0 0 0 0 -1 forward_v I I I I #
coedge $-1 $270 $191 $271 $272 forward $114 $-1 #
coedge $-1 $273 $116 $270 $274 forward $73 $-1 #
coedge $-1 $116 $273 $275 $276 forward $73 $-1 #
coedge $-1 $194 $193 $116 $187 reversed $195 $-1 #
edge $-1 $277 -35.246270649458289 $278 35.246270649458289 $186 $279 forward 7 unknown #
coedge $-1 $118 $117 $280 $281 forward $46 $-1 #
coedge $-1 $282 $283 $117 $190 reversed $267 $-1 #
edge $-1 $197 -58.462477492599263 $284 58.462477492599263 $189 $285 forward 7 unknown #
coedge $-1 $183 $286 $118 $192 reversed $114 $-1 #
edge $-1 $287 -58.462477492599263 $196 58.462477492599263 $191 $288 forward 7 unknown #
coedge $-1 $186 $119 $286 $289 forward $195 $-1 #
coedge $-1 $119 $186 $282 $290 reversed $195 $-1 #
loop $-1 $-1 $193 $266 #
vertex $-1 $120 $291 #
vertex $-1 $120 $292 #
straight-curve $-1 58.462477492599263 0 10.451470672058218 0 1 0 I I #
face $-1 $293 $294 $28 $-1 $295 forward single #
loop $-1 $-1 $296 $121 #
plane-surface $-1 -58.462477492599263 0 0 1 0 0 0 0 -1 forward_v I I I I #
coedge $-1 $210 $297 $204 $298 forward $122 $-1 #
coedge $-1 $127 $124 $299 $300 reversed $77 $-1 #
coedge $-1 $124 $127 $202 $298 reversed $77 $-1 #
coedge $-1 $301 $302 $124 $206 forward $294 $-1 #
edge $-1 $303 -35.246270649458289 $304 35.246270649458289 $205 $305 forward 7 unknown #
coedge $-1 $126 $125 $296 $306 reversed $49 $-1 #
coedge $-1 $299 $307 $125 $209 forward $308 $-1 #
edge $-1 $309 -31.014202165764889 $213 -23.882348487903858 $208 $310 forward 7 unknown #
coedge $-1 $311 $202 $126 $211 forward $122 $-1 #
edge $-1 $212 23.882348487903858 $312 31.014202165764889 $210 $313 forward 7 unknown #
vertex $-1 $211 $314 #
vertex $-1 $209 $315 #
straight-curve $-1 -51.330623814738232 0 4.7360947638474453 0 -1 0 I I #
face $-1 $-1 $227 $29 $-1 $316 forward single #
loop $-1 $-1 $317 $129 #
plane-surface $-1 0 -35.246270649458289 0 0 1 0 0 0 1 forward_v I I I I #
coedge $-1 $318 $319 $320 $321 reversed $130 $-1 #
coedge $-1 $322 $132 $134 $225 forward $81 $-1 #
coedge $-1 $132 $322 $318 $323 forward $81 $-1 #
coedge $-1 $320 $135 $132 $222 forward $227 $-1 #
edge $-1 $229 -27.922843744828036 $324 -0.11553857684003077 $221 $325 forward 7 unknown #
coedge $-1 $326 $327 $133 $224 forward $216 $-1 #
edge $-1 $328 -46.305958931520671 $228 -41.304088259010882 $223 $329 forward 7 unknown #
edge $-1 $229 -9.1838268750554803 $328 0 $134 $330 forward 7 unknown #
coedge $-1 $135 $320 $326 $331 forward $227 $-1 #
loop $-1 $-1 $320 $215 #
vertex $-1 $224 $332 #
vertex $-1 $136 $333 #
straight-curve $-1 41.942034905662069 -49.464083068066216 10.451470672058221 0 1 0 I I #
coedge $-1 $231 $231 $-1 $334 reversed $139 $-1 #
edge $-1 $335 0 $335 6.2831853071796004 $140 $336 forward 7 unknown #
vertex $-1 $143 $337 #
ellipse-curve $-1 22.079674071384929 -31.395168020129979 7.9505353358033215 0 -0.54463904215088732 0.83867056331134215 1 0 0 1 I I #
coedge $-1 $235 $235 $-1 $338 reversed $146 $-1 #
edge $-1 $339 0 $339 6.2831853071796004 $147 $340 forward 7 unknown #
vertex $-1 $150 $341 #
ellipse-curve $-1 33.997090571951219 -31.395168020129979 7.9505353358033215 0 -0.54463904215088732 0.83867056331134215 1 0 0 1 I I #
face $-1 $-1 $342 $32 $-1 $343 forward single #
loop $-1 $-1 $344 $151 #
plane-surface $-1 0 35.246270649458289 0 0 -1 0 0 0 -1 forward_v I I I I #
coedge $-1 $243 $154 $156 $249 reversed $95 $-1 #
coedge $-1 $154 $242 $344 $345 reversed $95 $-1 #
coedge $-1 $346 $157 $154 $245 forward $152 $-1 #
edge $-1 $252 -14.07135797155361 $347 -6.746155489113498 $244 $348 forward 7 unknown #
coedge $-1 $156 $155 $349 $350 reversed $61 $-1 #
coedge $-1 $351 $352 $155 $248 forward $342 $-1 #
edge $-1 $353 -48.664339737882628 $251 -36.766238424541797 $247 $354 forward 7 unknown #
edge $-1 $355 -70.492541298916549 $252 -58.594439985575711 $242 $356 forward 7 unknown #
coedge $-1 $157 $346 $351 $357 forward $152 $-1 #
vertex $-1 $248 $358 #
vertex $-1 $158 $359 #
straight-curve $-1 -19.965482816931203 27.921068167018184 10.451470672058214 1 0 0 I I #
coedge $-1 $254 $254 $-1 $360 reversed $161 $-1 #
edge $-1 $361 0 $361 6.2831853071796004 $162 $362 forward 7 unknown #
vertex $-1 $165 $363 #
ellipse-curve $-1 -46.770760542387904 31.583669408238229 5.7635547317448603 0 0.78801076186113728 0.61566146476048833 1.5 0 0 1 I I #
coedge $-1 $258 $258 $-1 $364 reversed $168 $-1 #
edge $-1 $365 0 $365 6.2831853071796004 $169 $366 forward 7 unknown #
vertex $-1 $172 $367 #
ellipse-curve $-1 -39.930965633862407 31.583669408238229 5.7635547317448603 0 0.78801076186113728 0.61566146476048833 1.5 0 0 1 I I #
coedge $-1 $262 $262 $-1 $368 reversed $175 $-1 #
edge $-1 $369 0 $369 6.2831853071796004 $176 $370 forward 7 unknown #
vertex $-1 $179 $371 #
ellipse-curve $-1 -33.091170725336909 31.583669408238229 5.7635547317448603 0 0.78801076186113728 0.61566146476048833 1.5 0 0 1 I I #
face $-1 $-1 $195 $27 $-1 $372 reversed single #
loop $-1 $-1 $282 $180 #
plane-surface $-1 0 35.246270649458289 0 0 -1 0 0 0 -1 forward_v I I I I #
coedge $-1 $373 $280 $283 $374 forward $181 $-1 #
coedge $-1 $286 $183 $184 $274 reversed $114 $-1 #
coedge $-1 $280 $373 $183 $272 reversed $181 $-1 #
edge $-1 $287 -10.451470672058218 $375 10.451470672058218 $271 $376 forward 7 unknown #
coedge $-1 $185 $184 $373 $377 forward $73 $-1 #
edge $-1 $278 -58.462477492599263 $375 58.462477492599263 $270 $378 forward 7 unknown #
coedge $-1 $283 $282 $185 $276 reversed $267 $-1 #
edge $-1 $379 -58.462477492599263 $277 58.462477492599263 $275 $380 forward 7 unknown #
vertex $-1 $187 $381 #
vertex $-1 $289 $382 #
straight-curve $-1 58.462477492599263 0 -10.451470672058218 0 -1 0 I I #
coedge $-1 $269 $271 $188 $281 reversed $181 $-1 #
edge $-1 $284 -35.246270649458289 $287 35.246270649458289 $280 $383 forward 7 unknown #
coedge $-1 $275 $189 $194 $290 forward $267 $-1 #
coedge $-1 $189 $275 $269 $374 reversed $267 $-1 #
vertex $-1 $190 $384 #
straight-curve $-1 0 35.246270649458289 10.451470672058218 -1 0 0 I I #
coedge $-1 $191 $270 $193 $289 reversed $114 $-1 #
vertex $-1 $281 $385 #
straight-curve $-1 0 -35.246270649458289 10.451470672058218 1 0 0 I I #
edge $-1 $196 -10.451470672058218 $278 10.451470672058218 $193 $386 forward 7 unknown #
edge $-1 $197 -10.451470672058218 $277 10.451470672058218 $194 $387 forward 7 unknown #
point $-1 58.462477492599263 -35.246270649458289 10.451470672058218 #
point $-1 58.462477492599263 35.246270649458289 10.451470672058218 #
face $-1 $-1 $308 $28 $-1 $388 reversed single #
loop $-1 $-1 $205 $199 #
plane-surface $-1 0 0 10.451470672058218 0 0 1 1 0 0 forward_v I I I I #
coedge $-1 $389 $390 $207 $306 forward $200 $-1 #
coedge $-1 $202 $311 $301 $391 reversed $122 $-1 #
edge $-1 $304 -6.6545793130818005 $212 -0.93920340487103005 $202 $392 forward 7 unknown #
coedge $-1 $393 $208 $203 $300 forward $308 $-1 #
edge $-1 $213 0.93920340487103005 $303 6.6545793130818005 $299 $394 forward 7 unknown #
coedge $-1 $395 $205 $297 $391 forward $294 $-1 #
coedge $-1 $205 $395 $393 $396 forward $294 $-1 #
vertex $-1 $300 $397 #
vertex $-1 $391 $398 #
straight-curve $-1 -51.330623814738232 0 10.451470672058218 0 1 0 I I #
edge $-1 $312 -35.246270649458289 $309 35.246270649458289 $296 $399 forward 7 unknown #
coedge $-1 $208 $393 $389 $400 forward $308 $-1 #
loop $-1 $-1 $299 $293 #
vertex $-1 $306 $401 #
straight-curve $-1 -27.448275326834374 -35.246270649458289 4.7360947638474453 1 0 0 I I #
coedge $-1 $297 $210 $390 $402 reversed $122 $-1 #
vertex $-1 $306 $403 #
straight-curve $-1 -27.448275326834374 35.246270649458289 4.7360947638474453 -1 0 0 I I #
point $-1 -51.330623814738232 35.246270649458289 4.7360947638474453 #
point $-1 -51.330623814738232 -35.246270649458289 4.7360947638474453 #
plane-surface $-1 0 0 10.451470672058218 0 0 1 1 0 0 forward_v I I I I #
coedge $-1 $327 $326 $319 $404 forward $216 $-1 #
coedge $-1 $319 $218 $220 $323 reversed $130 $-1 #
coedge $-1 $218 $318 $317 $404 reversed $130 $-1 #
coedge $-1 $226 $221 $218 $321 forward $227 $-1 #
edge $-1 $324 -21.92001767726455 $405 -14.217812418607927 $320 $406 forward 7 unknown #
coedge $-1 $220 $219 $327 $407 reversed $81 $-1 #
edge $-1 $408 0 $324 9.1838268750554803 $318 $409 forward 7 unknown #
vertex $-1 $222 $410 #
straight-curve $-1 14.019191160834033 -27.54406539080167 10.451470672058218 -1 0 0 I I #
coedge $-1 $317 $223 $226 $331 reversed $216 $-1 #
coedge $-1 $223 $317 $322 $407 forward $216 $-1 #
vertex $-1 $224 $411 #
straight-curve $-1 41.942034905662069 -35.246270649458289 51.755558931069096 0 0 1 I I #
straight-curve $-1 41.942034905662069 -35.246270649458289 5.4495999995484254 0 -0.83867056331134215 -0.54463904215088732 I I #
edge $-1 $405 14.134729737674064 $228 41.942034905662069 $326 $412 forward 7 unknown #
point $-1 41.942034905662069 -35.246270649458289 10.451470672058218 #
point $-1 41.942034905662069 -27.544065390801666 10.451470672058218 #
edge $-1 $413 1 $413 0 $231 $-1 forward 7 unknown #
vertex $-1 $232 $414 #
ellipse-curve $-1 22.079674071384929 -30.276336781223129 6.2276863426817908 0 -0.54463904215088732 0.83867056331134215 1 0 0 1 I I #
point $-1 23.079674071384929 -31.395168020129976 7.9505353358033179 #
edge $-1 $415 1 $415 0 $235 $-1 forward 7 unknown #
vertex $-1 $236 $416 #
ellipse-curve $-1 33.997090571951219 -30.276336781223129 6.2276863426817908 0 -0.54463904215088732 0.83867056331134215 1 0 0 1 I I #
point $-1 34.997090571951219 -31.395168020129976 7.9505353358033179 #
loop $-1 $-1 $247 $239 #
plane-surface $-1 -51.330623814738232 0 7.5937827179528306 -1 0 0 0 0 1 forward_v I I I I #
coedge $-1 $349 $417 $243 $345 forward $240 $-1 #
edge $-1 $347 53.853883837521735 $355 63.229715718148448 $344 $418 forward 7 unknown #
coedge $-1 $250 $244 $417 $419 forward $152 $-1 #
vertex $-1 $419 $420 #
straight-curve $-1 -28.531307452986582 41.992426138571787 10.451470672058221 0 1 0 I I #
coedge $-1 $421 $344 $246 $350 forward $240 $-1 #
edge $-1 $355 8.5658246360553782 $353 31.365140997807028 $349 $422 forward 7 unknown #
coedge $-1 $352 $247 $250 $357 reversed $342 $-1 #
coedge $-1 $247 $351 $421 $423 reversed $342 $-1 #
vertex $-1 $423 $424 #
straight-curve $-1 -51.330623814738232 5.2855119648314304 39.423662223749616 0 -0.61566146476048833 0.78801076186113728 I I #
vertex $-1 $350 $425 #
straight-curve $-1 -28.531307452986582 -8.1532705813218911 56.624519965918424 0 -0.61566146476048833 0.78801076186113728 I I #
edge $-1 $426 -35.246270649458289 $251 -27.921068167018177 $250 $427 forward 7 unknown #
point $-1 -51.330623814738232 27.921068167018177 10.451470672058221 #
point $-1 -28.531307452986582 27.921068167018177 10.451470672058221 #
edge $-1 $428 1 $428 0 $254 $-1 forward 7 unknown #
vertex $-1 $255 $429 #
ellipse-curve $-1 -46.770760542387904 28.911786975781911 3.6760514492405147 0 0.78801076186113728 0.61566146476048833 1.5 0 0 1 I I #
point $-1 -45.270760542387904 31.583669408238229 5.7635547317448559 #
edge $-1 $430 1 $430 0 $258 $-1 forward 7 unknown #
vertex $-1 $259 $431 #
ellipse-curve $-1 -39.930965633862407 28.911786975781911 3.6760514492405147 0 0.78801076186113728 0.61566146476048833 1.5 0 0 1 I I #
point $-1 -38.430965633862407 31.583669408238229 5.7635547317448559 #
edge $-1 $432 1 $432 0 $262 $-1 forward 7 unknown #
vertex $-1 $263 $433 #
ellipse-curve $-1 -33.091170725336909 28.911786975781911 3.6760514492405147 0 0.78801076186113728 0.61566146476048833 1.5 0 0 1 I I #
point $-1 -31.591170725336909 31.583669408238229 5.7635547317448559 #
plane-surface $-1 58.462477492599263 0 0 -1 0 0 0 0 1 forward_v I I I I #
coedge $-1 $271 $269 $273 $377 reversed $181 $-1 #
edge $-1 $284 -10.451470672058218 $379 10.451470672058218 $283 $434 forward 7 unknown #
vertex $-1 $377 $435 #
straight-curve $-1 -58.462477492599263 -35.246270649458289 0 0 0 -1 I I #
edge $-1 $375 -35.246270649458289 $379 35.246270649458289 $373 $436 forward 7 unknown #
straight-curve $-1 0 -35.246270649458289 -10.451470672058218 -1 0 0 I I #
vertex $-1 $276 $437 #
straight-curve $-1 0 35.246270649458289 -10.451470672058218 1 0 0 I I #
point $-1 58.462477492599263 35.246270649458289 -10.451470672058218 #
point $-1 58.462477492599263 -35.246270649458289 -10.451470672058218 #
straight-curve $-1 -58.462477492599263 0 10.451470672058218 0 -1 0 I I #
point $-1 -58.462477492599263 35.246270649458289 10.451470672058218 #
point $-1 -58.462477492599263 -35.246270649458289 10.451470672058218 #
straight-curve $-1 58.462477492599263 -35.246270649458289 0 0 0 -1 I I #
straight-curve $-1 58.462477492599263 35.246270649458289 0 0 0 -1 I I #
plane-surface $-1 0 -35.246270649458289 0 0 1 0 0 0 1 forward_v I I I I #
coedge $-1 $438 $296 $307 $400 reversed $200 $-1 #
coedge $-1 $296 $438 $311 $402 forward $200 $-1 #
edge $-1 $304 51.330623814738232 $439 58.462477492599263 $297 $440 forward 7 unknown #
straight-curve $-1 -51.330623814738232 35.246270649458289 3.7968913589764153 0 0 -1 I I #
coedge $-1 $307 $299 $302 $396 reversed $308 $-1 #
straight-curve $-1 -51.330623814738232 -35.246270649458289 3.7968913589764153 0 0 1 I I #
coedge $-1 $302 $301 $438 $441 forward $294 $-1 #
edge $-1 $442 -58.462477492599263 $303 -51.330623814738232 $393 $443 forward 7 unknown #
point $-1 -51.330623814738232 -35.246270649458289 10.451470672058216 #
point $-1 -51.330623814738232 35.246270649458289 10.451470672058216 #
straight-curve $-1 -58.462477492599263 0 4.7360947638474453 0 -1 0 I I #
edge $-1 $442 -10.451470672058218 $309 -4.7360947638474453 $389 $444 forward 7 unknown #
point $-1 -58.462477492599263 -35.246270649458289 4.7360947638474453 #
edge $-1 $439 -10.451470672058218 $312 -4.7360947638474453 $311 $445 forward 7 unknown #
point $-1 -58.462477492599263 35.246270649458289 4.7360947638474453 #
edge $-1 $405 41.304088259010882 $408 46.305958931520671 $317 $446 forward 7 unknown #
vertex $-1 $331 $447 #
straight-curve $-1 14.134729737674064 -49.464083068066216 10.451470672058221 0 -1 0 I I #
edge $-1 $408 0.11553857684003077 $328 27.922843744828036 $327 $448 forward 7 unknown #
vertex $-1 $407 $449 #
straight-curve $-1 14.134729737674064 -35.246270649458289 5.4495999995484254 0 0.83867056331134215 0.54463904215088732 I I #
point $-1 14.134729737674064 -27.544065390801666 10.451470672058218 #
point $-1 41.942034905662069 -35.246270649458289 5.4495999995484254 #
straight-curve $-1 0 -35.246270649458289 10.451470672058218 1 0 0 I I #
vertex $-1 $334 $450 #
point $-1 23.079674071384929 -30.276336781223129 6.2276863426817908 #
vertex $-1 $338 $451 #
point $-1 34.997090571951219 -30.276336781223129 6.2276863426817908 #
coedge $-1 $344 $421 $346 $419 reversed $240 $-1 #
straight-curve $-1 -28.531307452986582 35.246270649458289 64.305354509579956 0 0 -1 I I #
edge $-1 $347 28.531307452986582 $426 51.330623814738232 $417 $452 forward 7 unknown #
point $-1 -28.531307452986582 35.246270649458289 10.451470672058218 #
coedge $-1 $417 $349 $352 $423 forward $240 $-1 #
straight-curve $-1 -19.965482816931203 35.246270649458289 1.0756387914315155 -1 0 0 I I #
edge $-1 $353 -63.229715718148448 $426 -53.853883837521742 $421 $453 forward 7 unknown #
point $-1 -51.330623814738232 35.246270649458289 1.0756387914315084 #
point $-1 -28.531307452986582 35.246270649458289 1.0756387914315084 #
vertex $-1 $357 $454 #
straight-curve $-1 -51.330623814738232 0 10.451470672058218 0 -1 0 I I #
vertex $-1 $360 $455 #
point $-1 -45.270760542387904 28.911786975781911 3.6760514492405147 #
vertex $-1 $364 $456 #
point $-1 -38.430965633862407 28.911786975781911 3.6760514492405147 #
vertex $-1 $368 $457 #
point $-1 -31.591170725336909 28.911786975781911 3.6760514492405147 #
straight-curve $-1 -58.462477492599263 35.246270649458289 0 0 0 -1 I I #
point $-1 -58.462477492599263 -35.246270649458289 -10.451470672058218 #
straight-curve $-1 -58.462477492599263 0 -10.451470672058218 0 1 0 I I #
point $-1 -58.462477492599263 35.246270649458289 -10.451470672058218 #
coedge $-1 $390 $389 $395 $441 reversed $200 $-1 #
vertex $-1 $391 $458 #
straight-curve $-1 0 35.246270649458289 10.451470672058218 -1 0 0 I I #
edge $-1 $439 -35.246270649458289 $442 35.246270649458289 $438 $459 forward 7 unknown #
vertex $-1 $441 $460 #
straight-curve $-1 0 -35.246270649458289 10.451470672058218 1 0 0 I I #
straight-curve $-1 -58.462477492599263 -35.246270649458289 0 0 0 -1 I I #
straight-curve $-1 -58.462477492599263 35.246270649458289 0 0 0 -1 I I #
straight-curve $-1 14.134729737674064 -35.246270649458289 51.755558931069096 0 0 -1 I I #
point $-1 14.134729737674064 -35.246270649458289 10.451470672058218 #
straight-curve $-1 14.019191160834033 -35.246270649458289 5.4495999995484272 1 0 0 I I #
point $-1 14.134729737674064 -35.246270649458289 5.4495999995484254 #
point $-1 22.079674071384929 -29.731697739072246 5.3890157793704478 #
point $-1 33.997090571951219 -29.731697739072246 5.3890157793704478 #
straight-curve $-1 0 35.246270649458289 10.451470672058218 -1 0 0 I I #
straight-curve $-1 -51.330623814738232 35.246270649458289 64.305354509579956 0 0 1 I I #
point $-1 -51.330623814738232 35.246270649458289 10.451470672058216 #
point $-1 -46.770760542387904 27.729770832990209 2.7525592520997821 #
point $-1 -39.930965633862407 27.729770832990209 2.7525592520997821 #
point $-1 -33.091170725336909 27.729770832990209 2.7525592520997821 #
point $-1 -58.462477492599263 35.246270649458289 10.451470672058218 #
straight-curve $-1 -58.462477492599263 0 10.451470672058218 0 -1 0 I I #
point $-1 -58.462477492599263 -35.246270649458289 10.451470672058218 #
End-of-ACIS-data 