500 0 17 0           
7 Unknown 11 ACIS 5.0 NT 24 Fri Mar 26 20:43:22 1999 
-1 9.9999999999999995e-007 1e-010 
body $-1 $17 $-1 $18 #
body $-1 $19 $-1 $20 #
body $-1 $21 $-1 $22 #
body $-1 $23 $-1 $24 #
body $-1 $25 $-1 $26 #
body $-1 $27 $-1 $28 #
body $-1 $29 $-1 $30 #
body $-1 $31 $-1 $32 #
body $-1 $33 $-1 $34 #
body $-1 $35 $-1 $36 #
body $-1 $37 $-1 $38 #
body $-1 $39 $-1 $40 #
body $-1 $41 $-1 $42 #
body $-1 $43 $-1 $44 #
body $-1 $45 $-1 $46 #
body $-1 $47 $-1 $48 #
body $-1 $49 $-1 $50 #
lump $-1 $-1 $51 $0 #
transform $-1 1 0 0 0 1 0 0 0 1 63.812982573931087 29.325694616322107 7.6379978504006392 1 rotate no_reflect no_shear #
lump $-1 $-1 $52 $1 #
transform $-1 1 0 0 0 1 0 0 0 1 63.812982573931087 29.325694616322107 7.6379978504006392 1 rotate no_reflect no_shear #
lump $-1 $-1 $53 $2 #
transform $-1 1 0 0 0 1 0 0 0 1 63.812982573931087 29.325694616322107 7.6379978504006392 1 rotate no_reflect no_shear #
lump $-1 $-1 $54 $3 #
transform $-1 1 0 0 0 1 0 0 0 1 63.812982573931087 29.325694616322107 7.6379978504006392 1 rotate no_reflect no_shear #
lump $-1 $-1 $55 $4 #
transform $-1 1 0 0 0 1 0 0 0 1 63.812982573931087 29.325694616322107 7.6379978504006392 1 rotate no_reflect no_shear #
lump $-1 $-1 $56 $5 #
transform $-1 1 0 0 0 1 0 0 0 1 63.812982573931087 29.325694616322107 7.6379978504006392 1 rotate no_reflect no_shear #
lump $-1 $-1 $57 $6 #
transform $-1 1 0 0 0 1 0 0 0 1 63.812982573931087 29.325694616322107 7.6379978504006392 1 rotate no_reflect no_shear #
lump $-1 $-1 $58 $7 #
transform $-1 1 0 0 0 1 0 0 0 1 63.812982573931087 29.325694616322107 7.6379978504006392 1 rotate no_reflect no_shear #
lump $-1 $-1 $59 $8 #
transform $-1 1 0 0 0 1 0 0 0 1 63.812982573931087 29.325694616322107 7.6379978504006392 1 rotate no_reflect no_shear #
lump $-1 $-1 $60 $9 #
transform $-1 1 0 0 0 1 0 0 0 1 63.812982573931087 29.325694616322107 7.6379978504006392 1 rotate no_reflect no_shear #
lump $-1 $-1 $61 $10 #
transform $-1 1 0 0 0 1 0 0 0 1 63.812982573931087 29.325694616322107 7.6379978504006392 1 rotate no_reflect no_shear #
lump $-1 $-1 $62 $11 #
transform $-1 1 0 0 0 1 0 0 0 1 63.812982573931087 29.325694616322107 7.6379978504006392 1 rotate no_reflect no_shear #
lump $-1 $-1 $63 $12 #
transform $-1 1 0 0 0 1 0 0 0 1 63.812982573931087 29.325694616322107 7.6379978504006392 1 rotate no_reflect no_shear #
lump $-1 $-1 $64 $13 #
transform $-1 1 0 0 0 1 0 0 0 1 63.812982573931087 29.325694616322107 7.6379978504006392 1 rotate no_reflect no_shear #
lump $-1 $-1 $65 $14 #
transform $-1 1 0 0 0 1 0 0 0 1 63.812982573931087 29.325694616322107 7.6379978504006392 1 rotate no_reflect no_shear #
lump $-1 $-1 $66 $15 #
transform $-1 1 0 0 0 1 0 0 0 1 63.812982573931087 29.325694616322107 7.6379978504006392 1 rotate no_reflect no_shear #
lump $-1 $-1 $67 $16 #
transform $-1 1 0 0 0 1 0 0 0 1 63.812982573931087 29.325694616322107 7.6379978504006392 1 rotate no_reflect no_shear #
shell $-1 $-1 $-1 $68 $-1 $17 #
shell $-1 $-1 $-1 $69 $-1 $19 #
shell $-1 $-1 $-1 $70 $-1 $21 #
shell $-1 $-1 $-1 $71 $-1 $23 #
shell $-1 $-1 $-1 $72 $-1 $25 #
shell $-1 $-1 $-1 $73 $-1 $27 #
shell $-1 $-1 $-1 $74 $-1 $29 #
shell $-1 $-1 $-1 $75 $-1 $31 #
shell $-1 $-1 $-1 $76 $-1 $33 #
shell $-1 $-1 $-1 $77 $-1 $35 #
shell $-1 $-1 $-1 $78 $-1 $37 #
shell $-1 $-1 $-1 $79 $-1 $39 #
shell $-1 $-1 $-1 $80 $-1 $41 #
shell $-1 $-1 $-1 $81 $-1 $43 #
shell $-1 $-1 $-1 $82 $-1 $45 #
shell $-1 $-1 $-1 $83 $-1 $47 #
shell $-1 $-1 $-1 $84 $-1 $49 #
face $-1 $85 $86 $51 $-1 $87 forward single #
face $-1 $88 $89 $52 $-1 $90 reversed single #
face $-1 $91 $92 $53 $-1 $93 reversed single #
face $-1 $94 $95 $54 $-1 $96 reversed single #
face $-1 $97 $98 $55 $-1 $99 forward single #
face $-1 $100 $101 $56 $-1 $102 forward single #
face $-1 $103 $104 $57 $-1 $105 reversed single #
face $-1 $106 $107 $58 $-1 $108 forward single #
face $-1 $109 $110 $59 $-1 $111 forward single #
face $-1 $112 $113 $60 $-1 $114 reversed single #
face $-1 $115 $116 $61 $-1 $117 forward single #
face $-1 $118 $119 $62 $-1 $120 forward single #
face $-1 $121 $122 $63 $-1 $123 forward single #
face $-1 $124 $125 $64 $-1 $126 reversed single #
face $-1 $127 $128 $65 $-1 $129 forward single #
face $-1 $130 $131 $66 $-1 $132 forward single #
face $-1 $133 $134 $67 $-1 $135 forward single #
face $-1 $136 $137 $51 $-1 $138 reversed single #
loop $-1 $-1 $139 $68 #
plane-surface $-1 0 0 7.6379978504006392 0 0 1 1 0 0 forward_v I I I I #
face $-1 $140 $141 $52 $-1 $142 reversed single #
loop $-1 $-1 $143 $69 #
plane-surface $-1 -52.448922891837455 -25.21230864790062 0 1 0 0 0 0 -1 forward_v I I I I #
face $-1 $144 $145 $53 $-1 $146 reversed single #
loop $-1 $-1 $147 $70 #
plane-surface $-1 -50.49295488248363 21.098922679479131 0 0 1 0 0 0 1 forward_v I I I I #
face $-1 $148 $149 $54 $-1 $150 reversed single #
loop $-1 $-1 $151 $71 #
plane-surface $-1 51.222612663899163 3.5527136788005009e-015 182.85909549095541 0 -1 0 -0.6560590369687036 0 -0.75470957328743171 forward_v I I I I #
face $-1 $152 $153 $55 $-1 $154 forward single #
loop $-1 $155 $156 $72 #
cone-surface $-1 60.707038973430315 -4.4470694296037401 4.8458391419105826 -0.6560590369687036 0 -0.75470957328743171 0.18867739332185793 0 -0.1640147592421759 1 I I 0 1 0.25 forward I I I I #
face $-1 $157 $158 $56 $-1 $159 forward single #
loop $-1 $160 $161 $73 #
cone-surface $-1 60.707038973430315 -1.7788277718414918 4.8458391419105826 -0.6560590369687036 0 -0.75470957328743171 0.18867739332185793 0 -0.1640147592421759 1 I I 0 1 0.25 forward I I I I #
face $-1 $162 $163 $57 $-1 $164 reversed single #
loop $-1 $-1 $165 $74 #
plane-surface $-1 51.222612663899163 21.098922679479138 182.85909549095541 0 -1 0 -0.6560590369687036 0 -0.75470957328743171 forward_v I I I I #
face $-1 $166 $167 $58 $-1 $168 forward single #
loop $-1 $169 $170 $75 #
cone-surface $-1 60.707038973430315 16.651853249875391 4.8458391419105826 -0.6560590369687036 0 -0.75470957328743171 0.18867739332185793 0 -0.1640147592421759 1 I I 0 1 0.25 forward I I I I #
face $-1 $171 $172 $59 $-1 $173 forward single #
loop $-1 $174 $175 $76 #
cone-surface $-1 60.707038973430315 19.320094907637642 4.8458391419105826 -0.6560590369687036 0 -0.75470957328743171 0.18867739332185793 0 -0.1640147592421759 1 I I 0 1 0.25 forward I I I I #
face $-1 $176 $177 $60 $-1 $178 reversed single #
loop $-1 $-1 $179 $77 #
plane-surface $-1 -127.62596600279485 -14.034996417685017 113.95157885730961 0 1 0 -0.50000000669873634 0 0.8660253999169214 forward_v I I I I #
face $-1 $180 $181 $61 $-1 $182 forward single #
loop $-1 $183 $184 $78 #
cone-surface $-1 -59.847133955282743 -12.575860254945376 4.9826929447159927 0.50000000669873634 0 -0.8660253999169214 0.4330126999584607 0 0.25000000334936817 1 I I 0 1 0.5 forward I I I I #
face $-1 $185 $186 $62 $-1 $187 forward single #
loop $-1 $188 $189 $79 #
cone-surface $-1 -59.847133955282743 -10.387156010835909 4.9826929447159927 0.50000000669873634 0 -0.8660253999169214 0.4330126999584607 0 0.25000000334936817 1 I I 0 1 0.5 forward I I I I #
face $-1 $190 $191 $63 $-1 $192 forward single #
loop $-1 $193 $194 $80 #
cone-surface $-1 -59.847133955282743 -8.1984517667264427 4.9826929447159927 0.50000000669873634 0 -0.8660253999169214 0.4330126999584607 0 0.25000000334936817 1 I I 0 1 0.5 forward I I I I #
face $-1 $195 $196 $64 $-1 $197 reversed single #
loop $-1 $-1 $198 $81 #
plane-surface $-1 -127.62596600279485 6.7393156039868085 113.95157885730961 0 1 0 -0.50000000669873634 0 0.8660253999169214 forward_v I I I I #
face $-1 $199 $200 $65 $-1 $201 forward single #
loop $-1 $202 $203 $82 #
cone-surface $-1 -59.847133955282743 8.1984517667264534 4.9826929447159927 0.50000000669873634 0 -0.8660253999169214 0.4330126999584607 0 0.25000000334936817 1 I I 0 1 0.5 forward I I I I #
face $-1 $204 $205 $66 $-1 $206 forward single #
loop $-1 $207 $208 $83 #
cone-surface $-1 -59.847133955282743 10.387156010835913 4.9826929447159927 0.50000000669873634 0 -0.8660253999169214 0.4330126999584607 0 0.25000000334936817 1 I I 0 1 0.5 forward I I I I #
face $-1 $209 $210 $67 $-1 $211 forward single #
loop $-1 $212 $213 $84 #
cone-surface $-1 -59.847133955282743 12.575860254945386 4.9826929447159927 0.50000000669873634 0 -0.8660253999169214 0.4330126999584607 0 0.25000000334936817 1 I I 0 1 0.5 forward I I I I #
face $-1 $214 $215 $51 $-1 $216 reversed single #
loop $-1 $-1 $217 $85 #
plane-surface $-1 0 0 -7.6379978504006392 0 0 1 1 0 0 forward_v I I I I #
coedge $-1 $218 $219 $220 $221 forward $86 $-1 #
face $-1 $222 $223 $52 $-1 $224 reversed single #
loop $-1 $-1 $225 $88 #
plane-surface $-1 -50.49295488248363 -21.098922679479134 0 0 -1 0 0 0 -1 forward_v I I I I #
coedge $-1 $226 $227 $228 $229 forward $89 $-1 #
face $-1 $230 $231 $53 $-1 $232 reversed single #
loop $-1 $-1 $233 $91 #
plane-surface $-1 -52.448922891837455 25.212308647900617 0 1 0 0 0 0 -1 forward_v I I I I #
coedge $-1 $234 $235 $236 $237 forward $92 $-1 #
face $-1 $238 $239 $54 $-1 $240 reversed single #
loop $-1 $-1 $241 $94 #
plane-surface $-1 -32.507555123208626 -3.1129486007226177 86.538557793815713 0.6560590369687036 0 0.75470957328743171 0.75470957328743171 0 -0.6560590369687036 forward_v I I I I #
coedge $-1 $242 $243 $244 $245 reversed $95 $-1 #
face $-1 $-1 $246 $55 $-1 $247 forward single #
loop $-1 $248 $249 $97 #
cone-surface $-1 60.297002075324876 -4.4470694296037401 4.3741456586059382 -0.6560590369687036 0 -0.75470957328743171 0.094338696660928964 0 -0.08200737962108795 1 I I -0.70710678118654746 0.70710678118654746 0.125 forward I I I I #
loop $-1 $-1 $250 $72 #
coedge $-1 $156 $156 $251 $252 reversed $98 $-1 #
face $-1 $-1 $253 $56 $-1 $254 forward single #
loop $-1 $255 $256 $100 #
cone-surface $-1 60.297002075324876 -1.7788277718414918 4.3741456586059382 -0.6560590369687036 0 -0.75470957328743171 0.094338696660928964 0 -0.08200737962108795 1 I I -0.70710678118654746 0.70710678118654746 0.125 forward I I I I #
loop $-1 $-1 $257 $73 #
coedge $-1 $161 $161 $258 $259 reversed $101 $-1 #
face $-1 $260 $261 $57 $-1 $262 reversed single #
loop $-1 $-1 $263 $103 #
plane-surface $-1 -32.507555123208626 17.985974078756517 86.538557793815713 0.6560590369687036 0 0.75470957328743171 0.75470957328743171 0 -0.6560590369687036 forward_v I I I I #
coedge $-1 $264 $265 $266 $267 reversed $104 $-1 #
face $-1 $-1 $268 $58 $-1 $269 forward single #
loop $-1 $270 $271 $106 #
cone-surface $-1 60.297002075324876 16.651853249875391 4.3741456586059382 -0.6560590369687036 0 -0.75470957328743171 0.094338696660928964 0 -0.08200737962108795 1 I I -0.70710678118654746 0.70710678118654746 0.125 forward I I I I #
loop $-1 $-1 $272 $75 #
coedge $-1 $170 $170 $273 $274 reversed $107 $-1 #
face $-1 $-1 $275 $59 $-1 $276 forward single #
loop $-1 $277 $278 $109 #
cone-surface $-1 60.297002075324876 19.320094907637642 4.3741456586059382 -0.6560590369687036 0 -0.75470957328743171 0.094338696660928964 0 -0.08200737962108795 1 I I -0.70710678118654746 0.70710678118654746 0.125 forward I I I I #
loop $-1 $-1 $279 $76 #
coedge $-1 $175 $175 $280 $281 reversed $110 $-1 #
face $-1 $282 $283 $60 $-1 $284 reversed single #
loop $-1 $-1 $285 $112 #
plane-surface $-1 -63.812982573931073 -10.387156010835906 3.4242513503491949 -0.50000000669873634 0 0.8660253999169214 0.8660253999169214 0 0.50000000669873634 forward_v I I I I #
coedge $-1 $286 $287 $288 $289 reversed $113 $-1 #
face $-1 $-1 $290 $61 $-1 $291 forward single #
loop $-1 $292 $293 $115 #
cone-surface $-1 -59.405496783925081 -12.575860254945376 4.2177549390778353 0.50000000669873634 0 -0.8660253999169214 0.21650634997923035 0 0.12500000167468409 1 I I -0.70710678118654746 0.70710678118654746 0.25 forward I I I I #
loop $-1 $-1 $294 $78 #
coedge $-1 $184 $184 $295 $296 reversed $116 $-1 #
face $-1 $-1 $297 $62 $-1 $298 forward single #
loop $-1 $299 $300 $118 #
cone-surface $-1 -59.405496783925081 -10.387156010835909 4.2177549390778353 0.50000000669873634 0 -0.8660253999169214 0.21650634997923035 0 0.12500000167468409 1 I I -0.70710678118654746 0.70710678118654746 0.25 forward I I I I #
loop $-1 $-1 $301 $79 #
coedge $-1 $189 $189 $302 $303 reversed $119 $-1 #
face $-1 $-1 $304 $63 $-1 $305 forward single #
loop $-1 $306 $307 $121 #
cone-surface $-1 -59.405496783925081 -8.1984517667264427 4.2177549390778353 0.50000000669873634 0 -0.8660253999169214 0.21650634997923035 0 0.12500000167468409 1 I I -0.70710678118654746 0.70710678118654746 0.25 forward I I I I #
loop $-1 $-1 $308 $80 #
coedge $-1 $194 $194 $309 $310 reversed $122 $-1 #
face $-1 $311 $312 $64 $-1 $313 reversed single #
loop $-1 $-1 $314 $124 #
plane-surface $-1 -63.812982573931073 10.38715601083592 3.4242513503491949 -0.50000000669873634 0 0.8660253999169214 0.8660253999169214 0 0.50000000669873634 forward_v I I I I #
coedge $-1 $315 $316 $317 $318 reversed $125 $-1 #
face $-1 $-1 $319 $65 $-1 $320 forward single #
loop $-1 $321 $322 $127 #
cone-surface $-1 -59.405496783925081 8.1984517667264534 4.2177549390778353 0.50000000669873634 0 -0.8660253999169214 0.21650634997923035 0 0.12500000167468409 1 I I -0.70710678118654746 0.70710678118654746 0.25 forward I I I I #
loop $-1 $-1 $323 $82 #
coedge $-1 $203 $203 $324 $325 reversed $128 $-1 #
face $-1 $-1 $326 $66 $-1 $327 forward single #
loop $-1 $328 $329 $130 #
cone-surface $-1 -59.405496783925081 10.387156010835913 4.2177549390778353 0.50000000669873634 0 -0.8660253999169214 0.21650634997923035 0 0.12500000167468409 1 I I -0.70710678118654746 0.70710678118654746 0.25 forward I I I I #
loop $-1 $-1 $330 $83 #
coedge $-1 $208 $208 $331 $332 reversed $131 $-1 #
face $-1 $-1 $333 $67 $-1 $334 forward single #
loop $-1 $335 $336 $133 #
cone-surface $-1 -59.405496783925081 12.575860254945386 4.2177549390778353 0.50000000669873634 0 -0.8660253999169214 0.21650634997923035 0 0.12500000167468409 1 I I -0.70710678118654746 0.70710678118654746 0.25 forward I I I I #
loop $-1 $-1 $337 $84 #
coedge $-1 $213 $213 $338 $339 reversed $134 $-1 #
face $-1 $340 $341 $51 $-1 $342 reversed single #
loop $-1 $-1 $343 $136 #
plane-surface $-1 0 -29.325694616322107 0 0 1 0 0 0 1 forward_v I I I I #
coedge $-1 $344 $345 $346 $347 forward $137 $-1 #
coedge $-1 $348 $139 $349 $350 forward $86 $-1 #
coedge $-1 $139 $348 $351 $352 forward $86 $-1 #
coedge $-1 $353 $354 $139 $221 reversed $355 $-1 #
edge $-1 $356 -29.325694616322107 $357 29.325694616322107 $220 $358 forward 7 unknown #
face $-1 $359 $360 $52 $-1 $361 forward single #
loop $-1 $-1 $362 $140 #
plane-surface $-1 -48.536986873129806 -25.21230864790062 0 -1 0 0 0 0 1 forward_v I I I I #
coedge $-1 $363 $364 $365 $366 forward $141 $-1 #
coedge $-1 $367 $143 $368 $369 reversed $89 $-1 #
coedge $-1 $143 $367 $370 $371 reversed $89 $-1 #
coedge $-1 $364 $363 $143 $229 reversed $141 $-1 #
edge $-1 $372 -7.6379978504006392 $373 7.6379978504006392 $228 $374 forward 7 unknown #
face $-1 $375 $376 $53 $-1 $377 reversed single #
loop $-1 $-1 $378 $144 #
plane-surface $-1 -48.536986873129806 25.212308647900617 0 -1 0 0 0 0 1 forward_v I I I I #
coedge $-1 $379 $380 $381 $382 reversed $145 $-1 #
coedge $-1 $383 $147 $384 $385 reversed $92 $-1 #
coedge $-1 $147 $383 $386 $387 reversed $92 $-1 #
coedge $-1 $380 $379 $147 $237 reversed $145 $-1 #
edge $-1 $388 -7.6379978504006392 $389 7.6379978504006392 $236 $390 forward 7 unknown #
face $-1 $391 $392 $54 $-1 $393 forward single #
loop $-1 $-1 $394 $148 #
plane-surface $-1 51.222612663899163 -6.2258972014452389 182.85909549095541 0 1 0 0.6560590369687036 0 0.75470957328743171 forward_v I I I I #
coedge $-1 $395 $396 $397 $398 reversed $149 $-1 #
coedge $-1 $243 $151 $399 $400 reversed $95 $-1 #
coedge $-1 $151 $242 $395 $401 reversed $95 $-1 #
coedge $-1 $397 $402 $151 $245 forward $392 $-1 #
edge $-1 $403 -38.201676241981502 $404 -32.645848077948671 $244 $405 forward 7 unknown #
loop $-1 $-1 $251 $152 #
plane-surface $-1 -32.507555123208626 -3.1129486007226177 86.538557793815713 0.6560590369687036 0 0.75470957328743171 0.75470957328743171 0 -0.6560590369687036 forward_v I I I I #
loop $-1 $-1 $406 $97 #
coedge $-1 $249 $249 $250 $407 reversed $153 $-1 #
coedge $-1 $250 $250 $249 $407 forward $155 $-1 #
coedge $-1 $251 $251 $156 $252 forward $246 $-1 #
edge $-1 $408 0 $408 6.2831853071796004 $251 $409 forward 7 unknown #
loop $-1 $-1 $258 $157 #
plane-surface $-1 -32.507555123208626 -3.1129486007226177 86.538557793815713 0.6560590369687036 0 0.75470957328743171 0.75470957328743171 0 -0.6560590369687036 forward_v I I I I #
loop $-1 $-1 $410 $100 #
coedge $-1 $256 $256 $257 $411 reversed $158 $-1 #
coedge $-1 $257 $257 $256 $411 forward $160 $-1 #
coedge $-1 $258 $258 $161 $259 forward $253 $-1 #
edge $-1 $412 0 $412 6.2831853071796004 $258 $413 forward 7 unknown #
face $-1 $414 $415 $57 $-1 $416 reversed single #
loop $-1 $-1 $417 $162 #
plane-surface $-1 51.222612663899163 14.873025478033895 182.85909549095541 0 1 0 0.6560590369687036 0 0.75470957328743171 forward_v I I I I #
coedge $-1 $418 $419 $420 $421 reversed $163 $-1 #
coedge $-1 $265 $165 $422 $423 reversed $104 $-1 #
coedge $-1 $165 $264 $418 $424 reversed $104 $-1 #
coedge $-1 $420 $425 $165 $267 forward $426 $-1 #
edge $-1 $427 -38.201676241981502 $428 -32.645848077948671 $266 $429 forward 7 unknown #
loop $-1 $-1 $273 $166 #
plane-surface $-1 -32.507555123208626 17.985974078756517 86.538557793815713 0.6560590369687036 0 0.75470957328743171 0.75470957328743171 0 -0.6560590369687036 forward_v I I I I #
loop $-1 $-1 $430 $106 #
coedge $-1 $271 $271 $272 $431 reversed $167 $-1 #
coedge $-1 $272 $272 $271 $431 forward $169 $-1 #
coedge $-1 $273 $273 $170 $274 forward $268 $-1 #
edge $-1 $432 0 $432 6.2831853071796004 $273 $433 forward 7 unknown #
loop $-1 $-1 $280 $171 #
plane-surface $-1 -32.507555123208626 17.985974078756517 86.538557793815713 0.6560590369687036 0 0.75470957328743171 0.75470957328743171 0 -0.6560590369687036 forward_v I I I I #
loop $-1 $-1 $434 $109 #
coedge $-1 $278 $278 $279 $435 reversed $172 $-1 #
coedge $-1 $279 $279 $278 $435 forward $174 $-1 #
coedge $-1 $280 $280 $175 $281 forward $275 $-1 #
edge $-1 $436 0 $436 6.2831853071796004 $280 $437 forward 7 unknown #
face $-1 $438 $439 $60 $-1 $440 reversed single #
loop $-1 $-1 $441 $176 #
plane-surface $-1 -127.62596600279485 -6.7393156039867943 113.95157885730961 0 -1 0 0.50000000669873634 0 -0.8660253999169214 forward_v I I I I #
coedge $-1 $442 $443 $444 $445 reversed $177 $-1 #
coedge $-1 $287 $179 $446 $447 reversed $113 $-1 #
coedge $-1 $179 $286 $442 $448 reversed $113 $-1 #
coedge $-1 $444 $449 $179 $289 forward $450 $-1 #
edge $-1 $451 4.2746633965862202e-007 $452 7.2984233253970956 $288 $453 forward 7 unknown #
loop $-1 $-1 $295 $180 #
plane-surface $-1 -63.812982573931073 -10.387156010835906 3.4242513503491949 -0.50000000669873634 0 0.8660253999169214 0.8660253999169214 0 0.50000000669873634 forward_v I I I I #
loop $-1 $-1 $454 $115 #
coedge $-1 $293 $293 $294 $455 reversed $181 $-1 #
coedge $-1 $294 $294 $293 $455 forward $183 $-1 #
coedge $-1 $295 $295 $184 $296 forward $290 $-1 #
edge $-1 $456 0 $456 6.2831853071796004 $295 $457 forward 7 unknown #
loop $-1 $-1 $302 $185 #
plane-surface $-1 -63.812982573931073 -10.387156010835906 3.4242513503491949 -0.50000000669873634 0 0.8660253999169214 0.8660253999169214 0 0.50000000669873634 forward_v I I I I #
loop $-1 $-1 $458 $118 #
coedge $-1 $300 $300 $301 $459 reversed $186 $-1 #
coedge $-1 $301 $301 $300 $459 forward $188 $-1 #
coedge $-1 $302 $302 $189 $303 forward $297 $-1 #
edge $-1 $460 0 $460 6.2831853071796004 $302 $461 forward 7 unknown #
loop $-1 $-1 $309 $190 #
plane-surface $-1 -63.812982573931073 -10.387156010835906 3.4242513503491949 -0.50000000669873634 0 0.8660253999169214 0.8660253999169214 0 0.50000000669873634 forward_v I I I I #
loop $-1 $-1 $462 $121 #
coedge $-1 $307 $307 $308 $463 reversed $191 $-1 #
coedge $-1 $308 $308 $307 $463 forward $193 $-1 #
coedge $-1 $309 $309 $194 $310 forward $304 $-1 #
edge $-1 $464 0 $464 6.2831853071796004 $309 $465 forward 7 unknown #
face $-1 $466 $467 $64 $-1 $468 forward single #
loop $-1 $-1 $469 $195 #
plane-surface $-1 -127.62596600279485 14.034996417685031 113.95157885730961 0 -1 0 0.50000000669873634 0 -0.8660253999169214 forward_v I I I I #
coedge $-1 $470 $471 $472 $473 reversed $196 $-1 #
coedge $-1 $316 $198 $474 $475 reversed $125 $-1 #
coedge $-1 $198 $315 $470 $476 reversed $125 $-1 #
coedge $-1 $472 $477 $198 $318 forward $467 $-1 #
edge $-1 $478 4.2746633965862202e-007 $479 7.2984233253970956 $317 $480 forward 7 unknown #
loop $-1 $-1 $324 $199 #
plane-surface $-1 -63.812982573931073 10.38715601083592 3.4242513503491949 -0.50000000669873634 0 0.8660253999169214 0.8660253999169214 0 0.50000000669873634 forward_v I I I I #
loop $-1 $-1 $481 $127 #
coedge $-1 $322 $322 $323 $482 reversed $200 $-1 #
coedge $-1 $323 $323 $322 $482 forward $202 $-1 #
coedge $-1 $324 $324 $203 $325 forward $319 $-1 #
edge $-1 $483 0 $483 6.2831853071796004 $324 $484 forward 7 unknown #
loop $-1 $-1 $331 $204 #
plane-surface $-1 -63.812982573931073 10.38715601083592 3.4242513503491949 -0.50000000669873634 0 0.8660253999169214 0.8660253999169214 0 0.50000000669873634 forward_v I I I I #
loop $-1 $-1 $485 $130 #
coedge $-1 $329 $329 $330 $486 reversed $205 $-1 #
coedge $-1 $330 $330 $329 $486 forward $207 $-1 #
coedge $-1 $331 $331 $208 $332 forward $326 $-1 #
edge $-1 $487 0 $487 6.2831853071796004 $331 $488 forward 7 unknown #
loop $-1 $-1 $338 $209 #
plane-surface $-1 -63.812982573931073 10.38715601083592 3.4242513503491949 -0.50000000669873634 0 0.8660253999169214 0.8660253999169214 0 0.50000000669873634 forward_v I I I I #
loop $-1 $-1 $489 $133 #
coedge $-1 $336 $336 $337 $490 reversed $210 $-1 #
coedge $-1 $337 $337 $336 $490 forward $212 $-1 #
coedge $-1 $338 $338 $213 $339 forward $333 $-1 #
edge $-1 $491 0 $491 6.2831853071796004 $338 $492 forward 7 unknown #
face $-1 $493 $494 $51 $-1 $495 reversed single #
loop $-1 $-1 $496 $214 #
plane-surface $-1 -63.812982573931087 0 0 1 0 0 0 0 -1 forward_v I I I I #
coedge $-1 $497 $351 $498 $499 forward $215 $-1 #
coedge $-1 $500 $217 $497 $501 forward $137 $-1 #
coedge $-1 $217 $500 $502 $503 forward $137 $-1 #
coedge $-1 $354 $353 $217 $347 reversed $355 $-1 #
edge $-1 $504 -29.325694616322107 $505 29.325694616322107 $346 $506 forward 7 unknown #
coedge $-1 $219 $218 $507 $508 forward $86 $-1 #
coedge $-1 $509 $510 $218 $350 reversed $494 $-1 #
edge $-1 $357 -63.812982573931087 $511 63.812982573931087 $349 $512 forward 7 unknown #
coedge $-1 $343 $513 $219 $352 reversed $215 $-1 #
edge $-1 $514 -63.812982573931087 $356 63.812982573931087 $351 $515 forward 7 unknown #
coedge $-1 $346 $220 $513 $516 forward $355 $-1 #
coedge $-1 $220 $346 $509 $517 reversed $355 $-1 #
loop $-1 $-1 $353 $493 #
vertex $-1 $221 $518 #
vertex $-1 $221 $519 #
straight-curve $-1 63.812982573931087 0 7.6379978504006392 0 1 0 I I #
face $-1 $520 $521 $52 $-1 $522 reversed single #
loop $-1 $-1 $523 $222 #
plane-surface $-1 0 0 7.6379978504006392 0 0 1 1 0 0 forward_v I I I I #
coedge $-1 $524 $525 $526 $527 reversed $223 $-1 #
coedge $-1 $228 $225 $528 $529 reversed $141 $-1 #
coedge $-1 $225 $228 $530 $531 reversed $141 $-1 #
coedge $-1 $525 $524 $225 $366 reversed $223 $-1 #
edge $-1 $532 -7.6379978504006392 $533 7.6379978504006392 $365 $534 forward 7 unknown #
coedge $-1 $227 $226 $535 $536 reversed $89 $-1 #
coedge $-1 $528 $537 $226 $369 forward $521 $-1 #
edge $-1 $538 -16.719540292371796 $373 -8.492768355528824 $368 $539 forward 7 unknown #
coedge $-1 $540 $530 $227 $371 forward $360 $-1 #
edge $-1 $372 8.492768355528824 $541 16.719540292371796 $370 $542 forward 7 unknown #
vertex $-1 $371 $543 #
vertex $-1 $369 $544 #
straight-curve $-1 -52.448922891837455 -21.098922679479134 0 0 0 -1 I I #
face $-1 $545 $546 $53 $-1 $547 forward single #
loop $-1 $-1 $548 $230 #
plane-surface $-1 0 0 -7.6379978504006392 0 0 1 1 0 0 forward_v I I I I #
coedge $-1 $549 $550 $383 $551 forward $231 $-1 #
coedge $-1 $236 $233 $552 $553 reversed $145 $-1 #
coedge $-1 $233 $236 $554 $555 reversed $145 $-1 #
coedge $-1 $556 $557 $233 $382 forward $558 $-1 #
edge $-1 $559 -7.6379978504006392 $560 7.6379978504006392 $381 $561 forward 7 unknown #
coedge $-1 $235 $234 $378 $551 reversed $92 $-1 #
coedge $-1 $552 $548 $234 $385 forward $376 $-1 #
edge $-1 $562 23.29050943188799 $389 27.20244545059564 $384 $563 forward 7 unknown #
coedge $-1 $564 $554 $235 $387 forward $546 $-1 #
edge $-1 $388 -27.20244545059564 $565 -23.29050943188799 $386 $566 forward 7 unknown #
vertex $-1 $387 $567 #
vertex $-1 $385 $568 #
straight-curve $-1 -52.448922891837455 21.098922679479131 0 0 0 -1 I I #
face $-1 $-1 $569 $54 $-1 $570 reversed single #
loop $-1 $-1 $244 $238 #
plane-surface $-1 0 0 7.6379978504006392 0 0 1 1 0 0 forward_v I I I I #
coedge $-1 $571 $572 $573 $574 reversed $239 $-1 #
coedge $-1 $575 $241 $243 $401 forward $149 $-1 #
coedge $-1 $241 $575 $571 $576 forward $149 $-1 #
coedge $-1 $573 $244 $241 $398 forward $392 $-1 #
edge $-1 $404 -1.5564743003613124 $577 4.6694229010839301 $397 $578 forward 7 unknown #
coedge $-1 $579 $580 $242 $400 forward $569 $-1 #
edge $-1 $581 -88.621157738769796 $403 -83.791549895077068 $399 $582 forward 7 unknown #
edge $-1 $404 120.26442057405714 $581 127.6259651478622 $243 $583 forward 7 unknown #
coedge $-1 $244 $573 $579 $584 forward $392 $-1 #
vertex $-1 $245 $585 #
vertex $-1 $245 $586 #
straight-curve $-1 25.611306331949582 3.5527136788005009e-015 7.6379978504006374 -1 0 0 I I #
coedge $-1 $406 $406 $-1 $587 reversed $248 $-1 #
edge $-1 $588 0 $588 6.2831853071796004 $249 $589 forward 7 unknown #
vertex $-1 $252 $590 #
ellipse-curve $-1 61.035068491914657 -4.4470694296037401 5.2231939285542879 0.6560590369687036 0 0.75470957328743171 0.18867739332185793 0 -0.1640147592421759 1 I I #
coedge $-1 $410 $410 $-1 $591 reversed $255 $-1 #
edge $-1 $592 0 $592 6.2831853071796004 $256 $593 forward 7 unknown #
vertex $-1 $259 $594 #
ellipse-curve $-1 61.035068491914657 -1.7788277718414918 5.2231939285542879 0.6560590369687036 0 0.75470957328743171 0.18867739332185793 0 -0.1640147592421759 1 I I #
face $-1 $-1 $426 $57 $-1 $595 forward single #
loop $-1 $-1 $596 $260 #
plane-surface $-1 63.812982573931087 0 0 -1 0 0 0 0 1 forward_v I I I I #
coedge $-1 $597 $598 $599 $600 reversed $261 $-1 #
coedge $-1 $601 $263 $265 $424 forward $163 $-1 #
coedge $-1 $263 $601 $597 $602 forward $163 $-1 #
coedge $-1 $599 $266 $263 $421 forward $426 $-1 #
edge $-1 $428 -12.10593564010088 $603 -5.880038438655637 $420 $604 forward 7 unknown #
coedge $-1 $605 $606 $264 $423 forward $415 $-1 #
edge $-1 $607 -88.621157738769796 $427 -83.791549895077068 $422 $608 forward 7 unknown #
edge $-1 $428 120.26442057405714 $607 127.6259651478622 $265 $609 forward 7 unknown #
coedge $-1 $266 $599 $605 $610 forward $426 $-1 #
loop $-1 $-1 $599 $414 #
vertex $-1 $423 $611 #
vertex $-1 $267 $612 #
straight-curve $-1 25.611306331949582 21.098922679479138 7.6379978504006374 -1 0 0 I I #
coedge $-1 $430 $430 $-1 $613 reversed $270 $-1 #
edge $-1 $614 0 $614 6.2831853071796004 $271 $615 forward 7 unknown #
vertex $-1 $274 $616 #
ellipse-curve $-1 61.035068491914657 16.651853249875391 5.2231939285542879 0.6560590369687036 0 0.75470957328743171 0.18867739332185793 0 -0.1640147592421759 1 I I #
coedge $-1 $434 $434 $-1 $617 reversed $277 $-1 #
edge $-1 $618 0 $618 6.2831853071796004 $278 $619 forward 7 unknown #
vertex $-1 $281 $620 #
ellipse-curve $-1 61.035068491914657 19.320094907637642 5.2231939285542879 0.6560590369687036 0 0.75470957328743171 0.18867739332185793 0 -0.1640147592421759 1 I I #
face $-1 $-1 $450 $60 $-1 $621 forward single #
loop $-1 $-1 $622 $282 #
plane-surface $-1 -63.812982573931087 0 0 1 0 0 0 0 -1 forward_v I I I I #
coedge $-1 $623 $624 $625 $626 reversed $283 $-1 #
coedge $-1 $627 $285 $287 $448 forward $177 $-1 #
coedge $-1 $285 $627 $623 $628 forward $177 $-1 #
coedge $-1 $625 $288 $285 $445 forward $450 $-1 #
edge $-1 $452 -8.841418412267064 $629 -1.5457375985688415 $444 $630 forward 7 unknown #
coedge $-1 $631 $632 $286 $447 forward $439 $-1 #
edge $-1 $633 -53.551538078305619 $451 -49.337791578254169 $446 $634 forward 7 unknown #
edge $-1 $452 -8.4274928871957862 $633 1.6303764080091705e-014 $287 $635 forward 7 unknown #
coedge $-1 $288 $625 $631 $636 forward $450 $-1 #
loop $-1 $-1 $625 $438 #
vertex $-1 $447 $637 #
vertex $-1 $289 $638 #
straight-curve $-1 -63.812983001397427 -14.034996417685017 7.6379978504006374 1 0 0 I I #
coedge $-1 $454 $454 $-1 $639 reversed $292 $-1 #
edge $-1 $640 0 $640 6.2831853071796004 $293 $641 forward 7 unknown #
vertex $-1 $296 $642 #
ellipse-curve $-1 -60.163771124965713 -12.575860254945376 5.5311246003749108 -0.50000000669873634 0 0.8660253999169214 0.4330126999584607 0 0.25000000334936817 1 I I #
coedge $-1 $458 $458 $-1 $643 reversed $299 $-1 #
edge $-1 $644 0 $644 6.2831853071796004 $300 $645 forward 7 unknown #
vertex $-1 $303 $646 #
ellipse-curve $-1 -60.163771124965713 -10.387156010835909 5.5311246003749108 -0.50000000669873634 0 0.8660253999169214 0.4330126999584607 0 0.25000000334936817 1 I I #
coedge $-1 $462 $462 $-1 $647 reversed $306 $-1 #
edge $-1 $648 0 $648 6.2831853071796004 $307 $649 forward 7 unknown #
vertex $-1 $310 $650 #
ellipse-curve $-1 -60.163771124965713 -8.1984517667264427 5.5311246003749108 -0.50000000669873634 0 0.8660253999169214 0.4330126999584607 0 0.25000000334936817 1 I I #
face $-1 $-1 $651 $64 $-1 $652 reversed single #
loop $-1 $-1 $317 $311 #
plane-surface $-1 0 0 7.6379978504006392 0 0 1 1 0 0 forward_v I I I I #
coedge $-1 $653 $654 $655 $656 reversed $312 $-1 #
coedge $-1 $657 $314 $316 $476 forward $196 $-1 #
coedge $-1 $314 $657 $653 $658 forward $196 $-1 #
coedge $-1 $655 $317 $314 $473 forward $467 $-1 #
edge $-1 $479 1.5457375985688486 $659 8.8414184122670711 $472 $660 forward 7 unknown #
coedge $-1 $661 $662 $315 $475 forward $651 $-1 #
edge $-1 $663 -53.551538078305619 $478 -49.337791578254169 $474 $664 forward 7 unknown #
edge $-1 $479 -8.4274928871957862 $663 1.6303764080091705e-014 $316 $665 forward 7 unknown #
coedge $-1 $317 $655 $661 $666 forward $467 $-1 #
vertex $-1 $475 $667 #
vertex $-1 $318 $668 #
straight-curve $-1 -63.812983001397427 6.7393156039868085 7.6379978504006374 1 0 0 I I #
coedge $-1 $481 $481 $-1 $669 reversed $321 $-1 #
edge $-1 $670 0 $670 6.2831853071796004 $322 $671 forward 7 unknown #
vertex $-1 $325 $672 #
ellipse-curve $-1 -60.163771124965713 8.1984517667264534 5.5311246003749108 -0.50000000669873634 0 0.8660253999169214 0.4330126999584607 0 0.25000000334936817 1 I I #
coedge $-1 $485 $485 $-1 $673 reversed $328 $-1 #
edge $-1 $674 0 $674 6.2831853071796004 $329 $675 forward 7 unknown #
vertex $-1 $332 $676 #
ellipse-curve $-1 -60.163771124965713 10.387156010835913 5.5311246003749108 -0.50000000669873634 0 0.8660253999169214 0.4330126999584607 0 0.25000000334936817 1 I I #
coedge $-1 $489 $489 $-1 $677 reversed $335 $-1 #
edge $-1 $678 0 $678 6.2831853071796004 $336 $679 forward 7 unknown #
vertex $-1 $339 $680 #
ellipse-curve $-1 -60.163771124965713 12.575860254945386 5.5311246003749108 -0.50000000669873634 0 0.8660253999169214 0.4330126999584607 0 0.25000000334936817 1 I I #
face $-1 $-1 $355 $51 $-1 $681 reversed single #
loop $-1 $-1 $509 $340 #
plane-surface $-1 0 29.325694616322107 0 0 -1 0 0 0 -1 forward_v I I I I #
coedge $-1 $682 $507 $510 $683 forward $341 $-1 #
coedge $-1 $513 $343 $344 $501 reversed $215 $-1 #
coedge $-1 $507 $682 $343 $499 reversed $341 $-1 #
edge $-1 $514 -7.6379978504006392 $684 7.6379978504006392 $498 $685 forward 7 unknown #
coedge $-1 $345 $344 $682 $686 forward $137 $-1 #
edge $-1 $505 -63.812982573931087 $684 63.812982573931087 $497 $687 forward 7 unknown #
coedge $-1 $510 $509 $345 $503 reversed $494 $-1 #
edge $-1 $688 -63.812982573931087 $504 63.812982573931087 $502 $689 forward 7 unknown #
vertex $-1 $347 $690 #
vertex $-1 $516 $691 #
straight-curve $-1 63.812982573931087 0 -7.6379978504006392 0 -1 0 I I #
coedge $-1 $496 $498 $348 $508 reversed $341 $-1 #
edge $-1 $511 -29.325694616322107 $514 29.325694616322107 $507 $692 forward 7 unknown #
coedge $-1 $502 $349 $354 $517 forward $494 $-1 #
coedge $-1 $349 $502 $496 $683 reversed $494 $-1 #
vertex $-1 $350 $693 #
straight-curve $-1 0 29.325694616322107 7.6379978504006392 -1 0 0 I I #
coedge $-1 $351 $497 $353 $516 reversed $215 $-1 #
vertex $-1 $508 $694 #
straight-curve $-1 0 -29.325694616322107 7.6379978504006392 1 0 0 I I #
edge $-1 $356 -7.6379978504006392 $505 7.6379978504006392 $353 $695 forward 7 unknown #
edge $-1 $357 -7.6379978504006392 $504 7.6379978504006392 $354 $696 forward 7 unknown #
point $-1 63.812982573931087 -29.325694616322107 7.6379978504006392 #
point $-1 63.812982573931087 29.325694616322107 7.6379978504006392 #
face $-1 $-1 $697 $52 $-1 $698 reversed single #
loop $-1 $-1 $699 $359 #
plane-surface $-1 0 0 -7.6379978504006392 0 0 1 1 0 0 forward_v I I I I #
coedge $-1 $530 $540 $525 $700 forward $360 $-1 #
coedge $-1 $365 $362 $699 $701 reversed $223 $-1 #
coedge $-1 $362 $365 $523 $700 reversed $223 $-1 #
coedge $-1 $702 $703 $362 $527 forward $697 $-1 #
edge $-1 $704 -7.6379978504006392 $705 7.6379978504006392 $526 $706 forward 7 unknown #
coedge $-1 $699 $368 $363 $529 forward $521 $-1 #
edge $-1 $373 -27.20244545059564 $533 -23.29050943188799 $528 $707 forward 7 unknown #
coedge $-1 $370 $523 $364 $531 forward $360 $-1 #
edge $-1 $532 23.29050943188799 $372 27.20244545059564 $530 $708 forward 7 unknown #
vertex $-1 $531 $709 #
vertex $-1 $529 $710 #
straight-curve $-1 -48.536986873129806 -21.098922679479134 0 0 0 -1 I I #
coedge $-1 $703 $702 $367 $536 forward $697 $-1 #
edge $-1 $541 -7.6379978504006392 $538 7.6379978504006392 $535 $711 forward 7 unknown #
coedge $-1 $368 $699 $703 $712 forward $521 $-1 #
vertex $-1 $369 $713 #
straight-curve $-1 -52.448922891837455 -12.60615432395031 -7.6379978504006392 0 1 0 I I #
coedge $-1 $523 $370 $702 $714 forward $360 $-1 #
vertex $-1 $714 $715 #
straight-curve $-1 -52.448922891837455 -12.60615432395031 7.6379978504006392 0 -1 0 I I #
point $-1 -52.448922891837455 -21.098922679479134 7.6379978504006392 #
point $-1 -52.448922891837455 -21.098922679479134 -7.6379978504006392 #
face $-1 $-1 $558 $53 $-1 $716 reversed single #
loop $-1 $-1 $564 $375 #
plane-surface $-1 0 0 7.6379978504006392 0 0 1 1 0 0 forward_v I I I I #
coedge $-1 $384 $717 $549 $718 forward $376 $-1 #
coedge $-1 $719 $378 $548 $718 reversed $231 $-1 #
coedge $-1 $378 $719 $564 $720 reversed $231 $-1 #
edge $-1 $565 -7.6379978504006392 $562 7.6379978504006392 $378 $721 forward 7 unknown #
coedge $-1 $717 $384 $379 $553 forward $376 $-1 #
edge $-1 $389 8.4927683555288223 $559 16.719540292371796 $552 $722 forward 7 unknown #
coedge $-1 $386 $723 $380 $555 forward $546 $-1 #
edge $-1 $560 -16.719540292371796 $388 -8.4927683555288223 $554 $724 forward 7 unknown #
coedge $-1 $725 $381 $723 $726 reversed $558 $-1 #
coedge $-1 $381 $725 $717 $727 reversed $558 $-1 #
loop $-1 $-1 $725 $545 #
vertex $-1 $727 $728 #
vertex $-1 $382 $729 #
straight-curve $-1 -52.448922891837455 29.325694616322107 0 0 0 1 I I #
vertex $-1 $385 $730 #
straight-curve $-1 -25.246477441241815 21.098922679479131 -7.6379978504006392 -1 0 0 I I #
coedge $-1 $723 $386 $550 $720 forward $546 $-1 #
vertex $-1 $387 $731 #
straight-curve $-1 -25.246477441241815 21.098922679479131 7.6379978504006392 1 0 0 I I #
point $-1 -52.448922891837455 21.098922679479131 7.6379978504006392 #
point $-1 -52.448922891837455 21.098922679479131 -7.6379978504006392 #
loop $-1 $-1 $399 $391 #
plane-surface $-1 63.812982573931087 0 0 -1 0 0 0 0 1 forward_v I I I I #
coedge $-1 $572 $394 $396 $576 reversed $239 $-1 #
coedge $-1 $394 $571 $732 $733 reversed $239 $-1 #
coedge $-1 $402 $397 $394 $574 forward $392 $-1 #
edge $-1 $577 32.645848077948671 $734 38.201676241981502 $573 $735 forward 7 unknown #
coedge $-1 $396 $395 $580 $736 reversed $149 $-1 #
edge $-1 $737 -127.6259651478622 $577 -120.26442057405714 $571 $738 forward 7 unknown #
vertex $-1 $398 $739 #
straight-curve $-1 58.257154409898256 -1.5564743003613088 7.6379978504006445 0 -1 0 I I #
coedge $-1 $732 $399 $402 $584 reversed $569 $-1 #
coedge $-1 $399 $732 $575 $736 forward $569 $-1 #
vertex $-1 $400 $740 #
straight-curve $-1 63.812982573931087 3.5527136788005009e-015 91.429547745477706 0 0 1 I I #
straight-curve $-1 -32.507555123208626 3.5527136788005009e-015 86.538557793815713 0.75470957328743171 0 -0.6560590369687036 I I #
edge $-1 $734 -6.2258972014452389 $403 3.5527136788005009e-015 $579 $741 forward 7 unknown #
point $-1 63.812982573931087 3.5527136788005009e-015 7.6379978504006392 #
point $-1 58.257154409898256 3.5527136788005009e-015 7.6379978504006374 #
edge $-1 $742 1 $742 0 $406 $-1 forward 7 unknown #
vertex $-1 $407 $743 #
ellipse-curve $-1 60.379009454945965 -4.4470694296037401 4.4684843552668667 0.6560590369687036 0 0.75470957328743171 0.18867739332185793 0 -0.1640147592421759 1 I I #
point $-1 61.223745885236525 -4.4470694296037401 5.0591791693121229 #
edge $-1 $744 1 $744 0 $410 $-1 forward 7 unknown #
vertex $-1 $411 $745 #
ellipse-curve $-1 60.379009454945965 -1.7788277718414918 4.4684843552668667 0.6560590369687036 0 0.75470957328743171 0.18867739332185793 0 -0.1640147592421759 1 I I #
point $-1 61.223745885236525 -1.7788277718414918 5.0591791693121229 #
plane-surface $-1 0 0 7.6379978504006392 0 0 1 1 0 0 forward_v I I I I #
coedge $-1 $606 $605 $598 $746 forward $415 $-1 #
coedge $-1 $598 $417 $419 $602 reversed $261 $-1 #
coedge $-1 $417 $597 $596 $746 reversed $261 $-1 #
coedge $-1 $425 $420 $417 $600 forward $426 $-1 #
edge $-1 $603 32.645848077948671 $747 38.201676241981502 $599 $748 forward 7 unknown #
coedge $-1 $419 $418 $606 $749 reversed $163 $-1 #
edge $-1 $750 -127.6259651478622 $603 -120.26442057405714 $597 $751 forward 7 unknown #
vertex $-1 $421 $752 #
straight-curve $-1 58.257154409898256 8.9929870393782583 7.6379978504006445 0 -1 0 I I #
coedge $-1 $596 $422 $425 $610 reversed $415 $-1 #
coedge $-1 $422 $596 $601 $749 forward $415 $-1 #
vertex $-1 $423 $753 #
straight-curve $-1 63.812982573931087 21.098922679479138 91.429547745477706 0 0 1 I I #
straight-curve $-1 -32.507555123208626 21.098922679479138 86.538557793815713 0.75470957328743171 0 -0.6560590369687036 I I #
edge $-1 $747 14.873025478033895 $427 21.098922679479138 $605 $754 forward 7 unknown #
point $-1 63.812982573931087 21.098922679479138 7.6379978504006392 #
point $-1 58.257154409898256 21.098922679479138 7.6379978504006374 #
edge $-1 $755 1 $755 0 $430 $-1 forward 7 unknown #
vertex $-1 $431 $756 #
ellipse-curve $-1 60.379009454945965 16.651853249875391 4.4684843552668667 0.6560590369687036 0 0.75470957328743171 0.18867739332185793 0 -0.1640147592421759 1 I I #
point $-1 61.223745885236525 16.651853249875391 5.0591791693121229 #
edge $-1 $757 1 $757 0 $434 $-1 forward 7 unknown #
vertex $-1 $435 $758 #
ellipse-curve $-1 60.379009454945965 19.320094907637642 4.4684843552668667 0.6560590369687036 0 0.75470957328743171 0.18867739332185793 0 -0.1640147592421759 1 I I #
point $-1 61.223745885236525 19.320094907637642 5.0591791693121229 #
plane-surface $-1 0 0 7.6379978504006392 0 0 1 1 0 0 forward_v I I I I #
coedge $-1 $632 $631 $624 $759 forward $439 $-1 #
coedge $-1 $624 $441 $443 $628 reversed $283 $-1 #
coedge $-1 $441 $623 $622 $759 reversed $283 $-1 #
coedge $-1 $449 $444 $441 $626 forward $450 $-1 #
edge $-1 $629 -7.2984233253970956 $760 -4.2746633965862202e-007 $625 $761 forward 7 unknown #
coedge $-1 $443 $442 $632 $762 reversed $177 $-1 #
edge $-1 $763 -1.6303764080091705e-014 $629 8.4274928871957862 $623 $764 forward 7 unknown #
vertex $-1 $445 $765 #
straight-curve $-1 -56.514559676000339 -5.1935780054179528 7.6379978504006392 0 1 0 I I #
coedge $-1 $622 $446 $449 $636 reversed $439 $-1 #
coedge $-1 $446 $622 $627 $762 forward $439 $-1 #
vertex $-1 $447 $766 #
straight-curve $-1 -63.812982573931087 -14.034996417685017 56.975789428654807 0 0 1 I I #
straight-curve $-1 -63.812982573931073 -14.034996417685017 3.4242513503491949 -0.8660253999169214 0 -0.50000000669873634 I I #
edge $-1 $760 6.7393156039867943 $451 14.034996417685017 $631 $767 forward 7 unknown #
point $-1 -63.812982573931087 -14.034996417685017 7.6379978504006392 #
point $-1 -56.514559676000331 -14.034996417685017 7.6379978504006392 #
edge $-1 $768 1 $768 0 $454 $-1 forward 7 unknown #
vertex $-1 $455 $769 #
ellipse-curve $-1 -59.530496785599766 -12.575860254945376 4.4342612890570656 -0.50000000669873634 0 0.8660253999169214 0.4330126999584607 0 0.25000000334936817 1 I I #
point $-1 -59.730758425007259 -12.575860254945376 5.7811246037242885 #
edge $-1 $770 1 $770 0 $458 $-1 forward 7 unknown #
vertex $-1 $459 $771 #
ellipse-curve $-1 -59.530496785599766 -10.387156010835909 4.4342612890570656 -0.50000000669873634 0 0.8660253999169214 0.4330126999584607 0 0.25000000334936817 1 I I #
point $-1 -59.730758425007259 -10.387156010835909 5.7811246037242885 #
edge $-1 $772 1 $772 0 $462 $-1 forward 7 unknown #
vertex $-1 $463 $773 #
ellipse-curve $-1 -59.530496785599766 -8.1984517667264427 4.4342612890570656 -0.50000000669873634 0 0.8660253999169214 0.4330126999584607 0 0.25000000334936817 1 I I #
point $-1 -59.730758425007259 -8.1984517667264427 5.7811246037242885 #
loop $-1 $-1 $474 $466 #
plane-surface $-1 -63.812982573931087 0 0 1 0 0 0 0 -1 forward_v I I I I #
coedge $-1 $654 $469 $471 $658 reversed $312 $-1 #
coedge $-1 $469 $653 $774 $775 reversed $312 $-1 #
coedge $-1 $477 $472 $469 $656 forward $467 $-1 #
edge $-1 $659 -7.2984233253970956 $776 -4.2746633965862202e-007 $655 $777 forward 7 unknown #
coedge $-1 $471 $470 $662 $778 reversed $196 $-1 #
edge $-1 $779 -1.6303764080091705e-014 $659 8.4274928871957862 $653 $780 forward 7 unknown #
vertex $-1 $473 $781 #
straight-curve $-1 -56.514559676000339 5.1935780054179599 7.6379978504006392 0 1 0 I I #
coedge $-1 $774 $474 $477 $666 reversed $651 $-1 #
coedge $-1 $474 $774 $657 $778 forward $651 $-1 #
vertex $-1 $475 $782 #
straight-curve $-1 -63.812982573931087 6.7393156039868085 56.975789428654807 0 0 1 I I #
straight-curve $-1 -63.812982573931073 6.7393156039868085 3.4242513503491949 -0.8660253999169214 0 -0.50000000669873634 I I #
edge $-1 $776 -14.034996417685031 $478 -6.7393156039868085 $661 $783 forward 7 unknown #
point $-1 -63.812982573931087 6.7393156039868085 7.6379978504006392 #
point $-1 -56.514559676000331 6.7393156039868085 7.6379978504006392 #
edge $-1 $784 1 $784 0 $481 $-1 forward 7 unknown #
vertex $-1 $482 $785 #
ellipse-curve $-1 -59.530496785599766 8.1984517667264534 4.4342612890570656 -0.50000000669873634 0 0.8660253999169214 0.4330126999584607 0 0.25000000334936817 1 I I #
point $-1 -59.730758425007259 8.1984517667264534 5.7811246037242885 #
edge $-1 $786 1 $786 0 $485 $-1 forward 7 unknown #
vertex $-1 $486 $787 #
ellipse-curve $-1 -59.530496785599766 10.387156010835913 4.4342612890570656 -0.50000000669873634 0 0.8660253999169214 0.4330126999584607 0 0.25000000334936817 1 I I #
point $-1 -59.730758425007259 10.387156010835913 5.7811246037242885 #
edge $-1 $788 1 $788 0 $489 $-1 forward 7 unknown #
vertex $-1 $490 $789 #
ellipse-curve $-1 -59.530496785599766 12.575860254945386 4.4342612890570656 -0.50000000669873634 0 0.8660253999169214 0.4330126999584607 0 0.25000000334936817 1 I I #
point $-1 -59.730758425007259 12.575860254945386 5.7811246037242885 #
plane-surface $-1 63.812982573931087 0 0 -1 0 0 0 0 1 forward_v I I I I #
coedge $-1 $498 $496 $500 $686 reversed $341 $-1 #
edge $-1 $511 -7.6379978504006392 $688 7.6379978504006392 $510 $790 forward 7 unknown #
vertex $-1 $686 $791 #
straight-curve $-1 -63.812982573931087 -29.325694616322107 0 0 0 -1 I I #
edge $-1 $684 -29.325694616322107 $688 29.325694616322107 $682 $792 forward 7 unknown #
straight-curve $-1 0 -29.325694616322107 -7.6379978504006392 -1 0 0 I I #
vertex $-1 $503 $793 #
straight-curve $-1 0 29.325694616322107 -7.6379978504006392 1 0 0 I I #
point $-1 63.812982573931087 29.325694616322107 -7.6379978504006392 #
point $-1 63.812982573931087 -29.325694616322107 -7.6379978504006392 #
straight-curve $-1 -63.812982573931087 0 7.6379978504006392 0 -1 0 I I #
point $-1 -63.812982573931087 29.325694616322107 7.6379978504006392 #
point $-1 -63.812982573931087 -29.325694616322107 7.6379978504006392 #
straight-curve $-1 63.812982573931087 -29.325694616322107 0 0 0 -1 I I #
straight-curve $-1 63.812982573931087 29.325694616322107 0 0 0 -1 I I #
loop $-1 $-1 $526 $520 #
plane-surface $-1 0 -29.325694616322107 0 0 1 0 0 0 1 forward_v I I I I #
coedge $-1 $537 $528 $524 $701 forward $521 $-1 #
edge $-1 $705 -16.719540292371796 $532 -8.492768355528824 $523 $794 forward 7 unknown #
edge $-1 $533 8.492768355528824 $704 16.719540292371796 $699 $795 forward 7 unknown #
coedge $-1 $535 $526 $540 $714 reversed $697 $-1 #
coedge $-1 $526 $535 $537 $712 reversed $697 $-1 #
vertex $-1 $712 $796 #
vertex $-1 $527 $797 #
straight-curve $-1 -48.536986873129806 -29.325694616322107 0 0 0 1 I I #
straight-curve $-1 -25.246477441241815 -21.098922679479134 -7.6379978504006392 1 0 0 I I #
straight-curve $-1 -25.246477441241815 -21.098922679479134 7.6379978504006392 -1 0 0 I I #
point $-1 -48.536986873129806 -21.098922679479134 7.6379978504006392 #
point $-1 -48.536986873129806 -21.098922679479134 -7.6379978504006392 #
straight-curve $-1 -52.448922891837455 -29.325694616322107 0 0 0 -1 I I #
edge $-1 $704 48.536986873129806 $538 52.448922891837455 $703 $798 forward 7 unknown #
point $-1 -52.448922891837455 -29.325694616322107 -7.6379978504006392 #
edge $-1 $541 -52.448922891837455 $705 -48.536986873129806 $702 $799 forward 7 unknown #
point $-1 -52.448922891837455 -29.325694616322107 7.6379978504006392 #
plane-surface $-1 0 29.325694616322107 0 0 -1 0 0 0 -1 forward_v I I I I #
coedge $-1 $548 $552 $557 $727 forward $376 $-1 #
edge $-1 $800 -16.719540292371796 $562 -8.4927683555288223 $548 $801 forward 7 unknown #
coedge $-1 $550 $549 $725 $802 reversed $231 $-1 #
edge $-1 $565 8.4927683555288223 $803 16.719540292371796 $564 $804 forward 7 unknown #
straight-curve $-1 -48.536986873129806 21.098922679479131 0 0 0 -1 I I #
straight-curve $-1 -52.448922891837455 12.606154323950308 -7.6379978504006392 0 1 0 I I #
coedge $-1 $554 $564 $556 $726 forward $546 $-1 #
straight-curve $-1 -52.448922891837455 12.606154323950308 7.6379978504006392 0 -1 0 I I #
coedge $-1 $557 $556 $719 $802 forward $558 $-1 #
edge $-1 $803 48.536986873129806 $560 52.448922891837455 $556 $805 forward 7 unknown #
edge $-1 $559 -52.448922891837455 $800 -48.536986873129806 $557 $806 forward 7 unknown #
point $-1 -52.448922891837455 29.325694616322103 -7.6379978504006392 #
point $-1 -52.448922891837455 29.325694616322103 7.6379978504006392 #
point $-1 -48.536986873129806 21.098922679479131 -7.6379978504006392 #
point $-1 -48.536986873129806 21.098922679479131 7.6379978504006392 #
coedge $-1 $580 $579 $572 $733 forward $569 $-1 #
edge $-1 $734 83.791549895077068 $737 88.621157738769796 $732 $807 forward 7 unknown #
vertex $-1 $584 $808 #
straight-curve $-1 25.611306331949582 -6.2258972014452389 7.6379978504006374 1 0 0 I I #
edge $-1 $737 -4.6694229010839301 $581 1.5564743003613124 $580 $809 forward 7 unknown #
vertex $-1 $736 $810 #
straight-curve $-1 -32.507555123208626 -6.2258972014452389 86.538557793815713 -0.75470957328743171 0 0.6560590369687036 I I #
point $-1 58.257154409898256 -6.2258972014452389 7.6379978504006374 #
point $-1 63.812982573931087 3.5527136788005009e-015 2.8083900067079099 #
straight-curve $-1 63.812982573931087 0 7.6379978504006392 0 1 0 I I #
vertex $-1 $587 $811 #
point $-1 60.567686848267819 -4.4470694296037401 4.304469596024691 #
vertex $-1 $591 $812 #
point $-1 60.567686848267819 -1.7788277718414918 4.304469596024691 #
edge $-1 $747 83.791549895077068 $750 88.621157738769796 $596 $813 forward 7 unknown #
vertex $-1 $610 $814 #
straight-curve $-1 25.611306331949582 14.873025478033895 7.6379978504006374 1 0 0 I I #
edge $-1 $750 5.880038438655637 $607 12.10593564010088 $606 $815 forward 7 unknown #
vertex $-1 $749 $816 #
straight-curve $-1 -32.507555123208626 14.873025478033895 86.538557793815713 -0.75470957328743171 0 0.6560590369687036 I I #
point $-1 58.257154409898256 14.873025478033895 7.6379978504006374 #
point $-1 63.812982573931087 21.098922679479138 2.8083900067079099 #
straight-curve $-1 63.812982573931087 0 7.6379978504006392 0 1 0 I I #
vertex $-1 $613 $817 #
point $-1 60.567686848267819 16.651853249875391 4.304469596024691 #
vertex $-1 $617 $818 #
point $-1 60.567686848267819 19.320094907637642 4.304469596024691 #
edge $-1 $760 49.337791578254169 $763 53.551538078305619 $622 $819 forward 7 unknown #
vertex $-1 $636 $820 #
straight-curve $-1 -63.812983001397427 -6.7393156039867943 7.6379978504006374 -1 0 0 I I #
edge $-1 $763 1.5457375985688415 $633 8.841418412267064 $632 $821 forward 7 unknown #
vertex $-1 $762 $822 #
straight-curve $-1 -63.812982573931073 -6.7393156039867943 3.4242513503491949 0.8660253999169214 0 0.50000000669873634 I I #
point $-1 -56.514559676000331 -6.7393156039867943 7.6379978504006392 #
point $-1 -63.812982573931087 -14.034996417685017 3.4242513503491869 #
straight-curve $-1 -63.812982573931087 0 7.6379978504006392 0 -1 0 I I #
vertex $-1 $639 $823 #
point $-1 -59.097484085641305 -12.575860254945376 4.6842612924064335 #
vertex $-1 $643 $824 #
point $-1 -59.097484085641305 -10.387156010835909 4.6842612924064335 #
vertex $-1 $647 $825 #
point $-1 -59.097484085641305 -8.1984517667264427 4.6842612924064335 #
coedge $-1 $662 $661 $654 $775 forward $651 $-1 #
edge $-1 $776 49.337791578254169 $779 53.551538078305619 $774 $826 forward 7 unknown #
vertex $-1 $666 $827 #
straight-curve $-1 -63.812983001397427 14.034996417685031 7.6379978504006374 -1 0 0 I I #
edge $-1 $779 -8.8414184122670711 $663 -1.5457375985688486 $662 $828 forward 7 unknown #
vertex $-1 $778 $829 #
straight-curve $-1 -63.812982573931073 14.034996417685031 3.4242513503491949 0.8660253999169214 0 0.50000000669873634 I I #
point $-1 -56.514559676000331 14.034996417685031 7.6379978504006392 #
point $-1 -63.812982573931087 6.7393156039868085 3.4242513503491869 #
straight-curve $-1 -63.812982573931087 0 7.6379978504006392 0 -1 0 I I #
vertex $-1 $669 $830 #
point $-1 -59.097484085641305 8.1984517667264534 4.6842612924064335 #
vertex $-1 $673 $831 #
point $-1 -59.097484085641305 10.387156010835913 4.6842612924064335 #
vertex $-1 $677 $832 #
point $-1 -59.097484085641305 12.575860254945386 4.6842612924064335 #
straight-curve $-1 -63.812982573931087 29.325694616322107 0 0 0 -1 I I #
point $-1 -63.812982573931087 -29.325694616322107 -7.6379978504006392 #
straight-curve $-1 -63.812982573931087 0 -7.6379978504006392 0 1 0 I I #
point $-1 -63.812982573931087 29.325694616322107 -7.6379978504006392 #
straight-curve $-1 -48.536986873129806 -12.60615432395031 7.6379978504006392 0 1 0 I I #
straight-curve $-1 -48.536986873129806 -12.60615432395031 -7.6379978504006392 0 -1 0 I I #
point $-1 -48.536986873129806 -29.325694616322107 -7.6379978504006392 #
point $-1 -48.536986873129806 -29.325694616322107 7.6379978504006392 #
straight-curve $-1 0 -29.325694616322107 -7.6379978504006392 -1 0 0 I I #
straight-curve $-1 0 -29.325694616322107 7.6379978504006392 1 0 0 I I #
vertex $-1 $802 $833 #
straight-curve $-1 -48.536986873129806 12.606154323950308 -7.6379978504006392 0 -1 0 I I #
edge $-1 $803 -7.6379978504006392 $800 7.6379978504006392 $725 $834 forward 7 unknown #
vertex $-1 $726 $835 #
straight-curve $-1 -48.536986873129806 12.606154323950308 7.6379978504006392 0 1 0 I I #
straight-curve $-1 0 29.325694616322107 7.6379978504006392 -1 0 0 I I #
straight-curve $-1 0 29.325694616322107 -7.6379978504006392 1 0 0 I I #
straight-curve $-1 63.812982573931087 -6.2258972014452389 91.429547745477706 0 0 -1 I I #
point $-1 63.812982573931087 -6.2258972014452389 7.6379978504006392 #
straight-curve $-1 63.81298257393108 -1.5564743003613088 2.8083900067079099 0 1 0 I I #
point $-1 63.812982573931087 -6.2258972014452389 2.8083900067079099 #
point $-1 60.214994695703787 -4.4470694296037401 4.2798069619450096 #
point $-1 60.214994695703787 -1.7788277718414918 4.2798069619450096 #
straight-curve $-1 63.812982573931087 14.873025478033895 91.429547745477706 0 0 -1 I I #
point $-1 63.812982573931087 14.873025478033895 7.6379978504006392 #
straight-curve $-1 63.81298257393108 8.9929870393782583 2.8083900067079099 0 1 0 I I #
point $-1 63.812982573931087 14.873025478033895 2.8083900067079099 #
point $-1 60.214994695703787 16.651853249875391 4.2798069619450096 #
point $-1 60.214994695703787 19.320094907637642 4.2798069619450096 #
straight-curve $-1 -63.812982573931087 -6.7393156039867943 56.975789428654807 0 0 -1 I I #
point $-1 -63.812982573931087 -6.7393156039867943 7.6379978504006392 #
straight-curve $-1 -63.812982573931087 -5.1935780054179528 3.4242513503491887 0 -1 0 I I #
point $-1 -63.812982573931087 -6.7393156039867943 3.4242513503491869 #
point $-1 -59.280496782250395 -12.575860254945376 4.0012485890986049 #
point $-1 -59.280496782250395 -10.387156010835909 4.0012485890986049 #
point $-1 -59.280496782250395 -8.1984517667264427 4.0012485890986049 #
straight-curve $-1 -63.812982573931087 14.034996417685031 56.975789428654807 0 0 -1 I I #
point $-1 -63.812982573931087 14.034996417685031 7.6379978504006392 #
straight-curve $-1 -63.812982573931087 5.1935780054179599 3.4242513503491887 0 -1 0 I I #
point $-1 -63.812982573931087 14.034996417685031 3.4242513503491869 #
point $-1 -59.280496782250395 8.1984517667264534 4.0012485890986049 #
point $-1 -59.280496782250395 10.387156010835913 4.0012485890986049 #
point $-1 -59.280496782250395 12.575860254945386 4.0012485890986049 #
point $-1 -48.536986873129806 29.325694616322103 -7.6379978504006392 #
straight-curve $-1 -48.536986873129806 29.325694616322107 0 0 0 -1 I I #
point $-1 -48.536986873129806 29.325694616322103 7.6379978504006392 #
End-of-ACIS-data 