500 0 4 0           
7 Unknown 11 ACIS 5.0 NT 24 Thu Mar 25 21:15:59 1999 
-1 9.9999999999999995e-007 1e-010 
body $-1 $4 $-1 $5 #
body $-1 $6 $-1 $7 #
body $-1 $8 $-1 $9 #
body $-1 $10 $-1 $11 #
lump $-1 $-1 $12 $0 #
transform $-1 1 0 0 0 1 0 0 0 1 75.508896145512253 41.749388786213565 9.1919496908591132 1 rotate no_reflect no_shear #
lump $-1 $-1 $13 $1 #
transform $-1 1 0 0 0 1 0 0 0 1 75.508896145512253 41.749388786213565 9.1919496908591132 1 rotate no_reflect no_shear #
lump $-1 $-1 $14 $2 #
transform $-1 1 0 0 0 1 0 0 0 1 75.508896145512253 41.749388786213565 9.1919496908591132 1 rotate no_reflect no_shear #
lump $-1 $-1 $15 $3 #
transform $-1 1 0 0 0 1 0 0 0 1 75.508896145512253 41.749388786213565 9.1919496908591132 1 rotate no_reflect no_shear #
shell $-1 $-1 $-1 $16 $-1 $4 #
shell $-1 $-1 $-1 $17 $-1 $6 #
shell $-1 $-1 $-1 $18 $-1 $8 #
shell $-1 $-1 $-1 $19 $-1 $10 #
face $-1 $20 $21 $12 $-1 $22 forward single #
face $-1 $23 $24 $13 $-1 $25 forward single #
face $-1 $26 $27 $14 $-1 $28 forward single #
face $-1 $29 $30 $15 $-1 $31 reversed single #
face $-1 $32 $33 $12 $-1 $34 reversed single #
loop $-1 $-1 $35 $16 #
plane-surface $-1 0 0 9.1919496908591132 0 0 1 1 0 0 forward_v I I I I #
face $-1 $36 $37 $13 $-1 $38 forward single #
loop $-1 $-1 $39 $17 #
plane-surface $-1 -60.148098208494865 -37.415022770496968 0 1 0 0 0 0 -1 forward_v I I I I #
face $-1 $40 $41 $14 $-1 $42 forward single #
loop $-1 $-1 $43 $18 #
plane-surface $-1 -194.51254170334946 30.644890466468624 96.878802488351212 0 1 0 -0.78801076186113728 0 0.61566146476048833 forward_v I I I I #
face $-1 $44 $45 $15 $-1 $46 reversed single #
loop $-1 $47 $48 $19 #
cone-surface $-1 -72.853630917742009 36.197139626341091 6.0871544487825409 0.78801076186113728 0 -0.61566146476048833 0.61566146476048833 0 0.78801076186113728 1 I I 0 1 1 forward I I I I #
face $-1 $49 $50 $12 $-1 $51 reversed single #
loop $-1 $-1 $52 $20 #
plane-surface $-1 0 0 -9.1919496908591132 0 0 1 1 0 0 forward_v I I I I #
coedge $-1 $53 $54 $55 $56 forward $21 $-1 #
face $-1 $57 $58 $13 $-1 $59 forward single #
loop $-1 $-1 $60 $23 #
plane-surface $-1 -58.636547486144444 -33.080656754780371 0 0 -1 0 0 0 -1 forward_v I I I I #
coedge $-1 $61 $62 $63 $64 reversed $24 $-1 #
face $-1 $65 $66 $14 $-1 $67 forward single #
loop $-1 $-1 $68 $26 #
plane-surface $-1 -75.508896145512253 36.197139626341105 3.9029672815638889 -0.78801076186113728 0 0.61566146476048833 0.61566146476048833 0 0.78801076186113728 forward_v I I I I #
coedge $-1 $69 $70 $71 $72 reversed $27 $-1 #
face $-1 $73 $74 $15 $-1 $75 forward single #
loop $-1 $76 $77 $29 #
cone-surface $-1 -71.870463219557649 36.197139626341091 5.3190196789733335 0.78801076186113728 0 -0.61566146476048833 0.30783073238024417 0 0.39400538093056864 1 I I -0.70710678118654746 0.70710678118654746 0.5 forward I I I I #
loop $-1 $-1 $78 $19 #
coedge $-1 $48 $48 $79 $80 reversed $30 $-1 #
face $-1 $81 $82 $12 $-1 $83 reversed single #
loop $-1 $-1 $84 $32 #
plane-surface $-1 0 -41.749388786213565 0 0 1 0 0 0 1 forward_v I I I I #
coedge $-1 $85 $86 $87 $88 forward $33 $-1 #
coedge $-1 $89 $35 $90 $91 forward $21 $-1 #
coedge $-1 $35 $89 $92 $93 forward $21 $-1 #
coedge $-1 $94 $95 $35 $56 reversed $96 $-1 #
edge $-1 $97 -41.749388786213565 $98 41.749388786213565 $55 $99 forward 7 unknown #
face $-1 $100 $101 $13 $-1 $102 forward single #
loop $-1 $-1 $103 $36 #
plane-surface $-1 -57.124996763794023 -37.415022770496968 0 -1 0 0 0 0 1 forward_v I I I I #
coedge $-1 $104 $105 $106 $107 reversed $37 $-1 #
coedge $-1 $108 $39 $109 $110 reversed $24 $-1 #
coedge $-1 $39 $108 $111 $112 reversed $24 $-1 #
coedge $-1 $105 $104 $39 $64 forward $37 $-1 #
edge $-1 $113 -9.1919496908591132 $114 9.1919496908591132 $63 $115 forward 7 unknown #
face $-1 $116 $117 $14 $-1 $118 reversed single #
loop $-1 $-1 $119 $40 #
plane-surface $-1 0 0 9.1919496908591132 0 0 1 1 0 0 forward_v I I I I #
coedge $-1 $120 $121 $119 $122 reversed $41 $-1 #
coedge $-1 $70 $43 $121 $123 forward $27 $-1 #
coedge $-1 $43 $69 $124 $125 reversed $27 $-1 #
coedge $-1 $126 $119 $43 $72 forward $66 $-1 #
edge $-1 $127 -25.879580527195358 $128 -21.747374706162475 $71 $129 forward 7 unknown #
face $-1 $130 $131 $15 $-1 $132 forward single #
loop $-1 $-1 $133 $44 #
plane-surface $-1 -194.51254170334946 30.644890466468624 96.878802488351212 0 1 0 -0.78801076186113728 0 0.61566146476048833 forward_v I I I I #
loop $-1 $-1 $134 $29 #
coedge $-1 $77 $77 $78 $135 forward $45 $-1 #
coedge $-1 $78 $78 $77 $135 reversed $47 $-1 #
coedge $-1 $79 $79 $48 $80 forward $131 $-1 #
edge $-1 $136 0 $136 6.2831853071796004 $79 $137 forward 7 unknown #
face $-1 $138 $139 $12 $-1 $140 reversed single #
loop $-1 $-1 $141 $49 #
plane-surface $-1 -75.508896145512253 0 0 1 0 0 0 0 -1 forward_v I I I I #
coedge $-1 $142 $92 $143 $144 forward $50 $-1 #
coedge $-1 $145 $52 $142 $146 forward $33 $-1 #
coedge $-1 $52 $145 $147 $148 forward $33 $-1 #
coedge $-1 $95 $94 $52 $88 reversed $96 $-1 #
edge $-1 $149 -41.749388786213565 $150 41.749388786213565 $87 $151 forward 7 unknown #
coedge $-1 $54 $53 $152 $153 forward $21 $-1 #
coedge $-1 $154 $155 $53 $91 reversed $139 $-1 #
edge $-1 $98 -75.508896145512253 $156 75.508896145512253 $90 $157 forward 7 unknown #
coedge $-1 $84 $158 $54 $93 reversed $50 $-1 #
edge $-1 $159 -75.508896145512253 $97 75.508896145512253 $92 $160 forward 7 unknown #
coedge $-1 $87 $55 $158 $161 forward $96 $-1 #
coedge $-1 $55 $87 $154 $162 reversed $96 $-1 #
loop $-1 $-1 $94 $138 #
vertex $-1 $56 $163 #
vertex $-1 $56 $164 #
straight-curve $-1 75.508896145512253 0 9.1919496908591132 0 1 0 I I #
face $-1 $165 $166 $13 $-1 $167 reversed single #
loop $-1 $-1 $109 $57 #
plane-surface $-1 0 0 9.1919496908591132 0 0 1 1 0 0 forward_v I I I I #
coedge $-1 $168 $169 $170 $171 reversed $58 $-1 #
coedge $-1 $63 $60 $172 $173 reversed $37 $-1 #
coedge $-1 $60 $63 $174 $175 reversed $37 $-1 #
coedge $-1 $169 $168 $60 $107 forward $58 $-1 #
edge $-1 $176 -9.1919496908591132 $177 9.1919496908591132 $106 $178 forward 7 unknown #
coedge $-1 $62 $61 $179 $180 reversed $24 $-1 #
coedge $-1 $172 $181 $61 $110 forward $101 $-1 #
edge $-1 $182 -23.041877400965081 $113 -14.373145369531887 $109 $183 forward 7 unknown #
coedge $-1 $184 $174 $62 $112 forward $185 $-1 #
edge $-1 $114 14.373145369531887 $186 23.041877400965081 $111 $187 forward 7 unknown #
vertex $-1 $110 $188 #
vertex $-1 $112 $189 #
straight-curve $-1 -60.148098208494865 -33.080656754780371 0 0 0 -1 I I #
face $-1 $190 $191 $14 $-1 $192 forward single #
loop $-1 $-1 $124 $65 #
plane-surface $-1 -75.508896145512253 0 0 1 0 0 0 0 -1 forward_v I I I I #
coedge $-1 $71 $193 $68 $122 forward $66 $-1 #
coedge $-1 $194 $68 $195 $196 reversed $41 $-1 #
coedge $-1 $68 $194 $69 $123 reversed $41 $-1 #
edge $-1 $197 -23.650818973043034 $127 -12.546320653298071 $119 $198 forward 7 unknown #
edge $-1 $127 -6.7118149462878041 $199 0 $69 $200 forward 7 unknown #
coedge $-1 $201 $202 $70 $125 forward $117 $-1 #
edge $-1 $128 39.247451553316495 $199 44.536433962611717 $124 $203 forward 7 unknown #
coedge $-1 $204 $71 $202 $205 forward $66 $-1 #
vertex $-1 $122 $206 #
vertex $-1 $205 $207 #
straight-curve $-1 -97.256270851674728 30.644890466468624 9.1919496908591114 -1 0 0 I I #
face $-1 $208 $209 $15 $-1 $210 forward single #
loop $-1 $211 $79 $73 #
plane-surface $-1 -75.508896145512253 36.197139626341105 3.9029672815638889 -0.78801076186113728 0 0.61566146476048833 0.61566146476048833 0 0.78801076186113728 forward_v I I I I #
coedge $-1 $212 $213 $214 $215 reversed $74 $-1 #
coedge $-1 $134 $134 $-1 $216 forward $76 $-1 #
edge $-1 $217 0 $217 6.2831853071796004 $77 $218 forward 7 unknown #
vertex $-1 $80 $219 #
ellipse-curve $-1 -73.442793234995804 36.197139626341091 6.5474584862115046 0.78801076186113728 0 -0.61566146476048833 0.61566146476048833 0 0.78801076186113728 1 I I #
face $-1 $-1 $96 $12 $-1 $220 reversed single #
loop $-1 $-1 $154 $81 #
plane-surface $-1 0 41.749388786213565 0 0 -1 0 0 0 -1 forward_v I I I I #
coedge $-1 $221 $152 $155 $222 forward $82 $-1 #
coedge $-1 $158 $84 $85 $146 reversed $50 $-1 #
coedge $-1 $152 $221 $84 $144 reversed $82 $-1 #
edge $-1 $159 -9.1919496908591132 $223 9.1919496908591132 $143 $224 forward 7 unknown #
coedge $-1 $86 $85 $221 $225 forward $33 $-1 #
edge $-1 $150 -75.508896145512253 $223 75.508896145512253 $142 $226 forward 7 unknown #
coedge $-1 $155 $154 $86 $148 reversed $139 $-1 #
edge $-1 $227 -75.508896145512253 $149 75.508896145512253 $147 $228 forward 7 unknown #
vertex $-1 $88 $229 #
vertex $-1 $161 $230 #
straight-curve $-1 75.508896145512253 0 -9.1919496908591132 0 -1 0 I I #
coedge $-1 $141 $143 $89 $153 reversed $82 $-1 #
edge $-1 $156 -41.749388786213565 $159 41.749388786213565 $152 $231 forward 7 unknown #
coedge $-1 $147 $90 $95 $162 forward $139 $-1 #
coedge $-1 $90 $147 $141 $222 reversed $139 $-1 #
vertex $-1 $91 $232 #
straight-curve $-1 0 41.749388786213565 9.1919496908591132 -1 0 0 I I #
coedge $-1 $92 $142 $94 $161 reversed $50 $-1 #
vertex $-1 $153 $233 #
straight-curve $-1 0 -41.749388786213565 9.1919496908591132 1 0 0 I I #
edge $-1 $97 -9.1919496908591132 $150 9.1919496908591132 $94 $234 forward 7 unknown #
edge $-1 $98 -9.1919496908591132 $149 9.1919496908591132 $95 $235 forward 7 unknown #
point $-1 75.508896145512253 -41.749388786213565 9.1919496908591132 #
point $-1 75.508896145512253 41.749388786213565 9.1919496908591132 #
face $-1 $236 $185 $13 $-1 $237 reversed single #
loop $-1 $-1 $170 $100 #
plane-surface $-1 0 -41.749388786213565 0 0 1 0 0 0 1 forward_v I I I I #
coedge $-1 $106 $103 $238 $239 reversed $58 $-1 #
coedge $-1 $103 $106 $240 $241 reversed $58 $-1 #
coedge $-1 $242 $243 $103 $171 forward $166 $-1 #
edge $-1 $244 -9.1919496908591132 $245 9.1919496908591132 $170 $246 forward 7 unknown #
coedge $-1 $238 $109 $104 $173 forward $101 $-1 #
edge $-1 $113 -30.829824465422643 $176 -27.806723020721801 $172 $247 forward 7 unknown #
coedge $-1 $111 $240 $105 $175 forward $185 $-1 #
edge $-1 $177 27.806723020721801 $114 30.829824465422643 $174 $248 forward 7 unknown #
vertex $-1 $173 $249 #
vertex $-1 $175 $250 #
straight-curve $-1 -57.124996763794023 -33.080656754780371 0 0 0 -1 I I #
coedge $-1 $251 $252 $108 $180 forward $253 $-1 #
edge $-1 $186 -9.1919496908591132 $182 9.1919496908591132 $179 $254 forward 7 unknown #
coedge $-1 $109 $255 $251 $256 forward $101 $-1 #
vertex $-1 $180 $257 #
straight-curve $-1 -60.148098208494865 -18.707511385248484 9.1919496908591132 0 1 0 I I #
coedge $-1 $258 $111 $252 $259 forward $185 $-1 #
loop $-1 $-1 $111 $165 #
vertex $-1 $259 $260 #
straight-curve $-1 -60.148098208494865 -18.707511385248484 -9.1919496908591132 0 -1 0 I I #
point $-1 -60.148098208494865 -33.080656754780371 9.1919496908591132 #
point $-1 -60.148098208494865 -33.080656754780371 -9.1919496908591132 #
face $-1 $261 $262 $14 $-1 $263 forward single #
loop $-1 $-1 $264 $116 #
plane-surface $-1 -60.148098208494865 -37.415022770496968 0 1 0 0 0 0 -1 forward_v I I I I #
coedge $-1 $119 $265 $266 $267 forward $66 $-1 #
coedge $-1 $121 $120 $201 $268 reversed $41 $-1 #
coedge $-1 $266 $269 $120 $196 forward $270 $-1 #
edge $-1 $271 -21.706168691164709 $197 -14.994353744876904 $195 $272 forward 7 unknown #
vertex $-1 $196 $273 #
straight-curve $-1 -71.37669032447937 18.098569813170553 9.1919496908591132 0 -1 0 I I #
vertex $-1 $268 $274 #
straight-curve $-1 -75.508896145512253 30.644890466468624 3.9029672815638889 -0.61566146476048833 0 -0.78801076186113728 I I #
coedge $-1 $275 $124 $194 $268 forward $117 $-1 #
coedge $-1 $124 $276 $126 $205 reversed $117 $-1 #
straight-curve $-1 -75.508896145512253 30.644890466468624 48.439401244175606 0 0 -1 I I #
coedge $-1 $277 $126 $278 $279 forward $66 $-1 #
edge $-1 $128 -30.644890466468624 $280 41.749388786213565 $202 $281 forward 7 unknown #
point $-1 -71.37669032447937 30.644890466468624 9.1919496908591132 #
point $-1 -75.508896145512253 30.644890466468624 9.1919496908591132 #
face $-1 $282 $283 $15 $-1 $284 reversed single #
loop $-1 $-1 $285 $130 #
plane-surface $-1 0 0 9.1919496908591132 0 0 1 1 0 0 forward_v I I I I #
loop $-1 $-1 $286 $73 #
coedge $-1 $213 $133 $287 $288 forward $74 $-1 #
coedge $-1 $133 $212 $289 $290 reversed $74 $-1 #
coedge $-1 $291 $285 $133 $215 forward $209 $-1 #
edge $-1 $292 -25.879580527195358 $293 -21.747374706162475 $214 $294 forward 7 unknown #
edge $-1 $295 1 $295 0 $134 $-1 forward 7 unknown #
vertex $-1 $135 $296 #
ellipse-curve $-1 -72.264468600488215 36.197139626341091 5.626850411353578 -0.78801076186113728 0 0.61566146476048833 0.61566146476048833 0 0.78801076186113728 1 I I #
point $-1 -72.827131770235312 36.197139626341091 7.3354692480726404 #
plane-surface $-1 75.508896145512253 0 0 -1 0 0 0 0 1 forward_v I I I I #
coedge $-1 $143 $141 $145 $225 reversed $82 $-1 #
edge $-1 $156 -9.1919496908591132 $227 9.1919496908591132 $155 $297 forward 7 unknown #
vertex $-1 $225 $298 #
straight-curve $-1 -75.508896145512253 -41.749388786213565 0 0 0 -1 I I #
edge $-1 $223 -41.749388786213565 $227 41.749388786213565 $221 $299 forward 7 unknown #
straight-curve $-1 0 -41.749388786213565 -9.1919496908591132 -1 0 0 I I #
vertex $-1 $148 $300 #
straight-curve $-1 0 41.749388786213565 -9.1919496908591132 1 0 0 I I #
point $-1 75.508896145512253 41.749388786213565 -9.1919496908591132 #
point $-1 75.508896145512253 -41.749388786213565 -9.1919496908591132 #
straight-curve $-1 -75.508896145512253 0 9.1919496908591132 0 -1 0 I I #
point $-1 -75.508896145512253 41.749388786213565 9.1919496908591132 #
point $-1 -75.508896145512253 -41.749388786213565 9.1919496908591132 #
straight-curve $-1 75.508896145512253 -41.749388786213565 0 0 0 -1 I I #
straight-curve $-1 75.508896145512253 41.749388786213565 0 0 0 -1 I I #
face $-1 $301 $253 $13 $-1 $167 reversed single #
plane-surface $-1 0 0 -9.1919496908591132 0 0 1 1 0 0 forward_v I I I I #
coedge $-1 $302 $172 $168 $239 forward $101 $-1 #
edge $-1 $176 14.373145369531887 $244 23.041877400965081 $238 $303 forward 7 unknown #
coedge $-1 $174 $304 $169 $241 forward $185 $-1 #
edge $-1 $245 -23.041877400965081 $177 -14.373145369531887 $240 $305 forward 7 unknown #
coedge $-1 $306 $170 $304 $307 reversed $166 $-1 #
coedge $-1 $170 $306 $302 $308 reversed $166 $-1 #
vertex $-1 $308 $309 #
vertex $-1 $171 $310 #
straight-curve $-1 -57.124996763794023 -41.749388786213565 0 0 0 -1 I I #
straight-curve $-1 -29.318273743072222 -33.080656754780371 9.1919496908591132 1 0 0 I I #
straight-curve $-1 -29.318273743072222 -33.080656754780371 -9.1919496908591132 -1 0 0 I I #
point $-1 -57.124996763794023 -33.080656754780371 9.1919496908591132 #
point $-1 -57.124996763794023 -33.080656754780371 -9.1919496908591132 #
coedge $-1 $311 $179 $181 $256 reversed $253 $-1 #
coedge $-1 $179 $311 $184 $259 reversed $253 $-1 #
loop $-1 $-1 $179 $236 #
straight-curve $-1 -60.148098208494865 -41.749388786213565 0 0 0 1 I I #
coedge $-1 $181 $312 $313 $314 forward $101 $-1 #
edge $-1 $315 -75.508896145512253 $182 -60.148098208494865 $251 $316 forward 7 unknown #
point $-1 -60.148098208494865 -41.749388786213565 9.1919496908591132 #
coedge $-1 $317 $184 $318 $319 forward $185 $-1 #
edge $-1 $186 60.148098208494865 $320 75.508896145512253 $252 $321 forward 7 unknown #
point $-1 -60.148098208494865 -41.749388786213565 -9.1919496908591132 #
face $-1 $322 $323 $14 $-1 $324 forward single #
loop $-1 $-1 $325 $190 #
plane-surface $-1 -58.636547486144444 -33.080656754780371 0 0 -1 0 0 0 -1 forward_v I I I I #
coedge $-1 $326 $327 $328 $329 reversed $191 $-1 #
coedge $-1 $193 $330 $331 $332 forward $66 $-1 #
coedge $-1 $333 $195 $193 $267 reversed $270 $-1 #
edge $-1 $334 -75.508896145512253 $197 71.37669032447937 $266 $335 forward 7 unknown #
edge $-1 $199 12.546320653298071 $271 23.650818973043034 $201 $336 forward 7 unknown #
coedge $-1 $195 $337 $275 $338 reversed $270 $-1 #
loop $-1 $-1 $195 $339 #
vertex $-1 $338 $340 #
straight-curve $-1 -62.145244534771535 41.749388786213565 21.007661808974955 0.61566146476048833 0 0.78801076186113728 I I #
point $-1 -71.37669032447937 41.749388786213586 9.1919496908591132 #
point $-1 -75.508896145512253 30.644890466468624 3.9029672815638889 #
coedge $-1 $341 $201 $269 $338 forward $117 $-1 #
coedge $-1 $202 $341 $342 $343 reversed $117 $-1 #
coedge $-1 $344 $204 $326 $345 forward $66 $-1 #
coedge $-1 $342 $346 $204 $279 reversed $347 $-1 #
edge $-1 $280 -75.508896145512253 $348 -60.148098208494865 $278 $349 forward 7 unknown #
vertex $-1 $205 $350 #
straight-curve $-1 -75.508896145512253 0 9.1919496908591132 0 -1 0 I I #
face $-1 $351 $352 $15 $-1 $353 forward single #
loop $-1 $-1 $289 $208 #
plane-surface $-1 -75.508896145512253 0 0 1 0 0 0 0 -1 forward_v I I I I #
coedge $-1 $214 $354 $286 $355 forward $209 $-1 #
coedge $-1 $356 $287 $285 $355 reversed $211 $-1 #
coedge $-1 $286 $357 $212 $288 reversed $211 $-1 #
edge $-1 $292 -6.7118149462878041 $358 0 $212 $359 forward 7 unknown #
coedge $-1 $360 $361 $213 $290 forward $283 $-1 #
edge $-1 $293 39.247451553316495 $358 44.536433962611717 $289 $362 forward 7 unknown #
coedge $-1 $363 $214 $361 $364 forward $209 $-1 #
vertex $-1 $355 $365 #
vertex $-1 $364 $366 #
straight-curve $-1 -97.256270851674728 30.644890466468624 9.1919496908591114 -1 0 0 I I #
vertex $-1 $216 $367 #
point $-1 -71.648807135727736 36.197139626341091 6.4148611732147147 #
straight-curve $-1 -75.508896145512253 41.749388786213565 0 0 0 -1 I I #
point $-1 -75.508896145512253 -41.749388786213565 -9.1919496908591132 #
straight-curve $-1 -75.508896145512253 0 -9.1919496908591132 0 1 0 I I #
point $-1 -75.508896145512253 41.749388786213565 -9.1919496908591132 #
face $-1 $368 $369 $13 $-1 $370 reversed single #
coedge $-1 $371 $238 $243 $308 forward $101 $-1 #
straight-curve $-1 -57.124996763794023 -18.707511385248484 9.1919496908591132 0 -1 0 I I #
coedge $-1 $240 $372 $242 $307 forward $185 $-1 #
straight-curve $-1 -57.124996763794023 -18.707511385248484 -9.1919496908591132 0 1 0 I I #
coedge $-1 $243 $242 $373 $374 reversed $166 $-1 #
edge $-1 $375 -75.508896145512253 $245 57.124996763794023 $242 $321 forward 7 unknown #
edge $-1 $244 -57.124996763794023 $376 75.508896145512253 $243 $316 forward 7 unknown #
point $-1 -57.124996763794023 -41.749388786213565 9.1919496908591132 #
point $-1 -57.124996763794023 -41.749388786213565 -9.1919496908591132 #
coedge $-1 $252 $251 $377 $378 forward $253 $-1 #
coedge $-1 $255 $371 $379 $380 forward $101 $-1 #
coedge $-1 $381 $377 $255 $314 reversed $369 $-1 #
edge $-1 $382 -41.749388786213565 $315 41.749388786213565 $313 $383 forward 7 unknown #
vertex $-1 $314 $384 #
straight-curve $-1 0 -41.749388786213565 9.1919496908591132 1 0 0 I I #
coedge $-1 $372 $258 $385 $386 forward $185 $-1 #
coedge $-1 $377 $381 $258 $319 reversed $369 $-1 #
edge $-1 $320 -41.749388786213565 $387 41.749388786213565 $318 $388 forward 7 unknown #
vertex $-1 $319 $389 #
straight-curve $-1 0 -41.749388786213565 -9.1919496908591132 -1 0 0 I I #
face $-1 $390 $391 $14 $-1 $392 reversed single #
loop $-1 $-1 $393 $261 #
plane-surface $-1 -57.124996763794023 -37.415022770496968 0 -1 0 0 0 0 1 forward_v I I I I #
coedge $-1 $394 $395 $396 $397 reversed $262 $-1 #
coedge $-1 $398 $264 $277 $345 reversed $191 $-1 #
coedge $-1 $264 $398 $399 $400 reversed $191 $-1 #
coedge $-1 $395 $394 $264 $329 forward $262 $-1 #
edge $-1 $401 -9.1919496908591132 $402 9.1919496908591132 $328 $403 forward 7 unknown #
coedge $-1 $265 $404 $405 $406 forward $66 $-1 #
coedge $-1 $407 $408 $265 $332 reversed $409 $-1 #
edge $-1 $410 -41.749388786213565 $334 41.749388786213565 $331 $411 forward 7 unknown #
coedge $-1 $337 $266 $408 $412 forward $270 $-1 #
vertex $-1 $332 $413 #
straight-curve $-1 0 41.749388786213565 9.1919496908591132 -1 0 0 I I #
straight-curve $-1 -75.508896145512253 18.098569813170553 3.9029672815638925 0 1 0 I I #
coedge $-1 $269 $333 $414 $415 reversed $270 $-1 #
edge $-1 $271 -3.9029672815638889 $416 9.1919496908591132 $269 $417 forward 7 unknown #
face $-1 $418 $270 $14 $-1 $419 reversed single #
point $-1 -75.508896145512253 41.749388786213586 3.9029672815638889 #
coedge $-1 $276 $275 $420 $421 reversed $117 $-1 #
coedge $-1 $422 $278 $276 $343 forward $347 $-1 #
edge $-1 $280 -9.1919496908591132 $423 9.1919496908591132 $276 $424 forward 7 unknown #
coedge $-1 $404 $277 $394 $425 forward $66 $-1 #
edge $-1 $348 -23.041877400965081 $401 -14.373145369531887 $277 $426 forward 7 unknown #
coedge $-1 $278 $422 $398 $427 forward $347 $-1 #
loop $-1 $-1 $346 $428 #
vertex $-1 $427 $429 #
straight-curve $-1 0 -41.749388786213565 9.1919496908591132 1 0 0 I I #
point $-1 -75.508896145512253 -41.749388786213565 9.1919496908591132 #
face $-1 $430 $431 $15 $-1 $432 forward single #
loop $-1 $-1 $433 $282 #
plane-surface $-1 -60.148098208494865 -37.415022770496968 0 1 0 0 0 0 -1 forward_v I I I I #
coedge $-1 $285 $434 $435 $436 forward $209 $-1 #
edge $-1 $437 -23.650818973043034 $292 -12.546320653298071 $285 $438 forward 7 unknown #
coedge $-1 $357 $286 $439 $440 reversed $211 $-1 #
coedge $-1 $287 $356 $360 $441 reversed $211 $-1 #
vertex $-1 $441 $442 #
straight-curve $-1 -75.508896145512253 30.644890466468624 3.9029672815638889 -0.61566146476048833 0 -0.78801076186113728 I I #
coedge $-1 $443 $289 $357 $441 forward $283 $-1 #
coedge $-1 $289 $444 $291 $364 reversed $283 $-1 #
straight-curve $-1 -75.508896145512253 30.644890466468624 48.439401244175606 0 0 -1 I I #
coedge $-1 $445 $291 $446 $447 forward $209 $-1 #
edge $-1 $293 -30.644890466468624 $448 41.749388786213565 $361 $449 forward 7 unknown #
point $-1 -71.37669032447937 30.644890466468624 9.1919496908591132 #
point $-1 -75.508896145512253 30.644890466468624 9.1919496908591132 #
point $-1 -71.476457838627084 36.197139626341091 5.011188946593089 #
face $-1 $450 $451 $13 $-1 $452 reversed single #
loop $-1 $-1 $381 $301 #
plane-surface $-1 -75.508896145512253 0 0 1 0 0 0 0 -1 forward_v I I I I #
coedge $-1 $312 $302 $453 $454 forward $101 $-1 #
coedge $-1 $304 $317 $455 $456 forward $185 $-1 #
coedge $-1 $455 $453 $306 $374 forward $457 $-1 #
edge $-1 $376 -9.1919496908591132 $375 9.1919496908591132 $373 $458 forward 7 unknown #
vertex $-1 $374 $459 #
vertex $-1 $454 $460 #
coedge $-1 $313 $318 $311 $378 reversed $369 $-1 #
edge $-1 $315 -9.1919496908591132 $320 9.1919496908591132 $377 $461 forward 7 unknown #
coedge $-1 $462 $463 $312 $380 reversed $451 $-1 #
edge $-1 $464 -75.508896145512253 $382 75.508896145512253 $379 $465 forward 7 unknown #
coedge $-1 $318 $313 $463 $466 forward $369 $-1 #
vertex $-1 $380 $467 #
straight-curve $-1 -75.508896145512253 0 9.1919496908591132 0 -1 0 I I #
point $-1 -75.508896145512253 -41.749388786213565 9.1919496908591132 #
coedge $-1 $463 $462 $317 $386 reversed $451 $-1 #
edge $-1 $387 -75.508896145512253 $468 75.508896145512253 $385 $469 forward 7 unknown #
vertex $-1 $386 $470 #
straight-curve $-1 -75.508896145512253 0 -9.1919496908591132 0 1 0 I I #
point $-1 -75.508896145512253 -41.749388786213565 -9.1919496908591132 #
face $-1 $428 $471 $14 $-1 $472 reversed single #
loop $-1 $-1 $473 $322 #
plane-surface $-1 0 -41.749388786213565 0 0 1 0 0 0 1 forward_v I I I I #
coedge $-1 $474 $475 $473 $476 reversed $323 $-1 #
coedge $-1 $328 $325 $344 $425 reversed $262 $-1 #
coedge $-1 $325 $328 $477 $478 reversed $262 $-1 #
coedge $-1 $475 $474 $325 $397 forward $323 $-1 #
edge $-1 $479 -9.1919496908591132 $480 9.1919496908591132 $396 $481 forward 7 unknown #
coedge $-1 $327 $326 $346 $427 reversed $191 $-1 #
coedge $-1 $482 $477 $327 $400 forward $471 $-1 #
edge $-1 $402 14.373145369531887 $483 23.041877400965081 $399 $484 forward 7 unknown #
vertex $-1 $345 $485 #
vertex $-1 $400 $486 #
straight-curve $-1 -60.148098208494865 -33.080656754780371 0 0 0 -1 I I #
coedge $-1 $330 $344 $474 $487 forward $66 $-1 #
coedge $-1 $473 $488 $330 $406 reversed $391 $-1 #
edge $-1 $489 -57.124996763794023 $410 75.508896145512253 $405 $349 forward 7 unknown #
coedge $-1 $490 $331 $488 $491 forward $409 $-1 #
coedge $-1 $331 $490 $333 $412 reversed $409 $-1 #
loop $-1 $-1 $407 $418 #
vertex $-1 $332 $492 #
straight-curve $-1 75.508896145512253 0 9.1919496908591132 0 1 0 I I #
edge $-1 $334 -9.1919496908591132 $493 9.1919496908591132 $408 $494 forward 7 unknown #
point $-1 75.508896145512253 41.749388786213565 9.1919496908591132 #
coedge $-1 $495 $420 $337 $415 forward $471 $-1 #
edge $-1 $416 -75.508896145512253 $493 75.508896145512253 $337 $496 forward 7 unknown #
vertex $-1 $415 $497 #
straight-curve $-1 -75.508896145512253 41.749388786213565 0 0 0 -1 I I #
face $-1 $-1 $409 $14 $-1 $498 reversed single #
plane-surface $-1 0 41.749388786213565 0 0 -1 0 0 0 -1 forward_v I I I I #
coedge $-1 $414 $482 $341 $421 forward $471 $-1 #
edge $-1 $423 -41.749388786213565 $416 41.749388786213565 $341 $499 forward 7 unknown #
coedge $-1 $346 $342 $482 $500 reversed $347 $-1 #
vertex $-1 $421 $501 #
straight-curve $-1 -75.508896145512253 -41.749388786213565 0 0 0 -1 I I #
edge $-1 $401 -30.829824465422643 $479 -27.806723020721801 $344 $502 forward 7 unknown #
straight-curve $-1 -60.148098208494865 -18.707511385248484 9.1919496908591132 0 1 0 I I #
edge $-1 $483 -9.1919496908591132 $348 9.1919496908591132 $346 $503 forward 7 unknown #
face $-1 $339 $347 $14 $-1 $392 reversed single #
point $-1 -60.148098208494865 -41.749388786213565 9.1919496908591132 #
face $-1 $504 $505 $15 $-1 $506 forward single #
loop $-1 $-1 $507 $351 #
plane-surface $-1 -58.636547486144444 -33.080656754780371 0 0 -1 0 0 0 -1 forward_v I I I I #
coedge $-1 $508 $509 $510 $511 reversed $352 $-1 #
coedge $-1 $354 $512 $513 $514 forward $209 $-1 #
coedge $-1 $515 $439 $354 $436 reversed $516 $-1 #
edge $-1 $517 -75.508896145512253 $437 71.37669032447937 $435 $518 forward 7 unknown #
vertex $-1 $440 $519 #
straight-curve $-1 -71.37669032447937 18.098569813170553 9.1919496908591132 0 -1 0 I I #
coedge $-1 $435 $520 $356 $440 forward $516 $-1 #
edge $-1 $521 -21.706168691164709 $437 -14.994353744876904 $439 $522 forward 7 unknown #
edge $-1 $358 12.546320653298071 $521 23.650818973043034 $360 $523 forward 7 unknown #
point $-1 -75.508896145512253 30.644890466468624 3.9029672815638889 #
coedge $-1 $524 $360 $520 $525 forward $283 $-1 #
coedge $-1 $361 $524 $526 $527 reversed $283 $-1 #
coedge $-1 $528 $363 $508 $529 forward $209 $-1 #
coedge $-1 $526 $530 $363 $447 reversed $531 $-1 #
edge $-1 $448 -75.508896145512253 $532 -60.148098208494865 $446 $533 forward 7 unknown #
vertex $-1 $364 $534 #
straight-curve $-1 -75.508896145512253 0 9.1919496908591132 0 -1 0 I I #
face $-1 $-1 $457 $13 $-1 $535 reversed single #
loop $-1 $-1 $462 $368 #
plane-surface $-1 0 41.749388786213565 0 0 -1 0 0 0 -1 forward_v I I I I #
coedge $-1 $373 $536 $371 $454 reversed $457 $-1 #
edge $-1 $376 -41.749388786213565 $464 41.749388786213565 $453 $537 forward 7 unknown #
coedge $-1 $536 $373 $372 $456 reversed $457 $-1 #
edge $-1 $468 -41.749388786213565 $375 41.749388786213565 $455 $538 forward 7 unknown #
loop $-1 $-1 $373 $450 #
straight-curve $-1 75.508896145512253 -41.749388786213565 0 0 0 -1 I I #
point $-1 75.508896145512253 -41.749388786213565 -9.1919496908591132 #
point $-1 75.508896145512253 -41.749388786213565 9.1919496908591132 #
straight-curve $-1 -75.508896145512253 -41.749388786213565 0 0 0 -1 I I #
coedge $-1 $385 $379 $536 $539 forward $451 $-1 #
coedge $-1 $379 $385 $381 $466 reversed $451 $-1 #
vertex $-1 $454 $540 #
straight-curve $-1 0 41.749388786213565 9.1919496908591132 -1 0 0 I I #
edge $-1 $382 -9.1919496908591132 $387 9.1919496908591132 $463 $541 forward 7 unknown #
point $-1 -75.508896145512253 41.749388786213565 9.1919496908591132 #
vertex $-1 $456 $542 #
straight-curve $-1 0 41.749388786213565 -9.1919496908591132 1 0 0 I I #
point $-1 -75.508896145512253 41.749388786213565 -9.1919496908591132 #
loop $-1 $-1 $399 $390 #
plane-surface $-1 0 0 -9.1919496908591132 0 0 1 1 0 0 forward_v I I I I #
coedge $-1 $543 $405 $393 $476 forward $391 $-1 #
coedge $-1 $396 $393 $404 $487 reversed $323 $-1 #
coedge $-1 $393 $396 $544 $545 reversed $323 $-1 #
edge $-1 $489 -9.1919496908591132 $546 9.1919496908591132 $473 $547 forward 7 unknown #
coedge $-1 $399 $544 $395 $478 forward $471 $-1 #
edge $-1 $480 27.806723020721801 $402 30.829824465422643 $477 $548 forward 7 unknown #
vertex $-1 $425 $549 #
vertex $-1 $478 $550 #
straight-curve $-1 -57.124996763794023 -33.080656754780371 0 0 0 -1 I I #
coedge $-1 $420 $399 $422 $500 forward $471 $-1 #
vertex $-1 $500 $551 #
straight-curve $-1 -60.148098208494865 -18.707511385248484 -9.1919496908591132 0 -1 0 I I #
point $-1 -60.148098208494865 -33.080656754780371 9.1919496908591132 #
point $-1 -60.148098208494865 -33.080656754780371 -9.1919496908591132 #
edge $-1 $479 14.373145369531887 $489 23.041877400965081 $404 $552 forward 7 unknown #
coedge $-1 $405 $543 $407 $491 reversed $391 $-1 #
vertex $-1 $406 $553 #
coedge $-1 $408 $407 $495 $554 reversed $409 $-1 #
edge $-1 $410 -9.1919496908591132 $555 9.1919496908591132 $407 $556 forward 7 unknown #
point $-1 75.508896145512253 -41.749388786213565 9.1919496908591132 #
vertex $-1 $554 $557 #
straight-curve $-1 75.508896145512253 41.749388786213565 0 0 0 -1 I I #
coedge $-1 $558 $414 $490 $554 forward $471 $-1 #
straight-curve $-1 0 41.749388786213565 -9.1919496908591132 1 0 0 I I #
point $-1 -75.508896145512253 41.749388786213565 -9.1919496908591132 #
plane-surface $-1 75.508896145512253 0 0 -1 0 0 0 0 1 forward_v I I I I #
straight-curve $-1 -75.508896145512253 0 -9.1919496908591132 0 1 0 I I #
edge $-1 $483 60.148098208494865 $423 75.508896145512253 $422 $559 forward 7 unknown #
point $-1 -75.508896145512253 -41.749388786213565 -9.1919496908591132 #
straight-curve $-1 -29.318273743072222 -33.080656754780371 9.1919496908591132 1 0 0 I I #
straight-curve $-1 -60.148098208494865 -41.749388786213565 0 0 0 1 I I #
face $-1 $560 $561 $15 $-1 $562 reversed single #
loop $-1 $-1 $563 $430 #
plane-surface $-1 -57.124996763794023 -37.415022770496968 0 -1 0 0 0 0 1 forward_v I I I I #
coedge $-1 $564 $565 $566 $567 reversed $431 $-1 #
coedge $-1 $568 $433 $445 $529 reversed $352 $-1 #
coedge $-1 $433 $568 $569 $570 reversed $352 $-1 #
coedge $-1 $565 $564 $433 $511 forward $431 $-1 #
edge $-1 $571 -9.1919496908591132 $572 9.1919496908591132 $510 $573 forward 7 unknown #
coedge $-1 $434 $574 $575 $576 forward $209 $-1 #
coedge $-1 $577 $578 $434 $514 reversed $579 $-1 #
edge $-1 $580 -41.749388786213565 $517 41.749388786213565 $513 $581 forward 7 unknown #
coedge $-1 $582 $435 $578 $583 forward $516 $-1 #
loop $-1 $-1 $439 $584 #
vertex $-1 $514 $585 #
straight-curve $-1 0 41.749388786213565 9.1919496908591132 -1 0 0 I I #
point $-1 -71.37669032447937 41.749388786213586 9.1919496908591132 #
coedge $-1 $439 $582 $443 $525 reversed $516 $-1 #
vertex $-1 $525 $586 #
straight-curve $-1 -62.145244534771535 41.749388786213565 21.007661808974955 0.61566146476048833 0 0.78801076186113728 I I #
straight-curve $-1 -75.508896145512253 18.098569813170553 3.9029672815638925 0 1 0 I I #
coedge $-1 $444 $443 $587 $588 reversed $283 $-1 #
edge $-1 $521 -3.9029672815638889 $589 9.1919496908591132 $520 $590 forward 7 unknown #
coedge $-1 $591 $446 $444 $527 forward $531 $-1 #
edge $-1 $448 -9.1919496908591132 $592 9.1919496908591132 $444 $593 forward 7 unknown #
coedge $-1 $574 $445 $564 $594 forward $209 $-1 #
edge $-1 $532 -23.041877400965081 $571 -14.373145369531887 $445 $595 forward 7 unknown #
coedge $-1 $446 $591 $568 $596 forward $531 $-1 #
loop $-1 $-1 $530 $597 #
vertex $-1 $596 $598 #
straight-curve $-1 0 -41.749388786213565 9.1919496908591132 1 0 0 I I #
point $-1 -75.508896145512253 -41.749388786213565 9.1919496908591132 #
plane-surface $-1 75.508896145512253 0 0 -1 0 0 0 0 1 forward_v I I I I #
coedge $-1 $453 $455 $462 $539 reversed $457 $-1 #
straight-curve $-1 75.508896145512253 0 9.1919496908591132 0 1 0 I I #
straight-curve $-1 75.508896145512253 0 -9.1919496908591132 0 -1 0 I I #
edge $-1 $464 -9.1919496908591132 $468 9.1919496908591132 $536 $599 forward 7 unknown #
point $-1 75.508896145512253 41.749388786213565 9.1919496908591132 #
straight-curve $-1 -75.508896145512253 41.749388786213565 0 0 0 -1 I I #
point $-1 75.508896145512253 41.749388786213565 -9.1919496908591132 #
coedge $-1 $488 $473 $558 $600 reversed $391 $-1 #
coedge $-1 $477 $558 $475 $545 forward $471 $-1 #
edge $-1 $546 -23.041877400965081 $480 -14.373145369531887 $544 $601 forward 7 unknown #
vertex $-1 $476 $602 #
straight-curve $-1 -57.124996763794023 -41.749388786213565 0 0 0 -1 I I #
straight-curve $-1 -29.318273743072222 -33.080656754780371 -9.1919496908591132 -1 0 0 I I #
point $-1 -57.124996763794023 -33.080656754780371 9.1919496908591132 #
point $-1 -57.124996763794023 -33.080656754780371 -9.1919496908591132 #
point $-1 -60.148098208494865 -41.749388786213565 -9.1919496908591132 #
straight-curve $-1 -57.124996763794023 -18.707511385248484 9.1919496908591132 0 -1 0 I I #
point $-1 -57.124996763794023 -41.749388786213565 9.1919496908591132 #
edge $-1 $493 -41.749388786213565 $555 41.749388786213565 $490 $603 forward 7 unknown #
vertex $-1 $491 $604 #
straight-curve $-1 75.508896145512253 -41.749388786213565 0 0 0 -1 I I #
point $-1 75.508896145512253 41.749388786213565 -9.1919496908591132 #
coedge $-1 $544 $495 $543 $600 forward $471 $-1 #
straight-curve $-1 0 -41.749388786213565 -9.1919496908591132 -1 0 0 I I #
face $-1 $597 $605 $15 $-1 $606 reversed single #
loop $-1 $-1 $607 $504 #
plane-surface $-1 0 -41.749388786213565 0 0 1 0 0 0 1 forward_v I I I I #
coedge $-1 $608 $609 $607 $610 reversed $505 $-1 #
coedge $-1 $510 $507 $528 $594 reversed $431 $-1 #
coedge $-1 $507 $510 $611 $612 reversed $431 $-1 #
coedge $-1 $609 $608 $507 $567 forward $505 $-1 #
edge $-1 $613 -9.1919496908591132 $614 9.1919496908591132 $566 $615 forward 7 unknown #
coedge $-1 $509 $508 $530 $596 reversed $352 $-1 #
coedge $-1 $616 $611 $509 $570 forward $605 $-1 #
edge $-1 $572 14.373145369531887 $617 23.041877400965081 $569 $618 forward 7 unknown #
vertex $-1 $529 $619 #
vertex $-1 $570 $620 #
straight-curve $-1 -60.148098208494865 -33.080656754780371 0 0 0 -1 I I #
coedge $-1 $512 $528 $608 $621 forward $209 $-1 #
coedge $-1 $607 $622 $512 $576 reversed $561 $-1 #
edge $-1 $623 -57.124996763794023 $580 75.508896145512253 $575 $533 forward 7 unknown #
coedge $-1 $624 $513 $622 $625 forward $579 $-1 #
coedge $-1 $513 $624 $515 $583 reversed $579 $-1 #
loop $-1 $-1 $577 $626 #
vertex $-1 $514 $627 #
straight-curve $-1 75.508896145512253 0 9.1919496908591132 0 1 0 I I #
coedge $-1 $520 $515 $628 $629 reversed $516 $-1 #
edge $-1 $517 -9.1919496908591132 $630 9.1919496908591132 $578 $631 forward 7 unknown #
face $-1 $626 $516 $15 $-1 $632 reversed single #
point $-1 75.508896145512253 41.749388786213565 9.1919496908591132 #
point $-1 -75.508896145512253 41.749388786213586 3.9029672815638889 #
coedge $-1 $628 $616 $524 $588 forward $605 $-1 #
edge $-1 $592 -41.749388786213565 $589 41.749388786213565 $524 $633 forward 7 unknown #
vertex $-1 $629 $634 #
straight-curve $-1 -75.508896145512253 41.749388786213565 0 0 0 -1 I I #
coedge $-1 $530 $526 $616 $635 reversed $531 $-1 #
vertex $-1 $588 $636 #
straight-curve $-1 -75.508896145512253 -41.749388786213565 0 0 0 -1 I I #
edge $-1 $571 -30.829824465422643 $613 -27.806723020721801 $528 $637 forward 7 unknown #
straight-curve $-1 -60.148098208494865 -18.707511385248484 9.1919496908591132 0 1 0 I I #
edge $-1 $617 -9.1919496908591132 $532 9.1919496908591132 $530 $638 forward 7 unknown #
face $-1 $584 $531 $15 $-1 $562 reversed single #
point $-1 -60.148098208494865 -41.749388786213565 9.1919496908591132 #
straight-curve $-1 75.508896145512253 41.749388786213565 0 0 0 -1 I I #
edge $-1 $555 -75.508896145512253 $546 57.124996763794023 $543 $559 forward 7 unknown #
straight-curve $-1 -57.124996763794023 -18.707511385248484 -9.1919496908591132 0 1 0 I I #
point $-1 -57.124996763794023 -41.749388786213565 -9.1919496908591132 #
straight-curve $-1 75.508896145512253 0 -9.1919496908591132 0 -1 0 I I #
point $-1 75.508896145512253 -41.749388786213565 -9.1919496908591132 #
loop $-1 $-1 $569 $560 #
plane-surface $-1 0 0 -9.1919496908591132 0 0 1 1 0 0 forward_v I I I I #
coedge $-1 $639 $575 $563 $610 forward $561 $-1 #
coedge $-1 $566 $563 $574 $621 reversed $505 $-1 #
coedge $-1 $563 $566 $640 $641 reversed $505 $-1 #
edge $-1 $623 -9.1919496908591132 $642 9.1919496908591132 $607 $643 forward 7 unknown #
coedge $-1 $569 $640 $565 $612 forward $605 $-1 #
edge $-1 $614 27.806723020721801 $572 30.829824465422643 $611 $644 forward 7 unknown #
vertex $-1 $594 $645 #
vertex $-1 $612 $646 #
straight-curve $-1 -57.124996763794023 -33.080656754780371 0 0 0 -1 I I #
coedge $-1 $587 $569 $591 $635 forward $605 $-1 #
vertex $-1 $635 $647 #
straight-curve $-1 -60.148098208494865 -18.707511385248484 -9.1919496908591132 0 -1 0 I I #
point $-1 -60.148098208494865 -33.080656754780371 9.1919496908591132 #
point $-1 -60.148098208494865 -33.080656754780371 -9.1919496908591132 #
edge $-1 $613 14.373145369531887 $623 23.041877400965081 $574 $648 forward 7 unknown #
coedge $-1 $575 $639 $577 $625 reversed $561 $-1 #
vertex $-1 $576 $649 #
coedge $-1 $578 $577 $650 $651 reversed $579 $-1 #
edge $-1 $580 -9.1919496908591132 $652 9.1919496908591132 $577 $653 forward 7 unknown #
face $-1 $-1 $579 $15 $-1 $654 reversed single #
point $-1 75.508896145512253 -41.749388786213565 9.1919496908591132 #
coedge $-1 $650 $587 $582 $629 forward $605 $-1 #
edge $-1 $589 -75.508896145512253 $630 75.508896145512253 $582 $655 forward 7 unknown #
vertex $-1 $651 $656 #
straight-curve $-1 75.508896145512253 41.749388786213565 0 0 0 -1 I I #
plane-surface $-1 0 41.749388786213565 0 0 -1 0 0 0 -1 forward_v I I I I #
straight-curve $-1 -75.508896145512253 0 -9.1919496908591132 0 1 0 I I #
point $-1 -75.508896145512253 41.749388786213565 -9.1919496908591132 #
edge $-1 $617 60.148098208494865 $592 75.508896145512253 $591 $657 forward 7 unknown #
point $-1 -75.508896145512253 -41.749388786213565 -9.1919496908591132 #
straight-curve $-1 -29.318273743072222 -33.080656754780371 9.1919496908591132 1 0 0 I I #
straight-curve $-1 -60.148098208494865 -41.749388786213565 0 0 0 1 I I #
coedge $-1 $622 $607 $658 $659 reversed $561 $-1 #
coedge $-1 $611 $658 $609 $641 forward $605 $-1 #
edge $-1 $642 -23.041877400965081 $614 -14.373145369531887 $640 $660 forward 7 unknown #
vertex $-1 $610 $661 #
straight-curve $-1 -57.124996763794023 -41.749388786213565 0 0 0 -1 I I #
straight-curve $-1 -29.318273743072222 -33.080656754780371 -9.1919496908591132 -1 0 0 I I #
point $-1 -57.124996763794023 -33.080656754780371 9.1919496908591132 #
point $-1 -57.124996763794023 -33.080656754780371 -9.1919496908591132 #
point $-1 -60.148098208494865 -41.749388786213565 -9.1919496908591132 #
straight-curve $-1 -57.124996763794023 -18.707511385248484 9.1919496908591132 0 -1 0 I I #
point $-1 -57.124996763794023 -41.749388786213565 9.1919496908591132 #
coedge $-1 $658 $628 $624 $651 forward $605 $-1 #
edge $-1 $630 -41.749388786213565 $652 41.749388786213565 $624 $662 forward 7 unknown #
vertex $-1 $625 $663 #
straight-curve $-1 75.508896145512253 -41.749388786213565 0 0 0 -1 I I #
plane-surface $-1 75.508896145512253 0 0 -1 0 0 0 0 1 forward_v I I I I #
straight-curve $-1 0 41.749388786213565 -9.1919496908591132 1 0 0 I I #
point $-1 75.508896145512253 41.749388786213565 -9.1919496908591132 #
straight-curve $-1 0 -41.749388786213565 -9.1919496908591132 -1 0 0 I I #
coedge $-1 $640 $650 $639 $659 forward $605 $-1 #
edge $-1 $652 -75.508896145512253 $642 57.124996763794023 $639 $657 forward 7 unknown #
straight-curve $-1 -57.124996763794023 -18.707511385248484 -9.1919496908591132 0 1 0 I I #
point $-1 -57.124996763794023 -41.749388786213565 -9.1919496908591132 #
straight-curve $-1 75.508896145512253 0 -9.1919496908591132 0 -1 0 I I #
point $-1 75.508896145512253 -41.749388786213565 -9.1919496908591132 #
End-of-ACIS-data 