500 0 9 0           
7 Unknown 11 ACIS 5.0 NT 24 Thu Mar 25 23:24:31 1999 
-1 9.9999999999999995e-007 1e-010 
body $-1 $9 $-1 $10 #
body $-1 $11 $-1 $12 #
body $-1 $13 $-1 $14 #
body $-1 $15 $-1 $16 #
body $-1 $17 $-1 $18 #
body $-1 $19 $-1 $20 #
body $-1 $21 $-1 $22 #
body $-1 $23 $-1 $24 #
body $-1 $25 $-1 $26 #
lump $-1 $-1 $27 $0 #
transform $-1 1 0 0 0 1 0 0 0 1 79.948728904080326 50.054145599186278 13.505621877850453 1 rotate no_reflect no_shear #
lump $-1 $-1 $28 $1 #
transform $-1 1 0 0 0 1 0 0 0 1 79.948728904080326 50.054145599186278 13.505621877850453 1 rotate no_reflect no_shear #
lump $-1 $-1 $29 $2 #
transform $-1 1 0 0 0 1 0 0 0 1 79.948728904080326 50.054145599186278 13.505621877850453 1 rotate no_reflect no_shear #
lump $-1 $-1 $30 $3 #
transform $-1 1 0 0 0 1 0 0 0 1 79.948728904080326 50.054145599186278 13.505621877850453 1 rotate no_reflect no_shear #
lump $-1 $-1 $31 $4 #
transform $-1 1 0 0 0 1 0 0 0 1 79.948728904080326 50.054145599186278 13.505621877850453 1 rotate no_reflect no_shear #
lump $-1 $-1 $32 $5 #
transform $-1 1 0 0 0 1 0 0 0 1 79.948728904080326 50.054145599186278 13.505621877850453 1 rotate no_reflect no_shear #
lump $-1 $-1 $33 $6 #
transform $-1 1 0 0 0 1 0 0 0 1 79.948728904080326 50.054145599186278 13.505621877850453 1 rotate no_reflect no_shear #
lump $-1 $-1 $34 $7 #
transform $-1 1 0 0 0 1 0 0 0 1 79.948728904080326 50.054145599186278 13.505621877850453 1 rotate no_reflect no_shear #
lump $-1 $-1 $35 $8 #
transform $-1 1 0 0 0 1 0 0 0 1 79.948728904080326 50.054145599186278 13.505621877850453 1 rotate no_reflect no_shear #
shell $-1 $-1 $-1 $36 $-1 $9 #
shell $-1 $-1 $-1 $37 $-1 $11 #
shell $-1 $-1 $-1 $38 $-1 $13 #
shell $-1 $-1 $-1 $39 $-1 $15 #
shell $-1 $-1 $-1 $40 $-1 $17 #
shell $-1 $-1 $-1 $41 $-1 $19 #
shell $-1 $-1 $-1 $42 $-1 $21 #
shell $-1 $-1 $-1 $43 $-1 $23 #
shell $-1 $-1 $-1 $44 $-1 $25 #
face $-1 $45 $46 $27 $-1 $47 forward single #
face $-1 $48 $49 $28 $-1 $50 forward single #
face $-1 $51 $52 $29 $-1 $53 forward single #
face $-1 $54 $55 $30 $-1 $56 reversed single #
face $-1 $57 $58 $31 $-1 $59 forward single #
face $-1 $60 $61 $32 $-1 $62 forward single #
face $-1 $63 $64 $33 $-1 $65 reversed single #
face $-1 $66 $67 $34 $-1 $68 forward single #
face $-1 $69 $70 $35 $-1 $71 forward single #
face $-1 $72 $73 $27 $-1 $74 reversed single #
loop $-1 $-1 $75 $36 #
plane-surface $-1 0 0 13.505621877850453 0 0 1 1 0 0 forward_v I I I I #
face $-1 $76 $77 $28 $-1 $78 reversed single #
loop $-1 $-1 $79 $37 #
plane-surface $-1 0 -44.023306535925563 -9.1008946590964008 0 0 1 1 0 0 forward_v I I I I #
face $-1 $80 $81 $29 $-1 $82 reversed single #
loop $-1 $-1 $83 $38 #
plane-surface $-1 0 44.023306535925563 -9.1008946590964008 0 0 1 1 0 0 forward_v I I I I #
face $-1 $84 $85 $30 $-1 $86 reversed single #
loop $-1 $-1 $87 $39 #
plane-surface $-1 -186.94101308927776 15.494785979751075 125.50603808123931 0 -1 0 0.66913061440640931 0 -0.74314481823134659 forward_v I I I I #
face $-1 $88 $89 $31 $-1 $90 forward single #
loop $-1 $91 $92 $40 #
cone-surface $-1 -75.79774983532775 9.7542327872963668 9.6923563319411592 0.66913061440640931 0 -0.74314481823134659 0.3715724091156733 0 0.33456530720320465 1 I I 0 1 0.5 forward I I I I #
face $-1 $93 $94 $32 $-1 $95 forward single #
loop $-1 $96 $97 $41 #
cone-surface $-1 -75.79774983532775 13.198564702769197 9.6923563319411592 0.66913061440640931 0 -0.74314481823134659 0.3715724091156733 0 0.33456530720320465 1 I I 0 1 0.5 forward I I I I #
face $-1 $98 $99 $33 $-1 $100 reversed single #
loop $-1 $-1 $101 $42 #
plane-surface $-1 68.114045870777801 7.4580115103144742 232.49832226643676 0 1 0 0.66913061440640931 0 0.74314481823134659 forward_v I I I I #
face $-1 $102 $103 $34 $-1 $104 forward single #
loop $-1 $105 $106 $43 #
cone-surface $-1 75.797749835327764 9.7542327872963668 9.6923563319411485 -0.66913061440640931 0 -0.74314481823134659 0.3715724091156733 0 -0.33456530720320465 1 I I 0 1 0.5 forward I I I I #
face $-1 $107 $108 $35 $-1 $109 forward single #
loop $-1 $110 $111 $44 #
cone-surface $-1 75.797749835327764 13.198564702769197 9.6923563319411485 -0.66913061440640931 0 -0.74314481823134659 0.3715724091156733 0 -0.33456530720320465 1 I I 0 1 0.5 forward I I I I #
face $-1 $112 $113 $27 $-1 $114 reversed single #
loop $-1 $-1 $115 $45 #
plane-surface $-1 0 0 -13.505621877850453 0 0 1 1 0 0 forward_v I I I I #
coedge $-1 $116 $117 $118 $119 forward $46 $-1 #
face $-1 $120 $121 $28 $-1 $122 reversed single #
loop $-1 $-1 $123 $48 #
plane-surface $-1 0 -44.023306535925563 -12.586628605474807 0 0 1 1 0 0 forward_v I I I I #
coedge $-1 $124 $125 $126 $127 reversed $49 $-1 #
face $-1 $128 $129 $29 $-1 $130 reversed single #
loop $-1 $-1 $131 $51 #
plane-surface $-1 0 44.023306535925563 -12.586628605474807 0 0 1 1 0 0 forward_v I I I I #
coedge $-1 $132 $133 $134 $135 reversed $52 $-1 #
face $-1 $136 $137 $30 $-1 $138 reversed single #
loop $-1 $-1 $139 $54 #
plane-surface $-1 -79.948728904080312 11.476398745032775 6.6790708627393514 -0.66913061440640931 0 0.74314481823134659 0.74314481823134659 0 0.66913061440640931 forward_v I I I I #
coedge $-1 $140 $141 $142 $143 reversed $55 $-1 #
face $-1 $-1 $144 $31 $-1 $145 forward single #
loop $-1 $146 $147 $57 #
cone-surface $-1 -75.2703145256704 9.7542327872963668 9.1065800890295794 0.66913061440640931 0 -0.74314481823134659 0.18578620455783665 0 0.16728265360160233 1 I I -0.70710678118654746 0.70710678118654746 0.25 forward I I I I #
loop $-1 $-1 $148 $40 #
coedge $-1 $92 $92 $149 $150 reversed $58 $-1 #
face $-1 $-1 $151 $32 $-1 $152 forward single #
loop $-1 $153 $154 $60 #
cone-surface $-1 -75.2703145256704 13.198564702769197 9.1065800890295794 0.66913061440640931 0 -0.74314481823134659 0.18578620455783665 0 0.16728265360160233 1 I I -0.70710678118654746 0.70710678118654746 0.25 forward I I I I #
loop $-1 $-1 $155 $41 #
coedge $-1 $97 $97 $156 $157 reversed $61 $-1 #
face $-1 $158 $159 $33 $-1 $160 reversed single #
loop $-1 $-1 $161 $63 #
plane-surface $-1 -38.878238314419647 11.476398745032775 113.6713550479368 0.66913061440640931 0 0.74314481823134659 0.74314481823134659 0 -0.66913061440640931 forward_v I I I I #
coedge $-1 $162 $163 $164 $165 reversed $64 $-1 #
face $-1 $-1 $166 $34 $-1 $167 forward single #
loop $-1 $168 $169 $66 #
cone-surface $-1 75.270314525670415 9.7542327872963668 9.1065800890295687 -0.66913061440640931 0 -0.74314481823134659 0.18578620455783665 0 -0.16728265360160233 1 I I -0.70710678118654746 0.70710678118654746 0.25 forward I I I I #
loop $-1 $-1 $170 $43 #
coedge $-1 $106 $106 $171 $172 reversed $67 $-1 #
face $-1 $-1 $173 $35 $-1 $174 forward single #
loop $-1 $175 $176 $69 #
cone-surface $-1 75.270314525670415 13.198564702769197 9.1065800890295687 -0.66913061440640931 0 -0.74314481823134659 0.18578620455783665 0 -0.16728265360160233 1 I I -0.70710678118654746 0.70710678118654746 0.25 forward I I I I #
loop $-1 $-1 $177 $44 #
coedge $-1 $111 $111 $178 $179 reversed $70 $-1 #
face $-1 $180 $181 $27 $-1 $182 reversed single #
loop $-1 $-1 $183 $72 #
plane-surface $-1 0 -50.054145599186278 0 0 1 0 0 0 1 forward_v I I I I #
coedge $-1 $184 $185 $186 $187 forward $73 $-1 #
coedge $-1 $188 $75 $189 $190 forward $46 $-1 #
coedge $-1 $75 $188 $191 $192 forward $46 $-1 #
coedge $-1 $193 $194 $75 $119 reversed $195 $-1 #
edge $-1 $196 -50.054145599186278 $197 50.054145599186278 $118 $198 forward 7 unknown #
face $-1 $199 $200 $28 $-1 $201 reversed single #
loop $-1 $-1 $202 $76 #
plane-surface $-1 0 -37.992467472664849 -10.843761632285604 0 -1 0 0 0 -1 forward_v I I I I #
coedge $-1 $203 $204 $205 $206 reversed $77 $-1 #
coedge $-1 $207 $79 $208 $209 forward $49 $-1 #
coedge $-1 $79 $207 $210 $211 reversed $49 $-1 #
coedge $-1 $212 $213 $79 $127 forward $214 $-1 #
edge $-1 $215 15.980814204702067 $216 28.042492331223496 $126 $217 forward 7 unknown #
face $-1 $218 $219 $29 $-1 $220 reversed single #
loop $-1 $-1 $221 $80 #
plane-surface $-1 0 37.992467472664849 -10.843761632285604 0 1 0 0 0 1 forward_v I I I I #
coedge $-1 $222 $223 $224 $225 reversed $81 $-1 #
coedge $-1 $226 $83 $227 $228 reversed $52 $-1 #
coedge $-1 $83 $226 $229 $230 forward $52 $-1 #
coedge $-1 $231 $232 $83 $135 forward $219 $-1 #
edge $-1 $233 -28.042492331223496 $234 -15.980814204702067 $134 $235 forward 7 unknown #
face $-1 $236 $237 $30 $-1 $238 reversed single #
loop $-1 $-1 $239 $84 #
plane-surface $-1 -186.94101308927776 7.4580115103144742 125.50603808123931 0 1 0 -0.66913061440640931 0 0.74314481823134659 forward_v I I I I #
coedge $-1 $240 $241 $242 $243 reversed $85 $-1 #
coedge $-1 $141 $87 $244 $245 reversed $55 $-1 #
coedge $-1 $87 $140 $240 $246 reversed $55 $-1 #
coedge $-1 $242 $247 $87 $143 forward $237 $-1 #
edge $-1 $248 49.247397162769204 $249 56.073948177880318 $142 $250 forward 7 unknown #
loop $-1 $-1 $149 $88 #
plane-surface $-1 -79.948728904080312 11.476398745032775 6.6790708627393514 -0.66913061440640931 0 0.74314481823134659 0.74314481823134659 0 0.66913061440640931 forward_v I I I I #
loop $-1 $-1 $251 $57 #
coedge $-1 $147 $147 $148 $252 reversed $89 $-1 #
coedge $-1 $148 $148 $147 $252 forward $91 $-1 #
coedge $-1 $149 $149 $92 $150 forward $144 $-1 #
edge $-1 $253 0 $253 6.2831853071796004 $149 $254 forward 7 unknown #
loop $-1 $-1 $156 $93 #
plane-surface $-1 -79.948728904080312 11.476398745032775 6.6790708627393514 -0.66913061440640931 0 0.74314481823134659 0.74314481823134659 0 0.66913061440640931 forward_v I I I I #
loop $-1 $-1 $255 $60 #
coedge $-1 $154 $154 $155 $256 reversed $94 $-1 #
coedge $-1 $155 $155 $154 $256 forward $96 $-1 #
coedge $-1 $156 $156 $97 $157 forward $151 $-1 #
edge $-1 $257 0 $257 6.2831853071796004 $156 $258 forward 7 unknown #
face $-1 $259 $260 $33 $-1 $261 forward single #
loop $-1 $-1 $262 $98 #
plane-surface $-1 68.114045870777801 15.494785979751075 232.49832226643676 0 -1 0 -0.66913061440640931 0 -0.74314481823134659 forward_v I I I I #
coedge $-1 $263 $264 $265 $266 reversed $99 $-1 #
coedge $-1 $163 $101 $267 $268 reversed $64 $-1 #
coedge $-1 $101 $162 $263 $269 reversed $64 $-1 #
coedge $-1 $265 $270 $101 $165 forward $271 $-1 #
edge $-1 $272 102.74353925536792 $273 109.57009027047904 $164 $274 forward 7 unknown #
loop $-1 $-1 $171 $102 #
plane-surface $-1 -38.878238314419647 11.476398745032775 113.6713550479368 0.66913061440640931 0 0.74314481823134659 0.74314481823134659 0 -0.66913061440640931 forward_v I I I I #
loop $-1 $-1 $275 $66 #
coedge $-1 $169 $169 $170 $276 reversed $103 $-1 #
coedge $-1 $170 $170 $169 $276 forward $105 $-1 #
coedge $-1 $171 $171 $106 $172 forward $166 $-1 #
edge $-1 $277 0 $277 6.2831853071796004 $171 $278 forward 7 unknown #
loop $-1 $-1 $178 $107 #
plane-surface $-1 -38.878238314419647 11.476398745032775 113.6713550479368 0.66913061440640931 0 0.74314481823134659 0.74314481823134659 0 -0.66913061440640931 forward_v I I I I #
loop $-1 $-1 $279 $69 #
coedge $-1 $176 $176 $177 $280 reversed $108 $-1 #
coedge $-1 $177 $177 $176 $280 forward $110 $-1 #
coedge $-1 $178 $178 $111 $179 forward $173 $-1 #
edge $-1 $281 0 $281 6.2831853071796004 $178 $282 forward 7 unknown #
face $-1 $283 $284 $27 $-1 $285 reversed single #
loop $-1 $-1 $286 $112 #
plane-surface $-1 -79.948728904080326 0 0 1 0 0 0 0 -1 forward_v I I I I #
coedge $-1 $287 $191 $288 $289 forward $113 $-1 #
coedge $-1 $290 $115 $287 $291 forward $73 $-1 #
coedge $-1 $115 $290 $292 $293 forward $73 $-1 #
coedge $-1 $194 $193 $115 $187 reversed $195 $-1 #
edge $-1 $294 -50.054145599186278 $295 50.054145599186278 $186 $296 forward 7 unknown #
coedge $-1 $117 $116 $297 $298 forward $46 $-1 #
coedge $-1 $299 $300 $116 $190 reversed $284 $-1 #
edge $-1 $197 -79.948728904080326 $301 79.948728904080326 $189 $302 forward 7 unknown #
coedge $-1 $183 $303 $117 $192 reversed $113 $-1 #
edge $-1 $304 -79.948728904080326 $196 79.948728904080326 $191 $305 forward 7 unknown #
coedge $-1 $186 $118 $303 $306 forward $195 $-1 #
coedge $-1 $118 $186 $299 $307 reversed $195 $-1 #
loop $-1 $-1 $193 $283 #
vertex $-1 $119 $308 #
vertex $-1 $119 $309 #
straight-curve $-1 79.948728904080326 0 13.505621877850453 0 1 0 I I #
face $-1 $310 $311 $28 $-1 $312 reversed single #
loop $-1 $-1 $313 $120 #
plane-surface $-1 -79.948728904080326 0 0 1 0 0 0 0 -1 forward_v I I I I #
coedge $-1 $314 $208 $213 $315 reversed $121 $-1 #
coedge $-1 $316 $123 $317 $318 reversed $77 $-1 #
coedge $-1 $123 $316 $314 $319 forward $77 $-1 #
coedge $-1 $213 $212 $123 $206 forward $214 $-1 #
edge $-1 $320 -28.042492331223496 $321 -15.980814204702067 $205 $322 forward 7 unknown #
coedge $-1 $125 $124 $313 $323 reversed $49 $-1 #
coedge $-1 $202 $324 $124 $209 reversed $121 $-1 #
edge $-1 $215 -79.948728904080326 $325 79.948728904080326 $208 $326 forward 7 unknown #
coedge $-1 $327 $328 $125 $211 forward $311 $-1 #
edge $-1 $216 -79.948728904080326 $329 79.948728904080326 $210 $330 forward 7 unknown #
coedge $-1 $205 $126 $328 $331 forward $214 $-1 #
coedge $-1 $126 $205 $202 $315 forward $214 $-1 #
loop $-1 $-1 $126 $310 #
vertex $-1 $127 $332 #
vertex $-1 $331 $333 #
straight-curve $-1 79.948728904080326 -22.011653267962782 -9.1008946590964008 0 -1 0 I I #
face $-1 $334 $335 $29 $-1 $336 reversed single #
loop $-1 $-1 $134 $128 #
plane-surface $-1 79.948728904080326 0 0 -1 0 0 0 0 1 forward_v I I I I #
coedge $-1 $337 $229 $338 $339 reversed $129 $-1 #
coedge $-1 $340 $131 $337 $341 forward $81 $-1 #
coedge $-1 $131 $340 $342 $343 reversed $81 $-1 #
coedge $-1 $232 $231 $131 $225 forward $219 $-1 #
edge $-1 $344 15.980814204702067 $345 28.042492331223496 $224 $346 forward 7 unknown #
coedge $-1 $133 $132 $347 $348 reversed $52 $-1 #
coedge $-1 $349 $350 $132 $228 forward $351 $-1 #
edge $-1 $352 -79.948728904080326 $233 79.948728904080326 $227 $353 forward 7 unknown #
coedge $-1 $221 $354 $133 $230 reversed $129 $-1 #
edge $-1 $355 -79.948728904080326 $234 79.948728904080326 $229 $356 forward 7 unknown #
coedge $-1 $224 $134 $354 $357 forward $219 $-1 #
coedge $-1 $134 $224 $349 $358 reversed $219 $-1 #
vertex $-1 $358 $359 #
vertex $-1 $135 $360 #
straight-curve $-1 79.948728904080326 22.011653267962782 -9.1008946590964008 0 -1 0 I I #
face $-1 $-1 $361 $30 $-1 $362 forward single #
loop $-1 $-1 $142 $136 #
plane-surface $-1 -79.948728904080326 0 0 1 0 0 0 0 -1 forward_v I I I I #
coedge $-1 $363 $364 $365 $366 reversed $137 $-1 #
coedge $-1 $367 $139 $141 $246 forward $85 $-1 #
coedge $-1 $139 $367 $363 $368 forward $85 $-1 #
coedge $-1 $365 $142 $139 $243 forward $237 $-1 #
edge $-1 $249 -9.7565866072346878 $369 -1.7198121377980868 $242 $370 forward 7 unknown #
coedge $-1 $371 $372 $140 $245 forward $361 $-1 #
edge $-1 $373 -21.103430465952243 $248 -13.521777640558554 $244 $374 forward 7 unknown #
edge $-1 $249 -1.8881026247711288e-014 $373 10.202120285838348 $141 $375 forward 7 unknown #
coedge $-1 $142 $365 $371 $376 reversed $237 $-1 #
vertex $-1 $376 $377 #
vertex $-1 $143 $378 #
straight-curve $-1 -79.948728904080326 15.494785979751075 62.753019040619655 0 0 -1 I I #
coedge $-1 $251 $251 $-1 $379 reversed $146 $-1 #
edge $-1 $380 0 $380 6.2831853071796004 $147 $381 forward 7 unknown #
vertex $-1 $150 $382 #
ellipse-curve $-1 -76.157902491383481 9.7542327872963668 10.092346370294894 -0.66913061440640931 0 0.74314481823134659 0.3715724091156733 0 0.33456530720320465 1 I I #
coedge $-1 $255 $255 $-1 $383 reversed $153 $-1 #
edge $-1 $384 0 $384 6.2831853071796004 $154 $385 forward 7 unknown #
vertex $-1 $157 $386 #
ellipse-curve $-1 -76.157902491383481 13.198564702769197 10.092346370294894 -0.66913061440640931 0 0.74314481823134659 0.3715724091156733 0 0.33456530720320465 1 I I #
face $-1 $-1 $271 $33 $-1 $387 reversed single #
loop $-1 $-1 $388 $158 #
plane-surface $-1 0 0 13.505621877850453 0 0 1 1 0 0 forward_v I I I I #
coedge $-1 $389 $390 $391 $392 reversed $159 $-1 #
coedge $-1 $393 $161 $163 $269 forward $99 $-1 #
coedge $-1 $161 $393 $389 $394 forward $99 $-1 #
coedge $-1 $391 $164 $161 $266 forward $271 $-1 #
edge $-1 $273 1.7198121377980868 $395 9.7565866072346878 $265 $396 forward 7 unknown #
coedge $-1 $397 $398 $162 $268 forward $260 $-1 #
edge $-1 $399 38.310053143297722 $272 45.891705968691426 $267 $400 forward 7 unknown #
edge $-1 $273 -159.89745780816068 $399 -149.69533752232229 $163 $401 forward 7 unknown #
coedge $-1 $164 $391 $397 $402 reversed $271 $-1 #
loop $-1 $-1 $391 $259 #
vertex $-1 $402 $403 #
vertex $-1 $165 $404 #
straight-curve $-1 79.948728904080326 7.4580115103144742 116.24916113321838 0 0 -1 I I #
coedge $-1 $275 $275 $-1 $405 reversed $168 $-1 #
edge $-1 $406 0 $406 6.2831853071796004 $169 $407 forward 7 unknown #
vertex $-1 $172 $408 #
ellipse-curve $-1 76.157902491383496 9.7542327872963668 10.092346370294882 0.66913061440640931 0 0.74314481823134659 0.3715724091156733 0 -0.33456530720320465 1 I I #
coedge $-1 $279 $279 $-1 $409 reversed $175 $-1 #
edge $-1 $410 0 $410 6.2831853071796004 $176 $411 forward 7 unknown #
vertex $-1 $179 $412 #
ellipse-curve $-1 76.157902491383496 13.198564702769197 10.092346370294882 0.66913061440640931 0 0.74314481823134659 0.3715724091156733 0 -0.33456530720320465 1 I I #
face $-1 $-1 $195 $27 $-1 $413 reversed single #
loop $-1 $-1 $299 $180 #
plane-surface $-1 0 50.054145599186278 0 0 -1 0 0 0 -1 forward_v I I I I #
coedge $-1 $414 $297 $300 $415 forward $181 $-1 #
coedge $-1 $303 $183 $184 $291 reversed $113 $-1 #
coedge $-1 $297 $414 $183 $289 reversed $181 $-1 #
edge $-1 $304 -13.505621877850453 $416 13.505621877850453 $288 $417 forward 7 unknown #
coedge $-1 $185 $184 $414 $418 forward $73 $-1 #
edge $-1 $295 -79.948728904080326 $416 79.948728904080326 $287 $419 forward 7 unknown #
coedge $-1 $300 $299 $185 $293 reversed $284 $-1 #
edge $-1 $420 -79.948728904080326 $294 79.948728904080326 $292 $421 forward 7 unknown #
vertex $-1 $187 $422 #
vertex $-1 $306 $423 #
straight-curve $-1 79.948728904080326 0 -13.505621877850453 0 -1 0 I I #
coedge $-1 $286 $288 $188 $298 reversed $181 $-1 #
edge $-1 $301 -50.054145599186278 $304 50.054145599186278 $297 $424 forward 7 unknown #
coedge $-1 $292 $189 $194 $307 forward $284 $-1 #
coedge $-1 $189 $292 $286 $415 reversed $284 $-1 #
vertex $-1 $190 $425 #
straight-curve $-1 0 50.054145599186278 13.505621877850453 -1 0 0 I I #
coedge $-1 $191 $287 $193 $306 reversed $113 $-1 #
vertex $-1 $298 $426 #
straight-curve $-1 0 -50.054145599186278 13.505621877850453 1 0 0 I I #
edge $-1 $196 -13.505621877850453 $295 13.505621877850453 $193 $427 forward 7 unknown #
edge $-1 $197 -13.505621877850453 $294 13.505621877850453 $194 $428 forward 7 unknown #
point $-1 79.948728904080326 -50.054145599186278 13.505621877850453 #
point $-1 79.948728904080326 50.054145599186278 13.505621877850453 #
face $-1 $-1 $214 $28 $-1 $429 reversed single #
loop $-1 $-1 $210 $199 #
plane-surface $-1 0 -50.054145599186278 0 0 1 0 0 0 1 forward_v I I I I #
coedge $-1 $430 $431 $207 $323 forward $200 $-1 #
coedge $-1 $324 $202 $204 $319 reversed $121 $-1 #
edge $-1 $321 -7.1647477893320053 $215 -3.6790138429535988 $213 $432 forward 7 unknown #
coedge $-1 $204 $203 $433 $434 reversed $77 $-1 #
coedge $-1 $328 $327 $203 $318 forward $311 $-1 #
edge $-1 $435 -79.948728904080326 $320 79.948728904080326 $317 $436 forward 7 unknown #
edge $-1 $437 -79.948728904080326 $321 79.948728904080326 $314 $438 forward 7 unknown #
vertex $-1 $318 $439 #
vertex $-1 $206 $440 #
straight-curve $-1 79.948728904080326 -22.011653267962782 -12.586628605474807 0 1 0 I I #
edge $-1 $329 -28.042492331223496 $325 -15.980814204702067 $313 $441 forward 7 unknown #
coedge $-1 $208 $314 $430 $442 reversed $121 $-1 #
vertex $-1 $323 $443 #
straight-curve $-1 0 -37.992467472664849 -9.1008946590964008 -1 0 0 I I #
coedge $-1 $317 $210 $431 $444 forward $311 $-1 #
coedge $-1 $210 $317 $212 $331 reversed $311 $-1 #
vertex $-1 $444 $445 #
straight-curve $-1 0 -50.054145599186278 -9.1008946590964008 -1 0 0 I I #
edge $-1 $216 9.1008946590964008 $320 12.586628605474807 $212 $446 forward 7 unknown #
point $-1 79.948728904080326 -37.992467472664849 -9.1008946590964008 #
point $-1 79.948728904080326 -50.054145599186278 -9.1008946590964008 #
face $-1 $-1 $351 $29 $-1 $447 reversed single #
loop $-1 $-1 $347 $218 #
plane-surface $-1 -79.948728904080326 0 0 1 0 0 0 0 -1 forward_v I I I I #
coedge $-1 $354 $221 $222 $341 reversed $129 $-1 #
coedge $-1 $347 $448 $221 $339 forward $335 $-1 #
edge $-1 $449 -7.1647477893320053 $355 -3.6790138429535988 $338 $450 forward 7 unknown #
coedge $-1 $223 $222 $448 $451 reversed $81 $-1 #
edge $-1 $344 -79.948728904080326 $449 79.948728904080326 $337 $452 forward 7 unknown #
coedge $-1 $350 $349 $223 $343 forward $351 $-1 #
edge $-1 $345 -79.948728904080326 $453 79.948728904080326 $342 $454 forward 7 unknown #
vertex $-1 $225 $455 #
vertex $-1 $343 $456 #
straight-curve $-1 79.948728904080326 22.011653267962782 -12.586628605474807 0 1 0 I I #
coedge $-1 $457 $338 $226 $348 forward $335 $-1 #
edge $-1 $355 15.980814204702067 $352 28.042492331223496 $347 $458 forward 7 unknown #
coedge $-1 $342 $227 $232 $358 forward $351 $-1 #
coedge $-1 $227 $342 $457 $459 reversed $351 $-1 #
loop $-1 $-1 $227 $334 #
vertex $-1 $459 $460 #
straight-curve $-1 0 50.054145599186278 -9.1008946590964008 1 0 0 I I #
coedge $-1 $229 $337 $231 $357 reversed $129 $-1 #
vertex $-1 $348 $461 #
straight-curve $-1 0 37.992467472664849 -9.1008946590964008 1 0 0 I I #
edge $-1 $234 3.6790138429535988 $344 7.1647477893320053 $231 $462 forward 7 unknown #
edge $-1 $233 9.1008946590964008 $345 12.586628605474807 $232 $463 forward 7 unknown #
point $-1 79.948728904080326 50.054145599186278 -9.1008946590964008 #
point $-1 79.948728904080326 37.992467472664849 -9.1008946590964008 #
loop $-1 $-1 $244 $236 #
plane-surface $-1 0 0 13.505621877850453 0 0 1 1 0 0 forward_v I I I I #
coedge $-1 $364 $239 $241 $368 reversed $137 $-1 #
coedge $-1 $239 $363 $464 $465 reversed $137 $-1 #
coedge $-1 $247 $242 $239 $366 forward $237 $-1 #
edge $-1 $369 -56.073948177880318 $466 -49.247397162769204 $365 $467 forward 7 unknown #
coedge $-1 $241 $240 $372 $468 reversed $85 $-1 #
edge $-1 $469 -10.202120285838348 $369 1.8881026247711288e-014 $363 $470 forward 7 unknown #
vertex $-1 $243 $471 #
straight-curve $-1 -79.948728904080326 5.7381993725163873 6.6790708627393514 0 -1 0 I I #
coedge $-1 $464 $244 $247 $376 forward $361 $-1 #
coedge $-1 $244 $464 $367 $468 forward $361 $-1 #
vertex $-1 $245 $472 #
straight-curve $-1 -93.47050654463888 15.494785979751075 13.505621877850452 -1 0 0 I I #
straight-curve $-1 -79.948728904080312 15.494785979751075 6.6790708627393514 0.74314481823134659 0 0.66913061440640931 I I #
edge $-1 $248 -15.494785979751075 $466 -7.4580115103144742 $247 $473 forward 7 unknown #
point $-1 -79.948728904080326 15.494785979751075 13.505621877850453 #
point $-1 -79.948728904080326 15.494785979751075 6.6790708627393389 #
edge $-1 $474 1 $474 0 $251 $-1 forward 7 unknown #
vertex $-1 $252 $475 #
ellipse-curve $-1 -75.437597179272004 9.7542327872963668 9.2923662935874152 -0.66913061440640931 0 0.74314481823134659 0.3715724091156733 0 0.33456530720320465 1 I I #
point $-1 -75.786330082267824 9.7542327872963668 10.42691167749811 #
edge $-1 $476 1 $476 0 $255 $-1 forward 7 unknown #
vertex $-1 $256 $477 #
ellipse-curve $-1 -75.437597179272004 13.198564702769197 9.2923662935874152 -0.66913061440640931 0 0.74314481823134659 0.3715724091156733 0 0.33456530720320465 1 I I #
point $-1 -75.786330082267824 13.198564702769197 10.42691167749811 #
plane-surface $-1 79.948728904080326 0 0 -1 0 0 0 0 1 forward_v I I I I #
coedge $-1 $398 $397 $390 $478 forward $260 $-1 #
coedge $-1 $390 $262 $264 $394 reversed $159 $-1 #
coedge $-1 $262 $389 $388 $478 reversed $159 $-1 #
coedge $-1 $270 $265 $262 $392 forward $271 $-1 #
edge $-1 $395 -109.57009027047904 $479 -102.74353925536792 $391 $480 forward 7 unknown #
coedge $-1 $264 $263 $398 $481 reversed $99 $-1 #
edge $-1 $482 149.69533752232229 $395 159.89745780816068 $389 $483 forward 7 unknown #
vertex $-1 $266 $484 #
straight-curve $-1 79.948728904080326 5.7381993725163873 6.6790708627393442 0 1 0 I I #
coedge $-1 $388 $267 $270 $402 forward $260 $-1 #
coedge $-1 $267 $388 $393 $481 forward $260 $-1 #
vertex $-1 $268 $485 #
straight-curve $-1 34.0570229353889 7.4580115103144742 13.505621877850459 1 0 0 I I #
straight-curve $-1 -38.878238314419647 7.4580115103144742 113.6713550479368 -0.74314481823134659 0 0.66913061440640931 I I #
edge $-1 $272 7.4580115103144742 $479 15.494785979751075 $270 $486 forward 7 unknown #
point $-1 79.948728904080326 7.4580115103144742 13.505621877850453 #
point $-1 79.948728904080326 7.4580115103144742 6.6790708627393371 #
edge $-1 $487 1 $487 0 $275 $-1 forward 7 unknown #
vertex $-1 $276 $488 #
ellipse-curve $-1 75.437597179272018 9.7542327872963668 9.2923662935874045 0.66913061440640931 0 0.74314481823134659 0.3715724091156733 0 -0.33456530720320465 1 I I #
point $-1 76.529474900499181 9.7542327872963668 9.7577810630916897 #
edge $-1 $489 1 $489 0 $279 $-1 forward 7 unknown #
vertex $-1 $280 $490 #
ellipse-curve $-1 75.437597179272018 13.198564702769197 9.2923662935874045 0.66913061440640931 0 0.74314481823134659 0.3715724091156733 0 -0.33456530720320465 1 I I #
point $-1 76.529474900499181 13.198564702769197 9.7577810630916897 #
plane-surface $-1 79.948728904080326 0 0 -1 0 0 0 0 1 forward_v I I I I #
coedge $-1 $288 $286 $290 $418 reversed $181 $-1 #
edge $-1 $301 -13.505621877850453 $420 13.505621877850453 $300 $491 forward 7 unknown #
vertex $-1 $418 $492 #
straight-curve $-1 -79.948728904080326 -50.054145599186278 0 0 0 -1 I I #
edge $-1 $416 -50.054145599186278 $420 50.054145599186278 $414 $493 forward 7 unknown #
straight-curve $-1 0 -50.054145599186278 -13.505621877850453 -1 0 0 I I #
vertex $-1 $293 $494 #
straight-curve $-1 0 50.054145599186278 -13.505621877850453 1 0 0 I I #
point $-1 79.948728904080326 50.054145599186278 -13.505621877850453 #
point $-1 79.948728904080326 -50.054145599186278 -13.505621877850453 #
straight-curve $-1 -79.948728904080326 0 13.505621877850453 0 -1 0 I I #
point $-1 -79.948728904080326 50.054145599186278 13.505621877850453 #
point $-1 -79.948728904080326 -50.054145599186278 13.505621877850453 #
straight-curve $-1 79.948728904080326 -50.054145599186278 0 0 0 -1 I I #
straight-curve $-1 79.948728904080326 50.054145599186278 0 0 0 -1 I I #
plane-surface $-1 79.948728904080326 0 0 -1 0 0 0 0 1 forward_v I I I I #
coedge $-1 $433 $313 $324 $442 forward $200 $-1 #
coedge $-1 $313 $433 $327 $444 reversed $200 $-1 #
straight-curve $-1 79.948728904080326 -37.992467472664849 -5.421880816142802 0 0 1 I I #
coedge $-1 $431 $430 $316 $434 forward $200 $-1 #
edge $-1 $437 15.980814204702067 $435 28.042492331223496 $433 $495 forward 7 unknown #
vertex $-1 $318 $496 #
straight-curve $-1 0 -50.054145599186278 -12.586628605474807 1 0 0 I I #
vertex $-1 $434 $497 #
straight-curve $-1 0 -37.992467472664849 -12.586628605474807 1 0 0 I I #
point $-1 79.948728904080326 -50.054145599186278 -12.586628605474807 #
point $-1 79.948728904080326 -37.992467472664849 -12.586628605474807 #
straight-curve $-1 -79.948728904080326 -22.011653267962782 -9.1008946590964008 0 1 0 I I #
edge $-1 $325 3.6790138429535988 $437 7.1647477893320053 $430 $498 forward 7 unknown #
point $-1 -79.948728904080326 -37.992467472664849 -9.1008946590964008 #
edge $-1 $329 9.1008946590964008 $435 12.586628605474807 $431 $499 forward 7 unknown #
point $-1 -79.948728904080326 -50.054145599186278 -9.1008946590964008 #
straight-curve $-1 79.948728904080326 -50.054145599186278 0 0 0 -1 I I #
plane-surface $-1 0 50.054145599186278 0 0 -1 0 0 0 -1 forward_v I I I I #
coedge $-1 $338 $457 $340 $451 forward $335 $-1 #
vertex $-1 $451 $500 #
straight-curve $-1 -79.948728904080326 37.992467472664849 -5.421880816142802 0 0 1 I I #
edge $-1 $453 -28.042492331223496 $449 -15.980814204702067 $448 $501 forward 7 unknown #
straight-curve $-1 0 37.992467472664849 -12.586628605474807 -1 0 0 I I #
vertex $-1 $343 $502 #
straight-curve $-1 0 50.054145599186278 -12.586628605474807 -1 0 0 I I #
point $-1 79.948728904080326 37.992467472664849 -12.586628605474807 #
point $-1 79.948728904080326 50.054145599186278 -12.586628605474807 #
coedge $-1 $448 $347 $350 $459 forward $335 $-1 #
straight-curve $-1 -79.948728904080326 22.011653267962782 -9.1008946590964008 0 1 0 I I #
edge $-1 $352 9.1008946590964008 $453 12.586628605474807 $350 $503 forward 7 unknown #
point $-1 -79.948728904080326 50.054145599186278 -9.1008946590964008 #
point $-1 -79.948728904080326 37.992467472664849 -9.1008946590964008 #
straight-curve $-1 79.948728904080326 37.992467472664849 -5.421880816142802 0 0 -1 I I #
straight-curve $-1 79.948728904080326 50.054145599186278 0 0 0 -1 I I #
coedge $-1 $372 $371 $364 $465 forward $361 $-1 #
edge $-1 $466 13.521777640558554 $469 21.103430465952243 $464 $504 forward 7 unknown #
vertex $-1 $465 $505 #
straight-curve $-1 -79.948728904080326 7.4580115103144742 62.753019040619655 0 0 1 I I #
edge $-1 $469 1.7198121377980868 $373 9.7565866072346878 $372 $506 forward 7 unknown #
vertex $-1 $468 $507 #
straight-curve $-1 -79.948728904080312 7.4580115103144742 6.6790708627393514 -0.74314481823134659 0 -0.66913061440640931 I I #
point $-1 -79.948728904080326 7.4580115103144742 6.6790708627393389 #
point $-1 -72.367076078686637 15.494785979751075 13.505621877850453 #
straight-curve $-1 -79.948728904080326 0 13.505621877850453 0 -1 0 I I #
vertex $-1 $379 $508 #
point $-1 -75.066024770156332 9.7542327872963668 9.6269316007906198 #
vertex $-1 $383 $509 #
point $-1 -75.066024770156332 13.198564702769197 9.6269316007906198 #
edge $-1 $479 -45.891705968691426 $482 -38.310053143297722 $388 $510 forward 7 unknown #
vertex $-1 $392 $511 #
straight-curve $-1 79.948728904080326 15.494785979751075 116.24916113321838 0 0 1 I I #
edge $-1 $482 -9.7565866072346878 $399 -1.7198121377980868 $398 $512 forward 7 unknown #
vertex $-1 $481 $513 #
straight-curve $-1 -38.878238314419647 15.494785979751075 113.6713550479368 0.74314481823134659 0 -0.66913061440640931 I I #
point $-1 79.948728904080326 15.494785979751075 6.6790708627393371 #
point $-1 72.367076078686623 7.4580115103144742 13.505621877850473 #
straight-curve $-1 79.948728904080326 0 13.505621877850453 0 1 0 I I #
vertex $-1 $405 $514 #
point $-1 75.809169588387689 9.7542327872963668 8.9578009863841999 #
vertex $-1 $409 $515 #
point $-1 75.809169588387689 13.198564702769197 8.9578009863841999 #
straight-curve $-1 -79.948728904080326 50.054145599186278 0 0 0 -1 I I #
point $-1 -79.948728904080326 -50.054145599186278 -13.505621877850453 #
straight-curve $-1 -79.948728904080326 0 -13.505621877850453 0 1 0 I I #
point $-1 -79.948728904080326 50.054145599186278 -13.505621877850453 #
straight-curve $-1 -79.948728904080326 -22.011653267962782 -12.586628605474807 0 -1 0 I I #
point $-1 -79.948728904080326 -50.054145599186278 -12.586628605474807 #
point $-1 -79.948728904080326 -37.992467472664849 -12.586628605474807 #
straight-curve $-1 -79.948728904080326 -37.992467472664849 -5.421880816142802 0 0 -1 I I #
straight-curve $-1 -79.948728904080326 -50.054145599186278 0 0 0 -1 I I #
point $-1 -79.948728904080326 37.992467472664849 -12.586628605474807 #
straight-curve $-1 -79.948728904080326 22.011653267962782 -12.586628605474807 0 -1 0 I I #
point $-1 -79.948728904080326 50.054145599186278 -12.586628605474807 #
straight-curve $-1 -79.948728904080326 50.054145599186278 0 0 0 -1 I I #
straight-curve $-1 -93.47050654463888 7.4580115103144742 13.505621877850452 1 0 0 I I #
point $-1 -79.948728904080326 7.4580115103144742 13.505621877850453 #
straight-curve $-1 -72.367076078686637 5.7381993725163873 13.505621877850452 0 1 0 I I #
point $-1 -72.367076078686637 7.4580115103144742 13.505621877850453 #
point $-1 -75.103031872068797 9.7542327872963668 8.9207938844717436 #
point $-1 -75.103031872068797 13.198564702769197 8.9207938844717436 #
straight-curve $-1 34.0570229353889 15.494785979751075 13.505621877850459 -1 0 0 I I #
point $-1 79.948728904080326 15.494785979751075 13.505621877850453 #
straight-curve $-1 72.367076078686651 5.7381993725163873 13.505621877850444 0 -1 0 I I #
point $-1 72.367076078686623 15.494785979751075 13.505621877850473 #
point $-1 75.103031872068811 9.7542327872963668 8.9207938844717329 #
point $-1 75.103031872068811 13.198564702769197 8.9207938844717329 #
End-of-ACIS-data 