500 0 8 0           
7 Unknown 11 ACIS 5.0 NT 24 Fri Mar 26 18:54:13 1999 
-1 9.9999999999999995e-007 1e-010 
body $-1 $8 $-1 $9 #
body $-1 $10 $-1 $11 #
body $-1 $12 $-1 $13 #
body $-1 $14 $-1 $15 #
body $-1 $16 $-1 $17 #
body $-1 $18 $-1 $19 #
body $-1 $20 $-1 $21 #
body $-1 $22 $-1 $23 #
lump $-1 $-1 $24 $0 #
transform $-1 1 0 0 0 1 0 0 0 1 56.670430616168701 25.472032902460786 7.3714743248046712 1 rotate no_reflect no_shear #
lump $-1 $-1 $25 $1 #
transform $-1 1 0 0 0 1 0 0 0 1 56.670430616168701 25.472032902460786 7.3714743248046712 1 rotate no_reflect no_shear #
lump $-1 $-1 $26 $2 #
transform $-1 1 0 0 0 1 0 0 0 1 56.670430616168701 25.472032902460786 7.3714743248046712 1 rotate no_reflect no_shear #
lump $-1 $-1 $27 $3 #
transform $-1 1 0 0 0 1 0 0 0 1 56.670430616168701 25.472032902460786 7.3714743248046712 1 rotate no_reflect no_shear #
lump $-1 $-1 $28 $4 #
transform $-1 1 0 0 0 1 0 0 0 1 56.670430616168701 25.472032902460786 7.3714743248046712 1 rotate no_reflect no_shear #
lump $-1 $-1 $29 $5 #
transform $-1 1 0 0 0 1 0 0 0 1 56.670430616168701 25.472032902460786 7.3714743248046712 1 rotate no_reflect no_shear #
lump $-1 $-1 $30 $6 #
transform $-1 1 0 0 0 1 0 0 0 1 56.670430616168701 25.472032902460786 7.3714743248046712 1 rotate no_reflect no_shear #
lump $-1 $-1 $31 $7 #
transform $-1 1 0 0 0 1 0 0 0 1 56.670430616168701 25.472032902460786 7.3714743248046712 1 rotate no_reflect no_shear #
shell $-1 $-1 $-1 $32 $-1 $8 #
shell $-1 $-1 $-1 $33 $-1 $10 #
shell $-1 $-1 $-1 $34 $-1 $12 #
shell $-1 $-1 $-1 $35 $-1 $14 #
shell $-1 $-1 $-1 $36 $-1 $16 #
shell $-1 $-1 $-1 $37 $-1 $18 #
shell $-1 $-1 $-1 $38 $-1 $20 #
shell $-1 $-1 $-1 $39 $-1 $22 #
face $-1 $40 $41 $24 $-1 $42 forward single #
face $-1 $43 $44 $25 $-1 $45 reversed single #
face $-1 $46 $47 $26 $-1 $48 reversed single #
face $-1 $49 $50 $27 $-1 $51 forward single #
face $-1 $52 $53 $28 $-1 $54 forward single #
face $-1 $55 $56 $29 $-1 $57 reversed single #
face $-1 $58 $59 $30 $-1 $60 forward single #
face $-1 $61 $62 $31 $-1 $63 forward single #
face $-1 $64 $65 $24 $-1 $66 reversed single #
loop $-1 $-1 $67 $32 #
plane-surface $-1 0 0 7.3714743248046712 0 0 1 1 0 0 forward_v I I I I #
face $-1 $68 $69 $25 $-1 $70 reversed single #
loop $-1 $-1 $71 $33 #
plane-surface $-1 0 -22.367509955781351 3.4213791351469265 0 0 1 1 0 0 forward_v I I I I #
face $-1 $72 $73 $26 $-1 $74 reversed single #
loop $-1 $-1 $75 $34 #
plane-surface $-1 -33.702709476524532 83.421553137839695 110.42342967686314 -1 0 0 0 0.78801076186113728 0.61566146476048833 forward_v I I I I #
face $-1 $76 $77 $27 $-1 $78 forward single #
loop $-1 $79 $80 $35 #
cone-surface $-1 -50.108224576270366 21.649927977573384 3.0466550246653248 0 -0.78801076186113728 -0.61566146476048833 2 0 0 1 I I 0 1 2 forward I I I I #
face $-1 $81 $82 $28 $-1 $83 forward single #
loop $-1 $84 $85 $36 #
cone-surface $-1 -40.264915516422867 21.649927977573384 3.0466550246653248 0 -0.78801076186113728 -0.61566146476048833 2 0 0 1 I I 0 1 2 forward I I I I #
face $-1 $86 $87 $29 $-1 $88 reversed single #
loop $-1 $-1 $89 $37 #
plane-surface $-1 45.186570046346617 -5.8922652718519402 40.643829033347046 0 0.78801076186113728 0.61566146476048833 1 0 0 forward_v I I I I #
face $-1 $90 $91 $30 $-1 $92 forward single #
loop $-1 $93 $94 $38 #
cone-surface $-1 40.26491551642286 21.649927977573384 3.0466550246653248 0 -0.78801076186113728 -0.61566146476048833 2 0 0 1 I I 0 1 2 forward I I I I #
face $-1 $95 $96 $31 $-1 $97 forward single #
loop $-1 $98 $99 $39 #
cone-surface $-1 50.108224576270359 21.649927977573384 3.0466550246653248 0 -0.78801076186113728 -0.61566146476048833 2 0 0 1 I I 0 1 2 forward I I I I #
face $-1 $100 $101 $24 $-1 $102 reversed single #
loop $-1 $-1 $103 $40 #
plane-surface $-1 0 0 -7.3714743248046712 0 0 1 1 0 0 forward_v I I I I #
coedge $-1 $104 $105 $106 $107 forward $41 $-1 #
face $-1 $108 $109 $25 $-1 $110 reversed single #
loop $-1 $-1 $111 $43 #
plane-surface $-1 0 -19.26298700910192 5.3964267299757989 0 -1 0 0 0 -1 forward_v I I I I #
coedge $-1 $112 $113 $114 $115 reversed $44 $-1 #
face $-1 $116 $117 $26 $-1 $118 reversed single #
loop $-1 $-1 $119 $46 #
plane-surface $-1 -45.186570046346617 -5.8922652718519402 40.643829033347046 0 0.78801076186113728 0.61566146476048833 1 0 0 forward_v I I I I #
coedge $-1 $120 $121 $122 $123 reversed $47 $-1 #
face $-1 $-1 $124 $27 $-1 $125 forward single #
loop $-1 $126 $127 $49 #
cone-surface $-1 -50.108224576270366 19.724355490270323 1.5422329591143882 0 -0.78801076186113728 -0.61566146476048833 1 0 0 1 I I -0.70710678118654746 0.70710678118654746 1 forward I I I I #
loop $-1 $-1 $128 $35 #
coedge $-1 $80 $80 $129 $130 reversed $50 $-1 #
face $-1 $-1 $131 $28 $-1 $132 forward single #
loop $-1 $133 $134 $52 #
cone-surface $-1 -40.264915516422867 19.724355490270323 1.5422329591143882 0 -0.78801076186113728 -0.61566146476048833 1 0 0 1 I I -0.70710678118654746 0.70710678118654746 1 forward I I I I #
loop $-1 $-1 $135 $36 #
coedge $-1 $85 $85 $136 $137 reversed $53 $-1 #
face $-1 $138 $139 $29 $-1 $140 forward single #
loop $-1 $-1 $141 $55 #
plane-surface $-1 33.702709476524532 83.421553137839695 110.42342967686314 1 0 0 0 -0.78801076186113728 -0.61566146476048833 forward_v I I I I #
coedge $-1 $142 $143 $144 $145 reversed $56 $-1 #
face $-1 $-1 $146 $30 $-1 $147 forward single #
loop $-1 $148 $149 $58 #
cone-surface $-1 40.26491551642286 19.724355490270323 1.5422329591143882 0 -0.78801076186113728 -0.61566146476048833 1 0 0 1 I I -0.70710678118654746 0.70710678118654746 1 forward I I I I #
loop $-1 $-1 $150 $38 #
coedge $-1 $94 $94 $151 $152 reversed $59 $-1 #
face $-1 $-1 $153 $31 $-1 $154 forward single #
loop $-1 $155 $156 $61 #
cone-surface $-1 50.108224576270359 19.724355490270323 1.5422329591143882 0 -0.78801076186113728 -0.61566146476048833 1 0 0 1 I I -0.70710678118654746 0.70710678118654746 1 forward I I I I #
loop $-1 $-1 $157 $39 #
coedge $-1 $99 $99 $158 $159 reversed $62 $-1 #
face $-1 $160 $161 $24 $-1 $162 reversed single #
loop $-1 $-1 $163 $64 #
plane-surface $-1 0 -25.472032902460786 0 0 1 0 0 0 1 forward_v I I I I #
coedge $-1 $164 $165 $166 $167 forward $65 $-1 #
coedge $-1 $168 $67 $169 $170 forward $41 $-1 #
coedge $-1 $67 $168 $171 $172 forward $41 $-1 #
coedge $-1 $173 $174 $67 $107 reversed $175 $-1 #
edge $-1 $176 -25.472032902460786 $177 25.472032902460786 $106 $178 forward 7 unknown #
face $-1 $179 $180 $25 $-1 $181 reversed single #
loop $-1 $-1 $182 $68 #
plane-surface $-1 -56.670430616168701 0 0 1 0 0 0 0 -1 forward_v I I I I #
coedge $-1 $183 $184 $185 $186 reversed $69 $-1 #
coedge $-1 $187 $71 $188 $189 reversed $44 $-1 #
coedge $-1 $71 $187 $183 $190 forward $44 $-1 #
coedge $-1 $185 $191 $71 $115 forward $192 $-1 #
edge $-1 $193 -14.288277924570107 $194 -8.0792320312112444 $114 $195 forward 7 unknown #
face $-1 $196 $197 $26 $-1 $198 forward single #
loop $-1 $-1 $199 $72 #
plane-surface $-1 -56.670430616168701 0 0 1 0 0 0 0 -1 forward_v I I I I #
coedge $-1 $200 $201 $202 $203 reversed $73 $-1 #
coedge $-1 $121 $75 $204 $205 reversed $47 $-1 #
coedge $-1 $75 $120 $200 $206 reversed $47 $-1 #
coedge $-1 $202 $207 $75 $123 forward $208 $-1 #
edge $-1 $209 47.840240513626895 $210 54.712357912324684 $122 $211 forward 7 unknown #
loop $-1 $-1 $129 $76 #
plane-surface $-1 -45.186570046346617 -5.8922652718519402 40.643829033347046 0 0.78801076186113728 0.61566146476048833 1 0 0 forward_v I I I I #
loop $-1 $-1 $212 $49 #
coedge $-1 $127 $127 $128 $213 reversed $77 $-1 #
coedge $-1 $128 $128 $127 $213 forward $79 $-1 #
coedge $-1 $129 $129 $80 $130 forward $124 $-1 #
edge $-1 $214 8.7387090458739683e-017 $214 6.2831853071796004 $129 $215 forward 7 unknown #
loop $-1 $-1 $136 $81 #
plane-surface $-1 -45.186570046346617 -5.8922652718519402 40.643829033347046 0 0.78801076186113728 0.61566146476048833 1 0 0 forward_v I I I I #
loop $-1 $-1 $216 $52 #
coedge $-1 $134 $134 $135 $217 reversed $82 $-1 #
coedge $-1 $135 $135 $134 $217 forward $84 $-1 #
coedge $-1 $136 $136 $85 $137 forward $131 $-1 #
edge $-1 $218 8.7387090458739683e-017 $218 6.2831853071796004 $136 $219 forward 7 unknown #
face $-1 $220 $221 $29 $-1 $222 reversed single #
loop $-1 $-1 $223 $86 #
plane-surface $-1 0 0 7.3714743248046712 0 0 1 1 0 0 forward_v I I I I #
coedge $-1 $224 $225 $226 $227 reversed $87 $-1 #
coedge $-1 $228 $89 $229 $230 reversed $56 $-1 #
coedge $-1 $89 $228 $224 $231 forward $56 $-1 #
coedge $-1 $226 $232 $89 $145 forward $221 $-1 #
edge $-1 $233 -34.077145592995393 $234 -11.109424453351224 $144 $235 forward 7 unknown #
loop $-1 $-1 $151 $90 #
plane-surface $-1 45.186570046346617 -5.8922652718519402 40.643829033347046 0 0.78801076186113728 0.61566146476048833 1 0 0 forward_v I I I I #
loop $-1 $-1 $236 $58 #
coedge $-1 $149 $149 $150 $237 reversed $91 $-1 #
coedge $-1 $150 $150 $149 $237 forward $93 $-1 #
coedge $-1 $151 $151 $94 $152 forward $146 $-1 #
edge $-1 $238 8.7387090458739683e-017 $238 6.2831853071796004 $151 $239 forward 7 unknown #
loop $-1 $-1 $158 $95 #
plane-surface $-1 45.186570046346617 -5.8922652718519402 40.643829033347046 0 0.78801076186113728 0.61566146476048833 1 0 0 forward_v I I I I #
loop $-1 $-1 $240 $61 #
coedge $-1 $156 $156 $157 $241 reversed $96 $-1 #
coedge $-1 $157 $157 $156 $241 forward $98 $-1 #
coedge $-1 $158 $158 $99 $159 forward $153 $-1 #
edge $-1 $242 8.7387090458739683e-017 $242 6.2831853071796004 $158 $243 forward 7 unknown #
face $-1 $244 $245 $24 $-1 $246 reversed single #
loop $-1 $-1 $247 $100 #
plane-surface $-1 -56.670430616168701 0 0 1 0 0 0 0 -1 forward_v I I I I #
coedge $-1 $248 $171 $249 $250 forward $101 $-1 #
coedge $-1 $251 $103 $248 $252 forward $65 $-1 #
coedge $-1 $103 $251 $253 $254 forward $65 $-1 #
coedge $-1 $174 $173 $103 $167 reversed $175 $-1 #
edge $-1 $255 -25.472032902460786 $256 25.472032902460786 $166 $257 forward 7 unknown #
coedge $-1 $105 $104 $258 $259 forward $41 $-1 #
coedge $-1 $260 $261 $104 $170 reversed $245 $-1 #
edge $-1 $177 -56.670430616168701 $262 56.670430616168701 $169 $263 forward 7 unknown #
coedge $-1 $163 $264 $105 $172 reversed $101 $-1 #
edge $-1 $265 -56.670430616168701 $176 56.670430616168701 $171 $266 forward 7 unknown #
coedge $-1 $166 $106 $264 $267 forward $175 $-1 #
coedge $-1 $106 $166 $260 $268 reversed $175 $-1 #
loop $-1 $-1 $173 $244 #
vertex $-1 $107 $269 #
vertex $-1 $107 $270 #
straight-curve $-1 56.670430616168701 0 7.3714743248046712 0 1 0 I I #
face $-1 $271 $272 $25 $-1 $273 forward single #
loop $-1 $-1 $188 $108 #
plane-surface $-1 0 -25.472032902460786 0 0 1 0 0 0 1 forward_v I I I I #
coedge $-1 $274 $275 $276 $277 forward $109 $-1 #
coedge $-1 $276 $111 $113 $190 reversed $69 $-1 #
coedge $-1 $111 $276 $278 $279 reversed $69 $-1 #
coedge $-1 $280 $114 $111 $186 forward $192 $-1 #
edge $-1 $194 0.72316577015902705 $281 4.6732609598167718 $185 $282 forward 7 unknown #
coedge $-1 $113 $112 $274 $283 reversed $44 $-1 #
coedge $-1 $284 $285 $112 $189 forward $180 $-1 #
edge $-1 $286 -56.670430616168701 $193 56.670430616168701 $188 $287 forward 7 unknown #
edge $-1 $288 -56.670430616168701 $194 56.670430616168701 $183 $289 forward 7 unknown #
coedge $-1 $114 $280 $284 $290 forward $192 $-1 #
loop $-1 $-1 $185 $271 #
vertex $-1 $189 $291 #
vertex $-1 $115 $292 #
straight-curve $-1 56.670430616168701 -11.183754977890676 3.4213791351469265 0 1 0 I I #
face $-1 $-1 $208 $26 $-1 $293 reversed single #
loop $-1 $-1 $204 $116 #
plane-surface $-1 0 0 7.3714743248046712 0 0 1 1 0 0 forward_v I I I I #
coedge $-1 $294 $295 $201 $296 forward $117 $-1 #
coedge $-1 $297 $119 $121 $206 forward $73 $-1 #
coedge $-1 $119 $297 $199 $296 reversed $73 $-1 #
coedge $-1 $298 $122 $119 $203 forward $208 $-1 #
edge $-1 $210 11.109424453351224 $299 34.077145592995393 $202 $300 forward 7 unknown #
coedge $-1 $301 $302 $120 $205 forward $197 $-1 #
edge $-1 $303 -21.607830065350001 $209 -16.238743666459062 $204 $304 forward 7 unknown #
edge $-1 $210 -50.944065804921578 $303 -42.223223741207747 $121 $305 forward 7 unknown #
coedge $-1 $122 $298 $301 $306 reversed $208 $-1 #
loop $-1 $-1 $202 $196 #
vertex $-1 $306 $307 #
vertex $-1 $123 $308 #
straight-curve $-1 -33.702709476524532 25.472032902460786 55.211714838431568 0 0 -1 I I #
coedge $-1 $212 $212 $-1 $309 reversed $126 $-1 #
edge $-1 $310 0 $310 6.2831853071796004 $127 $311 forward 7 unknown #
vertex $-1 $130 $312 #
ellipse-curve $-1 -50.108224576270366 22.787489703015314 3.9354156254557786 0 0.78801076186113728 0.61566146476048833 2 0 0 1 I I #
coedge $-1 $216 $216 $-1 $313 reversed $133 $-1 #
edge $-1 $314 0 $314 6.2831853071796004 $134 $315 forward 7 unknown #
vertex $-1 $137 $316 #
ellipse-curve $-1 -40.264915516422867 22.787489703015314 3.9354156254557786 0 0.78801076186113728 0.61566146476048833 2 0 0 1 I I #
face $-1 $-1 $317 $29 $-1 $318 reversed single #
loop $-1 $-1 $226 $138 #
plane-surface $-1 0 25.472032902460786 0 0 -1 0 0 0 -1 forward_v I I I I #
coedge $-1 $319 $320 $225 $321 forward $139 $-1 #
coedge $-1 $225 $141 $143 $231 reversed $87 $-1 #
coedge $-1 $141 $224 $223 $321 reversed $87 $-1 #
coedge $-1 $322 $144 $141 $227 forward $221 $-1 #
edge $-1 $234 -54.712357912324684 $323 -47.840240513626895 $226 $324 forward 7 unknown #
coedge $-1 $143 $142 $319 $325 reversed $56 $-1 #
coedge $-1 $326 $327 $142 $230 forward $317 $-1 #
edge $-1 $328 24.395516066434077 $233 33.116358130147908 $229 $329 forward 7 unknown #
edge $-1 $330 42.223223741207747 $234 50.944065804921578 $224 $331 forward 7 unknown #
coedge $-1 $144 $322 $326 $332 forward $221 $-1 #
vertex $-1 $230 $333 #
vertex $-1 $145 $334 #
straight-curve $-1 22.593285023173308 25.472032902460789 0.4993569261068771 -1 0 0 I I #
coedge $-1 $236 $236 $-1 $335 reversed $148 $-1 #
edge $-1 $336 0 $336 6.2831853071796004 $149 $337 forward 7 unknown #
vertex $-1 $152 $338 #
ellipse-curve $-1 40.26491551642286 22.787489703015314 3.9354156254557786 0 0.78801076186113728 0.61566146476048833 2 0 0 1 I I #
coedge $-1 $240 $240 $-1 $339 reversed $155 $-1 #
edge $-1 $340 0 $340 6.2831853071796004 $156 $341 forward 7 unknown #
vertex $-1 $159 $342 #
ellipse-curve $-1 50.108224576270359 22.787489703015314 3.9354156254557786 0 0.78801076186113728 0.61566146476048833 2 0 0 1 I I #
face $-1 $-1 $175 $24 $-1 $343 reversed single #
loop $-1 $-1 $260 $160 #
plane-surface $-1 0 25.472032902460786 0 0 -1 0 0 0 -1 forward_v I I I I #
coedge $-1 $344 $258 $261 $345 forward $161 $-1 #
coedge $-1 $264 $163 $164 $252 reversed $101 $-1 #
coedge $-1 $258 $344 $163 $250 reversed $161 $-1 #
edge $-1 $265 -7.3714743248046712 $346 7.3714743248046712 $249 $347 forward 7 unknown #
coedge $-1 $165 $164 $344 $348 forward $65 $-1 #
edge $-1 $256 -56.670430616168701 $346 56.670430616168701 $248 $349 forward 7 unknown #
coedge $-1 $261 $260 $165 $254 reversed $245 $-1 #
edge $-1 $350 -56.670430616168701 $255 56.670430616168701 $253 $351 forward 7 unknown #
vertex $-1 $167 $352 #
vertex $-1 $267 $353 #
straight-curve $-1 56.670430616168701 0 -7.3714743248046712 0 -1 0 I I #
coedge $-1 $247 $249 $168 $259 reversed $161 $-1 #
edge $-1 $262 -25.472032902460786 $265 25.472032902460786 $258 $354 forward 7 unknown #
coedge $-1 $253 $169 $174 $268 forward $245 $-1 #
coedge $-1 $169 $253 $247 $345 reversed $245 $-1 #
vertex $-1 $170 $355 #
straight-curve $-1 0 25.472032902460786 7.3714743248046712 -1 0 0 I I #
coedge $-1 $171 $248 $173 $267 reversed $101 $-1 #
vertex $-1 $259 $356 #
straight-curve $-1 0 -25.472032902460786 7.3714743248046712 1 0 0 I I #
edge $-1 $176 -7.3714743248046712 $256 7.3714743248046712 $173 $357 forward 7 unknown #
edge $-1 $177 -7.3714743248046712 $255 7.3714743248046712 $174 $358 forward 7 unknown #
point $-1 56.670430616168701 -25.472032902460786 7.3714743248046712 #
point $-1 56.670430616168701 25.472032902460786 7.3714743248046712 #
face $-1 $-1 $192 $25 $-1 $359 reversed single #
loop $-1 $-1 $278 $179 #
plane-surface $-1 0 0 7.3714743248046712 0 0 1 1 0 0 forward_v I I I I #
coedge $-1 $360 $182 $187 $283 forward $109 $-1 #
coedge $-1 $182 $360 $361 $362 reversed $109 $-1 #
coedge $-1 $184 $183 $182 $277 reversed $69 $-1 #
edge $-1 $363 -4.6732609598167718 $288 -0.72316577015902705 $182 $364 forward 7 unknown #
coedge $-1 $361 $365 $184 $279 forward $272 $-1 #
edge $-1 $281 -56.670430616168701 $363 56.670430616168701 $278 $366 forward 7 unknown #
coedge $-1 $191 $185 $365 $367 reversed $192 $-1 #
vertex $-1 $186 $368 #
straight-curve $-1 56.670430616168701 -19.26298700910192 2.6982133649878994 0 0 1 I I #
edge $-1 $288 8.0792320312112444 $286 14.288277924570107 $274 $369 forward 7 unknown #
coedge $-1 $370 $188 $191 $290 reversed $180 $-1 #
coedge $-1 $188 $370 $360 $371 forward $180 $-1 #
vertex $-1 $189 $372 #
straight-curve $-1 0 -25.472032902460786 3.4213791351469265 1 0 0 I I #
vertex $-1 $283 $373 #
straight-curve $-1 0 -19.26298700910192 3.4213791351469265 1 0 0 I I #
edge $-1 $374 -7.3714743248046712 $193 -3.4213791351469265 $191 $375 forward 7 unknown #
point $-1 56.670430616168701 -25.472032902460782 3.4213791351469265 #
point $-1 56.670430616168701 -19.26298700910192 3.4213791351469265 #
plane-surface $-1 0 25.472032902460786 0 0 -1 0 0 0 -1 forward_v I I I I #
coedge $-1 $295 $199 $376 $377 reversed $117 $-1 #
coedge $-1 $199 $294 $298 $378 forward $117 $-1 #
edge $-1 $299 -33.116358130147916 $379 -24.395516066434077 $199 $380 forward 7 unknown #
coedge $-1 $201 $200 $302 $381 reversed $73 $-1 #
coedge $-1 $207 $202 $295 $378 reversed $208 $-1 #
vertex $-1 $296 $382 #
straight-curve $-1 -22.593285023173308 25.472032902460789 0.4993569261068771 -1 0 0 I I #
coedge $-1 $376 $204 $207 $306 forward $197 $-1 #
coedge $-1 $204 $376 $297 $381 forward $197 $-1 #
vertex $-1 $205 $383 #
straight-curve $-1 -33.702709476524532 41.710776568919847 7.371474324804673 0 1 0 I I #
straight-curve $-1 -33.702709476524532 -5.8922652718519402 40.643829033347046 0 -0.61566146476048833 0.78801076186113728 I I #
edge $-1 $209 33.702709476524532 $384 56.670430616168701 $207 $385 forward 7 unknown #
point $-1 -33.702709476524532 25.472032902460786 7.3714743248046712 #
point $-1 -33.702709476524532 25.472032902460786 0.4993569261068842 #
edge $-1 $386 1 $386 0 $212 $-1 forward 7 unknown #
vertex $-1 $213 $387 #
ellipse-curve $-1 -50.108224576270366 20.512366252131461 2.1578944238748763 0 0.78801076186113728 0.61566146476048833 2 0 0 1 I I #
point $-1 -48.108224576270366 22.787489703015307 3.9354156254557728 #
edge $-1 $388 1 $388 0 $216 $-1 forward 7 unknown #
vertex $-1 $217 $389 #
ellipse-curve $-1 -40.264915516422867 20.512366252131461 2.1578944238748763 0 0.78801076186113728 0.61566146476048833 2 0 0 1 I I #
point $-1 -38.264915516422867 22.787489703015307 3.9354156254557728 #
loop $-1 $-1 $229 $220 #
plane-surface $-1 56.670430616168701 0 0 -1 0 0 0 0 1 forward_v I I I I #
coedge $-1 $390 $223 $228 $325 forward $139 $-1 #
coedge $-1 $223 $390 $322 $391 forward $139 $-1 #
edge $-1 $323 16.238743666459062 $330 21.607830065350001 $223 $392 forward 7 unknown #
coedge $-1 $232 $226 $320 $391 reversed $221 $-1 #
vertex $-1 $321 $393 #
straight-curve $-1 33.702709476524532 25.472032902460786 55.211714838431568 0 0 1 I I #
edge $-1 $330 11.109424453351224 $328 34.077145592995393 $319 $394 forward 7 unknown #
coedge $-1 $327 $229 $232 $332 reversed $317 $-1 #
coedge $-1 $229 $326 $390 $395 reversed $317 $-1 #
vertex $-1 $395 $396 #
straight-curve $-1 56.670430616168701 5.0835673485210169 26.595403526311003 0 0.61566146476048833 -0.78801076186113728 I I #
vertex $-1 $325 $397 #
straight-curve $-1 33.702709476524532 -5.8922652718519402 40.643829033347046 0 0.61566146476048833 -0.78801076186113728 I I #
edge $-1 $398 -7.3714743248046712 $233 -0.4993569261068842 $326 $399 forward 7 unknown #
point $-1 56.670430616168701 25.472032902460786 0.4993569261068842 #
point $-1 33.702709476524532 25.472032902460786 0.4993569261068842 #
edge $-1 $400 1 $400 0 $236 $-1 forward 7 unknown #
vertex $-1 $237 $401 #
ellipse-curve $-1 40.26491551642286 20.512366252131461 2.1578944238748763 0 0.78801076186113728 0.61566146476048833 2 0 0 1 I I #
point $-1 42.26491551642286 22.787489703015307 3.9354156254557728 #
edge $-1 $402 1 $402 0 $240 $-1 forward 7 unknown #
vertex $-1 $241 $403 #
ellipse-curve $-1 50.108224576270359 20.512366252131461 2.1578944238748763 0 0.78801076186113728 0.61566146476048833 2 0 0 1 I I #
point $-1 52.108224576270359 22.787489703015307 3.9354156254557728 #
plane-surface $-1 56.670430616168701 0 0 -1 0 0 0 0 1 forward_v I I I I #
coedge $-1 $249 $247 $251 $348 reversed $161 $-1 #
edge $-1 $262 -7.3714743248046712 $350 7.3714743248046712 $261 $404 forward 7 unknown #
vertex $-1 $348 $405 #
straight-curve $-1 -56.670430616168701 -25.472032902460786 0 0 0 -1 I I #
edge $-1 $346 -25.472032902460786 $350 25.472032902460786 $344 $406 forward 7 unknown #
straight-curve $-1 0 -25.472032902460786 -7.3714743248046712 -1 0 0 I I #
vertex $-1 $254 $407 #
straight-curve $-1 0 25.472032902460786 -7.3714743248046712 1 0 0 I I #
point $-1 56.670430616168701 25.472032902460786 -7.3714743248046712 #
point $-1 56.670430616168701 -25.472032902460786 -7.3714743248046712 #
straight-curve $-1 -56.670430616168701 0 7.3714743248046712 0 -1 0 I I #
point $-1 -56.670430616168701 25.472032902460786 7.3714743248046712 #
point $-1 -56.670430616168701 -25.472032902460786 7.3714743248046712 #
straight-curve $-1 56.670430616168701 -25.472032902460786 0 0 0 -1 I I #
straight-curve $-1 56.670430616168701 25.472032902460786 0 0 0 -1 I I #
plane-surface $-1 56.670430616168701 0 0 -1 0 0 0 0 1 forward_v I I I I #
coedge $-1 $275 $274 $285 $371 reversed $109 $-1 #
coedge $-1 $408 $278 $275 $362 forward $272 $-1 #
edge $-1 $363 19.26298700910192 $409 25.472032902460786 $275 $410 forward 7 unknown #
vertex $-1 $362 $411 #
straight-curve $-1 -56.670430616168701 -19.26298700910192 2.6982133649878994 0 0 -1 I I #
coedge $-1 $278 $408 $280 $367 forward $272 $-1 #
straight-curve $-1 0 -19.26298700910192 7.3714743248046712 -1 0 0 I I #
edge $-1 $374 -25.472032902460786 $281 -19.26298700910192 $280 $412 forward 7 unknown #
point $-1 56.670430616168701 -19.26298700910192 7.3714743248046712 #
straight-curve $-1 -56.670430616168701 -11.183754977890676 3.4213791351469265 0 -1 0 I I #
coedge $-1 $285 $284 $408 $413 reversed $180 $-1 #
edge $-1 $409 -7.3714743248046712 $286 -3.4213791351469265 $360 $414 forward 7 unknown #
point $-1 -56.670430616168701 -25.472032902460782 3.4213791351469265 #
point $-1 -56.670430616168701 -19.26298700910192 3.4213791351469265 #
vertex $-1 $367 $415 #
straight-curve $-1 56.670430616168701 -25.472032902460786 0 0 0 -1 I I #
coedge $-1 $302 $301 $294 $377 forward $197 $-1 #
edge $-1 $384 -25.472032902460786 $379 -20.102946503569846 $294 $416 forward 7 unknown #
edge $-1 $384 -7.3714743248046712 $299 -0.49935692610687754 $298 $417 forward 7 unknown #
vertex $-1 $296 $418 #
straight-curve $-1 -56.670430616168701 5.0835673485210169 26.595403526311003 0 -0.61566146476048833 0.78801076186113728 I I #
edge $-1 $379 -34.077145592995393 $303 -11.109424453351224 $302 $419 forward 7 unknown #
point $-1 -56.670430616168701 25.472032902460786 0.49935692610687754 #
point $-1 -33.702709476524532 20.102946503569846 7.371474324804673 #
vertex $-1 $306 $420 #
straight-curve $-1 0 25.472032902460786 7.3714743248046712 -1 0 0 I I #
vertex $-1 $309 $421 #
point $-1 -48.108224576270366 20.512366252131461 2.1578944238748763 #
vertex $-1 $313 $422 #
point $-1 -38.264915516422867 20.512366252131461 2.1578944238748763 #
coedge $-1 $320 $319 $327 $395 forward $139 $-1 #
edge $-1 $398 -56.670430616168701 $323 -33.702709476524532 $322 $423 forward 7 unknown #
straight-curve $-1 33.702709476524532 41.710776568919847 7.371474324804673 0 -1 0 I I #
point $-1 33.702709476524532 25.472032902460786 7.3714743248046712 #
straight-curve $-1 22.593285023173308 20.102946503569846 7.371474324804673 1 0 0 I I #
edge $-1 $328 20.102946503569846 $398 25.472032902460786 $327 $424 forward 7 unknown #
point $-1 56.670430616168701 20.102946503569846 7.371474324804673 #
point $-1 33.702709476524532 20.102946503569846 7.371474324804673 #
vertex $-1 $395 $425 #
straight-curve $-1 56.670430616168701 25.472032902460786 0 0 0 -1 I I #
vertex $-1 $335 $426 #
point $-1 42.26491551642286 20.512366252131461 2.1578944238748763 #
vertex $-1 $339 $427 #
point $-1 52.108224576270359 20.512366252131461 2.1578944238748763 #
straight-curve $-1 -56.670430616168701 25.472032902460786 0 0 0 -1 I I #
point $-1 -56.670430616168701 -25.472032902460786 -7.3714743248046712 #
straight-curve $-1 -56.670430616168701 0 -7.3714743248046712 0 1 0 I I #
point $-1 -56.670430616168701 25.472032902460786 -7.3714743248046712 #
coedge $-1 $365 $361 $370 $413 forward $272 $-1 #
vertex $-1 $362 $428 #
straight-curve $-1 -56.670430616168701 0 7.3714743248046712 0 -1 0 I I #
point $-1 -56.670430616168701 -19.26298700910192 7.3714743248046712 #
straight-curve $-1 56.670430616168701 0 7.3714743248046712 0 1 0 I I #
edge $-1 $409 -56.670430616168701 $374 56.670430616168701 $370 $429 forward 7 unknown #
straight-curve $-1 -56.670430616168701 -25.472032902460786 0 0 0 -1 I I #
point $-1 56.670430616168701 -25.472032902460786 7.3714743248046712 #
straight-curve $-1 -56.670430616168701 0 7.3714743248046712 0 -1 0 I I #
straight-curve $-1 -56.670430616168701 25.472032902460786 0 0 0 -1 I I #
point $-1 -56.670430616168701 20.102946503569846 7.371474324804673 #
straight-curve $-1 -22.593285023173308 20.102946503569846 7.371474324804673 1 0 0 I I #
point $-1 -56.670430616168701 25.472032902460786 7.3714743248046712 #
point $-1 -50.108224576270366 18.936344728409185 0.92657149435389985 #
point $-1 -40.264915516422867 18.936344728409185 0.92657149435389985 #
straight-curve $-1 0 25.472032902460786 7.3714743248046712 -1 0 0 I I #
straight-curve $-1 56.670430616168701 0 7.3714743248046712 0 1 0 I I #
point $-1 56.670430616168701 25.472032902460786 7.3714743248046712 #
point $-1 40.26491551642286 18.936344728409185 0.92657149435389985 #
point $-1 50.108224576270359 18.936344728409185 0.92657149435389985 #
point $-1 -56.670430616168701 -25.472032902460786 7.3714743248046712 #
straight-curve $-1 0 -25.472032902460786 7.3714743248046712 1 0 0 I I #
End-of-ACIS-data 