500 0 8 0           
7 Unknown 11 ACIS 5.0 NT 24 Thu Mar 25 22:51:51 1999 
-1 9.9999999999999995e-007 1e-010 
body $-1 $8 $-1 $9 #
body $-1 $10 $-1 $11 #
body $-1 $12 $-1 $13 #
body $-1 $14 $-1 $15 #
body $-1 $16 $-1 $17 #
body $-1 $18 $-1 $19 #
body $-1 $20 $-1 $21 #
body $-1 $22 $-1 $23 #
lump $-1 $-1 $24 $0 #
transform $-1 1 0 0 0 1 0 0 0 1 75.964232306894132 49.472149667635996 13.691466867001054 1 rotate no_reflect no_shear #
lump $-1 $-1 $25 $1 #
transform $-1 1 0 0 0 1 0 0 0 1 75.964232306894132 49.472149667635996 13.691466867001054 1 rotate no_reflect no_shear #
lump $-1 $-1 $26 $2 #
transform $-1 1 0 0 0 1 0 0 0 1 75.964232306894132 49.472149667635996 13.691466867001054 1 rotate no_reflect no_shear #
lump $-1 $-1 $27 $3 #
transform $-1 1 0 0 0 1 0 0 0 1 75.964232306894132 49.472149667635996 13.691466867001054 1 rotate no_reflect no_shear #
lump $-1 $-1 $28 $4 #
transform $-1 1 0 0 0 1 0 0 0 1 75.964232306894132 49.472149667635996 13.691466867001054 1 rotate no_reflect no_shear #
lump $-1 $-1 $29 $5 #
transform $-1 1 0 0 0 1 0 0 0 1 75.964232306894132 49.472149667635996 13.691466867001054 1 rotate no_reflect no_shear #
lump $-1 $-1 $30 $6 #
transform $-1 1 0 0 0 1 0 0 0 1 75.964232306894132 49.472149667635996 13.691466867001054 1 rotate no_reflect no_shear #
lump $-1 $-1 $31 $7 #
transform $-1 1 0 0 0 1 0 0 0 1 75.964232306894132 49.472149667635996 13.691466867001054 1 rotate no_reflect no_shear #
shell $-1 $-1 $-1 $32 $-1 $8 #
shell $-1 $-1 $-1 $33 $-1 $10 #
shell $-1 $-1 $-1 $34 $-1 $12 #
shell $-1 $-1 $-1 $35 $-1 $14 #
shell $-1 $-1 $-1 $36 $-1 $16 #
shell $-1 $-1 $-1 $37 $-1 $18 #
shell $-1 $-1 $-1 $38 $-1 $20 #
shell $-1 $-1 $-1 $39 $-1 $22 #
face $-1 $40 $41 $24 $-1 $42 forward single #
face $-1 $43 $44 $25 $-1 $45 forward single #
face $-1 $46 $47 $26 $-1 $48 reversed single #
face $-1 $49 $50 $27 $-1 $51 forward single #
face $-1 $52 $53 $28 $-1 $54 reversed single #
face $-1 $55 $56 $29 $-1 $57 forward single #
face $-1 $58 $59 $30 $-1 $60 forward single #
face $-1 $61 $62 $31 $-1 $63 forward single #
face $-1 $64 $65 $24 $-1 $66 reversed single #
loop $-1 $-1 $67 $32 #
plane-surface $-1 0 0 13.691466867001054 0 0 1 1 0 0 forward_v I I I I #
face $-1 $68 $69 $25 $-1 $70 reversed single #
loop $-1 $-1 $71 $33 #
plane-surface $-1 0 -40.77071207823527 5.3548888058068691 0 0 1 1 0 0 forward_v I I I I #
face $-1 $72 $73 $26 $-1 $74 reversed single #
loop $-1 $-1 $75 $34 #
plane-surface $-1 -163.10682074344203 10.18542235852928 130.99066317558726 0 1 0 -0.57357644374324357 0 0.81915203911291934 forward_v I I I I #
face $-1 $76 $77 $27 $-1 $78 forward single #
loop $-1 $79 $80 $35 #
cone-surface $-1 -67.477794177105807 16.933176155687327 5.2898944701414132 0.57357644374324357 0 -0.81915203911291934 2.4574561173387579 0 1.7207293312297307 1 I I 0 1 3 forward I I I I #
face $-1 $81 $82 $28 $-1 $83 reversed single #
loop $-1 $-1 $84 $36 #
plane-surface $-1 124.29706042110752 -3.5666240175934938 210.77866787249764 0 -1 0 -0.84804810408105047 0 -0.52991925155115449 forward_v I I I I #
face $-1 $85 $86 $29 $-1 $87 forward single #
loop $-1 $88 $89 $37 #
cone-surface $-1 71.708114716626426 -13.196410639188727 7.2938754294123633 -0.84804810408105047 0 -0.52991925155115449 0.26495962577557725 0 -0.42402405204052523 1 I I 0 1 0.5 forward I I I I #
face $-1 $90 $91 $30 $-1 $92 forward single #
loop $-1 $93 $94 $38 #
cone-surface $-1 71.708114716626426 -9.5852406560905123 7.2938754294123633 -0.84804810408105047 0 -0.52991925155115449 0.26495962577557725 0 -0.42402405204052523 1 I I 0 1 0.5 forward I I I I #
face $-1 $95 $96 $31 $-1 $97 forward single #
loop $-1 $98 $99 $39 #
cone-surface $-1 71.708114716626426 -5.9740706729923048 7.2938754294123633 -0.84804810408105047 0 -0.52991925155115449 0.26495962577557725 0 -0.42402405204052523 1 I I 0 1 0.5 forward I I I I #
face $-1 $100 $101 $24 $-1 $102 reversed single #
loop $-1 $-1 $103 $40 #
plane-surface $-1 0 0 -13.691466867001054 0 0 1 1 0 0 forward_v I I I I #
coedge $-1 $104 $105 $106 $107 forward $41 $-1 #
face $-1 $108 $109 $25 $-1 $110 reversed single #
loop $-1 $-1 $111 $43 #
plane-surface $-1 0 -40.77071207823527 -2.1615246859297912 0 0 1 1 0 0 forward_v I I I I #
coedge $-1 $112 $113 $114 $115 reversed $44 $-1 #
face $-1 $116 $117 $26 $-1 $118 reversed single #
loop $-1 $-1 $119 $46 #
plane-surface $-1 -75.964232306894132 16.933176155687327 6.538151587907592 -0.57357644374324357 0 0.81915203911291934 0.81915203911291934 0 0.57357644374324357 forward_v I I I I #
coedge $-1 $120 $121 $122 $123 reversed $47 $-1 #
face $-1 $-1 $124 $27 $-1 $125 forward single #
loop $-1 $126 $127 $49 #
cone-surface $-1 -63.238987762312391 16.933176155687327 -0.76374834584086315 0.57357644374324357 0 -0.81915203911291934 1.228728058669379 0 0.86036466561486535 1 I I -0.70710678118654757 0.70710678118654757 1.5 forward I I I I #
loop $-1 $-1 $128 $35 #
coedge $-1 $80 $80 $129 $130 reversed $50 $-1 #
face $-1 $131 $132 $28 $-1 $133 reversed single #
loop $-1 $-1 $134 $52 #
plane-surface $-1 -4.5455859505605929 -9.5852406560905123 130.26884961504288 0.84804810408105047 0 0.52991925155115449 0.52991925155115449 0 -0.84804810408105047 forward_v I I I I #
coedge $-1 $135 $136 $137 $138 reversed $53 $-1 #
face $-1 $-1 $139 $29 $-1 $140 forward single #
loop $-1 $141 $142 $55 #
cone-surface $-1 71.072078638565642 -13.196410639188727 6.8964359907489978 -0.84804810408105047 0 -0.52991925155115449 0.13247981288778862 0 -0.21201202602026262 1 I I -0.70710678118654746 0.70710678118654746 0.25 forward I I I I #
loop $-1 $-1 $143 $37 #
coedge $-1 $89 $89 $144 $145 reversed $56 $-1 #
face $-1 $-1 $146 $30 $-1 $147 forward single #
loop $-1 $148 $149 $58 #
cone-surface $-1 71.072078638565642 -9.5852406560905123 6.8964359907489978 -0.84804810408105047 0 -0.52991925155115449 0.13247981288778862 0 -0.21201202602026262 1 I I -0.70710678118654746 0.70710678118654746 0.25 forward I I I I #
loop $-1 $-1 $150 $38 #
coedge $-1 $94 $94 $151 $152 reversed $59 $-1 #
face $-1 $-1 $153 $31 $-1 $154 forward single #
loop $-1 $155 $156 $61 #
cone-surface $-1 71.072078638565642 -5.9740706729923048 6.8964359907489978 -0.84804810408105047 0 -0.52991925155115449 0.13247981288778862 0 -0.21201202602026262 1 I I -0.70710678118654746 0.70710678118654746 0.25 forward I I I I #
loop $-1 $-1 $157 $39 #
coedge $-1 $99 $99 $158 $159 reversed $62 $-1 #
face $-1 $160 $161 $24 $-1 $162 reversed single #
loop $-1 $-1 $163 $64 #
plane-surface $-1 0 -49.472149667635996 0 0 1 0 0 0 1 forward_v I I I I #
coedge $-1 $164 $165 $166 $167 forward $65 $-1 #
coedge $-1 $168 $67 $169 $170 forward $41 $-1 #
coedge $-1 $67 $168 $171 $172 forward $41 $-1 #
coedge $-1 $173 $174 $67 $107 reversed $175 $-1 #
edge $-1 $176 -49.472149667635996 $177 49.472149667635996 $106 $178 forward 7 unknown #
face $-1 $179 $180 $25 $-1 $181 reversed single #
loop $-1 $-1 $182 $68 #
plane-surface $-1 0 -32.069274488834544 1.596682059938539 0 -1 0 0 0 -1 forward_v I I I I #
coedge $-1 $183 $184 $185 $186 reversed $69 $-1 #
coedge $-1 $187 $71 $188 $189 forward $44 $-1 #
coedge $-1 $71 $187 $190 $191 reversed $44 $-1 #
coedge $-1 $192 $193 $71 $115 forward $194 $-1 #
edge $-1 $195 11.683918449716909 $196 29.086793628518361 $114 $197 forward 7 unknown #
face $-1 $198 $199 $26 $-1 $200 reversed single #
loop $-1 $-1 $201 $72 #
plane-surface $-1 -163.10682074344203 23.680929952845375 130.99066317558726 0 -1 0 0.57357644374324357 0 -0.81915203911291934 forward_v I I I I #
coedge $-1 $202 $203 $204 $205 reversed $73 $-1 #
coedge $-1 $121 $75 $206 $207 reversed $47 $-1 #
coedge $-1 $75 $120 $202 $208 reversed $47 $-1 #
coedge $-1 $204 $209 $75 $123 forward $210 $-1 #
edge $-1 $211 5.5891780648268821 $212 15.805170826046407 $122 $213 forward 7 unknown #
loop $-1 $-1 $129 $76 #
plane-surface $-1 -75.964232306894132 16.933176155687327 6.538151587907592 -0.57357644374324357 0 0.81915203911291934 0.81915203911291934 0 0.57357644374324357 forward_v I I I I #
loop $-1 $-1 $214 $49 #
coedge $-1 $127 $127 $128 $215 reversed $77 $-1 #
coedge $-1 $128 $128 $127 $215 forward $79 $-1 #
coedge $-1 $129 $129 $80 $130 forward $124 $-1 #
edge $-1 $216 0 $216 6.2831853071796004 $129 $217 forward 7 unknown #
face $-1 $218 $219 $28 $-1 $220 forward single #
loop $-1 $-1 $221 $81 #
plane-surface $-1 124.29706042110752 -15.603857294587531 210.77866787249764 0 1 0 0.84804810408105047 0 0.52991925155115449 forward_v I I I I #
coedge $-1 $222 $223 $224 $225 reversed $82 $-1 #
coedge $-1 $136 $84 $226 $227 reversed $53 $-1 #
coedge $-1 $84 $135 $222 $228 reversed $53 $-1 #
coedge $-1 $224 $229 $84 $138 forward $219 $-1 #
edge $-1 $230 -13.815702096340374 $231 -6.1515150198859914 $137 $232 forward 7 unknown #
loop $-1 $-1 $144 $85 #
plane-surface $-1 -4.5455859505605929 -9.5852406560905123 130.26884961504288 0.84804810408105047 0 0.52991925155115449 0.52991925155115449 0 -0.84804810408105047 forward_v I I I I #
loop $-1 $-1 $233 $55 #
coedge $-1 $142 $142 $143 $234 reversed $86 $-1 #
coedge $-1 $143 $143 $142 $234 forward $88 $-1 #
coedge $-1 $144 $144 $89 $145 forward $139 $-1 #
edge $-1 $235 0 $235 6.2831853071796004 $144 $236 forward 7 unknown #
loop $-1 $-1 $151 $90 #
plane-surface $-1 -4.5455859505605929 -9.5852406560905123 130.26884961504288 0.84804810408105047 0 0.52991925155115449 0.52991925155115449 0 -0.84804810408105047 forward_v I I I I #
loop $-1 $-1 $237 $58 #
coedge $-1 $149 $149 $150 $238 reversed $91 $-1 #
coedge $-1 $150 $150 $149 $238 forward $93 $-1 #
coedge $-1 $151 $151 $94 $152 forward $146 $-1 #
edge $-1 $239 0 $239 6.2831853071796004 $151 $240 forward 7 unknown #
loop $-1 $-1 $158 $95 #
plane-surface $-1 -4.5455859505605929 -9.5852406560905123 130.26884961504288 0.84804810408105047 0 0.52991925155115449 0.52991925155115449 0 -0.84804810408105047 forward_v I I I I #
loop $-1 $-1 $241 $61 #
coedge $-1 $156 $156 $157 $242 reversed $96 $-1 #
coedge $-1 $157 $157 $156 $242 forward $98 $-1 #
coedge $-1 $158 $158 $99 $159 forward $153 $-1 #
edge $-1 $243 0 $243 6.2831853071796004 $158 $244 forward 7 unknown #
face $-1 $245 $246 $24 $-1 $247 reversed single #
loop $-1 $-1 $248 $100 #
plane-surface $-1 -75.964232306894132 0 0 1 0 0 0 0 -1 forward_v I I I I #
coedge $-1 $249 $171 $250 $251 forward $101 $-1 #
coedge $-1 $252 $103 $249 $253 forward $65 $-1 #
coedge $-1 $103 $252 $254 $255 forward $65 $-1 #
coedge $-1 $174 $173 $103 $167 reversed $175 $-1 #
edge $-1 $256 -49.472149667635996 $257 49.472149667635996 $166 $258 forward 7 unknown #
coedge $-1 $105 $104 $259 $260 forward $41 $-1 #
coedge $-1 $261 $262 $104 $170 reversed $246 $-1 #
edge $-1 $177 -75.964232306894132 $263 75.964232306894132 $169 $264 forward 7 unknown #
coedge $-1 $163 $265 $105 $172 reversed $101 $-1 #
edge $-1 $266 -75.964232306894132 $176 75.964232306894132 $171 $267 forward 7 unknown #
coedge $-1 $166 $106 $265 $268 forward $175 $-1 #
coedge $-1 $106 $166 $261 $269 reversed $175 $-1 #
loop $-1 $-1 $173 $245 #
vertex $-1 $107 $270 #
vertex $-1 $107 $271 #
straight-curve $-1 75.964232306894132 0 13.691466867001054 0 1 0 I I #
face $-1 $272 $273 $25 $-1 $274 reversed single #
loop $-1 $-1 $275 $108 #
plane-surface $-1 -75.964232306894132 0 0 1 0 0 0 0 -1 forward_v I I I I #
coedge $-1 $276 $188 $193 $277 reversed $109 $-1 #
coedge $-1 $278 $111 $279 $280 reversed $69 $-1 #
coedge $-1 $111 $278 $276 $281 forward $69 $-1 #
coedge $-1 $193 $192 $111 $186 forward $194 $-1 #
edge $-1 $282 -29.086793628518361 $283 -11.683918449716909 $185 $284 forward 7 unknown #
coedge $-1 $113 $112 $275 $285 reversed $44 $-1 #
coedge $-1 $182 $286 $112 $189 reversed $109 $-1 #
edge $-1 $195 -75.964232306894132 $287 75.964232306894132 $188 $288 forward 7 unknown #
coedge $-1 $289 $290 $113 $191 forward $273 $-1 #
edge $-1 $196 -75.964232306894132 $291 75.964232306894132 $190 $292 forward 7 unknown #
coedge $-1 $185 $114 $290 $293 forward $194 $-1 #
coedge $-1 $114 $185 $182 $277 forward $194 $-1 #
loop $-1 $-1 $114 $272 #
vertex $-1 $115 $294 #
vertex $-1 $293 $295 #
straight-curve $-1 75.964232306894132 -20.385356039117635 5.3548888058068691 0 -1 0 I I #
face $-1 $-1 $210 $26 $-1 $296 forward single #
loop $-1 $-1 $297 $116 #
plane-surface $-1 -75.964232306894132 0 0 1 0 0 0 0 -1 forward_v I I I I #
coedge $-1 $298 $299 $300 $301 reversed $117 $-1 #
coedge $-1 $302 $119 $121 $208 forward $73 $-1 #
coedge $-1 $119 $302 $298 $303 forward $73 $-1 #
coedge $-1 $300 $122 $119 $205 forward $210 $-1 #
edge $-1 $212 1.7188342806856163 $304 15.214341875001711 $204 $305 forward 7 unknown #
coedge $-1 $306 $307 $120 $207 forward $199 $-1 #
edge $-1 $308 -58.957179999886037 $211 -51.803864720792575 $206 $309 forward 7 unknown #
edge $-1 $212 -12.471424440672433 $308 0 $121 $310 forward 7 unknown #
coedge $-1 $122 $300 $306 $311 forward $210 $-1 #
loop $-1 $-1 $300 $198 #
vertex $-1 $207 $312 #
vertex $-1 $123 $313 #
straight-curve $-1 -81.553410371721014 10.18542235852928 13.691466867001054 1 0 0 I I #
coedge $-1 $214 $214 $-1 $314 reversed $126 $-1 #
edge $-1 $315 0 $315 6.2831853071796004 $127 $316 forward 7 unknown #
vertex $-1 $130 $317 #
ellipse-curve $-1 -70.85623592628437 16.933176155687327 10.114809227454327 -0.57357644374324357 0 0.81915203911291934 2.4574561173387579 0 1.7207293312297307 1 I I #
face $-1 $-1 $318 $28 $-1 $319 reversed single #
loop $-1 $-1 $137 $131 #
plane-surface $-1 0 0 13.691466867001054 0 0 1 1 0 0 forward_v I I I I #
coedge $-1 $320 $321 $322 $323 reversed $132 $-1 #
coedge $-1 $324 $134 $136 $228 forward $82 $-1 #
coedge $-1 $134 $324 $320 $325 forward $82 $-1 #
coedge $-1 $322 $137 $134 $225 forward $219 $-1 #
edge $-1 $231 -1.2259963104517624 $326 10.811236966542275 $224 $327 forward 7 unknown #
coedge $-1 $328 $329 $135 $227 forward $318 $-1 #
edge $-1 $330 -103.96313069287402 $230 -91.697867069247764 $226 $331 forward 7 unknown #
edge $-1 $231 137.46553077241498 $330 151.92846461378824 $136 $332 forward 7 unknown #
coedge $-1 $137 $322 $328 $333 forward $219 $-1 #
vertex $-1 $227 $334 #
vertex $-1 $138 $335 #
straight-curve $-1 62.148530210553758 -3.5666240175934938 13.691466867001054 -1 0 0 I I #
coedge $-1 $233 $233 $-1 $336 reversed $141 $-1 #
edge $-1 $337 0 $337 6.2831853071796004 $142 $338 forward 7 unknown #
vertex $-1 $145 $339 #
ellipse-curve $-1 72.132138768666934 -13.196410639188727 7.5588350551879326 0.84804810408105047 0 0.52991925155115449 0.26495962577557725 0 -0.42402405204052523 1 I I #
coedge $-1 $237 $237 $-1 $340 reversed $148 $-1 #
edge $-1 $341 0 $341 6.2831853071796004 $149 $342 forward 7 unknown #
vertex $-1 $152 $343 #
ellipse-curve $-1 72.132138768666934 -9.5852406560905123 7.5588350551879326 0.84804810408105047 0 0.52991925155115449 0.26495962577557725 0 -0.42402405204052523 1 I I #
coedge $-1 $241 $241 $-1 $344 reversed $155 $-1 #
edge $-1 $345 0 $345 6.2831853071796004 $156 $346 forward 7 unknown #
vertex $-1 $159 $347 #
ellipse-curve $-1 72.132138768666934 -5.9740706729923048 7.5588350551879326 0.84804810408105047 0 0.52991925155115449 0.26495962577557725 0 -0.42402405204052523 1 I I #
face $-1 $-1 $175 $24 $-1 $348 reversed single #
loop $-1 $-1 $261 $160 #
plane-surface $-1 0 49.472149667635996 0 0 -1 0 0 0 -1 forward_v I I I I #
coedge $-1 $349 $259 $262 $350 forward $161 $-1 #
coedge $-1 $265 $163 $164 $253 reversed $101 $-1 #
coedge $-1 $259 $349 $163 $251 reversed $161 $-1 #
edge $-1 $266 -13.691466867001054 $351 13.691466867001054 $250 $352 forward 7 unknown #
coedge $-1 $165 $164 $349 $353 forward $65 $-1 #
edge $-1 $257 -75.964232306894132 $351 75.964232306894132 $249 $354 forward 7 unknown #
coedge $-1 $262 $261 $165 $255 reversed $246 $-1 #
edge $-1 $355 -75.964232306894132 $256 75.964232306894132 $254 $356 forward 7 unknown #
vertex $-1 $167 $357 #
vertex $-1 $268 $358 #
straight-curve $-1 75.964232306894132 0 -13.691466867001054 0 -1 0 I I #
coedge $-1 $248 $250 $168 $260 reversed $161 $-1 #
edge $-1 $263 -49.472149667635996 $266 49.472149667635996 $259 $359 forward 7 unknown #
coedge $-1 $254 $169 $174 $269 forward $246 $-1 #
coedge $-1 $169 $254 $248 $350 reversed $246 $-1 #
vertex $-1 $170 $360 #
straight-curve $-1 0 49.472149667635996 13.691466867001054 -1 0 0 I I #
coedge $-1 $171 $249 $173 $268 reversed $101 $-1 #
vertex $-1 $260 $361 #
straight-curve $-1 0 -49.472149667635996 13.691466867001054 1 0 0 I I #
edge $-1 $176 -13.691466867001054 $257 13.691466867001054 $173 $362 forward 7 unknown #
edge $-1 $177 -13.691466867001054 $256 13.691466867001054 $174 $363 forward 7 unknown #
point $-1 75.964232306894132 -49.472149667635996 13.691466867001054 #
point $-1 75.964232306894132 49.472149667635996 13.691466867001054 #
face $-1 $-1 $194 $25 $-1 $364 reversed single #
loop $-1 $-1 $190 $179 #
plane-surface $-1 0 -49.472149667635996 0 0 1 0 0 0 1 forward_v I I I I #
coedge $-1 $365 $366 $187 $285 forward $180 $-1 #
coedge $-1 $286 $182 $184 $281 reversed $109 $-1 #
edge $-1 $283 -2.9598657158990607 $195 4.5565477758375996 $193 $367 forward 7 unknown #
coedge $-1 $184 $183 $368 $369 reversed $69 $-1 #
coedge $-1 $290 $289 $183 $280 forward $273 $-1 #
edge $-1 $370 -75.964232306894132 $282 75.964232306894132 $279 $371 forward 7 unknown #
edge $-1 $372 -75.964232306894132 $283 75.964232306894132 $276 $373 forward 7 unknown #
vertex $-1 $280 $374 #
vertex $-1 $186 $375 #
straight-curve $-1 75.964232306894132 -20.385356039117635 -2.1615246859297912 0 1 0 I I #
edge $-1 $291 -29.086793628518361 $287 -11.683918449716909 $275 $376 forward 7 unknown #
coedge $-1 $188 $276 $365 $377 reversed $109 $-1 #
vertex $-1 $285 $378 #
straight-curve $-1 0 -32.069274488834544 5.3548888058068691 -1 0 0 I I #
coedge $-1 $279 $190 $366 $379 forward $273 $-1 #
coedge $-1 $190 $279 $192 $293 reversed $273 $-1 #
vertex $-1 $379 $380 #
straight-curve $-1 0 -49.472149667635996 5.3548888058068691 -1 0 0 I I #
edge $-1 $196 -5.3548888058068691 $282 2.1615246859297912 $192 $381 forward 7 unknown #
point $-1 75.964232306894132 -32.069274488834544 5.3548888058068691 #
point $-1 75.964232306894132 -49.472149667635996 5.3548888058068691 #
plane-surface $-1 0 0 13.691466867001054 0 0 1 1 0 0 forward_v I I I I #
coedge $-1 $307 $306 $299 $382 forward $199 $-1 #
coedge $-1 $299 $201 $203 $303 reversed $117 $-1 #
coedge $-1 $201 $298 $297 $382 reversed $117 $-1 #
coedge $-1 $209 $204 $201 $301 forward $210 $-1 #
edge $-1 $304 -15.805170826046407 $383 -5.5891780648268821 $300 $384 forward 7 unknown #
coedge $-1 $203 $202 $307 $385 reversed $73 $-1 #
edge $-1 $386 0 $304 12.471424440672433 $298 $387 forward 7 unknown #
vertex $-1 $205 $388 #
straight-curve $-1 -65.748239545674608 8.4665880778436637 13.691466867001056 0 1 0 I I #
coedge $-1 $297 $206 $209 $311 reversed $199 $-1 #
coedge $-1 $206 $297 $302 $385 forward $199 $-1 #
vertex $-1 $207 $389 #
straight-curve $-1 -75.964232306894132 10.18542235852928 65.495331587793629 0 0 1 I I #
straight-curve $-1 -75.964232306894132 10.18542235852928 6.538151587907592 -0.81915203911291934 0 -0.57357644374324357 I I #
edge $-1 $383 -23.680929952845375 $211 -10.18542235852928 $306 $390 forward 7 unknown #
point $-1 -75.964232306894132 10.18542235852928 13.691466867001054 #
point $-1 -65.748239545674608 10.18542235852928 13.691466867001054 #
edge $-1 $391 1 $391 0 $214 $-1 forward 7 unknown #
vertex $-1 $215 $392 #
ellipse-curve $-1 -64.099352427927258 16.933176155687327 0.4649797128285158 -0.57357644374324357 0 0.81915203911291934 2.4574561173387579 0 1.7207293312297307 1 I I #
point $-1 -68.398779808945591 16.933176155687327 11.835538558684039 #
loop $-1 $-1 $226 $218 #
plane-surface $-1 75.964232306894132 0 0 -1 0 0 0 0 1 forward_v I I I I #
coedge $-1 $321 $221 $223 $325 reversed $132 $-1 #
coedge $-1 $221 $320 $393 $394 reversed $132 $-1 #
coedge $-1 $229 $224 $221 $323 forward $219 $-1 #
edge $-1 $326 6.1515150198859914 $395 13.815702096340374 $322 $396 forward 7 unknown #
coedge $-1 $223 $222 $329 $397 reversed $82 $-1 #
edge $-1 $398 -151.92846461378824 $326 -137.46553077241498 $320 $399 forward 7 unknown #
vertex $-1 $225 $400 #
straight-curve $-1 68.30004523043975 -4.7926203280452562 13.691466867001068 0 -1 0 I I #
coedge $-1 $393 $226 $229 $333 reversed $318 $-1 #
coedge $-1 $226 $393 $324 $397 forward $318 $-1 #
vertex $-1 $227 $401 #
straight-curve $-1 75.964232306894132 -3.5666240175934938 105.38933393624882 0 0 1 I I #
straight-curve $-1 -4.5455859505605929 -3.5666240175934938 130.26884961504288 0.52991925155115449 0 -0.84804810408105047 I I #
edge $-1 $395 -15.603857294587531 $230 -3.5666240175934938 $328 $402 forward 7 unknown #
point $-1 75.964232306894132 -3.5666240175934938 13.691466867001054 #
point $-1 68.30004523043975 -3.5666240175934938 13.691466867001054 #
edge $-1 $403 1 $403 0 $233 $-1 forward 7 unknown #
vertex $-1 $234 $404 #
ellipse-curve $-1 71.284090664585904 -13.196410639188727 7.028915803636786 0.84804810408105047 0 0.52991925155115449 0.26495962577557725 0 -0.42402405204052523 1 I I #
point $-1 72.397098394442537 -13.196410639188727 7.1348110031474157 #
edge $-1 $405 1 $405 0 $237 $-1 forward 7 unknown #
vertex $-1 $238 $406 #
ellipse-curve $-1 71.284090664585904 -9.5852406560905123 7.028915803636786 0.84804810408105047 0 0.52991925155115449 0.26495962577557725 0 -0.42402405204052523 1 I I #
point $-1 72.397098394442537 -9.5852406560905123 7.1348110031474157 #
edge $-1 $407 1 $407 0 $241 $-1 forward 7 unknown #
vertex $-1 $242 $408 #
ellipse-curve $-1 71.284090664585904 -5.9740706729923048 7.028915803636786 0.84804810408105047 0 0.52991925155115449 0.26495962577557725 0 -0.42402405204052523 1 I I #
point $-1 72.397098394442537 -5.9740706729923048 7.1348110031474157 #
plane-surface $-1 75.964232306894132 0 0 -1 0 0 0 0 1 forward_v I I I I #
coedge $-1 $250 $248 $252 $353 reversed $161 $-1 #
edge $-1 $263 -13.691466867001054 $355 13.691466867001054 $262 $409 forward 7 unknown #
vertex $-1 $353 $410 #
straight-curve $-1 -75.964232306894132 -49.472149667635996 0 0 0 -1 I I #
edge $-1 $351 -49.472149667635996 $355 49.472149667635996 $349 $411 forward 7 unknown #
straight-curve $-1 0 -49.472149667635996 -13.691466867001054 -1 0 0 I I #
vertex $-1 $255 $412 #
straight-curve $-1 0 49.472149667635996 -13.691466867001054 1 0 0 I I #
point $-1 75.964232306894132 49.472149667635996 -13.691466867001054 #
point $-1 75.964232306894132 -49.472149667635996 -13.691466867001054 #
straight-curve $-1 -75.964232306894132 0 13.691466867001054 0 -1 0 I I #
point $-1 -75.964232306894132 49.472149667635996 13.691466867001054 #
point $-1 -75.964232306894132 -49.472149667635996 13.691466867001054 #
straight-curve $-1 75.964232306894132 -49.472149667635996 0 0 0 -1 I I #
straight-curve $-1 75.964232306894132 49.472149667635996 0 0 0 -1 I I #
plane-surface $-1 75.964232306894132 0 0 -1 0 0 0 0 1 forward_v I I I I #
coedge $-1 $368 $275 $286 $377 forward $180 $-1 #
coedge $-1 $275 $368 $289 $379 reversed $180 $-1 #
straight-curve $-1 75.964232306894132 -32.069274488834544 0.79834102996926948 0 0 1 I I #
coedge $-1 $366 $365 $278 $369 forward $180 $-1 #
edge $-1 $372 11.683918449716909 $370 29.086793628518361 $368 $413 forward 7 unknown #
vertex $-1 $280 $414 #
straight-curve $-1 0 -49.472149667635996 -2.1615246859297912 1 0 0 I I #
vertex $-1 $369 $415 #
straight-curve $-1 0 -32.069274488834544 -2.1615246859297912 1 0 0 I I #
point $-1 75.964232306894132 -49.472149667635996 -2.1615246859297912 #
point $-1 75.964232306894132 -32.069274488834544 -2.1615246859297912 #
straight-curve $-1 -75.964232306894132 -20.385356039117635 5.3548888058068691 0 1 0 I I #
edge $-1 $287 -4.5565477758375996 $372 2.9598657158990607 $365 $416 forward 7 unknown #
point $-1 -75.964232306894132 -32.069274488834544 5.3548888058068691 #
edge $-1 $291 -5.3548888058068691 $370 2.1615246859297912 $366 $417 forward 7 unknown #
point $-1 -75.964232306894132 -49.472149667635996 5.3548888058068691 #
straight-curve $-1 75.964232306894132 -49.472149667635996 0 0 0 -1 I I #
edge $-1 $383 51.803864720792575 $386 58.957179999886037 $297 $418 forward 7 unknown #
vertex $-1 $311 $419 #
straight-curve $-1 -81.553410371721014 23.680929952845375 13.691466867001054 -1 0 0 I I #
edge $-1 $386 -15.214341875001711 $308 -1.7188342806856163 $307 $420 forward 7 unknown #
vertex $-1 $385 $421 #
straight-curve $-1 -75.964232306894132 23.680929952845375 6.538151587907592 0.81915203911291934 0 0.57357644374324357 I I #
point $-1 -65.748239545674608 23.680929952845375 13.691466867001054 #
point $-1 -75.964232306894132 10.18542235852928 6.538151587907592 #
straight-curve $-1 -75.964232306894132 0 13.691466867001054 0 -1 0 I I #
vertex $-1 $314 $422 #
point $-1 -61.6418963105885 16.933176155687327 2.1857090440582465 #
coedge $-1 $329 $328 $321 $394 forward $318 $-1 #
edge $-1 $395 91.697867069247764 $398 103.96313069287402 $393 $423 forward 7 unknown #
vertex $-1 $333 $424 #
straight-curve $-1 62.148530210553758 -15.603857294587531 13.691466867001054 1 0 0 I I #
edge $-1 $398 -10.811236966542275 $330 1.2259963104517624 $329 $425 forward 7 unknown #
vertex $-1 $397 $426 #
straight-curve $-1 -4.5455859505605929 -15.603857294587531 130.26884961504288 -0.52991925155115449 0 0.84804810408105047 I I #
point $-1 68.30004523043975 -15.603857294587531 13.691466867001054 #
point $-1 75.964232306894132 -3.5666240175934938 1.4262032433748004 #
straight-curve $-1 75.964232306894132 0 13.691466867001054 0 1 0 I I #
vertex $-1 $336 $427 #
point $-1 71.549050290361478 -13.196410639188727 6.6048917515962611 #
vertex $-1 $340 $428 #
point $-1 71.549050290361478 -9.5852406560905123 6.6048917515962611 #
vertex $-1 $344 $429 #
point $-1 71.549050290361478 -5.9740706729923048 6.6048917515962611 #
straight-curve $-1 -75.964232306894132 49.472149667635996 0 0 0 -1 I I #
point $-1 -75.964232306894132 -49.472149667635996 -13.691466867001054 #
straight-curve $-1 -75.964232306894132 0 -13.691466867001054 0 1 0 I I #
point $-1 -75.964232306894132 49.472149667635996 -13.691466867001054 #
straight-curve $-1 -75.964232306894132 -20.385356039117635 -2.1615246859297912 0 -1 0 I I #
point $-1 -75.964232306894132 -49.472149667635996 -2.1615246859297912 #
point $-1 -75.964232306894132 -32.069274488834544 -2.1615246859297912 #
straight-curve $-1 -75.964232306894132 -32.069274488834544 0.79834102996926948 0 0 -1 I I #
straight-curve $-1 -75.964232306894132 -49.472149667635996 0 0 0 -1 I I #
straight-curve $-1 -75.964232306894132 23.680929952845375 65.495331587793629 0 0 -1 I I #
point $-1 -75.964232306894132 23.680929952845375 13.691466867001054 #
straight-curve $-1 -75.964232306894132 8.4665880778436637 6.5381515879075884 0 -1 0 I I #
point $-1 -75.964232306894132 23.680929952845375 6.538151587907592 #
point $-1 -62.378623096697524 16.933176155687327 -1.9924764045102421 #
straight-curve $-1 75.964232306894132 -15.603857294587531 105.38933393624882 0 0 -1 I I #
point $-1 75.964232306894132 -15.603857294587531 13.691466867001054 #
straight-curve $-1 75.964232306894132 -4.7926203280452562 1.4262032433748004 0 1 0 I I #
point $-1 75.964232306894132 -15.603857294587531 1.4262032433748004 #
point $-1 70.860066612545381 -13.196410639188727 6.7639561778612096 #
point $-1 70.860066612545381 -9.5852406560905123 6.7639561778612096 #
point $-1 70.860066612545381 -5.9740706729923048 6.7639561778612096 #
End-of-ACIS-data 