500 0 6 0           
7 Unknown 11 ACIS 5.0 NT 24 Fri Mar 26 19:29:57 1999 
-1 9.9999999999999995e-007 1e-010 
body $-1 $6 $-1 $7 #
body $-1 $8 $-1 $9 #
body $-1 $10 $-1 $11 #
body $-1 $12 $-1 $13 #
body $-1 $14 $-1 $15 #
body $-1 $16 $-1 $17 #
lump $-1 $-1 $18 $0 #
transform $-1 1 0 0 0 1 0 0 0 1 43.449812311166724 28.383268000062916 11.553489494248456 1 rotate no_reflect no_shear #
lump $-1 $-1 $19 $1 #
transform $-1 1 0 0 0 1 0 0 0 1 43.449812311166724 28.383268000062916 11.553489494248456 1 rotate no_reflect no_shear #
lump $-1 $-1 $20 $2 #
transform $-1 1 0 0 0 1 0 0 0 1 43.449812311166724 28.383268000062916 11.553489494248456 1 rotate no_reflect no_shear #
lump $-1 $-1 $21 $3 #
transform $-1 1 0 0 0 1 0 0 0 1 43.449812311166724 28.383268000062916 11.553489494248456 1 rotate no_reflect no_shear #
lump $-1 $-1 $22 $4 #
transform $-1 1 0 0 0 1 0 0 0 1 43.449812311166724 28.383268000062916 11.553489494248456 1 rotate no_reflect no_shear #
lump $-1 $-1 $23 $5 #
transform $-1 1 0 0 0 1 0 0 0 1 43.449812311166724 28.383268000062916 11.553489494248456 1 rotate no_reflect no_shear #
shell $-1 $-1 $-1 $24 $-1 $6 #
shell $-1 $-1 $-1 $25 $-1 $8 #
shell $-1 $-1 $-1 $26 $-1 $10 #
shell $-1 $-1 $-1 $27 $-1 $12 #
shell $-1 $-1 $-1 $28 $-1 $14 #
shell $-1 $-1 $-1 $29 $-1 $16 #
face $-1 $30 $31 $18 $-1 $32 forward single #
face $-1 $33 $34 $19 $-1 $35 reversed single #
face $-1 $36 $37 $20 $-1 $38 forward single #
face $-1 $39 $40 $21 $-1 $41 reversed single #
face $-1 $42 $43 $22 $-1 $44 forward single #
face $-1 $45 $46 $23 $-1 $47 forward single #
face $-1 $48 $49 $18 $-1 $50 reversed single #
loop $-1 $-1 $51 $24 #
plane-surface $-1 0 0 11.553489494248456 0 0 1 1 0 0 forward_v I I I I #
face $-1 $52 $53 $19 $-1 $54 reversed single #
loop $-1 $-1 $55 $25 #
plane-surface $-1 23.583282941177874 -90.89362734135473 61.282844574395 -1 0 0 0 -0.71933980857756763 0.69465836192734942 forward_v I I I I #
face $-1 $56 $57 $20 $-1 $58 forward single #
loop $-1 $59 $60 $26 #
cone-surface $-1 16.566629544634431 -20.574950922069736 3.6544051606057613 0 0.71933980857756763 -0.69465836192734942 2.5 0 0 1 I I 0 1 2.5 forward I I I I #
face $-1 $61 $62 $21 $-1 $63 reversed single #
loop $-1 $-1 $64 $27 #
plane-surface $-1 32.370885895571838 28.103773593183153 108.16775642445381 1 0 0 0 -0.54463904215088732 -0.83867056331134215 forward_v I I I I #
face $-1 $65 $66 $22 $-1 $67 forward single #
loop $-1 $68 $69 $28 #
cone-surface $-1 35.536293442884656 22.483387034330026 7.3931881395487986 0 -0.54463904215088732 -0.83867056331134215 1 0 0 1 I I 0 1 1 forward I I I I #
face $-1 $70 $71 $23 $-1 $72 forward single #
loop $-1 $73 $74 $29 #
cone-surface $-1 40.2844047638539 22.483387034330026 7.3931881395487986 0 -0.54463904215088732 -0.83867056331134215 1 0 0 1 I I 0 1 1 forward I I I I #
face $-1 $75 $76 $18 $-1 $77 reversed single #
loop $-1 $-1 $78 $30 #
plane-surface $-1 0 0 -11.553489494248456 0 0 1 1 0 0 forward_v I I I I #
coedge $-1 $79 $80 $81 $82 forward $31 $-1 #
face $-1 $83 $84 $19 $-1 $85 reversed single #
loop $-1 $-1 $86 $33 #
plane-surface $-1 16.566629544634438 -28.383268000062905 0.91729368214328844 0 -0.71933980857756763 0.69465836192734942 1 0 0 forward_v I I I I #
coedge $-1 $87 $88 $89 $90 reversed $34 $-1 #
face $-1 $-1 $91 $20 $-1 $92 forward single #
loop $-1 $93 $94 $36 #
cone-surface $-1 16.566629544634431 -17.003086412659279 0.20509578060646305 0 0.71933980857756763 -0.69465836192734942 1.25 0 0 1 I I -0.70710678118654746 0.70710678118654746 1.25 forward I I I I #
loop $-1 $-1 $95 $26 #
coedge $-1 $60 $60 $96 $97 reversed $37 $-1 #
face $-1 $98 $99 $21 $-1 $100 forward single #
loop $-1 $-1 $101 $39 #
plane-surface $-1 37.910349103369285 -19.225154724396202 35.287599290897248 0 0.54463904215088732 0.83867056331134215 1 0 0 forward_v I I I I #
coedge $-1 $102 $103 $104 $105 reversed $40 $-1 #
face $-1 $-1 $106 $22 $-1 $107 forward single #
loop $-1 $108 $109 $42 #
cone-surface $-1 35.536293442884656 21.841736188550069 6.4051325015352667 0 -0.54463904215088732 -0.83867056331134215 0.5 0 0 1 I I -0.70710678118654746 0.70710678118654746 0.5 forward I I I I #
loop $-1 $-1 $110 $28 #
coedge $-1 $69 $69 $111 $112 reversed $43 $-1 #
face $-1 $-1 $113 $23 $-1 $114 forward single #
loop $-1 $115 $116 $45 #
cone-surface $-1 40.2844047638539 21.841736188550069 6.4051325015352667 0 -0.54463904215088732 -0.83867056331134215 0.5 0 0 1 I I -0.70710678118654746 0.70710678118654746 0.5 forward I I I I #
loop $-1 $-1 $117 $29 #
coedge $-1 $74 $74 $118 $119 reversed $46 $-1 #
face $-1 $120 $121 $18 $-1 $122 reversed single #
loop $-1 $-1 $123 $48 #
plane-surface $-1 0 -28.383268000062916 0 0 1 0 0 0 1 forward_v I I I I #
coedge $-1 $124 $125 $126 $127 forward $49 $-1 #
coedge $-1 $128 $51 $129 $130 forward $31 $-1 #
coedge $-1 $51 $128 $131 $132 forward $31 $-1 #
coedge $-1 $133 $134 $51 $82 reversed $135 $-1 #
edge $-1 $136 -28.383268000062916 $137 28.383268000062916 $81 $138 forward 7 unknown #
face $-1 $139 $140 $19 $-1 $141 reversed single #
loop $-1 $-1 $142 $52 #
plane-surface $-1 9.5499761480910017 -90.89362734135473 61.282844574395 1 0 0 0 0.71933980857756763 -0.69465836192734942 forward_v I I I I #
coedge $-1 $143 $144 $145 $146 reversed $53 $-1 #
coedge $-1 $88 $55 $147 $148 reversed $34 $-1 #
coedge $-1 $55 $87 $143 $149 reversed $34 $-1 #
coedge $-1 $145 $150 $55 $90 forward $151 $-1 #
edge $-1 $152 17.063545670614449 $153 27.334800329223825 $89 $154 forward 7 unknown #
loop $-1 $-1 $96 $56 #
plane-surface $-1 16.566629544634438 -28.383268000062905 0.91729368214328844 0 -0.71933980857756763 0.69465836192734942 1 0 0 forward_v I I I I #
loop $-1 $-1 $155 $36 #
coedge $-1 $94 $94 $95 $156 reversed $57 $-1 #
coedge $-1 $95 $95 $94 $156 forward $59 $-1 #
coedge $-1 $96 $96 $60 $97 forward $91 $-1 #
edge $-1 $157 -4.4097278502639976e-016 $157 6.2831853071796004 $96 $158 forward 7 unknown #
face $-1 $159 $160 $21 $-1 $161 reversed single #
loop $-1 $-1 $104 $61 #
plane-surface $-1 0 0 11.553489494248456 0 0 1 1 0 0 forward_v I I I I #
coedge $-1 $162 $163 $164 $165 reversed $62 $-1 #
coedge $-1 $103 $64 $166 $167 reversed $40 $-1 #
coedge $-1 $64 $102 $162 $168 reversed $40 $-1 #
coedge $-1 $164 $169 $64 $105 forward $99 $-1 #
edge $-1 $170 -14.33138120347134 $171 -3.2702819214145737 $104 $172 forward 7 unknown #
loop $-1 $-1 $111 $65 #
plane-surface $-1 37.910349103369285 -19.225154724396202 35.287599290897248 0 0.54463904215088732 0.83867056331134215 1 0 0 forward_v I I I I #
loop $-1 $-1 $173 $42 #
coedge $-1 $109 $109 $110 $174 reversed $66 $-1 #
coedge $-1 $110 $110 $109 $174 forward $68 $-1 #
coedge $-1 $111 $111 $69 $112 forward $106 $-1 #
edge $-1 $175 -1.374073411597558e-015 $175 6.2831853071795987 $111 $176 forward 7 unknown #
loop $-1 $-1 $118 $70 #
plane-surface $-1 37.910349103369285 -19.225154724396202 35.287599290897248 0 0.54463904215088732 0.83867056331134215 1 0 0 forward_v I I I I #
loop $-1 $-1 $177 $45 #
coedge $-1 $116 $116 $117 $178 reversed $71 $-1 #
coedge $-1 $117 $117 $116 $178 forward $73 $-1 #
coedge $-1 $118 $118 $74 $119 forward $113 $-1 #
edge $-1 $179 -1.374073411597558e-015 $179 6.2831853071795987 $118 $180 forward 7 unknown #
face $-1 $181 $182 $18 $-1 $183 reversed single #
loop $-1 $-1 $184 $75 #
plane-surface $-1 -43.449812311166724 0 0 1 0 0 0 0 -1 forward_v I I I I #
coedge $-1 $185 $131 $186 $187 forward $76 $-1 #
coedge $-1 $188 $78 $185 $189 forward $49 $-1 #
coedge $-1 $78 $188 $190 $191 forward $49 $-1 #
coedge $-1 $134 $133 $78 $127 reversed $135 $-1 #
edge $-1 $192 -28.383268000062916 $193 28.383268000062916 $126 $194 forward 7 unknown #
coedge $-1 $80 $79 $195 $196 forward $31 $-1 #
coedge $-1 $197 $198 $79 $130 reversed $182 $-1 #
edge $-1 $137 -43.449812311166724 $199 43.449812311166724 $129 $200 forward 7 unknown #
coedge $-1 $123 $201 $80 $132 reversed $76 $-1 #
edge $-1 $202 -43.449812311166724 $136 43.449812311166724 $131 $203 forward 7 unknown #
coedge $-1 $126 $81 $201 $204 forward $135 $-1 #
coedge $-1 $81 $126 $197 $205 reversed $135 $-1 #
loop $-1 $-1 $133 $181 #
vertex $-1 $82 $206 #
vertex $-1 $82 $207 #
straight-curve $-1 43.449812311166724 0 11.553489494248456 0 1 0 I I #
face $-1 $-1 $151 $19 $-1 $208 forward single #
loop $-1 $-1 $209 $83 #
plane-surface $-1 0 -28.383268000062916 0 0 1 0 0 0 1 forward_v I I I I #
coedge $-1 $210 $211 $212 $213 reversed $84 $-1 #
coedge $-1 $214 $86 $88 $149 forward $53 $-1 #
coedge $-1 $86 $214 $210 $215 forward $53 $-1 #
coedge $-1 $212 $89 $86 $146 forward $151 $-1 #
edge $-1 $153 -15.299968168860655 $216 -1.2666613757737828 $145 $217 forward 7 unknown #
coedge $-1 $218 $219 $87 $148 forward $140 $-1 #
edge $-1 $220 -29.724128605054222 $152 -19.087932792949044 $147 $221 forward 7 unknown #
edge $-1 $153 -14.786051995561497 $220 1.5310180211858787e-014 $88 $222 forward 7 unknown #
coedge $-1 $89 $212 $218 $223 forward $151 $-1 #
loop $-1 $-1 $212 $139 #
vertex $-1 $148 $224 #
vertex $-1 $90 $225 #
straight-curve $-1 23.583282941177874 -45.446813670677365 11.553489494248456 0 1 0 I I #
coedge $-1 $155 $155 $-1 $226 reversed $93 $-1 #
edge $-1 $227 0 $227 6.2831853071796004 $94 $228 forward 7 unknown #
vertex $-1 $97 $229 #
ellipse-curve $-1 16.566629544634431 -23.247640670758226 6.235391588195867 0 -0.71933980857756763 0.69465836192734942 2.5 0 0 1 I I #
face $-1 $-1 $230 $21 $-1 $231 reversed single #
loop $-1 $-1 $166 $98 #
plane-surface $-1 0 28.383268000062916 0 0 -1 0 0 0 -1 forward_v I I I I #
coedge $-1 $232 $101 $103 $168 forward $62 $-1 #
coedge $-1 $101 $232 $233 $234 reversed $62 $-1 #
coedge $-1 $235 $104 $101 $165 forward $99 $-1 #
edge $-1 $171 13.415711343887196 $236 24.494637759482089 $164 $237 forward 7 unknown #
coedge $-1 $238 $239 $102 $167 forward $160 $-1 #
edge $-1 $240 -49.713550714662055 $170 -42.530388717978454 $166 $241 forward 7 unknown #
edge $-1 $171 43.577687164912192 $240 56.766536000125832 $103 $242 forward 7 unknown #
coedge $-1 $104 $235 $238 $243 forward $99 $-1 #
vertex $-1 $167 $244 #
vertex $-1 $105 $245 #
straight-curve $-1 32.370885895571838 14.051886796591576 11.553489494248453 0 -1 0 I I #
coedge $-1 $173 $173 $-1 $246 reversed $108 $-1 #
edge $-1 $247 0 $247 6.2831853071796004 $109 $248 forward 7 unknown #
vertex $-1 $112 $249 #
ellipse-curve $-1 35.536293442884656 22.852718359034533 7.961908495906652 0 0.54463904215088732 0.83867056331134215 1 0 0 1 I I #
coedge $-1 $177 $177 $-1 $250 reversed $115 $-1 #
edge $-1 $251 0 $251 6.2831853071796004 $116 $252 forward 7 unknown #
vertex $-1 $119 $253 #
ellipse-curve $-1 40.2844047638539 22.852718359034533 7.961908495906652 0 0.54463904215088732 0.83867056331134215 1 0 0 1 I I #
face $-1 $-1 $135 $18 $-1 $254 reversed single #
loop $-1 $-1 $197 $120 #
plane-surface $-1 0 28.383268000062916 0 0 -1 0 0 0 -1 forward_v I I I I #
coedge $-1 $255 $195 $198 $256 forward $121 $-1 #
coedge $-1 $201 $123 $124 $189 reversed $76 $-1 #
coedge $-1 $195 $255 $123 $187 reversed $121 $-1 #
edge $-1 $202 -11.553489494248456 $257 11.553489494248456 $186 $258 forward 7 unknown #
coedge $-1 $125 $124 $255 $259 forward $49 $-1 #
edge $-1 $193 -43.449812311166724 $257 43.449812311166724 $185 $260 forward 7 unknown #
coedge $-1 $198 $197 $125 $191 reversed $182 $-1 #
edge $-1 $261 -43.449812311166724 $192 43.449812311166724 $190 $262 forward 7 unknown #
vertex $-1 $127 $263 #
vertex $-1 $204 $264 #
straight-curve $-1 43.449812311166724 0 -11.553489494248456 0 -1 0 I I #
coedge $-1 $184 $186 $128 $196 reversed $121 $-1 #
edge $-1 $199 -28.383268000062916 $202 28.383268000062916 $195 $265 forward 7 unknown #
coedge $-1 $190 $129 $134 $205 forward $182 $-1 #
coedge $-1 $129 $190 $184 $256 reversed $182 $-1 #
vertex $-1 $130 $266 #
straight-curve $-1 0 28.383268000062916 11.553489494248456 -1 0 0 I I #
coedge $-1 $131 $185 $133 $204 reversed $76 $-1 #
vertex $-1 $196 $267 #
straight-curve $-1 0 -28.383268000062916 11.553489494248456 1 0 0 I I #
edge $-1 $136 -11.553489494248456 $193 11.553489494248456 $133 $268 forward 7 unknown #
edge $-1 $137 -11.553489494248456 $192 11.553489494248456 $134 $269 forward 7 unknown #
point $-1 43.449812311166724 -28.383268000062916 11.553489494248456 #
point $-1 43.449812311166724 28.383268000062916 11.553489494248456 #
plane-surface $-1 0 0 11.553489494248456 0 0 1 1 0 0 forward_v I I I I #
coedge $-1 $219 $218 $211 $270 forward $140 $-1 #
coedge $-1 $211 $142 $144 $215 reversed $84 $-1 #
coedge $-1 $142 $210 $209 $270 reversed $84 $-1 #
coedge $-1 $150 $145 $142 $213 forward $151 $-1 #
edge $-1 $216 -27.334800329223825 $271 -17.063545670614449 $212 $272 forward 7 unknown #
coedge $-1 $144 $143 $219 $273 reversed $53 $-1 #
edge $-1 $274 -1.5310180211858787e-014 $216 14.786051995561497 $210 $275 forward 7 unknown #
vertex $-1 $146 $276 #
straight-curve $-1 8.2833147723172189 -18.11201334145354 11.553489494248456 -1 0 0 I I #
coedge $-1 $209 $147 $150 $223 reversed $140 $-1 #
coedge $-1 $147 $209 $214 $273 forward $140 $-1 #
vertex $-1 $148 $277 #
straight-curve $-1 23.583282941177874 -28.383268000062916 30.6414222871975 0 0 1 I I #
straight-curve $-1 23.583282941177874 -28.383268000062905 0.91729368214328844 0 -0.69465836192734942 -0.71933980857756763 I I #
edge $-1 $271 9.5499761480910017 $152 23.583282941177874 $218 $278 forward 7 unknown #
point $-1 23.583282941177874 -28.383268000062916 11.553489494248456 #
point $-1 23.583282941177874 -18.11201334145354 11.553489494248456 #
edge $-1 $279 1 $279 0 $155 $-1 forward 7 unknown #
vertex $-1 $156 $280 #
ellipse-curve $-1 16.566629544634431 -17.902261173381238 1.0734187330156497 0 -0.71933980857756763 0.69465836192734942 2.5 0 0 1 I I #
point $-1 19.066629544634431 -23.247640670758233 6.2353915881958724 #
loop $-1 $-1 $233 $159 #
plane-surface $-1 43.449812311166724 0 0 -1 0 0 0 0 1 forward_v I I I I #
coedge $-1 $163 $162 $239 $281 reversed $62 $-1 #
coedge $-1 $282 $283 $163 $234 forward $230 $-1 #
edge $-1 $236 25.90639935488435 $284 39.09524819009799 $233 $285 forward 7 unknown #
coedge $-1 $169 $164 $283 $286 forward $99 $-1 #
vertex $-1 $286 $287 #
straight-curve $-1 18.955174551684642 17.322168718006147 11.553489494248456 1 0 0 I I #
coedge $-1 $288 $166 $169 $243 reversed $160 $-1 #
coedge $-1 $166 $288 $232 $281 forward $160 $-1 #
vertex $-1 $167 $289 #
straight-curve $-1 32.370885895571838 28.383268000062916 54.083878212226907 0 0 1 I I #
straight-curve $-1 32.370885895571838 -19.225154724396202 35.287599290897248 0 0.83867056331134215 -0.54463904215088732 I I #
edge $-1 $290 -43.449812311166724 $170 -32.370885895571838 $238 $291 forward 7 unknown #
point $-1 32.370885895571838 28.383268000062916 11.553489494248456 #
point $-1 32.370885895571838 17.32216871800615 11.553489494248456 #
edge $-1 $292 1 $292 0 $173 $-1 forward 7 unknown #
vertex $-1 $174 $293 #
ellipse-curve $-1 35.536293442884656 22.114055709625511 6.8244677831909382 0 0.54463904215088732 0.83867056331134215 1 0 0 1 I I #
point $-1 36.536293442884656 22.852718359034537 7.9619084959066599 #
edge $-1 $294 1 $294 0 $177 $-1 forward 7 unknown #
vertex $-1 $178 $295 #
ellipse-curve $-1 40.2844047638539 22.114055709625511 6.8244677831909382 0 0.54463904215088732 0.83867056331134215 1 0 0 1 I I #
point $-1 41.2844047638539 22.852718359034537 7.9619084959066599 #
plane-surface $-1 43.449812311166724 0 0 -1 0 0 0 0 1 forward_v I I I I #
coedge $-1 $186 $184 $188 $259 reversed $121 $-1 #
edge $-1 $199 -11.553489494248456 $261 11.553489494248456 $198 $296 forward 7 unknown #
vertex $-1 $259 $297 #
straight-curve $-1 -43.449812311166724 -28.383268000062916 0 0 0 -1 I I #
edge $-1 $257 -28.383268000062916 $261 28.383268000062916 $255 $298 forward 7 unknown #
straight-curve $-1 0 -28.383268000062916 -11.553489494248456 -1 0 0 I I #
vertex $-1 $191 $299 #
straight-curve $-1 0 28.383268000062916 -11.553489494248456 1 0 0 I I #
point $-1 43.449812311166724 28.383268000062916 -11.553489494248456 #
point $-1 43.449812311166724 -28.383268000062916 -11.553489494248456 #
straight-curve $-1 -43.449812311166724 0 11.553489494248456 0 -1 0 I I #
point $-1 -43.449812311166724 28.383268000062916 11.553489494248456 #
point $-1 -43.449812311166724 -28.383268000062916 11.553489494248456 #
straight-curve $-1 43.449812311166724 -28.383268000062916 0 0 0 -1 I I #
straight-curve $-1 43.449812311166724 28.383268000062916 0 0 0 -1 I I #
edge $-1 $271 19.087932792949044 $274 29.724128605054222 $209 $300 forward 7 unknown #
vertex $-1 $223 $301 #
straight-curve $-1 9.5499761480910017 -45.446813670677365 11.553489494248456 0 -1 0 I I #
edge $-1 $274 1.2666613757737828 $220 15.299968168860655 $219 $302 forward 7 unknown #
vertex $-1 $273 $303 #
straight-curve $-1 9.5499761480910017 -28.383268000062905 0.91729368214328844 0 0.69465836192734942 0.71933980857756763 I I #
point $-1 9.5499761480910017 -18.11201334145354 11.553489494248456 #
point $-1 23.583282941177874 -28.383268000062916 0.91729368214327744 #
straight-curve $-1 0 -28.383268000062916 11.553489494248456 1 0 0 I I #
vertex $-1 $226 $304 #
point $-1 19.066629544634431 -17.902261173381238 1.0734187330156497 #
edge $-1 $284 -24.494637759482089 $240 -13.415711343887196 $239 $305 forward 7 unknown #
coedge $-1 $283 $233 $288 $306 reversed $230 $-1 #
coedge $-1 $233 $282 $235 $286 reversed $230 $-1 #
vertex $-1 $234 $307 #
straight-curve $-1 43.449812311166724 -4.4047658223232986 25.663126024471033 0 0.83867056331134215 -0.54463904215088732 I I #
edge $-1 $236 17.32216871800615 $290 28.383268000062916 $283 $308 forward 7 unknown #
point $-1 43.449812311166731 17.32216871800615 11.553489494248456 #
coedge $-1 $239 $238 $282 $306 forward $160 $-1 #
point $-1 32.370885895571838 28.383268000062916 4.3703274975648512 #
vertex $-1 $286 $309 #
straight-curve $-1 0 28.383268000062916 11.553489494248456 -1 0 0 I I #
vertex $-1 $246 $310 #
point $-1 36.536293442884656 22.114055709625511 6.8244677831909382 #
vertex $-1 $250 $311 #
point $-1 41.2844047638539 22.114055709625511 6.8244677831909382 #
straight-curve $-1 -43.449812311166724 28.383268000062916 0 0 0 -1 I I #
point $-1 -43.449812311166724 -28.383268000062916 -11.553489494248456 #
straight-curve $-1 -43.449812311166724 0 -11.553489494248456 0 1 0 I I #
point $-1 -43.449812311166724 28.383268000062916 -11.553489494248456 #
straight-curve $-1 9.5499761480910017 -28.383268000062916 30.6414222871975 0 0 -1 I I #
point $-1 9.5499761480910017 -28.383268000062916 11.553489494248456 #
straight-curve $-1 8.2833147723172189 -28.383268000062916 0.917293682143279 1 0 0 I I #
point $-1 9.5499761480910017 -28.383268000062916 0.91729368214327744 #
point $-1 16.566629544634431 -16.10391165193732 -0.66322717180272373 #
straight-curve $-1 18.955174551684642 28.383268000062913 4.3703274975648512 -1 0 0 I I #
edge $-1 $290 -11.553489494248456 $284 -4.3703274975648512 $282 $312 forward 7 unknown #
point $-1 43.449812311166731 28.383268000062916 4.3703274975648512 #
straight-curve $-1 43.449812311166724 0 11.553489494248456 0 1 0 I I #
point $-1 43.449812311166724 28.383268000062916 11.553489494248456 #
point $-1 35.536293442884656 21.569416667474627 5.9857972198795952 #
point $-1 40.2844047638539 21.569416667474627 5.9857972198795952 #
straight-curve $-1 43.449812311166724 28.383268000062916 0 0 0 -1 I I #
End-of-ACIS-data 