500 0 6 0           
7 Unknown 11 ACIS 5.0 NT 24 Fri Mar 26 02:27:56 1999 
-1 9.9999999999999995e-007 1e-010 
body $-1 $6 $-1 $7 #
body $-1 $8 $-1 $9 #
body $-1 $10 $-1 $11 #
body $-1 $12 $-1 $13 #
body $-1 $14 $-1 $15 #
body $-1 $16 $-1 $17 #
lump $-1 $-1 $18 $0 #
transform $-1 1 0 0 0 1 0 0 0 1 59.450056459242532 40.949362904297125 9.3734762554912141 1 rotate no_reflect no_shear #
lump $-1 $-1 $19 $1 #
transform $-1 1 0 0 0 1 0 0 0 1 59.450056459242532 40.949362904297125 9.3734762554912141 1 rotate no_reflect no_shear #
lump $-1 $-1 $20 $2 #
transform $-1 1 0 0 0 1 0 0 0 1 59.450056459242532 40.949362904297125 9.3734762554912141 1 rotate no_reflect no_shear #
lump $-1 $-1 $21 $3 #
transform $-1 1 0 0 0 1 0 0 0 1 59.450056459242532 40.949362904297125 9.3734762554912141 1 rotate no_reflect no_shear #
lump $-1 $-1 $22 $4 #
transform $-1 1 0 0 0 1 0 0 0 1 59.450056459242532 40.949362904297125 9.3734762554912141 1 rotate no_reflect no_shear #
lump $-1 $-1 $23 $5 #
transform $-1 1 0 0 0 1 0 0 0 1 59.450056459242532 40.949362904297125 9.3734762554912141 1 rotate no_reflect no_shear #
shell $-1 $-1 $-1 $24 $-1 $6 #
shell $-1 $-1 $-1 $25 $-1 $8 #
shell $-1 $-1 $-1 $26 $-1 $10 #
shell $-1 $-1 $-1 $27 $-1 $12 #
shell $-1 $-1 $-1 $28 $-1 $14 #
shell $-1 $-1 $-1 $29 $-1 $16 #
face $-1 $30 $31 $18 $-1 $32 forward single #
face $-1 $33 $34 $19 $-1 $35 forward single #
face $-1 $36 $37 $20 $-1 $38 reversed single #
face $-1 $39 $40 $21 $-1 $41 forward single #
face $-1 $42 $43 $22 $-1 $44 reversed single #
face $-1 $45 $46 $23 $-1 $47 forward single #
face $-1 $48 $49 $18 $-1 $50 reversed single #
loop $-1 $-1 $51 $24 #
plane-surface $-1 0 0 9.3734762554912141 0 0 1 1 0 0 forward_v I I I I #
face $-1 $52 $53 $19 $-1 $54 reversed single #
loop $-1 $-1 $55 $25 #
plane-surface $-1 0 -37.090615655894112 -0.50436318986650797 0 0 1 1 0 0 forward_v I I I I #
face $-1 $56 $57 $20 $-1 $58 reversed single #
loop $-1 $-1 $59 $26 #
plane-surface $-1 -124.20770007079857 25.235855155281612 103.34950762508042 0 1 0 -0.54463904215088732 0 0.83867056331134215 forward_v I I I I #
face $-1 $60 $61 $21 $-1 $62 forward single #
loop $-1 $63 $64 $27 #
cone-surface $-1 -52.927743792376582 33.092609029789365 3.2666604138547219 0.54463904215088732 0 -0.83867056331134215 1.6773411266226843 0 1.0892780843017746 1 I I 0 1 2 forward I I I I #
face $-1 $65 $66 $22 $-1 $67 reversed single #
loop $-1 $-1 $68 $28 #
plane-surface $-1 -7.0380414833806384 32.165315339634382 102.28428260256258 0.82903758062907751 0 0.55919289150049634 0.55919289150049634 0 -0.82903758062907751 forward_v I I I I #
face $-1 $69 $70 $23 $-1 $71 forward single #
loop $-1 $72 $73 $29 #
cone-surface $-1 56.329311950303875 32.165315339634382 5.7255435254306768 -0.82903758062907751 0 -0.55919289150049634 0.83878933725074445 0 -1.2435563709436162 1 I I 0 1 1.5 forward I I I I #
face $-1 $74 $75 $18 $-1 $76 reversed single #
loop $-1 $-1 $77 $30 #
plane-surface $-1 0 0 -9.3734762554912141 0 0 1 1 0 0 forward_v I I I I #
coedge $-1 $78 $79 $80 $81 forward $31 $-1 #
face $-1 $82 $83 $19 $-1 $84 reversed single #
loop $-1 $-1 $85 $33 #
plane-surface $-1 0 -37.090615655894112 -5.8539414260016134 0 0 1 1 0 0 forward_v I I I I #
coedge $-1 $86 $87 $88 $89 reversed $34 $-1 #
face $-1 $90 $91 $20 $-1 $92 forward single #
loop $-1 $-1 $93 $36 #
plane-surface $-1 -59.450056459242518 33.092609029789365 3.6314829459523565 -0.54463904215088732 0 0.83867056331134215 0.83867056331134215 0 0.54463904215088732 forward_v I I I I #
coedge $-1 $94 $95 $96 $97 reversed $37 $-1 #
face $-1 $-1 $98 $21 $-1 $99 forward single #
loop $-1 $100 $101 $39 #
cone-surface $-1 -50.281739160916821 33.092609029789365 -0.80782933632368525 0.54463904215088732 0 -0.83867056331134215 0.83867056331134215 0 0.54463904215088732 1 I I -0.70710678118654735 0.70710678118654768 1 forward I I I I #
loop $-1 $-1 $102 $27 #
coedge $-1 $64 $64 $103 $104 reversed $40 $-1 #
face $-1 $105 $106 $22 $-1 $107 reversed single #
loop $-1 $-1 $108 $42 #
plane-surface $-1 91.534620467084338 23.381267774971647 168.77238054518577 0 1 0 0.82903758062907751 0 0.55919289150049634 forward_v I I I I #
coedge $-1 $109 $110 $111 $112 reversed $43 $-1 #
face $-1 $-1 $113 $23 $-1 $114 forward single #
loop $-1 $115 $116 $45 #
cone-surface $-1 54.496274109232331 32.165315339634382 4.4891439284415622 -0.82903758062907751 0 -0.55919289150049634 0.41939466862537222 0 -0.62177818547180808 1 I I -0.70710678118654757 0.70710678118654757 0.75 forward I I I I #
loop $-1 $-1 $117 $29 #
coedge $-1 $73 $73 $118 $119 reversed $46 $-1 #
face $-1 $120 $121 $18 $-1 $122 reversed single #
loop $-1 $-1 $123 $48 #
plane-surface $-1 0 -40.949362904297125 0 0 1 0 0 0 1 forward_v I I I I #
coedge $-1 $124 $125 $126 $127 forward $49 $-1 #
coedge $-1 $128 $51 $129 $130 forward $31 $-1 #
coedge $-1 $51 $128 $131 $132 forward $31 $-1 #
coedge $-1 $133 $134 $51 $81 reversed $135 $-1 #
edge $-1 $136 -40.949362904297125 $137 40.949362904297125 $80 $138 forward 7 unknown #
face $-1 $139 $140 $19 $-1 $141 reversed single #
loop $-1 $-1 $142 $52 #
plane-surface $-1 0 -33.231868407491099 -3.1791523079340607 0 -1 0 0 0 -1 forward_v I I I I #
coedge $-1 $143 $144 $145 $146 reversed $53 $-1 #
coedge $-1 $147 $55 $148 $149 forward $34 $-1 #
coedge $-1 $55 $147 $150 $151 reversed $34 $-1 #
coedge $-1 $152 $153 $55 $89 forward $154 $-1 #
edge $-1 $155 14.686560579544043 $156 22.404055076350069 $88 $157 forward 7 unknown #
face $-1 $158 $159 $20 $-1 $160 reversed single #
loop $-1 $-1 $96 $56 #
plane-surface $-1 0 0 9.3734762554912141 0 0 1 1 0 0 forward_v I I I I #
coedge $-1 $161 $162 $163 $164 reversed $57 $-1 #
coedge $-1 $95 $59 $165 $166 reversed $37 $-1 #
coedge $-1 $59 $94 $161 $167 reversed $37 $-1 #
coedge $-1 $163 $168 $59 $97 forward $91 $-1 #
edge $-1 $169 2.653793576156751 $170 11.495687731270934 $96 $171 forward 7 unknown #
loop $-1 $-1 $103 $60 #
plane-surface $-1 -59.450056459242518 33.092609029789365 3.6314829459523565 -0.54463904215088732 0 0.83867056331134215 0.83867056331134215 0 0.54463904215088732 forward_v I I I I #
loop $-1 $-1 $172 $39 #
coedge $-1 $101 $101 $102 $173 reversed $61 $-1 #
coedge $-1 $102 $102 $101 $173 forward $63 $-1 #
coedge $-1 $103 $103 $64 $104 forward $98 $-1 #
edge $-1 $174 0 $174 6.2831853071796004 $103 $175 forward 7 unknown #
face $-1 $176 $177 $22 $-1 $178 forward single #
loop $-1 $-1 $179 $65 #
plane-surface $-1 59.450056459242532 0 0 -1 0 0 0 0 1 forward_v I I I I #
coedge $-1 $180 $181 $182 $183 reversed $66 $-1 #
coedge $-1 $184 $68 $185 $186 reversed $43 $-1 #
coedge $-1 $68 $184 $180 $187 forward $43 $-1 #
coedge $-1 $182 $188 $68 $112 forward $177 $-1 #
edge $-1 $189 -24.866705234479927 $190 -7.2986101051544559 $111 $191 forward 7 unknown #
loop $-1 $-1 $118 $69 #
plane-surface $-1 -7.0380414833806384 32.165315339634382 102.28428260256258 0.82903758062907751 0 0.55919289150049634 0.55919289150049634 0 -0.82903758062907751 forward_v I I I I #
loop $-1 $-1 $192 $45 #
coedge $-1 $116 $116 $117 $193 reversed $70 $-1 #
coedge $-1 $117 $117 $116 $193 forward $72 $-1 #
coedge $-1 $118 $118 $73 $119 forward $113 $-1 #
edge $-1 $194 0 $194 6.2831853071796004 $118 $195 forward 7 unknown #
face $-1 $196 $197 $18 $-1 $198 reversed single #
loop $-1 $-1 $199 $74 #
plane-surface $-1 -59.450056459242532 0 0 1 0 0 0 0 -1 forward_v I I I I #
coedge $-1 $200 $131 $201 $202 forward $75 $-1 #
coedge $-1 $203 $77 $200 $204 forward $49 $-1 #
coedge $-1 $77 $203 $205 $206 forward $49 $-1 #
coedge $-1 $134 $133 $77 $127 reversed $135 $-1 #
edge $-1 $207 -40.949362904297125 $208 40.949362904297125 $126 $209 forward 7 unknown #
coedge $-1 $79 $78 $210 $211 forward $31 $-1 #
coedge $-1 $212 $213 $78 $130 reversed $197 $-1 #
edge $-1 $137 -59.450056459242532 $214 59.450056459242532 $129 $215 forward 7 unknown #
coedge $-1 $123 $216 $79 $132 reversed $75 $-1 #
edge $-1 $217 -59.450056459242532 $136 59.450056459242532 $131 $218 forward 7 unknown #
coedge $-1 $126 $80 $216 $219 forward $135 $-1 #
coedge $-1 $80 $126 $212 $220 reversed $135 $-1 #
loop $-1 $-1 $133 $196 #
vertex $-1 $81 $221 #
vertex $-1 $81 $222 #
straight-curve $-1 59.450056459242532 0 9.3734762554912141 0 1 0 I I #
face $-1 $223 $224 $19 $-1 $225 reversed single #
loop $-1 $-1 $226 $82 #
plane-surface $-1 -59.450056459242532 0 0 1 0 0 0 0 -1 forward_v I I I I #
coedge $-1 $227 $148 $153 $228 reversed $83 $-1 #
coedge $-1 $229 $85 $230 $231 reversed $53 $-1 #
coedge $-1 $85 $229 $227 $232 forward $53 $-1 #
coedge $-1 $153 $152 $85 $146 forward $154 $-1 #
edge $-1 $233 -22.404055076350069 $234 -14.686560579544043 $145 $235 forward 7 unknown #
coedge $-1 $87 $86 $226 $236 reversed $34 $-1 #
coedge $-1 $142 $237 $86 $149 reversed $83 $-1 #
edge $-1 $155 -59.450056459242532 $238 59.450056459242532 $148 $239 forward 7 unknown #
coedge $-1 $240 $241 $87 $151 forward $224 $-1 #
edge $-1 $156 -59.450056459242532 $242 59.450056459242532 $150 $243 forward 7 unknown #
coedge $-1 $145 $88 $241 $244 forward $154 $-1 #
coedge $-1 $88 $145 $142 $228 forward $154 $-1 #
loop $-1 $-1 $88 $223 #
vertex $-1 $89 $245 #
vertex $-1 $244 $246 #
straight-curve $-1 59.450056459242532 -18.545307827947056 -0.50436318986650797 0 -1 0 I I #
face $-1 $-1 $247 $20 $-1 $248 reversed single #
loop $-1 $-1 $249 $90 #
plane-surface $-1 0 40.949362904297125 0 0 -1 0 0 0 -1 forward_v I I I I #
coedge $-1 $250 $93 $95 $167 forward $57 $-1 #
coedge $-1 $93 $250 $249 $251 reversed $57 $-1 #
coedge $-1 $252 $96 $93 $164 forward $91 $-1 #
edge $-1 $170 8.6895506403869298 $253 24.403058389402435 $163 $254 forward 7 unknown #
coedge $-1 $255 $256 $94 $166 forward $247 $-1 #
edge $-1 $257 -48.043270866587861 $169 -42.301277557048998 $165 $258 forward 7 unknown #
edge $-1 $170 -10.542750087952911 $257 1.699746028866204e-014 $95 $259 forward 7 unknown #
coedge $-1 $96 $252 $255 $260 forward $91 $-1 #
vertex $-1 $166 $261 #
vertex $-1 $97 $262 #
straight-curve $-1 -62.103850035399283 25.235855155281612 9.3734762554912123 1 0 0 I I #
coedge $-1 $172 $172 $-1 $263 reversed $100 $-1 #
edge $-1 $264 0 $264 6.2831853071796004 $101 $265 forward 7 unknown #
vertex $-1 $104 $266 #
ellipse-curve $-1 -55.029109381685444 33.092609029789365 6.5024796007217764 -0.54463904215088732 0 0.83867056331134215 1.6773411266226843 0 1.0892780843017746 1 I I #
face $-1 $-1 $267 $22 $-1 $268 reversed single #
loop $-1 $-1 $182 $105 #
plane-surface $-1 0 0 9.3734762554912141 0 0 1 1 0 0 forward_v I I I I #
coedge $-1 $269 $270 $181 $271 forward $106 $-1 #
coedge $-1 $181 $108 $110 $187 reversed $66 $-1 #
coedge $-1 $108 $180 $179 $271 reversed $66 $-1 #
coedge $-1 $272 $111 $108 $183 forward $177 $-1 #
edge $-1 $190 9.8637765190225082 $273 13.682746225700363 $182 $274 forward 7 unknown #
coedge $-1 $110 $109 $269 $275 reversed $43 $-1 #
coedge $-1 $276 $277 $109 $186 forward $267 $-1 #
edge $-1 $278 -74.533544442084363 $189 -67.704112657945757 $185 $279 forward 7 unknown #
edge $-1 $280 -118.90011291848506 $190 -112.07068113434644 $180 $281 forward 7 unknown #
coedge $-1 $111 $272 $276 $282 forward $177 $-1 #
vertex $-1 $186 $283 #
vertex $-1 $112 $284 #
straight-curve $-1 55.631086752564663 16.082657669817191 9.3734762554912194 0 -1 0 I I #
coedge $-1 $192 $192 $-1 $285 reversed $115 $-1 #
edge $-1 $286 0 $286 6.2831853071796004 $116 $287 forward 7 unknown #
vertex $-1 $119 $288 #
ellipse-curve $-1 57.540571605903601 32.165315339634382 6.5425484537944119 0.82903758062907751 0 0.55919289150049634 0.83878933725074445 0 -1.2435563709436162 1 I I #
face $-1 $-1 $135 $18 $-1 $289 reversed single #
loop $-1 $-1 $212 $120 #
plane-surface $-1 0 40.949362904297125 0 0 -1 0 0 0 -1 forward_v I I I I #
coedge $-1 $290 $210 $213 $291 forward $121 $-1 #
coedge $-1 $216 $123 $124 $204 reversed $75 $-1 #
coedge $-1 $210 $290 $123 $202 reversed $121 $-1 #
edge $-1 $217 -9.3734762554912141 $292 9.3734762554912141 $201 $293 forward 7 unknown #
coedge $-1 $125 $124 $290 $294 forward $49 $-1 #
edge $-1 $208 -59.450056459242532 $292 59.450056459242532 $200 $295 forward 7 unknown #
coedge $-1 $213 $212 $125 $206 reversed $197 $-1 #
edge $-1 $296 -59.450056459242532 $207 59.450056459242532 $205 $297 forward 7 unknown #
vertex $-1 $127 $298 #
vertex $-1 $219 $299 #
straight-curve $-1 59.450056459242532 0 -9.3734762554912141 0 -1 0 I I #
coedge $-1 $199 $201 $128 $211 reversed $121 $-1 #
edge $-1 $214 -40.949362904297125 $217 40.949362904297125 $210 $300 forward 7 unknown #
coedge $-1 $205 $129 $134 $220 forward $197 $-1 #
coedge $-1 $129 $205 $199 $291 reversed $197 $-1 #
vertex $-1 $130 $301 #
straight-curve $-1 0 40.949362904297125 9.3734762554912141 -1 0 0 I I #
coedge $-1 $131 $200 $133 $219 reversed $75 $-1 #
vertex $-1 $211 $302 #
straight-curve $-1 0 -40.949362904297125 9.3734762554912141 1 0 0 I I #
edge $-1 $136 -9.3734762554912141 $208 9.3734762554912141 $133 $303 forward 7 unknown #
edge $-1 $137 -9.3734762554912141 $207 9.3734762554912141 $134 $304 forward 7 unknown #
point $-1 59.450056459242532 -40.949362904297125 9.3734762554912141 #
point $-1 59.450056459242532 40.949362904297125 9.3734762554912141 #
face $-1 $-1 $154 $19 $-1 $305 reversed single #
loop $-1 $-1 $150 $139 #
plane-surface $-1 0 -40.949362904297125 0 0 1 0 0 0 1 forward_v I I I I #
coedge $-1 $306 $307 $147 $236 forward $140 $-1 #
coedge $-1 $237 $142 $144 $232 reversed $83 $-1 #
edge $-1 $234 -4.264365272034583 $155 1.0852129641005224 $153 $308 forward 7 unknown #
coedge $-1 $144 $143 $309 $310 reversed $53 $-1 #
coedge $-1 $241 $240 $143 $231 forward $224 $-1 #
edge $-1 $311 -59.450056459242532 $233 59.450056459242532 $230 $312 forward 7 unknown #
edge $-1 $313 -59.450056459242532 $234 59.450056459242532 $227 $314 forward 7 unknown #
vertex $-1 $231 $315 #
vertex $-1 $146 $316 #
straight-curve $-1 59.450056459242532 -18.545307827947056 -5.8539414260016134 0 1 0 I I #
edge $-1 $242 -22.404055076350069 $238 -14.686560579544043 $226 $317 forward 7 unknown #
coedge $-1 $148 $227 $306 $318 reversed $83 $-1 #
vertex $-1 $236 $319 #
straight-curve $-1 0 -33.231868407491099 -0.50436318986650797 -1 0 0 I I #
coedge $-1 $230 $150 $307 $320 forward $224 $-1 #
coedge $-1 $150 $230 $152 $244 reversed $224 $-1 #
vertex $-1 $320 $321 #
straight-curve $-1 0 -40.949362904297125 -0.50436318986650797 -1 0 0 I I #
edge $-1 $156 0.50436318986650797 $233 5.8539414260016134 $152 $322 forward 7 unknown #
point $-1 59.450056459242532 -33.231868407491099 -0.50436318986650797 #
point $-1 59.450056459242532 -40.949362904297125 -0.50436318986650797 #
loop $-1 $-1 $165 $158 #
plane-surface $-1 -59.450056459242532 0 0 1 0 0 0 0 -1 forward_v I I I I #
coedge $-1 $323 $324 $162 $251 forward $159 $-1 #
coedge $-1 $162 $161 $256 $325 reversed $57 $-1 #
edge $-1 $253 13.397832385193716 $326 23.940582473146641 $249 $327 forward 7 unknown #
coedge $-1 $168 $163 $324 $328 forward $91 $-1 #
vertex $-1 $328 $329 #
straight-curve $-1 -50.608162304128349 16.546304514894683 9.3734762554912123 0 1 0 I I #
coedge $-1 $330 $165 $168 $260 reversed $247 $-1 #
coedge $-1 $165 $330 $250 $325 forward $247 $-1 #
vertex $-1 $166 $331 #
straight-curve $-1 -59.450056459242532 25.235855155281612 51.67475381254021 0 0 1 I I #
straight-curve $-1 -59.450056459242518 25.235855155281612 3.6314829459523565 -0.83867056331134215 0 -0.54463904215088732 I I #
edge $-1 $332 -40.949362904297125 $169 -25.235855155281612 $255 $333 forward 7 unknown #
point $-1 -59.450056459242532 25.235855155281612 9.3734762554912141 #
point $-1 -50.608162304128349 25.235855155281612 9.3734762554912141 #
edge $-1 $334 1 $334 0 $172 $-1 forward 7 unknown #
vertex $-1 $173 $335 #
ellipse-curve $-1 -50.826378203067712 33.092609029789365 0.030841226987657233 -0.54463904215088732 0 0.83867056331134215 1.6773411266226843 0 1.0892780843017746 1 I I #
point $-1 -53.351768255062765 33.092609029789365 7.5917576850235626 #
loop $-1 $-1 $185 $176 #
plane-surface $-1 0 40.949362904297125 0 0 -1 0 0 0 -1 forward_v I I I I #
coedge $-1 $336 $179 $184 $275 forward $106 $-1 #
coedge $-1 $179 $336 $272 $337 reversed $106 $-1 #
edge $-1 $273 75.012714017101672 $280 80.674569620495276 $179 $338 forward 7 unknown #
coedge $-1 $188 $182 $270 $337 forward $177 $-1 #
vertex $-1 $337 $339 #
straight-curve $-1 45.767310233542169 23.381267774971647 9.3734762554912123 1 0 0 I I #
edge $-1 $280 7.2986101051544559 $278 24.866705234479927 $269 $340 forward 7 unknown #
coedge $-1 $277 $185 $188 $282 reversed $267 $-1 #
coedge $-1 $185 $276 $336 $341 forward $267 $-1 #
vertex $-1 $186 $342 #
straight-curve $-1 17.771428228892638 40.949362904297125 65.502730012073059 -0.55919289150049634 0 0.82903758062907751 I I #
vertex $-1 $275 $343 #
straight-curve $-1 -7.0380414833806384 23.381267774971647 102.28428260256258 -0.55919289150049634 0 0.82903758062907751 I I #
edge $-1 $344 -59.450056459242532 $189 -55.631086752564677 $276 $345 forward 7 unknown #
point $-1 55.631086752564677 40.949362904297118 9.3734762554912123 #
point $-1 55.631086752564677 23.381267774971647 9.3734762554912123 #
edge $-1 $346 1 $346 0 $192 $-1 forward 7 unknown #
vertex $-1 $193 $347 #
ellipse-curve $-1 55.118052294704142 32.165315339634382 4.9085385970669346 0.82903758062907751 0 0.55919289150049634 0.83878933725074445 0 -1.2435563709436162 1 I I #
point $-1 58.379360943154353 32.165315339634382 5.2989920828508037 #
plane-surface $-1 59.450056459242532 0 0 -1 0 0 0 0 1 forward_v I I I I #
coedge $-1 $201 $199 $203 $294 reversed $121 $-1 #
edge $-1 $214 -9.3734762554912141 $296 9.3734762554912141 $213 $348 forward 7 unknown #
vertex $-1 $294 $349 #
straight-curve $-1 -59.450056459242532 -40.949362904297125 0 0 0 -1 I I #
edge $-1 $292 -40.949362904297125 $296 40.949362904297125 $290 $350 forward 7 unknown #
straight-curve $-1 0 -40.949362904297125 -9.3734762554912141 -1 0 0 I I #
vertex $-1 $206 $351 #
straight-curve $-1 0 40.949362904297125 -9.3734762554912141 1 0 0 I I #
point $-1 59.450056459242532 40.949362904297125 -9.3734762554912141 #
point $-1 59.450056459242532 -40.949362904297125 -9.3734762554912141 #
straight-curve $-1 -59.450056459242532 0 9.3734762554912141 0 -1 0 I I #
point $-1 -59.450056459242532 40.949362904297125 9.3734762554912141 #
point $-1 -59.450056459242532 -40.949362904297125 9.3734762554912141 #
straight-curve $-1 59.450056459242532 -40.949362904297125 0 0 0 -1 I I #
straight-curve $-1 59.450056459242532 40.949362904297125 0 0 0 -1 I I #
plane-surface $-1 59.450056459242532 0 0 -1 0 0 0 0 1 forward_v I I I I #
coedge $-1 $309 $226 $237 $318 forward $140 $-1 #
coedge $-1 $226 $309 $240 $320 reversed $140 $-1 #
straight-curve $-1 59.450056459242532 -33.231868407491099 -1.5895761539670303 0 0 1 I I #
coedge $-1 $307 $306 $229 $310 forward $140 $-1 #
edge $-1 $313 14.686560579544043 $311 22.404055076350069 $309 $352 forward 7 unknown #
vertex $-1 $231 $353 #
straight-curve $-1 0 -40.949362904297125 -5.8539414260016134 1 0 0 I I #
vertex $-1 $310 $354 #
straight-curve $-1 0 -33.231868407491099 -5.8539414260016134 1 0 0 I I #
point $-1 59.450056459242532 -40.949362904297125 -5.8539414260016134 #
point $-1 59.450056459242532 -33.231868407491099 -5.8539414260016134 #
straight-curve $-1 -59.450056459242532 -18.545307827947056 -0.50436318986650797 0 1 0 I I #
edge $-1 $238 -1.0852129641005224 $313 4.264365272034583 $306 $355 forward 7 unknown #
point $-1 -59.450056459242532 -33.231868407491099 -0.50436318986650797 #
edge $-1 $242 0.50436318986650797 $311 5.8539414260016134 $307 $356 forward 7 unknown #
point $-1 -59.450056459242532 -40.949362904297125 -0.50436318986650797 #
straight-curve $-1 59.450056459242532 -40.949362904297125 0 0 0 -1 I I #
coedge $-1 $324 $249 $330 $357 reversed $159 $-1 #
coedge $-1 $249 $323 $252 $328 reversed $159 $-1 #
edge $-1 $326 -24.403058389402435 $257 -8.6895506403869298 $256 $358 forward 7 unknown #
vertex $-1 $251 $359 #
straight-curve $-1 -39.371794670486992 40.949362904297125 16.670458852661255 -0.83867056331134215 0 -0.54463904215088732 I I #
edge $-1 $253 50.608162304128349 $332 59.450056459242532 $324 $360 forward 7 unknown #
point $-1 -50.608162304128349 40.949362904297118 9.3734762554912141 #
coedge $-1 $256 $255 $323 $357 forward $247 $-1 #
point $-1 -59.450056459242532 25.235855155281612 3.6314829459523472 #
vertex $-1 $328 $361 #
straight-curve $-1 -59.450056459242532 0 9.3734762554912141 0 -1 0 I I #
vertex $-1 $263 $362 #
point $-1 -49.149037076445026 33.092609029789365 1.1201193112894319 #
coedge $-1 $270 $269 $277 $341 reversed $106 $-1 #
edge $-1 $273 23.381267774971647 $344 40.949362904297125 $270 $363 forward 7 unknown #
straight-curve $-1 59.450056459242532 23.381267774971647 84.386190272592884 0 0 -1 I I #
point $-1 59.450056459242532 23.381267774971647 9.3734762554912141 #
straight-curve $-1 59.450056459242546 16.082657669817191 3.7116206520976078 0 1 0 I I #
edge $-1 $344 -9.3734762554912141 $278 -3.7116206520976078 $336 $364 forward 7 unknown #
point $-1 59.450056459242532 40.949362904297118 3.7116206520976078 #
point $-1 59.450056459242532 23.381267774971647 3.7116206520976078 #
vertex $-1 $337 $365 #
straight-curve $-1 0 40.949362904297125 9.3734762554912141 -1 0 0 I I #
vertex $-1 $285 $366 #
point $-1 55.956841631954887 32.165315339634382 3.6649822261233185 #
straight-curve $-1 -59.450056459242532 40.949362904297125 0 0 0 -1 I I #
point $-1 -59.450056459242532 -40.949362904297125 -9.3734762554912141 #
straight-curve $-1 -59.450056459242532 0 -9.3734762554912141 0 1 0 I I #
point $-1 -59.450056459242532 40.949362904297125 -9.3734762554912141 #
straight-curve $-1 -59.450056459242532 -18.545307827947056 -5.8539414260016134 0 -1 0 I I #
point $-1 -59.450056459242532 -40.949362904297125 -5.8539414260016134 #
point $-1 -59.450056459242532 -33.231868407491099 -5.8539414260016134 #
straight-curve $-1 -59.450056459242532 -33.231868407491099 -1.5895761539670303 0 0 -1 I I #
straight-curve $-1 -59.450056459242532 -40.949362904297125 0 0 0 -1 I I #
edge $-1 $332 -9.3734762554912141 $326 -3.6314829459523472 $323 $367 forward 7 unknown #
straight-curve $-1 -59.450056459242532 16.546304514894683 3.6314829459523481 0 -1 0 I I #
point $-1 -59.450056459242532 40.949362904297118 3.6314829459523472 #
straight-curve $-1 0 40.949362904297125 9.3734762554912141 -1 0 0 I I #
point $-1 -59.450056459242532 40.949362904297125 9.3734762554912141 #
point $-1 -49.73710011876593 33.092609029789365 -1.6464998996350277 #
straight-curve $-1 59.450056459242532 0 9.3734762554912141 0 1 0 I I #
straight-curve $-1 59.450056459242532 40.949362904297125 0 0 0 -1 I I #
point $-1 59.450056459242532 40.949362904297125 9.3734762554912141 #
point $-1 53.87449592376052 32.165315339634382 4.0697492598161897 #
straight-curve $-1 -59.450056459242532 40.949362904297125 0 0 0 -1 I I #
End-of-ACIS-data 